<REAPER_PROJECT 0.1 "6.14/OSX64" 1606763960
  RIPPLE 0
  GROUPOVERRIDE 0 0 0
  AUTOXFADE 1
  ENVATTACH 1
  POOLEDENVATTACH 0
  MIXERUIFLAGS 11 48
  PEAKGAIN 1
  FEEDBACK 0
  PANLAW 1
  PROJOFFS 0 0 0
  MAXPROJLEN 0 600
  GRID 3199 8 1 8 1 0 0 0
  TIMEMODE 1 5 -1 30 0 0 -1
  VIDEO_CONFIG 0 0 256
  PANMODE 3
  CURSOR 225.39124800001409
  ZOOM 6.34429915930574 1044 0
  VZOOMEX 4 0
  USE_REC_CFG 0
  RECMODE 1
  SMPTESYNC 0 30 100 40 1000 300 0 0 1 0 0
  LOOP 0
  LOOPGRAN 0 4
  RECORD_PATH "Audio Files" ""
  <RECORD_CFG
    ZXZhdxgAAA==
  >
  <APPLYFX_CFG
  >
  RENDER_FILE "/Users/scottmetoyer/Desktop/WIP for Amir/insects of the los angeles basin field guide.wav"
  RENDER_FMT 0 2 48000
  RENDER_1X 0
  RENDER_RANGE 1 0 0 18 9000
  RENDER_RESAMPLE 8 0 1
  RENDER_ADDTOPROJ 0
  RENDER_STEMS 0
  RENDER_DITHER 0
  TIMELOCKMODE 0
  TEMPOENVLOCKMODE 1
  ITEMMIX 0
  DEFPITCHMODE 589824 0
  TAKELANE 1
  SAMPLERATE 44100 0 0
  <RENDER_CFG
    ZXZhdxgAAA==
  >
  LOCK 1
  <METRONOME 6 2
    VOL 0.25 0.125
    FREQ 800 1600 1
    BEATLEN 4
    SAMPLES "" ""
    PATTERN 2863311530 2863311529
  >
  GLOBAL_AUTO -1
  TEMPO 120 4 4
  PLAYRATE 1 0 0.25 4
  SELECTION 346.43469600002163 271.30428000001695
  SELECTION2 346.43469600002163 271.30428000001695
  MASTERAUTOMODE 0
  MASTERTRACKHEIGHT 0 0
  MASTERPEAKCOL 16576
  MASTERMUTESOLO 0
  MASTERTRACKVIEW 0 0.6667 0.5 0.5 0 -1 0 0 0 0 -1 -1 0
  MASTERHWOUT 0 0 1 0 0 0 0 -1
  MASTER_NCH 2 2
  MASTER_VOLUME 1 0 -1 -1 1
  MASTER_FX 1
  MASTER_SEL 0
  <MASTERFXLIST
    SHOW 0
    LASTSEL 0
    DOCKED 0
    BYPASS 0 0 0
    <VST "VST: ReaEQ (Cockos)" reaeq.vst.dylib 0 "" 1919247729<56535472656571726561657100000000> ""
      cWVlcu5e7f4CAAAAAQAAAAAAAAACAAAAAAAAAAIAAAABAAAAAAAAAAIAAAAAAAAAqAAAAAEAAAAAABAA
      IQAAAAQAAAAAAAAAAQAAAAAAAAAAAFlAAAAAAAAA8D8AAAAAAAAAQAEIAAAAAQAAAAAAAAAAwHJAAAAAAAAA8D8AAAAAAAAAQAEIAAAAAQAAAAAAAAAAQI9AAAAAAAAA
      8D8AAAAAAAAAQAEBAAAAAQAAAAAAAAAAiLNAAAAAAAAA8D8AAAAAAAAAQAEBAAAAAQAAAAAAAAAAAPA/AAAAAFQCAABwAQAA
      AAAQAAAA
    >
    FLOATPOS 32 641 596 422
    FXID {65F7CCBA-0C16-2F43-8416-F812104C9CAB}
    WAK 0 0
    BYPASS 0 0 0
    <AU "AU: SPAN (Voxengo)" "Voxengo: SPAN" "" 1635083896 880176950 1450733159
      6QMAAAAAAAACAAAAAQAAAAAAAAACAAAAAAAAAAIAAAABAAAAAAAAAAIAAAAAAAAA8AcAADw/eG1sIHZlcnNpb249IjEuMCIgZW5jb2Rpbmc9IlVURi04Ij8+CjwhRE9D
      VFlQRSBwbGlzdCBQVUJMSUMgIi0vL0FwcGxlLy9EVEQgUExJU1QgMS4wLy9FTiIgImh0dHA6Ly93d3cuYXBwbGUuY29tL0RURHMvUHJvcGVydHlMaXN0LTEuMC5kdGQi
      Pgo8cGxpc3QgdmVyc2lvbj0iMS4wIj4KPGRpY3Q+Cgk8a2V5PlZveFBsdWdpblN0YXRlPC9rZXk+Cgk8ZGF0YT4KCVlYQnljd2NaQUFBaEFHc0FlSnpGV010dTFEQVVU
      VXNmdzZOMHFBb0NTaDhVSko0cExTMmx3R0tDaEhoSVVCQjhRVHJqCgltYkZJNGhCbldsbzJJTEZBckZqQkFnSGk4UVA4QWF6WUl2RURmRUkvZ2V0SkhKdzRjUk9rbEVo
      VzdyWFBmZmxlMjNIMgoJYUpxMnNFb1dMMTlEVGJOaitjZUJINEsyc3U2YWxPcklNVmNzZEFVNnhxQ1puUVltTXpacDNER3hNeE9EOU1Bd2ExcjQKCTVqUjdLdEJhSHVt
      NEZGbUxRQitRVlBGUmxSYm1GWGFvYnpwMXBEdW1qVzZtZWhXRDlBaDYwdG9VSi9ZejVVUjNUYyswCglhZUJPVndIOUFRUEhaQ05wMEtUeVNvS2Y2eFdZOHpzRVpyNVBZ
      QmI2QmViQ2dNQXNEZ3JNUlZIOUVtZVlDYWFaS1dSNgoJbVBoZzZNdUlIQ04yV28vWk5Hd1ZJT0NTcWFsb1djOW1MZjdXalBpN0VyMFB4enpDamw1dm00NkRyR0ErMThE
      TVNZVm4KCVNYeHkvcXNKL3JZNC8vZjUvTFAzcmVVb0F3RWI1U0Jnb3l3RWJKU0hnSTB5RWJCTE8yUHNwVjBoMjlkbDUyWjN4L201CglQWEgrL0ZDY245OGI1eGVHNC95
      RmFweGY1THlxRkppTHpDL21DN1BQYkRJN3crRzBqU1lUQTBYZ1F4RnNRUCswT2lVaAoJTXJ0Y3BMTEkvY1FMMktaQVlZOXVWY0FjbDcrQTh6L3hiUU1pNStFLzBkVGJo
      Z0F0WTZiR1luN1JObG5UVGN2aXk0WGUKCWd1RlRDdThrQWRXK3pPckZCbmw5RFRzTmtLTjRBMTJIdmduSlFCS1YxTnJMVmI1NkdVUTgrOHc0eExTVHhvTjdWNWRuCgky
      cmlCZEJ2NXlLTTZiUEkrdlFHREoyUXpXWEJWRlBzRk81Q1hycGp1cjd2b1RXb21VNkdpemtwQ2Z4bTBPRGZVUlhVZAoJMnk3eGZMMU9MT0s5N1ZITmpRUlArdDZ2Slo5
      a05mSnR2R3IwUzVnOFdENldCMXNwZ0swV3dJNFd3QjRzZ0QyeUpaYXQKCTBGZ3lPazREZVphNXJuY1AzSGRhMmdwVkNHeDM3VTBsL1BlOWpzMjNEOVBDTFdlMnNiSU1t
      QmxsRUdsU3FsVjZWR1hWCgk4VEhvTU9sZEFKM0xiNWFMcWV4T3F1eXV0bnhzbzQ4QTBmTmJEWVFVV1RQS29LY1ZjYXhZcFA2d3V5OS9BZFJzN2xEKwoJeW1WSE0ycVVR
      YXV5MHNDVVhVdUtaU1VVMnU2MWRFUVJSeE5iMW5zWVA1MDdDQ2FSSGNGbXJReGF0UzZiSG5xa3QzR3IKCS9Wa3JzaTRqc2N4WVh2d3l5cUNudG9yRkltdWZ0Q0k3RzVm
      S3pzcUNVUWF0eWdyMEIxZmt5WjRpV1luRWVDejhpMVc4CglqYkpiUnZnN29WZnUyaUYzOWNsZC9YTFhnTncxS0hkVjVDN1JWKzRROTRLYjV2WkVJenkyQ2NVOGttYVRJ
      djgySU03bQoJbnNSQTVsL1BHN0xLam4yMzJNNFdDbVZYNE85YUdiVHF2UEZNcDRXNks3elllZk5YTGkyYW44OWY2N1h4YjdVeWFOVjYKCUNyeUNSVjVzbDR2RTBtSVoy
      ZjM5cS9GMHFsWUdyWXFGb25yd1U2OVlMSkhZZHArZnF0VUNUckdyV2JIVkVncGx4MUV4Cgl5cURIVlhGWXhFVWZBSEFtZnhSTUpEdUdFYU1NV2xsWE5pRitHenV0Z25Y
      RnhiYTdybFRmWmF3K2luMlgvWTgvQktxVAoJSy9nUlUremtDbVJVSjljK3dTSklJdDFGNWtOMkM1N01OQkxCc3ZWdTF0aWZTdGREY0c1MlB6K1kyNGNralFKQVBQT1QK
      CUxlWFQ0QStBOFVTSQoJPC9kYXRhPgoJPGtleT5kYXRhPC9rZXk+Cgk8ZGF0YT4KCUFBQUFBQUFBQUFBQUFBQUNBQUFBQUFBQUFBQUFBQUFCQUFBQUFBPT0KCTwvZGF0
      YT4KCTxrZXk+bWFudWZhY3R1cmVyPC9rZXk+Cgk8aW50ZWdlcj4xNDUwNzMzMTU5PC9pbnRlZ2VyPgoJPGtleT5uYW1lPC9rZXk+Cgk8c3RyaW5nPlVudGl0bGVkPC9z
      dHJpbmc+Cgk8a2V5PnN1YnR5cGU8L2tleT4KCTxpbnRlZ2VyPjg4MDE3Njk1MDwvaW50ZWdlcj4KCTxrZXk+dHlwZTwva2V5PgoJPGludGVnZXI+MTYzNTA4Mzg5Njwv
      aW50ZWdlcj4KCTxrZXk+dmVyc2lvbjwva2V5PgoJPGludGVnZXI+MDwvaW50ZWdlcj4KPC9kaWN0Pgo8L3BsaXN0PgoBAAAAAAAAAAAA
    >
    FLOATPOS 64 426 850 605
    FXID {CE91B7BF-0614-C34D-BBC2-A8F6B5DC79DA}
    WAK 0 0
  >
  <MASTERPLAYSPEEDENV
    EGUID {B5607DCC-1AD0-1248-9A2F-AB9C27EFFF05}
    ACT 0 -1
    VIS 0 1 1
    LANEHEIGHT 0 0
    ARM 0
    DEFSHAPE 0 -1 -1
  >
  <TEMPOENVEX
    EGUID {05919879-AF6E-A145-9033-2F0CC9114640}
    ACT 1 -1
    VIS 1 0 1
    LANEHEIGHT 0 0
    ARM 0
    DEFSHAPE 1 -1 -1
    PT 0.000000000000 115.0000287500 1 262148 0 1
  >
  <PROJBAY
  >
  <TRACK {327DEBDD-3830-3840-BCFC-86C9EF8279F3}
    NAME "insects of the los angeles basin"
    PEAKCOL 16576
    BEAT -1
    AUTOMODE 0
    VOLPAN 1 0 -1 -1 1
    MUTESOLO 0 0 0
    IPHASE 0
    PLAYOFFS 0 1
    ISBUS 0 0
    BUSCOMP 0 0 0 0 0
    SHOWINMIX 1 0.6667 0.5 1 0.5 0 -1 0
    FREEMODE 0
    SEL 0
    REC 0 0 1 0 0 0 0
    VU 2
    TRACKHEIGHT 0 0 0 0 -1 0
    INQ 0 0 0 0.5 100 0 0 100
    NCHAN 2
    FX 1
    TRACKID {327DEBDD-3830-3840-BCFC-86C9EF8279F3}
    PERF 0
    MIDIOUT -1
    MAINSEND 1 0
    <FXCHAIN
      WNDRECT 233 1 1159 532
      SHOW 0
      LASTSEL 0
      DOCKED 0
      BYPASS 0 0 0
      <VST "VSTi: FM8 (Native Instruments GmbH)" FM8.vst 0 "" 1315530296<5653544E696638666D38000000000000> ""
        OGZpTu5e7f4AAAAAAgAAAAEAAAAAAAAAAgAAAAAAAADQCgAAAQAAAAAAEAA=
        0AoAAAAAAAABAAAAaHNpbgEAAAAAAAAAN455D8DDx0mHoN4j0l/0WZYAAAAAAAAARFNJTnYAAAABAAAASAAAAAAAAABEU0lOagAAAAEAAAAYAAAAAAAAAERTSU4BAAAA
        AQAAAAEAAAABAAAAAQAAAAEAAAAAAAAAAAAAAAAAAAANYmWFAQAAAAhwEAAAAAAAAQAAAAEAAAAAAAAAAAAAAAAAAAADAAAAMAAwADAAAAAAAAAAAAAAAAAAAAAAAAEA
        AAABAAAAAAAAAERTSU5lAAAA/gkAAAAAAAABAAAAaHNpbgEAAAAAAAAAMOH4NwAUwEaoogAOyNUgkW0AAAAAAAAARFNJTmUAAAABAAAANAAAAAAAAABEU0lOagAAAAEA
        AAAYAAAAAAAAAERTSU4BAAAAAQAAAAEAAAABAAAAAgAAAAEAAAAACAAAAAEAAAAKAAAAMQAuADIALgAwAC4AMQAwADEAMAABAAAAAwAAAAAAAABEU0lObAAAALACAAAA
        AAAAAQAAAGhzaW4BAAAAAAAAACA7190CLVtKvWPIjKqbw/uAAgAAAAAAAERTSU5sAAAAAQAAABgAAAAAAAAARFNJTgEAAAABAAAAAQAAAAEAAAACAAAAAQAAAAAAAAAJ
        AAAAQgByAGEAcwBzACAAUABhAGQAFAAAAE0AYQByAGkAbwBuACAARgByAGUAdQBkAGUAbgB0AGgAYQBsAGUAcgASAAAATgBhAHQAaQB2AGUAIABJAG4AcwB0AHIAdQBt
        AGUAbgB0AHMAAAAAAAAAAAD/////AAAAAAAAAAAAAAAAAAAAAAAAAAABAAAAAQAAAAIAAAADAAAARgBNADgACgAAAEYATQA3ACAATABlAGcAYQBjAHkACAAAAAUAAABC
        AHIAYQBzAHMABQAAAEMAaABvAHIAZAAIAAAARABlAGUAcAAgAFAAYQBkAAwAAABMAG8AbgBnACAAUgBlAGwAZQBhAHMAZQAJAAAAUAByAG8AYwBlAHMAcwBlAGQACQAA
        AFMAeQBuAHQAaAAgAFAAYQBkAAkAAABTAHkAbgB0AGgAZQB0AGkAYwAPAAAAUwB5AG4AdABoAGUAdABpAGMAIABCAHIAYQBzAHMAAAAAAAcAAAAHAAAAXABAAGMAbwBs
        AG8AcgABAAAAMAARAAAAXABAAGQAZQB2AGkAYwBlAHQAeQBwAGUAZgBsAGEAZwBzAAEAAAAxAAsAAABcAEAAcwBvAHUAbgBkAHQAeQBwAGUAAQAAADAABwAAAFwAQAB0
        AGUAbQBwAG8AAQAAADAABgAAAFwAQAB2AGUAcgBsAAUAAAAxAC4ANwAuADgABgAAAFwAQAB2AGUAcgBtAAUAAAAxAC4ANwAuADgABwAAAFwAQAB2AGkAcwBpAGIAAQAA
        ADAAAQAAAAAAAAACAAAARFNJTnkAAABoAAAAAAAAAAEAAABoc2luAQAAAAAAAABG64vCmumHRIQ9Mih2ujahOAAAAAAAAABEU0lOeQAAAAEAAAAYAAAAAAAAAERTSU4B
        AAAAAQAAAAEAAAABAAAAAQAAAAAAAAABAAAAAAAAAAEAAABEU0lOdAAAACUGAAAAAAAAAQAAAGhzaW4BAAAAAAAAAMPiDYJzLJxOuWtBgMMVvqT1BQAAAAAAAERTSU50
        AAAAAQAAANwFAAAAAAAARFNJTnMAAAABAAAAGAAAAAAAAABEU0lOAQAAAAEAAAABAAAAAQAAAAGFEAAAowUAAAKFEABgAAABIAUDaHNpbkAHQAAQHyRrBvAZSEqYrqFX
        TcEPPBhAFCAAA0RTSU5AI+AHA0AAQBsAbSAIATEQIAQgAEAj4ANTEEkCYzKs2sVGp2B2wrYRj5wBoCfAN0Av4BdnQCMBuQ8gXCAAAAUgAwErDSAEIAAIdHNycEU4TUbP
        IAsEvCMAAAkgBwhCcmFzcyBQYWTgHgwKAACoQQAAQEAAAKAgAwAAIAsAACAHAMhAB+AKAAZIQgAAgD8A4AAAAIDgAifAFwB0ICMAJCAD4AcAwB8ATCAbAAQgA+AMAEBb
        4AMDQADAD+ADAEAT4AAAA83MzD4gDAM/mpkZQBfAA+AAFyAK4AcbQBNAAOAHB0AAIBPAq0ALYANAACAXQADgBBtAAEAXQAPgAwBgDwb9ZZc+pnmnIJtAM0ADYBdAG0AD
        CwDrUTg/0m+fPrQ3KEAPQANAAEAHQAPAAOADC6AAAIQhP0GLABAgBwCWIAMAwiADABChi0BnAAggD0Af4BMAQCdAA0AAwAfgDwAAbCBP4QPTADAgawAgIAMAkiAXAIgg
        BwDwIAMAoCALwHMAtCALQJdAAMATAMggE0AA4NtLIAAKBAIDAwMCAQICAwFAAAQAAAEFBCAAAAMgFkAPQBEPAB8ZIykODgA5AAwMGRkMGSAR4AgAAAIgEUQfAT3+IAjg
        PgABLCrgLUgBDyngFTcBAf8gACDp4AEAIObgFQBk26AAEuPy/z6OBgA/uvy/P0YDwD9z+X8gB0Ka4AEDA0jh+j5AAwyuR2G+Fa5HP8L1KL8A4AYAgHHg/1kfBayAEkO/
        ItdBB0YERVdkjkbuVx9GAMAERATSgwdDOWwJvEIKxuhFZfVRRGAUA0SzAkRAFAZBZA1EHtwGgCngDBQCiUNFYD4FdYAtRItkgCkEA5zNr0JAPgL8Lg9gOiK+QbwB+kNA
        BxgDgU3/Q6CXPkZemIlGbsfFRQNp775A4+c7JD0FyEIggBRBJt1ALgmAP1K4Hj/MvIwrwAMABEAUQAPAEEAH4AAUAq5HIeAAGOAVFAIK1yPgACkAA0BPQANAS0ADoKyA
        EAMDMzNzJjUBmT5AGUADCQOPwnW9CtejPAAgABMK1yO9BShcDz/aznc+R+E6P166KSBLCQA/hMBqPwREtjNgDEAQQANgFAKPbEeADAHrEYAHQCngDBQCl24SYCECehQu
        YAdAKQIDjZeADMBPIKwEAD9mZmZgAw0DzMxMP/koHD9Hi0w/ziALAQOdILlDKEAlQANALiAAAI4lhAH+QuAEDCEGQABFxgBoYB3gAhAAiGAQ4AQuoAxALuAADABwYCYA
        AUBG4AIVgACgL4AAoFqAAANP7MTA4AQQA57YCcHgAC4CsRO74AEMAgAAgOADDCPjIHQDwgAAhmCOYOAgFGDkYAhADEBaYAhADEAD4AgQQGtgGUAd4BEMIGuAIgAyIAAg
        C+AMAAAqIAAACCAAACYgAMAgADMgAMAL4AMAICpgKwDhIADgAxcAJyAA4AMPQAAAZCAAIFIBJtkgAEAP4AMAACggAOADDyAqAGQgcgEzLCAAQBcADiAAAAYgACCWAQgH
        IAAgdgEqCSAAQBsARiAAIBYBCN4gAEAP4AsAII5gjwBIIAAACyAAID7mLjngEQAAPiAA4BEd4HUAJs3gFQAkawMAAAgyIlgAQEIYADxCKSADAfBCYvUAASABgv8gByAC
        QmGABqAJIDegCSBIoAklAaAJAAbgAAkAB+AACSAAoB2ASKAGoBPgwk/gSwAAEaBUA2tuYWJBMcAAAYAAIAAAGaARA2N0bmlNUwARIvkhY20QIABK3AGgQuITDQF0AOIB
        ME2r4BMr4P0A4KkAACAh40AAA3NpdWdCJADoI3HAAEUZS8FCNEAAI9JgAAdncHRjWVRNRUAMCw1iZYUBAAAAAAAAAAEAAAAAAQAAAAAAAAA=
        ADxkaXNhYmxlZD4AEAAAAA==
      >
      PRESETNAME <disabled>
      FLOATPOS 0 0 0 0
      FXID {BB33C621-644B-2B40-AE70-E9F4D28E196F}
      WAK 0 0
    >
    <ITEM
      POSITION 0
      SNAPOFFS 0
      LENGTH 231.65211600001447
      LOOP 1
      ALLTAKES 0
      FADEIN 1 0 0 1 0 0
      FADEOUT 1 0 0 1 0 0
      MUTE 0 0
      SEL 0
      IGUID {1E13ED38-54BC-9747-B746-B4F7EE4EEF89}
      IID 28
      NAME "insects of the los angeles basin.mid"
      VOLPAN 1 0 1 -1
      SOFFS 0 0
      PLAYRATE 1 1 0 -1 0 0.0025
      CHANMODE 0
      GUID {33A2A1E7-77AF-C347-8E19-E2E487C3D23E}
      <SOURCE MIDI
        HASDATA 1 128 QN
        CCINTERP 32
        POOLEDEVTS {ED260CF9-3328-5849-9962-1A4044FDC2B6}
        E 0 92 44 7d
        E 896 82 44 7d
        E 0 92 41 7d
        E 1024 82 41 7d
        E 0 92 43 7d
        E 0 92 35 7d
        E 1152 82 35 7d
        E 0 92 44 7d
        E 384 82 44 7d
        E 0 92 3a 7d
        E 1024 82 3a 7d
        E 0 92 44 7d
        E 896 82 44 7d
        E 0 92 41 7d
        E 1024 82 41 7d
        E 0 92 43 7d
        E 0 92 35 7d
        E 1152 82 35 7d
        E 0 92 44 7d
        E 384 82 44 7d
        E 0 92 3a 7d
        E 1024 82 3a 7d
        E 0 92 44 7d
        E 896 82 44 7d
        E 0 92 41 7d
        E 1024 82 41 7d
        E 0 92 43 7d
        E 0 92 35 7d
        E 1152 82 35 7d
        E 0 92 44 7d
        E 384 82 44 7d
        E 0 92 3a 7d
        E 1023 82 3a 7d
        E 1 b0 7b 00
        CCINTERP 32
        CHASE_CC_TAKEOFFS 1
        GUID {748080BA-E1DF-7448-8089-BFBBFDB15F94}
        IGNTEMPO 0 120 4 4
        SRCCOLOR 630
        VELLANE 3 156 0
        VELLANE -1 196 0
      >
    >
  >
  <TRACK {85357A7E-7E0F-CF44-9512-C8921E0484CC}
    NAME "insects of the los angeles basin"
    PEAKCOL 16576
    BEAT -1
    AUTOMODE 0
    VOLPAN 0.51365752360357 -0.656 -1 -1 1
    MUTESOLO 0 0 0
    IPHASE 0
    PLAYOFFS 0 1
    ISBUS 0 0
    BUSCOMP 0 0 0 0 0
    SHOWINMIX 1 0.6667 0.5 1 0.5 0 -1 0
    FREEMODE 0
    SEL 1
    REC 0 0 1 0 0 0 0
    VU 2
    TRACKHEIGHT 0 0 0 0 -1 0
    INQ 0 0 0 0.5 100 0 0 100
    NCHAN 2
    FX 1
    TRACKID {85357A7E-7E0F-CF44-9512-C8921E0484CC}
    PERF 0
    MIDIOUT -1
    MAINSEND 1 0
    <FXCHAIN
      WNDRECT 32 531 1159 532
      SHOW 0
      LASTSEL 0
      DOCKED 0
      BYPASS 0 0 0
      <VST "VSTi: FM8 (Native Instruments GmbH)" FM8.vst 0 "" 1315530296<5653544E696638666D38000000000000> ""
        OGZpTu5e7f4AAAAAAgAAAAEAAAAAAAAAAgAAAAAAAADwCgAAAQAAAAAAEAA=
        8AoAAAAAAAABAAAAaHNpbgEAAAAAAAAAN455D8DDx0mHoN4j0l/0WZYAAAAAAAAARFNJTnYAAAABAAAASAAAAAAAAABEU0lOagAAAAEAAAAYAAAAAAAAAERTSU4BAAAA
        AQAAAAEAAAABAAAAAQAAAAEAAAAAAAAAAAAAAAAAAAANYmWFAQAAAAhwEAAAAAAAAQAAAAEAAAAAAAAAAAAAAAAAAAADAAAAMAAwADAAAAAAAAAAAAAAAAAAAAAAAAEA
        AAABAAAAAAAAAERTSU5lAAAAHgoAAAAAAAABAAAAaHNpbgEAAAAAAAAAMOH4NwAUwEaoogAOyNUgkW0AAAAAAAAARFNJTmUAAAABAAAANAAAAAAAAABEU0lOagAAAAEA
        AAAYAAAAAAAAAERTSU4BAAAAAQAAAAEAAAABAAAAAgAAAAEAAAAACAAAAAEAAAAKAAAAMQAuADIALgAwAC4AMQAwADEAMAABAAAAAwAAAAAAAABEU0lObAAAAMQCAAAA
        AAAAAQAAAGhzaW4BAAAAAAAAACA7190CLVtKvWPIjKqbw/uUAgAAAAAAAERTSU5sAAAAAQAAABgAAAAAAAAARFNJTgEAAAABAAAAAQAAAAEAAAACAAAAAQAAAAAAAAAI
        AAAAQgBhAGUAcgBiAGUAbABsAAUAAABTAHUAbQBtAGEAEgAAAE4AYQB0AGkAdgBlACAASQBuAHMAdAByAHUAbQBlAG4AdABzABIAAABNAG8AZAB3AGgAZQBlAGwAIAAt
        ACAARgBpAGwAdABlAHIACgAAAAAA/////wAAAAAAAAAAAAAAAAAAAAAAAAAAAQAAAAEAAAACAAAAAwAAAEYATQA4ABEAAABUAHIAYQBuAHMAaQBlAG4AdAAgAEEAdAB0
        AGEAYwBrAHMABgAAAA0AAABEAGkAZwBpAHQAYQBsACAAUABpAGEAbgBvABUAAABPAHQAaABlAHIAIABQAGwAdQBjAGsAZQBkACAAUwB0AHIAaQBuAGcAcwAKAAAAUABp
        AGEAbgBvAC8ASwBlAHkAcwAPAAAAUABsAHUAYwBrAGUAZAAgAFMAdAByAGkAbgBnAHMACQAAAFAAcgBvAGMAZQBzAHMAZQBkAAkAAABTAHkAbgB0AGgAZQB0AGkAYwAA
        AAAABwAAAAcAAABcAEAAYwBvAGwAbwByAAEAAAAwABEAAABcAEAAZABlAHYAaQBjAGUAdAB5AHAAZQBmAGwAYQBnAHMAAQAAADEACwAAAFwAQABzAG8AdQBuAGQAdAB5
        AHAAZQABAAAAMAAHAAAAXABAAHQAZQBtAHAAbwABAAAAMAAGAAAAXABAAHYAZQByAGwABQAAADEALgA3AC4AOAAGAAAAXABAAHYAZQByAG0ABQAAADEALgA3AC4AOAAH
        AAAAXABAAHYAaQBzAGkAYgABAAAAMAABAAAAAAAAAAIAAABEU0lOeQAAAGgAAAAAAAAAAQAAAGhzaW4BAAAAAAAAAEbri8Ka6YdEhD0yKHa6NqE4AAAAAAAAAERTSU55
        AAAAAQAAABgAAAAAAAAARFNJTgEAAAABAAAAAQAAAAEAAAABAAAAAAAAAAEAAAAAAAAAAQAAAERTSU50AAAAMQYAAAAAAAABAAAAaHNpbgEAAAAAAAAAw+INgnMsnE65
        a0GAwxW+pAEGAAAAAAAARFNJTnQAAAABAAAA6AUAAAAAAABEU0lOcwAAAAEAAAAYAAAAAAAAAERTSU4BAAAAAQAAAAEAAAABAAAAAfUPAACvBQAAAvUPAGAAAAEgBQNo
        c2luQAdAABAfJGsG8BlISpiuoVdNwQ88GEAUIAADRFNJTkAj4AcDQABAGwBtIAgBoQ8gBCAAQCPgA1MQSQJjMqzaxUanYHbCthGPnHGgJ8A3QC/gF2dAIwApoDcABSBj
        AZsMIAQgAAh0c3JwRThNRs8gCwG8I4AbBVZvY2FsByAQBkJhc3Nvb25ALwRDbGVhbkATBkRpZ2l0YWwgHQA/4AIDAEEgCwVAAACCQgDgDAAA8CAfAIBAL6AAACAgD8AA
        YBcgOwD44AIT4AMAwB/gFABAW+ADA0AAwA/gAwBAE6AABIA/+e1SQA8DP0UrbCAHABggA0AfCIA/PRk/PgAAYCAPA4A/w+ZAEwBAYAsC0QC+IBdgACAPYADAB0AAIAtg
        q0AAIAtgA0AAQAtAACDjYADAD0AHQAPgAwDAD0AHQAPAAEALoAMQgD80EbY+j8K1PoNB/j7P1RYgFwiAPxdIUD7WNG+gnwRwQYXrISAXwABAl0ADAJghnwDIIANBrwBo
        IAcAriADwABAHwBwIYMAMCATQAtAA+AMAEBXIAMAmiAn4AsA4Ac3AEQgJwA8IANABwCcIAcAwCADADggA0IrQAMAoCALAEggA0AAALQgBwCWIAPgAwAANKAPQLdAA8AA
        QEtAAEBLAAwgIwAUIAPgH0tAAECP4DuXQADgQksAAUAAAAIgAUBXI7YFAQACAgIDYAGAGyAVBQgKChQNJSAI4BEAo94CAAD0IAPgAQADvwAAL+ABDeAaAEP74CgAAf4C
        4CcyAP8g5+ACAEED4AUA4AYS4AUuCIA/jgYAP7r8vyKWQpoAoMNq4AQAA83MTD4gAwC+4AEUAUjC4AELwHTgJ1kDzczMvSADIFkAzOBGWUAAAc3M4EuzoABBLQS/Ctej
        PIAP4QUNDgK3kJ9FSgD6Q2pfp0UCJiFjQAwDpoMzROAADATVOyxEA8AZBiQblUVytH7gASoFe6WgRQMAIDcKtOfcRbyW2UUoK+fgAR1ANmAdC8aJqUWtANpDvJ/bRSI2
        Q+EB+kNAAyAMREoFgD/MvIwr4BEMYERAJgOn4OU+4AgqYB0D5hQ8PkAD4A0dQBXAAyBm4AEADAIchSs/ZmZmP56ZGT9AGWAMAnI9SuABDAJej0JAxYAZBNzMzD4iIDLg
        ACoDAyncPiCABAA/MDMzYDsCQApX4AEdQFkHA+tROD/8/z9gDAOxcL0+4AA7QB1ADCAAAHAk2AH+QuAeDEBvIABFUACUYDegEETpRTHgBkijdeAAFYAAoGuAAOARDKBa
        CQAAu1kewYSOisHgABAggATBAAC0weAEOyBrBHDCq6piYMohsoADQCLgGgxAWmAmBheuxz7wKFyAEAqgmZk++CjcPky4XuAFSCBrAABgLggAIgAAGQAAIhMgAyAToAAA
        SYAHAFWABsAAJTMgAuARAAM8Nzw34BEd4AUAATws4AUrAxsAJBtAA+AAJQAa4AAJ4AcAAA7gABAAFYAJADhgAuAdAAAfIABAKQBkIABAB+AwAAApIDkgAwIvAC/mJTDg
        dgAA/+AXAAAEQKABEDIiTwJAMgBilGAEAfBCYugl/gH+AGAJgABCnYAAQAkiVaAdICcgFkATgABACSARIAYgAkAJAQH/wAkgECACoABACSZjIABgCWALQAmAAEAJIBwg
        AqAJIAYgAkAQIK+gCaCBgABAE4AAQAkgOKAdIAkgAKATIACgCSAGIAJAHeATnyAh4AEngAmAAMA7AAAoiyBCYBCgCQADQHngSQAAEaBSA2tuYWJAacAAAYAAIAAAGaAR
        A2N0bmlMwwERJ2CUStxAAEoMAaBC4hMPAXQA4gEwTRvgEyvg/QDgqQAAICHjQAADc2l1Z0IkAOgjScAAACogCCYcQslgAGQbIAAHZ3B0Y1lUTUUgCgwADWJlhQEAAAAA
        AAAAAQAAAAABAAAAAAAAAA==
        ADxkaXNhYmxlZD4AEAAAAA==
      >
      PRESETNAME <disabled>
      FLOATPOS 0 0 0 0
      FXID {0C24D048-D4E0-5746-B1B0-64E21D922A17}
      WAK 0 0
    >
    <ITEM
      POSITION 54.26085600000339
      SNAPOFFS 0
      LENGTH 112.69562400000703
      LOOP 1
      ALLTAKES 0
      FADEIN 1 0 0 1 0 0
      FADEOUT 1 0 0 1 0 0
      MUTE 0 0
      SEL 0
      IGUID {1D409B9F-6FD3-D543-B4BD-C592DEC1531F}
      IID 32
      NAME "insects of the los angeles basin.mid"
      VOLPAN 1 0 1 -1
      SOFFS 0 0
      PLAYRATE 1 1 0 -1 0 0.0025
      CHANMODE 0
      GUID {7038CF24-813C-1441-A35A-019851396480}
      <SOURCE MIDI
        HASDATA 1 128 QN
        CCINTERP 32
        POOLEDEVTS {D84FAF47-AE5E-CC4E-A5EA-7156F384F133}
        E 0 97 43 7d
        E 153 87 43 7d
        E 0 97 33 7d
        E 102 87 33 7d
        E 0 97 30 7d
        E 102 87 30 7d
        E 0 97 43 7d
        E 153 87 43 7d
        E 0 97 33 7d
        E 102 87 33 7d
        E 0 97 30 7d
        E 102 87 30 7d
        E 0 97 43 7d
        E 153 87 43 7d
        E 0 97 33 7d
        E 102 87 33 7d
        E 0 97 30 7d
        E 102 87 30 7d
        E 0 97 43 7d
        E 153 87 43 7d
        E 0 97 33 7d
        E 102 87 33 7d
        E 0 97 30 7d
        E 102 87 30 7d
        E 0 97 43 7d
        E 153 87 43 7d
        E 0 97 33 7d
        E 102 87 33 7d
        E 0 97 30 7d
        E 102 87 30 7d
        E 0 97 43 7d
        E 153 87 43 7d
        E 0 97 33 7d
        E 102 87 33 7d
        E 0 97 30 7d
        E 102 87 30 7d
        E 0 97 43 7d
        E 153 87 43 7d
        E 0 97 33 7d
        E 102 87 33 7d
        E 0 97 30 7d
        E 102 87 30 7d
        E 0 97 43 7d
        E 153 87 43 7d
        E 0 97 33 7d
        E 102 87 33 7d
        E 0 97 30 7d
        E 102 87 30 7d
        E 0 97 43 7d
        E 153 87 43 7d
        E 0 97 33 7d
        E 102 87 33 7d
        E 0 97 30 7d
        E 102 87 30 7d
        E 0 97 43 7d
        E 153 87 43 7d
        E 0 97 33 7d
        E 102 87 33 7d
        E 0 97 30 7d
        E 102 87 30 7d
        E 0 97 43 7d
        E 153 87 43 7d
        E 0 97 33 7d
        E 102 87 33 7d
        E 0 97 30 7d
        E 102 87 30 7d
        E 0 97 43 7d
        E 153 87 43 7d
        E 0 97 33 7d
        E 102 87 33 7d
        E 0 97 30 7d
        E 102 87 30 7d
        E 0 97 43 7d
        E 153 87 43 7d
        E 0 97 33 7d
        E 102 87 33 7d
        E 0 97 30 7d
        E 102 87 30 7d
        E 0 97 43 7d
        E 153 87 43 7d
        E 0 97 33 7d
        E 102 87 33 7d
        E 0 97 30 7d
        E 102 87 30 7d
        E 0 97 43 7d
        E 153 87 43 7d
        E 0 97 33 7d
        E 102 87 33 7d
        E 0 97 30 7d
        E 102 87 30 7d
        E 0 97 43 7d
        E 153 87 43 7d
        E 0 97 33 7d
        E 102 87 33 7d
        E 0 97 30 7d
        E 102 87 30 7d
        E 0 97 43 7d
        E 153 87 43 7d
        E 0 97 33 7d
        E 102 87 33 7d
        E 0 97 30 7d
        E 102 87 30 7d
        E 0 97 43 7d
        E 153 87 43 7d
        E 0 97 33 7d
        E 102 87 33 7d
        E 0 97 30 7d
        E 102 87 30 7d
        E 0 97 43 7d
        E 153 87 43 7d
        E 0 97 33 7d
        E 102 87 33 7d
        E 0 97 30 7d
        E 102 87 30 7d
        E 0 97 43 7d
        E 153 87 43 7d
        E 0 97 33 7d
        E 102 87 33 7d
        E 0 97 30 7d
        E 102 87 30 7d
        E 0 97 43 7d
        E 153 87 43 7d
        E 0 97 33 7d
        E 102 87 33 7d
        E 0 97 30 7d
        E 102 87 30 7d
        E 0 97 43 7d
        E 153 87 43 7d
        E 0 97 33 7d
        E 102 87 33 7d
        E 0 97 30 7d
        E 102 87 30 7d
        E 0 97 43 7d
        E 153 87 43 7d
        E 0 97 33 7d
        E 102 87 33 7d
        E 0 97 30 7d
        E 102 87 30 7d
        E 0 97 43 7d
        E 153 87 43 7d
        E 0 97 33 7d
        E 102 87 33 7d
        E 0 97 30 7d
        E 102 87 30 7d
        E 0 97 43 7d
        E 153 87 43 7d
        E 0 97 33 7d
        E 102 87 33 7d
        E 0 97 30 7d
        E 102 87 30 7d
        E 0 97 43 7d
        E 153 87 43 7d
        E 0 97 33 7d
        E 102 87 33 7d
        E 0 97 30 7d
        E 102 87 30 7d
        E 0 97 43 7d
        E 153 87 43 7d
        E 0 97 33 7d
        E 102 87 33 7d
        E 0 97 30 7d
        E 102 87 30 7d
        E 0 97 43 7d
        E 153 87 43 7d
        E 0 97 33 7d
        E 102 87 33 7d
        E 0 97 30 7d
        E 102 87 30 7d
        E 0 97 43 7d
        E 153 87 43 7d
        E 0 97 33 7d
        E 102 87 33 7d
        E 0 97 30 7d
        E 102 87 30 7d
        E 0 97 43 7d
        E 153 87 43 7d
        E 0 97 33 7d
        E 102 87 33 7d
        E 0 97 30 7d
        E 102 87 30 7d
        E 0 97 43 7d
        E 153 87 43 7d
        E 0 97 33 7d
        E 102 87 33 7d
        E 0 97 30 7d
        E 102 87 30 7d
        E 0 97 43 7d
        E 153 87 43 7d
        E 0 97 33 7d
        E 102 87 33 7d
        E 0 97 30 7d
        E 102 87 30 7d
        E 0 97 43 7d
        E 153 87 43 7d
        E 0 97 33 7d
        E 102 87 33 7d
        E 0 97 30 7d
        E 102 87 30 7d
        E 0 97 43 7d
        E 153 87 43 7d
        E 0 97 33 7d
        E 102 87 33 7d
        E 0 97 30 7d
        E 102 87 30 7d
        E 0 97 43 7d
        E 153 87 43 7d
        E 0 97 33 7d
        E 102 87 33 7d
        E 0 97 30 7d
        E 102 87 30 7d
        E 0 97 43 7d
        E 153 87 43 7d
        E 0 97 33 7d
        E 102 87 33 7d
        E 0 97 30 7d
        E 102 87 30 7d
        E 0 97 43 7d
        E 153 87 43 7d
        E 0 97 33 7d
        E 102 87 33 7d
        E 0 97 30 7d
        E 102 87 30 7d
        E 0 97 43 7d
        E 153 87 43 7d
        E 0 97 33 7d
        E 102 87 33 7d
        E 0 97 30 7d
        E 102 87 30 7d
        E 0 97 43 7d
        E 153 87 43 7d
        E 0 97 33 7d
        E 102 87 33 7d
        E 0 97 30 7d
        E 102 87 30 7d
        E 0 97 43 7d
        E 153 87 43 7d
        E 0 97 33 7d
        E 102 87 33 7d
        E 0 97 30 7d
        E 102 87 30 7d
        E 0 97 43 7d
        E 153 87 43 7d
        E 0 97 33 7d
        E 102 87 33 7d
        E 0 97 30 7d
        E 102 87 30 7d
        E 0 97 43 7d
        E 153 87 43 7d
        E 0 97 33 7d
        E 102 87 33 7d
        E 0 97 30 7d
        E 102 87 30 7d
        E 0 97 43 7d
        E 153 87 43 7d
        E 0 97 33 7d
        E 102 87 33 7d
        E 0 97 30 7d
        E 102 87 30 7d
        E 0 97 43 7d
        E 153 87 43 7d
        E 0 97 33 7d
        E 102 87 33 7d
        E 0 97 30 7d
        E 102 87 30 7d
        E 0 97 43 7d
        E 153 87 43 7d
        E 0 97 33 7d
        E 102 87 33 7d
        E 0 97 30 7d
        E 102 87 30 7d
        E 0 97 43 7d
        E 153 87 43 7d
        E 0 97 33 7d
        E 102 87 33 7d
        E 0 97 30 7d
        E 102 87 30 7d
        E 0 97 43 7d
        E 153 87 43 7d
        E 0 97 33 7d
        E 102 87 33 7d
        E 0 97 30 7d
        E 102 87 30 7d
        E 0 97 43 7d
        E 153 87 43 7d
        E 0 97 33 7d
        E 102 87 33 7d
        E 0 97 30 7d
        E 102 87 30 7d
        E 0 97 43 7d
        E 153 87 43 7d
        E 0 97 33 7d
        E 102 87 33 7d
        E 0 97 30 7d
        E 102 87 30 7d
        E 0 97 43 7d
        E 153 87 43 7d
        E 0 97 33 7d
        E 102 87 33 7d
        E 0 97 30 7d
        E 102 87 30 7d
        E 0 97 43 7d
        E 153 87 43 7d
        E 0 97 33 7d
        E 102 87 33 7d
        E 0 97 30 7d
        E 102 87 30 7d
        E 0 97 43 7d
        E 153 87 43 7d
        E 0 97 33 7d
        E 102 87 33 7d
        E 0 97 30 7d
        E 102 87 30 7d
        E 0 97 43 7d
        E 153 87 43 7d
        E 0 97 33 7d
        E 102 87 33 7d
        E 0 97 30 7d
        E 102 87 30 7d
        E 0 97 43 7d
        E 153 87 43 7d
        E 0 97 33 7d
        E 102 87 33 7d
        E 0 97 30 7d
        E 102 87 30 7d
        E 0 97 43 7d
        E 153 87 43 7d
        E 0 97 33 7d
        E 102 87 33 7d
        E 0 97 30 7d
        E 102 87 30 7d
        E 0 97 43 7d
        E 153 87 43 7d
        E 0 97 33 7d
        E 102 87 33 7d
        E 0 97 30 7d
        E 102 87 30 7d
        E 0 97 43 7d
        E 153 87 43 7d
        E 0 97 33 7d
        E 102 87 33 7d
        E 0 97 30 7d
        E 102 87 30 7d
        E 0 97 43 7d
        E 153 87 43 7d
        E 0 97 33 7d
        E 102 87 33 7d
        E 0 97 30 7d
        E 102 87 30 7d
        E 0 97 43 7d
        E 153 87 43 7d
        E 0 97 33 7d
        E 102 87 33 7d
        E 0 97 30 7d
        E 102 87 30 7d
        E 0 97 43 7d
        E 153 87 43 7d
        E 0 97 33 7d
        E 102 87 33 7d
        E 0 97 30 7d
        E 102 87 30 7d
        E 0 97 43 7d
        E 153 87 43 7d
        E 0 97 33 7d
        E 102 87 33 7d
        E 0 97 30 7d
        E 102 87 30 7d
        E 0 97 43 7d
        E 153 87 43 7d
        E 0 97 33 7d
        E 102 87 33 7d
        E 0 97 30 7d
        E 102 87 30 7d
        E 0 97 43 7d
        E 153 87 43 7d
        E 0 97 33 7d
        E 102 87 33 7d
        E 0 97 30 7d
        E 102 87 30 7d
        E 0 97 43 7d
        E 153 87 43 7d
        E 0 97 33 7d
        E 102 87 33 7d
        E 0 97 30 7d
        E 102 87 30 7d
        E 0 97 43 7d
        E 153 87 43 7d
        E 0 97 33 7d
        E 102 87 33 7d
        E 0 97 30 7d
        E 102 87 30 7d
        E 0 97 43 7d
        E 153 87 43 7d
        E 0 97 33 7d
        E 102 87 33 7d
        E 0 97 30 7d
        E 102 87 30 7d
        E 0 97 43 7d
        E 153 87 43 7d
        E 0 97 33 7d
        E 102 87 33 7d
        E 0 97 30 7d
        E 102 87 30 7d
        E 0 97 43 7d
        E 153 87 43 7d
        E 0 97 33 7d
        E 102 87 33 7d
        E 0 97 30 7d
        E 102 87 30 7d
        E 0 97 43 7d
        E 153 87 43 7d
        E 0 97 33 7d
        E 102 87 33 7d
        E 0 97 30 7d
        E 102 87 30 7d
        E 0 97 43 7d
        E 153 87 43 7d
        E 0 97 33 7d
        E 102 87 33 7d
        E 0 97 30 7d
        E 102 87 30 7d
        E 98 b0 7b 00
        CCINTERP 32
        CHASE_CC_TAKEOFFS 1
        GUID {98C31DFE-EEA1-5349-A151-DB64FE0C473A}
        IGNTEMPO 0 120 4 4
        SRCCOLOR 634
        VELLANE 3 156 0
        VELLANE -1 196 0
      >
    >
  >
  <TRACK {92FCD58C-BFF2-F748-8899-F1B56FC31089}
    NAME "insects of the los angeles basin"
    PEAKCOL 16576
    BEAT -1
    AUTOMODE 0
    VOLPAN 1 0 -1 -1 1
    MUTESOLO 0 0 0
    IPHASE 0
    PLAYOFFS 0 1
    ISBUS 0 0
    BUSCOMP 0 0 0 0 0
    SHOWINMIX 1 0.6667 0.5 1 0.5 0 -1 0
    FREEMODE 0
    SEL 0
    REC 0 0 1 0 0 0 0
    VU 2
    TRACKHEIGHT 0 0 0 0 -1 0
    INQ 0 0 0 0.5 100 0 0 100
    NCHAN 2
    FX 1
    TRACKID {92FCD58C-BFF2-F748-8899-F1B56FC31089}
    PERF 0
    MIDIOUT -1
    MAINSEND 1 0
    <FXCHAIN
      WNDRECT 120 260 1159 532
      SHOW 0
      LASTSEL 0
      DOCKED 0
      BYPASS 0 0 0
      <VST "VSTi: FM8 (Native Instruments GmbH)" FM8.vst 0 "" 1315530296<5653544E696638666D38000000000000> ""
        OGZpTu5e7f4AAAAAAgAAAAEAAAAAAAAAAgAAAAAAAABsCgAAAQAAAAAAEAA=
        bAoAAAAAAAABAAAAaHNpbgEAAAAAAAAAN455D8DDx0mHoN4j0l/0WZYAAAAAAAAARFNJTnYAAAABAAAASAAAAAAAAABEU0lOagAAAAEAAAAYAAAAAAAAAERTSU4BAAAA
        AQAAAAEAAAABAAAAAQAAAAEAAAAAAAAAAAAAAAAAAAANYmWFAQAAAAhwEAAAAAAAAQAAAAEAAAAAAAAAAAAAAAAAAAADAAAAMAAwADAAAAAAAAAAAAAAAAAAAAAAAAEA
        AAABAAAAAAAAAERTSU5lAAAAmgkAAAAAAAABAAAAaHNpbgEAAAAAAAAAMOH4NwAUwEaoogAOyNUgkW0AAAAAAAAARFNJTmUAAAABAAAANAAAAAAAAABEU0lOagAAAAEA
        AAAYAAAAAAAAAERTSU4BAAAAAQAAAAEAAAABAAAAAgAAAAEAAAAACAAAAAEAAAAKAAAAMQAuADIALgAwAC4AMQAwADEAMAABAAAAAwAAAAAAAABEU0lObAAAAGgCAAAA
        AAAAAQAAAGhzaW4BAAAAAAAAACA7190CLVtKvWPIjKqbw/s4AgAAAAAAAERTSU5sAAAAAQAAABgAAAAAAAAARFNJTgEAAAABAAAAAQAAAAEAAAACAAAAAQAAAAAAAAAH
        AAAASAB1AG4AZwBhAHIAeQAPAAAAUABlAHQAZQByACAASwByAGkAcwBjAGgAawBlAHIAEgAAAE4AYQB0AGkAdgBlACAASQBuAHMAdAByAHUAbQBlAG4AdABzAAAAAAAA
        AAAA/////wAAAAAAAAAAAAAAAAAAAAAAAAAAAQAAAAEAAAACAAAAAwAAAEYATQA4AAoAAABGAE0ANwAgAEwAZQBnAGEAYwB5AAUAAAAMAAAATABvAG4AZwAgAFIAZQBs
        AGUAYQBzAGUACQAAAFAAcgBvAGMAZQBzAHMAZQBkAAkAAABTAG8AZgB0ACAATABlAGEAZAAKAAAAUwB5AG4AdABoACAATABlAGEAZAAJAAAAUwB5AG4AdABoAGUAdABp
        AGMAAAAAAAcAAAAHAAAAXABAAGMAbwBsAG8AcgABAAAAMAARAAAAXABAAGQAZQB2AGkAYwBlAHQAeQBwAGUAZgBsAGEAZwBzAAEAAAAxAAsAAABcAEAAcwBvAHUAbgBk
        AHQAeQBwAGUAAQAAADAABwAAAFwAQAB0AGUAbQBwAG8AAQAAADAABgAAAFwAQAB2AGUAcgBsAAUAAAAxAC4ANwAuADgABgAAAFwAQAB2AGUAcgBtAAUAAAAxAC4ANwAu
        ADgABwAAAFwAQAB2AGkAcwBpAGIAAQAAADAAAQAAAAAAAAACAAAARFNJTnkAAABoAAAAAAAAAAEAAABoc2luAQAAAAAAAABG64vCmumHRIQ9Mih2ujahOAAAAAAAAABE
        U0lOeQAAAAEAAAAYAAAAAAAAAERTSU4BAAAAAQAAAAEAAAABAAAAAQAAAAAAAAABAAAAAAAAAAEAAABEU0lOdAAAAAkGAAAAAAAAAQAAAGhzaW4BAAAAAAAAAMPiDYJz
        LJxOuWtBgMMVvqTZBQAAAAAAAERTSU50AAAAAQAAAMAFAAAAAAAARFNJTnMAAAABAAAAGAAAAAAAAABEU0lOAQAAAAEAAAABAAAAAQAAAAH1EAAAhwUAAAL1EABgAAAB
        IAUDaHNpbkAHQAAQHyRrBvAZSEqYrqFXTcEPPBhAFCAAA0RTSU5AI+AHA0AAQBsAbSAIAaEQIAQgAEAj4ANTEEkCYzKs2sVGp2B2wrYRj5xxoCfAN0Av4BdnQCMAKaA3
        AAUgYwGbDSAEIAAIdHNycEU4TUbPIAsEvCMAAAcgBwZIdW5nYXJ54BgKCgAADEIAAJBBAAAoIAcAACAHAoA/AOAQAABIICPgDx/AFwAEICNAU8APwABAD0ADAFjgDh9g
        AEB74AMDQADAD+ADAEAT4AAAA83MzD4gDAM/mpkZQBfAA+AAFyAK4AcbQBNAAOAHB0AAIBNAp2AAIAtgA0AAQAsgAOAEG0AAQBdAA+ADAGAPBv1llz6meacgm0AzQANg
        F0AbQAMLAOtROD/Sb58+tDcoQA9AA0AAQAdAA8AA4AMLoAAAoCFDAMggA0FrABAhs0ALwABgZyAbABAgA+ATAEAnQANAAMAH4A8AQF8AUOAGTwAgIHcAsiATAJ4gA0IX
        QJNAB0AAALQgEwCWIAPgAwBAQ0AAQAfg10sgABkEAgIEAgQBAgIDAQEDAQMAAQEFAwMFAwUCAyAQQAAgI6AABycAGSQpLSsloA7gBAAAAsANAP7ACOAtAAAI4C024AgA
        ABTgCBHgAQAC/wH/IAJkpqAAQOfgFAAgLAUEAwoAAQQgMBYlBgE/UwVgQa7Yfz+pE4A/Ih8AQLbz/eMCPg2AP65HYT5cj4I/uB4FvyADAz8VrsdAEwG+AOACAIBw4P9Z
        Jihj3RFBUCEORZxtzUW7IrFEnbXnRQOAGEAcBchCXzlnRmAQAwEwxUVAEEAhYDoTkcV1RE8u7ERiISRFmeNVQ2ZeAUeAKQK0REbgBCkAAOAKZCK+QBgF+kOGdgJBYDYK
        NWQdReS8SUWBITqAcYAhRBUCgD8FIgNh7w/NzEw/H4XrPtej8D7MvIwrYDpAIUAD4AAQQAjAA2CsCoXrUT8pXA8/XI9CIiYAQuABOsAlQAfgEGSgrIAtYHEgSwQ+rkfh
        PUA2IBDgBQAHBUA1Xj74U+MgsAQAP68a72AHB4TAaj8Dku18YAxAGOAAEEAIwBAHBQWBFT+/n9pgJQIE1RjgABgAA0AU4AQp4A9kIKwEAD9mZmZgA0CbAz9QuB5gDEAU
        YBBAIcADQ2AgAAiIQfpZikJhBr4lnAH+QiEzQAAEiEHeBJFgFAKqXNpgGEA+BwCzBIxC01vBYBCgPgh6QhLbqkIpXMvgAxQIiEHPWYVCfVu34AUUBvSEk0JNh9lgFECs
        IAACcEINIHVk+UAIoFQIAADFTmzAT+zEYAOgkwEAAEAQCMVO7MAUOzHBFCADYJNAAADFIC0AxSAYYD4D2YkdwCADCMGKnVjBntiJwWAUQAAAxSAlQEJAHOAAFCAMYBRA
        GKCTgAAgkwRwwgAAhmCT4QA0IBtgA0CTYAjAEMAHQJPgAAxAFEBpYAhADMAD4CEUQJPgADYgk4AMABYgACAL4AwAAEIgAOAHGAANIAAAFCAA4AcX4A8AABIgAOALGwBB
        IAAAQCAA4AcbABggAABQIADgBxfgHwAAPyAAAMEgAOAPLyDuYO8g2uAI2+A/AABMIADgP0vgRwAA/+AXAEJQAgAIMiJ9BUAyAAAAPEIpIAMC8EIAQkBG+gAAoAkgDMAJ
        IBogAkAQIDegCSBIoAki4qAJAAbgAAksPKATIACgCeDWT+BLAAARoFQDa25hYkFFwAABgAAgAAAZoBEDY3RuaU3DAREnYWNNiEAAS1QBoELiEw8BdADiATAAD+ACC+D9
        AOC9AAAgIddAAANzaXVnQiQA6CPBwAAAKiAIABkgAyOYYAAj0mAABmdwdGNZVE0pzCYQCmJlhQEAAAAAAAAAAQAAAAABAAAAAAAAAA==
        ADxkaXNhYmxlZD4AEAAAAA==
      >
      PRESETNAME <disabled>
      FLOATPOS 0 0 0 0
      FXID {3196C847-DE1D-E644-8A4D-486CC4DAF0FA}
      WAK 0 0
    >
    <ITEM
      POSITION 112.69562400000704
      SNAPOFFS 0
      LENGTH 54.26085600000339
      LOOP 1
      ALLTAKES 0
      FADEIN 1 0 0 1 0 0
      FADEOUT 1 0 0 1 0 0
      MUTE 0 0
      SEL 0
      IGUID {5C43C2A5-1BCD-2B4E-BF42-8F23652E6FFB}
      IID 27
      NAME "insects of the los angeles basin.mid"
      VOLPAN 1 0 1 -1
      SOFFS 0 0
      PLAYRATE 1 1 0 -1 0 0.0025
      CHANMODE 0
      GUID {4B1E62B3-AB63-714E-9F36-A7C6E91F3CA8}
      <SOURCE MIDI
        HASDATA 1 128 QN
        CCINTERP 32
        POOLEDEVTS {6BE6765E-3C5B-9746-A2EF-6F87DED98AA6}
        E 0 91 41 7d
        E 113 81 41 7d
        E 0 91 43 7d
        E 0 91 35 7d
        E 128 81 35 7d
        E 0 91 44 7d
        E 42 81 44 7d
        E 0 91 3a 7d
        E 113 81 3a 7d
        E 0 91 43 7d
        E 85 81 43 7d
        E 0 91 33 7d
        E 56 81 33 7d
        E 0 91 30 7d
        E 56 81 30 7d
        E 0 91 30 7d
        E 56 81 30 7d
        E 0 91 41 7d
        E 113 81 41 7d
        E 0 91 43 7d
        E 0 91 35 7d
        E 128 81 35 7d
        E 0 91 44 7d
        E 42 81 44 7d
        E 0 91 3a 7d
        E 113 81 3a 7d
        E 0 91 43 7d
        E 85 81 43 7d
        E 0 91 33 7d
        E 56 81 33 7d
        E 0 91 30 7d
        E 56 81 30 7d
        E 0 91 30 7d
        E 56 81 30 7d
        E 0 91 41 7d
        E 113 81 41 7d
        E 0 91 43 7d
        E 0 91 35 7d
        E 128 81 35 7d
        E 0 91 44 7d
        E 42 81 44 7d
        E 0 91 3a 7d
        E 113 81 3a 7d
        E 0 91 43 7d
        E 85 81 43 7d
        E 0 91 33 7d
        E 56 81 33 7d
        E 0 91 30 7d
        E 56 81 30 7d
        E 0 91 30 7d
        E 56 81 30 7d
        E 0 91 41 7d
        E 113 81 41 7d
        E 0 91 43 7d
        E 0 91 35 7d
        E 128 81 35 7d
        E 0 91 44 7d
        E 42 81 44 7d
        E 0 91 3a 7d
        E 113 81 3a 7d
        E 0 91 43 7d
        E 85 81 43 7d
        E 0 91 33 7d
        E 56 81 33 7d
        E 0 91 30 7d
        E 56 81 30 7d
        E 0 91 30 7d
        E 56 81 30 7d
        E 0 91 41 7d
        E 113 81 41 7d
        E 0 91 43 7d
        E 0 91 35 7d
        E 128 81 35 7d
        E 0 91 44 7d
        E 42 81 44 7d
        E 0 91 3a 7d
        E 113 81 3a 7d
        E 0 91 43 7d
        E 85 81 43 7d
        E 0 91 33 7d
        E 56 81 33 7d
        E 0 91 30 7d
        E 56 81 30 7d
        E 0 91 30 7d
        E 56 81 30 7d
        E 0 91 41 7d
        E 113 81 41 7d
        E 0 91 43 7d
        E 0 91 35 7d
        E 128 81 35 7d
        E 0 91 44 7d
        E 42 81 44 7d
        E 0 91 3a 7d
        E 113 81 3a 7d
        E 0 91 43 7d
        E 85 81 43 7d
        E 0 91 33 7d
        E 56 81 33 7d
        E 0 91 30 7d
        E 56 81 30 7d
        E 0 91 30 7d
        E 56 81 30 7d
        E 0 91 41 7d
        E 113 81 41 7d
        E 0 91 43 7d
        E 0 91 35 7d
        E 128 81 35 7d
        E 0 91 44 7d
        E 42 81 44 7d
        E 0 91 3a 7d
        E 113 81 3a 7d
        E 0 91 43 7d
        E 85 81 43 7d
        E 0 91 33 7d
        E 56 81 33 7d
        E 0 91 30 7d
        E 56 81 30 7d
        E 0 91 30 7d
        E 56 81 30 7d
        E 0 91 41 7d
        E 113 81 41 7d
        E 0 91 43 7d
        E 0 91 35 7d
        E 128 81 35 7d
        E 0 91 44 7d
        E 42 81 44 7d
        E 0 91 3a 7d
        E 113 81 3a 7d
        E 0 91 43 7d
        E 85 81 43 7d
        E 0 91 33 7d
        E 56 81 33 7d
        E 0 91 30 7d
        E 56 81 30 7d
        E 0 91 30 7d
        E 56 81 30 7d
        E 0 91 41 7d
        E 113 81 41 7d
        E 0 91 43 7d
        E 0 91 35 7d
        E 128 81 35 7d
        E 0 91 44 7d
        E 42 81 44 7d
        E 0 91 3a 7d
        E 113 81 3a 7d
        E 0 91 43 7d
        E 85 81 43 7d
        E 0 91 33 7d
        E 56 81 33 7d
        E 0 91 30 7d
        E 56 81 30 7d
        E 0 91 30 7d
        E 56 81 30 7d
        E 0 91 41 7d
        E 113 81 41 7d
        E 0 91 43 7d
        E 0 91 35 7d
        E 128 81 35 7d
        E 0 91 44 7d
        E 42 81 44 7d
        E 0 91 3a 7d
        E 113 81 3a 7d
        E 0 91 43 7d
        E 85 81 43 7d
        E 0 91 33 7d
        E 56 81 33 7d
        E 0 91 30 7d
        E 56 81 30 7d
        E 0 91 30 7d
        E 56 81 30 7d
        E 0 91 41 7d
        E 113 81 41 7d
        E 0 91 43 7d
        E 0 91 35 7d
        E 128 81 35 7d
        E 0 91 44 7d
        E 42 81 44 7d
        E 0 91 3a 7d
        E 113 81 3a 7d
        E 0 91 43 7d
        E 85 81 43 7d
        E 0 91 33 7d
        E 56 81 33 7d
        E 0 91 30 7d
        E 56 81 30 7d
        E 0 91 30 7d
        E 56 81 30 7d
        E 0 91 41 7d
        E 113 81 41 7d
        E 0 91 43 7d
        E 0 91 35 7d
        E 128 81 35 7d
        E 0 91 44 7d
        E 42 81 44 7d
        E 0 91 3a 7d
        E 113 81 3a 7d
        E 0 91 43 7d
        E 85 81 43 7d
        E 0 91 33 7d
        E 56 81 33 7d
        E 0 91 30 7d
        E 56 81 30 7d
        E 0 91 30 7d
        E 56 81 30 7d
        E 0 91 41 7d
        E 113 81 41 7d
        E 0 91 43 7d
        E 0 91 35 7d
        E 128 81 35 7d
        E 0 91 44 7d
        E 42 81 44 7d
        E 0 91 3a 7d
        E 113 81 3a 7d
        E 0 91 43 7d
        E 85 81 43 7d
        E 0 91 33 7d
        E 56 81 33 7d
        E 0 91 30 7d
        E 56 81 30 7d
        E 0 91 30 7d
        E 56 81 30 7d
        E 0 91 41 7d
        E 113 81 41 7d
        E 0 91 43 7d
        E 0 91 35 7d
        E 128 81 35 7d
        E 0 91 44 7d
        E 42 81 44 7d
        E 0 91 3a 7d
        E 113 81 3a 7d
        E 0 91 43 7d
        E 85 81 43 7d
        E 0 91 33 7d
        E 56 81 33 7d
        E 0 91 30 7d
        E 56 81 30 7d
        E 0 91 30 7d
        E 56 81 30 7d
        E 0 91 41 7d
        E 113 81 41 7d
        E 0 91 43 7d
        E 0 91 35 7d
        E 128 81 35 7d
        E 0 91 44 7d
        E 42 81 44 7d
        E 0 91 3a 7d
        E 113 81 3a 7d
        E 0 91 43 7d
        E 85 81 43 7d
        E 0 91 33 7d
        E 56 81 33 7d
        E 0 91 30 7d
        E 56 81 30 7d
        E 0 91 30 7d
        E 56 81 30 7d
        E 0 91 41 7d
        E 113 81 41 7d
        E 0 91 43 7d
        E 0 91 35 7d
        E 128 81 35 7d
        E 0 91 44 7d
        E 42 81 44 7d
        E 0 91 3a 7d
        E 113 81 3a 7d
        E 0 91 43 7d
        E 85 81 43 7d
        E 0 91 33 7d
        E 56 81 33 7d
        E 0 91 30 7d
        E 56 81 30 7d
        E 0 91 30 7d
        E 56 81 30 7d
        E 0 91 41 7d
        E 113 81 41 7d
        E 0 91 43 7d
        E 0 91 35 7d
        E 128 81 35 7d
        E 0 91 44 7d
        E 42 81 44 7d
        E 0 91 3a 7d
        E 113 81 3a 7d
        E 0 91 43 7d
        E 85 81 43 7d
        E 0 91 33 7d
        E 56 81 33 7d
        E 0 91 30 7d
        E 56 81 30 7d
        E 0 91 30 7d
        E 56 81 30 7d
        E 0 91 41 7d
        E 113 81 41 7d
        E 0 91 43 7d
        E 0 91 35 7d
        E 128 81 35 7d
        E 0 91 44 7d
        E 42 81 44 7d
        E 0 91 3a 7d
        E 113 81 3a 7d
        E 0 91 43 7d
        E 85 81 43 7d
        E 0 91 33 7d
        E 56 81 33 7d
        E 0 91 30 7d
        E 56 81 30 7d
        E 0 91 30 7d
        E 56 81 30 7d
        E 0 91 41 7d
        E 113 81 41 7d
        E 0 91 43 7d
        E 0 91 35 7d
        E 128 81 35 7d
        E 0 91 44 7d
        E 42 81 44 7d
        E 0 91 3a 7d
        E 113 81 3a 7d
        E 0 91 43 7d
        E 85 81 43 7d
        E 0 91 33 7d
        E 56 81 33 7d
        E 0 91 30 7d
        E 56 81 30 7d
        E 0 91 30 7d
        E 56 81 30 7d
        E 0 91 41 7d
        E 113 81 41 7d
        E 0 91 43 7d
        E 0 91 35 7d
        E 128 81 35 7d
        E 0 91 44 7d
        E 42 81 44 7d
        E 0 91 3a 7d
        E 113 81 3a 7d
        E 0 91 43 7d
        E 85 81 43 7d
        E 0 91 33 7d
        E 56 81 33 7d
        E 0 91 30 7d
        E 56 81 30 7d
        E 0 91 30 7d
        E 56 81 30 7d
        E 0 91 41 7d
        E 113 81 41 7d
        E 0 91 43 7d
        E 0 91 35 7d
        E 128 81 35 7d
        E 0 91 44 7d
        E 42 81 44 7d
        E 0 91 3a 7d
        E 113 81 3a 7d
        E 0 91 43 7d
        E 85 81 43 7d
        E 0 91 33 7d
        E 56 81 33 7d
        E 0 91 30 7d
        E 56 81 30 7d
        E 0 91 30 7d
        E 56 81 30 7d
        E 0 91 41 7d
        E 113 81 41 7d
        E 0 91 43 7d
        E 0 91 35 7d
        E 128 81 35 7d
        E 0 91 44 7d
        E 42 81 44 7d
        E 0 91 3a 7d
        E 113 81 3a 7d
        E 0 91 43 7d
        E 85 81 43 7d
        E 0 91 33 7d
        E 56 81 33 7d
        E 0 91 30 7d
        E 56 81 30 7d
        E 0 91 30 7d
        E 56 81 30 7d
        E 0 91 41 7d
        E 113 81 41 7d
        E 0 91 43 7d
        E 0 91 35 7d
        E 128 81 35 7d
        E 0 91 44 7d
        E 42 81 44 7d
        E 0 91 3a 7d
        E 113 81 3a 7d
        E 0 91 43 7d
        E 85 81 43 7d
        E 0 91 33 7d
        E 56 81 33 7d
        E 0 91 30 7d
        E 56 81 30 7d
        E 0 91 30 7d
        E 56 81 30 7d
        E 0 91 41 7d
        E 113 81 41 7d
        E 0 91 43 7d
        E 0 91 35 7d
        E 128 81 35 7d
        E 0 91 44 7d
        E 42 81 44 7d
        E 0 91 3a 7d
        E 113 81 3a 7d
        E 0 91 43 7d
        E 85 81 43 7d
        E 0 91 33 7d
        E 56 81 33 7d
        E 0 91 30 7d
        E 56 81 30 7d
        E 0 91 30 7d
        E 56 81 30 7d
        E 0 91 41 7d
        E 113 81 41 7d
        E 0 91 43 7d
        E 0 91 35 7d
        E 128 81 35 7d
        E 0 91 44 7d
        E 42 81 44 7d
        E 0 91 3a 7d
        E 113 81 3a 7d
        E 0 91 43 7d
        E 85 81 43 7d
        E 0 91 33 7d
        E 56 81 33 7d
        E 0 91 30 7d
        E 56 81 30 7d
        E 0 91 30 7d
        E 56 81 30 7d
        E 0 91 41 7d
        E 113 81 41 7d
        E 0 91 43 7d
        E 0 91 35 7d
        E 128 81 35 7d
        E 0 91 44 7d
        E 42 81 44 7d
        E 0 91 3a 7d
        E 113 81 3a 7d
        E 0 91 43 7d
        E 85 81 43 7d
        E 0 91 33 7d
        E 56 81 33 7d
        E 0 91 30 7d
        E 56 81 30 7d
        E 0 91 30 7d
        E 56 81 30 7d
        E 0 91 41 7d
        E 113 81 41 7d
        E 0 91 43 7d
        E 0 91 35 7d
        E 128 81 35 7d
        E 0 91 44 7d
        E 42 81 44 7d
        E 0 91 3a 7d
        E 113 81 3a 7d
        E 0 91 43 7d
        E 85 81 43 7d
        E 0 91 33 7d
        E 56 81 33 7d
        E 0 91 30 7d
        E 56 81 30 7d
        E 0 91 30 7d
        E 56 81 30 7d
        E 0 91 41 7d
        E 113 81 41 7d
        E 0 91 43 7d
        E 0 91 35 7d
        E 128 81 35 7d
        E 0 91 44 7d
        E 42 81 44 7d
        E 0 91 3a 7d
        E 113 81 3a 7d
        E 0 91 43 7d
        E 85 81 43 7d
        E 0 91 33 7d
        E 56 81 33 7d
        E 0 91 30 7d
        E 56 81 30 7d
        E 0 91 30 7d
        E 56 81 30 7d
        E 0 91 41 7d
        E 113 81 41 7d
        E 0 91 43 7d
        E 0 91 35 7d
        E 128 81 35 7d
        E 0 91 44 7d
        E 42 81 44 7d
        E 0 91 3a 7d
        E 113 81 3a 7d
        E 0 91 43 7d
        E 85 81 43 7d
        E 0 91 33 7d
        E 56 81 33 7d
        E 0 91 30 7d
        E 56 81 30 7d
        E 0 91 30 7d
        E 56 81 30 7d
        E 0 91 41 7d
        E 113 81 41 7d
        E 0 91 43 7d
        E 0 91 35 7d
        E 128 81 35 7d
        E 0 91 44 7d
        E 42 81 44 7d
        E 0 91 3a 7d
        E 113 81 3a 7d
        E 0 91 43 7d
        E 85 81 43 7d
        E 0 91 33 7d
        E 56 81 33 7d
        E 0 91 30 7d
        E 56 81 30 7d
        E 0 91 30 7d
        E 56 81 30 7d
        E 0 91 41 7d
        E 113 81 41 7d
        E 0 91 43 7d
        E 0 91 35 7d
        E 128 81 35 7d
        E 0 91 44 7d
        E 42 81 44 7d
        E 0 91 3a 7d
        E 113 81 3a 7d
        E 0 91 43 7d
        E 85 81 43 7d
        E 0 91 33 7d
        E 56 81 33 7d
        E 0 91 30 7d
        E 56 81 30 7d
        E 0 91 30 7d
        E 56 81 30 7d
        E 0 91 41 7d
        E 113 81 41 7d
        E 0 91 43 7d
        E 0 91 35 7d
        E 128 81 35 7d
        E 0 91 44 7d
        E 42 81 44 7d
        E 0 91 3a 7d
        E 113 81 3a 7d
        E 0 91 43 7d
        E 85 81 43 7d
        E 0 91 33 7d
        E 56 81 33 7d
        E 0 91 30 7d
        E 56 81 30 7d
        E 0 91 30 7d
        E 56 81 30 7d
        E 0 91 41 7d
        E 113 81 41 7d
        E 0 91 43 7d
        E 0 91 35 7d
        E 128 81 35 7d
        E 0 91 44 7d
        E 42 81 44 7d
        E 0 91 3a 7d
        E 113 81 3a 7d
        E 0 91 43 7d
        E 85 81 43 7d
        E 0 91 33 7d
        E 56 81 33 7d
        E 0 91 30 7d
        E 56 81 30 7d
        E 0 91 30 7d
        E 56 81 30 7d
        E 0 91 41 7d
        E 113 81 41 7d
        E 0 91 43 7d
        E 0 91 35 7d
        E 128 81 35 7d
        E 0 91 44 7d
        E 42 81 44 7d
        E 0 91 3a 7d
        E 113 81 3a 7d
        E 0 91 43 7d
        E 85 81 43 7d
        E 0 91 33 7d
        E 56 81 33 7d
        E 0 91 30 7d
        E 56 81 30 7d
        E 0 91 30 7d
        E 56 81 30 7d
        E 0 91 41 7d
        E 113 81 41 7d
        E 0 91 43 7d
        E 0 91 35 7d
        E 128 81 35 7d
        E 0 91 44 7d
        E 42 81 44 7d
        E 0 91 3a 7d
        E 113 81 3a 7d
        E 0 91 43 7d
        E 85 81 43 7d
        E 0 91 33 7d
        E 56 81 33 7d
        E 0 91 30 7d
        E 56 81 30 7d
        E 0 91 30 7d
        E 56 81 30 7d
        E 0 91 41 7d
        E 113 81 41 7d
        E 0 91 43 7d
        E 0 91 35 7d
        E 128 81 35 7d
        E 0 91 44 7d
        E 42 81 44 7d
        E 0 91 3a 7d
        E 113 81 3a 7d
        E 0 91 43 7d
        E 85 81 43 7d
        E 0 91 33 7d
        E 56 81 33 7d
        E 0 91 30 7d
        E 56 81 30 7d
        E 0 91 30 7d
        E 56 81 30 7d
        E 0 91 41 7d
        E 113 81 41 7d
        E 0 91 43 7d
        E 0 91 35 7d
        E 128 81 35 7d
        E 0 91 44 7d
        E 42 81 44 7d
        E 0 91 3a 7d
        E 113 81 3a 7d
        E 0 91 43 7d
        E 85 81 43 7d
        E 0 91 33 7d
        E 56 81 33 7d
        E 0 91 30 7d
        E 56 81 30 7d
        E 0 91 30 7d
        E 56 81 30 7d
        E 0 91 41 7d
        E 113 81 41 7d
        E 0 91 43 7d
        E 0 91 35 7d
        E 128 81 35 7d
        E 0 91 44 7d
        E 42 81 44 7d
        E 0 91 3a 7d
        E 113 81 3a 7d
        E 0 91 43 7d
        E 85 81 43 7d
        E 0 91 33 7d
        E 56 81 33 7d
        E 0 91 30 7d
        E 56 81 30 7d
        E 0 91 30 7d
        E 56 81 30 7d
        E 0 91 41 7d
        E 113 81 41 7d
        E 0 91 43 7d
        E 0 91 35 7d
        E 128 81 35 7d
        E 0 91 44 7d
        E 42 81 44 7d
        E 0 91 3a 7d
        E 113 81 3a 7d
        E 0 91 43 7d
        E 85 81 43 7d
        E 0 91 33 7d
        E 56 81 33 7d
        E 0 91 30 7d
        E 56 81 30 7d
        E 0 91 30 7d
        E 56 81 30 7d
        E 0 91 41 7d
        E 113 81 41 7d
        E 0 91 43 7d
        E 0 91 35 7d
        E 128 81 35 7d
        E 0 91 44 7d
        E 42 81 44 7d
        E 0 91 3a 7d
        E 113 81 3a 7d
        E 0 91 43 7d
        E 85 81 43 7d
        E 0 91 33 7d
        E 56 81 33 7d
        E 0 91 30 7d
        E 56 81 30 7d
        E 0 91 30 7d
        E 56 81 30 7d
        E 0 91 41 7d
        E 113 81 41 7d
        E 0 91 43 7d
        E 0 91 35 7d
        E 128 81 35 7d
        E 0 91 44 7d
        E 42 81 44 7d
        E 0 91 3a 7d
        E 113 81 3a 7d
        E 0 91 43 7d
        E 85 81 43 7d
        E 0 91 33 7d
        E 56 81 33 7d
        E 0 91 30 7d
        E 56 81 30 7d
        E 0 91 30 7d
        E 56 81 30 7d
        E 0 91 41 7d
        E 113 81 41 7d
        E 0 91 43 7d
        E 0 91 35 7d
        E 128 81 35 7d
        E 0 91 44 7d
        E 42 81 44 7d
        E 0 91 3a 7d
        E 113 81 3a 7d
        E 0 91 43 7d
        E 85 81 43 7d
        E 0 91 33 7d
        E 56 81 33 7d
        E 0 91 30 7d
        E 56 81 30 7d
        E 0 91 30 7d
        E 56 81 30 7d
        E 0 91 41 7d
        E 113 81 41 7d
        E 0 91 43 7d
        E 0 91 35 7d
        E 128 81 35 7d
        E 0 91 44 7d
        E 42 81 44 7d
        E 0 91 3a 7d
        E 113 81 3a 7d
        E 0 91 43 7d
        E 85 81 43 7d
        E 0 91 33 7d
        E 56 81 33 7d
        E 0 91 30 7d
        E 56 81 30 7d
        E 0 91 30 7d
        E 56 81 30 7d
        E 0 91 41 7d
        E 113 81 41 7d
        E 0 91 43 7d
        E 0 91 35 7d
        E 128 81 35 7d
        E 0 91 44 7d
        E 42 81 44 7d
        E 0 91 3a 7d
        E 113 81 3a 7d
        E 0 91 43 7d
        E 85 81 43 7d
        E 0 91 33 7d
        E 56 81 33 7d
        E 0 91 30 7d
        E 56 81 30 7d
        E 0 91 30 7d
        E 56 81 30 7d
        E 0 91 41 7d
        E 113 81 41 7d
        E 0 91 43 7d
        E 0 91 35 7d
        E 128 81 35 7d
        E 0 91 44 7d
        E 42 81 44 7d
        E 0 91 3a 7d
        E 113 81 3a 7d
        E 0 91 43 7d
        E 85 81 43 7d
        E 0 91 33 7d
        E 56 81 33 7d
        E 0 91 30 7d
        E 56 81 30 7d
        E 0 91 30 7d
        E 56 81 30 7d
        E 0 91 41 7d
        E 113 81 41 7d
        E 0 91 43 7d
        E 0 91 35 7d
        E 128 81 35 7d
        E 0 91 44 7d
        E 42 81 44 7d
        E 0 91 3a 7d
        E 113 81 3a 7d
        E 0 91 43 7d
        E 85 81 43 7d
        E 0 91 33 7d
        E 56 81 33 7d
        E 0 91 30 7d
        E 56 81 30 7d
        E 0 91 30 7d
        E 56 81 30 7d
        E 0 91 41 7d
        E 113 81 41 7d
        E 0 91 43 7d
        E 0 91 35 7d
        E 128 81 35 7d
        E 0 91 44 7d
        E 42 81 44 7d
        E 0 91 3a 7d
        E 113 81 3a 7d
        E 0 91 43 7d
        E 85 81 43 7d
        E 0 91 33 7d
        E 56 81 33 7d
        E 0 91 30 7d
        E 56 81 30 7d
        E 0 91 30 7d
        E 56 81 30 7d
        E 0 91 41 7d
        E 113 81 41 7d
        E 0 91 43 7d
        E 0 91 35 7d
        E 128 81 35 7d
        E 0 91 44 7d
        E 42 81 44 7d
        E 0 91 3a 7d
        E 113 81 3a 7d
        E 0 91 43 7d
        E 85 81 43 7d
        E 0 91 33 7d
        E 56 81 33 7d
        E 0 91 30 7d
        E 56 81 30 7d
        E 0 91 30 7d
        E 56 81 30 7d
        E 0 91 41 7d
        E 113 81 41 7d
        E 0 91 43 7d
        E 0 91 35 7d
        E 128 81 35 7d
        E 0 91 44 7d
        E 42 81 44 7d
        E 0 91 3a 7d
        E 113 81 3a 7d
        E 0 91 43 7d
        E 85 81 43 7d
        E 0 91 33 7d
        E 56 81 33 7d
        E 0 91 30 7d
        E 56 81 30 7d
        E 0 91 30 7d
        E 56 81 30 7d
        E 0 91 41 7d
        E 113 81 41 7d
        E 0 91 43 7d
        E 0 91 35 7d
        E 128 81 35 7d
        E 0 91 44 7d
        E 42 81 44 7d
        E 0 91 3a 7d
        E 113 81 3a 7d
        E 0 91 43 7d
        E 85 81 43 7d
        E 0 91 33 7d
        E 56 81 33 7d
        E 0 91 30 7d
        E 56 81 30 7d
        E 0 91 30 7d
        E 56 81 30 7d
        E 0 91 41 7d
        E 113 81 41 7d
        E 0 91 43 7d
        E 0 91 35 7d
        E 128 81 35 7d
        E 0 91 44 7d
        E 42 81 44 7d
        E 0 91 3a 7d
        E 113 81 3a 7d
        E 0 91 43 7d
        E 85 81 43 7d
        E 0 91 33 7d
        E 56 81 33 7d
        E 0 91 30 7d
        E 56 81 30 7d
        E 0 91 30 7d
        E 56 81 30 7d
        E 0 91 41 7d
        E 113 81 41 7d
        E 0 91 43 7d
        E 0 91 35 7d
        E 128 81 35 7d
        E 0 91 44 7d
        E 42 81 44 7d
        E 0 91 3a 7d
        E 113 81 3a 7d
        E 0 91 43 7d
        E 85 81 43 7d
        E 0 91 33 7d
        E 56 81 33 7d
        E 0 91 30 7d
        E 56 81 30 7d
        E 0 91 30 7d
        E 56 81 30 7d
        E 0 91 41 7d
        E 113 81 41 7d
        E 0 91 43 7d
        E 0 91 35 7d
        E 128 81 35 7d
        E 0 91 44 7d
        E 42 81 44 7d
        E 0 91 3a 7d
        E 113 81 3a 7d
        E 0 91 43 7d
        E 85 81 43 7d
        E 0 91 33 7d
        E 56 81 33 7d
        E 0 91 30 7d
        E 56 81 30 7d
        E 0 91 30 7d
        E 56 81 30 7d
        E 0 91 41 7d
        E 113 81 41 7d
        E 0 91 43 7d
        E 0 91 35 7d
        E 128 81 35 7d
        E 0 91 44 7d
        E 42 81 44 7d
        E 0 91 3a 7d
        E 113 81 3a 7d
        E 0 91 43 7d
        E 85 81 43 7d
        E 0 91 33 7d
        E 56 81 33 7d
        E 0 91 30 7d
        E 56 81 30 7d
        E 0 91 30 7d
        E 56 81 30 7d
        E 0 91 41 7d
        E 113 81 41 7d
        E 0 91 43 7d
        E 0 91 35 7d
        E 128 81 35 7d
        E 0 91 44 7d
        E 42 81 44 7d
        E 0 91 3a 7d
        E 113 81 3a 7d
        E 0 91 43 7d
        E 85 81 43 7d
        E 0 91 33 7d
        E 56 81 33 7d
        E 0 91 30 7d
        E 56 81 30 7d
        E 0 91 30 7d
        E 56 81 30 7d
        E 0 91 41 7d
        E 113 81 41 7d
        E 0 91 43 7d
        E 0 91 35 7d
        E 128 81 35 7d
        E 0 91 44 7d
        E 42 81 44 7d
        E 0 91 3a 7d
        E 113 81 3a 7d
        E 0 91 43 7d
        E 85 81 43 7d
        E 0 91 33 7d
        E 56 81 33 7d
        E 0 91 30 7d
        E 56 81 30 7d
        E 0 91 30 7d
        E 56 81 30 7d
        E 0 91 41 7d
        E 113 81 41 7d
        E 0 91 43 7d
        E 0 91 35 7d
        E 128 81 35 7d
        E 0 91 44 7d
        E 42 81 44 7d
        E 0 91 3a 7d
        E 113 81 3a 7d
        E 0 91 43 7d
        E 85 81 43 7d
        E 0 91 33 7d
        E 56 81 33 7d
        E 0 91 30 7d
        E 56 81 30 7d
        E 0 91 30 7d
        E 56 81 30 7d
        E 0 91 41 7d
        E 113 81 41 7d
        E 0 91 43 7d
        E 0 91 35 7d
        E 128 81 35 7d
        E 0 91 44 7d
        E 42 81 44 7d
        E 0 91 3a 7d
        E 113 81 3a 7d
        E 0 91 43 7d
        E 85 81 43 7d
        E 0 91 33 7d
        E 56 81 33 7d
        E 0 91 30 7d
        E 56 81 30 7d
        E 0 91 30 7d
        E 56 81 30 7d
        E 0 91 41 7d
        E 113 81 41 7d
        E 0 91 43 7d
        E 0 91 35 7d
        E 128 81 35 7d
        E 0 91 44 7d
        E 42 81 44 7d
        E 0 91 3a 7d
        E 113 81 3a 7d
        E 0 91 43 7d
        E 85 81 43 7d
        E 0 91 33 7d
        E 56 81 33 7d
        E 0 91 30 7d
        E 56 81 30 7d
        E 0 91 30 7d
        E 56 81 30 7d
        E 0 91 41 7d
        E 113 81 41 7d
        E 0 91 43 7d
        E 0 91 35 7d
        E 128 81 35 7d
        E 0 91 44 7d
        E 42 81 44 7d
        E 0 91 3a 7d
        E 113 81 3a 7d
        E 0 91 43 7d
        E 85 81 43 7d
        E 0 91 33 7d
        E 56 81 33 7d
        E 0 91 30 7d
        E 56 81 30 7d
        E 0 91 30 7d
        E 56 81 30 7d
        E 0 91 41 7d
        E 113 81 41 7d
        E 0 91 43 7d
        E 0 91 35 7d
        E 128 81 35 7d
        E 0 91 44 7d
        E 42 81 44 7d
        E 0 91 3a 7d
        E 113 81 3a 7d
        E 0 91 43 7d
        E 85 81 43 7d
        E 0 91 33 7d
        E 56 81 33 7d
        E 0 91 30 7d
        E 56 81 30 7d
        E 0 91 30 7d
        E 56 81 30 7d
        E 0 91 41 7d
        E 113 81 41 7d
        E 0 91 43 7d
        E 0 91 35 7d
        E 128 81 35 7d
        E 0 91 44 7d
        E 42 81 44 7d
        E 0 91 3a 7d
        E 113 81 3a 7d
        E 0 91 43 7d
        E 85 81 43 7d
        E 0 91 33 7d
        E 56 81 33 7d
        E 0 91 30 7d
        E 56 81 30 7d
        E 0 91 30 7d
        E 56 81 30 7d
        E 0 91 41 7d
        E 113 81 41 7d
        E 0 91 43 7d
        E 0 91 35 7d
        E 128 81 35 7d
        E 0 91 44 7d
        E 42 81 44 7d
        E 0 91 3a 7d
        E 113 81 3a 7d
        E 0 91 43 7d
        E 85 81 43 7d
        E 0 91 33 7d
        E 56 81 33 7d
        E 0 91 30 7d
        E 56 81 30 7d
        E 0 91 30 7d
        E 56 81 30 7d
        E 0 91 41 7d
        E 113 81 41 7d
        E 0 91 43 7d
        E 0 91 35 7d
        E 128 81 35 7d
        E 0 91 44 7d
        E 42 81 44 7d
        E 0 91 3a 7d
        E 113 81 3a 7d
        E 0 91 43 7d
        E 85 81 43 7d
        E 0 91 33 7d
        E 56 81 33 7d
        E 0 91 30 7d
        E 56 81 30 7d
        E 0 91 30 7d
        E 56 81 30 7d
        E 0 91 41 7d
        E 113 81 41 7d
        E 0 91 43 7d
        E 0 91 35 7d
        E 128 81 35 7d
        E 0 91 44 7d
        E 42 81 44 7d
        E 0 91 3a 7d
        E 113 81 3a 7d
        E 0 91 43 7d
        E 85 81 43 7d
        E 0 91 33 7d
        E 56 81 33 7d
        E 0 91 30 7d
        E 56 81 30 7d
        E 0 91 30 7d
        E 56 81 30 7d
        E 0 91 41 7d
        E 113 81 41 7d
        E 0 91 43 7d
        E 0 91 35 7d
        E 128 81 35 7d
        E 0 91 44 7d
        E 42 81 44 7d
        E 0 91 3a 7d
        E 113 81 3a 7d
        E 0 91 43 7d
        E 85 81 43 7d
        E 0 91 33 7d
        E 56 81 33 7d
        E 0 91 30 7d
        E 56 81 30 7d
        E 0 91 30 7d
        E 56 81 30 7d
        E 0 91 41 7d
        E 113 81 41 7d
        E 0 91 43 7d
        E 0 91 35 7d
        E 128 81 35 7d
        E 0 91 44 7d
        E 42 81 44 7d
        E 0 91 3a 7d
        E 113 81 3a 7d
        E 0 91 43 7d
        E 85 81 43 7d
        E 0 91 33 7d
        E 56 81 33 7d
        E 0 91 30 7d
        E 56 81 30 7d
        E 0 91 30 7d
        E 56 81 30 7d
        E 0 91 41 7d
        E 113 81 41 7d
        E 0 91 43 7d
        E 0 91 35 7d
        E 128 81 35 7d
        E 0 91 44 7d
        E 42 81 44 7d
        E 0 91 3a 7d
        E 113 81 3a 7d
        E 0 91 43 7d
        E 85 81 43 7d
        E 0 91 33 7d
        E 56 81 33 7d
        E 0 91 30 7d
        E 56 81 30 7d
        E 0 91 30 7d
        E 56 81 30 7d
        E 0 91 41 7d
        E 113 81 41 7d
        E 0 91 43 7d
        E 0 91 35 7d
        E 128 81 35 7d
        E 0 91 44 7d
        E 42 81 44 7d
        E 0 91 3a 7d
        E 113 81 3a 7d
        E 0 91 43 7d
        E 85 81 43 7d
        E 0 91 33 7d
        E 56 81 33 7d
        E 0 91 30 7d
        E 56 81 30 7d
        E 0 91 30 7d
        E 56 81 30 7d
        E 0 91 41 7d
        E 113 81 41 7d
        E 0 91 43 7d
        E 0 91 35 7d
        E 128 81 35 7d
        E 0 91 44 7d
        E 42 81 44 7d
        E 0 91 3a 7d
        E 113 81 3a 7d
        E 0 91 43 7d
        E 85 81 43 7d
        E 0 91 33 7d
        E 56 81 33 7d
        E 0 91 30 7d
        E 56 81 30 7d
        E 0 91 30 7d
        E 56 81 30 7d
        E 0 91 41 7d
        E 113 81 41 7d
        E 0 91 43 7d
        E 0 91 35 7d
        E 128 81 35 7d
        E 0 91 44 7d
        E 42 81 44 7d
        E 0 91 3a 7d
        E 113 81 3a 7d
        E 0 91 43 7d
        E 85 81 43 7d
        E 0 91 33 7d
        E 56 81 33 7d
        E 0 91 30 7d
        E 56 81 30 7d
        E 0 91 30 7d
        E 56 81 30 7d
        E 0 91 41 7d
        E 113 81 41 7d
        E 0 91 43 7d
        E 0 91 35 7d
        E 128 81 35 7d
        E 0 91 44 7d
        E 42 81 44 7d
        E 0 91 3a 7d
        E 113 81 3a 7d
        E 0 91 43 7d
        E 85 81 43 7d
        E 0 91 33 7d
        E 56 81 33 7d
        E 0 91 30 7d
        E 56 81 30 7d
        E 0 91 30 7d
        E 56 81 30 7d
        E 0 91 41 7d
        E 113 81 41 7d
        E 0 91 43 7d
        E 0 91 35 7d
        E 128 81 35 7d
        E 0 91 44 7d
        E 42 81 44 7d
        E 0 91 3a 7d
        E 113 81 3a 7d
        E 0 91 43 7d
        E 85 81 43 7d
        E 0 91 33 7d
        E 56 81 33 7d
        E 0 91 30 7d
        E 56 81 30 7d
        E 0 91 30 7d
        E 56 81 30 7d
        E 0 91 41 7d
        E 113 81 41 7d
        E 0 91 43 7d
        E 0 91 35 7d
        E 128 81 35 7d
        E 0 91 44 7d
        E 42 81 44 7d
        E 0 91 3a 7d
        E 113 81 3a 7d
        E 0 91 43 7d
        E 85 81 43 7d
        E 0 91 33 7d
        E 56 81 33 7d
        E 0 91 30 7d
        E 56 81 30 7d
        E 0 91 30 7d
        E 56 81 30 7d
        E 0 91 41 7d
        E 113 81 41 7d
        E 0 91 43 7d
        E 0 91 35 7d
        E 128 81 35 7d
        E 0 91 44 7d
        E 42 81 44 7d
        E 0 91 3a 7d
        E 113 81 3a 7d
        E 0 91 43 7d
        E 85 81 43 7d
        E 0 91 33 7d
        E 56 81 33 7d
        E 0 91 30 7d
        E 56 81 30 7d
        E 0 91 30 7d
        E 56 81 30 7d
        E 0 91 41 7d
        E 113 81 41 7d
        E 0 91 43 7d
        E 0 91 35 7d
        E 128 81 35 7d
        E 0 91 44 7d
        E 42 81 44 7d
        E 0 91 3a 7d
        E 113 81 3a 7d
        E 0 91 43 7d
        E 85 81 43 7d
        E 0 91 33 7d
        E 56 81 33 7d
        E 0 91 30 7d
        E 56 81 30 7d
        E 0 91 30 7d
        E 56 81 30 7d
        E 0 91 41 7d
        E 113 81 41 7d
        E 0 91 43 7d
        E 0 91 35 7d
        E 128 81 35 7d
        E 0 91 44 7d
        E 42 81 44 7d
        E 0 91 3a 7d
        E 113 81 3a 7d
        E 0 91 43 7d
        E 85 81 43 7d
        E 0 91 33 7d
        E 56 81 33 7d
        E 0 91 30 7d
        E 56 81 30 7d
        E 0 91 30 7d
        E 56 81 30 7d
        E 0 91 41 7d
        E 113 81 41 7d
        E 0 91 43 7d
        E 0 91 35 7d
        E 90 81 35 00
        E 0 81 43 00
        E 0 b0 7b 00
        CCINTERP 32
        CHASE_CC_TAKEOFFS 1
        GUID {A50251AE-A9A0-AD46-A235-4AD42E2FBD1A}
        IGNTEMPO 0 120 4 4
        SRCCOLOR 629
        VELLANE 3 156 0
        VELLANE -1 196 0
      >
    >
  >
  <TRACK {84137C54-DE38-284D-BC61-AABC38B5A04F}
    NAME "insects of the los angeles basin"
    PEAKCOL 16576
    BEAT -1
    AUTOMODE 0
    VOLPAN 0.31104826827022 0 -1 -1 1
    MUTESOLO 0 0 0
    IPHASE 0
    PLAYOFFS 0 1
    ISBUS 0 0
    BUSCOMP 0 0 0 0 0
    SHOWINMIX 1 0.6667 0.5 1 0.5 0 -1 0
    FREEMODE 0
    SEL 0
    REC 0 0 1 0 0 0 0
    VU 2
    TRACKHEIGHT 0 0 0 0 -1 0
    INQ 0 0 0 0.5 100 0 0 100
    NCHAN 2
    FX 1
    TRACKID {84137C54-DE38-284D-BC61-AABC38B5A04F}
    PERF 0
    MIDIOUT -1
    MAINSEND 1 0
    <FXCHAIN
      WNDRECT 32 531 1159 532
      SHOW 0
      LASTSEL 0
      DOCKED 0
      BYPASS 0 0 0
      <VST "VSTi: FM8 (Native Instruments GmbH)" FM8.vst 0 "" 1315530296<5653544E696638666D38000000000000> ""
        OGZpTu5e7f4AAAAAAgAAAAEAAAAAAAAAAgAAAAAAAACrCgAAAQAAAAAAEAA=
        qwoAAAAAAAABAAAAaHNpbgEAAAAAAAAAN455D8DDx0mHoN4j0l/0WZYAAAAAAAAARFNJTnYAAAABAAAASAAAAAAAAABEU0lOagAAAAEAAAAYAAAAAAAAAERTSU4BAAAA
        AQAAAAEAAAABAAAAAQAAAAEAAAAAAAAAAAAAAAAAAAANYmWFAQAAAAhwEAAAAAAAAQAAAAEAAAAAAAAAAAAAAAAAAAADAAAAMAAwADAAAAAAAAAAAAAAAAAAAAAAAAEA
        AAABAAAAAAAAAERTSU5lAAAA2QkAAAAAAAABAAAAaHNpbgEAAAAAAAAAMOH4NwAUwEaoogAOyNUgkW0AAAAAAAAARFNJTmUAAAABAAAANAAAAAAAAABEU0lOagAAAAEA
        AAAYAAAAAAAAAERTSU4BAAAAAQAAAAEAAAABAAAAAgAAAAEAAAAACAAAAAEAAAAKAAAAMQAuADIALgAwAC4AMQAwADEAMAABAAAAAwAAAAAAAABEU0lObAAAAKgCAAAA
        AAAAAQAAAGhzaW4BAAAAAAAAACA7190CLVtKvWPIjKqbw/t4AgAAAAAAAERTSU5sAAAAAQAAABgAAAAAAAAARFNJTgEAAAABAAAAAQAAAAEAAAACAAAAAQAAAAAAAAAP
        AAAAQQBkAGQAaQBjAHQAaQB2AGUAIABTAHkAbgB0AGgADgAAAEgAYQBuAHMAIABTAGMAaABlAGYAZgBsAGUAcgASAAAATgBhAHQAaQB2AGUAIABJAG4AcwB0AHIAdQBt
        AGUAbgB0AHMAEgAAAE0AbwBkAHcAaABlAGUAbAAgAC0AIABFAHgAYwBpAHQAZQByAAAAAAD/////AAAAAAAAAAAAAAAAAAAAAAAAAAABAAAAAQAAAAIAAAADAAAARgBN
        ADgAEQAAAFQAcgBhAG4AcwBpAGUAbgB0ACAAQQB0AHQAYQBjAGsAcwAFAAAACgAAAEIAcgBpAGcAaAB0ACAAUABhAGQADAAAAEwAbwBuAGcAIABSAGUAbABlAGEAcwBl
        AAkAAABQAHIAbwBjAGUAcwBzAGUAZAAJAAAAUwB5AG4AdABoACAAUABhAGQACQAAAFMAeQBuAHQAaABlAHQAaQBjAAAAAAAHAAAABwAAAFwAQABjAG8AbABvAHIAAQAA
        ADAAEQAAAFwAQABkAGUAdgBpAGMAZQB0AHkAcABlAGYAbABhAGcAcwABAAAAMQALAAAAXABAAHMAbwB1AG4AZAB0AHkAcABlAAEAAAAwAAcAAABcAEAAdABlAG0AcABv
        AAEAAAAwAAYAAABcAEAAdgBlAHIAbAAFAAAAMQAuADcALgA4AAYAAABcAEAAdgBlAHIAbQAFAAAAMQAuADcALgA4AAcAAABcAEAAdgBpAHMAaQBiAAEAAAAwAAEAAAAA
        AAAAAgAAAERTSU55AAAAaAAAAAAAAAABAAAAaHNpbgEAAAAAAAAARuuLwprph0SEPTIodro2oTgAAAAAAAAARFNJTnkAAAABAAAAGAAAAAAAAABEU0lOAQAAAAEAAAAB
        AAAAAQAAAAEAAAAAAAAAAQAAAAAAAAABAAAARFNJTnQAAAAIBgAAAAAAAAEAAABoc2luAQAAAAAAAADD4g2CcyycTrlrQYDDFb6k2AUAAAAAAABEU0lOdAAAAAEAAAC/
        BQAAAAAAAERTSU5zAAAAAQAAABgAAAAAAAAARFNJTgEAAAABAAAAAQAAAAEAAAAB2A8AAIYFAAAC2A8AYAAAASAFA2hzaW5AB0AAEB8kawbwGUhKmK6hV03BDzwYQBQg
        AANEU0lOQCPgBwNAAEAbAG0gCAGEDyAEIABAI+ADUxBJAmMyrNrFRqdgdsK2EY+cVKAnwDdAL+AXZ0AjAAygNwAFIGMBfgwgBCAACHRzcnBFOE1GzyALA7wjAABAIg5B
        ZGRpY3RpdmUgU3ludGhALgVSYXNweQYgIwVNaWxkZXJAEgtIYXJzaAAA6EEAAJggAwBQIAMAAEADBUAAAExCAOAEAAJAwQBgAABIIBcCgD8A4AAAANhAL6AAgBcC5u34
        4AIT4AMAgB8CAADAIF/gDQACIR8UQFvgAwNAAAM/16NwQBPgAwDgAg8GgD89Gb8+ACAAAolWWCAHBEg/844zYB8CcJf6IA8AkCADA4A/w+ZAMwDQYAtADwAAgADgBgdg
        FyATYAdAACALQANgD0ALIABAC0ADwA9gB6Ab4AAAIA8IgD+PwrU+Nc07YAtAD+ABA4AfAt2TN2ATBkCkPz8sQyxgCwYo7Y0+V1sxYAsGAAAgQRlzlyCzwABAE0ADALIh
        hwDIIAMAYCFrQAMApiALwABAHwAsIA8AyCAb4AgAB4D//38/ArtkIFtAJ0ADADQgK0AHBQAAnsxwPCAGoACAE4AAQGtAA8AAQgcAIKBfQAtAAwCgIEdAB0AAALQgCwCW
        IANAAABYIAcAoCArAKQgB0AAQEdAA8AAQDPgx0sgAAIBAgFgAAACY7kgAAMBAgMCYAAAAyAMgAAFPjtVZF9fIAsFMiYmGRksIAhAAwAA4QLwAQACIANgAAr+nUzNz8bk
        AOUAZEAPYATgIgAFB+iu4c8h4B8wBS4nMzU5M+ATLQDo4AocBP8B//UBRKfgAABhAeATACApBRIBBR4aFCAIFVz+v0DqBIBArth/P5I6gT9ioYBAexTkBS4TuB4FvhWu
        xz6kcL2+61G4PXsULj8gA+EDMQAAgG8gCOD8WSJAAIAjeRbIQjYpvUQDAC0pQjjvK0OMn8xEvkP8RCAdAQdDQB1gDAL//3xgDANtEyhFIBkAM+ADDAAPYAwM8tcVRQKa
        gIlEqE21RSBZAD/gBAwi2UZJQAND4SAdQAQPOY5jP8y8jCsDy5PIPnxxdWAMQBDgBB3gIwwDUAOgPuAAQMAMBQMw3US/AOACAAMCku18QhgRP4TAaj8D9ihcPozCdT9G
        4fo+QBDgBB3gHwwgXQM/ZmZmYAPgBAwg+UXT4AEDQB0gAEdIAf5CoAwAiCUF4AAMAAwhlOAADOAEGQBE4BAZAHBgGULaIADgADyAAKBjDwAAwLh6wQKZhm3CwFkewAAg
        AOAAGQi4WR7BAqnAF8IgFAQAGFc/wuAAGUAA4AQMIGMAcCAmAIZguiYsgANAImAMA2CPwj7gAAxAHeArDCBjgDwABiAAAAggACAP4AwAABQgAAD6IADAHAkQEAcTEBAJ
        YQAuIBEAYSAD4AIAAFIgAAD3IADgAhIIABoaChMODgINIArgBAAAXCAAAAogAOAEFCAABxMTCh8REQwdIAoAHiADYAAAZCAAABEgAGAM4AYABy4uCi4VFQsVwBYgKgFk
        GiAAwA/gDwAETExkTEggACCu4ASv4NcAAP/gFwAABEEBAQhRIlQFQDIAAAA8QikgAwHwQmKkAAEgAYKuIAcgAiAmoAagCSOMoAkgSKAJKvCgCSsEoAkAB+AACSAAoBPg
        1k/gSwDDEwNrbmFiQUXAAAGAACAAABmgEQNjdG5pTKYBESdhY2xoIABKNAGgQuITDwF0AOIBMEzb4BMr4P0A4KkAACAh40AAA3NpdWdCJADoI8HAAAAqIAgAGSADI5hg
        ACPSYAAGZ3B0Y1lUTSiEDQAADWJlhQEAAAAAAAAAAQAAAAABAAAAAAAAAA==
        ADxkaXNhYmxlZD4AEAAAAA==
      >
      PRESETNAME <disabled>
      FLOATPOS 0 0 0 0
      FXID {88CD3BB5-9E45-A141-A8E3-A0C58D3B3FA4}
      WAK 0 0
    >
    <ITEM
      POSITION 166.95648000001043
      SNAPOFFS 0
      LENGTH 45.91303200000317
      LOOP 1
      ALLTAKES 0
      FADEIN 1 0 0 1 0 0
      FADEOUT 1 0 0 1 0 0
      MUTE 0 0
      SEL 0
      IGUID {778851F7-DC89-384E-85D5-2DD9D91BFA3D}
      IID 29
      NAME "insects of the los angeles basin.mid"
      VOLPAN 1 0 1 -1
      SOFFS 0 0
      PLAYRATE 1 1 0 -1 0 0.0025
      CHANMODE 0
      GUID {07A8D2A3-872D-854F-ABEA-BA670FA82DF4}
      <SOURCE MIDI
        HASDATA 1 128 QN
        CCINTERP 32
        POOLEDEVTS {CED37BCF-65C5-9F4F-B139-52972C465BD3}
        E 0 94 30 7d
        E 192 84 30 7d
        E 0 94 33 7d
        E 288 84 33 7d
        E 0 94 44 7d
        E 224 84 44 7d
        E 0 94 41 7d
        E 256 84 41 7d
        E 0 94 30 7d
        E 192 84 30 7d
        E 0 94 33 7d
        E 288 84 33 7d
        E 0 94 44 7d
        E 224 84 44 7d
        E 0 94 41 7d
        E 256 84 41 7d
        E 0 94 30 7d
        E 192 84 30 7d
        E 0 94 33 7d
        E 288 84 33 7d
        E 0 94 44 7d
        E 224 84 44 7d
        E 0 94 41 7d
        E 256 84 41 7d
        E 0 94 30 7d
        E 192 84 30 7d
        E 0 94 33 7d
        E 288 84 33 7d
        E 0 94 44 7d
        E 224 84 44 7d
        E 0 94 41 7d
        E 256 84 41 7d
        E 0 94 30 7d
        E 192 84 30 7d
        E 0 94 33 7d
        E 288 84 33 7d
        E 0 94 44 7d
        E 224 84 44 7d
        E 0 94 41 7d
        E 256 84 41 7d
        E 0 94 30 7d
        E 192 84 30 7d
        E 0 94 33 7d
        E 288 84 33 7d
        E 0 94 44 7d
        E 224 84 44 7d
        E 0 94 41 7d
        E 256 84 41 7d
        E 0 94 30 7d
        E 192 84 30 7d
        E 0 94 33 7d
        E 288 84 33 7d
        E 0 94 44 7d
        E 224 84 44 7d
        E 0 94 41 7d
        E 256 84 41 7d
        E 0 94 30 7d
        E 192 84 30 7d
        E 0 94 33 7d
        E 288 84 33 7d
        E 0 94 44 7d
        E 224 84 44 7d
        E 0 94 41 7d
        E 256 84 41 7d
        E 0 94 30 7d
        E 192 84 30 7d
        E 0 94 33 7d
        E 288 84 33 7d
        E 0 94 44 7d
        E 224 84 44 7d
        E 0 94 41 7d
        E 256 84 41 7d
        E 0 94 30 7d
        E 192 84 30 7d
        E 0 94 33 7d
        E 288 84 33 7d
        E 0 94 44 7d
        E 224 84 44 7d
        E 0 94 41 7d
        E 256 84 41 7d
        E 0 94 30 7d
        E 192 84 30 7d
        E 0 94 33 7d
        E 288 84 33 7d
        E 0 94 44 7d
        E 224 84 44 7d
        E 0 94 41 7d
        E 256 84 41 7d
        E 0 94 30 7d
        E 192 84 30 7d
        E 0 94 33 7d
        E 288 84 33 7d
        E 0 94 44 7d
        E 224 84 44 00
        E 0 b0 7b 00
        CCINTERP 32
        CHASE_CC_TAKEOFFS 1
        GUID {B11D2B87-0ECA-764A-9705-D8FC93AA4960}
        IGNTEMPO 0 120 4 4
        SRCCOLOR 631
        VELLANE 3 156 0
        VELLANE -1 196 0
      >
    >
    <ITEM
      POSITION 212.8695120000136
      SNAPOFFS 0
      LENGTH 25.04347200000126
      LOOP 1
      ALLTAKES 0
      FADEIN 1 0 0 1 0 0
      FADEOUT 1 0 0 1 0 0
      MUTE 0 0
      SEL 0
      IGUID {654E8C4F-8F2D-6449-963A-2731FF11DA80}
      IID 110
      NAME "insects of the los angeles basin.mid"
      VOLPAN 1 0 1 -1
      SOFFS 0 0
      PLAYRATE 1 1 0 -1 0 0.0025
      CHANMODE 0
      GUID {813D3480-8127-264A-8C64-8C8DDA4F7C96}
      <SOURCE MIDI
        HASDATA 1 128 QN
        CCINTERP 32
        POOLEDEVTS {C607124E-71B1-9E4D-A6FC-AF88E04239C0}
        E 0 94 33 7d
        E 224 84 33 7d
        E 0 94 30 7d
        E 128 84 30 7d
        E 0 94 30 7d
        E 128 84 30 7d
        E 0 94 30 7d
        E 192 84 30 7d
        E 0 94 33 7d
        E 288 84 33 7d
        E 0 94 30 7d
        E 128 84 30 7d
        E 0 94 30 7d
        E 128 84 30 7d
        E 0 94 30 7d
        E 192 84 30 7d
        E 0 94 33 7d
        E 288 84 33 7d
        E 0 94 30 7d
        E 128 84 30 7d
        E 0 94 30 7d
        E 128 84 30 7d
        E 0 94 30 7d
        E 192 84 30 7d
        E 0 94 33 7d
        E 288 84 33 7d
        E 0 94 30 7d
        E 128 84 30 7d
        E 0 94 30 7d
        E 128 84 30 7d
        E 0 94 30 7d
        E 192 84 30 7d
        E 0 94 33 7d
        E 288 84 33 7d
        E 0 94 30 7d
        E 128 84 30 7d
        E 0 94 30 7d
        E 128 84 30 7d
        E 0 94 30 7d
        E 192 84 30 7d
        E 0 94 33 7d
        E 288 84 33 7d
        E 0 94 30 7d
        E 128 84 30 7d
        E 0 94 30 7d
        E 128 84 30 7d
        E 0 94 30 7d
        E 192 84 30 7d
        E 0 94 33 7d
        E 288 84 33 7d
        E 0 94 30 7d
        E 128 84 30 7d
        E 0 94 30 7d
        E 128 84 30 7d
        E 0 94 30 7d
        E 192 84 30 7d
        E 0 94 33 7d
        E 288 84 33 7d
        E 0 94 30 7d
        E 128 84 30 7d
        E 0 94 30 7d
        E 128 84 30 7d
        E 0 94 30 7d
        E 192 84 30 7d
        E 0 94 33 7d
        E 288 84 33 7d
        E 0 94 30 7d
        E 128 84 30 7d
        E 0 94 30 7d
        E 128 84 30 7d
        E 0 94 30 7d
        E 192 84 30 7d
        E 0 94 33 7d
        E 288 84 33 7d
        E 0 94 30 7d
        E 128 84 30 7d
        E 0 94 30 7d
        E 128 84 30 7d
        E 0 94 30 7d
        E 192 84 30 7d
        E 0 94 33 7d
        E 288 84 33 7d
        E 0 94 30 7d
        E 128 84 30 7d
        E 0 94 30 7d
        E 128 84 30 7d
        E 0 94 30 7d
        E 192 84 30 7d
        E 0 94 33 7d
        E 288 84 33 7d
        E 0 94 30 7d
        E 128 84 30 7d
        E 0 94 30 7d
        E 128 84 30 7d
        E 0 94 30 7d
        E 192 84 30 7d
        E 0 94 33 7d
        E 288 84 33 7d
        E 0 94 30 7d
        E 128 84 30 7d
        E 0 94 30 7d
        E 128 84 30 7d
        E 0 94 30 7d
        E 192 84 30 7d
        E 0 94 33 7d
        E 288 84 33 7d
        E 0 94 30 7d
        E 128 84 30 7d
        E 0 94 30 7d
        E 128 84 30 7d
        E 0 94 30 7d
        E 192 84 30 7d
        E 0 94 33 7d
        E 288 84 33 7d
        E 0 94 30 7d
        E 128 84 30 7d
        E 0 94 30 7d
        E 128 84 30 7d
        E 0 94 30 7d
        E 192 84 30 7d
        E 0 94 33 7d
        E 287 84 33 7d
        E 1 b0 7b 00
        CCINTERP 32
        CHASE_CC_TAKEOFFS 1
        GUID {65C6B4F2-3191-2947-8267-DEB2889BAC67}
        IGNTEMPO 0 120 4 4
        SRCCOLOR 968
        VELLANE 3 156 0
        VELLANE -1 196 0
      >
    >
  >
  <TRACK {984F9996-938E-C74A-9818-5A35FDA04C6D}
    NAME "insects of the los angeles basin"
    PEAKCOL 16576
    BEAT -1
    AUTOMODE 0
    VOLPAN 1 0.504 -1 -1 1
    MUTESOLO 0 0 0
    IPHASE 0
    PLAYOFFS 0 1
    ISBUS 0 0
    BUSCOMP 0 0 0 0 0
    SHOWINMIX 1 0.6667 0.5 1 0.5 0 -1 0
    FREEMODE 0
    SEL 0
    REC 0 0 1 0 0 0 0
    VU 2
    TRACKHEIGHT 0 0 0 0 -1 0
    INQ 0 0 0 0.5 100 0 0 100
    NCHAN 2
    FX 1
    TRACKID {984F9996-938E-C74A-9818-5A35FDA04C6D}
    PERF 0
    MIDIOUT -1
    MAINSEND 1 0
    <FXCHAIN
      WNDRECT 276 308 1159 532
      SHOW 0
      LASTSEL 0
      DOCKED 0
      BYPASS 0 0 0
      <VST "VSTi: FM8 (Native Instruments GmbH)" FM8.vst 0 "" 1315530296<5653544E696638666D38000000000000> ""
        OGZpTu5e7f4AAAAAAgAAAAEAAAAAAAAAAgAAAAAAAADGCQAAAQAAAAAAEAA=
        xgkAAAAAAAABAAAAaHNpbgEAAAAAAAAAN455D8DDx0mHoN4j0l/0WZYAAAAAAAAARFNJTnYAAAABAAAASAAAAAAAAABEU0lOagAAAAEAAAAYAAAAAAAAAERTSU4BAAAA
        AQAAAAEAAAABAAAAAQAAAAEAAAAAAAAAAAAAAAAAAAANYmWFAQAAAAhwEAAAAAAAAQAAAAEAAAAAAAAAAAAAAAAAAAADAAAAMAAwADAAAAAAAAAAAAAAAAAAAAAAAAEA
        AAABAAAAAAAAAERTSU5lAAAA9AgAAAAAAAABAAAAaHNpbgEAAAAAAAAAMOH4NwAUwEaoogAOyNUgkW0AAAAAAAAARFNJTmUAAAABAAAANAAAAAAAAABEU0lOagAAAAEA
        AAAYAAAAAAAAAERTSU4BAAAAAQAAAAEAAAABAAAAAgAAAAEAAAAACAAAAAEAAAAKAAAAMQAuADIALgAwAC4AMQAwADEAMAABAAAAAwAAAAAAAABEU0lObAAAAGoCAAAA
        AAAAAQAAAGhzaW4BAAAAAAAAACA7190CLVtKvWPIjKqbw/s6AgAAAAAAAERTSU5sAAAAAQAAABgAAAAAAAAARFNJTgEAAAABAAAAAQAAAAEAAAACAAAAAQAAAAAAAAAJ
        AAAARAByAGEAbQBhACAAQgBvAHkAFAAAAE0AYQByAGkAbwBuACAARgByAGUAdQBkAGUAbgB0AGgAYQBsAGUAcgASAAAATgBhAHQAaQB2AGUAIABJAG4AcwB0AHIAdQBt
        AGUAbgB0AHMAAAAAAAAAAAD/////AAAAAAAAAAAAAAAAAAAAAAAAAAABAAAAAQAAAAIAAAADAAAARgBNADgACgAAAEYATQA3ACAATABlAGcAYQBjAHkABAAAABEAAABD
        AGwAYQBzAHMAaQBjACAAUABvAGwAeQAgAEwAZQBhAGQACQAAAFAAcgBvAGMAZQBzAHMAZQBkAAoAAABTAHkAbgB0AGgAIABMAGUAYQBkAAkAAABTAHkAbgB0AGgAZQB0
        AGkAYwAAAAAABwAAAAcAAABcAEAAYwBvAGwAbwByAAEAAAAwABEAAABcAEAAZABlAHYAaQBjAGUAdAB5AHAAZQBmAGwAYQBnAHMAAQAAADEACwAAAFwAQABzAG8AdQBu
        AGQAdAB5AHAAZQABAAAAMAAHAAAAXABAAHQAZQBtAHAAbwABAAAAMAAGAAAAXABAAHYAZQByAGwABQAAADEALgA3AC4AOAAGAAAAXABAAHYAZQByAG0ABQAAADEALgA3
        AC4AOAAHAAAAXABAAHYAaQBzAGkAYgABAAAAMAABAAAAAAAAAAIAAABEU0lOeQAAAGgAAAAAAAAAAQAAAGhzaW4BAAAAAAAAAEbri8Ka6YdEhD0yKHa6NqE4AAAAAAAA
        AERTSU55AAAAAQAAABgAAAAAAAAARFNJTgEAAAABAAAAAQAAAAEAAAABAAAAAAAAAAEAAAAAAAAAAQAAAERTSU50AAAAYQUAAAAAAAABAAAAaHNpbgEAAAAAAAAAw+IN
        gnMsnE65a0GAwxW+pDEFAAAAAAAARFNJTnQAAAABAAAAGAUAAAAAAABEU0lOcwAAAAEAAAAYAAAAAAAAAERTSU4BAAAAAQAAAAEAAAABAAAAAdkQAADfBAAAAtkQAGAA
        AAEgBQNoc2luQAdAABAfJGsG8BlISpiuoVdNwQ88GEAUIAADRFNJTkAj4AcDQABAGwBtIAgBhRAgBCAAQCPgA1MQSQJjMqzaxUanYHbCthGPnFWgJ8A3QC/gF2dAIwAN
        oDcABSBjAX8NIAQgAAh0c3JwRThNRs8gCwS8IwAACSAHCERyYW1hIEJveeAeDAYAAJBBAAAgIAMA0CADAABAAwVAAABsQgDgDABAJwGAP4ADQABAD8AAQBcAYCA/AFSg
        O0AP4AMAYA8gWwBQoB/gDAAgW+AEA0AAwBPgAwBAE+AAAAPNzMw+IAwDP5qZGUAXwAPgABcgCuAHG0ATQADgBwdAACATYKtAACALYANAAEALIADgBBtAAEAXQAPgAwBg
        Dwb9ZZc+pnmnIJtAM0ADYBdAG0ADCwDrUTg/0m+fPrQ3KEAPQANAAEAHQAPAAOADC6AAAGQhQwDIIAMAoCFPALAgBwAIIAPBi0BnAEAgD+AjAEAz4BcAAILgClNAgwCE
        IBcAjCADQAsASCAHAGggAwB8IAMA+CILQIcARCALQABAH8AA4NpLAAIgAAIDAwGAAAECAiD5AgUGBiACAgMCAoATIBEHHDtFIisAZGQgCsAA4AQMIABAOGAAAP5gBcAA
        AGQgAMAL4BQAARIA5ABe4DgAAQgg4BVCAP8g2CSsQNmgACAQ4BcAAwAFAgJE1BUAAK7Y/z4r9v8/Vux/P6kTAD/qBABAQA8AAGKeQqJAA+AZAMBx4P1ZIVsRgD/zGlVC
        sKFKQqO8kEJFuVxDQBMABkAEDxthyUIThyxFz6BZQwuVOkHgHBxgUgbrR6lCFu6Q4AlSD7ChwkE5PzlFBDwWRKAVI0DgBFIDnBeUQuALHAADQIwDOvNLRUAHA0gCtEMi
        9wSAP1fDH2AQIAxEPQD6ILcB+kNgfQsAAEA/SOE6P8y8jCvAA2DQB65H4T3NzEw9wBTAB2AcAylcDz7gCxygUmVp4AlSB4/CNT/sUbg+QAPATkAHYFJGc0AYQANAFMAD
        YNDADEAHIMPgARAgDOABACB9IuwDUTg/RyDQQJ4GKFwPP2ZmZkGhBAA/j2xHIO2AmuAgHAQFiOvRPuAMUgJ7FK4mjwQAPx+F62AHQAvgAG/gExwg0AIAP+0hBgbMzEw/
        tsgWQZQFAD93vn8/QBBA0GCzQLdADCAAAHAl+AH+QuBFDKRb4ABWgACgY4AA4DgMIGMEcMIAAIZgumEgIFhg1GAI4DwMIGOASQAgIAAgC+AIACXfYAAAOyAAANogAEAg
        AEogAEAH4CcAAEggAOAfMwAgIAAAAKAAYIAgAAA3IAAAJyAAoBbgAAAAPSAA4AAM4AoAILoAO+AKFuAoAABGIAAARyAA4B84ACggAOAfK+BnAAD/4BcAAARAkQEIMiNu
        BUAyAAAAPEIpIAMB8EJi2IddQuIgEyACoAkgBiACQBAgN6AJIEigCSRgoAkksqAJAAfgAAkgAKAT4NZP4EsAABGgVANrbmFiQUXAAAGAACAAABmgEQNjdG5pTacAESNB
        IWNtZCAAAKAlHwGgQuITDwF0AOIBMAAP4AIL4P0A4L0AxW0Dc2l1Z0IkAOgjwcAAACogCAAZIANCNEAAI9JgAAZncHRjWVRNKRsNAAANYmWFAQAAAAAAAAABAAAAAAEA
        AAAAAAAA
        ADxkaXNhYmxlZD4AEAAAAA==
      >
      PRESETNAME <disabled>
      FLOATPOS 0 0 0 0
      FXID {CE059FD6-148F-E544-83B4-A7FB3FC2D347}
      WAK 0 0
    >
    <ITEM
      POSITION 79.30432800000496
      SNAPOFFS 0
      LENGTH 112.69562400000704
      LOOP 1
      ALLTAKES 0
      FADEIN 1 0 0 1 0 0
      FADEOUT 1 0 0 1 0 0
      MUTE 0 0
      SEL 0
      IGUID {A75D2BAB-ABA8-1743-AD97-24F9AC94D1B1}
      IID 31
      NAME "insects of the los angeles basin.mid"
      VOLPAN 1 0 1 -1
      SOFFS 0 0
      PLAYRATE 0.875 1 0 -1 0 0.0025
      CHANMODE 0
      GUID {487ED4E9-BB8D-9041-B53C-8E7C292C4DC7}
      <SOURCE MIDI
        HASDATA 1 128 QN
        CCINTERP 32
        POOLEDEVTS {7F6E9CD8-F7A1-9D4F-A7D6-6B5956528084}
        E 0 96 43 7d
        E 109 86 43 7d
        E 0 96 33 7d
        E 73 86 33 7d
        E 0 96 30 7d
        E 73 86 30 7d
        E 0 96 43 7d
        E 109 86 43 7d
        E 0 96 33 7d
        E 73 86 33 7d
        E 0 96 30 7d
        E 73 86 30 7d
        E 0 96 43 7d
        E 109 86 43 7d
        E 0 96 33 7d
        E 73 86 33 7d
        E 0 96 30 7d
        E 73 86 30 7d
        E 0 96 43 7d
        E 109 86 43 7d
        E 0 96 33 7d
        E 73 86 33 7d
        E 0 96 30 7d
        E 73 86 30 7d
        E 0 96 43 7d
        E 109 86 43 7d
        E 0 96 33 7d
        E 73 86 33 7d
        E 0 96 30 7d
        E 73 86 30 7d
        E 0 96 43 7d
        E 109 86 43 7d
        E 0 96 33 7d
        E 73 86 33 7d
        E 0 96 30 7d
        E 73 86 30 7d
        E 0 96 43 7d
        E 109 86 43 7d
        E 0 96 33 7d
        E 73 86 33 7d
        E 0 96 30 7d
        E 73 86 30 7d
        E 0 96 43 7d
        E 109 86 43 7d
        E 0 96 33 7d
        E 73 86 33 7d
        E 0 96 30 7d
        E 73 86 30 7d
        E 0 96 43 7d
        E 109 86 43 7d
        E 0 96 33 7d
        E 73 86 33 7d
        E 0 96 30 7d
        E 73 86 30 7d
        E 0 96 43 7d
        E 109 86 43 7d
        E 0 96 33 7d
        E 73 86 33 7d
        E 0 96 30 7d
        E 73 86 30 7d
        E 0 96 43 7d
        E 109 86 43 7d
        E 0 96 33 7d
        E 73 86 33 7d
        E 0 96 30 7d
        E 73 86 30 7d
        E 0 96 43 7d
        E 109 86 43 7d
        E 0 96 33 7d
        E 73 86 33 7d
        E 0 96 30 7d
        E 73 86 30 7d
        E 0 96 43 7d
        E 109 86 43 7d
        E 0 96 33 7d
        E 73 86 33 7d
        E 0 96 30 7d
        E 73 86 30 7d
        E 0 96 43 7d
        E 109 86 43 7d
        E 0 96 33 7d
        E 73 86 33 7d
        E 0 96 30 7d
        E 73 86 30 7d
        E 0 96 43 7d
        E 109 86 43 7d
        E 0 96 33 7d
        E 73 86 33 7d
        E 0 96 30 7d
        E 73 86 30 7d
        E 0 96 43 7d
        E 109 86 43 7d
        E 0 96 33 7d
        E 73 86 33 7d
        E 0 96 30 7d
        E 73 86 30 7d
        E 0 96 43 7d
        E 109 86 43 7d
        E 0 96 33 7d
        E 73 86 33 7d
        E 0 96 30 7d
        E 73 86 30 7d
        E 0 96 43 7d
        E 109 86 43 7d
        E 0 96 33 7d
        E 73 86 33 7d
        E 0 96 30 7d
        E 73 86 30 7d
        E 0 96 43 7d
        E 109 86 43 7d
        E 0 96 33 7d
        E 73 86 33 7d
        E 0 96 30 7d
        E 73 86 30 7d
        E 0 96 43 7d
        E 109 86 43 7d
        E 0 96 33 7d
        E 73 86 33 7d
        E 0 96 30 7d
        E 73 86 30 7d
        E 0 96 43 7d
        E 109 86 43 7d
        E 0 96 33 7d
        E 73 86 33 7d
        E 0 96 30 7d
        E 73 86 30 7d
        E 0 96 43 7d
        E 109 86 43 7d
        E 0 96 33 7d
        E 73 86 33 7d
        E 0 96 30 7d
        E 73 86 30 7d
        E 0 96 43 7d
        E 109 86 43 7d
        E 0 96 33 7d
        E 73 86 33 7d
        E 0 96 30 7d
        E 73 86 30 7d
        E 0 96 43 7d
        E 109 86 43 7d
        E 0 96 33 7d
        E 73 86 33 7d
        E 0 96 30 7d
        E 73 86 30 7d
        E 0 96 43 7d
        E 109 86 43 7d
        E 0 96 33 7d
        E 73 86 33 7d
        E 0 96 30 7d
        E 73 86 30 7d
        E 0 96 43 7d
        E 109 86 43 7d
        E 0 96 33 7d
        E 73 86 33 7d
        E 0 96 30 7d
        E 73 86 30 7d
        E 0 96 43 7d
        E 109 86 43 7d
        E 0 96 33 7d
        E 73 86 33 7d
        E 0 96 30 7d
        E 73 86 30 7d
        E 0 96 43 7d
        E 109 86 43 7d
        E 0 96 33 7d
        E 73 86 33 7d
        E 0 96 30 7d
        E 73 86 30 7d
        E 0 96 43 7d
        E 109 86 43 7d
        E 0 96 33 7d
        E 73 86 33 7d
        E 0 96 30 7d
        E 73 86 30 7d
        E 0 96 43 7d
        E 109 86 43 7d
        E 0 96 33 7d
        E 73 86 33 7d
        E 0 96 30 7d
        E 73 86 30 7d
        E 0 96 43 7d
        E 109 86 43 7d
        E 0 96 33 7d
        E 73 86 33 7d
        E 0 96 30 7d
        E 73 86 30 7d
        E 0 96 43 7d
        E 109 86 43 7d
        E 0 96 33 7d
        E 73 86 33 7d
        E 0 96 30 7d
        E 73 86 30 7d
        E 0 96 43 7d
        E 109 86 43 7d
        E 0 96 33 7d
        E 73 86 33 7d
        E 0 96 30 7d
        E 73 86 30 7d
        E 0 96 43 7d
        E 109 86 43 7d
        E 0 96 33 7d
        E 73 86 33 7d
        E 0 96 30 7d
        E 73 86 30 7d
        E 0 96 43 7d
        E 109 86 43 7d
        E 0 96 33 7d
        E 73 86 33 7d
        E 0 96 30 7d
        E 73 86 30 7d
        E 0 96 43 7d
        E 109 86 43 7d
        E 0 96 33 7d
        E 73 86 33 7d
        E 0 96 30 7d
        E 73 86 30 7d
        E 0 96 43 7d
        E 109 86 43 7d
        E 0 96 33 7d
        E 73 86 33 7d
        E 0 96 30 7d
        E 73 86 30 7d
        E 0 96 43 7d
        E 109 86 43 7d
        E 0 96 33 7d
        E 73 86 33 7d
        E 0 96 30 7d
        E 73 86 30 7d
        E 0 96 43 7d
        E 109 86 43 7d
        E 0 96 33 7d
        E 73 86 33 7d
        E 0 96 30 7d
        E 73 86 30 7d
        E 0 96 43 7d
        E 109 86 43 7d
        E 0 96 33 7d
        E 73 86 33 7d
        E 0 96 30 7d
        E 73 86 30 7d
        E 0 96 43 7d
        E 109 86 43 7d
        E 0 96 33 7d
        E 73 86 33 7d
        E 0 96 30 7d
        E 73 86 30 7d
        E 0 96 43 7d
        E 109 86 43 7d
        E 0 96 33 7d
        E 73 86 33 7d
        E 0 96 30 7d
        E 73 86 30 7d
        E 0 96 43 7d
        E 109 86 43 7d
        E 0 96 33 7d
        E 73 86 33 7d
        E 0 96 30 7d
        E 73 86 30 7d
        E 0 96 43 7d
        E 109 86 43 7d
        E 0 96 33 7d
        E 73 86 33 7d
        E 0 96 30 7d
        E 73 86 30 7d
        E 0 96 43 7d
        E 109 86 43 7d
        E 0 96 33 7d
        E 73 86 33 7d
        E 0 96 30 7d
        E 73 86 30 7d
        E 0 96 43 7d
        E 109 86 43 7d
        E 0 96 33 7d
        E 73 86 33 7d
        E 0 96 30 7d
        E 73 86 30 7d
        E 0 96 43 7d
        E 109 86 43 7d
        E 0 96 33 7d
        E 73 86 33 7d
        E 0 96 30 7d
        E 73 86 30 7d
        E 0 96 43 7d
        E 109 86 43 7d
        E 0 96 33 7d
        E 73 86 33 7d
        E 0 96 30 7d
        E 73 86 30 7d
        E 0 96 43 7d
        E 109 86 43 7d
        E 0 96 33 7d
        E 73 86 33 7d
        E 0 96 30 7d
        E 73 86 30 7d
        E 0 96 43 7d
        E 109 86 43 7d
        E 0 96 33 7d
        E 73 86 33 7d
        E 0 96 30 7d
        E 73 86 30 7d
        E 0 96 43 7d
        E 109 86 43 7d
        E 0 96 33 7d
        E 73 86 33 7d
        E 0 96 30 7d
        E 73 86 30 7d
        E 0 96 43 7d
        E 109 86 43 7d
        E 0 96 33 7d
        E 73 86 33 7d
        E 0 96 30 7d
        E 73 86 30 7d
        E 0 96 43 7d
        E 109 86 43 7d
        E 0 96 33 7d
        E 73 86 33 7d
        E 0 96 30 7d
        E 73 86 30 7d
        E 0 96 43 7d
        E 109 86 43 7d
        E 0 96 33 7d
        E 73 86 33 7d
        E 0 96 30 7d
        E 73 86 30 7d
        E 0 96 43 7d
        E 109 86 43 7d
        E 0 96 33 7d
        E 73 86 33 7d
        E 0 96 30 7d
        E 73 86 30 7d
        E 0 96 43 7d
        E 109 86 43 7d
        E 0 96 33 7d
        E 73 86 33 7d
        E 0 96 30 7d
        E 73 86 30 7d
        E 0 96 43 7d
        E 109 86 43 7d
        E 0 96 33 7d
        E 73 86 33 7d
        E 0 96 30 7d
        E 73 86 30 7d
        E 0 96 43 7d
        E 109 86 43 7d
        E 0 96 33 7d
        E 73 86 33 7d
        E 0 96 30 7d
        E 73 86 30 7d
        E 0 96 43 7d
        E 109 86 43 7d
        E 0 96 33 7d
        E 73 86 33 7d
        E 0 96 30 7d
        E 73 86 30 7d
        E 0 96 43 7d
        E 109 86 43 7d
        E 0 96 33 7d
        E 73 86 33 7d
        E 0 96 30 7d
        E 73 86 30 7d
        E 0 96 43 7d
        E 109 86 43 7d
        E 0 96 33 7d
        E 73 86 33 7d
        E 0 96 30 7d
        E 73 86 30 7d
        E 0 96 43 7d
        E 109 86 43 7d
        E 0 96 33 7d
        E 73 86 33 7d
        E 0 96 30 7d
        E 73 86 30 7d
        E 0 96 43 7d
        E 109 86 43 7d
        E 0 96 33 7d
        E 73 86 33 7d
        E 0 96 30 7d
        E 73 86 30 7d
        E 0 96 43 7d
        E 109 86 43 7d
        E 0 96 33 7d
        E 73 86 33 7d
        E 0 96 30 7d
        E 73 86 30 7d
        E 0 96 43 7d
        E 109 86 43 7d
        E 0 96 33 7d
        E 73 86 33 7d
        E 0 96 30 7d
        E 73 86 30 7d
        E 0 96 43 7d
        E 109 86 43 7d
        E 0 96 33 7d
        E 73 86 33 7d
        E 0 96 30 7d
        E 73 86 30 7d
        E 0 96 43 7d
        E 109 86 43 7d
        E 0 96 33 7d
        E 73 86 33 7d
        E 0 96 30 7d
        E 73 86 30 7d
        E 0 96 43 7d
        E 109 86 43 7d
        E 0 96 33 7d
        E 73 86 33 7d
        E 0 96 30 7d
        E 73 86 30 7d
        E 0 96 43 7d
        E 109 86 43 7d
        E 0 96 33 7d
        E 73 86 33 7d
        E 0 96 30 7d
        E 73 86 30 7d
        E 0 96 43 7d
        E 109 86 43 7d
        E 0 96 33 7d
        E 73 86 33 7d
        E 0 96 30 7d
        E 73 86 30 7d
        E 0 96 43 7d
        E 109 86 43 7d
        E 0 96 33 7d
        E 73 86 33 7d
        E 0 96 30 7d
        E 73 86 30 7d
        E 0 96 43 7d
        E 109 86 43 7d
        E 0 96 33 7d
        E 73 86 33 7d
        E 0 96 30 7d
        E 73 86 30 7d
        E 0 96 43 7d
        E 109 86 43 7d
        E 0 96 33 7d
        E 73 86 33 7d
        E 0 96 30 7d
        E 73 86 30 7d
        E 0 96 43 7d
        E 109 86 43 7d
        E 0 96 33 7d
        E 73 86 33 7d
        E 0 96 30 7d
        E 73 86 30 7d
        E 0 96 43 7d
        E 109 86 43 7d
        E 0 96 33 7d
        E 73 86 33 7d
        E 0 96 30 7d
        E 73 86 30 7d
        E 0 96 43 7d
        E 109 86 43 7d
        E 0 96 33 7d
        E 73 86 33 7d
        E 0 96 30 7d
        E 73 86 30 7d
        E 0 96 43 7d
        E 109 86 43 7d
        E 0 96 33 7d
        E 73 86 33 7d
        E 0 96 30 7d
        E 73 86 30 7d
        E 0 96 43 7d
        E 109 86 43 7d
        E 0 96 33 7d
        E 73 86 33 7d
        E 0 96 30 7d
        E 73 86 30 7d
        E 0 96 43 7d
        E 109 86 43 7d
        E 0 96 33 7d
        E 73 86 33 7d
        E 0 96 30 7d
        E 73 86 30 7d
        E 0 96 43 7d
        E 109 86 43 7d
        E 0 96 33 7d
        E 73 86 33 7d
        E 0 96 30 7d
        E 73 86 30 7d
        E 0 96 43 7d
        E 109 86 43 7d
        E 0 96 33 7d
        E 73 86 33 7d
        E 0 96 30 7d
        E 73 86 30 7d
        E 0 96 43 7d
        E 109 86 43 7d
        E 0 96 33 7d
        E 73 86 33 7d
        E 0 96 30 7d
        E 73 86 30 7d
        E 0 96 43 7d
        E 109 86 43 7d
        E 0 96 33 7d
        E 73 86 33 7d
        E 0 96 30 7d
        E 73 86 30 7d
        E 0 96 43 7d
        E 109 86 43 7d
        E 0 96 33 7d
        E 73 86 33 7d
        E 0 96 30 7d
        E 73 86 30 7d
        E 0 96 43 7d
        E 109 86 43 7d
        E 0 96 33 7d
        E 73 86 33 7d
        E 0 96 30 7d
        E 73 86 30 7d
        E 0 96 43 7d
        E 109 86 43 7d
        E 0 96 33 7d
        E 73 86 33 7d
        E 0 96 30 7d
        E 73 86 30 7d
        E 0 96 43 7d
        E 109 86 43 7d
        E 0 96 33 7d
        E 73 86 33 7d
        E 0 96 30 7d
        E 73 86 30 7d
        E 0 96 43 7d
        E 109 86 43 7d
        E 0 96 33 7d
        E 73 86 33 7d
        E 0 96 30 7d
        E 73 86 30 7d
        E 0 96 43 7d
        E 109 86 43 7d
        E 0 96 33 7d
        E 73 86 33 7d
        E 0 96 30 7d
        E 73 86 30 7d
        E 0 96 43 7d
        E 109 86 43 7d
        E 0 96 33 7d
        E 73 86 33 7d
        E 0 96 30 7d
        E 73 86 30 7d
        E 0 96 43 7d
        E 109 86 43 7d
        E 0 96 33 7d
        E 73 86 33 7d
        E 0 96 30 7d
        E 73 86 30 7d
        E 0 96 43 7d
        E 109 86 43 7d
        E 0 96 33 7d
        E 73 86 33 7d
        E 0 96 30 7d
        E 73 86 30 7d
        E 0 96 43 7d
        E 109 86 43 7d
        E 0 96 33 7d
        E 73 86 33 7d
        E 0 96 30 7d
        E 73 86 30 7d
        E 0 96 43 7d
        E 109 86 43 7d
        E 0 96 33 7d
        E 73 86 33 7d
        E 0 96 30 7d
        E 73 86 30 7d
        E 0 96 43 7d
        E 109 86 43 7d
        E 0 96 33 7d
        E 73 86 33 7d
        E 0 96 30 7d
        E 73 86 30 7d
        E 0 96 43 7d
        E 109 86 43 7d
        E 0 96 33 7d
        E 73 86 33 7d
        E 0 96 30 7d
        E 73 86 30 7d
        E 0 96 43 7d
        E 109 86 43 7d
        E 0 96 33 7d
        E 73 86 33 7d
        E 0 96 30 7d
        E 73 86 30 7d
        E 0 96 43 7d
        E 109 86 43 7d
        E 0 96 33 7d
        E 73 86 33 7d
        E 0 96 30 7d
        E 73 86 30 7d
        E 0 96 43 7d
        E 109 86 43 7d
        E 0 96 33 7d
        E 73 86 33 7d
        E 0 96 30 7d
        E 73 86 30 7d
        E 0 96 43 7d
        E 109 86 43 7d
        E 0 96 33 7d
        E 73 86 33 7d
        E 0 96 30 7d
        E 73 86 30 7d
        E 0 96 43 7d
        E 109 86 43 7d
        E 0 96 33 7d
        E 73 86 33 7d
        E 0 96 30 7d
        E 73 86 30 7d
        E 0 96 43 7d
        E 109 86 43 7d
        E 0 96 33 7d
        E 73 86 33 7d
        E 0 96 30 7d
        E 73 86 30 7d
        E 0 96 43 7d
        E 109 86 43 7d
        E 0 96 33 7d
        E 73 86 33 7d
        E 0 96 30 7d
        E 73 86 30 7d
        E 0 96 43 7d
        E 109 86 43 7d
        E 0 96 33 7d
        E 73 86 33 7d
        E 0 96 30 7d
        E 73 86 30 7d
        E 0 96 43 7d
        E 109 86 43 7d
        E 0 96 33 7d
        E 73 86 33 7d
        E 0 96 30 7d
        E 73 86 30 7d
        E 0 96 43 7d
        E 109 86 43 7d
        E 0 96 33 7d
        E 73 86 33 7d
        E 0 96 30 7d
        E 73 86 30 7d
        E 0 96 43 7d
        E 109 86 43 7d
        E 0 96 33 7d
        E 73 86 33 7d
        E 0 96 30 7d
        E 73 86 30 7d
        E 0 96 43 7d
        E 109 86 43 7d
        E 0 96 33 7d
        E 73 86 33 7d
        E 0 96 30 7d
        E 73 86 30 7d
        E 0 96 43 7d
        E 109 86 43 7d
        E 0 96 33 7d
        E 73 86 33 7d
        E 0 96 30 7d
        E 73 86 30 7d
        E 0 96 43 7d
        E 109 86 43 7d
        E 0 96 33 7d
        E 73 86 33 7d
        E 0 96 30 7d
        E 73 86 30 7d
        E 0 96 43 7d
        E 109 86 43 7d
        E 0 96 33 7d
        E 73 86 33 7d
        E 0 96 30 7d
        E 73 86 30 7d
        E 0 96 43 7d
        E 109 86 43 7d
        E 0 96 33 7d
        E 73 86 33 7d
        E 0 96 30 7d
        E 73 86 30 7d
        E 0 96 43 7d
        E 109 86 43 7d
        E 0 96 33 7d
        E 73 86 33 7d
        E 0 96 30 7d
        E 73 86 30 7d
        E 0 96 43 7d
        E 109 86 43 7d
        E 0 96 33 7d
        E 73 86 33 7d
        E 0 96 30 7d
        E 73 86 30 7d
        E 0 96 43 7d
        E 109 86 43 7d
        E 0 96 33 7d
        E 73 86 33 7d
        E 0 96 30 7d
        E 73 86 30 7d
        E 0 96 43 7d
        E 109 86 43 7d
        E 0 96 33 7d
        E 73 86 33 7d
        E 0 96 30 7d
        E 73 86 30 7d
        E 0 96 43 7d
        E 109 86 43 7d
        E 0 96 33 7d
        E 73 86 33 7d
        E 0 96 30 7d
        E 73 86 30 7d
        E 0 96 43 7d
        E 109 86 43 7d
        E 0 96 33 7d
        E 73 86 33 7d
        E 0 96 30 7d
        E 73 86 30 7d
        E 0 96 43 7d
        E 109 86 43 7d
        E 0 96 33 7d
        E 73 86 33 7d
        E 0 96 30 7d
        E 73 86 30 7d
        E 0 96 43 7d
        E 109 86 43 7d
        E 0 96 33 7d
        E 73 86 33 7d
        E 0 96 30 7d
        E 73 86 30 7d
        E 0 96 43 7d
        E 109 86 43 7d
        E 0 96 33 7d
        E 73 86 33 7d
        E 0 96 30 7d
        E 73 86 30 7d
        E 0 96 43 7d
        E 109 86 43 7d
        E 0 96 33 7d
        E 73 86 33 7d
        E 0 96 30 7d
        E 73 86 30 7d
        E 0 96 43 7d
        E 109 86 43 7d
        E 0 96 33 7d
        E 73 86 33 7d
        E 0 96 30 7d
        E 73 86 30 7d
        E 0 96 43 7d
        E 109 86 43 7d
        E 0 96 33 7d
        E 73 86 33 7d
        E 0 96 30 7d
        E 73 86 30 7d
        E 0 96 43 7d
        E 109 86 43 7d
        E 0 96 33 7d
        E 73 86 33 7d
        E 0 96 30 7d
        E 73 86 30 7d
        E 0 96 43 7d
        E 109 86 43 7d
        E 0 96 33 7d
        E 73 86 33 7d
        E 0 96 30 7d
        E 73 86 30 7d
        E 126 b0 7b 00
        CCINTERP 32
        CHASE_CC_TAKEOFFS 1
        GUID {4E91E8FD-BE1B-CA49-8F86-E887E31DE1C0}
        IGNTEMPO 0 120 4 4
        SRCCOLOR 633
        VELLANE 3 156 0
        VELLANE -1 196 0
      >
    >
  >
  <TRACK {19A7B7F7-17F3-AF4A-9913-B0D2A1B30883}
    NAME "insects of the los angeles basin"
    PEAKCOL 16576
    BEAT -1
    AUTOMODE 0
    VOLPAN 1 0 -1 -1 1
    MUTESOLO 1 0 0
    IPHASE 0
    PLAYOFFS 0 1
    ISBUS 0 0
    BUSCOMP 0 0 0 0 0
    SHOWINMIX 1 0.6667 0.5 1 0.5 0 -1 0
    FREEMODE 0
    SEL 0
    REC 0 0 1 0 0 0 0
    VU 2
    TRACKHEIGHT 0 0 0 0 -1 0
    INQ 0 0 0 0.5 100 0 0 100
    NCHAN 2
    FX 1
    TRACKID {19A7B7F7-17F3-AF4A-9913-B0D2A1B30883}
    PERF 0
    MIDIOUT -1
    MAINSEND 1 0
    <FXCHAIN
      SHOW 0
      LASTSEL 0
      DOCKED 0
      BYPASS 0 0 0
      <VST "VSTi: FM8 (Native Instruments GmbH)" FM8.vst 0 "" 1315530296<5653544E696638666D38000000000000> ""
        OGZpTu5e7f4AAAAAAgAAAAEAAAAAAAAAAgAAAAAAAAAYBwAAAQAAAAAAEAA=
        GAcAAAAAAAABAAAAaHNpbgEAAAAAAAAAN455D8DDx0mHoN4j0l/0WZYAAAAAAAAARFNJTnYAAAABAAAASAAAAAAAAABEU0lOagAAAAEAAAAYAAAAAAAAAERTSU4BAAAA
        AQAAAAEAAAABAAAAAQAAAAEAAAAAAAAAAAAAAAAAAAANYmWFAQAAAAhwEAAAAAAAAQAAAAEAAAAAAAAAAAAAAAAAAAADAAAAMAAwADAAAAAAAAAAAAAAAAAAAAAAAAEA
        AAABAAAAAAAAAERTSU5lAAAARgYAAAAAAAABAAAAaHNpbgEAAAAAAAAAMOH4NwAUwEaoogAOyNUgkW0AAAAAAAAARFNJTmUAAAABAAAANAAAAAAAAABEU0lOagAAAAEA
        AAAYAAAAAAAAAERTSU4BAAAAAQAAAAEAAAABAAAAAgAAAAEAAAAACAAAAAEAAAAKAAAAMQAuADIALgAwAC4AMQAwADEAMAABAAAAAwAAAAAAAABEU0lObAAAAKgBAAAA
        AAAAAQAAAGhzaW4BAAAAAAAAACA7190CLVtKvWPIjKqbw/t4AQAAAAAAAERTSU5sAAAAAQAAABgAAAAAAAAARFNJTgEAAAABAAAAAQAAAAEAAAACAAAAAQAAAAAAAAAI
        AAAATgBlAHcAUwBvAHUAbgBkAAcAAABuAG8AdAAgAHMAZQB0AAAAAAAAAAAAAAAAAAAAAAAAAAAAAAAAAAAAAAAAAAAAAAAAAAEAAAABAAAAAQAAAAMAAABGAE0AOAAA
        AAAAAAAAAAcAAAAHAAAAXABAAGMAbwBsAG8AcgABAAAAMAARAAAAXABAAGQAZQB2AGkAYwBlAHQAeQBwAGUAZgBsAGEAZwBzAAEAAAAxAAsAAABcAEAAcwBvAHUAbgBk
        AHQAeQBwAGUAAQAAADAABwAAAFwAQAB0AGUAbQBwAG8AAQAAADAABgAAAFwAQAB2AGUAcgBsAAUAAAAxAC4ANwAuADgABgAAAFwAQAB2AGUAcgBtAAUAAAAxAC4ANwAu
        ADgABwAAAFwAQAB2AGkAcwBpAGIAAQAAADAAAQAAAAAAAAACAAAARFNJTnkAAABoAAAAAAAAAAEAAABoc2luAQAAAAAAAABG64vCmumHRIQ9Mih2ujahOAAAAAAAAABE
        U0lOeQAAAAEAAAAYAAAAAAAAAERTSU4BAAAAAQAAAAEAAAABAAAAAQAAAAAAAAABAAAAAAAAAAEAAABEU0lOdAAAAHUDAAAAAAAAAQAAAGhzaW4BAAAAAAAAAMPiDYJz
        LJxOuWtBgMMVvqRFAwAAAAAAAERTSU50AAAAAQAAACwDAAAAAAAARFNJTnMAAAABAAAAGAAAAAAAAABEU0lOAQAAAAEAAAABAAAAAQAAAAG9DwAA8wIAAAK9DwBgAAAB
        IAUDaHNpbkAHQAAQHyRrBvAZSEqYrqFXTcEPPBhAFCAAA0RTSU5AI+AHA0AAQBsAbSAIAWkPIAQgAEAj4ANTEEkCYzKs2sVGp2B2wrYRj5w5oCfAN0Av4BdnQCMB8Q4g
        XCAAAAUgAwFjDCAEIAAIdHNycEU4TUbPIAsEvCMAAAcgBwZkZWZhdWx04BgKICoAP+ACAwNBAACAIA8AoCAH4AsAAPAgF0AfwAAAICAPwABgFwVAAABIQgDgBABAD0AD
        4BcfYAAge+AEA0AAwBPgAwBAE+AAAAPNzMw+IAwDP5qZGUAXwAPgABcgCuAHG0ATQADgBwdAACATYKtAACALYANAAEALQAAg42AAwA9AB0AD4AMAwA9AB0ADwABAC8AD
        QADAC8AHQADgAwtAAEAP4AMAIA/Bn8AHAMjhDnPgHwDgAO/gDgBAX0ADwABBz8H7QAtAAwCgIINAB0AAALQgCwCWIAPgAwDAP0AHQAPAAEAz4MdLIAAAAcAAIAuAAAAC
        wACADuAdAOAALAD+4B0v4CEAABTgISrgMADBA+AKAGBTgAXgAABChuAXA+AeAOD9WSBZIkBBUgH6Q0AH4FUMQ9VAZwH6Q6BnBYA/zLyMK+BVDOABACBnBAA/ZmZmYAPg
        YwwgAABwJOwB/kJAdCAA4D4MosLgAFaAAKBjgADgOAwgYwRwwgAAhmC6JliAA0BW4EEMIGPgAE3g8AAAUCAA4Of8AP/gFwAABEERCggyAwAAQDIAAAA8QikgAwHwQmLY
        AAEgAYLiIAcgAkKVgAagCSA3oAkgSKAJKxegCQAG4AAJKwSgEyAAoAmASKAGoBPgwk/gSwAAEaBUA2tuYWJBMcAAAYAAIAAAGaARA2N0bmlMiwERJ2FcTFBAAEocAaBC
        4hMPTInAH00bwAvg/QDgvQABIACAAANzaXVnQiQA6CNxwAAAKiAIABkgAyOYYAAj0mAAB2dwdGNZVE1FQAwLDWJlhQEAAAAAAAAAAQAAAAABAAAAAAAAAA==
        ADxkaXNhYmxlZD4AEAAAAA==
      >
      PRESETNAME <disabled>
      FLOATPOS 0 0 0 0
      FXID {AC338270-B68C-8F4B-99F7-56C1CA724DEA}
      WAK 0 0
    >
    <ITEM
      POSITION 66.78259200000417
      SNAPOFFS 0
      LENGTH 180.52169399999582
      LOOP 1
      ALLTAKES 0
      FADEIN 1 0 0 1 0 0
      FADEOUT 1 0 0 1 0 0
      MUTE 0 0
      SEL 0
      IGUID {1FC39FBF-BED0-1145-9D9D-9A9B012974E1}
      IID 33
      NAME "insects of the los angeles basin.mid"
      VOLPAN 1 0 1 -1
      SOFFS 0 0
      PLAYRATE 1 1 0 -1 0 0.0025
      CHANMODE 0
      GUID {DBEAB5BA-EFCB-7C48-A24C-8DC097E5C469}
      <SOURCE MIDI
        HASDATA 1 128 QN
        CCINTERP 32
        POOLEDEVTS {73C94A54-CC62-B246-BA51-EF8CA2EF30C9}
        E 0 98 43 7d
        E 153 88 43 7d
        E 0 98 33 7d
        E 102 88 33 7d
        E 0 98 30 7d
        E 102 88 30 7d
        E 0 98 43 7d
        E 153 88 43 7d
        E 0 98 33 7d
        E 102 88 33 7d
        E 0 98 30 7d
        E 102 88 30 7d
        E 0 98 43 7d
        E 153 88 43 7d
        E 0 98 33 7d
        E 102 88 33 7d
        E 0 98 30 7d
        E 102 88 30 7d
        E 0 98 43 7d
        E 153 88 43 7d
        E 0 98 33 7d
        E 102 88 33 7d
        E 0 98 30 7d
        E 102 88 30 7d
        E 0 98 43 7d
        E 153 88 43 7d
        E 0 98 33 7d
        E 102 88 33 7d
        E 0 98 30 7d
        E 102 88 30 7d
        E 0 98 43 7d
        E 153 88 43 7d
        E 0 98 33 7d
        E 102 88 33 7d
        E 0 98 30 7d
        E 102 88 30 7d
        E 0 98 43 7d
        E 153 88 43 7d
        E 0 98 33 7d
        E 102 88 33 7d
        E 0 98 30 7d
        E 102 88 30 7d
        E 0 98 43 7d
        E 153 88 43 7d
        E 0 98 33 7d
        E 102 88 33 7d
        E 0 98 30 7d
        E 102 88 30 7d
        E 0 98 43 7d
        E 153 88 43 7d
        E 0 98 33 7d
        E 102 88 33 7d
        E 0 98 30 7d
        E 102 88 30 7d
        E 0 98 43 7d
        E 153 88 43 7d
        E 0 98 33 7d
        E 102 88 33 7d
        E 0 98 30 7d
        E 102 88 30 7d
        E 0 98 43 7d
        E 153 88 43 7d
        E 0 98 33 7d
        E 102 88 33 7d
        E 0 98 30 7d
        E 102 88 30 7d
        E 0 98 43 7d
        E 153 88 43 7d
        E 0 98 33 7d
        E 102 88 33 7d
        E 0 98 30 7d
        E 102 88 30 7d
        E 0 98 43 7d
        E 153 88 43 7d
        E 0 98 33 7d
        E 102 88 33 7d
        E 0 98 30 7d
        E 102 88 30 7d
        E 0 98 43 7d
        E 153 88 43 7d
        E 0 98 33 7d
        E 102 88 33 7d
        E 0 98 30 7d
        E 102 88 30 7d
        E 0 98 43 7d
        E 153 88 43 7d
        E 0 98 33 7d
        E 102 88 33 7d
        E 0 98 30 7d
        E 102 88 30 7d
        E 0 98 43 7d
        E 153 88 43 7d
        E 0 98 33 7d
        E 102 88 33 7d
        E 0 98 30 7d
        E 102 88 30 7d
        E 0 98 43 7d
        E 153 88 43 7d
        E 0 98 33 7d
        E 102 88 33 7d
        E 0 98 30 7d
        E 102 88 30 7d
        E 0 98 43 7d
        E 153 88 43 7d
        E 0 98 33 7d
        E 102 88 33 7d
        E 0 98 30 7d
        E 102 88 30 7d
        E 0 98 43 7d
        E 153 88 43 7d
        E 0 98 33 7d
        E 102 88 33 7d
        E 0 98 30 7d
        E 102 88 30 7d
        E 0 98 43 7d
        E 153 88 43 7d
        E 0 98 33 7d
        E 102 88 33 7d
        E 0 98 30 7d
        E 102 88 30 7d
        E 0 98 43 7d
        E 153 88 43 7d
        E 0 98 33 7d
        E 102 88 33 7d
        E 0 98 30 7d
        E 102 88 30 7d
        E 0 98 43 7d
        E 153 88 43 7d
        E 0 98 33 7d
        E 102 88 33 7d
        E 0 98 30 7d
        E 102 88 30 7d
        E 0 98 43 7d
        E 153 88 43 7d
        E 0 98 33 7d
        E 102 88 33 7d
        E 0 98 30 7d
        E 102 88 30 7d
        E 0 98 43 7d
        E 153 88 43 7d
        E 0 98 33 7d
        E 102 88 33 7d
        E 0 98 30 7d
        E 102 88 30 7d
        E 0 98 43 7d
        E 153 88 43 7d
        E 0 98 33 7d
        E 102 88 33 7d
        E 0 98 30 7d
        E 102 88 30 7d
        E 0 98 43 7d
        E 153 88 43 7d
        E 0 98 33 7d
        E 102 88 33 7d
        E 0 98 30 7d
        E 102 88 30 7d
        E 0 98 43 7d
        E 153 88 43 7d
        E 0 98 33 7d
        E 102 88 33 7d
        E 0 98 30 7d
        E 102 88 30 7d
        E 0 98 43 7d
        E 153 88 43 7d
        E 0 98 33 7d
        E 102 88 33 7d
        E 0 98 30 7d
        E 102 88 30 7d
        E 0 98 43 7d
        E 153 88 43 7d
        E 0 98 33 7d
        E 102 88 33 7d
        E 0 98 30 7d
        E 102 88 30 7d
        E 0 98 43 7d
        E 153 88 43 7d
        E 0 98 33 7d
        E 102 88 33 7d
        E 0 98 30 7d
        E 102 88 30 7d
        E 0 98 43 7d
        E 153 88 43 7d
        E 0 98 33 7d
        E 102 88 33 7d
        E 0 98 30 7d
        E 102 88 30 7d
        E 0 98 43 7d
        E 153 88 43 7d
        E 0 98 33 7d
        E 102 88 33 7d
        E 0 98 30 7d
        E 102 88 30 7d
        E 0 98 43 7d
        E 153 88 43 7d
        E 0 98 33 7d
        E 102 88 33 7d
        E 0 98 30 7d
        E 102 88 30 7d
        E 0 98 43 7d
        E 153 88 43 7d
        E 0 98 33 7d
        E 102 88 33 7d
        E 0 98 30 7d
        E 102 88 30 7d
        E 0 98 43 7d
        E 153 88 43 7d
        E 0 98 33 7d
        E 102 88 33 7d
        E 0 98 30 7d
        E 102 88 30 7d
        E 0 98 43 7d
        E 153 88 43 7d
        E 0 98 33 7d
        E 102 88 33 7d
        E 0 98 30 7d
        E 102 88 30 7d
        E 0 98 43 7d
        E 153 88 43 7d
        E 0 98 33 7d
        E 102 88 33 7d
        E 0 98 30 7d
        E 102 88 30 7d
        E 0 98 43 7d
        E 153 88 43 7d
        E 0 98 33 7d
        E 102 88 33 7d
        E 0 98 30 7d
        E 102 88 30 7d
        E 0 98 43 7d
        E 153 88 43 7d
        E 0 98 33 7d
        E 102 88 33 7d
        E 0 98 30 7d
        E 102 88 30 7d
        E 0 98 43 7d
        E 153 88 43 7d
        E 0 98 33 7d
        E 102 88 33 7d
        E 0 98 30 7d
        E 102 88 30 7d
        E 0 98 43 7d
        E 153 88 43 7d
        E 0 98 33 7d
        E 102 88 33 7d
        E 0 98 30 7d
        E 102 88 30 7d
        E 0 98 43 7d
        E 153 88 43 7d
        E 0 98 33 7d
        E 102 88 33 7d
        E 0 98 30 7d
        E 102 88 30 7d
        E 0 98 43 7d
        E 153 88 43 7d
        E 0 98 33 7d
        E 102 88 33 7d
        E 0 98 30 7d
        E 102 88 30 7d
        E 0 98 43 7d
        E 153 88 43 7d
        E 0 98 33 7d
        E 102 88 33 7d
        E 0 98 30 7d
        E 102 88 30 7d
        E 0 98 43 7d
        E 153 88 43 7d
        E 0 98 33 7d
        E 102 88 33 7d
        E 0 98 30 7d
        E 102 88 30 7d
        E 0 98 43 7d
        E 153 88 43 7d
        E 0 98 33 7d
        E 102 88 33 7d
        E 0 98 30 7d
        E 102 88 30 7d
        E 0 98 43 7d
        E 153 88 43 7d
        E 0 98 33 7d
        E 102 88 33 7d
        E 0 98 30 7d
        E 102 88 30 7d
        E 0 98 43 7d
        E 153 88 43 7d
        E 0 98 33 7d
        E 102 88 33 7d
        E 0 98 30 7d
        E 102 88 30 7d
        E 0 98 43 7d
        E 153 88 43 7d
        E 0 98 33 7d
        E 102 88 33 7d
        E 0 98 30 7d
        E 102 88 30 7d
        E 0 98 43 7d
        E 153 88 43 7d
        E 0 98 33 7d
        E 102 88 33 7d
        E 0 98 30 7d
        E 102 88 30 7d
        E 0 98 30 7d
        E 102 88 30 7d
        E 0 98 30 7d
        E 102 88 30 7d
        E 0 98 30 7d
        E 153 88 30 7d
        E 0 98 33 7d
        E 230 88 33 7d
        E 0 98 30 7d
        E 102 88 30 7d
        E 0 98 30 7d
        E 102 88 30 7d
        E 0 98 30 7d
        E 153 88 30 7d
        E 0 98 33 7d
        E 230 88 33 7d
        E 0 98 30 7d
        E 102 88 30 7d
        E 0 98 30 7d
        E 102 88 30 7d
        E 0 98 30 7d
        E 153 88 30 7d
        E 0 98 33 7d
        E 230 88 33 7d
        E 0 98 30 7d
        E 102 88 30 7d
        E 0 98 30 7d
        E 102 88 30 7d
        E 0 98 30 7d
        E 153 88 30 7d
        E 0 98 33 7d
        E 230 88 33 7d
        E 0 98 30 7d
        E 102 88 30 7d
        E 0 98 30 7d
        E 102 88 30 7d
        E 0 98 30 7d
        E 153 88 30 7d
        E 0 98 33 7d
        E 230 88 33 7d
        E 0 98 30 7d
        E 102 88 30 7d
        E 0 98 30 7d
        E 102 88 30 7d
        E 0 98 30 7d
        E 153 88 30 7d
        E 0 98 33 7d
        E 230 88 33 7d
        E 0 98 30 7d
        E 102 88 30 7d
        E 0 98 30 7d
        E 102 88 30 7d
        E 0 98 30 7d
        E 153 88 30 7d
        E 0 98 33 7d
        E 230 88 33 7d
        E 0 98 30 7d
        E 102 88 30 7d
        E 0 98 30 7d
        E 102 88 30 7d
        E 0 98 30 7d
        E 153 88 30 7d
        E 0 98 33 7d
        E 230 88 33 7d
        E 0 98 30 7d
        E 102 88 30 7d
        E 0 98 30 7d
        E 102 88 30 7d
        E 0 98 30 7d
        E 153 88 30 7d
        E 0 98 33 7d
        E 230 88 33 7d
        E 0 98 30 7d
        E 102 88 30 7d
        E 0 98 30 7d
        E 102 88 30 7d
        E 0 98 30 7d
        E 153 88 30 7d
        E 0 98 33 7d
        E 230 88 33 7d
        E 0 98 30 7d
        E 102 88 30 7d
        E 0 98 30 7d
        E 102 88 30 7d
        E 0 98 30 7d
        E 153 88 30 7d
        E 0 98 33 7d
        E 230 88 33 7d
        E 0 98 30 7d
        E 102 88 30 7d
        E 0 98 30 7d
        E 102 88 30 7d
        E 0 98 30 7d
        E 153 88 30 7d
        E 0 98 33 7d
        E 230 88 33 7d
        E 0 98 30 7d
        E 102 88 30 7d
        E 0 98 30 7d
        E 102 88 30 7d
        E 0 98 30 7d
        E 153 88 30 7d
        E 0 98 33 7d
        E 230 88 33 7d
        E 0 98 30 7d
        E 102 88 30 7d
        E 0 98 30 7d
        E 102 88 30 7d
        E 0 98 30 7d
        E 153 88 30 7d
        E 0 98 33 7d
        E 230 88 33 7d
        E 0 98 30 7d
        E 102 88 30 7d
        E 0 98 30 7d
        E 102 88 30 7d
        E 0 98 30 7d
        E 153 88 30 7d
        E 0 98 33 7d
        E 230 88 33 7d
        E 0 98 30 7d
        E 102 88 30 7d
        E 0 98 30 7d
        E 102 88 30 7d
        E 0 98 30 7d
        E 153 88 30 7d
        E 0 98 33 7d
        E 230 88 33 7d
        E 0 98 30 7d
        E 102 88 30 7d
        E 0 98 30 7d
        E 102 88 30 7d
        E 0 98 30 7d
        E 153 88 30 7d
        E 0 98 33 7d
        E 230 88 33 7d
        E 0 98 30 7d
        E 102 88 30 7d
        E 0 98 30 7d
        E 102 88 30 7d
        E 0 98 30 7d
        E 153 88 30 7d
        E 0 98 33 7d
        E 230 88 33 7d
        E 0 98 30 7d
        E 102 88 30 7d
        E 0 98 30 7d
        E 102 88 30 7d
        E 0 98 30 7d
        E 153 88 30 7d
        E 0 98 33 7d
        E 230 88 33 7d
        E 0 98 30 7d
        E 102 88 30 7d
        E 0 98 30 7d
        E 102 88 30 7d
        E 0 98 30 7d
        E 153 88 30 7d
        E 0 98 33 7d
        E 230 88 33 7d
        E 0 98 30 7d
        E 102 88 30 7d
        E 0 98 30 7d
        E 102 88 30 7d
        E 0 98 30 7d
        E 153 88 30 7d
        E 0 98 33 7d
        E 230 88 33 7d
        E 0 98 30 7d
        E 102 88 30 7d
        E 0 98 30 7d
        E 102 88 30 7d
        E 0 98 30 7d
        E 153 88 30 7d
        E 0 98 33 7d
        E 230 88 33 7d
        E 0 98 30 7d
        E 102 88 30 7d
        E 0 98 30 7d
        E 102 88 30 7d
        E 0 98 30 7d
        E 153 88 30 7d
        E 0 98 33 7d
        E 230 88 33 7d
        E 0 98 30 7d
        E 102 88 30 7d
        E 0 98 30 7d
        E 102 88 30 7d
        E 0 98 30 7d
        E 153 88 30 7d
        E 0 98 33 7d
        E 230 88 33 7d
        E 0 98 30 7d
        E 102 88 30 7d
        E 0 98 30 7d
        E 102 88 30 7d
        E 0 98 30 7d
        E 153 88 30 7d
        E 0 98 33 7d
        E 230 88 33 7d
        E 0 98 30 7d
        E 102 88 30 7d
        E 0 98 30 7d
        E 102 88 30 7d
        E 0 98 30 7d
        E 153 88 30 7d
        E 0 98 33 7d
        E 230 88 33 7d
        E 0 98 30 7d
        E 102 88 30 7d
        E 0 98 30 7d
        E 102 88 30 7d
        E 0 98 30 7d
        E 153 88 30 7d
        E 0 98 33 7d
        E 230 88 33 7d
        E 0 98 30 7d
        E 102 88 30 7d
        E 0 98 30 7d
        E 102 88 30 7d
        E 0 98 30 7d
        E 153 88 30 7d
        E 0 98 33 7d
        E 230 88 33 7d
        E 0 98 30 7d
        E 102 88 30 7d
        E 0 98 30 7d
        E 102 88 30 7d
        E 0 98 30 7d
        E 153 88 30 7d
        E 0 98 33 7d
        E 230 88 33 7d
        E 0 98 30 7d
        E 102 88 30 7d
        E 0 98 30 7d
        E 102 88 30 7d
        E 0 98 30 7d
        E 153 88 30 7d
        E 0 98 33 7d
        E 230 88 33 7d
        E 0 98 30 7d
        E 102 88 30 7d
        E 0 98 30 7d
        E 102 88 30 7d
        E 0 98 30 7d
        E 153 88 30 7d
        E 0 98 33 7d
        E 230 88 33 7d
        E 0 98 30 7d
        E 102 88 30 7d
        E 0 98 30 7d
        E 102 88 30 7d
        E 0 98 30 7d
        E 153 88 30 7d
        E 0 98 33 7d
        E 230 88 33 7d
        E 0 98 30 7d
        E 102 88 30 7d
        E 0 98 30 7d
        E 102 88 30 7d
        E 0 98 30 7d
        E 153 88 30 7d
        E 0 98 33 7d
        E 230 88 33 7d
        E 0 98 30 7d
        E 102 88 30 7d
        E 0 98 30 7d
        E 102 88 30 7d
        E 0 98 30 7d
        E 153 88 30 7d
        E 0 98 33 7d
        E 230 88 33 7d
        E 0 98 30 7d
        E 102 88 30 7d
        E 0 98 30 7d
        E 102 88 30 7d
        E 0 98 30 7d
        E 153 88 30 7d
        E 0 98 33 7d
        E 230 88 33 7d
        E 0 98 30 7d
        E 102 88 30 7d
        E 0 98 30 7d
        E 102 88 30 7d
        E 0 98 30 7d
        E 153 88 30 7d
        E 0 98 33 7d
        E 230 88 33 7d
        E 0 98 30 7d
        E 102 88 30 7d
        E 0 98 30 7d
        E 102 88 30 7d
        E 0 98 30 7d
        E 153 88 30 7d
        E 0 98 33 7d
        E 230 88 33 7d
        E 0 98 30 7d
        E 102 88 30 7d
        E 0 98 30 7d
        E 102 88 30 7d
        E 0 98 30 7d
        E 153 88 30 7d
        E 0 98 33 7d
        E 230 88 33 7d
        E 0 98 30 7d
        E 102 88 30 7d
        E 0 98 30 7d
        E 102 88 30 7d
        E 0 98 30 7d
        E 153 88 30 7d
        E 0 98 33 7d
        E 230 88 33 7d
        E 0 98 30 7d
        E 102 88 30 7d
        E 0 98 30 7d
        E 102 88 30 7d
        E 0 98 30 7d
        E 153 88 30 7d
        E 0 98 33 7d
        E 230 88 33 7d
        E 0 98 30 7d
        E 102 88 30 7d
        E 0 98 30 7d
        E 102 88 30 7d
        E 0 98 30 7d
        E 153 88 30 7d
        E 0 98 33 7d
        E 230 88 33 7d
        E 0 98 30 7d
        E 102 88 30 7d
        E 0 98 30 7d
        E 102 88 30 7d
        E 0 98 30 7d
        E 153 88 30 7d
        E 0 98 33 7d
        E 230 88 33 7d
        E 0 98 30 7d
        E 102 88 30 7d
        E 0 98 30 7d
        E 102 88 30 7d
        E 0 98 30 7d
        E 153 88 30 7d
        E 0 98 33 7d
        E 230 88 33 7d
        E 0 98 30 7d
        E 102 88 30 7d
        E 0 98 30 7d
        E 102 88 30 7d
        E 0 98 30 7d
        E 153 88 30 7d
        E 0 98 33 7d
        E 230 88 33 7d
        E 0 98 30 7d
        E 102 88 30 7d
        E 0 98 30 7d
        E 102 88 30 7d
        E 0 98 30 7d
        E 153 88 30 7d
        E 0 98 33 7d
        E 230 88 33 7d
        E 23 b0 7b 00
        CCINTERP 32
        CHASE_CC_TAKEOFFS 1
        GUID {B4491D49-C95C-C04D-BE5B-ED7E2C0E5949}
        IGNTEMPO 0 120 4 4
        SRCCOLOR 635
        VELLANE 3 156 0
        VELLANE -1 196 0
      >
    >
  >
  <TRACK {1A898393-32A2-9543-9FC5-BA92C0B95A2F}
    NAME "insects of the los angeles basin"
    PEAKCOL 16576
    BEAT -1
    AUTOMODE 0
    VOLPAN 1 0 -1 -1 1
    MUTESOLO 1 0 0
    IPHASE 0
    PLAYOFFS 0 1
    ISBUS 0 0
    BUSCOMP 0 0 0 0 0
    SHOWINMIX 1 0.6667 0.5 1 0.5 0 -1 0
    FREEMODE 0
    SEL 0
    REC 0 0 1 0 0 0 0
    VU 2
    TRACKHEIGHT 0 0 0 0 -1 0
    INQ 0 0 0 0.5 100 0 0 100
    NCHAN 2
    FX 1
    TRACKID {1A898393-32A2-9543-9FC5-BA92C0B95A2F}
    PERF 0
    MIDIOUT -1
    MAINSEND 1 0
    <FXCHAIN
      SHOW 0
      LASTSEL 0
      DOCKED 0
      BYPASS 0 0 0
      <VST "VSTi: FM8 (Native Instruments GmbH)" FM8.vst 0 "" 1315530296<5653544E696638666D38000000000000> ""
        OGZpTu5e7f4AAAAAAgAAAAEAAAAAAAAAAgAAAAAAAAAYBwAAAQAAAAAAEAA=
        GAcAAAAAAAABAAAAaHNpbgEAAAAAAAAAN455D8DDx0mHoN4j0l/0WZYAAAAAAAAARFNJTnYAAAABAAAASAAAAAAAAABEU0lOagAAAAEAAAAYAAAAAAAAAERTSU4BAAAA
        AQAAAAEAAAABAAAAAQAAAAEAAAAAAAAAAAAAAAAAAAANYmWFAQAAAAhwEAAAAAAAAQAAAAEAAAAAAAAAAAAAAAAAAAADAAAAMAAwADAAAAAAAAAAAAAAAAAAAAAAAAEA
        AAABAAAAAAAAAERTSU5lAAAARgYAAAAAAAABAAAAaHNpbgEAAAAAAAAAMOH4NwAUwEaoogAOyNUgkW0AAAAAAAAARFNJTmUAAAABAAAANAAAAAAAAABEU0lOagAAAAEA
        AAAYAAAAAAAAAERTSU4BAAAAAQAAAAEAAAABAAAAAgAAAAEAAAAACAAAAAEAAAAKAAAAMQAuADIALgAwAC4AMQAwADEAMAABAAAAAwAAAAAAAABEU0lObAAAAKgBAAAA
        AAAAAQAAAGhzaW4BAAAAAAAAACA7190CLVtKvWPIjKqbw/t4AQAAAAAAAERTSU5sAAAAAQAAABgAAAAAAAAARFNJTgEAAAABAAAAAQAAAAEAAAACAAAAAQAAAAAAAAAI
        AAAATgBlAHcAUwBvAHUAbgBkAAcAAABuAG8AdAAgAHMAZQB0AAAAAAAAAAAAAAAAAAAAAAAAAAAAAAAAAAAAAAAAAAAAAAAAAAEAAAABAAAAAQAAAAMAAABGAE0AOAAA
        AAAAAAAAAAcAAAAHAAAAXABAAGMAbwBsAG8AcgABAAAAMAARAAAAXABAAGQAZQB2AGkAYwBlAHQAeQBwAGUAZgBsAGEAZwBzAAEAAAAxAAsAAABcAEAAcwBvAHUAbgBk
        AHQAeQBwAGUAAQAAADAABwAAAFwAQAB0AGUAbQBwAG8AAQAAADAABgAAAFwAQAB2AGUAcgBsAAUAAAAxAC4ANwAuADgABgAAAFwAQAB2AGUAcgBtAAUAAAAxAC4ANwAu
        ADgABwAAAFwAQAB2AGkAcwBpAGIAAQAAADAAAQAAAAAAAAACAAAARFNJTnkAAABoAAAAAAAAAAEAAABoc2luAQAAAAAAAABG64vCmumHRIQ9Mih2ujahOAAAAAAAAABE
        U0lOeQAAAAEAAAAYAAAAAAAAAERTSU4BAAAAAQAAAAEAAAABAAAAAQAAAAAAAAABAAAAAAAAAAEAAABEU0lOdAAAAHUDAAAAAAAAAQAAAGhzaW4BAAAAAAAAAMPiDYJz
        LJxOuWtBgMMVvqRFAwAAAAAAAERTSU50AAAAAQAAACwDAAAAAAAARFNJTnMAAAABAAAAGAAAAAAAAABEU0lOAQAAAAEAAAABAAAAAQAAAAG9DwAA8wIAAAK9DwBgAAAB
        IAUDaHNpbkAHQAAQHyRrBvAZSEqYrqFXTcEPPBhAFCAAA0RTSU5AI+AHA0AAQBsAbSAIAWkPIAQgAEAj4ANTEEkCYzKs2sVGp2B2wrYRj5w5oCfAN0Av4BdnQCMB8Q4g
        XCAAAAUgAwFjDCAEIAAIdHNycEU4TUbPIAsEvCMAAAcgBwZkZWZhdWx04BgKICoAP+ACAwNBAACAIA8AoCAH4AsAAPAgF0AfwAAAICAPwABgFwVAAABIQgDgBABAD0AD
        4BcfYAAge+AEA0AAwBPgAwBAE+AAAAPNzMw+IAwDP5qZGUAXwAPgABcgCuAHG0ATQADgBwdAACATYKtAACALYANAAEALQAAg42AAwA9AB0AD4AMAwA9AB0ADwABAC8AD
        QADAC8AHQADgAwtAAEAP4AMAIA/Bn8AHAMjhDnPgHwDgAO/gDgBAX0ADwABBz8H7QAtAAwCgIINAB0AAALQgCwCWIAPgAwDAP0AHQAPAAEAz4MdLIAAAAcAAIAuAAAAC
        wACADuAdAOAALAD+4B0v4CEAABTgISrgMADBA+AKAGBTgAXgAABChuAXA+AeAOD9WSBZIkBBUgH6Q0AH4FUMQ9VAZwH6Q6BnBYA/zLyMK+BVDOABACBnBAA/ZmZmYAPg
        YwwgAABwJOwB/kJAdCAA4D4MosLgAFaAAKBjgADgOAwgYwRwwgAAhmC6JliAA0BW4EEMIGPgAE3g8AAAUCAA4Of8AP/gFwAABEERCggyAwAAQDIAAAA8QikgAwHwQmLY
        AAEgAYLiIAcgAkKVgAagCSA3oAkgSKAJKxegCQAG4AAJKwSgEyAAoAmASKAGoBPgwk/gSwAAEaBUA2tuYWJBMcAAAYAAIAAAGaARA2N0bmlMiwERJ2FcTFBAAEocAaBC
        4hMPTInAH00bwAvg/QDgvQABIACAAANzaXVnQiQA6CNxwAAAKiAIABkgAyOYYAAj0mAAB2dwdGNZVE1FQAwLDWJlhQEAAAAAAAAAAQAAAAABAAAAAAAAAA==
        ADxkaXNhYmxlZD4AEAAAAA==
      >
      PRESETNAME <disabled>
      FLOATPOS 0 0 0 0
      FXID {6A9C3A6F-2E9B-6547-9AEF-41160A9E6DEF}
      WAK 0 0
    >
    <ITEM
      POSITION 66.78259200000417
      SNAPOFFS 0
      LENGTH 279.13036499999583
      LOOP 1
      ALLTAKES 0
      FADEIN 1 0 0 1 0 0
      FADEOUT 1 0 0 1 0 0
      MUTE 0 0
      SEL 0
      IGUID {0C39E236-BC9A-904A-A430-44F4607F1C43}
      IID 34
      NAME "insects of the los angeles basin.mid"
      VOLPAN 1 0 1 -1
      SOFFS 0 0
      PLAYRATE 1 1 0 -1 0 0.0025
      CHANMODE 0
      GUID {A9D2F1C0-C93D-FB4E-98EF-F199CF2594F1}
      <SOURCE MIDI
        HASDATA 1 128 QN
        CCINTERP 32
        POOLEDEVTS {DDD14F39-8EF2-C149-BFBF-8892A7F4B73C}
        E 0 99 43 7d
        E 153 89 43 7d
        E 0 99 33 7d
        E 102 89 33 7d
        E 0 99 30 7d
        E 102 89 30 7d
        E 0 99 43 7d
        E 153 89 43 7d
        E 0 99 33 7d
        E 102 89 33 7d
        E 0 99 30 7d
        E 102 89 30 7d
        E 0 99 43 7d
        E 153 89 43 7d
        E 0 99 33 7d
        E 102 89 33 7d
        E 0 99 30 7d
        E 102 89 30 7d
        E 0 99 43 7d
        E 153 89 43 7d
        E 0 99 33 7d
        E 102 89 33 7d
        E 0 99 30 7d
        E 102 89 30 7d
        E 0 99 43 7d
        E 153 89 43 7d
        E 0 99 33 7d
        E 102 89 33 7d
        E 0 99 30 7d
        E 102 89 30 7d
        E 0 99 43 7d
        E 153 89 43 7d
        E 0 99 33 7d
        E 102 89 33 7d
        E 0 99 30 7d
        E 102 89 30 7d
        E 0 99 43 7d
        E 153 89 43 7d
        E 0 99 33 7d
        E 102 89 33 7d
        E 0 99 30 7d
        E 102 89 30 7d
        E 0 99 43 7d
        E 153 89 43 7d
        E 0 99 33 7d
        E 102 89 33 7d
        E 0 99 30 7d
        E 102 89 30 7d
        E 0 99 43 7d
        E 153 89 43 7d
        E 0 99 33 7d
        E 102 89 33 7d
        E 0 99 30 7d
        E 102 89 30 7d
        E 0 99 43 7d
        E 153 89 43 7d
        E 0 99 33 7d
        E 102 89 33 7d
        E 0 99 30 7d
        E 102 89 30 7d
        E 0 99 43 7d
        E 153 89 43 7d
        E 0 99 33 7d
        E 102 89 33 7d
        E 0 99 30 7d
        E 102 89 30 7d
        E 0 99 43 7d
        E 153 89 43 7d
        E 0 99 33 7d
        E 102 89 33 7d
        E 0 99 30 7d
        E 102 89 30 7d
        E 0 99 43 7d
        E 153 89 43 7d
        E 0 99 33 7d
        E 102 89 33 7d
        E 0 99 30 7d
        E 102 89 30 7d
        E 0 99 43 7d
        E 153 89 43 7d
        E 0 99 33 7d
        E 102 89 33 7d
        E 0 99 30 7d
        E 102 89 30 7d
        E 0 99 43 7d
        E 153 89 43 7d
        E 0 99 33 7d
        E 102 89 33 7d
        E 0 99 30 7d
        E 102 89 30 7d
        E 0 99 43 7d
        E 153 89 43 7d
        E 0 99 33 7d
        E 102 89 33 7d
        E 0 99 30 7d
        E 102 89 30 7d
        E 0 99 43 7d
        E 153 89 43 7d
        E 0 99 33 7d
        E 102 89 33 7d
        E 0 99 30 7d
        E 102 89 30 7d
        E 0 99 43 7d
        E 153 89 43 7d
        E 0 99 33 7d
        E 102 89 33 7d
        E 0 99 30 7d
        E 102 89 30 7d
        E 0 99 43 7d
        E 153 89 43 7d
        E 0 99 33 7d
        E 102 89 33 7d
        E 0 99 30 7d
        E 102 89 30 7d
        E 0 99 43 7d
        E 153 89 43 7d
        E 0 99 33 7d
        E 102 89 33 7d
        E 0 99 30 7d
        E 102 89 30 7d
        E 0 99 43 7d
        E 153 89 43 7d
        E 0 99 33 7d
        E 102 89 33 7d
        E 0 99 30 7d
        E 102 89 30 7d
        E 0 99 43 7d
        E 153 89 43 7d
        E 0 99 33 7d
        E 102 89 33 7d
        E 0 99 30 7d
        E 102 89 30 7d
        E 0 99 43 7d
        E 153 89 43 7d
        E 0 99 33 7d
        E 102 89 33 7d
        E 0 99 30 7d
        E 102 89 30 7d
        E 0 99 43 7d
        E 153 89 43 7d
        E 0 99 33 7d
        E 102 89 33 7d
        E 0 99 30 7d
        E 102 89 30 7d
        E 0 99 43 7d
        E 153 89 43 7d
        E 0 99 33 7d
        E 102 89 33 7d
        E 0 99 30 7d
        E 102 89 30 7d
        E 0 99 43 7d
        E 153 89 43 7d
        E 0 99 33 7d
        E 102 89 33 7d
        E 0 99 30 7d
        E 102 89 30 7d
        E 0 99 43 7d
        E 153 89 43 7d
        E 0 99 33 7d
        E 102 89 33 7d
        E 0 99 30 7d
        E 102 89 30 7d
        E 0 99 43 7d
        E 153 89 43 7d
        E 0 99 33 7d
        E 102 89 33 7d
        E 0 99 30 7d
        E 102 89 30 7d
        E 0 99 43 7d
        E 153 89 43 7d
        E 0 99 33 7d
        E 102 89 33 7d
        E 0 99 30 7d
        E 102 89 30 7d
        E 0 99 43 7d
        E 153 89 43 7d
        E 0 99 33 7d
        E 102 89 33 7d
        E 0 99 30 7d
        E 102 89 30 7d
        E 0 99 30 7d
        E 102 89 30 7d
        E 0 99 30 7d
        E 102 89 30 7d
        E 0 99 30 7d
        E 153 89 30 7d
        E 0 99 33 7d
        E 230 89 33 7d
        E 0 99 30 7d
        E 102 89 30 7d
        E 0 99 30 7d
        E 102 89 30 7d
        E 0 99 30 7d
        E 153 89 30 7d
        E 0 99 33 7d
        E 230 89 33 7d
        E 0 99 30 7d
        E 102 89 30 7d
        E 0 99 30 7d
        E 102 89 30 7d
        E 0 99 30 7d
        E 153 89 30 7d
        E 0 99 33 7d
        E 230 89 33 7d
        E 0 99 30 7d
        E 102 89 30 7d
        E 0 99 30 7d
        E 102 89 30 7d
        E 0 99 30 7d
        E 153 89 30 7d
        E 0 99 33 7d
        E 230 89 33 7d
        E 0 99 30 7d
        E 102 89 30 7d
        E 0 99 30 7d
        E 102 89 30 7d
        E 0 99 30 7d
        E 153 89 30 7d
        E 0 99 33 7d
        E 230 89 33 7d
        E 0 99 30 7d
        E 102 89 30 7d
        E 0 99 30 7d
        E 102 89 30 7d
        E 0 99 30 7d
        E 153 89 30 7d
        E 0 99 33 7d
        E 230 89 33 7d
        E 0 99 30 7d
        E 102 89 30 7d
        E 0 99 30 7d
        E 102 89 30 7d
        E 0 99 30 7d
        E 153 89 30 7d
        E 0 99 33 7d
        E 230 89 33 7d
        E 0 99 30 7d
        E 102 89 30 7d
        E 0 99 30 7d
        E 102 89 30 7d
        E 0 99 30 7d
        E 153 89 30 7d
        E 0 99 33 7d
        E 230 89 33 7d
        E 0 99 30 7d
        E 102 89 30 7d
        E 0 99 30 7d
        E 102 89 30 7d
        E 0 99 30 7d
        E 153 89 30 7d
        E 0 99 33 7d
        E 230 89 33 7d
        E 0 99 30 7d
        E 102 89 30 7d
        E 0 99 30 7d
        E 102 89 30 7d
        E 0 99 30 7d
        E 153 89 30 7d
        E 0 99 33 7d
        E 230 89 33 7d
        E 0 99 30 7d
        E 102 89 30 7d
        E 0 99 30 7d
        E 102 89 30 7d
        E 0 99 30 7d
        E 153 89 30 7d
        E 0 99 33 7d
        E 230 89 33 7d
        E 0 99 30 7d
        E 102 89 30 7d
        E 0 99 30 7d
        E 102 89 30 7d
        E 0 99 30 7d
        E 153 89 30 7d
        E 0 99 33 7d
        E 230 89 33 7d
        E 0 99 30 7d
        E 102 89 30 7d
        E 0 99 30 7d
        E 102 89 30 7d
        E 0 99 30 7d
        E 153 89 30 7d
        E 0 99 33 7d
        E 230 89 33 7d
        E 0 99 30 7d
        E 102 89 30 7d
        E 0 99 30 7d
        E 102 89 30 7d
        E 0 99 30 7d
        E 153 89 30 7d
        E 0 99 33 7d
        E 230 89 33 7d
        E 0 99 30 7d
        E 102 89 30 7d
        E 0 99 30 7d
        E 102 89 30 7d
        E 0 99 30 7d
        E 153 89 30 7d
        E 0 99 33 7d
        E 230 89 33 7d
        E 0 99 30 7d
        E 102 89 30 7d
        E 0 99 30 7d
        E 102 89 30 7d
        E 0 99 30 7d
        E 153 89 30 7d
        E 0 99 33 7d
        E 230 89 33 7d
        E 0 99 30 7d
        E 102 89 30 7d
        E 0 99 30 7d
        E 102 89 30 7d
        E 0 99 30 7d
        E 153 89 30 7d
        E 0 99 33 7d
        E 230 89 33 7d
        E 0 99 30 7d
        E 102 89 30 7d
        E 0 99 30 7d
        E 102 89 30 7d
        E 0 99 30 7d
        E 153 89 30 7d
        E 0 99 33 7d
        E 230 89 33 7d
        E 0 99 30 7d
        E 102 89 30 7d
        E 0 99 30 7d
        E 102 89 30 7d
        E 0 99 30 7d
        E 153 89 30 7d
        E 0 99 33 7d
        E 230 89 33 7d
        E 0 99 30 7d
        E 102 89 30 7d
        E 0 99 30 7d
        E 102 89 30 7d
        E 0 99 30 7d
        E 153 89 30 7d
        E 0 99 33 7d
        E 230 89 33 7d
        E 0 99 30 7d
        E 102 89 30 7d
        E 0 99 30 7d
        E 102 89 30 7d
        E 0 99 30 7d
        E 153 89 30 7d
        E 0 99 33 7d
        E 230 89 33 7d
        E 0 99 30 7d
        E 102 89 30 7d
        E 0 99 30 7d
        E 102 89 30 7d
        E 0 99 30 7d
        E 153 89 30 7d
        E 0 99 33 7d
        E 230 89 33 7d
        E 0 99 30 7d
        E 102 89 30 7d
        E 0 99 30 7d
        E 102 89 30 7d
        E 0 99 30 7d
        E 153 89 30 7d
        E 0 99 33 7d
        E 230 89 33 7d
        E 0 99 30 7d
        E 102 89 30 7d
        E 0 99 30 7d
        E 102 89 30 7d
        E 0 99 30 7d
        E 153 89 30 7d
        E 0 99 33 7d
        E 230 89 33 7d
        E 0 99 30 7d
        E 102 89 30 7d
        E 0 99 30 7d
        E 102 89 30 7d
        E 0 99 30 7d
        E 153 89 30 7d
        E 0 99 33 7d
        E 230 89 33 7d
        E 0 99 30 7d
        E 102 89 30 7d
        E 0 99 30 7d
        E 102 89 30 7d
        E 0 99 30 7d
        E 153 89 30 7d
        E 0 99 33 7d
        E 230 89 33 7d
        E 0 99 30 7d
        E 102 89 30 7d
        E 0 99 30 7d
        E 102 89 30 7d
        E 0 99 30 7d
        E 153 89 30 7d
        E 0 99 33 7d
        E 230 89 33 7d
        E 0 99 30 7d
        E 102 89 30 7d
        E 0 99 30 7d
        E 102 89 30 7d
        E 0 99 30 7d
        E 153 89 30 7d
        E 0 99 33 7d
        E 230 89 33 7d
        E 0 99 30 7d
        E 102 89 30 7d
        E 0 99 30 7d
        E 102 89 30 7d
        E 0 99 30 7d
        E 153 89 30 7d
        E 0 99 33 7d
        E 230 89 33 7d
        E 0 99 30 7d
        E 102 89 30 7d
        E 0 99 30 7d
        E 102 89 30 7d
        E 0 99 30 7d
        E 153 89 30 7d
        E 0 99 33 7d
        E 230 89 33 7d
        E 0 99 30 7d
        E 102 89 30 7d
        E 0 99 30 7d
        E 102 89 30 7d
        E 0 99 30 7d
        E 153 89 30 7d
        E 0 99 33 7d
        E 230 89 33 7d
        E 0 99 30 7d
        E 102 89 30 7d
        E 0 99 30 7d
        E 102 89 30 7d
        E 0 99 30 7d
        E 153 89 30 7d
        E 0 99 33 7d
        E 230 89 33 7d
        E 0 99 30 7d
        E 102 89 30 7d
        E 0 99 30 7d
        E 102 89 30 7d
        E 0 99 30 7d
        E 153 89 30 7d
        E 0 99 33 7d
        E 230 89 33 7d
        E 0 99 30 7d
        E 102 89 30 7d
        E 0 99 30 7d
        E 102 89 30 7d
        E 0 99 30 7d
        E 153 89 30 7d
        E 0 99 33 7d
        E 230 89 33 7d
        E 0 99 30 7d
        E 102 89 30 7d
        E 0 99 30 7d
        E 102 89 30 7d
        E 0 99 30 7d
        E 153 89 30 7d
        E 0 99 33 7d
        E 230 89 33 7d
        E 0 99 30 7d
        E 102 89 30 7d
        E 0 99 30 7d
        E 102 89 30 7d
        E 0 99 30 7d
        E 153 89 30 7d
        E 0 99 33 7d
        E 230 89 33 7d
        E 0 99 30 7d
        E 102 89 30 7d
        E 0 99 30 7d
        E 102 89 30 7d
        E 0 99 30 7d
        E 153 89 30 7d
        E 0 99 33 7d
        E 230 89 33 7d
        E 0 99 30 7d
        E 102 89 30 7d
        E 0 99 30 7d
        E 102 89 30 7d
        E 0 99 30 7d
        E 153 89 30 7d
        E 0 99 33 7d
        E 230 89 33 7d
        E 0 99 30 7d
        E 102 89 30 7d
        E 0 99 30 7d
        E 102 89 30 7d
        E 0 99 30 7d
        E 153 89 30 7d
        E 0 99 33 7d
        E 230 89 33 7d
        E 0 99 30 7d
        E 102 89 30 7d
        E 0 99 30 7d
        E 102 89 30 7d
        E 0 99 30 7d
        E 153 89 30 7d
        E 0 99 33 7d
        E 230 89 33 7d
        E 0 99 30 7d
        E 102 89 30 7d
        E 0 99 30 7d
        E 102 89 30 7d
        E 0 99 30 7d
        E 153 89 30 7d
        E 0 99 33 7d
        E 230 89 33 7d
        E 0 99 30 7d
        E 102 89 30 7d
        E 0 99 30 7d
        E 102 89 30 7d
        E 0 99 30 7d
        E 153 89 30 7d
        E 0 99 33 7d
        E 230 89 33 7d
        E 0 99 30 7d
        E 102 89 30 7d
        E 0 99 30 7d
        E 102 89 30 7d
        E 0 99 30 7d
        E 153 89 30 7d
        E 0 99 33 7d
        E 230 89 33 7d
        E 0 99 30 7d
        E 102 89 30 7d
        E 0 99 30 7d
        E 102 89 30 7d
        E 0 99 30 7d
        E 153 89 30 7d
        E 0 99 33 7d
        E 230 89 33 7d
        E 0 99 30 7d
        E 102 89 30 7d
        E 0 99 30 7d
        E 102 89 30 7d
        E 0 99 30 7d
        E 153 89 30 7d
        E 0 99 33 7d
        E 230 89 33 7d
        E 0 99 44 7d
        E 179 89 44 7d
        E 0 99 41 7d
        E 204 89 41 7d
        E 0 99 43 7d
        E 0 99 35 7d
        E 230 89 35 7d
        E 0 99 44 7d
        E 76 89 44 7d
        E 0 99 3a 7d
        E 204 89 3a 7d
        E 0 99 44 7d
        E 179 89 44 7d
        E 0 99 41 7d
        E 204 89 41 7d
        E 0 99 43 7d
        E 0 99 35 7d
        E 230 89 35 7d
        E 0 99 44 7d
        E 76 89 44 7d
        E 0 99 3a 7d
        E 204 89 3a 7d
        E 0 99 44 7d
        E 179 89 44 7d
        E 0 99 41 7d
        E 204 89 41 7d
        E 0 99 43 7d
        E 0 99 35 7d
        E 230 89 35 7d
        E 0 99 44 7d
        E 76 89 44 7d
        E 0 99 3a 7d
        E 204 89 3a 7d
        E 0 99 44 7d
        E 179 89 44 7d
        E 0 99 41 7d
        E 204 89 41 7d
        E 0 99 43 7d
        E 0 99 35 7d
        E 230 89 35 7d
        E 0 99 44 7d
        E 76 89 44 7d
        E 0 99 3a 7d
        E 204 89 3a 7d
        E 0 99 44 7d
        E 179 89 44 7d
        E 0 99 41 7d
        E 204 89 41 7d
        E 0 99 43 7d
        E 0 99 35 7d
        E 230 89 35 7d
        E 0 99 44 7d
        E 76 89 44 7d
        E 0 99 3a 7d
        E 204 89 3a 7d
        E 0 99 44 7d
        E 179 89 44 7d
        E 0 99 41 7d
        E 204 89 41 7d
        E 0 99 43 7d
        E 0 99 35 7d
        E 230 89 35 7d
        E 0 99 44 7d
        E 76 89 44 7d
        E 0 99 3a 7d
        E 204 89 3a 7d
        E 0 99 44 7d
        E 179 89 44 7d
        E 0 99 41 7d
        E 204 89 41 7d
        E 0 99 43 7d
        E 0 99 35 7d
        E 230 89 35 7d
        E 0 99 44 7d
        E 76 89 44 7d
        E 0 99 3a 7d
        E 204 89 3a 7d
        E 0 99 44 7d
        E 179 89 44 7d
        E 0 99 41 7d
        E 204 89 41 7d
        E 0 99 43 7d
        E 0 99 35 7d
        E 230 89 35 7d
        E 0 99 44 7d
        E 76 89 44 7d
        E 0 99 3a 7d
        E 204 89 3a 7d
        E 0 99 44 7d
        E 179 89 44 7d
        E 0 99 41 7d
        E 204 89 41 7d
        E 0 99 43 7d
        E 0 99 35 7d
        E 230 89 35 7d
        E 0 99 44 7d
        E 76 89 44 7d
        E 0 99 3a 7d
        E 204 89 3a 7d
        E 0 99 44 7d
        E 179 89 44 7d
        E 0 99 41 7d
        E 204 89 41 7d
        E 0 99 43 7d
        E 0 99 35 7d
        E 230 89 35 7d
        E 0 99 44 7d
        E 76 89 44 7d
        E 0 99 3a 7d
        E 204 89 3a 7d
        E 0 99 44 7d
        E 179 89 44 7d
        E 0 99 41 7d
        E 204 89 41 7d
        E 0 99 43 7d
        E 0 99 35 7d
        E 230 89 35 7d
        E 0 99 44 7d
        E 76 89 44 7d
        E 0 99 3a 7d
        E 204 89 3a 7d
        E 0 99 44 7d
        E 179 89 44 7d
        E 0 99 41 7d
        E 204 89 41 7d
        E 0 99 43 7d
        E 0 99 35 7d
        E 230 89 35 7d
        E 0 99 44 7d
        E 76 89 44 7d
        E 0 99 3a 7d
        E 204 89 3a 7d
        E 0 99 44 7d
        E 179 89 44 7d
        E 0 99 41 7d
        E 204 89 41 7d
        E 0 99 43 7d
        E 0 99 35 7d
        E 230 89 35 7d
        E 0 99 44 7d
        E 76 89 44 7d
        E 0 99 3a 7d
        E 204 89 3a 7d
        E 0 99 44 7d
        E 179 89 44 7d
        E 0 99 41 7d
        E 204 89 41 7d
        E 0 99 43 7d
        E 0 99 35 7d
        E 230 89 35 7d
        E 0 99 44 7d
        E 76 89 44 7d
        E 0 99 3a 7d
        E 204 89 3a 7d
        E 0 99 44 7d
        E 179 89 44 7d
        E 0 99 41 7d
        E 204 89 41 7d
        E 0 99 43 7d
        E 0 99 35 7d
        E 230 89 35 7d
        E 0 99 44 7d
        E 76 89 44 7d
        E 0 99 3a 7d
        E 204 89 3a 7d
        E 0 99 44 7d
        E 179 89 44 7d
        E 0 99 41 7d
        E 204 89 41 7d
        E 0 99 43 7d
        E 0 99 35 7d
        E 230 89 35 7d
        E 0 99 44 7d
        E 76 89 44 7d
        E 0 99 3a 7d
        E 204 89 3a 7d
        E 0 99 44 7d
        E 179 89 44 7d
        E 0 99 41 7d
        E 204 89 41 7d
        E 0 99 43 7d
        E 0 99 35 7d
        E 230 89 35 7d
        E 0 99 44 7d
        E 76 89 44 7d
        E 0 99 3a 7d
        E 204 89 3a 7d
        E 0 99 44 7d
        E 179 89 44 7d
        E 0 99 41 7d
        E 204 89 41 7d
        E 0 99 43 7d
        E 0 99 35 7d
        E 230 89 35 7d
        E 0 99 44 7d
        E 76 89 44 7d
        E 0 99 3a 7d
        E 204 89 3a 7d
        E 0 99 44 7d
        E 179 89 44 7d
        E 0 99 41 7d
        E 204 89 41 7d
        E 0 99 43 7d
        E 0 99 35 7d
        E 230 89 35 7d
        E 0 99 44 7d
        E 76 89 44 7d
        E 0 99 3a 7d
        E 204 89 3a 7d
        E 0 99 44 7d
        E 179 89 44 7d
        E 0 99 41 7d
        E 204 89 41 7d
        E 0 99 43 7d
        E 0 99 35 7d
        E 230 89 35 7d
        E 0 99 44 7d
        E 76 89 44 7d
        E 0 99 3a 7d
        E 204 89 3a 7d
        E 0 99 44 7d
        E 179 89 44 7d
        E 0 99 41 7d
        E 204 89 41 7d
        E 0 99 43 7d
        E 0 99 35 7d
        E 230 89 35 7d
        E 0 99 44 7d
        E 76 89 44 7d
        E 0 99 3a 7d
        E 204 89 3a 7d
        E 0 99 44 7d
        E 179 89 44 7d
        E 0 99 41 7d
        E 204 89 41 7d
        E 0 99 43 7d
        E 0 99 35 7d
        E 230 89 35 7d
        E 0 99 44 7d
        E 76 89 44 7d
        E 0 99 3a 7d
        E 204 89 3a 7d
        E 0 99 44 7d
        E 179 89 44 7d
        E 0 99 41 7d
        E 204 89 41 7d
        E 0 99 43 7d
        E 0 99 35 7d
        E 230 89 35 7d
        E 0 99 44 7d
        E 76 89 44 7d
        E 0 99 3a 7d
        E 204 89 3a 7d
        E 0 99 44 7d
        E 179 89 44 7d
        E 0 99 41 7d
        E 204 89 41 7d
        E 0 99 43 7d
        E 0 99 35 7d
        E 230 89 35 7d
        E 0 99 44 7d
        E 76 89 44 7d
        E 0 99 3a 7d
        E 204 89 3a 7d
        E 0 99 44 7d
        E 179 89 44 7d
        E 0 99 41 7d
        E 204 89 41 7d
        E 0 99 43 7d
        E 0 99 35 7d
        E 230 89 35 7d
        E 0 99 44 7d
        E 76 89 44 7d
        E 0 99 3a 7d
        E 204 89 3a 7d
        E 0 99 44 7d
        E 179 89 44 7d
        E 0 99 41 7d
        E 204 89 41 7d
        E 0 99 43 7d
        E 0 99 35 7d
        E 230 89 35 7d
        E 0 99 44 7d
        E 76 89 44 7d
        E 0 99 3a 7d
        E 204 89 3a 7d
        E 0 99 44 7d
        E 179 89 44 7d
        E 0 99 41 7d
        E 204 89 41 7d
        E 0 99 43 7d
        E 0 99 35 7d
        E 230 89 35 7d
        E 0 99 44 7d
        E 76 89 44 7d
        E 0 99 3a 7d
        E 204 89 3a 7d
        E 0 99 44 7d
        E 179 89 44 7d
        E 0 99 41 7d
        E 204 89 41 7d
        E 0 99 43 7d
        E 0 99 35 7d
        E 230 89 35 7d
        E 0 99 44 7d
        E 76 89 44 7d
        E 0 99 3a 7d
        E 204 89 3a 7d
        E 0 99 44 7d
        E 179 89 44 7d
        E 0 99 41 7d
        E 204 89 41 7d
        E 0 99 43 7d
        E 0 99 35 7d
        E 230 89 35 7d
        E 0 99 44 7d
        E 76 89 44 7d
        E 0 99 3a 7d
        E 204 89 3a 7d
        E 0 99 44 7d
        E 179 89 44 7d
        E 0 99 41 7d
        E 204 89 41 7d
        E 0 99 43 7d
        E 0 99 35 7d
        E 230 89 35 7d
        E 0 99 44 7d
        E 76 89 44 7d
        E 0 99 3a 7d
        E 204 89 3a 7d
        E 0 99 44 7d
        E 179 89 44 7d
        E 0 99 41 7d
        E 204 89 41 7d
        E 0 99 43 7d
        E 0 99 35 7d
        E 230 89 35 7d
        E 0 99 44 7d
        E 76 89 44 7d
        E 0 99 3a 7d
        E 204 89 3a 7d
        E 0 99 44 7d
        E 179 89 44 7d
        E 0 99 41 7d
        E 204 89 41 7d
        E 0 99 43 7d
        E 0 99 35 7d
        E 230 89 35 7d
        E 0 99 44 7d
        E 76 89 44 7d
        E 0 99 3a 7d
        E 204 89 3a 7d
        E 0 99 44 7d
        E 179 89 44 7d
        E 0 99 41 7d
        E 204 89 41 7d
        E 0 99 43 7d
        E 0 99 35 7d
        E 230 89 35 7d
        E 0 99 44 7d
        E 76 89 44 7d
        E 0 99 3a 7d
        E 204 89 3a 7d
        E 0 99 44 7d
        E 179 89 44 7d
        E 0 99 41 7d
        E 204 89 41 7d
        E 0 99 43 7d
        E 0 99 35 7d
        E 230 89 35 7d
        E 0 99 44 7d
        E 76 89 44 7d
        E 0 99 3a 7d
        E 204 89 3a 7d
        E 0 99 44 7d
        E 179 89 44 7d
        E 0 99 41 7d
        E 204 89 41 7d
        E 0 99 43 7d
        E 0 99 35 7d
        E 230 89 35 7d
        E 0 99 44 7d
        E 76 89 44 7d
        E 0 99 3a 7d
        E 204 89 3a 7d
        E 100 b0 7b 00
        CCINTERP 32
        CHASE_CC_TAKEOFFS 1
        GUID {986768F7-A877-4145-8F34-85B732F06417}
        IGNTEMPO 0 120 4 4
        SRCCOLOR 636
        VELLANE 3 156 0
        VELLANE -1 196 0
      >
    >
  >
  <TRACK {D6772583-F19B-194C-8A1F-B05DCED7EF2D}
    NAME "insects of the los angeles basin"
    PEAKCOL 16576
    BEAT -1
    AUTOMODE 0
    VOLPAN 1 0 -1 -1 1
    MUTESOLO 1 0 0
    IPHASE 0
    PLAYOFFS 0 1
    ISBUS 0 0
    BUSCOMP 0 0 0 0 0
    SHOWINMIX 1 0.6667 0.5 1 0.5 0 -1 0
    FREEMODE 0
    SEL 0
    REC 0 0 1 0 0 0 0
    VU 2
    TRACKHEIGHT 0 0 0 0 -1 0
    INQ 0 0 0 0.5 100 0 0 100
    NCHAN 2
    FX 1
    TRACKID {D6772583-F19B-194C-8A1F-B05DCED7EF2D}
    PERF 0
    MIDIOUT -1
    MAINSEND 1 0
    <FXCHAIN
      SHOW 0
      LASTSEL 0
      DOCKED 0
      BYPASS 0 0 0
      <VST "VSTi: FM8 (Native Instruments GmbH)" FM8.vst 0 "" 1315530296<5653544E696638666D38000000000000> ""
        OGZpTu5e7f4AAAAAAgAAAAEAAAAAAAAAAgAAAAAAAAAYBwAAAQAAAAAAEAA=
        GAcAAAAAAAABAAAAaHNpbgEAAAAAAAAAN455D8DDx0mHoN4j0l/0WZYAAAAAAAAARFNJTnYAAAABAAAASAAAAAAAAABEU0lOagAAAAEAAAAYAAAAAAAAAERTSU4BAAAA
        AQAAAAEAAAABAAAAAQAAAAEAAAAAAAAAAAAAAAAAAAANYmWFAQAAAAhwEAAAAAAAAQAAAAEAAAAAAAAAAAAAAAAAAAADAAAAMAAwADAAAAAAAAAAAAAAAAAAAAAAAAEA
        AAABAAAAAAAAAERTSU5lAAAARgYAAAAAAAABAAAAaHNpbgEAAAAAAAAAMOH4NwAUwEaoogAOyNUgkW0AAAAAAAAARFNJTmUAAAABAAAANAAAAAAAAABEU0lOagAAAAEA
        AAAYAAAAAAAAAERTSU4BAAAAAQAAAAEAAAABAAAAAgAAAAEAAAAACAAAAAEAAAAKAAAAMQAuADIALgAwAC4AMQAwADEAMAABAAAAAwAAAAAAAABEU0lObAAAAKgBAAAA
        AAAAAQAAAGhzaW4BAAAAAAAAACA7190CLVtKvWPIjKqbw/t4AQAAAAAAAERTSU5sAAAAAQAAABgAAAAAAAAARFNJTgEAAAABAAAAAQAAAAEAAAACAAAAAQAAAAAAAAAI
        AAAATgBlAHcAUwBvAHUAbgBkAAcAAABuAG8AdAAgAHMAZQB0AAAAAAAAAAAAAAAAAAAAAAAAAAAAAAAAAAAAAAAAAAAAAAAAAAEAAAABAAAAAQAAAAMAAABGAE0AOAAA
        AAAAAAAAAAcAAAAHAAAAXABAAGMAbwBsAG8AcgABAAAAMAARAAAAXABAAGQAZQB2AGkAYwBlAHQAeQBwAGUAZgBsAGEAZwBzAAEAAAAxAAsAAABcAEAAcwBvAHUAbgBk
        AHQAeQBwAGUAAQAAADAABwAAAFwAQAB0AGUAbQBwAG8AAQAAADAABgAAAFwAQAB2AGUAcgBsAAUAAAAxAC4ANwAuADgABgAAAFwAQAB2AGUAcgBtAAUAAAAxAC4ANwAu
        ADgABwAAAFwAQAB2AGkAcwBpAGIAAQAAADAAAQAAAAAAAAACAAAARFNJTnkAAABoAAAAAAAAAAEAAABoc2luAQAAAAAAAABG64vCmumHRIQ9Mih2ujahOAAAAAAAAABE
        U0lOeQAAAAEAAAAYAAAAAAAAAERTSU4BAAAAAQAAAAEAAAABAAAAAQAAAAAAAAABAAAAAAAAAAEAAABEU0lOdAAAAHUDAAAAAAAAAQAAAGhzaW4BAAAAAAAAAMPiDYJz
        LJxOuWtBgMMVvqRFAwAAAAAAAERTSU50AAAAAQAAACwDAAAAAAAARFNJTnMAAAABAAAAGAAAAAAAAABEU0lOAQAAAAEAAAABAAAAAQAAAAG9DwAA8wIAAAK9DwBgAAAB
        IAUDaHNpbkAHQAAQHyRrBvAZSEqYrqFXTcEPPBhAFCAAA0RTSU5AI+AHA0AAQBsAbSAIAWkPIAQgAEAj4ANTEEkCYzKs2sVGp2B2wrYRj5w5oCfAN0Av4BdnQCMB8Q4g
        XCAAAAUgAwFjDCAEIAAIdHNycEU4TUbPIAsEvCMAAAcgBwZkZWZhdWx04BgKICoAP+ACAwNBAACAIA8AoCAH4AsAAPAgF0AfwAAAICAPwABgFwVAAABIQgDgBABAD0AD
        4BcfYAAge+AEA0AAwBPgAwBAE+AAAAPNzMw+IAwDP5qZGUAXwAPgABcgCuAHG0ATQADgBwdAACATYKtAACALYANAAEALQAAg42AAwA9AB0AD4AMAwA9AB0ADwABAC8AD
        QADAC8AHQADgAwtAAEAP4AMAIA/Bn8AHAMjhDnPgHwDgAO/gDgBAX0ADwABBz8H7QAtAAwCgIINAB0AAALQgCwCWIAPgAwDAP0AHQAPAAEAz4MdLIAAAAcAAIAuAAAAC
        wACADuAdAOAALAD+4B0v4CEAABTgISrgMADBA+AKAGBTgAXgAABChuAXA+AeAOD9WSBZIkBBUgH6Q0AH4FUMQ9VAZwH6Q6BnBYA/zLyMK+BVDOABACBnBAA/ZmZmYAPg
        YwwgAABwJOwB/kJAdCAA4D4MosLgAFaAAKBjgADgOAwgYwRwwgAAhmC6JliAA0BW4EEMIGPgAE3g8AAAUCAA4Of8AP/gFwAABEERCggyAwAAQDIAAAA8QikgAwHwQmLY
        AAEgAYLiIAcgAkKVgAagCSA3oAkgSKAJKxegCQAG4AAJKwSgEyAAoAmASKAGoBPgwk/gSwAAEaBUA2tuYWJBMcAAAYAAIAAAGaARA2N0bmlMiwERJ2FcTFBAAEocAaBC
        4hMPTInAH00bwAvg/QDgvQABIACAAANzaXVnQiQA6CNxwAAAKiAIABkgAyOYYAAj0mAAB2dwdGNZVE1FQAwLDWJlhQEAAAAAAAAAAQAAAAABAAAAAAAAAA==
        ADxkaXNhYmxlZD4AEAAAAA==
      >
      PRESETNAME <disabled>
      FLOATPOS 0 0 0 0
      FXID {2D796EBA-51DC-5D49-90BC-B6ED33FAEF6F}
      WAK 0 0
    >
    <ITEM
      POSITION 66.78259200000417
      SNAPOFFS 0
      LENGTH 343.82600099999581
      LOOP 1
      ALLTAKES 0
      FADEIN 1 0 0 1 0 0
      FADEOUT 1 0 0 1 0 0
      MUTE 0 0
      SEL 0
      IGUID {0AFD778A-CA8C-6244-A5DE-8F62D38C7452}
      IID 37
      NAME "insects of the los angeles basin.mid"
      VOLPAN 1 0 1 -1
      SOFFS 0 0
      PLAYRATE 1 1 0 -1 0 0.0025
      CHANMODE 0
      GUID {6E156069-BFF6-2F45-A2E8-037FAFB7A4B8}
      <SOURCE MIDI
        HASDATA 1 128 QN
        CCINTERP 32
        POOLEDEVTS {4AA471BD-6CB5-0A43-B964-0F5EDC029C0B}
        E 0 9a 30 7d
        E 102 8a 30 7d
        E 0 9a 30 7d
        E 102 8a 30 7d
        E 0 9a 30 7d
        E 153 8a 30 7d
        E 0 9a 33 7d
        E 230 8a 33 7d
        E 0 9a 30 7d
        E 102 8a 30 7d
        E 0 9a 30 7d
        E 102 8a 30 7d
        E 0 9a 30 7d
        E 153 8a 30 7d
        E 0 9a 33 7d
        E 230 8a 33 7d
        E 0 9a 30 7d
        E 102 8a 30 7d
        E 0 9a 30 7d
        E 102 8a 30 7d
        E 0 9a 30 7d
        E 153 8a 30 7d
        E 0 9a 33 7d
        E 230 8a 33 7d
        E 0 9a 30 7d
        E 102 8a 30 7d
        E 0 9a 30 7d
        E 102 8a 30 7d
        E 0 9a 30 7d
        E 153 8a 30 7d
        E 0 9a 33 7d
        E 230 8a 33 7d
        E 0 9a 30 7d
        E 102 8a 30 7d
        E 0 9a 30 7d
        E 102 8a 30 7d
        E 0 9a 30 7d
        E 153 8a 30 7d
        E 0 9a 33 7d
        E 230 8a 33 7d
        E 0 9a 30 7d
        E 102 8a 30 7d
        E 0 9a 30 7d
        E 102 8a 30 7d
        E 0 9a 30 7d
        E 153 8a 30 7d
        E 0 9a 33 7d
        E 230 8a 33 7d
        E 0 9a 30 7d
        E 102 8a 30 7d
        E 0 9a 30 7d
        E 102 8a 30 7d
        E 0 9a 30 7d
        E 153 8a 30 7d
        E 0 9a 33 7d
        E 230 8a 33 7d
        E 0 9a 30 7d
        E 102 8a 30 7d
        E 0 9a 30 7d
        E 102 8a 30 7d
        E 0 9a 30 7d
        E 153 8a 30 7d
        E 0 9a 33 7d
        E 230 8a 33 7d
        E 0 9a 30 7d
        E 102 8a 30 7d
        E 0 9a 30 7d
        E 102 8a 30 7d
        E 0 9a 30 7d
        E 153 8a 30 7d
        E 0 9a 33 7d
        E 230 8a 33 7d
        E 0 9a 30 7d
        E 102 8a 30 7d
        E 0 9a 30 7d
        E 102 8a 30 7d
        E 0 9a 30 7d
        E 153 8a 30 7d
        E 0 9a 33 7d
        E 230 8a 33 7d
        E 0 9a 30 7d
        E 102 8a 30 7d
        E 0 9a 30 7d
        E 102 8a 30 7d
        E 0 9a 30 7d
        E 153 8a 30 7d
        E 0 9a 33 7d
        E 230 8a 33 7d
        E 0 9a 30 7d
        E 102 8a 30 7d
        E 0 9a 30 7d
        E 102 8a 30 7d
        E 0 9a 30 7d
        E 153 8a 30 7d
        E 0 9a 33 7d
        E 230 8a 33 7d
        E 0 9a 30 7d
        E 102 8a 30 7d
        E 0 9a 30 7d
        E 102 8a 30 7d
        E 0 9a 30 7d
        E 153 8a 30 7d
        E 0 9a 33 7d
        E 230 8a 33 7d
        E 0 9a 30 7d
        E 102 8a 30 7d
        E 0 9a 30 7d
        E 102 8a 30 7d
        E 0 9a 30 7d
        E 153 8a 30 7d
        E 0 9a 33 7d
        E 230 8a 33 7d
        E 0 9a 30 7d
        E 102 8a 30 7d
        E 0 9a 30 7d
        E 102 8a 30 7d
        E 0 9a 30 7d
        E 153 8a 30 7d
        E 0 9a 33 7d
        E 230 8a 33 7d
        E 0 9a 30 7d
        E 102 8a 30 7d
        E 0 9a 30 7d
        E 102 8a 30 7d
        E 0 9a 30 7d
        E 153 8a 30 7d
        E 0 9a 33 7d
        E 230 8a 33 7d
        E 0 9a 30 7d
        E 102 8a 30 7d
        E 0 9a 30 7d
        E 102 8a 30 7d
        E 0 9a 30 7d
        E 153 8a 30 7d
        E 0 9a 33 7d
        E 230 8a 33 7d
        E 0 9a 30 7d
        E 102 8a 30 7d
        E 0 9a 30 7d
        E 102 8a 30 7d
        E 0 9a 30 7d
        E 153 8a 30 7d
        E 0 9a 33 7d
        E 230 8a 33 7d
        E 0 9a 30 7d
        E 102 8a 30 7d
        E 0 9a 30 7d
        E 102 8a 30 7d
        E 0 9a 30 7d
        E 153 8a 30 7d
        E 0 9a 33 7d
        E 230 8a 33 7d
        E 0 9a 30 7d
        E 102 8a 30 7d
        E 0 9a 30 7d
        E 102 8a 30 7d
        E 0 9a 30 7d
        E 153 8a 30 7d
        E 0 9a 33 7d
        E 230 8a 33 7d
        E 0 9a 30 7d
        E 102 8a 30 7d
        E 0 9a 30 7d
        E 102 8a 30 7d
        E 0 9a 30 7d
        E 153 8a 30 7d
        E 0 9a 33 7d
        E 230 8a 33 7d
        E 0 9a 30 7d
        E 102 8a 30 7d
        E 0 9a 30 7d
        E 102 8a 30 7d
        E 0 9a 30 7d
        E 153 8a 30 7d
        E 0 9a 33 7d
        E 230 8a 33 7d
        E 0 9a 30 7d
        E 102 8a 30 7d
        E 0 9a 30 7d
        E 102 8a 30 7d
        E 0 9a 30 7d
        E 153 8a 30 7d
        E 0 9a 33 7d
        E 230 8a 33 7d
        E 0 9a 30 7d
        E 102 8a 30 7d
        E 0 9a 30 7d
        E 102 8a 30 7d
        E 0 9a 30 7d
        E 153 8a 30 7d
        E 0 9a 33 7d
        E 230 8a 33 7d
        E 0 9a 30 7d
        E 102 8a 30 7d
        E 0 9a 30 7d
        E 102 8a 30 7d
        E 0 9a 30 7d
        E 153 8a 30 7d
        E 0 9a 33 7d
        E 230 8a 33 7d
        E 0 9a 30 7d
        E 102 8a 30 7d
        E 0 9a 30 7d
        E 102 8a 30 7d
        E 0 9a 30 7d
        E 153 8a 30 7d
        E 0 9a 33 7d
        E 230 8a 33 7d
        E 0 9a 30 7d
        E 102 8a 30 7d
        E 0 9a 30 7d
        E 102 8a 30 7d
        E 0 9a 30 7d
        E 153 8a 30 7d
        E 0 9a 33 7d
        E 230 8a 33 7d
        E 0 9a 30 7d
        E 102 8a 30 7d
        E 0 9a 30 7d
        E 102 8a 30 7d
        E 0 9a 30 7d
        E 153 8a 30 7d
        E 0 9a 33 7d
        E 230 8a 33 7d
        E 0 9a 30 7d
        E 102 8a 30 7d
        E 0 9a 30 7d
        E 102 8a 30 7d
        E 0 9a 30 7d
        E 153 8a 30 7d
        E 0 9a 33 7d
        E 230 8a 33 7d
        E 0 9a 30 7d
        E 102 8a 30 7d
        E 0 9a 30 7d
        E 102 8a 30 7d
        E 0 9a 30 7d
        E 153 8a 30 7d
        E 0 9a 33 7d
        E 230 8a 33 7d
        E 0 9a 30 7d
        E 102 8a 30 7d
        E 0 9a 30 7d
        E 102 8a 30 7d
        E 0 9a 30 7d
        E 153 8a 30 7d
        E 0 9a 33 7d
        E 230 8a 33 7d
        E 0 9a 30 7d
        E 102 8a 30 7d
        E 0 9a 30 7d
        E 102 8a 30 7d
        E 0 9a 30 7d
        E 153 8a 30 7d
        E 0 9a 33 7d
        E 230 8a 33 7d
        E 0 9a 30 7d
        E 102 8a 30 7d
        E 0 9a 30 7d
        E 102 8a 30 7d
        E 0 9a 30 7d
        E 153 8a 30 7d
        E 0 9a 33 7d
        E 230 8a 33 7d
        E 0 9a 30 7d
        E 102 8a 30 7d
        E 0 9a 30 7d
        E 102 8a 30 7d
        E 0 9a 30 7d
        E 153 8a 30 7d
        E 0 9a 33 7d
        E 230 8a 33 7d
        E 0 9a 30 7d
        E 102 8a 30 7d
        E 0 9a 30 7d
        E 102 8a 30 7d
        E 0 9a 30 7d
        E 153 8a 30 7d
        E 0 9a 33 7d
        E 230 8a 33 7d
        E 0 9a 30 7d
        E 102 8a 30 7d
        E 0 9a 30 7d
        E 102 8a 30 7d
        E 0 9a 30 7d
        E 153 8a 30 7d
        E 0 9a 33 7d
        E 230 8a 33 7d
        E 0 9a 30 7d
        E 102 8a 30 7d
        E 0 9a 30 7d
        E 102 8a 30 7d
        E 0 9a 30 7d
        E 153 8a 30 7d
        E 0 9a 33 7d
        E 230 8a 33 7d
        E 0 9a 30 7d
        E 102 8a 30 7d
        E 0 9a 30 7d
        E 102 8a 30 7d
        E 0 9a 30 7d
        E 153 8a 30 7d
        E 0 9a 33 7d
        E 230 8a 33 7d
        E 0 9a 30 7d
        E 102 8a 30 7d
        E 0 9a 30 7d
        E 102 8a 30 7d
        E 0 9a 30 7d
        E 153 8a 30 7d
        E 0 9a 33 7d
        E 230 8a 33 7d
        E 0 9a 30 7d
        E 102 8a 30 7d
        E 0 9a 30 7d
        E 102 8a 30 7d
        E 0 9a 30 7d
        E 153 8a 30 7d
        E 0 9a 33 7d
        E 230 8a 33 7d
        E 0 9a 30 7d
        E 102 8a 30 7d
        E 0 9a 30 7d
        E 102 8a 30 7d
        E 0 9a 30 7d
        E 153 8a 30 7d
        E 0 9a 33 7d
        E 230 8a 33 7d
        E 0 9a 30 7d
        E 102 8a 30 7d
        E 0 9a 30 7d
        E 102 8a 30 7d
        E 0 9a 30 7d
        E 153 8a 30 7d
        E 0 9a 33 7d
        E 230 8a 33 7d
        E 0 9a 30 7d
        E 102 8a 30 7d
        E 0 9a 30 7d
        E 102 8a 30 7d
        E 0 9a 30 7d
        E 153 8a 30 7d
        E 0 9a 33 7d
        E 230 8a 33 7d
        E 0 9a 30 7d
        E 102 8a 30 7d
        E 0 9a 30 7d
        E 102 8a 30 7d
        E 0 9a 30 7d
        E 153 8a 30 7d
        E 0 9a 33 7d
        E 230 8a 33 7d
        E 0 9a 30 7d
        E 102 8a 30 7d
        E 0 9a 30 7d
        E 102 8a 30 7d
        E 0 9a 30 7d
        E 153 8a 30 7d
        E 0 9a 33 7d
        E 230 8a 33 7d
        E 0 9a 44 7d
        E 179 8a 44 7d
        E 0 9a 41 7d
        E 204 8a 41 7d
        E 0 9a 43 7d
        E 0 9a 35 7d
        E 230 8a 35 7d
        E 0 9a 44 7d
        E 76 8a 44 7d
        E 0 9a 3a 7d
        E 204 8a 3a 7d
        E 0 9a 44 7d
        E 179 8a 44 7d
        E 0 9a 41 7d
        E 204 8a 41 7d
        E 0 9a 43 7d
        E 0 9a 35 7d
        E 230 8a 35 7d
        E 0 9a 44 7d
        E 76 8a 44 7d
        E 0 9a 3a 7d
        E 204 8a 3a 7d
        E 0 9a 44 7d
        E 179 8a 44 7d
        E 0 9a 41 7d
        E 204 8a 41 7d
        E 0 9a 43 7d
        E 0 9a 35 7d
        E 230 8a 35 7d
        E 0 9a 44 7d
        E 76 8a 44 7d
        E 0 9a 3a 7d
        E 204 8a 3a 7d
        E 0 9a 44 7d
        E 179 8a 44 7d
        E 0 9a 41 7d
        E 204 8a 41 7d
        E 0 9a 43 7d
        E 0 9a 35 7d
        E 230 8a 35 7d
        E 0 9a 44 7d
        E 76 8a 44 7d
        E 0 9a 3a 7d
        E 204 8a 3a 7d
        E 0 9a 44 7d
        E 179 8a 44 7d
        E 0 9a 41 7d
        E 204 8a 41 7d
        E 0 9a 43 7d
        E 0 9a 35 7d
        E 230 8a 35 7d
        E 0 9a 44 7d
        E 76 8a 44 7d
        E 0 9a 3a 7d
        E 204 8a 3a 7d
        E 0 9a 44 7d
        E 179 8a 44 7d
        E 0 9a 41 7d
        E 204 8a 41 7d
        E 0 9a 43 7d
        E 0 9a 35 7d
        E 230 8a 35 7d
        E 0 9a 44 7d
        E 76 8a 44 7d
        E 0 9a 3a 7d
        E 204 8a 3a 7d
        E 0 9a 44 7d
        E 179 8a 44 7d
        E 0 9a 41 7d
        E 204 8a 41 7d
        E 0 9a 43 7d
        E 0 9a 35 7d
        E 230 8a 35 7d
        E 0 9a 44 7d
        E 76 8a 44 7d
        E 0 9a 3a 7d
        E 204 8a 3a 7d
        E 0 9a 44 7d
        E 179 8a 44 7d
        E 0 9a 41 7d
        E 204 8a 41 7d
        E 0 9a 43 7d
        E 0 9a 35 7d
        E 230 8a 35 7d
        E 0 9a 44 7d
        E 76 8a 44 7d
        E 0 9a 3a 7d
        E 204 8a 3a 7d
        E 0 9a 44 7d
        E 179 8a 44 7d
        E 0 9a 41 7d
        E 204 8a 41 7d
        E 0 9a 43 7d
        E 0 9a 35 7d
        E 230 8a 35 7d
        E 0 9a 44 7d
        E 76 8a 44 7d
        E 0 9a 3a 7d
        E 204 8a 3a 7d
        E 0 9a 44 7d
        E 179 8a 44 7d
        E 0 9a 41 7d
        E 204 8a 41 7d
        E 0 9a 43 7d
        E 0 9a 35 7d
        E 230 8a 35 7d
        E 0 9a 44 7d
        E 76 8a 44 7d
        E 0 9a 3a 7d
        E 204 8a 3a 7d
        E 0 9a 44 7d
        E 179 8a 44 7d
        E 0 9a 41 7d
        E 204 8a 41 7d
        E 0 9a 43 7d
        E 0 9a 35 7d
        E 230 8a 35 7d
        E 0 9a 44 7d
        E 76 8a 44 7d
        E 0 9a 3a 7d
        E 204 8a 3a 7d
        E 0 9a 44 7d
        E 179 8a 44 7d
        E 0 9a 41 7d
        E 204 8a 41 7d
        E 0 9a 43 7d
        E 0 9a 35 7d
        E 230 8a 35 7d
        E 0 9a 44 7d
        E 76 8a 44 7d
        E 0 9a 3a 7d
        E 204 8a 3a 7d
        E 0 9a 44 7d
        E 179 8a 44 7d
        E 0 9a 41 7d
        E 204 8a 41 7d
        E 0 9a 43 7d
        E 0 9a 35 7d
        E 230 8a 35 7d
        E 0 9a 44 7d
        E 76 8a 44 7d
        E 0 9a 3a 7d
        E 204 8a 3a 7d
        E 0 9a 44 7d
        E 179 8a 44 7d
        E 0 9a 41 7d
        E 204 8a 41 7d
        E 0 9a 43 7d
        E 0 9a 35 7d
        E 230 8a 35 7d
        E 0 9a 44 7d
        E 76 8a 44 7d
        E 0 9a 3a 7d
        E 204 8a 3a 7d
        E 0 9a 44 7d
        E 179 8a 44 7d
        E 0 9a 41 7d
        E 204 8a 41 7d
        E 0 9a 43 7d
        E 0 9a 35 7d
        E 230 8a 35 7d
        E 0 9a 44 7d
        E 76 8a 44 7d
        E 0 9a 3a 7d
        E 204 8a 3a 7d
        E 0 9a 44 7d
        E 179 8a 44 7d
        E 0 9a 41 7d
        E 204 8a 41 7d
        E 0 9a 43 7d
        E 0 9a 35 7d
        E 230 8a 35 7d
        E 0 9a 44 7d
        E 76 8a 44 7d
        E 0 9a 3a 7d
        E 204 8a 3a 7d
        E 0 9a 44 7d
        E 179 8a 44 7d
        E 0 9a 41 7d
        E 204 8a 41 7d
        E 0 9a 43 7d
        E 0 9a 35 7d
        E 230 8a 35 7d
        E 0 9a 44 7d
        E 76 8a 44 7d
        E 0 9a 3a 7d
        E 204 8a 3a 7d
        E 0 9a 44 7d
        E 179 8a 44 7d
        E 0 9a 41 7d
        E 204 8a 41 7d
        E 0 9a 43 7d
        E 0 9a 35 7d
        E 230 8a 35 7d
        E 0 9a 44 7d
        E 76 8a 44 7d
        E 0 9a 3a 7d
        E 204 8a 3a 7d
        E 0 9a 44 7d
        E 179 8a 44 7d
        E 0 9a 41 7d
        E 204 8a 41 7d
        E 0 9a 43 7d
        E 0 9a 35 7d
        E 230 8a 35 7d
        E 0 9a 44 7d
        E 76 8a 44 7d
        E 0 9a 3a 7d
        E 204 8a 3a 7d
        E 0 9a 44 7d
        E 179 8a 44 7d
        E 0 9a 41 7d
        E 204 8a 41 7d
        E 0 9a 43 7d
        E 0 9a 35 7d
        E 230 8a 35 7d
        E 0 9a 44 7d
        E 76 8a 44 7d
        E 0 9a 3a 7d
        E 204 8a 3a 7d
        E 0 9a 44 7d
        E 179 8a 44 7d
        E 0 9a 41 7d
        E 204 8a 41 7d
        E 0 9a 43 7d
        E 0 9a 35 7d
        E 230 8a 35 7d
        E 0 9a 44 7d
        E 76 8a 44 7d
        E 0 9a 3a 7d
        E 204 8a 3a 7d
        E 0 9a 44 7d
        E 179 8a 44 7d
        E 0 9a 41 7d
        E 204 8a 41 7d
        E 0 9a 43 7d
        E 0 9a 35 7d
        E 230 8a 35 7d
        E 0 9a 44 7d
        E 76 8a 44 7d
        E 0 9a 3a 7d
        E 204 8a 3a 7d
        E 0 9a 44 7d
        E 179 8a 44 7d
        E 0 9a 41 7d
        E 204 8a 41 7d
        E 0 9a 43 7d
        E 0 9a 35 7d
        E 230 8a 35 7d
        E 0 9a 44 7d
        E 76 8a 44 7d
        E 0 9a 3a 7d
        E 204 8a 3a 7d
        E 0 9a 44 7d
        E 179 8a 44 7d
        E 0 9a 41 7d
        E 204 8a 41 7d
        E 0 9a 43 7d
        E 0 9a 35 7d
        E 230 8a 35 7d
        E 0 9a 44 7d
        E 76 8a 44 7d
        E 0 9a 3a 7d
        E 204 8a 3a 7d
        E 0 9a 44 7d
        E 179 8a 44 7d
        E 0 9a 41 7d
        E 204 8a 41 7d
        E 0 9a 43 7d
        E 0 9a 35 7d
        E 230 8a 35 7d
        E 0 9a 44 7d
        E 76 8a 44 7d
        E 0 9a 3a 7d
        E 204 8a 3a 7d
        E 0 9a 44 7d
        E 179 8a 44 7d
        E 0 9a 41 7d
        E 204 8a 41 7d
        E 0 9a 43 7d
        E 0 9a 35 7d
        E 230 8a 35 7d
        E 0 9a 44 7d
        E 76 8a 44 7d
        E 0 9a 3a 7d
        E 204 8a 3a 7d
        E 0 9a 44 7d
        E 179 8a 44 7d
        E 0 9a 41 7d
        E 204 8a 41 7d
        E 0 9a 43 7d
        E 0 9a 35 7d
        E 230 8a 35 7d
        E 0 9a 44 7d
        E 76 8a 44 7d
        E 0 9a 3a 7d
        E 204 8a 3a 7d
        E 0 9a 44 7d
        E 179 8a 44 7d
        E 0 9a 41 7d
        E 204 8a 41 7d
        E 0 9a 43 7d
        E 0 9a 35 7d
        E 230 8a 35 7d
        E 0 9a 44 7d
        E 76 8a 44 7d
        E 0 9a 3a 7d
        E 204 8a 3a 7d
        E 0 9a 44 7d
        E 179 8a 44 7d
        E 0 9a 41 7d
        E 204 8a 41 7d
        E 0 9a 43 7d
        E 0 9a 35 7d
        E 230 8a 35 7d
        E 0 9a 44 7d
        E 76 8a 44 7d
        E 0 9a 3a 7d
        E 204 8a 3a 7d
        E 0 9a 44 7d
        E 179 8a 44 7d
        E 0 9a 41 7d
        E 204 8a 41 7d
        E 0 9a 43 7d
        E 0 9a 35 7d
        E 230 8a 35 7d
        E 0 9a 44 7d
        E 76 8a 44 7d
        E 0 9a 3a 7d
        E 204 8a 3a 7d
        E 0 9a 44 7d
        E 179 8a 44 7d
        E 0 9a 41 7d
        E 204 8a 41 7d
        E 0 9a 43 7d
        E 0 9a 35 7d
        E 230 8a 35 7d
        E 0 9a 44 7d
        E 76 8a 44 7d
        E 0 9a 3a 7d
        E 204 8a 3a 7d
        E 0 9a 44 7d
        E 179 8a 44 7d
        E 0 9a 41 7d
        E 204 8a 41 7d
        E 0 9a 43 7d
        E 0 9a 35 7d
        E 230 8a 35 7d
        E 0 9a 44 7d
        E 76 8a 44 7d
        E 0 9a 3a 7d
        E 204 8a 3a 7d
        E 0 9a 44 7d
        E 179 8a 44 7d
        E 0 9a 41 7d
        E 204 8a 41 7d
        E 0 9a 43 7d
        E 0 9a 35 7d
        E 230 8a 35 7d
        E 0 9a 44 7d
        E 76 8a 44 7d
        E 0 9a 3a 7d
        E 204 8a 3a 7d
        E 0 9a 44 7d
        E 179 8a 44 7d
        E 0 9a 41 7d
        E 204 8a 41 7d
        E 0 9a 43 7d
        E 0 9a 35 7d
        E 230 8a 35 7d
        E 0 9a 44 7d
        E 76 8a 44 7d
        E 0 9a 3a 7d
        E 204 8a 3a 7d
        E 0 9a 44 7d
        E 179 8a 44 7d
        E 0 9a 41 7d
        E 204 8a 41 7d
        E 0 9a 43 7d
        E 0 9a 35 7d
        E 230 8a 35 7d
        E 0 9a 44 7d
        E 76 8a 44 7d
        E 0 9a 3a 7d
        E 204 8a 3a 7d
        E 0 9a 30 7d
        E 102 8a 30 7d
        E 0 9a 30 7d
        E 153 8a 30 7d
        E 0 9a 33 7d
        E 230 8a 33 7d
        E 0 9a 44 7d
        E 179 8a 44 7d
        E 0 9a 30 7d
        E 102 8a 30 7d
        E 0 9a 30 7d
        E 153 8a 30 7d
        E 0 9a 33 7d
        E 230 8a 33 7d
        E 0 9a 44 7d
        E 179 8a 44 7d
        E 0 9a 30 7d
        E 102 8a 30 7d
        E 0 9a 30 7d
        E 153 8a 30 7d
        E 0 9a 33 7d
        E 230 8a 33 7d
        E 0 9a 44 7d
        E 179 8a 44 7d
        E 0 9a 30 7d
        E 102 8a 30 7d
        E 0 9a 30 7d
        E 153 8a 30 7d
        E 0 9a 33 7d
        E 230 8a 33 7d
        E 0 9a 44 7d
        E 179 8a 44 7d
        E 0 9a 30 7d
        E 102 8a 30 7d
        E 0 9a 30 7d
        E 153 8a 30 7d
        E 0 9a 33 7d
        E 230 8a 33 7d
        E 0 9a 44 7d
        E 179 8a 44 7d
        E 0 9a 30 7d
        E 102 8a 30 7d
        E 0 9a 30 7d
        E 153 8a 30 7d
        E 0 9a 33 7d
        E 230 8a 33 7d
        E 0 9a 44 7d
        E 179 8a 44 7d
        E 0 9a 30 7d
        E 102 8a 30 7d
        E 0 9a 30 7d
        E 153 8a 30 7d
        E 0 9a 33 7d
        E 230 8a 33 7d
        E 0 9a 44 7d
        E 179 8a 44 7d
        E 0 9a 30 7d
        E 102 8a 30 7d
        E 0 9a 30 7d
        E 153 8a 30 7d
        E 0 9a 33 7d
        E 230 8a 33 7d
        E 0 9a 44 7d
        E 179 8a 44 7d
        E 0 9a 30 7d
        E 102 8a 30 7d
        E 0 9a 30 7d
        E 153 8a 30 7d
        E 0 9a 33 7d
        E 230 8a 33 7d
        E 0 9a 44 7d
        E 179 8a 44 7d
        E 0 9a 30 7d
        E 102 8a 30 7d
        E 0 9a 30 7d
        E 153 8a 30 7d
        E 0 9a 33 7d
        E 230 8a 33 7d
        E 0 9a 44 7d
        E 179 8a 44 7d
        E 0 9a 30 7d
        E 102 8a 30 7d
        E 0 9a 30 7d
        E 153 8a 30 7d
        E 0 9a 33 7d
        E 230 8a 33 7d
        E 0 9a 44 7d
        E 179 8a 44 7d
        E 0 9a 30 7d
        E 102 8a 30 7d
        E 0 9a 30 7d
        E 153 8a 30 7d
        E 0 9a 33 7d
        E 230 8a 33 7d
        E 0 9a 44 7d
        E 179 8a 44 7d
        E 0 9a 30 7d
        E 102 8a 30 7d
        E 0 9a 30 7d
        E 153 8a 30 7d
        E 0 9a 33 7d
        E 230 8a 33 7d
        E 0 9a 44 7d
        E 179 8a 44 7d
        E 0 9a 30 7d
        E 102 8a 30 7d
        E 0 9a 30 7d
        E 153 8a 30 7d
        E 0 9a 33 7d
        E 230 8a 33 7d
        E 0 9a 44 7d
        E 179 8a 44 7d
        E 0 9a 30 7d
        E 102 8a 30 7d
        E 0 9a 30 7d
        E 153 8a 30 7d
        E 0 9a 33 7d
        E 230 8a 33 7d
        E 0 9a 44 7d
        E 179 8a 44 7d
        E 0 9a 30 7d
        E 102 8a 30 7d
        E 0 9a 30 7d
        E 153 8a 30 7d
        E 0 9a 33 7d
        E 230 8a 33 7d
        E 0 9a 44 7d
        E 179 8a 44 7d
        E 0 9a 30 7d
        E 102 8a 30 7d
        E 0 9a 30 7d
        E 153 8a 30 7d
        E 0 9a 33 7d
        E 230 8a 33 7d
        E 0 9a 44 7d
        E 179 8a 44 7d
        E 0 9a 30 7d
        E 102 8a 30 7d
        E 0 9a 30 7d
        E 153 8a 30 7d
        E 0 9a 33 7d
        E 230 8a 33 7d
        E 0 9a 44 7d
        E 179 8a 44 7d
        E 0 9a 30 7d
        E 102 8a 30 7d
        E 0 9a 30 7d
        E 153 8a 30 7d
        E 0 9a 33 7d
        E 230 8a 33 7d
        E 0 9a 44 7d
        E 179 8a 44 7d
        E 0 9a 30 7d
        E 102 8a 30 7d
        E 0 9a 30 7d
        E 153 8a 30 7d
        E 0 9a 33 7d
        E 230 8a 33 7d
        E 0 9a 44 7d
        E 179 8a 44 7d
        E 0 9a 30 7d
        E 102 8a 30 7d
        E 0 9a 30 7d
        E 153 8a 30 7d
        E 0 9a 33 7d
        E 230 8a 33 7d
        E 0 9a 44 7d
        E 179 8a 44 7d
        E 0 9a 30 7d
        E 102 8a 30 7d
        E 0 9a 30 7d
        E 153 8a 30 7d
        E 0 9a 33 7d
        E 230 8a 33 7d
        E 0 9a 44 7d
        E 179 8a 44 7d
        E 0 9a 30 7d
        E 102 8a 30 7d
        E 0 9a 30 7d
        E 153 8a 30 7d
        E 0 9a 33 7d
        E 230 8a 33 7d
        E 0 9a 44 7d
        E 179 8a 44 7d
        E 0 9a 30 7d
        E 102 8a 30 7d
        E 0 9a 30 7d
        E 153 8a 30 7d
        E 0 9a 33 7d
        E 230 8a 33 7d
        E 0 9a 44 7d
        E 179 8a 44 7d
        E 0 9a 30 7d
        E 102 8a 30 7d
        E 0 9a 30 7d
        E 153 8a 30 7d
        E 0 9a 33 7d
        E 230 8a 33 7d
        E 0 9a 44 7d
        E 179 8a 44 7d
        E 0 9a 30 7d
        E 102 8a 30 7d
        E 0 9a 30 7d
        E 153 8a 30 7d
        E 0 9a 33 7d
        E 230 8a 33 7d
        E 0 9a 44 7d
        E 179 8a 44 7d
        E 0 9a 30 7d
        E 102 8a 30 7d
        E 0 9a 30 7d
        E 153 8a 30 7d
        E 0 9a 33 7d
        E 230 8a 33 7d
        E 0 9a 44 7d
        E 179 8a 44 7d
        E 0 9a 30 7d
        E 102 8a 30 7d
        E 0 9a 30 7d
        E 153 8a 30 7d
        E 0 9a 33 7d
        E 230 8a 33 7d
        E 0 9a 44 7d
        E 179 8a 44 7d
        E 0 9a 30 7d
        E 102 8a 30 7d
        E 0 9a 30 7d
        E 153 8a 30 7d
        E 0 9a 33 7d
        E 230 8a 33 7d
        E 0 9a 44 7d
        E 179 8a 44 7d
        E 0 9a 30 7d
        E 102 8a 30 7d
        E 0 9a 30 7d
        E 153 8a 30 7d
        E 0 9a 33 7d
        E 230 8a 33 7d
        E 0 9a 44 7d
        E 179 8a 44 7d
        E 0 9a 30 7d
        E 102 8a 30 7d
        E 0 9a 30 7d
        E 153 8a 30 7d
        E 0 9a 33 7d
        E 230 8a 33 7d
        E 0 9a 44 7d
        E 179 8a 44 7d
        E 0 9a 30 7d
        E 102 8a 30 7d
        E 0 9a 30 7d
        E 153 8a 30 7d
        E 0 9a 33 7d
        E 230 8a 33 7d
        E 0 9a 44 7d
        E 179 8a 44 7d
        E 0 9a 30 7d
        E 102 8a 30 7d
        E 0 9a 30 7d
        E 153 8a 30 7d
        E 0 9a 33 7d
        E 230 8a 33 7d
        E 0 9a 44 7d
        E 179 8a 44 7d
        E 0 9a 30 7d
        E 102 8a 30 7d
        E 0 9a 30 7d
        E 153 8a 30 7d
        E 0 9a 33 7d
        E 230 8a 33 7d
        E 0 9a 44 7d
        E 179 8a 44 7d
        E 0 9a 30 7d
        E 102 8a 30 7d
        E 0 9a 30 7d
        E 153 8a 30 7d
        E 0 9a 33 7d
        E 230 8a 33 7d
        E 0 9a 44 7d
        E 179 8a 44 7d
        E 0 9a 30 7d
        E 102 8a 30 7d
        E 0 9a 30 7d
        E 153 8a 30 7d
        E 0 9a 33 7d
        E 230 8a 33 7d
        E 0 9a 44 7d
        E 179 8a 44 7d
        E 0 9a 30 7d
        E 102 8a 30 7d
        E 0 9a 30 7d
        E 153 8a 30 7d
        E 0 9a 33 7d
        E 230 8a 33 7d
        E 0 9a 44 7d
        E 179 8a 44 7d
        E 0 9a 30 7d
        E 102 8a 30 7d
        E 0 9a 30 7d
        E 153 8a 30 7d
        E 0 9a 33 7d
        E 230 8a 33 7d
        E 0 9a 44 7d
        E 179 8a 44 7d
        E 0 9a 30 7d
        E 102 8a 30 7d
        E 0 9a 30 7d
        E 153 8a 30 7d
        E 0 9a 33 7d
        E 230 8a 33 7d
        E 0 9a 44 7d
        E 179 8a 44 7d
        E 0 9a 30 7d
        E 102 8a 30 7d
        E 0 9a 30 7d
        E 153 8a 30 7d
        E 0 9a 33 7d
        E 230 8a 33 7d
        E 0 9a 44 7d
        E 179 8a 44 7d
        E 122 b0 7b 00
        CCINTERP 32
        CHASE_CC_TAKEOFFS 1
        GUID {F77BFBB1-361F-094F-8E51-4796C40BFDD3}
        IGNTEMPO 0 120 4 4
        SRCCOLOR 639
        VELLANE 3 156 0
        VELLANE -1 196 0
      >
    >
  >
  <TRACK {DEA7467C-B669-EC48-B94B-77E4C5B692F7}
    NAME "insects of the los angeles basin"
    PEAKCOL 16576
    BEAT -1
    AUTOMODE 0
    VOLPAN 1 0 -1 -1 1
    MUTESOLO 1 0 0
    IPHASE 0
    PLAYOFFS 0 1
    ISBUS 0 0
    BUSCOMP 0 0 0 0 0
    SHOWINMIX 1 0.6667 0.5 1 0.5 0 -1 0
    FREEMODE 0
    SEL 0
    REC 0 0 1 0 0 0 0
    VU 2
    TRACKHEIGHT 0 0 0 0 -1 0
    INQ 0 0 0 0.5 100 0 0 100
    NCHAN 2
    FX 1
    TRACKID {DEA7467C-B669-EC48-B94B-77E4C5B692F7}
    PERF 0
    MIDIOUT -1
    MAINSEND 1 0
    <FXCHAIN
      SHOW 0
      LASTSEL 0
      DOCKED 0
      BYPASS 0 0 0
      <VST "VSTi: FM8 (Native Instruments GmbH)" FM8.vst 0 "" 1315530296<5653544E696638666D38000000000000> ""
        OGZpTu5e7f4AAAAAAgAAAAEAAAAAAAAAAgAAAAAAAAAYBwAAAQAAAAAAEAA=
        GAcAAAAAAAABAAAAaHNpbgEAAAAAAAAAN455D8DDx0mHoN4j0l/0WZYAAAAAAAAARFNJTnYAAAABAAAASAAAAAAAAABEU0lOagAAAAEAAAAYAAAAAAAAAERTSU4BAAAA
        AQAAAAEAAAABAAAAAQAAAAEAAAAAAAAAAAAAAAAAAAANYmWFAQAAAAhwEAAAAAAAAQAAAAEAAAAAAAAAAAAAAAAAAAADAAAAMAAwADAAAAAAAAAAAAAAAAAAAAAAAAEA
        AAABAAAAAAAAAERTSU5lAAAARgYAAAAAAAABAAAAaHNpbgEAAAAAAAAAMOH4NwAUwEaoogAOyNUgkW0AAAAAAAAARFNJTmUAAAABAAAANAAAAAAAAABEU0lOagAAAAEA
        AAAYAAAAAAAAAERTSU4BAAAAAQAAAAEAAAABAAAAAgAAAAEAAAAACAAAAAEAAAAKAAAAMQAuADIALgAwAC4AMQAwADEAMAABAAAAAwAAAAAAAABEU0lObAAAAKgBAAAA
        AAAAAQAAAGhzaW4BAAAAAAAAACA7190CLVtKvWPIjKqbw/t4AQAAAAAAAERTSU5sAAAAAQAAABgAAAAAAAAARFNJTgEAAAABAAAAAQAAAAEAAAACAAAAAQAAAAAAAAAI
        AAAATgBlAHcAUwBvAHUAbgBkAAcAAABuAG8AdAAgAHMAZQB0AAAAAAAAAAAAAAAAAAAAAAAAAAAAAAAAAAAAAAAAAAAAAAAAAAEAAAABAAAAAQAAAAMAAABGAE0AOAAA
        AAAAAAAAAAcAAAAHAAAAXABAAGMAbwBsAG8AcgABAAAAMAARAAAAXABAAGQAZQB2AGkAYwBlAHQAeQBwAGUAZgBsAGEAZwBzAAEAAAAxAAsAAABcAEAAcwBvAHUAbgBk
        AHQAeQBwAGUAAQAAADAABwAAAFwAQAB0AGUAbQBwAG8AAQAAADAABgAAAFwAQAB2AGUAcgBsAAUAAAAxAC4ANwAuADgABgAAAFwAQAB2AGUAcgBtAAUAAAAxAC4ANwAu
        ADgABwAAAFwAQAB2AGkAcwBpAGIAAQAAADAAAQAAAAAAAAACAAAARFNJTnkAAABoAAAAAAAAAAEAAABoc2luAQAAAAAAAABG64vCmumHRIQ9Mih2ujahOAAAAAAAAABE
        U0lOeQAAAAEAAAAYAAAAAAAAAERTSU4BAAAAAQAAAAEAAAABAAAAAQAAAAAAAAABAAAAAAAAAAEAAABEU0lOdAAAAHUDAAAAAAAAAQAAAGhzaW4BAAAAAAAAAMPiDYJz
        LJxOuWtBgMMVvqRFAwAAAAAAAERTSU50AAAAAQAAACwDAAAAAAAARFNJTnMAAAABAAAAGAAAAAAAAABEU0lOAQAAAAEAAAABAAAAAQAAAAG9DwAA8wIAAAK9DwBgAAAB
        IAUDaHNpbkAHQAAQHyRrBvAZSEqYrqFXTcEPPBhAFCAAA0RTSU5AI+AHA0AAQBsAbSAIAWkPIAQgAEAj4ANTEEkCYzKs2sVGp2B2wrYRj5w5oCfAN0Av4BdnQCMB8Q4g
        XCAAAAUgAwFjDCAEIAAIdHNycEU4TUbPIAsEvCMAAAcgBwZkZWZhdWx04BgKICoAP+ACAwNBAACAIA8AoCAH4AsAAPAgF0AfwAAAICAPwABgFwVAAABIQgDgBABAD0AD
        4BcfYAAge+AEA0AAwBPgAwBAE+AAAAPNzMw+IAwDP5qZGUAXwAPgABcgCuAHG0ATQADgBwdAACATYKtAACALYANAAEALQAAg42AAwA9AB0AD4AMAwA9AB0ADwABAC8AD
        QADAC8AHQADgAwtAAEAP4AMAIA/Bn8AHAMjhDnPgHwDgAO/gDgBAX0ADwABBz8H7QAtAAwCgIINAB0AAALQgCwCWIAPgAwDAP0AHQAPAAEAz4MdLIAAAAcAAIAuAAAAC
        wACADuAdAOAALAD+4B0v4CEAABTgISrgMADBA+AKAGBTgAXgAABChuAXA+AeAOD9WSBZIkBBUgH6Q0AH4FUMQ9VAZwH6Q6BnBYA/zLyMK+BVDOABACBnBAA/ZmZmYAPg
        YwwgAABwJOwB/kJAdCAA4D4MosLgAFaAAKBjgADgOAwgYwRwwgAAhmC6JliAA0BW4EEMIGPgAE3g8AAAUCAA4Of8AP/gFwAABEERCggyAwAAQDIAAAA8QikgAwHwQmLY
        AAEgAYLiIAcgAkKVgAagCSA3oAkgSKAJKxegCQAG4AAJKwSgEyAAoAmASKAGoBPgwk/gSwAAEaBUA2tuYWJBMcAAAYAAIAAAGaARA2N0bmlMiwERJ2FcTFBAAEocAaBC
        4hMPTInAH00bwAvg/QDgvQABIACAAANzaXVnQiQA6CNxwAAAKiAIABkgAyOYYAAj0mAAB2dwdGNZVE1FQAwLDWJlhQEAAAAAAAAAAQAAAAABAAAAAAAAAA==
        ADxkaXNhYmxlZD4AEAAAAA==
      >
      PRESETNAME <disabled>
      FLOATPOS 0 0 0 0
      FXID {9FD856E4-BD90-0443-91B0-5361FBCC1428}
      WAK 0 0
    >
    <ITEM
      POSITION 66.78259200000417
      SNAPOFFS 0
      LENGTH 451.3042349999958
      LOOP 1
      ALLTAKES 0
      FADEIN 1 0 0 1 0 0
      FADEOUT 1 0 0 1 0 0
      MUTE 0 0
      SEL 0
      IGUID {EEDDB7DD-8755-274B-87B7-77B9EAFC0C82}
      IID 36
      NAME "insects of the los angeles basin.mid"
      VOLPAN 1 0 1 -1
      SOFFS 0 0
      PLAYRATE 1 1 0 -1 0 0.0025
      CHANMODE 0
      GUID {D184A799-FBB9-EA4D-9098-B40D86056ABB}
      <SOURCE MIDI
        HASDATA 1 128 QN
        CCINTERP 32
        POOLEDEVTS {15109CE2-E834-FE41-8970-400FDCAD2FA2}
        E 0 9b 44 7d
        E 128 8b 44 7d
        E 0 9b 41 7d
        E 146 8b 41 7d
        E 0 9b 43 7d
        E 0 9b 35 7d
        E 164 8b 35 7d
        E 0 9b 44 7d
        E 54 8b 44 7d
        E 0 9b 3a 7d
        E 146 8b 3a 7d
        E 0 9b 44 7d
        E 128 8b 44 7d
        E 0 9b 41 7d
        E 146 8b 41 7d
        E 0 9b 43 7d
        E 0 9b 35 7d
        E 164 8b 35 7d
        E 0 9b 44 7d
        E 54 8b 44 7d
        E 0 9b 3a 7d
        E 146 8b 3a 7d
        E 0 9b 44 7d
        E 128 8b 44 7d
        E 0 9b 41 7d
        E 146 8b 41 7d
        E 0 9b 43 7d
        E 0 9b 35 7d
        E 164 8b 35 7d
        E 0 9b 44 7d
        E 54 8b 44 7d
        E 0 9b 3a 7d
        E 146 8b 3a 7d
        E 0 9b 44 7d
        E 128 8b 44 7d
        E 0 9b 41 7d
        E 146 8b 41 7d
        E 0 9b 43 7d
        E 0 9b 35 7d
        E 164 8b 35 7d
        E 0 9b 44 7d
        E 54 8b 44 7d
        E 0 9b 3a 7d
        E 146 8b 3a 7d
        E 0 9b 44 7d
        E 128 8b 44 7d
        E 0 9b 41 7d
        E 146 8b 41 7d
        E 0 9b 43 7d
        E 0 9b 35 7d
        E 164 8b 35 7d
        E 0 9b 44 7d
        E 54 8b 44 7d
        E 0 9b 3a 7d
        E 146 8b 3a 7d
        E 0 9b 44 7d
        E 128 8b 44 7d
        E 0 9b 41 7d
        E 146 8b 41 7d
        E 0 9b 43 7d
        E 0 9b 35 7d
        E 164 8b 35 7d
        E 0 9b 44 7d
        E 54 8b 44 7d
        E 0 9b 3a 7d
        E 146 8b 3a 7d
        E 0 9b 44 7d
        E 128 8b 44 7d
        E 0 9b 41 7d
        E 146 8b 41 7d
        E 0 9b 43 7d
        E 0 9b 35 7d
        E 164 8b 35 7d
        E 0 9b 44 7d
        E 54 8b 44 7d
        E 0 9b 3a 7d
        E 146 8b 3a 7d
        E 0 9b 44 7d
        E 128 8b 44 7d
        E 0 9b 41 7d
        E 146 8b 41 7d
        E 0 9b 43 7d
        E 0 9b 35 7d
        E 164 8b 35 7d
        E 0 9b 44 7d
        E 54 8b 44 7d
        E 0 9b 3a 7d
        E 146 8b 3a 7d
        E 0 9b 44 7d
        E 128 8b 44 7d
        E 0 9b 41 7d
        E 146 8b 41 7d
        E 0 9b 43 7d
        E 0 9b 35 7d
        E 164 8b 35 7d
        E 0 9b 44 7d
        E 54 8b 44 7d
        E 0 9b 3a 7d
        E 146 8b 3a 7d
        E 0 9b 44 7d
        E 128 8b 44 7d
        E 0 9b 41 7d
        E 146 8b 41 7d
        E 0 9b 43 7d
        E 0 9b 35 7d
        E 164 8b 35 7d
        E 0 9b 44 7d
        E 54 8b 44 7d
        E 0 9b 3a 7d
        E 146 8b 3a 7d
        E 0 9b 44 7d
        E 128 8b 44 7d
        E 0 9b 41 7d
        E 146 8b 41 7d
        E 0 9b 43 7d
        E 0 9b 35 7d
        E 164 8b 35 7d
        E 0 9b 44 7d
        E 54 8b 44 7d
        E 0 9b 3a 7d
        E 146 8b 3a 7d
        E 0 9b 44 7d
        E 128 8b 44 7d
        E 0 9b 41 7d
        E 146 8b 41 7d
        E 0 9b 43 7d
        E 0 9b 35 7d
        E 164 8b 35 7d
        E 0 9b 44 7d
        E 54 8b 44 7d
        E 0 9b 3a 7d
        E 146 8b 3a 7d
        E 0 9b 44 7d
        E 128 8b 44 7d
        E 0 9b 41 7d
        E 146 8b 41 7d
        E 0 9b 43 7d
        E 0 9b 35 7d
        E 164 8b 35 7d
        E 0 9b 44 7d
        E 54 8b 44 7d
        E 0 9b 3a 7d
        E 146 8b 3a 7d
        E 0 9b 44 7d
        E 128 8b 44 7d
        E 0 9b 41 7d
        E 146 8b 41 7d
        E 0 9b 43 7d
        E 0 9b 35 7d
        E 164 8b 35 7d
        E 0 9b 44 7d
        E 54 8b 44 7d
        E 0 9b 3a 7d
        E 146 8b 3a 7d
        E 0 9b 44 7d
        E 128 8b 44 7d
        E 0 9b 41 7d
        E 146 8b 41 7d
        E 0 9b 43 7d
        E 0 9b 35 7d
        E 164 8b 35 7d
        E 0 9b 44 7d
        E 54 8b 44 7d
        E 0 9b 3a 7d
        E 146 8b 3a 7d
        E 0 9b 44 7d
        E 128 8b 44 7d
        E 0 9b 41 7d
        E 146 8b 41 7d
        E 0 9b 43 7d
        E 0 9b 35 7d
        E 164 8b 35 7d
        E 0 9b 44 7d
        E 54 8b 44 7d
        E 0 9b 3a 7d
        E 146 8b 3a 7d
        E 0 9b 44 7d
        E 128 8b 44 7d
        E 0 9b 41 7d
        E 146 8b 41 7d
        E 0 9b 43 7d
        E 0 9b 35 7d
        E 164 8b 35 7d
        E 0 9b 44 7d
        E 54 8b 44 7d
        E 0 9b 3a 7d
        E 146 8b 3a 7d
        E 0 9b 44 7d
        E 128 8b 44 7d
        E 0 9b 41 7d
        E 146 8b 41 7d
        E 0 9b 43 7d
        E 0 9b 35 7d
        E 164 8b 35 7d
        E 0 9b 44 7d
        E 54 8b 44 7d
        E 0 9b 3a 7d
        E 146 8b 3a 7d
        E 0 9b 44 7d
        E 128 8b 44 7d
        E 0 9b 41 7d
        E 146 8b 41 7d
        E 0 9b 43 7d
        E 0 9b 35 7d
        E 164 8b 35 7d
        E 0 9b 44 7d
        E 54 8b 44 7d
        E 0 9b 3a 7d
        E 146 8b 3a 7d
        E 0 9b 44 7d
        E 128 8b 44 7d
        E 0 9b 41 7d
        E 146 8b 41 7d
        E 0 9b 43 7d
        E 0 9b 35 7d
        E 164 8b 35 7d
        E 0 9b 44 7d
        E 54 8b 44 7d
        E 0 9b 3a 7d
        E 146 8b 3a 7d
        E 0 9b 44 7d
        E 128 8b 44 7d
        E 0 9b 41 7d
        E 146 8b 41 7d
        E 0 9b 43 7d
        E 0 9b 35 7d
        E 164 8b 35 7d
        E 0 9b 44 7d
        E 54 8b 44 7d
        E 0 9b 3a 7d
        E 146 8b 3a 7d
        E 0 9b 44 7d
        E 128 8b 44 7d
        E 0 9b 41 7d
        E 146 8b 41 7d
        E 0 9b 43 7d
        E 0 9b 35 7d
        E 164 8b 35 7d
        E 0 9b 44 7d
        E 54 8b 44 7d
        E 0 9b 3a 7d
        E 146 8b 3a 7d
        E 0 9b 44 7d
        E 128 8b 44 7d
        E 0 9b 41 7d
        E 146 8b 41 7d
        E 0 9b 43 7d
        E 0 9b 35 7d
        E 164 8b 35 7d
        E 0 9b 44 7d
        E 54 8b 44 7d
        E 0 9b 3a 7d
        E 146 8b 3a 7d
        E 0 9b 44 7d
        E 128 8b 44 7d
        E 0 9b 41 7d
        E 146 8b 41 7d
        E 0 9b 43 7d
        E 0 9b 35 7d
        E 164 8b 35 7d
        E 0 9b 44 7d
        E 54 8b 44 7d
        E 0 9b 3a 7d
        E 146 8b 3a 7d
        E 0 9b 44 7d
        E 128 8b 44 7d
        E 0 9b 41 7d
        E 146 8b 41 7d
        E 0 9b 43 7d
        E 0 9b 35 7d
        E 164 8b 35 7d
        E 0 9b 44 7d
        E 54 8b 44 7d
        E 0 9b 3a 7d
        E 146 8b 3a 7d
        E 0 9b 44 7d
        E 128 8b 44 7d
        E 0 9b 41 7d
        E 146 8b 41 7d
        E 0 9b 43 7d
        E 0 9b 35 7d
        E 164 8b 35 7d
        E 0 9b 44 7d
        E 54 8b 44 7d
        E 0 9b 3a 7d
        E 146 8b 3a 7d
        E 0 9b 44 7d
        E 128 8b 44 7d
        E 0 9b 41 7d
        E 146 8b 41 7d
        E 0 9b 43 7d
        E 0 9b 35 7d
        E 164 8b 35 7d
        E 0 9b 44 7d
        E 54 8b 44 7d
        E 0 9b 3a 7d
        E 146 8b 3a 7d
        E 0 9b 44 7d
        E 128 8b 44 7d
        E 0 9b 41 7d
        E 146 8b 41 7d
        E 0 9b 43 7d
        E 0 9b 35 7d
        E 164 8b 35 7d
        E 0 9b 44 7d
        E 54 8b 44 7d
        E 0 9b 3a 7d
        E 146 8b 3a 7d
        E 0 9b 44 7d
        E 128 8b 44 7d
        E 0 9b 41 7d
        E 146 8b 41 7d
        E 0 9b 43 7d
        E 0 9b 35 7d
        E 164 8b 35 7d
        E 0 9b 44 7d
        E 54 8b 44 7d
        E 0 9b 3a 7d
        E 146 8b 3a 7d
        E 0 9b 44 7d
        E 128 8b 44 7d
        E 0 9b 41 7d
        E 146 8b 41 7d
        E 0 9b 43 7d
        E 0 9b 35 7d
        E 164 8b 35 7d
        E 0 9b 44 7d
        E 54 8b 44 7d
        E 0 9b 3a 7d
        E 146 8b 3a 7d
        E 0 9b 44 7d
        E 128 8b 44 7d
        E 0 9b 41 7d
        E 146 8b 41 7d
        E 0 9b 43 7d
        E 0 9b 35 7d
        E 164 8b 35 7d
        E 0 9b 44 7d
        E 54 8b 44 7d
        E 0 9b 3a 7d
        E 146 8b 3a 7d
        E 0 9b 44 7d
        E 128 8b 44 7d
        E 0 9b 41 7d
        E 146 8b 41 7d
        E 0 9b 43 7d
        E 0 9b 35 7d
        E 164 8b 35 7d
        E 0 9b 44 7d
        E 54 8b 44 7d
        E 0 9b 3a 7d
        E 146 8b 3a 7d
        E 0 9b 44 7d
        E 128 8b 44 7d
        E 0 9b 41 7d
        E 146 8b 41 7d
        E 0 9b 43 7d
        E 0 9b 35 7d
        E 164 8b 35 7d
        E 0 9b 44 7d
        E 54 8b 44 7d
        E 0 9b 3a 7d
        E 146 8b 3a 7d
        E 0 9b 44 7d
        E 128 8b 44 7d
        E 0 9b 41 7d
        E 146 8b 41 7d
        E 0 9b 43 7d
        E 0 9b 35 7d
        E 164 8b 35 7d
        E 0 9b 44 7d
        E 54 8b 44 7d
        E 0 9b 3a 7d
        E 146 8b 3a 7d
        E 0 9b 44 7d
        E 128 8b 44 7d
        E 0 9b 41 7d
        E 146 8b 41 7d
        E 0 9b 43 7d
        E 0 9b 35 7d
        E 164 8b 35 7d
        E 0 9b 44 7d
        E 54 8b 44 7d
        E 0 9b 3a 7d
        E 146 8b 3a 7d
        E 0 9b 44 7d
        E 128 8b 44 7d
        E 0 9b 41 7d
        E 146 8b 41 7d
        E 0 9b 43 7d
        E 0 9b 35 7d
        E 164 8b 35 7d
        E 0 9b 44 7d
        E 54 8b 44 7d
        E 0 9b 3a 7d
        E 146 8b 3a 7d
        E 0 9b 44 7d
        E 128 8b 44 7d
        E 0 9b 41 7d
        E 146 8b 41 7d
        E 0 9b 43 7d
        E 0 9b 35 7d
        E 164 8b 35 7d
        E 0 9b 44 7d
        E 54 8b 44 7d
        E 0 9b 3a 7d
        E 146 8b 3a 7d
        E 0 9b 44 7d
        E 128 8b 44 7d
        E 0 9b 41 7d
        E 146 8b 41 7d
        E 0 9b 43 7d
        E 0 9b 35 7d
        E 164 8b 35 7d
        E 0 9b 44 7d
        E 54 8b 44 7d
        E 0 9b 3a 7d
        E 146 8b 3a 7d
        E 0 9b 44 7d
        E 128 8b 44 7d
        E 0 9b 41 7d
        E 146 8b 41 7d
        E 0 9b 43 7d
        E 0 9b 35 7d
        E 164 8b 35 7d
        E 0 9b 44 7d
        E 54 8b 44 7d
        E 0 9b 3a 7d
        E 146 8b 3a 7d
        E 0 9b 44 7d
        E 128 8b 44 7d
        E 0 9b 41 7d
        E 146 8b 41 7d
        E 0 9b 43 7d
        E 0 9b 35 7d
        E 164 8b 35 7d
        E 0 9b 44 7d
        E 54 8b 44 7d
        E 0 9b 3a 7d
        E 146 8b 3a 7d
        E 0 9b 44 7d
        E 128 8b 44 7d
        E 0 9b 41 7d
        E 146 8b 41 7d
        E 0 9b 43 7d
        E 0 9b 35 7d
        E 164 8b 35 7d
        E 0 9b 44 7d
        E 54 8b 44 7d
        E 0 9b 3a 7d
        E 146 8b 3a 7d
        E 0 9b 44 7d
        E 128 8b 44 7d
        E 0 9b 41 7d
        E 146 8b 41 7d
        E 0 9b 43 7d
        E 0 9b 35 7d
        E 164 8b 35 7d
        E 0 9b 44 7d
        E 54 8b 44 7d
        E 0 9b 3a 7d
        E 146 8b 3a 7d
        E 0 9b 44 7d
        E 128 8b 44 7d
        E 0 9b 41 7d
        E 146 8b 41 7d
        E 0 9b 43 7d
        E 0 9b 35 7d
        E 164 8b 35 7d
        E 0 9b 44 7d
        E 54 8b 44 7d
        E 0 9b 3a 7d
        E 146 8b 3a 7d
        E 0 9b 44 7d
        E 128 8b 44 7d
        E 0 9b 41 7d
        E 146 8b 41 7d
        E 0 9b 43 7d
        E 0 9b 35 7d
        E 164 8b 35 7d
        E 0 9b 44 7d
        E 54 8b 44 7d
        E 0 9b 3a 7d
        E 146 8b 3a 7d
        E 0 9b 44 7d
        E 128 8b 44 7d
        E 0 9b 41 7d
        E 146 8b 41 7d
        E 0 9b 43 7d
        E 0 9b 35 7d
        E 164 8b 35 7d
        E 0 9b 44 7d
        E 54 8b 44 7d
        E 0 9b 3a 7d
        E 146 8b 3a 7d
        E 0 9b 44 7d
        E 128 8b 44 7d
        E 0 9b 41 7d
        E 146 8b 41 7d
        E 0 9b 43 7d
        E 0 9b 35 7d
        E 164 8b 35 7d
        E 0 9b 44 7d
        E 54 8b 44 7d
        E 0 9b 3a 7d
        E 146 8b 3a 7d
        E 0 9b 44 7d
        E 128 8b 44 7d
        E 0 9b 41 7d
        E 146 8b 41 7d
        E 0 9b 43 7d
        E 0 9b 35 7d
        E 164 8b 35 7d
        E 0 9b 44 7d
        E 54 8b 44 7d
        E 0 9b 3a 7d
        E 146 8b 3a 7d
        E 0 9b 44 7d
        E 128 8b 44 7d
        E 0 9b 41 7d
        E 146 8b 41 7d
        E 0 9b 43 7d
        E 0 9b 35 7d
        E 164 8b 35 7d
        E 0 9b 44 7d
        E 54 8b 44 7d
        E 0 9b 3a 7d
        E 146 8b 3a 7d
        E 0 9b 44 7d
        E 128 8b 44 7d
        E 0 9b 41 7d
        E 146 8b 41 7d
        E 0 9b 43 7d
        E 0 9b 35 7d
        E 164 8b 35 7d
        E 0 9b 44 7d
        E 54 8b 44 7d
        E 0 9b 3a 7d
        E 146 8b 3a 7d
        E 0 9b 30 7d
        E 73 8b 30 7d
        E 0 9b 30 7d
        E 109 8b 30 7d
        E 0 9b 33 7d
        E 164 8b 33 7d
        E 0 9b 44 7d
        E 128 8b 44 7d
        E 0 9b 30 7d
        E 73 8b 30 7d
        E 0 9b 30 7d
        E 109 8b 30 7d
        E 0 9b 33 7d
        E 164 8b 33 7d
        E 0 9b 44 7d
        E 128 8b 44 7d
        E 0 9b 30 7d
        E 73 8b 30 7d
        E 0 9b 30 7d
        E 109 8b 30 7d
        E 0 9b 33 7d
        E 164 8b 33 7d
        E 0 9b 44 7d
        E 128 8b 44 7d
        E 0 9b 30 7d
        E 73 8b 30 7d
        E 0 9b 30 7d
        E 109 8b 30 7d
        E 0 9b 33 7d
        E 164 8b 33 7d
        E 0 9b 44 7d
        E 128 8b 44 7d
        E 0 9b 30 7d
        E 73 8b 30 7d
        E 0 9b 30 7d
        E 109 8b 30 7d
        E 0 9b 33 7d
        E 164 8b 33 7d
        E 0 9b 44 7d
        E 128 8b 44 7d
        E 0 9b 30 7d
        E 73 8b 30 7d
        E 0 9b 30 7d
        E 109 8b 30 7d
        E 0 9b 33 7d
        E 164 8b 33 7d
        E 0 9b 44 7d
        E 128 8b 44 7d
        E 0 9b 30 7d
        E 73 8b 30 7d
        E 0 9b 30 7d
        E 109 8b 30 7d
        E 0 9b 33 7d
        E 164 8b 33 7d
        E 0 9b 44 7d
        E 128 8b 44 7d
        E 0 9b 30 7d
        E 73 8b 30 7d
        E 0 9b 30 7d
        E 109 8b 30 7d
        E 0 9b 33 7d
        E 164 8b 33 7d
        E 0 9b 44 7d
        E 128 8b 44 7d
        E 0 9b 30 7d
        E 73 8b 30 7d
        E 0 9b 30 7d
        E 109 8b 30 7d
        E 0 9b 33 7d
        E 164 8b 33 7d
        E 0 9b 44 7d
        E 128 8b 44 7d
        E 0 9b 30 7d
        E 73 8b 30 7d
        E 0 9b 30 7d
        E 109 8b 30 7d
        E 0 9b 33 7d
        E 164 8b 33 7d
        E 0 9b 44 7d
        E 128 8b 44 7d
        E 0 9b 30 7d
        E 73 8b 30 7d
        E 0 9b 30 7d
        E 109 8b 30 7d
        E 0 9b 33 7d
        E 164 8b 33 7d
        E 0 9b 44 7d
        E 128 8b 44 7d
        E 0 9b 30 7d
        E 73 8b 30 7d
        E 0 9b 30 7d
        E 109 8b 30 7d
        E 0 9b 33 7d
        E 164 8b 33 7d
        E 0 9b 44 7d
        E 128 8b 44 7d
        E 0 9b 30 7d
        E 73 8b 30 7d
        E 0 9b 30 7d
        E 109 8b 30 7d
        E 0 9b 33 7d
        E 164 8b 33 7d
        E 0 9b 44 7d
        E 128 8b 44 7d
        E 0 9b 30 7d
        E 73 8b 30 7d
        E 0 9b 30 7d
        E 109 8b 30 7d
        E 0 9b 33 7d
        E 164 8b 33 7d
        E 0 9b 44 7d
        E 128 8b 44 7d
        E 0 9b 30 7d
        E 73 8b 30 7d
        E 0 9b 30 7d
        E 109 8b 30 7d
        E 0 9b 33 7d
        E 164 8b 33 7d
        E 0 9b 44 7d
        E 128 8b 44 7d
        E 0 9b 30 7d
        E 73 8b 30 7d
        E 0 9b 30 7d
        E 109 8b 30 7d
        E 0 9b 33 7d
        E 164 8b 33 7d
        E 0 9b 44 7d
        E 128 8b 44 7d
        E 0 9b 30 7d
        E 73 8b 30 7d
        E 0 9b 30 7d
        E 109 8b 30 7d
        E 0 9b 33 7d
        E 164 8b 33 7d
        E 0 9b 44 7d
        E 128 8b 44 7d
        E 0 9b 30 7d
        E 73 8b 30 7d
        E 0 9b 30 7d
        E 109 8b 30 7d
        E 0 9b 33 7d
        E 164 8b 33 7d
        E 0 9b 44 7d
        E 128 8b 44 7d
        E 0 9b 30 7d
        E 73 8b 30 7d
        E 0 9b 30 7d
        E 109 8b 30 7d
        E 0 9b 33 7d
        E 164 8b 33 7d
        E 0 9b 44 7d
        E 128 8b 44 7d
        E 0 9b 30 7d
        E 73 8b 30 7d
        E 0 9b 30 7d
        E 109 8b 30 7d
        E 0 9b 33 7d
        E 164 8b 33 7d
        E 0 9b 44 7d
        E 128 8b 44 7d
        E 0 9b 30 7d
        E 73 8b 30 7d
        E 0 9b 30 7d
        E 109 8b 30 7d
        E 0 9b 33 7d
        E 164 8b 33 7d
        E 0 9b 44 7d
        E 128 8b 44 7d
        E 0 9b 30 7d
        E 73 8b 30 7d
        E 0 9b 30 7d
        E 109 8b 30 7d
        E 0 9b 33 7d
        E 164 8b 33 7d
        E 0 9b 44 7d
        E 128 8b 44 7d
        E 0 9b 30 7d
        E 73 8b 30 7d
        E 0 9b 30 7d
        E 109 8b 30 7d
        E 0 9b 33 7d
        E 164 8b 33 7d
        E 0 9b 44 7d
        E 128 8b 44 7d
        E 0 9b 30 7d
        E 73 8b 30 7d
        E 0 9b 30 7d
        E 109 8b 30 7d
        E 0 9b 33 7d
        E 164 8b 33 7d
        E 0 9b 44 7d
        E 128 8b 44 7d
        E 0 9b 30 7d
        E 73 8b 30 7d
        E 0 9b 30 7d
        E 109 8b 30 7d
        E 0 9b 33 7d
        E 164 8b 33 7d
        E 0 9b 44 7d
        E 128 8b 44 7d
        E 0 9b 30 7d
        E 73 8b 30 7d
        E 0 9b 30 7d
        E 109 8b 30 7d
        E 0 9b 33 7d
        E 164 8b 33 7d
        E 0 9b 44 7d
        E 128 8b 44 7d
        E 0 9b 30 7d
        E 73 8b 30 7d
        E 0 9b 30 7d
        E 109 8b 30 7d
        E 0 9b 33 7d
        E 164 8b 33 7d
        E 0 9b 44 7d
        E 128 8b 44 7d
        E 0 9b 30 7d
        E 73 8b 30 7d
        E 0 9b 30 7d
        E 109 8b 30 7d
        E 0 9b 33 7d
        E 164 8b 33 7d
        E 0 9b 44 7d
        E 128 8b 44 7d
        E 0 9b 30 7d
        E 73 8b 30 7d
        E 0 9b 30 7d
        E 109 8b 30 7d
        E 0 9b 33 7d
        E 164 8b 33 7d
        E 0 9b 44 7d
        E 128 8b 44 7d
        E 0 9b 30 7d
        E 73 8b 30 7d
        E 0 9b 30 7d
        E 109 8b 30 7d
        E 0 9b 33 7d
        E 164 8b 33 7d
        E 0 9b 44 7d
        E 128 8b 44 7d
        E 0 9b 30 7d
        E 73 8b 30 7d
        E 0 9b 30 7d
        E 109 8b 30 7d
        E 0 9b 33 7d
        E 164 8b 33 7d
        E 0 9b 44 7d
        E 128 8b 44 7d
        E 0 9b 30 7d
        E 73 8b 30 7d
        E 0 9b 30 7d
        E 109 8b 30 7d
        E 0 9b 33 7d
        E 164 8b 33 7d
        E 0 9b 44 7d
        E 128 8b 44 7d
        E 0 9b 30 7d
        E 73 8b 30 7d
        E 0 9b 30 7d
        E 109 8b 30 7d
        E 0 9b 33 7d
        E 164 8b 33 7d
        E 0 9b 44 7d
        E 128 8b 44 7d
        E 0 9b 30 7d
        E 73 8b 30 7d
        E 0 9b 30 7d
        E 109 8b 30 7d
        E 0 9b 33 7d
        E 164 8b 33 7d
        E 0 9b 44 7d
        E 128 8b 44 7d
        E 0 9b 30 7d
        E 73 8b 30 7d
        E 0 9b 30 7d
        E 109 8b 30 7d
        E 0 9b 33 7d
        E 164 8b 33 7d
        E 0 9b 44 7d
        E 128 8b 44 7d
        E 0 9b 30 7d
        E 73 8b 30 7d
        E 0 9b 30 7d
        E 109 8b 30 7d
        E 0 9b 33 7d
        E 164 8b 33 7d
        E 0 9b 44 7d
        E 128 8b 44 7d
        E 0 9b 30 7d
        E 73 8b 30 7d
        E 0 9b 30 7d
        E 109 8b 30 7d
        E 0 9b 33 7d
        E 164 8b 33 7d
        E 0 9b 44 7d
        E 128 8b 44 7d
        E 0 9b 30 7d
        E 73 8b 30 7d
        E 0 9b 30 7d
        E 109 8b 30 7d
        E 0 9b 33 7d
        E 164 8b 33 7d
        E 0 9b 44 7d
        E 128 8b 44 7d
        E 0 9b 30 7d
        E 73 8b 30 7d
        E 0 9b 30 7d
        E 109 8b 30 7d
        E 0 9b 33 7d
        E 164 8b 33 7d
        E 0 9b 44 7d
        E 128 8b 44 7d
        E 0 9b 30 7d
        E 73 8b 30 7d
        E 0 9b 30 7d
        E 109 8b 30 7d
        E 0 9b 33 7d
        E 164 8b 33 7d
        E 0 9b 44 7d
        E 128 8b 44 7d
        E 0 9b 30 7d
        E 73 8b 30 7d
        E 0 9b 30 7d
        E 109 8b 30 7d
        E 0 9b 33 7d
        E 164 8b 33 7d
        E 0 9b 44 7d
        E 128 8b 44 7d
        E 0 9b 30 7d
        E 73 8b 30 7d
        E 0 9b 30 7d
        E 109 8b 30 7d
        E 0 9b 33 7d
        E 164 8b 33 7d
        E 0 9b 44 7d
        E 128 8b 44 7d
        E 0 9b 30 7d
        E 73 8b 30 7d
        E 0 9b 30 7d
        E 109 8b 30 7d
        E 0 9b 33 7d
        E 164 8b 33 7d
        E 0 9b 44 7d
        E 128 8b 44 7d
        E 0 9b 30 7d
        E 73 8b 30 7d
        E 0 9b 30 7d
        E 109 8b 30 7d
        E 0 9b 33 7d
        E 164 8b 33 7d
        E 0 9b 44 7d
        E 128 8b 44 7d
        E 0 9b 30 7d
        E 73 8b 30 7d
        E 0 9b 30 7d
        E 109 8b 30 7d
        E 0 9b 33 7d
        E 164 8b 33 7d
        E 0 9b 44 7d
        E 128 8b 44 7d
        E 0 9b 30 7d
        E 73 8b 30 7d
        E 0 9b 30 7d
        E 109 8b 30 7d
        E 0 9b 33 7d
        E 164 8b 33 7d
        E 0 9b 44 7d
        E 128 8b 44 7d
        E 0 9b 30 7d
        E 73 8b 30 7d
        E 0 9b 30 7d
        E 109 8b 30 7d
        E 0 9b 33 7d
        E 164 8b 33 7d
        E 0 9b 44 7d
        E 128 8b 44 7d
        E 0 9b 30 7d
        E 73 8b 30 7d
        E 0 9b 30 7d
        E 109 8b 30 7d
        E 0 9b 33 7d
        E 164 8b 33 7d
        E 0 9b 44 7d
        E 128 8b 44 7d
        E 0 9b 30 7d
        E 73 8b 30 7d
        E 0 9b 30 7d
        E 109 8b 30 7d
        E 0 9b 33 7d
        E 164 8b 33 7d
        E 0 9b 44 7d
        E 128 8b 44 7d
        E 0 9b 30 7d
        E 73 8b 30 7d
        E 0 9b 30 7d
        E 109 8b 30 7d
        E 0 9b 33 7d
        E 164 8b 33 7d
        E 0 9b 44 7d
        E 128 8b 44 7d
        E 0 9b 30 7d
        E 73 8b 30 7d
        E 0 9b 30 7d
        E 109 8b 30 7d
        E 0 9b 33 7d
        E 164 8b 33 7d
        E 0 9b 44 7d
        E 128 8b 44 7d
        E 0 9b 30 7d
        E 73 8b 30 7d
        E 0 9b 30 7d
        E 109 8b 30 7d
        E 0 9b 33 7d
        E 164 8b 33 7d
        E 0 9b 44 7d
        E 128 8b 44 7d
        E 0 9b 30 7d
        E 73 8b 30 7d
        E 0 9b 30 7d
        E 109 8b 30 7d
        E 0 9b 33 7d
        E 164 8b 33 7d
        E 0 9b 44 7d
        E 128 8b 44 7d
        E 0 9b 30 7d
        E 73 8b 30 7d
        E 0 9b 30 7d
        E 109 8b 30 7d
        E 0 9b 33 7d
        E 164 8b 33 7d
        E 0 9b 44 7d
        E 128 8b 44 7d
        E 0 9b 30 7d
        E 73 8b 30 7d
        E 0 9b 30 7d
        E 109 8b 30 7d
        E 0 9b 33 7d
        E 164 8b 33 7d
        E 0 9b 44 7d
        E 128 8b 44 7d
        E 0 9b 30 7d
        E 73 8b 30 7d
        E 0 9b 30 7d
        E 109 8b 30 7d
        E 0 9b 33 7d
        E 164 8b 33 7d
        E 0 9b 44 7d
        E 128 8b 44 7d
        E 0 9b 41 7d
        E 146 8b 41 7d
        E 0 9b 43 7d
        E 0 9b 35 7d
        E 164 8b 35 7d
        E 0 9b 44 7d
        E 54 8b 44 7d
        E 0 9b 3a 7d
        E 146 8b 3a 7d
        E 0 9b 43 7d
        E 109 8b 43 7d
        E 0 9b 33 7d
        E 73 8b 33 7d
        E 0 9b 30 7d
        E 73 8b 30 7d
        E 0 9b 30 7d
        E 73 8b 30 7d
        E 0 9b 41 7d
        E 146 8b 41 7d
        E 0 9b 43 7d
        E 0 9b 35 7d
        E 164 8b 35 7d
        E 0 9b 44 7d
        E 54 8b 44 7d
        E 0 9b 3a 7d
        E 146 8b 3a 7d
        E 0 9b 43 7d
        E 109 8b 43 7d
        E 0 9b 33 7d
        E 73 8b 33 7d
        E 0 9b 30 7d
        E 73 8b 30 7d
        E 0 9b 30 7d
        E 73 8b 30 7d
        E 0 9b 41 7d
        E 146 8b 41 7d
        E 0 9b 43 7d
        E 0 9b 35 7d
        E 164 8b 35 7d
        E 0 9b 44 7d
        E 54 8b 44 7d
        E 0 9b 3a 7d
        E 146 8b 3a 7d
        E 0 9b 43 7d
        E 109 8b 43 7d
        E 0 9b 33 7d
        E 73 8b 33 7d
        E 0 9b 30 7d
        E 73 8b 30 7d
        E 0 9b 30 7d
        E 73 8b 30 7d
        E 0 9b 41 7d
        E 146 8b 41 7d
        E 0 9b 43 7d
        E 0 9b 35 7d
        E 164 8b 35 7d
        E 0 9b 44 7d
        E 54 8b 44 7d
        E 0 9b 3a 7d
        E 146 8b 3a 7d
        E 0 9b 43 7d
        E 109 8b 43 7d
        E 0 9b 33 7d
        E 73 8b 33 7d
        E 0 9b 30 7d
        E 73 8b 30 7d
        E 0 9b 30 7d
        E 73 8b 30 7d
        E 0 9b 41 7d
        E 146 8b 41 7d
        E 0 9b 43 7d
        E 0 9b 35 7d
        E 164 8b 35 7d
        E 0 9b 44 7d
        E 54 8b 44 7d
        E 0 9b 3a 7d
        E 146 8b 3a 7d
        E 0 9b 43 7d
        E 109 8b 43 7d
        E 0 9b 33 7d
        E 73 8b 33 7d
        E 0 9b 30 7d
        E 73 8b 30 7d
        E 0 9b 30 7d
        E 73 8b 30 7d
        E 0 9b 41 7d
        E 146 8b 41 7d
        E 0 9b 43 7d
        E 0 9b 35 7d
        E 164 8b 35 7d
        E 0 9b 44 7d
        E 54 8b 44 7d
        E 0 9b 3a 7d
        E 146 8b 3a 7d
        E 0 9b 43 7d
        E 109 8b 43 7d
        E 0 9b 33 7d
        E 73 8b 33 7d
        E 0 9b 30 7d
        E 73 8b 30 7d
        E 0 9b 30 7d
        E 73 8b 30 7d
        E 0 9b 41 7d
        E 146 8b 41 7d
        E 0 9b 43 7d
        E 0 9b 35 7d
        E 164 8b 35 7d
        E 0 9b 44 7d
        E 54 8b 44 7d
        E 0 9b 3a 7d
        E 146 8b 3a 7d
        E 0 9b 43 7d
        E 109 8b 43 7d
        E 0 9b 33 7d
        E 73 8b 33 7d
        E 0 9b 30 7d
        E 73 8b 30 7d
        E 0 9b 30 7d
        E 73 8b 30 7d
        E 0 9b 41 7d
        E 146 8b 41 7d
        E 0 9b 43 7d
        E 0 9b 35 7d
        E 164 8b 35 7d
        E 0 9b 44 7d
        E 54 8b 44 7d
        E 0 9b 3a 7d
        E 146 8b 3a 7d
        E 0 9b 43 7d
        E 109 8b 43 7d
        E 0 9b 33 7d
        E 73 8b 33 7d
        E 0 9b 30 7d
        E 73 8b 30 7d
        E 0 9b 30 7d
        E 73 8b 30 7d
        E 0 9b 41 7d
        E 146 8b 41 7d
        E 0 9b 43 7d
        E 0 9b 35 7d
        E 164 8b 35 7d
        E 0 9b 44 7d
        E 54 8b 44 7d
        E 0 9b 3a 7d
        E 146 8b 3a 7d
        E 0 9b 43 7d
        E 109 8b 43 7d
        E 0 9b 33 7d
        E 73 8b 33 7d
        E 0 9b 30 7d
        E 73 8b 30 7d
        E 0 9b 30 7d
        E 73 8b 30 7d
        E 0 9b 41 7d
        E 146 8b 41 7d
        E 0 9b 43 7d
        E 0 9b 35 7d
        E 164 8b 35 7d
        E 0 9b 44 7d
        E 54 8b 44 7d
        E 0 9b 3a 7d
        E 146 8b 3a 7d
        E 0 9b 43 7d
        E 109 8b 43 7d
        E 0 9b 33 7d
        E 73 8b 33 7d
        E 0 9b 30 7d
        E 73 8b 30 7d
        E 0 9b 30 7d
        E 73 8b 30 7d
        E 0 9b 41 7d
        E 146 8b 41 7d
        E 0 9b 43 7d
        E 0 9b 35 7d
        E 164 8b 35 7d
        E 0 9b 44 7d
        E 54 8b 44 7d
        E 0 9b 3a 7d
        E 146 8b 3a 7d
        E 0 9b 43 7d
        E 109 8b 43 7d
        E 0 9b 33 7d
        E 73 8b 33 7d
        E 0 9b 30 7d
        E 73 8b 30 7d
        E 0 9b 30 7d
        E 73 8b 30 7d
        E 0 9b 41 7d
        E 146 8b 41 7d
        E 0 9b 43 7d
        E 0 9b 35 7d
        E 164 8b 35 7d
        E 0 9b 44 7d
        E 54 8b 44 7d
        E 0 9b 3a 7d
        E 146 8b 3a 7d
        E 0 9b 43 7d
        E 109 8b 43 7d
        E 0 9b 33 7d
        E 73 8b 33 7d
        E 0 9b 30 7d
        E 73 8b 30 7d
        E 0 9b 30 7d
        E 73 8b 30 7d
        E 0 9b 41 7d
        E 146 8b 41 7d
        E 0 9b 43 7d
        E 0 9b 35 7d
        E 164 8b 35 7d
        E 0 9b 44 7d
        E 54 8b 44 7d
        E 0 9b 3a 7d
        E 146 8b 3a 7d
        E 0 9b 43 7d
        E 109 8b 43 7d
        E 0 9b 33 7d
        E 73 8b 33 7d
        E 0 9b 30 7d
        E 73 8b 30 7d
        E 0 9b 30 7d
        E 73 8b 30 7d
        E 0 9b 41 7d
        E 146 8b 41 7d
        E 0 9b 43 7d
        E 0 9b 35 7d
        E 164 8b 35 7d
        E 0 9b 44 7d
        E 54 8b 44 7d
        E 0 9b 3a 7d
        E 146 8b 3a 7d
        E 0 9b 43 7d
        E 109 8b 43 7d
        E 0 9b 33 7d
        E 73 8b 33 7d
        E 0 9b 30 7d
        E 73 8b 30 7d
        E 0 9b 30 7d
        E 73 8b 30 7d
        E 0 9b 41 7d
        E 146 8b 41 7d
        E 0 9b 43 7d
        E 0 9b 35 7d
        E 164 8b 35 7d
        E 0 9b 44 7d
        E 54 8b 44 7d
        E 0 9b 3a 7d
        E 146 8b 3a 7d
        E 0 9b 43 7d
        E 109 8b 43 7d
        E 0 9b 33 7d
        E 73 8b 33 7d
        E 0 9b 30 7d
        E 73 8b 30 7d
        E 0 9b 30 7d
        E 73 8b 30 7d
        E 0 9b 41 7d
        E 146 8b 41 7d
        E 0 9b 43 7d
        E 0 9b 35 7d
        E 164 8b 35 7d
        E 0 9b 44 7d
        E 54 8b 44 7d
        E 0 9b 3a 7d
        E 146 8b 3a 7d
        E 0 9b 43 7d
        E 109 8b 43 7d
        E 0 9b 33 7d
        E 73 8b 33 7d
        E 0 9b 30 7d
        E 73 8b 30 7d
        E 0 9b 30 7d
        E 73 8b 30 7d
        E 0 9b 41 7d
        E 146 8b 41 7d
        E 0 9b 43 7d
        E 0 9b 35 7d
        E 164 8b 35 7d
        E 0 9b 44 7d
        E 54 8b 44 7d
        E 0 9b 3a 7d
        E 146 8b 3a 7d
        E 0 9b 43 7d
        E 109 8b 43 7d
        E 0 9b 33 7d
        E 73 8b 33 7d
        E 0 9b 30 7d
        E 73 8b 30 7d
        E 0 9b 30 7d
        E 73 8b 30 7d
        E 0 9b 41 7d
        E 146 8b 41 7d
        E 0 9b 43 7d
        E 0 9b 35 7d
        E 164 8b 35 7d
        E 0 9b 44 7d
        E 54 8b 44 7d
        E 0 9b 3a 7d
        E 146 8b 3a 7d
        E 0 9b 43 7d
        E 109 8b 43 7d
        E 0 9b 33 7d
        E 73 8b 33 7d
        E 0 9b 30 7d
        E 73 8b 30 7d
        E 0 9b 30 7d
        E 73 8b 30 7d
        E 0 9b 41 7d
        E 146 8b 41 7d
        E 0 9b 43 7d
        E 0 9b 35 7d
        E 164 8b 35 7d
        E 0 9b 44 7d
        E 54 8b 44 7d
        E 0 9b 3a 7d
        E 146 8b 3a 7d
        E 0 9b 43 7d
        E 109 8b 43 7d
        E 0 9b 33 7d
        E 73 8b 33 7d
        E 0 9b 30 7d
        E 73 8b 30 7d
        E 0 9b 30 7d
        E 73 8b 30 7d
        E 0 9b 41 7d
        E 146 8b 41 7d
        E 0 9b 43 7d
        E 0 9b 35 7d
        E 164 8b 35 7d
        E 0 9b 44 7d
        E 54 8b 44 7d
        E 0 9b 3a 7d
        E 146 8b 3a 7d
        E 0 9b 43 7d
        E 109 8b 43 7d
        E 0 9b 33 7d
        E 73 8b 33 7d
        E 0 9b 30 7d
        E 73 8b 30 7d
        E 0 9b 30 7d
        E 73 8b 30 7d
        E 0 9b 41 7d
        E 146 8b 41 7d
        E 0 9b 43 7d
        E 0 9b 35 7d
        E 164 8b 35 7d
        E 0 9b 44 7d
        E 54 8b 44 7d
        E 0 9b 3a 7d
        E 146 8b 3a 7d
        E 0 9b 43 7d
        E 109 8b 43 7d
        E 0 9b 33 7d
        E 73 8b 33 7d
        E 0 9b 30 7d
        E 73 8b 30 7d
        E 0 9b 30 7d
        E 73 8b 30 7d
        E 0 9b 41 7d
        E 146 8b 41 7d
        E 0 9b 43 7d
        E 0 9b 35 7d
        E 164 8b 35 7d
        E 0 9b 44 7d
        E 54 8b 44 7d
        E 0 9b 3a 7d
        E 146 8b 3a 7d
        E 0 9b 43 7d
        E 109 8b 43 7d
        E 0 9b 33 7d
        E 73 8b 33 7d
        E 0 9b 30 7d
        E 73 8b 30 7d
        E 0 9b 30 7d
        E 73 8b 30 7d
        E 0 9b 41 7d
        E 146 8b 41 7d
        E 0 9b 43 7d
        E 0 9b 35 7d
        E 164 8b 35 7d
        E 0 9b 44 7d
        E 54 8b 44 7d
        E 0 9b 3a 7d
        E 146 8b 3a 7d
        E 0 9b 43 7d
        E 109 8b 43 7d
        E 0 9b 33 7d
        E 73 8b 33 7d
        E 0 9b 30 7d
        E 73 8b 30 7d
        E 0 9b 30 7d
        E 73 8b 30 7d
        E 0 9b 41 7d
        E 146 8b 41 7d
        E 0 9b 43 7d
        E 0 9b 35 7d
        E 164 8b 35 7d
        E 0 9b 44 7d
        E 54 8b 44 7d
        E 0 9b 3a 7d
        E 146 8b 3a 7d
        E 0 9b 43 7d
        E 109 8b 43 7d
        E 0 9b 33 7d
        E 73 8b 33 7d
        E 0 9b 30 7d
        E 73 8b 30 7d
        E 0 9b 30 7d
        E 73 8b 30 7d
        E 0 9b 41 7d
        E 146 8b 41 7d
        E 0 9b 43 7d
        E 0 9b 35 7d
        E 164 8b 35 7d
        E 0 9b 44 7d
        E 54 8b 44 7d
        E 0 9b 3a 7d
        E 146 8b 3a 7d
        E 0 9b 43 7d
        E 109 8b 43 7d
        E 0 9b 33 7d
        E 73 8b 33 7d
        E 0 9b 30 7d
        E 73 8b 30 7d
        E 0 9b 30 7d
        E 73 8b 30 7d
        E 0 9b 41 7d
        E 146 8b 41 7d
        E 0 9b 43 7d
        E 0 9b 35 7d
        E 164 8b 35 7d
        E 0 9b 44 7d
        E 54 8b 44 7d
        E 0 9b 3a 7d
        E 146 8b 3a 7d
        E 0 9b 43 7d
        E 109 8b 43 7d
        E 0 9b 33 7d
        E 73 8b 33 7d
        E 0 9b 30 7d
        E 73 8b 30 7d
        E 0 9b 30 7d
        E 73 8b 30 7d
        E 0 9b 41 7d
        E 146 8b 41 7d
        E 0 9b 43 7d
        E 0 9b 35 7d
        E 164 8b 35 7d
        E 0 9b 44 7d
        E 54 8b 44 7d
        E 0 9b 3a 7d
        E 146 8b 3a 7d
        E 0 9b 43 7d
        E 109 8b 43 7d
        E 0 9b 33 7d
        E 73 8b 33 7d
        E 0 9b 30 7d
        E 73 8b 30 7d
        E 0 9b 30 7d
        E 73 8b 30 7d
        E 0 9b 41 7d
        E 146 8b 41 7d
        E 0 9b 43 7d
        E 0 9b 35 7d
        E 164 8b 35 7d
        E 0 9b 44 7d
        E 54 8b 44 7d
        E 0 9b 3a 7d
        E 146 8b 3a 7d
        E 0 9b 43 7d
        E 109 8b 43 7d
        E 0 9b 33 7d
        E 73 8b 33 7d
        E 0 9b 30 7d
        E 73 8b 30 7d
        E 0 9b 30 7d
        E 73 8b 30 7d
        E 0 9b 41 7d
        E 146 8b 41 7d
        E 0 9b 43 7d
        E 0 9b 35 7d
        E 164 8b 35 7d
        E 0 9b 44 7d
        E 54 8b 44 7d
        E 0 9b 3a 7d
        E 146 8b 3a 7d
        E 0 9b 43 7d
        E 109 8b 43 7d
        E 0 9b 33 7d
        E 73 8b 33 7d
        E 0 9b 30 7d
        E 73 8b 30 7d
        E 0 9b 30 7d
        E 73 8b 30 7d
        E 0 9b 41 7d
        E 146 8b 41 7d
        E 0 9b 43 7d
        E 0 9b 35 7d
        E 164 8b 35 7d
        E 0 9b 44 7d
        E 54 8b 44 7d
        E 0 9b 3a 7d
        E 146 8b 3a 7d
        E 0 9b 43 7d
        E 109 8b 43 7d
        E 0 9b 33 7d
        E 73 8b 33 7d
        E 0 9b 30 7d
        E 73 8b 30 7d
        E 0 9b 30 7d
        E 73 8b 30 7d
        E 0 9b 41 7d
        E 146 8b 41 7d
        E 0 9b 43 7d
        E 0 9b 35 7d
        E 164 8b 35 7d
        E 0 9b 44 7d
        E 54 8b 44 7d
        E 0 9b 3a 7d
        E 146 8b 3a 7d
        E 0 9b 43 7d
        E 109 8b 43 7d
        E 0 9b 33 7d
        E 73 8b 33 7d
        E 0 9b 30 7d
        E 73 8b 30 7d
        E 0 9b 30 7d
        E 73 8b 30 7d
        E 0 9b 41 7d
        E 146 8b 41 7d
        E 0 9b 43 7d
        E 0 9b 35 7d
        E 164 8b 35 7d
        E 0 9b 44 7d
        E 54 8b 44 7d
        E 0 9b 3a 7d
        E 146 8b 3a 7d
        E 0 9b 43 7d
        E 109 8b 43 7d
        E 0 9b 33 7d
        E 73 8b 33 7d
        E 0 9b 30 7d
        E 73 8b 30 7d
        E 0 9b 30 7d
        E 73 8b 30 7d
        E 0 9b 41 7d
        E 146 8b 41 7d
        E 0 9b 43 7d
        E 0 9b 35 7d
        E 164 8b 35 7d
        E 0 9b 44 7d
        E 54 8b 44 7d
        E 0 9b 3a 7d
        E 146 8b 3a 7d
        E 0 9b 43 7d
        E 109 8b 43 7d
        E 0 9b 33 7d
        E 73 8b 33 7d
        E 0 9b 30 7d
        E 73 8b 30 7d
        E 0 9b 30 7d
        E 73 8b 30 7d
        E 0 9b 41 7d
        E 146 8b 41 7d
        E 0 9b 43 7d
        E 0 9b 35 7d
        E 164 8b 35 7d
        E 0 9b 44 7d
        E 54 8b 44 7d
        E 0 9b 3a 7d
        E 146 8b 3a 7d
        E 0 9b 43 7d
        E 109 8b 43 7d
        E 0 9b 33 7d
        E 73 8b 33 7d
        E 0 9b 30 7d
        E 73 8b 30 7d
        E 0 9b 30 7d
        E 73 8b 30 7d
        E 0 9b 41 7d
        E 146 8b 41 7d
        E 0 9b 43 7d
        E 0 9b 35 7d
        E 164 8b 35 7d
        E 0 9b 44 7d
        E 54 8b 44 7d
        E 0 9b 3a 7d
        E 146 8b 3a 7d
        E 0 9b 43 7d
        E 109 8b 43 7d
        E 0 9b 33 7d
        E 73 8b 33 7d
        E 0 9b 30 7d
        E 73 8b 30 7d
        E 0 9b 30 7d
        E 73 8b 30 7d
        E 0 9b 41 7d
        E 146 8b 41 7d
        E 0 9b 43 7d
        E 0 9b 35 7d
        E 164 8b 35 7d
        E 0 9b 44 7d
        E 54 8b 44 7d
        E 0 9b 3a 7d
        E 146 8b 3a 7d
        E 0 9b 43 7d
        E 109 8b 43 7d
        E 0 9b 33 7d
        E 73 8b 33 7d
        E 0 9b 30 7d
        E 73 8b 30 7d
        E 0 9b 30 7d
        E 73 8b 30 7d
        E 0 9b 41 7d
        E 146 8b 41 7d
        E 0 9b 43 7d
        E 0 9b 35 7d
        E 164 8b 35 7d
        E 0 9b 44 7d
        E 54 8b 44 7d
        E 0 9b 3a 7d
        E 146 8b 3a 7d
        E 0 9b 43 7d
        E 109 8b 43 7d
        E 0 9b 33 7d
        E 73 8b 33 7d
        E 0 9b 30 7d
        E 73 8b 30 7d
        E 0 9b 30 7d
        E 73 8b 30 7d
        E 0 9b 41 7d
        E 146 8b 41 7d
        E 0 9b 43 7d
        E 0 9b 35 7d
        E 164 8b 35 7d
        E 0 9b 44 7d
        E 54 8b 44 7d
        E 0 9b 3a 7d
        E 146 8b 3a 7d
        E 0 9b 43 7d
        E 109 8b 43 7d
        E 0 9b 33 7d
        E 73 8b 33 7d
        E 0 9b 30 7d
        E 73 8b 30 7d
        E 0 9b 30 7d
        E 73 8b 30 7d
        E 0 9b 41 7d
        E 146 8b 41 7d
        E 0 9b 43 7d
        E 0 9b 35 7d
        E 164 8b 35 7d
        E 0 9b 44 7d
        E 54 8b 44 7d
        E 0 9b 3a 7d
        E 146 8b 3a 7d
        E 0 9b 43 7d
        E 109 8b 43 7d
        E 0 9b 33 7d
        E 73 8b 33 7d
        E 0 9b 30 7d
        E 73 8b 30 7d
        E 0 9b 30 7d
        E 73 8b 30 7d
        E 0 9b 41 7d
        E 146 8b 41 7d
        E 0 9b 43 7d
        E 0 9b 35 7d
        E 164 8b 35 7d
        E 0 9b 44 7d
        E 54 8b 44 7d
        E 0 9b 3a 7d
        E 146 8b 3a 7d
        E 0 9b 43 7d
        E 109 8b 43 7d
        E 0 9b 33 7d
        E 73 8b 33 7d
        E 0 9b 30 7d
        E 73 8b 30 7d
        E 0 9b 30 7d
        E 73 8b 30 7d
        E 0 9b 41 7d
        E 146 8b 41 7d
        E 0 9b 43 7d
        E 0 9b 35 7d
        E 164 8b 35 7d
        E 0 9b 44 7d
        E 54 8b 44 7d
        E 0 9b 3a 7d
        E 146 8b 3a 7d
        E 0 9b 43 7d
        E 109 8b 43 7d
        E 0 9b 33 7d
        E 73 8b 33 7d
        E 0 9b 30 7d
        E 73 8b 30 7d
        E 0 9b 30 7d
        E 73 8b 30 7d
        E 0 9b 41 7d
        E 146 8b 41 7d
        E 0 9b 43 7d
        E 0 9b 35 7d
        E 164 8b 35 7d
        E 0 9b 44 7d
        E 54 8b 44 7d
        E 0 9b 3a 7d
        E 146 8b 3a 7d
        E 0 9b 43 7d
        E 109 8b 43 7d
        E 0 9b 33 7d
        E 73 8b 33 7d
        E 0 9b 30 7d
        E 73 8b 30 7d
        E 0 9b 30 7d
        E 73 8b 30 7d
        E 0 9b 41 7d
        E 146 8b 41 7d
        E 0 9b 43 7d
        E 0 9b 35 7d
        E 164 8b 35 7d
        E 0 9b 44 7d
        E 54 8b 44 7d
        E 0 9b 3a 7d
        E 146 8b 3a 7d
        E 0 9b 43 7d
        E 109 8b 43 7d
        E 0 9b 33 7d
        E 73 8b 33 7d
        E 0 9b 30 7d
        E 73 8b 30 7d
        E 0 9b 30 7d
        E 73 8b 30 7d
        E 0 9b 41 7d
        E 146 8b 41 7d
        E 0 9b 43 7d
        E 0 9b 35 7d
        E 164 8b 35 7d
        E 0 9b 44 7d
        E 54 8b 44 7d
        E 0 9b 3a 7d
        E 146 8b 3a 7d
        E 0 9b 43 7d
        E 109 8b 43 7d
        E 0 9b 33 7d
        E 73 8b 33 7d
        E 0 9b 30 7d
        E 73 8b 30 7d
        E 0 9b 30 7d
        E 73 8b 30 7d
        E 0 9b 41 7d
        E 146 8b 41 7d
        E 0 9b 43 7d
        E 0 9b 35 7d
        E 164 8b 35 7d
        E 0 9b 44 7d
        E 54 8b 44 7d
        E 0 9b 3a 7d
        E 146 8b 3a 7d
        E 0 9b 43 7d
        E 109 8b 43 7d
        E 0 9b 33 7d
        E 73 8b 33 7d
        E 0 9b 30 7d
        E 73 8b 30 7d
        E 0 9b 30 7d
        E 73 8b 30 7d
        E 0 9b 41 7d
        E 146 8b 41 7d
        E 0 9b 43 7d
        E 0 9b 35 7d
        E 164 8b 35 7d
        E 0 9b 44 7d
        E 54 8b 44 7d
        E 0 9b 3a 7d
        E 146 8b 3a 7d
        E 0 9b 43 7d
        E 109 8b 43 7d
        E 0 9b 33 7d
        E 73 8b 33 7d
        E 0 9b 30 7d
        E 73 8b 30 7d
        E 0 9b 30 7d
        E 73 8b 30 7d
        E 0 9b 41 7d
        E 146 8b 41 7d
        E 0 9b 43 7d
        E 0 9b 35 7d
        E 164 8b 35 7d
        E 0 9b 44 7d
        E 54 8b 44 7d
        E 0 9b 3a 7d
        E 146 8b 3a 7d
        E 0 9b 43 7d
        E 109 8b 43 7d
        E 0 9b 33 7d
        E 73 8b 33 7d
        E 0 9b 30 7d
        E 73 8b 30 7d
        E 0 9b 30 7d
        E 73 8b 30 7d
        E 0 9b 41 7d
        E 146 8b 41 7d
        E 0 9b 43 7d
        E 0 9b 35 7d
        E 164 8b 35 7d
        E 0 9b 44 7d
        E 54 8b 44 7d
        E 0 9b 3a 7d
        E 146 8b 3a 7d
        E 0 9b 43 7d
        E 109 8b 43 7d
        E 0 9b 33 7d
        E 73 8b 33 7d
        E 0 9b 30 7d
        E 73 8b 30 7d
        E 0 9b 30 7d
        E 73 8b 30 7d
        E 0 9b 41 7d
        E 146 8b 41 7d
        E 0 9b 43 7d
        E 0 9b 35 7d
        E 164 8b 35 7d
        E 0 9b 44 7d
        E 54 8b 44 7d
        E 0 9b 3a 7d
        E 146 8b 3a 7d
        E 0 9b 43 7d
        E 109 8b 43 7d
        E 0 9b 33 7d
        E 73 8b 33 7d
        E 0 9b 30 7d
        E 73 8b 30 7d
        E 0 9b 30 7d
        E 73 8b 30 7d
        E 0 9b 41 7d
        E 146 8b 41 7d
        E 0 9b 43 7d
        E 0 9b 35 7d
        E 164 8b 35 7d
        E 0 9b 44 7d
        E 54 8b 44 7d
        E 0 9b 3a 7d
        E 146 8b 3a 7d
        E 0 9b 43 7d
        E 109 8b 43 7d
        E 0 9b 33 7d
        E 73 8b 33 7d
        E 0 9b 30 7d
        E 73 8b 30 7d
        E 0 9b 30 7d
        E 73 8b 30 7d
        E 0 9b 41 7d
        E 146 8b 41 7d
        E 0 9b 43 7d
        E 0 9b 35 7d
        E 164 8b 35 7d
        E 0 9b 44 7d
        E 54 8b 44 7d
        E 0 9b 3a 7d
        E 146 8b 3a 7d
        E 0 9b 43 7d
        E 109 8b 43 7d
        E 0 9b 33 7d
        E 73 8b 33 7d
        E 0 9b 30 7d
        E 73 8b 30 7d
        E 0 9b 30 7d
        E 73 8b 30 7d
        E 0 9b 41 7d
        E 146 8b 41 7d
        E 0 9b 43 7d
        E 0 9b 35 7d
        E 164 8b 35 7d
        E 0 9b 44 7d
        E 54 8b 44 7d
        E 0 9b 3a 7d
        E 146 8b 3a 7d
        E 0 9b 43 7d
        E 109 8b 43 7d
        E 0 9b 33 7d
        E 73 8b 33 7d
        E 0 9b 30 7d
        E 73 8b 30 7d
        E 0 9b 30 7d
        E 73 8b 30 7d
        E 0 9b 41 7d
        E 146 8b 41 7d
        E 0 9b 43 7d
        E 0 9b 35 7d
        E 164 8b 35 7d
        E 0 9b 44 7d
        E 54 8b 44 7d
        E 0 9b 3a 7d
        E 146 8b 3a 7d
        E 0 9b 43 7d
        E 109 8b 43 7d
        E 0 9b 33 7d
        E 73 8b 33 7d
        E 0 9b 30 7d
        E 73 8b 30 7d
        E 0 9b 30 7d
        E 73 8b 30 7d
        E 0 9b 41 7d
        E 146 8b 41 7d
        E 0 9b 43 7d
        E 0 9b 35 7d
        E 164 8b 35 7d
        E 0 9b 44 7d
        E 54 8b 44 7d
        E 0 9b 3a 7d
        E 146 8b 3a 7d
        E 0 9b 43 7d
        E 109 8b 43 7d
        E 0 9b 33 7d
        E 73 8b 33 7d
        E 0 9b 30 7d
        E 73 8b 30 7d
        E 0 9b 30 7d
        E 73 8b 30 7d
        E 0 9b 41 7d
        E 146 8b 41 7d
        E 0 9b 43 7d
        E 0 9b 35 7d
        E 164 8b 35 7d
        E 0 9b 44 7d
        E 54 8b 44 7d
        E 0 9b 3a 7d
        E 146 8b 3a 7d
        E 0 9b 43 7d
        E 109 8b 43 7d
        E 0 9b 33 7d
        E 73 8b 33 7d
        E 0 9b 30 7d
        E 73 8b 30 7d
        E 0 9b 30 7d
        E 73 8b 30 7d
        E 0 9b 41 7d
        E 146 8b 41 7d
        E 0 9b 43 7d
        E 0 9b 35 7d
        E 164 8b 35 7d
        E 0 9b 44 7d
        E 54 8b 44 7d
        E 0 9b 3a 7d
        E 146 8b 3a 7d
        E 0 9b 43 7d
        E 109 8b 43 7d
        E 0 9b 33 7d
        E 73 8b 33 7d
        E 0 9b 30 7d
        E 73 8b 30 7d
        E 0 9b 30 7d
        E 73 8b 30 7d
        E 0 9b 41 7d
        E 146 8b 41 7d
        E 0 9b 43 7d
        E 0 9b 35 7d
        E 164 8b 35 7d
        E 0 9b 44 7d
        E 54 8b 44 7d
        E 0 9b 3a 7d
        E 146 8b 3a 7d
        E 0 9b 43 7d
        E 109 8b 43 7d
        E 0 9b 33 7d
        E 73 8b 33 7d
        E 0 9b 30 7d
        E 73 8b 30 7d
        E 0 9b 30 7d
        E 73 8b 30 7d
        E 0 9b 41 7d
        E 146 8b 41 7d
        E 0 9b 43 7d
        E 0 9b 35 7d
        E 164 8b 35 7d
        E 0 9b 44 7d
        E 54 8b 44 7d
        E 0 9b 3a 7d
        E 146 8b 3a 7d
        E 0 9b 43 7d
        E 109 8b 43 7d
        E 0 9b 33 7d
        E 73 8b 33 7d
        E 0 9b 30 7d
        E 73 8b 30 7d
        E 0 9b 30 7d
        E 73 8b 30 7d
        E 0 9b 41 7d
        E 146 8b 41 7d
        E 0 9b 43 7d
        E 0 9b 35 7d
        E 164 8b 35 7d
        E 0 9b 44 7d
        E 54 8b 44 7d
        E 0 9b 3a 7d
        E 146 8b 3a 7d
        E 0 9b 43 7d
        E 109 8b 43 7d
        E 0 9b 33 7d
        E 73 8b 33 7d
        E 0 9b 30 7d
        E 73 8b 30 7d
        E 0 9b 30 7d
        E 73 8b 30 7d
        E 0 9b 41 7d
        E 146 8b 41 7d
        E 0 9b 43 7d
        E 0 9b 35 7d
        E 164 8b 35 7d
        E 0 9b 44 7d
        E 54 8b 44 7d
        E 0 9b 3a 7d
        E 146 8b 3a 7d
        E 0 9b 43 7d
        E 109 8b 43 7d
        E 0 9b 33 7d
        E 73 8b 33 7d
        E 0 9b 30 7d
        E 73 8b 30 7d
        E 0 9b 30 7d
        E 73 8b 30 7d
        E 0 9b 41 7d
        E 146 8b 41 7d
        E 0 9b 43 7d
        E 0 9b 35 7d
        E 164 8b 35 7d
        E 0 9b 44 7d
        E 54 8b 44 7d
        E 0 9b 3a 7d
        E 146 8b 3a 7d
        E 0 9b 43 7d
        E 109 8b 43 7d
        E 0 9b 33 7d
        E 73 8b 33 7d
        E 0 9b 30 7d
        E 73 8b 30 7d
        E 0 9b 30 7d
        E 73 8b 30 7d
        E 0 9b 41 7d
        E 146 8b 41 7d
        E 0 9b 43 7d
        E 0 9b 35 7d
        E 164 8b 35 7d
        E 0 9b 44 7d
        E 54 8b 44 7d
        E 0 9b 3a 7d
        E 146 8b 3a 7d
        E 0 9b 43 7d
        E 109 8b 43 7d
        E 0 9b 33 7d
        E 73 8b 33 7d
        E 0 9b 30 7d
        E 73 8b 30 7d
        E 0 9b 30 7d
        E 73 8b 30 7d
        E 0 9b 41 7d
        E 146 8b 41 7d
        E 0 9b 43 7d
        E 0 9b 35 7d
        E 164 8b 35 7d
        E 0 9b 44 7d
        E 54 8b 44 7d
        E 0 9b 3a 7d
        E 146 8b 3a 7d
        E 0 9b 43 7d
        E 109 8b 43 7d
        E 0 9b 33 7d
        E 73 8b 33 7d
        E 0 9b 30 7d
        E 73 8b 30 7d
        E 0 9b 30 7d
        E 73 8b 30 7d
        E 120 b0 7b 00
        CCINTERP 32
        CHASE_CC_TAKEOFFS 1
        GUID {10984F36-9EB8-904E-B652-168BE3589C44}
        IGNTEMPO 0 120 4 4
        SRCCOLOR 638
        VELLANE 3 156 0
        VELLANE -1 196 0
      >
    >
  >
  <TRACK {F0AF686D-EE3A-784B-ADE7-4787F8EB391E}
    NAME "insects of the los angeles basin"
    PEAKCOL 16576
    BEAT -1
    AUTOMODE 0
    VOLPAN 1 0 -1 -1 1
    MUTESOLO 1 0 0
    IPHASE 0
    PLAYOFFS 0 1
    ISBUS 0 0
    BUSCOMP 0 0 0 0 0
    SHOWINMIX 1 0.6667 0.5 1 0.5 0 -1 0
    FREEMODE 0
    SEL 0
    REC 0 0 1 0 0 0 0
    VU 2
    TRACKHEIGHT 0 0 0 0 -1 0
    INQ 0 0 0 0.5 100 0 0 100
    NCHAN 2
    FX 1
    TRACKID {F0AF686D-EE3A-784B-ADE7-4787F8EB391E}
    PERF 0
    MIDIOUT -1
    MAINSEND 1 0
    <FXCHAIN
      SHOW 0
      LASTSEL 0
      DOCKED 0
      BYPASS 0 0 0
      <VST "VSTi: FM8 (Native Instruments GmbH)" FM8.vst 0 "" 1315530296<5653544E696638666D38000000000000> ""
        OGZpTu5e7f4AAAAAAgAAAAEAAAAAAAAAAgAAAAAAAAAYBwAAAQAAAAAAEAA=
        GAcAAAAAAAABAAAAaHNpbgEAAAAAAAAAN455D8DDx0mHoN4j0l/0WZYAAAAAAAAARFNJTnYAAAABAAAASAAAAAAAAABEU0lOagAAAAEAAAAYAAAAAAAAAERTSU4BAAAA
        AQAAAAEAAAABAAAAAQAAAAEAAAAAAAAAAAAAAAAAAAANYmWFAQAAAAhwEAAAAAAAAQAAAAEAAAAAAAAAAAAAAAAAAAADAAAAMAAwADAAAAAAAAAAAAAAAAAAAAAAAAEA
        AAABAAAAAAAAAERTSU5lAAAARgYAAAAAAAABAAAAaHNpbgEAAAAAAAAAMOH4NwAUwEaoogAOyNUgkW0AAAAAAAAARFNJTmUAAAABAAAANAAAAAAAAABEU0lOagAAAAEA
        AAAYAAAAAAAAAERTSU4BAAAAAQAAAAEAAAABAAAAAgAAAAEAAAAACAAAAAEAAAAKAAAAMQAuADIALgAwAC4AMQAwADEAMAABAAAAAwAAAAAAAABEU0lObAAAAKgBAAAA
        AAAAAQAAAGhzaW4BAAAAAAAAACA7190CLVtKvWPIjKqbw/t4AQAAAAAAAERTSU5sAAAAAQAAABgAAAAAAAAARFNJTgEAAAABAAAAAQAAAAEAAAACAAAAAQAAAAAAAAAI
        AAAATgBlAHcAUwBvAHUAbgBkAAcAAABuAG8AdAAgAHMAZQB0AAAAAAAAAAAAAAAAAAAAAAAAAAAAAAAAAAAAAAAAAAAAAAAAAAEAAAABAAAAAQAAAAMAAABGAE0AOAAA
        AAAAAAAAAAcAAAAHAAAAXABAAGMAbwBsAG8AcgABAAAAMAARAAAAXABAAGQAZQB2AGkAYwBlAHQAeQBwAGUAZgBsAGEAZwBzAAEAAAAxAAsAAABcAEAAcwBvAHUAbgBk
        AHQAeQBwAGUAAQAAADAABwAAAFwAQAB0AGUAbQBwAG8AAQAAADAABgAAAFwAQAB2AGUAcgBsAAUAAAAxAC4ANwAuADgABgAAAFwAQAB2AGUAcgBtAAUAAAAxAC4ANwAu
        ADgABwAAAFwAQAB2AGkAcwBpAGIAAQAAADAAAQAAAAAAAAACAAAARFNJTnkAAABoAAAAAAAAAAEAAABoc2luAQAAAAAAAABG64vCmumHRIQ9Mih2ujahOAAAAAAAAABE
        U0lOeQAAAAEAAAAYAAAAAAAAAERTSU4BAAAAAQAAAAEAAAABAAAAAQAAAAAAAAABAAAAAAAAAAEAAABEU0lOdAAAAHUDAAAAAAAAAQAAAGhzaW4BAAAAAAAAAMPiDYJz
        LJxOuWtBgMMVvqRFAwAAAAAAAERTSU50AAAAAQAAACwDAAAAAAAARFNJTnMAAAABAAAAGAAAAAAAAABEU0lOAQAAAAEAAAABAAAAAQAAAAG9DwAA8wIAAAK9DwBgAAAB
        IAUDaHNpbkAHQAAQHyRrBvAZSEqYrqFXTcEPPBhAFCAAA0RTSU5AI+AHA0AAQBsAbSAIAWkPIAQgAEAj4ANTEEkCYzKs2sVGp2B2wrYRj5w5oCfAN0Av4BdnQCMB8Q4g
        XCAAAAUgAwFjDCAEIAAIdHNycEU4TUbPIAsEvCMAAAcgBwZkZWZhdWx04BgKICoAP+ACAwNBAACAIA8AoCAH4AsAAPAgF0AfwAAAICAPwABgFwVAAABIQgDgBABAD0AD
        4BcfYAAge+AEA0AAwBPgAwBAE+AAAAPNzMw+IAwDP5qZGUAXwAPgABcgCuAHG0ATQADgBwdAACATYKtAACALYANAAEALQAAg42AAwA9AB0AD4AMAwA9AB0ADwABAC8AD
        QADAC8AHQADgAwtAAEAP4AMAIA/Bn8AHAMjhDnPgHwDgAO/gDgBAX0ADwABBz8H7QAtAAwCgIINAB0AAALQgCwCWIAPgAwDAP0AHQAPAAEAz4MdLIAAAAcAAIAuAAAAC
        wACADuAdAOAALAD+4B0v4CEAABTgISrgMADBA+AKAGBTgAXgAABChuAXA+AeAOD9WSBZIkBBUgH6Q0AH4FUMQ9VAZwH6Q6BnBYA/zLyMK+BVDOABACBnBAA/ZmZmYAPg
        YwwgAABwJOwB/kJAdCAA4D4MosLgAFaAAKBjgADgOAwgYwRwwgAAhmC6JliAA0BW4EEMIGPgAE3g8AAAUCAA4Of8AP/gFwAABEERCggyAwAAQDIAAAA8QikgAwHwQmLY
        AAEgAYLiIAcgAkKVgAagCSA3oAkgSKAJKxegCQAG4AAJKwSgEyAAoAmASKAGoBPgwk/gSwAAEaBUA2tuYWJBMcAAAYAAIAAAGaARA2N0bmlMiwERJ2FcTFBAAEocAaBC
        4hMPTInAH00bwAvg/QDgvQABIACAAANzaXVnQiQA6CNxwAAAKiAIABkgAyOYYAAj0mAAB2dwdGNZVE1FQAwLDWJlhQEAAAAAAAAAAQAAAAABAAAAAAAAAA==
        ADxkaXNhYmxlZD4AEAAAAA==
      >
      PRESETNAME <disabled>
      FLOATPOS 32 559 948 504
      FXID {405FA726-5CE3-1D4C-B4BF-31C14B487868}
      WAK 0 0
    >
    <ITEM
      POSITION 0
      SNAPOFFS 0
      LENGTH 487.825965
      LOOP 1
      ALLTAKES 0
      FADEIN 1 0 0 1 0 0
      FADEOUT 1 0 0 1 0 0
      MUTE 0 0
      SEL 0
      IGUID {4DF5F0B7-9C17-1D43-84A9-82FCF062CEB2}
      IID 1
      NAME "insects of the los angeles basin.mid"
      VOLPAN 1 0 1 -1
      SOFFS 0 0
      PLAYRATE 1 1 0 -1 0 0.0025
      CHANMODE 0
      GUID {249F8081-9555-AC4B-8772-0BE0D934EE4E}
      <SOURCE MIDI
        HASDATA 1 128 QN
        CCINTERP 32
        POOLEDEVTS {A8AFD687-4477-F044-B082-F860E6743A4C}
        E 0 90 41 7d
        E 128 80 41 7d
        E 0 90 43 7d
        E 0 90 35 7d
        E 144 80 35 7d
        E 0 90 44 7d
        E 48 80 44 7d
        E 0 90 3a 7d
        E 128 80 3a 7d
        E 0 90 43 7d
        E 96 80 43 7d
        E 0 90 33 7d
        E 64 80 33 7d
        E 0 90 30 7d
        E 64 80 30 7d
        E 0 90 30 7d
        E 64 80 30 7d
        E 0 90 41 7d
        E 128 80 41 7d
        E 0 90 43 7d
        E 0 90 35 7d
        E 144 80 35 7d
        E 0 90 44 7d
        E 48 80 44 7d
        E 0 90 3a 7d
        E 128 80 3a 7d
        E 0 90 43 7d
        E 96 80 43 7d
        E 0 90 33 7d
        E 64 80 33 7d
        E 0 90 30 7d
        E 64 80 30 7d
        E 0 90 30 7d
        E 64 80 30 7d
        E 0 90 41 7d
        E 128 80 41 7d
        E 0 90 43 7d
        E 0 90 35 7d
        E 144 80 35 7d
        E 0 90 44 7d
        E 48 80 44 7d
        E 0 90 3a 7d
        E 128 80 3a 7d
        E 0 90 43 7d
        E 96 80 43 7d
        E 0 90 33 7d
        E 64 80 33 7d
        E 0 90 30 7d
        E 64 80 30 7d
        E 0 90 30 7d
        E 64 80 30 7d
        E 0 90 41 7d
        E 128 80 41 7d
        E 0 90 43 7d
        E 0 90 35 7d
        E 144 80 35 7d
        E 0 90 44 7d
        E 48 80 44 7d
        E 0 90 3a 7d
        E 128 80 3a 7d
        E 0 90 43 7d
        E 96 80 43 7d
        E 0 90 33 7d
        E 64 80 33 7d
        E 0 90 30 7d
        E 64 80 30 7d
        E 0 90 30 7d
        E 64 80 30 7d
        E 0 90 41 7d
        E 128 80 41 7d
        E 0 90 43 7d
        E 0 90 35 7d
        E 144 80 35 7d
        E 0 90 44 7d
        E 48 80 44 7d
        E 0 90 3a 7d
        E 128 80 3a 7d
        E 0 90 43 7d
        E 96 80 43 7d
        E 0 90 33 7d
        E 64 80 33 7d
        E 0 90 30 7d
        E 64 80 30 7d
        E 0 90 30 7d
        E 64 80 30 7d
        E 0 90 41 7d
        E 128 80 41 7d
        E 0 90 43 7d
        E 0 90 35 7d
        E 144 80 35 7d
        E 0 90 44 7d
        E 48 80 44 7d
        E 0 90 3a 7d
        E 128 80 3a 7d
        E 0 90 43 7d
        E 96 80 43 7d
        E 0 90 33 7d
        E 64 80 33 7d
        E 0 90 30 7d
        E 64 80 30 7d
        E 0 90 30 7d
        E 64 80 30 7d
        E 0 90 41 7d
        E 128 80 41 7d
        E 0 90 43 7d
        E 0 90 35 7d
        E 144 80 35 7d
        E 0 90 44 7d
        E 48 80 44 7d
        E 0 90 3a 7d
        E 128 80 3a 7d
        E 0 90 43 7d
        E 96 80 43 7d
        E 0 90 33 7d
        E 64 80 33 7d
        E 0 90 30 7d
        E 64 80 30 7d
        E 0 90 30 7d
        E 64 80 30 7d
        E 0 90 41 7d
        E 128 80 41 7d
        E 0 90 43 7d
        E 0 90 35 7d
        E 144 80 35 7d
        E 0 90 44 7d
        E 48 80 44 7d
        E 0 90 3a 7d
        E 128 80 3a 7d
        E 0 90 43 7d
        E 96 80 43 7d
        E 0 90 33 7d
        E 64 80 33 7d
        E 0 90 30 7d
        E 64 80 30 7d
        E 0 90 30 7d
        E 64 80 30 7d
        E 0 90 41 7d
        E 128 80 41 7d
        E 0 90 43 7d
        E 0 90 35 7d
        E 144 80 35 7d
        E 0 90 44 7d
        E 48 80 44 7d
        E 0 90 3a 7d
        E 128 80 3a 7d
        E 0 90 43 7d
        E 96 80 43 7d
        E 0 90 33 7d
        E 64 80 33 7d
        E 0 90 30 7d
        E 64 80 30 7d
        E 0 90 30 7d
        E 64 80 30 7d
        E 0 90 41 7d
        E 128 80 41 7d
        E 0 90 43 7d
        E 0 90 35 7d
        E 144 80 35 7d
        E 0 90 44 7d
        E 48 80 44 7d
        E 0 90 3a 7d
        E 128 80 3a 7d
        E 0 90 43 7d
        E 96 80 43 7d
        E 0 90 33 7d
        E 64 80 33 7d
        E 0 90 30 7d
        E 64 80 30 7d
        E 0 90 30 7d
        E 64 80 30 7d
        E 0 90 41 7d
        E 128 80 41 7d
        E 0 90 43 7d
        E 0 90 35 7d
        E 144 80 35 7d
        E 0 90 44 7d
        E 48 80 44 7d
        E 0 90 3a 7d
        E 128 80 3a 7d
        E 0 90 43 7d
        E 96 80 43 7d
        E 0 90 33 7d
        E 64 80 33 7d
        E 0 90 30 7d
        E 64 80 30 7d
        E 0 90 30 7d
        E 64 80 30 7d
        E 0 90 41 7d
        E 128 80 41 7d
        E 0 90 43 7d
        E 0 90 35 7d
        E 144 80 35 7d
        E 0 90 44 7d
        E 48 80 44 7d
        E 0 90 3a 7d
        E 128 80 3a 7d
        E 0 90 43 7d
        E 96 80 43 7d
        E 0 90 33 7d
        E 64 80 33 7d
        E 0 90 30 7d
        E 64 80 30 7d
        E 0 90 30 7d
        E 64 80 30 7d
        E 0 90 41 7d
        E 128 80 41 7d
        E 0 90 43 7d
        E 0 90 35 7d
        E 144 80 35 7d
        E 0 90 44 7d
        E 48 80 44 7d
        E 0 90 3a 7d
        E 128 80 3a 7d
        E 0 90 43 7d
        E 96 80 43 7d
        E 0 90 33 7d
        E 64 80 33 7d
        E 0 90 30 7d
        E 64 80 30 7d
        E 0 90 30 7d
        E 64 80 30 7d
        E 0 90 41 7d
        E 128 80 41 7d
        E 0 90 43 7d
        E 0 90 35 7d
        E 144 80 35 7d
        E 0 90 44 7d
        E 48 80 44 7d
        E 0 90 3a 7d
        E 128 80 3a 7d
        E 0 90 43 7d
        E 96 80 43 7d
        E 0 90 33 7d
        E 64 80 33 7d
        E 0 90 30 7d
        E 64 80 30 7d
        E 0 90 30 7d
        E 64 80 30 7d
        E 0 90 41 7d
        E 128 80 41 7d
        E 0 90 43 7d
        E 0 90 35 7d
        E 144 80 35 7d
        E 0 90 44 7d
        E 48 80 44 7d
        E 0 90 3a 7d
        E 128 80 3a 7d
        E 0 90 43 7d
        E 96 80 43 7d
        E 0 90 33 7d
        E 64 80 33 7d
        E 0 90 30 7d
        E 64 80 30 7d
        E 0 90 30 7d
        E 64 80 30 7d
        E 0 90 41 7d
        E 128 80 41 7d
        E 0 90 43 7d
        E 0 90 35 7d
        E 144 80 35 7d
        E 0 90 44 7d
        E 48 80 44 7d
        E 0 90 3a 7d
        E 128 80 3a 7d
        E 0 90 43 7d
        E 96 80 43 7d
        E 0 90 33 7d
        E 64 80 33 7d
        E 0 90 30 7d
        E 64 80 30 7d
        E 0 90 30 7d
        E 64 80 30 7d
        E 0 90 41 7d
        E 128 80 41 7d
        E 0 90 43 7d
        E 0 90 35 7d
        E 144 80 35 7d
        E 0 90 44 7d
        E 48 80 44 7d
        E 0 90 3a 7d
        E 128 80 3a 7d
        E 0 90 43 7d
        E 96 80 43 7d
        E 0 90 33 7d
        E 64 80 33 7d
        E 0 90 30 7d
        E 64 80 30 7d
        E 0 90 30 7d
        E 64 80 30 7d
        E 0 90 41 7d
        E 128 80 41 7d
        E 0 90 43 7d
        E 0 90 35 7d
        E 144 80 35 7d
        E 0 90 44 7d
        E 48 80 44 7d
        E 0 90 3a 7d
        E 128 80 3a 7d
        E 0 90 43 7d
        E 96 80 43 7d
        E 0 90 33 7d
        E 64 80 33 7d
        E 0 90 30 7d
        E 64 80 30 7d
        E 0 90 30 7d
        E 64 80 30 7d
        E 0 90 41 7d
        E 128 80 41 7d
        E 0 90 43 7d
        E 0 90 35 7d
        E 144 80 35 7d
        E 0 90 44 7d
        E 48 80 44 7d
        E 0 90 3a 7d
        E 128 80 3a 7d
        E 0 90 43 7d
        E 96 80 43 7d
        E 0 90 33 7d
        E 64 80 33 7d
        E 0 90 30 7d
        E 64 80 30 7d
        E 0 90 30 7d
        E 64 80 30 7d
        E 0 90 41 7d
        E 128 80 41 7d
        E 0 90 43 7d
        E 0 90 35 7d
        E 144 80 35 7d
        E 0 90 44 7d
        E 48 80 44 7d
        E 0 90 3a 7d
        E 128 80 3a 7d
        E 0 90 43 7d
        E 96 80 43 7d
        E 0 90 33 7d
        E 64 80 33 7d
        E 0 90 30 7d
        E 64 80 30 7d
        E 0 90 30 7d
        E 64 80 30 7d
        E 0 90 41 7d
        E 128 80 41 7d
        E 0 90 43 7d
        E 0 90 35 7d
        E 144 80 35 7d
        E 0 90 44 7d
        E 48 80 44 7d
        E 0 90 3a 7d
        E 128 80 3a 7d
        E 0 90 43 7d
        E 96 80 43 7d
        E 0 90 33 7d
        E 64 80 33 7d
        E 0 90 30 7d
        E 64 80 30 7d
        E 0 90 30 7d
        E 64 80 30 7d
        E 0 90 41 7d
        E 128 80 41 7d
        E 0 90 43 7d
        E 0 90 35 7d
        E 144 80 35 7d
        E 0 90 44 7d
        E 48 80 44 7d
        E 0 90 3a 7d
        E 128 80 3a 7d
        E 0 90 43 7d
        E 96 80 43 7d
        E 0 90 33 7d
        E 64 80 33 7d
        E 0 90 30 7d
        E 64 80 30 7d
        E 0 90 30 7d
        E 64 80 30 7d
        E 0 90 41 7d
        E 128 80 41 7d
        E 0 90 43 7d
        E 0 90 35 7d
        E 144 80 35 7d
        E 0 90 44 7d
        E 48 80 44 7d
        E 0 90 3a 7d
        E 128 80 3a 7d
        E 0 90 43 7d
        E 96 80 43 7d
        E 0 90 33 7d
        E 64 80 33 7d
        E 0 90 30 7d
        E 64 80 30 7d
        E 0 90 30 7d
        E 64 80 30 7d
        E 0 90 41 7d
        E 128 80 41 7d
        E 0 90 43 7d
        E 0 90 35 7d
        E 144 80 35 7d
        E 0 90 44 7d
        E 48 80 44 7d
        E 0 90 3a 7d
        E 128 80 3a 7d
        E 0 90 43 7d
        E 96 80 43 7d
        E 0 90 33 7d
        E 64 80 33 7d
        E 0 90 30 7d
        E 64 80 30 7d
        E 0 90 30 7d
        E 64 80 30 7d
        E 0 90 41 7d
        E 128 80 41 7d
        E 0 90 43 7d
        E 0 90 35 7d
        E 144 80 35 7d
        E 0 90 44 7d
        E 48 80 44 7d
        E 0 90 3a 7d
        E 128 80 3a 7d
        E 0 90 43 7d
        E 96 80 43 7d
        E 0 90 33 7d
        E 64 80 33 7d
        E 0 90 30 7d
        E 64 80 30 7d
        E 0 90 30 7d
        E 64 80 30 7d
        E 0 90 41 7d
        E 128 80 41 7d
        E 0 90 43 7d
        E 0 90 35 7d
        E 144 80 35 7d
        E 0 90 44 7d
        E 48 80 44 7d
        E 0 90 3a 7d
        E 128 80 3a 7d
        E 0 90 43 7d
        E 96 80 43 7d
        E 0 90 33 7d
        E 64 80 33 7d
        E 0 90 30 7d
        E 64 80 30 7d
        E 0 90 30 7d
        E 64 80 30 7d
        E 0 90 41 7d
        E 128 80 41 7d
        E 0 90 43 7d
        E 0 90 35 7d
        E 144 80 35 7d
        E 0 90 44 7d
        E 48 80 44 7d
        E 0 90 3a 7d
        E 128 80 3a 7d
        E 0 90 43 7d
        E 96 80 43 7d
        E 0 90 33 7d
        E 64 80 33 7d
        E 0 90 30 7d
        E 64 80 30 7d
        E 0 90 30 7d
        E 64 80 30 7d
        E 0 90 41 7d
        E 128 80 41 7d
        E 0 90 43 7d
        E 0 90 35 7d
        E 144 80 35 7d
        E 0 90 44 7d
        E 48 80 44 7d
        E 0 90 3a 7d
        E 128 80 3a 7d
        E 0 90 43 7d
        E 96 80 43 7d
        E 0 90 33 7d
        E 64 80 33 7d
        E 0 90 30 7d
        E 64 80 30 7d
        E 0 90 30 7d
        E 64 80 30 7d
        E 0 90 41 7d
        E 128 80 41 7d
        E 0 90 43 7d
        E 0 90 35 7d
        E 144 80 35 7d
        E 0 90 44 7d
        E 48 80 44 7d
        E 0 90 3a 7d
        E 128 80 3a 7d
        E 0 90 43 7d
        E 96 80 43 7d
        E 0 90 33 7d
        E 64 80 33 7d
        E 0 90 30 7d
        E 64 80 30 7d
        E 0 90 30 7d
        E 64 80 30 7d
        E 0 90 41 7d
        E 128 80 41 7d
        E 0 90 43 7d
        E 0 90 35 7d
        E 144 80 35 7d
        E 0 90 44 7d
        E 48 80 44 7d
        E 0 90 3a 7d
        E 128 80 3a 7d
        E 0 90 43 7d
        E 96 80 43 7d
        E 0 90 33 7d
        E 64 80 33 7d
        E 0 90 30 7d
        E 64 80 30 7d
        E 0 90 30 7d
        E 64 80 30 7d
        E 0 90 41 7d
        E 128 80 41 7d
        E 0 90 43 7d
        E 0 90 35 7d
        E 144 80 35 7d
        E 0 90 44 7d
        E 48 80 44 7d
        E 0 90 3a 7d
        E 128 80 3a 7d
        E 0 90 43 7d
        E 96 80 43 7d
        E 0 90 33 7d
        E 64 80 33 7d
        E 0 90 30 7d
        E 64 80 30 7d
        E 0 90 30 7d
        E 64 80 30 7d
        E 0 90 41 7d
        E 128 80 41 7d
        E 0 90 43 7d
        E 0 90 35 7d
        E 144 80 35 7d
        E 0 90 44 7d
        E 48 80 44 7d
        E 0 90 3a 7d
        E 128 80 3a 7d
        E 0 90 43 7d
        E 96 80 43 7d
        E 0 90 33 7d
        E 64 80 33 7d
        E 0 90 30 7d
        E 64 80 30 7d
        E 0 90 30 7d
        E 64 80 30 7d
        E 0 90 41 7d
        E 128 80 41 7d
        E 0 90 43 7d
        E 0 90 35 7d
        E 144 80 35 7d
        E 0 90 44 7d
        E 48 80 44 7d
        E 0 90 3a 7d
        E 128 80 3a 7d
        E 0 90 43 7d
        E 96 80 43 7d
        E 0 90 33 7d
        E 64 80 33 7d
        E 0 90 30 7d
        E 64 80 30 7d
        E 0 90 30 7d
        E 64 80 30 7d
        E 0 90 41 7d
        E 128 80 41 7d
        E 0 90 43 7d
        E 0 90 35 7d
        E 144 80 35 7d
        E 0 90 44 7d
        E 48 80 44 7d
        E 0 90 3a 7d
        E 128 80 3a 7d
        E 0 90 43 7d
        E 96 80 43 7d
        E 0 90 33 7d
        E 64 80 33 7d
        E 0 90 30 7d
        E 64 80 30 7d
        E 0 90 30 7d
        E 64 80 30 7d
        E 0 90 41 7d
        E 128 80 41 7d
        E 0 90 43 7d
        E 0 90 35 7d
        E 144 80 35 7d
        E 0 90 44 7d
        E 48 80 44 7d
        E 0 90 3a 7d
        E 128 80 3a 7d
        E 0 90 43 7d
        E 96 80 43 7d
        E 0 90 33 7d
        E 64 80 33 7d
        E 0 90 30 7d
        E 64 80 30 7d
        E 0 90 30 7d
        E 64 80 30 7d
        E 0 90 41 7d
        E 128 80 41 7d
        E 0 90 43 7d
        E 0 90 35 7d
        E 144 80 35 7d
        E 0 90 44 7d
        E 48 80 44 7d
        E 0 90 3a 7d
        E 128 80 3a 7d
        E 0 90 43 7d
        E 96 80 43 7d
        E 0 90 33 7d
        E 64 80 33 7d
        E 0 90 30 7d
        E 64 80 30 7d
        E 0 90 30 7d
        E 64 80 30 7d
        E 0 90 41 7d
        E 128 80 41 7d
        E 0 90 43 7d
        E 0 90 35 7d
        E 144 80 35 7d
        E 0 90 44 7d
        E 48 80 44 7d
        E 0 90 3a 7d
        E 128 80 3a 7d
        E 0 90 43 7d
        E 96 80 43 7d
        E 0 90 33 7d
        E 64 80 33 7d
        E 0 90 30 7d
        E 64 80 30 7d
        E 0 90 30 7d
        E 64 80 30 7d
        E 0 90 41 7d
        E 128 80 41 7d
        E 0 90 43 7d
        E 0 90 35 7d
        E 144 80 35 7d
        E 0 90 44 7d
        E 48 80 44 7d
        E 0 90 3a 7d
        E 128 80 3a 7d
        E 0 90 43 7d
        E 96 80 43 7d
        E 0 90 33 7d
        E 64 80 33 7d
        E 0 90 30 7d
        E 64 80 30 7d
        E 0 90 30 7d
        E 64 80 30 7d
        E 0 90 41 7d
        E 128 80 41 7d
        E 0 90 43 7d
        E 0 90 35 7d
        E 144 80 35 7d
        E 0 90 44 7d
        E 48 80 44 7d
        E 0 90 3a 7d
        E 128 80 3a 7d
        E 0 90 43 7d
        E 96 80 43 7d
        E 0 90 33 7d
        E 64 80 33 7d
        E 0 90 30 7d
        E 64 80 30 7d
        E 0 90 30 7d
        E 64 80 30 7d
        E 0 90 41 7d
        E 128 80 41 7d
        E 0 90 43 7d
        E 0 90 35 7d
        E 144 80 35 7d
        E 0 90 44 7d
        E 48 80 44 7d
        E 0 90 3a 7d
        E 128 80 3a 7d
        E 0 90 43 7d
        E 96 80 43 7d
        E 0 90 33 7d
        E 64 80 33 7d
        E 0 90 30 7d
        E 64 80 30 7d
        E 0 90 30 7d
        E 64 80 30 7d
        E 0 90 41 7d
        E 128 80 41 7d
        E 0 90 43 7d
        E 0 90 35 7d
        E 144 80 35 7d
        E 0 90 44 7d
        E 48 80 44 7d
        E 0 90 3a 7d
        E 128 80 3a 7d
        E 0 90 43 7d
        E 96 80 43 7d
        E 0 90 33 7d
        E 64 80 33 7d
        E 0 90 30 7d
        E 64 80 30 7d
        E 0 90 30 7d
        E 64 80 30 7d
        E 0 90 41 7d
        E 128 80 41 7d
        E 0 90 43 7d
        E 0 90 35 7d
        E 144 80 35 7d
        E 0 90 44 7d
        E 48 80 44 7d
        E 0 90 3a 7d
        E 128 80 3a 7d
        E 0 90 43 7d
        E 96 80 43 7d
        E 0 90 33 7d
        E 64 80 33 7d
        E 0 90 30 7d
        E 64 80 30 7d
        E 0 90 30 7d
        E 64 80 30 7d
        E 0 90 41 7d
        E 128 80 41 7d
        E 0 90 43 7d
        E 0 90 35 7d
        E 144 80 35 7d
        E 0 90 44 7d
        E 48 80 44 7d
        E 0 90 3a 7d
        E 128 80 3a 7d
        E 0 90 43 7d
        E 96 80 43 7d
        E 0 90 33 7d
        E 64 80 33 7d
        E 0 90 30 7d
        E 64 80 30 7d
        E 0 90 30 7d
        E 64 80 30 7d
        E 0 90 41 7d
        E 128 80 41 7d
        E 0 90 43 7d
        E 0 90 35 7d
        E 144 80 35 7d
        E 0 90 44 7d
        E 48 80 44 7d
        E 0 90 3a 7d
        E 128 80 3a 7d
        E 0 90 43 7d
        E 96 80 43 7d
        E 0 90 33 7d
        E 64 80 33 7d
        E 0 90 30 7d
        E 64 80 30 7d
        E 0 90 30 7d
        E 64 80 30 7d
        E 0 90 41 7d
        E 128 80 41 7d
        E 0 90 43 7d
        E 0 90 35 7d
        E 144 80 35 7d
        E 0 90 44 7d
        E 48 80 44 7d
        E 0 90 3a 7d
        E 128 80 3a 7d
        E 0 90 43 7d
        E 96 80 43 7d
        E 0 90 33 7d
        E 64 80 33 7d
        E 0 90 30 7d
        E 64 80 30 7d
        E 0 90 30 7d
        E 64 80 30 7d
        E 0 90 41 7d
        E 128 80 41 7d
        E 0 90 43 7d
        E 0 90 35 7d
        E 144 80 35 7d
        E 0 90 44 7d
        E 48 80 44 7d
        E 0 90 3a 7d
        E 128 80 3a 7d
        E 0 90 43 7d
        E 96 80 43 7d
        E 0 90 33 7d
        E 64 80 33 7d
        E 0 90 30 7d
        E 64 80 30 7d
        E 0 90 30 7d
        E 64 80 30 7d
        E 0 90 41 7d
        E 128 80 41 7d
        E 0 90 43 7d
        E 0 90 35 7d
        E 144 80 35 7d
        E 0 90 44 7d
        E 48 80 44 7d
        E 0 90 3a 7d
        E 128 80 3a 7d
        E 0 90 43 7d
        E 96 80 43 7d
        E 0 90 33 7d
        E 64 80 33 7d
        E 0 90 30 7d
        E 64 80 30 7d
        E 0 90 30 7d
        E 64 80 30 7d
        E 0 90 41 7d
        E 128 80 41 7d
        E 0 90 43 7d
        E 0 90 35 7d
        E 144 80 35 7d
        E 0 90 44 7d
        E 48 80 44 7d
        E 0 90 3a 7d
        E 128 80 3a 7d
        E 0 90 43 7d
        E 96 80 43 7d
        E 0 90 33 7d
        E 64 80 33 7d
        E 0 90 30 7d
        E 64 80 30 7d
        E 0 90 30 7d
        E 64 80 30 7d
        E 0 90 41 7d
        E 128 80 41 7d
        E 0 90 43 7d
        E 0 90 35 7d
        E 144 80 35 7d
        E 0 90 44 7d
        E 48 80 44 7d
        E 0 90 3a 7d
        E 128 80 3a 7d
        E 0 90 43 7d
        E 96 80 43 7d
        E 0 90 33 7d
        E 64 80 33 7d
        E 0 90 30 7d
        E 64 80 30 7d
        E 0 90 30 7d
        E 64 80 30 7d
        E 0 90 41 7d
        E 128 80 41 7d
        E 0 90 43 7d
        E 0 90 35 7d
        E 144 80 35 7d
        E 0 90 44 7d
        E 48 80 44 7d
        E 0 90 3a 7d
        E 128 80 3a 7d
        E 0 90 43 7d
        E 96 80 43 7d
        E 0 90 33 7d
        E 64 80 33 7d
        E 0 90 30 7d
        E 64 80 30 7d
        E 0 90 30 7d
        E 64 80 30 7d
        E 0 90 41 7d
        E 128 80 41 7d
        E 0 90 43 7d
        E 0 90 35 7d
        E 144 80 35 7d
        E 0 90 44 7d
        E 48 80 44 7d
        E 0 90 3a 7d
        E 128 80 3a 7d
        E 0 90 43 7d
        E 96 80 43 7d
        E 0 90 33 7d
        E 64 80 33 7d
        E 0 90 30 7d
        E 64 80 30 7d
        E 0 90 30 7d
        E 64 80 30 7d
        E 0 90 41 7d
        E 128 80 41 7d
        E 0 90 43 7d
        E 0 90 35 7d
        E 144 80 35 7d
        E 0 90 44 7d
        E 48 80 44 7d
        E 0 90 3a 7d
        E 128 80 3a 7d
        E 0 90 43 7d
        E 96 80 43 7d
        E 0 90 33 7d
        E 64 80 33 7d
        E 0 90 30 7d
        E 64 80 30 7d
        E 0 90 30 7d
        E 64 80 30 7d
        E 0 90 41 7d
        E 128 80 41 7d
        E 0 90 43 7d
        E 0 90 35 7d
        E 144 80 35 7d
        E 0 90 44 7d
        E 48 80 44 7d
        E 0 90 3a 7d
        E 128 80 3a 7d
        E 0 90 43 7d
        E 96 80 43 7d
        E 0 90 33 7d
        E 64 80 33 7d
        E 0 90 30 7d
        E 64 80 30 7d
        E 0 90 30 7d
        E 64 80 30 7d
        E 0 90 41 7d
        E 128 80 41 7d
        E 0 90 43 7d
        E 0 90 35 7d
        E 144 80 35 7d
        E 0 90 44 7d
        E 48 80 44 7d
        E 0 90 3a 7d
        E 128 80 3a 7d
        E 0 90 43 7d
        E 96 80 43 7d
        E 0 90 33 7d
        E 64 80 33 7d
        E 0 90 30 7d
        E 64 80 30 7d
        E 0 90 30 7d
        E 64 80 30 7d
        E 0 90 41 7d
        E 128 80 41 7d
        E 0 90 43 7d
        E 0 90 35 7d
        E 144 80 35 7d
        E 0 90 44 7d
        E 48 80 44 7d
        E 0 90 3a 7d
        E 128 80 3a 7d
        E 0 90 43 7d
        E 96 80 43 7d
        E 0 90 33 7d
        E 64 80 33 7d
        E 0 90 30 7d
        E 64 80 30 7d
        E 0 90 30 7d
        E 64 80 30 7d
        E 0 90 41 7d
        E 128 80 41 7d
        E 0 90 43 7d
        E 0 90 35 7d
        E 144 80 35 7d
        E 0 90 44 7d
        E 48 80 44 7d
        E 0 90 3a 7d
        E 128 80 3a 7d
        E 0 90 43 7d
        E 96 80 43 7d
        E 0 90 33 7d
        E 64 80 33 7d
        E 0 90 30 7d
        E 64 80 30 7d
        E 0 90 30 7d
        E 64 80 30 7d
        E 0 90 41 7d
        E 128 80 41 7d
        E 0 90 43 7d
        E 0 90 35 7d
        E 144 80 35 7d
        E 0 90 44 7d
        E 48 80 44 7d
        E 0 90 3a 7d
        E 128 80 3a 7d
        E 0 90 43 7d
        E 96 80 43 7d
        E 0 90 33 7d
        E 64 80 33 7d
        E 0 90 30 7d
        E 64 80 30 7d
        E 0 90 30 7d
        E 64 80 30 7d
        E 0 90 41 7d
        E 128 80 41 7d
        E 0 90 43 7d
        E 0 90 35 7d
        E 144 80 35 7d
        E 0 90 44 7d
        E 48 80 44 7d
        E 0 90 3a 7d
        E 128 80 3a 7d
        E 0 90 43 7d
        E 96 80 43 7d
        E 0 90 33 7d
        E 64 80 33 7d
        E 0 90 30 7d
        E 64 80 30 7d
        E 0 90 30 7d
        E 64 80 30 7d
        E 0 90 41 7d
        E 128 80 41 7d
        E 0 90 43 7d
        E 0 90 35 7d
        E 144 80 35 7d
        E 0 90 44 7d
        E 48 80 44 7d
        E 0 90 3a 7d
        E 128 80 3a 7d
        E 0 90 43 7d
        E 96 80 43 7d
        E 0 90 33 7d
        E 64 80 33 7d
        E 0 90 30 7d
        E 64 80 30 7d
        E 0 90 30 7d
        E 64 80 30 7d
        E 0 90 41 7d
        E 128 80 41 7d
        E 0 90 43 7d
        E 0 90 35 7d
        E 144 80 35 7d
        E 0 90 44 7d
        E 48 80 44 7d
        E 0 90 3a 7d
        E 128 80 3a 7d
        E 0 90 43 7d
        E 96 80 43 7d
        E 0 90 33 7d
        E 64 80 33 7d
        E 0 90 30 7d
        E 64 80 30 7d
        E 0 90 30 7d
        E 64 80 30 7d
        E 0 90 41 7d
        E 128 80 41 7d
        E 0 90 43 7d
        E 0 90 35 7d
        E 144 80 35 7d
        E 0 90 44 7d
        E 48 80 44 7d
        E 0 90 3a 7d
        E 128 80 3a 7d
        E 0 90 43 7d
        E 96 80 43 7d
        E 0 90 33 7d
        E 64 80 33 7d
        E 0 90 30 7d
        E 64 80 30 7d
        E 0 90 30 7d
        E 64 80 30 7d
        E 0 90 41 7d
        E 128 80 41 7d
        E 0 90 43 7d
        E 0 90 35 7d
        E 144 80 35 7d
        E 0 90 44 7d
        E 48 80 44 7d
        E 0 90 3a 7d
        E 128 80 3a 7d
        E 0 90 43 7d
        E 96 80 43 7d
        E 0 90 33 7d
        E 64 80 33 7d
        E 0 90 30 7d
        E 64 80 30 7d
        E 0 90 30 7d
        E 64 80 30 7d
        E 0 90 41 7d
        E 128 80 41 7d
        E 0 90 43 7d
        E 0 90 35 7d
        E 144 80 35 7d
        E 0 90 44 7d
        E 48 80 44 7d
        E 0 90 3a 7d
        E 128 80 3a 7d
        E 0 90 43 7d
        E 96 80 43 7d
        E 0 90 33 7d
        E 64 80 33 7d
        E 0 90 30 7d
        E 64 80 30 7d
        E 0 90 30 7d
        E 64 80 30 7d
        E 0 90 41 7d
        E 128 80 41 7d
        E 0 90 43 7d
        E 0 90 35 7d
        E 144 80 35 7d
        E 0 90 44 7d
        E 48 80 44 7d
        E 0 90 3a 7d
        E 128 80 3a 7d
        E 0 90 43 7d
        E 96 80 43 7d
        E 0 90 33 7d
        E 64 80 33 7d
        E 0 90 30 7d
        E 64 80 30 7d
        E 0 90 30 7d
        E 64 80 30 7d
        E 0 90 41 7d
        E 128 80 41 7d
        E 0 90 43 7d
        E 0 90 35 7d
        E 144 80 35 7d
        E 0 90 44 7d
        E 48 80 44 7d
        E 0 90 3a 7d
        E 128 80 3a 7d
        E 0 90 43 7d
        E 96 80 43 7d
        E 0 90 33 7d
        E 64 80 33 7d
        E 0 90 30 7d
        E 64 80 30 7d
        E 0 90 30 7d
        E 64 80 30 7d
        E 0 90 41 7d
        E 128 80 41 7d
        E 0 90 43 7d
        E 0 90 35 7d
        E 144 80 35 7d
        E 0 90 44 7d
        E 48 80 44 7d
        E 0 90 3a 7d
        E 128 80 3a 7d
        E 0 90 43 7d
        E 96 80 43 7d
        E 0 90 33 7d
        E 64 80 33 7d
        E 0 90 30 7d
        E 64 80 30 7d
        E 0 90 30 7d
        E 64 80 30 7d
        E 0 90 41 7d
        E 128 80 41 7d
        E 0 90 43 7d
        E 0 90 35 7d
        E 144 80 35 7d
        E 0 90 44 7d
        E 48 80 44 7d
        E 0 90 3a 7d
        E 128 80 3a 7d
        E 0 90 43 7d
        E 96 80 43 7d
        E 0 90 33 7d
        E 64 80 33 7d
        E 0 90 30 7d
        E 64 80 30 7d
        E 0 90 30 7d
        E 64 80 30 7d
        E 0 90 41 7d
        E 128 80 41 7d
        E 0 90 43 7d
        E 0 90 35 7d
        E 144 80 35 7d
        E 0 90 44 7d
        E 48 80 44 7d
        E 0 90 3a 7d
        E 128 80 3a 7d
        E 0 90 43 7d
        E 96 80 43 7d
        E 0 90 33 7d
        E 64 80 33 7d
        E 0 90 30 7d
        E 64 80 30 7d
        E 0 90 30 7d
        E 64 80 30 7d
        E 0 90 41 7d
        E 128 80 41 7d
        E 0 90 43 7d
        E 0 90 35 7d
        E 144 80 35 7d
        E 0 90 44 7d
        E 48 80 44 7d
        E 0 90 3a 7d
        E 128 80 3a 7d
        E 0 90 43 7d
        E 96 80 43 7d
        E 0 90 33 7d
        E 64 80 33 7d
        E 0 90 30 7d
        E 64 80 30 7d
        E 0 90 30 7d
        E 64 80 30 7d
        E 0 90 41 7d
        E 128 80 41 7d
        E 0 90 43 7d
        E 0 90 35 7d
        E 144 80 35 7d
        E 0 90 44 7d
        E 48 80 44 7d
        E 0 90 3a 7d
        E 128 80 3a 7d
        E 0 90 43 7d
        E 96 80 43 7d
        E 0 90 33 7d
        E 64 80 33 7d
        E 0 90 30 7d
        E 64 80 30 7d
        E 0 90 30 7d
        E 64 80 30 7d
        E 0 90 41 7d
        E 128 80 41 7d
        E 0 90 43 7d
        E 0 90 35 7d
        E 144 80 35 7d
        E 0 90 44 7d
        E 48 80 44 7d
        E 0 90 3a 7d
        E 128 80 3a 7d
        E 0 90 43 7d
        E 96 80 43 7d
        E 0 90 33 7d
        E 64 80 33 7d
        E 0 90 30 7d
        E 64 80 30 7d
        E 0 90 30 7d
        E 64 80 30 7d
        E 0 90 41 7d
        E 128 80 41 7d
        E 0 90 43 7d
        E 0 90 35 7d
        E 144 80 35 7d
        E 0 90 44 7d
        E 48 80 44 7d
        E 0 90 3a 7d
        E 128 80 3a 7d
        E 0 90 43 7d
        E 96 80 43 7d
        E 0 90 33 7d
        E 64 80 33 7d
        E 0 90 30 7d
        E 64 80 30 7d
        E 0 90 30 7d
        E 64 80 30 7d
        E 0 90 44 7d
        E 112 80 44 7d
        E 0 90 41 7d
        E 128 80 41 7d
        E 0 90 43 7d
        E 0 90 35 7d
        E 144 80 35 7d
        E 0 90 44 7d
        E 48 80 44 7d
        E 0 90 3a 7d
        E 128 80 3a 7d
        E 0 90 44 7d
        E 112 80 44 7d
        E 0 90 41 7d
        E 128 80 41 7d
        E 0 90 43 7d
        E 0 90 35 7d
        E 144 80 35 7d
        E 0 90 44 7d
        E 48 80 44 7d
        E 0 90 3a 7d
        E 128 80 3a 7d
        E 0 90 44 7d
        E 112 80 44 7d
        E 0 90 41 7d
        E 128 80 41 7d
        E 0 90 43 7d
        E 0 90 35 7d
        E 144 80 35 7d
        E 0 90 44 7d
        E 48 80 44 7d
        E 0 90 3a 7d
        E 128 80 3a 7d
        E 0 90 44 7d
        E 112 80 44 7d
        E 0 90 41 7d
        E 128 80 41 7d
        E 0 90 43 7d
        E 0 90 35 7d
        E 144 80 35 7d
        E 0 90 44 7d
        E 48 80 44 7d
        E 0 90 3a 7d
        E 128 80 3a 7d
        E 0 90 44 7d
        E 112 80 44 7d
        E 0 90 41 7d
        E 128 80 41 7d
        E 0 90 43 7d
        E 0 90 35 7d
        E 144 80 35 7d
        E 0 90 44 7d
        E 48 80 44 7d
        E 0 90 3a 7d
        E 128 80 3a 7d
        E 0 90 44 7d
        E 112 80 44 7d
        E 0 90 41 7d
        E 128 80 41 7d
        E 0 90 43 7d
        E 0 90 35 7d
        E 144 80 35 7d
        E 0 90 44 7d
        E 48 80 44 7d
        E 0 90 3a 7d
        E 128 80 3a 7d
        E 0 90 44 7d
        E 112 80 44 7d
        E 0 90 41 7d
        E 128 80 41 7d
        E 0 90 43 7d
        E 0 90 35 7d
        E 144 80 35 7d
        E 0 90 44 7d
        E 48 80 44 7d
        E 0 90 3a 7d
        E 128 80 3a 7d
        E 0 90 44 7d
        E 112 80 44 7d
        E 0 90 41 7d
        E 128 80 41 7d
        E 0 90 43 7d
        E 0 90 35 7d
        E 144 80 35 7d
        E 0 90 44 7d
        E 48 80 44 7d
        E 0 90 3a 7d
        E 128 80 3a 7d
        E 0 90 44 7d
        E 112 80 44 7d
        E 0 90 41 7d
        E 128 80 41 7d
        E 0 90 43 7d
        E 0 90 35 7d
        E 144 80 35 7d
        E 0 90 44 7d
        E 48 80 44 7d
        E 0 90 3a 7d
        E 128 80 3a 7d
        E 0 90 44 7d
        E 112 80 44 7d
        E 0 90 41 7d
        E 128 80 41 7d
        E 0 90 43 7d
        E 0 90 35 7d
        E 144 80 35 7d
        E 0 90 44 7d
        E 48 80 44 7d
        E 0 90 3a 7d
        E 128 80 3a 7d
        E 0 90 44 7d
        E 112 80 44 7d
        E 0 90 41 7d
        E 128 80 41 7d
        E 0 90 43 7d
        E 0 90 35 7d
        E 144 80 35 7d
        E 0 90 44 7d
        E 48 80 44 7d
        E 0 90 3a 7d
        E 128 80 3a 7d
        E 0 90 44 7d
        E 112 80 44 7d
        E 0 90 41 7d
        E 128 80 41 7d
        E 0 90 43 7d
        E 0 90 35 7d
        E 144 80 35 7d
        E 0 90 44 7d
        E 48 80 44 7d
        E 0 90 3a 7d
        E 128 80 3a 7d
        E 0 90 44 7d
        E 112 80 44 7d
        E 0 90 41 7d
        E 128 80 41 7d
        E 0 90 43 7d
        E 0 90 35 7d
        E 144 80 35 7d
        E 0 90 44 7d
        E 48 80 44 7d
        E 0 90 3a 7d
        E 128 80 3a 7d
        E 0 90 44 7d
        E 112 80 44 7d
        E 0 90 41 7d
        E 128 80 41 7d
        E 0 90 43 7d
        E 0 90 35 7d
        E 144 80 35 7d
        E 0 90 44 7d
        E 48 80 44 7d
        E 0 90 3a 7d
        E 128 80 3a 7d
        E 0 90 44 7d
        E 112 80 44 7d
        E 0 90 41 7d
        E 128 80 41 7d
        E 0 90 43 7d
        E 0 90 35 7d
        E 144 80 35 7d
        E 0 90 44 7d
        E 48 80 44 7d
        E 0 90 3a 7d
        E 128 80 3a 7d
        E 0 90 44 7d
        E 112 80 44 7d
        E 0 90 41 7d
        E 128 80 41 7d
        E 0 90 43 7d
        E 0 90 35 7d
        E 144 80 35 7d
        E 0 90 44 7d
        E 48 80 44 7d
        E 0 90 3a 7d
        E 128 80 3a 7d
        E 0 90 44 7d
        E 112 80 44 7d
        E 0 90 41 7d
        E 128 80 41 7d
        E 0 90 43 7d
        E 0 90 35 7d
        E 144 80 35 7d
        E 0 90 44 7d
        E 48 80 44 7d
        E 0 90 3a 7d
        E 128 80 3a 7d
        E 0 90 44 7d
        E 112 80 44 7d
        E 0 90 41 7d
        E 128 80 41 7d
        E 0 90 43 7d
        E 0 90 35 7d
        E 144 80 35 7d
        E 0 90 44 7d
        E 48 80 44 7d
        E 0 90 3a 7d
        E 128 80 3a 7d
        E 0 90 44 7d
        E 112 80 44 7d
        E 0 90 41 7d
        E 128 80 41 7d
        E 0 90 43 7d
        E 0 90 35 7d
        E 144 80 35 7d
        E 0 90 44 7d
        E 48 80 44 7d
        E 0 90 3a 7d
        E 128 80 3a 7d
        E 0 90 44 7d
        E 112 80 44 7d
        E 0 90 41 7d
        E 128 80 41 7d
        E 0 90 43 7d
        E 0 90 35 7d
        E 144 80 35 7d
        E 0 90 44 7d
        E 48 80 44 7d
        E 0 90 3a 7d
        E 128 80 3a 7d
        E 0 90 44 7d
        E 112 80 44 7d
        E 0 90 41 7d
        E 128 80 41 7d
        E 0 90 43 7d
        E 0 90 35 7d
        E 144 80 35 7d
        E 0 90 44 7d
        E 48 80 44 7d
        E 0 90 3a 7d
        E 128 80 3a 7d
        E 0 90 44 7d
        E 112 80 44 7d
        E 0 90 41 7d
        E 128 80 41 7d
        E 0 90 43 7d
        E 0 90 35 7d
        E 144 80 35 7d
        E 0 90 44 7d
        E 48 80 44 7d
        E 0 90 3a 7d
        E 128 80 3a 7d
        E 0 90 44 7d
        E 112 80 44 7d
        E 0 90 41 7d
        E 128 80 41 7d
        E 0 90 43 7d
        E 0 90 35 7d
        E 144 80 35 7d
        E 0 90 44 7d
        E 48 80 44 7d
        E 0 90 3a 7d
        E 128 80 3a 7d
        E 0 90 44 7d
        E 112 80 44 7d
        E 0 90 41 7d
        E 128 80 41 7d
        E 0 90 43 7d
        E 0 90 35 7d
        E 144 80 35 7d
        E 0 90 44 7d
        E 48 80 44 7d
        E 0 90 3a 7d
        E 128 80 3a 7d
        E 0 90 3a 7d
        E 128 80 3a 7d
        E 0 90 43 7d
        E 96 80 43 7d
        E 0 90 33 7d
        E 64 80 33 7d
        E 0 90 30 7d
        E 64 80 30 7d
        E 0 90 30 7d
        E 64 80 30 7d
        E 0 90 30 7d
        E 64 80 30 7d
        E 0 90 30 7d
        E 96 80 30 7d
        E 0 90 33 7d
        E 144 80 33 7d
        E 0 90 44 7d
        E 112 80 44 7d
        E 0 90 3a 7d
        E 128 80 3a 7d
        E 0 90 43 7d
        E 96 80 43 7d
        E 0 90 33 7d
        E 64 80 33 7d
        E 0 90 30 7d
        E 64 80 30 7d
        E 0 90 30 7d
        E 64 80 30 7d
        E 0 90 30 7d
        E 64 80 30 7d
        E 0 90 30 7d
        E 96 80 30 7d
        E 0 90 33 7d
        E 144 80 33 7d
        E 0 90 44 7d
        E 112 80 44 7d
        E 0 90 3a 7d
        E 128 80 3a 7d
        E 0 90 43 7d
        E 96 80 43 7d
        E 0 90 33 7d
        E 64 80 33 7d
        E 0 90 30 7d
        E 64 80 30 7d
        E 0 90 30 7d
        E 64 80 30 7d
        E 0 90 30 7d
        E 64 80 30 7d
        E 0 90 30 7d
        E 96 80 30 7d
        E 0 90 33 7d
        E 144 80 33 7d
        E 0 90 44 7d
        E 112 80 44 7d
        E 0 90 3a 7d
        E 128 80 3a 7d
        E 0 90 43 7d
        E 96 80 43 7d
        E 0 90 33 7d
        E 64 80 33 7d
        E 0 90 30 7d
        E 64 80 30 7d
        E 0 90 30 7d
        E 64 80 30 7d
        E 0 90 30 7d
        E 64 80 30 7d
        E 0 90 30 7d
        E 96 80 30 7d
        E 0 90 33 7d
        E 144 80 33 7d
        E 0 90 44 7d
        E 112 80 44 7d
        E 0 90 3a 7d
        E 128 80 3a 7d
        E 0 90 43 7d
        E 96 80 43 7d
        E 0 90 33 7d
        E 64 80 33 7d
        E 0 90 30 7d
        E 64 80 30 7d
        E 0 90 30 7d
        E 64 80 30 7d
        E 0 90 30 7d
        E 64 80 30 7d
        E 0 90 30 7d
        E 96 80 30 7d
        E 0 90 33 7d
        E 144 80 33 7d
        E 0 90 44 7d
        E 112 80 44 7d
        E 0 90 3a 7d
        E 128 80 3a 7d
        E 0 90 43 7d
        E 96 80 43 7d
        E 0 90 33 7d
        E 64 80 33 7d
        E 0 90 30 7d
        E 64 80 30 7d
        E 0 90 30 7d
        E 64 80 30 7d
        E 0 90 30 7d
        E 64 80 30 7d
        E 0 90 30 7d
        E 96 80 30 7d
        E 0 90 33 7d
        E 144 80 33 7d
        E 0 90 44 7d
        E 112 80 44 7d
        E 0 90 3a 7d
        E 128 80 3a 7d
        E 0 90 43 7d
        E 96 80 43 7d
        E 0 90 33 7d
        E 64 80 33 7d
        E 0 90 30 7d
        E 64 80 30 7d
        E 0 90 30 7d
        E 64 80 30 7d
        E 0 90 30 7d
        E 64 80 30 7d
        E 0 90 30 7d
        E 96 80 30 7d
        E 0 90 33 7d
        E 144 80 33 7d
        E 0 90 44 7d
        E 112 80 44 7d
        E 0 90 3a 7d
        E 128 80 3a 7d
        E 0 90 43 7d
        E 96 80 43 7d
        E 0 90 33 7d
        E 64 80 33 7d
        E 0 90 30 7d
        E 64 80 30 7d
        E 0 90 30 7d
        E 64 80 30 7d
        E 0 90 30 7d
        E 64 80 30 7d
        E 0 90 30 7d
        E 96 80 30 7d
        E 0 90 33 7d
        E 144 80 33 7d
        E 0 90 44 7d
        E 112 80 44 7d
        E 0 90 3a 7d
        E 128 80 3a 7d
        E 0 90 43 7d
        E 96 80 43 7d
        E 0 90 33 7d
        E 64 80 33 7d
        E 0 90 30 7d
        E 64 80 30 7d
        E 0 90 30 7d
        E 64 80 30 7d
        E 0 90 30 7d
        E 64 80 30 7d
        E 0 90 30 7d
        E 96 80 30 7d
        E 0 90 33 7d
        E 144 80 33 7d
        E 0 90 44 7d
        E 112 80 44 7d
        E 0 90 3a 7d
        E 128 80 3a 7d
        E 0 90 43 7d
        E 96 80 43 7d
        E 0 90 33 7d
        E 64 80 33 7d
        E 0 90 30 7d
        E 64 80 30 7d
        E 0 90 30 7d
        E 64 80 30 7d
        E 0 90 30 7d
        E 64 80 30 7d
        E 0 90 30 7d
        E 96 80 30 7d
        E 0 90 33 7d
        E 144 80 33 7d
        E 0 90 44 7d
        E 112 80 44 7d
        E 0 90 3a 7d
        E 128 80 3a 7d
        E 0 90 43 7d
        E 96 80 43 7d
        E 0 90 33 7d
        E 64 80 33 7d
        E 0 90 30 7d
        E 64 80 30 7d
        E 0 90 30 7d
        E 64 80 30 7d
        E 0 90 30 7d
        E 64 80 30 7d
        E 0 90 30 7d
        E 96 80 30 7d
        E 0 90 33 7d
        E 144 80 33 7d
        E 0 90 44 7d
        E 112 80 44 7d
        E 0 90 3a 7d
        E 128 80 3a 7d
        E 0 90 43 7d
        E 96 80 43 7d
        E 0 90 33 7d
        E 64 80 33 7d
        E 0 90 30 7d
        E 64 80 30 7d
        E 0 90 30 7d
        E 64 80 30 7d
        E 0 90 30 7d
        E 64 80 30 7d
        E 0 90 30 7d
        E 96 80 30 7d
        E 0 90 33 7d
        E 144 80 33 7d
        E 0 90 44 7d
        E 112 80 44 7d
        E 0 90 3a 7d
        E 128 80 3a 7d
        E 0 90 43 7d
        E 96 80 43 7d
        E 0 90 33 7d
        E 64 80 33 7d
        E 0 90 30 7d
        E 64 80 30 7d
        E 0 90 30 7d
        E 64 80 30 7d
        E 0 90 30 7d
        E 64 80 30 7d
        E 0 90 30 7d
        E 96 80 30 7d
        E 0 90 33 7d
        E 144 80 33 7d
        E 0 90 44 7d
        E 112 80 44 7d
        E 0 90 3a 7d
        E 128 80 3a 7d
        E 0 90 43 7d
        E 96 80 43 7d
        E 0 90 33 7d
        E 64 80 33 7d
        E 0 90 30 7d
        E 64 80 30 7d
        E 0 90 30 7d
        E 64 80 30 7d
        E 0 90 30 7d
        E 64 80 30 7d
        E 0 90 30 7d
        E 96 80 30 7d
        E 0 90 33 7d
        E 144 80 33 7d
        E 0 90 44 7d
        E 112 80 44 7d
        E 0 90 3a 7d
        E 128 80 3a 7d
        E 0 90 43 7d
        E 96 80 43 7d
        E 0 90 33 7d
        E 64 80 33 7d
        E 0 90 30 7d
        E 64 80 30 7d
        E 0 90 30 7d
        E 64 80 30 7d
        E 0 90 30 7d
        E 64 80 30 7d
        E 0 90 30 7d
        E 96 80 30 7d
        E 0 90 33 7d
        E 144 80 33 7d
        E 0 90 44 7d
        E 112 80 44 7d
        E 0 90 3a 7d
        E 128 80 3a 7d
        E 0 90 43 7d
        E 96 80 43 7d
        E 0 90 33 7d
        E 64 80 33 7d
        E 0 90 30 7d
        E 64 80 30 7d
        E 0 90 30 7d
        E 64 80 30 7d
        E 0 90 30 7d
        E 64 80 30 7d
        E 0 90 30 7d
        E 96 80 30 7d
        E 0 90 33 7d
        E 144 80 33 7d
        E 0 90 44 7d
        E 112 80 44 7d
        E 0 90 3a 7d
        E 128 80 3a 7d
        E 0 90 43 7d
        E 96 80 43 7d
        E 0 90 33 7d
        E 64 80 33 7d
        E 0 90 30 7d
        E 64 80 30 7d
        E 0 90 30 7d
        E 64 80 30 7d
        E 0 90 30 7d
        E 64 80 30 7d
        E 0 90 30 7d
        E 96 80 30 7d
        E 0 90 33 7d
        E 144 80 33 7d
        E 0 90 44 7d
        E 112 80 44 7d
        E 0 90 3a 7d
        E 128 80 3a 7d
        E 0 90 43 7d
        E 96 80 43 7d
        E 0 90 33 7d
        E 64 80 33 7d
        E 0 90 30 7d
        E 64 80 30 7d
        E 0 90 30 7d
        E 64 80 30 7d
        E 0 90 30 7d
        E 64 80 30 7d
        E 0 90 30 7d
        E 96 80 30 7d
        E 0 90 33 7d
        E 144 80 33 7d
        E 0 90 44 7d
        E 112 80 44 7d
        E 0 90 3a 7d
        E 128 80 3a 7d
        E 0 90 43 7d
        E 96 80 43 7d
        E 0 90 33 7d
        E 64 80 33 7d
        E 0 90 30 7d
        E 64 80 30 7d
        E 0 90 30 7d
        E 64 80 30 7d
        E 0 90 30 7d
        E 64 80 30 7d
        E 0 90 30 7d
        E 96 80 30 7d
        E 0 90 33 7d
        E 144 80 33 7d
        E 0 90 44 7d
        E 112 80 44 7d
        E 0 90 3a 7d
        E 128 80 3a 7d
        E 0 90 43 7d
        E 96 80 43 7d
        E 0 90 33 7d
        E 64 80 33 7d
        E 0 90 30 7d
        E 64 80 30 7d
        E 0 90 30 7d
        E 64 80 30 7d
        E 0 90 30 7d
        E 64 80 30 7d
        E 0 90 30 7d
        E 96 80 30 7d
        E 0 90 33 7d
        E 144 80 33 7d
        E 0 90 44 7d
        E 112 80 44 7d
        E 0 90 3a 7d
        E 128 80 3a 7d
        E 0 90 43 7d
        E 96 80 43 7d
        E 0 90 33 7d
        E 64 80 33 7d
        E 0 90 30 7d
        E 64 80 30 7d
        E 0 90 30 7d
        E 64 80 30 7d
        E 0 90 30 7d
        E 64 80 30 7d
        E 0 90 30 7d
        E 96 80 30 7d
        E 0 90 33 7d
        E 144 80 33 7d
        E 0 90 44 7d
        E 112 80 44 7d
        E 0 90 3a 7d
        E 128 80 3a 7d
        E 0 90 43 7d
        E 96 80 43 7d
        E 0 90 33 7d
        E 64 80 33 7d
        E 0 90 30 7d
        E 64 80 30 7d
        E 0 90 30 7d
        E 64 80 30 7d
        E 0 90 30 7d
        E 64 80 30 7d
        E 0 90 30 7d
        E 96 80 30 7d
        E 0 90 33 7d
        E 144 80 33 7d
        E 0 90 44 7d
        E 112 80 44 7d
        E 0 90 3a 7d
        E 128 80 3a 7d
        E 0 90 43 7d
        E 96 80 43 7d
        E 0 90 33 7d
        E 64 80 33 7d
        E 0 90 30 7d
        E 64 80 30 7d
        E 0 90 30 7d
        E 64 80 30 7d
        E 0 90 30 7d
        E 64 80 30 7d
        E 0 90 30 7d
        E 96 80 30 7d
        E 0 90 33 7d
        E 144 80 33 7d
        E 0 90 44 7d
        E 112 80 44 7d
        E 0 90 3a 7d
        E 128 80 3a 7d
        E 0 90 43 7d
        E 96 80 43 7d
        E 0 90 33 7d
        E 64 80 33 7d
        E 0 90 30 7d
        E 64 80 30 7d
        E 0 90 30 7d
        E 64 80 30 7d
        E 0 90 30 7d
        E 64 80 30 7d
        E 0 90 30 7d
        E 96 80 30 7d
        E 0 90 33 7d
        E 144 80 33 7d
        E 0 90 44 7d
        E 112 80 44 7d
        E 0 90 3a 7d
        E 128 80 3a 7d
        E 0 90 43 7d
        E 96 80 43 7d
        E 0 90 33 7d
        E 64 80 33 7d
        E 0 90 30 7d
        E 64 80 30 7d
        E 0 90 30 7d
        E 64 80 30 7d
        E 0 90 30 7d
        E 64 80 30 7d
        E 0 90 30 7d
        E 96 80 30 7d
        E 0 90 33 7d
        E 144 80 33 7d
        E 0 90 44 7d
        E 112 80 44 7d
        E 0 90 3a 7d
        E 128 80 3a 7d
        E 0 90 43 7d
        E 96 80 43 7d
        E 0 90 33 7d
        E 64 80 33 7d
        E 0 90 30 7d
        E 64 80 30 7d
        E 0 90 30 7d
        E 64 80 30 7d
        E 0 90 30 7d
        E 64 80 30 7d
        E 0 90 30 7d
        E 96 80 30 7d
        E 0 90 33 7d
        E 144 80 33 7d
        E 0 90 44 7d
        E 112 80 44 7d
        E 0 90 3a 7d
        E 128 80 3a 7d
        E 0 90 43 7d
        E 96 80 43 7d
        E 0 90 33 7d
        E 64 80 33 7d
        E 0 90 30 7d
        E 64 80 30 7d
        E 0 90 30 7d
        E 64 80 30 7d
        E 0 90 30 7d
        E 64 80 30 7d
        E 0 90 30 7d
        E 96 80 30 7d
        E 0 90 33 7d
        E 144 80 33 7d
        E 0 90 44 7d
        E 112 80 44 7d
        E 0 90 3a 7d
        E 128 80 3a 7d
        E 0 90 43 7d
        E 96 80 43 7d
        E 0 90 33 7d
        E 64 80 33 7d
        E 0 90 30 7d
        E 64 80 30 7d
        E 0 90 30 7d
        E 64 80 30 7d
        E 0 90 30 7d
        E 64 80 30 7d
        E 0 90 30 7d
        E 96 80 30 7d
        E 0 90 33 7d
        E 144 80 33 7d
        E 0 90 44 7d
        E 112 80 44 7d
        E 0 90 3a 7d
        E 128 80 3a 7d
        E 0 90 43 7d
        E 96 80 43 7d
        E 0 90 33 7d
        E 64 80 33 7d
        E 0 90 30 7d
        E 64 80 30 7d
        E 0 90 30 7d
        E 64 80 30 7d
        E 0 90 30 7d
        E 64 80 30 7d
        E 0 90 30 7d
        E 96 80 30 7d
        E 0 90 33 7d
        E 144 80 33 7d
        E 0 90 44 7d
        E 112 80 44 7d
        E 0 90 3a 7d
        E 128 80 3a 7d
        E 0 90 43 7d
        E 96 80 43 7d
        E 0 90 33 7d
        E 64 80 33 7d
        E 0 90 30 7d
        E 64 80 30 7d
        E 0 90 30 7d
        E 64 80 30 7d
        E 0 90 30 7d
        E 64 80 30 7d
        E 0 90 30 7d
        E 96 80 30 7d
        E 0 90 33 7d
        E 144 80 33 7d
        E 0 90 44 7d
        E 112 80 44 7d
        E 0 90 3a 7d
        E 128 80 3a 7d
        E 0 90 43 7d
        E 96 80 43 7d
        E 0 90 33 7d
        E 64 80 33 7d
        E 0 90 30 7d
        E 64 80 30 7d
        E 0 90 30 7d
        E 64 80 30 7d
        E 0 90 30 7d
        E 64 80 30 7d
        E 0 90 30 7d
        E 96 80 30 7d
        E 0 90 33 7d
        E 144 80 33 7d
        E 0 90 44 7d
        E 112 80 44 7d
        E 0 90 3a 7d
        E 128 80 3a 7d
        E 0 90 43 7d
        E 96 80 43 7d
        E 0 90 33 7d
        E 64 80 33 7d
        E 0 90 30 7d
        E 64 80 30 7d
        E 0 90 30 7d
        E 64 80 30 7d
        E 0 90 30 7d
        E 64 80 30 7d
        E 0 90 30 7d
        E 96 80 30 7d
        E 0 90 33 7d
        E 144 80 33 7d
        E 0 90 44 7d
        E 112 80 44 7d
        E 0 90 3a 7d
        E 128 80 3a 7d
        E 0 90 43 7d
        E 96 80 43 7d
        E 0 90 33 7d
        E 64 80 33 7d
        E 0 90 30 7d
        E 64 80 30 7d
        E 0 90 30 7d
        E 64 80 30 7d
        E 0 90 30 7d
        E 64 80 30 7d
        E 0 90 30 7d
        E 96 80 30 7d
        E 0 90 33 7d
        E 144 80 33 7d
        E 0 90 44 7d
        E 112 80 44 7d
        E 0 90 3a 7d
        E 128 80 3a 7d
        E 0 90 43 7d
        E 96 80 43 7d
        E 0 90 33 7d
        E 64 80 33 7d
        E 0 90 30 7d
        E 64 80 30 7d
        E 0 90 30 7d
        E 64 80 30 7d
        E 0 90 30 7d
        E 64 80 30 7d
        E 0 90 30 7d
        E 96 80 30 7d
        E 0 90 33 7d
        E 144 80 33 7d
        E 0 90 44 7d
        E 112 80 44 7d
        E 0 90 3a 7d
        E 128 80 3a 7d
        E 0 90 43 7d
        E 96 80 43 7d
        E 0 90 33 7d
        E 64 80 33 7d
        E 0 90 30 7d
        E 64 80 30 7d
        E 0 90 30 7d
        E 64 80 30 7d
        E 0 90 30 7d
        E 64 80 30 7d
        E 0 90 30 7d
        E 96 80 30 7d
        E 0 90 33 7d
        E 144 80 33 7d
        E 0 90 44 7d
        E 112 80 44 7d
        E 0 90 3a 7d
        E 128 80 3a 7d
        E 0 90 43 7d
        E 96 80 43 7d
        E 0 90 33 7d
        E 64 80 33 7d
        E 0 90 30 7d
        E 64 80 30 7d
        E 0 90 30 7d
        E 64 80 30 7d
        E 0 90 30 7d
        E 64 80 30 7d
        E 0 90 30 7d
        E 96 80 30 7d
        E 0 90 33 7d
        E 144 80 33 7d
        E 0 90 44 7d
        E 112 80 44 7d
        E 0 90 3a 7d
        E 128 80 3a 7d
        E 0 90 43 7d
        E 96 80 43 7d
        E 0 90 33 7d
        E 64 80 33 7d
        E 0 90 30 7d
        E 64 80 30 7d
        E 0 90 30 7d
        E 64 80 30 7d
        E 0 90 30 7d
        E 64 80 30 7d
        E 0 90 30 7d
        E 96 80 30 7d
        E 0 90 33 7d
        E 144 80 33 7d
        E 0 90 44 7d
        E 112 80 44 7d
        E 0 90 3a 7d
        E 128 80 3a 7d
        E 0 90 43 7d
        E 96 80 43 7d
        E 0 90 33 7d
        E 64 80 33 7d
        E 0 90 30 7d
        E 64 80 30 7d
        E 0 90 30 7d
        E 64 80 30 7d
        E 0 90 30 7d
        E 64 80 30 7d
        E 0 90 30 7d
        E 96 80 30 7d
        E 0 90 33 7d
        E 144 80 33 7d
        E 0 90 44 7d
        E 112 80 44 7d
        E 0 90 3a 7d
        E 128 80 3a 7d
        E 0 90 43 7d
        E 96 80 43 7d
        E 0 90 33 7d
        E 64 80 33 7d
        E 0 90 30 7d
        E 64 80 30 7d
        E 0 90 30 7d
        E 64 80 30 7d
        E 0 90 30 7d
        E 64 80 30 7d
        E 0 90 30 7d
        E 96 80 30 7d
        E 0 90 33 7d
        E 144 80 33 7d
        E 0 90 44 7d
        E 112 80 44 7d
        E 0 90 3a 7d
        E 128 80 3a 7d
        E 0 90 43 7d
        E 96 80 43 7d
        E 0 90 33 7d
        E 64 80 33 7d
        E 0 90 30 7d
        E 64 80 30 7d
        E 0 90 30 7d
        E 64 80 30 7d
        E 0 90 30 7d
        E 64 80 30 7d
        E 0 90 30 7d
        E 96 80 30 7d
        E 0 90 33 7d
        E 144 80 33 7d
        E 0 90 44 7d
        E 112 80 44 7d
        E 0 90 3a 7d
        E 128 80 3a 7d
        E 0 90 43 7d
        E 96 80 43 7d
        E 0 90 33 7d
        E 64 80 33 7d
        E 0 90 30 7d
        E 64 80 30 7d
        E 0 90 30 7d
        E 64 80 30 7d
        E 0 90 30 7d
        E 64 80 30 7d
        E 0 90 30 7d
        E 96 80 30 7d
        E 0 90 33 7d
        E 144 80 33 7d
        E 0 90 44 7d
        E 112 80 44 7d
        E 0 90 3a 7d
        E 128 80 3a 7d
        E 0 90 43 7d
        E 96 80 43 7d
        E 0 90 33 7d
        E 64 80 33 7d
        E 0 90 30 7d
        E 64 80 30 7d
        E 0 90 30 7d
        E 64 80 30 7d
        E 0 90 30 7d
        E 64 80 30 7d
        E 0 90 30 7d
        E 96 80 30 7d
        E 0 90 33 7d
        E 144 80 33 7d
        E 0 90 44 7d
        E 112 80 44 7d
        E 0 90 3a 7d
        E 128 80 3a 7d
        E 0 90 43 7d
        E 96 80 43 7d
        E 0 90 33 7d
        E 64 80 33 7d
        E 0 90 30 7d
        E 64 80 30 7d
        E 0 90 30 7d
        E 64 80 30 7d
        E 0 90 30 7d
        E 64 80 30 7d
        E 0 90 30 7d
        E 96 80 30 7d
        E 0 90 33 7d
        E 144 80 33 7d
        E 0 90 44 7d
        E 112 80 44 7d
        E 0 90 3a 7d
        E 128 80 3a 7d
        E 0 90 43 7d
        E 96 80 43 7d
        E 0 90 33 7d
        E 64 80 33 7d
        E 0 90 30 7d
        E 64 80 30 7d
        E 0 90 30 7d
        E 64 80 30 7d
        E 0 90 30 7d
        E 64 80 30 7d
        E 0 90 30 7d
        E 96 80 30 7d
        E 0 90 33 7d
        E 144 80 33 7d
        E 0 90 44 7d
        E 112 80 44 7d
        E 0 90 3a 7d
        E 128 80 3a 7d
        E 0 90 43 7d
        E 96 80 43 7d
        E 0 90 33 7d
        E 64 80 33 7d
        E 0 90 30 7d
        E 64 80 30 7d
        E 0 90 30 7d
        E 64 80 30 7d
        E 0 90 30 7d
        E 64 80 30 7d
        E 0 90 30 7d
        E 96 80 30 7d
        E 0 90 33 7d
        E 144 80 33 7d
        E 0 90 44 7d
        E 112 80 44 7d
        E 0 90 3a 7d
        E 128 80 3a 7d
        E 0 90 43 7d
        E 96 80 43 7d
        E 0 90 33 7d
        E 64 80 33 7d
        E 0 90 30 7d
        E 64 80 30 7d
        E 0 90 30 7d
        E 64 80 30 7d
        E 0 90 30 7d
        E 64 80 30 7d
        E 0 90 30 7d
        E 96 80 30 7d
        E 0 90 33 7d
        E 144 80 33 7d
        E 0 90 44 7d
        E 112 80 44 7d
        E 0 90 3a 7d
        E 128 80 3a 7d
        E 0 90 43 7d
        E 96 80 43 7d
        E 0 90 33 7d
        E 64 80 33 7d
        E 0 90 30 7d
        E 64 80 30 7d
        E 0 90 30 7d
        E 64 80 30 7d
        E 0 90 30 7d
        E 64 80 30 7d
        E 0 90 30 7d
        E 96 80 30 7d
        E 0 90 33 7d
        E 144 80 33 7d
        E 0 90 44 7d
        E 112 80 44 7d
        E 0 90 3a 7d
        E 128 80 3a 7d
        E 0 90 43 7d
        E 96 80 43 7d
        E 0 90 33 7d
        E 64 80 33 7d
        E 0 90 30 7d
        E 64 80 30 7d
        E 0 90 30 7d
        E 64 80 30 7d
        E 0 90 30 7d
        E 64 80 30 7d
        E 0 90 30 7d
        E 96 80 30 7d
        E 0 90 33 7d
        E 144 80 33 7d
        E 0 90 44 7d
        E 112 80 44 7d
        E 0 90 3a 7d
        E 128 80 3a 7d
        E 0 90 43 7d
        E 96 80 43 7d
        E 0 90 33 7d
        E 64 80 33 7d
        E 0 90 30 7d
        E 64 80 30 7d
        E 0 90 30 7d
        E 64 80 30 7d
        E 0 90 30 7d
        E 64 80 30 7d
        E 0 90 30 7d
        E 96 80 30 7d
        E 0 90 33 7d
        E 144 80 33 7d
        E 0 90 44 7d
        E 112 80 44 7d
        E 0 90 3a 7d
        E 128 80 3a 7d
        E 0 90 43 7d
        E 96 80 43 7d
        E 0 90 33 7d
        E 64 80 33 7d
        E 0 90 30 7d
        E 64 80 30 7d
        E 0 90 30 7d
        E 64 80 30 7d
        E 0 90 30 7d
        E 64 80 30 7d
        E 0 90 30 7d
        E 96 80 30 7d
        E 0 90 33 7d
        E 144 80 33 7d
        E 0 90 44 7d
        E 112 80 44 7d
        E 0 90 3a 7d
        E 128 80 3a 7d
        E 0 90 43 7d
        E 96 80 43 7d
        E 0 90 33 7d
        E 64 80 33 7d
        E 0 90 30 7d
        E 64 80 30 7d
        E 0 90 30 7d
        E 64 80 30 7d
        E 0 90 30 7d
        E 64 80 30 7d
        E 0 90 30 7d
        E 96 80 30 7d
        E 0 90 33 7d
        E 144 80 33 7d
        E 0 90 44 7d
        E 112 80 44 7d
        E 0 90 3a 7d
        E 128 80 3a 7d
        E 0 90 43 7d
        E 96 80 43 7d
        E 0 90 33 7d
        E 64 80 33 7d
        E 0 90 30 7d
        E 64 80 30 7d
        E 0 90 30 7d
        E 64 80 30 7d
        E 0 90 30 7d
        E 64 80 30 7d
        E 0 90 30 7d
        E 96 80 30 7d
        E 0 90 33 7d
        E 144 80 33 7d
        E 0 90 44 7d
        E 112 80 44 7d
        E 0 90 3a 7d
        E 128 80 3a 7d
        E 0 90 43 7d
        E 96 80 43 7d
        E 0 90 33 7d
        E 64 80 33 7d
        E 0 90 30 7d
        E 64 80 30 7d
        E 0 90 30 7d
        E 64 80 30 7d
        E 0 90 30 7d
        E 64 80 30 7d
        E 0 90 30 7d
        E 96 80 30 7d
        E 0 90 33 7d
        E 144 80 33 7d
        E 0 90 44 7d
        E 112 80 44 7d
        E 0 90 3a 7d
        E 128 80 3a 7d
        E 0 90 43 7d
        E 96 80 43 7d
        E 0 90 33 7d
        E 64 80 33 7d
        E 0 90 30 7d
        E 64 80 30 7d
        E 0 90 30 7d
        E 64 80 30 7d
        E 0 90 30 7d
        E 64 80 30 7d
        E 0 90 30 7d
        E 96 80 30 7d
        E 0 90 33 7d
        E 144 80 33 7d
        E 0 90 44 7d
        E 112 80 44 7d
        E 0 90 3a 7d
        E 128 80 3a 7d
        E 0 90 43 7d
        E 96 80 43 7d
        E 0 90 33 7d
        E 64 80 33 7d
        E 0 90 30 7d
        E 64 80 30 7d
        E 0 90 30 7d
        E 64 80 30 7d
        E 0 90 30 7d
        E 64 80 30 7d
        E 0 90 30 7d
        E 96 80 30 7d
        E 0 90 33 7d
        E 144 80 33 7d
        E 0 90 44 7d
        E 112 80 44 7d
        E 0 90 3a 7d
        E 128 80 3a 7d
        E 0 90 43 7d
        E 96 80 43 7d
        E 0 90 33 7d
        E 64 80 33 7d
        E 0 90 30 7d
        E 64 80 30 7d
        E 0 90 30 7d
        E 64 80 30 7d
        E 0 90 30 7d
        E 64 80 30 7d
        E 0 90 30 7d
        E 96 80 30 7d
        E 0 90 33 7d
        E 144 80 33 7d
        E 0 90 44 7d
        E 112 80 44 7d
        E 0 90 3a 7d
        E 128 80 3a 7d
        E 0 90 43 7d
        E 96 80 43 7d
        E 0 90 33 7d
        E 64 80 33 7d
        E 0 90 30 7d
        E 64 80 30 7d
        E 0 90 30 7d
        E 64 80 30 7d
        E 0 90 30 7d
        E 64 80 30 7d
        E 0 90 30 7d
        E 96 80 30 7d
        E 0 90 33 7d
        E 144 80 33 7d
        E 0 90 44 7d
        E 112 80 44 7d
        E 0 90 3a 7d
        E 128 80 3a 7d
        E 0 90 43 7d
        E 96 80 43 7d
        E 0 90 33 7d
        E 64 80 33 7d
        E 0 90 30 7d
        E 64 80 30 7d
        E 0 90 30 7d
        E 64 80 30 7d
        E 0 90 30 7d
        E 64 80 30 7d
        E 0 90 30 7d
        E 96 80 30 7d
        E 0 90 33 7d
        E 144 80 33 7d
        E 0 90 44 7d
        E 112 80 44 7d
        E 0 90 3a 7d
        E 128 80 3a 7d
        E 0 90 43 7d
        E 96 80 43 7d
        E 0 90 33 7d
        E 64 80 33 7d
        E 0 90 30 7d
        E 64 80 30 7d
        E 0 90 30 7d
        E 64 80 30 7d
        E 0 90 30 7d
        E 64 80 30 7d
        E 0 90 30 7d
        E 96 80 30 7d
        E 0 90 33 7d
        E 144 80 33 7d
        E 0 90 44 7d
        E 112 80 44 7d
        E 0 90 3a 7d
        E 128 80 3a 7d
        E 0 90 43 7d
        E 96 80 43 7d
        E 0 90 33 7d
        E 64 80 33 7d
        E 0 90 30 7d
        E 64 80 30 7d
        E 0 90 30 7d
        E 64 80 30 7d
        E 0 90 30 7d
        E 64 80 30 7d
        E 0 90 30 7d
        E 96 80 30 7d
        E 0 90 33 7d
        E 144 80 33 7d
        E 0 90 44 7d
        E 112 80 44 7d
        E 0 90 3a 7d
        E 128 80 3a 7d
        E 0 90 43 7d
        E 96 80 43 7d
        E 0 90 33 7d
        E 64 80 33 7d
        E 0 90 30 7d
        E 64 80 30 7d
        E 0 90 30 7d
        E 64 80 30 7d
        E 0 90 30 7d
        E 64 80 30 7d
        E 0 90 30 7d
        E 96 80 30 7d
        E 0 90 33 7d
        E 144 80 33 7d
        E 0 90 44 7d
        E 112 80 44 7d
        E 0 90 3a 7d
        E 128 80 3a 7d
        E 0 90 43 7d
        E 96 80 43 7d
        E 0 90 33 7d
        E 64 80 33 7d
        E 0 90 30 7d
        E 64 80 30 7d
        E 0 90 30 7d
        E 64 80 30 7d
        E 0 90 30 7d
        E 64 80 30 7d
        E 0 90 30 7d
        E 96 80 30 7d
        E 0 90 33 7d
        E 144 80 33 7d
        E 0 90 44 7d
        E 112 80 44 7d
        E 0 90 3a 7d
        E 128 80 3a 7d
        E 0 90 43 7d
        E 96 80 43 7d
        E 0 90 33 7d
        E 64 80 33 7d
        E 0 90 30 7d
        E 64 80 30 7d
        E 0 90 30 7d
        E 64 80 30 7d
        E 0 90 30 7d
        E 64 80 30 7d
        E 0 90 30 7d
        E 96 80 30 7d
        E 0 90 33 7d
        E 144 80 33 7d
        E 0 90 44 7d
        E 112 80 44 7d
        E 0 90 3a 7d
        E 128 80 3a 7d
        E 0 90 43 7d
        E 96 80 43 7d
        E 0 90 33 7d
        E 64 80 33 7d
        E 0 90 30 7d
        E 64 80 30 7d
        E 0 90 30 7d
        E 64 80 30 7d
        E 0 90 30 7d
        E 64 80 30 7d
        E 0 90 30 7d
        E 96 80 30 7d
        E 0 90 33 7d
        E 144 80 33 7d
        E 0 90 44 7d
        E 111 80 44 7d
        E 1 b0 7b 00
        CCINTERP 32
        CHASE_CC_TAKEOFFS 1
        GUID {8B1CB989-2867-CC40-AFE5-35C79A261164}
        IGNTEMPO 0 120 4 4
        SRCCOLOR 160
        VELLANE 3 601 0
        VELLANE -1 196 0
      >
    >
  >
  <TRACK {27BB7E0D-272F-3440-B415-0260F0E2AB26}
    NAME CC
    PEAKCOL 16576
    BEAT -1
    AUTOMODE 0
    VOLPAN 1 0 -1 -1 1
    MUTESOLO 0 0 0
    IPHASE 0
    PLAYOFFS 0 1
    ISBUS 1 1
    BUSCOMP 2 0 0 0 0
    SHOWINMIX 1 0.6667 0.5 1 0.5 0 -1 0
    FREEMODE 0
    SEL 0
    REC 0 0 1 0 0 0 0
    VU 2
    TRACKHEIGHT 0 0 0 0 -1 0
    INQ 0 0 0 0.5 100 0 0 100
    NCHAN 2
    FX 1
    TRACKID {27BB7E0D-272F-3440-B415-0260F0E2AB26}
    PERF 0
    MIDIOUT -1
    MAINSEND 1 0
  >
  <TRACK {9C56E2C1-A948-6644-9453-B90FC9CBE33E}
    NAME "insects of the los angeles basin"
    PEAKCOL 16576
    BEAT -1
    AUTOMODE 0
    VOLPAN 1 0 -1 -1 1
    MUTESOLO 0 0 0
    IPHASE 0
    PLAYOFFS 0 1
    ISBUS 0 0
    BUSCOMP 0 0 0 0 0
    SHOWINMIX 1 0.6667 0.5 1 0.5 0 -1 0
    FREEMODE 0
    SEL 0
    REC 0 0 1 0 0 0 0
    VU 2
    TRACKHEIGHT 0 1 0 0 -1 0
    INQ 0 0 0 0.5 100 0 0 100
    NCHAN 2
    FX 1
    TRACKID {9C56E2C1-A948-6644-9453-B90FC9CBE33E}
    PERF 0
    MIDIOUT -1
    MAINSEND 1 0
    <ITEM
      POSITION 100.17388800000626
      SNAPOFFS 0
      LENGTH 687.13026299999376
      LOOP 1
      ALLTAKES 0
      FADEIN 1 0 0 1 0 0
      FADEOUT 1 0 0 1 0 0
      MUTE 0 0
      SEL 0
      IGUID {2C733097-C07B-EB4F-8629-49311C40220A}
      IID 38
      NAME "insects of the los angeles basin.mid"
      VOLPAN 1 0 1 -1
      SOFFS 0 0
      PLAYRATE 1 1 0 -1 0 0.0025
      CHANMODE 0
      GUID {9780FB91-F209-2A40-AD0A-71E4C45C249C}
      <SOURCE MIDI
        HASDATA 1 128 QN
        CCINTERP 32
        POOLEDEVTS {32BCAB5D-A569-E545-B429-747601994ADA}
        E 0 9c 30 7d
        E 51 8c 30 7d
        E 0 9c 30 7d
        E 76 8c 30 7d
        E 0 9c 33 7d
        E 115 8c 33 7d
        E 0 9c 44 7d
        E 89 8c 44 7d
        E 0 9c 30 7d
        E 51 8c 30 7d
        E 0 9c 30 7d
        E 76 8c 30 7d
        E 0 9c 33 7d
        E 115 8c 33 7d
        E 0 9c 44 7d
        E 89 8c 44 7d
        E 0 9c 30 7d
        E 51 8c 30 7d
        E 0 9c 30 7d
        E 76 8c 30 7d
        E 0 9c 33 7d
        E 115 8c 33 7d
        E 0 9c 44 7d
        E 89 8c 44 7d
        E 0 9c 30 7d
        E 51 8c 30 7d
        E 0 9c 30 7d
        E 76 8c 30 7d
        E 0 9c 33 7d
        E 115 8c 33 7d
        E 0 9c 44 7d
        E 89 8c 44 7d
        E 0 9c 30 7d
        E 51 8c 30 7d
        E 0 9c 30 7d
        E 76 8c 30 7d
        E 0 9c 33 7d
        E 115 8c 33 7d
        E 0 9c 44 7d
        E 89 8c 44 7d
        E 0 9c 30 7d
        E 51 8c 30 7d
        E 0 9c 30 7d
        E 76 8c 30 7d
        E 0 9c 33 7d
        E 115 8c 33 7d
        E 0 9c 44 7d
        E 89 8c 44 7d
        E 0 9c 30 7d
        E 51 8c 30 7d
        E 0 9c 30 7d
        E 76 8c 30 7d
        E 0 9c 33 7d
        E 115 8c 33 7d
        E 0 9c 44 7d
        E 89 8c 44 7d
        E 0 9c 30 7d
        E 51 8c 30 7d
        E 0 9c 30 7d
        E 76 8c 30 7d
        E 0 9c 33 7d
        E 115 8c 33 7d
        E 0 9c 44 7d
        E 89 8c 44 7d
        E 0 9c 30 7d
        E 51 8c 30 7d
        E 0 9c 30 7d
        E 76 8c 30 7d
        E 0 9c 33 7d
        E 115 8c 33 7d
        E 0 9c 44 7d
        E 89 8c 44 7d
        E 0 9c 30 7d
        E 51 8c 30 7d
        E 0 9c 30 7d
        E 76 8c 30 7d
        E 0 9c 33 7d
        E 115 8c 33 7d
        E 0 9c 44 7d
        E 89 8c 44 7d
        E 0 9c 30 7d
        E 51 8c 30 7d
        E 0 9c 30 7d
        E 76 8c 30 7d
        E 0 9c 33 7d
        E 115 8c 33 7d
        E 0 9c 44 7d
        E 89 8c 44 7d
        E 0 9c 30 7d
        E 51 8c 30 7d
        E 0 9c 30 7d
        E 76 8c 30 7d
        E 0 9c 33 7d
        E 115 8c 33 7d
        E 0 9c 44 7d
        E 89 8c 44 7d
        E 0 9c 30 7d
        E 51 8c 30 7d
        E 0 9c 30 7d
        E 76 8c 30 7d
        E 0 9c 33 7d
        E 115 8c 33 7d
        E 0 9c 44 7d
        E 89 8c 44 7d
        E 0 9c 30 7d
        E 51 8c 30 7d
        E 0 9c 30 7d
        E 76 8c 30 7d
        E 0 9c 33 7d
        E 115 8c 33 7d
        E 0 9c 44 7d
        E 89 8c 44 7d
        E 0 9c 30 7d
        E 51 8c 30 7d
        E 0 9c 30 7d
        E 76 8c 30 7d
        E 0 9c 33 7d
        E 115 8c 33 7d
        E 0 9c 44 7d
        E 89 8c 44 7d
        E 0 9c 30 7d
        E 51 8c 30 7d
        E 0 9c 30 7d
        E 76 8c 30 7d
        E 0 9c 33 7d
        E 115 8c 33 7d
        E 0 9c 44 7d
        E 89 8c 44 7d
        E 0 9c 30 7d
        E 51 8c 30 7d
        E 0 9c 30 7d
        E 76 8c 30 7d
        E 0 9c 33 7d
        E 115 8c 33 7d
        E 0 9c 44 7d
        E 89 8c 44 7d
        E 0 9c 30 7d
        E 51 8c 30 7d
        E 0 9c 30 7d
        E 76 8c 30 7d
        E 0 9c 33 7d
        E 115 8c 33 7d
        E 0 9c 44 7d
        E 89 8c 44 7d
        E 0 9c 30 7d
        E 51 8c 30 7d
        E 0 9c 30 7d
        E 76 8c 30 7d
        E 0 9c 33 7d
        E 115 8c 33 7d
        E 0 9c 44 7d
        E 89 8c 44 7d
        E 0 9c 30 7d
        E 51 8c 30 7d
        E 0 9c 30 7d
        E 76 8c 30 7d
        E 0 9c 33 7d
        E 115 8c 33 7d
        E 0 9c 44 7d
        E 89 8c 44 7d
        E 0 9c 30 7d
        E 51 8c 30 7d
        E 0 9c 30 7d
        E 76 8c 30 7d
        E 0 9c 33 7d
        E 115 8c 33 7d
        E 0 9c 44 7d
        E 89 8c 44 7d
        E 0 9c 30 7d
        E 51 8c 30 7d
        E 0 9c 30 7d
        E 76 8c 30 7d
        E 0 9c 33 7d
        E 115 8c 33 7d
        E 0 9c 44 7d
        E 89 8c 44 7d
        E 0 9c 30 7d
        E 51 8c 30 7d
        E 0 9c 30 7d
        E 76 8c 30 7d
        E 0 9c 33 7d
        E 115 8c 33 7d
        E 0 9c 44 7d
        E 89 8c 44 7d
        E 0 9c 30 7d
        E 51 8c 30 7d
        E 0 9c 30 7d
        E 76 8c 30 7d
        E 0 9c 33 7d
        E 115 8c 33 7d
        E 0 9c 44 7d
        E 89 8c 44 7d
        E 0 9c 30 7d
        E 51 8c 30 7d
        E 0 9c 30 7d
        E 76 8c 30 7d
        E 0 9c 33 7d
        E 115 8c 33 7d
        E 0 9c 44 7d
        E 89 8c 44 7d
        E 0 9c 30 7d
        E 51 8c 30 7d
        E 0 9c 30 7d
        E 76 8c 30 7d
        E 0 9c 33 7d
        E 115 8c 33 7d
        E 0 9c 44 7d
        E 89 8c 44 7d
        E 0 9c 30 7d
        E 51 8c 30 7d
        E 0 9c 30 7d
        E 76 8c 30 7d
        E 0 9c 33 7d
        E 115 8c 33 7d
        E 0 9c 44 7d
        E 89 8c 44 7d
        E 0 9c 30 7d
        E 51 8c 30 7d
        E 0 9c 30 7d
        E 76 8c 30 7d
        E 0 9c 33 7d
        E 115 8c 33 7d
        E 0 9c 44 7d
        E 89 8c 44 7d
        E 0 9c 30 7d
        E 51 8c 30 7d
        E 0 9c 30 7d
        E 76 8c 30 7d
        E 0 9c 33 7d
        E 115 8c 33 7d
        E 0 9c 44 7d
        E 89 8c 44 7d
        E 0 9c 30 7d
        E 51 8c 30 7d
        E 0 9c 30 7d
        E 76 8c 30 7d
        E 0 9c 33 7d
        E 115 8c 33 7d
        E 0 9c 44 7d
        E 89 8c 44 7d
        E 0 9c 30 7d
        E 51 8c 30 7d
        E 0 9c 30 7d
        E 76 8c 30 7d
        E 0 9c 33 7d
        E 115 8c 33 7d
        E 0 9c 44 7d
        E 89 8c 44 7d
        E 0 9c 30 7d
        E 51 8c 30 7d
        E 0 9c 30 7d
        E 76 8c 30 7d
        E 0 9c 33 7d
        E 115 8c 33 7d
        E 0 9c 44 7d
        E 89 8c 44 7d
        E 0 9c 30 7d
        E 51 8c 30 7d
        E 0 9c 30 7d
        E 76 8c 30 7d
        E 0 9c 33 7d
        E 115 8c 33 7d
        E 0 9c 44 7d
        E 89 8c 44 7d
        E 0 9c 30 7d
        E 51 8c 30 7d
        E 0 9c 30 7d
        E 76 8c 30 7d
        E 0 9c 33 7d
        E 115 8c 33 7d
        E 0 9c 44 7d
        E 89 8c 44 7d
        E 0 9c 30 7d
        E 51 8c 30 7d
        E 0 9c 30 7d
        E 76 8c 30 7d
        E 0 9c 33 7d
        E 115 8c 33 7d
        E 0 9c 44 7d
        E 89 8c 44 7d
        E 0 9c 30 7d
        E 51 8c 30 7d
        E 0 9c 30 7d
        E 76 8c 30 7d
        E 0 9c 33 7d
        E 115 8c 33 7d
        E 0 9c 44 7d
        E 89 8c 44 7d
        E 0 9c 30 7d
        E 51 8c 30 7d
        E 0 9c 30 7d
        E 76 8c 30 7d
        E 0 9c 33 7d
        E 115 8c 33 7d
        E 0 9c 44 7d
        E 89 8c 44 7d
        E 0 9c 30 7d
        E 51 8c 30 7d
        E 0 9c 30 7d
        E 76 8c 30 7d
        E 0 9c 33 7d
        E 115 8c 33 7d
        E 0 9c 44 7d
        E 89 8c 44 7d
        E 0 9c 30 7d
        E 51 8c 30 7d
        E 0 9c 30 7d
        E 76 8c 30 7d
        E 0 9c 33 7d
        E 115 8c 33 7d
        E 0 9c 44 7d
        E 89 8c 44 7d
        E 0 9c 30 7d
        E 51 8c 30 7d
        E 0 9c 30 7d
        E 76 8c 30 7d
        E 0 9c 33 7d
        E 115 8c 33 7d
        E 0 9c 44 7d
        E 89 8c 44 7d
        E 0 9c 30 7d
        E 51 8c 30 7d
        E 0 9c 30 7d
        E 76 8c 30 7d
        E 0 9c 33 7d
        E 115 8c 33 7d
        E 0 9c 44 7d
        E 89 8c 44 7d
        E 0 9c 30 7d
        E 51 8c 30 7d
        E 0 9c 30 7d
        E 76 8c 30 7d
        E 0 9c 33 7d
        E 115 8c 33 7d
        E 0 9c 44 7d
        E 89 8c 44 7d
        E 0 9c 30 7d
        E 51 8c 30 7d
        E 0 9c 30 7d
        E 76 8c 30 7d
        E 0 9c 33 7d
        E 115 8c 33 7d
        E 0 9c 44 7d
        E 89 8c 44 7d
        E 0 9c 30 7d
        E 51 8c 30 7d
        E 0 9c 30 7d
        E 76 8c 30 7d
        E 0 9c 33 7d
        E 115 8c 33 7d
        E 0 9c 44 7d
        E 89 8c 44 7d
        E 0 9c 30 7d
        E 51 8c 30 7d
        E 0 9c 30 7d
        E 76 8c 30 7d
        E 0 9c 33 7d
        E 115 8c 33 7d
        E 0 9c 44 7d
        E 89 8c 44 7d
        E 0 9c 30 7d
        E 51 8c 30 7d
        E 0 9c 30 7d
        E 76 8c 30 7d
        E 0 9c 33 7d
        E 115 8c 33 7d
        E 0 9c 44 7d
        E 89 8c 44 7d
        E 0 9c 30 7d
        E 51 8c 30 7d
        E 0 9c 30 7d
        E 76 8c 30 7d
        E 0 9c 33 7d
        E 115 8c 33 7d
        E 0 9c 44 7d
        E 89 8c 44 7d
        E 0 9c 30 7d
        E 51 8c 30 7d
        E 0 9c 30 7d
        E 76 8c 30 7d
        E 0 9c 33 7d
        E 115 8c 33 7d
        E 0 9c 44 7d
        E 89 8c 44 7d
        E 0 9c 30 7d
        E 51 8c 30 7d
        E 0 9c 30 7d
        E 76 8c 30 7d
        E 0 9c 33 7d
        E 115 8c 33 7d
        E 0 9c 44 7d
        E 89 8c 44 7d
        E 0 9c 30 7d
        E 51 8c 30 7d
        E 0 9c 30 7d
        E 76 8c 30 7d
        E 0 9c 33 7d
        E 115 8c 33 7d
        E 0 9c 44 7d
        E 89 8c 44 7d
        E 0 9c 30 7d
        E 51 8c 30 7d
        E 0 9c 30 7d
        E 76 8c 30 7d
        E 0 9c 33 7d
        E 115 8c 33 7d
        E 0 9c 44 7d
        E 89 8c 44 7d
        E 0 9c 30 7d
        E 51 8c 30 7d
        E 0 9c 30 7d
        E 76 8c 30 7d
        E 0 9c 33 7d
        E 115 8c 33 7d
        E 0 9c 44 7d
        E 89 8c 44 7d
        E 0 9c 30 7d
        E 51 8c 30 7d
        E 0 9c 30 7d
        E 76 8c 30 7d
        E 0 9c 33 7d
        E 115 8c 33 7d
        E 0 9c 44 7d
        E 89 8c 44 7d
        E 0 9c 30 7d
        E 51 8c 30 7d
        E 0 9c 30 7d
        E 76 8c 30 7d
        E 0 9c 33 7d
        E 115 8c 33 7d
        E 0 9c 44 7d
        E 89 8c 44 7d
        E 0 9c 30 7d
        E 51 8c 30 7d
        E 0 9c 30 7d
        E 76 8c 30 7d
        E 0 9c 33 7d
        E 115 8c 33 7d
        E 0 9c 44 7d
        E 89 8c 44 7d
        E 0 9c 30 7d
        E 51 8c 30 7d
        E 0 9c 30 7d
        E 76 8c 30 7d
        E 0 9c 33 7d
        E 115 8c 33 7d
        E 0 9c 44 7d
        E 89 8c 44 7d
        E 0 9c 30 7d
        E 51 8c 30 7d
        E 0 9c 30 7d
        E 76 8c 30 7d
        E 0 9c 33 7d
        E 115 8c 33 7d
        E 0 9c 44 7d
        E 89 8c 44 7d
        E 0 9c 30 7d
        E 51 8c 30 7d
        E 0 9c 30 7d
        E 76 8c 30 7d
        E 0 9c 33 7d
        E 115 8c 33 7d
        E 0 9c 44 7d
        E 89 8c 44 7d
        E 0 9c 30 7d
        E 51 8c 30 7d
        E 0 9c 30 7d
        E 76 8c 30 7d
        E 0 9c 33 7d
        E 115 8c 33 7d
        E 0 9c 44 7d
        E 89 8c 44 7d
        E 0 9c 30 7d
        E 51 8c 30 7d
        E 0 9c 30 7d
        E 76 8c 30 7d
        E 0 9c 33 7d
        E 115 8c 33 7d
        E 0 9c 44 7d
        E 89 8c 44 7d
        E 0 9c 30 7d
        E 51 8c 30 7d
        E 0 9c 30 7d
        E 76 8c 30 7d
        E 0 9c 33 7d
        E 115 8c 33 7d
        E 0 9c 44 7d
        E 89 8c 44 7d
        E 0 9c 30 7d
        E 51 8c 30 7d
        E 0 9c 30 7d
        E 76 8c 30 7d
        E 0 9c 33 7d
        E 115 8c 33 7d
        E 0 9c 44 7d
        E 89 8c 44 7d
        E 0 9c 30 7d
        E 51 8c 30 7d
        E 0 9c 30 7d
        E 76 8c 30 7d
        E 0 9c 33 7d
        E 115 8c 33 7d
        E 0 9c 44 7d
        E 89 8c 44 7d
        E 0 9c 30 7d
        E 51 8c 30 7d
        E 0 9c 30 7d
        E 76 8c 30 7d
        E 0 9c 33 7d
        E 115 8c 33 7d
        E 0 9c 44 7d
        E 89 8c 44 7d
        E 0 9c 30 7d
        E 51 8c 30 7d
        E 0 9c 30 7d
        E 76 8c 30 7d
        E 0 9c 33 7d
        E 115 8c 33 7d
        E 0 9c 44 7d
        E 89 8c 44 7d
        E 0 9c 30 7d
        E 51 8c 30 7d
        E 0 9c 30 7d
        E 76 8c 30 7d
        E 0 9c 33 7d
        E 115 8c 33 7d
        E 0 9c 44 7d
        E 89 8c 44 7d
        E 0 9c 30 7d
        E 51 8c 30 7d
        E 0 9c 30 7d
        E 76 8c 30 7d
        E 0 9c 33 7d
        E 115 8c 33 7d
        E 0 9c 44 7d
        E 89 8c 44 7d
        E 0 9c 30 7d
        E 51 8c 30 7d
        E 0 9c 30 7d
        E 76 8c 30 7d
        E 0 9c 33 7d
        E 115 8c 33 7d
        E 0 9c 44 7d
        E 89 8c 44 7d
        E 0 9c 30 7d
        E 51 8c 30 7d
        E 0 9c 30 7d
        E 76 8c 30 7d
        E 0 9c 33 7d
        E 115 8c 33 7d
        E 0 9c 44 7d
        E 89 8c 44 7d
        E 0 9c 30 7d
        E 51 8c 30 7d
        E 0 9c 30 7d
        E 76 8c 30 7d
        E 0 9c 33 7d
        E 115 8c 33 7d
        E 0 9c 44 7d
        E 89 8c 44 7d
        E 0 9c 30 7d
        E 51 8c 30 7d
        E 0 9c 30 7d
        E 76 8c 30 7d
        E 0 9c 33 7d
        E 115 8c 33 7d
        E 0 9c 44 7d
        E 89 8c 44 7d
        E 0 9c 30 7d
        E 51 8c 30 7d
        E 0 9c 30 7d
        E 76 8c 30 7d
        E 0 9c 33 7d
        E 115 8c 33 7d
        E 0 9c 44 7d
        E 89 8c 44 7d
        E 0 9c 30 7d
        E 51 8c 30 7d
        E 0 9c 30 7d
        E 76 8c 30 7d
        E 0 9c 33 7d
        E 115 8c 33 7d
        E 0 9c 44 7d
        E 89 8c 44 7d
        E 0 9c 30 7d
        E 51 8c 30 7d
        E 0 9c 30 7d
        E 76 8c 30 7d
        E 0 9c 33 7d
        E 115 8c 33 7d
        E 0 9c 44 7d
        E 89 8c 44 7d
        E 0 9c 30 7d
        E 51 8c 30 7d
        E 0 9c 30 7d
        E 76 8c 30 7d
        E 0 9c 33 7d
        E 115 8c 33 7d
        E 0 9c 44 7d
        E 89 8c 44 7d
        E 0 9c 30 7d
        E 51 8c 30 7d
        E 0 9c 30 7d
        E 76 8c 30 7d
        E 0 9c 33 7d
        E 115 8c 33 7d
        E 0 9c 44 7d
        E 89 8c 44 7d
        E 0 9c 30 7d
        E 51 8c 30 7d
        E 0 9c 30 7d
        E 76 8c 30 7d
        E 0 9c 33 7d
        E 115 8c 33 7d
        E 0 9c 44 7d
        E 89 8c 44 7d
        E 0 9c 30 7d
        E 51 8c 30 7d
        E 0 9c 30 7d
        E 76 8c 30 7d
        E 0 9c 33 7d
        E 115 8c 33 7d
        E 0 9c 44 7d
        E 89 8c 44 7d
        E 0 9c 30 7d
        E 51 8c 30 7d
        E 0 9c 30 7d
        E 76 8c 30 7d
        E 0 9c 33 7d
        E 115 8c 33 7d
        E 0 9c 44 7d
        E 89 8c 44 7d
        E 0 9c 30 7d
        E 51 8c 30 7d
        E 0 9c 30 7d
        E 76 8c 30 7d
        E 0 9c 33 7d
        E 115 8c 33 7d
        E 0 9c 44 7d
        E 89 8c 44 7d
        E 0 9c 41 7d
        E 102 8c 41 7d
        E 0 9c 43 7d
        E 0 9c 35 7d
        E 115 8c 35 7d
        E 0 9c 44 7d
        E 38 8c 44 7d
        E 0 9c 3a 7d
        E 102 8c 3a 7d
        E 0 9c 43 7d
        E 76 8c 43 7d
        E 0 9c 33 7d
        E 51 8c 33 7d
        E 0 9c 30 7d
        E 51 8c 30 7d
        E 0 9c 30 7d
        E 51 8c 30 7d
        E 0 9c 41 7d
        E 102 8c 41 7d
        E 0 9c 43 7d
        E 0 9c 35 7d
        E 115 8c 35 7d
        E 0 9c 44 7d
        E 38 8c 44 7d
        E 0 9c 3a 7d
        E 102 8c 3a 7d
        E 0 9c 43 7d
        E 76 8c 43 7d
        E 0 9c 33 7d
        E 51 8c 33 7d
        E 0 9c 30 7d
        E 51 8c 30 7d
        E 0 9c 30 7d
        E 51 8c 30 7d
        E 0 9c 41 7d
        E 102 8c 41 7d
        E 0 9c 43 7d
        E 0 9c 35 7d
        E 115 8c 35 7d
        E 0 9c 44 7d
        E 38 8c 44 7d
        E 0 9c 3a 7d
        E 102 8c 3a 7d
        E 0 9c 43 7d
        E 76 8c 43 7d
        E 0 9c 33 7d
        E 51 8c 33 7d
        E 0 9c 30 7d
        E 51 8c 30 7d
        E 0 9c 30 7d
        E 51 8c 30 7d
        E 0 9c 41 7d
        E 102 8c 41 7d
        E 0 9c 43 7d
        E 0 9c 35 7d
        E 115 8c 35 7d
        E 0 9c 44 7d
        E 38 8c 44 7d
        E 0 9c 3a 7d
        E 102 8c 3a 7d
        E 0 9c 43 7d
        E 76 8c 43 7d
        E 0 9c 33 7d
        E 51 8c 33 7d
        E 0 9c 30 7d
        E 51 8c 30 7d
        E 0 9c 30 7d
        E 51 8c 30 7d
        E 0 9c 41 7d
        E 102 8c 41 7d
        E 0 9c 43 7d
        E 0 9c 35 7d
        E 115 8c 35 7d
        E 0 9c 44 7d
        E 38 8c 44 7d
        E 0 9c 3a 7d
        E 102 8c 3a 7d
        E 0 9c 43 7d
        E 76 8c 43 7d
        E 0 9c 33 7d
        E 51 8c 33 7d
        E 0 9c 30 7d
        E 51 8c 30 7d
        E 0 9c 30 7d
        E 51 8c 30 7d
        E 0 9c 41 7d
        E 102 8c 41 7d
        E 0 9c 43 7d
        E 0 9c 35 7d
        E 115 8c 35 7d
        E 0 9c 44 7d
        E 38 8c 44 7d
        E 0 9c 3a 7d
        E 102 8c 3a 7d
        E 0 9c 43 7d
        E 76 8c 43 7d
        E 0 9c 33 7d
        E 51 8c 33 7d
        E 0 9c 30 7d
        E 51 8c 30 7d
        E 0 9c 30 7d
        E 51 8c 30 7d
        E 0 9c 41 7d
        E 102 8c 41 7d
        E 0 9c 43 7d
        E 0 9c 35 7d
        E 115 8c 35 7d
        E 0 9c 44 7d
        E 38 8c 44 7d
        E 0 9c 3a 7d
        E 102 8c 3a 7d
        E 0 9c 43 7d
        E 76 8c 43 7d
        E 0 9c 33 7d
        E 51 8c 33 7d
        E 0 9c 30 7d
        E 51 8c 30 7d
        E 0 9c 30 7d
        E 51 8c 30 7d
        E 0 9c 41 7d
        E 102 8c 41 7d
        E 0 9c 43 7d
        E 0 9c 35 7d
        E 115 8c 35 7d
        E 0 9c 44 7d
        E 38 8c 44 7d
        E 0 9c 3a 7d
        E 102 8c 3a 7d
        E 0 9c 43 7d
        E 76 8c 43 7d
        E 0 9c 33 7d
        E 51 8c 33 7d
        E 0 9c 30 7d
        E 51 8c 30 7d
        E 0 9c 30 7d
        E 51 8c 30 7d
        E 0 9c 41 7d
        E 102 8c 41 7d
        E 0 9c 43 7d
        E 0 9c 35 7d
        E 115 8c 35 7d
        E 0 9c 44 7d
        E 38 8c 44 7d
        E 0 9c 3a 7d
        E 102 8c 3a 7d
        E 0 9c 43 7d
        E 76 8c 43 7d
        E 0 9c 33 7d
        E 51 8c 33 7d
        E 0 9c 30 7d
        E 51 8c 30 7d
        E 0 9c 30 7d
        E 51 8c 30 7d
        E 0 9c 41 7d
        E 102 8c 41 7d
        E 0 9c 43 7d
        E 0 9c 35 7d
        E 115 8c 35 7d
        E 0 9c 44 7d
        E 38 8c 44 7d
        E 0 9c 3a 7d
        E 102 8c 3a 7d
        E 0 9c 43 7d
        E 76 8c 43 7d
        E 0 9c 33 7d
        E 51 8c 33 7d
        E 0 9c 30 7d
        E 51 8c 30 7d
        E 0 9c 30 7d
        E 51 8c 30 7d
        E 0 9c 41 7d
        E 102 8c 41 7d
        E 0 9c 43 7d
        E 0 9c 35 7d
        E 115 8c 35 7d
        E 0 9c 44 7d
        E 38 8c 44 7d
        E 0 9c 3a 7d
        E 102 8c 3a 7d
        E 0 9c 43 7d
        E 76 8c 43 7d
        E 0 9c 33 7d
        E 51 8c 33 7d
        E 0 9c 30 7d
        E 51 8c 30 7d
        E 0 9c 30 7d
        E 51 8c 30 7d
        E 0 9c 41 7d
        E 102 8c 41 7d
        E 0 9c 43 7d
        E 0 9c 35 7d
        E 115 8c 35 7d
        E 0 9c 44 7d
        E 38 8c 44 7d
        E 0 9c 3a 7d
        E 102 8c 3a 7d
        E 0 9c 43 7d
        E 76 8c 43 7d
        E 0 9c 33 7d
        E 51 8c 33 7d
        E 0 9c 30 7d
        E 51 8c 30 7d
        E 0 9c 30 7d
        E 51 8c 30 7d
        E 0 9c 41 7d
        E 102 8c 41 7d
        E 0 9c 43 7d
        E 0 9c 35 7d
        E 115 8c 35 7d
        E 0 9c 44 7d
        E 38 8c 44 7d
        E 0 9c 3a 7d
        E 102 8c 3a 7d
        E 0 9c 43 7d
        E 76 8c 43 7d
        E 0 9c 33 7d
        E 51 8c 33 7d
        E 0 9c 30 7d
        E 51 8c 30 7d
        E 0 9c 30 7d
        E 51 8c 30 7d
        E 0 9c 41 7d
        E 102 8c 41 7d
        E 0 9c 43 7d
        E 0 9c 35 7d
        E 115 8c 35 7d
        E 0 9c 44 7d
        E 38 8c 44 7d
        E 0 9c 3a 7d
        E 102 8c 3a 7d
        E 0 9c 43 7d
        E 76 8c 43 7d
        E 0 9c 33 7d
        E 51 8c 33 7d
        E 0 9c 30 7d
        E 51 8c 30 7d
        E 0 9c 30 7d
        E 51 8c 30 7d
        E 0 9c 41 7d
        E 102 8c 41 7d
        E 0 9c 43 7d
        E 0 9c 35 7d
        E 115 8c 35 7d
        E 0 9c 44 7d
        E 38 8c 44 7d
        E 0 9c 3a 7d
        E 102 8c 3a 7d
        E 0 9c 43 7d
        E 76 8c 43 7d
        E 0 9c 33 7d
        E 51 8c 33 7d
        E 0 9c 30 7d
        E 51 8c 30 7d
        E 0 9c 30 7d
        E 51 8c 30 7d
        E 0 9c 41 7d
        E 102 8c 41 7d
        E 0 9c 43 7d
        E 0 9c 35 7d
        E 115 8c 35 7d
        E 0 9c 44 7d
        E 38 8c 44 7d
        E 0 9c 3a 7d
        E 102 8c 3a 7d
        E 0 9c 43 7d
        E 76 8c 43 7d
        E 0 9c 33 7d
        E 51 8c 33 7d
        E 0 9c 30 7d
        E 51 8c 30 7d
        E 0 9c 30 7d
        E 51 8c 30 7d
        E 0 9c 41 7d
        E 102 8c 41 7d
        E 0 9c 43 7d
        E 0 9c 35 7d
        E 115 8c 35 7d
        E 0 9c 44 7d
        E 38 8c 44 7d
        E 0 9c 3a 7d
        E 102 8c 3a 7d
        E 0 9c 43 7d
        E 76 8c 43 7d
        E 0 9c 33 7d
        E 51 8c 33 7d
        E 0 9c 30 7d
        E 51 8c 30 7d
        E 0 9c 30 7d
        E 51 8c 30 7d
        E 0 9c 41 7d
        E 102 8c 41 7d
        E 0 9c 43 7d
        E 0 9c 35 7d
        E 115 8c 35 7d
        E 0 9c 44 7d
        E 38 8c 44 7d
        E 0 9c 3a 7d
        E 102 8c 3a 7d
        E 0 9c 43 7d
        E 76 8c 43 7d
        E 0 9c 33 7d
        E 51 8c 33 7d
        E 0 9c 30 7d
        E 51 8c 30 7d
        E 0 9c 30 7d
        E 51 8c 30 7d
        E 0 9c 41 7d
        E 102 8c 41 7d
        E 0 9c 43 7d
        E 0 9c 35 7d
        E 115 8c 35 7d
        E 0 9c 44 7d
        E 38 8c 44 7d
        E 0 9c 3a 7d
        E 102 8c 3a 7d
        E 0 9c 43 7d
        E 76 8c 43 7d
        E 0 9c 33 7d
        E 51 8c 33 7d
        E 0 9c 30 7d
        E 51 8c 30 7d
        E 0 9c 30 7d
        E 51 8c 30 7d
        E 0 9c 41 7d
        E 102 8c 41 7d
        E 0 9c 43 7d
        E 0 9c 35 7d
        E 115 8c 35 7d
        E 0 9c 44 7d
        E 38 8c 44 7d
        E 0 9c 3a 7d
        E 102 8c 3a 7d
        E 0 9c 43 7d
        E 76 8c 43 7d
        E 0 9c 33 7d
        E 51 8c 33 7d
        E 0 9c 30 7d
        E 51 8c 30 7d
        E 0 9c 30 7d
        E 51 8c 30 7d
        E 0 9c 41 7d
        E 102 8c 41 7d
        E 0 9c 43 7d
        E 0 9c 35 7d
        E 115 8c 35 7d
        E 0 9c 44 7d
        E 38 8c 44 7d
        E 0 9c 3a 7d
        E 102 8c 3a 7d
        E 0 9c 43 7d
        E 76 8c 43 7d
        E 0 9c 33 7d
        E 51 8c 33 7d
        E 0 9c 30 7d
        E 51 8c 30 7d
        E 0 9c 30 7d
        E 51 8c 30 7d
        E 0 9c 41 7d
        E 102 8c 41 7d
        E 0 9c 43 7d
        E 0 9c 35 7d
        E 115 8c 35 7d
        E 0 9c 44 7d
        E 38 8c 44 7d
        E 0 9c 3a 7d
        E 102 8c 3a 7d
        E 0 9c 43 7d
        E 76 8c 43 7d
        E 0 9c 33 7d
        E 51 8c 33 7d
        E 0 9c 30 7d
        E 51 8c 30 7d
        E 0 9c 30 7d
        E 51 8c 30 7d
        E 0 9c 41 7d
        E 102 8c 41 7d
        E 0 9c 43 7d
        E 0 9c 35 7d
        E 115 8c 35 7d
        E 0 9c 44 7d
        E 38 8c 44 7d
        E 0 9c 3a 7d
        E 102 8c 3a 7d
        E 0 9c 43 7d
        E 76 8c 43 7d
        E 0 9c 33 7d
        E 51 8c 33 7d
        E 0 9c 30 7d
        E 51 8c 30 7d
        E 0 9c 30 7d
        E 51 8c 30 7d
        E 0 9c 41 7d
        E 102 8c 41 7d
        E 0 9c 43 7d
        E 0 9c 35 7d
        E 115 8c 35 7d
        E 0 9c 44 7d
        E 38 8c 44 7d
        E 0 9c 3a 7d
        E 102 8c 3a 7d
        E 0 9c 43 7d
        E 76 8c 43 7d
        E 0 9c 33 7d
        E 51 8c 33 7d
        E 0 9c 30 7d
        E 51 8c 30 7d
        E 0 9c 30 7d
        E 51 8c 30 7d
        E 0 9c 41 7d
        E 102 8c 41 7d
        E 0 9c 43 7d
        E 0 9c 35 7d
        E 115 8c 35 7d
        E 0 9c 44 7d
        E 38 8c 44 7d
        E 0 9c 3a 7d
        E 102 8c 3a 7d
        E 0 9c 43 7d
        E 76 8c 43 7d
        E 0 9c 33 7d
        E 51 8c 33 7d
        E 0 9c 30 7d
        E 51 8c 30 7d
        E 0 9c 30 7d
        E 51 8c 30 7d
        E 0 9c 41 7d
        E 102 8c 41 7d
        E 0 9c 43 7d
        E 0 9c 35 7d
        E 115 8c 35 7d
        E 0 9c 44 7d
        E 38 8c 44 7d
        E 0 9c 3a 7d
        E 102 8c 3a 7d
        E 0 9c 43 7d
        E 76 8c 43 7d
        E 0 9c 33 7d
        E 51 8c 33 7d
        E 0 9c 30 7d
        E 51 8c 30 7d
        E 0 9c 30 7d
        E 51 8c 30 7d
        E 0 9c 41 7d
        E 102 8c 41 7d
        E 0 9c 43 7d
        E 0 9c 35 7d
        E 115 8c 35 7d
        E 0 9c 44 7d
        E 38 8c 44 7d
        E 0 9c 3a 7d
        E 102 8c 3a 7d
        E 0 9c 43 7d
        E 76 8c 43 7d
        E 0 9c 33 7d
        E 51 8c 33 7d
        E 0 9c 30 7d
        E 51 8c 30 7d
        E 0 9c 30 7d
        E 51 8c 30 7d
        E 0 9c 41 7d
        E 102 8c 41 7d
        E 0 9c 43 7d
        E 0 9c 35 7d
        E 115 8c 35 7d
        E 0 9c 44 7d
        E 38 8c 44 7d
        E 0 9c 3a 7d
        E 102 8c 3a 7d
        E 0 9c 43 7d
        E 76 8c 43 7d
        E 0 9c 33 7d
        E 51 8c 33 7d
        E 0 9c 30 7d
        E 51 8c 30 7d
        E 0 9c 30 7d
        E 51 8c 30 7d
        E 0 9c 41 7d
        E 102 8c 41 7d
        E 0 9c 43 7d
        E 0 9c 35 7d
        E 115 8c 35 7d
        E 0 9c 44 7d
        E 38 8c 44 7d
        E 0 9c 3a 7d
        E 102 8c 3a 7d
        E 0 9c 43 7d
        E 76 8c 43 7d
        E 0 9c 33 7d
        E 51 8c 33 7d
        E 0 9c 30 7d
        E 51 8c 30 7d
        E 0 9c 30 7d
        E 51 8c 30 7d
        E 0 9c 41 7d
        E 102 8c 41 7d
        E 0 9c 43 7d
        E 0 9c 35 7d
        E 115 8c 35 7d
        E 0 9c 44 7d
        E 38 8c 44 7d
        E 0 9c 3a 7d
        E 102 8c 3a 7d
        E 0 9c 43 7d
        E 76 8c 43 7d
        E 0 9c 33 7d
        E 51 8c 33 7d
        E 0 9c 30 7d
        E 51 8c 30 7d
        E 0 9c 30 7d
        E 51 8c 30 7d
        E 0 9c 41 7d
        E 102 8c 41 7d
        E 0 9c 43 7d
        E 0 9c 35 7d
        E 115 8c 35 7d
        E 0 9c 44 7d
        E 38 8c 44 7d
        E 0 9c 3a 7d
        E 102 8c 3a 7d
        E 0 9c 43 7d
        E 76 8c 43 7d
        E 0 9c 33 7d
        E 51 8c 33 7d
        E 0 9c 30 7d
        E 51 8c 30 7d
        E 0 9c 30 7d
        E 51 8c 30 7d
        E 0 9c 41 7d
        E 102 8c 41 7d
        E 0 9c 43 7d
        E 0 9c 35 7d
        E 115 8c 35 7d
        E 0 9c 44 7d
        E 38 8c 44 7d
        E 0 9c 3a 7d
        E 102 8c 3a 7d
        E 0 9c 43 7d
        E 76 8c 43 7d
        E 0 9c 33 7d
        E 51 8c 33 7d
        E 0 9c 30 7d
        E 51 8c 30 7d
        E 0 9c 30 7d
        E 51 8c 30 7d
        E 0 9c 41 7d
        E 102 8c 41 7d
        E 0 9c 43 7d
        E 0 9c 35 7d
        E 115 8c 35 7d
        E 0 9c 44 7d
        E 38 8c 44 7d
        E 0 9c 3a 7d
        E 102 8c 3a 7d
        E 0 9c 43 7d
        E 76 8c 43 7d
        E 0 9c 33 7d
        E 51 8c 33 7d
        E 0 9c 30 7d
        E 51 8c 30 7d
        E 0 9c 30 7d
        E 51 8c 30 7d
        E 0 9c 41 7d
        E 102 8c 41 7d
        E 0 9c 43 7d
        E 0 9c 35 7d
        E 115 8c 35 7d
        E 0 9c 44 7d
        E 38 8c 44 7d
        E 0 9c 3a 7d
        E 102 8c 3a 7d
        E 0 9c 43 7d
        E 76 8c 43 7d
        E 0 9c 33 7d
        E 51 8c 33 7d
        E 0 9c 30 7d
        E 51 8c 30 7d
        E 0 9c 30 7d
        E 51 8c 30 7d
        E 0 9c 41 7d
        E 102 8c 41 7d
        E 0 9c 43 7d
        E 0 9c 35 7d
        E 115 8c 35 7d
        E 0 9c 44 7d
        E 38 8c 44 7d
        E 0 9c 3a 7d
        E 102 8c 3a 7d
        E 0 9c 43 7d
        E 76 8c 43 7d
        E 0 9c 33 7d
        E 51 8c 33 7d
        E 0 9c 30 7d
        E 51 8c 30 7d
        E 0 9c 30 7d
        E 51 8c 30 7d
        E 0 9c 41 7d
        E 102 8c 41 7d
        E 0 9c 43 7d
        E 0 9c 35 7d
        E 115 8c 35 7d
        E 0 9c 44 7d
        E 38 8c 44 7d
        E 0 9c 3a 7d
        E 102 8c 3a 7d
        E 0 9c 43 7d
        E 76 8c 43 7d
        E 0 9c 33 7d
        E 51 8c 33 7d
        E 0 9c 30 7d
        E 51 8c 30 7d
        E 0 9c 30 7d
        E 51 8c 30 7d
        E 0 9c 41 7d
        E 102 8c 41 7d
        E 0 9c 43 7d
        E 0 9c 35 7d
        E 115 8c 35 7d
        E 0 9c 44 7d
        E 38 8c 44 7d
        E 0 9c 3a 7d
        E 102 8c 3a 7d
        E 0 9c 43 7d
        E 76 8c 43 7d
        E 0 9c 33 7d
        E 51 8c 33 7d
        E 0 9c 30 7d
        E 51 8c 30 7d
        E 0 9c 30 7d
        E 51 8c 30 7d
        E 0 9c 41 7d
        E 102 8c 41 7d
        E 0 9c 43 7d
        E 0 9c 35 7d
        E 115 8c 35 7d
        E 0 9c 44 7d
        E 38 8c 44 7d
        E 0 9c 3a 7d
        E 102 8c 3a 7d
        E 0 9c 43 7d
        E 76 8c 43 7d
        E 0 9c 33 7d
        E 51 8c 33 7d
        E 0 9c 30 7d
        E 51 8c 30 7d
        E 0 9c 30 7d
        E 51 8c 30 7d
        E 0 9c 41 7d
        E 102 8c 41 7d
        E 0 9c 43 7d
        E 0 9c 35 7d
        E 115 8c 35 7d
        E 0 9c 44 7d
        E 38 8c 44 7d
        E 0 9c 3a 7d
        E 102 8c 3a 7d
        E 0 9c 43 7d
        E 76 8c 43 7d
        E 0 9c 33 7d
        E 51 8c 33 7d
        E 0 9c 30 7d
        E 51 8c 30 7d
        E 0 9c 30 7d
        E 51 8c 30 7d
        E 0 9c 41 7d
        E 102 8c 41 7d
        E 0 9c 43 7d
        E 0 9c 35 7d
        E 115 8c 35 7d
        E 0 9c 44 7d
        E 38 8c 44 7d
        E 0 9c 3a 7d
        E 102 8c 3a 7d
        E 0 9c 43 7d
        E 76 8c 43 7d
        E 0 9c 33 7d
        E 51 8c 33 7d
        E 0 9c 30 7d
        E 51 8c 30 7d
        E 0 9c 30 7d
        E 51 8c 30 7d
        E 0 9c 41 7d
        E 102 8c 41 7d
        E 0 9c 43 7d
        E 0 9c 35 7d
        E 115 8c 35 7d
        E 0 9c 44 7d
        E 38 8c 44 7d
        E 0 9c 3a 7d
        E 102 8c 3a 7d
        E 0 9c 43 7d
        E 76 8c 43 7d
        E 0 9c 33 7d
        E 51 8c 33 7d
        E 0 9c 30 7d
        E 51 8c 30 7d
        E 0 9c 30 7d
        E 51 8c 30 7d
        E 0 9c 41 7d
        E 102 8c 41 7d
        E 0 9c 43 7d
        E 0 9c 35 7d
        E 115 8c 35 7d
        E 0 9c 44 7d
        E 38 8c 44 7d
        E 0 9c 3a 7d
        E 102 8c 3a 7d
        E 0 9c 43 7d
        E 76 8c 43 7d
        E 0 9c 33 7d
        E 51 8c 33 7d
        E 0 9c 30 7d
        E 51 8c 30 7d
        E 0 9c 30 7d
        E 51 8c 30 7d
        E 0 9c 41 7d
        E 102 8c 41 7d
        E 0 9c 43 7d
        E 0 9c 35 7d
        E 115 8c 35 7d
        E 0 9c 44 7d
        E 38 8c 44 7d
        E 0 9c 3a 7d
        E 102 8c 3a 7d
        E 0 9c 43 7d
        E 76 8c 43 7d
        E 0 9c 33 7d
        E 51 8c 33 7d
        E 0 9c 30 7d
        E 51 8c 30 7d
        E 0 9c 30 7d
        E 51 8c 30 7d
        E 0 9c 41 7d
        E 102 8c 41 7d
        E 0 9c 43 7d
        E 0 9c 35 7d
        E 115 8c 35 7d
        E 0 9c 44 7d
        E 38 8c 44 7d
        E 0 9c 3a 7d
        E 102 8c 3a 7d
        E 0 9c 43 7d
        E 76 8c 43 7d
        E 0 9c 33 7d
        E 51 8c 33 7d
        E 0 9c 30 7d
        E 51 8c 30 7d
        E 0 9c 30 7d
        E 51 8c 30 7d
        E 0 9c 41 7d
        E 102 8c 41 7d
        E 0 9c 43 7d
        E 0 9c 35 7d
        E 115 8c 35 7d
        E 0 9c 44 7d
        E 38 8c 44 7d
        E 0 9c 3a 7d
        E 102 8c 3a 7d
        E 0 9c 43 7d
        E 76 8c 43 7d
        E 0 9c 33 7d
        E 51 8c 33 7d
        E 0 9c 30 7d
        E 51 8c 30 7d
        E 0 9c 30 7d
        E 51 8c 30 7d
        E 0 9c 41 7d
        E 102 8c 41 7d
        E 0 9c 43 7d
        E 0 9c 35 7d
        E 115 8c 35 7d
        E 0 9c 44 7d
        E 38 8c 44 7d
        E 0 9c 3a 7d
        E 102 8c 3a 7d
        E 0 9c 43 7d
        E 76 8c 43 7d
        E 0 9c 33 7d
        E 51 8c 33 7d
        E 0 9c 30 7d
        E 51 8c 30 7d
        E 0 9c 30 7d
        E 51 8c 30 7d
        E 0 9c 41 7d
        E 102 8c 41 7d
        E 0 9c 43 7d
        E 0 9c 35 7d
        E 115 8c 35 7d
        E 0 9c 44 7d
        E 38 8c 44 7d
        E 0 9c 3a 7d
        E 102 8c 3a 7d
        E 0 9c 43 7d
        E 76 8c 43 7d
        E 0 9c 33 7d
        E 51 8c 33 7d
        E 0 9c 30 7d
        E 51 8c 30 7d
        E 0 9c 30 7d
        E 51 8c 30 7d
        E 0 9c 41 7d
        E 102 8c 41 7d
        E 0 9c 43 7d
        E 0 9c 35 7d
        E 115 8c 35 7d
        E 0 9c 44 7d
        E 38 8c 44 7d
        E 0 9c 3a 7d
        E 102 8c 3a 7d
        E 0 9c 43 7d
        E 76 8c 43 7d
        E 0 9c 33 7d
        E 51 8c 33 7d
        E 0 9c 30 7d
        E 51 8c 30 7d
        E 0 9c 30 7d
        E 51 8c 30 7d
        E 0 9c 41 7d
        E 102 8c 41 7d
        E 0 9c 43 7d
        E 0 9c 35 7d
        E 115 8c 35 7d
        E 0 9c 44 7d
        E 38 8c 44 7d
        E 0 9c 3a 7d
        E 102 8c 3a 7d
        E 0 9c 43 7d
        E 76 8c 43 7d
        E 0 9c 33 7d
        E 51 8c 33 7d
        E 0 9c 30 7d
        E 51 8c 30 7d
        E 0 9c 30 7d
        E 51 8c 30 7d
        E 0 9c 41 7d
        E 102 8c 41 7d
        E 0 9c 43 7d
        E 0 9c 35 7d
        E 115 8c 35 7d
        E 0 9c 44 7d
        E 38 8c 44 7d
        E 0 9c 3a 7d
        E 102 8c 3a 7d
        E 0 9c 43 7d
        E 76 8c 43 7d
        E 0 9c 33 7d
        E 51 8c 33 7d
        E 0 9c 30 7d
        E 51 8c 30 7d
        E 0 9c 30 7d
        E 51 8c 30 7d
        E 0 9c 41 7d
        E 102 8c 41 7d
        E 0 9c 43 7d
        E 0 9c 35 7d
        E 115 8c 35 7d
        E 0 9c 44 7d
        E 38 8c 44 7d
        E 0 9c 3a 7d
        E 102 8c 3a 7d
        E 0 9c 43 7d
        E 76 8c 43 7d
        E 0 9c 33 7d
        E 51 8c 33 7d
        E 0 9c 30 7d
        E 51 8c 30 7d
        E 0 9c 30 7d
        E 51 8c 30 7d
        E 0 9c 41 7d
        E 102 8c 41 7d
        E 0 9c 43 7d
        E 0 9c 35 7d
        E 115 8c 35 7d
        E 0 9c 44 7d
        E 38 8c 44 7d
        E 0 9c 3a 7d
        E 102 8c 3a 7d
        E 0 9c 43 7d
        E 76 8c 43 7d
        E 0 9c 33 7d
        E 51 8c 33 7d
        E 0 9c 30 7d
        E 51 8c 30 7d
        E 0 9c 30 7d
        E 51 8c 30 7d
        E 0 9c 41 7d
        E 102 8c 41 7d
        E 0 9c 43 7d
        E 0 9c 35 7d
        E 115 8c 35 7d
        E 0 9c 44 7d
        E 38 8c 44 7d
        E 0 9c 3a 7d
        E 102 8c 3a 7d
        E 0 9c 43 7d
        E 76 8c 43 7d
        E 0 9c 33 7d
        E 51 8c 33 7d
        E 0 9c 30 7d
        E 51 8c 30 7d
        E 0 9c 30 7d
        E 51 8c 30 7d
        E 0 9c 41 7d
        E 102 8c 41 7d
        E 0 9c 43 7d
        E 0 9c 35 7d
        E 115 8c 35 7d
        E 0 9c 44 7d
        E 38 8c 44 7d
        E 0 9c 3a 7d
        E 102 8c 3a 7d
        E 0 9c 43 7d
        E 76 8c 43 7d
        E 0 9c 33 7d
        E 51 8c 33 7d
        E 0 9c 30 7d
        E 51 8c 30 7d
        E 0 9c 30 7d
        E 51 8c 30 7d
        E 0 9c 41 7d
        E 102 8c 41 7d
        E 0 9c 43 7d
        E 0 9c 35 7d
        E 115 8c 35 7d
        E 0 9c 44 7d
        E 38 8c 44 7d
        E 0 9c 3a 7d
        E 102 8c 3a 7d
        E 0 9c 43 7d
        E 76 8c 43 7d
        E 0 9c 33 7d
        E 51 8c 33 7d
        E 0 9c 30 7d
        E 51 8c 30 7d
        E 0 9c 30 7d
        E 51 8c 30 7d
        E 0 9c 41 7d
        E 102 8c 41 7d
        E 0 9c 43 7d
        E 0 9c 35 7d
        E 115 8c 35 7d
        E 0 9c 44 7d
        E 38 8c 44 7d
        E 0 9c 3a 7d
        E 102 8c 3a 7d
        E 0 9c 43 7d
        E 76 8c 43 7d
        E 0 9c 33 7d
        E 51 8c 33 7d
        E 0 9c 30 7d
        E 51 8c 30 7d
        E 0 9c 30 7d
        E 51 8c 30 7d
        E 0 9c 41 7d
        E 102 8c 41 7d
        E 0 9c 43 7d
        E 0 9c 35 7d
        E 115 8c 35 7d
        E 0 9c 44 7d
        E 38 8c 44 7d
        E 0 9c 3a 7d
        E 102 8c 3a 7d
        E 0 9c 43 7d
        E 76 8c 43 7d
        E 0 9c 33 7d
        E 51 8c 33 7d
        E 0 9c 30 7d
        E 51 8c 30 7d
        E 0 9c 30 7d
        E 51 8c 30 7d
        E 0 9c 41 7d
        E 102 8c 41 7d
        E 0 9c 43 7d
        E 0 9c 35 7d
        E 115 8c 35 7d
        E 0 9c 44 7d
        E 38 8c 44 7d
        E 0 9c 3a 7d
        E 102 8c 3a 7d
        E 0 9c 43 7d
        E 76 8c 43 7d
        E 0 9c 33 7d
        E 51 8c 33 7d
        E 0 9c 30 7d
        E 51 8c 30 7d
        E 0 9c 30 7d
        E 51 8c 30 7d
        E 0 9c 41 7d
        E 102 8c 41 7d
        E 0 9c 43 7d
        E 0 9c 35 7d
        E 115 8c 35 7d
        E 0 9c 44 7d
        E 38 8c 44 7d
        E 0 9c 3a 7d
        E 102 8c 3a 7d
        E 0 9c 43 7d
        E 76 8c 43 7d
        E 0 9c 33 7d
        E 51 8c 33 7d
        E 0 9c 30 7d
        E 51 8c 30 7d
        E 0 9c 30 7d
        E 51 8c 30 7d
        E 0 9c 41 7d
        E 102 8c 41 7d
        E 0 9c 43 7d
        E 0 9c 35 7d
        E 115 8c 35 7d
        E 0 9c 44 7d
        E 38 8c 44 7d
        E 0 9c 3a 7d
        E 102 8c 3a 7d
        E 0 9c 43 7d
        E 76 8c 43 7d
        E 0 9c 33 7d
        E 51 8c 33 7d
        E 0 9c 30 7d
        E 51 8c 30 7d
        E 0 9c 30 7d
        E 51 8c 30 7d
        E 0 9c 41 7d
        E 102 8c 41 7d
        E 0 9c 43 7d
        E 0 9c 35 7d
        E 115 8c 35 7d
        E 0 9c 44 7d
        E 38 8c 44 7d
        E 0 9c 3a 7d
        E 102 8c 3a 7d
        E 0 9c 43 7d
        E 76 8c 43 7d
        E 0 9c 33 7d
        E 51 8c 33 7d
        E 0 9c 30 7d
        E 51 8c 30 7d
        E 0 9c 30 7d
        E 51 8c 30 7d
        E 0 9c 41 7d
        E 102 8c 41 7d
        E 0 9c 43 7d
        E 0 9c 35 7d
        E 115 8c 35 7d
        E 0 9c 44 7d
        E 38 8c 44 7d
        E 0 9c 3a 7d
        E 102 8c 3a 7d
        E 0 9c 43 7d
        E 76 8c 43 7d
        E 0 9c 33 7d
        E 51 8c 33 7d
        E 0 9c 30 7d
        E 51 8c 30 7d
        E 0 9c 30 7d
        E 51 8c 30 7d
        E 0 9c 41 7d
        E 102 8c 41 7d
        E 0 9c 43 7d
        E 0 9c 35 7d
        E 115 8c 35 7d
        E 0 9c 44 7d
        E 38 8c 44 7d
        E 0 9c 3a 7d
        E 102 8c 3a 7d
        E 0 9c 43 7d
        E 76 8c 43 7d
        E 0 9c 33 7d
        E 51 8c 33 7d
        E 0 9c 30 7d
        E 51 8c 30 7d
        E 0 9c 30 7d
        E 51 8c 30 7d
        E 0 9c 41 7d
        E 102 8c 41 7d
        E 0 9c 43 7d
        E 0 9c 35 7d
        E 115 8c 35 7d
        E 0 9c 44 7d
        E 38 8c 44 7d
        E 0 9c 3a 7d
        E 102 8c 3a 7d
        E 0 9c 43 7d
        E 76 8c 43 7d
        E 0 9c 33 7d
        E 51 8c 33 7d
        E 0 9c 30 7d
        E 51 8c 30 7d
        E 0 9c 30 7d
        E 51 8c 30 7d
        E 0 9c 41 7d
        E 102 8c 41 7d
        E 0 9c 43 7d
        E 0 9c 35 7d
        E 115 8c 35 7d
        E 0 9c 44 7d
        E 38 8c 44 7d
        E 0 9c 3a 7d
        E 102 8c 3a 7d
        E 0 9c 43 7d
        E 76 8c 43 7d
        E 0 9c 33 7d
        E 51 8c 33 7d
        E 0 9c 30 7d
        E 51 8c 30 7d
        E 0 9c 30 7d
        E 51 8c 30 7d
        E 0 9c 41 7d
        E 102 8c 41 7d
        E 0 9c 43 7d
        E 0 9c 35 7d
        E 115 8c 35 7d
        E 0 9c 44 7d
        E 38 8c 44 7d
        E 0 9c 3a 7d
        E 102 8c 3a 7d
        E 0 9c 43 7d
        E 76 8c 43 7d
        E 0 9c 33 7d
        E 51 8c 33 7d
        E 0 9c 30 7d
        E 51 8c 30 7d
        E 0 9c 30 7d
        E 51 8c 30 7d
        E 0 9c 41 7d
        E 102 8c 41 7d
        E 0 9c 43 7d
        E 0 9c 35 7d
        E 115 8c 35 7d
        E 0 9c 44 7d
        E 38 8c 44 7d
        E 0 9c 3a 7d
        E 102 8c 3a 7d
        E 0 9c 43 7d
        E 76 8c 43 7d
        E 0 9c 33 7d
        E 51 8c 33 7d
        E 0 9c 30 7d
        E 51 8c 30 7d
        E 0 9c 30 7d
        E 51 8c 30 7d
        E 0 9c 41 7d
        E 102 8c 41 7d
        E 0 9c 43 7d
        E 0 9c 35 7d
        E 115 8c 35 7d
        E 0 9c 44 7d
        E 38 8c 44 7d
        E 0 9c 3a 7d
        E 102 8c 3a 7d
        E 0 9c 43 7d
        E 76 8c 43 7d
        E 0 9c 33 7d
        E 51 8c 33 7d
        E 0 9c 30 7d
        E 51 8c 30 7d
        E 0 9c 30 7d
        E 51 8c 30 7d
        E 0 9c 41 7d
        E 102 8c 41 7d
        E 0 9c 43 7d
        E 0 9c 35 7d
        E 115 8c 35 7d
        E 0 9c 44 7d
        E 38 8c 44 7d
        E 0 9c 3a 7d
        E 102 8c 3a 7d
        E 0 9c 43 7d
        E 76 8c 43 7d
        E 0 9c 33 7d
        E 51 8c 33 7d
        E 0 9c 30 7d
        E 51 8c 30 7d
        E 0 9c 30 7d
        E 51 8c 30 7d
        E 0 9c 41 7d
        E 102 8c 41 7d
        E 0 9c 43 7d
        E 0 9c 35 7d
        E 115 8c 35 7d
        E 0 9c 44 7d
        E 38 8c 44 7d
        E 0 9c 3a 7d
        E 102 8c 3a 7d
        E 0 9c 43 7d
        E 76 8c 43 7d
        E 0 9c 33 7d
        E 51 8c 33 7d
        E 0 9c 30 7d
        E 51 8c 30 7d
        E 0 9c 30 7d
        E 51 8c 30 7d
        E 0 9c 41 7d
        E 102 8c 41 7d
        E 0 9c 43 7d
        E 0 9c 35 7d
        E 115 8c 35 7d
        E 0 9c 44 7d
        E 38 8c 44 7d
        E 0 9c 3a 7d
        E 102 8c 3a 7d
        E 0 9c 43 7d
        E 76 8c 43 7d
        E 0 9c 33 7d
        E 51 8c 33 7d
        E 0 9c 30 7d
        E 51 8c 30 7d
        E 0 9c 30 7d
        E 51 8c 30 7d
        E 0 9c 41 7d
        E 102 8c 41 7d
        E 0 9c 43 7d
        E 0 9c 35 7d
        E 115 8c 35 7d
        E 0 9c 44 7d
        E 38 8c 44 7d
        E 0 9c 3a 7d
        E 102 8c 3a 7d
        E 0 9c 43 7d
        E 76 8c 43 7d
        E 0 9c 33 7d
        E 51 8c 33 7d
        E 0 9c 30 7d
        E 51 8c 30 7d
        E 0 9c 30 7d
        E 51 8c 30 7d
        E 0 9c 41 7d
        E 102 8c 41 7d
        E 0 9c 43 7d
        E 0 9c 35 7d
        E 115 8c 35 7d
        E 0 9c 44 7d
        E 38 8c 44 7d
        E 0 9c 3a 7d
        E 102 8c 3a 7d
        E 0 9c 43 7d
        E 76 8c 43 7d
        E 0 9c 33 7d
        E 51 8c 33 7d
        E 0 9c 30 7d
        E 51 8c 30 7d
        E 0 9c 30 7d
        E 51 8c 30 7d
        E 0 9c 41 7d
        E 102 8c 41 7d
        E 0 9c 43 7d
        E 0 9c 35 7d
        E 115 8c 35 7d
        E 0 9c 44 7d
        E 38 8c 44 7d
        E 0 9c 3a 7d
        E 102 8c 3a 7d
        E 0 9c 43 7d
        E 76 8c 43 7d
        E 0 9c 33 7d
        E 51 8c 33 7d
        E 0 9c 30 7d
        E 51 8c 30 7d
        E 0 9c 30 7d
        E 51 8c 30 7d
        E 0 9c 41 7d
        E 102 8c 41 7d
        E 0 9c 43 7d
        E 0 9c 35 7d
        E 115 8c 35 7d
        E 0 9c 44 7d
        E 38 8c 44 7d
        E 0 9c 3a 7d
        E 102 8c 3a 7d
        E 0 9c 43 7d
        E 76 8c 43 7d
        E 0 9c 33 7d
        E 51 8c 33 7d
        E 0 9c 30 7d
        E 51 8c 30 7d
        E 0 9c 30 7d
        E 51 8c 30 7d
        E 0 9c 41 7d
        E 102 8c 41 7d
        E 0 9c 43 7d
        E 0 9c 35 7d
        E 115 8c 35 7d
        E 0 9c 44 7d
        E 38 8c 44 7d
        E 0 9c 3a 7d
        E 102 8c 3a 7d
        E 0 9c 43 7d
        E 76 8c 43 7d
        E 0 9c 33 7d
        E 51 8c 33 7d
        E 0 9c 30 7d
        E 51 8c 30 7d
        E 0 9c 30 7d
        E 51 8c 30 7d
        E 0 9c 41 7d
        E 102 8c 41 7d
        E 0 9c 43 7d
        E 0 9c 35 7d
        E 115 8c 35 7d
        E 0 9c 44 7d
        E 38 8c 44 7d
        E 0 9c 3a 7d
        E 102 8c 3a 7d
        E 0 9c 43 7d
        E 76 8c 43 7d
        E 0 9c 33 7d
        E 51 8c 33 7d
        E 0 9c 30 7d
        E 51 8c 30 7d
        E 0 9c 30 7d
        E 51 8c 30 7d
        E 0 9c 41 7d
        E 102 8c 41 7d
        E 0 9c 43 7d
        E 0 9c 35 7d
        E 115 8c 35 7d
        E 0 9c 44 7d
        E 38 8c 44 7d
        E 0 9c 3a 7d
        E 102 8c 3a 7d
        E 0 9c 43 7d
        E 76 8c 43 7d
        E 0 9c 33 7d
        E 51 8c 33 7d
        E 0 9c 30 7d
        E 51 8c 30 7d
        E 0 9c 30 7d
        E 51 8c 30 7d
        E 0 9c 41 7d
        E 102 8c 41 7d
        E 0 9c 43 7d
        E 0 9c 35 7d
        E 115 8c 35 7d
        E 0 9c 44 7d
        E 38 8c 44 7d
        E 0 9c 3a 7d
        E 102 8c 3a 7d
        E 0 9c 43 7d
        E 76 8c 43 7d
        E 0 9c 33 7d
        E 51 8c 33 7d
        E 0 9c 30 7d
        E 51 8c 30 7d
        E 0 9c 30 7d
        E 51 8c 30 7d
        E 0 9c 41 7d
        E 102 8c 41 7d
        E 0 9c 43 7d
        E 0 9c 35 7d
        E 115 8c 35 7d
        E 0 9c 44 7d
        E 38 8c 44 7d
        E 0 9c 3a 7d
        E 102 8c 3a 7d
        E 0 9c 43 7d
        E 76 8c 43 7d
        E 0 9c 33 7d
        E 51 8c 33 7d
        E 0 9c 30 7d
        E 51 8c 30 7d
        E 0 9c 30 7d
        E 51 8c 30 7d
        E 0 9c 41 7d
        E 102 8c 41 7d
        E 0 9c 43 7d
        E 0 9c 35 7d
        E 115 8c 35 7d
        E 0 9c 44 7d
        E 38 8c 44 7d
        E 0 9c 3a 7d
        E 102 8c 3a 7d
        E 0 9c 43 7d
        E 76 8c 43 7d
        E 0 9c 33 7d
        E 51 8c 33 7d
        E 0 9c 30 7d
        E 51 8c 30 7d
        E 0 9c 30 7d
        E 51 8c 30 7d
        E 0 9c 41 7d
        E 102 8c 41 7d
        E 0 9c 43 7d
        E 0 9c 35 7d
        E 115 8c 35 7d
        E 0 9c 44 7d
        E 38 8c 44 7d
        E 0 9c 3a 7d
        E 102 8c 3a 7d
        E 0 9c 43 7d
        E 76 8c 43 7d
        E 0 9c 33 7d
        E 51 8c 33 7d
        E 0 9c 30 7d
        E 51 8c 30 7d
        E 0 9c 30 7d
        E 51 8c 30 7d
        E 0 9c 41 7d
        E 102 8c 41 7d
        E 0 9c 43 7d
        E 0 9c 35 7d
        E 115 8c 35 7d
        E 0 9c 44 7d
        E 38 8c 44 7d
        E 0 9c 3a 7d
        E 102 8c 3a 7d
        E 0 9c 43 7d
        E 76 8c 43 7d
        E 0 9c 33 7d
        E 51 8c 33 7d
        E 0 9c 30 7d
        E 51 8c 30 7d
        E 0 9c 30 7d
        E 51 8c 30 7d
        E 0 9c 41 7d
        E 102 8c 41 7d
        E 0 9c 43 7d
        E 0 9c 35 7d
        E 115 8c 35 7d
        E 0 9c 44 7d
        E 38 8c 44 7d
        E 0 9c 3a 7d
        E 102 8c 3a 7d
        E 0 9c 43 7d
        E 76 8c 43 7d
        E 0 9c 33 7d
        E 51 8c 33 7d
        E 0 9c 30 7d
        E 51 8c 30 7d
        E 0 9c 30 7d
        E 51 8c 30 7d
        E 0 9c 41 7d
        E 102 8c 41 7d
        E 0 9c 43 7d
        E 0 9c 35 7d
        E 115 8c 35 7d
        E 0 9c 44 7d
        E 38 8c 44 7d
        E 0 9c 3a 7d
        E 102 8c 3a 7d
        E 0 9c 43 7d
        E 76 8c 43 7d
        E 0 9c 33 7d
        E 51 8c 33 7d
        E 0 9c 30 7d
        E 51 8c 30 7d
        E 0 9c 30 7d
        E 51 8c 30 7d
        E 0 9c 41 7d
        E 102 8c 41 7d
        E 0 9c 43 7d
        E 0 9c 35 7d
        E 115 8c 35 7d
        E 0 9c 44 7d
        E 38 8c 44 7d
        E 0 9c 3a 7d
        E 102 8c 3a 7d
        E 0 9c 43 7d
        E 76 8c 43 7d
        E 0 9c 33 7d
        E 51 8c 33 7d
        E 0 9c 30 7d
        E 51 8c 30 7d
        E 0 9c 30 7d
        E 51 8c 30 7d
        E 0 9c 41 7d
        E 102 8c 41 7d
        E 0 9c 43 7d
        E 0 9c 35 7d
        E 115 8c 35 7d
        E 0 9c 44 7d
        E 38 8c 44 7d
        E 0 9c 3a 7d
        E 102 8c 3a 7d
        E 0 9c 43 7d
        E 76 8c 43 7d
        E 0 9c 33 7d
        E 51 8c 33 7d
        E 0 9c 30 7d
        E 51 8c 30 7d
        E 0 9c 30 7d
        E 51 8c 30 7d
        E 0 9c 41 7d
        E 102 8c 41 7d
        E 0 9c 43 7d
        E 0 9c 35 7d
        E 115 8c 35 7d
        E 0 9c 44 7d
        E 38 8c 44 7d
        E 0 9c 3a 7d
        E 102 8c 3a 7d
        E 0 9c 43 7d
        E 76 8c 43 7d
        E 0 9c 33 7d
        E 51 8c 33 7d
        E 0 9c 30 7d
        E 51 8c 30 7d
        E 0 9c 30 7d
        E 51 8c 30 7d
        E 0 9c 41 7d
        E 102 8c 41 7d
        E 0 9c 43 7d
        E 0 9c 35 7d
        E 115 8c 35 7d
        E 0 9c 44 7d
        E 38 8c 44 7d
        E 0 9c 3a 7d
        E 102 8c 3a 7d
        E 0 9c 43 7d
        E 76 8c 43 7d
        E 0 9c 33 7d
        E 51 8c 33 7d
        E 0 9c 30 7d
        E 51 8c 30 7d
        E 0 9c 30 7d
        E 51 8c 30 7d
        E 0 9c 41 7d
        E 102 8c 41 7d
        E 0 9c 43 7d
        E 0 9c 35 7d
        E 115 8c 35 7d
        E 0 9c 44 7d
        E 38 8c 44 7d
        E 0 9c 3a 7d
        E 102 8c 3a 7d
        E 0 9c 43 7d
        E 76 8c 43 7d
        E 0 9c 33 7d
        E 51 8c 33 7d
        E 0 9c 30 7d
        E 51 8c 30 7d
        E 0 9c 30 7d
        E 51 8c 30 7d
        E 0 9c 44 7d
        E 89 8c 44 7d
        E 0 9c 41 7d
        E 102 8c 41 7d
        E 0 9c 43 7d
        E 0 9c 35 7d
        E 115 8c 35 7d
        E 0 9c 44 7d
        E 38 8c 44 7d
        E 0 9c 3a 7d
        E 102 8c 3a 7d
        E 0 9c 44 7d
        E 89 8c 44 7d
        E 0 9c 41 7d
        E 102 8c 41 7d
        E 0 9c 43 7d
        E 0 9c 35 7d
        E 115 8c 35 7d
        E 0 9c 44 7d
        E 38 8c 44 7d
        E 0 9c 3a 7d
        E 102 8c 3a 7d
        E 0 9c 44 7d
        E 89 8c 44 7d
        E 0 9c 41 7d
        E 102 8c 41 7d
        E 0 9c 43 7d
        E 0 9c 35 7d
        E 115 8c 35 7d
        E 0 9c 44 7d
        E 38 8c 44 7d
        E 0 9c 3a 7d
        E 102 8c 3a 7d
        E 0 9c 44 7d
        E 89 8c 44 7d
        E 0 9c 41 7d
        E 102 8c 41 7d
        E 0 9c 43 7d
        E 0 9c 35 7d
        E 115 8c 35 7d
        E 0 9c 44 7d
        E 38 8c 44 7d
        E 0 9c 3a 7d
        E 102 8c 3a 7d
        E 0 9c 44 7d
        E 89 8c 44 7d
        E 0 9c 41 7d
        E 102 8c 41 7d
        E 0 9c 43 7d
        E 0 9c 35 7d
        E 115 8c 35 7d
        E 0 9c 44 7d
        E 38 8c 44 7d
        E 0 9c 3a 7d
        E 102 8c 3a 7d
        E 0 9c 44 7d
        E 89 8c 44 7d
        E 0 9c 41 7d
        E 102 8c 41 7d
        E 0 9c 43 7d
        E 0 9c 35 7d
        E 115 8c 35 7d
        E 0 9c 44 7d
        E 38 8c 44 7d
        E 0 9c 3a 7d
        E 102 8c 3a 7d
        E 0 9c 44 7d
        E 89 8c 44 7d
        E 0 9c 41 7d
        E 102 8c 41 7d
        E 0 9c 43 7d
        E 0 9c 35 7d
        E 115 8c 35 7d
        E 0 9c 44 7d
        E 38 8c 44 7d
        E 0 9c 3a 7d
        E 102 8c 3a 7d
        E 0 9c 44 7d
        E 89 8c 44 7d
        E 0 9c 41 7d
        E 102 8c 41 7d
        E 0 9c 43 7d
        E 0 9c 35 7d
        E 115 8c 35 7d
        E 0 9c 44 7d
        E 38 8c 44 7d
        E 0 9c 3a 7d
        E 102 8c 3a 7d
        E 0 9c 44 7d
        E 89 8c 44 7d
        E 0 9c 41 7d
        E 102 8c 41 7d
        E 0 9c 43 7d
        E 0 9c 35 7d
        E 115 8c 35 7d
        E 0 9c 44 7d
        E 38 8c 44 7d
        E 0 9c 3a 7d
        E 102 8c 3a 7d
        E 0 9c 44 7d
        E 89 8c 44 7d
        E 0 9c 41 7d
        E 102 8c 41 7d
        E 0 9c 43 7d
        E 0 9c 35 7d
        E 115 8c 35 7d
        E 0 9c 44 7d
        E 38 8c 44 7d
        E 0 9c 3a 7d
        E 102 8c 3a 7d
        E 0 9c 44 7d
        E 89 8c 44 7d
        E 0 9c 41 7d
        E 102 8c 41 7d
        E 0 9c 43 7d
        E 0 9c 35 7d
        E 115 8c 35 7d
        E 0 9c 44 7d
        E 38 8c 44 7d
        E 0 9c 3a 7d
        E 102 8c 3a 7d
        E 0 9c 44 7d
        E 89 8c 44 7d
        E 0 9c 41 7d
        E 102 8c 41 7d
        E 0 9c 43 7d
        E 0 9c 35 7d
        E 115 8c 35 7d
        E 0 9c 44 7d
        E 38 8c 44 7d
        E 0 9c 3a 7d
        E 102 8c 3a 7d
        E 0 9c 44 7d
        E 89 8c 44 7d
        E 0 9c 41 7d
        E 102 8c 41 7d
        E 0 9c 43 7d
        E 0 9c 35 7d
        E 115 8c 35 7d
        E 0 9c 44 7d
        E 38 8c 44 7d
        E 0 9c 3a 7d
        E 102 8c 3a 7d
        E 0 9c 44 7d
        E 89 8c 44 7d
        E 0 9c 41 7d
        E 102 8c 41 7d
        E 0 9c 43 7d
        E 0 9c 35 7d
        E 115 8c 35 7d
        E 0 9c 44 7d
        E 38 8c 44 7d
        E 0 9c 3a 7d
        E 102 8c 3a 7d
        E 0 9c 44 7d
        E 89 8c 44 7d
        E 0 9c 41 7d
        E 102 8c 41 7d
        E 0 9c 43 7d
        E 0 9c 35 7d
        E 115 8c 35 7d
        E 0 9c 44 7d
        E 38 8c 44 7d
        E 0 9c 3a 7d
        E 102 8c 3a 7d
        E 0 9c 44 7d
        E 89 8c 44 7d
        E 0 9c 41 7d
        E 102 8c 41 7d
        E 0 9c 43 7d
        E 0 9c 35 7d
        E 115 8c 35 7d
        E 0 9c 44 7d
        E 38 8c 44 7d
        E 0 9c 3a 7d
        E 102 8c 3a 7d
        E 0 9c 44 7d
        E 89 8c 44 7d
        E 0 9c 41 7d
        E 102 8c 41 7d
        E 0 9c 43 7d
        E 0 9c 35 7d
        E 115 8c 35 7d
        E 0 9c 44 7d
        E 38 8c 44 7d
        E 0 9c 3a 7d
        E 102 8c 3a 7d
        E 0 9c 44 7d
        E 89 8c 44 7d
        E 0 9c 41 7d
        E 102 8c 41 7d
        E 0 9c 43 7d
        E 0 9c 35 7d
        E 115 8c 35 7d
        E 0 9c 44 7d
        E 38 8c 44 7d
        E 0 9c 3a 7d
        E 102 8c 3a 7d
        E 0 9c 44 7d
        E 89 8c 44 7d
        E 0 9c 41 7d
        E 102 8c 41 7d
        E 0 9c 43 7d
        E 0 9c 35 7d
        E 115 8c 35 7d
        E 0 9c 44 7d
        E 38 8c 44 7d
        E 0 9c 3a 7d
        E 102 8c 3a 7d
        E 0 9c 44 7d
        E 89 8c 44 7d
        E 0 9c 41 7d
        E 102 8c 41 7d
        E 0 9c 43 7d
        E 0 9c 35 7d
        E 115 8c 35 7d
        E 0 9c 44 7d
        E 38 8c 44 7d
        E 0 9c 3a 7d
        E 102 8c 3a 7d
        E 0 9c 44 7d
        E 89 8c 44 7d
        E 0 9c 41 7d
        E 102 8c 41 7d
        E 0 9c 43 7d
        E 0 9c 35 7d
        E 115 8c 35 7d
        E 0 9c 44 7d
        E 38 8c 44 7d
        E 0 9c 3a 7d
        E 102 8c 3a 7d
        E 0 9c 44 7d
        E 89 8c 44 7d
        E 0 9c 41 7d
        E 102 8c 41 7d
        E 0 9c 43 7d
        E 0 9c 35 7d
        E 115 8c 35 7d
        E 0 9c 44 7d
        E 38 8c 44 7d
        E 0 9c 3a 7d
        E 102 8c 3a 7d
        E 0 9c 44 7d
        E 89 8c 44 7d
        E 0 9c 41 7d
        E 102 8c 41 7d
        E 0 9c 43 7d
        E 0 9c 35 7d
        E 115 8c 35 7d
        E 0 9c 44 7d
        E 38 8c 44 7d
        E 0 9c 3a 7d
        E 102 8c 3a 7d
        E 0 9c 44 7d
        E 89 8c 44 7d
        E 0 9c 41 7d
        E 102 8c 41 7d
        E 0 9c 43 7d
        E 0 9c 35 7d
        E 115 8c 35 7d
        E 0 9c 44 7d
        E 38 8c 44 7d
        E 0 9c 3a 7d
        E 102 8c 3a 7d
        E 0 9c 44 7d
        E 89 8c 44 7d
        E 0 9c 41 7d
        E 102 8c 41 7d
        E 0 9c 43 7d
        E 0 9c 35 7d
        E 115 8c 35 7d
        E 0 9c 44 7d
        E 38 8c 44 7d
        E 0 9c 3a 7d
        E 102 8c 3a 7d
        E 0 9c 44 7d
        E 89 8c 44 7d
        E 0 9c 41 7d
        E 102 8c 41 7d
        E 0 9c 43 7d
        E 0 9c 35 7d
        E 115 8c 35 7d
        E 0 9c 44 7d
        E 38 8c 44 7d
        E 0 9c 3a 7d
        E 102 8c 3a 7d
        E 0 9c 44 7d
        E 89 8c 44 7d
        E 0 9c 41 7d
        E 102 8c 41 7d
        E 0 9c 43 7d
        E 0 9c 35 7d
        E 115 8c 35 7d
        E 0 9c 44 7d
        E 38 8c 44 7d
        E 0 9c 3a 7d
        E 102 8c 3a 7d
        E 0 9c 44 7d
        E 89 8c 44 7d
        E 0 9c 41 7d
        E 102 8c 41 7d
        E 0 9c 43 7d
        E 0 9c 35 7d
        E 115 8c 35 7d
        E 0 9c 44 7d
        E 38 8c 44 7d
        E 0 9c 3a 7d
        E 102 8c 3a 7d
        E 0 9c 44 7d
        E 89 8c 44 7d
        E 0 9c 41 7d
        E 102 8c 41 7d
        E 0 9c 43 7d
        E 0 9c 35 7d
        E 115 8c 35 7d
        E 0 9c 44 7d
        E 38 8c 44 7d
        E 0 9c 3a 7d
        E 102 8c 3a 7d
        E 0 9c 44 7d
        E 89 8c 44 7d
        E 0 9c 41 7d
        E 102 8c 41 7d
        E 0 9c 43 7d
        E 0 9c 35 7d
        E 115 8c 35 7d
        E 0 9c 44 7d
        E 38 8c 44 7d
        E 0 9c 3a 7d
        E 102 8c 3a 7d
        E 0 9c 3a 7d
        E 102 8c 3a 7d
        E 0 9c 43 7d
        E 76 8c 43 7d
        E 0 9c 33 7d
        E 51 8c 33 7d
        E 0 9c 30 7d
        E 51 8c 30 7d
        E 0 9c 30 7d
        E 51 8c 30 7d
        E 0 9c 30 7d
        E 51 8c 30 7d
        E 0 9c 30 7d
        E 76 8c 30 7d
        E 0 9c 33 7d
        E 115 8c 33 7d
        E 0 9c 44 7d
        E 89 8c 44 7d
        E 0 9c 3a 7d
        E 102 8c 3a 7d
        E 0 9c 43 7d
        E 76 8c 43 7d
        E 0 9c 33 7d
        E 51 8c 33 7d
        E 0 9c 30 7d
        E 51 8c 30 7d
        E 0 9c 30 7d
        E 51 8c 30 7d
        E 0 9c 30 7d
        E 51 8c 30 7d
        E 0 9c 30 7d
        E 76 8c 30 7d
        E 0 9c 33 7d
        E 115 8c 33 7d
        E 0 9c 44 7d
        E 89 8c 44 7d
        E 0 9c 3a 7d
        E 102 8c 3a 7d
        E 0 9c 43 7d
        E 76 8c 43 7d
        E 0 9c 33 7d
        E 51 8c 33 7d
        E 0 9c 30 7d
        E 51 8c 30 7d
        E 0 9c 30 7d
        E 51 8c 30 7d
        E 0 9c 30 7d
        E 51 8c 30 7d
        E 0 9c 30 7d
        E 76 8c 30 7d
        E 0 9c 33 7d
        E 115 8c 33 7d
        E 0 9c 44 7d
        E 89 8c 44 7d
        E 0 9c 3a 7d
        E 102 8c 3a 7d
        E 0 9c 43 7d
        E 76 8c 43 7d
        E 0 9c 33 7d
        E 51 8c 33 7d
        E 0 9c 30 7d
        E 51 8c 30 7d
        E 0 9c 30 7d
        E 51 8c 30 7d
        E 0 9c 30 7d
        E 51 8c 30 7d
        E 0 9c 30 7d
        E 76 8c 30 7d
        E 0 9c 33 7d
        E 115 8c 33 7d
        E 0 9c 44 7d
        E 89 8c 44 7d
        E 0 9c 3a 7d
        E 102 8c 3a 7d
        E 0 9c 43 7d
        E 76 8c 43 7d
        E 0 9c 33 7d
        E 51 8c 33 7d
        E 0 9c 30 7d
        E 51 8c 30 7d
        E 0 9c 30 7d
        E 51 8c 30 7d
        E 0 9c 30 7d
        E 51 8c 30 7d
        E 0 9c 30 7d
        E 76 8c 30 7d
        E 0 9c 33 7d
        E 115 8c 33 7d
        E 0 9c 44 7d
        E 89 8c 44 7d
        E 0 9c 3a 7d
        E 102 8c 3a 7d
        E 0 9c 43 7d
        E 76 8c 43 7d
        E 0 9c 33 7d
        E 51 8c 33 7d
        E 0 9c 30 7d
        E 51 8c 30 7d
        E 0 9c 30 7d
        E 51 8c 30 7d
        E 0 9c 30 7d
        E 51 8c 30 7d
        E 0 9c 30 7d
        E 76 8c 30 7d
        E 0 9c 33 7d
        E 115 8c 33 7d
        E 0 9c 44 7d
        E 89 8c 44 7d
        E 0 9c 3a 7d
        E 102 8c 3a 7d
        E 0 9c 43 7d
        E 76 8c 43 7d
        E 0 9c 33 7d
        E 51 8c 33 7d
        E 0 9c 30 7d
        E 51 8c 30 7d
        E 0 9c 30 7d
        E 51 8c 30 7d
        E 0 9c 30 7d
        E 51 8c 30 7d
        E 0 9c 30 7d
        E 76 8c 30 7d
        E 0 9c 33 7d
        E 115 8c 33 7d
        E 0 9c 44 7d
        E 89 8c 44 7d
        E 0 9c 3a 7d
        E 102 8c 3a 7d
        E 0 9c 43 7d
        E 76 8c 43 7d
        E 0 9c 33 7d
        E 51 8c 33 7d
        E 0 9c 30 7d
        E 51 8c 30 7d
        E 0 9c 30 7d
        E 51 8c 30 7d
        E 0 9c 30 7d
        E 51 8c 30 7d
        E 0 9c 30 7d
        E 76 8c 30 7d
        E 0 9c 33 7d
        E 115 8c 33 7d
        E 0 9c 44 7d
        E 89 8c 44 7d
        E 0 9c 3a 7d
        E 102 8c 3a 7d
        E 0 9c 43 7d
        E 76 8c 43 7d
        E 0 9c 33 7d
        E 51 8c 33 7d
        E 0 9c 30 7d
        E 51 8c 30 7d
        E 0 9c 30 7d
        E 51 8c 30 7d
        E 0 9c 30 7d
        E 51 8c 30 7d
        E 0 9c 30 7d
        E 76 8c 30 7d
        E 0 9c 33 7d
        E 115 8c 33 7d
        E 0 9c 44 7d
        E 89 8c 44 7d
        E 0 9c 3a 7d
        E 102 8c 3a 7d
        E 0 9c 43 7d
        E 76 8c 43 7d
        E 0 9c 33 7d
        E 51 8c 33 7d
        E 0 9c 30 7d
        E 51 8c 30 7d
        E 0 9c 30 7d
        E 51 8c 30 7d
        E 0 9c 30 7d
        E 51 8c 30 7d
        E 0 9c 30 7d
        E 76 8c 30 7d
        E 0 9c 33 7d
        E 115 8c 33 7d
        E 0 9c 44 7d
        E 89 8c 44 7d
        E 0 9c 3a 7d
        E 102 8c 3a 7d
        E 0 9c 43 7d
        E 76 8c 43 7d
        E 0 9c 33 7d
        E 51 8c 33 7d
        E 0 9c 30 7d
        E 51 8c 30 7d
        E 0 9c 30 7d
        E 51 8c 30 7d
        E 0 9c 30 7d
        E 51 8c 30 7d
        E 0 9c 30 7d
        E 76 8c 30 7d
        E 0 9c 33 7d
        E 115 8c 33 7d
        E 0 9c 44 7d
        E 89 8c 44 7d
        E 0 9c 3a 7d
        E 102 8c 3a 7d
        E 0 9c 43 7d
        E 76 8c 43 7d
        E 0 9c 33 7d
        E 51 8c 33 7d
        E 0 9c 30 7d
        E 51 8c 30 7d
        E 0 9c 30 7d
        E 51 8c 30 7d
        E 0 9c 30 7d
        E 51 8c 30 7d
        E 0 9c 30 7d
        E 76 8c 30 7d
        E 0 9c 33 7d
        E 115 8c 33 7d
        E 0 9c 44 7d
        E 89 8c 44 7d
        E 0 9c 3a 7d
        E 102 8c 3a 7d
        E 0 9c 43 7d
        E 76 8c 43 7d
        E 0 9c 33 7d
        E 51 8c 33 7d
        E 0 9c 30 7d
        E 51 8c 30 7d
        E 0 9c 30 7d
        E 51 8c 30 7d
        E 0 9c 30 7d
        E 51 8c 30 7d
        E 0 9c 30 7d
        E 76 8c 30 7d
        E 0 9c 33 7d
        E 115 8c 33 7d
        E 0 9c 44 7d
        E 89 8c 44 7d
        E 0 9c 3a 7d
        E 102 8c 3a 7d
        E 0 9c 43 7d
        E 76 8c 43 7d
        E 0 9c 33 7d
        E 51 8c 33 7d
        E 0 9c 30 7d
        E 51 8c 30 7d
        E 0 9c 30 7d
        E 51 8c 30 7d
        E 0 9c 30 7d
        E 51 8c 30 7d
        E 0 9c 30 7d
        E 76 8c 30 7d
        E 0 9c 33 7d
        E 115 8c 33 7d
        E 0 9c 44 7d
        E 89 8c 44 7d
        E 0 9c 3a 7d
        E 102 8c 3a 7d
        E 0 9c 43 7d
        E 76 8c 43 7d
        E 0 9c 33 7d
        E 51 8c 33 7d
        E 0 9c 30 7d
        E 51 8c 30 7d
        E 0 9c 30 7d
        E 51 8c 30 7d
        E 0 9c 30 7d
        E 51 8c 30 7d
        E 0 9c 30 7d
        E 76 8c 30 7d
        E 0 9c 33 7d
        E 115 8c 33 7d
        E 0 9c 44 7d
        E 89 8c 44 7d
        E 0 9c 3a 7d
        E 102 8c 3a 7d
        E 0 9c 43 7d
        E 76 8c 43 7d
        E 0 9c 33 7d
        E 51 8c 33 7d
        E 0 9c 30 7d
        E 51 8c 30 7d
        E 0 9c 30 7d
        E 51 8c 30 7d
        E 0 9c 30 7d
        E 51 8c 30 7d
        E 0 9c 30 7d
        E 76 8c 30 7d
        E 0 9c 33 7d
        E 115 8c 33 7d
        E 0 9c 44 7d
        E 89 8c 44 7d
        E 0 9c 3a 7d
        E 102 8c 3a 7d
        E 0 9c 43 7d
        E 76 8c 43 7d
        E 0 9c 33 7d
        E 51 8c 33 7d
        E 0 9c 30 7d
        E 51 8c 30 7d
        E 0 9c 30 7d
        E 51 8c 30 7d
        E 0 9c 30 7d
        E 51 8c 30 7d
        E 0 9c 30 7d
        E 76 8c 30 7d
        E 0 9c 33 7d
        E 115 8c 33 7d
        E 0 9c 44 7d
        E 89 8c 44 7d
        E 0 9c 3a 7d
        E 102 8c 3a 7d
        E 0 9c 43 7d
        E 76 8c 43 7d
        E 0 9c 33 7d
        E 51 8c 33 7d
        E 0 9c 30 7d
        E 51 8c 30 7d
        E 0 9c 30 7d
        E 51 8c 30 7d
        E 0 9c 30 7d
        E 51 8c 30 7d
        E 0 9c 30 7d
        E 76 8c 30 7d
        E 0 9c 33 7d
        E 115 8c 33 7d
        E 0 9c 44 7d
        E 89 8c 44 7d
        E 0 9c 3a 7d
        E 102 8c 3a 7d
        E 0 9c 43 7d
        E 76 8c 43 7d
        E 0 9c 33 7d
        E 51 8c 33 7d
        E 0 9c 30 7d
        E 51 8c 30 7d
        E 0 9c 30 7d
        E 51 8c 30 7d
        E 0 9c 30 7d
        E 51 8c 30 7d
        E 0 9c 30 7d
        E 76 8c 30 7d
        E 0 9c 33 7d
        E 115 8c 33 7d
        E 0 9c 44 7d
        E 89 8c 44 7d
        E 0 9c 3a 7d
        E 102 8c 3a 7d
        E 0 9c 43 7d
        E 76 8c 43 7d
        E 0 9c 33 7d
        E 51 8c 33 7d
        E 0 9c 30 7d
        E 51 8c 30 7d
        E 0 9c 30 7d
        E 51 8c 30 7d
        E 0 9c 30 7d
        E 51 8c 30 7d
        E 0 9c 30 7d
        E 76 8c 30 7d
        E 0 9c 33 7d
        E 115 8c 33 7d
        E 0 9c 44 7d
        E 89 8c 44 7d
        E 0 9c 3a 7d
        E 102 8c 3a 7d
        E 0 9c 43 7d
        E 76 8c 43 7d
        E 0 9c 33 7d
        E 51 8c 33 7d
        E 0 9c 30 7d
        E 51 8c 30 7d
        E 0 9c 30 7d
        E 51 8c 30 7d
        E 0 9c 30 7d
        E 51 8c 30 7d
        E 0 9c 30 7d
        E 76 8c 30 7d
        E 0 9c 33 7d
        E 115 8c 33 7d
        E 0 9c 44 7d
        E 89 8c 44 7d
        E 0 9c 3a 7d
        E 102 8c 3a 7d
        E 0 9c 43 7d
        E 76 8c 43 7d
        E 0 9c 33 7d
        E 51 8c 33 7d
        E 0 9c 30 7d
        E 51 8c 30 7d
        E 0 9c 30 7d
        E 51 8c 30 7d
        E 0 9c 30 7d
        E 51 8c 30 7d
        E 0 9c 30 7d
        E 76 8c 30 7d
        E 0 9c 33 7d
        E 115 8c 33 7d
        E 0 9c 44 7d
        E 89 8c 44 7d
        E 0 9c 3a 7d
        E 102 8c 3a 7d
        E 0 9c 43 7d
        E 76 8c 43 7d
        E 0 9c 33 7d
        E 51 8c 33 7d
        E 0 9c 30 7d
        E 51 8c 30 7d
        E 0 9c 30 7d
        E 51 8c 30 7d
        E 0 9c 30 7d
        E 51 8c 30 7d
        E 0 9c 30 7d
        E 76 8c 30 7d
        E 0 9c 33 7d
        E 115 8c 33 7d
        E 0 9c 44 7d
        E 89 8c 44 7d
        E 0 9c 3a 7d
        E 102 8c 3a 7d
        E 0 9c 43 7d
        E 76 8c 43 7d
        E 0 9c 33 7d
        E 51 8c 33 7d
        E 0 9c 30 7d
        E 51 8c 30 7d
        E 0 9c 30 7d
        E 51 8c 30 7d
        E 0 9c 30 7d
        E 51 8c 30 7d
        E 0 9c 30 7d
        E 76 8c 30 7d
        E 0 9c 33 7d
        E 115 8c 33 7d
        E 0 9c 44 7d
        E 89 8c 44 7d
        E 0 9c 3a 7d
        E 102 8c 3a 7d
        E 0 9c 43 7d
        E 76 8c 43 7d
        E 0 9c 33 7d
        E 51 8c 33 7d
        E 0 9c 30 7d
        E 51 8c 30 7d
        E 0 9c 30 7d
        E 51 8c 30 7d
        E 0 9c 30 7d
        E 51 8c 30 7d
        E 0 9c 30 7d
        E 76 8c 30 7d
        E 0 9c 33 7d
        E 115 8c 33 7d
        E 0 9c 44 7d
        E 89 8c 44 7d
        E 0 9c 3a 7d
        E 102 8c 3a 7d
        E 0 9c 43 7d
        E 76 8c 43 7d
        E 0 9c 33 7d
        E 51 8c 33 7d
        E 0 9c 30 7d
        E 51 8c 30 7d
        E 0 9c 30 7d
        E 51 8c 30 7d
        E 0 9c 30 7d
        E 51 8c 30 7d
        E 0 9c 30 7d
        E 76 8c 30 7d
        E 0 9c 33 7d
        E 115 8c 33 7d
        E 0 9c 44 7d
        E 89 8c 44 7d
        E 0 9c 3a 7d
        E 102 8c 3a 7d
        E 0 9c 43 7d
        E 76 8c 43 7d
        E 0 9c 33 7d
        E 51 8c 33 7d
        E 0 9c 30 7d
        E 51 8c 30 7d
        E 0 9c 30 7d
        E 51 8c 30 7d
        E 0 9c 30 7d
        E 51 8c 30 7d
        E 0 9c 30 7d
        E 76 8c 30 7d
        E 0 9c 33 7d
        E 115 8c 33 7d
        E 0 9c 44 7d
        E 89 8c 44 7d
        E 0 9c 3a 7d
        E 102 8c 3a 7d
        E 0 9c 43 7d
        E 76 8c 43 7d
        E 0 9c 33 7d
        E 51 8c 33 7d
        E 0 9c 30 7d
        E 51 8c 30 7d
        E 0 9c 30 7d
        E 51 8c 30 7d
        E 0 9c 30 7d
        E 51 8c 30 7d
        E 0 9c 30 7d
        E 76 8c 30 7d
        E 0 9c 33 7d
        E 115 8c 33 7d
        E 0 9c 44 7d
        E 89 8c 44 7d
        E 0 9c 3a 7d
        E 102 8c 3a 7d
        E 0 9c 43 7d
        E 76 8c 43 7d
        E 0 9c 33 7d
        E 51 8c 33 7d
        E 0 9c 30 7d
        E 51 8c 30 7d
        E 0 9c 30 7d
        E 51 8c 30 7d
        E 0 9c 30 7d
        E 51 8c 30 7d
        E 0 9c 30 7d
        E 76 8c 30 7d
        E 0 9c 33 7d
        E 115 8c 33 7d
        E 0 9c 44 7d
        E 89 8c 44 7d
        E 0 9c 3a 7d
        E 102 8c 3a 7d
        E 0 9c 43 7d
        E 76 8c 43 7d
        E 0 9c 33 7d
        E 51 8c 33 7d
        E 0 9c 30 7d
        E 51 8c 30 7d
        E 0 9c 30 7d
        E 51 8c 30 7d
        E 0 9c 30 7d
        E 51 8c 30 7d
        E 0 9c 30 7d
        E 76 8c 30 7d
        E 0 9c 33 7d
        E 115 8c 33 7d
        E 0 9c 44 7d
        E 89 8c 44 7d
        E 0 9c 3a 7d
        E 102 8c 3a 7d
        E 0 9c 43 7d
        E 76 8c 43 7d
        E 0 9c 33 7d
        E 51 8c 33 7d
        E 0 9c 30 7d
        E 51 8c 30 7d
        E 0 9c 30 7d
        E 51 8c 30 7d
        E 0 9c 30 7d
        E 51 8c 30 7d
        E 0 9c 30 7d
        E 76 8c 30 7d
        E 0 9c 33 7d
        E 115 8c 33 7d
        E 0 9c 44 7d
        E 89 8c 44 7d
        E 0 9c 3a 7d
        E 102 8c 3a 7d
        E 0 9c 43 7d
        E 76 8c 43 7d
        E 0 9c 33 7d
        E 51 8c 33 7d
        E 0 9c 30 7d
        E 51 8c 30 7d
        E 0 9c 30 7d
        E 51 8c 30 7d
        E 0 9c 30 7d
        E 51 8c 30 7d
        E 0 9c 30 7d
        E 76 8c 30 7d
        E 0 9c 33 7d
        E 115 8c 33 7d
        E 0 9c 44 7d
        E 89 8c 44 7d
        E 0 9c 3a 7d
        E 102 8c 3a 7d
        E 0 9c 43 7d
        E 76 8c 43 7d
        E 0 9c 33 7d
        E 51 8c 33 7d
        E 0 9c 30 7d
        E 51 8c 30 7d
        E 0 9c 30 7d
        E 51 8c 30 7d
        E 0 9c 30 7d
        E 51 8c 30 7d
        E 0 9c 30 7d
        E 76 8c 30 7d
        E 0 9c 33 7d
        E 115 8c 33 7d
        E 0 9c 44 7d
        E 89 8c 44 7d
        E 0 9c 3a 7d
        E 102 8c 3a 7d
        E 0 9c 43 7d
        E 76 8c 43 7d
        E 0 9c 33 7d
        E 51 8c 33 7d
        E 0 9c 30 7d
        E 51 8c 30 7d
        E 0 9c 30 7d
        E 51 8c 30 7d
        E 0 9c 30 7d
        E 51 8c 30 7d
        E 0 9c 30 7d
        E 76 8c 30 7d
        E 0 9c 33 7d
        E 115 8c 33 7d
        E 0 9c 44 7d
        E 89 8c 44 7d
        E 0 9c 3a 7d
        E 102 8c 3a 7d
        E 0 9c 43 7d
        E 76 8c 43 7d
        E 0 9c 33 7d
        E 51 8c 33 7d
        E 0 9c 30 7d
        E 51 8c 30 7d
        E 0 9c 30 7d
        E 51 8c 30 7d
        E 0 9c 30 7d
        E 51 8c 30 7d
        E 0 9c 30 7d
        E 76 8c 30 7d
        E 0 9c 33 7d
        E 115 8c 33 7d
        E 0 9c 44 7d
        E 89 8c 44 7d
        E 0 9c 3a 7d
        E 102 8c 3a 7d
        E 0 9c 43 7d
        E 76 8c 43 7d
        E 0 9c 33 7d
        E 51 8c 33 7d
        E 0 9c 30 7d
        E 51 8c 30 7d
        E 0 9c 30 7d
        E 51 8c 30 7d
        E 0 9c 30 7d
        E 51 8c 30 7d
        E 0 9c 30 7d
        E 76 8c 30 7d
        E 0 9c 33 7d
        E 115 8c 33 7d
        E 0 9c 44 7d
        E 89 8c 44 7d
        E 0 9c 3a 7d
        E 102 8c 3a 7d
        E 0 9c 43 7d
        E 76 8c 43 7d
        E 0 9c 33 7d
        E 51 8c 33 7d
        E 0 9c 30 7d
        E 51 8c 30 7d
        E 0 9c 30 7d
        E 51 8c 30 7d
        E 0 9c 30 7d
        E 51 8c 30 7d
        E 0 9c 30 7d
        E 76 8c 30 7d
        E 0 9c 33 7d
        E 115 8c 33 7d
        E 0 9c 44 7d
        E 89 8c 44 7d
        E 0 9c 3a 7d
        E 102 8c 3a 7d
        E 0 9c 43 7d
        E 76 8c 43 7d
        E 0 9c 33 7d
        E 51 8c 33 7d
        E 0 9c 30 7d
        E 51 8c 30 7d
        E 0 9c 30 7d
        E 51 8c 30 7d
        E 0 9c 30 7d
        E 51 8c 30 7d
        E 0 9c 30 7d
        E 76 8c 30 7d
        E 0 9c 33 7d
        E 115 8c 33 7d
        E 0 9c 44 7d
        E 89 8c 44 7d
        E 0 9c 3a 7d
        E 102 8c 3a 7d
        E 0 9c 43 7d
        E 76 8c 43 7d
        E 0 9c 33 7d
        E 51 8c 33 7d
        E 0 9c 30 7d
        E 51 8c 30 7d
        E 0 9c 30 7d
        E 51 8c 30 7d
        E 0 9c 30 7d
        E 51 8c 30 7d
        E 0 9c 30 7d
        E 76 8c 30 7d
        E 0 9c 33 7d
        E 115 8c 33 7d
        E 0 9c 44 7d
        E 89 8c 44 7d
        E 0 9c 3a 7d
        E 102 8c 3a 7d
        E 0 9c 43 7d
        E 76 8c 43 7d
        E 0 9c 33 7d
        E 51 8c 33 7d
        E 0 9c 30 7d
        E 51 8c 30 7d
        E 0 9c 30 7d
        E 51 8c 30 7d
        E 0 9c 30 7d
        E 51 8c 30 7d
        E 0 9c 30 7d
        E 76 8c 30 7d
        E 0 9c 33 7d
        E 115 8c 33 7d
        E 0 9c 44 7d
        E 89 8c 44 7d
        E 0 9c 3a 7d
        E 102 8c 3a 7d
        E 0 9c 43 7d
        E 76 8c 43 7d
        E 0 9c 33 7d
        E 51 8c 33 7d
        E 0 9c 30 7d
        E 51 8c 30 7d
        E 0 9c 30 7d
        E 51 8c 30 7d
        E 0 9c 30 7d
        E 51 8c 30 7d
        E 0 9c 30 7d
        E 76 8c 30 7d
        E 0 9c 33 7d
        E 115 8c 33 7d
        E 0 9c 44 7d
        E 89 8c 44 7d
        E 0 9c 3a 7d
        E 102 8c 3a 7d
        E 0 9c 43 7d
        E 76 8c 43 7d
        E 0 9c 33 7d
        E 51 8c 33 7d
        E 0 9c 30 7d
        E 51 8c 30 7d
        E 0 9c 30 7d
        E 51 8c 30 7d
        E 0 9c 30 7d
        E 51 8c 30 7d
        E 0 9c 30 7d
        E 76 8c 30 7d
        E 0 9c 33 7d
        E 115 8c 33 7d
        E 0 9c 44 7d
        E 89 8c 44 7d
        E 0 9c 3a 7d
        E 102 8c 3a 7d
        E 0 9c 43 7d
        E 76 8c 43 7d
        E 0 9c 33 7d
        E 51 8c 33 7d
        E 0 9c 30 7d
        E 51 8c 30 7d
        E 0 9c 30 7d
        E 51 8c 30 7d
        E 0 9c 30 7d
        E 51 8c 30 7d
        E 0 9c 30 7d
        E 76 8c 30 7d
        E 0 9c 33 7d
        E 115 8c 33 7d
        E 0 9c 44 7d
        E 89 8c 44 7d
        E 0 9c 3a 7d
        E 102 8c 3a 7d
        E 0 9c 43 7d
        E 76 8c 43 7d
        E 0 9c 33 7d
        E 51 8c 33 7d
        E 0 9c 30 7d
        E 51 8c 30 7d
        E 0 9c 30 7d
        E 51 8c 30 7d
        E 0 9c 30 7d
        E 51 8c 30 7d
        E 0 9c 30 7d
        E 76 8c 30 7d
        E 0 9c 33 7d
        E 115 8c 33 7d
        E 0 9c 44 7d
        E 89 8c 44 7d
        E 0 9c 3a 7d
        E 102 8c 3a 7d
        E 0 9c 43 7d
        E 76 8c 43 7d
        E 0 9c 33 7d
        E 51 8c 33 7d
        E 0 9c 30 7d
        E 51 8c 30 7d
        E 0 9c 30 7d
        E 51 8c 30 7d
        E 0 9c 30 7d
        E 51 8c 30 7d
        E 0 9c 30 7d
        E 76 8c 30 7d
        E 0 9c 33 7d
        E 115 8c 33 7d
        E 0 9c 44 7d
        E 89 8c 44 7d
        E 0 9c 3a 7d
        E 102 8c 3a 7d
        E 0 9c 43 7d
        E 76 8c 43 7d
        E 0 9c 33 7d
        E 51 8c 33 7d
        E 0 9c 30 7d
        E 51 8c 30 7d
        E 0 9c 30 7d
        E 51 8c 30 7d
        E 0 9c 30 7d
        E 51 8c 30 7d
        E 0 9c 30 7d
        E 76 8c 30 7d
        E 0 9c 33 7d
        E 115 8c 33 7d
        E 0 9c 44 7d
        E 89 8c 44 7d
        E 0 9c 3a 7d
        E 102 8c 3a 7d
        E 0 9c 43 7d
        E 76 8c 43 7d
        E 0 9c 33 7d
        E 51 8c 33 7d
        E 0 9c 30 7d
        E 51 8c 30 7d
        E 0 9c 30 7d
        E 51 8c 30 7d
        E 0 9c 30 7d
        E 51 8c 30 7d
        E 0 9c 30 7d
        E 76 8c 30 7d
        E 0 9c 33 7d
        E 115 8c 33 7d
        E 0 9c 44 7d
        E 89 8c 44 7d
        E 0 9c 3a 7d
        E 102 8c 3a 7d
        E 0 9c 43 7d
        E 76 8c 43 7d
        E 0 9c 33 7d
        E 51 8c 33 7d
        E 0 9c 30 7d
        E 51 8c 30 7d
        E 0 9c 30 7d
        E 51 8c 30 7d
        E 0 9c 30 7d
        E 51 8c 30 7d
        E 0 9c 30 7d
        E 76 8c 30 7d
        E 0 9c 33 7d
        E 115 8c 33 7d
        E 0 9c 44 7d
        E 89 8c 44 7d
        E 0 9c 3a 7d
        E 102 8c 3a 7d
        E 0 9c 43 7d
        E 76 8c 43 7d
        E 0 9c 33 7d
        E 51 8c 33 7d
        E 0 9c 30 7d
        E 51 8c 30 7d
        E 0 9c 30 7d
        E 51 8c 30 7d
        E 0 9c 30 7d
        E 51 8c 30 7d
        E 0 9c 30 7d
        E 76 8c 30 7d
        E 0 9c 33 7d
        E 115 8c 33 7d
        E 0 9c 44 7d
        E 89 8c 44 7d
        E 0 9c 3a 7d
        E 102 8c 3a 7d
        E 0 9c 43 7d
        E 76 8c 43 7d
        E 0 9c 33 7d
        E 51 8c 33 7d
        E 0 9c 30 7d
        E 51 8c 30 7d
        E 0 9c 30 7d
        E 51 8c 30 7d
        E 0 9c 30 7d
        E 51 8c 30 7d
        E 0 9c 30 7d
        E 76 8c 30 7d
        E 0 9c 33 7d
        E 115 8c 33 7d
        E 0 9c 44 7d
        E 89 8c 44 7d
        E 0 9c 3a 7d
        E 102 8c 3a 7d
        E 0 9c 43 7d
        E 76 8c 43 7d
        E 0 9c 33 7d
        E 51 8c 33 7d
        E 0 9c 30 7d
        E 51 8c 30 7d
        E 0 9c 30 7d
        E 51 8c 30 7d
        E 0 9c 30 7d
        E 51 8c 30 7d
        E 0 9c 30 7d
        E 76 8c 30 7d
        E 0 9c 33 7d
        E 115 8c 33 7d
        E 0 9c 44 7d
        E 89 8c 44 7d
        E 0 9c 3a 7d
        E 102 8c 3a 7d
        E 0 9c 43 7d
        E 76 8c 43 7d
        E 0 9c 33 7d
        E 51 8c 33 7d
        E 0 9c 30 7d
        E 51 8c 30 7d
        E 0 9c 30 7d
        E 51 8c 30 7d
        E 0 9c 30 7d
        E 51 8c 30 7d
        E 0 9c 30 7d
        E 76 8c 30 7d
        E 0 9c 33 7d
        E 115 8c 33 7d
        E 0 9c 44 7d
        E 89 8c 44 7d
        E 0 9c 3a 7d
        E 102 8c 3a 7d
        E 0 9c 43 7d
        E 76 8c 43 7d
        E 0 9c 33 7d
        E 51 8c 33 7d
        E 0 9c 30 7d
        E 51 8c 30 7d
        E 0 9c 30 7d
        E 51 8c 30 7d
        E 0 9c 30 7d
        E 51 8c 30 7d
        E 0 9c 30 7d
        E 76 8c 30 7d
        E 0 9c 33 7d
        E 115 8c 33 7d
        E 0 9c 44 7d
        E 89 8c 44 7d
        E 0 9c 3a 7d
        E 102 8c 3a 7d
        E 0 9c 43 7d
        E 76 8c 43 7d
        E 0 9c 33 7d
        E 51 8c 33 7d
        E 0 9c 30 7d
        E 51 8c 30 7d
        E 0 9c 30 7d
        E 51 8c 30 7d
        E 0 9c 30 7d
        E 51 8c 30 7d
        E 0 9c 30 7d
        E 76 8c 30 7d
        E 0 9c 33 7d
        E 115 8c 33 7d
        E 0 9c 44 7d
        E 89 8c 44 7d
        E 0 9c 3a 7d
        E 102 8c 3a 7d
        E 0 9c 43 7d
        E 76 8c 43 7d
        E 0 9c 33 7d
        E 51 8c 33 7d
        E 0 9c 30 7d
        E 51 8c 30 7d
        E 0 9c 30 7d
        E 51 8c 30 7d
        E 0 9c 30 7d
        E 51 8c 30 7d
        E 0 9c 30 7d
        E 76 8c 30 7d
        E 0 9c 33 7d
        E 115 8c 33 7d
        E 0 9c 44 7d
        E 89 8c 44 7d
        E 0 9c 3a 7d
        E 102 8c 3a 7d
        E 0 9c 43 7d
        E 76 8c 43 7d
        E 0 9c 33 7d
        E 51 8c 33 7d
        E 0 9c 30 7d
        E 51 8c 30 7d
        E 0 9c 30 7d
        E 51 8c 30 7d
        E 0 9c 30 7d
        E 51 8c 30 7d
        E 0 9c 30 7d
        E 76 8c 30 7d
        E 0 9c 33 7d
        E 115 8c 33 7d
        E 0 9c 44 7d
        E 89 8c 44 7d
        E 0 9c 3a 7d
        E 102 8c 3a 7d
        E 0 9c 43 7d
        E 76 8c 43 7d
        E 0 9c 33 7d
        E 51 8c 33 7d
        E 0 9c 30 7d
        E 51 8c 30 7d
        E 0 9c 30 7d
        E 51 8c 30 7d
        E 0 9c 30 7d
        E 51 8c 30 7d
        E 0 9c 30 7d
        E 76 8c 30 7d
        E 0 9c 33 7d
        E 115 8c 33 7d
        E 0 9c 44 7d
        E 89 8c 44 7d
        E 0 9c 3a 7d
        E 102 8c 3a 7d
        E 0 9c 43 7d
        E 76 8c 43 7d
        E 0 9c 33 7d
        E 51 8c 33 7d
        E 0 9c 30 7d
        E 51 8c 30 7d
        E 0 9c 30 7d
        E 51 8c 30 7d
        E 0 9c 30 7d
        E 51 8c 30 7d
        E 0 9c 30 7d
        E 76 8c 30 7d
        E 0 9c 33 7d
        E 115 8c 33 7d
        E 0 9c 44 7d
        E 89 8c 44 7d
        E 0 9c 3a 7d
        E 102 8c 3a 7d
        E 0 9c 43 7d
        E 76 8c 43 7d
        E 0 9c 33 7d
        E 51 8c 33 7d
        E 0 9c 30 7d
        E 51 8c 30 7d
        E 0 9c 30 7d
        E 51 8c 30 7d
        E 0 9c 30 7d
        E 51 8c 30 7d
        E 0 9c 30 7d
        E 76 8c 30 7d
        E 0 9c 33 7d
        E 115 8c 33 7d
        E 0 9c 44 7d
        E 89 8c 44 7d
        E 0 9c 3a 7d
        E 102 8c 3a 7d
        E 0 9c 43 7d
        E 76 8c 43 7d
        E 0 9c 33 7d
        E 51 8c 33 7d
        E 0 9c 30 7d
        E 51 8c 30 7d
        E 0 9c 30 7d
        E 51 8c 30 7d
        E 0 9c 30 7d
        E 51 8c 30 7d
        E 0 9c 30 7d
        E 76 8c 30 7d
        E 0 9c 33 7d
        E 115 8c 33 7d
        E 0 9c 44 7d
        E 89 8c 44 7d
        E 0 9c 3a 7d
        E 102 8c 3a 7d
        E 0 9c 43 7d
        E 76 8c 43 7d
        E 0 9c 33 7d
        E 51 8c 33 7d
        E 0 9c 30 7d
        E 51 8c 30 7d
        E 0 9c 30 7d
        E 51 8c 30 7d
        E 0 9c 30 7d
        E 51 8c 30 7d
        E 0 9c 30 7d
        E 76 8c 30 7d
        E 0 9c 33 7d
        E 115 8c 33 7d
        E 0 9c 44 7d
        E 89 8c 44 7d
        E 0 9c 3a 7d
        E 102 8c 3a 7d
        E 0 9c 43 7d
        E 76 8c 43 7d
        E 0 9c 33 7d
        E 51 8c 33 7d
        E 0 9c 30 7d
        E 51 8c 30 7d
        E 0 9c 30 7d
        E 51 8c 30 7d
        E 0 9c 30 7d
        E 51 8c 30 7d
        E 0 9c 30 7d
        E 76 8c 30 7d
        E 0 9c 33 7d
        E 115 8c 33 7d
        E 0 9c 44 7d
        E 89 8c 44 7d
        E 0 9c 3a 7d
        E 102 8c 3a 7d
        E 0 9c 43 7d
        E 76 8c 43 7d
        E 0 9c 33 7d
        E 51 8c 33 7d
        E 0 9c 30 7d
        E 51 8c 30 7d
        E 0 9c 30 7d
        E 51 8c 30 7d
        E 0 9c 30 7d
        E 51 8c 30 7d
        E 0 9c 30 7d
        E 76 8c 30 7d
        E 0 9c 33 7d
        E 115 8c 33 7d
        E 0 9c 44 7d
        E 89 8c 44 7d
        E 0 9c 3a 7d
        E 102 8c 3a 7d
        E 0 9c 43 7d
        E 76 8c 43 7d
        E 0 9c 33 7d
        E 51 8c 33 7d
        E 0 9c 30 7d
        E 51 8c 30 7d
        E 0 9c 30 7d
        E 51 8c 30 7d
        E 0 9c 30 7d
        E 51 8c 30 7d
        E 0 9c 30 7d
        E 76 8c 30 7d
        E 0 9c 33 7d
        E 115 8c 33 7d
        E 0 9c 44 7d
        E 89 8c 44 7d
        E 0 9c 3a 7d
        E 102 8c 3a 7d
        E 0 9c 43 7d
        E 76 8c 43 7d
        E 0 9c 33 7d
        E 51 8c 33 7d
        E 0 9c 30 7d
        E 51 8c 30 7d
        E 0 9c 30 7d
        E 51 8c 30 7d
        E 0 9c 30 7d
        E 51 8c 30 7d
        E 0 9c 30 7d
        E 76 8c 30 7d
        E 0 9c 33 7d
        E 115 8c 33 7d
        E 0 9c 44 7d
        E 89 8c 44 7d
        E 0 9c 3a 7d
        E 102 8c 3a 7d
        E 0 9c 43 7d
        E 76 8c 43 7d
        E 0 9c 33 7d
        E 51 8c 33 7d
        E 0 9c 30 7d
        E 51 8c 30 7d
        E 0 9c 30 7d
        E 51 8c 30 7d
        E 0 9c 30 7d
        E 51 8c 30 7d
        E 0 9c 30 7d
        E 76 8c 30 7d
        E 0 9c 33 7d
        E 115 8c 33 7d
        E 0 9c 44 7d
        E 89 8c 44 7d
        E 0 9c 3a 7d
        E 102 8c 3a 7d
        E 0 9c 43 7d
        E 76 8c 43 7d
        E 0 9c 33 7d
        E 51 8c 33 7d
        E 0 9c 30 7d
        E 51 8c 30 7d
        E 0 9c 30 7d
        E 51 8c 30 7d
        E 0 9c 30 7d
        E 51 8c 30 7d
        E 0 9c 30 7d
        E 76 8c 30 7d
        E 0 9c 33 7d
        E 115 8c 33 7d
        E 0 9c 44 7d
        E 89 8c 44 7d
        E 0 9c 3a 7d
        E 102 8c 3a 7d
        E 0 9c 43 7d
        E 76 8c 43 7d
        E 0 9c 33 7d
        E 51 8c 33 7d
        E 0 9c 30 7d
        E 51 8c 30 7d
        E 0 9c 30 7d
        E 51 8c 30 7d
        E 0 9c 30 7d
        E 51 8c 30 7d
        E 0 9c 30 7d
        E 76 8c 30 7d
        E 0 9c 33 7d
        E 115 8c 33 7d
        E 0 9c 44 7d
        E 89 8c 44 7d
        E 0 9c 3a 7d
        E 102 8c 3a 7d
        E 0 9c 43 7d
        E 76 8c 43 7d
        E 0 9c 33 7d
        E 51 8c 33 7d
        E 0 9c 30 7d
        E 51 8c 30 7d
        E 0 9c 30 7d
        E 51 8c 30 7d
        E 0 9c 30 7d
        E 51 8c 30 7d
        E 0 9c 30 7d
        E 76 8c 30 7d
        E 0 9c 33 7d
        E 115 8c 33 7d
        E 0 9c 44 7d
        E 89 8c 44 7d
        E 0 9c 3a 7d
        E 102 8c 3a 7d
        E 0 9c 43 7d
        E 76 8c 43 7d
        E 0 9c 33 7d
        E 51 8c 33 7d
        E 0 9c 30 7d
        E 51 8c 30 7d
        E 0 9c 30 7d
        E 51 8c 30 7d
        E 0 9c 30 7d
        E 51 8c 30 7d
        E 0 9c 30 7d
        E 76 8c 30 7d
        E 0 9c 33 7d
        E 115 8c 33 7d
        E 0 9c 44 7d
        E 89 8c 44 7d
        E 0 9c 3a 7d
        E 102 8c 3a 7d
        E 0 9c 43 7d
        E 76 8c 43 7d
        E 0 9c 33 7d
        E 51 8c 33 7d
        E 0 9c 30 7d
        E 51 8c 30 7d
        E 0 9c 30 7d
        E 51 8c 30 7d
        E 0 9c 30 7d
        E 51 8c 30 7d
        E 0 9c 30 7d
        E 76 8c 30 7d
        E 0 9c 33 7d
        E 115 8c 33 7d
        E 0 9c 44 7d
        E 89 8c 44 7d
        E 0 9c 3a 7d
        E 102 8c 3a 7d
        E 0 9c 43 7d
        E 76 8c 43 7d
        E 0 9c 33 7d
        E 51 8c 33 7d
        E 0 9c 30 7d
        E 51 8c 30 7d
        E 0 9c 30 7d
        E 51 8c 30 7d
        E 0 9c 30 7d
        E 51 8c 30 7d
        E 0 9c 30 7d
        E 76 8c 30 7d
        E 0 9c 33 7d
        E 115 8c 33 7d
        E 0 9c 44 7d
        E 89 8c 44 7d
        E 0 9c 3a 7d
        E 102 8c 3a 7d
        E 0 9c 43 7d
        E 76 8c 43 7d
        E 0 9c 33 7d
        E 51 8c 33 7d
        E 0 9c 30 7d
        E 51 8c 30 7d
        E 0 9c 30 7d
        E 51 8c 30 7d
        E 0 9c 30 7d
        E 51 8c 30 7d
        E 0 9c 30 7d
        E 76 8c 30 7d
        E 0 9c 33 7d
        E 115 8c 33 7d
        E 0 9c 44 7d
        E 89 8c 44 7d
        E 0 9c 3a 7d
        E 102 8c 3a 7d
        E 0 9c 43 7d
        E 76 8c 43 7d
        E 0 9c 33 7d
        E 51 8c 33 7d
        E 0 9c 30 7d
        E 51 8c 30 7d
        E 0 9c 30 7d
        E 51 8c 30 7d
        E 0 9c 30 7d
        E 51 8c 30 7d
        E 0 9c 30 7d
        E 76 8c 30 7d
        E 0 9c 33 7d
        E 115 8c 33 7d
        E 0 9c 44 7d
        E 89 8c 44 7d
        E 0 9c 3a 7d
        E 102 8c 3a 7d
        E 0 9c 43 7d
        E 76 8c 43 7d
        E 0 9c 33 7d
        E 51 8c 33 7d
        E 0 9c 30 7d
        E 51 8c 30 7d
        E 0 9c 30 7d
        E 51 8c 30 7d
        E 0 9c 30 7d
        E 51 8c 30 7d
        E 0 9c 30 7d
        E 76 8c 30 7d
        E 0 9c 33 7d
        E 115 8c 33 7d
        E 0 9c 44 7d
        E 89 8c 44 7d
        E 0 9c 3a 7d
        E 102 8c 3a 7d
        E 0 9c 43 7d
        E 76 8c 43 7d
        E 0 9c 33 7d
        E 51 8c 33 7d
        E 0 9c 30 7d
        E 51 8c 30 7d
        E 0 9c 30 7d
        E 51 8c 30 7d
        E 0 9c 30 7d
        E 51 8c 30 7d
        E 0 9c 30 7d
        E 76 8c 30 7d
        E 0 9c 33 7d
        E 115 8c 33 7d
        E 0 9c 44 7d
        E 89 8c 44 7d
        E 0 9c 3a 7d
        E 102 8c 3a 7d
        E 0 9c 43 7d
        E 76 8c 43 7d
        E 0 9c 33 7d
        E 51 8c 33 7d
        E 0 9c 30 7d
        E 51 8c 30 7d
        E 0 9c 30 7d
        E 51 8c 30 7d
        E 0 9c 30 7d
        E 51 8c 30 7d
        E 0 9c 30 7d
        E 76 8c 30 7d
        E 0 9c 33 7d
        E 115 8c 33 7d
        E 0 9c 44 7d
        E 89 8c 44 7d
        E 0 9c 3a 7d
        E 102 8c 3a 7d
        E 0 9c 43 7d
        E 76 8c 43 7d
        E 0 9c 33 7d
        E 51 8c 33 7d
        E 0 9c 30 7d
        E 51 8c 30 7d
        E 0 9c 30 7d
        E 51 8c 30 7d
        E 0 9c 30 7d
        E 51 8c 30 7d
        E 0 9c 30 7d
        E 76 8c 30 7d
        E 0 9c 33 7d
        E 115 8c 33 7d
        E 0 9c 44 7d
        E 89 8c 44 7d
        E 0 9c 3a 7d
        E 102 8c 3a 7d
        E 0 9c 43 7d
        E 76 8c 43 7d
        E 0 9c 33 7d
        E 51 8c 33 7d
        E 0 9c 30 7d
        E 51 8c 30 7d
        E 0 9c 30 7d
        E 51 8c 30 7d
        E 0 9c 30 7d
        E 51 8c 30 7d
        E 0 9c 30 7d
        E 76 8c 30 7d
        E 0 9c 33 7d
        E 115 8c 33 7d
        E 0 9c 44 7d
        E 89 8c 44 7d
        E 0 9c 3a 7d
        E 102 8c 3a 7d
        E 0 9c 43 7d
        E 76 8c 43 7d
        E 0 9c 33 7d
        E 51 8c 33 7d
        E 0 9c 30 7d
        E 51 8c 30 7d
        E 0 9c 30 7d
        E 51 8c 30 7d
        E 0 9c 30 7d
        E 51 8c 30 7d
        E 0 9c 30 7d
        E 76 8c 30 7d
        E 0 9c 33 7d
        E 115 8c 33 7d
        E 0 9c 44 7d
        E 89 8c 44 7d
        E 0 9c 30 7d
        E 76 8c 30 7d
        E 0 9c 33 7d
        E 115 8c 33 7d
        E 0 9c 44 7d
        E 89 8c 44 7d
        E 0 9c 41 7d
        E 102 8c 41 7d
        E 0 9c 30 7d
        E 76 8c 30 7d
        E 0 9c 33 7d
        E 115 8c 33 7d
        E 0 9c 44 7d
        E 89 8c 44 7d
        E 0 9c 41 7d
        E 102 8c 41 7d
        E 0 9c 30 7d
        E 76 8c 30 7d
        E 0 9c 33 7d
        E 115 8c 33 7d
        E 0 9c 44 7d
        E 89 8c 44 7d
        E 0 9c 41 7d
        E 102 8c 41 7d
        E 0 9c 30 7d
        E 76 8c 30 7d
        E 0 9c 33 7d
        E 115 8c 33 7d
        E 0 9c 44 7d
        E 89 8c 44 7d
        E 0 9c 41 7d
        E 102 8c 41 7d
        E 0 9c 30 7d
        E 76 8c 30 7d
        E 0 9c 33 7d
        E 115 8c 33 7d
        E 0 9c 44 7d
        E 89 8c 44 7d
        E 0 9c 41 7d
        E 102 8c 41 7d
        E 0 9c 30 7d
        E 76 8c 30 7d
        E 0 9c 33 7d
        E 115 8c 33 7d
        E 0 9c 44 7d
        E 89 8c 44 7d
        E 0 9c 41 7d
        E 102 8c 41 7d
        E 0 9c 30 7d
        E 76 8c 30 7d
        E 0 9c 33 7d
        E 115 8c 33 7d
        E 0 9c 44 7d
        E 89 8c 44 7d
        E 0 9c 41 7d
        E 102 8c 41 7d
        E 0 9c 30 7d
        E 76 8c 30 7d
        E 0 9c 33 7d
        E 115 8c 33 7d
        E 0 9c 44 7d
        E 89 8c 44 7d
        E 0 9c 41 7d
        E 102 8c 41 7d
        E 0 9c 30 7d
        E 76 8c 30 7d
        E 0 9c 33 7d
        E 115 8c 33 7d
        E 0 9c 44 7d
        E 89 8c 44 7d
        E 0 9c 41 7d
        E 102 8c 41 7d
        E 0 9c 30 7d
        E 76 8c 30 7d
        E 0 9c 33 7d
        E 115 8c 33 7d
        E 0 9c 44 7d
        E 89 8c 44 7d
        E 0 9c 41 7d
        E 102 8c 41 7d
        E 0 9c 30 7d
        E 76 8c 30 7d
        E 0 9c 33 7d
        E 115 8c 33 7d
        E 0 9c 44 7d
        E 89 8c 44 7d
        E 0 9c 41 7d
        E 102 8c 41 7d
        E 0 9c 30 7d
        E 76 8c 30 7d
        E 0 9c 33 7d
        E 115 8c 33 7d
        E 0 9c 44 7d
        E 89 8c 44 7d
        E 0 9c 41 7d
        E 102 8c 41 7d
        E 0 9c 30 7d
        E 76 8c 30 7d
        E 0 9c 33 7d
        E 115 8c 33 7d
        E 0 9c 44 7d
        E 89 8c 44 7d
        E 0 9c 41 7d
        E 102 8c 41 7d
        E 0 9c 30 7d
        E 76 8c 30 7d
        E 0 9c 33 7d
        E 115 8c 33 7d
        E 0 9c 44 7d
        E 89 8c 44 7d
        E 0 9c 41 7d
        E 102 8c 41 7d
        E 0 9c 30 7d
        E 76 8c 30 7d
        E 0 9c 33 7d
        E 115 8c 33 7d
        E 0 9c 44 7d
        E 89 8c 44 7d
        E 0 9c 41 7d
        E 102 8c 41 7d
        E 0 9c 30 7d
        E 76 8c 30 7d
        E 0 9c 33 7d
        E 115 8c 33 7d
        E 0 9c 44 7d
        E 89 8c 44 7d
        E 0 9c 41 7d
        E 102 8c 41 7d
        E 0 9c 30 7d
        E 76 8c 30 7d
        E 0 9c 33 7d
        E 115 8c 33 7d
        E 0 9c 44 7d
        E 89 8c 44 7d
        E 0 9c 41 7d
        E 102 8c 41 7d
        E 0 9c 30 7d
        E 76 8c 30 7d
        E 0 9c 33 7d
        E 115 8c 33 7d
        E 0 9c 44 7d
        E 89 8c 44 7d
        E 0 9c 41 7d
        E 102 8c 41 7d
        E 0 9c 30 7d
        E 76 8c 30 7d
        E 0 9c 33 7d
        E 115 8c 33 7d
        E 0 9c 44 7d
        E 89 8c 44 7d
        E 0 9c 41 7d
        E 102 8c 41 7d
        E 0 9c 30 7d
        E 76 8c 30 7d
        E 0 9c 33 7d
        E 115 8c 33 7d
        E 0 9c 44 7d
        E 89 8c 44 7d
        E 0 9c 41 7d
        E 102 8c 41 7d
        E 0 9c 30 7d
        E 76 8c 30 7d
        E 0 9c 33 7d
        E 115 8c 33 7d
        E 0 9c 44 7d
        E 89 8c 44 7d
        E 0 9c 41 7d
        E 102 8c 41 7d
        E 0 9c 30 7d
        E 76 8c 30 7d
        E 0 9c 33 7d
        E 115 8c 33 7d
        E 0 9c 44 7d
        E 89 8c 44 7d
        E 0 9c 41 7d
        E 102 8c 41 7d
        E 0 9c 30 7d
        E 76 8c 30 7d
        E 0 9c 33 7d
        E 115 8c 33 7d
        E 0 9c 44 7d
        E 89 8c 44 7d
        E 0 9c 41 7d
        E 102 8c 41 7d
        E 0 9c 30 7d
        E 76 8c 30 7d
        E 0 9c 33 7d
        E 115 8c 33 7d
        E 0 9c 44 7d
        E 89 8c 44 7d
        E 0 9c 41 7d
        E 102 8c 41 7d
        E 0 9c 30 7d
        E 76 8c 30 7d
        E 0 9c 33 7d
        E 115 8c 33 7d
        E 0 9c 44 7d
        E 89 8c 44 7d
        E 0 9c 41 7d
        E 102 8c 41 7d
        E 0 9c 30 7d
        E 76 8c 30 7d
        E 0 9c 33 7d
        E 115 8c 33 7d
        E 0 9c 44 7d
        E 89 8c 44 7d
        E 0 9c 41 7d
        E 102 8c 41 7d
        E 0 9c 30 7d
        E 76 8c 30 7d
        E 0 9c 33 7d
        E 115 8c 33 7d
        E 0 9c 44 7d
        E 89 8c 44 7d
        E 0 9c 41 7d
        E 102 8c 41 7d
        E 0 9c 30 7d
        E 76 8c 30 7d
        E 0 9c 33 7d
        E 115 8c 33 7d
        E 0 9c 44 7d
        E 89 8c 44 7d
        E 0 9c 41 7d
        E 102 8c 41 7d
        E 0 9c 30 7d
        E 76 8c 30 7d
        E 0 9c 33 7d
        E 115 8c 33 7d
        E 0 9c 44 7d
        E 89 8c 44 7d
        E 0 9c 41 7d
        E 102 8c 41 7d
        E 0 9c 30 7d
        E 76 8c 30 7d
        E 0 9c 33 7d
        E 115 8c 33 7d
        E 0 9c 44 7d
        E 89 8c 44 7d
        E 0 9c 41 7d
        E 102 8c 41 7d
        E 0 9c 30 7d
        E 76 8c 30 7d
        E 0 9c 33 7d
        E 115 8c 33 7d
        E 0 9c 44 7d
        E 89 8c 44 7d
        E 0 9c 41 7d
        E 102 8c 41 7d
        E 0 9c 30 7d
        E 76 8c 30 7d
        E 0 9c 33 7d
        E 115 8c 33 7d
        E 0 9c 44 7d
        E 89 8c 44 7d
        E 0 9c 41 7d
        E 102 8c 41 7d
        E 0 9c 30 7d
        E 76 8c 30 7d
        E 0 9c 33 7d
        E 115 8c 33 7d
        E 0 9c 44 7d
        E 89 8c 44 7d
        E 0 9c 41 7d
        E 102 8c 41 7d
        E 0 9c 30 7d
        E 76 8c 30 7d
        E 0 9c 33 7d
        E 115 8c 33 7d
        E 0 9c 44 7d
        E 89 8c 44 7d
        E 0 9c 41 7d
        E 102 8c 41 7d
        E 0 9c 30 7d
        E 76 8c 30 7d
        E 0 9c 33 7d
        E 115 8c 33 7d
        E 0 9c 44 7d
        E 89 8c 44 7d
        E 0 9c 41 7d
        E 102 8c 41 7d
        E 0 9c 30 7d
        E 76 8c 30 7d
        E 0 9c 33 7d
        E 115 8c 33 7d
        E 0 9c 44 7d
        E 89 8c 44 7d
        E 0 9c 41 7d
        E 102 8c 41 7d
        E 0 9c 30 7d
        E 76 8c 30 7d
        E 0 9c 33 7d
        E 115 8c 33 7d
        E 0 9c 44 7d
        E 89 8c 44 7d
        E 0 9c 41 7d
        E 102 8c 41 7d
        E 0 9c 30 7d
        E 76 8c 30 7d
        E 0 9c 33 7d
        E 115 8c 33 7d
        E 0 9c 44 7d
        E 89 8c 44 7d
        E 0 9c 41 7d
        E 102 8c 41 7d
        E 0 9c 30 7d
        E 76 8c 30 7d
        E 0 9c 33 7d
        E 115 8c 33 7d
        E 0 9c 44 7d
        E 89 8c 44 7d
        E 0 9c 41 7d
        E 102 8c 41 7d
        E 0 9c 30 7d
        E 76 8c 30 7d
        E 0 9c 33 7d
        E 115 8c 33 7d
        E 0 9c 44 7d
        E 89 8c 44 7d
        E 0 9c 41 7d
        E 102 8c 41 7d
        E 0 9c 30 7d
        E 76 8c 30 7d
        E 0 9c 33 7d
        E 115 8c 33 7d
        E 0 9c 44 7d
        E 89 8c 44 7d
        E 0 9c 41 7d
        E 102 8c 41 7d
        E 0 9c 30 7d
        E 76 8c 30 7d
        E 0 9c 33 7d
        E 115 8c 33 7d
        E 0 9c 44 7d
        E 89 8c 44 7d
        E 0 9c 41 7d
        E 102 8c 41 7d
        E 0 9c 30 7d
        E 76 8c 30 7d
        E 0 9c 33 7d
        E 115 8c 33 7d
        E 0 9c 44 7d
        E 89 8c 44 7d
        E 0 9c 41 7d
        E 102 8c 41 7d
        E 0 9c 30 7d
        E 76 8c 30 7d
        E 0 9c 33 7d
        E 115 8c 33 7d
        E 0 9c 44 7d
        E 89 8c 44 7d
        E 0 9c 41 7d
        E 102 8c 41 7d
        E 0 9c 30 7d
        E 76 8c 30 7d
        E 0 9c 33 7d
        E 115 8c 33 7d
        E 0 9c 44 7d
        E 89 8c 44 7d
        E 0 9c 41 7d
        E 102 8c 41 7d
        E 0 9c 30 7d
        E 76 8c 30 7d
        E 0 9c 33 7d
        E 115 8c 33 7d
        E 0 9c 44 7d
        E 89 8c 44 7d
        E 0 9c 41 7d
        E 102 8c 41 7d
        E 0 9c 30 7d
        E 76 8c 30 7d
        E 0 9c 33 7d
        E 115 8c 33 7d
        E 0 9c 44 7d
        E 89 8c 44 7d
        E 0 9c 41 7d
        E 102 8c 41 7d
        E 0 9c 30 7d
        E 76 8c 30 7d
        E 0 9c 33 7d
        E 115 8c 33 7d
        E 0 9c 44 7d
        E 89 8c 44 7d
        E 0 9c 41 7d
        E 102 8c 41 7d
        E 0 9c 30 7d
        E 76 8c 30 7d
        E 0 9c 33 7d
        E 115 8c 33 7d
        E 0 9c 44 7d
        E 89 8c 44 7d
        E 0 9c 41 7d
        E 102 8c 41 7d
        E 0 9c 30 7d
        E 76 8c 30 7d
        E 0 9c 33 7d
        E 115 8c 33 7d
        E 0 9c 44 7d
        E 89 8c 44 7d
        E 0 9c 41 7d
        E 102 8c 41 7d
        E 0 9c 30 7d
        E 76 8c 30 7d
        E 0 9c 33 7d
        E 115 8c 33 7d
        E 0 9c 44 7d
        E 89 8c 44 7d
        E 0 9c 41 7d
        E 102 8c 41 7d
        E 0 9c 30 7d
        E 76 8c 30 7d
        E 0 9c 33 7d
        E 115 8c 33 7d
        E 0 9c 44 7d
        E 89 8c 44 7d
        E 0 9c 41 7d
        E 102 8c 41 7d
        E 0 9c 30 7d
        E 76 8c 30 7d
        E 0 9c 33 7d
        E 115 8c 33 7d
        E 0 9c 44 7d
        E 89 8c 44 7d
        E 0 9c 41 7d
        E 102 8c 41 7d
        E 0 9c 30 7d
        E 76 8c 30 7d
        E 0 9c 33 7d
        E 115 8c 33 7d
        E 0 9c 44 7d
        E 89 8c 44 7d
        E 0 9c 41 7d
        E 102 8c 41 7d
        E 0 9c 30 7d
        E 76 8c 30 7d
        E 0 9c 33 7d
        E 115 8c 33 7d
        E 0 9c 44 7d
        E 89 8c 44 7d
        E 0 9c 41 7d
        E 102 8c 41 7d
        E 0 9c 30 7d
        E 76 8c 30 7d
        E 0 9c 33 7d
        E 115 8c 33 7d
        E 0 9c 44 7d
        E 89 8c 44 7d
        E 0 9c 41 7d
        E 102 8c 41 7d
        E 0 9c 30 7d
        E 76 8c 30 7d
        E 0 9c 33 7d
        E 115 8c 33 7d
        E 0 9c 44 7d
        E 89 8c 44 7d
        E 0 9c 41 7d
        E 102 8c 41 7d
        E 0 9c 30 7d
        E 76 8c 30 7d
        E 0 9c 33 7d
        E 115 8c 33 7d
        E 0 9c 44 7d
        E 89 8c 44 7d
        E 0 9c 41 7d
        E 102 8c 41 7d
        E 0 9c 30 7d
        E 76 8c 30 7d
        E 0 9c 33 7d
        E 115 8c 33 7d
        E 0 9c 44 7d
        E 89 8c 44 7d
        E 0 9c 41 7d
        E 102 8c 41 7d
        E 0 9c 30 7d
        E 76 8c 30 7d
        E 0 9c 33 7d
        E 115 8c 33 7d
        E 0 9c 44 7d
        E 89 8c 44 7d
        E 0 9c 41 7d
        E 102 8c 41 7d
        E 96 b0 7b 00
        CCINTERP 32
        CHASE_CC_TAKEOFFS 1
        GUID {A9D5F944-3813-294C-AFDB-8DE5F7F18544}
        IGNTEMPO 0 120 4 4
        SRCCOLOR 640
        VELLANE 3 156 0
        VELLANE -1 196 0
      >
    >
  >
  <TRACK {CBCCF714-39AB-434A-AA52-13B668F1F93F}
    NAME "insects of the los angeles basin"
    PEAKCOL 16576
    BEAT -1
    AUTOMODE 0
    VOLPAN 1 0 -1 -1 1
    MUTESOLO 0 0 0
    IPHASE 0
    PLAYOFFS 0 1
    ISBUS 0 0
    BUSCOMP 0 0 0 0 0
    SHOWINMIX 1 0.6667 0.5 1 0.5 0 -1 0
    FREEMODE 0
    SEL 0
    REC 0 0 1 0 0 0 0
    VU 2
    TRACKHEIGHT 0 1 0 0 -1 0
    INQ 0 0 0 0.5 100 0 0 100
    NCHAN 2
    FX 1
    TRACKID {CBCCF714-39AB-434A-AA52-13B668F1F93F}
    PERF 0
    MIDIOUT -1
    MAINSEND 1 0
    <ITEM
      POSITION 0
      SNAPOFFS 0
      LENGTH 1263.130119
      LOOP 1
      ALLTAKES 0
      FADEIN 1 0 0 1 0 0
      FADEOUT 1 0 0 1 0 0
      MUTE 0 0
      SEL 0
      IGUID {3D167869-F22F-E943-AC84-D7049CBFAD44}
      IID 14
      NAME "insects of the los angeles basin.mid"
      VOLPAN 1 0 1 -1
      SOFFS 0 0
      PLAYRATE 1 1 0 -1 0 0.0025
      CHANMODE 0
      GUID {15BF1033-D738-9548-A196-A067AD324BEA}
      <SOURCE MIDI
        HASDATA 1 128 QN
        CCINTERP 32
        POOLEDEVTS {65328871-5DD1-2B48-8D0C-93B79F0A858F}
        E 11 b0 08 39
        E 11 b0 08 3c
        E 11 b0 08 3f
        E 11 b0 08 41
        E 11 b0 08 44
        E 11 b0 08 47
        E 11 b0 08 49
        E 11 b0 08 4c
        E 11 b0 08 4f
        E 11 b0 08 51
        E 11 b0 08 54
        E 11 b0 08 56
        E 11 b0 08 59
        E 11 b0 08 5b
        E 11 b0 08 5d
        E 11 b0 08 5f
        E 11 b0 08 62
        E 11 b0 08 63
        E 11 b0 08 65
        E 11 b0 08 67
        E 11 b0 08 69
        E 11 b0 08 6a
        E 11 b0 08 6c
        E 11 b0 08 6c
        E 11 b0 08 6d
        E 11 b0 08 6e
        E 11 b0 08 6f
        E 11 b0 08 70
        E 11 b0 08 71
        E 11 b0 08 71
        E 11 b0 08 72
        E 11 b0 08 72
        E 11 b0 08 72
        E 11 b0 08 72
        E 11 b0 08 72
        E 11 b0 08 71
        E 11 b0 08 71
        E 11 b0 08 70
        E 11 b0 08 6f
        E 11 b0 08 6e
        E 11 b0 08 6d
        E 11 b0 08 6c
        E 11 b0 08 6b
        E 11 b0 08 69
        E 11 b0 08 68
        E 11 b0 08 66
        E 11 b0 08 64
        E 11 b0 08 63
        E 11 b0 08 61
        E 11 b0 08 5e
        E 11 b0 08 5c
        E 11 b0 08 5a
        E 11 b0 08 58
        E 11 b0 08 55
        E 11 b0 08 52
        E 11 b0 08 50
        E 11 b0 08 4e
        E 11 b0 08 4b
        E 11 b0 08 48
        E 11 b0 08 46
        E 11 b0 08 42
        E 11 b0 08 3f
        E 11 b0 08 3d
        E 11 b0 08 3a
        E 11 b0 08 37
        E 11 b0 08 35
        E 11 b0 08 32
        E 11 b0 08 2f
        E 11 b0 08 2c
        E 11 b0 08 29
        E 11 b0 08 26
        E 11 b0 08 24
        E 11 b0 08 22
        E 11 b0 08 1f
        E 11 b0 08 1c
        E 11 b0 08 1a
        E 11 b0 08 18
        E 11 b0 08 15
        E 11 b0 08 13
        E 11 b0 08 11
        E 11 b0 08 0f
        E 11 b0 08 0d
        E 11 b0 08 0b
        E 11 b0 08 09
        E 11 b0 08 09
        E 11 b0 08 07
        E 11 b0 08 06
        E 11 b0 08 04
        E 11 b0 08 03
        E 11 b0 08 02
        E 11 b0 08 01
        E 11 b0 08 00
        E 11 b0 08 00
        E 11 b0 08 00
        E 11 b0 08 00
        E 11 b0 08 00
        E 11 b0 08 00
        E 11 b0 08 00
        E 11 b0 08 00
        E 11 b0 08 00
        E 11 b0 08 01
        E 11 b0 08 02
        E 11 b0 08 03
        E 11 b0 08 04
        E 11 b0 08 05
        E 11 b0 08 06
        E 11 b0 08 08
        E 11 b0 08 09
        E 11 b0 08 0a
        E 11 b0 08 0c
        E 11 b0 08 0e
        E 11 b0 08 10
        E 11 b0 08 12
        E 11 b0 08 14
        E 11 b0 08 16
        E 11 b0 08 19
        E 11 b0 08 1b
        E 11 b0 08 1d
        E 11 b0 08 20
        E 11 b0 08 23
        E 11 b0 08 25
        E 11 b0 08 28
        E 11 b0 08 2b
        E 11 b0 08 2d
        E 11 b0 08 30
        E 11 b0 08 33
        E 11 b0 08 36
        E 11 b0 08 39
        E 8 b0 08 20
        E 8 b0 08 21
        E 8 b0 08 23
        E 8 b0 08 24
        E 8 b0 08 26
        E 8 b0 08 27
        E 8 b0 08 29
        E 8 b0 08 2a
        E 8 b0 08 2c
        E 8 b0 08 2d
        E 8 b0 08 2f
        E 8 b0 08 30
        E 8 b0 08 31
        E 8 b0 08 33
        E 8 b0 08 34
        E 8 b0 08 35
        E 8 b0 08 36
        E 8 b0 08 37
        E 8 b0 08 38
        E 8 b0 08 39
        E 8 b0 08 3a
        E 8 b0 08 3b
        E 8 b0 08 3c
        E 8 b0 08 3c
        E 8 b0 08 3d
        E 8 b0 08 3d
        E 8 b0 08 3e
        E 8 b0 08 3e
        E 8 b0 08 3f
        E 8 b0 08 3f
        E 8 b0 08 3f
        E 8 b0 08 3f
        E 8 b0 08 3f
        E 8 b0 08 3f
        E 8 b0 08 3f
        E 8 b0 08 3f
        E 8 b0 08 3f
        E 8 b0 08 3e
        E 8 b0 08 3e
        E 8 b0 08 3d
        E 8 b0 08 3d
        E 8 b0 08 3c
        E 8 b0 08 3b
        E 8 b0 08 3a
        E 8 b0 08 3a
        E 8 b0 08 39
        E 8 b0 08 38
        E 8 b0 08 37
        E 8 b0 08 36
        E 8 b0 08 34
        E 8 b0 08 33
        E 8 b0 08 32
        E 8 b0 08 31
        E 8 b0 08 2f
        E 8 b0 08 2e
        E 8 b0 08 2c
        E 8 b0 08 2b
        E 8 b0 08 2a
        E 8 b0 08 28
        E 8 b0 08 27
        E 8 b0 08 25
        E 8 b0 08 23
        E 8 b0 08 22
        E 8 b0 08 20
        E 8 b0 08 1f
        E 8 b0 08 1d
        E 8 b0 08 1c
        E 8 b0 08 1a
        E 8 b0 08 18
        E 8 b0 08 17
        E 8 b0 08 15
        E 8 b0 08 14
        E 8 b0 08 13
        E 8 b0 08 11
        E 8 b0 08 10
        E 8 b0 08 0e
        E 8 b0 08 0d
        E 8 b0 08 0c
        E 8 b0 08 0b
        E 8 b0 08 09
        E 8 b0 08 08
        E 8 b0 08 07
        E 8 b0 08 06
        E 8 b0 08 05
        E 8 b0 08 05
        E 8 b0 08 04
        E 8 b0 08 03
        E 8 b0 08 02
        E 8 b0 08 02
        E 8 b0 08 01
        E 8 b0 08 01
        E 8 b0 08 00
        E 8 b0 08 00
        E 8 b0 08 00
        E 8 b0 08 00
        E 8 b0 08 00
        E 8 b0 08 00
        E 8 b0 08 00
        E 8 b0 08 00
        E 8 b0 08 00
        E 8 b0 08 01
        E 8 b0 08 01
        E 8 b0 08 02
        E 8 b0 08 02
        E 8 b0 08 03
        E 8 b0 08 03
        E 8 b0 08 04
        E 8 b0 08 05
        E 8 b0 08 06
        E 8 b0 08 07
        E 8 b0 08 08
        E 8 b0 08 09
        E 8 b0 08 0a
        E 8 b0 08 0b
        E 8 b0 08 0c
        E 8 b0 08 0e
        E 8 b0 08 0f
        E 8 b0 08 10
        E 8 b0 08 12
        E 8 b0 08 13
        E 8 b0 08 15
        E 8 b0 08 16
        E 8 b0 08 18
        E 8 b0 08 19
        E 8 b0 08 1b
        E 8 b0 08 1c
        E 8 b0 08 1e
        E 8 b0 08 20
        E 8 b0 08 20
        E 8 b0 08 21
        E 8 b0 08 23
        E 8 b0 08 24
        E 8 b0 08 26
        E 8 b0 08 27
        E 8 b0 08 29
        E 8 b0 08 2a
        E 8 b0 08 2c
        E 8 b0 08 2d
        E 8 b0 08 2f
        E 8 b0 08 30
        E 8 b0 08 31
        E 8 b0 08 33
        E 8 b0 08 34
        E 8 b0 08 35
        E 8 b0 08 36
        E 8 b0 08 37
        E 8 b0 08 38
        E 8 b0 08 39
        E 8 b0 08 3a
        E 8 b0 08 3b
        E 8 b0 08 3c
        E 8 b0 08 3c
        E 8 b0 08 3d
        E 8 b0 08 3d
        E 8 b0 08 3e
        E 8 b0 08 3e
        E 8 b0 08 3f
        E 8 b0 08 3f
        E 8 b0 08 3f
        E 8 b0 08 3f
        E 8 b0 08 3f
        E 8 b0 08 3f
        E 8 b0 08 3f
        E 8 b0 08 3f
        E 8 b0 08 3f
        E 8 b0 08 3e
        E 8 b0 08 3e
        E 8 b0 08 3d
        E 8 b0 08 3d
        E 8 b0 08 3c
        E 8 b0 08 3b
        E 8 b0 08 3a
        E 8 b0 08 3a
        E 8 b0 08 39
        E 8 b0 08 38
        E 8 b0 08 37
        E 8 b0 08 36
        E 8 b0 08 34
        E 8 b0 08 33
        E 8 b0 08 32
        E 8 b0 08 31
        E 8 b0 08 2f
        E 8 b0 08 2e
        E 8 b0 08 2c
        E 8 b0 08 2b
        E 8 b0 08 2a
        E 8 b0 08 28
        E 8 b0 08 27
        E 8 b0 08 25
        E 8 b0 08 23
        E 8 b0 08 22
        E 8 b0 08 20
        E 8 b0 08 1f
        E 8 b0 08 1d
        E 8 b0 08 1c
        E 8 b0 08 1a
        E 8 b0 08 18
        E 8 b0 08 17
        E 8 b0 08 15
        E 8 b0 08 14
        E 8 b0 08 13
        E 8 b0 08 11
        E 8 b0 08 10
        E 8 b0 08 0e
        E 8 b0 08 0d
        E 8 b0 08 0c
        E 8 b0 08 0b
        E 8 b0 08 09
        E 8 b0 08 08
        E 8 b0 08 07
        E 8 b0 08 06
        E 8 b0 08 05
        E 8 b0 08 05
        E 8 b0 08 04
        E 8 b0 08 03
        E 8 b0 08 02
        E 8 b0 08 02
        E 8 b0 08 01
        E 8 b0 08 01
        E 8 b0 08 00
        E 8 b0 08 00
        E 8 b0 08 00
        E 8 b0 08 00
        E 8 b0 08 00
        E 8 b0 08 00
        E 8 b0 08 00
        E 8 b0 08 00
        E 8 b0 08 00
        E 8 b0 08 01
        E 8 b0 08 01
        E 8 b0 08 02
        E 8 b0 08 02
        E 8 b0 08 03
        E 8 b0 08 03
        E 8 b0 08 04
        E 8 b0 08 05
        E 8 b0 08 06
        E 8 b0 08 07
        E 8 b0 08 08
        E 8 b0 08 09
        E 8 b0 08 0a
        E 8 b0 08 0b
        E 8 b0 08 0c
        E 8 b0 08 0e
        E 8 b0 08 0f
        E 8 b0 08 10
        E 8 b0 08 12
        E 8 b0 08 13
        E 8 b0 08 15
        E 8 b0 08 16
        E 8 b0 08 18
        E 8 b0 08 19
        E 8 b0 08 1b
        E 8 b0 08 1c
        E 8 b0 08 1e
        E 8 b0 08 20
        E 17 b0 08 2c
        E 17 b0 08 2e
        E 17 b0 08 31
        E 17 b0 08 33
        E 17 b0 08 35
        E 17 b0 08 37
        E 17 b0 08 39
        E 17 b0 08 3b
        E 17 b0 08 3d
        E 17 b0 08 3f
        E 17 b0 08 41
        E 17 b0 08 43
        E 17 b0 08 45
        E 17 b0 08 47
        E 17 b0 08 48
        E 17 b0 08 4a
        E 17 b0 08 4c
        E 17 b0 08 4d
        E 17 b0 08 4f
        E 17 b0 08 50
        E 17 b0 08 51
        E 17 b0 08 52
        E 17 b0 08 54
        E 17 b0 08 54
        E 17 b0 08 55
        E 17 b0 08 56
        E 17 b0 08 56
        E 17 b0 08 57
        E 17 b0 08 58
        E 17 b0 08 58
        E 17 b0 08 58
        E 17 b0 08 58
        E 17 b0 08 58
        E 17 b0 08 58
        E 17 b0 08 58
        E 17 b0 08 58
        E 17 b0 08 58
        E 17 b0 08 57
        E 17 b0 08 56
        E 17 b0 08 56
        E 17 b0 08 55
        E 17 b0 08 54
        E 17 b0 08 53
        E 17 b0 08 51
        E 17 b0 08 51
        E 17 b0 08 4f
        E 17 b0 08 4e
        E 17 b0 08 4d
        E 17 b0 08 4b
        E 17 b0 08 49
        E 17 b0 08 48
        E 17 b0 08 46
        E 17 b0 08 44
        E 17 b0 08 42
        E 17 b0 08 40
        E 17 b0 08 3e
        E 17 b0 08 3c
        E 17 b0 08 3a
        E 17 b0 08 38
        E 17 b0 08 36
        E 17 b0 08 33
        E 17 b0 08 31
        E 17 b0 08 2f
        E 17 b0 08 2d
        E 17 b0 08 2b
        E 17 b0 08 29
        E 17 b0 08 27
        E 17 b0 08 25
        E 17 b0 08 22
        E 17 b0 08 20
        E 17 b0 08 1e
        E 17 b0 08 1c
        E 17 b0 08 1a
        E 17 b0 08 18
        E 17 b0 08 16
        E 17 b0 08 14
        E 17 b0 08 12
        E 17 b0 08 10
        E 17 b0 08 0f
        E 17 b0 08 0d
        E 17 b0 08 0b
        E 17 b0 08 0a
        E 17 b0 08 09
        E 17 b0 08 07
        E 17 b0 08 07
        E 17 b0 08 05
        E 17 b0 08 04
        E 17 b0 08 03
        E 17 b0 08 02
        E 17 b0 08 02
        E 17 b0 08 01
        E 17 b0 08 00
        E 17 b0 08 00
        E 17 b0 08 00
        E 17 b0 08 00
        E 17 b0 08 00
        E 17 b0 08 00
        E 17 b0 08 00
        E 17 b0 08 00
        E 17 b0 08 00
        E 17 b0 08 01
        E 17 b0 08 02
        E 17 b0 08 02
        E 17 b0 08 03
        E 17 b0 08 04
        E 17 b0 08 04
        E 17 b0 08 06
        E 17 b0 08 07
        E 17 b0 08 08
        E 17 b0 08 09
        E 17 b0 08 0b
        E 17 b0 08 0c
        E 17 b0 08 0e
        E 17 b0 08 10
        E 17 b0 08 11
        E 17 b0 08 13
        E 17 b0 08 15
        E 17 b0 08 17
        E 17 b0 08 19
        E 17 b0 08 1b
        E 17 b0 08 1d
        E 17 b0 08 1f
        E 17 b0 08 21
        E 17 b0 08 23
        E 17 b0 08 25
        E 17 b0 08 27
        E 17 b0 08 2a
        E 17 b0 08 2c
        E 15 b0 08 33
        E 15 b0 08 35
        E 15 b0 08 37
        E 15 b0 08 3a
        E 15 b0 08 3c
        E 15 b0 08 3f
        E 15 b0 08 41
        E 15 b0 08 44
        E 15 b0 08 46
        E 15 b0 08 48
        E 15 b0 08 4b
        E 15 b0 08 4c
        E 15 b0 08 4f
        E 15 b0 08 51
        E 15 b0 08 53
        E 15 b0 08 54
        E 15 b0 08 57
        E 15 b0 08 58
        E 15 b0 08 5a
        E 15 b0 08 5b
        E 15 b0 08 5d
        E 15 b0 08 5e
        E 15 b0 08 5f
        E 15 b0 08 60
        E 15 b0 08 61
        E 15 b0 08 62
        E 15 b0 08 63
        E 15 b0 08 63
        E 15 b0 08 64
        E 15 b0 08 64
        E 15 b0 08 65
        E 15 b0 08 65
        E 15 b0 08 65
        E 15 b0 08 65
        E 15 b0 08 65
        E 15 b0 08 64
        E 15 b0 08 64
        E 15 b0 08 63
        E 15 b0 08 63
        E 15 b0 08 62
        E 15 b0 08 61
        E 15 b0 08 5f
        E 15 b0 08 5f
        E 15 b0 08 5d
        E 15 b0 08 5c
        E 15 b0 08 5b
        E 15 b0 08 59
        E 15 b0 08 57
        E 15 b0 08 56
        E 15 b0 08 54
        E 15 b0 08 52
        E 15 b0 08 50
        E 15 b0 08 4e
        E 15 b0 08 4c
        E 15 b0 08 49
        E 15 b0 08 47
        E 15 b0 08 45
        E 15 b0 08 43
        E 15 b0 08 40
        E 15 b0 08 3e
        E 15 b0 08 3b
        E 15 b0 08 38
        E 15 b0 08 36
        E 15 b0 08 33
        E 15 b0 08 31
        E 15 b0 08 2f
        E 15 b0 08 2c
        E 15 b0 08 2a
        E 15 b0 08 27
        E 15 b0 08 24
        E 15 b0 08 22
        E 15 b0 08 1f
        E 15 b0 08 1e
        E 15 b0 08 1b
        E 15 b0 08 19
        E 15 b0 08 17
        E 15 b0 08 15
        E 15 b0 08 13
        E 15 b0 08 11
        E 15 b0 08 0f
        E 15 b0 08 0d
        E 15 b0 08 0b
        E 15 b0 08 0a
        E 15 b0 08 08
        E 15 b0 08 07
        E 15 b0 08 06
        E 15 b0 08 05
        E 15 b0 08 03
        E 15 b0 08 03
        E 15 b0 08 02
        E 15 b0 08 01
        E 15 b0 08 00
        E 15 b0 08 00
        E 15 b0 08 00
        E 15 b0 08 00
        E 15 b0 08 00
        E 15 b0 08 00
        E 15 b0 08 00
        E 15 b0 08 00
        E 15 b0 08 00
        E 15 b0 08 01
        E 15 b0 08 02
        E 15 b0 08 03
        E 15 b0 08 03
        E 15 b0 08 04
        E 15 b0 08 05
        E 15 b0 08 07
        E 15 b0 08 07
        E 15 b0 08 09
        E 15 b0 08 0b
        E 15 b0 08 0c
        E 15 b0 08 0e
        E 15 b0 08 10
        E 15 b0 08 12
        E 15 b0 08 14
        E 15 b0 08 16
        E 15 b0 08 18
        E 15 b0 08 1a
        E 15 b0 08 1c
        E 15 b0 08 1f
        E 15 b0 08 21
        E 15 b0 08 24
        E 15 b0 08 26
        E 15 b0 08 28
        E 15 b0 08 2b
        E 15 b0 08 2d
        E 15 b0 08 2f
        E 15 b0 08 33
        E 17 b0 08 06
        E 17 b0 08 06
        E 17 b0 08 07
        E 17 b0 08 07
        E 17 b0 08 07
        E 17 b0 08 07
        E 17 b0 08 08
        E 17 b0 08 08
        E 17 b0 08 08
        E 17 b0 08 09
        E 17 b0 08 09
        E 17 b0 08 09
        E 17 b0 08 09
        E 17 b0 08 0a
        E 17 b0 08 0a
        E 17 b0 08 0a
        E 17 b0 08 0a
        E 17 b0 08 0b
        E 17 b0 08 0b
        E 17 b0 08 0b
        E 17 b0 08 0b
        E 17 b0 08 0b
        E 17 b0 08 0c
        E 17 b0 08 0c
        E 17 b0 08 0c
        E 17 b0 08 0c
        E 17 b0 08 0c
        E 17 b0 08 0c
        E 17 b0 08 0c
        E 17 b0 08 0c
        E 17 b0 08 0c
        E 17 b0 08 0c
        E 17 b0 08 0c
        E 17 b0 08 0c
        E 17 b0 08 0c
        E 17 b0 08 0c
        E 17 b0 08 0c
        E 17 b0 08 0c
        E 17 b0 08 0c
        E 17 b0 08 0c
        E 17 b0 08 0c
        E 17 b0 08 0c
        E 17 b0 08 0b
        E 17 b0 08 0b
        E 17 b0 08 0b
        E 17 b0 08 0b
        E 17 b0 08 0b
        E 17 b0 08 0b
        E 17 b0 08 0a
        E 17 b0 08 0a
        E 17 b0 08 0a
        E 17 b0 08 0a
        E 17 b0 08 09
        E 17 b0 08 09
        E 17 b0 08 09
        E 17 b0 08 08
        E 17 b0 08 08
        E 17 b0 08 08
        E 17 b0 08 08
        E 17 b0 08 07
        E 17 b0 08 07
        E 17 b0 08 07
        E 17 b0 08 06
        E 17 b0 08 06
        E 17 b0 08 06
        E 17 b0 08 05
        E 17 b0 08 05
        E 17 b0 08 05
        E 17 b0 08 04
        E 17 b0 08 04
        E 17 b0 08 04
        E 17 b0 08 04
        E 17 b0 08 03
        E 17 b0 08 03
        E 17 b0 08 03
        E 17 b0 08 02
        E 17 b0 08 02
        E 17 b0 08 02
        E 17 b0 08 02
        E 17 b0 08 01
        E 17 b0 08 01
        E 17 b0 08 01
        E 17 b0 08 01
        E 17 b0 08 01
        E 17 b0 08 01
        E 17 b0 08 00
        E 17 b0 08 00
        E 17 b0 08 00
        E 17 b0 08 00
        E 17 b0 08 00
        E 17 b0 08 00
        E 17 b0 08 00
        E 17 b0 08 00
        E 17 b0 08 00
        E 17 b0 08 00
        E 17 b0 08 00
        E 17 b0 08 00
        E 17 b0 08 00
        E 17 b0 08 00
        E 17 b0 08 00
        E 17 b0 08 00
        E 17 b0 08 00
        E 17 b0 08 00
        E 17 b0 08 00
        E 17 b0 08 00
        E 17 b0 08 00
        E 17 b0 08 00
        E 17 b0 08 01
        E 17 b0 08 01
        E 17 b0 08 01
        E 17 b0 08 01
        E 17 b0 08 01
        E 17 b0 08 02
        E 17 b0 08 02
        E 17 b0 08 02
        E 17 b0 08 02
        E 17 b0 08 03
        E 17 b0 08 03
        E 17 b0 08 03
        E 17 b0 08 03
        E 17 b0 08 04
        E 17 b0 08 04
        E 17 b0 08 04
        E 17 b0 08 05
        E 17 b0 08 05
        E 17 b0 08 05
        E 17 b0 08 06
        E 17 b0 08 06
        E 15 b0 08 19
        E 15 b0 08 1a
        E 15 b0 08 1c
        E 15 b0 08 1d
        E 15 b0 08 1e
        E 15 b0 08 1f
        E 15 b0 08 20
        E 15 b0 08 22
        E 15 b0 08 23
        E 15 b0 08 24
        E 15 b0 08 25
        E 15 b0 08 26
        E 15 b0 08 27
        E 15 b0 08 28
        E 15 b0 08 29
        E 15 b0 08 2a
        E 15 b0 08 2b
        E 15 b0 08 2c
        E 15 b0 08 2d
        E 15 b0 08 2e
        E 15 b0 08 2e
        E 15 b0 08 2f
        E 15 b0 08 30
        E 15 b0 08 30
        E 15 b0 08 30
        E 15 b0 08 31
        E 15 b0 08 31
        E 15 b0 08 32
        E 15 b0 08 32
        E 15 b0 08 32
        E 15 b0 08 32
        E 15 b0 08 32
        E 15 b0 08 32
        E 15 b0 08 32
        E 15 b0 08 32
        E 15 b0 08 32
        E 15 b0 08 32
        E 15 b0 08 32
        E 15 b0 08 31
        E 15 b0 08 31
        E 15 b0 08 30
        E 15 b0 08 30
        E 15 b0 08 2f
        E 15 b0 08 2e
        E 15 b0 08 2e
        E 15 b0 08 2d
        E 15 b0 08 2c
        E 15 b0 08 2c
        E 15 b0 08 2b
        E 15 b0 08 2a
        E 15 b0 08 29
        E 15 b0 08 28
        E 15 b0 08 27
        E 15 b0 08 26
        E 15 b0 08 24
        E 15 b0 08 23
        E 15 b0 08 22
        E 15 b0 08 21
        E 15 b0 08 20
        E 15 b0 08 1f
        E 15 b0 08 1d
        E 15 b0 08 1c
        E 15 b0 08 1b
        E 15 b0 08 1a
        E 15 b0 08 18
        E 15 b0 08 17
        E 15 b0 08 16
        E 15 b0 08 15
        E 15 b0 08 13
        E 15 b0 08 12
        E 15 b0 08 11
        E 15 b0 08 10
        E 15 b0 08 0f
        E 15 b0 08 0e
        E 15 b0 08 0c
        E 15 b0 08 0b
        E 15 b0 08 0a
        E 15 b0 08 09
        E 15 b0 08 08
        E 15 b0 08 07
        E 15 b0 08 06
        E 15 b0 08 06
        E 15 b0 08 05
        E 15 b0 08 04
        E 15 b0 08 04
        E 15 b0 08 03
        E 15 b0 08 02
        E 15 b0 08 02
        E 15 b0 08 01
        E 15 b0 08 01
        E 15 b0 08 00
        E 15 b0 08 00
        E 15 b0 08 00
        E 15 b0 08 00
        E 15 b0 08 00
        E 15 b0 08 00
        E 15 b0 08 00
        E 15 b0 08 00
        E 15 b0 08 00
        E 15 b0 08 00
        E 15 b0 08 00
        E 15 b0 08 01
        E 15 b0 08 01
        E 15 b0 08 02
        E 15 b0 08 02
        E 15 b0 08 02
        E 15 b0 08 03
        E 15 b0 08 04
        E 15 b0 08 04
        E 15 b0 08 05
        E 15 b0 08 06
        E 15 b0 08 07
        E 15 b0 08 08
        E 15 b0 08 09
        E 15 b0 08 0a
        E 15 b0 08 0b
        E 15 b0 08 0c
        E 15 b0 08 0d
        E 15 b0 08 0e
        E 15 b0 08 0f
        E 15 b0 08 10
        E 15 b0 08 12
        E 15 b0 08 13
        E 15 b0 08 14
        E 15 b0 08 15
        E 15 b0 08 16
        E 15 b0 08 18
        E 15 b0 08 19
        E 8 b0 08 2c
        E 8 b0 08 2e
        E 8 b0 08 31
        E 8 b0 08 33
        E 8 b0 08 35
        E 8 b0 08 37
        E 8 b0 08 39
        E 8 b0 08 3b
        E 8 b0 08 3d
        E 8 b0 08 3f
        E 8 b0 08 41
        E 8 b0 08 43
        E 8 b0 08 45
        E 8 b0 08 47
        E 8 b0 08 48
        E 8 b0 08 4a
        E 8 b0 08 4c
        E 8 b0 08 4d
        E 8 b0 08 4f
        E 8 b0 08 50
        E 8 b0 08 51
        E 8 b0 08 52
        E 8 b0 08 54
        E 8 b0 08 54
        E 8 b0 08 55
        E 8 b0 08 56
        E 8 b0 08 56
        E 8 b0 08 57
        E 8 b0 08 58
        E 8 b0 08 58
        E 8 b0 08 58
        E 8 b0 08 58
        E 8 b0 08 58
        E 8 b0 08 58
        E 8 b0 08 58
        E 8 b0 08 58
        E 8 b0 08 58
        E 8 b0 08 57
        E 8 b0 08 56
        E 8 b0 08 56
        E 8 b0 08 55
        E 8 b0 08 54
        E 8 b0 08 53
        E 8 b0 08 51
        E 8 b0 08 51
        E 8 b0 08 4f
        E 8 b0 08 4e
        E 8 b0 08 4d
        E 8 b0 08 4b
        E 8 b0 08 49
        E 8 b0 08 48
        E 8 b0 08 46
        E 8 b0 08 44
        E 8 b0 08 42
        E 8 b0 08 40
        E 8 b0 08 3e
        E 8 b0 08 3c
        E 8 b0 08 3a
        E 8 b0 08 38
        E 8 b0 08 36
        E 8 b0 08 33
        E 8 b0 08 31
        E 8 b0 08 2f
        E 8 b0 08 2d
        E 8 b0 08 2b
        E 8 b0 08 29
        E 8 b0 08 27
        E 8 b0 08 25
        E 8 b0 08 22
        E 8 b0 08 20
        E 8 b0 08 1e
        E 8 b0 08 1c
        E 8 b0 08 1a
        E 8 b0 08 18
        E 8 b0 08 16
        E 8 b0 08 14
        E 8 b0 08 12
        E 8 b0 08 10
        E 8 b0 08 0f
        E 8 b0 08 0d
        E 8 b0 08 0b
        E 8 b0 08 0a
        E 8 b0 08 09
        E 8 b0 08 07
        E 8 b0 08 07
        E 8 b0 08 05
        E 8 b0 08 04
        E 8 b0 08 03
        E 8 b0 08 02
        E 8 b0 08 02
        E 8 b0 08 01
        E 8 b0 08 00
        E 8 b0 08 00
        E 8 b0 08 00
        E 8 b0 08 00
        E 8 b0 08 00
        E 8 b0 08 00
        E 8 b0 08 00
        E 8 b0 08 00
        E 8 b0 08 00
        E 8 b0 08 01
        E 8 b0 08 02
        E 8 b0 08 02
        E 8 b0 08 03
        E 8 b0 08 04
        E 8 b0 08 04
        E 8 b0 08 06
        E 8 b0 08 07
        E 8 b0 08 08
        E 8 b0 08 09
        E 8 b0 08 0b
        E 8 b0 08 0c
        E 8 b0 08 0e
        E 8 b0 08 10
        E 8 b0 08 11
        E 8 b0 08 13
        E 8 b0 08 15
        E 8 b0 08 17
        E 8 b0 08 19
        E 8 b0 08 1b
        E 8 b0 08 1d
        E 8 b0 08 1f
        E 8 b0 08 21
        E 8 b0 08 23
        E 8 b0 08 25
        E 8 b0 08 27
        E 8 b0 08 2a
        E 8 b0 08 2c
        E 8 b0 08 20
        E 8 b0 08 21
        E 8 b0 08 23
        E 8 b0 08 24
        E 8 b0 08 26
        E 8 b0 08 27
        E 8 b0 08 29
        E 8 b0 08 2a
        E 8 b0 08 2c
        E 8 b0 08 2d
        E 8 b0 08 2f
        E 8 b0 08 30
        E 8 b0 08 31
        E 8 b0 08 33
        E 8 b0 08 34
        E 8 b0 08 35
        E 8 b0 08 36
        E 8 b0 08 37
        E 8 b0 08 38
        E 8 b0 08 39
        E 8 b0 08 3a
        E 8 b0 08 3b
        E 8 b0 08 3c
        E 8 b0 08 3c
        E 8 b0 08 3d
        E 8 b0 08 3d
        E 8 b0 08 3e
        E 8 b0 08 3e
        E 8 b0 08 3f
        E 8 b0 08 3f
        E 8 b0 08 3f
        E 8 b0 08 3f
        E 8 b0 08 3f
        E 8 b0 08 3f
        E 8 b0 08 3f
        E 8 b0 08 3f
        E 8 b0 08 3f
        E 8 b0 08 3e
        E 8 b0 08 3e
        E 8 b0 08 3d
        E 8 b0 08 3d
        E 8 b0 08 3c
        E 8 b0 08 3b
        E 8 b0 08 3a
        E 8 b0 08 3a
        E 8 b0 08 39
        E 8 b0 08 38
        E 8 b0 08 37
        E 8 b0 08 36
        E 8 b0 08 34
        E 8 b0 08 33
        E 8 b0 08 32
        E 8 b0 08 31
        E 8 b0 08 2f
        E 8 b0 08 2e
        E 8 b0 08 2c
        E 8 b0 08 2b
        E 8 b0 08 2a
        E 8 b0 08 28
        E 8 b0 08 27
        E 8 b0 08 25
        E 8 b0 08 23
        E 8 b0 08 22
        E 8 b0 08 20
        E 8 b0 08 1f
        E 8 b0 08 1d
        E 8 b0 08 1c
        E 8 b0 08 1a
        E 8 b0 08 18
        E 8 b0 08 17
        E 8 b0 08 15
        E 8 b0 08 14
        E 8 b0 08 13
        E 8 b0 08 11
        E 8 b0 08 10
        E 8 b0 08 0e
        E 8 b0 08 0d
        E 8 b0 08 0c
        E 8 b0 08 0b
        E 8 b0 08 09
        E 8 b0 08 08
        E 8 b0 08 07
        E 8 b0 08 06
        E 8 b0 08 05
        E 8 b0 08 05
        E 8 b0 08 04
        E 8 b0 08 03
        E 8 b0 08 02
        E 8 b0 08 02
        E 8 b0 08 01
        E 8 b0 08 01
        E 8 b0 08 00
        E 8 b0 08 00
        E 8 b0 08 00
        E 8 b0 08 00
        E 8 b0 08 00
        E 8 b0 08 00
        E 8 b0 08 00
        E 8 b0 08 00
        E 8 b0 08 00
        E 8 b0 08 01
        E 8 b0 08 01
        E 8 b0 08 02
        E 8 b0 08 02
        E 8 b0 08 03
        E 8 b0 08 03
        E 8 b0 08 04
        E 8 b0 08 05
        E 8 b0 08 06
        E 8 b0 08 07
        E 8 b0 08 08
        E 8 b0 08 09
        E 8 b0 08 0a
        E 8 b0 08 0b
        E 8 b0 08 0c
        E 8 b0 08 0e
        E 8 b0 08 0f
        E 8 b0 08 10
        E 8 b0 08 12
        E 8 b0 08 13
        E 8 b0 08 15
        E 8 b0 08 16
        E 8 b0 08 18
        E 8 b0 08 19
        E 8 b0 08 1b
        E 8 b0 08 1c
        E 8 b0 08 1e
        E 8 b0 08 20
        E 11 b0 08 20
        E 11 b0 08 21
        E 11 b0 08 23
        E 11 b0 08 24
        E 11 b0 08 26
        E 11 b0 08 27
        E 11 b0 08 29
        E 11 b0 08 2a
        E 11 b0 08 2c
        E 11 b0 08 2d
        E 11 b0 08 2f
        E 11 b0 08 30
        E 11 b0 08 31
        E 11 b0 08 33
        E 11 b0 08 34
        E 11 b0 08 35
        E 11 b0 08 36
        E 11 b0 08 37
        E 11 b0 08 38
        E 11 b0 08 39
        E 11 b0 08 3a
        E 11 b0 08 3b
        E 11 b0 08 3c
        E 11 b0 08 3c
        E 11 b0 08 3d
        E 11 b0 08 3d
        E 11 b0 08 3e
        E 11 b0 08 3e
        E 11 b0 08 3f
        E 11 b0 08 3f
        E 11 b0 08 3f
        E 11 b0 08 3f
        E 11 b0 08 3f
        E 11 b0 08 3f
        E 11 b0 08 3f
        E 11 b0 08 3f
        E 11 b0 08 3f
        E 11 b0 08 3e
        E 11 b0 08 3e
        E 11 b0 08 3d
        E 11 b0 08 3d
        E 11 b0 08 3c
        E 11 b0 08 3b
        E 11 b0 08 3a
        E 11 b0 08 3a
        E 11 b0 08 39
        E 11 b0 08 38
        E 11 b0 08 37
        E 11 b0 08 36
        E 11 b0 08 34
        E 11 b0 08 33
        E 11 b0 08 32
        E 11 b0 08 31
        E 11 b0 08 2f
        E 11 b0 08 2e
        E 11 b0 08 2c
        E 11 b0 08 2b
        E 11 b0 08 2a
        E 11 b0 08 28
        E 11 b0 08 27
        E 11 b0 08 25
        E 11 b0 08 23
        E 11 b0 08 22
        E 11 b0 08 20
        E 11 b0 08 1f
        E 11 b0 08 1d
        E 11 b0 08 1c
        E 11 b0 08 1a
        E 11 b0 08 18
        E 11 b0 08 17
        E 11 b0 08 15
        E 11 b0 08 14
        E 11 b0 08 13
        E 11 b0 08 11
        E 11 b0 08 10
        E 11 b0 08 0e
        E 11 b0 08 0d
        E 11 b0 08 0c
        E 11 b0 08 0b
        E 11 b0 08 09
        E 11 b0 08 08
        E 11 b0 08 07
        E 11 b0 08 06
        E 11 b0 08 05
        E 11 b0 08 05
        E 11 b0 08 04
        E 11 b0 08 03
        E 11 b0 08 02
        E 11 b0 08 02
        E 11 b0 08 01
        E 11 b0 08 01
        E 11 b0 08 00
        E 11 b0 08 00
        E 11 b0 08 00
        E 11 b0 08 00
        E 11 b0 08 00
        E 11 b0 08 00
        E 11 b0 08 00
        E 11 b0 08 00
        E 11 b0 08 00
        E 11 b0 08 01
        E 11 b0 08 01
        E 11 b0 08 02
        E 11 b0 08 02
        E 11 b0 08 03
        E 11 b0 08 03
        E 11 b0 08 04
        E 11 b0 08 05
        E 11 b0 08 06
        E 11 b0 08 07
        E 11 b0 08 08
        E 11 b0 08 09
        E 11 b0 08 0a
        E 11 b0 08 0b
        E 11 b0 08 0c
        E 11 b0 08 0e
        E 11 b0 08 0f
        E 11 b0 08 10
        E 11 b0 08 12
        E 11 b0 08 13
        E 11 b0 08 15
        E 11 b0 08 16
        E 11 b0 08 18
        E 11 b0 08 19
        E 11 b0 08 1b
        E 11 b0 08 1c
        E 11 b0 08 1e
        E 11 b0 08 20
        E 13 b0 08 40
        E 13 b0 08 43
        E 13 b0 08 46
        E 13 b0 08 49
        E 13 b0 08 4c
        E 13 b0 08 4f
        E 13 b0 08 52
        E 13 b0 08 55
        E 13 b0 08 58
        E 13 b0 08 5b
        E 13 b0 08 5e
        E 13 b0 08 60
        E 13 b0 08 63
        E 13 b0 08 66
        E 13 b0 08 68
        E 13 b0 08 6a
        E 13 b0 08 6d
        E 13 b0 08 6f
        E 13 b0 08 71
        E 13 b0 08 73
        E 13 b0 08 75
        E 13 b0 08 76
        E 13 b0 08 78
        E 13 b0 08 79
        E 13 b0 08 7a
        E 13 b0 08 7b
        E 13 b0 08 7c
        E 13 b0 08 7d
        E 13 b0 08 7e
        E 13 b0 08 7e
        E 13 b0 08 7f
        E 13 b0 08 7f
        E 13 b0 08 7f
        E 13 b0 08 7f
        E 13 b0 08 7f
        E 13 b0 08 7e
        E 13 b0 08 7e
        E 13 b0 08 7d
        E 13 b0 08 7c
        E 13 b0 08 7b
        E 13 b0 08 7a
        E 13 b0 08 78
        E 13 b0 08 77
        E 13 b0 08 75
        E 13 b0 08 74
        E 13 b0 08 72
        E 13 b0 08 70
        E 13 b0 08 6e
        E 13 b0 08 6c
        E 13 b0 08 69
        E 13 b0 08 67
        E 13 b0 08 64
        E 13 b0 08 62
        E 13 b0 08 5f
        E 13 b0 08 5c
        E 13 b0 08 59
        E 13 b0 08 57
        E 13 b0 08 54
        E 13 b0 08 51
        E 13 b0 08 4e
        E 13 b0 08 4a
        E 13 b0 08 47
        E 13 b0 08 44
        E 13 b0 08 41
        E 13 b0 08 3e
        E 13 b0 08 3b
        E 13 b0 08 38
        E 13 b0 08 35
        E 13 b0 08 31
        E 13 b0 08 2e
        E 13 b0 08 2b
        E 13 b0 08 28
        E 13 b0 08 26
        E 13 b0 08 23
        E 13 b0 08 20
        E 13 b0 08 1d
        E 13 b0 08 1b
        E 13 b0 08 18
        E 13 b0 08 16
        E 13 b0 08 13
        E 13 b0 08 11
        E 13 b0 08 0f
        E 13 b0 08 0d
        E 13 b0 08 0b
        E 13 b0 08 0a
        E 13 b0 08 08
        E 13 b0 08 07
        E 13 b0 08 05
        E 13 b0 08 04
        E 13 b0 08 03
        E 13 b0 08 02
        E 13 b0 08 01
        E 13 b0 08 01
        E 13 b0 08 00
        E 13 b0 08 00
        E 13 b0 08 00
        E 13 b0 08 00
        E 13 b0 08 00
        E 13 b0 08 01
        E 13 b0 08 01
        E 13 b0 08 02
        E 13 b0 08 03
        E 13 b0 08 04
        E 13 b0 08 05
        E 13 b0 08 06
        E 13 b0 08 07
        E 13 b0 08 09
        E 13 b0 08 0a
        E 13 b0 08 0c
        E 13 b0 08 0e
        E 13 b0 08 10
        E 13 b0 08 12
        E 13 b0 08 15
        E 13 b0 08 17
        E 13 b0 08 19
        E 13 b0 08 1c
        E 13 b0 08 1f
        E 13 b0 08 21
        E 13 b0 08 24
        E 13 b0 08 27
        E 13 b0 08 2a
        E 13 b0 08 2d
        E 13 b0 08 30
        E 13 b0 08 33
        E 13 b0 08 36
        E 13 b0 08 39
        E 13 b0 08 3c
        E 13 b0 08 40
        E 1 b0 08 39
        E 1 b0 08 3c
        E 1 b0 08 3f
        E 1 b0 08 41
        E 1 b0 08 44
        E 1 b0 08 47
        E 1 b0 08 49
        E 1 b0 08 4c
        E 1 b0 08 4f
        E 1 b0 08 51
        E 1 b0 08 54
        E 1 b0 08 56
        E 1 b0 08 59
        E 1 b0 08 5b
        E 1 b0 08 5d
        E 1 b0 08 5f
        E 1 b0 08 62
        E 1 b0 08 63
        E 1 b0 08 65
        E 1 b0 08 67
        E 1 b0 08 69
        E 1 b0 08 6a
        E 1 b0 08 6c
        E 1 b0 08 6c
        E 1 b0 08 6d
        E 1 b0 08 6e
        E 1 b0 08 6f
        E 1 b0 08 70
        E 1 b0 08 71
        E 1 b0 08 71
        E 1 b0 08 72
        E 1 b0 08 72
        E 1 b0 08 72
        E 1 b0 08 72
        E 1 b0 08 72
        E 1 b0 08 71
        E 1 b0 08 71
        E 1 b0 08 70
        E 1 b0 08 6f
        E 1 b0 08 6e
        E 1 b0 08 6d
        E 1 b0 08 6c
        E 1 b0 08 6b
        E 1 b0 08 69
        E 1 b0 08 68
        E 1 b0 08 66
        E 1 b0 08 64
        E 1 b0 08 63
        E 1 b0 08 61
        E 1 b0 08 5e
        E 1 b0 08 5c
        E 1 b0 08 5a
        E 1 b0 08 58
        E 1 b0 08 55
        E 1 b0 08 52
        E 1 b0 08 50
        E 1 b0 08 4e
        E 1 b0 08 4b
        E 1 b0 08 48
        E 1 b0 08 46
        E 1 b0 08 42
        E 1 b0 08 3f
        E 1 b0 08 3d
        E 1 b0 08 3a
        E 1 b0 08 37
        E 1 b0 08 35
        E 1 b0 08 32
        E 1 b0 08 2f
        E 1 b0 08 2c
        E 1 b0 08 29
        E 1 b0 08 26
        E 1 b0 08 24
        E 1 b0 08 22
        E 1 b0 08 1f
        E 1 b0 08 1c
        E 1 b0 08 1a
        E 1 b0 08 18
        E 1 b0 08 15
        E 1 b0 08 13
        E 1 b0 08 11
        E 1 b0 08 0f
        E 1 b0 08 0d
        E 1 b0 08 0b
        E 1 b0 08 09
        E 1 b0 08 09
        E 1 b0 08 07
        E 1 b0 08 06
        E 1 b0 08 04
        E 1 b0 08 03
        E 1 b0 08 02
        E 1 b0 08 01
        E 1 b0 08 00
        E 1 b0 08 00
        E 1 b0 08 00
        E 1 b0 08 00
        E 1 b0 08 00
        E 1 b0 08 00
        E 1 b0 08 00
        E 1 b0 08 00
        E 1 b0 08 00
        E 1 b0 08 01
        E 1 b0 08 02
        E 1 b0 08 03
        E 1 b0 08 04
        E 1 b0 08 05
        E 1 b0 08 06
        E 1 b0 08 08
        E 1 b0 08 09
        E 1 b0 08 0a
        E 1 b0 08 0c
        E 1 b0 08 0e
        E 1 b0 08 10
        E 1 b0 08 12
        E 1 b0 08 14
        E 1 b0 08 16
        E 1 b0 08 19
        E 1 b0 08 1b
        E 1 b0 08 1d
        E 1 b0 08 20
        E 1 b0 08 23
        E 1 b0 08 25
        E 1 b0 08 28
        E 1 b0 08 2b
        E 1 b0 08 2d
        E 1 b0 08 30
        E 1 b0 08 33
        E 1 b0 08 36
        E 1 b0 08 39
        E 6 b0 08 40
        E 6 b0 08 43
        E 6 b0 08 46
        E 6 b0 08 49
        E 6 b0 08 4c
        E 6 b0 08 4f
        E 6 b0 08 52
        E 6 b0 08 55
        E 6 b0 08 58
        E 6 b0 08 5b
        E 6 b0 08 5e
        E 6 b0 08 60
        E 6 b0 08 63
        E 6 b0 08 66
        E 6 b0 08 68
        E 6 b0 08 6a
        E 6 b0 08 6d
        E 6 b0 08 6f
        E 6 b0 08 71
        E 6 b0 08 73
        E 6 b0 08 75
        E 6 b0 08 76
        E 6 b0 08 78
        E 6 b0 08 79
        E 6 b0 08 7a
        E 6 b0 08 7b
        E 6 b0 08 7c
        E 6 b0 08 7d
        E 6 b0 08 7e
        E 6 b0 08 7e
        E 6 b0 08 7f
        E 6 b0 08 7f
        E 6 b0 08 7f
        E 6 b0 08 7f
        E 6 b0 08 7f
        E 6 b0 08 7e
        E 6 b0 08 7e
        E 6 b0 08 7d
        E 6 b0 08 7c
        E 6 b0 08 7b
        E 6 b0 08 7a
        E 6 b0 08 78
        E 6 b0 08 77
        E 6 b0 08 75
        E 6 b0 08 74
        E 6 b0 08 72
        E 6 b0 08 70
        E 6 b0 08 6e
        E 6 b0 08 6c
        E 6 b0 08 69
        E 6 b0 08 67
        E 6 b0 08 64
        E 6 b0 08 62
        E 6 b0 08 5f
        E 6 b0 08 5c
        E 6 b0 08 59
        E 6 b0 08 57
        E 6 b0 08 54
        E 6 b0 08 51
        E 6 b0 08 4e
        E 6 b0 08 4a
        E 6 b0 08 47
        E 6 b0 08 44
        E 6 b0 08 41
        E 6 b0 08 3e
        E 6 b0 08 3b
        E 6 b0 08 38
        E 6 b0 08 35
        E 6 b0 08 31
        E 6 b0 08 2e
        E 6 b0 08 2b
        E 6 b0 08 28
        E 6 b0 08 26
        E 6 b0 08 23
        E 6 b0 08 20
        E 6 b0 08 1d
        E 6 b0 08 1b
        E 6 b0 08 18
        E 6 b0 08 16
        E 6 b0 08 13
        E 6 b0 08 11
        E 6 b0 08 0f
        E 6 b0 08 0d
        E 6 b0 08 0b
        E 6 b0 08 0a
        E 6 b0 08 08
        E 6 b0 08 07
        E 6 b0 08 05
        E 6 b0 08 04
        E 6 b0 08 03
        E 6 b0 08 02
        E 6 b0 08 01
        E 6 b0 08 01
        E 6 b0 08 00
        E 6 b0 08 00
        E 6 b0 08 00
        E 6 b0 08 00
        E 6 b0 08 00
        E 6 b0 08 01
        E 6 b0 08 01
        E 6 b0 08 02
        E 6 b0 08 03
        E 6 b0 08 04
        E 6 b0 08 05
        E 6 b0 08 06
        E 6 b0 08 07
        E 6 b0 08 09
        E 6 b0 08 0a
        E 6 b0 08 0c
        E 6 b0 08 0e
        E 6 b0 08 10
        E 6 b0 08 12
        E 6 b0 08 15
        E 6 b0 08 17
        E 6 b0 08 19
        E 6 b0 08 1c
        E 6 b0 08 1f
        E 6 b0 08 21
        E 6 b0 08 24
        E 6 b0 08 27
        E 6 b0 08 2a
        E 6 b0 08 2d
        E 6 b0 08 30
        E 6 b0 08 33
        E 6 b0 08 36
        E 6 b0 08 39
        E 6 b0 08 3c
        E 6 b0 08 40
        E 11 b0 08 39
        E 11 b0 08 3c
        E 11 b0 08 3f
        E 11 b0 08 41
        E 11 b0 08 44
        E 11 b0 08 47
        E 11 b0 08 49
        E 11 b0 08 4c
        E 11 b0 08 4f
        E 11 b0 08 51
        E 11 b0 08 54
        E 11 b0 08 56
        E 11 b0 08 59
        E 11 b0 08 5b
        E 11 b0 08 5d
        E 11 b0 08 5f
        E 11 b0 08 62
        E 11 b0 08 63
        E 11 b0 08 65
        E 11 b0 08 67
        E 11 b0 08 69
        E 11 b0 08 6a
        E 11 b0 08 6c
        E 11 b0 08 6c
        E 11 b0 08 6d
        E 11 b0 08 6e
        E 11 b0 08 6f
        E 11 b0 08 70
        E 11 b0 08 71
        E 11 b0 08 71
        E 11 b0 08 72
        E 11 b0 08 72
        E 11 b0 08 72
        E 11 b0 08 72
        E 11 b0 08 72
        E 11 b0 08 71
        E 11 b0 08 71
        E 11 b0 08 70
        E 11 b0 08 6f
        E 11 b0 08 6e
        E 11 b0 08 6d
        E 11 b0 08 6c
        E 11 b0 08 6b
        E 11 b0 08 69
        E 11 b0 08 68
        E 11 b0 08 66
        E 11 b0 08 64
        E 11 b0 08 63
        E 11 b0 08 61
        E 11 b0 08 5e
        E 11 b0 08 5c
        E 11 b0 08 5a
        E 11 b0 08 58
        E 11 b0 08 55
        E 11 b0 08 52
        E 11 b0 08 50
        E 11 b0 08 4e
        E 11 b0 08 4b
        E 11 b0 08 48
        E 11 b0 08 46
        E 11 b0 08 42
        E 11 b0 08 3f
        E 11 b0 08 3d
        E 11 b0 08 3a
        E 11 b0 08 37
        E 11 b0 08 35
        E 11 b0 08 32
        E 11 b0 08 2f
        E 11 b0 08 2c
        E 11 b0 08 29
        E 11 b0 08 26
        E 11 b0 08 24
        E 11 b0 08 22
        E 11 b0 08 1f
        E 11 b0 08 1c
        E 11 b0 08 1a
        E 11 b0 08 18
        E 11 b0 08 15
        E 11 b0 08 13
        E 11 b0 08 11
        E 11 b0 08 0f
        E 11 b0 08 0d
        E 11 b0 08 0b
        E 11 b0 08 09
        E 11 b0 08 09
        E 11 b0 08 07
        E 11 b0 08 06
        E 11 b0 08 04
        E 11 b0 08 03
        E 11 b0 08 02
        E 11 b0 08 01
        E 11 b0 08 00
        E 11 b0 08 00
        E 11 b0 08 00
        E 11 b0 08 00
        E 11 b0 08 00
        E 11 b0 08 00
        E 11 b0 08 00
        E 11 b0 08 00
        E 11 b0 08 00
        E 11 b0 08 01
        E 11 b0 08 02
        E 11 b0 08 03
        E 11 b0 08 04
        E 11 b0 08 05
        E 11 b0 08 06
        E 11 b0 08 08
        E 11 b0 08 09
        E 11 b0 08 0a
        E 11 b0 08 0c
        E 11 b0 08 0e
        E 11 b0 08 10
        E 11 b0 08 12
        E 11 b0 08 14
        E 11 b0 08 16
        E 11 b0 08 19
        E 11 b0 08 1b
        E 11 b0 08 1d
        E 11 b0 08 20
        E 11 b0 08 23
        E 11 b0 08 25
        E 11 b0 08 28
        E 11 b0 08 2b
        E 11 b0 08 2d
        E 11 b0 08 30
        E 11 b0 08 33
        E 11 b0 08 36
        E 11 b0 08 39
        E 8 b0 08 20
        E 8 b0 08 21
        E 8 b0 08 23
        E 8 b0 08 24
        E 8 b0 08 26
        E 8 b0 08 27
        E 8 b0 08 29
        E 8 b0 08 2a
        E 8 b0 08 2c
        E 8 b0 08 2d
        E 8 b0 08 2f
        E 8 b0 08 30
        E 8 b0 08 31
        E 8 b0 08 33
        E 8 b0 08 34
        E 8 b0 08 35
        E 8 b0 08 36
        E 8 b0 08 37
        E 8 b0 08 38
        E 8 b0 08 39
        E 8 b0 08 3a
        E 8 b0 08 3b
        E 8 b0 08 3c
        E 8 b0 08 3c
        E 8 b0 08 3d
        E 8 b0 08 3d
        E 8 b0 08 3e
        E 8 b0 08 3e
        E 8 b0 08 3f
        E 8 b0 08 3f
        E 8 b0 08 3f
        E 8 b0 08 3f
        E 8 b0 08 3f
        E 8 b0 08 3f
        E 8 b0 08 3f
        E 8 b0 08 3f
        E 8 b0 08 3f
        E 8 b0 08 3e
        E 8 b0 08 3e
        E 8 b0 08 3d
        E 8 b0 08 3d
        E 8 b0 08 3c
        E 8 b0 08 3b
        E 8 b0 08 3a
        E 8 b0 08 3a
        E 8 b0 08 39
        E 8 b0 08 38
        E 8 b0 08 37
        E 8 b0 08 36
        E 8 b0 08 34
        E 8 b0 08 33
        E 8 b0 08 32
        E 8 b0 08 31
        E 8 b0 08 2f
        E 8 b0 08 2e
        E 8 b0 08 2c
        E 8 b0 08 2b
        E 8 b0 08 2a
        E 8 b0 08 28
        E 8 b0 08 27
        E 8 b0 08 25
        E 8 b0 08 23
        E 8 b0 08 22
        E 8 b0 08 20
        E 8 b0 08 1f
        E 8 b0 08 1d
        E 8 b0 08 1c
        E 8 b0 08 1a
        E 8 b0 08 18
        E 8 b0 08 17
        E 8 b0 08 15
        E 8 b0 08 14
        E 8 b0 08 13
        E 8 b0 08 11
        E 8 b0 08 10
        E 8 b0 08 0e
        E 8 b0 08 0d
        E 8 b0 08 0c
        E 8 b0 08 0b
        E 8 b0 08 09
        E 8 b0 08 08
        E 8 b0 08 07
        E 8 b0 08 06
        E 8 b0 08 05
        E 8 b0 08 05
        E 8 b0 08 04
        E 8 b0 08 03
        E 8 b0 08 02
        E 8 b0 08 02
        E 8 b0 08 01
        E 8 b0 08 01
        E 8 b0 08 00
        E 8 b0 08 00
        E 8 b0 08 00
        E 8 b0 08 00
        E 8 b0 08 00
        E 8 b0 08 00
        E 8 b0 08 00
        E 8 b0 08 00
        E 8 b0 08 00
        E 8 b0 08 01
        E 8 b0 08 01
        E 8 b0 08 02
        E 8 b0 08 02
        E 8 b0 08 03
        E 8 b0 08 03
        E 8 b0 08 04
        E 8 b0 08 05
        E 8 b0 08 06
        E 8 b0 08 07
        E 8 b0 08 08
        E 8 b0 08 09
        E 8 b0 08 0a
        E 8 b0 08 0b
        E 8 b0 08 0c
        E 8 b0 08 0e
        E 8 b0 08 0f
        E 8 b0 08 10
        E 8 b0 08 12
        E 8 b0 08 13
        E 8 b0 08 15
        E 8 b0 08 16
        E 8 b0 08 18
        E 8 b0 08 19
        E 8 b0 08 1b
        E 8 b0 08 1c
        E 8 b0 08 1e
        E 8 b0 08 20
        E 8 b0 08 20
        E 8 b0 08 21
        E 8 b0 08 23
        E 8 b0 08 24
        E 8 b0 08 26
        E 8 b0 08 27
        E 8 b0 08 29
        E 8 b0 08 2a
        E 8 b0 08 2c
        E 8 b0 08 2d
        E 8 b0 08 2f
        E 8 b0 08 30
        E 8 b0 08 31
        E 8 b0 08 33
        E 8 b0 08 34
        E 8 b0 08 35
        E 8 b0 08 36
        E 8 b0 08 37
        E 8 b0 08 38
        E 8 b0 08 39
        E 8 b0 08 3a
        E 8 b0 08 3b
        E 8 b0 08 3c
        E 8 b0 08 3c
        E 8 b0 08 3d
        E 8 b0 08 3d
        E 8 b0 08 3e
        E 8 b0 08 3e
        E 8 b0 08 3f
        E 8 b0 08 3f
        E 8 b0 08 3f
        E 8 b0 08 3f
        E 8 b0 08 3f
        E 8 b0 08 3f
        E 8 b0 08 3f
        E 8 b0 08 3f
        E 8 b0 08 3f
        E 8 b0 08 3e
        E 8 b0 08 3e
        E 8 b0 08 3d
        E 8 b0 08 3d
        E 8 b0 08 3c
        E 8 b0 08 3b
        E 8 b0 08 3a
        E 8 b0 08 3a
        E 8 b0 08 39
        E 8 b0 08 38
        E 8 b0 08 37
        E 8 b0 08 36
        E 8 b0 08 34
        E 8 b0 08 33
        E 8 b0 08 32
        E 8 b0 08 31
        E 8 b0 08 2f
        E 8 b0 08 2e
        E 8 b0 08 2c
        E 8 b0 08 2b
        E 8 b0 08 2a
        E 8 b0 08 28
        E 8 b0 08 27
        E 8 b0 08 25
        E 8 b0 08 23
        E 8 b0 08 22
        E 8 b0 08 20
        E 8 b0 08 1f
        E 8 b0 08 1d
        E 8 b0 08 1c
        E 8 b0 08 1a
        E 8 b0 08 18
        E 8 b0 08 17
        E 8 b0 08 15
        E 8 b0 08 14
        E 8 b0 08 13
        E 8 b0 08 11
        E 8 b0 08 10
        E 8 b0 08 0e
        E 8 b0 08 0d
        E 8 b0 08 0c
        E 8 b0 08 0b
        E 8 b0 08 09
        E 8 b0 08 08
        E 8 b0 08 07
        E 8 b0 08 06
        E 8 b0 08 05
        E 8 b0 08 05
        E 8 b0 08 04
        E 8 b0 08 03
        E 8 b0 08 02
        E 8 b0 08 02
        E 8 b0 08 01
        E 8 b0 08 01
        E 8 b0 08 00
        E 8 b0 08 00
        E 8 b0 08 00
        E 8 b0 08 00
        E 8 b0 08 00
        E 8 b0 08 00
        E 8 b0 08 00
        E 8 b0 08 00
        E 8 b0 08 00
        E 8 b0 08 01
        E 8 b0 08 01
        E 8 b0 08 02
        E 8 b0 08 02
        E 8 b0 08 03
        E 8 b0 08 03
        E 8 b0 08 04
        E 8 b0 08 05
        E 8 b0 08 06
        E 8 b0 08 07
        E 8 b0 08 08
        E 8 b0 08 09
        E 8 b0 08 0a
        E 8 b0 08 0b
        E 8 b0 08 0c
        E 8 b0 08 0e
        E 8 b0 08 0f
        E 8 b0 08 10
        E 8 b0 08 12
        E 8 b0 08 13
        E 8 b0 08 15
        E 8 b0 08 16
        E 8 b0 08 18
        E 8 b0 08 19
        E 8 b0 08 1b
        E 8 b0 08 1c
        E 8 b0 08 1e
        E 8 b0 08 20
        E 17 b0 08 2c
        E 17 b0 08 2e
        E 17 b0 08 31
        E 17 b0 08 33
        E 17 b0 08 35
        E 17 b0 08 37
        E 17 b0 08 39
        E 17 b0 08 3b
        E 17 b0 08 3d
        E 17 b0 08 3f
        E 17 b0 08 41
        E 17 b0 08 43
        E 17 b0 08 45
        E 17 b0 08 47
        E 17 b0 08 48
        E 17 b0 08 4a
        E 17 b0 08 4c
        E 17 b0 08 4d
        E 17 b0 08 4f
        E 17 b0 08 50
        E 17 b0 08 51
        E 17 b0 08 52
        E 17 b0 08 54
        E 17 b0 08 54
        E 17 b0 08 55
        E 17 b0 08 56
        E 17 b0 08 56
        E 17 b0 08 57
        E 17 b0 08 58
        E 17 b0 08 58
        E 17 b0 08 58
        E 17 b0 08 58
        E 17 b0 08 58
        E 17 b0 08 58
        E 17 b0 08 58
        E 17 b0 08 58
        E 17 b0 08 58
        E 17 b0 08 57
        E 17 b0 08 56
        E 17 b0 08 56
        E 17 b0 08 55
        E 17 b0 08 54
        E 17 b0 08 53
        E 17 b0 08 51
        E 17 b0 08 51
        E 17 b0 08 4f
        E 17 b0 08 4e
        E 17 b0 08 4d
        E 17 b0 08 4b
        E 17 b0 08 49
        E 17 b0 08 48
        E 17 b0 08 46
        E 17 b0 08 44
        E 17 b0 08 42
        E 17 b0 08 40
        E 17 b0 08 3e
        E 17 b0 08 3c
        E 17 b0 08 3a
        E 17 b0 08 38
        E 17 b0 08 36
        E 17 b0 08 33
        E 17 b0 08 31
        E 17 b0 08 2f
        E 17 b0 08 2d
        E 17 b0 08 2b
        E 17 b0 08 29
        E 17 b0 08 27
        E 17 b0 08 25
        E 17 b0 08 22
        E 17 b0 08 20
        E 17 b0 08 1e
        E 17 b0 08 1c
        E 17 b0 08 1a
        E 17 b0 08 18
        E 17 b0 08 16
        E 17 b0 08 14
        E 17 b0 08 12
        E 17 b0 08 10
        E 17 b0 08 0f
        E 17 b0 08 0d
        E 17 b0 08 0b
        E 17 b0 08 0a
        E 17 b0 08 09
        E 17 b0 08 07
        E 17 b0 08 07
        E 17 b0 08 05
        E 17 b0 08 04
        E 17 b0 08 03
        E 17 b0 08 02
        E 17 b0 08 02
        E 17 b0 08 01
        E 17 b0 08 00
        E 17 b0 08 00
        E 17 b0 08 00
        E 17 b0 08 00
        E 17 b0 08 00
        E 17 b0 08 00
        E 17 b0 08 00
        E 17 b0 08 00
        E 17 b0 08 00
        E 17 b0 08 01
        E 17 b0 08 02
        E 17 b0 08 02
        E 17 b0 08 03
        E 17 b0 08 04
        E 17 b0 08 04
        E 17 b0 08 06
        E 17 b0 08 07
        E 17 b0 08 08
        E 17 b0 08 09
        E 17 b0 08 0b
        E 17 b0 08 0c
        E 17 b0 08 0e
        E 17 b0 08 10
        E 17 b0 08 11
        E 17 b0 08 13
        E 17 b0 08 15
        E 17 b0 08 17
        E 17 b0 08 19
        E 17 b0 08 1b
        E 17 b0 08 1d
        E 17 b0 08 1f
        E 17 b0 08 21
        E 17 b0 08 23
        E 17 b0 08 25
        E 17 b0 08 27
        E 17 b0 08 2a
        E 17 b0 08 2c
        E 15 b0 08 33
        E 15 b0 08 35
        E 15 b0 08 37
        E 15 b0 08 3a
        E 15 b0 08 3c
        E 15 b0 08 3f
        E 15 b0 08 41
        E 15 b0 08 44
        E 15 b0 08 46
        E 15 b0 08 48
        E 15 b0 08 4b
        E 15 b0 08 4c
        E 15 b0 08 4f
        E 15 b0 08 51
        E 15 b0 08 53
        E 15 b0 08 54
        E 15 b0 08 57
        E 15 b0 08 58
        E 15 b0 08 5a
        E 15 b0 08 5b
        E 15 b0 08 5d
        E 15 b0 08 5e
        E 15 b0 08 5f
        E 15 b0 08 60
        E 15 b0 08 61
        E 15 b0 08 62
        E 15 b0 08 63
        E 15 b0 08 63
        E 15 b0 08 64
        E 15 b0 08 64
        E 15 b0 08 65
        E 15 b0 08 65
        E 15 b0 08 65
        E 15 b0 08 65
        E 15 b0 08 65
        E 15 b0 08 64
        E 15 b0 08 64
        E 15 b0 08 63
        E 15 b0 08 63
        E 15 b0 08 62
        E 15 b0 08 61
        E 15 b0 08 5f
        E 15 b0 08 5f
        E 15 b0 08 5d
        E 15 b0 08 5c
        E 15 b0 08 5b
        E 15 b0 08 59
        E 15 b0 08 57
        E 15 b0 08 56
        E 15 b0 08 54
        E 15 b0 08 52
        E 15 b0 08 50
        E 15 b0 08 4e
        E 15 b0 08 4c
        E 15 b0 08 49
        E 15 b0 08 47
        E 15 b0 08 45
        E 15 b0 08 43
        E 15 b0 08 40
        E 15 b0 08 3e
        E 15 b0 08 3b
        E 15 b0 08 38
        E 15 b0 08 36
        E 15 b0 08 33
        E 15 b0 08 31
        E 15 b0 08 2f
        E 15 b0 08 2c
        E 15 b0 08 2a
        E 15 b0 08 27
        E 15 b0 08 24
        E 15 b0 08 22
        E 15 b0 08 1f
        E 15 b0 08 1e
        E 15 b0 08 1b
        E 15 b0 08 19
        E 15 b0 08 17
        E 15 b0 08 15
        E 15 b0 08 13
        E 15 b0 08 11
        E 15 b0 08 0f
        E 15 b0 08 0d
        E 15 b0 08 0b
        E 15 b0 08 0a
        E 15 b0 08 08
        E 15 b0 08 07
        E 15 b0 08 06
        E 15 b0 08 05
        E 15 b0 08 03
        E 15 b0 08 03
        E 15 b0 08 02
        E 15 b0 08 01
        E 15 b0 08 00
        E 15 b0 08 00
        E 15 b0 08 00
        E 15 b0 08 00
        E 15 b0 08 00
        E 15 b0 08 00
        E 15 b0 08 00
        E 15 b0 08 00
        E 15 b0 08 00
        E 15 b0 08 01
        E 15 b0 08 02
        E 15 b0 08 03
        E 15 b0 08 03
        E 15 b0 08 04
        E 15 b0 08 05
        E 15 b0 08 07
        E 15 b0 08 07
        E 15 b0 08 09
        E 15 b0 08 0b
        E 15 b0 08 0c
        E 15 b0 08 0e
        E 15 b0 08 10
        E 15 b0 08 12
        E 15 b0 08 14
        E 15 b0 08 16
        E 15 b0 08 18
        E 15 b0 08 1a
        E 15 b0 08 1c
        E 15 b0 08 1f
        E 15 b0 08 21
        E 15 b0 08 24
        E 15 b0 08 26
        E 15 b0 08 28
        E 15 b0 08 2b
        E 15 b0 08 2d
        E 15 b0 08 2f
        E 15 b0 08 33
        E 17 b0 08 06
        E 17 b0 08 06
        E 17 b0 08 07
        E 17 b0 08 07
        E 17 b0 08 07
        E 17 b0 08 07
        E 17 b0 08 08
        E 17 b0 08 08
        E 17 b0 08 08
        E 17 b0 08 09
        E 17 b0 08 09
        E 17 b0 08 09
        E 17 b0 08 09
        E 17 b0 08 0a
        E 17 b0 08 0a
        E 17 b0 08 0a
        E 17 b0 08 0a
        E 17 b0 08 0b
        E 17 b0 08 0b
        E 17 b0 08 0b
        E 17 b0 08 0b
        E 17 b0 08 0b
        E 17 b0 08 0c
        E 17 b0 08 0c
        E 17 b0 08 0c
        E 17 b0 08 0c
        E 17 b0 08 0c
        E 17 b0 08 0c
        E 17 b0 08 0c
        E 17 b0 08 0c
        E 17 b0 08 0c
        E 17 b0 08 0c
        E 17 b0 08 0c
        E 17 b0 08 0c
        E 17 b0 08 0c
        E 17 b0 08 0c
        E 17 b0 08 0c
        E 17 b0 08 0c
        E 17 b0 08 0c
        E 17 b0 08 0c
        E 17 b0 08 0c
        E 17 b0 08 0c
        E 17 b0 08 0b
        E 17 b0 08 0b
        E 17 b0 08 0b
        E 17 b0 08 0b
        E 17 b0 08 0b
        E 17 b0 08 0b
        E 17 b0 08 0a
        E 17 b0 08 0a
        E 17 b0 08 0a
        E 17 b0 08 0a
        E 17 b0 08 09
        E 17 b0 08 09
        E 17 b0 08 09
        E 17 b0 08 08
        E 17 b0 08 08
        E 17 b0 08 08
        E 17 b0 08 08
        E 17 b0 08 07
        E 17 b0 08 07
        E 17 b0 08 07
        E 17 b0 08 06
        E 17 b0 08 06
        E 17 b0 08 06
        E 17 b0 08 05
        E 17 b0 08 05
        E 17 b0 08 05
        E 17 b0 08 04
        E 17 b0 08 04
        E 17 b0 08 04
        E 17 b0 08 04
        E 17 b0 08 03
        E 17 b0 08 03
        E 17 b0 08 03
        E 17 b0 08 02
        E 17 b0 08 02
        E 17 b0 08 02
        E 17 b0 08 02
        E 17 b0 08 01
        E 17 b0 08 01
        E 17 b0 08 01
        E 17 b0 08 01
        E 17 b0 08 01
        E 17 b0 08 01
        E 17 b0 08 00
        E 17 b0 08 00
        E 17 b0 08 00
        E 17 b0 08 00
        E 17 b0 08 00
        E 17 b0 08 00
        E 17 b0 08 00
        E 17 b0 08 00
        E 17 b0 08 00
        E 17 b0 08 00
        E 17 b0 08 00
        E 17 b0 08 00
        E 17 b0 08 00
        E 17 b0 08 00
        E 17 b0 08 00
        E 17 b0 08 00
        E 17 b0 08 00
        E 17 b0 08 00
        E 17 b0 08 00
        E 17 b0 08 00
        E 17 b0 08 00
        E 17 b0 08 00
        E 17 b0 08 01
        E 17 b0 08 01
        E 17 b0 08 01
        E 17 b0 08 01
        E 17 b0 08 01
        E 17 b0 08 02
        E 17 b0 08 02
        E 17 b0 08 02
        E 17 b0 08 02
        E 17 b0 08 03
        E 17 b0 08 03
        E 17 b0 08 03
        E 17 b0 08 03
        E 17 b0 08 04
        E 17 b0 08 04
        E 17 b0 08 04
        E 17 b0 08 05
        E 17 b0 08 05
        E 17 b0 08 05
        E 17 b0 08 06
        E 17 b0 08 06
        E 15 b0 08 19
        E 15 b0 08 1a
        E 15 b0 08 1c
        E 15 b0 08 1d
        E 15 b0 08 1e
        E 15 b0 08 1f
        E 15 b0 08 20
        E 15 b0 08 22
        E 15 b0 08 23
        E 15 b0 08 24
        E 15 b0 08 25
        E 15 b0 08 26
        E 15 b0 08 27
        E 15 b0 08 28
        E 15 b0 08 29
        E 15 b0 08 2a
        E 15 b0 08 2b
        E 15 b0 08 2c
        E 15 b0 08 2d
        E 15 b0 08 2e
        E 15 b0 08 2e
        E 15 b0 08 2f
        E 15 b0 08 30
        E 15 b0 08 30
        E 15 b0 08 30
        E 15 b0 08 31
        E 15 b0 08 31
        E 15 b0 08 32
        E 15 b0 08 32
        E 15 b0 08 32
        E 15 b0 08 32
        E 15 b0 08 32
        E 15 b0 08 32
        E 15 b0 08 32
        E 15 b0 08 32
        E 15 b0 08 32
        E 15 b0 08 32
        E 15 b0 08 32
        E 15 b0 08 31
        E 15 b0 08 31
        E 15 b0 08 30
        E 15 b0 08 30
        E 15 b0 08 2f
        E 15 b0 08 2e
        E 15 b0 08 2e
        E 15 b0 08 2d
        E 15 b0 08 2c
        E 15 b0 08 2c
        E 15 b0 08 2b
        E 15 b0 08 2a
        E 15 b0 08 29
        E 15 b0 08 28
        E 15 b0 08 27
        E 15 b0 08 26
        E 15 b0 08 24
        E 15 b0 08 23
        E 15 b0 08 22
        E 15 b0 08 21
        E 15 b0 08 20
        E 15 b0 08 1f
        E 15 b0 08 1d
        E 15 b0 08 1c
        E 15 b0 08 1b
        E 15 b0 08 1a
        E 15 b0 08 18
        E 15 b0 08 17
        E 15 b0 08 16
        E 15 b0 08 15
        E 15 b0 08 13
        E 15 b0 08 12
        E 15 b0 08 11
        E 15 b0 08 10
        E 15 b0 08 0f
        E 15 b0 08 0e
        E 15 b0 08 0c
        E 15 b0 08 0b
        E 15 b0 08 0a
        E 15 b0 08 09
        E 15 b0 08 08
        E 15 b0 08 07
        E 15 b0 08 06
        E 15 b0 08 06
        E 15 b0 08 05
        E 15 b0 08 04
        E 15 b0 08 04
        E 15 b0 08 03
        E 15 b0 08 02
        E 15 b0 08 02
        E 15 b0 08 01
        E 15 b0 08 01
        E 15 b0 08 00
        E 15 b0 08 00
        E 15 b0 08 00
        E 15 b0 08 00
        E 15 b0 08 00
        E 15 b0 08 00
        E 15 b0 08 00
        E 15 b0 08 00
        E 15 b0 08 00
        E 15 b0 08 00
        E 15 b0 08 00
        E 15 b0 08 01
        E 15 b0 08 01
        E 15 b0 08 02
        E 15 b0 08 02
        E 15 b0 08 02
        E 15 b0 08 03
        E 15 b0 08 04
        E 15 b0 08 04
        E 15 b0 08 05
        E 15 b0 08 06
        E 15 b0 08 07
        E 15 b0 08 08
        E 15 b0 08 09
        E 15 b0 08 0a
        E 15 b0 08 0b
        E 15 b0 08 0c
        E 15 b0 08 0d
        E 15 b0 08 0e
        E 15 b0 08 0f
        E 15 b0 08 10
        E 15 b0 08 12
        E 15 b0 08 13
        E 15 b0 08 14
        E 15 b0 08 15
        E 15 b0 08 16
        E 15 b0 08 18
        E 15 b0 08 19
        E 8 b0 08 2c
        E 8 b0 08 2e
        E 8 b0 08 31
        E 8 b0 08 33
        E 8 b0 08 35
        E 8 b0 08 37
        E 8 b0 08 39
        E 8 b0 08 3b
        E 8 b0 08 3d
        E 8 b0 08 3f
        E 8 b0 08 41
        E 8 b0 08 43
        E 8 b0 08 45
        E 8 b0 08 47
        E 8 b0 08 48
        E 8 b0 08 4a
        E 8 b0 08 4c
        E 8 b0 08 4d
        E 8 b0 08 4f
        E 8 b0 08 50
        E 8 b0 08 51
        E 8 b0 08 52
        E 8 b0 08 54
        E 8 b0 08 54
        E 8 b0 08 55
        E 8 b0 08 56
        E 8 b0 08 56
        E 8 b0 08 57
        E 8 b0 08 58
        E 8 b0 08 58
        E 8 b0 08 58
        E 8 b0 08 58
        E 8 b0 08 58
        E 8 b0 08 58
        E 8 b0 08 58
        E 8 b0 08 58
        E 8 b0 08 58
        E 8 b0 08 57
        E 8 b0 08 56
        E 8 b0 08 56
        E 8 b0 08 55
        E 8 b0 08 54
        E 8 b0 08 53
        E 8 b0 08 51
        E 8 b0 08 51
        E 8 b0 08 4f
        E 8 b0 08 4e
        E 8 b0 08 4d
        E 8 b0 08 4b
        E 8 b0 08 49
        E 8 b0 08 48
        E 8 b0 08 46
        E 8 b0 08 44
        E 8 b0 08 42
        E 8 b0 08 40
        E 8 b0 08 3e
        E 8 b0 08 3c
        E 8 b0 08 3a
        E 8 b0 08 38
        E 8 b0 08 36
        E 8 b0 08 33
        E 8 b0 08 31
        E 8 b0 08 2f
        E 8 b0 08 2d
        E 8 b0 08 2b
        E 8 b0 08 29
        E 8 b0 08 27
        E 8 b0 08 25
        E 8 b0 08 22
        E 8 b0 08 20
        E 8 b0 08 1e
        E 8 b0 08 1c
        E 8 b0 08 1a
        E 8 b0 08 18
        E 8 b0 08 16
        E 8 b0 08 14
        E 8 b0 08 12
        E 8 b0 08 10
        E 8 b0 08 0f
        E 8 b0 08 0d
        E 8 b0 08 0b
        E 8 b0 08 0a
        E 8 b0 08 09
        E 8 b0 08 07
        E 8 b0 08 07
        E 8 b0 08 05
        E 8 b0 08 04
        E 8 b0 08 03
        E 8 b0 08 02
        E 8 b0 08 02
        E 8 b0 08 01
        E 8 b0 08 00
        E 8 b0 08 00
        E 8 b0 08 00
        E 8 b0 08 00
        E 8 b0 08 00
        E 8 b0 08 00
        E 8 b0 08 00
        E 8 b0 08 00
        E 8 b0 08 00
        E 8 b0 08 01
        E 8 b0 08 02
        E 8 b0 08 02
        E 8 b0 08 03
        E 8 b0 08 04
        E 8 b0 08 04
        E 8 b0 08 06
        E 8 b0 08 07
        E 8 b0 08 08
        E 8 b0 08 09
        E 8 b0 08 0b
        E 8 b0 08 0c
        E 8 b0 08 0e
        E 8 b0 08 10
        E 8 b0 08 11
        E 8 b0 08 13
        E 8 b0 08 15
        E 8 b0 08 17
        E 8 b0 08 19
        E 8 b0 08 1b
        E 8 b0 08 1d
        E 8 b0 08 1f
        E 8 b0 08 21
        E 8 b0 08 23
        E 8 b0 08 25
        E 8 b0 08 27
        E 8 b0 08 2a
        E 8 b0 08 2c
        E 8 b0 08 20
        E 8 b0 08 21
        E 8 b0 08 23
        E 8 b0 08 24
        E 8 b0 08 26
        E 8 b0 08 27
        E 8 b0 08 29
        E 8 b0 08 2a
        E 8 b0 08 2c
        E 8 b0 08 2d
        E 8 b0 08 2f
        E 8 b0 08 30
        E 8 b0 08 31
        E 8 b0 08 33
        E 8 b0 08 34
        E 8 b0 08 35
        E 8 b0 08 36
        E 8 b0 08 37
        E 8 b0 08 38
        E 8 b0 08 39
        E 8 b0 08 3a
        E 8 b0 08 3b
        E 8 b0 08 3c
        E 8 b0 08 3c
        E 8 b0 08 3d
        E 8 b0 08 3d
        E 8 b0 08 3e
        E 8 b0 08 3e
        E 8 b0 08 3f
        E 8 b0 08 3f
        E 8 b0 08 3f
        E 8 b0 08 3f
        E 8 b0 08 3f
        E 8 b0 08 3f
        E 8 b0 08 3f
        E 8 b0 08 3f
        E 8 b0 08 3f
        E 8 b0 08 3e
        E 8 b0 08 3e
        E 8 b0 08 3d
        E 8 b0 08 3d
        E 8 b0 08 3c
        E 8 b0 08 3b
        E 8 b0 08 3a
        E 8 b0 08 3a
        E 8 b0 08 39
        E 8 b0 08 38
        E 8 b0 08 37
        E 8 b0 08 36
        E 8 b0 08 34
        E 8 b0 08 33
        E 8 b0 08 32
        E 8 b0 08 31
        E 8 b0 08 2f
        E 8 b0 08 2e
        E 8 b0 08 2c
        E 8 b0 08 2b
        E 8 b0 08 2a
        E 8 b0 08 28
        E 8 b0 08 27
        E 8 b0 08 25
        E 8 b0 08 23
        E 8 b0 08 22
        E 8 b0 08 20
        E 8 b0 08 1f
        E 8 b0 08 1d
        E 8 b0 08 1c
        E 8 b0 08 1a
        E 8 b0 08 18
        E 8 b0 08 17
        E 8 b0 08 15
        E 8 b0 08 14
        E 8 b0 08 13
        E 8 b0 08 11
        E 8 b0 08 10
        E 8 b0 08 0e
        E 8 b0 08 0d
        E 8 b0 08 0c
        E 8 b0 08 0b
        E 8 b0 08 09
        E 8 b0 08 08
        E 8 b0 08 07
        E 8 b0 08 06
        E 8 b0 08 05
        E 8 b0 08 05
        E 8 b0 08 04
        E 8 b0 08 03
        E 8 b0 08 02
        E 8 b0 08 02
        E 8 b0 08 01
        E 8 b0 08 01
        E 8 b0 08 00
        E 8 b0 08 00
        E 8 b0 08 00
        E 8 b0 08 00
        E 8 b0 08 00
        E 8 b0 08 00
        E 8 b0 08 00
        E 8 b0 08 00
        E 8 b0 08 00
        E 8 b0 08 01
        E 8 b0 08 01
        E 8 b0 08 02
        E 8 b0 08 02
        E 8 b0 08 03
        E 8 b0 08 03
        E 8 b0 08 04
        E 8 b0 08 05
        E 8 b0 08 06
        E 8 b0 08 07
        E 8 b0 08 08
        E 8 b0 08 09
        E 8 b0 08 0a
        E 8 b0 08 0b
        E 8 b0 08 0c
        E 8 b0 08 0e
        E 8 b0 08 0f
        E 8 b0 08 10
        E 8 b0 08 12
        E 8 b0 08 13
        E 8 b0 08 15
        E 8 b0 08 16
        E 8 b0 08 18
        E 8 b0 08 19
        E 8 b0 08 1b
        E 8 b0 08 1c
        E 8 b0 08 1e
        E 8 b0 08 20
        E 11 b0 08 20
        E 11 b0 08 21
        E 11 b0 08 23
        E 11 b0 08 24
        E 11 b0 08 26
        E 11 b0 08 27
        E 11 b0 08 29
        E 11 b0 08 2a
        E 11 b0 08 2c
        E 11 b0 08 2d
        E 11 b0 08 2f
        E 11 b0 08 30
        E 11 b0 08 31
        E 11 b0 08 33
        E 11 b0 08 34
        E 11 b0 08 35
        E 11 b0 08 36
        E 11 b0 08 37
        E 11 b0 08 38
        E 11 b0 08 39
        E 11 b0 08 3a
        E 11 b0 08 3b
        E 11 b0 08 3c
        E 11 b0 08 3c
        E 11 b0 08 3d
        E 11 b0 08 3d
        E 11 b0 08 3e
        E 11 b0 08 3e
        E 11 b0 08 3f
        E 11 b0 08 3f
        E 11 b0 08 3f
        E 11 b0 08 3f
        E 11 b0 08 3f
        E 11 b0 08 3f
        E 11 b0 08 3f
        E 11 b0 08 3f
        E 11 b0 08 3f
        E 11 b0 08 3e
        E 11 b0 08 3e
        E 11 b0 08 3d
        E 11 b0 08 3d
        E 11 b0 08 3c
        E 11 b0 08 3b
        E 11 b0 08 3a
        E 11 b0 08 3a
        E 11 b0 08 39
        E 11 b0 08 38
        E 11 b0 08 37
        E 11 b0 08 36
        E 11 b0 08 34
        E 11 b0 08 33
        E 11 b0 08 32
        E 11 b0 08 31
        E 11 b0 08 2f
        E 11 b0 08 2e
        E 11 b0 08 2c
        E 11 b0 08 2b
        E 11 b0 08 2a
        E 11 b0 08 28
        E 11 b0 08 27
        E 11 b0 08 25
        E 11 b0 08 23
        E 11 b0 08 22
        E 11 b0 08 20
        E 11 b0 08 1f
        E 11 b0 08 1d
        E 11 b0 08 1c
        E 11 b0 08 1a
        E 11 b0 08 18
        E 11 b0 08 17
        E 11 b0 08 15
        E 11 b0 08 14
        E 11 b0 08 13
        E 11 b0 08 11
        E 11 b0 08 10
        E 11 b0 08 0e
        E 11 b0 08 0d
        E 11 b0 08 0c
        E 11 b0 08 0b
        E 11 b0 08 09
        E 11 b0 08 08
        E 11 b0 08 07
        E 11 b0 08 06
        E 11 b0 08 05
        E 11 b0 08 05
        E 11 b0 08 04
        E 11 b0 08 03
        E 11 b0 08 02
        E 11 b0 08 02
        E 11 b0 08 01
        E 11 b0 08 01
        E 11 b0 08 00
        E 11 b0 08 00
        E 11 b0 08 00
        E 11 b0 08 00
        E 11 b0 08 00
        E 11 b0 08 00
        E 11 b0 08 00
        E 11 b0 08 00
        E 11 b0 08 00
        E 11 b0 08 01
        E 11 b0 08 01
        E 11 b0 08 02
        E 11 b0 08 02
        E 11 b0 08 03
        E 11 b0 08 03
        E 11 b0 08 04
        E 11 b0 08 05
        E 11 b0 08 06
        E 11 b0 08 07
        E 11 b0 08 08
        E 11 b0 08 09
        E 11 b0 08 0a
        E 11 b0 08 0b
        E 11 b0 08 0c
        E 11 b0 08 0e
        E 11 b0 08 0f
        E 11 b0 08 10
        E 11 b0 08 12
        E 11 b0 08 13
        E 11 b0 08 15
        E 11 b0 08 16
        E 11 b0 08 18
        E 11 b0 08 19
        E 11 b0 08 1b
        E 11 b0 08 1c
        E 11 b0 08 1e
        E 11 b0 08 20
        E 13 b0 08 40
        E 13 b0 08 43
        E 13 b0 08 46
        E 13 b0 08 49
        E 13 b0 08 4c
        E 13 b0 08 4f
        E 13 b0 08 52
        E 13 b0 08 55
        E 13 b0 08 58
        E 13 b0 08 5b
        E 13 b0 08 5e
        E 13 b0 08 60
        E 13 b0 08 63
        E 13 b0 08 66
        E 13 b0 08 68
        E 13 b0 08 6a
        E 13 b0 08 6d
        E 13 b0 08 6f
        E 13 b0 08 71
        E 13 b0 08 73
        E 13 b0 08 75
        E 13 b0 08 76
        E 13 b0 08 78
        E 13 b0 08 79
        E 13 b0 08 7a
        E 13 b0 08 7b
        E 13 b0 08 7c
        E 13 b0 08 7d
        E 13 b0 08 7e
        E 13 b0 08 7e
        E 13 b0 08 7f
        E 13 b0 08 7f
        E 13 b0 08 7f
        E 13 b0 08 7f
        E 13 b0 08 7f
        E 13 b0 08 7e
        E 13 b0 08 7e
        E 13 b0 08 7d
        E 13 b0 08 7c
        E 13 b0 08 7b
        E 13 b0 08 7a
        E 13 b0 08 78
        E 13 b0 08 77
        E 13 b0 08 75
        E 13 b0 08 74
        E 13 b0 08 72
        E 13 b0 08 70
        E 13 b0 08 6e
        E 13 b0 08 6c
        E 13 b0 08 69
        E 13 b0 08 67
        E 13 b0 08 64
        E 13 b0 08 62
        E 13 b0 08 5f
        E 13 b0 08 5c
        E 13 b0 08 59
        E 13 b0 08 57
        E 13 b0 08 54
        E 13 b0 08 51
        E 13 b0 08 4e
        E 13 b0 08 4a
        E 13 b0 08 47
        E 13 b0 08 44
        E 13 b0 08 41
        E 13 b0 08 3e
        E 13 b0 08 3b
        E 13 b0 08 38
        E 13 b0 08 35
        E 13 b0 08 31
        E 13 b0 08 2e
        E 13 b0 08 2b
        E 13 b0 08 28
        E 13 b0 08 26
        E 13 b0 08 23
        E 13 b0 08 20
        E 13 b0 08 1d
        E 13 b0 08 1b
        E 13 b0 08 18
        E 13 b0 08 16
        E 13 b0 08 13
        E 13 b0 08 11
        E 13 b0 08 0f
        E 13 b0 08 0d
        E 13 b0 08 0b
        E 13 b0 08 0a
        E 13 b0 08 08
        E 13 b0 08 07
        E 13 b0 08 05
        E 13 b0 08 04
        E 13 b0 08 03
        E 13 b0 08 02
        E 13 b0 08 01
        E 13 b0 08 01
        E 13 b0 08 00
        E 13 b0 08 00
        E 13 b0 08 00
        E 13 b0 08 00
        E 13 b0 08 00
        E 13 b0 08 01
        E 13 b0 08 01
        E 13 b0 08 02
        E 13 b0 08 03
        E 13 b0 08 04
        E 13 b0 08 05
        E 13 b0 08 06
        E 13 b0 08 07
        E 13 b0 08 09
        E 13 b0 08 0a
        E 13 b0 08 0c
        E 13 b0 08 0e
        E 13 b0 08 10
        E 13 b0 08 12
        E 13 b0 08 15
        E 13 b0 08 17
        E 13 b0 08 19
        E 13 b0 08 1c
        E 13 b0 08 1f
        E 13 b0 08 21
        E 13 b0 08 24
        E 13 b0 08 27
        E 13 b0 08 2a
        E 13 b0 08 2d
        E 13 b0 08 30
        E 13 b0 08 33
        E 13 b0 08 36
        E 13 b0 08 39
        E 13 b0 08 3c
        E 13 b0 08 40
        E 11 b0 08 39
        E 11 b0 08 3c
        E 11 b0 08 3f
        E 11 b0 08 41
        E 11 b0 08 44
        E 11 b0 08 47
        E 11 b0 08 49
        E 11 b0 08 4c
        E 11 b0 08 4f
        E 11 b0 08 51
        E 11 b0 08 54
        E 11 b0 08 56
        E 11 b0 08 59
        E 11 b0 08 5b
        E 11 b0 08 5d
        E 11 b0 08 5f
        E 11 b0 08 62
        E 11 b0 08 63
        E 11 b0 08 65
        E 11 b0 08 67
        E 11 b0 08 69
        E 11 b0 08 6a
        E 11 b0 08 6c
        E 11 b0 08 6c
        E 11 b0 08 6d
        E 11 b0 08 6e
        E 11 b0 08 6f
        E 11 b0 08 70
        E 11 b0 08 71
        E 11 b0 08 71
        E 11 b0 08 72
        E 11 b0 08 72
        E 11 b0 08 72
        E 11 b0 08 72
        E 11 b0 08 72
        E 11 b0 08 71
        E 11 b0 08 71
        E 11 b0 08 70
        E 11 b0 08 6f
        E 11 b0 08 6e
        E 11 b0 08 6d
        E 11 b0 08 6c
        E 11 b0 08 6b
        E 11 b0 08 69
        E 11 b0 08 68
        E 11 b0 08 66
        E 11 b0 08 64
        E 11 b0 08 63
        E 11 b0 08 61
        E 11 b0 08 5e
        E 11 b0 08 5c
        E 11 b0 08 5a
        E 11 b0 08 58
        E 11 b0 08 55
        E 11 b0 08 52
        E 11 b0 08 50
        E 11 b0 08 4e
        E 11 b0 08 4b
        E 11 b0 08 48
        E 11 b0 08 46
        E 11 b0 08 42
        E 11 b0 08 3f
        E 11 b0 08 3d
        E 11 b0 08 3a
        E 11 b0 08 37
        E 11 b0 08 35
        E 11 b0 08 32
        E 11 b0 08 2f
        E 11 b0 08 2c
        E 11 b0 08 29
        E 11 b0 08 26
        E 11 b0 08 24
        E 11 b0 08 22
        E 11 b0 08 1f
        E 11 b0 08 1c
        E 11 b0 08 1a
        E 11 b0 08 18
        E 11 b0 08 15
        E 11 b0 08 13
        E 11 b0 08 11
        E 11 b0 08 0f
        E 11 b0 08 0d
        E 11 b0 08 0b
        E 11 b0 08 09
        E 11 b0 08 09
        E 11 b0 08 07
        E 11 b0 08 06
        E 11 b0 08 04
        E 11 b0 08 03
        E 11 b0 08 02
        E 11 b0 08 01
        E 11 b0 08 00
        E 11 b0 08 00
        E 11 b0 08 00
        E 11 b0 08 00
        E 11 b0 08 00
        E 11 b0 08 00
        E 11 b0 08 00
        E 11 b0 08 00
        E 11 b0 08 00
        E 11 b0 08 01
        E 11 b0 08 02
        E 11 b0 08 03
        E 11 b0 08 04
        E 11 b0 08 05
        E 11 b0 08 06
        E 11 b0 08 08
        E 11 b0 08 09
        E 11 b0 08 0a
        E 11 b0 08 0c
        E 11 b0 08 0e
        E 11 b0 08 10
        E 11 b0 08 12
        E 11 b0 08 14
        E 11 b0 08 16
        E 11 b0 08 19
        E 11 b0 08 1b
        E 11 b0 08 1d
        E 11 b0 08 20
        E 11 b0 08 23
        E 11 b0 08 25
        E 11 b0 08 28
        E 11 b0 08 2b
        E 11 b0 08 2d
        E 11 b0 08 30
        E 11 b0 08 33
        E 11 b0 08 36
        E 11 b0 08 39
        E 8 b0 08 20
        E 8 b0 08 21
        E 8 b0 08 23
        E 8 b0 08 24
        E 8 b0 08 26
        E 8 b0 08 27
        E 8 b0 08 29
        E 8 b0 08 2a
        E 8 b0 08 2c
        E 8 b0 08 2d
        E 8 b0 08 2f
        E 8 b0 08 30
        E 8 b0 08 31
        E 8 b0 08 33
        E 8 b0 08 34
        E 8 b0 08 35
        E 8 b0 08 36
        E 8 b0 08 37
        E 8 b0 08 38
        E 8 b0 08 39
        E 8 b0 08 3a
        E 8 b0 08 3b
        E 8 b0 08 3c
        E 8 b0 08 3c
        E 8 b0 08 3d
        E 8 b0 08 3d
        E 8 b0 08 3e
        E 8 b0 08 3e
        E 8 b0 08 3f
        E 8 b0 08 3f
        E 8 b0 08 3f
        E 8 b0 08 3f
        E 8 b0 08 3f
        E 8 b0 08 3f
        E 8 b0 08 3f
        E 8 b0 08 3f
        E 8 b0 08 3f
        E 8 b0 08 3e
        E 8 b0 08 3e
        E 8 b0 08 3d
        E 8 b0 08 3d
        E 8 b0 08 3c
        E 8 b0 08 3b
        E 8 b0 08 3a
        E 8 b0 08 3a
        E 8 b0 08 39
        E 8 b0 08 38
        E 8 b0 08 37
        E 8 b0 08 36
        E 8 b0 08 34
        E 8 b0 08 33
        E 8 b0 08 32
        E 8 b0 08 31
        E 8 b0 08 2f
        E 8 b0 08 2e
        E 8 b0 08 2c
        E 8 b0 08 2b
        E 8 b0 08 2a
        E 8 b0 08 28
        E 8 b0 08 27
        E 8 b0 08 25
        E 8 b0 08 23
        E 8 b0 08 22
        E 8 b0 08 20
        E 8 b0 08 1f
        E 8 b0 08 1d
        E 8 b0 08 1c
        E 8 b0 08 1a
        E 8 b0 08 18
        E 8 b0 08 17
        E 8 b0 08 15
        E 8 b0 08 14
        E 8 b0 08 13
        E 8 b0 08 11
        E 8 b0 08 10
        E 8 b0 08 0e
        E 8 b0 08 0d
        E 8 b0 08 0c
        E 8 b0 08 0b
        E 8 b0 08 09
        E 8 b0 08 08
        E 8 b0 08 07
        E 8 b0 08 06
        E 8 b0 08 05
        E 8 b0 08 05
        E 8 b0 08 04
        E 8 b0 08 03
        E 8 b0 08 02
        E 8 b0 08 02
        E 8 b0 08 01
        E 8 b0 08 01
        E 8 b0 08 00
        E 8 b0 08 00
        E 8 b0 08 00
        E 8 b0 08 00
        E 8 b0 08 00
        E 8 b0 08 00
        E 8 b0 08 00
        E 8 b0 08 00
        E 8 b0 08 00
        E 8 b0 08 01
        E 8 b0 08 01
        E 8 b0 08 02
        E 8 b0 08 02
        E 8 b0 08 03
        E 8 b0 08 03
        E 8 b0 08 04
        E 8 b0 08 05
        E 8 b0 08 06
        E 8 b0 08 07
        E 8 b0 08 08
        E 8 b0 08 09
        E 8 b0 08 0a
        E 8 b0 08 0b
        E 8 b0 08 0c
        E 8 b0 08 0e
        E 8 b0 08 0f
        E 8 b0 08 10
        E 8 b0 08 12
        E 8 b0 08 13
        E 8 b0 08 15
        E 8 b0 08 16
        E 8 b0 08 18
        E 8 b0 08 19
        E 8 b0 08 1b
        E 8 b0 08 1c
        E 8 b0 08 1e
        E 8 b0 08 20
        E 8 b0 08 20
        E 8 b0 08 21
        E 8 b0 08 23
        E 8 b0 08 24
        E 8 b0 08 26
        E 8 b0 08 27
        E 8 b0 08 29
        E 8 b0 08 2a
        E 8 b0 08 2c
        E 8 b0 08 2d
        E 8 b0 08 2f
        E 8 b0 08 30
        E 8 b0 08 31
        E 8 b0 08 33
        E 8 b0 08 34
        E 8 b0 08 35
        E 8 b0 08 36
        E 8 b0 08 37
        E 8 b0 08 38
        E 8 b0 08 39
        E 8 b0 08 3a
        E 8 b0 08 3b
        E 8 b0 08 3c
        E 8 b0 08 3c
        E 8 b0 08 3d
        E 8 b0 08 3d
        E 8 b0 08 3e
        E 8 b0 08 3e
        E 8 b0 08 3f
        E 8 b0 08 3f
        E 8 b0 08 3f
        E 8 b0 08 3f
        E 8 b0 08 3f
        E 8 b0 08 3f
        E 8 b0 08 3f
        E 8 b0 08 3f
        E 8 b0 08 3f
        E 8 b0 08 3e
        E 8 b0 08 3e
        E 8 b0 08 3d
        E 8 b0 08 3d
        E 8 b0 08 3c
        E 8 b0 08 3b
        E 8 b0 08 3a
        E 8 b0 08 3a
        E 8 b0 08 39
        E 8 b0 08 38
        E 8 b0 08 37
        E 8 b0 08 36
        E 8 b0 08 34
        E 8 b0 08 33
        E 8 b0 08 32
        E 8 b0 08 31
        E 8 b0 08 2f
        E 8 b0 08 2e
        E 8 b0 08 2c
        E 8 b0 08 2b
        E 8 b0 08 2a
        E 8 b0 08 28
        E 8 b0 08 27
        E 8 b0 08 25
        E 8 b0 08 23
        E 8 b0 08 22
        E 8 b0 08 20
        E 8 b0 08 1f
        E 8 b0 08 1d
        E 8 b0 08 1c
        E 8 b0 08 1a
        E 8 b0 08 18
        E 8 b0 08 17
        E 8 b0 08 15
        E 8 b0 08 14
        E 8 b0 08 13
        E 8 b0 08 11
        E 8 b0 08 10
        E 8 b0 08 0e
        E 8 b0 08 0d
        E 8 b0 08 0c
        E 8 b0 08 0b
        E 8 b0 08 09
        E 8 b0 08 08
        E 8 b0 08 07
        E 8 b0 08 06
        E 8 b0 08 05
        E 8 b0 08 05
        E 8 b0 08 04
        E 8 b0 08 03
        E 8 b0 08 02
        E 8 b0 08 02
        E 8 b0 08 01
        E 8 b0 08 01
        E 8 b0 08 00
        E 8 b0 08 00
        E 8 b0 08 00
        E 8 b0 08 00
        E 8 b0 08 00
        E 8 b0 08 00
        E 8 b0 08 00
        E 8 b0 08 00
        E 8 b0 08 00
        E 8 b0 08 01
        E 8 b0 08 01
        E 8 b0 08 02
        E 8 b0 08 02
        E 8 b0 08 03
        E 8 b0 08 03
        E 8 b0 08 04
        E 8 b0 08 05
        E 8 b0 08 06
        E 8 b0 08 07
        E 8 b0 08 08
        E 8 b0 08 09
        E 8 b0 08 0a
        E 8 b0 08 0b
        E 8 b0 08 0c
        E 8 b0 08 0e
        E 8 b0 08 0f
        E 8 b0 08 10
        E 8 b0 08 12
        E 8 b0 08 13
        E 8 b0 08 15
        E 8 b0 08 16
        E 8 b0 08 18
        E 8 b0 08 19
        E 8 b0 08 1b
        E 8 b0 08 1c
        E 8 b0 08 1e
        E 8 b0 08 20
        E 17 b0 08 2c
        E 17 b0 08 2e
        E 17 b0 08 31
        E 17 b0 08 33
        E 17 b0 08 35
        E 17 b0 08 37
        E 17 b0 08 39
        E 17 b0 08 3b
        E 17 b0 08 3d
        E 17 b0 08 3f
        E 17 b0 08 41
        E 17 b0 08 43
        E 17 b0 08 45
        E 17 b0 08 47
        E 17 b0 08 48
        E 17 b0 08 4a
        E 17 b0 08 4c
        E 17 b0 08 4d
        E 17 b0 08 4f
        E 17 b0 08 50
        E 17 b0 08 51
        E 17 b0 08 52
        E 17 b0 08 54
        E 17 b0 08 54
        E 17 b0 08 55
        E 17 b0 08 56
        E 17 b0 08 56
        E 17 b0 08 57
        E 17 b0 08 58
        E 17 b0 08 58
        E 17 b0 08 58
        E 17 b0 08 58
        E 17 b0 08 58
        E 17 b0 08 58
        E 17 b0 08 58
        E 17 b0 08 58
        E 17 b0 08 58
        E 17 b0 08 57
        E 17 b0 08 56
        E 17 b0 08 56
        E 17 b0 08 55
        E 17 b0 08 54
        E 17 b0 08 53
        E 17 b0 08 51
        E 17 b0 08 51
        E 17 b0 08 4f
        E 17 b0 08 4e
        E 17 b0 08 4d
        E 17 b0 08 4b
        E 17 b0 08 49
        E 17 b0 08 48
        E 17 b0 08 46
        E 17 b0 08 44
        E 17 b0 08 42
        E 17 b0 08 40
        E 17 b0 08 3e
        E 17 b0 08 3c
        E 17 b0 08 3a
        E 17 b0 08 38
        E 17 b0 08 36
        E 17 b0 08 33
        E 17 b0 08 31
        E 17 b0 08 2f
        E 17 b0 08 2d
        E 17 b0 08 2b
        E 17 b0 08 29
        E 17 b0 08 27
        E 17 b0 08 25
        E 17 b0 08 22
        E 17 b0 08 20
        E 17 b0 08 1e
        E 17 b0 08 1c
        E 17 b0 08 1a
        E 17 b0 08 18
        E 17 b0 08 16
        E 17 b0 08 14
        E 17 b0 08 12
        E 17 b0 08 10
        E 17 b0 08 0f
        E 17 b0 08 0d
        E 17 b0 08 0b
        E 17 b0 08 0a
        E 17 b0 08 09
        E 17 b0 08 07
        E 17 b0 08 07
        E 17 b0 08 05
        E 17 b0 08 04
        E 17 b0 08 03
        E 17 b0 08 02
        E 17 b0 08 02
        E 17 b0 08 01
        E 17 b0 08 00
        E 17 b0 08 00
        E 17 b0 08 00
        E 17 b0 08 00
        E 17 b0 08 00
        E 17 b0 08 00
        E 17 b0 08 00
        E 17 b0 08 00
        E 17 b0 08 00
        E 17 b0 08 01
        E 17 b0 08 02
        E 17 b0 08 02
        E 17 b0 08 03
        E 17 b0 08 04
        E 17 b0 08 04
        E 17 b0 08 06
        E 17 b0 08 07
        E 17 b0 08 08
        E 17 b0 08 09
        E 17 b0 08 0b
        E 17 b0 08 0c
        E 17 b0 08 0e
        E 17 b0 08 10
        E 17 b0 08 11
        E 17 b0 08 13
        E 17 b0 08 15
        E 17 b0 08 17
        E 17 b0 08 19
        E 17 b0 08 1b
        E 17 b0 08 1d
        E 17 b0 08 1f
        E 17 b0 08 21
        E 17 b0 08 23
        E 17 b0 08 25
        E 17 b0 08 27
        E 17 b0 08 2a
        E 17 b0 08 2c
        E 15 b0 08 33
        E 15 b0 08 35
        E 15 b0 08 37
        E 15 b0 08 3a
        E 15 b0 08 3c
        E 15 b0 08 3f
        E 15 b0 08 41
        E 15 b0 08 44
        E 15 b0 08 46
        E 15 b0 08 48
        E 15 b0 08 4b
        E 15 b0 08 4c
        E 15 b0 08 4f
        E 15 b0 08 51
        E 15 b0 08 53
        E 15 b0 08 54
        E 15 b0 08 57
        E 15 b0 08 58
        E 15 b0 08 5a
        E 15 b0 08 5b
        E 15 b0 08 5d
        E 15 b0 08 5e
        E 15 b0 08 5f
        E 15 b0 08 60
        E 15 b0 08 61
        E 15 b0 08 62
        E 15 b0 08 63
        E 15 b0 08 63
        E 15 b0 08 64
        E 15 b0 08 64
        E 15 b0 08 65
        E 15 b0 08 65
        E 15 b0 08 65
        E 15 b0 08 65
        E 15 b0 08 65
        E 15 b0 08 64
        E 15 b0 08 64
        E 15 b0 08 63
        E 15 b0 08 63
        E 15 b0 08 62
        E 15 b0 08 61
        E 15 b0 08 5f
        E 15 b0 08 5f
        E 15 b0 08 5d
        E 15 b0 08 5c
        E 15 b0 08 5b
        E 15 b0 08 59
        E 15 b0 08 57
        E 15 b0 08 56
        E 15 b0 08 54
        E 15 b0 08 52
        E 15 b0 08 50
        E 15 b0 08 4e
        E 15 b0 08 4c
        E 15 b0 08 49
        E 15 b0 08 47
        E 15 b0 08 45
        E 15 b0 08 43
        E 15 b0 08 40
        E 15 b0 08 3e
        E 15 b0 08 3b
        E 15 b0 08 38
        E 15 b0 08 36
        E 15 b0 08 33
        E 15 b0 08 31
        E 15 b0 08 2f
        E 15 b0 08 2c
        E 15 b0 08 2a
        E 15 b0 08 27
        E 15 b0 08 24
        E 15 b0 08 22
        E 15 b0 08 1f
        E 15 b0 08 1e
        E 15 b0 08 1b
        E 15 b0 08 19
        E 15 b0 08 17
        E 15 b0 08 15
        E 15 b0 08 13
        E 15 b0 08 11
        E 15 b0 08 0f
        E 15 b0 08 0d
        E 15 b0 08 0b
        E 15 b0 08 0a
        E 15 b0 08 08
        E 15 b0 08 07
        E 15 b0 08 06
        E 15 b0 08 05
        E 15 b0 08 03
        E 15 b0 08 03
        E 15 b0 08 02
        E 15 b0 08 01
        E 15 b0 08 00
        E 15 b0 08 00
        E 15 b0 08 00
        E 15 b0 08 00
        E 15 b0 08 00
        E 15 b0 08 00
        E 15 b0 08 00
        E 15 b0 08 00
        E 15 b0 08 00
        E 15 b0 08 01
        E 15 b0 08 02
        E 15 b0 08 03
        E 15 b0 08 03
        E 15 b0 08 04
        E 15 b0 08 05
        E 15 b0 08 07
        E 15 b0 08 07
        E 15 b0 08 09
        E 15 b0 08 0b
        E 15 b0 08 0c
        E 15 b0 08 0e
        E 15 b0 08 10
        E 15 b0 08 12
        E 15 b0 08 14
        E 15 b0 08 16
        E 15 b0 08 18
        E 15 b0 08 1a
        E 15 b0 08 1c
        E 15 b0 08 1f
        E 15 b0 08 21
        E 15 b0 08 24
        E 15 b0 08 26
        E 15 b0 08 28
        E 15 b0 08 2b
        E 15 b0 08 2d
        E 15 b0 08 2f
        E 15 b0 08 33
        E 17 b0 08 06
        E 17 b0 08 06
        E 17 b0 08 07
        E 17 b0 08 07
        E 17 b0 08 07
        E 17 b0 08 07
        E 17 b0 08 08
        E 17 b0 08 08
        E 17 b0 08 08
        E 17 b0 08 09
        E 17 b0 08 09
        E 17 b0 08 09
        E 17 b0 08 09
        E 17 b0 08 0a
        E 17 b0 08 0a
        E 17 b0 08 0a
        E 17 b0 08 0a
        E 17 b0 08 0b
        E 17 b0 08 0b
        E 17 b0 08 0b
        E 17 b0 08 0b
        E 17 b0 08 0b
        E 17 b0 08 0c
        E 17 b0 08 0c
        E 17 b0 08 0c
        E 17 b0 08 0c
        E 17 b0 08 0c
        E 17 b0 08 0c
        E 17 b0 08 0c
        E 17 b0 08 0c
        E 17 b0 08 0c
        E 17 b0 08 0c
        E 17 b0 08 0c
        E 17 b0 08 0c
        E 17 b0 08 0c
        E 17 b0 08 0c
        E 17 b0 08 0c
        E 17 b0 08 0c
        E 17 b0 08 0c
        E 17 b0 08 0c
        E 17 b0 08 0c
        E 17 b0 08 0c
        E 17 b0 08 0b
        E 17 b0 08 0b
        E 17 b0 08 0b
        E 17 b0 08 0b
        E 17 b0 08 0b
        E 17 b0 08 0b
        E 17 b0 08 0a
        E 17 b0 08 0a
        E 17 b0 08 0a
        E 17 b0 08 0a
        E 17 b0 08 09
        E 17 b0 08 09
        E 17 b0 08 09
        E 17 b0 08 08
        E 17 b0 08 08
        E 17 b0 08 08
        E 17 b0 08 08
        E 17 b0 08 07
        E 17 b0 08 07
        E 17 b0 08 07
        E 17 b0 08 06
        E 17 b0 08 06
        E 17 b0 08 06
        E 17 b0 08 05
        E 17 b0 08 05
        E 17 b0 08 05
        E 17 b0 08 04
        E 17 b0 08 04
        E 17 b0 08 04
        E 17 b0 08 04
        E 17 b0 08 03
        E 17 b0 08 03
        E 17 b0 08 03
        E 17 b0 08 02
        E 17 b0 08 02
        E 17 b0 08 02
        E 17 b0 08 02
        E 17 b0 08 01
        E 17 b0 08 01
        E 17 b0 08 01
        E 17 b0 08 01
        E 17 b0 08 01
        E 17 b0 08 01
        E 17 b0 08 00
        E 17 b0 08 00
        E 17 b0 08 00
        E 17 b0 08 00
        E 17 b0 08 00
        E 17 b0 08 00
        E 17 b0 08 00
        E 17 b0 08 00
        E 17 b0 08 00
        E 17 b0 08 00
        E 17 b0 08 00
        E 17 b0 08 00
        E 17 b0 08 00
        E 17 b0 08 00
        E 17 b0 08 00
        E 17 b0 08 00
        E 17 b0 08 00
        E 17 b0 08 00
        E 17 b0 08 00
        E 17 b0 08 00
        E 17 b0 08 00
        E 17 b0 08 00
        E 17 b0 08 01
        E 17 b0 08 01
        E 17 b0 08 01
        E 17 b0 08 01
        E 17 b0 08 01
        E 17 b0 08 02
        E 17 b0 08 02
        E 17 b0 08 02
        E 17 b0 08 02
        E 17 b0 08 03
        E 17 b0 08 03
        E 17 b0 08 03
        E 17 b0 08 03
        E 17 b0 08 04
        E 17 b0 08 04
        E 17 b0 08 04
        E 17 b0 08 05
        E 17 b0 08 05
        E 17 b0 08 05
        E 17 b0 08 06
        E 17 b0 08 06
        E 15 b0 08 19
        E 15 b0 08 1a
        E 15 b0 08 1c
        E 15 b0 08 1d
        E 15 b0 08 1e
        E 15 b0 08 1f
        E 15 b0 08 20
        E 15 b0 08 22
        E 15 b0 08 23
        E 15 b0 08 24
        E 15 b0 08 25
        E 15 b0 08 26
        E 15 b0 08 27
        E 15 b0 08 28
        E 15 b0 08 29
        E 15 b0 08 2a
        E 15 b0 08 2b
        E 15 b0 08 2c
        E 15 b0 08 2d
        E 15 b0 08 2e
        E 15 b0 08 2e
        E 15 b0 08 2f
        E 15 b0 08 30
        E 15 b0 08 30
        E 15 b0 08 30
        E 15 b0 08 31
        E 15 b0 08 31
        E 15 b0 08 32
        E 15 b0 08 32
        E 15 b0 08 32
        E 15 b0 08 32
        E 15 b0 08 32
        E 15 b0 08 32
        E 15 b0 08 32
        E 15 b0 08 32
        E 15 b0 08 32
        E 15 b0 08 32
        E 15 b0 08 32
        E 15 b0 08 31
        E 15 b0 08 31
        E 15 b0 08 30
        E 15 b0 08 30
        E 15 b0 08 2f
        E 15 b0 08 2e
        E 15 b0 08 2e
        E 15 b0 08 2d
        E 15 b0 08 2c
        E 15 b0 08 2c
        E 15 b0 08 2b
        E 15 b0 08 2a
        E 15 b0 08 29
        E 15 b0 08 28
        E 15 b0 08 27
        E 15 b0 08 26
        E 15 b0 08 24
        E 15 b0 08 23
        E 15 b0 08 22
        E 15 b0 08 21
        E 15 b0 08 20
        E 15 b0 08 1f
        E 15 b0 08 1d
        E 15 b0 08 1c
        E 15 b0 08 1b
        E 15 b0 08 1a
        E 15 b0 08 18
        E 15 b0 08 17
        E 15 b0 08 16
        E 15 b0 08 15
        E 15 b0 08 13
        E 15 b0 08 12
        E 15 b0 08 11
        E 15 b0 08 10
        E 15 b0 08 0f
        E 15 b0 08 0e
        E 15 b0 08 0c
        E 15 b0 08 0b
        E 15 b0 08 0a
        E 15 b0 08 09
        E 15 b0 08 08
        E 15 b0 08 07
        E 15 b0 08 06
        E 15 b0 08 06
        E 15 b0 08 05
        E 15 b0 08 04
        E 15 b0 08 04
        E 15 b0 08 03
        E 15 b0 08 02
        E 15 b0 08 02
        E 15 b0 08 01
        E 15 b0 08 01
        E 15 b0 08 00
        E 15 b0 08 00
        E 15 b0 08 00
        E 15 b0 08 00
        E 15 b0 08 00
        E 15 b0 08 00
        E 15 b0 08 00
        E 15 b0 08 00
        E 15 b0 08 00
        E 15 b0 08 00
        E 15 b0 08 00
        E 15 b0 08 01
        E 15 b0 08 01
        E 15 b0 08 02
        E 15 b0 08 02
        E 15 b0 08 02
        E 15 b0 08 03
        E 15 b0 08 04
        E 15 b0 08 04
        E 15 b0 08 05
        E 15 b0 08 06
        E 15 b0 08 07
        E 15 b0 08 08
        E 15 b0 08 09
        E 15 b0 08 0a
        E 15 b0 08 0b
        E 15 b0 08 0c
        E 15 b0 08 0d
        E 15 b0 08 0e
        E 15 b0 08 0f
        E 15 b0 08 10
        E 15 b0 08 12
        E 15 b0 08 13
        E 15 b0 08 14
        E 15 b0 08 15
        E 15 b0 08 16
        E 15 b0 08 18
        E 15 b0 08 19
        E 8 b0 08 2c
        E 8 b0 08 2e
        E 8 b0 08 31
        E 8 b0 08 33
        E 8 b0 08 35
        E 8 b0 08 37
        E 8 b0 08 39
        E 8 b0 08 3b
        E 8 b0 08 3d
        E 8 b0 08 3f
        E 8 b0 08 41
        E 8 b0 08 43
        E 8 b0 08 45
        E 8 b0 08 47
        E 8 b0 08 48
        E 8 b0 08 4a
        E 8 b0 08 4c
        E 8 b0 08 4d
        E 8 b0 08 4f
        E 8 b0 08 50
        E 8 b0 08 51
        E 8 b0 08 52
        E 8 b0 08 54
        E 8 b0 08 54
        E 8 b0 08 55
        E 8 b0 08 56
        E 8 b0 08 56
        E 8 b0 08 57
        E 8 b0 08 58
        E 8 b0 08 58
        E 8 b0 08 58
        E 8 b0 08 58
        E 8 b0 08 58
        E 8 b0 08 58
        E 8 b0 08 58
        E 8 b0 08 58
        E 8 b0 08 58
        E 8 b0 08 57
        E 8 b0 08 56
        E 8 b0 08 56
        E 8 b0 08 55
        E 8 b0 08 54
        E 8 b0 08 53
        E 8 b0 08 51
        E 8 b0 08 51
        E 8 b0 08 4f
        E 8 b0 08 4e
        E 8 b0 08 4d
        E 8 b0 08 4b
        E 8 b0 08 49
        E 8 b0 08 48
        E 8 b0 08 46
        E 8 b0 08 44
        E 8 b0 08 42
        E 8 b0 08 40
        E 8 b0 08 3e
        E 8 b0 08 3c
        E 8 b0 08 3a
        E 8 b0 08 38
        E 8 b0 08 36
        E 8 b0 08 33
        E 8 b0 08 31
        E 8 b0 08 2f
        E 8 b0 08 2d
        E 8 b0 08 2b
        E 8 b0 08 29
        E 8 b0 08 27
        E 8 b0 08 25
        E 8 b0 08 22
        E 8 b0 08 20
        E 8 b0 08 1e
        E 8 b0 08 1c
        E 8 b0 08 1a
        E 8 b0 08 18
        E 8 b0 08 16
        E 8 b0 08 14
        E 8 b0 08 12
        E 8 b0 08 10
        E 8 b0 08 0f
        E 8 b0 08 0d
        E 8 b0 08 0b
        E 8 b0 08 0a
        E 8 b0 08 09
        E 8 b0 08 07
        E 8 b0 08 07
        E 8 b0 08 05
        E 8 b0 08 04
        E 8 b0 08 03
        E 8 b0 08 02
        E 8 b0 08 02
        E 8 b0 08 01
        E 8 b0 08 00
        E 8 b0 08 00
        E 8 b0 08 00
        E 8 b0 08 00
        E 8 b0 08 00
        E 8 b0 08 00
        E 8 b0 08 00
        E 8 b0 08 00
        E 8 b0 08 00
        E 8 b0 08 01
        E 8 b0 08 02
        E 8 b0 08 02
        E 8 b0 08 03
        E 8 b0 08 04
        E 8 b0 08 04
        E 8 b0 08 06
        E 8 b0 08 07
        E 8 b0 08 08
        E 8 b0 08 09
        E 8 b0 08 0b
        E 8 b0 08 0c
        E 8 b0 08 0e
        E 8 b0 08 10
        E 8 b0 08 11
        E 8 b0 08 13
        E 8 b0 08 15
        E 8 b0 08 17
        E 8 b0 08 19
        E 8 b0 08 1b
        E 8 b0 08 1d
        E 8 b0 08 1f
        E 8 b0 08 21
        E 8 b0 08 23
        E 8 b0 08 25
        E 8 b0 08 27
        E 8 b0 08 2a
        E 8 b0 08 2c
        E 8 b0 08 20
        E 8 b0 08 21
        E 8 b0 08 23
        E 8 b0 08 24
        E 8 b0 08 26
        E 8 b0 08 27
        E 8 b0 08 29
        E 8 b0 08 2a
        E 8 b0 08 2c
        E 8 b0 08 2d
        E 8 b0 08 2f
        E 8 b0 08 30
        E 8 b0 08 31
        E 8 b0 08 33
        E 8 b0 08 34
        E 8 b0 08 35
        E 8 b0 08 36
        E 8 b0 08 37
        E 8 b0 08 38
        E 8 b0 08 39
        E 8 b0 08 3a
        E 8 b0 08 3b
        E 8 b0 08 3c
        E 8 b0 08 3c
        E 8 b0 08 3d
        E 8 b0 08 3d
        E 8 b0 08 3e
        E 8 b0 08 3e
        E 8 b0 08 3f
        E 8 b0 08 3f
        E 8 b0 08 3f
        E 8 b0 08 3f
        E 8 b0 08 3f
        E 8 b0 08 3f
        E 8 b0 08 3f
        E 8 b0 08 3f
        E 8 b0 08 3f
        E 8 b0 08 3e
        E 8 b0 08 3e
        E 8 b0 08 3d
        E 8 b0 08 3d
        E 8 b0 08 3c
        E 8 b0 08 3b
        E 8 b0 08 3a
        E 8 b0 08 3a
        E 8 b0 08 39
        E 8 b0 08 38
        E 8 b0 08 37
        E 8 b0 08 36
        E 8 b0 08 34
        E 8 b0 08 33
        E 8 b0 08 32
        E 8 b0 08 31
        E 8 b0 08 2f
        E 8 b0 08 2e
        E 8 b0 08 2c
        E 8 b0 08 2b
        E 8 b0 08 2a
        E 8 b0 08 28
        E 8 b0 08 27
        E 8 b0 08 25
        E 8 b0 08 23
        E 8 b0 08 22
        E 8 b0 08 20
        E 8 b0 08 1f
        E 8 b0 08 1d
        E 8 b0 08 1c
        E 8 b0 08 1a
        E 8 b0 08 18
        E 8 b0 08 17
        E 8 b0 08 15
        E 8 b0 08 14
        E 8 b0 08 13
        E 8 b0 08 11
        E 8 b0 08 10
        E 8 b0 08 0e
        E 8 b0 08 0d
        E 8 b0 08 0c
        E 8 b0 08 0b
        E 8 b0 08 09
        E 8 b0 08 08
        E 8 b0 08 07
        E 8 b0 08 06
        E 8 b0 08 05
        E 8 b0 08 05
        E 8 b0 08 04
        E 8 b0 08 03
        E 8 b0 08 02
        E 8 b0 08 02
        E 8 b0 08 01
        E 8 b0 08 01
        E 8 b0 08 00
        E 8 b0 08 00
        E 8 b0 08 00
        E 8 b0 08 00
        E 8 b0 08 00
        E 8 b0 08 00
        E 8 b0 08 00
        E 8 b0 08 00
        E 8 b0 08 00
        E 8 b0 08 01
        E 8 b0 08 01
        E 8 b0 08 02
        E 8 b0 08 02
        E 8 b0 08 03
        E 8 b0 08 03
        E 8 b0 08 04
        E 8 b0 08 05
        E 8 b0 08 06
        E 8 b0 08 07
        E 8 b0 08 08
        E 8 b0 08 09
        E 8 b0 08 0a
        E 8 b0 08 0b
        E 8 b0 08 0c
        E 8 b0 08 0e
        E 8 b0 08 0f
        E 8 b0 08 10
        E 8 b0 08 12
        E 8 b0 08 13
        E 8 b0 08 15
        E 8 b0 08 16
        E 8 b0 08 18
        E 8 b0 08 19
        E 8 b0 08 1b
        E 8 b0 08 1c
        E 8 b0 08 1e
        E 8 b0 08 20
        E 11 b0 08 20
        E 11 b0 08 21
        E 11 b0 08 23
        E 11 b0 08 24
        E 11 b0 08 26
        E 11 b0 08 27
        E 11 b0 08 29
        E 11 b0 08 2a
        E 11 b0 08 2c
        E 11 b0 08 2d
        E 11 b0 08 2f
        E 11 b0 08 30
        E 11 b0 08 31
        E 11 b0 08 33
        E 11 b0 08 34
        E 11 b0 08 35
        E 11 b0 08 36
        E 11 b0 08 37
        E 11 b0 08 38
        E 11 b0 08 39
        E 11 b0 08 3a
        E 11 b0 08 3b
        E 11 b0 08 3c
        E 11 b0 08 3c
        E 11 b0 08 3d
        E 11 b0 08 3d
        E 11 b0 08 3e
        E 11 b0 08 3e
        E 11 b0 08 3f
        E 11 b0 08 3f
        E 11 b0 08 3f
        E 11 b0 08 3f
        E 11 b0 08 3f
        E 11 b0 08 3f
        E 11 b0 08 3f
        E 11 b0 08 3f
        E 11 b0 08 3f
        E 11 b0 08 3e
        E 11 b0 08 3e
        E 11 b0 08 3d
        E 11 b0 08 3d
        E 11 b0 08 3c
        E 11 b0 08 3b
        E 11 b0 08 3a
        E 11 b0 08 3a
        E 11 b0 08 39
        E 11 b0 08 38
        E 11 b0 08 37
        E 11 b0 08 36
        E 11 b0 08 34
        E 11 b0 08 33
        E 11 b0 08 32
        E 11 b0 08 31
        E 11 b0 08 2f
        E 11 b0 08 2e
        E 11 b0 08 2c
        E 11 b0 08 2b
        E 11 b0 08 2a
        E 11 b0 08 28
        E 11 b0 08 27
        E 11 b0 08 25
        E 11 b0 08 23
        E 11 b0 08 22
        E 11 b0 08 20
        E 11 b0 08 1f
        E 11 b0 08 1d
        E 11 b0 08 1c
        E 11 b0 08 1a
        E 11 b0 08 18
        E 11 b0 08 17
        E 11 b0 08 15
        E 11 b0 08 14
        E 11 b0 08 13
        E 11 b0 08 11
        E 11 b0 08 10
        E 11 b0 08 0e
        E 11 b0 08 0d
        E 11 b0 08 0c
        E 11 b0 08 0b
        E 11 b0 08 09
        E 11 b0 08 08
        E 11 b0 08 07
        E 11 b0 08 06
        E 11 b0 08 05
        E 11 b0 08 05
        E 11 b0 08 04
        E 11 b0 08 03
        E 11 b0 08 02
        E 11 b0 08 02
        E 11 b0 08 01
        E 11 b0 08 01
        E 11 b0 08 00
        E 11 b0 08 00
        E 11 b0 08 00
        E 11 b0 08 00
        E 11 b0 08 00
        E 11 b0 08 00
        E 11 b0 08 00
        E 11 b0 08 00
        E 11 b0 08 00
        E 11 b0 08 01
        E 11 b0 08 01
        E 11 b0 08 02
        E 11 b0 08 02
        E 11 b0 08 03
        E 11 b0 08 03
        E 11 b0 08 04
        E 11 b0 08 05
        E 11 b0 08 06
        E 11 b0 08 07
        E 11 b0 08 08
        E 11 b0 08 09
        E 11 b0 08 0a
        E 11 b0 08 0b
        E 11 b0 08 0c
        E 11 b0 08 0e
        E 11 b0 08 0f
        E 11 b0 08 10
        E 11 b0 08 12
        E 11 b0 08 13
        E 11 b0 08 15
        E 11 b0 08 16
        E 11 b0 08 18
        E 11 b0 08 19
        E 11 b0 08 1b
        E 11 b0 08 1c
        E 11 b0 08 1e
        E 11 b0 08 20
        E 13 b0 08 40
        E 13 b0 08 43
        E 13 b0 08 46
        E 13 b0 08 49
        E 13 b0 08 4c
        E 13 b0 08 4f
        E 13 b0 08 52
        E 13 b0 08 55
        E 13 b0 08 58
        E 13 b0 08 5b
        E 13 b0 08 5e
        E 13 b0 08 60
        E 13 b0 08 63
        E 13 b0 08 66
        E 13 b0 08 68
        E 13 b0 08 6a
        E 13 b0 08 6d
        E 13 b0 08 6f
        E 13 b0 08 71
        E 13 b0 08 73
        E 13 b0 08 75
        E 13 b0 08 76
        E 13 b0 08 78
        E 13 b0 08 79
        E 13 b0 08 7a
        E 13 b0 08 7b
        E 13 b0 08 7c
        E 13 b0 08 7d
        E 13 b0 08 7e
        E 13 b0 08 7e
        E 13 b0 08 7f
        E 13 b0 08 7f
        E 13 b0 08 7f
        E 13 b0 08 7f
        E 13 b0 08 7f
        E 13 b0 08 7e
        E 13 b0 08 7e
        E 13 b0 08 7d
        E 13 b0 08 7c
        E 13 b0 08 7b
        E 13 b0 08 7a
        E 13 b0 08 78
        E 13 b0 08 77
        E 13 b0 08 75
        E 13 b0 08 74
        E 13 b0 08 72
        E 13 b0 08 70
        E 13 b0 08 6e
        E 13 b0 08 6c
        E 13 b0 08 69
        E 13 b0 08 67
        E 13 b0 08 64
        E 13 b0 08 62
        E 13 b0 08 5f
        E 13 b0 08 5c
        E 13 b0 08 59
        E 13 b0 08 57
        E 13 b0 08 54
        E 13 b0 08 51
        E 13 b0 08 4e
        E 13 b0 08 4a
        E 13 b0 08 47
        E 13 b0 08 44
        E 13 b0 08 41
        E 13 b0 08 3e
        E 13 b0 08 3b
        E 13 b0 08 38
        E 13 b0 08 35
        E 13 b0 08 31
        E 13 b0 08 2e
        E 13 b0 08 2b
        E 13 b0 08 28
        E 13 b0 08 26
        E 13 b0 08 23
        E 13 b0 08 20
        E 13 b0 08 1d
        E 13 b0 08 1b
        E 13 b0 08 18
        E 13 b0 08 16
        E 13 b0 08 13
        E 13 b0 08 11
        E 13 b0 08 0f
        E 13 b0 08 0d
        E 13 b0 08 0b
        E 13 b0 08 0a
        E 13 b0 08 08
        E 13 b0 08 07
        E 13 b0 08 05
        E 13 b0 08 04
        E 13 b0 08 03
        E 13 b0 08 02
        E 13 b0 08 01
        E 13 b0 08 01
        E 13 b0 08 00
        E 13 b0 08 00
        E 13 b0 08 00
        E 13 b0 08 00
        E 13 b0 08 00
        E 13 b0 08 01
        E 13 b0 08 01
        E 13 b0 08 02
        E 13 b0 08 03
        E 13 b0 08 04
        E 13 b0 08 05
        E 13 b0 08 06
        E 13 b0 08 07
        E 13 b0 08 09
        E 13 b0 08 0a
        E 13 b0 08 0c
        E 13 b0 08 0e
        E 13 b0 08 10
        E 13 b0 08 12
        E 13 b0 08 15
        E 13 b0 08 17
        E 13 b0 08 19
        E 13 b0 08 1c
        E 13 b0 08 1f
        E 13 b0 08 21
        E 13 b0 08 24
        E 13 b0 08 27
        E 13 b0 08 2a
        E 13 b0 08 2d
        E 13 b0 08 30
        E 13 b0 08 33
        E 13 b0 08 36
        E 13 b0 08 39
        E 13 b0 08 3c
        E 13 b0 08 40
        E 1 b0 08 39
        E 1 b0 08 3c
        E 1 b0 08 3f
        E 1 b0 08 41
        E 1 b0 08 44
        E 1 b0 08 47
        E 1 b0 08 49
        E 1 b0 08 4c
        E 1 b0 08 4f
        E 1 b0 08 51
        E 1 b0 08 54
        E 1 b0 08 56
        E 1 b0 08 59
        E 1 b0 08 5b
        E 1 b0 08 5d
        E 1 b0 08 5f
        E 1 b0 08 62
        E 1 b0 08 63
        E 1 b0 08 65
        E 1 b0 08 67
        E 1 b0 08 69
        E 1 b0 08 6a
        E 1 b0 08 6c
        E 1 b0 08 6c
        E 1 b0 08 6d
        E 1 b0 08 6e
        E 1 b0 08 6f
        E 1 b0 08 70
        E 1 b0 08 71
        E 1 b0 08 71
        E 1 b0 08 72
        E 1 b0 08 72
        E 1 b0 08 72
        E 1 b0 08 72
        E 1 b0 08 72
        E 1 b0 08 71
        E 1 b0 08 71
        E 1 b0 08 70
        E 1 b0 08 6f
        E 1 b0 08 6e
        E 1 b0 08 6d
        E 1 b0 08 6c
        E 1 b0 08 6b
        E 1 b0 08 69
        E 1 b0 08 68
        E 1 b0 08 66
        E 1 b0 08 64
        E 1 b0 08 63
        E 1 b0 08 61
        E 1 b0 08 5e
        E 1 b0 08 5c
        E 1 b0 08 5a
        E 1 b0 08 58
        E 1 b0 08 55
        E 1 b0 08 52
        E 1 b0 08 50
        E 1 b0 08 4e
        E 1 b0 08 4b
        E 1 b0 08 48
        E 1 b0 08 46
        E 1 b0 08 42
        E 1 b0 08 3f
        E 1 b0 08 3d
        E 1 b0 08 3a
        E 1 b0 08 37
        E 1 b0 08 35
        E 1 b0 08 32
        E 1 b0 08 2f
        E 1 b0 08 2c
        E 1 b0 08 29
        E 1 b0 08 26
        E 1 b0 08 24
        E 1 b0 08 22
        E 1 b0 08 1f
        E 1 b0 08 1c
        E 1 b0 08 1a
        E 1 b0 08 18
        E 1 b0 08 15
        E 1 b0 08 13
        E 1 b0 08 11
        E 1 b0 08 0f
        E 1 b0 08 0d
        E 1 b0 08 0b
        E 1 b0 08 09
        E 1 b0 08 09
        E 1 b0 08 07
        E 1 b0 08 06
        E 1 b0 08 04
        E 1 b0 08 03
        E 1 b0 08 02
        E 1 b0 08 01
        E 1 b0 08 00
        E 1 b0 08 00
        E 1 b0 08 00
        E 1 b0 08 00
        E 1 b0 08 00
        E 1 b0 08 00
        E 1 b0 08 00
        E 1 b0 08 00
        E 1 b0 08 00
        E 1 b0 08 01
        E 1 b0 08 02
        E 1 b0 08 03
        E 1 b0 08 04
        E 1 b0 08 05
        E 1 b0 08 06
        E 1 b0 08 08
        E 1 b0 08 09
        E 1 b0 08 0a
        E 1 b0 08 0c
        E 1 b0 08 0e
        E 1 b0 08 10
        E 1 b0 08 12
        E 1 b0 08 14
        E 1 b0 08 16
        E 1 b0 08 19
        E 1 b0 08 1b
        E 1 b0 08 1d
        E 1 b0 08 20
        E 1 b0 08 23
        E 1 b0 08 25
        E 1 b0 08 28
        E 1 b0 08 2b
        E 1 b0 08 2d
        E 1 b0 08 30
        E 1 b0 08 33
        E 1 b0 08 36
        E 1 b0 08 39
        E 6 b0 08 40
        E 6 b0 08 43
        E 6 b0 08 46
        E 6 b0 08 49
        E 6 b0 08 4c
        E 6 b0 08 4f
        E 6 b0 08 52
        E 6 b0 08 55
        E 6 b0 08 58
        E 6 b0 08 5b
        E 6 b0 08 5e
        E 6 b0 08 60
        E 6 b0 08 63
        E 6 b0 08 66
        E 6 b0 08 68
        E 6 b0 08 6a
        E 6 b0 08 6d
        E 6 b0 08 6f
        E 6 b0 08 71
        E 6 b0 08 73
        E 6 b0 08 75
        E 6 b0 08 76
        E 6 b0 08 78
        E 6 b0 08 79
        E 6 b0 08 7a
        E 6 b0 08 7b
        E 6 b0 08 7c
        E 6 b0 08 7d
        E 6 b0 08 7e
        E 6 b0 08 7e
        E 6 b0 08 7f
        E 6 b0 08 7f
        E 6 b0 08 7f
        E 6 b0 08 7f
        E 6 b0 08 7f
        E 6 b0 08 7e
        E 6 b0 08 7e
        E 6 b0 08 7d
        E 6 b0 08 7c
        E 6 b0 08 7b
        E 6 b0 08 7a
        E 6 b0 08 78
        E 6 b0 08 77
        E 6 b0 08 75
        E 6 b0 08 74
        E 6 b0 08 72
        E 6 b0 08 70
        E 6 b0 08 6e
        E 6 b0 08 6c
        E 6 b0 08 69
        E 6 b0 08 67
        E 6 b0 08 64
        E 6 b0 08 62
        E 6 b0 08 5f
        E 6 b0 08 5c
        E 6 b0 08 59
        E 6 b0 08 57
        E 6 b0 08 54
        E 6 b0 08 51
        E 6 b0 08 4e
        E 6 b0 08 4a
        E 6 b0 08 47
        E 6 b0 08 44
        E 6 b0 08 41
        E 6 b0 08 3e
        E 6 b0 08 3b
        E 6 b0 08 38
        E 6 b0 08 35
        E 6 b0 08 31
        E 6 b0 08 2e
        E 6 b0 08 2b
        E 6 b0 08 28
        E 6 b0 08 26
        E 6 b0 08 23
        E 6 b0 08 20
        E 6 b0 08 1d
        E 6 b0 08 1b
        E 6 b0 08 18
        E 6 b0 08 16
        E 6 b0 08 13
        E 6 b0 08 11
        E 6 b0 08 0f
        E 6 b0 08 0d
        E 6 b0 08 0b
        E 6 b0 08 0a
        E 6 b0 08 08
        E 6 b0 08 07
        E 6 b0 08 05
        E 6 b0 08 04
        E 6 b0 08 03
        E 6 b0 08 02
        E 6 b0 08 01
        E 6 b0 08 01
        E 6 b0 08 00
        E 6 b0 08 00
        E 6 b0 08 00
        E 6 b0 08 00
        E 6 b0 08 00
        E 6 b0 08 01
        E 6 b0 08 01
        E 6 b0 08 02
        E 6 b0 08 03
        E 6 b0 08 04
        E 6 b0 08 05
        E 6 b0 08 06
        E 6 b0 08 07
        E 6 b0 08 09
        E 6 b0 08 0a
        E 6 b0 08 0c
        E 6 b0 08 0e
        E 6 b0 08 10
        E 6 b0 08 12
        E 6 b0 08 15
        E 6 b0 08 17
        E 6 b0 08 19
        E 6 b0 08 1c
        E 6 b0 08 1f
        E 6 b0 08 21
        E 6 b0 08 24
        E 6 b0 08 27
        E 6 b0 08 2a
        E 6 b0 08 2d
        E 6 b0 08 30
        E 6 b0 08 33
        E 6 b0 08 36
        E 6 b0 08 39
        E 6 b0 08 3c
        E 6 b0 08 40
        E 11 b0 08 39
        E 11 b0 08 3c
        E 11 b0 08 3f
        E 11 b0 08 41
        E 11 b0 08 44
        E 11 b0 08 47
        E 11 b0 08 49
        E 11 b0 08 4c
        E 11 b0 08 4f
        E 11 b0 08 51
        E 11 b0 08 54
        E 11 b0 08 56
        E 11 b0 08 59
        E 11 b0 08 5b
        E 11 b0 08 5d
        E 11 b0 08 5f
        E 11 b0 08 62
        E 11 b0 08 63
        E 11 b0 08 65
        E 11 b0 08 67
        E 11 b0 08 69
        E 11 b0 08 6a
        E 11 b0 08 6c
        E 11 b0 08 6c
        E 11 b0 08 6d
        E 11 b0 08 6e
        E 11 b0 08 6f
        E 11 b0 08 70
        E 11 b0 08 71
        E 11 b0 08 71
        E 11 b0 08 72
        E 11 b0 08 72
        E 11 b0 08 72
        E 11 b0 08 72
        E 11 b0 08 72
        E 11 b0 08 71
        E 11 b0 08 71
        E 11 b0 08 70
        E 11 b0 08 6f
        E 11 b0 08 6e
        E 11 b0 08 6d
        E 11 b0 08 6c
        E 11 b0 08 6b
        E 11 b0 08 69
        E 11 b0 08 68
        E 11 b0 08 66
        E 11 b0 08 64
        E 11 b0 08 63
        E 11 b0 08 61
        E 11 b0 08 5e
        E 11 b0 08 5c
        E 11 b0 08 5a
        E 11 b0 08 58
        E 11 b0 08 55
        E 11 b0 08 52
        E 11 b0 08 50
        E 11 b0 08 4e
        E 11 b0 08 4b
        E 11 b0 08 48
        E 11 b0 08 46
        E 11 b0 08 42
        E 11 b0 08 3f
        E 11 b0 08 3d
        E 11 b0 08 3a
        E 11 b0 08 37
        E 11 b0 08 35
        E 11 b0 08 32
        E 11 b0 08 2f
        E 11 b0 08 2c
        E 11 b0 08 29
        E 11 b0 08 26
        E 11 b0 08 24
        E 11 b0 08 22
        E 11 b0 08 1f
        E 11 b0 08 1c
        E 11 b0 08 1a
        E 11 b0 08 18
        E 11 b0 08 15
        E 11 b0 08 13
        E 11 b0 08 11
        E 11 b0 08 0f
        E 11 b0 08 0d
        E 11 b0 08 0b
        E 11 b0 08 09
        E 11 b0 08 09
        E 11 b0 08 07
        E 11 b0 08 06
        E 11 b0 08 04
        E 11 b0 08 03
        E 11 b0 08 02
        E 11 b0 08 01
        E 11 b0 08 00
        E 11 b0 08 00
        E 11 b0 08 00
        E 11 b0 08 00
        E 11 b0 08 00
        E 11 b0 08 00
        E 11 b0 08 00
        E 11 b0 08 00
        E 11 b0 08 00
        E 11 b0 08 01
        E 11 b0 08 02
        E 11 b0 08 03
        E 11 b0 08 04
        E 11 b0 08 05
        E 11 b0 08 06
        E 11 b0 08 08
        E 11 b0 08 09
        E 11 b0 08 0a
        E 11 b0 08 0c
        E 11 b0 08 0e
        E 11 b0 08 10
        E 11 b0 08 12
        E 11 b0 08 14
        E 11 b0 08 16
        E 11 b0 08 19
        E 11 b0 08 1b
        E 11 b0 08 1d
        E 11 b0 08 20
        E 11 b0 08 23
        E 11 b0 08 25
        E 11 b0 08 28
        E 11 b0 08 2b
        E 11 b0 08 2d
        E 11 b0 08 30
        E 11 b0 08 33
        E 11 b0 08 36
        E 11 b0 08 39
        E 8 b0 08 20
        E 8 b0 08 21
        E 8 b0 08 23
        E 8 b0 08 24
        E 8 b0 08 26
        E 8 b0 08 27
        E 8 b0 08 29
        E 8 b0 08 2a
        E 8 b0 08 2c
        E 8 b0 08 2d
        E 8 b0 08 2f
        E 8 b0 08 30
        E 8 b0 08 31
        E 8 b0 08 33
        E 8 b0 08 34
        E 8 b0 08 35
        E 8 b0 08 36
        E 8 b0 08 37
        E 8 b0 08 38
        E 8 b0 08 39
        E 8 b0 08 3a
        E 8 b0 08 3b
        E 8 b0 08 3c
        E 8 b0 08 3c
        E 8 b0 08 3d
        E 8 b0 08 3d
        E 8 b0 08 3e
        E 8 b0 08 3e
        E 8 b0 08 3f
        E 8 b0 08 3f
        E 8 b0 08 3f
        E 8 b0 08 3f
        E 8 b0 08 3f
        E 8 b0 08 3f
        E 8 b0 08 3f
        E 8 b0 08 3f
        E 8 b0 08 3f
        E 8 b0 08 3e
        E 8 b0 08 3e
        E 8 b0 08 3d
        E 8 b0 08 3d
        E 8 b0 08 3c
        E 8 b0 08 3b
        E 8 b0 08 3a
        E 8 b0 08 3a
        E 8 b0 08 39
        E 8 b0 08 38
        E 8 b0 08 37
        E 8 b0 08 36
        E 8 b0 08 34
        E 8 b0 08 33
        E 8 b0 08 32
        E 8 b0 08 31
        E 8 b0 08 2f
        E 8 b0 08 2e
        E 8 b0 08 2c
        E 8 b0 08 2b
        E 8 b0 08 2a
        E 8 b0 08 28
        E 8 b0 08 27
        E 8 b0 08 25
        E 8 b0 08 23
        E 8 b0 08 22
        E 8 b0 08 20
        E 8 b0 08 1f
        E 8 b0 08 1d
        E 8 b0 08 1c
        E 8 b0 08 1a
        E 8 b0 08 18
        E 8 b0 08 17
        E 8 b0 08 15
        E 8 b0 08 14
        E 8 b0 08 13
        E 8 b0 08 11
        E 8 b0 08 10
        E 8 b0 08 0e
        E 8 b0 08 0d
        E 8 b0 08 0c
        E 8 b0 08 0b
        E 8 b0 08 09
        E 8 b0 08 08
        E 8 b0 08 07
        E 8 b0 08 06
        E 8 b0 08 05
        E 8 b0 08 05
        E 8 b0 08 04
        E 8 b0 08 03
        E 8 b0 08 02
        E 8 b0 08 02
        E 8 b0 08 01
        E 8 b0 08 01
        E 8 b0 08 00
        E 8 b0 08 00
        E 8 b0 08 00
        E 8 b0 08 00
        E 8 b0 08 00
        E 8 b0 08 00
        E 8 b0 08 00
        E 8 b0 08 00
        E 8 b0 08 00
        E 8 b0 08 01
        E 8 b0 08 01
        E 8 b0 08 02
        E 8 b0 08 02
        E 8 b0 08 03
        E 8 b0 08 03
        E 8 b0 08 04
        E 8 b0 08 05
        E 8 b0 08 06
        E 8 b0 08 07
        E 8 b0 08 08
        E 8 b0 08 09
        E 8 b0 08 0a
        E 8 b0 08 0b
        E 8 b0 08 0c
        E 8 b0 08 0e
        E 8 b0 08 0f
        E 8 b0 08 10
        E 8 b0 08 12
        E 8 b0 08 13
        E 8 b0 08 15
        E 8 b0 08 16
        E 8 b0 08 18
        E 8 b0 08 19
        E 8 b0 08 1b
        E 8 b0 08 1c
        E 8 b0 08 1e
        E 8 b0 08 20
        E 8 b0 08 20
        E 8 b0 08 21
        E 8 b0 08 23
        E 8 b0 08 24
        E 8 b0 08 26
        E 8 b0 08 27
        E 8 b0 08 29
        E 8 b0 08 2a
        E 8 b0 08 2c
        E 8 b0 08 2d
        E 8 b0 08 2f
        E 8 b0 08 30
        E 8 b0 08 31
        E 8 b0 08 33
        E 8 b0 08 34
        E 8 b0 08 35
        E 8 b0 08 36
        E 8 b0 08 37
        E 8 b0 08 38
        E 8 b0 08 39
        E 8 b0 08 3a
        E 8 b0 08 3b
        E 8 b0 08 3c
        E 8 b0 08 3c
        E 8 b0 08 3d
        E 8 b0 08 3d
        E 8 b0 08 3e
        E 8 b0 08 3e
        E 8 b0 08 3f
        E 8 b0 08 3f
        E 8 b0 08 3f
        E 8 b0 08 3f
        E 8 b0 08 3f
        E 8 b0 08 3f
        E 8 b0 08 3f
        E 8 b0 08 3f
        E 8 b0 08 3f
        E 8 b0 08 3e
        E 8 b0 08 3e
        E 8 b0 08 3d
        E 8 b0 08 3d
        E 8 b0 08 3c
        E 8 b0 08 3b
        E 8 b0 08 3a
        E 8 b0 08 3a
        E 8 b0 08 39
        E 8 b0 08 38
        E 8 b0 08 37
        E 8 b0 08 36
        E 8 b0 08 34
        E 8 b0 08 33
        E 8 b0 08 32
        E 8 b0 08 31
        E 8 b0 08 2f
        E 8 b0 08 2e
        E 8 b0 08 2c
        E 8 b0 08 2b
        E 8 b0 08 2a
        E 8 b0 08 28
        E 8 b0 08 27
        E 8 b0 08 25
        E 8 b0 08 23
        E 8 b0 08 22
        E 8 b0 08 20
        E 8 b0 08 1f
        E 8 b0 08 1d
        E 8 b0 08 1c
        E 8 b0 08 1a
        E 8 b0 08 18
        E 8 b0 08 17
        E 8 b0 08 15
        E 8 b0 08 14
        E 8 b0 08 13
        E 8 b0 08 11
        E 8 b0 08 10
        E 8 b0 08 0e
        E 8 b0 08 0d
        E 8 b0 08 0c
        E 8 b0 08 0b
        E 8 b0 08 09
        E 8 b0 08 08
        E 8 b0 08 07
        E 8 b0 08 06
        E 8 b0 08 05
        E 8 b0 08 05
        E 8 b0 08 04
        E 8 b0 08 03
        E 8 b0 08 02
        E 8 b0 08 02
        E 8 b0 08 01
        E 8 b0 08 01
        E 8 b0 08 00
        E 8 b0 08 00
        E 8 b0 08 00
        E 8 b0 08 00
        E 8 b0 08 00
        E 8 b0 08 00
        E 8 b0 08 00
        E 8 b0 08 00
        E 8 b0 08 00
        E 8 b0 08 01
        E 8 b0 08 01
        E 8 b0 08 02
        E 8 b0 08 02
        E 8 b0 08 03
        E 8 b0 08 03
        E 8 b0 08 04
        E 8 b0 08 05
        E 8 b0 08 06
        E 8 b0 08 07
        E 8 b0 08 08
        E 8 b0 08 09
        E 8 b0 08 0a
        E 8 b0 08 0b
        E 8 b0 08 0c
        E 8 b0 08 0e
        E 8 b0 08 0f
        E 8 b0 08 10
        E 8 b0 08 12
        E 8 b0 08 13
        E 8 b0 08 15
        E 8 b0 08 16
        E 8 b0 08 18
        E 8 b0 08 19
        E 8 b0 08 1b
        E 8 b0 08 1c
        E 8 b0 08 1e
        E 8 b0 08 20
        E 17 b0 08 2c
        E 17 b0 08 2e
        E 17 b0 08 31
        E 17 b0 08 33
        E 17 b0 08 35
        E 17 b0 08 37
        E 17 b0 08 39
        E 17 b0 08 3b
        E 17 b0 08 3d
        E 17 b0 08 3f
        E 17 b0 08 41
        E 17 b0 08 43
        E 17 b0 08 45
        E 17 b0 08 47
        E 17 b0 08 48
        E 17 b0 08 4a
        E 17 b0 08 4c
        E 17 b0 08 4d
        E 17 b0 08 4f
        E 17 b0 08 50
        E 17 b0 08 51
        E 17 b0 08 52
        E 17 b0 08 54
        E 17 b0 08 54
        E 17 b0 08 55
        E 17 b0 08 56
        E 17 b0 08 56
        E 17 b0 08 57
        E 17 b0 08 58
        E 17 b0 08 58
        E 17 b0 08 58
        E 17 b0 08 58
        E 17 b0 08 58
        E 17 b0 08 58
        E 17 b0 08 58
        E 17 b0 08 58
        E 17 b0 08 58
        E 17 b0 08 57
        E 17 b0 08 56
        E 17 b0 08 56
        E 17 b0 08 55
        E 17 b0 08 54
        E 17 b0 08 53
        E 17 b0 08 51
        E 17 b0 08 51
        E 17 b0 08 4f
        E 17 b0 08 4e
        E 17 b0 08 4d
        E 17 b0 08 4b
        E 17 b0 08 49
        E 17 b0 08 48
        E 17 b0 08 46
        E 17 b0 08 44
        E 17 b0 08 42
        E 17 b0 08 40
        E 17 b0 08 3e
        E 17 b0 08 3c
        E 17 b0 08 3a
        E 17 b0 08 38
        E 17 b0 08 36
        E 17 b0 08 33
        E 17 b0 08 31
        E 17 b0 08 2f
        E 17 b0 08 2d
        E 17 b0 08 2b
        E 17 b0 08 29
        E 17 b0 08 27
        E 17 b0 08 25
        E 17 b0 08 22
        E 17 b0 08 20
        E 17 b0 08 1e
        E 17 b0 08 1c
        E 17 b0 08 1a
        E 17 b0 08 18
        E 17 b0 08 16
        E 17 b0 08 14
        E 17 b0 08 12
        E 17 b0 08 10
        E 17 b0 08 0f
        E 17 b0 08 0d
        E 17 b0 08 0b
        E 17 b0 08 0a
        E 17 b0 08 09
        E 17 b0 08 07
        E 17 b0 08 07
        E 17 b0 08 05
        E 17 b0 08 04
        E 17 b0 08 03
        E 17 b0 08 02
        E 17 b0 08 02
        E 17 b0 08 01
        E 17 b0 08 00
        E 17 b0 08 00
        E 17 b0 08 00
        E 17 b0 08 00
        E 17 b0 08 00
        E 17 b0 08 00
        E 17 b0 08 00
        E 17 b0 08 00
        E 17 b0 08 00
        E 17 b0 08 01
        E 17 b0 08 02
        E 17 b0 08 02
        E 17 b0 08 03
        E 17 b0 08 04
        E 17 b0 08 04
        E 17 b0 08 06
        E 17 b0 08 07
        E 17 b0 08 08
        E 17 b0 08 09
        E 17 b0 08 0b
        E 17 b0 08 0c
        E 17 b0 08 0e
        E 17 b0 08 10
        E 17 b0 08 11
        E 17 b0 08 13
        E 17 b0 08 15
        E 17 b0 08 17
        E 17 b0 08 19
        E 17 b0 08 1b
        E 17 b0 08 1d
        E 17 b0 08 1f
        E 17 b0 08 21
        E 17 b0 08 23
        E 17 b0 08 25
        E 17 b0 08 27
        E 17 b0 08 2a
        E 17 b0 08 2c
        E 15 b0 08 33
        E 15 b0 08 35
        E 15 b0 08 37
        E 15 b0 08 3a
        E 15 b0 08 3c
        E 15 b0 08 3f
        E 15 b0 08 41
        E 15 b0 08 44
        E 15 b0 08 46
        E 15 b0 08 48
        E 15 b0 08 4b
        E 15 b0 08 4c
        E 15 b0 08 4f
        E 15 b0 08 51
        E 15 b0 08 53
        E 15 b0 08 54
        E 15 b0 08 57
        E 15 b0 08 58
        E 15 b0 08 5a
        E 15 b0 08 5b
        E 15 b0 08 5d
        E 15 b0 08 5e
        E 15 b0 08 5f
        E 15 b0 08 60
        E 15 b0 08 61
        E 15 b0 08 62
        E 15 b0 08 63
        E 15 b0 08 63
        E 15 b0 08 64
        E 15 b0 08 64
        E 15 b0 08 65
        E 15 b0 08 65
        E 15 b0 08 65
        E 15 b0 08 65
        E 15 b0 08 65
        E 15 b0 08 64
        E 15 b0 08 64
        E 15 b0 08 63
        E 15 b0 08 63
        E 15 b0 08 62
        E 15 b0 08 61
        E 15 b0 08 5f
        E 15 b0 08 5f
        E 15 b0 08 5d
        E 15 b0 08 5c
        E 15 b0 08 5b
        E 15 b0 08 59
        E 15 b0 08 57
        E 15 b0 08 56
        E 15 b0 08 54
        E 15 b0 08 52
        E 15 b0 08 50
        E 15 b0 08 4e
        E 15 b0 08 4c
        E 15 b0 08 49
        E 15 b0 08 47
        E 15 b0 08 45
        E 15 b0 08 43
        E 15 b0 08 40
        E 15 b0 08 3e
        E 15 b0 08 3b
        E 15 b0 08 38
        E 15 b0 08 36
        E 15 b0 08 33
        E 15 b0 08 31
        E 15 b0 08 2f
        E 15 b0 08 2c
        E 15 b0 08 2a
        E 15 b0 08 27
        E 15 b0 08 24
        E 15 b0 08 22
        E 15 b0 08 1f
        E 15 b0 08 1e
        E 15 b0 08 1b
        E 15 b0 08 19
        E 15 b0 08 17
        E 15 b0 08 15
        E 15 b0 08 13
        E 15 b0 08 11
        E 15 b0 08 0f
        E 15 b0 08 0d
        E 15 b0 08 0b
        E 15 b0 08 0a
        E 15 b0 08 08
        E 15 b0 08 07
        E 15 b0 08 06
        E 15 b0 08 05
        E 15 b0 08 03
        E 15 b0 08 03
        E 15 b0 08 02
        E 15 b0 08 01
        E 15 b0 08 00
        E 15 b0 08 00
        E 15 b0 08 00
        E 15 b0 08 00
        E 15 b0 08 00
        E 15 b0 08 00
        E 15 b0 08 00
        E 15 b0 08 00
        E 15 b0 08 00
        E 15 b0 08 01
        E 15 b0 08 02
        E 15 b0 08 03
        E 15 b0 08 03
        E 15 b0 08 04
        E 15 b0 08 05
        E 15 b0 08 07
        E 15 b0 08 07
        E 15 b0 08 09
        E 15 b0 08 0b
        E 15 b0 08 0c
        E 15 b0 08 0e
        E 15 b0 08 10
        E 15 b0 08 12
        E 15 b0 08 14
        E 15 b0 08 16
        E 15 b0 08 18
        E 15 b0 08 1a
        E 15 b0 08 1c
        E 15 b0 08 1f
        E 15 b0 08 21
        E 15 b0 08 24
        E 15 b0 08 26
        E 15 b0 08 28
        E 15 b0 08 2b
        E 15 b0 08 2d
        E 15 b0 08 2f
        E 15 b0 08 33
        E 17 b0 08 06
        E 17 b0 08 06
        E 17 b0 08 07
        E 17 b0 08 07
        E 17 b0 08 07
        E 17 b0 08 07
        E 17 b0 08 08
        E 17 b0 08 08
        E 17 b0 08 08
        E 17 b0 08 09
        E 17 b0 08 09
        E 17 b0 08 09
        E 17 b0 08 09
        E 17 b0 08 0a
        E 17 b0 08 0a
        E 17 b0 08 0a
        E 17 b0 08 0a
        E 17 b0 08 0b
        E 17 b0 08 0b
        E 17 b0 08 0b
        E 17 b0 08 0b
        E 17 b0 08 0b
        E 17 b0 08 0c
        E 17 b0 08 0c
        E 17 b0 08 0c
        E 17 b0 08 0c
        E 17 b0 08 0c
        E 17 b0 08 0c
        E 17 b0 08 0c
        E 17 b0 08 0c
        E 17 b0 08 0c
        E 17 b0 08 0c
        E 17 b0 08 0c
        E 17 b0 08 0c
        E 17 b0 08 0c
        E 17 b0 08 0c
        E 17 b0 08 0c
        E 17 b0 08 0c
        E 17 b0 08 0c
        E 17 b0 08 0c
        E 17 b0 08 0c
        E 17 b0 08 0c
        E 17 b0 08 0b
        E 17 b0 08 0b
        E 17 b0 08 0b
        E 17 b0 08 0b
        E 17 b0 08 0b
        E 17 b0 08 0b
        E 17 b0 08 0a
        E 17 b0 08 0a
        E 17 b0 08 0a
        E 17 b0 08 0a
        E 17 b0 08 09
        E 17 b0 08 09
        E 17 b0 08 09
        E 17 b0 08 08
        E 17 b0 08 08
        E 17 b0 08 08
        E 17 b0 08 08
        E 17 b0 08 07
        E 17 b0 08 07
        E 17 b0 08 07
        E 17 b0 08 06
        E 17 b0 08 06
        E 17 b0 08 06
        E 17 b0 08 05
        E 17 b0 08 05
        E 17 b0 08 05
        E 17 b0 08 04
        E 17 b0 08 04
        E 17 b0 08 04
        E 17 b0 08 04
        E 17 b0 08 03
        E 17 b0 08 03
        E 17 b0 08 03
        E 17 b0 08 02
        E 17 b0 08 02
        E 17 b0 08 02
        E 17 b0 08 02
        E 17 b0 08 01
        E 17 b0 08 01
        E 17 b0 08 01
        E 17 b0 08 01
        E 17 b0 08 01
        E 17 b0 08 01
        E 17 b0 08 00
        E 17 b0 08 00
        E 17 b0 08 00
        E 17 b0 08 00
        E 17 b0 08 00
        E 17 b0 08 00
        E 17 b0 08 00
        E 17 b0 08 00
        E 17 b0 08 00
        E 17 b0 08 00
        E 17 b0 08 00
        E 17 b0 08 00
        E 17 b0 08 00
        E 17 b0 08 00
        E 17 b0 08 00
        E 17 b0 08 00
        E 17 b0 08 00
        E 17 b0 08 00
        E 17 b0 08 00
        E 17 b0 08 00
        E 17 b0 08 00
        E 17 b0 08 00
        E 17 b0 08 01
        E 17 b0 08 01
        E 17 b0 08 01
        E 17 b0 08 01
        E 17 b0 08 01
        E 17 b0 08 02
        E 17 b0 08 02
        E 17 b0 08 02
        E 17 b0 08 02
        E 17 b0 08 03
        E 17 b0 08 03
        E 17 b0 08 03
        E 17 b0 08 03
        E 17 b0 08 04
        E 17 b0 08 04
        E 17 b0 08 04
        E 17 b0 08 05
        E 17 b0 08 05
        E 17 b0 08 05
        E 17 b0 08 06
        E 17 b0 08 06
        E 15 b0 08 19
        E 15 b0 08 1a
        E 15 b0 08 1c
        E 15 b0 08 1d
        E 15 b0 08 1e
        E 15 b0 08 1f
        E 15 b0 08 20
        E 15 b0 08 22
        E 15 b0 08 23
        E 15 b0 08 24
        E 15 b0 08 25
        E 15 b0 08 26
        E 15 b0 08 27
        E 15 b0 08 28
        E 15 b0 08 29
        E 15 b0 08 2a
        E 15 b0 08 2b
        E 15 b0 08 2c
        E 15 b0 08 2d
        E 15 b0 08 2e
        E 15 b0 08 2e
        E 15 b0 08 2f
        E 15 b0 08 30
        E 15 b0 08 30
        E 15 b0 08 30
        E 15 b0 08 31
        E 15 b0 08 31
        E 15 b0 08 32
        E 15 b0 08 32
        E 15 b0 08 32
        E 15 b0 08 32
        E 15 b0 08 32
        E 15 b0 08 32
        E 15 b0 08 32
        E 15 b0 08 32
        E 15 b0 08 32
        E 15 b0 08 32
        E 15 b0 08 32
        E 15 b0 08 31
        E 15 b0 08 31
        E 15 b0 08 30
        E 15 b0 08 30
        E 15 b0 08 2f
        E 15 b0 08 2e
        E 15 b0 08 2e
        E 15 b0 08 2d
        E 15 b0 08 2c
        E 15 b0 08 2c
        E 15 b0 08 2b
        E 15 b0 08 2a
        E 15 b0 08 29
        E 15 b0 08 28
        E 15 b0 08 27
        E 15 b0 08 26
        E 15 b0 08 24
        E 15 b0 08 23
        E 15 b0 08 22
        E 15 b0 08 21
        E 15 b0 08 20
        E 15 b0 08 1f
        E 15 b0 08 1d
        E 15 b0 08 1c
        E 15 b0 08 1b
        E 15 b0 08 1a
        E 15 b0 08 18
        E 15 b0 08 17
        E 15 b0 08 16
        E 15 b0 08 15
        E 15 b0 08 13
        E 15 b0 08 12
        E 15 b0 08 11
        E 15 b0 08 10
        E 15 b0 08 0f
        E 15 b0 08 0e
        E 15 b0 08 0c
        E 15 b0 08 0b
        E 15 b0 08 0a
        E 15 b0 08 09
        E 15 b0 08 08
        E 15 b0 08 07
        E 15 b0 08 06
        E 15 b0 08 06
        E 15 b0 08 05
        E 15 b0 08 04
        E 15 b0 08 04
        E 15 b0 08 03
        E 15 b0 08 02
        E 15 b0 08 02
        E 15 b0 08 01
        E 15 b0 08 01
        E 15 b0 08 00
        E 15 b0 08 00
        E 15 b0 08 00
        E 15 b0 08 00
        E 15 b0 08 00
        E 15 b0 08 00
        E 15 b0 08 00
        E 15 b0 08 00
        E 15 b0 08 00
        E 15 b0 08 00
        E 15 b0 08 00
        E 15 b0 08 01
        E 15 b0 08 01
        E 15 b0 08 02
        E 15 b0 08 02
        E 15 b0 08 02
        E 15 b0 08 03
        E 15 b0 08 04
        E 15 b0 08 04
        E 15 b0 08 05
        E 15 b0 08 06
        E 15 b0 08 07
        E 15 b0 08 08
        E 15 b0 08 09
        E 15 b0 08 0a
        E 15 b0 08 0b
        E 15 b0 08 0c
        E 15 b0 08 0d
        E 15 b0 08 0e
        E 15 b0 08 0f
        E 15 b0 08 10
        E 15 b0 08 12
        E 15 b0 08 13
        E 15 b0 08 14
        E 15 b0 08 15
        E 15 b0 08 16
        E 15 b0 08 18
        E 15 b0 08 19
        E 8 b0 08 2c
        E 8 b0 08 2e
        E 8 b0 08 31
        E 8 b0 08 33
        E 8 b0 08 35
        E 8 b0 08 37
        E 8 b0 08 39
        E 8 b0 08 3b
        E 8 b0 08 3d
        E 8 b0 08 3f
        E 8 b0 08 41
        E 8 b0 08 43
        E 8 b0 08 45
        E 8 b0 08 47
        E 8 b0 08 48
        E 8 b0 08 4a
        E 8 b0 08 4c
        E 8 b0 08 4d
        E 8 b0 08 4f
        E 8 b0 08 50
        E 8 b0 08 51
        E 8 b0 08 52
        E 8 b0 08 54
        E 8 b0 08 54
        E 8 b0 08 55
        E 8 b0 08 56
        E 8 b0 08 56
        E 8 b0 08 57
        E 8 b0 08 58
        E 8 b0 08 58
        E 8 b0 08 58
        E 8 b0 08 58
        E 8 b0 08 58
        E 8 b0 08 58
        E 8 b0 08 58
        E 8 b0 08 58
        E 8 b0 08 58
        E 8 b0 08 57
        E 8 b0 08 56
        E 8 b0 08 56
        E 8 b0 08 55
        E 8 b0 08 54
        E 8 b0 08 53
        E 8 b0 08 51
        E 8 b0 08 51
        E 8 b0 08 4f
        E 8 b0 08 4e
        E 8 b0 08 4d
        E 8 b0 08 4b
        E 8 b0 08 49
        E 8 b0 08 48
        E 8 b0 08 46
        E 8 b0 08 44
        E 8 b0 08 42
        E 8 b0 08 40
        E 8 b0 08 3e
        E 8 b0 08 3c
        E 8 b0 08 3a
        E 8 b0 08 38
        E 8 b0 08 36
        E 8 b0 08 33
        E 8 b0 08 31
        E 8 b0 08 2f
        E 8 b0 08 2d
        E 8 b0 08 2b
        E 8 b0 08 29
        E 8 b0 08 27
        E 8 b0 08 25
        E 8 b0 08 22
        E 8 b0 08 20
        E 8 b0 08 1e
        E 8 b0 08 1c
        E 8 b0 08 1a
        E 8 b0 08 18
        E 8 b0 08 16
        E 8 b0 08 14
        E 8 b0 08 12
        E 8 b0 08 10
        E 8 b0 08 0f
        E 8 b0 08 0d
        E 8 b0 08 0b
        E 8 b0 08 0a
        E 8 b0 08 09
        E 8 b0 08 07
        E 8 b0 08 07
        E 8 b0 08 05
        E 8 b0 08 04
        E 8 b0 08 03
        E 8 b0 08 02
        E 8 b0 08 02
        E 8 b0 08 01
        E 8 b0 08 00
        E 8 b0 08 00
        E 8 b0 08 00
        E 8 b0 08 00
        E 8 b0 08 00
        E 8 b0 08 00
        E 8 b0 08 00
        E 8 b0 08 00
        E 8 b0 08 00
        E 8 b0 08 01
        E 8 b0 08 02
        E 8 b0 08 02
        E 8 b0 08 03
        E 8 b0 08 04
        E 8 b0 08 04
        E 8 b0 08 06
        E 8 b0 08 07
        E 8 b0 08 08
        E 8 b0 08 09
        E 8 b0 08 0b
        E 8 b0 08 0c
        E 8 b0 08 0e
        E 8 b0 08 10
        E 8 b0 08 11
        E 8 b0 08 13
        E 8 b0 08 15
        E 8 b0 08 17
        E 8 b0 08 19
        E 8 b0 08 1b
        E 8 b0 08 1d
        E 8 b0 08 1f
        E 8 b0 08 21
        E 8 b0 08 23
        E 8 b0 08 25
        E 8 b0 08 27
        E 8 b0 08 2a
        E 8 b0 08 2c
        E 8 b0 08 20
        E 8 b0 08 21
        E 8 b0 08 23
        E 8 b0 08 24
        E 8 b0 08 26
        E 8 b0 08 27
        E 8 b0 08 29
        E 8 b0 08 2a
        E 8 b0 08 2c
        E 8 b0 08 2d
        E 8 b0 08 2f
        E 8 b0 08 30
        E 8 b0 08 31
        E 8 b0 08 33
        E 8 b0 08 34
        E 8 b0 08 35
        E 8 b0 08 36
        E 8 b0 08 37
        E 8 b0 08 38
        E 8 b0 08 39
        E 8 b0 08 3a
        E 8 b0 08 3b
        E 8 b0 08 3c
        E 8 b0 08 3c
        E 8 b0 08 3d
        E 8 b0 08 3d
        E 8 b0 08 3e
        E 8 b0 08 3e
        E 8 b0 08 3f
        E 8 b0 08 3f
        E 8 b0 08 3f
        E 8 b0 08 3f
        E 8 b0 08 3f
        E 8 b0 08 3f
        E 8 b0 08 3f
        E 8 b0 08 3f
        E 8 b0 08 3f
        E 8 b0 08 3e
        E 8 b0 08 3e
        E 8 b0 08 3d
        E 8 b0 08 3d
        E 8 b0 08 3c
        E 8 b0 08 3b
        E 8 b0 08 3a
        E 8 b0 08 3a
        E 8 b0 08 39
        E 8 b0 08 38
        E 8 b0 08 37
        E 8 b0 08 36
        E 8 b0 08 34
        E 8 b0 08 33
        E 8 b0 08 32
        E 8 b0 08 31
        E 8 b0 08 2f
        E 8 b0 08 2e
        E 8 b0 08 2c
        E 8 b0 08 2b
        E 8 b0 08 2a
        E 8 b0 08 28
        E 8 b0 08 27
        E 8 b0 08 25
        E 8 b0 08 23
        E 8 b0 08 22
        E 8 b0 08 20
        E 8 b0 08 1f
        E 8 b0 08 1d
        E 8 b0 08 1c
        E 8 b0 08 1a
        E 8 b0 08 18
        E 8 b0 08 17
        E 8 b0 08 15
        E 8 b0 08 14
        E 8 b0 08 13
        E 8 b0 08 11
        E 8 b0 08 10
        E 8 b0 08 0e
        E 8 b0 08 0d
        E 8 b0 08 0c
        E 8 b0 08 0b
        E 8 b0 08 09
        E 8 b0 08 08
        E 8 b0 08 07
        E 8 b0 08 06
        E 8 b0 08 05
        E 8 b0 08 05
        E 8 b0 08 04
        E 8 b0 08 03
        E 8 b0 08 02
        E 8 b0 08 02
        E 8 b0 08 01
        E 8 b0 08 01
        E 8 b0 08 00
        E 8 b0 08 00
        E 8 b0 08 00
        E 8 b0 08 00
        E 8 b0 08 00
        E 8 b0 08 00
        E 8 b0 08 00
        E 8 b0 08 00
        E 8 b0 08 00
        E 8 b0 08 01
        E 8 b0 08 01
        E 8 b0 08 02
        E 8 b0 08 02
        E 8 b0 08 03
        E 8 b0 08 03
        E 8 b0 08 04
        E 8 b0 08 05
        E 8 b0 08 06
        E 8 b0 08 07
        E 8 b0 08 08
        E 8 b0 08 09
        E 8 b0 08 0a
        E 8 b0 08 0b
        E 8 b0 08 0c
        E 8 b0 08 0e
        E 8 b0 08 0f
        E 8 b0 08 10
        E 8 b0 08 12
        E 8 b0 08 13
        E 8 b0 08 15
        E 8 b0 08 16
        E 8 b0 08 18
        E 8 b0 08 19
        E 8 b0 08 1b
        E 8 b0 08 1c
        E 8 b0 08 1e
        E 8 b0 08 20
        E 11 b0 08 20
        E 11 b0 08 21
        E 11 b0 08 23
        E 11 b0 08 24
        E 11 b0 08 26
        E 11 b0 08 27
        E 11 b0 08 29
        E 11 b0 08 2a
        E 11 b0 08 2c
        E 11 b0 08 2d
        E 11 b0 08 2f
        E 11 b0 08 30
        E 11 b0 08 31
        E 11 b0 08 33
        E 11 b0 08 34
        E 11 b0 08 35
        E 11 b0 08 36
        E 11 b0 08 37
        E 11 b0 08 38
        E 11 b0 08 39
        E 11 b0 08 3a
        E 11 b0 08 3b
        E 11 b0 08 3c
        E 11 b0 08 3c
        E 11 b0 08 3d
        E 11 b0 08 3d
        E 11 b0 08 3e
        E 11 b0 08 3e
        E 11 b0 08 3f
        E 11 b0 08 3f
        E 11 b0 08 3f
        E 11 b0 08 3f
        E 11 b0 08 3f
        E 11 b0 08 3f
        E 11 b0 08 3f
        E 11 b0 08 3f
        E 11 b0 08 3f
        E 11 b0 08 3e
        E 11 b0 08 3e
        E 11 b0 08 3d
        E 11 b0 08 3d
        E 11 b0 08 3c
        E 11 b0 08 3b
        E 11 b0 08 3a
        E 11 b0 08 3a
        E 11 b0 08 39
        E 11 b0 08 38
        E 11 b0 08 37
        E 11 b0 08 36
        E 11 b0 08 34
        E 11 b0 08 33
        E 11 b0 08 32
        E 11 b0 08 31
        E 11 b0 08 2f
        E 11 b0 08 2e
        E 11 b0 08 2c
        E 11 b0 08 2b
        E 11 b0 08 2a
        E 11 b0 08 28
        E 11 b0 08 27
        E 11 b0 08 25
        E 11 b0 08 23
        E 11 b0 08 22
        E 11 b0 08 20
        E 11 b0 08 1f
        E 11 b0 08 1d
        E 11 b0 08 1c
        E 11 b0 08 1a
        E 11 b0 08 18
        E 11 b0 08 17
        E 11 b0 08 15
        E 11 b0 08 14
        E 11 b0 08 13
        E 11 b0 08 11
        E 11 b0 08 10
        E 11 b0 08 0e
        E 11 b0 08 0d
        E 11 b0 08 0c
        E 11 b0 08 0b
        E 11 b0 08 09
        E 11 b0 08 08
        E 11 b0 08 07
        E 11 b0 08 06
        E 11 b0 08 05
        E 11 b0 08 05
        E 11 b0 08 04
        E 11 b0 08 03
        E 11 b0 08 02
        E 11 b0 08 02
        E 11 b0 08 01
        E 11 b0 08 01
        E 11 b0 08 00
        E 11 b0 08 00
        E 11 b0 08 00
        E 11 b0 08 00
        E 11 b0 08 00
        E 11 b0 08 00
        E 11 b0 08 00
        E 11 b0 08 00
        E 11 b0 08 00
        E 11 b0 08 01
        E 11 b0 08 01
        E 11 b0 08 02
        E 11 b0 08 02
        E 11 b0 08 03
        E 11 b0 08 03
        E 11 b0 08 04
        E 11 b0 08 05
        E 11 b0 08 06
        E 11 b0 08 07
        E 11 b0 08 08
        E 11 b0 08 09
        E 11 b0 08 0a
        E 11 b0 08 0b
        E 11 b0 08 0c
        E 11 b0 08 0e
        E 11 b0 08 0f
        E 11 b0 08 10
        E 11 b0 08 12
        E 11 b0 08 13
        E 11 b0 08 15
        E 11 b0 08 16
        E 11 b0 08 18
        E 11 b0 08 19
        E 11 b0 08 1b
        E 11 b0 08 1c
        E 11 b0 08 1e
        E 11 b0 08 20
        E 13 b0 08 40
        E 13 b0 08 43
        E 13 b0 08 46
        E 13 b0 08 49
        E 13 b0 08 4c
        E 13 b0 08 4f
        E 13 b0 08 52
        E 13 b0 08 55
        E 13 b0 08 58
        E 13 b0 08 5b
        E 13 b0 08 5e
        E 13 b0 08 60
        E 13 b0 08 63
        E 13 b0 08 66
        E 13 b0 08 68
        E 13 b0 08 6a
        E 13 b0 08 6d
        E 13 b0 08 6f
        E 13 b0 08 71
        E 13 b0 08 73
        E 13 b0 08 75
        E 13 b0 08 76
        E 13 b0 08 78
        E 13 b0 08 79
        E 13 b0 08 7a
        E 13 b0 08 7b
        E 13 b0 08 7c
        E 13 b0 08 7d
        E 13 b0 08 7e
        E 13 b0 08 7e
        E 13 b0 08 7f
        E 13 b0 08 7f
        E 13 b0 08 7f
        E 13 b0 08 7f
        E 13 b0 08 7f
        E 13 b0 08 7e
        E 13 b0 08 7e
        E 13 b0 08 7d
        E 13 b0 08 7c
        E 13 b0 08 7b
        E 13 b0 08 7a
        E 13 b0 08 78
        E 13 b0 08 77
        E 13 b0 08 75
        E 13 b0 08 74
        E 13 b0 08 72
        E 13 b0 08 70
        E 13 b0 08 6e
        E 13 b0 08 6c
        E 13 b0 08 69
        E 13 b0 08 67
        E 13 b0 08 64
        E 13 b0 08 62
        E 13 b0 08 5f
        E 13 b0 08 5c
        E 13 b0 08 59
        E 13 b0 08 57
        E 13 b0 08 54
        E 13 b0 08 51
        E 13 b0 08 4e
        E 13 b0 08 4a
        E 13 b0 08 47
        E 13 b0 08 44
        E 13 b0 08 41
        E 13 b0 08 3e
        E 13 b0 08 3b
        E 13 b0 08 38
        E 13 b0 08 35
        E 13 b0 08 31
        E 13 b0 08 2e
        E 13 b0 08 2b
        E 13 b0 08 28
        E 13 b0 08 26
        E 13 b0 08 23
        E 13 b0 08 20
        E 13 b0 08 1d
        E 13 b0 08 1b
        E 13 b0 08 18
        E 13 b0 08 16
        E 13 b0 08 13
        E 13 b0 08 11
        E 13 b0 08 0f
        E 13 b0 08 0d
        E 13 b0 08 0b
        E 13 b0 08 0a
        E 13 b0 08 08
        E 13 b0 08 07
        E 13 b0 08 05
        E 13 b0 08 04
        E 13 b0 08 03
        E 13 b0 08 02
        E 13 b0 08 01
        E 13 b0 08 01
        E 13 b0 08 00
        E 13 b0 08 00
        E 13 b0 08 00
        E 13 b0 08 00
        E 13 b0 08 00
        E 13 b0 08 01
        E 13 b0 08 01
        E 13 b0 08 02
        E 13 b0 08 03
        E 13 b0 08 04
        E 13 b0 08 05
        E 13 b0 08 06
        E 13 b0 08 07
        E 13 b0 08 09
        E 13 b0 08 0a
        E 13 b0 08 0c
        E 13 b0 08 0e
        E 13 b0 08 10
        E 13 b0 08 12
        E 13 b0 08 15
        E 13 b0 08 17
        E 13 b0 08 19
        E 13 b0 08 1c
        E 13 b0 08 1f
        E 13 b0 08 21
        E 13 b0 08 24
        E 13 b0 08 27
        E 13 b0 08 2a
        E 13 b0 08 2d
        E 13 b0 08 30
        E 13 b0 08 33
        E 13 b0 08 36
        E 13 b0 08 39
        E 13 b0 08 3c
        E 13 b0 08 40
        E 11 b0 08 39
        E 11 b0 08 3c
        E 11 b0 08 3f
        E 11 b0 08 41
        E 11 b0 08 44
        E 11 b0 08 47
        E 11 b0 08 49
        E 11 b0 08 4c
        E 11 b0 08 4f
        E 11 b0 08 51
        E 11 b0 08 54
        E 11 b0 08 56
        E 11 b0 08 59
        E 11 b0 08 5b
        E 11 b0 08 5d
        E 11 b0 08 5f
        E 11 b0 08 62
        E 11 b0 08 63
        E 11 b0 08 65
        E 11 b0 08 67
        E 11 b0 08 69
        E 11 b0 08 6a
        E 11 b0 08 6c
        E 11 b0 08 6c
        E 11 b0 08 6d
        E 11 b0 08 6e
        E 11 b0 08 6f
        E 11 b0 08 70
        E 11 b0 08 71
        E 11 b0 08 71
        E 11 b0 08 72
        E 11 b0 08 72
        E 11 b0 08 72
        E 11 b0 08 72
        E 11 b0 08 72
        E 11 b0 08 71
        E 11 b0 08 71
        E 11 b0 08 70
        E 11 b0 08 6f
        E 11 b0 08 6e
        E 11 b0 08 6d
        E 11 b0 08 6c
        E 11 b0 08 6b
        E 11 b0 08 69
        E 11 b0 08 68
        E 11 b0 08 66
        E 11 b0 08 64
        E 11 b0 08 63
        E 11 b0 08 61
        E 11 b0 08 5e
        E 11 b0 08 5c
        E 11 b0 08 5a
        E 11 b0 08 58
        E 11 b0 08 55
        E 11 b0 08 52
        E 11 b0 08 50
        E 11 b0 08 4e
        E 11 b0 08 4b
        E 11 b0 08 48
        E 11 b0 08 46
        E 11 b0 08 42
        E 11 b0 08 3f
        E 11 b0 08 3d
        E 11 b0 08 3a
        E 11 b0 08 37
        E 11 b0 08 35
        E 11 b0 08 32
        E 11 b0 08 2f
        E 11 b0 08 2c
        E 11 b0 08 29
        E 11 b0 08 26
        E 11 b0 08 24
        E 11 b0 08 22
        E 11 b0 08 1f
        E 11 b0 08 1c
        E 11 b0 08 1a
        E 11 b0 08 18
        E 11 b0 08 15
        E 11 b0 08 13
        E 11 b0 08 11
        E 11 b0 08 0f
        E 11 b0 08 0d
        E 11 b0 08 0b
        E 11 b0 08 09
        E 11 b0 08 09
        E 11 b0 08 07
        E 11 b0 08 06
        E 11 b0 08 04
        E 11 b0 08 03
        E 11 b0 08 02
        E 11 b0 08 01
        E 11 b0 08 00
        E 11 b0 08 00
        E 11 b0 08 00
        E 11 b0 08 00
        E 11 b0 08 00
        E 11 b0 08 00
        E 11 b0 08 00
        E 11 b0 08 00
        E 11 b0 08 00
        E 11 b0 08 01
        E 11 b0 08 02
        E 11 b0 08 03
        E 11 b0 08 04
        E 11 b0 08 05
        E 11 b0 08 06
        E 11 b0 08 08
        E 11 b0 08 09
        E 11 b0 08 0a
        E 11 b0 08 0c
        E 11 b0 08 0e
        E 11 b0 08 10
        E 11 b0 08 12
        E 11 b0 08 14
        E 11 b0 08 16
        E 11 b0 08 19
        E 11 b0 08 1b
        E 11 b0 08 1d
        E 11 b0 08 20
        E 11 b0 08 23
        E 11 b0 08 25
        E 11 b0 08 28
        E 11 b0 08 2b
        E 11 b0 08 2d
        E 11 b0 08 30
        E 11 b0 08 33
        E 11 b0 08 36
        E 11 b0 08 39
        E 8 b0 08 20
        E 8 b0 08 21
        E 8 b0 08 23
        E 8 b0 08 24
        E 8 b0 08 26
        E 8 b0 08 27
        E 8 b0 08 29
        E 8 b0 08 2a
        E 8 b0 08 2c
        E 8 b0 08 2d
        E 8 b0 08 2f
        E 8 b0 08 30
        E 8 b0 08 31
        E 8 b0 08 33
        E 8 b0 08 34
        E 8 b0 08 35
        E 8 b0 08 36
        E 8 b0 08 37
        E 8 b0 08 38
        E 8 b0 08 39
        E 8 b0 08 3a
        E 8 b0 08 3b
        E 8 b0 08 3c
        E 8 b0 08 3c
        E 8 b0 08 3d
        E 8 b0 08 3d
        E 8 b0 08 3e
        E 8 b0 08 3e
        E 8 b0 08 3f
        E 8 b0 08 3f
        E 8 b0 08 3f
        E 8 b0 08 3f
        E 8 b0 08 3f
        E 8 b0 08 3f
        E 8 b0 08 3f
        E 8 b0 08 3f
        E 8 b0 08 3f
        E 8 b0 08 3e
        E 8 b0 08 3e
        E 8 b0 08 3d
        E 8 b0 08 3d
        E 8 b0 08 3c
        E 8 b0 08 3b
        E 8 b0 08 3a
        E 8 b0 08 3a
        E 8 b0 08 39
        E 8 b0 08 38
        E 8 b0 08 37
        E 8 b0 08 36
        E 8 b0 08 34
        E 8 b0 08 33
        E 8 b0 08 32
        E 8 b0 08 31
        E 8 b0 08 2f
        E 8 b0 08 2e
        E 8 b0 08 2c
        E 8 b0 08 2b
        E 8 b0 08 2a
        E 8 b0 08 28
        E 8 b0 08 27
        E 8 b0 08 25
        E 8 b0 08 23
        E 8 b0 08 22
        E 8 b0 08 20
        E 8 b0 08 1f
        E 8 b0 08 1d
        E 8 b0 08 1c
        E 8 b0 08 1a
        E 8 b0 08 18
        E 8 b0 08 17
        E 8 b0 08 15
        E 8 b0 08 14
        E 8 b0 08 13
        E 8 b0 08 11
        E 8 b0 08 10
        E 8 b0 08 0e
        E 8 b0 08 0d
        E 8 b0 08 0c
        E 8 b0 08 0b
        E 8 b0 08 09
        E 8 b0 08 08
        E 8 b0 08 07
        E 8 b0 08 06
        E 8 b0 08 05
        E 8 b0 08 05
        E 8 b0 08 04
        E 8 b0 08 03
        E 8 b0 08 02
        E 8 b0 08 02
        E 8 b0 08 01
        E 8 b0 08 01
        E 8 b0 08 00
        E 8 b0 08 00
        E 8 b0 08 00
        E 8 b0 08 00
        E 8 b0 08 00
        E 8 b0 08 00
        E 8 b0 08 00
        E 8 b0 08 00
        E 8 b0 08 00
        E 8 b0 08 01
        E 8 b0 08 01
        E 8 b0 08 02
        E 8 b0 08 02
        E 8 b0 08 03
        E 8 b0 08 03
        E 8 b0 08 04
        E 8 b0 08 05
        E 8 b0 08 06
        E 8 b0 08 07
        E 8 b0 08 08
        E 8 b0 08 09
        E 8 b0 08 0a
        E 8 b0 08 0b
        E 8 b0 08 0c
        E 8 b0 08 0e
        E 8 b0 08 0f
        E 8 b0 08 10
        E 8 b0 08 12
        E 8 b0 08 13
        E 8 b0 08 15
        E 8 b0 08 16
        E 8 b0 08 18
        E 8 b0 08 19
        E 8 b0 08 1b
        E 8 b0 08 1c
        E 8 b0 08 1e
        E 8 b0 08 20
        E 8 b0 08 20
        E 8 b0 08 21
        E 8 b0 08 23
        E 8 b0 08 24
        E 8 b0 08 26
        E 8 b0 08 27
        E 8 b0 08 29
        E 8 b0 08 2a
        E 8 b0 08 2c
        E 8 b0 08 2d
        E 8 b0 08 2f
        E 8 b0 08 30
        E 8 b0 08 31
        E 8 b0 08 33
        E 8 b0 08 34
        E 8 b0 08 35
        E 8 b0 08 36
        E 8 b0 08 37
        E 8 b0 08 38
        E 8 b0 08 39
        E 8 b0 08 3a
        E 8 b0 08 3b
        E 8 b0 08 3c
        E 8 b0 08 3c
        E 8 b0 08 3d
        E 8 b0 08 3d
        E 8 b0 08 3e
        E 8 b0 08 3e
        E 8 b0 08 3f
        E 8 b0 08 3f
        E 8 b0 08 3f
        E 8 b0 08 3f
        E 8 b0 08 3f
        E 8 b0 08 3f
        E 8 b0 08 3f
        E 8 b0 08 3f
        E 8 b0 08 3f
        E 8 b0 08 3e
        E 8 b0 08 3e
        E 8 b0 08 3d
        E 8 b0 08 3d
        E 8 b0 08 3c
        E 8 b0 08 3b
        E 8 b0 08 3a
        E 8 b0 08 3a
        E 8 b0 08 39
        E 8 b0 08 38
        E 8 b0 08 37
        E 8 b0 08 36
        E 8 b0 08 34
        E 8 b0 08 33
        E 8 b0 08 32
        E 8 b0 08 31
        E 8 b0 08 2f
        E 8 b0 08 2e
        E 8 b0 08 2c
        E 8 b0 08 2b
        E 8 b0 08 2a
        E 8 b0 08 28
        E 8 b0 08 27
        E 8 b0 08 25
        E 8 b0 08 23
        E 8 b0 08 22
        E 8 b0 08 20
        E 8 b0 08 1f
        E 8 b0 08 1d
        E 8 b0 08 1c
        E 8 b0 08 1a
        E 8 b0 08 18
        E 8 b0 08 17
        E 8 b0 08 15
        E 8 b0 08 14
        E 8 b0 08 13
        E 8 b0 08 11
        E 8 b0 08 10
        E 8 b0 08 0e
        E 8 b0 08 0d
        E 8 b0 08 0c
        E 8 b0 08 0b
        E 8 b0 08 09
        E 8 b0 08 08
        E 8 b0 08 07
        E 8 b0 08 06
        E 8 b0 08 05
        E 8 b0 08 05
        E 8 b0 08 04
        E 8 b0 08 03
        E 8 b0 08 02
        E 8 b0 08 02
        E 8 b0 08 01
        E 8 b0 08 01
        E 8 b0 08 00
        E 8 b0 08 00
        E 8 b0 08 00
        E 8 b0 08 00
        E 8 b0 08 00
        E 8 b0 08 00
        E 8 b0 08 00
        E 8 b0 08 00
        E 8 b0 08 00
        E 8 b0 08 01
        E 8 b0 08 01
        E 8 b0 08 02
        E 8 b0 08 02
        E 8 b0 08 03
        E 8 b0 08 03
        E 8 b0 08 04
        E 8 b0 08 05
        E 8 b0 08 06
        E 8 b0 08 07
        E 8 b0 08 08
        E 8 b0 08 09
        E 8 b0 08 0a
        E 8 b0 08 0b
        E 8 b0 08 0c
        E 8 b0 08 0e
        E 8 b0 08 0f
        E 8 b0 08 10
        E 8 b0 08 12
        E 8 b0 08 13
        E 8 b0 08 15
        E 8 b0 08 16
        E 8 b0 08 18
        E 8 b0 08 19
        E 8 b0 08 1b
        E 8 b0 08 1c
        E 8 b0 08 1e
        E 8 b0 08 20
        E 17 b0 08 2c
        E 17 b0 08 2e
        E 17 b0 08 31
        E 17 b0 08 33
        E 17 b0 08 35
        E 17 b0 08 37
        E 17 b0 08 39
        E 17 b0 08 3b
        E 17 b0 08 3d
        E 17 b0 08 3f
        E 17 b0 08 41
        E 17 b0 08 43
        E 17 b0 08 45
        E 17 b0 08 47
        E 17 b0 08 48
        E 17 b0 08 4a
        E 17 b0 08 4c
        E 17 b0 08 4d
        E 17 b0 08 4f
        E 17 b0 08 50
        E 17 b0 08 51
        E 17 b0 08 52
        E 17 b0 08 54
        E 17 b0 08 54
        E 17 b0 08 55
        E 17 b0 08 56
        E 17 b0 08 56
        E 17 b0 08 57
        E 17 b0 08 58
        E 17 b0 08 58
        E 17 b0 08 58
        E 17 b0 08 58
        E 17 b0 08 58
        E 17 b0 08 58
        E 17 b0 08 58
        E 17 b0 08 58
        E 17 b0 08 58
        E 17 b0 08 57
        E 17 b0 08 56
        E 17 b0 08 56
        E 17 b0 08 55
        E 17 b0 08 54
        E 17 b0 08 53
        E 17 b0 08 51
        E 17 b0 08 51
        E 17 b0 08 4f
        E 17 b0 08 4e
        E 17 b0 08 4d
        E 17 b0 08 4b
        E 17 b0 08 49
        E 17 b0 08 48
        E 17 b0 08 46
        E 17 b0 08 44
        E 17 b0 08 42
        E 17 b0 08 40
        E 17 b0 08 3e
        E 17 b0 08 3c
        E 17 b0 08 3a
        E 17 b0 08 38
        E 17 b0 08 36
        E 17 b0 08 33
        E 17 b0 08 31
        E 17 b0 08 2f
        E 17 b0 08 2d
        E 17 b0 08 2b
        E 17 b0 08 29
        E 17 b0 08 27
        E 17 b0 08 25
        E 17 b0 08 22
        E 17 b0 08 20
        E 17 b0 08 1e
        E 17 b0 08 1c
        E 17 b0 08 1a
        E 17 b0 08 18
        E 17 b0 08 16
        E 17 b0 08 14
        E 17 b0 08 12
        E 17 b0 08 10
        E 17 b0 08 0f
        E 17 b0 08 0d
        E 17 b0 08 0b
        E 17 b0 08 0a
        E 17 b0 08 09
        E 17 b0 08 07
        E 17 b0 08 07
        E 17 b0 08 05
        E 17 b0 08 04
        E 17 b0 08 03
        E 17 b0 08 02
        E 17 b0 08 02
        E 17 b0 08 01
        E 17 b0 08 00
        E 17 b0 08 00
        E 17 b0 08 00
        E 17 b0 08 00
        E 17 b0 08 00
        E 17 b0 08 00
        E 17 b0 08 00
        E 17 b0 08 00
        E 17 b0 08 00
        E 17 b0 08 01
        E 17 b0 08 02
        E 17 b0 08 02
        E 17 b0 08 03
        E 17 b0 08 04
        E 17 b0 08 04
        E 17 b0 08 06
        E 17 b0 08 07
        E 17 b0 08 08
        E 17 b0 08 09
        E 17 b0 08 0b
        E 17 b0 08 0c
        E 17 b0 08 0e
        E 17 b0 08 10
        E 17 b0 08 11
        E 17 b0 08 13
        E 17 b0 08 15
        E 17 b0 08 17
        E 17 b0 08 19
        E 17 b0 08 1b
        E 17 b0 08 1d
        E 17 b0 08 1f
        E 17 b0 08 21
        E 17 b0 08 23
        E 17 b0 08 25
        E 17 b0 08 27
        E 17 b0 08 2a
        E 17 b0 08 2c
        E 15 b0 08 33
        E 15 b0 08 35
        E 15 b0 08 37
        E 15 b0 08 3a
        E 15 b0 08 3c
        E 15 b0 08 3f
        E 15 b0 08 41
        E 15 b0 08 44
        E 15 b0 08 46
        E 15 b0 08 48
        E 15 b0 08 4b
        E 15 b0 08 4c
        E 15 b0 08 4f
        E 15 b0 08 51
        E 15 b0 08 53
        E 15 b0 08 54
        E 15 b0 08 57
        E 15 b0 08 58
        E 15 b0 08 5a
        E 15 b0 08 5b
        E 15 b0 08 5d
        E 15 b0 08 5e
        E 15 b0 08 5f
        E 15 b0 08 60
        E 15 b0 08 61
        E 15 b0 08 62
        E 15 b0 08 63
        E 15 b0 08 63
        E 15 b0 08 64
        E 15 b0 08 64
        E 15 b0 08 65
        E 15 b0 08 65
        E 15 b0 08 65
        E 15 b0 08 65
        E 15 b0 08 65
        E 15 b0 08 64
        E 15 b0 08 64
        E 15 b0 08 63
        E 15 b0 08 63
        E 15 b0 08 62
        E 15 b0 08 61
        E 15 b0 08 5f
        E 15 b0 08 5f
        E 15 b0 08 5d
        E 15 b0 08 5c
        E 15 b0 08 5b
        E 15 b0 08 59
        E 15 b0 08 57
        E 15 b0 08 56
        E 15 b0 08 54
        E 15 b0 08 52
        E 15 b0 08 50
        E 15 b0 08 4e
        E 15 b0 08 4c
        E 15 b0 08 49
        E 15 b0 08 47
        E 15 b0 08 45
        E 15 b0 08 43
        E 15 b0 08 40
        E 15 b0 08 3e
        E 15 b0 08 3b
        E 15 b0 08 38
        E 15 b0 08 36
        E 15 b0 08 33
        E 15 b0 08 31
        E 15 b0 08 2f
        E 15 b0 08 2c
        E 15 b0 08 2a
        E 15 b0 08 27
        E 15 b0 08 24
        E 15 b0 08 22
        E 15 b0 08 1f
        E 15 b0 08 1e
        E 15 b0 08 1b
        E 15 b0 08 19
        E 15 b0 08 17
        E 15 b0 08 15
        E 15 b0 08 13
        E 15 b0 08 11
        E 15 b0 08 0f
        E 15 b0 08 0d
        E 15 b0 08 0b
        E 15 b0 08 0a
        E 15 b0 08 08
        E 15 b0 08 07
        E 15 b0 08 06
        E 15 b0 08 05
        E 15 b0 08 03
        E 15 b0 08 03
        E 15 b0 08 02
        E 15 b0 08 01
        E 15 b0 08 00
        E 15 b0 08 00
        E 15 b0 08 00
        E 15 b0 08 00
        E 15 b0 08 00
        E 15 b0 08 00
        E 15 b0 08 00
        E 15 b0 08 00
        E 15 b0 08 00
        E 15 b0 08 01
        E 15 b0 08 02
        E 15 b0 08 03
        E 15 b0 08 03
        E 15 b0 08 04
        E 15 b0 08 05
        E 15 b0 08 07
        E 15 b0 08 07
        E 15 b0 08 09
        E 15 b0 08 0b
        E 15 b0 08 0c
        E 15 b0 08 0e
        E 15 b0 08 10
        E 15 b0 08 12
        E 15 b0 08 14
        E 15 b0 08 16
        E 15 b0 08 18
        E 15 b0 08 1a
        E 15 b0 08 1c
        E 15 b0 08 1f
        E 15 b0 08 21
        E 15 b0 08 24
        E 15 b0 08 26
        E 15 b0 08 28
        E 15 b0 08 2b
        E 15 b0 08 2d
        E 15 b0 08 2f
        E 15 b0 08 33
        E 17 b0 08 06
        E 17 b0 08 06
        E 17 b0 08 07
        E 17 b0 08 07
        E 17 b0 08 07
        E 17 b0 08 07
        E 17 b0 08 08
        E 17 b0 08 08
        E 17 b0 08 08
        E 17 b0 08 09
        E 17 b0 08 09
        E 17 b0 08 09
        E 17 b0 08 09
        E 17 b0 08 0a
        E 17 b0 08 0a
        E 17 b0 08 0a
        E 17 b0 08 0a
        E 17 b0 08 0b
        E 17 b0 08 0b
        E 17 b0 08 0b
        E 17 b0 08 0b
        E 17 b0 08 0b
        E 17 b0 08 0c
        E 17 b0 08 0c
        E 17 b0 08 0c
        E 17 b0 08 0c
        E 17 b0 08 0c
        E 17 b0 08 0c
        E 17 b0 08 0c
        E 17 b0 08 0c
        E 17 b0 08 0c
        E 17 b0 08 0c
        E 17 b0 08 0c
        E 17 b0 08 0c
        E 17 b0 08 0c
        E 17 b0 08 0c
        E 17 b0 08 0c
        E 17 b0 08 0c
        E 17 b0 08 0c
        E 17 b0 08 0c
        E 17 b0 08 0c
        E 17 b0 08 0c
        E 17 b0 08 0b
        E 17 b0 08 0b
        E 17 b0 08 0b
        E 17 b0 08 0b
        E 17 b0 08 0b
        E 17 b0 08 0b
        E 17 b0 08 0a
        E 17 b0 08 0a
        E 17 b0 08 0a
        E 17 b0 08 0a
        E 17 b0 08 09
        E 17 b0 08 09
        E 17 b0 08 09
        E 17 b0 08 08
        E 17 b0 08 08
        E 17 b0 08 08
        E 17 b0 08 08
        E 17 b0 08 07
        E 17 b0 08 07
        E 17 b0 08 07
        E 17 b0 08 06
        E 17 b0 08 06
        E 17 b0 08 06
        E 17 b0 08 05
        E 17 b0 08 05
        E 17 b0 08 05
        E 17 b0 08 04
        E 17 b0 08 04
        E 17 b0 08 04
        E 17 b0 08 04
        E 17 b0 08 03
        E 17 b0 08 03
        E 17 b0 08 03
        E 17 b0 08 02
        E 17 b0 08 02
        E 17 b0 08 02
        E 17 b0 08 02
        E 17 b0 08 01
        E 17 b0 08 01
        E 17 b0 08 01
        E 17 b0 08 01
        E 17 b0 08 01
        E 17 b0 08 01
        E 17 b0 08 00
        E 17 b0 08 00
        E 17 b0 08 00
        E 17 b0 08 00
        E 17 b0 08 00
        E 17 b0 08 00
        E 17 b0 08 00
        E 17 b0 08 00
        E 17 b0 08 00
        E 17 b0 08 00
        E 17 b0 08 00
        E 17 b0 08 00
        E 17 b0 08 00
        E 17 b0 08 00
        E 17 b0 08 00
        E 17 b0 08 00
        E 17 b0 08 00
        E 17 b0 08 00
        E 17 b0 08 00
        E 17 b0 08 00
        E 17 b0 08 00
        E 17 b0 08 00
        E 17 b0 08 01
        E 17 b0 08 01
        E 17 b0 08 01
        E 17 b0 08 01
        E 17 b0 08 01
        E 17 b0 08 02
        E 17 b0 08 02
        E 17 b0 08 02
        E 17 b0 08 02
        E 17 b0 08 03
        E 17 b0 08 03
        E 17 b0 08 03
        E 17 b0 08 03
        E 17 b0 08 04
        E 17 b0 08 04
        E 17 b0 08 04
        E 17 b0 08 05
        E 17 b0 08 05
        E 17 b0 08 05
        E 17 b0 08 06
        E 17 b0 08 06
        E 15 b0 08 19
        E 15 b0 08 1a
        E 15 b0 08 1c
        E 15 b0 08 1d
        E 15 b0 08 1e
        E 15 b0 08 1f
        E 15 b0 08 20
        E 15 b0 08 22
        E 15 b0 08 23
        E 15 b0 08 24
        E 15 b0 08 25
        E 15 b0 08 26
        E 15 b0 08 27
        E 15 b0 08 28
        E 15 b0 08 29
        E 15 b0 08 2a
        E 15 b0 08 2b
        E 15 b0 08 2c
        E 15 b0 08 2d
        E 15 b0 08 2e
        E 15 b0 08 2e
        E 15 b0 08 2f
        E 15 b0 08 30
        E 15 b0 08 30
        E 15 b0 08 30
        E 15 b0 08 31
        E 15 b0 08 31
        E 15 b0 08 32
        E 15 b0 08 32
        E 15 b0 08 32
        E 15 b0 08 32
        E 15 b0 08 32
        E 15 b0 08 32
        E 15 b0 08 32
        E 15 b0 08 32
        E 15 b0 08 32
        E 15 b0 08 32
        E 15 b0 08 32
        E 15 b0 08 31
        E 15 b0 08 31
        E 15 b0 08 30
        E 15 b0 08 30
        E 15 b0 08 2f
        E 15 b0 08 2e
        E 15 b0 08 2e
        E 15 b0 08 2d
        E 15 b0 08 2c
        E 15 b0 08 2c
        E 15 b0 08 2b
        E 15 b0 08 2a
        E 15 b0 08 29
        E 15 b0 08 28
        E 15 b0 08 27
        E 15 b0 08 26
        E 15 b0 08 24
        E 15 b0 08 23
        E 15 b0 08 22
        E 15 b0 08 21
        E 15 b0 08 20
        E 15 b0 08 1f
        E 15 b0 08 1d
        E 15 b0 08 1c
        E 15 b0 08 1b
        E 15 b0 08 1a
        E 15 b0 08 18
        E 15 b0 08 17
        E 15 b0 08 16
        E 15 b0 08 15
        E 15 b0 08 13
        E 15 b0 08 12
        E 15 b0 08 11
        E 15 b0 08 10
        E 15 b0 08 0f
        E 15 b0 08 0e
        E 15 b0 08 0c
        E 15 b0 08 0b
        E 15 b0 08 0a
        E 15 b0 08 09
        E 15 b0 08 08
        E 15 b0 08 07
        E 15 b0 08 06
        E 15 b0 08 06
        E 15 b0 08 05
        E 15 b0 08 04
        E 15 b0 08 04
        E 15 b0 08 03
        E 15 b0 08 02
        E 15 b0 08 02
        E 15 b0 08 01
        E 15 b0 08 01
        E 15 b0 08 00
        E 15 b0 08 00
        E 15 b0 08 00
        E 15 b0 08 00
        E 15 b0 08 00
        E 15 b0 08 00
        E 15 b0 08 00
        E 15 b0 08 00
        E 15 b0 08 00
        E 15 b0 08 00
        E 15 b0 08 00
        E 15 b0 08 01
        E 15 b0 08 01
        E 15 b0 08 02
        E 15 b0 08 02
        E 15 b0 08 02
        E 15 b0 08 03
        E 15 b0 08 04
        E 15 b0 08 04
        E 15 b0 08 05
        E 15 b0 08 06
        E 15 b0 08 07
        E 15 b0 08 08
        E 15 b0 08 09
        E 15 b0 08 0a
        E 15 b0 08 0b
        E 15 b0 08 0c
        E 15 b0 08 0d
        E 15 b0 08 0e
        E 15 b0 08 0f
        E 15 b0 08 10
        E 15 b0 08 12
        E 15 b0 08 13
        E 15 b0 08 14
        E 15 b0 08 15
        E 15 b0 08 16
        E 15 b0 08 18
        E 15 b0 08 19
        E 8 b0 08 2c
        E 8 b0 08 2e
        E 8 b0 08 31
        E 8 b0 08 33
        E 8 b0 08 35
        E 8 b0 08 37
        E 8 b0 08 39
        E 8 b0 08 3b
        E 8 b0 08 3d
        E 8 b0 08 3f
        E 8 b0 08 41
        E 8 b0 08 43
        E 8 b0 08 45
        E 8 b0 08 47
        E 8 b0 08 48
        E 8 b0 08 4a
        E 8 b0 08 4c
        E 8 b0 08 4d
        E 8 b0 08 4f
        E 8 b0 08 50
        E 8 b0 08 51
        E 8 b0 08 52
        E 8 b0 08 54
        E 8 b0 08 54
        E 8 b0 08 55
        E 8 b0 08 56
        E 8 b0 08 56
        E 8 b0 08 57
        E 8 b0 08 58
        E 8 b0 08 58
        E 8 b0 08 58
        E 8 b0 08 58
        E 8 b0 08 58
        E 8 b0 08 58
        E 8 b0 08 58
        E 8 b0 08 58
        E 8 b0 08 58
        E 8 b0 08 57
        E 8 b0 08 56
        E 8 b0 08 56
        E 8 b0 08 55
        E 8 b0 08 54
        E 8 b0 08 53
        E 8 b0 08 51
        E 8 b0 08 51
        E 8 b0 08 4f
        E 8 b0 08 4e
        E 8 b0 08 4d
        E 8 b0 08 4b
        E 8 b0 08 49
        E 8 b0 08 48
        E 8 b0 08 46
        E 8 b0 08 44
        E 8 b0 08 42
        E 8 b0 08 40
        E 8 b0 08 3e
        E 8 b0 08 3c
        E 8 b0 08 3a
        E 8 b0 08 38
        E 8 b0 08 36
        E 8 b0 08 33
        E 8 b0 08 31
        E 8 b0 08 2f
        E 8 b0 08 2d
        E 8 b0 08 2b
        E 8 b0 08 29
        E 8 b0 08 27
        E 8 b0 08 25
        E 8 b0 08 22
        E 8 b0 08 20
        E 8 b0 08 1e
        E 8 b0 08 1c
        E 8 b0 08 1a
        E 8 b0 08 18
        E 8 b0 08 16
        E 8 b0 08 14
        E 8 b0 08 12
        E 8 b0 08 10
        E 8 b0 08 0f
        E 8 b0 08 0d
        E 8 b0 08 0b
        E 8 b0 08 0a
        E 8 b0 08 09
        E 8 b0 08 07
        E 8 b0 08 07
        E 8 b0 08 05
        E 8 b0 08 04
        E 8 b0 08 03
        E 8 b0 08 02
        E 8 b0 08 02
        E 8 b0 08 01
        E 8 b0 08 00
        E 8 b0 08 00
        E 8 b0 08 00
        E 8 b0 08 00
        E 8 b0 08 00
        E 8 b0 08 00
        E 8 b0 08 00
        E 8 b0 08 00
        E 8 b0 08 00
        E 8 b0 08 01
        E 8 b0 08 02
        E 8 b0 08 02
        E 8 b0 08 03
        E 8 b0 08 04
        E 8 b0 08 04
        E 8 b0 08 06
        E 8 b0 08 07
        E 8 b0 08 08
        E 8 b0 08 09
        E 8 b0 08 0b
        E 8 b0 08 0c
        E 8 b0 08 0e
        E 8 b0 08 10
        E 8 b0 08 11
        E 8 b0 08 13
        E 8 b0 08 15
        E 8 b0 08 17
        E 8 b0 08 19
        E 8 b0 08 1b
        E 8 b0 08 1d
        E 8 b0 08 1f
        E 8 b0 08 21
        E 8 b0 08 23
        E 8 b0 08 25
        E 8 b0 08 27
        E 8 b0 08 2a
        E 8 b0 08 2c
        E 8 b0 08 20
        E 8 b0 08 21
        E 8 b0 08 23
        E 8 b0 08 24
        E 8 b0 08 26
        E 8 b0 08 27
        E 8 b0 08 29
        E 8 b0 08 2a
        E 8 b0 08 2c
        E 8 b0 08 2d
        E 8 b0 08 2f
        E 8 b0 08 30
        E 8 b0 08 31
        E 8 b0 08 33
        E 8 b0 08 34
        E 8 b0 08 35
        E 8 b0 08 36
        E 8 b0 08 37
        E 8 b0 08 38
        E 8 b0 08 39
        E 8 b0 08 3a
        E 8 b0 08 3b
        E 8 b0 08 3c
        E 8 b0 08 3c
        E 8 b0 08 3d
        E 8 b0 08 3d
        E 8 b0 08 3e
        E 8 b0 08 3e
        E 8 b0 08 3f
        E 8 b0 08 3f
        E 8 b0 08 3f
        E 8 b0 08 3f
        E 8 b0 08 3f
        E 8 b0 08 3f
        E 8 b0 08 3f
        E 8 b0 08 3f
        E 8 b0 08 3f
        E 8 b0 08 3e
        E 8 b0 08 3e
        E 8 b0 08 3d
        E 8 b0 08 3d
        E 8 b0 08 3c
        E 8 b0 08 3b
        E 8 b0 08 3a
        E 8 b0 08 3a
        E 8 b0 08 39
        E 8 b0 08 38
        E 8 b0 08 37
        E 8 b0 08 36
        E 8 b0 08 34
        E 8 b0 08 33
        E 8 b0 08 32
        E 8 b0 08 31
        E 8 b0 08 2f
        E 8 b0 08 2e
        E 8 b0 08 2c
        E 8 b0 08 2b
        E 8 b0 08 2a
        E 8 b0 08 28
        E 8 b0 08 27
        E 8 b0 08 25
        E 8 b0 08 23
        E 8 b0 08 22
        E 8 b0 08 20
        E 8 b0 08 1f
        E 8 b0 08 1d
        E 8 b0 08 1c
        E 8 b0 08 1a
        E 8 b0 08 18
        E 8 b0 08 17
        E 8 b0 08 15
        E 8 b0 08 14
        E 8 b0 08 13
        E 8 b0 08 11
        E 8 b0 08 10
        E 8 b0 08 0e
        E 8 b0 08 0d
        E 8 b0 08 0c
        E 8 b0 08 0b
        E 8 b0 08 09
        E 8 b0 08 08
        E 8 b0 08 07
        E 8 b0 08 06
        E 8 b0 08 05
        E 8 b0 08 05
        E 8 b0 08 04
        E 8 b0 08 03
        E 8 b0 08 02
        E 8 b0 08 02
        E 8 b0 08 01
        E 8 b0 08 01
        E 8 b0 08 00
        E 8 b0 08 00
        E 8 b0 08 00
        E 8 b0 08 00
        E 8 b0 08 00
        E 8 b0 08 00
        E 8 b0 08 00
        E 8 b0 08 00
        E 8 b0 08 00
        E 8 b0 08 01
        E 8 b0 08 01
        E 8 b0 08 02
        E 8 b0 08 02
        E 8 b0 08 03
        E 8 b0 08 03
        E 8 b0 08 04
        E 8 b0 08 05
        E 8 b0 08 06
        E 8 b0 08 07
        E 8 b0 08 08
        E 8 b0 08 09
        E 8 b0 08 0a
        E 8 b0 08 0b
        E 8 b0 08 0c
        E 8 b0 08 0e
        E 8 b0 08 0f
        E 8 b0 08 10
        E 8 b0 08 12
        E 8 b0 08 13
        E 8 b0 08 15
        E 8 b0 08 16
        E 8 b0 08 18
        E 8 b0 08 19
        E 8 b0 08 1b
        E 8 b0 08 1c
        E 8 b0 08 1e
        E 8 b0 08 20
        E 11 b0 08 20
        E 11 b0 08 21
        E 11 b0 08 23
        E 11 b0 08 24
        E 11 b0 08 26
        E 11 b0 08 27
        E 11 b0 08 29
        E 11 b0 08 2a
        E 11 b0 08 2c
        E 11 b0 08 2d
        E 11 b0 08 2f
        E 11 b0 08 30
        E 11 b0 08 31
        E 11 b0 08 33
        E 11 b0 08 34
        E 11 b0 08 35
        E 11 b0 08 36
        E 11 b0 08 37
        E 11 b0 08 38
        E 11 b0 08 39
        E 11 b0 08 3a
        E 11 b0 08 3b
        E 11 b0 08 3c
        E 11 b0 08 3c
        E 11 b0 08 3d
        E 11 b0 08 3d
        E 11 b0 08 3e
        E 11 b0 08 3e
        E 11 b0 08 3f
        E 11 b0 08 3f
        E 11 b0 08 3f
        E 11 b0 08 3f
        E 11 b0 08 3f
        E 11 b0 08 3f
        E 11 b0 08 3f
        E 11 b0 08 3f
        E 11 b0 08 3f
        E 11 b0 08 3e
        E 11 b0 08 3e
        E 11 b0 08 3d
        E 11 b0 08 3d
        E 11 b0 08 3c
        E 11 b0 08 3b
        E 11 b0 08 3a
        E 11 b0 08 3a
        E 11 b0 08 39
        E 11 b0 08 38
        E 11 b0 08 37
        E 11 b0 08 36
        E 11 b0 08 34
        E 11 b0 08 33
        E 11 b0 08 32
        E 11 b0 08 31
        E 11 b0 08 2f
        E 11 b0 08 2e
        E 11 b0 08 2c
        E 11 b0 08 2b
        E 11 b0 08 2a
        E 11 b0 08 28
        E 11 b0 08 27
        E 11 b0 08 25
        E 11 b0 08 23
        E 11 b0 08 22
        E 11 b0 08 20
        E 11 b0 08 1f
        E 11 b0 08 1d
        E 11 b0 08 1c
        E 11 b0 08 1a
        E 11 b0 08 18
        E 11 b0 08 17
        E 11 b0 08 15
        E 11 b0 08 14
        E 11 b0 08 13
        E 11 b0 08 11
        E 11 b0 08 10
        E 11 b0 08 0e
        E 11 b0 08 0d
        E 11 b0 08 0c
        E 11 b0 08 0b
        E 11 b0 08 09
        E 11 b0 08 08
        E 11 b0 08 07
        E 11 b0 08 06
        E 11 b0 08 05
        E 11 b0 08 05
        E 11 b0 08 04
        E 11 b0 08 03
        E 11 b0 08 02
        E 11 b0 08 02
        E 11 b0 08 01
        E 11 b0 08 01
        E 11 b0 08 00
        E 11 b0 08 00
        E 11 b0 08 00
        E 11 b0 08 00
        E 11 b0 08 00
        E 11 b0 08 00
        E 11 b0 08 00
        E 11 b0 08 00
        E 11 b0 08 00
        E 11 b0 08 01
        E 11 b0 08 01
        E 11 b0 08 02
        E 11 b0 08 02
        E 11 b0 08 03
        E 11 b0 08 03
        E 11 b0 08 04
        E 11 b0 08 05
        E 11 b0 08 06
        E 11 b0 08 07
        E 11 b0 08 08
        E 11 b0 08 09
        E 11 b0 08 0a
        E 11 b0 08 0b
        E 11 b0 08 0c
        E 11 b0 08 0e
        E 11 b0 08 0f
        E 11 b0 08 10
        E 11 b0 08 12
        E 11 b0 08 13
        E 11 b0 08 15
        E 11 b0 08 16
        E 11 b0 08 18
        E 11 b0 08 19
        E 11 b0 08 1b
        E 11 b0 08 1c
        E 11 b0 08 1e
        E 11 b0 08 20
        E 13 b0 08 40
        E 13 b0 08 43
        E 13 b0 08 46
        E 13 b0 08 49
        E 13 b0 08 4c
        E 13 b0 08 4f
        E 13 b0 08 52
        E 13 b0 08 55
        E 13 b0 08 58
        E 13 b0 08 5b
        E 13 b0 08 5e
        E 13 b0 08 60
        E 13 b0 08 63
        E 13 b0 08 66
        E 13 b0 08 68
        E 13 b0 08 6a
        E 13 b0 08 6d
        E 13 b0 08 6f
        E 13 b0 08 71
        E 13 b0 08 73
        E 13 b0 08 75
        E 13 b0 08 76
        E 13 b0 08 78
        E 13 b0 08 79
        E 13 b0 08 7a
        E 13 b0 08 7b
        E 13 b0 08 7c
        E 13 b0 08 7d
        E 13 b0 08 7e
        E 13 b0 08 7e
        E 13 b0 08 7f
        E 13 b0 08 7f
        E 13 b0 08 7f
        E 13 b0 08 7f
        E 13 b0 08 7f
        E 13 b0 08 7e
        E 13 b0 08 7e
        E 13 b0 08 7d
        E 13 b0 08 7c
        E 13 b0 08 7b
        E 13 b0 08 7a
        E 13 b0 08 78
        E 13 b0 08 77
        E 13 b0 08 75
        E 13 b0 08 74
        E 13 b0 08 72
        E 13 b0 08 70
        E 13 b0 08 6e
        E 13 b0 08 6c
        E 13 b0 08 69
        E 13 b0 08 67
        E 13 b0 08 64
        E 13 b0 08 62
        E 13 b0 08 5f
        E 13 b0 08 5c
        E 13 b0 08 59
        E 13 b0 08 57
        E 13 b0 08 54
        E 13 b0 08 51
        E 13 b0 08 4e
        E 13 b0 08 4a
        E 13 b0 08 47
        E 13 b0 08 44
        E 13 b0 08 41
        E 13 b0 08 3e
        E 13 b0 08 3b
        E 13 b0 08 38
        E 13 b0 08 35
        E 13 b0 08 31
        E 13 b0 08 2e
        E 13 b0 08 2b
        E 13 b0 08 28
        E 13 b0 08 26
        E 13 b0 08 23
        E 13 b0 08 20
        E 13 b0 08 1d
        E 13 b0 08 1b
        E 13 b0 08 18
        E 13 b0 08 16
        E 13 b0 08 13
        E 13 b0 08 11
        E 13 b0 08 0f
        E 13 b0 08 0d
        E 13 b0 08 0b
        E 13 b0 08 0a
        E 13 b0 08 08
        E 13 b0 08 07
        E 13 b0 08 05
        E 13 b0 08 04
        E 13 b0 08 03
        E 13 b0 08 02
        E 13 b0 08 01
        E 13 b0 08 01
        E 13 b0 08 00
        E 13 b0 08 00
        E 13 b0 08 00
        E 13 b0 08 00
        E 13 b0 08 00
        E 13 b0 08 01
        E 13 b0 08 01
        E 13 b0 08 02
        E 13 b0 08 03
        E 13 b0 08 04
        E 13 b0 08 05
        E 13 b0 08 06
        E 13 b0 08 07
        E 13 b0 08 09
        E 13 b0 08 0a
        E 13 b0 08 0c
        E 13 b0 08 0e
        E 13 b0 08 10
        E 13 b0 08 12
        E 13 b0 08 15
        E 13 b0 08 17
        E 13 b0 08 19
        E 13 b0 08 1c
        E 13 b0 08 1f
        E 13 b0 08 21
        E 13 b0 08 24
        E 13 b0 08 27
        E 13 b0 08 2a
        E 13 b0 08 2d
        E 13 b0 08 30
        E 13 b0 08 33
        E 13 b0 08 36
        E 13 b0 08 39
        E 13 b0 08 3c
        E 13 b0 08 40
        E 1 b0 08 39
        E 1 b0 08 3c
        E 1 b0 08 3f
        E 1 b0 08 41
        E 1 b0 08 44
        E 1 b0 08 47
        E 1 b0 08 49
        E 1 b0 08 4c
        E 1 b0 08 4f
        E 1 b0 08 51
        E 1 b0 08 54
        E 1 b0 08 56
        E 1 b0 08 59
        E 1 b0 08 5b
        E 1 b0 08 5d
        E 1 b0 08 5f
        E 1 b0 08 62
        E 1 b0 08 63
        E 1 b0 08 65
        E 1 b0 08 67
        E 1 b0 08 69
        E 1 b0 08 6a
        E 1 b0 08 6c
        E 1 b0 08 6c
        E 1 b0 08 6d
        E 1 b0 08 6e
        E 1 b0 08 6f
        E 1 b0 08 70
        E 1 b0 08 71
        E 1 b0 08 71
        E 1 b0 08 72
        E 1 b0 08 72
        E 1 b0 08 72
        E 1 b0 08 72
        E 1 b0 08 72
        E 1 b0 08 71
        E 1 b0 08 71
        E 1 b0 08 70
        E 1 b0 08 6f
        E 1 b0 08 6e
        E 1 b0 08 6d
        E 1 b0 08 6c
        E 1 b0 08 6b
        E 1 b0 08 69
        E 1 b0 08 68
        E 1 b0 08 66
        E 1 b0 08 64
        E 1 b0 08 63
        E 1 b0 08 61
        E 1 b0 08 5e
        E 1 b0 08 5c
        E 1 b0 08 5a
        E 1 b0 08 58
        E 1 b0 08 55
        E 1 b0 08 52
        E 1 b0 08 50
        E 1 b0 08 4e
        E 1 b0 08 4b
        E 1 b0 08 48
        E 1 b0 08 46
        E 1 b0 08 42
        E 1 b0 08 3f
        E 1 b0 08 3d
        E 1 b0 08 3a
        E 1 b0 08 37
        E 1 b0 08 35
        E 1 b0 08 32
        E 1 b0 08 2f
        E 1 b0 08 2c
        E 1 b0 08 29
        E 1 b0 08 26
        E 1 b0 08 24
        E 1 b0 08 22
        E 1 b0 08 1f
        E 1 b0 08 1c
        E 1 b0 08 1a
        E 1 b0 08 18
        E 1 b0 08 15
        E 1 b0 08 13
        E 1 b0 08 11
        E 1 b0 08 0f
        E 1 b0 08 0d
        E 1 b0 08 0b
        E 1 b0 08 09
        E 1 b0 08 09
        E 1 b0 08 07
        E 1 b0 08 06
        E 1 b0 08 04
        E 1 b0 08 03
        E 1 b0 08 02
        E 1 b0 08 01
        E 1 b0 08 00
        E 1 b0 08 00
        E 1 b0 08 00
        E 1 b0 08 00
        E 1 b0 08 00
        E 1 b0 08 00
        E 1 b0 08 00
        E 1 b0 08 00
        E 1 b0 08 00
        E 1 b0 08 01
        E 1 b0 08 02
        E 1 b0 08 03
        E 1 b0 08 04
        E 1 b0 08 05
        E 1 b0 08 06
        E 1 b0 08 08
        E 1 b0 08 09
        E 1 b0 08 0a
        E 1 b0 08 0c
        E 1 b0 08 0e
        E 1 b0 08 10
        E 1 b0 08 12
        E 1 b0 08 14
        E 1 b0 08 16
        E 1 b0 08 19
        E 1 b0 08 1b
        E 1 b0 08 1d
        E 1 b0 08 20
        E 1 b0 08 23
        E 1 b0 08 25
        E 1 b0 08 28
        E 1 b0 08 2b
        E 1 b0 08 2d
        E 1 b0 08 30
        E 1 b0 08 33
        E 1 b0 08 36
        E 1 b0 08 39
        E 6 b0 08 40
        E 6 b0 08 43
        E 6 b0 08 46
        E 6 b0 08 49
        E 6 b0 08 4c
        E 6 b0 08 4f
        E 6 b0 08 52
        E 6 b0 08 55
        E 6 b0 08 58
        E 6 b0 08 5b
        E 6 b0 08 5e
        E 6 b0 08 60
        E 6 b0 08 63
        E 6 b0 08 66
        E 6 b0 08 68
        E 6 b0 08 6a
        E 6 b0 08 6d
        E 6 b0 08 6f
        E 6 b0 08 71
        E 6 b0 08 73
        E 6 b0 08 75
        E 6 b0 08 76
        E 6 b0 08 78
        E 6 b0 08 79
        E 6 b0 08 7a
        E 6 b0 08 7b
        E 6 b0 08 7c
        E 6 b0 08 7d
        E 6 b0 08 7e
        E 6 b0 08 7e
        E 6 b0 08 7f
        E 6 b0 08 7f
        E 6 b0 08 7f
        E 6 b0 08 7f
        E 6 b0 08 7f
        E 6 b0 08 7e
        E 6 b0 08 7e
        E 6 b0 08 7d
        E 6 b0 08 7c
        E 6 b0 08 7b
        E 6 b0 08 7a
        E 6 b0 08 78
        E 6 b0 08 77
        E 6 b0 08 75
        E 6 b0 08 74
        E 6 b0 08 72
        E 6 b0 08 70
        E 6 b0 08 6e
        E 6 b0 08 6c
        E 6 b0 08 69
        E 6 b0 08 67
        E 6 b0 08 64
        E 6 b0 08 62
        E 6 b0 08 5f
        E 6 b0 08 5c
        E 6 b0 08 59
        E 6 b0 08 57
        E 6 b0 08 54
        E 6 b0 08 51
        E 6 b0 08 4e
        E 6 b0 08 4a
        E 6 b0 08 47
        E 6 b0 08 44
        E 6 b0 08 41
        E 6 b0 08 3e
        E 6 b0 08 3b
        E 6 b0 08 38
        E 6 b0 08 35
        E 6 b0 08 31
        E 6 b0 08 2e
        E 6 b0 08 2b
        E 6 b0 08 28
        E 6 b0 08 26
        E 6 b0 08 23
        E 6 b0 08 20
        E 6 b0 08 1d
        E 6 b0 08 1b
        E 6 b0 08 18
        E 6 b0 08 16
        E 6 b0 08 13
        E 6 b0 08 11
        E 6 b0 08 0f
        E 6 b0 08 0d
        E 6 b0 08 0b
        E 6 b0 08 0a
        E 6 b0 08 08
        E 6 b0 08 07
        E 6 b0 08 05
        E 6 b0 08 04
        E 6 b0 08 03
        E 6 b0 08 02
        E 6 b0 08 01
        E 6 b0 08 01
        E 6 b0 08 00
        E 6 b0 08 00
        E 6 b0 08 00
        E 6 b0 08 00
        E 6 b0 08 00
        E 6 b0 08 01
        E 6 b0 08 01
        E 6 b0 08 02
        E 6 b0 08 03
        E 6 b0 08 04
        E 6 b0 08 05
        E 6 b0 08 06
        E 6 b0 08 07
        E 6 b0 08 09
        E 6 b0 08 0a
        E 6 b0 08 0c
        E 6 b0 08 0e
        E 6 b0 08 10
        E 6 b0 08 12
        E 6 b0 08 15
        E 6 b0 08 17
        E 6 b0 08 19
        E 6 b0 08 1c
        E 6 b0 08 1f
        E 6 b0 08 21
        E 6 b0 08 24
        E 6 b0 08 27
        E 6 b0 08 2a
        E 6 b0 08 2d
        E 6 b0 08 30
        E 6 b0 08 33
        E 6 b0 08 36
        E 6 b0 08 39
        E 6 b0 08 3c
        E 6 b0 08 40
        E 11 b0 08 39
        E 11 b0 08 3c
        E 11 b0 08 3f
        E 11 b0 08 41
        E 11 b0 08 44
        E 11 b0 08 47
        E 11 b0 08 49
        E 11 b0 08 4c
        E 11 b0 08 4f
        E 11 b0 08 51
        E 11 b0 08 54
        E 11 b0 08 56
        E 11 b0 08 59
        E 11 b0 08 5b
        E 11 b0 08 5d
        E 11 b0 08 5f
        E 11 b0 08 62
        E 11 b0 08 63
        E 11 b0 08 65
        E 11 b0 08 67
        E 11 b0 08 69
        E 11 b0 08 6a
        E 11 b0 08 6c
        E 11 b0 08 6c
        E 11 b0 08 6d
        E 11 b0 08 6e
        E 11 b0 08 6f
        E 11 b0 08 70
        E 11 b0 08 71
        E 11 b0 08 71
        E 11 b0 08 72
        E 11 b0 08 72
        E 11 b0 08 72
        E 11 b0 08 72
        E 11 b0 08 72
        E 11 b0 08 71
        E 11 b0 08 71
        E 11 b0 08 70
        E 11 b0 08 6f
        E 11 b0 08 6e
        E 11 b0 08 6d
        E 11 b0 08 6c
        E 11 b0 08 6b
        E 11 b0 08 69
        E 11 b0 08 68
        E 11 b0 08 66
        E 11 b0 08 64
        E 11 b0 08 63
        E 11 b0 08 61
        E 11 b0 08 5e
        E 11 b0 08 5c
        E 11 b0 08 5a
        E 11 b0 08 58
        E 11 b0 08 55
        E 11 b0 08 52
        E 11 b0 08 50
        E 11 b0 08 4e
        E 11 b0 08 4b
        E 11 b0 08 48
        E 11 b0 08 46
        E 11 b0 08 42
        E 11 b0 08 3f
        E 11 b0 08 3d
        E 11 b0 08 3a
        E 11 b0 08 37
        E 11 b0 08 35
        E 11 b0 08 32
        E 11 b0 08 2f
        E 11 b0 08 2c
        E 11 b0 08 29
        E 11 b0 08 26
        E 11 b0 08 24
        E 11 b0 08 22
        E 11 b0 08 1f
        E 11 b0 08 1c
        E 11 b0 08 1a
        E 11 b0 08 18
        E 11 b0 08 15
        E 11 b0 08 13
        E 11 b0 08 11
        E 11 b0 08 0f
        E 11 b0 08 0d
        E 11 b0 08 0b
        E 11 b0 08 09
        E 11 b0 08 09
        E 11 b0 08 07
        E 11 b0 08 06
        E 11 b0 08 04
        E 11 b0 08 03
        E 11 b0 08 02
        E 11 b0 08 01
        E 11 b0 08 00
        E 11 b0 08 00
        E 11 b0 08 00
        E 11 b0 08 00
        E 11 b0 08 00
        E 11 b0 08 00
        E 11 b0 08 00
        E 11 b0 08 00
        E 11 b0 08 00
        E 11 b0 08 01
        E 11 b0 08 02
        E 11 b0 08 03
        E 11 b0 08 04
        E 11 b0 08 05
        E 11 b0 08 06
        E 11 b0 08 08
        E 11 b0 08 09
        E 11 b0 08 0a
        E 11 b0 08 0c
        E 11 b0 08 0e
        E 11 b0 08 10
        E 11 b0 08 12
        E 11 b0 08 14
        E 11 b0 08 16
        E 11 b0 08 19
        E 11 b0 08 1b
        E 11 b0 08 1d
        E 11 b0 08 20
        E 11 b0 08 23
        E 11 b0 08 25
        E 11 b0 08 28
        E 11 b0 08 2b
        E 11 b0 08 2d
        E 11 b0 08 30
        E 11 b0 08 33
        E 11 b0 08 36
        E 11 b0 08 39
        E 8 b0 08 20
        E 8 b0 08 21
        E 8 b0 08 23
        E 8 b0 08 24
        E 8 b0 08 26
        E 8 b0 08 27
        E 8 b0 08 29
        E 8 b0 08 2a
        E 8 b0 08 2c
        E 8 b0 08 2d
        E 8 b0 08 2f
        E 8 b0 08 30
        E 8 b0 08 31
        E 8 b0 08 33
        E 8 b0 08 34
        E 8 b0 08 35
        E 8 b0 08 36
        E 8 b0 08 37
        E 8 b0 08 38
        E 8 b0 08 39
        E 8 b0 08 3a
        E 8 b0 08 3b
        E 8 b0 08 3c
        E 8 b0 08 3c
        E 8 b0 08 3d
        E 8 b0 08 3d
        E 8 b0 08 3e
        E 8 b0 08 3e
        E 8 b0 08 3f
        E 8 b0 08 3f
        E 8 b0 08 3f
        E 8 b0 08 3f
        E 8 b0 08 3f
        E 8 b0 08 3f
        E 8 b0 08 3f
        E 8 b0 08 3f
        E 8 b0 08 3f
        E 8 b0 08 3e
        E 8 b0 08 3e
        E 8 b0 08 3d
        E 8 b0 08 3d
        E 8 b0 08 3c
        E 8 b0 08 3b
        E 8 b0 08 3a
        E 8 b0 08 3a
        E 8 b0 08 39
        E 8 b0 08 38
        E 8 b0 08 37
        E 8 b0 08 36
        E 8 b0 08 34
        E 8 b0 08 33
        E 8 b0 08 32
        E 8 b0 08 31
        E 8 b0 08 2f
        E 8 b0 08 2e
        E 8 b0 08 2c
        E 8 b0 08 2b
        E 8 b0 08 2a
        E 8 b0 08 28
        E 8 b0 08 27
        E 8 b0 08 25
        E 8 b0 08 23
        E 8 b0 08 22
        E 8 b0 08 20
        E 8 b0 08 1f
        E 8 b0 08 1d
        E 8 b0 08 1c
        E 8 b0 08 1a
        E 8 b0 08 18
        E 8 b0 08 17
        E 8 b0 08 15
        E 8 b0 08 14
        E 8 b0 08 13
        E 8 b0 08 11
        E 8 b0 08 10
        E 8 b0 08 0e
        E 8 b0 08 0d
        E 8 b0 08 0c
        E 8 b0 08 0b
        E 8 b0 08 09
        E 8 b0 08 08
        E 8 b0 08 07
        E 8 b0 08 06
        E 8 b0 08 05
        E 8 b0 08 05
        E 8 b0 08 04
        E 8 b0 08 03
        E 8 b0 08 02
        E 8 b0 08 02
        E 8 b0 08 01
        E 8 b0 08 01
        E 8 b0 08 00
        E 8 b0 08 00
        E 8 b0 08 00
        E 8 b0 08 00
        E 8 b0 08 00
        E 8 b0 08 00
        E 8 b0 08 00
        E 8 b0 08 00
        E 8 b0 08 00
        E 8 b0 08 01
        E 8 b0 08 01
        E 8 b0 08 02
        E 8 b0 08 02
        E 8 b0 08 03
        E 8 b0 08 03
        E 8 b0 08 04
        E 8 b0 08 05
        E 8 b0 08 06
        E 8 b0 08 07
        E 8 b0 08 08
        E 8 b0 08 09
        E 8 b0 08 0a
        E 8 b0 08 0b
        E 8 b0 08 0c
        E 8 b0 08 0e
        E 8 b0 08 0f
        E 8 b0 08 10
        E 8 b0 08 12
        E 8 b0 08 13
        E 8 b0 08 15
        E 8 b0 08 16
        E 8 b0 08 18
        E 8 b0 08 19
        E 8 b0 08 1b
        E 8 b0 08 1c
        E 8 b0 08 1e
        E 8 b0 08 20
        E 8 b0 08 20
        E 8 b0 08 21
        E 8 b0 08 23
        E 8 b0 08 24
        E 8 b0 08 26
        E 8 b0 08 27
        E 8 b0 08 29
        E 8 b0 08 2a
        E 8 b0 08 2c
        E 8 b0 08 2d
        E 8 b0 08 2f
        E 8 b0 08 30
        E 8 b0 08 31
        E 8 b0 08 33
        E 8 b0 08 34
        E 8 b0 08 35
        E 8 b0 08 36
        E 8 b0 08 37
        E 8 b0 08 38
        E 8 b0 08 39
        E 8 b0 08 3a
        E 8 b0 08 3b
        E 8 b0 08 3c
        E 8 b0 08 3c
        E 8 b0 08 3d
        E 8 b0 08 3d
        E 8 b0 08 3e
        E 8 b0 08 3e
        E 8 b0 08 3f
        E 8 b0 08 3f
        E 8 b0 08 3f
        E 8 b0 08 3f
        E 8 b0 08 3f
        E 8 b0 08 3f
        E 8 b0 08 3f
        E 8 b0 08 3f
        E 8 b0 08 3f
        E 8 b0 08 3e
        E 8 b0 08 3e
        E 8 b0 08 3d
        E 8 b0 08 3d
        E 8 b0 08 3c
        E 8 b0 08 3b
        E 8 b0 08 3a
        E 8 b0 08 3a
        E 8 b0 08 39
        E 8 b0 08 38
        E 8 b0 08 37
        E 8 b0 08 36
        E 8 b0 08 34
        E 8 b0 08 33
        E 8 b0 08 32
        E 8 b0 08 31
        E 8 b0 08 2f
        E 8 b0 08 2e
        E 8 b0 08 2c
        E 8 b0 08 2b
        E 8 b0 08 2a
        E 8 b0 08 28
        E 8 b0 08 27
        E 8 b0 08 25
        E 8 b0 08 23
        E 8 b0 08 22
        E 8 b0 08 20
        E 8 b0 08 1f
        E 8 b0 08 1d
        E 8 b0 08 1c
        E 8 b0 08 1a
        E 8 b0 08 18
        E 8 b0 08 17
        E 8 b0 08 15
        E 8 b0 08 14
        E 8 b0 08 13
        E 8 b0 08 11
        E 8 b0 08 10
        E 8 b0 08 0e
        E 8 b0 08 0d
        E 8 b0 08 0c
        E 8 b0 08 0b
        E 8 b0 08 09
        E 8 b0 08 08
        E 8 b0 08 07
        E 8 b0 08 06
        E 8 b0 08 05
        E 8 b0 08 05
        E 8 b0 08 04
        E 8 b0 08 03
        E 8 b0 08 02
        E 8 b0 08 02
        E 8 b0 08 01
        E 8 b0 08 01
        E 8 b0 08 00
        E 8 b0 08 00
        E 8 b0 08 00
        E 8 b0 08 00
        E 8 b0 08 00
        E 8 b0 08 00
        E 8 b0 08 00
        E 8 b0 08 00
        E 8 b0 08 00
        E 8 b0 08 01
        E 8 b0 08 01
        E 8 b0 08 02
        E 8 b0 08 02
        E 8 b0 08 03
        E 8 b0 08 03
        E 8 b0 08 04
        E 8 b0 08 05
        E 8 b0 08 06
        E 8 b0 08 07
        E 8 b0 08 08
        E 8 b0 08 09
        E 8 b0 08 0a
        E 8 b0 08 0b
        E 8 b0 08 0c
        E 8 b0 08 0e
        E 8 b0 08 0f
        E 8 b0 08 10
        E 8 b0 08 12
        E 8 b0 08 13
        E 8 b0 08 15
        E 8 b0 08 16
        E 8 b0 08 18
        E 8 b0 08 19
        E 8 b0 08 1b
        E 8 b0 08 1c
        E 8 b0 08 1e
        E 8 b0 08 20
        E 17 b0 08 2c
        E 17 b0 08 2e
        E 17 b0 08 31
        E 17 b0 08 33
        E 17 b0 08 35
        E 17 b0 08 37
        E 17 b0 08 39
        E 17 b0 08 3b
        E 17 b0 08 3d
        E 17 b0 08 3f
        E 17 b0 08 41
        E 17 b0 08 43
        E 17 b0 08 45
        E 17 b0 08 47
        E 17 b0 08 48
        E 17 b0 08 4a
        E 17 b0 08 4c
        E 17 b0 08 4d
        E 17 b0 08 4f
        E 17 b0 08 50
        E 17 b0 08 51
        E 17 b0 08 52
        E 17 b0 08 54
        E 17 b0 08 54
        E 17 b0 08 55
        E 17 b0 08 56
        E 17 b0 08 56
        E 17 b0 08 57
        E 17 b0 08 58
        E 17 b0 08 58
        E 17 b0 08 58
        E 17 b0 08 58
        E 17 b0 08 58
        E 17 b0 08 58
        E 17 b0 08 58
        E 17 b0 08 58
        E 17 b0 08 58
        E 17 b0 08 57
        E 17 b0 08 56
        E 17 b0 08 56
        E 17 b0 08 55
        E 17 b0 08 54
        E 17 b0 08 53
        E 17 b0 08 51
        E 17 b0 08 51
        E 17 b0 08 4f
        E 17 b0 08 4e
        E 17 b0 08 4d
        E 17 b0 08 4b
        E 17 b0 08 49
        E 17 b0 08 48
        E 17 b0 08 46
        E 17 b0 08 44
        E 17 b0 08 42
        E 17 b0 08 40
        E 17 b0 08 3e
        E 17 b0 08 3c
        E 17 b0 08 3a
        E 17 b0 08 38
        E 17 b0 08 36
        E 17 b0 08 33
        E 17 b0 08 31
        E 17 b0 08 2f
        E 17 b0 08 2d
        E 17 b0 08 2b
        E 17 b0 08 29
        E 17 b0 08 27
        E 17 b0 08 25
        E 17 b0 08 22
        E 17 b0 08 20
        E 17 b0 08 1e
        E 17 b0 08 1c
        E 17 b0 08 1a
        E 17 b0 08 18
        E 17 b0 08 16
        E 17 b0 08 14
        E 17 b0 08 12
        E 17 b0 08 10
        E 17 b0 08 0f
        E 17 b0 08 0d
        E 17 b0 08 0b
        E 17 b0 08 0a
        E 17 b0 08 09
        E 17 b0 08 07
        E 17 b0 08 07
        E 17 b0 08 05
        E 17 b0 08 04
        E 17 b0 08 03
        E 17 b0 08 02
        E 17 b0 08 02
        E 17 b0 08 01
        E 17 b0 08 00
        E 17 b0 08 00
        E 17 b0 08 00
        E 17 b0 08 00
        E 17 b0 08 00
        E 17 b0 08 00
        E 17 b0 08 00
        E 17 b0 08 00
        E 17 b0 08 00
        E 17 b0 08 01
        E 17 b0 08 02
        E 17 b0 08 02
        E 17 b0 08 03
        E 17 b0 08 04
        E 17 b0 08 04
        E 17 b0 08 06
        E 17 b0 08 07
        E 17 b0 08 08
        E 17 b0 08 09
        E 17 b0 08 0b
        E 17 b0 08 0c
        E 17 b0 08 0e
        E 17 b0 08 10
        E 17 b0 08 11
        E 17 b0 08 13
        E 17 b0 08 15
        E 17 b0 08 17
        E 17 b0 08 19
        E 17 b0 08 1b
        E 17 b0 08 1d
        E 17 b0 08 1f
        E 17 b0 08 21
        E 17 b0 08 23
        E 17 b0 08 25
        E 17 b0 08 27
        E 17 b0 08 2a
        E 17 b0 08 2c
        E 15 b0 08 33
        E 15 b0 08 35
        E 15 b0 08 37
        E 15 b0 08 3a
        E 15 b0 08 3c
        E 15 b0 08 3f
        E 15 b0 08 41
        E 15 b0 08 44
        E 15 b0 08 46
        E 15 b0 08 48
        E 15 b0 08 4b
        E 15 b0 08 4c
        E 15 b0 08 4f
        E 15 b0 08 51
        E 15 b0 08 53
        E 15 b0 08 54
        E 15 b0 08 57
        E 15 b0 08 58
        E 15 b0 08 5a
        E 15 b0 08 5b
        E 15 b0 08 5d
        E 15 b0 08 5e
        E 15 b0 08 5f
        E 15 b0 08 60
        E 15 b0 08 61
        E 15 b0 08 62
        E 15 b0 08 63
        E 15 b0 08 63
        E 15 b0 08 64
        E 15 b0 08 64
        E 15 b0 08 65
        E 15 b0 08 65
        E 15 b0 08 65
        E 15 b0 08 65
        E 15 b0 08 65
        E 15 b0 08 64
        E 15 b0 08 64
        E 15 b0 08 63
        E 15 b0 08 63
        E 15 b0 08 62
        E 15 b0 08 61
        E 15 b0 08 5f
        E 15 b0 08 5f
        E 15 b0 08 5d
        E 15 b0 08 5c
        E 15 b0 08 5b
        E 15 b0 08 59
        E 15 b0 08 57
        E 15 b0 08 56
        E 15 b0 08 54
        E 15 b0 08 52
        E 15 b0 08 50
        E 15 b0 08 4e
        E 15 b0 08 4c
        E 15 b0 08 49
        E 15 b0 08 47
        E 15 b0 08 45
        E 15 b0 08 43
        E 15 b0 08 40
        E 15 b0 08 3e
        E 15 b0 08 3b
        E 15 b0 08 38
        E 15 b0 08 36
        E 15 b0 08 33
        E 15 b0 08 31
        E 15 b0 08 2f
        E 15 b0 08 2c
        E 15 b0 08 2a
        E 15 b0 08 27
        E 15 b0 08 24
        E 15 b0 08 22
        E 15 b0 08 1f
        E 15 b0 08 1e
        E 15 b0 08 1b
        E 15 b0 08 19
        E 15 b0 08 17
        E 15 b0 08 15
        E 15 b0 08 13
        E 15 b0 08 11
        E 15 b0 08 0f
        E 15 b0 08 0d
        E 15 b0 08 0b
        E 15 b0 08 0a
        E 15 b0 08 08
        E 15 b0 08 07
        E 15 b0 08 06
        E 15 b0 08 05
        E 15 b0 08 03
        E 15 b0 08 03
        E 15 b0 08 02
        E 15 b0 08 01
        E 15 b0 08 00
        E 15 b0 08 00
        E 15 b0 08 00
        E 15 b0 08 00
        E 15 b0 08 00
        E 15 b0 08 00
        E 15 b0 08 00
        E 15 b0 08 00
        E 15 b0 08 00
        E 15 b0 08 01
        E 15 b0 08 02
        E 15 b0 08 03
        E 15 b0 08 03
        E 15 b0 08 04
        E 15 b0 08 05
        E 15 b0 08 07
        E 15 b0 08 07
        E 15 b0 08 09
        E 15 b0 08 0b
        E 15 b0 08 0c
        E 15 b0 08 0e
        E 15 b0 08 10
        E 15 b0 08 12
        E 15 b0 08 14
        E 15 b0 08 16
        E 15 b0 08 18
        E 15 b0 08 1a
        E 15 b0 08 1c
        E 15 b0 08 1f
        E 15 b0 08 21
        E 15 b0 08 24
        E 15 b0 08 26
        E 15 b0 08 28
        E 15 b0 08 2b
        E 15 b0 08 2d
        E 15 b0 08 2f
        E 15 b0 08 33
        E 17 b0 08 06
        E 17 b0 08 06
        E 17 b0 08 07
        E 17 b0 08 07
        E 17 b0 08 07
        E 17 b0 08 07
        E 17 b0 08 08
        E 17 b0 08 08
        E 17 b0 08 08
        E 17 b0 08 09
        E 17 b0 08 09
        E 17 b0 08 09
        E 17 b0 08 09
        E 17 b0 08 0a
        E 17 b0 08 0a
        E 17 b0 08 0a
        E 17 b0 08 0a
        E 17 b0 08 0b
        E 17 b0 08 0b
        E 17 b0 08 0b
        E 17 b0 08 0b
        E 17 b0 08 0b
        E 17 b0 08 0c
        E 17 b0 08 0c
        E 17 b0 08 0c
        E 17 b0 08 0c
        E 17 b0 08 0c
        E 17 b0 08 0c
        E 17 b0 08 0c
        E 17 b0 08 0c
        E 17 b0 08 0c
        E 17 b0 08 0c
        E 17 b0 08 0c
        E 17 b0 08 0c
        E 17 b0 08 0c
        E 17 b0 08 0c
        E 17 b0 08 0c
        E 17 b0 08 0c
        E 17 b0 08 0c
        E 17 b0 08 0c
        E 17 b0 08 0c
        E 17 b0 08 0c
        E 17 b0 08 0b
        E 17 b0 08 0b
        E 17 b0 08 0b
        E 17 b0 08 0b
        E 17 b0 08 0b
        E 17 b0 08 0b
        E 17 b0 08 0a
        E 17 b0 08 0a
        E 17 b0 08 0a
        E 17 b0 08 0a
        E 17 b0 08 09
        E 17 b0 08 09
        E 17 b0 08 09
        E 17 b0 08 08
        E 17 b0 08 08
        E 17 b0 08 08
        E 17 b0 08 08
        E 17 b0 08 07
        E 17 b0 08 07
        E 17 b0 08 07
        E 17 b0 08 06
        E 17 b0 08 06
        E 17 b0 08 06
        E 17 b0 08 05
        E 17 b0 08 05
        E 17 b0 08 05
        E 17 b0 08 04
        E 17 b0 08 04
        E 17 b0 08 04
        E 17 b0 08 04
        E 17 b0 08 03
        E 17 b0 08 03
        E 17 b0 08 03
        E 17 b0 08 02
        E 17 b0 08 02
        E 17 b0 08 02
        E 17 b0 08 02
        E 17 b0 08 01
        E 17 b0 08 01
        E 17 b0 08 01
        E 17 b0 08 01
        E 17 b0 08 01
        E 17 b0 08 01
        E 17 b0 08 00
        E 17 b0 08 00
        E 17 b0 08 00
        E 17 b0 08 00
        E 17 b0 08 00
        E 17 b0 08 00
        E 17 b0 08 00
        E 17 b0 08 00
        E 17 b0 08 00
        E 17 b0 08 00
        E 17 b0 08 00
        E 17 b0 08 00
        E 17 b0 08 00
        E 17 b0 08 00
        E 17 b0 08 00
        E 17 b0 08 00
        E 17 b0 08 00
        E 17 b0 08 00
        E 17 b0 08 00
        E 17 b0 08 00
        E 17 b0 08 00
        E 17 b0 08 00
        E 17 b0 08 01
        E 17 b0 08 01
        E 17 b0 08 01
        E 17 b0 08 01
        E 17 b0 08 01
        E 17 b0 08 02
        E 17 b0 08 02
        E 17 b0 08 02
        E 17 b0 08 02
        E 17 b0 08 03
        E 17 b0 08 03
        E 17 b0 08 03
        E 17 b0 08 03
        E 17 b0 08 04
        E 17 b0 08 04
        E 17 b0 08 04
        E 17 b0 08 05
        E 17 b0 08 05
        E 17 b0 08 05
        E 17 b0 08 06
        E 17 b0 08 06
        E 15 b0 08 19
        E 15 b0 08 1a
        E 15 b0 08 1c
        E 15 b0 08 1d
        E 15 b0 08 1e
        E 15 b0 08 1f
        E 15 b0 08 20
        E 15 b0 08 22
        E 15 b0 08 23
        E 15 b0 08 24
        E 15 b0 08 25
        E 15 b0 08 26
        E 15 b0 08 27
        E 15 b0 08 28
        E 15 b0 08 29
        E 15 b0 08 2a
        E 15 b0 08 2b
        E 15 b0 08 2c
        E 15 b0 08 2d
        E 15 b0 08 2e
        E 15 b0 08 2e
        E 15 b0 08 2f
        E 15 b0 08 30
        E 15 b0 08 30
        E 15 b0 08 30
        E 15 b0 08 31
        E 15 b0 08 31
        E 15 b0 08 32
        E 15 b0 08 32
        E 15 b0 08 32
        E 15 b0 08 32
        E 15 b0 08 32
        E 15 b0 08 32
        E 15 b0 08 32
        E 15 b0 08 32
        E 15 b0 08 32
        E 15 b0 08 32
        E 15 b0 08 32
        E 15 b0 08 31
        E 15 b0 08 31
        E 15 b0 08 30
        E 15 b0 08 30
        E 15 b0 08 2f
        E 15 b0 08 2e
        E 15 b0 08 2e
        E 15 b0 08 2d
        E 15 b0 08 2c
        E 15 b0 08 2c
        E 15 b0 08 2b
        E 15 b0 08 2a
        E 15 b0 08 29
        E 15 b0 08 28
        E 15 b0 08 27
        E 15 b0 08 26
        E 15 b0 08 24
        E 15 b0 08 23
        E 15 b0 08 22
        E 15 b0 08 21
        E 15 b0 08 20
        E 15 b0 08 1f
        E 15 b0 08 1d
        E 15 b0 08 1c
        E 15 b0 08 1b
        E 15 b0 08 1a
        E 15 b0 08 18
        E 15 b0 08 17
        E 15 b0 08 16
        E 15 b0 08 15
        E 15 b0 08 13
        E 15 b0 08 12
        E 15 b0 08 11
        E 15 b0 08 10
        E 15 b0 08 0f
        E 15 b0 08 0e
        E 15 b0 08 0c
        E 15 b0 08 0b
        E 15 b0 08 0a
        E 15 b0 08 09
        E 15 b0 08 08
        E 15 b0 08 07
        E 15 b0 08 06
        E 15 b0 08 06
        E 15 b0 08 05
        E 15 b0 08 04
        E 15 b0 08 04
        E 15 b0 08 03
        E 15 b0 08 02
        E 15 b0 08 02
        E 15 b0 08 01
        E 15 b0 08 01
        E 15 b0 08 00
        E 15 b0 08 00
        E 15 b0 08 00
        E 15 b0 08 00
        E 15 b0 08 00
        E 15 b0 08 00
        E 15 b0 08 00
        E 15 b0 08 00
        E 15 b0 08 00
        E 15 b0 08 00
        E 15 b0 08 00
        E 15 b0 08 01
        E 15 b0 08 01
        E 15 b0 08 02
        E 15 b0 08 02
        E 15 b0 08 02
        E 15 b0 08 03
        E 15 b0 08 04
        E 15 b0 08 04
        E 15 b0 08 05
        E 15 b0 08 06
        E 15 b0 08 07
        E 15 b0 08 08
        E 15 b0 08 09
        E 15 b0 08 0a
        E 15 b0 08 0b
        E 15 b0 08 0c
        E 15 b0 08 0d
        E 15 b0 08 0e
        E 15 b0 08 0f
        E 15 b0 08 10
        E 15 b0 08 12
        E 15 b0 08 13
        E 15 b0 08 14
        E 15 b0 08 15
        E 15 b0 08 16
        E 15 b0 08 18
        E 15 b0 08 19
        E 8 b0 08 2c
        E 8 b0 08 2e
        E 8 b0 08 31
        E 8 b0 08 33
        E 8 b0 08 35
        E 8 b0 08 37
        E 8 b0 08 39
        E 8 b0 08 3b
        E 8 b0 08 3d
        E 8 b0 08 3f
        E 8 b0 08 41
        E 8 b0 08 43
        E 8 b0 08 45
        E 8 b0 08 47
        E 8 b0 08 48
        E 8 b0 08 4a
        E 8 b0 08 4c
        E 8 b0 08 4d
        E 8 b0 08 4f
        E 8 b0 08 50
        E 8 b0 08 51
        E 8 b0 08 52
        E 8 b0 08 54
        E 8 b0 08 54
        E 8 b0 08 55
        E 8 b0 08 56
        E 8 b0 08 56
        E 8 b0 08 57
        E 8 b0 08 58
        E 8 b0 08 58
        E 8 b0 08 58
        E 8 b0 08 58
        E 8 b0 08 58
        E 8 b0 08 58
        E 8 b0 08 58
        E 8 b0 08 58
        E 8 b0 08 58
        E 8 b0 08 57
        E 8 b0 08 56
        E 8 b0 08 56
        E 8 b0 08 55
        E 8 b0 08 54
        E 8 b0 08 53
        E 8 b0 08 51
        E 8 b0 08 51
        E 8 b0 08 4f
        E 8 b0 08 4e
        E 8 b0 08 4d
        E 8 b0 08 4b
        E 8 b0 08 49
        E 8 b0 08 48
        E 8 b0 08 46
        E 8 b0 08 44
        E 8 b0 08 42
        E 8 b0 08 40
        E 8 b0 08 3e
        E 8 b0 08 3c
        E 8 b0 08 3a
        E 8 b0 08 38
        E 8 b0 08 36
        E 8 b0 08 33
        E 8 b0 08 31
        E 8 b0 08 2f
        E 8 b0 08 2d
        E 8 b0 08 2b
        E 8 b0 08 29
        E 8 b0 08 27
        E 8 b0 08 25
        E 8 b0 08 22
        E 8 b0 08 20
        E 8 b0 08 1e
        E 8 b0 08 1c
        E 8 b0 08 1a
        E 8 b0 08 18
        E 8 b0 08 16
        E 8 b0 08 14
        E 8 b0 08 12
        E 8 b0 08 10
        E 8 b0 08 0f
        E 8 b0 08 0d
        E 8 b0 08 0b
        E 8 b0 08 0a
        E 8 b0 08 09
        E 8 b0 08 07
        E 8 b0 08 07
        E 8 b0 08 05
        E 8 b0 08 04
        E 8 b0 08 03
        E 8 b0 08 02
        E 8 b0 08 02
        E 8 b0 08 01
        E 8 b0 08 00
        E 8 b0 08 00
        E 8 b0 08 00
        E 8 b0 08 00
        E 8 b0 08 00
        E 8 b0 08 00
        E 8 b0 08 00
        E 8 b0 08 00
        E 8 b0 08 00
        E 8 b0 08 01
        E 8 b0 08 02
        E 8 b0 08 02
        E 8 b0 08 03
        E 8 b0 08 04
        E 8 b0 08 04
        E 8 b0 08 06
        E 8 b0 08 07
        E 8 b0 08 08
        E 8 b0 08 09
        E 8 b0 08 0b
        E 8 b0 08 0c
        E 8 b0 08 0e
        E 8 b0 08 10
        E 8 b0 08 11
        E 8 b0 08 13
        E 8 b0 08 15
        E 8 b0 08 17
        E 8 b0 08 19
        E 8 b0 08 1b
        E 8 b0 08 1d
        E 8 b0 08 1f
        E 8 b0 08 21
        E 8 b0 08 23
        E 8 b0 08 25
        E 8 b0 08 27
        E 8 b0 08 2a
        E 8 b0 08 2c
        E 8 b0 08 20
        E 8 b0 08 21
        E 8 b0 08 23
        E 8 b0 08 24
        E 8 b0 08 26
        E 8 b0 08 27
        E 8 b0 08 29
        E 8 b0 08 2a
        E 8 b0 08 2c
        E 8 b0 08 2d
        E 8 b0 08 2f
        E 8 b0 08 30
        E 8 b0 08 31
        E 8 b0 08 33
        E 8 b0 08 34
        E 8 b0 08 35
        E 8 b0 08 36
        E 8 b0 08 37
        E 8 b0 08 38
        E 8 b0 08 39
        E 8 b0 08 3a
        E 8 b0 08 3b
        E 8 b0 08 3c
        E 8 b0 08 3c
        E 8 b0 08 3d
        E 8 b0 08 3d
        E 8 b0 08 3e
        E 8 b0 08 3e
        E 8 b0 08 3f
        E 8 b0 08 3f
        E 8 b0 08 3f
        E 8 b0 08 3f
        E 8 b0 08 3f
        E 8 b0 08 3f
        E 8 b0 08 3f
        E 8 b0 08 3f
        E 8 b0 08 3f
        E 8 b0 08 3e
        E 8 b0 08 3e
        E 8 b0 08 3d
        E 8 b0 08 3d
        E 8 b0 08 3c
        E 8 b0 08 3b
        E 8 b0 08 3a
        E 8 b0 08 3a
        E 8 b0 08 39
        E 8 b0 08 38
        E 8 b0 08 37
        E 8 b0 08 36
        E 8 b0 08 34
        E 8 b0 08 33
        E 8 b0 08 32
        E 8 b0 08 31
        E 8 b0 08 2f
        E 8 b0 08 2e
        E 8 b0 08 2c
        E 8 b0 08 2b
        E 8 b0 08 2a
        E 8 b0 08 28
        E 8 b0 08 27
        E 8 b0 08 25
        E 8 b0 08 23
        E 8 b0 08 22
        E 8 b0 08 20
        E 8 b0 08 1f
        E 8 b0 08 1d
        E 8 b0 08 1c
        E 8 b0 08 1a
        E 8 b0 08 18
        E 8 b0 08 17
        E 8 b0 08 15
        E 8 b0 08 14
        E 8 b0 08 13
        E 8 b0 08 11
        E 8 b0 08 10
        E 8 b0 08 0e
        E 8 b0 08 0d
        E 8 b0 08 0c
        E 8 b0 08 0b
        E 8 b0 08 09
        E 8 b0 08 08
        E 8 b0 08 07
        E 8 b0 08 06
        E 8 b0 08 05
        E 8 b0 08 05
        E 8 b0 08 04
        E 8 b0 08 03
        E 8 b0 08 02
        E 8 b0 08 02
        E 8 b0 08 01
        E 8 b0 08 01
        E 8 b0 08 00
        E 8 b0 08 00
        E 8 b0 08 00
        E 8 b0 08 00
        E 8 b0 08 00
        E 8 b0 08 00
        E 8 b0 08 00
        E 8 b0 08 00
        E 8 b0 08 00
        E 8 b0 08 01
        E 8 b0 08 01
        E 8 b0 08 02
        E 8 b0 08 02
        E 8 b0 08 03
        E 8 b0 08 03
        E 8 b0 08 04
        E 8 b0 08 05
        E 8 b0 08 06
        E 8 b0 08 07
        E 8 b0 08 08
        E 8 b0 08 09
        E 8 b0 08 0a
        E 8 b0 08 0b
        E 8 b0 08 0c
        E 8 b0 08 0e
        E 8 b0 08 0f
        E 8 b0 08 10
        E 8 b0 08 12
        E 8 b0 08 13
        E 8 b0 08 15
        E 8 b0 08 16
        E 8 b0 08 18
        E 8 b0 08 19
        E 8 b0 08 1b
        E 8 b0 08 1c
        E 8 b0 08 1e
        E 8 b0 08 20
        E 11 b0 08 20
        E 11 b0 08 21
        E 11 b0 08 23
        E 11 b0 08 24
        E 11 b0 08 26
        E 11 b0 08 27
        E 11 b0 08 29
        E 11 b0 08 2a
        E 11 b0 08 2c
        E 11 b0 08 2d
        E 11 b0 08 2f
        E 11 b0 08 30
        E 11 b0 08 31
        E 11 b0 08 33
        E 11 b0 08 34
        E 11 b0 08 35
        E 11 b0 08 36
        E 11 b0 08 37
        E 11 b0 08 38
        E 11 b0 08 39
        E 11 b0 08 3a
        E 11 b0 08 3b
        E 11 b0 08 3c
        E 11 b0 08 3c
        E 11 b0 08 3d
        E 11 b0 08 3d
        E 11 b0 08 3e
        E 11 b0 08 3e
        E 11 b0 08 3f
        E 11 b0 08 3f
        E 11 b0 08 3f
        E 11 b0 08 3f
        E 11 b0 08 3f
        E 11 b0 08 3f
        E 11 b0 08 3f
        E 11 b0 08 3f
        E 11 b0 08 3f
        E 11 b0 08 3e
        E 11 b0 08 3e
        E 11 b0 08 3d
        E 11 b0 08 3d
        E 11 b0 08 3c
        E 11 b0 08 3b
        E 11 b0 08 3a
        E 11 b0 08 3a
        E 11 b0 08 39
        E 11 b0 08 38
        E 11 b0 08 37
        E 11 b0 08 36
        E 11 b0 08 34
        E 11 b0 08 33
        E 11 b0 08 32
        E 11 b0 08 31
        E 11 b0 08 2f
        E 11 b0 08 2e
        E 11 b0 08 2c
        E 11 b0 08 2b
        E 11 b0 08 2a
        E 11 b0 08 28
        E 11 b0 08 27
        E 11 b0 08 25
        E 11 b0 08 23
        E 11 b0 08 22
        E 11 b0 08 20
        E 11 b0 08 1f
        E 11 b0 08 1d
        E 11 b0 08 1c
        E 11 b0 08 1a
        E 11 b0 08 18
        E 11 b0 08 17
        E 11 b0 08 15
        E 11 b0 08 14
        E 11 b0 08 13
        E 11 b0 08 11
        E 11 b0 08 10
        E 11 b0 08 0e
        E 11 b0 08 0d
        E 11 b0 08 0c
        E 11 b0 08 0b
        E 11 b0 08 09
        E 11 b0 08 08
        E 11 b0 08 07
        E 11 b0 08 06
        E 11 b0 08 05
        E 11 b0 08 05
        E 11 b0 08 04
        E 11 b0 08 03
        E 11 b0 08 02
        E 11 b0 08 02
        E 11 b0 08 01
        E 11 b0 08 01
        E 11 b0 08 00
        E 11 b0 08 00
        E 11 b0 08 00
        E 11 b0 08 00
        E 11 b0 08 00
        E 11 b0 08 00
        E 11 b0 08 00
        E 11 b0 08 00
        E 11 b0 08 00
        E 11 b0 08 01
        E 11 b0 08 01
        E 11 b0 08 02
        E 11 b0 08 02
        E 11 b0 08 03
        E 11 b0 08 03
        E 11 b0 08 04
        E 11 b0 08 05
        E 11 b0 08 06
        E 11 b0 08 07
        E 11 b0 08 08
        E 11 b0 08 09
        E 11 b0 08 0a
        E 11 b0 08 0b
        E 11 b0 08 0c
        E 11 b0 08 0e
        E 11 b0 08 0f
        E 11 b0 08 10
        E 11 b0 08 12
        E 11 b0 08 13
        E 11 b0 08 15
        E 11 b0 08 16
        E 11 b0 08 18
        E 11 b0 08 19
        E 11 b0 08 1b
        E 11 b0 08 1c
        E 11 b0 08 1e
        E 11 b0 08 20
        E 13 b0 08 40
        E 13 b0 08 43
        E 13 b0 08 46
        E 13 b0 08 49
        E 13 b0 08 4c
        E 13 b0 08 4f
        E 13 b0 08 52
        E 13 b0 08 55
        E 13 b0 08 58
        E 13 b0 08 5b
        E 13 b0 08 5e
        E 13 b0 08 60
        E 13 b0 08 63
        E 13 b0 08 66
        E 13 b0 08 68
        E 13 b0 08 6a
        E 13 b0 08 6d
        E 13 b0 08 6f
        E 13 b0 08 71
        E 13 b0 08 73
        E 13 b0 08 75
        E 13 b0 08 76
        E 13 b0 08 78
        E 13 b0 08 79
        E 13 b0 08 7a
        E 13 b0 08 7b
        E 13 b0 08 7c
        E 13 b0 08 7d
        E 13 b0 08 7e
        E 13 b0 08 7e
        E 13 b0 08 7f
        E 13 b0 08 7f
        E 13 b0 08 7f
        E 13 b0 08 7f
        E 13 b0 08 7f
        E 13 b0 08 7e
        E 13 b0 08 7e
        E 13 b0 08 7d
        E 13 b0 08 7c
        E 13 b0 08 7b
        E 13 b0 08 7a
        E 13 b0 08 78
        E 13 b0 08 77
        E 13 b0 08 75
        E 13 b0 08 74
        E 13 b0 08 72
        E 13 b0 08 70
        E 13 b0 08 6e
        E 13 b0 08 6c
        E 13 b0 08 69
        E 13 b0 08 67
        E 13 b0 08 64
        E 13 b0 08 62
        E 13 b0 08 5f
        E 13 b0 08 5c
        E 13 b0 08 59
        E 13 b0 08 57
        E 13 b0 08 54
        E 13 b0 08 51
        E 13 b0 08 4e
        E 13 b0 08 4a
        E 13 b0 08 47
        E 13 b0 08 44
        E 13 b0 08 41
        E 13 b0 08 3e
        E 13 b0 08 3b
        E 13 b0 08 38
        E 13 b0 08 35
        E 13 b0 08 31
        E 13 b0 08 2e
        E 13 b0 08 2b
        E 13 b0 08 28
        E 13 b0 08 26
        E 13 b0 08 23
        E 13 b0 08 20
        E 13 b0 08 1d
        E 13 b0 08 1b
        E 13 b0 08 18
        E 13 b0 08 16
        E 13 b0 08 13
        E 13 b0 08 11
        E 13 b0 08 0f
        E 13 b0 08 0d
        E 13 b0 08 0b
        E 13 b0 08 0a
        E 13 b0 08 08
        E 13 b0 08 07
        E 13 b0 08 05
        E 13 b0 08 04
        E 13 b0 08 03
        E 13 b0 08 02
        E 13 b0 08 01
        E 13 b0 08 01
        E 13 b0 08 00
        E 13 b0 08 00
        E 13 b0 08 00
        E 13 b0 08 00
        E 13 b0 08 00
        E 13 b0 08 01
        E 13 b0 08 01
        E 13 b0 08 02
        E 13 b0 08 03
        E 13 b0 08 04
        E 13 b0 08 05
        E 13 b0 08 06
        E 13 b0 08 07
        E 13 b0 08 09
        E 13 b0 08 0a
        E 13 b0 08 0c
        E 13 b0 08 0e
        E 13 b0 08 10
        E 13 b0 08 12
        E 13 b0 08 15
        E 13 b0 08 17
        E 13 b0 08 19
        E 13 b0 08 1c
        E 13 b0 08 1f
        E 13 b0 08 21
        E 13 b0 08 24
        E 13 b0 08 27
        E 13 b0 08 2a
        E 13 b0 08 2d
        E 13 b0 08 30
        E 13 b0 08 33
        E 13 b0 08 36
        E 13 b0 08 39
        E 13 b0 08 3c
        E 13 b0 08 40
        E 11 b0 08 39
        E 11 b0 08 3c
        E 11 b0 08 3f
        E 11 b0 08 41
        E 11 b0 08 44
        E 11 b0 08 47
        E 11 b0 08 49
        E 11 b0 08 4c
        E 11 b0 08 4f
        E 11 b0 08 51
        E 11 b0 08 54
        E 11 b0 08 56
        E 11 b0 08 59
        E 11 b0 08 5b
        E 11 b0 08 5d
        E 11 b0 08 5f
        E 11 b0 08 62
        E 11 b0 08 63
        E 11 b0 08 65
        E 11 b0 08 67
        E 11 b0 08 69
        E 11 b0 08 6a
        E 11 b0 08 6c
        E 11 b0 08 6c
        E 11 b0 08 6d
        E 11 b0 08 6e
        E 11 b0 08 6f
        E 11 b0 08 70
        E 11 b0 08 71
        E 11 b0 08 71
        E 11 b0 08 72
        E 11 b0 08 72
        E 11 b0 08 72
        E 11 b0 08 72
        E 11 b0 08 72
        E 11 b0 08 71
        E 11 b0 08 71
        E 11 b0 08 70
        E 11 b0 08 6f
        E 11 b0 08 6e
        E 11 b0 08 6d
        E 11 b0 08 6c
        E 11 b0 08 6b
        E 11 b0 08 69
        E 11 b0 08 68
        E 11 b0 08 66
        E 11 b0 08 64
        E 11 b0 08 63
        E 11 b0 08 61
        E 11 b0 08 5e
        E 11 b0 08 5c
        E 11 b0 08 5a
        E 11 b0 08 58
        E 11 b0 08 55
        E 11 b0 08 52
        E 11 b0 08 50
        E 11 b0 08 4e
        E 11 b0 08 4b
        E 11 b0 08 48
        E 11 b0 08 46
        E 11 b0 08 42
        E 11 b0 08 3f
        E 11 b0 08 3d
        E 11 b0 08 3a
        E 11 b0 08 37
        E 11 b0 08 35
        E 11 b0 08 32
        E 11 b0 08 2f
        E 11 b0 08 2c
        E 11 b0 08 29
        E 11 b0 08 26
        E 11 b0 08 24
        E 11 b0 08 22
        E 11 b0 08 1f
        E 11 b0 08 1c
        E 11 b0 08 1a
        E 11 b0 08 18
        E 11 b0 08 15
        E 11 b0 08 13
        E 11 b0 08 11
        E 11 b0 08 0f
        E 11 b0 08 0d
        E 11 b0 08 0b
        E 11 b0 08 09
        E 11 b0 08 09
        E 11 b0 08 07
        E 11 b0 08 06
        E 11 b0 08 04
        E 11 b0 08 03
        E 11 b0 08 02
        E 11 b0 08 01
        E 11 b0 08 00
        E 11 b0 08 00
        E 11 b0 08 00
        E 11 b0 08 00
        E 11 b0 08 00
        E 11 b0 08 00
        E 11 b0 08 00
        E 11 b0 08 00
        E 11 b0 08 00
        E 11 b0 08 01
        E 11 b0 08 02
        E 11 b0 08 03
        E 11 b0 08 04
        E 11 b0 08 05
        E 11 b0 08 06
        E 11 b0 08 08
        E 11 b0 08 09
        E 11 b0 08 0a
        E 11 b0 08 0c
        E 11 b0 08 0e
        E 11 b0 08 10
        E 11 b0 08 12
        E 11 b0 08 14
        E 11 b0 08 16
        E 11 b0 08 19
        E 11 b0 08 1b
        E 11 b0 08 1d
        E 11 b0 08 20
        E 11 b0 08 23
        E 11 b0 08 25
        E 11 b0 08 28
        E 11 b0 08 2b
        E 11 b0 08 2d
        E 11 b0 08 30
        E 11 b0 08 33
        E 11 b0 08 36
        E 11 b0 08 39
        E 8 b0 08 20
        E 8 b0 08 21
        E 8 b0 08 23
        E 8 b0 08 24
        E 8 b0 08 26
        E 8 b0 08 27
        E 8 b0 08 29
        E 8 b0 08 2a
        E 8 b0 08 2c
        E 8 b0 08 2d
        E 8 b0 08 2f
        E 8 b0 08 30
        E 8 b0 08 31
        E 8 b0 08 33
        E 8 b0 08 34
        E 8 b0 08 35
        E 8 b0 08 36
        E 8 b0 08 37
        E 8 b0 08 38
        E 8 b0 08 39
        E 8 b0 08 3a
        E 8 b0 08 3b
        E 8 b0 08 3c
        E 8 b0 08 3c
        E 8 b0 08 3d
        E 8 b0 08 3d
        E 8 b0 08 3e
        E 8 b0 08 3e
        E 8 b0 08 3f
        E 8 b0 08 3f
        E 8 b0 08 3f
        E 8 b0 08 3f
        E 8 b0 08 3f
        E 8 b0 08 3f
        E 8 b0 08 3f
        E 8 b0 08 3f
        E 8 b0 08 3f
        E 8 b0 08 3e
        E 8 b0 08 3e
        E 8 b0 08 3d
        E 8 b0 08 3d
        E 8 b0 08 3c
        E 8 b0 08 3b
        E 8 b0 08 3a
        E 8 b0 08 3a
        E 8 b0 08 39
        E 8 b0 08 38
        E 8 b0 08 37
        E 8 b0 08 36
        E 8 b0 08 34
        E 8 b0 08 33
        E 8 b0 08 32
        E 8 b0 08 31
        E 8 b0 08 2f
        E 8 b0 08 2e
        E 8 b0 08 2c
        E 8 b0 08 2b
        E 8 b0 08 2a
        E 8 b0 08 28
        E 8 b0 08 27
        E 8 b0 08 25
        E 8 b0 08 23
        E 8 b0 08 22
        E 8 b0 08 20
        E 8 b0 08 1f
        E 8 b0 08 1d
        E 8 b0 08 1c
        E 8 b0 08 1a
        E 8 b0 08 18
        E 8 b0 08 17
        E 8 b0 08 15
        E 8 b0 08 14
        E 8 b0 08 13
        E 8 b0 08 11
        E 8 b0 08 10
        E 8 b0 08 0e
        E 8 b0 08 0d
        E 8 b0 08 0c
        E 8 b0 08 0b
        E 8 b0 08 09
        E 8 b0 08 08
        E 8 b0 08 07
        E 8 b0 08 06
        E 8 b0 08 05
        E 8 b0 08 05
        E 8 b0 08 04
        E 8 b0 08 03
        E 8 b0 08 02
        E 8 b0 08 02
        E 8 b0 08 01
        E 8 b0 08 01
        E 8 b0 08 00
        E 8 b0 08 00
        E 8 b0 08 00
        E 8 b0 08 00
        E 8 b0 08 00
        E 8 b0 08 00
        E 8 b0 08 00
        E 8 b0 08 00
        E 8 b0 08 00
        E 8 b0 08 01
        E 8 b0 08 01
        E 8 b0 08 02
        E 8 b0 08 02
        E 8 b0 08 03
        E 8 b0 08 03
        E 8 b0 08 04
        E 8 b0 08 05
        E 8 b0 08 06
        E 8 b0 08 07
        E 8 b0 08 08
        E 8 b0 08 09
        E 8 b0 08 0a
        E 8 b0 08 0b
        E 8 b0 08 0c
        E 8 b0 08 0e
        E 8 b0 08 0f
        E 8 b0 08 10
        E 8 b0 08 12
        E 8 b0 08 13
        E 8 b0 08 15
        E 8 b0 08 16
        E 8 b0 08 18
        E 8 b0 08 19
        E 8 b0 08 1b
        E 8 b0 08 1c
        E 8 b0 08 1e
        E 8 b0 08 20
        E 8 b0 08 20
        E 8 b0 08 21
        E 8 b0 08 23
        E 8 b0 08 24
        E 8 b0 08 26
        E 8 b0 08 27
        E 8 b0 08 29
        E 8 b0 08 2a
        E 8 b0 08 2c
        E 8 b0 08 2d
        E 8 b0 08 2f
        E 8 b0 08 30
        E 8 b0 08 31
        E 8 b0 08 33
        E 8 b0 08 34
        E 8 b0 08 35
        E 8 b0 08 36
        E 8 b0 08 37
        E 8 b0 08 38
        E 8 b0 08 39
        E 8 b0 08 3a
        E 8 b0 08 3b
        E 8 b0 08 3c
        E 8 b0 08 3c
        E 8 b0 08 3d
        E 8 b0 08 3d
        E 8 b0 08 3e
        E 8 b0 08 3e
        E 8 b0 08 3f
        E 8 b0 08 3f
        E 8 b0 08 3f
        E 8 b0 08 3f
        E 8 b0 08 3f
        E 8 b0 08 3f
        E 8 b0 08 3f
        E 8 b0 08 3f
        E 8 b0 08 3f
        E 8 b0 08 3e
        E 8 b0 08 3e
        E 8 b0 08 3d
        E 8 b0 08 3d
        E 8 b0 08 3c
        E 8 b0 08 3b
        E 8 b0 08 3a
        E 8 b0 08 3a
        E 8 b0 08 39
        E 8 b0 08 38
        E 8 b0 08 37
        E 8 b0 08 36
        E 8 b0 08 34
        E 8 b0 08 33
        E 8 b0 08 32
        E 8 b0 08 31
        E 8 b0 08 2f
        E 8 b0 08 2e
        E 8 b0 08 2c
        E 8 b0 08 2b
        E 8 b0 08 2a
        E 8 b0 08 28
        E 8 b0 08 27
        E 8 b0 08 25
        E 8 b0 08 23
        E 8 b0 08 22
        E 8 b0 08 20
        E 8 b0 08 1f
        E 8 b0 08 1d
        E 8 b0 08 1c
        E 8 b0 08 1a
        E 8 b0 08 18
        E 8 b0 08 17
        E 8 b0 08 15
        E 8 b0 08 14
        E 8 b0 08 13
        E 8 b0 08 11
        E 8 b0 08 10
        E 8 b0 08 0e
        E 8 b0 08 0d
        E 8 b0 08 0c
        E 8 b0 08 0b
        E 8 b0 08 09
        E 8 b0 08 08
        E 8 b0 08 07
        E 8 b0 08 06
        E 8 b0 08 05
        E 8 b0 08 05
        E 8 b0 08 04
        E 8 b0 08 03
        E 8 b0 08 02
        E 8 b0 08 02
        E 8 b0 08 01
        E 8 b0 08 01
        E 8 b0 08 00
        E 8 b0 08 00
        E 8 b0 08 00
        E 8 b0 08 00
        E 8 b0 08 00
        E 8 b0 08 00
        E 8 b0 08 00
        E 8 b0 08 00
        E 8 b0 08 00
        E 8 b0 08 01
        E 8 b0 08 01
        E 8 b0 08 02
        E 8 b0 08 02
        E 8 b0 08 03
        E 8 b0 08 03
        E 8 b0 08 04
        E 8 b0 08 05
        E 8 b0 08 06
        E 8 b0 08 07
        E 8 b0 08 08
        E 8 b0 08 09
        E 8 b0 08 0a
        E 8 b0 08 0b
        E 8 b0 08 0c
        E 8 b0 08 0e
        E 8 b0 08 0f
        E 8 b0 08 10
        E 8 b0 08 12
        E 8 b0 08 13
        E 8 b0 08 15
        E 8 b0 08 16
        E 8 b0 08 18
        E 8 b0 08 19
        E 8 b0 08 1b
        E 8 b0 08 1c
        E 8 b0 08 1e
        E 8 b0 08 20
        E 17 b0 08 2c
        E 17 b0 08 2e
        E 17 b0 08 31
        E 17 b0 08 33
        E 17 b0 08 35
        E 17 b0 08 37
        E 17 b0 08 39
        E 17 b0 08 3b
        E 17 b0 08 3d
        E 17 b0 08 3f
        E 17 b0 08 41
        E 17 b0 08 43
        E 17 b0 08 45
        E 17 b0 08 47
        E 17 b0 08 48
        E 17 b0 08 4a
        E 17 b0 08 4c
        E 17 b0 08 4d
        E 17 b0 08 4f
        E 17 b0 08 50
        E 17 b0 08 51
        E 17 b0 08 52
        E 17 b0 08 54
        E 17 b0 08 54
        E 17 b0 08 55
        E 17 b0 08 56
        E 17 b0 08 56
        E 17 b0 08 57
        E 17 b0 08 58
        E 17 b0 08 58
        E 17 b0 08 58
        E 17 b0 08 58
        E 17 b0 08 58
        E 17 b0 08 58
        E 17 b0 08 58
        E 17 b0 08 58
        E 17 b0 08 58
        E 17 b0 08 57
        E 17 b0 08 56
        E 17 b0 08 56
        E 17 b0 08 55
        E 17 b0 08 54
        E 17 b0 08 53
        E 17 b0 08 51
        E 17 b0 08 51
        E 17 b0 08 4f
        E 17 b0 08 4e
        E 17 b0 08 4d
        E 17 b0 08 4b
        E 17 b0 08 49
        E 17 b0 08 48
        E 17 b0 08 46
        E 17 b0 08 44
        E 17 b0 08 42
        E 17 b0 08 40
        E 17 b0 08 3e
        E 17 b0 08 3c
        E 17 b0 08 3a
        E 17 b0 08 38
        E 17 b0 08 36
        E 17 b0 08 33
        E 17 b0 08 31
        E 17 b0 08 2f
        E 17 b0 08 2d
        E 17 b0 08 2b
        E 17 b0 08 29
        E 17 b0 08 27
        E 17 b0 08 25
        E 17 b0 08 22
        E 17 b0 08 20
        E 17 b0 08 1e
        E 17 b0 08 1c
        E 17 b0 08 1a
        E 17 b0 08 18
        E 17 b0 08 16
        E 17 b0 08 14
        E 17 b0 08 12
        E 17 b0 08 10
        E 17 b0 08 0f
        E 17 b0 08 0d
        E 17 b0 08 0b
        E 17 b0 08 0a
        E 17 b0 08 09
        E 17 b0 08 07
        E 17 b0 08 07
        E 17 b0 08 05
        E 17 b0 08 04
        E 17 b0 08 03
        E 17 b0 08 02
        E 17 b0 08 02
        E 17 b0 08 01
        E 17 b0 08 00
        E 17 b0 08 00
        E 17 b0 08 00
        E 17 b0 08 00
        E 17 b0 08 00
        E 17 b0 08 00
        E 17 b0 08 00
        E 17 b0 08 00
        E 17 b0 08 00
        E 17 b0 08 01
        E 17 b0 08 02
        E 17 b0 08 02
        E 17 b0 08 03
        E 17 b0 08 04
        E 17 b0 08 04
        E 17 b0 08 06
        E 17 b0 08 07
        E 17 b0 08 08
        E 17 b0 08 09
        E 17 b0 08 0b
        E 17 b0 08 0c
        E 17 b0 08 0e
        E 17 b0 08 10
        E 17 b0 08 11
        E 17 b0 08 13
        E 17 b0 08 15
        E 17 b0 08 17
        E 17 b0 08 19
        E 17 b0 08 1b
        E 17 b0 08 1d
        E 17 b0 08 1f
        E 17 b0 08 21
        E 17 b0 08 23
        E 17 b0 08 25
        E 17 b0 08 27
        E 17 b0 08 2a
        E 17 b0 08 2c
        E 15 b0 08 33
        E 15 b0 08 35
        E 15 b0 08 37
        E 15 b0 08 3a
        E 15 b0 08 3c
        E 15 b0 08 3f
        E 15 b0 08 41
        E 15 b0 08 44
        E 15 b0 08 46
        E 15 b0 08 48
        E 15 b0 08 4b
        E 15 b0 08 4c
        E 15 b0 08 4f
        E 15 b0 08 51
        E 15 b0 08 53
        E 15 b0 08 54
        E 15 b0 08 57
        E 15 b0 08 58
        E 15 b0 08 5a
        E 15 b0 08 5b
        E 15 b0 08 5d
        E 15 b0 08 5e
        E 15 b0 08 5f
        E 15 b0 08 60
        E 15 b0 08 61
        E 15 b0 08 62
        E 15 b0 08 63
        E 15 b0 08 63
        E 15 b0 08 64
        E 15 b0 08 64
        E 15 b0 08 65
        E 15 b0 08 65
        E 15 b0 08 65
        E 15 b0 08 65
        E 15 b0 08 65
        E 15 b0 08 64
        E 15 b0 08 64
        E 15 b0 08 63
        E 15 b0 08 63
        E 15 b0 08 62
        E 15 b0 08 61
        E 15 b0 08 5f
        E 15 b0 08 5f
        E 15 b0 08 5d
        E 15 b0 08 5c
        E 15 b0 08 5b
        E 15 b0 08 59
        E 15 b0 08 57
        E 15 b0 08 56
        E 15 b0 08 54
        E 15 b0 08 52
        E 15 b0 08 50
        E 15 b0 08 4e
        E 15 b0 08 4c
        E 15 b0 08 49
        E 15 b0 08 47
        E 15 b0 08 45
        E 15 b0 08 43
        E 15 b0 08 40
        E 15 b0 08 3e
        E 15 b0 08 3b
        E 15 b0 08 38
        E 15 b0 08 36
        E 15 b0 08 33
        E 15 b0 08 31
        E 15 b0 08 2f
        E 15 b0 08 2c
        E 15 b0 08 2a
        E 15 b0 08 27
        E 15 b0 08 24
        E 15 b0 08 22
        E 15 b0 08 1f
        E 15 b0 08 1e
        E 15 b0 08 1b
        E 15 b0 08 19
        E 15 b0 08 17
        E 15 b0 08 15
        E 15 b0 08 13
        E 15 b0 08 11
        E 15 b0 08 0f
        E 15 b0 08 0d
        E 15 b0 08 0b
        E 15 b0 08 0a
        E 15 b0 08 08
        E 15 b0 08 07
        E 15 b0 08 06
        E 15 b0 08 05
        E 15 b0 08 03
        E 15 b0 08 03
        E 15 b0 08 02
        E 15 b0 08 01
        E 15 b0 08 00
        E 15 b0 08 00
        E 15 b0 08 00
        E 15 b0 08 00
        E 15 b0 08 00
        E 15 b0 08 00
        E 15 b0 08 00
        E 15 b0 08 00
        E 15 b0 08 00
        E 15 b0 08 01
        E 15 b0 08 02
        E 15 b0 08 03
        E 15 b0 08 03
        E 15 b0 08 04
        E 15 b0 08 05
        E 15 b0 08 07
        E 15 b0 08 07
        E 15 b0 08 09
        E 15 b0 08 0b
        E 15 b0 08 0c
        E 15 b0 08 0e
        E 15 b0 08 10
        E 15 b0 08 12
        E 15 b0 08 14
        E 15 b0 08 16
        E 15 b0 08 18
        E 15 b0 08 1a
        E 15 b0 08 1c
        E 15 b0 08 1f
        E 15 b0 08 21
        E 15 b0 08 24
        E 15 b0 08 26
        E 15 b0 08 28
        E 15 b0 08 2b
        E 15 b0 08 2d
        E 15 b0 08 2f
        E 15 b0 08 33
        E 17 b0 08 06
        E 17 b0 08 06
        E 17 b0 08 07
        E 17 b0 08 07
        E 17 b0 08 07
        E 17 b0 08 07
        E 17 b0 08 08
        E 17 b0 08 08
        E 17 b0 08 08
        E 17 b0 08 09
        E 17 b0 08 09
        E 17 b0 08 09
        E 17 b0 08 09
        E 17 b0 08 0a
        E 17 b0 08 0a
        E 17 b0 08 0a
        E 17 b0 08 0a
        E 17 b0 08 0b
        E 17 b0 08 0b
        E 17 b0 08 0b
        E 17 b0 08 0b
        E 17 b0 08 0b
        E 17 b0 08 0c
        E 17 b0 08 0c
        E 17 b0 08 0c
        E 17 b0 08 0c
        E 17 b0 08 0c
        E 17 b0 08 0c
        E 17 b0 08 0c
        E 17 b0 08 0c
        E 17 b0 08 0c
        E 17 b0 08 0c
        E 17 b0 08 0c
        E 17 b0 08 0c
        E 17 b0 08 0c
        E 17 b0 08 0c
        E 17 b0 08 0c
        E 17 b0 08 0c
        E 17 b0 08 0c
        E 17 b0 08 0c
        E 17 b0 08 0c
        E 17 b0 08 0c
        E 17 b0 08 0b
        E 17 b0 08 0b
        E 17 b0 08 0b
        E 17 b0 08 0b
        E 17 b0 08 0b
        E 17 b0 08 0b
        E 17 b0 08 0a
        E 17 b0 08 0a
        E 17 b0 08 0a
        E 17 b0 08 0a
        E 17 b0 08 09
        E 17 b0 08 09
        E 17 b0 08 09
        E 17 b0 08 08
        E 17 b0 08 08
        E 17 b0 08 08
        E 17 b0 08 08
        E 17 b0 08 07
        E 17 b0 08 07
        E 17 b0 08 07
        E 17 b0 08 06
        E 17 b0 08 06
        E 17 b0 08 06
        E 17 b0 08 05
        E 17 b0 08 05
        E 17 b0 08 05
        E 17 b0 08 04
        E 17 b0 08 04
        E 17 b0 08 04
        E 17 b0 08 04
        E 17 b0 08 03
        E 17 b0 08 03
        E 17 b0 08 03
        E 17 b0 08 02
        E 17 b0 08 02
        E 17 b0 08 02
        E 17 b0 08 02
        E 17 b0 08 01
        E 17 b0 08 01
        E 17 b0 08 01
        E 17 b0 08 01
        E 17 b0 08 01
        E 17 b0 08 01
        E 17 b0 08 00
        E 17 b0 08 00
        E 17 b0 08 00
        E 17 b0 08 00
        E 17 b0 08 00
        E 17 b0 08 00
        E 17 b0 08 00
        E 17 b0 08 00
        E 17 b0 08 00
        E 17 b0 08 00
        E 17 b0 08 00
        E 17 b0 08 00
        E 17 b0 08 00
        E 17 b0 08 00
        E 17 b0 08 00
        E 17 b0 08 00
        E 17 b0 08 00
        E 17 b0 08 00
        E 17 b0 08 00
        E 17 b0 08 00
        E 17 b0 08 00
        E 17 b0 08 00
        E 17 b0 08 01
        E 17 b0 08 01
        E 17 b0 08 01
        E 17 b0 08 01
        E 17 b0 08 01
        E 17 b0 08 02
        E 17 b0 08 02
        E 17 b0 08 02
        E 17 b0 08 02
        E 17 b0 08 03
        E 17 b0 08 03
        E 17 b0 08 03
        E 17 b0 08 03
        E 17 b0 08 04
        E 17 b0 08 04
        E 17 b0 08 04
        E 17 b0 08 05
        E 17 b0 08 05
        E 17 b0 08 05
        E 17 b0 08 06
        E 17 b0 08 06
        E 15 b0 08 19
        E 15 b0 08 1a
        E 15 b0 08 1c
        E 15 b0 08 1d
        E 15 b0 08 1e
        E 15 b0 08 1f
        E 15 b0 08 20
        E 15 b0 08 22
        E 15 b0 08 23
        E 15 b0 08 24
        E 15 b0 08 25
        E 15 b0 08 26
        E 15 b0 08 27
        E 15 b0 08 28
        E 15 b0 08 29
        E 15 b0 08 2a
        E 15 b0 08 2b
        E 15 b0 08 2c
        E 15 b0 08 2d
        E 15 b0 08 2e
        E 15 b0 08 2e
        E 15 b0 08 2f
        E 15 b0 08 30
        E 15 b0 08 30
        E 15 b0 08 30
        E 15 b0 08 31
        E 15 b0 08 31
        E 15 b0 08 32
        E 15 b0 08 32
        E 15 b0 08 32
        E 15 b0 08 32
        E 15 b0 08 32
        E 15 b0 08 32
        E 15 b0 08 32
        E 15 b0 08 32
        E 15 b0 08 32
        E 15 b0 08 32
        E 15 b0 08 32
        E 15 b0 08 31
        E 15 b0 08 31
        E 15 b0 08 30
        E 15 b0 08 30
        E 15 b0 08 2f
        E 15 b0 08 2e
        E 15 b0 08 2e
        E 15 b0 08 2d
        E 15 b0 08 2c
        E 15 b0 08 2c
        E 15 b0 08 2b
        E 15 b0 08 2a
        E 15 b0 08 29
        E 15 b0 08 28
        E 15 b0 08 27
        E 15 b0 08 26
        E 15 b0 08 24
        E 15 b0 08 23
        E 15 b0 08 22
        E 15 b0 08 21
        E 15 b0 08 20
        E 15 b0 08 1f
        E 15 b0 08 1d
        E 15 b0 08 1c
        E 15 b0 08 1b
        E 15 b0 08 1a
        E 15 b0 08 18
        E 15 b0 08 17
        E 15 b0 08 16
        E 15 b0 08 15
        E 15 b0 08 13
        E 15 b0 08 12
        E 15 b0 08 11
        E 15 b0 08 10
        E 15 b0 08 0f
        E 15 b0 08 0e
        E 15 b0 08 0c
        E 15 b0 08 0b
        E 15 b0 08 0a
        E 15 b0 08 09
        E 15 b0 08 08
        E 15 b0 08 07
        E 15 b0 08 06
        E 15 b0 08 06
        E 15 b0 08 05
        E 15 b0 08 04
        E 15 b0 08 04
        E 15 b0 08 03
        E 15 b0 08 02
        E 15 b0 08 02
        E 15 b0 08 01
        E 15 b0 08 01
        E 15 b0 08 00
        E 15 b0 08 00
        E 15 b0 08 00
        E 15 b0 08 00
        E 15 b0 08 00
        E 15 b0 08 00
        E 15 b0 08 00
        E 15 b0 08 00
        E 15 b0 08 00
        E 15 b0 08 00
        E 15 b0 08 00
        E 15 b0 08 01
        E 15 b0 08 01
        E 15 b0 08 02
        E 15 b0 08 02
        E 15 b0 08 02
        E 15 b0 08 03
        E 15 b0 08 04
        E 15 b0 08 04
        E 15 b0 08 05
        E 15 b0 08 06
        E 15 b0 08 07
        E 15 b0 08 08
        E 15 b0 08 09
        E 15 b0 08 0a
        E 15 b0 08 0b
        E 15 b0 08 0c
        E 15 b0 08 0d
        E 15 b0 08 0e
        E 15 b0 08 0f
        E 15 b0 08 10
        E 15 b0 08 12
        E 15 b0 08 13
        E 15 b0 08 14
        E 15 b0 08 15
        E 15 b0 08 16
        E 15 b0 08 18
        E 15 b0 08 19
        E 8 b0 08 2c
        E 8 b0 08 2e
        E 8 b0 08 31
        E 8 b0 08 33
        E 8 b0 08 35
        E 8 b0 08 37
        E 8 b0 08 39
        E 8 b0 08 3b
        E 8 b0 08 3d
        E 8 b0 08 3f
        E 8 b0 08 41
        E 8 b0 08 43
        E 8 b0 08 45
        E 8 b0 08 47
        E 8 b0 08 48
        E 8 b0 08 4a
        E 8 b0 08 4c
        E 8 b0 08 4d
        E 8 b0 08 4f
        E 8 b0 08 50
        E 8 b0 08 51
        E 8 b0 08 52
        E 8 b0 08 54
        E 8 b0 08 54
        E 8 b0 08 55
        E 8 b0 08 56
        E 8 b0 08 56
        E 8 b0 08 57
        E 8 b0 08 58
        E 8 b0 08 58
        E 8 b0 08 58
        E 8 b0 08 58
        E 8 b0 08 58
        E 8 b0 08 58
        E 8 b0 08 58
        E 8 b0 08 58
        E 8 b0 08 58
        E 8 b0 08 57
        E 8 b0 08 56
        E 8 b0 08 56
        E 8 b0 08 55
        E 8 b0 08 54
        E 8 b0 08 53
        E 8 b0 08 51
        E 8 b0 08 51
        E 8 b0 08 4f
        E 8 b0 08 4e
        E 8 b0 08 4d
        E 8 b0 08 4b
        E 8 b0 08 49
        E 8 b0 08 48
        E 8 b0 08 46
        E 8 b0 08 44
        E 8 b0 08 42
        E 8 b0 08 40
        E 8 b0 08 3e
        E 8 b0 08 3c
        E 8 b0 08 3a
        E 8 b0 08 38
        E 8 b0 08 36
        E 8 b0 08 33
        E 8 b0 08 31
        E 8 b0 08 2f
        E 8 b0 08 2d
        E 8 b0 08 2b
        E 8 b0 08 29
        E 8 b0 08 27
        E 8 b0 08 25
        E 8 b0 08 22
        E 8 b0 08 20
        E 8 b0 08 1e
        E 8 b0 08 1c
        E 8 b0 08 1a
        E 8 b0 08 18
        E 8 b0 08 16
        E 8 b0 08 14
        E 8 b0 08 12
        E 8 b0 08 10
        E 8 b0 08 0f
        E 8 b0 08 0d
        E 8 b0 08 0b
        E 8 b0 08 0a
        E 8 b0 08 09
        E 8 b0 08 07
        E 8 b0 08 07
        E 8 b0 08 05
        E 8 b0 08 04
        E 8 b0 08 03
        E 8 b0 08 02
        E 8 b0 08 02
        E 8 b0 08 01
        E 8 b0 08 00
        E 8 b0 08 00
        E 8 b0 08 00
        E 8 b0 08 00
        E 8 b0 08 00
        E 8 b0 08 00
        E 8 b0 08 00
        E 8 b0 08 00
        E 8 b0 08 00
        E 8 b0 08 01
        E 8 b0 08 02
        E 8 b0 08 02
        E 8 b0 08 03
        E 8 b0 08 04
        E 8 b0 08 04
        E 8 b0 08 06
        E 8 b0 08 07
        E 8 b0 08 08
        E 8 b0 08 09
        E 8 b0 08 0b
        E 8 b0 08 0c
        E 8 b0 08 0e
        E 8 b0 08 10
        E 8 b0 08 11
        E 8 b0 08 13
        E 8 b0 08 15
        E 8 b0 08 17
        E 8 b0 08 19
        E 8 b0 08 1b
        E 8 b0 08 1d
        E 8 b0 08 1f
        E 8 b0 08 21
        E 8 b0 08 23
        E 8 b0 08 25
        E 8 b0 08 27
        E 8 b0 08 2a
        E 8 b0 08 2c
        E 8 b0 08 20
        E 8 b0 08 21
        E 8 b0 08 23
        E 8 b0 08 24
        E 8 b0 08 26
        E 8 b0 08 27
        E 8 b0 08 29
        E 8 b0 08 2a
        E 8 b0 08 2c
        E 8 b0 08 2d
        E 8 b0 08 2f
        E 8 b0 08 30
        E 8 b0 08 31
        E 8 b0 08 33
        E 8 b0 08 34
        E 8 b0 08 35
        E 8 b0 08 36
        E 8 b0 08 37
        E 8 b0 08 38
        E 8 b0 08 39
        E 8 b0 08 3a
        E 8 b0 08 3b
        E 8 b0 08 3c
        E 8 b0 08 3c
        E 8 b0 08 3d
        E 8 b0 08 3d
        E 8 b0 08 3e
        E 8 b0 08 3e
        E 8 b0 08 3f
        E 8 b0 08 3f
        E 8 b0 08 3f
        E 8 b0 08 3f
        E 8 b0 08 3f
        E 8 b0 08 3f
        E 8 b0 08 3f
        E 8 b0 08 3f
        E 8 b0 08 3f
        E 8 b0 08 3e
        E 8 b0 08 3e
        E 8 b0 08 3d
        E 8 b0 08 3d
        E 8 b0 08 3c
        E 8 b0 08 3b
        E 8 b0 08 3a
        E 8 b0 08 3a
        E 8 b0 08 39
        E 8 b0 08 38
        E 8 b0 08 37
        E 8 b0 08 36
        E 8 b0 08 34
        E 8 b0 08 33
        E 8 b0 08 32
        E 8 b0 08 31
        E 8 b0 08 2f
        E 8 b0 08 2e
        E 8 b0 08 2c
        E 8 b0 08 2b
        E 8 b0 08 2a
        E 8 b0 08 28
        E 8 b0 08 27
        E 8 b0 08 25
        E 8 b0 08 23
        E 8 b0 08 22
        E 8 b0 08 20
        E 8 b0 08 1f
        E 8 b0 08 1d
        E 8 b0 08 1c
        E 8 b0 08 1a
        E 8 b0 08 18
        E 8 b0 08 17
        E 8 b0 08 15
        E 8 b0 08 14
        E 8 b0 08 13
        E 8 b0 08 11
        E 8 b0 08 10
        E 8 b0 08 0e
        E 8 b0 08 0d
        E 8 b0 08 0c
        E 8 b0 08 0b
        E 8 b0 08 09
        E 8 b0 08 08
        E 8 b0 08 07
        E 8 b0 08 06
        E 8 b0 08 05
        E 8 b0 08 05
        E 8 b0 08 04
        E 8 b0 08 03
        E 8 b0 08 02
        E 8 b0 08 02
        E 8 b0 08 01
        E 8 b0 08 01
        E 8 b0 08 00
        E 8 b0 08 00
        E 8 b0 08 00
        E 8 b0 08 00
        E 8 b0 08 00
        E 8 b0 08 00
        E 8 b0 08 00
        E 8 b0 08 00
        E 8 b0 08 00
        E 8 b0 08 01
        E 8 b0 08 01
        E 8 b0 08 02
        E 8 b0 08 02
        E 8 b0 08 03
        E 8 b0 08 03
        E 8 b0 08 04
        E 8 b0 08 05
        E 8 b0 08 06
        E 8 b0 08 07
        E 8 b0 08 08
        E 8 b0 08 09
        E 8 b0 08 0a
        E 8 b0 08 0b
        E 8 b0 08 0c
        E 8 b0 08 0e
        E 8 b0 08 0f
        E 8 b0 08 10
        E 8 b0 08 12
        E 8 b0 08 13
        E 8 b0 08 15
        E 8 b0 08 16
        E 8 b0 08 18
        E 8 b0 08 19
        E 8 b0 08 1b
        E 8 b0 08 1c
        E 8 b0 08 1e
        E 8 b0 08 20
        E 11 b0 08 20
        E 11 b0 08 21
        E 11 b0 08 23
        E 11 b0 08 24
        E 11 b0 08 26
        E 11 b0 08 27
        E 11 b0 08 29
        E 11 b0 08 2a
        E 11 b0 08 2c
        E 11 b0 08 2d
        E 11 b0 08 2f
        E 11 b0 08 30
        E 11 b0 08 31
        E 11 b0 08 33
        E 11 b0 08 34
        E 11 b0 08 35
        E 11 b0 08 36
        E 11 b0 08 37
        E 11 b0 08 38
        E 11 b0 08 39
        E 11 b0 08 3a
        E 11 b0 08 3b
        E 11 b0 08 3c
        E 11 b0 08 3c
        E 11 b0 08 3d
        E 11 b0 08 3d
        E 11 b0 08 3e
        E 11 b0 08 3e
        E 11 b0 08 3f
        E 11 b0 08 3f
        E 11 b0 08 3f
        E 11 b0 08 3f
        E 11 b0 08 3f
        E 11 b0 08 3f
        E 11 b0 08 3f
        E 11 b0 08 3f
        E 11 b0 08 3f
        E 11 b0 08 3e
        E 11 b0 08 3e
        E 11 b0 08 3d
        E 11 b0 08 3d
        E 11 b0 08 3c
        E 11 b0 08 3b
        E 11 b0 08 3a
        E 11 b0 08 3a
        E 11 b0 08 39
        E 11 b0 08 38
        E 11 b0 08 37
        E 11 b0 08 36
        E 11 b0 08 34
        E 11 b0 08 33
        E 11 b0 08 32
        E 11 b0 08 31
        E 11 b0 08 2f
        E 11 b0 08 2e
        E 11 b0 08 2c
        E 11 b0 08 2b
        E 11 b0 08 2a
        E 11 b0 08 28
        E 11 b0 08 27
        E 11 b0 08 25
        E 11 b0 08 23
        E 11 b0 08 22
        E 11 b0 08 20
        E 11 b0 08 1f
        E 11 b0 08 1d
        E 11 b0 08 1c
        E 11 b0 08 1a
        E 11 b0 08 18
        E 11 b0 08 17
        E 11 b0 08 15
        E 11 b0 08 14
        E 11 b0 08 13
        E 11 b0 08 11
        E 11 b0 08 10
        E 11 b0 08 0e
        E 11 b0 08 0d
        E 11 b0 08 0c
        E 11 b0 08 0b
        E 11 b0 08 09
        E 11 b0 08 08
        E 11 b0 08 07
        E 11 b0 08 06
        E 11 b0 08 05
        E 11 b0 08 05
        E 11 b0 08 04
        E 11 b0 08 03
        E 11 b0 08 02
        E 11 b0 08 02
        E 11 b0 08 01
        E 11 b0 08 01
        E 11 b0 08 00
        E 11 b0 08 00
        E 11 b0 08 00
        E 11 b0 08 00
        E 11 b0 08 00
        E 11 b0 08 00
        E 11 b0 08 00
        E 11 b0 08 00
        E 11 b0 08 00
        E 11 b0 08 01
        E 11 b0 08 01
        E 11 b0 08 02
        E 11 b0 08 02
        E 11 b0 08 03
        E 11 b0 08 03
        E 11 b0 08 04
        E 11 b0 08 05
        E 11 b0 08 06
        E 11 b0 08 07
        E 11 b0 08 08
        E 11 b0 08 09
        E 11 b0 08 0a
        E 11 b0 08 0b
        E 11 b0 08 0c
        E 11 b0 08 0e
        E 11 b0 08 0f
        E 11 b0 08 10
        E 11 b0 08 12
        E 11 b0 08 13
        E 11 b0 08 15
        E 11 b0 08 16
        E 11 b0 08 18
        E 11 b0 08 19
        E 11 b0 08 1b
        E 11 b0 08 1c
        E 11 b0 08 1e
        E 11 b0 08 20
        E 13 b0 08 40
        E 13 b0 08 43
        E 13 b0 08 46
        E 13 b0 08 49
        E 13 b0 08 4c
        E 13 b0 08 4f
        E 13 b0 08 52
        E 13 b0 08 55
        E 13 b0 08 58
        E 13 b0 08 5b
        E 13 b0 08 5e
        E 13 b0 08 60
        E 13 b0 08 63
        E 13 b0 08 66
        E 13 b0 08 68
        E 13 b0 08 6a
        E 13 b0 08 6d
        E 13 b0 08 6f
        E 13 b0 08 71
        E 13 b0 08 73
        E 13 b0 08 75
        E 13 b0 08 76
        E 13 b0 08 78
        E 13 b0 08 79
        E 13 b0 08 7a
        E 13 b0 08 7b
        E 13 b0 08 7c
        E 13 b0 08 7d
        E 13 b0 08 7e
        E 13 b0 08 7e
        E 13 b0 08 7f
        E 13 b0 08 7f
        E 13 b0 08 7f
        E 13 b0 08 7f
        E 13 b0 08 7f
        E 13 b0 08 7e
        E 13 b0 08 7e
        E 13 b0 08 7d
        E 13 b0 08 7c
        E 13 b0 08 7b
        E 13 b0 08 7a
        E 13 b0 08 78
        E 13 b0 08 77
        E 13 b0 08 75
        E 13 b0 08 74
        E 13 b0 08 72
        E 13 b0 08 70
        E 13 b0 08 6e
        E 13 b0 08 6c
        E 13 b0 08 69
        E 13 b0 08 67
        E 13 b0 08 64
        E 13 b0 08 62
        E 13 b0 08 5f
        E 13 b0 08 5c
        E 13 b0 08 59
        E 13 b0 08 57
        E 13 b0 08 54
        E 13 b0 08 51
        E 13 b0 08 4e
        E 13 b0 08 4a
        E 13 b0 08 47
        E 13 b0 08 44
        E 13 b0 08 41
        E 13 b0 08 3e
        E 13 b0 08 3b
        E 13 b0 08 38
        E 13 b0 08 35
        E 13 b0 08 31
        E 13 b0 08 2e
        E 13 b0 08 2b
        E 13 b0 08 28
        E 13 b0 08 26
        E 13 b0 08 23
        E 13 b0 08 20
        E 13 b0 08 1d
        E 13 b0 08 1b
        E 13 b0 08 18
        E 13 b0 08 16
        E 13 b0 08 13
        E 13 b0 08 11
        E 13 b0 08 0f
        E 13 b0 08 0d
        E 13 b0 08 0b
        E 13 b0 08 0a
        E 13 b0 08 08
        E 13 b0 08 07
        E 13 b0 08 05
        E 13 b0 08 04
        E 13 b0 08 03
        E 13 b0 08 02
        E 13 b0 08 01
        E 13 b0 08 01
        E 13 b0 08 00
        E 13 b0 08 00
        E 13 b0 08 00
        E 13 b0 08 00
        E 13 b0 08 00
        E 13 b0 08 01
        E 13 b0 08 01
        E 13 b0 08 02
        E 13 b0 08 03
        E 13 b0 08 04
        E 13 b0 08 05
        E 13 b0 08 06
        E 13 b0 08 07
        E 13 b0 08 09
        E 13 b0 08 0a
        E 13 b0 08 0c
        E 13 b0 08 0e
        E 13 b0 08 10
        E 13 b0 08 12
        E 13 b0 08 15
        E 13 b0 08 17
        E 13 b0 08 19
        E 13 b0 08 1c
        E 13 b0 08 1f
        E 13 b0 08 21
        E 13 b0 08 24
        E 13 b0 08 27
        E 13 b0 08 2a
        E 13 b0 08 2d
        E 13 b0 08 30
        E 13 b0 08 33
        E 13 b0 08 36
        E 13 b0 08 39
        E 13 b0 08 3c
        E 13 b0 08 40
        E 1 b0 08 39
        E 1 b0 08 3c
        E 1 b0 08 3f
        E 1 b0 08 41
        E 1 b0 08 44
        E 1 b0 08 47
        E 1 b0 08 49
        E 1 b0 08 4c
        E 1 b0 08 4f
        E 1 b0 08 51
        E 1 b0 08 54
        E 1 b0 08 56
        E 1 b0 08 59
        E 1 b0 08 5b
        E 1 b0 08 5d
        E 1 b0 08 5f
        E 1 b0 08 62
        E 1 b0 08 63
        E 1 b0 08 65
        E 1 b0 08 67
        E 1 b0 08 69
        E 1 b0 08 6a
        E 1 b0 08 6c
        E 1 b0 08 6c
        E 1 b0 08 6d
        E 1 b0 08 6e
        E 1 b0 08 6f
        E 1 b0 08 70
        E 1 b0 08 71
        E 1 b0 08 71
        E 1 b0 08 72
        E 1 b0 08 72
        E 1 b0 08 72
        E 1 b0 08 72
        E 1 b0 08 72
        E 1 b0 08 71
        E 1 b0 08 71
        E 1 b0 08 70
        E 1 b0 08 6f
        E 1 b0 08 6e
        E 1 b0 08 6d
        E 1 b0 08 6c
        E 1 b0 08 6b
        E 1 b0 08 69
        E 1 b0 08 68
        E 1 b0 08 66
        E 1 b0 08 64
        E 1 b0 08 63
        E 1 b0 08 61
        E 1 b0 08 5e
        E 1 b0 08 5c
        E 1 b0 08 5a
        E 1 b0 08 58
        E 1 b0 08 55
        E 1 b0 08 52
        E 1 b0 08 50
        E 1 b0 08 4e
        E 1 b0 08 4b
        E 1 b0 08 48
        E 1 b0 08 46
        E 1 b0 08 42
        E 1 b0 08 3f
        E 1 b0 08 3d
        E 1 b0 08 3a
        E 1 b0 08 37
        E 1 b0 08 35
        E 1 b0 08 32
        E 1 b0 08 2f
        E 1 b0 08 2c
        E 1 b0 08 29
        E 1 b0 08 26
        E 1 b0 08 24
        E 1 b0 08 22
        E 1 b0 08 1f
        E 1 b0 08 1c
        E 1 b0 08 1a
        E 1 b0 08 18
        E 1 b0 08 15
        E 1 b0 08 13
        E 1 b0 08 11
        E 1 b0 08 0f
        E 1 b0 08 0d
        E 1 b0 08 0b
        E 1 b0 08 09
        E 1 b0 08 09
        E 1 b0 08 07
        E 1 b0 08 06
        E 1 b0 08 04
        E 1 b0 08 03
        E 1 b0 08 02
        E 1 b0 08 01
        E 1 b0 08 00
        E 1 b0 08 00
        E 1 b0 08 00
        E 1 b0 08 00
        E 1 b0 08 00
        E 1 b0 08 00
        E 1 b0 08 00
        E 1 b0 08 00
        E 1 b0 08 00
        E 1 b0 08 01
        E 1 b0 08 02
        E 1 b0 08 03
        E 1 b0 08 04
        E 1 b0 08 05
        E 1 b0 08 06
        E 1 b0 08 08
        E 1 b0 08 09
        E 1 b0 08 0a
        E 1 b0 08 0c
        E 1 b0 08 0e
        E 1 b0 08 10
        E 1 b0 08 12
        E 1 b0 08 14
        E 1 b0 08 16
        E 1 b0 08 19
        E 1 b0 08 1b
        E 1 b0 08 1d
        E 1 b0 08 20
        E 1 b0 08 23
        E 1 b0 08 25
        E 1 b0 08 28
        E 1 b0 08 2b
        E 1 b0 08 2d
        E 1 b0 08 30
        E 1 b0 08 33
        E 1 b0 08 36
        E 1 b0 08 39
        E 6 b0 08 40
        E 6 b0 08 43
        E 6 b0 08 46
        E 6 b0 08 49
        E 6 b0 08 4c
        E 6 b0 08 4f
        E 6 b0 08 52
        E 6 b0 08 55
        E 6 b0 08 58
        E 6 b0 08 5b
        E 6 b0 08 5e
        E 6 b0 08 60
        E 6 b0 08 63
        E 6 b0 08 66
        E 6 b0 08 68
        E 6 b0 08 6a
        E 6 b0 08 6d
        E 6 b0 08 6f
        E 6 b0 08 71
        E 6 b0 08 73
        E 6 b0 08 75
        E 6 b0 08 76
        E 6 b0 08 78
        E 6 b0 08 79
        E 6 b0 08 7a
        E 6 b0 08 7b
        E 6 b0 08 7c
        E 6 b0 08 7d
        E 6 b0 08 7e
        E 6 b0 08 7e
        E 6 b0 08 7f
        E 6 b0 08 7f
        E 6 b0 08 7f
        E 6 b0 08 7f
        E 6 b0 08 7f
        E 6 b0 08 7e
        E 6 b0 08 7e
        E 6 b0 08 7d
        E 6 b0 08 7c
        E 6 b0 08 7b
        E 6 b0 08 7a
        E 6 b0 08 78
        E 6 b0 08 77
        E 6 b0 08 75
        E 6 b0 08 74
        E 6 b0 08 72
        E 6 b0 08 70
        E 6 b0 08 6e
        E 6 b0 08 6c
        E 6 b0 08 69
        E 6 b0 08 67
        E 6 b0 08 64
        E 6 b0 08 62
        E 6 b0 08 5f
        E 6 b0 08 5c
        E 6 b0 08 59
        E 6 b0 08 57
        E 6 b0 08 54
        E 6 b0 08 51
        E 6 b0 08 4e
        E 6 b0 08 4a
        E 6 b0 08 47
        E 6 b0 08 44
        E 6 b0 08 41
        E 6 b0 08 3e
        E 6 b0 08 3b
        E 6 b0 08 38
        E 6 b0 08 35
        E 6 b0 08 31
        E 6 b0 08 2e
        E 6 b0 08 2b
        E 6 b0 08 28
        E 6 b0 08 26
        E 6 b0 08 23
        E 6 b0 08 20
        E 6 b0 08 1d
        E 6 b0 08 1b
        E 6 b0 08 18
        E 6 b0 08 16
        E 6 b0 08 13
        E 6 b0 08 11
        E 6 b0 08 0f
        E 6 b0 08 0d
        E 6 b0 08 0b
        E 6 b0 08 0a
        E 6 b0 08 08
        E 6 b0 08 07
        E 6 b0 08 05
        E 6 b0 08 04
        E 6 b0 08 03
        E 6 b0 08 02
        E 6 b0 08 01
        E 6 b0 08 01
        E 6 b0 08 00
        E 6 b0 08 00
        E 6 b0 08 00
        E 6 b0 08 00
        E 6 b0 08 00
        E 6 b0 08 01
        E 6 b0 08 01
        E 6 b0 08 02
        E 6 b0 08 03
        E 6 b0 08 04
        E 6 b0 08 05
        E 6 b0 08 06
        E 6 b0 08 07
        E 6 b0 08 09
        E 6 b0 08 0a
        E 6 b0 08 0c
        E 6 b0 08 0e
        E 6 b0 08 10
        E 6 b0 08 12
        E 6 b0 08 15
        E 6 b0 08 17
        E 6 b0 08 19
        E 6 b0 08 1c
        E 6 b0 08 1f
        E 6 b0 08 21
        E 6 b0 08 24
        E 6 b0 08 27
        E 6 b0 08 2a
        E 6 b0 08 2d
        E 6 b0 08 30
        E 6 b0 08 33
        E 6 b0 08 36
        E 6 b0 08 39
        E 6 b0 08 3c
        E 6 b0 08 40
        E 11 b0 08 39
        E 11 b0 08 3c
        E 11 b0 08 3f
        E 11 b0 08 41
        E 11 b0 08 44
        E 11 b0 08 47
        E 11 b0 08 49
        E 11 b0 08 4c
        E 11 b0 08 4f
        E 11 b0 08 51
        E 11 b0 08 54
        E 11 b0 08 56
        E 11 b0 08 59
        E 11 b0 08 5b
        E 11 b0 08 5d
        E 11 b0 08 5f
        E 11 b0 08 62
        E 11 b0 08 63
        E 11 b0 08 65
        E 11 b0 08 67
        E 11 b0 08 69
        E 11 b0 08 6a
        E 11 b0 08 6c
        E 11 b0 08 6c
        E 11 b0 08 6d
        E 11 b0 08 6e
        E 11 b0 08 6f
        E 11 b0 08 70
        E 11 b0 08 71
        E 11 b0 08 71
        E 11 b0 08 72
        E 11 b0 08 72
        E 11 b0 08 72
        E 11 b0 08 72
        E 11 b0 08 72
        E 11 b0 08 71
        E 11 b0 08 71
        E 11 b0 08 70
        E 11 b0 08 6f
        E 11 b0 08 6e
        E 11 b0 08 6d
        E 11 b0 08 6c
        E 11 b0 08 6b
        E 11 b0 08 69
        E 11 b0 08 68
        E 11 b0 08 66
        E 11 b0 08 64
        E 11 b0 08 63
        E 11 b0 08 61
        E 11 b0 08 5e
        E 11 b0 08 5c
        E 11 b0 08 5a
        E 11 b0 08 58
        E 11 b0 08 55
        E 11 b0 08 52
        E 11 b0 08 50
        E 11 b0 08 4e
        E 11 b0 08 4b
        E 11 b0 08 48
        E 11 b0 08 46
        E 11 b0 08 42
        E 11 b0 08 3f
        E 11 b0 08 3d
        E 11 b0 08 3a
        E 11 b0 08 37
        E 11 b0 08 35
        E 11 b0 08 32
        E 11 b0 08 2f
        E 11 b0 08 2c
        E 11 b0 08 29
        E 11 b0 08 26
        E 11 b0 08 24
        E 11 b0 08 22
        E 11 b0 08 1f
        E 11 b0 08 1c
        E 11 b0 08 1a
        E 11 b0 08 18
        E 11 b0 08 15
        E 11 b0 08 13
        E 11 b0 08 11
        E 11 b0 08 0f
        E 11 b0 08 0d
        E 11 b0 08 0b
        E 11 b0 08 09
        E 11 b0 08 09
        E 11 b0 08 07
        E 11 b0 08 06
        E 11 b0 08 04
        E 11 b0 08 03
        E 11 b0 08 02
        E 11 b0 08 01
        E 11 b0 08 00
        E 11 b0 08 00
        E 11 b0 08 00
        E 11 b0 08 00
        E 11 b0 08 00
        E 11 b0 08 00
        E 11 b0 08 00
        E 11 b0 08 00
        E 11 b0 08 00
        E 11 b0 08 01
        E 11 b0 08 02
        E 11 b0 08 03
        E 11 b0 08 04
        E 11 b0 08 05
        E 11 b0 08 06
        E 11 b0 08 08
        E 11 b0 08 09
        E 11 b0 08 0a
        E 11 b0 08 0c
        E 11 b0 08 0e
        E 11 b0 08 10
        E 11 b0 08 12
        E 11 b0 08 14
        E 11 b0 08 16
        E 11 b0 08 19
        E 11 b0 08 1b
        E 11 b0 08 1d
        E 11 b0 08 20
        E 11 b0 08 23
        E 11 b0 08 25
        E 11 b0 08 28
        E 11 b0 08 2b
        E 11 b0 08 2d
        E 11 b0 08 30
        E 11 b0 08 33
        E 11 b0 08 36
        E 11 b0 08 39
        E 8 b0 08 20
        E 8 b0 08 21
        E 8 b0 08 23
        E 8 b0 08 24
        E 8 b0 08 26
        E 8 b0 08 27
        E 8 b0 08 29
        E 8 b0 08 2a
        E 8 b0 08 2c
        E 8 b0 08 2d
        E 8 b0 08 2f
        E 8 b0 08 30
        E 8 b0 08 31
        E 8 b0 08 33
        E 8 b0 08 34
        E 8 b0 08 35
        E 8 b0 08 36
        E 8 b0 08 37
        E 8 b0 08 38
        E 8 b0 08 39
        E 8 b0 08 3a
        E 8 b0 08 3b
        E 8 b0 08 3c
        E 8 b0 08 3c
        E 8 b0 08 3d
        E 8 b0 08 3d
        E 8 b0 08 3e
        E 8 b0 08 3e
        E 8 b0 08 3f
        E 8 b0 08 3f
        E 8 b0 08 3f
        E 8 b0 08 3f
        E 8 b0 08 3f
        E 8 b0 08 3f
        E 8 b0 08 3f
        E 8 b0 08 3f
        E 8 b0 08 3f
        E 8 b0 08 3e
        E 8 b0 08 3e
        E 8 b0 08 3d
        E 8 b0 08 3d
        E 8 b0 08 3c
        E 8 b0 08 3b
        E 8 b0 08 3a
        E 8 b0 08 3a
        E 8 b0 08 39
        E 8 b0 08 38
        E 8 b0 08 37
        E 8 b0 08 36
        E 8 b0 08 34
        E 8 b0 08 33
        E 8 b0 08 32
        E 8 b0 08 31
        E 8 b0 08 2f
        E 8 b0 08 2e
        E 8 b0 08 2c
        E 8 b0 08 2b
        E 8 b0 08 2a
        E 8 b0 08 28
        E 8 b0 08 27
        E 8 b0 08 25
        E 8 b0 08 23
        E 8 b0 08 22
        E 8 b0 08 20
        E 8 b0 08 1f
        E 8 b0 08 1d
        E 8 b0 08 1c
        E 8 b0 08 1a
        E 8 b0 08 18
        E 8 b0 08 17
        E 8 b0 08 15
        E 8 b0 08 14
        E 8 b0 08 13
        E 8 b0 08 11
        E 8 b0 08 10
        E 8 b0 08 0e
        E 8 b0 08 0d
        E 8 b0 08 0c
        E 8 b0 08 0b
        E 8 b0 08 09
        E 8 b0 08 08
        E 8 b0 08 07
        E 8 b0 08 06
        E 8 b0 08 05
        E 8 b0 08 05
        E 8 b0 08 04
        E 8 b0 08 03
        E 8 b0 08 02
        E 8 b0 08 02
        E 8 b0 08 01
        E 8 b0 08 01
        E 8 b0 08 00
        E 8 b0 08 00
        E 8 b0 08 00
        E 8 b0 08 00
        E 8 b0 08 00
        E 8 b0 08 00
        E 8 b0 08 00
        E 8 b0 08 00
        E 8 b0 08 00
        E 8 b0 08 01
        E 8 b0 08 01
        E 8 b0 08 02
        E 8 b0 08 02
        E 8 b0 08 03
        E 8 b0 08 03
        E 8 b0 08 04
        E 8 b0 08 05
        E 8 b0 08 06
        E 8 b0 08 07
        E 8 b0 08 08
        E 8 b0 08 09
        E 8 b0 08 0a
        E 8 b0 08 0b
        E 8 b0 08 0c
        E 8 b0 08 0e
        E 8 b0 08 0f
        E 8 b0 08 10
        E 8 b0 08 12
        E 8 b0 08 13
        E 8 b0 08 15
        E 8 b0 08 16
        E 8 b0 08 18
        E 8 b0 08 19
        E 8 b0 08 1b
        E 8 b0 08 1c
        E 8 b0 08 1e
        E 8 b0 08 20
        E 8 b0 08 20
        E 8 b0 08 21
        E 8 b0 08 23
        E 8 b0 08 24
        E 8 b0 08 26
        E 8 b0 08 27
        E 8 b0 08 29
        E 8 b0 08 2a
        E 8 b0 08 2c
        E 8 b0 08 2d
        E 8 b0 08 2f
        E 8 b0 08 30
        E 8 b0 08 31
        E 8 b0 08 33
        E 8 b0 08 34
        E 8 b0 08 35
        E 8 b0 08 36
        E 8 b0 08 37
        E 8 b0 08 38
        E 8 b0 08 39
        E 8 b0 08 3a
        E 8 b0 08 3b
        E 8 b0 08 3c
        E 8 b0 08 3c
        E 8 b0 08 3d
        E 8 b0 08 3d
        E 8 b0 08 3e
        E 8 b0 08 3e
        E 8 b0 08 3f
        E 8 b0 08 3f
        E 8 b0 08 3f
        E 8 b0 08 3f
        E 8 b0 08 3f
        E 8 b0 08 3f
        E 8 b0 08 3f
        E 8 b0 08 3f
        E 8 b0 08 3f
        E 8 b0 08 3e
        E 8 b0 08 3e
        E 8 b0 08 3d
        E 8 b0 08 3d
        E 8 b0 08 3c
        E 8 b0 08 3b
        E 8 b0 08 3a
        E 8 b0 08 3a
        E 8 b0 08 39
        E 8 b0 08 38
        E 8 b0 08 37
        E 8 b0 08 36
        E 8 b0 08 34
        E 8 b0 08 33
        E 8 b0 08 32
        E 8 b0 08 31
        E 8 b0 08 2f
        E 8 b0 08 2e
        E 8 b0 08 2c
        E 8 b0 08 2b
        E 8 b0 08 2a
        E 8 b0 08 28
        E 8 b0 08 27
        E 8 b0 08 25
        E 8 b0 08 23
        E 8 b0 08 22
        E 8 b0 08 20
        E 8 b0 08 1f
        E 8 b0 08 1d
        E 8 b0 08 1c
        E 8 b0 08 1a
        E 8 b0 08 18
        E 8 b0 08 17
        E 8 b0 08 15
        E 8 b0 08 14
        E 8 b0 08 13
        E 8 b0 08 11
        E 8 b0 08 10
        E 8 b0 08 0e
        E 8 b0 08 0d
        E 8 b0 08 0c
        E 8 b0 08 0b
        E 8 b0 08 09
        E 8 b0 08 08
        E 8 b0 08 07
        E 8 b0 08 06
        E 8 b0 08 05
        E 8 b0 08 05
        E 8 b0 08 04
        E 8 b0 08 03
        E 8 b0 08 02
        E 8 b0 08 02
        E 8 b0 08 01
        E 8 b0 08 01
        E 8 b0 08 00
        E 8 b0 08 00
        E 8 b0 08 00
        E 8 b0 08 00
        E 8 b0 08 00
        E 8 b0 08 00
        E 8 b0 08 00
        E 8 b0 08 00
        E 8 b0 08 00
        E 8 b0 08 01
        E 8 b0 08 01
        E 8 b0 08 02
        E 8 b0 08 02
        E 8 b0 08 03
        E 8 b0 08 03
        E 8 b0 08 04
        E 8 b0 08 05
        E 8 b0 08 06
        E 8 b0 08 07
        E 8 b0 08 08
        E 8 b0 08 09
        E 8 b0 08 0a
        E 8 b0 08 0b
        E 8 b0 08 0c
        E 8 b0 08 0e
        E 8 b0 08 0f
        E 8 b0 08 10
        E 8 b0 08 12
        E 8 b0 08 13
        E 8 b0 08 15
        E 8 b0 08 16
        E 8 b0 08 18
        E 8 b0 08 19
        E 8 b0 08 1b
        E 8 b0 08 1c
        E 8 b0 08 1e
        E 8 b0 08 20
        E 17 b0 08 2c
        E 17 b0 08 2e
        E 17 b0 08 31
        E 17 b0 08 33
        E 17 b0 08 35
        E 17 b0 08 37
        E 17 b0 08 39
        E 17 b0 08 3b
        E 17 b0 08 3d
        E 17 b0 08 3f
        E 17 b0 08 41
        E 17 b0 08 43
        E 17 b0 08 45
        E 17 b0 08 47
        E 17 b0 08 48
        E 17 b0 08 4a
        E 17 b0 08 4c
        E 17 b0 08 4d
        E 17 b0 08 4f
        E 17 b0 08 50
        E 17 b0 08 51
        E 17 b0 08 52
        E 17 b0 08 54
        E 17 b0 08 54
        E 17 b0 08 55
        E 17 b0 08 56
        E 17 b0 08 56
        E 17 b0 08 57
        E 17 b0 08 58
        E 17 b0 08 58
        E 17 b0 08 58
        E 17 b0 08 58
        E 17 b0 08 58
        E 17 b0 08 58
        E 17 b0 08 58
        E 17 b0 08 58
        E 17 b0 08 58
        E 17 b0 08 57
        E 17 b0 08 56
        E 17 b0 08 56
        E 17 b0 08 55
        E 17 b0 08 54
        E 17 b0 08 53
        E 17 b0 08 51
        E 17 b0 08 51
        E 17 b0 08 4f
        E 17 b0 08 4e
        E 17 b0 08 4d
        E 17 b0 08 4b
        E 17 b0 08 49
        E 17 b0 08 48
        E 17 b0 08 46
        E 17 b0 08 44
        E 17 b0 08 42
        E 17 b0 08 40
        E 17 b0 08 3e
        E 17 b0 08 3c
        E 17 b0 08 3a
        E 17 b0 08 38
        E 17 b0 08 36
        E 17 b0 08 33
        E 17 b0 08 31
        E 17 b0 08 2f
        E 17 b0 08 2d
        E 17 b0 08 2b
        E 17 b0 08 29
        E 17 b0 08 27
        E 17 b0 08 25
        E 17 b0 08 22
        E 17 b0 08 20
        E 17 b0 08 1e
        E 17 b0 08 1c
        E 17 b0 08 1a
        E 17 b0 08 18
        E 17 b0 08 16
        E 17 b0 08 14
        E 17 b0 08 12
        E 17 b0 08 10
        E 17 b0 08 0f
        E 17 b0 08 0d
        E 17 b0 08 0b
        E 17 b0 08 0a
        E 17 b0 08 09
        E 17 b0 08 07
        E 17 b0 08 07
        E 17 b0 08 05
        E 17 b0 08 04
        E 17 b0 08 03
        E 17 b0 08 02
        E 17 b0 08 02
        E 17 b0 08 01
        E 17 b0 08 00
        E 17 b0 08 00
        E 17 b0 08 00
        E 17 b0 08 00
        E 17 b0 08 00
        E 17 b0 08 00
        E 17 b0 08 00
        E 17 b0 08 00
        E 17 b0 08 00
        E 17 b0 08 01
        E 17 b0 08 02
        E 17 b0 08 02
        E 17 b0 08 03
        E 17 b0 08 04
        E 17 b0 08 04
        E 17 b0 08 06
        E 17 b0 08 07
        E 17 b0 08 08
        E 17 b0 08 09
        E 17 b0 08 0b
        E 17 b0 08 0c
        E 17 b0 08 0e
        E 17 b0 08 10
        E 17 b0 08 11
        E 17 b0 08 13
        E 17 b0 08 15
        E 17 b0 08 17
        E 17 b0 08 19
        E 17 b0 08 1b
        E 17 b0 08 1d
        E 17 b0 08 1f
        E 17 b0 08 21
        E 17 b0 08 23
        E 17 b0 08 25
        E 17 b0 08 27
        E 17 b0 08 2a
        E 17 b0 08 2c
        E 15 b0 08 33
        E 15 b0 08 35
        E 15 b0 08 37
        E 15 b0 08 3a
        E 15 b0 08 3c
        E 15 b0 08 3f
        E 15 b0 08 41
        E 15 b0 08 44
        E 15 b0 08 46
        E 15 b0 08 48
        E 15 b0 08 4b
        E 15 b0 08 4c
        E 15 b0 08 4f
        E 15 b0 08 51
        E 15 b0 08 53
        E 15 b0 08 54
        E 15 b0 08 57
        E 15 b0 08 58
        E 15 b0 08 5a
        E 15 b0 08 5b
        E 15 b0 08 5d
        E 15 b0 08 5e
        E 15 b0 08 5f
        E 15 b0 08 60
        E 15 b0 08 61
        E 15 b0 08 62
        E 15 b0 08 63
        E 15 b0 08 63
        E 15 b0 08 64
        E 15 b0 08 64
        E 15 b0 08 65
        E 15 b0 08 65
        E 15 b0 08 65
        E 15 b0 08 65
        E 15 b0 08 65
        E 15 b0 08 64
        E 15 b0 08 64
        E 15 b0 08 63
        E 15 b0 08 63
        E 15 b0 08 62
        E 15 b0 08 61
        E 15 b0 08 5f
        E 15 b0 08 5f
        E 15 b0 08 5d
        E 15 b0 08 5c
        E 15 b0 08 5b
        E 15 b0 08 59
        E 15 b0 08 57
        E 15 b0 08 56
        E 15 b0 08 54
        E 15 b0 08 52
        E 15 b0 08 50
        E 15 b0 08 4e
        E 15 b0 08 4c
        E 15 b0 08 49
        E 15 b0 08 47
        E 15 b0 08 45
        E 15 b0 08 43
        E 15 b0 08 40
        E 15 b0 08 3e
        E 15 b0 08 3b
        E 15 b0 08 38
        E 15 b0 08 36
        E 15 b0 08 33
        E 15 b0 08 31
        E 15 b0 08 2f
        E 15 b0 08 2c
        E 15 b0 08 2a
        E 15 b0 08 27
        E 15 b0 08 24
        E 15 b0 08 22
        E 15 b0 08 1f
        E 15 b0 08 1e
        E 15 b0 08 1b
        E 15 b0 08 19
        E 15 b0 08 17
        E 15 b0 08 15
        E 15 b0 08 13
        E 15 b0 08 11
        E 15 b0 08 0f
        E 15 b0 08 0d
        E 15 b0 08 0b
        E 15 b0 08 0a
        E 15 b0 08 08
        E 15 b0 08 07
        E 15 b0 08 06
        E 15 b0 08 05
        E 15 b0 08 03
        E 15 b0 08 03
        E 15 b0 08 02
        E 15 b0 08 01
        E 15 b0 08 00
        E 15 b0 08 00
        E 15 b0 08 00
        E 15 b0 08 00
        E 15 b0 08 00
        E 15 b0 08 00
        E 15 b0 08 00
        E 15 b0 08 00
        E 15 b0 08 00
        E 15 b0 08 01
        E 15 b0 08 02
        E 15 b0 08 03
        E 15 b0 08 03
        E 15 b0 08 04
        E 15 b0 08 05
        E 15 b0 08 07
        E 15 b0 08 07
        E 15 b0 08 09
        E 15 b0 08 0b
        E 15 b0 08 0c
        E 15 b0 08 0e
        E 15 b0 08 10
        E 15 b0 08 12
        E 15 b0 08 14
        E 15 b0 08 16
        E 15 b0 08 18
        E 15 b0 08 1a
        E 15 b0 08 1c
        E 15 b0 08 1f
        E 15 b0 08 21
        E 15 b0 08 24
        E 15 b0 08 26
        E 15 b0 08 28
        E 15 b0 08 2b
        E 15 b0 08 2d
        E 15 b0 08 2f
        E 15 b0 08 33
        E 17 b0 08 06
        E 17 b0 08 06
        E 17 b0 08 07
        E 17 b0 08 07
        E 17 b0 08 07
        E 17 b0 08 07
        E 17 b0 08 08
        E 17 b0 08 08
        E 17 b0 08 08
        E 17 b0 08 09
        E 17 b0 08 09
        E 17 b0 08 09
        E 17 b0 08 09
        E 17 b0 08 0a
        E 17 b0 08 0a
        E 17 b0 08 0a
        E 17 b0 08 0a
        E 17 b0 08 0b
        E 17 b0 08 0b
        E 17 b0 08 0b
        E 17 b0 08 0b
        E 17 b0 08 0b
        E 17 b0 08 0c
        E 17 b0 08 0c
        E 17 b0 08 0c
        E 17 b0 08 0c
        E 17 b0 08 0c
        E 17 b0 08 0c
        E 17 b0 08 0c
        E 17 b0 08 0c
        E 17 b0 08 0c
        E 17 b0 08 0c
        E 17 b0 08 0c
        E 17 b0 08 0c
        E 17 b0 08 0c
        E 17 b0 08 0c
        E 17 b0 08 0c
        E 17 b0 08 0c
        E 17 b0 08 0c
        E 17 b0 08 0c
        E 17 b0 08 0c
        E 17 b0 08 0c
        E 17 b0 08 0b
        E 17 b0 08 0b
        E 17 b0 08 0b
        E 17 b0 08 0b
        E 17 b0 08 0b
        E 17 b0 08 0b
        E 17 b0 08 0a
        E 17 b0 08 0a
        E 17 b0 08 0a
        E 17 b0 08 0a
        E 17 b0 08 09
        E 17 b0 08 09
        E 17 b0 08 09
        E 17 b0 08 08
        E 17 b0 08 08
        E 17 b0 08 08
        E 17 b0 08 08
        E 17 b0 08 07
        E 17 b0 08 07
        E 17 b0 08 07
        E 17 b0 08 06
        E 17 b0 08 06
        E 17 b0 08 06
        E 17 b0 08 05
        E 17 b0 08 05
        E 17 b0 08 05
        E 17 b0 08 04
        E 17 b0 08 04
        E 17 b0 08 04
        E 17 b0 08 04
        E 17 b0 08 03
        E 17 b0 08 03
        E 17 b0 08 03
        E 17 b0 08 02
        E 17 b0 08 02
        E 17 b0 08 02
        E 17 b0 08 02
        E 17 b0 08 01
        E 17 b0 08 01
        E 17 b0 08 01
        E 17 b0 08 01
        E 17 b0 08 01
        E 17 b0 08 01
        E 17 b0 08 00
        E 17 b0 08 00
        E 17 b0 08 00
        E 17 b0 08 00
        E 17 b0 08 00
        E 17 b0 08 00
        E 17 b0 08 00
        E 17 b0 08 00
        E 17 b0 08 00
        E 17 b0 08 00
        E 17 b0 08 00
        E 17 b0 08 00
        E 17 b0 08 00
        E 17 b0 08 00
        E 17 b0 08 00
        E 17 b0 08 00
        E 17 b0 08 00
        E 17 b0 08 00
        E 17 b0 08 00
        E 17 b0 08 00
        E 17 b0 08 00
        E 17 b0 08 00
        E 17 b0 08 01
        E 17 b0 08 01
        E 17 b0 08 01
        E 17 b0 08 01
        E 17 b0 08 01
        E 17 b0 08 02
        E 17 b0 08 02
        E 17 b0 08 02
        E 17 b0 08 02
        E 17 b0 08 03
        E 17 b0 08 03
        E 17 b0 08 03
        E 17 b0 08 03
        E 17 b0 08 04
        E 17 b0 08 04
        E 17 b0 08 04
        E 17 b0 08 05
        E 17 b0 08 05
        E 17 b0 08 05
        E 17 b0 08 06
        E 17 b0 08 06
        E 15 b0 08 19
        E 15 b0 08 1a
        E 15 b0 08 1c
        E 15 b0 08 1d
        E 15 b0 08 1e
        E 15 b0 08 1f
        E 15 b0 08 20
        E 15 b0 08 22
        E 15 b0 08 23
        E 15 b0 08 24
        E 15 b0 08 25
        E 15 b0 08 26
        E 15 b0 08 27
        E 15 b0 08 28
        E 15 b0 08 29
        E 15 b0 08 2a
        E 15 b0 08 2b
        E 15 b0 08 2c
        E 15 b0 08 2d
        E 15 b0 08 2e
        E 15 b0 08 2e
        E 15 b0 08 2f
        E 15 b0 08 30
        E 15 b0 08 30
        E 15 b0 08 30
        E 15 b0 08 31
        E 15 b0 08 31
        E 15 b0 08 32
        E 15 b0 08 32
        E 15 b0 08 32
        E 15 b0 08 32
        E 15 b0 08 32
        E 15 b0 08 32
        E 15 b0 08 32
        E 15 b0 08 32
        E 15 b0 08 32
        E 15 b0 08 32
        E 15 b0 08 32
        E 15 b0 08 31
        E 15 b0 08 31
        E 15 b0 08 30
        E 15 b0 08 30
        E 15 b0 08 2f
        E 15 b0 08 2e
        E 15 b0 08 2e
        E 15 b0 08 2d
        E 15 b0 08 2c
        E 15 b0 08 2c
        E 15 b0 08 2b
        E 15 b0 08 2a
        E 15 b0 08 29
        E 15 b0 08 28
        E 15 b0 08 27
        E 15 b0 08 26
        E 15 b0 08 24
        E 15 b0 08 23
        E 15 b0 08 22
        E 15 b0 08 21
        E 15 b0 08 20
        E 15 b0 08 1f
        E 15 b0 08 1d
        E 15 b0 08 1c
        E 15 b0 08 1b
        E 15 b0 08 1a
        E 15 b0 08 18
        E 15 b0 08 17
        E 15 b0 08 16
        E 15 b0 08 15
        E 15 b0 08 13
        E 15 b0 08 12
        E 15 b0 08 11
        E 15 b0 08 10
        E 15 b0 08 0f
        E 15 b0 08 0e
        E 15 b0 08 0c
        E 15 b0 08 0b
        E 15 b0 08 0a
        E 15 b0 08 09
        E 15 b0 08 08
        E 15 b0 08 07
        E 15 b0 08 06
        E 15 b0 08 06
        E 15 b0 08 05
        E 15 b0 08 04
        E 15 b0 08 04
        E 15 b0 08 03
        E 15 b0 08 02
        E 15 b0 08 02
        E 15 b0 08 01
        E 15 b0 08 01
        E 15 b0 08 00
        E 15 b0 08 00
        E 15 b0 08 00
        E 15 b0 08 00
        E 15 b0 08 00
        E 15 b0 08 00
        E 15 b0 08 00
        E 15 b0 08 00
        E 15 b0 08 00
        E 15 b0 08 00
        E 15 b0 08 00
        E 15 b0 08 01
        E 15 b0 08 01
        E 15 b0 08 02
        E 15 b0 08 02
        E 15 b0 08 02
        E 15 b0 08 03
        E 15 b0 08 04
        E 15 b0 08 04
        E 15 b0 08 05
        E 15 b0 08 06
        E 15 b0 08 07
        E 15 b0 08 08
        E 15 b0 08 09
        E 15 b0 08 0a
        E 15 b0 08 0b
        E 15 b0 08 0c
        E 15 b0 08 0d
        E 15 b0 08 0e
        E 15 b0 08 0f
        E 15 b0 08 10
        E 15 b0 08 12
        E 15 b0 08 13
        E 15 b0 08 14
        E 15 b0 08 15
        E 15 b0 08 16
        E 15 b0 08 18
        E 15 b0 08 19
        E 8 b0 08 2c
        E 8 b0 08 2e
        E 8 b0 08 31
        E 8 b0 08 33
        E 8 b0 08 35
        E 8 b0 08 37
        E 8 b0 08 39
        E 8 b0 08 3b
        E 8 b0 08 3d
        E 8 b0 08 3f
        E 8 b0 08 41
        E 8 b0 08 43
        E 8 b0 08 45
        E 8 b0 08 47
        E 8 b0 08 48
        E 8 b0 08 4a
        E 8 b0 08 4c
        E 8 b0 08 4d
        E 8 b0 08 4f
        E 8 b0 08 50
        E 8 b0 08 51
        E 8 b0 08 52
        E 8 b0 08 54
        E 8 b0 08 54
        E 8 b0 08 55
        E 8 b0 08 56
        E 8 b0 08 56
        E 8 b0 08 57
        E 8 b0 08 58
        E 8 b0 08 58
        E 8 b0 08 58
        E 8 b0 08 58
        E 8 b0 08 58
        E 8 b0 08 58
        E 8 b0 08 58
        E 8 b0 08 58
        E 8 b0 08 58
        E 8 b0 08 57
        E 8 b0 08 56
        E 8 b0 08 56
        E 8 b0 08 55
        E 8 b0 08 54
        E 8 b0 08 53
        E 8 b0 08 51
        E 8 b0 08 51
        E 8 b0 08 4f
        E 8 b0 08 4e
        E 8 b0 08 4d
        E 8 b0 08 4b
        E 8 b0 08 49
        E 8 b0 08 48
        E 8 b0 08 46
        E 8 b0 08 44
        E 8 b0 08 42
        E 8 b0 08 40
        E 8 b0 08 3e
        E 8 b0 08 3c
        E 8 b0 08 3a
        E 8 b0 08 38
        E 8 b0 08 36
        E 8 b0 08 33
        E 8 b0 08 31
        E 8 b0 08 2f
        E 8 b0 08 2d
        E 8 b0 08 2b
        E 8 b0 08 29
        E 8 b0 08 27
        E 8 b0 08 25
        E 8 b0 08 22
        E 8 b0 08 20
        E 8 b0 08 1e
        E 8 b0 08 1c
        E 8 b0 08 1a
        E 8 b0 08 18
        E 8 b0 08 16
        E 8 b0 08 14
        E 8 b0 08 12
        E 8 b0 08 10
        E 8 b0 08 0f
        E 8 b0 08 0d
        E 8 b0 08 0b
        E 8 b0 08 0a
        E 8 b0 08 09
        E 8 b0 08 07
        E 8 b0 08 07
        E 8 b0 08 05
        E 8 b0 08 04
        E 8 b0 08 03
        E 8 b0 08 02
        E 8 b0 08 02
        E 8 b0 08 01
        E 8 b0 08 00
        E 8 b0 08 00
        E 8 b0 08 00
        E 8 b0 08 00
        E 8 b0 08 00
        E 8 b0 08 00
        E 8 b0 08 00
        E 8 b0 08 00
        E 8 b0 08 00
        E 8 b0 08 01
        E 8 b0 08 02
        E 8 b0 08 02
        E 8 b0 08 03
        E 8 b0 08 04
        E 8 b0 08 04
        E 8 b0 08 06
        E 8 b0 08 07
        E 8 b0 08 08
        E 8 b0 08 09
        E 8 b0 08 0b
        E 8 b0 08 0c
        E 8 b0 08 0e
        E 8 b0 08 10
        E 8 b0 08 11
        E 8 b0 08 13
        E 8 b0 08 15
        E 8 b0 08 17
        E 8 b0 08 19
        E 8 b0 08 1b
        E 8 b0 08 1d
        E 8 b0 08 1f
        E 8 b0 08 21
        E 8 b0 08 23
        E 8 b0 08 25
        E 8 b0 08 27
        E 8 b0 08 2a
        E 8 b0 08 2c
        E 8 b0 08 20
        E 8 b0 08 21
        E 8 b0 08 23
        E 8 b0 08 24
        E 8 b0 08 26
        E 8 b0 08 27
        E 8 b0 08 29
        E 8 b0 08 2a
        E 8 b0 08 2c
        E 8 b0 08 2d
        E 8 b0 08 2f
        E 8 b0 08 30
        E 8 b0 08 31
        E 8 b0 08 33
        E 8 b0 08 34
        E 8 b0 08 35
        E 8 b0 08 36
        E 8 b0 08 37
        E 8 b0 08 38
        E 8 b0 08 39
        E 8 b0 08 3a
        E 8 b0 08 3b
        E 8 b0 08 3c
        E 8 b0 08 3c
        E 8 b0 08 3d
        E 8 b0 08 3d
        E 8 b0 08 3e
        E 8 b0 08 3e
        E 8 b0 08 3f
        E 8 b0 08 3f
        E 8 b0 08 3f
        E 8 b0 08 3f
        E 8 b0 08 3f
        E 8 b0 08 3f
        E 8 b0 08 3f
        E 8 b0 08 3f
        E 8 b0 08 3f
        E 8 b0 08 3e
        E 8 b0 08 3e
        E 8 b0 08 3d
        E 8 b0 08 3d
        E 8 b0 08 3c
        E 8 b0 08 3b
        E 8 b0 08 3a
        E 8 b0 08 3a
        E 8 b0 08 39
        E 8 b0 08 38
        E 8 b0 08 37
        E 8 b0 08 36
        E 8 b0 08 34
        E 8 b0 08 33
        E 8 b0 08 32
        E 8 b0 08 31
        E 8 b0 08 2f
        E 8 b0 08 2e
        E 8 b0 08 2c
        E 8 b0 08 2b
        E 8 b0 08 2a
        E 8 b0 08 28
        E 8 b0 08 27
        E 8 b0 08 25
        E 8 b0 08 23
        E 8 b0 08 22
        E 8 b0 08 20
        E 8 b0 08 1f
        E 8 b0 08 1d
        E 8 b0 08 1c
        E 8 b0 08 1a
        E 8 b0 08 18
        E 8 b0 08 17
        E 8 b0 08 15
        E 8 b0 08 14
        E 8 b0 08 13
        E 8 b0 08 11
        E 8 b0 08 10
        E 8 b0 08 0e
        E 8 b0 08 0d
        E 8 b0 08 0c
        E 8 b0 08 0b
        E 8 b0 08 09
        E 8 b0 08 08
        E 8 b0 08 07
        E 8 b0 08 06
        E 8 b0 08 05
        E 8 b0 08 05
        E 8 b0 08 04
        E 8 b0 08 03
        E 8 b0 08 02
        E 8 b0 08 02
        E 8 b0 08 01
        E 8 b0 08 01
        E 8 b0 08 00
        E 8 b0 08 00
        E 8 b0 08 00
        E 8 b0 08 00
        E 8 b0 08 00
        E 8 b0 08 00
        E 8 b0 08 00
        E 8 b0 08 00
        E 8 b0 08 00
        E 8 b0 08 01
        E 8 b0 08 01
        E 8 b0 08 02
        E 8 b0 08 02
        E 8 b0 08 03
        E 8 b0 08 03
        E 8 b0 08 04
        E 8 b0 08 05
        E 8 b0 08 06
        E 8 b0 08 07
        E 8 b0 08 08
        E 8 b0 08 09
        E 8 b0 08 0a
        E 8 b0 08 0b
        E 8 b0 08 0c
        E 8 b0 08 0e
        E 8 b0 08 0f
        E 8 b0 08 10
        E 8 b0 08 12
        E 8 b0 08 13
        E 8 b0 08 15
        E 8 b0 08 16
        E 8 b0 08 18
        E 8 b0 08 19
        E 8 b0 08 1b
        E 8 b0 08 1c
        E 8 b0 08 1e
        E 8 b0 08 20
        E 11 b0 08 20
        E 11 b0 08 21
        E 11 b0 08 23
        E 11 b0 08 24
        E 11 b0 08 26
        E 11 b0 08 27
        E 11 b0 08 29
        E 11 b0 08 2a
        E 11 b0 08 2c
        E 11 b0 08 2d
        E 11 b0 08 2f
        E 11 b0 08 30
        E 11 b0 08 31
        E 11 b0 08 33
        E 11 b0 08 34
        E 11 b0 08 35
        E 11 b0 08 36
        E 11 b0 08 37
        E 11 b0 08 38
        E 11 b0 08 39
        E 11 b0 08 3a
        E 11 b0 08 3b
        E 11 b0 08 3c
        E 11 b0 08 3c
        E 11 b0 08 3d
        E 11 b0 08 3d
        E 11 b0 08 3e
        E 11 b0 08 3e
        E 11 b0 08 3f
        E 11 b0 08 3f
        E 11 b0 08 3f
        E 11 b0 08 3f
        E 11 b0 08 3f
        E 11 b0 08 3f
        E 11 b0 08 3f
        E 11 b0 08 3f
        E 11 b0 08 3f
        E 11 b0 08 3e
        E 11 b0 08 3e
        E 11 b0 08 3d
        E 11 b0 08 3d
        E 11 b0 08 3c
        E 11 b0 08 3b
        E 11 b0 08 3a
        E 11 b0 08 3a
        E 11 b0 08 39
        E 11 b0 08 38
        E 11 b0 08 37
        E 11 b0 08 36
        E 11 b0 08 34
        E 11 b0 08 33
        E 11 b0 08 32
        E 11 b0 08 31
        E 11 b0 08 2f
        E 11 b0 08 2e
        E 11 b0 08 2c
        E 11 b0 08 2b
        E 11 b0 08 2a
        E 11 b0 08 28
        E 11 b0 08 27
        E 11 b0 08 25
        E 11 b0 08 23
        E 11 b0 08 22
        E 11 b0 08 20
        E 11 b0 08 1f
        E 11 b0 08 1d
        E 11 b0 08 1c
        E 11 b0 08 1a
        E 11 b0 08 18
        E 11 b0 08 17
        E 11 b0 08 15
        E 11 b0 08 14
        E 11 b0 08 13
        E 11 b0 08 11
        E 11 b0 08 10
        E 11 b0 08 0e
        E 11 b0 08 0d
        E 11 b0 08 0c
        E 11 b0 08 0b
        E 11 b0 08 09
        E 11 b0 08 08
        E 11 b0 08 07
        E 11 b0 08 06
        E 11 b0 08 05
        E 11 b0 08 05
        E 11 b0 08 04
        E 11 b0 08 03
        E 11 b0 08 02
        E 11 b0 08 02
        E 11 b0 08 01
        E 11 b0 08 01
        E 11 b0 08 00
        E 11 b0 08 00
        E 11 b0 08 00
        E 11 b0 08 00
        E 11 b0 08 00
        E 11 b0 08 00
        E 11 b0 08 00
        E 11 b0 08 00
        E 11 b0 08 00
        E 11 b0 08 01
        E 11 b0 08 01
        E 11 b0 08 02
        E 11 b0 08 02
        E 11 b0 08 03
        E 11 b0 08 03
        E 11 b0 08 04
        E 11 b0 08 05
        E 11 b0 08 06
        E 11 b0 08 07
        E 11 b0 08 08
        E 11 b0 08 09
        E 11 b0 08 0a
        E 11 b0 08 0b
        E 11 b0 08 0c
        E 11 b0 08 0e
        E 11 b0 08 0f
        E 11 b0 08 10
        E 11 b0 08 12
        E 11 b0 08 13
        E 11 b0 08 15
        E 11 b0 08 16
        E 11 b0 08 18
        E 11 b0 08 19
        E 11 b0 08 1b
        E 11 b0 08 1c
        E 11 b0 08 1e
        E 11 b0 08 20
        E 13 b0 08 40
        E 13 b0 08 43
        E 13 b0 08 46
        E 13 b0 08 49
        E 13 b0 08 4c
        E 13 b0 08 4f
        E 13 b0 08 52
        E 13 b0 08 55
        E 13 b0 08 58
        E 13 b0 08 5b
        E 13 b0 08 5e
        E 13 b0 08 60
        E 13 b0 08 63
        E 13 b0 08 66
        E 13 b0 08 68
        E 13 b0 08 6a
        E 13 b0 08 6d
        E 13 b0 08 6f
        E 13 b0 08 71
        E 13 b0 08 73
        E 13 b0 08 75
        E 13 b0 08 76
        E 13 b0 08 78
        E 13 b0 08 79
        E 13 b0 08 7a
        E 13 b0 08 7b
        E 13 b0 08 7c
        E 13 b0 08 7d
        E 13 b0 08 7e
        E 13 b0 08 7e
        E 13 b0 08 7f
        E 13 b0 08 7f
        E 13 b0 08 7f
        E 13 b0 08 7f
        E 13 b0 08 7f
        E 13 b0 08 7e
        E 13 b0 08 7e
        E 13 b0 08 7d
        E 13 b0 08 7c
        E 13 b0 08 7b
        E 13 b0 08 7a
        E 13 b0 08 78
        E 13 b0 08 77
        E 13 b0 08 75
        E 13 b0 08 74
        E 13 b0 08 72
        E 13 b0 08 70
        E 13 b0 08 6e
        E 13 b0 08 6c
        E 13 b0 08 69
        E 13 b0 08 67
        E 13 b0 08 64
        E 13 b0 08 62
        E 13 b0 08 5f
        E 13 b0 08 5c
        E 13 b0 08 59
        E 13 b0 08 57
        E 13 b0 08 54
        E 13 b0 08 51
        E 13 b0 08 4e
        E 13 b0 08 4a
        E 13 b0 08 47
        E 13 b0 08 44
        E 13 b0 08 41
        E 13 b0 08 3e
        E 13 b0 08 3b
        E 13 b0 08 38
        E 13 b0 08 35
        E 13 b0 08 31
        E 13 b0 08 2e
        E 13 b0 08 2b
        E 13 b0 08 28
        E 13 b0 08 26
        E 13 b0 08 23
        E 13 b0 08 20
        E 13 b0 08 1d
        E 13 b0 08 1b
        E 13 b0 08 18
        E 13 b0 08 16
        E 13 b0 08 13
        E 13 b0 08 11
        E 13 b0 08 0f
        E 13 b0 08 0d
        E 13 b0 08 0b
        E 13 b0 08 0a
        E 13 b0 08 08
        E 13 b0 08 07
        E 13 b0 08 05
        E 13 b0 08 04
        E 13 b0 08 03
        E 13 b0 08 02
        E 13 b0 08 01
        E 13 b0 08 01
        E 13 b0 08 00
        E 13 b0 08 00
        E 13 b0 08 00
        E 13 b0 08 00
        E 13 b0 08 00
        E 13 b0 08 01
        E 13 b0 08 01
        E 13 b0 08 02
        E 13 b0 08 03
        E 13 b0 08 04
        E 13 b0 08 05
        E 13 b0 08 06
        E 13 b0 08 07
        E 13 b0 08 09
        E 13 b0 08 0a
        E 13 b0 08 0c
        E 13 b0 08 0e
        E 13 b0 08 10
        E 13 b0 08 12
        E 13 b0 08 15
        E 13 b0 08 17
        E 13 b0 08 19
        E 13 b0 08 1c
        E 13 b0 08 1f
        E 13 b0 08 21
        E 13 b0 08 24
        E 13 b0 08 27
        E 13 b0 08 2a
        E 13 b0 08 2d
        E 13 b0 08 30
        E 13 b0 08 33
        E 13 b0 08 36
        E 13 b0 08 39
        E 13 b0 08 3c
        E 13 b0 08 40
        E 11 b0 08 39
        E 11 b0 08 3c
        E 11 b0 08 3f
        E 11 b0 08 41
        E 11 b0 08 44
        E 11 b0 08 47
        E 11 b0 08 49
        E 11 b0 08 4c
        E 11 b0 08 4f
        E 11 b0 08 51
        E 11 b0 08 54
        E 11 b0 08 56
        E 11 b0 08 59
        E 11 b0 08 5b
        E 11 b0 08 5d
        E 11 b0 08 5f
        E 11 b0 08 62
        E 11 b0 08 63
        E 11 b0 08 65
        E 11 b0 08 67
        E 11 b0 08 69
        E 11 b0 08 6a
        E 11 b0 08 6c
        E 11 b0 08 6c
        E 11 b0 08 6d
        E 11 b0 08 6e
        E 11 b0 08 6f
        E 11 b0 08 70
        E 11 b0 08 71
        E 11 b0 08 71
        E 11 b0 08 72
        E 11 b0 08 72
        E 11 b0 08 72
        E 11 b0 08 72
        E 11 b0 08 72
        E 11 b0 08 71
        E 11 b0 08 71
        E 11 b0 08 70
        E 11 b0 08 6f
        E 11 b0 08 6e
        E 11 b0 08 6d
        E 11 b0 08 6c
        E 11 b0 08 6b
        E 11 b0 08 69
        E 11 b0 08 68
        E 11 b0 08 66
        E 11 b0 08 64
        E 11 b0 08 63
        E 11 b0 08 61
        E 11 b0 08 5e
        E 11 b0 08 5c
        E 11 b0 08 5a
        E 11 b0 08 58
        E 11 b0 08 55
        E 11 b0 08 52
        E 11 b0 08 50
        E 11 b0 08 4e
        E 11 b0 08 4b
        E 11 b0 08 48
        E 11 b0 08 46
        E 11 b0 08 42
        E 11 b0 08 3f
        E 11 b0 08 3d
        E 11 b0 08 3a
        E 11 b0 08 37
        E 11 b0 08 35
        E 11 b0 08 32
        E 11 b0 08 2f
        E 11 b0 08 2c
        E 11 b0 08 29
        E 11 b0 08 26
        E 11 b0 08 24
        E 11 b0 08 22
        E 11 b0 08 1f
        E 11 b0 08 1c
        E 11 b0 08 1a
        E 11 b0 08 18
        E 11 b0 08 15
        E 11 b0 08 13
        E 11 b0 08 11
        E 11 b0 08 0f
        E 11 b0 08 0d
        E 11 b0 08 0b
        E 11 b0 08 09
        E 11 b0 08 09
        E 11 b0 08 07
        E 11 b0 08 06
        E 11 b0 08 04
        E 11 b0 08 03
        E 11 b0 08 02
        E 11 b0 08 01
        E 11 b0 08 00
        E 11 b0 08 00
        E 11 b0 08 00
        E 11 b0 08 00
        E 11 b0 08 00
        E 11 b0 08 00
        E 11 b0 08 00
        E 11 b0 08 00
        E 11 b0 08 00
        E 11 b0 08 01
        E 11 b0 08 02
        E 11 b0 08 03
        E 11 b0 08 04
        E 11 b0 08 05
        E 11 b0 08 06
        E 11 b0 08 08
        E 11 b0 08 09
        E 11 b0 08 0a
        E 11 b0 08 0c
        E 11 b0 08 0e
        E 11 b0 08 10
        E 11 b0 08 12
        E 11 b0 08 14
        E 11 b0 08 16
        E 11 b0 08 19
        E 11 b0 08 1b
        E 11 b0 08 1d
        E 11 b0 08 20
        E 11 b0 08 23
        E 11 b0 08 25
        E 11 b0 08 28
        E 11 b0 08 2b
        E 11 b0 08 2d
        E 11 b0 08 30
        E 11 b0 08 33
        E 11 b0 08 36
        E 11 b0 08 39
        E 8 b0 08 20
        E 8 b0 08 21
        E 8 b0 08 23
        E 8 b0 08 24
        E 8 b0 08 26
        E 8 b0 08 27
        E 8 b0 08 29
        E 8 b0 08 2a
        E 8 b0 08 2c
        E 8 b0 08 2d
        E 8 b0 08 2f
        E 8 b0 08 30
        E 8 b0 08 31
        E 8 b0 08 33
        E 8 b0 08 34
        E 8 b0 08 35
        E 8 b0 08 36
        E 8 b0 08 37
        E 8 b0 08 38
        E 8 b0 08 39
        E 8 b0 08 3a
        E 8 b0 08 3b
        E 8 b0 08 3c
        E 8 b0 08 3c
        E 8 b0 08 3d
        E 8 b0 08 3d
        E 8 b0 08 3e
        E 8 b0 08 3e
        E 8 b0 08 3f
        E 8 b0 08 3f
        E 8 b0 08 3f
        E 8 b0 08 3f
        E 8 b0 08 3f
        E 8 b0 08 3f
        E 8 b0 08 3f
        E 8 b0 08 3f
        E 8 b0 08 3f
        E 8 b0 08 3e
        E 8 b0 08 3e
        E 8 b0 08 3d
        E 8 b0 08 3d
        E 8 b0 08 3c
        E 8 b0 08 3b
        E 8 b0 08 3a
        E 8 b0 08 3a
        E 8 b0 08 39
        E 8 b0 08 38
        E 8 b0 08 37
        E 8 b0 08 36
        E 8 b0 08 34
        E 8 b0 08 33
        E 8 b0 08 32
        E 8 b0 08 31
        E 8 b0 08 2f
        E 8 b0 08 2e
        E 8 b0 08 2c
        E 8 b0 08 2b
        E 8 b0 08 2a
        E 8 b0 08 28
        E 8 b0 08 27
        E 8 b0 08 25
        E 8 b0 08 23
        E 8 b0 08 22
        E 8 b0 08 20
        E 8 b0 08 1f
        E 8 b0 08 1d
        E 8 b0 08 1c
        E 8 b0 08 1a
        E 8 b0 08 18
        E 8 b0 08 17
        E 8 b0 08 15
        E 8 b0 08 14
        E 8 b0 08 13
        E 8 b0 08 11
        E 8 b0 08 10
        E 8 b0 08 0e
        E 8 b0 08 0d
        E 8 b0 08 0c
        E 8 b0 08 0b
        E 8 b0 08 09
        E 8 b0 08 08
        E 8 b0 08 07
        E 8 b0 08 06
        E 8 b0 08 05
        E 8 b0 08 05
        E 8 b0 08 04
        E 8 b0 08 03
        E 8 b0 08 02
        E 8 b0 08 02
        E 8 b0 08 01
        E 8 b0 08 01
        E 8 b0 08 00
        E 8 b0 08 00
        E 8 b0 08 00
        E 8 b0 08 00
        E 8 b0 08 00
        E 8 b0 08 00
        E 8 b0 08 00
        E 8 b0 08 00
        E 8 b0 08 00
        E 8 b0 08 01
        E 8 b0 08 01
        E 8 b0 08 02
        E 8 b0 08 02
        E 8 b0 08 03
        E 8 b0 08 03
        E 8 b0 08 04
        E 8 b0 08 05
        E 8 b0 08 06
        E 8 b0 08 07
        E 8 b0 08 08
        E 8 b0 08 09
        E 8 b0 08 0a
        E 8 b0 08 0b
        E 8 b0 08 0c
        E 8 b0 08 0e
        E 8 b0 08 0f
        E 8 b0 08 10
        E 8 b0 08 12
        E 8 b0 08 13
        E 8 b0 08 15
        E 8 b0 08 16
        E 8 b0 08 18
        E 8 b0 08 19
        E 8 b0 08 1b
        E 8 b0 08 1c
        E 8 b0 08 1e
        E 8 b0 08 20
        E 8 b0 08 20
        E 8 b0 08 21
        E 8 b0 08 23
        E 8 b0 08 24
        E 8 b0 08 26
        E 8 b0 08 27
        E 8 b0 08 29
        E 8 b0 08 2a
        E 8 b0 08 2c
        E 8 b0 08 2d
        E 8 b0 08 2f
        E 8 b0 08 30
        E 8 b0 08 31
        E 8 b0 08 33
        E 8 b0 08 34
        E 8 b0 08 35
        E 8 b0 08 36
        E 8 b0 08 37
        E 8 b0 08 38
        E 8 b0 08 39
        E 8 b0 08 3a
        E 8 b0 08 3b
        E 8 b0 08 3c
        E 8 b0 08 3c
        E 8 b0 08 3d
        E 8 b0 08 3d
        E 8 b0 08 3e
        E 8 b0 08 3e
        E 8 b0 08 3f
        E 8 b0 08 3f
        E 8 b0 08 3f
        E 8 b0 08 3f
        E 8 b0 08 3f
        E 8 b0 08 3f
        E 8 b0 08 3f
        E 8 b0 08 3f
        E 8 b0 08 3f
        E 8 b0 08 3e
        E 8 b0 08 3e
        E 8 b0 08 3d
        E 8 b0 08 3d
        E 8 b0 08 3c
        E 8 b0 08 3b
        E 8 b0 08 3a
        E 8 b0 08 3a
        E 8 b0 08 39
        E 8 b0 08 38
        E 8 b0 08 37
        E 8 b0 08 36
        E 8 b0 08 34
        E 8 b0 08 33
        E 8 b0 08 32
        E 8 b0 08 31
        E 8 b0 08 2f
        E 8 b0 08 2e
        E 8 b0 08 2c
        E 8 b0 08 2b
        E 8 b0 08 2a
        E 8 b0 08 28
        E 8 b0 08 27
        E 8 b0 08 25
        E 8 b0 08 23
        E 8 b0 08 22
        E 8 b0 08 20
        E 8 b0 08 1f
        E 8 b0 08 1d
        E 8 b0 08 1c
        E 8 b0 08 1a
        E 8 b0 08 18
        E 8 b0 08 17
        E 8 b0 08 15
        E 8 b0 08 14
        E 8 b0 08 13
        E 8 b0 08 11
        E 8 b0 08 10
        E 8 b0 08 0e
        E 8 b0 08 0d
        E 8 b0 08 0c
        E 8 b0 08 0b
        E 8 b0 08 09
        E 8 b0 08 08
        E 8 b0 08 07
        E 8 b0 08 06
        E 8 b0 08 05
        E 8 b0 08 05
        E 8 b0 08 04
        E 8 b0 08 03
        E 8 b0 08 02
        E 8 b0 08 02
        E 8 b0 08 01
        E 8 b0 08 01
        E 8 b0 08 00
        E 8 b0 08 00
        E 8 b0 08 00
        E 8 b0 08 00
        E 8 b0 08 00
        E 8 b0 08 00
        E 8 b0 08 00
        E 8 b0 08 00
        E 8 b0 08 00
        E 8 b0 08 01
        E 8 b0 08 01
        E 8 b0 08 02
        E 8 b0 08 02
        E 8 b0 08 03
        E 8 b0 08 03
        E 8 b0 08 04
        E 8 b0 08 05
        E 8 b0 08 06
        E 8 b0 08 07
        E 8 b0 08 08
        E 8 b0 08 09
        E 8 b0 08 0a
        E 8 b0 08 0b
        E 8 b0 08 0c
        E 8 b0 08 0e
        E 8 b0 08 0f
        E 8 b0 08 10
        E 8 b0 08 12
        E 8 b0 08 13
        E 8 b0 08 15
        E 8 b0 08 16
        E 8 b0 08 18
        E 8 b0 08 19
        E 8 b0 08 1b
        E 8 b0 08 1c
        E 8 b0 08 1e
        E 8 b0 08 20
        E 17 b0 08 2c
        E 17 b0 08 2e
        E 17 b0 08 31
        E 17 b0 08 33
        E 17 b0 08 35
        E 17 b0 08 37
        E 17 b0 08 39
        E 17 b0 08 3b
        E 17 b0 08 3d
        E 17 b0 08 3f
        E 17 b0 08 41
        E 17 b0 08 43
        E 17 b0 08 45
        E 17 b0 08 47
        E 17 b0 08 48
        E 17 b0 08 4a
        E 17 b0 08 4c
        E 17 b0 08 4d
        E 17 b0 08 4f
        E 17 b0 08 50
        E 17 b0 08 51
        E 17 b0 08 52
        E 17 b0 08 54
        E 17 b0 08 54
        E 17 b0 08 55
        E 17 b0 08 56
        E 17 b0 08 56
        E 17 b0 08 57
        E 17 b0 08 58
        E 17 b0 08 58
        E 17 b0 08 58
        E 17 b0 08 58
        E 17 b0 08 58
        E 17 b0 08 58
        E 17 b0 08 58
        E 17 b0 08 58
        E 17 b0 08 58
        E 17 b0 08 57
        E 17 b0 08 56
        E 17 b0 08 56
        E 17 b0 08 55
        E 17 b0 08 54
        E 17 b0 08 53
        E 17 b0 08 51
        E 17 b0 08 51
        E 17 b0 08 4f
        E 17 b0 08 4e
        E 17 b0 08 4d
        E 17 b0 08 4b
        E 17 b0 08 49
        E 17 b0 08 48
        E 17 b0 08 46
        E 17 b0 08 44
        E 17 b0 08 42
        E 17 b0 08 40
        E 17 b0 08 3e
        E 17 b0 08 3c
        E 17 b0 08 3a
        E 17 b0 08 38
        E 17 b0 08 36
        E 17 b0 08 33
        E 17 b0 08 31
        E 17 b0 08 2f
        E 17 b0 08 2d
        E 17 b0 08 2b
        E 17 b0 08 29
        E 17 b0 08 27
        E 17 b0 08 25
        E 17 b0 08 22
        E 17 b0 08 20
        E 17 b0 08 1e
        E 17 b0 08 1c
        E 17 b0 08 1a
        E 17 b0 08 18
        E 17 b0 08 16
        E 17 b0 08 14
        E 17 b0 08 12
        E 17 b0 08 10
        E 17 b0 08 0f
        E 17 b0 08 0d
        E 17 b0 08 0b
        E 17 b0 08 0a
        E 17 b0 08 09
        E 17 b0 08 07
        E 17 b0 08 07
        E 17 b0 08 05
        E 17 b0 08 04
        E 17 b0 08 03
        E 17 b0 08 02
        E 17 b0 08 02
        E 17 b0 08 01
        E 17 b0 08 00
        E 17 b0 08 00
        E 17 b0 08 00
        E 17 b0 08 00
        E 17 b0 08 00
        E 17 b0 08 00
        E 17 b0 08 00
        E 17 b0 08 00
        E 17 b0 08 00
        E 17 b0 08 01
        E 17 b0 08 02
        E 17 b0 08 02
        E 17 b0 08 03
        E 17 b0 08 04
        E 17 b0 08 04
        E 17 b0 08 06
        E 17 b0 08 07
        E 17 b0 08 08
        E 17 b0 08 09
        E 17 b0 08 0b
        E 17 b0 08 0c
        E 17 b0 08 0e
        E 17 b0 08 10
        E 17 b0 08 11
        E 17 b0 08 13
        E 17 b0 08 15
        E 17 b0 08 17
        E 17 b0 08 19
        E 17 b0 08 1b
        E 17 b0 08 1d
        E 17 b0 08 1f
        E 17 b0 08 21
        E 17 b0 08 23
        E 17 b0 08 25
        E 17 b0 08 27
        E 17 b0 08 2a
        E 17 b0 08 2c
        E 15 b0 08 33
        E 15 b0 08 35
        E 15 b0 08 37
        E 15 b0 08 3a
        E 15 b0 08 3c
        E 15 b0 08 3f
        E 15 b0 08 41
        E 15 b0 08 44
        E 15 b0 08 46
        E 15 b0 08 48
        E 15 b0 08 4b
        E 15 b0 08 4c
        E 15 b0 08 4f
        E 15 b0 08 51
        E 15 b0 08 53
        E 15 b0 08 54
        E 15 b0 08 57
        E 15 b0 08 58
        E 15 b0 08 5a
        E 15 b0 08 5b
        E 15 b0 08 5d
        E 15 b0 08 5e
        E 15 b0 08 5f
        E 15 b0 08 60
        E 15 b0 08 61
        E 15 b0 08 62
        E 15 b0 08 63
        E 15 b0 08 63
        E 15 b0 08 64
        E 15 b0 08 64
        E 15 b0 08 65
        E 15 b0 08 65
        E 15 b0 08 65
        E 15 b0 08 65
        E 15 b0 08 65
        E 15 b0 08 64
        E 15 b0 08 64
        E 15 b0 08 63
        E 15 b0 08 63
        E 15 b0 08 62
        E 15 b0 08 61
        E 15 b0 08 5f
        E 15 b0 08 5f
        E 15 b0 08 5d
        E 15 b0 08 5c
        E 15 b0 08 5b
        E 15 b0 08 59
        E 15 b0 08 57
        E 15 b0 08 56
        E 15 b0 08 54
        E 15 b0 08 52
        E 15 b0 08 50
        E 15 b0 08 4e
        E 15 b0 08 4c
        E 15 b0 08 49
        E 15 b0 08 47
        E 15 b0 08 45
        E 15 b0 08 43
        E 15 b0 08 40
        E 15 b0 08 3e
        E 15 b0 08 3b
        E 15 b0 08 38
        E 15 b0 08 36
        E 15 b0 08 33
        E 15 b0 08 31
        E 15 b0 08 2f
        E 15 b0 08 2c
        E 15 b0 08 2a
        E 15 b0 08 27
        E 15 b0 08 24
        E 15 b0 08 22
        E 15 b0 08 1f
        E 15 b0 08 1e
        E 15 b0 08 1b
        E 15 b0 08 19
        E 15 b0 08 17
        E 15 b0 08 15
        E 15 b0 08 13
        E 15 b0 08 11
        E 15 b0 08 0f
        E 15 b0 08 0d
        E 15 b0 08 0b
        E 15 b0 08 0a
        E 15 b0 08 08
        E 15 b0 08 07
        E 15 b0 08 06
        E 15 b0 08 05
        E 15 b0 08 03
        E 15 b0 08 03
        E 15 b0 08 02
        E 15 b0 08 01
        E 15 b0 08 00
        E 15 b0 08 00
        E 15 b0 08 00
        E 15 b0 08 00
        E 15 b0 08 00
        E 15 b0 08 00
        E 15 b0 08 00
        E 15 b0 08 00
        E 15 b0 08 00
        E 15 b0 08 01
        E 15 b0 08 02
        E 15 b0 08 03
        E 15 b0 08 03
        E 15 b0 08 04
        E 15 b0 08 05
        E 15 b0 08 07
        E 15 b0 08 07
        E 15 b0 08 09
        E 15 b0 08 0b
        E 15 b0 08 0c
        E 15 b0 08 0e
        E 15 b0 08 10
        E 15 b0 08 12
        E 15 b0 08 14
        E 15 b0 08 16
        E 15 b0 08 18
        E 15 b0 08 1a
        E 15 b0 08 1c
        E 15 b0 08 1f
        E 15 b0 08 21
        E 15 b0 08 24
        E 15 b0 08 26
        E 15 b0 08 28
        E 15 b0 08 2b
        E 15 b0 08 2d
        E 15 b0 08 2f
        E 15 b0 08 33
        E 17 b0 08 06
        E 17 b0 08 06
        E 17 b0 08 07
        E 17 b0 08 07
        E 17 b0 08 07
        E 17 b0 08 07
        E 17 b0 08 08
        E 17 b0 08 08
        E 17 b0 08 08
        E 17 b0 08 09
        E 17 b0 08 09
        E 17 b0 08 09
        E 17 b0 08 09
        E 17 b0 08 0a
        E 17 b0 08 0a
        E 17 b0 08 0a
        E 17 b0 08 0a
        E 17 b0 08 0b
        E 17 b0 08 0b
        E 17 b0 08 0b
        E 17 b0 08 0b
        E 17 b0 08 0b
        E 17 b0 08 0c
        E 17 b0 08 0c
        E 17 b0 08 0c
        E 17 b0 08 0c
        E 17 b0 08 0c
        E 17 b0 08 0c
        E 17 b0 08 0c
        E 17 b0 08 0c
        E 17 b0 08 0c
        E 17 b0 08 0c
        E 17 b0 08 0c
        E 17 b0 08 0c
        E 17 b0 08 0c
        E 17 b0 08 0c
        E 17 b0 08 0c
        E 17 b0 08 0c
        E 17 b0 08 0c
        E 17 b0 08 0c
        E 17 b0 08 0c
        E 17 b0 08 0c
        E 17 b0 08 0b
        E 17 b0 08 0b
        E 17 b0 08 0b
        E 17 b0 08 0b
        E 17 b0 08 0b
        E 17 b0 08 0b
        E 17 b0 08 0a
        E 17 b0 08 0a
        E 17 b0 08 0a
        E 17 b0 08 0a
        E 17 b0 08 09
        E 17 b0 08 09
        E 17 b0 08 09
        E 17 b0 08 08
        E 17 b0 08 08
        E 17 b0 08 08
        E 17 b0 08 08
        E 17 b0 08 07
        E 17 b0 08 07
        E 17 b0 08 07
        E 17 b0 08 06
        E 17 b0 08 06
        E 17 b0 08 06
        E 17 b0 08 05
        E 17 b0 08 05
        E 17 b0 08 05
        E 17 b0 08 04
        E 17 b0 08 04
        E 17 b0 08 04
        E 17 b0 08 04
        E 17 b0 08 03
        E 17 b0 08 03
        E 17 b0 08 03
        E 17 b0 08 02
        E 17 b0 08 02
        E 17 b0 08 02
        E 17 b0 08 02
        E 17 b0 08 01
        E 17 b0 08 01
        E 17 b0 08 01
        E 17 b0 08 01
        E 17 b0 08 01
        E 17 b0 08 01
        E 17 b0 08 00
        E 17 b0 08 00
        E 17 b0 08 00
        E 17 b0 08 00
        E 17 b0 08 00
        E 17 b0 08 00
        E 17 b0 08 00
        E 17 b0 08 00
        E 17 b0 08 00
        E 17 b0 08 00
        E 17 b0 08 00
        E 17 b0 08 00
        E 17 b0 08 00
        E 17 b0 08 00
        E 17 b0 08 00
        E 17 b0 08 00
        E 17 b0 08 00
        E 17 b0 08 00
        E 17 b0 08 00
        E 17 b0 08 00
        E 17 b0 08 00
        E 17 b0 08 00
        E 17 b0 08 01
        E 17 b0 08 01
        E 17 b0 08 01
        E 17 b0 08 01
        E 17 b0 08 01
        E 17 b0 08 02
        E 17 b0 08 02
        E 17 b0 08 02
        E 17 b0 08 02
        E 17 b0 08 03
        E 17 b0 08 03
        E 17 b0 08 03
        E 17 b0 08 03
        E 17 b0 08 04
        E 17 b0 08 04
        E 17 b0 08 04
        E 17 b0 08 05
        E 17 b0 08 05
        E 17 b0 08 05
        E 17 b0 08 06
        E 17 b0 08 06
        E 15 b0 08 19
        E 15 b0 08 1a
        E 15 b0 08 1c
        E 15 b0 08 1d
        E 15 b0 08 1e
        E 15 b0 08 1f
        E 15 b0 08 20
        E 15 b0 08 22
        E 15 b0 08 23
        E 15 b0 08 24
        E 15 b0 08 25
        E 15 b0 08 26
        E 15 b0 08 27
        E 15 b0 08 28
        E 15 b0 08 29
        E 15 b0 08 2a
        E 15 b0 08 2b
        E 15 b0 08 2c
        E 15 b0 08 2d
        E 15 b0 08 2e
        E 15 b0 08 2e
        E 15 b0 08 2f
        E 15 b0 08 30
        E 15 b0 08 30
        E 15 b0 08 30
        E 15 b0 08 31
        E 15 b0 08 31
        E 15 b0 08 32
        E 15 b0 08 32
        E 15 b0 08 32
        E 15 b0 08 32
        E 15 b0 08 32
        E 15 b0 08 32
        E 15 b0 08 32
        E 15 b0 08 32
        E 15 b0 08 32
        E 15 b0 08 32
        E 15 b0 08 32
        E 15 b0 08 31
        E 15 b0 08 31
        E 15 b0 08 30
        E 15 b0 08 30
        E 15 b0 08 2f
        E 15 b0 08 2e
        E 15 b0 08 2e
        E 15 b0 08 2d
        E 15 b0 08 2c
        E 15 b0 08 2c
        E 15 b0 08 2b
        E 15 b0 08 2a
        E 15 b0 08 29
        E 15 b0 08 28
        E 15 b0 08 27
        E 15 b0 08 26
        E 15 b0 08 24
        E 15 b0 08 23
        E 15 b0 08 22
        E 15 b0 08 21
        E 15 b0 08 20
        E 15 b0 08 1f
        E 15 b0 08 1d
        E 15 b0 08 1c
        E 15 b0 08 1b
        E 15 b0 08 1a
        E 15 b0 08 18
        E 15 b0 08 17
        E 15 b0 08 16
        E 15 b0 08 15
        E 15 b0 08 13
        E 15 b0 08 12
        E 15 b0 08 11
        E 15 b0 08 10
        E 15 b0 08 0f
        E 15 b0 08 0e
        E 15 b0 08 0c
        E 15 b0 08 0b
        E 15 b0 08 0a
        E 15 b0 08 09
        E 15 b0 08 08
        E 15 b0 08 07
        E 15 b0 08 06
        E 15 b0 08 06
        E 15 b0 08 05
        E 15 b0 08 04
        E 15 b0 08 04
        E 15 b0 08 03
        E 15 b0 08 02
        E 15 b0 08 02
        E 15 b0 08 01
        E 15 b0 08 01
        E 15 b0 08 00
        E 15 b0 08 00
        E 15 b0 08 00
        E 15 b0 08 00
        E 15 b0 08 00
        E 15 b0 08 00
        E 15 b0 08 00
        E 15 b0 08 00
        E 15 b0 08 00
        E 15 b0 08 00
        E 15 b0 08 00
        E 15 b0 08 01
        E 15 b0 08 01
        E 15 b0 08 02
        E 15 b0 08 02
        E 15 b0 08 02
        E 15 b0 08 03
        E 15 b0 08 04
        E 15 b0 08 04
        E 15 b0 08 05
        E 15 b0 08 06
        E 15 b0 08 07
        E 15 b0 08 08
        E 15 b0 08 09
        E 15 b0 08 0a
        E 15 b0 08 0b
        E 15 b0 08 0c
        E 15 b0 08 0d
        E 15 b0 08 0e
        E 15 b0 08 0f
        E 15 b0 08 10
        E 15 b0 08 12
        E 15 b0 08 13
        E 15 b0 08 14
        E 15 b0 08 15
        E 15 b0 08 16
        E 15 b0 08 18
        E 15 b0 08 19
        E 8 b0 08 2c
        E 8 b0 08 2e
        E 8 b0 08 31
        E 8 b0 08 33
        E 8 b0 08 35
        E 8 b0 08 37
        E 8 b0 08 39
        E 8 b0 08 3b
        E 8 b0 08 3d
        E 8 b0 08 3f
        E 8 b0 08 41
        E 8 b0 08 43
        E 8 b0 08 45
        E 8 b0 08 47
        E 8 b0 08 48
        E 8 b0 08 4a
        E 8 b0 08 4c
        E 8 b0 08 4d
        E 8 b0 08 4f
        E 8 b0 08 50
        E 8 b0 08 51
        E 8 b0 08 52
        E 8 b0 08 54
        E 8 b0 08 54
        E 8 b0 08 55
        E 8 b0 08 56
        E 8 b0 08 56
        E 8 b0 08 57
        E 8 b0 08 58
        E 8 b0 08 58
        E 8 b0 08 58
        E 8 b0 08 58
        E 8 b0 08 58
        E 8 b0 08 58
        E 8 b0 08 58
        E 8 b0 08 58
        E 8 b0 08 58
        E 8 b0 08 57
        E 8 b0 08 56
        E 8 b0 08 56
        E 8 b0 08 55
        E 8 b0 08 54
        E 8 b0 08 53
        E 8 b0 08 51
        E 8 b0 08 51
        E 8 b0 08 4f
        E 8 b0 08 4e
        E 8 b0 08 4d
        E 8 b0 08 4b
        E 8 b0 08 49
        E 8 b0 08 48
        E 8 b0 08 46
        E 8 b0 08 44
        E 8 b0 08 42
        E 8 b0 08 40
        E 8 b0 08 3e
        E 8 b0 08 3c
        E 8 b0 08 3a
        E 8 b0 08 38
        E 8 b0 08 36
        E 8 b0 08 33
        E 8 b0 08 31
        E 8 b0 08 2f
        E 8 b0 08 2d
        E 8 b0 08 2b
        E 8 b0 08 29
        E 8 b0 08 27
        E 8 b0 08 25
        E 8 b0 08 22
        E 8 b0 08 20
        E 8 b0 08 1e
        E 8 b0 08 1c
        E 8 b0 08 1a
        E 8 b0 08 18
        E 8 b0 08 16
        E 8 b0 08 14
        E 8 b0 08 12
        E 8 b0 08 10
        E 8 b0 08 0f
        E 8 b0 08 0d
        E 8 b0 08 0b
        E 8 b0 08 0a
        E 8 b0 08 09
        E 8 b0 08 07
        E 8 b0 08 07
        E 8 b0 08 05
        E 8 b0 08 04
        E 8 b0 08 03
        E 8 b0 08 02
        E 8 b0 08 02
        E 8 b0 08 01
        E 8 b0 08 00
        E 8 b0 08 00
        E 8 b0 08 00
        E 8 b0 08 00
        E 8 b0 08 00
        E 8 b0 08 00
        E 8 b0 08 00
        E 8 b0 08 00
        E 8 b0 08 00
        E 8 b0 08 01
        E 8 b0 08 02
        E 8 b0 08 02
        E 8 b0 08 03
        E 8 b0 08 04
        E 8 b0 08 04
        E 8 b0 08 06
        E 8 b0 08 07
        E 8 b0 08 08
        E 8 b0 08 09
        E 8 b0 08 0b
        E 8 b0 08 0c
        E 8 b0 08 0e
        E 8 b0 08 10
        E 8 b0 08 11
        E 8 b0 08 13
        E 8 b0 08 15
        E 8 b0 08 17
        E 8 b0 08 19
        E 8 b0 08 1b
        E 8 b0 08 1d
        E 8 b0 08 1f
        E 8 b0 08 21
        E 8 b0 08 23
        E 8 b0 08 25
        E 8 b0 08 27
        E 8 b0 08 2a
        E 8 b0 08 2c
        E 8 b0 08 20
        E 8 b0 08 21
        E 8 b0 08 23
        E 8 b0 08 24
        E 8 b0 08 26
        E 8 b0 08 27
        E 8 b0 08 29
        E 8 b0 08 2a
        E 8 b0 08 2c
        E 8 b0 08 2d
        E 8 b0 08 2f
        E 8 b0 08 30
        E 8 b0 08 31
        E 8 b0 08 33
        E 8 b0 08 34
        E 8 b0 08 35
        E 8 b0 08 36
        E 8 b0 08 37
        E 8 b0 08 38
        E 8 b0 08 39
        E 8 b0 08 3a
        E 8 b0 08 3b
        E 8 b0 08 3c
        E 8 b0 08 3c
        E 8 b0 08 3d
        E 8 b0 08 3d
        E 8 b0 08 3e
        E 8 b0 08 3e
        E 8 b0 08 3f
        E 8 b0 08 3f
        E 8 b0 08 3f
        E 8 b0 08 3f
        E 8 b0 08 3f
        E 8 b0 08 3f
        E 8 b0 08 3f
        E 8 b0 08 3f
        E 8 b0 08 3f
        E 8 b0 08 3e
        E 8 b0 08 3e
        E 8 b0 08 3d
        E 8 b0 08 3d
        E 8 b0 08 3c
        E 8 b0 08 3b
        E 8 b0 08 3a
        E 8 b0 08 3a
        E 8 b0 08 39
        E 8 b0 08 38
        E 8 b0 08 37
        E 8 b0 08 36
        E 8 b0 08 34
        E 8 b0 08 33
        E 8 b0 08 32
        E 8 b0 08 31
        E 8 b0 08 2f
        E 8 b0 08 2e
        E 8 b0 08 2c
        E 8 b0 08 2b
        E 8 b0 08 2a
        E 8 b0 08 28
        E 8 b0 08 27
        E 8 b0 08 25
        E 8 b0 08 23
        E 8 b0 08 22
        E 8 b0 08 20
        E 8 b0 08 1f
        E 8 b0 08 1d
        E 8 b0 08 1c
        E 8 b0 08 1a
        E 8 b0 08 18
        E 8 b0 08 17
        E 8 b0 08 15
        E 8 b0 08 14
        E 8 b0 08 13
        E 8 b0 08 11
        E 8 b0 08 10
        E 8 b0 08 0e
        E 8 b0 08 0d
        E 8 b0 08 0c
        E 8 b0 08 0b
        E 8 b0 08 09
        E 8 b0 08 08
        E 8 b0 08 07
        E 8 b0 08 06
        E 8 b0 08 05
        E 8 b0 08 05
        E 8 b0 08 04
        E 8 b0 08 03
        E 8 b0 08 02
        E 8 b0 08 02
        E 8 b0 08 01
        E 8 b0 08 01
        E 8 b0 08 00
        E 8 b0 08 00
        E 8 b0 08 00
        E 8 b0 08 00
        E 8 b0 08 00
        E 8 b0 08 00
        E 8 b0 08 00
        E 8 b0 08 00
        E 8 b0 08 00
        E 8 b0 08 01
        E 8 b0 08 01
        E 8 b0 08 02
        E 8 b0 08 02
        E 8 b0 08 03
        E 8 b0 08 03
        E 8 b0 08 04
        E 8 b0 08 05
        E 8 b0 08 06
        E 8 b0 08 07
        E 8 b0 08 08
        E 8 b0 08 09
        E 8 b0 08 0a
        E 8 b0 08 0b
        E 8 b0 08 0c
        E 8 b0 08 0e
        E 8 b0 08 0f
        E 8 b0 08 10
        E 8 b0 08 12
        E 8 b0 08 13
        E 8 b0 08 15
        E 8 b0 08 16
        E 8 b0 08 18
        E 8 b0 08 19
        E 8 b0 08 1b
        E 8 b0 08 1c
        E 8 b0 08 1e
        E 8 b0 08 20
        E 11 b0 08 20
        E 11 b0 08 21
        E 11 b0 08 23
        E 11 b0 08 24
        E 11 b0 08 26
        E 11 b0 08 27
        E 11 b0 08 29
        E 11 b0 08 2a
        E 11 b0 08 2c
        E 11 b0 08 2d
        E 11 b0 08 2f
        E 11 b0 08 30
        E 11 b0 08 31
        E 11 b0 08 33
        E 11 b0 08 34
        E 11 b0 08 35
        E 11 b0 08 36
        E 11 b0 08 37
        E 11 b0 08 38
        E 11 b0 08 39
        E 11 b0 08 3a
        E 11 b0 08 3b
        E 11 b0 08 3c
        E 11 b0 08 3c
        E 11 b0 08 3d
        E 11 b0 08 3d
        E 11 b0 08 3e
        E 11 b0 08 3e
        E 11 b0 08 3f
        E 11 b0 08 3f
        E 11 b0 08 3f
        E 11 b0 08 3f
        E 11 b0 08 3f
        E 11 b0 08 3f
        E 11 b0 08 3f
        E 11 b0 08 3f
        E 11 b0 08 3f
        E 11 b0 08 3e
        E 11 b0 08 3e
        E 11 b0 08 3d
        E 11 b0 08 3d
        E 11 b0 08 3c
        E 11 b0 08 3b
        E 11 b0 08 3a
        E 11 b0 08 3a
        E 11 b0 08 39
        E 11 b0 08 38
        E 11 b0 08 37
        E 11 b0 08 36
        E 11 b0 08 34
        E 11 b0 08 33
        E 11 b0 08 32
        E 11 b0 08 31
        E 11 b0 08 2f
        E 11 b0 08 2e
        E 11 b0 08 2c
        E 11 b0 08 2b
        E 11 b0 08 2a
        E 11 b0 08 28
        E 11 b0 08 27
        E 11 b0 08 25
        E 11 b0 08 23
        E 11 b0 08 22
        E 11 b0 08 20
        E 11 b0 08 1f
        E 11 b0 08 1d
        E 11 b0 08 1c
        E 11 b0 08 1a
        E 11 b0 08 18
        E 11 b0 08 17
        E 11 b0 08 15
        E 11 b0 08 14
        E 11 b0 08 13
        E 11 b0 08 11
        E 11 b0 08 10
        E 11 b0 08 0e
        E 11 b0 08 0d
        E 11 b0 08 0c
        E 11 b0 08 0b
        E 11 b0 08 09
        E 11 b0 08 08
        E 11 b0 08 07
        E 11 b0 08 06
        E 11 b0 08 05
        E 11 b0 08 05
        E 11 b0 08 04
        E 11 b0 08 03
        E 11 b0 08 02
        E 11 b0 08 02
        E 11 b0 08 01
        E 11 b0 08 01
        E 11 b0 08 00
        E 11 b0 08 00
        E 11 b0 08 00
        E 11 b0 08 00
        E 11 b0 08 00
        E 11 b0 08 00
        E 11 b0 08 00
        E 11 b0 08 00
        E 11 b0 08 00
        E 11 b0 08 01
        E 11 b0 08 01
        E 11 b0 08 02
        E 11 b0 08 02
        E 11 b0 08 03
        E 11 b0 08 03
        E 11 b0 08 04
        E 11 b0 08 05
        E 11 b0 08 06
        E 11 b0 08 07
        E 11 b0 08 08
        E 11 b0 08 09
        E 11 b0 08 0a
        E 11 b0 08 0b
        E 11 b0 08 0c
        E 11 b0 08 0e
        E 11 b0 08 0f
        E 11 b0 08 10
        E 11 b0 08 12
        E 11 b0 08 13
        E 11 b0 08 15
        E 11 b0 08 16
        E 11 b0 08 18
        E 11 b0 08 19
        E 11 b0 08 1b
        E 11 b0 08 1c
        E 11 b0 08 1e
        E 11 b0 08 20
        E 13 b0 08 40
        E 13 b0 08 43
        E 13 b0 08 46
        E 13 b0 08 49
        E 13 b0 08 4c
        E 13 b0 08 4f
        E 13 b0 08 52
        E 13 b0 08 55
        E 13 b0 08 58
        E 13 b0 08 5b
        E 13 b0 08 5e
        E 13 b0 08 60
        E 13 b0 08 63
        E 13 b0 08 66
        E 13 b0 08 68
        E 13 b0 08 6a
        E 13 b0 08 6d
        E 13 b0 08 6f
        E 13 b0 08 71
        E 13 b0 08 73
        E 13 b0 08 75
        E 13 b0 08 76
        E 13 b0 08 78
        E 13 b0 08 79
        E 13 b0 08 7a
        E 13 b0 08 7b
        E 13 b0 08 7c
        E 13 b0 08 7d
        E 13 b0 08 7e
        E 13 b0 08 7e
        E 13 b0 08 7f
        E 13 b0 08 7f
        E 13 b0 08 7f
        E 13 b0 08 7f
        E 13 b0 08 7f
        E 13 b0 08 7e
        E 13 b0 08 7e
        E 13 b0 08 7d
        E 13 b0 08 7c
        E 13 b0 08 7b
        E 13 b0 08 7a
        E 13 b0 08 78
        E 13 b0 08 77
        E 13 b0 08 75
        E 13 b0 08 74
        E 13 b0 08 72
        E 13 b0 08 70
        E 13 b0 08 6e
        E 13 b0 08 6c
        E 13 b0 08 69
        E 13 b0 08 67
        E 13 b0 08 64
        E 13 b0 08 62
        E 13 b0 08 5f
        E 13 b0 08 5c
        E 13 b0 08 59
        E 13 b0 08 57
        E 13 b0 08 54
        E 13 b0 08 51
        E 13 b0 08 4e
        E 13 b0 08 4a
        E 13 b0 08 47
        E 13 b0 08 44
        E 13 b0 08 41
        E 13 b0 08 3e
        E 13 b0 08 3b
        E 13 b0 08 38
        E 13 b0 08 35
        E 13 b0 08 31
        E 13 b0 08 2e
        E 13 b0 08 2b
        E 13 b0 08 28
        E 13 b0 08 26
        E 13 b0 08 23
        E 13 b0 08 20
        E 13 b0 08 1d
        E 13 b0 08 1b
        E 13 b0 08 18
        E 13 b0 08 16
        E 13 b0 08 13
        E 13 b0 08 11
        E 13 b0 08 0f
        E 13 b0 08 0d
        E 13 b0 08 0b
        E 13 b0 08 0a
        E 13 b0 08 08
        E 13 b0 08 07
        E 13 b0 08 05
        E 13 b0 08 04
        E 13 b0 08 03
        E 13 b0 08 02
        E 13 b0 08 01
        E 13 b0 08 01
        E 13 b0 08 00
        E 13 b0 08 00
        E 13 b0 08 00
        E 13 b0 08 00
        E 13 b0 08 00
        E 13 b0 08 01
        E 13 b0 08 01
        E 13 b0 08 02
        E 13 b0 08 03
        E 13 b0 08 04
        E 13 b0 08 05
        E 13 b0 08 06
        E 13 b0 08 07
        E 13 b0 08 09
        E 13 b0 08 0a
        E 13 b0 08 0c
        E 13 b0 08 0e
        E 13 b0 08 10
        E 13 b0 08 12
        E 13 b0 08 15
        E 13 b0 08 17
        E 13 b0 08 19
        E 13 b0 08 1c
        E 13 b0 08 1f
        E 13 b0 08 21
        E 13 b0 08 24
        E 13 b0 08 27
        E 13 b0 08 2a
        E 13 b0 08 2d
        E 13 b0 08 30
        E 13 b0 08 33
        E 13 b0 08 36
        E 13 b0 08 39
        E 13 b0 08 3c
        E 13 b0 08 40
        E 1 b0 08 39
        E 1 b0 08 3c
        E 1 b0 08 3f
        E 1 b0 08 41
        E 1 b0 08 44
        E 1 b0 08 47
        E 1 b0 08 49
        E 1 b0 08 4c
        E 1 b0 08 4f
        E 1 b0 08 51
        E 1 b0 08 54
        E 1 b0 08 56
        E 1 b0 08 59
        E 1 b0 08 5b
        E 1 b0 08 5d
        E 1 b0 08 5f
        E 1 b0 08 62
        E 1 b0 08 63
        E 1 b0 08 65
        E 1 b0 08 67
        E 1 b0 08 69
        E 1 b0 08 6a
        E 1 b0 08 6c
        E 1 b0 08 6c
        E 1 b0 08 6d
        E 1 b0 08 6e
        E 1 b0 08 6f
        E 1 b0 08 70
        E 1 b0 08 71
        E 1 b0 08 71
        E 1 b0 08 72
        E 1 b0 08 72
        E 1 b0 08 72
        E 1 b0 08 72
        E 1 b0 08 72
        E 1 b0 08 71
        E 1 b0 08 71
        E 1 b0 08 70
        E 1 b0 08 6f
        E 1 b0 08 6e
        E 1 b0 08 6d
        E 1 b0 08 6c
        E 1 b0 08 6b
        E 1 b0 08 69
        E 1 b0 08 68
        E 1 b0 08 66
        E 1 b0 08 64
        E 1 b0 08 63
        E 1 b0 08 61
        E 1 b0 08 5e
        E 1 b0 08 5c
        E 1 b0 08 5a
        E 1 b0 08 58
        E 1 b0 08 55
        E 1 b0 08 52
        E 1 b0 08 50
        E 1 b0 08 4e
        E 1 b0 08 4b
        E 1 b0 08 48
        E 1 b0 08 46
        E 1 b0 08 42
        E 1 b0 08 3f
        E 1 b0 08 3d
        E 1 b0 08 3a
        E 1 b0 08 37
        E 1 b0 08 35
        E 1 b0 08 32
        E 1 b0 08 2f
        E 1 b0 08 2c
        E 1 b0 08 29
        E 1 b0 08 26
        E 1 b0 08 24
        E 1 b0 08 22
        E 1 b0 08 1f
        E 1 b0 08 1c
        E 1 b0 08 1a
        E 1 b0 08 18
        E 1 b0 08 15
        E 1 b0 08 13
        E 1 b0 08 11
        E 1 b0 08 0f
        E 1 b0 08 0d
        E 1 b0 08 0b
        E 1 b0 08 09
        E 1 b0 08 09
        E 1 b0 08 07
        E 1 b0 08 06
        E 1 b0 08 04
        E 1 b0 08 03
        E 1 b0 08 02
        E 1 b0 08 01
        E 1 b0 08 00
        E 1 b0 08 00
        E 1 b0 08 00
        E 1 b0 08 00
        E 1 b0 08 00
        E 1 b0 08 00
        E 1 b0 08 00
        E 1 b0 08 00
        E 1 b0 08 00
        E 1 b0 08 01
        E 1 b0 08 02
        E 1 b0 08 03
        E 1 b0 08 04
        E 1 b0 08 05
        E 1 b0 08 06
        E 1 b0 08 08
        E 1 b0 08 09
        E 1 b0 08 0a
        E 1 b0 08 0c
        E 1 b0 08 0e
        E 1 b0 08 10
        E 1 b0 08 12
        E 1 b0 08 14
        E 1 b0 08 16
        E 1 b0 08 19
        E 1 b0 08 1b
        E 1 b0 08 1d
        E 1 b0 08 20
        E 1 b0 08 23
        E 1 b0 08 25
        E 1 b0 08 28
        E 1 b0 08 2b
        E 1 b0 08 2d
        E 1 b0 08 30
        E 1 b0 08 33
        E 1 b0 08 36
        E 1 b0 08 39
        E 6 b0 08 40
        E 6 b0 08 43
        E 6 b0 08 46
        E 6 b0 08 49
        E 6 b0 08 4c
        E 6 b0 08 4f
        E 6 b0 08 52
        E 6 b0 08 55
        E 6 b0 08 58
        E 6 b0 08 5b
        E 6 b0 08 5e
        E 6 b0 08 60
        E 6 b0 08 63
        E 6 b0 08 66
        E 6 b0 08 68
        E 6 b0 08 6a
        E 6 b0 08 6d
        E 6 b0 08 6f
        E 6 b0 08 71
        E 6 b0 08 73
        E 6 b0 08 75
        E 6 b0 08 76
        E 6 b0 08 78
        E 6 b0 08 79
        E 6 b0 08 7a
        E 6 b0 08 7b
        E 6 b0 08 7c
        E 6 b0 08 7d
        E 6 b0 08 7e
        E 6 b0 08 7e
        E 6 b0 08 7f
        E 6 b0 08 7f
        E 6 b0 08 7f
        E 6 b0 08 7f
        E 6 b0 08 7f
        E 6 b0 08 7e
        E 6 b0 08 7e
        E 6 b0 08 7d
        E 6 b0 08 7c
        E 6 b0 08 7b
        E 6 b0 08 7a
        E 6 b0 08 78
        E 6 b0 08 77
        E 6 b0 08 75
        E 6 b0 08 74
        E 6 b0 08 72
        E 6 b0 08 70
        E 6 b0 08 6e
        E 6 b0 08 6c
        E 6 b0 08 69
        E 6 b0 08 67
        E 6 b0 08 64
        E 6 b0 08 62
        E 6 b0 08 5f
        E 6 b0 08 5c
        E 6 b0 08 59
        E 6 b0 08 57
        E 6 b0 08 54
        E 6 b0 08 51
        E 6 b0 08 4e
        E 6 b0 08 4a
        E 6 b0 08 47
        E 6 b0 08 44
        E 6 b0 08 41
        E 6 b0 08 3e
        E 6 b0 08 3b
        E 6 b0 08 38
        E 6 b0 08 35
        E 6 b0 08 31
        E 6 b0 08 2e
        E 6 b0 08 2b
        E 6 b0 08 28
        E 6 b0 08 26
        E 6 b0 08 23
        E 6 b0 08 20
        E 6 b0 08 1d
        E 6 b0 08 1b
        E 6 b0 08 18
        E 6 b0 08 16
        E 6 b0 08 13
        E 6 b0 08 11
        E 6 b0 08 0f
        E 6 b0 08 0d
        E 6 b0 08 0b
        E 6 b0 08 0a
        E 6 b0 08 08
        E 6 b0 08 07
        E 6 b0 08 05
        E 6 b0 08 04
        E 6 b0 08 03
        E 6 b0 08 02
        E 6 b0 08 01
        E 6 b0 08 01
        E 6 b0 08 00
        E 6 b0 08 00
        E 6 b0 08 00
        E 6 b0 08 00
        E 6 b0 08 00
        E 6 b0 08 01
        E 6 b0 08 01
        E 6 b0 08 02
        E 6 b0 08 03
        E 6 b0 08 04
        E 6 b0 08 05
        E 6 b0 08 06
        E 6 b0 08 07
        E 6 b0 08 09
        E 6 b0 08 0a
        E 6 b0 08 0c
        E 6 b0 08 0e
        E 6 b0 08 10
        E 6 b0 08 12
        E 6 b0 08 15
        E 6 b0 08 17
        E 6 b0 08 19
        E 6 b0 08 1c
        E 6 b0 08 1f
        E 6 b0 08 21
        E 6 b0 08 24
        E 6 b0 08 27
        E 6 b0 08 2a
        E 6 b0 08 2d
        E 6 b0 08 30
        E 6 b0 08 33
        E 6 b0 08 36
        E 6 b0 08 39
        E 6 b0 08 3c
        E 6 b0 08 40
        E 11 b0 08 39
        E 11 b0 08 3c
        E 11 b0 08 3f
        E 11 b0 08 41
        E 11 b0 08 44
        E 11 b0 08 47
        E 11 b0 08 49
        E 11 b0 08 4c
        E 11 b0 08 4f
        E 11 b0 08 51
        E 11 b0 08 54
        E 11 b0 08 56
        E 11 b0 08 59
        E 11 b0 08 5b
        E 11 b0 08 5d
        E 11 b0 08 5f
        E 11 b0 08 62
        E 11 b0 08 63
        E 11 b0 08 65
        E 11 b0 08 67
        E 11 b0 08 69
        E 11 b0 08 6a
        E 11 b0 08 6c
        E 11 b0 08 6c
        E 11 b0 08 6d
        E 11 b0 08 6e
        E 11 b0 08 6f
        E 11 b0 08 70
        E 11 b0 08 71
        E 11 b0 08 71
        E 11 b0 08 72
        E 11 b0 08 72
        E 11 b0 08 72
        E 11 b0 08 72
        E 11 b0 08 72
        E 11 b0 08 71
        E 11 b0 08 71
        E 11 b0 08 70
        E 11 b0 08 6f
        E 11 b0 08 6e
        E 11 b0 08 6d
        E 11 b0 08 6c
        E 11 b0 08 6b
        E 11 b0 08 69
        E 11 b0 08 68
        E 11 b0 08 66
        E 11 b0 08 64
        E 11 b0 08 63
        E 11 b0 08 61
        E 11 b0 08 5e
        E 11 b0 08 5c
        E 11 b0 08 5a
        E 11 b0 08 58
        E 11 b0 08 55
        E 11 b0 08 52
        E 11 b0 08 50
        E 11 b0 08 4e
        E 11 b0 08 4b
        E 11 b0 08 48
        E 11 b0 08 46
        E 11 b0 08 42
        E 11 b0 08 3f
        E 11 b0 08 3d
        E 11 b0 08 3a
        E 11 b0 08 37
        E 11 b0 08 35
        E 11 b0 08 32
        E 11 b0 08 2f
        E 11 b0 08 2c
        E 11 b0 08 29
        E 11 b0 08 26
        E 11 b0 08 24
        E 11 b0 08 22
        E 11 b0 08 1f
        E 11 b0 08 1c
        E 11 b0 08 1a
        E 11 b0 08 18
        E 11 b0 08 15
        E 11 b0 08 13
        E 11 b0 08 11
        E 11 b0 08 0f
        E 11 b0 08 0d
        E 11 b0 08 0b
        E 11 b0 08 09
        E 11 b0 08 09
        E 11 b0 08 07
        E 11 b0 08 06
        E 11 b0 08 04
        E 11 b0 08 03
        E 11 b0 08 02
        E 11 b0 08 01
        E 11 b0 08 00
        E 11 b0 08 00
        E 11 b0 08 00
        E 11 b0 08 00
        E 11 b0 08 00
        E 11 b0 08 00
        E 11 b0 08 00
        E 11 b0 08 00
        E 11 b0 08 00
        E 11 b0 08 01
        E 11 b0 08 02
        E 11 b0 08 03
        E 11 b0 08 04
        E 11 b0 08 05
        E 11 b0 08 06
        E 11 b0 08 08
        E 11 b0 08 09
        E 11 b0 08 0a
        E 11 b0 08 0c
        E 11 b0 08 0e
        E 11 b0 08 10
        E 11 b0 08 12
        E 11 b0 08 14
        E 11 b0 08 16
        E 11 b0 08 19
        E 11 b0 08 1b
        E 11 b0 08 1d
        E 11 b0 08 20
        E 11 b0 08 23
        E 11 b0 08 25
        E 11 b0 08 28
        E 11 b0 08 2b
        E 11 b0 08 2d
        E 11 b0 08 30
        E 11 b0 08 33
        E 11 b0 08 36
        E 11 b0 08 39
        E 8 b0 08 20
        E 8 b0 08 21
        E 8 b0 08 23
        E 8 b0 08 24
        E 8 b0 08 26
        E 8 b0 08 27
        E 8 b0 08 29
        E 8 b0 08 2a
        E 8 b0 08 2c
        E 8 b0 08 2d
        E 8 b0 08 2f
        E 8 b0 08 30
        E 8 b0 08 31
        E 8 b0 08 33
        E 8 b0 08 34
        E 8 b0 08 35
        E 8 b0 08 36
        E 8 b0 08 37
        E 8 b0 08 38
        E 8 b0 08 39
        E 8 b0 08 3a
        E 8 b0 08 3b
        E 8 b0 08 3c
        E 8 b0 08 3c
        E 8 b0 08 3d
        E 8 b0 08 3d
        E 8 b0 08 3e
        E 8 b0 08 3e
        E 8 b0 08 3f
        E 8 b0 08 3f
        E 8 b0 08 3f
        E 8 b0 08 3f
        E 8 b0 08 3f
        E 8 b0 08 3f
        E 8 b0 08 3f
        E 8 b0 08 3f
        E 8 b0 08 3f
        E 8 b0 08 3e
        E 8 b0 08 3e
        E 8 b0 08 3d
        E 8 b0 08 3d
        E 8 b0 08 3c
        E 8 b0 08 3b
        E 8 b0 08 3a
        E 8 b0 08 3a
        E 8 b0 08 39
        E 8 b0 08 38
        E 8 b0 08 37
        E 8 b0 08 36
        E 8 b0 08 34
        E 8 b0 08 33
        E 8 b0 08 32
        E 8 b0 08 31
        E 8 b0 08 2f
        E 8 b0 08 2e
        E 8 b0 08 2c
        E 8 b0 08 2b
        E 8 b0 08 2a
        E 8 b0 08 28
        E 8 b0 08 27
        E 8 b0 08 25
        E 8 b0 08 23
        E 8 b0 08 22
        E 8 b0 08 20
        E 8 b0 08 1f
        E 8 b0 08 1d
        E 8 b0 08 1c
        E 8 b0 08 1a
        E 8 b0 08 18
        E 8 b0 08 17
        E 8 b0 08 15
        E 8 b0 08 14
        E 8 b0 08 13
        E 8 b0 08 11
        E 8 b0 08 10
        E 8 b0 08 0e
        E 8 b0 08 0d
        E 8 b0 08 0c
        E 8 b0 08 0b
        E 8 b0 08 09
        E 8 b0 08 08
        E 8 b0 08 07
        E 8 b0 08 06
        E 8 b0 08 05
        E 8 b0 08 05
        E 8 b0 08 04
        E 8 b0 08 03
        E 8 b0 08 02
        E 8 b0 08 02
        E 8 b0 08 01
        E 8 b0 08 01
        E 8 b0 08 00
        E 8 b0 08 00
        E 8 b0 08 00
        E 8 b0 08 00
        E 8 b0 08 00
        E 8 b0 08 00
        E 8 b0 08 00
        E 8 b0 08 00
        E 8 b0 08 00
        E 8 b0 08 01
        E 8 b0 08 01
        E 8 b0 08 02
        E 8 b0 08 02
        E 8 b0 08 03
        E 8 b0 08 03
        E 8 b0 08 04
        E 8 b0 08 05
        E 8 b0 08 06
        E 8 b0 08 07
        E 8 b0 08 08
        E 8 b0 08 09
        E 8 b0 08 0a
        E 8 b0 08 0b
        E 8 b0 08 0c
        E 8 b0 08 0e
        E 8 b0 08 0f
        E 8 b0 08 10
        E 8 b0 08 12
        E 8 b0 08 13
        E 8 b0 08 15
        E 8 b0 08 16
        E 8 b0 08 18
        E 8 b0 08 19
        E 8 b0 08 1b
        E 8 b0 08 1c
        E 8 b0 08 1e
        E 8 b0 08 20
        E 8 b0 08 20
        E 8 b0 08 21
        E 8 b0 08 23
        E 8 b0 08 24
        E 8 b0 08 26
        E 8 b0 08 27
        E 8 b0 08 29
        E 8 b0 08 2a
        E 8 b0 08 2c
        E 8 b0 08 2d
        E 8 b0 08 2f
        E 8 b0 08 30
        E 8 b0 08 31
        E 8 b0 08 33
        E 8 b0 08 34
        E 8 b0 08 35
        E 8 b0 08 36
        E 8 b0 08 37
        E 8 b0 08 38
        E 8 b0 08 39
        E 8 b0 08 3a
        E 8 b0 08 3b
        E 8 b0 08 3c
        E 8 b0 08 3c
        E 8 b0 08 3d
        E 8 b0 08 3d
        E 8 b0 08 3e
        E 8 b0 08 3e
        E 8 b0 08 3f
        E 8 b0 08 3f
        E 8 b0 08 3f
        E 8 b0 08 3f
        E 8 b0 08 3f
        E 8 b0 08 3f
        E 8 b0 08 3f
        E 8 b0 08 3f
        E 8 b0 08 3f
        E 8 b0 08 3e
        E 8 b0 08 3e
        E 8 b0 08 3d
        E 8 b0 08 3d
        E 8 b0 08 3c
        E 8 b0 08 3b
        E 8 b0 08 3a
        E 8 b0 08 3a
        E 8 b0 08 39
        E 8 b0 08 38
        E 8 b0 08 37
        E 8 b0 08 36
        E 8 b0 08 34
        E 8 b0 08 33
        E 8 b0 08 32
        E 8 b0 08 31
        E 8 b0 08 2f
        E 8 b0 08 2e
        E 8 b0 08 2c
        E 8 b0 08 2b
        E 8 b0 08 2a
        E 8 b0 08 28
        E 8 b0 08 27
        E 8 b0 08 25
        E 8 b0 08 23
        E 8 b0 08 22
        E 8 b0 08 20
        E 8 b0 08 1f
        E 8 b0 08 1d
        E 8 b0 08 1c
        E 8 b0 08 1a
        E 8 b0 08 18
        E 8 b0 08 17
        E 8 b0 08 15
        E 8 b0 08 14
        E 8 b0 08 13
        E 8 b0 08 11
        E 8 b0 08 10
        E 8 b0 08 0e
        E 8 b0 08 0d
        E 8 b0 08 0c
        E 8 b0 08 0b
        E 8 b0 08 09
        E 8 b0 08 08
        E 8 b0 08 07
        E 8 b0 08 06
        E 8 b0 08 05
        E 8 b0 08 05
        E 8 b0 08 04
        E 8 b0 08 03
        E 8 b0 08 02
        E 8 b0 08 02
        E 8 b0 08 01
        E 8 b0 08 01
        E 8 b0 08 00
        E 8 b0 08 00
        E 8 b0 08 00
        E 8 b0 08 00
        E 8 b0 08 00
        E 8 b0 08 00
        E 8 b0 08 00
        E 8 b0 08 00
        E 8 b0 08 00
        E 8 b0 08 01
        E 8 b0 08 01
        E 8 b0 08 02
        E 8 b0 08 02
        E 8 b0 08 03
        E 8 b0 08 03
        E 8 b0 08 04
        E 8 b0 08 05
        E 8 b0 08 06
        E 8 b0 08 07
        E 8 b0 08 08
        E 8 b0 08 09
        E 8 b0 08 0a
        E 8 b0 08 0b
        E 8 b0 08 0c
        E 8 b0 08 0e
        E 8 b0 08 0f
        E 8 b0 08 10
        E 8 b0 08 12
        E 8 b0 08 13
        E 8 b0 08 15
        E 8 b0 08 16
        E 8 b0 08 18
        E 8 b0 08 19
        E 8 b0 08 1b
        E 8 b0 08 1c
        E 8 b0 08 1e
        E 8 b0 08 20
        E 17 b0 08 2c
        E 17 b0 08 2e
        E 17 b0 08 31
        E 17 b0 08 33
        E 17 b0 08 35
        E 17 b0 08 37
        E 17 b0 08 39
        E 17 b0 08 3b
        E 17 b0 08 3d
        E 17 b0 08 3f
        E 17 b0 08 41
        E 17 b0 08 43
        E 17 b0 08 45
        E 17 b0 08 47
        E 17 b0 08 48
        E 17 b0 08 4a
        E 17 b0 08 4c
        E 17 b0 08 4d
        E 17 b0 08 4f
        E 17 b0 08 50
        E 17 b0 08 51
        E 17 b0 08 52
        E 17 b0 08 54
        E 17 b0 08 54
        E 17 b0 08 55
        E 17 b0 08 56
        E 17 b0 08 56
        E 17 b0 08 57
        E 17 b0 08 58
        E 17 b0 08 58
        E 17 b0 08 58
        E 17 b0 08 58
        E 17 b0 08 58
        E 17 b0 08 58
        E 17 b0 08 58
        E 17 b0 08 58
        E 17 b0 08 58
        E 17 b0 08 57
        E 17 b0 08 56
        E 17 b0 08 56
        E 17 b0 08 55
        E 17 b0 08 54
        E 17 b0 08 53
        E 17 b0 08 51
        E 17 b0 08 51
        E 17 b0 08 4f
        E 17 b0 08 4e
        E 17 b0 08 4d
        E 17 b0 08 4b
        E 17 b0 08 49
        E 17 b0 08 48
        E 17 b0 08 46
        E 17 b0 08 44
        E 17 b0 08 42
        E 17 b0 08 40
        E 17 b0 08 3e
        E 17 b0 08 3c
        E 17 b0 08 3a
        E 17 b0 08 38
        E 17 b0 08 36
        E 17 b0 08 33
        E 17 b0 08 31
        E 17 b0 08 2f
        E 17 b0 08 2d
        E 17 b0 08 2b
        E 17 b0 08 29
        E 17 b0 08 27
        E 17 b0 08 25
        E 17 b0 08 22
        E 17 b0 08 20
        E 17 b0 08 1e
        E 17 b0 08 1c
        E 17 b0 08 1a
        E 17 b0 08 18
        E 17 b0 08 16
        E 17 b0 08 14
        E 17 b0 08 12
        E 17 b0 08 10
        E 17 b0 08 0f
        E 17 b0 08 0d
        E 17 b0 08 0b
        E 17 b0 08 0a
        E 17 b0 08 09
        E 17 b0 08 07
        E 17 b0 08 07
        E 17 b0 08 05
        E 17 b0 08 04
        E 17 b0 08 03
        E 17 b0 08 02
        E 17 b0 08 02
        E 17 b0 08 01
        E 17 b0 08 00
        E 17 b0 08 00
        E 17 b0 08 00
        E 17 b0 08 00
        E 17 b0 08 00
        E 17 b0 08 00
        E 17 b0 08 00
        E 17 b0 08 00
        E 17 b0 08 00
        E 17 b0 08 01
        E 17 b0 08 02
        E 17 b0 08 02
        E 17 b0 08 03
        E 17 b0 08 04
        E 17 b0 08 04
        E 17 b0 08 06
        E 17 b0 08 07
        E 17 b0 08 08
        E 17 b0 08 09
        E 17 b0 08 0b
        E 17 b0 08 0c
        E 17 b0 08 0e
        E 17 b0 08 10
        E 17 b0 08 11
        E 17 b0 08 13
        E 17 b0 08 15
        E 17 b0 08 17
        E 17 b0 08 19
        E 17 b0 08 1b
        E 17 b0 08 1d
        E 17 b0 08 1f
        E 17 b0 08 21
        E 17 b0 08 23
        E 17 b0 08 25
        E 17 b0 08 27
        E 17 b0 08 2a
        E 17 b0 08 2c
        E 15 b0 08 33
        E 15 b0 08 35
        E 15 b0 08 37
        E 15 b0 08 3a
        E 15 b0 08 3c
        E 15 b0 08 3f
        E 15 b0 08 41
        E 15 b0 08 44
        E 15 b0 08 46
        E 15 b0 08 48
        E 15 b0 08 4b
        E 15 b0 08 4c
        E 15 b0 08 4f
        E 15 b0 08 51
        E 15 b0 08 53
        E 15 b0 08 54
        E 15 b0 08 57
        E 15 b0 08 58
        E 15 b0 08 5a
        E 15 b0 08 5b
        E 15 b0 08 5d
        E 15 b0 08 5e
        E 15 b0 08 5f
        E 15 b0 08 60
        E 15 b0 08 61
        E 15 b0 08 62
        E 15 b0 08 63
        E 15 b0 08 63
        E 15 b0 08 64
        E 15 b0 08 64
        E 15 b0 08 65
        E 15 b0 08 65
        E 15 b0 08 65
        E 15 b0 08 65
        E 15 b0 08 65
        E 15 b0 08 64
        E 15 b0 08 64
        E 15 b0 08 63
        E 15 b0 08 63
        E 15 b0 08 62
        E 15 b0 08 61
        E 15 b0 08 5f
        E 15 b0 08 5f
        E 15 b0 08 5d
        E 15 b0 08 5c
        E 15 b0 08 5b
        E 15 b0 08 59
        E 15 b0 08 57
        E 15 b0 08 56
        E 15 b0 08 54
        E 15 b0 08 52
        E 15 b0 08 50
        E 15 b0 08 4e
        E 15 b0 08 4c
        E 15 b0 08 49
        E 15 b0 08 47
        E 15 b0 08 45
        E 15 b0 08 43
        E 15 b0 08 40
        E 15 b0 08 3e
        E 15 b0 08 3b
        E 15 b0 08 38
        E 15 b0 08 36
        E 15 b0 08 33
        E 15 b0 08 31
        E 15 b0 08 2f
        E 15 b0 08 2c
        E 15 b0 08 2a
        E 15 b0 08 27
        E 15 b0 08 24
        E 15 b0 08 22
        E 15 b0 08 1f
        E 15 b0 08 1e
        E 15 b0 08 1b
        E 15 b0 08 19
        E 15 b0 08 17
        E 15 b0 08 15
        E 15 b0 08 13
        E 15 b0 08 11
        E 15 b0 08 0f
        E 15 b0 08 0d
        E 15 b0 08 0b
        E 15 b0 08 0a
        E 15 b0 08 08
        E 15 b0 08 07
        E 15 b0 08 06
        E 15 b0 08 05
        E 15 b0 08 03
        E 15 b0 08 03
        E 15 b0 08 02
        E 15 b0 08 01
        E 15 b0 08 00
        E 15 b0 08 00
        E 15 b0 08 00
        E 15 b0 08 00
        E 15 b0 08 00
        E 15 b0 08 00
        E 15 b0 08 00
        E 15 b0 08 00
        E 15 b0 08 00
        E 15 b0 08 01
        E 15 b0 08 02
        E 15 b0 08 03
        E 15 b0 08 03
        E 15 b0 08 04
        E 15 b0 08 05
        E 15 b0 08 07
        E 15 b0 08 07
        E 15 b0 08 09
        E 15 b0 08 0b
        E 15 b0 08 0c
        E 15 b0 08 0e
        E 15 b0 08 10
        E 15 b0 08 12
        E 15 b0 08 14
        E 15 b0 08 16
        E 15 b0 08 18
        E 15 b0 08 1a
        E 15 b0 08 1c
        E 15 b0 08 1f
        E 15 b0 08 21
        E 15 b0 08 24
        E 15 b0 08 26
        E 15 b0 08 28
        E 15 b0 08 2b
        E 15 b0 08 2d
        E 15 b0 08 2f
        E 15 b0 08 33
        E 17 b0 08 06
        E 17 b0 08 06
        E 17 b0 08 07
        E 17 b0 08 07
        E 17 b0 08 07
        E 17 b0 08 07
        E 17 b0 08 08
        E 17 b0 08 08
        E 17 b0 08 08
        E 17 b0 08 09
        E 17 b0 08 09
        E 17 b0 08 09
        E 17 b0 08 09
        E 17 b0 08 0a
        E 17 b0 08 0a
        E 17 b0 08 0a
        E 17 b0 08 0a
        E 17 b0 08 0b
        E 17 b0 08 0b
        E 17 b0 08 0b
        E 17 b0 08 0b
        E 17 b0 08 0b
        E 17 b0 08 0c
        E 17 b0 08 0c
        E 17 b0 08 0c
        E 17 b0 08 0c
        E 17 b0 08 0c
        E 17 b0 08 0c
        E 17 b0 08 0c
        E 17 b0 08 0c
        E 17 b0 08 0c
        E 17 b0 08 0c
        E 17 b0 08 0c
        E 17 b0 08 0c
        E 17 b0 08 0c
        E 17 b0 08 0c
        E 17 b0 08 0c
        E 17 b0 08 0c
        E 17 b0 08 0c
        E 17 b0 08 0c
        E 17 b0 08 0c
        E 17 b0 08 0c
        E 17 b0 08 0b
        E 17 b0 08 0b
        E 17 b0 08 0b
        E 17 b0 08 0b
        E 17 b0 08 0b
        E 17 b0 08 0b
        E 17 b0 08 0a
        E 17 b0 08 0a
        E 17 b0 08 0a
        E 17 b0 08 0a
        E 17 b0 08 09
        E 17 b0 08 09
        E 17 b0 08 09
        E 17 b0 08 08
        E 17 b0 08 08
        E 17 b0 08 08
        E 17 b0 08 08
        E 17 b0 08 07
        E 17 b0 08 07
        E 17 b0 08 07
        E 17 b0 08 06
        E 17 b0 08 06
        E 17 b0 08 06
        E 17 b0 08 05
        E 17 b0 08 05
        E 17 b0 08 05
        E 17 b0 08 04
        E 17 b0 08 04
        E 17 b0 08 04
        E 17 b0 08 04
        E 17 b0 08 03
        E 17 b0 08 03
        E 17 b0 08 03
        E 17 b0 08 02
        E 17 b0 08 02
        E 17 b0 08 02
        E 17 b0 08 02
        E 17 b0 08 01
        E 17 b0 08 01
        E 17 b0 08 01
        E 17 b0 08 01
        E 17 b0 08 01
        E 17 b0 08 01
        E 17 b0 08 00
        E 17 b0 08 00
        E 17 b0 08 00
        E 17 b0 08 00
        E 17 b0 08 00
        E 17 b0 08 00
        E 17 b0 08 00
        E 17 b0 08 00
        E 17 b0 08 00
        E 17 b0 08 00
        E 17 b0 08 00
        E 17 b0 08 00
        E 17 b0 08 00
        E 17 b0 08 00
        E 17 b0 08 00
        E 17 b0 08 00
        E 17 b0 08 00
        E 17 b0 08 00
        E 17 b0 08 00
        E 17 b0 08 00
        E 17 b0 08 00
        E 17 b0 08 00
        E 17 b0 08 01
        E 17 b0 08 01
        E 17 b0 08 01
        E 17 b0 08 01
        E 17 b0 08 01
        E 17 b0 08 02
        E 17 b0 08 02
        E 17 b0 08 02
        E 17 b0 08 02
        E 17 b0 08 03
        E 17 b0 08 03
        E 17 b0 08 03
        E 17 b0 08 03
        E 17 b0 08 04
        E 17 b0 08 04
        E 17 b0 08 04
        E 17 b0 08 05
        E 17 b0 08 05
        E 17 b0 08 05
        E 17 b0 08 06
        E 17 b0 08 06
        E 15 b0 08 19
        E 15 b0 08 1a
        E 15 b0 08 1c
        E 15 b0 08 1d
        E 15 b0 08 1e
        E 15 b0 08 1f
        E 15 b0 08 20
        E 15 b0 08 22
        E 15 b0 08 23
        E 15 b0 08 24
        E 15 b0 08 25
        E 15 b0 08 26
        E 15 b0 08 27
        E 15 b0 08 28
        E 15 b0 08 29
        E 15 b0 08 2a
        E 15 b0 08 2b
        E 15 b0 08 2c
        E 15 b0 08 2d
        E 15 b0 08 2e
        E 15 b0 08 2e
        E 15 b0 08 2f
        E 15 b0 08 30
        E 15 b0 08 30
        E 15 b0 08 30
        E 15 b0 08 31
        E 15 b0 08 31
        E 15 b0 08 32
        E 15 b0 08 32
        E 15 b0 08 32
        E 15 b0 08 32
        E 15 b0 08 32
        E 15 b0 08 32
        E 15 b0 08 32
        E 15 b0 08 32
        E 15 b0 08 32
        E 15 b0 08 32
        E 15 b0 08 32
        E 15 b0 08 31
        E 15 b0 08 31
        E 15 b0 08 30
        E 15 b0 08 30
        E 15 b0 08 2f
        E 15 b0 08 2e
        E 15 b0 08 2e
        E 15 b0 08 2d
        E 15 b0 08 2c
        E 15 b0 08 2c
        E 15 b0 08 2b
        E 15 b0 08 2a
        E 15 b0 08 29
        E 15 b0 08 28
        E 15 b0 08 27
        E 15 b0 08 26
        E 15 b0 08 24
        E 15 b0 08 23
        E 15 b0 08 22
        E 15 b0 08 21
        E 15 b0 08 20
        E 15 b0 08 1f
        E 15 b0 08 1d
        E 15 b0 08 1c
        E 15 b0 08 1b
        E 15 b0 08 1a
        E 15 b0 08 18
        E 15 b0 08 17
        E 15 b0 08 16
        E 15 b0 08 15
        E 15 b0 08 13
        E 15 b0 08 12
        E 15 b0 08 11
        E 15 b0 08 10
        E 15 b0 08 0f
        E 15 b0 08 0e
        E 15 b0 08 0c
        E 15 b0 08 0b
        E 15 b0 08 0a
        E 15 b0 08 09
        E 15 b0 08 08
        E 15 b0 08 07
        E 15 b0 08 06
        E 15 b0 08 06
        E 15 b0 08 05
        E 15 b0 08 04
        E 15 b0 08 04
        E 15 b0 08 03
        E 15 b0 08 02
        E 15 b0 08 02
        E 15 b0 08 01
        E 15 b0 08 01
        E 15 b0 08 00
        E 15 b0 08 00
        E 15 b0 08 00
        E 15 b0 08 00
        E 15 b0 08 00
        E 15 b0 08 00
        E 15 b0 08 00
        E 15 b0 08 00
        E 15 b0 08 00
        E 15 b0 08 00
        E 15 b0 08 00
        E 15 b0 08 01
        E 15 b0 08 01
        E 15 b0 08 02
        E 15 b0 08 02
        E 15 b0 08 02
        E 15 b0 08 03
        E 15 b0 08 04
        E 15 b0 08 04
        E 15 b0 08 05
        E 15 b0 08 06
        E 15 b0 08 07
        E 15 b0 08 08
        E 15 b0 08 09
        E 15 b0 08 0a
        E 15 b0 08 0b
        E 15 b0 08 0c
        E 15 b0 08 0d
        E 15 b0 08 0e
        E 15 b0 08 0f
        E 15 b0 08 10
        E 15 b0 08 12
        E 15 b0 08 13
        E 15 b0 08 14
        E 15 b0 08 15
        E 15 b0 08 16
        E 15 b0 08 18
        E 15 b0 08 19
        E 8 b0 08 2c
        E 8 b0 08 2e
        E 8 b0 08 31
        E 8 b0 08 33
        E 8 b0 08 35
        E 8 b0 08 37
        E 8 b0 08 39
        E 8 b0 08 3b
        E 8 b0 08 3d
        E 8 b0 08 3f
        E 8 b0 08 41
        E 8 b0 08 43
        E 8 b0 08 45
        E 8 b0 08 47
        E 8 b0 08 48
        E 8 b0 08 4a
        E 8 b0 08 4c
        E 8 b0 08 4d
        E 8 b0 08 4f
        E 8 b0 08 50
        E 8 b0 08 51
        E 8 b0 08 52
        E 8 b0 08 54
        E 8 b0 08 54
        E 8 b0 08 55
        E 8 b0 08 56
        E 8 b0 08 56
        E 8 b0 08 57
        E 8 b0 08 58
        E 8 b0 08 58
        E 8 b0 08 58
        E 8 b0 08 58
        E 8 b0 08 58
        E 8 b0 08 58
        E 8 b0 08 58
        E 8 b0 08 58
        E 8 b0 08 58
        E 8 b0 08 57
        E 8 b0 08 56
        E 8 b0 08 56
        E 8 b0 08 55
        E 8 b0 08 54
        E 8 b0 08 53
        E 8 b0 08 51
        E 8 b0 08 51
        E 8 b0 08 4f
        E 8 b0 08 4e
        E 8 b0 08 4d
        E 8 b0 08 4b
        E 8 b0 08 49
        E 8 b0 08 48
        E 8 b0 08 46
        E 8 b0 08 44
        E 8 b0 08 42
        E 8 b0 08 40
        E 8 b0 08 3e
        E 8 b0 08 3c
        E 8 b0 08 3a
        E 8 b0 08 38
        E 8 b0 08 36
        E 8 b0 08 33
        E 8 b0 08 31
        E 8 b0 08 2f
        E 8 b0 08 2d
        E 8 b0 08 2b
        E 8 b0 08 29
        E 8 b0 08 27
        E 8 b0 08 25
        E 8 b0 08 22
        E 8 b0 08 20
        E 8 b0 08 1e
        E 8 b0 08 1c
        E 8 b0 08 1a
        E 8 b0 08 18
        E 8 b0 08 16
        E 8 b0 08 14
        E 8 b0 08 12
        E 8 b0 08 10
        E 8 b0 08 0f
        E 8 b0 08 0d
        E 8 b0 08 0b
        E 8 b0 08 0a
        E 8 b0 08 09
        E 8 b0 08 07
        E 8 b0 08 07
        E 8 b0 08 05
        E 8 b0 08 04
        E 8 b0 08 03
        E 8 b0 08 02
        E 8 b0 08 02
        E 8 b0 08 01
        E 8 b0 08 00
        E 8 b0 08 00
        E 8 b0 08 00
        E 8 b0 08 00
        E 8 b0 08 00
        E 8 b0 08 00
        E 8 b0 08 00
        E 8 b0 08 00
        E 8 b0 08 00
        E 8 b0 08 01
        E 8 b0 08 02
        E 8 b0 08 02
        E 8 b0 08 03
        E 8 b0 08 04
        E 8 b0 08 04
        E 8 b0 08 06
        E 8 b0 08 07
        E 8 b0 08 08
        E 8 b0 08 09
        E 8 b0 08 0b
        E 8 b0 08 0c
        E 8 b0 08 0e
        E 8 b0 08 10
        E 8 b0 08 11
        E 8 b0 08 13
        E 8 b0 08 15
        E 8 b0 08 17
        E 8 b0 08 19
        E 8 b0 08 1b
        E 8 b0 08 1d
        E 8 b0 08 1f
        E 8 b0 08 21
        E 8 b0 08 23
        E 8 b0 08 25
        E 8 b0 08 27
        E 8 b0 08 2a
        E 8 b0 08 2c
        E 8 b0 08 20
        E 8 b0 08 21
        E 8 b0 08 23
        E 8 b0 08 24
        E 8 b0 08 26
        E 8 b0 08 27
        E 8 b0 08 29
        E 8 b0 08 2a
        E 8 b0 08 2c
        E 8 b0 08 2d
        E 8 b0 08 2f
        E 8 b0 08 30
        E 8 b0 08 31
        E 8 b0 08 33
        E 8 b0 08 34
        E 8 b0 08 35
        E 8 b0 08 36
        E 8 b0 08 37
        E 8 b0 08 38
        E 8 b0 08 39
        E 8 b0 08 3a
        E 8 b0 08 3b
        E 8 b0 08 3c
        E 8 b0 08 3c
        E 8 b0 08 3d
        E 8 b0 08 3d
        E 8 b0 08 3e
        E 8 b0 08 3e
        E 8 b0 08 3f
        E 8 b0 08 3f
        E 8 b0 08 3f
        E 8 b0 08 3f
        E 8 b0 08 3f
        E 8 b0 08 3f
        E 8 b0 08 3f
        E 8 b0 08 3f
        E 8 b0 08 3f
        E 8 b0 08 3e
        E 8 b0 08 3e
        E 8 b0 08 3d
        E 8 b0 08 3d
        E 8 b0 08 3c
        E 8 b0 08 3b
        E 8 b0 08 3a
        E 8 b0 08 3a
        E 8 b0 08 39
        E 8 b0 08 38
        E 8 b0 08 37
        E 8 b0 08 36
        E 8 b0 08 34
        E 8 b0 08 33
        E 8 b0 08 32
        E 8 b0 08 31
        E 8 b0 08 2f
        E 8 b0 08 2e
        E 8 b0 08 2c
        E 8 b0 08 2b
        E 8 b0 08 2a
        E 8 b0 08 28
        E 8 b0 08 27
        E 8 b0 08 25
        E 8 b0 08 23
        E 8 b0 08 22
        E 8 b0 08 20
        E 8 b0 08 1f
        E 8 b0 08 1d
        E 8 b0 08 1c
        E 8 b0 08 1a
        E 8 b0 08 18
        E 8 b0 08 17
        E 8 b0 08 15
        E 8 b0 08 14
        E 8 b0 08 13
        E 8 b0 08 11
        E 8 b0 08 10
        E 8 b0 08 0e
        E 8 b0 08 0d
        E 8 b0 08 0c
        E 8 b0 08 0b
        E 8 b0 08 09
        E 8 b0 08 08
        E 8 b0 08 07
        E 8 b0 08 06
        E 8 b0 08 05
        E 8 b0 08 05
        E 8 b0 08 04
        E 8 b0 08 03
        E 8 b0 08 02
        E 8 b0 08 02
        E 8 b0 08 01
        E 8 b0 08 01
        E 8 b0 08 00
        E 8 b0 08 00
        E 8 b0 08 00
        E 8 b0 08 00
        E 8 b0 08 00
        E 8 b0 08 00
        E 8 b0 08 00
        E 8 b0 08 00
        E 8 b0 08 00
        E 8 b0 08 01
        E 8 b0 08 01
        E 8 b0 08 02
        E 8 b0 08 02
        E 8 b0 08 03
        E 8 b0 08 03
        E 8 b0 08 04
        E 8 b0 08 05
        E 8 b0 08 06
        E 8 b0 08 07
        E 8 b0 08 08
        E 8 b0 08 09
        E 8 b0 08 0a
        E 8 b0 08 0b
        E 8 b0 08 0c
        E 8 b0 08 0e
        E 8 b0 08 0f
        E 8 b0 08 10
        E 8 b0 08 12
        E 8 b0 08 13
        E 8 b0 08 15
        E 8 b0 08 16
        E 8 b0 08 18
        E 8 b0 08 19
        E 8 b0 08 1b
        E 8 b0 08 1c
        E 8 b0 08 1e
        E 8 b0 08 20
        E 11 b0 08 20
        E 11 b0 08 21
        E 11 b0 08 23
        E 11 b0 08 24
        E 11 b0 08 26
        E 11 b0 08 27
        E 11 b0 08 29
        E 11 b0 08 2a
        E 11 b0 08 2c
        E 11 b0 08 2d
        E 11 b0 08 2f
        E 11 b0 08 30
        E 11 b0 08 31
        E 11 b0 08 33
        E 11 b0 08 34
        E 11 b0 08 35
        E 11 b0 08 36
        E 11 b0 08 37
        E 11 b0 08 38
        E 11 b0 08 39
        E 11 b0 08 3a
        E 11 b0 08 3b
        E 11 b0 08 3c
        E 11 b0 08 3c
        E 11 b0 08 3d
        E 11 b0 08 3d
        E 11 b0 08 3e
        E 11 b0 08 3e
        E 11 b0 08 3f
        E 11 b0 08 3f
        E 11 b0 08 3f
        E 11 b0 08 3f
        E 11 b0 08 3f
        E 11 b0 08 3f
        E 11 b0 08 3f
        E 11 b0 08 3f
        E 11 b0 08 3f
        E 11 b0 08 3e
        E 11 b0 08 3e
        E 11 b0 08 3d
        E 11 b0 08 3d
        E 11 b0 08 3c
        E 11 b0 08 3b
        E 11 b0 08 3a
        E 11 b0 08 3a
        E 11 b0 08 39
        E 11 b0 08 38
        E 11 b0 08 37
        E 11 b0 08 36
        E 11 b0 08 34
        E 11 b0 08 33
        E 11 b0 08 32
        E 11 b0 08 31
        E 11 b0 08 2f
        E 11 b0 08 2e
        E 11 b0 08 2c
        E 11 b0 08 2b
        E 11 b0 08 2a
        E 11 b0 08 28
        E 11 b0 08 27
        E 11 b0 08 25
        E 11 b0 08 23
        E 11 b0 08 22
        E 11 b0 08 20
        E 11 b0 08 1f
        E 11 b0 08 1d
        E 11 b0 08 1c
        E 11 b0 08 1a
        E 11 b0 08 18
        E 11 b0 08 17
        E 11 b0 08 15
        E 11 b0 08 14
        E 11 b0 08 13
        E 11 b0 08 11
        E 11 b0 08 10
        E 11 b0 08 0e
        E 11 b0 08 0d
        E 11 b0 08 0c
        E 11 b0 08 0b
        E 11 b0 08 09
        E 11 b0 08 08
        E 11 b0 08 07
        E 11 b0 08 06
        E 11 b0 08 05
        E 11 b0 08 05
        E 11 b0 08 04
        E 11 b0 08 03
        E 11 b0 08 02
        E 11 b0 08 02
        E 11 b0 08 01
        E 11 b0 08 01
        E 11 b0 08 00
        E 11 b0 08 00
        E 11 b0 08 00
        E 11 b0 08 00
        E 11 b0 08 00
        E 11 b0 08 00
        E 11 b0 08 00
        E 11 b0 08 00
        E 11 b0 08 00
        E 11 b0 08 01
        E 11 b0 08 01
        E 11 b0 08 02
        E 11 b0 08 02
        E 11 b0 08 03
        E 11 b0 08 03
        E 11 b0 08 04
        E 11 b0 08 05
        E 11 b0 08 06
        E 11 b0 08 07
        E 11 b0 08 08
        E 11 b0 08 09
        E 11 b0 08 0a
        E 11 b0 08 0b
        E 11 b0 08 0c
        E 11 b0 08 0e
        E 11 b0 08 0f
        E 11 b0 08 10
        E 11 b0 08 12
        E 11 b0 08 13
        E 11 b0 08 15
        E 11 b0 08 16
        E 11 b0 08 18
        E 11 b0 08 19
        E 11 b0 08 1b
        E 11 b0 08 1c
        E 11 b0 08 1e
        E 11 b0 08 20
        E 13 b0 08 40
        E 13 b0 08 43
        E 13 b0 08 46
        E 13 b0 08 49
        E 13 b0 08 4c
        E 13 b0 08 4f
        E 13 b0 08 52
        E 13 b0 08 55
        E 13 b0 08 58
        E 13 b0 08 5b
        E 13 b0 08 5e
        E 13 b0 08 60
        E 13 b0 08 63
        E 13 b0 08 66
        E 13 b0 08 68
        E 13 b0 08 6a
        E 13 b0 08 6d
        E 13 b0 08 6f
        E 13 b0 08 71
        E 13 b0 08 73
        E 13 b0 08 75
        E 13 b0 08 76
        E 13 b0 08 78
        E 13 b0 08 79
        E 13 b0 08 7a
        E 13 b0 08 7b
        E 13 b0 08 7c
        E 13 b0 08 7d
        E 13 b0 08 7e
        E 13 b0 08 7e
        E 13 b0 08 7f
        E 13 b0 08 7f
        E 13 b0 08 7f
        E 13 b0 08 7f
        E 13 b0 08 7f
        E 13 b0 08 7e
        E 13 b0 08 7e
        E 13 b0 08 7d
        E 13 b0 08 7c
        E 13 b0 08 7b
        E 13 b0 08 7a
        E 13 b0 08 78
        E 13 b0 08 77
        E 13 b0 08 75
        E 13 b0 08 74
        E 13 b0 08 72
        E 13 b0 08 70
        E 13 b0 08 6e
        E 13 b0 08 6c
        E 13 b0 08 69
        E 13 b0 08 67
        E 13 b0 08 64
        E 13 b0 08 62
        E 13 b0 08 5f
        E 13 b0 08 5c
        E 13 b0 08 59
        E 13 b0 08 57
        E 13 b0 08 54
        E 13 b0 08 51
        E 13 b0 08 4e
        E 13 b0 08 4a
        E 13 b0 08 47
        E 13 b0 08 44
        E 13 b0 08 41
        E 13 b0 08 3e
        E 13 b0 08 3b
        E 13 b0 08 38
        E 13 b0 08 35
        E 13 b0 08 31
        E 13 b0 08 2e
        E 13 b0 08 2b
        E 13 b0 08 28
        E 13 b0 08 26
        E 13 b0 08 23
        E 13 b0 08 20
        E 13 b0 08 1d
        E 13 b0 08 1b
        E 13 b0 08 18
        E 13 b0 08 16
        E 13 b0 08 13
        E 13 b0 08 11
        E 13 b0 08 0f
        E 13 b0 08 0d
        E 13 b0 08 0b
        E 13 b0 08 0a
        E 13 b0 08 08
        E 13 b0 08 07
        E 13 b0 08 05
        E 13 b0 08 04
        E 13 b0 08 03
        E 13 b0 08 02
        E 13 b0 08 01
        E 13 b0 08 01
        E 13 b0 08 00
        E 13 b0 08 00
        E 13 b0 08 00
        E 13 b0 08 00
        E 13 b0 08 00
        E 13 b0 08 01
        E 13 b0 08 01
        E 13 b0 08 02
        E 13 b0 08 03
        E 13 b0 08 04
        E 13 b0 08 05
        E 13 b0 08 06
        E 13 b0 08 07
        E 13 b0 08 09
        E 13 b0 08 0a
        E 13 b0 08 0c
        E 13 b0 08 0e
        E 13 b0 08 10
        E 13 b0 08 12
        E 13 b0 08 15
        E 13 b0 08 17
        E 13 b0 08 19
        E 13 b0 08 1c
        E 13 b0 08 1f
        E 13 b0 08 21
        E 13 b0 08 24
        E 13 b0 08 27
        E 13 b0 08 2a
        E 13 b0 08 2d
        E 13 b0 08 30
        E 13 b0 08 33
        E 13 b0 08 36
        E 13 b0 08 39
        E 13 b0 08 3c
        E 13 b0 08 40
        E 11 b0 08 39
        E 11 b0 08 3c
        E 11 b0 08 3f
        E 11 b0 08 41
        E 11 b0 08 44
        E 11 b0 08 47
        E 11 b0 08 49
        E 11 b0 08 4c
        E 11 b0 08 4f
        E 11 b0 08 51
        E 11 b0 08 54
        E 11 b0 08 56
        E 11 b0 08 59
        E 11 b0 08 5b
        E 11 b0 08 5d
        E 11 b0 08 5f
        E 11 b0 08 62
        E 11 b0 08 63
        E 11 b0 08 65
        E 11 b0 08 67
        E 11 b0 08 69
        E 11 b0 08 6a
        E 11 b0 08 6c
        E 11 b0 08 6c
        E 11 b0 08 6d
        E 11 b0 08 6e
        E 11 b0 08 6f
        E 11 b0 08 70
        E 11 b0 08 71
        E 11 b0 08 71
        E 11 b0 08 72
        E 11 b0 08 72
        E 11 b0 08 72
        E 11 b0 08 72
        E 11 b0 08 72
        E 11 b0 08 71
        E 11 b0 08 71
        E 11 b0 08 70
        E 11 b0 08 6f
        E 11 b0 08 6e
        E 11 b0 08 6d
        E 11 b0 08 6c
        E 11 b0 08 6b
        E 11 b0 08 69
        E 11 b0 08 68
        E 11 b0 08 66
        E 11 b0 08 64
        E 11 b0 08 63
        E 11 b0 08 61
        E 11 b0 08 5e
        E 11 b0 08 5c
        E 11 b0 08 5a
        E 11 b0 08 58
        E 11 b0 08 55
        E 11 b0 08 52
        E 11 b0 08 50
        E 11 b0 08 4e
        E 11 b0 08 4b
        E 11 b0 08 48
        E 11 b0 08 46
        E 11 b0 08 42
        E 11 b0 08 3f
        E 11 b0 08 3d
        E 11 b0 08 3a
        E 11 b0 08 37
        E 11 b0 08 35
        E 11 b0 08 32
        E 11 b0 08 2f
        E 11 b0 08 2c
        E 11 b0 08 29
        E 11 b0 08 26
        E 11 b0 08 24
        E 11 b0 08 22
        E 11 b0 08 1f
        E 11 b0 08 1c
        E 11 b0 08 1a
        E 11 b0 08 18
        E 11 b0 08 15
        E 11 b0 08 13
        E 11 b0 08 11
        E 11 b0 08 0f
        E 11 b0 08 0d
        E 11 b0 08 0b
        E 11 b0 08 09
        E 11 b0 08 09
        E 11 b0 08 07
        E 11 b0 08 06
        E 11 b0 08 04
        E 11 b0 08 03
        E 11 b0 08 02
        E 11 b0 08 01
        E 11 b0 08 00
        E 11 b0 08 00
        E 11 b0 08 00
        E 11 b0 08 00
        E 11 b0 08 00
        E 11 b0 08 00
        E 11 b0 08 00
        E 11 b0 08 00
        E 11 b0 08 00
        E 11 b0 08 01
        E 11 b0 08 02
        E 11 b0 08 03
        E 11 b0 08 04
        E 11 b0 08 05
        E 11 b0 08 06
        E 11 b0 08 08
        E 11 b0 08 09
        E 11 b0 08 0a
        E 11 b0 08 0c
        E 11 b0 08 0e
        E 11 b0 08 10
        E 11 b0 08 12
        E 11 b0 08 14
        E 11 b0 08 16
        E 11 b0 08 19
        E 11 b0 08 1b
        E 11 b0 08 1d
        E 11 b0 08 20
        E 11 b0 08 23
        E 11 b0 08 25
        E 11 b0 08 28
        E 11 b0 08 2b
        E 11 b0 08 2d
        E 11 b0 08 30
        E 11 b0 08 33
        E 11 b0 08 36
        E 11 b0 08 39
        E 8 b0 08 20
        E 8 b0 08 21
        E 8 b0 08 23
        E 8 b0 08 24
        E 8 b0 08 26
        E 8 b0 08 27
        E 8 b0 08 29
        E 8 b0 08 2a
        E 8 b0 08 2c
        E 8 b0 08 2d
        E 8 b0 08 2f
        E 8 b0 08 30
        E 8 b0 08 31
        E 8 b0 08 33
        E 8 b0 08 34
        E 8 b0 08 35
        E 8 b0 08 36
        E 8 b0 08 37
        E 8 b0 08 38
        E 8 b0 08 39
        E 8 b0 08 3a
        E 8 b0 08 3b
        E 8 b0 08 3c
        E 8 b0 08 3c
        E 8 b0 08 3d
        E 8 b0 08 3d
        E 8 b0 08 3e
        E 8 b0 08 3e
        E 8 b0 08 3f
        E 8 b0 08 3f
        E 8 b0 08 3f
        E 8 b0 08 3f
        E 8 b0 08 3f
        E 8 b0 08 3f
        E 8 b0 08 3f
        E 8 b0 08 3f
        E 8 b0 08 3f
        E 8 b0 08 3e
        E 8 b0 08 3e
        E 8 b0 08 3d
        E 8 b0 08 3d
        E 8 b0 08 3c
        E 8 b0 08 3b
        E 8 b0 08 3a
        E 8 b0 08 3a
        E 8 b0 08 39
        E 8 b0 08 38
        E 8 b0 08 37
        E 8 b0 08 36
        E 8 b0 08 34
        E 8 b0 08 33
        E 8 b0 08 32
        E 8 b0 08 31
        E 8 b0 08 2f
        E 8 b0 08 2e
        E 8 b0 08 2c
        E 8 b0 08 2b
        E 8 b0 08 2a
        E 8 b0 08 28
        E 8 b0 08 27
        E 8 b0 08 25
        E 8 b0 08 23
        E 8 b0 08 22
        E 8 b0 08 20
        E 8 b0 08 1f
        E 8 b0 08 1d
        E 8 b0 08 1c
        E 8 b0 08 1a
        E 8 b0 08 18
        E 8 b0 08 17
        E 8 b0 08 15
        E 8 b0 08 14
        E 8 b0 08 13
        E 8 b0 08 11
        E 8 b0 08 10
        E 8 b0 08 0e
        E 8 b0 08 0d
        E 8 b0 08 0c
        E 8 b0 08 0b
        E 8 b0 08 09
        E 8 b0 08 08
        E 8 b0 08 07
        E 8 b0 08 06
        E 8 b0 08 05
        E 8 b0 08 05
        E 8 b0 08 04
        E 8 b0 08 03
        E 8 b0 08 02
        E 8 b0 08 02
        E 8 b0 08 01
        E 8 b0 08 01
        E 8 b0 08 00
        E 8 b0 08 00
        E 8 b0 08 00
        E 8 b0 08 00
        E 8 b0 08 00
        E 8 b0 08 00
        E 8 b0 08 00
        E 8 b0 08 00
        E 8 b0 08 00
        E 8 b0 08 01
        E 8 b0 08 01
        E 8 b0 08 02
        E 8 b0 08 02
        E 8 b0 08 03
        E 8 b0 08 03
        E 8 b0 08 04
        E 8 b0 08 05
        E 8 b0 08 06
        E 8 b0 08 07
        E 8 b0 08 08
        E 8 b0 08 09
        E 8 b0 08 0a
        E 8 b0 08 0b
        E 8 b0 08 0c
        E 8 b0 08 0e
        E 8 b0 08 0f
        E 8 b0 08 10
        E 8 b0 08 12
        E 8 b0 08 13
        E 8 b0 08 15
        E 8 b0 08 16
        E 8 b0 08 18
        E 8 b0 08 19
        E 8 b0 08 1b
        E 8 b0 08 1c
        E 8 b0 08 1e
        E 8 b0 08 20
        E 8 b0 08 20
        E 8 b0 08 21
        E 8 b0 08 23
        E 8 b0 08 24
        E 8 b0 08 26
        E 8 b0 08 27
        E 8 b0 08 29
        E 8 b0 08 2a
        E 8 b0 08 2c
        E 8 b0 08 2d
        E 8 b0 08 2f
        E 8 b0 08 30
        E 8 b0 08 31
        E 8 b0 08 33
        E 8 b0 08 34
        E 8 b0 08 35
        E 8 b0 08 36
        E 8 b0 08 37
        E 8 b0 08 38
        E 8 b0 08 39
        E 8 b0 08 3a
        E 8 b0 08 3b
        E 8 b0 08 3c
        E 8 b0 08 3c
        E 8 b0 08 3d
        E 8 b0 08 3d
        E 8 b0 08 3e
        E 8 b0 08 3e
        E 8 b0 08 3f
        E 8 b0 08 3f
        E 8 b0 08 3f
        E 8 b0 08 3f
        E 8 b0 08 3f
        E 8 b0 08 3f
        E 8 b0 08 3f
        E 8 b0 08 3f
        E 8 b0 08 3f
        E 8 b0 08 3e
        E 8 b0 08 3e
        E 8 b0 08 3d
        E 8 b0 08 3d
        E 8 b0 08 3c
        E 8 b0 08 3b
        E 8 b0 08 3a
        E 8 b0 08 3a
        E 8 b0 08 39
        E 8 b0 08 38
        E 8 b0 08 37
        E 8 b0 08 36
        E 8 b0 08 34
        E 8 b0 08 33
        E 8 b0 08 32
        E 8 b0 08 31
        E 8 b0 08 2f
        E 8 b0 08 2e
        E 8 b0 08 2c
        E 8 b0 08 2b
        E 8 b0 08 2a
        E 8 b0 08 28
        E 8 b0 08 27
        E 8 b0 08 25
        E 8 b0 08 23
        E 8 b0 08 22
        E 8 b0 08 20
        E 8 b0 08 1f
        E 8 b0 08 1d
        E 8 b0 08 1c
        E 8 b0 08 1a
        E 8 b0 08 18
        E 8 b0 08 17
        E 8 b0 08 15
        E 8 b0 08 14
        E 8 b0 08 13
        E 8 b0 08 11
        E 8 b0 08 10
        E 8 b0 08 0e
        E 8 b0 08 0d
        E 8 b0 08 0c
        E 8 b0 08 0b
        E 8 b0 08 09
        E 8 b0 08 08
        E 8 b0 08 07
        E 8 b0 08 06
        E 8 b0 08 05
        E 8 b0 08 05
        E 8 b0 08 04
        E 8 b0 08 03
        E 8 b0 08 02
        E 8 b0 08 02
        E 8 b0 08 01
        E 8 b0 08 01
        E 8 b0 08 00
        E 8 b0 08 00
        E 8 b0 08 00
        E 8 b0 08 00
        E 8 b0 08 00
        E 8 b0 08 00
        E 8 b0 08 00
        E 8 b0 08 00
        E 8 b0 08 00
        E 8 b0 08 01
        E 8 b0 08 01
        E 8 b0 08 02
        E 8 b0 08 02
        E 8 b0 08 03
        E 8 b0 08 03
        E 8 b0 08 04
        E 8 b0 08 05
        E 8 b0 08 06
        E 8 b0 08 07
        E 8 b0 08 08
        E 8 b0 08 09
        E 8 b0 08 0a
        E 8 b0 08 0b
        E 8 b0 08 0c
        E 8 b0 08 0e
        E 8 b0 08 0f
        E 8 b0 08 10
        E 8 b0 08 12
        E 8 b0 08 13
        E 8 b0 08 15
        E 8 b0 08 16
        E 8 b0 08 18
        E 8 b0 08 19
        E 8 b0 08 1b
        E 8 b0 08 1c
        E 8 b0 08 1e
        E 8 b0 08 20
        E 17 b0 08 2c
        E 17 b0 08 2e
        E 17 b0 08 31
        E 17 b0 08 33
        E 17 b0 08 35
        E 17 b0 08 37
        E 17 b0 08 39
        E 17 b0 08 3b
        E 17 b0 08 3d
        E 17 b0 08 3f
        E 17 b0 08 41
        E 17 b0 08 43
        E 17 b0 08 45
        E 17 b0 08 47
        E 17 b0 08 48
        E 17 b0 08 4a
        E 17 b0 08 4c
        E 17 b0 08 4d
        E 17 b0 08 4f
        E 17 b0 08 50
        E 17 b0 08 51
        E 17 b0 08 52
        E 17 b0 08 54
        E 17 b0 08 54
        E 17 b0 08 55
        E 17 b0 08 56
        E 17 b0 08 56
        E 17 b0 08 57
        E 17 b0 08 58
        E 17 b0 08 58
        E 17 b0 08 58
        E 17 b0 08 58
        E 17 b0 08 58
        E 17 b0 08 58
        E 17 b0 08 58
        E 17 b0 08 58
        E 17 b0 08 58
        E 17 b0 08 57
        E 17 b0 08 56
        E 17 b0 08 56
        E 17 b0 08 55
        E 17 b0 08 54
        E 17 b0 08 53
        E 17 b0 08 51
        E 17 b0 08 51
        E 17 b0 08 4f
        E 17 b0 08 4e
        E 17 b0 08 4d
        E 17 b0 08 4b
        E 17 b0 08 49
        E 17 b0 08 48
        E 17 b0 08 46
        E 17 b0 08 44
        E 17 b0 08 42
        E 17 b0 08 40
        E 17 b0 08 3e
        E 17 b0 08 3c
        E 17 b0 08 3a
        E 17 b0 08 38
        E 17 b0 08 36
        E 17 b0 08 33
        E 17 b0 08 31
        E 17 b0 08 2f
        E 17 b0 08 2d
        E 17 b0 08 2b
        E 17 b0 08 29
        E 17 b0 08 27
        E 17 b0 08 25
        E 17 b0 08 22
        E 17 b0 08 20
        E 17 b0 08 1e
        E 17 b0 08 1c
        E 17 b0 08 1a
        E 17 b0 08 18
        E 17 b0 08 16
        E 17 b0 08 14
        E 17 b0 08 12
        E 17 b0 08 10
        E 17 b0 08 0f
        E 17 b0 08 0d
        E 17 b0 08 0b
        E 17 b0 08 0a
        E 17 b0 08 09
        E 17 b0 08 07
        E 17 b0 08 07
        E 17 b0 08 05
        E 17 b0 08 04
        E 17 b0 08 03
        E 17 b0 08 02
        E 17 b0 08 02
        E 17 b0 08 01
        E 17 b0 08 00
        E 17 b0 08 00
        E 17 b0 08 00
        E 17 b0 08 00
        E 17 b0 08 00
        E 17 b0 08 00
        E 17 b0 08 00
        E 17 b0 08 00
        E 17 b0 08 00
        E 17 b0 08 01
        E 17 b0 08 02
        E 17 b0 08 02
        E 17 b0 08 03
        E 17 b0 08 04
        E 17 b0 08 04
        E 17 b0 08 06
        E 17 b0 08 07
        E 17 b0 08 08
        E 17 b0 08 09
        E 17 b0 08 0b
        E 17 b0 08 0c
        E 17 b0 08 0e
        E 17 b0 08 10
        E 17 b0 08 11
        E 17 b0 08 13
        E 17 b0 08 15
        E 17 b0 08 17
        E 17 b0 08 19
        E 17 b0 08 1b
        E 17 b0 08 1d
        E 17 b0 08 1f
        E 17 b0 08 21
        E 17 b0 08 23
        E 17 b0 08 25
        E 17 b0 08 27
        E 17 b0 08 2a
        E 17 b0 08 2c
        E 15 b0 08 33
        E 15 b0 08 35
        E 15 b0 08 37
        E 15 b0 08 3a
        E 15 b0 08 3c
        E 15 b0 08 3f
        E 15 b0 08 41
        E 15 b0 08 44
        E 15 b0 08 46
        E 15 b0 08 48
        E 15 b0 08 4b
        E 15 b0 08 4c
        E 15 b0 08 4f
        E 15 b0 08 51
        E 15 b0 08 53
        E 15 b0 08 54
        E 15 b0 08 57
        E 15 b0 08 58
        E 15 b0 08 5a
        E 15 b0 08 5b
        E 15 b0 08 5d
        E 15 b0 08 5e
        E 15 b0 08 5f
        E 15 b0 08 60
        E 15 b0 08 61
        E 15 b0 08 62
        E 15 b0 08 63
        E 15 b0 08 63
        E 15 b0 08 64
        E 15 b0 08 64
        E 15 b0 08 65
        E 15 b0 08 65
        E 15 b0 08 65
        E 15 b0 08 65
        E 15 b0 08 65
        E 15 b0 08 64
        E 15 b0 08 64
        E 15 b0 08 63
        E 15 b0 08 63
        E 15 b0 08 62
        E 15 b0 08 61
        E 15 b0 08 5f
        E 15 b0 08 5f
        E 15 b0 08 5d
        E 15 b0 08 5c
        E 15 b0 08 5b
        E 15 b0 08 59
        E 15 b0 08 57
        E 15 b0 08 56
        E 15 b0 08 54
        E 15 b0 08 52
        E 15 b0 08 50
        E 15 b0 08 4e
        E 15 b0 08 4c
        E 15 b0 08 49
        E 15 b0 08 47
        E 15 b0 08 45
        E 15 b0 08 43
        E 15 b0 08 40
        E 15 b0 08 3e
        E 15 b0 08 3b
        E 15 b0 08 38
        E 15 b0 08 36
        E 15 b0 08 33
        E 15 b0 08 31
        E 15 b0 08 2f
        E 15 b0 08 2c
        E 15 b0 08 2a
        E 15 b0 08 27
        E 15 b0 08 24
        E 15 b0 08 22
        E 15 b0 08 1f
        E 15 b0 08 1e
        E 15 b0 08 1b
        E 15 b0 08 19
        E 15 b0 08 17
        E 15 b0 08 15
        E 15 b0 08 13
        E 15 b0 08 11
        E 15 b0 08 0f
        E 15 b0 08 0d
        E 15 b0 08 0b
        E 15 b0 08 0a
        E 15 b0 08 08
        E 15 b0 08 07
        E 15 b0 08 06
        E 15 b0 08 05
        E 15 b0 08 03
        E 15 b0 08 03
        E 15 b0 08 02
        E 15 b0 08 01
        E 15 b0 08 00
        E 15 b0 08 00
        E 15 b0 08 00
        E 15 b0 08 00
        E 15 b0 08 00
        E 15 b0 08 00
        E 15 b0 08 00
        E 15 b0 08 00
        E 15 b0 08 00
        E 15 b0 08 01
        E 15 b0 08 02
        E 15 b0 08 03
        E 15 b0 08 03
        E 15 b0 08 04
        E 15 b0 08 05
        E 15 b0 08 07
        E 15 b0 08 07
        E 15 b0 08 09
        E 15 b0 08 0b
        E 15 b0 08 0c
        E 15 b0 08 0e
        E 15 b0 08 10
        E 15 b0 08 12
        E 15 b0 08 14
        E 15 b0 08 16
        E 15 b0 08 18
        E 15 b0 08 1a
        E 15 b0 08 1c
        E 15 b0 08 1f
        E 15 b0 08 21
        E 15 b0 08 24
        E 15 b0 08 26
        E 15 b0 08 28
        E 15 b0 08 2b
        E 15 b0 08 2d
        E 15 b0 08 2f
        E 15 b0 08 33
        E 17 b0 08 06
        E 17 b0 08 06
        E 17 b0 08 07
        E 17 b0 08 07
        E 17 b0 08 07
        E 17 b0 08 07
        E 17 b0 08 08
        E 17 b0 08 08
        E 17 b0 08 08
        E 17 b0 08 09
        E 17 b0 08 09
        E 17 b0 08 09
        E 17 b0 08 09
        E 17 b0 08 0a
        E 17 b0 08 0a
        E 17 b0 08 0a
        E 17 b0 08 0a
        E 17 b0 08 0b
        E 17 b0 08 0b
        E 17 b0 08 0b
        E 17 b0 08 0b
        E 17 b0 08 0b
        E 17 b0 08 0c
        E 17 b0 08 0c
        E 17 b0 08 0c
        E 17 b0 08 0c
        E 17 b0 08 0c
        E 17 b0 08 0c
        E 17 b0 08 0c
        E 17 b0 08 0c
        E 17 b0 08 0c
        E 17 b0 08 0c
        E 17 b0 08 0c
        E 17 b0 08 0c
        E 17 b0 08 0c
        E 17 b0 08 0c
        E 17 b0 08 0c
        E 17 b0 08 0c
        E 17 b0 08 0c
        E 17 b0 08 0c
        E 17 b0 08 0c
        E 17 b0 08 0c
        E 17 b0 08 0b
        E 17 b0 08 0b
        E 17 b0 08 0b
        E 17 b0 08 0b
        E 17 b0 08 0b
        E 17 b0 08 0b
        E 17 b0 08 0a
        E 17 b0 08 0a
        E 17 b0 08 0a
        E 17 b0 08 0a
        E 17 b0 08 09
        E 17 b0 08 09
        E 17 b0 08 09
        E 17 b0 08 08
        E 17 b0 08 08
        E 17 b0 08 08
        E 17 b0 08 08
        E 17 b0 08 07
        E 17 b0 08 07
        E 17 b0 08 07
        E 17 b0 08 06
        E 17 b0 08 06
        E 17 b0 08 06
        E 17 b0 08 05
        E 17 b0 08 05
        E 17 b0 08 05
        E 17 b0 08 04
        E 17 b0 08 04
        E 17 b0 08 04
        E 17 b0 08 04
        E 17 b0 08 03
        E 17 b0 08 03
        E 17 b0 08 03
        E 17 b0 08 02
        E 17 b0 08 02
        E 17 b0 08 02
        E 17 b0 08 02
        E 17 b0 08 01
        E 17 b0 08 01
        E 17 b0 08 01
        E 17 b0 08 01
        E 17 b0 08 01
        E 17 b0 08 01
        E 17 b0 08 00
        E 17 b0 08 00
        E 17 b0 08 00
        E 17 b0 08 00
        E 17 b0 08 00
        E 17 b0 08 00
        E 17 b0 08 00
        E 17 b0 08 00
        E 17 b0 08 00
        E 17 b0 08 00
        E 17 b0 08 00
        E 17 b0 08 00
        E 17 b0 08 00
        E 17 b0 08 00
        E 17 b0 08 00
        E 17 b0 08 00
        E 17 b0 08 00
        E 17 b0 08 00
        E 17 b0 08 00
        E 17 b0 08 00
        E 17 b0 08 00
        E 17 b0 08 00
        E 17 b0 08 01
        E 17 b0 08 01
        E 17 b0 08 01
        E 17 b0 08 01
        E 17 b0 08 01
        E 17 b0 08 02
        E 17 b0 08 02
        E 17 b0 08 02
        E 17 b0 08 02
        E 17 b0 08 03
        E 17 b0 08 03
        E 17 b0 08 03
        E 17 b0 08 03
        E 17 b0 08 04
        E 17 b0 08 04
        E 17 b0 08 04
        E 17 b0 08 05
        E 17 b0 08 05
        E 17 b0 08 05
        E 17 b0 08 06
        E 17 b0 08 06
        E 15 b0 08 19
        E 15 b0 08 1a
        E 15 b0 08 1c
        E 15 b0 08 1d
        E 15 b0 08 1e
        E 15 b0 08 1f
        E 15 b0 08 20
        E 15 b0 08 22
        E 15 b0 08 23
        E 15 b0 08 24
        E 15 b0 08 25
        E 15 b0 08 26
        E 15 b0 08 27
        E 15 b0 08 28
        E 15 b0 08 29
        E 15 b0 08 2a
        E 15 b0 08 2b
        E 15 b0 08 2c
        E 15 b0 08 2d
        E 15 b0 08 2e
        E 15 b0 08 2e
        E 15 b0 08 2f
        E 15 b0 08 30
        E 15 b0 08 30
        E 15 b0 08 30
        E 15 b0 08 31
        E 15 b0 08 31
        E 15 b0 08 32
        E 15 b0 08 32
        E 15 b0 08 32
        E 15 b0 08 32
        E 15 b0 08 32
        E 15 b0 08 32
        E 15 b0 08 32
        E 15 b0 08 32
        E 15 b0 08 32
        E 15 b0 08 32
        E 15 b0 08 32
        E 15 b0 08 31
        E 15 b0 08 31
        E 15 b0 08 30
        E 15 b0 08 30
        E 15 b0 08 2f
        E 15 b0 08 2e
        E 15 b0 08 2e
        E 15 b0 08 2d
        E 15 b0 08 2c
        E 15 b0 08 2c
        E 15 b0 08 2b
        E 15 b0 08 2a
        E 15 b0 08 29
        E 15 b0 08 28
        E 15 b0 08 27
        E 15 b0 08 26
        E 15 b0 08 24
        E 15 b0 08 23
        E 15 b0 08 22
        E 15 b0 08 21
        E 15 b0 08 20
        E 15 b0 08 1f
        E 15 b0 08 1d
        E 15 b0 08 1c
        E 15 b0 08 1b
        E 15 b0 08 1a
        E 15 b0 08 18
        E 15 b0 08 17
        E 15 b0 08 16
        E 15 b0 08 15
        E 15 b0 08 13
        E 15 b0 08 12
        E 15 b0 08 11
        E 15 b0 08 10
        E 15 b0 08 0f
        E 15 b0 08 0e
        E 15 b0 08 0c
        E 15 b0 08 0b
        E 15 b0 08 0a
        E 15 b0 08 09
        E 15 b0 08 08
        E 15 b0 08 07
        E 15 b0 08 06
        E 15 b0 08 06
        E 15 b0 08 05
        E 15 b0 08 04
        E 15 b0 08 04
        E 15 b0 08 03
        E 15 b0 08 02
        E 15 b0 08 02
        E 15 b0 08 01
        E 15 b0 08 01
        E 15 b0 08 00
        E 15 b0 08 00
        E 15 b0 08 00
        E 15 b0 08 00
        E 15 b0 08 00
        E 15 b0 08 00
        E 15 b0 08 00
        E 15 b0 08 00
        E 15 b0 08 00
        E 15 b0 08 00
        E 15 b0 08 00
        E 15 b0 08 01
        E 15 b0 08 01
        E 15 b0 08 02
        E 15 b0 08 02
        E 15 b0 08 02
        E 15 b0 08 03
        E 15 b0 08 04
        E 15 b0 08 04
        E 15 b0 08 05
        E 15 b0 08 06
        E 15 b0 08 07
        E 15 b0 08 08
        E 15 b0 08 09
        E 15 b0 08 0a
        E 15 b0 08 0b
        E 15 b0 08 0c
        E 15 b0 08 0d
        E 15 b0 08 0e
        E 15 b0 08 0f
        E 15 b0 08 10
        E 15 b0 08 12
        E 15 b0 08 13
        E 15 b0 08 14
        E 15 b0 08 15
        E 15 b0 08 16
        E 15 b0 08 18
        E 15 b0 08 19
        E 8 b0 08 2c
        E 8 b0 08 2e
        E 8 b0 08 31
        E 8 b0 08 33
        E 8 b0 08 35
        E 8 b0 08 37
        E 8 b0 08 39
        E 8 b0 08 3b
        E 8 b0 08 3d
        E 8 b0 08 3f
        E 8 b0 08 41
        E 8 b0 08 43
        E 8 b0 08 45
        E 8 b0 08 47
        E 8 b0 08 48
        E 8 b0 08 4a
        E 8 b0 08 4c
        E 8 b0 08 4d
        E 8 b0 08 4f
        E 8 b0 08 50
        E 8 b0 08 51
        E 8 b0 08 52
        E 8 b0 08 54
        E 8 b0 08 54
        E 8 b0 08 55
        E 8 b0 08 56
        E 8 b0 08 56
        E 8 b0 08 57
        E 8 b0 08 58
        E 8 b0 08 58
        E 8 b0 08 58
        E 8 b0 08 58
        E 8 b0 08 58
        E 8 b0 08 58
        E 8 b0 08 58
        E 8 b0 08 58
        E 8 b0 08 58
        E 8 b0 08 57
        E 8 b0 08 56
        E 8 b0 08 56
        E 8 b0 08 55
        E 8 b0 08 54
        E 8 b0 08 53
        E 8 b0 08 51
        E 8 b0 08 51
        E 8 b0 08 4f
        E 8 b0 08 4e
        E 8 b0 08 4d
        E 8 b0 08 4b
        E 8 b0 08 49
        E 8 b0 08 48
        E 8 b0 08 46
        E 8 b0 08 44
        E 8 b0 08 42
        E 8 b0 08 40
        E 8 b0 08 3e
        E 8 b0 08 3c
        E 8 b0 08 3a
        E 8 b0 08 38
        E 8 b0 08 36
        E 8 b0 08 33
        E 8 b0 08 31
        E 8 b0 08 2f
        E 8 b0 08 2d
        E 8 b0 08 2b
        E 8 b0 08 29
        E 8 b0 08 27
        E 8 b0 08 25
        E 8 b0 08 22
        E 8 b0 08 20
        E 8 b0 08 1e
        E 8 b0 08 1c
        E 8 b0 08 1a
        E 8 b0 08 18
        E 8 b0 08 16
        E 8 b0 08 14
        E 8 b0 08 12
        E 8 b0 08 10
        E 8 b0 08 0f
        E 8 b0 08 0d
        E 8 b0 08 0b
        E 8 b0 08 0a
        E 8 b0 08 09
        E 8 b0 08 07
        E 8 b0 08 07
        E 8 b0 08 05
        E 8 b0 08 04
        E 8 b0 08 03
        E 8 b0 08 02
        E 8 b0 08 02
        E 8 b0 08 01
        E 8 b0 08 00
        E 8 b0 08 00
        E 8 b0 08 00
        E 8 b0 08 00
        E 8 b0 08 00
        E 8 b0 08 00
        E 8 b0 08 00
        E 8 b0 08 00
        E 8 b0 08 00
        E 8 b0 08 01
        E 8 b0 08 02
        E 8 b0 08 02
        E 8 b0 08 03
        E 8 b0 08 04
        E 8 b0 08 04
        E 8 b0 08 06
        E 8 b0 08 07
        E 8 b0 08 08
        E 8 b0 08 09
        E 8 b0 08 0b
        E 8 b0 08 0c
        E 8 b0 08 0e
        E 8 b0 08 10
        E 8 b0 08 11
        E 8 b0 08 13
        E 8 b0 08 15
        E 8 b0 08 17
        E 8 b0 08 19
        E 8 b0 08 1b
        E 8 b0 08 1d
        E 8 b0 08 1f
        E 8 b0 08 21
        E 8 b0 08 23
        E 8 b0 08 25
        E 8 b0 08 27
        E 8 b0 08 2a
        E 8 b0 08 2c
        E 8 b0 08 20
        E 8 b0 08 21
        E 8 b0 08 23
        E 8 b0 08 24
        E 8 b0 08 26
        E 8 b0 08 27
        E 8 b0 08 29
        E 8 b0 08 2a
        E 8 b0 08 2c
        E 8 b0 08 2d
        E 8 b0 08 2f
        E 8 b0 08 30
        E 8 b0 08 31
        E 8 b0 08 33
        E 8 b0 08 34
        E 8 b0 08 35
        E 8 b0 08 36
        E 8 b0 08 37
        E 8 b0 08 38
        E 8 b0 08 39
        E 8 b0 08 3a
        E 8 b0 08 3b
        E 8 b0 08 3c
        E 8 b0 08 3c
        E 8 b0 08 3d
        E 8 b0 08 3d
        E 8 b0 08 3e
        E 8 b0 08 3e
        E 8 b0 08 3f
        E 8 b0 08 3f
        E 8 b0 08 3f
        E 8 b0 08 3f
        E 8 b0 08 3f
        E 8 b0 08 3f
        E 8 b0 08 3f
        E 8 b0 08 3f
        E 8 b0 08 3f
        E 8 b0 08 3e
        E 8 b0 08 3e
        E 8 b0 08 3d
        E 8 b0 08 3d
        E 8 b0 08 3c
        E 8 b0 08 3b
        E 8 b0 08 3a
        E 8 b0 08 3a
        E 8 b0 08 39
        E 8 b0 08 38
        E 8 b0 08 37
        E 8 b0 08 36
        E 8 b0 08 34
        E 8 b0 08 33
        E 8 b0 08 32
        E 8 b0 08 31
        E 8 b0 08 2f
        E 8 b0 08 2e
        E 8 b0 08 2c
        E 8 b0 08 2b
        E 8 b0 08 2a
        E 8 b0 08 28
        E 8 b0 08 27
        E 8 b0 08 25
        E 8 b0 08 23
        E 8 b0 08 22
        E 8 b0 08 20
        E 8 b0 08 1f
        E 8 b0 08 1d
        E 8 b0 08 1c
        E 8 b0 08 1a
        E 8 b0 08 18
        E 8 b0 08 17
        E 8 b0 08 15
        E 8 b0 08 14
        E 8 b0 08 13
        E 8 b0 08 11
        E 8 b0 08 10
        E 8 b0 08 0e
        E 8 b0 08 0d
        E 8 b0 08 0c
        E 8 b0 08 0b
        E 8 b0 08 09
        E 8 b0 08 08
        E 8 b0 08 07
        E 8 b0 08 06
        E 8 b0 08 05
        E 8 b0 08 05
        E 8 b0 08 04
        E 8 b0 08 03
        E 8 b0 08 02
        E 8 b0 08 02
        E 8 b0 08 01
        E 8 b0 08 01
        E 8 b0 08 00
        E 8 b0 08 00
        E 8 b0 08 00
        E 8 b0 08 00
        E 8 b0 08 00
        E 8 b0 08 00
        E 8 b0 08 00
        E 8 b0 08 00
        E 8 b0 08 00
        E 8 b0 08 01
        E 8 b0 08 01
        E 8 b0 08 02
        E 8 b0 08 02
        E 8 b0 08 03
        E 8 b0 08 03
        E 8 b0 08 04
        E 8 b0 08 05
        E 8 b0 08 06
        E 8 b0 08 07
        E 8 b0 08 08
        E 8 b0 08 09
        E 8 b0 08 0a
        E 8 b0 08 0b
        E 8 b0 08 0c
        E 8 b0 08 0e
        E 8 b0 08 0f
        E 8 b0 08 10
        E 8 b0 08 12
        E 8 b0 08 13
        E 8 b0 08 15
        E 8 b0 08 16
        E 8 b0 08 18
        E 8 b0 08 19
        E 8 b0 08 1b
        E 8 b0 08 1c
        E 8 b0 08 1e
        E 8 b0 08 20
        E 11 b0 08 20
        E 11 b0 08 21
        E 11 b0 08 23
        E 11 b0 08 24
        E 11 b0 08 26
        E 11 b0 08 27
        E 11 b0 08 29
        E 11 b0 08 2a
        E 11 b0 08 2c
        E 11 b0 08 2d
        E 11 b0 08 2f
        E 11 b0 08 30
        E 11 b0 08 31
        E 11 b0 08 33
        E 11 b0 08 34
        E 11 b0 08 35
        E 11 b0 08 36
        E 11 b0 08 37
        E 11 b0 08 38
        E 11 b0 08 39
        E 11 b0 08 3a
        E 11 b0 08 3b
        E 11 b0 08 3c
        E 11 b0 08 3c
        E 11 b0 08 3d
        E 11 b0 08 3d
        E 11 b0 08 3e
        E 11 b0 08 3e
        E 11 b0 08 3f
        E 11 b0 08 3f
        E 11 b0 08 3f
        E 11 b0 08 3f
        E 11 b0 08 3f
        E 11 b0 08 3f
        E 11 b0 08 3f
        E 11 b0 08 3f
        E 11 b0 08 3f
        E 11 b0 08 3e
        E 11 b0 08 3e
        E 11 b0 08 3d
        E 11 b0 08 3d
        E 11 b0 08 3c
        E 11 b0 08 3b
        E 11 b0 08 3a
        E 11 b0 08 3a
        E 11 b0 08 39
        E 11 b0 08 38
        E 11 b0 08 37
        E 11 b0 08 36
        E 11 b0 08 34
        E 11 b0 08 33
        E 11 b0 08 32
        E 11 b0 08 31
        E 11 b0 08 2f
        E 11 b0 08 2e
        E 11 b0 08 2c
        E 11 b0 08 2b
        E 11 b0 08 2a
        E 11 b0 08 28
        E 11 b0 08 27
        E 11 b0 08 25
        E 11 b0 08 23
        E 11 b0 08 22
        E 11 b0 08 20
        E 11 b0 08 1f
        E 11 b0 08 1d
        E 11 b0 08 1c
        E 11 b0 08 1a
        E 11 b0 08 18
        E 11 b0 08 17
        E 11 b0 08 15
        E 11 b0 08 14
        E 11 b0 08 13
        E 11 b0 08 11
        E 11 b0 08 10
        E 11 b0 08 0e
        E 11 b0 08 0d
        E 11 b0 08 0c
        E 11 b0 08 0b
        E 11 b0 08 09
        E 11 b0 08 08
        E 11 b0 08 07
        E 11 b0 08 06
        E 11 b0 08 05
        E 11 b0 08 05
        E 11 b0 08 04
        E 11 b0 08 03
        E 11 b0 08 02
        E 11 b0 08 02
        E 11 b0 08 01
        E 11 b0 08 01
        E 11 b0 08 00
        E 11 b0 08 00
        E 11 b0 08 00
        E 11 b0 08 00
        E 11 b0 08 00
        E 11 b0 08 00
        E 11 b0 08 00
        E 11 b0 08 00
        E 11 b0 08 00
        E 11 b0 08 01
        E 11 b0 08 01
        E 11 b0 08 02
        E 11 b0 08 02
        E 11 b0 08 03
        E 11 b0 08 03
        E 11 b0 08 04
        E 11 b0 08 05
        E 11 b0 08 06
        E 11 b0 08 07
        E 11 b0 08 08
        E 11 b0 08 09
        E 11 b0 08 0a
        E 11 b0 08 0b
        E 11 b0 08 0c
        E 11 b0 08 0e
        E 11 b0 08 0f
        E 11 b0 08 10
        E 11 b0 08 12
        E 11 b0 08 13
        E 11 b0 08 15
        E 11 b0 08 16
        E 11 b0 08 18
        E 11 b0 08 19
        E 11 b0 08 1b
        E 11 b0 08 1c
        E 11 b0 08 1e
        E 11 b0 08 20
        E 13 b0 08 40
        E 13 b0 08 43
        E 13 b0 08 46
        E 13 b0 08 49
        E 13 b0 08 4c
        E 13 b0 08 4f
        E 13 b0 08 52
        E 13 b0 08 55
        E 13 b0 08 58
        E 13 b0 08 5b
        E 13 b0 08 5e
        E 13 b0 08 60
        E 13 b0 08 63
        E 13 b0 08 66
        E 13 b0 08 68
        E 13 b0 08 6a
        E 13 b0 08 6d
        E 13 b0 08 6f
        E 13 b0 08 71
        E 13 b0 08 73
        E 13 b0 08 75
        E 13 b0 08 76
        E 13 b0 08 78
        E 13 b0 08 79
        E 13 b0 08 7a
        E 13 b0 08 7b
        E 13 b0 08 7c
        E 13 b0 08 7d
        E 13 b0 08 7e
        E 13 b0 08 7e
        E 13 b0 08 7f
        E 13 b0 08 7f
        E 13 b0 08 7f
        E 13 b0 08 7f
        E 13 b0 08 7f
        E 13 b0 08 7e
        E 13 b0 08 7e
        E 13 b0 08 7d
        E 13 b0 08 7c
        E 13 b0 08 7b
        E 13 b0 08 7a
        E 13 b0 08 78
        E 13 b0 08 77
        E 13 b0 08 75
        E 13 b0 08 74
        E 13 b0 08 72
        E 13 b0 08 70
        E 13 b0 08 6e
        E 13 b0 08 6c
        E 13 b0 08 69
        E 13 b0 08 67
        E 13 b0 08 64
        E 13 b0 08 62
        E 13 b0 08 5f
        E 13 b0 08 5c
        E 13 b0 08 59
        E 13 b0 08 57
        E 13 b0 08 54
        E 13 b0 08 51
        E 13 b0 08 4e
        E 13 b0 08 4a
        E 13 b0 08 47
        E 13 b0 08 44
        E 13 b0 08 41
        E 13 b0 08 3e
        E 13 b0 08 3b
        E 13 b0 08 38
        E 13 b0 08 35
        E 13 b0 08 31
        E 13 b0 08 2e
        E 13 b0 08 2b
        E 13 b0 08 28
        E 13 b0 08 26
        E 13 b0 08 23
        E 13 b0 08 20
        E 13 b0 08 1d
        E 13 b0 08 1b
        E 13 b0 08 18
        E 13 b0 08 16
        E 13 b0 08 13
        E 13 b0 08 11
        E 13 b0 08 0f
        E 13 b0 08 0d
        E 13 b0 08 0b
        E 13 b0 08 0a
        E 13 b0 08 08
        E 13 b0 08 07
        E 13 b0 08 05
        E 13 b0 08 04
        E 13 b0 08 03
        E 13 b0 08 02
        E 13 b0 08 01
        E 13 b0 08 01
        E 13 b0 08 00
        E 13 b0 08 00
        E 13 b0 08 00
        E 13 b0 08 00
        E 13 b0 08 00
        E 13 b0 08 01
        E 13 b0 08 01
        E 13 b0 08 02
        E 13 b0 08 03
        E 13 b0 08 04
        E 13 b0 08 05
        E 13 b0 08 06
        E 13 b0 08 07
        E 13 b0 08 09
        E 13 b0 08 0a
        E 13 b0 08 0c
        E 13 b0 08 0e
        E 13 b0 08 10
        E 13 b0 08 12
        E 13 b0 08 15
        E 13 b0 08 17
        E 13 b0 08 19
        E 13 b0 08 1c
        E 13 b0 08 1f
        E 13 b0 08 21
        E 13 b0 08 24
        E 13 b0 08 27
        E 13 b0 08 2a
        E 13 b0 08 2d
        E 13 b0 08 30
        E 13 b0 08 33
        E 13 b0 08 36
        E 13 b0 08 39
        E 13 b0 08 3c
        E 13 b0 08 40
        E 1 b0 08 39
        E 1 b0 08 3c
        E 1 b0 08 3f
        E 1 b0 08 41
        E 1 b0 08 44
        E 1 b0 08 47
        E 1 b0 08 49
        E 1 b0 08 4c
        E 1 b0 08 4f
        E 1 b0 08 51
        E 1 b0 08 54
        E 1 b0 08 56
        E 1 b0 08 59
        E 1 b0 08 5b
        E 1 b0 08 5d
        E 1 b0 08 5f
        E 1 b0 08 62
        E 1 b0 08 63
        E 1 b0 08 65
        E 1 b0 08 67
        E 1 b0 08 69
        E 1 b0 08 6a
        E 1 b0 08 6c
        E 1 b0 08 6c
        E 1 b0 08 6d
        E 1 b0 08 6e
        E 1 b0 08 6f
        E 1 b0 08 70
        E 1 b0 08 71
        E 1 b0 08 71
        E 1 b0 08 72
        E 1 b0 08 72
        E 1 b0 08 72
        E 1 b0 08 72
        E 1 b0 08 72
        E 1 b0 08 71
        E 1 b0 08 71
        E 1 b0 08 70
        E 1 b0 08 6f
        E 1 b0 08 6e
        E 1 b0 08 6d
        E 1 b0 08 6c
        E 1 b0 08 6b
        E 1 b0 08 69
        E 1 b0 08 68
        E 1 b0 08 66
        E 1 b0 08 64
        E 1 b0 08 63
        E 1 b0 08 61
        E 1 b0 08 5e
        E 1 b0 08 5c
        E 1 b0 08 5a
        E 1 b0 08 58
        E 1 b0 08 55
        E 1 b0 08 52
        E 1 b0 08 50
        E 1 b0 08 4e
        E 1 b0 08 4b
        E 1 b0 08 48
        E 1 b0 08 46
        E 1 b0 08 42
        E 1 b0 08 3f
        E 1 b0 08 3d
        E 1 b0 08 3a
        E 1 b0 08 37
        E 1 b0 08 35
        E 1 b0 08 32
        E 1 b0 08 2f
        E 1 b0 08 2c
        E 1 b0 08 29
        E 1 b0 08 26
        E 1 b0 08 24
        E 1 b0 08 22
        E 1 b0 08 1f
        E 1 b0 08 1c
        E 1 b0 08 1a
        E 1 b0 08 18
        E 1 b0 08 15
        E 1 b0 08 13
        E 1 b0 08 11
        E 1 b0 08 0f
        E 1 b0 08 0d
        E 1 b0 08 0b
        E 1 b0 08 09
        E 1 b0 08 09
        E 1 b0 08 07
        E 1 b0 08 06
        E 1 b0 08 04
        E 1 b0 08 03
        E 1 b0 08 02
        E 1 b0 08 01
        E 1 b0 08 00
        E 1 b0 08 00
        E 1 b0 08 00
        E 1 b0 08 00
        E 1 b0 08 00
        E 1 b0 08 00
        E 1 b0 08 00
        E 1 b0 08 00
        E 1 b0 08 00
        E 1 b0 08 01
        E 1 b0 08 02
        E 1 b0 08 03
        E 1 b0 08 04
        E 1 b0 08 05
        E 1 b0 08 06
        E 1 b0 08 08
        E 1 b0 08 09
        E 1 b0 08 0a
        E 1 b0 08 0c
        E 1 b0 08 0e
        E 1 b0 08 10
        E 1 b0 08 12
        E 1 b0 08 14
        E 1 b0 08 16
        E 1 b0 08 19
        E 1 b0 08 1b
        E 1 b0 08 1d
        E 1 b0 08 20
        E 1 b0 08 23
        E 1 b0 08 25
        E 1 b0 08 28
        E 1 b0 08 2b
        E 1 b0 08 2d
        E 1 b0 08 30
        E 1 b0 08 33
        E 1 b0 08 36
        E 1 b0 08 39
        E 6 b0 08 40
        E 6 b0 08 43
        E 6 b0 08 46
        E 6 b0 08 49
        E 6 b0 08 4c
        E 6 b0 08 4f
        E 6 b0 08 52
        E 6 b0 08 55
        E 6 b0 08 58
        E 6 b0 08 5b
        E 6 b0 08 5e
        E 6 b0 08 60
        E 6 b0 08 63
        E 6 b0 08 66
        E 6 b0 08 68
        E 6 b0 08 6a
        E 6 b0 08 6d
        E 6 b0 08 6f
        E 6 b0 08 71
        E 6 b0 08 73
        E 6 b0 08 75
        E 6 b0 08 76
        E 6 b0 08 78
        E 6 b0 08 79
        E 6 b0 08 7a
        E 6 b0 08 7b
        E 6 b0 08 7c
        E 6 b0 08 7d
        E 6 b0 08 7e
        E 6 b0 08 7e
        E 6 b0 08 7f
        E 6 b0 08 7f
        E 6 b0 08 7f
        E 6 b0 08 7f
        E 6 b0 08 7f
        E 6 b0 08 7e
        E 6 b0 08 7e
        E 6 b0 08 7d
        E 6 b0 08 7c
        E 6 b0 08 7b
        E 6 b0 08 7a
        E 6 b0 08 78
        E 6 b0 08 77
        E 6 b0 08 75
        E 6 b0 08 74
        E 6 b0 08 72
        E 6 b0 08 70
        E 6 b0 08 6e
        E 6 b0 08 6c
        E 6 b0 08 69
        E 6 b0 08 67
        E 6 b0 08 64
        E 6 b0 08 62
        E 6 b0 08 5f
        E 6 b0 08 5c
        E 6 b0 08 59
        E 6 b0 08 57
        E 6 b0 08 54
        E 6 b0 08 51
        E 6 b0 08 4e
        E 6 b0 08 4a
        E 6 b0 08 47
        E 6 b0 08 44
        E 6 b0 08 41
        E 6 b0 08 3e
        E 6 b0 08 3b
        E 6 b0 08 38
        E 6 b0 08 35
        E 6 b0 08 31
        E 6 b0 08 2e
        E 6 b0 08 2b
        E 6 b0 08 28
        E 6 b0 08 26
        E 6 b0 08 23
        E 6 b0 08 20
        E 6 b0 08 1d
        E 6 b0 08 1b
        E 6 b0 08 18
        E 6 b0 08 16
        E 6 b0 08 13
        E 6 b0 08 11
        E 6 b0 08 0f
        E 6 b0 08 0d
        E 6 b0 08 0b
        E 6 b0 08 0a
        E 6 b0 08 08
        E 6 b0 08 07
        E 6 b0 08 05
        E 6 b0 08 04
        E 6 b0 08 03
        E 6 b0 08 02
        E 6 b0 08 01
        E 6 b0 08 01
        E 6 b0 08 00
        E 6 b0 08 00
        E 6 b0 08 00
        E 6 b0 08 00
        E 6 b0 08 00
        E 6 b0 08 01
        E 6 b0 08 01
        E 6 b0 08 02
        E 6 b0 08 03
        E 6 b0 08 04
        E 6 b0 08 05
        E 6 b0 08 06
        E 6 b0 08 07
        E 6 b0 08 09
        E 6 b0 08 0a
        E 6 b0 08 0c
        E 6 b0 08 0e
        E 6 b0 08 10
        E 6 b0 08 12
        E 6 b0 08 15
        E 6 b0 08 17
        E 6 b0 08 19
        E 6 b0 08 1c
        E 6 b0 08 1f
        E 6 b0 08 21
        E 6 b0 08 24
        E 6 b0 08 27
        E 6 b0 08 2a
        E 6 b0 08 2d
        E 6 b0 08 30
        E 6 b0 08 33
        E 6 b0 08 36
        E 6 b0 08 39
        E 6 b0 08 3c
        E 6 b0 08 40
        E 11 b0 08 39
        E 11 b0 08 3c
        E 11 b0 08 3f
        E 11 b0 08 41
        E 11 b0 08 44
        E 11 b0 08 47
        E 11 b0 08 49
        E 11 b0 08 4c
        E 11 b0 08 4f
        E 11 b0 08 51
        E 11 b0 08 54
        E 11 b0 08 56
        E 11 b0 08 59
        E 11 b0 08 5b
        E 11 b0 08 5d
        E 11 b0 08 5f
        E 11 b0 08 62
        E 11 b0 08 63
        E 11 b0 08 65
        E 11 b0 08 67
        E 11 b0 08 69
        E 11 b0 08 6a
        E 11 b0 08 6c
        E 11 b0 08 6c
        E 11 b0 08 6d
        E 11 b0 08 6e
        E 11 b0 08 6f
        E 11 b0 08 70
        E 11 b0 08 71
        E 11 b0 08 71
        E 11 b0 08 72
        E 11 b0 08 72
        E 11 b0 08 72
        E 11 b0 08 72
        E 11 b0 08 72
        E 11 b0 08 71
        E 11 b0 08 71
        E 11 b0 08 70
        E 11 b0 08 6f
        E 11 b0 08 6e
        E 11 b0 08 6d
        E 11 b0 08 6c
        E 11 b0 08 6b
        E 11 b0 08 69
        E 11 b0 08 68
        E 11 b0 08 66
        E 11 b0 08 64
        E 11 b0 08 63
        E 11 b0 08 61
        E 11 b0 08 5e
        E 11 b0 08 5c
        E 11 b0 08 5a
        E 11 b0 08 58
        E 11 b0 08 55
        E 11 b0 08 52
        E 11 b0 08 50
        E 11 b0 08 4e
        E 11 b0 08 4b
        E 11 b0 08 48
        E 11 b0 08 46
        E 11 b0 08 42
        E 11 b0 08 3f
        E 11 b0 08 3d
        E 11 b0 08 3a
        E 11 b0 08 37
        E 11 b0 08 35
        E 11 b0 08 32
        E 11 b0 08 2f
        E 11 b0 08 2c
        E 11 b0 08 29
        E 11 b0 08 26
        E 11 b0 08 24
        E 11 b0 08 22
        E 11 b0 08 1f
        E 11 b0 08 1c
        E 11 b0 08 1a
        E 11 b0 08 18
        E 11 b0 08 15
        E 11 b0 08 13
        E 11 b0 08 11
        E 11 b0 08 0f
        E 11 b0 08 0d
        E 11 b0 08 0b
        E 11 b0 08 09
        E 11 b0 08 09
        E 11 b0 08 07
        E 11 b0 08 06
        E 11 b0 08 04
        E 11 b0 08 03
        E 11 b0 08 02
        E 11 b0 08 01
        E 11 b0 08 00
        E 11 b0 08 00
        E 11 b0 08 00
        E 11 b0 08 00
        E 11 b0 08 00
        E 11 b0 08 00
        E 11 b0 08 00
        E 11 b0 08 00
        E 11 b0 08 00
        E 11 b0 08 01
        E 11 b0 08 02
        E 11 b0 08 03
        E 11 b0 08 04
        E 11 b0 08 05
        E 11 b0 08 06
        E 11 b0 08 08
        E 11 b0 08 09
        E 11 b0 08 0a
        E 11 b0 08 0c
        E 11 b0 08 0e
        E 11 b0 08 10
        E 11 b0 08 12
        E 11 b0 08 14
        E 11 b0 08 16
        E 11 b0 08 19
        E 11 b0 08 1b
        E 11 b0 08 1d
        E 11 b0 08 20
        E 11 b0 08 23
        E 11 b0 08 25
        E 11 b0 08 28
        E 11 b0 08 2b
        E 11 b0 08 2d
        E 11 b0 08 30
        E 11 b0 08 33
        E 11 b0 08 36
        E 11 b0 08 39
        E 8 b0 08 20
        E 8 b0 08 21
        E 8 b0 08 23
        E 8 b0 08 24
        E 8 b0 08 26
        E 8 b0 08 27
        E 8 b0 08 29
        E 8 b0 08 2a
        E 8 b0 08 2c
        E 8 b0 08 2d
        E 8 b0 08 2f
        E 8 b0 08 30
        E 8 b0 08 31
        E 8 b0 08 33
        E 8 b0 08 34
        E 8 b0 08 35
        E 8 b0 08 36
        E 8 b0 08 37
        E 8 b0 08 38
        E 8 b0 08 39
        E 8 b0 08 3a
        E 8 b0 08 3b
        E 8 b0 08 3c
        E 8 b0 08 3c
        E 8 b0 08 3d
        E 8 b0 08 3d
        E 8 b0 08 3e
        E 8 b0 08 3e
        E 8 b0 08 3f
        E 8 b0 08 3f
        E 8 b0 08 3f
        E 8 b0 08 3f
        E 8 b0 08 3f
        E 8 b0 08 3f
        E 8 b0 08 3f
        E 8 b0 08 3f
        E 8 b0 08 3f
        E 8 b0 08 3e
        E 8 b0 08 3e
        E 8 b0 08 3d
        E 8 b0 08 3d
        E 8 b0 08 3c
        E 8 b0 08 3b
        E 8 b0 08 3a
        E 8 b0 08 3a
        E 8 b0 08 39
        E 8 b0 08 38
        E 8 b0 08 37
        E 8 b0 08 36
        E 8 b0 08 34
        E 8 b0 08 33
        E 8 b0 08 32
        E 8 b0 08 31
        E 8 b0 08 2f
        E 8 b0 08 2e
        E 8 b0 08 2c
        E 8 b0 08 2b
        E 8 b0 08 2a
        E 8 b0 08 28
        E 8 b0 08 27
        E 8 b0 08 25
        E 8 b0 08 23
        E 8 b0 08 22
        E 8 b0 08 20
        E 8 b0 08 1f
        E 8 b0 08 1d
        E 8 b0 08 1c
        E 8 b0 08 1a
        E 8 b0 08 18
        E 8 b0 08 17
        E 8 b0 08 15
        E 8 b0 08 14
        E 8 b0 08 13
        E 8 b0 08 11
        E 8 b0 08 10
        E 8 b0 08 0e
        E 8 b0 08 0d
        E 8 b0 08 0c
        E 8 b0 08 0b
        E 8 b0 08 09
        E 8 b0 08 08
        E 8 b0 08 07
        E 8 b0 08 06
        E 8 b0 08 05
        E 8 b0 08 05
        E 8 b0 08 04
        E 8 b0 08 03
        E 8 b0 08 02
        E 8 b0 08 02
        E 8 b0 08 01
        E 8 b0 08 01
        E 8 b0 08 00
        E 8 b0 08 00
        E 8 b0 08 00
        E 8 b0 08 00
        E 8 b0 08 00
        E 8 b0 08 00
        E 8 b0 08 00
        E 8 b0 08 00
        E 8 b0 08 00
        E 8 b0 08 01
        E 8 b0 08 01
        E 8 b0 08 02
        E 8 b0 08 02
        E 8 b0 08 03
        E 8 b0 08 03
        E 8 b0 08 04
        E 8 b0 08 05
        E 8 b0 08 06
        E 8 b0 08 07
        E 8 b0 08 08
        E 8 b0 08 09
        E 8 b0 08 0a
        E 8 b0 08 0b
        E 8 b0 08 0c
        E 8 b0 08 0e
        E 8 b0 08 0f
        E 8 b0 08 10
        E 8 b0 08 12
        E 8 b0 08 13
        E 8 b0 08 15
        E 8 b0 08 16
        E 8 b0 08 18
        E 8 b0 08 19
        E 8 b0 08 1b
        E 8 b0 08 1c
        E 8 b0 08 1e
        E 8 b0 08 20
        E 8 b0 08 20
        E 8 b0 08 21
        E 8 b0 08 23
        E 8 b0 08 24
        E 8 b0 08 26
        E 8 b0 08 27
        E 8 b0 08 29
        E 8 b0 08 2a
        E 8 b0 08 2c
        E 8 b0 08 2d
        E 8 b0 08 2f
        E 8 b0 08 30
        E 8 b0 08 31
        E 8 b0 08 33
        E 8 b0 08 34
        E 8 b0 08 35
        E 8 b0 08 36
        E 8 b0 08 37
        E 8 b0 08 38
        E 8 b0 08 39
        E 8 b0 08 3a
        E 8 b0 08 3b
        E 8 b0 08 3c
        E 8 b0 08 3c
        E 8 b0 08 3d
        E 8 b0 08 3d
        E 8 b0 08 3e
        E 8 b0 08 3e
        E 8 b0 08 3f
        E 8 b0 08 3f
        E 8 b0 08 3f
        E 8 b0 08 3f
        E 8 b0 08 3f
        E 8 b0 08 3f
        E 8 b0 08 3f
        E 8 b0 08 3f
        E 8 b0 08 3f
        E 8 b0 08 3e
        E 8 b0 08 3e
        E 8 b0 08 3d
        E 8 b0 08 3d
        E 8 b0 08 3c
        E 8 b0 08 3b
        E 8 b0 08 3a
        E 8 b0 08 3a
        E 8 b0 08 39
        E 8 b0 08 38
        E 8 b0 08 37
        E 8 b0 08 36
        E 8 b0 08 34
        E 8 b0 08 33
        E 8 b0 08 32
        E 8 b0 08 31
        E 8 b0 08 2f
        E 8 b0 08 2e
        E 8 b0 08 2c
        E 8 b0 08 2b
        E 8 b0 08 2a
        E 8 b0 08 28
        E 8 b0 08 27
        E 8 b0 08 25
        E 8 b0 08 23
        E 8 b0 08 22
        E 8 b0 08 20
        E 8 b0 08 1f
        E 8 b0 08 1d
        E 8 b0 08 1c
        E 8 b0 08 1a
        E 8 b0 08 18
        E 8 b0 08 17
        E 8 b0 08 15
        E 8 b0 08 14
        E 8 b0 08 13
        E 8 b0 08 11
        E 8 b0 08 10
        E 8 b0 08 0e
        E 8 b0 08 0d
        E 8 b0 08 0c
        E 8 b0 08 0b
        E 8 b0 08 09
        E 8 b0 08 08
        E 8 b0 08 07
        E 8 b0 08 06
        E 8 b0 08 05
        E 8 b0 08 05
        E 8 b0 08 04
        E 8 b0 08 03
        E 8 b0 08 02
        E 8 b0 08 02
        E 8 b0 08 01
        E 8 b0 08 01
        E 8 b0 08 00
        E 8 b0 08 00
        E 8 b0 08 00
        E 8 b0 08 00
        E 8 b0 08 00
        E 8 b0 08 00
        E 8 b0 08 00
        E 8 b0 08 00
        E 8 b0 08 00
        E 8 b0 08 01
        E 8 b0 08 01
        E 8 b0 08 02
        E 8 b0 08 02
        E 8 b0 08 03
        E 8 b0 08 03
        E 8 b0 08 04
        E 8 b0 08 05
        E 8 b0 08 06
        E 8 b0 08 07
        E 8 b0 08 08
        E 8 b0 08 09
        E 8 b0 08 0a
        E 8 b0 08 0b
        E 8 b0 08 0c
        E 8 b0 08 0e
        E 8 b0 08 0f
        E 8 b0 08 10
        E 8 b0 08 12
        E 8 b0 08 13
        E 8 b0 08 15
        E 8 b0 08 16
        E 8 b0 08 18
        E 8 b0 08 19
        E 8 b0 08 1b
        E 8 b0 08 1c
        E 8 b0 08 1e
        E 8 b0 08 20
        E 17 b0 08 2c
        E 17 b0 08 2e
        E 17 b0 08 31
        E 17 b0 08 33
        E 17 b0 08 35
        E 17 b0 08 37
        E 17 b0 08 39
        E 17 b0 08 3b
        E 17 b0 08 3d
        E 17 b0 08 3f
        E 17 b0 08 41
        E 17 b0 08 43
        E 17 b0 08 45
        E 17 b0 08 47
        E 17 b0 08 48
        E 17 b0 08 4a
        E 17 b0 08 4c
        E 17 b0 08 4d
        E 17 b0 08 4f
        E 17 b0 08 50
        E 17 b0 08 51
        E 17 b0 08 52
        E 17 b0 08 54
        E 17 b0 08 54
        E 17 b0 08 55
        E 17 b0 08 56
        E 17 b0 08 56
        E 17 b0 08 57
        E 17 b0 08 58
        E 17 b0 08 58
        E 17 b0 08 58
        E 17 b0 08 58
        E 17 b0 08 58
        E 17 b0 08 58
        E 17 b0 08 58
        E 17 b0 08 58
        E 17 b0 08 58
        E 17 b0 08 57
        E 17 b0 08 56
        E 17 b0 08 56
        E 17 b0 08 55
        E 17 b0 08 54
        E 17 b0 08 53
        E 17 b0 08 51
        E 17 b0 08 51
        E 17 b0 08 4f
        E 17 b0 08 4e
        E 17 b0 08 4d
        E 17 b0 08 4b
        E 17 b0 08 49
        E 17 b0 08 48
        E 17 b0 08 46
        E 17 b0 08 44
        E 17 b0 08 42
        E 17 b0 08 40
        E 17 b0 08 3e
        E 17 b0 08 3c
        E 17 b0 08 3a
        E 17 b0 08 38
        E 17 b0 08 36
        E 17 b0 08 33
        E 17 b0 08 31
        E 17 b0 08 2f
        E 17 b0 08 2d
        E 17 b0 08 2b
        E 17 b0 08 29
        E 17 b0 08 27
        E 17 b0 08 25
        E 17 b0 08 22
        E 17 b0 08 20
        E 17 b0 08 1e
        E 17 b0 08 1c
        E 17 b0 08 1a
        E 17 b0 08 18
        E 17 b0 08 16
        E 17 b0 08 14
        E 17 b0 08 12
        E 17 b0 08 10
        E 17 b0 08 0f
        E 17 b0 08 0d
        E 17 b0 08 0b
        E 17 b0 08 0a
        E 17 b0 08 09
        E 17 b0 08 07
        E 17 b0 08 07
        E 17 b0 08 05
        E 17 b0 08 04
        E 17 b0 08 03
        E 17 b0 08 02
        E 17 b0 08 02
        E 17 b0 08 01
        E 17 b0 08 00
        E 17 b0 08 00
        E 17 b0 08 00
        E 17 b0 08 00
        E 17 b0 08 00
        E 17 b0 08 00
        E 17 b0 08 00
        E 17 b0 08 00
        E 17 b0 08 00
        E 17 b0 08 01
        E 17 b0 08 02
        E 17 b0 08 02
        E 17 b0 08 03
        E 17 b0 08 04
        E 17 b0 08 04
        E 17 b0 08 06
        E 17 b0 08 07
        E 17 b0 08 08
        E 17 b0 08 09
        E 17 b0 08 0b
        E 17 b0 08 0c
        E 17 b0 08 0e
        E 17 b0 08 10
        E 17 b0 08 11
        E 17 b0 08 13
        E 17 b0 08 15
        E 17 b0 08 17
        E 17 b0 08 19
        E 17 b0 08 1b
        E 17 b0 08 1d
        E 17 b0 08 1f
        E 17 b0 08 21
        E 17 b0 08 23
        E 17 b0 08 25
        E 17 b0 08 27
        E 17 b0 08 2a
        E 17 b0 08 2c
        E 15 b0 08 33
        E 15 b0 08 35
        E 15 b0 08 37
        E 15 b0 08 3a
        E 15 b0 08 3c
        E 15 b0 08 3f
        E 15 b0 08 41
        E 15 b0 08 44
        E 15 b0 08 46
        E 15 b0 08 48
        E 15 b0 08 4b
        E 15 b0 08 4c
        E 15 b0 08 4f
        E 15 b0 08 51
        E 15 b0 08 53
        E 15 b0 08 54
        E 15 b0 08 57
        E 15 b0 08 58
        E 15 b0 08 5a
        E 15 b0 08 5b
        E 15 b0 08 5d
        E 15 b0 08 5e
        E 15 b0 08 5f
        E 15 b0 08 60
        E 15 b0 08 61
        E 15 b0 08 62
        E 15 b0 08 63
        E 15 b0 08 63
        E 15 b0 08 64
        E 15 b0 08 64
        E 15 b0 08 65
        E 15 b0 08 65
        E 15 b0 08 65
        E 15 b0 08 65
        E 15 b0 08 65
        E 15 b0 08 64
        E 15 b0 08 64
        E 15 b0 08 63
        E 15 b0 08 63
        E 15 b0 08 62
        E 15 b0 08 61
        E 15 b0 08 5f
        E 15 b0 08 5f
        E 15 b0 08 5d
        E 15 b0 08 5c
        E 15 b0 08 5b
        E 15 b0 08 59
        E 15 b0 08 57
        E 15 b0 08 56
        E 15 b0 08 54
        E 15 b0 08 52
        E 15 b0 08 50
        E 15 b0 08 4e
        E 15 b0 08 4c
        E 15 b0 08 49
        E 15 b0 08 47
        E 15 b0 08 45
        E 15 b0 08 43
        E 15 b0 08 40
        E 15 b0 08 3e
        E 15 b0 08 3b
        E 15 b0 08 38
        E 15 b0 08 36
        E 15 b0 08 33
        E 15 b0 08 31
        E 15 b0 08 2f
        E 15 b0 08 2c
        E 15 b0 08 2a
        E 15 b0 08 27
        E 15 b0 08 24
        E 15 b0 08 22
        E 15 b0 08 1f
        E 15 b0 08 1e
        E 15 b0 08 1b
        E 15 b0 08 19
        E 15 b0 08 17
        E 15 b0 08 15
        E 15 b0 08 13
        E 15 b0 08 11
        E 15 b0 08 0f
        E 15 b0 08 0d
        E 15 b0 08 0b
        E 15 b0 08 0a
        E 15 b0 08 08
        E 15 b0 08 07
        E 15 b0 08 06
        E 15 b0 08 05
        E 15 b0 08 03
        E 15 b0 08 03
        E 15 b0 08 02
        E 15 b0 08 01
        E 15 b0 08 00
        E 15 b0 08 00
        E 15 b0 08 00
        E 15 b0 08 00
        E 15 b0 08 00
        E 15 b0 08 00
        E 15 b0 08 00
        E 15 b0 08 00
        E 15 b0 08 00
        E 15 b0 08 01
        E 15 b0 08 02
        E 15 b0 08 03
        E 15 b0 08 03
        E 15 b0 08 04
        E 15 b0 08 05
        E 15 b0 08 07
        E 15 b0 08 07
        E 15 b0 08 09
        E 15 b0 08 0b
        E 15 b0 08 0c
        E 15 b0 08 0e
        E 15 b0 08 10
        E 15 b0 08 12
        E 15 b0 08 14
        E 15 b0 08 16
        E 15 b0 08 18
        E 15 b0 08 1a
        E 15 b0 08 1c
        E 15 b0 08 1f
        E 15 b0 08 21
        E 15 b0 08 24
        E 15 b0 08 26
        E 15 b0 08 28
        E 15 b0 08 2b
        E 15 b0 08 2d
        E 15 b0 08 2f
        E 15 b0 08 33
        E 17 b0 08 06
        E 17 b0 08 06
        E 17 b0 08 07
        E 17 b0 08 07
        E 17 b0 08 07
        E 17 b0 08 07
        E 17 b0 08 08
        E 17 b0 08 08
        E 17 b0 08 08
        E 17 b0 08 09
        E 17 b0 08 09
        E 17 b0 08 09
        E 17 b0 08 09
        E 17 b0 08 0a
        E 17 b0 08 0a
        E 17 b0 08 0a
        E 17 b0 08 0a
        E 17 b0 08 0b
        E 17 b0 08 0b
        E 17 b0 08 0b
        E 17 b0 08 0b
        E 17 b0 08 0b
        E 17 b0 08 0c
        E 17 b0 08 0c
        E 17 b0 08 0c
        E 17 b0 08 0c
        E 17 b0 08 0c
        E 17 b0 08 0c
        E 17 b0 08 0c
        E 17 b0 08 0c
        E 17 b0 08 0c
        E 17 b0 08 0c
        E 17 b0 08 0c
        E 17 b0 08 0c
        E 17 b0 08 0c
        E 17 b0 08 0c
        E 17 b0 08 0c
        E 17 b0 08 0c
        E 17 b0 08 0c
        E 17 b0 08 0c
        E 17 b0 08 0c
        E 17 b0 08 0c
        E 17 b0 08 0b
        E 17 b0 08 0b
        E 17 b0 08 0b
        E 17 b0 08 0b
        E 17 b0 08 0b
        E 17 b0 08 0b
        E 17 b0 08 0a
        E 17 b0 08 0a
        E 17 b0 08 0a
        E 17 b0 08 0a
        E 17 b0 08 09
        E 17 b0 08 09
        E 17 b0 08 09
        E 17 b0 08 08
        E 17 b0 08 08
        E 17 b0 08 08
        E 17 b0 08 08
        E 17 b0 08 07
        E 17 b0 08 07
        E 17 b0 08 07
        E 17 b0 08 06
        E 17 b0 08 06
        E 17 b0 08 06
        E 17 b0 08 05
        E 17 b0 08 05
        E 17 b0 08 05
        E 17 b0 08 04
        E 17 b0 08 04
        E 17 b0 08 04
        E 17 b0 08 04
        E 17 b0 08 03
        E 17 b0 08 03
        E 17 b0 08 03
        E 17 b0 08 02
        E 17 b0 08 02
        E 17 b0 08 02
        E 17 b0 08 02
        E 17 b0 08 01
        E 17 b0 08 01
        E 17 b0 08 01
        E 17 b0 08 01
        E 17 b0 08 01
        E 17 b0 08 01
        E 17 b0 08 00
        E 17 b0 08 00
        E 17 b0 08 00
        E 17 b0 08 00
        E 17 b0 08 00
        E 17 b0 08 00
        E 17 b0 08 00
        E 17 b0 08 00
        E 17 b0 08 00
        E 17 b0 08 00
        E 17 b0 08 00
        E 17 b0 08 00
        E 17 b0 08 00
        E 17 b0 08 00
        E 17 b0 08 00
        E 17 b0 08 00
        E 17 b0 08 00
        E 17 b0 08 00
        E 17 b0 08 00
        E 17 b0 08 00
        E 17 b0 08 00
        E 17 b0 08 00
        E 17 b0 08 01
        E 17 b0 08 01
        E 17 b0 08 01
        E 17 b0 08 01
        E 17 b0 08 01
        E 17 b0 08 02
        E 17 b0 08 02
        E 17 b0 08 02
        E 17 b0 08 02
        E 17 b0 08 03
        E 17 b0 08 03
        E 17 b0 08 03
        E 17 b0 08 03
        E 17 b0 08 04
        E 17 b0 08 04
        E 17 b0 08 04
        E 17 b0 08 05
        E 17 b0 08 05
        E 17 b0 08 05
        E 17 b0 08 06
        E 17 b0 08 06
        E 15 b0 08 19
        E 15 b0 08 1a
        E 15 b0 08 1c
        E 15 b0 08 1d
        E 15 b0 08 1e
        E 15 b0 08 1f
        E 15 b0 08 20
        E 15 b0 08 22
        E 15 b0 08 23
        E 15 b0 08 24
        E 15 b0 08 25
        E 15 b0 08 26
        E 15 b0 08 27
        E 15 b0 08 28
        E 15 b0 08 29
        E 15 b0 08 2a
        E 15 b0 08 2b
        E 15 b0 08 2c
        E 15 b0 08 2d
        E 15 b0 08 2e
        E 15 b0 08 2e
        E 15 b0 08 2f
        E 15 b0 08 30
        E 15 b0 08 30
        E 15 b0 08 30
        E 15 b0 08 31
        E 15 b0 08 31
        E 15 b0 08 32
        E 15 b0 08 32
        E 15 b0 08 32
        E 15 b0 08 32
        E 15 b0 08 32
        E 15 b0 08 32
        E 15 b0 08 32
        E 15 b0 08 32
        E 15 b0 08 32
        E 15 b0 08 32
        E 15 b0 08 32
        E 15 b0 08 31
        E 15 b0 08 31
        E 15 b0 08 30
        E 15 b0 08 30
        E 15 b0 08 2f
        E 15 b0 08 2e
        E 15 b0 08 2e
        E 15 b0 08 2d
        E 15 b0 08 2c
        E 15 b0 08 2c
        E 15 b0 08 2b
        E 15 b0 08 2a
        E 15 b0 08 29
        E 15 b0 08 28
        E 15 b0 08 27
        E 15 b0 08 26
        E 15 b0 08 24
        E 15 b0 08 23
        E 15 b0 08 22
        E 15 b0 08 21
        E 15 b0 08 20
        E 15 b0 08 1f
        E 15 b0 08 1d
        E 15 b0 08 1c
        E 15 b0 08 1b
        E 15 b0 08 1a
        E 15 b0 08 18
        E 15 b0 08 17
        E 15 b0 08 16
        E 15 b0 08 15
        E 15 b0 08 13
        E 15 b0 08 12
        E 15 b0 08 11
        E 15 b0 08 10
        E 15 b0 08 0f
        E 15 b0 08 0e
        E 15 b0 08 0c
        E 15 b0 08 0b
        E 15 b0 08 0a
        E 15 b0 08 09
        E 15 b0 08 08
        E 15 b0 08 07
        E 15 b0 08 06
        E 15 b0 08 06
        E 15 b0 08 05
        E 15 b0 08 04
        E 15 b0 08 04
        E 15 b0 08 03
        E 15 b0 08 02
        E 15 b0 08 02
        E 15 b0 08 01
        E 15 b0 08 01
        E 15 b0 08 00
        E 15 b0 08 00
        E 15 b0 08 00
        E 15 b0 08 00
        E 15 b0 08 00
        E 15 b0 08 00
        E 15 b0 08 00
        E 15 b0 08 00
        E 15 b0 08 00
        E 15 b0 08 00
        E 15 b0 08 00
        E 15 b0 08 01
        E 15 b0 08 01
        E 15 b0 08 02
        E 15 b0 08 02
        E 15 b0 08 02
        E 15 b0 08 03
        E 15 b0 08 04
        E 15 b0 08 04
        E 15 b0 08 05
        E 15 b0 08 06
        E 15 b0 08 07
        E 15 b0 08 08
        E 15 b0 08 09
        E 15 b0 08 0a
        E 15 b0 08 0b
        E 15 b0 08 0c
        E 15 b0 08 0d
        E 15 b0 08 0e
        E 15 b0 08 0f
        E 15 b0 08 10
        E 15 b0 08 12
        E 15 b0 08 13
        E 15 b0 08 14
        E 15 b0 08 15
        E 15 b0 08 16
        E 15 b0 08 18
        E 15 b0 08 19
        E 8 b0 08 2c
        E 8 b0 08 2e
        E 8 b0 08 31
        E 8 b0 08 33
        E 8 b0 08 35
        E 8 b0 08 37
        E 8 b0 08 39
        E 8 b0 08 3b
        E 8 b0 08 3d
        E 8 b0 08 3f
        E 8 b0 08 41
        E 8 b0 08 43
        E 8 b0 08 45
        E 8 b0 08 47
        E 8 b0 08 48
        E 8 b0 08 4a
        E 8 b0 08 4c
        E 8 b0 08 4d
        E 8 b0 08 4f
        E 8 b0 08 50
        E 8 b0 08 51
        E 8 b0 08 52
        E 8 b0 08 54
        E 8 b0 08 54
        E 8 b0 08 55
        E 8 b0 08 56
        E 8 b0 08 56
        E 8 b0 08 57
        E 8 b0 08 58
        E 8 b0 08 58
        E 8 b0 08 58
        E 8 b0 08 58
        E 8 b0 08 58
        E 8 b0 08 58
        E 8 b0 08 58
        E 8 b0 08 58
        E 8 b0 08 58
        E 8 b0 08 57
        E 8 b0 08 56
        E 8 b0 08 56
        E 8 b0 08 55
        E 8 b0 08 54
        E 8 b0 08 53
        E 8 b0 08 51
        E 8 b0 08 51
        E 8 b0 08 4f
        E 8 b0 08 4e
        E 8 b0 08 4d
        E 8 b0 08 4b
        E 8 b0 08 49
        E 8 b0 08 48
        E 8 b0 08 46
        E 8 b0 08 44
        E 8 b0 08 42
        E 8 b0 08 40
        E 8 b0 08 3e
        E 8 b0 08 3c
        E 8 b0 08 3a
        E 8 b0 08 38
        E 8 b0 08 36
        E 8 b0 08 33
        E 8 b0 08 31
        E 8 b0 08 2f
        E 8 b0 08 2d
        E 8 b0 08 2b
        E 8 b0 08 29
        E 8 b0 08 27
        E 8 b0 08 25
        E 8 b0 08 22
        E 8 b0 08 20
        E 8 b0 08 1e
        E 8 b0 08 1c
        E 8 b0 08 1a
        E 8 b0 08 18
        E 8 b0 08 16
        E 8 b0 08 14
        E 8 b0 08 12
        E 8 b0 08 10
        E 8 b0 08 0f
        E 8 b0 08 0d
        E 8 b0 08 0b
        E 8 b0 08 0a
        E 8 b0 08 09
        E 8 b0 08 07
        E 8 b0 08 07
        E 8 b0 08 05
        E 8 b0 08 04
        E 8 b0 08 03
        E 8 b0 08 02
        E 8 b0 08 02
        E 8 b0 08 01
        E 8 b0 08 00
        E 8 b0 08 00
        E 8 b0 08 00
        E 8 b0 08 00
        E 8 b0 08 00
        E 8 b0 08 00
        E 8 b0 08 00
        E 8 b0 08 00
        E 8 b0 08 00
        E 8 b0 08 01
        E 8 b0 08 02
        E 8 b0 08 02
        E 8 b0 08 03
        E 8 b0 08 04
        E 8 b0 08 04
        E 8 b0 08 06
        E 8 b0 08 07
        E 8 b0 08 08
        E 8 b0 08 09
        E 8 b0 08 0b
        E 8 b0 08 0c
        E 8 b0 08 0e
        E 8 b0 08 10
        E 8 b0 08 11
        E 8 b0 08 13
        E 8 b0 08 15
        E 8 b0 08 17
        E 8 b0 08 19
        E 8 b0 08 1b
        E 8 b0 08 1d
        E 8 b0 08 1f
        E 8 b0 08 21
        E 8 b0 08 23
        E 8 b0 08 25
        E 8 b0 08 27
        E 8 b0 08 2a
        E 8 b0 08 2c
        E 8 b0 08 20
        E 8 b0 08 21
        E 8 b0 08 23
        E 8 b0 08 24
        E 8 b0 08 26
        E 8 b0 08 27
        E 8 b0 08 29
        E 8 b0 08 2a
        E 8 b0 08 2c
        E 8 b0 08 2d
        E 8 b0 08 2f
        E 8 b0 08 30
        E 8 b0 08 31
        E 8 b0 08 33
        E 8 b0 08 34
        E 8 b0 08 35
        E 8 b0 08 36
        E 8 b0 08 37
        E 8 b0 08 38
        E 8 b0 08 39
        E 8 b0 08 3a
        E 8 b0 08 3b
        E 8 b0 08 3c
        E 8 b0 08 3c
        E 8 b0 08 3d
        E 8 b0 08 3d
        E 8 b0 08 3e
        E 8 b0 08 3e
        E 8 b0 08 3f
        E 8 b0 08 3f
        E 8 b0 08 3f
        E 8 b0 08 3f
        E 8 b0 08 3f
        E 8 b0 08 3f
        E 8 b0 08 3f
        E 8 b0 08 3f
        E 8 b0 08 3f
        E 8 b0 08 3e
        E 8 b0 08 3e
        E 8 b0 08 3d
        E 8 b0 08 3d
        E 8 b0 08 3c
        E 8 b0 08 3b
        E 8 b0 08 3a
        E 8 b0 08 3a
        E 8 b0 08 39
        E 8 b0 08 38
        E 8 b0 08 37
        E 8 b0 08 36
        E 8 b0 08 34
        E 8 b0 08 33
        E 8 b0 08 32
        E 8 b0 08 31
        E 8 b0 08 2f
        E 8 b0 08 2e
        E 8 b0 08 2c
        E 8 b0 08 2b
        E 8 b0 08 2a
        E 8 b0 08 28
        E 8 b0 08 27
        E 8 b0 08 25
        E 8 b0 08 23
        E 8 b0 08 22
        E 8 b0 08 20
        E 8 b0 08 1f
        E 8 b0 08 1d
        E 8 b0 08 1c
        E 8 b0 08 1a
        E 8 b0 08 18
        E 8 b0 08 17
        E 8 b0 08 15
        E 8 b0 08 14
        E 8 b0 08 13
        E 8 b0 08 11
        E 8 b0 08 10
        E 8 b0 08 0e
        E 8 b0 08 0d
        E 8 b0 08 0c
        E 8 b0 08 0b
        E 8 b0 08 09
        E 8 b0 08 08
        E 8 b0 08 07
        E 8 b0 08 06
        E 8 b0 08 05
        E 8 b0 08 05
        E 8 b0 08 04
        E 8 b0 08 03
        E 8 b0 08 02
        E 8 b0 08 02
        E 8 b0 08 01
        E 8 b0 08 01
        E 8 b0 08 00
        E 8 b0 08 00
        E 8 b0 08 00
        E 8 b0 08 00
        E 8 b0 08 00
        E 8 b0 08 00
        E 8 b0 08 00
        E 8 b0 08 00
        E 8 b0 08 00
        E 8 b0 08 01
        E 8 b0 08 01
        E 8 b0 08 02
        E 8 b0 08 02
        E 8 b0 08 03
        E 8 b0 08 03
        E 8 b0 08 04
        E 8 b0 08 05
        E 8 b0 08 06
        E 8 b0 08 07
        E 8 b0 08 08
        E 8 b0 08 09
        E 8 b0 08 0a
        E 8 b0 08 0b
        E 8 b0 08 0c
        E 8 b0 08 0e
        E 8 b0 08 0f
        E 8 b0 08 10
        E 8 b0 08 12
        E 8 b0 08 13
        E 8 b0 08 15
        E 8 b0 08 16
        E 8 b0 08 18
        E 8 b0 08 19
        E 8 b0 08 1b
        E 8 b0 08 1c
        E 8 b0 08 1e
        E 8 b0 08 20
        E 11 b0 08 20
        E 11 b0 08 21
        E 11 b0 08 23
        E 11 b0 08 24
        E 11 b0 08 26
        E 11 b0 08 27
        E 11 b0 08 29
        E 11 b0 08 2a
        E 11 b0 08 2c
        E 11 b0 08 2d
        E 11 b0 08 2f
        E 11 b0 08 30
        E 11 b0 08 31
        E 11 b0 08 33
        E 11 b0 08 34
        E 11 b0 08 35
        E 11 b0 08 36
        E 11 b0 08 37
        E 11 b0 08 38
        E 11 b0 08 39
        E 11 b0 08 3a
        E 11 b0 08 3b
        E 11 b0 08 3c
        E 11 b0 08 3c
        E 11 b0 08 3d
        E 11 b0 08 3d
        E 11 b0 08 3e
        E 11 b0 08 3e
        E 11 b0 08 3f
        E 11 b0 08 3f
        E 11 b0 08 3f
        E 11 b0 08 3f
        E 11 b0 08 3f
        E 11 b0 08 3f
        E 11 b0 08 3f
        E 11 b0 08 3f
        E 11 b0 08 3f
        E 11 b0 08 3e
        E 11 b0 08 3e
        E 11 b0 08 3d
        E 11 b0 08 3d
        E 11 b0 08 3c
        E 11 b0 08 3b
        E 11 b0 08 3a
        E 11 b0 08 3a
        E 11 b0 08 39
        E 11 b0 08 38
        E 11 b0 08 37
        E 11 b0 08 36
        E 11 b0 08 34
        E 11 b0 08 33
        E 11 b0 08 32
        E 11 b0 08 31
        E 11 b0 08 2f
        E 11 b0 08 2e
        E 11 b0 08 2c
        E 11 b0 08 2b
        E 11 b0 08 2a
        E 11 b0 08 28
        E 11 b0 08 27
        E 11 b0 08 25
        E 11 b0 08 23
        E 11 b0 08 22
        E 11 b0 08 20
        E 11 b0 08 1f
        E 11 b0 08 1d
        E 11 b0 08 1c
        E 11 b0 08 1a
        E 11 b0 08 18
        E 11 b0 08 17
        E 11 b0 08 15
        E 11 b0 08 14
        E 11 b0 08 13
        E 11 b0 08 11
        E 11 b0 08 10
        E 11 b0 08 0e
        E 11 b0 08 0d
        E 11 b0 08 0c
        E 11 b0 08 0b
        E 11 b0 08 09
        E 11 b0 08 08
        E 11 b0 08 07
        E 11 b0 08 06
        E 11 b0 08 05
        E 11 b0 08 05
        E 11 b0 08 04
        E 11 b0 08 03
        E 11 b0 08 02
        E 11 b0 08 02
        E 11 b0 08 01
        E 11 b0 08 01
        E 11 b0 08 00
        E 11 b0 08 00
        E 11 b0 08 00
        E 11 b0 08 00
        E 11 b0 08 00
        E 11 b0 08 00
        E 11 b0 08 00
        E 11 b0 08 00
        E 11 b0 08 00
        E 11 b0 08 01
        E 11 b0 08 01
        E 11 b0 08 02
        E 11 b0 08 02
        E 11 b0 08 03
        E 11 b0 08 03
        E 11 b0 08 04
        E 11 b0 08 05
        E 11 b0 08 06
        E 11 b0 08 07
        E 11 b0 08 08
        E 11 b0 08 09
        E 11 b0 08 0a
        E 11 b0 08 0b
        E 11 b0 08 0c
        E 11 b0 08 0e
        E 11 b0 08 0f
        E 11 b0 08 10
        E 11 b0 08 12
        E 11 b0 08 13
        E 11 b0 08 15
        E 11 b0 08 16
        E 11 b0 08 18
        E 11 b0 08 19
        E 11 b0 08 1b
        E 11 b0 08 1c
        E 11 b0 08 1e
        E 11 b0 08 20
        E 13 b0 08 40
        E 13 b0 08 43
        E 13 b0 08 46
        E 13 b0 08 49
        E 13 b0 08 4c
        E 13 b0 08 4f
        E 13 b0 08 52
        E 13 b0 08 55
        E 13 b0 08 58
        E 13 b0 08 5b
        E 13 b0 08 5e
        E 13 b0 08 60
        E 13 b0 08 63
        E 13 b0 08 66
        E 13 b0 08 68
        E 13 b0 08 6a
        E 13 b0 08 6d
        E 13 b0 08 6f
        E 13 b0 08 71
        E 13 b0 08 73
        E 13 b0 08 75
        E 13 b0 08 76
        E 13 b0 08 78
        E 13 b0 08 79
        E 13 b0 08 7a
        E 13 b0 08 7b
        E 13 b0 08 7c
        E 13 b0 08 7d
        E 13 b0 08 7e
        E 13 b0 08 7e
        E 13 b0 08 7f
        E 13 b0 08 7f
        E 13 b0 08 7f
        E 13 b0 08 7f
        E 13 b0 08 7f
        E 13 b0 08 7e
        E 13 b0 08 7e
        E 13 b0 08 7d
        E 13 b0 08 7c
        E 13 b0 08 7b
        E 13 b0 08 7a
        E 13 b0 08 78
        E 13 b0 08 77
        E 13 b0 08 75
        E 13 b0 08 74
        E 13 b0 08 72
        E 13 b0 08 70
        E 13 b0 08 6e
        E 13 b0 08 6c
        E 13 b0 08 69
        E 13 b0 08 67
        E 13 b0 08 64
        E 13 b0 08 62
        E 13 b0 08 5f
        E 13 b0 08 5c
        E 13 b0 08 59
        E 13 b0 08 57
        E 13 b0 08 54
        E 13 b0 08 51
        E 13 b0 08 4e
        E 13 b0 08 4a
        E 13 b0 08 47
        E 13 b0 08 44
        E 13 b0 08 41
        E 13 b0 08 3e
        E 13 b0 08 3b
        E 13 b0 08 38
        E 13 b0 08 35
        E 13 b0 08 31
        E 13 b0 08 2e
        E 13 b0 08 2b
        E 13 b0 08 28
        E 13 b0 08 26
        E 13 b0 08 23
        E 13 b0 08 20
        E 13 b0 08 1d
        E 13 b0 08 1b
        E 13 b0 08 18
        E 13 b0 08 16
        E 13 b0 08 13
        E 13 b0 08 11
        E 13 b0 08 0f
        E 13 b0 08 0d
        E 13 b0 08 0b
        E 13 b0 08 0a
        E 13 b0 08 08
        E 13 b0 08 07
        E 13 b0 08 05
        E 13 b0 08 04
        E 13 b0 08 03
        E 13 b0 08 02
        E 13 b0 08 01
        E 13 b0 08 01
        E 13 b0 08 00
        E 13 b0 08 00
        E 13 b0 08 00
        E 13 b0 08 00
        E 13 b0 08 00
        E 13 b0 08 01
        E 13 b0 08 01
        E 13 b0 08 02
        E 13 b0 08 03
        E 13 b0 08 04
        E 13 b0 08 05
        E 13 b0 08 06
        E 13 b0 08 07
        E 13 b0 08 09
        E 13 b0 08 0a
        E 13 b0 08 0c
        E 13 b0 08 0e
        E 13 b0 08 10
        E 13 b0 08 12
        E 13 b0 08 15
        E 13 b0 08 17
        E 13 b0 08 19
        E 13 b0 08 1c
        E 13 b0 08 1f
        E 13 b0 08 21
        E 13 b0 08 24
        E 13 b0 08 27
        E 13 b0 08 2a
        E 13 b0 08 2d
        E 13 b0 08 30
        E 13 b0 08 33
        E 13 b0 08 36
        E 13 b0 08 39
        E 13 b0 08 3c
        E 13 b0 08 40
        E 11 b0 08 39
        E 11 b0 08 3c
        E 11 b0 08 3f
        E 11 b0 08 41
        E 11 b0 08 44
        E 11 b0 08 47
        E 11 b0 08 49
        E 11 b0 08 4c
        E 11 b0 08 4f
        E 11 b0 08 51
        E 11 b0 08 54
        E 11 b0 08 56
        E 11 b0 08 59
        E 11 b0 08 5b
        E 11 b0 08 5d
        E 11 b0 08 5f
        E 11 b0 08 62
        E 11 b0 08 63
        E 11 b0 08 65
        E 11 b0 08 67
        E 11 b0 08 69
        E 11 b0 08 6a
        E 11 b0 08 6c
        E 11 b0 08 6c
        E 11 b0 08 6d
        E 11 b0 08 6e
        E 11 b0 08 6f
        E 11 b0 08 70
        E 11 b0 08 71
        E 11 b0 08 71
        E 11 b0 08 72
        E 11 b0 08 72
        E 11 b0 08 72
        E 11 b0 08 72
        E 11 b0 08 72
        E 11 b0 08 71
        E 11 b0 08 71
        E 11 b0 08 70
        E 11 b0 08 6f
        E 11 b0 08 6e
        E 11 b0 08 6d
        E 11 b0 08 6c
        E 11 b0 08 6b
        E 11 b0 08 69
        E 11 b0 08 68
        E 11 b0 08 66
        E 11 b0 08 64
        E 11 b0 08 63
        E 11 b0 08 61
        E 11 b0 08 5e
        E 11 b0 08 5c
        E 11 b0 08 5a
        E 11 b0 08 58
        E 11 b0 08 55
        E 11 b0 08 52
        E 11 b0 08 50
        E 11 b0 08 4e
        E 11 b0 08 4b
        E 11 b0 08 48
        E 11 b0 08 46
        E 11 b0 08 42
        E 11 b0 08 3f
        E 11 b0 08 3d
        E 11 b0 08 3a
        E 11 b0 08 37
        E 11 b0 08 35
        E 11 b0 08 32
        E 11 b0 08 2f
        E 11 b0 08 2c
        E 11 b0 08 29
        E 11 b0 08 26
        E 11 b0 08 24
        E 11 b0 08 22
        E 11 b0 08 1f
        E 11 b0 08 1c
        E 11 b0 08 1a
        E 11 b0 08 18
        E 11 b0 08 15
        E 11 b0 08 13
        E 11 b0 08 11
        E 11 b0 08 0f
        E 11 b0 08 0d
        E 11 b0 08 0b
        E 11 b0 08 09
        E 11 b0 08 09
        E 11 b0 08 07
        E 11 b0 08 06
        E 11 b0 08 04
        E 11 b0 08 03
        E 11 b0 08 02
        E 11 b0 08 01
        E 11 b0 08 00
        E 11 b0 08 00
        E 11 b0 08 00
        E 11 b0 08 00
        E 11 b0 08 00
        E 11 b0 08 00
        E 11 b0 08 00
        E 11 b0 08 00
        E 11 b0 08 00
        E 11 b0 08 01
        E 11 b0 08 02
        E 11 b0 08 03
        E 11 b0 08 04
        E 11 b0 08 05
        E 11 b0 08 06
        E 11 b0 08 08
        E 11 b0 08 09
        E 11 b0 08 0a
        E 11 b0 08 0c
        E 11 b0 08 0e
        E 11 b0 08 10
        E 11 b0 08 12
        E 11 b0 08 14
        E 11 b0 08 16
        E 11 b0 08 19
        E 11 b0 08 1b
        E 11 b0 08 1d
        E 11 b0 08 20
        E 11 b0 08 23
        E 11 b0 08 25
        E 11 b0 08 28
        E 11 b0 08 2b
        E 11 b0 08 2d
        E 11 b0 08 30
        E 11 b0 08 33
        E 11 b0 08 36
        E 11 b0 08 39
        E 8 b0 08 20
        E 8 b0 08 21
        E 8 b0 08 23
        E 8 b0 08 24
        E 8 b0 08 26
        E 8 b0 08 27
        E 8 b0 08 29
        E 8 b0 08 2a
        E 8 b0 08 2c
        E 8 b0 08 2d
        E 8 b0 08 2f
        E 8 b0 08 30
        E 8 b0 08 31
        E 8 b0 08 33
        E 8 b0 08 34
        E 8 b0 08 35
        E 8 b0 08 36
        E 8 b0 08 37
        E 8 b0 08 38
        E 8 b0 08 39
        E 8 b0 08 3a
        E 8 b0 08 3b
        E 8 b0 08 3c
        E 8 b0 08 3c
        E 8 b0 08 3d
        E 8 b0 08 3d
        E 8 b0 08 3e
        E 8 b0 08 3e
        E 8 b0 08 3f
        E 8 b0 08 3f
        E 8 b0 08 3f
        E 8 b0 08 3f
        E 8 b0 08 3f
        E 8 b0 08 3f
        E 8 b0 08 3f
        E 8 b0 08 3f
        E 8 b0 08 3f
        E 8 b0 08 3e
        E 8 b0 08 3e
        E 8 b0 08 3d
        E 8 b0 08 3d
        E 8 b0 08 3c
        E 8 b0 08 3b
        E 8 b0 08 3a
        E 8 b0 08 3a
        E 8 b0 08 39
        E 8 b0 08 38
        E 8 b0 08 37
        E 8 b0 08 36
        E 8 b0 08 34
        E 8 b0 08 33
        E 8 b0 08 32
        E 8 b0 08 31
        E 8 b0 08 2f
        E 8 b0 08 2e
        E 8 b0 08 2c
        E 8 b0 08 2b
        E 8 b0 08 2a
        E 8 b0 08 28
        E 8 b0 08 27
        E 8 b0 08 25
        E 8 b0 08 23
        E 8 b0 08 22
        E 8 b0 08 20
        E 8 b0 08 1f
        E 8 b0 08 1d
        E 8 b0 08 1c
        E 8 b0 08 1a
        E 8 b0 08 18
        E 8 b0 08 17
        E 8 b0 08 15
        E 8 b0 08 14
        E 8 b0 08 13
        E 8 b0 08 11
        E 8 b0 08 10
        E 8 b0 08 0e
        E 8 b0 08 0d
        E 8 b0 08 0c
        E 8 b0 08 0b
        E 8 b0 08 09
        E 8 b0 08 08
        E 8 b0 08 07
        E 8 b0 08 06
        E 8 b0 08 05
        E 8 b0 08 05
        E 8 b0 08 04
        E 8 b0 08 03
        E 8 b0 08 02
        E 8 b0 08 02
        E 8 b0 08 01
        E 8 b0 08 01
        E 8 b0 08 00
        E 8 b0 08 00
        E 8 b0 08 00
        E 8 b0 08 00
        E 8 b0 08 00
        E 8 b0 08 00
        E 8 b0 08 00
        E 8 b0 08 00
        E 8 b0 08 00
        E 8 b0 08 01
        E 8 b0 08 01
        E 8 b0 08 02
        E 8 b0 08 02
        E 8 b0 08 03
        E 8 b0 08 03
        E 8 b0 08 04
        E 8 b0 08 05
        E 8 b0 08 06
        E 8 b0 08 07
        E 8 b0 08 08
        E 8 b0 08 09
        E 8 b0 08 0a
        E 8 b0 08 0b
        E 8 b0 08 0c
        E 8 b0 08 0e
        E 8 b0 08 0f
        E 8 b0 08 10
        E 8 b0 08 12
        E 8 b0 08 13
        E 8 b0 08 15
        E 8 b0 08 16
        E 8 b0 08 18
        E 8 b0 08 19
        E 8 b0 08 1b
        E 8 b0 08 1c
        E 8 b0 08 1e
        E 8 b0 08 20
        E 8 b0 08 20
        E 8 b0 08 21
        E 8 b0 08 23
        E 8 b0 08 24
        E 8 b0 08 26
        E 8 b0 08 27
        E 8 b0 08 29
        E 8 b0 08 2a
        E 8 b0 08 2c
        E 8 b0 08 2d
        E 8 b0 08 2f
        E 8 b0 08 30
        E 8 b0 08 31
        E 8 b0 08 33
        E 8 b0 08 34
        E 8 b0 08 35
        E 8 b0 08 36
        E 8 b0 08 37
        E 8 b0 08 38
        E 8 b0 08 39
        E 8 b0 08 3a
        E 8 b0 08 3b
        E 8 b0 08 3c
        E 8 b0 08 3c
        E 8 b0 08 3d
        E 8 b0 08 3d
        E 8 b0 08 3e
        E 8 b0 08 3e
        E 8 b0 08 3f
        E 8 b0 08 3f
        E 8 b0 08 3f
        E 8 b0 08 3f
        E 8 b0 08 3f
        E 8 b0 08 3f
        E 8 b0 08 3f
        E 8 b0 08 3f
        E 8 b0 08 3f
        E 8 b0 08 3e
        E 8 b0 08 3e
        E 8 b0 08 3d
        E 8 b0 08 3d
        E 8 b0 08 3c
        E 8 b0 08 3b
        E 8 b0 08 3a
        E 8 b0 08 3a
        E 8 b0 08 39
        E 8 b0 08 38
        E 8 b0 08 37
        E 8 b0 08 36
        E 8 b0 08 34
        E 8 b0 08 33
        E 8 b0 08 32
        E 8 b0 08 31
        E 8 b0 08 2f
        E 8 b0 08 2e
        E 8 b0 08 2c
        E 8 b0 08 2b
        E 8 b0 08 2a
        E 8 b0 08 28
        E 8 b0 08 27
        E 8 b0 08 25
        E 8 b0 08 23
        E 8 b0 08 22
        E 8 b0 08 20
        E 8 b0 08 1f
        E 8 b0 08 1d
        E 8 b0 08 1c
        E 8 b0 08 1a
        E 8 b0 08 18
        E 8 b0 08 17
        E 8 b0 08 15
        E 8 b0 08 14
        E 8 b0 08 13
        E 8 b0 08 11
        E 8 b0 08 10
        E 8 b0 08 0e
        E 8 b0 08 0d
        E 8 b0 08 0c
        E 8 b0 08 0b
        E 8 b0 08 09
        E 8 b0 08 08
        E 8 b0 08 07
        E 8 b0 08 06
        E 8 b0 08 05
        E 8 b0 08 05
        E 8 b0 08 04
        E 8 b0 08 03
        E 8 b0 08 02
        E 8 b0 08 02
        E 8 b0 08 01
        E 8 b0 08 01
        E 8 b0 08 00
        E 8 b0 08 00
        E 8 b0 08 00
        E 8 b0 08 00
        E 8 b0 08 00
        E 8 b0 08 00
        E 8 b0 08 00
        E 8 b0 08 00
        E 8 b0 08 00
        E 8 b0 08 01
        E 8 b0 08 01
        E 8 b0 08 02
        E 8 b0 08 02
        E 8 b0 08 03
        E 8 b0 08 03
        E 8 b0 08 04
        E 8 b0 08 05
        E 8 b0 08 06
        E 8 b0 08 07
        E 8 b0 08 08
        E 8 b0 08 09
        E 8 b0 08 0a
        E 8 b0 08 0b
        E 8 b0 08 0c
        E 8 b0 08 0e
        E 8 b0 08 0f
        E 8 b0 08 10
        E 8 b0 08 12
        E 8 b0 08 13
        E 8 b0 08 15
        E 8 b0 08 16
        E 8 b0 08 18
        E 8 b0 08 19
        E 8 b0 08 1b
        E 8 b0 08 1c
        E 8 b0 08 1e
        E 8 b0 08 20
        E 17 b0 08 2c
        E 17 b0 08 2e
        E 17 b0 08 31
        E 17 b0 08 33
        E 17 b0 08 35
        E 17 b0 08 37
        E 17 b0 08 39
        E 17 b0 08 3b
        E 17 b0 08 3d
        E 17 b0 08 3f
        E 17 b0 08 41
        E 17 b0 08 43
        E 17 b0 08 45
        E 17 b0 08 47
        E 17 b0 08 48
        E 17 b0 08 4a
        E 17 b0 08 4c
        E 17 b0 08 4d
        E 17 b0 08 4f
        E 17 b0 08 50
        E 17 b0 08 51
        E 17 b0 08 52
        E 17 b0 08 54
        E 17 b0 08 54
        E 17 b0 08 55
        E 17 b0 08 56
        E 17 b0 08 56
        E 17 b0 08 57
        E 17 b0 08 58
        E 17 b0 08 58
        E 17 b0 08 58
        E 17 b0 08 58
        E 17 b0 08 58
        E 17 b0 08 58
        E 17 b0 08 58
        E 17 b0 08 58
        E 17 b0 08 58
        E 17 b0 08 57
        E 17 b0 08 56
        E 17 b0 08 56
        E 17 b0 08 55
        E 17 b0 08 54
        E 17 b0 08 53
        E 17 b0 08 51
        E 17 b0 08 51
        E 17 b0 08 4f
        E 17 b0 08 4e
        E 17 b0 08 4d
        E 17 b0 08 4b
        E 17 b0 08 49
        E 17 b0 08 48
        E 17 b0 08 46
        E 17 b0 08 44
        E 17 b0 08 42
        E 17 b0 08 40
        E 17 b0 08 3e
        E 17 b0 08 3c
        E 17 b0 08 3a
        E 17 b0 08 38
        E 17 b0 08 36
        E 17 b0 08 33
        E 17 b0 08 31
        E 17 b0 08 2f
        E 17 b0 08 2d
        E 17 b0 08 2b
        E 17 b0 08 29
        E 17 b0 08 27
        E 17 b0 08 25
        E 17 b0 08 22
        E 17 b0 08 20
        E 17 b0 08 1e
        E 17 b0 08 1c
        E 17 b0 08 1a
        E 17 b0 08 18
        E 17 b0 08 16
        E 17 b0 08 14
        E 17 b0 08 12
        E 17 b0 08 10
        E 17 b0 08 0f
        E 17 b0 08 0d
        E 17 b0 08 0b
        E 17 b0 08 0a
        E 17 b0 08 09
        E 17 b0 08 07
        E 17 b0 08 07
        E 17 b0 08 05
        E 17 b0 08 04
        E 17 b0 08 03
        E 17 b0 08 02
        E 17 b0 08 02
        E 17 b0 08 01
        E 17 b0 08 00
        E 17 b0 08 00
        E 17 b0 08 00
        E 17 b0 08 00
        E 17 b0 08 00
        E 17 b0 08 00
        E 17 b0 08 00
        E 17 b0 08 00
        E 17 b0 08 00
        E 17 b0 08 01
        E 17 b0 08 02
        E 17 b0 08 02
        E 17 b0 08 03
        E 17 b0 08 04
        E 17 b0 08 04
        E 17 b0 08 06
        E 17 b0 08 07
        E 17 b0 08 08
        E 17 b0 08 09
        E 17 b0 08 0b
        E 17 b0 08 0c
        E 17 b0 08 0e
        E 17 b0 08 10
        E 17 b0 08 11
        E 17 b0 08 13
        E 17 b0 08 15
        E 17 b0 08 17
        E 17 b0 08 19
        E 17 b0 08 1b
        E 17 b0 08 1d
        E 17 b0 08 1f
        E 17 b0 08 21
        E 17 b0 08 23
        E 17 b0 08 25
        E 17 b0 08 27
        E 17 b0 08 2a
        E 17 b0 08 2c
        E 15 b0 08 33
        E 15 b0 08 35
        E 15 b0 08 37
        E 15 b0 08 3a
        E 15 b0 08 3c
        E 15 b0 08 3f
        E 15 b0 08 41
        E 15 b0 08 44
        E 15 b0 08 46
        E 15 b0 08 48
        E 15 b0 08 4b
        E 15 b0 08 4c
        E 15 b0 08 4f
        E 15 b0 08 51
        E 15 b0 08 53
        E 15 b0 08 54
        E 15 b0 08 57
        E 15 b0 08 58
        E 15 b0 08 5a
        E 15 b0 08 5b
        E 15 b0 08 5d
        E 15 b0 08 5e
        E 15 b0 08 5f
        E 15 b0 08 60
        E 15 b0 08 61
        E 15 b0 08 62
        E 15 b0 08 63
        E 15 b0 08 63
        E 15 b0 08 64
        E 15 b0 08 64
        E 15 b0 08 65
        E 15 b0 08 65
        E 15 b0 08 65
        E 15 b0 08 65
        E 15 b0 08 65
        E 15 b0 08 64
        E 15 b0 08 64
        E 15 b0 08 63
        E 15 b0 08 63
        E 15 b0 08 62
        E 15 b0 08 61
        E 15 b0 08 5f
        E 15 b0 08 5f
        E 15 b0 08 5d
        E 15 b0 08 5c
        E 15 b0 08 5b
        E 15 b0 08 59
        E 15 b0 08 57
        E 15 b0 08 56
        E 15 b0 08 54
        E 15 b0 08 52
        E 15 b0 08 50
        E 15 b0 08 4e
        E 15 b0 08 4c
        E 15 b0 08 49
        E 15 b0 08 47
        E 15 b0 08 45
        E 15 b0 08 43
        E 15 b0 08 40
        E 15 b0 08 3e
        E 15 b0 08 3b
        E 15 b0 08 38
        E 15 b0 08 36
        E 15 b0 08 33
        E 15 b0 08 31
        E 15 b0 08 2f
        E 15 b0 08 2c
        E 15 b0 08 2a
        E 15 b0 08 27
        E 15 b0 08 24
        E 15 b0 08 22
        E 15 b0 08 1f
        E 15 b0 08 1e
        E 15 b0 08 1b
        E 15 b0 08 19
        E 15 b0 08 17
        E 15 b0 08 15
        E 15 b0 08 13
        E 15 b0 08 11
        E 15 b0 08 0f
        E 15 b0 08 0d
        E 15 b0 08 0b
        E 15 b0 08 0a
        E 15 b0 08 08
        E 15 b0 08 07
        E 15 b0 08 06
        E 15 b0 08 05
        E 15 b0 08 03
        E 15 b0 08 03
        E 15 b0 08 02
        E 15 b0 08 01
        E 15 b0 08 00
        E 15 b0 08 00
        E 15 b0 08 00
        E 15 b0 08 00
        E 15 b0 08 00
        E 15 b0 08 00
        E 15 b0 08 00
        E 15 b0 08 00
        E 15 b0 08 00
        E 15 b0 08 01
        E 15 b0 08 02
        E 15 b0 08 03
        E 15 b0 08 03
        E 15 b0 08 04
        E 15 b0 08 05
        E 15 b0 08 07
        E 15 b0 08 07
        E 15 b0 08 09
        E 15 b0 08 0b
        E 15 b0 08 0c
        E 15 b0 08 0e
        E 15 b0 08 10
        E 15 b0 08 12
        E 15 b0 08 14
        E 15 b0 08 16
        E 15 b0 08 18
        E 15 b0 08 1a
        E 15 b0 08 1c
        E 15 b0 08 1f
        E 15 b0 08 21
        E 15 b0 08 24
        E 15 b0 08 26
        E 15 b0 08 28
        E 15 b0 08 2b
        E 15 b0 08 2d
        E 15 b0 08 2f
        E 15 b0 08 33
        E 17 b0 08 06
        E 17 b0 08 06
        E 17 b0 08 07
        E 17 b0 08 07
        E 17 b0 08 07
        E 17 b0 08 07
        E 17 b0 08 08
        E 17 b0 08 08
        E 17 b0 08 08
        E 17 b0 08 09
        E 17 b0 08 09
        E 17 b0 08 09
        E 17 b0 08 09
        E 17 b0 08 0a
        E 17 b0 08 0a
        E 17 b0 08 0a
        E 17 b0 08 0a
        E 17 b0 08 0b
        E 17 b0 08 0b
        E 17 b0 08 0b
        E 17 b0 08 0b
        E 17 b0 08 0b
        E 17 b0 08 0c
        E 17 b0 08 0c
        E 17 b0 08 0c
        E 17 b0 08 0c
        E 17 b0 08 0c
        E 17 b0 08 0c
        E 17 b0 08 0c
        E 17 b0 08 0c
        E 17 b0 08 0c
        E 17 b0 08 0c
        E 17 b0 08 0c
        E 17 b0 08 0c
        E 17 b0 08 0c
        E 17 b0 08 0c
        E 17 b0 08 0c
        E 17 b0 08 0c
        E 17 b0 08 0c
        E 17 b0 08 0c
        E 17 b0 08 0c
        E 17 b0 08 0c
        E 17 b0 08 0b
        E 17 b0 08 0b
        E 17 b0 08 0b
        E 17 b0 08 0b
        E 17 b0 08 0b
        E 17 b0 08 0b
        E 17 b0 08 0a
        E 17 b0 08 0a
        E 17 b0 08 0a
        E 17 b0 08 0a
        E 17 b0 08 09
        E 17 b0 08 09
        E 17 b0 08 09
        E 17 b0 08 08
        E 17 b0 08 08
        E 17 b0 08 08
        E 17 b0 08 08
        E 17 b0 08 07
        E 17 b0 08 07
        E 17 b0 08 07
        E 17 b0 08 06
        E 17 b0 08 06
        E 17 b0 08 06
        E 17 b0 08 05
        E 17 b0 08 05
        E 17 b0 08 05
        E 17 b0 08 04
        E 17 b0 08 04
        E 17 b0 08 04
        E 17 b0 08 04
        E 17 b0 08 03
        E 17 b0 08 03
        E 17 b0 08 03
        E 17 b0 08 02
        E 17 b0 08 02
        E 17 b0 08 02
        E 17 b0 08 02
        E 17 b0 08 01
        E 17 b0 08 01
        E 17 b0 08 01
        E 17 b0 08 01
        E 17 b0 08 01
        E 17 b0 08 01
        E 17 b0 08 00
        E 17 b0 08 00
        E 17 b0 08 00
        E 17 b0 08 00
        E 17 b0 08 00
        E 17 b0 08 00
        E 17 b0 08 00
        E 17 b0 08 00
        E 17 b0 08 00
        E 17 b0 08 00
        E 17 b0 08 00
        E 17 b0 08 00
        E 17 b0 08 00
        E 17 b0 08 00
        E 17 b0 08 00
        E 17 b0 08 00
        E 17 b0 08 00
        E 17 b0 08 00
        E 17 b0 08 00
        E 17 b0 08 00
        E 17 b0 08 00
        E 17 b0 08 00
        E 17 b0 08 01
        E 17 b0 08 01
        E 17 b0 08 01
        E 17 b0 08 01
        E 17 b0 08 01
        E 17 b0 08 02
        E 17 b0 08 02
        E 17 b0 08 02
        E 17 b0 08 02
        E 17 b0 08 03
        E 17 b0 08 03
        E 17 b0 08 03
        E 17 b0 08 03
        E 17 b0 08 04
        E 17 b0 08 04
        E 17 b0 08 04
        E 17 b0 08 05
        E 17 b0 08 05
        E 17 b0 08 05
        E 17 b0 08 06
        E 17 b0 08 06
        E 15 b0 08 19
        E 15 b0 08 1a
        E 15 b0 08 1c
        E 15 b0 08 1d
        E 15 b0 08 1e
        E 15 b0 08 1f
        E 15 b0 08 20
        E 15 b0 08 22
        E 15 b0 08 23
        E 15 b0 08 24
        E 15 b0 08 25
        E 15 b0 08 26
        E 15 b0 08 27
        E 15 b0 08 28
        E 15 b0 08 29
        E 15 b0 08 2a
        E 15 b0 08 2b
        E 15 b0 08 2c
        E 15 b0 08 2d
        E 15 b0 08 2e
        E 15 b0 08 2e
        E 15 b0 08 2f
        E 15 b0 08 30
        E 15 b0 08 30
        E 15 b0 08 30
        E 15 b0 08 31
        E 15 b0 08 31
        E 15 b0 08 32
        E 15 b0 08 32
        E 15 b0 08 32
        E 15 b0 08 32
        E 15 b0 08 32
        E 15 b0 08 32
        E 15 b0 08 32
        E 15 b0 08 32
        E 15 b0 08 32
        E 15 b0 08 32
        E 15 b0 08 32
        E 15 b0 08 31
        E 15 b0 08 31
        E 15 b0 08 30
        E 15 b0 08 30
        E 15 b0 08 2f
        E 15 b0 08 2e
        E 15 b0 08 2e
        E 15 b0 08 2d
        E 15 b0 08 2c
        E 15 b0 08 2c
        E 15 b0 08 2b
        E 15 b0 08 2a
        E 15 b0 08 29
        E 15 b0 08 28
        E 15 b0 08 27
        E 15 b0 08 26
        E 15 b0 08 24
        E 15 b0 08 23
        E 15 b0 08 22
        E 15 b0 08 21
        E 15 b0 08 20
        E 15 b0 08 1f
        E 15 b0 08 1d
        E 15 b0 08 1c
        E 15 b0 08 1b
        E 15 b0 08 1a
        E 15 b0 08 18
        E 15 b0 08 17
        E 15 b0 08 16
        E 15 b0 08 15
        E 15 b0 08 13
        E 15 b0 08 12
        E 15 b0 08 11
        E 15 b0 08 10
        E 15 b0 08 0f
        E 15 b0 08 0e
        E 15 b0 08 0c
        E 15 b0 08 0b
        E 15 b0 08 0a
        E 15 b0 08 09
        E 15 b0 08 08
        E 15 b0 08 07
        E 15 b0 08 06
        E 15 b0 08 06
        E 15 b0 08 05
        E 15 b0 08 04
        E 15 b0 08 04
        E 15 b0 08 03
        E 15 b0 08 02
        E 15 b0 08 02
        E 15 b0 08 01
        E 15 b0 08 01
        E 15 b0 08 00
        E 15 b0 08 00
        E 15 b0 08 00
        E 15 b0 08 00
        E 15 b0 08 00
        E 15 b0 08 00
        E 15 b0 08 00
        E 15 b0 08 00
        E 15 b0 08 00
        E 15 b0 08 00
        E 15 b0 08 00
        E 15 b0 08 01
        E 15 b0 08 01
        E 15 b0 08 02
        E 15 b0 08 02
        E 15 b0 08 02
        E 15 b0 08 03
        E 15 b0 08 04
        E 15 b0 08 04
        E 15 b0 08 05
        E 15 b0 08 06
        E 15 b0 08 07
        E 15 b0 08 08
        E 15 b0 08 09
        E 15 b0 08 0a
        E 15 b0 08 0b
        E 15 b0 08 0c
        E 15 b0 08 0d
        E 15 b0 08 0e
        E 15 b0 08 0f
        E 15 b0 08 10
        E 15 b0 08 12
        E 15 b0 08 13
        E 15 b0 08 14
        E 15 b0 08 15
        E 15 b0 08 16
        E 15 b0 08 18
        E 15 b0 08 19
        E 8 b0 08 2c
        E 8 b0 08 2e
        E 8 b0 08 31
        E 8 b0 08 33
        E 8 b0 08 35
        E 8 b0 08 37
        E 8 b0 08 39
        E 8 b0 08 3b
        E 8 b0 08 3d
        E 8 b0 08 3f
        E 8 b0 08 41
        E 8 b0 08 43
        E 8 b0 08 45
        E 8 b0 08 47
        E 8 b0 08 48
        E 8 b0 08 4a
        E 8 b0 08 4c
        E 8 b0 08 4d
        E 8 b0 08 4f
        E 8 b0 08 50
        E 8 b0 08 51
        E 8 b0 08 52
        E 8 b0 08 54
        E 8 b0 08 54
        E 8 b0 08 55
        E 8 b0 08 56
        E 8 b0 08 56
        E 8 b0 08 57
        E 8 b0 08 58
        E 8 b0 08 58
        E 8 b0 08 58
        E 8 b0 08 58
        E 8 b0 08 58
        E 8 b0 08 58
        E 8 b0 08 58
        E 8 b0 08 58
        E 8 b0 08 58
        E 8 b0 08 57
        E 8 b0 08 56
        E 8 b0 08 56
        E 8 b0 08 55
        E 8 b0 08 54
        E 8 b0 08 53
        E 8 b0 08 51
        E 8 b0 08 51
        E 8 b0 08 4f
        E 8 b0 08 4e
        E 8 b0 08 4d
        E 8 b0 08 4b
        E 8 b0 08 49
        E 8 b0 08 48
        E 8 b0 08 46
        E 8 b0 08 44
        E 8 b0 08 42
        E 8 b0 08 40
        E 8 b0 08 3e
        E 8 b0 08 3c
        E 8 b0 08 3a
        E 8 b0 08 38
        E 8 b0 08 36
        E 8 b0 08 33
        E 8 b0 08 31
        E 8 b0 08 2f
        E 8 b0 08 2d
        E 8 b0 08 2b
        E 8 b0 08 29
        E 8 b0 08 27
        E 8 b0 08 25
        E 8 b0 08 22
        E 8 b0 08 20
        E 8 b0 08 1e
        E 8 b0 08 1c
        E 8 b0 08 1a
        E 8 b0 08 18
        E 8 b0 08 16
        E 8 b0 08 14
        E 8 b0 08 12
        E 8 b0 08 10
        E 8 b0 08 0f
        E 8 b0 08 0d
        E 8 b0 08 0b
        E 8 b0 08 0a
        E 8 b0 08 09
        E 8 b0 08 07
        E 8 b0 08 07
        E 8 b0 08 05
        E 8 b0 08 04
        E 8 b0 08 03
        E 8 b0 08 02
        E 8 b0 08 02
        E 8 b0 08 01
        E 8 b0 08 00
        E 8 b0 08 00
        E 8 b0 08 00
        E 8 b0 08 00
        E 8 b0 08 00
        E 8 b0 08 00
        E 8 b0 08 00
        E 8 b0 08 00
        E 8 b0 08 00
        E 8 b0 08 01
        E 8 b0 08 02
        E 8 b0 08 02
        E 8 b0 08 03
        E 8 b0 08 04
        E 8 b0 08 04
        E 8 b0 08 06
        E 8 b0 08 07
        E 8 b0 08 08
        E 8 b0 08 09
        E 8 b0 08 0b
        E 8 b0 08 0c
        E 8 b0 08 0e
        E 8 b0 08 10
        E 8 b0 08 11
        E 8 b0 08 13
        E 8 b0 08 15
        E 8 b0 08 17
        E 8 b0 08 19
        E 8 b0 08 1b
        E 8 b0 08 1d
        E 8 b0 08 1f
        E 8 b0 08 21
        E 8 b0 08 23
        E 8 b0 08 25
        E 8 b0 08 27
        E 8 b0 08 2a
        E 8 b0 08 2c
        E 8 b0 08 20
        E 8 b0 08 21
        E 8 b0 08 23
        E 8 b0 08 24
        E 8 b0 08 26
        E 8 b0 08 27
        E 8 b0 08 29
        E 8 b0 08 2a
        E 8 b0 08 2c
        E 8 b0 08 2d
        E 8 b0 08 2f
        E 8 b0 08 30
        E 8 b0 08 31
        E 8 b0 08 33
        E 8 b0 08 34
        E 8 b0 08 35
        E 8 b0 08 36
        E 8 b0 08 37
        E 8 b0 08 38
        E 8 b0 08 39
        E 8 b0 08 3a
        E 8 b0 08 3b
        E 8 b0 08 3c
        E 8 b0 08 3c
        E 8 b0 08 3d
        E 8 b0 08 3d
        E 8 b0 08 3e
        E 8 b0 08 3e
        E 8 b0 08 3f
        E 8 b0 08 3f
        E 8 b0 08 3f
        E 8 b0 08 3f
        E 8 b0 08 3f
        E 8 b0 08 3f
        E 8 b0 08 3f
        E 8 b0 08 3f
        E 8 b0 08 3f
        E 8 b0 08 3e
        E 8 b0 08 3e
        E 8 b0 08 3d
        E 8 b0 08 3d
        E 8 b0 08 3c
        E 8 b0 08 3b
        E 8 b0 08 3a
        E 8 b0 08 3a
        E 8 b0 08 39
        E 8 b0 08 38
        E 8 b0 08 37
        E 8 b0 08 36
        E 8 b0 08 34
        E 8 b0 08 33
        E 8 b0 08 32
        E 8 b0 08 31
        E 8 b0 08 2f
        E 8 b0 08 2e
        E 8 b0 08 2c
        E 8 b0 08 2b
        E 8 b0 08 2a
        E 8 b0 08 28
        E 8 b0 08 27
        E 8 b0 08 25
        E 8 b0 08 23
        E 8 b0 08 22
        E 8 b0 08 20
        E 8 b0 08 1f
        E 8 b0 08 1d
        E 8 b0 08 1c
        E 8 b0 08 1a
        E 8 b0 08 18
        E 8 b0 08 17
        E 8 b0 08 15
        E 8 b0 08 14
        E 8 b0 08 13
        E 8 b0 08 11
        E 8 b0 08 10
        E 8 b0 08 0e
        E 8 b0 08 0d
        E 8 b0 08 0c
        E 8 b0 08 0b
        E 8 b0 08 09
        E 8 b0 08 08
        E 8 b0 08 07
        E 8 b0 08 06
        E 8 b0 08 05
        E 8 b0 08 05
        E 8 b0 08 04
        E 8 b0 08 03
        E 8 b0 08 02
        E 8 b0 08 02
        E 8 b0 08 01
        E 8 b0 08 01
        E 8 b0 08 00
        E 8 b0 08 00
        E 8 b0 08 00
        E 8 b0 08 00
        E 8 b0 08 00
        E 8 b0 08 00
        E 8 b0 08 00
        E 8 b0 08 00
        E 8 b0 08 00
        E 8 b0 08 01
        E 8 b0 08 01
        E 8 b0 08 02
        E 8 b0 08 02
        E 8 b0 08 03
        E 8 b0 08 03
        E 8 b0 08 04
        E 8 b0 08 05
        E 8 b0 08 06
        E 8 b0 08 07
        E 8 b0 08 08
        E 8 b0 08 09
        E 8 b0 08 0a
        E 8 b0 08 0b
        E 8 b0 08 0c
        E 8 b0 08 0e
        E 8 b0 08 0f
        E 8 b0 08 10
        E 8 b0 08 12
        E 8 b0 08 13
        E 8 b0 08 15
        E 8 b0 08 16
        E 8 b0 08 18
        E 8 b0 08 19
        E 8 b0 08 1b
        E 8 b0 08 1c
        E 8 b0 08 1e
        E 8 b0 08 20
        E 11 b0 08 20
        E 11 b0 08 21
        E 11 b0 08 23
        E 11 b0 08 24
        E 11 b0 08 26
        E 11 b0 08 27
        E 11 b0 08 29
        E 11 b0 08 2a
        E 11 b0 08 2c
        E 11 b0 08 2d
        E 11 b0 08 2f
        E 11 b0 08 30
        E 11 b0 08 31
        E 11 b0 08 33
        E 11 b0 08 34
        E 11 b0 08 35
        E 11 b0 08 36
        E 11 b0 08 37
        E 11 b0 08 38
        E 11 b0 08 39
        E 11 b0 08 3a
        E 11 b0 08 3b
        E 11 b0 08 3c
        E 11 b0 08 3c
        E 11 b0 08 3d
        E 11 b0 08 3d
        E 11 b0 08 3e
        E 11 b0 08 3e
        E 11 b0 08 3f
        E 11 b0 08 3f
        E 11 b0 08 3f
        E 11 b0 08 3f
        E 11 b0 08 3f
        E 11 b0 08 3f
        E 11 b0 08 3f
        E 11 b0 08 3f
        E 11 b0 08 3f
        E 11 b0 08 3e
        E 11 b0 08 3e
        E 11 b0 08 3d
        E 11 b0 08 3d
        E 11 b0 08 3c
        E 11 b0 08 3b
        E 11 b0 08 3a
        E 11 b0 08 3a
        E 11 b0 08 39
        E 11 b0 08 38
        E 11 b0 08 37
        E 11 b0 08 36
        E 11 b0 08 34
        E 11 b0 08 33
        E 11 b0 08 32
        E 11 b0 08 31
        E 11 b0 08 2f
        E 11 b0 08 2e
        E 11 b0 08 2c
        E 11 b0 08 2b
        E 11 b0 08 2a
        E 11 b0 08 28
        E 11 b0 08 27
        E 11 b0 08 25
        E 11 b0 08 23
        E 11 b0 08 22
        E 11 b0 08 20
        E 11 b0 08 1f
        E 11 b0 08 1d
        E 11 b0 08 1c
        E 11 b0 08 1a
        E 11 b0 08 18
        E 11 b0 08 17
        E 11 b0 08 15
        E 11 b0 08 14
        E 11 b0 08 13
        E 11 b0 08 11
        E 11 b0 08 10
        E 11 b0 08 0e
        E 11 b0 08 0d
        E 11 b0 08 0c
        E 11 b0 08 0b
        E 11 b0 08 09
        E 11 b0 08 08
        E 11 b0 08 07
        E 11 b0 08 06
        E 11 b0 08 05
        E 11 b0 08 05
        E 11 b0 08 04
        E 11 b0 08 03
        E 11 b0 08 02
        E 11 b0 08 02
        E 11 b0 08 01
        E 11 b0 08 01
        E 11 b0 08 00
        E 11 b0 08 00
        E 11 b0 08 00
        E 11 b0 08 00
        E 11 b0 08 00
        E 11 b0 08 00
        E 11 b0 08 00
        E 11 b0 08 00
        E 11 b0 08 00
        E 11 b0 08 01
        E 11 b0 08 01
        E 11 b0 08 02
        E 11 b0 08 02
        E 11 b0 08 03
        E 11 b0 08 03
        E 11 b0 08 04
        E 11 b0 08 05
        E 11 b0 08 06
        E 11 b0 08 07
        E 11 b0 08 08
        E 11 b0 08 09
        E 11 b0 08 0a
        E 11 b0 08 0b
        E 11 b0 08 0c
        E 11 b0 08 0e
        E 11 b0 08 0f
        E 11 b0 08 10
        E 11 b0 08 12
        E 11 b0 08 13
        E 11 b0 08 15
        E 11 b0 08 16
        E 11 b0 08 18
        E 11 b0 08 19
        E 11 b0 08 1b
        E 11 b0 08 1c
        E 11 b0 08 1e
        E 11 b0 08 20
        E 13 b0 08 40
        E 13 b0 08 43
        E 13 b0 08 46
        E 13 b0 08 49
        E 13 b0 08 4c
        E 13 b0 08 4f
        E 13 b0 08 52
        E 13 b0 08 55
        E 13 b0 08 58
        E 13 b0 08 5b
        E 13 b0 08 5e
        E 13 b0 08 60
        E 13 b0 08 63
        E 13 b0 08 66
        E 13 b0 08 68
        E 13 b0 08 6a
        E 13 b0 08 6d
        E 13 b0 08 6f
        E 13 b0 08 71
        E 13 b0 08 73
        E 13 b0 08 75
        E 13 b0 08 76
        E 13 b0 08 78
        E 13 b0 08 79
        E 13 b0 08 7a
        E 13 b0 08 7b
        E 13 b0 08 7c
        E 13 b0 08 7d
        E 13 b0 08 7e
        E 13 b0 08 7e
        E 13 b0 08 7f
        E 13 b0 08 7f
        E 13 b0 08 7f
        E 13 b0 08 7f
        E 13 b0 08 7f
        E 13 b0 08 7e
        E 13 b0 08 7e
        E 13 b0 08 7d
        E 13 b0 08 7c
        E 13 b0 08 7b
        E 13 b0 08 7a
        E 13 b0 08 78
        E 13 b0 08 77
        E 13 b0 08 75
        E 13 b0 08 74
        E 13 b0 08 72
        E 13 b0 08 70
        E 13 b0 08 6e
        E 13 b0 08 6c
        E 13 b0 08 69
        E 13 b0 08 67
        E 13 b0 08 64
        E 13 b0 08 62
        E 13 b0 08 5f
        E 13 b0 08 5c
        E 13 b0 08 59
        E 13 b0 08 57
        E 13 b0 08 54
        E 13 b0 08 51
        E 13 b0 08 4e
        E 13 b0 08 4a
        E 13 b0 08 47
        E 13 b0 08 44
        E 13 b0 08 41
        E 13 b0 08 3e
        E 13 b0 08 3b
        E 13 b0 08 38
        E 13 b0 08 35
        E 13 b0 08 31
        E 13 b0 08 2e
        E 13 b0 08 2b
        E 13 b0 08 28
        E 13 b0 08 26
        E 13 b0 08 23
        E 13 b0 08 20
        E 13 b0 08 1d
        E 13 b0 08 1b
        E 13 b0 08 18
        E 13 b0 08 16
        E 13 b0 08 13
        E 13 b0 08 11
        E 13 b0 08 0f
        E 13 b0 08 0d
        E 13 b0 08 0b
        E 13 b0 08 0a
        E 13 b0 08 08
        E 13 b0 08 07
        E 13 b0 08 05
        E 13 b0 08 04
        E 13 b0 08 03
        E 13 b0 08 02
        E 13 b0 08 01
        E 13 b0 08 01
        E 13 b0 08 00
        E 13 b0 08 00
        E 13 b0 08 00
        E 13 b0 08 00
        E 13 b0 08 00
        E 13 b0 08 01
        E 13 b0 08 01
        E 13 b0 08 02
        E 13 b0 08 03
        E 13 b0 08 04
        E 13 b0 08 05
        E 13 b0 08 06
        E 13 b0 08 07
        E 13 b0 08 09
        E 13 b0 08 0a
        E 13 b0 08 0c
        E 13 b0 08 0e
        E 13 b0 08 10
        E 13 b0 08 12
        E 13 b0 08 15
        E 13 b0 08 17
        E 13 b0 08 19
        E 13 b0 08 1c
        E 13 b0 08 1f
        E 13 b0 08 21
        E 13 b0 08 24
        E 13 b0 08 27
        E 13 b0 08 2a
        E 13 b0 08 2d
        E 13 b0 08 30
        E 13 b0 08 33
        E 13 b0 08 36
        E 13 b0 08 39
        E 13 b0 08 3c
        E 13 b0 08 40
        E 1 b0 08 39
        E 1 b0 08 3c
        E 1 b0 08 3f
        E 1 b0 08 41
        E 1 b0 08 44
        E 1 b0 08 47
        E 1 b0 08 49
        E 1 b0 08 4c
        E 1 b0 08 4f
        E 1 b0 08 51
        E 1 b0 08 54
        E 1 b0 08 56
        E 1 b0 08 59
        E 1 b0 08 5b
        E 1 b0 08 5d
        E 1 b0 08 5f
        E 1 b0 08 62
        E 1 b0 08 63
        E 1 b0 08 65
        E 1 b0 08 67
        E 1 b0 08 69
        E 1 b0 08 6a
        E 1 b0 08 6c
        E 1 b0 08 6c
        E 1 b0 08 6d
        E 1 b0 08 6e
        E 1 b0 08 6f
        E 1 b0 08 70
        E 1 b0 08 71
        E 1 b0 08 71
        E 1 b0 08 72
        E 1 b0 08 72
        E 1 b0 08 72
        E 1 b0 08 72
        E 1 b0 08 72
        E 1 b0 08 71
        E 1 b0 08 71
        E 1 b0 08 70
        E 1 b0 08 6f
        E 1 b0 08 6e
        E 1 b0 08 6d
        E 1 b0 08 6c
        E 1 b0 08 6b
        E 1 b0 08 69
        E 1 b0 08 68
        E 1 b0 08 66
        E 1 b0 08 64
        E 1 b0 08 63
        E 1 b0 08 61
        E 1 b0 08 5e
        E 1 b0 08 5c
        E 1 b0 08 5a
        E 1 b0 08 58
        E 1 b0 08 55
        E 1 b0 08 52
        E 1 b0 08 50
        E 1 b0 08 4e
        E 1 b0 08 4b
        E 1 b0 08 48
        E 1 b0 08 46
        E 1 b0 08 42
        E 1 b0 08 3f
        E 1 b0 08 3d
        E 1 b0 08 3a
        E 1 b0 08 37
        E 1 b0 08 35
        E 1 b0 08 32
        E 1 b0 08 2f
        E 1 b0 08 2c
        E 1 b0 08 29
        E 1 b0 08 26
        E 1 b0 08 24
        E 1 b0 08 22
        E 1 b0 08 1f
        E 1 b0 08 1c
        E 1 b0 08 1a
        E 1 b0 08 18
        E 1 b0 08 15
        E 1 b0 08 13
        E 1 b0 08 11
        E 1 b0 08 0f
        E 1 b0 08 0d
        E 1 b0 08 0b
        E 1 b0 08 09
        E 1 b0 08 09
        E 1 b0 08 07
        E 1 b0 08 06
        E 1 b0 08 04
        E 1 b0 08 03
        E 1 b0 08 02
        E 1 b0 08 01
        E 1 b0 08 00
        E 1 b0 08 00
        E 1 b0 08 00
        E 1 b0 08 00
        E 1 b0 08 00
        E 1 b0 08 00
        E 1 b0 08 00
        E 1 b0 08 00
        E 1 b0 08 00
        E 1 b0 08 01
        E 1 b0 08 02
        E 1 b0 08 03
        E 1 b0 08 04
        E 1 b0 08 05
        E 1 b0 08 06
        E 1 b0 08 08
        E 1 b0 08 09
        E 1 b0 08 0a
        E 1 b0 08 0c
        E 1 b0 08 0e
        E 1 b0 08 10
        E 1 b0 08 12
        E 1 b0 08 14
        E 1 b0 08 16
        E 1 b0 08 19
        E 1 b0 08 1b
        E 1 b0 08 1d
        E 1 b0 08 20
        E 1 b0 08 23
        E 1 b0 08 25
        E 1 b0 08 28
        E 1 b0 08 2b
        E 1 b0 08 2d
        E 1 b0 08 30
        E 1 b0 08 33
        E 1 b0 08 36
        E 1 b0 08 39
        E 6 b0 08 40
        E 6 b0 08 43
        E 6 b0 08 46
        E 6 b0 08 49
        E 6 b0 08 4c
        E 6 b0 08 4f
        E 6 b0 08 52
        E 6 b0 08 55
        E 6 b0 08 58
        E 6 b0 08 5b
        E 6 b0 08 5e
        E 6 b0 08 60
        E 6 b0 08 63
        E 6 b0 08 66
        E 6 b0 08 68
        E 6 b0 08 6a
        E 6 b0 08 6d
        E 6 b0 08 6f
        E 6 b0 08 71
        E 6 b0 08 73
        E 6 b0 08 75
        E 6 b0 08 76
        E 6 b0 08 78
        E 6 b0 08 79
        E 6 b0 08 7a
        E 6 b0 08 7b
        E 6 b0 08 7c
        E 6 b0 08 7d
        E 6 b0 08 7e
        E 6 b0 08 7e
        E 6 b0 08 7f
        E 6 b0 08 7f
        E 6 b0 08 7f
        E 6 b0 08 7f
        E 6 b0 08 7f
        E 6 b0 08 7e
        E 6 b0 08 7e
        E 6 b0 08 7d
        E 6 b0 08 7c
        E 6 b0 08 7b
        E 6 b0 08 7a
        E 6 b0 08 78
        E 6 b0 08 77
        E 6 b0 08 75
        E 6 b0 08 74
        E 6 b0 08 72
        E 6 b0 08 70
        E 6 b0 08 6e
        E 6 b0 08 6c
        E 6 b0 08 69
        E 6 b0 08 67
        E 6 b0 08 64
        E 6 b0 08 62
        E 6 b0 08 5f
        E 6 b0 08 5c
        E 6 b0 08 59
        E 6 b0 08 57
        E 6 b0 08 54
        E 6 b0 08 51
        E 6 b0 08 4e
        E 6 b0 08 4a
        E 6 b0 08 47
        E 6 b0 08 44
        E 6 b0 08 41
        E 6 b0 08 3e
        E 6 b0 08 3b
        E 6 b0 08 38
        E 6 b0 08 35
        E 6 b0 08 31
        E 6 b0 08 2e
        E 6 b0 08 2b
        E 6 b0 08 28
        E 6 b0 08 26
        E 6 b0 08 23
        E 6 b0 08 20
        E 6 b0 08 1d
        E 6 b0 08 1b
        E 6 b0 08 18
        E 6 b0 08 16
        E 6 b0 08 13
        E 6 b0 08 11
        E 6 b0 08 0f
        E 6 b0 08 0d
        E 6 b0 08 0b
        E 6 b0 08 0a
        E 6 b0 08 08
        E 6 b0 08 07
        E 6 b0 08 05
        E 6 b0 08 04
        E 6 b0 08 03
        E 6 b0 08 02
        E 6 b0 08 01
        E 6 b0 08 01
        E 6 b0 08 00
        E 6 b0 08 00
        E 6 b0 08 00
        E 6 b0 08 00
        E 6 b0 08 00
        E 6 b0 08 01
        E 6 b0 08 01
        E 6 b0 08 02
        E 6 b0 08 03
        E 6 b0 08 04
        E 6 b0 08 05
        E 6 b0 08 06
        E 6 b0 08 07
        E 6 b0 08 09
        E 6 b0 08 0a
        E 6 b0 08 0c
        E 6 b0 08 0e
        E 6 b0 08 10
        E 6 b0 08 12
        E 6 b0 08 15
        E 6 b0 08 17
        E 6 b0 08 19
        E 6 b0 08 1c
        E 6 b0 08 1f
        E 6 b0 08 21
        E 6 b0 08 24
        E 6 b0 08 27
        E 6 b0 08 2a
        E 6 b0 08 2d
        E 6 b0 08 30
        E 6 b0 08 33
        E 6 b0 08 36
        E 6 b0 08 39
        E 6 b0 08 3c
        E 6 b0 08 40
        E 11 b0 08 39
        E 11 b0 08 3c
        E 11 b0 08 3f
        E 11 b0 08 41
        E 11 b0 08 44
        E 11 b0 08 47
        E 11 b0 08 49
        E 11 b0 08 4c
        E 11 b0 08 4f
        E 11 b0 08 51
        E 11 b0 08 54
        E 11 b0 08 56
        E 11 b0 08 59
        E 11 b0 08 5b
        E 11 b0 08 5d
        E 11 b0 08 5f
        E 11 b0 08 62
        E 11 b0 08 63
        E 11 b0 08 65
        E 11 b0 08 67
        E 11 b0 08 69
        E 11 b0 08 6a
        E 11 b0 08 6c
        E 11 b0 08 6c
        E 11 b0 08 6d
        E 11 b0 08 6e
        E 11 b0 08 6f
        E 11 b0 08 70
        E 11 b0 08 71
        E 11 b0 08 71
        E 11 b0 08 72
        E 11 b0 08 72
        E 11 b0 08 72
        E 11 b0 08 72
        E 11 b0 08 72
        E 11 b0 08 71
        E 11 b0 08 71
        E 11 b0 08 70
        E 11 b0 08 6f
        E 11 b0 08 6e
        E 11 b0 08 6d
        E 11 b0 08 6c
        E 11 b0 08 6b
        E 11 b0 08 69
        E 11 b0 08 68
        E 11 b0 08 66
        E 11 b0 08 64
        E 11 b0 08 63
        E 11 b0 08 61
        E 11 b0 08 5e
        E 11 b0 08 5c
        E 11 b0 08 5a
        E 11 b0 08 58
        E 11 b0 08 55
        E 11 b0 08 52
        E 11 b0 08 50
        E 11 b0 08 4e
        E 11 b0 08 4b
        E 11 b0 08 48
        E 11 b0 08 46
        E 11 b0 08 42
        E 11 b0 08 3f
        E 11 b0 08 3d
        E 11 b0 08 3a
        E 11 b0 08 37
        E 11 b0 08 35
        E 11 b0 08 32
        E 11 b0 08 2f
        E 11 b0 08 2c
        E 11 b0 08 29
        E 11 b0 08 26
        E 11 b0 08 24
        E 11 b0 08 22
        E 11 b0 08 1f
        E 11 b0 08 1c
        E 11 b0 08 1a
        E 11 b0 08 18
        E 11 b0 08 15
        E 11 b0 08 13
        E 11 b0 08 11
        E 11 b0 08 0f
        E 11 b0 08 0d
        E 11 b0 08 0b
        E 11 b0 08 09
        E 11 b0 08 09
        E 11 b0 08 07
        E 11 b0 08 06
        E 11 b0 08 04
        E 11 b0 08 03
        E 11 b0 08 02
        E 11 b0 08 01
        E 11 b0 08 00
        E 11 b0 08 00
        E 11 b0 08 00
        E 11 b0 08 00
        E 11 b0 08 00
        E 11 b0 08 00
        E 11 b0 08 00
        E 11 b0 08 00
        E 11 b0 08 00
        E 11 b0 08 01
        E 11 b0 08 02
        E 11 b0 08 03
        E 11 b0 08 04
        E 11 b0 08 05
        E 11 b0 08 06
        E 11 b0 08 08
        E 11 b0 08 09
        E 11 b0 08 0a
        E 11 b0 08 0c
        E 11 b0 08 0e
        E 11 b0 08 10
        E 11 b0 08 12
        E 11 b0 08 14
        E 11 b0 08 16
        E 11 b0 08 19
        E 11 b0 08 1b
        E 11 b0 08 1d
        E 11 b0 08 20
        E 11 b0 08 23
        E 11 b0 08 25
        E 11 b0 08 28
        E 11 b0 08 2b
        E 11 b0 08 2d
        E 11 b0 08 30
        E 11 b0 08 33
        E 11 b0 08 36
        E 11 b0 08 39
        E 8 b0 08 20
        E 8 b0 08 21
        E 8 b0 08 23
        E 8 b0 08 24
        E 8 b0 08 26
        E 8 b0 08 27
        E 8 b0 08 29
        E 8 b0 08 2a
        E 8 b0 08 2c
        E 8 b0 08 2d
        E 8 b0 08 2f
        E 8 b0 08 30
        E 8 b0 08 31
        E 8 b0 08 33
        E 8 b0 08 34
        E 8 b0 08 35
        E 8 b0 08 36
        E 8 b0 08 37
        E 8 b0 08 38
        E 8 b0 08 39
        E 8 b0 08 3a
        E 8 b0 08 3b
        E 8 b0 08 3c
        E 8 b0 08 3c
        E 8 b0 08 3d
        E 8 b0 08 3d
        E 8 b0 08 3e
        E 8 b0 08 3e
        E 8 b0 08 3f
        E 8 b0 08 3f
        E 8 b0 08 3f
        E 8 b0 08 3f
        E 8 b0 08 3f
        E 8 b0 08 3f
        E 8 b0 08 3f
        E 8 b0 08 3f
        E 8 b0 08 3f
        E 8 b0 08 3e
        E 8 b0 08 3e
        E 8 b0 08 3d
        E 8 b0 08 3d
        E 8 b0 08 3c
        E 8 b0 08 3b
        E 8 b0 08 3a
        E 8 b0 08 3a
        E 8 b0 08 39
        E 8 b0 08 38
        E 8 b0 08 37
        E 8 b0 08 36
        E 8 b0 08 34
        E 8 b0 08 33
        E 8 b0 08 32
        E 8 b0 08 31
        E 8 b0 08 2f
        E 8 b0 08 2e
        E 8 b0 08 2c
        E 8 b0 08 2b
        E 8 b0 08 2a
        E 8 b0 08 28
        E 8 b0 08 27
        E 8 b0 08 25
        E 8 b0 08 23
        E 8 b0 08 22
        E 8 b0 08 20
        E 8 b0 08 1f
        E 8 b0 08 1d
        E 8 b0 08 1c
        E 8 b0 08 1a
        E 8 b0 08 18
        E 8 b0 08 17
        E 8 b0 08 15
        E 8 b0 08 14
        E 8 b0 08 13
        E 8 b0 08 11
        E 8 b0 08 10
        E 8 b0 08 0e
        E 8 b0 08 0d
        E 8 b0 08 0c
        E 8 b0 08 0b
        E 8 b0 08 09
        E 8 b0 08 08
        E 8 b0 08 07
        E 8 b0 08 06
        E 8 b0 08 05
        E 8 b0 08 05
        E 8 b0 08 04
        E 8 b0 08 03
        E 8 b0 08 02
        E 8 b0 08 02
        E 8 b0 08 01
        E 8 b0 08 01
        E 8 b0 08 00
        E 8 b0 08 00
        E 8 b0 08 00
        E 8 b0 08 00
        E 8 b0 08 00
        E 8 b0 08 00
        E 8 b0 08 00
        E 8 b0 08 00
        E 8 b0 08 00
        E 8 b0 08 01
        E 8 b0 08 01
        E 8 b0 08 02
        E 8 b0 08 02
        E 8 b0 08 03
        E 8 b0 08 03
        E 8 b0 08 04
        E 8 b0 08 05
        E 8 b0 08 06
        E 8 b0 08 07
        E 8 b0 08 08
        E 8 b0 08 09
        E 8 b0 08 0a
        E 8 b0 08 0b
        E 8 b0 08 0c
        E 8 b0 08 0e
        E 8 b0 08 0f
        E 8 b0 08 10
        E 8 b0 08 12
        E 8 b0 08 13
        E 8 b0 08 15
        E 8 b0 08 16
        E 8 b0 08 18
        E 8 b0 08 19
        E 8 b0 08 1b
        E 8 b0 08 1c
        E 8 b0 08 1e
        E 8 b0 08 20
        E 8 b0 08 20
        E 8 b0 08 21
        E 8 b0 08 23
        E 8 b0 08 24
        E 8 b0 08 26
        E 8 b0 08 27
        E 8 b0 08 29
        E 8 b0 08 2a
        E 8 b0 08 2c
        E 8 b0 08 2d
        E 8 b0 08 2f
        E 8 b0 08 30
        E 8 b0 08 31
        E 8 b0 08 33
        E 8 b0 08 34
        E 8 b0 08 35
        E 8 b0 08 36
        E 8 b0 08 37
        E 8 b0 08 38
        E 8 b0 08 39
        E 8 b0 08 3a
        E 8 b0 08 3b
        E 8 b0 08 3c
        E 8 b0 08 3c
        E 8 b0 08 3d
        E 8 b0 08 3d
        E 8 b0 08 3e
        E 8 b0 08 3e
        E 8 b0 08 3f
        E 8 b0 08 3f
        E 8 b0 08 3f
        E 8 b0 08 3f
        E 8 b0 08 3f
        E 8 b0 08 3f
        E 8 b0 08 3f
        E 8 b0 08 3f
        E 8 b0 08 3f
        E 8 b0 08 3e
        E 8 b0 08 3e
        E 8 b0 08 3d
        E 8 b0 08 3d
        E 8 b0 08 3c
        E 8 b0 08 3b
        E 8 b0 08 3a
        E 8 b0 08 3a
        E 8 b0 08 39
        E 8 b0 08 38
        E 8 b0 08 37
        E 8 b0 08 36
        E 8 b0 08 34
        E 8 b0 08 33
        E 8 b0 08 32
        E 8 b0 08 31
        E 8 b0 08 2f
        E 8 b0 08 2e
        E 8 b0 08 2c
        E 8 b0 08 2b
        E 8 b0 08 2a
        E 8 b0 08 28
        E 8 b0 08 27
        E 8 b0 08 25
        E 8 b0 08 23
        E 8 b0 08 22
        E 8 b0 08 20
        E 8 b0 08 1f
        E 8 b0 08 1d
        E 8 b0 08 1c
        E 8 b0 08 1a
        E 8 b0 08 18
        E 8 b0 08 17
        E 8 b0 08 15
        E 8 b0 08 14
        E 8 b0 08 13
        E 8 b0 08 11
        E 8 b0 08 10
        E 8 b0 08 0e
        E 8 b0 08 0d
        E 8 b0 08 0c
        E 8 b0 08 0b
        E 8 b0 08 09
        E 8 b0 08 08
        E 8 b0 08 07
        E 8 b0 08 06
        E 8 b0 08 05
        E 8 b0 08 05
        E 8 b0 08 04
        E 8 b0 08 03
        E 8 b0 08 02
        E 8 b0 08 02
        E 8 b0 08 01
        E 8 b0 08 01
        E 8 b0 08 00
        E 8 b0 08 00
        E 8 b0 08 00
        E 8 b0 08 00
        E 8 b0 08 00
        E 8 b0 08 00
        E 8 b0 08 00
        E 8 b0 08 00
        E 8 b0 08 00
        E 8 b0 08 01
        E 8 b0 08 01
        E 8 b0 08 02
        E 8 b0 08 02
        E 8 b0 08 03
        E 8 b0 08 03
        E 8 b0 08 04
        E 8 b0 08 05
        E 8 b0 08 06
        E 8 b0 08 07
        E 8 b0 08 08
        E 8 b0 08 09
        E 8 b0 08 0a
        E 8 b0 08 0b
        E 8 b0 08 0c
        E 8 b0 08 0e
        E 8 b0 08 0f
        E 8 b0 08 10
        E 8 b0 08 12
        E 8 b0 08 13
        E 8 b0 08 15
        E 8 b0 08 16
        E 8 b0 08 18
        E 8 b0 08 19
        E 8 b0 08 1b
        E 8 b0 08 1c
        E 8 b0 08 1e
        E 8 b0 08 20
        E 17 b0 08 2c
        E 17 b0 08 2e
        E 17 b0 08 31
        E 17 b0 08 33
        E 17 b0 08 35
        E 17 b0 08 37
        E 17 b0 08 39
        E 17 b0 08 3b
        E 17 b0 08 3d
        E 17 b0 08 3f
        E 17 b0 08 41
        E 17 b0 08 43
        E 17 b0 08 45
        E 17 b0 08 47
        E 17 b0 08 48
        E 17 b0 08 4a
        E 17 b0 08 4c
        E 17 b0 08 4d
        E 17 b0 08 4f
        E 17 b0 08 50
        E 17 b0 08 51
        E 17 b0 08 52
        E 17 b0 08 54
        E 17 b0 08 54
        E 17 b0 08 55
        E 17 b0 08 56
        E 17 b0 08 56
        E 17 b0 08 57
        E 17 b0 08 58
        E 17 b0 08 58
        E 17 b0 08 58
        E 17 b0 08 58
        E 17 b0 08 58
        E 17 b0 08 58
        E 17 b0 08 58
        E 17 b0 08 58
        E 17 b0 08 58
        E 17 b0 08 57
        E 17 b0 08 56
        E 17 b0 08 56
        E 17 b0 08 55
        E 17 b0 08 54
        E 17 b0 08 53
        E 17 b0 08 51
        E 17 b0 08 51
        E 17 b0 08 4f
        E 17 b0 08 4e
        E 17 b0 08 4d
        E 17 b0 08 4b
        E 17 b0 08 49
        E 17 b0 08 48
        E 17 b0 08 46
        E 17 b0 08 44
        E 17 b0 08 42
        E 17 b0 08 40
        E 17 b0 08 3e
        E 17 b0 08 3c
        E 17 b0 08 3a
        E 17 b0 08 38
        E 17 b0 08 36
        E 17 b0 08 33
        E 17 b0 08 31
        E 17 b0 08 2f
        E 17 b0 08 2d
        E 17 b0 08 2b
        E 17 b0 08 29
        E 17 b0 08 27
        E 17 b0 08 25
        E 17 b0 08 22
        E 17 b0 08 20
        E 17 b0 08 1e
        E 17 b0 08 1c
        E 17 b0 08 1a
        E 17 b0 08 18
        E 17 b0 08 16
        E 17 b0 08 14
        E 17 b0 08 12
        E 17 b0 08 10
        E 17 b0 08 0f
        E 17 b0 08 0d
        E 17 b0 08 0b
        E 17 b0 08 0a
        E 17 b0 08 09
        E 17 b0 08 07
        E 17 b0 08 07
        E 17 b0 08 05
        E 17 b0 08 04
        E 17 b0 08 03
        E 17 b0 08 02
        E 17 b0 08 02
        E 17 b0 08 01
        E 17 b0 08 00
        E 17 b0 08 00
        E 17 b0 08 00
        E 17 b0 08 00
        E 17 b0 08 00
        E 17 b0 08 00
        E 17 b0 08 00
        E 17 b0 08 00
        E 17 b0 08 00
        E 17 b0 08 01
        E 17 b0 08 02
        E 17 b0 08 02
        E 17 b0 08 03
        E 17 b0 08 04
        E 17 b0 08 04
        E 17 b0 08 06
        E 17 b0 08 07
        E 17 b0 08 08
        E 17 b0 08 09
        E 17 b0 08 0b
        E 17 b0 08 0c
        E 17 b0 08 0e
        E 17 b0 08 10
        E 17 b0 08 11
        E 17 b0 08 13
        E 17 b0 08 15
        E 17 b0 08 17
        E 17 b0 08 19
        E 17 b0 08 1b
        E 17 b0 08 1d
        E 17 b0 08 1f
        E 17 b0 08 21
        E 17 b0 08 23
        E 17 b0 08 25
        E 17 b0 08 27
        E 17 b0 08 2a
        E 17 b0 08 2c
        E 15 b0 08 33
        E 15 b0 08 35
        E 15 b0 08 37
        E 15 b0 08 3a
        E 15 b0 08 3c
        E 15 b0 08 3f
        E 15 b0 08 41
        E 15 b0 08 44
        E 15 b0 08 46
        E 15 b0 08 48
        E 15 b0 08 4b
        E 15 b0 08 4c
        E 15 b0 08 4f
        E 15 b0 08 51
        E 15 b0 08 53
        E 15 b0 08 54
        E 15 b0 08 57
        E 15 b0 08 58
        E 15 b0 08 5a
        E 15 b0 08 5b
        E 15 b0 08 5d
        E 15 b0 08 5e
        E 15 b0 08 5f
        E 15 b0 08 60
        E 15 b0 08 61
        E 15 b0 08 62
        E 15 b0 08 63
        E 15 b0 08 63
        E 15 b0 08 64
        E 15 b0 08 64
        E 15 b0 08 65
        E 15 b0 08 65
        E 15 b0 08 65
        E 15 b0 08 65
        E 15 b0 08 65
        E 15 b0 08 64
        E 15 b0 08 64
        E 15 b0 08 63
        E 15 b0 08 63
        E 15 b0 08 62
        E 15 b0 08 61
        E 15 b0 08 5f
        E 15 b0 08 5f
        E 15 b0 08 5d
        E 15 b0 08 5c
        E 15 b0 08 5b
        E 15 b0 08 59
        E 15 b0 08 57
        E 15 b0 08 56
        E 15 b0 08 54
        E 15 b0 08 52
        E 15 b0 08 50
        E 15 b0 08 4e
        E 15 b0 08 4c
        E 15 b0 08 49
        E 15 b0 08 47
        E 15 b0 08 45
        E 15 b0 08 43
        E 15 b0 08 40
        E 15 b0 08 3e
        E 15 b0 08 3b
        E 15 b0 08 38
        E 15 b0 08 36
        E 15 b0 08 33
        E 15 b0 08 31
        E 15 b0 08 2f
        E 15 b0 08 2c
        E 15 b0 08 2a
        E 15 b0 08 27
        E 15 b0 08 24
        E 15 b0 08 22
        E 15 b0 08 1f
        E 15 b0 08 1e
        E 15 b0 08 1b
        E 15 b0 08 19
        E 15 b0 08 17
        E 15 b0 08 15
        E 15 b0 08 13
        E 15 b0 08 11
        E 15 b0 08 0f
        E 15 b0 08 0d
        E 15 b0 08 0b
        E 15 b0 08 0a
        E 15 b0 08 08
        E 15 b0 08 07
        E 15 b0 08 06
        E 15 b0 08 05
        E 15 b0 08 03
        E 15 b0 08 03
        E 15 b0 08 02
        E 15 b0 08 01
        E 15 b0 08 00
        E 15 b0 08 00
        E 15 b0 08 00
        E 15 b0 08 00
        E 15 b0 08 00
        E 15 b0 08 00
        E 15 b0 08 00
        E 15 b0 08 00
        E 15 b0 08 00
        E 15 b0 08 01
        E 15 b0 08 02
        E 15 b0 08 03
        E 15 b0 08 03
        E 15 b0 08 04
        E 15 b0 08 05
        E 15 b0 08 07
        E 15 b0 08 07
        E 15 b0 08 09
        E 15 b0 08 0b
        E 15 b0 08 0c
        E 15 b0 08 0e
        E 15 b0 08 10
        E 15 b0 08 12
        E 15 b0 08 14
        E 15 b0 08 16
        E 15 b0 08 18
        E 15 b0 08 1a
        E 15 b0 08 1c
        E 15 b0 08 1f
        E 15 b0 08 21
        E 15 b0 08 24
        E 15 b0 08 26
        E 15 b0 08 28
        E 15 b0 08 2b
        E 15 b0 08 2d
        E 15 b0 08 2f
        E 15 b0 08 33
        E 17 b0 08 06
        E 17 b0 08 06
        E 17 b0 08 07
        E 17 b0 08 07
        E 17 b0 08 07
        E 17 b0 08 07
        E 17 b0 08 08
        E 17 b0 08 08
        E 17 b0 08 08
        E 17 b0 08 09
        E 17 b0 08 09
        E 17 b0 08 09
        E 17 b0 08 09
        E 17 b0 08 0a
        E 17 b0 08 0a
        E 17 b0 08 0a
        E 17 b0 08 0a
        E 17 b0 08 0b
        E 17 b0 08 0b
        E 17 b0 08 0b
        E 17 b0 08 0b
        E 17 b0 08 0b
        E 17 b0 08 0c
        E 17 b0 08 0c
        E 17 b0 08 0c
        E 17 b0 08 0c
        E 17 b0 08 0c
        E 17 b0 08 0c
        E 17 b0 08 0c
        E 17 b0 08 0c
        E 17 b0 08 0c
        E 17 b0 08 0c
        E 17 b0 08 0c
        E 17 b0 08 0c
        E 17 b0 08 0c
        E 17 b0 08 0c
        E 17 b0 08 0c
        E 17 b0 08 0c
        E 17 b0 08 0c
        E 17 b0 08 0c
        E 17 b0 08 0c
        E 17 b0 08 0c
        E 17 b0 08 0b
        E 17 b0 08 0b
        E 17 b0 08 0b
        E 17 b0 08 0b
        E 17 b0 08 0b
        E 17 b0 08 0b
        E 17 b0 08 0a
        E 17 b0 08 0a
        E 17 b0 08 0a
        E 17 b0 08 0a
        E 17 b0 08 09
        E 17 b0 08 09
        E 17 b0 08 09
        E 17 b0 08 08
        E 17 b0 08 08
        E 17 b0 08 08
        E 17 b0 08 08
        E 17 b0 08 07
        E 17 b0 08 07
        E 17 b0 08 07
        E 17 b0 08 06
        E 17 b0 08 06
        E 17 b0 08 06
        E 17 b0 08 05
        E 17 b0 08 05
        E 17 b0 08 05
        E 17 b0 08 04
        E 17 b0 08 04
        E 17 b0 08 04
        E 17 b0 08 04
        E 17 b0 08 03
        E 17 b0 08 03
        E 17 b0 08 03
        E 17 b0 08 02
        E 17 b0 08 02
        E 17 b0 08 02
        E 17 b0 08 02
        E 17 b0 08 01
        E 17 b0 08 01
        E 17 b0 08 01
        E 17 b0 08 01
        E 17 b0 08 01
        E 17 b0 08 01
        E 17 b0 08 00
        E 17 b0 08 00
        E 17 b0 08 00
        E 17 b0 08 00
        E 17 b0 08 00
        E 17 b0 08 00
        E 17 b0 08 00
        E 17 b0 08 00
        E 17 b0 08 00
        E 17 b0 08 00
        E 17 b0 08 00
        E 17 b0 08 00
        E 17 b0 08 00
        E 17 b0 08 00
        E 17 b0 08 00
        E 17 b0 08 00
        E 17 b0 08 00
        E 17 b0 08 00
        E 17 b0 08 00
        E 17 b0 08 00
        E 17 b0 08 00
        E 17 b0 08 00
        E 17 b0 08 01
        E 17 b0 08 01
        E 17 b0 08 01
        E 17 b0 08 01
        E 17 b0 08 01
        E 17 b0 08 02
        E 17 b0 08 02
        E 17 b0 08 02
        E 17 b0 08 02
        E 17 b0 08 03
        E 17 b0 08 03
        E 17 b0 08 03
        E 17 b0 08 03
        E 17 b0 08 04
        E 17 b0 08 04
        E 17 b0 08 04
        E 17 b0 08 05
        E 17 b0 08 05
        E 17 b0 08 05
        E 17 b0 08 06
        E 17 b0 08 06
        E 15 b0 08 19
        E 15 b0 08 1a
        E 15 b0 08 1c
        E 15 b0 08 1d
        E 15 b0 08 1e
        E 15 b0 08 1f
        E 15 b0 08 20
        E 15 b0 08 22
        E 15 b0 08 23
        E 15 b0 08 24
        E 15 b0 08 25
        E 15 b0 08 26
        E 15 b0 08 27
        E 15 b0 08 28
        E 15 b0 08 29
        E 15 b0 08 2a
        E 15 b0 08 2b
        E 15 b0 08 2c
        E 15 b0 08 2d
        E 15 b0 08 2e
        E 15 b0 08 2e
        E 15 b0 08 2f
        E 15 b0 08 30
        E 15 b0 08 30
        E 15 b0 08 30
        E 15 b0 08 31
        E 15 b0 08 31
        E 15 b0 08 32
        E 15 b0 08 32
        E 15 b0 08 32
        E 15 b0 08 32
        E 15 b0 08 32
        E 15 b0 08 32
        E 15 b0 08 32
        E 15 b0 08 32
        E 15 b0 08 32
        E 15 b0 08 32
        E 15 b0 08 32
        E 15 b0 08 31
        E 15 b0 08 31
        E 15 b0 08 30
        E 15 b0 08 30
        E 15 b0 08 2f
        E 15 b0 08 2e
        E 15 b0 08 2e
        E 15 b0 08 2d
        E 15 b0 08 2c
        E 15 b0 08 2c
        E 15 b0 08 2b
        E 15 b0 08 2a
        E 15 b0 08 29
        E 15 b0 08 28
        E 15 b0 08 27
        E 15 b0 08 26
        E 15 b0 08 24
        E 15 b0 08 23
        E 15 b0 08 22
        E 15 b0 08 21
        E 15 b0 08 20
        E 15 b0 08 1f
        E 15 b0 08 1d
        E 15 b0 08 1c
        E 15 b0 08 1b
        E 15 b0 08 1a
        E 15 b0 08 18
        E 15 b0 08 17
        E 15 b0 08 16
        E 15 b0 08 15
        E 15 b0 08 13
        E 15 b0 08 12
        E 15 b0 08 11
        E 15 b0 08 10
        E 15 b0 08 0f
        E 15 b0 08 0e
        E 15 b0 08 0c
        E 15 b0 08 0b
        E 15 b0 08 0a
        E 15 b0 08 09
        E 15 b0 08 08
        E 15 b0 08 07
        E 15 b0 08 06
        E 15 b0 08 06
        E 15 b0 08 05
        E 15 b0 08 04
        E 15 b0 08 04
        E 15 b0 08 03
        E 15 b0 08 02
        E 15 b0 08 02
        E 15 b0 08 01
        E 15 b0 08 01
        E 15 b0 08 00
        E 15 b0 08 00
        E 15 b0 08 00
        E 15 b0 08 00
        E 15 b0 08 00
        E 15 b0 08 00
        E 15 b0 08 00
        E 15 b0 08 00
        E 15 b0 08 00
        E 15 b0 08 00
        E 15 b0 08 00
        E 15 b0 08 01
        E 15 b0 08 01
        E 15 b0 08 02
        E 15 b0 08 02
        E 15 b0 08 02
        E 15 b0 08 03
        E 15 b0 08 04
        E 15 b0 08 04
        E 15 b0 08 05
        E 15 b0 08 06
        E 15 b0 08 07
        E 15 b0 08 08
        E 15 b0 08 09
        E 15 b0 08 0a
        E 15 b0 08 0b
        E 15 b0 08 0c
        E 15 b0 08 0d
        E 15 b0 08 0e
        E 15 b0 08 0f
        E 15 b0 08 10
        E 15 b0 08 12
        E 15 b0 08 13
        E 15 b0 08 14
        E 15 b0 08 15
        E 15 b0 08 16
        E 15 b0 08 18
        E 15 b0 08 19
        E 8 b0 08 2c
        E 8 b0 08 2e
        E 8 b0 08 31
        E 8 b0 08 33
        E 8 b0 08 35
        E 8 b0 08 37
        E 8 b0 08 39
        E 8 b0 08 3b
        E 8 b0 08 3d
        E 8 b0 08 3f
        E 8 b0 08 41
        E 8 b0 08 43
        E 8 b0 08 45
        E 8 b0 08 47
        E 8 b0 08 48
        E 8 b0 08 4a
        E 8 b0 08 4c
        E 8 b0 08 4d
        E 8 b0 08 4f
        E 8 b0 08 50
        E 8 b0 08 51
        E 8 b0 08 52
        E 8 b0 08 54
        E 8 b0 08 54
        E 8 b0 08 55
        E 8 b0 08 56
        E 8 b0 08 56
        E 8 b0 08 57
        E 8 b0 08 58
        E 8 b0 08 58
        E 8 b0 08 58
        E 8 b0 08 58
        E 8 b0 08 58
        E 8 b0 08 58
        E 8 b0 08 58
        E 8 b0 08 58
        E 8 b0 08 58
        E 8 b0 08 57
        E 8 b0 08 56
        E 8 b0 08 56
        E 8 b0 08 55
        E 8 b0 08 54
        E 8 b0 08 53
        E 8 b0 08 51
        E 8 b0 08 51
        E 8 b0 08 4f
        E 8 b0 08 4e
        E 8 b0 08 4d
        E 8 b0 08 4b
        E 8 b0 08 49
        E 8 b0 08 48
        E 8 b0 08 46
        E 8 b0 08 44
        E 8 b0 08 42
        E 8 b0 08 40
        E 8 b0 08 3e
        E 8 b0 08 3c
        E 8 b0 08 3a
        E 8 b0 08 38
        E 8 b0 08 36
        E 8 b0 08 33
        E 8 b0 08 31
        E 8 b0 08 2f
        E 8 b0 08 2d
        E 8 b0 08 2b
        E 8 b0 08 29
        E 8 b0 08 27
        E 8 b0 08 25
        E 8 b0 08 22
        E 8 b0 08 20
        E 8 b0 08 1e
        E 8 b0 08 1c
        E 8 b0 08 1a
        E 8 b0 08 18
        E 8 b0 08 16
        E 8 b0 08 14
        E 8 b0 08 12
        E 8 b0 08 10
        E 8 b0 08 0f
        E 8 b0 08 0d
        E 8 b0 08 0b
        E 8 b0 08 0a
        E 8 b0 08 09
        E 8 b0 08 07
        E 8 b0 08 07
        E 8 b0 08 05
        E 8 b0 08 04
        E 8 b0 08 03
        E 8 b0 08 02
        E 8 b0 08 02
        E 8 b0 08 01
        E 8 b0 08 00
        E 8 b0 08 00
        E 8 b0 08 00
        E 8 b0 08 00
        E 8 b0 08 00
        E 8 b0 08 00
        E 8 b0 08 00
        E 8 b0 08 00
        E 8 b0 08 00
        E 8 b0 08 01
        E 8 b0 08 02
        E 8 b0 08 02
        E 8 b0 08 03
        E 8 b0 08 04
        E 8 b0 08 04
        E 8 b0 08 06
        E 8 b0 08 07
        E 8 b0 08 08
        E 8 b0 08 09
        E 8 b0 08 0b
        E 8 b0 08 0c
        E 8 b0 08 0e
        E 8 b0 08 10
        E 8 b0 08 11
        E 8 b0 08 13
        E 8 b0 08 15
        E 8 b0 08 17
        E 8 b0 08 19
        E 8 b0 08 1b
        E 8 b0 08 1d
        E 8 b0 08 1f
        E 8 b0 08 21
        E 8 b0 08 23
        E 8 b0 08 25
        E 8 b0 08 27
        E 8 b0 08 2a
        E 8 b0 08 2c
        E 8 b0 08 20
        E 8 b0 08 21
        E 8 b0 08 23
        E 8 b0 08 24
        E 8 b0 08 26
        E 8 b0 08 27
        E 8 b0 08 29
        E 8 b0 08 2a
        E 8 b0 08 2c
        E 8 b0 08 2d
        E 8 b0 08 2f
        E 8 b0 08 30
        E 8 b0 08 31
        E 8 b0 08 33
        E 8 b0 08 34
        E 8 b0 08 35
        E 8 b0 08 36
        E 8 b0 08 37
        E 8 b0 08 38
        E 8 b0 08 39
        E 8 b0 08 3a
        E 8 b0 08 3b
        E 8 b0 08 3c
        E 8 b0 08 3c
        E 8 b0 08 3d
        E 8 b0 08 3d
        E 8 b0 08 3e
        E 8 b0 08 3e
        E 8 b0 08 3f
        E 8 b0 08 3f
        E 8 b0 08 3f
        E 8 b0 08 3f
        E 8 b0 08 3f
        E 8 b0 08 3f
        E 8 b0 08 3f
        E 8 b0 08 3f
        E 8 b0 08 3f
        E 8 b0 08 3e
        E 8 b0 08 3e
        E 8 b0 08 3d
        E 8 b0 08 3d
        E 8 b0 08 3c
        E 8 b0 08 3b
        E 8 b0 08 3a
        E 8 b0 08 3a
        E 8 b0 08 39
        E 8 b0 08 38
        E 8 b0 08 37
        E 8 b0 08 36
        E 8 b0 08 34
        E 8 b0 08 33
        E 8 b0 08 32
        E 8 b0 08 31
        E 8 b0 08 2f
        E 8 b0 08 2e
        E 8 b0 08 2c
        E 8 b0 08 2b
        E 8 b0 08 2a
        E 8 b0 08 28
        E 8 b0 08 27
        E 8 b0 08 25
        E 8 b0 08 23
        E 8 b0 08 22
        E 8 b0 08 20
        E 8 b0 08 1f
        E 8 b0 08 1d
        E 8 b0 08 1c
        E 8 b0 08 1a
        E 8 b0 08 18
        E 8 b0 08 17
        E 8 b0 08 15
        E 8 b0 08 14
        E 8 b0 08 13
        E 8 b0 08 11
        E 8 b0 08 10
        E 8 b0 08 0e
        E 8 b0 08 0d
        E 8 b0 08 0c
        E 8 b0 08 0b
        E 8 b0 08 09
        E 8 b0 08 08
        E 8 b0 08 07
        E 8 b0 08 06
        E 8 b0 08 05
        E 8 b0 08 05
        E 8 b0 08 04
        E 8 b0 08 03
        E 8 b0 08 02
        E 8 b0 08 02
        E 8 b0 08 01
        E 8 b0 08 01
        E 8 b0 08 00
        E 8 b0 08 00
        E 8 b0 08 00
        E 8 b0 08 00
        E 8 b0 08 00
        E 8 b0 08 00
        E 8 b0 08 00
        E 8 b0 08 00
        E 8 b0 08 00
        E 8 b0 08 01
        E 8 b0 08 01
        E 8 b0 08 02
        E 8 b0 08 02
        E 8 b0 08 03
        E 8 b0 08 03
        E 8 b0 08 04
        E 8 b0 08 05
        E 8 b0 08 06
        E 8 b0 08 07
        E 8 b0 08 08
        E 8 b0 08 09
        E 8 b0 08 0a
        E 8 b0 08 0b
        E 8 b0 08 0c
        E 8 b0 08 0e
        E 8 b0 08 0f
        E 8 b0 08 10
        E 8 b0 08 12
        E 8 b0 08 13
        E 8 b0 08 15
        E 8 b0 08 16
        E 8 b0 08 18
        E 8 b0 08 19
        E 8 b0 08 1b
        E 8 b0 08 1c
        E 8 b0 08 1e
        E 8 b0 08 20
        E 11 b0 08 20
        E 11 b0 08 21
        E 11 b0 08 23
        E 11 b0 08 24
        E 11 b0 08 26
        E 11 b0 08 27
        E 11 b0 08 29
        E 11 b0 08 2a
        E 11 b0 08 2c
        E 11 b0 08 2d
        E 11 b0 08 2f
        E 11 b0 08 30
        E 11 b0 08 31
        E 11 b0 08 33
        E 11 b0 08 34
        E 11 b0 08 35
        E 11 b0 08 36
        E 11 b0 08 37
        E 11 b0 08 38
        E 11 b0 08 39
        E 11 b0 08 3a
        E 11 b0 08 3b
        E 11 b0 08 3c
        E 11 b0 08 3c
        E 11 b0 08 3d
        E 11 b0 08 3d
        E 11 b0 08 3e
        E 11 b0 08 3e
        E 11 b0 08 3f
        E 11 b0 08 3f
        E 11 b0 08 3f
        E 11 b0 08 3f
        E 11 b0 08 3f
        E 11 b0 08 3f
        E 11 b0 08 3f
        E 11 b0 08 3f
        E 11 b0 08 3f
        E 11 b0 08 3e
        E 11 b0 08 3e
        E 11 b0 08 3d
        E 11 b0 08 3d
        E 11 b0 08 3c
        E 11 b0 08 3b
        E 11 b0 08 3a
        E 11 b0 08 3a
        E 11 b0 08 39
        E 11 b0 08 38
        E 11 b0 08 37
        E 11 b0 08 36
        E 11 b0 08 34
        E 11 b0 08 33
        E 11 b0 08 32
        E 11 b0 08 31
        E 11 b0 08 2f
        E 11 b0 08 2e
        E 11 b0 08 2c
        E 11 b0 08 2b
        E 11 b0 08 2a
        E 11 b0 08 28
        E 11 b0 08 27
        E 11 b0 08 25
        E 11 b0 08 23
        E 11 b0 08 22
        E 11 b0 08 20
        E 11 b0 08 1f
        E 11 b0 08 1d
        E 11 b0 08 1c
        E 11 b0 08 1a
        E 11 b0 08 18
        E 11 b0 08 17
        E 11 b0 08 15
        E 11 b0 08 14
        E 11 b0 08 13
        E 11 b0 08 11
        E 11 b0 08 10
        E 11 b0 08 0e
        E 11 b0 08 0d
        E 11 b0 08 0c
        E 11 b0 08 0b
        E 11 b0 08 09
        E 11 b0 08 08
        E 11 b0 08 07
        E 11 b0 08 06
        E 11 b0 08 05
        E 11 b0 08 05
        E 11 b0 08 04
        E 11 b0 08 03
        E 11 b0 08 02
        E 11 b0 08 02
        E 11 b0 08 01
        E 11 b0 08 01
        E 11 b0 08 00
        E 11 b0 08 00
        E 11 b0 08 00
        E 11 b0 08 00
        E 11 b0 08 00
        E 11 b0 08 00
        E 11 b0 08 00
        E 11 b0 08 00
        E 11 b0 08 00
        E 11 b0 08 01
        E 11 b0 08 01
        E 11 b0 08 02
        E 11 b0 08 02
        E 11 b0 08 03
        E 11 b0 08 03
        E 11 b0 08 04
        E 11 b0 08 05
        E 11 b0 08 06
        E 11 b0 08 07
        E 11 b0 08 08
        E 11 b0 08 09
        E 11 b0 08 0a
        E 11 b0 08 0b
        E 11 b0 08 0c
        E 11 b0 08 0e
        E 11 b0 08 0f
        E 11 b0 08 10
        E 11 b0 08 12
        E 11 b0 08 13
        E 11 b0 08 15
        E 11 b0 08 16
        E 11 b0 08 18
        E 11 b0 08 19
        E 11 b0 08 1b
        E 11 b0 08 1c
        E 11 b0 08 1e
        E 11 b0 08 20
        E 13 b0 08 40
        E 13 b0 08 43
        E 13 b0 08 46
        E 13 b0 08 49
        E 13 b0 08 4c
        E 13 b0 08 4f
        E 13 b0 08 52
        E 13 b0 08 55
        E 13 b0 08 58
        E 13 b0 08 5b
        E 13 b0 08 5e
        E 13 b0 08 60
        E 13 b0 08 63
        E 13 b0 08 66
        E 13 b0 08 68
        E 13 b0 08 6a
        E 13 b0 08 6d
        E 13 b0 08 6f
        E 13 b0 08 71
        E 13 b0 08 73
        E 13 b0 08 75
        E 13 b0 08 76
        E 13 b0 08 78
        E 13 b0 08 79
        E 13 b0 08 7a
        E 13 b0 08 7b
        E 13 b0 08 7c
        E 13 b0 08 7d
        E 13 b0 08 7e
        E 13 b0 08 7e
        E 13 b0 08 7f
        E 13 b0 08 7f
        E 13 b0 08 7f
        E 13 b0 08 7f
        E 13 b0 08 7f
        E 13 b0 08 7e
        E 13 b0 08 7e
        E 13 b0 08 7d
        E 13 b0 08 7c
        E 13 b0 08 7b
        E 13 b0 08 7a
        E 13 b0 08 78
        E 13 b0 08 77
        E 13 b0 08 75
        E 13 b0 08 74
        E 13 b0 08 72
        E 13 b0 08 70
        E 13 b0 08 6e
        E 13 b0 08 6c
        E 13 b0 08 69
        E 13 b0 08 67
        E 13 b0 08 64
        E 13 b0 08 62
        E 13 b0 08 5f
        E 13 b0 08 5c
        E 13 b0 08 59
        E 13 b0 08 57
        E 13 b0 08 54
        E 13 b0 08 51
        E 13 b0 08 4e
        E 13 b0 08 4a
        E 13 b0 08 47
        E 13 b0 08 44
        E 13 b0 08 41
        E 13 b0 08 3e
        E 13 b0 08 3b
        E 13 b0 08 38
        E 13 b0 08 35
        E 13 b0 08 31
        E 13 b0 08 2e
        E 13 b0 08 2b
        E 13 b0 08 28
        E 13 b0 08 26
        E 13 b0 08 23
        E 13 b0 08 20
        E 13 b0 08 1d
        E 13 b0 08 1b
        E 13 b0 08 18
        E 13 b0 08 16
        E 13 b0 08 13
        E 13 b0 08 11
        E 13 b0 08 0f
        E 13 b0 08 0d
        E 13 b0 08 0b
        E 13 b0 08 0a
        E 13 b0 08 08
        E 13 b0 08 07
        E 13 b0 08 05
        E 13 b0 08 04
        E 13 b0 08 03
        E 13 b0 08 02
        E 13 b0 08 01
        E 13 b0 08 01
        E 13 b0 08 00
        E 13 b0 08 00
        E 13 b0 08 00
        E 13 b0 08 00
        E 13 b0 08 00
        E 13 b0 08 01
        E 13 b0 08 01
        E 13 b0 08 02
        E 13 b0 08 03
        E 13 b0 08 04
        E 13 b0 08 05
        E 13 b0 08 06
        E 13 b0 08 07
        E 13 b0 08 09
        E 13 b0 08 0a
        E 13 b0 08 0c
        E 13 b0 08 0e
        E 13 b0 08 10
        E 13 b0 08 12
        E 13 b0 08 15
        E 13 b0 08 17
        E 13 b0 08 19
        E 13 b0 08 1c
        E 13 b0 08 1f
        E 13 b0 08 21
        E 13 b0 08 24
        E 13 b0 08 27
        E 13 b0 08 2a
        E 13 b0 08 2d
        E 13 b0 08 30
        E 13 b0 08 33
        E 13 b0 08 36
        E 13 b0 08 39
        E 13 b0 08 3c
        E 13 b0 08 40
        E 11 b0 08 39
        E 11 b0 08 3c
        E 11 b0 08 3f
        E 11 b0 08 41
        E 11 b0 08 44
        E 11 b0 08 47
        E 11 b0 08 49
        E 11 b0 08 4c
        E 11 b0 08 4f
        E 11 b0 08 51
        E 11 b0 08 54
        E 11 b0 08 56
        E 11 b0 08 59
        E 11 b0 08 5b
        E 11 b0 08 5d
        E 11 b0 08 5f
        E 11 b0 08 62
        E 11 b0 08 63
        E 11 b0 08 65
        E 11 b0 08 67
        E 11 b0 08 69
        E 11 b0 08 6a
        E 11 b0 08 6c
        E 11 b0 08 6c
        E 11 b0 08 6d
        E 11 b0 08 6e
        E 11 b0 08 6f
        E 11 b0 08 70
        E 11 b0 08 71
        E 11 b0 08 71
        E 11 b0 08 72
        E 11 b0 08 72
        E 11 b0 08 72
        E 11 b0 08 72
        E 11 b0 08 72
        E 11 b0 08 71
        E 11 b0 08 71
        E 11 b0 08 70
        E 11 b0 08 6f
        E 11 b0 08 6e
        E 11 b0 08 6d
        E 11 b0 08 6c
        E 11 b0 08 6b
        E 11 b0 08 69
        E 11 b0 08 68
        E 11 b0 08 66
        E 11 b0 08 64
        E 11 b0 08 63
        E 11 b0 08 61
        E 11 b0 08 5e
        E 11 b0 08 5c
        E 11 b0 08 5a
        E 11 b0 08 58
        E 11 b0 08 55
        E 11 b0 08 52
        E 11 b0 08 50
        E 11 b0 08 4e
        E 11 b0 08 4b
        E 11 b0 08 48
        E 11 b0 08 46
        E 11 b0 08 42
        E 11 b0 08 3f
        E 11 b0 08 3d
        E 11 b0 08 3a
        E 11 b0 08 37
        E 11 b0 08 35
        E 11 b0 08 32
        E 11 b0 08 2f
        E 11 b0 08 2c
        E 11 b0 08 29
        E 11 b0 08 26
        E 11 b0 08 24
        E 11 b0 08 22
        E 11 b0 08 1f
        E 11 b0 08 1c
        E 11 b0 08 1a
        E 11 b0 08 18
        E 11 b0 08 15
        E 11 b0 08 13
        E 11 b0 08 11
        E 11 b0 08 0f
        E 11 b0 08 0d
        E 11 b0 08 0b
        E 11 b0 08 09
        E 11 b0 08 09
        E 11 b0 08 07
        E 11 b0 08 06
        E 11 b0 08 04
        E 11 b0 08 03
        E 11 b0 08 02
        E 11 b0 08 01
        E 11 b0 08 00
        E 11 b0 08 00
        E 11 b0 08 00
        E 11 b0 08 00
        E 11 b0 08 00
        E 11 b0 08 00
        E 11 b0 08 00
        E 11 b0 08 00
        E 11 b0 08 00
        E 11 b0 08 01
        E 11 b0 08 02
        E 11 b0 08 03
        E 11 b0 08 04
        E 11 b0 08 05
        E 11 b0 08 06
        E 11 b0 08 08
        E 11 b0 08 09
        E 11 b0 08 0a
        E 11 b0 08 0c
        E 11 b0 08 0e
        E 11 b0 08 10
        E 11 b0 08 12
        E 11 b0 08 14
        E 11 b0 08 16
        E 11 b0 08 19
        E 11 b0 08 1b
        E 11 b0 08 1d
        E 11 b0 08 20
        E 11 b0 08 23
        E 11 b0 08 25
        E 11 b0 08 28
        E 11 b0 08 2b
        E 11 b0 08 2d
        E 11 b0 08 30
        E 11 b0 08 33
        E 11 b0 08 36
        E 11 b0 08 39
        E 8 b0 08 20
        E 8 b0 08 21
        E 8 b0 08 23
        E 8 b0 08 24
        E 8 b0 08 26
        E 8 b0 08 27
        E 8 b0 08 29
        E 8 b0 08 2a
        E 8 b0 08 2c
        E 8 b0 08 2d
        E 8 b0 08 2f
        E 8 b0 08 30
        E 8 b0 08 31
        E 8 b0 08 33
        E 8 b0 08 34
        E 8 b0 08 35
        E 8 b0 08 36
        E 8 b0 08 37
        E 8 b0 08 38
        E 8 b0 08 39
        E 8 b0 08 3a
        E 8 b0 08 3b
        E 8 b0 08 3c
        E 8 b0 08 3c
        E 8 b0 08 3d
        E 8 b0 08 3d
        E 8 b0 08 3e
        E 8 b0 08 3e
        E 8 b0 08 3f
        E 8 b0 08 3f
        E 8 b0 08 3f
        E 8 b0 08 3f
        E 8 b0 08 3f
        E 8 b0 08 3f
        E 8 b0 08 3f
        E 8 b0 08 3f
        E 8 b0 08 3f
        E 8 b0 08 3e
        E 8 b0 08 3e
        E 8 b0 08 3d
        E 8 b0 08 3d
        E 8 b0 08 3c
        E 8 b0 08 3b
        E 8 b0 08 3a
        E 8 b0 08 3a
        E 8 b0 08 39
        E 8 b0 08 38
        E 8 b0 08 37
        E 8 b0 08 36
        E 8 b0 08 34
        E 8 b0 08 33
        E 8 b0 08 32
        E 8 b0 08 31
        E 8 b0 08 2f
        E 8 b0 08 2e
        E 8 b0 08 2c
        E 8 b0 08 2b
        E 8 b0 08 2a
        E 8 b0 08 28
        E 8 b0 08 27
        E 8 b0 08 25
        E 8 b0 08 23
        E 8 b0 08 22
        E 8 b0 08 20
        E 8 b0 08 1f
        E 8 b0 08 1d
        E 8 b0 08 1c
        E 8 b0 08 1a
        E 8 b0 08 18
        E 8 b0 08 17
        E 8 b0 08 15
        E 8 b0 08 14
        E 8 b0 08 13
        E 8 b0 08 11
        E 8 b0 08 10
        E 8 b0 08 0e
        E 8 b0 08 0d
        E 8 b0 08 0c
        E 8 b0 08 0b
        E 8 b0 08 09
        E 8 b0 08 08
        E 8 b0 08 07
        E 8 b0 08 06
        E 8 b0 08 05
        E 8 b0 08 05
        E 8 b0 08 04
        E 8 b0 08 03
        E 8 b0 08 02
        E 8 b0 08 02
        E 8 b0 08 01
        E 8 b0 08 01
        E 8 b0 08 00
        E 8 b0 08 00
        E 8 b0 08 00
        E 8 b0 08 00
        E 8 b0 08 00
        E 8 b0 08 00
        E 8 b0 08 00
        E 8 b0 08 00
        E 8 b0 08 00
        E 8 b0 08 01
        E 8 b0 08 01
        E 8 b0 08 02
        E 8 b0 08 02
        E 8 b0 08 03
        E 8 b0 08 03
        E 8 b0 08 04
        E 8 b0 08 05
        E 8 b0 08 06
        E 8 b0 08 07
        E 8 b0 08 08
        E 8 b0 08 09
        E 8 b0 08 0a
        E 8 b0 08 0b
        E 8 b0 08 0c
        E 8 b0 08 0e
        E 8 b0 08 0f
        E 8 b0 08 10
        E 8 b0 08 12
        E 8 b0 08 13
        E 8 b0 08 15
        E 8 b0 08 16
        E 8 b0 08 18
        E 8 b0 08 19
        E 8 b0 08 1b
        E 8 b0 08 1c
        E 8 b0 08 1e
        E 8 b0 08 20
        E 8 b0 08 20
        E 8 b0 08 21
        E 8 b0 08 23
        E 8 b0 08 24
        E 8 b0 08 26
        E 8 b0 08 27
        E 8 b0 08 29
        E 8 b0 08 2a
        E 8 b0 08 2c
        E 8 b0 08 2d
        E 8 b0 08 2f
        E 8 b0 08 30
        E 8 b0 08 31
        E 8 b0 08 33
        E 8 b0 08 34
        E 8 b0 08 35
        E 8 b0 08 36
        E 8 b0 08 37
        E 8 b0 08 38
        E 8 b0 08 39
        E 8 b0 08 3a
        E 8 b0 08 3b
        E 8 b0 08 3c
        E 8 b0 08 3c
        E 8 b0 08 3d
        E 8 b0 08 3d
        E 8 b0 08 3e
        E 8 b0 08 3e
        E 8 b0 08 3f
        E 8 b0 08 3f
        E 8 b0 08 3f
        E 8 b0 08 3f
        E 8 b0 08 3f
        E 8 b0 08 3f
        E 8 b0 08 3f
        E 8 b0 08 3f
        E 8 b0 08 3f
        E 8 b0 08 3e
        E 8 b0 08 3e
        E 8 b0 08 3d
        E 8 b0 08 3d
        E 8 b0 08 3c
        E 8 b0 08 3b
        E 8 b0 08 3a
        E 8 b0 08 3a
        E 8 b0 08 39
        E 8 b0 08 38
        E 8 b0 08 37
        E 8 b0 08 36
        E 8 b0 08 34
        E 8 b0 08 33
        E 8 b0 08 32
        E 8 b0 08 31
        E 8 b0 08 2f
        E 8 b0 08 2e
        E 8 b0 08 2c
        E 8 b0 08 2b
        E 8 b0 08 2a
        E 8 b0 08 28
        E 8 b0 08 27
        E 8 b0 08 25
        E 8 b0 08 23
        E 8 b0 08 22
        E 8 b0 08 20
        E 8 b0 08 1f
        E 8 b0 08 1d
        E 8 b0 08 1c
        E 8 b0 08 1a
        E 8 b0 08 18
        E 8 b0 08 17
        E 8 b0 08 15
        E 8 b0 08 14
        E 8 b0 08 13
        E 8 b0 08 11
        E 8 b0 08 10
        E 8 b0 08 0e
        E 8 b0 08 0d
        E 8 b0 08 0c
        E 8 b0 08 0b
        E 8 b0 08 09
        E 8 b0 08 08
        E 8 b0 08 07
        E 8 b0 08 06
        E 8 b0 08 05
        E 8 b0 08 05
        E 8 b0 08 04
        E 8 b0 08 03
        E 8 b0 08 02
        E 8 b0 08 02
        E 8 b0 08 01
        E 8 b0 08 01
        E 8 b0 08 00
        E 8 b0 08 00
        E 8 b0 08 00
        E 8 b0 08 00
        E 8 b0 08 00
        E 8 b0 08 00
        E 8 b0 08 00
        E 8 b0 08 00
        E 8 b0 08 00
        E 8 b0 08 01
        E 8 b0 08 01
        E 8 b0 08 02
        E 8 b0 08 02
        E 8 b0 08 03
        E 8 b0 08 03
        E 8 b0 08 04
        E 8 b0 08 05
        E 8 b0 08 06
        E 8 b0 08 07
        E 8 b0 08 08
        E 8 b0 08 09
        E 8 b0 08 0a
        E 8 b0 08 0b
        E 8 b0 08 0c
        E 8 b0 08 0e
        E 8 b0 08 0f
        E 8 b0 08 10
        E 8 b0 08 12
        E 8 b0 08 13
        E 8 b0 08 15
        E 8 b0 08 16
        E 8 b0 08 18
        E 8 b0 08 19
        E 8 b0 08 1b
        E 8 b0 08 1c
        E 8 b0 08 1e
        E 8 b0 08 20
        E 17 b0 08 2c
        E 17 b0 08 2e
        E 17 b0 08 31
        E 17 b0 08 33
        E 17 b0 08 35
        E 17 b0 08 37
        E 17 b0 08 39
        E 17 b0 08 3b
        E 17 b0 08 3d
        E 17 b0 08 3f
        E 17 b0 08 41
        E 17 b0 08 43
        E 17 b0 08 45
        E 17 b0 08 47
        E 17 b0 08 48
        E 17 b0 08 4a
        E 17 b0 08 4c
        E 17 b0 08 4d
        E 17 b0 08 4f
        E 17 b0 08 50
        E 17 b0 08 51
        E 17 b0 08 52
        E 17 b0 08 54
        E 17 b0 08 54
        E 17 b0 08 55
        E 17 b0 08 56
        E 17 b0 08 56
        E 17 b0 08 57
        E 17 b0 08 58
        E 17 b0 08 58
        E 17 b0 08 58
        E 17 b0 08 58
        E 17 b0 08 58
        E 17 b0 08 58
        E 17 b0 08 58
        E 17 b0 08 58
        E 17 b0 08 58
        E 17 b0 08 57
        E 17 b0 08 56
        E 17 b0 08 56
        E 17 b0 08 55
        E 17 b0 08 54
        E 17 b0 08 53
        E 17 b0 08 51
        E 17 b0 08 51
        E 17 b0 08 4f
        E 17 b0 08 4e
        E 17 b0 08 4d
        E 17 b0 08 4b
        E 17 b0 08 49
        E 17 b0 08 48
        E 17 b0 08 46
        E 17 b0 08 44
        E 17 b0 08 42
        E 17 b0 08 40
        E 17 b0 08 3e
        E 17 b0 08 3c
        E 17 b0 08 3a
        E 17 b0 08 38
        E 17 b0 08 36
        E 17 b0 08 33
        E 17 b0 08 31
        E 17 b0 08 2f
        E 17 b0 08 2d
        E 17 b0 08 2b
        E 17 b0 08 29
        E 17 b0 08 27
        E 17 b0 08 25
        E 17 b0 08 22
        E 17 b0 08 20
        E 17 b0 08 1e
        E 17 b0 08 1c
        E 17 b0 08 1a
        E 17 b0 08 18
        E 17 b0 08 16
        E 17 b0 08 14
        E 17 b0 08 12
        E 17 b0 08 10
        E 17 b0 08 0f
        E 17 b0 08 0d
        E 17 b0 08 0b
        E 17 b0 08 0a
        E 17 b0 08 09
        E 17 b0 08 07
        E 17 b0 08 07
        E 17 b0 08 05
        E 17 b0 08 04
        E 17 b0 08 03
        E 17 b0 08 02
        E 17 b0 08 02
        E 17 b0 08 01
        E 17 b0 08 00
        E 17 b0 08 00
        E 17 b0 08 00
        E 17 b0 08 00
        E 17 b0 08 00
        E 17 b0 08 00
        E 17 b0 08 00
        E 17 b0 08 00
        E 17 b0 08 00
        E 17 b0 08 01
        E 17 b0 08 02
        E 17 b0 08 02
        E 17 b0 08 03
        E 17 b0 08 04
        E 17 b0 08 04
        E 17 b0 08 06
        E 17 b0 08 07
        E 17 b0 08 08
        E 17 b0 08 09
        E 17 b0 08 0b
        E 17 b0 08 0c
        E 17 b0 08 0e
        E 17 b0 08 10
        E 17 b0 08 11
        E 17 b0 08 13
        E 17 b0 08 15
        E 17 b0 08 17
        E 17 b0 08 19
        E 17 b0 08 1b
        E 17 b0 08 1d
        E 17 b0 08 1f
        E 17 b0 08 21
        E 17 b0 08 23
        E 17 b0 08 25
        E 17 b0 08 27
        E 17 b0 08 2a
        E 17 b0 08 2c
        E 15 b0 08 33
        E 15 b0 08 35
        E 15 b0 08 37
        E 15 b0 08 3a
        E 15 b0 08 3c
        E 15 b0 08 3f
        E 15 b0 08 41
        E 15 b0 08 44
        E 15 b0 08 46
        E 15 b0 08 48
        E 15 b0 08 4b
        E 15 b0 08 4c
        E 15 b0 08 4f
        E 15 b0 08 51
        E 15 b0 08 53
        E 15 b0 08 54
        E 15 b0 08 57
        E 15 b0 08 58
        E 15 b0 08 5a
        E 15 b0 08 5b
        E 15 b0 08 5d
        E 15 b0 08 5e
        E 15 b0 08 5f
        E 15 b0 08 60
        E 15 b0 08 61
        E 15 b0 08 62
        E 15 b0 08 63
        E 15 b0 08 63
        E 15 b0 08 64
        E 15 b0 08 64
        E 15 b0 08 65
        E 15 b0 08 65
        E 15 b0 08 65
        E 15 b0 08 65
        E 15 b0 08 65
        E 15 b0 08 64
        E 15 b0 08 64
        E 15 b0 08 63
        E 15 b0 08 63
        E 15 b0 08 62
        E 15 b0 08 61
        E 15 b0 08 5f
        E 15 b0 08 5f
        E 15 b0 08 5d
        E 15 b0 08 5c
        E 15 b0 08 5b
        E 15 b0 08 59
        E 15 b0 08 57
        E 15 b0 08 56
        E 15 b0 08 54
        E 15 b0 08 52
        E 15 b0 08 50
        E 15 b0 08 4e
        E 15 b0 08 4c
        E 15 b0 08 49
        E 15 b0 08 47
        E 15 b0 08 45
        E 15 b0 08 43
        E 15 b0 08 40
        E 15 b0 08 3e
        E 15 b0 08 3b
        E 15 b0 08 38
        E 15 b0 08 36
        E 15 b0 08 33
        E 15 b0 08 31
        E 15 b0 08 2f
        E 15 b0 08 2c
        E 15 b0 08 2a
        E 15 b0 08 27
        E 15 b0 08 24
        E 15 b0 08 22
        E 15 b0 08 1f
        E 15 b0 08 1e
        E 15 b0 08 1b
        E 15 b0 08 19
        E 15 b0 08 17
        E 15 b0 08 15
        E 15 b0 08 13
        E 15 b0 08 11
        E 15 b0 08 0f
        E 15 b0 08 0d
        E 15 b0 08 0b
        E 15 b0 08 0a
        E 15 b0 08 08
        E 15 b0 08 07
        E 15 b0 08 06
        E 15 b0 08 05
        E 15 b0 08 03
        E 15 b0 08 03
        E 15 b0 08 02
        E 15 b0 08 01
        E 15 b0 08 00
        E 15 b0 08 00
        E 15 b0 08 00
        E 15 b0 08 00
        E 15 b0 08 00
        E 15 b0 08 00
        E 15 b0 08 00
        E 15 b0 08 00
        E 15 b0 08 00
        E 15 b0 08 01
        E 15 b0 08 02
        E 15 b0 08 03
        E 15 b0 08 03
        E 15 b0 08 04
        E 15 b0 08 05
        E 15 b0 08 07
        E 15 b0 08 07
        E 15 b0 08 09
        E 15 b0 08 0b
        E 15 b0 08 0c
        E 15 b0 08 0e
        E 15 b0 08 10
        E 15 b0 08 12
        E 15 b0 08 14
        E 15 b0 08 16
        E 15 b0 08 18
        E 15 b0 08 1a
        E 15 b0 08 1c
        E 15 b0 08 1f
        E 15 b0 08 21
        E 15 b0 08 24
        E 15 b0 08 26
        E 15 b0 08 28
        E 15 b0 08 2b
        E 15 b0 08 2d
        E 15 b0 08 2f
        E 15 b0 08 33
        E 17 b0 08 06
        E 17 b0 08 06
        E 17 b0 08 07
        E 17 b0 08 07
        E 17 b0 08 07
        E 17 b0 08 07
        E 17 b0 08 08
        E 17 b0 08 08
        E 17 b0 08 08
        E 17 b0 08 09
        E 17 b0 08 09
        E 17 b0 08 09
        E 17 b0 08 09
        E 17 b0 08 0a
        E 17 b0 08 0a
        E 17 b0 08 0a
        E 17 b0 08 0a
        E 17 b0 08 0b
        E 17 b0 08 0b
        E 17 b0 08 0b
        E 17 b0 08 0b
        E 17 b0 08 0b
        E 17 b0 08 0c
        E 17 b0 08 0c
        E 17 b0 08 0c
        E 17 b0 08 0c
        E 17 b0 08 0c
        E 17 b0 08 0c
        E 17 b0 08 0c
        E 17 b0 08 0c
        E 17 b0 08 0c
        E 17 b0 08 0c
        E 17 b0 08 0c
        E 17 b0 08 0c
        E 17 b0 08 0c
        E 17 b0 08 0c
        E 17 b0 08 0c
        E 17 b0 08 0c
        E 17 b0 08 0c
        E 17 b0 08 0c
        E 17 b0 08 0c
        E 17 b0 08 0c
        E 17 b0 08 0b
        E 17 b0 08 0b
        E 17 b0 08 0b
        E 17 b0 08 0b
        E 17 b0 08 0b
        E 17 b0 08 0b
        E 17 b0 08 0a
        E 17 b0 08 0a
        E 17 b0 08 0a
        E 17 b0 08 0a
        E 17 b0 08 09
        E 17 b0 08 09
        E 17 b0 08 09
        E 17 b0 08 08
        E 17 b0 08 08
        E 17 b0 08 08
        E 17 b0 08 08
        E 17 b0 08 07
        E 17 b0 08 07
        E 17 b0 08 07
        E 17 b0 08 06
        E 17 b0 08 06
        E 17 b0 08 06
        E 17 b0 08 05
        E 17 b0 08 05
        E 17 b0 08 05
        E 17 b0 08 04
        E 17 b0 08 04
        E 17 b0 08 04
        E 17 b0 08 04
        E 17 b0 08 03
        E 17 b0 08 03
        E 17 b0 08 03
        E 17 b0 08 02
        E 17 b0 08 02
        E 17 b0 08 02
        E 17 b0 08 02
        E 17 b0 08 01
        E 17 b0 08 01
        E 17 b0 08 01
        E 17 b0 08 01
        E 17 b0 08 01
        E 17 b0 08 01
        E 17 b0 08 00
        E 17 b0 08 00
        E 17 b0 08 00
        E 17 b0 08 00
        E 17 b0 08 00
        E 17 b0 08 00
        E 17 b0 08 00
        E 17 b0 08 00
        E 17 b0 08 00
        E 17 b0 08 00
        E 17 b0 08 00
        E 17 b0 08 00
        E 17 b0 08 00
        E 17 b0 08 00
        E 17 b0 08 00
        E 17 b0 08 00
        E 17 b0 08 00
        E 17 b0 08 00
        E 17 b0 08 00
        E 17 b0 08 00
        E 17 b0 08 00
        E 17 b0 08 00
        E 17 b0 08 01
        E 17 b0 08 01
        E 17 b0 08 01
        E 17 b0 08 01
        E 17 b0 08 01
        E 17 b0 08 02
        E 17 b0 08 02
        E 17 b0 08 02
        E 17 b0 08 02
        E 17 b0 08 03
        E 17 b0 08 03
        E 17 b0 08 03
        E 17 b0 08 03
        E 17 b0 08 04
        E 17 b0 08 04
        E 17 b0 08 04
        E 17 b0 08 05
        E 17 b0 08 05
        E 17 b0 08 05
        E 17 b0 08 06
        E 17 b0 08 06
        E 15 b0 08 19
        E 15 b0 08 1a
        E 15 b0 08 1c
        E 15 b0 08 1d
        E 15 b0 08 1e
        E 15 b0 08 1f
        E 15 b0 08 20
        E 15 b0 08 22
        E 15 b0 08 23
        E 15 b0 08 24
        E 15 b0 08 25
        E 15 b0 08 26
        E 15 b0 08 27
        E 15 b0 08 28
        E 15 b0 08 29
        E 15 b0 08 2a
        E 15 b0 08 2b
        E 15 b0 08 2c
        E 15 b0 08 2d
        E 15 b0 08 2e
        E 15 b0 08 2e
        E 15 b0 08 2f
        E 15 b0 08 30
        E 15 b0 08 30
        E 15 b0 08 30
        E 15 b0 08 31
        E 15 b0 08 31
        E 15 b0 08 32
        E 15 b0 08 32
        E 15 b0 08 32
        E 15 b0 08 32
        E 15 b0 08 32
        E 15 b0 08 32
        E 15 b0 08 32
        E 15 b0 08 32
        E 15 b0 08 32
        E 15 b0 08 32
        E 15 b0 08 32
        E 15 b0 08 31
        E 15 b0 08 31
        E 15 b0 08 30
        E 15 b0 08 30
        E 15 b0 08 2f
        E 15 b0 08 2e
        E 15 b0 08 2e
        E 15 b0 08 2d
        E 15 b0 08 2c
        E 15 b0 08 2c
        E 15 b0 08 2b
        E 15 b0 08 2a
        E 15 b0 08 29
        E 15 b0 08 28
        E 15 b0 08 27
        E 15 b0 08 26
        E 15 b0 08 24
        E 15 b0 08 23
        E 15 b0 08 22
        E 15 b0 08 21
        E 15 b0 08 20
        E 15 b0 08 1f
        E 15 b0 08 1d
        E 15 b0 08 1c
        E 15 b0 08 1b
        E 15 b0 08 1a
        E 15 b0 08 18
        E 15 b0 08 17
        E 15 b0 08 16
        E 15 b0 08 15
        E 15 b0 08 13
        E 15 b0 08 12
        E 15 b0 08 11
        E 15 b0 08 10
        E 15 b0 08 0f
        E 15 b0 08 0e
        E 15 b0 08 0c
        E 15 b0 08 0b
        E 15 b0 08 0a
        E 15 b0 08 09
        E 15 b0 08 08
        E 15 b0 08 07
        E 15 b0 08 06
        E 15 b0 08 06
        E 15 b0 08 05
        E 15 b0 08 04
        E 15 b0 08 04
        E 15 b0 08 03
        E 15 b0 08 02
        E 15 b0 08 02
        E 15 b0 08 01
        E 15 b0 08 01
        E 15 b0 08 00
        E 15 b0 08 00
        E 15 b0 08 00
        E 15 b0 08 00
        E 15 b0 08 00
        E 15 b0 08 00
        E 15 b0 08 00
        E 15 b0 08 00
        E 15 b0 08 00
        E 15 b0 08 00
        E 15 b0 08 00
        E 15 b0 08 01
        E 15 b0 08 01
        E 15 b0 08 02
        E 15 b0 08 02
        E 15 b0 08 02
        E 15 b0 08 03
        E 15 b0 08 04
        E 15 b0 08 04
        E 15 b0 08 05
        E 15 b0 08 06
        E 15 b0 08 07
        E 15 b0 08 08
        E 15 b0 08 09
        E 15 b0 08 0a
        E 15 b0 08 0b
        E 15 b0 08 0c
        E 15 b0 08 0d
        E 15 b0 08 0e
        E 15 b0 08 0f
        E 15 b0 08 10
        E 15 b0 08 12
        E 15 b0 08 13
        E 15 b0 08 14
        E 15 b0 08 15
        E 15 b0 08 16
        E 15 b0 08 18
        E 15 b0 08 19
        E 8 b0 08 2c
        E 8 b0 08 2e
        E 8 b0 08 31
        E 8 b0 08 33
        E 8 b0 08 35
        E 8 b0 08 37
        E 8 b0 08 39
        E 8 b0 08 3b
        E 8 b0 08 3d
        E 8 b0 08 3f
        E 8 b0 08 41
        E 8 b0 08 43
        E 8 b0 08 45
        E 8 b0 08 47
        E 8 b0 08 48
        E 8 b0 08 4a
        E 8 b0 08 4c
        E 8 b0 08 4d
        E 8 b0 08 4f
        E 8 b0 08 50
        E 8 b0 08 51
        E 8 b0 08 52
        E 8 b0 08 54
        E 8 b0 08 54
        E 8 b0 08 55
        E 8 b0 08 56
        E 8 b0 08 56
        E 8 b0 08 57
        E 8 b0 08 58
        E 8 b0 08 58
        E 8 b0 08 58
        E 8 b0 08 58
        E 8 b0 08 58
        E 8 b0 08 58
        E 8 b0 08 58
        E 8 b0 08 58
        E 8 b0 08 58
        E 8 b0 08 57
        E 8 b0 08 56
        E 8 b0 08 56
        E 8 b0 08 55
        E 8 b0 08 54
        E 8 b0 08 53
        E 8 b0 08 51
        E 8 b0 08 51
        E 8 b0 08 4f
        E 8 b0 08 4e
        E 8 b0 08 4d
        E 8 b0 08 4b
        E 8 b0 08 49
        E 8 b0 08 48
        E 8 b0 08 46
        E 8 b0 08 44
        E 8 b0 08 42
        E 8 b0 08 40
        E 8 b0 08 3e
        E 8 b0 08 3c
        E 8 b0 08 3a
        E 8 b0 08 38
        E 8 b0 08 36
        E 8 b0 08 33
        E 8 b0 08 31
        E 8 b0 08 2f
        E 8 b0 08 2d
        E 8 b0 08 2b
        E 8 b0 08 29
        E 8 b0 08 27
        E 8 b0 08 25
        E 8 b0 08 22
        E 8 b0 08 20
        E 8 b0 08 1e
        E 8 b0 08 1c
        E 8 b0 08 1a
        E 8 b0 08 18
        E 8 b0 08 16
        E 8 b0 08 14
        E 8 b0 08 12
        E 8 b0 08 10
        E 8 b0 08 0f
        E 8 b0 08 0d
        E 8 b0 08 0b
        E 8 b0 08 0a
        E 8 b0 08 09
        E 8 b0 08 07
        E 8 b0 08 07
        E 8 b0 08 05
        E 8 b0 08 04
        E 8 b0 08 03
        E 8 b0 08 02
        E 8 b0 08 02
        E 8 b0 08 01
        E 8 b0 08 00
        E 8 b0 08 00
        E 8 b0 08 00
        E 8 b0 08 00
        E 8 b0 08 00
        E 8 b0 08 00
        E 8 b0 08 00
        E 8 b0 08 00
        E 8 b0 08 00
        E 8 b0 08 01
        E 8 b0 08 02
        E 8 b0 08 02
        E 8 b0 08 03
        E 8 b0 08 04
        E 8 b0 08 04
        E 8 b0 08 06
        E 8 b0 08 07
        E 8 b0 08 08
        E 8 b0 08 09
        E 8 b0 08 0b
        E 8 b0 08 0c
        E 8 b0 08 0e
        E 8 b0 08 10
        E 8 b0 08 11
        E 8 b0 08 13
        E 8 b0 08 15
        E 8 b0 08 17
        E 8 b0 08 19
        E 8 b0 08 1b
        E 8 b0 08 1d
        E 8 b0 08 1f
        E 8 b0 08 21
        E 8 b0 08 23
        E 8 b0 08 25
        E 8 b0 08 27
        E 8 b0 08 2a
        E 8 b0 08 2c
        E 8 b0 08 20
        E 8 b0 08 21
        E 8 b0 08 23
        E 8 b0 08 24
        E 8 b0 08 26
        E 8 b0 08 27
        E 8 b0 08 29
        E 8 b0 08 2a
        E 8 b0 08 2c
        E 8 b0 08 2d
        E 8 b0 08 2f
        E 8 b0 08 30
        E 8 b0 08 31
        E 8 b0 08 33
        E 8 b0 08 34
        E 8 b0 08 35
        E 8 b0 08 36
        E 8 b0 08 37
        E 8 b0 08 38
        E 8 b0 08 39
        E 8 b0 08 3a
        E 8 b0 08 3b
        E 8 b0 08 3c
        E 8 b0 08 3c
        E 8 b0 08 3d
        E 8 b0 08 3d
        E 8 b0 08 3e
        E 8 b0 08 3e
        E 8 b0 08 3f
        E 8 b0 08 3f
        E 8 b0 08 3f
        E 8 b0 08 3f
        E 8 b0 08 3f
        E 8 b0 08 3f
        E 8 b0 08 3f
        E 8 b0 08 3f
        E 8 b0 08 3f
        E 8 b0 08 3e
        E 8 b0 08 3e
        E 8 b0 08 3d
        E 8 b0 08 3d
        E 8 b0 08 3c
        E 8 b0 08 3b
        E 8 b0 08 3a
        E 8 b0 08 3a
        E 8 b0 08 39
        E 8 b0 08 38
        E 8 b0 08 37
        E 8 b0 08 36
        E 8 b0 08 34
        E 8 b0 08 33
        E 8 b0 08 32
        E 8 b0 08 31
        E 8 b0 08 2f
        E 8 b0 08 2e
        E 8 b0 08 2c
        E 8 b0 08 2b
        E 8 b0 08 2a
        E 8 b0 08 28
        E 8 b0 08 27
        E 8 b0 08 25
        E 8 b0 08 23
        E 8 b0 08 22
        E 8 b0 08 20
        E 8 b0 08 1f
        E 8 b0 08 1d
        E 8 b0 08 1c
        E 8 b0 08 1a
        E 8 b0 08 18
        E 8 b0 08 17
        E 8 b0 08 15
        E 8 b0 08 14
        E 8 b0 08 13
        E 8 b0 08 11
        E 8 b0 08 10
        E 8 b0 08 0e
        E 8 b0 08 0d
        E 8 b0 08 0c
        E 8 b0 08 0b
        E 8 b0 08 09
        E 8 b0 08 08
        E 8 b0 08 07
        E 8 b0 08 06
        E 8 b0 08 05
        E 8 b0 08 05
        E 8 b0 08 04
        E 8 b0 08 03
        E 8 b0 08 02
        E 8 b0 08 02
        E 8 b0 08 01
        E 8 b0 08 01
        E 8 b0 08 00
        E 8 b0 08 00
        E 8 b0 08 00
        E 8 b0 08 00
        E 8 b0 08 00
        E 8 b0 08 00
        E 8 b0 08 00
        E 8 b0 08 00
        E 8 b0 08 00
        E 8 b0 08 01
        E 8 b0 08 01
        E 8 b0 08 02
        E 8 b0 08 02
        E 8 b0 08 03
        E 8 b0 08 03
        E 8 b0 08 04
        E 8 b0 08 05
        E 8 b0 08 06
        E 8 b0 08 07
        E 8 b0 08 08
        E 8 b0 08 09
        E 8 b0 08 0a
        E 8 b0 08 0b
        E 8 b0 08 0c
        E 8 b0 08 0e
        E 8 b0 08 0f
        E 8 b0 08 10
        E 8 b0 08 12
        E 8 b0 08 13
        E 8 b0 08 15
        E 8 b0 08 16
        E 8 b0 08 18
        E 8 b0 08 19
        E 8 b0 08 1b
        E 8 b0 08 1c
        E 8 b0 08 1e
        E 8 b0 08 20
        E 11 b0 08 20
        E 11 b0 08 21
        E 11 b0 08 23
        E 11 b0 08 24
        E 11 b0 08 26
        E 11 b0 08 27
        E 11 b0 08 29
        E 11 b0 08 2a
        E 11 b0 08 2c
        E 11 b0 08 2d
        E 11 b0 08 2f
        E 11 b0 08 30
        E 11 b0 08 31
        E 11 b0 08 33
        E 11 b0 08 34
        E 11 b0 08 35
        E 11 b0 08 36
        E 11 b0 08 37
        E 11 b0 08 38
        E 11 b0 08 39
        E 11 b0 08 3a
        E 11 b0 08 3b
        E 11 b0 08 3c
        E 11 b0 08 3c
        E 11 b0 08 3d
        E 11 b0 08 3d
        E 11 b0 08 3e
        E 11 b0 08 3e
        E 11 b0 08 3f
        E 11 b0 08 3f
        E 11 b0 08 3f
        E 11 b0 08 3f
        E 11 b0 08 3f
        E 11 b0 08 3f
        E 11 b0 08 3f
        E 11 b0 08 3f
        E 11 b0 08 3f
        E 11 b0 08 3e
        E 11 b0 08 3e
        E 11 b0 08 3d
        E 11 b0 08 3d
        E 11 b0 08 3c
        E 11 b0 08 3b
        E 11 b0 08 3a
        E 11 b0 08 3a
        E 11 b0 08 39
        E 11 b0 08 38
        E 11 b0 08 37
        E 11 b0 08 36
        E 11 b0 08 34
        E 11 b0 08 33
        E 11 b0 08 32
        E 11 b0 08 31
        E 11 b0 08 2f
        E 11 b0 08 2e
        E 11 b0 08 2c
        E 11 b0 08 2b
        E 11 b0 08 2a
        E 11 b0 08 28
        E 11 b0 08 27
        E 11 b0 08 25
        E 11 b0 08 23
        E 11 b0 08 22
        E 11 b0 08 20
        E 11 b0 08 1f
        E 11 b0 08 1d
        E 11 b0 08 1c
        E 11 b0 08 1a
        E 11 b0 08 18
        E 11 b0 08 17
        E 11 b0 08 15
        E 11 b0 08 14
        E 11 b0 08 13
        E 11 b0 08 11
        E 11 b0 08 10
        E 11 b0 08 0e
        E 11 b0 08 0d
        E 11 b0 08 0c
        E 11 b0 08 0b
        E 11 b0 08 09
        E 11 b0 08 08
        E 11 b0 08 07
        E 11 b0 08 06
        E 11 b0 08 05
        E 11 b0 08 05
        E 11 b0 08 04
        E 11 b0 08 03
        E 11 b0 08 02
        E 11 b0 08 02
        E 11 b0 08 01
        E 11 b0 08 01
        E 11 b0 08 00
        E 11 b0 08 00
        E 11 b0 08 00
        E 11 b0 08 00
        E 11 b0 08 00
        E 11 b0 08 00
        E 11 b0 08 00
        E 11 b0 08 00
        E 11 b0 08 00
        E 11 b0 08 01
        E 11 b0 08 01
        E 11 b0 08 02
        E 11 b0 08 02
        E 11 b0 08 03
        E 11 b0 08 03
        E 11 b0 08 04
        E 11 b0 08 05
        E 11 b0 08 06
        E 11 b0 08 07
        E 11 b0 08 08
        E 11 b0 08 09
        E 11 b0 08 0a
        E 11 b0 08 0b
        E 11 b0 08 0c
        E 11 b0 08 0e
        E 11 b0 08 0f
        E 11 b0 08 10
        E 11 b0 08 12
        E 11 b0 08 13
        E 11 b0 08 15
        E 11 b0 08 16
        E 11 b0 08 18
        E 11 b0 08 19
        E 11 b0 08 1b
        E 11 b0 08 1c
        E 11 b0 08 1e
        E 11 b0 08 20
        E 13 b0 08 40
        E 13 b0 08 43
        E 13 b0 08 46
        E 13 b0 08 49
        E 13 b0 08 4c
        E 13 b0 08 4f
        E 13 b0 08 52
        E 13 b0 08 55
        E 13 b0 08 58
        E 13 b0 08 5b
        E 13 b0 08 5e
        E 13 b0 08 60
        E 13 b0 08 63
        E 13 b0 08 66
        E 13 b0 08 68
        E 13 b0 08 6a
        E 13 b0 08 6d
        E 13 b0 08 6f
        E 13 b0 08 71
        E 13 b0 08 73
        E 13 b0 08 75
        E 13 b0 08 76
        E 13 b0 08 78
        E 13 b0 08 79
        E 13 b0 08 7a
        E 13 b0 08 7b
        E 13 b0 08 7c
        E 13 b0 08 7d
        E 13 b0 08 7e
        E 13 b0 08 7e
        E 13 b0 08 7f
        E 13 b0 08 7f
        E 13 b0 08 7f
        E 13 b0 08 7f
        E 13 b0 08 7f
        E 13 b0 08 7e
        E 13 b0 08 7e
        E 13 b0 08 7d
        E 13 b0 08 7c
        E 13 b0 08 7b
        E 13 b0 08 7a
        E 13 b0 08 78
        E 13 b0 08 77
        E 13 b0 08 75
        E 13 b0 08 74
        E 13 b0 08 72
        E 13 b0 08 70
        E 13 b0 08 6e
        E 13 b0 08 6c
        E 13 b0 08 69
        E 13 b0 08 67
        E 13 b0 08 64
        E 13 b0 08 62
        E 13 b0 08 5f
        E 13 b0 08 5c
        E 13 b0 08 59
        E 13 b0 08 57
        E 13 b0 08 54
        E 13 b0 08 51
        E 13 b0 08 4e
        E 13 b0 08 4a
        E 13 b0 08 47
        E 13 b0 08 44
        E 13 b0 08 41
        E 13 b0 08 3e
        E 13 b0 08 3b
        E 13 b0 08 38
        E 13 b0 08 35
        E 13 b0 08 31
        E 13 b0 08 2e
        E 13 b0 08 2b
        E 13 b0 08 28
        E 13 b0 08 26
        E 13 b0 08 23
        E 13 b0 08 20
        E 13 b0 08 1d
        E 13 b0 08 1b
        E 13 b0 08 18
        E 13 b0 08 16
        E 13 b0 08 13
        E 13 b0 08 11
        E 13 b0 08 0f
        E 13 b0 08 0d
        E 13 b0 08 0b
        E 13 b0 08 0a
        E 13 b0 08 08
        E 13 b0 08 07
        E 13 b0 08 05
        E 13 b0 08 04
        E 13 b0 08 03
        E 13 b0 08 02
        E 13 b0 08 01
        E 13 b0 08 01
        E 13 b0 08 00
        E 13 b0 08 00
        E 13 b0 08 00
        E 13 b0 08 00
        E 13 b0 08 00
        E 13 b0 08 01
        E 13 b0 08 01
        E 13 b0 08 02
        E 13 b0 08 03
        E 13 b0 08 04
        E 13 b0 08 05
        E 13 b0 08 06
        E 13 b0 08 07
        E 13 b0 08 09
        E 13 b0 08 0a
        E 13 b0 08 0c
        E 13 b0 08 0e
        E 13 b0 08 10
        E 13 b0 08 12
        E 13 b0 08 15
        E 13 b0 08 17
        E 13 b0 08 19
        E 13 b0 08 1c
        E 13 b0 08 1f
        E 13 b0 08 21
        E 13 b0 08 24
        E 13 b0 08 27
        E 13 b0 08 2a
        E 13 b0 08 2d
        E 13 b0 08 30
        E 13 b0 08 33
        E 13 b0 08 36
        E 13 b0 08 39
        E 13 b0 08 3c
        E 13 b0 08 40
        E 1 b0 08 39
        E 1 b0 08 3c
        E 1 b0 08 3f
        E 1 b0 08 41
        E 1 b0 08 44
        E 1 b0 08 47
        E 1 b0 08 49
        E 1 b0 08 4c
        E 1 b0 08 4f
        E 1 b0 08 51
        E 1 b0 08 54
        E 1 b0 08 56
        E 1 b0 08 59
        E 1 b0 08 5b
        E 1 b0 08 5d
        E 1 b0 08 5f
        E 1 b0 08 62
        E 1 b0 08 63
        E 1 b0 08 65
        E 1 b0 08 67
        E 1 b0 08 69
        E 1 b0 08 6a
        E 1 b0 08 6c
        E 1 b0 08 6c
        E 1 b0 08 6d
        E 1 b0 08 6e
        E 1 b0 08 6f
        E 1 b0 08 70
        E 1 b0 08 71
        E 1 b0 08 71
        E 1 b0 08 72
        E 1 b0 08 72
        E 1 b0 08 72
        E 1 b0 08 72
        E 1 b0 08 72
        E 1 b0 08 71
        E 1 b0 08 71
        E 1 b0 08 70
        E 1 b0 08 6f
        E 1 b0 08 6e
        E 1 b0 08 6d
        E 1 b0 08 6c
        E 1 b0 08 6b
        E 1 b0 08 69
        E 1 b0 08 68
        E 1 b0 08 66
        E 1 b0 08 64
        E 1 b0 08 63
        E 1 b0 08 61
        E 1 b0 08 5e
        E 1 b0 08 5c
        E 1 b0 08 5a
        E 1 b0 08 58
        E 1 b0 08 55
        E 1 b0 08 52
        E 1 b0 08 50
        E 1 b0 08 4e
        E 1 b0 08 4b
        E 1 b0 08 48
        E 1 b0 08 46
        E 1 b0 08 42
        E 1 b0 08 3f
        E 1 b0 08 3d
        E 1 b0 08 3a
        E 1 b0 08 37
        E 1 b0 08 35
        E 1 b0 08 32
        E 1 b0 08 2f
        E 1 b0 08 2c
        E 1 b0 08 29
        E 1 b0 08 26
        E 1 b0 08 24
        E 1 b0 08 22
        E 1 b0 08 1f
        E 1 b0 08 1c
        E 1 b0 08 1a
        E 1 b0 08 18
        E 1 b0 08 15
        E 1 b0 08 13
        E 1 b0 08 11
        E 1 b0 08 0f
        E 1 b0 08 0d
        E 1 b0 08 0b
        E 1 b0 08 09
        E 1 b0 08 09
        E 1 b0 08 07
        E 1 b0 08 06
        E 1 b0 08 04
        E 1 b0 08 03
        E 1 b0 08 02
        E 1 b0 08 01
        E 1 b0 08 00
        E 1 b0 08 00
        E 1 b0 08 00
        E 1 b0 08 00
        E 1 b0 08 00
        E 1 b0 08 00
        E 1 b0 08 00
        E 1 b0 08 00
        E 1 b0 08 00
        E 1 b0 08 01
        E 1 b0 08 02
        E 1 b0 08 03
        E 1 b0 08 04
        E 1 b0 08 05
        E 1 b0 08 06
        E 1 b0 08 08
        E 1 b0 08 09
        E 1 b0 08 0a
        E 1 b0 08 0c
        E 1 b0 08 0e
        E 1 b0 08 10
        E 1 b0 08 12
        E 1 b0 08 14
        E 1 b0 08 16
        E 1 b0 08 19
        E 1 b0 08 1b
        E 1 b0 08 1d
        E 1 b0 08 20
        E 1 b0 08 23
        E 1 b0 08 25
        E 1 b0 08 28
        E 1 b0 08 2b
        E 1 b0 08 2d
        E 1 b0 08 30
        E 1 b0 08 33
        E 1 b0 08 36
        E 1 b0 08 39
        E 6 b0 08 40
        E 6 b0 08 43
        E 6 b0 08 46
        E 6 b0 08 49
        E 6 b0 08 4c
        E 6 b0 08 4f
        E 6 b0 08 52
        E 6 b0 08 55
        E 6 b0 08 58
        E 6 b0 08 5b
        E 6 b0 08 5e
        E 6 b0 08 60
        E 6 b0 08 63
        E 6 b0 08 66
        E 6 b0 08 68
        E 6 b0 08 6a
        E 6 b0 08 6d
        E 6 b0 08 6f
        E 6 b0 08 71
        E 6 b0 08 73
        E 6 b0 08 75
        E 6 b0 08 76
        E 6 b0 08 78
        E 6 b0 08 79
        E 6 b0 08 7a
        E 6 b0 08 7b
        E 6 b0 08 7c
        E 6 b0 08 7d
        E 6 b0 08 7e
        E 6 b0 08 7e
        E 6 b0 08 7f
        E 6 b0 08 7f
        E 6 b0 08 7f
        E 6 b0 08 7f
        E 6 b0 08 7f
        E 6 b0 08 7e
        E 6 b0 08 7e
        E 6 b0 08 7d
        E 6 b0 08 7c
        E 6 b0 08 7b
        E 6 b0 08 7a
        E 6 b0 08 78
        E 6 b0 08 77
        E 6 b0 08 75
        E 6 b0 08 74
        E 6 b0 08 72
        E 6 b0 08 70
        E 6 b0 08 6e
        E 6 b0 08 6c
        E 6 b0 08 69
        E 6 b0 08 67
        E 6 b0 08 64
        E 6 b0 08 62
        E 6 b0 08 5f
        E 6 b0 08 5c
        E 6 b0 08 59
        E 6 b0 08 57
        E 6 b0 08 54
        E 6 b0 08 51
        E 6 b0 08 4e
        E 6 b0 08 4a
        E 6 b0 08 47
        E 6 b0 08 44
        E 6 b0 08 41
        E 6 b0 08 3e
        E 6 b0 08 3b
        E 6 b0 08 38
        E 6 b0 08 35
        E 6 b0 08 31
        E 6 b0 08 2e
        E 6 b0 08 2b
        E 6 b0 08 28
        E 6 b0 08 26
        E 6 b0 08 23
        E 6 b0 08 20
        E 6 b0 08 1d
        E 6 b0 08 1b
        E 6 b0 08 18
        E 6 b0 08 16
        E 6 b0 08 13
        E 6 b0 08 11
        E 6 b0 08 0f
        E 6 b0 08 0d
        E 6 b0 08 0b
        E 6 b0 08 0a
        E 6 b0 08 08
        E 6 b0 08 07
        E 6 b0 08 05
        E 6 b0 08 04
        E 6 b0 08 03
        E 6 b0 08 02
        E 6 b0 08 01
        E 6 b0 08 01
        E 6 b0 08 00
        E 6 b0 08 00
        E 6 b0 08 00
        E 6 b0 08 00
        E 6 b0 08 00
        E 6 b0 08 01
        E 6 b0 08 01
        E 6 b0 08 02
        E 6 b0 08 03
        E 6 b0 08 04
        E 6 b0 08 05
        E 6 b0 08 06
        E 6 b0 08 07
        E 6 b0 08 09
        E 6 b0 08 0a
        E 6 b0 08 0c
        E 6 b0 08 0e
        E 6 b0 08 10
        E 6 b0 08 12
        E 6 b0 08 15
        E 6 b0 08 17
        E 6 b0 08 19
        E 6 b0 08 1c
        E 6 b0 08 1f
        E 6 b0 08 21
        E 6 b0 08 24
        E 6 b0 08 27
        E 6 b0 08 2a
        E 6 b0 08 2d
        E 6 b0 08 30
        E 6 b0 08 33
        E 6 b0 08 36
        E 6 b0 08 39
        E 6 b0 08 3c
        E 6 b0 08 40
        E 11 b0 08 39
        E 11 b0 08 3c
        E 11 b0 08 3f
        E 11 b0 08 41
        E 11 b0 08 44
        E 11 b0 08 47
        E 11 b0 08 49
        E 11 b0 08 4c
        E 11 b0 08 4f
        E 11 b0 08 51
        E 11 b0 08 54
        E 11 b0 08 56
        E 11 b0 08 59
        E 11 b0 08 5b
        E 11 b0 08 5d
        E 11 b0 08 5f
        E 11 b0 08 62
        E 11 b0 08 63
        E 11 b0 08 65
        E 11 b0 08 67
        E 11 b0 08 69
        E 11 b0 08 6a
        E 11 b0 08 6c
        E 11 b0 08 6c
        E 11 b0 08 6d
        E 11 b0 08 6e
        E 11 b0 08 6f
        E 11 b0 08 70
        E 11 b0 08 71
        E 11 b0 08 71
        E 11 b0 08 72
        E 11 b0 08 72
        E 11 b0 08 72
        E 11 b0 08 72
        E 11 b0 08 72
        E 11 b0 08 71
        E 11 b0 08 71
        E 11 b0 08 70
        E 11 b0 08 6f
        E 11 b0 08 6e
        E 11 b0 08 6d
        E 11 b0 08 6c
        E 11 b0 08 6b
        E 11 b0 08 69
        E 11 b0 08 68
        E 11 b0 08 66
        E 11 b0 08 64
        E 11 b0 08 63
        E 11 b0 08 61
        E 11 b0 08 5e
        E 11 b0 08 5c
        E 11 b0 08 5a
        E 11 b0 08 58
        E 11 b0 08 55
        E 11 b0 08 52
        E 11 b0 08 50
        E 11 b0 08 4e
        E 11 b0 08 4b
        E 11 b0 08 48
        E 11 b0 08 46
        E 11 b0 08 42
        E 11 b0 08 3f
        E 11 b0 08 3d
        E 11 b0 08 3a
        E 11 b0 08 37
        E 11 b0 08 35
        E 11 b0 08 32
        E 11 b0 08 2f
        E 11 b0 08 2c
        E 11 b0 08 29
        E 11 b0 08 26
        E 11 b0 08 24
        E 11 b0 08 22
        E 11 b0 08 1f
        E 11 b0 08 1c
        E 11 b0 08 1a
        E 11 b0 08 18
        E 11 b0 08 15
        E 11 b0 08 13
        E 11 b0 08 11
        E 11 b0 08 0f
        E 11 b0 08 0d
        E 11 b0 08 0b
        E 11 b0 08 09
        E 11 b0 08 09
        E 11 b0 08 07
        E 11 b0 08 06
        E 11 b0 08 04
        E 11 b0 08 03
        E 11 b0 08 02
        E 11 b0 08 01
        E 11 b0 08 00
        E 11 b0 08 00
        E 11 b0 08 00
        E 11 b0 08 00
        E 11 b0 08 00
        E 11 b0 08 00
        E 11 b0 08 00
        E 11 b0 08 00
        E 11 b0 08 00
        E 11 b0 08 01
        E 11 b0 08 02
        E 11 b0 08 03
        E 11 b0 08 04
        E 11 b0 08 05
        E 11 b0 08 06
        E 11 b0 08 08
        E 11 b0 08 09
        E 11 b0 08 0a
        E 11 b0 08 0c
        E 11 b0 08 0e
        E 11 b0 08 10
        E 11 b0 08 12
        E 11 b0 08 14
        E 11 b0 08 16
        E 11 b0 08 19
        E 11 b0 08 1b
        E 11 b0 08 1d
        E 11 b0 08 20
        E 11 b0 08 23
        E 11 b0 08 25
        E 11 b0 08 28
        E 11 b0 08 2b
        E 11 b0 08 2d
        E 11 b0 08 30
        E 11 b0 08 33
        E 11 b0 08 36
        E 11 b0 08 39
        E 8 b0 08 20
        E 8 b0 08 21
        E 8 b0 08 23
        E 8 b0 08 24
        E 8 b0 08 26
        E 8 b0 08 27
        E 8 b0 08 29
        E 8 b0 08 2a
        E 8 b0 08 2c
        E 8 b0 08 2d
        E 8 b0 08 2f
        E 8 b0 08 30
        E 8 b0 08 31
        E 8 b0 08 33
        E 8 b0 08 34
        E 8 b0 08 35
        E 8 b0 08 36
        E 8 b0 08 37
        E 8 b0 08 38
        E 8 b0 08 39
        E 8 b0 08 3a
        E 8 b0 08 3b
        E 8 b0 08 3c
        E 8 b0 08 3c
        E 8 b0 08 3d
        E 8 b0 08 3d
        E 8 b0 08 3e
        E 8 b0 08 3e
        E 8 b0 08 3f
        E 8 b0 08 3f
        E 8 b0 08 3f
        E 8 b0 08 3f
        E 8 b0 08 3f
        E 8 b0 08 3f
        E 8 b0 08 3f
        E 8 b0 08 3f
        E 8 b0 08 3f
        E 8 b0 08 3e
        E 8 b0 08 3e
        E 8 b0 08 3d
        E 8 b0 08 3d
        E 8 b0 08 3c
        E 8 b0 08 3b
        E 8 b0 08 3a
        E 8 b0 08 3a
        E 8 b0 08 39
        E 8 b0 08 38
        E 8 b0 08 37
        E 8 b0 08 36
        E 8 b0 08 34
        E 8 b0 08 33
        E 8 b0 08 32
        E 8 b0 08 31
        E 8 b0 08 2f
        E 8 b0 08 2e
        E 8 b0 08 2c
        E 8 b0 08 2b
        E 8 b0 08 2a
        E 8 b0 08 28
        E 8 b0 08 27
        E 8 b0 08 25
        E 8 b0 08 23
        E 8 b0 08 22
        E 8 b0 08 20
        E 8 b0 08 1f
        E 8 b0 08 1d
        E 8 b0 08 1c
        E 8 b0 08 1a
        E 8 b0 08 18
        E 8 b0 08 17
        E 8 b0 08 15
        E 8 b0 08 14
        E 8 b0 08 13
        E 8 b0 08 11
        E 8 b0 08 10
        E 8 b0 08 0e
        E 8 b0 08 0d
        E 8 b0 08 0c
        E 8 b0 08 0b
        E 8 b0 08 09
        E 8 b0 08 08
        E 8 b0 08 07
        E 8 b0 08 06
        E 8 b0 08 05
        E 8 b0 08 05
        E 8 b0 08 04
        E 8 b0 08 03
        E 8 b0 08 02
        E 8 b0 08 02
        E 8 b0 08 01
        E 8 b0 08 01
        E 8 b0 08 00
        E 8 b0 08 00
        E 8 b0 08 00
        E 8 b0 08 00
        E 8 b0 08 00
        E 8 b0 08 00
        E 8 b0 08 00
        E 8 b0 08 00
        E 8 b0 08 00
        E 8 b0 08 01
        E 8 b0 08 01
        E 8 b0 08 02
        E 8 b0 08 02
        E 8 b0 08 03
        E 8 b0 08 03
        E 8 b0 08 04
        E 8 b0 08 05
        E 8 b0 08 06
        E 8 b0 08 07
        E 8 b0 08 08
        E 8 b0 08 09
        E 8 b0 08 0a
        E 8 b0 08 0b
        E 8 b0 08 0c
        E 8 b0 08 0e
        E 8 b0 08 0f
        E 8 b0 08 10
        E 8 b0 08 12
        E 8 b0 08 13
        E 8 b0 08 15
        E 8 b0 08 16
        E 8 b0 08 18
        E 8 b0 08 19
        E 8 b0 08 1b
        E 8 b0 08 1c
        E 8 b0 08 1e
        E 8 b0 08 20
        E 8 b0 08 20
        E 8 b0 08 21
        E 8 b0 08 23
        E 8 b0 08 24
        E 8 b0 08 26
        E 8 b0 08 27
        E 8 b0 08 29
        E 8 b0 08 2a
        E 8 b0 08 2c
        E 8 b0 08 2d
        E 8 b0 08 2f
        E 8 b0 08 30
        E 8 b0 08 31
        E 8 b0 08 33
        E 8 b0 08 34
        E 8 b0 08 35
        E 8 b0 08 36
        E 8 b0 08 37
        E 8 b0 08 38
        E 8 b0 08 39
        E 8 b0 08 3a
        E 8 b0 08 3b
        E 8 b0 08 3c
        E 8 b0 08 3c
        E 8 b0 08 3d
        E 8 b0 08 3d
        E 8 b0 08 3e
        E 8 b0 08 3e
        E 8 b0 08 3f
        E 8 b0 08 3f
        E 8 b0 08 3f
        E 8 b0 08 3f
        E 8 b0 08 3f
        E 8 b0 08 3f
        E 8 b0 08 3f
        E 8 b0 08 3f
        E 8 b0 08 3f
        E 8 b0 08 3e
        E 8 b0 08 3e
        E 8 b0 08 3d
        E 8 b0 08 3d
        E 8 b0 08 3c
        E 8 b0 08 3b
        E 8 b0 08 3a
        E 8 b0 08 3a
        E 8 b0 08 39
        E 8 b0 08 38
        E 8 b0 08 37
        E 8 b0 08 36
        E 8 b0 08 34
        E 8 b0 08 33
        E 8 b0 08 32
        E 8 b0 08 31
        E 8 b0 08 2f
        E 8 b0 08 2e
        E 8 b0 08 2c
        E 8 b0 08 2b
        E 8 b0 08 2a
        E 8 b0 08 28
        E 8 b0 08 27
        E 8 b0 08 25
        E 8 b0 08 23
        E 8 b0 08 22
        E 8 b0 08 20
        E 8 b0 08 1f
        E 8 b0 08 1d
        E 8 b0 08 1c
        E 8 b0 08 1a
        E 8 b0 08 18
        E 8 b0 08 17
        E 8 b0 08 15
        E 8 b0 08 14
        E 8 b0 08 13
        E 8 b0 08 11
        E 8 b0 08 10
        E 8 b0 08 0e
        E 8 b0 08 0d
        E 8 b0 08 0c
        E 8 b0 08 0b
        E 8 b0 08 09
        E 8 b0 08 08
        E 8 b0 08 07
        E 8 b0 08 06
        E 8 b0 08 05
        E 8 b0 08 05
        E 8 b0 08 04
        E 8 b0 08 03
        E 8 b0 08 02
        E 8 b0 08 02
        E 8 b0 08 01
        E 8 b0 08 01
        E 8 b0 08 00
        E 8 b0 08 00
        E 8 b0 08 00
        E 8 b0 08 00
        E 8 b0 08 00
        E 8 b0 08 00
        E 8 b0 08 00
        E 8 b0 08 00
        E 8 b0 08 00
        E 8 b0 08 01
        E 8 b0 08 01
        E 8 b0 08 02
        E 8 b0 08 02
        E 8 b0 08 03
        E 8 b0 08 03
        E 8 b0 08 04
        E 8 b0 08 05
        E 8 b0 08 06
        E 8 b0 08 07
        E 8 b0 08 08
        E 8 b0 08 09
        E 8 b0 08 0a
        E 8 b0 08 0b
        E 8 b0 08 0c
        E 8 b0 08 0e
        E 8 b0 08 0f
        E 8 b0 08 10
        E 8 b0 08 12
        E 8 b0 08 13
        E 8 b0 08 15
        E 8 b0 08 16
        E 8 b0 08 18
        E 8 b0 08 19
        E 8 b0 08 1b
        E 8 b0 08 1c
        E 8 b0 08 1e
        E 8 b0 08 20
        E 17 b0 08 2c
        E 17 b0 08 2e
        E 17 b0 08 31
        E 17 b0 08 33
        E 17 b0 08 35
        E 17 b0 08 37
        E 17 b0 08 39
        E 17 b0 08 3b
        E 17 b0 08 3d
        E 17 b0 08 3f
        E 17 b0 08 41
        E 17 b0 08 43
        E 17 b0 08 45
        E 17 b0 08 47
        E 17 b0 08 48
        E 17 b0 08 4a
        E 17 b0 08 4c
        E 17 b0 08 4d
        E 17 b0 08 4f
        E 17 b0 08 50
        E 17 b0 08 51
        E 17 b0 08 52
        E 17 b0 08 54
        E 17 b0 08 54
        E 17 b0 08 55
        E 17 b0 08 56
        E 17 b0 08 56
        E 17 b0 08 57
        E 17 b0 08 58
        E 17 b0 08 58
        E 17 b0 08 58
        E 17 b0 08 58
        E 17 b0 08 58
        E 17 b0 08 58
        E 17 b0 08 58
        E 17 b0 08 58
        E 17 b0 08 58
        E 17 b0 08 57
        E 17 b0 08 56
        E 17 b0 08 56
        E 17 b0 08 55
        E 17 b0 08 54
        E 17 b0 08 53
        E 17 b0 08 51
        E 17 b0 08 51
        E 17 b0 08 4f
        E 17 b0 08 4e
        E 17 b0 08 4d
        E 17 b0 08 4b
        E 17 b0 08 49
        E 17 b0 08 48
        E 17 b0 08 46
        E 17 b0 08 44
        E 17 b0 08 42
        E 17 b0 08 40
        E 17 b0 08 3e
        E 17 b0 08 3c
        E 17 b0 08 3a
        E 17 b0 08 38
        E 17 b0 08 36
        E 17 b0 08 33
        E 17 b0 08 31
        E 17 b0 08 2f
        E 17 b0 08 2d
        E 17 b0 08 2b
        E 17 b0 08 29
        E 17 b0 08 27
        E 17 b0 08 25
        E 17 b0 08 22
        E 17 b0 08 20
        E 17 b0 08 1e
        E 17 b0 08 1c
        E 17 b0 08 1a
        E 17 b0 08 18
        E 17 b0 08 16
        E 17 b0 08 14
        E 17 b0 08 12
        E 17 b0 08 10
        E 17 b0 08 0f
        E 17 b0 08 0d
        E 17 b0 08 0b
        E 17 b0 08 0a
        E 17 b0 08 09
        E 17 b0 08 07
        E 17 b0 08 07
        E 17 b0 08 05
        E 17 b0 08 04
        E 17 b0 08 03
        E 17 b0 08 02
        E 17 b0 08 02
        E 17 b0 08 01
        E 17 b0 08 00
        E 17 b0 08 00
        E 17 b0 08 00
        E 17 b0 08 00
        E 17 b0 08 00
        E 17 b0 08 00
        E 17 b0 08 00
        E 17 b0 08 00
        E 17 b0 08 00
        E 17 b0 08 01
        E 17 b0 08 02
        E 17 b0 08 02
        E 17 b0 08 03
        E 17 b0 08 04
        E 17 b0 08 04
        E 17 b0 08 06
        E 17 b0 08 07
        E 17 b0 08 08
        E 17 b0 08 09
        E 17 b0 08 0b
        E 17 b0 08 0c
        E 17 b0 08 0e
        E 17 b0 08 10
        E 17 b0 08 11
        E 17 b0 08 13
        E 17 b0 08 15
        E 17 b0 08 17
        E 17 b0 08 19
        E 17 b0 08 1b
        E 17 b0 08 1d
        E 17 b0 08 1f
        E 17 b0 08 21
        E 17 b0 08 23
        E 17 b0 08 25
        E 17 b0 08 27
        E 17 b0 08 2a
        E 17 b0 08 2c
        E 15 b0 08 33
        E 15 b0 08 35
        E 15 b0 08 37
        E 15 b0 08 3a
        E 15 b0 08 3c
        E 15 b0 08 3f
        E 15 b0 08 41
        E 15 b0 08 44
        E 15 b0 08 46
        E 15 b0 08 48
        E 15 b0 08 4b
        E 15 b0 08 4c
        E 15 b0 08 4f
        E 15 b0 08 51
        E 15 b0 08 53
        E 15 b0 08 54
        E 15 b0 08 57
        E 15 b0 08 58
        E 15 b0 08 5a
        E 15 b0 08 5b
        E 15 b0 08 5d
        E 15 b0 08 5e
        E 15 b0 08 5f
        E 15 b0 08 60
        E 15 b0 08 61
        E 15 b0 08 62
        E 15 b0 08 63
        E 15 b0 08 63
        E 15 b0 08 64
        E 15 b0 08 64
        E 15 b0 08 65
        E 15 b0 08 65
        E 15 b0 08 65
        E 15 b0 08 65
        E 15 b0 08 65
        E 15 b0 08 64
        E 15 b0 08 64
        E 15 b0 08 63
        E 15 b0 08 63
        E 15 b0 08 62
        E 15 b0 08 61
        E 15 b0 08 5f
        E 15 b0 08 5f
        E 15 b0 08 5d
        E 15 b0 08 5c
        E 15 b0 08 5b
        E 15 b0 08 59
        E 15 b0 08 57
        E 15 b0 08 56
        E 15 b0 08 54
        E 15 b0 08 52
        E 15 b0 08 50
        E 15 b0 08 4e
        E 15 b0 08 4c
        E 15 b0 08 49
        E 15 b0 08 47
        E 15 b0 08 45
        E 15 b0 08 43
        E 15 b0 08 40
        E 15 b0 08 3e
        E 15 b0 08 3b
        E 15 b0 08 38
        E 15 b0 08 36
        E 15 b0 08 33
        E 15 b0 08 31
        E 15 b0 08 2f
        E 15 b0 08 2c
        E 15 b0 08 2a
        E 15 b0 08 27
        E 15 b0 08 24
        E 15 b0 08 22
        E 15 b0 08 1f
        E 15 b0 08 1e
        E 15 b0 08 1b
        E 15 b0 08 19
        E 15 b0 08 17
        E 15 b0 08 15
        E 15 b0 08 13
        E 15 b0 08 11
        E 15 b0 08 0f
        E 15 b0 08 0d
        E 15 b0 08 0b
        E 15 b0 08 0a
        E 15 b0 08 08
        E 15 b0 08 07
        E 15 b0 08 06
        E 15 b0 08 05
        E 15 b0 08 03
        E 15 b0 08 03
        E 15 b0 08 02
        E 15 b0 08 01
        E 15 b0 08 00
        E 15 b0 08 00
        E 15 b0 08 00
        E 15 b0 08 00
        E 15 b0 08 00
        E 15 b0 08 00
        E 15 b0 08 00
        E 15 b0 08 00
        E 15 b0 08 00
        E 15 b0 08 01
        E 15 b0 08 02
        E 15 b0 08 03
        E 15 b0 08 03
        E 15 b0 08 04
        E 15 b0 08 05
        E 15 b0 08 07
        E 15 b0 08 07
        E 15 b0 08 09
        E 15 b0 08 0b
        E 15 b0 08 0c
        E 15 b0 08 0e
        E 15 b0 08 10
        E 15 b0 08 12
        E 15 b0 08 14
        E 15 b0 08 16
        E 15 b0 08 18
        E 15 b0 08 1a
        E 15 b0 08 1c
        E 15 b0 08 1f
        E 15 b0 08 21
        E 15 b0 08 24
        E 15 b0 08 26
        E 15 b0 08 28
        E 15 b0 08 2b
        E 15 b0 08 2d
        E 15 b0 08 2f
        E 15 b0 08 33
        E 17 b0 08 06
        E 17 b0 08 06
        E 17 b0 08 07
        E 17 b0 08 07
        E 17 b0 08 07
        E 17 b0 08 07
        E 17 b0 08 08
        E 17 b0 08 08
        E 17 b0 08 08
        E 17 b0 08 09
        E 17 b0 08 09
        E 17 b0 08 09
        E 17 b0 08 09
        E 17 b0 08 0a
        E 17 b0 08 0a
        E 17 b0 08 0a
        E 17 b0 08 0a
        E 17 b0 08 0b
        E 17 b0 08 0b
        E 17 b0 08 0b
        E 17 b0 08 0b
        E 17 b0 08 0b
        E 17 b0 08 0c
        E 17 b0 08 0c
        E 17 b0 08 0c
        E 17 b0 08 0c
        E 17 b0 08 0c
        E 17 b0 08 0c
        E 17 b0 08 0c
        E 17 b0 08 0c
        E 17 b0 08 0c
        E 17 b0 08 0c
        E 17 b0 08 0c
        E 17 b0 08 0c
        E 17 b0 08 0c
        E 17 b0 08 0c
        E 17 b0 08 0c
        E 17 b0 08 0c
        E 17 b0 08 0c
        E 17 b0 08 0c
        E 17 b0 08 0c
        E 17 b0 08 0c
        E 17 b0 08 0b
        E 17 b0 08 0b
        E 17 b0 08 0b
        E 17 b0 08 0b
        E 17 b0 08 0b
        E 17 b0 08 0b
        E 17 b0 08 0a
        E 17 b0 08 0a
        E 17 b0 08 0a
        E 17 b0 08 0a
        E 17 b0 08 09
        E 17 b0 08 09
        E 17 b0 08 09
        E 17 b0 08 08
        E 17 b0 08 08
        E 17 b0 08 08
        E 17 b0 08 08
        E 17 b0 08 07
        E 17 b0 08 07
        E 17 b0 08 07
        E 17 b0 08 06
        E 17 b0 08 06
        E 17 b0 08 06
        E 17 b0 08 05
        E 17 b0 08 05
        E 17 b0 08 05
        E 17 b0 08 04
        E 17 b0 08 04
        E 17 b0 08 04
        E 17 b0 08 04
        E 17 b0 08 03
        E 17 b0 08 03
        E 17 b0 08 03
        E 17 b0 08 02
        E 17 b0 08 02
        E 17 b0 08 02
        E 17 b0 08 02
        E 17 b0 08 01
        E 17 b0 08 01
        E 17 b0 08 01
        E 17 b0 08 01
        E 17 b0 08 01
        E 17 b0 08 01
        E 17 b0 08 00
        E 17 b0 08 00
        E 17 b0 08 00
        E 17 b0 08 00
        E 17 b0 08 00
        E 17 b0 08 00
        E 17 b0 08 00
        E 17 b0 08 00
        E 17 b0 08 00
        E 17 b0 08 00
        E 17 b0 08 00
        E 17 b0 08 00
        E 17 b0 08 00
        E 17 b0 08 00
        E 17 b0 08 00
        E 17 b0 08 00
        E 17 b0 08 00
        E 17 b0 08 00
        E 17 b0 08 00
        E 17 b0 08 00
        E 17 b0 08 00
        E 17 b0 08 00
        E 17 b0 08 01
        E 17 b0 08 01
        E 17 b0 08 01
        E 17 b0 08 01
        E 17 b0 08 01
        E 17 b0 08 02
        E 17 b0 08 02
        E 17 b0 08 02
        E 17 b0 08 02
        E 17 b0 08 03
        E 17 b0 08 03
        E 17 b0 08 03
        E 17 b0 08 03
        E 17 b0 08 04
        E 17 b0 08 04
        E 17 b0 08 04
        E 17 b0 08 05
        E 17 b0 08 05
        E 17 b0 08 05
        E 17 b0 08 06
        E 17 b0 08 06
        E 15 b0 08 19
        E 15 b0 08 1a
        E 15 b0 08 1c
        E 15 b0 08 1d
        E 15 b0 08 1e
        E 15 b0 08 1f
        E 15 b0 08 20
        E 15 b0 08 22
        E 15 b0 08 23
        E 15 b0 08 24
        E 15 b0 08 25
        E 15 b0 08 26
        E 15 b0 08 27
        E 15 b0 08 28
        E 15 b0 08 29
        E 15 b0 08 2a
        E 15 b0 08 2b
        E 15 b0 08 2c
        E 15 b0 08 2d
        E 15 b0 08 2e
        E 15 b0 08 2e
        E 15 b0 08 2f
        E 15 b0 08 30
        E 15 b0 08 30
        E 15 b0 08 30
        E 15 b0 08 31
        E 15 b0 08 31
        E 15 b0 08 32
        E 15 b0 08 32
        E 15 b0 08 32
        E 15 b0 08 32
        E 15 b0 08 32
        E 15 b0 08 32
        E 15 b0 08 32
        E 15 b0 08 32
        E 15 b0 08 32
        E 15 b0 08 32
        E 15 b0 08 32
        E 15 b0 08 31
        E 15 b0 08 31
        E 15 b0 08 30
        E 15 b0 08 30
        E 15 b0 08 2f
        E 15 b0 08 2e
        E 15 b0 08 2e
        E 15 b0 08 2d
        E 15 b0 08 2c
        E 15 b0 08 2c
        E 15 b0 08 2b
        E 15 b0 08 2a
        E 15 b0 08 29
        E 15 b0 08 28
        E 15 b0 08 27
        E 15 b0 08 26
        E 15 b0 08 24
        E 15 b0 08 23
        E 15 b0 08 22
        E 15 b0 08 21
        E 15 b0 08 20
        E 15 b0 08 1f
        E 15 b0 08 1d
        E 15 b0 08 1c
        E 15 b0 08 1b
        E 15 b0 08 1a
        E 15 b0 08 18
        E 15 b0 08 17
        E 15 b0 08 16
        E 15 b0 08 15
        E 15 b0 08 13
        E 15 b0 08 12
        E 15 b0 08 11
        E 15 b0 08 10
        E 15 b0 08 0f
        E 15 b0 08 0e
        E 15 b0 08 0c
        E 15 b0 08 0b
        E 15 b0 08 0a
        E 15 b0 08 09
        E 15 b0 08 08
        E 15 b0 08 07
        E 15 b0 08 06
        E 15 b0 08 06
        E 15 b0 08 05
        E 15 b0 08 04
        E 15 b0 08 04
        E 15 b0 08 03
        E 15 b0 08 02
        E 15 b0 08 02
        E 15 b0 08 01
        E 15 b0 08 01
        E 15 b0 08 00
        E 15 b0 08 00
        E 15 b0 08 00
        E 15 b0 08 00
        E 15 b0 08 00
        E 15 b0 08 00
        E 15 b0 08 00
        E 15 b0 08 00
        E 15 b0 08 00
        E 15 b0 08 00
        E 15 b0 08 00
        E 15 b0 08 01
        E 15 b0 08 01
        E 15 b0 08 02
        E 15 b0 08 02
        E 15 b0 08 02
        E 15 b0 08 03
        E 15 b0 08 04
        E 15 b0 08 04
        E 15 b0 08 05
        E 15 b0 08 06
        E 15 b0 08 07
        E 15 b0 08 08
        E 15 b0 08 09
        E 15 b0 08 0a
        E 15 b0 08 0b
        E 15 b0 08 0c
        E 15 b0 08 0d
        E 15 b0 08 0e
        E 15 b0 08 0f
        E 15 b0 08 10
        E 15 b0 08 12
        E 15 b0 08 13
        E 15 b0 08 14
        E 15 b0 08 15
        E 15 b0 08 16
        E 15 b0 08 18
        E 15 b0 08 19
        E 8 b0 08 2c
        E 8 b0 08 2e
        E 8 b0 08 31
        E 8 b0 08 33
        E 8 b0 08 35
        E 8 b0 08 37
        E 8 b0 08 39
        E 8 b0 08 3b
        E 8 b0 08 3d
        E 8 b0 08 3f
        E 8 b0 08 41
        E 8 b0 08 43
        E 8 b0 08 45
        E 8 b0 08 47
        E 8 b0 08 48
        E 8 b0 08 4a
        E 8 b0 08 4c
        E 8 b0 08 4d
        E 8 b0 08 4f
        E 8 b0 08 50
        E 8 b0 08 51
        E 8 b0 08 52
        E 8 b0 08 54
        E 8 b0 08 54
        E 8 b0 08 55
        E 8 b0 08 56
        E 8 b0 08 56
        E 8 b0 08 57
        E 8 b0 08 58
        E 8 b0 08 58
        E 8 b0 08 58
        E 8 b0 08 58
        E 8 b0 08 58
        E 8 b0 08 58
        E 8 b0 08 58
        E 8 b0 08 58
        E 8 b0 08 58
        E 8 b0 08 57
        E 8 b0 08 56
        E 8 b0 08 56
        E 8 b0 08 55
        E 8 b0 08 54
        E 8 b0 08 53
        E 8 b0 08 51
        E 8 b0 08 51
        E 8 b0 08 4f
        E 8 b0 08 4e
        E 8 b0 08 4d
        E 8 b0 08 4b
        E 8 b0 08 49
        E 8 b0 08 48
        E 8 b0 08 46
        E 8 b0 08 44
        E 8 b0 08 42
        E 8 b0 08 40
        E 8 b0 08 3e
        E 8 b0 08 3c
        E 8 b0 08 3a
        E 8 b0 08 38
        E 8 b0 08 36
        E 8 b0 08 33
        E 8 b0 08 31
        E 8 b0 08 2f
        E 8 b0 08 2d
        E 8 b0 08 2b
        E 8 b0 08 29
        E 8 b0 08 27
        E 8 b0 08 25
        E 8 b0 08 22
        E 8 b0 08 20
        E 8 b0 08 1e
        E 8 b0 08 1c
        E 8 b0 08 1a
        E 8 b0 08 18
        E 8 b0 08 16
        E 8 b0 08 14
        E 8 b0 08 12
        E 8 b0 08 10
        E 8 b0 08 0f
        E 8 b0 08 0d
        E 8 b0 08 0b
        E 8 b0 08 0a
        E 8 b0 08 09
        E 8 b0 08 07
        E 8 b0 08 07
        E 8 b0 08 05
        E 8 b0 08 04
        E 8 b0 08 03
        E 8 b0 08 02
        E 8 b0 08 02
        E 8 b0 08 01
        E 8 b0 08 00
        E 8 b0 08 00
        E 8 b0 08 00
        E 8 b0 08 00
        E 8 b0 08 00
        E 8 b0 08 00
        E 8 b0 08 00
        E 8 b0 08 00
        E 8 b0 08 00
        E 8 b0 08 01
        E 8 b0 08 02
        E 8 b0 08 02
        E 8 b0 08 03
        E 8 b0 08 04
        E 8 b0 08 04
        E 8 b0 08 06
        E 8 b0 08 07
        E 8 b0 08 08
        E 8 b0 08 09
        E 8 b0 08 0b
        E 8 b0 08 0c
        E 8 b0 08 0e
        E 8 b0 08 10
        E 8 b0 08 11
        E 8 b0 08 13
        E 8 b0 08 15
        E 8 b0 08 17
        E 8 b0 08 19
        E 8 b0 08 1b
        E 8 b0 08 1d
        E 8 b0 08 1f
        E 8 b0 08 21
        E 8 b0 08 23
        E 8 b0 08 25
        E 8 b0 08 27
        E 8 b0 08 2a
        E 8 b0 08 2c
        E 8 b0 08 20
        E 8 b0 08 21
        E 8 b0 08 23
        E 8 b0 08 24
        E 8 b0 08 26
        E 8 b0 08 27
        E 8 b0 08 29
        E 8 b0 08 2a
        E 8 b0 08 2c
        E 8 b0 08 2d
        E 8 b0 08 2f
        E 8 b0 08 30
        E 8 b0 08 31
        E 8 b0 08 33
        E 8 b0 08 34
        E 8 b0 08 35
        E 8 b0 08 36
        E 8 b0 08 37
        E 8 b0 08 38
        E 8 b0 08 39
        E 8 b0 08 3a
        E 8 b0 08 3b
        E 8 b0 08 3c
        E 8 b0 08 3c
        E 8 b0 08 3d
        E 8 b0 08 3d
        E 8 b0 08 3e
        E 8 b0 08 3e
        E 8 b0 08 3f
        E 8 b0 08 3f
        E 8 b0 08 3f
        E 8 b0 08 3f
        E 8 b0 08 3f
        E 8 b0 08 3f
        E 8 b0 08 3f
        E 8 b0 08 3f
        E 8 b0 08 3f
        E 8 b0 08 3e
        E 8 b0 08 3e
        E 8 b0 08 3d
        E 8 b0 08 3d
        E 8 b0 08 3c
        E 8 b0 08 3b
        E 8 b0 08 3a
        E 8 b0 08 3a
        E 8 b0 08 39
        E 8 b0 08 38
        E 8 b0 08 37
        E 8 b0 08 36
        E 8 b0 08 34
        E 8 b0 08 33
        E 8 b0 08 32
        E 8 b0 08 31
        E 8 b0 08 2f
        E 8 b0 08 2e
        E 8 b0 08 2c
        E 8 b0 08 2b
        E 8 b0 08 2a
        E 8 b0 08 28
        E 8 b0 08 27
        E 8 b0 08 25
        E 8 b0 08 23
        E 8 b0 08 22
        E 8 b0 08 20
        E 8 b0 08 1f
        E 8 b0 08 1d
        E 8 b0 08 1c
        E 8 b0 08 1a
        E 8 b0 08 18
        E 8 b0 08 17
        E 8 b0 08 15
        E 8 b0 08 14
        E 8 b0 08 13
        E 8 b0 08 11
        E 8 b0 08 10
        E 8 b0 08 0e
        E 8 b0 08 0d
        E 8 b0 08 0c
        E 8 b0 08 0b
        E 8 b0 08 09
        E 8 b0 08 08
        E 8 b0 08 07
        E 8 b0 08 06
        E 8 b0 08 05
        E 8 b0 08 05
        E 8 b0 08 04
        E 8 b0 08 03
        E 8 b0 08 02
        E 8 b0 08 02
        E 8 b0 08 01
        E 8 b0 08 01
        E 8 b0 08 00
        E 8 b0 08 00
        E 8 b0 08 00
        E 8 b0 08 00
        E 8 b0 08 00
        E 8 b0 08 00
        E 8 b0 08 00
        E 8 b0 08 00
        E 8 b0 08 00
        E 8 b0 08 01
        E 8 b0 08 01
        E 8 b0 08 02
        E 8 b0 08 02
        E 8 b0 08 03
        E 8 b0 08 03
        E 8 b0 08 04
        E 8 b0 08 05
        E 8 b0 08 06
        E 8 b0 08 07
        E 8 b0 08 08
        E 8 b0 08 09
        E 8 b0 08 0a
        E 8 b0 08 0b
        E 8 b0 08 0c
        E 8 b0 08 0e
        E 8 b0 08 0f
        E 8 b0 08 10
        E 8 b0 08 12
        E 8 b0 08 13
        E 8 b0 08 15
        E 8 b0 08 16
        E 8 b0 08 18
        E 8 b0 08 19
        E 8 b0 08 1b
        E 8 b0 08 1c
        E 8 b0 08 1e
        E 8 b0 08 20
        E 11 b0 08 20
        E 11 b0 08 21
        E 11 b0 08 23
        E 11 b0 08 24
        E 11 b0 08 26
        E 11 b0 08 27
        E 11 b0 08 29
        E 11 b0 08 2a
        E 11 b0 08 2c
        E 11 b0 08 2d
        E 11 b0 08 2f
        E 11 b0 08 30
        E 11 b0 08 31
        E 11 b0 08 33
        E 11 b0 08 34
        E 11 b0 08 35
        E 11 b0 08 36
        E 11 b0 08 37
        E 11 b0 08 38
        E 11 b0 08 39
        E 11 b0 08 3a
        E 11 b0 08 3b
        E 11 b0 08 3c
        E 11 b0 08 3c
        E 11 b0 08 3d
        E 11 b0 08 3d
        E 11 b0 08 3e
        E 11 b0 08 3e
        E 11 b0 08 3f
        E 11 b0 08 3f
        E 11 b0 08 3f
        E 11 b0 08 3f
        E 11 b0 08 3f
        E 11 b0 08 3f
        E 11 b0 08 3f
        E 11 b0 08 3f
        E 11 b0 08 3f
        E 11 b0 08 3e
        E 11 b0 08 3e
        E 11 b0 08 3d
        E 11 b0 08 3d
        E 11 b0 08 3c
        E 11 b0 08 3b
        E 11 b0 08 3a
        E 11 b0 08 3a
        E 11 b0 08 39
        E 11 b0 08 38
        E 11 b0 08 37
        E 11 b0 08 36
        E 11 b0 08 34
        E 11 b0 08 33
        E 11 b0 08 32
        E 11 b0 08 31
        E 11 b0 08 2f
        E 11 b0 08 2e
        E 11 b0 08 2c
        E 11 b0 08 2b
        E 11 b0 08 2a
        E 11 b0 08 28
        E 11 b0 08 27
        E 11 b0 08 25
        E 11 b0 08 23
        E 11 b0 08 22
        E 11 b0 08 20
        E 11 b0 08 1f
        E 11 b0 08 1d
        E 11 b0 08 1c
        E 11 b0 08 1a
        E 11 b0 08 18
        E 11 b0 08 17
        E 11 b0 08 15
        E 11 b0 08 14
        E 11 b0 08 13
        E 11 b0 08 11
        E 11 b0 08 10
        E 11 b0 08 0e
        E 11 b0 08 0d
        E 11 b0 08 0c
        E 11 b0 08 0b
        E 11 b0 08 09
        E 11 b0 08 08
        E 11 b0 08 07
        E 11 b0 08 06
        E 11 b0 08 05
        E 11 b0 08 05
        E 11 b0 08 04
        E 11 b0 08 03
        E 11 b0 08 02
        E 11 b0 08 02
        E 11 b0 08 01
        E 11 b0 08 01
        E 11 b0 08 00
        E 11 b0 08 00
        E 11 b0 08 00
        E 11 b0 08 00
        E 11 b0 08 00
        E 11 b0 08 00
        E 11 b0 08 00
        E 11 b0 08 00
        E 11 b0 08 00
        E 11 b0 08 01
        E 11 b0 08 01
        E 11 b0 08 02
        E 11 b0 08 02
        E 11 b0 08 03
        E 11 b0 08 03
        E 11 b0 08 04
        E 11 b0 08 05
        E 11 b0 08 06
        E 11 b0 08 07
        E 11 b0 08 08
        E 11 b0 08 09
        E 11 b0 08 0a
        E 11 b0 08 0b
        E 11 b0 08 0c
        E 11 b0 08 0e
        E 11 b0 08 0f
        E 11 b0 08 10
        E 11 b0 08 12
        E 11 b0 08 13
        E 11 b0 08 15
        E 11 b0 08 16
        E 11 b0 08 18
        E 11 b0 08 19
        E 11 b0 08 1b
        E 11 b0 08 1c
        E 11 b0 08 1e
        E 11 b0 08 20
        E 13 b0 08 40
        E 13 b0 08 43
        E 13 b0 08 46
        E 13 b0 08 49
        E 13 b0 08 4c
        E 13 b0 08 4f
        E 13 b0 08 52
        E 13 b0 08 55
        E 13 b0 08 58
        E 13 b0 08 5b
        E 13 b0 08 5e
        E 13 b0 08 60
        E 13 b0 08 63
        E 13 b0 08 66
        E 13 b0 08 68
        E 13 b0 08 6a
        E 13 b0 08 6d
        E 13 b0 08 6f
        E 13 b0 08 71
        E 13 b0 08 73
        E 13 b0 08 75
        E 13 b0 08 76
        E 13 b0 08 78
        E 13 b0 08 79
        E 13 b0 08 7a
        E 13 b0 08 7b
        E 13 b0 08 7c
        E 13 b0 08 7d
        E 13 b0 08 7e
        E 13 b0 08 7e
        E 13 b0 08 7f
        E 13 b0 08 7f
        E 13 b0 08 7f
        E 13 b0 08 7f
        E 13 b0 08 7f
        E 13 b0 08 7e
        E 13 b0 08 7e
        E 13 b0 08 7d
        E 13 b0 08 7c
        E 13 b0 08 7b
        E 13 b0 08 7a
        E 13 b0 08 78
        E 13 b0 08 77
        E 13 b0 08 75
        E 13 b0 08 74
        E 13 b0 08 72
        E 13 b0 08 70
        E 13 b0 08 6e
        E 13 b0 08 6c
        E 13 b0 08 69
        E 13 b0 08 67
        E 13 b0 08 64
        E 13 b0 08 62
        E 13 b0 08 5f
        E 13 b0 08 5c
        E 13 b0 08 59
        E 13 b0 08 57
        E 13 b0 08 54
        E 13 b0 08 51
        E 13 b0 08 4e
        E 13 b0 08 4a
        E 13 b0 08 47
        E 13 b0 08 44
        E 13 b0 08 41
        E 13 b0 08 3e
        E 13 b0 08 3b
        E 13 b0 08 38
        E 13 b0 08 35
        E 13 b0 08 31
        E 13 b0 08 2e
        E 13 b0 08 2b
        E 13 b0 08 28
        E 13 b0 08 26
        E 13 b0 08 23
        E 13 b0 08 20
        E 13 b0 08 1d
        E 13 b0 08 1b
        E 13 b0 08 18
        E 13 b0 08 16
        E 13 b0 08 13
        E 13 b0 08 11
        E 13 b0 08 0f
        E 13 b0 08 0d
        E 13 b0 08 0b
        E 13 b0 08 0a
        E 13 b0 08 08
        E 13 b0 08 07
        E 13 b0 08 05
        E 13 b0 08 04
        E 13 b0 08 03
        E 13 b0 08 02
        E 13 b0 08 01
        E 13 b0 08 01
        E 13 b0 08 00
        E 13 b0 08 00
        E 13 b0 08 00
        E 13 b0 08 00
        E 13 b0 08 00
        E 13 b0 08 01
        E 13 b0 08 01
        E 13 b0 08 02
        E 13 b0 08 03
        E 13 b0 08 04
        E 13 b0 08 05
        E 13 b0 08 06
        E 13 b0 08 07
        E 13 b0 08 09
        E 13 b0 08 0a
        E 13 b0 08 0c
        E 13 b0 08 0e
        E 13 b0 08 10
        E 13 b0 08 12
        E 13 b0 08 15
        E 13 b0 08 17
        E 13 b0 08 19
        E 13 b0 08 1c
        E 13 b0 08 1f
        E 13 b0 08 21
        E 13 b0 08 24
        E 13 b0 08 27
        E 13 b0 08 2a
        E 13 b0 08 2d
        E 13 b0 08 30
        E 13 b0 08 33
        E 13 b0 08 36
        E 13 b0 08 39
        E 13 b0 08 3c
        E 13 b0 08 40
        E 11 b0 08 39
        E 11 b0 08 3c
        E 11 b0 08 3f
        E 11 b0 08 41
        E 11 b0 08 44
        E 11 b0 08 47
        E 11 b0 08 49
        E 11 b0 08 4c
        E 11 b0 08 4f
        E 11 b0 08 51
        E 11 b0 08 54
        E 11 b0 08 56
        E 11 b0 08 59
        E 11 b0 08 5b
        E 11 b0 08 5d
        E 11 b0 08 5f
        E 11 b0 08 62
        E 11 b0 08 63
        E 11 b0 08 65
        E 11 b0 08 67
        E 11 b0 08 69
        E 11 b0 08 6a
        E 11 b0 08 6c
        E 11 b0 08 6c
        E 11 b0 08 6d
        E 11 b0 08 6e
        E 11 b0 08 6f
        E 11 b0 08 70
        E 11 b0 08 71
        E 11 b0 08 71
        E 11 b0 08 72
        E 11 b0 08 72
        E 11 b0 08 72
        E 11 b0 08 72
        E 11 b0 08 72
        E 11 b0 08 71
        E 11 b0 08 71
        E 11 b0 08 70
        E 11 b0 08 6f
        E 11 b0 08 6e
        E 11 b0 08 6d
        E 11 b0 08 6c
        E 11 b0 08 6b
        E 11 b0 08 69
        E 11 b0 08 68
        E 11 b0 08 66
        E 11 b0 08 64
        E 11 b0 08 63
        E 11 b0 08 61
        E 11 b0 08 5e
        E 11 b0 08 5c
        E 11 b0 08 5a
        E 11 b0 08 58
        E 11 b0 08 55
        E 11 b0 08 52
        E 11 b0 08 50
        E 11 b0 08 4e
        E 11 b0 08 4b
        E 11 b0 08 48
        E 11 b0 08 46
        E 11 b0 08 42
        E 11 b0 08 3f
        E 11 b0 08 3d
        E 11 b0 08 3a
        E 11 b0 08 37
        E 11 b0 08 35
        E 11 b0 08 32
        E 11 b0 08 2f
        E 11 b0 08 2c
        E 11 b0 08 29
        E 11 b0 08 26
        E 11 b0 08 24
        E 11 b0 08 22
        E 11 b0 08 1f
        E 11 b0 08 1c
        E 11 b0 08 1a
        E 11 b0 08 18
        E 11 b0 08 15
        E 11 b0 08 13
        E 11 b0 08 11
        E 11 b0 08 0f
        E 11 b0 08 0d
        E 11 b0 08 0b
        E 11 b0 08 09
        E 11 b0 08 09
        E 11 b0 08 07
        E 11 b0 08 06
        E 11 b0 08 04
        E 11 b0 08 03
        E 11 b0 08 02
        E 11 b0 08 01
        E 11 b0 08 00
        E 11 b0 08 00
        E 11 b0 08 00
        E 11 b0 08 00
        E 11 b0 08 00
        E 11 b0 08 00
        E 11 b0 08 00
        E 11 b0 08 00
        E 11 b0 08 00
        E 11 b0 08 01
        E 11 b0 08 02
        E 11 b0 08 03
        E 11 b0 08 04
        E 11 b0 08 05
        E 11 b0 08 06
        E 11 b0 08 08
        E 11 b0 08 09
        E 11 b0 08 0a
        E 11 b0 08 0c
        E 11 b0 08 0e
        E 11 b0 08 10
        E 11 b0 08 12
        E 11 b0 08 14
        E 11 b0 08 16
        E 11 b0 08 19
        E 11 b0 08 1b
        E 11 b0 08 1d
        E 11 b0 08 20
        E 11 b0 08 23
        E 11 b0 08 25
        E 11 b0 08 28
        E 11 b0 08 2b
        E 11 b0 08 2d
        E 11 b0 08 30
        E 11 b0 08 33
        E 11 b0 08 36
        E 11 b0 08 39
        E 8 b0 08 20
        E 8 b0 08 21
        E 8 b0 08 23
        E 8 b0 08 24
        E 8 b0 08 26
        E 8 b0 08 27
        E 8 b0 08 29
        E 8 b0 08 2a
        E 8 b0 08 2c
        E 8 b0 08 2d
        E 8 b0 08 2f
        E 8 b0 08 30
        E 8 b0 08 31
        E 8 b0 08 33
        E 8 b0 08 34
        E 8 b0 08 35
        E 8 b0 08 36
        E 8 b0 08 37
        E 8 b0 08 38
        E 8 b0 08 39
        E 8 b0 08 3a
        E 8 b0 08 3b
        E 8 b0 08 3c
        E 8 b0 08 3c
        E 8 b0 08 3d
        E 8 b0 08 3d
        E 8 b0 08 3e
        E 8 b0 08 3e
        E 8 b0 08 3f
        E 8 b0 08 3f
        E 8 b0 08 3f
        E 8 b0 08 3f
        E 8 b0 08 3f
        E 8 b0 08 3f
        E 8 b0 08 3f
        E 8 b0 08 3f
        E 8 b0 08 3f
        E 8 b0 08 3e
        E 8 b0 08 3e
        E 8 b0 08 3d
        E 8 b0 08 3d
        E 8 b0 08 3c
        E 8 b0 08 3b
        E 8 b0 08 3a
        E 8 b0 08 3a
        E 8 b0 08 39
        E 8 b0 08 38
        E 8 b0 08 37
        E 8 b0 08 36
        E 8 b0 08 34
        E 8 b0 08 33
        E 8 b0 08 32
        E 8 b0 08 31
        E 8 b0 08 2f
        E 8 b0 08 2e
        E 8 b0 08 2c
        E 8 b0 08 2b
        E 8 b0 08 2a
        E 8 b0 08 28
        E 8 b0 08 27
        E 8 b0 08 25
        E 8 b0 08 23
        E 8 b0 08 22
        E 8 b0 08 20
        E 8 b0 08 1f
        E 8 b0 08 1d
        E 8 b0 08 1c
        E 8 b0 08 1a
        E 8 b0 08 18
        E 8 b0 08 17
        E 8 b0 08 15
        E 8 b0 08 14
        E 8 b0 08 13
        E 8 b0 08 11
        E 8 b0 08 10
        E 8 b0 08 0e
        E 8 b0 08 0d
        E 8 b0 08 0c
        E 8 b0 08 0b
        E 8 b0 08 09
        E 8 b0 08 08
        E 8 b0 08 07
        E 8 b0 08 06
        E 8 b0 08 05
        E 8 b0 08 05
        E 8 b0 08 04
        E 8 b0 08 03
        E 8 b0 08 02
        E 8 b0 08 02
        E 8 b0 08 01
        E 8 b0 08 01
        E 8 b0 08 00
        E 8 b0 08 00
        E 8 b0 08 00
        E 8 b0 08 00
        E 8 b0 08 00
        E 8 b0 08 00
        E 8 b0 08 00
        E 8 b0 08 00
        E 8 b0 08 00
        E 8 b0 08 01
        E 8 b0 08 01
        E 8 b0 08 02
        E 8 b0 08 02
        E 8 b0 08 03
        E 8 b0 08 03
        E 8 b0 08 04
        E 8 b0 08 05
        E 8 b0 08 06
        E 8 b0 08 07
        E 8 b0 08 08
        E 8 b0 08 09
        E 8 b0 08 0a
        E 8 b0 08 0b
        E 8 b0 08 0c
        E 8 b0 08 0e
        E 8 b0 08 0f
        E 8 b0 08 10
        E 8 b0 08 12
        E 8 b0 08 13
        E 8 b0 08 15
        E 8 b0 08 16
        E 8 b0 08 18
        E 8 b0 08 19
        E 8 b0 08 1b
        E 8 b0 08 1c
        E 8 b0 08 1e
        E 8 b0 08 20
        E 8 b0 08 20
        E 8 b0 08 21
        E 8 b0 08 23
        E 8 b0 08 24
        E 8 b0 08 26
        E 8 b0 08 27
        E 8 b0 08 29
        E 8 b0 08 2a
        E 8 b0 08 2c
        E 8 b0 08 2d
        E 8 b0 08 2f
        E 8 b0 08 30
        E 8 b0 08 31
        E 8 b0 08 33
        E 8 b0 08 34
        E 8 b0 08 35
        E 8 b0 08 36
        E 8 b0 08 37
        E 8 b0 08 38
        E 8 b0 08 39
        E 8 b0 08 3a
        E 8 b0 08 3b
        E 8 b0 08 3c
        E 8 b0 08 3c
        E 8 b0 08 3d
        E 8 b0 08 3d
        E 8 b0 08 3e
        E 8 b0 08 3e
        E 8 b0 08 3f
        E 8 b0 08 3f
        E 8 b0 08 3f
        E 8 b0 08 3f
        E 8 b0 08 3f
        E 8 b0 08 3f
        E 8 b0 08 3f
        E 8 b0 08 3f
        E 8 b0 08 3f
        E 8 b0 08 3e
        E 8 b0 08 3e
        E 8 b0 08 3d
        E 8 b0 08 3d
        E 8 b0 08 3c
        E 8 b0 08 3b
        E 8 b0 08 3a
        E 8 b0 08 3a
        E 8 b0 08 39
        E 8 b0 08 38
        E 8 b0 08 37
        E 8 b0 08 36
        E 8 b0 08 34
        E 8 b0 08 33
        E 8 b0 08 32
        E 8 b0 08 31
        E 8 b0 08 2f
        E 8 b0 08 2e
        E 8 b0 08 2c
        E 8 b0 08 2b
        E 8 b0 08 2a
        E 8 b0 08 28
        E 8 b0 08 27
        E 8 b0 08 25
        E 8 b0 08 23
        E 8 b0 08 22
        E 8 b0 08 20
        E 8 b0 08 1f
        E 8 b0 08 1d
        E 8 b0 08 1c
        E 8 b0 08 1a
        E 8 b0 08 18
        E 8 b0 08 17
        E 8 b0 08 15
        E 8 b0 08 14
        E 8 b0 08 13
        E 8 b0 08 11
        E 8 b0 08 10
        E 8 b0 08 0e
        E 8 b0 08 0d
        E 8 b0 08 0c
        E 8 b0 08 0b
        E 8 b0 08 09
        E 8 b0 08 08
        E 8 b0 08 07
        E 8 b0 08 06
        E 8 b0 08 05
        E 8 b0 08 05
        E 8 b0 08 04
        E 8 b0 08 03
        E 8 b0 08 02
        E 8 b0 08 02
        E 8 b0 08 01
        E 8 b0 08 01
        E 8 b0 08 00
        E 8 b0 08 00
        E 8 b0 08 00
        E 8 b0 08 00
        E 8 b0 08 00
        E 8 b0 08 00
        E 8 b0 08 00
        E 8 b0 08 00
        E 8 b0 08 00
        E 8 b0 08 01
        E 8 b0 08 01
        E 8 b0 08 02
        E 8 b0 08 02
        E 8 b0 08 03
        E 8 b0 08 03
        E 8 b0 08 04
        E 8 b0 08 05
        E 8 b0 08 06
        E 8 b0 08 07
        E 8 b0 08 08
        E 8 b0 08 09
        E 8 b0 08 0a
        E 8 b0 08 0b
        E 8 b0 08 0c
        E 8 b0 08 0e
        E 8 b0 08 0f
        E 8 b0 08 10
        E 8 b0 08 12
        E 8 b0 08 13
        E 8 b0 08 15
        E 8 b0 08 16
        E 8 b0 08 18
        E 8 b0 08 19
        E 8 b0 08 1b
        E 8 b0 08 1c
        E 8 b0 08 1e
        E 8 b0 08 20
        E 17 b0 08 2c
        E 17 b0 08 2e
        E 17 b0 08 31
        E 17 b0 08 33
        E 17 b0 08 35
        E 17 b0 08 37
        E 17 b0 08 39
        E 17 b0 08 3b
        E 17 b0 08 3d
        E 17 b0 08 3f
        E 17 b0 08 41
        E 17 b0 08 43
        E 17 b0 08 45
        E 17 b0 08 47
        E 17 b0 08 48
        E 17 b0 08 4a
        E 17 b0 08 4c
        E 17 b0 08 4d
        E 17 b0 08 4f
        E 17 b0 08 50
        E 17 b0 08 51
        E 17 b0 08 52
        E 17 b0 08 54
        E 17 b0 08 54
        E 17 b0 08 55
        E 17 b0 08 56
        E 17 b0 08 56
        E 17 b0 08 57
        E 17 b0 08 58
        E 17 b0 08 58
        E 17 b0 08 58
        E 17 b0 08 58
        E 17 b0 08 58
        E 17 b0 08 58
        E 17 b0 08 58
        E 17 b0 08 58
        E 17 b0 08 58
        E 17 b0 08 57
        E 17 b0 08 56
        E 17 b0 08 56
        E 17 b0 08 55
        E 17 b0 08 54
        E 17 b0 08 53
        E 17 b0 08 51
        E 17 b0 08 51
        E 17 b0 08 4f
        E 17 b0 08 4e
        E 17 b0 08 4d
        E 17 b0 08 4b
        E 17 b0 08 49
        E 17 b0 08 48
        E 17 b0 08 46
        E 17 b0 08 44
        E 17 b0 08 42
        E 17 b0 08 40
        E 17 b0 08 3e
        E 17 b0 08 3c
        E 17 b0 08 3a
        E 17 b0 08 38
        E 17 b0 08 36
        E 17 b0 08 33
        E 17 b0 08 31
        E 17 b0 08 2f
        E 17 b0 08 2d
        E 17 b0 08 2b
        E 17 b0 08 29
        E 17 b0 08 27
        E 17 b0 08 25
        E 17 b0 08 22
        E 17 b0 08 20
        E 17 b0 08 1e
        E 17 b0 08 1c
        E 17 b0 08 1a
        E 17 b0 08 18
        E 17 b0 08 16
        E 17 b0 08 14
        E 17 b0 08 12
        E 17 b0 08 10
        E 17 b0 08 0f
        E 17 b0 08 0d
        E 17 b0 08 0b
        E 17 b0 08 0a
        E 17 b0 08 09
        E 17 b0 08 07
        E 17 b0 08 07
        E 17 b0 08 05
        E 17 b0 08 04
        E 17 b0 08 03
        E 17 b0 08 02
        E 17 b0 08 02
        E 17 b0 08 01
        E 17 b0 08 00
        E 17 b0 08 00
        E 17 b0 08 00
        E 17 b0 08 00
        E 17 b0 08 00
        E 17 b0 08 00
        E 17 b0 08 00
        E 17 b0 08 00
        E 17 b0 08 00
        E 17 b0 08 01
        E 17 b0 08 02
        E 17 b0 08 02
        E 17 b0 08 03
        E 17 b0 08 04
        E 17 b0 08 04
        E 17 b0 08 06
        E 17 b0 08 07
        E 17 b0 08 08
        E 17 b0 08 09
        E 17 b0 08 0b
        E 17 b0 08 0c
        E 17 b0 08 0e
        E 17 b0 08 10
        E 17 b0 08 11
        E 17 b0 08 13
        E 17 b0 08 15
        E 17 b0 08 17
        E 17 b0 08 19
        E 17 b0 08 1b
        E 17 b0 08 1d
        E 17 b0 08 1f
        E 17 b0 08 21
        E 17 b0 08 23
        E 17 b0 08 25
        E 17 b0 08 27
        E 17 b0 08 2a
        E 17 b0 08 2c
        E 15 b0 08 33
        E 15 b0 08 35
        E 15 b0 08 37
        E 15 b0 08 3a
        E 15 b0 08 3c
        E 15 b0 08 3f
        E 15 b0 08 41
        E 15 b0 08 44
        E 15 b0 08 46
        E 15 b0 08 48
        E 15 b0 08 4b
        E 15 b0 08 4c
        E 15 b0 08 4f
        E 15 b0 08 51
        E 15 b0 08 53
        E 15 b0 08 54
        E 15 b0 08 57
        E 15 b0 08 58
        E 15 b0 08 5a
        E 15 b0 08 5b
        E 15 b0 08 5d
        E 15 b0 08 5e
        E 15 b0 08 5f
        E 15 b0 08 60
        E 15 b0 08 61
        E 15 b0 08 62
        E 15 b0 08 63
        E 15 b0 08 63
        E 15 b0 08 64
        E 15 b0 08 64
        E 15 b0 08 65
        E 15 b0 08 65
        E 15 b0 08 65
        E 15 b0 08 65
        E 15 b0 08 65
        E 15 b0 08 64
        E 15 b0 08 64
        E 15 b0 08 63
        E 15 b0 08 63
        E 15 b0 08 62
        E 15 b0 08 61
        E 15 b0 08 5f
        E 15 b0 08 5f
        E 15 b0 08 5d
        E 15 b0 08 5c
        E 15 b0 08 5b
        E 15 b0 08 59
        E 15 b0 08 57
        E 15 b0 08 56
        E 15 b0 08 54
        E 15 b0 08 52
        E 15 b0 08 50
        E 15 b0 08 4e
        E 15 b0 08 4c
        E 15 b0 08 49
        E 15 b0 08 47
        E 15 b0 08 45
        E 15 b0 08 43
        E 15 b0 08 40
        E 15 b0 08 3e
        E 15 b0 08 3b
        E 15 b0 08 38
        E 15 b0 08 36
        E 15 b0 08 33
        E 15 b0 08 31
        E 15 b0 08 2f
        E 15 b0 08 2c
        E 15 b0 08 2a
        E 15 b0 08 27
        E 15 b0 08 24
        E 15 b0 08 22
        E 15 b0 08 1f
        E 15 b0 08 1e
        E 15 b0 08 1b
        E 15 b0 08 19
        E 15 b0 08 17
        E 15 b0 08 15
        E 15 b0 08 13
        E 15 b0 08 11
        E 15 b0 08 0f
        E 15 b0 08 0d
        E 15 b0 08 0b
        E 15 b0 08 0a
        E 15 b0 08 08
        E 15 b0 08 07
        E 15 b0 08 06
        E 15 b0 08 05
        E 15 b0 08 03
        E 15 b0 08 03
        E 15 b0 08 02
        E 15 b0 08 01
        E 15 b0 08 00
        E 15 b0 08 00
        E 15 b0 08 00
        E 15 b0 08 00
        E 15 b0 08 00
        E 15 b0 08 00
        E 15 b0 08 00
        E 15 b0 08 00
        E 15 b0 08 00
        E 15 b0 08 01
        E 15 b0 08 02
        E 15 b0 08 03
        E 15 b0 08 03
        E 15 b0 08 04
        E 15 b0 08 05
        E 15 b0 08 07
        E 15 b0 08 07
        E 15 b0 08 09
        E 15 b0 08 0b
        E 15 b0 08 0c
        E 15 b0 08 0e
        E 15 b0 08 10
        E 15 b0 08 12
        E 15 b0 08 14
        E 15 b0 08 16
        E 15 b0 08 18
        E 15 b0 08 1a
        E 15 b0 08 1c
        E 15 b0 08 1f
        E 15 b0 08 21
        E 15 b0 08 24
        E 15 b0 08 26
        E 15 b0 08 28
        E 15 b0 08 2b
        E 15 b0 08 2d
        E 15 b0 08 2f
        E 15 b0 08 33
        E 17 b0 08 06
        E 17 b0 08 06
        E 17 b0 08 07
        E 17 b0 08 07
        E 17 b0 08 07
        E 17 b0 08 07
        E 17 b0 08 08
        E 17 b0 08 08
        E 17 b0 08 08
        E 17 b0 08 09
        E 17 b0 08 09
        E 17 b0 08 09
        E 17 b0 08 09
        E 17 b0 08 0a
        E 17 b0 08 0a
        E 17 b0 08 0a
        E 17 b0 08 0a
        E 17 b0 08 0b
        E 17 b0 08 0b
        E 17 b0 08 0b
        E 17 b0 08 0b
        E 17 b0 08 0b
        E 17 b0 08 0c
        E 17 b0 08 0c
        E 17 b0 08 0c
        E 17 b0 08 0c
        E 17 b0 08 0c
        E 17 b0 08 0c
        E 17 b0 08 0c
        E 17 b0 08 0c
        E 17 b0 08 0c
        E 17 b0 08 0c
        E 17 b0 08 0c
        E 17 b0 08 0c
        E 17 b0 08 0c
        E 17 b0 08 0c
        E 17 b0 08 0c
        E 17 b0 08 0c
        E 17 b0 08 0c
        E 17 b0 08 0c
        E 17 b0 08 0c
        E 17 b0 08 0c
        E 17 b0 08 0b
        E 17 b0 08 0b
        E 17 b0 08 0b
        E 17 b0 08 0b
        E 17 b0 08 0b
        E 17 b0 08 0b
        E 17 b0 08 0a
        E 17 b0 08 0a
        E 17 b0 08 0a
        E 17 b0 08 0a
        E 17 b0 08 09
        E 17 b0 08 09
        E 17 b0 08 09
        E 17 b0 08 08
        E 17 b0 08 08
        E 17 b0 08 08
        E 17 b0 08 08
        E 17 b0 08 07
        E 17 b0 08 07
        E 17 b0 08 07
        E 17 b0 08 06
        E 17 b0 08 06
        E 17 b0 08 06
        E 17 b0 08 05
        E 17 b0 08 05
        E 17 b0 08 05
        E 17 b0 08 04
        E 17 b0 08 04
        E 17 b0 08 04
        E 17 b0 08 04
        E 17 b0 08 03
        E 17 b0 08 03
        E 17 b0 08 03
        E 17 b0 08 02
        E 17 b0 08 02
        E 17 b0 08 02
        E 17 b0 08 02
        E 17 b0 08 01
        E 17 b0 08 01
        E 17 b0 08 01
        E 17 b0 08 01
        E 17 b0 08 01
        E 17 b0 08 01
        E 17 b0 08 00
        E 17 b0 08 00
        E 17 b0 08 00
        E 17 b0 08 00
        E 17 b0 08 00
        E 17 b0 08 00
        E 17 b0 08 00
        E 17 b0 08 00
        E 17 b0 08 00
        E 17 b0 08 00
        E 17 b0 08 00
        E 17 b0 08 00
        E 17 b0 08 00
        E 17 b0 08 00
        E 17 b0 08 00
        E 17 b0 08 00
        E 17 b0 08 00
        E 17 b0 08 00
        E 17 b0 08 00
        E 17 b0 08 00
        E 17 b0 08 00
        E 17 b0 08 00
        E 17 b0 08 01
        E 17 b0 08 01
        E 17 b0 08 01
        E 17 b0 08 01
        E 17 b0 08 01
        E 17 b0 08 02
        E 17 b0 08 02
        E 17 b0 08 02
        E 17 b0 08 02
        E 17 b0 08 03
        E 17 b0 08 03
        E 17 b0 08 03
        E 17 b0 08 03
        E 17 b0 08 04
        E 17 b0 08 04
        E 17 b0 08 04
        E 17 b0 08 05
        E 17 b0 08 05
        E 17 b0 08 05
        E 17 b0 08 06
        E 17 b0 08 06
        E 15 b0 08 19
        E 15 b0 08 1a
        E 15 b0 08 1c
        E 15 b0 08 1d
        E 15 b0 08 1e
        E 15 b0 08 1f
        E 15 b0 08 20
        E 15 b0 08 22
        E 15 b0 08 23
        E 15 b0 08 24
        E 15 b0 08 25
        E 15 b0 08 26
        E 15 b0 08 27
        E 15 b0 08 28
        E 15 b0 08 29
        E 15 b0 08 2a
        E 15 b0 08 2b
        E 15 b0 08 2c
        E 15 b0 08 2d
        E 15 b0 08 2e
        E 15 b0 08 2e
        E 15 b0 08 2f
        E 15 b0 08 30
        E 15 b0 08 30
        E 15 b0 08 30
        E 15 b0 08 31
        E 15 b0 08 31
        E 15 b0 08 32
        E 15 b0 08 32
        E 15 b0 08 32
        E 15 b0 08 32
        E 15 b0 08 32
        E 15 b0 08 32
        E 15 b0 08 32
        E 15 b0 08 32
        E 15 b0 08 32
        E 15 b0 08 32
        E 15 b0 08 32
        E 15 b0 08 31
        E 15 b0 08 31
        E 15 b0 08 30
        E 15 b0 08 30
        E 15 b0 08 2f
        E 15 b0 08 2e
        E 15 b0 08 2e
        E 15 b0 08 2d
        E 15 b0 08 2c
        E 15 b0 08 2c
        E 15 b0 08 2b
        E 15 b0 08 2a
        E 15 b0 08 29
        E 15 b0 08 28
        E 15 b0 08 27
        E 15 b0 08 26
        E 15 b0 08 24
        E 15 b0 08 23
        E 15 b0 08 22
        E 15 b0 08 21
        E 15 b0 08 20
        E 15 b0 08 1f
        E 15 b0 08 1d
        E 15 b0 08 1c
        E 15 b0 08 1b
        E 15 b0 08 1a
        E 15 b0 08 18
        E 15 b0 08 17
        E 15 b0 08 16
        E 15 b0 08 15
        E 15 b0 08 13
        E 15 b0 08 12
        E 15 b0 08 11
        E 15 b0 08 10
        E 15 b0 08 0f
        E 15 b0 08 0e
        E 15 b0 08 0c
        E 15 b0 08 0b
        E 15 b0 08 0a
        E 15 b0 08 09
        E 15 b0 08 08
        E 15 b0 08 07
        E 15 b0 08 06
        E 15 b0 08 06
        E 15 b0 08 05
        E 15 b0 08 04
        E 15 b0 08 04
        E 15 b0 08 03
        E 15 b0 08 02
        E 15 b0 08 02
        E 15 b0 08 01
        E 15 b0 08 01
        E 15 b0 08 00
        E 15 b0 08 00
        E 15 b0 08 00
        E 15 b0 08 00
        E 15 b0 08 00
        E 15 b0 08 00
        E 15 b0 08 00
        E 15 b0 08 00
        E 15 b0 08 00
        E 15 b0 08 00
        E 15 b0 08 00
        E 15 b0 08 01
        E 15 b0 08 01
        E 15 b0 08 02
        E 15 b0 08 02
        E 15 b0 08 02
        E 15 b0 08 03
        E 15 b0 08 04
        E 15 b0 08 04
        E 15 b0 08 05
        E 15 b0 08 06
        E 15 b0 08 07
        E 15 b0 08 08
        E 15 b0 08 09
        E 15 b0 08 0a
        E 15 b0 08 0b
        E 15 b0 08 0c
        E 15 b0 08 0d
        E 15 b0 08 0e
        E 15 b0 08 0f
        E 15 b0 08 10
        E 15 b0 08 12
        E 15 b0 08 13
        E 15 b0 08 14
        E 15 b0 08 15
        E 15 b0 08 16
        E 15 b0 08 18
        E 15 b0 08 19
        E 8 b0 08 2c
        E 8 b0 08 2e
        E 8 b0 08 31
        E 8 b0 08 33
        E 8 b0 08 35
        E 8 b0 08 37
        E 8 b0 08 39
        E 8 b0 08 3b
        E 8 b0 08 3d
        E 8 b0 08 3f
        E 8 b0 08 41
        E 8 b0 08 43
        E 8 b0 08 45
        E 8 b0 08 47
        E 8 b0 08 48
        E 8 b0 08 4a
        E 8 b0 08 4c
        E 8 b0 08 4d
        E 8 b0 08 4f
        E 8 b0 08 50
        E 8 b0 08 51
        E 8 b0 08 52
        E 8 b0 08 54
        E 8 b0 08 54
        E 8 b0 08 55
        E 8 b0 08 56
        E 8 b0 08 56
        E 8 b0 08 57
        E 8 b0 08 58
        E 8 b0 08 58
        E 8 b0 08 58
        E 8 b0 08 58
        E 8 b0 08 58
        E 8 b0 08 58
        E 8 b0 08 58
        E 8 b0 08 58
        E 8 b0 08 58
        E 8 b0 08 57
        E 8 b0 08 56
        E 8 b0 08 56
        E 8 b0 08 55
        E 8 b0 08 54
        E 8 b0 08 53
        E 8 b0 08 51
        E 8 b0 08 51
        E 8 b0 08 4f
        E 8 b0 08 4e
        E 8 b0 08 4d
        E 8 b0 08 4b
        E 8 b0 08 49
        E 8 b0 08 48
        E 8 b0 08 46
        E 8 b0 08 44
        E 8 b0 08 42
        E 8 b0 08 40
        E 8 b0 08 3e
        E 8 b0 08 3c
        E 8 b0 08 3a
        E 8 b0 08 38
        E 8 b0 08 36
        E 8 b0 08 33
        E 8 b0 08 31
        E 8 b0 08 2f
        E 8 b0 08 2d
        E 8 b0 08 2b
        E 8 b0 08 29
        E 8 b0 08 27
        E 8 b0 08 25
        E 8 b0 08 22
        E 8 b0 08 20
        E 8 b0 08 1e
        E 8 b0 08 1c
        E 8 b0 08 1a
        E 8 b0 08 18
        E 8 b0 08 16
        E 8 b0 08 14
        E 8 b0 08 12
        E 8 b0 08 10
        E 8 b0 08 0f
        E 8 b0 08 0d
        E 8 b0 08 0b
        E 8 b0 08 0a
        E 8 b0 08 09
        E 8 b0 08 07
        E 8 b0 08 07
        E 8 b0 08 05
        E 8 b0 08 04
        E 8 b0 08 03
        E 8 b0 08 02
        E 8 b0 08 02
        E 8 b0 08 01
        E 8 b0 08 00
        E 8 b0 08 00
        E 8 b0 08 00
        E 8 b0 08 00
        E 8 b0 08 00
        E 8 b0 08 00
        E 8 b0 08 00
        E 8 b0 08 00
        E 8 b0 08 00
        E 8 b0 08 01
        E 8 b0 08 02
        E 8 b0 08 02
        E 8 b0 08 03
        E 8 b0 08 04
        E 8 b0 08 04
        E 8 b0 08 06
        E 8 b0 08 07
        E 8 b0 08 08
        E 8 b0 08 09
        E 8 b0 08 0b
        E 8 b0 08 0c
        E 8 b0 08 0e
        E 8 b0 08 10
        E 8 b0 08 11
        E 8 b0 08 13
        E 8 b0 08 15
        E 8 b0 08 17
        E 8 b0 08 19
        E 8 b0 08 1b
        E 8 b0 08 1d
        E 8 b0 08 1f
        E 8 b0 08 21
        E 8 b0 08 23
        E 8 b0 08 25
        E 8 b0 08 27
        E 8 b0 08 2a
        E 8 b0 08 2c
        E 8 b0 08 20
        E 8 b0 08 21
        E 8 b0 08 23
        E 8 b0 08 24
        E 8 b0 08 26
        E 8 b0 08 27
        E 8 b0 08 29
        E 8 b0 08 2a
        E 8 b0 08 2c
        E 8 b0 08 2d
        E 8 b0 08 2f
        E 8 b0 08 30
        E 8 b0 08 31
        E 8 b0 08 33
        E 8 b0 08 34
        E 8 b0 08 35
        E 8 b0 08 36
        E 8 b0 08 37
        E 8 b0 08 38
        E 8 b0 08 39
        E 8 b0 08 3a
        E 8 b0 08 3b
        E 8 b0 08 3c
        E 8 b0 08 3c
        E 8 b0 08 3d
        E 8 b0 08 3d
        E 8 b0 08 3e
        E 8 b0 08 3e
        E 8 b0 08 3f
        E 8 b0 08 3f
        E 8 b0 08 3f
        E 8 b0 08 3f
        E 8 b0 08 3f
        E 8 b0 08 3f
        E 8 b0 08 3f
        E 8 b0 08 3f
        E 8 b0 08 3f
        E 8 b0 08 3e
        E 8 b0 08 3e
        E 8 b0 08 3d
        E 8 b0 08 3d
        E 8 b0 08 3c
        E 8 b0 08 3b
        E 8 b0 08 3a
        E 8 b0 08 3a
        E 8 b0 08 39
        E 8 b0 08 38
        E 8 b0 08 37
        E 8 b0 08 36
        E 8 b0 08 34
        E 8 b0 08 33
        E 8 b0 08 32
        E 8 b0 08 31
        E 8 b0 08 2f
        E 8 b0 08 2e
        E 8 b0 08 2c
        E 8 b0 08 2b
        E 8 b0 08 2a
        E 8 b0 08 28
        E 8 b0 08 27
        E 8 b0 08 25
        E 8 b0 08 23
        E 8 b0 08 22
        E 8 b0 08 20
        E 8 b0 08 1f
        E 8 b0 08 1d
        E 8 b0 08 1c
        E 8 b0 08 1a
        E 8 b0 08 18
        E 8 b0 08 17
        E 8 b0 08 15
        E 8 b0 08 14
        E 8 b0 08 13
        E 8 b0 08 11
        E 8 b0 08 10
        E 8 b0 08 0e
        E 8 b0 08 0d
        E 8 b0 08 0c
        E 8 b0 08 0b
        E 8 b0 08 09
        E 8 b0 08 08
        E 8 b0 08 07
        E 8 b0 08 06
        E 8 b0 08 05
        E 8 b0 08 05
        E 8 b0 08 04
        E 8 b0 08 03
        E 8 b0 08 02
        E 8 b0 08 02
        E 8 b0 08 01
        E 8 b0 08 01
        E 8 b0 08 00
        E 8 b0 08 00
        E 8 b0 08 00
        E 8 b0 08 00
        E 8 b0 08 00
        E 8 b0 08 00
        E 8 b0 08 00
        E 8 b0 08 00
        E 8 b0 08 00
        E 8 b0 08 01
        E 8 b0 08 01
        E 8 b0 08 02
        E 8 b0 08 02
        E 8 b0 08 03
        E 8 b0 08 03
        E 8 b0 08 04
        E 8 b0 08 05
        E 8 b0 08 06
        E 8 b0 08 07
        E 8 b0 08 08
        E 8 b0 08 09
        E 8 b0 08 0a
        E 8 b0 08 0b
        E 8 b0 08 0c
        E 8 b0 08 0e
        E 8 b0 08 0f
        E 8 b0 08 10
        E 8 b0 08 12
        E 8 b0 08 13
        E 8 b0 08 15
        E 8 b0 08 16
        E 8 b0 08 18
        E 8 b0 08 19
        E 8 b0 08 1b
        E 8 b0 08 1c
        E 8 b0 08 1e
        E 8 b0 08 20
        E 11 b0 08 20
        E 11 b0 08 21
        E 11 b0 08 23
        E 11 b0 08 24
        E 11 b0 08 26
        E 11 b0 08 27
        E 11 b0 08 29
        E 11 b0 08 2a
        E 11 b0 08 2c
        E 11 b0 08 2d
        E 11 b0 08 2f
        E 11 b0 08 30
        E 11 b0 08 31
        E 11 b0 08 33
        E 11 b0 08 34
        E 11 b0 08 35
        E 11 b0 08 36
        E 11 b0 08 37
        E 11 b0 08 38
        E 11 b0 08 39
        E 11 b0 08 3a
        E 11 b0 08 3b
        E 11 b0 08 3c
        E 11 b0 08 3c
        E 11 b0 08 3d
        E 11 b0 08 3d
        E 11 b0 08 3e
        E 11 b0 08 3e
        E 11 b0 08 3f
        E 11 b0 08 3f
        E 11 b0 08 3f
        E 11 b0 08 3f
        E 11 b0 08 3f
        E 11 b0 08 3f
        E 11 b0 08 3f
        E 11 b0 08 3f
        E 11 b0 08 3f
        E 11 b0 08 3e
        E 11 b0 08 3e
        E 11 b0 08 3d
        E 11 b0 08 3d
        E 11 b0 08 3c
        E 11 b0 08 3b
        E 11 b0 08 3a
        E 11 b0 08 3a
        E 11 b0 08 39
        E 11 b0 08 38
        E 11 b0 08 37
        E 11 b0 08 36
        E 11 b0 08 34
        E 11 b0 08 33
        E 11 b0 08 32
        E 11 b0 08 31
        E 11 b0 08 2f
        E 11 b0 08 2e
        E 11 b0 08 2c
        E 11 b0 08 2b
        E 11 b0 08 2a
        E 11 b0 08 28
        E 11 b0 08 27
        E 11 b0 08 25
        E 11 b0 08 23
        E 11 b0 08 22
        E 11 b0 08 20
        E 11 b0 08 1f
        E 11 b0 08 1d
        E 11 b0 08 1c
        E 11 b0 08 1a
        E 11 b0 08 18
        E 11 b0 08 17
        E 11 b0 08 15
        E 11 b0 08 14
        E 11 b0 08 13
        E 11 b0 08 11
        E 11 b0 08 10
        E 11 b0 08 0e
        E 11 b0 08 0d
        E 11 b0 08 0c
        E 11 b0 08 0b
        E 11 b0 08 09
        E 11 b0 08 08
        E 11 b0 08 07
        E 11 b0 08 06
        E 11 b0 08 05
        E 11 b0 08 05
        E 11 b0 08 04
        E 11 b0 08 03
        E 11 b0 08 02
        E 11 b0 08 02
        E 11 b0 08 01
        E 11 b0 08 01
        E 11 b0 08 00
        E 11 b0 08 00
        E 11 b0 08 00
        E 11 b0 08 00
        E 11 b0 08 00
        E 11 b0 08 00
        E 11 b0 08 00
        E 11 b0 08 00
        E 11 b0 08 00
        E 11 b0 08 01
        E 11 b0 08 01
        E 11 b0 08 02
        E 11 b0 08 02
        E 11 b0 08 03
        E 11 b0 08 03
        E 11 b0 08 04
        E 11 b0 08 05
        E 11 b0 08 06
        E 11 b0 08 07
        E 11 b0 08 08
        E 11 b0 08 09
        E 11 b0 08 0a
        E 11 b0 08 0b
        E 11 b0 08 0c
        E 11 b0 08 0e
        E 11 b0 08 0f
        E 11 b0 08 10
        E 11 b0 08 12
        E 11 b0 08 13
        E 11 b0 08 15
        E 11 b0 08 16
        E 11 b0 08 18
        E 11 b0 08 19
        E 11 b0 08 1b
        E 11 b0 08 1c
        E 11 b0 08 1e
        E 11 b0 08 20
        E 13 b0 08 40
        E 13 b0 08 43
        E 13 b0 08 46
        E 13 b0 08 49
        E 13 b0 08 4c
        E 13 b0 08 4f
        E 13 b0 08 52
        E 13 b0 08 55
        E 13 b0 08 58
        E 13 b0 08 5b
        E 13 b0 08 5e
        E 13 b0 08 60
        E 13 b0 08 63
        E 13 b0 08 66
        E 13 b0 08 68
        E 13 b0 08 6a
        E 13 b0 08 6d
        E 13 b0 08 6f
        E 13 b0 08 71
        E 13 b0 08 73
        E 13 b0 08 75
        E 13 b0 08 76
        E 13 b0 08 78
        E 13 b0 08 79
        E 13 b0 08 7a
        E 13 b0 08 7b
        E 13 b0 08 7c
        E 13 b0 08 7d
        E 13 b0 08 7e
        E 13 b0 08 7e
        E 13 b0 08 7f
        E 13 b0 08 7f
        E 13 b0 08 7f
        E 13 b0 08 7f
        E 13 b0 08 7f
        E 13 b0 08 7e
        E 13 b0 08 7e
        E 13 b0 08 7d
        E 13 b0 08 7c
        E 13 b0 08 7b
        E 13 b0 08 7a
        E 13 b0 08 78
        E 13 b0 08 77
        E 13 b0 08 75
        E 13 b0 08 74
        E 13 b0 08 72
        E 13 b0 08 70
        E 13 b0 08 6e
        E 13 b0 08 6c
        E 13 b0 08 69
        E 13 b0 08 67
        E 13 b0 08 64
        E 13 b0 08 62
        E 13 b0 08 5f
        E 13 b0 08 5c
        E 13 b0 08 59
        E 13 b0 08 57
        E 13 b0 08 54
        E 13 b0 08 51
        E 13 b0 08 4e
        E 13 b0 08 4a
        E 13 b0 08 47
        E 13 b0 08 44
        E 13 b0 08 41
        E 13 b0 08 3e
        E 13 b0 08 3b
        E 13 b0 08 38
        E 13 b0 08 35
        E 13 b0 08 31
        E 13 b0 08 2e
        E 13 b0 08 2b
        E 13 b0 08 28
        E 13 b0 08 26
        E 13 b0 08 23
        E 13 b0 08 20
        E 13 b0 08 1d
        E 13 b0 08 1b
        E 13 b0 08 18
        E 13 b0 08 16
        E 13 b0 08 13
        E 13 b0 08 11
        E 13 b0 08 0f
        E 13 b0 08 0d
        E 13 b0 08 0b
        E 13 b0 08 0a
        E 13 b0 08 08
        E 13 b0 08 07
        E 13 b0 08 05
        E 13 b0 08 04
        E 13 b0 08 03
        E 13 b0 08 02
        E 13 b0 08 01
        E 13 b0 08 01
        E 13 b0 08 00
        E 13 b0 08 00
        E 13 b0 08 00
        E 13 b0 08 00
        E 13 b0 08 00
        E 13 b0 08 01
        E 13 b0 08 01
        E 13 b0 08 02
        E 13 b0 08 03
        E 13 b0 08 04
        E 13 b0 08 05
        E 13 b0 08 06
        E 13 b0 08 07
        E 13 b0 08 09
        E 13 b0 08 0a
        E 13 b0 08 0c
        E 13 b0 08 0e
        E 13 b0 08 10
        E 13 b0 08 12
        E 13 b0 08 15
        E 13 b0 08 17
        E 13 b0 08 19
        E 13 b0 08 1c
        E 13 b0 08 1f
        E 13 b0 08 21
        E 13 b0 08 24
        E 13 b0 08 27
        E 13 b0 08 2a
        E 13 b0 08 2d
        E 13 b0 08 30
        E 13 b0 08 33
        E 13 b0 08 36
        E 13 b0 08 39
        E 13 b0 08 3c
        E 13 b0 08 40
        E 1 b0 08 39
        E 1 b0 08 3c
        E 1 b0 08 3f
        E 1 b0 08 41
        E 1 b0 08 44
        E 1 b0 08 47
        E 1 b0 08 49
        E 1 b0 08 4c
        E 1 b0 08 4f
        E 1 b0 08 51
        E 1 b0 08 54
        E 1 b0 08 56
        E 1 b0 08 59
        E 1 b0 08 5b
        E 1 b0 08 5d
        E 1 b0 08 5f
        E 1 b0 08 62
        E 1 b0 08 63
        E 1 b0 08 65
        E 1 b0 08 67
        E 1 b0 08 69
        E 1 b0 08 6a
        E 1 b0 08 6c
        E 1 b0 08 6c
        E 1 b0 08 6d
        E 1 b0 08 6e
        E 1 b0 08 6f
        E 1 b0 08 70
        E 1 b0 08 71
        E 1 b0 08 71
        E 1 b0 08 72
        E 1 b0 08 72
        E 1 b0 08 72
        E 1 b0 08 72
        E 1 b0 08 72
        E 1 b0 08 71
        E 1 b0 08 71
        E 1 b0 08 70
        E 1 b0 08 6f
        E 1 b0 08 6e
        E 1 b0 08 6d
        E 1 b0 08 6c
        E 1 b0 08 6b
        E 1 b0 08 69
        E 1 b0 08 68
        E 1 b0 08 66
        E 1 b0 08 64
        E 1 b0 08 63
        E 1 b0 08 61
        E 1 b0 08 5e
        E 1 b0 08 5c
        E 1 b0 08 5a
        E 1 b0 08 58
        E 1 b0 08 55
        E 1 b0 08 52
        E 1 b0 08 50
        E 1 b0 08 4e
        E 1 b0 08 4b
        E 1 b0 08 48
        E 1 b0 08 46
        E 1 b0 08 42
        E 1 b0 08 3f
        E 1 b0 08 3d
        E 1 b0 08 3a
        E 1 b0 08 37
        E 1 b0 08 35
        E 1 b0 08 32
        E 1 b0 08 2f
        E 1 b0 08 2c
        E 1 b0 08 29
        E 1 b0 08 26
        E 1 b0 08 24
        E 1 b0 08 22
        E 1 b0 08 1f
        E 1 b0 08 1c
        E 1 b0 08 1a
        E 1 b0 08 18
        E 1 b0 08 15
        E 1 b0 08 13
        E 1 b0 08 11
        E 1 b0 08 0f
        E 1 b0 08 0d
        E 1 b0 08 0b
        E 1 b0 08 09
        E 1 b0 08 09
        E 1 b0 08 07
        E 1 b0 08 06
        E 1 b0 08 04
        E 1 b0 08 03
        E 1 b0 08 02
        E 1 b0 08 01
        E 1 b0 08 00
        E 1 b0 08 00
        E 1 b0 08 00
        E 1 b0 08 00
        E 1 b0 08 00
        E 1 b0 08 00
        E 1 b0 08 00
        E 1 b0 08 00
        E 1 b0 08 00
        E 1 b0 08 01
        E 1 b0 08 02
        E 1 b0 08 03
        E 1 b0 08 04
        E 1 b0 08 05
        E 1 b0 08 06
        E 1 b0 08 08
        E 1 b0 08 09
        E 1 b0 08 0a
        E 1 b0 08 0c
        E 1 b0 08 0e
        E 1 b0 08 10
        E 1 b0 08 12
        E 1 b0 08 14
        E 1 b0 08 16
        E 1 b0 08 19
        E 1 b0 08 1b
        E 1 b0 08 1d
        E 1 b0 08 20
        E 1 b0 08 23
        E 1 b0 08 25
        E 1 b0 08 28
        E 1 b0 08 2b
        E 1 b0 08 2d
        E 1 b0 08 30
        E 1 b0 08 33
        E 1 b0 08 36
        E 1 b0 08 39
        E 6 b0 08 40
        E 6 b0 08 43
        E 6 b0 08 46
        E 6 b0 08 49
        E 6 b0 08 4c
        E 6 b0 08 4f
        E 6 b0 08 52
        E 6 b0 08 55
        E 6 b0 08 58
        E 6 b0 08 5b
        E 6 b0 08 5e
        E 6 b0 08 60
        E 6 b0 08 63
        E 6 b0 08 66
        E 6 b0 08 68
        E 6 b0 08 6a
        E 6 b0 08 6d
        E 6 b0 08 6f
        E 6 b0 08 71
        E 6 b0 08 73
        E 6 b0 08 75
        E 6 b0 08 76
        E 6 b0 08 78
        E 6 b0 08 79
        E 6 b0 08 7a
        E 6 b0 08 7b
        E 6 b0 08 7c
        E 6 b0 08 7d
        E 6 b0 08 7e
        E 6 b0 08 7e
        E 6 b0 08 7f
        E 6 b0 08 7f
        E 6 b0 08 7f
        E 6 b0 08 7f
        E 6 b0 08 7f
        E 6 b0 08 7e
        E 6 b0 08 7e
        E 6 b0 08 7d
        E 6 b0 08 7c
        E 6 b0 08 7b
        E 6 b0 08 7a
        E 6 b0 08 78
        E 6 b0 08 77
        E 6 b0 08 75
        E 6 b0 08 74
        E 6 b0 08 72
        E 6 b0 08 70
        E 6 b0 08 6e
        E 6 b0 08 6c
        E 6 b0 08 69
        E 6 b0 08 67
        E 6 b0 08 64
        E 6 b0 08 62
        E 6 b0 08 5f
        E 6 b0 08 5c
        E 6 b0 08 59
        E 6 b0 08 57
        E 6 b0 08 54
        E 6 b0 08 51
        E 6 b0 08 4e
        E 6 b0 08 4a
        E 6 b0 08 47
        E 6 b0 08 44
        E 6 b0 08 41
        E 6 b0 08 3e
        E 6 b0 08 3b
        E 6 b0 08 38
        E 6 b0 08 35
        E 6 b0 08 31
        E 6 b0 08 2e
        E 6 b0 08 2b
        E 6 b0 08 28
        E 6 b0 08 26
        E 6 b0 08 23
        E 6 b0 08 20
        E 6 b0 08 1d
        E 6 b0 08 1b
        E 6 b0 08 18
        E 6 b0 08 16
        E 6 b0 08 13
        E 6 b0 08 11
        E 6 b0 08 0f
        E 6 b0 08 0d
        E 6 b0 08 0b
        E 6 b0 08 0a
        E 6 b0 08 08
        E 6 b0 08 07
        E 6 b0 08 05
        E 6 b0 08 04
        E 6 b0 08 03
        E 6 b0 08 02
        E 6 b0 08 01
        E 6 b0 08 01
        E 6 b0 08 00
        E 6 b0 08 00
        E 6 b0 08 00
        E 6 b0 08 00
        E 6 b0 08 00
        E 6 b0 08 01
        E 6 b0 08 01
        E 6 b0 08 02
        E 6 b0 08 03
        E 6 b0 08 04
        E 6 b0 08 05
        E 6 b0 08 06
        E 6 b0 08 07
        E 6 b0 08 09
        E 6 b0 08 0a
        E 6 b0 08 0c
        E 6 b0 08 0e
        E 6 b0 08 10
        E 6 b0 08 12
        E 6 b0 08 15
        E 6 b0 08 17
        E 6 b0 08 19
        E 6 b0 08 1c
        E 6 b0 08 1f
        E 6 b0 08 21
        E 6 b0 08 24
        E 6 b0 08 27
        E 6 b0 08 2a
        E 6 b0 08 2d
        E 6 b0 08 30
        E 6 b0 08 33
        E 6 b0 08 36
        E 6 b0 08 39
        E 6 b0 08 3c
        E 6 b0 08 40
        E 11 b0 08 39
        E 11 b0 08 3c
        E 11 b0 08 3f
        E 11 b0 08 41
        E 11 b0 08 44
        E 11 b0 08 47
        E 11 b0 08 49
        E 11 b0 08 4c
        E 11 b0 08 4f
        E 11 b0 08 51
        E 11 b0 08 54
        E 11 b0 08 56
        E 11 b0 08 59
        E 11 b0 08 5b
        E 11 b0 08 5d
        E 11 b0 08 5f
        E 11 b0 08 62
        E 11 b0 08 63
        E 11 b0 08 65
        E 11 b0 08 67
        E 11 b0 08 69
        E 11 b0 08 6a
        E 11 b0 08 6c
        E 11 b0 08 6c
        E 11 b0 08 6d
        E 11 b0 08 6e
        E 11 b0 08 6f
        E 11 b0 08 70
        E 11 b0 08 71
        E 11 b0 08 71
        E 11 b0 08 72
        E 11 b0 08 72
        E 11 b0 08 72
        E 11 b0 08 72
        E 11 b0 08 72
        E 11 b0 08 71
        E 11 b0 08 71
        E 11 b0 08 70
        E 11 b0 08 6f
        E 11 b0 08 6e
        E 11 b0 08 6d
        E 11 b0 08 6c
        E 11 b0 08 6b
        E 11 b0 08 69
        E 11 b0 08 68
        E 11 b0 08 66
        E 11 b0 08 64
        E 11 b0 08 63
        E 11 b0 08 61
        E 11 b0 08 5e
        E 11 b0 08 5c
        E 11 b0 08 5a
        E 11 b0 08 58
        E 11 b0 08 55
        E 11 b0 08 52
        E 11 b0 08 50
        E 11 b0 08 4e
        E 11 b0 08 4b
        E 11 b0 08 48
        E 11 b0 08 46
        E 11 b0 08 42
        E 11 b0 08 3f
        E 11 b0 08 3d
        E 11 b0 08 3a
        E 11 b0 08 37
        E 11 b0 08 35
        E 11 b0 08 32
        E 11 b0 08 2f
        E 11 b0 08 2c
        E 11 b0 08 29
        E 11 b0 08 26
        E 11 b0 08 24
        E 11 b0 08 22
        E 11 b0 08 1f
        E 11 b0 08 1c
        E 11 b0 08 1a
        E 11 b0 08 18
        E 11 b0 08 15
        E 11 b0 08 13
        E 11 b0 08 11
        E 11 b0 08 0f
        E 11 b0 08 0d
        E 11 b0 08 0b
        E 11 b0 08 09
        E 11 b0 08 09
        E 11 b0 08 07
        E 11 b0 08 06
        E 11 b0 08 04
        E 11 b0 08 03
        E 11 b0 08 02
        E 11 b0 08 01
        E 11 b0 08 00
        E 11 b0 08 00
        E 11 b0 08 00
        E 11 b0 08 00
        E 11 b0 08 00
        E 11 b0 08 00
        E 11 b0 08 00
        E 11 b0 08 00
        E 11 b0 08 00
        E 11 b0 08 01
        E 11 b0 08 02
        E 11 b0 08 03
        E 11 b0 08 04
        E 11 b0 08 05
        E 11 b0 08 06
        E 11 b0 08 08
        E 11 b0 08 09
        E 11 b0 08 0a
        E 11 b0 08 0c
        E 11 b0 08 0e
        E 11 b0 08 10
        E 11 b0 08 12
        E 11 b0 08 14
        E 11 b0 08 16
        E 11 b0 08 19
        E 11 b0 08 1b
        E 11 b0 08 1d
        E 11 b0 08 20
        E 11 b0 08 23
        E 11 b0 08 25
        E 11 b0 08 28
        E 11 b0 08 2b
        E 11 b0 08 2d
        E 11 b0 08 30
        E 11 b0 08 33
        E 11 b0 08 36
        E 11 b0 08 39
        E 8 b0 08 20
        E 8 b0 08 21
        E 8 b0 08 23
        E 8 b0 08 24
        E 8 b0 08 26
        E 8 b0 08 27
        E 8 b0 08 29
        E 8 b0 08 2a
        E 8 b0 08 2c
        E 8 b0 08 2d
        E 8 b0 08 2f
        E 8 b0 08 30
        E 8 b0 08 31
        E 8 b0 08 33
        E 8 b0 08 34
        E 8 b0 08 35
        E 8 b0 08 36
        E 8 b0 08 37
        E 8 b0 08 38
        E 8 b0 08 39
        E 8 b0 08 3a
        E 8 b0 08 3b
        E 8 b0 08 3c
        E 8 b0 08 3c
        E 8 b0 08 3d
        E 8 b0 08 3d
        E 8 b0 08 3e
        E 8 b0 08 3e
        E 8 b0 08 3f
        E 8 b0 08 3f
        E 8 b0 08 3f
        E 8 b0 08 3f
        E 8 b0 08 3f
        E 8 b0 08 3f
        E 8 b0 08 3f
        E 8 b0 08 3f
        E 8 b0 08 3f
        E 8 b0 08 3e
        E 8 b0 08 3e
        E 8 b0 08 3d
        E 8 b0 08 3d
        E 8 b0 08 3c
        E 8 b0 08 3b
        E 8 b0 08 3a
        E 8 b0 08 3a
        E 8 b0 08 39
        E 8 b0 08 38
        E 8 b0 08 37
        E 8 b0 08 36
        E 8 b0 08 34
        E 8 b0 08 33
        E 8 b0 08 32
        E 8 b0 08 31
        E 8 b0 08 2f
        E 8 b0 08 2e
        E 8 b0 08 2c
        E 8 b0 08 2b
        E 8 b0 08 2a
        E 8 b0 08 28
        E 8 b0 08 27
        E 8 b0 08 25
        E 8 b0 08 23
        E 8 b0 08 22
        E 8 b0 08 20
        E 8 b0 08 1f
        E 8 b0 08 1d
        E 8 b0 08 1c
        E 8 b0 08 1a
        E 8 b0 08 18
        E 8 b0 08 17
        E 8 b0 08 15
        E 8 b0 08 14
        E 8 b0 08 13
        E 8 b0 08 11
        E 8 b0 08 10
        E 8 b0 08 0e
        E 8 b0 08 0d
        E 8 b0 08 0c
        E 8 b0 08 0b
        E 8 b0 08 09
        E 8 b0 08 08
        E 8 b0 08 07
        E 8 b0 08 06
        E 8 b0 08 05
        E 8 b0 08 05
        E 8 b0 08 04
        E 8 b0 08 03
        E 8 b0 08 02
        E 8 b0 08 02
        E 8 b0 08 01
        E 8 b0 08 01
        E 8 b0 08 00
        E 8 b0 08 00
        E 8 b0 08 00
        E 8 b0 08 00
        E 8 b0 08 00
        E 8 b0 08 00
        E 8 b0 08 00
        E 8 b0 08 00
        E 8 b0 08 00
        E 8 b0 08 01
        E 8 b0 08 01
        E 8 b0 08 02
        E 8 b0 08 02
        E 8 b0 08 03
        E 8 b0 08 03
        E 8 b0 08 04
        E 8 b0 08 05
        E 8 b0 08 06
        E 8 b0 08 07
        E 8 b0 08 08
        E 8 b0 08 09
        E 8 b0 08 0a
        E 8 b0 08 0b
        E 8 b0 08 0c
        E 8 b0 08 0e
        E 8 b0 08 0f
        E 8 b0 08 10
        E 8 b0 08 12
        E 8 b0 08 13
        E 8 b0 08 15
        E 8 b0 08 16
        E 8 b0 08 18
        E 8 b0 08 19
        E 8 b0 08 1b
        E 8 b0 08 1c
        E 8 b0 08 1e
        E 8 b0 08 20
        E 8 b0 08 20
        E 8 b0 08 21
        E 8 b0 08 23
        E 8 b0 08 24
        E 8 b0 08 26
        E 8 b0 08 27
        E 8 b0 08 29
        E 8 b0 08 2a
        E 8 b0 08 2c
        E 8 b0 08 2d
        E 8 b0 08 2f
        E 8 b0 08 30
        E 8 b0 08 31
        E 8 b0 08 33
        E 8 b0 08 34
        E 8 b0 08 35
        E 8 b0 08 36
        E 8 b0 08 37
        E 8 b0 08 38
        E 8 b0 08 39
        E 8 b0 08 3a
        E 8 b0 08 3b
        E 8 b0 08 3c
        E 8 b0 08 3c
        E 8 b0 08 3d
        E 8 b0 08 3d
        E 8 b0 08 3e
        E 8 b0 08 3e
        E 8 b0 08 3f
        E 8 b0 08 3f
        E 8 b0 08 3f
        E 8 b0 08 3f
        E 8 b0 08 3f
        E 8 b0 08 3f
        E 8 b0 08 3f
        E 8 b0 08 3f
        E 8 b0 08 3f
        E 8 b0 08 3e
        E 8 b0 08 3e
        E 8 b0 08 3d
        E 8 b0 08 3d
        E 8 b0 08 3c
        E 8 b0 08 3b
        E 8 b0 08 3a
        E 8 b0 08 3a
        E 8 b0 08 39
        E 8 b0 08 38
        E 8 b0 08 37
        E 8 b0 08 36
        E 8 b0 08 34
        E 8 b0 08 33
        E 8 b0 08 32
        E 8 b0 08 31
        E 8 b0 08 2f
        E 8 b0 08 2e
        E 8 b0 08 2c
        E 8 b0 08 2b
        E 8 b0 08 2a
        E 8 b0 08 28
        E 8 b0 08 27
        E 8 b0 08 25
        E 8 b0 08 23
        E 8 b0 08 22
        E 8 b0 08 20
        E 8 b0 08 1f
        E 8 b0 08 1d
        E 8 b0 08 1c
        E 8 b0 08 1a
        E 8 b0 08 18
        E 8 b0 08 17
        E 8 b0 08 15
        E 8 b0 08 14
        E 8 b0 08 13
        E 8 b0 08 11
        E 8 b0 08 10
        E 8 b0 08 0e
        E 8 b0 08 0d
        E 8 b0 08 0c
        E 8 b0 08 0b
        E 8 b0 08 09
        E 8 b0 08 08
        E 8 b0 08 07
        E 8 b0 08 06
        E 8 b0 08 05
        E 8 b0 08 05
        E 8 b0 08 04
        E 8 b0 08 03
        E 8 b0 08 02
        E 8 b0 08 02
        E 8 b0 08 01
        E 8 b0 08 01
        E 8 b0 08 00
        E 8 b0 08 00
        E 8 b0 08 00
        E 8 b0 08 00
        E 8 b0 08 00
        E 8 b0 08 00
        E 8 b0 08 00
        E 8 b0 08 00
        E 8 b0 08 00
        E 8 b0 08 01
        E 8 b0 08 01
        E 8 b0 08 02
        E 8 b0 08 02
        E 8 b0 08 03
        E 8 b0 08 03
        E 8 b0 08 04
        E 8 b0 08 05
        E 8 b0 08 06
        E 8 b0 08 07
        E 8 b0 08 08
        E 8 b0 08 09
        E 8 b0 08 0a
        E 8 b0 08 0b
        E 8 b0 08 0c
        E 8 b0 08 0e
        E 8 b0 08 0f
        E 8 b0 08 10
        E 8 b0 08 12
        E 8 b0 08 13
        E 8 b0 08 15
        E 8 b0 08 16
        E 8 b0 08 18
        E 8 b0 08 19
        E 8 b0 08 1b
        E 8 b0 08 1c
        E 8 b0 08 1e
        E 8 b0 08 20
        E 17 b0 08 2c
        E 17 b0 08 2e
        E 17 b0 08 31
        E 17 b0 08 33
        E 17 b0 08 35
        E 17 b0 08 37
        E 17 b0 08 39
        E 17 b0 08 3b
        E 17 b0 08 3d
        E 17 b0 08 3f
        E 17 b0 08 41
        E 17 b0 08 43
        E 17 b0 08 45
        E 17 b0 08 47
        E 17 b0 08 48
        E 17 b0 08 4a
        E 17 b0 08 4c
        E 17 b0 08 4d
        E 17 b0 08 4f
        E 17 b0 08 50
        E 17 b0 08 51
        E 17 b0 08 52
        E 17 b0 08 54
        E 17 b0 08 54
        E 17 b0 08 55
        E 17 b0 08 56
        E 17 b0 08 56
        E 17 b0 08 57
        E 17 b0 08 58
        E 17 b0 08 58
        E 17 b0 08 58
        E 17 b0 08 58
        E 17 b0 08 58
        E 17 b0 08 58
        E 17 b0 08 58
        E 17 b0 08 58
        E 17 b0 08 58
        E 17 b0 08 57
        E 17 b0 08 56
        E 17 b0 08 56
        E 17 b0 08 55
        E 17 b0 08 54
        E 17 b0 08 53
        E 17 b0 08 51
        E 17 b0 08 51
        E 17 b0 08 4f
        E 17 b0 08 4e
        E 17 b0 08 4d
        E 17 b0 08 4b
        E 17 b0 08 49
        E 17 b0 08 48
        E 17 b0 08 46
        E 17 b0 08 44
        E 17 b0 08 42
        E 17 b0 08 40
        E 17 b0 08 3e
        E 17 b0 08 3c
        E 17 b0 08 3a
        E 17 b0 08 38
        E 17 b0 08 36
        E 17 b0 08 33
        E 17 b0 08 31
        E 17 b0 08 2f
        E 17 b0 08 2d
        E 17 b0 08 2b
        E 17 b0 08 29
        E 17 b0 08 27
        E 17 b0 08 25
        E 17 b0 08 22
        E 17 b0 08 20
        E 17 b0 08 1e
        E 17 b0 08 1c
        E 17 b0 08 1a
        E 17 b0 08 18
        E 17 b0 08 16
        E 17 b0 08 14
        E 17 b0 08 12
        E 17 b0 08 10
        E 17 b0 08 0f
        E 17 b0 08 0d
        E 17 b0 08 0b
        E 17 b0 08 0a
        E 17 b0 08 09
        E 17 b0 08 07
        E 17 b0 08 07
        E 17 b0 08 05
        E 17 b0 08 04
        E 17 b0 08 03
        E 17 b0 08 02
        E 17 b0 08 02
        E 17 b0 08 01
        E 17 b0 08 00
        E 17 b0 08 00
        E 17 b0 08 00
        E 17 b0 08 00
        E 17 b0 08 00
        E 17 b0 08 00
        E 17 b0 08 00
        E 17 b0 08 00
        E 17 b0 08 00
        E 17 b0 08 01
        E 17 b0 08 02
        E 17 b0 08 02
        E 17 b0 08 03
        E 17 b0 08 04
        E 17 b0 08 04
        E 17 b0 08 06
        E 17 b0 08 07
        E 17 b0 08 08
        E 17 b0 08 09
        E 17 b0 08 0b
        E 17 b0 08 0c
        E 17 b0 08 0e
        E 17 b0 08 10
        E 17 b0 08 11
        E 17 b0 08 13
        E 17 b0 08 15
        E 17 b0 08 17
        E 17 b0 08 19
        E 17 b0 08 1b
        E 17 b0 08 1d
        E 17 b0 08 1f
        E 17 b0 08 21
        E 17 b0 08 23
        E 17 b0 08 25
        E 17 b0 08 27
        E 17 b0 08 2a
        E 17 b0 08 2c
        E 15 b0 08 33
        E 15 b0 08 35
        E 15 b0 08 37
        E 15 b0 08 3a
        E 15 b0 08 3c
        E 15 b0 08 3f
        E 15 b0 08 41
        E 15 b0 08 44
        E 15 b0 08 46
        E 15 b0 08 48
        E 15 b0 08 4b
        E 15 b0 08 4c
        E 15 b0 08 4f
        E 15 b0 08 51
        E 15 b0 08 53
        E 15 b0 08 54
        E 15 b0 08 57
        E 15 b0 08 58
        E 15 b0 08 5a
        E 15 b0 08 5b
        E 15 b0 08 5d
        E 15 b0 08 5e
        E 15 b0 08 5f
        E 15 b0 08 60
        E 15 b0 08 61
        E 15 b0 08 62
        E 15 b0 08 63
        E 15 b0 08 63
        E 15 b0 08 64
        E 15 b0 08 64
        E 15 b0 08 65
        E 15 b0 08 65
        E 15 b0 08 65
        E 15 b0 08 65
        E 15 b0 08 65
        E 15 b0 08 64
        E 15 b0 08 64
        E 15 b0 08 63
        E 15 b0 08 63
        E 15 b0 08 62
        E 15 b0 08 61
        E 15 b0 08 5f
        E 15 b0 08 5f
        E 15 b0 08 5d
        E 15 b0 08 5c
        E 15 b0 08 5b
        E 15 b0 08 59
        E 15 b0 08 57
        E 15 b0 08 56
        E 15 b0 08 54
        E 15 b0 08 52
        E 15 b0 08 50
        E 15 b0 08 4e
        E 15 b0 08 4c
        E 15 b0 08 49
        E 15 b0 08 47
        E 15 b0 08 45
        E 15 b0 08 43
        E 15 b0 08 40
        E 15 b0 08 3e
        E 15 b0 08 3b
        E 15 b0 08 38
        E 15 b0 08 36
        E 15 b0 08 33
        E 15 b0 08 31
        E 15 b0 08 2f
        E 15 b0 08 2c
        E 15 b0 08 2a
        E 15 b0 08 27
        E 15 b0 08 24
        E 15 b0 08 22
        E 15 b0 08 1f
        E 15 b0 08 1e
        E 15 b0 08 1b
        E 15 b0 08 19
        E 15 b0 08 17
        E 15 b0 08 15
        E 15 b0 08 13
        E 15 b0 08 11
        E 15 b0 08 0f
        E 15 b0 08 0d
        E 15 b0 08 0b
        E 15 b0 08 0a
        E 15 b0 08 08
        E 15 b0 08 07
        E 15 b0 08 06
        E 15 b0 08 05
        E 15 b0 08 03
        E 15 b0 08 03
        E 15 b0 08 02
        E 15 b0 08 01
        E 15 b0 08 00
        E 15 b0 08 00
        E 15 b0 08 00
        E 15 b0 08 00
        E 15 b0 08 00
        E 15 b0 08 00
        E 15 b0 08 00
        E 15 b0 08 00
        E 15 b0 08 00
        E 15 b0 08 01
        E 15 b0 08 02
        E 15 b0 08 03
        E 15 b0 08 03
        E 15 b0 08 04
        E 15 b0 08 05
        E 15 b0 08 07
        E 15 b0 08 07
        E 15 b0 08 09
        E 15 b0 08 0b
        E 15 b0 08 0c
        E 15 b0 08 0e
        E 15 b0 08 10
        E 15 b0 08 12
        E 15 b0 08 14
        E 15 b0 08 16
        E 15 b0 08 18
        E 15 b0 08 1a
        E 15 b0 08 1c
        E 15 b0 08 1f
        E 15 b0 08 21
        E 15 b0 08 24
        E 15 b0 08 26
        E 15 b0 08 28
        E 15 b0 08 2b
        E 15 b0 08 2d
        E 15 b0 08 2f
        E 15 b0 08 33
        E 17 b0 08 06
        E 17 b0 08 06
        E 17 b0 08 07
        E 17 b0 08 07
        E 17 b0 08 07
        E 17 b0 08 07
        E 17 b0 08 08
        E 17 b0 08 08
        E 17 b0 08 08
        E 17 b0 08 09
        E 17 b0 08 09
        E 17 b0 08 09
        E 17 b0 08 09
        E 17 b0 08 0a
        E 17 b0 08 0a
        E 17 b0 08 0a
        E 17 b0 08 0a
        E 17 b0 08 0b
        E 17 b0 08 0b
        E 17 b0 08 0b
        E 17 b0 08 0b
        E 17 b0 08 0b
        E 17 b0 08 0c
        E 17 b0 08 0c
        E 17 b0 08 0c
        E 17 b0 08 0c
        E 17 b0 08 0c
        E 17 b0 08 0c
        E 17 b0 08 0c
        E 17 b0 08 0c
        E 17 b0 08 0c
        E 17 b0 08 0c
        E 17 b0 08 0c
        E 17 b0 08 0c
        E 17 b0 08 0c
        E 17 b0 08 0c
        E 17 b0 08 0c
        E 17 b0 08 0c
        E 17 b0 08 0c
        E 17 b0 08 0c
        E 17 b0 08 0c
        E 17 b0 08 0c
        E 17 b0 08 0b
        E 17 b0 08 0b
        E 17 b0 08 0b
        E 17 b0 08 0b
        E 17 b0 08 0b
        E 17 b0 08 0b
        E 17 b0 08 0a
        E 17 b0 08 0a
        E 17 b0 08 0a
        E 17 b0 08 0a
        E 17 b0 08 09
        E 17 b0 08 09
        E 17 b0 08 09
        E 17 b0 08 08
        E 17 b0 08 08
        E 17 b0 08 08
        E 17 b0 08 08
        E 17 b0 08 07
        E 17 b0 08 07
        E 17 b0 08 07
        E 17 b0 08 06
        E 17 b0 08 06
        E 17 b0 08 06
        E 17 b0 08 05
        E 17 b0 08 05
        E 17 b0 08 05
        E 17 b0 08 04
        E 17 b0 08 04
        E 17 b0 08 04
        E 17 b0 08 04
        E 17 b0 08 03
        E 17 b0 08 03
        E 17 b0 08 03
        E 17 b0 08 02
        E 17 b0 08 02
        E 17 b0 08 02
        E 17 b0 08 02
        E 17 b0 08 01
        E 17 b0 08 01
        E 17 b0 08 01
        E 17 b0 08 01
        E 17 b0 08 01
        E 17 b0 08 01
        E 17 b0 08 00
        E 17 b0 08 00
        E 17 b0 08 00
        E 17 b0 08 00
        E 17 b0 08 00
        E 17 b0 08 00
        E 17 b0 08 00
        E 17 b0 08 00
        E 17 b0 08 00
        E 17 b0 08 00
        E 17 b0 08 00
        E 17 b0 08 00
        E 17 b0 08 00
        E 17 b0 08 00
        E 17 b0 08 00
        E 17 b0 08 00
        E 17 b0 08 00
        E 17 b0 08 00
        E 17 b0 08 00
        E 17 b0 08 00
        E 17 b0 08 00
        E 17 b0 08 00
        E 17 b0 08 01
        E 17 b0 08 01
        E 17 b0 08 01
        E 17 b0 08 01
        E 17 b0 08 01
        E 17 b0 08 02
        E 17 b0 08 02
        E 17 b0 08 02
        E 17 b0 08 02
        E 17 b0 08 03
        E 17 b0 08 03
        E 17 b0 08 03
        E 17 b0 08 03
        E 17 b0 08 04
        E 17 b0 08 04
        E 17 b0 08 04
        E 17 b0 08 05
        E 17 b0 08 05
        E 17 b0 08 05
        E 17 b0 08 06
        E 17 b0 08 06
        E 15 b0 08 19
        E 15 b0 08 1a
        E 15 b0 08 1c
        E 15 b0 08 1d
        E 15 b0 08 1e
        E 15 b0 08 1f
        E 15 b0 08 20
        E 15 b0 08 22
        E 15 b0 08 23
        E 15 b0 08 24
        E 15 b0 08 25
        E 15 b0 08 26
        E 15 b0 08 27
        E 15 b0 08 28
        E 15 b0 08 29
        E 15 b0 08 2a
        E 15 b0 08 2b
        E 15 b0 08 2c
        E 15 b0 08 2d
        E 15 b0 08 2e
        E 15 b0 08 2e
        E 15 b0 08 2f
        E 15 b0 08 30
        E 15 b0 08 30
        E 15 b0 08 30
        E 15 b0 08 31
        E 15 b0 08 31
        E 15 b0 08 32
        E 15 b0 08 32
        E 15 b0 08 32
        E 15 b0 08 32
        E 15 b0 08 32
        E 15 b0 08 32
        E 15 b0 08 32
        E 15 b0 08 32
        E 15 b0 08 32
        E 15 b0 08 32
        E 15 b0 08 32
        E 15 b0 08 31
        E 15 b0 08 31
        E 15 b0 08 30
        E 15 b0 08 30
        E 15 b0 08 2f
        E 15 b0 08 2e
        E 15 b0 08 2e
        E 15 b0 08 2d
        E 15 b0 08 2c
        E 15 b0 08 2c
        E 15 b0 08 2b
        E 15 b0 08 2a
        E 15 b0 08 29
        E 15 b0 08 28
        E 15 b0 08 27
        E 15 b0 08 26
        E 15 b0 08 24
        E 15 b0 08 23
        E 15 b0 08 22
        E 15 b0 08 21
        E 15 b0 08 20
        E 15 b0 08 1f
        E 15 b0 08 1d
        E 15 b0 08 1c
        E 15 b0 08 1b
        E 15 b0 08 1a
        E 15 b0 08 18
        E 15 b0 08 17
        E 15 b0 08 16
        E 15 b0 08 15
        E 15 b0 08 13
        E 15 b0 08 12
        E 15 b0 08 11
        E 15 b0 08 10
        E 15 b0 08 0f
        E 15 b0 08 0e
        E 15 b0 08 0c
        E 15 b0 08 0b
        E 15 b0 08 0a
        E 15 b0 08 09
        E 15 b0 08 08
        E 15 b0 08 07
        E 15 b0 08 06
        E 15 b0 08 06
        E 15 b0 08 05
        E 15 b0 08 04
        E 15 b0 08 04
        E 15 b0 08 03
        E 15 b0 08 02
        E 15 b0 08 02
        E 15 b0 08 01
        E 15 b0 08 01
        E 15 b0 08 00
        E 15 b0 08 00
        E 15 b0 08 00
        E 15 b0 08 00
        E 15 b0 08 00
        E 15 b0 08 00
        E 15 b0 08 00
        E 15 b0 08 00
        E 15 b0 08 00
        E 15 b0 08 00
        E 15 b0 08 00
        E 15 b0 08 01
        E 15 b0 08 01
        E 15 b0 08 02
        E 15 b0 08 02
        E 15 b0 08 02
        E 15 b0 08 03
        E 15 b0 08 04
        E 15 b0 08 04
        E 15 b0 08 05
        E 15 b0 08 06
        E 15 b0 08 07
        E 15 b0 08 08
        E 15 b0 08 09
        E 15 b0 08 0a
        E 15 b0 08 0b
        E 15 b0 08 0c
        E 15 b0 08 0d
        E 15 b0 08 0e
        E 15 b0 08 0f
        E 15 b0 08 10
        E 15 b0 08 12
        E 15 b0 08 13
        E 15 b0 08 14
        E 15 b0 08 15
        E 15 b0 08 16
        E 15 b0 08 18
        E 15 b0 08 19
        E 8 b0 08 2c
        E 8 b0 08 2e
        E 8 b0 08 31
        E 8 b0 08 33
        E 8 b0 08 35
        E 8 b0 08 37
        E 8 b0 08 39
        E 8 b0 08 3b
        E 8 b0 08 3d
        E 8 b0 08 3f
        E 8 b0 08 41
        E 8 b0 08 43
        E 8 b0 08 45
        E 8 b0 08 47
        E 8 b0 08 48
        E 8 b0 08 4a
        E 8 b0 08 4c
        E 8 b0 08 4d
        E 8 b0 08 4f
        E 8 b0 08 50
        E 8 b0 08 51
        E 8 b0 08 52
        E 8 b0 08 54
        E 8 b0 08 54
        E 8 b0 08 55
        E 8 b0 08 56
        E 8 b0 08 56
        E 8 b0 08 57
        E 8 b0 08 58
        E 8 b0 08 58
        E 8 b0 08 58
        E 8 b0 08 58
        E 8 b0 08 58
        E 8 b0 08 58
        E 8 b0 08 58
        E 8 b0 08 58
        E 8 b0 08 58
        E 8 b0 08 57
        E 8 b0 08 56
        E 8 b0 08 56
        E 8 b0 08 55
        E 8 b0 08 54
        E 8 b0 08 53
        E 8 b0 08 51
        E 8 b0 08 51
        E 8 b0 08 4f
        E 8 b0 08 4e
        E 8 b0 08 4d
        E 8 b0 08 4b
        E 8 b0 08 49
        E 8 b0 08 48
        E 8 b0 08 46
        E 8 b0 08 44
        E 8 b0 08 42
        E 8 b0 08 40
        E 8 b0 08 3e
        E 8 b0 08 3c
        E 8 b0 08 3a
        E 8 b0 08 38
        E 8 b0 08 36
        E 8 b0 08 33
        E 8 b0 08 31
        E 8 b0 08 2f
        E 8 b0 08 2d
        E 8 b0 08 2b
        E 8 b0 08 29
        E 8 b0 08 27
        E 8 b0 08 25
        E 8 b0 08 22
        E 8 b0 08 20
        E 8 b0 08 1e
        E 8 b0 08 1c
        E 8 b0 08 1a
        E 8 b0 08 18
        E 8 b0 08 16
        E 8 b0 08 14
        E 8 b0 08 12
        E 8 b0 08 10
        E 8 b0 08 0f
        E 8 b0 08 0d
        E 8 b0 08 0b
        E 8 b0 08 0a
        E 8 b0 08 09
        E 8 b0 08 07
        E 8 b0 08 07
        E 8 b0 08 05
        E 8 b0 08 04
        E 8 b0 08 03
        E 8 b0 08 02
        E 8 b0 08 02
        E 8 b0 08 01
        E 8 b0 08 00
        E 8 b0 08 00
        E 8 b0 08 00
        E 8 b0 08 00
        E 8 b0 08 00
        E 8 b0 08 00
        E 8 b0 08 00
        E 8 b0 08 00
        E 8 b0 08 00
        E 8 b0 08 01
        E 8 b0 08 02
        E 8 b0 08 02
        E 8 b0 08 03
        E 8 b0 08 04
        E 8 b0 08 04
        E 8 b0 08 06
        E 8 b0 08 07
        E 8 b0 08 08
        E 8 b0 08 09
        E 8 b0 08 0b
        E 8 b0 08 0c
        E 8 b0 08 0e
        E 8 b0 08 10
        E 8 b0 08 11
        E 8 b0 08 13
        E 8 b0 08 15
        E 8 b0 08 17
        E 8 b0 08 19
        E 8 b0 08 1b
        E 8 b0 08 1d
        E 8 b0 08 1f
        E 8 b0 08 21
        E 8 b0 08 23
        E 8 b0 08 25
        E 8 b0 08 27
        E 8 b0 08 2a
        E 8 b0 08 2c
        E 8 b0 08 20
        E 8 b0 08 21
        E 8 b0 08 23
        E 8 b0 08 24
        E 8 b0 08 26
        E 8 b0 08 27
        E 8 b0 08 29
        E 8 b0 08 2a
        E 8 b0 08 2c
        E 8 b0 08 2d
        E 8 b0 08 2f
        E 8 b0 08 30
        E 8 b0 08 31
        E 8 b0 08 33
        E 8 b0 08 34
        E 8 b0 08 35
        E 8 b0 08 36
        E 8 b0 08 37
        E 8 b0 08 38
        E 8 b0 08 39
        E 8 b0 08 3a
        E 8 b0 08 3b
        E 8 b0 08 3c
        E 8 b0 08 3c
        E 8 b0 08 3d
        E 8 b0 08 3d
        E 8 b0 08 3e
        E 8 b0 08 3e
        E 8 b0 08 3f
        E 8 b0 08 3f
        E 8 b0 08 3f
        E 8 b0 08 3f
        E 8 b0 08 3f
        E 8 b0 08 3f
        E 8 b0 08 3f
        E 8 b0 08 3f
        E 8 b0 08 3f
        E 8 b0 08 3e
        E 8 b0 08 3e
        E 8 b0 08 3d
        E 8 b0 08 3d
        E 8 b0 08 3c
        E 8 b0 08 3b
        E 8 b0 08 3a
        E 8 b0 08 3a
        E 8 b0 08 39
        E 8 b0 08 38
        E 8 b0 08 37
        E 8 b0 08 36
        E 8 b0 08 34
        E 8 b0 08 33
        E 8 b0 08 32
        E 8 b0 08 31
        E 8 b0 08 2f
        E 8 b0 08 2e
        E 8 b0 08 2c
        E 8 b0 08 2b
        E 8 b0 08 2a
        E 8 b0 08 28
        E 8 b0 08 27
        E 8 b0 08 25
        E 8 b0 08 23
        E 8 b0 08 22
        E 8 b0 08 20
        E 8 b0 08 1f
        E 8 b0 08 1d
        E 8 b0 08 1c
        E 8 b0 08 1a
        E 8 b0 08 18
        E 8 b0 08 17
        E 8 b0 08 15
        E 8 b0 08 14
        E 8 b0 08 13
        E 8 b0 08 11
        E 8 b0 08 10
        E 8 b0 08 0e
        E 8 b0 08 0d
        E 8 b0 08 0c
        E 8 b0 08 0b
        E 8 b0 08 09
        E 8 b0 08 08
        E 8 b0 08 07
        E 8 b0 08 06
        E 8 b0 08 05
        E 8 b0 08 05
        E 8 b0 08 04
        E 8 b0 08 03
        E 8 b0 08 02
        E 8 b0 08 02
        E 8 b0 08 01
        E 8 b0 08 01
        E 8 b0 08 00
        E 8 b0 08 00
        E 8 b0 08 00
        E 8 b0 08 00
        E 8 b0 08 00
        E 8 b0 08 00
        E 8 b0 08 00
        E 8 b0 08 00
        E 8 b0 08 00
        E 8 b0 08 01
        E 8 b0 08 01
        E 8 b0 08 02
        E 8 b0 08 02
        E 8 b0 08 03
        E 8 b0 08 03
        E 8 b0 08 04
        E 8 b0 08 05
        E 8 b0 08 06
        E 8 b0 08 07
        E 8 b0 08 08
        E 8 b0 08 09
        E 8 b0 08 0a
        E 8 b0 08 0b
        E 8 b0 08 0c
        E 8 b0 08 0e
        E 8 b0 08 0f
        E 8 b0 08 10
        E 8 b0 08 12
        E 8 b0 08 13
        E 8 b0 08 15
        E 8 b0 08 16
        E 8 b0 08 18
        E 8 b0 08 19
        E 8 b0 08 1b
        E 8 b0 08 1c
        E 8 b0 08 1e
        E 8 b0 08 20
        E 11 b0 08 20
        E 11 b0 08 21
        E 11 b0 08 23
        E 11 b0 08 24
        E 11 b0 08 26
        E 11 b0 08 27
        E 11 b0 08 29
        E 11 b0 08 2a
        E 11 b0 08 2c
        E 11 b0 08 2d
        E 11 b0 08 2f
        E 11 b0 08 30
        E 11 b0 08 31
        E 11 b0 08 33
        E 11 b0 08 34
        E 11 b0 08 35
        E 11 b0 08 36
        E 11 b0 08 37
        E 11 b0 08 38
        E 11 b0 08 39
        E 11 b0 08 3a
        E 11 b0 08 3b
        E 11 b0 08 3c
        E 11 b0 08 3c
        E 11 b0 08 3d
        E 11 b0 08 3d
        E 11 b0 08 3e
        E 11 b0 08 3e
        E 11 b0 08 3f
        E 11 b0 08 3f
        E 11 b0 08 3f
        E 11 b0 08 3f
        E 11 b0 08 3f
        E 11 b0 08 3f
        E 11 b0 08 3f
        E 11 b0 08 3f
        E 11 b0 08 3f
        E 11 b0 08 3e
        E 11 b0 08 3e
        E 11 b0 08 3d
        E 11 b0 08 3d
        E 11 b0 08 3c
        E 11 b0 08 3b
        E 11 b0 08 3a
        E 11 b0 08 3a
        E 11 b0 08 39
        E 11 b0 08 38
        E 11 b0 08 37
        E 11 b0 08 36
        E 11 b0 08 34
        E 11 b0 08 33
        E 11 b0 08 32
        E 11 b0 08 31
        E 11 b0 08 2f
        E 11 b0 08 2e
        E 11 b0 08 2c
        E 11 b0 08 2b
        E 11 b0 08 2a
        E 11 b0 08 28
        E 11 b0 08 27
        E 11 b0 08 25
        E 11 b0 08 23
        E 11 b0 08 22
        E 11 b0 08 20
        E 11 b0 08 1f
        E 11 b0 08 1d
        E 11 b0 08 1c
        E 11 b0 08 1a
        E 11 b0 08 18
        E 11 b0 08 17
        E 11 b0 08 15
        E 11 b0 08 14
        E 11 b0 08 13
        E 11 b0 08 11
        E 11 b0 08 10
        E 11 b0 08 0e
        E 11 b0 08 0d
        E 11 b0 08 0c
        E 11 b0 08 0b
        E 11 b0 08 09
        E 11 b0 08 08
        E 11 b0 08 07
        E 11 b0 08 06
        E 11 b0 08 05
        E 11 b0 08 05
        E 11 b0 08 04
        E 11 b0 08 03
        E 11 b0 08 02
        E 11 b0 08 02
        E 11 b0 08 01
        E 11 b0 08 01
        E 11 b0 08 00
        E 11 b0 08 00
        E 11 b0 08 00
        E 11 b0 08 00
        E 11 b0 08 00
        E 11 b0 08 00
        E 11 b0 08 00
        E 11 b0 08 00
        E 11 b0 08 00
        E 11 b0 08 01
        E 11 b0 08 01
        E 11 b0 08 02
        E 11 b0 08 02
        E 11 b0 08 03
        E 11 b0 08 03
        E 11 b0 08 04
        E 11 b0 08 05
        E 11 b0 08 06
        E 11 b0 08 07
        E 11 b0 08 08
        E 11 b0 08 09
        E 11 b0 08 0a
        E 11 b0 08 0b
        E 11 b0 08 0c
        E 11 b0 08 0e
        E 11 b0 08 0f
        E 11 b0 08 10
        E 11 b0 08 12
        E 11 b0 08 13
        E 11 b0 08 15
        E 11 b0 08 16
        E 11 b0 08 18
        E 11 b0 08 19
        E 11 b0 08 1b
        E 11 b0 08 1c
        E 11 b0 08 1e
        E 11 b0 08 20
        E 13 b0 08 40
        E 13 b0 08 43
        E 13 b0 08 46
        E 13 b0 08 49
        E 13 b0 08 4c
        E 13 b0 08 4f
        E 13 b0 08 52
        E 13 b0 08 55
        E 13 b0 08 58
        E 13 b0 08 5b
        E 13 b0 08 5e
        E 13 b0 08 60
        E 13 b0 08 63
        E 13 b0 08 66
        E 13 b0 08 68
        E 13 b0 08 6a
        E 13 b0 08 6d
        E 13 b0 08 6f
        E 13 b0 08 71
        E 13 b0 08 73
        E 13 b0 08 75
        E 13 b0 08 76
        E 13 b0 08 78
        E 13 b0 08 79
        E 13 b0 08 7a
        E 13 b0 08 7b
        E 13 b0 08 7c
        E 13 b0 08 7d
        E 13 b0 08 7e
        E 13 b0 08 7e
        E 13 b0 08 7f
        E 13 b0 08 7f
        E 13 b0 08 7f
        E 13 b0 08 7f
        E 13 b0 08 7f
        E 13 b0 08 7e
        E 13 b0 08 7e
        E 13 b0 08 7d
        E 13 b0 08 7c
        E 13 b0 08 7b
        E 13 b0 08 7a
        E 13 b0 08 78
        E 13 b0 08 77
        E 13 b0 08 75
        E 13 b0 08 74
        E 13 b0 08 72
        E 13 b0 08 70
        E 13 b0 08 6e
        E 13 b0 08 6c
        E 13 b0 08 69
        E 13 b0 08 67
        E 13 b0 08 64
        E 13 b0 08 62
        E 13 b0 08 5f
        E 13 b0 08 5c
        E 13 b0 08 59
        E 13 b0 08 57
        E 13 b0 08 54
        E 13 b0 08 51
        E 13 b0 08 4e
        E 13 b0 08 4a
        E 13 b0 08 47
        E 13 b0 08 44
        E 13 b0 08 41
        E 13 b0 08 3e
        E 13 b0 08 3b
        E 13 b0 08 38
        E 13 b0 08 35
        E 13 b0 08 31
        E 13 b0 08 2e
        E 13 b0 08 2b
        E 13 b0 08 28
        E 13 b0 08 26
        E 13 b0 08 23
        E 13 b0 08 20
        E 13 b0 08 1d
        E 13 b0 08 1b
        E 13 b0 08 18
        E 13 b0 08 16
        E 13 b0 08 13
        E 13 b0 08 11
        E 13 b0 08 0f
        E 13 b0 08 0d
        E 13 b0 08 0b
        E 13 b0 08 0a
        E 13 b0 08 08
        E 13 b0 08 07
        E 13 b0 08 05
        E 13 b0 08 04
        E 13 b0 08 03
        E 13 b0 08 02
        E 13 b0 08 01
        E 13 b0 08 01
        E 13 b0 08 00
        E 13 b0 08 00
        E 13 b0 08 00
        E 13 b0 08 00
        E 13 b0 08 00
        E 13 b0 08 01
        E 13 b0 08 01
        E 13 b0 08 02
        E 13 b0 08 03
        E 13 b0 08 04
        E 13 b0 08 05
        E 13 b0 08 06
        E 13 b0 08 07
        E 13 b0 08 09
        E 13 b0 08 0a
        E 13 b0 08 0c
        E 13 b0 08 0e
        E 13 b0 08 10
        E 13 b0 08 12
        E 13 b0 08 15
        E 13 b0 08 17
        E 13 b0 08 19
        E 13 b0 08 1c
        E 13 b0 08 1f
        E 13 b0 08 21
        E 13 b0 08 24
        E 13 b0 08 27
        E 13 b0 08 2a
        E 13 b0 08 2d
        E 13 b0 08 30
        E 13 b0 08 33
        E 13 b0 08 36
        E 13 b0 08 39
        E 13 b0 08 3c
        E 12 b0 08 40
        E 1 b0 7b 00
        CCINTERP 32
        CHASE_CC_TAKEOFFS 1
        GUID {744348F7-2304-054B-A177-5F6B0CFB901A}
        IGNTEMPO 0 120 4 4
        SRCCOLOR 173
        VELLANE 3 601 0
        VELLANE -1 196 0
      >
    >
  >
  <TRACK {86053707-0249-BA44-8C99-EBCD3919FF29}
    NAME "insects of the los angeles basin"
    PEAKCOL 16576
    BEAT -1
    AUTOMODE 0
    VOLPAN 1 0 -1 -1 1
    MUTESOLO 0 0 0
    IPHASE 0
    PLAYOFFS 0 1
    ISBUS 0 0
    BUSCOMP 0 0 0 0 0
    SHOWINMIX 1 0.6667 0.5 1 0.5 0 -1 0
    FREEMODE 0
    SEL 0
    REC 0 0 1 0 0 0 0
    VU 2
    TRACKHEIGHT 0 1 0 0 -1 0
    INQ 0 0 0 0.5 100 0 0 100
    NCHAN 2
    FX 1
    TRACKID {86053707-0249-BA44-8C99-EBCD3919FF29}
    PERF 0
    MIDIOUT -1
    MAINSEND 1 0
    <ITEM
      POSITION 0
      SNAPOFFS 0
      LENGTH 1494.260496
      LOOP 1
      ALLTAKES 0
      FADEIN 1 0 0 1 0 0
      FADEOUT 1 0 0 1 0 0
      MUTE 0 0
      SEL 0
      IGUID {EA6BF2F5-998D-874B-BACD-0E93305DDDA8}
      IID 15
      NAME "insects of the los angeles basin.mid"
      VOLPAN 1 0 1 -1
      SOFFS 0 0
      PLAYRATE 1 1 0 -1 0 0.0025
      CHANMODE 0
      GUID {00688D9C-7A7A-9143-9D34-59182268D581}
      <SOURCE MIDI
        HASDATA 1 128 QN
        CCINTERP 32
        POOLEDEVTS {DCC58927-B60C-924F-A933-2393C73C7A2E}
        E 42 b1 09 2c
        E 42 b1 09 2e
        E 42 b1 09 31
        E 42 b1 09 33
        E 42 b1 09 35
        E 42 b1 09 37
        E 42 b1 09 39
        E 42 b1 09 3b
        E 42 b1 09 3d
        E 42 b1 09 3f
        E 42 b1 09 41
        E 42 b1 09 43
        E 42 b1 09 45
        E 42 b1 09 47
        E 42 b1 09 48
        E 42 b1 09 4a
        E 42 b1 09 4c
        E 42 b1 09 4d
        E 42 b1 09 4f
        E 42 b1 09 50
        E 42 b1 09 51
        E 42 b1 09 52
        E 42 b1 09 54
        E 42 b1 09 54
        E 42 b1 09 55
        E 42 b1 09 56
        E 42 b1 09 56
        E 42 b1 09 57
        E 42 b1 09 58
        E 42 b1 09 58
        E 42 b1 09 58
        E 42 b1 09 58
        E 42 b1 09 58
        E 42 b1 09 58
        E 42 b1 09 58
        E 42 b1 09 58
        E 42 b1 09 58
        E 42 b1 09 57
        E 42 b1 09 56
        E 42 b1 09 56
        E 42 b1 09 55
        E 42 b1 09 54
        E 42 b1 09 53
        E 42 b1 09 51
        E 42 b1 09 51
        E 42 b1 09 4f
        E 42 b1 09 4e
        E 42 b1 09 4d
        E 42 b1 09 4b
        E 42 b1 09 49
        E 42 b1 09 48
        E 42 b1 09 46
        E 42 b1 09 44
        E 42 b1 09 42
        E 42 b1 09 40
        E 42 b1 09 3e
        E 42 b1 09 3c
        E 42 b1 09 3a
        E 42 b1 09 38
        E 42 b1 09 36
        E 42 b1 09 33
        E 42 b1 09 31
        E 42 b1 09 2f
        E 42 b1 09 2d
        E 42 b1 09 2b
        E 42 b1 09 29
        E 42 b1 09 27
        E 42 b1 09 25
        E 42 b1 09 22
        E 42 b1 09 20
        E 42 b1 09 1e
        E 42 b1 09 1c
        E 42 b1 09 1a
        E 42 b1 09 18
        E 42 b1 09 16
        E 42 b1 09 14
        E 42 b1 09 12
        E 42 b1 09 10
        E 42 b1 09 0f
        E 42 b1 09 0d
        E 42 b1 09 0b
        E 42 b1 09 0a
        E 42 b1 09 09
        E 42 b1 09 07
        E 42 b1 09 07
        E 42 b1 09 05
        E 42 b1 09 04
        E 42 b1 09 03
        E 42 b1 09 02
        E 42 b1 09 02
        E 42 b1 09 01
        E 42 b1 09 00
        E 42 b1 09 00
        E 42 b1 09 00
        E 42 b1 09 00
        E 42 b1 09 00
        E 42 b1 09 00
        E 42 b1 09 00
        E 42 b1 09 00
        E 42 b1 09 00
        E 42 b1 09 01
        E 42 b1 09 02
        E 42 b1 09 02
        E 42 b1 09 03
        E 42 b1 09 04
        E 42 b1 09 04
        E 42 b1 09 06
        E 42 b1 09 07
        E 42 b1 09 08
        E 42 b1 09 09
        E 42 b1 09 0b
        E 42 b1 09 0c
        E 42 b1 09 0e
        E 42 b1 09 10
        E 42 b1 09 11
        E 42 b1 09 13
        E 42 b1 09 15
        E 42 b1 09 17
        E 42 b1 09 19
        E 42 b1 09 1b
        E 42 b1 09 1d
        E 42 b1 09 1f
        E 42 b1 09 21
        E 42 b1 09 23
        E 42 b1 09 25
        E 42 b1 09 27
        E 42 b1 09 2a
        E 42 b1 09 2c
        E 42 b1 09 20
        E 42 b1 09 21
        E 42 b1 09 23
        E 42 b1 09 24
        E 42 b1 09 26
        E 42 b1 09 27
        E 42 b1 09 29
        E 42 b1 09 2a
        E 42 b1 09 2c
        E 42 b1 09 2d
        E 42 b1 09 2f
        E 42 b1 09 30
        E 42 b1 09 31
        E 42 b1 09 33
        E 42 b1 09 34
        E 42 b1 09 35
        E 42 b1 09 36
        E 42 b1 09 37
        E 42 b1 09 38
        E 42 b1 09 39
        E 42 b1 09 3a
        E 42 b1 09 3b
        E 42 b1 09 3c
        E 42 b1 09 3c
        E 42 b1 09 3d
        E 42 b1 09 3d
        E 42 b1 09 3e
        E 42 b1 09 3e
        E 42 b1 09 3f
        E 42 b1 09 3f
        E 42 b1 09 3f
        E 42 b1 09 3f
        E 42 b1 09 3f
        E 42 b1 09 3f
        E 42 b1 09 3f
        E 42 b1 09 3f
        E 42 b1 09 3f
        E 42 b1 09 3e
        E 42 b1 09 3e
        E 42 b1 09 3d
        E 42 b1 09 3d
        E 42 b1 09 3c
        E 42 b1 09 3b
        E 42 b1 09 3a
        E 42 b1 09 3a
        E 42 b1 09 39
        E 42 b1 09 38
        E 42 b1 09 37
        E 42 b1 09 36
        E 42 b1 09 34
        E 42 b1 09 33
        E 42 b1 09 32
        E 42 b1 09 31
        E 42 b1 09 2f
        E 42 b1 09 2e
        E 42 b1 09 2c
        E 42 b1 09 2b
        E 42 b1 09 2a
        E 42 b1 09 28
        E 42 b1 09 27
        E 42 b1 09 25
        E 42 b1 09 23
        E 42 b1 09 22
        E 42 b1 09 20
        E 42 b1 09 1f
        E 42 b1 09 1d
        E 42 b1 09 1c
        E 42 b1 09 1a
        E 42 b1 09 18
        E 42 b1 09 17
        E 42 b1 09 15
        E 42 b1 09 14
        E 42 b1 09 13
        E 42 b1 09 11
        E 42 b1 09 10
        E 42 b1 09 0e
        E 42 b1 09 0d
        E 42 b1 09 0c
        E 42 b1 09 0b
        E 42 b1 09 09
        E 42 b1 09 08
        E 42 b1 09 07
        E 42 b1 09 06
        E 42 b1 09 05
        E 42 b1 09 05
        E 42 b1 09 04
        E 42 b1 09 03
        E 42 b1 09 02
        E 42 b1 09 02
        E 42 b1 09 01
        E 42 b1 09 01
        E 42 b1 09 00
        E 42 b1 09 00
        E 42 b1 09 00
        E 42 b1 09 00
        E 42 b1 09 00
        E 42 b1 09 00
        E 42 b1 09 00
        E 42 b1 09 00
        E 42 b1 09 00
        E 42 b1 09 01
        E 42 b1 09 01
        E 42 b1 09 02
        E 42 b1 09 02
        E 42 b1 09 03
        E 42 b1 09 03
        E 42 b1 09 04
        E 42 b1 09 05
        E 42 b1 09 06
        E 42 b1 09 07
        E 42 b1 09 08
        E 42 b1 09 09
        E 42 b1 09 0a
        E 42 b1 09 0b
        E 42 b1 09 0c
        E 42 b1 09 0e
        E 42 b1 09 0f
        E 42 b1 09 10
        E 42 b1 09 12
        E 42 b1 09 13
        E 42 b1 09 15
        E 42 b1 09 16
        E 42 b1 09 18
        E 42 b1 09 19
        E 42 b1 09 1b
        E 42 b1 09 1c
        E 42 b1 09 1e
        E 42 b1 09 20
        E 59 b1 09 20
        E 59 b1 09 21
        E 59 b1 09 23
        E 59 b1 09 24
        E 59 b1 09 26
        E 59 b1 09 27
        E 59 b1 09 29
        E 59 b1 09 2a
        E 59 b1 09 2c
        E 59 b1 09 2d
        E 59 b1 09 2f
        E 59 b1 09 30
        E 59 b1 09 31
        E 59 b1 09 33
        E 59 b1 09 34
        E 59 b1 09 35
        E 59 b1 09 36
        E 59 b1 09 37
        E 59 b1 09 38
        E 59 b1 09 39
        E 59 b1 09 3a
        E 59 b1 09 3b
        E 59 b1 09 3c
        E 59 b1 09 3c
        E 59 b1 09 3d
        E 59 b1 09 3d
        E 59 b1 09 3e
        E 59 b1 09 3e
        E 59 b1 09 3f
        E 59 b1 09 3f
        E 59 b1 09 3f
        E 59 b1 09 3f
        E 59 b1 09 3f
        E 59 b1 09 3f
        E 59 b1 09 3f
        E 59 b1 09 3f
        E 59 b1 09 3f
        E 59 b1 09 3e
        E 59 b1 09 3e
        E 59 b1 09 3d
        E 59 b1 09 3d
        E 59 b1 09 3c
        E 59 b1 09 3b
        E 59 b1 09 3a
        E 59 b1 09 3a
        E 59 b1 09 39
        E 59 b1 09 38
        E 59 b1 09 37
        E 59 b1 09 36
        E 59 b1 09 34
        E 59 b1 09 33
        E 59 b1 09 32
        E 59 b1 09 31
        E 59 b1 09 2f
        E 59 b1 09 2e
        E 59 b1 09 2c
        E 59 b1 09 2b
        E 59 b1 09 2a
        E 59 b1 09 28
        E 59 b1 09 27
        E 59 b1 09 25
        E 59 b1 09 23
        E 59 b1 09 22
        E 59 b1 09 20
        E 59 b1 09 1f
        E 59 b1 09 1d
        E 59 b1 09 1c
        E 59 b1 09 1a
        E 59 b1 09 18
        E 59 b1 09 17
        E 59 b1 09 15
        E 59 b1 09 14
        E 59 b1 09 13
        E 59 b1 09 11
        E 59 b1 09 10
        E 59 b1 09 0e
        E 59 b1 09 0d
        E 59 b1 09 0c
        E 59 b1 09 0b
        E 59 b1 09 09
        E 59 b1 09 08
        E 59 b1 09 07
        E 59 b1 09 06
        E 59 b1 09 05
        E 59 b1 09 05
        E 59 b1 09 04
        E 59 b1 09 03
        E 59 b1 09 02
        E 59 b1 09 02
        E 59 b1 09 01
        E 59 b1 09 01
        E 59 b1 09 00
        E 59 b1 09 00
        E 59 b1 09 00
        E 59 b1 09 00
        E 59 b1 09 00
        E 59 b1 09 00
        E 59 b1 09 00
        E 59 b1 09 00
        E 59 b1 09 00
        E 59 b1 09 01
        E 59 b1 09 01
        E 59 b1 09 02
        E 59 b1 09 02
        E 59 b1 09 03
        E 59 b1 09 03
        E 59 b1 09 04
        E 59 b1 09 05
        E 59 b1 09 06
        E 59 b1 09 07
        E 59 b1 09 08
        E 59 b1 09 09
        E 59 b1 09 0a
        E 59 b1 09 0b
        E 59 b1 09 0c
        E 59 b1 09 0e
        E 59 b1 09 0f
        E 59 b1 09 10
        E 59 b1 09 12
        E 59 b1 09 13
        E 59 b1 09 15
        E 59 b1 09 16
        E 59 b1 09 18
        E 59 b1 09 19
        E 59 b1 09 1b
        E 59 b1 09 1c
        E 59 b1 09 1e
        E 59 b1 09 20
        E 68 b1 09 40
        E 68 b1 09 43
        E 68 b1 09 46
        E 68 b1 09 49
        E 68 b1 09 4c
        E 68 b1 09 4f
        E 68 b1 09 52
        E 68 b1 09 55
        E 68 b1 09 58
        E 68 b1 09 5b
        E 68 b1 09 5e
        E 68 b1 09 60
        E 68 b1 09 63
        E 68 b1 09 66
        E 68 b1 09 68
        E 68 b1 09 6a
        E 68 b1 09 6d
        E 68 b1 09 6f
        E 68 b1 09 71
        E 68 b1 09 73
        E 68 b1 09 75
        E 68 b1 09 76
        E 68 b1 09 78
        E 68 b1 09 79
        E 68 b1 09 7a
        E 68 b1 09 7b
        E 68 b1 09 7c
        E 68 b1 09 7d
        E 68 b1 09 7e
        E 68 b1 09 7e
        E 68 b1 09 7f
        E 68 b1 09 7f
        E 68 b1 09 7f
        E 68 b1 09 7f
        E 68 b1 09 7f
        E 68 b1 09 7e
        E 68 b1 09 7e
        E 68 b1 09 7d
        E 68 b1 09 7c
        E 68 b1 09 7b
        E 68 b1 09 7a
        E 68 b1 09 78
        E 68 b1 09 77
        E 68 b1 09 75
        E 68 b1 09 74
        E 68 b1 09 72
        E 68 b1 09 70
        E 68 b1 09 6e
        E 68 b1 09 6c
        E 68 b1 09 69
        E 68 b1 09 67
        E 68 b1 09 64
        E 68 b1 09 62
        E 68 b1 09 5f
        E 68 b1 09 5c
        E 68 b1 09 59
        E 68 b1 09 57
        E 68 b1 09 54
        E 68 b1 09 51
        E 68 b1 09 4e
        E 68 b1 09 4a
        E 68 b1 09 47
        E 68 b1 09 44
        E 68 b1 09 41
        E 68 b1 09 3e
        E 68 b1 09 3b
        E 68 b1 09 38
        E 68 b1 09 35
        E 68 b1 09 31
        E 68 b1 09 2e
        E 68 b1 09 2b
        E 68 b1 09 28
        E 68 b1 09 26
        E 68 b1 09 23
        E 68 b1 09 20
        E 68 b1 09 1d
        E 68 b1 09 1b
        E 68 b1 09 18
        E 68 b1 09 16
        E 68 b1 09 13
        E 68 b1 09 11
        E 68 b1 09 0f
        E 68 b1 09 0d
        E 68 b1 09 0b
        E 68 b1 09 0a
        E 68 b1 09 08
        E 68 b1 09 07
        E 68 b1 09 05
        E 68 b1 09 04
        E 68 b1 09 03
        E 68 b1 09 02
        E 68 b1 09 01
        E 68 b1 09 01
        E 68 b1 09 00
        E 68 b1 09 00
        E 68 b1 09 00
        E 68 b1 09 00
        E 68 b1 09 00
        E 68 b1 09 01
        E 68 b1 09 01
        E 68 b1 09 02
        E 68 b1 09 03
        E 68 b1 09 04
        E 68 b1 09 05
        E 68 b1 09 06
        E 68 b1 09 07
        E 68 b1 09 09
        E 68 b1 09 0a
        E 68 b1 09 0c
        E 68 b1 09 0e
        E 68 b1 09 10
        E 68 b1 09 12
        E 68 b1 09 15
        E 68 b1 09 17
        E 68 b1 09 19
        E 68 b1 09 1c
        E 68 b1 09 1f
        E 68 b1 09 21
        E 68 b1 09 24
        E 68 b1 09 27
        E 68 b1 09 2a
        E 68 b1 09 2d
        E 68 b1 09 30
        E 68 b1 09 33
        E 68 b1 09 36
        E 68 b1 09 39
        E 68 b1 09 3c
        E 68 b1 09 40
        E 8 b1 09 39
        E 8 b1 09 3c
        E 8 b1 09 3f
        E 8 b1 09 41
        E 8 b1 09 44
        E 8 b1 09 47
        E 8 b1 09 49
        E 8 b1 09 4c
        E 8 b1 09 4f
        E 8 b1 09 51
        E 8 b1 09 54
        E 8 b1 09 56
        E 8 b1 09 59
        E 8 b1 09 5b
        E 8 b1 09 5d
        E 8 b1 09 5f
        E 8 b1 09 62
        E 8 b1 09 63
        E 8 b1 09 65
        E 8 b1 09 67
        E 8 b1 09 69
        E 8 b1 09 6a
        E 8 b1 09 6c
        E 8 b1 09 6c
        E 8 b1 09 6d
        E 8 b1 09 6e
        E 8 b1 09 6f
        E 8 b1 09 70
        E 8 b1 09 71
        E 8 b1 09 71
        E 8 b1 09 72
        E 8 b1 09 72
        E 8 b1 09 72
        E 8 b1 09 72
        E 8 b1 09 72
        E 8 b1 09 71
        E 8 b1 09 71
        E 8 b1 09 70
        E 8 b1 09 6f
        E 8 b1 09 6e
        E 8 b1 09 6d
        E 8 b1 09 6c
        E 8 b1 09 6b
        E 8 b1 09 69
        E 8 b1 09 68
        E 8 b1 09 66
        E 8 b1 09 64
        E 8 b1 09 63
        E 8 b1 09 61
        E 8 b1 09 5e
        E 8 b1 09 5c
        E 8 b1 09 5a
        E 8 b1 09 58
        E 8 b1 09 55
        E 8 b1 09 52
        E 8 b1 09 50
        E 8 b1 09 4e
        E 8 b1 09 4b
        E 8 b1 09 48
        E 8 b1 09 46
        E 8 b1 09 42
        E 8 b1 09 3f
        E 8 b1 09 3d
        E 8 b1 09 3a
        E 8 b1 09 37
        E 8 b1 09 35
        E 8 b1 09 32
        E 8 b1 09 2f
        E 8 b1 09 2c
        E 8 b1 09 29
        E 8 b1 09 26
        E 8 b1 09 24
        E 8 b1 09 22
        E 8 b1 09 1f
        E 8 b1 09 1c
        E 8 b1 09 1a
        E 8 b1 09 18
        E 8 b1 09 15
        E 8 b1 09 13
        E 8 b1 09 11
        E 8 b1 09 0f
        E 8 b1 09 0d
        E 8 b1 09 0b
        E 8 b1 09 09
        E 8 b1 09 09
        E 8 b1 09 07
        E 8 b1 09 06
        E 8 b1 09 04
        E 8 b1 09 03
        E 8 b1 09 02
        E 8 b1 09 01
        E 8 b1 09 00
        E 8 b1 09 00
        E 8 b1 09 00
        E 8 b1 09 00
        E 8 b1 09 00
        E 8 b1 09 00
        E 8 b1 09 00
        E 8 b1 09 00
        E 8 b1 09 00
        E 8 b1 09 01
        E 8 b1 09 02
        E 8 b1 09 03
        E 8 b1 09 04
        E 8 b1 09 05
        E 8 b1 09 06
        E 8 b1 09 08
        E 8 b1 09 09
        E 8 b1 09 0a
        E 8 b1 09 0c
        E 8 b1 09 0e
        E 8 b1 09 10
        E 8 b1 09 12
        E 8 b1 09 14
        E 8 b1 09 16
        E 8 b1 09 19
        E 8 b1 09 1b
        E 8 b1 09 1d
        E 8 b1 09 20
        E 8 b1 09 23
        E 8 b1 09 25
        E 8 b1 09 28
        E 8 b1 09 2b
        E 8 b1 09 2d
        E 8 b1 09 30
        E 8 b1 09 33
        E 8 b1 09 36
        E 8 b1 09 39
        E 34 b1 09 40
        E 34 b1 09 43
        E 34 b1 09 46
        E 34 b1 09 49
        E 34 b1 09 4c
        E 34 b1 09 4f
        E 34 b1 09 52
        E 34 b1 09 55
        E 34 b1 09 58
        E 34 b1 09 5b
        E 34 b1 09 5e
        E 34 b1 09 60
        E 34 b1 09 63
        E 34 b1 09 66
        E 34 b1 09 68
        E 34 b1 09 6a
        E 34 b1 09 6d
        E 34 b1 09 6f
        E 34 b1 09 71
        E 34 b1 09 73
        E 34 b1 09 75
        E 34 b1 09 76
        E 34 b1 09 78
        E 34 b1 09 79
        E 34 b1 09 7a
        E 34 b1 09 7b
        E 34 b1 09 7c
        E 34 b1 09 7d
        E 34 b1 09 7e
        E 34 b1 09 7e
        E 34 b1 09 7f
        E 34 b1 09 7f
        E 34 b1 09 7f
        E 34 b1 09 7f
        E 34 b1 09 7f
        E 34 b1 09 7e
        E 34 b1 09 7e
        E 34 b1 09 7d
        E 34 b1 09 7c
        E 34 b1 09 7b
        E 34 b1 09 7a
        E 34 b1 09 78
        E 34 b1 09 77
        E 34 b1 09 75
        E 34 b1 09 74
        E 34 b1 09 72
        E 34 b1 09 70
        E 34 b1 09 6e
        E 34 b1 09 6c
        E 34 b1 09 69
        E 34 b1 09 67
        E 34 b1 09 64
        E 34 b1 09 62
        E 34 b1 09 5f
        E 34 b1 09 5c
        E 34 b1 09 59
        E 34 b1 09 57
        E 34 b1 09 54
        E 34 b1 09 51
        E 34 b1 09 4e
        E 34 b1 09 4a
        E 34 b1 09 47
        E 34 b1 09 44
        E 34 b1 09 41
        E 34 b1 09 3e
        E 34 b1 09 3b
        E 34 b1 09 38
        E 34 b1 09 35
        E 34 b1 09 31
        E 34 b1 09 2e
        E 34 b1 09 2b
        E 34 b1 09 28
        E 34 b1 09 26
        E 34 b1 09 23
        E 34 b1 09 20
        E 34 b1 09 1d
        E 34 b1 09 1b
        E 34 b1 09 18
        E 34 b1 09 16
        E 34 b1 09 13
        E 34 b1 09 11
        E 34 b1 09 0f
        E 34 b1 09 0d
        E 34 b1 09 0b
        E 34 b1 09 0a
        E 34 b1 09 08
        E 34 b1 09 07
        E 34 b1 09 05
        E 34 b1 09 04
        E 34 b1 09 03
        E 34 b1 09 02
        E 34 b1 09 01
        E 34 b1 09 01
        E 34 b1 09 00
        E 34 b1 09 00
        E 34 b1 09 00
        E 34 b1 09 00
        E 34 b1 09 00
        E 34 b1 09 01
        E 34 b1 09 01
        E 34 b1 09 02
        E 34 b1 09 03
        E 34 b1 09 04
        E 34 b1 09 05
        E 34 b1 09 06
        E 34 b1 09 07
        E 34 b1 09 09
        E 34 b1 09 0a
        E 34 b1 09 0c
        E 34 b1 09 0e
        E 34 b1 09 10
        E 34 b1 09 12
        E 34 b1 09 15
        E 34 b1 09 17
        E 34 b1 09 19
        E 34 b1 09 1c
        E 34 b1 09 1f
        E 34 b1 09 21
        E 34 b1 09 24
        E 34 b1 09 27
        E 34 b1 09 2a
        E 34 b1 09 2d
        E 34 b1 09 30
        E 34 b1 09 33
        E 34 b1 09 36
        E 34 b1 09 39
        E 34 b1 09 3c
        E 34 b1 09 40
        E 59 b1 09 39
        E 59 b1 09 3c
        E 59 b1 09 3f
        E 59 b1 09 41
        E 59 b1 09 44
        E 59 b1 09 47
        E 59 b1 09 49
        E 59 b1 09 4c
        E 59 b1 09 4f
        E 59 b1 09 51
        E 59 b1 09 54
        E 59 b1 09 56
        E 59 b1 09 59
        E 59 b1 09 5b
        E 59 b1 09 5d
        E 59 b1 09 5f
        E 59 b1 09 62
        E 59 b1 09 63
        E 59 b1 09 65
        E 59 b1 09 67
        E 59 b1 09 69
        E 59 b1 09 6a
        E 59 b1 09 6c
        E 59 b1 09 6c
        E 59 b1 09 6d
        E 59 b1 09 6e
        E 59 b1 09 6f
        E 59 b1 09 70
        E 59 b1 09 71
        E 59 b1 09 71
        E 59 b1 09 72
        E 59 b1 09 72
        E 59 b1 09 72
        E 59 b1 09 72
        E 59 b1 09 72
        E 59 b1 09 71
        E 59 b1 09 71
        E 59 b1 09 70
        E 59 b1 09 6f
        E 59 b1 09 6e
        E 59 b1 09 6d
        E 59 b1 09 6c
        E 59 b1 09 6b
        E 59 b1 09 69
        E 59 b1 09 68
        E 59 b1 09 66
        E 59 b1 09 64
        E 59 b1 09 63
        E 59 b1 09 61
        E 59 b1 09 5e
        E 59 b1 09 5c
        E 59 b1 09 5a
        E 59 b1 09 58
        E 59 b1 09 55
        E 59 b1 09 52
        E 59 b1 09 50
        E 59 b1 09 4e
        E 59 b1 09 4b
        E 59 b1 09 48
        E 59 b1 09 46
        E 59 b1 09 42
        E 59 b1 09 3f
        E 59 b1 09 3d
        E 59 b1 09 3a
        E 59 b1 09 37
        E 59 b1 09 35
        E 59 b1 09 32
        E 59 b1 09 2f
        E 59 b1 09 2c
        E 59 b1 09 29
        E 59 b1 09 26
        E 59 b1 09 24
        E 59 b1 09 22
        E 59 b1 09 1f
        E 59 b1 09 1c
        E 59 b1 09 1a
        E 59 b1 09 18
        E 59 b1 09 15
        E 59 b1 09 13
        E 59 b1 09 11
        E 59 b1 09 0f
        E 59 b1 09 0d
        E 59 b1 09 0b
        E 59 b1 09 09
        E 59 b1 09 09
        E 59 b1 09 07
        E 59 b1 09 06
        E 59 b1 09 04
        E 59 b1 09 03
        E 59 b1 09 02
        E 59 b1 09 01
        E 59 b1 09 00
        E 59 b1 09 00
        E 59 b1 09 00
        E 59 b1 09 00
        E 59 b1 09 00
        E 59 b1 09 00
        E 59 b1 09 00
        E 59 b1 09 00
        E 59 b1 09 00
        E 59 b1 09 01
        E 59 b1 09 02
        E 59 b1 09 03
        E 59 b1 09 04
        E 59 b1 09 05
        E 59 b1 09 06
        E 59 b1 09 08
        E 59 b1 09 09
        E 59 b1 09 0a
        E 59 b1 09 0c
        E 59 b1 09 0e
        E 59 b1 09 10
        E 59 b1 09 12
        E 59 b1 09 14
        E 59 b1 09 16
        E 59 b1 09 19
        E 59 b1 09 1b
        E 59 b1 09 1d
        E 59 b1 09 20
        E 59 b1 09 23
        E 59 b1 09 25
        E 59 b1 09 28
        E 59 b1 09 2b
        E 59 b1 09 2d
        E 59 b1 09 30
        E 59 b1 09 33
        E 59 b1 09 36
        E 59 b1 09 39
        E 42 b1 09 20
        E 42 b1 09 21
        E 42 b1 09 23
        E 42 b1 09 24
        E 42 b1 09 26
        E 42 b1 09 27
        E 42 b1 09 29
        E 42 b1 09 2a
        E 42 b1 09 2c
        E 42 b1 09 2d
        E 42 b1 09 2f
        E 42 b1 09 30
        E 42 b1 09 31
        E 42 b1 09 33
        E 42 b1 09 34
        E 42 b1 09 35
        E 42 b1 09 36
        E 42 b1 09 37
        E 42 b1 09 38
        E 42 b1 09 39
        E 42 b1 09 3a
        E 42 b1 09 3b
        E 42 b1 09 3c
        E 42 b1 09 3c
        E 42 b1 09 3d
        E 42 b1 09 3d
        E 42 b1 09 3e
        E 42 b1 09 3e
        E 42 b1 09 3f
        E 42 b1 09 3f
        E 42 b1 09 3f
        E 42 b1 09 3f
        E 42 b1 09 3f
        E 42 b1 09 3f
        E 42 b1 09 3f
        E 42 b1 09 3f
        E 42 b1 09 3f
        E 42 b1 09 3e
        E 42 b1 09 3e
        E 42 b1 09 3d
        E 42 b1 09 3d
        E 42 b1 09 3c
        E 42 b1 09 3b
        E 42 b1 09 3a
        E 42 b1 09 3a
        E 42 b1 09 39
        E 42 b1 09 38
        E 42 b1 09 37
        E 42 b1 09 36
        E 42 b1 09 34
        E 42 b1 09 33
        E 42 b1 09 32
        E 42 b1 09 31
        E 42 b1 09 2f
        E 42 b1 09 2e
        E 42 b1 09 2c
        E 42 b1 09 2b
        E 42 b1 09 2a
        E 42 b1 09 28
        E 42 b1 09 27
        E 42 b1 09 25
        E 42 b1 09 23
        E 42 b1 09 22
        E 42 b1 09 20
        E 42 b1 09 1f
        E 42 b1 09 1d
        E 42 b1 09 1c
        E 42 b1 09 1a
        E 42 b1 09 18
        E 42 b1 09 17
        E 42 b1 09 15
        E 42 b1 09 14
        E 42 b1 09 13
        E 42 b1 09 11
        E 42 b1 09 10
        E 42 b1 09 0e
        E 42 b1 09 0d
        E 42 b1 09 0c
        E 42 b1 09 0b
        E 42 b1 09 09
        E 42 b1 09 08
        E 42 b1 09 07
        E 42 b1 09 06
        E 42 b1 09 05
        E 42 b1 09 05
        E 42 b1 09 04
        E 42 b1 09 03
        E 42 b1 09 02
        E 42 b1 09 02
        E 42 b1 09 01
        E 42 b1 09 01
        E 42 b1 09 00
        E 42 b1 09 00
        E 42 b1 09 00
        E 42 b1 09 00
        E 42 b1 09 00
        E 42 b1 09 00
        E 42 b1 09 00
        E 42 b1 09 00
        E 42 b1 09 00
        E 42 b1 09 01
        E 42 b1 09 01
        E 42 b1 09 02
        E 42 b1 09 02
        E 42 b1 09 03
        E 42 b1 09 03
        E 42 b1 09 04
        E 42 b1 09 05
        E 42 b1 09 06
        E 42 b1 09 07
        E 42 b1 09 08
        E 42 b1 09 09
        E 42 b1 09 0a
        E 42 b1 09 0b
        E 42 b1 09 0c
        E 42 b1 09 0e
        E 42 b1 09 0f
        E 42 b1 09 10
        E 42 b1 09 12
        E 42 b1 09 13
        E 42 b1 09 15
        E 42 b1 09 16
        E 42 b1 09 18
        E 42 b1 09 19
        E 42 b1 09 1b
        E 42 b1 09 1c
        E 42 b1 09 1e
        E 42 b1 09 20
        E 42 b1 09 20
        E 42 b1 09 21
        E 42 b1 09 23
        E 42 b1 09 24
        E 42 b1 09 26
        E 42 b1 09 27
        E 42 b1 09 29
        E 42 b1 09 2a
        E 42 b1 09 2c
        E 42 b1 09 2d
        E 42 b1 09 2f
        E 42 b1 09 30
        E 42 b1 09 31
        E 42 b1 09 33
        E 42 b1 09 34
        E 42 b1 09 35
        E 42 b1 09 36
        E 42 b1 09 37
        E 42 b1 09 38
        E 42 b1 09 39
        E 42 b1 09 3a
        E 42 b1 09 3b
        E 42 b1 09 3c
        E 42 b1 09 3c
        E 42 b1 09 3d
        E 42 b1 09 3d
        E 42 b1 09 3e
        E 42 b1 09 3e
        E 42 b1 09 3f
        E 42 b1 09 3f
        E 42 b1 09 3f
        E 42 b1 09 3f
        E 42 b1 09 3f
        E 42 b1 09 3f
        E 42 b1 09 3f
        E 42 b1 09 3f
        E 42 b1 09 3f
        E 42 b1 09 3e
        E 42 b1 09 3e
        E 42 b1 09 3d
        E 42 b1 09 3d
        E 42 b1 09 3c
        E 42 b1 09 3b
        E 42 b1 09 3a
        E 42 b1 09 3a
        E 42 b1 09 39
        E 42 b1 09 38
        E 42 b1 09 37
        E 42 b1 09 36
        E 42 b1 09 34
        E 42 b1 09 33
        E 42 b1 09 32
        E 42 b1 09 31
        E 42 b1 09 2f
        E 42 b1 09 2e
        E 42 b1 09 2c
        E 42 b1 09 2b
        E 42 b1 09 2a
        E 42 b1 09 28
        E 42 b1 09 27
        E 42 b1 09 25
        E 42 b1 09 23
        E 42 b1 09 22
        E 42 b1 09 20
        E 42 b1 09 1f
        E 42 b1 09 1d
        E 42 b1 09 1c
        E 42 b1 09 1a
        E 42 b1 09 18
        E 42 b1 09 17
        E 42 b1 09 15
        E 42 b1 09 14
        E 42 b1 09 13
        E 42 b1 09 11
        E 42 b1 09 10
        E 42 b1 09 0e
        E 42 b1 09 0d
        E 42 b1 09 0c
        E 42 b1 09 0b
        E 42 b1 09 09
        E 42 b1 09 08
        E 42 b1 09 07
        E 42 b1 09 06
        E 42 b1 09 05
        E 42 b1 09 05
        E 42 b1 09 04
        E 42 b1 09 03
        E 42 b1 09 02
        E 42 b1 09 02
        E 42 b1 09 01
        E 42 b1 09 01
        E 42 b1 09 00
        E 42 b1 09 00
        E 42 b1 09 00
        E 42 b1 09 00
        E 42 b1 09 00
        E 42 b1 09 00
        E 42 b1 09 00
        E 42 b1 09 00
        E 42 b1 09 00
        E 42 b1 09 01
        E 42 b1 09 01
        E 42 b1 09 02
        E 42 b1 09 02
        E 42 b1 09 03
        E 42 b1 09 03
        E 42 b1 09 04
        E 42 b1 09 05
        E 42 b1 09 06
        E 42 b1 09 07
        E 42 b1 09 08
        E 42 b1 09 09
        E 42 b1 09 0a
        E 42 b1 09 0b
        E 42 b1 09 0c
        E 42 b1 09 0e
        E 42 b1 09 0f
        E 42 b1 09 10
        E 42 b1 09 12
        E 42 b1 09 13
        E 42 b1 09 15
        E 42 b1 09 16
        E 42 b1 09 18
        E 42 b1 09 19
        E 42 b1 09 1b
        E 42 b1 09 1c
        E 42 b1 09 1e
        E 42 b1 09 20
        E 88 b1 09 0c
        E 88 b1 09 0c
        E 88 b1 09 0c
        E 88 b1 09 0c
        E 88 b1 09 0c
        E 88 b1 09 0c
        E 88 b1 09 0c
        E 88 b1 09 0c
        E 88 b1 09 0c
        E 88 b1 09 0c
        E 88 b1 09 0c
        E 88 b1 09 0c
        E 88 b1 09 0c
        E 88 b1 09 0c
        E 88 b1 09 0c
        E 88 b1 09 0c
        E 88 b1 09 0c
        E 88 b1 09 0c
        E 88 b1 09 0c
        E 88 b1 09 0c
        E 88 b1 09 0c
        E 88 b1 09 0c
        E 88 b1 09 0c
        E 88 b1 09 0c
        E 88 b1 09 0c
        E 88 b1 09 0c
        E 88 b1 09 0c
        E 88 b1 09 0c
        E 88 b1 09 0c
        E 88 b1 09 0c
        E 88 b1 09 0c
        E 88 b1 09 0c
        E 88 b1 09 0c
        E 88 b1 09 0c
        E 88 b1 09 0c
        E 88 b1 09 0c
        E 88 b1 09 0c
        E 88 b1 09 0c
        E 88 b1 09 0c
        E 88 b1 09 0c
        E 88 b1 09 0c
        E 88 b1 09 0c
        E 88 b1 09 0c
        E 88 b1 09 0c
        E 88 b1 09 0c
        E 88 b1 09 0c
        E 88 b1 09 0c
        E 88 b1 09 0c
        E 88 b1 09 0c
        E 88 b1 09 0c
        E 88 b1 09 0c
        E 88 b1 09 0c
        E 88 b1 09 0c
        E 88 b1 09 0c
        E 88 b1 09 0c
        E 88 b1 09 0c
        E 88 b1 09 0c
        E 88 b1 09 0c
        E 88 b1 09 0c
        E 88 b1 09 0c
        E 88 b1 09 0c
        E 88 b1 09 0c
        E 88 b1 09 0c
        E 88 b1 09 00
        E 88 b1 09 00
        E 88 b1 09 00
        E 88 b1 09 00
        E 88 b1 09 00
        E 88 b1 09 00
        E 88 b1 09 00
        E 88 b1 09 00
        E 88 b1 09 00
        E 88 b1 09 00
        E 88 b1 09 00
        E 88 b1 09 00
        E 88 b1 09 00
        E 88 b1 09 00
        E 88 b1 09 00
        E 88 b1 09 00
        E 88 b1 09 00
        E 88 b1 09 00
        E 88 b1 09 00
        E 88 b1 09 00
        E 88 b1 09 00
        E 88 b1 09 00
        E 88 b1 09 00
        E 88 b1 09 00
        E 88 b1 09 00
        E 88 b1 09 00
        E 88 b1 09 00
        E 88 b1 09 00
        E 88 b1 09 00
        E 88 b1 09 00
        E 88 b1 09 00
        E 88 b1 09 00
        E 88 b1 09 00
        E 88 b1 09 00
        E 88 b1 09 00
        E 88 b1 09 00
        E 88 b1 09 00
        E 88 b1 09 00
        E 88 b1 09 00
        E 88 b1 09 00
        E 88 b1 09 00
        E 88 b1 09 00
        E 88 b1 09 00
        E 88 b1 09 00
        E 88 b1 09 00
        E 88 b1 09 00
        E 88 b1 09 00
        E 88 b1 09 00
        E 88 b1 09 00
        E 88 b1 09 00
        E 88 b1 09 00
        E 88 b1 09 00
        E 88 b1 09 00
        E 88 b1 09 00
        E 88 b1 09 00
        E 88 b1 09 00
        E 88 b1 09 00
        E 88 b1 09 00
        E 88 b1 09 00
        E 88 b1 09 00
        E 88 b1 09 00
        E 88 b1 09 00
        E 88 b1 09 00
        E 88 b1 09 00
        E 79 b1 09 32
        E 79 b1 09 32
        E 79 b1 09 32
        E 79 b1 09 32
        E 79 b1 09 32
        E 79 b1 09 32
        E 79 b1 09 32
        E 79 b1 09 32
        E 79 b1 09 32
        E 79 b1 09 32
        E 79 b1 09 32
        E 79 b1 09 32
        E 79 b1 09 32
        E 79 b1 09 32
        E 79 b1 09 32
        E 79 b1 09 32
        E 79 b1 09 32
        E 79 b1 09 32
        E 79 b1 09 32
        E 79 b1 09 32
        E 79 b1 09 32
        E 79 b1 09 32
        E 79 b1 09 32
        E 79 b1 09 32
        E 79 b1 09 32
        E 79 b1 09 32
        E 79 b1 09 32
        E 79 b1 09 32
        E 79 b1 09 32
        E 79 b1 09 32
        E 79 b1 09 32
        E 79 b1 09 32
        E 79 b1 09 32
        E 79 b1 09 32
        E 79 b1 09 32
        E 79 b1 09 32
        E 79 b1 09 32
        E 79 b1 09 32
        E 79 b1 09 32
        E 79 b1 09 32
        E 79 b1 09 32
        E 79 b1 09 32
        E 79 b1 09 32
        E 79 b1 09 32
        E 79 b1 09 32
        E 79 b1 09 32
        E 79 b1 09 32
        E 79 b1 09 32
        E 79 b1 09 32
        E 79 b1 09 32
        E 79 b1 09 32
        E 79 b1 09 32
        E 79 b1 09 32
        E 79 b1 09 32
        E 79 b1 09 32
        E 79 b1 09 32
        E 79 b1 09 32
        E 79 b1 09 32
        E 79 b1 09 32
        E 79 b1 09 32
        E 79 b1 09 32
        E 79 b1 09 32
        E 79 b1 09 32
        E 79 b1 09 00
        E 79 b1 09 00
        E 79 b1 09 00
        E 79 b1 09 00
        E 79 b1 09 00
        E 79 b1 09 00
        E 79 b1 09 00
        E 79 b1 09 00
        E 79 b1 09 00
        E 79 b1 09 00
        E 79 b1 09 00
        E 79 b1 09 00
        E 79 b1 09 00
        E 79 b1 09 00
        E 79 b1 09 00
        E 79 b1 09 00
        E 79 b1 09 00
        E 79 b1 09 00
        E 79 b1 09 00
        E 79 b1 09 00
        E 79 b1 09 00
        E 79 b1 09 00
        E 79 b1 09 00
        E 79 b1 09 00
        E 79 b1 09 00
        E 79 b1 09 00
        E 79 b1 09 00
        E 79 b1 09 00
        E 79 b1 09 00
        E 79 b1 09 00
        E 79 b1 09 00
        E 79 b1 09 00
        E 79 b1 09 00
        E 79 b1 09 00
        E 79 b1 09 00
        E 79 b1 09 00
        E 79 b1 09 00
        E 79 b1 09 00
        E 79 b1 09 00
        E 79 b1 09 00
        E 79 b1 09 00
        E 79 b1 09 00
        E 79 b1 09 00
        E 79 b1 09 00
        E 79 b1 09 00
        E 79 b1 09 00
        E 79 b1 09 00
        E 79 b1 09 00
        E 79 b1 09 00
        E 79 b1 09 00
        E 79 b1 09 00
        E 79 b1 09 00
        E 79 b1 09 00
        E 79 b1 09 00
        E 79 b1 09 00
        E 79 b1 09 00
        E 79 b1 09 00
        E 79 b1 09 00
        E 79 b1 09 00
        E 79 b1 09 00
        E 79 b1 09 00
        E 79 b1 09 00
        E 79 b1 09 00
        E 79 b1 09 00
        E 44 b1 09 58
        E 44 b1 09 58
        E 44 b1 09 58
        E 44 b1 09 58
        E 44 b1 09 58
        E 44 b1 09 58
        E 44 b1 09 58
        E 44 b1 09 58
        E 44 b1 09 58
        E 44 b1 09 58
        E 44 b1 09 58
        E 44 b1 09 58
        E 44 b1 09 58
        E 44 b1 09 58
        E 44 b1 09 58
        E 44 b1 09 58
        E 44 b1 09 58
        E 44 b1 09 58
        E 44 b1 09 58
        E 44 b1 09 58
        E 44 b1 09 58
        E 44 b1 09 58
        E 44 b1 09 58
        E 44 b1 09 58
        E 44 b1 09 58
        E 44 b1 09 58
        E 44 b1 09 58
        E 44 b1 09 58
        E 44 b1 09 58
        E 44 b1 09 58
        E 44 b1 09 58
        E 44 b1 09 58
        E 44 b1 09 58
        E 44 b1 09 58
        E 44 b1 09 58
        E 44 b1 09 58
        E 44 b1 09 58
        E 44 b1 09 58
        E 44 b1 09 58
        E 44 b1 09 58
        E 44 b1 09 58
        E 44 b1 09 58
        E 44 b1 09 58
        E 44 b1 09 58
        E 44 b1 09 58
        E 44 b1 09 58
        E 44 b1 09 58
        E 44 b1 09 58
        E 44 b1 09 58
        E 44 b1 09 58
        E 44 b1 09 58
        E 44 b1 09 58
        E 44 b1 09 58
        E 44 b1 09 58
        E 44 b1 09 58
        E 44 b1 09 58
        E 44 b1 09 58
        E 44 b1 09 58
        E 44 b1 09 58
        E 44 b1 09 58
        E 44 b1 09 58
        E 44 b1 09 58
        E 44 b1 09 58
        E 44 b1 09 00
        E 44 b1 09 00
        E 44 b1 09 00
        E 44 b1 09 00
        E 44 b1 09 00
        E 44 b1 09 00
        E 44 b1 09 00
        E 44 b1 09 00
        E 44 b1 09 00
        E 44 b1 09 00
        E 44 b1 09 00
        E 44 b1 09 00
        E 44 b1 09 00
        E 44 b1 09 00
        E 44 b1 09 00
        E 44 b1 09 00
        E 44 b1 09 00
        E 44 b1 09 00
        E 44 b1 09 00
        E 44 b1 09 00
        E 44 b1 09 00
        E 44 b1 09 00
        E 44 b1 09 00
        E 44 b1 09 00
        E 44 b1 09 00
        E 44 b1 09 00
        E 44 b1 09 00
        E 44 b1 09 00
        E 44 b1 09 00
        E 44 b1 09 00
        E 44 b1 09 00
        E 44 b1 09 00
        E 44 b1 09 00
        E 44 b1 09 00
        E 44 b1 09 00
        E 44 b1 09 00
        E 44 b1 09 00
        E 44 b1 09 00
        E 44 b1 09 00
        E 44 b1 09 00
        E 44 b1 09 00
        E 44 b1 09 00
        E 44 b1 09 00
        E 44 b1 09 00
        E 44 b1 09 00
        E 44 b1 09 00
        E 44 b1 09 00
        E 44 b1 09 00
        E 44 b1 09 00
        E 44 b1 09 00
        E 44 b1 09 00
        E 44 b1 09 00
        E 44 b1 09 00
        E 44 b1 09 00
        E 44 b1 09 00
        E 44 b1 09 00
        E 44 b1 09 00
        E 44 b1 09 00
        E 44 b1 09 00
        E 44 b1 09 00
        E 44 b1 09 00
        E 44 b1 09 00
        E 44 b1 09 00
        E 44 b1 09 00
        E 44 b1 09 3f
        E 44 b1 09 3f
        E 44 b1 09 3f
        E 44 b1 09 3f
        E 44 b1 09 3f
        E 44 b1 09 3f
        E 44 b1 09 3f
        E 44 b1 09 3f
        E 44 b1 09 3f
        E 44 b1 09 3f
        E 44 b1 09 3f
        E 44 b1 09 3f
        E 44 b1 09 3f
        E 44 b1 09 3f
        E 44 b1 09 3f
        E 44 b1 09 3f
        E 44 b1 09 3f
        E 44 b1 09 3f
        E 44 b1 09 3f
        E 44 b1 09 3f
        E 44 b1 09 3f
        E 44 b1 09 3f
        E 44 b1 09 3f
        E 44 b1 09 3f
        E 44 b1 09 3f
        E 44 b1 09 3f
        E 44 b1 09 3f
        E 44 b1 09 3f
        E 44 b1 09 3f
        E 44 b1 09 3f
        E 44 b1 09 3f
        E 44 b1 09 3f
        E 44 b1 09 3f
        E 44 b1 09 3f
        E 44 b1 09 3f
        E 44 b1 09 3f
        E 44 b1 09 3f
        E 44 b1 09 3f
        E 44 b1 09 3f
        E 44 b1 09 3f
        E 44 b1 09 3f
        E 44 b1 09 3f
        E 44 b1 09 3f
        E 44 b1 09 3f
        E 44 b1 09 3f
        E 44 b1 09 3f
        E 44 b1 09 3f
        E 44 b1 09 3f
        E 44 b1 09 3f
        E 44 b1 09 3f
        E 44 b1 09 3f
        E 44 b1 09 3f
        E 44 b1 09 3f
        E 44 b1 09 3f
        E 44 b1 09 3f
        E 44 b1 09 3f
        E 44 b1 09 3f
        E 44 b1 09 3f
        E 44 b1 09 3f
        E 44 b1 09 3f
        E 44 b1 09 3f
        E 44 b1 09 3f
        E 44 b1 09 3f
        E 44 b1 09 00
        E 44 b1 09 00
        E 44 b1 09 00
        E 44 b1 09 00
        E 44 b1 09 00
        E 44 b1 09 00
        E 44 b1 09 00
        E 44 b1 09 00
        E 44 b1 09 00
        E 44 b1 09 00
        E 44 b1 09 00
        E 44 b1 09 00
        E 44 b1 09 00
        E 44 b1 09 00
        E 44 b1 09 00
        E 44 b1 09 00
        E 44 b1 09 00
        E 44 b1 09 00
        E 44 b1 09 00
        E 44 b1 09 00
        E 44 b1 09 00
        E 44 b1 09 00
        E 44 b1 09 00
        E 44 b1 09 00
        E 44 b1 09 00
        E 44 b1 09 00
        E 44 b1 09 00
        E 44 b1 09 00
        E 44 b1 09 00
        E 44 b1 09 00
        E 44 b1 09 00
        E 44 b1 09 00
        E 44 b1 09 00
        E 44 b1 09 00
        E 44 b1 09 00
        E 44 b1 09 00
        E 44 b1 09 00
        E 44 b1 09 00
        E 44 b1 09 00
        E 44 b1 09 00
        E 44 b1 09 00
        E 44 b1 09 00
        E 44 b1 09 00
        E 44 b1 09 00
        E 44 b1 09 00
        E 44 b1 09 00
        E 44 b1 09 00
        E 44 b1 09 00
        E 44 b1 09 00
        E 44 b1 09 00
        E 44 b1 09 00
        E 44 b1 09 00
        E 44 b1 09 00
        E 44 b1 09 00
        E 44 b1 09 00
        E 44 b1 09 00
        E 44 b1 09 00
        E 44 b1 09 00
        E 44 b1 09 00
        E 44 b1 09 00
        E 44 b1 09 00
        E 44 b1 09 00
        E 44 b1 09 00
        E 44 b1 09 00
        E 61 b1 09 3f
        E 61 b1 09 3f
        E 61 b1 09 3f
        E 61 b1 09 3f
        E 61 b1 09 3f
        E 61 b1 09 3f
        E 61 b1 09 3f
        E 61 b1 09 3f
        E 61 b1 09 3f
        E 61 b1 09 3f
        E 61 b1 09 3f
        E 61 b1 09 3f
        E 61 b1 09 3f
        E 61 b1 09 3f
        E 61 b1 09 3f
        E 61 b1 09 3f
        E 61 b1 09 3f
        E 61 b1 09 3f
        E 61 b1 09 3f
        E 61 b1 09 3f
        E 61 b1 09 3f
        E 61 b1 09 3f
        E 61 b1 09 3f
        E 61 b1 09 3f
        E 61 b1 09 3f
        E 61 b1 09 3f
        E 61 b1 09 3f
        E 61 b1 09 3f
        E 61 b1 09 3f
        E 61 b1 09 3f
        E 61 b1 09 3f
        E 61 b1 09 3f
        E 61 b1 09 3f
        E 61 b1 09 3f
        E 61 b1 09 3f
        E 61 b1 09 3f
        E 61 b1 09 3f
        E 61 b1 09 3f
        E 61 b1 09 3f
        E 61 b1 09 3f
        E 61 b1 09 3f
        E 61 b1 09 3f
        E 61 b1 09 3f
        E 61 b1 09 3f
        E 61 b1 09 3f
        E 61 b1 09 3f
        E 61 b1 09 3f
        E 61 b1 09 3f
        E 61 b1 09 3f
        E 61 b1 09 3f
        E 61 b1 09 3f
        E 61 b1 09 3f
        E 61 b1 09 3f
        E 61 b1 09 3f
        E 61 b1 09 3f
        E 61 b1 09 3f
        E 61 b1 09 3f
        E 61 b1 09 3f
        E 61 b1 09 3f
        E 61 b1 09 3f
        E 61 b1 09 3f
        E 61 b1 09 3f
        E 61 b1 09 3f
        E 61 b1 09 00
        E 61 b1 09 00
        E 61 b1 09 00
        E 61 b1 09 00
        E 61 b1 09 00
        E 61 b1 09 00
        E 61 b1 09 00
        E 61 b1 09 00
        E 61 b1 09 00
        E 61 b1 09 00
        E 61 b1 09 00
        E 61 b1 09 00
        E 61 b1 09 00
        E 61 b1 09 00
        E 61 b1 09 00
        E 61 b1 09 00
        E 61 b1 09 00
        E 61 b1 09 00
        E 61 b1 09 00
        E 61 b1 09 00
        E 61 b1 09 00
        E 61 b1 09 00
        E 61 b1 09 00
        E 61 b1 09 00
        E 61 b1 09 00
        E 61 b1 09 00
        E 61 b1 09 00
        E 61 b1 09 00
        E 61 b1 09 00
        E 61 b1 09 00
        E 61 b1 09 00
        E 61 b1 09 00
        E 61 b1 09 00
        E 61 b1 09 00
        E 61 b1 09 00
        E 61 b1 09 00
        E 61 b1 09 00
        E 61 b1 09 00
        E 61 b1 09 00
        E 61 b1 09 00
        E 61 b1 09 00
        E 61 b1 09 00
        E 61 b1 09 00
        E 61 b1 09 00
        E 61 b1 09 00
        E 61 b1 09 00
        E 61 b1 09 00
        E 61 b1 09 00
        E 61 b1 09 00
        E 61 b1 09 00
        E 61 b1 09 00
        E 61 b1 09 00
        E 61 b1 09 00
        E 61 b1 09 00
        E 61 b1 09 00
        E 61 b1 09 00
        E 61 b1 09 00
        E 61 b1 09 00
        E 61 b1 09 00
        E 61 b1 09 00
        E 61 b1 09 00
        E 61 b1 09 00
        E 61 b1 09 00
        E 61 b1 09 00
        E 70 b1 09 7f
        E 70 b1 09 7f
        E 70 b1 09 7f
        E 70 b1 09 7f
        E 70 b1 09 7f
        E 70 b1 09 7f
        E 70 b1 09 7f
        E 70 b1 09 7f
        E 70 b1 09 7f
        E 70 b1 09 7f
        E 70 b1 09 7f
        E 70 b1 09 7f
        E 70 b1 09 7f
        E 70 b1 09 7f
        E 70 b1 09 7f
        E 70 b1 09 7f
        E 70 b1 09 7f
        E 70 b1 09 7f
        E 70 b1 09 7f
        E 70 b1 09 7f
        E 70 b1 09 7f
        E 70 b1 09 7f
        E 70 b1 09 7f
        E 70 b1 09 7f
        E 70 b1 09 7f
        E 70 b1 09 7f
        E 70 b1 09 7f
        E 70 b1 09 7f
        E 70 b1 09 7f
        E 70 b1 09 7f
        E 70 b1 09 7f
        E 70 b1 09 7f
        E 70 b1 09 7f
        E 70 b1 09 7f
        E 70 b1 09 7f
        E 70 b1 09 7f
        E 70 b1 09 7f
        E 70 b1 09 7f
        E 70 b1 09 7f
        E 70 b1 09 7f
        E 70 b1 09 7f
        E 70 b1 09 7f
        E 70 b1 09 7f
        E 70 b1 09 7f
        E 70 b1 09 7f
        E 70 b1 09 7f
        E 70 b1 09 7f
        E 70 b1 09 7f
        E 70 b1 09 7f
        E 70 b1 09 7f
        E 70 b1 09 7f
        E 70 b1 09 7f
        E 70 b1 09 7f
        E 70 b1 09 7f
        E 70 b1 09 7f
        E 70 b1 09 7f
        E 70 b1 09 7f
        E 70 b1 09 7f
        E 70 b1 09 7f
        E 70 b1 09 7f
        E 70 b1 09 7f
        E 70 b1 09 7f
        E 70 b1 09 7f
        E 70 b1 09 00
        E 70 b1 09 00
        E 70 b1 09 00
        E 70 b1 09 00
        E 70 b1 09 00
        E 70 b1 09 00
        E 70 b1 09 00
        E 70 b1 09 00
        E 70 b1 09 00
        E 70 b1 09 00
        E 70 b1 09 00
        E 70 b1 09 00
        E 70 b1 09 00
        E 70 b1 09 00
        E 70 b1 09 00
        E 70 b1 09 00
        E 70 b1 09 00
        E 70 b1 09 00
        E 70 b1 09 00
        E 70 b1 09 00
        E 70 b1 09 00
        E 70 b1 09 00
        E 70 b1 09 00
        E 70 b1 09 00
        E 70 b1 09 00
        E 70 b1 09 00
        E 70 b1 09 00
        E 70 b1 09 00
        E 70 b1 09 00
        E 70 b1 09 00
        E 70 b1 09 00
        E 70 b1 09 00
        E 70 b1 09 00
        E 70 b1 09 00
        E 70 b1 09 00
        E 70 b1 09 00
        E 70 b1 09 00
        E 70 b1 09 00
        E 70 b1 09 00
        E 70 b1 09 00
        E 70 b1 09 00
        E 70 b1 09 00
        E 70 b1 09 00
        E 70 b1 09 00
        E 70 b1 09 00
        E 70 b1 09 00
        E 70 b1 09 00
        E 70 b1 09 00
        E 70 b1 09 00
        E 70 b1 09 00
        E 70 b1 09 00
        E 70 b1 09 00
        E 70 b1 09 00
        E 70 b1 09 00
        E 70 b1 09 00
        E 70 b1 09 00
        E 70 b1 09 00
        E 70 b1 09 00
        E 70 b1 09 00
        E 70 b1 09 00
        E 70 b1 09 00
        E 70 b1 09 00
        E 70 b1 09 00
        E 70 b1 09 00
        E 8 b1 09 72
        E 8 b1 09 72
        E 8 b1 09 72
        E 8 b1 09 72
        E 8 b1 09 72
        E 8 b1 09 72
        E 8 b1 09 72
        E 8 b1 09 72
        E 8 b1 09 72
        E 8 b1 09 72
        E 8 b1 09 72
        E 8 b1 09 72
        E 8 b1 09 72
        E 8 b1 09 72
        E 8 b1 09 72
        E 8 b1 09 72
        E 8 b1 09 72
        E 8 b1 09 72
        E 8 b1 09 72
        E 8 b1 09 72
        E 8 b1 09 72
        E 8 b1 09 72
        E 8 b1 09 72
        E 8 b1 09 72
        E 8 b1 09 72
        E 8 b1 09 72
        E 8 b1 09 72
        E 8 b1 09 72
        E 8 b1 09 72
        E 8 b1 09 72
        E 8 b1 09 72
        E 8 b1 09 72
        E 8 b1 09 72
        E 8 b1 09 72
        E 8 b1 09 72
        E 8 b1 09 72
        E 8 b1 09 72
        E 8 b1 09 72
        E 8 b1 09 72
        E 8 b1 09 72
        E 8 b1 09 72
        E 8 b1 09 72
        E 8 b1 09 72
        E 8 b1 09 72
        E 8 b1 09 72
        E 8 b1 09 72
        E 8 b1 09 72
        E 8 b1 09 72
        E 8 b1 09 72
        E 8 b1 09 72
        E 8 b1 09 72
        E 8 b1 09 72
        E 8 b1 09 72
        E 8 b1 09 72
        E 8 b1 09 72
        E 8 b1 09 72
        E 8 b1 09 72
        E 8 b1 09 72
        E 8 b1 09 72
        E 8 b1 09 72
        E 8 b1 09 72
        E 8 b1 09 72
        E 8 b1 09 72
        E 8 b1 09 00
        E 8 b1 09 00
        E 8 b1 09 00
        E 8 b1 09 00
        E 8 b1 09 00
        E 8 b1 09 00
        E 8 b1 09 00
        E 8 b1 09 00
        E 8 b1 09 00
        E 8 b1 09 00
        E 8 b1 09 00
        E 8 b1 09 00
        E 8 b1 09 00
        E 8 b1 09 00
        E 8 b1 09 00
        E 8 b1 09 00
        E 8 b1 09 00
        E 8 b1 09 00
        E 8 b1 09 00
        E 8 b1 09 00
        E 8 b1 09 00
        E 8 b1 09 00
        E 8 b1 09 00
        E 8 b1 09 00
        E 8 b1 09 00
        E 8 b1 09 00
        E 8 b1 09 00
        E 8 b1 09 00
        E 8 b1 09 00
        E 8 b1 09 00
        E 8 b1 09 00
        E 8 b1 09 00
        E 8 b1 09 00
        E 8 b1 09 00
        E 8 b1 09 00
        E 8 b1 09 00
        E 8 b1 09 00
        E 8 b1 09 00
        E 8 b1 09 00
        E 8 b1 09 00
        E 8 b1 09 00
        E 8 b1 09 00
        E 8 b1 09 00
        E 8 b1 09 00
        E 8 b1 09 00
        E 8 b1 09 00
        E 8 b1 09 00
        E 8 b1 09 00
        E 8 b1 09 00
        E 8 b1 09 00
        E 8 b1 09 00
        E 8 b1 09 00
        E 8 b1 09 00
        E 8 b1 09 00
        E 8 b1 09 00
        E 8 b1 09 00
        E 8 b1 09 00
        E 8 b1 09 00
        E 8 b1 09 00
        E 8 b1 09 00
        E 8 b1 09 00
        E 8 b1 09 00
        E 8 b1 09 00
        E 8 b1 09 00
        E 35 b1 09 7f
        E 35 b1 09 7f
        E 35 b1 09 7f
        E 35 b1 09 7f
        E 35 b1 09 7f
        E 35 b1 09 7f
        E 35 b1 09 7f
        E 35 b1 09 7f
        E 35 b1 09 7f
        E 35 b1 09 7f
        E 35 b1 09 7f
        E 35 b1 09 7f
        E 35 b1 09 7f
        E 35 b1 09 7f
        E 35 b1 09 7f
        E 35 b1 09 7f
        E 35 b1 09 7f
        E 35 b1 09 7f
        E 35 b1 09 7f
        E 35 b1 09 7f
        E 35 b1 09 7f
        E 35 b1 09 7f
        E 35 b1 09 7f
        E 35 b1 09 7f
        E 35 b1 09 7f
        E 35 b1 09 7f
        E 35 b1 09 7f
        E 35 b1 09 7f
        E 35 b1 09 7f
        E 35 b1 09 7f
        E 35 b1 09 7f
        E 35 b1 09 7f
        E 35 b1 09 7f
        E 35 b1 09 7f
        E 35 b1 09 7f
        E 35 b1 09 7f
        E 35 b1 09 7f
        E 35 b1 09 7f
        E 35 b1 09 7f
        E 35 b1 09 7f
        E 35 b1 09 7f
        E 35 b1 09 7f
        E 35 b1 09 7f
        E 35 b1 09 7f
        E 35 b1 09 7f
        E 35 b1 09 7f
        E 35 b1 09 7f
        E 35 b1 09 7f
        E 35 b1 09 7f
        E 35 b1 09 7f
        E 35 b1 09 7f
        E 35 b1 09 7f
        E 35 b1 09 7f
        E 35 b1 09 7f
        E 35 b1 09 7f
        E 35 b1 09 7f
        E 35 b1 09 7f
        E 35 b1 09 7f
        E 35 b1 09 7f
        E 35 b1 09 7f
        E 35 b1 09 7f
        E 35 b1 09 7f
        E 35 b1 09 7f
        E 35 b1 09 00
        E 35 b1 09 00
        E 35 b1 09 00
        E 35 b1 09 00
        E 35 b1 09 00
        E 35 b1 09 00
        E 35 b1 09 00
        E 35 b1 09 00
        E 35 b1 09 00
        E 35 b1 09 00
        E 35 b1 09 00
        E 35 b1 09 00
        E 35 b1 09 00
        E 35 b1 09 00
        E 35 b1 09 00
        E 35 b1 09 00
        E 35 b1 09 00
        E 35 b1 09 00
        E 35 b1 09 00
        E 35 b1 09 00
        E 35 b1 09 00
        E 35 b1 09 00
        E 35 b1 09 00
        E 35 b1 09 00
        E 35 b1 09 00
        E 35 b1 09 00
        E 35 b1 09 00
        E 35 b1 09 00
        E 35 b1 09 00
        E 35 b1 09 00
        E 35 b1 09 00
        E 35 b1 09 00
        E 35 b1 09 00
        E 35 b1 09 00
        E 35 b1 09 00
        E 35 b1 09 00
        E 35 b1 09 00
        E 35 b1 09 00
        E 35 b1 09 00
        E 35 b1 09 00
        E 35 b1 09 00
        E 35 b1 09 00
        E 35 b1 09 00
        E 35 b1 09 00
        E 35 b1 09 00
        E 35 b1 09 00
        E 35 b1 09 00
        E 35 b1 09 00
        E 35 b1 09 00
        E 35 b1 09 00
        E 35 b1 09 00
        E 35 b1 09 00
        E 35 b1 09 00
        E 35 b1 09 00
        E 35 b1 09 00
        E 35 b1 09 00
        E 35 b1 09 00
        E 35 b1 09 00
        E 35 b1 09 00
        E 35 b1 09 00
        E 35 b1 09 00
        E 35 b1 09 00
        E 35 b1 09 00
        E 35 b1 09 00
        E 61 b1 09 72
        E 61 b1 09 72
        E 61 b1 09 72
        E 61 b1 09 72
        E 61 b1 09 72
        E 61 b1 09 72
        E 61 b1 09 72
        E 61 b1 09 72
        E 61 b1 09 72
        E 61 b1 09 72
        E 61 b1 09 72
        E 61 b1 09 72
        E 61 b1 09 72
        E 61 b1 09 72
        E 61 b1 09 72
        E 61 b1 09 72
        E 61 b1 09 72
        E 61 b1 09 72
        E 61 b1 09 72
        E 61 b1 09 72
        E 61 b1 09 72
        E 61 b1 09 72
        E 61 b1 09 72
        E 61 b1 09 72
        E 61 b1 09 72
        E 61 b1 09 72
        E 61 b1 09 72
        E 61 b1 09 72
        E 61 b1 09 72
        E 61 b1 09 72
        E 61 b1 09 72
        E 61 b1 09 72
        E 61 b1 09 72
        E 61 b1 09 72
        E 61 b1 09 72
        E 61 b1 09 72
        E 61 b1 09 72
        E 61 b1 09 72
        E 61 b1 09 72
        E 61 b1 09 72
        E 61 b1 09 72
        E 61 b1 09 72
        E 61 b1 09 72
        E 61 b1 09 72
        E 61 b1 09 72
        E 61 b1 09 72
        E 61 b1 09 72
        E 61 b1 09 72
        E 61 b1 09 72
        E 61 b1 09 72
        E 61 b1 09 72
        E 61 b1 09 72
        E 61 b1 09 72
        E 61 b1 09 72
        E 61 b1 09 72
        E 61 b1 09 72
        E 61 b1 09 72
        E 61 b1 09 72
        E 61 b1 09 72
        E 61 b1 09 72
        E 61 b1 09 72
        E 61 b1 09 72
        E 61 b1 09 72
        E 61 b1 09 00
        E 61 b1 09 00
        E 61 b1 09 00
        E 61 b1 09 00
        E 61 b1 09 00
        E 61 b1 09 00
        E 61 b1 09 00
        E 61 b1 09 00
        E 61 b1 09 00
        E 61 b1 09 00
        E 61 b1 09 00
        E 61 b1 09 00
        E 61 b1 09 00
        E 61 b1 09 00
        E 61 b1 09 00
        E 61 b1 09 00
        E 61 b1 09 00
        E 61 b1 09 00
        E 61 b1 09 00
        E 61 b1 09 00
        E 61 b1 09 00
        E 61 b1 09 00
        E 61 b1 09 00
        E 61 b1 09 00
        E 61 b1 09 00
        E 61 b1 09 00
        E 61 b1 09 00
        E 61 b1 09 00
        E 61 b1 09 00
        E 61 b1 09 00
        E 61 b1 09 00
        E 61 b1 09 00
        E 61 b1 09 00
        E 61 b1 09 00
        E 61 b1 09 00
        E 61 b1 09 00
        E 61 b1 09 00
        E 61 b1 09 00
        E 61 b1 09 00
        E 61 b1 09 00
        E 61 b1 09 00
        E 61 b1 09 00
        E 61 b1 09 00
        E 61 b1 09 00
        E 61 b1 09 00
        E 61 b1 09 00
        E 61 b1 09 00
        E 61 b1 09 00
        E 61 b1 09 00
        E 61 b1 09 00
        E 61 b1 09 00
        E 61 b1 09 00
        E 61 b1 09 00
        E 61 b1 09 00
        E 61 b1 09 00
        E 61 b1 09 00
        E 61 b1 09 00
        E 61 b1 09 00
        E 61 b1 09 00
        E 61 b1 09 00
        E 61 b1 09 00
        E 61 b1 09 00
        E 61 b1 09 00
        E 61 b1 09 00
        E 44 b1 09 3f
        E 44 b1 09 3f
        E 44 b1 09 3f
        E 44 b1 09 3f
        E 44 b1 09 3f
        E 44 b1 09 3f
        E 44 b1 09 3f
        E 44 b1 09 3f
        E 44 b1 09 3f
        E 44 b1 09 3f
        E 44 b1 09 3f
        E 44 b1 09 3f
        E 44 b1 09 3f
        E 44 b1 09 3f
        E 44 b1 09 3f
        E 44 b1 09 3f
        E 44 b1 09 3f
        E 44 b1 09 3f
        E 44 b1 09 3f
        E 44 b1 09 3f
        E 44 b1 09 3f
        E 44 b1 09 3f
        E 44 b1 09 3f
        E 44 b1 09 3f
        E 44 b1 09 3f
        E 44 b1 09 3f
        E 44 b1 09 3f
        E 44 b1 09 3f
        E 44 b1 09 3f
        E 44 b1 09 3f
        E 44 b1 09 3f
        E 44 b1 09 3f
        E 44 b1 09 3f
        E 44 b1 09 3f
        E 44 b1 09 3f
        E 44 b1 09 3f
        E 44 b1 09 3f
        E 44 b1 09 3f
        E 44 b1 09 3f
        E 44 b1 09 3f
        E 44 b1 09 3f
        E 44 b1 09 3f
        E 44 b1 09 3f
        E 44 b1 09 3f
        E 44 b1 09 3f
        E 44 b1 09 3f
        E 44 b1 09 3f
        E 44 b1 09 3f
        E 44 b1 09 3f
        E 44 b1 09 3f
        E 44 b1 09 3f
        E 44 b1 09 3f
        E 44 b1 09 3f
        E 44 b1 09 3f
        E 44 b1 09 3f
        E 44 b1 09 3f
        E 44 b1 09 3f
        E 44 b1 09 3f
        E 44 b1 09 3f
        E 44 b1 09 3f
        E 44 b1 09 3f
        E 44 b1 09 3f
        E 44 b1 09 3f
        E 44 b1 09 00
        E 44 b1 09 00
        E 44 b1 09 00
        E 44 b1 09 00
        E 44 b1 09 00
        E 44 b1 09 00
        E 44 b1 09 00
        E 44 b1 09 00
        E 44 b1 09 00
        E 44 b1 09 00
        E 44 b1 09 00
        E 44 b1 09 00
        E 44 b1 09 00
        E 44 b1 09 00
        E 44 b1 09 00
        E 44 b1 09 00
        E 44 b1 09 00
        E 44 b1 09 00
        E 44 b1 09 00
        E 44 b1 09 00
        E 44 b1 09 00
        E 44 b1 09 00
        E 44 b1 09 00
        E 44 b1 09 00
        E 44 b1 09 00
        E 44 b1 09 00
        E 44 b1 09 00
        E 44 b1 09 00
        E 44 b1 09 00
        E 44 b1 09 00
        E 44 b1 09 00
        E 44 b1 09 00
        E 44 b1 09 00
        E 44 b1 09 00
        E 44 b1 09 00
        E 44 b1 09 00
        E 44 b1 09 00
        E 44 b1 09 00
        E 44 b1 09 00
        E 44 b1 09 00
        E 44 b1 09 00
        E 44 b1 09 00
        E 44 b1 09 00
        E 44 b1 09 00
        E 44 b1 09 00
        E 44 b1 09 00
        E 44 b1 09 00
        E 44 b1 09 00
        E 44 b1 09 00
        E 44 b1 09 00
        E 44 b1 09 00
        E 44 b1 09 00
        E 44 b1 09 00
        E 44 b1 09 00
        E 44 b1 09 00
        E 44 b1 09 00
        E 44 b1 09 00
        E 44 b1 09 00
        E 44 b1 09 00
        E 44 b1 09 00
        E 44 b1 09 00
        E 44 b1 09 00
        E 44 b1 09 00
        E 44 b1 09 00
        E 44 b1 09 3f
        E 44 b1 09 3f
        E 44 b1 09 3f
        E 44 b1 09 3f
        E 44 b1 09 3f
        E 44 b1 09 3f
        E 44 b1 09 3f
        E 44 b1 09 3f
        E 44 b1 09 3f
        E 44 b1 09 3f
        E 44 b1 09 3f
        E 44 b1 09 3f
        E 44 b1 09 3f
        E 44 b1 09 3f
        E 44 b1 09 3f
        E 44 b1 09 3f
        E 44 b1 09 3f
        E 44 b1 09 3f
        E 44 b1 09 3f
        E 44 b1 09 3f
        E 44 b1 09 3f
        E 44 b1 09 3f
        E 44 b1 09 3f
        E 44 b1 09 3f
        E 44 b1 09 3f
        E 44 b1 09 3f
        E 44 b1 09 3f
        E 44 b1 09 3f
        E 44 b1 09 3f
        E 44 b1 09 3f
        E 44 b1 09 3f
        E 44 b1 09 3f
        E 44 b1 09 3f
        E 44 b1 09 3f
        E 44 b1 09 3f
        E 44 b1 09 3f
        E 44 b1 09 3f
        E 44 b1 09 3f
        E 44 b1 09 3f
        E 44 b1 09 3f
        E 44 b1 09 3f
        E 44 b1 09 3f
        E 44 b1 09 3f
        E 44 b1 09 3f
        E 44 b1 09 3f
        E 44 b1 09 3f
        E 44 b1 09 3f
        E 44 b1 09 3f
        E 44 b1 09 3f
        E 44 b1 09 3f
        E 44 b1 09 3f
        E 44 b1 09 3f
        E 44 b1 09 3f
        E 44 b1 09 3f
        E 44 b1 09 3f
        E 44 b1 09 3f
        E 44 b1 09 3f
        E 44 b1 09 3f
        E 44 b1 09 3f
        E 44 b1 09 3f
        E 44 b1 09 3f
        E 44 b1 09 3f
        E 44 b1 09 3f
        E 44 b1 09 00
        E 44 b1 09 00
        E 44 b1 09 00
        E 44 b1 09 00
        E 44 b1 09 00
        E 44 b1 09 00
        E 44 b1 09 00
        E 44 b1 09 00
        E 44 b1 09 00
        E 44 b1 09 00
        E 44 b1 09 00
        E 44 b1 09 00
        E 44 b1 09 00
        E 44 b1 09 00
        E 44 b1 09 00
        E 44 b1 09 00
        E 44 b1 09 00
        E 44 b1 09 00
        E 44 b1 09 00
        E 44 b1 09 00
        E 44 b1 09 00
        E 44 b1 09 00
        E 44 b1 09 00
        E 44 b1 09 00
        E 44 b1 09 00
        E 44 b1 09 00
        E 44 b1 09 00
        E 44 b1 09 00
        E 44 b1 09 00
        E 44 b1 09 00
        E 44 b1 09 00
        E 44 b1 09 00
        E 44 b1 09 00
        E 44 b1 09 00
        E 44 b1 09 00
        E 44 b1 09 00
        E 44 b1 09 00
        E 44 b1 09 00
        E 44 b1 09 00
        E 44 b1 09 00
        E 44 b1 09 00
        E 44 b1 09 00
        E 44 b1 09 00
        E 44 b1 09 00
        E 44 b1 09 00
        E 44 b1 09 00
        E 44 b1 09 00
        E 44 b1 09 00
        E 44 b1 09 00
        E 44 b1 09 00
        E 44 b1 09 00
        E 44 b1 09 00
        E 44 b1 09 00
        E 44 b1 09 00
        E 44 b1 09 00
        E 44 b1 09 00
        E 44 b1 09 00
        E 44 b1 09 00
        E 44 b1 09 00
        E 44 b1 09 00
        E 44 b1 09 00
        E 44 b1 09 00
        E 44 b1 09 00
        E 44 b1 09 00
        E 88 b1 09 58
        E 88 b1 09 58
        E 88 b1 09 58
        E 88 b1 09 58
        E 88 b1 09 58
        E 88 b1 09 58
        E 88 b1 09 58
        E 88 b1 09 58
        E 88 b1 09 58
        E 88 b1 09 58
        E 88 b1 09 58
        E 88 b1 09 58
        E 88 b1 09 58
        E 88 b1 09 58
        E 88 b1 09 58
        E 88 b1 09 58
        E 88 b1 09 58
        E 88 b1 09 58
        E 88 b1 09 58
        E 88 b1 09 58
        E 88 b1 09 58
        E 88 b1 09 58
        E 88 b1 09 58
        E 88 b1 09 58
        E 88 b1 09 58
        E 88 b1 09 58
        E 88 b1 09 58
        E 88 b1 09 58
        E 88 b1 09 58
        E 88 b1 09 58
        E 88 b1 09 58
        E 88 b1 09 58
        E 88 b1 09 58
        E 88 b1 09 58
        E 88 b1 09 58
        E 88 b1 09 58
        E 88 b1 09 58
        E 88 b1 09 58
        E 88 b1 09 58
        E 88 b1 09 58
        E 88 b1 09 58
        E 88 b1 09 58
        E 88 b1 09 58
        E 88 b1 09 58
        E 88 b1 09 58
        E 88 b1 09 58
        E 88 b1 09 58
        E 88 b1 09 58
        E 88 b1 09 58
        E 88 b1 09 58
        E 88 b1 09 58
        E 88 b1 09 58
        E 88 b1 09 58
        E 88 b1 09 58
        E 88 b1 09 58
        E 88 b1 09 58
        E 88 b1 09 58
        E 88 b1 09 58
        E 88 b1 09 58
        E 88 b1 09 58
        E 88 b1 09 58
        E 88 b1 09 58
        E 88 b1 09 58
        E 88 b1 09 00
        E 88 b1 09 00
        E 88 b1 09 00
        E 88 b1 09 00
        E 88 b1 09 00
        E 88 b1 09 00
        E 88 b1 09 00
        E 88 b1 09 00
        E 88 b1 09 00
        E 88 b1 09 00
        E 88 b1 09 00
        E 88 b1 09 00
        E 88 b1 09 00
        E 88 b1 09 00
        E 88 b1 09 00
        E 88 b1 09 00
        E 88 b1 09 00
        E 88 b1 09 00
        E 88 b1 09 00
        E 88 b1 09 00
        E 88 b1 09 00
        E 88 b1 09 00
        E 88 b1 09 00
        E 88 b1 09 00
        E 88 b1 09 00
        E 88 b1 09 00
        E 88 b1 09 00
        E 88 b1 09 00
        E 88 b1 09 00
        E 88 b1 09 00
        E 88 b1 09 00
        E 88 b1 09 00
        E 88 b1 09 00
        E 88 b1 09 00
        E 88 b1 09 00
        E 88 b1 09 00
        E 88 b1 09 00
        E 88 b1 09 00
        E 88 b1 09 00
        E 88 b1 09 00
        E 88 b1 09 00
        E 88 b1 09 00
        E 88 b1 09 00
        E 88 b1 09 00
        E 88 b1 09 00
        E 88 b1 09 00
        E 88 b1 09 00
        E 88 b1 09 00
        E 88 b1 09 00
        E 88 b1 09 00
        E 88 b1 09 00
        E 88 b1 09 00
        E 88 b1 09 00
        E 88 b1 09 00
        E 88 b1 09 00
        E 88 b1 09 00
        E 88 b1 09 00
        E 88 b1 09 00
        E 88 b1 09 00
        E 88 b1 09 00
        E 88 b1 09 00
        E 88 b1 09 00
        E 88 b1 09 00
        E 88 b1 09 00
        E 79 b1 09 65
        E 79 b1 09 65
        E 79 b1 09 65
        E 79 b1 09 65
        E 79 b1 09 65
        E 79 b1 09 65
        E 79 b1 09 65
        E 79 b1 09 65
        E 79 b1 09 65
        E 79 b1 09 65
        E 79 b1 09 65
        E 79 b1 09 65
        E 79 b1 09 65
        E 79 b1 09 65
        E 79 b1 09 65
        E 79 b1 09 65
        E 79 b1 09 65
        E 79 b1 09 65
        E 79 b1 09 65
        E 79 b1 09 65
        E 79 b1 09 65
        E 79 b1 09 65
        E 79 b1 09 65
        E 79 b1 09 65
        E 79 b1 09 65
        E 79 b1 09 65
        E 79 b1 09 65
        E 79 b1 09 65
        E 79 b1 09 65
        E 79 b1 09 65
        E 79 b1 09 65
        E 79 b1 09 65
        E 79 b1 09 65
        E 79 b1 09 65
        E 79 b1 09 65
        E 79 b1 09 65
        E 79 b1 09 65
        E 79 b1 09 65
        E 79 b1 09 65
        E 79 b1 09 65
        E 79 b1 09 65
        E 79 b1 09 65
        E 79 b1 09 65
        E 79 b1 09 65
        E 79 b1 09 65
        E 79 b1 09 65
        E 79 b1 09 65
        E 79 b1 09 65
        E 79 b1 09 65
        E 79 b1 09 65
        E 79 b1 09 65
        E 79 b1 09 65
        E 79 b1 09 65
        E 79 b1 09 65
        E 79 b1 09 65
        E 79 b1 09 65
        E 79 b1 09 65
        E 79 b1 09 65
        E 79 b1 09 65
        E 79 b1 09 65
        E 79 b1 09 65
        E 79 b1 09 65
        E 79 b1 09 65
        E 79 b1 09 00
        E 79 b1 09 00
        E 79 b1 09 00
        E 79 b1 09 00
        E 79 b1 09 00
        E 79 b1 09 00
        E 79 b1 09 00
        E 79 b1 09 00
        E 79 b1 09 00
        E 79 b1 09 00
        E 79 b1 09 00
        E 79 b1 09 00
        E 79 b1 09 00
        E 79 b1 09 00
        E 79 b1 09 00
        E 79 b1 09 00
        E 79 b1 09 00
        E 79 b1 09 00
        E 79 b1 09 00
        E 79 b1 09 00
        E 79 b1 09 00
        E 79 b1 09 00
        E 79 b1 09 00
        E 79 b1 09 00
        E 79 b1 09 00
        E 79 b1 09 00
        E 79 b1 09 00
        E 79 b1 09 00
        E 79 b1 09 00
        E 79 b1 09 00
        E 79 b1 09 00
        E 79 b1 09 00
        E 79 b1 09 00
        E 79 b1 09 00
        E 79 b1 09 00
        E 79 b1 09 00
        E 79 b1 09 00
        E 79 b1 09 00
        E 79 b1 09 00
        E 79 b1 09 00
        E 79 b1 09 00
        E 79 b1 09 00
        E 79 b1 09 00
        E 79 b1 09 00
        E 79 b1 09 00
        E 79 b1 09 00
        E 79 b1 09 00
        E 79 b1 09 00
        E 79 b1 09 00
        E 79 b1 09 00
        E 79 b1 09 00
        E 79 b1 09 00
        E 79 b1 09 00
        E 79 b1 09 00
        E 79 b1 09 00
        E 79 b1 09 00
        E 79 b1 09 00
        E 79 b1 09 00
        E 79 b1 09 00
        E 79 b1 09 00
        E 79 b1 09 00
        E 79 b1 09 00
        E 79 b1 09 00
        E 79 b1 09 00
        E 88 b1 09 0c
        E 88 b1 09 0c
        E 88 b1 09 0c
        E 88 b1 09 0c
        E 88 b1 09 0c
        E 88 b1 09 0c
        E 88 b1 09 0c
        E 88 b1 09 0c
        E 88 b1 09 0c
        E 88 b1 09 0c
        E 88 b1 09 0c
        E 88 b1 09 0c
        E 88 b1 09 0c
        E 88 b1 09 0c
        E 88 b1 09 0c
        E 88 b1 09 0c
        E 88 b1 09 0c
        E 88 b1 09 0c
        E 88 b1 09 0c
        E 88 b1 09 0c
        E 88 b1 09 0c
        E 88 b1 09 0c
        E 88 b1 09 0c
        E 88 b1 09 0c
        E 88 b1 09 0c
        E 88 b1 09 0c
        E 88 b1 09 0c
        E 88 b1 09 0c
        E 88 b1 09 0c
        E 88 b1 09 0c
        E 88 b1 09 0c
        E 88 b1 09 0c
        E 88 b1 09 0c
        E 88 b1 09 0c
        E 88 b1 09 0c
        E 88 b1 09 0c
        E 88 b1 09 0c
        E 88 b1 09 0c
        E 88 b1 09 0c
        E 88 b1 09 0c
        E 88 b1 09 0c
        E 88 b1 09 0c
        E 88 b1 09 0c
        E 88 b1 09 0c
        E 88 b1 09 0c
        E 88 b1 09 0c
        E 88 b1 09 0c
        E 88 b1 09 0c
        E 88 b1 09 0c
        E 88 b1 09 0c
        E 88 b1 09 0c
        E 88 b1 09 0c
        E 88 b1 09 0c
        E 88 b1 09 0c
        E 88 b1 09 0c
        E 88 b1 09 0c
        E 88 b1 09 0c
        E 88 b1 09 0c
        E 88 b1 09 0c
        E 88 b1 09 0c
        E 88 b1 09 0c
        E 88 b1 09 0c
        E 88 b1 09 0c
        E 88 b1 09 00
        E 88 b1 09 00
        E 88 b1 09 00
        E 88 b1 09 00
        E 88 b1 09 00
        E 88 b1 09 00
        E 88 b1 09 00
        E 88 b1 09 00
        E 88 b1 09 00
        E 88 b1 09 00
        E 88 b1 09 00
        E 88 b1 09 00
        E 88 b1 09 00
        E 88 b1 09 00
        E 88 b1 09 00
        E 88 b1 09 00
        E 88 b1 09 00
        E 88 b1 09 00
        E 88 b1 09 00
        E 88 b1 09 00
        E 88 b1 09 00
        E 88 b1 09 00
        E 88 b1 09 00
        E 88 b1 09 00
        E 88 b1 09 00
        E 88 b1 09 00
        E 88 b1 09 00
        E 88 b1 09 00
        E 88 b1 09 00
        E 88 b1 09 00
        E 88 b1 09 00
        E 88 b1 09 00
        E 88 b1 09 00
        E 88 b1 09 00
        E 88 b1 09 00
        E 88 b1 09 00
        E 88 b1 09 00
        E 88 b1 09 00
        E 88 b1 09 00
        E 88 b1 09 00
        E 88 b1 09 00
        E 88 b1 09 00
        E 88 b1 09 00
        E 88 b1 09 00
        E 88 b1 09 00
        E 88 b1 09 00
        E 88 b1 09 00
        E 88 b1 09 00
        E 88 b1 09 00
        E 88 b1 09 00
        E 88 b1 09 00
        E 88 b1 09 00
        E 88 b1 09 00
        E 88 b1 09 00
        E 88 b1 09 00
        E 88 b1 09 00
        E 88 b1 09 00
        E 88 b1 09 00
        E 88 b1 09 00
        E 88 b1 09 00
        E 88 b1 09 00
        E 88 b1 09 00
        E 88 b1 09 00
        E 88 b1 09 00
        E 79 b1 09 32
        E 79 b1 09 32
        E 79 b1 09 32
        E 79 b1 09 32
        E 79 b1 09 32
        E 79 b1 09 32
        E 79 b1 09 32
        E 79 b1 09 32
        E 79 b1 09 32
        E 79 b1 09 32
        E 79 b1 09 32
        E 79 b1 09 32
        E 79 b1 09 32
        E 79 b1 09 32
        E 79 b1 09 32
        E 79 b1 09 32
        E 79 b1 09 32
        E 79 b1 09 32
        E 79 b1 09 32
        E 79 b1 09 32
        E 79 b1 09 32
        E 79 b1 09 32
        E 79 b1 09 32
        E 79 b1 09 32
        E 79 b1 09 32
        E 79 b1 09 32
        E 79 b1 09 32
        E 79 b1 09 32
        E 79 b1 09 32
        E 79 b1 09 32
        E 79 b1 09 32
        E 79 b1 09 32
        E 79 b1 09 32
        E 79 b1 09 32
        E 79 b1 09 32
        E 79 b1 09 32
        E 79 b1 09 32
        E 79 b1 09 32
        E 79 b1 09 32
        E 79 b1 09 32
        E 79 b1 09 32
        E 79 b1 09 32
        E 79 b1 09 32
        E 79 b1 09 32
        E 79 b1 09 32
        E 79 b1 09 32
        E 79 b1 09 32
        E 79 b1 09 32
        E 79 b1 09 32
        E 79 b1 09 32
        E 79 b1 09 32
        E 79 b1 09 32
        E 79 b1 09 32
        E 79 b1 09 32
        E 79 b1 09 32
        E 79 b1 09 32
        E 79 b1 09 32
        E 79 b1 09 32
        E 79 b1 09 32
        E 79 b1 09 32
        E 79 b1 09 32
        E 79 b1 09 32
        E 79 b1 09 32
        E 79 b1 09 00
        E 79 b1 09 00
        E 79 b1 09 00
        E 79 b1 09 00
        E 79 b1 09 00
        E 79 b1 09 00
        E 79 b1 09 00
        E 79 b1 09 00
        E 79 b1 09 00
        E 79 b1 09 00
        E 79 b1 09 00
        E 79 b1 09 00
        E 79 b1 09 00
        E 79 b1 09 00
        E 79 b1 09 00
        E 79 b1 09 00
        E 79 b1 09 00
        E 79 b1 09 00
        E 79 b1 09 00
        E 79 b1 09 00
        E 79 b1 09 00
        E 79 b1 09 00
        E 79 b1 09 00
        E 79 b1 09 00
        E 79 b1 09 00
        E 79 b1 09 00
        E 79 b1 09 00
        E 79 b1 09 00
        E 79 b1 09 00
        E 79 b1 09 00
        E 79 b1 09 00
        E 79 b1 09 00
        E 79 b1 09 00
        E 79 b1 09 00
        E 79 b1 09 00
        E 79 b1 09 00
        E 79 b1 09 00
        E 79 b1 09 00
        E 79 b1 09 00
        E 79 b1 09 00
        E 79 b1 09 00
        E 79 b1 09 00
        E 79 b1 09 00
        E 79 b1 09 00
        E 79 b1 09 00
        E 79 b1 09 00
        E 79 b1 09 00
        E 79 b1 09 00
        E 79 b1 09 00
        E 79 b1 09 00
        E 79 b1 09 00
        E 79 b1 09 00
        E 79 b1 09 00
        E 79 b1 09 00
        E 79 b1 09 00
        E 79 b1 09 00
        E 79 b1 09 00
        E 79 b1 09 00
        E 79 b1 09 00
        E 79 b1 09 00
        E 79 b1 09 00
        E 79 b1 09 00
        E 79 b1 09 00
        E 79 b1 09 00
        E 44 b1 09 58
        E 44 b1 09 58
        E 44 b1 09 58
        E 44 b1 09 58
        E 44 b1 09 58
        E 44 b1 09 58
        E 44 b1 09 58
        E 44 b1 09 58
        E 44 b1 09 58
        E 44 b1 09 58
        E 44 b1 09 58
        E 44 b1 09 58
        E 44 b1 09 58
        E 44 b1 09 58
        E 44 b1 09 58
        E 44 b1 09 58
        E 44 b1 09 58
        E 44 b1 09 58
        E 44 b1 09 58
        E 44 b1 09 58
        E 44 b1 09 58
        E 44 b1 09 58
        E 44 b1 09 58
        E 44 b1 09 58
        E 44 b1 09 58
        E 44 b1 09 58
        E 44 b1 09 58
        E 44 b1 09 58
        E 44 b1 09 58
        E 44 b1 09 58
        E 44 b1 09 58
        E 44 b1 09 58
        E 44 b1 09 58
        E 44 b1 09 58
        E 44 b1 09 58
        E 44 b1 09 58
        E 44 b1 09 58
        E 44 b1 09 58
        E 44 b1 09 58
        E 44 b1 09 58
        E 44 b1 09 58
        E 44 b1 09 58
        E 44 b1 09 58
        E 44 b1 09 58
        E 44 b1 09 58
        E 44 b1 09 58
        E 44 b1 09 58
        E 44 b1 09 58
        E 44 b1 09 58
        E 44 b1 09 58
        E 44 b1 09 58
        E 44 b1 09 58
        E 44 b1 09 58
        E 44 b1 09 58
        E 44 b1 09 58
        E 44 b1 09 58
        E 44 b1 09 58
        E 44 b1 09 58
        E 44 b1 09 58
        E 44 b1 09 58
        E 44 b1 09 58
        E 44 b1 09 58
        E 44 b1 09 58
        E 44 b1 09 00
        E 44 b1 09 00
        E 44 b1 09 00
        E 44 b1 09 00
        E 44 b1 09 00
        E 44 b1 09 00
        E 44 b1 09 00
        E 44 b1 09 00
        E 44 b1 09 00
        E 44 b1 09 00
        E 44 b1 09 00
        E 44 b1 09 00
        E 44 b1 09 00
        E 44 b1 09 00
        E 44 b1 09 00
        E 44 b1 09 00
        E 44 b1 09 00
        E 44 b1 09 00
        E 44 b1 09 00
        E 44 b1 09 00
        E 44 b1 09 00
        E 44 b1 09 00
        E 44 b1 09 00
        E 44 b1 09 00
        E 44 b1 09 00
        E 44 b1 09 00
        E 44 b1 09 00
        E 44 b1 09 00
        E 44 b1 09 00
        E 44 b1 09 00
        E 44 b1 09 00
        E 44 b1 09 00
        E 44 b1 09 00
        E 44 b1 09 00
        E 44 b1 09 00
        E 44 b1 09 00
        E 44 b1 09 00
        E 44 b1 09 00
        E 44 b1 09 00
        E 44 b1 09 00
        E 44 b1 09 00
        E 44 b1 09 00
        E 44 b1 09 00
        E 44 b1 09 00
        E 44 b1 09 00
        E 44 b1 09 00
        E 44 b1 09 00
        E 44 b1 09 00
        E 44 b1 09 00
        E 44 b1 09 00
        E 44 b1 09 00
        E 44 b1 09 00
        E 44 b1 09 00
        E 44 b1 09 00
        E 44 b1 09 00
        E 44 b1 09 00
        E 44 b1 09 00
        E 44 b1 09 00
        E 44 b1 09 00
        E 44 b1 09 00
        E 44 b1 09 00
        E 44 b1 09 00
        E 44 b1 09 00
        E 44 b1 09 00
        E 44 b1 09 3f
        E 44 b1 09 3f
        E 44 b1 09 3f
        E 44 b1 09 3f
        E 44 b1 09 3f
        E 44 b1 09 3f
        E 44 b1 09 3f
        E 44 b1 09 3f
        E 44 b1 09 3f
        E 44 b1 09 3f
        E 44 b1 09 3f
        E 44 b1 09 3f
        E 44 b1 09 3f
        E 44 b1 09 3f
        E 44 b1 09 3f
        E 44 b1 09 3f
        E 44 b1 09 3f
        E 44 b1 09 3f
        E 44 b1 09 3f
        E 44 b1 09 3f
        E 44 b1 09 3f
        E 44 b1 09 3f
        E 44 b1 09 3f
        E 44 b1 09 3f
        E 44 b1 09 3f
        E 44 b1 09 3f
        E 44 b1 09 3f
        E 44 b1 09 3f
        E 44 b1 09 3f
        E 44 b1 09 3f
        E 44 b1 09 3f
        E 44 b1 09 3f
        E 44 b1 09 3f
        E 44 b1 09 3f
        E 44 b1 09 3f
        E 44 b1 09 3f
        E 44 b1 09 3f
        E 44 b1 09 3f
        E 44 b1 09 3f
        E 44 b1 09 3f
        E 44 b1 09 3f
        E 44 b1 09 3f
        E 44 b1 09 3f
        E 44 b1 09 3f
        E 44 b1 09 3f
        E 44 b1 09 3f
        E 44 b1 09 3f
        E 44 b1 09 3f
        E 44 b1 09 3f
        E 44 b1 09 3f
        E 44 b1 09 3f
        E 44 b1 09 3f
        E 44 b1 09 3f
        E 44 b1 09 3f
        E 44 b1 09 3f
        E 44 b1 09 3f
        E 44 b1 09 3f
        E 44 b1 09 3f
        E 44 b1 09 3f
        E 44 b1 09 3f
        E 44 b1 09 3f
        E 44 b1 09 3f
        E 44 b1 09 3f
        E 44 b1 09 00
        E 44 b1 09 00
        E 44 b1 09 00
        E 44 b1 09 00
        E 44 b1 09 00
        E 44 b1 09 00
        E 44 b1 09 00
        E 44 b1 09 00
        E 44 b1 09 00
        E 44 b1 09 00
        E 44 b1 09 00
        E 44 b1 09 00
        E 44 b1 09 00
        E 44 b1 09 00
        E 44 b1 09 00
        E 44 b1 09 00
        E 44 b1 09 00
        E 44 b1 09 00
        E 44 b1 09 00
        E 44 b1 09 00
        E 44 b1 09 00
        E 44 b1 09 00
        E 44 b1 09 00
        E 44 b1 09 00
        E 44 b1 09 00
        E 44 b1 09 00
        E 44 b1 09 00
        E 44 b1 09 00
        E 44 b1 09 00
        E 44 b1 09 00
        E 44 b1 09 00
        E 44 b1 09 00
        E 44 b1 09 00
        E 44 b1 09 00
        E 44 b1 09 00
        E 44 b1 09 00
        E 44 b1 09 00
        E 44 b1 09 00
        E 44 b1 09 00
        E 44 b1 09 00
        E 44 b1 09 00
        E 44 b1 09 00
        E 44 b1 09 00
        E 44 b1 09 00
        E 44 b1 09 00
        E 44 b1 09 00
        E 44 b1 09 00
        E 44 b1 09 00
        E 44 b1 09 00
        E 44 b1 09 00
        E 44 b1 09 00
        E 44 b1 09 00
        E 44 b1 09 00
        E 44 b1 09 00
        E 44 b1 09 00
        E 44 b1 09 00
        E 44 b1 09 00
        E 44 b1 09 00
        E 44 b1 09 00
        E 44 b1 09 00
        E 44 b1 09 00
        E 44 b1 09 00
        E 44 b1 09 00
        E 44 b1 09 00
        E 61 b1 09 3f
        E 61 b1 09 3f
        E 61 b1 09 3f
        E 61 b1 09 3f
        E 61 b1 09 3f
        E 61 b1 09 3f
        E 61 b1 09 3f
        E 61 b1 09 3f
        E 61 b1 09 3f
        E 61 b1 09 3f
        E 61 b1 09 3f
        E 61 b1 09 3f
        E 61 b1 09 3f
        E 61 b1 09 3f
        E 61 b1 09 3f
        E 61 b1 09 3f
        E 61 b1 09 3f
        E 61 b1 09 3f
        E 61 b1 09 3f
        E 61 b1 09 3f
        E 61 b1 09 3f
        E 61 b1 09 3f
        E 61 b1 09 3f
        E 61 b1 09 3f
        E 61 b1 09 3f
        E 61 b1 09 3f
        E 61 b1 09 3f
        E 61 b1 09 3f
        E 61 b1 09 3f
        E 61 b1 09 3f
        E 61 b1 09 3f
        E 61 b1 09 3f
        E 61 b1 09 3f
        E 61 b1 09 3f
        E 61 b1 09 3f
        E 61 b1 09 3f
        E 61 b1 09 3f
        E 61 b1 09 3f
        E 61 b1 09 3f
        E 61 b1 09 3f
        E 61 b1 09 3f
        E 61 b1 09 3f
        E 61 b1 09 3f
        E 61 b1 09 3f
        E 61 b1 09 3f
        E 61 b1 09 3f
        E 61 b1 09 3f
        E 61 b1 09 3f
        E 61 b1 09 3f
        E 61 b1 09 3f
        E 61 b1 09 3f
        E 61 b1 09 3f
        E 61 b1 09 3f
        E 61 b1 09 3f
        E 61 b1 09 3f
        E 61 b1 09 3f
        E 61 b1 09 3f
        E 61 b1 09 3f
        E 61 b1 09 3f
        E 61 b1 09 3f
        E 61 b1 09 3f
        E 61 b1 09 3f
        E 61 b1 09 3f
        E 61 b1 09 00
        E 61 b1 09 00
        E 61 b1 09 00
        E 61 b1 09 00
        E 61 b1 09 00
        E 61 b1 09 00
        E 61 b1 09 00
        E 61 b1 09 00
        E 61 b1 09 00
        E 61 b1 09 00
        E 61 b1 09 00
        E 61 b1 09 00
        E 61 b1 09 00
        E 61 b1 09 00
        E 61 b1 09 00
        E 61 b1 09 00
        E 61 b1 09 00
        E 61 b1 09 00
        E 61 b1 09 00
        E 61 b1 09 00
        E 61 b1 09 00
        E 61 b1 09 00
        E 61 b1 09 00
        E 61 b1 09 00
        E 61 b1 09 00
        E 61 b1 09 00
        E 61 b1 09 00
        E 61 b1 09 00
        E 61 b1 09 00
        E 61 b1 09 00
        E 61 b1 09 00
        E 61 b1 09 00
        E 61 b1 09 00
        E 61 b1 09 00
        E 61 b1 09 00
        E 61 b1 09 00
        E 61 b1 09 00
        E 61 b1 09 00
        E 61 b1 09 00
        E 61 b1 09 00
        E 61 b1 09 00
        E 61 b1 09 00
        E 61 b1 09 00
        E 61 b1 09 00
        E 61 b1 09 00
        E 61 b1 09 00
        E 61 b1 09 00
        E 61 b1 09 00
        E 61 b1 09 00
        E 61 b1 09 00
        E 61 b1 09 00
        E 61 b1 09 00
        E 61 b1 09 00
        E 61 b1 09 00
        E 61 b1 09 00
        E 61 b1 09 00
        E 61 b1 09 00
        E 61 b1 09 00
        E 61 b1 09 00
        E 61 b1 09 00
        E 61 b1 09 00
        E 61 b1 09 00
        E 61 b1 09 00
        E 61 b1 09 00
        E 70 b1 09 7f
        E 70 b1 09 7f
        E 70 b1 09 7f
        E 70 b1 09 7f
        E 70 b1 09 7f
        E 70 b1 09 7f
        E 70 b1 09 7f
        E 70 b1 09 7f
        E 70 b1 09 7f
        E 70 b1 09 7f
        E 70 b1 09 7f
        E 70 b1 09 7f
        E 70 b1 09 7f
        E 70 b1 09 7f
        E 70 b1 09 7f
        E 70 b1 09 7f
        E 70 b1 09 7f
        E 70 b1 09 7f
        E 70 b1 09 7f
        E 70 b1 09 7f
        E 70 b1 09 7f
        E 70 b1 09 7f
        E 70 b1 09 7f
        E 70 b1 09 7f
        E 70 b1 09 7f
        E 70 b1 09 7f
        E 70 b1 09 7f
        E 70 b1 09 7f
        E 70 b1 09 7f
        E 70 b1 09 7f
        E 70 b1 09 7f
        E 70 b1 09 7f
        E 70 b1 09 7f
        E 70 b1 09 7f
        E 70 b1 09 7f
        E 70 b1 09 7f
        E 70 b1 09 7f
        E 70 b1 09 7f
        E 70 b1 09 7f
        E 70 b1 09 7f
        E 70 b1 09 7f
        E 70 b1 09 7f
        E 70 b1 09 7f
        E 70 b1 09 7f
        E 70 b1 09 7f
        E 70 b1 09 7f
        E 70 b1 09 7f
        E 70 b1 09 7f
        E 70 b1 09 7f
        E 70 b1 09 7f
        E 70 b1 09 7f
        E 70 b1 09 7f
        E 70 b1 09 7f
        E 70 b1 09 7f
        E 70 b1 09 7f
        E 70 b1 09 7f
        E 70 b1 09 7f
        E 70 b1 09 7f
        E 70 b1 09 7f
        E 70 b1 09 7f
        E 70 b1 09 7f
        E 70 b1 09 7f
        E 70 b1 09 7f
        E 70 b1 09 00
        E 70 b1 09 00
        E 70 b1 09 00
        E 70 b1 09 00
        E 70 b1 09 00
        E 70 b1 09 00
        E 70 b1 09 00
        E 70 b1 09 00
        E 70 b1 09 00
        E 70 b1 09 00
        E 70 b1 09 00
        E 70 b1 09 00
        E 70 b1 09 00
        E 70 b1 09 00
        E 70 b1 09 00
        E 70 b1 09 00
        E 70 b1 09 00
        E 70 b1 09 00
        E 70 b1 09 00
        E 70 b1 09 00
        E 70 b1 09 00
        E 70 b1 09 00
        E 70 b1 09 00
        E 70 b1 09 00
        E 70 b1 09 00
        E 70 b1 09 00
        E 70 b1 09 00
        E 70 b1 09 00
        E 70 b1 09 00
        E 70 b1 09 00
        E 70 b1 09 00
        E 70 b1 09 00
        E 70 b1 09 00
        E 70 b1 09 00
        E 70 b1 09 00
        E 70 b1 09 00
        E 70 b1 09 00
        E 70 b1 09 00
        E 70 b1 09 00
        E 70 b1 09 00
        E 70 b1 09 00
        E 70 b1 09 00
        E 70 b1 09 00
        E 70 b1 09 00
        E 70 b1 09 00
        E 70 b1 09 00
        E 70 b1 09 00
        E 70 b1 09 00
        E 70 b1 09 00
        E 70 b1 09 00
        E 70 b1 09 00
        E 70 b1 09 00
        E 70 b1 09 00
        E 70 b1 09 00
        E 70 b1 09 00
        E 70 b1 09 00
        E 70 b1 09 00
        E 70 b1 09 00
        E 70 b1 09 00
        E 70 b1 09 00
        E 70 b1 09 00
        E 70 b1 09 00
        E 70 b1 09 00
        E 70 b1 09 00
        E 11 b1 09 39
        E 11 b1 09 3c
        E 11 b1 09 3f
        E 11 b1 09 41
        E 11 b1 09 44
        E 11 b1 09 47
        E 11 b1 09 49
        E 11 b1 09 4c
        E 11 b1 09 4f
        E 11 b1 09 51
        E 11 b1 09 54
        E 11 b1 09 56
        E 11 b1 09 59
        E 11 b1 09 5b
        E 11 b1 09 5d
        E 11 b1 09 5f
        E 11 b1 09 62
        E 11 b1 09 63
        E 11 b1 09 65
        E 11 b1 09 67
        E 11 b1 09 69
        E 11 b1 09 6a
        E 11 b1 09 6c
        E 11 b1 09 6c
        E 11 b1 09 6d
        E 11 b1 09 6e
        E 11 b1 09 6f
        E 11 b1 09 70
        E 11 b1 09 71
        E 11 b1 09 71
        E 11 b1 09 72
        E 11 b1 09 72
        E 11 b1 09 72
        E 11 b1 09 72
        E 11 b1 09 72
        E 11 b1 09 71
        E 11 b1 09 71
        E 11 b1 09 70
        E 11 b1 09 6f
        E 11 b1 09 6e
        E 11 b1 09 6d
        E 11 b1 09 6c
        E 11 b1 09 6b
        E 11 b1 09 69
        E 11 b1 09 68
        E 11 b1 09 66
        E 11 b1 09 64
        E 11 b1 09 63
        E 11 b1 09 61
        E 11 b1 09 5e
        E 11 b1 09 5c
        E 11 b1 09 5a
        E 11 b1 09 58
        E 11 b1 09 55
        E 11 b1 09 52
        E 11 b1 09 50
        E 11 b1 09 4e
        E 11 b1 09 4b
        E 11 b1 09 48
        E 11 b1 09 46
        E 11 b1 09 42
        E 11 b1 09 3f
        E 11 b1 09 3d
        E 11 b1 09 3a
        E 11 b1 09 37
        E 11 b1 09 35
        E 11 b1 09 32
        E 11 b1 09 2f
        E 11 b1 09 2c
        E 11 b1 09 29
        E 11 b1 09 26
        E 11 b1 09 24
        E 11 b1 09 22
        E 11 b1 09 1f
        E 11 b1 09 1c
        E 11 b1 09 1a
        E 11 b1 09 18
        E 11 b1 09 15
        E 11 b1 09 13
        E 11 b1 09 11
        E 11 b1 09 0f
        E 11 b1 09 0d
        E 11 b1 09 0b
        E 11 b1 09 09
        E 11 b1 09 09
        E 11 b1 09 07
        E 11 b1 09 06
        E 11 b1 09 04
        E 11 b1 09 03
        E 11 b1 09 02
        E 11 b1 09 01
        E 11 b1 09 00
        E 11 b1 09 00
        E 11 b1 09 00
        E 11 b1 09 00
        E 11 b1 09 00
        E 11 b1 09 00
        E 11 b1 09 00
        E 11 b1 09 00
        E 11 b1 09 00
        E 11 b1 09 01
        E 11 b1 09 02
        E 11 b1 09 03
        E 11 b1 09 04
        E 11 b1 09 05
        E 11 b1 09 06
        E 11 b1 09 08
        E 11 b1 09 09
        E 11 b1 09 0a
        E 11 b1 09 0c
        E 11 b1 09 0e
        E 11 b1 09 10
        E 11 b1 09 12
        E 11 b1 09 14
        E 11 b1 09 16
        E 11 b1 09 19
        E 11 b1 09 1b
        E 11 b1 09 1d
        E 11 b1 09 20
        E 11 b1 09 23
        E 11 b1 09 25
        E 11 b1 09 28
        E 11 b1 09 2b
        E 11 b1 09 2d
        E 11 b1 09 30
        E 11 b1 09 33
        E 11 b1 09 36
        E 11 b1 09 39
        E 8 b1 09 20
        E 8 b1 09 21
        E 8 b1 09 23
        E 8 b1 09 24
        E 8 b1 09 26
        E 8 b1 09 27
        E 8 b1 09 29
        E 8 b1 09 2a
        E 8 b1 09 2c
        E 8 b1 09 2d
        E 8 b1 09 2f
        E 8 b1 09 30
        E 8 b1 09 31
        E 8 b1 09 33
        E 8 b1 09 34
        E 8 b1 09 35
        E 8 b1 09 36
        E 8 b1 09 37
        E 8 b1 09 38
        E 8 b1 09 39
        E 8 b1 09 3a
        E 8 b1 09 3b
        E 8 b1 09 3c
        E 8 b1 09 3c
        E 8 b1 09 3d
        E 8 b1 09 3d
        E 8 b1 09 3e
        E 8 b1 09 3e
        E 8 b1 09 3f
        E 8 b1 09 3f
        E 8 b1 09 3f
        E 8 b1 09 3f
        E 8 b1 09 3f
        E 8 b1 09 3f
        E 8 b1 09 3f
        E 8 b1 09 3f
        E 8 b1 09 3f
        E 8 b1 09 3e
        E 8 b1 09 3e
        E 8 b1 09 3d
        E 8 b1 09 3d
        E 8 b1 09 3c
        E 8 b1 09 3b
        E 8 b1 09 3a
        E 8 b1 09 3a
        E 8 b1 09 39
        E 8 b1 09 38
        E 8 b1 09 37
        E 8 b1 09 36
        E 8 b1 09 34
        E 8 b1 09 33
        E 8 b1 09 32
        E 8 b1 09 31
        E 8 b1 09 2f
        E 8 b1 09 2e
        E 8 b1 09 2c
        E 8 b1 09 2b
        E 8 b1 09 2a
        E 8 b1 09 28
        E 8 b1 09 27
        E 8 b1 09 25
        E 8 b1 09 23
        E 8 b1 09 22
        E 8 b1 09 20
        E 8 b1 09 1f
        E 8 b1 09 1d
        E 8 b1 09 1c
        E 8 b1 09 1a
        E 8 b1 09 18
        E 8 b1 09 17
        E 8 b1 09 15
        E 8 b1 09 14
        E 8 b1 09 13
        E 8 b1 09 11
        E 8 b1 09 10
        E 8 b1 09 0e
        E 8 b1 09 0d
        E 8 b1 09 0c
        E 8 b1 09 0b
        E 8 b1 09 09
        E 8 b1 09 08
        E 8 b1 09 07
        E 8 b1 09 06
        E 8 b1 09 05
        E 8 b1 09 05
        E 8 b1 09 04
        E 8 b1 09 03
        E 8 b1 09 02
        E 8 b1 09 02
        E 8 b1 09 01
        E 8 b1 09 01
        E 8 b1 09 00
        E 8 b1 09 00
        E 8 b1 09 00
        E 8 b1 09 00
        E 8 b1 09 00
        E 8 b1 09 00
        E 8 b1 09 00
        E 8 b1 09 00
        E 8 b1 09 00
        E 8 b1 09 01
        E 8 b1 09 01
        E 8 b1 09 02
        E 8 b1 09 02
        E 8 b1 09 03
        E 8 b1 09 03
        E 8 b1 09 04
        E 8 b1 09 05
        E 8 b1 09 06
        E 8 b1 09 07
        E 8 b1 09 08
        E 8 b1 09 09
        E 8 b1 09 0a
        E 8 b1 09 0b
        E 8 b1 09 0c
        E 8 b1 09 0e
        E 8 b1 09 0f
        E 8 b1 09 10
        E 8 b1 09 12
        E 8 b1 09 13
        E 8 b1 09 15
        E 8 b1 09 16
        E 8 b1 09 18
        E 8 b1 09 19
        E 8 b1 09 1b
        E 8 b1 09 1c
        E 8 b1 09 1e
        E 8 b1 09 20
        E 8 b1 09 20
        E 8 b1 09 21
        E 8 b1 09 23
        E 8 b1 09 24
        E 8 b1 09 26
        E 8 b1 09 27
        E 8 b1 09 29
        E 8 b1 09 2a
        E 8 b1 09 2c
        E 8 b1 09 2d
        E 8 b1 09 2f
        E 8 b1 09 30
        E 8 b1 09 31
        E 8 b1 09 33
        E 8 b1 09 34
        E 8 b1 09 35
        E 8 b1 09 36
        E 8 b1 09 37
        E 8 b1 09 38
        E 8 b1 09 39
        E 8 b1 09 3a
        E 8 b1 09 3b
        E 8 b1 09 3c
        E 8 b1 09 3c
        E 8 b1 09 3d
        E 8 b1 09 3d
        E 8 b1 09 3e
        E 8 b1 09 3e
        E 8 b1 09 3f
        E 8 b1 09 3f
        E 8 b1 09 3f
        E 8 b1 09 3f
        E 8 b1 09 3f
        E 8 b1 09 3f
        E 8 b1 09 3f
        E 8 b1 09 3f
        E 8 b1 09 3f
        E 8 b1 09 3e
        E 8 b1 09 3e
        E 8 b1 09 3d
        E 8 b1 09 3d
        E 8 b1 09 3c
        E 8 b1 09 3b
        E 8 b1 09 3a
        E 8 b1 09 3a
        E 8 b1 09 39
        E 8 b1 09 38
        E 8 b1 09 37
        E 8 b1 09 36
        E 8 b1 09 34
        E 8 b1 09 33
        E 8 b1 09 32
        E 8 b1 09 31
        E 8 b1 09 2f
        E 8 b1 09 2e
        E 8 b1 09 2c
        E 8 b1 09 2b
        E 8 b1 09 2a
        E 8 b1 09 28
        E 8 b1 09 27
        E 8 b1 09 25
        E 8 b1 09 23
        E 8 b1 09 22
        E 8 b1 09 20
        E 8 b1 09 1f
        E 8 b1 09 1d
        E 8 b1 09 1c
        E 8 b1 09 1a
        E 8 b1 09 18
        E 8 b1 09 17
        E 8 b1 09 15
        E 8 b1 09 14
        E 8 b1 09 13
        E 8 b1 09 11
        E 8 b1 09 10
        E 8 b1 09 0e
        E 8 b1 09 0d
        E 8 b1 09 0c
        E 8 b1 09 0b
        E 8 b1 09 09
        E 8 b1 09 08
        E 8 b1 09 07
        E 8 b1 09 06
        E 8 b1 09 05
        E 8 b1 09 05
        E 8 b1 09 04
        E 8 b1 09 03
        E 8 b1 09 02
        E 8 b1 09 02
        E 8 b1 09 01
        E 8 b1 09 01
        E 8 b1 09 00
        E 8 b1 09 00
        E 8 b1 09 00
        E 8 b1 09 00
        E 8 b1 09 00
        E 8 b1 09 00
        E 8 b1 09 00
        E 8 b1 09 00
        E 8 b1 09 00
        E 8 b1 09 01
        E 8 b1 09 01
        E 8 b1 09 02
        E 8 b1 09 02
        E 8 b1 09 03
        E 8 b1 09 03
        E 8 b1 09 04
        E 8 b1 09 05
        E 8 b1 09 06
        E 8 b1 09 07
        E 8 b1 09 08
        E 8 b1 09 09
        E 8 b1 09 0a
        E 8 b1 09 0b
        E 8 b1 09 0c
        E 8 b1 09 0e
        E 8 b1 09 0f
        E 8 b1 09 10
        E 8 b1 09 12
        E 8 b1 09 13
        E 8 b1 09 15
        E 8 b1 09 16
        E 8 b1 09 18
        E 8 b1 09 19
        E 8 b1 09 1b
        E 8 b1 09 1c
        E 8 b1 09 1e
        E 8 b1 09 20
        E 17 b1 09 2c
        E 17 b1 09 2e
        E 17 b1 09 31
        E 17 b1 09 33
        E 17 b1 09 35
        E 17 b1 09 37
        E 17 b1 09 39
        E 17 b1 09 3b
        E 17 b1 09 3d
        E 17 b1 09 3f
        E 17 b1 09 41
        E 17 b1 09 43
        E 17 b1 09 45
        E 17 b1 09 47
        E 17 b1 09 48
        E 17 b1 09 4a
        E 17 b1 09 4c
        E 17 b1 09 4d
        E 17 b1 09 4f
        E 17 b1 09 50
        E 17 b1 09 51
        E 17 b1 09 52
        E 17 b1 09 54
        E 17 b1 09 54
        E 17 b1 09 55
        E 17 b1 09 56
        E 17 b1 09 56
        E 17 b1 09 57
        E 17 b1 09 58
        E 17 b1 09 58
        E 17 b1 09 58
        E 17 b1 09 58
        E 17 b1 09 58
        E 17 b1 09 58
        E 17 b1 09 58
        E 17 b1 09 58
        E 17 b1 09 58
        E 17 b1 09 57
        E 17 b1 09 56
        E 17 b1 09 56
        E 17 b1 09 55
        E 17 b1 09 54
        E 17 b1 09 53
        E 17 b1 09 51
        E 17 b1 09 51
        E 17 b1 09 4f
        E 17 b1 09 4e
        E 17 b1 09 4d
        E 17 b1 09 4b
        E 17 b1 09 49
        E 17 b1 09 48
        E 17 b1 09 46
        E 17 b1 09 44
        E 17 b1 09 42
        E 17 b1 09 40
        E 17 b1 09 3e
        E 17 b1 09 3c
        E 17 b1 09 3a
        E 17 b1 09 38
        E 17 b1 09 36
        E 17 b1 09 33
        E 17 b1 09 31
        E 17 b1 09 2f
        E 17 b1 09 2d
        E 17 b1 09 2b
        E 17 b1 09 29
        E 17 b1 09 27
        E 17 b1 09 25
        E 17 b1 09 22
        E 17 b1 09 20
        E 17 b1 09 1e
        E 17 b1 09 1c
        E 17 b1 09 1a
        E 17 b1 09 18
        E 17 b1 09 16
        E 17 b1 09 14
        E 17 b1 09 12
        E 17 b1 09 10
        E 17 b1 09 0f
        E 17 b1 09 0d
        E 17 b1 09 0b
        E 17 b1 09 0a
        E 17 b1 09 09
        E 17 b1 09 07
        E 17 b1 09 07
        E 17 b1 09 05
        E 17 b1 09 04
        E 17 b1 09 03
        E 17 b1 09 02
        E 17 b1 09 02
        E 17 b1 09 01
        E 17 b1 09 00
        E 17 b1 09 00
        E 17 b1 09 00
        E 17 b1 09 00
        E 17 b1 09 00
        E 17 b1 09 00
        E 17 b1 09 00
        E 17 b1 09 00
        E 17 b1 09 00
        E 17 b1 09 01
        E 17 b1 09 02
        E 17 b1 09 02
        E 17 b1 09 03
        E 17 b1 09 04
        E 17 b1 09 04
        E 17 b1 09 06
        E 17 b1 09 07
        E 17 b1 09 08
        E 17 b1 09 09
        E 17 b1 09 0b
        E 17 b1 09 0c
        E 17 b1 09 0e
        E 17 b1 09 10
        E 17 b1 09 11
        E 17 b1 09 13
        E 17 b1 09 15
        E 17 b1 09 17
        E 17 b1 09 19
        E 17 b1 09 1b
        E 17 b1 09 1d
        E 17 b1 09 1f
        E 17 b1 09 21
        E 17 b1 09 23
        E 17 b1 09 25
        E 17 b1 09 27
        E 17 b1 09 2a
        E 17 b1 09 2c
        E 15 b1 09 33
        E 15 b1 09 35
        E 15 b1 09 37
        E 15 b1 09 3a
        E 15 b1 09 3c
        E 15 b1 09 3f
        E 15 b1 09 41
        E 15 b1 09 44
        E 15 b1 09 46
        E 15 b1 09 48
        E 15 b1 09 4b
        E 15 b1 09 4c
        E 15 b1 09 4f
        E 15 b1 09 51
        E 15 b1 09 53
        E 15 b1 09 54
        E 15 b1 09 57
        E 15 b1 09 58
        E 15 b1 09 5a
        E 15 b1 09 5b
        E 15 b1 09 5d
        E 15 b1 09 5e
        E 15 b1 09 5f
        E 15 b1 09 60
        E 15 b1 09 61
        E 15 b1 09 62
        E 15 b1 09 63
        E 15 b1 09 63
        E 15 b1 09 64
        E 15 b1 09 64
        E 15 b1 09 65
        E 15 b1 09 65
        E 15 b1 09 65
        E 15 b1 09 65
        E 15 b1 09 65
        E 15 b1 09 64
        E 15 b1 09 64
        E 15 b1 09 63
        E 15 b1 09 63
        E 15 b1 09 62
        E 15 b1 09 61
        E 15 b1 09 5f
        E 15 b1 09 5f
        E 15 b1 09 5d
        E 15 b1 09 5c
        E 15 b1 09 5b
        E 15 b1 09 59
        E 15 b1 09 57
        E 15 b1 09 56
        E 15 b1 09 54
        E 15 b1 09 52
        E 15 b1 09 50
        E 15 b1 09 4e
        E 15 b1 09 4c
        E 15 b1 09 49
        E 15 b1 09 47
        E 15 b1 09 45
        E 15 b1 09 43
        E 15 b1 09 40
        E 15 b1 09 3e
        E 15 b1 09 3b
        E 15 b1 09 38
        E 15 b1 09 36
        E 15 b1 09 33
        E 15 b1 09 31
        E 15 b1 09 2f
        E 15 b1 09 2c
        E 15 b1 09 2a
        E 15 b1 09 27
        E 15 b1 09 24
        E 15 b1 09 22
        E 15 b1 09 1f
        E 15 b1 09 1e
        E 15 b1 09 1b
        E 15 b1 09 19
        E 15 b1 09 17
        E 15 b1 09 15
        E 15 b1 09 13
        E 15 b1 09 11
        E 15 b1 09 0f
        E 15 b1 09 0d
        E 15 b1 09 0b
        E 15 b1 09 0a
        E 15 b1 09 08
        E 15 b1 09 07
        E 15 b1 09 06
        E 15 b1 09 05
        E 15 b1 09 03
        E 15 b1 09 03
        E 15 b1 09 02
        E 15 b1 09 01
        E 15 b1 09 00
        E 15 b1 09 00
        E 15 b1 09 00
        E 15 b1 09 00
        E 15 b1 09 00
        E 15 b1 09 00
        E 15 b1 09 00
        E 15 b1 09 00
        E 15 b1 09 00
        E 15 b1 09 01
        E 15 b1 09 02
        E 15 b1 09 03
        E 15 b1 09 03
        E 15 b1 09 04
        E 15 b1 09 05
        E 15 b1 09 07
        E 15 b1 09 07
        E 15 b1 09 09
        E 15 b1 09 0b
        E 15 b1 09 0c
        E 15 b1 09 0e
        E 15 b1 09 10
        E 15 b1 09 12
        E 15 b1 09 14
        E 15 b1 09 16
        E 15 b1 09 18
        E 15 b1 09 1a
        E 15 b1 09 1c
        E 15 b1 09 1f
        E 15 b1 09 21
        E 15 b1 09 24
        E 15 b1 09 26
        E 15 b1 09 28
        E 15 b1 09 2b
        E 15 b1 09 2d
        E 15 b1 09 2f
        E 15 b1 09 33
        E 17 b1 09 06
        E 17 b1 09 06
        E 17 b1 09 07
        E 17 b1 09 07
        E 17 b1 09 07
        E 17 b1 09 07
        E 17 b1 09 08
        E 17 b1 09 08
        E 17 b1 09 08
        E 17 b1 09 09
        E 17 b1 09 09
        E 17 b1 09 09
        E 17 b1 09 09
        E 17 b1 09 0a
        E 17 b1 09 0a
        E 17 b1 09 0a
        E 17 b1 09 0a
        E 17 b1 09 0b
        E 17 b1 09 0b
        E 17 b1 09 0b
        E 17 b1 09 0b
        E 17 b1 09 0b
        E 17 b1 09 0c
        E 17 b1 09 0c
        E 17 b1 09 0c
        E 17 b1 09 0c
        E 17 b1 09 0c
        E 17 b1 09 0c
        E 17 b1 09 0c
        E 17 b1 09 0c
        E 17 b1 09 0c
        E 17 b1 09 0c
        E 17 b1 09 0c
        E 17 b1 09 0c
        E 17 b1 09 0c
        E 17 b1 09 0c
        E 17 b1 09 0c
        E 17 b1 09 0c
        E 17 b1 09 0c
        E 17 b1 09 0c
        E 17 b1 09 0c
        E 17 b1 09 0c
        E 17 b1 09 0b
        E 17 b1 09 0b
        E 17 b1 09 0b
        E 17 b1 09 0b
        E 17 b1 09 0b
        E 17 b1 09 0b
        E 17 b1 09 0a
        E 17 b1 09 0a
        E 17 b1 09 0a
        E 17 b1 09 0a
        E 17 b1 09 09
        E 17 b1 09 09
        E 17 b1 09 09
        E 17 b1 09 08
        E 17 b1 09 08
        E 17 b1 09 08
        E 17 b1 09 08
        E 17 b1 09 07
        E 17 b1 09 07
        E 17 b1 09 07
        E 17 b1 09 06
        E 17 b1 09 06
        E 17 b1 09 06
        E 17 b1 09 05
        E 17 b1 09 05
        E 17 b1 09 05
        E 17 b1 09 04
        E 17 b1 09 04
        E 17 b1 09 04
        E 17 b1 09 04
        E 17 b1 09 03
        E 17 b1 09 03
        E 17 b1 09 03
        E 17 b1 09 02
        E 17 b1 09 02
        E 17 b1 09 02
        E 17 b1 09 02
        E 17 b1 09 01
        E 17 b1 09 01
        E 17 b1 09 01
        E 17 b1 09 01
        E 17 b1 09 01
        E 17 b1 09 01
        E 17 b1 09 00
        E 17 b1 09 00
        E 17 b1 09 00
        E 17 b1 09 00
        E 17 b1 09 00
        E 17 b1 09 00
        E 17 b1 09 00
        E 17 b1 09 00
        E 17 b1 09 00
        E 17 b1 09 00
        E 17 b1 09 00
        E 17 b1 09 00
        E 17 b1 09 00
        E 17 b1 09 00
        E 17 b1 09 00
        E 17 b1 09 00
        E 17 b1 09 00
        E 17 b1 09 00
        E 17 b1 09 00
        E 17 b1 09 00
        E 17 b1 09 00
        E 17 b1 09 00
        E 17 b1 09 01
        E 17 b1 09 01
        E 17 b1 09 01
        E 17 b1 09 01
        E 17 b1 09 01
        E 17 b1 09 02
        E 17 b1 09 02
        E 17 b1 09 02
        E 17 b1 09 02
        E 17 b1 09 03
        E 17 b1 09 03
        E 17 b1 09 03
        E 17 b1 09 03
        E 17 b1 09 04
        E 17 b1 09 04
        E 17 b1 09 04
        E 17 b1 09 05
        E 17 b1 09 05
        E 17 b1 09 05
        E 17 b1 09 06
        E 17 b1 09 06
        E 15 b1 09 19
        E 15 b1 09 1a
        E 15 b1 09 1c
        E 15 b1 09 1d
        E 15 b1 09 1e
        E 15 b1 09 1f
        E 15 b1 09 20
        E 15 b1 09 22
        E 15 b1 09 23
        E 15 b1 09 24
        E 15 b1 09 25
        E 15 b1 09 26
        E 15 b1 09 27
        E 15 b1 09 28
        E 15 b1 09 29
        E 15 b1 09 2a
        E 15 b1 09 2b
        E 15 b1 09 2c
        E 15 b1 09 2d
        E 15 b1 09 2e
        E 15 b1 09 2e
        E 15 b1 09 2f
        E 15 b1 09 30
        E 15 b1 09 30
        E 15 b1 09 30
        E 15 b1 09 31
        E 15 b1 09 31
        E 15 b1 09 32
        E 15 b1 09 32
        E 15 b1 09 32
        E 15 b1 09 32
        E 15 b1 09 32
        E 15 b1 09 32
        E 15 b1 09 32
        E 15 b1 09 32
        E 15 b1 09 32
        E 15 b1 09 32
        E 15 b1 09 32
        E 15 b1 09 31
        E 15 b1 09 31
        E 15 b1 09 30
        E 15 b1 09 30
        E 15 b1 09 2f
        E 15 b1 09 2e
        E 15 b1 09 2e
        E 15 b1 09 2d
        E 15 b1 09 2c
        E 15 b1 09 2c
        E 15 b1 09 2b
        E 15 b1 09 2a
        E 15 b1 09 29
        E 15 b1 09 28
        E 15 b1 09 27
        E 15 b1 09 26
        E 15 b1 09 24
        E 15 b1 09 23
        E 15 b1 09 22
        E 15 b1 09 21
        E 15 b1 09 20
        E 15 b1 09 1f
        E 15 b1 09 1d
        E 15 b1 09 1c
        E 15 b1 09 1b
        E 15 b1 09 1a
        E 15 b1 09 18
        E 15 b1 09 17
        E 15 b1 09 16
        E 15 b1 09 15
        E 15 b1 09 13
        E 15 b1 09 12
        E 15 b1 09 11
        E 15 b1 09 10
        E 15 b1 09 0f
        E 15 b1 09 0e
        E 15 b1 09 0c
        E 15 b1 09 0b
        E 15 b1 09 0a
        E 15 b1 09 09
        E 15 b1 09 08
        E 15 b1 09 07
        E 15 b1 09 06
        E 15 b1 09 06
        E 15 b1 09 05
        E 15 b1 09 04
        E 15 b1 09 04
        E 15 b1 09 03
        E 15 b1 09 02
        E 15 b1 09 02
        E 15 b1 09 01
        E 15 b1 09 01
        E 15 b1 09 00
        E 15 b1 09 00
        E 15 b1 09 00
        E 15 b1 09 00
        E 15 b1 09 00
        E 15 b1 09 00
        E 15 b1 09 00
        E 15 b1 09 00
        E 15 b1 09 00
        E 15 b1 09 00
        E 15 b1 09 00
        E 15 b1 09 01
        E 15 b1 09 01
        E 15 b1 09 02
        E 15 b1 09 02
        E 15 b1 09 02
        E 15 b1 09 03
        E 15 b1 09 04
        E 15 b1 09 04
        E 15 b1 09 05
        E 15 b1 09 06
        E 15 b1 09 07
        E 15 b1 09 08
        E 15 b1 09 09
        E 15 b1 09 0a
        E 15 b1 09 0b
        E 15 b1 09 0c
        E 15 b1 09 0d
        E 15 b1 09 0e
        E 15 b1 09 0f
        E 15 b1 09 10
        E 15 b1 09 12
        E 15 b1 09 13
        E 15 b1 09 14
        E 15 b1 09 15
        E 15 b1 09 16
        E 15 b1 09 18
        E 15 b1 09 19
        E 8 b1 09 2c
        E 8 b1 09 2e
        E 8 b1 09 31
        E 8 b1 09 33
        E 8 b1 09 35
        E 8 b1 09 37
        E 8 b1 09 39
        E 8 b1 09 3b
        E 8 b1 09 3d
        E 8 b1 09 3f
        E 8 b1 09 41
        E 8 b1 09 43
        E 8 b1 09 45
        E 8 b1 09 47
        E 8 b1 09 48
        E 8 b1 09 4a
        E 8 b1 09 4c
        E 8 b1 09 4d
        E 8 b1 09 4f
        E 8 b1 09 50
        E 8 b1 09 51
        E 8 b1 09 52
        E 8 b1 09 54
        E 8 b1 09 54
        E 8 b1 09 55
        E 8 b1 09 56
        E 8 b1 09 56
        E 8 b1 09 57
        E 8 b1 09 58
        E 8 b1 09 58
        E 8 b1 09 58
        E 8 b1 09 58
        E 8 b1 09 58
        E 8 b1 09 58
        E 8 b1 09 58
        E 8 b1 09 58
        E 8 b1 09 58
        E 8 b1 09 57
        E 8 b1 09 56
        E 8 b1 09 56
        E 8 b1 09 55
        E 8 b1 09 54
        E 8 b1 09 53
        E 8 b1 09 51
        E 8 b1 09 51
        E 8 b1 09 4f
        E 8 b1 09 4e
        E 8 b1 09 4d
        E 8 b1 09 4b
        E 8 b1 09 49
        E 8 b1 09 48
        E 8 b1 09 46
        E 8 b1 09 44
        E 8 b1 09 42
        E 8 b1 09 40
        E 8 b1 09 3e
        E 8 b1 09 3c
        E 8 b1 09 3a
        E 8 b1 09 38
        E 8 b1 09 36
        E 8 b1 09 33
        E 8 b1 09 31
        E 8 b1 09 2f
        E 8 b1 09 2d
        E 8 b1 09 2b
        E 8 b1 09 29
        E 8 b1 09 27
        E 8 b1 09 25
        E 8 b1 09 22
        E 8 b1 09 20
        E 8 b1 09 1e
        E 8 b1 09 1c
        E 8 b1 09 1a
        E 8 b1 09 18
        E 8 b1 09 16
        E 8 b1 09 14
        E 8 b1 09 12
        E 8 b1 09 10
        E 8 b1 09 0f
        E 8 b1 09 0d
        E 8 b1 09 0b
        E 8 b1 09 0a
        E 8 b1 09 09
        E 8 b1 09 07
        E 8 b1 09 07
        E 8 b1 09 05
        E 8 b1 09 04
        E 8 b1 09 03
        E 8 b1 09 02
        E 8 b1 09 02
        E 8 b1 09 01
        E 8 b1 09 00
        E 8 b1 09 00
        E 8 b1 09 00
        E 8 b1 09 00
        E 8 b1 09 00
        E 8 b1 09 00
        E 8 b1 09 00
        E 8 b1 09 00
        E 8 b1 09 00
        E 8 b1 09 01
        E 8 b1 09 02
        E 8 b1 09 02
        E 8 b1 09 03
        E 8 b1 09 04
        E 8 b1 09 04
        E 8 b1 09 06
        E 8 b1 09 07
        E 8 b1 09 08
        E 8 b1 09 09
        E 8 b1 09 0b
        E 8 b1 09 0c
        E 8 b1 09 0e
        E 8 b1 09 10
        E 8 b1 09 11
        E 8 b1 09 13
        E 8 b1 09 15
        E 8 b1 09 17
        E 8 b1 09 19
        E 8 b1 09 1b
        E 8 b1 09 1d
        E 8 b1 09 1f
        E 8 b1 09 21
        E 8 b1 09 23
        E 8 b1 09 25
        E 8 b1 09 27
        E 8 b1 09 2a
        E 8 b1 09 2c
        E 8 b1 09 20
        E 8 b1 09 21
        E 8 b1 09 23
        E 8 b1 09 24
        E 8 b1 09 26
        E 8 b1 09 27
        E 8 b1 09 29
        E 8 b1 09 2a
        E 8 b1 09 2c
        E 8 b1 09 2d
        E 8 b1 09 2f
        E 8 b1 09 30
        E 8 b1 09 31
        E 8 b1 09 33
        E 8 b1 09 34
        E 8 b1 09 35
        E 8 b1 09 36
        E 8 b1 09 37
        E 8 b1 09 38
        E 8 b1 09 39
        E 8 b1 09 3a
        E 8 b1 09 3b
        E 8 b1 09 3c
        E 8 b1 09 3c
        E 8 b1 09 3d
        E 8 b1 09 3d
        E 8 b1 09 3e
        E 8 b1 09 3e
        E 8 b1 09 3f
        E 8 b1 09 3f
        E 8 b1 09 3f
        E 8 b1 09 3f
        E 8 b1 09 3f
        E 8 b1 09 3f
        E 8 b1 09 3f
        E 8 b1 09 3f
        E 8 b1 09 3f
        E 8 b1 09 3e
        E 8 b1 09 3e
        E 8 b1 09 3d
        E 8 b1 09 3d
        E 8 b1 09 3c
        E 8 b1 09 3b
        E 8 b1 09 3a
        E 8 b1 09 3a
        E 8 b1 09 39
        E 8 b1 09 38
        E 8 b1 09 37
        E 8 b1 09 36
        E 8 b1 09 34
        E 8 b1 09 33
        E 8 b1 09 32
        E 8 b1 09 31
        E 8 b1 09 2f
        E 8 b1 09 2e
        E 8 b1 09 2c
        E 8 b1 09 2b
        E 8 b1 09 2a
        E 8 b1 09 28
        E 8 b1 09 27
        E 8 b1 09 25
        E 8 b1 09 23
        E 8 b1 09 22
        E 8 b1 09 20
        E 8 b1 09 1f
        E 8 b1 09 1d
        E 8 b1 09 1c
        E 8 b1 09 1a
        E 8 b1 09 18
        E 8 b1 09 17
        E 8 b1 09 15
        E 8 b1 09 14
        E 8 b1 09 13
        E 8 b1 09 11
        E 8 b1 09 10
        E 8 b1 09 0e
        E 8 b1 09 0d
        E 8 b1 09 0c
        E 8 b1 09 0b
        E 8 b1 09 09
        E 8 b1 09 08
        E 8 b1 09 07
        E 8 b1 09 06
        E 8 b1 09 05
        E 8 b1 09 05
        E 8 b1 09 04
        E 8 b1 09 03
        E 8 b1 09 02
        E 8 b1 09 02
        E 8 b1 09 01
        E 8 b1 09 01
        E 8 b1 09 00
        E 8 b1 09 00
        E 8 b1 09 00
        E 8 b1 09 00
        E 8 b1 09 00
        E 8 b1 09 00
        E 8 b1 09 00
        E 8 b1 09 00
        E 8 b1 09 00
        E 8 b1 09 01
        E 8 b1 09 01
        E 8 b1 09 02
        E 8 b1 09 02
        E 8 b1 09 03
        E 8 b1 09 03
        E 8 b1 09 04
        E 8 b1 09 05
        E 8 b1 09 06
        E 8 b1 09 07
        E 8 b1 09 08
        E 8 b1 09 09
        E 8 b1 09 0a
        E 8 b1 09 0b
        E 8 b1 09 0c
        E 8 b1 09 0e
        E 8 b1 09 0f
        E 8 b1 09 10
        E 8 b1 09 12
        E 8 b1 09 13
        E 8 b1 09 15
        E 8 b1 09 16
        E 8 b1 09 18
        E 8 b1 09 19
        E 8 b1 09 1b
        E 8 b1 09 1c
        E 8 b1 09 1e
        E 8 b1 09 20
        E 11 b1 09 20
        E 11 b1 09 21
        E 11 b1 09 23
        E 11 b1 09 24
        E 11 b1 09 26
        E 11 b1 09 27
        E 11 b1 09 29
        E 11 b1 09 2a
        E 11 b1 09 2c
        E 11 b1 09 2d
        E 11 b1 09 2f
        E 11 b1 09 30
        E 11 b1 09 31
        E 11 b1 09 33
        E 11 b1 09 34
        E 11 b1 09 35
        E 11 b1 09 36
        E 11 b1 09 37
        E 11 b1 09 38
        E 11 b1 09 39
        E 11 b1 09 3a
        E 11 b1 09 3b
        E 11 b1 09 3c
        E 11 b1 09 3c
        E 11 b1 09 3d
        E 11 b1 09 3d
        E 11 b1 09 3e
        E 11 b1 09 3e
        E 11 b1 09 3f
        E 11 b1 09 3f
        E 11 b1 09 3f
        E 11 b1 09 3f
        E 11 b1 09 3f
        E 11 b1 09 3f
        E 11 b1 09 3f
        E 11 b1 09 3f
        E 11 b1 09 3f
        E 11 b1 09 3e
        E 11 b1 09 3e
        E 11 b1 09 3d
        E 11 b1 09 3d
        E 11 b1 09 3c
        E 11 b1 09 3b
        E 11 b1 09 3a
        E 11 b1 09 3a
        E 11 b1 09 39
        E 11 b1 09 38
        E 11 b1 09 37
        E 11 b1 09 36
        E 11 b1 09 34
        E 11 b1 09 33
        E 11 b1 09 32
        E 11 b1 09 31
        E 11 b1 09 2f
        E 11 b1 09 2e
        E 11 b1 09 2c
        E 11 b1 09 2b
        E 11 b1 09 2a
        E 11 b1 09 28
        E 11 b1 09 27
        E 11 b1 09 25
        E 11 b1 09 23
        E 11 b1 09 22
        E 11 b1 09 20
        E 11 b1 09 1f
        E 11 b1 09 1d
        E 11 b1 09 1c
        E 11 b1 09 1a
        E 11 b1 09 18
        E 11 b1 09 17
        E 11 b1 09 15
        E 11 b1 09 14
        E 11 b1 09 13
        E 11 b1 09 11
        E 11 b1 09 10
        E 11 b1 09 0e
        E 11 b1 09 0d
        E 11 b1 09 0c
        E 11 b1 09 0b
        E 11 b1 09 09
        E 11 b1 09 08
        E 11 b1 09 07
        E 11 b1 09 06
        E 11 b1 09 05
        E 11 b1 09 05
        E 11 b1 09 04
        E 11 b1 09 03
        E 11 b1 09 02
        E 11 b1 09 02
        E 11 b1 09 01
        E 11 b1 09 01
        E 11 b1 09 00
        E 11 b1 09 00
        E 11 b1 09 00
        E 11 b1 09 00
        E 11 b1 09 00
        E 11 b1 09 00
        E 11 b1 09 00
        E 11 b1 09 00
        E 11 b1 09 00
        E 11 b1 09 01
        E 11 b1 09 01
        E 11 b1 09 02
        E 11 b1 09 02
        E 11 b1 09 03
        E 11 b1 09 03
        E 11 b1 09 04
        E 11 b1 09 05
        E 11 b1 09 06
        E 11 b1 09 07
        E 11 b1 09 08
        E 11 b1 09 09
        E 11 b1 09 0a
        E 11 b1 09 0b
        E 11 b1 09 0c
        E 11 b1 09 0e
        E 11 b1 09 0f
        E 11 b1 09 10
        E 11 b1 09 12
        E 11 b1 09 13
        E 11 b1 09 15
        E 11 b1 09 16
        E 11 b1 09 18
        E 11 b1 09 19
        E 11 b1 09 1b
        E 11 b1 09 1c
        E 11 b1 09 1e
        E 11 b1 09 20
        E 13 b1 09 40
        E 13 b1 09 43
        E 13 b1 09 46
        E 13 b1 09 49
        E 13 b1 09 4c
        E 13 b1 09 4f
        E 13 b1 09 52
        E 13 b1 09 55
        E 13 b1 09 58
        E 13 b1 09 5b
        E 13 b1 09 5e
        E 13 b1 09 60
        E 13 b1 09 63
        E 13 b1 09 66
        E 13 b1 09 68
        E 13 b1 09 6a
        E 13 b1 09 6d
        E 13 b1 09 6f
        E 13 b1 09 71
        E 13 b1 09 73
        E 13 b1 09 75
        E 13 b1 09 76
        E 13 b1 09 78
        E 13 b1 09 79
        E 13 b1 09 7a
        E 13 b1 09 7b
        E 13 b1 09 7c
        E 13 b1 09 7d
        E 13 b1 09 7e
        E 13 b1 09 7e
        E 13 b1 09 7f
        E 13 b1 09 7f
        E 13 b1 09 7f
        E 13 b1 09 7f
        E 13 b1 09 7f
        E 13 b1 09 7e
        E 13 b1 09 7e
        E 13 b1 09 7d
        E 13 b1 09 7c
        E 13 b1 09 7b
        E 13 b1 09 7a
        E 13 b1 09 78
        E 13 b1 09 77
        E 13 b1 09 75
        E 13 b1 09 74
        E 13 b1 09 72
        E 13 b1 09 70
        E 13 b1 09 6e
        E 13 b1 09 6c
        E 13 b1 09 69
        E 13 b1 09 67
        E 13 b1 09 64
        E 13 b1 09 62
        E 13 b1 09 5f
        E 13 b1 09 5c
        E 13 b1 09 59
        E 13 b1 09 57
        E 13 b1 09 54
        E 13 b1 09 51
        E 13 b1 09 4e
        E 13 b1 09 4a
        E 13 b1 09 47
        E 13 b1 09 44
        E 13 b1 09 41
        E 13 b1 09 3e
        E 13 b1 09 3b
        E 13 b1 09 38
        E 13 b1 09 35
        E 13 b1 09 31
        E 13 b1 09 2e
        E 13 b1 09 2b
        E 13 b1 09 28
        E 13 b1 09 26
        E 13 b1 09 23
        E 13 b1 09 20
        E 13 b1 09 1d
        E 13 b1 09 1b
        E 13 b1 09 18
        E 13 b1 09 16
        E 13 b1 09 13
        E 13 b1 09 11
        E 13 b1 09 0f
        E 13 b1 09 0d
        E 13 b1 09 0b
        E 13 b1 09 0a
        E 13 b1 09 08
        E 13 b1 09 07
        E 13 b1 09 05
        E 13 b1 09 04
        E 13 b1 09 03
        E 13 b1 09 02
        E 13 b1 09 01
        E 13 b1 09 01
        E 13 b1 09 00
        E 13 b1 09 00
        E 13 b1 09 00
        E 13 b1 09 00
        E 13 b1 09 00
        E 13 b1 09 01
        E 13 b1 09 01
        E 13 b1 09 02
        E 13 b1 09 03
        E 13 b1 09 04
        E 13 b1 09 05
        E 13 b1 09 06
        E 13 b1 09 07
        E 13 b1 09 09
        E 13 b1 09 0a
        E 13 b1 09 0c
        E 13 b1 09 0e
        E 13 b1 09 10
        E 13 b1 09 12
        E 13 b1 09 15
        E 13 b1 09 17
        E 13 b1 09 19
        E 13 b1 09 1c
        E 13 b1 09 1f
        E 13 b1 09 21
        E 13 b1 09 24
        E 13 b1 09 27
        E 13 b1 09 2a
        E 13 b1 09 2d
        E 13 b1 09 30
        E 13 b1 09 33
        E 13 b1 09 36
        E 13 b1 09 39
        E 13 b1 09 3c
        E 13 b1 09 40
        E 1 b1 09 39
        E 1 b1 09 3c
        E 1 b1 09 3f
        E 1 b1 09 41
        E 1 b1 09 44
        E 1 b1 09 47
        E 1 b1 09 49
        E 1 b1 09 4c
        E 1 b1 09 4f
        E 1 b1 09 51
        E 1 b1 09 54
        E 1 b1 09 56
        E 1 b1 09 59
        E 1 b1 09 5b
        E 1 b1 09 5d
        E 1 b1 09 5f
        E 1 b1 09 62
        E 1 b1 09 63
        E 1 b1 09 65
        E 1 b1 09 67
        E 1 b1 09 69
        E 1 b1 09 6a
        E 1 b1 09 6c
        E 1 b1 09 6c
        E 1 b1 09 6d
        E 1 b1 09 6e
        E 1 b1 09 6f
        E 1 b1 09 70
        E 1 b1 09 71
        E 1 b1 09 71
        E 1 b1 09 72
        E 1 b1 09 72
        E 1 b1 09 72
        E 1 b1 09 72
        E 1 b1 09 72
        E 1 b1 09 71
        E 1 b1 09 71
        E 1 b1 09 70
        E 1 b1 09 6f
        E 1 b1 09 6e
        E 1 b1 09 6d
        E 1 b1 09 6c
        E 1 b1 09 6b
        E 1 b1 09 69
        E 1 b1 09 68
        E 1 b1 09 66
        E 1 b1 09 64
        E 1 b1 09 63
        E 1 b1 09 61
        E 1 b1 09 5e
        E 1 b1 09 5c
        E 1 b1 09 5a
        E 1 b1 09 58
        E 1 b1 09 55
        E 1 b1 09 52
        E 1 b1 09 50
        E 1 b1 09 4e
        E 1 b1 09 4b
        E 1 b1 09 48
        E 1 b1 09 46
        E 1 b1 09 42
        E 1 b1 09 3f
        E 1 b1 09 3d
        E 1 b1 09 3a
        E 1 b1 09 37
        E 1 b1 09 35
        E 1 b1 09 32
        E 1 b1 09 2f
        E 1 b1 09 2c
        E 1 b1 09 29
        E 1 b1 09 26
        E 1 b1 09 24
        E 1 b1 09 22
        E 1 b1 09 1f
        E 1 b1 09 1c
        E 1 b1 09 1a
        E 1 b1 09 18
        E 1 b1 09 15
        E 1 b1 09 13
        E 1 b1 09 11
        E 1 b1 09 0f
        E 1 b1 09 0d
        E 1 b1 09 0b
        E 1 b1 09 09
        E 1 b1 09 09
        E 1 b1 09 07
        E 1 b1 09 06
        E 1 b1 09 04
        E 1 b1 09 03
        E 1 b1 09 02
        E 1 b1 09 01
        E 1 b1 09 00
        E 1 b1 09 00
        E 1 b1 09 00
        E 1 b1 09 00
        E 1 b1 09 00
        E 1 b1 09 00
        E 1 b1 09 00
        E 1 b1 09 00
        E 1 b1 09 00
        E 1 b1 09 01
        E 1 b1 09 02
        E 1 b1 09 03
        E 1 b1 09 04
        E 1 b1 09 05
        E 1 b1 09 06
        E 1 b1 09 08
        E 1 b1 09 09
        E 1 b1 09 0a
        E 1 b1 09 0c
        E 1 b1 09 0e
        E 1 b1 09 10
        E 1 b1 09 12
        E 1 b1 09 14
        E 1 b1 09 16
        E 1 b1 09 19
        E 1 b1 09 1b
        E 1 b1 09 1d
        E 1 b1 09 20
        E 1 b1 09 23
        E 1 b1 09 25
        E 1 b1 09 28
        E 1 b1 09 2b
        E 1 b1 09 2d
        E 1 b1 09 30
        E 1 b1 09 33
        E 1 b1 09 36
        E 1 b1 09 39
        E 6 b1 09 40
        E 6 b1 09 43
        E 6 b1 09 46
        E 6 b1 09 49
        E 6 b1 09 4c
        E 6 b1 09 4f
        E 6 b1 09 52
        E 6 b1 09 55
        E 6 b1 09 58
        E 6 b1 09 5b
        E 6 b1 09 5e
        E 6 b1 09 60
        E 6 b1 09 63
        E 6 b1 09 66
        E 6 b1 09 68
        E 6 b1 09 6a
        E 6 b1 09 6d
        E 6 b1 09 6f
        E 6 b1 09 71
        E 6 b1 09 73
        E 6 b1 09 75
        E 6 b1 09 76
        E 6 b1 09 78
        E 6 b1 09 79
        E 6 b1 09 7a
        E 6 b1 09 7b
        E 6 b1 09 7c
        E 6 b1 09 7d
        E 6 b1 09 7e
        E 6 b1 09 7e
        E 6 b1 09 7f
        E 6 b1 09 7f
        E 6 b1 09 7f
        E 6 b1 09 7f
        E 6 b1 09 7f
        E 6 b1 09 7e
        E 6 b1 09 7e
        E 6 b1 09 7d
        E 6 b1 09 7c
        E 6 b1 09 7b
        E 6 b1 09 7a
        E 6 b1 09 78
        E 6 b1 09 77
        E 6 b1 09 75
        E 6 b1 09 74
        E 6 b1 09 72
        E 6 b1 09 70
        E 6 b1 09 6e
        E 6 b1 09 6c
        E 6 b1 09 69
        E 6 b1 09 67
        E 6 b1 09 64
        E 6 b1 09 62
        E 6 b1 09 5f
        E 6 b1 09 5c
        E 6 b1 09 59
        E 6 b1 09 57
        E 6 b1 09 54
        E 6 b1 09 51
        E 6 b1 09 4e
        E 6 b1 09 4a
        E 6 b1 09 47
        E 6 b1 09 44
        E 6 b1 09 41
        E 6 b1 09 3e
        E 6 b1 09 3b
        E 6 b1 09 38
        E 6 b1 09 35
        E 6 b1 09 31
        E 6 b1 09 2e
        E 6 b1 09 2b
        E 6 b1 09 28
        E 6 b1 09 26
        E 6 b1 09 23
        E 6 b1 09 20
        E 6 b1 09 1d
        E 6 b1 09 1b
        E 6 b1 09 18
        E 6 b1 09 16
        E 6 b1 09 13
        E 6 b1 09 11
        E 6 b1 09 0f
        E 6 b1 09 0d
        E 6 b1 09 0b
        E 6 b1 09 0a
        E 6 b1 09 08
        E 6 b1 09 07
        E 6 b1 09 05
        E 6 b1 09 04
        E 6 b1 09 03
        E 6 b1 09 02
        E 6 b1 09 01
        E 6 b1 09 01
        E 6 b1 09 00
        E 6 b1 09 00
        E 6 b1 09 00
        E 6 b1 09 00
        E 6 b1 09 00
        E 6 b1 09 01
        E 6 b1 09 01
        E 6 b1 09 02
        E 6 b1 09 03
        E 6 b1 09 04
        E 6 b1 09 05
        E 6 b1 09 06
        E 6 b1 09 07
        E 6 b1 09 09
        E 6 b1 09 0a
        E 6 b1 09 0c
        E 6 b1 09 0e
        E 6 b1 09 10
        E 6 b1 09 12
        E 6 b1 09 15
        E 6 b1 09 17
        E 6 b1 09 19
        E 6 b1 09 1c
        E 6 b1 09 1f
        E 6 b1 09 21
        E 6 b1 09 24
        E 6 b1 09 27
        E 6 b1 09 2a
        E 6 b1 09 2d
        E 6 b1 09 30
        E 6 b1 09 33
        E 6 b1 09 36
        E 6 b1 09 39
        E 6 b1 09 3c
        E 6 b1 09 40
        E 11 b1 09 39
        E 11 b1 09 3c
        E 11 b1 09 3f
        E 11 b1 09 41
        E 11 b1 09 44
        E 11 b1 09 47
        E 11 b1 09 49
        E 11 b1 09 4c
        E 11 b1 09 4f
        E 11 b1 09 51
        E 11 b1 09 54
        E 11 b1 09 56
        E 11 b1 09 59
        E 11 b1 09 5b
        E 11 b1 09 5d
        E 11 b1 09 5f
        E 11 b1 09 62
        E 11 b1 09 63
        E 11 b1 09 65
        E 11 b1 09 67
        E 11 b1 09 69
        E 11 b1 09 6a
        E 11 b1 09 6c
        E 11 b1 09 6c
        E 11 b1 09 6d
        E 11 b1 09 6e
        E 11 b1 09 6f
        E 11 b1 09 70
        E 11 b1 09 71
        E 11 b1 09 71
        E 11 b1 09 72
        E 11 b1 09 72
        E 11 b1 09 72
        E 11 b1 09 72
        E 11 b1 09 72
        E 11 b1 09 71
        E 11 b1 09 71
        E 11 b1 09 70
        E 11 b1 09 6f
        E 11 b1 09 6e
        E 11 b1 09 6d
        E 11 b1 09 6c
        E 11 b1 09 6b
        E 11 b1 09 69
        E 11 b1 09 68
        E 11 b1 09 66
        E 11 b1 09 64
        E 11 b1 09 63
        E 11 b1 09 61
        E 11 b1 09 5e
        E 11 b1 09 5c
        E 11 b1 09 5a
        E 11 b1 09 58
        E 11 b1 09 55
        E 11 b1 09 52
        E 11 b1 09 50
        E 11 b1 09 4e
        E 11 b1 09 4b
        E 11 b1 09 48
        E 11 b1 09 46
        E 11 b1 09 42
        E 11 b1 09 3f
        E 11 b1 09 3d
        E 11 b1 09 3a
        E 11 b1 09 37
        E 11 b1 09 35
        E 11 b1 09 32
        E 11 b1 09 2f
        E 11 b1 09 2c
        E 11 b1 09 29
        E 11 b1 09 26
        E 11 b1 09 24
        E 11 b1 09 22
        E 11 b1 09 1f
        E 11 b1 09 1c
        E 11 b1 09 1a
        E 11 b1 09 18
        E 11 b1 09 15
        E 11 b1 09 13
        E 11 b1 09 11
        E 11 b1 09 0f
        E 11 b1 09 0d
        E 11 b1 09 0b
        E 11 b1 09 09
        E 11 b1 09 09
        E 11 b1 09 07
        E 11 b1 09 06
        E 11 b1 09 04
        E 11 b1 09 03
        E 11 b1 09 02
        E 11 b1 09 01
        E 11 b1 09 00
        E 11 b1 09 00
        E 11 b1 09 00
        E 11 b1 09 00
        E 11 b1 09 00
        E 11 b1 09 00
        E 11 b1 09 00
        E 11 b1 09 00
        E 11 b1 09 00
        E 11 b1 09 01
        E 11 b1 09 02
        E 11 b1 09 03
        E 11 b1 09 04
        E 11 b1 09 05
        E 11 b1 09 06
        E 11 b1 09 08
        E 11 b1 09 09
        E 11 b1 09 0a
        E 11 b1 09 0c
        E 11 b1 09 0e
        E 11 b1 09 10
        E 11 b1 09 12
        E 11 b1 09 14
        E 11 b1 09 16
        E 11 b1 09 19
        E 11 b1 09 1b
        E 11 b1 09 1d
        E 11 b1 09 20
        E 11 b1 09 23
        E 11 b1 09 25
        E 11 b1 09 28
        E 11 b1 09 2b
        E 11 b1 09 2d
        E 11 b1 09 30
        E 11 b1 09 33
        E 11 b1 09 36
        E 11 b1 09 39
        E 8 b1 09 20
        E 8 b1 09 21
        E 8 b1 09 23
        E 8 b1 09 24
        E 8 b1 09 26
        E 8 b1 09 27
        E 8 b1 09 29
        E 8 b1 09 2a
        E 8 b1 09 2c
        E 8 b1 09 2d
        E 8 b1 09 2f
        E 8 b1 09 30
        E 8 b1 09 31
        E 8 b1 09 33
        E 8 b1 09 34
        E 8 b1 09 35
        E 8 b1 09 36
        E 8 b1 09 37
        E 8 b1 09 38
        E 8 b1 09 39
        E 8 b1 09 3a
        E 8 b1 09 3b
        E 8 b1 09 3c
        E 8 b1 09 3c
        E 8 b1 09 3d
        E 8 b1 09 3d
        E 8 b1 09 3e
        E 8 b1 09 3e
        E 8 b1 09 3f
        E 8 b1 09 3f
        E 8 b1 09 3f
        E 8 b1 09 3f
        E 8 b1 09 3f
        E 8 b1 09 3f
        E 8 b1 09 3f
        E 8 b1 09 3f
        E 8 b1 09 3f
        E 8 b1 09 3e
        E 8 b1 09 3e
        E 8 b1 09 3d
        E 8 b1 09 3d
        E 8 b1 09 3c
        E 8 b1 09 3b
        E 8 b1 09 3a
        E 8 b1 09 3a
        E 8 b1 09 39
        E 8 b1 09 38
        E 8 b1 09 37
        E 8 b1 09 36
        E 8 b1 09 34
        E 8 b1 09 33
        E 8 b1 09 32
        E 8 b1 09 31
        E 8 b1 09 2f
        E 8 b1 09 2e
        E 8 b1 09 2c
        E 8 b1 09 2b
        E 8 b1 09 2a
        E 8 b1 09 28
        E 8 b1 09 27
        E 8 b1 09 25
        E 8 b1 09 23
        E 8 b1 09 22
        E 8 b1 09 20
        E 8 b1 09 1f
        E 8 b1 09 1d
        E 8 b1 09 1c
        E 8 b1 09 1a
        E 8 b1 09 18
        E 8 b1 09 17
        E 8 b1 09 15
        E 8 b1 09 14
        E 8 b1 09 13
        E 8 b1 09 11
        E 8 b1 09 10
        E 8 b1 09 0e
        E 8 b1 09 0d
        E 8 b1 09 0c
        E 8 b1 09 0b
        E 8 b1 09 09
        E 8 b1 09 08
        E 8 b1 09 07
        E 8 b1 09 06
        E 8 b1 09 05
        E 8 b1 09 05
        E 8 b1 09 04
        E 8 b1 09 03
        E 8 b1 09 02
        E 8 b1 09 02
        E 8 b1 09 01
        E 8 b1 09 01
        E 8 b1 09 00
        E 8 b1 09 00
        E 8 b1 09 00
        E 8 b1 09 00
        E 8 b1 09 00
        E 8 b1 09 00
        E 8 b1 09 00
        E 8 b1 09 00
        E 8 b1 09 00
        E 8 b1 09 01
        E 8 b1 09 01
        E 8 b1 09 02
        E 8 b1 09 02
        E 8 b1 09 03
        E 8 b1 09 03
        E 8 b1 09 04
        E 8 b1 09 05
        E 8 b1 09 06
        E 8 b1 09 07
        E 8 b1 09 08
        E 8 b1 09 09
        E 8 b1 09 0a
        E 8 b1 09 0b
        E 8 b1 09 0c
        E 8 b1 09 0e
        E 8 b1 09 0f
        E 8 b1 09 10
        E 8 b1 09 12
        E 8 b1 09 13
        E 8 b1 09 15
        E 8 b1 09 16
        E 8 b1 09 18
        E 8 b1 09 19
        E 8 b1 09 1b
        E 8 b1 09 1c
        E 8 b1 09 1e
        E 8 b1 09 20
        E 8 b1 09 20
        E 8 b1 09 21
        E 8 b1 09 23
        E 8 b1 09 24
        E 8 b1 09 26
        E 8 b1 09 27
        E 8 b1 09 29
        E 8 b1 09 2a
        E 8 b1 09 2c
        E 8 b1 09 2d
        E 8 b1 09 2f
        E 8 b1 09 30
        E 8 b1 09 31
        E 8 b1 09 33
        E 8 b1 09 34
        E 8 b1 09 35
        E 8 b1 09 36
        E 8 b1 09 37
        E 8 b1 09 38
        E 8 b1 09 39
        E 8 b1 09 3a
        E 8 b1 09 3b
        E 8 b1 09 3c
        E 8 b1 09 3c
        E 8 b1 09 3d
        E 8 b1 09 3d
        E 8 b1 09 3e
        E 8 b1 09 3e
        E 8 b1 09 3f
        E 8 b1 09 3f
        E 8 b1 09 3f
        E 8 b1 09 3f
        E 8 b1 09 3f
        E 8 b1 09 3f
        E 8 b1 09 3f
        E 8 b1 09 3f
        E 8 b1 09 3f
        E 8 b1 09 3e
        E 8 b1 09 3e
        E 8 b1 09 3d
        E 8 b1 09 3d
        E 8 b1 09 3c
        E 8 b1 09 3b
        E 8 b1 09 3a
        E 8 b1 09 3a
        E 8 b1 09 39
        E 8 b1 09 38
        E 8 b1 09 37
        E 8 b1 09 36
        E 8 b1 09 34
        E 8 b1 09 33
        E 8 b1 09 32
        E 8 b1 09 31
        E 8 b1 09 2f
        E 8 b1 09 2e
        E 8 b1 09 2c
        E 8 b1 09 2b
        E 8 b1 09 2a
        E 8 b1 09 28
        E 8 b1 09 27
        E 8 b1 09 25
        E 8 b1 09 23
        E 8 b1 09 22
        E 8 b1 09 20
        E 8 b1 09 1f
        E 8 b1 09 1d
        E 8 b1 09 1c
        E 8 b1 09 1a
        E 8 b1 09 18
        E 8 b1 09 17
        E 8 b1 09 15
        E 8 b1 09 14
        E 8 b1 09 13
        E 8 b1 09 11
        E 8 b1 09 10
        E 8 b1 09 0e
        E 8 b1 09 0d
        E 8 b1 09 0c
        E 8 b1 09 0b
        E 8 b1 09 09
        E 8 b1 09 08
        E 8 b1 09 07
        E 8 b1 09 06
        E 8 b1 09 05
        E 8 b1 09 05
        E 8 b1 09 04
        E 8 b1 09 03
        E 8 b1 09 02
        E 8 b1 09 02
        E 8 b1 09 01
        E 8 b1 09 01
        E 8 b1 09 00
        E 8 b1 09 00
        E 8 b1 09 00
        E 8 b1 09 00
        E 8 b1 09 00
        E 8 b1 09 00
        E 8 b1 09 00
        E 8 b1 09 00
        E 8 b1 09 00
        E 8 b1 09 01
        E 8 b1 09 01
        E 8 b1 09 02
        E 8 b1 09 02
        E 8 b1 09 03
        E 8 b1 09 03
        E 8 b1 09 04
        E 8 b1 09 05
        E 8 b1 09 06
        E 8 b1 09 07
        E 8 b1 09 08
        E 8 b1 09 09
        E 8 b1 09 0a
        E 8 b1 09 0b
        E 8 b1 09 0c
        E 8 b1 09 0e
        E 8 b1 09 0f
        E 8 b1 09 10
        E 8 b1 09 12
        E 8 b1 09 13
        E 8 b1 09 15
        E 8 b1 09 16
        E 8 b1 09 18
        E 8 b1 09 19
        E 8 b1 09 1b
        E 8 b1 09 1c
        E 8 b1 09 1e
        E 8 b1 09 20
        E 17 b1 09 2c
        E 17 b1 09 2e
        E 17 b1 09 31
        E 17 b1 09 33
        E 17 b1 09 35
        E 17 b1 09 37
        E 17 b1 09 39
        E 17 b1 09 3b
        E 17 b1 09 3d
        E 17 b1 09 3f
        E 17 b1 09 41
        E 17 b1 09 43
        E 17 b1 09 45
        E 17 b1 09 47
        E 17 b1 09 48
        E 17 b1 09 4a
        E 17 b1 09 4c
        E 17 b1 09 4d
        E 17 b1 09 4f
        E 17 b1 09 50
        E 17 b1 09 51
        E 17 b1 09 52
        E 17 b1 09 54
        E 17 b1 09 54
        E 17 b1 09 55
        E 17 b1 09 56
        E 17 b1 09 56
        E 17 b1 09 57
        E 17 b1 09 58
        E 17 b1 09 58
        E 17 b1 09 58
        E 17 b1 09 58
        E 17 b1 09 58
        E 17 b1 09 58
        E 17 b1 09 58
        E 17 b1 09 58
        E 17 b1 09 58
        E 17 b1 09 57
        E 17 b1 09 56
        E 17 b1 09 56
        E 17 b1 09 55
        E 17 b1 09 54
        E 17 b1 09 53
        E 17 b1 09 51
        E 17 b1 09 51
        E 17 b1 09 4f
        E 17 b1 09 4e
        E 17 b1 09 4d
        E 17 b1 09 4b
        E 17 b1 09 49
        E 17 b1 09 48
        E 17 b1 09 46
        E 17 b1 09 44
        E 17 b1 09 42
        E 17 b1 09 40
        E 17 b1 09 3e
        E 17 b1 09 3c
        E 17 b1 09 3a
        E 17 b1 09 38
        E 17 b1 09 36
        E 17 b1 09 33
        E 17 b1 09 31
        E 17 b1 09 2f
        E 17 b1 09 2d
        E 17 b1 09 2b
        E 17 b1 09 29
        E 17 b1 09 27
        E 17 b1 09 25
        E 17 b1 09 22
        E 17 b1 09 20
        E 17 b1 09 1e
        E 17 b1 09 1c
        E 17 b1 09 1a
        E 17 b1 09 18
        E 17 b1 09 16
        E 17 b1 09 14
        E 17 b1 09 12
        E 17 b1 09 10
        E 17 b1 09 0f
        E 17 b1 09 0d
        E 17 b1 09 0b
        E 17 b1 09 0a
        E 17 b1 09 09
        E 17 b1 09 07
        E 17 b1 09 07
        E 17 b1 09 05
        E 17 b1 09 04
        E 17 b1 09 03
        E 17 b1 09 02
        E 17 b1 09 02
        E 17 b1 09 01
        E 17 b1 09 00
        E 17 b1 09 00
        E 17 b1 09 00
        E 17 b1 09 00
        E 17 b1 09 00
        E 17 b1 09 00
        E 17 b1 09 00
        E 17 b1 09 00
        E 17 b1 09 00
        E 17 b1 09 01
        E 17 b1 09 02
        E 17 b1 09 02
        E 17 b1 09 03
        E 17 b1 09 04
        E 17 b1 09 04
        E 17 b1 09 06
        E 17 b1 09 07
        E 17 b1 09 08
        E 17 b1 09 09
        E 17 b1 09 0b
        E 17 b1 09 0c
        E 17 b1 09 0e
        E 17 b1 09 10
        E 17 b1 09 11
        E 17 b1 09 13
        E 17 b1 09 15
        E 17 b1 09 17
        E 17 b1 09 19
        E 17 b1 09 1b
        E 17 b1 09 1d
        E 17 b1 09 1f
        E 17 b1 09 21
        E 17 b1 09 23
        E 17 b1 09 25
        E 17 b1 09 27
        E 17 b1 09 2a
        E 17 b1 09 2c
        E 15 b1 09 33
        E 15 b1 09 35
        E 15 b1 09 37
        E 15 b1 09 3a
        E 15 b1 09 3c
        E 15 b1 09 3f
        E 15 b1 09 41
        E 15 b1 09 44
        E 15 b1 09 46
        E 15 b1 09 48
        E 15 b1 09 4b
        E 15 b1 09 4c
        E 15 b1 09 4f
        E 15 b1 09 51
        E 15 b1 09 53
        E 15 b1 09 54
        E 15 b1 09 57
        E 15 b1 09 58
        E 15 b1 09 5a
        E 15 b1 09 5b
        E 15 b1 09 5d
        E 15 b1 09 5e
        E 15 b1 09 5f
        E 15 b1 09 60
        E 15 b1 09 61
        E 15 b1 09 62
        E 15 b1 09 63
        E 15 b1 09 63
        E 15 b1 09 64
        E 15 b1 09 64
        E 15 b1 09 65
        E 15 b1 09 65
        E 15 b1 09 65
        E 15 b1 09 65
        E 15 b1 09 65
        E 15 b1 09 64
        E 15 b1 09 64
        E 15 b1 09 63
        E 15 b1 09 63
        E 15 b1 09 62
        E 15 b1 09 61
        E 15 b1 09 5f
        E 15 b1 09 5f
        E 15 b1 09 5d
        E 15 b1 09 5c
        E 15 b1 09 5b
        E 15 b1 09 59
        E 15 b1 09 57
        E 15 b1 09 56
        E 15 b1 09 54
        E 15 b1 09 52
        E 15 b1 09 50
        E 15 b1 09 4e
        E 15 b1 09 4c
        E 15 b1 09 49
        E 15 b1 09 47
        E 15 b1 09 45
        E 15 b1 09 43
        E 15 b1 09 40
        E 15 b1 09 3e
        E 15 b1 09 3b
        E 15 b1 09 38
        E 15 b1 09 36
        E 15 b1 09 33
        E 15 b1 09 31
        E 15 b1 09 2f
        E 15 b1 09 2c
        E 15 b1 09 2a
        E 15 b1 09 27
        E 15 b1 09 24
        E 15 b1 09 22
        E 15 b1 09 1f
        E 15 b1 09 1e
        E 15 b1 09 1b
        E 15 b1 09 19
        E 15 b1 09 17
        E 15 b1 09 15
        E 15 b1 09 13
        E 15 b1 09 11
        E 15 b1 09 0f
        E 15 b1 09 0d
        E 15 b1 09 0b
        E 15 b1 09 0a
        E 15 b1 09 08
        E 15 b1 09 07
        E 15 b1 09 06
        E 15 b1 09 05
        E 15 b1 09 03
        E 15 b1 09 03
        E 15 b1 09 02
        E 15 b1 09 01
        E 15 b1 09 00
        E 15 b1 09 00
        E 15 b1 09 00
        E 15 b1 09 00
        E 15 b1 09 00
        E 15 b1 09 00
        E 15 b1 09 00
        E 15 b1 09 00
        E 15 b1 09 00
        E 15 b1 09 01
        E 15 b1 09 02
        E 15 b1 09 03
        E 15 b1 09 03
        E 15 b1 09 04
        E 15 b1 09 05
        E 15 b1 09 07
        E 15 b1 09 07
        E 15 b1 09 09
        E 15 b1 09 0b
        E 15 b1 09 0c
        E 15 b1 09 0e
        E 15 b1 09 10
        E 15 b1 09 12
        E 15 b1 09 14
        E 15 b1 09 16
        E 15 b1 09 18
        E 15 b1 09 1a
        E 15 b1 09 1c
        E 15 b1 09 1f
        E 15 b1 09 21
        E 15 b1 09 24
        E 15 b1 09 26
        E 15 b1 09 28
        E 15 b1 09 2b
        E 15 b1 09 2d
        E 15 b1 09 2f
        E 15 b1 09 33
        E 17 b1 09 06
        E 17 b1 09 06
        E 17 b1 09 07
        E 17 b1 09 07
        E 17 b1 09 07
        E 17 b1 09 07
        E 17 b1 09 08
        E 17 b1 09 08
        E 17 b1 09 08
        E 17 b1 09 09
        E 17 b1 09 09
        E 17 b1 09 09
        E 17 b1 09 09
        E 17 b1 09 0a
        E 17 b1 09 0a
        E 17 b1 09 0a
        E 17 b1 09 0a
        E 17 b1 09 0b
        E 17 b1 09 0b
        E 17 b1 09 0b
        E 17 b1 09 0b
        E 17 b1 09 0b
        E 17 b1 09 0c
        E 17 b1 09 0c
        E 17 b1 09 0c
        E 17 b1 09 0c
        E 17 b1 09 0c
        E 17 b1 09 0c
        E 17 b1 09 0c
        E 17 b1 09 0c
        E 17 b1 09 0c
        E 17 b1 09 0c
        E 17 b1 09 0c
        E 17 b1 09 0c
        E 17 b1 09 0c
        E 17 b1 09 0c
        E 17 b1 09 0c
        E 17 b1 09 0c
        E 17 b1 09 0c
        E 17 b1 09 0c
        E 17 b1 09 0c
        E 17 b1 09 0c
        E 17 b1 09 0b
        E 17 b1 09 0b
        E 17 b1 09 0b
        E 17 b1 09 0b
        E 17 b1 09 0b
        E 17 b1 09 0b
        E 17 b1 09 0a
        E 17 b1 09 0a
        E 17 b1 09 0a
        E 17 b1 09 0a
        E 17 b1 09 09
        E 17 b1 09 09
        E 17 b1 09 09
        E 17 b1 09 08
        E 17 b1 09 08
        E 17 b1 09 08
        E 17 b1 09 08
        E 17 b1 09 07
        E 17 b1 09 07
        E 17 b1 09 07
        E 17 b1 09 06
        E 17 b1 09 06
        E 17 b1 09 06
        E 17 b1 09 05
        E 17 b1 09 05
        E 17 b1 09 05
        E 17 b1 09 04
        E 17 b1 09 04
        E 17 b1 09 04
        E 17 b1 09 04
        E 17 b1 09 03
        E 17 b1 09 03
        E 17 b1 09 03
        E 17 b1 09 02
        E 17 b1 09 02
        E 17 b1 09 02
        E 17 b1 09 02
        E 17 b1 09 01
        E 17 b1 09 01
        E 17 b1 09 01
        E 17 b1 09 01
        E 17 b1 09 01
        E 17 b1 09 01
        E 17 b1 09 00
        E 17 b1 09 00
        E 17 b1 09 00
        E 17 b1 09 00
        E 17 b1 09 00
        E 17 b1 09 00
        E 17 b1 09 00
        E 17 b1 09 00
        E 17 b1 09 00
        E 17 b1 09 00
        E 17 b1 09 00
        E 17 b1 09 00
        E 17 b1 09 00
        E 17 b1 09 00
        E 17 b1 09 00
        E 17 b1 09 00
        E 17 b1 09 00
        E 17 b1 09 00
        E 17 b1 09 00
        E 17 b1 09 00
        E 17 b1 09 00
        E 17 b1 09 00
        E 17 b1 09 01
        E 17 b1 09 01
        E 17 b1 09 01
        E 17 b1 09 01
        E 17 b1 09 01
        E 17 b1 09 02
        E 17 b1 09 02
        E 17 b1 09 02
        E 17 b1 09 02
        E 17 b1 09 03
        E 17 b1 09 03
        E 17 b1 09 03
        E 17 b1 09 03
        E 17 b1 09 04
        E 17 b1 09 04
        E 17 b1 09 04
        E 17 b1 09 05
        E 17 b1 09 05
        E 17 b1 09 05
        E 17 b1 09 06
        E 17 b1 09 06
        E 15 b1 09 19
        E 15 b1 09 1a
        E 15 b1 09 1c
        E 15 b1 09 1d
        E 15 b1 09 1e
        E 15 b1 09 1f
        E 15 b1 09 20
        E 15 b1 09 22
        E 15 b1 09 23
        E 15 b1 09 24
        E 15 b1 09 25
        E 15 b1 09 26
        E 15 b1 09 27
        E 15 b1 09 28
        E 15 b1 09 29
        E 15 b1 09 2a
        E 15 b1 09 2b
        E 15 b1 09 2c
        E 15 b1 09 2d
        E 15 b1 09 2e
        E 15 b1 09 2e
        E 15 b1 09 2f
        E 15 b1 09 30
        E 15 b1 09 30
        E 15 b1 09 30
        E 15 b1 09 31
        E 15 b1 09 31
        E 15 b1 09 32
        E 15 b1 09 32
        E 15 b1 09 32
        E 15 b1 09 32
        E 15 b1 09 32
        E 15 b1 09 32
        E 15 b1 09 32
        E 15 b1 09 32
        E 15 b1 09 32
        E 15 b1 09 32
        E 15 b1 09 32
        E 15 b1 09 31
        E 15 b1 09 31
        E 15 b1 09 30
        E 15 b1 09 30
        E 15 b1 09 2f
        E 15 b1 09 2e
        E 15 b1 09 2e
        E 15 b1 09 2d
        E 15 b1 09 2c
        E 15 b1 09 2c
        E 15 b1 09 2b
        E 15 b1 09 2a
        E 15 b1 09 29
        E 15 b1 09 28
        E 15 b1 09 27
        E 15 b1 09 26
        E 15 b1 09 24
        E 15 b1 09 23
        E 15 b1 09 22
        E 15 b1 09 21
        E 15 b1 09 20
        E 15 b1 09 1f
        E 15 b1 09 1d
        E 15 b1 09 1c
        E 15 b1 09 1b
        E 15 b1 09 1a
        E 15 b1 09 18
        E 15 b1 09 17
        E 15 b1 09 16
        E 15 b1 09 15
        E 15 b1 09 13
        E 15 b1 09 12
        E 15 b1 09 11
        E 15 b1 09 10
        E 15 b1 09 0f
        E 15 b1 09 0e
        E 15 b1 09 0c
        E 15 b1 09 0b
        E 15 b1 09 0a
        E 15 b1 09 09
        E 15 b1 09 08
        E 15 b1 09 07
        E 15 b1 09 06
        E 15 b1 09 06
        E 15 b1 09 05
        E 15 b1 09 04
        E 15 b1 09 04
        E 15 b1 09 03
        E 15 b1 09 02
        E 15 b1 09 02
        E 15 b1 09 01
        E 15 b1 09 01
        E 15 b1 09 00
        E 15 b1 09 00
        E 15 b1 09 00
        E 15 b1 09 00
        E 15 b1 09 00
        E 15 b1 09 00
        E 15 b1 09 00
        E 15 b1 09 00
        E 15 b1 09 00
        E 15 b1 09 00
        E 15 b1 09 00
        E 15 b1 09 01
        E 15 b1 09 01
        E 15 b1 09 02
        E 15 b1 09 02
        E 15 b1 09 02
        E 15 b1 09 03
        E 15 b1 09 04
        E 15 b1 09 04
        E 15 b1 09 05
        E 15 b1 09 06
        E 15 b1 09 07
        E 15 b1 09 08
        E 15 b1 09 09
        E 15 b1 09 0a
        E 15 b1 09 0b
        E 15 b1 09 0c
        E 15 b1 09 0d
        E 15 b1 09 0e
        E 15 b1 09 0f
        E 15 b1 09 10
        E 15 b1 09 12
        E 15 b1 09 13
        E 15 b1 09 14
        E 15 b1 09 15
        E 15 b1 09 16
        E 15 b1 09 18
        E 15 b1 09 19
        E 8 b1 09 2c
        E 8 b1 09 2e
        E 8 b1 09 31
        E 8 b1 09 33
        E 8 b1 09 35
        E 8 b1 09 37
        E 8 b1 09 39
        E 8 b1 09 3b
        E 8 b1 09 3d
        E 8 b1 09 3f
        E 8 b1 09 41
        E 8 b1 09 43
        E 8 b1 09 45
        E 8 b1 09 47
        E 8 b1 09 48
        E 8 b1 09 4a
        E 8 b1 09 4c
        E 8 b1 09 4d
        E 8 b1 09 4f
        E 8 b1 09 50
        E 8 b1 09 51
        E 8 b1 09 52
        E 8 b1 09 54
        E 8 b1 09 54
        E 8 b1 09 55
        E 8 b1 09 56
        E 8 b1 09 56
        E 8 b1 09 57
        E 8 b1 09 58
        E 8 b1 09 58
        E 8 b1 09 58
        E 8 b1 09 58
        E 8 b1 09 58
        E 8 b1 09 58
        E 8 b1 09 58
        E 8 b1 09 58
        E 8 b1 09 58
        E 8 b1 09 57
        E 8 b1 09 56
        E 8 b1 09 56
        E 8 b1 09 55
        E 8 b1 09 54
        E 8 b1 09 53
        E 8 b1 09 51
        E 8 b1 09 51
        E 8 b1 09 4f
        E 8 b1 09 4e
        E 8 b1 09 4d
        E 8 b1 09 4b
        E 8 b1 09 49
        E 8 b1 09 48
        E 8 b1 09 46
        E 8 b1 09 44
        E 8 b1 09 42
        E 8 b1 09 40
        E 8 b1 09 3e
        E 8 b1 09 3c
        E 8 b1 09 3a
        E 8 b1 09 38
        E 8 b1 09 36
        E 8 b1 09 33
        E 8 b1 09 31
        E 8 b1 09 2f
        E 8 b1 09 2d
        E 8 b1 09 2b
        E 8 b1 09 29
        E 8 b1 09 27
        E 8 b1 09 25
        E 8 b1 09 22
        E 8 b1 09 20
        E 8 b1 09 1e
        E 8 b1 09 1c
        E 8 b1 09 1a
        E 8 b1 09 18
        E 8 b1 09 16
        E 8 b1 09 14
        E 8 b1 09 12
        E 8 b1 09 10
        E 8 b1 09 0f
        E 8 b1 09 0d
        E 8 b1 09 0b
        E 8 b1 09 0a
        E 8 b1 09 09
        E 8 b1 09 07
        E 8 b1 09 07
        E 8 b1 09 05
        E 8 b1 09 04
        E 8 b1 09 03
        E 8 b1 09 02
        E 8 b1 09 02
        E 8 b1 09 01
        E 8 b1 09 00
        E 8 b1 09 00
        E 8 b1 09 00
        E 8 b1 09 00
        E 8 b1 09 00
        E 8 b1 09 00
        E 8 b1 09 00
        E 8 b1 09 00
        E 8 b1 09 00
        E 8 b1 09 01
        E 8 b1 09 02
        E 8 b1 09 02
        E 8 b1 09 03
        E 8 b1 09 04
        E 8 b1 09 04
        E 8 b1 09 06
        E 8 b1 09 07
        E 8 b1 09 08
        E 8 b1 09 09
        E 8 b1 09 0b
        E 8 b1 09 0c
        E 8 b1 09 0e
        E 8 b1 09 10
        E 8 b1 09 11
        E 8 b1 09 13
        E 8 b1 09 15
        E 8 b1 09 17
        E 8 b1 09 19
        E 8 b1 09 1b
        E 8 b1 09 1d
        E 8 b1 09 1f
        E 8 b1 09 21
        E 8 b1 09 23
        E 8 b1 09 25
        E 8 b1 09 27
        E 8 b1 09 2a
        E 8 b1 09 2c
        E 8 b1 09 20
        E 8 b1 09 21
        E 8 b1 09 23
        E 8 b1 09 24
        E 8 b1 09 26
        E 8 b1 09 27
        E 8 b1 09 29
        E 8 b1 09 2a
        E 8 b1 09 2c
        E 8 b1 09 2d
        E 8 b1 09 2f
        E 8 b1 09 30
        E 8 b1 09 31
        E 8 b1 09 33
        E 8 b1 09 34
        E 8 b1 09 35
        E 8 b1 09 36
        E 8 b1 09 37
        E 8 b1 09 38
        E 8 b1 09 39
        E 8 b1 09 3a
        E 8 b1 09 3b
        E 8 b1 09 3c
        E 8 b1 09 3c
        E 8 b1 09 3d
        E 8 b1 09 3d
        E 8 b1 09 3e
        E 8 b1 09 3e
        E 8 b1 09 3f
        E 8 b1 09 3f
        E 8 b1 09 3f
        E 8 b1 09 3f
        E 8 b1 09 3f
        E 8 b1 09 3f
        E 8 b1 09 3f
        E 8 b1 09 3f
        E 8 b1 09 3f
        E 8 b1 09 3e
        E 8 b1 09 3e
        E 8 b1 09 3d
        E 8 b1 09 3d
        E 8 b1 09 3c
        E 8 b1 09 3b
        E 8 b1 09 3a
        E 8 b1 09 3a
        E 8 b1 09 39
        E 8 b1 09 38
        E 8 b1 09 37
        E 8 b1 09 36
        E 8 b1 09 34
        E 8 b1 09 33
        E 8 b1 09 32
        E 8 b1 09 31
        E 8 b1 09 2f
        E 8 b1 09 2e
        E 8 b1 09 2c
        E 8 b1 09 2b
        E 8 b1 09 2a
        E 8 b1 09 28
        E 8 b1 09 27
        E 8 b1 09 25
        E 8 b1 09 23
        E 8 b1 09 22
        E 8 b1 09 20
        E 8 b1 09 1f
        E 8 b1 09 1d
        E 8 b1 09 1c
        E 8 b1 09 1a
        E 8 b1 09 18
        E 8 b1 09 17
        E 8 b1 09 15
        E 8 b1 09 14
        E 8 b1 09 13
        E 8 b1 09 11
        E 8 b1 09 10
        E 8 b1 09 0e
        E 8 b1 09 0d
        E 8 b1 09 0c
        E 8 b1 09 0b
        E 8 b1 09 09
        E 8 b1 09 08
        E 8 b1 09 07
        E 8 b1 09 06
        E 8 b1 09 05
        E 8 b1 09 05
        E 8 b1 09 04
        E 8 b1 09 03
        E 8 b1 09 02
        E 8 b1 09 02
        E 8 b1 09 01
        E 8 b1 09 01
        E 8 b1 09 00
        E 8 b1 09 00
        E 8 b1 09 00
        E 8 b1 09 00
        E 8 b1 09 00
        E 8 b1 09 00
        E 8 b1 09 00
        E 8 b1 09 00
        E 8 b1 09 00
        E 8 b1 09 01
        E 8 b1 09 01
        E 8 b1 09 02
        E 8 b1 09 02
        E 8 b1 09 03
        E 8 b1 09 03
        E 8 b1 09 04
        E 8 b1 09 05
        E 8 b1 09 06
        E 8 b1 09 07
        E 8 b1 09 08
        E 8 b1 09 09
        E 8 b1 09 0a
        E 8 b1 09 0b
        E 8 b1 09 0c
        E 8 b1 09 0e
        E 8 b1 09 0f
        E 8 b1 09 10
        E 8 b1 09 12
        E 8 b1 09 13
        E 8 b1 09 15
        E 8 b1 09 16
        E 8 b1 09 18
        E 8 b1 09 19
        E 8 b1 09 1b
        E 8 b1 09 1c
        E 8 b1 09 1e
        E 8 b1 09 20
        E 11 b1 09 20
        E 11 b1 09 21
        E 11 b1 09 23
        E 11 b1 09 24
        E 11 b1 09 26
        E 11 b1 09 27
        E 11 b1 09 29
        E 11 b1 09 2a
        E 11 b1 09 2c
        E 11 b1 09 2d
        E 11 b1 09 2f
        E 11 b1 09 30
        E 11 b1 09 31
        E 11 b1 09 33
        E 11 b1 09 34
        E 11 b1 09 35
        E 11 b1 09 36
        E 11 b1 09 37
        E 11 b1 09 38
        E 11 b1 09 39
        E 11 b1 09 3a
        E 11 b1 09 3b
        E 11 b1 09 3c
        E 11 b1 09 3c
        E 11 b1 09 3d
        E 11 b1 09 3d
        E 11 b1 09 3e
        E 11 b1 09 3e
        E 11 b1 09 3f
        E 11 b1 09 3f
        E 11 b1 09 3f
        E 11 b1 09 3f
        E 11 b1 09 3f
        E 11 b1 09 3f
        E 11 b1 09 3f
        E 11 b1 09 3f
        E 11 b1 09 3f
        E 11 b1 09 3e
        E 11 b1 09 3e
        E 11 b1 09 3d
        E 11 b1 09 3d
        E 11 b1 09 3c
        E 11 b1 09 3b
        E 11 b1 09 3a
        E 11 b1 09 3a
        E 11 b1 09 39
        E 11 b1 09 38
        E 11 b1 09 37
        E 11 b1 09 36
        E 11 b1 09 34
        E 11 b1 09 33
        E 11 b1 09 32
        E 11 b1 09 31
        E 11 b1 09 2f
        E 11 b1 09 2e
        E 11 b1 09 2c
        E 11 b1 09 2b
        E 11 b1 09 2a
        E 11 b1 09 28
        E 11 b1 09 27
        E 11 b1 09 25
        E 11 b1 09 23
        E 11 b1 09 22
        E 11 b1 09 20
        E 11 b1 09 1f
        E 11 b1 09 1d
        E 11 b1 09 1c
        E 11 b1 09 1a
        E 11 b1 09 18
        E 11 b1 09 17
        E 11 b1 09 15
        E 11 b1 09 14
        E 11 b1 09 13
        E 11 b1 09 11
        E 11 b1 09 10
        E 11 b1 09 0e
        E 11 b1 09 0d
        E 11 b1 09 0c
        E 11 b1 09 0b
        E 11 b1 09 09
        E 11 b1 09 08
        E 11 b1 09 07
        E 11 b1 09 06
        E 11 b1 09 05
        E 11 b1 09 05
        E 11 b1 09 04
        E 11 b1 09 03
        E 11 b1 09 02
        E 11 b1 09 02
        E 11 b1 09 01
        E 11 b1 09 01
        E 11 b1 09 00
        E 11 b1 09 00
        E 11 b1 09 00
        E 11 b1 09 00
        E 11 b1 09 00
        E 11 b1 09 00
        E 11 b1 09 00
        E 11 b1 09 00
        E 11 b1 09 00
        E 11 b1 09 01
        E 11 b1 09 01
        E 11 b1 09 02
        E 11 b1 09 02
        E 11 b1 09 03
        E 11 b1 09 03
        E 11 b1 09 04
        E 11 b1 09 05
        E 11 b1 09 06
        E 11 b1 09 07
        E 11 b1 09 08
        E 11 b1 09 09
        E 11 b1 09 0a
        E 11 b1 09 0b
        E 11 b1 09 0c
        E 11 b1 09 0e
        E 11 b1 09 0f
        E 11 b1 09 10
        E 11 b1 09 12
        E 11 b1 09 13
        E 11 b1 09 15
        E 11 b1 09 16
        E 11 b1 09 18
        E 11 b1 09 19
        E 11 b1 09 1b
        E 11 b1 09 1c
        E 11 b1 09 1e
        E 11 b1 09 20
        E 13 b1 09 40
        E 13 b1 09 43
        E 13 b1 09 46
        E 13 b1 09 49
        E 13 b1 09 4c
        E 13 b1 09 4f
        E 13 b1 09 52
        E 13 b1 09 55
        E 13 b1 09 58
        E 13 b1 09 5b
        E 13 b1 09 5e
        E 13 b1 09 60
        E 13 b1 09 63
        E 13 b1 09 66
        E 13 b1 09 68
        E 13 b1 09 6a
        E 13 b1 09 6d
        E 13 b1 09 6f
        E 13 b1 09 71
        E 13 b1 09 73
        E 13 b1 09 75
        E 13 b1 09 76
        E 13 b1 09 78
        E 13 b1 09 79
        E 13 b1 09 7a
        E 13 b1 09 7b
        E 13 b1 09 7c
        E 13 b1 09 7d
        E 13 b1 09 7e
        E 13 b1 09 7e
        E 13 b1 09 7f
        E 13 b1 09 7f
        E 13 b1 09 7f
        E 13 b1 09 7f
        E 13 b1 09 7f
        E 13 b1 09 7e
        E 13 b1 09 7e
        E 13 b1 09 7d
        E 13 b1 09 7c
        E 13 b1 09 7b
        E 13 b1 09 7a
        E 13 b1 09 78
        E 13 b1 09 77
        E 13 b1 09 75
        E 13 b1 09 74
        E 13 b1 09 72
        E 13 b1 09 70
        E 13 b1 09 6e
        E 13 b1 09 6c
        E 13 b1 09 69
        E 13 b1 09 67
        E 13 b1 09 64
        E 13 b1 09 62
        E 13 b1 09 5f
        E 13 b1 09 5c
        E 13 b1 09 59
        E 13 b1 09 57
        E 13 b1 09 54
        E 13 b1 09 51
        E 13 b1 09 4e
        E 13 b1 09 4a
        E 13 b1 09 47
        E 13 b1 09 44
        E 13 b1 09 41
        E 13 b1 09 3e
        E 13 b1 09 3b
        E 13 b1 09 38
        E 13 b1 09 35
        E 13 b1 09 31
        E 13 b1 09 2e
        E 13 b1 09 2b
        E 13 b1 09 28
        E 13 b1 09 26
        E 13 b1 09 23
        E 13 b1 09 20
        E 13 b1 09 1d
        E 13 b1 09 1b
        E 13 b1 09 18
        E 13 b1 09 16
        E 13 b1 09 13
        E 13 b1 09 11
        E 13 b1 09 0f
        E 13 b1 09 0d
        E 13 b1 09 0b
        E 13 b1 09 0a
        E 13 b1 09 08
        E 13 b1 09 07
        E 13 b1 09 05
        E 13 b1 09 04
        E 13 b1 09 03
        E 13 b1 09 02
        E 13 b1 09 01
        E 13 b1 09 01
        E 13 b1 09 00
        E 13 b1 09 00
        E 13 b1 09 00
        E 13 b1 09 00
        E 13 b1 09 00
        E 13 b1 09 01
        E 13 b1 09 01
        E 13 b1 09 02
        E 13 b1 09 03
        E 13 b1 09 04
        E 13 b1 09 05
        E 13 b1 09 06
        E 13 b1 09 07
        E 13 b1 09 09
        E 13 b1 09 0a
        E 13 b1 09 0c
        E 13 b1 09 0e
        E 13 b1 09 10
        E 13 b1 09 12
        E 13 b1 09 15
        E 13 b1 09 17
        E 13 b1 09 19
        E 13 b1 09 1c
        E 13 b1 09 1f
        E 13 b1 09 21
        E 13 b1 09 24
        E 13 b1 09 27
        E 13 b1 09 2a
        E 13 b1 09 2d
        E 13 b1 09 30
        E 13 b1 09 33
        E 13 b1 09 36
        E 13 b1 09 39
        E 13 b1 09 3c
        E 13 b1 09 40
        E 11 b1 09 39
        E 11 b1 09 3c
        E 11 b1 09 3f
        E 11 b1 09 41
        E 11 b1 09 44
        E 11 b1 09 47
        E 11 b1 09 49
        E 11 b1 09 4c
        E 11 b1 09 4f
        E 11 b1 09 51
        E 11 b1 09 54
        E 11 b1 09 56
        E 11 b1 09 59
        E 11 b1 09 5b
        E 11 b1 09 5d
        E 11 b1 09 5f
        E 11 b1 09 62
        E 11 b1 09 63
        E 11 b1 09 65
        E 11 b1 09 67
        E 11 b1 09 69
        E 11 b1 09 6a
        E 11 b1 09 6c
        E 11 b1 09 6c
        E 11 b1 09 6d
        E 11 b1 09 6e
        E 11 b1 09 6f
        E 11 b1 09 70
        E 11 b1 09 71
        E 11 b1 09 71
        E 11 b1 09 72
        E 11 b1 09 72
        E 11 b1 09 72
        E 11 b1 09 72
        E 11 b1 09 72
        E 11 b1 09 71
        E 11 b1 09 71
        E 11 b1 09 70
        E 11 b1 09 6f
        E 11 b1 09 6e
        E 11 b1 09 6d
        E 11 b1 09 6c
        E 11 b1 09 6b
        E 11 b1 09 69
        E 11 b1 09 68
        E 11 b1 09 66
        E 11 b1 09 64
        E 11 b1 09 63
        E 11 b1 09 61
        E 11 b1 09 5e
        E 11 b1 09 5c
        E 11 b1 09 5a
        E 11 b1 09 58
        E 11 b1 09 55
        E 11 b1 09 52
        E 11 b1 09 50
        E 11 b1 09 4e
        E 11 b1 09 4b
        E 11 b1 09 48
        E 11 b1 09 46
        E 11 b1 09 42
        E 11 b1 09 3f
        E 11 b1 09 3d
        E 11 b1 09 3a
        E 11 b1 09 37
        E 11 b1 09 35
        E 11 b1 09 32
        E 11 b1 09 2f
        E 11 b1 09 2c
        E 11 b1 09 29
        E 11 b1 09 26
        E 11 b1 09 24
        E 11 b1 09 22
        E 11 b1 09 1f
        E 11 b1 09 1c
        E 11 b1 09 1a
        E 11 b1 09 18
        E 11 b1 09 15
        E 11 b1 09 13
        E 11 b1 09 11
        E 11 b1 09 0f
        E 11 b1 09 0d
        E 11 b1 09 0b
        E 11 b1 09 09
        E 11 b1 09 09
        E 11 b1 09 07
        E 11 b1 09 06
        E 11 b1 09 04
        E 11 b1 09 03
        E 11 b1 09 02
        E 11 b1 09 01
        E 11 b1 09 00
        E 11 b1 09 00
        E 11 b1 09 00
        E 11 b1 09 00
        E 11 b1 09 00
        E 11 b1 09 00
        E 11 b1 09 00
        E 11 b1 09 00
        E 11 b1 09 00
        E 11 b1 09 01
        E 11 b1 09 02
        E 11 b1 09 03
        E 11 b1 09 04
        E 11 b1 09 05
        E 11 b1 09 06
        E 11 b1 09 08
        E 11 b1 09 09
        E 11 b1 09 0a
        E 11 b1 09 0c
        E 11 b1 09 0e
        E 11 b1 09 10
        E 11 b1 09 12
        E 11 b1 09 14
        E 11 b1 09 16
        E 11 b1 09 19
        E 11 b1 09 1b
        E 11 b1 09 1d
        E 11 b1 09 20
        E 11 b1 09 23
        E 11 b1 09 25
        E 11 b1 09 28
        E 11 b1 09 2b
        E 11 b1 09 2d
        E 11 b1 09 30
        E 11 b1 09 33
        E 11 b1 09 36
        E 11 b1 09 39
        E 8 b1 09 20
        E 8 b1 09 21
        E 8 b1 09 23
        E 8 b1 09 24
        E 8 b1 09 26
        E 8 b1 09 27
        E 8 b1 09 29
        E 8 b1 09 2a
        E 8 b1 09 2c
        E 8 b1 09 2d
        E 8 b1 09 2f
        E 8 b1 09 30
        E 8 b1 09 31
        E 8 b1 09 33
        E 8 b1 09 34
        E 8 b1 09 35
        E 8 b1 09 36
        E 8 b1 09 37
        E 8 b1 09 38
        E 8 b1 09 39
        E 8 b1 09 3a
        E 8 b1 09 3b
        E 8 b1 09 3c
        E 8 b1 09 3c
        E 8 b1 09 3d
        E 8 b1 09 3d
        E 8 b1 09 3e
        E 8 b1 09 3e
        E 8 b1 09 3f
        E 8 b1 09 3f
        E 8 b1 09 3f
        E 8 b1 09 3f
        E 8 b1 09 3f
        E 8 b1 09 3f
        E 8 b1 09 3f
        E 8 b1 09 3f
        E 8 b1 09 3f
        E 8 b1 09 3e
        E 8 b1 09 3e
        E 8 b1 09 3d
        E 8 b1 09 3d
        E 8 b1 09 3c
        E 8 b1 09 3b
        E 8 b1 09 3a
        E 8 b1 09 3a
        E 8 b1 09 39
        E 8 b1 09 38
        E 8 b1 09 37
        E 8 b1 09 36
        E 8 b1 09 34
        E 8 b1 09 33
        E 8 b1 09 32
        E 8 b1 09 31
        E 8 b1 09 2f
        E 8 b1 09 2e
        E 8 b1 09 2c
        E 8 b1 09 2b
        E 8 b1 09 2a
        E 8 b1 09 28
        E 8 b1 09 27
        E 8 b1 09 25
        E 8 b1 09 23
        E 8 b1 09 22
        E 8 b1 09 20
        E 8 b1 09 1f
        E 8 b1 09 1d
        E 8 b1 09 1c
        E 8 b1 09 1a
        E 8 b1 09 18
        E 8 b1 09 17
        E 8 b1 09 15
        E 8 b1 09 14
        E 8 b1 09 13
        E 8 b1 09 11
        E 8 b1 09 10
        E 8 b1 09 0e
        E 8 b1 09 0d
        E 8 b1 09 0c
        E 8 b1 09 0b
        E 8 b1 09 09
        E 8 b1 09 08
        E 8 b1 09 07
        E 8 b1 09 06
        E 8 b1 09 05
        E 8 b1 09 05
        E 8 b1 09 04
        E 8 b1 09 03
        E 8 b1 09 02
        E 8 b1 09 02
        E 8 b1 09 01
        E 8 b1 09 01
        E 8 b1 09 00
        E 8 b1 09 00
        E 8 b1 09 00
        E 8 b1 09 00
        E 8 b1 09 00
        E 8 b1 09 00
        E 8 b1 09 00
        E 8 b1 09 00
        E 8 b1 09 00
        E 8 b1 09 01
        E 8 b1 09 01
        E 8 b1 09 02
        E 8 b1 09 02
        E 8 b1 09 03
        E 8 b1 09 03
        E 8 b1 09 04
        E 8 b1 09 05
        E 8 b1 09 06
        E 8 b1 09 07
        E 8 b1 09 08
        E 8 b1 09 09
        E 8 b1 09 0a
        E 8 b1 09 0b
        E 8 b1 09 0c
        E 8 b1 09 0e
        E 8 b1 09 0f
        E 8 b1 09 10
        E 8 b1 09 12
        E 8 b1 09 13
        E 8 b1 09 15
        E 8 b1 09 16
        E 8 b1 09 18
        E 8 b1 09 19
        E 8 b1 09 1b
        E 8 b1 09 1c
        E 8 b1 09 1e
        E 8 b1 09 20
        E 8 b1 09 20
        E 8 b1 09 21
        E 8 b1 09 23
        E 8 b1 09 24
        E 8 b1 09 26
        E 8 b1 09 27
        E 8 b1 09 29
        E 8 b1 09 2a
        E 8 b1 09 2c
        E 8 b1 09 2d
        E 8 b1 09 2f
        E 8 b1 09 30
        E 8 b1 09 31
        E 8 b1 09 33
        E 8 b1 09 34
        E 8 b1 09 35
        E 8 b1 09 36
        E 8 b1 09 37
        E 8 b1 09 38
        E 8 b1 09 39
        E 8 b1 09 3a
        E 8 b1 09 3b
        E 8 b1 09 3c
        E 8 b1 09 3c
        E 8 b1 09 3d
        E 8 b1 09 3d
        E 8 b1 09 3e
        E 8 b1 09 3e
        E 8 b1 09 3f
        E 8 b1 09 3f
        E 8 b1 09 3f
        E 8 b1 09 3f
        E 8 b1 09 3f
        E 8 b1 09 3f
        E 8 b1 09 3f
        E 8 b1 09 3f
        E 8 b1 09 3f
        E 8 b1 09 3e
        E 8 b1 09 3e
        E 8 b1 09 3d
        E 8 b1 09 3d
        E 8 b1 09 3c
        E 8 b1 09 3b
        E 8 b1 09 3a
        E 8 b1 09 3a
        E 8 b1 09 39
        E 8 b1 09 38
        E 8 b1 09 37
        E 8 b1 09 36
        E 8 b1 09 34
        E 8 b1 09 33
        E 8 b1 09 32
        E 8 b1 09 31
        E 8 b1 09 2f
        E 8 b1 09 2e
        E 8 b1 09 2c
        E 8 b1 09 2b
        E 8 b1 09 2a
        E 8 b1 09 28
        E 8 b1 09 27
        E 8 b1 09 25
        E 8 b1 09 23
        E 8 b1 09 22
        E 8 b1 09 20
        E 8 b1 09 1f
        E 8 b1 09 1d
        E 8 b1 09 1c
        E 8 b1 09 1a
        E 8 b1 09 18
        E 8 b1 09 17
        E 8 b1 09 15
        E 8 b1 09 14
        E 8 b1 09 13
        E 8 b1 09 11
        E 8 b1 09 10
        E 8 b1 09 0e
        E 8 b1 09 0d
        E 8 b1 09 0c
        E 8 b1 09 0b
        E 8 b1 09 09
        E 8 b1 09 08
        E 8 b1 09 07
        E 8 b1 09 06
        E 8 b1 09 05
        E 8 b1 09 05
        E 8 b1 09 04
        E 8 b1 09 03
        E 8 b1 09 02
        E 8 b1 09 02
        E 8 b1 09 01
        E 8 b1 09 01
        E 8 b1 09 00
        E 8 b1 09 00
        E 8 b1 09 00
        E 8 b1 09 00
        E 8 b1 09 00
        E 8 b1 09 00
        E 8 b1 09 00
        E 8 b1 09 00
        E 8 b1 09 00
        E 8 b1 09 01
        E 8 b1 09 01
        E 8 b1 09 02
        E 8 b1 09 02
        E 8 b1 09 03
        E 8 b1 09 03
        E 8 b1 09 04
        E 8 b1 09 05
        E 8 b1 09 06
        E 8 b1 09 07
        E 8 b1 09 08
        E 8 b1 09 09
        E 8 b1 09 0a
        E 8 b1 09 0b
        E 8 b1 09 0c
        E 8 b1 09 0e
        E 8 b1 09 0f
        E 8 b1 09 10
        E 8 b1 09 12
        E 8 b1 09 13
        E 8 b1 09 15
        E 8 b1 09 16
        E 8 b1 09 18
        E 8 b1 09 19
        E 8 b1 09 1b
        E 8 b1 09 1c
        E 8 b1 09 1e
        E 8 b1 09 20
        E 17 b1 09 2c
        E 17 b1 09 2e
        E 17 b1 09 31
        E 17 b1 09 33
        E 17 b1 09 35
        E 17 b1 09 37
        E 17 b1 09 39
        E 17 b1 09 3b
        E 17 b1 09 3d
        E 17 b1 09 3f
        E 17 b1 09 41
        E 17 b1 09 43
        E 17 b1 09 45
        E 17 b1 09 47
        E 17 b1 09 48
        E 17 b1 09 4a
        E 17 b1 09 4c
        E 17 b1 09 4d
        E 17 b1 09 4f
        E 17 b1 09 50
        E 17 b1 09 51
        E 17 b1 09 52
        E 17 b1 09 54
        E 17 b1 09 54
        E 17 b1 09 55
        E 17 b1 09 56
        E 17 b1 09 56
        E 17 b1 09 57
        E 17 b1 09 58
        E 17 b1 09 58
        E 17 b1 09 58
        E 17 b1 09 58
        E 17 b1 09 58
        E 17 b1 09 58
        E 17 b1 09 58
        E 17 b1 09 58
        E 17 b1 09 58
        E 17 b1 09 57
        E 17 b1 09 56
        E 17 b1 09 56
        E 17 b1 09 55
        E 17 b1 09 54
        E 17 b1 09 53
        E 17 b1 09 51
        E 17 b1 09 51
        E 17 b1 09 4f
        E 17 b1 09 4e
        E 17 b1 09 4d
        E 17 b1 09 4b
        E 17 b1 09 49
        E 17 b1 09 48
        E 17 b1 09 46
        E 17 b1 09 44
        E 17 b1 09 42
        E 17 b1 09 40
        E 17 b1 09 3e
        E 17 b1 09 3c
        E 17 b1 09 3a
        E 17 b1 09 38
        E 17 b1 09 36
        E 17 b1 09 33
        E 17 b1 09 31
        E 17 b1 09 2f
        E 17 b1 09 2d
        E 17 b1 09 2b
        E 17 b1 09 29
        E 17 b1 09 27
        E 17 b1 09 25
        E 17 b1 09 22
        E 17 b1 09 20
        E 17 b1 09 1e
        E 17 b1 09 1c
        E 17 b1 09 1a
        E 17 b1 09 18
        E 17 b1 09 16
        E 17 b1 09 14
        E 17 b1 09 12
        E 17 b1 09 10
        E 17 b1 09 0f
        E 17 b1 09 0d
        E 17 b1 09 0b
        E 17 b1 09 0a
        E 17 b1 09 09
        E 17 b1 09 07
        E 17 b1 09 07
        E 17 b1 09 05
        E 17 b1 09 04
        E 17 b1 09 03
        E 17 b1 09 02
        E 17 b1 09 02
        E 17 b1 09 01
        E 17 b1 09 00
        E 17 b1 09 00
        E 17 b1 09 00
        E 17 b1 09 00
        E 17 b1 09 00
        E 17 b1 09 00
        E 17 b1 09 00
        E 17 b1 09 00
        E 17 b1 09 00
        E 17 b1 09 01
        E 17 b1 09 02
        E 17 b1 09 02
        E 17 b1 09 03
        E 17 b1 09 04
        E 17 b1 09 04
        E 17 b1 09 06
        E 17 b1 09 07
        E 17 b1 09 08
        E 17 b1 09 09
        E 17 b1 09 0b
        E 17 b1 09 0c
        E 17 b1 09 0e
        E 17 b1 09 10
        E 17 b1 09 11
        E 17 b1 09 13
        E 17 b1 09 15
        E 17 b1 09 17
        E 17 b1 09 19
        E 17 b1 09 1b
        E 17 b1 09 1d
        E 17 b1 09 1f
        E 17 b1 09 21
        E 17 b1 09 23
        E 17 b1 09 25
        E 17 b1 09 27
        E 17 b1 09 2a
        E 17 b1 09 2c
        E 15 b1 09 33
        E 15 b1 09 35
        E 15 b1 09 37
        E 15 b1 09 3a
        E 15 b1 09 3c
        E 15 b1 09 3f
        E 15 b1 09 41
        E 15 b1 09 44
        E 15 b1 09 46
        E 15 b1 09 48
        E 15 b1 09 4b
        E 15 b1 09 4c
        E 15 b1 09 4f
        E 15 b1 09 51
        E 15 b1 09 53
        E 15 b1 09 54
        E 15 b1 09 57
        E 15 b1 09 58
        E 15 b1 09 5a
        E 15 b1 09 5b
        E 15 b1 09 5d
        E 15 b1 09 5e
        E 15 b1 09 5f
        E 15 b1 09 60
        E 15 b1 09 61
        E 15 b1 09 62
        E 15 b1 09 63
        E 15 b1 09 63
        E 15 b1 09 64
        E 15 b1 09 64
        E 15 b1 09 65
        E 15 b1 09 65
        E 15 b1 09 65
        E 15 b1 09 65
        E 15 b1 09 65
        E 15 b1 09 64
        E 15 b1 09 64
        E 15 b1 09 63
        E 15 b1 09 63
        E 15 b1 09 62
        E 15 b1 09 61
        E 15 b1 09 5f
        E 15 b1 09 5f
        E 15 b1 09 5d
        E 15 b1 09 5c
        E 15 b1 09 5b
        E 15 b1 09 59
        E 15 b1 09 57
        E 15 b1 09 56
        E 15 b1 09 54
        E 15 b1 09 52
        E 15 b1 09 50
        E 15 b1 09 4e
        E 15 b1 09 4c
        E 15 b1 09 49
        E 15 b1 09 47
        E 15 b1 09 45
        E 15 b1 09 43
        E 15 b1 09 40
        E 15 b1 09 3e
        E 15 b1 09 3b
        E 15 b1 09 38
        E 15 b1 09 36
        E 15 b1 09 33
        E 15 b1 09 31
        E 15 b1 09 2f
        E 15 b1 09 2c
        E 15 b1 09 2a
        E 15 b1 09 27
        E 15 b1 09 24
        E 15 b1 09 22
        E 15 b1 09 1f
        E 15 b1 09 1e
        E 15 b1 09 1b
        E 15 b1 09 19
        E 15 b1 09 17
        E 15 b1 09 15
        E 15 b1 09 13
        E 15 b1 09 11
        E 15 b1 09 0f
        E 15 b1 09 0d
        E 15 b1 09 0b
        E 15 b1 09 0a
        E 15 b1 09 08
        E 15 b1 09 07
        E 15 b1 09 06
        E 15 b1 09 05
        E 15 b1 09 03
        E 15 b1 09 03
        E 15 b1 09 02
        E 15 b1 09 01
        E 15 b1 09 00
        E 15 b1 09 00
        E 15 b1 09 00
        E 15 b1 09 00
        E 15 b1 09 00
        E 15 b1 09 00
        E 15 b1 09 00
        E 15 b1 09 00
        E 15 b1 09 00
        E 15 b1 09 01
        E 15 b1 09 02
        E 15 b1 09 03
        E 15 b1 09 03
        E 15 b1 09 04
        E 15 b1 09 05
        E 15 b1 09 07
        E 15 b1 09 07
        E 15 b1 09 09
        E 15 b1 09 0b
        E 15 b1 09 0c
        E 15 b1 09 0e
        E 15 b1 09 10
        E 15 b1 09 12
        E 15 b1 09 14
        E 15 b1 09 16
        E 15 b1 09 18
        E 15 b1 09 1a
        E 15 b1 09 1c
        E 15 b1 09 1f
        E 15 b1 09 21
        E 15 b1 09 24
        E 15 b1 09 26
        E 15 b1 09 28
        E 15 b1 09 2b
        E 15 b1 09 2d
        E 15 b1 09 2f
        E 15 b1 09 33
        E 17 b1 09 06
        E 17 b1 09 06
        E 17 b1 09 07
        E 17 b1 09 07
        E 17 b1 09 07
        E 17 b1 09 07
        E 17 b1 09 08
        E 17 b1 09 08
        E 17 b1 09 08
        E 17 b1 09 09
        E 17 b1 09 09
        E 17 b1 09 09
        E 17 b1 09 09
        E 17 b1 09 0a
        E 17 b1 09 0a
        E 17 b1 09 0a
        E 17 b1 09 0a
        E 17 b1 09 0b
        E 17 b1 09 0b
        E 17 b1 09 0b
        E 17 b1 09 0b
        E 17 b1 09 0b
        E 17 b1 09 0c
        E 17 b1 09 0c
        E 17 b1 09 0c
        E 17 b1 09 0c
        E 17 b1 09 0c
        E 17 b1 09 0c
        E 17 b1 09 0c
        E 17 b1 09 0c
        E 17 b1 09 0c
        E 17 b1 09 0c
        E 17 b1 09 0c
        E 17 b1 09 0c
        E 17 b1 09 0c
        E 17 b1 09 0c
        E 17 b1 09 0c
        E 17 b1 09 0c
        E 17 b1 09 0c
        E 17 b1 09 0c
        E 17 b1 09 0c
        E 17 b1 09 0c
        E 17 b1 09 0b
        E 17 b1 09 0b
        E 17 b1 09 0b
        E 17 b1 09 0b
        E 17 b1 09 0b
        E 17 b1 09 0b
        E 17 b1 09 0a
        E 17 b1 09 0a
        E 17 b1 09 0a
        E 17 b1 09 0a
        E 17 b1 09 09
        E 17 b1 09 09
        E 17 b1 09 09
        E 17 b1 09 08
        E 17 b1 09 08
        E 17 b1 09 08
        E 17 b1 09 08
        E 17 b1 09 07
        E 17 b1 09 07
        E 17 b1 09 07
        E 17 b1 09 06
        E 17 b1 09 06
        E 17 b1 09 06
        E 17 b1 09 05
        E 17 b1 09 05
        E 17 b1 09 05
        E 17 b1 09 04
        E 17 b1 09 04
        E 17 b1 09 04
        E 17 b1 09 04
        E 17 b1 09 03
        E 17 b1 09 03
        E 17 b1 09 03
        E 17 b1 09 02
        E 17 b1 09 02
        E 17 b1 09 02
        E 17 b1 09 02
        E 17 b1 09 01
        E 17 b1 09 01
        E 17 b1 09 01
        E 17 b1 09 01
        E 17 b1 09 01
        E 17 b1 09 01
        E 17 b1 09 00
        E 17 b1 09 00
        E 17 b1 09 00
        E 17 b1 09 00
        E 17 b1 09 00
        E 17 b1 09 00
        E 17 b1 09 00
        E 17 b1 09 00
        E 17 b1 09 00
        E 17 b1 09 00
        E 17 b1 09 00
        E 17 b1 09 00
        E 17 b1 09 00
        E 17 b1 09 00
        E 17 b1 09 00
        E 17 b1 09 00
        E 17 b1 09 00
        E 17 b1 09 00
        E 17 b1 09 00
        E 17 b1 09 00
        E 17 b1 09 00
        E 17 b1 09 00
        E 17 b1 09 01
        E 17 b1 09 01
        E 17 b1 09 01
        E 17 b1 09 01
        E 17 b1 09 01
        E 17 b1 09 02
        E 17 b1 09 02
        E 17 b1 09 02
        E 17 b1 09 02
        E 17 b1 09 03
        E 17 b1 09 03
        E 17 b1 09 03
        E 17 b1 09 03
        E 17 b1 09 04
        E 17 b1 09 04
        E 17 b1 09 04
        E 17 b1 09 05
        E 17 b1 09 05
        E 17 b1 09 05
        E 17 b1 09 06
        E 17 b1 09 06
        E 15 b1 09 19
        E 15 b1 09 1a
        E 15 b1 09 1c
        E 15 b1 09 1d
        E 15 b1 09 1e
        E 15 b1 09 1f
        E 15 b1 09 20
        E 15 b1 09 22
        E 15 b1 09 23
        E 15 b1 09 24
        E 15 b1 09 25
        E 15 b1 09 26
        E 15 b1 09 27
        E 15 b1 09 28
        E 15 b1 09 29
        E 15 b1 09 2a
        E 15 b1 09 2b
        E 15 b1 09 2c
        E 15 b1 09 2d
        E 15 b1 09 2e
        E 15 b1 09 2e
        E 15 b1 09 2f
        E 15 b1 09 30
        E 15 b1 09 30
        E 15 b1 09 30
        E 15 b1 09 31
        E 15 b1 09 31
        E 15 b1 09 32
        E 15 b1 09 32
        E 15 b1 09 32
        E 15 b1 09 32
        E 15 b1 09 32
        E 15 b1 09 32
        E 15 b1 09 32
        E 15 b1 09 32
        E 15 b1 09 32
        E 15 b1 09 32
        E 15 b1 09 32
        E 15 b1 09 31
        E 15 b1 09 31
        E 15 b1 09 30
        E 15 b1 09 30
        E 15 b1 09 2f
        E 15 b1 09 2e
        E 15 b1 09 2e
        E 15 b1 09 2d
        E 15 b1 09 2c
        E 15 b1 09 2c
        E 15 b1 09 2b
        E 15 b1 09 2a
        E 15 b1 09 29
        E 15 b1 09 28
        E 15 b1 09 27
        E 15 b1 09 26
        E 15 b1 09 24
        E 15 b1 09 23
        E 15 b1 09 22
        E 15 b1 09 21
        E 15 b1 09 20
        E 15 b1 09 1f
        E 15 b1 09 1d
        E 15 b1 09 1c
        E 15 b1 09 1b
        E 15 b1 09 1a
        E 15 b1 09 18
        E 15 b1 09 17
        E 15 b1 09 16
        E 15 b1 09 15
        E 15 b1 09 13
        E 15 b1 09 12
        E 15 b1 09 11
        E 15 b1 09 10
        E 15 b1 09 0f
        E 15 b1 09 0e
        E 15 b1 09 0c
        E 15 b1 09 0b
        E 15 b1 09 0a
        E 15 b1 09 09
        E 15 b1 09 08
        E 15 b1 09 07
        E 15 b1 09 06
        E 15 b1 09 06
        E 15 b1 09 05
        E 15 b1 09 04
        E 15 b1 09 04
        E 15 b1 09 03
        E 15 b1 09 02
        E 15 b1 09 02
        E 15 b1 09 01
        E 15 b1 09 01
        E 15 b1 09 00
        E 15 b1 09 00
        E 15 b1 09 00
        E 15 b1 09 00
        E 15 b1 09 00
        E 15 b1 09 00
        E 15 b1 09 00
        E 15 b1 09 00
        E 15 b1 09 00
        E 15 b1 09 00
        E 15 b1 09 00
        E 15 b1 09 01
        E 15 b1 09 01
        E 15 b1 09 02
        E 15 b1 09 02
        E 15 b1 09 02
        E 15 b1 09 03
        E 15 b1 09 04
        E 15 b1 09 04
        E 15 b1 09 05
        E 15 b1 09 06
        E 15 b1 09 07
        E 15 b1 09 08
        E 15 b1 09 09
        E 15 b1 09 0a
        E 15 b1 09 0b
        E 15 b1 09 0c
        E 15 b1 09 0d
        E 15 b1 09 0e
        E 15 b1 09 0f
        E 15 b1 09 10
        E 15 b1 09 12
        E 15 b1 09 13
        E 15 b1 09 14
        E 15 b1 09 15
        E 15 b1 09 16
        E 15 b1 09 18
        E 15 b1 09 19
        E 8 b1 09 2c
        E 8 b1 09 2e
        E 8 b1 09 31
        E 8 b1 09 33
        E 8 b1 09 35
        E 8 b1 09 37
        E 8 b1 09 39
        E 8 b1 09 3b
        E 8 b1 09 3d
        E 8 b1 09 3f
        E 8 b1 09 41
        E 8 b1 09 43
        E 8 b1 09 45
        E 8 b1 09 47
        E 8 b1 09 48
        E 8 b1 09 4a
        E 8 b1 09 4c
        E 8 b1 09 4d
        E 8 b1 09 4f
        E 8 b1 09 50
        E 8 b1 09 51
        E 8 b1 09 52
        E 8 b1 09 54
        E 8 b1 09 54
        E 8 b1 09 55
        E 8 b1 09 56
        E 8 b1 09 56
        E 8 b1 09 57
        E 8 b1 09 58
        E 8 b1 09 58
        E 8 b1 09 58
        E 8 b1 09 58
        E 8 b1 09 58
        E 8 b1 09 58
        E 8 b1 09 58
        E 8 b1 09 58
        E 8 b1 09 58
        E 8 b1 09 57
        E 8 b1 09 56
        E 8 b1 09 56
        E 8 b1 09 55
        E 8 b1 09 54
        E 8 b1 09 53
        E 8 b1 09 51
        E 8 b1 09 51
        E 8 b1 09 4f
        E 8 b1 09 4e
        E 8 b1 09 4d
        E 8 b1 09 4b
        E 8 b1 09 49
        E 8 b1 09 48
        E 8 b1 09 46
        E 8 b1 09 44
        E 8 b1 09 42
        E 8 b1 09 40
        E 8 b1 09 3e
        E 8 b1 09 3c
        E 8 b1 09 3a
        E 8 b1 09 38
        E 8 b1 09 36
        E 8 b1 09 33
        E 8 b1 09 31
        E 8 b1 09 2f
        E 8 b1 09 2d
        E 8 b1 09 2b
        E 8 b1 09 29
        E 8 b1 09 27
        E 8 b1 09 25
        E 8 b1 09 22
        E 8 b1 09 20
        E 8 b1 09 1e
        E 8 b1 09 1c
        E 8 b1 09 1a
        E 8 b1 09 18
        E 8 b1 09 16
        E 8 b1 09 14
        E 8 b1 09 12
        E 8 b1 09 10
        E 8 b1 09 0f
        E 8 b1 09 0d
        E 8 b1 09 0b
        E 8 b1 09 0a
        E 8 b1 09 09
        E 8 b1 09 07
        E 8 b1 09 07
        E 8 b1 09 05
        E 8 b1 09 04
        E 8 b1 09 03
        E 8 b1 09 02
        E 8 b1 09 02
        E 8 b1 09 01
        E 8 b1 09 00
        E 8 b1 09 00
        E 8 b1 09 00
        E 8 b1 09 00
        E 8 b1 09 00
        E 8 b1 09 00
        E 8 b1 09 00
        E 8 b1 09 00
        E 8 b1 09 00
        E 8 b1 09 01
        E 8 b1 09 02
        E 8 b1 09 02
        E 8 b1 09 03
        E 8 b1 09 04
        E 8 b1 09 04
        E 8 b1 09 06
        E 8 b1 09 07
        E 8 b1 09 08
        E 8 b1 09 09
        E 8 b1 09 0b
        E 8 b1 09 0c
        E 8 b1 09 0e
        E 8 b1 09 10
        E 8 b1 09 11
        E 8 b1 09 13
        E 8 b1 09 15
        E 8 b1 09 17
        E 8 b1 09 19
        E 8 b1 09 1b
        E 8 b1 09 1d
        E 8 b1 09 1f
        E 8 b1 09 21
        E 8 b1 09 23
        E 8 b1 09 25
        E 8 b1 09 27
        E 8 b1 09 2a
        E 8 b1 09 2c
        E 8 b1 09 20
        E 8 b1 09 21
        E 8 b1 09 23
        E 8 b1 09 24
        E 8 b1 09 26
        E 8 b1 09 27
        E 8 b1 09 29
        E 8 b1 09 2a
        E 8 b1 09 2c
        E 8 b1 09 2d
        E 8 b1 09 2f
        E 8 b1 09 30
        E 8 b1 09 31
        E 8 b1 09 33
        E 8 b1 09 34
        E 8 b1 09 35
        E 8 b1 09 36
        E 8 b1 09 37
        E 8 b1 09 38
        E 8 b1 09 39
        E 8 b1 09 3a
        E 8 b1 09 3b
        E 8 b1 09 3c
        E 8 b1 09 3c
        E 8 b1 09 3d
        E 8 b1 09 3d
        E 8 b1 09 3e
        E 8 b1 09 3e
        E 8 b1 09 3f
        E 8 b1 09 3f
        E 8 b1 09 3f
        E 8 b1 09 3f
        E 8 b1 09 3f
        E 8 b1 09 3f
        E 8 b1 09 3f
        E 8 b1 09 3f
        E 8 b1 09 3f
        E 8 b1 09 3e
        E 8 b1 09 3e
        E 8 b1 09 3d
        E 8 b1 09 3d
        E 8 b1 09 3c
        E 8 b1 09 3b
        E 8 b1 09 3a
        E 8 b1 09 3a
        E 8 b1 09 39
        E 8 b1 09 38
        E 8 b1 09 37
        E 8 b1 09 36
        E 8 b1 09 34
        E 8 b1 09 33
        E 8 b1 09 32
        E 8 b1 09 31
        E 8 b1 09 2f
        E 8 b1 09 2e
        E 8 b1 09 2c
        E 8 b1 09 2b
        E 8 b1 09 2a
        E 8 b1 09 28
        E 8 b1 09 27
        E 8 b1 09 25
        E 8 b1 09 23
        E 8 b1 09 22
        E 8 b1 09 20
        E 8 b1 09 1f
        E 8 b1 09 1d
        E 8 b1 09 1c
        E 8 b1 09 1a
        E 8 b1 09 18
        E 8 b1 09 17
        E 8 b1 09 15
        E 8 b1 09 14
        E 8 b1 09 13
        E 8 b1 09 11
        E 8 b1 09 10
        E 8 b1 09 0e
        E 8 b1 09 0d
        E 8 b1 09 0c
        E 8 b1 09 0b
        E 8 b1 09 09
        E 8 b1 09 08
        E 8 b1 09 07
        E 8 b1 09 06
        E 8 b1 09 05
        E 8 b1 09 05
        E 8 b1 09 04
        E 8 b1 09 03
        E 8 b1 09 02
        E 8 b1 09 02
        E 8 b1 09 01
        E 8 b1 09 01
        E 8 b1 09 00
        E 8 b1 09 00
        E 8 b1 09 00
        E 8 b1 09 00
        E 8 b1 09 00
        E 8 b1 09 00
        E 8 b1 09 00
        E 8 b1 09 00
        E 8 b1 09 00
        E 8 b1 09 01
        E 8 b1 09 01
        E 8 b1 09 02
        E 8 b1 09 02
        E 8 b1 09 03
        E 8 b1 09 03
        E 8 b1 09 04
        E 8 b1 09 05
        E 8 b1 09 06
        E 8 b1 09 07
        E 8 b1 09 08
        E 8 b1 09 09
        E 8 b1 09 0a
        E 8 b1 09 0b
        E 8 b1 09 0c
        E 8 b1 09 0e
        E 8 b1 09 0f
        E 8 b1 09 10
        E 8 b1 09 12
        E 8 b1 09 13
        E 8 b1 09 15
        E 8 b1 09 16
        E 8 b1 09 18
        E 8 b1 09 19
        E 8 b1 09 1b
        E 8 b1 09 1c
        E 8 b1 09 1e
        E 8 b1 09 20
        E 11 b1 09 20
        E 11 b1 09 21
        E 11 b1 09 23
        E 11 b1 09 24
        E 11 b1 09 26
        E 11 b1 09 27
        E 11 b1 09 29
        E 11 b1 09 2a
        E 11 b1 09 2c
        E 11 b1 09 2d
        E 11 b1 09 2f
        E 11 b1 09 30
        E 11 b1 09 31
        E 11 b1 09 33
        E 11 b1 09 34
        E 11 b1 09 35
        E 11 b1 09 36
        E 11 b1 09 37
        E 11 b1 09 38
        E 11 b1 09 39
        E 11 b1 09 3a
        E 11 b1 09 3b
        E 11 b1 09 3c
        E 11 b1 09 3c
        E 11 b1 09 3d
        E 11 b1 09 3d
        E 11 b1 09 3e
        E 11 b1 09 3e
        E 11 b1 09 3f
        E 11 b1 09 3f
        E 11 b1 09 3f
        E 11 b1 09 3f
        E 11 b1 09 3f
        E 11 b1 09 3f
        E 11 b1 09 3f
        E 11 b1 09 3f
        E 11 b1 09 3f
        E 11 b1 09 3e
        E 11 b1 09 3e
        E 11 b1 09 3d
        E 11 b1 09 3d
        E 11 b1 09 3c
        E 11 b1 09 3b
        E 11 b1 09 3a
        E 11 b1 09 3a
        E 11 b1 09 39
        E 11 b1 09 38
        E 11 b1 09 37
        E 11 b1 09 36
        E 11 b1 09 34
        E 11 b1 09 33
        E 11 b1 09 32
        E 11 b1 09 31
        E 11 b1 09 2f
        E 11 b1 09 2e
        E 11 b1 09 2c
        E 11 b1 09 2b
        E 11 b1 09 2a
        E 11 b1 09 28
        E 11 b1 09 27
        E 11 b1 09 25
        E 11 b1 09 23
        E 11 b1 09 22
        E 11 b1 09 20
        E 11 b1 09 1f
        E 11 b1 09 1d
        E 11 b1 09 1c
        E 11 b1 09 1a
        E 11 b1 09 18
        E 11 b1 09 17
        E 11 b1 09 15
        E 11 b1 09 14
        E 11 b1 09 13
        E 11 b1 09 11
        E 11 b1 09 10
        E 11 b1 09 0e
        E 11 b1 09 0d
        E 11 b1 09 0c
        E 11 b1 09 0b
        E 11 b1 09 09
        E 11 b1 09 08
        E 11 b1 09 07
        E 11 b1 09 06
        E 11 b1 09 05
        E 11 b1 09 05
        E 11 b1 09 04
        E 11 b1 09 03
        E 11 b1 09 02
        E 11 b1 09 02
        E 11 b1 09 01
        E 11 b1 09 01
        E 11 b1 09 00
        E 11 b1 09 00
        E 11 b1 09 00
        E 11 b1 09 00
        E 11 b1 09 00
        E 11 b1 09 00
        E 11 b1 09 00
        E 11 b1 09 00
        E 11 b1 09 00
        E 11 b1 09 01
        E 11 b1 09 01
        E 11 b1 09 02
        E 11 b1 09 02
        E 11 b1 09 03
        E 11 b1 09 03
        E 11 b1 09 04
        E 11 b1 09 05
        E 11 b1 09 06
        E 11 b1 09 07
        E 11 b1 09 08
        E 11 b1 09 09
        E 11 b1 09 0a
        E 11 b1 09 0b
        E 11 b1 09 0c
        E 11 b1 09 0e
        E 11 b1 09 0f
        E 11 b1 09 10
        E 11 b1 09 12
        E 11 b1 09 13
        E 11 b1 09 15
        E 11 b1 09 16
        E 11 b1 09 18
        E 11 b1 09 19
        E 11 b1 09 1b
        E 11 b1 09 1c
        E 11 b1 09 1e
        E 11 b1 09 20
        E 13 b1 09 40
        E 13 b1 09 43
        E 13 b1 09 46
        E 13 b1 09 49
        E 13 b1 09 4c
        E 13 b1 09 4f
        E 13 b1 09 52
        E 13 b1 09 55
        E 13 b1 09 58
        E 13 b1 09 5b
        E 13 b1 09 5e
        E 13 b1 09 60
        E 13 b1 09 63
        E 13 b1 09 66
        E 13 b1 09 68
        E 13 b1 09 6a
        E 13 b1 09 6d
        E 13 b1 09 6f
        E 13 b1 09 71
        E 13 b1 09 73
        E 13 b1 09 75
        E 13 b1 09 76
        E 13 b1 09 78
        E 13 b1 09 79
        E 13 b1 09 7a
        E 13 b1 09 7b
        E 13 b1 09 7c
        E 13 b1 09 7d
        E 13 b1 09 7e
        E 13 b1 09 7e
        E 13 b1 09 7f
        E 13 b1 09 7f
        E 13 b1 09 7f
        E 13 b1 09 7f
        E 13 b1 09 7f
        E 13 b1 09 7e
        E 13 b1 09 7e
        E 13 b1 09 7d
        E 13 b1 09 7c
        E 13 b1 09 7b
        E 13 b1 09 7a
        E 13 b1 09 78
        E 13 b1 09 77
        E 13 b1 09 75
        E 13 b1 09 74
        E 13 b1 09 72
        E 13 b1 09 70
        E 13 b1 09 6e
        E 13 b1 09 6c
        E 13 b1 09 69
        E 13 b1 09 67
        E 13 b1 09 64
        E 13 b1 09 62
        E 13 b1 09 5f
        E 13 b1 09 5c
        E 13 b1 09 59
        E 13 b1 09 57
        E 13 b1 09 54
        E 13 b1 09 51
        E 13 b1 09 4e
        E 13 b1 09 4a
        E 13 b1 09 47
        E 13 b1 09 44
        E 13 b1 09 41
        E 13 b1 09 3e
        E 13 b1 09 3b
        E 13 b1 09 38
        E 13 b1 09 35
        E 13 b1 09 31
        E 13 b1 09 2e
        E 13 b1 09 2b
        E 13 b1 09 28
        E 13 b1 09 26
        E 13 b1 09 23
        E 13 b1 09 20
        E 13 b1 09 1d
        E 13 b1 09 1b
        E 13 b1 09 18
        E 13 b1 09 16
        E 13 b1 09 13
        E 13 b1 09 11
        E 13 b1 09 0f
        E 13 b1 09 0d
        E 13 b1 09 0b
        E 13 b1 09 0a
        E 13 b1 09 08
        E 13 b1 09 07
        E 13 b1 09 05
        E 13 b1 09 04
        E 13 b1 09 03
        E 13 b1 09 02
        E 13 b1 09 01
        E 13 b1 09 01
        E 13 b1 09 00
        E 13 b1 09 00
        E 13 b1 09 00
        E 13 b1 09 00
        E 13 b1 09 00
        E 13 b1 09 01
        E 13 b1 09 01
        E 13 b1 09 02
        E 13 b1 09 03
        E 13 b1 09 04
        E 13 b1 09 05
        E 13 b1 09 06
        E 13 b1 09 07
        E 13 b1 09 09
        E 13 b1 09 0a
        E 13 b1 09 0c
        E 13 b1 09 0e
        E 13 b1 09 10
        E 13 b1 09 12
        E 13 b1 09 15
        E 13 b1 09 17
        E 13 b1 09 19
        E 13 b1 09 1c
        E 13 b1 09 1f
        E 13 b1 09 21
        E 13 b1 09 24
        E 13 b1 09 27
        E 13 b1 09 2a
        E 13 b1 09 2d
        E 13 b1 09 30
        E 13 b1 09 33
        E 13 b1 09 36
        E 13 b1 09 39
        E 13 b1 09 3c
        E 13 b1 09 40
        E 1 b1 09 39
        E 1 b1 09 3c
        E 1 b1 09 3f
        E 1 b1 09 41
        E 1 b1 09 44
        E 1 b1 09 47
        E 1 b1 09 49
        E 1 b1 09 4c
        E 1 b1 09 4f
        E 1 b1 09 51
        E 1 b1 09 54
        E 1 b1 09 56
        E 1 b1 09 59
        E 1 b1 09 5b
        E 1 b1 09 5d
        E 1 b1 09 5f
        E 1 b1 09 62
        E 1 b1 09 63
        E 1 b1 09 65
        E 1 b1 09 67
        E 1 b1 09 69
        E 1 b1 09 6a
        E 1 b1 09 6c
        E 1 b1 09 6c
        E 1 b1 09 6d
        E 1 b1 09 6e
        E 1 b1 09 6f
        E 1 b1 09 70
        E 1 b1 09 71
        E 1 b1 09 71
        E 1 b1 09 72
        E 1 b1 09 72
        E 1 b1 09 72
        E 1 b1 09 72
        E 1 b1 09 72
        E 1 b1 09 71
        E 1 b1 09 71
        E 1 b1 09 70
        E 1 b1 09 6f
        E 1 b1 09 6e
        E 1 b1 09 6d
        E 1 b1 09 6c
        E 1 b1 09 6b
        E 1 b1 09 69
        E 1 b1 09 68
        E 1 b1 09 66
        E 1 b1 09 64
        E 1 b1 09 63
        E 1 b1 09 61
        E 1 b1 09 5e
        E 1 b1 09 5c
        E 1 b1 09 5a
        E 1 b1 09 58
        E 1 b1 09 55
        E 1 b1 09 52
        E 1 b1 09 50
        E 1 b1 09 4e
        E 1 b1 09 4b
        E 1 b1 09 48
        E 1 b1 09 46
        E 1 b1 09 42
        E 1 b1 09 3f
        E 1 b1 09 3d
        E 1 b1 09 3a
        E 1 b1 09 37
        E 1 b1 09 35
        E 1 b1 09 32
        E 1 b1 09 2f
        E 1 b1 09 2c
        E 1 b1 09 29
        E 1 b1 09 26
        E 1 b1 09 24
        E 1 b1 09 22
        E 1 b1 09 1f
        E 1 b1 09 1c
        E 1 b1 09 1a
        E 1 b1 09 18
        E 1 b1 09 15
        E 1 b1 09 13
        E 1 b1 09 11
        E 1 b1 09 0f
        E 1 b1 09 0d
        E 1 b1 09 0b
        E 1 b1 09 09
        E 1 b1 09 09
        E 1 b1 09 07
        E 1 b1 09 06
        E 1 b1 09 04
        E 1 b1 09 03
        E 1 b1 09 02
        E 1 b1 09 01
        E 1 b1 09 00
        E 1 b1 09 00
        E 1 b1 09 00
        E 1 b1 09 00
        E 1 b1 09 00
        E 1 b1 09 00
        E 1 b1 09 00
        E 1 b1 09 00
        E 1 b1 09 00
        E 1 b1 09 01
        E 1 b1 09 02
        E 1 b1 09 03
        E 1 b1 09 04
        E 1 b1 09 05
        E 1 b1 09 06
        E 1 b1 09 08
        E 1 b1 09 09
        E 1 b1 09 0a
        E 1 b1 09 0c
        E 1 b1 09 0e
        E 1 b1 09 10
        E 1 b1 09 12
        E 1 b1 09 14
        E 1 b1 09 16
        E 1 b1 09 19
        E 1 b1 09 1b
        E 1 b1 09 1d
        E 1 b1 09 20
        E 1 b1 09 23
        E 1 b1 09 25
        E 1 b1 09 28
        E 1 b1 09 2b
        E 1 b1 09 2d
        E 1 b1 09 30
        E 1 b1 09 33
        E 1 b1 09 36
        E 1 b1 09 39
        E 6 b1 09 40
        E 6 b1 09 43
        E 6 b1 09 46
        E 6 b1 09 49
        E 6 b1 09 4c
        E 6 b1 09 4f
        E 6 b1 09 52
        E 6 b1 09 55
        E 6 b1 09 58
        E 6 b1 09 5b
        E 6 b1 09 5e
        E 6 b1 09 60
        E 6 b1 09 63
        E 6 b1 09 66
        E 6 b1 09 68
        E 6 b1 09 6a
        E 6 b1 09 6d
        E 6 b1 09 6f
        E 6 b1 09 71
        E 6 b1 09 73
        E 6 b1 09 75
        E 6 b1 09 76
        E 6 b1 09 78
        E 6 b1 09 79
        E 6 b1 09 7a
        E 6 b1 09 7b
        E 6 b1 09 7c
        E 6 b1 09 7d
        E 6 b1 09 7e
        E 6 b1 09 7e
        E 6 b1 09 7f
        E 6 b1 09 7f
        E 6 b1 09 7f
        E 6 b1 09 7f
        E 6 b1 09 7f
        E 6 b1 09 7e
        E 6 b1 09 7e
        E 6 b1 09 7d
        E 6 b1 09 7c
        E 6 b1 09 7b
        E 6 b1 09 7a
        E 6 b1 09 78
        E 6 b1 09 77
        E 6 b1 09 75
        E 6 b1 09 74
        E 6 b1 09 72
        E 6 b1 09 70
        E 6 b1 09 6e
        E 6 b1 09 6c
        E 6 b1 09 69
        E 6 b1 09 67
        E 6 b1 09 64
        E 6 b1 09 62
        E 6 b1 09 5f
        E 6 b1 09 5c
        E 6 b1 09 59
        E 6 b1 09 57
        E 6 b1 09 54
        E 6 b1 09 51
        E 6 b1 09 4e
        E 6 b1 09 4a
        E 6 b1 09 47
        E 6 b1 09 44
        E 6 b1 09 41
        E 6 b1 09 3e
        E 6 b1 09 3b
        E 6 b1 09 38
        E 6 b1 09 35
        E 6 b1 09 31
        E 6 b1 09 2e
        E 6 b1 09 2b
        E 6 b1 09 28
        E 6 b1 09 26
        E 6 b1 09 23
        E 6 b1 09 20
        E 6 b1 09 1d
        E 6 b1 09 1b
        E 6 b1 09 18
        E 6 b1 09 16
        E 6 b1 09 13
        E 6 b1 09 11
        E 6 b1 09 0f
        E 6 b1 09 0d
        E 6 b1 09 0b
        E 6 b1 09 0a
        E 6 b1 09 08
        E 6 b1 09 07
        E 6 b1 09 05
        E 6 b1 09 04
        E 6 b1 09 03
        E 6 b1 09 02
        E 6 b1 09 01
        E 6 b1 09 01
        E 6 b1 09 00
        E 6 b1 09 00
        E 6 b1 09 00
        E 6 b1 09 00
        E 6 b1 09 00
        E 6 b1 09 01
        E 6 b1 09 01
        E 6 b1 09 02
        E 6 b1 09 03
        E 6 b1 09 04
        E 6 b1 09 05
        E 6 b1 09 06
        E 6 b1 09 07
        E 6 b1 09 09
        E 6 b1 09 0a
        E 6 b1 09 0c
        E 6 b1 09 0e
        E 6 b1 09 10
        E 6 b1 09 12
        E 6 b1 09 15
        E 6 b1 09 17
        E 6 b1 09 19
        E 6 b1 09 1c
        E 6 b1 09 1f
        E 6 b1 09 21
        E 6 b1 09 24
        E 6 b1 09 27
        E 6 b1 09 2a
        E 6 b1 09 2d
        E 6 b1 09 30
        E 6 b1 09 33
        E 6 b1 09 36
        E 6 b1 09 39
        E 6 b1 09 3c
        E 6 b1 09 40
        E 11 b1 09 39
        E 11 b1 09 3c
        E 11 b1 09 3f
        E 11 b1 09 41
        E 11 b1 09 44
        E 11 b1 09 47
        E 11 b1 09 49
        E 11 b1 09 4c
        E 11 b1 09 4f
        E 11 b1 09 51
        E 11 b1 09 54
        E 11 b1 09 56
        E 11 b1 09 59
        E 11 b1 09 5b
        E 11 b1 09 5d
        E 11 b1 09 5f
        E 11 b1 09 62
        E 11 b1 09 63
        E 11 b1 09 65
        E 11 b1 09 67
        E 11 b1 09 69
        E 11 b1 09 6a
        E 11 b1 09 6c
        E 11 b1 09 6c
        E 11 b1 09 6d
        E 11 b1 09 6e
        E 11 b1 09 6f
        E 11 b1 09 70
        E 11 b1 09 71
        E 11 b1 09 71
        E 11 b1 09 72
        E 11 b1 09 72
        E 11 b1 09 72
        E 11 b1 09 72
        E 11 b1 09 72
        E 11 b1 09 71
        E 11 b1 09 71
        E 11 b1 09 70
        E 11 b1 09 6f
        E 11 b1 09 6e
        E 11 b1 09 6d
        E 11 b1 09 6c
        E 11 b1 09 6b
        E 11 b1 09 69
        E 11 b1 09 68
        E 11 b1 09 66
        E 11 b1 09 64
        E 11 b1 09 63
        E 11 b1 09 61
        E 11 b1 09 5e
        E 11 b1 09 5c
        E 11 b1 09 5a
        E 11 b1 09 58
        E 11 b1 09 55
        E 11 b1 09 52
        E 11 b1 09 50
        E 11 b1 09 4e
        E 11 b1 09 4b
        E 11 b1 09 48
        E 11 b1 09 46
        E 11 b1 09 42
        E 11 b1 09 3f
        E 11 b1 09 3d
        E 11 b1 09 3a
        E 11 b1 09 37
        E 11 b1 09 35
        E 11 b1 09 32
        E 11 b1 09 2f
        E 11 b1 09 2c
        E 11 b1 09 29
        E 11 b1 09 26
        E 11 b1 09 24
        E 11 b1 09 22
        E 11 b1 09 1f
        E 11 b1 09 1c
        E 11 b1 09 1a
        E 11 b1 09 18
        E 11 b1 09 15
        E 11 b1 09 13
        E 11 b1 09 11
        E 11 b1 09 0f
        E 11 b1 09 0d
        E 11 b1 09 0b
        E 11 b1 09 09
        E 11 b1 09 09
        E 11 b1 09 07
        E 11 b1 09 06
        E 11 b1 09 04
        E 11 b1 09 03
        E 11 b1 09 02
        E 11 b1 09 01
        E 11 b1 09 00
        E 11 b1 09 00
        E 11 b1 09 00
        E 11 b1 09 00
        E 11 b1 09 00
        E 11 b1 09 00
        E 11 b1 09 00
        E 11 b1 09 00
        E 11 b1 09 00
        E 11 b1 09 01
        E 11 b1 09 02
        E 11 b1 09 03
        E 11 b1 09 04
        E 11 b1 09 05
        E 11 b1 09 06
        E 11 b1 09 08
        E 11 b1 09 09
        E 11 b1 09 0a
        E 11 b1 09 0c
        E 11 b1 09 0e
        E 11 b1 09 10
        E 11 b1 09 12
        E 11 b1 09 14
        E 11 b1 09 16
        E 11 b1 09 19
        E 11 b1 09 1b
        E 11 b1 09 1d
        E 11 b1 09 20
        E 11 b1 09 23
        E 11 b1 09 25
        E 11 b1 09 28
        E 11 b1 09 2b
        E 11 b1 09 2d
        E 11 b1 09 30
        E 11 b1 09 33
        E 11 b1 09 36
        E 11 b1 09 39
        E 8 b1 09 20
        E 8 b1 09 21
        E 8 b1 09 23
        E 8 b1 09 24
        E 8 b1 09 26
        E 8 b1 09 27
        E 8 b1 09 29
        E 8 b1 09 2a
        E 8 b1 09 2c
        E 8 b1 09 2d
        E 8 b1 09 2f
        E 8 b1 09 30
        E 8 b1 09 31
        E 8 b1 09 33
        E 8 b1 09 34
        E 8 b1 09 35
        E 8 b1 09 36
        E 8 b1 09 37
        E 8 b1 09 38
        E 8 b1 09 39
        E 8 b1 09 3a
        E 8 b1 09 3b
        E 8 b1 09 3c
        E 8 b1 09 3c
        E 8 b1 09 3d
        E 8 b1 09 3d
        E 8 b1 09 3e
        E 8 b1 09 3e
        E 8 b1 09 3f
        E 8 b1 09 3f
        E 8 b1 09 3f
        E 8 b1 09 3f
        E 8 b1 09 3f
        E 8 b1 09 3f
        E 8 b1 09 3f
        E 8 b1 09 3f
        E 8 b1 09 3f
        E 8 b1 09 3e
        E 8 b1 09 3e
        E 8 b1 09 3d
        E 8 b1 09 3d
        E 8 b1 09 3c
        E 8 b1 09 3b
        E 8 b1 09 3a
        E 8 b1 09 3a
        E 8 b1 09 39
        E 8 b1 09 38
        E 8 b1 09 37
        E 8 b1 09 36
        E 8 b1 09 34
        E 8 b1 09 33
        E 8 b1 09 32
        E 8 b1 09 31
        E 8 b1 09 2f
        E 8 b1 09 2e
        E 8 b1 09 2c
        E 8 b1 09 2b
        E 8 b1 09 2a
        E 8 b1 09 28
        E 8 b1 09 27
        E 8 b1 09 25
        E 8 b1 09 23
        E 8 b1 09 22
        E 8 b1 09 20
        E 8 b1 09 1f
        E 8 b1 09 1d
        E 8 b1 09 1c
        E 8 b1 09 1a
        E 8 b1 09 18
        E 8 b1 09 17
        E 8 b1 09 15
        E 8 b1 09 14
        E 8 b1 09 13
        E 8 b1 09 11
        E 8 b1 09 10
        E 8 b1 09 0e
        E 8 b1 09 0d
        E 8 b1 09 0c
        E 8 b1 09 0b
        E 8 b1 09 09
        E 8 b1 09 08
        E 8 b1 09 07
        E 8 b1 09 06
        E 8 b1 09 05
        E 8 b1 09 05
        E 8 b1 09 04
        E 8 b1 09 03
        E 8 b1 09 02
        E 8 b1 09 02
        E 8 b1 09 01
        E 8 b1 09 01
        E 8 b1 09 00
        E 8 b1 09 00
        E 8 b1 09 00
        E 8 b1 09 00
        E 8 b1 09 00
        E 8 b1 09 00
        E 8 b1 09 00
        E 8 b1 09 00
        E 8 b1 09 00
        E 8 b1 09 01
        E 8 b1 09 01
        E 8 b1 09 02
        E 8 b1 09 02
        E 8 b1 09 03
        E 8 b1 09 03
        E 8 b1 09 04
        E 8 b1 09 05
        E 8 b1 09 06
        E 8 b1 09 07
        E 8 b1 09 08
        E 8 b1 09 09
        E 8 b1 09 0a
        E 8 b1 09 0b
        E 8 b1 09 0c
        E 8 b1 09 0e
        E 8 b1 09 0f
        E 8 b1 09 10
        E 8 b1 09 12
        E 8 b1 09 13
        E 8 b1 09 15
        E 8 b1 09 16
        E 8 b1 09 18
        E 8 b1 09 19
        E 8 b1 09 1b
        E 8 b1 09 1c
        E 8 b1 09 1e
        E 8 b1 09 20
        E 8 b1 09 20
        E 8 b1 09 21
        E 8 b1 09 23
        E 8 b1 09 24
        E 8 b1 09 26
        E 8 b1 09 27
        E 8 b1 09 29
        E 8 b1 09 2a
        E 8 b1 09 2c
        E 8 b1 09 2d
        E 8 b1 09 2f
        E 8 b1 09 30
        E 8 b1 09 31
        E 8 b1 09 33
        E 8 b1 09 34
        E 8 b1 09 35
        E 8 b1 09 36
        E 8 b1 09 37
        E 8 b1 09 38
        E 8 b1 09 39
        E 8 b1 09 3a
        E 8 b1 09 3b
        E 8 b1 09 3c
        E 8 b1 09 3c
        E 8 b1 09 3d
        E 8 b1 09 3d
        E 8 b1 09 3e
        E 8 b1 09 3e
        E 8 b1 09 3f
        E 8 b1 09 3f
        E 8 b1 09 3f
        E 8 b1 09 3f
        E 8 b1 09 3f
        E 8 b1 09 3f
        E 8 b1 09 3f
        E 8 b1 09 3f
        E 8 b1 09 3f
        E 8 b1 09 3e
        E 8 b1 09 3e
        E 8 b1 09 3d
        E 8 b1 09 3d
        E 8 b1 09 3c
        E 8 b1 09 3b
        E 8 b1 09 3a
        E 8 b1 09 3a
        E 8 b1 09 39
        E 8 b1 09 38
        E 8 b1 09 37
        E 8 b1 09 36
        E 8 b1 09 34
        E 8 b1 09 33
        E 8 b1 09 32
        E 8 b1 09 31
        E 8 b1 09 2f
        E 8 b1 09 2e
        E 8 b1 09 2c
        E 8 b1 09 2b
        E 8 b1 09 2a
        E 8 b1 09 28
        E 8 b1 09 27
        E 8 b1 09 25
        E 8 b1 09 23
        E 8 b1 09 22
        E 8 b1 09 20
        E 8 b1 09 1f
        E 8 b1 09 1d
        E 8 b1 09 1c
        E 8 b1 09 1a
        E 8 b1 09 18
        E 8 b1 09 17
        E 8 b1 09 15
        E 8 b1 09 14
        E 8 b1 09 13
        E 8 b1 09 11
        E 8 b1 09 10
        E 8 b1 09 0e
        E 8 b1 09 0d
        E 8 b1 09 0c
        E 8 b1 09 0b
        E 8 b1 09 09
        E 8 b1 09 08
        E 8 b1 09 07
        E 8 b1 09 06
        E 8 b1 09 05
        E 8 b1 09 05
        E 8 b1 09 04
        E 8 b1 09 03
        E 8 b1 09 02
        E 8 b1 09 02
        E 8 b1 09 01
        E 8 b1 09 01
        E 8 b1 09 00
        E 8 b1 09 00
        E 8 b1 09 00
        E 8 b1 09 00
        E 8 b1 09 00
        E 8 b1 09 00
        E 8 b1 09 00
        E 8 b1 09 00
        E 8 b1 09 00
        E 8 b1 09 01
        E 8 b1 09 01
        E 8 b1 09 02
        E 8 b1 09 02
        E 8 b1 09 03
        E 8 b1 09 03
        E 8 b1 09 04
        E 8 b1 09 05
        E 8 b1 09 06
        E 8 b1 09 07
        E 8 b1 09 08
        E 8 b1 09 09
        E 8 b1 09 0a
        E 8 b1 09 0b
        E 8 b1 09 0c
        E 8 b1 09 0e
        E 8 b1 09 0f
        E 8 b1 09 10
        E 8 b1 09 12
        E 8 b1 09 13
        E 8 b1 09 15
        E 8 b1 09 16
        E 8 b1 09 18
        E 8 b1 09 19
        E 8 b1 09 1b
        E 8 b1 09 1c
        E 8 b1 09 1e
        E 8 b1 09 20
        E 17 b1 09 2c
        E 17 b1 09 2e
        E 17 b1 09 31
        E 17 b1 09 33
        E 17 b1 09 35
        E 17 b1 09 37
        E 17 b1 09 39
        E 17 b1 09 3b
        E 17 b1 09 3d
        E 17 b1 09 3f
        E 17 b1 09 41
        E 17 b1 09 43
        E 17 b1 09 45
        E 17 b1 09 47
        E 17 b1 09 48
        E 17 b1 09 4a
        E 17 b1 09 4c
        E 17 b1 09 4d
        E 17 b1 09 4f
        E 17 b1 09 50
        E 17 b1 09 51
        E 17 b1 09 52
        E 17 b1 09 54
        E 17 b1 09 54
        E 17 b1 09 55
        E 17 b1 09 56
        E 17 b1 09 56
        E 17 b1 09 57
        E 17 b1 09 58
        E 17 b1 09 58
        E 17 b1 09 58
        E 17 b1 09 58
        E 17 b1 09 58
        E 17 b1 09 58
        E 17 b1 09 58
        E 17 b1 09 58
        E 17 b1 09 58
        E 17 b1 09 57
        E 17 b1 09 56
        E 17 b1 09 56
        E 17 b1 09 55
        E 17 b1 09 54
        E 17 b1 09 53
        E 17 b1 09 51
        E 17 b1 09 51
        E 17 b1 09 4f
        E 17 b1 09 4e
        E 17 b1 09 4d
        E 17 b1 09 4b
        E 17 b1 09 49
        E 17 b1 09 48
        E 17 b1 09 46
        E 17 b1 09 44
        E 17 b1 09 42
        E 17 b1 09 40
        E 17 b1 09 3e
        E 17 b1 09 3c
        E 17 b1 09 3a
        E 17 b1 09 38
        E 17 b1 09 36
        E 17 b1 09 33
        E 17 b1 09 31
        E 17 b1 09 2f
        E 17 b1 09 2d
        E 17 b1 09 2b
        E 17 b1 09 29
        E 17 b1 09 27
        E 17 b1 09 25
        E 17 b1 09 22
        E 17 b1 09 20
        E 17 b1 09 1e
        E 17 b1 09 1c
        E 17 b1 09 1a
        E 17 b1 09 18
        E 17 b1 09 16
        E 17 b1 09 14
        E 17 b1 09 12
        E 17 b1 09 10
        E 17 b1 09 0f
        E 17 b1 09 0d
        E 17 b1 09 0b
        E 17 b1 09 0a
        E 17 b1 09 09
        E 17 b1 09 07
        E 17 b1 09 07
        E 17 b1 09 05
        E 17 b1 09 04
        E 17 b1 09 03
        E 17 b1 09 02
        E 17 b1 09 02
        E 17 b1 09 01
        E 17 b1 09 00
        E 17 b1 09 00
        E 17 b1 09 00
        E 17 b1 09 00
        E 17 b1 09 00
        E 17 b1 09 00
        E 17 b1 09 00
        E 17 b1 09 00
        E 17 b1 09 00
        E 17 b1 09 01
        E 17 b1 09 02
        E 17 b1 09 02
        E 17 b1 09 03
        E 17 b1 09 04
        E 17 b1 09 04
        E 17 b1 09 06
        E 17 b1 09 07
        E 17 b1 09 08
        E 17 b1 09 09
        E 17 b1 09 0b
        E 17 b1 09 0c
        E 17 b1 09 0e
        E 17 b1 09 10
        E 17 b1 09 11
        E 17 b1 09 13
        E 17 b1 09 15
        E 17 b1 09 17
        E 17 b1 09 19
        E 17 b1 09 1b
        E 17 b1 09 1d
        E 17 b1 09 1f
        E 17 b1 09 21
        E 17 b1 09 23
        E 17 b1 09 25
        E 17 b1 09 27
        E 17 b1 09 2a
        E 17 b1 09 2c
        E 15 b1 09 33
        E 15 b1 09 35
        E 15 b1 09 37
        E 15 b1 09 3a
        E 15 b1 09 3c
        E 15 b1 09 3f
        E 15 b1 09 41
        E 15 b1 09 44
        E 15 b1 09 46
        E 15 b1 09 48
        E 15 b1 09 4b
        E 15 b1 09 4c
        E 15 b1 09 4f
        E 15 b1 09 51
        E 15 b1 09 53
        E 15 b1 09 54
        E 15 b1 09 57
        E 15 b1 09 58
        E 15 b1 09 5a
        E 15 b1 09 5b
        E 15 b1 09 5d
        E 15 b1 09 5e
        E 15 b1 09 5f
        E 15 b1 09 60
        E 15 b1 09 61
        E 15 b1 09 62
        E 15 b1 09 63
        E 15 b1 09 63
        E 15 b1 09 64
        E 15 b1 09 64
        E 15 b1 09 65
        E 15 b1 09 65
        E 15 b1 09 65
        E 15 b1 09 65
        E 15 b1 09 65
        E 15 b1 09 64
        E 15 b1 09 64
        E 15 b1 09 63
        E 15 b1 09 63
        E 15 b1 09 62
        E 15 b1 09 61
        E 15 b1 09 5f
        E 15 b1 09 5f
        E 15 b1 09 5d
        E 15 b1 09 5c
        E 15 b1 09 5b
        E 15 b1 09 59
        E 15 b1 09 57
        E 15 b1 09 56
        E 15 b1 09 54
        E 15 b1 09 52
        E 15 b1 09 50
        E 15 b1 09 4e
        E 15 b1 09 4c
        E 15 b1 09 49
        E 15 b1 09 47
        E 15 b1 09 45
        E 15 b1 09 43
        E 15 b1 09 40
        E 15 b1 09 3e
        E 15 b1 09 3b
        E 15 b1 09 38
        E 15 b1 09 36
        E 15 b1 09 33
        E 15 b1 09 31
        E 15 b1 09 2f
        E 15 b1 09 2c
        E 15 b1 09 2a
        E 15 b1 09 27
        E 15 b1 09 24
        E 15 b1 09 22
        E 15 b1 09 1f
        E 15 b1 09 1e
        E 15 b1 09 1b
        E 15 b1 09 19
        E 15 b1 09 17
        E 15 b1 09 15
        E 15 b1 09 13
        E 15 b1 09 11
        E 15 b1 09 0f
        E 15 b1 09 0d
        E 15 b1 09 0b
        E 15 b1 09 0a
        E 15 b1 09 08
        E 15 b1 09 07
        E 15 b1 09 06
        E 15 b1 09 05
        E 15 b1 09 03
        E 15 b1 09 03
        E 15 b1 09 02
        E 15 b1 09 01
        E 15 b1 09 00
        E 15 b1 09 00
        E 15 b1 09 00
        E 15 b1 09 00
        E 15 b1 09 00
        E 15 b1 09 00
        E 15 b1 09 00
        E 15 b1 09 00
        E 15 b1 09 00
        E 15 b1 09 01
        E 15 b1 09 02
        E 15 b1 09 03
        E 15 b1 09 03
        E 15 b1 09 04
        E 15 b1 09 05
        E 15 b1 09 07
        E 15 b1 09 07
        E 15 b1 09 09
        E 15 b1 09 0b
        E 15 b1 09 0c
        E 15 b1 09 0e
        E 15 b1 09 10
        E 15 b1 09 12
        E 15 b1 09 14
        E 15 b1 09 16
        E 15 b1 09 18
        E 15 b1 09 1a
        E 15 b1 09 1c
        E 15 b1 09 1f
        E 15 b1 09 21
        E 15 b1 09 24
        E 15 b1 09 26
        E 15 b1 09 28
        E 15 b1 09 2b
        E 15 b1 09 2d
        E 15 b1 09 2f
        E 15 b1 09 33
        E 17 b1 09 06
        E 17 b1 09 06
        E 17 b1 09 07
        E 17 b1 09 07
        E 17 b1 09 07
        E 17 b1 09 07
        E 17 b1 09 08
        E 17 b1 09 08
        E 17 b1 09 08
        E 17 b1 09 09
        E 17 b1 09 09
        E 17 b1 09 09
        E 17 b1 09 09
        E 17 b1 09 0a
        E 17 b1 09 0a
        E 17 b1 09 0a
        E 17 b1 09 0a
        E 17 b1 09 0b
        E 17 b1 09 0b
        E 17 b1 09 0b
        E 17 b1 09 0b
        E 17 b1 09 0b
        E 17 b1 09 0c
        E 17 b1 09 0c
        E 17 b1 09 0c
        E 17 b1 09 0c
        E 17 b1 09 0c
        E 17 b1 09 0c
        E 17 b1 09 0c
        E 17 b1 09 0c
        E 17 b1 09 0c
        E 17 b1 09 0c
        E 17 b1 09 0c
        E 17 b1 09 0c
        E 17 b1 09 0c
        E 17 b1 09 0c
        E 17 b1 09 0c
        E 17 b1 09 0c
        E 17 b1 09 0c
        E 17 b1 09 0c
        E 17 b1 09 0c
        E 17 b1 09 0c
        E 17 b1 09 0b
        E 17 b1 09 0b
        E 17 b1 09 0b
        E 17 b1 09 0b
        E 17 b1 09 0b
        E 17 b1 09 0b
        E 17 b1 09 0a
        E 17 b1 09 0a
        E 17 b1 09 0a
        E 17 b1 09 0a
        E 17 b1 09 09
        E 17 b1 09 09
        E 17 b1 09 09
        E 17 b1 09 08
        E 17 b1 09 08
        E 17 b1 09 08
        E 17 b1 09 08
        E 17 b1 09 07
        E 17 b1 09 07
        E 17 b1 09 07
        E 17 b1 09 06
        E 17 b1 09 06
        E 17 b1 09 06
        E 17 b1 09 05
        E 17 b1 09 05
        E 17 b1 09 05
        E 17 b1 09 04
        E 17 b1 09 04
        E 17 b1 09 04
        E 17 b1 09 04
        E 17 b1 09 03
        E 17 b1 09 03
        E 17 b1 09 03
        E 17 b1 09 02
        E 17 b1 09 02
        E 17 b1 09 02
        E 17 b1 09 02
        E 17 b1 09 01
        E 17 b1 09 01
        E 17 b1 09 01
        E 17 b1 09 01
        E 17 b1 09 01
        E 17 b1 09 01
        E 17 b1 09 00
        E 17 b1 09 00
        E 17 b1 09 00
        E 17 b1 09 00
        E 17 b1 09 00
        E 17 b1 09 00
        E 17 b1 09 00
        E 17 b1 09 00
        E 17 b1 09 00
        E 17 b1 09 00
        E 17 b1 09 00
        E 17 b1 09 00
        E 17 b1 09 00
        E 17 b1 09 00
        E 17 b1 09 00
        E 17 b1 09 00
        E 17 b1 09 00
        E 17 b1 09 00
        E 17 b1 09 00
        E 17 b1 09 00
        E 17 b1 09 00
        E 17 b1 09 00
        E 17 b1 09 01
        E 17 b1 09 01
        E 17 b1 09 01
        E 17 b1 09 01
        E 17 b1 09 01
        E 17 b1 09 02
        E 17 b1 09 02
        E 17 b1 09 02
        E 17 b1 09 02
        E 17 b1 09 03
        E 17 b1 09 03
        E 17 b1 09 03
        E 17 b1 09 03
        E 17 b1 09 04
        E 17 b1 09 04
        E 17 b1 09 04
        E 17 b1 09 05
        E 17 b1 09 05
        E 17 b1 09 05
        E 17 b1 09 06
        E 17 b1 09 06
        E 15 b1 09 19
        E 15 b1 09 1a
        E 15 b1 09 1c
        E 15 b1 09 1d
        E 15 b1 09 1e
        E 15 b1 09 1f
        E 15 b1 09 20
        E 15 b1 09 22
        E 15 b1 09 23
        E 15 b1 09 24
        E 15 b1 09 25
        E 15 b1 09 26
        E 15 b1 09 27
        E 15 b1 09 28
        E 15 b1 09 29
        E 15 b1 09 2a
        E 15 b1 09 2b
        E 15 b1 09 2c
        E 15 b1 09 2d
        E 15 b1 09 2e
        E 15 b1 09 2e
        E 15 b1 09 2f
        E 15 b1 09 30
        E 15 b1 09 30
        E 15 b1 09 30
        E 15 b1 09 31
        E 15 b1 09 31
        E 15 b1 09 32
        E 15 b1 09 32
        E 15 b1 09 32
        E 15 b1 09 32
        E 15 b1 09 32
        E 15 b1 09 32
        E 15 b1 09 32
        E 15 b1 09 32
        E 15 b1 09 32
        E 15 b1 09 32
        E 15 b1 09 32
        E 15 b1 09 31
        E 15 b1 09 31
        E 15 b1 09 30
        E 15 b1 09 30
        E 15 b1 09 2f
        E 15 b1 09 2e
        E 15 b1 09 2e
        E 15 b1 09 2d
        E 15 b1 09 2c
        E 15 b1 09 2c
        E 15 b1 09 2b
        E 15 b1 09 2a
        E 15 b1 09 29
        E 15 b1 09 28
        E 15 b1 09 27
        E 15 b1 09 26
        E 15 b1 09 24
        E 15 b1 09 23
        E 15 b1 09 22
        E 15 b1 09 21
        E 15 b1 09 20
        E 15 b1 09 1f
        E 15 b1 09 1d
        E 15 b1 09 1c
        E 15 b1 09 1b
        E 15 b1 09 1a
        E 15 b1 09 18
        E 15 b1 09 17
        E 15 b1 09 16
        E 15 b1 09 15
        E 15 b1 09 13
        E 15 b1 09 12
        E 15 b1 09 11
        E 15 b1 09 10
        E 15 b1 09 0f
        E 15 b1 09 0e
        E 15 b1 09 0c
        E 15 b1 09 0b
        E 15 b1 09 0a
        E 15 b1 09 09
        E 15 b1 09 08
        E 15 b1 09 07
        E 15 b1 09 06
        E 15 b1 09 06
        E 15 b1 09 05
        E 15 b1 09 04
        E 15 b1 09 04
        E 15 b1 09 03
        E 15 b1 09 02
        E 15 b1 09 02
        E 15 b1 09 01
        E 15 b1 09 01
        E 15 b1 09 00
        E 15 b1 09 00
        E 15 b1 09 00
        E 15 b1 09 00
        E 15 b1 09 00
        E 15 b1 09 00
        E 15 b1 09 00
        E 15 b1 09 00
        E 15 b1 09 00
        E 15 b1 09 00
        E 15 b1 09 00
        E 15 b1 09 01
        E 15 b1 09 01
        E 15 b1 09 02
        E 15 b1 09 02
        E 15 b1 09 02
        E 15 b1 09 03
        E 15 b1 09 04
        E 15 b1 09 04
        E 15 b1 09 05
        E 15 b1 09 06
        E 15 b1 09 07
        E 15 b1 09 08
        E 15 b1 09 09
        E 15 b1 09 0a
        E 15 b1 09 0b
        E 15 b1 09 0c
        E 15 b1 09 0d
        E 15 b1 09 0e
        E 15 b1 09 0f
        E 15 b1 09 10
        E 15 b1 09 12
        E 15 b1 09 13
        E 15 b1 09 14
        E 15 b1 09 15
        E 15 b1 09 16
        E 15 b1 09 18
        E 15 b1 09 19
        E 8 b1 09 2c
        E 8 b1 09 2e
        E 8 b1 09 31
        E 8 b1 09 33
        E 8 b1 09 35
        E 8 b1 09 37
        E 8 b1 09 39
        E 8 b1 09 3b
        E 8 b1 09 3d
        E 8 b1 09 3f
        E 8 b1 09 41
        E 8 b1 09 43
        E 8 b1 09 45
        E 8 b1 09 47
        E 8 b1 09 48
        E 8 b1 09 4a
        E 8 b1 09 4c
        E 8 b1 09 4d
        E 8 b1 09 4f
        E 8 b1 09 50
        E 8 b1 09 51
        E 8 b1 09 52
        E 8 b1 09 54
        E 8 b1 09 54
        E 8 b1 09 55
        E 8 b1 09 56
        E 8 b1 09 56
        E 8 b1 09 57
        E 8 b1 09 58
        E 8 b1 09 58
        E 8 b1 09 58
        E 8 b1 09 58
        E 8 b1 09 58
        E 8 b1 09 58
        E 8 b1 09 58
        E 8 b1 09 58
        E 8 b1 09 58
        E 8 b1 09 57
        E 8 b1 09 56
        E 8 b1 09 56
        E 8 b1 09 55
        E 8 b1 09 54
        E 8 b1 09 53
        E 8 b1 09 51
        E 8 b1 09 51
        E 8 b1 09 4f
        E 8 b1 09 4e
        E 8 b1 09 4d
        E 8 b1 09 4b
        E 8 b1 09 49
        E 8 b1 09 48
        E 8 b1 09 46
        E 8 b1 09 44
        E 8 b1 09 42
        E 8 b1 09 40
        E 8 b1 09 3e
        E 8 b1 09 3c
        E 8 b1 09 3a
        E 8 b1 09 38
        E 8 b1 09 36
        E 8 b1 09 33
        E 8 b1 09 31
        E 8 b1 09 2f
        E 8 b1 09 2d
        E 8 b1 09 2b
        E 8 b1 09 29
        E 8 b1 09 27
        E 8 b1 09 25
        E 8 b1 09 22
        E 8 b1 09 20
        E 8 b1 09 1e
        E 8 b1 09 1c
        E 8 b1 09 1a
        E 8 b1 09 18
        E 8 b1 09 16
        E 8 b1 09 14
        E 8 b1 09 12
        E 8 b1 09 10
        E 8 b1 09 0f
        E 8 b1 09 0d
        E 8 b1 09 0b
        E 8 b1 09 0a
        E 8 b1 09 09
        E 8 b1 09 07
        E 8 b1 09 07
        E 8 b1 09 05
        E 8 b1 09 04
        E 8 b1 09 03
        E 8 b1 09 02
        E 8 b1 09 02
        E 8 b1 09 01
        E 8 b1 09 00
        E 8 b1 09 00
        E 8 b1 09 00
        E 8 b1 09 00
        E 8 b1 09 00
        E 8 b1 09 00
        E 8 b1 09 00
        E 8 b1 09 00
        E 8 b1 09 00
        E 8 b1 09 01
        E 8 b1 09 02
        E 8 b1 09 02
        E 8 b1 09 03
        E 8 b1 09 04
        E 8 b1 09 04
        E 8 b1 09 06
        E 8 b1 09 07
        E 8 b1 09 08
        E 8 b1 09 09
        E 8 b1 09 0b
        E 8 b1 09 0c
        E 8 b1 09 0e
        E 8 b1 09 10
        E 8 b1 09 11
        E 8 b1 09 13
        E 8 b1 09 15
        E 8 b1 09 17
        E 8 b1 09 19
        E 8 b1 09 1b
        E 8 b1 09 1d
        E 8 b1 09 1f
        E 8 b1 09 21
        E 8 b1 09 23
        E 8 b1 09 25
        E 8 b1 09 27
        E 8 b1 09 2a
        E 8 b1 09 2c
        E 8 b1 09 20
        E 8 b1 09 21
        E 8 b1 09 23
        E 8 b1 09 24
        E 8 b1 09 26
        E 8 b1 09 27
        E 8 b1 09 29
        E 8 b1 09 2a
        E 8 b1 09 2c
        E 8 b1 09 2d
        E 8 b1 09 2f
        E 8 b1 09 30
        E 8 b1 09 31
        E 8 b1 09 33
        E 8 b1 09 34
        E 8 b1 09 35
        E 8 b1 09 36
        E 8 b1 09 37
        E 8 b1 09 38
        E 8 b1 09 39
        E 8 b1 09 3a
        E 8 b1 09 3b
        E 8 b1 09 3c
        E 8 b1 09 3c
        E 8 b1 09 3d
        E 8 b1 09 3d
        E 8 b1 09 3e
        E 8 b1 09 3e
        E 8 b1 09 3f
        E 8 b1 09 3f
        E 8 b1 09 3f
        E 8 b1 09 3f
        E 8 b1 09 3f
        E 8 b1 09 3f
        E 8 b1 09 3f
        E 8 b1 09 3f
        E 8 b1 09 3f
        E 8 b1 09 3e
        E 8 b1 09 3e
        E 8 b1 09 3d
        E 8 b1 09 3d
        E 8 b1 09 3c
        E 8 b1 09 3b
        E 8 b1 09 3a
        E 8 b1 09 3a
        E 8 b1 09 39
        E 8 b1 09 38
        E 8 b1 09 37
        E 8 b1 09 36
        E 8 b1 09 34
        E 8 b1 09 33
        E 8 b1 09 32
        E 8 b1 09 31
        E 8 b1 09 2f
        E 8 b1 09 2e
        E 8 b1 09 2c
        E 8 b1 09 2b
        E 8 b1 09 2a
        E 8 b1 09 28
        E 8 b1 09 27
        E 8 b1 09 25
        E 8 b1 09 23
        E 8 b1 09 22
        E 8 b1 09 20
        E 8 b1 09 1f
        E 8 b1 09 1d
        E 8 b1 09 1c
        E 8 b1 09 1a
        E 8 b1 09 18
        E 8 b1 09 17
        E 8 b1 09 15
        E 8 b1 09 14
        E 8 b1 09 13
        E 8 b1 09 11
        E 8 b1 09 10
        E 8 b1 09 0e
        E 8 b1 09 0d
        E 8 b1 09 0c
        E 8 b1 09 0b
        E 8 b1 09 09
        E 8 b1 09 08
        E 8 b1 09 07
        E 8 b1 09 06
        E 8 b1 09 05
        E 8 b1 09 05
        E 8 b1 09 04
        E 8 b1 09 03
        E 8 b1 09 02
        E 8 b1 09 02
        E 8 b1 09 01
        E 8 b1 09 01
        E 8 b1 09 00
        E 8 b1 09 00
        E 8 b1 09 00
        E 8 b1 09 00
        E 8 b1 09 00
        E 8 b1 09 00
        E 8 b1 09 00
        E 8 b1 09 00
        E 8 b1 09 00
        E 8 b1 09 01
        E 8 b1 09 01
        E 8 b1 09 02
        E 8 b1 09 02
        E 8 b1 09 03
        E 8 b1 09 03
        E 8 b1 09 04
        E 8 b1 09 05
        E 8 b1 09 06
        E 8 b1 09 07
        E 8 b1 09 08
        E 8 b1 09 09
        E 8 b1 09 0a
        E 8 b1 09 0b
        E 8 b1 09 0c
        E 8 b1 09 0e
        E 8 b1 09 0f
        E 8 b1 09 10
        E 8 b1 09 12
        E 8 b1 09 13
        E 8 b1 09 15
        E 8 b1 09 16
        E 8 b1 09 18
        E 8 b1 09 19
        E 8 b1 09 1b
        E 8 b1 09 1c
        E 8 b1 09 1e
        E 8 b1 09 20
        E 11 b1 09 20
        E 11 b1 09 21
        E 11 b1 09 23
        E 11 b1 09 24
        E 11 b1 09 26
        E 11 b1 09 27
        E 11 b1 09 29
        E 11 b1 09 2a
        E 11 b1 09 2c
        E 11 b1 09 2d
        E 11 b1 09 2f
        E 11 b1 09 30
        E 11 b1 09 31
        E 11 b1 09 33
        E 11 b1 09 34
        E 11 b1 09 35
        E 11 b1 09 36
        E 11 b1 09 37
        E 11 b1 09 38
        E 11 b1 09 39
        E 11 b1 09 3a
        E 11 b1 09 3b
        E 11 b1 09 3c
        E 11 b1 09 3c
        E 11 b1 09 3d
        E 11 b1 09 3d
        E 11 b1 09 3e
        E 11 b1 09 3e
        E 11 b1 09 3f
        E 11 b1 09 3f
        E 11 b1 09 3f
        E 11 b1 09 3f
        E 11 b1 09 3f
        E 11 b1 09 3f
        E 11 b1 09 3f
        E 11 b1 09 3f
        E 11 b1 09 3f
        E 11 b1 09 3e
        E 11 b1 09 3e
        E 11 b1 09 3d
        E 11 b1 09 3d
        E 11 b1 09 3c
        E 11 b1 09 3b
        E 11 b1 09 3a
        E 11 b1 09 3a
        E 11 b1 09 39
        E 11 b1 09 38
        E 11 b1 09 37
        E 11 b1 09 36
        E 11 b1 09 34
        E 11 b1 09 33
        E 11 b1 09 32
        E 11 b1 09 31
        E 11 b1 09 2f
        E 11 b1 09 2e
        E 11 b1 09 2c
        E 11 b1 09 2b
        E 11 b1 09 2a
        E 11 b1 09 28
        E 11 b1 09 27
        E 11 b1 09 25
        E 11 b1 09 23
        E 11 b1 09 22
        E 11 b1 09 20
        E 11 b1 09 1f
        E 11 b1 09 1d
        E 11 b1 09 1c
        E 11 b1 09 1a
        E 11 b1 09 18
        E 11 b1 09 17
        E 11 b1 09 15
        E 11 b1 09 14
        E 11 b1 09 13
        E 11 b1 09 11
        E 11 b1 09 10
        E 11 b1 09 0e
        E 11 b1 09 0d
        E 11 b1 09 0c
        E 11 b1 09 0b
        E 11 b1 09 09
        E 11 b1 09 08
        E 11 b1 09 07
        E 11 b1 09 06
        E 11 b1 09 05
        E 11 b1 09 05
        E 11 b1 09 04
        E 11 b1 09 03
        E 11 b1 09 02
        E 11 b1 09 02
        E 11 b1 09 01
        E 11 b1 09 01
        E 11 b1 09 00
        E 11 b1 09 00
        E 11 b1 09 00
        E 11 b1 09 00
        E 11 b1 09 00
        E 11 b1 09 00
        E 11 b1 09 00
        E 11 b1 09 00
        E 11 b1 09 00
        E 11 b1 09 01
        E 11 b1 09 01
        E 11 b1 09 02
        E 11 b1 09 02
        E 11 b1 09 03
        E 11 b1 09 03
        E 11 b1 09 04
        E 11 b1 09 05
        E 11 b1 09 06
        E 11 b1 09 07
        E 11 b1 09 08
        E 11 b1 09 09
        E 11 b1 09 0a
        E 11 b1 09 0b
        E 11 b1 09 0c
        E 11 b1 09 0e
        E 11 b1 09 0f
        E 11 b1 09 10
        E 11 b1 09 12
        E 11 b1 09 13
        E 11 b1 09 15
        E 11 b1 09 16
        E 11 b1 09 18
        E 11 b1 09 19
        E 11 b1 09 1b
        E 11 b1 09 1c
        E 11 b1 09 1e
        E 11 b1 09 20
        E 13 b1 09 40
        E 13 b1 09 43
        E 13 b1 09 46
        E 13 b1 09 49
        E 13 b1 09 4c
        E 13 b1 09 4f
        E 13 b1 09 52
        E 13 b1 09 55
        E 13 b1 09 58
        E 13 b1 09 5b
        E 13 b1 09 5e
        E 13 b1 09 60
        E 13 b1 09 63
        E 13 b1 09 66
        E 13 b1 09 68
        E 13 b1 09 6a
        E 13 b1 09 6d
        E 13 b1 09 6f
        E 13 b1 09 71
        E 13 b1 09 73
        E 13 b1 09 75
        E 13 b1 09 76
        E 13 b1 09 78
        E 13 b1 09 79
        E 13 b1 09 7a
        E 13 b1 09 7b
        E 13 b1 09 7c
        E 13 b1 09 7d
        E 13 b1 09 7e
        E 13 b1 09 7e
        E 13 b1 09 7f
        E 13 b1 09 7f
        E 13 b1 09 7f
        E 13 b1 09 7f
        E 13 b1 09 7f
        E 13 b1 09 7e
        E 13 b1 09 7e
        E 13 b1 09 7d
        E 13 b1 09 7c
        E 13 b1 09 7b
        E 13 b1 09 7a
        E 13 b1 09 78
        E 13 b1 09 77
        E 13 b1 09 75
        E 13 b1 09 74
        E 13 b1 09 72
        E 13 b1 09 70
        E 13 b1 09 6e
        E 13 b1 09 6c
        E 13 b1 09 69
        E 13 b1 09 67
        E 13 b1 09 64
        E 13 b1 09 62
        E 13 b1 09 5f
        E 13 b1 09 5c
        E 13 b1 09 59
        E 13 b1 09 57
        E 13 b1 09 54
        E 13 b1 09 51
        E 13 b1 09 4e
        E 13 b1 09 4a
        E 13 b1 09 47
        E 13 b1 09 44
        E 13 b1 09 41
        E 13 b1 09 3e
        E 13 b1 09 3b
        E 13 b1 09 38
        E 13 b1 09 35
        E 13 b1 09 31
        E 13 b1 09 2e
        E 13 b1 09 2b
        E 13 b1 09 28
        E 13 b1 09 26
        E 13 b1 09 23
        E 13 b1 09 20
        E 13 b1 09 1d
        E 13 b1 09 1b
        E 13 b1 09 18
        E 13 b1 09 16
        E 13 b1 09 13
        E 13 b1 09 11
        E 13 b1 09 0f
        E 13 b1 09 0d
        E 13 b1 09 0b
        E 13 b1 09 0a
        E 13 b1 09 08
        E 13 b1 09 07
        E 13 b1 09 05
        E 13 b1 09 04
        E 13 b1 09 03
        E 13 b1 09 02
        E 13 b1 09 01
        E 13 b1 09 01
        E 13 b1 09 00
        E 13 b1 09 00
        E 13 b1 09 00
        E 13 b1 09 00
        E 13 b1 09 00
        E 13 b1 09 01
        E 13 b1 09 01
        E 13 b1 09 02
        E 13 b1 09 03
        E 13 b1 09 04
        E 13 b1 09 05
        E 13 b1 09 06
        E 13 b1 09 07
        E 13 b1 09 09
        E 13 b1 09 0a
        E 13 b1 09 0c
        E 13 b1 09 0e
        E 13 b1 09 10
        E 13 b1 09 12
        E 13 b1 09 15
        E 13 b1 09 17
        E 13 b1 09 19
        E 13 b1 09 1c
        E 13 b1 09 1f
        E 13 b1 09 21
        E 13 b1 09 24
        E 13 b1 09 27
        E 13 b1 09 2a
        E 13 b1 09 2d
        E 13 b1 09 30
        E 13 b1 09 33
        E 13 b1 09 36
        E 13 b1 09 39
        E 13 b1 09 3c
        E 13 b1 09 40
        E 11 b1 09 39
        E 11 b1 09 3c
        E 11 b1 09 3f
        E 11 b1 09 41
        E 11 b1 09 44
        E 11 b1 09 47
        E 11 b1 09 49
        E 11 b1 09 4c
        E 11 b1 09 4f
        E 11 b1 09 51
        E 11 b1 09 54
        E 11 b1 09 56
        E 11 b1 09 59
        E 11 b1 09 5b
        E 11 b1 09 5d
        E 11 b1 09 5f
        E 11 b1 09 62
        E 11 b1 09 63
        E 11 b1 09 65
        E 11 b1 09 67
        E 11 b1 09 69
        E 11 b1 09 6a
        E 11 b1 09 6c
        E 11 b1 09 6c
        E 11 b1 09 6d
        E 11 b1 09 6e
        E 11 b1 09 6f
        E 11 b1 09 70
        E 11 b1 09 71
        E 11 b1 09 71
        E 11 b1 09 72
        E 11 b1 09 72
        E 11 b1 09 72
        E 11 b1 09 72
        E 11 b1 09 72
        E 11 b1 09 71
        E 11 b1 09 71
        E 11 b1 09 70
        E 11 b1 09 6f
        E 11 b1 09 6e
        E 11 b1 09 6d
        E 11 b1 09 6c
        E 11 b1 09 6b
        E 11 b1 09 69
        E 11 b1 09 68
        E 11 b1 09 66
        E 11 b1 09 64
        E 11 b1 09 63
        E 11 b1 09 61
        E 11 b1 09 5e
        E 11 b1 09 5c
        E 11 b1 09 5a
        E 11 b1 09 58
        E 11 b1 09 55
        E 11 b1 09 52
        E 11 b1 09 50
        E 11 b1 09 4e
        E 11 b1 09 4b
        E 11 b1 09 48
        E 11 b1 09 46
        E 11 b1 09 42
        E 11 b1 09 3f
        E 11 b1 09 3d
        E 11 b1 09 3a
        E 11 b1 09 37
        E 11 b1 09 35
        E 11 b1 09 32
        E 11 b1 09 2f
        E 11 b1 09 2c
        E 11 b1 09 29
        E 11 b1 09 26
        E 11 b1 09 24
        E 11 b1 09 22
        E 11 b1 09 1f
        E 11 b1 09 1c
        E 11 b1 09 1a
        E 11 b1 09 18
        E 11 b1 09 15
        E 11 b1 09 13
        E 11 b1 09 11
        E 11 b1 09 0f
        E 11 b1 09 0d
        E 11 b1 09 0b
        E 11 b1 09 09
        E 11 b1 09 09
        E 11 b1 09 07
        E 11 b1 09 06
        E 11 b1 09 04
        E 11 b1 09 03
        E 11 b1 09 02
        E 11 b1 09 01
        E 11 b1 09 00
        E 11 b1 09 00
        E 11 b1 09 00
        E 11 b1 09 00
        E 11 b1 09 00
        E 11 b1 09 00
        E 11 b1 09 00
        E 11 b1 09 00
        E 11 b1 09 00
        E 11 b1 09 01
        E 11 b1 09 02
        E 11 b1 09 03
        E 11 b1 09 04
        E 11 b1 09 05
        E 11 b1 09 06
        E 11 b1 09 08
        E 11 b1 09 09
        E 11 b1 09 0a
        E 11 b1 09 0c
        E 11 b1 09 0e
        E 11 b1 09 10
        E 11 b1 09 12
        E 11 b1 09 14
        E 11 b1 09 16
        E 11 b1 09 19
        E 11 b1 09 1b
        E 11 b1 09 1d
        E 11 b1 09 20
        E 11 b1 09 23
        E 11 b1 09 25
        E 11 b1 09 28
        E 11 b1 09 2b
        E 11 b1 09 2d
        E 11 b1 09 30
        E 11 b1 09 33
        E 11 b1 09 36
        E 11 b1 09 39
        E 8 b1 09 20
        E 8 b1 09 21
        E 8 b1 09 23
        E 8 b1 09 24
        E 8 b1 09 26
        E 8 b1 09 27
        E 8 b1 09 29
        E 8 b1 09 2a
        E 8 b1 09 2c
        E 8 b1 09 2d
        E 8 b1 09 2f
        E 8 b1 09 30
        E 8 b1 09 31
        E 8 b1 09 33
        E 8 b1 09 34
        E 8 b1 09 35
        E 8 b1 09 36
        E 8 b1 09 37
        E 8 b1 09 38
        E 8 b1 09 39
        E 8 b1 09 3a
        E 8 b1 09 3b
        E 8 b1 09 3c
        E 8 b1 09 3c
        E 8 b1 09 3d
        E 8 b1 09 3d
        E 8 b1 09 3e
        E 8 b1 09 3e
        E 8 b1 09 3f
        E 8 b1 09 3f
        E 8 b1 09 3f
        E 8 b1 09 3f
        E 8 b1 09 3f
        E 8 b1 09 3f
        E 8 b1 09 3f
        E 8 b1 09 3f
        E 8 b1 09 3f
        E 8 b1 09 3e
        E 8 b1 09 3e
        E 8 b1 09 3d
        E 8 b1 09 3d
        E 8 b1 09 3c
        E 8 b1 09 3b
        E 8 b1 09 3a
        E 8 b1 09 3a
        E 8 b1 09 39
        E 8 b1 09 38
        E 8 b1 09 37
        E 8 b1 09 36
        E 8 b1 09 34
        E 8 b1 09 33
        E 8 b1 09 32
        E 8 b1 09 31
        E 8 b1 09 2f
        E 8 b1 09 2e
        E 8 b1 09 2c
        E 8 b1 09 2b
        E 8 b1 09 2a
        E 8 b1 09 28
        E 8 b1 09 27
        E 8 b1 09 25
        E 8 b1 09 23
        E 8 b1 09 22
        E 8 b1 09 20
        E 8 b1 09 1f
        E 8 b1 09 1d
        E 8 b1 09 1c
        E 8 b1 09 1a
        E 8 b1 09 18
        E 8 b1 09 17
        E 8 b1 09 15
        E 8 b1 09 14
        E 8 b1 09 13
        E 8 b1 09 11
        E 8 b1 09 10
        E 8 b1 09 0e
        E 8 b1 09 0d
        E 8 b1 09 0c
        E 8 b1 09 0b
        E 8 b1 09 09
        E 8 b1 09 08
        E 8 b1 09 07
        E 8 b1 09 06
        E 8 b1 09 05
        E 8 b1 09 05
        E 8 b1 09 04
        E 8 b1 09 03
        E 8 b1 09 02
        E 8 b1 09 02
        E 8 b1 09 01
        E 8 b1 09 01
        E 8 b1 09 00
        E 8 b1 09 00
        E 8 b1 09 00
        E 8 b1 09 00
        E 8 b1 09 00
        E 8 b1 09 00
        E 8 b1 09 00
        E 8 b1 09 00
        E 8 b1 09 00
        E 8 b1 09 01
        E 8 b1 09 01
        E 8 b1 09 02
        E 8 b1 09 02
        E 8 b1 09 03
        E 8 b1 09 03
        E 8 b1 09 04
        E 8 b1 09 05
        E 8 b1 09 06
        E 8 b1 09 07
        E 8 b1 09 08
        E 8 b1 09 09
        E 8 b1 09 0a
        E 8 b1 09 0b
        E 8 b1 09 0c
        E 8 b1 09 0e
        E 8 b1 09 0f
        E 8 b1 09 10
        E 8 b1 09 12
        E 8 b1 09 13
        E 8 b1 09 15
        E 8 b1 09 16
        E 8 b1 09 18
        E 8 b1 09 19
        E 8 b1 09 1b
        E 8 b1 09 1c
        E 8 b1 09 1e
        E 8 b1 09 20
        E 8 b1 09 20
        E 8 b1 09 21
        E 8 b1 09 23
        E 8 b1 09 24
        E 8 b1 09 26
        E 8 b1 09 27
        E 8 b1 09 29
        E 8 b1 09 2a
        E 8 b1 09 2c
        E 8 b1 09 2d
        E 8 b1 09 2f
        E 8 b1 09 30
        E 8 b1 09 31
        E 8 b1 09 33
        E 8 b1 09 34
        E 8 b1 09 35
        E 8 b1 09 36
        E 8 b1 09 37
        E 8 b1 09 38
        E 8 b1 09 39
        E 8 b1 09 3a
        E 8 b1 09 3b
        E 8 b1 09 3c
        E 8 b1 09 3c
        E 8 b1 09 3d
        E 8 b1 09 3d
        E 8 b1 09 3e
        E 8 b1 09 3e
        E 8 b1 09 3f
        E 8 b1 09 3f
        E 8 b1 09 3f
        E 8 b1 09 3f
        E 8 b1 09 3f
        E 8 b1 09 3f
        E 8 b1 09 3f
        E 8 b1 09 3f
        E 8 b1 09 3f
        E 8 b1 09 3e
        E 8 b1 09 3e
        E 8 b1 09 3d
        E 8 b1 09 3d
        E 8 b1 09 3c
        E 8 b1 09 3b
        E 8 b1 09 3a
        E 8 b1 09 3a
        E 8 b1 09 39
        E 8 b1 09 38
        E 8 b1 09 37
        E 8 b1 09 36
        E 8 b1 09 34
        E 8 b1 09 33
        E 8 b1 09 32
        E 8 b1 09 31
        E 8 b1 09 2f
        E 8 b1 09 2e
        E 8 b1 09 2c
        E 8 b1 09 2b
        E 8 b1 09 2a
        E 8 b1 09 28
        E 8 b1 09 27
        E 8 b1 09 25
        E 8 b1 09 23
        E 8 b1 09 22
        E 8 b1 09 20
        E 8 b1 09 1f
        E 8 b1 09 1d
        E 8 b1 09 1c
        E 8 b1 09 1a
        E 8 b1 09 18
        E 8 b1 09 17
        E 8 b1 09 15
        E 8 b1 09 14
        E 8 b1 09 13
        E 8 b1 09 11
        E 8 b1 09 10
        E 8 b1 09 0e
        E 8 b1 09 0d
        E 8 b1 09 0c
        E 8 b1 09 0b
        E 8 b1 09 09
        E 8 b1 09 08
        E 8 b1 09 07
        E 8 b1 09 06
        E 8 b1 09 05
        E 8 b1 09 05
        E 8 b1 09 04
        E 8 b1 09 03
        E 8 b1 09 02
        E 8 b1 09 02
        E 8 b1 09 01
        E 8 b1 09 01
        E 8 b1 09 00
        E 8 b1 09 00
        E 8 b1 09 00
        E 8 b1 09 00
        E 8 b1 09 00
        E 8 b1 09 00
        E 8 b1 09 00
        E 8 b1 09 00
        E 8 b1 09 00
        E 8 b1 09 01
        E 8 b1 09 01
        E 8 b1 09 02
        E 8 b1 09 02
        E 8 b1 09 03
        E 8 b1 09 03
        E 8 b1 09 04
        E 8 b1 09 05
        E 8 b1 09 06
        E 8 b1 09 07
        E 8 b1 09 08
        E 8 b1 09 09
        E 8 b1 09 0a
        E 8 b1 09 0b
        E 8 b1 09 0c
        E 8 b1 09 0e
        E 8 b1 09 0f
        E 8 b1 09 10
        E 8 b1 09 12
        E 8 b1 09 13
        E 8 b1 09 15
        E 8 b1 09 16
        E 8 b1 09 18
        E 8 b1 09 19
        E 8 b1 09 1b
        E 8 b1 09 1c
        E 8 b1 09 1e
        E 8 b1 09 20
        E 17 b1 09 2c
        E 17 b1 09 2e
        E 17 b1 09 31
        E 17 b1 09 33
        E 17 b1 09 35
        E 17 b1 09 37
        E 17 b1 09 39
        E 17 b1 09 3b
        E 17 b1 09 3d
        E 17 b1 09 3f
        E 17 b1 09 41
        E 17 b1 09 43
        E 17 b1 09 45
        E 17 b1 09 47
        E 17 b1 09 48
        E 17 b1 09 4a
        E 17 b1 09 4c
        E 17 b1 09 4d
        E 17 b1 09 4f
        E 17 b1 09 50
        E 17 b1 09 51
        E 17 b1 09 52
        E 17 b1 09 54
        E 17 b1 09 54
        E 17 b1 09 55
        E 17 b1 09 56
        E 17 b1 09 56
        E 17 b1 09 57
        E 17 b1 09 58
        E 17 b1 09 58
        E 17 b1 09 58
        E 17 b1 09 58
        E 17 b1 09 58
        E 17 b1 09 58
        E 17 b1 09 58
        E 17 b1 09 58
        E 17 b1 09 58
        E 17 b1 09 57
        E 17 b1 09 56
        E 17 b1 09 56
        E 17 b1 09 55
        E 17 b1 09 54
        E 17 b1 09 53
        E 17 b1 09 51
        E 17 b1 09 51
        E 17 b1 09 4f
        E 17 b1 09 4e
        E 17 b1 09 4d
        E 17 b1 09 4b
        E 17 b1 09 49
        E 17 b1 09 48
        E 17 b1 09 46
        E 17 b1 09 44
        E 17 b1 09 42
        E 17 b1 09 40
        E 17 b1 09 3e
        E 17 b1 09 3c
        E 17 b1 09 3a
        E 17 b1 09 38
        E 17 b1 09 36
        E 17 b1 09 33
        E 17 b1 09 31
        E 17 b1 09 2f
        E 17 b1 09 2d
        E 17 b1 09 2b
        E 17 b1 09 29
        E 17 b1 09 27
        E 17 b1 09 25
        E 17 b1 09 22
        E 17 b1 09 20
        E 17 b1 09 1e
        E 17 b1 09 1c
        E 17 b1 09 1a
        E 17 b1 09 18
        E 17 b1 09 16
        E 17 b1 09 14
        E 17 b1 09 12
        E 17 b1 09 10
        E 17 b1 09 0f
        E 17 b1 09 0d
        E 17 b1 09 0b
        E 17 b1 09 0a
        E 17 b1 09 09
        E 17 b1 09 07
        E 17 b1 09 07
        E 17 b1 09 05
        E 17 b1 09 04
        E 17 b1 09 03
        E 17 b1 09 02
        E 17 b1 09 02
        E 17 b1 09 01
        E 17 b1 09 00
        E 17 b1 09 00
        E 17 b1 09 00
        E 17 b1 09 00
        E 17 b1 09 00
        E 17 b1 09 00
        E 17 b1 09 00
        E 17 b1 09 00
        E 17 b1 09 00
        E 17 b1 09 01
        E 17 b1 09 02
        E 17 b1 09 02
        E 17 b1 09 03
        E 17 b1 09 04
        E 17 b1 09 04
        E 17 b1 09 06
        E 17 b1 09 07
        E 17 b1 09 08
        E 17 b1 09 09
        E 17 b1 09 0b
        E 17 b1 09 0c
        E 17 b1 09 0e
        E 17 b1 09 10
        E 17 b1 09 11
        E 17 b1 09 13
        E 17 b1 09 15
        E 17 b1 09 17
        E 17 b1 09 19
        E 17 b1 09 1b
        E 17 b1 09 1d
        E 17 b1 09 1f
        E 17 b1 09 21
        E 17 b1 09 23
        E 17 b1 09 25
        E 17 b1 09 27
        E 17 b1 09 2a
        E 17 b1 09 2c
        E 15 b1 09 33
        E 15 b1 09 35
        E 15 b1 09 37
        E 15 b1 09 3a
        E 15 b1 09 3c
        E 15 b1 09 3f
        E 15 b1 09 41
        E 15 b1 09 44
        E 15 b1 09 46
        E 15 b1 09 48
        E 15 b1 09 4b
        E 15 b1 09 4c
        E 15 b1 09 4f
        E 15 b1 09 51
        E 15 b1 09 53
        E 15 b1 09 54
        E 15 b1 09 57
        E 15 b1 09 58
        E 15 b1 09 5a
        E 15 b1 09 5b
        E 15 b1 09 5d
        E 15 b1 09 5e
        E 15 b1 09 5f
        E 15 b1 09 60
        E 15 b1 09 61
        E 15 b1 09 62
        E 15 b1 09 63
        E 15 b1 09 63
        E 15 b1 09 64
        E 15 b1 09 64
        E 15 b1 09 65
        E 15 b1 09 65
        E 15 b1 09 65
        E 15 b1 09 65
        E 15 b1 09 65
        E 15 b1 09 64
        E 15 b1 09 64
        E 15 b1 09 63
        E 15 b1 09 63
        E 15 b1 09 62
        E 15 b1 09 61
        E 15 b1 09 5f
        E 15 b1 09 5f
        E 15 b1 09 5d
        E 15 b1 09 5c
        E 15 b1 09 5b
        E 15 b1 09 59
        E 15 b1 09 57
        E 15 b1 09 56
        E 15 b1 09 54
        E 15 b1 09 52
        E 15 b1 09 50
        E 15 b1 09 4e
        E 15 b1 09 4c
        E 15 b1 09 49
        E 15 b1 09 47
        E 15 b1 09 45
        E 15 b1 09 43
        E 15 b1 09 40
        E 15 b1 09 3e
        E 15 b1 09 3b
        E 15 b1 09 38
        E 15 b1 09 36
        E 15 b1 09 33
        E 15 b1 09 31
        E 15 b1 09 2f
        E 15 b1 09 2c
        E 15 b1 09 2a
        E 15 b1 09 27
        E 15 b1 09 24
        E 15 b1 09 22
        E 15 b1 09 1f
        E 15 b1 09 1e
        E 15 b1 09 1b
        E 15 b1 09 19
        E 15 b1 09 17
        E 15 b1 09 15
        E 15 b1 09 13
        E 15 b1 09 11
        E 15 b1 09 0f
        E 15 b1 09 0d
        E 15 b1 09 0b
        E 15 b1 09 0a
        E 15 b1 09 08
        E 15 b1 09 07
        E 15 b1 09 06
        E 15 b1 09 05
        E 15 b1 09 03
        E 15 b1 09 03
        E 15 b1 09 02
        E 15 b1 09 01
        E 15 b1 09 00
        E 15 b1 09 00
        E 15 b1 09 00
        E 15 b1 09 00
        E 15 b1 09 00
        E 15 b1 09 00
        E 15 b1 09 00
        E 15 b1 09 00
        E 15 b1 09 00
        E 15 b1 09 01
        E 15 b1 09 02
        E 15 b1 09 03
        E 15 b1 09 03
        E 15 b1 09 04
        E 15 b1 09 05
        E 15 b1 09 07
        E 15 b1 09 07
        E 15 b1 09 09
        E 15 b1 09 0b
        E 15 b1 09 0c
        E 15 b1 09 0e
        E 15 b1 09 10
        E 15 b1 09 12
        E 15 b1 09 14
        E 15 b1 09 16
        E 15 b1 09 18
        E 15 b1 09 1a
        E 15 b1 09 1c
        E 15 b1 09 1f
        E 15 b1 09 21
        E 15 b1 09 24
        E 15 b1 09 26
        E 15 b1 09 28
        E 15 b1 09 2b
        E 15 b1 09 2d
        E 15 b1 09 2f
        E 15 b1 09 33
        E 17 b1 09 06
        E 17 b1 09 06
        E 17 b1 09 07
        E 17 b1 09 07
        E 17 b1 09 07
        E 17 b1 09 07
        E 17 b1 09 08
        E 17 b1 09 08
        E 17 b1 09 08
        E 17 b1 09 09
        E 17 b1 09 09
        E 17 b1 09 09
        E 17 b1 09 09
        E 17 b1 09 0a
        E 17 b1 09 0a
        E 17 b1 09 0a
        E 17 b1 09 0a
        E 17 b1 09 0b
        E 17 b1 09 0b
        E 17 b1 09 0b
        E 17 b1 09 0b
        E 17 b1 09 0b
        E 17 b1 09 0c
        E 17 b1 09 0c
        E 17 b1 09 0c
        E 17 b1 09 0c
        E 17 b1 09 0c
        E 17 b1 09 0c
        E 17 b1 09 0c
        E 17 b1 09 0c
        E 17 b1 09 0c
        E 17 b1 09 0c
        E 17 b1 09 0c
        E 17 b1 09 0c
        E 17 b1 09 0c
        E 17 b1 09 0c
        E 17 b1 09 0c
        E 17 b1 09 0c
        E 17 b1 09 0c
        E 17 b1 09 0c
        E 17 b1 09 0c
        E 17 b1 09 0c
        E 17 b1 09 0b
        E 17 b1 09 0b
        E 17 b1 09 0b
        E 17 b1 09 0b
        E 17 b1 09 0b
        E 17 b1 09 0b
        E 17 b1 09 0a
        E 17 b1 09 0a
        E 17 b1 09 0a
        E 17 b1 09 0a
        E 17 b1 09 09
        E 17 b1 09 09
        E 17 b1 09 09
        E 17 b1 09 08
        E 17 b1 09 08
        E 17 b1 09 08
        E 17 b1 09 08
        E 17 b1 09 07
        E 17 b1 09 07
        E 17 b1 09 07
        E 17 b1 09 06
        E 17 b1 09 06
        E 17 b1 09 06
        E 17 b1 09 05
        E 17 b1 09 05
        E 17 b1 09 05
        E 17 b1 09 04
        E 17 b1 09 04
        E 17 b1 09 04
        E 17 b1 09 04
        E 17 b1 09 03
        E 17 b1 09 03
        E 17 b1 09 03
        E 17 b1 09 02
        E 17 b1 09 02
        E 17 b1 09 02
        E 17 b1 09 02
        E 17 b1 09 01
        E 17 b1 09 01
        E 17 b1 09 01
        E 17 b1 09 01
        E 17 b1 09 01
        E 17 b1 09 01
        E 17 b1 09 00
        E 17 b1 09 00
        E 17 b1 09 00
        E 17 b1 09 00
        E 17 b1 09 00
        E 17 b1 09 00
        E 17 b1 09 00
        E 17 b1 09 00
        E 17 b1 09 00
        E 17 b1 09 00
        E 17 b1 09 00
        E 17 b1 09 00
        E 17 b1 09 00
        E 17 b1 09 00
        E 17 b1 09 00
        E 17 b1 09 00
        E 17 b1 09 00
        E 17 b1 09 00
        E 17 b1 09 00
        E 17 b1 09 00
        E 17 b1 09 00
        E 17 b1 09 00
        E 17 b1 09 01
        E 17 b1 09 01
        E 17 b1 09 01
        E 17 b1 09 01
        E 17 b1 09 01
        E 17 b1 09 02
        E 17 b1 09 02
        E 17 b1 09 02
        E 17 b1 09 02
        E 17 b1 09 03
        E 17 b1 09 03
        E 17 b1 09 03
        E 17 b1 09 03
        E 17 b1 09 04
        E 17 b1 09 04
        E 17 b1 09 04
        E 17 b1 09 05
        E 17 b1 09 05
        E 17 b1 09 05
        E 17 b1 09 06
        E 17 b1 09 06
        E 15 b1 09 19
        E 15 b1 09 1a
        E 15 b1 09 1c
        E 15 b1 09 1d
        E 15 b1 09 1e
        E 15 b1 09 1f
        E 15 b1 09 20
        E 15 b1 09 22
        E 15 b1 09 23
        E 15 b1 09 24
        E 15 b1 09 25
        E 15 b1 09 26
        E 15 b1 09 27
        E 15 b1 09 28
        E 15 b1 09 29
        E 15 b1 09 2a
        E 15 b1 09 2b
        E 15 b1 09 2c
        E 15 b1 09 2d
        E 15 b1 09 2e
        E 15 b1 09 2e
        E 15 b1 09 2f
        E 15 b1 09 30
        E 15 b1 09 30
        E 15 b1 09 30
        E 15 b1 09 31
        E 15 b1 09 31
        E 15 b1 09 32
        E 15 b1 09 32
        E 15 b1 09 32
        E 15 b1 09 32
        E 15 b1 09 32
        E 15 b1 09 32
        E 15 b1 09 32
        E 15 b1 09 32
        E 15 b1 09 32
        E 15 b1 09 32
        E 15 b1 09 32
        E 15 b1 09 31
        E 15 b1 09 31
        E 15 b1 09 30
        E 15 b1 09 30
        E 15 b1 09 2f
        E 15 b1 09 2e
        E 15 b1 09 2e
        E 15 b1 09 2d
        E 15 b1 09 2c
        E 15 b1 09 2c
        E 15 b1 09 2b
        E 15 b1 09 2a
        E 15 b1 09 29
        E 15 b1 09 28
        E 15 b1 09 27
        E 15 b1 09 26
        E 15 b1 09 24
        E 15 b1 09 23
        E 15 b1 09 22
        E 15 b1 09 21
        E 15 b1 09 20
        E 15 b1 09 1f
        E 15 b1 09 1d
        E 15 b1 09 1c
        E 15 b1 09 1b
        E 15 b1 09 1a
        E 15 b1 09 18
        E 15 b1 09 17
        E 15 b1 09 16
        E 15 b1 09 15
        E 15 b1 09 13
        E 15 b1 09 12
        E 15 b1 09 11
        E 15 b1 09 10
        E 15 b1 09 0f
        E 15 b1 09 0e
        E 15 b1 09 0c
        E 15 b1 09 0b
        E 15 b1 09 0a
        E 15 b1 09 09
        E 15 b1 09 08
        E 15 b1 09 07
        E 15 b1 09 06
        E 15 b1 09 06
        E 15 b1 09 05
        E 15 b1 09 04
        E 15 b1 09 04
        E 15 b1 09 03
        E 15 b1 09 02
        E 15 b1 09 02
        E 15 b1 09 01
        E 15 b1 09 01
        E 15 b1 09 00
        E 15 b1 09 00
        E 15 b1 09 00
        E 15 b1 09 00
        E 15 b1 09 00
        E 15 b1 09 00
        E 15 b1 09 00
        E 15 b1 09 00
        E 15 b1 09 00
        E 15 b1 09 00
        E 15 b1 09 00
        E 15 b1 09 01
        E 15 b1 09 01
        E 15 b1 09 02
        E 15 b1 09 02
        E 15 b1 09 02
        E 15 b1 09 03
        E 15 b1 09 04
        E 15 b1 09 04
        E 15 b1 09 05
        E 15 b1 09 06
        E 15 b1 09 07
        E 15 b1 09 08
        E 15 b1 09 09
        E 15 b1 09 0a
        E 15 b1 09 0b
        E 15 b1 09 0c
        E 15 b1 09 0d
        E 15 b1 09 0e
        E 15 b1 09 0f
        E 15 b1 09 10
        E 15 b1 09 12
        E 15 b1 09 13
        E 15 b1 09 14
        E 15 b1 09 15
        E 15 b1 09 16
        E 15 b1 09 18
        E 15 b1 09 19
        E 8 b1 09 2c
        E 8 b1 09 2e
        E 8 b1 09 31
        E 8 b1 09 33
        E 8 b1 09 35
        E 8 b1 09 37
        E 8 b1 09 39
        E 8 b1 09 3b
        E 8 b1 09 3d
        E 8 b1 09 3f
        E 8 b1 09 41
        E 8 b1 09 43
        E 8 b1 09 45
        E 8 b1 09 47
        E 8 b1 09 48
        E 8 b1 09 4a
        E 8 b1 09 4c
        E 8 b1 09 4d
        E 8 b1 09 4f
        E 8 b1 09 50
        E 8 b1 09 51
        E 8 b1 09 52
        E 8 b1 09 54
        E 8 b1 09 54
        E 8 b1 09 55
        E 8 b1 09 56
        E 8 b1 09 56
        E 8 b1 09 57
        E 8 b1 09 58
        E 8 b1 09 58
        E 8 b1 09 58
        E 8 b1 09 58
        E 8 b1 09 58
        E 8 b1 09 58
        E 8 b1 09 58
        E 8 b1 09 58
        E 8 b1 09 58
        E 8 b1 09 57
        E 8 b1 09 56
        E 8 b1 09 56
        E 8 b1 09 55
        E 8 b1 09 54
        E 8 b1 09 53
        E 8 b1 09 51
        E 8 b1 09 51
        E 8 b1 09 4f
        E 8 b1 09 4e
        E 8 b1 09 4d
        E 8 b1 09 4b
        E 8 b1 09 49
        E 8 b1 09 48
        E 8 b1 09 46
        E 8 b1 09 44
        E 8 b1 09 42
        E 8 b1 09 40
        E 8 b1 09 3e
        E 8 b1 09 3c
        E 8 b1 09 3a
        E 8 b1 09 38
        E 8 b1 09 36
        E 8 b1 09 33
        E 8 b1 09 31
        E 8 b1 09 2f
        E 8 b1 09 2d
        E 8 b1 09 2b
        E 8 b1 09 29
        E 8 b1 09 27
        E 8 b1 09 25
        E 8 b1 09 22
        E 8 b1 09 20
        E 8 b1 09 1e
        E 8 b1 09 1c
        E 8 b1 09 1a
        E 8 b1 09 18
        E 8 b1 09 16
        E 8 b1 09 14
        E 8 b1 09 12
        E 8 b1 09 10
        E 8 b1 09 0f
        E 8 b1 09 0d
        E 8 b1 09 0b
        E 8 b1 09 0a
        E 8 b1 09 09
        E 8 b1 09 07
        E 8 b1 09 07
        E 8 b1 09 05
        E 8 b1 09 04
        E 8 b1 09 03
        E 8 b1 09 02
        E 8 b1 09 02
        E 8 b1 09 01
        E 8 b1 09 00
        E 8 b1 09 00
        E 8 b1 09 00
        E 8 b1 09 00
        E 8 b1 09 00
        E 8 b1 09 00
        E 8 b1 09 00
        E 8 b1 09 00
        E 8 b1 09 00
        E 8 b1 09 01
        E 8 b1 09 02
        E 8 b1 09 02
        E 8 b1 09 03
        E 8 b1 09 04
        E 8 b1 09 04
        E 8 b1 09 06
        E 8 b1 09 07
        E 8 b1 09 08
        E 8 b1 09 09
        E 8 b1 09 0b
        E 8 b1 09 0c
        E 8 b1 09 0e
        E 8 b1 09 10
        E 8 b1 09 11
        E 8 b1 09 13
        E 8 b1 09 15
        E 8 b1 09 17
        E 8 b1 09 19
        E 8 b1 09 1b
        E 8 b1 09 1d
        E 8 b1 09 1f
        E 8 b1 09 21
        E 8 b1 09 23
        E 8 b1 09 25
        E 8 b1 09 27
        E 8 b1 09 2a
        E 8 b1 09 2c
        E 8 b1 09 20
        E 8 b1 09 21
        E 8 b1 09 23
        E 8 b1 09 24
        E 8 b1 09 26
        E 8 b1 09 27
        E 8 b1 09 29
        E 8 b1 09 2a
        E 8 b1 09 2c
        E 8 b1 09 2d
        E 8 b1 09 2f
        E 8 b1 09 30
        E 8 b1 09 31
        E 8 b1 09 33
        E 8 b1 09 34
        E 8 b1 09 35
        E 8 b1 09 36
        E 8 b1 09 37
        E 8 b1 09 38
        E 8 b1 09 39
        E 8 b1 09 3a
        E 8 b1 09 3b
        E 8 b1 09 3c
        E 8 b1 09 3c
        E 8 b1 09 3d
        E 8 b1 09 3d
        E 8 b1 09 3e
        E 8 b1 09 3e
        E 8 b1 09 3f
        E 8 b1 09 3f
        E 8 b1 09 3f
        E 8 b1 09 3f
        E 8 b1 09 3f
        E 8 b1 09 3f
        E 8 b1 09 3f
        E 8 b1 09 3f
        E 8 b1 09 3f
        E 8 b1 09 3e
        E 8 b1 09 3e
        E 8 b1 09 3d
        E 8 b1 09 3d
        E 8 b1 09 3c
        E 8 b1 09 3b
        E 8 b1 09 3a
        E 8 b1 09 3a
        E 8 b1 09 39
        E 8 b1 09 38
        E 8 b1 09 37
        E 8 b1 09 36
        E 8 b1 09 34
        E 8 b1 09 33
        E 8 b1 09 32
        E 8 b1 09 31
        E 8 b1 09 2f
        E 8 b1 09 2e
        E 8 b1 09 2c
        E 8 b1 09 2b
        E 8 b1 09 2a
        E 8 b1 09 28
        E 8 b1 09 27
        E 8 b1 09 25
        E 8 b1 09 23
        E 8 b1 09 22
        E 8 b1 09 20
        E 8 b1 09 1f
        E 8 b1 09 1d
        E 8 b1 09 1c
        E 8 b1 09 1a
        E 8 b1 09 18
        E 8 b1 09 17
        E 8 b1 09 15
        E 8 b1 09 14
        E 8 b1 09 13
        E 8 b1 09 11
        E 8 b1 09 10
        E 8 b1 09 0e
        E 8 b1 09 0d
        E 8 b1 09 0c
        E 8 b1 09 0b
        E 8 b1 09 09
        E 8 b1 09 08
        E 8 b1 09 07
        E 8 b1 09 06
        E 8 b1 09 05
        E 8 b1 09 05
        E 8 b1 09 04
        E 8 b1 09 03
        E 8 b1 09 02
        E 8 b1 09 02
        E 8 b1 09 01
        E 8 b1 09 01
        E 8 b1 09 00
        E 8 b1 09 00
        E 8 b1 09 00
        E 8 b1 09 00
        E 8 b1 09 00
        E 8 b1 09 00
        E 8 b1 09 00
        E 8 b1 09 00
        E 8 b1 09 00
        E 8 b1 09 01
        E 8 b1 09 01
        E 8 b1 09 02
        E 8 b1 09 02
        E 8 b1 09 03
        E 8 b1 09 03
        E 8 b1 09 04
        E 8 b1 09 05
        E 8 b1 09 06
        E 8 b1 09 07
        E 8 b1 09 08
        E 8 b1 09 09
        E 8 b1 09 0a
        E 8 b1 09 0b
        E 8 b1 09 0c
        E 8 b1 09 0e
        E 8 b1 09 0f
        E 8 b1 09 10
        E 8 b1 09 12
        E 8 b1 09 13
        E 8 b1 09 15
        E 8 b1 09 16
        E 8 b1 09 18
        E 8 b1 09 19
        E 8 b1 09 1b
        E 8 b1 09 1c
        E 8 b1 09 1e
        E 8 b1 09 20
        E 11 b1 09 20
        E 11 b1 09 21
        E 11 b1 09 23
        E 11 b1 09 24
        E 11 b1 09 26
        E 11 b1 09 27
        E 11 b1 09 29
        E 11 b1 09 2a
        E 11 b1 09 2c
        E 11 b1 09 2d
        E 11 b1 09 2f
        E 11 b1 09 30
        E 11 b1 09 31
        E 11 b1 09 33
        E 11 b1 09 34
        E 11 b1 09 35
        E 11 b1 09 36
        E 11 b1 09 37
        E 11 b1 09 38
        E 11 b1 09 39
        E 11 b1 09 3a
        E 11 b1 09 3b
        E 11 b1 09 3c
        E 11 b1 09 3c
        E 11 b1 09 3d
        E 11 b1 09 3d
        E 11 b1 09 3e
        E 11 b1 09 3e
        E 11 b1 09 3f
        E 11 b1 09 3f
        E 11 b1 09 3f
        E 11 b1 09 3f
        E 11 b1 09 3f
        E 11 b1 09 3f
        E 11 b1 09 3f
        E 11 b1 09 3f
        E 11 b1 09 3f
        E 11 b1 09 3e
        E 11 b1 09 3e
        E 11 b1 09 3d
        E 11 b1 09 3d
        E 11 b1 09 3c
        E 11 b1 09 3b
        E 11 b1 09 3a
        E 11 b1 09 3a
        E 11 b1 09 39
        E 11 b1 09 38
        E 11 b1 09 37
        E 11 b1 09 36
        E 11 b1 09 34
        E 11 b1 09 33
        E 11 b1 09 32
        E 11 b1 09 31
        E 11 b1 09 2f
        E 11 b1 09 2e
        E 11 b1 09 2c
        E 11 b1 09 2b
        E 11 b1 09 2a
        E 11 b1 09 28
        E 11 b1 09 27
        E 11 b1 09 25
        E 11 b1 09 23
        E 11 b1 09 22
        E 11 b1 09 20
        E 11 b1 09 1f
        E 11 b1 09 1d
        E 11 b1 09 1c
        E 11 b1 09 1a
        E 11 b1 09 18
        E 11 b1 09 17
        E 11 b1 09 15
        E 11 b1 09 14
        E 11 b1 09 13
        E 11 b1 09 11
        E 11 b1 09 10
        E 11 b1 09 0e
        E 11 b1 09 0d
        E 11 b1 09 0c
        E 11 b1 09 0b
        E 11 b1 09 09
        E 11 b1 09 08
        E 11 b1 09 07
        E 11 b1 09 06
        E 11 b1 09 05
        E 11 b1 09 05
        E 11 b1 09 04
        E 11 b1 09 03
        E 11 b1 09 02
        E 11 b1 09 02
        E 11 b1 09 01
        E 11 b1 09 01
        E 11 b1 09 00
        E 11 b1 09 00
        E 11 b1 09 00
        E 11 b1 09 00
        E 11 b1 09 00
        E 11 b1 09 00
        E 11 b1 09 00
        E 11 b1 09 00
        E 11 b1 09 00
        E 11 b1 09 01
        E 11 b1 09 01
        E 11 b1 09 02
        E 11 b1 09 02
        E 11 b1 09 03
        E 11 b1 09 03
        E 11 b1 09 04
        E 11 b1 09 05
        E 11 b1 09 06
        E 11 b1 09 07
        E 11 b1 09 08
        E 11 b1 09 09
        E 11 b1 09 0a
        E 11 b1 09 0b
        E 11 b1 09 0c
        E 11 b1 09 0e
        E 11 b1 09 0f
        E 11 b1 09 10
        E 11 b1 09 12
        E 11 b1 09 13
        E 11 b1 09 15
        E 11 b1 09 16
        E 11 b1 09 18
        E 11 b1 09 19
        E 11 b1 09 1b
        E 11 b1 09 1c
        E 11 b1 09 1e
        E 11 b1 09 20
        E 13 b1 09 40
        E 13 b1 09 43
        E 13 b1 09 46
        E 13 b1 09 49
        E 13 b1 09 4c
        E 13 b1 09 4f
        E 13 b1 09 52
        E 13 b1 09 55
        E 13 b1 09 58
        E 13 b1 09 5b
        E 13 b1 09 5e
        E 13 b1 09 60
        E 13 b1 09 63
        E 13 b1 09 66
        E 13 b1 09 68
        E 13 b1 09 6a
        E 13 b1 09 6d
        E 13 b1 09 6f
        E 13 b1 09 71
        E 13 b1 09 73
        E 13 b1 09 75
        E 13 b1 09 76
        E 13 b1 09 78
        E 13 b1 09 79
        E 13 b1 09 7a
        E 13 b1 09 7b
        E 13 b1 09 7c
        E 13 b1 09 7d
        E 13 b1 09 7e
        E 13 b1 09 7e
        E 13 b1 09 7f
        E 13 b1 09 7f
        E 13 b1 09 7f
        E 13 b1 09 7f
        E 13 b1 09 7f
        E 13 b1 09 7e
        E 13 b1 09 7e
        E 13 b1 09 7d
        E 13 b1 09 7c
        E 13 b1 09 7b
        E 13 b1 09 7a
        E 13 b1 09 78
        E 13 b1 09 77
        E 13 b1 09 75
        E 13 b1 09 74
        E 13 b1 09 72
        E 13 b1 09 70
        E 13 b1 09 6e
        E 13 b1 09 6c
        E 13 b1 09 69
        E 13 b1 09 67
        E 13 b1 09 64
        E 13 b1 09 62
        E 13 b1 09 5f
        E 13 b1 09 5c
        E 13 b1 09 59
        E 13 b1 09 57
        E 13 b1 09 54
        E 13 b1 09 51
        E 13 b1 09 4e
        E 13 b1 09 4a
        E 13 b1 09 47
        E 13 b1 09 44
        E 13 b1 09 41
        E 13 b1 09 3e
        E 13 b1 09 3b
        E 13 b1 09 38
        E 13 b1 09 35
        E 13 b1 09 31
        E 13 b1 09 2e
        E 13 b1 09 2b
        E 13 b1 09 28
        E 13 b1 09 26
        E 13 b1 09 23
        E 13 b1 09 20
        E 13 b1 09 1d
        E 13 b1 09 1b
        E 13 b1 09 18
        E 13 b1 09 16
        E 13 b1 09 13
        E 13 b1 09 11
        E 13 b1 09 0f
        E 13 b1 09 0d
        E 13 b1 09 0b
        E 13 b1 09 0a
        E 13 b1 09 08
        E 13 b1 09 07
        E 13 b1 09 05
        E 13 b1 09 04
        E 13 b1 09 03
        E 13 b1 09 02
        E 13 b1 09 01
        E 13 b1 09 01
        E 13 b1 09 00
        E 13 b1 09 00
        E 13 b1 09 00
        E 13 b1 09 00
        E 13 b1 09 00
        E 13 b1 09 01
        E 13 b1 09 01
        E 13 b1 09 02
        E 13 b1 09 03
        E 13 b1 09 04
        E 13 b1 09 05
        E 13 b1 09 06
        E 13 b1 09 07
        E 13 b1 09 09
        E 13 b1 09 0a
        E 13 b1 09 0c
        E 13 b1 09 0e
        E 13 b1 09 10
        E 13 b1 09 12
        E 13 b1 09 15
        E 13 b1 09 17
        E 13 b1 09 19
        E 13 b1 09 1c
        E 13 b1 09 1f
        E 13 b1 09 21
        E 13 b1 09 24
        E 13 b1 09 27
        E 13 b1 09 2a
        E 13 b1 09 2d
        E 13 b1 09 30
        E 13 b1 09 33
        E 13 b1 09 36
        E 13 b1 09 39
        E 13 b1 09 3c
        E 13 b1 09 40
        E 1 b1 09 39
        E 1 b1 09 3c
        E 1 b1 09 3f
        E 1 b1 09 41
        E 1 b1 09 44
        E 1 b1 09 47
        E 1 b1 09 49
        E 1 b1 09 4c
        E 1 b1 09 4f
        E 1 b1 09 51
        E 1 b1 09 54
        E 1 b1 09 56
        E 1 b1 09 59
        E 1 b1 09 5b
        E 1 b1 09 5d
        E 1 b1 09 5f
        E 1 b1 09 62
        E 1 b1 09 63
        E 1 b1 09 65
        E 1 b1 09 67
        E 1 b1 09 69
        E 1 b1 09 6a
        E 1 b1 09 6c
        E 1 b1 09 6c
        E 1 b1 09 6d
        E 1 b1 09 6e
        E 1 b1 09 6f
        E 1 b1 09 70
        E 1 b1 09 71
        E 1 b1 09 71
        E 1 b1 09 72
        E 1 b1 09 72
        E 1 b1 09 72
        E 1 b1 09 72
        E 1 b1 09 72
        E 1 b1 09 71
        E 1 b1 09 71
        E 1 b1 09 70
        E 1 b1 09 6f
        E 1 b1 09 6e
        E 1 b1 09 6d
        E 1 b1 09 6c
        E 1 b1 09 6b
        E 1 b1 09 69
        E 1 b1 09 68
        E 1 b1 09 66
        E 1 b1 09 64
        E 1 b1 09 63
        E 1 b1 09 61
        E 1 b1 09 5e
        E 1 b1 09 5c
        E 1 b1 09 5a
        E 1 b1 09 58
        E 1 b1 09 55
        E 1 b1 09 52
        E 1 b1 09 50
        E 1 b1 09 4e
        E 1 b1 09 4b
        E 1 b1 09 48
        E 1 b1 09 46
        E 1 b1 09 42
        E 1 b1 09 3f
        E 1 b1 09 3d
        E 1 b1 09 3a
        E 1 b1 09 37
        E 1 b1 09 35
        E 1 b1 09 32
        E 1 b1 09 2f
        E 1 b1 09 2c
        E 1 b1 09 29
        E 1 b1 09 26
        E 1 b1 09 24
        E 1 b1 09 22
        E 1 b1 09 1f
        E 1 b1 09 1c
        E 1 b1 09 1a
        E 1 b1 09 18
        E 1 b1 09 15
        E 1 b1 09 13
        E 1 b1 09 11
        E 1 b1 09 0f
        E 1 b1 09 0d
        E 1 b1 09 0b
        E 1 b1 09 09
        E 1 b1 09 09
        E 1 b1 09 07
        E 1 b1 09 06
        E 1 b1 09 04
        E 1 b1 09 03
        E 1 b1 09 02
        E 1 b1 09 01
        E 1 b1 09 00
        E 1 b1 09 00
        E 1 b1 09 00
        E 1 b1 09 00
        E 1 b1 09 00
        E 1 b1 09 00
        E 1 b1 09 00
        E 1 b1 09 00
        E 1 b1 09 00
        E 1 b1 09 01
        E 1 b1 09 02
        E 1 b1 09 03
        E 1 b1 09 04
        E 1 b1 09 05
        E 1 b1 09 06
        E 1 b1 09 08
        E 1 b1 09 09
        E 1 b1 09 0a
        E 1 b1 09 0c
        E 1 b1 09 0e
        E 1 b1 09 10
        E 1 b1 09 12
        E 1 b1 09 14
        E 1 b1 09 16
        E 1 b1 09 19
        E 1 b1 09 1b
        E 1 b1 09 1d
        E 1 b1 09 20
        E 1 b1 09 23
        E 1 b1 09 25
        E 1 b1 09 28
        E 1 b1 09 2b
        E 1 b1 09 2d
        E 1 b1 09 30
        E 1 b1 09 33
        E 1 b1 09 36
        E 1 b1 09 39
        E 6 b1 09 40
        E 6 b1 09 43
        E 6 b1 09 46
        E 6 b1 09 49
        E 6 b1 09 4c
        E 6 b1 09 4f
        E 6 b1 09 52
        E 6 b1 09 55
        E 6 b1 09 58
        E 6 b1 09 5b
        E 6 b1 09 5e
        E 6 b1 09 60
        E 6 b1 09 63
        E 6 b1 09 66
        E 6 b1 09 68
        E 6 b1 09 6a
        E 6 b1 09 6d
        E 6 b1 09 6f
        E 6 b1 09 71
        E 6 b1 09 73
        E 6 b1 09 75
        E 6 b1 09 76
        E 6 b1 09 78
        E 6 b1 09 79
        E 6 b1 09 7a
        E 6 b1 09 7b
        E 6 b1 09 7c
        E 6 b1 09 7d
        E 6 b1 09 7e
        E 6 b1 09 7e
        E 6 b1 09 7f
        E 6 b1 09 7f
        E 6 b1 09 7f
        E 6 b1 09 7f
        E 6 b1 09 7f
        E 6 b1 09 7e
        E 6 b1 09 7e
        E 6 b1 09 7d
        E 6 b1 09 7c
        E 6 b1 09 7b
        E 6 b1 09 7a
        E 6 b1 09 78
        E 6 b1 09 77
        E 6 b1 09 75
        E 6 b1 09 74
        E 6 b1 09 72
        E 6 b1 09 70
        E 6 b1 09 6e
        E 6 b1 09 6c
        E 6 b1 09 69
        E 6 b1 09 67
        E 6 b1 09 64
        E 6 b1 09 62
        E 6 b1 09 5f
        E 6 b1 09 5c
        E 6 b1 09 59
        E 6 b1 09 57
        E 6 b1 09 54
        E 6 b1 09 51
        E 6 b1 09 4e
        E 6 b1 09 4a
        E 6 b1 09 47
        E 6 b1 09 44
        E 6 b1 09 41
        E 6 b1 09 3e
        E 6 b1 09 3b
        E 6 b1 09 38
        E 6 b1 09 35
        E 6 b1 09 31
        E 6 b1 09 2e
        E 6 b1 09 2b
        E 6 b1 09 28
        E 6 b1 09 26
        E 6 b1 09 23
        E 6 b1 09 20
        E 6 b1 09 1d
        E 6 b1 09 1b
        E 6 b1 09 18
        E 6 b1 09 16
        E 6 b1 09 13
        E 6 b1 09 11
        E 6 b1 09 0f
        E 6 b1 09 0d
        E 6 b1 09 0b
        E 6 b1 09 0a
        E 6 b1 09 08
        E 6 b1 09 07
        E 6 b1 09 05
        E 6 b1 09 04
        E 6 b1 09 03
        E 6 b1 09 02
        E 6 b1 09 01
        E 6 b1 09 01
        E 6 b1 09 00
        E 6 b1 09 00
        E 6 b1 09 00
        E 6 b1 09 00
        E 6 b1 09 00
        E 6 b1 09 01
        E 6 b1 09 01
        E 6 b1 09 02
        E 6 b1 09 03
        E 6 b1 09 04
        E 6 b1 09 05
        E 6 b1 09 06
        E 6 b1 09 07
        E 6 b1 09 09
        E 6 b1 09 0a
        E 6 b1 09 0c
        E 6 b1 09 0e
        E 6 b1 09 10
        E 6 b1 09 12
        E 6 b1 09 15
        E 6 b1 09 17
        E 6 b1 09 19
        E 6 b1 09 1c
        E 6 b1 09 1f
        E 6 b1 09 21
        E 6 b1 09 24
        E 6 b1 09 27
        E 6 b1 09 2a
        E 6 b1 09 2d
        E 6 b1 09 30
        E 6 b1 09 33
        E 6 b1 09 36
        E 6 b1 09 39
        E 6 b1 09 3c
        E 6 b1 09 40
        E 11 b1 09 39
        E 11 b1 09 3c
        E 11 b1 09 3f
        E 11 b1 09 41
        E 11 b1 09 44
        E 11 b1 09 47
        E 11 b1 09 49
        E 11 b1 09 4c
        E 11 b1 09 4f
        E 11 b1 09 51
        E 11 b1 09 54
        E 11 b1 09 56
        E 11 b1 09 59
        E 11 b1 09 5b
        E 11 b1 09 5d
        E 11 b1 09 5f
        E 11 b1 09 62
        E 11 b1 09 63
        E 11 b1 09 65
        E 11 b1 09 67
        E 11 b1 09 69
        E 11 b1 09 6a
        E 11 b1 09 6c
        E 11 b1 09 6c
        E 11 b1 09 6d
        E 11 b1 09 6e
        E 11 b1 09 6f
        E 11 b1 09 70
        E 11 b1 09 71
        E 11 b1 09 71
        E 11 b1 09 72
        E 11 b1 09 72
        E 11 b1 09 72
        E 11 b1 09 72
        E 11 b1 09 72
        E 11 b1 09 71
        E 11 b1 09 71
        E 11 b1 09 70
        E 11 b1 09 6f
        E 11 b1 09 6e
        E 11 b1 09 6d
        E 11 b1 09 6c
        E 11 b1 09 6b
        E 11 b1 09 69
        E 11 b1 09 68
        E 11 b1 09 66
        E 11 b1 09 64
        E 11 b1 09 63
        E 11 b1 09 61
        E 11 b1 09 5e
        E 11 b1 09 5c
        E 11 b1 09 5a
        E 11 b1 09 58
        E 11 b1 09 55
        E 11 b1 09 52
        E 11 b1 09 50
        E 11 b1 09 4e
        E 11 b1 09 4b
        E 11 b1 09 48
        E 11 b1 09 46
        E 11 b1 09 42
        E 11 b1 09 3f
        E 11 b1 09 3d
        E 11 b1 09 3a
        E 11 b1 09 37
        E 11 b1 09 35
        E 11 b1 09 32
        E 11 b1 09 2f
        E 11 b1 09 2c
        E 11 b1 09 29
        E 11 b1 09 26
        E 11 b1 09 24
        E 11 b1 09 22
        E 11 b1 09 1f
        E 11 b1 09 1c
        E 11 b1 09 1a
        E 11 b1 09 18
        E 11 b1 09 15
        E 11 b1 09 13
        E 11 b1 09 11
        E 11 b1 09 0f
        E 11 b1 09 0d
        E 11 b1 09 0b
        E 11 b1 09 09
        E 11 b1 09 09
        E 11 b1 09 07
        E 11 b1 09 06
        E 11 b1 09 04
        E 11 b1 09 03
        E 11 b1 09 02
        E 11 b1 09 01
        E 11 b1 09 00
        E 11 b1 09 00
        E 11 b1 09 00
        E 11 b1 09 00
        E 11 b1 09 00
        E 11 b1 09 00
        E 11 b1 09 00
        E 11 b1 09 00
        E 11 b1 09 00
        E 11 b1 09 01
        E 11 b1 09 02
        E 11 b1 09 03
        E 11 b1 09 04
        E 11 b1 09 05
        E 11 b1 09 06
        E 11 b1 09 08
        E 11 b1 09 09
        E 11 b1 09 0a
        E 11 b1 09 0c
        E 11 b1 09 0e
        E 11 b1 09 10
        E 11 b1 09 12
        E 11 b1 09 14
        E 11 b1 09 16
        E 11 b1 09 19
        E 11 b1 09 1b
        E 11 b1 09 1d
        E 11 b1 09 20
        E 11 b1 09 23
        E 11 b1 09 25
        E 11 b1 09 28
        E 11 b1 09 2b
        E 11 b1 09 2d
        E 11 b1 09 30
        E 11 b1 09 33
        E 11 b1 09 36
        E 11 b1 09 39
        E 8 b1 09 20
        E 8 b1 09 21
        E 8 b1 09 23
        E 8 b1 09 24
        E 8 b1 09 26
        E 8 b1 09 27
        E 8 b1 09 29
        E 8 b1 09 2a
        E 8 b1 09 2c
        E 8 b1 09 2d
        E 8 b1 09 2f
        E 8 b1 09 30
        E 8 b1 09 31
        E 8 b1 09 33
        E 8 b1 09 34
        E 8 b1 09 35
        E 8 b1 09 36
        E 8 b1 09 37
        E 8 b1 09 38
        E 8 b1 09 39
        E 8 b1 09 3a
        E 8 b1 09 3b
        E 8 b1 09 3c
        E 8 b1 09 3c
        E 8 b1 09 3d
        E 8 b1 09 3d
        E 8 b1 09 3e
        E 8 b1 09 3e
        E 8 b1 09 3f
        E 8 b1 09 3f
        E 8 b1 09 3f
        E 8 b1 09 3f
        E 8 b1 09 3f
        E 8 b1 09 3f
        E 8 b1 09 3f
        E 8 b1 09 3f
        E 8 b1 09 3f
        E 8 b1 09 3e
        E 8 b1 09 3e
        E 8 b1 09 3d
        E 8 b1 09 3d
        E 8 b1 09 3c
        E 8 b1 09 3b
        E 8 b1 09 3a
        E 8 b1 09 3a
        E 8 b1 09 39
        E 8 b1 09 38
        E 8 b1 09 37
        E 8 b1 09 36
        E 8 b1 09 34
        E 8 b1 09 33
        E 8 b1 09 32
        E 8 b1 09 31
        E 8 b1 09 2f
        E 8 b1 09 2e
        E 8 b1 09 2c
        E 8 b1 09 2b
        E 8 b1 09 2a
        E 8 b1 09 28
        E 8 b1 09 27
        E 8 b1 09 25
        E 8 b1 09 23
        E 8 b1 09 22
        E 8 b1 09 20
        E 8 b1 09 1f
        E 8 b1 09 1d
        E 8 b1 09 1c
        E 8 b1 09 1a
        E 8 b1 09 18
        E 8 b1 09 17
        E 8 b1 09 15
        E 8 b1 09 14
        E 8 b1 09 13
        E 8 b1 09 11
        E 8 b1 09 10
        E 8 b1 09 0e
        E 8 b1 09 0d
        E 8 b1 09 0c
        E 8 b1 09 0b
        E 8 b1 09 09
        E 8 b1 09 08
        E 8 b1 09 07
        E 8 b1 09 06
        E 8 b1 09 05
        E 8 b1 09 05
        E 8 b1 09 04
        E 8 b1 09 03
        E 8 b1 09 02
        E 8 b1 09 02
        E 8 b1 09 01
        E 8 b1 09 01
        E 8 b1 09 00
        E 8 b1 09 00
        E 8 b1 09 00
        E 8 b1 09 00
        E 8 b1 09 00
        E 8 b1 09 00
        E 8 b1 09 00
        E 8 b1 09 00
        E 8 b1 09 00
        E 8 b1 09 01
        E 8 b1 09 01
        E 8 b1 09 02
        E 8 b1 09 02
        E 8 b1 09 03
        E 8 b1 09 03
        E 8 b1 09 04
        E 8 b1 09 05
        E 8 b1 09 06
        E 8 b1 09 07
        E 8 b1 09 08
        E 8 b1 09 09
        E 8 b1 09 0a
        E 8 b1 09 0b
        E 8 b1 09 0c
        E 8 b1 09 0e
        E 8 b1 09 0f
        E 8 b1 09 10
        E 8 b1 09 12
        E 8 b1 09 13
        E 8 b1 09 15
        E 8 b1 09 16
        E 8 b1 09 18
        E 8 b1 09 19
        E 8 b1 09 1b
        E 8 b1 09 1c
        E 8 b1 09 1e
        E 8 b1 09 20
        E 8 b1 09 20
        E 8 b1 09 21
        E 8 b1 09 23
        E 8 b1 09 24
        E 8 b1 09 26
        E 8 b1 09 27
        E 8 b1 09 29
        E 8 b1 09 2a
        E 8 b1 09 2c
        E 8 b1 09 2d
        E 8 b1 09 2f
        E 8 b1 09 30
        E 8 b1 09 31
        E 8 b1 09 33
        E 8 b1 09 34
        E 8 b1 09 35
        E 8 b1 09 36
        E 8 b1 09 37
        E 8 b1 09 38
        E 8 b1 09 39
        E 8 b1 09 3a
        E 8 b1 09 3b
        E 8 b1 09 3c
        E 8 b1 09 3c
        E 8 b1 09 3d
        E 8 b1 09 3d
        E 8 b1 09 3e
        E 8 b1 09 3e
        E 8 b1 09 3f
        E 8 b1 09 3f
        E 8 b1 09 3f
        E 8 b1 09 3f
        E 8 b1 09 3f
        E 8 b1 09 3f
        E 8 b1 09 3f
        E 8 b1 09 3f
        E 8 b1 09 3f
        E 8 b1 09 3e
        E 8 b1 09 3e
        E 8 b1 09 3d
        E 8 b1 09 3d
        E 8 b1 09 3c
        E 8 b1 09 3b
        E 8 b1 09 3a
        E 8 b1 09 3a
        E 8 b1 09 39
        E 8 b1 09 38
        E 8 b1 09 37
        E 8 b1 09 36
        E 8 b1 09 34
        E 8 b1 09 33
        E 8 b1 09 32
        E 8 b1 09 31
        E 8 b1 09 2f
        E 8 b1 09 2e
        E 8 b1 09 2c
        E 8 b1 09 2b
        E 8 b1 09 2a
        E 8 b1 09 28
        E 8 b1 09 27
        E 8 b1 09 25
        E 8 b1 09 23
        E 8 b1 09 22
        E 8 b1 09 20
        E 8 b1 09 1f
        E 8 b1 09 1d
        E 8 b1 09 1c
        E 8 b1 09 1a
        E 8 b1 09 18
        E 8 b1 09 17
        E 8 b1 09 15
        E 8 b1 09 14
        E 8 b1 09 13
        E 8 b1 09 11
        E 8 b1 09 10
        E 8 b1 09 0e
        E 8 b1 09 0d
        E 8 b1 09 0c
        E 8 b1 09 0b
        E 8 b1 09 09
        E 8 b1 09 08
        E 8 b1 09 07
        E 8 b1 09 06
        E 8 b1 09 05
        E 8 b1 09 05
        E 8 b1 09 04
        E 8 b1 09 03
        E 8 b1 09 02
        E 8 b1 09 02
        E 8 b1 09 01
        E 8 b1 09 01
        E 8 b1 09 00
        E 8 b1 09 00
        E 8 b1 09 00
        E 8 b1 09 00
        E 8 b1 09 00
        E 8 b1 09 00
        E 8 b1 09 00
        E 8 b1 09 00
        E 8 b1 09 00
        E 8 b1 09 01
        E 8 b1 09 01
        E 8 b1 09 02
        E 8 b1 09 02
        E 8 b1 09 03
        E 8 b1 09 03
        E 8 b1 09 04
        E 8 b1 09 05
        E 8 b1 09 06
        E 8 b1 09 07
        E 8 b1 09 08
        E 8 b1 09 09
        E 8 b1 09 0a
        E 8 b1 09 0b
        E 8 b1 09 0c
        E 8 b1 09 0e
        E 8 b1 09 0f
        E 8 b1 09 10
        E 8 b1 09 12
        E 8 b1 09 13
        E 8 b1 09 15
        E 8 b1 09 16
        E 8 b1 09 18
        E 8 b1 09 19
        E 8 b1 09 1b
        E 8 b1 09 1c
        E 8 b1 09 1e
        E 8 b1 09 20
        E 17 b1 09 2c
        E 17 b1 09 2e
        E 17 b1 09 31
        E 17 b1 09 33
        E 17 b1 09 35
        E 17 b1 09 37
        E 17 b1 09 39
        E 17 b1 09 3b
        E 17 b1 09 3d
        E 17 b1 09 3f
        E 17 b1 09 41
        E 17 b1 09 43
        E 17 b1 09 45
        E 17 b1 09 47
        E 17 b1 09 48
        E 17 b1 09 4a
        E 17 b1 09 4c
        E 17 b1 09 4d
        E 17 b1 09 4f
        E 17 b1 09 50
        E 17 b1 09 51
        E 17 b1 09 52
        E 17 b1 09 54
        E 17 b1 09 54
        E 17 b1 09 55
        E 17 b1 09 56
        E 17 b1 09 56
        E 17 b1 09 57
        E 17 b1 09 58
        E 17 b1 09 58
        E 17 b1 09 58
        E 17 b1 09 58
        E 17 b1 09 58
        E 17 b1 09 58
        E 17 b1 09 58
        E 17 b1 09 58
        E 17 b1 09 58
        E 17 b1 09 57
        E 17 b1 09 56
        E 17 b1 09 56
        E 17 b1 09 55
        E 17 b1 09 54
        E 17 b1 09 53
        E 17 b1 09 51
        E 17 b1 09 51
        E 17 b1 09 4f
        E 17 b1 09 4e
        E 17 b1 09 4d
        E 17 b1 09 4b
        E 17 b1 09 49
        E 17 b1 09 48
        E 17 b1 09 46
        E 17 b1 09 44
        E 17 b1 09 42
        E 17 b1 09 40
        E 17 b1 09 3e
        E 17 b1 09 3c
        E 17 b1 09 3a
        E 17 b1 09 38
        E 17 b1 09 36
        E 17 b1 09 33
        E 17 b1 09 31
        E 17 b1 09 2f
        E 17 b1 09 2d
        E 17 b1 09 2b
        E 17 b1 09 29
        E 17 b1 09 27
        E 17 b1 09 25
        E 17 b1 09 22
        E 17 b1 09 20
        E 17 b1 09 1e
        E 17 b1 09 1c
        E 17 b1 09 1a
        E 17 b1 09 18
        E 17 b1 09 16
        E 17 b1 09 14
        E 17 b1 09 12
        E 17 b1 09 10
        E 17 b1 09 0f
        E 17 b1 09 0d
        E 17 b1 09 0b
        E 17 b1 09 0a
        E 17 b1 09 09
        E 17 b1 09 07
        E 17 b1 09 07
        E 17 b1 09 05
        E 17 b1 09 04
        E 17 b1 09 03
        E 17 b1 09 02
        E 17 b1 09 02
        E 17 b1 09 01
        E 17 b1 09 00
        E 17 b1 09 00
        E 17 b1 09 00
        E 17 b1 09 00
        E 17 b1 09 00
        E 17 b1 09 00
        E 17 b1 09 00
        E 17 b1 09 00
        E 17 b1 09 00
        E 17 b1 09 01
        E 17 b1 09 02
        E 17 b1 09 02
        E 17 b1 09 03
        E 17 b1 09 04
        E 17 b1 09 04
        E 17 b1 09 06
        E 17 b1 09 07
        E 17 b1 09 08
        E 17 b1 09 09
        E 17 b1 09 0b
        E 17 b1 09 0c
        E 17 b1 09 0e
        E 17 b1 09 10
        E 17 b1 09 11
        E 17 b1 09 13
        E 17 b1 09 15
        E 17 b1 09 17
        E 17 b1 09 19
        E 17 b1 09 1b
        E 17 b1 09 1d
        E 17 b1 09 1f
        E 17 b1 09 21
        E 17 b1 09 23
        E 17 b1 09 25
        E 17 b1 09 27
        E 17 b1 09 2a
        E 17 b1 09 2c
        E 15 b1 09 33
        E 15 b1 09 35
        E 15 b1 09 37
        E 15 b1 09 3a
        E 15 b1 09 3c
        E 15 b1 09 3f
        E 15 b1 09 41
        E 15 b1 09 44
        E 15 b1 09 46
        E 15 b1 09 48
        E 15 b1 09 4b
        E 15 b1 09 4c
        E 15 b1 09 4f
        E 15 b1 09 51
        E 15 b1 09 53
        E 15 b1 09 54
        E 15 b1 09 57
        E 15 b1 09 58
        E 15 b1 09 5a
        E 15 b1 09 5b
        E 15 b1 09 5d
        E 15 b1 09 5e
        E 15 b1 09 5f
        E 15 b1 09 60
        E 15 b1 09 61
        E 15 b1 09 62
        E 15 b1 09 63
        E 15 b1 09 63
        E 15 b1 09 64
        E 15 b1 09 64
        E 15 b1 09 65
        E 15 b1 09 65
        E 15 b1 09 65
        E 15 b1 09 65
        E 15 b1 09 65
        E 15 b1 09 64
        E 15 b1 09 64
        E 15 b1 09 63
        E 15 b1 09 63
        E 15 b1 09 62
        E 15 b1 09 61
        E 15 b1 09 5f
        E 15 b1 09 5f
        E 15 b1 09 5d
        E 15 b1 09 5c
        E 15 b1 09 5b
        E 15 b1 09 59
        E 15 b1 09 57
        E 15 b1 09 56
        E 15 b1 09 54
        E 15 b1 09 52
        E 15 b1 09 50
        E 15 b1 09 4e
        E 15 b1 09 4c
        E 15 b1 09 49
        E 15 b1 09 47
        E 15 b1 09 45
        E 15 b1 09 43
        E 15 b1 09 40
        E 15 b1 09 3e
        E 15 b1 09 3b
        E 15 b1 09 38
        E 15 b1 09 36
        E 15 b1 09 33
        E 15 b1 09 31
        E 15 b1 09 2f
        E 15 b1 09 2c
        E 15 b1 09 2a
        E 15 b1 09 27
        E 15 b1 09 24
        E 15 b1 09 22
        E 15 b1 09 1f
        E 15 b1 09 1e
        E 15 b1 09 1b
        E 15 b1 09 19
        E 15 b1 09 17
        E 15 b1 09 15
        E 15 b1 09 13
        E 15 b1 09 11
        E 15 b1 09 0f
        E 15 b1 09 0d
        E 15 b1 09 0b
        E 15 b1 09 0a
        E 15 b1 09 08
        E 15 b1 09 07
        E 15 b1 09 06
        E 15 b1 09 05
        E 15 b1 09 03
        E 15 b1 09 03
        E 15 b1 09 02
        E 15 b1 09 01
        E 15 b1 09 00
        E 15 b1 09 00
        E 15 b1 09 00
        E 15 b1 09 00
        E 15 b1 09 00
        E 15 b1 09 00
        E 15 b1 09 00
        E 15 b1 09 00
        E 15 b1 09 00
        E 15 b1 09 01
        E 15 b1 09 02
        E 15 b1 09 03
        E 15 b1 09 03
        E 15 b1 09 04
        E 15 b1 09 05
        E 15 b1 09 07
        E 15 b1 09 07
        E 15 b1 09 09
        E 15 b1 09 0b
        E 15 b1 09 0c
        E 15 b1 09 0e
        E 15 b1 09 10
        E 15 b1 09 12
        E 15 b1 09 14
        E 15 b1 09 16
        E 15 b1 09 18
        E 15 b1 09 1a
        E 15 b1 09 1c
        E 15 b1 09 1f
        E 15 b1 09 21
        E 15 b1 09 24
        E 15 b1 09 26
        E 15 b1 09 28
        E 15 b1 09 2b
        E 15 b1 09 2d
        E 15 b1 09 2f
        E 15 b1 09 33
        E 17 b1 09 06
        E 17 b1 09 06
        E 17 b1 09 07
        E 17 b1 09 07
        E 17 b1 09 07
        E 17 b1 09 07
        E 17 b1 09 08
        E 17 b1 09 08
        E 17 b1 09 08
        E 17 b1 09 09
        E 17 b1 09 09
        E 17 b1 09 09
        E 17 b1 09 09
        E 17 b1 09 0a
        E 17 b1 09 0a
        E 17 b1 09 0a
        E 17 b1 09 0a
        E 17 b1 09 0b
        E 17 b1 09 0b
        E 17 b1 09 0b
        E 17 b1 09 0b
        E 17 b1 09 0b
        E 17 b1 09 0c
        E 17 b1 09 0c
        E 17 b1 09 0c
        E 17 b1 09 0c
        E 17 b1 09 0c
        E 17 b1 09 0c
        E 17 b1 09 0c
        E 17 b1 09 0c
        E 17 b1 09 0c
        E 17 b1 09 0c
        E 17 b1 09 0c
        E 17 b1 09 0c
        E 17 b1 09 0c
        E 17 b1 09 0c
        E 17 b1 09 0c
        E 17 b1 09 0c
        E 17 b1 09 0c
        E 17 b1 09 0c
        E 17 b1 09 0c
        E 17 b1 09 0c
        E 17 b1 09 0b
        E 17 b1 09 0b
        E 17 b1 09 0b
        E 17 b1 09 0b
        E 17 b1 09 0b
        E 17 b1 09 0b
        E 17 b1 09 0a
        E 17 b1 09 0a
        E 17 b1 09 0a
        E 17 b1 09 0a
        E 17 b1 09 09
        E 17 b1 09 09
        E 17 b1 09 09
        E 17 b1 09 08
        E 17 b1 09 08
        E 17 b1 09 08
        E 17 b1 09 08
        E 17 b1 09 07
        E 17 b1 09 07
        E 17 b1 09 07
        E 17 b1 09 06
        E 17 b1 09 06
        E 17 b1 09 06
        E 17 b1 09 05
        E 17 b1 09 05
        E 17 b1 09 05
        E 17 b1 09 04
        E 17 b1 09 04
        E 17 b1 09 04
        E 17 b1 09 04
        E 17 b1 09 03
        E 17 b1 09 03
        E 17 b1 09 03
        E 17 b1 09 02
        E 17 b1 09 02
        E 17 b1 09 02
        E 17 b1 09 02
        E 17 b1 09 01
        E 17 b1 09 01
        E 17 b1 09 01
        E 17 b1 09 01
        E 17 b1 09 01
        E 17 b1 09 01
        E 17 b1 09 00
        E 17 b1 09 00
        E 17 b1 09 00
        E 17 b1 09 00
        E 17 b1 09 00
        E 17 b1 09 00
        E 17 b1 09 00
        E 17 b1 09 00
        E 17 b1 09 00
        E 17 b1 09 00
        E 17 b1 09 00
        E 17 b1 09 00
        E 17 b1 09 00
        E 17 b1 09 00
        E 17 b1 09 00
        E 17 b1 09 00
        E 17 b1 09 00
        E 17 b1 09 00
        E 17 b1 09 00
        E 17 b1 09 00
        E 17 b1 09 00
        E 17 b1 09 00
        E 17 b1 09 01
        E 17 b1 09 01
        E 17 b1 09 01
        E 17 b1 09 01
        E 17 b1 09 01
        E 17 b1 09 02
        E 17 b1 09 02
        E 17 b1 09 02
        E 17 b1 09 02
        E 17 b1 09 03
        E 17 b1 09 03
        E 17 b1 09 03
        E 17 b1 09 03
        E 17 b1 09 04
        E 17 b1 09 04
        E 17 b1 09 04
        E 17 b1 09 05
        E 17 b1 09 05
        E 17 b1 09 05
        E 17 b1 09 06
        E 17 b1 09 06
        E 15 b1 09 19
        E 15 b1 09 1a
        E 15 b1 09 1c
        E 15 b1 09 1d
        E 15 b1 09 1e
        E 15 b1 09 1f
        E 15 b1 09 20
        E 15 b1 09 22
        E 15 b1 09 23
        E 15 b1 09 24
        E 15 b1 09 25
        E 15 b1 09 26
        E 15 b1 09 27
        E 15 b1 09 28
        E 15 b1 09 29
        E 15 b1 09 2a
        E 15 b1 09 2b
        E 15 b1 09 2c
        E 15 b1 09 2d
        E 15 b1 09 2e
        E 15 b1 09 2e
        E 15 b1 09 2f
        E 15 b1 09 30
        E 15 b1 09 30
        E 15 b1 09 30
        E 15 b1 09 31
        E 15 b1 09 31
        E 15 b1 09 32
        E 15 b1 09 32
        E 15 b1 09 32
        E 15 b1 09 32
        E 15 b1 09 32
        E 15 b1 09 32
        E 15 b1 09 32
        E 15 b1 09 32
        E 15 b1 09 32
        E 15 b1 09 32
        E 15 b1 09 32
        E 15 b1 09 31
        E 15 b1 09 31
        E 15 b1 09 30
        E 15 b1 09 30
        E 15 b1 09 2f
        E 15 b1 09 2e
        E 15 b1 09 2e
        E 15 b1 09 2d
        E 15 b1 09 2c
        E 15 b1 09 2c
        E 15 b1 09 2b
        E 15 b1 09 2a
        E 15 b1 09 29
        E 15 b1 09 28
        E 15 b1 09 27
        E 15 b1 09 26
        E 15 b1 09 24
        E 15 b1 09 23
        E 15 b1 09 22
        E 15 b1 09 21
        E 15 b1 09 20
        E 15 b1 09 1f
        E 15 b1 09 1d
        E 15 b1 09 1c
        E 15 b1 09 1b
        E 15 b1 09 1a
        E 15 b1 09 18
        E 15 b1 09 17
        E 15 b1 09 16
        E 15 b1 09 15
        E 15 b1 09 13
        E 15 b1 09 12
        E 15 b1 09 11
        E 15 b1 09 10
        E 15 b1 09 0f
        E 15 b1 09 0e
        E 15 b1 09 0c
        E 15 b1 09 0b
        E 15 b1 09 0a
        E 15 b1 09 09
        E 15 b1 09 08
        E 15 b1 09 07
        E 15 b1 09 06
        E 15 b1 09 06
        E 15 b1 09 05
        E 15 b1 09 04
        E 15 b1 09 04
        E 15 b1 09 03
        E 15 b1 09 02
        E 15 b1 09 02
        E 15 b1 09 01
        E 15 b1 09 01
        E 15 b1 09 00
        E 15 b1 09 00
        E 15 b1 09 00
        E 15 b1 09 00
        E 15 b1 09 00
        E 15 b1 09 00
        E 15 b1 09 00
        E 15 b1 09 00
        E 15 b1 09 00
        E 15 b1 09 00
        E 15 b1 09 00
        E 15 b1 09 01
        E 15 b1 09 01
        E 15 b1 09 02
        E 15 b1 09 02
        E 15 b1 09 02
        E 15 b1 09 03
        E 15 b1 09 04
        E 15 b1 09 04
        E 15 b1 09 05
        E 15 b1 09 06
        E 15 b1 09 07
        E 15 b1 09 08
        E 15 b1 09 09
        E 15 b1 09 0a
        E 15 b1 09 0b
        E 15 b1 09 0c
        E 15 b1 09 0d
        E 15 b1 09 0e
        E 15 b1 09 0f
        E 15 b1 09 10
        E 15 b1 09 12
        E 15 b1 09 13
        E 15 b1 09 14
        E 15 b1 09 15
        E 15 b1 09 16
        E 15 b1 09 18
        E 15 b1 09 19
        E 8 b1 09 2c
        E 8 b1 09 2e
        E 8 b1 09 31
        E 8 b1 09 33
        E 8 b1 09 35
        E 8 b1 09 37
        E 8 b1 09 39
        E 8 b1 09 3b
        E 8 b1 09 3d
        E 8 b1 09 3f
        E 8 b1 09 41
        E 8 b1 09 43
        E 8 b1 09 45
        E 8 b1 09 47
        E 8 b1 09 48
        E 8 b1 09 4a
        E 8 b1 09 4c
        E 8 b1 09 4d
        E 8 b1 09 4f
        E 8 b1 09 50
        E 8 b1 09 51
        E 8 b1 09 52
        E 8 b1 09 54
        E 8 b1 09 54
        E 8 b1 09 55
        E 8 b1 09 56
        E 8 b1 09 56
        E 8 b1 09 57
        E 8 b1 09 58
        E 8 b1 09 58
        E 8 b1 09 58
        E 8 b1 09 58
        E 8 b1 09 58
        E 8 b1 09 58
        E 8 b1 09 58
        E 8 b1 09 58
        E 8 b1 09 58
        E 8 b1 09 57
        E 8 b1 09 56
        E 8 b1 09 56
        E 8 b1 09 55
        E 8 b1 09 54
        E 8 b1 09 53
        E 8 b1 09 51
        E 8 b1 09 51
        E 8 b1 09 4f
        E 8 b1 09 4e
        E 8 b1 09 4d
        E 8 b1 09 4b
        E 8 b1 09 49
        E 8 b1 09 48
        E 8 b1 09 46
        E 8 b1 09 44
        E 8 b1 09 42
        E 8 b1 09 40
        E 8 b1 09 3e
        E 8 b1 09 3c
        E 8 b1 09 3a
        E 8 b1 09 38
        E 8 b1 09 36
        E 8 b1 09 33
        E 8 b1 09 31
        E 8 b1 09 2f
        E 8 b1 09 2d
        E 8 b1 09 2b
        E 8 b1 09 29
        E 8 b1 09 27
        E 8 b1 09 25
        E 8 b1 09 22
        E 8 b1 09 20
        E 8 b1 09 1e
        E 8 b1 09 1c
        E 8 b1 09 1a
        E 8 b1 09 18
        E 8 b1 09 16
        E 8 b1 09 14
        E 8 b1 09 12
        E 8 b1 09 10
        E 8 b1 09 0f
        E 8 b1 09 0d
        E 8 b1 09 0b
        E 8 b1 09 0a
        E 8 b1 09 09
        E 8 b1 09 07
        E 8 b1 09 07
        E 8 b1 09 05
        E 8 b1 09 04
        E 8 b1 09 03
        E 8 b1 09 02
        E 8 b1 09 02
        E 8 b1 09 01
        E 8 b1 09 00
        E 8 b1 09 00
        E 8 b1 09 00
        E 8 b1 09 00
        E 8 b1 09 00
        E 8 b1 09 00
        E 8 b1 09 00
        E 8 b1 09 00
        E 8 b1 09 00
        E 8 b1 09 01
        E 8 b1 09 02
        E 8 b1 09 02
        E 8 b1 09 03
        E 8 b1 09 04
        E 8 b1 09 04
        E 8 b1 09 06
        E 8 b1 09 07
        E 8 b1 09 08
        E 8 b1 09 09
        E 8 b1 09 0b
        E 8 b1 09 0c
        E 8 b1 09 0e
        E 8 b1 09 10
        E 8 b1 09 11
        E 8 b1 09 13
        E 8 b1 09 15
        E 8 b1 09 17
        E 8 b1 09 19
        E 8 b1 09 1b
        E 8 b1 09 1d
        E 8 b1 09 1f
        E 8 b1 09 21
        E 8 b1 09 23
        E 8 b1 09 25
        E 8 b1 09 27
        E 8 b1 09 2a
        E 8 b1 09 2c
        E 8 b1 09 20
        E 8 b1 09 21
        E 8 b1 09 23
        E 8 b1 09 24
        E 8 b1 09 26
        E 8 b1 09 27
        E 8 b1 09 29
        E 8 b1 09 2a
        E 8 b1 09 2c
        E 8 b1 09 2d
        E 8 b1 09 2f
        E 8 b1 09 30
        E 8 b1 09 31
        E 8 b1 09 33
        E 8 b1 09 34
        E 8 b1 09 35
        E 8 b1 09 36
        E 8 b1 09 37
        E 8 b1 09 38
        E 8 b1 09 39
        E 8 b1 09 3a
        E 8 b1 09 3b
        E 8 b1 09 3c
        E 8 b1 09 3c
        E 8 b1 09 3d
        E 8 b1 09 3d
        E 8 b1 09 3e
        E 8 b1 09 3e
        E 8 b1 09 3f
        E 8 b1 09 3f
        E 8 b1 09 3f
        E 8 b1 09 3f
        E 8 b1 09 3f
        E 8 b1 09 3f
        E 8 b1 09 3f
        E 8 b1 09 3f
        E 8 b1 09 3f
        E 8 b1 09 3e
        E 8 b1 09 3e
        E 8 b1 09 3d
        E 8 b1 09 3d
        E 8 b1 09 3c
        E 8 b1 09 3b
        E 8 b1 09 3a
        E 8 b1 09 3a
        E 8 b1 09 39
        E 8 b1 09 38
        E 8 b1 09 37
        E 8 b1 09 36
        E 8 b1 09 34
        E 8 b1 09 33
        E 8 b1 09 32
        E 8 b1 09 31
        E 8 b1 09 2f
        E 8 b1 09 2e
        E 8 b1 09 2c
        E 8 b1 09 2b
        E 8 b1 09 2a
        E 8 b1 09 28
        E 8 b1 09 27
        E 8 b1 09 25
        E 8 b1 09 23
        E 8 b1 09 22
        E 8 b1 09 20
        E 8 b1 09 1f
        E 8 b1 09 1d
        E 8 b1 09 1c
        E 8 b1 09 1a
        E 8 b1 09 18
        E 8 b1 09 17
        E 8 b1 09 15
        E 8 b1 09 14
        E 8 b1 09 13
        E 8 b1 09 11
        E 8 b1 09 10
        E 8 b1 09 0e
        E 8 b1 09 0d
        E 8 b1 09 0c
        E 8 b1 09 0b
        E 8 b1 09 09
        E 8 b1 09 08
        E 8 b1 09 07
        E 8 b1 09 06
        E 8 b1 09 05
        E 8 b1 09 05
        E 8 b1 09 04
        E 8 b1 09 03
        E 8 b1 09 02
        E 8 b1 09 02
        E 8 b1 09 01
        E 8 b1 09 01
        E 8 b1 09 00
        E 8 b1 09 00
        E 8 b1 09 00
        E 8 b1 09 00
        E 8 b1 09 00
        E 8 b1 09 00
        E 8 b1 09 00
        E 8 b1 09 00
        E 8 b1 09 00
        E 8 b1 09 01
        E 8 b1 09 01
        E 8 b1 09 02
        E 8 b1 09 02
        E 8 b1 09 03
        E 8 b1 09 03
        E 8 b1 09 04
        E 8 b1 09 05
        E 8 b1 09 06
        E 8 b1 09 07
        E 8 b1 09 08
        E 8 b1 09 09
        E 8 b1 09 0a
        E 8 b1 09 0b
        E 8 b1 09 0c
        E 8 b1 09 0e
        E 8 b1 09 0f
        E 8 b1 09 10
        E 8 b1 09 12
        E 8 b1 09 13
        E 8 b1 09 15
        E 8 b1 09 16
        E 8 b1 09 18
        E 8 b1 09 19
        E 8 b1 09 1b
        E 8 b1 09 1c
        E 8 b1 09 1e
        E 8 b1 09 20
        E 11 b1 09 20
        E 11 b1 09 21
        E 11 b1 09 23
        E 11 b1 09 24
        E 11 b1 09 26
        E 11 b1 09 27
        E 11 b1 09 29
        E 11 b1 09 2a
        E 11 b1 09 2c
        E 11 b1 09 2d
        E 11 b1 09 2f
        E 11 b1 09 30
        E 11 b1 09 31
        E 11 b1 09 33
        E 11 b1 09 34
        E 11 b1 09 35
        E 11 b1 09 36
        E 11 b1 09 37
        E 11 b1 09 38
        E 11 b1 09 39
        E 11 b1 09 3a
        E 11 b1 09 3b
        E 11 b1 09 3c
        E 11 b1 09 3c
        E 11 b1 09 3d
        E 11 b1 09 3d
        E 11 b1 09 3e
        E 11 b1 09 3e
        E 11 b1 09 3f
        E 11 b1 09 3f
        E 11 b1 09 3f
        E 11 b1 09 3f
        E 11 b1 09 3f
        E 11 b1 09 3f
        E 11 b1 09 3f
        E 11 b1 09 3f
        E 11 b1 09 3f
        E 11 b1 09 3e
        E 11 b1 09 3e
        E 11 b1 09 3d
        E 11 b1 09 3d
        E 11 b1 09 3c
        E 11 b1 09 3b
        E 11 b1 09 3a
        E 11 b1 09 3a
        E 11 b1 09 39
        E 11 b1 09 38
        E 11 b1 09 37
        E 11 b1 09 36
        E 11 b1 09 34
        E 11 b1 09 33
        E 11 b1 09 32
        E 11 b1 09 31
        E 11 b1 09 2f
        E 11 b1 09 2e
        E 11 b1 09 2c
        E 11 b1 09 2b
        E 11 b1 09 2a
        E 11 b1 09 28
        E 11 b1 09 27
        E 11 b1 09 25
        E 11 b1 09 23
        E 11 b1 09 22
        E 11 b1 09 20
        E 11 b1 09 1f
        E 11 b1 09 1d
        E 11 b1 09 1c
        E 11 b1 09 1a
        E 11 b1 09 18
        E 11 b1 09 17
        E 11 b1 09 15
        E 11 b1 09 14
        E 11 b1 09 13
        E 11 b1 09 11
        E 11 b1 09 10
        E 11 b1 09 0e
        E 11 b1 09 0d
        E 11 b1 09 0c
        E 11 b1 09 0b
        E 11 b1 09 09
        E 11 b1 09 08
        E 11 b1 09 07
        E 11 b1 09 06
        E 11 b1 09 05
        E 11 b1 09 05
        E 11 b1 09 04
        E 11 b1 09 03
        E 11 b1 09 02
        E 11 b1 09 02
        E 11 b1 09 01
        E 11 b1 09 01
        E 11 b1 09 00
        E 11 b1 09 00
        E 11 b1 09 00
        E 11 b1 09 00
        E 11 b1 09 00
        E 11 b1 09 00
        E 11 b1 09 00
        E 11 b1 09 00
        E 11 b1 09 00
        E 11 b1 09 01
        E 11 b1 09 01
        E 11 b1 09 02
        E 11 b1 09 02
        E 11 b1 09 03
        E 11 b1 09 03
        E 11 b1 09 04
        E 11 b1 09 05
        E 11 b1 09 06
        E 11 b1 09 07
        E 11 b1 09 08
        E 11 b1 09 09
        E 11 b1 09 0a
        E 11 b1 09 0b
        E 11 b1 09 0c
        E 11 b1 09 0e
        E 11 b1 09 0f
        E 11 b1 09 10
        E 11 b1 09 12
        E 11 b1 09 13
        E 11 b1 09 15
        E 11 b1 09 16
        E 11 b1 09 18
        E 11 b1 09 19
        E 11 b1 09 1b
        E 11 b1 09 1c
        E 11 b1 09 1e
        E 11 b1 09 20
        E 13 b1 09 40
        E 13 b1 09 43
        E 13 b1 09 46
        E 13 b1 09 49
        E 13 b1 09 4c
        E 13 b1 09 4f
        E 13 b1 09 52
        E 13 b1 09 55
        E 13 b1 09 58
        E 13 b1 09 5b
        E 13 b1 09 5e
        E 13 b1 09 60
        E 13 b1 09 63
        E 13 b1 09 66
        E 13 b1 09 68
        E 13 b1 09 6a
        E 13 b1 09 6d
        E 13 b1 09 6f
        E 13 b1 09 71
        E 13 b1 09 73
        E 13 b1 09 75
        E 13 b1 09 76
        E 13 b1 09 78
        E 13 b1 09 79
        E 13 b1 09 7a
        E 13 b1 09 7b
        E 13 b1 09 7c
        E 13 b1 09 7d
        E 13 b1 09 7e
        E 13 b1 09 7e
        E 13 b1 09 7f
        E 13 b1 09 7f
        E 13 b1 09 7f
        E 13 b1 09 7f
        E 13 b1 09 7f
        E 13 b1 09 7e
        E 13 b1 09 7e
        E 13 b1 09 7d
        E 13 b1 09 7c
        E 13 b1 09 7b
        E 13 b1 09 7a
        E 13 b1 09 78
        E 13 b1 09 77
        E 13 b1 09 75
        E 13 b1 09 74
        E 13 b1 09 72
        E 13 b1 09 70
        E 13 b1 09 6e
        E 13 b1 09 6c
        E 13 b1 09 69
        E 13 b1 09 67
        E 13 b1 09 64
        E 13 b1 09 62
        E 13 b1 09 5f
        E 13 b1 09 5c
        E 13 b1 09 59
        E 13 b1 09 57
        E 13 b1 09 54
        E 13 b1 09 51
        E 13 b1 09 4e
        E 13 b1 09 4a
        E 13 b1 09 47
        E 13 b1 09 44
        E 13 b1 09 41
        E 13 b1 09 3e
        E 13 b1 09 3b
        E 13 b1 09 38
        E 13 b1 09 35
        E 13 b1 09 31
        E 13 b1 09 2e
        E 13 b1 09 2b
        E 13 b1 09 28
        E 13 b1 09 26
        E 13 b1 09 23
        E 13 b1 09 20
        E 13 b1 09 1d
        E 13 b1 09 1b
        E 13 b1 09 18
        E 13 b1 09 16
        E 13 b1 09 13
        E 13 b1 09 11
        E 13 b1 09 0f
        E 13 b1 09 0d
        E 13 b1 09 0b
        E 13 b1 09 0a
        E 13 b1 09 08
        E 13 b1 09 07
        E 13 b1 09 05
        E 13 b1 09 04
        E 13 b1 09 03
        E 13 b1 09 02
        E 13 b1 09 01
        E 13 b1 09 01
        E 13 b1 09 00
        E 13 b1 09 00
        E 13 b1 09 00
        E 13 b1 09 00
        E 13 b1 09 00
        E 13 b1 09 01
        E 13 b1 09 01
        E 13 b1 09 02
        E 13 b1 09 03
        E 13 b1 09 04
        E 13 b1 09 05
        E 13 b1 09 06
        E 13 b1 09 07
        E 13 b1 09 09
        E 13 b1 09 0a
        E 13 b1 09 0c
        E 13 b1 09 0e
        E 13 b1 09 10
        E 13 b1 09 12
        E 13 b1 09 15
        E 13 b1 09 17
        E 13 b1 09 19
        E 13 b1 09 1c
        E 13 b1 09 1f
        E 13 b1 09 21
        E 13 b1 09 24
        E 13 b1 09 27
        E 13 b1 09 2a
        E 13 b1 09 2d
        E 13 b1 09 30
        E 13 b1 09 33
        E 13 b1 09 36
        E 13 b1 09 39
        E 13 b1 09 3c
        E 13 b1 09 40
        E 11 b1 09 39
        E 11 b1 09 3c
        E 11 b1 09 3f
        E 11 b1 09 41
        E 11 b1 09 44
        E 11 b1 09 47
        E 11 b1 09 49
        E 11 b1 09 4c
        E 11 b1 09 4f
        E 11 b1 09 51
        E 11 b1 09 54
        E 11 b1 09 56
        E 11 b1 09 59
        E 11 b1 09 5b
        E 11 b1 09 5d
        E 11 b1 09 5f
        E 11 b1 09 62
        E 11 b1 09 63
        E 11 b1 09 65
        E 11 b1 09 67
        E 11 b1 09 69
        E 11 b1 09 6a
        E 11 b1 09 6c
        E 11 b1 09 6c
        E 11 b1 09 6d
        E 11 b1 09 6e
        E 11 b1 09 6f
        E 11 b1 09 70
        E 11 b1 09 71
        E 11 b1 09 71
        E 11 b1 09 72
        E 11 b1 09 72
        E 11 b1 09 72
        E 11 b1 09 72
        E 11 b1 09 72
        E 11 b1 09 71
        E 11 b1 09 71
        E 11 b1 09 70
        E 11 b1 09 6f
        E 11 b1 09 6e
        E 11 b1 09 6d
        E 11 b1 09 6c
        E 11 b1 09 6b
        E 11 b1 09 69
        E 11 b1 09 68
        E 11 b1 09 66
        E 11 b1 09 64
        E 11 b1 09 63
        E 11 b1 09 61
        E 11 b1 09 5e
        E 11 b1 09 5c
        E 11 b1 09 5a
        E 11 b1 09 58
        E 11 b1 09 55
        E 11 b1 09 52
        E 11 b1 09 50
        E 11 b1 09 4e
        E 11 b1 09 4b
        E 11 b1 09 48
        E 11 b1 09 46
        E 11 b1 09 42
        E 11 b1 09 3f
        E 11 b1 09 3d
        E 11 b1 09 3a
        E 11 b1 09 37
        E 11 b1 09 35
        E 11 b1 09 32
        E 11 b1 09 2f
        E 11 b1 09 2c
        E 11 b1 09 29
        E 11 b1 09 26
        E 11 b1 09 24
        E 11 b1 09 22
        E 11 b1 09 1f
        E 11 b1 09 1c
        E 11 b1 09 1a
        E 11 b1 09 18
        E 11 b1 09 15
        E 11 b1 09 13
        E 11 b1 09 11
        E 11 b1 09 0f
        E 11 b1 09 0d
        E 11 b1 09 0b
        E 11 b1 09 09
        E 11 b1 09 09
        E 11 b1 09 07
        E 11 b1 09 06
        E 11 b1 09 04
        E 11 b1 09 03
        E 11 b1 09 02
        E 11 b1 09 01
        E 11 b1 09 00
        E 11 b1 09 00
        E 11 b1 09 00
        E 11 b1 09 00
        E 11 b1 09 00
        E 11 b1 09 00
        E 11 b1 09 00
        E 11 b1 09 00
        E 11 b1 09 00
        E 11 b1 09 01
        E 11 b1 09 02
        E 11 b1 09 03
        E 11 b1 09 04
        E 11 b1 09 05
        E 11 b1 09 06
        E 11 b1 09 08
        E 11 b1 09 09
        E 11 b1 09 0a
        E 11 b1 09 0c
        E 11 b1 09 0e
        E 11 b1 09 10
        E 11 b1 09 12
        E 11 b1 09 14
        E 11 b1 09 16
        E 11 b1 09 19
        E 11 b1 09 1b
        E 11 b1 09 1d
        E 11 b1 09 20
        E 11 b1 09 23
        E 11 b1 09 25
        E 11 b1 09 28
        E 11 b1 09 2b
        E 11 b1 09 2d
        E 11 b1 09 30
        E 11 b1 09 33
        E 11 b1 09 36
        E 11 b1 09 39
        E 8 b1 09 20
        E 8 b1 09 21
        E 8 b1 09 23
        E 8 b1 09 24
        E 8 b1 09 26
        E 8 b1 09 27
        E 8 b1 09 29
        E 8 b1 09 2a
        E 8 b1 09 2c
        E 8 b1 09 2d
        E 8 b1 09 2f
        E 8 b1 09 30
        E 8 b1 09 31
        E 8 b1 09 33
        E 8 b1 09 34
        E 8 b1 09 35
        E 8 b1 09 36
        E 8 b1 09 37
        E 8 b1 09 38
        E 8 b1 09 39
        E 8 b1 09 3a
        E 8 b1 09 3b
        E 8 b1 09 3c
        E 8 b1 09 3c
        E 8 b1 09 3d
        E 8 b1 09 3d
        E 8 b1 09 3e
        E 8 b1 09 3e
        E 8 b1 09 3f
        E 8 b1 09 3f
        E 8 b1 09 3f
        E 8 b1 09 3f
        E 8 b1 09 3f
        E 8 b1 09 3f
        E 8 b1 09 3f
        E 8 b1 09 3f
        E 8 b1 09 3f
        E 8 b1 09 3e
        E 8 b1 09 3e
        E 8 b1 09 3d
        E 8 b1 09 3d
        E 8 b1 09 3c
        E 8 b1 09 3b
        E 8 b1 09 3a
        E 8 b1 09 3a
        E 8 b1 09 39
        E 8 b1 09 38
        E 8 b1 09 37
        E 8 b1 09 36
        E 8 b1 09 34
        E 8 b1 09 33
        E 8 b1 09 32
        E 8 b1 09 31
        E 8 b1 09 2f
        E 8 b1 09 2e
        E 8 b1 09 2c
        E 8 b1 09 2b
        E 8 b1 09 2a
        E 8 b1 09 28
        E 8 b1 09 27
        E 8 b1 09 25
        E 8 b1 09 23
        E 8 b1 09 22
        E 8 b1 09 20
        E 8 b1 09 1f
        E 8 b1 09 1d
        E 8 b1 09 1c
        E 8 b1 09 1a
        E 8 b1 09 18
        E 8 b1 09 17
        E 8 b1 09 15
        E 8 b1 09 14
        E 8 b1 09 13
        E 8 b1 09 11
        E 8 b1 09 10
        E 8 b1 09 0e
        E 8 b1 09 0d
        E 8 b1 09 0c
        E 8 b1 09 0b
        E 8 b1 09 09
        E 8 b1 09 08
        E 8 b1 09 07
        E 8 b1 09 06
        E 8 b1 09 05
        E 8 b1 09 05
        E 8 b1 09 04
        E 8 b1 09 03
        E 8 b1 09 02
        E 8 b1 09 02
        E 8 b1 09 01
        E 8 b1 09 01
        E 8 b1 09 00
        E 8 b1 09 00
        E 8 b1 09 00
        E 8 b1 09 00
        E 8 b1 09 00
        E 8 b1 09 00
        E 8 b1 09 00
        E 8 b1 09 00
        E 8 b1 09 00
        E 8 b1 09 01
        E 8 b1 09 01
        E 8 b1 09 02
        E 8 b1 09 02
        E 8 b1 09 03
        E 8 b1 09 03
        E 8 b1 09 04
        E 8 b1 09 05
        E 8 b1 09 06
        E 8 b1 09 07
        E 8 b1 09 08
        E 8 b1 09 09
        E 8 b1 09 0a
        E 8 b1 09 0b
        E 8 b1 09 0c
        E 8 b1 09 0e
        E 8 b1 09 0f
        E 8 b1 09 10
        E 8 b1 09 12
        E 8 b1 09 13
        E 8 b1 09 15
        E 8 b1 09 16
        E 8 b1 09 18
        E 8 b1 09 19
        E 8 b1 09 1b
        E 8 b1 09 1c
        E 8 b1 09 1e
        E 8 b1 09 20
        E 8 b1 09 20
        E 8 b1 09 21
        E 8 b1 09 23
        E 8 b1 09 24
        E 8 b1 09 26
        E 8 b1 09 27
        E 8 b1 09 29
        E 8 b1 09 2a
        E 8 b1 09 2c
        E 8 b1 09 2d
        E 8 b1 09 2f
        E 8 b1 09 30
        E 8 b1 09 31
        E 8 b1 09 33
        E 8 b1 09 34
        E 8 b1 09 35
        E 8 b1 09 36
        E 8 b1 09 37
        E 8 b1 09 38
        E 8 b1 09 39
        E 8 b1 09 3a
        E 8 b1 09 3b
        E 8 b1 09 3c
        E 8 b1 09 3c
        E 8 b1 09 3d
        E 8 b1 09 3d
        E 8 b1 09 3e
        E 8 b1 09 3e
        E 8 b1 09 3f
        E 8 b1 09 3f
        E 8 b1 09 3f
        E 8 b1 09 3f
        E 8 b1 09 3f
        E 8 b1 09 3f
        E 8 b1 09 3f
        E 8 b1 09 3f
        E 8 b1 09 3f
        E 8 b1 09 3e
        E 8 b1 09 3e
        E 8 b1 09 3d
        E 8 b1 09 3d
        E 8 b1 09 3c
        E 8 b1 09 3b
        E 8 b1 09 3a
        E 8 b1 09 3a
        E 8 b1 09 39
        E 8 b1 09 38
        E 8 b1 09 37
        E 8 b1 09 36
        E 8 b1 09 34
        E 8 b1 09 33
        E 8 b1 09 32
        E 8 b1 09 31
        E 8 b1 09 2f
        E 8 b1 09 2e
        E 8 b1 09 2c
        E 8 b1 09 2b
        E 8 b1 09 2a
        E 8 b1 09 28
        E 8 b1 09 27
        E 8 b1 09 25
        E 8 b1 09 23
        E 8 b1 09 22
        E 8 b1 09 20
        E 8 b1 09 1f
        E 8 b1 09 1d
        E 8 b1 09 1c
        E 8 b1 09 1a
        E 8 b1 09 18
        E 8 b1 09 17
        E 8 b1 09 15
        E 8 b1 09 14
        E 8 b1 09 13
        E 8 b1 09 11
        E 8 b1 09 10
        E 8 b1 09 0e
        E 8 b1 09 0d
        E 8 b1 09 0c
        E 8 b1 09 0b
        E 8 b1 09 09
        E 8 b1 09 08
        E 8 b1 09 07
        E 8 b1 09 06
        E 8 b1 09 05
        E 8 b1 09 05
        E 8 b1 09 04
        E 8 b1 09 03
        E 8 b1 09 02
        E 8 b1 09 02
        E 8 b1 09 01
        E 8 b1 09 01
        E 8 b1 09 00
        E 8 b1 09 00
        E 8 b1 09 00
        E 8 b1 09 00
        E 8 b1 09 00
        E 8 b1 09 00
        E 8 b1 09 00
        E 8 b1 09 00
        E 8 b1 09 00
        E 8 b1 09 01
        E 8 b1 09 01
        E 8 b1 09 02
        E 8 b1 09 02
        E 8 b1 09 03
        E 8 b1 09 03
        E 8 b1 09 04
        E 8 b1 09 05
        E 8 b1 09 06
        E 8 b1 09 07
        E 8 b1 09 08
        E 8 b1 09 09
        E 8 b1 09 0a
        E 8 b1 09 0b
        E 8 b1 09 0c
        E 8 b1 09 0e
        E 8 b1 09 0f
        E 8 b1 09 10
        E 8 b1 09 12
        E 8 b1 09 13
        E 8 b1 09 15
        E 8 b1 09 16
        E 8 b1 09 18
        E 8 b1 09 19
        E 8 b1 09 1b
        E 8 b1 09 1c
        E 8 b1 09 1e
        E 8 b1 09 20
        E 17 b1 09 2c
        E 17 b1 09 2e
        E 17 b1 09 31
        E 17 b1 09 33
        E 17 b1 09 35
        E 17 b1 09 37
        E 17 b1 09 39
        E 17 b1 09 3b
        E 17 b1 09 3d
        E 17 b1 09 3f
        E 17 b1 09 41
        E 17 b1 09 43
        E 17 b1 09 45
        E 17 b1 09 47
        E 17 b1 09 48
        E 17 b1 09 4a
        E 17 b1 09 4c
        E 17 b1 09 4d
        E 17 b1 09 4f
        E 17 b1 09 50
        E 17 b1 09 51
        E 17 b1 09 52
        E 17 b1 09 54
        E 17 b1 09 54
        E 17 b1 09 55
        E 17 b1 09 56
        E 17 b1 09 56
        E 17 b1 09 57
        E 17 b1 09 58
        E 17 b1 09 58
        E 17 b1 09 58
        E 17 b1 09 58
        E 17 b1 09 58
        E 17 b1 09 58
        E 17 b1 09 58
        E 17 b1 09 58
        E 17 b1 09 58
        E 17 b1 09 57
        E 17 b1 09 56
        E 17 b1 09 56
        E 17 b1 09 55
        E 17 b1 09 54
        E 17 b1 09 53
        E 17 b1 09 51
        E 17 b1 09 51
        E 17 b1 09 4f
        E 17 b1 09 4e
        E 17 b1 09 4d
        E 17 b1 09 4b
        E 17 b1 09 49
        E 17 b1 09 48
        E 17 b1 09 46
        E 17 b1 09 44
        E 17 b1 09 42
        E 17 b1 09 40
        E 17 b1 09 3e
        E 17 b1 09 3c
        E 17 b1 09 3a
        E 17 b1 09 38
        E 17 b1 09 36
        E 17 b1 09 33
        E 17 b1 09 31
        E 17 b1 09 2f
        E 17 b1 09 2d
        E 17 b1 09 2b
        E 17 b1 09 29
        E 17 b1 09 27
        E 17 b1 09 25
        E 17 b1 09 22
        E 17 b1 09 20
        E 17 b1 09 1e
        E 17 b1 09 1c
        E 17 b1 09 1a
        E 17 b1 09 18
        E 17 b1 09 16
        E 17 b1 09 14
        E 17 b1 09 12
        E 17 b1 09 10
        E 17 b1 09 0f
        E 17 b1 09 0d
        E 17 b1 09 0b
        E 17 b1 09 0a
        E 17 b1 09 09
        E 17 b1 09 07
        E 17 b1 09 07
        E 17 b1 09 05
        E 17 b1 09 04
        E 17 b1 09 03
        E 17 b1 09 02
        E 17 b1 09 02
        E 17 b1 09 01
        E 17 b1 09 00
        E 17 b1 09 00
        E 17 b1 09 00
        E 17 b1 09 00
        E 17 b1 09 00
        E 17 b1 09 00
        E 17 b1 09 00
        E 17 b1 09 00
        E 17 b1 09 00
        E 17 b1 09 01
        E 17 b1 09 02
        E 17 b1 09 02
        E 17 b1 09 03
        E 17 b1 09 04
        E 17 b1 09 04
        E 17 b1 09 06
        E 17 b1 09 07
        E 17 b1 09 08
        E 17 b1 09 09
        E 17 b1 09 0b
        E 17 b1 09 0c
        E 17 b1 09 0e
        E 17 b1 09 10
        E 17 b1 09 11
        E 17 b1 09 13
        E 17 b1 09 15
        E 17 b1 09 17
        E 17 b1 09 19
        E 17 b1 09 1b
        E 17 b1 09 1d
        E 17 b1 09 1f
        E 17 b1 09 21
        E 17 b1 09 23
        E 17 b1 09 25
        E 17 b1 09 27
        E 17 b1 09 2a
        E 17 b1 09 2c
        E 15 b1 09 33
        E 15 b1 09 35
        E 15 b1 09 37
        E 15 b1 09 3a
        E 15 b1 09 3c
        E 15 b1 09 3f
        E 15 b1 09 41
        E 15 b1 09 44
        E 15 b1 09 46
        E 15 b1 09 48
        E 15 b1 09 4b
        E 15 b1 09 4c
        E 15 b1 09 4f
        E 15 b1 09 51
        E 15 b1 09 53
        E 15 b1 09 54
        E 15 b1 09 57
        E 15 b1 09 58
        E 15 b1 09 5a
        E 15 b1 09 5b
        E 15 b1 09 5d
        E 15 b1 09 5e
        E 15 b1 09 5f
        E 15 b1 09 60
        E 15 b1 09 61
        E 15 b1 09 62
        E 15 b1 09 63
        E 15 b1 09 63
        E 15 b1 09 64
        E 15 b1 09 64
        E 15 b1 09 65
        E 15 b1 09 65
        E 15 b1 09 65
        E 15 b1 09 65
        E 15 b1 09 65
        E 15 b1 09 64
        E 15 b1 09 64
        E 15 b1 09 63
        E 15 b1 09 63
        E 15 b1 09 62
        E 15 b1 09 61
        E 15 b1 09 5f
        E 15 b1 09 5f
        E 15 b1 09 5d
        E 15 b1 09 5c
        E 15 b1 09 5b
        E 15 b1 09 59
        E 15 b1 09 57
        E 15 b1 09 56
        E 15 b1 09 54
        E 15 b1 09 52
        E 15 b1 09 50
        E 15 b1 09 4e
        E 15 b1 09 4c
        E 15 b1 09 49
        E 15 b1 09 47
        E 15 b1 09 45
        E 15 b1 09 43
        E 15 b1 09 40
        E 15 b1 09 3e
        E 15 b1 09 3b
        E 15 b1 09 38
        E 15 b1 09 36
        E 15 b1 09 33
        E 15 b1 09 31
        E 15 b1 09 2f
        E 15 b1 09 2c
        E 15 b1 09 2a
        E 15 b1 09 27
        E 15 b1 09 24
        E 15 b1 09 22
        E 15 b1 09 1f
        E 15 b1 09 1e
        E 15 b1 09 1b
        E 15 b1 09 19
        E 15 b1 09 17
        E 15 b1 09 15
        E 15 b1 09 13
        E 15 b1 09 11
        E 15 b1 09 0f
        E 15 b1 09 0d
        E 15 b1 09 0b
        E 15 b1 09 0a
        E 15 b1 09 08
        E 15 b1 09 07
        E 15 b1 09 06
        E 15 b1 09 05
        E 15 b1 09 03
        E 15 b1 09 03
        E 15 b1 09 02
        E 15 b1 09 01
        E 15 b1 09 00
        E 15 b1 09 00
        E 15 b1 09 00
        E 15 b1 09 00
        E 15 b1 09 00
        E 15 b1 09 00
        E 15 b1 09 00
        E 15 b1 09 00
        E 15 b1 09 00
        E 15 b1 09 01
        E 15 b1 09 02
        E 15 b1 09 03
        E 15 b1 09 03
        E 15 b1 09 04
        E 15 b1 09 05
        E 15 b1 09 07
        E 15 b1 09 07
        E 15 b1 09 09
        E 15 b1 09 0b
        E 15 b1 09 0c
        E 15 b1 09 0e
        E 15 b1 09 10
        E 15 b1 09 12
        E 15 b1 09 14
        E 15 b1 09 16
        E 15 b1 09 18
        E 15 b1 09 1a
        E 15 b1 09 1c
        E 15 b1 09 1f
        E 15 b1 09 21
        E 15 b1 09 24
        E 15 b1 09 26
        E 15 b1 09 28
        E 15 b1 09 2b
        E 15 b1 09 2d
        E 15 b1 09 2f
        E 15 b1 09 33
        E 17 b1 09 06
        E 17 b1 09 06
        E 17 b1 09 07
        E 17 b1 09 07
        E 17 b1 09 07
        E 17 b1 09 07
        E 17 b1 09 08
        E 17 b1 09 08
        E 17 b1 09 08
        E 17 b1 09 09
        E 17 b1 09 09
        E 17 b1 09 09
        E 17 b1 09 09
        E 17 b1 09 0a
        E 17 b1 09 0a
        E 17 b1 09 0a
        E 17 b1 09 0a
        E 17 b1 09 0b
        E 17 b1 09 0b
        E 17 b1 09 0b
        E 17 b1 09 0b
        E 17 b1 09 0b
        E 17 b1 09 0c
        E 17 b1 09 0c
        E 17 b1 09 0c
        E 17 b1 09 0c
        E 17 b1 09 0c
        E 17 b1 09 0c
        E 17 b1 09 0c
        E 17 b1 09 0c
        E 17 b1 09 0c
        E 17 b1 09 0c
        E 17 b1 09 0c
        E 17 b1 09 0c
        E 17 b1 09 0c
        E 17 b1 09 0c
        E 17 b1 09 0c
        E 17 b1 09 0c
        E 17 b1 09 0c
        E 17 b1 09 0c
        E 17 b1 09 0c
        E 17 b1 09 0c
        E 17 b1 09 0b
        E 17 b1 09 0b
        E 17 b1 09 0b
        E 17 b1 09 0b
        E 17 b1 09 0b
        E 17 b1 09 0b
        E 17 b1 09 0a
        E 17 b1 09 0a
        E 17 b1 09 0a
        E 17 b1 09 0a
        E 17 b1 09 09
        E 17 b1 09 09
        E 17 b1 09 09
        E 17 b1 09 08
        E 17 b1 09 08
        E 17 b1 09 08
        E 17 b1 09 08
        E 17 b1 09 07
        E 17 b1 09 07
        E 17 b1 09 07
        E 17 b1 09 06
        E 17 b1 09 06
        E 17 b1 09 06
        E 17 b1 09 05
        E 17 b1 09 05
        E 17 b1 09 05
        E 17 b1 09 04
        E 17 b1 09 04
        E 17 b1 09 04
        E 17 b1 09 04
        E 17 b1 09 03
        E 17 b1 09 03
        E 17 b1 09 03
        E 17 b1 09 02
        E 17 b1 09 02
        E 17 b1 09 02
        E 17 b1 09 02
        E 17 b1 09 01
        E 17 b1 09 01
        E 17 b1 09 01
        E 17 b1 09 01
        E 17 b1 09 01
        E 17 b1 09 01
        E 17 b1 09 00
        E 17 b1 09 00
        E 17 b1 09 00
        E 17 b1 09 00
        E 17 b1 09 00
        E 17 b1 09 00
        E 17 b1 09 00
        E 17 b1 09 00
        E 17 b1 09 00
        E 17 b1 09 00
        E 17 b1 09 00
        E 17 b1 09 00
        E 17 b1 09 00
        E 17 b1 09 00
        E 17 b1 09 00
        E 17 b1 09 00
        E 17 b1 09 00
        E 17 b1 09 00
        E 17 b1 09 00
        E 17 b1 09 00
        E 17 b1 09 00
        E 17 b1 09 00
        E 17 b1 09 01
        E 17 b1 09 01
        E 17 b1 09 01
        E 17 b1 09 01
        E 17 b1 09 01
        E 17 b1 09 02
        E 17 b1 09 02
        E 17 b1 09 02
        E 17 b1 09 02
        E 17 b1 09 03
        E 17 b1 09 03
        E 17 b1 09 03
        E 17 b1 09 03
        E 17 b1 09 04
        E 17 b1 09 04
        E 17 b1 09 04
        E 17 b1 09 05
        E 17 b1 09 05
        E 17 b1 09 05
        E 17 b1 09 06
        E 17 b1 09 06
        E 15 b1 09 19
        E 15 b1 09 1a
        E 15 b1 09 1c
        E 15 b1 09 1d
        E 15 b1 09 1e
        E 15 b1 09 1f
        E 15 b1 09 20
        E 15 b1 09 22
        E 15 b1 09 23
        E 15 b1 09 24
        E 15 b1 09 25
        E 15 b1 09 26
        E 15 b1 09 27
        E 15 b1 09 28
        E 15 b1 09 29
        E 15 b1 09 2a
        E 15 b1 09 2b
        E 15 b1 09 2c
        E 15 b1 09 2d
        E 15 b1 09 2e
        E 15 b1 09 2e
        E 15 b1 09 2f
        E 15 b1 09 30
        E 15 b1 09 30
        E 15 b1 09 30
        E 15 b1 09 31
        E 15 b1 09 31
        E 15 b1 09 32
        E 15 b1 09 32
        E 15 b1 09 32
        E 15 b1 09 32
        E 15 b1 09 32
        E 15 b1 09 32
        E 15 b1 09 32
        E 15 b1 09 32
        E 15 b1 09 32
        E 15 b1 09 32
        E 15 b1 09 32
        E 15 b1 09 31
        E 15 b1 09 31
        E 15 b1 09 30
        E 15 b1 09 30
        E 15 b1 09 2f
        E 15 b1 09 2e
        E 15 b1 09 2e
        E 15 b1 09 2d
        E 15 b1 09 2c
        E 15 b1 09 2c
        E 15 b1 09 2b
        E 15 b1 09 2a
        E 15 b1 09 29
        E 15 b1 09 28
        E 15 b1 09 27
        E 15 b1 09 26
        E 15 b1 09 24
        E 15 b1 09 23
        E 15 b1 09 22
        E 15 b1 09 21
        E 15 b1 09 20
        E 15 b1 09 1f
        E 15 b1 09 1d
        E 15 b1 09 1c
        E 15 b1 09 1b
        E 15 b1 09 1a
        E 15 b1 09 18
        E 15 b1 09 17
        E 15 b1 09 16
        E 15 b1 09 15
        E 15 b1 09 13
        E 15 b1 09 12
        E 15 b1 09 11
        E 15 b1 09 10
        E 15 b1 09 0f
        E 15 b1 09 0e
        E 15 b1 09 0c
        E 15 b1 09 0b
        E 15 b1 09 0a
        E 15 b1 09 09
        E 15 b1 09 08
        E 15 b1 09 07
        E 15 b1 09 06
        E 15 b1 09 06
        E 15 b1 09 05
        E 15 b1 09 04
        E 15 b1 09 04
        E 15 b1 09 03
        E 15 b1 09 02
        E 15 b1 09 02
        E 15 b1 09 01
        E 15 b1 09 01
        E 15 b1 09 00
        E 15 b1 09 00
        E 15 b1 09 00
        E 15 b1 09 00
        E 15 b1 09 00
        E 15 b1 09 00
        E 15 b1 09 00
        E 15 b1 09 00
        E 15 b1 09 00
        E 15 b1 09 00
        E 15 b1 09 00
        E 15 b1 09 01
        E 15 b1 09 01
        E 15 b1 09 02
        E 15 b1 09 02
        E 15 b1 09 02
        E 15 b1 09 03
        E 15 b1 09 04
        E 15 b1 09 04
        E 15 b1 09 05
        E 15 b1 09 06
        E 15 b1 09 07
        E 15 b1 09 08
        E 15 b1 09 09
        E 15 b1 09 0a
        E 15 b1 09 0b
        E 15 b1 09 0c
        E 15 b1 09 0d
        E 15 b1 09 0e
        E 15 b1 09 0f
        E 15 b1 09 10
        E 15 b1 09 12
        E 15 b1 09 13
        E 15 b1 09 14
        E 15 b1 09 15
        E 15 b1 09 16
        E 15 b1 09 18
        E 15 b1 09 19
        E 8 b1 09 2c
        E 8 b1 09 2e
        E 8 b1 09 31
        E 8 b1 09 33
        E 8 b1 09 35
        E 8 b1 09 37
        E 8 b1 09 39
        E 8 b1 09 3b
        E 8 b1 09 3d
        E 8 b1 09 3f
        E 8 b1 09 41
        E 8 b1 09 43
        E 8 b1 09 45
        E 8 b1 09 47
        E 8 b1 09 48
        E 8 b1 09 4a
        E 8 b1 09 4c
        E 8 b1 09 4d
        E 8 b1 09 4f
        E 8 b1 09 50
        E 8 b1 09 51
        E 8 b1 09 52
        E 8 b1 09 54
        E 8 b1 09 54
        E 8 b1 09 55
        E 8 b1 09 56
        E 8 b1 09 56
        E 8 b1 09 57
        E 8 b1 09 58
        E 8 b1 09 58
        E 8 b1 09 58
        E 8 b1 09 58
        E 8 b1 09 58
        E 8 b1 09 58
        E 8 b1 09 58
        E 8 b1 09 58
        E 8 b1 09 58
        E 8 b1 09 57
        E 8 b1 09 56
        E 8 b1 09 56
        E 8 b1 09 55
        E 8 b1 09 54
        E 8 b1 09 53
        E 8 b1 09 51
        E 8 b1 09 51
        E 8 b1 09 4f
        E 8 b1 09 4e
        E 8 b1 09 4d
        E 8 b1 09 4b
        E 8 b1 09 49
        E 8 b1 09 48
        E 8 b1 09 46
        E 8 b1 09 44
        E 8 b1 09 42
        E 8 b1 09 40
        E 8 b1 09 3e
        E 8 b1 09 3c
        E 8 b1 09 3a
        E 8 b1 09 38
        E 8 b1 09 36
        E 8 b1 09 33
        E 8 b1 09 31
        E 8 b1 09 2f
        E 8 b1 09 2d
        E 8 b1 09 2b
        E 8 b1 09 29
        E 8 b1 09 27
        E 8 b1 09 25
        E 8 b1 09 22
        E 8 b1 09 20
        E 8 b1 09 1e
        E 8 b1 09 1c
        E 8 b1 09 1a
        E 8 b1 09 18
        E 8 b1 09 16
        E 8 b1 09 14
        E 8 b1 09 12
        E 8 b1 09 10
        E 8 b1 09 0f
        E 8 b1 09 0d
        E 8 b1 09 0b
        E 8 b1 09 0a
        E 8 b1 09 09
        E 8 b1 09 07
        E 8 b1 09 07
        E 8 b1 09 05
        E 8 b1 09 04
        E 8 b1 09 03
        E 8 b1 09 02
        E 8 b1 09 02
        E 8 b1 09 01
        E 8 b1 09 00
        E 8 b1 09 00
        E 8 b1 09 00
        E 8 b1 09 00
        E 8 b1 09 00
        E 8 b1 09 00
        E 8 b1 09 00
        E 8 b1 09 00
        E 8 b1 09 00
        E 8 b1 09 01
        E 8 b1 09 02
        E 8 b1 09 02
        E 8 b1 09 03
        E 8 b1 09 04
        E 8 b1 09 04
        E 8 b1 09 06
        E 8 b1 09 07
        E 8 b1 09 08
        E 8 b1 09 09
        E 8 b1 09 0b
        E 8 b1 09 0c
        E 8 b1 09 0e
        E 8 b1 09 10
        E 8 b1 09 11
        E 8 b1 09 13
        E 8 b1 09 15
        E 8 b1 09 17
        E 8 b1 09 19
        E 8 b1 09 1b
        E 8 b1 09 1d
        E 8 b1 09 1f
        E 8 b1 09 21
        E 8 b1 09 23
        E 8 b1 09 25
        E 8 b1 09 27
        E 8 b1 09 2a
        E 8 b1 09 2c
        E 8 b1 09 20
        E 8 b1 09 21
        E 8 b1 09 23
        E 8 b1 09 24
        E 8 b1 09 26
        E 8 b1 09 27
        E 8 b1 09 29
        E 8 b1 09 2a
        E 8 b1 09 2c
        E 8 b1 09 2d
        E 8 b1 09 2f
        E 8 b1 09 30
        E 8 b1 09 31
        E 8 b1 09 33
        E 8 b1 09 34
        E 8 b1 09 35
        E 8 b1 09 36
        E 8 b1 09 37
        E 8 b1 09 38
        E 8 b1 09 39
        E 8 b1 09 3a
        E 8 b1 09 3b
        E 8 b1 09 3c
        E 8 b1 09 3c
        E 8 b1 09 3d
        E 8 b1 09 3d
        E 8 b1 09 3e
        E 8 b1 09 3e
        E 8 b1 09 3f
        E 8 b1 09 3f
        E 8 b1 09 3f
        E 8 b1 09 3f
        E 8 b1 09 3f
        E 8 b1 09 3f
        E 8 b1 09 3f
        E 8 b1 09 3f
        E 8 b1 09 3f
        E 8 b1 09 3e
        E 8 b1 09 3e
        E 8 b1 09 3d
        E 8 b1 09 3d
        E 8 b1 09 3c
        E 8 b1 09 3b
        E 8 b1 09 3a
        E 8 b1 09 3a
        E 8 b1 09 39
        E 8 b1 09 38
        E 8 b1 09 37
        E 8 b1 09 36
        E 8 b1 09 34
        E 8 b1 09 33
        E 8 b1 09 32
        E 8 b1 09 31
        E 8 b1 09 2f
        E 8 b1 09 2e
        E 8 b1 09 2c
        E 8 b1 09 2b
        E 8 b1 09 2a
        E 8 b1 09 28
        E 8 b1 09 27
        E 8 b1 09 25
        E 8 b1 09 23
        E 8 b1 09 22
        E 8 b1 09 20
        E 8 b1 09 1f
        E 8 b1 09 1d
        E 8 b1 09 1c
        E 8 b1 09 1a
        E 8 b1 09 18
        E 8 b1 09 17
        E 8 b1 09 15
        E 8 b1 09 14
        E 8 b1 09 13
        E 8 b1 09 11
        E 8 b1 09 10
        E 8 b1 09 0e
        E 8 b1 09 0d
        E 8 b1 09 0c
        E 8 b1 09 0b
        E 8 b1 09 09
        E 8 b1 09 08
        E 8 b1 09 07
        E 8 b1 09 06
        E 8 b1 09 05
        E 8 b1 09 05
        E 8 b1 09 04
        E 8 b1 09 03
        E 8 b1 09 02
        E 8 b1 09 02
        E 8 b1 09 01
        E 8 b1 09 01
        E 8 b1 09 00
        E 8 b1 09 00
        E 8 b1 09 00
        E 8 b1 09 00
        E 8 b1 09 00
        E 8 b1 09 00
        E 8 b1 09 00
        E 8 b1 09 00
        E 8 b1 09 00
        E 8 b1 09 01
        E 8 b1 09 01
        E 8 b1 09 02
        E 8 b1 09 02
        E 8 b1 09 03
        E 8 b1 09 03
        E 8 b1 09 04
        E 8 b1 09 05
        E 8 b1 09 06
        E 8 b1 09 07
        E 8 b1 09 08
        E 8 b1 09 09
        E 8 b1 09 0a
        E 8 b1 09 0b
        E 8 b1 09 0c
        E 8 b1 09 0e
        E 8 b1 09 0f
        E 8 b1 09 10
        E 8 b1 09 12
        E 8 b1 09 13
        E 8 b1 09 15
        E 8 b1 09 16
        E 8 b1 09 18
        E 8 b1 09 19
        E 8 b1 09 1b
        E 8 b1 09 1c
        E 8 b1 09 1e
        E 8 b1 09 20
        E 11 b1 09 20
        E 11 b1 09 21
        E 11 b1 09 23
        E 11 b1 09 24
        E 11 b1 09 26
        E 11 b1 09 27
        E 11 b1 09 29
        E 11 b1 09 2a
        E 11 b1 09 2c
        E 11 b1 09 2d
        E 11 b1 09 2f
        E 11 b1 09 30
        E 11 b1 09 31
        E 11 b1 09 33
        E 11 b1 09 34
        E 11 b1 09 35
        E 11 b1 09 36
        E 11 b1 09 37
        E 11 b1 09 38
        E 11 b1 09 39
        E 11 b1 09 3a
        E 11 b1 09 3b
        E 11 b1 09 3c
        E 11 b1 09 3c
        E 11 b1 09 3d
        E 11 b1 09 3d
        E 11 b1 09 3e
        E 11 b1 09 3e
        E 11 b1 09 3f
        E 11 b1 09 3f
        E 11 b1 09 3f
        E 11 b1 09 3f
        E 11 b1 09 3f
        E 11 b1 09 3f
        E 11 b1 09 3f
        E 11 b1 09 3f
        E 11 b1 09 3f
        E 11 b1 09 3e
        E 11 b1 09 3e
        E 11 b1 09 3d
        E 11 b1 09 3d
        E 11 b1 09 3c
        E 11 b1 09 3b
        E 11 b1 09 3a
        E 11 b1 09 3a
        E 11 b1 09 39
        E 11 b1 09 38
        E 11 b1 09 37
        E 11 b1 09 36
        E 11 b1 09 34
        E 11 b1 09 33
        E 11 b1 09 32
        E 11 b1 09 31
        E 11 b1 09 2f
        E 11 b1 09 2e
        E 11 b1 09 2c
        E 11 b1 09 2b
        E 11 b1 09 2a
        E 11 b1 09 28
        E 11 b1 09 27
        E 11 b1 09 25
        E 11 b1 09 23
        E 11 b1 09 22
        E 11 b1 09 20
        E 11 b1 09 1f
        E 11 b1 09 1d
        E 11 b1 09 1c
        E 11 b1 09 1a
        E 11 b1 09 18
        E 11 b1 09 17
        E 11 b1 09 15
        E 11 b1 09 14
        E 11 b1 09 13
        E 11 b1 09 11
        E 11 b1 09 10
        E 11 b1 09 0e
        E 11 b1 09 0d
        E 11 b1 09 0c
        E 11 b1 09 0b
        E 11 b1 09 09
        E 11 b1 09 08
        E 11 b1 09 07
        E 11 b1 09 06
        E 11 b1 09 05
        E 11 b1 09 05
        E 11 b1 09 04
        E 11 b1 09 03
        E 11 b1 09 02
        E 11 b1 09 02
        E 11 b1 09 01
        E 11 b1 09 01
        E 11 b1 09 00
        E 11 b1 09 00
        E 11 b1 09 00
        E 11 b1 09 00
        E 11 b1 09 00
        E 11 b1 09 00
        E 11 b1 09 00
        E 11 b1 09 00
        E 11 b1 09 00
        E 11 b1 09 01
        E 11 b1 09 01
        E 11 b1 09 02
        E 11 b1 09 02
        E 11 b1 09 03
        E 11 b1 09 03
        E 11 b1 09 04
        E 11 b1 09 05
        E 11 b1 09 06
        E 11 b1 09 07
        E 11 b1 09 08
        E 11 b1 09 09
        E 11 b1 09 0a
        E 11 b1 09 0b
        E 11 b1 09 0c
        E 11 b1 09 0e
        E 11 b1 09 0f
        E 11 b1 09 10
        E 11 b1 09 12
        E 11 b1 09 13
        E 11 b1 09 15
        E 11 b1 09 16
        E 11 b1 09 18
        E 11 b1 09 19
        E 11 b1 09 1b
        E 11 b1 09 1c
        E 11 b1 09 1e
        E 11 b1 09 20
        E 13 b1 09 40
        E 13 b1 09 43
        E 13 b1 09 46
        E 13 b1 09 49
        E 13 b1 09 4c
        E 13 b1 09 4f
        E 13 b1 09 52
        E 13 b1 09 55
        E 13 b1 09 58
        E 13 b1 09 5b
        E 13 b1 09 5e
        E 13 b1 09 60
        E 13 b1 09 63
        E 13 b1 09 66
        E 13 b1 09 68
        E 13 b1 09 6a
        E 13 b1 09 6d
        E 13 b1 09 6f
        E 13 b1 09 71
        E 13 b1 09 73
        E 13 b1 09 75
        E 13 b1 09 76
        E 13 b1 09 78
        E 13 b1 09 79
        E 13 b1 09 7a
        E 13 b1 09 7b
        E 13 b1 09 7c
        E 13 b1 09 7d
        E 13 b1 09 7e
        E 13 b1 09 7e
        E 13 b1 09 7f
        E 13 b1 09 7f
        E 13 b1 09 7f
        E 13 b1 09 7f
        E 13 b1 09 7f
        E 13 b1 09 7e
        E 13 b1 09 7e
        E 13 b1 09 7d
        E 13 b1 09 7c
        E 13 b1 09 7b
        E 13 b1 09 7a
        E 13 b1 09 78
        E 13 b1 09 77
        E 13 b1 09 75
        E 13 b1 09 74
        E 13 b1 09 72
        E 13 b1 09 70
        E 13 b1 09 6e
        E 13 b1 09 6c
        E 13 b1 09 69
        E 13 b1 09 67
        E 13 b1 09 64
        E 13 b1 09 62
        E 13 b1 09 5f
        E 13 b1 09 5c
        E 13 b1 09 59
        E 13 b1 09 57
        E 13 b1 09 54
        E 13 b1 09 51
        E 13 b1 09 4e
        E 13 b1 09 4a
        E 13 b1 09 47
        E 13 b1 09 44
        E 13 b1 09 41
        E 13 b1 09 3e
        E 13 b1 09 3b
        E 13 b1 09 38
        E 13 b1 09 35
        E 13 b1 09 31
        E 13 b1 09 2e
        E 13 b1 09 2b
        E 13 b1 09 28
        E 13 b1 09 26
        E 13 b1 09 23
        E 13 b1 09 20
        E 13 b1 09 1d
        E 13 b1 09 1b
        E 13 b1 09 18
        E 13 b1 09 16
        E 13 b1 09 13
        E 13 b1 09 11
        E 13 b1 09 0f
        E 13 b1 09 0d
        E 13 b1 09 0b
        E 13 b1 09 0a
        E 13 b1 09 08
        E 13 b1 09 07
        E 13 b1 09 05
        E 13 b1 09 04
        E 13 b1 09 03
        E 13 b1 09 02
        E 13 b1 09 01
        E 13 b1 09 01
        E 13 b1 09 00
        E 13 b1 09 00
        E 13 b1 09 00
        E 13 b1 09 00
        E 13 b1 09 00
        E 13 b1 09 01
        E 13 b1 09 01
        E 13 b1 09 02
        E 13 b1 09 03
        E 13 b1 09 04
        E 13 b1 09 05
        E 13 b1 09 06
        E 13 b1 09 07
        E 13 b1 09 09
        E 13 b1 09 0a
        E 13 b1 09 0c
        E 13 b1 09 0e
        E 13 b1 09 10
        E 13 b1 09 12
        E 13 b1 09 15
        E 13 b1 09 17
        E 13 b1 09 19
        E 13 b1 09 1c
        E 13 b1 09 1f
        E 13 b1 09 21
        E 13 b1 09 24
        E 13 b1 09 27
        E 13 b1 09 2a
        E 13 b1 09 2d
        E 13 b1 09 30
        E 13 b1 09 33
        E 13 b1 09 36
        E 13 b1 09 39
        E 13 b1 09 3c
        E 13 b1 09 40
        E 1 b1 09 39
        E 1 b1 09 3c
        E 1 b1 09 3f
        E 1 b1 09 41
        E 1 b1 09 44
        E 1 b1 09 47
        E 1 b1 09 49
        E 1 b1 09 4c
        E 1 b1 09 4f
        E 1 b1 09 51
        E 1 b1 09 54
        E 1 b1 09 56
        E 1 b1 09 59
        E 1 b1 09 5b
        E 1 b1 09 5d
        E 1 b1 09 5f
        E 1 b1 09 62
        E 1 b1 09 63
        E 1 b1 09 65
        E 1 b1 09 67
        E 1 b1 09 69
        E 1 b1 09 6a
        E 1 b1 09 6c
        E 1 b1 09 6c
        E 1 b1 09 6d
        E 1 b1 09 6e
        E 1 b1 09 6f
        E 1 b1 09 70
        E 1 b1 09 71
        E 1 b1 09 71
        E 1 b1 09 72
        E 1 b1 09 72
        E 1 b1 09 72
        E 1 b1 09 72
        E 1 b1 09 72
        E 1 b1 09 71
        E 1 b1 09 71
        E 1 b1 09 70
        E 1 b1 09 6f
        E 1 b1 09 6e
        E 1 b1 09 6d
        E 1 b1 09 6c
        E 1 b1 09 6b
        E 1 b1 09 69
        E 1 b1 09 68
        E 1 b1 09 66
        E 1 b1 09 64
        E 1 b1 09 63
        E 1 b1 09 61
        E 1 b1 09 5e
        E 1 b1 09 5c
        E 1 b1 09 5a
        E 1 b1 09 58
        E 1 b1 09 55
        E 1 b1 09 52
        E 1 b1 09 50
        E 1 b1 09 4e
        E 1 b1 09 4b
        E 1 b1 09 48
        E 1 b1 09 46
        E 1 b1 09 42
        E 1 b1 09 3f
        E 1 b1 09 3d
        E 1 b1 09 3a
        E 1 b1 09 37
        E 1 b1 09 35
        E 1 b1 09 32
        E 1 b1 09 2f
        E 1 b1 09 2c
        E 1 b1 09 29
        E 1 b1 09 26
        E 1 b1 09 24
        E 1 b1 09 22
        E 1 b1 09 1f
        E 1 b1 09 1c
        E 1 b1 09 1a
        E 1 b1 09 18
        E 1 b1 09 15
        E 1 b1 09 13
        E 1 b1 09 11
        E 1 b1 09 0f
        E 1 b1 09 0d
        E 1 b1 09 0b
        E 1 b1 09 09
        E 1 b1 09 09
        E 1 b1 09 07
        E 1 b1 09 06
        E 1 b1 09 04
        E 1 b1 09 03
        E 1 b1 09 02
        E 1 b1 09 01
        E 1 b1 09 00
        E 1 b1 09 00
        E 1 b1 09 00
        E 1 b1 09 00
        E 1 b1 09 00
        E 1 b1 09 00
        E 1 b1 09 00
        E 1 b1 09 00
        E 1 b1 09 00
        E 1 b1 09 01
        E 1 b1 09 02
        E 1 b1 09 03
        E 1 b1 09 04
        E 1 b1 09 05
        E 1 b1 09 06
        E 1 b1 09 08
        E 1 b1 09 09
        E 1 b1 09 0a
        E 1 b1 09 0c
        E 1 b1 09 0e
        E 1 b1 09 10
        E 1 b1 09 12
        E 1 b1 09 14
        E 1 b1 09 16
        E 1 b1 09 19
        E 1 b1 09 1b
        E 1 b1 09 1d
        E 1 b1 09 20
        E 1 b1 09 23
        E 1 b1 09 25
        E 1 b1 09 28
        E 1 b1 09 2b
        E 1 b1 09 2d
        E 1 b1 09 30
        E 1 b1 09 33
        E 1 b1 09 36
        E 1 b1 09 39
        E 6 b1 09 40
        E 6 b1 09 43
        E 6 b1 09 46
        E 6 b1 09 49
        E 6 b1 09 4c
        E 6 b1 09 4f
        E 6 b1 09 52
        E 6 b1 09 55
        E 6 b1 09 58
        E 6 b1 09 5b
        E 6 b1 09 5e
        E 6 b1 09 60
        E 6 b1 09 63
        E 6 b1 09 66
        E 6 b1 09 68
        E 6 b1 09 6a
        E 6 b1 09 6d
        E 6 b1 09 6f
        E 6 b1 09 71
        E 6 b1 09 73
        E 6 b1 09 75
        E 6 b1 09 76
        E 6 b1 09 78
        E 6 b1 09 79
        E 6 b1 09 7a
        E 6 b1 09 7b
        E 6 b1 09 7c
        E 6 b1 09 7d
        E 6 b1 09 7e
        E 6 b1 09 7e
        E 6 b1 09 7f
        E 6 b1 09 7f
        E 6 b1 09 7f
        E 6 b1 09 7f
        E 6 b1 09 7f
        E 6 b1 09 7e
        E 6 b1 09 7e
        E 6 b1 09 7d
        E 6 b1 09 7c
        E 6 b1 09 7b
        E 6 b1 09 7a
        E 6 b1 09 78
        E 6 b1 09 77
        E 6 b1 09 75
        E 6 b1 09 74
        E 6 b1 09 72
        E 6 b1 09 70
        E 6 b1 09 6e
        E 6 b1 09 6c
        E 6 b1 09 69
        E 6 b1 09 67
        E 6 b1 09 64
        E 6 b1 09 62
        E 6 b1 09 5f
        E 6 b1 09 5c
        E 6 b1 09 59
        E 6 b1 09 57
        E 6 b1 09 54
        E 6 b1 09 51
        E 6 b1 09 4e
        E 6 b1 09 4a
        E 6 b1 09 47
        E 6 b1 09 44
        E 6 b1 09 41
        E 6 b1 09 3e
        E 6 b1 09 3b
        E 6 b1 09 38
        E 6 b1 09 35
        E 6 b1 09 31
        E 6 b1 09 2e
        E 6 b1 09 2b
        E 6 b1 09 28
        E 6 b1 09 26
        E 6 b1 09 23
        E 6 b1 09 20
        E 6 b1 09 1d
        E 6 b1 09 1b
        E 6 b1 09 18
        E 6 b1 09 16
        E 6 b1 09 13
        E 6 b1 09 11
        E 6 b1 09 0f
        E 6 b1 09 0d
        E 6 b1 09 0b
        E 6 b1 09 0a
        E 6 b1 09 08
        E 6 b1 09 07
        E 6 b1 09 05
        E 6 b1 09 04
        E 6 b1 09 03
        E 6 b1 09 02
        E 6 b1 09 01
        E 6 b1 09 01
        E 6 b1 09 00
        E 6 b1 09 00
        E 6 b1 09 00
        E 6 b1 09 00
        E 6 b1 09 00
        E 6 b1 09 01
        E 6 b1 09 01
        E 6 b1 09 02
        E 6 b1 09 03
        E 6 b1 09 04
        E 6 b1 09 05
        E 6 b1 09 06
        E 6 b1 09 07
        E 6 b1 09 09
        E 6 b1 09 0a
        E 6 b1 09 0c
        E 6 b1 09 0e
        E 6 b1 09 10
        E 6 b1 09 12
        E 6 b1 09 15
        E 6 b1 09 17
        E 6 b1 09 19
        E 6 b1 09 1c
        E 6 b1 09 1f
        E 6 b1 09 21
        E 6 b1 09 24
        E 6 b1 09 27
        E 6 b1 09 2a
        E 6 b1 09 2d
        E 6 b1 09 30
        E 6 b1 09 33
        E 6 b1 09 36
        E 6 b1 09 39
        E 6 b1 09 3c
        E 6 b1 09 40
        E 11 b1 09 39
        E 11 b1 09 3c
        E 11 b1 09 3f
        E 11 b1 09 41
        E 11 b1 09 44
        E 11 b1 09 47
        E 11 b1 09 49
        E 11 b1 09 4c
        E 11 b1 09 4f
        E 11 b1 09 51
        E 11 b1 09 54
        E 11 b1 09 56
        E 11 b1 09 59
        E 11 b1 09 5b
        E 11 b1 09 5d
        E 11 b1 09 5f
        E 11 b1 09 62
        E 11 b1 09 63
        E 11 b1 09 65
        E 11 b1 09 67
        E 11 b1 09 69
        E 11 b1 09 6a
        E 11 b1 09 6c
        E 11 b1 09 6c
        E 11 b1 09 6d
        E 11 b1 09 6e
        E 11 b1 09 6f
        E 11 b1 09 70
        E 11 b1 09 71
        E 11 b1 09 71
        E 11 b1 09 72
        E 11 b1 09 72
        E 11 b1 09 72
        E 11 b1 09 72
        E 11 b1 09 72
        E 11 b1 09 71
        E 11 b1 09 71
        E 11 b1 09 70
        E 11 b1 09 6f
        E 11 b1 09 6e
        E 11 b1 09 6d
        E 11 b1 09 6c
        E 11 b1 09 6b
        E 11 b1 09 69
        E 11 b1 09 68
        E 11 b1 09 66
        E 11 b1 09 64
        E 11 b1 09 63
        E 11 b1 09 61
        E 11 b1 09 5e
        E 11 b1 09 5c
        E 11 b1 09 5a
        E 11 b1 09 58
        E 11 b1 09 55
        E 11 b1 09 52
        E 11 b1 09 50
        E 11 b1 09 4e
        E 11 b1 09 4b
        E 11 b1 09 48
        E 11 b1 09 46
        E 11 b1 09 42
        E 11 b1 09 3f
        E 11 b1 09 3d
        E 11 b1 09 3a
        E 11 b1 09 37
        E 11 b1 09 35
        E 11 b1 09 32
        E 11 b1 09 2f
        E 11 b1 09 2c
        E 11 b1 09 29
        E 11 b1 09 26
        E 11 b1 09 24
        E 11 b1 09 22
        E 11 b1 09 1f
        E 11 b1 09 1c
        E 11 b1 09 1a
        E 11 b1 09 18
        E 11 b1 09 15
        E 11 b1 09 13
        E 11 b1 09 11
        E 11 b1 09 0f
        E 11 b1 09 0d
        E 11 b1 09 0b
        E 11 b1 09 09
        E 11 b1 09 09
        E 11 b1 09 07
        E 11 b1 09 06
        E 11 b1 09 04
        E 11 b1 09 03
        E 11 b1 09 02
        E 11 b1 09 01
        E 11 b1 09 00
        E 11 b1 09 00
        E 11 b1 09 00
        E 11 b1 09 00
        E 11 b1 09 00
        E 11 b1 09 00
        E 11 b1 09 00
        E 11 b1 09 00
        E 11 b1 09 00
        E 11 b1 09 01
        E 11 b1 09 02
        E 11 b1 09 03
        E 11 b1 09 04
        E 11 b1 09 05
        E 11 b1 09 06
        E 11 b1 09 08
        E 11 b1 09 09
        E 11 b1 09 0a
        E 11 b1 09 0c
        E 11 b1 09 0e
        E 11 b1 09 10
        E 11 b1 09 12
        E 11 b1 09 14
        E 11 b1 09 16
        E 11 b1 09 19
        E 11 b1 09 1b
        E 11 b1 09 1d
        E 11 b1 09 20
        E 11 b1 09 23
        E 11 b1 09 25
        E 11 b1 09 28
        E 11 b1 09 2b
        E 11 b1 09 2d
        E 11 b1 09 30
        E 11 b1 09 33
        E 11 b1 09 36
        E 11 b1 09 39
        E 8 b1 09 20
        E 8 b1 09 21
        E 8 b1 09 23
        E 8 b1 09 24
        E 8 b1 09 26
        E 8 b1 09 27
        E 8 b1 09 29
        E 8 b1 09 2a
        E 8 b1 09 2c
        E 8 b1 09 2d
        E 8 b1 09 2f
        E 8 b1 09 30
        E 8 b1 09 31
        E 8 b1 09 33
        E 8 b1 09 34
        E 8 b1 09 35
        E 8 b1 09 36
        E 8 b1 09 37
        E 8 b1 09 38
        E 8 b1 09 39
        E 8 b1 09 3a
        E 8 b1 09 3b
        E 8 b1 09 3c
        E 8 b1 09 3c
        E 8 b1 09 3d
        E 8 b1 09 3d
        E 8 b1 09 3e
        E 8 b1 09 3e
        E 8 b1 09 3f
        E 8 b1 09 3f
        E 8 b1 09 3f
        E 8 b1 09 3f
        E 8 b1 09 3f
        E 8 b1 09 3f
        E 8 b1 09 3f
        E 8 b1 09 3f
        E 8 b1 09 3f
        E 8 b1 09 3e
        E 8 b1 09 3e
        E 8 b1 09 3d
        E 8 b1 09 3d
        E 8 b1 09 3c
        E 8 b1 09 3b
        E 8 b1 09 3a
        E 8 b1 09 3a
        E 8 b1 09 39
        E 8 b1 09 38
        E 8 b1 09 37
        E 8 b1 09 36
        E 8 b1 09 34
        E 8 b1 09 33
        E 8 b1 09 32
        E 8 b1 09 31
        E 8 b1 09 2f
        E 8 b1 09 2e
        E 8 b1 09 2c
        E 8 b1 09 2b
        E 8 b1 09 2a
        E 8 b1 09 28
        E 8 b1 09 27
        E 8 b1 09 25
        E 8 b1 09 23
        E 8 b1 09 22
        E 8 b1 09 20
        E 8 b1 09 1f
        E 8 b1 09 1d
        E 8 b1 09 1c
        E 8 b1 09 1a
        E 8 b1 09 18
        E 8 b1 09 17
        E 8 b1 09 15
        E 8 b1 09 14
        E 8 b1 09 13
        E 8 b1 09 11
        E 8 b1 09 10
        E 8 b1 09 0e
        E 8 b1 09 0d
        E 8 b1 09 0c
        E 8 b1 09 0b
        E 8 b1 09 09
        E 8 b1 09 08
        E 8 b1 09 07
        E 8 b1 09 06
        E 8 b1 09 05
        E 8 b1 09 05
        E 8 b1 09 04
        E 8 b1 09 03
        E 8 b1 09 02
        E 8 b1 09 02
        E 8 b1 09 01
        E 8 b1 09 01
        E 8 b1 09 00
        E 8 b1 09 00
        E 8 b1 09 00
        E 8 b1 09 00
        E 8 b1 09 00
        E 8 b1 09 00
        E 8 b1 09 00
        E 8 b1 09 00
        E 8 b1 09 00
        E 8 b1 09 01
        E 8 b1 09 01
        E 8 b1 09 02
        E 8 b1 09 02
        E 8 b1 09 03
        E 8 b1 09 03
        E 8 b1 09 04
        E 8 b1 09 05
        E 8 b1 09 06
        E 8 b1 09 07
        E 8 b1 09 08
        E 8 b1 09 09
        E 8 b1 09 0a
        E 8 b1 09 0b
        E 8 b1 09 0c
        E 8 b1 09 0e
        E 8 b1 09 0f
        E 8 b1 09 10
        E 8 b1 09 12
        E 8 b1 09 13
        E 8 b1 09 15
        E 8 b1 09 16
        E 8 b1 09 18
        E 8 b1 09 19
        E 8 b1 09 1b
        E 8 b1 09 1c
        E 8 b1 09 1e
        E 8 b1 09 20
        E 8 b1 09 20
        E 8 b1 09 21
        E 8 b1 09 23
        E 8 b1 09 24
        E 8 b1 09 26
        E 8 b1 09 27
        E 8 b1 09 29
        E 8 b1 09 2a
        E 8 b1 09 2c
        E 8 b1 09 2d
        E 8 b1 09 2f
        E 8 b1 09 30
        E 8 b1 09 31
        E 8 b1 09 33
        E 8 b1 09 34
        E 8 b1 09 35
        E 8 b1 09 36
        E 8 b1 09 37
        E 8 b1 09 38
        E 8 b1 09 39
        E 8 b1 09 3a
        E 8 b1 09 3b
        E 8 b1 09 3c
        E 8 b1 09 3c
        E 8 b1 09 3d
        E 8 b1 09 3d
        E 8 b1 09 3e
        E 8 b1 09 3e
        E 8 b1 09 3f
        E 8 b1 09 3f
        E 8 b1 09 3f
        E 8 b1 09 3f
        E 8 b1 09 3f
        E 8 b1 09 3f
        E 8 b1 09 3f
        E 8 b1 09 3f
        E 8 b1 09 3f
        E 8 b1 09 3e
        E 8 b1 09 3e
        E 8 b1 09 3d
        E 8 b1 09 3d
        E 8 b1 09 3c
        E 8 b1 09 3b
        E 8 b1 09 3a
        E 8 b1 09 3a
        E 8 b1 09 39
        E 8 b1 09 38
        E 8 b1 09 37
        E 8 b1 09 36
        E 8 b1 09 34
        E 8 b1 09 33
        E 8 b1 09 32
        E 8 b1 09 31
        E 8 b1 09 2f
        E 8 b1 09 2e
        E 8 b1 09 2c
        E 8 b1 09 2b
        E 8 b1 09 2a
        E 8 b1 09 28
        E 8 b1 09 27
        E 8 b1 09 25
        E 8 b1 09 23
        E 8 b1 09 22
        E 8 b1 09 20
        E 8 b1 09 1f
        E 8 b1 09 1d
        E 8 b1 09 1c
        E 8 b1 09 1a
        E 8 b1 09 18
        E 8 b1 09 17
        E 8 b1 09 15
        E 8 b1 09 14
        E 8 b1 09 13
        E 8 b1 09 11
        E 8 b1 09 10
        E 8 b1 09 0e
        E 8 b1 09 0d
        E 8 b1 09 0c
        E 8 b1 09 0b
        E 8 b1 09 09
        E 8 b1 09 08
        E 8 b1 09 07
        E 8 b1 09 06
        E 8 b1 09 05
        E 8 b1 09 05
        E 8 b1 09 04
        E 8 b1 09 03
        E 8 b1 09 02
        E 8 b1 09 02
        E 8 b1 09 01
        E 8 b1 09 01
        E 8 b1 09 00
        E 8 b1 09 00
        E 8 b1 09 00
        E 8 b1 09 00
        E 8 b1 09 00
        E 8 b1 09 00
        E 8 b1 09 00
        E 8 b1 09 00
        E 8 b1 09 00
        E 8 b1 09 01
        E 8 b1 09 01
        E 8 b1 09 02
        E 8 b1 09 02
        E 8 b1 09 03
        E 8 b1 09 03
        E 8 b1 09 04
        E 8 b1 09 05
        E 8 b1 09 06
        E 8 b1 09 07
        E 8 b1 09 08
        E 8 b1 09 09
        E 8 b1 09 0a
        E 8 b1 09 0b
        E 8 b1 09 0c
        E 8 b1 09 0e
        E 8 b1 09 0f
        E 8 b1 09 10
        E 8 b1 09 12
        E 8 b1 09 13
        E 8 b1 09 15
        E 8 b1 09 16
        E 8 b1 09 18
        E 8 b1 09 19
        E 8 b1 09 1b
        E 8 b1 09 1c
        E 8 b1 09 1e
        E 8 b1 09 20
        E 17 b1 09 2c
        E 17 b1 09 2e
        E 17 b1 09 31
        E 17 b1 09 33
        E 17 b1 09 35
        E 17 b1 09 37
        E 17 b1 09 39
        E 17 b1 09 3b
        E 17 b1 09 3d
        E 17 b1 09 3f
        E 17 b1 09 41
        E 17 b1 09 43
        E 17 b1 09 45
        E 17 b1 09 47
        E 17 b1 09 48
        E 17 b1 09 4a
        E 17 b1 09 4c
        E 17 b1 09 4d
        E 17 b1 09 4f
        E 17 b1 09 50
        E 17 b1 09 51
        E 17 b1 09 52
        E 17 b1 09 54
        E 17 b1 09 54
        E 17 b1 09 55
        E 17 b1 09 56
        E 17 b1 09 56
        E 17 b1 09 57
        E 17 b1 09 58
        E 17 b1 09 58
        E 17 b1 09 58
        E 17 b1 09 58
        E 17 b1 09 58
        E 17 b1 09 58
        E 17 b1 09 58
        E 17 b1 09 58
        E 17 b1 09 58
        E 17 b1 09 57
        E 17 b1 09 56
        E 17 b1 09 56
        E 17 b1 09 55
        E 17 b1 09 54
        E 17 b1 09 53
        E 17 b1 09 51
        E 17 b1 09 51
        E 17 b1 09 4f
        E 17 b1 09 4e
        E 17 b1 09 4d
        E 17 b1 09 4b
        E 17 b1 09 49
        E 17 b1 09 48
        E 17 b1 09 46
        E 17 b1 09 44
        E 17 b1 09 42
        E 17 b1 09 40
        E 17 b1 09 3e
        E 17 b1 09 3c
        E 17 b1 09 3a
        E 17 b1 09 38
        E 17 b1 09 36
        E 17 b1 09 33
        E 17 b1 09 31
        E 17 b1 09 2f
        E 17 b1 09 2d
        E 17 b1 09 2b
        E 17 b1 09 29
        E 17 b1 09 27
        E 17 b1 09 25
        E 17 b1 09 22
        E 17 b1 09 20
        E 17 b1 09 1e
        E 17 b1 09 1c
        E 17 b1 09 1a
        E 17 b1 09 18
        E 17 b1 09 16
        E 17 b1 09 14
        E 17 b1 09 12
        E 17 b1 09 10
        E 17 b1 09 0f
        E 17 b1 09 0d
        E 17 b1 09 0b
        E 17 b1 09 0a
        E 17 b1 09 09
        E 17 b1 09 07
        E 17 b1 09 07
        E 17 b1 09 05
        E 17 b1 09 04
        E 17 b1 09 03
        E 17 b1 09 02
        E 17 b1 09 02
        E 17 b1 09 01
        E 17 b1 09 00
        E 17 b1 09 00
        E 17 b1 09 00
        E 17 b1 09 00
        E 17 b1 09 00
        E 17 b1 09 00
        E 17 b1 09 00
        E 17 b1 09 00
        E 17 b1 09 00
        E 17 b1 09 01
        E 17 b1 09 02
        E 17 b1 09 02
        E 17 b1 09 03
        E 17 b1 09 04
        E 17 b1 09 04
        E 17 b1 09 06
        E 17 b1 09 07
        E 17 b1 09 08
        E 17 b1 09 09
        E 17 b1 09 0b
        E 17 b1 09 0c
        E 17 b1 09 0e
        E 17 b1 09 10
        E 17 b1 09 11
        E 17 b1 09 13
        E 17 b1 09 15
        E 17 b1 09 17
        E 17 b1 09 19
        E 17 b1 09 1b
        E 17 b1 09 1d
        E 17 b1 09 1f
        E 17 b1 09 21
        E 17 b1 09 23
        E 17 b1 09 25
        E 17 b1 09 27
        E 17 b1 09 2a
        E 17 b1 09 2c
        E 15 b1 09 33
        E 15 b1 09 35
        E 15 b1 09 37
        E 15 b1 09 3a
        E 15 b1 09 3c
        E 15 b1 09 3f
        E 15 b1 09 41
        E 15 b1 09 44
        E 15 b1 09 46
        E 15 b1 09 48
        E 15 b1 09 4b
        E 15 b1 09 4c
        E 15 b1 09 4f
        E 15 b1 09 51
        E 15 b1 09 53
        E 15 b1 09 54
        E 15 b1 09 57
        E 15 b1 09 58
        E 15 b1 09 5a
        E 15 b1 09 5b
        E 15 b1 09 5d
        E 15 b1 09 5e
        E 15 b1 09 5f
        E 15 b1 09 60
        E 15 b1 09 61
        E 15 b1 09 62
        E 15 b1 09 63
        E 15 b1 09 63
        E 15 b1 09 64
        E 15 b1 09 64
        E 15 b1 09 65
        E 15 b1 09 65
        E 15 b1 09 65
        E 15 b1 09 65
        E 15 b1 09 65
        E 15 b1 09 64
        E 15 b1 09 64
        E 15 b1 09 63
        E 15 b1 09 63
        E 15 b1 09 62
        E 15 b1 09 61
        E 15 b1 09 5f
        E 15 b1 09 5f
        E 15 b1 09 5d
        E 15 b1 09 5c
        E 15 b1 09 5b
        E 15 b1 09 59
        E 15 b1 09 57
        E 15 b1 09 56
        E 15 b1 09 54
        E 15 b1 09 52
        E 15 b1 09 50
        E 15 b1 09 4e
        E 15 b1 09 4c
        E 15 b1 09 49
        E 15 b1 09 47
        E 15 b1 09 45
        E 15 b1 09 43
        E 15 b1 09 40
        E 15 b1 09 3e
        E 15 b1 09 3b
        E 15 b1 09 38
        E 15 b1 09 36
        E 15 b1 09 33
        E 15 b1 09 31
        E 15 b1 09 2f
        E 15 b1 09 2c
        E 15 b1 09 2a
        E 15 b1 09 27
        E 15 b1 09 24
        E 15 b1 09 22
        E 15 b1 09 1f
        E 15 b1 09 1e
        E 15 b1 09 1b
        E 15 b1 09 19
        E 15 b1 09 17
        E 15 b1 09 15
        E 15 b1 09 13
        E 15 b1 09 11
        E 15 b1 09 0f
        E 15 b1 09 0d
        E 15 b1 09 0b
        E 15 b1 09 0a
        E 15 b1 09 08
        E 15 b1 09 07
        E 15 b1 09 06
        E 15 b1 09 05
        E 15 b1 09 03
        E 15 b1 09 03
        E 15 b1 09 02
        E 15 b1 09 01
        E 15 b1 09 00
        E 15 b1 09 00
        E 15 b1 09 00
        E 15 b1 09 00
        E 15 b1 09 00
        E 15 b1 09 00
        E 15 b1 09 00
        E 15 b1 09 00
        E 15 b1 09 00
        E 15 b1 09 01
        E 15 b1 09 02
        E 15 b1 09 03
        E 15 b1 09 03
        E 15 b1 09 04
        E 15 b1 09 05
        E 15 b1 09 07
        E 15 b1 09 07
        E 15 b1 09 09
        E 15 b1 09 0b
        E 15 b1 09 0c
        E 15 b1 09 0e
        E 15 b1 09 10
        E 15 b1 09 12
        E 15 b1 09 14
        E 15 b1 09 16
        E 15 b1 09 18
        E 15 b1 09 1a
        E 15 b1 09 1c
        E 15 b1 09 1f
        E 15 b1 09 21
        E 15 b1 09 24
        E 15 b1 09 26
        E 15 b1 09 28
        E 15 b1 09 2b
        E 15 b1 09 2d
        E 15 b1 09 2f
        E 15 b1 09 33
        E 17 b1 09 06
        E 17 b1 09 06
        E 17 b1 09 07
        E 17 b1 09 07
        E 17 b1 09 07
        E 17 b1 09 07
        E 17 b1 09 08
        E 17 b1 09 08
        E 17 b1 09 08
        E 17 b1 09 09
        E 17 b1 09 09
        E 17 b1 09 09
        E 17 b1 09 09
        E 17 b1 09 0a
        E 17 b1 09 0a
        E 17 b1 09 0a
        E 17 b1 09 0a
        E 17 b1 09 0b
        E 17 b1 09 0b
        E 17 b1 09 0b
        E 17 b1 09 0b
        E 17 b1 09 0b
        E 17 b1 09 0c
        E 17 b1 09 0c
        E 17 b1 09 0c
        E 17 b1 09 0c
        E 17 b1 09 0c
        E 17 b1 09 0c
        E 17 b1 09 0c
        E 17 b1 09 0c
        E 17 b1 09 0c
        E 17 b1 09 0c
        E 17 b1 09 0c
        E 17 b1 09 0c
        E 17 b1 09 0c
        E 17 b1 09 0c
        E 17 b1 09 0c
        E 17 b1 09 0c
        E 17 b1 09 0c
        E 17 b1 09 0c
        E 17 b1 09 0c
        E 17 b1 09 0c
        E 17 b1 09 0b
        E 17 b1 09 0b
        E 17 b1 09 0b
        E 17 b1 09 0b
        E 17 b1 09 0b
        E 17 b1 09 0b
        E 17 b1 09 0a
        E 17 b1 09 0a
        E 17 b1 09 0a
        E 17 b1 09 0a
        E 17 b1 09 09
        E 17 b1 09 09
        E 17 b1 09 09
        E 17 b1 09 08
        E 17 b1 09 08
        E 17 b1 09 08
        E 17 b1 09 08
        E 17 b1 09 07
        E 17 b1 09 07
        E 17 b1 09 07
        E 17 b1 09 06
        E 17 b1 09 06
        E 17 b1 09 06
        E 17 b1 09 05
        E 17 b1 09 05
        E 17 b1 09 05
        E 17 b1 09 04
        E 17 b1 09 04
        E 17 b1 09 04
        E 17 b1 09 04
        E 17 b1 09 03
        E 17 b1 09 03
        E 17 b1 09 03
        E 17 b1 09 02
        E 17 b1 09 02
        E 17 b1 09 02
        E 17 b1 09 02
        E 17 b1 09 01
        E 17 b1 09 01
        E 17 b1 09 01
        E 17 b1 09 01
        E 17 b1 09 01
        E 17 b1 09 01
        E 17 b1 09 00
        E 17 b1 09 00
        E 17 b1 09 00
        E 17 b1 09 00
        E 17 b1 09 00
        E 17 b1 09 00
        E 17 b1 09 00
        E 17 b1 09 00
        E 17 b1 09 00
        E 17 b1 09 00
        E 17 b1 09 00
        E 17 b1 09 00
        E 17 b1 09 00
        E 17 b1 09 00
        E 17 b1 09 00
        E 17 b1 09 00
        E 17 b1 09 00
        E 17 b1 09 00
        E 17 b1 09 00
        E 17 b1 09 00
        E 17 b1 09 00
        E 17 b1 09 00
        E 17 b1 09 01
        E 17 b1 09 01
        E 17 b1 09 01
        E 17 b1 09 01
        E 17 b1 09 01
        E 17 b1 09 02
        E 17 b1 09 02
        E 17 b1 09 02
        E 17 b1 09 02
        E 17 b1 09 03
        E 17 b1 09 03
        E 17 b1 09 03
        E 17 b1 09 03
        E 17 b1 09 04
        E 17 b1 09 04
        E 17 b1 09 04
        E 17 b1 09 05
        E 17 b1 09 05
        E 17 b1 09 05
        E 17 b1 09 06
        E 17 b1 09 06
        E 15 b1 09 19
        E 15 b1 09 1a
        E 15 b1 09 1c
        E 15 b1 09 1d
        E 15 b1 09 1e
        E 15 b1 09 1f
        E 15 b1 09 20
        E 15 b1 09 22
        E 15 b1 09 23
        E 15 b1 09 24
        E 15 b1 09 25
        E 15 b1 09 26
        E 15 b1 09 27
        E 15 b1 09 28
        E 15 b1 09 29
        E 15 b1 09 2a
        E 15 b1 09 2b
        E 15 b1 09 2c
        E 15 b1 09 2d
        E 15 b1 09 2e
        E 15 b1 09 2e
        E 15 b1 09 2f
        E 15 b1 09 30
        E 15 b1 09 30
        E 15 b1 09 30
        E 15 b1 09 31
        E 15 b1 09 31
        E 15 b1 09 32
        E 15 b1 09 32
        E 15 b1 09 32
        E 15 b1 09 32
        E 15 b1 09 32
        E 15 b1 09 32
        E 15 b1 09 32
        E 15 b1 09 32
        E 15 b1 09 32
        E 15 b1 09 32
        E 15 b1 09 32
        E 15 b1 09 31
        E 15 b1 09 31
        E 15 b1 09 30
        E 15 b1 09 30
        E 15 b1 09 2f
        E 15 b1 09 2e
        E 15 b1 09 2e
        E 15 b1 09 2d
        E 15 b1 09 2c
        E 15 b1 09 2c
        E 15 b1 09 2b
        E 15 b1 09 2a
        E 15 b1 09 29
        E 15 b1 09 28
        E 15 b1 09 27
        E 15 b1 09 26
        E 15 b1 09 24
        E 15 b1 09 23
        E 15 b1 09 22
        E 15 b1 09 21
        E 15 b1 09 20
        E 15 b1 09 1f
        E 15 b1 09 1d
        E 15 b1 09 1c
        E 15 b1 09 1b
        E 15 b1 09 1a
        E 15 b1 09 18
        E 15 b1 09 17
        E 15 b1 09 16
        E 15 b1 09 15
        E 15 b1 09 13
        E 15 b1 09 12
        E 15 b1 09 11
        E 15 b1 09 10
        E 15 b1 09 0f
        E 15 b1 09 0e
        E 15 b1 09 0c
        E 15 b1 09 0b
        E 15 b1 09 0a
        E 15 b1 09 09
        E 15 b1 09 08
        E 15 b1 09 07
        E 15 b1 09 06
        E 15 b1 09 06
        E 15 b1 09 05
        E 15 b1 09 04
        E 15 b1 09 04
        E 15 b1 09 03
        E 15 b1 09 02
        E 15 b1 09 02
        E 15 b1 09 01
        E 15 b1 09 01
        E 15 b1 09 00
        E 15 b1 09 00
        E 15 b1 09 00
        E 15 b1 09 00
        E 15 b1 09 00
        E 15 b1 09 00
        E 15 b1 09 00
        E 15 b1 09 00
        E 15 b1 09 00
        E 15 b1 09 00
        E 15 b1 09 00
        E 15 b1 09 01
        E 15 b1 09 01
        E 15 b1 09 02
        E 15 b1 09 02
        E 15 b1 09 02
        E 15 b1 09 03
        E 15 b1 09 04
        E 15 b1 09 04
        E 15 b1 09 05
        E 15 b1 09 06
        E 15 b1 09 07
        E 15 b1 09 08
        E 15 b1 09 09
        E 15 b1 09 0a
        E 15 b1 09 0b
        E 15 b1 09 0c
        E 15 b1 09 0d
        E 15 b1 09 0e
        E 15 b1 09 0f
        E 15 b1 09 10
        E 15 b1 09 12
        E 15 b1 09 13
        E 15 b1 09 14
        E 15 b1 09 15
        E 15 b1 09 16
        E 15 b1 09 18
        E 15 b1 09 19
        E 8 b1 09 2c
        E 8 b1 09 2e
        E 8 b1 09 31
        E 8 b1 09 33
        E 8 b1 09 35
        E 8 b1 09 37
        E 8 b1 09 39
        E 8 b1 09 3b
        E 8 b1 09 3d
        E 8 b1 09 3f
        E 8 b1 09 41
        E 8 b1 09 43
        E 8 b1 09 45
        E 8 b1 09 47
        E 8 b1 09 48
        E 8 b1 09 4a
        E 8 b1 09 4c
        E 8 b1 09 4d
        E 8 b1 09 4f
        E 8 b1 09 50
        E 8 b1 09 51
        E 8 b1 09 52
        E 8 b1 09 54
        E 8 b1 09 54
        E 8 b1 09 55
        E 8 b1 09 56
        E 8 b1 09 56
        E 8 b1 09 57
        E 8 b1 09 58
        E 8 b1 09 58
        E 8 b1 09 58
        E 8 b1 09 58
        E 8 b1 09 58
        E 8 b1 09 58
        E 8 b1 09 58
        E 8 b1 09 58
        E 8 b1 09 58
        E 8 b1 09 57
        E 8 b1 09 56
        E 8 b1 09 56
        E 8 b1 09 55
        E 8 b1 09 54
        E 8 b1 09 53
        E 8 b1 09 51
        E 8 b1 09 51
        E 8 b1 09 4f
        E 8 b1 09 4e
        E 8 b1 09 4d
        E 8 b1 09 4b
        E 8 b1 09 49
        E 8 b1 09 48
        E 8 b1 09 46
        E 8 b1 09 44
        E 8 b1 09 42
        E 8 b1 09 40
        E 8 b1 09 3e
        E 8 b1 09 3c
        E 8 b1 09 3a
        E 8 b1 09 38
        E 8 b1 09 36
        E 8 b1 09 33
        E 8 b1 09 31
        E 8 b1 09 2f
        E 8 b1 09 2d
        E 8 b1 09 2b
        E 8 b1 09 29
        E 8 b1 09 27
        E 8 b1 09 25
        E 8 b1 09 22
        E 8 b1 09 20
        E 8 b1 09 1e
        E 8 b1 09 1c
        E 8 b1 09 1a
        E 8 b1 09 18
        E 8 b1 09 16
        E 8 b1 09 14
        E 8 b1 09 12
        E 8 b1 09 10
        E 8 b1 09 0f
        E 8 b1 09 0d
        E 8 b1 09 0b
        E 8 b1 09 0a
        E 8 b1 09 09
        E 8 b1 09 07
        E 8 b1 09 07
        E 8 b1 09 05
        E 8 b1 09 04
        E 8 b1 09 03
        E 8 b1 09 02
        E 8 b1 09 02
        E 8 b1 09 01
        E 8 b1 09 00
        E 8 b1 09 00
        E 8 b1 09 00
        E 8 b1 09 00
        E 8 b1 09 00
        E 8 b1 09 00
        E 8 b1 09 00
        E 8 b1 09 00
        E 8 b1 09 00
        E 8 b1 09 01
        E 8 b1 09 02
        E 8 b1 09 02
        E 8 b1 09 03
        E 8 b1 09 04
        E 8 b1 09 04
        E 8 b1 09 06
        E 8 b1 09 07
        E 8 b1 09 08
        E 8 b1 09 09
        E 8 b1 09 0b
        E 8 b1 09 0c
        E 8 b1 09 0e
        E 8 b1 09 10
        E 8 b1 09 11
        E 8 b1 09 13
        E 8 b1 09 15
        E 8 b1 09 17
        E 8 b1 09 19
        E 8 b1 09 1b
        E 8 b1 09 1d
        E 8 b1 09 1f
        E 8 b1 09 21
        E 8 b1 09 23
        E 8 b1 09 25
        E 8 b1 09 27
        E 8 b1 09 2a
        E 8 b1 09 2c
        E 8 b1 09 20
        E 8 b1 09 21
        E 8 b1 09 23
        E 8 b1 09 24
        E 8 b1 09 26
        E 8 b1 09 27
        E 8 b1 09 29
        E 8 b1 09 2a
        E 8 b1 09 2c
        E 8 b1 09 2d
        E 8 b1 09 2f
        E 8 b1 09 30
        E 8 b1 09 31
        E 8 b1 09 33
        E 8 b1 09 34
        E 8 b1 09 35
        E 8 b1 09 36
        E 8 b1 09 37
        E 8 b1 09 38
        E 8 b1 09 39
        E 8 b1 09 3a
        E 8 b1 09 3b
        E 8 b1 09 3c
        E 8 b1 09 3c
        E 8 b1 09 3d
        E 8 b1 09 3d
        E 8 b1 09 3e
        E 8 b1 09 3e
        E 8 b1 09 3f
        E 8 b1 09 3f
        E 8 b1 09 3f
        E 8 b1 09 3f
        E 8 b1 09 3f
        E 8 b1 09 3f
        E 8 b1 09 3f
        E 8 b1 09 3f
        E 8 b1 09 3f
        E 8 b1 09 3e
        E 8 b1 09 3e
        E 8 b1 09 3d
        E 8 b1 09 3d
        E 8 b1 09 3c
        E 8 b1 09 3b
        E 8 b1 09 3a
        E 8 b1 09 3a
        E 8 b1 09 39
        E 8 b1 09 38
        E 8 b1 09 37
        E 8 b1 09 36
        E 8 b1 09 34
        E 8 b1 09 33
        E 8 b1 09 32
        E 8 b1 09 31
        E 8 b1 09 2f
        E 8 b1 09 2e
        E 8 b1 09 2c
        E 8 b1 09 2b
        E 8 b1 09 2a
        E 8 b1 09 28
        E 8 b1 09 27
        E 8 b1 09 25
        E 8 b1 09 23
        E 8 b1 09 22
        E 8 b1 09 20
        E 8 b1 09 1f
        E 8 b1 09 1d
        E 8 b1 09 1c
        E 8 b1 09 1a
        E 8 b1 09 18
        E 8 b1 09 17
        E 8 b1 09 15
        E 8 b1 09 14
        E 8 b1 09 13
        E 8 b1 09 11
        E 8 b1 09 10
        E 8 b1 09 0e
        E 8 b1 09 0d
        E 8 b1 09 0c
        E 8 b1 09 0b
        E 8 b1 09 09
        E 8 b1 09 08
        E 8 b1 09 07
        E 8 b1 09 06
        E 8 b1 09 05
        E 8 b1 09 05
        E 8 b1 09 04
        E 8 b1 09 03
        E 8 b1 09 02
        E 8 b1 09 02
        E 8 b1 09 01
        E 8 b1 09 01
        E 8 b1 09 00
        E 8 b1 09 00
        E 8 b1 09 00
        E 8 b1 09 00
        E 8 b1 09 00
        E 8 b1 09 00
        E 8 b1 09 00
        E 8 b1 09 00
        E 8 b1 09 00
        E 8 b1 09 01
        E 8 b1 09 01
        E 8 b1 09 02
        E 8 b1 09 02
        E 8 b1 09 03
        E 8 b1 09 03
        E 8 b1 09 04
        E 8 b1 09 05
        E 8 b1 09 06
        E 8 b1 09 07
        E 8 b1 09 08
        E 8 b1 09 09
        E 8 b1 09 0a
        E 8 b1 09 0b
        E 8 b1 09 0c
        E 8 b1 09 0e
        E 8 b1 09 0f
        E 8 b1 09 10
        E 8 b1 09 12
        E 8 b1 09 13
        E 8 b1 09 15
        E 8 b1 09 16
        E 8 b1 09 18
        E 8 b1 09 19
        E 8 b1 09 1b
        E 8 b1 09 1c
        E 8 b1 09 1e
        E 8 b1 09 20
        E 11 b1 09 20
        E 11 b1 09 21
        E 11 b1 09 23
        E 11 b1 09 24
        E 11 b1 09 26
        E 11 b1 09 27
        E 11 b1 09 29
        E 11 b1 09 2a
        E 11 b1 09 2c
        E 11 b1 09 2d
        E 11 b1 09 2f
        E 11 b1 09 30
        E 11 b1 09 31
        E 11 b1 09 33
        E 11 b1 09 34
        E 11 b1 09 35
        E 11 b1 09 36
        E 11 b1 09 37
        E 11 b1 09 38
        E 11 b1 09 39
        E 11 b1 09 3a
        E 11 b1 09 3b
        E 11 b1 09 3c
        E 11 b1 09 3c
        E 11 b1 09 3d
        E 11 b1 09 3d
        E 11 b1 09 3e
        E 11 b1 09 3e
        E 11 b1 09 3f
        E 11 b1 09 3f
        E 11 b1 09 3f
        E 11 b1 09 3f
        E 11 b1 09 3f
        E 11 b1 09 3f
        E 11 b1 09 3f
        E 11 b1 09 3f
        E 11 b1 09 3f
        E 11 b1 09 3e
        E 11 b1 09 3e
        E 11 b1 09 3d
        E 11 b1 09 3d
        E 11 b1 09 3c
        E 11 b1 09 3b
        E 11 b1 09 3a
        E 11 b1 09 3a
        E 11 b1 09 39
        E 11 b1 09 38
        E 11 b1 09 37
        E 11 b1 09 36
        E 11 b1 09 34
        E 11 b1 09 33
        E 11 b1 09 32
        E 11 b1 09 31
        E 11 b1 09 2f
        E 11 b1 09 2e
        E 11 b1 09 2c
        E 11 b1 09 2b
        E 11 b1 09 2a
        E 11 b1 09 28
        E 11 b1 09 27
        E 11 b1 09 25
        E 11 b1 09 23
        E 11 b1 09 22
        E 11 b1 09 20
        E 11 b1 09 1f
        E 11 b1 09 1d
        E 11 b1 09 1c
        E 11 b1 09 1a
        E 11 b1 09 18
        E 11 b1 09 17
        E 11 b1 09 15
        E 11 b1 09 14
        E 11 b1 09 13
        E 11 b1 09 11
        E 11 b1 09 10
        E 11 b1 09 0e
        E 11 b1 09 0d
        E 11 b1 09 0c
        E 11 b1 09 0b
        E 11 b1 09 09
        E 11 b1 09 08
        E 11 b1 09 07
        E 11 b1 09 06
        E 11 b1 09 05
        E 11 b1 09 05
        E 11 b1 09 04
        E 11 b1 09 03
        E 11 b1 09 02
        E 11 b1 09 02
        E 11 b1 09 01
        E 11 b1 09 01
        E 11 b1 09 00
        E 11 b1 09 00
        E 11 b1 09 00
        E 11 b1 09 00
        E 11 b1 09 00
        E 11 b1 09 00
        E 11 b1 09 00
        E 11 b1 09 00
        E 11 b1 09 00
        E 11 b1 09 01
        E 11 b1 09 01
        E 11 b1 09 02
        E 11 b1 09 02
        E 11 b1 09 03
        E 11 b1 09 03
        E 11 b1 09 04
        E 11 b1 09 05
        E 11 b1 09 06
        E 11 b1 09 07
        E 11 b1 09 08
        E 11 b1 09 09
        E 11 b1 09 0a
        E 11 b1 09 0b
        E 11 b1 09 0c
        E 11 b1 09 0e
        E 11 b1 09 0f
        E 11 b1 09 10
        E 11 b1 09 12
        E 11 b1 09 13
        E 11 b1 09 15
        E 11 b1 09 16
        E 11 b1 09 18
        E 11 b1 09 19
        E 11 b1 09 1b
        E 11 b1 09 1c
        E 11 b1 09 1e
        E 11 b1 09 20
        E 13 b1 09 40
        E 13 b1 09 43
        E 13 b1 09 46
        E 13 b1 09 49
        E 13 b1 09 4c
        E 13 b1 09 4f
        E 13 b1 09 52
        E 13 b1 09 55
        E 13 b1 09 58
        E 13 b1 09 5b
        E 13 b1 09 5e
        E 13 b1 09 60
        E 13 b1 09 63
        E 13 b1 09 66
        E 13 b1 09 68
        E 13 b1 09 6a
        E 13 b1 09 6d
        E 13 b1 09 6f
        E 13 b1 09 71
        E 13 b1 09 73
        E 13 b1 09 75
        E 13 b1 09 76
        E 13 b1 09 78
        E 13 b1 09 79
        E 13 b1 09 7a
        E 13 b1 09 7b
        E 13 b1 09 7c
        E 13 b1 09 7d
        E 13 b1 09 7e
        E 13 b1 09 7e
        E 13 b1 09 7f
        E 13 b1 09 7f
        E 13 b1 09 7f
        E 13 b1 09 7f
        E 13 b1 09 7f
        E 13 b1 09 7e
        E 13 b1 09 7e
        E 13 b1 09 7d
        E 13 b1 09 7c
        E 13 b1 09 7b
        E 13 b1 09 7a
        E 13 b1 09 78
        E 13 b1 09 77
        E 13 b1 09 75
        E 13 b1 09 74
        E 13 b1 09 72
        E 13 b1 09 70
        E 13 b1 09 6e
        E 13 b1 09 6c
        E 13 b1 09 69
        E 13 b1 09 67
        E 13 b1 09 64
        E 13 b1 09 62
        E 13 b1 09 5f
        E 13 b1 09 5c
        E 13 b1 09 59
        E 13 b1 09 57
        E 13 b1 09 54
        E 13 b1 09 51
        E 13 b1 09 4e
        E 13 b1 09 4a
        E 13 b1 09 47
        E 13 b1 09 44
        E 13 b1 09 41
        E 13 b1 09 3e
        E 13 b1 09 3b
        E 13 b1 09 38
        E 13 b1 09 35
        E 13 b1 09 31
        E 13 b1 09 2e
        E 13 b1 09 2b
        E 13 b1 09 28
        E 13 b1 09 26
        E 13 b1 09 23
        E 13 b1 09 20
        E 13 b1 09 1d
        E 13 b1 09 1b
        E 13 b1 09 18
        E 13 b1 09 16
        E 13 b1 09 13
        E 13 b1 09 11
        E 13 b1 09 0f
        E 13 b1 09 0d
        E 13 b1 09 0b
        E 13 b1 09 0a
        E 13 b1 09 08
        E 13 b1 09 07
        E 13 b1 09 05
        E 13 b1 09 04
        E 13 b1 09 03
        E 13 b1 09 02
        E 13 b1 09 01
        E 13 b1 09 01
        E 13 b1 09 00
        E 13 b1 09 00
        E 13 b1 09 00
        E 13 b1 09 00
        E 13 b1 09 00
        E 13 b1 09 01
        E 13 b1 09 01
        E 13 b1 09 02
        E 13 b1 09 03
        E 13 b1 09 04
        E 13 b1 09 05
        E 13 b1 09 06
        E 13 b1 09 07
        E 13 b1 09 09
        E 13 b1 09 0a
        E 13 b1 09 0c
        E 13 b1 09 0e
        E 13 b1 09 10
        E 13 b1 09 12
        E 13 b1 09 15
        E 13 b1 09 17
        E 13 b1 09 19
        E 13 b1 09 1c
        E 13 b1 09 1f
        E 13 b1 09 21
        E 13 b1 09 24
        E 13 b1 09 27
        E 13 b1 09 2a
        E 13 b1 09 2d
        E 13 b1 09 30
        E 13 b1 09 33
        E 13 b1 09 36
        E 13 b1 09 39
        E 13 b1 09 3c
        E 13 b1 09 40
        E 11 b1 09 39
        E 11 b1 09 3c
        E 11 b1 09 3f
        E 11 b1 09 41
        E 11 b1 09 44
        E 11 b1 09 47
        E 11 b1 09 49
        E 11 b1 09 4c
        E 11 b1 09 4f
        E 11 b1 09 51
        E 11 b1 09 54
        E 11 b1 09 56
        E 11 b1 09 59
        E 11 b1 09 5b
        E 11 b1 09 5d
        E 11 b1 09 5f
        E 11 b1 09 62
        E 11 b1 09 63
        E 11 b1 09 65
        E 11 b1 09 67
        E 11 b1 09 69
        E 11 b1 09 6a
        E 11 b1 09 6c
        E 11 b1 09 6c
        E 11 b1 09 6d
        E 11 b1 09 6e
        E 11 b1 09 6f
        E 11 b1 09 70
        E 11 b1 09 71
        E 11 b1 09 71
        E 11 b1 09 72
        E 11 b1 09 72
        E 11 b1 09 72
        E 11 b1 09 72
        E 11 b1 09 72
        E 11 b1 09 71
        E 11 b1 09 71
        E 11 b1 09 70
        E 11 b1 09 6f
        E 11 b1 09 6e
        E 11 b1 09 6d
        E 11 b1 09 6c
        E 11 b1 09 6b
        E 11 b1 09 69
        E 11 b1 09 68
        E 11 b1 09 66
        E 11 b1 09 64
        E 11 b1 09 63
        E 11 b1 09 61
        E 11 b1 09 5e
        E 11 b1 09 5c
        E 11 b1 09 5a
        E 11 b1 09 58
        E 11 b1 09 55
        E 11 b1 09 52
        E 11 b1 09 50
        E 11 b1 09 4e
        E 11 b1 09 4b
        E 11 b1 09 48
        E 11 b1 09 46
        E 11 b1 09 42
        E 11 b1 09 3f
        E 11 b1 09 3d
        E 11 b1 09 3a
        E 11 b1 09 37
        E 11 b1 09 35
        E 11 b1 09 32
        E 11 b1 09 2f
        E 11 b1 09 2c
        E 11 b1 09 29
        E 11 b1 09 26
        E 11 b1 09 24
        E 11 b1 09 22
        E 11 b1 09 1f
        E 11 b1 09 1c
        E 11 b1 09 1a
        E 11 b1 09 18
        E 11 b1 09 15
        E 11 b1 09 13
        E 11 b1 09 11
        E 11 b1 09 0f
        E 11 b1 09 0d
        E 11 b1 09 0b
        E 11 b1 09 09
        E 11 b1 09 09
        E 11 b1 09 07
        E 11 b1 09 06
        E 11 b1 09 04
        E 11 b1 09 03
        E 11 b1 09 02
        E 11 b1 09 01
        E 11 b1 09 00
        E 11 b1 09 00
        E 11 b1 09 00
        E 11 b1 09 00
        E 11 b1 09 00
        E 11 b1 09 00
        E 11 b1 09 00
        E 11 b1 09 00
        E 11 b1 09 00
        E 11 b1 09 01
        E 11 b1 09 02
        E 11 b1 09 03
        E 11 b1 09 04
        E 11 b1 09 05
        E 11 b1 09 06
        E 11 b1 09 08
        E 11 b1 09 09
        E 11 b1 09 0a
        E 11 b1 09 0c
        E 11 b1 09 0e
        E 11 b1 09 10
        E 11 b1 09 12
        E 11 b1 09 14
        E 11 b1 09 16
        E 11 b1 09 19
        E 11 b1 09 1b
        E 11 b1 09 1d
        E 11 b1 09 20
        E 11 b1 09 23
        E 11 b1 09 25
        E 11 b1 09 28
        E 11 b1 09 2b
        E 11 b1 09 2d
        E 11 b1 09 30
        E 11 b1 09 33
        E 11 b1 09 36
        E 11 b1 09 39
        E 8 b1 09 20
        E 8 b1 09 21
        E 8 b1 09 23
        E 8 b1 09 24
        E 8 b1 09 26
        E 8 b1 09 27
        E 8 b1 09 29
        E 8 b1 09 2a
        E 8 b1 09 2c
        E 8 b1 09 2d
        E 8 b1 09 2f
        E 8 b1 09 30
        E 8 b1 09 31
        E 8 b1 09 33
        E 8 b1 09 34
        E 8 b1 09 35
        E 8 b1 09 36
        E 8 b1 09 37
        E 8 b1 09 38
        E 8 b1 09 39
        E 8 b1 09 3a
        E 8 b1 09 3b
        E 8 b1 09 3c
        E 8 b1 09 3c
        E 8 b1 09 3d
        E 8 b1 09 3d
        E 8 b1 09 3e
        E 8 b1 09 3e
        E 8 b1 09 3f
        E 8 b1 09 3f
        E 8 b1 09 3f
        E 8 b1 09 3f
        E 8 b1 09 3f
        E 8 b1 09 3f
        E 8 b1 09 3f
        E 8 b1 09 3f
        E 8 b1 09 3f
        E 8 b1 09 3e
        E 8 b1 09 3e
        E 8 b1 09 3d
        E 8 b1 09 3d
        E 8 b1 09 3c
        E 8 b1 09 3b
        E 8 b1 09 3a
        E 8 b1 09 3a
        E 8 b1 09 39
        E 8 b1 09 38
        E 8 b1 09 37
        E 8 b1 09 36
        E 8 b1 09 34
        E 8 b1 09 33
        E 8 b1 09 32
        E 8 b1 09 31
        E 8 b1 09 2f
        E 8 b1 09 2e
        E 8 b1 09 2c
        E 8 b1 09 2b
        E 8 b1 09 2a
        E 8 b1 09 28
        E 8 b1 09 27
        E 8 b1 09 25
        E 8 b1 09 23
        E 8 b1 09 22
        E 8 b1 09 20
        E 8 b1 09 1f
        E 8 b1 09 1d
        E 8 b1 09 1c
        E 8 b1 09 1a
        E 8 b1 09 18
        E 8 b1 09 17
        E 8 b1 09 15
        E 8 b1 09 14
        E 8 b1 09 13
        E 8 b1 09 11
        E 8 b1 09 10
        E 8 b1 09 0e
        E 8 b1 09 0d
        E 8 b1 09 0c
        E 8 b1 09 0b
        E 8 b1 09 09
        E 8 b1 09 08
        E 8 b1 09 07
        E 8 b1 09 06
        E 8 b1 09 05
        E 8 b1 09 05
        E 8 b1 09 04
        E 8 b1 09 03
        E 8 b1 09 02
        E 8 b1 09 02
        E 8 b1 09 01
        E 8 b1 09 01
        E 8 b1 09 00
        E 8 b1 09 00
        E 8 b1 09 00
        E 8 b1 09 00
        E 8 b1 09 00
        E 8 b1 09 00
        E 8 b1 09 00
        E 8 b1 09 00
        E 8 b1 09 00
        E 8 b1 09 01
        E 8 b1 09 01
        E 8 b1 09 02
        E 8 b1 09 02
        E 8 b1 09 03
        E 8 b1 09 03
        E 8 b1 09 04
        E 8 b1 09 05
        E 8 b1 09 06
        E 8 b1 09 07
        E 8 b1 09 08
        E 8 b1 09 09
        E 8 b1 09 0a
        E 8 b1 09 0b
        E 8 b1 09 0c
        E 8 b1 09 0e
        E 8 b1 09 0f
        E 8 b1 09 10
        E 8 b1 09 12
        E 8 b1 09 13
        E 8 b1 09 15
        E 8 b1 09 16
        E 8 b1 09 18
        E 8 b1 09 19
        E 8 b1 09 1b
        E 8 b1 09 1c
        E 8 b1 09 1e
        E 8 b1 09 20
        E 8 b1 09 20
        E 8 b1 09 21
        E 8 b1 09 23
        E 8 b1 09 24
        E 8 b1 09 26
        E 8 b1 09 27
        E 8 b1 09 29
        E 8 b1 09 2a
        E 8 b1 09 2c
        E 8 b1 09 2d
        E 8 b1 09 2f
        E 8 b1 09 30
        E 8 b1 09 31
        E 8 b1 09 33
        E 8 b1 09 34
        E 8 b1 09 35
        E 8 b1 09 36
        E 8 b1 09 37
        E 8 b1 09 38
        E 8 b1 09 39
        E 8 b1 09 3a
        E 8 b1 09 3b
        E 8 b1 09 3c
        E 8 b1 09 3c
        E 8 b1 09 3d
        E 8 b1 09 3d
        E 8 b1 09 3e
        E 8 b1 09 3e
        E 8 b1 09 3f
        E 8 b1 09 3f
        E 8 b1 09 3f
        E 8 b1 09 3f
        E 8 b1 09 3f
        E 8 b1 09 3f
        E 8 b1 09 3f
        E 8 b1 09 3f
        E 8 b1 09 3f
        E 8 b1 09 3e
        E 8 b1 09 3e
        E 8 b1 09 3d
        E 8 b1 09 3d
        E 8 b1 09 3c
        E 8 b1 09 3b
        E 8 b1 09 3a
        E 8 b1 09 3a
        E 8 b1 09 39
        E 8 b1 09 38
        E 8 b1 09 37
        E 8 b1 09 36
        E 8 b1 09 34
        E 8 b1 09 33
        E 8 b1 09 32
        E 8 b1 09 31
        E 8 b1 09 2f
        E 8 b1 09 2e
        E 8 b1 09 2c
        E 8 b1 09 2b
        E 8 b1 09 2a
        E 8 b1 09 28
        E 8 b1 09 27
        E 8 b1 09 25
        E 8 b1 09 23
        E 8 b1 09 22
        E 8 b1 09 20
        E 8 b1 09 1f
        E 8 b1 09 1d
        E 8 b1 09 1c
        E 8 b1 09 1a
        E 8 b1 09 18
        E 8 b1 09 17
        E 8 b1 09 15
        E 8 b1 09 14
        E 8 b1 09 13
        E 8 b1 09 11
        E 8 b1 09 10
        E 8 b1 09 0e
        E 8 b1 09 0d
        E 8 b1 09 0c
        E 8 b1 09 0b
        E 8 b1 09 09
        E 8 b1 09 08
        E 8 b1 09 07
        E 8 b1 09 06
        E 8 b1 09 05
        E 8 b1 09 05
        E 8 b1 09 04
        E 8 b1 09 03
        E 8 b1 09 02
        E 8 b1 09 02
        E 8 b1 09 01
        E 8 b1 09 01
        E 8 b1 09 00
        E 8 b1 09 00
        E 8 b1 09 00
        E 8 b1 09 00
        E 8 b1 09 00
        E 8 b1 09 00
        E 8 b1 09 00
        E 8 b1 09 00
        E 8 b1 09 00
        E 8 b1 09 01
        E 8 b1 09 01
        E 8 b1 09 02
        E 8 b1 09 02
        E 8 b1 09 03
        E 8 b1 09 03
        E 8 b1 09 04
        E 8 b1 09 05
        E 8 b1 09 06
        E 8 b1 09 07
        E 8 b1 09 08
        E 8 b1 09 09
        E 8 b1 09 0a
        E 8 b1 09 0b
        E 8 b1 09 0c
        E 8 b1 09 0e
        E 8 b1 09 0f
        E 8 b1 09 10
        E 8 b1 09 12
        E 8 b1 09 13
        E 8 b1 09 15
        E 8 b1 09 16
        E 8 b1 09 18
        E 8 b1 09 19
        E 8 b1 09 1b
        E 8 b1 09 1c
        E 8 b1 09 1e
        E 8 b1 09 20
        E 17 b1 09 2c
        E 17 b1 09 2e
        E 17 b1 09 31
        E 17 b1 09 33
        E 17 b1 09 35
        E 17 b1 09 37
        E 17 b1 09 39
        E 17 b1 09 3b
        E 17 b1 09 3d
        E 17 b1 09 3f
        E 17 b1 09 41
        E 17 b1 09 43
        E 17 b1 09 45
        E 17 b1 09 47
        E 17 b1 09 48
        E 17 b1 09 4a
        E 17 b1 09 4c
        E 17 b1 09 4d
        E 17 b1 09 4f
        E 17 b1 09 50
        E 17 b1 09 51
        E 17 b1 09 52
        E 17 b1 09 54
        E 17 b1 09 54
        E 17 b1 09 55
        E 17 b1 09 56
        E 17 b1 09 56
        E 17 b1 09 57
        E 17 b1 09 58
        E 17 b1 09 58
        E 17 b1 09 58
        E 17 b1 09 58
        E 17 b1 09 58
        E 17 b1 09 58
        E 17 b1 09 58
        E 17 b1 09 58
        E 17 b1 09 58
        E 17 b1 09 57
        E 17 b1 09 56
        E 17 b1 09 56
        E 17 b1 09 55
        E 17 b1 09 54
        E 17 b1 09 53
        E 17 b1 09 51
        E 17 b1 09 51
        E 17 b1 09 4f
        E 17 b1 09 4e
        E 17 b1 09 4d
        E 17 b1 09 4b
        E 17 b1 09 49
        E 17 b1 09 48
        E 17 b1 09 46
        E 17 b1 09 44
        E 17 b1 09 42
        E 17 b1 09 40
        E 17 b1 09 3e
        E 17 b1 09 3c
        E 17 b1 09 3a
        E 17 b1 09 38
        E 17 b1 09 36
        E 17 b1 09 33
        E 17 b1 09 31
        E 17 b1 09 2f
        E 17 b1 09 2d
        E 17 b1 09 2b
        E 17 b1 09 29
        E 17 b1 09 27
        E 17 b1 09 25
        E 17 b1 09 22
        E 17 b1 09 20
        E 17 b1 09 1e
        E 17 b1 09 1c
        E 17 b1 09 1a
        E 17 b1 09 18
        E 17 b1 09 16
        E 17 b1 09 14
        E 17 b1 09 12
        E 17 b1 09 10
        E 17 b1 09 0f
        E 17 b1 09 0d
        E 17 b1 09 0b
        E 17 b1 09 0a
        E 17 b1 09 09
        E 17 b1 09 07
        E 17 b1 09 07
        E 17 b1 09 05
        E 17 b1 09 04
        E 17 b1 09 03
        E 17 b1 09 02
        E 17 b1 09 02
        E 17 b1 09 01
        E 17 b1 09 00
        E 17 b1 09 00
        E 17 b1 09 00
        E 17 b1 09 00
        E 17 b1 09 00
        E 17 b1 09 00
        E 17 b1 09 00
        E 17 b1 09 00
        E 17 b1 09 00
        E 17 b1 09 01
        E 17 b1 09 02
        E 17 b1 09 02
        E 17 b1 09 03
        E 17 b1 09 04
        E 17 b1 09 04
        E 17 b1 09 06
        E 17 b1 09 07
        E 17 b1 09 08
        E 17 b1 09 09
        E 17 b1 09 0b
        E 17 b1 09 0c
        E 17 b1 09 0e
        E 17 b1 09 10
        E 17 b1 09 11
        E 17 b1 09 13
        E 17 b1 09 15
        E 17 b1 09 17
        E 17 b1 09 19
        E 17 b1 09 1b
        E 17 b1 09 1d
        E 17 b1 09 1f
        E 17 b1 09 21
        E 17 b1 09 23
        E 17 b1 09 25
        E 17 b1 09 27
        E 17 b1 09 2a
        E 17 b1 09 2c
        E 15 b1 09 33
        E 15 b1 09 35
        E 15 b1 09 37
        E 15 b1 09 3a
        E 15 b1 09 3c
        E 15 b1 09 3f
        E 15 b1 09 41
        E 15 b1 09 44
        E 15 b1 09 46
        E 15 b1 09 48
        E 15 b1 09 4b
        E 15 b1 09 4c
        E 15 b1 09 4f
        E 15 b1 09 51
        E 15 b1 09 53
        E 15 b1 09 54
        E 15 b1 09 57
        E 15 b1 09 58
        E 15 b1 09 5a
        E 15 b1 09 5b
        E 15 b1 09 5d
        E 15 b1 09 5e
        E 15 b1 09 5f
        E 15 b1 09 60
        E 15 b1 09 61
        E 15 b1 09 62
        E 15 b1 09 63
        E 15 b1 09 63
        E 15 b1 09 64
        E 15 b1 09 64
        E 15 b1 09 65
        E 15 b1 09 65
        E 15 b1 09 65
        E 15 b1 09 65
        E 15 b1 09 65
        E 15 b1 09 64
        E 15 b1 09 64
        E 15 b1 09 63
        E 15 b1 09 63
        E 15 b1 09 62
        E 15 b1 09 61
        E 15 b1 09 5f
        E 15 b1 09 5f
        E 15 b1 09 5d
        E 15 b1 09 5c
        E 15 b1 09 5b
        E 15 b1 09 59
        E 15 b1 09 57
        E 15 b1 09 56
        E 15 b1 09 54
        E 15 b1 09 52
        E 15 b1 09 50
        E 15 b1 09 4e
        E 15 b1 09 4c
        E 15 b1 09 49
        E 15 b1 09 47
        E 15 b1 09 45
        E 15 b1 09 43
        E 15 b1 09 40
        E 15 b1 09 3e
        E 15 b1 09 3b
        E 15 b1 09 38
        E 15 b1 09 36
        E 15 b1 09 33
        E 15 b1 09 31
        E 15 b1 09 2f
        E 15 b1 09 2c
        E 15 b1 09 2a
        E 15 b1 09 27
        E 15 b1 09 24
        E 15 b1 09 22
        E 15 b1 09 1f
        E 15 b1 09 1e
        E 15 b1 09 1b
        E 15 b1 09 19
        E 15 b1 09 17
        E 15 b1 09 15
        E 15 b1 09 13
        E 15 b1 09 11
        E 15 b1 09 0f
        E 15 b1 09 0d
        E 15 b1 09 0b
        E 15 b1 09 0a
        E 15 b1 09 08
        E 15 b1 09 07
        E 15 b1 09 06
        E 15 b1 09 05
        E 15 b1 09 03
        E 15 b1 09 03
        E 15 b1 09 02
        E 15 b1 09 01
        E 15 b1 09 00
        E 15 b1 09 00
        E 15 b1 09 00
        E 15 b1 09 00
        E 15 b1 09 00
        E 15 b1 09 00
        E 15 b1 09 00
        E 15 b1 09 00
        E 15 b1 09 00
        E 15 b1 09 01
        E 15 b1 09 02
        E 15 b1 09 03
        E 15 b1 09 03
        E 15 b1 09 04
        E 15 b1 09 05
        E 15 b1 09 07
        E 15 b1 09 07
        E 15 b1 09 09
        E 15 b1 09 0b
        E 15 b1 09 0c
        E 15 b1 09 0e
        E 15 b1 09 10
        E 15 b1 09 12
        E 15 b1 09 14
        E 15 b1 09 16
        E 15 b1 09 18
        E 15 b1 09 1a
        E 15 b1 09 1c
        E 15 b1 09 1f
        E 15 b1 09 21
        E 15 b1 09 24
        E 15 b1 09 26
        E 15 b1 09 28
        E 15 b1 09 2b
        E 15 b1 09 2d
        E 15 b1 09 2f
        E 15 b1 09 33
        E 17 b1 09 06
        E 17 b1 09 06
        E 17 b1 09 07
        E 17 b1 09 07
        E 17 b1 09 07
        E 17 b1 09 07
        E 17 b1 09 08
        E 17 b1 09 08
        E 17 b1 09 08
        E 17 b1 09 09
        E 17 b1 09 09
        E 17 b1 09 09
        E 17 b1 09 09
        E 17 b1 09 0a
        E 17 b1 09 0a
        E 17 b1 09 0a
        E 17 b1 09 0a
        E 17 b1 09 0b
        E 17 b1 09 0b
        E 17 b1 09 0b
        E 17 b1 09 0b
        E 17 b1 09 0b
        E 17 b1 09 0c
        E 17 b1 09 0c
        E 17 b1 09 0c
        E 17 b1 09 0c
        E 17 b1 09 0c
        E 17 b1 09 0c
        E 17 b1 09 0c
        E 17 b1 09 0c
        E 17 b1 09 0c
        E 17 b1 09 0c
        E 17 b1 09 0c
        E 17 b1 09 0c
        E 17 b1 09 0c
        E 17 b1 09 0c
        E 17 b1 09 0c
        E 17 b1 09 0c
        E 17 b1 09 0c
        E 17 b1 09 0c
        E 17 b1 09 0c
        E 17 b1 09 0c
        E 17 b1 09 0b
        E 17 b1 09 0b
        E 17 b1 09 0b
        E 17 b1 09 0b
        E 17 b1 09 0b
        E 17 b1 09 0b
        E 17 b1 09 0a
        E 17 b1 09 0a
        E 17 b1 09 0a
        E 17 b1 09 0a
        E 17 b1 09 09
        E 17 b1 09 09
        E 17 b1 09 09
        E 17 b1 09 08
        E 17 b1 09 08
        E 17 b1 09 08
        E 17 b1 09 08
        E 17 b1 09 07
        E 17 b1 09 07
        E 17 b1 09 07
        E 17 b1 09 06
        E 17 b1 09 06
        E 17 b1 09 06
        E 17 b1 09 05
        E 17 b1 09 05
        E 17 b1 09 05
        E 17 b1 09 04
        E 17 b1 09 04
        E 17 b1 09 04
        E 17 b1 09 04
        E 17 b1 09 03
        E 17 b1 09 03
        E 17 b1 09 03
        E 17 b1 09 02
        E 17 b1 09 02
        E 17 b1 09 02
        E 17 b1 09 02
        E 17 b1 09 01
        E 17 b1 09 01
        E 17 b1 09 01
        E 17 b1 09 01
        E 17 b1 09 01
        E 17 b1 09 01
        E 17 b1 09 00
        E 17 b1 09 00
        E 17 b1 09 00
        E 17 b1 09 00
        E 17 b1 09 00
        E 17 b1 09 00
        E 17 b1 09 00
        E 17 b1 09 00
        E 17 b1 09 00
        E 17 b1 09 00
        E 17 b1 09 00
        E 17 b1 09 00
        E 17 b1 09 00
        E 17 b1 09 00
        E 17 b1 09 00
        E 17 b1 09 00
        E 17 b1 09 00
        E 17 b1 09 00
        E 17 b1 09 00
        E 17 b1 09 00
        E 17 b1 09 00
        E 17 b1 09 00
        E 17 b1 09 01
        E 17 b1 09 01
        E 17 b1 09 01
        E 17 b1 09 01
        E 17 b1 09 01
        E 17 b1 09 02
        E 17 b1 09 02
        E 17 b1 09 02
        E 17 b1 09 02
        E 17 b1 09 03
        E 17 b1 09 03
        E 17 b1 09 03
        E 17 b1 09 03
        E 17 b1 09 04
        E 17 b1 09 04
        E 17 b1 09 04
        E 17 b1 09 05
        E 17 b1 09 05
        E 17 b1 09 05
        E 17 b1 09 06
        E 17 b1 09 06
        E 15 b1 09 19
        E 15 b1 09 1a
        E 15 b1 09 1c
        E 15 b1 09 1d
        E 15 b1 09 1e
        E 15 b1 09 1f
        E 15 b1 09 20
        E 15 b1 09 22
        E 15 b1 09 23
        E 15 b1 09 24
        E 15 b1 09 25
        E 15 b1 09 26
        E 15 b1 09 27
        E 15 b1 09 28
        E 15 b1 09 29
        E 15 b1 09 2a
        E 15 b1 09 2b
        E 15 b1 09 2c
        E 15 b1 09 2d
        E 15 b1 09 2e
        E 15 b1 09 2e
        E 15 b1 09 2f
        E 15 b1 09 30
        E 15 b1 09 30
        E 15 b1 09 30
        E 15 b1 09 31
        E 15 b1 09 31
        E 15 b1 09 32
        E 15 b1 09 32
        E 15 b1 09 32
        E 15 b1 09 32
        E 15 b1 09 32
        E 15 b1 09 32
        E 15 b1 09 32
        E 15 b1 09 32
        E 15 b1 09 32
        E 15 b1 09 32
        E 15 b1 09 32
        E 15 b1 09 31
        E 15 b1 09 31
        E 15 b1 09 30
        E 15 b1 09 30
        E 15 b1 09 2f
        E 15 b1 09 2e
        E 15 b1 09 2e
        E 15 b1 09 2d
        E 15 b1 09 2c
        E 15 b1 09 2c
        E 15 b1 09 2b
        E 15 b1 09 2a
        E 15 b1 09 29
        E 15 b1 09 28
        E 15 b1 09 27
        E 15 b1 09 26
        E 15 b1 09 24
        E 15 b1 09 23
        E 15 b1 09 22
        E 15 b1 09 21
        E 15 b1 09 20
        E 15 b1 09 1f
        E 15 b1 09 1d
        E 15 b1 09 1c
        E 15 b1 09 1b
        E 15 b1 09 1a
        E 15 b1 09 18
        E 15 b1 09 17
        E 15 b1 09 16
        E 15 b1 09 15
        E 15 b1 09 13
        E 15 b1 09 12
        E 15 b1 09 11
        E 15 b1 09 10
        E 15 b1 09 0f
        E 15 b1 09 0e
        E 15 b1 09 0c
        E 15 b1 09 0b
        E 15 b1 09 0a
        E 15 b1 09 09
        E 15 b1 09 08
        E 15 b1 09 07
        E 15 b1 09 06
        E 15 b1 09 06
        E 15 b1 09 05
        E 15 b1 09 04
        E 15 b1 09 04
        E 15 b1 09 03
        E 15 b1 09 02
        E 15 b1 09 02
        E 15 b1 09 01
        E 15 b1 09 01
        E 15 b1 09 00
        E 15 b1 09 00
        E 15 b1 09 00
        E 15 b1 09 00
        E 15 b1 09 00
        E 15 b1 09 00
        E 15 b1 09 00
        E 15 b1 09 00
        E 15 b1 09 00
        E 15 b1 09 00
        E 15 b1 09 00
        E 15 b1 09 01
        E 15 b1 09 01
        E 15 b1 09 02
        E 15 b1 09 02
        E 15 b1 09 02
        E 15 b1 09 03
        E 15 b1 09 04
        E 15 b1 09 04
        E 15 b1 09 05
        E 15 b1 09 06
        E 15 b1 09 07
        E 15 b1 09 08
        E 15 b1 09 09
        E 15 b1 09 0a
        E 15 b1 09 0b
        E 15 b1 09 0c
        E 15 b1 09 0d
        E 15 b1 09 0e
        E 15 b1 09 0f
        E 15 b1 09 10
        E 15 b1 09 12
        E 15 b1 09 13
        E 15 b1 09 14
        E 15 b1 09 15
        E 15 b1 09 16
        E 15 b1 09 18
        E 15 b1 09 19
        E 8 b1 09 2c
        E 8 b1 09 2e
        E 8 b1 09 31
        E 8 b1 09 33
        E 8 b1 09 35
        E 8 b1 09 37
        E 8 b1 09 39
        E 8 b1 09 3b
        E 8 b1 09 3d
        E 8 b1 09 3f
        E 8 b1 09 41
        E 8 b1 09 43
        E 8 b1 09 45
        E 8 b1 09 47
        E 8 b1 09 48
        E 8 b1 09 4a
        E 8 b1 09 4c
        E 8 b1 09 4d
        E 8 b1 09 4f
        E 8 b1 09 50
        E 8 b1 09 51
        E 8 b1 09 52
        E 8 b1 09 54
        E 8 b1 09 54
        E 8 b1 09 55
        E 8 b1 09 56
        E 8 b1 09 56
        E 8 b1 09 57
        E 8 b1 09 58
        E 8 b1 09 58
        E 8 b1 09 58
        E 8 b1 09 58
        E 8 b1 09 58
        E 8 b1 09 58
        E 8 b1 09 58
        E 8 b1 09 58
        E 8 b1 09 58
        E 8 b1 09 57
        E 8 b1 09 56
        E 8 b1 09 56
        E 8 b1 09 55
        E 8 b1 09 54
        E 8 b1 09 53
        E 8 b1 09 51
        E 8 b1 09 51
        E 8 b1 09 4f
        E 8 b1 09 4e
        E 8 b1 09 4d
        E 8 b1 09 4b
        E 8 b1 09 49
        E 8 b1 09 48
        E 8 b1 09 46
        E 8 b1 09 44
        E 8 b1 09 42
        E 8 b1 09 40
        E 8 b1 09 3e
        E 8 b1 09 3c
        E 8 b1 09 3a
        E 8 b1 09 38
        E 8 b1 09 36
        E 8 b1 09 33
        E 8 b1 09 31
        E 8 b1 09 2f
        E 8 b1 09 2d
        E 8 b1 09 2b
        E 8 b1 09 29
        E 8 b1 09 27
        E 8 b1 09 25
        E 8 b1 09 22
        E 8 b1 09 20
        E 8 b1 09 1e
        E 8 b1 09 1c
        E 8 b1 09 1a
        E 8 b1 09 18
        E 8 b1 09 16
        E 8 b1 09 14
        E 8 b1 09 12
        E 8 b1 09 10
        E 8 b1 09 0f
        E 8 b1 09 0d
        E 8 b1 09 0b
        E 8 b1 09 0a
        E 8 b1 09 09
        E 8 b1 09 07
        E 8 b1 09 07
        E 8 b1 09 05
        E 8 b1 09 04
        E 8 b1 09 03
        E 8 b1 09 02
        E 8 b1 09 02
        E 8 b1 09 01
        E 8 b1 09 00
        E 8 b1 09 00
        E 8 b1 09 00
        E 8 b1 09 00
        E 8 b1 09 00
        E 8 b1 09 00
        E 8 b1 09 00
        E 8 b1 09 00
        E 8 b1 09 00
        E 8 b1 09 01
        E 8 b1 09 02
        E 8 b1 09 02
        E 8 b1 09 03
        E 8 b1 09 04
        E 8 b1 09 04
        E 8 b1 09 06
        E 8 b1 09 07
        E 8 b1 09 08
        E 8 b1 09 09
        E 8 b1 09 0b
        E 8 b1 09 0c
        E 8 b1 09 0e
        E 8 b1 09 10
        E 8 b1 09 11
        E 8 b1 09 13
        E 8 b1 09 15
        E 8 b1 09 17
        E 8 b1 09 19
        E 8 b1 09 1b
        E 8 b1 09 1d
        E 8 b1 09 1f
        E 8 b1 09 21
        E 8 b1 09 23
        E 8 b1 09 25
        E 8 b1 09 27
        E 8 b1 09 2a
        E 8 b1 09 2c
        E 8 b1 09 20
        E 8 b1 09 21
        E 8 b1 09 23
        E 8 b1 09 24
        E 8 b1 09 26
        E 8 b1 09 27
        E 8 b1 09 29
        E 8 b1 09 2a
        E 8 b1 09 2c
        E 8 b1 09 2d
        E 8 b1 09 2f
        E 8 b1 09 30
        E 8 b1 09 31
        E 8 b1 09 33
        E 8 b1 09 34
        E 8 b1 09 35
        E 8 b1 09 36
        E 8 b1 09 37
        E 8 b1 09 38
        E 8 b1 09 39
        E 8 b1 09 3a
        E 8 b1 09 3b
        E 8 b1 09 3c
        E 8 b1 09 3c
        E 8 b1 09 3d
        E 8 b1 09 3d
        E 8 b1 09 3e
        E 8 b1 09 3e
        E 8 b1 09 3f
        E 8 b1 09 3f
        E 8 b1 09 3f
        E 8 b1 09 3f
        E 8 b1 09 3f
        E 8 b1 09 3f
        E 8 b1 09 3f
        E 8 b1 09 3f
        E 8 b1 09 3f
        E 8 b1 09 3e
        E 8 b1 09 3e
        E 8 b1 09 3d
        E 8 b1 09 3d
        E 8 b1 09 3c
        E 8 b1 09 3b
        E 8 b1 09 3a
        E 8 b1 09 3a
        E 8 b1 09 39
        E 8 b1 09 38
        E 8 b1 09 37
        E 8 b1 09 36
        E 8 b1 09 34
        E 8 b1 09 33
        E 8 b1 09 32
        E 8 b1 09 31
        E 8 b1 09 2f
        E 8 b1 09 2e
        E 8 b1 09 2c
        E 8 b1 09 2b
        E 8 b1 09 2a
        E 8 b1 09 28
        E 8 b1 09 27
        E 8 b1 09 25
        E 8 b1 09 23
        E 8 b1 09 22
        E 8 b1 09 20
        E 8 b1 09 1f
        E 8 b1 09 1d
        E 8 b1 09 1c
        E 8 b1 09 1a
        E 8 b1 09 18
        E 8 b1 09 17
        E 8 b1 09 15
        E 8 b1 09 14
        E 8 b1 09 13
        E 8 b1 09 11
        E 8 b1 09 10
        E 8 b1 09 0e
        E 8 b1 09 0d
        E 8 b1 09 0c
        E 8 b1 09 0b
        E 8 b1 09 09
        E 8 b1 09 08
        E 8 b1 09 07
        E 8 b1 09 06
        E 8 b1 09 05
        E 8 b1 09 05
        E 8 b1 09 04
        E 8 b1 09 03
        E 8 b1 09 02
        E 8 b1 09 02
        E 8 b1 09 01
        E 8 b1 09 01
        E 8 b1 09 00
        E 8 b1 09 00
        E 8 b1 09 00
        E 8 b1 09 00
        E 8 b1 09 00
        E 8 b1 09 00
        E 8 b1 09 00
        E 8 b1 09 00
        E 8 b1 09 00
        E 8 b1 09 01
        E 8 b1 09 01
        E 8 b1 09 02
        E 8 b1 09 02
        E 8 b1 09 03
        E 8 b1 09 03
        E 8 b1 09 04
        E 8 b1 09 05
        E 8 b1 09 06
        E 8 b1 09 07
        E 8 b1 09 08
        E 8 b1 09 09
        E 8 b1 09 0a
        E 8 b1 09 0b
        E 8 b1 09 0c
        E 8 b1 09 0e
        E 8 b1 09 0f
        E 8 b1 09 10
        E 8 b1 09 12
        E 8 b1 09 13
        E 8 b1 09 15
        E 8 b1 09 16
        E 8 b1 09 18
        E 8 b1 09 19
        E 8 b1 09 1b
        E 8 b1 09 1c
        E 8 b1 09 1e
        E 8 b1 09 20
        E 11 b1 09 20
        E 11 b1 09 21
        E 11 b1 09 23
        E 11 b1 09 24
        E 11 b1 09 26
        E 11 b1 09 27
        E 11 b1 09 29
        E 11 b1 09 2a
        E 11 b1 09 2c
        E 11 b1 09 2d
        E 11 b1 09 2f
        E 11 b1 09 30
        E 11 b1 09 31
        E 11 b1 09 33
        E 11 b1 09 34
        E 11 b1 09 35
        E 11 b1 09 36
        E 11 b1 09 37
        E 11 b1 09 38
        E 11 b1 09 39
        E 11 b1 09 3a
        E 11 b1 09 3b
        E 11 b1 09 3c
        E 11 b1 09 3c
        E 11 b1 09 3d
        E 11 b1 09 3d
        E 11 b1 09 3e
        E 11 b1 09 3e
        E 11 b1 09 3f
        E 11 b1 09 3f
        E 11 b1 09 3f
        E 11 b1 09 3f
        E 11 b1 09 3f
        E 11 b1 09 3f
        E 11 b1 09 3f
        E 11 b1 09 3f
        E 11 b1 09 3f
        E 11 b1 09 3e
        E 11 b1 09 3e
        E 11 b1 09 3d
        E 11 b1 09 3d
        E 11 b1 09 3c
        E 11 b1 09 3b
        E 11 b1 09 3a
        E 11 b1 09 3a
        E 11 b1 09 39
        E 11 b1 09 38
        E 11 b1 09 37
        E 11 b1 09 36
        E 11 b1 09 34
        E 11 b1 09 33
        E 11 b1 09 32
        E 11 b1 09 31
        E 11 b1 09 2f
        E 11 b1 09 2e
        E 11 b1 09 2c
        E 11 b1 09 2b
        E 11 b1 09 2a
        E 11 b1 09 28
        E 11 b1 09 27
        E 11 b1 09 25
        E 11 b1 09 23
        E 11 b1 09 22
        E 11 b1 09 20
        E 11 b1 09 1f
        E 11 b1 09 1d
        E 11 b1 09 1c
        E 11 b1 09 1a
        E 11 b1 09 18
        E 11 b1 09 17
        E 11 b1 09 15
        E 11 b1 09 14
        E 11 b1 09 13
        E 11 b1 09 11
        E 11 b1 09 10
        E 11 b1 09 0e
        E 11 b1 09 0d
        E 11 b1 09 0c
        E 11 b1 09 0b
        E 11 b1 09 09
        E 11 b1 09 08
        E 11 b1 09 07
        E 11 b1 09 06
        E 11 b1 09 05
        E 11 b1 09 05
        E 11 b1 09 04
        E 11 b1 09 03
        E 11 b1 09 02
        E 11 b1 09 02
        E 11 b1 09 01
        E 11 b1 09 01
        E 11 b1 09 00
        E 11 b1 09 00
        E 11 b1 09 00
        E 11 b1 09 00
        E 11 b1 09 00
        E 11 b1 09 00
        E 11 b1 09 00
        E 11 b1 09 00
        E 11 b1 09 00
        E 11 b1 09 01
        E 11 b1 09 01
        E 11 b1 09 02
        E 11 b1 09 02
        E 11 b1 09 03
        E 11 b1 09 03
        E 11 b1 09 04
        E 11 b1 09 05
        E 11 b1 09 06
        E 11 b1 09 07
        E 11 b1 09 08
        E 11 b1 09 09
        E 11 b1 09 0a
        E 11 b1 09 0b
        E 11 b1 09 0c
        E 11 b1 09 0e
        E 11 b1 09 0f
        E 11 b1 09 10
        E 11 b1 09 12
        E 11 b1 09 13
        E 11 b1 09 15
        E 11 b1 09 16
        E 11 b1 09 18
        E 11 b1 09 19
        E 11 b1 09 1b
        E 11 b1 09 1c
        E 11 b1 09 1e
        E 11 b1 09 20
        E 13 b1 09 40
        E 13 b1 09 43
        E 13 b1 09 46
        E 13 b1 09 49
        E 13 b1 09 4c
        E 13 b1 09 4f
        E 13 b1 09 52
        E 13 b1 09 55
        E 13 b1 09 58
        E 13 b1 09 5b
        E 13 b1 09 5e
        E 13 b1 09 60
        E 13 b1 09 63
        E 13 b1 09 66
        E 13 b1 09 68
        E 13 b1 09 6a
        E 13 b1 09 6d
        E 13 b1 09 6f
        E 13 b1 09 71
        E 13 b1 09 73
        E 13 b1 09 75
        E 13 b1 09 76
        E 13 b1 09 78
        E 13 b1 09 79
        E 13 b1 09 7a
        E 13 b1 09 7b
        E 13 b1 09 7c
        E 13 b1 09 7d
        E 13 b1 09 7e
        E 13 b1 09 7e
        E 13 b1 09 7f
        E 13 b1 09 7f
        E 13 b1 09 7f
        E 13 b1 09 7f
        E 13 b1 09 7f
        E 13 b1 09 7e
        E 13 b1 09 7e
        E 13 b1 09 7d
        E 13 b1 09 7c
        E 13 b1 09 7b
        E 13 b1 09 7a
        E 13 b1 09 78
        E 13 b1 09 77
        E 13 b1 09 75
        E 13 b1 09 74
        E 13 b1 09 72
        E 13 b1 09 70
        E 13 b1 09 6e
        E 13 b1 09 6c
        E 13 b1 09 69
        E 13 b1 09 67
        E 13 b1 09 64
        E 13 b1 09 62
        E 13 b1 09 5f
        E 13 b1 09 5c
        E 13 b1 09 59
        E 13 b1 09 57
        E 13 b1 09 54
        E 13 b1 09 51
        E 13 b1 09 4e
        E 13 b1 09 4a
        E 13 b1 09 47
        E 13 b1 09 44
        E 13 b1 09 41
        E 13 b1 09 3e
        E 13 b1 09 3b
        E 13 b1 09 38
        E 13 b1 09 35
        E 13 b1 09 31
        E 13 b1 09 2e
        E 13 b1 09 2b
        E 13 b1 09 28
        E 13 b1 09 26
        E 13 b1 09 23
        E 13 b1 09 20
        E 13 b1 09 1d
        E 13 b1 09 1b
        E 13 b1 09 18
        E 13 b1 09 16
        E 13 b1 09 13
        E 13 b1 09 11
        E 13 b1 09 0f
        E 13 b1 09 0d
        E 13 b1 09 0b
        E 13 b1 09 0a
        E 13 b1 09 08
        E 13 b1 09 07
        E 13 b1 09 05
        E 13 b1 09 04
        E 13 b1 09 03
        E 13 b1 09 02
        E 13 b1 09 01
        E 13 b1 09 01
        E 13 b1 09 00
        E 13 b1 09 00
        E 13 b1 09 00
        E 13 b1 09 00
        E 13 b1 09 00
        E 13 b1 09 01
        E 13 b1 09 01
        E 13 b1 09 02
        E 13 b1 09 03
        E 13 b1 09 04
        E 13 b1 09 05
        E 13 b1 09 06
        E 13 b1 09 07
        E 13 b1 09 09
        E 13 b1 09 0a
        E 13 b1 09 0c
        E 13 b1 09 0e
        E 13 b1 09 10
        E 13 b1 09 12
        E 13 b1 09 15
        E 13 b1 09 17
        E 13 b1 09 19
        E 13 b1 09 1c
        E 13 b1 09 1f
        E 13 b1 09 21
        E 13 b1 09 24
        E 13 b1 09 27
        E 13 b1 09 2a
        E 13 b1 09 2d
        E 13 b1 09 30
        E 13 b1 09 33
        E 13 b1 09 36
        E 13 b1 09 39
        E 13 b1 09 3c
        E 13 b1 09 40
        E 1 b1 09 39
        E 1 b1 09 3c
        E 1 b1 09 3f
        E 1 b1 09 41
        E 1 b1 09 44
        E 1 b1 09 47
        E 1 b1 09 49
        E 1 b1 09 4c
        E 1 b1 09 4f
        E 1 b1 09 51
        E 1 b1 09 54
        E 1 b1 09 56
        E 1 b1 09 59
        E 1 b1 09 5b
        E 1 b1 09 5d
        E 1 b1 09 5f
        E 1 b1 09 62
        E 1 b1 09 63
        E 1 b1 09 65
        E 1 b1 09 67
        E 1 b1 09 69
        E 1 b1 09 6a
        E 1 b1 09 6c
        E 1 b1 09 6c
        E 1 b1 09 6d
        E 1 b1 09 6e
        E 1 b1 09 6f
        E 1 b1 09 70
        E 1 b1 09 71
        E 1 b1 09 71
        E 1 b1 09 72
        E 1 b1 09 72
        E 1 b1 09 72
        E 1 b1 09 72
        E 1 b1 09 72
        E 1 b1 09 71
        E 1 b1 09 71
        E 1 b1 09 70
        E 1 b1 09 6f
        E 1 b1 09 6e
        E 1 b1 09 6d
        E 1 b1 09 6c
        E 1 b1 09 6b
        E 1 b1 09 69
        E 1 b1 09 68
        E 1 b1 09 66
        E 1 b1 09 64
        E 1 b1 09 63
        E 1 b1 09 61
        E 1 b1 09 5e
        E 1 b1 09 5c
        E 1 b1 09 5a
        E 1 b1 09 58
        E 1 b1 09 55
        E 1 b1 09 52
        E 1 b1 09 50
        E 1 b1 09 4e
        E 1 b1 09 4b
        E 1 b1 09 48
        E 1 b1 09 46
        E 1 b1 09 42
        E 1 b1 09 3f
        E 1 b1 09 3d
        E 1 b1 09 3a
        E 1 b1 09 37
        E 1 b1 09 35
        E 1 b1 09 32
        E 1 b1 09 2f
        E 1 b1 09 2c
        E 1 b1 09 29
        E 1 b1 09 26
        E 1 b1 09 24
        E 1 b1 09 22
        E 1 b1 09 1f
        E 1 b1 09 1c
        E 1 b1 09 1a
        E 1 b1 09 18
        E 1 b1 09 15
        E 1 b1 09 13
        E 1 b1 09 11
        E 1 b1 09 0f
        E 1 b1 09 0d
        E 1 b1 09 0b
        E 1 b1 09 09
        E 1 b1 09 09
        E 1 b1 09 07
        E 1 b1 09 06
        E 1 b1 09 04
        E 1 b1 09 03
        E 1 b1 09 02
        E 1 b1 09 01
        E 1 b1 09 00
        E 1 b1 09 00
        E 1 b1 09 00
        E 1 b1 09 00
        E 1 b1 09 00
        E 1 b1 09 00
        E 1 b1 09 00
        E 1 b1 09 00
        E 1 b1 09 00
        E 1 b1 09 01
        E 1 b1 09 02
        E 1 b1 09 03
        E 1 b1 09 04
        E 1 b1 09 05
        E 1 b1 09 06
        E 1 b1 09 08
        E 1 b1 09 09
        E 1 b1 09 0a
        E 1 b1 09 0c
        E 1 b1 09 0e
        E 1 b1 09 10
        E 1 b1 09 12
        E 1 b1 09 14
        E 1 b1 09 16
        E 1 b1 09 19
        E 1 b1 09 1b
        E 1 b1 09 1d
        E 1 b1 09 20
        E 1 b1 09 23
        E 1 b1 09 25
        E 1 b1 09 28
        E 1 b1 09 2b
        E 1 b1 09 2d
        E 1 b1 09 30
        E 1 b1 09 33
        E 1 b1 09 36
        E 1 b1 09 39
        E 6 b1 09 40
        E 6 b1 09 43
        E 6 b1 09 46
        E 6 b1 09 49
        E 6 b1 09 4c
        E 6 b1 09 4f
        E 6 b1 09 52
        E 6 b1 09 55
        E 6 b1 09 58
        E 6 b1 09 5b
        E 6 b1 09 5e
        E 6 b1 09 60
        E 6 b1 09 63
        E 6 b1 09 66
        E 6 b1 09 68
        E 6 b1 09 6a
        E 6 b1 09 6d
        E 6 b1 09 6f
        E 6 b1 09 71
        E 6 b1 09 73
        E 6 b1 09 75
        E 6 b1 09 76
        E 6 b1 09 78
        E 6 b1 09 79
        E 6 b1 09 7a
        E 6 b1 09 7b
        E 6 b1 09 7c
        E 6 b1 09 7d
        E 6 b1 09 7e
        E 6 b1 09 7e
        E 6 b1 09 7f
        E 6 b1 09 7f
        E 6 b1 09 7f
        E 6 b1 09 7f
        E 6 b1 09 7f
        E 6 b1 09 7e
        E 6 b1 09 7e
        E 6 b1 09 7d
        E 6 b1 09 7c
        E 6 b1 09 7b
        E 6 b1 09 7a
        E 6 b1 09 78
        E 6 b1 09 77
        E 6 b1 09 75
        E 6 b1 09 74
        E 6 b1 09 72
        E 6 b1 09 70
        E 6 b1 09 6e
        E 6 b1 09 6c
        E 6 b1 09 69
        E 6 b1 09 67
        E 6 b1 09 64
        E 6 b1 09 62
        E 6 b1 09 5f
        E 6 b1 09 5c
        E 6 b1 09 59
        E 6 b1 09 57
        E 6 b1 09 54
        E 6 b1 09 51
        E 6 b1 09 4e
        E 6 b1 09 4a
        E 6 b1 09 47
        E 6 b1 09 44
        E 6 b1 09 41
        E 6 b1 09 3e
        E 6 b1 09 3b
        E 6 b1 09 38
        E 6 b1 09 35
        E 6 b1 09 31
        E 6 b1 09 2e
        E 6 b1 09 2b
        E 6 b1 09 28
        E 6 b1 09 26
        E 6 b1 09 23
        E 6 b1 09 20
        E 6 b1 09 1d
        E 6 b1 09 1b
        E 6 b1 09 18
        E 6 b1 09 16
        E 6 b1 09 13
        E 6 b1 09 11
        E 6 b1 09 0f
        E 6 b1 09 0d
        E 6 b1 09 0b
        E 6 b1 09 0a
        E 6 b1 09 08
        E 6 b1 09 07
        E 6 b1 09 05
        E 6 b1 09 04
        E 6 b1 09 03
        E 6 b1 09 02
        E 6 b1 09 01
        E 6 b1 09 01
        E 6 b1 09 00
        E 6 b1 09 00
        E 6 b1 09 00
        E 6 b1 09 00
        E 6 b1 09 00
        E 6 b1 09 01
        E 6 b1 09 01
        E 6 b1 09 02
        E 6 b1 09 03
        E 6 b1 09 04
        E 6 b1 09 05
        E 6 b1 09 06
        E 6 b1 09 07
        E 6 b1 09 09
        E 6 b1 09 0a
        E 6 b1 09 0c
        E 6 b1 09 0e
        E 6 b1 09 10
        E 6 b1 09 12
        E 6 b1 09 15
        E 6 b1 09 17
        E 6 b1 09 19
        E 6 b1 09 1c
        E 6 b1 09 1f
        E 6 b1 09 21
        E 6 b1 09 24
        E 6 b1 09 27
        E 6 b1 09 2a
        E 6 b1 09 2d
        E 6 b1 09 30
        E 6 b1 09 33
        E 6 b1 09 36
        E 6 b1 09 39
        E 6 b1 09 3c
        E 6 b1 09 40
        E 11 b1 09 39
        E 11 b1 09 3c
        E 11 b1 09 3f
        E 11 b1 09 41
        E 11 b1 09 44
        E 11 b1 09 47
        E 11 b1 09 49
        E 11 b1 09 4c
        E 11 b1 09 4f
        E 11 b1 09 51
        E 11 b1 09 54
        E 11 b1 09 56
        E 11 b1 09 59
        E 11 b1 09 5b
        E 11 b1 09 5d
        E 11 b1 09 5f
        E 11 b1 09 62
        E 11 b1 09 63
        E 11 b1 09 65
        E 11 b1 09 67
        E 11 b1 09 69
        E 11 b1 09 6a
        E 11 b1 09 6c
        E 11 b1 09 6c
        E 11 b1 09 6d
        E 11 b1 09 6e
        E 11 b1 09 6f
        E 11 b1 09 70
        E 11 b1 09 71
        E 11 b1 09 71
        E 11 b1 09 72
        E 11 b1 09 72
        E 11 b1 09 72
        E 11 b1 09 72
        E 11 b1 09 72
        E 11 b1 09 71
        E 11 b1 09 71
        E 11 b1 09 70
        E 11 b1 09 6f
        E 11 b1 09 6e
        E 11 b1 09 6d
        E 11 b1 09 6c
        E 11 b1 09 6b
        E 11 b1 09 69
        E 11 b1 09 68
        E 11 b1 09 66
        E 11 b1 09 64
        E 11 b1 09 63
        E 11 b1 09 61
        E 11 b1 09 5e
        E 11 b1 09 5c
        E 11 b1 09 5a
        E 11 b1 09 58
        E 11 b1 09 55
        E 11 b1 09 52
        E 11 b1 09 50
        E 11 b1 09 4e
        E 11 b1 09 4b
        E 11 b1 09 48
        E 11 b1 09 46
        E 11 b1 09 42
        E 11 b1 09 3f
        E 11 b1 09 3d
        E 11 b1 09 3a
        E 11 b1 09 37
        E 11 b1 09 35
        E 11 b1 09 32
        E 11 b1 09 2f
        E 11 b1 09 2c
        E 11 b1 09 29
        E 11 b1 09 26
        E 11 b1 09 24
        E 11 b1 09 22
        E 11 b1 09 1f
        E 11 b1 09 1c
        E 11 b1 09 1a
        E 11 b1 09 18
        E 11 b1 09 15
        E 11 b1 09 13
        E 11 b1 09 11
        E 11 b1 09 0f
        E 11 b1 09 0d
        E 11 b1 09 0b
        E 11 b1 09 09
        E 11 b1 09 09
        E 11 b1 09 07
        E 11 b1 09 06
        E 11 b1 09 04
        E 11 b1 09 03
        E 11 b1 09 02
        E 11 b1 09 01
        E 11 b1 09 00
        E 11 b1 09 00
        E 11 b1 09 00
        E 11 b1 09 00
        E 11 b1 09 00
        E 11 b1 09 00
        E 11 b1 09 00
        E 11 b1 09 00
        E 11 b1 09 00
        E 11 b1 09 01
        E 11 b1 09 02
        E 11 b1 09 03
        E 11 b1 09 04
        E 11 b1 09 05
        E 11 b1 09 06
        E 11 b1 09 08
        E 11 b1 09 09
        E 11 b1 09 0a
        E 11 b1 09 0c
        E 11 b1 09 0e
        E 11 b1 09 10
        E 11 b1 09 12
        E 11 b1 09 14
        E 11 b1 09 16
        E 11 b1 09 19
        E 11 b1 09 1b
        E 11 b1 09 1d
        E 11 b1 09 20
        E 11 b1 09 23
        E 11 b1 09 25
        E 11 b1 09 28
        E 11 b1 09 2b
        E 11 b1 09 2d
        E 11 b1 09 30
        E 11 b1 09 33
        E 11 b1 09 36
        E 11 b1 09 39
        E 8 b1 09 20
        E 8 b1 09 21
        E 8 b1 09 23
        E 8 b1 09 24
        E 8 b1 09 26
        E 8 b1 09 27
        E 8 b1 09 29
        E 8 b1 09 2a
        E 8 b1 09 2c
        E 8 b1 09 2d
        E 8 b1 09 2f
        E 8 b1 09 30
        E 8 b1 09 31
        E 8 b1 09 33
        E 8 b1 09 34
        E 8 b1 09 35
        E 8 b1 09 36
        E 8 b1 09 37
        E 8 b1 09 38
        E 8 b1 09 39
        E 8 b1 09 3a
        E 8 b1 09 3b
        E 8 b1 09 3c
        E 8 b1 09 3c
        E 8 b1 09 3d
        E 8 b1 09 3d
        E 8 b1 09 3e
        E 8 b1 09 3e
        E 8 b1 09 3f
        E 8 b1 09 3f
        E 8 b1 09 3f
        E 8 b1 09 3f
        E 8 b1 09 3f
        E 8 b1 09 3f
        E 8 b1 09 3f
        E 8 b1 09 3f
        E 8 b1 09 3f
        E 8 b1 09 3e
        E 8 b1 09 3e
        E 8 b1 09 3d
        E 8 b1 09 3d
        E 8 b1 09 3c
        E 8 b1 09 3b
        E 8 b1 09 3a
        E 8 b1 09 3a
        E 8 b1 09 39
        E 8 b1 09 38
        E 8 b1 09 37
        E 8 b1 09 36
        E 8 b1 09 34
        E 8 b1 09 33
        E 8 b1 09 32
        E 8 b1 09 31
        E 8 b1 09 2f
        E 8 b1 09 2e
        E 8 b1 09 2c
        E 8 b1 09 2b
        E 8 b1 09 2a
        E 8 b1 09 28
        E 8 b1 09 27
        E 8 b1 09 25
        E 8 b1 09 23
        E 8 b1 09 22
        E 8 b1 09 20
        E 8 b1 09 1f
        E 8 b1 09 1d
        E 8 b1 09 1c
        E 8 b1 09 1a
        E 8 b1 09 18
        E 8 b1 09 17
        E 8 b1 09 15
        E 8 b1 09 14
        E 8 b1 09 13
        E 8 b1 09 11
        E 8 b1 09 10
        E 8 b1 09 0e
        E 8 b1 09 0d
        E 8 b1 09 0c
        E 8 b1 09 0b
        E 8 b1 09 09
        E 8 b1 09 08
        E 8 b1 09 07
        E 8 b1 09 06
        E 8 b1 09 05
        E 8 b1 09 05
        E 8 b1 09 04
        E 8 b1 09 03
        E 8 b1 09 02
        E 8 b1 09 02
        E 8 b1 09 01
        E 8 b1 09 01
        E 8 b1 09 00
        E 8 b1 09 00
        E 8 b1 09 00
        E 8 b1 09 00
        E 8 b1 09 00
        E 8 b1 09 00
        E 8 b1 09 00
        E 8 b1 09 00
        E 8 b1 09 00
        E 8 b1 09 01
        E 8 b1 09 01
        E 8 b1 09 02
        E 8 b1 09 02
        E 8 b1 09 03
        E 8 b1 09 03
        E 8 b1 09 04
        E 8 b1 09 05
        E 8 b1 09 06
        E 8 b1 09 07
        E 8 b1 09 08
        E 8 b1 09 09
        E 8 b1 09 0a
        E 8 b1 09 0b
        E 8 b1 09 0c
        E 8 b1 09 0e
        E 8 b1 09 0f
        E 8 b1 09 10
        E 8 b1 09 12
        E 8 b1 09 13
        E 8 b1 09 15
        E 8 b1 09 16
        E 8 b1 09 18
        E 8 b1 09 19
        E 8 b1 09 1b
        E 8 b1 09 1c
        E 8 b1 09 1e
        E 8 b1 09 20
        E 8 b1 09 20
        E 8 b1 09 21
        E 8 b1 09 23
        E 8 b1 09 24
        E 8 b1 09 26
        E 8 b1 09 27
        E 8 b1 09 29
        E 8 b1 09 2a
        E 8 b1 09 2c
        E 8 b1 09 2d
        E 8 b1 09 2f
        E 8 b1 09 30
        E 8 b1 09 31
        E 8 b1 09 33
        E 8 b1 09 34
        E 8 b1 09 35
        E 8 b1 09 36
        E 8 b1 09 37
        E 8 b1 09 38
        E 8 b1 09 39
        E 8 b1 09 3a
        E 8 b1 09 3b
        E 8 b1 09 3c
        E 8 b1 09 3c
        E 8 b1 09 3d
        E 8 b1 09 3d
        E 8 b1 09 3e
        E 8 b1 09 3e
        E 8 b1 09 3f
        E 8 b1 09 3f
        E 8 b1 09 3f
        E 8 b1 09 3f
        E 8 b1 09 3f
        E 8 b1 09 3f
        E 8 b1 09 3f
        E 8 b1 09 3f
        E 8 b1 09 3f
        E 8 b1 09 3e
        E 8 b1 09 3e
        E 8 b1 09 3d
        E 8 b1 09 3d
        E 8 b1 09 3c
        E 8 b1 09 3b
        E 8 b1 09 3a
        E 8 b1 09 3a
        E 8 b1 09 39
        E 8 b1 09 38
        E 8 b1 09 37
        E 8 b1 09 36
        E 8 b1 09 34
        E 8 b1 09 33
        E 8 b1 09 32
        E 8 b1 09 31
        E 8 b1 09 2f
        E 8 b1 09 2e
        E 8 b1 09 2c
        E 8 b1 09 2b
        E 8 b1 09 2a
        E 8 b1 09 28
        E 8 b1 09 27
        E 8 b1 09 25
        E 8 b1 09 23
        E 8 b1 09 22
        E 8 b1 09 20
        E 8 b1 09 1f
        E 8 b1 09 1d
        E 8 b1 09 1c
        E 8 b1 09 1a
        E 8 b1 09 18
        E 8 b1 09 17
        E 8 b1 09 15
        E 8 b1 09 14
        E 8 b1 09 13
        E 8 b1 09 11
        E 8 b1 09 10
        E 8 b1 09 0e
        E 8 b1 09 0d
        E 8 b1 09 0c
        E 8 b1 09 0b
        E 8 b1 09 09
        E 8 b1 09 08
        E 8 b1 09 07
        E 8 b1 09 06
        E 8 b1 09 05
        E 8 b1 09 05
        E 8 b1 09 04
        E 8 b1 09 03
        E 8 b1 09 02
        E 8 b1 09 02
        E 8 b1 09 01
        E 8 b1 09 01
        E 8 b1 09 00
        E 8 b1 09 00
        E 8 b1 09 00
        E 8 b1 09 00
        E 8 b1 09 00
        E 8 b1 09 00
        E 8 b1 09 00
        E 8 b1 09 00
        E 8 b1 09 00
        E 8 b1 09 01
        E 8 b1 09 01
        E 8 b1 09 02
        E 8 b1 09 02
        E 8 b1 09 03
        E 8 b1 09 03
        E 8 b1 09 04
        E 8 b1 09 05
        E 8 b1 09 06
        E 8 b1 09 07
        E 8 b1 09 08
        E 8 b1 09 09
        E 8 b1 09 0a
        E 8 b1 09 0b
        E 8 b1 09 0c
        E 8 b1 09 0e
        E 8 b1 09 0f
        E 8 b1 09 10
        E 8 b1 09 12
        E 8 b1 09 13
        E 8 b1 09 15
        E 8 b1 09 16
        E 8 b1 09 18
        E 8 b1 09 19
        E 8 b1 09 1b
        E 8 b1 09 1c
        E 8 b1 09 1e
        E 8 b1 09 20
        E 17 b1 09 2c
        E 17 b1 09 2e
        E 17 b1 09 31
        E 17 b1 09 33
        E 17 b1 09 35
        E 17 b1 09 37
        E 17 b1 09 39
        E 17 b1 09 3b
        E 17 b1 09 3d
        E 17 b1 09 3f
        E 17 b1 09 41
        E 17 b1 09 43
        E 17 b1 09 45
        E 17 b1 09 47
        E 17 b1 09 48
        E 17 b1 09 4a
        E 17 b1 09 4c
        E 17 b1 09 4d
        E 17 b1 09 4f
        E 17 b1 09 50
        E 17 b1 09 51
        E 17 b1 09 52
        E 17 b1 09 54
        E 17 b1 09 54
        E 17 b1 09 55
        E 17 b1 09 56
        E 17 b1 09 56
        E 17 b1 09 57
        E 17 b1 09 58
        E 17 b1 09 58
        E 17 b1 09 58
        E 17 b1 09 58
        E 17 b1 09 58
        E 17 b1 09 58
        E 17 b1 09 58
        E 17 b1 09 58
        E 17 b1 09 58
        E 17 b1 09 57
        E 17 b1 09 56
        E 17 b1 09 56
        E 17 b1 09 55
        E 17 b1 09 54
        E 17 b1 09 53
        E 17 b1 09 51
        E 17 b1 09 51
        E 17 b1 09 4f
        E 17 b1 09 4e
        E 17 b1 09 4d
        E 17 b1 09 4b
        E 17 b1 09 49
        E 17 b1 09 48
        E 17 b1 09 46
        E 17 b1 09 44
        E 17 b1 09 42
        E 17 b1 09 40
        E 17 b1 09 3e
        E 17 b1 09 3c
        E 17 b1 09 3a
        E 17 b1 09 38
        E 17 b1 09 36
        E 17 b1 09 33
        E 17 b1 09 31
        E 17 b1 09 2f
        E 17 b1 09 2d
        E 17 b1 09 2b
        E 17 b1 09 29
        E 17 b1 09 27
        E 17 b1 09 25
        E 17 b1 09 22
        E 17 b1 09 20
        E 17 b1 09 1e
        E 17 b1 09 1c
        E 17 b1 09 1a
        E 17 b1 09 18
        E 17 b1 09 16
        E 17 b1 09 14
        E 17 b1 09 12
        E 17 b1 09 10
        E 17 b1 09 0f
        E 17 b1 09 0d
        E 17 b1 09 0b
        E 17 b1 09 0a
        E 17 b1 09 09
        E 17 b1 09 07
        E 17 b1 09 07
        E 17 b1 09 05
        E 17 b1 09 04
        E 17 b1 09 03
        E 17 b1 09 02
        E 17 b1 09 02
        E 17 b1 09 01
        E 17 b1 09 00
        E 17 b1 09 00
        E 17 b1 09 00
        E 17 b1 09 00
        E 17 b1 09 00
        E 17 b1 09 00
        E 17 b1 09 00
        E 17 b1 09 00
        E 17 b1 09 00
        E 17 b1 09 01
        E 17 b1 09 02
        E 17 b1 09 02
        E 17 b1 09 03
        E 17 b1 09 04
        E 17 b1 09 04
        E 17 b1 09 06
        E 17 b1 09 07
        E 17 b1 09 08
        E 17 b1 09 09
        E 17 b1 09 0b
        E 17 b1 09 0c
        E 17 b1 09 0e
        E 17 b1 09 10
        E 17 b1 09 11
        E 17 b1 09 13
        E 17 b1 09 15
        E 17 b1 09 17
        E 17 b1 09 19
        E 17 b1 09 1b
        E 17 b1 09 1d
        E 17 b1 09 1f
        E 17 b1 09 21
        E 17 b1 09 23
        E 17 b1 09 25
        E 17 b1 09 27
        E 17 b1 09 2a
        E 17 b1 09 2c
        E 15 b1 09 33
        E 15 b1 09 35
        E 15 b1 09 37
        E 15 b1 09 3a
        E 15 b1 09 3c
        E 15 b1 09 3f
        E 15 b1 09 41
        E 15 b1 09 44
        E 15 b1 09 46
        E 15 b1 09 48
        E 15 b1 09 4b
        E 15 b1 09 4c
        E 15 b1 09 4f
        E 15 b1 09 51
        E 15 b1 09 53
        E 15 b1 09 54
        E 15 b1 09 57
        E 15 b1 09 58
        E 15 b1 09 5a
        E 15 b1 09 5b
        E 15 b1 09 5d
        E 15 b1 09 5e
        E 15 b1 09 5f
        E 15 b1 09 60
        E 15 b1 09 61
        E 15 b1 09 62
        E 15 b1 09 63
        E 15 b1 09 63
        E 15 b1 09 64
        E 15 b1 09 64
        E 15 b1 09 65
        E 15 b1 09 65
        E 15 b1 09 65
        E 15 b1 09 65
        E 15 b1 09 65
        E 15 b1 09 64
        E 15 b1 09 64
        E 15 b1 09 63
        E 15 b1 09 63
        E 15 b1 09 62
        E 15 b1 09 61
        E 15 b1 09 5f
        E 15 b1 09 5f
        E 15 b1 09 5d
        E 15 b1 09 5c
        E 15 b1 09 5b
        E 15 b1 09 59
        E 15 b1 09 57
        E 15 b1 09 56
        E 15 b1 09 54
        E 15 b1 09 52
        E 15 b1 09 50
        E 15 b1 09 4e
        E 15 b1 09 4c
        E 15 b1 09 49
        E 15 b1 09 47
        E 15 b1 09 45
        E 15 b1 09 43
        E 15 b1 09 40
        E 15 b1 09 3e
        E 15 b1 09 3b
        E 15 b1 09 38
        E 15 b1 09 36
        E 15 b1 09 33
        E 15 b1 09 31
        E 15 b1 09 2f
        E 15 b1 09 2c
        E 15 b1 09 2a
        E 15 b1 09 27
        E 15 b1 09 24
        E 15 b1 09 22
        E 15 b1 09 1f
        E 15 b1 09 1e
        E 15 b1 09 1b
        E 15 b1 09 19
        E 15 b1 09 17
        E 15 b1 09 15
        E 15 b1 09 13
        E 15 b1 09 11
        E 15 b1 09 0f
        E 15 b1 09 0d
        E 15 b1 09 0b
        E 15 b1 09 0a
        E 15 b1 09 08
        E 15 b1 09 07
        E 15 b1 09 06
        E 15 b1 09 05
        E 15 b1 09 03
        E 15 b1 09 03
        E 15 b1 09 02
        E 15 b1 09 01
        E 15 b1 09 00
        E 15 b1 09 00
        E 15 b1 09 00
        E 15 b1 09 00
        E 15 b1 09 00
        E 15 b1 09 00
        E 15 b1 09 00
        E 15 b1 09 00
        E 15 b1 09 00
        E 15 b1 09 01
        E 15 b1 09 02
        E 15 b1 09 03
        E 15 b1 09 03
        E 15 b1 09 04
        E 15 b1 09 05
        E 15 b1 09 07
        E 15 b1 09 07
        E 15 b1 09 09
        E 15 b1 09 0b
        E 15 b1 09 0c
        E 15 b1 09 0e
        E 15 b1 09 10
        E 15 b1 09 12
        E 15 b1 09 14
        E 15 b1 09 16
        E 15 b1 09 18
        E 15 b1 09 1a
        E 15 b1 09 1c
        E 15 b1 09 1f
        E 15 b1 09 21
        E 15 b1 09 24
        E 15 b1 09 26
        E 15 b1 09 28
        E 15 b1 09 2b
        E 15 b1 09 2d
        E 15 b1 09 2f
        E 15 b1 09 33
        E 17 b1 09 06
        E 17 b1 09 06
        E 17 b1 09 07
        E 17 b1 09 07
        E 17 b1 09 07
        E 17 b1 09 07
        E 17 b1 09 08
        E 17 b1 09 08
        E 17 b1 09 08
        E 17 b1 09 09
        E 17 b1 09 09
        E 17 b1 09 09
        E 17 b1 09 09
        E 17 b1 09 0a
        E 17 b1 09 0a
        E 17 b1 09 0a
        E 17 b1 09 0a
        E 17 b1 09 0b
        E 17 b1 09 0b
        E 17 b1 09 0b
        E 17 b1 09 0b
        E 17 b1 09 0b
        E 17 b1 09 0c
        E 17 b1 09 0c
        E 17 b1 09 0c
        E 17 b1 09 0c
        E 17 b1 09 0c
        E 17 b1 09 0c
        E 17 b1 09 0c
        E 17 b1 09 0c
        E 17 b1 09 0c
        E 17 b1 09 0c
        E 17 b1 09 0c
        E 17 b1 09 0c
        E 17 b1 09 0c
        E 17 b1 09 0c
        E 17 b1 09 0c
        E 17 b1 09 0c
        E 17 b1 09 0c
        E 17 b1 09 0c
        E 17 b1 09 0c
        E 17 b1 09 0c
        E 17 b1 09 0b
        E 17 b1 09 0b
        E 17 b1 09 0b
        E 17 b1 09 0b
        E 17 b1 09 0b
        E 17 b1 09 0b
        E 17 b1 09 0a
        E 17 b1 09 0a
        E 17 b1 09 0a
        E 17 b1 09 0a
        E 17 b1 09 09
        E 17 b1 09 09
        E 17 b1 09 09
        E 17 b1 09 08
        E 17 b1 09 08
        E 17 b1 09 08
        E 17 b1 09 08
        E 17 b1 09 07
        E 17 b1 09 07
        E 17 b1 09 07
        E 17 b1 09 06
        E 17 b1 09 06
        E 17 b1 09 06
        E 17 b1 09 05
        E 17 b1 09 05
        E 17 b1 09 05
        E 17 b1 09 04
        E 17 b1 09 04
        E 17 b1 09 04
        E 17 b1 09 04
        E 17 b1 09 03
        E 17 b1 09 03
        E 17 b1 09 03
        E 17 b1 09 02
        E 17 b1 09 02
        E 17 b1 09 02
        E 17 b1 09 02
        E 17 b1 09 01
        E 17 b1 09 01
        E 17 b1 09 01
        E 17 b1 09 01
        E 17 b1 09 01
        E 17 b1 09 01
        E 17 b1 09 00
        E 17 b1 09 00
        E 17 b1 09 00
        E 17 b1 09 00
        E 17 b1 09 00
        E 17 b1 09 00
        E 17 b1 09 00
        E 17 b1 09 00
        E 17 b1 09 00
        E 17 b1 09 00
        E 17 b1 09 00
        E 17 b1 09 00
        E 17 b1 09 00
        E 17 b1 09 00
        E 17 b1 09 00
        E 17 b1 09 00
        E 17 b1 09 00
        E 17 b1 09 00
        E 17 b1 09 00
        E 17 b1 09 00
        E 17 b1 09 00
        E 17 b1 09 00
        E 17 b1 09 01
        E 17 b1 09 01
        E 17 b1 09 01
        E 17 b1 09 01
        E 17 b1 09 01
        E 17 b1 09 02
        E 17 b1 09 02
        E 17 b1 09 02
        E 17 b1 09 02
        E 17 b1 09 03
        E 17 b1 09 03
        E 17 b1 09 03
        E 17 b1 09 03
        E 17 b1 09 04
        E 17 b1 09 04
        E 17 b1 09 04
        E 17 b1 09 05
        E 17 b1 09 05
        E 17 b1 09 05
        E 17 b1 09 06
        E 17 b1 09 06
        E 15 b1 09 19
        E 15 b1 09 1a
        E 15 b1 09 1c
        E 15 b1 09 1d
        E 15 b1 09 1e
        E 15 b1 09 1f
        E 15 b1 09 20
        E 15 b1 09 22
        E 15 b1 09 23
        E 15 b1 09 24
        E 15 b1 09 25
        E 15 b1 09 26
        E 15 b1 09 27
        E 15 b1 09 28
        E 15 b1 09 29
        E 15 b1 09 2a
        E 15 b1 09 2b
        E 15 b1 09 2c
        E 15 b1 09 2d
        E 15 b1 09 2e
        E 15 b1 09 2e
        E 15 b1 09 2f
        E 15 b1 09 30
        E 15 b1 09 30
        E 15 b1 09 30
        E 15 b1 09 31
        E 15 b1 09 31
        E 15 b1 09 32
        E 15 b1 09 32
        E 15 b1 09 32
        E 15 b1 09 32
        E 15 b1 09 32
        E 15 b1 09 32
        E 15 b1 09 32
        E 15 b1 09 32
        E 15 b1 09 32
        E 15 b1 09 32
        E 15 b1 09 32
        E 15 b1 09 31
        E 15 b1 09 31
        E 15 b1 09 30
        E 15 b1 09 30
        E 15 b1 09 2f
        E 15 b1 09 2e
        E 15 b1 09 2e
        E 15 b1 09 2d
        E 15 b1 09 2c
        E 15 b1 09 2c
        E 15 b1 09 2b
        E 15 b1 09 2a
        E 15 b1 09 29
        E 15 b1 09 28
        E 15 b1 09 27
        E 15 b1 09 26
        E 15 b1 09 24
        E 15 b1 09 23
        E 15 b1 09 22
        E 15 b1 09 21
        E 15 b1 09 20
        E 15 b1 09 1f
        E 15 b1 09 1d
        E 15 b1 09 1c
        E 15 b1 09 1b
        E 15 b1 09 1a
        E 15 b1 09 18
        E 15 b1 09 17
        E 15 b1 09 16
        E 15 b1 09 15
        E 15 b1 09 13
        E 15 b1 09 12
        E 15 b1 09 11
        E 15 b1 09 10
        E 15 b1 09 0f
        E 15 b1 09 0e
        E 15 b1 09 0c
        E 15 b1 09 0b
        E 15 b1 09 0a
        E 15 b1 09 09
        E 15 b1 09 08
        E 15 b1 09 07
        E 15 b1 09 06
        E 15 b1 09 06
        E 15 b1 09 05
        E 15 b1 09 04
        E 15 b1 09 04
        E 15 b1 09 03
        E 15 b1 09 02
        E 15 b1 09 02
        E 15 b1 09 01
        E 15 b1 09 01
        E 15 b1 09 00
        E 15 b1 09 00
        E 15 b1 09 00
        E 15 b1 09 00
        E 15 b1 09 00
        E 15 b1 09 00
        E 15 b1 09 00
        E 15 b1 09 00
        E 15 b1 09 00
        E 15 b1 09 00
        E 15 b1 09 00
        E 15 b1 09 01
        E 15 b1 09 01
        E 15 b1 09 02
        E 15 b1 09 02
        E 15 b1 09 02
        E 15 b1 09 03
        E 15 b1 09 04
        E 15 b1 09 04
        E 15 b1 09 05
        E 15 b1 09 06
        E 15 b1 09 07
        E 15 b1 09 08
        E 15 b1 09 09
        E 15 b1 09 0a
        E 15 b1 09 0b
        E 15 b1 09 0c
        E 15 b1 09 0d
        E 15 b1 09 0e
        E 15 b1 09 0f
        E 15 b1 09 10
        E 15 b1 09 12
        E 15 b1 09 13
        E 15 b1 09 14
        E 15 b1 09 15
        E 15 b1 09 16
        E 15 b1 09 18
        E 15 b1 09 19
        E 8 b1 09 2c
        E 8 b1 09 2e
        E 8 b1 09 31
        E 8 b1 09 33
        E 8 b1 09 35
        E 8 b1 09 37
        E 8 b1 09 39
        E 8 b1 09 3b
        E 8 b1 09 3d
        E 8 b1 09 3f
        E 8 b1 09 41
        E 8 b1 09 43
        E 8 b1 09 45
        E 8 b1 09 47
        E 8 b1 09 48
        E 8 b1 09 4a
        E 8 b1 09 4c
        E 8 b1 09 4d
        E 8 b1 09 4f
        E 8 b1 09 50
        E 8 b1 09 51
        E 8 b1 09 52
        E 8 b1 09 54
        E 8 b1 09 54
        E 8 b1 09 55
        E 8 b1 09 56
        E 8 b1 09 56
        E 8 b1 09 57
        E 8 b1 09 58
        E 8 b1 09 58
        E 8 b1 09 58
        E 8 b1 09 58
        E 8 b1 09 58
        E 8 b1 09 58
        E 8 b1 09 58
        E 8 b1 09 58
        E 8 b1 09 58
        E 8 b1 09 57
        E 8 b1 09 56
        E 8 b1 09 56
        E 8 b1 09 55
        E 8 b1 09 54
        E 8 b1 09 53
        E 8 b1 09 51
        E 8 b1 09 51
        E 8 b1 09 4f
        E 8 b1 09 4e
        E 8 b1 09 4d
        E 8 b1 09 4b
        E 8 b1 09 49
        E 8 b1 09 48
        E 8 b1 09 46
        E 8 b1 09 44
        E 8 b1 09 42
        E 8 b1 09 40
        E 8 b1 09 3e
        E 8 b1 09 3c
        E 8 b1 09 3a
        E 8 b1 09 38
        E 8 b1 09 36
        E 8 b1 09 33
        E 8 b1 09 31
        E 8 b1 09 2f
        E 8 b1 09 2d
        E 8 b1 09 2b
        E 8 b1 09 29
        E 8 b1 09 27
        E 8 b1 09 25
        E 8 b1 09 22
        E 8 b1 09 20
        E 8 b1 09 1e
        E 8 b1 09 1c
        E 8 b1 09 1a
        E 8 b1 09 18
        E 8 b1 09 16
        E 8 b1 09 14
        E 8 b1 09 12
        E 8 b1 09 10
        E 8 b1 09 0f
        E 8 b1 09 0d
        E 8 b1 09 0b
        E 8 b1 09 0a
        E 8 b1 09 09
        E 8 b1 09 07
        E 8 b1 09 07
        E 8 b1 09 05
        E 8 b1 09 04
        E 8 b1 09 03
        E 8 b1 09 02
        E 8 b1 09 02
        E 8 b1 09 01
        E 8 b1 09 00
        E 8 b1 09 00
        E 8 b1 09 00
        E 8 b1 09 00
        E 8 b1 09 00
        E 8 b1 09 00
        E 8 b1 09 00
        E 8 b1 09 00
        E 8 b1 09 00
        E 8 b1 09 01
        E 8 b1 09 02
        E 8 b1 09 02
        E 8 b1 09 03
        E 8 b1 09 04
        E 8 b1 09 04
        E 8 b1 09 06
        E 8 b1 09 07
        E 8 b1 09 08
        E 8 b1 09 09
        E 8 b1 09 0b
        E 8 b1 09 0c
        E 8 b1 09 0e
        E 8 b1 09 10
        E 8 b1 09 11
        E 8 b1 09 13
        E 8 b1 09 15
        E 8 b1 09 17
        E 8 b1 09 19
        E 8 b1 09 1b
        E 8 b1 09 1d
        E 8 b1 09 1f
        E 8 b1 09 21
        E 8 b1 09 23
        E 8 b1 09 25
        E 8 b1 09 27
        E 8 b1 09 2a
        E 8 b1 09 2c
        E 8 b1 09 20
        E 8 b1 09 21
        E 8 b1 09 23
        E 8 b1 09 24
        E 8 b1 09 26
        E 8 b1 09 27
        E 8 b1 09 29
        E 8 b1 09 2a
        E 8 b1 09 2c
        E 8 b1 09 2d
        E 8 b1 09 2f
        E 8 b1 09 30
        E 8 b1 09 31
        E 8 b1 09 33
        E 8 b1 09 34
        E 8 b1 09 35
        E 8 b1 09 36
        E 8 b1 09 37
        E 8 b1 09 38
        E 8 b1 09 39
        E 8 b1 09 3a
        E 8 b1 09 3b
        E 8 b1 09 3c
        E 8 b1 09 3c
        E 8 b1 09 3d
        E 8 b1 09 3d
        E 8 b1 09 3e
        E 8 b1 09 3e
        E 8 b1 09 3f
        E 8 b1 09 3f
        E 8 b1 09 3f
        E 8 b1 09 3f
        E 8 b1 09 3f
        E 8 b1 09 3f
        E 8 b1 09 3f
        E 8 b1 09 3f
        E 8 b1 09 3f
        E 8 b1 09 3e
        E 8 b1 09 3e
        E 8 b1 09 3d
        E 8 b1 09 3d
        E 8 b1 09 3c
        E 8 b1 09 3b
        E 8 b1 09 3a
        E 8 b1 09 3a
        E 8 b1 09 39
        E 8 b1 09 38
        E 8 b1 09 37
        E 8 b1 09 36
        E 8 b1 09 34
        E 8 b1 09 33
        E 8 b1 09 32
        E 8 b1 09 31
        E 8 b1 09 2f
        E 8 b1 09 2e
        E 8 b1 09 2c
        E 8 b1 09 2b
        E 8 b1 09 2a
        E 8 b1 09 28
        E 8 b1 09 27
        E 8 b1 09 25
        E 8 b1 09 23
        E 8 b1 09 22
        E 8 b1 09 20
        E 8 b1 09 1f
        E 8 b1 09 1d
        E 8 b1 09 1c
        E 8 b1 09 1a
        E 8 b1 09 18
        E 8 b1 09 17
        E 8 b1 09 15
        E 8 b1 09 14
        E 8 b1 09 13
        E 8 b1 09 11
        E 8 b1 09 10
        E 8 b1 09 0e
        E 8 b1 09 0d
        E 8 b1 09 0c
        E 8 b1 09 0b
        E 8 b1 09 09
        E 8 b1 09 08
        E 8 b1 09 07
        E 8 b1 09 06
        E 8 b1 09 05
        E 8 b1 09 05
        E 8 b1 09 04
        E 8 b1 09 03
        E 8 b1 09 02
        E 8 b1 09 02
        E 8 b1 09 01
        E 8 b1 09 01
        E 8 b1 09 00
        E 8 b1 09 00
        E 8 b1 09 00
        E 8 b1 09 00
        E 8 b1 09 00
        E 8 b1 09 00
        E 8 b1 09 00
        E 8 b1 09 00
        E 8 b1 09 00
        E 8 b1 09 01
        E 8 b1 09 01
        E 8 b1 09 02
        E 8 b1 09 02
        E 8 b1 09 03
        E 8 b1 09 03
        E 8 b1 09 04
        E 8 b1 09 05
        E 8 b1 09 06
        E 8 b1 09 07
        E 8 b1 09 08
        E 8 b1 09 09
        E 8 b1 09 0a
        E 8 b1 09 0b
        E 8 b1 09 0c
        E 8 b1 09 0e
        E 8 b1 09 0f
        E 8 b1 09 10
        E 8 b1 09 12
        E 8 b1 09 13
        E 8 b1 09 15
        E 8 b1 09 16
        E 8 b1 09 18
        E 8 b1 09 19
        E 8 b1 09 1b
        E 8 b1 09 1c
        E 8 b1 09 1e
        E 8 b1 09 20
        E 11 b1 09 20
        E 11 b1 09 21
        E 11 b1 09 23
        E 11 b1 09 24
        E 11 b1 09 26
        E 11 b1 09 27
        E 11 b1 09 29
        E 11 b1 09 2a
        E 11 b1 09 2c
        E 11 b1 09 2d
        E 11 b1 09 2f
        E 11 b1 09 30
        E 11 b1 09 31
        E 11 b1 09 33
        E 11 b1 09 34
        E 11 b1 09 35
        E 11 b1 09 36
        E 11 b1 09 37
        E 11 b1 09 38
        E 11 b1 09 39
        E 11 b1 09 3a
        E 11 b1 09 3b
        E 11 b1 09 3c
        E 11 b1 09 3c
        E 11 b1 09 3d
        E 11 b1 09 3d
        E 11 b1 09 3e
        E 11 b1 09 3e
        E 11 b1 09 3f
        E 11 b1 09 3f
        E 11 b1 09 3f
        E 11 b1 09 3f
        E 11 b1 09 3f
        E 11 b1 09 3f
        E 11 b1 09 3f
        E 11 b1 09 3f
        E 11 b1 09 3f
        E 11 b1 09 3e
        E 11 b1 09 3e
        E 11 b1 09 3d
        E 11 b1 09 3d
        E 11 b1 09 3c
        E 11 b1 09 3b
        E 11 b1 09 3a
        E 11 b1 09 3a
        E 11 b1 09 39
        E 11 b1 09 38
        E 11 b1 09 37
        E 11 b1 09 36
        E 11 b1 09 34
        E 11 b1 09 33
        E 11 b1 09 32
        E 11 b1 09 31
        E 11 b1 09 2f
        E 11 b1 09 2e
        E 11 b1 09 2c
        E 11 b1 09 2b
        E 11 b1 09 2a
        E 11 b1 09 28
        E 11 b1 09 27
        E 11 b1 09 25
        E 11 b1 09 23
        E 11 b1 09 22
        E 11 b1 09 20
        E 11 b1 09 1f
        E 11 b1 09 1d
        E 11 b1 09 1c
        E 11 b1 09 1a
        E 11 b1 09 18
        E 11 b1 09 17
        E 11 b1 09 15
        E 11 b1 09 14
        E 11 b1 09 13
        E 11 b1 09 11
        E 11 b1 09 10
        E 11 b1 09 0e
        E 11 b1 09 0d
        E 11 b1 09 0c
        E 11 b1 09 0b
        E 11 b1 09 09
        E 11 b1 09 08
        E 11 b1 09 07
        E 11 b1 09 06
        E 11 b1 09 05
        E 11 b1 09 05
        E 11 b1 09 04
        E 11 b1 09 03
        E 11 b1 09 02
        E 11 b1 09 02
        E 11 b1 09 01
        E 11 b1 09 01
        E 11 b1 09 00
        E 11 b1 09 00
        E 11 b1 09 00
        E 11 b1 09 00
        E 11 b1 09 00
        E 11 b1 09 00
        E 11 b1 09 00
        E 11 b1 09 00
        E 11 b1 09 00
        E 11 b1 09 01
        E 11 b1 09 01
        E 11 b1 09 02
        E 11 b1 09 02
        E 11 b1 09 03
        E 11 b1 09 03
        E 11 b1 09 04
        E 11 b1 09 05
        E 11 b1 09 06
        E 11 b1 09 07
        E 11 b1 09 08
        E 11 b1 09 09
        E 11 b1 09 0a
        E 11 b1 09 0b
        E 11 b1 09 0c
        E 11 b1 09 0e
        E 11 b1 09 0f
        E 11 b1 09 10
        E 11 b1 09 12
        E 11 b1 09 13
        E 11 b1 09 15
        E 11 b1 09 16
        E 11 b1 09 18
        E 11 b1 09 19
        E 11 b1 09 1b
        E 11 b1 09 1c
        E 11 b1 09 1e
        E 11 b1 09 20
        E 13 b1 09 40
        E 13 b1 09 43
        E 13 b1 09 46
        E 13 b1 09 49
        E 13 b1 09 4c
        E 13 b1 09 4f
        E 13 b1 09 52
        E 13 b1 09 55
        E 13 b1 09 58
        E 13 b1 09 5b
        E 13 b1 09 5e
        E 13 b1 09 60
        E 13 b1 09 63
        E 13 b1 09 66
        E 13 b1 09 68
        E 13 b1 09 6a
        E 13 b1 09 6d
        E 13 b1 09 6f
        E 13 b1 09 71
        E 13 b1 09 73
        E 13 b1 09 75
        E 13 b1 09 76
        E 13 b1 09 78
        E 13 b1 09 79
        E 13 b1 09 7a
        E 13 b1 09 7b
        E 13 b1 09 7c
        E 13 b1 09 7d
        E 13 b1 09 7e
        E 13 b1 09 7e
        E 13 b1 09 7f
        E 13 b1 09 7f
        E 13 b1 09 7f
        E 13 b1 09 7f
        E 13 b1 09 7f
        E 13 b1 09 7e
        E 13 b1 09 7e
        E 13 b1 09 7d
        E 13 b1 09 7c
        E 13 b1 09 7b
        E 13 b1 09 7a
        E 13 b1 09 78
        E 13 b1 09 77
        E 13 b1 09 75
        E 13 b1 09 74
        E 13 b1 09 72
        E 13 b1 09 70
        E 13 b1 09 6e
        E 13 b1 09 6c
        E 13 b1 09 69
        E 13 b1 09 67
        E 13 b1 09 64
        E 13 b1 09 62
        E 13 b1 09 5f
        E 13 b1 09 5c
        E 13 b1 09 59
        E 13 b1 09 57
        E 13 b1 09 54
        E 13 b1 09 51
        E 13 b1 09 4e
        E 13 b1 09 4a
        E 13 b1 09 47
        E 13 b1 09 44
        E 13 b1 09 41
        E 13 b1 09 3e
        E 13 b1 09 3b
        E 13 b1 09 38
        E 13 b1 09 35
        E 13 b1 09 31
        E 13 b1 09 2e
        E 13 b1 09 2b
        E 13 b1 09 28
        E 13 b1 09 26
        E 13 b1 09 23
        E 13 b1 09 20
        E 13 b1 09 1d
        E 13 b1 09 1b
        E 13 b1 09 18
        E 13 b1 09 16
        E 13 b1 09 13
        E 13 b1 09 11
        E 13 b1 09 0f
        E 13 b1 09 0d
        E 13 b1 09 0b
        E 13 b1 09 0a
        E 13 b1 09 08
        E 13 b1 09 07
        E 13 b1 09 05
        E 13 b1 09 04
        E 13 b1 09 03
        E 13 b1 09 02
        E 13 b1 09 01
        E 13 b1 09 01
        E 13 b1 09 00
        E 13 b1 09 00
        E 13 b1 09 00
        E 13 b1 09 00
        E 13 b1 09 00
        E 13 b1 09 01
        E 13 b1 09 01
        E 13 b1 09 02
        E 13 b1 09 03
        E 13 b1 09 04
        E 13 b1 09 05
        E 13 b1 09 06
        E 13 b1 09 07
        E 13 b1 09 09
        E 13 b1 09 0a
        E 13 b1 09 0c
        E 13 b1 09 0e
        E 13 b1 09 10
        E 13 b1 09 12
        E 13 b1 09 15
        E 13 b1 09 17
        E 13 b1 09 19
        E 13 b1 09 1c
        E 13 b1 09 1f
        E 13 b1 09 21
        E 13 b1 09 24
        E 13 b1 09 27
        E 13 b1 09 2a
        E 13 b1 09 2d
        E 13 b1 09 30
        E 13 b1 09 33
        E 13 b1 09 36
        E 13 b1 09 39
        E 13 b1 09 3c
        E 13 b1 09 40
        E 107 b0 7b 00
        CCINTERP 32
        CHASE_CC_TAKEOFFS 1
        GUID {4E53F760-E4C4-D542-BC44-5811B847A7EC}
        IGNTEMPO 0 120 4 4
        SRCCOLOR 174
        VELLANE 3 601 0
        VELLANE -1 196 0
      >
    >
  >
  <TRACK {4ED1C415-5960-4F48-A82A-6332556B5EAF}
    NAME "insects of the los angeles basin"
    PEAKCOL 16576
    BEAT -1
    AUTOMODE 0
    VOLPAN 1 0 -1 -1 1
    MUTESOLO 0 0 0
    IPHASE 0
    PLAYOFFS 0 1
    ISBUS 0 0
    BUSCOMP 0 0 0 0 0
    SHOWINMIX 1 0.6667 0.5 1 0.5 0 -1 0
    FREEMODE 0
    SEL 0
    REC 0 0 1 0 0 0 0
    VU 2
    TRACKHEIGHT 0 1 0 0 -1 0
    INQ 0 0 0 0.5 100 0 0 100
    NCHAN 2
    FX 1
    TRACKID {4ED1C415-5960-4F48-A82A-6332556B5EAF}
    PERF 0
    MIDIOUT -1
    MAINSEND 1 0
    <ITEM
      POSITION 0
      SNAPOFFS 0
      LENGTH 1064.869299
      LOOP 1
      ALLTAKES 0
      FADEIN 1 0 0 1 0 0
      FADEOUT 1 0 0 1 0 0
      MUTE 0 0
      SEL 0
      IGUID {572FEC1F-539A-7349-B1A0-4989C4C503A4}
      IID 16
      NAME "insects of the los angeles basin.mid"
      VOLPAN 1 0 1 -1
      SOFFS 0 0
      PLAYRATE 1 1 0 -1 0 0.0025
      CHANMODE 0
      GUID {5242034A-3296-6445-9928-E8CDD1A0DF88}
      <SOURCE MIDI
        HASDATA 1 128 QN
        CCINTERP 32
        POOLEDEVTS {AB140A3A-966A-B34F-8C3A-5CA4867D1744}
        E 20 b2 01 01
        E 20 b2 01 02
        E 20 b2 01 03
        E 20 b2 01 04
        E 20 b2 01 05
        E 20 b2 01 06
        E 20 b2 01 07
        E 20 b2 01 08
        E 20 b2 01 09
        E 20 b2 01 0a
        E 20 b2 01 0b
        E 20 b2 01 0c
        E 20 b2 01 0d
        E 20 b2 01 0e
        E 20 b2 01 0f
        E 20 b2 01 10
        E 20 b2 01 11
        E 20 b2 01 12
        E 20 b2 01 13
        E 20 b2 01 14
        E 20 b2 01 15
        E 20 b2 01 16
        E 20 b2 01 17
        E 20 b2 01 18
        E 20 b2 01 19
        E 20 b2 01 1a
        E 20 b2 01 1b
        E 20 b2 01 1c
        E 20 b2 01 1d
        E 20 b2 01 1e
        E 20 b2 01 1f
        E 20 b2 01 20
        E 20 b2 01 21
        E 20 b2 01 22
        E 20 b2 01 23
        E 20 b2 01 24
        E 20 b2 01 25
        E 20 b2 01 26
        E 20 b2 01 27
        E 20 b2 01 28
        E 20 b2 01 29
        E 20 b2 01 2a
        E 20 b2 01 2b
        E 20 b2 01 2c
        E 20 b2 01 2d
        E 20 b2 01 2e
        E 20 b2 01 2f
        E 20 b2 01 30
        E 20 b2 01 31
        E 20 b2 01 32
        E 20 b2 01 33
        E 20 b2 01 34
        E 20 b2 01 35
        E 20 b2 01 36
        E 20 b2 01 37
        E 20 b2 01 38
        E 20 b2 01 39
        E 20 b2 01 3a
        E 20 b2 01 3b
        E 20 b2 01 3c
        E 20 b2 01 3d
        E 20 b2 01 3e
        E 20 b2 01 3f
        E 20 b2 01 3f
        E 20 b2 01 3f
        E 20 b2 01 3e
        E 20 b2 01 3d
        E 20 b2 01 3c
        E 20 b2 01 3b
        E 20 b2 01 3a
        E 20 b2 01 39
        E 20 b2 01 38
        E 20 b2 01 37
        E 20 b2 01 36
        E 20 b2 01 35
        E 20 b2 01 34
        E 20 b2 01 33
        E 20 b2 01 32
        E 20 b2 01 31
        E 20 b2 01 30
        E 20 b2 01 2f
        E 20 b2 01 2e
        E 20 b2 01 2d
        E 20 b2 01 2c
        E 20 b2 01 2b
        E 20 b2 01 2a
        E 20 b2 01 29
        E 20 b2 01 28
        E 20 b2 01 27
        E 20 b2 01 26
        E 20 b2 01 25
        E 20 b2 01 24
        E 20 b2 01 23
        E 20 b2 01 22
        E 20 b2 01 21
        E 20 b2 01 20
        E 20 b2 01 1f
        E 20 b2 01 1e
        E 20 b2 01 1d
        E 20 b2 01 1c
        E 20 b2 01 1b
        E 20 b2 01 1a
        E 20 b2 01 19
        E 20 b2 01 18
        E 20 b2 01 17
        E 20 b2 01 16
        E 20 b2 01 15
        E 20 b2 01 14
        E 20 b2 01 13
        E 20 b2 01 12
        E 20 b2 01 11
        E 20 b2 01 10
        E 20 b2 01 0f
        E 20 b2 01 0e
        E 20 b2 01 0d
        E 20 b2 01 0c
        E 20 b2 01 0b
        E 20 b2 01 0a
        E 20 b2 01 09
        E 20 b2 01 08
        E 20 b2 01 07
        E 20 b2 01 06
        E 20 b2 01 05
        E 20 b2 01 04
        E 20 b2 01 03
        E 20 b2 01 02
        E 20 b2 01 01
        E 20 b2 01 00
        E 20 b2 01 01
        E 20 b2 01 02
        E 20 b2 01 03
        E 20 b2 01 04
        E 20 b2 01 05
        E 20 b2 01 06
        E 20 b2 01 07
        E 20 b2 01 08
        E 20 b2 01 09
        E 20 b2 01 0a
        E 20 b2 01 0b
        E 20 b2 01 0c
        E 20 b2 01 0d
        E 20 b2 01 0e
        E 20 b2 01 0f
        E 20 b2 01 10
        E 20 b2 01 11
        E 20 b2 01 12
        E 20 b2 01 13
        E 20 b2 01 14
        E 20 b2 01 15
        E 20 b2 01 16
        E 20 b2 01 17
        E 20 b2 01 18
        E 20 b2 01 19
        E 20 b2 01 1a
        E 20 b2 01 1b
        E 20 b2 01 1c
        E 20 b2 01 1d
        E 20 b2 01 1e
        E 20 b2 01 1f
        E 20 b2 01 20
        E 20 b2 01 21
        E 20 b2 01 22
        E 20 b2 01 23
        E 20 b2 01 24
        E 20 b2 01 25
        E 20 b2 01 26
        E 20 b2 01 27
        E 20 b2 01 28
        E 20 b2 01 29
        E 20 b2 01 2a
        E 20 b2 01 2b
        E 20 b2 01 2c
        E 20 b2 01 2d
        E 20 b2 01 2e
        E 20 b2 01 2f
        E 20 b2 01 30
        E 20 b2 01 31
        E 20 b2 01 32
        E 20 b2 01 33
        E 20 b2 01 34
        E 20 b2 01 35
        E 20 b2 01 36
        E 20 b2 01 37
        E 20 b2 01 38
        E 20 b2 01 39
        E 20 b2 01 3a
        E 20 b2 01 3b
        E 20 b2 01 3c
        E 20 b2 01 3d
        E 20 b2 01 3e
        E 20 b2 01 3f
        E 20 b2 01 3f
        E 20 b2 01 3f
        E 20 b2 01 3e
        E 20 b2 01 3d
        E 20 b2 01 3c
        E 20 b2 01 3b
        E 20 b2 01 3a
        E 20 b2 01 39
        E 20 b2 01 38
        E 20 b2 01 37
        E 20 b2 01 36
        E 20 b2 01 35
        E 20 b2 01 34
        E 20 b2 01 33
        E 20 b2 01 32
        E 20 b2 01 31
        E 20 b2 01 30
        E 20 b2 01 2f
        E 20 b2 01 2e
        E 20 b2 01 2d
        E 20 b2 01 2c
        E 20 b2 01 2b
        E 20 b2 01 2a
        E 20 b2 01 29
        E 20 b2 01 28
        E 20 b2 01 27
        E 20 b2 01 26
        E 20 b2 01 25
        E 20 b2 01 24
        E 20 b2 01 23
        E 20 b2 01 22
        E 20 b2 01 21
        E 20 b2 01 20
        E 20 b2 01 1f
        E 20 b2 01 1e
        E 20 b2 01 1d
        E 20 b2 01 1c
        E 20 b2 01 1b
        E 20 b2 01 1a
        E 20 b2 01 19
        E 20 b2 01 18
        E 20 b2 01 17
        E 20 b2 01 16
        E 20 b2 01 15
        E 20 b2 01 14
        E 20 b2 01 13
        E 20 b2 01 12
        E 20 b2 01 11
        E 20 b2 01 10
        E 20 b2 01 0f
        E 20 b2 01 0e
        E 20 b2 01 0d
        E 20 b2 01 0c
        E 20 b2 01 0b
        E 20 b2 01 0a
        E 20 b2 01 09
        E 20 b2 01 08
        E 20 b2 01 07
        E 20 b2 01 06
        E 20 b2 01 05
        E 20 b2 01 04
        E 20 b2 01 03
        E 20 b2 01 02
        E 20 b2 01 01
        E 20 b2 01 00
        E 40 b2 01 01
        E 40 b2 01 02
        E 40 b2 01 04
        E 40 b2 01 05
        E 40 b2 01 07
        E 40 b2 01 08
        E 40 b2 01 09
        E 40 b2 01 0b
        E 40 b2 01 0c
        E 40 b2 01 0e
        E 40 b2 01 0f
        E 40 b2 01 10
        E 40 b2 01 12
        E 40 b2 01 13
        E 40 b2 01 15
        E 40 b2 01 16
        E 40 b2 01 17
        E 40 b2 01 19
        E 40 b2 01 1a
        E 40 b2 01 1c
        E 40 b2 01 1d
        E 40 b2 01 1e
        E 40 b2 01 20
        E 40 b2 01 21
        E 40 b2 01 23
        E 40 b2 01 24
        E 40 b2 01 25
        E 40 b2 01 27
        E 40 b2 01 28
        E 40 b2 01 2a
        E 40 b2 01 2b
        E 40 b2 01 2c
        E 40 b2 01 2e
        E 40 b2 01 2f
        E 40 b2 01 31
        E 40 b2 01 32
        E 40 b2 01 33
        E 40 b2 01 35
        E 40 b2 01 36
        E 40 b2 01 38
        E 40 b2 01 39
        E 40 b2 01 3a
        E 40 b2 01 3c
        E 40 b2 01 3d
        E 40 b2 01 3e
        E 40 b2 01 40
        E 40 b2 01 41
        E 40 b2 01 43
        E 40 b2 01 44
        E 40 b2 01 46
        E 40 b2 01 47
        E 40 b2 01 48
        E 40 b2 01 4a
        E 40 b2 01 4b
        E 40 b2 01 4d
        E 40 b2 01 4e
        E 40 b2 01 4f
        E 40 b2 01 51
        E 40 b2 01 52
        E 40 b2 01 54
        E 40 b2 01 55
        E 40 b2 01 56
        E 40 b2 01 58
        E 40 b2 01 58
        E 40 b2 01 58
        E 40 b2 01 56
        E 40 b2 01 55
        E 40 b2 01 54
        E 40 b2 01 52
        E 40 b2 01 51
        E 40 b2 01 4f
        E 40 b2 01 4e
        E 40 b2 01 4d
        E 40 b2 01 4b
        E 40 b2 01 4a
        E 40 b2 01 48
        E 40 b2 01 47
        E 40 b2 01 46
        E 40 b2 01 44
        E 40 b2 01 43
        E 40 b2 01 41
        E 40 b2 01 40
        E 40 b2 01 3e
        E 40 b2 01 3d
        E 40 b2 01 3c
        E 40 b2 01 3a
        E 40 b2 01 39
        E 40 b2 01 38
        E 40 b2 01 36
        E 40 b2 01 35
        E 40 b2 01 33
        E 40 b2 01 32
        E 40 b2 01 31
        E 40 b2 01 2f
        E 40 b2 01 2e
        E 40 b2 01 2c
        E 40 b2 01 2b
        E 40 b2 01 2a
        E 40 b2 01 28
        E 40 b2 01 27
        E 40 b2 01 25
        E 40 b2 01 24
        E 40 b2 01 23
        E 40 b2 01 21
        E 40 b2 01 20
        E 40 b2 01 1e
        E 40 b2 01 1d
        E 40 b2 01 1c
        E 40 b2 01 1a
        E 40 b2 01 19
        E 40 b2 01 17
        E 40 b2 01 16
        E 40 b2 01 15
        E 40 b2 01 13
        E 40 b2 01 12
        E 40 b2 01 10
        E 40 b2 01 0f
        E 40 b2 01 0e
        E 40 b2 01 0c
        E 40 b2 01 0b
        E 40 b2 01 09
        E 40 b2 01 08
        E 40 b2 01 07
        E 40 b2 01 05
        E 40 b2 01 04
        E 40 b2 01 02
        E 40 b2 01 01
        E 40 b2 01 00
        E 36 b2 01 01
        E 36 b2 01 03
        E 36 b2 01 04
        E 36 b2 01 06
        E 36 b2 01 07
        E 36 b2 01 09
        E 36 b2 01 0b
        E 36 b2 01 0c
        E 36 b2 01 0e
        E 36 b2 01 0f
        E 36 b2 01 11
        E 36 b2 01 13
        E 36 b2 01 14
        E 36 b2 01 16
        E 36 b2 01 17
        E 36 b2 01 19
        E 36 b2 01 1b
        E 36 b2 01 1c
        E 36 b2 01 1e
        E 36 b2 01 1f
        E 36 b2 01 21
        E 36 b2 01 23
        E 36 b2 01 24
        E 36 b2 01 26
        E 36 b2 01 28
        E 36 b2 01 29
        E 36 b2 01 2b
        E 36 b2 01 2c
        E 36 b2 01 2e
        E 36 b2 01 2f
        E 36 b2 01 31
        E 36 b2 01 33
        E 36 b2 01 34
        E 36 b2 01 36
        E 36 b2 01 37
        E 36 b2 01 39
        E 36 b2 01 3b
        E 36 b2 01 3c
        E 36 b2 01 3e
        E 36 b2 01 3f
        E 36 b2 01 41
        E 36 b2 01 43
        E 36 b2 01 44
        E 36 b2 01 46
        E 36 b2 01 48
        E 36 b2 01 49
        E 36 b2 01 4b
        E 36 b2 01 4c
        E 36 b2 01 4e
        E 36 b2 01 50
        E 36 b2 01 51
        E 36 b2 01 53
        E 36 b2 01 54
        E 36 b2 01 56
        E 36 b2 01 57
        E 36 b2 01 59
        E 36 b2 01 5b
        E 36 b2 01 5c
        E 36 b2 01 5e
        E 36 b2 01 5f
        E 36 b2 01 61
        E 36 b2 01 63
        E 36 b2 01 64
        E 36 b2 01 65
        E 36 b2 01 64
        E 36 b2 01 63
        E 36 b2 01 61
        E 36 b2 01 5f
        E 36 b2 01 5e
        E 36 b2 01 5c
        E 36 b2 01 5b
        E 36 b2 01 59
        E 36 b2 01 57
        E 36 b2 01 56
        E 36 b2 01 54
        E 36 b2 01 53
        E 36 b2 01 51
        E 36 b2 01 50
        E 36 b2 01 4e
        E 36 b2 01 4c
        E 36 b2 01 4b
        E 36 b2 01 49
        E 36 b2 01 48
        E 36 b2 01 46
        E 36 b2 01 44
        E 36 b2 01 43
        E 36 b2 01 41
        E 36 b2 01 3f
        E 36 b2 01 3e
        E 36 b2 01 3c
        E 36 b2 01 3b
        E 36 b2 01 39
        E 36 b2 01 37
        E 36 b2 01 36
        E 36 b2 01 34
        E 36 b2 01 33
        E 36 b2 01 31
        E 36 b2 01 2f
        E 36 b2 01 2e
        E 36 b2 01 2c
        E 36 b2 01 2b
        E 36 b2 01 29
        E 36 b2 01 28
        E 36 b2 01 26
        E 36 b2 01 24
        E 36 b2 01 23
        E 36 b2 01 21
        E 36 b2 01 1f
        E 36 b2 01 1e
        E 36 b2 01 1c
        E 36 b2 01 1b
        E 36 b2 01 19
        E 36 b2 01 17
        E 36 b2 01 16
        E 36 b2 01 14
        E 36 b2 01 13
        E 36 b2 01 11
        E 36 b2 01 0f
        E 36 b2 01 0e
        E 36 b2 01 0c
        E 36 b2 01 0b
        E 36 b2 01 09
        E 36 b2 01 07
        E 36 b2 01 06
        E 36 b2 01 04
        E 36 b2 01 03
        E 36 b2 01 01
        E 36 b2 01 00
        E 40 b2 01 00
        E 40 b2 01 00
        E 40 b2 01 00
        E 40 b2 01 00
        E 40 b2 01 01
        E 40 b2 01 01
        E 40 b2 01 01
        E 40 b2 01 01
        E 40 b2 01 01
        E 40 b2 01 02
        E 40 b2 01 02
        E 40 b2 01 02
        E 40 b2 01 02
        E 40 b2 01 02
        E 40 b2 01 03
        E 40 b2 01 03
        E 40 b2 01 03
        E 40 b2 01 03
        E 40 b2 01 03
        E 40 b2 01 04
        E 40 b2 01 04
        E 40 b2 01 04
        E 40 b2 01 04
        E 40 b2 01 04
        E 40 b2 01 05
        E 40 b2 01 05
        E 40 b2 01 05
        E 40 b2 01 05
        E 40 b2 01 05
        E 40 b2 01 06
        E 40 b2 01 06
        E 40 b2 01 06
        E 40 b2 01 06
        E 40 b2 01 06
        E 40 b2 01 07
        E 40 b2 01 07
        E 40 b2 01 07
        E 40 b2 01 07
        E 40 b2 01 07
        E 40 b2 01 08
        E 40 b2 01 08
        E 40 b2 01 08
        E 40 b2 01 08
        E 40 b2 01 08
        E 40 b2 01 09
        E 40 b2 01 09
        E 40 b2 01 09
        E 40 b2 01 09
        E 40 b2 01 09
        E 40 b2 01 0a
        E 40 b2 01 0a
        E 40 b2 01 0a
        E 40 b2 01 0a
        E 40 b2 01 0a
        E 40 b2 01 0b
        E 40 b2 01 0b
        E 40 b2 01 0b
        E 40 b2 01 0b
        E 40 b2 01 0b
        E 40 b2 01 0c
        E 40 b2 01 0c
        E 40 b2 01 0c
        E 40 b2 01 0c
        E 40 b2 01 0c
        E 40 b2 01 0c
        E 40 b2 01 0c
        E 40 b2 01 0c
        E 40 b2 01 0c
        E 40 b2 01 0b
        E 40 b2 01 0b
        E 40 b2 01 0b
        E 40 b2 01 0b
        E 40 b2 01 0b
        E 40 b2 01 0a
        E 40 b2 01 0a
        E 40 b2 01 0a
        E 40 b2 01 0a
        E 40 b2 01 0a
        E 40 b2 01 09
        E 40 b2 01 09
        E 40 b2 01 09
        E 40 b2 01 09
        E 40 b2 01 09
        E 40 b2 01 08
        E 40 b2 01 08
        E 40 b2 01 08
        E 40 b2 01 08
        E 40 b2 01 08
        E 40 b2 01 07
        E 40 b2 01 07
        E 40 b2 01 07
        E 40 b2 01 07
        E 40 b2 01 07
        E 40 b2 01 06
        E 40 b2 01 06
        E 40 b2 01 06
        E 40 b2 01 06
        E 40 b2 01 06
        E 40 b2 01 05
        E 40 b2 01 05
        E 40 b2 01 05
        E 40 b2 01 05
        E 40 b2 01 05
        E 40 b2 01 04
        E 40 b2 01 04
        E 40 b2 01 04
        E 40 b2 01 04
        E 40 b2 01 04
        E 40 b2 01 03
        E 40 b2 01 03
        E 40 b2 01 03
        E 40 b2 01 03
        E 40 b2 01 03
        E 40 b2 01 02
        E 40 b2 01 02
        E 40 b2 01 02
        E 40 b2 01 02
        E 40 b2 01 02
        E 40 b2 01 01
        E 40 b2 01 01
        E 40 b2 01 01
        E 40 b2 01 01
        E 40 b2 01 01
        E 40 b2 01 00
        E 40 b2 01 00
        E 40 b2 01 00
        E 40 b2 01 00
        E 40 b2 01 00
        E 36 b2 01 00
        E 36 b2 01 01
        E 36 b2 01 02
        E 36 b2 01 03
        E 36 b2 01 04
        E 36 b2 01 04
        E 36 b2 01 05
        E 36 b2 01 06
        E 36 b2 01 07
        E 36 b2 01 08
        E 36 b2 01 08
        E 36 b2 01 09
        E 36 b2 01 0a
        E 36 b2 01 0b
        E 36 b2 01 0c
        E 36 b2 01 0c
        E 36 b2 01 0d
        E 36 b2 01 0e
        E 36 b2 01 0f
        E 36 b2 01 10
        E 36 b2 01 10
        E 36 b2 01 11
        E 36 b2 01 12
        E 36 b2 01 13
        E 36 b2 01 14
        E 36 b2 01 14
        E 36 b2 01 15
        E 36 b2 01 16
        E 36 b2 01 17
        E 36 b2 01 18
        E 36 b2 01 18
        E 36 b2 01 19
        E 36 b2 01 1a
        E 36 b2 01 1b
        E 36 b2 01 1c
        E 36 b2 01 1c
        E 36 b2 01 1d
        E 36 b2 01 1e
        E 36 b2 01 1f
        E 36 b2 01 20
        E 36 b2 01 20
        E 36 b2 01 21
        E 36 b2 01 22
        E 36 b2 01 23
        E 36 b2 01 24
        E 36 b2 01 24
        E 36 b2 01 25
        E 36 b2 01 26
        E 36 b2 01 27
        E 36 b2 01 28
        E 36 b2 01 28
        E 36 b2 01 29
        E 36 b2 01 2a
        E 36 b2 01 2b
        E 36 b2 01 2c
        E 36 b2 01 2c
        E 36 b2 01 2d
        E 36 b2 01 2e
        E 36 b2 01 2f
        E 36 b2 01 30
        E 36 b2 01 30
        E 36 b2 01 31
        E 36 b2 01 32
        E 36 b2 01 32
        E 36 b2 01 32
        E 36 b2 01 31
        E 36 b2 01 30
        E 36 b2 01 30
        E 36 b2 01 2f
        E 36 b2 01 2e
        E 36 b2 01 2d
        E 36 b2 01 2c
        E 36 b2 01 2c
        E 36 b2 01 2b
        E 36 b2 01 2a
        E 36 b2 01 29
        E 36 b2 01 28
        E 36 b2 01 28
        E 36 b2 01 27
        E 36 b2 01 26
        E 36 b2 01 25
        E 36 b2 01 24
        E 36 b2 01 24
        E 36 b2 01 23
        E 36 b2 01 22
        E 36 b2 01 21
        E 36 b2 01 20
        E 36 b2 01 20
        E 36 b2 01 1f
        E 36 b2 01 1e
        E 36 b2 01 1d
        E 36 b2 01 1c
        E 36 b2 01 1c
        E 36 b2 01 1b
        E 36 b2 01 1a
        E 36 b2 01 19
        E 36 b2 01 18
        E 36 b2 01 18
        E 36 b2 01 17
        E 36 b2 01 16
        E 36 b2 01 15
        E 36 b2 01 14
        E 36 b2 01 14
        E 36 b2 01 13
        E 36 b2 01 12
        E 36 b2 01 11
        E 36 b2 01 10
        E 36 b2 01 10
        E 36 b2 01 0f
        E 36 b2 01 0e
        E 36 b2 01 0d
        E 36 b2 01 0c
        E 36 b2 01 0c
        E 36 b2 01 0b
        E 36 b2 01 0a
        E 36 b2 01 09
        E 36 b2 01 08
        E 36 b2 01 08
        E 36 b2 01 07
        E 36 b2 01 06
        E 36 b2 01 05
        E 36 b2 01 04
        E 36 b2 01 04
        E 36 b2 01 03
        E 36 b2 01 02
        E 36 b2 01 01
        E 36 b2 01 00
        E 36 b2 01 00
        E 20 b2 01 01
        E 20 b2 01 02
        E 20 b2 01 04
        E 20 b2 01 05
        E 20 b2 01 07
        E 20 b2 01 08
        E 20 b2 01 09
        E 20 b2 01 0b
        E 20 b2 01 0c
        E 20 b2 01 0e
        E 20 b2 01 0f
        E 20 b2 01 10
        E 20 b2 01 12
        E 20 b2 01 13
        E 20 b2 01 15
        E 20 b2 01 16
        E 20 b2 01 17
        E 20 b2 01 19
        E 20 b2 01 1a
        E 20 b2 01 1c
        E 20 b2 01 1d
        E 20 b2 01 1e
        E 20 b2 01 20
        E 20 b2 01 21
        E 20 b2 01 23
        E 20 b2 01 24
        E 20 b2 01 25
        E 20 b2 01 27
        E 20 b2 01 28
        E 20 b2 01 2a
        E 20 b2 01 2b
        E 20 b2 01 2c
        E 20 b2 01 2e
        E 20 b2 01 2f
        E 20 b2 01 31
        E 20 b2 01 32
        E 20 b2 01 33
        E 20 b2 01 35
        E 20 b2 01 36
        E 20 b2 01 38
        E 20 b2 01 39
        E 20 b2 01 3a
        E 20 b2 01 3c
        E 20 b2 01 3d
        E 20 b2 01 3e
        E 20 b2 01 40
        E 20 b2 01 41
        E 20 b2 01 43
        E 20 b2 01 44
        E 20 b2 01 46
        E 20 b2 01 47
        E 20 b2 01 48
        E 20 b2 01 4a
        E 20 b2 01 4b
        E 20 b2 01 4d
        E 20 b2 01 4e
        E 20 b2 01 4f
        E 20 b2 01 51
        E 20 b2 01 52
        E 20 b2 01 54
        E 20 b2 01 55
        E 20 b2 01 56
        E 20 b2 01 58
        E 20 b2 01 58
        E 20 b2 01 58
        E 20 b2 01 56
        E 20 b2 01 55
        E 20 b2 01 54
        E 20 b2 01 52
        E 20 b2 01 51
        E 20 b2 01 4f
        E 20 b2 01 4e
        E 20 b2 01 4d
        E 20 b2 01 4b
        E 20 b2 01 4a
        E 20 b2 01 48
        E 20 b2 01 47
        E 20 b2 01 46
        E 20 b2 01 44
        E 20 b2 01 43
        E 20 b2 01 41
        E 20 b2 01 40
        E 20 b2 01 3e
        E 20 b2 01 3d
        E 20 b2 01 3c
        E 20 b2 01 3a
        E 20 b2 01 39
        E 20 b2 01 38
        E 20 b2 01 36
        E 20 b2 01 35
        E 20 b2 01 33
        E 20 b2 01 32
        E 20 b2 01 31
        E 20 b2 01 2f
        E 20 b2 01 2e
        E 20 b2 01 2c
        E 20 b2 01 2b
        E 20 b2 01 2a
        E 20 b2 01 28
        E 20 b2 01 27
        E 20 b2 01 25
        E 20 b2 01 24
        E 20 b2 01 23
        E 20 b2 01 21
        E 20 b2 01 20
        E 20 b2 01 1e
        E 20 b2 01 1d
        E 20 b2 01 1c
        E 20 b2 01 1a
        E 20 b2 01 19
        E 20 b2 01 17
        E 20 b2 01 16
        E 20 b2 01 15
        E 20 b2 01 13
        E 20 b2 01 12
        E 20 b2 01 10
        E 20 b2 01 0f
        E 20 b2 01 0e
        E 20 b2 01 0c
        E 20 b2 01 0b
        E 20 b2 01 09
        E 20 b2 01 08
        E 20 b2 01 07
        E 20 b2 01 05
        E 20 b2 01 04
        E 20 b2 01 02
        E 20 b2 01 01
        E 20 b2 01 00
        E 20 b2 01 01
        E 20 b2 01 02
        E 20 b2 01 03
        E 20 b2 01 04
        E 20 b2 01 05
        E 20 b2 01 06
        E 20 b2 01 07
        E 20 b2 01 08
        E 20 b2 01 09
        E 20 b2 01 0a
        E 20 b2 01 0b
        E 20 b2 01 0c
        E 20 b2 01 0d
        E 20 b2 01 0e
        E 20 b2 01 0f
        E 20 b2 01 10
        E 20 b2 01 11
        E 20 b2 01 12
        E 20 b2 01 13
        E 20 b2 01 14
        E 20 b2 01 15
        E 20 b2 01 16
        E 20 b2 01 17
        E 20 b2 01 18
        E 20 b2 01 19
        E 20 b2 01 1a
        E 20 b2 01 1b
        E 20 b2 01 1c
        E 20 b2 01 1d
        E 20 b2 01 1e
        E 20 b2 01 1f
        E 20 b2 01 20
        E 20 b2 01 21
        E 20 b2 01 22
        E 20 b2 01 23
        E 20 b2 01 24
        E 20 b2 01 25
        E 20 b2 01 26
        E 20 b2 01 27
        E 20 b2 01 28
        E 20 b2 01 29
        E 20 b2 01 2a
        E 20 b2 01 2b
        E 20 b2 01 2c
        E 20 b2 01 2d
        E 20 b2 01 2e
        E 20 b2 01 2f
        E 20 b2 01 30
        E 20 b2 01 31
        E 20 b2 01 32
        E 20 b2 01 33
        E 20 b2 01 34
        E 20 b2 01 35
        E 20 b2 01 36
        E 20 b2 01 37
        E 20 b2 01 38
        E 20 b2 01 39
        E 20 b2 01 3a
        E 20 b2 01 3b
        E 20 b2 01 3c
        E 20 b2 01 3d
        E 20 b2 01 3e
        E 20 b2 01 3f
        E 20 b2 01 3f
        E 20 b2 01 3f
        E 20 b2 01 3e
        E 20 b2 01 3d
        E 20 b2 01 3c
        E 20 b2 01 3b
        E 20 b2 01 3a
        E 20 b2 01 39
        E 20 b2 01 38
        E 20 b2 01 37
        E 20 b2 01 36
        E 20 b2 01 35
        E 20 b2 01 34
        E 20 b2 01 33
        E 20 b2 01 32
        E 20 b2 01 31
        E 20 b2 01 30
        E 20 b2 01 2f
        E 20 b2 01 2e
        E 20 b2 01 2d
        E 20 b2 01 2c
        E 20 b2 01 2b
        E 20 b2 01 2a
        E 20 b2 01 29
        E 20 b2 01 28
        E 20 b2 01 27
        E 20 b2 01 26
        E 20 b2 01 25
        E 20 b2 01 24
        E 20 b2 01 23
        E 20 b2 01 22
        E 20 b2 01 21
        E 20 b2 01 20
        E 20 b2 01 1f
        E 20 b2 01 1e
        E 20 b2 01 1d
        E 20 b2 01 1c
        E 20 b2 01 1b
        E 20 b2 01 1a
        E 20 b2 01 19
        E 20 b2 01 18
        E 20 b2 01 17
        E 20 b2 01 16
        E 20 b2 01 15
        E 20 b2 01 14
        E 20 b2 01 13
        E 20 b2 01 12
        E 20 b2 01 11
        E 20 b2 01 10
        E 20 b2 01 0f
        E 20 b2 01 0e
        E 20 b2 01 0d
        E 20 b2 01 0c
        E 20 b2 01 0b
        E 20 b2 01 0a
        E 20 b2 01 09
        E 20 b2 01 08
        E 20 b2 01 07
        E 20 b2 01 06
        E 20 b2 01 05
        E 20 b2 01 04
        E 20 b2 01 03
        E 20 b2 01 02
        E 20 b2 01 01
        E 20 b2 01 00
        E 28 b2 01 01
        E 28 b2 01 02
        E 28 b2 01 03
        E 28 b2 01 04
        E 28 b2 01 05
        E 28 b2 01 06
        E 28 b2 01 07
        E 28 b2 01 08
        E 28 b2 01 09
        E 28 b2 01 0a
        E 28 b2 01 0b
        E 28 b2 01 0c
        E 28 b2 01 0d
        E 28 b2 01 0e
        E 28 b2 01 0f
        E 28 b2 01 10
        E 28 b2 01 11
        E 28 b2 01 12
        E 28 b2 01 13
        E 28 b2 01 14
        E 28 b2 01 15
        E 28 b2 01 16
        E 28 b2 01 17
        E 28 b2 01 18
        E 28 b2 01 19
        E 28 b2 01 1a
        E 28 b2 01 1b
        E 28 b2 01 1c
        E 28 b2 01 1d
        E 28 b2 01 1e
        E 28 b2 01 1f
        E 28 b2 01 20
        E 28 b2 01 21
        E 28 b2 01 22
        E 28 b2 01 23
        E 28 b2 01 24
        E 28 b2 01 25
        E 28 b2 01 26
        E 28 b2 01 27
        E 28 b2 01 28
        E 28 b2 01 29
        E 28 b2 01 2a
        E 28 b2 01 2b
        E 28 b2 01 2c
        E 28 b2 01 2d
        E 28 b2 01 2e
        E 28 b2 01 2f
        E 28 b2 01 30
        E 28 b2 01 31
        E 28 b2 01 32
        E 28 b2 01 33
        E 28 b2 01 34
        E 28 b2 01 35
        E 28 b2 01 36
        E 28 b2 01 37
        E 28 b2 01 38
        E 28 b2 01 39
        E 28 b2 01 3a
        E 28 b2 01 3b
        E 28 b2 01 3c
        E 28 b2 01 3d
        E 28 b2 01 3e
        E 28 b2 01 3f
        E 28 b2 01 3f
        E 28 b2 01 3f
        E 28 b2 01 3e
        E 28 b2 01 3d
        E 28 b2 01 3c
        E 28 b2 01 3b
        E 28 b2 01 3a
        E 28 b2 01 39
        E 28 b2 01 38
        E 28 b2 01 37
        E 28 b2 01 36
        E 28 b2 01 35
        E 28 b2 01 34
        E 28 b2 01 33
        E 28 b2 01 32
        E 28 b2 01 31
        E 28 b2 01 30
        E 28 b2 01 2f
        E 28 b2 01 2e
        E 28 b2 01 2d
        E 28 b2 01 2c
        E 28 b2 01 2b
        E 28 b2 01 2a
        E 28 b2 01 29
        E 28 b2 01 28
        E 28 b2 01 27
        E 28 b2 01 26
        E 28 b2 01 25
        E 28 b2 01 24
        E 28 b2 01 23
        E 28 b2 01 22
        E 28 b2 01 21
        E 28 b2 01 20
        E 28 b2 01 1f
        E 28 b2 01 1e
        E 28 b2 01 1d
        E 28 b2 01 1c
        E 28 b2 01 1b
        E 28 b2 01 1a
        E 28 b2 01 19
        E 28 b2 01 18
        E 28 b2 01 17
        E 28 b2 01 16
        E 28 b2 01 15
        E 28 b2 01 14
        E 28 b2 01 13
        E 28 b2 01 12
        E 28 b2 01 11
        E 28 b2 01 10
        E 28 b2 01 0f
        E 28 b2 01 0e
        E 28 b2 01 0d
        E 28 b2 01 0c
        E 28 b2 01 0b
        E 28 b2 01 0a
        E 28 b2 01 09
        E 28 b2 01 08
        E 28 b2 01 07
        E 28 b2 01 06
        E 28 b2 01 05
        E 28 b2 01 04
        E 28 b2 01 03
        E 28 b2 01 02
        E 28 b2 01 01
        E 28 b2 01 00
        E 31 b2 01 02
        E 31 b2 01 04
        E 31 b2 01 06
        E 31 b2 01 08
        E 31 b2 01 0a
        E 31 b2 01 0c
        E 31 b2 01 0e
        E 31 b2 01 10
        E 31 b2 01 12
        E 31 b2 01 14
        E 31 b2 01 16
        E 31 b2 01 18
        E 31 b2 01 1a
        E 31 b2 01 1c
        E 31 b2 01 1e
        E 31 b2 01 20
        E 31 b2 01 22
        E 31 b2 01 24
        E 31 b2 01 26
        E 31 b2 01 28
        E 31 b2 01 2a
        E 31 b2 01 2c
        E 31 b2 01 2e
        E 31 b2 01 30
        E 31 b2 01 32
        E 31 b2 01 34
        E 31 b2 01 36
        E 31 b2 01 38
        E 31 b2 01 3a
        E 31 b2 01 3c
        E 31 b2 01 3e
        E 31 b2 01 40
        E 31 b2 01 42
        E 31 b2 01 44
        E 31 b2 01 46
        E 31 b2 01 48
        E 31 b2 01 4a
        E 31 b2 01 4c
        E 31 b2 01 4e
        E 31 b2 01 50
        E 31 b2 01 52
        E 31 b2 01 54
        E 31 b2 01 56
        E 31 b2 01 58
        E 31 b2 01 5a
        E 31 b2 01 5c
        E 31 b2 01 5e
        E 31 b2 01 60
        E 31 b2 01 62
        E 31 b2 01 64
        E 31 b2 01 66
        E 31 b2 01 68
        E 31 b2 01 6a
        E 31 b2 01 6c
        E 31 b2 01 6e
        E 31 b2 01 70
        E 31 b2 01 72
        E 31 b2 01 74
        E 31 b2 01 76
        E 31 b2 01 78
        E 31 b2 01 7a
        E 31 b2 01 7c
        E 31 b2 01 7e
        E 31 b2 01 7f
        E 31 b2 01 7e
        E 31 b2 01 7c
        E 31 b2 01 7a
        E 31 b2 01 78
        E 31 b2 01 76
        E 31 b2 01 74
        E 31 b2 01 72
        E 31 b2 01 70
        E 31 b2 01 6e
        E 31 b2 01 6c
        E 31 b2 01 6a
        E 31 b2 01 68
        E 31 b2 01 66
        E 31 b2 01 64
        E 31 b2 01 62
        E 31 b2 01 60
        E 31 b2 01 5e
        E 31 b2 01 5c
        E 31 b2 01 5a
        E 31 b2 01 58
        E 31 b2 01 56
        E 31 b2 01 54
        E 31 b2 01 52
        E 31 b2 01 50
        E 31 b2 01 4e
        E 31 b2 01 4c
        E 31 b2 01 4a
        E 31 b2 01 48
        E 31 b2 01 46
        E 31 b2 01 44
        E 31 b2 01 42
        E 31 b2 01 40
        E 31 b2 01 3e
        E 31 b2 01 3c
        E 31 b2 01 3a
        E 31 b2 01 38
        E 31 b2 01 36
        E 31 b2 01 34
        E 31 b2 01 32
        E 31 b2 01 30
        E 31 b2 01 2e
        E 31 b2 01 2c
        E 31 b2 01 2a
        E 31 b2 01 28
        E 31 b2 01 26
        E 31 b2 01 24
        E 31 b2 01 22
        E 31 b2 01 20
        E 31 b2 01 1e
        E 31 b2 01 1c
        E 31 b2 01 1a
        E 31 b2 01 18
        E 31 b2 01 16
        E 31 b2 01 14
        E 31 b2 01 12
        E 31 b2 01 10
        E 31 b2 01 0e
        E 31 b2 01 0c
        E 31 b2 01 0a
        E 31 b2 01 08
        E 31 b2 01 06
        E 31 b2 01 04
        E 31 b2 01 02
        E 31 b2 01 00
        E 4 b2 01 01
        E 4 b2 01 03
        E 4 b2 01 05
        E 4 b2 01 07
        E 4 b2 01 09
        E 4 b2 01 0a
        E 4 b2 01 0c
        E 4 b2 01 0e
        E 4 b2 01 10
        E 4 b2 01 12
        E 4 b2 01 13
        E 4 b2 01 15
        E 4 b2 01 17
        E 4 b2 01 19
        E 4 b2 01 1b
        E 4 b2 01 1c
        E 4 b2 01 1e
        E 4 b2 01 20
        E 4 b2 01 22
        E 4 b2 01 24
        E 4 b2 01 25
        E 4 b2 01 27
        E 4 b2 01 29
        E 4 b2 01 2b
        E 4 b2 01 2d
        E 4 b2 01 2e
        E 4 b2 01 30
        E 4 b2 01 32
        E 4 b2 01 34
        E 4 b2 01 36
        E 4 b2 01 37
        E 4 b2 01 39
        E 4 b2 01 3b
        E 4 b2 01 3d
        E 4 b2 01 3f
        E 4 b2 01 40
        E 4 b2 01 42
        E 4 b2 01 44
        E 4 b2 01 46
        E 4 b2 01 48
        E 4 b2 01 49
        E 4 b2 01 4b
        E 4 b2 01 4d
        E 4 b2 01 4f
        E 4 b2 01 51
        E 4 b2 01 52
        E 4 b2 01 54
        E 4 b2 01 56
        E 4 b2 01 58
        E 4 b2 01 5a
        E 4 b2 01 5b
        E 4 b2 01 5d
        E 4 b2 01 5f
        E 4 b2 01 61
        E 4 b2 01 63
        E 4 b2 01 64
        E 4 b2 01 66
        E 4 b2 01 68
        E 4 b2 01 6a
        E 4 b2 01 6c
        E 4 b2 01 6d
        E 4 b2 01 6f
        E 4 b2 01 71
        E 4 b2 01 72
        E 4 b2 01 71
        E 4 b2 01 6f
        E 4 b2 01 6d
        E 4 b2 01 6c
        E 4 b2 01 6a
        E 4 b2 01 68
        E 4 b2 01 66
        E 4 b2 01 64
        E 4 b2 01 63
        E 4 b2 01 61
        E 4 b2 01 5f
        E 4 b2 01 5d
        E 4 b2 01 5b
        E 4 b2 01 5a
        E 4 b2 01 58
        E 4 b2 01 56
        E 4 b2 01 54
        E 4 b2 01 52
        E 4 b2 01 51
        E 4 b2 01 4f
        E 4 b2 01 4d
        E 4 b2 01 4b
        E 4 b2 01 49
        E 4 b2 01 48
        E 4 b2 01 46
        E 4 b2 01 44
        E 4 b2 01 42
        E 4 b2 01 40
        E 4 b2 01 3f
        E 4 b2 01 3d
        E 4 b2 01 3b
        E 4 b2 01 39
        E 4 b2 01 37
        E 4 b2 01 36
        E 4 b2 01 34
        E 4 b2 01 32
        E 4 b2 01 30
        E 4 b2 01 2e
        E 4 b2 01 2d
        E 4 b2 01 2b
        E 4 b2 01 29
        E 4 b2 01 27
        E 4 b2 01 25
        E 4 b2 01 24
        E 4 b2 01 22
        E 4 b2 01 20
        E 4 b2 01 1e
        E 4 b2 01 1c
        E 4 b2 01 1b
        E 4 b2 01 19
        E 4 b2 01 17
        E 4 b2 01 15
        E 4 b2 01 13
        E 4 b2 01 12
        E 4 b2 01 10
        E 4 b2 01 0e
        E 4 b2 01 0c
        E 4 b2 01 0a
        E 4 b2 01 09
        E 4 b2 01 07
        E 4 b2 01 05
        E 4 b2 01 03
        E 4 b2 01 01
        E 4 b2 01 00
        E 16 b2 01 02
        E 16 b2 01 04
        E 16 b2 01 06
        E 16 b2 01 08
        E 16 b2 01 0a
        E 16 b2 01 0c
        E 16 b2 01 0e
        E 16 b2 01 10
        E 16 b2 01 12
        E 16 b2 01 14
        E 16 b2 01 16
        E 16 b2 01 18
        E 16 b2 01 1a
        E 16 b2 01 1c
        E 16 b2 01 1e
        E 16 b2 01 20
        E 16 b2 01 22
        E 16 b2 01 24
        E 16 b2 01 26
        E 16 b2 01 28
        E 16 b2 01 2a
        E 16 b2 01 2c
        E 16 b2 01 2e
        E 16 b2 01 30
        E 16 b2 01 32
        E 16 b2 01 34
        E 16 b2 01 36
        E 16 b2 01 38
        E 16 b2 01 3a
        E 16 b2 01 3c
        E 16 b2 01 3e
        E 16 b2 01 40
        E 16 b2 01 42
        E 16 b2 01 44
        E 16 b2 01 46
        E 16 b2 01 48
        E 16 b2 01 4a
        E 16 b2 01 4c
        E 16 b2 01 4e
        E 16 b2 01 50
        E 16 b2 01 52
        E 16 b2 01 54
        E 16 b2 01 56
        E 16 b2 01 58
        E 16 b2 01 5a
        E 16 b2 01 5c
        E 16 b2 01 5e
        E 16 b2 01 60
        E 16 b2 01 62
        E 16 b2 01 64
        E 16 b2 01 66
        E 16 b2 01 68
        E 16 b2 01 6a
        E 16 b2 01 6c
        E 16 b2 01 6e
        E 16 b2 01 70
        E 16 b2 01 72
        E 16 b2 01 74
        E 16 b2 01 76
        E 16 b2 01 78
        E 16 b2 01 7a
        E 16 b2 01 7c
        E 16 b2 01 7e
        E 16 b2 01 7f
        E 16 b2 01 7e
        E 16 b2 01 7c
        E 16 b2 01 7a
        E 16 b2 01 78
        E 16 b2 01 76
        E 16 b2 01 74
        E 16 b2 01 72
        E 16 b2 01 70
        E 16 b2 01 6e
        E 16 b2 01 6c
        E 16 b2 01 6a
        E 16 b2 01 68
        E 16 b2 01 66
        E 16 b2 01 64
        E 16 b2 01 62
        E 16 b2 01 60
        E 16 b2 01 5e
        E 16 b2 01 5c
        E 16 b2 01 5a
        E 16 b2 01 58
        E 16 b2 01 56
        E 16 b2 01 54
        E 16 b2 01 52
        E 16 b2 01 50
        E 16 b2 01 4e
        E 16 b2 01 4c
        E 16 b2 01 4a
        E 16 b2 01 48
        E 16 b2 01 46
        E 16 b2 01 44
        E 16 b2 01 42
        E 16 b2 01 40
        E 16 b2 01 3e
        E 16 b2 01 3c
        E 16 b2 01 3a
        E 16 b2 01 38
        E 16 b2 01 36
        E 16 b2 01 34
        E 16 b2 01 32
        E 16 b2 01 30
        E 16 b2 01 2e
        E 16 b2 01 2c
        E 16 b2 01 2a
        E 16 b2 01 28
        E 16 b2 01 26
        E 16 b2 01 24
        E 16 b2 01 22
        E 16 b2 01 20
        E 16 b2 01 1e
        E 16 b2 01 1c
        E 16 b2 01 1a
        E 16 b2 01 18
        E 16 b2 01 16
        E 16 b2 01 14
        E 16 b2 01 12
        E 16 b2 01 10
        E 16 b2 01 0e
        E 16 b2 01 0c
        E 16 b2 01 0a
        E 16 b2 01 08
        E 16 b2 01 06
        E 16 b2 01 04
        E 16 b2 01 02
        E 16 b2 01 00
        E 28 b2 01 01
        E 28 b2 01 03
        E 28 b2 01 05
        E 28 b2 01 07
        E 28 b2 01 09
        E 28 b2 01 0a
        E 28 b2 01 0c
        E 28 b2 01 0e
        E 28 b2 01 10
        E 28 b2 01 12
        E 28 b2 01 13
        E 28 b2 01 15
        E 28 b2 01 17
        E 28 b2 01 19
        E 28 b2 01 1b
        E 28 b2 01 1c
        E 28 b2 01 1e
        E 28 b2 01 20
        E 28 b2 01 22
        E 28 b2 01 24
        E 28 b2 01 25
        E 28 b2 01 27
        E 28 b2 01 29
        E 28 b2 01 2b
        E 28 b2 01 2d
        E 28 b2 01 2e
        E 28 b2 01 30
        E 28 b2 01 32
        E 28 b2 01 34
        E 28 b2 01 36
        E 28 b2 01 37
        E 28 b2 01 39
        E 28 b2 01 3b
        E 28 b2 01 3d
        E 28 b2 01 3f
        E 28 b2 01 40
        E 28 b2 01 42
        E 28 b2 01 44
        E 28 b2 01 46
        E 28 b2 01 48
        E 28 b2 01 49
        E 28 b2 01 4b
        E 28 b2 01 4d
        E 28 b2 01 4f
        E 28 b2 01 51
        E 28 b2 01 52
        E 28 b2 01 54
        E 28 b2 01 56
        E 28 b2 01 58
        E 28 b2 01 5a
        E 28 b2 01 5b
        E 28 b2 01 5d
        E 28 b2 01 5f
        E 28 b2 01 61
        E 28 b2 01 63
        E 28 b2 01 64
        E 28 b2 01 66
        E 28 b2 01 68
        E 28 b2 01 6a
        E 28 b2 01 6c
        E 28 b2 01 6d
        E 28 b2 01 6f
        E 28 b2 01 71
        E 28 b2 01 72
        E 28 b2 01 71
        E 28 b2 01 6f
        E 28 b2 01 6d
        E 28 b2 01 6c
        E 28 b2 01 6a
        E 28 b2 01 68
        E 28 b2 01 66
        E 28 b2 01 64
        E 28 b2 01 63
        E 28 b2 01 61
        E 28 b2 01 5f
        E 28 b2 01 5d
        E 28 b2 01 5b
        E 28 b2 01 5a
        E 28 b2 01 58
        E 28 b2 01 56
        E 28 b2 01 54
        E 28 b2 01 52
        E 28 b2 01 51
        E 28 b2 01 4f
        E 28 b2 01 4d
        E 28 b2 01 4b
        E 28 b2 01 49
        E 28 b2 01 48
        E 28 b2 01 46
        E 28 b2 01 44
        E 28 b2 01 42
        E 28 b2 01 40
        E 28 b2 01 3f
        E 28 b2 01 3d
        E 28 b2 01 3b
        E 28 b2 01 39
        E 28 b2 01 37
        E 28 b2 01 36
        E 28 b2 01 34
        E 28 b2 01 32
        E 28 b2 01 30
        E 28 b2 01 2e
        E 28 b2 01 2d
        E 28 b2 01 2b
        E 28 b2 01 29
        E 28 b2 01 27
        E 28 b2 01 25
        E 28 b2 01 24
        E 28 b2 01 22
        E 28 b2 01 20
        E 28 b2 01 1e
        E 28 b2 01 1c
        E 28 b2 01 1b
        E 28 b2 01 19
        E 28 b2 01 17
        E 28 b2 01 15
        E 28 b2 01 13
        E 28 b2 01 12
        E 28 b2 01 10
        E 28 b2 01 0e
        E 28 b2 01 0c
        E 28 b2 01 0a
        E 28 b2 01 09
        E 28 b2 01 07
        E 28 b2 01 05
        E 28 b2 01 03
        E 28 b2 01 01
        E 28 b2 01 00
        E 20 b2 01 01
        E 20 b2 01 02
        E 20 b2 01 03
        E 20 b2 01 04
        E 20 b2 01 05
        E 20 b2 01 06
        E 20 b2 01 07
        E 20 b2 01 08
        E 20 b2 01 09
        E 20 b2 01 0a
        E 20 b2 01 0b
        E 20 b2 01 0c
        E 20 b2 01 0d
        E 20 b2 01 0e
        E 20 b2 01 0f
        E 20 b2 01 10
        E 20 b2 01 11
        E 20 b2 01 12
        E 20 b2 01 13
        E 20 b2 01 14
        E 20 b2 01 15
        E 20 b2 01 16
        E 20 b2 01 17
        E 20 b2 01 18
        E 20 b2 01 19
        E 20 b2 01 1a
        E 20 b2 01 1b
        E 20 b2 01 1c
        E 20 b2 01 1d
        E 20 b2 01 1e
        E 20 b2 01 1f
        E 20 b2 01 20
        E 20 b2 01 21
        E 20 b2 01 22
        E 20 b2 01 23
        E 20 b2 01 24
        E 20 b2 01 25
        E 20 b2 01 26
        E 20 b2 01 27
        E 20 b2 01 28
        E 20 b2 01 29
        E 20 b2 01 2a
        E 20 b2 01 2b
        E 20 b2 01 2c
        E 20 b2 01 2d
        E 20 b2 01 2e
        E 20 b2 01 2f
        E 20 b2 01 30
        E 20 b2 01 31
        E 20 b2 01 32
        E 20 b2 01 33
        E 20 b2 01 34
        E 20 b2 01 35
        E 20 b2 01 36
        E 20 b2 01 37
        E 20 b2 01 38
        E 20 b2 01 39
        E 20 b2 01 3a
        E 20 b2 01 3b
        E 20 b2 01 3c
        E 20 b2 01 3d
        E 20 b2 01 3e
        E 20 b2 01 3f
        E 20 b2 01 3f
        E 20 b2 01 3f
        E 20 b2 01 3e
        E 20 b2 01 3d
        E 20 b2 01 3c
        E 20 b2 01 3b
        E 20 b2 01 3a
        E 20 b2 01 39
        E 20 b2 01 38
        E 20 b2 01 37
        E 20 b2 01 36
        E 20 b2 01 35
        E 20 b2 01 34
        E 20 b2 01 33
        E 20 b2 01 32
        E 20 b2 01 31
        E 20 b2 01 30
        E 20 b2 01 2f
        E 20 b2 01 2e
        E 20 b2 01 2d
        E 20 b2 01 2c
        E 20 b2 01 2b
        E 20 b2 01 2a
        E 20 b2 01 29
        E 20 b2 01 28
        E 20 b2 01 27
        E 20 b2 01 26
        E 20 b2 01 25
        E 20 b2 01 24
        E 20 b2 01 23
        E 20 b2 01 22
        E 20 b2 01 21
        E 20 b2 01 20
        E 20 b2 01 1f
        E 20 b2 01 1e
        E 20 b2 01 1d
        E 20 b2 01 1c
        E 20 b2 01 1b
        E 20 b2 01 1a
        E 20 b2 01 19
        E 20 b2 01 18
        E 20 b2 01 17
        E 20 b2 01 16
        E 20 b2 01 15
        E 20 b2 01 14
        E 20 b2 01 13
        E 20 b2 01 12
        E 20 b2 01 11
        E 20 b2 01 10
        E 20 b2 01 0f
        E 20 b2 01 0e
        E 20 b2 01 0d
        E 20 b2 01 0c
        E 20 b2 01 0b
        E 20 b2 01 0a
        E 20 b2 01 09
        E 20 b2 01 08
        E 20 b2 01 07
        E 20 b2 01 06
        E 20 b2 01 05
        E 20 b2 01 04
        E 20 b2 01 03
        E 20 b2 01 02
        E 20 b2 01 01
        E 20 b2 01 00
        E 20 b2 01 01
        E 20 b2 01 02
        E 20 b2 01 03
        E 20 b2 01 04
        E 20 b2 01 05
        E 20 b2 01 06
        E 20 b2 01 07
        E 20 b2 01 08
        E 20 b2 01 09
        E 20 b2 01 0a
        E 20 b2 01 0b
        E 20 b2 01 0c
        E 20 b2 01 0d
        E 20 b2 01 0e
        E 20 b2 01 0f
        E 20 b2 01 10
        E 20 b2 01 11
        E 20 b2 01 12
        E 20 b2 01 13
        E 20 b2 01 14
        E 20 b2 01 15
        E 20 b2 01 16
        E 20 b2 01 17
        E 20 b2 01 18
        E 20 b2 01 19
        E 20 b2 01 1a
        E 20 b2 01 1b
        E 20 b2 01 1c
        E 20 b2 01 1d
        E 20 b2 01 1e
        E 20 b2 01 1f
        E 20 b2 01 20
        E 20 b2 01 21
        E 20 b2 01 22
        E 20 b2 01 23
        E 20 b2 01 24
        E 20 b2 01 25
        E 20 b2 01 26
        E 20 b2 01 27
        E 20 b2 01 28
        E 20 b2 01 29
        E 20 b2 01 2a
        E 20 b2 01 2b
        E 20 b2 01 2c
        E 20 b2 01 2d
        E 20 b2 01 2e
        E 20 b2 01 2f
        E 20 b2 01 30
        E 20 b2 01 31
        E 20 b2 01 32
        E 20 b2 01 33
        E 20 b2 01 34
        E 20 b2 01 35
        E 20 b2 01 36
        E 20 b2 01 37
        E 20 b2 01 38
        E 20 b2 01 39
        E 20 b2 01 3a
        E 20 b2 01 3b
        E 20 b2 01 3c
        E 20 b2 01 3d
        E 20 b2 01 3e
        E 20 b2 01 3f
        E 20 b2 01 3f
        E 20 b2 01 3f
        E 20 b2 01 3e
        E 20 b2 01 3d
        E 20 b2 01 3c
        E 20 b2 01 3b
        E 20 b2 01 3a
        E 20 b2 01 39
        E 20 b2 01 38
        E 20 b2 01 37
        E 20 b2 01 36
        E 20 b2 01 35
        E 20 b2 01 34
        E 20 b2 01 33
        E 20 b2 01 32
        E 20 b2 01 31
        E 20 b2 01 30
        E 20 b2 01 2f
        E 20 b2 01 2e
        E 20 b2 01 2d
        E 20 b2 01 2c
        E 20 b2 01 2b
        E 20 b2 01 2a
        E 20 b2 01 29
        E 20 b2 01 28
        E 20 b2 01 27
        E 20 b2 01 26
        E 20 b2 01 25
        E 20 b2 01 24
        E 20 b2 01 23
        E 20 b2 01 22
        E 20 b2 01 21
        E 20 b2 01 20
        E 20 b2 01 1f
        E 20 b2 01 1e
        E 20 b2 01 1d
        E 20 b2 01 1c
        E 20 b2 01 1b
        E 20 b2 01 1a
        E 20 b2 01 19
        E 20 b2 01 18
        E 20 b2 01 17
        E 20 b2 01 16
        E 20 b2 01 15
        E 20 b2 01 14
        E 20 b2 01 13
        E 20 b2 01 12
        E 20 b2 01 11
        E 20 b2 01 10
        E 20 b2 01 0f
        E 20 b2 01 0e
        E 20 b2 01 0d
        E 20 b2 01 0c
        E 20 b2 01 0b
        E 20 b2 01 0a
        E 20 b2 01 09
        E 20 b2 01 08
        E 20 b2 01 07
        E 20 b2 01 06
        E 20 b2 01 05
        E 20 b2 01 04
        E 20 b2 01 03
        E 20 b2 01 02
        E 20 b2 01 01
        E 20 b2 01 00
        E 40 b2 01 01
        E 40 b2 01 02
        E 40 b2 01 04
        E 40 b2 01 05
        E 40 b2 01 07
        E 40 b2 01 08
        E 40 b2 01 09
        E 40 b2 01 0b
        E 40 b2 01 0c
        E 40 b2 01 0e
        E 40 b2 01 0f
        E 40 b2 01 10
        E 40 b2 01 12
        E 40 b2 01 13
        E 40 b2 01 15
        E 40 b2 01 16
        E 40 b2 01 17
        E 40 b2 01 19
        E 40 b2 01 1a
        E 40 b2 01 1c
        E 40 b2 01 1d
        E 40 b2 01 1e
        E 40 b2 01 20
        E 40 b2 01 21
        E 40 b2 01 23
        E 40 b2 01 24
        E 40 b2 01 25
        E 40 b2 01 27
        E 40 b2 01 28
        E 40 b2 01 2a
        E 40 b2 01 2b
        E 40 b2 01 2c
        E 40 b2 01 2e
        E 40 b2 01 2f
        E 40 b2 01 31
        E 40 b2 01 32
        E 40 b2 01 33
        E 40 b2 01 35
        E 40 b2 01 36
        E 40 b2 01 38
        E 40 b2 01 39
        E 40 b2 01 3a
        E 40 b2 01 3c
        E 40 b2 01 3d
        E 40 b2 01 3e
        E 40 b2 01 40
        E 40 b2 01 41
        E 40 b2 01 43
        E 40 b2 01 44
        E 40 b2 01 46
        E 40 b2 01 47
        E 40 b2 01 48
        E 40 b2 01 4a
        E 40 b2 01 4b
        E 40 b2 01 4d
        E 40 b2 01 4e
        E 40 b2 01 4f
        E 40 b2 01 51
        E 40 b2 01 52
        E 40 b2 01 54
        E 40 b2 01 55
        E 40 b2 01 56
        E 40 b2 01 58
        E 40 b2 01 58
        E 40 b2 01 58
        E 40 b2 01 56
        E 40 b2 01 55
        E 40 b2 01 54
        E 40 b2 01 52
        E 40 b2 01 51
        E 40 b2 01 4f
        E 40 b2 01 4e
        E 40 b2 01 4d
        E 40 b2 01 4b
        E 40 b2 01 4a
        E 40 b2 01 48
        E 40 b2 01 47
        E 40 b2 01 46
        E 40 b2 01 44
        E 40 b2 01 43
        E 40 b2 01 41
        E 40 b2 01 40
        E 40 b2 01 3e
        E 40 b2 01 3d
        E 40 b2 01 3c
        E 40 b2 01 3a
        E 40 b2 01 39
        E 40 b2 01 38
        E 40 b2 01 36
        E 40 b2 01 35
        E 40 b2 01 33
        E 40 b2 01 32
        E 40 b2 01 31
        E 40 b2 01 2f
        E 40 b2 01 2e
        E 40 b2 01 2c
        E 40 b2 01 2b
        E 40 b2 01 2a
        E 40 b2 01 28
        E 40 b2 01 27
        E 40 b2 01 25
        E 40 b2 01 24
        E 40 b2 01 23
        E 40 b2 01 21
        E 40 b2 01 20
        E 40 b2 01 1e
        E 40 b2 01 1d
        E 40 b2 01 1c
        E 40 b2 01 1a
        E 40 b2 01 19
        E 40 b2 01 17
        E 40 b2 01 16
        E 40 b2 01 15
        E 40 b2 01 13
        E 40 b2 01 12
        E 40 b2 01 10
        E 40 b2 01 0f
        E 40 b2 01 0e
        E 40 b2 01 0c
        E 40 b2 01 0b
        E 40 b2 01 09
        E 40 b2 01 08
        E 40 b2 01 07
        E 40 b2 01 05
        E 40 b2 01 04
        E 40 b2 01 02
        E 40 b2 01 01
        E 40 b2 01 00
        E 36 b2 01 01
        E 36 b2 01 03
        E 36 b2 01 04
        E 36 b2 01 06
        E 36 b2 01 07
        E 36 b2 01 09
        E 36 b2 01 0b
        E 36 b2 01 0c
        E 36 b2 01 0e
        E 36 b2 01 0f
        E 36 b2 01 11
        E 36 b2 01 13
        E 36 b2 01 14
        E 36 b2 01 16
        E 36 b2 01 17
        E 36 b2 01 19
        E 36 b2 01 1b
        E 36 b2 01 1c
        E 36 b2 01 1e
        E 36 b2 01 1f
        E 36 b2 01 21
        E 36 b2 01 23
        E 36 b2 01 24
        E 36 b2 01 26
        E 36 b2 01 28
        E 36 b2 01 29
        E 36 b2 01 2b
        E 36 b2 01 2c
        E 36 b2 01 2e
        E 36 b2 01 2f
        E 36 b2 01 31
        E 36 b2 01 33
        E 36 b2 01 34
        E 36 b2 01 36
        E 36 b2 01 37
        E 36 b2 01 39
        E 36 b2 01 3b
        E 36 b2 01 3c
        E 36 b2 01 3e
        E 36 b2 01 3f
        E 36 b2 01 41
        E 36 b2 01 43
        E 36 b2 01 44
        E 36 b2 01 46
        E 36 b2 01 48
        E 36 b2 01 49
        E 36 b2 01 4b
        E 36 b2 01 4c
        E 36 b2 01 4e
        E 36 b2 01 50
        E 36 b2 01 51
        E 36 b2 01 53
        E 36 b2 01 54
        E 36 b2 01 56
        E 36 b2 01 57
        E 36 b2 01 59
        E 36 b2 01 5b
        E 36 b2 01 5c
        E 36 b2 01 5e
        E 36 b2 01 5f
        E 36 b2 01 61
        E 36 b2 01 63
        E 36 b2 01 64
        E 36 b2 01 65
        E 36 b2 01 64
        E 36 b2 01 63
        E 36 b2 01 61
        E 36 b2 01 5f
        E 36 b2 01 5e
        E 36 b2 01 5c
        E 36 b2 01 5b
        E 36 b2 01 59
        E 36 b2 01 57
        E 36 b2 01 56
        E 36 b2 01 54
        E 36 b2 01 53
        E 36 b2 01 51
        E 36 b2 01 50
        E 36 b2 01 4e
        E 36 b2 01 4c
        E 36 b2 01 4b
        E 36 b2 01 49
        E 36 b2 01 48
        E 36 b2 01 46
        E 36 b2 01 44
        E 36 b2 01 43
        E 36 b2 01 41
        E 36 b2 01 3f
        E 36 b2 01 3e
        E 36 b2 01 3c
        E 36 b2 01 3b
        E 36 b2 01 39
        E 36 b2 01 37
        E 36 b2 01 36
        E 36 b2 01 34
        E 36 b2 01 33
        E 36 b2 01 31
        E 36 b2 01 2f
        E 36 b2 01 2e
        E 36 b2 01 2c
        E 36 b2 01 2b
        E 36 b2 01 29
        E 36 b2 01 28
        E 36 b2 01 26
        E 36 b2 01 24
        E 36 b2 01 23
        E 36 b2 01 21
        E 36 b2 01 1f
        E 36 b2 01 1e
        E 36 b2 01 1c
        E 36 b2 01 1b
        E 36 b2 01 19
        E 36 b2 01 17
        E 36 b2 01 16
        E 36 b2 01 14
        E 36 b2 01 13
        E 36 b2 01 11
        E 36 b2 01 0f
        E 36 b2 01 0e
        E 36 b2 01 0c
        E 36 b2 01 0b
        E 36 b2 01 09
        E 36 b2 01 07
        E 36 b2 01 06
        E 36 b2 01 04
        E 36 b2 01 03
        E 36 b2 01 01
        E 36 b2 01 00
        E 40 b2 01 00
        E 40 b2 01 00
        E 40 b2 01 00
        E 40 b2 01 00
        E 40 b2 01 01
        E 40 b2 01 01
        E 40 b2 01 01
        E 40 b2 01 01
        E 40 b2 01 01
        E 40 b2 01 02
        E 40 b2 01 02
        E 40 b2 01 02
        E 40 b2 01 02
        E 40 b2 01 02
        E 40 b2 01 03
        E 40 b2 01 03
        E 40 b2 01 03
        E 40 b2 01 03
        E 40 b2 01 03
        E 40 b2 01 04
        E 40 b2 01 04
        E 40 b2 01 04
        E 40 b2 01 04
        E 40 b2 01 04
        E 40 b2 01 05
        E 40 b2 01 05
        E 40 b2 01 05
        E 40 b2 01 05
        E 40 b2 01 05
        E 40 b2 01 06
        E 40 b2 01 06
        E 40 b2 01 06
        E 40 b2 01 06
        E 40 b2 01 06
        E 40 b2 01 07
        E 40 b2 01 07
        E 40 b2 01 07
        E 40 b2 01 07
        E 40 b2 01 07
        E 40 b2 01 08
        E 40 b2 01 08
        E 40 b2 01 08
        E 40 b2 01 08
        E 40 b2 01 08
        E 40 b2 01 09
        E 40 b2 01 09
        E 40 b2 01 09
        E 40 b2 01 09
        E 40 b2 01 09
        E 40 b2 01 0a
        E 40 b2 01 0a
        E 40 b2 01 0a
        E 40 b2 01 0a
        E 40 b2 01 0a
        E 40 b2 01 0b
        E 40 b2 01 0b
        E 40 b2 01 0b
        E 40 b2 01 0b
        E 40 b2 01 0b
        E 40 b2 01 0c
        E 40 b2 01 0c
        E 40 b2 01 0c
        E 40 b2 01 0c
        E 40 b2 01 0c
        E 40 b2 01 0c
        E 40 b2 01 0c
        E 40 b2 01 0c
        E 40 b2 01 0c
        E 40 b2 01 0b
        E 40 b2 01 0b
        E 40 b2 01 0b
        E 40 b2 01 0b
        E 40 b2 01 0b
        E 40 b2 01 0a
        E 40 b2 01 0a
        E 40 b2 01 0a
        E 40 b2 01 0a
        E 40 b2 01 0a
        E 40 b2 01 09
        E 40 b2 01 09
        E 40 b2 01 09
        E 40 b2 01 09
        E 40 b2 01 09
        E 40 b2 01 08
        E 40 b2 01 08
        E 40 b2 01 08
        E 40 b2 01 08
        E 40 b2 01 08
        E 40 b2 01 07
        E 40 b2 01 07
        E 40 b2 01 07
        E 40 b2 01 07
        E 40 b2 01 07
        E 40 b2 01 06
        E 40 b2 01 06
        E 40 b2 01 06
        E 40 b2 01 06
        E 40 b2 01 06
        E 40 b2 01 05
        E 40 b2 01 05
        E 40 b2 01 05
        E 40 b2 01 05
        E 40 b2 01 05
        E 40 b2 01 04
        E 40 b2 01 04
        E 40 b2 01 04
        E 40 b2 01 04
        E 40 b2 01 04
        E 40 b2 01 03
        E 40 b2 01 03
        E 40 b2 01 03
        E 40 b2 01 03
        E 40 b2 01 03
        E 40 b2 01 02
        E 40 b2 01 02
        E 40 b2 01 02
        E 40 b2 01 02
        E 40 b2 01 02
        E 40 b2 01 01
        E 40 b2 01 01
        E 40 b2 01 01
        E 40 b2 01 01
        E 40 b2 01 01
        E 40 b2 01 00
        E 40 b2 01 00
        E 40 b2 01 00
        E 40 b2 01 00
        E 40 b2 01 00
        E 36 b2 01 00
        E 36 b2 01 01
        E 36 b2 01 02
        E 36 b2 01 03
        E 36 b2 01 04
        E 36 b2 01 04
        E 36 b2 01 05
        E 36 b2 01 06
        E 36 b2 01 07
        E 36 b2 01 08
        E 36 b2 01 08
        E 36 b2 01 09
        E 36 b2 01 0a
        E 36 b2 01 0b
        E 36 b2 01 0c
        E 36 b2 01 0c
        E 36 b2 01 0d
        E 36 b2 01 0e
        E 36 b2 01 0f
        E 36 b2 01 10
        E 36 b2 01 10
        E 36 b2 01 11
        E 36 b2 01 12
        E 36 b2 01 13
        E 36 b2 01 14
        E 36 b2 01 14
        E 36 b2 01 15
        E 36 b2 01 16
        E 36 b2 01 17
        E 36 b2 01 18
        E 36 b2 01 18
        E 36 b2 01 19
        E 36 b2 01 1a
        E 36 b2 01 1b
        E 36 b2 01 1c
        E 36 b2 01 1c
        E 36 b2 01 1d
        E 36 b2 01 1e
        E 36 b2 01 1f
        E 36 b2 01 20
        E 36 b2 01 20
        E 36 b2 01 21
        E 36 b2 01 22
        E 36 b2 01 23
        E 36 b2 01 24
        E 36 b2 01 24
        E 36 b2 01 25
        E 36 b2 01 26
        E 36 b2 01 27
        E 36 b2 01 28
        E 36 b2 01 28
        E 36 b2 01 29
        E 36 b2 01 2a
        E 36 b2 01 2b
        E 36 b2 01 2c
        E 36 b2 01 2c
        E 36 b2 01 2d
        E 36 b2 01 2e
        E 36 b2 01 2f
        E 36 b2 01 30
        E 36 b2 01 30
        E 36 b2 01 31
        E 36 b2 01 32
        E 36 b2 01 32
        E 36 b2 01 32
        E 36 b2 01 31
        E 36 b2 01 30
        E 36 b2 01 30
        E 36 b2 01 2f
        E 36 b2 01 2e
        E 36 b2 01 2d
        E 36 b2 01 2c
        E 36 b2 01 2c
        E 36 b2 01 2b
        E 36 b2 01 2a
        E 36 b2 01 29
        E 36 b2 01 28
        E 36 b2 01 28
        E 36 b2 01 27
        E 36 b2 01 26
        E 36 b2 01 25
        E 36 b2 01 24
        E 36 b2 01 24
        E 36 b2 01 23
        E 36 b2 01 22
        E 36 b2 01 21
        E 36 b2 01 20
        E 36 b2 01 20
        E 36 b2 01 1f
        E 36 b2 01 1e
        E 36 b2 01 1d
        E 36 b2 01 1c
        E 36 b2 01 1c
        E 36 b2 01 1b
        E 36 b2 01 1a
        E 36 b2 01 19
        E 36 b2 01 18
        E 36 b2 01 18
        E 36 b2 01 17
        E 36 b2 01 16
        E 36 b2 01 15
        E 36 b2 01 14
        E 36 b2 01 14
        E 36 b2 01 13
        E 36 b2 01 12
        E 36 b2 01 11
        E 36 b2 01 10
        E 36 b2 01 10
        E 36 b2 01 0f
        E 36 b2 01 0e
        E 36 b2 01 0d
        E 36 b2 01 0c
        E 36 b2 01 0c
        E 36 b2 01 0b
        E 36 b2 01 0a
        E 36 b2 01 09
        E 36 b2 01 08
        E 36 b2 01 08
        E 36 b2 01 07
        E 36 b2 01 06
        E 36 b2 01 05
        E 36 b2 01 04
        E 36 b2 01 04
        E 36 b2 01 03
        E 36 b2 01 02
        E 36 b2 01 01
        E 36 b2 01 00
        E 36 b2 01 00
        E 20 b2 01 01
        E 20 b2 01 02
        E 20 b2 01 04
        E 20 b2 01 05
        E 20 b2 01 07
        E 20 b2 01 08
        E 20 b2 01 09
        E 20 b2 01 0b
        E 20 b2 01 0c
        E 20 b2 01 0e
        E 20 b2 01 0f
        E 20 b2 01 10
        E 20 b2 01 12
        E 20 b2 01 13
        E 20 b2 01 15
        E 20 b2 01 16
        E 20 b2 01 17
        E 20 b2 01 19
        E 20 b2 01 1a
        E 20 b2 01 1c
        E 20 b2 01 1d
        E 20 b2 01 1e
        E 20 b2 01 20
        E 20 b2 01 21
        E 20 b2 01 23
        E 20 b2 01 24
        E 20 b2 01 25
        E 20 b2 01 27
        E 20 b2 01 28
        E 20 b2 01 2a
        E 20 b2 01 2b
        E 20 b2 01 2c
        E 20 b2 01 2e
        E 20 b2 01 2f
        E 20 b2 01 31
        E 20 b2 01 32
        E 20 b2 01 33
        E 20 b2 01 35
        E 20 b2 01 36
        E 20 b2 01 38
        E 20 b2 01 39
        E 20 b2 01 3a
        E 20 b2 01 3c
        E 20 b2 01 3d
        E 20 b2 01 3e
        E 20 b2 01 40
        E 20 b2 01 41
        E 20 b2 01 43
        E 20 b2 01 44
        E 20 b2 01 46
        E 20 b2 01 47
        E 20 b2 01 48
        E 20 b2 01 4a
        E 20 b2 01 4b
        E 20 b2 01 4d
        E 20 b2 01 4e
        E 20 b2 01 4f
        E 20 b2 01 51
        E 20 b2 01 52
        E 20 b2 01 54
        E 20 b2 01 55
        E 20 b2 01 56
        E 20 b2 01 58
        E 20 b2 01 58
        E 20 b2 01 58
        E 20 b2 01 56
        E 20 b2 01 55
        E 20 b2 01 54
        E 20 b2 01 52
        E 20 b2 01 51
        E 20 b2 01 4f
        E 20 b2 01 4e
        E 20 b2 01 4d
        E 20 b2 01 4b
        E 20 b2 01 4a
        E 20 b2 01 48
        E 20 b2 01 47
        E 20 b2 01 46
        E 20 b2 01 44
        E 20 b2 01 43
        E 20 b2 01 41
        E 20 b2 01 40
        E 20 b2 01 3e
        E 20 b2 01 3d
        E 20 b2 01 3c
        E 20 b2 01 3a
        E 20 b2 01 39
        E 20 b2 01 38
        E 20 b2 01 36
        E 20 b2 01 35
        E 20 b2 01 33
        E 20 b2 01 32
        E 20 b2 01 31
        E 20 b2 01 2f
        E 20 b2 01 2e
        E 20 b2 01 2c
        E 20 b2 01 2b
        E 20 b2 01 2a
        E 20 b2 01 28
        E 20 b2 01 27
        E 20 b2 01 25
        E 20 b2 01 24
        E 20 b2 01 23
        E 20 b2 01 21
        E 20 b2 01 20
        E 20 b2 01 1e
        E 20 b2 01 1d
        E 20 b2 01 1c
        E 20 b2 01 1a
        E 20 b2 01 19
        E 20 b2 01 17
        E 20 b2 01 16
        E 20 b2 01 15
        E 20 b2 01 13
        E 20 b2 01 12
        E 20 b2 01 10
        E 20 b2 01 0f
        E 20 b2 01 0e
        E 20 b2 01 0c
        E 20 b2 01 0b
        E 20 b2 01 09
        E 20 b2 01 08
        E 20 b2 01 07
        E 20 b2 01 05
        E 20 b2 01 04
        E 20 b2 01 02
        E 20 b2 01 01
        E 20 b2 01 00
        E 20 b2 01 01
        E 20 b2 01 02
        E 20 b2 01 03
        E 20 b2 01 04
        E 20 b2 01 05
        E 20 b2 01 06
        E 20 b2 01 07
        E 20 b2 01 08
        E 20 b2 01 09
        E 20 b2 01 0a
        E 20 b2 01 0b
        E 20 b2 01 0c
        E 20 b2 01 0d
        E 20 b2 01 0e
        E 20 b2 01 0f
        E 20 b2 01 10
        E 20 b2 01 11
        E 20 b2 01 12
        E 20 b2 01 13
        E 20 b2 01 14
        E 20 b2 01 15
        E 20 b2 01 16
        E 20 b2 01 17
        E 20 b2 01 18
        E 20 b2 01 19
        E 20 b2 01 1a
        E 20 b2 01 1b
        E 20 b2 01 1c
        E 20 b2 01 1d
        E 20 b2 01 1e
        E 20 b2 01 1f
        E 20 b2 01 20
        E 20 b2 01 21
        E 20 b2 01 22
        E 20 b2 01 23
        E 20 b2 01 24
        E 20 b2 01 25
        E 20 b2 01 26
        E 20 b2 01 27
        E 20 b2 01 28
        E 20 b2 01 29
        E 20 b2 01 2a
        E 20 b2 01 2b
        E 20 b2 01 2c
        E 20 b2 01 2d
        E 20 b2 01 2e
        E 20 b2 01 2f
        E 20 b2 01 30
        E 20 b2 01 31
        E 20 b2 01 32
        E 20 b2 01 33
        E 20 b2 01 34
        E 20 b2 01 35
        E 20 b2 01 36
        E 20 b2 01 37
        E 20 b2 01 38
        E 20 b2 01 39
        E 20 b2 01 3a
        E 20 b2 01 3b
        E 20 b2 01 3c
        E 20 b2 01 3d
        E 20 b2 01 3e
        E 20 b2 01 3f
        E 20 b2 01 3f
        E 20 b2 01 3f
        E 20 b2 01 3e
        E 20 b2 01 3d
        E 20 b2 01 3c
        E 20 b2 01 3b
        E 20 b2 01 3a
        E 20 b2 01 39
        E 20 b2 01 38
        E 20 b2 01 37
        E 20 b2 01 36
        E 20 b2 01 35
        E 20 b2 01 34
        E 20 b2 01 33
        E 20 b2 01 32
        E 20 b2 01 31
        E 20 b2 01 30
        E 20 b2 01 2f
        E 20 b2 01 2e
        E 20 b2 01 2d
        E 20 b2 01 2c
        E 20 b2 01 2b
        E 20 b2 01 2a
        E 20 b2 01 29
        E 20 b2 01 28
        E 20 b2 01 27
        E 20 b2 01 26
        E 20 b2 01 25
        E 20 b2 01 24
        E 20 b2 01 23
        E 20 b2 01 22
        E 20 b2 01 21
        E 20 b2 01 20
        E 20 b2 01 1f
        E 20 b2 01 1e
        E 20 b2 01 1d
        E 20 b2 01 1c
        E 20 b2 01 1b
        E 20 b2 01 1a
        E 20 b2 01 19
        E 20 b2 01 18
        E 20 b2 01 17
        E 20 b2 01 16
        E 20 b2 01 15
        E 20 b2 01 14
        E 20 b2 01 13
        E 20 b2 01 12
        E 20 b2 01 11
        E 20 b2 01 10
        E 20 b2 01 0f
        E 20 b2 01 0e
        E 20 b2 01 0d
        E 20 b2 01 0c
        E 20 b2 01 0b
        E 20 b2 01 0a
        E 20 b2 01 09
        E 20 b2 01 08
        E 20 b2 01 07
        E 20 b2 01 06
        E 20 b2 01 05
        E 20 b2 01 04
        E 20 b2 01 03
        E 20 b2 01 02
        E 20 b2 01 01
        E 20 b2 01 00
        E 1 b2 01 39
        E 1 b2 01 3c
        E 1 b2 01 3f
        E 1 b2 01 41
        E 1 b2 01 44
        E 1 b2 01 47
        E 1 b2 01 49
        E 1 b2 01 4c
        E 1 b2 01 4f
        E 1 b2 01 51
        E 1 b2 01 54
        E 1 b2 01 56
        E 1 b2 01 59
        E 1 b2 01 5b
        E 1 b2 01 5d
        E 1 b2 01 5f
        E 1 b2 01 62
        E 1 b2 01 63
        E 1 b2 01 65
        E 1 b2 01 67
        E 1 b2 01 69
        E 1 b2 01 6a
        E 1 b2 01 6c
        E 1 b2 01 6c
        E 1 b2 01 6d
        E 1 b2 01 6e
        E 1 b2 01 6f
        E 1 b2 01 70
        E 1 b2 01 71
        E 1 b2 01 71
        E 1 b2 01 72
        E 1 b2 01 72
        E 1 b2 01 72
        E 1 b2 01 72
        E 1 b2 01 72
        E 1 b2 01 71
        E 1 b2 01 71
        E 1 b2 01 70
        E 1 b2 01 6f
        E 1 b2 01 6e
        E 1 b2 01 6d
        E 1 b2 01 6c
        E 1 b2 01 6b
        E 1 b2 01 69
        E 1 b2 01 68
        E 1 b2 01 66
        E 1 b2 01 64
        E 1 b2 01 63
        E 1 b2 01 61
        E 1 b2 01 5e
        E 1 b2 01 5c
        E 1 b2 01 5a
        E 1 b2 01 58
        E 1 b2 01 55
        E 1 b2 01 52
        E 1 b2 01 50
        E 1 b2 01 4e
        E 1 b2 01 4b
        E 1 b2 01 48
        E 1 b2 01 46
        E 1 b2 01 42
        E 1 b2 01 3f
        E 1 b2 01 3d
        E 1 b2 01 3a
        E 1 b2 01 37
        E 1 b2 01 35
        E 1 b2 01 32
        E 1 b2 01 2f
        E 1 b2 01 2c
        E 1 b2 01 29
        E 1 b2 01 26
        E 1 b2 01 24
        E 1 b2 01 22
        E 1 b2 01 1f
        E 1 b2 01 1c
        E 1 b2 01 1a
        E 1 b2 01 18
        E 1 b2 01 15
        E 1 b2 01 13
        E 1 b2 01 11
        E 1 b2 01 0f
        E 1 b2 01 0d
        E 1 b2 01 0b
        E 1 b2 01 09
        E 1 b2 01 09
        E 1 b2 01 07
        E 1 b2 01 06
        E 1 b2 01 04
        E 1 b2 01 03
        E 1 b2 01 02
        E 1 b2 01 01
        E 1 b2 01 00
        E 1 b2 01 00
        E 1 b2 01 00
        E 1 b2 01 00
        E 1 b2 01 00
        E 1 b2 01 00
        E 1 b2 01 00
        E 1 b2 01 00
        E 1 b2 01 00
        E 1 b2 01 01
        E 1 b2 01 02
        E 1 b2 01 03
        E 1 b2 01 04
        E 1 b2 01 05
        E 1 b2 01 06
        E 1 b2 01 08
        E 1 b2 01 09
        E 1 b2 01 0a
        E 1 b2 01 0c
        E 1 b2 01 0e
        E 1 b2 01 10
        E 1 b2 01 12
        E 1 b2 01 14
        E 1 b2 01 16
        E 1 b2 01 19
        E 1 b2 01 1b
        E 1 b2 01 1d
        E 1 b2 01 20
        E 1 b2 01 23
        E 1 b2 01 25
        E 1 b2 01 28
        E 1 b2 01 2b
        E 1 b2 01 2d
        E 1 b2 01 30
        E 1 b2 01 33
        E 1 b2 01 36
        E 1 b2 01 39
        E 5 b2 01 40
        E 5 b2 01 43
        E 5 b2 01 46
        E 5 b2 01 49
        E 5 b2 01 4c
        E 5 b2 01 4f
        E 5 b2 01 52
        E 5 b2 01 55
        E 5 b2 01 58
        E 5 b2 01 5b
        E 5 b2 01 5e
        E 5 b2 01 60
        E 5 b2 01 63
        E 5 b2 01 66
        E 5 b2 01 68
        E 5 b2 01 6a
        E 5 b2 01 6d
        E 5 b2 01 6f
        E 5 b2 01 71
        E 5 b2 01 73
        E 5 b2 01 75
        E 5 b2 01 76
        E 5 b2 01 78
        E 5 b2 01 79
        E 5 b2 01 7a
        E 5 b2 01 7b
        E 5 b2 01 7c
        E 5 b2 01 7d
        E 5 b2 01 7e
        E 5 b2 01 7e
        E 5 b2 01 7f
        E 5 b2 01 7f
        E 5 b2 01 7f
        E 5 b2 01 7f
        E 5 b2 01 7f
        E 5 b2 01 7e
        E 5 b2 01 7e
        E 5 b2 01 7d
        E 5 b2 01 7c
        E 5 b2 01 7b
        E 5 b2 01 7a
        E 5 b2 01 78
        E 5 b2 01 77
        E 5 b2 01 75
        E 5 b2 01 74
        E 5 b2 01 72
        E 5 b2 01 70
        E 5 b2 01 6e
        E 5 b2 01 6c
        E 5 b2 01 69
        E 5 b2 01 67
        E 5 b2 01 64
        E 5 b2 01 62
        E 5 b2 01 5f
        E 5 b2 01 5c
        E 5 b2 01 59
        E 5 b2 01 57
        E 5 b2 01 54
        E 5 b2 01 51
        E 5 b2 01 4e
        E 5 b2 01 4a
        E 5 b2 01 47
        E 5 b2 01 44
        E 5 b2 01 41
        E 5 b2 01 3e
        E 5 b2 01 3b
        E 5 b2 01 38
        E 5 b2 01 35
        E 5 b2 01 31
        E 5 b2 01 2e
        E 5 b2 01 2b
        E 5 b2 01 28
        E 5 b2 01 26
        E 5 b2 01 23
        E 5 b2 01 20
        E 5 b2 01 1d
        E 5 b2 01 1b
        E 5 b2 01 18
        E 5 b2 01 16
        E 5 b2 01 13
        E 5 b2 01 11
        E 5 b2 01 0f
        E 5 b2 01 0d
        E 5 b2 01 0b
        E 5 b2 01 0a
        E 5 b2 01 08
        E 5 b2 01 07
        E 5 b2 01 05
        E 5 b2 01 04
        E 5 b2 01 03
        E 5 b2 01 02
        E 5 b2 01 01
        E 5 b2 01 01
        E 5 b2 01 00
        E 5 b2 01 00
        E 5 b2 01 00
        E 5 b2 01 00
        E 5 b2 01 00
        E 5 b2 01 01
        E 5 b2 01 01
        E 5 b2 01 02
        E 5 b2 01 03
        E 5 b2 01 04
        E 5 b2 01 05
        E 5 b2 01 06
        E 5 b2 01 07
        E 5 b2 01 09
        E 5 b2 01 0a
        E 5 b2 01 0c
        E 5 b2 01 0e
        E 5 b2 01 10
        E 5 b2 01 12
        E 5 b2 01 15
        E 5 b2 01 17
        E 5 b2 01 19
        E 5 b2 01 1c
        E 5 b2 01 1f
        E 5 b2 01 21
        E 5 b2 01 24
        E 5 b2 01 27
        E 5 b2 01 2a
        E 5 b2 01 2d
        E 5 b2 01 30
        E 5 b2 01 33
        E 5 b2 01 36
        E 5 b2 01 39
        E 5 b2 01 3c
        E 5 b2 01 40
        E 9 b2 01 39
        E 9 b2 01 3c
        E 9 b2 01 3f
        E 9 b2 01 41
        E 9 b2 01 44
        E 9 b2 01 47
        E 9 b2 01 49
        E 9 b2 01 4c
        E 9 b2 01 4f
        E 9 b2 01 51
        E 9 b2 01 54
        E 9 b2 01 56
        E 9 b2 01 59
        E 9 b2 01 5b
        E 9 b2 01 5d
        E 9 b2 01 5f
        E 9 b2 01 62
        E 9 b2 01 63
        E 9 b2 01 65
        E 9 b2 01 67
        E 9 b2 01 69
        E 9 b2 01 6a
        E 9 b2 01 6c
        E 9 b2 01 6c
        E 9 b2 01 6d
        E 9 b2 01 6e
        E 9 b2 01 6f
        E 9 b2 01 70
        E 9 b2 01 71
        E 9 b2 01 71
        E 9 b2 01 72
        E 9 b2 01 72
        E 9 b2 01 72
        E 9 b2 01 72
        E 9 b2 01 72
        E 9 b2 01 71
        E 9 b2 01 71
        E 9 b2 01 70
        E 9 b2 01 6f
        E 9 b2 01 6e
        E 9 b2 01 6d
        E 9 b2 01 6c
        E 9 b2 01 6b
        E 9 b2 01 69
        E 9 b2 01 68
        E 9 b2 01 66
        E 9 b2 01 64
        E 9 b2 01 63
        E 9 b2 01 61
        E 9 b2 01 5e
        E 9 b2 01 5c
        E 9 b2 01 5a
        E 9 b2 01 58
        E 9 b2 01 55
        E 9 b2 01 52
        E 9 b2 01 50
        E 9 b2 01 4e
        E 9 b2 01 4b
        E 9 b2 01 48
        E 9 b2 01 46
        E 9 b2 01 42
        E 9 b2 01 3f
        E 9 b2 01 3d
        E 9 b2 01 3a
        E 9 b2 01 37
        E 9 b2 01 35
        E 9 b2 01 32
        E 9 b2 01 2f
        E 9 b2 01 2c
        E 9 b2 01 29
        E 9 b2 01 26
        E 9 b2 01 24
        E 9 b2 01 22
        E 9 b2 01 1f
        E 9 b2 01 1c
        E 9 b2 01 1a
        E 9 b2 01 18
        E 9 b2 01 15
        E 9 b2 01 13
        E 9 b2 01 11
        E 9 b2 01 0f
        E 9 b2 01 0d
        E 9 b2 01 0b
        E 9 b2 01 09
        E 9 b2 01 09
        E 9 b2 01 07
        E 9 b2 01 06
        E 9 b2 01 04
        E 9 b2 01 03
        E 9 b2 01 02
        E 9 b2 01 01
        E 9 b2 01 00
        E 9 b2 01 00
        E 9 b2 01 00
        E 9 b2 01 00
        E 9 b2 01 00
        E 9 b2 01 00
        E 9 b2 01 00
        E 9 b2 01 00
        E 9 b2 01 00
        E 9 b2 01 01
        E 9 b2 01 02
        E 9 b2 01 03
        E 9 b2 01 04
        E 9 b2 01 05
        E 9 b2 01 06
        E 9 b2 01 08
        E 9 b2 01 09
        E 9 b2 01 0a
        E 9 b2 01 0c
        E 9 b2 01 0e
        E 9 b2 01 10
        E 9 b2 01 12
        E 9 b2 01 14
        E 9 b2 01 16
        E 9 b2 01 19
        E 9 b2 01 1b
        E 9 b2 01 1d
        E 9 b2 01 20
        E 9 b2 01 23
        E 9 b2 01 25
        E 9 b2 01 28
        E 9 b2 01 2b
        E 9 b2 01 2d
        E 9 b2 01 30
        E 9 b2 01 33
        E 9 b2 01 36
        E 9 b2 01 39
        E 7 b2 01 20
        E 7 b2 01 21
        E 7 b2 01 23
        E 7 b2 01 24
        E 7 b2 01 26
        E 7 b2 01 27
        E 7 b2 01 29
        E 7 b2 01 2a
        E 7 b2 01 2c
        E 7 b2 01 2d
        E 7 b2 01 2f
        E 7 b2 01 30
        E 7 b2 01 31
        E 7 b2 01 33
        E 7 b2 01 34
        E 7 b2 01 35
        E 7 b2 01 36
        E 7 b2 01 37
        E 7 b2 01 38
        E 7 b2 01 39
        E 7 b2 01 3a
        E 7 b2 01 3b
        E 7 b2 01 3c
        E 7 b2 01 3c
        E 7 b2 01 3d
        E 7 b2 01 3d
        E 7 b2 01 3e
        E 7 b2 01 3e
        E 7 b2 01 3f
        E 7 b2 01 3f
        E 7 b2 01 3f
        E 7 b2 01 3f
        E 7 b2 01 3f
        E 7 b2 01 3f
        E 7 b2 01 3f
        E 7 b2 01 3f
        E 7 b2 01 3f
        E 7 b2 01 3e
        E 7 b2 01 3e
        E 7 b2 01 3d
        E 7 b2 01 3d
        E 7 b2 01 3c
        E 7 b2 01 3b
        E 7 b2 01 3a
        E 7 b2 01 3a
        E 7 b2 01 39
        E 7 b2 01 38
        E 7 b2 01 37
        E 7 b2 01 36
        E 7 b2 01 34
        E 7 b2 01 33
        E 7 b2 01 32
        E 7 b2 01 31
        E 7 b2 01 2f
        E 7 b2 01 2e
        E 7 b2 01 2c
        E 7 b2 01 2b
        E 7 b2 01 2a
        E 7 b2 01 28
        E 7 b2 01 27
        E 7 b2 01 25
        E 7 b2 01 23
        E 7 b2 01 22
        E 7 b2 01 20
        E 7 b2 01 1f
        E 7 b2 01 1d
        E 7 b2 01 1c
        E 7 b2 01 1a
        E 7 b2 01 18
        E 7 b2 01 17
        E 7 b2 01 15
        E 7 b2 01 14
        E 7 b2 01 13
        E 7 b2 01 11
        E 7 b2 01 10
        E 7 b2 01 0e
        E 7 b2 01 0d
        E 7 b2 01 0c
        E 7 b2 01 0b
        E 7 b2 01 09
        E 7 b2 01 08
        E 7 b2 01 07
        E 7 b2 01 06
        E 7 b2 01 05
        E 7 b2 01 05
        E 7 b2 01 04
        E 7 b2 01 03
        E 7 b2 01 02
        E 7 b2 01 02
        E 7 b2 01 01
        E 7 b2 01 01
        E 7 b2 01 00
        E 7 b2 01 00
        E 7 b2 01 00
        E 7 b2 01 00
        E 7 b2 01 00
        E 7 b2 01 00
        E 7 b2 01 00
        E 7 b2 01 00
        E 7 b2 01 00
        E 7 b2 01 01
        E 7 b2 01 01
        E 7 b2 01 02
        E 7 b2 01 02
        E 7 b2 01 03
        E 7 b2 01 03
        E 7 b2 01 04
        E 7 b2 01 05
        E 7 b2 01 06
        E 7 b2 01 07
        E 7 b2 01 08
        E 7 b2 01 09
        E 7 b2 01 0a
        E 7 b2 01 0b
        E 7 b2 01 0c
        E 7 b2 01 0e
        E 7 b2 01 0f
        E 7 b2 01 10
        E 7 b2 01 12
        E 7 b2 01 13
        E 7 b2 01 15
        E 7 b2 01 16
        E 7 b2 01 18
        E 7 b2 01 19
        E 7 b2 01 1b
        E 7 b2 01 1c
        E 7 b2 01 1e
        E 7 b2 01 20
        E 7 b2 01 20
        E 7 b2 01 21
        E 7 b2 01 23
        E 7 b2 01 24
        E 7 b2 01 26
        E 7 b2 01 27
        E 7 b2 01 29
        E 7 b2 01 2a
        E 7 b2 01 2c
        E 7 b2 01 2d
        E 7 b2 01 2f
        E 7 b2 01 30
        E 7 b2 01 31
        E 7 b2 01 33
        E 7 b2 01 34
        E 7 b2 01 35
        E 7 b2 01 36
        E 7 b2 01 37
        E 7 b2 01 38
        E 7 b2 01 39
        E 7 b2 01 3a
        E 7 b2 01 3b
        E 7 b2 01 3c
        E 7 b2 01 3c
        E 7 b2 01 3d
        E 7 b2 01 3d
        E 7 b2 01 3e
        E 7 b2 01 3e
        E 7 b2 01 3f
        E 7 b2 01 3f
        E 7 b2 01 3f
        E 7 b2 01 3f
        E 7 b2 01 3f
        E 7 b2 01 3f
        E 7 b2 01 3f
        E 7 b2 01 3f
        E 7 b2 01 3f
        E 7 b2 01 3e
        E 7 b2 01 3e
        E 7 b2 01 3d
        E 7 b2 01 3d
        E 7 b2 01 3c
        E 7 b2 01 3b
        E 7 b2 01 3a
        E 7 b2 01 3a
        E 7 b2 01 39
        E 7 b2 01 38
        E 7 b2 01 37
        E 7 b2 01 36
        E 7 b2 01 34
        E 7 b2 01 33
        E 7 b2 01 32
        E 7 b2 01 31
        E 7 b2 01 2f
        E 7 b2 01 2e
        E 7 b2 01 2c
        E 7 b2 01 2b
        E 7 b2 01 2a
        E 7 b2 01 28
        E 7 b2 01 27
        E 7 b2 01 25
        E 7 b2 01 23
        E 7 b2 01 22
        E 7 b2 01 20
        E 7 b2 01 1f
        E 7 b2 01 1d
        E 7 b2 01 1c
        E 7 b2 01 1a
        E 7 b2 01 18
        E 7 b2 01 17
        E 7 b2 01 15
        E 7 b2 01 14
        E 7 b2 01 13
        E 7 b2 01 11
        E 7 b2 01 10
        E 7 b2 01 0e
        E 7 b2 01 0d
        E 7 b2 01 0c
        E 7 b2 01 0b
        E 7 b2 01 09
        E 7 b2 01 08
        E 7 b2 01 07
        E 7 b2 01 06
        E 7 b2 01 05
        E 7 b2 01 05
        E 7 b2 01 04
        E 7 b2 01 03
        E 7 b2 01 02
        E 7 b2 01 02
        E 7 b2 01 01
        E 7 b2 01 01
        E 7 b2 01 00
        E 7 b2 01 00
        E 7 b2 01 00
        E 7 b2 01 00
        E 7 b2 01 00
        E 7 b2 01 00
        E 7 b2 01 00
        E 7 b2 01 00
        E 7 b2 01 00
        E 7 b2 01 01
        E 7 b2 01 01
        E 7 b2 01 02
        E 7 b2 01 02
        E 7 b2 01 03
        E 7 b2 01 03
        E 7 b2 01 04
        E 7 b2 01 05
        E 7 b2 01 06
        E 7 b2 01 07
        E 7 b2 01 08
        E 7 b2 01 09
        E 7 b2 01 0a
        E 7 b2 01 0b
        E 7 b2 01 0c
        E 7 b2 01 0e
        E 7 b2 01 0f
        E 7 b2 01 10
        E 7 b2 01 12
        E 7 b2 01 13
        E 7 b2 01 15
        E 7 b2 01 16
        E 7 b2 01 18
        E 7 b2 01 19
        E 7 b2 01 1b
        E 7 b2 01 1c
        E 7 b2 01 1e
        E 7 b2 01 20
        E 14 b2 01 2c
        E 14 b2 01 2e
        E 14 b2 01 31
        E 14 b2 01 33
        E 14 b2 01 35
        E 14 b2 01 37
        E 14 b2 01 39
        E 14 b2 01 3b
        E 14 b2 01 3d
        E 14 b2 01 3f
        E 14 b2 01 41
        E 14 b2 01 43
        E 14 b2 01 45
        E 14 b2 01 47
        E 14 b2 01 48
        E 14 b2 01 4a
        E 14 b2 01 4c
        E 14 b2 01 4d
        E 14 b2 01 4f
        E 14 b2 01 50
        E 14 b2 01 51
        E 14 b2 01 52
        E 14 b2 01 54
        E 14 b2 01 54
        E 14 b2 01 55
        E 14 b2 01 56
        E 14 b2 01 56
        E 14 b2 01 57
        E 14 b2 01 58
        E 14 b2 01 58
        E 14 b2 01 58
        E 14 b2 01 58
        E 14 b2 01 58
        E 14 b2 01 58
        E 14 b2 01 58
        E 14 b2 01 58
        E 14 b2 01 58
        E 14 b2 01 57
        E 14 b2 01 56
        E 14 b2 01 56
        E 14 b2 01 55
        E 14 b2 01 54
        E 14 b2 01 53
        E 14 b2 01 51
        E 14 b2 01 51
        E 14 b2 01 4f
        E 14 b2 01 4e
        E 14 b2 01 4d
        E 14 b2 01 4b
        E 14 b2 01 49
        E 14 b2 01 48
        E 14 b2 01 46
        E 14 b2 01 44
        E 14 b2 01 42
        E 14 b2 01 40
        E 14 b2 01 3e
        E 14 b2 01 3c
        E 14 b2 01 3a
        E 14 b2 01 38
        E 14 b2 01 36
        E 14 b2 01 33
        E 14 b2 01 31
        E 14 b2 01 2f
        E 14 b2 01 2d
        E 14 b2 01 2b
        E 14 b2 01 29
        E 14 b2 01 27
        E 14 b2 01 25
        E 14 b2 01 22
        E 14 b2 01 20
        E 14 b2 01 1e
        E 14 b2 01 1c
        E 14 b2 01 1a
        E 14 b2 01 18
        E 14 b2 01 16
        E 14 b2 01 14
        E 14 b2 01 12
        E 14 b2 01 10
        E 14 b2 01 0f
        E 14 b2 01 0d
        E 14 b2 01 0b
        E 14 b2 01 0a
        E 14 b2 01 09
        E 14 b2 01 07
        E 14 b2 01 07
        E 14 b2 01 05
        E 14 b2 01 04
        E 14 b2 01 03
        E 14 b2 01 02
        E 14 b2 01 02
        E 14 b2 01 01
        E 14 b2 01 00
        E 14 b2 01 00
        E 14 b2 01 00
        E 14 b2 01 00
        E 14 b2 01 00
        E 14 b2 01 00
        E 14 b2 01 00
        E 14 b2 01 00
        E 14 b2 01 00
        E 14 b2 01 01
        E 14 b2 01 02
        E 14 b2 01 02
        E 14 b2 01 03
        E 14 b2 01 04
        E 14 b2 01 04
        E 14 b2 01 06
        E 14 b2 01 07
        E 14 b2 01 08
        E 14 b2 01 09
        E 14 b2 01 0b
        E 14 b2 01 0c
        E 14 b2 01 0e
        E 14 b2 01 10
        E 14 b2 01 11
        E 14 b2 01 13
        E 14 b2 01 15
        E 14 b2 01 17
        E 14 b2 01 19
        E 14 b2 01 1b
        E 14 b2 01 1d
        E 14 b2 01 1f
        E 14 b2 01 21
        E 14 b2 01 23
        E 14 b2 01 25
        E 14 b2 01 27
        E 14 b2 01 2a
        E 14 b2 01 2c
        E 12 b2 01 33
        E 12 b2 01 35
        E 12 b2 01 37
        E 12 b2 01 3a
        E 12 b2 01 3c
        E 12 b2 01 3f
        E 12 b2 01 41
        E 12 b2 01 44
        E 12 b2 01 46
        E 12 b2 01 48
        E 12 b2 01 4b
        E 12 b2 01 4c
        E 12 b2 01 4f
        E 12 b2 01 51
        E 12 b2 01 53
        E 12 b2 01 54
        E 12 b2 01 57
        E 12 b2 01 58
        E 12 b2 01 5a
        E 12 b2 01 5b
        E 12 b2 01 5d
        E 12 b2 01 5e
        E 12 b2 01 5f
        E 12 b2 01 60
        E 12 b2 01 61
        E 12 b2 01 62
        E 12 b2 01 63
        E 12 b2 01 63
        E 12 b2 01 64
        E 12 b2 01 64
        E 12 b2 01 65
        E 12 b2 01 65
        E 12 b2 01 65
        E 12 b2 01 65
        E 12 b2 01 65
        E 12 b2 01 64
        E 12 b2 01 64
        E 12 b2 01 63
        E 12 b2 01 63
        E 12 b2 01 62
        E 12 b2 01 61
        E 12 b2 01 5f
        E 12 b2 01 5f
        E 12 b2 01 5d
        E 12 b2 01 5c
        E 12 b2 01 5b
        E 12 b2 01 59
        E 12 b2 01 57
        E 12 b2 01 56
        E 12 b2 01 54
        E 12 b2 01 52
        E 12 b2 01 50
        E 12 b2 01 4e
        E 12 b2 01 4c
        E 12 b2 01 49
        E 12 b2 01 47
        E 12 b2 01 45
        E 12 b2 01 43
        E 12 b2 01 40
        E 12 b2 01 3e
        E 12 b2 01 3b
        E 12 b2 01 38
        E 12 b2 01 36
        E 12 b2 01 33
        E 12 b2 01 31
        E 12 b2 01 2f
        E 12 b2 01 2c
        E 12 b2 01 2a
        E 12 b2 01 27
        E 12 b2 01 24
        E 12 b2 01 22
        E 12 b2 01 1f
        E 12 b2 01 1e
        E 12 b2 01 1b
        E 12 b2 01 19
        E 12 b2 01 17
        E 12 b2 01 15
        E 12 b2 01 13
        E 12 b2 01 11
        E 12 b2 01 0f
        E 12 b2 01 0d
        E 12 b2 01 0b
        E 12 b2 01 0a
        E 12 b2 01 08
        E 12 b2 01 07
        E 12 b2 01 06
        E 12 b2 01 05
        E 12 b2 01 03
        E 12 b2 01 03
        E 12 b2 01 02
        E 12 b2 01 01
        E 12 b2 01 00
        E 12 b2 01 00
        E 12 b2 01 00
        E 12 b2 01 00
        E 12 b2 01 00
        E 12 b2 01 00
        E 12 b2 01 00
        E 12 b2 01 00
        E 12 b2 01 00
        E 12 b2 01 01
        E 12 b2 01 02
        E 12 b2 01 03
        E 12 b2 01 03
        E 12 b2 01 04
        E 12 b2 01 05
        E 12 b2 01 07
        E 12 b2 01 07
        E 12 b2 01 09
        E 12 b2 01 0b
        E 12 b2 01 0c
        E 12 b2 01 0e
        E 12 b2 01 10
        E 12 b2 01 12
        E 12 b2 01 14
        E 12 b2 01 16
        E 12 b2 01 18
        E 12 b2 01 1a
        E 12 b2 01 1c
        E 12 b2 01 1f
        E 12 b2 01 21
        E 12 b2 01 24
        E 12 b2 01 26
        E 12 b2 01 28
        E 12 b2 01 2b
        E 12 b2 01 2d
        E 12 b2 01 2f
        E 12 b2 01 33
        E 14 b2 01 06
        E 14 b2 01 06
        E 14 b2 01 07
        E 14 b2 01 07
        E 14 b2 01 07
        E 14 b2 01 07
        E 14 b2 01 08
        E 14 b2 01 08
        E 14 b2 01 08
        E 14 b2 01 09
        E 14 b2 01 09
        E 14 b2 01 09
        E 14 b2 01 09
        E 14 b2 01 0a
        E 14 b2 01 0a
        E 14 b2 01 0a
        E 14 b2 01 0a
        E 14 b2 01 0b
        E 14 b2 01 0b
        E 14 b2 01 0b
        E 14 b2 01 0b
        E 14 b2 01 0b
        E 14 b2 01 0c
        E 14 b2 01 0c
        E 14 b2 01 0c
        E 14 b2 01 0c
        E 14 b2 01 0c
        E 14 b2 01 0c
        E 14 b2 01 0c
        E 14 b2 01 0c
        E 14 b2 01 0c
        E 14 b2 01 0c
        E 14 b2 01 0c
        E 14 b2 01 0c
        E 14 b2 01 0c
        E 14 b2 01 0c
        E 14 b2 01 0c
        E 14 b2 01 0c
        E 14 b2 01 0c
        E 14 b2 01 0c
        E 14 b2 01 0c
        E 14 b2 01 0c
        E 14 b2 01 0b
        E 14 b2 01 0b
        E 14 b2 01 0b
        E 14 b2 01 0b
        E 14 b2 01 0b
        E 14 b2 01 0b
        E 14 b2 01 0a
        E 14 b2 01 0a
        E 14 b2 01 0a
        E 14 b2 01 0a
        E 14 b2 01 09
        E 14 b2 01 09
        E 14 b2 01 09
        E 14 b2 01 08
        E 14 b2 01 08
        E 14 b2 01 08
        E 14 b2 01 08
        E 14 b2 01 07
        E 14 b2 01 07
        E 14 b2 01 07
        E 14 b2 01 06
        E 14 b2 01 06
        E 14 b2 01 06
        E 14 b2 01 05
        E 14 b2 01 05
        E 14 b2 01 05
        E 14 b2 01 04
        E 14 b2 01 04
        E 14 b2 01 04
        E 14 b2 01 04
        E 14 b2 01 03
        E 14 b2 01 03
        E 14 b2 01 03
        E 14 b2 01 02
        E 14 b2 01 02
        E 14 b2 01 02
        E 14 b2 01 02
        E 14 b2 01 01
        E 14 b2 01 01
        E 14 b2 01 01
        E 14 b2 01 01
        E 14 b2 01 01
        E 14 b2 01 01
        E 14 b2 01 00
        E 14 b2 01 00
        E 14 b2 01 00
        E 14 b2 01 00
        E 14 b2 01 00
        E 14 b2 01 00
        E 14 b2 01 00
        E 14 b2 01 00
        E 14 b2 01 00
        E 14 b2 01 00
        E 14 b2 01 00
        E 14 b2 01 00
        E 14 b2 01 00
        E 14 b2 01 00
        E 14 b2 01 00
        E 14 b2 01 00
        E 14 b2 01 00
        E 14 b2 01 00
        E 14 b2 01 00
        E 14 b2 01 00
        E 14 b2 01 00
        E 14 b2 01 00
        E 14 b2 01 01
        E 14 b2 01 01
        E 14 b2 01 01
        E 14 b2 01 01
        E 14 b2 01 01
        E 14 b2 01 02
        E 14 b2 01 02
        E 14 b2 01 02
        E 14 b2 01 02
        E 14 b2 01 03
        E 14 b2 01 03
        E 14 b2 01 03
        E 14 b2 01 03
        E 14 b2 01 04
        E 14 b2 01 04
        E 14 b2 01 04
        E 14 b2 01 05
        E 14 b2 01 05
        E 14 b2 01 05
        E 14 b2 01 06
        E 14 b2 01 06
        E 12 b2 01 19
        E 12 b2 01 1a
        E 12 b2 01 1c
        E 12 b2 01 1d
        E 12 b2 01 1e
        E 12 b2 01 1f
        E 12 b2 01 20
        E 12 b2 01 22
        E 12 b2 01 23
        E 12 b2 01 24
        E 12 b2 01 25
        E 12 b2 01 26
        E 12 b2 01 27
        E 12 b2 01 28
        E 12 b2 01 29
        E 12 b2 01 2a
        E 12 b2 01 2b
        E 12 b2 01 2c
        E 12 b2 01 2d
        E 12 b2 01 2e
        E 12 b2 01 2e
        E 12 b2 01 2f
        E 12 b2 01 30
        E 12 b2 01 30
        E 12 b2 01 30
        E 12 b2 01 31
        E 12 b2 01 31
        E 12 b2 01 32
        E 12 b2 01 32
        E 12 b2 01 32
        E 12 b2 01 32
        E 12 b2 01 32
        E 12 b2 01 32
        E 12 b2 01 32
        E 12 b2 01 32
        E 12 b2 01 32
        E 12 b2 01 32
        E 12 b2 01 32
        E 12 b2 01 31
        E 12 b2 01 31
        E 12 b2 01 30
        E 12 b2 01 30
        E 12 b2 01 2f
        E 12 b2 01 2e
        E 12 b2 01 2e
        E 12 b2 01 2d
        E 12 b2 01 2c
        E 12 b2 01 2c
        E 12 b2 01 2b
        E 12 b2 01 2a
        E 12 b2 01 29
        E 12 b2 01 28
        E 12 b2 01 27
        E 12 b2 01 26
        E 12 b2 01 24
        E 12 b2 01 23
        E 12 b2 01 22
        E 12 b2 01 21
        E 12 b2 01 20
        E 12 b2 01 1f
        E 12 b2 01 1d
        E 12 b2 01 1c
        E 12 b2 01 1b
        E 12 b2 01 1a
        E 12 b2 01 18
        E 12 b2 01 17
        E 12 b2 01 16
        E 12 b2 01 15
        E 12 b2 01 13
        E 12 b2 01 12
        E 12 b2 01 11
        E 12 b2 01 10
        E 12 b2 01 0f
        E 12 b2 01 0e
        E 12 b2 01 0c
        E 12 b2 01 0b
        E 12 b2 01 0a
        E 12 b2 01 09
        E 12 b2 01 08
        E 12 b2 01 07
        E 12 b2 01 06
        E 12 b2 01 06
        E 12 b2 01 05
        E 12 b2 01 04
        E 12 b2 01 04
        E 12 b2 01 03
        E 12 b2 01 02
        E 12 b2 01 02
        E 12 b2 01 01
        E 12 b2 01 01
        E 12 b2 01 00
        E 12 b2 01 00
        E 12 b2 01 00
        E 12 b2 01 00
        E 12 b2 01 00
        E 12 b2 01 00
        E 12 b2 01 00
        E 12 b2 01 00
        E 12 b2 01 00
        E 12 b2 01 00
        E 12 b2 01 00
        E 12 b2 01 01
        E 12 b2 01 01
        E 12 b2 01 02
        E 12 b2 01 02
        E 12 b2 01 02
        E 12 b2 01 03
        E 12 b2 01 04
        E 12 b2 01 04
        E 12 b2 01 05
        E 12 b2 01 06
        E 12 b2 01 07
        E 12 b2 01 08
        E 12 b2 01 09
        E 12 b2 01 0a
        E 12 b2 01 0b
        E 12 b2 01 0c
        E 12 b2 01 0d
        E 12 b2 01 0e
        E 12 b2 01 0f
        E 12 b2 01 10
        E 12 b2 01 12
        E 12 b2 01 13
        E 12 b2 01 14
        E 12 b2 01 15
        E 12 b2 01 16
        E 12 b2 01 18
        E 12 b2 01 19
        E 7 b2 01 2c
        E 7 b2 01 2e
        E 7 b2 01 31
        E 7 b2 01 33
        E 7 b2 01 35
        E 7 b2 01 37
        E 7 b2 01 39
        E 7 b2 01 3b
        E 7 b2 01 3d
        E 7 b2 01 3f
        E 7 b2 01 41
        E 7 b2 01 43
        E 7 b2 01 45
        E 7 b2 01 47
        E 7 b2 01 48
        E 7 b2 01 4a
        E 7 b2 01 4c
        E 7 b2 01 4d
        E 7 b2 01 4f
        E 7 b2 01 50
        E 7 b2 01 51
        E 7 b2 01 52
        E 7 b2 01 54
        E 7 b2 01 54
        E 7 b2 01 55
        E 7 b2 01 56
        E 7 b2 01 56
        E 7 b2 01 57
        E 7 b2 01 58
        E 7 b2 01 58
        E 7 b2 01 58
        E 7 b2 01 58
        E 7 b2 01 58
        E 7 b2 01 58
        E 7 b2 01 58
        E 7 b2 01 58
        E 7 b2 01 58
        E 7 b2 01 57
        E 7 b2 01 56
        E 7 b2 01 56
        E 7 b2 01 55
        E 7 b2 01 54
        E 7 b2 01 53
        E 7 b2 01 51
        E 7 b2 01 51
        E 7 b2 01 4f
        E 7 b2 01 4e
        E 7 b2 01 4d
        E 7 b2 01 4b
        E 7 b2 01 49
        E 7 b2 01 48
        E 7 b2 01 46
        E 7 b2 01 44
        E 7 b2 01 42
        E 7 b2 01 40
        E 7 b2 01 3e
        E 7 b2 01 3c
        E 7 b2 01 3a
        E 7 b2 01 38
        E 7 b2 01 36
        E 7 b2 01 33
        E 7 b2 01 31
        E 7 b2 01 2f
        E 7 b2 01 2d
        E 7 b2 01 2b
        E 7 b2 01 29
        E 7 b2 01 27
        E 7 b2 01 25
        E 7 b2 01 22
        E 7 b2 01 20
        E 7 b2 01 1e
        E 7 b2 01 1c
        E 7 b2 01 1a
        E 7 b2 01 18
        E 7 b2 01 16
        E 7 b2 01 14
        E 7 b2 01 12
        E 7 b2 01 10
        E 7 b2 01 0f
        E 7 b2 01 0d
        E 7 b2 01 0b
        E 7 b2 01 0a
        E 7 b2 01 09
        E 7 b2 01 07
        E 7 b2 01 07
        E 7 b2 01 05
        E 7 b2 01 04
        E 7 b2 01 03
        E 7 b2 01 02
        E 7 b2 01 02
        E 7 b2 01 01
        E 7 b2 01 00
        E 7 b2 01 00
        E 7 b2 01 00
        E 7 b2 01 00
        E 7 b2 01 00
        E 7 b2 01 00
        E 7 b2 01 00
        E 7 b2 01 00
        E 7 b2 01 00
        E 7 b2 01 01
        E 7 b2 01 02
        E 7 b2 01 02
        E 7 b2 01 03
        E 7 b2 01 04
        E 7 b2 01 04
        E 7 b2 01 06
        E 7 b2 01 07
        E 7 b2 01 08
        E 7 b2 01 09
        E 7 b2 01 0b
        E 7 b2 01 0c
        E 7 b2 01 0e
        E 7 b2 01 10
        E 7 b2 01 11
        E 7 b2 01 13
        E 7 b2 01 15
        E 7 b2 01 17
        E 7 b2 01 19
        E 7 b2 01 1b
        E 7 b2 01 1d
        E 7 b2 01 1f
        E 7 b2 01 21
        E 7 b2 01 23
        E 7 b2 01 25
        E 7 b2 01 27
        E 7 b2 01 2a
        E 7 b2 01 2c
        E 7 b2 01 20
        E 7 b2 01 21
        E 7 b2 01 23
        E 7 b2 01 24
        E 7 b2 01 26
        E 7 b2 01 27
        E 7 b2 01 29
        E 7 b2 01 2a
        E 7 b2 01 2c
        E 7 b2 01 2d
        E 7 b2 01 2f
        E 7 b2 01 30
        E 7 b2 01 31
        E 7 b2 01 33
        E 7 b2 01 34
        E 7 b2 01 35
        E 7 b2 01 36
        E 7 b2 01 37
        E 7 b2 01 38
        E 7 b2 01 39
        E 7 b2 01 3a
        E 7 b2 01 3b
        E 7 b2 01 3c
        E 7 b2 01 3c
        E 7 b2 01 3d
        E 7 b2 01 3d
        E 7 b2 01 3e
        E 7 b2 01 3e
        E 7 b2 01 3f
        E 7 b2 01 3f
        E 7 b2 01 3f
        E 7 b2 01 3f
        E 7 b2 01 3f
        E 7 b2 01 3f
        E 7 b2 01 3f
        E 7 b2 01 3f
        E 7 b2 01 3f
        E 7 b2 01 3e
        E 7 b2 01 3e
        E 7 b2 01 3d
        E 7 b2 01 3d
        E 7 b2 01 3c
        E 7 b2 01 3b
        E 7 b2 01 3a
        E 7 b2 01 3a
        E 7 b2 01 39
        E 7 b2 01 38
        E 7 b2 01 37
        E 7 b2 01 36
        E 7 b2 01 34
        E 7 b2 01 33
        E 7 b2 01 32
        E 7 b2 01 31
        E 7 b2 01 2f
        E 7 b2 01 2e
        E 7 b2 01 2c
        E 7 b2 01 2b
        E 7 b2 01 2a
        E 7 b2 01 28
        E 7 b2 01 27
        E 7 b2 01 25
        E 7 b2 01 23
        E 7 b2 01 22
        E 7 b2 01 20
        E 7 b2 01 1f
        E 7 b2 01 1d
        E 7 b2 01 1c
        E 7 b2 01 1a
        E 7 b2 01 18
        E 7 b2 01 17
        E 7 b2 01 15
        E 7 b2 01 14
        E 7 b2 01 13
        E 7 b2 01 11
        E 7 b2 01 10
        E 7 b2 01 0e
        E 7 b2 01 0d
        E 7 b2 01 0c
        E 7 b2 01 0b
        E 7 b2 01 09
        E 7 b2 01 08
        E 7 b2 01 07
        E 7 b2 01 06
        E 7 b2 01 05
        E 7 b2 01 05
        E 7 b2 01 04
        E 7 b2 01 03
        E 7 b2 01 02
        E 7 b2 01 02
        E 7 b2 01 01
        E 7 b2 01 01
        E 7 b2 01 00
        E 7 b2 01 00
        E 7 b2 01 00
        E 7 b2 01 00
        E 7 b2 01 00
        E 7 b2 01 00
        E 7 b2 01 00
        E 7 b2 01 00
        E 7 b2 01 00
        E 7 b2 01 01
        E 7 b2 01 01
        E 7 b2 01 02
        E 7 b2 01 02
        E 7 b2 01 03
        E 7 b2 01 03
        E 7 b2 01 04
        E 7 b2 01 05
        E 7 b2 01 06
        E 7 b2 01 07
        E 7 b2 01 08
        E 7 b2 01 09
        E 7 b2 01 0a
        E 7 b2 01 0b
        E 7 b2 01 0c
        E 7 b2 01 0e
        E 7 b2 01 0f
        E 7 b2 01 10
        E 7 b2 01 12
        E 7 b2 01 13
        E 7 b2 01 15
        E 7 b2 01 16
        E 7 b2 01 18
        E 7 b2 01 19
        E 7 b2 01 1b
        E 7 b2 01 1c
        E 7 b2 01 1e
        E 7 b2 01 20
        E 9 b2 01 20
        E 9 b2 01 21
        E 9 b2 01 23
        E 9 b2 01 24
        E 9 b2 01 26
        E 9 b2 01 27
        E 9 b2 01 29
        E 9 b2 01 2a
        E 9 b2 01 2c
        E 9 b2 01 2d
        E 9 b2 01 2f
        E 9 b2 01 30
        E 9 b2 01 31
        E 9 b2 01 33
        E 9 b2 01 34
        E 9 b2 01 35
        E 9 b2 01 36
        E 9 b2 01 37
        E 9 b2 01 38
        E 9 b2 01 39
        E 9 b2 01 3a
        E 9 b2 01 3b
        E 9 b2 01 3c
        E 9 b2 01 3c
        E 9 b2 01 3d
        E 9 b2 01 3d
        E 9 b2 01 3e
        E 9 b2 01 3e
        E 9 b2 01 3f
        E 9 b2 01 3f
        E 9 b2 01 3f
        E 9 b2 01 3f
        E 9 b2 01 3f
        E 9 b2 01 3f
        E 9 b2 01 3f
        E 9 b2 01 3f
        E 9 b2 01 3f
        E 9 b2 01 3e
        E 9 b2 01 3e
        E 9 b2 01 3d
        E 9 b2 01 3d
        E 9 b2 01 3c
        E 9 b2 01 3b
        E 9 b2 01 3a
        E 9 b2 01 3a
        E 9 b2 01 39
        E 9 b2 01 38
        E 9 b2 01 37
        E 9 b2 01 36
        E 9 b2 01 34
        E 9 b2 01 33
        E 9 b2 01 32
        E 9 b2 01 31
        E 9 b2 01 2f
        E 9 b2 01 2e
        E 9 b2 01 2c
        E 9 b2 01 2b
        E 9 b2 01 2a
        E 9 b2 01 28
        E 9 b2 01 27
        E 9 b2 01 25
        E 9 b2 01 23
        E 9 b2 01 22
        E 9 b2 01 20
        E 9 b2 01 1f
        E 9 b2 01 1d
        E 9 b2 01 1c
        E 9 b2 01 1a
        E 9 b2 01 18
        E 9 b2 01 17
        E 9 b2 01 15
        E 9 b2 01 14
        E 9 b2 01 13
        E 9 b2 01 11
        E 9 b2 01 10
        E 9 b2 01 0e
        E 9 b2 01 0d
        E 9 b2 01 0c
        E 9 b2 01 0b
        E 9 b2 01 09
        E 9 b2 01 08
        E 9 b2 01 07
        E 9 b2 01 06
        E 9 b2 01 05
        E 9 b2 01 05
        E 9 b2 01 04
        E 9 b2 01 03
        E 9 b2 01 02
        E 9 b2 01 02
        E 9 b2 01 01
        E 9 b2 01 01
        E 9 b2 01 00
        E 9 b2 01 00
        E 9 b2 01 00
        E 9 b2 01 00
        E 9 b2 01 00
        E 9 b2 01 00
        E 9 b2 01 00
        E 9 b2 01 00
        E 9 b2 01 00
        E 9 b2 01 01
        E 9 b2 01 01
        E 9 b2 01 02
        E 9 b2 01 02
        E 9 b2 01 03
        E 9 b2 01 03
        E 9 b2 01 04
        E 9 b2 01 05
        E 9 b2 01 06
        E 9 b2 01 07
        E 9 b2 01 08
        E 9 b2 01 09
        E 9 b2 01 0a
        E 9 b2 01 0b
        E 9 b2 01 0c
        E 9 b2 01 0e
        E 9 b2 01 0f
        E 9 b2 01 10
        E 9 b2 01 12
        E 9 b2 01 13
        E 9 b2 01 15
        E 9 b2 01 16
        E 9 b2 01 18
        E 9 b2 01 19
        E 9 b2 01 1b
        E 9 b2 01 1c
        E 9 b2 01 1e
        E 9 b2 01 20
        E 11 b2 01 40
        E 11 b2 01 43
        E 11 b2 01 46
        E 11 b2 01 49
        E 11 b2 01 4c
        E 11 b2 01 4f
        E 11 b2 01 52
        E 11 b2 01 55
        E 11 b2 01 58
        E 11 b2 01 5b
        E 11 b2 01 5e
        E 11 b2 01 60
        E 11 b2 01 63
        E 11 b2 01 66
        E 11 b2 01 68
        E 11 b2 01 6a
        E 11 b2 01 6d
        E 11 b2 01 6f
        E 11 b2 01 71
        E 11 b2 01 73
        E 11 b2 01 75
        E 11 b2 01 76
        E 11 b2 01 78
        E 11 b2 01 79
        E 11 b2 01 7a
        E 11 b2 01 7b
        E 11 b2 01 7c
        E 11 b2 01 7d
        E 11 b2 01 7e
        E 11 b2 01 7e
        E 11 b2 01 7f
        E 11 b2 01 7f
        E 11 b2 01 7f
        E 11 b2 01 7f
        E 11 b2 01 7f
        E 11 b2 01 7e
        E 11 b2 01 7e
        E 11 b2 01 7d
        E 11 b2 01 7c
        E 11 b2 01 7b
        E 11 b2 01 7a
        E 11 b2 01 78
        E 11 b2 01 77
        E 11 b2 01 75
        E 11 b2 01 74
        E 11 b2 01 72
        E 11 b2 01 70
        E 11 b2 01 6e
        E 11 b2 01 6c
        E 11 b2 01 69
        E 11 b2 01 67
        E 11 b2 01 64
        E 11 b2 01 62
        E 11 b2 01 5f
        E 11 b2 01 5c
        E 11 b2 01 59
        E 11 b2 01 57
        E 11 b2 01 54
        E 11 b2 01 51
        E 11 b2 01 4e
        E 11 b2 01 4a
        E 11 b2 01 47
        E 11 b2 01 44
        E 11 b2 01 41
        E 11 b2 01 3e
        E 11 b2 01 3b
        E 11 b2 01 38
        E 11 b2 01 35
        E 11 b2 01 31
        E 11 b2 01 2e
        E 11 b2 01 2b
        E 11 b2 01 28
        E 11 b2 01 26
        E 11 b2 01 23
        E 11 b2 01 20
        E 11 b2 01 1d
        E 11 b2 01 1b
        E 11 b2 01 18
        E 11 b2 01 16
        E 11 b2 01 13
        E 11 b2 01 11
        E 11 b2 01 0f
        E 11 b2 01 0d
        E 11 b2 01 0b
        E 11 b2 01 0a
        E 11 b2 01 08
        E 11 b2 01 07
        E 11 b2 01 05
        E 11 b2 01 04
        E 11 b2 01 03
        E 11 b2 01 02
        E 11 b2 01 01
        E 11 b2 01 01
        E 11 b2 01 00
        E 11 b2 01 00
        E 11 b2 01 00
        E 11 b2 01 00
        E 11 b2 01 00
        E 11 b2 01 01
        E 11 b2 01 01
        E 11 b2 01 02
        E 11 b2 01 03
        E 11 b2 01 04
        E 11 b2 01 05
        E 11 b2 01 06
        E 11 b2 01 07
        E 11 b2 01 09
        E 11 b2 01 0a
        E 11 b2 01 0c
        E 11 b2 01 0e
        E 11 b2 01 10
        E 11 b2 01 12
        E 11 b2 01 15
        E 11 b2 01 17
        E 11 b2 01 19
        E 11 b2 01 1c
        E 11 b2 01 1f
        E 11 b2 01 21
        E 11 b2 01 24
        E 11 b2 01 27
        E 11 b2 01 2a
        E 11 b2 01 2d
        E 11 b2 01 30
        E 11 b2 01 33
        E 11 b2 01 36
        E 11 b2 01 39
        E 11 b2 01 3c
        E 11 b2 01 40
        E 1 b2 01 39
        E 1 b2 01 3c
        E 1 b2 01 3f
        E 1 b2 01 41
        E 1 b2 01 44
        E 1 b2 01 47
        E 1 b2 01 49
        E 1 b2 01 4c
        E 1 b2 01 4f
        E 1 b2 01 51
        E 1 b2 01 54
        E 1 b2 01 56
        E 1 b2 01 59
        E 1 b2 01 5b
        E 1 b2 01 5d
        E 1 b2 01 5f
        E 1 b2 01 62
        E 1 b2 01 63
        E 1 b2 01 65
        E 1 b2 01 67
        E 1 b2 01 69
        E 1 b2 01 6a
        E 1 b2 01 6c
        E 1 b2 01 6c
        E 1 b2 01 6d
        E 1 b2 01 6e
        E 1 b2 01 6f
        E 1 b2 01 70
        E 1 b2 01 71
        E 1 b2 01 71
        E 1 b2 01 72
        E 1 b2 01 72
        E 1 b2 01 72
        E 1 b2 01 72
        E 1 b2 01 72
        E 1 b2 01 71
        E 1 b2 01 71
        E 1 b2 01 70
        E 1 b2 01 6f
        E 1 b2 01 6e
        E 1 b2 01 6d
        E 1 b2 01 6c
        E 1 b2 01 6b
        E 1 b2 01 69
        E 1 b2 01 68
        E 1 b2 01 66
        E 1 b2 01 64
        E 1 b2 01 63
        E 1 b2 01 61
        E 1 b2 01 5e
        E 1 b2 01 5c
        E 1 b2 01 5a
        E 1 b2 01 58
        E 1 b2 01 55
        E 1 b2 01 52
        E 1 b2 01 50
        E 1 b2 01 4e
        E 1 b2 01 4b
        E 1 b2 01 48
        E 1 b2 01 46
        E 1 b2 01 42
        E 1 b2 01 3f
        E 1 b2 01 3d
        E 1 b2 01 3a
        E 1 b2 01 37
        E 1 b2 01 35
        E 1 b2 01 32
        E 1 b2 01 2f
        E 1 b2 01 2c
        E 1 b2 01 29
        E 1 b2 01 26
        E 1 b2 01 24
        E 1 b2 01 22
        E 1 b2 01 1f
        E 1 b2 01 1c
        E 1 b2 01 1a
        E 1 b2 01 18
        E 1 b2 01 15
        E 1 b2 01 13
        E 1 b2 01 11
        E 1 b2 01 0f
        E 1 b2 01 0d
        E 1 b2 01 0b
        E 1 b2 01 09
        E 1 b2 01 09
        E 1 b2 01 07
        E 1 b2 01 06
        E 1 b2 01 04
        E 1 b2 01 03
        E 1 b2 01 02
        E 1 b2 01 01
        E 1 b2 01 00
        E 1 b2 01 00
        E 1 b2 01 00
        E 1 b2 01 00
        E 1 b2 01 00
        E 1 b2 01 00
        E 1 b2 01 00
        E 1 b2 01 00
        E 1 b2 01 00
        E 1 b2 01 01
        E 1 b2 01 02
        E 1 b2 01 03
        E 1 b2 01 04
        E 1 b2 01 05
        E 1 b2 01 06
        E 1 b2 01 08
        E 1 b2 01 09
        E 1 b2 01 0a
        E 1 b2 01 0c
        E 1 b2 01 0e
        E 1 b2 01 10
        E 1 b2 01 12
        E 1 b2 01 14
        E 1 b2 01 16
        E 1 b2 01 19
        E 1 b2 01 1b
        E 1 b2 01 1d
        E 1 b2 01 20
        E 1 b2 01 23
        E 1 b2 01 25
        E 1 b2 01 28
        E 1 b2 01 2b
        E 1 b2 01 2d
        E 1 b2 01 30
        E 1 b2 01 33
        E 1 b2 01 36
        E 1 b2 01 39
        E 5 b2 01 40
        E 5 b2 01 43
        E 5 b2 01 46
        E 5 b2 01 49
        E 5 b2 01 4c
        E 5 b2 01 4f
        E 5 b2 01 52
        E 5 b2 01 55
        E 5 b2 01 58
        E 5 b2 01 5b
        E 5 b2 01 5e
        E 5 b2 01 60
        E 5 b2 01 63
        E 5 b2 01 66
        E 5 b2 01 68
        E 5 b2 01 6a
        E 5 b2 01 6d
        E 5 b2 01 6f
        E 5 b2 01 71
        E 5 b2 01 73
        E 5 b2 01 75
        E 5 b2 01 76
        E 5 b2 01 78
        E 5 b2 01 79
        E 5 b2 01 7a
        E 5 b2 01 7b
        E 5 b2 01 7c
        E 5 b2 01 7d
        E 5 b2 01 7e
        E 5 b2 01 7e
        E 5 b2 01 7f
        E 5 b2 01 7f
        E 5 b2 01 7f
        E 5 b2 01 7f
        E 5 b2 01 7f
        E 5 b2 01 7e
        E 5 b2 01 7e
        E 5 b2 01 7d
        E 5 b2 01 7c
        E 5 b2 01 7b
        E 5 b2 01 7a
        E 5 b2 01 78
        E 5 b2 01 77
        E 5 b2 01 75
        E 5 b2 01 74
        E 5 b2 01 72
        E 5 b2 01 70
        E 5 b2 01 6e
        E 5 b2 01 6c
        E 5 b2 01 69
        E 5 b2 01 67
        E 5 b2 01 64
        E 5 b2 01 62
        E 5 b2 01 5f
        E 5 b2 01 5c
        E 5 b2 01 59
        E 5 b2 01 57
        E 5 b2 01 54
        E 5 b2 01 51
        E 5 b2 01 4e
        E 5 b2 01 4a
        E 5 b2 01 47
        E 5 b2 01 44
        E 5 b2 01 41
        E 5 b2 01 3e
        E 5 b2 01 3b
        E 5 b2 01 38
        E 5 b2 01 35
        E 5 b2 01 31
        E 5 b2 01 2e
        E 5 b2 01 2b
        E 5 b2 01 28
        E 5 b2 01 26
        E 5 b2 01 23
        E 5 b2 01 20
        E 5 b2 01 1d
        E 5 b2 01 1b
        E 5 b2 01 18
        E 5 b2 01 16
        E 5 b2 01 13
        E 5 b2 01 11
        E 5 b2 01 0f
        E 5 b2 01 0d
        E 5 b2 01 0b
        E 5 b2 01 0a
        E 5 b2 01 08
        E 5 b2 01 07
        E 5 b2 01 05
        E 5 b2 01 04
        E 5 b2 01 03
        E 5 b2 01 02
        E 5 b2 01 01
        E 5 b2 01 01
        E 5 b2 01 00
        E 5 b2 01 00
        E 5 b2 01 00
        E 5 b2 01 00
        E 5 b2 01 00
        E 5 b2 01 01
        E 5 b2 01 01
        E 5 b2 01 02
        E 5 b2 01 03
        E 5 b2 01 04
        E 5 b2 01 05
        E 5 b2 01 06
        E 5 b2 01 07
        E 5 b2 01 09
        E 5 b2 01 0a
        E 5 b2 01 0c
        E 5 b2 01 0e
        E 5 b2 01 10
        E 5 b2 01 12
        E 5 b2 01 15
        E 5 b2 01 17
        E 5 b2 01 19
        E 5 b2 01 1c
        E 5 b2 01 1f
        E 5 b2 01 21
        E 5 b2 01 24
        E 5 b2 01 27
        E 5 b2 01 2a
        E 5 b2 01 2d
        E 5 b2 01 30
        E 5 b2 01 33
        E 5 b2 01 36
        E 5 b2 01 39
        E 5 b2 01 3c
        E 5 b2 01 40
        E 9 b2 01 39
        E 9 b2 01 3c
        E 9 b2 01 3f
        E 9 b2 01 41
        E 9 b2 01 44
        E 9 b2 01 47
        E 9 b2 01 49
        E 9 b2 01 4c
        E 9 b2 01 4f
        E 9 b2 01 51
        E 9 b2 01 54
        E 9 b2 01 56
        E 9 b2 01 59
        E 9 b2 01 5b
        E 9 b2 01 5d
        E 9 b2 01 5f
        E 9 b2 01 62
        E 9 b2 01 63
        E 9 b2 01 65
        E 9 b2 01 67
        E 9 b2 01 69
        E 9 b2 01 6a
        E 9 b2 01 6c
        E 9 b2 01 6c
        E 9 b2 01 6d
        E 9 b2 01 6e
        E 9 b2 01 6f
        E 9 b2 01 70
        E 9 b2 01 71
        E 9 b2 01 71
        E 9 b2 01 72
        E 9 b2 01 72
        E 9 b2 01 72
        E 9 b2 01 72
        E 9 b2 01 72
        E 9 b2 01 71
        E 9 b2 01 71
        E 9 b2 01 70
        E 9 b2 01 6f
        E 9 b2 01 6e
        E 9 b2 01 6d
        E 9 b2 01 6c
        E 9 b2 01 6b
        E 9 b2 01 69
        E 9 b2 01 68
        E 9 b2 01 66
        E 9 b2 01 64
        E 9 b2 01 63
        E 9 b2 01 61
        E 9 b2 01 5e
        E 9 b2 01 5c
        E 9 b2 01 5a
        E 9 b2 01 58
        E 9 b2 01 55
        E 9 b2 01 52
        E 9 b2 01 50
        E 9 b2 01 4e
        E 9 b2 01 4b
        E 9 b2 01 48
        E 9 b2 01 46
        E 9 b2 01 42
        E 9 b2 01 3f
        E 9 b2 01 3d
        E 9 b2 01 3a
        E 9 b2 01 37
        E 9 b2 01 35
        E 9 b2 01 32
        E 9 b2 01 2f
        E 9 b2 01 2c
        E 9 b2 01 29
        E 9 b2 01 26
        E 9 b2 01 24
        E 9 b2 01 22
        E 9 b2 01 1f
        E 9 b2 01 1c
        E 9 b2 01 1a
        E 9 b2 01 18
        E 9 b2 01 15
        E 9 b2 01 13
        E 9 b2 01 11
        E 9 b2 01 0f
        E 9 b2 01 0d
        E 9 b2 01 0b
        E 9 b2 01 09
        E 9 b2 01 09
        E 9 b2 01 07
        E 9 b2 01 06
        E 9 b2 01 04
        E 9 b2 01 03
        E 9 b2 01 02
        E 9 b2 01 01
        E 9 b2 01 00
        E 9 b2 01 00
        E 9 b2 01 00
        E 9 b2 01 00
        E 9 b2 01 00
        E 9 b2 01 00
        E 9 b2 01 00
        E 9 b2 01 00
        E 9 b2 01 00
        E 9 b2 01 01
        E 9 b2 01 02
        E 9 b2 01 03
        E 9 b2 01 04
        E 9 b2 01 05
        E 9 b2 01 06
        E 9 b2 01 08
        E 9 b2 01 09
        E 9 b2 01 0a
        E 9 b2 01 0c
        E 9 b2 01 0e
        E 9 b2 01 10
        E 9 b2 01 12
        E 9 b2 01 14
        E 9 b2 01 16
        E 9 b2 01 19
        E 9 b2 01 1b
        E 9 b2 01 1d
        E 9 b2 01 20
        E 9 b2 01 23
        E 9 b2 01 25
        E 9 b2 01 28
        E 9 b2 01 2b
        E 9 b2 01 2d
        E 9 b2 01 30
        E 9 b2 01 33
        E 9 b2 01 36
        E 9 b2 01 39
        E 7 b2 01 20
        E 7 b2 01 21
        E 7 b2 01 23
        E 7 b2 01 24
        E 7 b2 01 26
        E 7 b2 01 27
        E 7 b2 01 29
        E 7 b2 01 2a
        E 7 b2 01 2c
        E 7 b2 01 2d
        E 7 b2 01 2f
        E 7 b2 01 30
        E 7 b2 01 31
        E 7 b2 01 33
        E 7 b2 01 34
        E 7 b2 01 35
        E 7 b2 01 36
        E 7 b2 01 37
        E 7 b2 01 38
        E 7 b2 01 39
        E 7 b2 01 3a
        E 7 b2 01 3b
        E 7 b2 01 3c
        E 7 b2 01 3c
        E 7 b2 01 3d
        E 7 b2 01 3d
        E 7 b2 01 3e
        E 7 b2 01 3e
        E 7 b2 01 3f
        E 7 b2 01 3f
        E 7 b2 01 3f
        E 7 b2 01 3f
        E 7 b2 01 3f
        E 7 b2 01 3f
        E 7 b2 01 3f
        E 7 b2 01 3f
        E 7 b2 01 3f
        E 7 b2 01 3e
        E 7 b2 01 3e
        E 7 b2 01 3d
        E 7 b2 01 3d
        E 7 b2 01 3c
        E 7 b2 01 3b
        E 7 b2 01 3a
        E 7 b2 01 3a
        E 7 b2 01 39
        E 7 b2 01 38
        E 7 b2 01 37
        E 7 b2 01 36
        E 7 b2 01 34
        E 7 b2 01 33
        E 7 b2 01 32
        E 7 b2 01 31
        E 7 b2 01 2f
        E 7 b2 01 2e
        E 7 b2 01 2c
        E 7 b2 01 2b
        E 7 b2 01 2a
        E 7 b2 01 28
        E 7 b2 01 27
        E 7 b2 01 25
        E 7 b2 01 23
        E 7 b2 01 22
        E 7 b2 01 20
        E 7 b2 01 1f
        E 7 b2 01 1d
        E 7 b2 01 1c
        E 7 b2 01 1a
        E 7 b2 01 18
        E 7 b2 01 17
        E 7 b2 01 15
        E 7 b2 01 14
        E 7 b2 01 13
        E 7 b2 01 11
        E 7 b2 01 10
        E 7 b2 01 0e
        E 7 b2 01 0d
        E 7 b2 01 0c
        E 7 b2 01 0b
        E 7 b2 01 09
        E 7 b2 01 08
        E 7 b2 01 07
        E 7 b2 01 06
        E 7 b2 01 05
        E 7 b2 01 05
        E 7 b2 01 04
        E 7 b2 01 03
        E 7 b2 01 02
        E 7 b2 01 02
        E 7 b2 01 01
        E 7 b2 01 01
        E 7 b2 01 00
        E 7 b2 01 00
        E 7 b2 01 00
        E 7 b2 01 00
        E 7 b2 01 00
        E 7 b2 01 00
        E 7 b2 01 00
        E 7 b2 01 00
        E 7 b2 01 00
        E 7 b2 01 01
        E 7 b2 01 01
        E 7 b2 01 02
        E 7 b2 01 02
        E 7 b2 01 03
        E 7 b2 01 03
        E 7 b2 01 04
        E 7 b2 01 05
        E 7 b2 01 06
        E 7 b2 01 07
        E 7 b2 01 08
        E 7 b2 01 09
        E 7 b2 01 0a
        E 7 b2 01 0b
        E 7 b2 01 0c
        E 7 b2 01 0e
        E 7 b2 01 0f
        E 7 b2 01 10
        E 7 b2 01 12
        E 7 b2 01 13
        E 7 b2 01 15
        E 7 b2 01 16
        E 7 b2 01 18
        E 7 b2 01 19
        E 7 b2 01 1b
        E 7 b2 01 1c
        E 7 b2 01 1e
        E 7 b2 01 20
        E 7 b2 01 20
        E 7 b2 01 21
        E 7 b2 01 23
        E 7 b2 01 24
        E 7 b2 01 26
        E 7 b2 01 27
        E 7 b2 01 29
        E 7 b2 01 2a
        E 7 b2 01 2c
        E 7 b2 01 2d
        E 7 b2 01 2f
        E 7 b2 01 30
        E 7 b2 01 31
        E 7 b2 01 33
        E 7 b2 01 34
        E 7 b2 01 35
        E 7 b2 01 36
        E 7 b2 01 37
        E 7 b2 01 38
        E 7 b2 01 39
        E 7 b2 01 3a
        E 7 b2 01 3b
        E 7 b2 01 3c
        E 7 b2 01 3c
        E 7 b2 01 3d
        E 7 b2 01 3d
        E 7 b2 01 3e
        E 7 b2 01 3e
        E 7 b2 01 3f
        E 7 b2 01 3f
        E 7 b2 01 3f
        E 7 b2 01 3f
        E 7 b2 01 3f
        E 7 b2 01 3f
        E 7 b2 01 3f
        E 7 b2 01 3f
        E 7 b2 01 3f
        E 7 b2 01 3e
        E 7 b2 01 3e
        E 7 b2 01 3d
        E 7 b2 01 3d
        E 7 b2 01 3c
        E 7 b2 01 3b
        E 7 b2 01 3a
        E 7 b2 01 3a
        E 7 b2 01 39
        E 7 b2 01 38
        E 7 b2 01 37
        E 7 b2 01 36
        E 7 b2 01 34
        E 7 b2 01 33
        E 7 b2 01 32
        E 7 b2 01 31
        E 7 b2 01 2f
        E 7 b2 01 2e
        E 7 b2 01 2c
        E 7 b2 01 2b
        E 7 b2 01 2a
        E 7 b2 01 28
        E 7 b2 01 27
        E 7 b2 01 25
        E 7 b2 01 23
        E 7 b2 01 22
        E 7 b2 01 20
        E 7 b2 01 1f
        E 7 b2 01 1d
        E 7 b2 01 1c
        E 7 b2 01 1a
        E 7 b2 01 18
        E 7 b2 01 17
        E 7 b2 01 15
        E 7 b2 01 14
        E 7 b2 01 13
        E 7 b2 01 11
        E 7 b2 01 10
        E 7 b2 01 0e
        E 7 b2 01 0d
        E 7 b2 01 0c
        E 7 b2 01 0b
        E 7 b2 01 09
        E 7 b2 01 08
        E 7 b2 01 07
        E 7 b2 01 06
        E 7 b2 01 05
        E 7 b2 01 05
        E 7 b2 01 04
        E 7 b2 01 03
        E 7 b2 01 02
        E 7 b2 01 02
        E 7 b2 01 01
        E 7 b2 01 01
        E 7 b2 01 00
        E 7 b2 01 00
        E 7 b2 01 00
        E 7 b2 01 00
        E 7 b2 01 00
        E 7 b2 01 00
        E 7 b2 01 00
        E 7 b2 01 00
        E 7 b2 01 00
        E 7 b2 01 01
        E 7 b2 01 01
        E 7 b2 01 02
        E 7 b2 01 02
        E 7 b2 01 03
        E 7 b2 01 03
        E 7 b2 01 04
        E 7 b2 01 05
        E 7 b2 01 06
        E 7 b2 01 07
        E 7 b2 01 08
        E 7 b2 01 09
        E 7 b2 01 0a
        E 7 b2 01 0b
        E 7 b2 01 0c
        E 7 b2 01 0e
        E 7 b2 01 0f
        E 7 b2 01 10
        E 7 b2 01 12
        E 7 b2 01 13
        E 7 b2 01 15
        E 7 b2 01 16
        E 7 b2 01 18
        E 7 b2 01 19
        E 7 b2 01 1b
        E 7 b2 01 1c
        E 7 b2 01 1e
        E 7 b2 01 20
        E 14 b2 01 2c
        E 14 b2 01 2e
        E 14 b2 01 31
        E 14 b2 01 33
        E 14 b2 01 35
        E 14 b2 01 37
        E 14 b2 01 39
        E 14 b2 01 3b
        E 14 b2 01 3d
        E 14 b2 01 3f
        E 14 b2 01 41
        E 14 b2 01 43
        E 14 b2 01 45
        E 14 b2 01 47
        E 14 b2 01 48
        E 14 b2 01 4a
        E 14 b2 01 4c
        E 14 b2 01 4d
        E 14 b2 01 4f
        E 14 b2 01 50
        E 14 b2 01 51
        E 14 b2 01 52
        E 14 b2 01 54
        E 14 b2 01 54
        E 14 b2 01 55
        E 14 b2 01 56
        E 14 b2 01 56
        E 14 b2 01 57
        E 14 b2 01 58
        E 14 b2 01 58
        E 14 b2 01 58
        E 14 b2 01 58
        E 14 b2 01 58
        E 14 b2 01 58
        E 14 b2 01 58
        E 14 b2 01 58
        E 14 b2 01 58
        E 14 b2 01 57
        E 14 b2 01 56
        E 14 b2 01 56
        E 14 b2 01 55
        E 14 b2 01 54
        E 14 b2 01 53
        E 14 b2 01 51
        E 14 b2 01 51
        E 14 b2 01 4f
        E 14 b2 01 4e
        E 14 b2 01 4d
        E 14 b2 01 4b
        E 14 b2 01 49
        E 14 b2 01 48
        E 14 b2 01 46
        E 14 b2 01 44
        E 14 b2 01 42
        E 14 b2 01 40
        E 14 b2 01 3e
        E 14 b2 01 3c
        E 14 b2 01 3a
        E 14 b2 01 38
        E 14 b2 01 36
        E 14 b2 01 33
        E 14 b2 01 31
        E 14 b2 01 2f
        E 14 b2 01 2d
        E 14 b2 01 2b
        E 14 b2 01 29
        E 14 b2 01 27
        E 14 b2 01 25
        E 14 b2 01 22
        E 14 b2 01 20
        E 14 b2 01 1e
        E 14 b2 01 1c
        E 14 b2 01 1a
        E 14 b2 01 18
        E 14 b2 01 16
        E 14 b2 01 14
        E 14 b2 01 12
        E 14 b2 01 10
        E 14 b2 01 0f
        E 14 b2 01 0d
        E 14 b2 01 0b
        E 14 b2 01 0a
        E 14 b2 01 09
        E 14 b2 01 07
        E 14 b2 01 07
        E 14 b2 01 05
        E 14 b2 01 04
        E 14 b2 01 03
        E 14 b2 01 02
        E 14 b2 01 02
        E 14 b2 01 01
        E 14 b2 01 00
        E 14 b2 01 00
        E 14 b2 01 00
        E 14 b2 01 00
        E 14 b2 01 00
        E 14 b2 01 00
        E 14 b2 01 00
        E 14 b2 01 00
        E 14 b2 01 00
        E 14 b2 01 01
        E 14 b2 01 02
        E 14 b2 01 02
        E 14 b2 01 03
        E 14 b2 01 04
        E 14 b2 01 04
        E 14 b2 01 06
        E 14 b2 01 07
        E 14 b2 01 08
        E 14 b2 01 09
        E 14 b2 01 0b
        E 14 b2 01 0c
        E 14 b2 01 0e
        E 14 b2 01 10
        E 14 b2 01 11
        E 14 b2 01 13
        E 14 b2 01 15
        E 14 b2 01 17
        E 14 b2 01 19
        E 14 b2 01 1b
        E 14 b2 01 1d
        E 14 b2 01 1f
        E 14 b2 01 21
        E 14 b2 01 23
        E 14 b2 01 25
        E 14 b2 01 27
        E 14 b2 01 2a
        E 14 b2 01 2c
        E 12 b2 01 33
        E 12 b2 01 35
        E 12 b2 01 37
        E 12 b2 01 3a
        E 12 b2 01 3c
        E 12 b2 01 3f
        E 12 b2 01 41
        E 12 b2 01 44
        E 12 b2 01 46
        E 12 b2 01 48
        E 12 b2 01 4b
        E 12 b2 01 4c
        E 12 b2 01 4f
        E 12 b2 01 51
        E 12 b2 01 53
        E 12 b2 01 54
        E 12 b2 01 57
        E 12 b2 01 58
        E 12 b2 01 5a
        E 12 b2 01 5b
        E 12 b2 01 5d
        E 12 b2 01 5e
        E 12 b2 01 5f
        E 12 b2 01 60
        E 12 b2 01 61
        E 12 b2 01 62
        E 12 b2 01 63
        E 12 b2 01 63
        E 12 b2 01 64
        E 12 b2 01 64
        E 12 b2 01 65
        E 12 b2 01 65
        E 12 b2 01 65
        E 12 b2 01 65
        E 12 b2 01 65
        E 12 b2 01 64
        E 12 b2 01 64
        E 12 b2 01 63
        E 12 b2 01 63
        E 12 b2 01 62
        E 12 b2 01 61
        E 12 b2 01 5f
        E 12 b2 01 5f
        E 12 b2 01 5d
        E 12 b2 01 5c
        E 12 b2 01 5b
        E 12 b2 01 59
        E 12 b2 01 57
        E 12 b2 01 56
        E 12 b2 01 54
        E 12 b2 01 52
        E 12 b2 01 50
        E 12 b2 01 4e
        E 12 b2 01 4c
        E 12 b2 01 49
        E 12 b2 01 47
        E 12 b2 01 45
        E 12 b2 01 43
        E 12 b2 01 40
        E 12 b2 01 3e
        E 12 b2 01 3b
        E 12 b2 01 38
        E 12 b2 01 36
        E 12 b2 01 33
        E 12 b2 01 31
        E 12 b2 01 2f
        E 12 b2 01 2c
        E 12 b2 01 2a
        E 12 b2 01 27
        E 12 b2 01 24
        E 12 b2 01 22
        E 12 b2 01 1f
        E 12 b2 01 1e
        E 12 b2 01 1b
        E 12 b2 01 19
        E 12 b2 01 17
        E 12 b2 01 15
        E 12 b2 01 13
        E 12 b2 01 11
        E 12 b2 01 0f
        E 12 b2 01 0d
        E 12 b2 01 0b
        E 12 b2 01 0a
        E 12 b2 01 08
        E 12 b2 01 07
        E 12 b2 01 06
        E 12 b2 01 05
        E 12 b2 01 03
        E 12 b2 01 03
        E 12 b2 01 02
        E 12 b2 01 01
        E 12 b2 01 00
        E 12 b2 01 00
        E 12 b2 01 00
        E 12 b2 01 00
        E 12 b2 01 00
        E 12 b2 01 00
        E 12 b2 01 00
        E 12 b2 01 00
        E 12 b2 01 00
        E 12 b2 01 01
        E 12 b2 01 02
        E 12 b2 01 03
        E 12 b2 01 03
        E 12 b2 01 04
        E 12 b2 01 05
        E 12 b2 01 07
        E 12 b2 01 07
        E 12 b2 01 09
        E 12 b2 01 0b
        E 12 b2 01 0c
        E 12 b2 01 0e
        E 12 b2 01 10
        E 12 b2 01 12
        E 12 b2 01 14
        E 12 b2 01 16
        E 12 b2 01 18
        E 12 b2 01 1a
        E 12 b2 01 1c
        E 12 b2 01 1f
        E 12 b2 01 21
        E 12 b2 01 24
        E 12 b2 01 26
        E 12 b2 01 28
        E 12 b2 01 2b
        E 12 b2 01 2d
        E 12 b2 01 2f
        E 12 b2 01 33
        E 14 b2 01 06
        E 14 b2 01 06
        E 14 b2 01 07
        E 14 b2 01 07
        E 14 b2 01 07
        E 14 b2 01 07
        E 14 b2 01 08
        E 14 b2 01 08
        E 14 b2 01 08
        E 14 b2 01 09
        E 14 b2 01 09
        E 14 b2 01 09
        E 14 b2 01 09
        E 14 b2 01 0a
        E 14 b2 01 0a
        E 14 b2 01 0a
        E 14 b2 01 0a
        E 14 b2 01 0b
        E 14 b2 01 0b
        E 14 b2 01 0b
        E 14 b2 01 0b
        E 14 b2 01 0b
        E 14 b2 01 0c
        E 14 b2 01 0c
        E 14 b2 01 0c
        E 14 b2 01 0c
        E 14 b2 01 0c
        E 14 b2 01 0c
        E 14 b2 01 0c
        E 14 b2 01 0c
        E 14 b2 01 0c
        E 14 b2 01 0c
        E 14 b2 01 0c
        E 14 b2 01 0c
        E 14 b2 01 0c
        E 14 b2 01 0c
        E 14 b2 01 0c
        E 14 b2 01 0c
        E 14 b2 01 0c
        E 14 b2 01 0c
        E 14 b2 01 0c
        E 14 b2 01 0c
        E 14 b2 01 0b
        E 14 b2 01 0b
        E 14 b2 01 0b
        E 14 b2 01 0b
        E 14 b2 01 0b
        E 14 b2 01 0b
        E 14 b2 01 0a
        E 14 b2 01 0a
        E 14 b2 01 0a
        E 14 b2 01 0a
        E 14 b2 01 09
        E 14 b2 01 09
        E 14 b2 01 09
        E 14 b2 01 08
        E 14 b2 01 08
        E 14 b2 01 08
        E 14 b2 01 08
        E 14 b2 01 07
        E 14 b2 01 07
        E 14 b2 01 07
        E 14 b2 01 06
        E 14 b2 01 06
        E 14 b2 01 06
        E 14 b2 01 05
        E 14 b2 01 05
        E 14 b2 01 05
        E 14 b2 01 04
        E 14 b2 01 04
        E 14 b2 01 04
        E 14 b2 01 04
        E 14 b2 01 03
        E 14 b2 01 03
        E 14 b2 01 03
        E 14 b2 01 02
        E 14 b2 01 02
        E 14 b2 01 02
        E 14 b2 01 02
        E 14 b2 01 01
        E 14 b2 01 01
        E 14 b2 01 01
        E 14 b2 01 01
        E 14 b2 01 01
        E 14 b2 01 01
        E 14 b2 01 00
        E 14 b2 01 00
        E 14 b2 01 00
        E 14 b2 01 00
        E 14 b2 01 00
        E 14 b2 01 00
        E 14 b2 01 00
        E 14 b2 01 00
        E 14 b2 01 00
        E 14 b2 01 00
        E 14 b2 01 00
        E 14 b2 01 00
        E 14 b2 01 00
        E 14 b2 01 00
        E 14 b2 01 00
        E 14 b2 01 00
        E 14 b2 01 00
        E 14 b2 01 00
        E 14 b2 01 00
        E 14 b2 01 00
        E 14 b2 01 00
        E 14 b2 01 00
        E 14 b2 01 01
        E 14 b2 01 01
        E 14 b2 01 01
        E 14 b2 01 01
        E 14 b2 01 01
        E 14 b2 01 02
        E 14 b2 01 02
        E 14 b2 01 02
        E 14 b2 01 02
        E 14 b2 01 03
        E 14 b2 01 03
        E 14 b2 01 03
        E 14 b2 01 03
        E 14 b2 01 04
        E 14 b2 01 04
        E 14 b2 01 04
        E 14 b2 01 05
        E 14 b2 01 05
        E 14 b2 01 05
        E 14 b2 01 06
        E 14 b2 01 06
        E 12 b2 01 19
        E 12 b2 01 1a
        E 12 b2 01 1c
        E 12 b2 01 1d
        E 12 b2 01 1e
        E 12 b2 01 1f
        E 12 b2 01 20
        E 12 b2 01 22
        E 12 b2 01 23
        E 12 b2 01 24
        E 12 b2 01 25
        E 12 b2 01 26
        E 12 b2 01 27
        E 12 b2 01 28
        E 12 b2 01 29
        E 12 b2 01 2a
        E 12 b2 01 2b
        E 12 b2 01 2c
        E 12 b2 01 2d
        E 12 b2 01 2e
        E 12 b2 01 2e
        E 12 b2 01 2f
        E 12 b2 01 30
        E 12 b2 01 30
        E 12 b2 01 30
        E 12 b2 01 31
        E 12 b2 01 31
        E 12 b2 01 32
        E 12 b2 01 32
        E 12 b2 01 32
        E 12 b2 01 32
        E 12 b2 01 32
        E 12 b2 01 32
        E 12 b2 01 32
        E 12 b2 01 32
        E 12 b2 01 32
        E 12 b2 01 32
        E 12 b2 01 32
        E 12 b2 01 31
        E 12 b2 01 31
        E 12 b2 01 30
        E 12 b2 01 30
        E 12 b2 01 2f
        E 12 b2 01 2e
        E 12 b2 01 2e
        E 12 b2 01 2d
        E 12 b2 01 2c
        E 12 b2 01 2c
        E 12 b2 01 2b
        E 12 b2 01 2a
        E 12 b2 01 29
        E 12 b2 01 28
        E 12 b2 01 27
        E 12 b2 01 26
        E 12 b2 01 24
        E 12 b2 01 23
        E 12 b2 01 22
        E 12 b2 01 21
        E 12 b2 01 20
        E 12 b2 01 1f
        E 12 b2 01 1d
        E 12 b2 01 1c
        E 12 b2 01 1b
        E 12 b2 01 1a
        E 12 b2 01 18
        E 12 b2 01 17
        E 12 b2 01 16
        E 12 b2 01 15
        E 12 b2 01 13
        E 12 b2 01 12
        E 12 b2 01 11
        E 12 b2 01 10
        E 12 b2 01 0f
        E 12 b2 01 0e
        E 12 b2 01 0c
        E 12 b2 01 0b
        E 12 b2 01 0a
        E 12 b2 01 09
        E 12 b2 01 08
        E 12 b2 01 07
        E 12 b2 01 06
        E 12 b2 01 06
        E 12 b2 01 05
        E 12 b2 01 04
        E 12 b2 01 04
        E 12 b2 01 03
        E 12 b2 01 02
        E 12 b2 01 02
        E 12 b2 01 01
        E 12 b2 01 01
        E 12 b2 01 00
        E 12 b2 01 00
        E 12 b2 01 00
        E 12 b2 01 00
        E 12 b2 01 00
        E 12 b2 01 00
        E 12 b2 01 00
        E 12 b2 01 00
        E 12 b2 01 00
        E 12 b2 01 00
        E 12 b2 01 00
        E 12 b2 01 01
        E 12 b2 01 01
        E 12 b2 01 02
        E 12 b2 01 02
        E 12 b2 01 02
        E 12 b2 01 03
        E 12 b2 01 04
        E 12 b2 01 04
        E 12 b2 01 05
        E 12 b2 01 06
        E 12 b2 01 07
        E 12 b2 01 08
        E 12 b2 01 09
        E 12 b2 01 0a
        E 12 b2 01 0b
        E 12 b2 01 0c
        E 12 b2 01 0d
        E 12 b2 01 0e
        E 12 b2 01 0f
        E 12 b2 01 10
        E 12 b2 01 12
        E 12 b2 01 13
        E 12 b2 01 14
        E 12 b2 01 15
        E 12 b2 01 16
        E 12 b2 01 18
        E 12 b2 01 19
        E 7 b2 01 2c
        E 7 b2 01 2e
        E 7 b2 01 31
        E 7 b2 01 33
        E 7 b2 01 35
        E 7 b2 01 37
        E 7 b2 01 39
        E 7 b2 01 3b
        E 7 b2 01 3d
        E 7 b2 01 3f
        E 7 b2 01 41
        E 7 b2 01 43
        E 7 b2 01 45
        E 7 b2 01 47
        E 7 b2 01 48
        E 7 b2 01 4a
        E 7 b2 01 4c
        E 7 b2 01 4d
        E 7 b2 01 4f
        E 7 b2 01 50
        E 7 b2 01 51
        E 7 b2 01 52
        E 7 b2 01 54
        E 7 b2 01 54
        E 7 b2 01 55
        E 7 b2 01 56
        E 7 b2 01 56
        E 7 b2 01 57
        E 7 b2 01 58
        E 7 b2 01 58
        E 7 b2 01 58
        E 7 b2 01 58
        E 7 b2 01 58
        E 7 b2 01 58
        E 7 b2 01 58
        E 7 b2 01 58
        E 7 b2 01 58
        E 7 b2 01 57
        E 7 b2 01 56
        E 7 b2 01 56
        E 7 b2 01 55
        E 7 b2 01 54
        E 7 b2 01 53
        E 7 b2 01 51
        E 7 b2 01 51
        E 7 b2 01 4f
        E 7 b2 01 4e
        E 7 b2 01 4d
        E 7 b2 01 4b
        E 7 b2 01 49
        E 7 b2 01 48
        E 7 b2 01 46
        E 7 b2 01 44
        E 7 b2 01 42
        E 7 b2 01 40
        E 7 b2 01 3e
        E 7 b2 01 3c
        E 7 b2 01 3a
        E 7 b2 01 38
        E 7 b2 01 36
        E 7 b2 01 33
        E 7 b2 01 31
        E 7 b2 01 2f
        E 7 b2 01 2d
        E 7 b2 01 2b
        E 7 b2 01 29
        E 7 b2 01 27
        E 7 b2 01 25
        E 7 b2 01 22
        E 7 b2 01 20
        E 7 b2 01 1e
        E 7 b2 01 1c
        E 7 b2 01 1a
        E 7 b2 01 18
        E 7 b2 01 16
        E 7 b2 01 14
        E 7 b2 01 12
        E 7 b2 01 10
        E 7 b2 01 0f
        E 7 b2 01 0d
        E 7 b2 01 0b
        E 7 b2 01 0a
        E 7 b2 01 09
        E 7 b2 01 07
        E 7 b2 01 07
        E 7 b2 01 05
        E 7 b2 01 04
        E 7 b2 01 03
        E 7 b2 01 02
        E 7 b2 01 02
        E 7 b2 01 01
        E 7 b2 01 00
        E 7 b2 01 00
        E 7 b2 01 00
        E 7 b2 01 00
        E 7 b2 01 00
        E 7 b2 01 00
        E 7 b2 01 00
        E 7 b2 01 00
        E 7 b2 01 00
        E 7 b2 01 01
        E 7 b2 01 02
        E 7 b2 01 02
        E 7 b2 01 03
        E 7 b2 01 04
        E 7 b2 01 04
        E 7 b2 01 06
        E 7 b2 01 07
        E 7 b2 01 08
        E 7 b2 01 09
        E 7 b2 01 0b
        E 7 b2 01 0c
        E 7 b2 01 0e
        E 7 b2 01 10
        E 7 b2 01 11
        E 7 b2 01 13
        E 7 b2 01 15
        E 7 b2 01 17
        E 7 b2 01 19
        E 7 b2 01 1b
        E 7 b2 01 1d
        E 7 b2 01 1f
        E 7 b2 01 21
        E 7 b2 01 23
        E 7 b2 01 25
        E 7 b2 01 27
        E 7 b2 01 2a
        E 7 b2 01 2c
        E 7 b2 01 20
        E 7 b2 01 21
        E 7 b2 01 23
        E 7 b2 01 24
        E 7 b2 01 26
        E 7 b2 01 27
        E 7 b2 01 29
        E 7 b2 01 2a
        E 7 b2 01 2c
        E 7 b2 01 2d
        E 7 b2 01 2f
        E 7 b2 01 30
        E 7 b2 01 31
        E 7 b2 01 33
        E 7 b2 01 34
        E 7 b2 01 35
        E 7 b2 01 36
        E 7 b2 01 37
        E 7 b2 01 38
        E 7 b2 01 39
        E 7 b2 01 3a
        E 7 b2 01 3b
        E 7 b2 01 3c
        E 7 b2 01 3c
        E 7 b2 01 3d
        E 7 b2 01 3d
        E 7 b2 01 3e
        E 7 b2 01 3e
        E 7 b2 01 3f
        E 7 b2 01 3f
        E 7 b2 01 3f
        E 7 b2 01 3f
        E 7 b2 01 3f
        E 7 b2 01 3f
        E 7 b2 01 3f
        E 7 b2 01 3f
        E 7 b2 01 3f
        E 7 b2 01 3e
        E 7 b2 01 3e
        E 7 b2 01 3d
        E 7 b2 01 3d
        E 7 b2 01 3c
        E 7 b2 01 3b
        E 7 b2 01 3a
        E 7 b2 01 3a
        E 7 b2 01 39
        E 7 b2 01 38
        E 7 b2 01 37
        E 7 b2 01 36
        E 7 b2 01 34
        E 7 b2 01 33
        E 7 b2 01 32
        E 7 b2 01 31
        E 7 b2 01 2f
        E 7 b2 01 2e
        E 7 b2 01 2c
        E 7 b2 01 2b
        E 7 b2 01 2a
        E 7 b2 01 28
        E 7 b2 01 27
        E 7 b2 01 25
        E 7 b2 01 23
        E 7 b2 01 22
        E 7 b2 01 20
        E 7 b2 01 1f
        E 7 b2 01 1d
        E 7 b2 01 1c
        E 7 b2 01 1a
        E 7 b2 01 18
        E 7 b2 01 17
        E 7 b2 01 15
        E 7 b2 01 14
        E 7 b2 01 13
        E 7 b2 01 11
        E 7 b2 01 10
        E 7 b2 01 0e
        E 7 b2 01 0d
        E 7 b2 01 0c
        E 7 b2 01 0b
        E 7 b2 01 09
        E 7 b2 01 08
        E 7 b2 01 07
        E 7 b2 01 06
        E 7 b2 01 05
        E 7 b2 01 05
        E 7 b2 01 04
        E 7 b2 01 03
        E 7 b2 01 02
        E 7 b2 01 02
        E 7 b2 01 01
        E 7 b2 01 01
        E 7 b2 01 00
        E 7 b2 01 00
        E 7 b2 01 00
        E 7 b2 01 00
        E 7 b2 01 00
        E 7 b2 01 00
        E 7 b2 01 00
        E 7 b2 01 00
        E 7 b2 01 00
        E 7 b2 01 01
        E 7 b2 01 01
        E 7 b2 01 02
        E 7 b2 01 02
        E 7 b2 01 03
        E 7 b2 01 03
        E 7 b2 01 04
        E 7 b2 01 05
        E 7 b2 01 06
        E 7 b2 01 07
        E 7 b2 01 08
        E 7 b2 01 09
        E 7 b2 01 0a
        E 7 b2 01 0b
        E 7 b2 01 0c
        E 7 b2 01 0e
        E 7 b2 01 0f
        E 7 b2 01 10
        E 7 b2 01 12
        E 7 b2 01 13
        E 7 b2 01 15
        E 7 b2 01 16
        E 7 b2 01 18
        E 7 b2 01 19
        E 7 b2 01 1b
        E 7 b2 01 1c
        E 7 b2 01 1e
        E 7 b2 01 20
        E 1 b2 01 39
        E 1 b2 01 3c
        E 1 b2 01 3f
        E 1 b2 01 41
        E 1 b2 01 44
        E 1 b2 01 47
        E 1 b2 01 49
        E 1 b2 01 4c
        E 1 b2 01 4f
        E 1 b2 01 51
        E 1 b2 01 54
        E 1 b2 01 56
        E 1 b2 01 59
        E 1 b2 01 5b
        E 1 b2 01 5d
        E 1 b2 01 5f
        E 1 b2 01 62
        E 1 b2 01 63
        E 1 b2 01 65
        E 1 b2 01 67
        E 1 b2 01 69
        E 1 b2 01 6a
        E 1 b2 01 6c
        E 1 b2 01 6c
        E 1 b2 01 6d
        E 1 b2 01 6e
        E 1 b2 01 6f
        E 1 b2 01 70
        E 1 b2 01 71
        E 1 b2 01 71
        E 1 b2 01 72
        E 1 b2 01 72
        E 1 b2 01 72
        E 1 b2 01 72
        E 1 b2 01 72
        E 1 b2 01 71
        E 1 b2 01 71
        E 1 b2 01 70
        E 1 b2 01 6f
        E 1 b2 01 6e
        E 1 b2 01 6d
        E 1 b2 01 6c
        E 1 b2 01 6b
        E 1 b2 01 69
        E 1 b2 01 68
        E 1 b2 01 66
        E 1 b2 01 64
        E 1 b2 01 63
        E 1 b2 01 61
        E 1 b2 01 5e
        E 1 b2 01 5c
        E 1 b2 01 5a
        E 1 b2 01 58
        E 1 b2 01 55
        E 1 b2 01 52
        E 1 b2 01 50
        E 1 b2 01 4e
        E 1 b2 01 4b
        E 1 b2 01 48
        E 1 b2 01 46
        E 1 b2 01 42
        E 1 b2 01 3f
        E 1 b2 01 3d
        E 1 b2 01 3a
        E 1 b2 01 37
        E 1 b2 01 35
        E 1 b2 01 32
        E 1 b2 01 2f
        E 1 b2 01 2c
        E 1 b2 01 29
        E 1 b2 01 26
        E 1 b2 01 24
        E 1 b2 01 22
        E 1 b2 01 1f
        E 1 b2 01 1c
        E 1 b2 01 1a
        E 1 b2 01 18
        E 1 b2 01 15
        E 1 b2 01 13
        E 1 b2 01 11
        E 1 b2 01 0f
        E 1 b2 01 0d
        E 1 b2 01 0b
        E 1 b2 01 09
        E 1 b2 01 09
        E 1 b2 01 07
        E 1 b2 01 06
        E 1 b2 01 04
        E 1 b2 01 03
        E 1 b2 01 02
        E 1 b2 01 01
        E 1 b2 01 00
        E 1 b2 01 00
        E 1 b2 01 00
        E 1 b2 01 00
        E 1 b2 01 00
        E 1 b2 01 00
        E 1 b2 01 00
        E 1 b2 01 00
        E 1 b2 01 00
        E 1 b2 01 01
        E 1 b2 01 02
        E 1 b2 01 03
        E 1 b2 01 04
        E 1 b2 01 05
        E 1 b2 01 06
        E 1 b2 01 08
        E 1 b2 01 09
        E 1 b2 01 0a
        E 1 b2 01 0c
        E 1 b2 01 0e
        E 1 b2 01 10
        E 1 b2 01 12
        E 1 b2 01 14
        E 1 b2 01 16
        E 1 b2 01 19
        E 1 b2 01 1b
        E 1 b2 01 1d
        E 1 b2 01 20
        E 1 b2 01 23
        E 1 b2 01 25
        E 1 b2 01 28
        E 1 b2 01 2b
        E 1 b2 01 2d
        E 1 b2 01 30
        E 1 b2 01 33
        E 1 b2 01 36
        E 1 b2 01 39
        E 5 b2 01 40
        E 5 b2 01 43
        E 5 b2 01 46
        E 5 b2 01 49
        E 5 b2 01 4c
        E 5 b2 01 4f
        E 5 b2 01 52
        E 5 b2 01 55
        E 5 b2 01 58
        E 5 b2 01 5b
        E 5 b2 01 5e
        E 5 b2 01 60
        E 5 b2 01 63
        E 5 b2 01 66
        E 5 b2 01 68
        E 5 b2 01 6a
        E 5 b2 01 6d
        E 5 b2 01 6f
        E 5 b2 01 71
        E 5 b2 01 73
        E 5 b2 01 75
        E 5 b2 01 76
        E 5 b2 01 78
        E 5 b2 01 79
        E 5 b2 01 7a
        E 5 b2 01 7b
        E 5 b2 01 7c
        E 5 b2 01 7d
        E 5 b2 01 7e
        E 5 b2 01 7e
        E 5 b2 01 7f
        E 5 b2 01 7f
        E 5 b2 01 7f
        E 5 b2 01 7f
        E 5 b2 01 7f
        E 5 b2 01 7e
        E 5 b2 01 7e
        E 5 b2 01 7d
        E 5 b2 01 7c
        E 5 b2 01 7b
        E 5 b2 01 7a
        E 5 b2 01 78
        E 5 b2 01 77
        E 5 b2 01 75
        E 5 b2 01 74
        E 5 b2 01 72
        E 5 b2 01 70
        E 5 b2 01 6e
        E 5 b2 01 6c
        E 5 b2 01 69
        E 5 b2 01 67
        E 5 b2 01 64
        E 5 b2 01 62
        E 5 b2 01 5f
        E 5 b2 01 5c
        E 5 b2 01 59
        E 5 b2 01 57
        E 5 b2 01 54
        E 5 b2 01 51
        E 5 b2 01 4e
        E 5 b2 01 4a
        E 5 b2 01 47
        E 5 b2 01 44
        E 5 b2 01 41
        E 5 b2 01 3e
        E 5 b2 01 3b
        E 5 b2 01 38
        E 5 b2 01 35
        E 5 b2 01 31
        E 5 b2 01 2e
        E 5 b2 01 2b
        E 5 b2 01 28
        E 5 b2 01 26
        E 5 b2 01 23
        E 5 b2 01 20
        E 5 b2 01 1d
        E 5 b2 01 1b
        E 5 b2 01 18
        E 5 b2 01 16
        E 5 b2 01 13
        E 5 b2 01 11
        E 5 b2 01 0f
        E 5 b2 01 0d
        E 5 b2 01 0b
        E 5 b2 01 0a
        E 5 b2 01 08
        E 5 b2 01 07
        E 5 b2 01 05
        E 5 b2 01 04
        E 5 b2 01 03
        E 5 b2 01 02
        E 5 b2 01 01
        E 5 b2 01 01
        E 5 b2 01 00
        E 5 b2 01 00
        E 5 b2 01 00
        E 5 b2 01 00
        E 5 b2 01 00
        E 5 b2 01 01
        E 5 b2 01 01
        E 5 b2 01 02
        E 5 b2 01 03
        E 5 b2 01 04
        E 5 b2 01 05
        E 5 b2 01 06
        E 5 b2 01 07
        E 5 b2 01 09
        E 5 b2 01 0a
        E 5 b2 01 0c
        E 5 b2 01 0e
        E 5 b2 01 10
        E 5 b2 01 12
        E 5 b2 01 15
        E 5 b2 01 17
        E 5 b2 01 19
        E 5 b2 01 1c
        E 5 b2 01 1f
        E 5 b2 01 21
        E 5 b2 01 24
        E 5 b2 01 27
        E 5 b2 01 2a
        E 5 b2 01 2d
        E 5 b2 01 30
        E 5 b2 01 33
        E 5 b2 01 36
        E 5 b2 01 39
        E 5 b2 01 3c
        E 5 b2 01 40
        E 9 b2 01 39
        E 9 b2 01 3c
        E 9 b2 01 3f
        E 9 b2 01 41
        E 9 b2 01 44
        E 9 b2 01 47
        E 9 b2 01 49
        E 9 b2 01 4c
        E 9 b2 01 4f
        E 9 b2 01 51
        E 9 b2 01 54
        E 9 b2 01 56
        E 9 b2 01 59
        E 9 b2 01 5b
        E 9 b2 01 5d
        E 9 b2 01 5f
        E 9 b2 01 62
        E 9 b2 01 63
        E 9 b2 01 65
        E 9 b2 01 67
        E 9 b2 01 69
        E 9 b2 01 6a
        E 9 b2 01 6c
        E 9 b2 01 6c
        E 9 b2 01 6d
        E 9 b2 01 6e
        E 9 b2 01 6f
        E 9 b2 01 70
        E 9 b2 01 71
        E 9 b2 01 71
        E 9 b2 01 72
        E 9 b2 01 72
        E 9 b2 01 72
        E 9 b2 01 72
        E 9 b2 01 72
        E 9 b2 01 71
        E 9 b2 01 71
        E 9 b2 01 70
        E 9 b2 01 6f
        E 9 b2 01 6e
        E 9 b2 01 6d
        E 9 b2 01 6c
        E 9 b2 01 6b
        E 9 b2 01 69
        E 9 b2 01 68
        E 9 b2 01 66
        E 9 b2 01 64
        E 9 b2 01 63
        E 9 b2 01 61
        E 9 b2 01 5e
        E 9 b2 01 5c
        E 9 b2 01 5a
        E 9 b2 01 58
        E 9 b2 01 55
        E 9 b2 01 52
        E 9 b2 01 50
        E 9 b2 01 4e
        E 9 b2 01 4b
        E 9 b2 01 48
        E 9 b2 01 46
        E 9 b2 01 42
        E 9 b2 01 3f
        E 9 b2 01 3d
        E 9 b2 01 3a
        E 9 b2 01 37
        E 9 b2 01 35
        E 9 b2 01 32
        E 9 b2 01 2f
        E 9 b2 01 2c
        E 9 b2 01 29
        E 9 b2 01 26
        E 9 b2 01 24
        E 9 b2 01 22
        E 9 b2 01 1f
        E 9 b2 01 1c
        E 9 b2 01 1a
        E 9 b2 01 18
        E 9 b2 01 15
        E 9 b2 01 13
        E 9 b2 01 11
        E 9 b2 01 0f
        E 9 b2 01 0d
        E 9 b2 01 0b
        E 9 b2 01 09
        E 9 b2 01 09
        E 9 b2 01 07
        E 9 b2 01 06
        E 9 b2 01 04
        E 9 b2 01 03
        E 9 b2 01 02
        E 9 b2 01 01
        E 9 b2 01 00
        E 9 b2 01 00
        E 9 b2 01 00
        E 9 b2 01 00
        E 9 b2 01 00
        E 9 b2 01 00
        E 9 b2 01 00
        E 9 b2 01 00
        E 9 b2 01 00
        E 9 b2 01 01
        E 9 b2 01 02
        E 9 b2 01 03
        E 9 b2 01 04
        E 9 b2 01 05
        E 9 b2 01 06
        E 9 b2 01 08
        E 9 b2 01 09
        E 9 b2 01 0a
        E 9 b2 01 0c
        E 9 b2 01 0e
        E 9 b2 01 10
        E 9 b2 01 12
        E 9 b2 01 14
        E 9 b2 01 16
        E 9 b2 01 19
        E 9 b2 01 1b
        E 9 b2 01 1d
        E 9 b2 01 20
        E 9 b2 01 23
        E 9 b2 01 25
        E 9 b2 01 28
        E 9 b2 01 2b
        E 9 b2 01 2d
        E 9 b2 01 30
        E 9 b2 01 33
        E 9 b2 01 36
        E 9 b2 01 39
        E 7 b2 01 20
        E 7 b2 01 21
        E 7 b2 01 23
        E 7 b2 01 24
        E 7 b2 01 26
        E 7 b2 01 27
        E 7 b2 01 29
        E 7 b2 01 2a
        E 7 b2 01 2c
        E 7 b2 01 2d
        E 7 b2 01 2f
        E 7 b2 01 30
        E 7 b2 01 31
        E 7 b2 01 33
        E 7 b2 01 34
        E 7 b2 01 35
        E 7 b2 01 36
        E 7 b2 01 37
        E 7 b2 01 38
        E 7 b2 01 39
        E 7 b2 01 3a
        E 7 b2 01 3b
        E 7 b2 01 3c
        E 7 b2 01 3c
        E 7 b2 01 3d
        E 7 b2 01 3d
        E 7 b2 01 3e
        E 7 b2 01 3e
        E 7 b2 01 3f
        E 7 b2 01 3f
        E 7 b2 01 3f
        E 7 b2 01 3f
        E 7 b2 01 3f
        E 7 b2 01 3f
        E 7 b2 01 3f
        E 7 b2 01 3f
        E 7 b2 01 3f
        E 7 b2 01 3e
        E 7 b2 01 3e
        E 7 b2 01 3d
        E 7 b2 01 3d
        E 7 b2 01 3c
        E 7 b2 01 3b
        E 7 b2 01 3a
        E 7 b2 01 3a
        E 7 b2 01 39
        E 7 b2 01 38
        E 7 b2 01 37
        E 7 b2 01 36
        E 7 b2 01 34
        E 7 b2 01 33
        E 7 b2 01 32
        E 7 b2 01 31
        E 7 b2 01 2f
        E 7 b2 01 2e
        E 7 b2 01 2c
        E 7 b2 01 2b
        E 7 b2 01 2a
        E 7 b2 01 28
        E 7 b2 01 27
        E 7 b2 01 25
        E 7 b2 01 23
        E 7 b2 01 22
        E 7 b2 01 20
        E 7 b2 01 1f
        E 7 b2 01 1d
        E 7 b2 01 1c
        E 7 b2 01 1a
        E 7 b2 01 18
        E 7 b2 01 17
        E 7 b2 01 15
        E 7 b2 01 14
        E 7 b2 01 13
        E 7 b2 01 11
        E 7 b2 01 10
        E 7 b2 01 0e
        E 7 b2 01 0d
        E 7 b2 01 0c
        E 7 b2 01 0b
        E 7 b2 01 09
        E 7 b2 01 08
        E 7 b2 01 07
        E 7 b2 01 06
        E 7 b2 01 05
        E 7 b2 01 05
        E 7 b2 01 04
        E 7 b2 01 03
        E 7 b2 01 02
        E 7 b2 01 02
        E 7 b2 01 01
        E 7 b2 01 01
        E 7 b2 01 00
        E 7 b2 01 00
        E 7 b2 01 00
        E 7 b2 01 00
        E 7 b2 01 00
        E 7 b2 01 00
        E 7 b2 01 00
        E 7 b2 01 00
        E 7 b2 01 00
        E 7 b2 01 01
        E 7 b2 01 01
        E 7 b2 01 02
        E 7 b2 01 02
        E 7 b2 01 03
        E 7 b2 01 03
        E 7 b2 01 04
        E 7 b2 01 05
        E 7 b2 01 06
        E 7 b2 01 07
        E 7 b2 01 08
        E 7 b2 01 09
        E 7 b2 01 0a
        E 7 b2 01 0b
        E 7 b2 01 0c
        E 7 b2 01 0e
        E 7 b2 01 0f
        E 7 b2 01 10
        E 7 b2 01 12
        E 7 b2 01 13
        E 7 b2 01 15
        E 7 b2 01 16
        E 7 b2 01 18
        E 7 b2 01 19
        E 7 b2 01 1b
        E 7 b2 01 1c
        E 7 b2 01 1e
        E 7 b2 01 20
        E 7 b2 01 20
        E 7 b2 01 21
        E 7 b2 01 23
        E 7 b2 01 24
        E 7 b2 01 26
        E 7 b2 01 27
        E 7 b2 01 29
        E 7 b2 01 2a
        E 7 b2 01 2c
        E 7 b2 01 2d
        E 7 b2 01 2f
        E 7 b2 01 30
        E 7 b2 01 31
        E 7 b2 01 33
        E 7 b2 01 34
        E 7 b2 01 35
        E 7 b2 01 36
        E 7 b2 01 37
        E 7 b2 01 38
        E 7 b2 01 39
        E 7 b2 01 3a
        E 7 b2 01 3b
        E 7 b2 01 3c
        E 7 b2 01 3c
        E 7 b2 01 3d
        E 7 b2 01 3d
        E 7 b2 01 3e
        E 7 b2 01 3e
        E 7 b2 01 3f
        E 7 b2 01 3f
        E 7 b2 01 3f
        E 7 b2 01 3f
        E 7 b2 01 3f
        E 7 b2 01 3f
        E 7 b2 01 3f
        E 7 b2 01 3f
        E 7 b2 01 3f
        E 7 b2 01 3e
        E 7 b2 01 3e
        E 7 b2 01 3d
        E 7 b2 01 3d
        E 7 b2 01 3c
        E 7 b2 01 3b
        E 7 b2 01 3a
        E 7 b2 01 3a
        E 7 b2 01 39
        E 7 b2 01 38
        E 7 b2 01 37
        E 7 b2 01 36
        E 7 b2 01 34
        E 7 b2 01 33
        E 7 b2 01 32
        E 7 b2 01 31
        E 7 b2 01 2f
        E 7 b2 01 2e
        E 7 b2 01 2c
        E 7 b2 01 2b
        E 7 b2 01 2a
        E 7 b2 01 28
        E 7 b2 01 27
        E 7 b2 01 25
        E 7 b2 01 23
        E 7 b2 01 22
        E 7 b2 01 20
        E 7 b2 01 1f
        E 7 b2 01 1d
        E 7 b2 01 1c
        E 7 b2 01 1a
        E 7 b2 01 18
        E 7 b2 01 17
        E 7 b2 01 15
        E 7 b2 01 14
        E 7 b2 01 13
        E 7 b2 01 11
        E 7 b2 01 10
        E 7 b2 01 0e
        E 7 b2 01 0d
        E 7 b2 01 0c
        E 7 b2 01 0b
        E 7 b2 01 09
        E 7 b2 01 08
        E 7 b2 01 07
        E 7 b2 01 06
        E 7 b2 01 05
        E 7 b2 01 05
        E 7 b2 01 04
        E 7 b2 01 03
        E 7 b2 01 02
        E 7 b2 01 02
        E 7 b2 01 01
        E 7 b2 01 01
        E 7 b2 01 00
        E 7 b2 01 00
        E 7 b2 01 00
        E 7 b2 01 00
        E 7 b2 01 00
        E 7 b2 01 00
        E 7 b2 01 00
        E 7 b2 01 00
        E 7 b2 01 00
        E 7 b2 01 01
        E 7 b2 01 01
        E 7 b2 01 02
        E 7 b2 01 02
        E 7 b2 01 03
        E 7 b2 01 03
        E 7 b2 01 04
        E 7 b2 01 05
        E 7 b2 01 06
        E 7 b2 01 07
        E 7 b2 01 08
        E 7 b2 01 09
        E 7 b2 01 0a
        E 7 b2 01 0b
        E 7 b2 01 0c
        E 7 b2 01 0e
        E 7 b2 01 0f
        E 7 b2 01 10
        E 7 b2 01 12
        E 7 b2 01 13
        E 7 b2 01 15
        E 7 b2 01 16
        E 7 b2 01 18
        E 7 b2 01 19
        E 7 b2 01 1b
        E 7 b2 01 1c
        E 7 b2 01 1e
        E 7 b2 01 20
        E 14 b2 01 2c
        E 14 b2 01 2e
        E 14 b2 01 31
        E 14 b2 01 33
        E 14 b2 01 35
        E 14 b2 01 37
        E 14 b2 01 39
        E 14 b2 01 3b
        E 14 b2 01 3d
        E 14 b2 01 3f
        E 14 b2 01 41
        E 14 b2 01 43
        E 14 b2 01 45
        E 14 b2 01 47
        E 14 b2 01 48
        E 14 b2 01 4a
        E 14 b2 01 4c
        E 14 b2 01 4d
        E 14 b2 01 4f
        E 14 b2 01 50
        E 14 b2 01 51
        E 14 b2 01 52
        E 14 b2 01 54
        E 14 b2 01 54
        E 14 b2 01 55
        E 14 b2 01 56
        E 14 b2 01 56
        E 14 b2 01 57
        E 14 b2 01 58
        E 14 b2 01 58
        E 14 b2 01 58
        E 14 b2 01 58
        E 14 b2 01 58
        E 14 b2 01 58
        E 14 b2 01 58
        E 14 b2 01 58
        E 14 b2 01 58
        E 14 b2 01 57
        E 14 b2 01 56
        E 14 b2 01 56
        E 14 b2 01 55
        E 14 b2 01 54
        E 14 b2 01 53
        E 14 b2 01 51
        E 14 b2 01 51
        E 14 b2 01 4f
        E 14 b2 01 4e
        E 14 b2 01 4d
        E 14 b2 01 4b
        E 14 b2 01 49
        E 14 b2 01 48
        E 14 b2 01 46
        E 14 b2 01 44
        E 14 b2 01 42
        E 14 b2 01 40
        E 14 b2 01 3e
        E 14 b2 01 3c
        E 14 b2 01 3a
        E 14 b2 01 38
        E 14 b2 01 36
        E 14 b2 01 33
        E 14 b2 01 31
        E 14 b2 01 2f
        E 14 b2 01 2d
        E 14 b2 01 2b
        E 14 b2 01 29
        E 14 b2 01 27
        E 14 b2 01 25
        E 14 b2 01 22
        E 14 b2 01 20
        E 14 b2 01 1e
        E 14 b2 01 1c
        E 14 b2 01 1a
        E 14 b2 01 18
        E 14 b2 01 16
        E 14 b2 01 14
        E 14 b2 01 12
        E 14 b2 01 10
        E 14 b2 01 0f
        E 14 b2 01 0d
        E 14 b2 01 0b
        E 14 b2 01 0a
        E 14 b2 01 09
        E 14 b2 01 07
        E 14 b2 01 07
        E 14 b2 01 05
        E 14 b2 01 04
        E 14 b2 01 03
        E 14 b2 01 02
        E 14 b2 01 02
        E 14 b2 01 01
        E 14 b2 01 00
        E 14 b2 01 00
        E 14 b2 01 00
        E 14 b2 01 00
        E 14 b2 01 00
        E 14 b2 01 00
        E 14 b2 01 00
        E 14 b2 01 00
        E 14 b2 01 00
        E 14 b2 01 01
        E 14 b2 01 02
        E 14 b2 01 02
        E 14 b2 01 03
        E 14 b2 01 04
        E 14 b2 01 04
        E 14 b2 01 06
        E 14 b2 01 07
        E 14 b2 01 08
        E 14 b2 01 09
        E 14 b2 01 0b
        E 14 b2 01 0c
        E 14 b2 01 0e
        E 14 b2 01 10
        E 14 b2 01 11
        E 14 b2 01 13
        E 14 b2 01 15
        E 14 b2 01 17
        E 14 b2 01 19
        E 14 b2 01 1b
        E 14 b2 01 1d
        E 14 b2 01 1f
        E 14 b2 01 21
        E 14 b2 01 23
        E 14 b2 01 25
        E 14 b2 01 27
        E 14 b2 01 2a
        E 14 b2 01 2c
        E 12 b2 01 33
        E 12 b2 01 35
        E 12 b2 01 37
        E 12 b2 01 3a
        E 12 b2 01 3c
        E 12 b2 01 3f
        E 12 b2 01 41
        E 12 b2 01 44
        E 12 b2 01 46
        E 12 b2 01 48
        E 12 b2 01 4b
        E 12 b2 01 4c
        E 12 b2 01 4f
        E 12 b2 01 51
        E 12 b2 01 53
        E 12 b2 01 54
        E 12 b2 01 57
        E 12 b2 01 58
        E 12 b2 01 5a
        E 12 b2 01 5b
        E 12 b2 01 5d
        E 12 b2 01 5e
        E 12 b2 01 5f
        E 12 b2 01 60
        E 12 b2 01 61
        E 12 b2 01 62
        E 12 b2 01 63
        E 12 b2 01 63
        E 12 b2 01 64
        E 12 b2 01 64
        E 12 b2 01 65
        E 12 b2 01 65
        E 12 b2 01 65
        E 12 b2 01 65
        E 12 b2 01 65
        E 12 b2 01 64
        E 12 b2 01 64
        E 12 b2 01 63
        E 12 b2 01 63
        E 12 b2 01 62
        E 12 b2 01 61
        E 12 b2 01 5f
        E 12 b2 01 5f
        E 12 b2 01 5d
        E 12 b2 01 5c
        E 12 b2 01 5b
        E 12 b2 01 59
        E 12 b2 01 57
        E 12 b2 01 56
        E 12 b2 01 54
        E 12 b2 01 52
        E 12 b2 01 50
        E 12 b2 01 4e
        E 12 b2 01 4c
        E 12 b2 01 49
        E 12 b2 01 47
        E 12 b2 01 45
        E 12 b2 01 43
        E 12 b2 01 40
        E 12 b2 01 3e
        E 12 b2 01 3b
        E 12 b2 01 38
        E 12 b2 01 36
        E 12 b2 01 33
        E 12 b2 01 31
        E 12 b2 01 2f
        E 12 b2 01 2c
        E 12 b2 01 2a
        E 12 b2 01 27
        E 12 b2 01 24
        E 12 b2 01 22
        E 12 b2 01 1f
        E 12 b2 01 1e
        E 12 b2 01 1b
        E 12 b2 01 19
        E 12 b2 01 17
        E 12 b2 01 15
        E 12 b2 01 13
        E 12 b2 01 11
        E 12 b2 01 0f
        E 12 b2 01 0d
        E 12 b2 01 0b
        E 12 b2 01 0a
        E 12 b2 01 08
        E 12 b2 01 07
        E 12 b2 01 06
        E 12 b2 01 05
        E 12 b2 01 03
        E 12 b2 01 03
        E 12 b2 01 02
        E 12 b2 01 01
        E 12 b2 01 00
        E 12 b2 01 00
        E 12 b2 01 00
        E 12 b2 01 00
        E 12 b2 01 00
        E 12 b2 01 00
        E 12 b2 01 00
        E 12 b2 01 00
        E 12 b2 01 00
        E 12 b2 01 01
        E 12 b2 01 02
        E 12 b2 01 03
        E 12 b2 01 03
        E 12 b2 01 04
        E 12 b2 01 05
        E 12 b2 01 07
        E 12 b2 01 07
        E 12 b2 01 09
        E 12 b2 01 0b
        E 12 b2 01 0c
        E 12 b2 01 0e
        E 12 b2 01 10
        E 12 b2 01 12
        E 12 b2 01 14
        E 12 b2 01 16
        E 12 b2 01 18
        E 12 b2 01 1a
        E 12 b2 01 1c
        E 12 b2 01 1f
        E 12 b2 01 21
        E 12 b2 01 24
        E 12 b2 01 26
        E 12 b2 01 28
        E 12 b2 01 2b
        E 12 b2 01 2d
        E 12 b2 01 2f
        E 12 b2 01 33
        E 14 b2 01 06
        E 14 b2 01 06
        E 14 b2 01 07
        E 14 b2 01 07
        E 14 b2 01 07
        E 14 b2 01 07
        E 14 b2 01 08
        E 14 b2 01 08
        E 14 b2 01 08
        E 14 b2 01 09
        E 14 b2 01 09
        E 14 b2 01 09
        E 14 b2 01 09
        E 14 b2 01 0a
        E 14 b2 01 0a
        E 14 b2 01 0a
        E 14 b2 01 0a
        E 14 b2 01 0b
        E 14 b2 01 0b
        E 14 b2 01 0b
        E 14 b2 01 0b
        E 14 b2 01 0b
        E 14 b2 01 0c
        E 14 b2 01 0c
        E 14 b2 01 0c
        E 14 b2 01 0c
        E 14 b2 01 0c
        E 14 b2 01 0c
        E 14 b2 01 0c
        E 14 b2 01 0c
        E 14 b2 01 0c
        E 14 b2 01 0c
        E 14 b2 01 0c
        E 14 b2 01 0c
        E 14 b2 01 0c
        E 14 b2 01 0c
        E 14 b2 01 0c
        E 14 b2 01 0c
        E 14 b2 01 0c
        E 14 b2 01 0c
        E 14 b2 01 0c
        E 14 b2 01 0c
        E 14 b2 01 0b
        E 14 b2 01 0b
        E 14 b2 01 0b
        E 14 b2 01 0b
        E 14 b2 01 0b
        E 14 b2 01 0b
        E 14 b2 01 0a
        E 14 b2 01 0a
        E 14 b2 01 0a
        E 14 b2 01 0a
        E 14 b2 01 09
        E 14 b2 01 09
        E 14 b2 01 09
        E 14 b2 01 08
        E 14 b2 01 08
        E 14 b2 01 08
        E 14 b2 01 08
        E 14 b2 01 07
        E 14 b2 01 07
        E 14 b2 01 07
        E 14 b2 01 06
        E 14 b2 01 06
        E 14 b2 01 06
        E 14 b2 01 05
        E 14 b2 01 05
        E 14 b2 01 05
        E 14 b2 01 04
        E 14 b2 01 04
        E 14 b2 01 04
        E 14 b2 01 04
        E 14 b2 01 03
        E 14 b2 01 03
        E 14 b2 01 03
        E 14 b2 01 02
        E 14 b2 01 02
        E 14 b2 01 02
        E 14 b2 01 02
        E 14 b2 01 01
        E 14 b2 01 01
        E 14 b2 01 01
        E 14 b2 01 01
        E 14 b2 01 01
        E 14 b2 01 01
        E 14 b2 01 00
        E 14 b2 01 00
        E 14 b2 01 00
        E 14 b2 01 00
        E 14 b2 01 00
        E 14 b2 01 00
        E 14 b2 01 00
        E 14 b2 01 00
        E 14 b2 01 00
        E 14 b2 01 00
        E 14 b2 01 00
        E 14 b2 01 00
        E 14 b2 01 00
        E 14 b2 01 00
        E 14 b2 01 00
        E 14 b2 01 00
        E 14 b2 01 00
        E 14 b2 01 00
        E 14 b2 01 00
        E 14 b2 01 00
        E 14 b2 01 00
        E 14 b2 01 00
        E 14 b2 01 01
        E 14 b2 01 01
        E 14 b2 01 01
        E 14 b2 01 01
        E 14 b2 01 01
        E 14 b2 01 02
        E 14 b2 01 02
        E 14 b2 01 02
        E 14 b2 01 02
        E 14 b2 01 03
        E 14 b2 01 03
        E 14 b2 01 03
        E 14 b2 01 03
        E 14 b2 01 04
        E 14 b2 01 04
        E 14 b2 01 04
        E 14 b2 01 05
        E 14 b2 01 05
        E 14 b2 01 05
        E 14 b2 01 06
        E 14 b2 01 06
        E 12 b2 01 19
        E 12 b2 01 1a
        E 12 b2 01 1c
        E 12 b2 01 1d
        E 12 b2 01 1e
        E 12 b2 01 1f
        E 12 b2 01 20
        E 12 b2 01 22
        E 12 b2 01 23
        E 12 b2 01 24
        E 12 b2 01 25
        E 12 b2 01 26
        E 12 b2 01 27
        E 12 b2 01 28
        E 12 b2 01 29
        E 12 b2 01 2a
        E 12 b2 01 2b
        E 12 b2 01 2c
        E 12 b2 01 2d
        E 12 b2 01 2e
        E 12 b2 01 2e
        E 12 b2 01 2f
        E 12 b2 01 30
        E 12 b2 01 30
        E 12 b2 01 30
        E 12 b2 01 31
        E 12 b2 01 31
        E 12 b2 01 32
        E 12 b2 01 32
        E 12 b2 01 32
        E 12 b2 01 32
        E 12 b2 01 32
        E 12 b2 01 32
        E 12 b2 01 32
        E 12 b2 01 32
        E 12 b2 01 32
        E 12 b2 01 32
        E 12 b2 01 32
        E 12 b2 01 31
        E 12 b2 01 31
        E 12 b2 01 30
        E 12 b2 01 30
        E 12 b2 01 2f
        E 12 b2 01 2e
        E 12 b2 01 2e
        E 12 b2 01 2d
        E 12 b2 01 2c
        E 12 b2 01 2c
        E 12 b2 01 2b
        E 12 b2 01 2a
        E 12 b2 01 29
        E 12 b2 01 28
        E 12 b2 01 27
        E 12 b2 01 26
        E 12 b2 01 24
        E 12 b2 01 23
        E 12 b2 01 22
        E 12 b2 01 21
        E 12 b2 01 20
        E 12 b2 01 1f
        E 12 b2 01 1d
        E 12 b2 01 1c
        E 12 b2 01 1b
        E 12 b2 01 1a
        E 12 b2 01 18
        E 12 b2 01 17
        E 12 b2 01 16
        E 12 b2 01 15
        E 12 b2 01 13
        E 12 b2 01 12
        E 12 b2 01 11
        E 12 b2 01 10
        E 12 b2 01 0f
        E 12 b2 01 0e
        E 12 b2 01 0c
        E 12 b2 01 0b
        E 12 b2 01 0a
        E 12 b2 01 09
        E 12 b2 01 08
        E 12 b2 01 07
        E 12 b2 01 06
        E 12 b2 01 06
        E 12 b2 01 05
        E 12 b2 01 04
        E 12 b2 01 04
        E 12 b2 01 03
        E 12 b2 01 02
        E 12 b2 01 02
        E 12 b2 01 01
        E 12 b2 01 01
        E 12 b2 01 00
        E 12 b2 01 00
        E 12 b2 01 00
        E 12 b2 01 00
        E 12 b2 01 00
        E 12 b2 01 00
        E 12 b2 01 00
        E 12 b2 01 00
        E 12 b2 01 00
        E 12 b2 01 00
        E 12 b2 01 00
        E 12 b2 01 01
        E 12 b2 01 01
        E 12 b2 01 02
        E 12 b2 01 02
        E 12 b2 01 02
        E 12 b2 01 03
        E 12 b2 01 04
        E 12 b2 01 04
        E 12 b2 01 05
        E 12 b2 01 06
        E 12 b2 01 07
        E 12 b2 01 08
        E 12 b2 01 09
        E 12 b2 01 0a
        E 12 b2 01 0b
        E 12 b2 01 0c
        E 12 b2 01 0d
        E 12 b2 01 0e
        E 12 b2 01 0f
        E 12 b2 01 10
        E 12 b2 01 12
        E 12 b2 01 13
        E 12 b2 01 14
        E 12 b2 01 15
        E 12 b2 01 16
        E 12 b2 01 18
        E 12 b2 01 19
        E 7 b2 01 2c
        E 7 b2 01 2e
        E 7 b2 01 31
        E 7 b2 01 33
        E 7 b2 01 35
        E 7 b2 01 37
        E 7 b2 01 39
        E 7 b2 01 3b
        E 7 b2 01 3d
        E 7 b2 01 3f
        E 7 b2 01 41
        E 7 b2 01 43
        E 7 b2 01 45
        E 7 b2 01 47
        E 7 b2 01 48
        E 7 b2 01 4a
        E 7 b2 01 4c
        E 7 b2 01 4d
        E 7 b2 01 4f
        E 7 b2 01 50
        E 7 b2 01 51
        E 7 b2 01 52
        E 7 b2 01 54
        E 7 b2 01 54
        E 7 b2 01 55
        E 7 b2 01 56
        E 7 b2 01 56
        E 7 b2 01 57
        E 7 b2 01 58
        E 7 b2 01 58
        E 7 b2 01 58
        E 7 b2 01 58
        E 7 b2 01 58
        E 7 b2 01 58
        E 7 b2 01 58
        E 7 b2 01 58
        E 7 b2 01 58
        E 7 b2 01 57
        E 7 b2 01 56
        E 7 b2 01 56
        E 7 b2 01 55
        E 7 b2 01 54
        E 7 b2 01 53
        E 7 b2 01 51
        E 7 b2 01 51
        E 7 b2 01 4f
        E 7 b2 01 4e
        E 7 b2 01 4d
        E 7 b2 01 4b
        E 7 b2 01 49
        E 7 b2 01 48
        E 7 b2 01 46
        E 7 b2 01 44
        E 7 b2 01 42
        E 7 b2 01 40
        E 7 b2 01 3e
        E 7 b2 01 3c
        E 7 b2 01 3a
        E 7 b2 01 38
        E 7 b2 01 36
        E 7 b2 01 33
        E 7 b2 01 31
        E 7 b2 01 2f
        E 7 b2 01 2d
        E 7 b2 01 2b
        E 7 b2 01 29
        E 7 b2 01 27
        E 7 b2 01 25
        E 7 b2 01 22
        E 7 b2 01 20
        E 7 b2 01 1e
        E 7 b2 01 1c
        E 7 b2 01 1a
        E 7 b2 01 18
        E 7 b2 01 16
        E 7 b2 01 14
        E 7 b2 01 12
        E 7 b2 01 10
        E 7 b2 01 0f
        E 7 b2 01 0d
        E 7 b2 01 0b
        E 7 b2 01 0a
        E 7 b2 01 09
        E 7 b2 01 07
        E 7 b2 01 07
        E 7 b2 01 05
        E 7 b2 01 04
        E 7 b2 01 03
        E 7 b2 01 02
        E 7 b2 01 02
        E 7 b2 01 01
        E 7 b2 01 00
        E 7 b2 01 00
        E 7 b2 01 00
        E 7 b2 01 00
        E 7 b2 01 00
        E 7 b2 01 00
        E 7 b2 01 00
        E 7 b2 01 00
        E 7 b2 01 00
        E 7 b2 01 01
        E 7 b2 01 02
        E 7 b2 01 02
        E 7 b2 01 03
        E 7 b2 01 04
        E 7 b2 01 04
        E 7 b2 01 06
        E 7 b2 01 07
        E 7 b2 01 08
        E 7 b2 01 09
        E 7 b2 01 0b
        E 7 b2 01 0c
        E 7 b2 01 0e
        E 7 b2 01 10
        E 7 b2 01 11
        E 7 b2 01 13
        E 7 b2 01 15
        E 7 b2 01 17
        E 7 b2 01 19
        E 7 b2 01 1b
        E 7 b2 01 1d
        E 7 b2 01 1f
        E 7 b2 01 21
        E 7 b2 01 23
        E 7 b2 01 25
        E 7 b2 01 27
        E 7 b2 01 2a
        E 7 b2 01 2c
        E 7 b2 01 20
        E 7 b2 01 21
        E 7 b2 01 23
        E 7 b2 01 24
        E 7 b2 01 26
        E 7 b2 01 27
        E 7 b2 01 29
        E 7 b2 01 2a
        E 7 b2 01 2c
        E 7 b2 01 2d
        E 7 b2 01 2f
        E 7 b2 01 30
        E 7 b2 01 31
        E 7 b2 01 33
        E 7 b2 01 34
        E 7 b2 01 35
        E 7 b2 01 36
        E 7 b2 01 37
        E 7 b2 01 38
        E 7 b2 01 39
        E 7 b2 01 3a
        E 7 b2 01 3b
        E 7 b2 01 3c
        E 7 b2 01 3c
        E 7 b2 01 3d
        E 7 b2 01 3d
        E 7 b2 01 3e
        E 7 b2 01 3e
        E 7 b2 01 3f
        E 7 b2 01 3f
        E 7 b2 01 3f
        E 7 b2 01 3f
        E 7 b2 01 3f
        E 7 b2 01 3f
        E 7 b2 01 3f
        E 7 b2 01 3f
        E 7 b2 01 3f
        E 7 b2 01 3e
        E 7 b2 01 3e
        E 7 b2 01 3d
        E 7 b2 01 3d
        E 7 b2 01 3c
        E 7 b2 01 3b
        E 7 b2 01 3a
        E 7 b2 01 3a
        E 7 b2 01 39
        E 7 b2 01 38
        E 7 b2 01 37
        E 7 b2 01 36
        E 7 b2 01 34
        E 7 b2 01 33
        E 7 b2 01 32
        E 7 b2 01 31
        E 7 b2 01 2f
        E 7 b2 01 2e
        E 7 b2 01 2c
        E 7 b2 01 2b
        E 7 b2 01 2a
        E 7 b2 01 28
        E 7 b2 01 27
        E 7 b2 01 25
        E 7 b2 01 23
        E 7 b2 01 22
        E 7 b2 01 20
        E 7 b2 01 1f
        E 7 b2 01 1d
        E 7 b2 01 1c
        E 7 b2 01 1a
        E 7 b2 01 18
        E 7 b2 01 17
        E 7 b2 01 15
        E 7 b2 01 14
        E 7 b2 01 13
        E 7 b2 01 11
        E 7 b2 01 10
        E 7 b2 01 0e
        E 7 b2 01 0d
        E 7 b2 01 0c
        E 7 b2 01 0b
        E 7 b2 01 09
        E 7 b2 01 08
        E 7 b2 01 07
        E 7 b2 01 06
        E 7 b2 01 05
        E 7 b2 01 05
        E 7 b2 01 04
        E 7 b2 01 03
        E 7 b2 01 02
        E 7 b2 01 02
        E 7 b2 01 01
        E 7 b2 01 01
        E 7 b2 01 00
        E 7 b2 01 00
        E 7 b2 01 00
        E 7 b2 01 00
        E 7 b2 01 00
        E 7 b2 01 00
        E 7 b2 01 00
        E 7 b2 01 00
        E 7 b2 01 00
        E 7 b2 01 01
        E 7 b2 01 01
        E 7 b2 01 02
        E 7 b2 01 02
        E 7 b2 01 03
        E 7 b2 01 03
        E 7 b2 01 04
        E 7 b2 01 05
        E 7 b2 01 06
        E 7 b2 01 07
        E 7 b2 01 08
        E 7 b2 01 09
        E 7 b2 01 0a
        E 7 b2 01 0b
        E 7 b2 01 0c
        E 7 b2 01 0e
        E 7 b2 01 0f
        E 7 b2 01 10
        E 7 b2 01 12
        E 7 b2 01 13
        E 7 b2 01 15
        E 7 b2 01 16
        E 7 b2 01 18
        E 7 b2 01 19
        E 7 b2 01 1b
        E 7 b2 01 1c
        E 7 b2 01 1e
        E 7 b2 01 20
        E 9 b2 01 20
        E 9 b2 01 21
        E 9 b2 01 23
        E 9 b2 01 24
        E 9 b2 01 26
        E 9 b2 01 27
        E 9 b2 01 29
        E 9 b2 01 2a
        E 9 b2 01 2c
        E 9 b2 01 2d
        E 9 b2 01 2f
        E 9 b2 01 30
        E 9 b2 01 31
        E 9 b2 01 33
        E 9 b2 01 34
        E 9 b2 01 35
        E 9 b2 01 36
        E 9 b2 01 37
        E 9 b2 01 38
        E 9 b2 01 39
        E 9 b2 01 3a
        E 9 b2 01 3b
        E 9 b2 01 3c
        E 9 b2 01 3c
        E 9 b2 01 3d
        E 9 b2 01 3d
        E 9 b2 01 3e
        E 9 b2 01 3e
        E 9 b2 01 3f
        E 9 b2 01 3f
        E 9 b2 01 3f
        E 9 b2 01 3f
        E 9 b2 01 3f
        E 9 b2 01 3f
        E 9 b2 01 3f
        E 9 b2 01 3f
        E 9 b2 01 3f
        E 9 b2 01 3e
        E 9 b2 01 3e
        E 9 b2 01 3d
        E 9 b2 01 3d
        E 9 b2 01 3c
        E 9 b2 01 3b
        E 9 b2 01 3a
        E 9 b2 01 3a
        E 9 b2 01 39
        E 9 b2 01 38
        E 9 b2 01 37
        E 9 b2 01 36
        E 9 b2 01 34
        E 9 b2 01 33
        E 9 b2 01 32
        E 9 b2 01 31
        E 9 b2 01 2f
        E 9 b2 01 2e
        E 9 b2 01 2c
        E 9 b2 01 2b
        E 9 b2 01 2a
        E 9 b2 01 28
        E 9 b2 01 27
        E 9 b2 01 25
        E 9 b2 01 23
        E 9 b2 01 22
        E 9 b2 01 20
        E 9 b2 01 1f
        E 9 b2 01 1d
        E 9 b2 01 1c
        E 9 b2 01 1a
        E 9 b2 01 18
        E 9 b2 01 17
        E 9 b2 01 15
        E 9 b2 01 14
        E 9 b2 01 13
        E 9 b2 01 11
        E 9 b2 01 10
        E 9 b2 01 0e
        E 9 b2 01 0d
        E 9 b2 01 0c
        E 9 b2 01 0b
        E 9 b2 01 09
        E 9 b2 01 08
        E 9 b2 01 07
        E 9 b2 01 06
        E 9 b2 01 05
        E 9 b2 01 05
        E 9 b2 01 04
        E 9 b2 01 03
        E 9 b2 01 02
        E 9 b2 01 02
        E 9 b2 01 01
        E 9 b2 01 01
        E 9 b2 01 00
        E 9 b2 01 00
        E 9 b2 01 00
        E 9 b2 01 00
        E 9 b2 01 00
        E 9 b2 01 00
        E 9 b2 01 00
        E 9 b2 01 00
        E 9 b2 01 00
        E 9 b2 01 01
        E 9 b2 01 01
        E 9 b2 01 02
        E 9 b2 01 02
        E 9 b2 01 03
        E 9 b2 01 03
        E 9 b2 01 04
        E 9 b2 01 05
        E 9 b2 01 06
        E 9 b2 01 07
        E 9 b2 01 08
        E 9 b2 01 09
        E 9 b2 01 0a
        E 9 b2 01 0b
        E 9 b2 01 0c
        E 9 b2 01 0e
        E 9 b2 01 0f
        E 9 b2 01 10
        E 9 b2 01 12
        E 9 b2 01 13
        E 9 b2 01 15
        E 9 b2 01 16
        E 9 b2 01 18
        E 9 b2 01 19
        E 9 b2 01 1b
        E 9 b2 01 1c
        E 9 b2 01 1e
        E 9 b2 01 20
        E 11 b2 01 40
        E 11 b2 01 43
        E 11 b2 01 46
        E 11 b2 01 49
        E 11 b2 01 4c
        E 11 b2 01 4f
        E 11 b2 01 52
        E 11 b2 01 55
        E 11 b2 01 58
        E 11 b2 01 5b
        E 11 b2 01 5e
        E 11 b2 01 60
        E 11 b2 01 63
        E 11 b2 01 66
        E 11 b2 01 68
        E 11 b2 01 6a
        E 11 b2 01 6d
        E 11 b2 01 6f
        E 11 b2 01 71
        E 11 b2 01 73
        E 11 b2 01 75
        E 11 b2 01 76
        E 11 b2 01 78
        E 11 b2 01 79
        E 11 b2 01 7a
        E 11 b2 01 7b
        E 11 b2 01 7c
        E 11 b2 01 7d
        E 11 b2 01 7e
        E 11 b2 01 7e
        E 11 b2 01 7f
        E 11 b2 01 7f
        E 11 b2 01 7f
        E 11 b2 01 7f
        E 11 b2 01 7f
        E 11 b2 01 7e
        E 11 b2 01 7e
        E 11 b2 01 7d
        E 11 b2 01 7c
        E 11 b2 01 7b
        E 11 b2 01 7a
        E 11 b2 01 78
        E 11 b2 01 77
        E 11 b2 01 75
        E 11 b2 01 74
        E 11 b2 01 72
        E 11 b2 01 70
        E 11 b2 01 6e
        E 11 b2 01 6c
        E 11 b2 01 69
        E 11 b2 01 67
        E 11 b2 01 64
        E 11 b2 01 62
        E 11 b2 01 5f
        E 11 b2 01 5c
        E 11 b2 01 59
        E 11 b2 01 57
        E 11 b2 01 54
        E 11 b2 01 51
        E 11 b2 01 4e
        E 11 b2 01 4a
        E 11 b2 01 47
        E 11 b2 01 44
        E 11 b2 01 41
        E 11 b2 01 3e
        E 11 b2 01 3b
        E 11 b2 01 38
        E 11 b2 01 35
        E 11 b2 01 31
        E 11 b2 01 2e
        E 11 b2 01 2b
        E 11 b2 01 28
        E 11 b2 01 26
        E 11 b2 01 23
        E 11 b2 01 20
        E 11 b2 01 1d
        E 11 b2 01 1b
        E 11 b2 01 18
        E 11 b2 01 16
        E 11 b2 01 13
        E 11 b2 01 11
        E 11 b2 01 0f
        E 11 b2 01 0d
        E 11 b2 01 0b
        E 11 b2 01 0a
        E 11 b2 01 08
        E 11 b2 01 07
        E 11 b2 01 05
        E 11 b2 01 04
        E 11 b2 01 03
        E 11 b2 01 02
        E 11 b2 01 01
        E 11 b2 01 01
        E 11 b2 01 00
        E 11 b2 01 00
        E 11 b2 01 00
        E 11 b2 01 00
        E 11 b2 01 00
        E 11 b2 01 01
        E 11 b2 01 01
        E 11 b2 01 02
        E 11 b2 01 03
        E 11 b2 01 04
        E 11 b2 01 05
        E 11 b2 01 06
        E 11 b2 01 07
        E 11 b2 01 09
        E 11 b2 01 0a
        E 11 b2 01 0c
        E 11 b2 01 0e
        E 11 b2 01 10
        E 11 b2 01 12
        E 11 b2 01 15
        E 11 b2 01 17
        E 11 b2 01 19
        E 11 b2 01 1c
        E 11 b2 01 1f
        E 11 b2 01 21
        E 11 b2 01 24
        E 11 b2 01 27
        E 11 b2 01 2a
        E 11 b2 01 2d
        E 11 b2 01 30
        E 11 b2 01 33
        E 11 b2 01 36
        E 11 b2 01 39
        E 11 b2 01 3c
        E 11 b2 01 40
        E 1 b2 01 39
        E 1 b2 01 3c
        E 1 b2 01 3f
        E 1 b2 01 41
        E 1 b2 01 44
        E 1 b2 01 47
        E 1 b2 01 49
        E 1 b2 01 4c
        E 1 b2 01 4f
        E 1 b2 01 51
        E 1 b2 01 54
        E 1 b2 01 56
        E 1 b2 01 59
        E 1 b2 01 5b
        E 1 b2 01 5d
        E 1 b2 01 5f
        E 1 b2 01 62
        E 1 b2 01 63
        E 1 b2 01 65
        E 1 b2 01 67
        E 1 b2 01 69
        E 1 b2 01 6a
        E 1 b2 01 6c
        E 1 b2 01 6c
        E 1 b2 01 6d
        E 1 b2 01 6e
        E 1 b2 01 6f
        E 1 b2 01 70
        E 1 b2 01 71
        E 1 b2 01 71
        E 1 b2 01 72
        E 1 b2 01 72
        E 1 b2 01 72
        E 1 b2 01 72
        E 1 b2 01 72
        E 1 b2 01 71
        E 1 b2 01 71
        E 1 b2 01 70
        E 1 b2 01 6f
        E 1 b2 01 6e
        E 1 b2 01 6d
        E 1 b2 01 6c
        E 1 b2 01 6b
        E 1 b2 01 69
        E 1 b2 01 68
        E 1 b2 01 66
        E 1 b2 01 64
        E 1 b2 01 63
        E 1 b2 01 61
        E 1 b2 01 5e
        E 1 b2 01 5c
        E 1 b2 01 5a
        E 1 b2 01 58
        E 1 b2 01 55
        E 1 b2 01 52
        E 1 b2 01 50
        E 1 b2 01 4e
        E 1 b2 01 4b
        E 1 b2 01 48
        E 1 b2 01 46
        E 1 b2 01 42
        E 1 b2 01 3f
        E 1 b2 01 3d
        E 1 b2 01 3a
        E 1 b2 01 37
        E 1 b2 01 35
        E 1 b2 01 32
        E 1 b2 01 2f
        E 1 b2 01 2c
        E 1 b2 01 29
        E 1 b2 01 26
        E 1 b2 01 24
        E 1 b2 01 22
        E 1 b2 01 1f
        E 1 b2 01 1c
        E 1 b2 01 1a
        E 1 b2 01 18
        E 1 b2 01 15
        E 1 b2 01 13
        E 1 b2 01 11
        E 1 b2 01 0f
        E 1 b2 01 0d
        E 1 b2 01 0b
        E 1 b2 01 09
        E 1 b2 01 09
        E 1 b2 01 07
        E 1 b2 01 06
        E 1 b2 01 04
        E 1 b2 01 03
        E 1 b2 01 02
        E 1 b2 01 01
        E 1 b2 01 00
        E 1 b2 01 00
        E 1 b2 01 00
        E 1 b2 01 00
        E 1 b2 01 00
        E 1 b2 01 00
        E 1 b2 01 00
        E 1 b2 01 00
        E 1 b2 01 00
        E 1 b2 01 01
        E 1 b2 01 02
        E 1 b2 01 03
        E 1 b2 01 04
        E 1 b2 01 05
        E 1 b2 01 06
        E 1 b2 01 08
        E 1 b2 01 09
        E 1 b2 01 0a
        E 1 b2 01 0c
        E 1 b2 01 0e
        E 1 b2 01 10
        E 1 b2 01 12
        E 1 b2 01 14
        E 1 b2 01 16
        E 1 b2 01 19
        E 1 b2 01 1b
        E 1 b2 01 1d
        E 1 b2 01 20
        E 1 b2 01 23
        E 1 b2 01 25
        E 1 b2 01 28
        E 1 b2 01 2b
        E 1 b2 01 2d
        E 1 b2 01 30
        E 1 b2 01 33
        E 1 b2 01 36
        E 1 b2 01 39
        E 5 b2 01 40
        E 5 b2 01 43
        E 5 b2 01 46
        E 5 b2 01 49
        E 5 b2 01 4c
        E 5 b2 01 4f
        E 5 b2 01 52
        E 5 b2 01 55
        E 5 b2 01 58
        E 5 b2 01 5b
        E 5 b2 01 5e
        E 5 b2 01 60
        E 5 b2 01 63
        E 5 b2 01 66
        E 5 b2 01 68
        E 5 b2 01 6a
        E 5 b2 01 6d
        E 5 b2 01 6f
        E 5 b2 01 71
        E 5 b2 01 73
        E 5 b2 01 75
        E 5 b2 01 76
        E 5 b2 01 78
        E 5 b2 01 79
        E 5 b2 01 7a
        E 5 b2 01 7b
        E 5 b2 01 7c
        E 5 b2 01 7d
        E 5 b2 01 7e
        E 5 b2 01 7e
        E 5 b2 01 7f
        E 5 b2 01 7f
        E 5 b2 01 7f
        E 5 b2 01 7f
        E 5 b2 01 7f
        E 5 b2 01 7e
        E 5 b2 01 7e
        E 5 b2 01 7d
        E 5 b2 01 7c
        E 5 b2 01 7b
        E 5 b2 01 7a
        E 5 b2 01 78
        E 5 b2 01 77
        E 5 b2 01 75
        E 5 b2 01 74
        E 5 b2 01 72
        E 5 b2 01 70
        E 5 b2 01 6e
        E 5 b2 01 6c
        E 5 b2 01 69
        E 5 b2 01 67
        E 5 b2 01 64
        E 5 b2 01 62
        E 5 b2 01 5f
        E 5 b2 01 5c
        E 5 b2 01 59
        E 5 b2 01 57
        E 5 b2 01 54
        E 5 b2 01 51
        E 5 b2 01 4e
        E 5 b2 01 4a
        E 5 b2 01 47
        E 5 b2 01 44
        E 5 b2 01 41
        E 5 b2 01 3e
        E 5 b2 01 3b
        E 5 b2 01 38
        E 5 b2 01 35
        E 5 b2 01 31
        E 5 b2 01 2e
        E 5 b2 01 2b
        E 5 b2 01 28
        E 5 b2 01 26
        E 5 b2 01 23
        E 5 b2 01 20
        E 5 b2 01 1d
        E 5 b2 01 1b
        E 5 b2 01 18
        E 5 b2 01 16
        E 5 b2 01 13
        E 5 b2 01 11
        E 5 b2 01 0f
        E 5 b2 01 0d
        E 5 b2 01 0b
        E 5 b2 01 0a
        E 5 b2 01 08
        E 5 b2 01 07
        E 5 b2 01 05
        E 5 b2 01 04
        E 5 b2 01 03
        E 5 b2 01 02
        E 5 b2 01 01
        E 5 b2 01 01
        E 5 b2 01 00
        E 5 b2 01 00
        E 5 b2 01 00
        E 5 b2 01 00
        E 5 b2 01 00
        E 5 b2 01 01
        E 5 b2 01 01
        E 5 b2 01 02
        E 5 b2 01 03
        E 5 b2 01 04
        E 5 b2 01 05
        E 5 b2 01 06
        E 5 b2 01 07
        E 5 b2 01 09
        E 5 b2 01 0a
        E 5 b2 01 0c
        E 5 b2 01 0e
        E 5 b2 01 10
        E 5 b2 01 12
        E 5 b2 01 15
        E 5 b2 01 17
        E 5 b2 01 19
        E 5 b2 01 1c
        E 5 b2 01 1f
        E 5 b2 01 21
        E 5 b2 01 24
        E 5 b2 01 27
        E 5 b2 01 2a
        E 5 b2 01 2d
        E 5 b2 01 30
        E 5 b2 01 33
        E 5 b2 01 36
        E 5 b2 01 39
        E 5 b2 01 3c
        E 5 b2 01 40
        E 9 b2 01 39
        E 9 b2 01 3c
        E 9 b2 01 3f
        E 9 b2 01 41
        E 9 b2 01 44
        E 9 b2 01 47
        E 9 b2 01 49
        E 9 b2 01 4c
        E 9 b2 01 4f
        E 9 b2 01 51
        E 9 b2 01 54
        E 9 b2 01 56
        E 9 b2 01 59
        E 9 b2 01 5b
        E 9 b2 01 5d
        E 9 b2 01 5f
        E 9 b2 01 62
        E 9 b2 01 63
        E 9 b2 01 65
        E 9 b2 01 67
        E 9 b2 01 69
        E 9 b2 01 6a
        E 9 b2 01 6c
        E 9 b2 01 6c
        E 9 b2 01 6d
        E 9 b2 01 6e
        E 9 b2 01 6f
        E 9 b2 01 70
        E 9 b2 01 71
        E 9 b2 01 71
        E 9 b2 01 72
        E 9 b2 01 72
        E 9 b2 01 72
        E 9 b2 01 72
        E 9 b2 01 72
        E 9 b2 01 71
        E 9 b2 01 71
        E 9 b2 01 70
        E 9 b2 01 6f
        E 9 b2 01 6e
        E 9 b2 01 6d
        E 9 b2 01 6c
        E 9 b2 01 6b
        E 9 b2 01 69
        E 9 b2 01 68
        E 9 b2 01 66
        E 9 b2 01 64
        E 9 b2 01 63
        E 9 b2 01 61
        E 9 b2 01 5e
        E 9 b2 01 5c
        E 9 b2 01 5a
        E 9 b2 01 58
        E 9 b2 01 55
        E 9 b2 01 52
        E 9 b2 01 50
        E 9 b2 01 4e
        E 9 b2 01 4b
        E 9 b2 01 48
        E 9 b2 01 46
        E 9 b2 01 42
        E 9 b2 01 3f
        E 9 b2 01 3d
        E 9 b2 01 3a
        E 9 b2 01 37
        E 9 b2 01 35
        E 9 b2 01 32
        E 9 b2 01 2f
        E 9 b2 01 2c
        E 9 b2 01 29
        E 9 b2 01 26
        E 9 b2 01 24
        E 9 b2 01 22
        E 9 b2 01 1f
        E 9 b2 01 1c
        E 9 b2 01 1a
        E 9 b2 01 18
        E 9 b2 01 15
        E 9 b2 01 13
        E 9 b2 01 11
        E 9 b2 01 0f
        E 9 b2 01 0d
        E 9 b2 01 0b
        E 9 b2 01 09
        E 9 b2 01 09
        E 9 b2 01 07
        E 9 b2 01 06
        E 9 b2 01 04
        E 9 b2 01 03
        E 9 b2 01 02
        E 9 b2 01 01
        E 9 b2 01 00
        E 9 b2 01 00
        E 9 b2 01 00
        E 9 b2 01 00
        E 9 b2 01 00
        E 9 b2 01 00
        E 9 b2 01 00
        E 9 b2 01 00
        E 9 b2 01 00
        E 9 b2 01 01
        E 9 b2 01 02
        E 9 b2 01 03
        E 9 b2 01 04
        E 9 b2 01 05
        E 9 b2 01 06
        E 9 b2 01 08
        E 9 b2 01 09
        E 9 b2 01 0a
        E 9 b2 01 0c
        E 9 b2 01 0e
        E 9 b2 01 10
        E 9 b2 01 12
        E 9 b2 01 14
        E 9 b2 01 16
        E 9 b2 01 19
        E 9 b2 01 1b
        E 9 b2 01 1d
        E 9 b2 01 20
        E 9 b2 01 23
        E 9 b2 01 25
        E 9 b2 01 28
        E 9 b2 01 2b
        E 9 b2 01 2d
        E 9 b2 01 30
        E 9 b2 01 33
        E 9 b2 01 36
        E 9 b2 01 39
        E 7 b2 01 20
        E 7 b2 01 21
        E 7 b2 01 23
        E 7 b2 01 24
        E 7 b2 01 26
        E 7 b2 01 27
        E 7 b2 01 29
        E 7 b2 01 2a
        E 7 b2 01 2c
        E 7 b2 01 2d
        E 7 b2 01 2f
        E 7 b2 01 30
        E 7 b2 01 31
        E 7 b2 01 33
        E 7 b2 01 34
        E 7 b2 01 35
        E 7 b2 01 36
        E 7 b2 01 37
        E 7 b2 01 38
        E 7 b2 01 39
        E 7 b2 01 3a
        E 7 b2 01 3b
        E 7 b2 01 3c
        E 7 b2 01 3c
        E 7 b2 01 3d
        E 7 b2 01 3d
        E 7 b2 01 3e
        E 7 b2 01 3e
        E 7 b2 01 3f
        E 7 b2 01 3f
        E 7 b2 01 3f
        E 7 b2 01 3f
        E 7 b2 01 3f
        E 7 b2 01 3f
        E 7 b2 01 3f
        E 7 b2 01 3f
        E 7 b2 01 3f
        E 7 b2 01 3e
        E 7 b2 01 3e
        E 7 b2 01 3d
        E 7 b2 01 3d
        E 7 b2 01 3c
        E 7 b2 01 3b
        E 7 b2 01 3a
        E 7 b2 01 3a
        E 7 b2 01 39
        E 7 b2 01 38
        E 7 b2 01 37
        E 7 b2 01 36
        E 7 b2 01 34
        E 7 b2 01 33
        E 7 b2 01 32
        E 7 b2 01 31
        E 7 b2 01 2f
        E 7 b2 01 2e
        E 7 b2 01 2c
        E 7 b2 01 2b
        E 7 b2 01 2a
        E 7 b2 01 28
        E 7 b2 01 27
        E 7 b2 01 25
        E 7 b2 01 23
        E 7 b2 01 22
        E 7 b2 01 20
        E 7 b2 01 1f
        E 7 b2 01 1d
        E 7 b2 01 1c
        E 7 b2 01 1a
        E 7 b2 01 18
        E 7 b2 01 17
        E 7 b2 01 15
        E 7 b2 01 14
        E 7 b2 01 13
        E 7 b2 01 11
        E 7 b2 01 10
        E 7 b2 01 0e
        E 7 b2 01 0d
        E 7 b2 01 0c
        E 7 b2 01 0b
        E 7 b2 01 09
        E 7 b2 01 08
        E 7 b2 01 07
        E 7 b2 01 06
        E 7 b2 01 05
        E 7 b2 01 05
        E 7 b2 01 04
        E 7 b2 01 03
        E 7 b2 01 02
        E 7 b2 01 02
        E 7 b2 01 01
        E 7 b2 01 01
        E 7 b2 01 00
        E 7 b2 01 00
        E 7 b2 01 00
        E 7 b2 01 00
        E 7 b2 01 00
        E 7 b2 01 00
        E 7 b2 01 00
        E 7 b2 01 00
        E 7 b2 01 00
        E 7 b2 01 01
        E 7 b2 01 01
        E 7 b2 01 02
        E 7 b2 01 02
        E 7 b2 01 03
        E 7 b2 01 03
        E 7 b2 01 04
        E 7 b2 01 05
        E 7 b2 01 06
        E 7 b2 01 07
        E 7 b2 01 08
        E 7 b2 01 09
        E 7 b2 01 0a
        E 7 b2 01 0b
        E 7 b2 01 0c
        E 7 b2 01 0e
        E 7 b2 01 0f
        E 7 b2 01 10
        E 7 b2 01 12
        E 7 b2 01 13
        E 7 b2 01 15
        E 7 b2 01 16
        E 7 b2 01 18
        E 7 b2 01 19
        E 7 b2 01 1b
        E 7 b2 01 1c
        E 7 b2 01 1e
        E 7 b2 01 20
        E 7 b2 01 20
        E 7 b2 01 21
        E 7 b2 01 23
        E 7 b2 01 24
        E 7 b2 01 26
        E 7 b2 01 27
        E 7 b2 01 29
        E 7 b2 01 2a
        E 7 b2 01 2c
        E 7 b2 01 2d
        E 7 b2 01 2f
        E 7 b2 01 30
        E 7 b2 01 31
        E 7 b2 01 33
        E 7 b2 01 34
        E 7 b2 01 35
        E 7 b2 01 36
        E 7 b2 01 37
        E 7 b2 01 38
        E 7 b2 01 39
        E 7 b2 01 3a
        E 7 b2 01 3b
        E 7 b2 01 3c
        E 7 b2 01 3c
        E 7 b2 01 3d
        E 7 b2 01 3d
        E 7 b2 01 3e
        E 7 b2 01 3e
        E 7 b2 01 3f
        E 7 b2 01 3f
        E 7 b2 01 3f
        E 7 b2 01 3f
        E 7 b2 01 3f
        E 7 b2 01 3f
        E 7 b2 01 3f
        E 7 b2 01 3f
        E 7 b2 01 3f
        E 7 b2 01 3e
        E 7 b2 01 3e
        E 7 b2 01 3d
        E 7 b2 01 3d
        E 7 b2 01 3c
        E 7 b2 01 3b
        E 7 b2 01 3a
        E 7 b2 01 3a
        E 7 b2 01 39
        E 7 b2 01 38
        E 7 b2 01 37
        E 7 b2 01 36
        E 7 b2 01 34
        E 7 b2 01 33
        E 7 b2 01 32
        E 7 b2 01 31
        E 7 b2 01 2f
        E 7 b2 01 2e
        E 7 b2 01 2c
        E 7 b2 01 2b
        E 7 b2 01 2a
        E 7 b2 01 28
        E 7 b2 01 27
        E 7 b2 01 25
        E 7 b2 01 23
        E 7 b2 01 22
        E 7 b2 01 20
        E 7 b2 01 1f
        E 7 b2 01 1d
        E 7 b2 01 1c
        E 7 b2 01 1a
        E 7 b2 01 18
        E 7 b2 01 17
        E 7 b2 01 15
        E 7 b2 01 14
        E 7 b2 01 13
        E 7 b2 01 11
        E 7 b2 01 10
        E 7 b2 01 0e
        E 7 b2 01 0d
        E 7 b2 01 0c
        E 7 b2 01 0b
        E 7 b2 01 09
        E 7 b2 01 08
        E 7 b2 01 07
        E 7 b2 01 06
        E 7 b2 01 05
        E 7 b2 01 05
        E 7 b2 01 04
        E 7 b2 01 03
        E 7 b2 01 02
        E 7 b2 01 02
        E 7 b2 01 01
        E 7 b2 01 01
        E 7 b2 01 00
        E 7 b2 01 00
        E 7 b2 01 00
        E 7 b2 01 00
        E 7 b2 01 00
        E 7 b2 01 00
        E 7 b2 01 00
        E 7 b2 01 00
        E 7 b2 01 00
        E 7 b2 01 01
        E 7 b2 01 01
        E 7 b2 01 02
        E 7 b2 01 02
        E 7 b2 01 03
        E 7 b2 01 03
        E 7 b2 01 04
        E 7 b2 01 05
        E 7 b2 01 06
        E 7 b2 01 07
        E 7 b2 01 08
        E 7 b2 01 09
        E 7 b2 01 0a
        E 7 b2 01 0b
        E 7 b2 01 0c
        E 7 b2 01 0e
        E 7 b2 01 0f
        E 7 b2 01 10
        E 7 b2 01 12
        E 7 b2 01 13
        E 7 b2 01 15
        E 7 b2 01 16
        E 7 b2 01 18
        E 7 b2 01 19
        E 7 b2 01 1b
        E 7 b2 01 1c
        E 7 b2 01 1e
        E 7 b2 01 20
        E 14 b2 01 2c
        E 14 b2 01 2e
        E 14 b2 01 31
        E 14 b2 01 33
        E 14 b2 01 35
        E 14 b2 01 37
        E 14 b2 01 39
        E 14 b2 01 3b
        E 14 b2 01 3d
        E 14 b2 01 3f
        E 14 b2 01 41
        E 14 b2 01 43
        E 14 b2 01 45
        E 14 b2 01 47
        E 14 b2 01 48
        E 14 b2 01 4a
        E 14 b2 01 4c
        E 14 b2 01 4d
        E 14 b2 01 4f
        E 14 b2 01 50
        E 14 b2 01 51
        E 14 b2 01 52
        E 14 b2 01 54
        E 14 b2 01 54
        E 14 b2 01 55
        E 14 b2 01 56
        E 14 b2 01 56
        E 14 b2 01 57
        E 14 b2 01 58
        E 14 b2 01 58
        E 14 b2 01 58
        E 14 b2 01 58
        E 14 b2 01 58
        E 14 b2 01 58
        E 14 b2 01 58
        E 14 b2 01 58
        E 14 b2 01 58
        E 14 b2 01 57
        E 14 b2 01 56
        E 14 b2 01 56
        E 14 b2 01 55
        E 14 b2 01 54
        E 14 b2 01 53
        E 14 b2 01 51
        E 14 b2 01 51
        E 14 b2 01 4f
        E 14 b2 01 4e
        E 14 b2 01 4d
        E 14 b2 01 4b
        E 14 b2 01 49
        E 14 b2 01 48
        E 14 b2 01 46
        E 14 b2 01 44
        E 14 b2 01 42
        E 14 b2 01 40
        E 14 b2 01 3e
        E 14 b2 01 3c
        E 14 b2 01 3a
        E 14 b2 01 38
        E 14 b2 01 36
        E 14 b2 01 33
        E 14 b2 01 31
        E 14 b2 01 2f
        E 14 b2 01 2d
        E 14 b2 01 2b
        E 14 b2 01 29
        E 14 b2 01 27
        E 14 b2 01 25
        E 14 b2 01 22
        E 14 b2 01 20
        E 14 b2 01 1e
        E 14 b2 01 1c
        E 14 b2 01 1a
        E 14 b2 01 18
        E 14 b2 01 16
        E 14 b2 01 14
        E 14 b2 01 12
        E 14 b2 01 10
        E 14 b2 01 0f
        E 14 b2 01 0d
        E 14 b2 01 0b
        E 14 b2 01 0a
        E 14 b2 01 09
        E 14 b2 01 07
        E 14 b2 01 07
        E 14 b2 01 05
        E 14 b2 01 04
        E 14 b2 01 03
        E 14 b2 01 02
        E 14 b2 01 02
        E 14 b2 01 01
        E 14 b2 01 00
        E 14 b2 01 00
        E 14 b2 01 00
        E 14 b2 01 00
        E 14 b2 01 00
        E 14 b2 01 00
        E 14 b2 01 00
        E 14 b2 01 00
        E 14 b2 01 00
        E 14 b2 01 01
        E 14 b2 01 02
        E 14 b2 01 02
        E 14 b2 01 03
        E 14 b2 01 04
        E 14 b2 01 04
        E 14 b2 01 06
        E 14 b2 01 07
        E 14 b2 01 08
        E 14 b2 01 09
        E 14 b2 01 0b
        E 14 b2 01 0c
        E 14 b2 01 0e
        E 14 b2 01 10
        E 14 b2 01 11
        E 14 b2 01 13
        E 14 b2 01 15
        E 14 b2 01 17
        E 14 b2 01 19
        E 14 b2 01 1b
        E 14 b2 01 1d
        E 14 b2 01 1f
        E 14 b2 01 21
        E 14 b2 01 23
        E 14 b2 01 25
        E 14 b2 01 27
        E 14 b2 01 2a
        E 14 b2 01 2c
        E 12 b2 01 33
        E 12 b2 01 35
        E 12 b2 01 37
        E 12 b2 01 3a
        E 12 b2 01 3c
        E 12 b2 01 3f
        E 12 b2 01 41
        E 12 b2 01 44
        E 12 b2 01 46
        E 12 b2 01 48
        E 12 b2 01 4b
        E 12 b2 01 4c
        E 12 b2 01 4f
        E 12 b2 01 51
        E 12 b2 01 53
        E 12 b2 01 54
        E 12 b2 01 57
        E 12 b2 01 58
        E 12 b2 01 5a
        E 12 b2 01 5b
        E 12 b2 01 5d
        E 12 b2 01 5e
        E 12 b2 01 5f
        E 12 b2 01 60
        E 12 b2 01 61
        E 12 b2 01 62
        E 12 b2 01 63
        E 12 b2 01 63
        E 12 b2 01 64
        E 12 b2 01 64
        E 12 b2 01 65
        E 12 b2 01 65
        E 12 b2 01 65
        E 12 b2 01 65
        E 12 b2 01 65
        E 12 b2 01 64
        E 12 b2 01 64
        E 12 b2 01 63
        E 12 b2 01 63
        E 12 b2 01 62
        E 12 b2 01 61
        E 12 b2 01 5f
        E 12 b2 01 5f
        E 12 b2 01 5d
        E 12 b2 01 5c
        E 12 b2 01 5b
        E 12 b2 01 59
        E 12 b2 01 57
        E 12 b2 01 56
        E 12 b2 01 54
        E 12 b2 01 52
        E 12 b2 01 50
        E 12 b2 01 4e
        E 12 b2 01 4c
        E 12 b2 01 49
        E 12 b2 01 47
        E 12 b2 01 45
        E 12 b2 01 43
        E 12 b2 01 40
        E 12 b2 01 3e
        E 12 b2 01 3b
        E 12 b2 01 38
        E 12 b2 01 36
        E 12 b2 01 33
        E 12 b2 01 31
        E 12 b2 01 2f
        E 12 b2 01 2c
        E 12 b2 01 2a
        E 12 b2 01 27
        E 12 b2 01 24
        E 12 b2 01 22
        E 12 b2 01 1f
        E 12 b2 01 1e
        E 12 b2 01 1b
        E 12 b2 01 19
        E 12 b2 01 17
        E 12 b2 01 15
        E 12 b2 01 13
        E 12 b2 01 11
        E 12 b2 01 0f
        E 12 b2 01 0d
        E 12 b2 01 0b
        E 12 b2 01 0a
        E 12 b2 01 08
        E 12 b2 01 07
        E 12 b2 01 06
        E 12 b2 01 05
        E 12 b2 01 03
        E 12 b2 01 03
        E 12 b2 01 02
        E 12 b2 01 01
        E 12 b2 01 00
        E 12 b2 01 00
        E 12 b2 01 00
        E 12 b2 01 00
        E 12 b2 01 00
        E 12 b2 01 00
        E 12 b2 01 00
        E 12 b2 01 00
        E 12 b2 01 00
        E 12 b2 01 01
        E 12 b2 01 02
        E 12 b2 01 03
        E 12 b2 01 03
        E 12 b2 01 04
        E 12 b2 01 05
        E 12 b2 01 07
        E 12 b2 01 07
        E 12 b2 01 09
        E 12 b2 01 0b
        E 12 b2 01 0c
        E 12 b2 01 0e
        E 12 b2 01 10
        E 12 b2 01 12
        E 12 b2 01 14
        E 12 b2 01 16
        E 12 b2 01 18
        E 12 b2 01 1a
        E 12 b2 01 1c
        E 12 b2 01 1f
        E 12 b2 01 21
        E 12 b2 01 24
        E 12 b2 01 26
        E 12 b2 01 28
        E 12 b2 01 2b
        E 12 b2 01 2d
        E 12 b2 01 2f
        E 12 b2 01 33
        E 14 b2 01 06
        E 14 b2 01 06
        E 14 b2 01 07
        E 14 b2 01 07
        E 14 b2 01 07
        E 14 b2 01 07
        E 14 b2 01 08
        E 14 b2 01 08
        E 14 b2 01 08
        E 14 b2 01 09
        E 14 b2 01 09
        E 14 b2 01 09
        E 14 b2 01 09
        E 14 b2 01 0a
        E 14 b2 01 0a
        E 14 b2 01 0a
        E 14 b2 01 0a
        E 14 b2 01 0b
        E 14 b2 01 0b
        E 14 b2 01 0b
        E 14 b2 01 0b
        E 14 b2 01 0b
        E 14 b2 01 0c
        E 14 b2 01 0c
        E 14 b2 01 0c
        E 14 b2 01 0c
        E 14 b2 01 0c
        E 14 b2 01 0c
        E 14 b2 01 0c
        E 14 b2 01 0c
        E 14 b2 01 0c
        E 14 b2 01 0c
        E 14 b2 01 0c
        E 14 b2 01 0c
        E 14 b2 01 0c
        E 14 b2 01 0c
        E 14 b2 01 0c
        E 14 b2 01 0c
        E 14 b2 01 0c
        E 14 b2 01 0c
        E 14 b2 01 0c
        E 14 b2 01 0c
        E 14 b2 01 0b
        E 14 b2 01 0b
        E 14 b2 01 0b
        E 14 b2 01 0b
        E 14 b2 01 0b
        E 14 b2 01 0b
        E 14 b2 01 0a
        E 14 b2 01 0a
        E 14 b2 01 0a
        E 14 b2 01 0a
        E 14 b2 01 09
        E 14 b2 01 09
        E 14 b2 01 09
        E 14 b2 01 08
        E 14 b2 01 08
        E 14 b2 01 08
        E 14 b2 01 08
        E 14 b2 01 07
        E 14 b2 01 07
        E 14 b2 01 07
        E 14 b2 01 06
        E 14 b2 01 06
        E 14 b2 01 06
        E 14 b2 01 05
        E 14 b2 01 05
        E 14 b2 01 05
        E 14 b2 01 04
        E 14 b2 01 04
        E 14 b2 01 04
        E 14 b2 01 04
        E 14 b2 01 03
        E 14 b2 01 03
        E 14 b2 01 03
        E 14 b2 01 02
        E 14 b2 01 02
        E 14 b2 01 02
        E 14 b2 01 02
        E 14 b2 01 01
        E 14 b2 01 01
        E 14 b2 01 01
        E 14 b2 01 01
        E 14 b2 01 01
        E 14 b2 01 01
        E 14 b2 01 00
        E 14 b2 01 00
        E 14 b2 01 00
        E 14 b2 01 00
        E 14 b2 01 00
        E 14 b2 01 00
        E 14 b2 01 00
        E 14 b2 01 00
        E 14 b2 01 00
        E 14 b2 01 00
        E 14 b2 01 00
        E 14 b2 01 00
        E 14 b2 01 00
        E 14 b2 01 00
        E 14 b2 01 00
        E 14 b2 01 00
        E 14 b2 01 00
        E 14 b2 01 00
        E 14 b2 01 00
        E 14 b2 01 00
        E 14 b2 01 00
        E 14 b2 01 00
        E 14 b2 01 01
        E 14 b2 01 01
        E 14 b2 01 01
        E 14 b2 01 01
        E 14 b2 01 01
        E 14 b2 01 02
        E 14 b2 01 02
        E 14 b2 01 02
        E 14 b2 01 02
        E 14 b2 01 03
        E 14 b2 01 03
        E 14 b2 01 03
        E 14 b2 01 03
        E 14 b2 01 04
        E 14 b2 01 04
        E 14 b2 01 04
        E 14 b2 01 05
        E 14 b2 01 05
        E 14 b2 01 05
        E 14 b2 01 06
        E 14 b2 01 06
        E 12 b2 01 19
        E 12 b2 01 1a
        E 12 b2 01 1c
        E 12 b2 01 1d
        E 12 b2 01 1e
        E 12 b2 01 1f
        E 12 b2 01 20
        E 12 b2 01 22
        E 12 b2 01 23
        E 12 b2 01 24
        E 12 b2 01 25
        E 12 b2 01 26
        E 12 b2 01 27
        E 12 b2 01 28
        E 12 b2 01 29
        E 12 b2 01 2a
        E 12 b2 01 2b
        E 12 b2 01 2c
        E 12 b2 01 2d
        E 12 b2 01 2e
        E 12 b2 01 2e
        E 12 b2 01 2f
        E 12 b2 01 30
        E 12 b2 01 30
        E 12 b2 01 30
        E 12 b2 01 31
        E 12 b2 01 31
        E 12 b2 01 32
        E 12 b2 01 32
        E 12 b2 01 32
        E 12 b2 01 32
        E 12 b2 01 32
        E 12 b2 01 32
        E 12 b2 01 32
        E 12 b2 01 32
        E 12 b2 01 32
        E 12 b2 01 32
        E 12 b2 01 32
        E 12 b2 01 31
        E 12 b2 01 31
        E 12 b2 01 30
        E 12 b2 01 30
        E 12 b2 01 2f
        E 12 b2 01 2e
        E 12 b2 01 2e
        E 12 b2 01 2d
        E 12 b2 01 2c
        E 12 b2 01 2c
        E 12 b2 01 2b
        E 12 b2 01 2a
        E 12 b2 01 29
        E 12 b2 01 28
        E 12 b2 01 27
        E 12 b2 01 26
        E 12 b2 01 24
        E 12 b2 01 23
        E 12 b2 01 22
        E 12 b2 01 21
        E 12 b2 01 20
        E 12 b2 01 1f
        E 12 b2 01 1d
        E 12 b2 01 1c
        E 12 b2 01 1b
        E 12 b2 01 1a
        E 12 b2 01 18
        E 12 b2 01 17
        E 12 b2 01 16
        E 12 b2 01 15
        E 12 b2 01 13
        E 12 b2 01 12
        E 12 b2 01 11
        E 12 b2 01 10
        E 12 b2 01 0f
        E 12 b2 01 0e
        E 12 b2 01 0c
        E 12 b2 01 0b
        E 12 b2 01 0a
        E 12 b2 01 09
        E 12 b2 01 08
        E 12 b2 01 07
        E 12 b2 01 06
        E 12 b2 01 06
        E 12 b2 01 05
        E 12 b2 01 04
        E 12 b2 01 04
        E 12 b2 01 03
        E 12 b2 01 02
        E 12 b2 01 02
        E 12 b2 01 01
        E 12 b2 01 01
        E 12 b2 01 00
        E 12 b2 01 00
        E 12 b2 01 00
        E 12 b2 01 00
        E 12 b2 01 00
        E 12 b2 01 00
        E 12 b2 01 00
        E 12 b2 01 00
        E 12 b2 01 00
        E 12 b2 01 00
        E 12 b2 01 00
        E 12 b2 01 01
        E 12 b2 01 01
        E 12 b2 01 02
        E 12 b2 01 02
        E 12 b2 01 02
        E 12 b2 01 03
        E 12 b2 01 04
        E 12 b2 01 04
        E 12 b2 01 05
        E 12 b2 01 06
        E 12 b2 01 07
        E 12 b2 01 08
        E 12 b2 01 09
        E 12 b2 01 0a
        E 12 b2 01 0b
        E 12 b2 01 0c
        E 12 b2 01 0d
        E 12 b2 01 0e
        E 12 b2 01 0f
        E 12 b2 01 10
        E 12 b2 01 12
        E 12 b2 01 13
        E 12 b2 01 14
        E 12 b2 01 15
        E 12 b2 01 16
        E 12 b2 01 18
        E 12 b2 01 19
        E 7 b2 01 2c
        E 7 b2 01 2e
        E 7 b2 01 31
        E 7 b2 01 33
        E 7 b2 01 35
        E 7 b2 01 37
        E 7 b2 01 39
        E 7 b2 01 3b
        E 7 b2 01 3d
        E 7 b2 01 3f
        E 7 b2 01 41
        E 7 b2 01 43
        E 7 b2 01 45
        E 7 b2 01 47
        E 7 b2 01 48
        E 7 b2 01 4a
        E 7 b2 01 4c
        E 7 b2 01 4d
        E 7 b2 01 4f
        E 7 b2 01 50
        E 7 b2 01 51
        E 7 b2 01 52
        E 7 b2 01 54
        E 7 b2 01 54
        E 7 b2 01 55
        E 7 b2 01 56
        E 7 b2 01 56
        E 7 b2 01 57
        E 7 b2 01 58
        E 7 b2 01 58
        E 7 b2 01 58
        E 7 b2 01 58
        E 7 b2 01 58
        E 7 b2 01 58
        E 7 b2 01 58
        E 7 b2 01 58
        E 7 b2 01 58
        E 7 b2 01 57
        E 7 b2 01 56
        E 7 b2 01 56
        E 7 b2 01 55
        E 7 b2 01 54
        E 7 b2 01 53
        E 7 b2 01 51
        E 7 b2 01 51
        E 7 b2 01 4f
        E 7 b2 01 4e
        E 7 b2 01 4d
        E 7 b2 01 4b
        E 7 b2 01 49
        E 7 b2 01 48
        E 7 b2 01 46
        E 7 b2 01 44
        E 7 b2 01 42
        E 7 b2 01 40
        E 7 b2 01 3e
        E 7 b2 01 3c
        E 7 b2 01 3a
        E 7 b2 01 38
        E 7 b2 01 36
        E 7 b2 01 33
        E 7 b2 01 31
        E 7 b2 01 2f
        E 7 b2 01 2d
        E 7 b2 01 2b
        E 7 b2 01 29
        E 7 b2 01 27
        E 7 b2 01 25
        E 7 b2 01 22
        E 7 b2 01 20
        E 7 b2 01 1e
        E 7 b2 01 1c
        E 7 b2 01 1a
        E 7 b2 01 18
        E 7 b2 01 16
        E 7 b2 01 14
        E 7 b2 01 12
        E 7 b2 01 10
        E 7 b2 01 0f
        E 7 b2 01 0d
        E 7 b2 01 0b
        E 7 b2 01 0a
        E 7 b2 01 09
        E 7 b2 01 07
        E 7 b2 01 07
        E 7 b2 01 05
        E 7 b2 01 04
        E 7 b2 01 03
        E 7 b2 01 02
        E 7 b2 01 02
        E 7 b2 01 01
        E 7 b2 01 00
        E 7 b2 01 00
        E 7 b2 01 00
        E 7 b2 01 00
        E 7 b2 01 00
        E 7 b2 01 00
        E 7 b2 01 00
        E 7 b2 01 00
        E 7 b2 01 00
        E 7 b2 01 01
        E 7 b2 01 02
        E 7 b2 01 02
        E 7 b2 01 03
        E 7 b2 01 04
        E 7 b2 01 04
        E 7 b2 01 06
        E 7 b2 01 07
        E 7 b2 01 08
        E 7 b2 01 09
        E 7 b2 01 0b
        E 7 b2 01 0c
        E 7 b2 01 0e
        E 7 b2 01 10
        E 7 b2 01 11
        E 7 b2 01 13
        E 7 b2 01 15
        E 7 b2 01 17
        E 7 b2 01 19
        E 7 b2 01 1b
        E 7 b2 01 1d
        E 7 b2 01 1f
        E 7 b2 01 21
        E 7 b2 01 23
        E 7 b2 01 25
        E 7 b2 01 27
        E 7 b2 01 2a
        E 7 b2 01 2c
        E 7 b2 01 20
        E 7 b2 01 21
        E 7 b2 01 23
        E 7 b2 01 24
        E 7 b2 01 26
        E 7 b2 01 27
        E 7 b2 01 29
        E 7 b2 01 2a
        E 7 b2 01 2c
        E 7 b2 01 2d
        E 7 b2 01 2f
        E 7 b2 01 30
        E 7 b2 01 31
        E 7 b2 01 33
        E 7 b2 01 34
        E 7 b2 01 35
        E 7 b2 01 36
        E 7 b2 01 37
        E 7 b2 01 38
        E 7 b2 01 39
        E 7 b2 01 3a
        E 7 b2 01 3b
        E 7 b2 01 3c
        E 7 b2 01 3c
        E 7 b2 01 3d
        E 7 b2 01 3d
        E 7 b2 01 3e
        E 7 b2 01 3e
        E 7 b2 01 3f
        E 7 b2 01 3f
        E 7 b2 01 3f
        E 7 b2 01 3f
        E 7 b2 01 3f
        E 7 b2 01 3f
        E 7 b2 01 3f
        E 7 b2 01 3f
        E 7 b2 01 3f
        E 7 b2 01 3e
        E 7 b2 01 3e
        E 7 b2 01 3d
        E 7 b2 01 3d
        E 7 b2 01 3c
        E 7 b2 01 3b
        E 7 b2 01 3a
        E 7 b2 01 3a
        E 7 b2 01 39
        E 7 b2 01 38
        E 7 b2 01 37
        E 7 b2 01 36
        E 7 b2 01 34
        E 7 b2 01 33
        E 7 b2 01 32
        E 7 b2 01 31
        E 7 b2 01 2f
        E 7 b2 01 2e
        E 7 b2 01 2c
        E 7 b2 01 2b
        E 7 b2 01 2a
        E 7 b2 01 28
        E 7 b2 01 27
        E 7 b2 01 25
        E 7 b2 01 23
        E 7 b2 01 22
        E 7 b2 01 20
        E 7 b2 01 1f
        E 7 b2 01 1d
        E 7 b2 01 1c
        E 7 b2 01 1a
        E 7 b2 01 18
        E 7 b2 01 17
        E 7 b2 01 15
        E 7 b2 01 14
        E 7 b2 01 13
        E 7 b2 01 11
        E 7 b2 01 10
        E 7 b2 01 0e
        E 7 b2 01 0d
        E 7 b2 01 0c
        E 7 b2 01 0b
        E 7 b2 01 09
        E 7 b2 01 08
        E 7 b2 01 07
        E 7 b2 01 06
        E 7 b2 01 05
        E 7 b2 01 05
        E 7 b2 01 04
        E 7 b2 01 03
        E 7 b2 01 02
        E 7 b2 01 02
        E 7 b2 01 01
        E 7 b2 01 01
        E 7 b2 01 00
        E 7 b2 01 00
        E 7 b2 01 00
        E 7 b2 01 00
        E 7 b2 01 00
        E 7 b2 01 00
        E 7 b2 01 00
        E 7 b2 01 00
        E 7 b2 01 00
        E 7 b2 01 01
        E 7 b2 01 01
        E 7 b2 01 02
        E 7 b2 01 02
        E 7 b2 01 03
        E 7 b2 01 03
        E 7 b2 01 04
        E 7 b2 01 05
        E 7 b2 01 06
        E 7 b2 01 07
        E 7 b2 01 08
        E 7 b2 01 09
        E 7 b2 01 0a
        E 7 b2 01 0b
        E 7 b2 01 0c
        E 7 b2 01 0e
        E 7 b2 01 0f
        E 7 b2 01 10
        E 7 b2 01 12
        E 7 b2 01 13
        E 7 b2 01 15
        E 7 b2 01 16
        E 7 b2 01 18
        E 7 b2 01 19
        E 7 b2 01 1b
        E 7 b2 01 1c
        E 7 b2 01 1e
        E 7 b2 01 20
        E 1 b2 01 39
        E 1 b2 01 3c
        E 1 b2 01 3f
        E 1 b2 01 41
        E 1 b2 01 44
        E 1 b2 01 47
        E 1 b2 01 49
        E 1 b2 01 4c
        E 1 b2 01 4f
        E 1 b2 01 51
        E 1 b2 01 54
        E 1 b2 01 56
        E 1 b2 01 59
        E 1 b2 01 5b
        E 1 b2 01 5d
        E 1 b2 01 5f
        E 1 b2 01 62
        E 1 b2 01 63
        E 1 b2 01 65
        E 1 b2 01 67
        E 1 b2 01 69
        E 1 b2 01 6a
        E 1 b2 01 6c
        E 1 b2 01 6c
        E 1 b2 01 6d
        E 1 b2 01 6e
        E 1 b2 01 6f
        E 1 b2 01 70
        E 1 b2 01 71
        E 1 b2 01 71
        E 1 b2 01 72
        E 1 b2 01 72
        E 1 b2 01 72
        E 1 b2 01 72
        E 1 b2 01 72
        E 1 b2 01 71
        E 1 b2 01 71
        E 1 b2 01 70
        E 1 b2 01 6f
        E 1 b2 01 6e
        E 1 b2 01 6d
        E 1 b2 01 6c
        E 1 b2 01 6b
        E 1 b2 01 69
        E 1 b2 01 68
        E 1 b2 01 66
        E 1 b2 01 64
        E 1 b2 01 63
        E 1 b2 01 61
        E 1 b2 01 5e
        E 1 b2 01 5c
        E 1 b2 01 5a
        E 1 b2 01 58
        E 1 b2 01 55
        E 1 b2 01 52
        E 1 b2 01 50
        E 1 b2 01 4e
        E 1 b2 01 4b
        E 1 b2 01 48
        E 1 b2 01 46
        E 1 b2 01 42
        E 1 b2 01 3f
        E 1 b2 01 3d
        E 1 b2 01 3a
        E 1 b2 01 37
        E 1 b2 01 35
        E 1 b2 01 32
        E 1 b2 01 2f
        E 1 b2 01 2c
        E 1 b2 01 29
        E 1 b2 01 26
        E 1 b2 01 24
        E 1 b2 01 22
        E 1 b2 01 1f
        E 1 b2 01 1c
        E 1 b2 01 1a
        E 1 b2 01 18
        E 1 b2 01 15
        E 1 b2 01 13
        E 1 b2 01 11
        E 1 b2 01 0f
        E 1 b2 01 0d
        E 1 b2 01 0b
        E 1 b2 01 09
        E 1 b2 01 09
        E 1 b2 01 07
        E 1 b2 01 06
        E 1 b2 01 04
        E 1 b2 01 03
        E 1 b2 01 02
        E 1 b2 01 01
        E 1 b2 01 00
        E 1 b2 01 00
        E 1 b2 01 00
        E 1 b2 01 00
        E 1 b2 01 00
        E 1 b2 01 00
        E 1 b2 01 00
        E 1 b2 01 00
        E 1 b2 01 00
        E 1 b2 01 01
        E 1 b2 01 02
        E 1 b2 01 03
        E 1 b2 01 04
        E 1 b2 01 05
        E 1 b2 01 06
        E 1 b2 01 08
        E 1 b2 01 09
        E 1 b2 01 0a
        E 1 b2 01 0c
        E 1 b2 01 0e
        E 1 b2 01 10
        E 1 b2 01 12
        E 1 b2 01 14
        E 1 b2 01 16
        E 1 b2 01 19
        E 1 b2 01 1b
        E 1 b2 01 1d
        E 1 b2 01 20
        E 1 b2 01 23
        E 1 b2 01 25
        E 1 b2 01 28
        E 1 b2 01 2b
        E 1 b2 01 2d
        E 1 b2 01 30
        E 1 b2 01 33
        E 1 b2 01 36
        E 1 b2 01 39
        E 5 b2 01 40
        E 5 b2 01 43
        E 5 b2 01 46
        E 5 b2 01 49
        E 5 b2 01 4c
        E 5 b2 01 4f
        E 5 b2 01 52
        E 5 b2 01 55
        E 5 b2 01 58
        E 5 b2 01 5b
        E 5 b2 01 5e
        E 5 b2 01 60
        E 5 b2 01 63
        E 5 b2 01 66
        E 5 b2 01 68
        E 5 b2 01 6a
        E 5 b2 01 6d
        E 5 b2 01 6f
        E 5 b2 01 71
        E 5 b2 01 73
        E 5 b2 01 75
        E 5 b2 01 76
        E 5 b2 01 78
        E 5 b2 01 79
        E 5 b2 01 7a
        E 5 b2 01 7b
        E 5 b2 01 7c
        E 5 b2 01 7d
        E 5 b2 01 7e
        E 5 b2 01 7e
        E 5 b2 01 7f
        E 5 b2 01 7f
        E 5 b2 01 7f
        E 5 b2 01 7f
        E 5 b2 01 7f
        E 5 b2 01 7e
        E 5 b2 01 7e
        E 5 b2 01 7d
        E 5 b2 01 7c
        E 5 b2 01 7b
        E 5 b2 01 7a
        E 5 b2 01 78
        E 5 b2 01 77
        E 5 b2 01 75
        E 5 b2 01 74
        E 5 b2 01 72
        E 5 b2 01 70
        E 5 b2 01 6e
        E 5 b2 01 6c
        E 5 b2 01 69
        E 5 b2 01 67
        E 5 b2 01 64
        E 5 b2 01 62
        E 5 b2 01 5f
        E 5 b2 01 5c
        E 5 b2 01 59
        E 5 b2 01 57
        E 5 b2 01 54
        E 5 b2 01 51
        E 5 b2 01 4e
        E 5 b2 01 4a
        E 5 b2 01 47
        E 5 b2 01 44
        E 5 b2 01 41
        E 5 b2 01 3e
        E 5 b2 01 3b
        E 5 b2 01 38
        E 5 b2 01 35
        E 5 b2 01 31
        E 5 b2 01 2e
        E 5 b2 01 2b
        E 5 b2 01 28
        E 5 b2 01 26
        E 5 b2 01 23
        E 5 b2 01 20
        E 5 b2 01 1d
        E 5 b2 01 1b
        E 5 b2 01 18
        E 5 b2 01 16
        E 5 b2 01 13
        E 5 b2 01 11
        E 5 b2 01 0f
        E 5 b2 01 0d
        E 5 b2 01 0b
        E 5 b2 01 0a
        E 5 b2 01 08
        E 5 b2 01 07
        E 5 b2 01 05
        E 5 b2 01 04
        E 5 b2 01 03
        E 5 b2 01 02
        E 5 b2 01 01
        E 5 b2 01 01
        E 5 b2 01 00
        E 5 b2 01 00
        E 5 b2 01 00
        E 5 b2 01 00
        E 5 b2 01 00
        E 5 b2 01 01
        E 5 b2 01 01
        E 5 b2 01 02
        E 5 b2 01 03
        E 5 b2 01 04
        E 5 b2 01 05
        E 5 b2 01 06
        E 5 b2 01 07
        E 5 b2 01 09
        E 5 b2 01 0a
        E 5 b2 01 0c
        E 5 b2 01 0e
        E 5 b2 01 10
        E 5 b2 01 12
        E 5 b2 01 15
        E 5 b2 01 17
        E 5 b2 01 19
        E 5 b2 01 1c
        E 5 b2 01 1f
        E 5 b2 01 21
        E 5 b2 01 24
        E 5 b2 01 27
        E 5 b2 01 2a
        E 5 b2 01 2d
        E 5 b2 01 30
        E 5 b2 01 33
        E 5 b2 01 36
        E 5 b2 01 39
        E 5 b2 01 3c
        E 5 b2 01 40
        E 9 b2 01 39
        E 9 b2 01 3c
        E 9 b2 01 3f
        E 9 b2 01 41
        E 9 b2 01 44
        E 9 b2 01 47
        E 9 b2 01 49
        E 9 b2 01 4c
        E 9 b2 01 4f
        E 9 b2 01 51
        E 9 b2 01 54
        E 9 b2 01 56
        E 9 b2 01 59
        E 9 b2 01 5b
        E 9 b2 01 5d
        E 9 b2 01 5f
        E 9 b2 01 62
        E 9 b2 01 63
        E 9 b2 01 65
        E 9 b2 01 67
        E 9 b2 01 69
        E 9 b2 01 6a
        E 9 b2 01 6c
        E 9 b2 01 6c
        E 9 b2 01 6d
        E 9 b2 01 6e
        E 9 b2 01 6f
        E 9 b2 01 70
        E 9 b2 01 71
        E 9 b2 01 71
        E 9 b2 01 72
        E 9 b2 01 72
        E 9 b2 01 72
        E 9 b2 01 72
        E 9 b2 01 72
        E 9 b2 01 71
        E 9 b2 01 71
        E 9 b2 01 70
        E 9 b2 01 6f
        E 9 b2 01 6e
        E 9 b2 01 6d
        E 9 b2 01 6c
        E 9 b2 01 6b
        E 9 b2 01 69
        E 9 b2 01 68
        E 9 b2 01 66
        E 9 b2 01 64
        E 9 b2 01 63
        E 9 b2 01 61
        E 9 b2 01 5e
        E 9 b2 01 5c
        E 9 b2 01 5a
        E 9 b2 01 58
        E 9 b2 01 55
        E 9 b2 01 52
        E 9 b2 01 50
        E 9 b2 01 4e
        E 9 b2 01 4b
        E 9 b2 01 48
        E 9 b2 01 46
        E 9 b2 01 42
        E 9 b2 01 3f
        E 9 b2 01 3d
        E 9 b2 01 3a
        E 9 b2 01 37
        E 9 b2 01 35
        E 9 b2 01 32
        E 9 b2 01 2f
        E 9 b2 01 2c
        E 9 b2 01 29
        E 9 b2 01 26
        E 9 b2 01 24
        E 9 b2 01 22
        E 9 b2 01 1f
        E 9 b2 01 1c
        E 9 b2 01 1a
        E 9 b2 01 18
        E 9 b2 01 15
        E 9 b2 01 13
        E 9 b2 01 11
        E 9 b2 01 0f
        E 9 b2 01 0d
        E 9 b2 01 0b
        E 9 b2 01 09
        E 9 b2 01 09
        E 9 b2 01 07
        E 9 b2 01 06
        E 9 b2 01 04
        E 9 b2 01 03
        E 9 b2 01 02
        E 9 b2 01 01
        E 9 b2 01 00
        E 9 b2 01 00
        E 9 b2 01 00
        E 9 b2 01 00
        E 9 b2 01 00
        E 9 b2 01 00
        E 9 b2 01 00
        E 9 b2 01 00
        E 9 b2 01 00
        E 9 b2 01 01
        E 9 b2 01 02
        E 9 b2 01 03
        E 9 b2 01 04
        E 9 b2 01 05
        E 9 b2 01 06
        E 9 b2 01 08
        E 9 b2 01 09
        E 9 b2 01 0a
        E 9 b2 01 0c
        E 9 b2 01 0e
        E 9 b2 01 10
        E 9 b2 01 12
        E 9 b2 01 14
        E 9 b2 01 16
        E 9 b2 01 19
        E 9 b2 01 1b
        E 9 b2 01 1d
        E 9 b2 01 20
        E 9 b2 01 23
        E 9 b2 01 25
        E 9 b2 01 28
        E 9 b2 01 2b
        E 9 b2 01 2d
        E 9 b2 01 30
        E 9 b2 01 33
        E 9 b2 01 36
        E 9 b2 01 39
        E 7 b2 01 20
        E 7 b2 01 21
        E 7 b2 01 23
        E 7 b2 01 24
        E 7 b2 01 26
        E 7 b2 01 27
        E 7 b2 01 29
        E 7 b2 01 2a
        E 7 b2 01 2c
        E 7 b2 01 2d
        E 7 b2 01 2f
        E 7 b2 01 30
        E 7 b2 01 31
        E 7 b2 01 33
        E 7 b2 01 34
        E 7 b2 01 35
        E 7 b2 01 36
        E 7 b2 01 37
        E 7 b2 01 38
        E 7 b2 01 39
        E 7 b2 01 3a
        E 7 b2 01 3b
        E 7 b2 01 3c
        E 7 b2 01 3c
        E 7 b2 01 3d
        E 7 b2 01 3d
        E 7 b2 01 3e
        E 7 b2 01 3e
        E 7 b2 01 3f
        E 7 b2 01 3f
        E 7 b2 01 3f
        E 7 b2 01 3f
        E 7 b2 01 3f
        E 7 b2 01 3f
        E 7 b2 01 3f
        E 7 b2 01 3f
        E 7 b2 01 3f
        E 7 b2 01 3e
        E 7 b2 01 3e
        E 7 b2 01 3d
        E 7 b2 01 3d
        E 7 b2 01 3c
        E 7 b2 01 3b
        E 7 b2 01 3a
        E 7 b2 01 3a
        E 7 b2 01 39
        E 7 b2 01 38
        E 7 b2 01 37
        E 7 b2 01 36
        E 7 b2 01 34
        E 7 b2 01 33
        E 7 b2 01 32
        E 7 b2 01 31
        E 7 b2 01 2f
        E 7 b2 01 2e
        E 7 b2 01 2c
        E 7 b2 01 2b
        E 7 b2 01 2a
        E 7 b2 01 28
        E 7 b2 01 27
        E 7 b2 01 25
        E 7 b2 01 23
        E 7 b2 01 22
        E 7 b2 01 20
        E 7 b2 01 1f
        E 7 b2 01 1d
        E 7 b2 01 1c
        E 7 b2 01 1a
        E 7 b2 01 18
        E 7 b2 01 17
        E 7 b2 01 15
        E 7 b2 01 14
        E 7 b2 01 13
        E 7 b2 01 11
        E 7 b2 01 10
        E 7 b2 01 0e
        E 7 b2 01 0d
        E 7 b2 01 0c
        E 7 b2 01 0b
        E 7 b2 01 09
        E 7 b2 01 08
        E 7 b2 01 07
        E 7 b2 01 06
        E 7 b2 01 05
        E 7 b2 01 05
        E 7 b2 01 04
        E 7 b2 01 03
        E 7 b2 01 02
        E 7 b2 01 02
        E 7 b2 01 01
        E 7 b2 01 01
        E 7 b2 01 00
        E 7 b2 01 00
        E 7 b2 01 00
        E 7 b2 01 00
        E 7 b2 01 00
        E 7 b2 01 00
        E 7 b2 01 00
        E 7 b2 01 00
        E 7 b2 01 00
        E 7 b2 01 01
        E 7 b2 01 01
        E 7 b2 01 02
        E 7 b2 01 02
        E 7 b2 01 03
        E 7 b2 01 03
        E 7 b2 01 04
        E 7 b2 01 05
        E 7 b2 01 06
        E 7 b2 01 07
        E 7 b2 01 08
        E 7 b2 01 09
        E 7 b2 01 0a
        E 7 b2 01 0b
        E 7 b2 01 0c
        E 7 b2 01 0e
        E 7 b2 01 0f
        E 7 b2 01 10
        E 7 b2 01 12
        E 7 b2 01 13
        E 7 b2 01 15
        E 7 b2 01 16
        E 7 b2 01 18
        E 7 b2 01 19
        E 7 b2 01 1b
        E 7 b2 01 1c
        E 7 b2 01 1e
        E 7 b2 01 20
        E 7 b2 01 20
        E 7 b2 01 21
        E 7 b2 01 23
        E 7 b2 01 24
        E 7 b2 01 26
        E 7 b2 01 27
        E 7 b2 01 29
        E 7 b2 01 2a
        E 7 b2 01 2c
        E 7 b2 01 2d
        E 7 b2 01 2f
        E 7 b2 01 30
        E 7 b2 01 31
        E 7 b2 01 33
        E 7 b2 01 34
        E 7 b2 01 35
        E 7 b2 01 36
        E 7 b2 01 37
        E 7 b2 01 38
        E 7 b2 01 39
        E 7 b2 01 3a
        E 7 b2 01 3b
        E 7 b2 01 3c
        E 7 b2 01 3c
        E 7 b2 01 3d
        E 7 b2 01 3d
        E 7 b2 01 3e
        E 7 b2 01 3e
        E 7 b2 01 3f
        E 7 b2 01 3f
        E 7 b2 01 3f
        E 7 b2 01 3f
        E 7 b2 01 3f
        E 7 b2 01 3f
        E 7 b2 01 3f
        E 7 b2 01 3f
        E 7 b2 01 3f
        E 7 b2 01 3e
        E 7 b2 01 3e
        E 7 b2 01 3d
        E 7 b2 01 3d
        E 7 b2 01 3c
        E 7 b2 01 3b
        E 7 b2 01 3a
        E 7 b2 01 3a
        E 7 b2 01 39
        E 7 b2 01 38
        E 7 b2 01 37
        E 7 b2 01 36
        E 7 b2 01 34
        E 7 b2 01 33
        E 7 b2 01 32
        E 7 b2 01 31
        E 7 b2 01 2f
        E 7 b2 01 2e
        E 7 b2 01 2c
        E 7 b2 01 2b
        E 7 b2 01 2a
        E 7 b2 01 28
        E 7 b2 01 27
        E 7 b2 01 25
        E 7 b2 01 23
        E 7 b2 01 22
        E 7 b2 01 20
        E 7 b2 01 1f
        E 7 b2 01 1d
        E 7 b2 01 1c
        E 7 b2 01 1a
        E 7 b2 01 18
        E 7 b2 01 17
        E 7 b2 01 15
        E 7 b2 01 14
        E 7 b2 01 13
        E 7 b2 01 11
        E 7 b2 01 10
        E 7 b2 01 0e
        E 7 b2 01 0d
        E 7 b2 01 0c
        E 7 b2 01 0b
        E 7 b2 01 09
        E 7 b2 01 08
        E 7 b2 01 07
        E 7 b2 01 06
        E 7 b2 01 05
        E 7 b2 01 05
        E 7 b2 01 04
        E 7 b2 01 03
        E 7 b2 01 02
        E 7 b2 01 02
        E 7 b2 01 01
        E 7 b2 01 01
        E 7 b2 01 00
        E 7 b2 01 00
        E 7 b2 01 00
        E 7 b2 01 00
        E 7 b2 01 00
        E 7 b2 01 00
        E 7 b2 01 00
        E 7 b2 01 00
        E 7 b2 01 00
        E 7 b2 01 01
        E 7 b2 01 01
        E 7 b2 01 02
        E 7 b2 01 02
        E 7 b2 01 03
        E 7 b2 01 03
        E 7 b2 01 04
        E 7 b2 01 05
        E 7 b2 01 06
        E 7 b2 01 07
        E 7 b2 01 08
        E 7 b2 01 09
        E 7 b2 01 0a
        E 7 b2 01 0b
        E 7 b2 01 0c
        E 7 b2 01 0e
        E 7 b2 01 0f
        E 7 b2 01 10
        E 7 b2 01 12
        E 7 b2 01 13
        E 7 b2 01 15
        E 7 b2 01 16
        E 7 b2 01 18
        E 7 b2 01 19
        E 7 b2 01 1b
        E 7 b2 01 1c
        E 7 b2 01 1e
        E 7 b2 01 20
        E 14 b2 01 2c
        E 14 b2 01 2e
        E 14 b2 01 31
        E 14 b2 01 33
        E 14 b2 01 35
        E 14 b2 01 37
        E 14 b2 01 39
        E 14 b2 01 3b
        E 14 b2 01 3d
        E 14 b2 01 3f
        E 14 b2 01 41
        E 14 b2 01 43
        E 14 b2 01 45
        E 14 b2 01 47
        E 14 b2 01 48
        E 14 b2 01 4a
        E 14 b2 01 4c
        E 14 b2 01 4d
        E 14 b2 01 4f
        E 14 b2 01 50
        E 14 b2 01 51
        E 14 b2 01 52
        E 14 b2 01 54
        E 14 b2 01 54
        E 14 b2 01 55
        E 14 b2 01 56
        E 14 b2 01 56
        E 14 b2 01 57
        E 14 b2 01 58
        E 14 b2 01 58
        E 14 b2 01 58
        E 14 b2 01 58
        E 14 b2 01 58
        E 14 b2 01 58
        E 14 b2 01 58
        E 14 b2 01 58
        E 14 b2 01 58
        E 14 b2 01 57
        E 14 b2 01 56
        E 14 b2 01 56
        E 14 b2 01 55
        E 14 b2 01 54
        E 14 b2 01 53
        E 14 b2 01 51
        E 14 b2 01 51
        E 14 b2 01 4f
        E 14 b2 01 4e
        E 14 b2 01 4d
        E 14 b2 01 4b
        E 14 b2 01 49
        E 14 b2 01 48
        E 14 b2 01 46
        E 14 b2 01 44
        E 14 b2 01 42
        E 14 b2 01 40
        E 14 b2 01 3e
        E 14 b2 01 3c
        E 14 b2 01 3a
        E 14 b2 01 38
        E 14 b2 01 36
        E 14 b2 01 33
        E 14 b2 01 31
        E 14 b2 01 2f
        E 14 b2 01 2d
        E 14 b2 01 2b
        E 14 b2 01 29
        E 14 b2 01 27
        E 14 b2 01 25
        E 14 b2 01 22
        E 14 b2 01 20
        E 14 b2 01 1e
        E 14 b2 01 1c
        E 14 b2 01 1a
        E 14 b2 01 18
        E 14 b2 01 16
        E 14 b2 01 14
        E 14 b2 01 12
        E 14 b2 01 10
        E 14 b2 01 0f
        E 14 b2 01 0d
        E 14 b2 01 0b
        E 14 b2 01 0a
        E 14 b2 01 09
        E 14 b2 01 07
        E 14 b2 01 07
        E 14 b2 01 05
        E 14 b2 01 04
        E 14 b2 01 03
        E 14 b2 01 02
        E 14 b2 01 02
        E 14 b2 01 01
        E 14 b2 01 00
        E 14 b2 01 00
        E 14 b2 01 00
        E 14 b2 01 00
        E 14 b2 01 00
        E 14 b2 01 00
        E 14 b2 01 00
        E 14 b2 01 00
        E 14 b2 01 00
        E 14 b2 01 01
        E 14 b2 01 02
        E 14 b2 01 02
        E 14 b2 01 03
        E 14 b2 01 04
        E 14 b2 01 04
        E 14 b2 01 06
        E 14 b2 01 07
        E 14 b2 01 08
        E 14 b2 01 09
        E 14 b2 01 0b
        E 14 b2 01 0c
        E 14 b2 01 0e
        E 14 b2 01 10
        E 14 b2 01 11
        E 14 b2 01 13
        E 14 b2 01 15
        E 14 b2 01 17
        E 14 b2 01 19
        E 14 b2 01 1b
        E 14 b2 01 1d
        E 14 b2 01 1f
        E 14 b2 01 21
        E 14 b2 01 23
        E 14 b2 01 25
        E 14 b2 01 27
        E 14 b2 01 2a
        E 14 b2 01 2c
        E 12 b2 01 33
        E 12 b2 01 35
        E 12 b2 01 37
        E 12 b2 01 3a
        E 12 b2 01 3c
        E 12 b2 01 3f
        E 12 b2 01 41
        E 12 b2 01 44
        E 12 b2 01 46
        E 12 b2 01 48
        E 12 b2 01 4b
        E 12 b2 01 4c
        E 12 b2 01 4f
        E 12 b2 01 51
        E 12 b2 01 53
        E 12 b2 01 54
        E 12 b2 01 57
        E 12 b2 01 58
        E 12 b2 01 5a
        E 12 b2 01 5b
        E 12 b2 01 5d
        E 12 b2 01 5e
        E 12 b2 01 5f
        E 12 b2 01 60
        E 12 b2 01 61
        E 12 b2 01 62
        E 12 b2 01 63
        E 12 b2 01 63
        E 12 b2 01 64
        E 12 b2 01 64
        E 12 b2 01 65
        E 12 b2 01 65
        E 12 b2 01 65
        E 12 b2 01 65
        E 12 b2 01 65
        E 12 b2 01 64
        E 12 b2 01 64
        E 12 b2 01 63
        E 12 b2 01 63
        E 12 b2 01 62
        E 12 b2 01 61
        E 12 b2 01 5f
        E 12 b2 01 5f
        E 12 b2 01 5d
        E 12 b2 01 5c
        E 12 b2 01 5b
        E 12 b2 01 59
        E 12 b2 01 57
        E 12 b2 01 56
        E 12 b2 01 54
        E 12 b2 01 52
        E 12 b2 01 50
        E 12 b2 01 4e
        E 12 b2 01 4c
        E 12 b2 01 49
        E 12 b2 01 47
        E 12 b2 01 45
        E 12 b2 01 43
        E 12 b2 01 40
        E 12 b2 01 3e
        E 12 b2 01 3b
        E 12 b2 01 38
        E 12 b2 01 36
        E 12 b2 01 33
        E 12 b2 01 31
        E 12 b2 01 2f
        E 12 b2 01 2c
        E 12 b2 01 2a
        E 12 b2 01 27
        E 12 b2 01 24
        E 12 b2 01 22
        E 12 b2 01 1f
        E 12 b2 01 1e
        E 12 b2 01 1b
        E 12 b2 01 19
        E 12 b2 01 17
        E 12 b2 01 15
        E 12 b2 01 13
        E 12 b2 01 11
        E 12 b2 01 0f
        E 12 b2 01 0d
        E 12 b2 01 0b
        E 12 b2 01 0a
        E 12 b2 01 08
        E 12 b2 01 07
        E 12 b2 01 06
        E 12 b2 01 05
        E 12 b2 01 03
        E 12 b2 01 03
        E 12 b2 01 02
        E 12 b2 01 01
        E 12 b2 01 00
        E 12 b2 01 00
        E 12 b2 01 00
        E 12 b2 01 00
        E 12 b2 01 00
        E 12 b2 01 00
        E 12 b2 01 00
        E 12 b2 01 00
        E 12 b2 01 00
        E 12 b2 01 01
        E 12 b2 01 02
        E 12 b2 01 03
        E 12 b2 01 03
        E 12 b2 01 04
        E 12 b2 01 05
        E 12 b2 01 07
        E 12 b2 01 07
        E 12 b2 01 09
        E 12 b2 01 0b
        E 12 b2 01 0c
        E 12 b2 01 0e
        E 12 b2 01 10
        E 12 b2 01 12
        E 12 b2 01 14
        E 12 b2 01 16
        E 12 b2 01 18
        E 12 b2 01 1a
        E 12 b2 01 1c
        E 12 b2 01 1f
        E 12 b2 01 21
        E 12 b2 01 24
        E 12 b2 01 26
        E 12 b2 01 28
        E 12 b2 01 2b
        E 12 b2 01 2d
        E 12 b2 01 2f
        E 12 b2 01 33
        E 14 b2 01 06
        E 14 b2 01 06
        E 14 b2 01 07
        E 14 b2 01 07
        E 14 b2 01 07
        E 14 b2 01 07
        E 14 b2 01 08
        E 14 b2 01 08
        E 14 b2 01 08
        E 14 b2 01 09
        E 14 b2 01 09
        E 14 b2 01 09
        E 14 b2 01 09
        E 14 b2 01 0a
        E 14 b2 01 0a
        E 14 b2 01 0a
        E 14 b2 01 0a
        E 14 b2 01 0b
        E 14 b2 01 0b
        E 14 b2 01 0b
        E 14 b2 01 0b
        E 14 b2 01 0b
        E 14 b2 01 0c
        E 14 b2 01 0c
        E 14 b2 01 0c
        E 14 b2 01 0c
        E 14 b2 01 0c
        E 14 b2 01 0c
        E 14 b2 01 0c
        E 14 b2 01 0c
        E 14 b2 01 0c
        E 14 b2 01 0c
        E 14 b2 01 0c
        E 14 b2 01 0c
        E 14 b2 01 0c
        E 14 b2 01 0c
        E 14 b2 01 0c
        E 14 b2 01 0c
        E 14 b2 01 0c
        E 14 b2 01 0c
        E 14 b2 01 0c
        E 14 b2 01 0c
        E 14 b2 01 0b
        E 14 b2 01 0b
        E 14 b2 01 0b
        E 14 b2 01 0b
        E 14 b2 01 0b
        E 14 b2 01 0b
        E 14 b2 01 0a
        E 14 b2 01 0a
        E 14 b2 01 0a
        E 14 b2 01 0a
        E 14 b2 01 09
        E 14 b2 01 09
        E 14 b2 01 09
        E 14 b2 01 08
        E 14 b2 01 08
        E 14 b2 01 08
        E 14 b2 01 08
        E 14 b2 01 07
        E 14 b2 01 07
        E 14 b2 01 07
        E 14 b2 01 06
        E 14 b2 01 06
        E 14 b2 01 06
        E 14 b2 01 05
        E 14 b2 01 05
        E 14 b2 01 05
        E 14 b2 01 04
        E 14 b2 01 04
        E 14 b2 01 04
        E 14 b2 01 04
        E 14 b2 01 03
        E 14 b2 01 03
        E 14 b2 01 03
        E 14 b2 01 02
        E 14 b2 01 02
        E 14 b2 01 02
        E 14 b2 01 02
        E 14 b2 01 01
        E 14 b2 01 01
        E 14 b2 01 01
        E 14 b2 01 01
        E 14 b2 01 01
        E 14 b2 01 01
        E 14 b2 01 00
        E 14 b2 01 00
        E 14 b2 01 00
        E 14 b2 01 00
        E 14 b2 01 00
        E 14 b2 01 00
        E 14 b2 01 00
        E 14 b2 01 00
        E 14 b2 01 00
        E 14 b2 01 00
        E 14 b2 01 00
        E 14 b2 01 00
        E 14 b2 01 00
        E 14 b2 01 00
        E 14 b2 01 00
        E 14 b2 01 00
        E 14 b2 01 00
        E 14 b2 01 00
        E 14 b2 01 00
        E 14 b2 01 00
        E 14 b2 01 00
        E 14 b2 01 00
        E 14 b2 01 01
        E 14 b2 01 01
        E 14 b2 01 01
        E 14 b2 01 01
        E 14 b2 01 01
        E 14 b2 01 02
        E 14 b2 01 02
        E 14 b2 01 02
        E 14 b2 01 02
        E 14 b2 01 03
        E 14 b2 01 03
        E 14 b2 01 03
        E 14 b2 01 03
        E 14 b2 01 04
        E 14 b2 01 04
        E 14 b2 01 04
        E 14 b2 01 05
        E 14 b2 01 05
        E 14 b2 01 05
        E 14 b2 01 06
        E 14 b2 01 06
        E 12 b2 01 19
        E 12 b2 01 1a
        E 12 b2 01 1c
        E 12 b2 01 1d
        E 12 b2 01 1e
        E 12 b2 01 1f
        E 12 b2 01 20
        E 12 b2 01 22
        E 12 b2 01 23
        E 12 b2 01 24
        E 12 b2 01 25
        E 12 b2 01 26
        E 12 b2 01 27
        E 12 b2 01 28
        E 12 b2 01 29
        E 12 b2 01 2a
        E 12 b2 01 2b
        E 12 b2 01 2c
        E 12 b2 01 2d
        E 12 b2 01 2e
        E 12 b2 01 2e
        E 12 b2 01 2f
        E 12 b2 01 30
        E 12 b2 01 30
        E 12 b2 01 30
        E 12 b2 01 31
        E 12 b2 01 31
        E 12 b2 01 32
        E 12 b2 01 32
        E 12 b2 01 32
        E 12 b2 01 32
        E 12 b2 01 32
        E 12 b2 01 32
        E 12 b2 01 32
        E 12 b2 01 32
        E 12 b2 01 32
        E 12 b2 01 32
        E 12 b2 01 32
        E 12 b2 01 31
        E 12 b2 01 31
        E 12 b2 01 30
        E 12 b2 01 30
        E 12 b2 01 2f
        E 12 b2 01 2e
        E 12 b2 01 2e
        E 12 b2 01 2d
        E 12 b2 01 2c
        E 12 b2 01 2c
        E 12 b2 01 2b
        E 12 b2 01 2a
        E 12 b2 01 29
        E 12 b2 01 28
        E 12 b2 01 27
        E 12 b2 01 26
        E 12 b2 01 24
        E 12 b2 01 23
        E 12 b2 01 22
        E 12 b2 01 21
        E 12 b2 01 20
        E 12 b2 01 1f
        E 12 b2 01 1d
        E 12 b2 01 1c
        E 12 b2 01 1b
        E 12 b2 01 1a
        E 12 b2 01 18
        E 12 b2 01 17
        E 12 b2 01 16
        E 12 b2 01 15
        E 12 b2 01 13
        E 12 b2 01 12
        E 12 b2 01 11
        E 12 b2 01 10
        E 12 b2 01 0f
        E 12 b2 01 0e
        E 12 b2 01 0c
        E 12 b2 01 0b
        E 12 b2 01 0a
        E 12 b2 01 09
        E 12 b2 01 08
        E 12 b2 01 07
        E 12 b2 01 06
        E 12 b2 01 06
        E 12 b2 01 05
        E 12 b2 01 04
        E 12 b2 01 04
        E 12 b2 01 03
        E 12 b2 01 02
        E 12 b2 01 02
        E 12 b2 01 01
        E 12 b2 01 01
        E 12 b2 01 00
        E 12 b2 01 00
        E 12 b2 01 00
        E 12 b2 01 00
        E 12 b2 01 00
        E 12 b2 01 00
        E 12 b2 01 00
        E 12 b2 01 00
        E 12 b2 01 00
        E 12 b2 01 00
        E 12 b2 01 00
        E 12 b2 01 01
        E 12 b2 01 01
        E 12 b2 01 02
        E 12 b2 01 02
        E 12 b2 01 02
        E 12 b2 01 03
        E 12 b2 01 04
        E 12 b2 01 04
        E 12 b2 01 05
        E 12 b2 01 06
        E 12 b2 01 07
        E 12 b2 01 08
        E 12 b2 01 09
        E 12 b2 01 0a
        E 12 b2 01 0b
        E 12 b2 01 0c
        E 12 b2 01 0d
        E 12 b2 01 0e
        E 12 b2 01 0f
        E 12 b2 01 10
        E 12 b2 01 12
        E 12 b2 01 13
        E 12 b2 01 14
        E 12 b2 01 15
        E 12 b2 01 16
        E 12 b2 01 18
        E 12 b2 01 19
        E 7 b2 01 2c
        E 7 b2 01 2e
        E 7 b2 01 31
        E 7 b2 01 33
        E 7 b2 01 35
        E 7 b2 01 37
        E 7 b2 01 39
        E 7 b2 01 3b
        E 7 b2 01 3d
        E 7 b2 01 3f
        E 7 b2 01 41
        E 7 b2 01 43
        E 7 b2 01 45
        E 7 b2 01 47
        E 7 b2 01 48
        E 7 b2 01 4a
        E 7 b2 01 4c
        E 7 b2 01 4d
        E 7 b2 01 4f
        E 7 b2 01 50
        E 7 b2 01 51
        E 7 b2 01 52
        E 7 b2 01 54
        E 7 b2 01 54
        E 7 b2 01 55
        E 7 b2 01 56
        E 7 b2 01 56
        E 7 b2 01 57
        E 7 b2 01 58
        E 7 b2 01 58
        E 7 b2 01 58
        E 7 b2 01 58
        E 7 b2 01 58
        E 7 b2 01 58
        E 7 b2 01 58
        E 7 b2 01 58
        E 7 b2 01 58
        E 7 b2 01 57
        E 7 b2 01 56
        E 7 b2 01 56
        E 7 b2 01 55
        E 7 b2 01 54
        E 7 b2 01 53
        E 7 b2 01 51
        E 7 b2 01 51
        E 7 b2 01 4f
        E 7 b2 01 4e
        E 7 b2 01 4d
        E 7 b2 01 4b
        E 7 b2 01 49
        E 7 b2 01 48
        E 7 b2 01 46
        E 7 b2 01 44
        E 7 b2 01 42
        E 7 b2 01 40
        E 7 b2 01 3e
        E 7 b2 01 3c
        E 7 b2 01 3a
        E 7 b2 01 38
        E 7 b2 01 36
        E 7 b2 01 33
        E 7 b2 01 31
        E 7 b2 01 2f
        E 7 b2 01 2d
        E 7 b2 01 2b
        E 7 b2 01 29
        E 7 b2 01 27
        E 7 b2 01 25
        E 7 b2 01 22
        E 7 b2 01 20
        E 7 b2 01 1e
        E 7 b2 01 1c
        E 7 b2 01 1a
        E 7 b2 01 18
        E 7 b2 01 16
        E 7 b2 01 14
        E 7 b2 01 12
        E 7 b2 01 10
        E 7 b2 01 0f
        E 7 b2 01 0d
        E 7 b2 01 0b
        E 7 b2 01 0a
        E 7 b2 01 09
        E 7 b2 01 07
        E 7 b2 01 07
        E 7 b2 01 05
        E 7 b2 01 04
        E 7 b2 01 03
        E 7 b2 01 02
        E 7 b2 01 02
        E 7 b2 01 01
        E 7 b2 01 00
        E 7 b2 01 00
        E 7 b2 01 00
        E 7 b2 01 00
        E 7 b2 01 00
        E 7 b2 01 00
        E 7 b2 01 00
        E 7 b2 01 00
        E 7 b2 01 00
        E 7 b2 01 01
        E 7 b2 01 02
        E 7 b2 01 02
        E 7 b2 01 03
        E 7 b2 01 04
        E 7 b2 01 04
        E 7 b2 01 06
        E 7 b2 01 07
        E 7 b2 01 08
        E 7 b2 01 09
        E 7 b2 01 0b
        E 7 b2 01 0c
        E 7 b2 01 0e
        E 7 b2 01 10
        E 7 b2 01 11
        E 7 b2 01 13
        E 7 b2 01 15
        E 7 b2 01 17
        E 7 b2 01 19
        E 7 b2 01 1b
        E 7 b2 01 1d
        E 7 b2 01 1f
        E 7 b2 01 21
        E 7 b2 01 23
        E 7 b2 01 25
        E 7 b2 01 27
        E 7 b2 01 2a
        E 7 b2 01 2c
        E 7 b2 01 20
        E 7 b2 01 21
        E 7 b2 01 23
        E 7 b2 01 24
        E 7 b2 01 26
        E 7 b2 01 27
        E 7 b2 01 29
        E 7 b2 01 2a
        E 7 b2 01 2c
        E 7 b2 01 2d
        E 7 b2 01 2f
        E 7 b2 01 30
        E 7 b2 01 31
        E 7 b2 01 33
        E 7 b2 01 34
        E 7 b2 01 35
        E 7 b2 01 36
        E 7 b2 01 37
        E 7 b2 01 38
        E 7 b2 01 39
        E 7 b2 01 3a
        E 7 b2 01 3b
        E 7 b2 01 3c
        E 7 b2 01 3c
        E 7 b2 01 3d
        E 7 b2 01 3d
        E 7 b2 01 3e
        E 7 b2 01 3e
        E 7 b2 01 3f
        E 7 b2 01 3f
        E 7 b2 01 3f
        E 7 b2 01 3f
        E 7 b2 01 3f
        E 7 b2 01 3f
        E 7 b2 01 3f
        E 7 b2 01 3f
        E 7 b2 01 3f
        E 7 b2 01 3e
        E 7 b2 01 3e
        E 7 b2 01 3d
        E 7 b2 01 3d
        E 7 b2 01 3c
        E 7 b2 01 3b
        E 7 b2 01 3a
        E 7 b2 01 3a
        E 7 b2 01 39
        E 7 b2 01 38
        E 7 b2 01 37
        E 7 b2 01 36
        E 7 b2 01 34
        E 7 b2 01 33
        E 7 b2 01 32
        E 7 b2 01 31
        E 7 b2 01 2f
        E 7 b2 01 2e
        E 7 b2 01 2c
        E 7 b2 01 2b
        E 7 b2 01 2a
        E 7 b2 01 28
        E 7 b2 01 27
        E 7 b2 01 25
        E 7 b2 01 23
        E 7 b2 01 22
        E 7 b2 01 20
        E 7 b2 01 1f
        E 7 b2 01 1d
        E 7 b2 01 1c
        E 7 b2 01 1a
        E 7 b2 01 18
        E 7 b2 01 17
        E 7 b2 01 15
        E 7 b2 01 14
        E 7 b2 01 13
        E 7 b2 01 11
        E 7 b2 01 10
        E 7 b2 01 0e
        E 7 b2 01 0d
        E 7 b2 01 0c
        E 7 b2 01 0b
        E 7 b2 01 09
        E 7 b2 01 08
        E 7 b2 01 07
        E 7 b2 01 06
        E 7 b2 01 05
        E 7 b2 01 05
        E 7 b2 01 04
        E 7 b2 01 03
        E 7 b2 01 02
        E 7 b2 01 02
        E 7 b2 01 01
        E 7 b2 01 01
        E 7 b2 01 00
        E 7 b2 01 00
        E 7 b2 01 00
        E 7 b2 01 00
        E 7 b2 01 00
        E 7 b2 01 00
        E 7 b2 01 00
        E 7 b2 01 00
        E 7 b2 01 00
        E 7 b2 01 01
        E 7 b2 01 01
        E 7 b2 01 02
        E 7 b2 01 02
        E 7 b2 01 03
        E 7 b2 01 03
        E 7 b2 01 04
        E 7 b2 01 05
        E 7 b2 01 06
        E 7 b2 01 07
        E 7 b2 01 08
        E 7 b2 01 09
        E 7 b2 01 0a
        E 7 b2 01 0b
        E 7 b2 01 0c
        E 7 b2 01 0e
        E 7 b2 01 0f
        E 7 b2 01 10
        E 7 b2 01 12
        E 7 b2 01 13
        E 7 b2 01 15
        E 7 b2 01 16
        E 7 b2 01 18
        E 7 b2 01 19
        E 7 b2 01 1b
        E 7 b2 01 1c
        E 7 b2 01 1e
        E 7 b2 01 20
        E 9 b2 01 20
        E 9 b2 01 21
        E 9 b2 01 23
        E 9 b2 01 24
        E 9 b2 01 26
        E 9 b2 01 27
        E 9 b2 01 29
        E 9 b2 01 2a
        E 9 b2 01 2c
        E 9 b2 01 2d
        E 9 b2 01 2f
        E 9 b2 01 30
        E 9 b2 01 31
        E 9 b2 01 33
        E 9 b2 01 34
        E 9 b2 01 35
        E 9 b2 01 36
        E 9 b2 01 37
        E 9 b2 01 38
        E 9 b2 01 39
        E 9 b2 01 3a
        E 9 b2 01 3b
        E 9 b2 01 3c
        E 9 b2 01 3c
        E 9 b2 01 3d
        E 9 b2 01 3d
        E 9 b2 01 3e
        E 9 b2 01 3e
        E 9 b2 01 3f
        E 9 b2 01 3f
        E 9 b2 01 3f
        E 9 b2 01 3f
        E 9 b2 01 3f
        E 9 b2 01 3f
        E 9 b2 01 3f
        E 9 b2 01 3f
        E 9 b2 01 3f
        E 9 b2 01 3e
        E 9 b2 01 3e
        E 9 b2 01 3d
        E 9 b2 01 3d
        E 9 b2 01 3c
        E 9 b2 01 3b
        E 9 b2 01 3a
        E 9 b2 01 3a
        E 9 b2 01 39
        E 9 b2 01 38
        E 9 b2 01 37
        E 9 b2 01 36
        E 9 b2 01 34
        E 9 b2 01 33
        E 9 b2 01 32
        E 9 b2 01 31
        E 9 b2 01 2f
        E 9 b2 01 2e
        E 9 b2 01 2c
        E 9 b2 01 2b
        E 9 b2 01 2a
        E 9 b2 01 28
        E 9 b2 01 27
        E 9 b2 01 25
        E 9 b2 01 23
        E 9 b2 01 22
        E 9 b2 01 20
        E 9 b2 01 1f
        E 9 b2 01 1d
        E 9 b2 01 1c
        E 9 b2 01 1a
        E 9 b2 01 18
        E 9 b2 01 17
        E 9 b2 01 15
        E 9 b2 01 14
        E 9 b2 01 13
        E 9 b2 01 11
        E 9 b2 01 10
        E 9 b2 01 0e
        E 9 b2 01 0d
        E 9 b2 01 0c
        E 9 b2 01 0b
        E 9 b2 01 09
        E 9 b2 01 08
        E 9 b2 01 07
        E 9 b2 01 06
        E 9 b2 01 05
        E 9 b2 01 05
        E 9 b2 01 04
        E 9 b2 01 03
        E 9 b2 01 02
        E 9 b2 01 02
        E 9 b2 01 01
        E 9 b2 01 01
        E 9 b2 01 00
        E 9 b2 01 00
        E 9 b2 01 00
        E 9 b2 01 00
        E 9 b2 01 00
        E 9 b2 01 00
        E 9 b2 01 00
        E 9 b2 01 00
        E 9 b2 01 00
        E 9 b2 01 01
        E 9 b2 01 01
        E 9 b2 01 02
        E 9 b2 01 02
        E 9 b2 01 03
        E 9 b2 01 03
        E 9 b2 01 04
        E 9 b2 01 05
        E 9 b2 01 06
        E 9 b2 01 07
        E 9 b2 01 08
        E 9 b2 01 09
        E 9 b2 01 0a
        E 9 b2 01 0b
        E 9 b2 01 0c
        E 9 b2 01 0e
        E 9 b2 01 0f
        E 9 b2 01 10
        E 9 b2 01 12
        E 9 b2 01 13
        E 9 b2 01 15
        E 9 b2 01 16
        E 9 b2 01 18
        E 9 b2 01 19
        E 9 b2 01 1b
        E 9 b2 01 1c
        E 9 b2 01 1e
        E 9 b2 01 20
        E 11 b2 01 40
        E 11 b2 01 43
        E 11 b2 01 46
        E 11 b2 01 49
        E 11 b2 01 4c
        E 11 b2 01 4f
        E 11 b2 01 52
        E 11 b2 01 55
        E 11 b2 01 58
        E 11 b2 01 5b
        E 11 b2 01 5e
        E 11 b2 01 60
        E 11 b2 01 63
        E 11 b2 01 66
        E 11 b2 01 68
        E 11 b2 01 6a
        E 11 b2 01 6d
        E 11 b2 01 6f
        E 11 b2 01 71
        E 11 b2 01 73
        E 11 b2 01 75
        E 11 b2 01 76
        E 11 b2 01 78
        E 11 b2 01 79
        E 11 b2 01 7a
        E 11 b2 01 7b
        E 11 b2 01 7c
        E 11 b2 01 7d
        E 11 b2 01 7e
        E 11 b2 01 7e
        E 11 b2 01 7f
        E 11 b2 01 7f
        E 11 b2 01 7f
        E 11 b2 01 7f
        E 11 b2 01 7f
        E 11 b2 01 7e
        E 11 b2 01 7e
        E 11 b2 01 7d
        E 11 b2 01 7c
        E 11 b2 01 7b
        E 11 b2 01 7a
        E 11 b2 01 78
        E 11 b2 01 77
        E 11 b2 01 75
        E 11 b2 01 74
        E 11 b2 01 72
        E 11 b2 01 70
        E 11 b2 01 6e
        E 11 b2 01 6c
        E 11 b2 01 69
        E 11 b2 01 67
        E 11 b2 01 64
        E 11 b2 01 62
        E 11 b2 01 5f
        E 11 b2 01 5c
        E 11 b2 01 59
        E 11 b2 01 57
        E 11 b2 01 54
        E 11 b2 01 51
        E 11 b2 01 4e
        E 11 b2 01 4a
        E 11 b2 01 47
        E 11 b2 01 44
        E 11 b2 01 41
        E 11 b2 01 3e
        E 11 b2 01 3b
        E 11 b2 01 38
        E 11 b2 01 35
        E 11 b2 01 31
        E 11 b2 01 2e
        E 11 b2 01 2b
        E 11 b2 01 28
        E 11 b2 01 26
        E 11 b2 01 23
        E 11 b2 01 20
        E 11 b2 01 1d
        E 11 b2 01 1b
        E 11 b2 01 18
        E 11 b2 01 16
        E 11 b2 01 13
        E 11 b2 01 11
        E 11 b2 01 0f
        E 11 b2 01 0d
        E 11 b2 01 0b
        E 11 b2 01 0a
        E 11 b2 01 08
        E 11 b2 01 07
        E 11 b2 01 05
        E 11 b2 01 04
        E 11 b2 01 03
        E 11 b2 01 02
        E 11 b2 01 01
        E 11 b2 01 01
        E 11 b2 01 00
        E 11 b2 01 00
        E 11 b2 01 00
        E 11 b2 01 00
        E 11 b2 01 00
        E 11 b2 01 01
        E 11 b2 01 01
        E 11 b2 01 02
        E 11 b2 01 03
        E 11 b2 01 04
        E 11 b2 01 05
        E 11 b2 01 06
        E 11 b2 01 07
        E 11 b2 01 09
        E 11 b2 01 0a
        E 11 b2 01 0c
        E 11 b2 01 0e
        E 11 b2 01 10
        E 11 b2 01 12
        E 11 b2 01 15
        E 11 b2 01 17
        E 11 b2 01 19
        E 11 b2 01 1c
        E 11 b2 01 1f
        E 11 b2 01 21
        E 11 b2 01 24
        E 11 b2 01 27
        E 11 b2 01 2a
        E 11 b2 01 2d
        E 11 b2 01 30
        E 11 b2 01 33
        E 11 b2 01 36
        E 11 b2 01 39
        E 11 b2 01 3c
        E 11 b2 01 40
        E 1 b2 01 39
        E 1 b2 01 3c
        E 1 b2 01 3f
        E 1 b2 01 41
        E 1 b2 01 44
        E 1 b2 01 47
        E 1 b2 01 49
        E 1 b2 01 4c
        E 1 b2 01 4f
        E 1 b2 01 51
        E 1 b2 01 54
        E 1 b2 01 56
        E 1 b2 01 59
        E 1 b2 01 5b
        E 1 b2 01 5d
        E 1 b2 01 5f
        E 1 b2 01 62
        E 1 b2 01 63
        E 1 b2 01 65
        E 1 b2 01 67
        E 1 b2 01 69
        E 1 b2 01 6a
        E 1 b2 01 6c
        E 1 b2 01 6c
        E 1 b2 01 6d
        E 1 b2 01 6e
        E 1 b2 01 6f
        E 1 b2 01 70
        E 1 b2 01 71
        E 1 b2 01 71
        E 1 b2 01 72
        E 1 b2 01 72
        E 1 b2 01 72
        E 1 b2 01 72
        E 1 b2 01 72
        E 1 b2 01 71
        E 1 b2 01 71
        E 1 b2 01 70
        E 1 b2 01 6f
        E 1 b2 01 6e
        E 1 b2 01 6d
        E 1 b2 01 6c
        E 1 b2 01 6b
        E 1 b2 01 69
        E 1 b2 01 68
        E 1 b2 01 66
        E 1 b2 01 64
        E 1 b2 01 63
        E 1 b2 01 61
        E 1 b2 01 5e
        E 1 b2 01 5c
        E 1 b2 01 5a
        E 1 b2 01 58
        E 1 b2 01 55
        E 1 b2 01 52
        E 1 b2 01 50
        E 1 b2 01 4e
        E 1 b2 01 4b
        E 1 b2 01 48
        E 1 b2 01 46
        E 1 b2 01 42
        E 1 b2 01 3f
        E 1 b2 01 3d
        E 1 b2 01 3a
        E 1 b2 01 37
        E 1 b2 01 35
        E 1 b2 01 32
        E 1 b2 01 2f
        E 1 b2 01 2c
        E 1 b2 01 29
        E 1 b2 01 26
        E 1 b2 01 24
        E 1 b2 01 22
        E 1 b2 01 1f
        E 1 b2 01 1c
        E 1 b2 01 1a
        E 1 b2 01 18
        E 1 b2 01 15
        E 1 b2 01 13
        E 1 b2 01 11
        E 1 b2 01 0f
        E 1 b2 01 0d
        E 1 b2 01 0b
        E 1 b2 01 09
        E 1 b2 01 09
        E 1 b2 01 07
        E 1 b2 01 06
        E 1 b2 01 04
        E 1 b2 01 03
        E 1 b2 01 02
        E 1 b2 01 01
        E 1 b2 01 00
        E 1 b2 01 00
        E 1 b2 01 00
        E 1 b2 01 00
        E 1 b2 01 00
        E 1 b2 01 00
        E 1 b2 01 00
        E 1 b2 01 00
        E 1 b2 01 00
        E 1 b2 01 01
        E 1 b2 01 02
        E 1 b2 01 03
        E 1 b2 01 04
        E 1 b2 01 05
        E 1 b2 01 06
        E 1 b2 01 08
        E 1 b2 01 09
        E 1 b2 01 0a
        E 1 b2 01 0c
        E 1 b2 01 0e
        E 1 b2 01 10
        E 1 b2 01 12
        E 1 b2 01 14
        E 1 b2 01 16
        E 1 b2 01 19
        E 1 b2 01 1b
        E 1 b2 01 1d
        E 1 b2 01 20
        E 1 b2 01 23
        E 1 b2 01 25
        E 1 b2 01 28
        E 1 b2 01 2b
        E 1 b2 01 2d
        E 1 b2 01 30
        E 1 b2 01 33
        E 1 b2 01 36
        E 1 b2 01 39
        E 5 b2 01 40
        E 5 b2 01 43
        E 5 b2 01 46
        E 5 b2 01 49
        E 5 b2 01 4c
        E 5 b2 01 4f
        E 5 b2 01 52
        E 5 b2 01 55
        E 5 b2 01 58
        E 5 b2 01 5b
        E 5 b2 01 5e
        E 5 b2 01 60
        E 5 b2 01 63
        E 5 b2 01 66
        E 5 b2 01 68
        E 5 b2 01 6a
        E 5 b2 01 6d
        E 5 b2 01 6f
        E 5 b2 01 71
        E 5 b2 01 73
        E 5 b2 01 75
        E 5 b2 01 76
        E 5 b2 01 78
        E 5 b2 01 79
        E 5 b2 01 7a
        E 5 b2 01 7b
        E 5 b2 01 7c
        E 5 b2 01 7d
        E 5 b2 01 7e
        E 5 b2 01 7e
        E 5 b2 01 7f
        E 5 b2 01 7f
        E 5 b2 01 7f
        E 5 b2 01 7f
        E 5 b2 01 7f
        E 5 b2 01 7e
        E 5 b2 01 7e
        E 5 b2 01 7d
        E 5 b2 01 7c
        E 5 b2 01 7b
        E 5 b2 01 7a
        E 5 b2 01 78
        E 5 b2 01 77
        E 5 b2 01 75
        E 5 b2 01 74
        E 5 b2 01 72
        E 5 b2 01 70
        E 5 b2 01 6e
        E 5 b2 01 6c
        E 5 b2 01 69
        E 5 b2 01 67
        E 5 b2 01 64
        E 5 b2 01 62
        E 5 b2 01 5f
        E 5 b2 01 5c
        E 5 b2 01 59
        E 5 b2 01 57
        E 5 b2 01 54
        E 5 b2 01 51
        E 5 b2 01 4e
        E 5 b2 01 4a
        E 5 b2 01 47
        E 5 b2 01 44
        E 5 b2 01 41
        E 5 b2 01 3e
        E 5 b2 01 3b
        E 5 b2 01 38
        E 5 b2 01 35
        E 5 b2 01 31
        E 5 b2 01 2e
        E 5 b2 01 2b
        E 5 b2 01 28
        E 5 b2 01 26
        E 5 b2 01 23
        E 5 b2 01 20
        E 5 b2 01 1d
        E 5 b2 01 1b
        E 5 b2 01 18
        E 5 b2 01 16
        E 5 b2 01 13
        E 5 b2 01 11
        E 5 b2 01 0f
        E 5 b2 01 0d
        E 5 b2 01 0b
        E 5 b2 01 0a
        E 5 b2 01 08
        E 5 b2 01 07
        E 5 b2 01 05
        E 5 b2 01 04
        E 5 b2 01 03
        E 5 b2 01 02
        E 5 b2 01 01
        E 5 b2 01 01
        E 5 b2 01 00
        E 5 b2 01 00
        E 5 b2 01 00
        E 5 b2 01 00
        E 5 b2 01 00
        E 5 b2 01 01
        E 5 b2 01 01
        E 5 b2 01 02
        E 5 b2 01 03
        E 5 b2 01 04
        E 5 b2 01 05
        E 5 b2 01 06
        E 5 b2 01 07
        E 5 b2 01 09
        E 5 b2 01 0a
        E 5 b2 01 0c
        E 5 b2 01 0e
        E 5 b2 01 10
        E 5 b2 01 12
        E 5 b2 01 15
        E 5 b2 01 17
        E 5 b2 01 19
        E 5 b2 01 1c
        E 5 b2 01 1f
        E 5 b2 01 21
        E 5 b2 01 24
        E 5 b2 01 27
        E 5 b2 01 2a
        E 5 b2 01 2d
        E 5 b2 01 30
        E 5 b2 01 33
        E 5 b2 01 36
        E 5 b2 01 39
        E 5 b2 01 3c
        E 5 b2 01 40
        E 9 b2 01 39
        E 9 b2 01 3c
        E 9 b2 01 3f
        E 9 b2 01 41
        E 9 b2 01 44
        E 9 b2 01 47
        E 9 b2 01 49
        E 9 b2 01 4c
        E 9 b2 01 4f
        E 9 b2 01 51
        E 9 b2 01 54
        E 9 b2 01 56
        E 9 b2 01 59
        E 9 b2 01 5b
        E 9 b2 01 5d
        E 9 b2 01 5f
        E 9 b2 01 62
        E 9 b2 01 63
        E 9 b2 01 65
        E 9 b2 01 67
        E 9 b2 01 69
        E 9 b2 01 6a
        E 9 b2 01 6c
        E 9 b2 01 6c
        E 9 b2 01 6d
        E 9 b2 01 6e
        E 9 b2 01 6f
        E 9 b2 01 70
        E 9 b2 01 71
        E 9 b2 01 71
        E 9 b2 01 72
        E 9 b2 01 72
        E 9 b2 01 72
        E 9 b2 01 72
        E 9 b2 01 72
        E 9 b2 01 71
        E 9 b2 01 71
        E 9 b2 01 70
        E 9 b2 01 6f
        E 9 b2 01 6e
        E 9 b2 01 6d
        E 9 b2 01 6c
        E 9 b2 01 6b
        E 9 b2 01 69
        E 9 b2 01 68
        E 9 b2 01 66
        E 9 b2 01 64
        E 9 b2 01 63
        E 9 b2 01 61
        E 9 b2 01 5e
        E 9 b2 01 5c
        E 9 b2 01 5a
        E 9 b2 01 58
        E 9 b2 01 55
        E 9 b2 01 52
        E 9 b2 01 50
        E 9 b2 01 4e
        E 9 b2 01 4b
        E 9 b2 01 48
        E 9 b2 01 46
        E 9 b2 01 42
        E 9 b2 01 3f
        E 9 b2 01 3d
        E 9 b2 01 3a
        E 9 b2 01 37
        E 9 b2 01 35
        E 9 b2 01 32
        E 9 b2 01 2f
        E 9 b2 01 2c
        E 9 b2 01 29
        E 9 b2 01 26
        E 9 b2 01 24
        E 9 b2 01 22
        E 9 b2 01 1f
        E 9 b2 01 1c
        E 9 b2 01 1a
        E 9 b2 01 18
        E 9 b2 01 15
        E 9 b2 01 13
        E 9 b2 01 11
        E 9 b2 01 0f
        E 9 b2 01 0d
        E 9 b2 01 0b
        E 9 b2 01 09
        E 9 b2 01 09
        E 9 b2 01 07
        E 9 b2 01 06
        E 9 b2 01 04
        E 9 b2 01 03
        E 9 b2 01 02
        E 9 b2 01 01
        E 9 b2 01 00
        E 9 b2 01 00
        E 9 b2 01 00
        E 9 b2 01 00
        E 9 b2 01 00
        E 9 b2 01 00
        E 9 b2 01 00
        E 9 b2 01 00
        E 9 b2 01 00
        E 9 b2 01 01
        E 9 b2 01 02
        E 9 b2 01 03
        E 9 b2 01 04
        E 9 b2 01 05
        E 9 b2 01 06
        E 9 b2 01 08
        E 9 b2 01 09
        E 9 b2 01 0a
        E 9 b2 01 0c
        E 9 b2 01 0e
        E 9 b2 01 10
        E 9 b2 01 12
        E 9 b2 01 14
        E 9 b2 01 16
        E 9 b2 01 19
        E 9 b2 01 1b
        E 9 b2 01 1d
        E 9 b2 01 20
        E 9 b2 01 23
        E 9 b2 01 25
        E 9 b2 01 28
        E 9 b2 01 2b
        E 9 b2 01 2d
        E 9 b2 01 30
        E 9 b2 01 33
        E 9 b2 01 36
        E 9 b2 01 39
        E 7 b2 01 20
        E 7 b2 01 21
        E 7 b2 01 23
        E 7 b2 01 24
        E 7 b2 01 26
        E 7 b2 01 27
        E 7 b2 01 29
        E 7 b2 01 2a
        E 7 b2 01 2c
        E 7 b2 01 2d
        E 7 b2 01 2f
        E 7 b2 01 30
        E 7 b2 01 31
        E 7 b2 01 33
        E 7 b2 01 34
        E 7 b2 01 35
        E 7 b2 01 36
        E 7 b2 01 37
        E 7 b2 01 38
        E 7 b2 01 39
        E 7 b2 01 3a
        E 7 b2 01 3b
        E 7 b2 01 3c
        E 7 b2 01 3c
        E 7 b2 01 3d
        E 7 b2 01 3d
        E 7 b2 01 3e
        E 7 b2 01 3e
        E 7 b2 01 3f
        E 7 b2 01 3f
        E 7 b2 01 3f
        E 7 b2 01 3f
        E 7 b2 01 3f
        E 7 b2 01 3f
        E 7 b2 01 3f
        E 7 b2 01 3f
        E 7 b2 01 3f
        E 7 b2 01 3e
        E 7 b2 01 3e
        E 7 b2 01 3d
        E 7 b2 01 3d
        E 7 b2 01 3c
        E 7 b2 01 3b
        E 7 b2 01 3a
        E 7 b2 01 3a
        E 7 b2 01 39
        E 7 b2 01 38
        E 7 b2 01 37
        E 7 b2 01 36
        E 7 b2 01 34
        E 7 b2 01 33
        E 7 b2 01 32
        E 7 b2 01 31
        E 7 b2 01 2f
        E 7 b2 01 2e
        E 7 b2 01 2c
        E 7 b2 01 2b
        E 7 b2 01 2a
        E 7 b2 01 28
        E 7 b2 01 27
        E 7 b2 01 25
        E 7 b2 01 23
        E 7 b2 01 22
        E 7 b2 01 20
        E 7 b2 01 1f
        E 7 b2 01 1d
        E 7 b2 01 1c
        E 7 b2 01 1a
        E 7 b2 01 18
        E 7 b2 01 17
        E 7 b2 01 15
        E 7 b2 01 14
        E 7 b2 01 13
        E 7 b2 01 11
        E 7 b2 01 10
        E 7 b2 01 0e
        E 7 b2 01 0d
        E 7 b2 01 0c
        E 7 b2 01 0b
        E 7 b2 01 09
        E 7 b2 01 08
        E 7 b2 01 07
        E 7 b2 01 06
        E 7 b2 01 05
        E 7 b2 01 05
        E 7 b2 01 04
        E 7 b2 01 03
        E 7 b2 01 02
        E 7 b2 01 02
        E 7 b2 01 01
        E 7 b2 01 01
        E 7 b2 01 00
        E 7 b2 01 00
        E 7 b2 01 00
        E 7 b2 01 00
        E 7 b2 01 00
        E 7 b2 01 00
        E 7 b2 01 00
        E 7 b2 01 00
        E 7 b2 01 00
        E 7 b2 01 01
        E 7 b2 01 01
        E 7 b2 01 02
        E 7 b2 01 02
        E 7 b2 01 03
        E 7 b2 01 03
        E 7 b2 01 04
        E 7 b2 01 05
        E 7 b2 01 06
        E 7 b2 01 07
        E 7 b2 01 08
        E 7 b2 01 09
        E 7 b2 01 0a
        E 7 b2 01 0b
        E 7 b2 01 0c
        E 7 b2 01 0e
        E 7 b2 01 0f
        E 7 b2 01 10
        E 7 b2 01 12
        E 7 b2 01 13
        E 7 b2 01 15
        E 7 b2 01 16
        E 7 b2 01 18
        E 7 b2 01 19
        E 7 b2 01 1b
        E 7 b2 01 1c
        E 7 b2 01 1e
        E 7 b2 01 20
        E 7 b2 01 20
        E 7 b2 01 21
        E 7 b2 01 23
        E 7 b2 01 24
        E 7 b2 01 26
        E 7 b2 01 27
        E 7 b2 01 29
        E 7 b2 01 2a
        E 7 b2 01 2c
        E 7 b2 01 2d
        E 7 b2 01 2f
        E 7 b2 01 30
        E 7 b2 01 31
        E 7 b2 01 33
        E 7 b2 01 34
        E 7 b2 01 35
        E 7 b2 01 36
        E 7 b2 01 37
        E 7 b2 01 38
        E 7 b2 01 39
        E 7 b2 01 3a
        E 7 b2 01 3b
        E 7 b2 01 3c
        E 7 b2 01 3c
        E 7 b2 01 3d
        E 7 b2 01 3d
        E 7 b2 01 3e
        E 7 b2 01 3e
        E 7 b2 01 3f
        E 7 b2 01 3f
        E 7 b2 01 3f
        E 7 b2 01 3f
        E 7 b2 01 3f
        E 7 b2 01 3f
        E 7 b2 01 3f
        E 7 b2 01 3f
        E 7 b2 01 3f
        E 7 b2 01 3e
        E 7 b2 01 3e
        E 7 b2 01 3d
        E 7 b2 01 3d
        E 7 b2 01 3c
        E 7 b2 01 3b
        E 7 b2 01 3a
        E 7 b2 01 3a
        E 7 b2 01 39
        E 7 b2 01 38
        E 7 b2 01 37
        E 7 b2 01 36
        E 7 b2 01 34
        E 7 b2 01 33
        E 7 b2 01 32
        E 7 b2 01 31
        E 7 b2 01 2f
        E 7 b2 01 2e
        E 7 b2 01 2c
        E 7 b2 01 2b
        E 7 b2 01 2a
        E 7 b2 01 28
        E 7 b2 01 27
        E 7 b2 01 25
        E 7 b2 01 23
        E 7 b2 01 22
        E 7 b2 01 20
        E 7 b2 01 1f
        E 7 b2 01 1d
        E 7 b2 01 1c
        E 7 b2 01 1a
        E 7 b2 01 18
        E 7 b2 01 17
        E 7 b2 01 15
        E 7 b2 01 14
        E 7 b2 01 13
        E 7 b2 01 11
        E 7 b2 01 10
        E 7 b2 01 0e
        E 7 b2 01 0d
        E 7 b2 01 0c
        E 7 b2 01 0b
        E 7 b2 01 09
        E 7 b2 01 08
        E 7 b2 01 07
        E 7 b2 01 06
        E 7 b2 01 05
        E 7 b2 01 05
        E 7 b2 01 04
        E 7 b2 01 03
        E 7 b2 01 02
        E 7 b2 01 02
        E 7 b2 01 01
        E 7 b2 01 01
        E 7 b2 01 00
        E 7 b2 01 00
        E 7 b2 01 00
        E 7 b2 01 00
        E 7 b2 01 00
        E 7 b2 01 00
        E 7 b2 01 00
        E 7 b2 01 00
        E 7 b2 01 00
        E 7 b2 01 01
        E 7 b2 01 01
        E 7 b2 01 02
        E 7 b2 01 02
        E 7 b2 01 03
        E 7 b2 01 03
        E 7 b2 01 04
        E 7 b2 01 05
        E 7 b2 01 06
        E 7 b2 01 07
        E 7 b2 01 08
        E 7 b2 01 09
        E 7 b2 01 0a
        E 7 b2 01 0b
        E 7 b2 01 0c
        E 7 b2 01 0e
        E 7 b2 01 0f
        E 7 b2 01 10
        E 7 b2 01 12
        E 7 b2 01 13
        E 7 b2 01 15
        E 7 b2 01 16
        E 7 b2 01 18
        E 7 b2 01 19
        E 7 b2 01 1b
        E 7 b2 01 1c
        E 7 b2 01 1e
        E 7 b2 01 20
        E 14 b2 01 2c
        E 14 b2 01 2e
        E 14 b2 01 31
        E 14 b2 01 33
        E 14 b2 01 35
        E 14 b2 01 37
        E 14 b2 01 39
        E 14 b2 01 3b
        E 14 b2 01 3d
        E 14 b2 01 3f
        E 14 b2 01 41
        E 14 b2 01 43
        E 14 b2 01 45
        E 14 b2 01 47
        E 14 b2 01 48
        E 14 b2 01 4a
        E 14 b2 01 4c
        E 14 b2 01 4d
        E 14 b2 01 4f
        E 14 b2 01 50
        E 14 b2 01 51
        E 14 b2 01 52
        E 14 b2 01 54
        E 14 b2 01 54
        E 14 b2 01 55
        E 14 b2 01 56
        E 14 b2 01 56
        E 14 b2 01 57
        E 14 b2 01 58
        E 14 b2 01 58
        E 14 b2 01 58
        E 14 b2 01 58
        E 14 b2 01 58
        E 14 b2 01 58
        E 14 b2 01 58
        E 14 b2 01 58
        E 14 b2 01 58
        E 14 b2 01 57
        E 14 b2 01 56
        E 14 b2 01 56
        E 14 b2 01 55
        E 14 b2 01 54
        E 14 b2 01 53
        E 14 b2 01 51
        E 14 b2 01 51
        E 14 b2 01 4f
        E 14 b2 01 4e
        E 14 b2 01 4d
        E 14 b2 01 4b
        E 14 b2 01 49
        E 14 b2 01 48
        E 14 b2 01 46
        E 14 b2 01 44
        E 14 b2 01 42
        E 14 b2 01 40
        E 14 b2 01 3e
        E 14 b2 01 3c
        E 14 b2 01 3a
        E 14 b2 01 38
        E 14 b2 01 36
        E 14 b2 01 33
        E 14 b2 01 31
        E 14 b2 01 2f
        E 14 b2 01 2d
        E 14 b2 01 2b
        E 14 b2 01 29
        E 14 b2 01 27
        E 14 b2 01 25
        E 14 b2 01 22
        E 14 b2 01 20
        E 14 b2 01 1e
        E 14 b2 01 1c
        E 14 b2 01 1a
        E 14 b2 01 18
        E 14 b2 01 16
        E 14 b2 01 14
        E 14 b2 01 12
        E 14 b2 01 10
        E 14 b2 01 0f
        E 14 b2 01 0d
        E 14 b2 01 0b
        E 14 b2 01 0a
        E 14 b2 01 09
        E 14 b2 01 07
        E 14 b2 01 07
        E 14 b2 01 05
        E 14 b2 01 04
        E 14 b2 01 03
        E 14 b2 01 02
        E 14 b2 01 02
        E 14 b2 01 01
        E 14 b2 01 00
        E 14 b2 01 00
        E 14 b2 01 00
        E 14 b2 01 00
        E 14 b2 01 00
        E 14 b2 01 00
        E 14 b2 01 00
        E 14 b2 01 00
        E 14 b2 01 00
        E 14 b2 01 01
        E 14 b2 01 02
        E 14 b2 01 02
        E 14 b2 01 03
        E 14 b2 01 04
        E 14 b2 01 04
        E 14 b2 01 06
        E 14 b2 01 07
        E 14 b2 01 08
        E 14 b2 01 09
        E 14 b2 01 0b
        E 14 b2 01 0c
        E 14 b2 01 0e
        E 14 b2 01 10
        E 14 b2 01 11
        E 14 b2 01 13
        E 14 b2 01 15
        E 14 b2 01 17
        E 14 b2 01 19
        E 14 b2 01 1b
        E 14 b2 01 1d
        E 14 b2 01 1f
        E 14 b2 01 21
        E 14 b2 01 23
        E 14 b2 01 25
        E 14 b2 01 27
        E 14 b2 01 2a
        E 14 b2 01 2c
        E 12 b2 01 33
        E 12 b2 01 35
        E 12 b2 01 37
        E 12 b2 01 3a
        E 12 b2 01 3c
        E 12 b2 01 3f
        E 12 b2 01 41
        E 12 b2 01 44
        E 12 b2 01 46
        E 12 b2 01 48
        E 12 b2 01 4b
        E 12 b2 01 4c
        E 12 b2 01 4f
        E 12 b2 01 51
        E 12 b2 01 53
        E 12 b2 01 54
        E 12 b2 01 57
        E 12 b2 01 58
        E 12 b2 01 5a
        E 12 b2 01 5b
        E 12 b2 01 5d
        E 12 b2 01 5e
        E 12 b2 01 5f
        E 12 b2 01 60
        E 12 b2 01 61
        E 12 b2 01 62
        E 12 b2 01 63
        E 12 b2 01 63
        E 12 b2 01 64
        E 12 b2 01 64
        E 12 b2 01 65
        E 12 b2 01 65
        E 12 b2 01 65
        E 12 b2 01 65
        E 12 b2 01 65
        E 12 b2 01 64
        E 12 b2 01 64
        E 12 b2 01 63
        E 12 b2 01 63
        E 12 b2 01 62
        E 12 b2 01 61
        E 12 b2 01 5f
        E 12 b2 01 5f
        E 12 b2 01 5d
        E 12 b2 01 5c
        E 12 b2 01 5b
        E 12 b2 01 59
        E 12 b2 01 57
        E 12 b2 01 56
        E 12 b2 01 54
        E 12 b2 01 52
        E 12 b2 01 50
        E 12 b2 01 4e
        E 12 b2 01 4c
        E 12 b2 01 49
        E 12 b2 01 47
        E 12 b2 01 45
        E 12 b2 01 43
        E 12 b2 01 40
        E 12 b2 01 3e
        E 12 b2 01 3b
        E 12 b2 01 38
        E 12 b2 01 36
        E 12 b2 01 33
        E 12 b2 01 31
        E 12 b2 01 2f
        E 12 b2 01 2c
        E 12 b2 01 2a
        E 12 b2 01 27
        E 12 b2 01 24
        E 12 b2 01 22
        E 12 b2 01 1f
        E 12 b2 01 1e
        E 12 b2 01 1b
        E 12 b2 01 19
        E 12 b2 01 17
        E 12 b2 01 15
        E 12 b2 01 13
        E 12 b2 01 11
        E 12 b2 01 0f
        E 12 b2 01 0d
        E 12 b2 01 0b
        E 12 b2 01 0a
        E 12 b2 01 08
        E 12 b2 01 07
        E 12 b2 01 06
        E 12 b2 01 05
        E 12 b2 01 03
        E 12 b2 01 03
        E 12 b2 01 02
        E 12 b2 01 01
        E 12 b2 01 00
        E 12 b2 01 00
        E 12 b2 01 00
        E 12 b2 01 00
        E 12 b2 01 00
        E 12 b2 01 00
        E 12 b2 01 00
        E 12 b2 01 00
        E 12 b2 01 00
        E 12 b2 01 01
        E 12 b2 01 02
        E 12 b2 01 03
        E 12 b2 01 03
        E 12 b2 01 04
        E 12 b2 01 05
        E 12 b2 01 07
        E 12 b2 01 07
        E 12 b2 01 09
        E 12 b2 01 0b
        E 12 b2 01 0c
        E 12 b2 01 0e
        E 12 b2 01 10
        E 12 b2 01 12
        E 12 b2 01 14
        E 12 b2 01 16
        E 12 b2 01 18
        E 12 b2 01 1a
        E 12 b2 01 1c
        E 12 b2 01 1f
        E 12 b2 01 21
        E 12 b2 01 24
        E 12 b2 01 26
        E 12 b2 01 28
        E 12 b2 01 2b
        E 12 b2 01 2d
        E 12 b2 01 2f
        E 12 b2 01 33
        E 14 b2 01 06
        E 14 b2 01 06
        E 14 b2 01 07
        E 14 b2 01 07
        E 14 b2 01 07
        E 14 b2 01 07
        E 14 b2 01 08
        E 14 b2 01 08
        E 14 b2 01 08
        E 14 b2 01 09
        E 14 b2 01 09
        E 14 b2 01 09
        E 14 b2 01 09
        E 14 b2 01 0a
        E 14 b2 01 0a
        E 14 b2 01 0a
        E 14 b2 01 0a
        E 14 b2 01 0b
        E 14 b2 01 0b
        E 14 b2 01 0b
        E 14 b2 01 0b
        E 14 b2 01 0b
        E 14 b2 01 0c
        E 14 b2 01 0c
        E 14 b2 01 0c
        E 14 b2 01 0c
        E 14 b2 01 0c
        E 14 b2 01 0c
        E 14 b2 01 0c
        E 14 b2 01 0c
        E 14 b2 01 0c
        E 14 b2 01 0c
        E 14 b2 01 0c
        E 14 b2 01 0c
        E 14 b2 01 0c
        E 14 b2 01 0c
        E 14 b2 01 0c
        E 14 b2 01 0c
        E 14 b2 01 0c
        E 14 b2 01 0c
        E 14 b2 01 0c
        E 14 b2 01 0c
        E 14 b2 01 0b
        E 14 b2 01 0b
        E 14 b2 01 0b
        E 14 b2 01 0b
        E 14 b2 01 0b
        E 14 b2 01 0b
        E 14 b2 01 0a
        E 14 b2 01 0a
        E 14 b2 01 0a
        E 14 b2 01 0a
        E 14 b2 01 09
        E 14 b2 01 09
        E 14 b2 01 09
        E 14 b2 01 08
        E 14 b2 01 08
        E 14 b2 01 08
        E 14 b2 01 08
        E 14 b2 01 07
        E 14 b2 01 07
        E 14 b2 01 07
        E 14 b2 01 06
        E 14 b2 01 06
        E 14 b2 01 06
        E 14 b2 01 05
        E 14 b2 01 05
        E 14 b2 01 05
        E 14 b2 01 04
        E 14 b2 01 04
        E 14 b2 01 04
        E 14 b2 01 04
        E 14 b2 01 03
        E 14 b2 01 03
        E 14 b2 01 03
        E 14 b2 01 02
        E 14 b2 01 02
        E 14 b2 01 02
        E 14 b2 01 02
        E 14 b2 01 01
        E 14 b2 01 01
        E 14 b2 01 01
        E 14 b2 01 01
        E 14 b2 01 01
        E 14 b2 01 01
        E 14 b2 01 00
        E 14 b2 01 00
        E 14 b2 01 00
        E 14 b2 01 00
        E 14 b2 01 00
        E 14 b2 01 00
        E 14 b2 01 00
        E 14 b2 01 00
        E 14 b2 01 00
        E 14 b2 01 00
        E 14 b2 01 00
        E 14 b2 01 00
        E 14 b2 01 00
        E 14 b2 01 00
        E 14 b2 01 00
        E 14 b2 01 00
        E 14 b2 01 00
        E 14 b2 01 00
        E 14 b2 01 00
        E 14 b2 01 00
        E 14 b2 01 00
        E 14 b2 01 00
        E 14 b2 01 01
        E 14 b2 01 01
        E 14 b2 01 01
        E 14 b2 01 01
        E 14 b2 01 01
        E 14 b2 01 02
        E 14 b2 01 02
        E 14 b2 01 02
        E 14 b2 01 02
        E 14 b2 01 03
        E 14 b2 01 03
        E 14 b2 01 03
        E 14 b2 01 03
        E 14 b2 01 04
        E 14 b2 01 04
        E 14 b2 01 04
        E 14 b2 01 05
        E 14 b2 01 05
        E 14 b2 01 05
        E 14 b2 01 06
        E 14 b2 01 06
        E 12 b2 01 19
        E 12 b2 01 1a
        E 12 b2 01 1c
        E 12 b2 01 1d
        E 12 b2 01 1e
        E 12 b2 01 1f
        E 12 b2 01 20
        E 12 b2 01 22
        E 12 b2 01 23
        E 12 b2 01 24
        E 12 b2 01 25
        E 12 b2 01 26
        E 12 b2 01 27
        E 12 b2 01 28
        E 12 b2 01 29
        E 12 b2 01 2a
        E 12 b2 01 2b
        E 12 b2 01 2c
        E 12 b2 01 2d
        E 12 b2 01 2e
        E 12 b2 01 2e
        E 12 b2 01 2f
        E 12 b2 01 30
        E 12 b2 01 30
        E 12 b2 01 30
        E 12 b2 01 31
        E 12 b2 01 31
        E 12 b2 01 32
        E 12 b2 01 32
        E 12 b2 01 32
        E 12 b2 01 32
        E 12 b2 01 32
        E 12 b2 01 32
        E 12 b2 01 32
        E 12 b2 01 32
        E 12 b2 01 32
        E 12 b2 01 32
        E 12 b2 01 32
        E 12 b2 01 31
        E 12 b2 01 31
        E 12 b2 01 30
        E 12 b2 01 30
        E 12 b2 01 2f
        E 12 b2 01 2e
        E 12 b2 01 2e
        E 12 b2 01 2d
        E 12 b2 01 2c
        E 12 b2 01 2c
        E 12 b2 01 2b
        E 12 b2 01 2a
        E 12 b2 01 29
        E 12 b2 01 28
        E 12 b2 01 27
        E 12 b2 01 26
        E 12 b2 01 24
        E 12 b2 01 23
        E 12 b2 01 22
        E 12 b2 01 21
        E 12 b2 01 20
        E 12 b2 01 1f
        E 12 b2 01 1d
        E 12 b2 01 1c
        E 12 b2 01 1b
        E 12 b2 01 1a
        E 12 b2 01 18
        E 12 b2 01 17
        E 12 b2 01 16
        E 12 b2 01 15
        E 12 b2 01 13
        E 12 b2 01 12
        E 12 b2 01 11
        E 12 b2 01 10
        E 12 b2 01 0f
        E 12 b2 01 0e
        E 12 b2 01 0c
        E 12 b2 01 0b
        E 12 b2 01 0a
        E 12 b2 01 09
        E 12 b2 01 08
        E 12 b2 01 07
        E 12 b2 01 06
        E 12 b2 01 06
        E 12 b2 01 05
        E 12 b2 01 04
        E 12 b2 01 04
        E 12 b2 01 03
        E 12 b2 01 02
        E 12 b2 01 02
        E 12 b2 01 01
        E 12 b2 01 01
        E 12 b2 01 00
        E 12 b2 01 00
        E 12 b2 01 00
        E 12 b2 01 00
        E 12 b2 01 00
        E 12 b2 01 00
        E 12 b2 01 00
        E 12 b2 01 00
        E 12 b2 01 00
        E 12 b2 01 00
        E 12 b2 01 00
        E 12 b2 01 01
        E 12 b2 01 01
        E 12 b2 01 02
        E 12 b2 01 02
        E 12 b2 01 02
        E 12 b2 01 03
        E 12 b2 01 04
        E 12 b2 01 04
        E 12 b2 01 05
        E 12 b2 01 06
        E 12 b2 01 07
        E 12 b2 01 08
        E 12 b2 01 09
        E 12 b2 01 0a
        E 12 b2 01 0b
        E 12 b2 01 0c
        E 12 b2 01 0d
        E 12 b2 01 0e
        E 12 b2 01 0f
        E 12 b2 01 10
        E 12 b2 01 12
        E 12 b2 01 13
        E 12 b2 01 14
        E 12 b2 01 15
        E 12 b2 01 16
        E 12 b2 01 18
        E 12 b2 01 19
        E 7 b2 01 2c
        E 7 b2 01 2e
        E 7 b2 01 31
        E 7 b2 01 33
        E 7 b2 01 35
        E 7 b2 01 37
        E 7 b2 01 39
        E 7 b2 01 3b
        E 7 b2 01 3d
        E 7 b2 01 3f
        E 7 b2 01 41
        E 7 b2 01 43
        E 7 b2 01 45
        E 7 b2 01 47
        E 7 b2 01 48
        E 7 b2 01 4a
        E 7 b2 01 4c
        E 7 b2 01 4d
        E 7 b2 01 4f
        E 7 b2 01 50
        E 7 b2 01 51
        E 7 b2 01 52
        E 7 b2 01 54
        E 7 b2 01 54
        E 7 b2 01 55
        E 7 b2 01 56
        E 7 b2 01 56
        E 7 b2 01 57
        E 7 b2 01 58
        E 7 b2 01 58
        E 7 b2 01 58
        E 7 b2 01 58
        E 7 b2 01 58
        E 7 b2 01 58
        E 7 b2 01 58
        E 7 b2 01 58
        E 7 b2 01 58
        E 7 b2 01 57
        E 7 b2 01 56
        E 7 b2 01 56
        E 7 b2 01 55
        E 7 b2 01 54
        E 7 b2 01 53
        E 7 b2 01 51
        E 7 b2 01 51
        E 7 b2 01 4f
        E 7 b2 01 4e
        E 7 b2 01 4d
        E 7 b2 01 4b
        E 7 b2 01 49
        E 7 b2 01 48
        E 7 b2 01 46
        E 7 b2 01 44
        E 7 b2 01 42
        E 7 b2 01 40
        E 7 b2 01 3e
        E 7 b2 01 3c
        E 7 b2 01 3a
        E 7 b2 01 38
        E 7 b2 01 36
        E 7 b2 01 33
        E 7 b2 01 31
        E 7 b2 01 2f
        E 7 b2 01 2d
        E 7 b2 01 2b
        E 7 b2 01 29
        E 7 b2 01 27
        E 7 b2 01 25
        E 7 b2 01 22
        E 7 b2 01 20
        E 7 b2 01 1e
        E 7 b2 01 1c
        E 7 b2 01 1a
        E 7 b2 01 18
        E 7 b2 01 16
        E 7 b2 01 14
        E 7 b2 01 12
        E 7 b2 01 10
        E 7 b2 01 0f
        E 7 b2 01 0d
        E 7 b2 01 0b
        E 7 b2 01 0a
        E 7 b2 01 09
        E 7 b2 01 07
        E 7 b2 01 07
        E 7 b2 01 05
        E 7 b2 01 04
        E 7 b2 01 03
        E 7 b2 01 02
        E 7 b2 01 02
        E 7 b2 01 01
        E 7 b2 01 00
        E 7 b2 01 00
        E 7 b2 01 00
        E 7 b2 01 00
        E 7 b2 01 00
        E 7 b2 01 00
        E 7 b2 01 00
        E 7 b2 01 00
        E 7 b2 01 00
        E 7 b2 01 01
        E 7 b2 01 02
        E 7 b2 01 02
        E 7 b2 01 03
        E 7 b2 01 04
        E 7 b2 01 04
        E 7 b2 01 06
        E 7 b2 01 07
        E 7 b2 01 08
        E 7 b2 01 09
        E 7 b2 01 0b
        E 7 b2 01 0c
        E 7 b2 01 0e
        E 7 b2 01 10
        E 7 b2 01 11
        E 7 b2 01 13
        E 7 b2 01 15
        E 7 b2 01 17
        E 7 b2 01 19
        E 7 b2 01 1b
        E 7 b2 01 1d
        E 7 b2 01 1f
        E 7 b2 01 21
        E 7 b2 01 23
        E 7 b2 01 25
        E 7 b2 01 27
        E 7 b2 01 2a
        E 7 b2 01 2c
        E 7 b2 01 20
        E 7 b2 01 21
        E 7 b2 01 23
        E 7 b2 01 24
        E 7 b2 01 26
        E 7 b2 01 27
        E 7 b2 01 29
        E 7 b2 01 2a
        E 7 b2 01 2c
        E 7 b2 01 2d
        E 7 b2 01 2f
        E 7 b2 01 30
        E 7 b2 01 31
        E 7 b2 01 33
        E 7 b2 01 34
        E 7 b2 01 35
        E 7 b2 01 36
        E 7 b2 01 37
        E 7 b2 01 38
        E 7 b2 01 39
        E 7 b2 01 3a
        E 7 b2 01 3b
        E 7 b2 01 3c
        E 7 b2 01 3c
        E 7 b2 01 3d
        E 7 b2 01 3d
        E 7 b2 01 3e
        E 7 b2 01 3e
        E 7 b2 01 3f
        E 7 b2 01 3f
        E 7 b2 01 3f
        E 7 b2 01 3f
        E 7 b2 01 3f
        E 7 b2 01 3f
        E 7 b2 01 3f
        E 7 b2 01 3f
        E 7 b2 01 3f
        E 7 b2 01 3e
        E 7 b2 01 3e
        E 7 b2 01 3d
        E 7 b2 01 3d
        E 7 b2 01 3c
        E 7 b2 01 3b
        E 7 b2 01 3a
        E 7 b2 01 3a
        E 7 b2 01 39
        E 7 b2 01 38
        E 7 b2 01 37
        E 7 b2 01 36
        E 7 b2 01 34
        E 7 b2 01 33
        E 7 b2 01 32
        E 7 b2 01 31
        E 7 b2 01 2f
        E 7 b2 01 2e
        E 7 b2 01 2c
        E 7 b2 01 2b
        E 7 b2 01 2a
        E 7 b2 01 28
        E 7 b2 01 27
        E 7 b2 01 25
        E 7 b2 01 23
        E 7 b2 01 22
        E 7 b2 01 20
        E 7 b2 01 1f
        E 7 b2 01 1d
        E 7 b2 01 1c
        E 7 b2 01 1a
        E 7 b2 01 18
        E 7 b2 01 17
        E 7 b2 01 15
        E 7 b2 01 14
        E 7 b2 01 13
        E 7 b2 01 11
        E 7 b2 01 10
        E 7 b2 01 0e
        E 7 b2 01 0d
        E 7 b2 01 0c
        E 7 b2 01 0b
        E 7 b2 01 09
        E 7 b2 01 08
        E 7 b2 01 07
        E 7 b2 01 06
        E 7 b2 01 05
        E 7 b2 01 05
        E 7 b2 01 04
        E 7 b2 01 03
        E 7 b2 01 02
        E 7 b2 01 02
        E 7 b2 01 01
        E 7 b2 01 01
        E 7 b2 01 00
        E 7 b2 01 00
        E 7 b2 01 00
        E 7 b2 01 00
        E 7 b2 01 00
        E 7 b2 01 00
        E 7 b2 01 00
        E 7 b2 01 00
        E 7 b2 01 00
        E 7 b2 01 01
        E 7 b2 01 01
        E 7 b2 01 02
        E 7 b2 01 02
        E 7 b2 01 03
        E 7 b2 01 03
        E 7 b2 01 04
        E 7 b2 01 05
        E 7 b2 01 06
        E 7 b2 01 07
        E 7 b2 01 08
        E 7 b2 01 09
        E 7 b2 01 0a
        E 7 b2 01 0b
        E 7 b2 01 0c
        E 7 b2 01 0e
        E 7 b2 01 0f
        E 7 b2 01 10
        E 7 b2 01 12
        E 7 b2 01 13
        E 7 b2 01 15
        E 7 b2 01 16
        E 7 b2 01 18
        E 7 b2 01 19
        E 7 b2 01 1b
        E 7 b2 01 1c
        E 7 b2 01 1e
        E 7 b2 01 20
        E 1 b2 01 39
        E 1 b2 01 3c
        E 1 b2 01 3f
        E 1 b2 01 41
        E 1 b2 01 44
        E 1 b2 01 47
        E 1 b2 01 49
        E 1 b2 01 4c
        E 1 b2 01 4f
        E 1 b2 01 51
        E 1 b2 01 54
        E 1 b2 01 56
        E 1 b2 01 59
        E 1 b2 01 5b
        E 1 b2 01 5d
        E 1 b2 01 5f
        E 1 b2 01 62
        E 1 b2 01 63
        E 1 b2 01 65
        E 1 b2 01 67
        E 1 b2 01 69
        E 1 b2 01 6a
        E 1 b2 01 6c
        E 1 b2 01 6c
        E 1 b2 01 6d
        E 1 b2 01 6e
        E 1 b2 01 6f
        E 1 b2 01 70
        E 1 b2 01 71
        E 1 b2 01 71
        E 1 b2 01 72
        E 1 b2 01 72
        E 1 b2 01 72
        E 1 b2 01 72
        E 1 b2 01 72
        E 1 b2 01 71
        E 1 b2 01 71
        E 1 b2 01 70
        E 1 b2 01 6f
        E 1 b2 01 6e
        E 1 b2 01 6d
        E 1 b2 01 6c
        E 1 b2 01 6b
        E 1 b2 01 69
        E 1 b2 01 68
        E 1 b2 01 66
        E 1 b2 01 64
        E 1 b2 01 63
        E 1 b2 01 61
        E 1 b2 01 5e
        E 1 b2 01 5c
        E 1 b2 01 5a
        E 1 b2 01 58
        E 1 b2 01 55
        E 1 b2 01 52
        E 1 b2 01 50
        E 1 b2 01 4e
        E 1 b2 01 4b
        E 1 b2 01 48
        E 1 b2 01 46
        E 1 b2 01 42
        E 1 b2 01 3f
        E 1 b2 01 3d
        E 1 b2 01 3a
        E 1 b2 01 37
        E 1 b2 01 35
        E 1 b2 01 32
        E 1 b2 01 2f
        E 1 b2 01 2c
        E 1 b2 01 29
        E 1 b2 01 26
        E 1 b2 01 24
        E 1 b2 01 22
        E 1 b2 01 1f
        E 1 b2 01 1c
        E 1 b2 01 1a
        E 1 b2 01 18
        E 1 b2 01 15
        E 1 b2 01 13
        E 1 b2 01 11
        E 1 b2 01 0f
        E 1 b2 01 0d
        E 1 b2 01 0b
        E 1 b2 01 09
        E 1 b2 01 09
        E 1 b2 01 07
        E 1 b2 01 06
        E 1 b2 01 04
        E 1 b2 01 03
        E 1 b2 01 02
        E 1 b2 01 01
        E 1 b2 01 00
        E 1 b2 01 00
        E 1 b2 01 00
        E 1 b2 01 00
        E 1 b2 01 00
        E 1 b2 01 00
        E 1 b2 01 00
        E 1 b2 01 00
        E 1 b2 01 00
        E 1 b2 01 01
        E 1 b2 01 02
        E 1 b2 01 03
        E 1 b2 01 04
        E 1 b2 01 05
        E 1 b2 01 06
        E 1 b2 01 08
        E 1 b2 01 09
        E 1 b2 01 0a
        E 1 b2 01 0c
        E 1 b2 01 0e
        E 1 b2 01 10
        E 1 b2 01 12
        E 1 b2 01 14
        E 1 b2 01 16
        E 1 b2 01 19
        E 1 b2 01 1b
        E 1 b2 01 1d
        E 1 b2 01 20
        E 1 b2 01 23
        E 1 b2 01 25
        E 1 b2 01 28
        E 1 b2 01 2b
        E 1 b2 01 2d
        E 1 b2 01 30
        E 1 b2 01 33
        E 1 b2 01 36
        E 1 b2 01 39
        E 5 b2 01 40
        E 5 b2 01 43
        E 5 b2 01 46
        E 5 b2 01 49
        E 5 b2 01 4c
        E 5 b2 01 4f
        E 5 b2 01 52
        E 5 b2 01 55
        E 5 b2 01 58
        E 5 b2 01 5b
        E 5 b2 01 5e
        E 5 b2 01 60
        E 5 b2 01 63
        E 5 b2 01 66
        E 5 b2 01 68
        E 5 b2 01 6a
        E 5 b2 01 6d
        E 5 b2 01 6f
        E 5 b2 01 71
        E 5 b2 01 73
        E 5 b2 01 75
        E 5 b2 01 76
        E 5 b2 01 78
        E 5 b2 01 79
        E 5 b2 01 7a
        E 5 b2 01 7b
        E 5 b2 01 7c
        E 5 b2 01 7d
        E 5 b2 01 7e
        E 5 b2 01 7e
        E 5 b2 01 7f
        E 5 b2 01 7f
        E 5 b2 01 7f
        E 5 b2 01 7f
        E 5 b2 01 7f
        E 5 b2 01 7e
        E 5 b2 01 7e
        E 5 b2 01 7d
        E 5 b2 01 7c
        E 5 b2 01 7b
        E 5 b2 01 7a
        E 5 b2 01 78
        E 5 b2 01 77
        E 5 b2 01 75
        E 5 b2 01 74
        E 5 b2 01 72
        E 5 b2 01 70
        E 5 b2 01 6e
        E 5 b2 01 6c
        E 5 b2 01 69
        E 5 b2 01 67
        E 5 b2 01 64
        E 5 b2 01 62
        E 5 b2 01 5f
        E 5 b2 01 5c
        E 5 b2 01 59
        E 5 b2 01 57
        E 5 b2 01 54
        E 5 b2 01 51
        E 5 b2 01 4e
        E 5 b2 01 4a
        E 5 b2 01 47
        E 5 b2 01 44
        E 5 b2 01 41
        E 5 b2 01 3e
        E 5 b2 01 3b
        E 5 b2 01 38
        E 5 b2 01 35
        E 5 b2 01 31
        E 5 b2 01 2e
        E 5 b2 01 2b
        E 5 b2 01 28
        E 5 b2 01 26
        E 5 b2 01 23
        E 5 b2 01 20
        E 5 b2 01 1d
        E 5 b2 01 1b
        E 5 b2 01 18
        E 5 b2 01 16
        E 5 b2 01 13
        E 5 b2 01 11
        E 5 b2 01 0f
        E 5 b2 01 0d
        E 5 b2 01 0b
        E 5 b2 01 0a
        E 5 b2 01 08
        E 5 b2 01 07
        E 5 b2 01 05
        E 5 b2 01 04
        E 5 b2 01 03
        E 5 b2 01 02
        E 5 b2 01 01
        E 5 b2 01 01
        E 5 b2 01 00
        E 5 b2 01 00
        E 5 b2 01 00
        E 5 b2 01 00
        E 5 b2 01 00
        E 5 b2 01 01
        E 5 b2 01 01
        E 5 b2 01 02
        E 5 b2 01 03
        E 5 b2 01 04
        E 5 b2 01 05
        E 5 b2 01 06
        E 5 b2 01 07
        E 5 b2 01 09
        E 5 b2 01 0a
        E 5 b2 01 0c
        E 5 b2 01 0e
        E 5 b2 01 10
        E 5 b2 01 12
        E 5 b2 01 15
        E 5 b2 01 17
        E 5 b2 01 19
        E 5 b2 01 1c
        E 5 b2 01 1f
        E 5 b2 01 21
        E 5 b2 01 24
        E 5 b2 01 27
        E 5 b2 01 2a
        E 5 b2 01 2d
        E 5 b2 01 30
        E 5 b2 01 33
        E 5 b2 01 36
        E 5 b2 01 39
        E 5 b2 01 3c
        E 5 b2 01 40
        E 9 b2 01 39
        E 9 b2 01 3c
        E 9 b2 01 3f
        E 9 b2 01 41
        E 9 b2 01 44
        E 9 b2 01 47
        E 9 b2 01 49
        E 9 b2 01 4c
        E 9 b2 01 4f
        E 9 b2 01 51
        E 9 b2 01 54
        E 9 b2 01 56
        E 9 b2 01 59
        E 9 b2 01 5b
        E 9 b2 01 5d
        E 9 b2 01 5f
        E 9 b2 01 62
        E 9 b2 01 63
        E 9 b2 01 65
        E 9 b2 01 67
        E 9 b2 01 69
        E 9 b2 01 6a
        E 9 b2 01 6c
        E 9 b2 01 6c
        E 9 b2 01 6d
        E 9 b2 01 6e
        E 9 b2 01 6f
        E 9 b2 01 70
        E 9 b2 01 71
        E 9 b2 01 71
        E 9 b2 01 72
        E 9 b2 01 72
        E 9 b2 01 72
        E 9 b2 01 72
        E 9 b2 01 72
        E 9 b2 01 71
        E 9 b2 01 71
        E 9 b2 01 70
        E 9 b2 01 6f
        E 9 b2 01 6e
        E 9 b2 01 6d
        E 9 b2 01 6c
        E 9 b2 01 6b
        E 9 b2 01 69
        E 9 b2 01 68
        E 9 b2 01 66
        E 9 b2 01 64
        E 9 b2 01 63
        E 9 b2 01 61
        E 9 b2 01 5e
        E 9 b2 01 5c
        E 9 b2 01 5a
        E 9 b2 01 58
        E 9 b2 01 55
        E 9 b2 01 52
        E 9 b2 01 50
        E 9 b2 01 4e
        E 9 b2 01 4b
        E 9 b2 01 48
        E 9 b2 01 46
        E 9 b2 01 42
        E 9 b2 01 3f
        E 9 b2 01 3d
        E 9 b2 01 3a
        E 9 b2 01 37
        E 9 b2 01 35
        E 9 b2 01 32
        E 9 b2 01 2f
        E 9 b2 01 2c
        E 9 b2 01 29
        E 9 b2 01 26
        E 9 b2 01 24
        E 9 b2 01 22
        E 9 b2 01 1f
        E 9 b2 01 1c
        E 9 b2 01 1a
        E 9 b2 01 18
        E 9 b2 01 15
        E 9 b2 01 13
        E 9 b2 01 11
        E 9 b2 01 0f
        E 9 b2 01 0d
        E 9 b2 01 0b
        E 9 b2 01 09
        E 9 b2 01 09
        E 9 b2 01 07
        E 9 b2 01 06
        E 9 b2 01 04
        E 9 b2 01 03
        E 9 b2 01 02
        E 9 b2 01 01
        E 9 b2 01 00
        E 9 b2 01 00
        E 9 b2 01 00
        E 9 b2 01 00
        E 9 b2 01 00
        E 9 b2 01 00
        E 9 b2 01 00
        E 9 b2 01 00
        E 9 b2 01 00
        E 9 b2 01 01
        E 9 b2 01 02
        E 9 b2 01 03
        E 9 b2 01 04
        E 9 b2 01 05
        E 9 b2 01 06
        E 9 b2 01 08
        E 9 b2 01 09
        E 9 b2 01 0a
        E 9 b2 01 0c
        E 9 b2 01 0e
        E 9 b2 01 10
        E 9 b2 01 12
        E 9 b2 01 14
        E 9 b2 01 16
        E 9 b2 01 19
        E 9 b2 01 1b
        E 9 b2 01 1d
        E 9 b2 01 20
        E 9 b2 01 23
        E 9 b2 01 25
        E 9 b2 01 28
        E 9 b2 01 2b
        E 9 b2 01 2d
        E 9 b2 01 30
        E 9 b2 01 33
        E 9 b2 01 36
        E 9 b2 01 39
        E 7 b2 01 20
        E 7 b2 01 21
        E 7 b2 01 23
        E 7 b2 01 24
        E 7 b2 01 26
        E 7 b2 01 27
        E 7 b2 01 29
        E 7 b2 01 2a
        E 7 b2 01 2c
        E 7 b2 01 2d
        E 7 b2 01 2f
        E 7 b2 01 30
        E 7 b2 01 31
        E 7 b2 01 33
        E 7 b2 01 34
        E 7 b2 01 35
        E 7 b2 01 36
        E 7 b2 01 37
        E 7 b2 01 38
        E 7 b2 01 39
        E 7 b2 01 3a
        E 7 b2 01 3b
        E 7 b2 01 3c
        E 7 b2 01 3c
        E 7 b2 01 3d
        E 7 b2 01 3d
        E 7 b2 01 3e
        E 7 b2 01 3e
        E 7 b2 01 3f
        E 7 b2 01 3f
        E 7 b2 01 3f
        E 7 b2 01 3f
        E 7 b2 01 3f
        E 7 b2 01 3f
        E 7 b2 01 3f
        E 7 b2 01 3f
        E 7 b2 01 3f
        E 7 b2 01 3e
        E 7 b2 01 3e
        E 7 b2 01 3d
        E 7 b2 01 3d
        E 7 b2 01 3c
        E 7 b2 01 3b
        E 7 b2 01 3a
        E 7 b2 01 3a
        E 7 b2 01 39
        E 7 b2 01 38
        E 7 b2 01 37
        E 7 b2 01 36
        E 7 b2 01 34
        E 7 b2 01 33
        E 7 b2 01 32
        E 7 b2 01 31
        E 7 b2 01 2f
        E 7 b2 01 2e
        E 7 b2 01 2c
        E 7 b2 01 2b
        E 7 b2 01 2a
        E 7 b2 01 28
        E 7 b2 01 27
        E 7 b2 01 25
        E 7 b2 01 23
        E 7 b2 01 22
        E 7 b2 01 20
        E 7 b2 01 1f
        E 7 b2 01 1d
        E 7 b2 01 1c
        E 7 b2 01 1a
        E 7 b2 01 18
        E 7 b2 01 17
        E 7 b2 01 15
        E 7 b2 01 14
        E 7 b2 01 13
        E 7 b2 01 11
        E 7 b2 01 10
        E 7 b2 01 0e
        E 7 b2 01 0d
        E 7 b2 01 0c
        E 7 b2 01 0b
        E 7 b2 01 09
        E 7 b2 01 08
        E 7 b2 01 07
        E 7 b2 01 06
        E 7 b2 01 05
        E 7 b2 01 05
        E 7 b2 01 04
        E 7 b2 01 03
        E 7 b2 01 02
        E 7 b2 01 02
        E 7 b2 01 01
        E 7 b2 01 01
        E 7 b2 01 00
        E 7 b2 01 00
        E 7 b2 01 00
        E 7 b2 01 00
        E 7 b2 01 00
        E 7 b2 01 00
        E 7 b2 01 00
        E 7 b2 01 00
        E 7 b2 01 00
        E 7 b2 01 01
        E 7 b2 01 01
        E 7 b2 01 02
        E 7 b2 01 02
        E 7 b2 01 03
        E 7 b2 01 03
        E 7 b2 01 04
        E 7 b2 01 05
        E 7 b2 01 06
        E 7 b2 01 07
        E 7 b2 01 08
        E 7 b2 01 09
        E 7 b2 01 0a
        E 7 b2 01 0b
        E 7 b2 01 0c
        E 7 b2 01 0e
        E 7 b2 01 0f
        E 7 b2 01 10
        E 7 b2 01 12
        E 7 b2 01 13
        E 7 b2 01 15
        E 7 b2 01 16
        E 7 b2 01 18
        E 7 b2 01 19
        E 7 b2 01 1b
        E 7 b2 01 1c
        E 7 b2 01 1e
        E 7 b2 01 20
        E 7 b2 01 20
        E 7 b2 01 21
        E 7 b2 01 23
        E 7 b2 01 24
        E 7 b2 01 26
        E 7 b2 01 27
        E 7 b2 01 29
        E 7 b2 01 2a
        E 7 b2 01 2c
        E 7 b2 01 2d
        E 7 b2 01 2f
        E 7 b2 01 30
        E 7 b2 01 31
        E 7 b2 01 33
        E 7 b2 01 34
        E 7 b2 01 35
        E 7 b2 01 36
        E 7 b2 01 37
        E 7 b2 01 38
        E 7 b2 01 39
        E 7 b2 01 3a
        E 7 b2 01 3b
        E 7 b2 01 3c
        E 7 b2 01 3c
        E 7 b2 01 3d
        E 7 b2 01 3d
        E 7 b2 01 3e
        E 7 b2 01 3e
        E 7 b2 01 3f
        E 7 b2 01 3f
        E 7 b2 01 3f
        E 7 b2 01 3f
        E 7 b2 01 3f
        E 7 b2 01 3f
        E 7 b2 01 3f
        E 7 b2 01 3f
        E 7 b2 01 3f
        E 7 b2 01 3e
        E 7 b2 01 3e
        E 7 b2 01 3d
        E 7 b2 01 3d
        E 7 b2 01 3c
        E 7 b2 01 3b
        E 7 b2 01 3a
        E 7 b2 01 3a
        E 7 b2 01 39
        E 7 b2 01 38
        E 7 b2 01 37
        E 7 b2 01 36
        E 7 b2 01 34
        E 7 b2 01 33
        E 7 b2 01 32
        E 7 b2 01 31
        E 7 b2 01 2f
        E 7 b2 01 2e
        E 7 b2 01 2c
        E 7 b2 01 2b
        E 7 b2 01 2a
        E 7 b2 01 28
        E 7 b2 01 27
        E 7 b2 01 25
        E 7 b2 01 23
        E 7 b2 01 22
        E 7 b2 01 20
        E 7 b2 01 1f
        E 7 b2 01 1d
        E 7 b2 01 1c
        E 7 b2 01 1a
        E 7 b2 01 18
        E 7 b2 01 17
        E 7 b2 01 15
        E 7 b2 01 14
        E 7 b2 01 13
        E 7 b2 01 11
        E 7 b2 01 10
        E 7 b2 01 0e
        E 7 b2 01 0d
        E 7 b2 01 0c
        E 7 b2 01 0b
        E 7 b2 01 09
        E 7 b2 01 08
        E 7 b2 01 07
        E 7 b2 01 06
        E 7 b2 01 05
        E 7 b2 01 05
        E 7 b2 01 04
        E 7 b2 01 03
        E 7 b2 01 02
        E 7 b2 01 02
        E 7 b2 01 01
        E 7 b2 01 01
        E 7 b2 01 00
        E 7 b2 01 00
        E 7 b2 01 00
        E 7 b2 01 00
        E 7 b2 01 00
        E 7 b2 01 00
        E 7 b2 01 00
        E 7 b2 01 00
        E 7 b2 01 00
        E 7 b2 01 01
        E 7 b2 01 01
        E 7 b2 01 02
        E 7 b2 01 02
        E 7 b2 01 03
        E 7 b2 01 03
        E 7 b2 01 04
        E 7 b2 01 05
        E 7 b2 01 06
        E 7 b2 01 07
        E 7 b2 01 08
        E 7 b2 01 09
        E 7 b2 01 0a
        E 7 b2 01 0b
        E 7 b2 01 0c
        E 7 b2 01 0e
        E 7 b2 01 0f
        E 7 b2 01 10
        E 7 b2 01 12
        E 7 b2 01 13
        E 7 b2 01 15
        E 7 b2 01 16
        E 7 b2 01 18
        E 7 b2 01 19
        E 7 b2 01 1b
        E 7 b2 01 1c
        E 7 b2 01 1e
        E 7 b2 01 20
        E 14 b2 01 2c
        E 14 b2 01 2e
        E 14 b2 01 31
        E 14 b2 01 33
        E 14 b2 01 35
        E 14 b2 01 37
        E 14 b2 01 39
        E 14 b2 01 3b
        E 14 b2 01 3d
        E 14 b2 01 3f
        E 14 b2 01 41
        E 14 b2 01 43
        E 14 b2 01 45
        E 14 b2 01 47
        E 14 b2 01 48
        E 14 b2 01 4a
        E 14 b2 01 4c
        E 14 b2 01 4d
        E 14 b2 01 4f
        E 14 b2 01 50
        E 14 b2 01 51
        E 14 b2 01 52
        E 14 b2 01 54
        E 14 b2 01 54
        E 14 b2 01 55
        E 14 b2 01 56
        E 14 b2 01 56
        E 14 b2 01 57
        E 14 b2 01 58
        E 14 b2 01 58
        E 14 b2 01 58
        E 14 b2 01 58
        E 14 b2 01 58
        E 14 b2 01 58
        E 14 b2 01 58
        E 14 b2 01 58
        E 14 b2 01 58
        E 14 b2 01 57
        E 14 b2 01 56
        E 14 b2 01 56
        E 14 b2 01 55
        E 14 b2 01 54
        E 14 b2 01 53
        E 14 b2 01 51
        E 14 b2 01 51
        E 14 b2 01 4f
        E 14 b2 01 4e
        E 14 b2 01 4d
        E 14 b2 01 4b
        E 14 b2 01 49
        E 14 b2 01 48
        E 14 b2 01 46
        E 14 b2 01 44
        E 14 b2 01 42
        E 14 b2 01 40
        E 14 b2 01 3e
        E 14 b2 01 3c
        E 14 b2 01 3a
        E 14 b2 01 38
        E 14 b2 01 36
        E 14 b2 01 33
        E 14 b2 01 31
        E 14 b2 01 2f
        E 14 b2 01 2d
        E 14 b2 01 2b
        E 14 b2 01 29
        E 14 b2 01 27
        E 14 b2 01 25
        E 14 b2 01 22
        E 14 b2 01 20
        E 14 b2 01 1e
        E 14 b2 01 1c
        E 14 b2 01 1a
        E 14 b2 01 18
        E 14 b2 01 16
        E 14 b2 01 14
        E 14 b2 01 12
        E 14 b2 01 10
        E 14 b2 01 0f
        E 14 b2 01 0d
        E 14 b2 01 0b
        E 14 b2 01 0a
        E 14 b2 01 09
        E 14 b2 01 07
        E 14 b2 01 07
        E 14 b2 01 05
        E 14 b2 01 04
        E 14 b2 01 03
        E 14 b2 01 02
        E 14 b2 01 02
        E 14 b2 01 01
        E 14 b2 01 00
        E 14 b2 01 00
        E 14 b2 01 00
        E 14 b2 01 00
        E 14 b2 01 00
        E 14 b2 01 00
        E 14 b2 01 00
        E 14 b2 01 00
        E 14 b2 01 00
        E 14 b2 01 01
        E 14 b2 01 02
        E 14 b2 01 02
        E 14 b2 01 03
        E 14 b2 01 04
        E 14 b2 01 04
        E 14 b2 01 06
        E 14 b2 01 07
        E 14 b2 01 08
        E 14 b2 01 09
        E 14 b2 01 0b
        E 14 b2 01 0c
        E 14 b2 01 0e
        E 14 b2 01 10
        E 14 b2 01 11
        E 14 b2 01 13
        E 14 b2 01 15
        E 14 b2 01 17
        E 14 b2 01 19
        E 14 b2 01 1b
        E 14 b2 01 1d
        E 14 b2 01 1f
        E 14 b2 01 21
        E 14 b2 01 23
        E 14 b2 01 25
        E 14 b2 01 27
        E 14 b2 01 2a
        E 14 b2 01 2c
        E 12 b2 01 33
        E 12 b2 01 35
        E 12 b2 01 37
        E 12 b2 01 3a
        E 12 b2 01 3c
        E 12 b2 01 3f
        E 12 b2 01 41
        E 12 b2 01 44
        E 12 b2 01 46
        E 12 b2 01 48
        E 12 b2 01 4b
        E 12 b2 01 4c
        E 12 b2 01 4f
        E 12 b2 01 51
        E 12 b2 01 53
        E 12 b2 01 54
        E 12 b2 01 57
        E 12 b2 01 58
        E 12 b2 01 5a
        E 12 b2 01 5b
        E 12 b2 01 5d
        E 12 b2 01 5e
        E 12 b2 01 5f
        E 12 b2 01 60
        E 12 b2 01 61
        E 12 b2 01 62
        E 12 b2 01 63
        E 12 b2 01 63
        E 12 b2 01 64
        E 12 b2 01 64
        E 12 b2 01 65
        E 12 b2 01 65
        E 12 b2 01 65
        E 12 b2 01 65
        E 12 b2 01 65
        E 12 b2 01 64
        E 12 b2 01 64
        E 12 b2 01 63
        E 12 b2 01 63
        E 12 b2 01 62
        E 12 b2 01 61
        E 12 b2 01 5f
        E 12 b2 01 5f
        E 12 b2 01 5d
        E 12 b2 01 5c
        E 12 b2 01 5b
        E 12 b2 01 59
        E 12 b2 01 57
        E 12 b2 01 56
        E 12 b2 01 54
        E 12 b2 01 52
        E 12 b2 01 50
        E 12 b2 01 4e
        E 12 b2 01 4c
        E 12 b2 01 49
        E 12 b2 01 47
        E 12 b2 01 45
        E 12 b2 01 43
        E 12 b2 01 40
        E 12 b2 01 3e
        E 12 b2 01 3b
        E 12 b2 01 38
        E 12 b2 01 36
        E 12 b2 01 33
        E 12 b2 01 31
        E 12 b2 01 2f
        E 12 b2 01 2c
        E 12 b2 01 2a
        E 12 b2 01 27
        E 12 b2 01 24
        E 12 b2 01 22
        E 12 b2 01 1f
        E 12 b2 01 1e
        E 12 b2 01 1b
        E 12 b2 01 19
        E 12 b2 01 17
        E 12 b2 01 15
        E 12 b2 01 13
        E 12 b2 01 11
        E 12 b2 01 0f
        E 12 b2 01 0d
        E 12 b2 01 0b
        E 12 b2 01 0a
        E 12 b2 01 08
        E 12 b2 01 07
        E 12 b2 01 06
        E 12 b2 01 05
        E 12 b2 01 03
        E 12 b2 01 03
        E 12 b2 01 02
        E 12 b2 01 01
        E 12 b2 01 00
        E 12 b2 01 00
        E 12 b2 01 00
        E 12 b2 01 00
        E 12 b2 01 00
        E 12 b2 01 00
        E 12 b2 01 00
        E 12 b2 01 00
        E 12 b2 01 00
        E 12 b2 01 01
        E 12 b2 01 02
        E 12 b2 01 03
        E 12 b2 01 03
        E 12 b2 01 04
        E 12 b2 01 05
        E 12 b2 01 07
        E 12 b2 01 07
        E 12 b2 01 09
        E 12 b2 01 0b
        E 12 b2 01 0c
        E 12 b2 01 0e
        E 12 b2 01 10
        E 12 b2 01 12
        E 12 b2 01 14
        E 12 b2 01 16
        E 12 b2 01 18
        E 12 b2 01 1a
        E 12 b2 01 1c
        E 12 b2 01 1f
        E 12 b2 01 21
        E 12 b2 01 24
        E 12 b2 01 26
        E 12 b2 01 28
        E 12 b2 01 2b
        E 12 b2 01 2d
        E 12 b2 01 2f
        E 12 b2 01 33
        E 14 b2 01 06
        E 14 b2 01 06
        E 14 b2 01 07
        E 14 b2 01 07
        E 14 b2 01 07
        E 14 b2 01 07
        E 14 b2 01 08
        E 14 b2 01 08
        E 14 b2 01 08
        E 14 b2 01 09
        E 14 b2 01 09
        E 14 b2 01 09
        E 14 b2 01 09
        E 14 b2 01 0a
        E 14 b2 01 0a
        E 14 b2 01 0a
        E 14 b2 01 0a
        E 14 b2 01 0b
        E 14 b2 01 0b
        E 14 b2 01 0b
        E 14 b2 01 0b
        E 14 b2 01 0b
        E 14 b2 01 0c
        E 14 b2 01 0c
        E 14 b2 01 0c
        E 14 b2 01 0c
        E 14 b2 01 0c
        E 14 b2 01 0c
        E 14 b2 01 0c
        E 14 b2 01 0c
        E 14 b2 01 0c
        E 14 b2 01 0c
        E 14 b2 01 0c
        E 14 b2 01 0c
        E 14 b2 01 0c
        E 14 b2 01 0c
        E 14 b2 01 0c
        E 14 b2 01 0c
        E 14 b2 01 0c
        E 14 b2 01 0c
        E 14 b2 01 0c
        E 14 b2 01 0c
        E 14 b2 01 0b
        E 14 b2 01 0b
        E 14 b2 01 0b
        E 14 b2 01 0b
        E 14 b2 01 0b
        E 14 b2 01 0b
        E 14 b2 01 0a
        E 14 b2 01 0a
        E 14 b2 01 0a
        E 14 b2 01 0a
        E 14 b2 01 09
        E 14 b2 01 09
        E 14 b2 01 09
        E 14 b2 01 08
        E 14 b2 01 08
        E 14 b2 01 08
        E 14 b2 01 08
        E 14 b2 01 07
        E 14 b2 01 07
        E 14 b2 01 07
        E 14 b2 01 06
        E 14 b2 01 06
        E 14 b2 01 06
        E 14 b2 01 05
        E 14 b2 01 05
        E 14 b2 01 05
        E 14 b2 01 04
        E 14 b2 01 04
        E 14 b2 01 04
        E 14 b2 01 04
        E 14 b2 01 03
        E 14 b2 01 03
        E 14 b2 01 03
        E 14 b2 01 02
        E 14 b2 01 02
        E 14 b2 01 02
        E 14 b2 01 02
        E 14 b2 01 01
        E 14 b2 01 01
        E 14 b2 01 01
        E 14 b2 01 01
        E 14 b2 01 01
        E 14 b2 01 01
        E 14 b2 01 00
        E 14 b2 01 00
        E 14 b2 01 00
        E 14 b2 01 00
        E 14 b2 01 00
        E 14 b2 01 00
        E 14 b2 01 00
        E 14 b2 01 00
        E 14 b2 01 00
        E 14 b2 01 00
        E 14 b2 01 00
        E 14 b2 01 00
        E 14 b2 01 00
        E 14 b2 01 00
        E 14 b2 01 00
        E 14 b2 01 00
        E 14 b2 01 00
        E 14 b2 01 00
        E 14 b2 01 00
        E 14 b2 01 00
        E 14 b2 01 00
        E 14 b2 01 00
        E 14 b2 01 01
        E 14 b2 01 01
        E 14 b2 01 01
        E 14 b2 01 01
        E 14 b2 01 01
        E 14 b2 01 02
        E 14 b2 01 02
        E 14 b2 01 02
        E 14 b2 01 02
        E 14 b2 01 03
        E 14 b2 01 03
        E 14 b2 01 03
        E 14 b2 01 03
        E 14 b2 01 04
        E 14 b2 01 04
        E 14 b2 01 04
        E 14 b2 01 05
        E 14 b2 01 05
        E 14 b2 01 05
        E 14 b2 01 06
        E 14 b2 01 06
        E 12 b2 01 19
        E 12 b2 01 1a
        E 12 b2 01 1c
        E 12 b2 01 1d
        E 12 b2 01 1e
        E 12 b2 01 1f
        E 12 b2 01 20
        E 12 b2 01 22
        E 12 b2 01 23
        E 12 b2 01 24
        E 12 b2 01 25
        E 12 b2 01 26
        E 12 b2 01 27
        E 12 b2 01 28
        E 12 b2 01 29
        E 12 b2 01 2a
        E 12 b2 01 2b
        E 12 b2 01 2c
        E 12 b2 01 2d
        E 12 b2 01 2e
        E 12 b2 01 2e
        E 12 b2 01 2f
        E 12 b2 01 30
        E 12 b2 01 30
        E 12 b2 01 30
        E 12 b2 01 31
        E 12 b2 01 31
        E 12 b2 01 32
        E 12 b2 01 32
        E 12 b2 01 32
        E 12 b2 01 32
        E 12 b2 01 32
        E 12 b2 01 32
        E 12 b2 01 32
        E 12 b2 01 32
        E 12 b2 01 32
        E 12 b2 01 32
        E 12 b2 01 32
        E 12 b2 01 31
        E 12 b2 01 31
        E 12 b2 01 30
        E 12 b2 01 30
        E 12 b2 01 2f
        E 12 b2 01 2e
        E 12 b2 01 2e
        E 12 b2 01 2d
        E 12 b2 01 2c
        E 12 b2 01 2c
        E 12 b2 01 2b
        E 12 b2 01 2a
        E 12 b2 01 29
        E 12 b2 01 28
        E 12 b2 01 27
        E 12 b2 01 26
        E 12 b2 01 24
        E 12 b2 01 23
        E 12 b2 01 22
        E 12 b2 01 21
        E 12 b2 01 20
        E 12 b2 01 1f
        E 12 b2 01 1d
        E 12 b2 01 1c
        E 12 b2 01 1b
        E 12 b2 01 1a
        E 12 b2 01 18
        E 12 b2 01 17
        E 12 b2 01 16
        E 12 b2 01 15
        E 12 b2 01 13
        E 12 b2 01 12
        E 12 b2 01 11
        E 12 b2 01 10
        E 12 b2 01 0f
        E 12 b2 01 0e
        E 12 b2 01 0c
        E 12 b2 01 0b
        E 12 b2 01 0a
        E 12 b2 01 09
        E 12 b2 01 08
        E 12 b2 01 07
        E 12 b2 01 06
        E 12 b2 01 06
        E 12 b2 01 05
        E 12 b2 01 04
        E 12 b2 01 04
        E 12 b2 01 03
        E 12 b2 01 02
        E 12 b2 01 02
        E 12 b2 01 01
        E 12 b2 01 01
        E 12 b2 01 00
        E 12 b2 01 00
        E 12 b2 01 00
        E 12 b2 01 00
        E 12 b2 01 00
        E 12 b2 01 00
        E 12 b2 01 00
        E 12 b2 01 00
        E 12 b2 01 00
        E 12 b2 01 00
        E 12 b2 01 00
        E 12 b2 01 01
        E 12 b2 01 01
        E 12 b2 01 02
        E 12 b2 01 02
        E 12 b2 01 02
        E 12 b2 01 03
        E 12 b2 01 04
        E 12 b2 01 04
        E 12 b2 01 05
        E 12 b2 01 06
        E 12 b2 01 07
        E 12 b2 01 08
        E 12 b2 01 09
        E 12 b2 01 0a
        E 12 b2 01 0b
        E 12 b2 01 0c
        E 12 b2 01 0d
        E 12 b2 01 0e
        E 12 b2 01 0f
        E 12 b2 01 10
        E 12 b2 01 12
        E 12 b2 01 13
        E 12 b2 01 14
        E 12 b2 01 15
        E 12 b2 01 16
        E 12 b2 01 18
        E 12 b2 01 19
        E 7 b2 01 2c
        E 7 b2 01 2e
        E 7 b2 01 31
        E 7 b2 01 33
        E 7 b2 01 35
        E 7 b2 01 37
        E 7 b2 01 39
        E 7 b2 01 3b
        E 7 b2 01 3d
        E 7 b2 01 3f
        E 7 b2 01 41
        E 7 b2 01 43
        E 7 b2 01 45
        E 7 b2 01 47
        E 7 b2 01 48
        E 7 b2 01 4a
        E 7 b2 01 4c
        E 7 b2 01 4d
        E 7 b2 01 4f
        E 7 b2 01 50
        E 7 b2 01 51
        E 7 b2 01 52
        E 7 b2 01 54
        E 7 b2 01 54
        E 7 b2 01 55
        E 7 b2 01 56
        E 7 b2 01 56
        E 7 b2 01 57
        E 7 b2 01 58
        E 7 b2 01 58
        E 7 b2 01 58
        E 7 b2 01 58
        E 7 b2 01 58
        E 7 b2 01 58
        E 7 b2 01 58
        E 7 b2 01 58
        E 7 b2 01 58
        E 7 b2 01 57
        E 7 b2 01 56
        E 7 b2 01 56
        E 7 b2 01 55
        E 7 b2 01 54
        E 7 b2 01 53
        E 7 b2 01 51
        E 7 b2 01 51
        E 7 b2 01 4f
        E 7 b2 01 4e
        E 7 b2 01 4d
        E 7 b2 01 4b
        E 7 b2 01 49
        E 7 b2 01 48
        E 7 b2 01 46
        E 7 b2 01 44
        E 7 b2 01 42
        E 7 b2 01 40
        E 7 b2 01 3e
        E 7 b2 01 3c
        E 7 b2 01 3a
        E 7 b2 01 38
        E 7 b2 01 36
        E 7 b2 01 33
        E 7 b2 01 31
        E 7 b2 01 2f
        E 7 b2 01 2d
        E 7 b2 01 2b
        E 7 b2 01 29
        E 7 b2 01 27
        E 7 b2 01 25
        E 7 b2 01 22
        E 7 b2 01 20
        E 7 b2 01 1e
        E 7 b2 01 1c
        E 7 b2 01 1a
        E 7 b2 01 18
        E 7 b2 01 16
        E 7 b2 01 14
        E 7 b2 01 12
        E 7 b2 01 10
        E 7 b2 01 0f
        E 7 b2 01 0d
        E 7 b2 01 0b
        E 7 b2 01 0a
        E 7 b2 01 09
        E 7 b2 01 07
        E 7 b2 01 07
        E 7 b2 01 05
        E 7 b2 01 04
        E 7 b2 01 03
        E 7 b2 01 02
        E 7 b2 01 02
        E 7 b2 01 01
        E 7 b2 01 00
        E 7 b2 01 00
        E 7 b2 01 00
        E 7 b2 01 00
        E 7 b2 01 00
        E 7 b2 01 00
        E 7 b2 01 00
        E 7 b2 01 00
        E 7 b2 01 00
        E 7 b2 01 01
        E 7 b2 01 02
        E 7 b2 01 02
        E 7 b2 01 03
        E 7 b2 01 04
        E 7 b2 01 04
        E 7 b2 01 06
        E 7 b2 01 07
        E 7 b2 01 08
        E 7 b2 01 09
        E 7 b2 01 0b
        E 7 b2 01 0c
        E 7 b2 01 0e
        E 7 b2 01 10
        E 7 b2 01 11
        E 7 b2 01 13
        E 7 b2 01 15
        E 7 b2 01 17
        E 7 b2 01 19
        E 7 b2 01 1b
        E 7 b2 01 1d
        E 7 b2 01 1f
        E 7 b2 01 21
        E 7 b2 01 23
        E 7 b2 01 25
        E 7 b2 01 27
        E 7 b2 01 2a
        E 7 b2 01 2c
        E 7 b2 01 20
        E 7 b2 01 21
        E 7 b2 01 23
        E 7 b2 01 24
        E 7 b2 01 26
        E 7 b2 01 27
        E 7 b2 01 29
        E 7 b2 01 2a
        E 7 b2 01 2c
        E 7 b2 01 2d
        E 7 b2 01 2f
        E 7 b2 01 30
        E 7 b2 01 31
        E 7 b2 01 33
        E 7 b2 01 34
        E 7 b2 01 35
        E 7 b2 01 36
        E 7 b2 01 37
        E 7 b2 01 38
        E 7 b2 01 39
        E 7 b2 01 3a
        E 7 b2 01 3b
        E 7 b2 01 3c
        E 7 b2 01 3c
        E 7 b2 01 3d
        E 7 b2 01 3d
        E 7 b2 01 3e
        E 7 b2 01 3e
        E 7 b2 01 3f
        E 7 b2 01 3f
        E 7 b2 01 3f
        E 7 b2 01 3f
        E 7 b2 01 3f
        E 7 b2 01 3f
        E 7 b2 01 3f
        E 7 b2 01 3f
        E 7 b2 01 3f
        E 7 b2 01 3e
        E 7 b2 01 3e
        E 7 b2 01 3d
        E 7 b2 01 3d
        E 7 b2 01 3c
        E 7 b2 01 3b
        E 7 b2 01 3a
        E 7 b2 01 3a
        E 7 b2 01 39
        E 7 b2 01 38
        E 7 b2 01 37
        E 7 b2 01 36
        E 7 b2 01 34
        E 7 b2 01 33
        E 7 b2 01 32
        E 7 b2 01 31
        E 7 b2 01 2f
        E 7 b2 01 2e
        E 7 b2 01 2c
        E 7 b2 01 2b
        E 7 b2 01 2a
        E 7 b2 01 28
        E 7 b2 01 27
        E 7 b2 01 25
        E 7 b2 01 23
        E 7 b2 01 22
        E 7 b2 01 20
        E 7 b2 01 1f
        E 7 b2 01 1d
        E 7 b2 01 1c
        E 7 b2 01 1a
        E 7 b2 01 18
        E 7 b2 01 17
        E 7 b2 01 15
        E 7 b2 01 14
        E 7 b2 01 13
        E 7 b2 01 11
        E 7 b2 01 10
        E 7 b2 01 0e
        E 7 b2 01 0d
        E 7 b2 01 0c
        E 7 b2 01 0b
        E 7 b2 01 09
        E 7 b2 01 08
        E 7 b2 01 07
        E 7 b2 01 06
        E 7 b2 01 05
        E 7 b2 01 05
        E 7 b2 01 04
        E 7 b2 01 03
        E 7 b2 01 02
        E 7 b2 01 02
        E 7 b2 01 01
        E 7 b2 01 01
        E 7 b2 01 00
        E 7 b2 01 00
        E 7 b2 01 00
        E 7 b2 01 00
        E 7 b2 01 00
        E 7 b2 01 00
        E 7 b2 01 00
        E 7 b2 01 00
        E 7 b2 01 00
        E 7 b2 01 01
        E 7 b2 01 01
        E 7 b2 01 02
        E 7 b2 01 02
        E 7 b2 01 03
        E 7 b2 01 03
        E 7 b2 01 04
        E 7 b2 01 05
        E 7 b2 01 06
        E 7 b2 01 07
        E 7 b2 01 08
        E 7 b2 01 09
        E 7 b2 01 0a
        E 7 b2 01 0b
        E 7 b2 01 0c
        E 7 b2 01 0e
        E 7 b2 01 0f
        E 7 b2 01 10
        E 7 b2 01 12
        E 7 b2 01 13
        E 7 b2 01 15
        E 7 b2 01 16
        E 7 b2 01 18
        E 7 b2 01 19
        E 7 b2 01 1b
        E 7 b2 01 1c
        E 7 b2 01 1e
        E 7 b2 01 20
        E 9 b2 01 20
        E 9 b2 01 21
        E 9 b2 01 23
        E 9 b2 01 24
        E 9 b2 01 26
        E 9 b2 01 27
        E 9 b2 01 29
        E 9 b2 01 2a
        E 9 b2 01 2c
        E 9 b2 01 2d
        E 9 b2 01 2f
        E 9 b2 01 30
        E 9 b2 01 31
        E 9 b2 01 33
        E 9 b2 01 34
        E 9 b2 01 35
        E 9 b2 01 36
        E 9 b2 01 37
        E 9 b2 01 38
        E 9 b2 01 39
        E 9 b2 01 3a
        E 9 b2 01 3b
        E 9 b2 01 3c
        E 9 b2 01 3c
        E 9 b2 01 3d
        E 9 b2 01 3d
        E 9 b2 01 3e
        E 9 b2 01 3e
        E 9 b2 01 3f
        E 9 b2 01 3f
        E 9 b2 01 3f
        E 9 b2 01 3f
        E 9 b2 01 3f
        E 9 b2 01 3f
        E 9 b2 01 3f
        E 9 b2 01 3f
        E 9 b2 01 3f
        E 9 b2 01 3e
        E 9 b2 01 3e
        E 9 b2 01 3d
        E 9 b2 01 3d
        E 9 b2 01 3c
        E 9 b2 01 3b
        E 9 b2 01 3a
        E 9 b2 01 3a
        E 9 b2 01 39
        E 9 b2 01 38
        E 9 b2 01 37
        E 9 b2 01 36
        E 9 b2 01 34
        E 9 b2 01 33
        E 9 b2 01 32
        E 9 b2 01 31
        E 9 b2 01 2f
        E 9 b2 01 2e
        E 9 b2 01 2c
        E 9 b2 01 2b
        E 9 b2 01 2a
        E 9 b2 01 28
        E 9 b2 01 27
        E 9 b2 01 25
        E 9 b2 01 23
        E 9 b2 01 22
        E 9 b2 01 20
        E 9 b2 01 1f
        E 9 b2 01 1d
        E 9 b2 01 1c
        E 9 b2 01 1a
        E 9 b2 01 18
        E 9 b2 01 17
        E 9 b2 01 15
        E 9 b2 01 14
        E 9 b2 01 13
        E 9 b2 01 11
        E 9 b2 01 10
        E 9 b2 01 0e
        E 9 b2 01 0d
        E 9 b2 01 0c
        E 9 b2 01 0b
        E 9 b2 01 09
        E 9 b2 01 08
        E 9 b2 01 07
        E 9 b2 01 06
        E 9 b2 01 05
        E 9 b2 01 05
        E 9 b2 01 04
        E 9 b2 01 03
        E 9 b2 01 02
        E 9 b2 01 02
        E 9 b2 01 01
        E 9 b2 01 01
        E 9 b2 01 00
        E 9 b2 01 00
        E 9 b2 01 00
        E 9 b2 01 00
        E 9 b2 01 00
        E 9 b2 01 00
        E 9 b2 01 00
        E 9 b2 01 00
        E 9 b2 01 00
        E 9 b2 01 01
        E 9 b2 01 01
        E 9 b2 01 02
        E 9 b2 01 02
        E 9 b2 01 03
        E 9 b2 01 03
        E 9 b2 01 04
        E 9 b2 01 05
        E 9 b2 01 06
        E 9 b2 01 07
        E 9 b2 01 08
        E 9 b2 01 09
        E 9 b2 01 0a
        E 9 b2 01 0b
        E 9 b2 01 0c
        E 9 b2 01 0e
        E 9 b2 01 0f
        E 9 b2 01 10
        E 9 b2 01 12
        E 9 b2 01 13
        E 9 b2 01 15
        E 9 b2 01 16
        E 9 b2 01 18
        E 9 b2 01 19
        E 9 b2 01 1b
        E 9 b2 01 1c
        E 9 b2 01 1e
        E 9 b2 01 20
        E 11 b2 01 40
        E 11 b2 01 43
        E 11 b2 01 46
        E 11 b2 01 49
        E 11 b2 01 4c
        E 11 b2 01 4f
        E 11 b2 01 52
        E 11 b2 01 55
        E 11 b2 01 58
        E 11 b2 01 5b
        E 11 b2 01 5e
        E 11 b2 01 60
        E 11 b2 01 63
        E 11 b2 01 66
        E 11 b2 01 68
        E 11 b2 01 6a
        E 11 b2 01 6d
        E 11 b2 01 6f
        E 11 b2 01 71
        E 11 b2 01 73
        E 11 b2 01 75
        E 11 b2 01 76
        E 11 b2 01 78
        E 11 b2 01 79
        E 11 b2 01 7a
        E 11 b2 01 7b
        E 11 b2 01 7c
        E 11 b2 01 7d
        E 11 b2 01 7e
        E 11 b2 01 7e
        E 11 b2 01 7f
        E 11 b2 01 7f
        E 11 b2 01 7f
        E 11 b2 01 7f
        E 11 b2 01 7f
        E 11 b2 01 7e
        E 11 b2 01 7e
        E 11 b2 01 7d
        E 11 b2 01 7c
        E 11 b2 01 7b
        E 11 b2 01 7a
        E 11 b2 01 78
        E 11 b2 01 77
        E 11 b2 01 75
        E 11 b2 01 74
        E 11 b2 01 72
        E 11 b2 01 70
        E 11 b2 01 6e
        E 11 b2 01 6c
        E 11 b2 01 69
        E 11 b2 01 67
        E 11 b2 01 64
        E 11 b2 01 62
        E 11 b2 01 5f
        E 11 b2 01 5c
        E 11 b2 01 59
        E 11 b2 01 57
        E 11 b2 01 54
        E 11 b2 01 51
        E 11 b2 01 4e
        E 11 b2 01 4a
        E 11 b2 01 47
        E 11 b2 01 44
        E 11 b2 01 41
        E 11 b2 01 3e
        E 11 b2 01 3b
        E 11 b2 01 38
        E 11 b2 01 35
        E 11 b2 01 31
        E 11 b2 01 2e
        E 11 b2 01 2b
        E 11 b2 01 28
        E 11 b2 01 26
        E 11 b2 01 23
        E 11 b2 01 20
        E 11 b2 01 1d
        E 11 b2 01 1b
        E 11 b2 01 18
        E 11 b2 01 16
        E 11 b2 01 13
        E 11 b2 01 11
        E 11 b2 01 0f
        E 11 b2 01 0d
        E 11 b2 01 0b
        E 11 b2 01 0a
        E 11 b2 01 08
        E 11 b2 01 07
        E 11 b2 01 05
        E 11 b2 01 04
        E 11 b2 01 03
        E 11 b2 01 02
        E 11 b2 01 01
        E 11 b2 01 01
        E 11 b2 01 00
        E 11 b2 01 00
        E 11 b2 01 00
        E 11 b2 01 00
        E 11 b2 01 00
        E 11 b2 01 01
        E 11 b2 01 01
        E 11 b2 01 02
        E 11 b2 01 03
        E 11 b2 01 04
        E 11 b2 01 05
        E 11 b2 01 06
        E 11 b2 01 07
        E 11 b2 01 09
        E 11 b2 01 0a
        E 11 b2 01 0c
        E 11 b2 01 0e
        E 11 b2 01 10
        E 11 b2 01 12
        E 11 b2 01 15
        E 11 b2 01 17
        E 11 b2 01 19
        E 11 b2 01 1c
        E 11 b2 01 1f
        E 11 b2 01 21
        E 11 b2 01 24
        E 11 b2 01 27
        E 11 b2 01 2a
        E 11 b2 01 2d
        E 11 b2 01 30
        E 11 b2 01 33
        E 11 b2 01 36
        E 11 b2 01 39
        E 11 b2 01 3c
        E 11 b2 01 40
        E 1 b2 01 39
        E 1 b2 01 3c
        E 1 b2 01 3f
        E 1 b2 01 41
        E 1 b2 01 44
        E 1 b2 01 47
        E 1 b2 01 49
        E 1 b2 01 4c
        E 1 b2 01 4f
        E 1 b2 01 51
        E 1 b2 01 54
        E 1 b2 01 56
        E 1 b2 01 59
        E 1 b2 01 5b
        E 1 b2 01 5d
        E 1 b2 01 5f
        E 1 b2 01 62
        E 1 b2 01 63
        E 1 b2 01 65
        E 1 b2 01 67
        E 1 b2 01 69
        E 1 b2 01 6a
        E 1 b2 01 6c
        E 1 b2 01 6c
        E 1 b2 01 6d
        E 1 b2 01 6e
        E 1 b2 01 6f
        E 1 b2 01 70
        E 1 b2 01 71
        E 1 b2 01 71
        E 1 b2 01 72
        E 1 b2 01 72
        E 1 b2 01 72
        E 1 b2 01 72
        E 1 b2 01 72
        E 1 b2 01 71
        E 1 b2 01 71
        E 1 b2 01 70
        E 1 b2 01 6f
        E 1 b2 01 6e
        E 1 b2 01 6d
        E 1 b2 01 6c
        E 1 b2 01 6b
        E 1 b2 01 69
        E 1 b2 01 68
        E 1 b2 01 66
        E 1 b2 01 64
        E 1 b2 01 63
        E 1 b2 01 61
        E 1 b2 01 5e
        E 1 b2 01 5c
        E 1 b2 01 5a
        E 1 b2 01 58
        E 1 b2 01 55
        E 1 b2 01 52
        E 1 b2 01 50
        E 1 b2 01 4e
        E 1 b2 01 4b
        E 1 b2 01 48
        E 1 b2 01 46
        E 1 b2 01 42
        E 1 b2 01 3f
        E 1 b2 01 3d
        E 1 b2 01 3a
        E 1 b2 01 37
        E 1 b2 01 35
        E 1 b2 01 32
        E 1 b2 01 2f
        E 1 b2 01 2c
        E 1 b2 01 29
        E 1 b2 01 26
        E 1 b2 01 24
        E 1 b2 01 22
        E 1 b2 01 1f
        E 1 b2 01 1c
        E 1 b2 01 1a
        E 1 b2 01 18
        E 1 b2 01 15
        E 1 b2 01 13
        E 1 b2 01 11
        E 1 b2 01 0f
        E 1 b2 01 0d
        E 1 b2 01 0b
        E 1 b2 01 09
        E 1 b2 01 09
        E 1 b2 01 07
        E 1 b2 01 06
        E 1 b2 01 04
        E 1 b2 01 03
        E 1 b2 01 02
        E 1 b2 01 01
        E 1 b2 01 00
        E 1 b2 01 00
        E 1 b2 01 00
        E 1 b2 01 00
        E 1 b2 01 00
        E 1 b2 01 00
        E 1 b2 01 00
        E 1 b2 01 00
        E 1 b2 01 00
        E 1 b2 01 01
        E 1 b2 01 02
        E 1 b2 01 03
        E 1 b2 01 04
        E 1 b2 01 05
        E 1 b2 01 06
        E 1 b2 01 08
        E 1 b2 01 09
        E 1 b2 01 0a
        E 1 b2 01 0c
        E 1 b2 01 0e
        E 1 b2 01 10
        E 1 b2 01 12
        E 1 b2 01 14
        E 1 b2 01 16
        E 1 b2 01 19
        E 1 b2 01 1b
        E 1 b2 01 1d
        E 1 b2 01 20
        E 1 b2 01 23
        E 1 b2 01 25
        E 1 b2 01 28
        E 1 b2 01 2b
        E 1 b2 01 2d
        E 1 b2 01 30
        E 1 b2 01 33
        E 1 b2 01 36
        E 1 b2 01 39
        E 5 b2 01 40
        E 5 b2 01 43
        E 5 b2 01 46
        E 5 b2 01 49
        E 5 b2 01 4c
        E 5 b2 01 4f
        E 5 b2 01 52
        E 5 b2 01 55
        E 5 b2 01 58
        E 5 b2 01 5b
        E 5 b2 01 5e
        E 5 b2 01 60
        E 5 b2 01 63
        E 5 b2 01 66
        E 5 b2 01 68
        E 5 b2 01 6a
        E 5 b2 01 6d
        E 5 b2 01 6f
        E 5 b2 01 71
        E 5 b2 01 73
        E 5 b2 01 75
        E 5 b2 01 76
        E 5 b2 01 78
        E 5 b2 01 79
        E 5 b2 01 7a
        E 5 b2 01 7b
        E 5 b2 01 7c
        E 5 b2 01 7d
        E 5 b2 01 7e
        E 5 b2 01 7e
        E 5 b2 01 7f
        E 5 b2 01 7f
        E 5 b2 01 7f
        E 5 b2 01 7f
        E 5 b2 01 7f
        E 5 b2 01 7e
        E 5 b2 01 7e
        E 5 b2 01 7d
        E 5 b2 01 7c
        E 5 b2 01 7b
        E 5 b2 01 7a
        E 5 b2 01 78
        E 5 b2 01 77
        E 5 b2 01 75
        E 5 b2 01 74
        E 5 b2 01 72
        E 5 b2 01 70
        E 5 b2 01 6e
        E 5 b2 01 6c
        E 5 b2 01 69
        E 5 b2 01 67
        E 5 b2 01 64
        E 5 b2 01 62
        E 5 b2 01 5f
        E 5 b2 01 5c
        E 5 b2 01 59
        E 5 b2 01 57
        E 5 b2 01 54
        E 5 b2 01 51
        E 5 b2 01 4e
        E 5 b2 01 4a
        E 5 b2 01 47
        E 5 b2 01 44
        E 5 b2 01 41
        E 5 b2 01 3e
        E 5 b2 01 3b
        E 5 b2 01 38
        E 5 b2 01 35
        E 5 b2 01 31
        E 5 b2 01 2e
        E 5 b2 01 2b
        E 5 b2 01 28
        E 5 b2 01 26
        E 5 b2 01 23
        E 5 b2 01 20
        E 5 b2 01 1d
        E 5 b2 01 1b
        E 5 b2 01 18
        E 5 b2 01 16
        E 5 b2 01 13
        E 5 b2 01 11
        E 5 b2 01 0f
        E 5 b2 01 0d
        E 5 b2 01 0b
        E 5 b2 01 0a
        E 5 b2 01 08
        E 5 b2 01 07
        E 5 b2 01 05
        E 5 b2 01 04
        E 5 b2 01 03
        E 5 b2 01 02
        E 5 b2 01 01
        E 5 b2 01 01
        E 5 b2 01 00
        E 5 b2 01 00
        E 5 b2 01 00
        E 5 b2 01 00
        E 5 b2 01 00
        E 5 b2 01 01
        E 5 b2 01 01
        E 5 b2 01 02
        E 5 b2 01 03
        E 5 b2 01 04
        E 5 b2 01 05
        E 5 b2 01 06
        E 5 b2 01 07
        E 5 b2 01 09
        E 5 b2 01 0a
        E 5 b2 01 0c
        E 5 b2 01 0e
        E 5 b2 01 10
        E 5 b2 01 12
        E 5 b2 01 15
        E 5 b2 01 17
        E 5 b2 01 19
        E 5 b2 01 1c
        E 5 b2 01 1f
        E 5 b2 01 21
        E 5 b2 01 24
        E 5 b2 01 27
        E 5 b2 01 2a
        E 5 b2 01 2d
        E 5 b2 01 30
        E 5 b2 01 33
        E 5 b2 01 36
        E 5 b2 01 39
        E 5 b2 01 3c
        E 5 b2 01 40
        E 9 b2 01 39
        E 9 b2 01 3c
        E 9 b2 01 3f
        E 9 b2 01 41
        E 9 b2 01 44
        E 9 b2 01 47
        E 9 b2 01 49
        E 9 b2 01 4c
        E 9 b2 01 4f
        E 9 b2 01 51
        E 9 b2 01 54
        E 9 b2 01 56
        E 9 b2 01 59
        E 9 b2 01 5b
        E 9 b2 01 5d
        E 9 b2 01 5f
        E 9 b2 01 62
        E 9 b2 01 63
        E 9 b2 01 65
        E 9 b2 01 67
        E 9 b2 01 69
        E 9 b2 01 6a
        E 9 b2 01 6c
        E 9 b2 01 6c
        E 9 b2 01 6d
        E 9 b2 01 6e
        E 9 b2 01 6f
        E 9 b2 01 70
        E 9 b2 01 71
        E 9 b2 01 71
        E 9 b2 01 72
        E 9 b2 01 72
        E 9 b2 01 72
        E 9 b2 01 72
        E 9 b2 01 72
        E 9 b2 01 71
        E 9 b2 01 71
        E 9 b2 01 70
        E 9 b2 01 6f
        E 9 b2 01 6e
        E 9 b2 01 6d
        E 9 b2 01 6c
        E 9 b2 01 6b
        E 9 b2 01 69
        E 9 b2 01 68
        E 9 b2 01 66
        E 9 b2 01 64
        E 9 b2 01 63
        E 9 b2 01 61
        E 9 b2 01 5e
        E 9 b2 01 5c
        E 9 b2 01 5a
        E 9 b2 01 58
        E 9 b2 01 55
        E 9 b2 01 52
        E 9 b2 01 50
        E 9 b2 01 4e
        E 9 b2 01 4b
        E 9 b2 01 48
        E 9 b2 01 46
        E 9 b2 01 42
        E 9 b2 01 3f
        E 9 b2 01 3d
        E 9 b2 01 3a
        E 9 b2 01 37
        E 9 b2 01 35
        E 9 b2 01 32
        E 9 b2 01 2f
        E 9 b2 01 2c
        E 9 b2 01 29
        E 9 b2 01 26
        E 9 b2 01 24
        E 9 b2 01 22
        E 9 b2 01 1f
        E 9 b2 01 1c
        E 9 b2 01 1a
        E 9 b2 01 18
        E 9 b2 01 15
        E 9 b2 01 13
        E 9 b2 01 11
        E 9 b2 01 0f
        E 9 b2 01 0d
        E 9 b2 01 0b
        E 9 b2 01 09
        E 9 b2 01 09
        E 9 b2 01 07
        E 9 b2 01 06
        E 9 b2 01 04
        E 9 b2 01 03
        E 9 b2 01 02
        E 9 b2 01 01
        E 9 b2 01 00
        E 9 b2 01 00
        E 9 b2 01 00
        E 9 b2 01 00
        E 9 b2 01 00
        E 9 b2 01 00
        E 9 b2 01 00
        E 9 b2 01 00
        E 9 b2 01 00
        E 9 b2 01 01
        E 9 b2 01 02
        E 9 b2 01 03
        E 9 b2 01 04
        E 9 b2 01 05
        E 9 b2 01 06
        E 9 b2 01 08
        E 9 b2 01 09
        E 9 b2 01 0a
        E 9 b2 01 0c
        E 9 b2 01 0e
        E 9 b2 01 10
        E 9 b2 01 12
        E 9 b2 01 14
        E 9 b2 01 16
        E 9 b2 01 19
        E 9 b2 01 1b
        E 9 b2 01 1d
        E 9 b2 01 20
        E 9 b2 01 23
        E 9 b2 01 25
        E 9 b2 01 28
        E 9 b2 01 2b
        E 9 b2 01 2d
        E 9 b2 01 30
        E 9 b2 01 33
        E 9 b2 01 36
        E 9 b2 01 39
        E 7 b2 01 20
        E 7 b2 01 21
        E 7 b2 01 23
        E 7 b2 01 24
        E 7 b2 01 26
        E 7 b2 01 27
        E 7 b2 01 29
        E 7 b2 01 2a
        E 7 b2 01 2c
        E 7 b2 01 2d
        E 7 b2 01 2f
        E 7 b2 01 30
        E 7 b2 01 31
        E 7 b2 01 33
        E 7 b2 01 34
        E 7 b2 01 35
        E 7 b2 01 36
        E 7 b2 01 37
        E 7 b2 01 38
        E 7 b2 01 39
        E 7 b2 01 3a
        E 7 b2 01 3b
        E 7 b2 01 3c
        E 7 b2 01 3c
        E 7 b2 01 3d
        E 7 b2 01 3d
        E 7 b2 01 3e
        E 7 b2 01 3e
        E 7 b2 01 3f
        E 7 b2 01 3f
        E 7 b2 01 3f
        E 7 b2 01 3f
        E 7 b2 01 3f
        E 7 b2 01 3f
        E 7 b2 01 3f
        E 7 b2 01 3f
        E 7 b2 01 3f
        E 7 b2 01 3e
        E 7 b2 01 3e
        E 7 b2 01 3d
        E 7 b2 01 3d
        E 7 b2 01 3c
        E 7 b2 01 3b
        E 7 b2 01 3a
        E 7 b2 01 3a
        E 7 b2 01 39
        E 7 b2 01 38
        E 7 b2 01 37
        E 7 b2 01 36
        E 7 b2 01 34
        E 7 b2 01 33
        E 7 b2 01 32
        E 7 b2 01 31
        E 7 b2 01 2f
        E 7 b2 01 2e
        E 7 b2 01 2c
        E 7 b2 01 2b
        E 7 b2 01 2a
        E 7 b2 01 28
        E 7 b2 01 27
        E 7 b2 01 25
        E 7 b2 01 23
        E 7 b2 01 22
        E 7 b2 01 20
        E 7 b2 01 1f
        E 7 b2 01 1d
        E 7 b2 01 1c
        E 7 b2 01 1a
        E 7 b2 01 18
        E 7 b2 01 17
        E 7 b2 01 15
        E 7 b2 01 14
        E 7 b2 01 13
        E 7 b2 01 11
        E 7 b2 01 10
        E 7 b2 01 0e
        E 7 b2 01 0d
        E 7 b2 01 0c
        E 7 b2 01 0b
        E 7 b2 01 09
        E 7 b2 01 08
        E 7 b2 01 07
        E 7 b2 01 06
        E 7 b2 01 05
        E 7 b2 01 05
        E 7 b2 01 04
        E 7 b2 01 03
        E 7 b2 01 02
        E 7 b2 01 02
        E 7 b2 01 01
        E 7 b2 01 01
        E 7 b2 01 00
        E 7 b2 01 00
        E 7 b2 01 00
        E 7 b2 01 00
        E 7 b2 01 00
        E 7 b2 01 00
        E 7 b2 01 00
        E 7 b2 01 00
        E 7 b2 01 00
        E 7 b2 01 01
        E 7 b2 01 01
        E 7 b2 01 02
        E 7 b2 01 02
        E 7 b2 01 03
        E 7 b2 01 03
        E 7 b2 01 04
        E 7 b2 01 05
        E 7 b2 01 06
        E 7 b2 01 07
        E 7 b2 01 08
        E 7 b2 01 09
        E 7 b2 01 0a
        E 7 b2 01 0b
        E 7 b2 01 0c
        E 7 b2 01 0e
        E 7 b2 01 0f
        E 7 b2 01 10
        E 7 b2 01 12
        E 7 b2 01 13
        E 7 b2 01 15
        E 7 b2 01 16
        E 7 b2 01 18
        E 7 b2 01 19
        E 7 b2 01 1b
        E 7 b2 01 1c
        E 7 b2 01 1e
        E 7 b2 01 20
        E 7 b2 01 20
        E 7 b2 01 21
        E 7 b2 01 23
        E 7 b2 01 24
        E 7 b2 01 26
        E 7 b2 01 27
        E 7 b2 01 29
        E 7 b2 01 2a
        E 7 b2 01 2c
        E 7 b2 01 2d
        E 7 b2 01 2f
        E 7 b2 01 30
        E 7 b2 01 31
        E 7 b2 01 33
        E 7 b2 01 34
        E 7 b2 01 35
        E 7 b2 01 36
        E 7 b2 01 37
        E 7 b2 01 38
        E 7 b2 01 39
        E 7 b2 01 3a
        E 7 b2 01 3b
        E 7 b2 01 3c
        E 7 b2 01 3c
        E 7 b2 01 3d
        E 7 b2 01 3d
        E 7 b2 01 3e
        E 7 b2 01 3e
        E 7 b2 01 3f
        E 7 b2 01 3f
        E 7 b2 01 3f
        E 7 b2 01 3f
        E 7 b2 01 3f
        E 7 b2 01 3f
        E 7 b2 01 3f
        E 7 b2 01 3f
        E 7 b2 01 3f
        E 7 b2 01 3e
        E 7 b2 01 3e
        E 7 b2 01 3d
        E 7 b2 01 3d
        E 7 b2 01 3c
        E 7 b2 01 3b
        E 7 b2 01 3a
        E 7 b2 01 3a
        E 7 b2 01 39
        E 7 b2 01 38
        E 7 b2 01 37
        E 7 b2 01 36
        E 7 b2 01 34
        E 7 b2 01 33
        E 7 b2 01 32
        E 7 b2 01 31
        E 7 b2 01 2f
        E 7 b2 01 2e
        E 7 b2 01 2c
        E 7 b2 01 2b
        E 7 b2 01 2a
        E 7 b2 01 28
        E 7 b2 01 27
        E 7 b2 01 25
        E 7 b2 01 23
        E 7 b2 01 22
        E 7 b2 01 20
        E 7 b2 01 1f
        E 7 b2 01 1d
        E 7 b2 01 1c
        E 7 b2 01 1a
        E 7 b2 01 18
        E 7 b2 01 17
        E 7 b2 01 15
        E 7 b2 01 14
        E 7 b2 01 13
        E 7 b2 01 11
        E 7 b2 01 10
        E 7 b2 01 0e
        E 7 b2 01 0d
        E 7 b2 01 0c
        E 7 b2 01 0b
        E 7 b2 01 09
        E 7 b2 01 08
        E 7 b2 01 07
        E 7 b2 01 06
        E 7 b2 01 05
        E 7 b2 01 05
        E 7 b2 01 04
        E 7 b2 01 03
        E 7 b2 01 02
        E 7 b2 01 02
        E 7 b2 01 01
        E 7 b2 01 01
        E 7 b2 01 00
        E 7 b2 01 00
        E 7 b2 01 00
        E 7 b2 01 00
        E 7 b2 01 00
        E 7 b2 01 00
        E 7 b2 01 00
        E 7 b2 01 00
        E 7 b2 01 00
        E 7 b2 01 01
        E 7 b2 01 01
        E 7 b2 01 02
        E 7 b2 01 02
        E 7 b2 01 03
        E 7 b2 01 03
        E 7 b2 01 04
        E 7 b2 01 05
        E 7 b2 01 06
        E 7 b2 01 07
        E 7 b2 01 08
        E 7 b2 01 09
        E 7 b2 01 0a
        E 7 b2 01 0b
        E 7 b2 01 0c
        E 7 b2 01 0e
        E 7 b2 01 0f
        E 7 b2 01 10
        E 7 b2 01 12
        E 7 b2 01 13
        E 7 b2 01 15
        E 7 b2 01 16
        E 7 b2 01 18
        E 7 b2 01 19
        E 7 b2 01 1b
        E 7 b2 01 1c
        E 7 b2 01 1e
        E 7 b2 01 20
        E 14 b2 01 2c
        E 14 b2 01 2e
        E 14 b2 01 31
        E 14 b2 01 33
        E 14 b2 01 35
        E 14 b2 01 37
        E 14 b2 01 39
        E 14 b2 01 3b
        E 14 b2 01 3d
        E 14 b2 01 3f
        E 14 b2 01 41
        E 14 b2 01 43
        E 14 b2 01 45
        E 14 b2 01 47
        E 14 b2 01 48
        E 14 b2 01 4a
        E 14 b2 01 4c
        E 14 b2 01 4d
        E 14 b2 01 4f
        E 14 b2 01 50
        E 14 b2 01 51
        E 14 b2 01 52
        E 14 b2 01 54
        E 14 b2 01 54
        E 14 b2 01 55
        E 14 b2 01 56
        E 14 b2 01 56
        E 14 b2 01 57
        E 14 b2 01 58
        E 14 b2 01 58
        E 14 b2 01 58
        E 14 b2 01 58
        E 14 b2 01 58
        E 14 b2 01 58
        E 14 b2 01 58
        E 14 b2 01 58
        E 14 b2 01 58
        E 14 b2 01 57
        E 14 b2 01 56
        E 14 b2 01 56
        E 14 b2 01 55
        E 14 b2 01 54
        E 14 b2 01 53
        E 14 b2 01 51
        E 14 b2 01 51
        E 14 b2 01 4f
        E 14 b2 01 4e
        E 14 b2 01 4d
        E 14 b2 01 4b
        E 14 b2 01 49
        E 14 b2 01 48
        E 14 b2 01 46
        E 14 b2 01 44
        E 14 b2 01 42
        E 14 b2 01 40
        E 14 b2 01 3e
        E 14 b2 01 3c
        E 14 b2 01 3a
        E 14 b2 01 38
        E 14 b2 01 36
        E 14 b2 01 33
        E 14 b2 01 31
        E 14 b2 01 2f
        E 14 b2 01 2d
        E 14 b2 01 2b
        E 14 b2 01 29
        E 14 b2 01 27
        E 14 b2 01 25
        E 14 b2 01 22
        E 14 b2 01 20
        E 14 b2 01 1e
        E 14 b2 01 1c
        E 14 b2 01 1a
        E 14 b2 01 18
        E 14 b2 01 16
        E 14 b2 01 14
        E 14 b2 01 12
        E 14 b2 01 10
        E 14 b2 01 0f
        E 14 b2 01 0d
        E 14 b2 01 0b
        E 14 b2 01 0a
        E 14 b2 01 09
        E 14 b2 01 07
        E 14 b2 01 07
        E 14 b2 01 05
        E 14 b2 01 04
        E 14 b2 01 03
        E 14 b2 01 02
        E 14 b2 01 02
        E 14 b2 01 01
        E 14 b2 01 00
        E 14 b2 01 00
        E 14 b2 01 00
        E 14 b2 01 00
        E 14 b2 01 00
        E 14 b2 01 00
        E 14 b2 01 00
        E 14 b2 01 00
        E 14 b2 01 00
        E 14 b2 01 01
        E 14 b2 01 02
        E 14 b2 01 02
        E 14 b2 01 03
        E 14 b2 01 04
        E 14 b2 01 04
        E 14 b2 01 06
        E 14 b2 01 07
        E 14 b2 01 08
        E 14 b2 01 09
        E 14 b2 01 0b
        E 14 b2 01 0c
        E 14 b2 01 0e
        E 14 b2 01 10
        E 14 b2 01 11
        E 14 b2 01 13
        E 14 b2 01 15
        E 14 b2 01 17
        E 14 b2 01 19
        E 14 b2 01 1b
        E 14 b2 01 1d
        E 14 b2 01 1f
        E 14 b2 01 21
        E 14 b2 01 23
        E 14 b2 01 25
        E 14 b2 01 27
        E 14 b2 01 2a
        E 14 b2 01 2c
        E 12 b2 01 33
        E 12 b2 01 35
        E 12 b2 01 37
        E 12 b2 01 3a
        E 12 b2 01 3c
        E 12 b2 01 3f
        E 12 b2 01 41
        E 12 b2 01 44
        E 12 b2 01 46
        E 12 b2 01 48
        E 12 b2 01 4b
        E 12 b2 01 4c
        E 12 b2 01 4f
        E 12 b2 01 51
        E 12 b2 01 53
        E 12 b2 01 54
        E 12 b2 01 57
        E 12 b2 01 58
        E 12 b2 01 5a
        E 12 b2 01 5b
        E 12 b2 01 5d
        E 12 b2 01 5e
        E 12 b2 01 5f
        E 12 b2 01 60
        E 12 b2 01 61
        E 12 b2 01 62
        E 12 b2 01 63
        E 12 b2 01 63
        E 12 b2 01 64
        E 12 b2 01 64
        E 12 b2 01 65
        E 12 b2 01 65
        E 12 b2 01 65
        E 12 b2 01 65
        E 12 b2 01 65
        E 12 b2 01 64
        E 12 b2 01 64
        E 12 b2 01 63
        E 12 b2 01 63
        E 12 b2 01 62
        E 12 b2 01 61
        E 12 b2 01 5f
        E 12 b2 01 5f
        E 12 b2 01 5d
        E 12 b2 01 5c
        E 12 b2 01 5b
        E 12 b2 01 59
        E 12 b2 01 57
        E 12 b2 01 56
        E 12 b2 01 54
        E 12 b2 01 52
        E 12 b2 01 50
        E 12 b2 01 4e
        E 12 b2 01 4c
        E 12 b2 01 49
        E 12 b2 01 47
        E 12 b2 01 45
        E 12 b2 01 43
        E 12 b2 01 40
        E 12 b2 01 3e
        E 12 b2 01 3b
        E 12 b2 01 38
        E 12 b2 01 36
        E 12 b2 01 33
        E 12 b2 01 31
        E 12 b2 01 2f
        E 12 b2 01 2c
        E 12 b2 01 2a
        E 12 b2 01 27
        E 12 b2 01 24
        E 12 b2 01 22
        E 12 b2 01 1f
        E 12 b2 01 1e
        E 12 b2 01 1b
        E 12 b2 01 19
        E 12 b2 01 17
        E 12 b2 01 15
        E 12 b2 01 13
        E 12 b2 01 11
        E 12 b2 01 0f
        E 12 b2 01 0d
        E 12 b2 01 0b
        E 12 b2 01 0a
        E 12 b2 01 08
        E 12 b2 01 07
        E 12 b2 01 06
        E 12 b2 01 05
        E 12 b2 01 03
        E 12 b2 01 03
        E 12 b2 01 02
        E 12 b2 01 01
        E 12 b2 01 00
        E 12 b2 01 00
        E 12 b2 01 00
        E 12 b2 01 00
        E 12 b2 01 00
        E 12 b2 01 00
        E 12 b2 01 00
        E 12 b2 01 00
        E 12 b2 01 00
        E 12 b2 01 01
        E 12 b2 01 02
        E 12 b2 01 03
        E 12 b2 01 03
        E 12 b2 01 04
        E 12 b2 01 05
        E 12 b2 01 07
        E 12 b2 01 07
        E 12 b2 01 09
        E 12 b2 01 0b
        E 12 b2 01 0c
        E 12 b2 01 0e
        E 12 b2 01 10
        E 12 b2 01 12
        E 12 b2 01 14
        E 12 b2 01 16
        E 12 b2 01 18
        E 12 b2 01 1a
        E 12 b2 01 1c
        E 12 b2 01 1f
        E 12 b2 01 21
        E 12 b2 01 24
        E 12 b2 01 26
        E 12 b2 01 28
        E 12 b2 01 2b
        E 12 b2 01 2d
        E 12 b2 01 2f
        E 12 b2 01 33
        E 14 b2 01 06
        E 14 b2 01 06
        E 14 b2 01 07
        E 14 b2 01 07
        E 14 b2 01 07
        E 14 b2 01 07
        E 14 b2 01 08
        E 14 b2 01 08
        E 14 b2 01 08
        E 14 b2 01 09
        E 14 b2 01 09
        E 14 b2 01 09
        E 14 b2 01 09
        E 14 b2 01 0a
        E 14 b2 01 0a
        E 14 b2 01 0a
        E 14 b2 01 0a
        E 14 b2 01 0b
        E 14 b2 01 0b
        E 14 b2 01 0b
        E 14 b2 01 0b
        E 14 b2 01 0b
        E 14 b2 01 0c
        E 14 b2 01 0c
        E 14 b2 01 0c
        E 14 b2 01 0c
        E 14 b2 01 0c
        E 14 b2 01 0c
        E 14 b2 01 0c
        E 14 b2 01 0c
        E 14 b2 01 0c
        E 14 b2 01 0c
        E 14 b2 01 0c
        E 14 b2 01 0c
        E 14 b2 01 0c
        E 14 b2 01 0c
        E 14 b2 01 0c
        E 14 b2 01 0c
        E 14 b2 01 0c
        E 14 b2 01 0c
        E 14 b2 01 0c
        E 14 b2 01 0c
        E 14 b2 01 0b
        E 14 b2 01 0b
        E 14 b2 01 0b
        E 14 b2 01 0b
        E 14 b2 01 0b
        E 14 b2 01 0b
        E 14 b2 01 0a
        E 14 b2 01 0a
        E 14 b2 01 0a
        E 14 b2 01 0a
        E 14 b2 01 09
        E 14 b2 01 09
        E 14 b2 01 09
        E 14 b2 01 08
        E 14 b2 01 08
        E 14 b2 01 08
        E 14 b2 01 08
        E 14 b2 01 07
        E 14 b2 01 07
        E 14 b2 01 07
        E 14 b2 01 06
        E 14 b2 01 06
        E 14 b2 01 06
        E 14 b2 01 05
        E 14 b2 01 05
        E 14 b2 01 05
        E 14 b2 01 04
        E 14 b2 01 04
        E 14 b2 01 04
        E 14 b2 01 04
        E 14 b2 01 03
        E 14 b2 01 03
        E 14 b2 01 03
        E 14 b2 01 02
        E 14 b2 01 02
        E 14 b2 01 02
        E 14 b2 01 02
        E 14 b2 01 01
        E 14 b2 01 01
        E 14 b2 01 01
        E 14 b2 01 01
        E 14 b2 01 01
        E 14 b2 01 01
        E 14 b2 01 00
        E 14 b2 01 00
        E 14 b2 01 00
        E 14 b2 01 00
        E 14 b2 01 00
        E 14 b2 01 00
        E 14 b2 01 00
        E 14 b2 01 00
        E 14 b2 01 00
        E 14 b2 01 00
        E 14 b2 01 00
        E 14 b2 01 00
        E 14 b2 01 00
        E 14 b2 01 00
        E 14 b2 01 00
        E 14 b2 01 00
        E 14 b2 01 00
        E 14 b2 01 00
        E 14 b2 01 00
        E 14 b2 01 00
        E 14 b2 01 00
        E 14 b2 01 00
        E 14 b2 01 01
        E 14 b2 01 01
        E 14 b2 01 01
        E 14 b2 01 01
        E 14 b2 01 01
        E 14 b2 01 02
        E 14 b2 01 02
        E 14 b2 01 02
        E 14 b2 01 02
        E 14 b2 01 03
        E 14 b2 01 03
        E 14 b2 01 03
        E 14 b2 01 03
        E 14 b2 01 04
        E 14 b2 01 04
        E 14 b2 01 04
        E 14 b2 01 05
        E 14 b2 01 05
        E 14 b2 01 05
        E 14 b2 01 06
        E 14 b2 01 06
        E 12 b2 01 19
        E 12 b2 01 1a
        E 12 b2 01 1c
        E 12 b2 01 1d
        E 12 b2 01 1e
        E 12 b2 01 1f
        E 12 b2 01 20
        E 12 b2 01 22
        E 12 b2 01 23
        E 12 b2 01 24
        E 12 b2 01 25
        E 12 b2 01 26
        E 12 b2 01 27
        E 12 b2 01 28
        E 12 b2 01 29
        E 12 b2 01 2a
        E 12 b2 01 2b
        E 12 b2 01 2c
        E 12 b2 01 2d
        E 12 b2 01 2e
        E 12 b2 01 2e
        E 12 b2 01 2f
        E 12 b2 01 30
        E 12 b2 01 30
        E 12 b2 01 30
        E 12 b2 01 31
        E 12 b2 01 31
        E 12 b2 01 32
        E 12 b2 01 32
        E 12 b2 01 32
        E 12 b2 01 32
        E 12 b2 01 32
        E 12 b2 01 32
        E 12 b2 01 32
        E 12 b2 01 32
        E 12 b2 01 32
        E 12 b2 01 32
        E 12 b2 01 32
        E 12 b2 01 31
        E 12 b2 01 31
        E 12 b2 01 30
        E 12 b2 01 30
        E 12 b2 01 2f
        E 12 b2 01 2e
        E 12 b2 01 2e
        E 12 b2 01 2d
        E 12 b2 01 2c
        E 12 b2 01 2c
        E 12 b2 01 2b
        E 12 b2 01 2a
        E 12 b2 01 29
        E 12 b2 01 28
        E 12 b2 01 27
        E 12 b2 01 26
        E 12 b2 01 24
        E 12 b2 01 23
        E 12 b2 01 22
        E 12 b2 01 21
        E 12 b2 01 20
        E 12 b2 01 1f
        E 12 b2 01 1d
        E 12 b2 01 1c
        E 12 b2 01 1b
        E 12 b2 01 1a
        E 12 b2 01 18
        E 12 b2 01 17
        E 12 b2 01 16
        E 12 b2 01 15
        E 12 b2 01 13
        E 12 b2 01 12
        E 12 b2 01 11
        E 12 b2 01 10
        E 12 b2 01 0f
        E 12 b2 01 0e
        E 12 b2 01 0c
        E 12 b2 01 0b
        E 12 b2 01 0a
        E 12 b2 01 09
        E 12 b2 01 08
        E 12 b2 01 07
        E 12 b2 01 06
        E 12 b2 01 06
        E 12 b2 01 05
        E 12 b2 01 04
        E 12 b2 01 04
        E 12 b2 01 03
        E 12 b2 01 02
        E 12 b2 01 02
        E 12 b2 01 01
        E 12 b2 01 01
        E 12 b2 01 00
        E 12 b2 01 00
        E 12 b2 01 00
        E 12 b2 01 00
        E 12 b2 01 00
        E 12 b2 01 00
        E 12 b2 01 00
        E 12 b2 01 00
        E 12 b2 01 00
        E 12 b2 01 00
        E 12 b2 01 00
        E 12 b2 01 01
        E 12 b2 01 01
        E 12 b2 01 02
        E 12 b2 01 02
        E 12 b2 01 02
        E 12 b2 01 03
        E 12 b2 01 04
        E 12 b2 01 04
        E 12 b2 01 05
        E 12 b2 01 06
        E 12 b2 01 07
        E 12 b2 01 08
        E 12 b2 01 09
        E 12 b2 01 0a
        E 12 b2 01 0b
        E 12 b2 01 0c
        E 12 b2 01 0d
        E 12 b2 01 0e
        E 12 b2 01 0f
        E 12 b2 01 10
        E 12 b2 01 12
        E 12 b2 01 13
        E 12 b2 01 14
        E 12 b2 01 15
        E 12 b2 01 16
        E 12 b2 01 18
        E 12 b2 01 19
        E 7 b2 01 2c
        E 7 b2 01 2e
        E 7 b2 01 31
        E 7 b2 01 33
        E 7 b2 01 35
        E 7 b2 01 37
        E 7 b2 01 39
        E 7 b2 01 3b
        E 7 b2 01 3d
        E 7 b2 01 3f
        E 7 b2 01 41
        E 7 b2 01 43
        E 7 b2 01 45
        E 7 b2 01 47
        E 7 b2 01 48
        E 7 b2 01 4a
        E 7 b2 01 4c
        E 7 b2 01 4d
        E 7 b2 01 4f
        E 7 b2 01 50
        E 7 b2 01 51
        E 7 b2 01 52
        E 7 b2 01 54
        E 7 b2 01 54
        E 7 b2 01 55
        E 7 b2 01 56
        E 7 b2 01 56
        E 7 b2 01 57
        E 7 b2 01 58
        E 7 b2 01 58
        E 7 b2 01 58
        E 7 b2 01 58
        E 7 b2 01 58
        E 7 b2 01 58
        E 7 b2 01 58
        E 7 b2 01 58
        E 7 b2 01 58
        E 7 b2 01 57
        E 7 b2 01 56
        E 7 b2 01 56
        E 7 b2 01 55
        E 7 b2 01 54
        E 7 b2 01 53
        E 7 b2 01 51
        E 7 b2 01 51
        E 7 b2 01 4f
        E 7 b2 01 4e
        E 7 b2 01 4d
        E 7 b2 01 4b
        E 7 b2 01 49
        E 7 b2 01 48
        E 7 b2 01 46
        E 7 b2 01 44
        E 7 b2 01 42
        E 7 b2 01 40
        E 7 b2 01 3e
        E 7 b2 01 3c
        E 7 b2 01 3a
        E 7 b2 01 38
        E 7 b2 01 36
        E 7 b2 01 33
        E 7 b2 01 31
        E 7 b2 01 2f
        E 7 b2 01 2d
        E 7 b2 01 2b
        E 7 b2 01 29
        E 7 b2 01 27
        E 7 b2 01 25
        E 7 b2 01 22
        E 7 b2 01 20
        E 7 b2 01 1e
        E 7 b2 01 1c
        E 7 b2 01 1a
        E 7 b2 01 18
        E 7 b2 01 16
        E 7 b2 01 14
        E 7 b2 01 12
        E 7 b2 01 10
        E 7 b2 01 0f
        E 7 b2 01 0d
        E 7 b2 01 0b
        E 7 b2 01 0a
        E 7 b2 01 09
        E 7 b2 01 07
        E 7 b2 01 07
        E 7 b2 01 05
        E 7 b2 01 04
        E 7 b2 01 03
        E 7 b2 01 02
        E 7 b2 01 02
        E 7 b2 01 01
        E 7 b2 01 00
        E 7 b2 01 00
        E 7 b2 01 00
        E 7 b2 01 00
        E 7 b2 01 00
        E 7 b2 01 00
        E 7 b2 01 00
        E 7 b2 01 00
        E 7 b2 01 00
        E 7 b2 01 01
        E 7 b2 01 02
        E 7 b2 01 02
        E 7 b2 01 03
        E 7 b2 01 04
        E 7 b2 01 04
        E 7 b2 01 06
        E 7 b2 01 07
        E 7 b2 01 08
        E 7 b2 01 09
        E 7 b2 01 0b
        E 7 b2 01 0c
        E 7 b2 01 0e
        E 7 b2 01 10
        E 7 b2 01 11
        E 7 b2 01 13
        E 7 b2 01 15
        E 7 b2 01 17
        E 7 b2 01 19
        E 7 b2 01 1b
        E 7 b2 01 1d
        E 7 b2 01 1f
        E 7 b2 01 21
        E 7 b2 01 23
        E 7 b2 01 25
        E 7 b2 01 27
        E 7 b2 01 2a
        E 7 b2 01 2c
        E 7 b2 01 20
        E 7 b2 01 21
        E 7 b2 01 23
        E 7 b2 01 24
        E 7 b2 01 26
        E 7 b2 01 27
        E 7 b2 01 29
        E 7 b2 01 2a
        E 7 b2 01 2c
        E 7 b2 01 2d
        E 7 b2 01 2f
        E 7 b2 01 30
        E 7 b2 01 31
        E 7 b2 01 33
        E 7 b2 01 34
        E 7 b2 01 35
        E 7 b2 01 36
        E 7 b2 01 37
        E 7 b2 01 38
        E 7 b2 01 39
        E 7 b2 01 3a
        E 7 b2 01 3b
        E 7 b2 01 3c
        E 7 b2 01 3c
        E 7 b2 01 3d
        E 7 b2 01 3d
        E 7 b2 01 3e
        E 7 b2 01 3e
        E 7 b2 01 3f
        E 7 b2 01 3f
        E 7 b2 01 3f
        E 7 b2 01 3f
        E 7 b2 01 3f
        E 7 b2 01 3f
        E 7 b2 01 3f
        E 7 b2 01 3f
        E 7 b2 01 3f
        E 7 b2 01 3e
        E 7 b2 01 3e
        E 7 b2 01 3d
        E 7 b2 01 3d
        E 7 b2 01 3c
        E 7 b2 01 3b
        E 7 b2 01 3a
        E 7 b2 01 3a
        E 7 b2 01 39
        E 7 b2 01 38
        E 7 b2 01 37
        E 7 b2 01 36
        E 7 b2 01 34
        E 7 b2 01 33
        E 7 b2 01 32
        E 7 b2 01 31
        E 7 b2 01 2f
        E 7 b2 01 2e
        E 7 b2 01 2c
        E 7 b2 01 2b
        E 7 b2 01 2a
        E 7 b2 01 28
        E 7 b2 01 27
        E 7 b2 01 25
        E 7 b2 01 23
        E 7 b2 01 22
        E 7 b2 01 20
        E 7 b2 01 1f
        E 7 b2 01 1d
        E 7 b2 01 1c
        E 7 b2 01 1a
        E 7 b2 01 18
        E 7 b2 01 17
        E 7 b2 01 15
        E 7 b2 01 14
        E 7 b2 01 13
        E 7 b2 01 11
        E 7 b2 01 10
        E 7 b2 01 0e
        E 7 b2 01 0d
        E 7 b2 01 0c
        E 7 b2 01 0b
        E 7 b2 01 09
        E 7 b2 01 08
        E 7 b2 01 07
        E 7 b2 01 06
        E 7 b2 01 05
        E 7 b2 01 05
        E 7 b2 01 04
        E 7 b2 01 03
        E 7 b2 01 02
        E 7 b2 01 02
        E 7 b2 01 01
        E 7 b2 01 01
        E 7 b2 01 00
        E 7 b2 01 00
        E 7 b2 01 00
        E 7 b2 01 00
        E 7 b2 01 00
        E 7 b2 01 00
        E 7 b2 01 00
        E 7 b2 01 00
        E 7 b2 01 00
        E 7 b2 01 01
        E 7 b2 01 01
        E 7 b2 01 02
        E 7 b2 01 02
        E 7 b2 01 03
        E 7 b2 01 03
        E 7 b2 01 04
        E 7 b2 01 05
        E 7 b2 01 06
        E 7 b2 01 07
        E 7 b2 01 08
        E 7 b2 01 09
        E 7 b2 01 0a
        E 7 b2 01 0b
        E 7 b2 01 0c
        E 7 b2 01 0e
        E 7 b2 01 0f
        E 7 b2 01 10
        E 7 b2 01 12
        E 7 b2 01 13
        E 7 b2 01 15
        E 7 b2 01 16
        E 7 b2 01 18
        E 7 b2 01 19
        E 7 b2 01 1b
        E 7 b2 01 1c
        E 7 b2 01 1e
        E 7 b2 01 20
        E 1 b2 01 39
        E 1 b2 01 3c
        E 1 b2 01 3f
        E 1 b2 01 41
        E 1 b2 01 44
        E 1 b2 01 47
        E 1 b2 01 49
        E 1 b2 01 4c
        E 1 b2 01 4f
        E 1 b2 01 51
        E 1 b2 01 54
        E 1 b2 01 56
        E 1 b2 01 59
        E 1 b2 01 5b
        E 1 b2 01 5d
        E 1 b2 01 5f
        E 1 b2 01 62
        E 1 b2 01 63
        E 1 b2 01 65
        E 1 b2 01 67
        E 1 b2 01 69
        E 1 b2 01 6a
        E 1 b2 01 6c
        E 1 b2 01 6c
        E 1 b2 01 6d
        E 1 b2 01 6e
        E 1 b2 01 6f
        E 1 b2 01 70
        E 1 b2 01 71
        E 1 b2 01 71
        E 1 b2 01 72
        E 1 b2 01 72
        E 1 b2 01 72
        E 1 b2 01 72
        E 1 b2 01 72
        E 1 b2 01 71
        E 1 b2 01 71
        E 1 b2 01 70
        E 1 b2 01 6f
        E 1 b2 01 6e
        E 1 b2 01 6d
        E 1 b2 01 6c
        E 1 b2 01 6b
        E 1 b2 01 69
        E 1 b2 01 68
        E 1 b2 01 66
        E 1 b2 01 64
        E 1 b2 01 63
        E 1 b2 01 61
        E 1 b2 01 5e
        E 1 b2 01 5c
        E 1 b2 01 5a
        E 1 b2 01 58
        E 1 b2 01 55
        E 1 b2 01 52
        E 1 b2 01 50
        E 1 b2 01 4e
        E 1 b2 01 4b
        E 1 b2 01 48
        E 1 b2 01 46
        E 1 b2 01 42
        E 1 b2 01 3f
        E 1 b2 01 3d
        E 1 b2 01 3a
        E 1 b2 01 37
        E 1 b2 01 35
        E 1 b2 01 32
        E 1 b2 01 2f
        E 1 b2 01 2c
        E 1 b2 01 29
        E 1 b2 01 26
        E 1 b2 01 24
        E 1 b2 01 22
        E 1 b2 01 1f
        E 1 b2 01 1c
        E 1 b2 01 1a
        E 1 b2 01 18
        E 1 b2 01 15
        E 1 b2 01 13
        E 1 b2 01 11
        E 1 b2 01 0f
        E 1 b2 01 0d
        E 1 b2 01 0b
        E 1 b2 01 09
        E 1 b2 01 09
        E 1 b2 01 07
        E 1 b2 01 06
        E 1 b2 01 04
        E 1 b2 01 03
        E 1 b2 01 02
        E 1 b2 01 01
        E 1 b2 01 00
        E 1 b2 01 00
        E 1 b2 01 00
        E 1 b2 01 00
        E 1 b2 01 00
        E 1 b2 01 00
        E 1 b2 01 00
        E 1 b2 01 00
        E 1 b2 01 00
        E 1 b2 01 01
        E 1 b2 01 02
        E 1 b2 01 03
        E 1 b2 01 04
        E 1 b2 01 05
        E 1 b2 01 06
        E 1 b2 01 08
        E 1 b2 01 09
        E 1 b2 01 0a
        E 1 b2 01 0c
        E 1 b2 01 0e
        E 1 b2 01 10
        E 1 b2 01 12
        E 1 b2 01 14
        E 1 b2 01 16
        E 1 b2 01 19
        E 1 b2 01 1b
        E 1 b2 01 1d
        E 1 b2 01 20
        E 1 b2 01 23
        E 1 b2 01 25
        E 1 b2 01 28
        E 1 b2 01 2b
        E 1 b2 01 2d
        E 1 b2 01 30
        E 1 b2 01 33
        E 1 b2 01 36
        E 1 b2 01 39
        E 5 b2 01 40
        E 5 b2 01 43
        E 5 b2 01 46
        E 5 b2 01 49
        E 5 b2 01 4c
        E 5 b2 01 4f
        E 5 b2 01 52
        E 5 b2 01 55
        E 5 b2 01 58
        E 5 b2 01 5b
        E 5 b2 01 5e
        E 5 b2 01 60
        E 5 b2 01 63
        E 5 b2 01 66
        E 5 b2 01 68
        E 5 b2 01 6a
        E 5 b2 01 6d
        E 5 b2 01 6f
        E 5 b2 01 71
        E 5 b2 01 73
        E 5 b2 01 75
        E 5 b2 01 76
        E 5 b2 01 78
        E 5 b2 01 79
        E 5 b2 01 7a
        E 5 b2 01 7b
        E 5 b2 01 7c
        E 5 b2 01 7d
        E 5 b2 01 7e
        E 5 b2 01 7e
        E 5 b2 01 7f
        E 5 b2 01 7f
        E 5 b2 01 7f
        E 5 b2 01 7f
        E 5 b2 01 7f
        E 5 b2 01 7e
        E 5 b2 01 7e
        E 5 b2 01 7d
        E 5 b2 01 7c
        E 5 b2 01 7b
        E 5 b2 01 7a
        E 5 b2 01 78
        E 5 b2 01 77
        E 5 b2 01 75
        E 5 b2 01 74
        E 5 b2 01 72
        E 5 b2 01 70
        E 5 b2 01 6e
        E 5 b2 01 6c
        E 5 b2 01 69
        E 5 b2 01 67
        E 5 b2 01 64
        E 5 b2 01 62
        E 5 b2 01 5f
        E 5 b2 01 5c
        E 5 b2 01 59
        E 5 b2 01 57
        E 5 b2 01 54
        E 5 b2 01 51
        E 5 b2 01 4e
        E 5 b2 01 4a
        E 5 b2 01 47
        E 5 b2 01 44
        E 5 b2 01 41
        E 5 b2 01 3e
        E 5 b2 01 3b
        E 5 b2 01 38
        E 5 b2 01 35
        E 5 b2 01 31
        E 5 b2 01 2e
        E 5 b2 01 2b
        E 5 b2 01 28
        E 5 b2 01 26
        E 5 b2 01 23
        E 5 b2 01 20
        E 5 b2 01 1d
        E 5 b2 01 1b
        E 5 b2 01 18
        E 5 b2 01 16
        E 5 b2 01 13
        E 5 b2 01 11
        E 5 b2 01 0f
        E 5 b2 01 0d
        E 5 b2 01 0b
        E 5 b2 01 0a
        E 5 b2 01 08
        E 5 b2 01 07
        E 5 b2 01 05
        E 5 b2 01 04
        E 5 b2 01 03
        E 5 b2 01 02
        E 5 b2 01 01
        E 5 b2 01 01
        E 5 b2 01 00
        E 5 b2 01 00
        E 5 b2 01 00
        E 5 b2 01 00
        E 5 b2 01 00
        E 5 b2 01 01
        E 5 b2 01 01
        E 5 b2 01 02
        E 5 b2 01 03
        E 5 b2 01 04
        E 5 b2 01 05
        E 5 b2 01 06
        E 5 b2 01 07
        E 5 b2 01 09
        E 5 b2 01 0a
        E 5 b2 01 0c
        E 5 b2 01 0e
        E 5 b2 01 10
        E 5 b2 01 12
        E 5 b2 01 15
        E 5 b2 01 17
        E 5 b2 01 19
        E 5 b2 01 1c
        E 5 b2 01 1f
        E 5 b2 01 21
        E 5 b2 01 24
        E 5 b2 01 27
        E 5 b2 01 2a
        E 5 b2 01 2d
        E 5 b2 01 30
        E 5 b2 01 33
        E 5 b2 01 36
        E 5 b2 01 39
        E 5 b2 01 3c
        E 5 b2 01 40
        E 9 b2 01 39
        E 9 b2 01 3c
        E 9 b2 01 3f
        E 9 b2 01 41
        E 9 b2 01 44
        E 9 b2 01 47
        E 9 b2 01 49
        E 9 b2 01 4c
        E 9 b2 01 4f
        E 9 b2 01 51
        E 9 b2 01 54
        E 9 b2 01 56
        E 9 b2 01 59
        E 9 b2 01 5b
        E 9 b2 01 5d
        E 9 b2 01 5f
        E 9 b2 01 62
        E 9 b2 01 63
        E 9 b2 01 65
        E 9 b2 01 67
        E 9 b2 01 69
        E 9 b2 01 6a
        E 9 b2 01 6c
        E 9 b2 01 6c
        E 9 b2 01 6d
        E 9 b2 01 6e
        E 9 b2 01 6f
        E 9 b2 01 70
        E 9 b2 01 71
        E 9 b2 01 71
        E 9 b2 01 72
        E 9 b2 01 72
        E 9 b2 01 72
        E 9 b2 01 72
        E 9 b2 01 72
        E 9 b2 01 71
        E 9 b2 01 71
        E 9 b2 01 70
        E 9 b2 01 6f
        E 9 b2 01 6e
        E 9 b2 01 6d
        E 9 b2 01 6c
        E 9 b2 01 6b
        E 9 b2 01 69
        E 9 b2 01 68
        E 9 b2 01 66
        E 9 b2 01 64
        E 9 b2 01 63
        E 9 b2 01 61
        E 9 b2 01 5e
        E 9 b2 01 5c
        E 9 b2 01 5a
        E 9 b2 01 58
        E 9 b2 01 55
        E 9 b2 01 52
        E 9 b2 01 50
        E 9 b2 01 4e
        E 9 b2 01 4b
        E 9 b2 01 48
        E 9 b2 01 46
        E 9 b2 01 42
        E 9 b2 01 3f
        E 9 b2 01 3d
        E 9 b2 01 3a
        E 9 b2 01 37
        E 9 b2 01 35
        E 9 b2 01 32
        E 9 b2 01 2f
        E 9 b2 01 2c
        E 9 b2 01 29
        E 9 b2 01 26
        E 9 b2 01 24
        E 9 b2 01 22
        E 9 b2 01 1f
        E 9 b2 01 1c
        E 9 b2 01 1a
        E 9 b2 01 18
        E 9 b2 01 15
        E 9 b2 01 13
        E 9 b2 01 11
        E 9 b2 01 0f
        E 9 b2 01 0d
        E 9 b2 01 0b
        E 9 b2 01 09
        E 9 b2 01 09
        E 9 b2 01 07
        E 9 b2 01 06
        E 9 b2 01 04
        E 9 b2 01 03
        E 9 b2 01 02
        E 9 b2 01 01
        E 9 b2 01 00
        E 9 b2 01 00
        E 9 b2 01 00
        E 9 b2 01 00
        E 9 b2 01 00
        E 9 b2 01 00
        E 9 b2 01 00
        E 9 b2 01 00
        E 9 b2 01 00
        E 9 b2 01 01
        E 9 b2 01 02
        E 9 b2 01 03
        E 9 b2 01 04
        E 9 b2 01 05
        E 9 b2 01 06
        E 9 b2 01 08
        E 9 b2 01 09
        E 9 b2 01 0a
        E 9 b2 01 0c
        E 9 b2 01 0e
        E 9 b2 01 10
        E 9 b2 01 12
        E 9 b2 01 14
        E 9 b2 01 16
        E 9 b2 01 19
        E 9 b2 01 1b
        E 9 b2 01 1d
        E 9 b2 01 20
        E 9 b2 01 23
        E 9 b2 01 25
        E 9 b2 01 28
        E 9 b2 01 2b
        E 9 b2 01 2d
        E 9 b2 01 30
        E 9 b2 01 33
        E 9 b2 01 36
        E 9 b2 01 39
        E 7 b2 01 20
        E 7 b2 01 21
        E 7 b2 01 23
        E 7 b2 01 24
        E 7 b2 01 26
        E 7 b2 01 27
        E 7 b2 01 29
        E 7 b2 01 2a
        E 7 b2 01 2c
        E 7 b2 01 2d
        E 7 b2 01 2f
        E 7 b2 01 30
        E 7 b2 01 31
        E 7 b2 01 33
        E 7 b2 01 34
        E 7 b2 01 35
        E 7 b2 01 36
        E 7 b2 01 37
        E 7 b2 01 38
        E 7 b2 01 39
        E 7 b2 01 3a
        E 7 b2 01 3b
        E 7 b2 01 3c
        E 7 b2 01 3c
        E 7 b2 01 3d
        E 7 b2 01 3d
        E 7 b2 01 3e
        E 7 b2 01 3e
        E 7 b2 01 3f
        E 7 b2 01 3f
        E 7 b2 01 3f
        E 7 b2 01 3f
        E 7 b2 01 3f
        E 7 b2 01 3f
        E 7 b2 01 3f
        E 7 b2 01 3f
        E 7 b2 01 3f
        E 7 b2 01 3e
        E 7 b2 01 3e
        E 7 b2 01 3d
        E 7 b2 01 3d
        E 7 b2 01 3c
        E 7 b2 01 3b
        E 7 b2 01 3a
        E 7 b2 01 3a
        E 7 b2 01 39
        E 7 b2 01 38
        E 7 b2 01 37
        E 7 b2 01 36
        E 7 b2 01 34
        E 7 b2 01 33
        E 7 b2 01 32
        E 7 b2 01 31
        E 7 b2 01 2f
        E 7 b2 01 2e
        E 7 b2 01 2c
        E 7 b2 01 2b
        E 7 b2 01 2a
        E 7 b2 01 28
        E 7 b2 01 27
        E 7 b2 01 25
        E 7 b2 01 23
        E 7 b2 01 22
        E 7 b2 01 20
        E 7 b2 01 1f
        E 7 b2 01 1d
        E 7 b2 01 1c
        E 7 b2 01 1a
        E 7 b2 01 18
        E 7 b2 01 17
        E 7 b2 01 15
        E 7 b2 01 14
        E 7 b2 01 13
        E 7 b2 01 11
        E 7 b2 01 10
        E 7 b2 01 0e
        E 7 b2 01 0d
        E 7 b2 01 0c
        E 7 b2 01 0b
        E 7 b2 01 09
        E 7 b2 01 08
        E 7 b2 01 07
        E 7 b2 01 06
        E 7 b2 01 05
        E 7 b2 01 05
        E 7 b2 01 04
        E 7 b2 01 03
        E 7 b2 01 02
        E 7 b2 01 02
        E 7 b2 01 01
        E 7 b2 01 01
        E 7 b2 01 00
        E 7 b2 01 00
        E 7 b2 01 00
        E 7 b2 01 00
        E 7 b2 01 00
        E 7 b2 01 00
        E 7 b2 01 00
        E 7 b2 01 00
        E 7 b2 01 00
        E 7 b2 01 01
        E 7 b2 01 01
        E 7 b2 01 02
        E 7 b2 01 02
        E 7 b2 01 03
        E 7 b2 01 03
        E 7 b2 01 04
        E 7 b2 01 05
        E 7 b2 01 06
        E 7 b2 01 07
        E 7 b2 01 08
        E 7 b2 01 09
        E 7 b2 01 0a
        E 7 b2 01 0b
        E 7 b2 01 0c
        E 7 b2 01 0e
        E 7 b2 01 0f
        E 7 b2 01 10
        E 7 b2 01 12
        E 7 b2 01 13
        E 7 b2 01 15
        E 7 b2 01 16
        E 7 b2 01 18
        E 7 b2 01 19
        E 7 b2 01 1b
        E 7 b2 01 1c
        E 7 b2 01 1e
        E 7 b2 01 20
        E 7 b2 01 20
        E 7 b2 01 21
        E 7 b2 01 23
        E 7 b2 01 24
        E 7 b2 01 26
        E 7 b2 01 27
        E 7 b2 01 29
        E 7 b2 01 2a
        E 7 b2 01 2c
        E 7 b2 01 2d
        E 7 b2 01 2f
        E 7 b2 01 30
        E 7 b2 01 31
        E 7 b2 01 33
        E 7 b2 01 34
        E 7 b2 01 35
        E 7 b2 01 36
        E 7 b2 01 37
        E 7 b2 01 38
        E 7 b2 01 39
        E 7 b2 01 3a
        E 7 b2 01 3b
        E 7 b2 01 3c
        E 7 b2 01 3c
        E 7 b2 01 3d
        E 7 b2 01 3d
        E 7 b2 01 3e
        E 7 b2 01 3e
        E 7 b2 01 3f
        E 7 b2 01 3f
        E 7 b2 01 3f
        E 7 b2 01 3f
        E 7 b2 01 3f
        E 7 b2 01 3f
        E 7 b2 01 3f
        E 7 b2 01 3f
        E 7 b2 01 3f
        E 7 b2 01 3e
        E 7 b2 01 3e
        E 7 b2 01 3d
        E 7 b2 01 3d
        E 7 b2 01 3c
        E 7 b2 01 3b
        E 7 b2 01 3a
        E 7 b2 01 3a
        E 7 b2 01 39
        E 7 b2 01 38
        E 7 b2 01 37
        E 7 b2 01 36
        E 7 b2 01 34
        E 7 b2 01 33
        E 7 b2 01 32
        E 7 b2 01 31
        E 7 b2 01 2f
        E 7 b2 01 2e
        E 7 b2 01 2c
        E 7 b2 01 2b
        E 7 b2 01 2a
        E 7 b2 01 28
        E 7 b2 01 27
        E 7 b2 01 25
        E 7 b2 01 23
        E 7 b2 01 22
        E 7 b2 01 20
        E 7 b2 01 1f
        E 7 b2 01 1d
        E 7 b2 01 1c
        E 7 b2 01 1a
        E 7 b2 01 18
        E 7 b2 01 17
        E 7 b2 01 15
        E 7 b2 01 14
        E 7 b2 01 13
        E 7 b2 01 11
        E 7 b2 01 10
        E 7 b2 01 0e
        E 7 b2 01 0d
        E 7 b2 01 0c
        E 7 b2 01 0b
        E 7 b2 01 09
        E 7 b2 01 08
        E 7 b2 01 07
        E 7 b2 01 06
        E 7 b2 01 05
        E 7 b2 01 05
        E 7 b2 01 04
        E 7 b2 01 03
        E 7 b2 01 02
        E 7 b2 01 02
        E 7 b2 01 01
        E 7 b2 01 01
        E 7 b2 01 00
        E 7 b2 01 00
        E 7 b2 01 00
        E 7 b2 01 00
        E 7 b2 01 00
        E 7 b2 01 00
        E 7 b2 01 00
        E 7 b2 01 00
        E 7 b2 01 00
        E 7 b2 01 01
        E 7 b2 01 01
        E 7 b2 01 02
        E 7 b2 01 02
        E 7 b2 01 03
        E 7 b2 01 03
        E 7 b2 01 04
        E 7 b2 01 05
        E 7 b2 01 06
        E 7 b2 01 07
        E 7 b2 01 08
        E 7 b2 01 09
        E 7 b2 01 0a
        E 7 b2 01 0b
        E 7 b2 01 0c
        E 7 b2 01 0e
        E 7 b2 01 0f
        E 7 b2 01 10
        E 7 b2 01 12
        E 7 b2 01 13
        E 7 b2 01 15
        E 7 b2 01 16
        E 7 b2 01 18
        E 7 b2 01 19
        E 7 b2 01 1b
        E 7 b2 01 1c
        E 7 b2 01 1e
        E 7 b2 01 20
        E 14 b2 01 2c
        E 14 b2 01 2e
        E 14 b2 01 31
        E 14 b2 01 33
        E 14 b2 01 35
        E 14 b2 01 37
        E 14 b2 01 39
        E 14 b2 01 3b
        E 14 b2 01 3d
        E 14 b2 01 3f
        E 14 b2 01 41
        E 14 b2 01 43
        E 14 b2 01 45
        E 14 b2 01 47
        E 14 b2 01 48
        E 14 b2 01 4a
        E 14 b2 01 4c
        E 14 b2 01 4d
        E 14 b2 01 4f
        E 14 b2 01 50
        E 14 b2 01 51
        E 14 b2 01 52
        E 14 b2 01 54
        E 14 b2 01 54
        E 14 b2 01 55
        E 14 b2 01 56
        E 14 b2 01 56
        E 14 b2 01 57
        E 14 b2 01 58
        E 14 b2 01 58
        E 14 b2 01 58
        E 14 b2 01 58
        E 14 b2 01 58
        E 14 b2 01 58
        E 14 b2 01 58
        E 14 b2 01 58
        E 14 b2 01 58
        E 14 b2 01 57
        E 14 b2 01 56
        E 14 b2 01 56
        E 14 b2 01 55
        E 14 b2 01 54
        E 14 b2 01 53
        E 14 b2 01 51
        E 14 b2 01 51
        E 14 b2 01 4f
        E 14 b2 01 4e
        E 14 b2 01 4d
        E 14 b2 01 4b
        E 14 b2 01 49
        E 14 b2 01 48
        E 14 b2 01 46
        E 14 b2 01 44
        E 14 b2 01 42
        E 14 b2 01 40
        E 14 b2 01 3e
        E 14 b2 01 3c
        E 14 b2 01 3a
        E 14 b2 01 38
        E 14 b2 01 36
        E 14 b2 01 33
        E 14 b2 01 31
        E 14 b2 01 2f
        E 14 b2 01 2d
        E 14 b2 01 2b
        E 14 b2 01 29
        E 14 b2 01 27
        E 14 b2 01 25
        E 14 b2 01 22
        E 14 b2 01 20
        E 14 b2 01 1e
        E 14 b2 01 1c
        E 14 b2 01 1a
        E 14 b2 01 18
        E 14 b2 01 16
        E 14 b2 01 14
        E 14 b2 01 12
        E 14 b2 01 10
        E 14 b2 01 0f
        E 14 b2 01 0d
        E 14 b2 01 0b
        E 14 b2 01 0a
        E 14 b2 01 09
        E 14 b2 01 07
        E 14 b2 01 07
        E 14 b2 01 05
        E 14 b2 01 04
        E 14 b2 01 03
        E 14 b2 01 02
        E 14 b2 01 02
        E 14 b2 01 01
        E 14 b2 01 00
        E 14 b2 01 00
        E 14 b2 01 00
        E 14 b2 01 00
        E 14 b2 01 00
        E 14 b2 01 00
        E 14 b2 01 00
        E 14 b2 01 00
        E 14 b2 01 00
        E 14 b2 01 01
        E 14 b2 01 02
        E 14 b2 01 02
        E 14 b2 01 03
        E 14 b2 01 04
        E 14 b2 01 04
        E 14 b2 01 06
        E 14 b2 01 07
        E 14 b2 01 08
        E 14 b2 01 09
        E 14 b2 01 0b
        E 14 b2 01 0c
        E 14 b2 01 0e
        E 14 b2 01 10
        E 14 b2 01 11
        E 14 b2 01 13
        E 14 b2 01 15
        E 14 b2 01 17
        E 14 b2 01 19
        E 14 b2 01 1b
        E 14 b2 01 1d
        E 14 b2 01 1f
        E 14 b2 01 21
        E 14 b2 01 23
        E 14 b2 01 25
        E 14 b2 01 27
        E 14 b2 01 2a
        E 14 b2 01 2c
        E 12 b2 01 33
        E 12 b2 01 35
        E 12 b2 01 37
        E 12 b2 01 3a
        E 12 b2 01 3c
        E 12 b2 01 3f
        E 12 b2 01 41
        E 12 b2 01 44
        E 12 b2 01 46
        E 12 b2 01 48
        E 12 b2 01 4b
        E 12 b2 01 4c
        E 12 b2 01 4f
        E 12 b2 01 51
        E 12 b2 01 53
        E 12 b2 01 54
        E 12 b2 01 57
        E 12 b2 01 58
        E 12 b2 01 5a
        E 12 b2 01 5b
        E 12 b2 01 5d
        E 12 b2 01 5e
        E 12 b2 01 5f
        E 12 b2 01 60
        E 12 b2 01 61
        E 12 b2 01 62
        E 12 b2 01 63
        E 12 b2 01 63
        E 12 b2 01 64
        E 12 b2 01 64
        E 12 b2 01 65
        E 12 b2 01 65
        E 12 b2 01 65
        E 12 b2 01 65
        E 12 b2 01 65
        E 12 b2 01 64
        E 12 b2 01 64
        E 12 b2 01 63
        E 12 b2 01 63
        E 12 b2 01 62
        E 12 b2 01 61
        E 12 b2 01 5f
        E 12 b2 01 5f
        E 12 b2 01 5d
        E 12 b2 01 5c
        E 12 b2 01 5b
        E 12 b2 01 59
        E 12 b2 01 57
        E 12 b2 01 56
        E 12 b2 01 54
        E 12 b2 01 52
        E 12 b2 01 50
        E 12 b2 01 4e
        E 12 b2 01 4c
        E 12 b2 01 49
        E 12 b2 01 47
        E 12 b2 01 45
        E 12 b2 01 43
        E 12 b2 01 40
        E 12 b2 01 3e
        E 12 b2 01 3b
        E 12 b2 01 38
        E 12 b2 01 36
        E 12 b2 01 33
        E 12 b2 01 31
        E 12 b2 01 2f
        E 12 b2 01 2c
        E 12 b2 01 2a
        E 12 b2 01 27
        E 12 b2 01 24
        E 12 b2 01 22
        E 12 b2 01 1f
        E 12 b2 01 1e
        E 12 b2 01 1b
        E 12 b2 01 19
        E 12 b2 01 17
        E 12 b2 01 15
        E 12 b2 01 13
        E 12 b2 01 11
        E 12 b2 01 0f
        E 12 b2 01 0d
        E 12 b2 01 0b
        E 12 b2 01 0a
        E 12 b2 01 08
        E 12 b2 01 07
        E 12 b2 01 06
        E 12 b2 01 05
        E 12 b2 01 03
        E 12 b2 01 03
        E 12 b2 01 02
        E 12 b2 01 01
        E 12 b2 01 00
        E 12 b2 01 00
        E 12 b2 01 00
        E 12 b2 01 00
        E 12 b2 01 00
        E 12 b2 01 00
        E 12 b2 01 00
        E 12 b2 01 00
        E 12 b2 01 00
        E 12 b2 01 01
        E 12 b2 01 02
        E 12 b2 01 03
        E 12 b2 01 03
        E 12 b2 01 04
        E 12 b2 01 05
        E 12 b2 01 07
        E 12 b2 01 07
        E 12 b2 01 09
        E 12 b2 01 0b
        E 12 b2 01 0c
        E 12 b2 01 0e
        E 12 b2 01 10
        E 12 b2 01 12
        E 12 b2 01 14
        E 12 b2 01 16
        E 12 b2 01 18
        E 12 b2 01 1a
        E 12 b2 01 1c
        E 12 b2 01 1f
        E 12 b2 01 21
        E 12 b2 01 24
        E 12 b2 01 26
        E 12 b2 01 28
        E 12 b2 01 2b
        E 12 b2 01 2d
        E 12 b2 01 2f
        E 12 b2 01 33
        E 14 b2 01 06
        E 14 b2 01 06
        E 14 b2 01 07
        E 14 b2 01 07
        E 14 b2 01 07
        E 14 b2 01 07
        E 14 b2 01 08
        E 14 b2 01 08
        E 14 b2 01 08
        E 14 b2 01 09
        E 14 b2 01 09
        E 14 b2 01 09
        E 14 b2 01 09
        E 14 b2 01 0a
        E 14 b2 01 0a
        E 14 b2 01 0a
        E 14 b2 01 0a
        E 14 b2 01 0b
        E 14 b2 01 0b
        E 14 b2 01 0b
        E 14 b2 01 0b
        E 14 b2 01 0b
        E 14 b2 01 0c
        E 14 b2 01 0c
        E 14 b2 01 0c
        E 14 b2 01 0c
        E 14 b2 01 0c
        E 14 b2 01 0c
        E 14 b2 01 0c
        E 14 b2 01 0c
        E 14 b2 01 0c
        E 14 b2 01 0c
        E 14 b2 01 0c
        E 14 b2 01 0c
        E 14 b2 01 0c
        E 14 b2 01 0c
        E 14 b2 01 0c
        E 14 b2 01 0c
        E 14 b2 01 0c
        E 14 b2 01 0c
        E 14 b2 01 0c
        E 14 b2 01 0c
        E 14 b2 01 0b
        E 14 b2 01 0b
        E 14 b2 01 0b
        E 14 b2 01 0b
        E 14 b2 01 0b
        E 14 b2 01 0b
        E 14 b2 01 0a
        E 14 b2 01 0a
        E 14 b2 01 0a
        E 14 b2 01 0a
        E 14 b2 01 09
        E 14 b2 01 09
        E 14 b2 01 09
        E 14 b2 01 08
        E 14 b2 01 08
        E 14 b2 01 08
        E 14 b2 01 08
        E 14 b2 01 07
        E 14 b2 01 07
        E 14 b2 01 07
        E 14 b2 01 06
        E 14 b2 01 06
        E 14 b2 01 06
        E 14 b2 01 05
        E 14 b2 01 05
        E 14 b2 01 05
        E 14 b2 01 04
        E 14 b2 01 04
        E 14 b2 01 04
        E 14 b2 01 04
        E 14 b2 01 03
        E 14 b2 01 03
        E 14 b2 01 03
        E 14 b2 01 02
        E 14 b2 01 02
        E 14 b2 01 02
        E 14 b2 01 02
        E 14 b2 01 01
        E 14 b2 01 01
        E 14 b2 01 01
        E 14 b2 01 01
        E 14 b2 01 01
        E 14 b2 01 01
        E 14 b2 01 00
        E 14 b2 01 00
        E 14 b2 01 00
        E 14 b2 01 00
        E 14 b2 01 00
        E 14 b2 01 00
        E 14 b2 01 00
        E 14 b2 01 00
        E 14 b2 01 00
        E 14 b2 01 00
        E 14 b2 01 00
        E 14 b2 01 00
        E 14 b2 01 00
        E 14 b2 01 00
        E 14 b2 01 00
        E 14 b2 01 00
        E 14 b2 01 00
        E 14 b2 01 00
        E 14 b2 01 00
        E 14 b2 01 00
        E 14 b2 01 00
        E 14 b2 01 00
        E 14 b2 01 01
        E 14 b2 01 01
        E 14 b2 01 01
        E 14 b2 01 01
        E 14 b2 01 01
        E 14 b2 01 02
        E 14 b2 01 02
        E 14 b2 01 02
        E 14 b2 01 02
        E 14 b2 01 03
        E 14 b2 01 03
        E 14 b2 01 03
        E 14 b2 01 03
        E 14 b2 01 04
        E 14 b2 01 04
        E 14 b2 01 04
        E 14 b2 01 05
        E 14 b2 01 05
        E 14 b2 01 05
        E 14 b2 01 06
        E 14 b2 01 06
        E 12 b2 01 19
        E 12 b2 01 1a
        E 12 b2 01 1c
        E 12 b2 01 1d
        E 12 b2 01 1e
        E 12 b2 01 1f
        E 12 b2 01 20
        E 12 b2 01 22
        E 12 b2 01 23
        E 12 b2 01 24
        E 12 b2 01 25
        E 12 b2 01 26
        E 12 b2 01 27
        E 12 b2 01 28
        E 12 b2 01 29
        E 12 b2 01 2a
        E 12 b2 01 2b
        E 12 b2 01 2c
        E 12 b2 01 2d
        E 12 b2 01 2e
        E 12 b2 01 2e
        E 12 b2 01 2f
        E 12 b2 01 30
        E 12 b2 01 30
        E 12 b2 01 30
        E 12 b2 01 31
        E 12 b2 01 31
        E 12 b2 01 32
        E 12 b2 01 32
        E 12 b2 01 32
        E 12 b2 01 32
        E 12 b2 01 32
        E 12 b2 01 32
        E 12 b2 01 32
        E 12 b2 01 32
        E 12 b2 01 32
        E 12 b2 01 32
        E 12 b2 01 32
        E 12 b2 01 31
        E 12 b2 01 31
        E 12 b2 01 30
        E 12 b2 01 30
        E 12 b2 01 2f
        E 12 b2 01 2e
        E 12 b2 01 2e
        E 12 b2 01 2d
        E 12 b2 01 2c
        E 12 b2 01 2c
        E 12 b2 01 2b
        E 12 b2 01 2a
        E 12 b2 01 29
        E 12 b2 01 28
        E 12 b2 01 27
        E 12 b2 01 26
        E 12 b2 01 24
        E 12 b2 01 23
        E 12 b2 01 22
        E 12 b2 01 21
        E 12 b2 01 20
        E 12 b2 01 1f
        E 12 b2 01 1d
        E 12 b2 01 1c
        E 12 b2 01 1b
        E 12 b2 01 1a
        E 12 b2 01 18
        E 12 b2 01 17
        E 12 b2 01 16
        E 12 b2 01 15
        E 12 b2 01 13
        E 12 b2 01 12
        E 12 b2 01 11
        E 12 b2 01 10
        E 12 b2 01 0f
        E 12 b2 01 0e
        E 12 b2 01 0c
        E 12 b2 01 0b
        E 12 b2 01 0a
        E 12 b2 01 09
        E 12 b2 01 08
        E 12 b2 01 07
        E 12 b2 01 06
        E 12 b2 01 06
        E 12 b2 01 05
        E 12 b2 01 04
        E 12 b2 01 04
        E 12 b2 01 03
        E 12 b2 01 02
        E 12 b2 01 02
        E 12 b2 01 01
        E 12 b2 01 01
        E 12 b2 01 00
        E 12 b2 01 00
        E 12 b2 01 00
        E 12 b2 01 00
        E 12 b2 01 00
        E 12 b2 01 00
        E 12 b2 01 00
        E 12 b2 01 00
        E 12 b2 01 00
        E 12 b2 01 00
        E 12 b2 01 00
        E 12 b2 01 01
        E 12 b2 01 01
        E 12 b2 01 02
        E 12 b2 01 02
        E 12 b2 01 02
        E 12 b2 01 03
        E 12 b2 01 04
        E 12 b2 01 04
        E 12 b2 01 05
        E 12 b2 01 06
        E 12 b2 01 07
        E 12 b2 01 08
        E 12 b2 01 09
        E 12 b2 01 0a
        E 12 b2 01 0b
        E 12 b2 01 0c
        E 12 b2 01 0d
        E 12 b2 01 0e
        E 12 b2 01 0f
        E 12 b2 01 10
        E 12 b2 01 12
        E 12 b2 01 13
        E 12 b2 01 14
        E 12 b2 01 15
        E 12 b2 01 16
        E 12 b2 01 18
        E 12 b2 01 19
        E 7 b2 01 2c
        E 7 b2 01 2e
        E 7 b2 01 31
        E 7 b2 01 33
        E 7 b2 01 35
        E 7 b2 01 37
        E 7 b2 01 39
        E 7 b2 01 3b
        E 7 b2 01 3d
        E 7 b2 01 3f
        E 7 b2 01 41
        E 7 b2 01 43
        E 7 b2 01 45
        E 7 b2 01 47
        E 7 b2 01 48
        E 7 b2 01 4a
        E 7 b2 01 4c
        E 7 b2 01 4d
        E 7 b2 01 4f
        E 7 b2 01 50
        E 7 b2 01 51
        E 7 b2 01 52
        E 7 b2 01 54
        E 7 b2 01 54
        E 7 b2 01 55
        E 7 b2 01 56
        E 7 b2 01 56
        E 7 b2 01 57
        E 7 b2 01 58
        E 7 b2 01 58
        E 7 b2 01 58
        E 7 b2 01 58
        E 7 b2 01 58
        E 7 b2 01 58
        E 7 b2 01 58
        E 7 b2 01 58
        E 7 b2 01 58
        E 7 b2 01 57
        E 7 b2 01 56
        E 7 b2 01 56
        E 7 b2 01 55
        E 7 b2 01 54
        E 7 b2 01 53
        E 7 b2 01 51
        E 7 b2 01 51
        E 7 b2 01 4f
        E 7 b2 01 4e
        E 7 b2 01 4d
        E 7 b2 01 4b
        E 7 b2 01 49
        E 7 b2 01 48
        E 7 b2 01 46
        E 7 b2 01 44
        E 7 b2 01 42
        E 7 b2 01 40
        E 7 b2 01 3e
        E 7 b2 01 3c
        E 7 b2 01 3a
        E 7 b2 01 38
        E 7 b2 01 36
        E 7 b2 01 33
        E 7 b2 01 31
        E 7 b2 01 2f
        E 7 b2 01 2d
        E 7 b2 01 2b
        E 7 b2 01 29
        E 7 b2 01 27
        E 7 b2 01 25
        E 7 b2 01 22
        E 7 b2 01 20
        E 7 b2 01 1e
        E 7 b2 01 1c
        E 7 b2 01 1a
        E 7 b2 01 18
        E 7 b2 01 16
        E 7 b2 01 14
        E 7 b2 01 12
        E 7 b2 01 10
        E 7 b2 01 0f
        E 7 b2 01 0d
        E 7 b2 01 0b
        E 7 b2 01 0a
        E 7 b2 01 09
        E 7 b2 01 07
        E 7 b2 01 07
        E 7 b2 01 05
        E 7 b2 01 04
        E 7 b2 01 03
        E 7 b2 01 02
        E 7 b2 01 02
        E 7 b2 01 01
        E 7 b2 01 00
        E 7 b2 01 00
        E 7 b2 01 00
        E 7 b2 01 00
        E 7 b2 01 00
        E 7 b2 01 00
        E 7 b2 01 00
        E 7 b2 01 00
        E 7 b2 01 00
        E 7 b2 01 01
        E 7 b2 01 02
        E 7 b2 01 02
        E 7 b2 01 03
        E 7 b2 01 04
        E 7 b2 01 04
        E 7 b2 01 06
        E 7 b2 01 07
        E 7 b2 01 08
        E 7 b2 01 09
        E 7 b2 01 0b
        E 7 b2 01 0c
        E 7 b2 01 0e
        E 7 b2 01 10
        E 7 b2 01 11
        E 7 b2 01 13
        E 7 b2 01 15
        E 7 b2 01 17
        E 7 b2 01 19
        E 7 b2 01 1b
        E 7 b2 01 1d
        E 7 b2 01 1f
        E 7 b2 01 21
        E 7 b2 01 23
        E 7 b2 01 25
        E 7 b2 01 27
        E 7 b2 01 2a
        E 7 b2 01 2c
        E 7 b2 01 20
        E 7 b2 01 21
        E 7 b2 01 23
        E 7 b2 01 24
        E 7 b2 01 26
        E 7 b2 01 27
        E 7 b2 01 29
        E 7 b2 01 2a
        E 7 b2 01 2c
        E 7 b2 01 2d
        E 7 b2 01 2f
        E 7 b2 01 30
        E 7 b2 01 31
        E 7 b2 01 33
        E 7 b2 01 34
        E 7 b2 01 35
        E 7 b2 01 36
        E 7 b2 01 37
        E 7 b2 01 38
        E 7 b2 01 39
        E 7 b2 01 3a
        E 7 b2 01 3b
        E 7 b2 01 3c
        E 7 b2 01 3c
        E 7 b2 01 3d
        E 7 b2 01 3d
        E 7 b2 01 3e
        E 7 b2 01 3e
        E 7 b2 01 3f
        E 7 b2 01 3f
        E 7 b2 01 3f
        E 7 b2 01 3f
        E 7 b2 01 3f
        E 7 b2 01 3f
        E 7 b2 01 3f
        E 7 b2 01 3f
        E 7 b2 01 3f
        E 7 b2 01 3e
        E 7 b2 01 3e
        E 7 b2 01 3d
        E 7 b2 01 3d
        E 7 b2 01 3c
        E 7 b2 01 3b
        E 7 b2 01 3a
        E 7 b2 01 3a
        E 7 b2 01 39
        E 7 b2 01 38
        E 7 b2 01 37
        E 7 b2 01 36
        E 7 b2 01 34
        E 7 b2 01 33
        E 7 b2 01 32
        E 7 b2 01 31
        E 7 b2 01 2f
        E 7 b2 01 2e
        E 7 b2 01 2c
        E 7 b2 01 2b
        E 7 b2 01 2a
        E 7 b2 01 28
        E 7 b2 01 27
        E 7 b2 01 25
        E 7 b2 01 23
        E 7 b2 01 22
        E 7 b2 01 20
        E 7 b2 01 1f
        E 7 b2 01 1d
        E 7 b2 01 1c
        E 7 b2 01 1a
        E 7 b2 01 18
        E 7 b2 01 17
        E 7 b2 01 15
        E 7 b2 01 14
        E 7 b2 01 13
        E 7 b2 01 11
        E 7 b2 01 10
        E 7 b2 01 0e
        E 7 b2 01 0d
        E 7 b2 01 0c
        E 7 b2 01 0b
        E 7 b2 01 09
        E 7 b2 01 08
        E 7 b2 01 07
        E 7 b2 01 06
        E 7 b2 01 05
        E 7 b2 01 05
        E 7 b2 01 04
        E 7 b2 01 03
        E 7 b2 01 02
        E 7 b2 01 02
        E 7 b2 01 01
        E 7 b2 01 01
        E 7 b2 01 00
        E 7 b2 01 00
        E 7 b2 01 00
        E 7 b2 01 00
        E 7 b2 01 00
        E 7 b2 01 00
        E 7 b2 01 00
        E 7 b2 01 00
        E 7 b2 01 00
        E 7 b2 01 01
        E 7 b2 01 01
        E 7 b2 01 02
        E 7 b2 01 02
        E 7 b2 01 03
        E 7 b2 01 03
        E 7 b2 01 04
        E 7 b2 01 05
        E 7 b2 01 06
        E 7 b2 01 07
        E 7 b2 01 08
        E 7 b2 01 09
        E 7 b2 01 0a
        E 7 b2 01 0b
        E 7 b2 01 0c
        E 7 b2 01 0e
        E 7 b2 01 0f
        E 7 b2 01 10
        E 7 b2 01 12
        E 7 b2 01 13
        E 7 b2 01 15
        E 7 b2 01 16
        E 7 b2 01 18
        E 7 b2 01 19
        E 7 b2 01 1b
        E 7 b2 01 1c
        E 7 b2 01 1e
        E 7 b2 01 20
        E 9 b2 01 20
        E 9 b2 01 21
        E 9 b2 01 23
        E 9 b2 01 24
        E 9 b2 01 26
        E 9 b2 01 27
        E 9 b2 01 29
        E 9 b2 01 2a
        E 9 b2 01 2c
        E 9 b2 01 2d
        E 9 b2 01 2f
        E 9 b2 01 30
        E 9 b2 01 31
        E 9 b2 01 33
        E 9 b2 01 34
        E 9 b2 01 35
        E 9 b2 01 36
        E 9 b2 01 37
        E 9 b2 01 38
        E 9 b2 01 39
        E 9 b2 01 3a
        E 9 b2 01 3b
        E 9 b2 01 3c
        E 9 b2 01 3c
        E 9 b2 01 3d
        E 9 b2 01 3d
        E 9 b2 01 3e
        E 9 b2 01 3e
        E 9 b2 01 3f
        E 9 b2 01 3f
        E 9 b2 01 3f
        E 9 b2 01 3f
        E 9 b2 01 3f
        E 9 b2 01 3f
        E 9 b2 01 3f
        E 9 b2 01 3f
        E 9 b2 01 3f
        E 9 b2 01 3e
        E 9 b2 01 3e
        E 9 b2 01 3d
        E 9 b2 01 3d
        E 9 b2 01 3c
        E 9 b2 01 3b
        E 9 b2 01 3a
        E 9 b2 01 3a
        E 9 b2 01 39
        E 9 b2 01 38
        E 9 b2 01 37
        E 9 b2 01 36
        E 9 b2 01 34
        E 9 b2 01 33
        E 9 b2 01 32
        E 9 b2 01 31
        E 9 b2 01 2f
        E 9 b2 01 2e
        E 9 b2 01 2c
        E 9 b2 01 2b
        E 9 b2 01 2a
        E 9 b2 01 28
        E 9 b2 01 27
        E 9 b2 01 25
        E 9 b2 01 23
        E 9 b2 01 22
        E 9 b2 01 20
        E 9 b2 01 1f
        E 9 b2 01 1d
        E 9 b2 01 1c
        E 9 b2 01 1a
        E 9 b2 01 18
        E 9 b2 01 17
        E 9 b2 01 15
        E 9 b2 01 14
        E 9 b2 01 13
        E 9 b2 01 11
        E 9 b2 01 10
        E 9 b2 01 0e
        E 9 b2 01 0d
        E 9 b2 01 0c
        E 9 b2 01 0b
        E 9 b2 01 09
        E 9 b2 01 08
        E 9 b2 01 07
        E 9 b2 01 06
        E 9 b2 01 05
        E 9 b2 01 05
        E 9 b2 01 04
        E 9 b2 01 03
        E 9 b2 01 02
        E 9 b2 01 02
        E 9 b2 01 01
        E 9 b2 01 01
        E 9 b2 01 00
        E 9 b2 01 00
        E 9 b2 01 00
        E 9 b2 01 00
        E 9 b2 01 00
        E 9 b2 01 00
        E 9 b2 01 00
        E 9 b2 01 00
        E 9 b2 01 00
        E 9 b2 01 01
        E 9 b2 01 01
        E 9 b2 01 02
        E 9 b2 01 02
        E 9 b2 01 03
        E 9 b2 01 03
        E 9 b2 01 04
        E 9 b2 01 05
        E 9 b2 01 06
        E 9 b2 01 07
        E 9 b2 01 08
        E 9 b2 01 09
        E 9 b2 01 0a
        E 9 b2 01 0b
        E 9 b2 01 0c
        E 9 b2 01 0e
        E 9 b2 01 0f
        E 9 b2 01 10
        E 9 b2 01 12
        E 9 b2 01 13
        E 9 b2 01 15
        E 9 b2 01 16
        E 9 b2 01 18
        E 9 b2 01 19
        E 9 b2 01 1b
        E 9 b2 01 1c
        E 9 b2 01 1e
        E 9 b2 01 20
        E 11 b2 01 40
        E 11 b2 01 43
        E 11 b2 01 46
        E 11 b2 01 49
        E 11 b2 01 4c
        E 11 b2 01 4f
        E 11 b2 01 52
        E 11 b2 01 55
        E 11 b2 01 58
        E 11 b2 01 5b
        E 11 b2 01 5e
        E 11 b2 01 60
        E 11 b2 01 63
        E 11 b2 01 66
        E 11 b2 01 68
        E 11 b2 01 6a
        E 11 b2 01 6d
        E 11 b2 01 6f
        E 11 b2 01 71
        E 11 b2 01 73
        E 11 b2 01 75
        E 11 b2 01 76
        E 11 b2 01 78
        E 11 b2 01 79
        E 11 b2 01 7a
        E 11 b2 01 7b
        E 11 b2 01 7c
        E 11 b2 01 7d
        E 11 b2 01 7e
        E 11 b2 01 7e
        E 11 b2 01 7f
        E 11 b2 01 7f
        E 11 b2 01 7f
        E 11 b2 01 7f
        E 11 b2 01 7f
        E 11 b2 01 7e
        E 11 b2 01 7e
        E 11 b2 01 7d
        E 11 b2 01 7c
        E 11 b2 01 7b
        E 11 b2 01 7a
        E 11 b2 01 78
        E 11 b2 01 77
        E 11 b2 01 75
        E 11 b2 01 74
        E 11 b2 01 72
        E 11 b2 01 70
        E 11 b2 01 6e
        E 11 b2 01 6c
        E 11 b2 01 69
        E 11 b2 01 67
        E 11 b2 01 64
        E 11 b2 01 62
        E 11 b2 01 5f
        E 11 b2 01 5c
        E 11 b2 01 59
        E 11 b2 01 57
        E 11 b2 01 54
        E 11 b2 01 51
        E 11 b2 01 4e
        E 11 b2 01 4a
        E 11 b2 01 47
        E 11 b2 01 44
        E 11 b2 01 41
        E 11 b2 01 3e
        E 11 b2 01 3b
        E 11 b2 01 38
        E 11 b2 01 35
        E 11 b2 01 31
        E 11 b2 01 2e
        E 11 b2 01 2b
        E 11 b2 01 28
        E 11 b2 01 26
        E 11 b2 01 23
        E 11 b2 01 20
        E 11 b2 01 1d
        E 11 b2 01 1b
        E 11 b2 01 18
        E 11 b2 01 16
        E 11 b2 01 13
        E 11 b2 01 11
        E 11 b2 01 0f
        E 11 b2 01 0d
        E 11 b2 01 0b
        E 11 b2 01 0a
        E 11 b2 01 08
        E 11 b2 01 07
        E 11 b2 01 05
        E 11 b2 01 04
        E 11 b2 01 03
        E 11 b2 01 02
        E 11 b2 01 01
        E 11 b2 01 01
        E 11 b2 01 00
        E 11 b2 01 00
        E 11 b2 01 00
        E 11 b2 01 00
        E 11 b2 01 00
        E 11 b2 01 01
        E 11 b2 01 01
        E 11 b2 01 02
        E 11 b2 01 03
        E 11 b2 01 04
        E 11 b2 01 05
        E 11 b2 01 06
        E 11 b2 01 07
        E 11 b2 01 09
        E 11 b2 01 0a
        E 11 b2 01 0c
        E 11 b2 01 0e
        E 11 b2 01 10
        E 11 b2 01 12
        E 11 b2 01 15
        E 11 b2 01 17
        E 11 b2 01 19
        E 11 b2 01 1c
        E 11 b2 01 1f
        E 11 b2 01 21
        E 11 b2 01 24
        E 11 b2 01 27
        E 11 b2 01 2a
        E 11 b2 01 2d
        E 11 b2 01 30
        E 11 b2 01 33
        E 11 b2 01 36
        E 11 b2 01 39
        E 11 b2 01 3c
        E 11 b2 01 40
        E 1 b2 01 39
        E 1 b2 01 3c
        E 1 b2 01 3f
        E 1 b2 01 41
        E 1 b2 01 44
        E 1 b2 01 47
        E 1 b2 01 49
        E 1 b2 01 4c
        E 1 b2 01 4f
        E 1 b2 01 51
        E 1 b2 01 54
        E 1 b2 01 56
        E 1 b2 01 59
        E 1 b2 01 5b
        E 1 b2 01 5d
        E 1 b2 01 5f
        E 1 b2 01 62
        E 1 b2 01 63
        E 1 b2 01 65
        E 1 b2 01 67
        E 1 b2 01 69
        E 1 b2 01 6a
        E 1 b2 01 6c
        E 1 b2 01 6c
        E 1 b2 01 6d
        E 1 b2 01 6e
        E 1 b2 01 6f
        E 1 b2 01 70
        E 1 b2 01 71
        E 1 b2 01 71
        E 1 b2 01 72
        E 1 b2 01 72
        E 1 b2 01 72
        E 1 b2 01 72
        E 1 b2 01 72
        E 1 b2 01 71
        E 1 b2 01 71
        E 1 b2 01 70
        E 1 b2 01 6f
        E 1 b2 01 6e
        E 1 b2 01 6d
        E 1 b2 01 6c
        E 1 b2 01 6b
        E 1 b2 01 69
        E 1 b2 01 68
        E 1 b2 01 66
        E 1 b2 01 64
        E 1 b2 01 63
        E 1 b2 01 61
        E 1 b2 01 5e
        E 1 b2 01 5c
        E 1 b2 01 5a
        E 1 b2 01 58
        E 1 b2 01 55
        E 1 b2 01 52
        E 1 b2 01 50
        E 1 b2 01 4e
        E 1 b2 01 4b
        E 1 b2 01 48
        E 1 b2 01 46
        E 1 b2 01 42
        E 1 b2 01 3f
        E 1 b2 01 3d
        E 1 b2 01 3a
        E 1 b2 01 37
        E 1 b2 01 35
        E 1 b2 01 32
        E 1 b2 01 2f
        E 1 b2 01 2c
        E 1 b2 01 29
        E 1 b2 01 26
        E 1 b2 01 24
        E 1 b2 01 22
        E 1 b2 01 1f
        E 1 b2 01 1c
        E 1 b2 01 1a
        E 1 b2 01 18
        E 1 b2 01 15
        E 1 b2 01 13
        E 1 b2 01 11
        E 1 b2 01 0f
        E 1 b2 01 0d
        E 1 b2 01 0b
        E 1 b2 01 09
        E 1 b2 01 09
        E 1 b2 01 07
        E 1 b2 01 06
        E 1 b2 01 04
        E 1 b2 01 03
        E 1 b2 01 02
        E 1 b2 01 01
        E 1 b2 01 00
        E 1 b2 01 00
        E 1 b2 01 00
        E 1 b2 01 00
        E 1 b2 01 00
        E 1 b2 01 00
        E 1 b2 01 00
        E 1 b2 01 00
        E 1 b2 01 00
        E 1 b2 01 01
        E 1 b2 01 02
        E 1 b2 01 03
        E 1 b2 01 04
        E 1 b2 01 05
        E 1 b2 01 06
        E 1 b2 01 08
        E 1 b2 01 09
        E 1 b2 01 0a
        E 1 b2 01 0c
        E 1 b2 01 0e
        E 1 b2 01 10
        E 1 b2 01 12
        E 1 b2 01 14
        E 1 b2 01 16
        E 1 b2 01 19
        E 1 b2 01 1b
        E 1 b2 01 1d
        E 1 b2 01 20
        E 1 b2 01 23
        E 1 b2 01 25
        E 1 b2 01 28
        E 1 b2 01 2b
        E 1 b2 01 2d
        E 1 b2 01 30
        E 1 b2 01 33
        E 1 b2 01 36
        E 1 b2 01 39
        E 5 b2 01 40
        E 5 b2 01 43
        E 5 b2 01 46
        E 5 b2 01 49
        E 5 b2 01 4c
        E 5 b2 01 4f
        E 5 b2 01 52
        E 5 b2 01 55
        E 5 b2 01 58
        E 5 b2 01 5b
        E 5 b2 01 5e
        E 5 b2 01 60
        E 5 b2 01 63
        E 5 b2 01 66
        E 5 b2 01 68
        E 5 b2 01 6a
        E 5 b2 01 6d
        E 5 b2 01 6f
        E 5 b2 01 71
        E 5 b2 01 73
        E 5 b2 01 75
        E 5 b2 01 76
        E 5 b2 01 78
        E 5 b2 01 79
        E 5 b2 01 7a
        E 5 b2 01 7b
        E 5 b2 01 7c
        E 5 b2 01 7d
        E 5 b2 01 7e
        E 5 b2 01 7e
        E 5 b2 01 7f
        E 5 b2 01 7f
        E 5 b2 01 7f
        E 5 b2 01 7f
        E 5 b2 01 7f
        E 5 b2 01 7e
        E 5 b2 01 7e
        E 5 b2 01 7d
        E 5 b2 01 7c
        E 5 b2 01 7b
        E 5 b2 01 7a
        E 5 b2 01 78
        E 5 b2 01 77
        E 5 b2 01 75
        E 5 b2 01 74
        E 5 b2 01 72
        E 5 b2 01 70
        E 5 b2 01 6e
        E 5 b2 01 6c
        E 5 b2 01 69
        E 5 b2 01 67
        E 5 b2 01 64
        E 5 b2 01 62
        E 5 b2 01 5f
        E 5 b2 01 5c
        E 5 b2 01 59
        E 5 b2 01 57
        E 5 b2 01 54
        E 5 b2 01 51
        E 5 b2 01 4e
        E 5 b2 01 4a
        E 5 b2 01 47
        E 5 b2 01 44
        E 5 b2 01 41
        E 5 b2 01 3e
        E 5 b2 01 3b
        E 5 b2 01 38
        E 5 b2 01 35
        E 5 b2 01 31
        E 5 b2 01 2e
        E 5 b2 01 2b
        E 5 b2 01 28
        E 5 b2 01 26
        E 5 b2 01 23
        E 5 b2 01 20
        E 5 b2 01 1d
        E 5 b2 01 1b
        E 5 b2 01 18
        E 5 b2 01 16
        E 5 b2 01 13
        E 5 b2 01 11
        E 5 b2 01 0f
        E 5 b2 01 0d
        E 5 b2 01 0b
        E 5 b2 01 0a
        E 5 b2 01 08
        E 5 b2 01 07
        E 5 b2 01 05
        E 5 b2 01 04
        E 5 b2 01 03
        E 5 b2 01 02
        E 5 b2 01 01
        E 5 b2 01 01
        E 5 b2 01 00
        E 5 b2 01 00
        E 5 b2 01 00
        E 5 b2 01 00
        E 5 b2 01 00
        E 5 b2 01 01
        E 5 b2 01 01
        E 5 b2 01 02
        E 5 b2 01 03
        E 5 b2 01 04
        E 5 b2 01 05
        E 5 b2 01 06
        E 5 b2 01 07
        E 5 b2 01 09
        E 5 b2 01 0a
        E 5 b2 01 0c
        E 5 b2 01 0e
        E 5 b2 01 10
        E 5 b2 01 12
        E 5 b2 01 15
        E 5 b2 01 17
        E 5 b2 01 19
        E 5 b2 01 1c
        E 5 b2 01 1f
        E 5 b2 01 21
        E 5 b2 01 24
        E 5 b2 01 27
        E 5 b2 01 2a
        E 5 b2 01 2d
        E 5 b2 01 30
        E 5 b2 01 33
        E 5 b2 01 36
        E 5 b2 01 39
        E 5 b2 01 3c
        E 5 b2 01 40
        E 9 b2 01 39
        E 9 b2 01 3c
        E 9 b2 01 3f
        E 9 b2 01 41
        E 9 b2 01 44
        E 9 b2 01 47
        E 9 b2 01 49
        E 9 b2 01 4c
        E 9 b2 01 4f
        E 9 b2 01 51
        E 9 b2 01 54
        E 9 b2 01 56
        E 9 b2 01 59
        E 9 b2 01 5b
        E 9 b2 01 5d
        E 9 b2 01 5f
        E 9 b2 01 62
        E 9 b2 01 63
        E 9 b2 01 65
        E 9 b2 01 67
        E 9 b2 01 69
        E 9 b2 01 6a
        E 9 b2 01 6c
        E 9 b2 01 6c
        E 9 b2 01 6d
        E 9 b2 01 6e
        E 9 b2 01 6f
        E 9 b2 01 70
        E 9 b2 01 71
        E 9 b2 01 71
        E 9 b2 01 72
        E 9 b2 01 72
        E 9 b2 01 72
        E 9 b2 01 72
        E 9 b2 01 72
        E 9 b2 01 71
        E 9 b2 01 71
        E 9 b2 01 70
        E 9 b2 01 6f
        E 9 b2 01 6e
        E 9 b2 01 6d
        E 9 b2 01 6c
        E 9 b2 01 6b
        E 9 b2 01 69
        E 9 b2 01 68
        E 9 b2 01 66
        E 9 b2 01 64
        E 9 b2 01 63
        E 9 b2 01 61
        E 9 b2 01 5e
        E 9 b2 01 5c
        E 9 b2 01 5a
        E 9 b2 01 58
        E 9 b2 01 55
        E 9 b2 01 52
        E 9 b2 01 50
        E 9 b2 01 4e
        E 9 b2 01 4b
        E 9 b2 01 48
        E 9 b2 01 46
        E 9 b2 01 42
        E 9 b2 01 3f
        E 9 b2 01 3d
        E 9 b2 01 3a
        E 9 b2 01 37
        E 9 b2 01 35
        E 9 b2 01 32
        E 9 b2 01 2f
        E 9 b2 01 2c
        E 9 b2 01 29
        E 9 b2 01 26
        E 9 b2 01 24
        E 9 b2 01 22
        E 9 b2 01 1f
        E 9 b2 01 1c
        E 9 b2 01 1a
        E 9 b2 01 18
        E 9 b2 01 15
        E 9 b2 01 13
        E 9 b2 01 11
        E 9 b2 01 0f
        E 9 b2 01 0d
        E 9 b2 01 0b
        E 9 b2 01 09
        E 9 b2 01 09
        E 9 b2 01 07
        E 9 b2 01 06
        E 9 b2 01 04
        E 9 b2 01 03
        E 9 b2 01 02
        E 9 b2 01 01
        E 9 b2 01 00
        E 9 b2 01 00
        E 9 b2 01 00
        E 9 b2 01 00
        E 9 b2 01 00
        E 9 b2 01 00
        E 9 b2 01 00
        E 9 b2 01 00
        E 9 b2 01 00
        E 9 b2 01 01
        E 9 b2 01 02
        E 9 b2 01 03
        E 9 b2 01 04
        E 9 b2 01 05
        E 9 b2 01 06
        E 9 b2 01 08
        E 9 b2 01 09
        E 9 b2 01 0a
        E 9 b2 01 0c
        E 9 b2 01 0e
        E 9 b2 01 10
        E 9 b2 01 12
        E 9 b2 01 14
        E 9 b2 01 16
        E 9 b2 01 19
        E 9 b2 01 1b
        E 9 b2 01 1d
        E 9 b2 01 20
        E 9 b2 01 23
        E 9 b2 01 25
        E 9 b2 01 28
        E 9 b2 01 2b
        E 9 b2 01 2d
        E 9 b2 01 30
        E 9 b2 01 33
        E 9 b2 01 36
        E 9 b2 01 39
        E 7 b2 01 20
        E 7 b2 01 21
        E 7 b2 01 23
        E 7 b2 01 24
        E 7 b2 01 26
        E 7 b2 01 27
        E 7 b2 01 29
        E 7 b2 01 2a
        E 7 b2 01 2c
        E 7 b2 01 2d
        E 7 b2 01 2f
        E 7 b2 01 30
        E 7 b2 01 31
        E 7 b2 01 33
        E 7 b2 01 34
        E 7 b2 01 35
        E 7 b2 01 36
        E 7 b2 01 37
        E 7 b2 01 38
        E 7 b2 01 39
        E 7 b2 01 3a
        E 7 b2 01 3b
        E 7 b2 01 3c
        E 7 b2 01 3c
        E 7 b2 01 3d
        E 7 b2 01 3d
        E 7 b2 01 3e
        E 7 b2 01 3e
        E 7 b2 01 3f
        E 7 b2 01 3f
        E 7 b2 01 3f
        E 7 b2 01 3f
        E 7 b2 01 3f
        E 7 b2 01 3f
        E 7 b2 01 3f
        E 7 b2 01 3f
        E 7 b2 01 3f
        E 7 b2 01 3e
        E 7 b2 01 3e
        E 7 b2 01 3d
        E 7 b2 01 3d
        E 7 b2 01 3c
        E 7 b2 01 3b
        E 7 b2 01 3a
        E 7 b2 01 3a
        E 7 b2 01 39
        E 7 b2 01 38
        E 7 b2 01 37
        E 7 b2 01 36
        E 7 b2 01 34
        E 7 b2 01 33
        E 7 b2 01 32
        E 7 b2 01 31
        E 7 b2 01 2f
        E 7 b2 01 2e
        E 7 b2 01 2c
        E 7 b2 01 2b
        E 7 b2 01 2a
        E 7 b2 01 28
        E 7 b2 01 27
        E 7 b2 01 25
        E 7 b2 01 23
        E 7 b2 01 22
        E 7 b2 01 20
        E 7 b2 01 1f
        E 7 b2 01 1d
        E 7 b2 01 1c
        E 7 b2 01 1a
        E 7 b2 01 18
        E 7 b2 01 17
        E 7 b2 01 15
        E 7 b2 01 14
        E 7 b2 01 13
        E 7 b2 01 11
        E 7 b2 01 10
        E 7 b2 01 0e
        E 7 b2 01 0d
        E 7 b2 01 0c
        E 7 b2 01 0b
        E 7 b2 01 09
        E 7 b2 01 08
        E 7 b2 01 07
        E 7 b2 01 06
        E 7 b2 01 05
        E 7 b2 01 05
        E 7 b2 01 04
        E 7 b2 01 03
        E 7 b2 01 02
        E 7 b2 01 02
        E 7 b2 01 01
        E 7 b2 01 01
        E 7 b2 01 00
        E 7 b2 01 00
        E 7 b2 01 00
        E 7 b2 01 00
        E 7 b2 01 00
        E 7 b2 01 00
        E 7 b2 01 00
        E 7 b2 01 00
        E 7 b2 01 00
        E 7 b2 01 01
        E 7 b2 01 01
        E 7 b2 01 02
        E 7 b2 01 02
        E 7 b2 01 03
        E 7 b2 01 03
        E 7 b2 01 04
        E 7 b2 01 05
        E 7 b2 01 06
        E 7 b2 01 07
        E 7 b2 01 08
        E 7 b2 01 09
        E 7 b2 01 0a
        E 7 b2 01 0b
        E 7 b2 01 0c
        E 7 b2 01 0e
        E 7 b2 01 0f
        E 7 b2 01 10
        E 7 b2 01 12
        E 7 b2 01 13
        E 7 b2 01 15
        E 7 b2 01 16
        E 7 b2 01 18
        E 7 b2 01 19
        E 7 b2 01 1b
        E 7 b2 01 1c
        E 7 b2 01 1e
        E 7 b2 01 20
        E 7 b2 01 20
        E 7 b2 01 21
        E 7 b2 01 23
        E 7 b2 01 24
        E 7 b2 01 26
        E 7 b2 01 27
        E 7 b2 01 29
        E 7 b2 01 2a
        E 7 b2 01 2c
        E 7 b2 01 2d
        E 7 b2 01 2f
        E 7 b2 01 30
        E 7 b2 01 31
        E 7 b2 01 33
        E 7 b2 01 34
        E 7 b2 01 35
        E 7 b2 01 36
        E 7 b2 01 37
        E 7 b2 01 38
        E 7 b2 01 39
        E 7 b2 01 3a
        E 7 b2 01 3b
        E 7 b2 01 3c
        E 7 b2 01 3c
        E 7 b2 01 3d
        E 7 b2 01 3d
        E 7 b2 01 3e
        E 7 b2 01 3e
        E 7 b2 01 3f
        E 7 b2 01 3f
        E 7 b2 01 3f
        E 7 b2 01 3f
        E 7 b2 01 3f
        E 7 b2 01 3f
        E 7 b2 01 3f
        E 7 b2 01 3f
        E 7 b2 01 3f
        E 7 b2 01 3e
        E 7 b2 01 3e
        E 7 b2 01 3d
        E 7 b2 01 3d
        E 7 b2 01 3c
        E 7 b2 01 3b
        E 7 b2 01 3a
        E 7 b2 01 3a
        E 7 b2 01 39
        E 7 b2 01 38
        E 7 b2 01 37
        E 7 b2 01 36
        E 7 b2 01 34
        E 7 b2 01 33
        E 7 b2 01 32
        E 7 b2 01 31
        E 7 b2 01 2f
        E 7 b2 01 2e
        E 7 b2 01 2c
        E 7 b2 01 2b
        E 7 b2 01 2a
        E 7 b2 01 28
        E 7 b2 01 27
        E 7 b2 01 25
        E 7 b2 01 23
        E 7 b2 01 22
        E 7 b2 01 20
        E 7 b2 01 1f
        E 7 b2 01 1d
        E 7 b2 01 1c
        E 7 b2 01 1a
        E 7 b2 01 18
        E 7 b2 01 17
        E 7 b2 01 15
        E 7 b2 01 14
        E 7 b2 01 13
        E 7 b2 01 11
        E 7 b2 01 10
        E 7 b2 01 0e
        E 7 b2 01 0d
        E 7 b2 01 0c
        E 7 b2 01 0b
        E 7 b2 01 09
        E 7 b2 01 08
        E 7 b2 01 07
        E 7 b2 01 06
        E 7 b2 01 05
        E 7 b2 01 05
        E 7 b2 01 04
        E 7 b2 01 03
        E 7 b2 01 02
        E 7 b2 01 02
        E 7 b2 01 01
        E 7 b2 01 01
        E 7 b2 01 00
        E 7 b2 01 00
        E 7 b2 01 00
        E 7 b2 01 00
        E 7 b2 01 00
        E 7 b2 01 00
        E 7 b2 01 00
        E 7 b2 01 00
        E 7 b2 01 00
        E 7 b2 01 01
        E 7 b2 01 01
        E 7 b2 01 02
        E 7 b2 01 02
        E 7 b2 01 03
        E 7 b2 01 03
        E 7 b2 01 04
        E 7 b2 01 05
        E 7 b2 01 06
        E 7 b2 01 07
        E 7 b2 01 08
        E 7 b2 01 09
        E 7 b2 01 0a
        E 7 b2 01 0b
        E 7 b2 01 0c
        E 7 b2 01 0e
        E 7 b2 01 0f
        E 7 b2 01 10
        E 7 b2 01 12
        E 7 b2 01 13
        E 7 b2 01 15
        E 7 b2 01 16
        E 7 b2 01 18
        E 7 b2 01 19
        E 7 b2 01 1b
        E 7 b2 01 1c
        E 7 b2 01 1e
        E 7 b2 01 20
        E 14 b2 01 2c
        E 14 b2 01 2e
        E 14 b2 01 31
        E 14 b2 01 33
        E 14 b2 01 35
        E 14 b2 01 37
        E 14 b2 01 39
        E 14 b2 01 3b
        E 14 b2 01 3d
        E 14 b2 01 3f
        E 14 b2 01 41
        E 14 b2 01 43
        E 14 b2 01 45
        E 14 b2 01 47
        E 14 b2 01 48
        E 14 b2 01 4a
        E 14 b2 01 4c
        E 14 b2 01 4d
        E 14 b2 01 4f
        E 14 b2 01 50
        E 14 b2 01 51
        E 14 b2 01 52
        E 14 b2 01 54
        E 14 b2 01 54
        E 14 b2 01 55
        E 14 b2 01 56
        E 14 b2 01 56
        E 14 b2 01 57
        E 14 b2 01 58
        E 14 b2 01 58
        E 14 b2 01 58
        E 14 b2 01 58
        E 14 b2 01 58
        E 14 b2 01 58
        E 14 b2 01 58
        E 14 b2 01 58
        E 14 b2 01 58
        E 14 b2 01 57
        E 14 b2 01 56
        E 14 b2 01 56
        E 14 b2 01 55
        E 14 b2 01 54
        E 14 b2 01 53
        E 14 b2 01 51
        E 14 b2 01 51
        E 14 b2 01 4f
        E 14 b2 01 4e
        E 14 b2 01 4d
        E 14 b2 01 4b
        E 14 b2 01 49
        E 14 b2 01 48
        E 14 b2 01 46
        E 14 b2 01 44
        E 14 b2 01 42
        E 14 b2 01 40
        E 14 b2 01 3e
        E 14 b2 01 3c
        E 14 b2 01 3a
        E 14 b2 01 38
        E 14 b2 01 36
        E 14 b2 01 33
        E 14 b2 01 31
        E 14 b2 01 2f
        E 14 b2 01 2d
        E 14 b2 01 2b
        E 14 b2 01 29
        E 14 b2 01 27
        E 14 b2 01 25
        E 14 b2 01 22
        E 14 b2 01 20
        E 14 b2 01 1e
        E 14 b2 01 1c
        E 14 b2 01 1a
        E 14 b2 01 18
        E 14 b2 01 16
        E 14 b2 01 14
        E 14 b2 01 12
        E 14 b2 01 10
        E 14 b2 01 0f
        E 14 b2 01 0d
        E 14 b2 01 0b
        E 14 b2 01 0a
        E 14 b2 01 09
        E 14 b2 01 07
        E 14 b2 01 07
        E 14 b2 01 05
        E 14 b2 01 04
        E 14 b2 01 03
        E 14 b2 01 02
        E 14 b2 01 02
        E 14 b2 01 01
        E 14 b2 01 00
        E 14 b2 01 00
        E 14 b2 01 00
        E 14 b2 01 00
        E 14 b2 01 00
        E 14 b2 01 00
        E 14 b2 01 00
        E 14 b2 01 00
        E 14 b2 01 00
        E 14 b2 01 01
        E 14 b2 01 02
        E 14 b2 01 02
        E 14 b2 01 03
        E 14 b2 01 04
        E 14 b2 01 04
        E 14 b2 01 06
        E 14 b2 01 07
        E 14 b2 01 08
        E 14 b2 01 09
        E 14 b2 01 0b
        E 14 b2 01 0c
        E 14 b2 01 0e
        E 14 b2 01 10
        E 14 b2 01 11
        E 14 b2 01 13
        E 14 b2 01 15
        E 14 b2 01 17
        E 14 b2 01 19
        E 14 b2 01 1b
        E 14 b2 01 1d
        E 14 b2 01 1f
        E 14 b2 01 21
        E 14 b2 01 23
        E 14 b2 01 25
        E 14 b2 01 27
        E 14 b2 01 2a
        E 14 b2 01 2c
        E 12 b2 01 33
        E 12 b2 01 35
        E 12 b2 01 37
        E 12 b2 01 3a
        E 12 b2 01 3c
        E 12 b2 01 3f
        E 12 b2 01 41
        E 12 b2 01 44
        E 12 b2 01 46
        E 12 b2 01 48
        E 12 b2 01 4b
        E 12 b2 01 4c
        E 12 b2 01 4f
        E 12 b2 01 51
        E 12 b2 01 53
        E 12 b2 01 54
        E 12 b2 01 57
        E 12 b2 01 58
        E 12 b2 01 5a
        E 12 b2 01 5b
        E 12 b2 01 5d
        E 12 b2 01 5e
        E 12 b2 01 5f
        E 12 b2 01 60
        E 12 b2 01 61
        E 12 b2 01 62
        E 12 b2 01 63
        E 12 b2 01 63
        E 12 b2 01 64
        E 12 b2 01 64
        E 12 b2 01 65
        E 12 b2 01 65
        E 12 b2 01 65
        E 12 b2 01 65
        E 12 b2 01 65
        E 12 b2 01 64
        E 12 b2 01 64
        E 12 b2 01 63
        E 12 b2 01 63
        E 12 b2 01 62
        E 12 b2 01 61
        E 12 b2 01 5f
        E 12 b2 01 5f
        E 12 b2 01 5d
        E 12 b2 01 5c
        E 12 b2 01 5b
        E 12 b2 01 59
        E 12 b2 01 57
        E 12 b2 01 56
        E 12 b2 01 54
        E 12 b2 01 52
        E 12 b2 01 50
        E 12 b2 01 4e
        E 12 b2 01 4c
        E 12 b2 01 49
        E 12 b2 01 47
        E 12 b2 01 45
        E 12 b2 01 43
        E 12 b2 01 40
        E 12 b2 01 3e
        E 12 b2 01 3b
        E 12 b2 01 38
        E 12 b2 01 36
        E 12 b2 01 33
        E 12 b2 01 31
        E 12 b2 01 2f
        E 12 b2 01 2c
        E 12 b2 01 2a
        E 12 b2 01 27
        E 12 b2 01 24
        E 12 b2 01 22
        E 12 b2 01 1f
        E 12 b2 01 1e
        E 12 b2 01 1b
        E 12 b2 01 19
        E 12 b2 01 17
        E 12 b2 01 15
        E 12 b2 01 13
        E 12 b2 01 11
        E 12 b2 01 0f
        E 12 b2 01 0d
        E 12 b2 01 0b
        E 12 b2 01 0a
        E 12 b2 01 08
        E 12 b2 01 07
        E 12 b2 01 06
        E 12 b2 01 05
        E 12 b2 01 03
        E 12 b2 01 03
        E 12 b2 01 02
        E 12 b2 01 01
        E 12 b2 01 00
        E 12 b2 01 00
        E 12 b2 01 00
        E 12 b2 01 00
        E 12 b2 01 00
        E 12 b2 01 00
        E 12 b2 01 00
        E 12 b2 01 00
        E 12 b2 01 00
        E 12 b2 01 01
        E 12 b2 01 02
        E 12 b2 01 03
        E 12 b2 01 03
        E 12 b2 01 04
        E 12 b2 01 05
        E 12 b2 01 07
        E 12 b2 01 07
        E 12 b2 01 09
        E 12 b2 01 0b
        E 12 b2 01 0c
        E 12 b2 01 0e
        E 12 b2 01 10
        E 12 b2 01 12
        E 12 b2 01 14
        E 12 b2 01 16
        E 12 b2 01 18
        E 12 b2 01 1a
        E 12 b2 01 1c
        E 12 b2 01 1f
        E 12 b2 01 21
        E 12 b2 01 24
        E 12 b2 01 26
        E 12 b2 01 28
        E 12 b2 01 2b
        E 12 b2 01 2d
        E 12 b2 01 2f
        E 12 b2 01 33
        E 14 b2 01 06
        E 14 b2 01 06
        E 14 b2 01 07
        E 14 b2 01 07
        E 14 b2 01 07
        E 14 b2 01 07
        E 14 b2 01 08
        E 14 b2 01 08
        E 14 b2 01 08
        E 14 b2 01 09
        E 14 b2 01 09
        E 14 b2 01 09
        E 14 b2 01 09
        E 14 b2 01 0a
        E 14 b2 01 0a
        E 14 b2 01 0a
        E 14 b2 01 0a
        E 14 b2 01 0b
        E 14 b2 01 0b
        E 14 b2 01 0b
        E 14 b2 01 0b
        E 14 b2 01 0b
        E 14 b2 01 0c
        E 14 b2 01 0c
        E 14 b2 01 0c
        E 14 b2 01 0c
        E 14 b2 01 0c
        E 14 b2 01 0c
        E 14 b2 01 0c
        E 14 b2 01 0c
        E 14 b2 01 0c
        E 14 b2 01 0c
        E 14 b2 01 0c
        E 14 b2 01 0c
        E 14 b2 01 0c
        E 14 b2 01 0c
        E 14 b2 01 0c
        E 14 b2 01 0c
        E 14 b2 01 0c
        E 14 b2 01 0c
        E 14 b2 01 0c
        E 14 b2 01 0c
        E 14 b2 01 0b
        E 14 b2 01 0b
        E 14 b2 01 0b
        E 14 b2 01 0b
        E 14 b2 01 0b
        E 14 b2 01 0b
        E 14 b2 01 0a
        E 14 b2 01 0a
        E 14 b2 01 0a
        E 14 b2 01 0a
        E 14 b2 01 09
        E 14 b2 01 09
        E 14 b2 01 09
        E 14 b2 01 08
        E 14 b2 01 08
        E 14 b2 01 08
        E 14 b2 01 08
        E 14 b2 01 07
        E 14 b2 01 07
        E 14 b2 01 07
        E 14 b2 01 06
        E 14 b2 01 06
        E 14 b2 01 06
        E 14 b2 01 05
        E 14 b2 01 05
        E 14 b2 01 05
        E 14 b2 01 04
        E 14 b2 01 04
        E 14 b2 01 04
        E 14 b2 01 04
        E 14 b2 01 03
        E 14 b2 01 03
        E 14 b2 01 03
        E 14 b2 01 02
        E 14 b2 01 02
        E 14 b2 01 02
        E 14 b2 01 02
        E 14 b2 01 01
        E 14 b2 01 01
        E 14 b2 01 01
        E 14 b2 01 01
        E 14 b2 01 01
        E 14 b2 01 01
        E 14 b2 01 00
        E 14 b2 01 00
        E 14 b2 01 00
        E 14 b2 01 00
        E 14 b2 01 00
        E 14 b2 01 00
        E 14 b2 01 00
        E 14 b2 01 00
        E 14 b2 01 00
        E 14 b2 01 00
        E 14 b2 01 00
        E 14 b2 01 00
        E 14 b2 01 00
        E 14 b2 01 00
        E 14 b2 01 00
        E 14 b2 01 00
        E 14 b2 01 00
        E 14 b2 01 00
        E 14 b2 01 00
        E 14 b2 01 00
        E 14 b2 01 00
        E 14 b2 01 00
        E 14 b2 01 01
        E 14 b2 01 01
        E 14 b2 01 01
        E 14 b2 01 01
        E 14 b2 01 01
        E 14 b2 01 02
        E 14 b2 01 02
        E 14 b2 01 02
        E 14 b2 01 02
        E 14 b2 01 03
        E 14 b2 01 03
        E 14 b2 01 03
        E 14 b2 01 03
        E 14 b2 01 04
        E 14 b2 01 04
        E 14 b2 01 04
        E 14 b2 01 05
        E 14 b2 01 05
        E 14 b2 01 05
        E 14 b2 01 06
        E 14 b2 01 06
        E 12 b2 01 19
        E 12 b2 01 1a
        E 12 b2 01 1c
        E 12 b2 01 1d
        E 12 b2 01 1e
        E 12 b2 01 1f
        E 12 b2 01 20
        E 12 b2 01 22
        E 12 b2 01 23
        E 12 b2 01 24
        E 12 b2 01 25
        E 12 b2 01 26
        E 12 b2 01 27
        E 12 b2 01 28
        E 12 b2 01 29
        E 12 b2 01 2a
        E 12 b2 01 2b
        E 12 b2 01 2c
        E 12 b2 01 2d
        E 12 b2 01 2e
        E 12 b2 01 2e
        E 12 b2 01 2f
        E 12 b2 01 30
        E 12 b2 01 30
        E 12 b2 01 30
        E 12 b2 01 31
        E 12 b2 01 31
        E 12 b2 01 32
        E 12 b2 01 32
        E 12 b2 01 32
        E 12 b2 01 32
        E 12 b2 01 32
        E 12 b2 01 32
        E 12 b2 01 32
        E 12 b2 01 32
        E 12 b2 01 32
        E 12 b2 01 32
        E 12 b2 01 32
        E 12 b2 01 31
        E 12 b2 01 31
        E 12 b2 01 30
        E 12 b2 01 30
        E 12 b2 01 2f
        E 12 b2 01 2e
        E 12 b2 01 2e
        E 12 b2 01 2d
        E 12 b2 01 2c
        E 12 b2 01 2c
        E 12 b2 01 2b
        E 12 b2 01 2a
        E 12 b2 01 29
        E 12 b2 01 28
        E 12 b2 01 27
        E 12 b2 01 26
        E 12 b2 01 24
        E 12 b2 01 23
        E 12 b2 01 22
        E 12 b2 01 21
        E 12 b2 01 20
        E 12 b2 01 1f
        E 12 b2 01 1d
        E 12 b2 01 1c
        E 12 b2 01 1b
        E 12 b2 01 1a
        E 12 b2 01 18
        E 12 b2 01 17
        E 12 b2 01 16
        E 12 b2 01 15
        E 12 b2 01 13
        E 12 b2 01 12
        E 12 b2 01 11
        E 12 b2 01 10
        E 12 b2 01 0f
        E 12 b2 01 0e
        E 12 b2 01 0c
        E 12 b2 01 0b
        E 12 b2 01 0a
        E 12 b2 01 09
        E 12 b2 01 08
        E 12 b2 01 07
        E 12 b2 01 06
        E 12 b2 01 06
        E 12 b2 01 05
        E 12 b2 01 04
        E 12 b2 01 04
        E 12 b2 01 03
        E 12 b2 01 02
        E 12 b2 01 02
        E 12 b2 01 01
        E 12 b2 01 01
        E 12 b2 01 00
        E 12 b2 01 00
        E 12 b2 01 00
        E 12 b2 01 00
        E 12 b2 01 00
        E 12 b2 01 00
        E 12 b2 01 00
        E 12 b2 01 00
        E 12 b2 01 00
        E 12 b2 01 00
        E 12 b2 01 00
        E 12 b2 01 01
        E 12 b2 01 01
        E 12 b2 01 02
        E 12 b2 01 02
        E 12 b2 01 02
        E 12 b2 01 03
        E 12 b2 01 04
        E 12 b2 01 04
        E 12 b2 01 05
        E 12 b2 01 06
        E 12 b2 01 07
        E 12 b2 01 08
        E 12 b2 01 09
        E 12 b2 01 0a
        E 12 b2 01 0b
        E 12 b2 01 0c
        E 12 b2 01 0d
        E 12 b2 01 0e
        E 12 b2 01 0f
        E 12 b2 01 10
        E 12 b2 01 12
        E 12 b2 01 13
        E 12 b2 01 14
        E 12 b2 01 15
        E 12 b2 01 16
        E 12 b2 01 18
        E 12 b2 01 19
        E 7 b2 01 2c
        E 7 b2 01 2e
        E 7 b2 01 31
        E 7 b2 01 33
        E 7 b2 01 35
        E 7 b2 01 37
        E 7 b2 01 39
        E 7 b2 01 3b
        E 7 b2 01 3d
        E 7 b2 01 3f
        E 7 b2 01 41
        E 7 b2 01 43
        E 7 b2 01 45
        E 7 b2 01 47
        E 7 b2 01 48
        E 7 b2 01 4a
        E 7 b2 01 4c
        E 7 b2 01 4d
        E 7 b2 01 4f
        E 7 b2 01 50
        E 7 b2 01 51
        E 7 b2 01 52
        E 7 b2 01 54
        E 7 b2 01 54
        E 7 b2 01 55
        E 7 b2 01 56
        E 7 b2 01 56
        E 7 b2 01 57
        E 7 b2 01 58
        E 7 b2 01 58
        E 7 b2 01 58
        E 7 b2 01 58
        E 7 b2 01 58
        E 7 b2 01 58
        E 7 b2 01 58
        E 7 b2 01 58
        E 7 b2 01 58
        E 7 b2 01 57
        E 7 b2 01 56
        E 7 b2 01 56
        E 7 b2 01 55
        E 7 b2 01 54
        E 7 b2 01 53
        E 7 b2 01 51
        E 7 b2 01 51
        E 7 b2 01 4f
        E 7 b2 01 4e
        E 7 b2 01 4d
        E 7 b2 01 4b
        E 7 b2 01 49
        E 7 b2 01 48
        E 7 b2 01 46
        E 7 b2 01 44
        E 7 b2 01 42
        E 7 b2 01 40
        E 7 b2 01 3e
        E 7 b2 01 3c
        E 7 b2 01 3a
        E 7 b2 01 38
        E 7 b2 01 36
        E 7 b2 01 33
        E 7 b2 01 31
        E 7 b2 01 2f
        E 7 b2 01 2d
        E 7 b2 01 2b
        E 7 b2 01 29
        E 7 b2 01 27
        E 7 b2 01 25
        E 7 b2 01 22
        E 7 b2 01 20
        E 7 b2 01 1e
        E 7 b2 01 1c
        E 7 b2 01 1a
        E 7 b2 01 18
        E 7 b2 01 16
        E 7 b2 01 14
        E 7 b2 01 12
        E 7 b2 01 10
        E 7 b2 01 0f
        E 7 b2 01 0d
        E 7 b2 01 0b
        E 7 b2 01 0a
        E 7 b2 01 09
        E 7 b2 01 07
        E 7 b2 01 07
        E 7 b2 01 05
        E 7 b2 01 04
        E 7 b2 01 03
        E 7 b2 01 02
        E 7 b2 01 02
        E 7 b2 01 01
        E 7 b2 01 00
        E 7 b2 01 00
        E 7 b2 01 00
        E 7 b2 01 00
        E 7 b2 01 00
        E 7 b2 01 00
        E 7 b2 01 00
        E 7 b2 01 00
        E 7 b2 01 00
        E 7 b2 01 01
        E 7 b2 01 02
        E 7 b2 01 02
        E 7 b2 01 03
        E 7 b2 01 04
        E 7 b2 01 04
        E 7 b2 01 06
        E 7 b2 01 07
        E 7 b2 01 08
        E 7 b2 01 09
        E 7 b2 01 0b
        E 7 b2 01 0c
        E 7 b2 01 0e
        E 7 b2 01 10
        E 7 b2 01 11
        E 7 b2 01 13
        E 7 b2 01 15
        E 7 b2 01 17
        E 7 b2 01 19
        E 7 b2 01 1b
        E 7 b2 01 1d
        E 7 b2 01 1f
        E 7 b2 01 21
        E 7 b2 01 23
        E 7 b2 01 25
        E 7 b2 01 27
        E 7 b2 01 2a
        E 7 b2 01 2c
        E 7 b2 01 20
        E 7 b2 01 21
        E 7 b2 01 23
        E 7 b2 01 24
        E 7 b2 01 26
        E 7 b2 01 27
        E 7 b2 01 29
        E 7 b2 01 2a
        E 7 b2 01 2c
        E 7 b2 01 2d
        E 7 b2 01 2f
        E 7 b2 01 30
        E 7 b2 01 31
        E 7 b2 01 33
        E 7 b2 01 34
        E 7 b2 01 35
        E 7 b2 01 36
        E 7 b2 01 37
        E 7 b2 01 38
        E 7 b2 01 39
        E 7 b2 01 3a
        E 7 b2 01 3b
        E 7 b2 01 3c
        E 7 b2 01 3c
        E 7 b2 01 3d
        E 7 b2 01 3d
        E 7 b2 01 3e
        E 7 b2 01 3e
        E 7 b2 01 3f
        E 7 b2 01 3f
        E 7 b2 01 3f
        E 7 b2 01 3f
        E 7 b2 01 3f
        E 7 b2 01 3f
        E 7 b2 01 3f
        E 7 b2 01 3f
        E 7 b2 01 3f
        E 7 b2 01 3e
        E 7 b2 01 3e
        E 7 b2 01 3d
        E 7 b2 01 3d
        E 7 b2 01 3c
        E 7 b2 01 3b
        E 7 b2 01 3a
        E 7 b2 01 3a
        E 7 b2 01 39
        E 7 b2 01 38
        E 7 b2 01 37
        E 7 b2 01 36
        E 7 b2 01 34
        E 7 b2 01 33
        E 7 b2 01 32
        E 7 b2 01 31
        E 7 b2 01 2f
        E 7 b2 01 2e
        E 7 b2 01 2c
        E 7 b2 01 2b
        E 7 b2 01 2a
        E 7 b2 01 28
        E 7 b2 01 27
        E 7 b2 01 25
        E 7 b2 01 23
        E 7 b2 01 22
        E 7 b2 01 20
        E 7 b2 01 1f
        E 7 b2 01 1d
        E 7 b2 01 1c
        E 7 b2 01 1a
        E 7 b2 01 18
        E 7 b2 01 17
        E 7 b2 01 15
        E 7 b2 01 14
        E 7 b2 01 13
        E 7 b2 01 11
        E 7 b2 01 10
        E 7 b2 01 0e
        E 7 b2 01 0d
        E 7 b2 01 0c
        E 7 b2 01 0b
        E 7 b2 01 09
        E 7 b2 01 08
        E 7 b2 01 07
        E 7 b2 01 06
        E 7 b2 01 05
        E 7 b2 01 05
        E 7 b2 01 04
        E 7 b2 01 03
        E 7 b2 01 02
        E 7 b2 01 02
        E 7 b2 01 01
        E 7 b2 01 01
        E 7 b2 01 00
        E 7 b2 01 00
        E 7 b2 01 00
        E 7 b2 01 00
        E 7 b2 01 00
        E 7 b2 01 00
        E 7 b2 01 00
        E 7 b2 01 00
        E 7 b2 01 00
        E 7 b2 01 01
        E 7 b2 01 01
        E 7 b2 01 02
        E 7 b2 01 02
        E 7 b2 01 03
        E 7 b2 01 03
        E 7 b2 01 04
        E 7 b2 01 05
        E 7 b2 01 06
        E 7 b2 01 07
        E 7 b2 01 08
        E 7 b2 01 09
        E 7 b2 01 0a
        E 7 b2 01 0b
        E 7 b2 01 0c
        E 7 b2 01 0e
        E 7 b2 01 0f
        E 7 b2 01 10
        E 7 b2 01 12
        E 7 b2 01 13
        E 7 b2 01 15
        E 7 b2 01 16
        E 7 b2 01 18
        E 7 b2 01 19
        E 7 b2 01 1b
        E 7 b2 01 1c
        E 7 b2 01 1e
        E 7 b2 01 20
        E 1 b2 01 39
        E 1 b2 01 3c
        E 1 b2 01 3f
        E 1 b2 01 41
        E 1 b2 01 44
        E 1 b2 01 47
        E 1 b2 01 49
        E 1 b2 01 4c
        E 1 b2 01 4f
        E 1 b2 01 51
        E 1 b2 01 54
        E 1 b2 01 56
        E 1 b2 01 59
        E 1 b2 01 5b
        E 1 b2 01 5d
        E 1 b2 01 5f
        E 1 b2 01 62
        E 1 b2 01 63
        E 1 b2 01 65
        E 1 b2 01 67
        E 1 b2 01 69
        E 1 b2 01 6a
        E 1 b2 01 6c
        E 1 b2 01 6c
        E 1 b2 01 6d
        E 1 b2 01 6e
        E 1 b2 01 6f
        E 1 b2 01 70
        E 1 b2 01 71
        E 1 b2 01 71
        E 1 b2 01 72
        E 1 b2 01 72
        E 1 b2 01 72
        E 1 b2 01 72
        E 1 b2 01 72
        E 1 b2 01 71
        E 1 b2 01 71
        E 1 b2 01 70
        E 1 b2 01 6f
        E 1 b2 01 6e
        E 1 b2 01 6d
        E 1 b2 01 6c
        E 1 b2 01 6b
        E 1 b2 01 69
        E 1 b2 01 68
        E 1 b2 01 66
        E 1 b2 01 64
        E 1 b2 01 63
        E 1 b2 01 61
        E 1 b2 01 5e
        E 1 b2 01 5c
        E 1 b2 01 5a
        E 1 b2 01 58
        E 1 b2 01 55
        E 1 b2 01 52
        E 1 b2 01 50
        E 1 b2 01 4e
        E 1 b2 01 4b
        E 1 b2 01 48
        E 1 b2 01 46
        E 1 b2 01 42
        E 1 b2 01 3f
        E 1 b2 01 3d
        E 1 b2 01 3a
        E 1 b2 01 37
        E 1 b2 01 35
        E 1 b2 01 32
        E 1 b2 01 2f
        E 1 b2 01 2c
        E 1 b2 01 29
        E 1 b2 01 26
        E 1 b2 01 24
        E 1 b2 01 22
        E 1 b2 01 1f
        E 1 b2 01 1c
        E 1 b2 01 1a
        E 1 b2 01 18
        E 1 b2 01 15
        E 1 b2 01 13
        E 1 b2 01 11
        E 1 b2 01 0f
        E 1 b2 01 0d
        E 1 b2 01 0b
        E 1 b2 01 09
        E 1 b2 01 09
        E 1 b2 01 07
        E 1 b2 01 06
        E 1 b2 01 04
        E 1 b2 01 03
        E 1 b2 01 02
        E 1 b2 01 01
        E 1 b2 01 00
        E 1 b2 01 00
        E 1 b2 01 00
        E 1 b2 01 00
        E 1 b2 01 00
        E 1 b2 01 00
        E 1 b2 01 00
        E 1 b2 01 00
        E 1 b2 01 00
        E 1 b2 01 01
        E 1 b2 01 02
        E 1 b2 01 03
        E 1 b2 01 04
        E 1 b2 01 05
        E 1 b2 01 06
        E 1 b2 01 08
        E 1 b2 01 09
        E 1 b2 01 0a
        E 1 b2 01 0c
        E 1 b2 01 0e
        E 1 b2 01 10
        E 1 b2 01 12
        E 1 b2 01 14
        E 1 b2 01 16
        E 1 b2 01 19
        E 1 b2 01 1b
        E 1 b2 01 1d
        E 1 b2 01 20
        E 1 b2 01 23
        E 1 b2 01 25
        E 1 b2 01 28
        E 1 b2 01 2b
        E 1 b2 01 2d
        E 1 b2 01 30
        E 1 b2 01 33
        E 1 b2 01 36
        E 1 b2 01 39
        E 5 b2 01 40
        E 5 b2 01 43
        E 5 b2 01 46
        E 5 b2 01 49
        E 5 b2 01 4c
        E 5 b2 01 4f
        E 5 b2 01 52
        E 5 b2 01 55
        E 5 b2 01 58
        E 5 b2 01 5b
        E 5 b2 01 5e
        E 5 b2 01 60
        E 5 b2 01 63
        E 5 b2 01 66
        E 5 b2 01 68
        E 5 b2 01 6a
        E 5 b2 01 6d
        E 5 b2 01 6f
        E 5 b2 01 71
        E 5 b2 01 73
        E 5 b2 01 75
        E 5 b2 01 76
        E 5 b2 01 78
        E 5 b2 01 79
        E 5 b2 01 7a
        E 5 b2 01 7b
        E 5 b2 01 7c
        E 5 b2 01 7d
        E 5 b2 01 7e
        E 5 b2 01 7e
        E 5 b2 01 7f
        E 5 b2 01 7f
        E 5 b2 01 7f
        E 5 b2 01 7f
        E 5 b2 01 7f
        E 5 b2 01 7e
        E 5 b2 01 7e
        E 5 b2 01 7d
        E 5 b2 01 7c
        E 5 b2 01 7b
        E 5 b2 01 7a
        E 5 b2 01 78
        E 5 b2 01 77
        E 5 b2 01 75
        E 5 b2 01 74
        E 5 b2 01 72
        E 5 b2 01 70
        E 5 b2 01 6e
        E 5 b2 01 6c
        E 5 b2 01 69
        E 5 b2 01 67
        E 5 b2 01 64
        E 5 b2 01 62
        E 5 b2 01 5f
        E 5 b2 01 5c
        E 5 b2 01 59
        E 5 b2 01 57
        E 5 b2 01 54
        E 5 b2 01 51
        E 5 b2 01 4e
        E 5 b2 01 4a
        E 5 b2 01 47
        E 5 b2 01 44
        E 5 b2 01 41
        E 5 b2 01 3e
        E 5 b2 01 3b
        E 5 b2 01 38
        E 5 b2 01 35
        E 5 b2 01 31
        E 5 b2 01 2e
        E 5 b2 01 2b
        E 5 b2 01 28
        E 5 b2 01 26
        E 5 b2 01 23
        E 5 b2 01 20
        E 5 b2 01 1d
        E 5 b2 01 1b
        E 5 b2 01 18
        E 5 b2 01 16
        E 5 b2 01 13
        E 5 b2 01 11
        E 5 b2 01 0f
        E 5 b2 01 0d
        E 5 b2 01 0b
        E 5 b2 01 0a
        E 5 b2 01 08
        E 5 b2 01 07
        E 5 b2 01 05
        E 5 b2 01 04
        E 5 b2 01 03
        E 5 b2 01 02
        E 5 b2 01 01
        E 5 b2 01 01
        E 5 b2 01 00
        E 5 b2 01 00
        E 5 b2 01 00
        E 5 b2 01 00
        E 5 b2 01 00
        E 5 b2 01 01
        E 5 b2 01 01
        E 5 b2 01 02
        E 5 b2 01 03
        E 5 b2 01 04
        E 5 b2 01 05
        E 5 b2 01 06
        E 5 b2 01 07
        E 5 b2 01 09
        E 5 b2 01 0a
        E 5 b2 01 0c
        E 5 b2 01 0e
        E 5 b2 01 10
        E 5 b2 01 12
        E 5 b2 01 15
        E 5 b2 01 17
        E 5 b2 01 19
        E 5 b2 01 1c
        E 5 b2 01 1f
        E 5 b2 01 21
        E 5 b2 01 24
        E 5 b2 01 27
        E 5 b2 01 2a
        E 5 b2 01 2d
        E 5 b2 01 30
        E 5 b2 01 33
        E 5 b2 01 36
        E 5 b2 01 39
        E 5 b2 01 3c
        E 5 b2 01 40
        E 9 b2 01 39
        E 9 b2 01 3c
        E 9 b2 01 3f
        E 9 b2 01 41
        E 9 b2 01 44
        E 9 b2 01 47
        E 9 b2 01 49
        E 9 b2 01 4c
        E 9 b2 01 4f
        E 9 b2 01 51
        E 9 b2 01 54
        E 9 b2 01 56
        E 9 b2 01 59
        E 9 b2 01 5b
        E 9 b2 01 5d
        E 9 b2 01 5f
        E 9 b2 01 62
        E 9 b2 01 63
        E 9 b2 01 65
        E 9 b2 01 67
        E 9 b2 01 69
        E 9 b2 01 6a
        E 9 b2 01 6c
        E 9 b2 01 6c
        E 9 b2 01 6d
        E 9 b2 01 6e
        E 9 b2 01 6f
        E 9 b2 01 70
        E 9 b2 01 71
        E 9 b2 01 71
        E 9 b2 01 72
        E 9 b2 01 72
        E 9 b2 01 72
        E 9 b2 01 72
        E 9 b2 01 72
        E 9 b2 01 71
        E 9 b2 01 71
        E 9 b2 01 70
        E 9 b2 01 6f
        E 9 b2 01 6e
        E 9 b2 01 6d
        E 9 b2 01 6c
        E 9 b2 01 6b
        E 9 b2 01 69
        E 9 b2 01 68
        E 9 b2 01 66
        E 9 b2 01 64
        E 9 b2 01 63
        E 9 b2 01 61
        E 9 b2 01 5e
        E 9 b2 01 5c
        E 9 b2 01 5a
        E 9 b2 01 58
        E 9 b2 01 55
        E 9 b2 01 52
        E 9 b2 01 50
        E 9 b2 01 4e
        E 9 b2 01 4b
        E 9 b2 01 48
        E 9 b2 01 46
        E 9 b2 01 42
        E 9 b2 01 3f
        E 9 b2 01 3d
        E 9 b2 01 3a
        E 9 b2 01 37
        E 9 b2 01 35
        E 9 b2 01 32
        E 9 b2 01 2f
        E 9 b2 01 2c
        E 9 b2 01 29
        E 9 b2 01 26
        E 9 b2 01 24
        E 9 b2 01 22
        E 9 b2 01 1f
        E 9 b2 01 1c
        E 9 b2 01 1a
        E 9 b2 01 18
        E 9 b2 01 15
        E 9 b2 01 13
        E 9 b2 01 11
        E 9 b2 01 0f
        E 9 b2 01 0d
        E 9 b2 01 0b
        E 9 b2 01 09
        E 9 b2 01 09
        E 9 b2 01 07
        E 9 b2 01 06
        E 9 b2 01 04
        E 9 b2 01 03
        E 9 b2 01 02
        E 9 b2 01 01
        E 9 b2 01 00
        E 9 b2 01 00
        E 9 b2 01 00
        E 9 b2 01 00
        E 9 b2 01 00
        E 9 b2 01 00
        E 9 b2 01 00
        E 9 b2 01 00
        E 9 b2 01 00
        E 9 b2 01 01
        E 9 b2 01 02
        E 9 b2 01 03
        E 9 b2 01 04
        E 9 b2 01 05
        E 9 b2 01 06
        E 9 b2 01 08
        E 9 b2 01 09
        E 9 b2 01 0a
        E 9 b2 01 0c
        E 9 b2 01 0e
        E 9 b2 01 10
        E 9 b2 01 12
        E 9 b2 01 14
        E 9 b2 01 16
        E 9 b2 01 19
        E 9 b2 01 1b
        E 9 b2 01 1d
        E 9 b2 01 20
        E 9 b2 01 23
        E 9 b2 01 25
        E 9 b2 01 28
        E 9 b2 01 2b
        E 9 b2 01 2d
        E 9 b2 01 30
        E 9 b2 01 33
        E 9 b2 01 36
        E 9 b2 01 39
        E 7 b2 01 20
        E 7 b2 01 21
        E 7 b2 01 23
        E 7 b2 01 24
        E 7 b2 01 26
        E 7 b2 01 27
        E 7 b2 01 29
        E 7 b2 01 2a
        E 7 b2 01 2c
        E 7 b2 01 2d
        E 7 b2 01 2f
        E 7 b2 01 30
        E 7 b2 01 31
        E 7 b2 01 33
        E 7 b2 01 34
        E 7 b2 01 35
        E 7 b2 01 36
        E 7 b2 01 37
        E 7 b2 01 38
        E 7 b2 01 39
        E 7 b2 01 3a
        E 7 b2 01 3b
        E 7 b2 01 3c
        E 7 b2 01 3c
        E 7 b2 01 3d
        E 7 b2 01 3d
        E 7 b2 01 3e
        E 7 b2 01 3e
        E 7 b2 01 3f
        E 7 b2 01 3f
        E 7 b2 01 3f
        E 7 b2 01 3f
        E 7 b2 01 3f
        E 7 b2 01 3f
        E 7 b2 01 3f
        E 7 b2 01 3f
        E 7 b2 01 3f
        E 7 b2 01 3e
        E 7 b2 01 3e
        E 7 b2 01 3d
        E 7 b2 01 3d
        E 7 b2 01 3c
        E 7 b2 01 3b
        E 7 b2 01 3a
        E 7 b2 01 3a
        E 7 b2 01 39
        E 7 b2 01 38
        E 7 b2 01 37
        E 7 b2 01 36
        E 7 b2 01 34
        E 7 b2 01 33
        E 7 b2 01 32
        E 7 b2 01 31
        E 7 b2 01 2f
        E 7 b2 01 2e
        E 7 b2 01 2c
        E 7 b2 01 2b
        E 7 b2 01 2a
        E 7 b2 01 28
        E 7 b2 01 27
        E 7 b2 01 25
        E 7 b2 01 23
        E 7 b2 01 22
        E 7 b2 01 20
        E 7 b2 01 1f
        E 7 b2 01 1d
        E 7 b2 01 1c
        E 7 b2 01 1a
        E 7 b2 01 18
        E 7 b2 01 17
        E 7 b2 01 15
        E 7 b2 01 14
        E 7 b2 01 13
        E 7 b2 01 11
        E 7 b2 01 10
        E 7 b2 01 0e
        E 7 b2 01 0d
        E 7 b2 01 0c
        E 7 b2 01 0b
        E 7 b2 01 09
        E 7 b2 01 08
        E 7 b2 01 07
        E 7 b2 01 06
        E 7 b2 01 05
        E 7 b2 01 05
        E 7 b2 01 04
        E 7 b2 01 03
        E 7 b2 01 02
        E 7 b2 01 02
        E 7 b2 01 01
        E 7 b2 01 01
        E 7 b2 01 00
        E 7 b2 01 00
        E 7 b2 01 00
        E 7 b2 01 00
        E 7 b2 01 00
        E 7 b2 01 00
        E 7 b2 01 00
        E 7 b2 01 00
        E 7 b2 01 00
        E 7 b2 01 01
        E 7 b2 01 01
        E 7 b2 01 02
        E 7 b2 01 02
        E 7 b2 01 03
        E 7 b2 01 03
        E 7 b2 01 04
        E 7 b2 01 05
        E 7 b2 01 06
        E 7 b2 01 07
        E 7 b2 01 08
        E 7 b2 01 09
        E 7 b2 01 0a
        E 7 b2 01 0b
        E 7 b2 01 0c
        E 7 b2 01 0e
        E 7 b2 01 0f
        E 7 b2 01 10
        E 7 b2 01 12
        E 7 b2 01 13
        E 7 b2 01 15
        E 7 b2 01 16
        E 7 b2 01 18
        E 7 b2 01 19
        E 7 b2 01 1b
        E 7 b2 01 1c
        E 7 b2 01 1e
        E 7 b2 01 20
        E 7 b2 01 20
        E 7 b2 01 21
        E 7 b2 01 23
        E 7 b2 01 24
        E 7 b2 01 26
        E 7 b2 01 27
        E 7 b2 01 29
        E 7 b2 01 2a
        E 7 b2 01 2c
        E 7 b2 01 2d
        E 7 b2 01 2f
        E 7 b2 01 30
        E 7 b2 01 31
        E 7 b2 01 33
        E 7 b2 01 34
        E 7 b2 01 35
        E 7 b2 01 36
        E 7 b2 01 37
        E 7 b2 01 38
        E 7 b2 01 39
        E 7 b2 01 3a
        E 7 b2 01 3b
        E 7 b2 01 3c
        E 7 b2 01 3c
        E 7 b2 01 3d
        E 7 b2 01 3d
        E 7 b2 01 3e
        E 7 b2 01 3e
        E 7 b2 01 3f
        E 7 b2 01 3f
        E 7 b2 01 3f
        E 7 b2 01 3f
        E 7 b2 01 3f
        E 7 b2 01 3f
        E 7 b2 01 3f
        E 7 b2 01 3f
        E 7 b2 01 3f
        E 7 b2 01 3e
        E 7 b2 01 3e
        E 7 b2 01 3d
        E 7 b2 01 3d
        E 7 b2 01 3c
        E 7 b2 01 3b
        E 7 b2 01 3a
        E 7 b2 01 3a
        E 7 b2 01 39
        E 7 b2 01 38
        E 7 b2 01 37
        E 7 b2 01 36
        E 7 b2 01 34
        E 7 b2 01 33
        E 7 b2 01 32
        E 7 b2 01 31
        E 7 b2 01 2f
        E 7 b2 01 2e
        E 7 b2 01 2c
        E 7 b2 01 2b
        E 7 b2 01 2a
        E 7 b2 01 28
        E 7 b2 01 27
        E 7 b2 01 25
        E 7 b2 01 23
        E 7 b2 01 22
        E 7 b2 01 20
        E 7 b2 01 1f
        E 7 b2 01 1d
        E 7 b2 01 1c
        E 7 b2 01 1a
        E 7 b2 01 18
        E 7 b2 01 17
        E 7 b2 01 15
        E 7 b2 01 14
        E 7 b2 01 13
        E 7 b2 01 11
        E 7 b2 01 10
        E 7 b2 01 0e
        E 7 b2 01 0d
        E 7 b2 01 0c
        E 7 b2 01 0b
        E 7 b2 01 09
        E 7 b2 01 08
        E 7 b2 01 07
        E 7 b2 01 06
        E 7 b2 01 05
        E 7 b2 01 05
        E 7 b2 01 04
        E 7 b2 01 03
        E 7 b2 01 02
        E 7 b2 01 02
        E 7 b2 01 01
        E 7 b2 01 01
        E 7 b2 01 00
        E 7 b2 01 00
        E 7 b2 01 00
        E 7 b2 01 00
        E 7 b2 01 00
        E 7 b2 01 00
        E 7 b2 01 00
        E 7 b2 01 00
        E 7 b2 01 00
        E 7 b2 01 01
        E 7 b2 01 01
        E 7 b2 01 02
        E 7 b2 01 02
        E 7 b2 01 03
        E 7 b2 01 03
        E 7 b2 01 04
        E 7 b2 01 05
        E 7 b2 01 06
        E 7 b2 01 07
        E 7 b2 01 08
        E 7 b2 01 09
        E 7 b2 01 0a
        E 7 b2 01 0b
        E 7 b2 01 0c
        E 7 b2 01 0e
        E 7 b2 01 0f
        E 7 b2 01 10
        E 7 b2 01 12
        E 7 b2 01 13
        E 7 b2 01 15
        E 7 b2 01 16
        E 7 b2 01 18
        E 7 b2 01 19
        E 7 b2 01 1b
        E 7 b2 01 1c
        E 7 b2 01 1e
        E 7 b2 01 20
        E 14 b2 01 2c
        E 14 b2 01 2e
        E 14 b2 01 31
        E 14 b2 01 33
        E 14 b2 01 35
        E 14 b2 01 37
        E 14 b2 01 39
        E 14 b2 01 3b
        E 14 b2 01 3d
        E 14 b2 01 3f
        E 14 b2 01 41
        E 14 b2 01 43
        E 14 b2 01 45
        E 14 b2 01 47
        E 14 b2 01 48
        E 14 b2 01 4a
        E 14 b2 01 4c
        E 14 b2 01 4d
        E 14 b2 01 4f
        E 14 b2 01 50
        E 14 b2 01 51
        E 14 b2 01 52
        E 14 b2 01 54
        E 14 b2 01 54
        E 14 b2 01 55
        E 14 b2 01 56
        E 14 b2 01 56
        E 14 b2 01 57
        E 14 b2 01 58
        E 14 b2 01 58
        E 14 b2 01 58
        E 14 b2 01 58
        E 14 b2 01 58
        E 14 b2 01 58
        E 14 b2 01 58
        E 14 b2 01 58
        E 14 b2 01 58
        E 14 b2 01 57
        E 14 b2 01 56
        E 14 b2 01 56
        E 14 b2 01 55
        E 14 b2 01 54
        E 14 b2 01 53
        E 14 b2 01 51
        E 14 b2 01 51
        E 14 b2 01 4f
        E 14 b2 01 4e
        E 14 b2 01 4d
        E 14 b2 01 4b
        E 14 b2 01 49
        E 14 b2 01 48
        E 14 b2 01 46
        E 14 b2 01 44
        E 14 b2 01 42
        E 14 b2 01 40
        E 14 b2 01 3e
        E 14 b2 01 3c
        E 14 b2 01 3a
        E 14 b2 01 38
        E 14 b2 01 36
        E 14 b2 01 33
        E 14 b2 01 31
        E 14 b2 01 2f
        E 14 b2 01 2d
        E 14 b2 01 2b
        E 14 b2 01 29
        E 14 b2 01 27
        E 14 b2 01 25
        E 14 b2 01 22
        E 14 b2 01 20
        E 14 b2 01 1e
        E 14 b2 01 1c
        E 14 b2 01 1a
        E 14 b2 01 18
        E 14 b2 01 16
        E 14 b2 01 14
        E 14 b2 01 12
        E 14 b2 01 10
        E 14 b2 01 0f
        E 14 b2 01 0d
        E 14 b2 01 0b
        E 14 b2 01 0a
        E 14 b2 01 09
        E 14 b2 01 07
        E 14 b2 01 07
        E 14 b2 01 05
        E 14 b2 01 04
        E 14 b2 01 03
        E 14 b2 01 02
        E 14 b2 01 02
        E 14 b2 01 01
        E 14 b2 01 00
        E 14 b2 01 00
        E 14 b2 01 00
        E 14 b2 01 00
        E 14 b2 01 00
        E 14 b2 01 00
        E 14 b2 01 00
        E 14 b2 01 00
        E 14 b2 01 00
        E 14 b2 01 01
        E 14 b2 01 02
        E 14 b2 01 02
        E 14 b2 01 03
        E 14 b2 01 04
        E 14 b2 01 04
        E 14 b2 01 06
        E 14 b2 01 07
        E 14 b2 01 08
        E 14 b2 01 09
        E 14 b2 01 0b
        E 14 b2 01 0c
        E 14 b2 01 0e
        E 14 b2 01 10
        E 14 b2 01 11
        E 14 b2 01 13
        E 14 b2 01 15
        E 14 b2 01 17
        E 14 b2 01 19
        E 14 b2 01 1b
        E 14 b2 01 1d
        E 14 b2 01 1f
        E 14 b2 01 21
        E 14 b2 01 23
        E 14 b2 01 25
        E 14 b2 01 27
        E 14 b2 01 2a
        E 14 b2 01 2c
        E 12 b2 01 33
        E 12 b2 01 35
        E 12 b2 01 37
        E 12 b2 01 3a
        E 12 b2 01 3c
        E 12 b2 01 3f
        E 12 b2 01 41
        E 12 b2 01 44
        E 12 b2 01 46
        E 12 b2 01 48
        E 12 b2 01 4b
        E 12 b2 01 4c
        E 12 b2 01 4f
        E 12 b2 01 51
        E 12 b2 01 53
        E 12 b2 01 54
        E 12 b2 01 57
        E 12 b2 01 58
        E 12 b2 01 5a
        E 12 b2 01 5b
        E 12 b2 01 5d
        E 12 b2 01 5e
        E 12 b2 01 5f
        E 12 b2 01 60
        E 12 b2 01 61
        E 12 b2 01 62
        E 12 b2 01 63
        E 12 b2 01 63
        E 12 b2 01 64
        E 12 b2 01 64
        E 12 b2 01 65
        E 12 b2 01 65
        E 12 b2 01 65
        E 12 b2 01 65
        E 12 b2 01 65
        E 12 b2 01 64
        E 12 b2 01 64
        E 12 b2 01 63
        E 12 b2 01 63
        E 12 b2 01 62
        E 12 b2 01 61
        E 12 b2 01 5f
        E 12 b2 01 5f
        E 12 b2 01 5d
        E 12 b2 01 5c
        E 12 b2 01 5b
        E 12 b2 01 59
        E 12 b2 01 57
        E 12 b2 01 56
        E 12 b2 01 54
        E 12 b2 01 52
        E 12 b2 01 50
        E 12 b2 01 4e
        E 12 b2 01 4c
        E 12 b2 01 49
        E 12 b2 01 47
        E 12 b2 01 45
        E 12 b2 01 43
        E 12 b2 01 40
        E 12 b2 01 3e
        E 12 b2 01 3b
        E 12 b2 01 38
        E 12 b2 01 36
        E 12 b2 01 33
        E 12 b2 01 31
        E 12 b2 01 2f
        E 12 b2 01 2c
        E 12 b2 01 2a
        E 12 b2 01 27
        E 12 b2 01 24
        E 12 b2 01 22
        E 12 b2 01 1f
        E 12 b2 01 1e
        E 12 b2 01 1b
        E 12 b2 01 19
        E 12 b2 01 17
        E 12 b2 01 15
        E 12 b2 01 13
        E 12 b2 01 11
        E 12 b2 01 0f
        E 12 b2 01 0d
        E 12 b2 01 0b
        E 12 b2 01 0a
        E 12 b2 01 08
        E 12 b2 01 07
        E 12 b2 01 06
        E 12 b2 01 05
        E 12 b2 01 03
        E 12 b2 01 03
        E 12 b2 01 02
        E 12 b2 01 01
        E 12 b2 01 00
        E 12 b2 01 00
        E 12 b2 01 00
        E 12 b2 01 00
        E 12 b2 01 00
        E 12 b2 01 00
        E 12 b2 01 00
        E 12 b2 01 00
        E 12 b2 01 00
        E 12 b2 01 01
        E 12 b2 01 02
        E 12 b2 01 03
        E 12 b2 01 03
        E 12 b2 01 04
        E 12 b2 01 05
        E 12 b2 01 07
        E 12 b2 01 07
        E 12 b2 01 09
        E 12 b2 01 0b
        E 12 b2 01 0c
        E 12 b2 01 0e
        E 12 b2 01 10
        E 12 b2 01 12
        E 12 b2 01 14
        E 12 b2 01 16
        E 12 b2 01 18
        E 12 b2 01 1a
        E 12 b2 01 1c
        E 12 b2 01 1f
        E 12 b2 01 21
        E 12 b2 01 24
        E 12 b2 01 26
        E 12 b2 01 28
        E 12 b2 01 2b
        E 12 b2 01 2d
        E 12 b2 01 2f
        E 12 b2 01 33
        E 14 b2 01 06
        E 14 b2 01 06
        E 14 b2 01 07
        E 14 b2 01 07
        E 14 b2 01 07
        E 14 b2 01 07
        E 14 b2 01 08
        E 14 b2 01 08
        E 14 b2 01 08
        E 14 b2 01 09
        E 14 b2 01 09
        E 14 b2 01 09
        E 14 b2 01 09
        E 14 b2 01 0a
        E 14 b2 01 0a
        E 14 b2 01 0a
        E 14 b2 01 0a
        E 14 b2 01 0b
        E 14 b2 01 0b
        E 14 b2 01 0b
        E 14 b2 01 0b
        E 14 b2 01 0b
        E 14 b2 01 0c
        E 14 b2 01 0c
        E 14 b2 01 0c
        E 14 b2 01 0c
        E 14 b2 01 0c
        E 14 b2 01 0c
        E 14 b2 01 0c
        E 14 b2 01 0c
        E 14 b2 01 0c
        E 14 b2 01 0c
        E 14 b2 01 0c
        E 14 b2 01 0c
        E 14 b2 01 0c
        E 14 b2 01 0c
        E 14 b2 01 0c
        E 14 b2 01 0c
        E 14 b2 01 0c
        E 14 b2 01 0c
        E 14 b2 01 0c
        E 14 b2 01 0c
        E 14 b2 01 0b
        E 14 b2 01 0b
        E 14 b2 01 0b
        E 14 b2 01 0b
        E 14 b2 01 0b
        E 14 b2 01 0b
        E 14 b2 01 0a
        E 14 b2 01 0a
        E 14 b2 01 0a
        E 14 b2 01 0a
        E 14 b2 01 09
        E 14 b2 01 09
        E 14 b2 01 09
        E 14 b2 01 08
        E 14 b2 01 08
        E 14 b2 01 08
        E 14 b2 01 08
        E 14 b2 01 07
        E 14 b2 01 07
        E 14 b2 01 07
        E 14 b2 01 06
        E 14 b2 01 06
        E 14 b2 01 06
        E 14 b2 01 05
        E 14 b2 01 05
        E 14 b2 01 05
        E 14 b2 01 04
        E 14 b2 01 04
        E 14 b2 01 04
        E 14 b2 01 04
        E 14 b2 01 03
        E 14 b2 01 03
        E 14 b2 01 03
        E 14 b2 01 02
        E 14 b2 01 02
        E 14 b2 01 02
        E 14 b2 01 02
        E 14 b2 01 01
        E 14 b2 01 01
        E 14 b2 01 01
        E 14 b2 01 01
        E 14 b2 01 01
        E 14 b2 01 01
        E 14 b2 01 00
        E 14 b2 01 00
        E 14 b2 01 00
        E 14 b2 01 00
        E 14 b2 01 00
        E 14 b2 01 00
        E 14 b2 01 00
        E 14 b2 01 00
        E 14 b2 01 00
        E 14 b2 01 00
        E 14 b2 01 00
        E 14 b2 01 00
        E 14 b2 01 00
        E 14 b2 01 00
        E 14 b2 01 00
        E 14 b2 01 00
        E 14 b2 01 00
        E 14 b2 01 00
        E 14 b2 01 00
        E 14 b2 01 00
        E 14 b2 01 00
        E 14 b2 01 00
        E 14 b2 01 01
        E 14 b2 01 01
        E 14 b2 01 01
        E 14 b2 01 01
        E 14 b2 01 01
        E 14 b2 01 02
        E 14 b2 01 02
        E 14 b2 01 02
        E 14 b2 01 02
        E 14 b2 01 03
        E 14 b2 01 03
        E 14 b2 01 03
        E 14 b2 01 03
        E 14 b2 01 04
        E 14 b2 01 04
        E 14 b2 01 04
        E 14 b2 01 05
        E 14 b2 01 05
        E 14 b2 01 05
        E 14 b2 01 06
        E 14 b2 01 06
        E 12 b2 01 19
        E 12 b2 01 1a
        E 12 b2 01 1c
        E 12 b2 01 1d
        E 12 b2 01 1e
        E 12 b2 01 1f
        E 12 b2 01 20
        E 12 b2 01 22
        E 12 b2 01 23
        E 12 b2 01 24
        E 12 b2 01 25
        E 12 b2 01 26
        E 12 b2 01 27
        E 12 b2 01 28
        E 12 b2 01 29
        E 12 b2 01 2a
        E 12 b2 01 2b
        E 12 b2 01 2c
        E 12 b2 01 2d
        E 12 b2 01 2e
        E 12 b2 01 2e
        E 12 b2 01 2f
        E 12 b2 01 30
        E 12 b2 01 30
        E 12 b2 01 30
        E 12 b2 01 31
        E 12 b2 01 31
        E 12 b2 01 32
        E 12 b2 01 32
        E 12 b2 01 32
        E 12 b2 01 32
        E 12 b2 01 32
        E 12 b2 01 32
        E 12 b2 01 32
        E 12 b2 01 32
        E 12 b2 01 32
        E 12 b2 01 32
        E 12 b2 01 32
        E 12 b2 01 31
        E 12 b2 01 31
        E 12 b2 01 30
        E 12 b2 01 30
        E 12 b2 01 2f
        E 12 b2 01 2e
        E 12 b2 01 2e
        E 12 b2 01 2d
        E 12 b2 01 2c
        E 12 b2 01 2c
        E 12 b2 01 2b
        E 12 b2 01 2a
        E 12 b2 01 29
        E 12 b2 01 28
        E 12 b2 01 27
        E 12 b2 01 26
        E 12 b2 01 24
        E 12 b2 01 23
        E 12 b2 01 22
        E 12 b2 01 21
        E 12 b2 01 20
        E 12 b2 01 1f
        E 12 b2 01 1d
        E 12 b2 01 1c
        E 12 b2 01 1b
        E 12 b2 01 1a
        E 12 b2 01 18
        E 12 b2 01 17
        E 12 b2 01 16
        E 12 b2 01 15
        E 12 b2 01 13
        E 12 b2 01 12
        E 12 b2 01 11
        E 12 b2 01 10
        E 12 b2 01 0f
        E 12 b2 01 0e
        E 12 b2 01 0c
        E 12 b2 01 0b
        E 12 b2 01 0a
        E 12 b2 01 09
        E 12 b2 01 08
        E 12 b2 01 07
        E 12 b2 01 06
        E 12 b2 01 06
        E 12 b2 01 05
        E 12 b2 01 04
        E 12 b2 01 04
        E 12 b2 01 03
        E 12 b2 01 02
        E 12 b2 01 02
        E 12 b2 01 01
        E 12 b2 01 01
        E 12 b2 01 00
        E 12 b2 01 00
        E 12 b2 01 00
        E 12 b2 01 00
        E 12 b2 01 00
        E 12 b2 01 00
        E 12 b2 01 00
        E 12 b2 01 00
        E 12 b2 01 00
        E 12 b2 01 00
        E 12 b2 01 00
        E 12 b2 01 01
        E 12 b2 01 01
        E 12 b2 01 02
        E 12 b2 01 02
        E 12 b2 01 02
        E 12 b2 01 03
        E 12 b2 01 04
        E 12 b2 01 04
        E 12 b2 01 05
        E 12 b2 01 06
        E 12 b2 01 07
        E 12 b2 01 08
        E 12 b2 01 09
        E 12 b2 01 0a
        E 12 b2 01 0b
        E 12 b2 01 0c
        E 12 b2 01 0d
        E 12 b2 01 0e
        E 12 b2 01 0f
        E 12 b2 01 10
        E 12 b2 01 12
        E 12 b2 01 13
        E 12 b2 01 14
        E 12 b2 01 15
        E 12 b2 01 16
        E 12 b2 01 18
        E 12 b2 01 19
        E 7 b2 01 2c
        E 7 b2 01 2e
        E 7 b2 01 31
        E 7 b2 01 33
        E 7 b2 01 35
        E 7 b2 01 37
        E 7 b2 01 39
        E 7 b2 01 3b
        E 7 b2 01 3d
        E 7 b2 01 3f
        E 7 b2 01 41
        E 7 b2 01 43
        E 7 b2 01 45
        E 7 b2 01 47
        E 7 b2 01 48
        E 7 b2 01 4a
        E 7 b2 01 4c
        E 7 b2 01 4d
        E 7 b2 01 4f
        E 7 b2 01 50
        E 7 b2 01 51
        E 7 b2 01 52
        E 7 b2 01 54
        E 7 b2 01 54
        E 7 b2 01 55
        E 7 b2 01 56
        E 7 b2 01 56
        E 7 b2 01 57
        E 7 b2 01 58
        E 7 b2 01 58
        E 7 b2 01 58
        E 7 b2 01 58
        E 7 b2 01 58
        E 7 b2 01 58
        E 7 b2 01 58
        E 7 b2 01 58
        E 7 b2 01 58
        E 7 b2 01 57
        E 7 b2 01 56
        E 7 b2 01 56
        E 7 b2 01 55
        E 7 b2 01 54
        E 7 b2 01 53
        E 7 b2 01 51
        E 7 b2 01 51
        E 7 b2 01 4f
        E 7 b2 01 4e
        E 7 b2 01 4d
        E 7 b2 01 4b
        E 7 b2 01 49
        E 7 b2 01 48
        E 7 b2 01 46
        E 7 b2 01 44
        E 7 b2 01 42
        E 7 b2 01 40
        E 7 b2 01 3e
        E 7 b2 01 3c
        E 7 b2 01 3a
        E 7 b2 01 38
        E 7 b2 01 36
        E 7 b2 01 33
        E 7 b2 01 31
        E 7 b2 01 2f
        E 7 b2 01 2d
        E 7 b2 01 2b
        E 7 b2 01 29
        E 7 b2 01 27
        E 7 b2 01 25
        E 7 b2 01 22
        E 7 b2 01 20
        E 7 b2 01 1e
        E 7 b2 01 1c
        E 7 b2 01 1a
        E 7 b2 01 18
        E 7 b2 01 16
        E 7 b2 01 14
        E 7 b2 01 12
        E 7 b2 01 10
        E 7 b2 01 0f
        E 7 b2 01 0d
        E 7 b2 01 0b
        E 7 b2 01 0a
        E 7 b2 01 09
        E 7 b2 01 07
        E 7 b2 01 07
        E 7 b2 01 05
        E 7 b2 01 04
        E 7 b2 01 03
        E 7 b2 01 02
        E 7 b2 01 02
        E 7 b2 01 01
        E 7 b2 01 00
        E 7 b2 01 00
        E 7 b2 01 00
        E 7 b2 01 00
        E 7 b2 01 00
        E 7 b2 01 00
        E 7 b2 01 00
        E 7 b2 01 00
        E 7 b2 01 00
        E 7 b2 01 01
        E 7 b2 01 02
        E 7 b2 01 02
        E 7 b2 01 03
        E 7 b2 01 04
        E 7 b2 01 04
        E 7 b2 01 06
        E 7 b2 01 07
        E 7 b2 01 08
        E 7 b2 01 09
        E 7 b2 01 0b
        E 7 b2 01 0c
        E 7 b2 01 0e
        E 7 b2 01 10
        E 7 b2 01 11
        E 7 b2 01 13
        E 7 b2 01 15
        E 7 b2 01 17
        E 7 b2 01 19
        E 7 b2 01 1b
        E 7 b2 01 1d
        E 7 b2 01 1f
        E 7 b2 01 21
        E 7 b2 01 23
        E 7 b2 01 25
        E 7 b2 01 27
        E 7 b2 01 2a
        E 7 b2 01 2c
        E 7 b2 01 20
        E 7 b2 01 21
        E 7 b2 01 23
        E 7 b2 01 24
        E 7 b2 01 26
        E 7 b2 01 27
        E 7 b2 01 29
        E 7 b2 01 2a
        E 7 b2 01 2c
        E 7 b2 01 2d
        E 7 b2 01 2f
        E 7 b2 01 30
        E 7 b2 01 31
        E 7 b2 01 33
        E 7 b2 01 34
        E 7 b2 01 35
        E 7 b2 01 36
        E 7 b2 01 37
        E 7 b2 01 38
        E 7 b2 01 39
        E 7 b2 01 3a
        E 7 b2 01 3b
        E 7 b2 01 3c
        E 7 b2 01 3c
        E 7 b2 01 3d
        E 7 b2 01 3d
        E 7 b2 01 3e
        E 7 b2 01 3e
        E 7 b2 01 3f
        E 7 b2 01 3f
        E 7 b2 01 3f
        E 7 b2 01 3f
        E 7 b2 01 3f
        E 7 b2 01 3f
        E 7 b2 01 3f
        E 7 b2 01 3f
        E 7 b2 01 3f
        E 7 b2 01 3e
        E 7 b2 01 3e
        E 7 b2 01 3d
        E 7 b2 01 3d
        E 7 b2 01 3c
        E 7 b2 01 3b
        E 7 b2 01 3a
        E 7 b2 01 3a
        E 7 b2 01 39
        E 7 b2 01 38
        E 7 b2 01 37
        E 7 b2 01 36
        E 7 b2 01 34
        E 7 b2 01 33
        E 7 b2 01 32
        E 7 b2 01 31
        E 7 b2 01 2f
        E 7 b2 01 2e
        E 7 b2 01 2c
        E 7 b2 01 2b
        E 7 b2 01 2a
        E 7 b2 01 28
        E 7 b2 01 27
        E 7 b2 01 25
        E 7 b2 01 23
        E 7 b2 01 22
        E 7 b2 01 20
        E 7 b2 01 1f
        E 7 b2 01 1d
        E 7 b2 01 1c
        E 7 b2 01 1a
        E 7 b2 01 18
        E 7 b2 01 17
        E 7 b2 01 15
        E 7 b2 01 14
        E 7 b2 01 13
        E 7 b2 01 11
        E 7 b2 01 10
        E 7 b2 01 0e
        E 7 b2 01 0d
        E 7 b2 01 0c
        E 7 b2 01 0b
        E 7 b2 01 09
        E 7 b2 01 08
        E 7 b2 01 07
        E 7 b2 01 06
        E 7 b2 01 05
        E 7 b2 01 05
        E 7 b2 01 04
        E 7 b2 01 03
        E 7 b2 01 02
        E 7 b2 01 02
        E 7 b2 01 01
        E 7 b2 01 01
        E 7 b2 01 00
        E 7 b2 01 00
        E 7 b2 01 00
        E 7 b2 01 00
        E 7 b2 01 00
        E 7 b2 01 00
        E 7 b2 01 00
        E 7 b2 01 00
        E 7 b2 01 00
        E 7 b2 01 01
        E 7 b2 01 01
        E 7 b2 01 02
        E 7 b2 01 02
        E 7 b2 01 03
        E 7 b2 01 03
        E 7 b2 01 04
        E 7 b2 01 05
        E 7 b2 01 06
        E 7 b2 01 07
        E 7 b2 01 08
        E 7 b2 01 09
        E 7 b2 01 0a
        E 7 b2 01 0b
        E 7 b2 01 0c
        E 7 b2 01 0e
        E 7 b2 01 0f
        E 7 b2 01 10
        E 7 b2 01 12
        E 7 b2 01 13
        E 7 b2 01 15
        E 7 b2 01 16
        E 7 b2 01 18
        E 7 b2 01 19
        E 7 b2 01 1b
        E 7 b2 01 1c
        E 7 b2 01 1e
        E 7 b2 01 20
        E 9 b2 01 20
        E 9 b2 01 21
        E 9 b2 01 23
        E 9 b2 01 24
        E 9 b2 01 26
        E 9 b2 01 27
        E 9 b2 01 29
        E 9 b2 01 2a
        E 9 b2 01 2c
        E 9 b2 01 2d
        E 9 b2 01 2f
        E 9 b2 01 30
        E 9 b2 01 31
        E 9 b2 01 33
        E 9 b2 01 34
        E 9 b2 01 35
        E 9 b2 01 36
        E 9 b2 01 37
        E 9 b2 01 38
        E 9 b2 01 39
        E 9 b2 01 3a
        E 9 b2 01 3b
        E 9 b2 01 3c
        E 9 b2 01 3c
        E 9 b2 01 3d
        E 9 b2 01 3d
        E 9 b2 01 3e
        E 9 b2 01 3e
        E 9 b2 01 3f
        E 9 b2 01 3f
        E 9 b2 01 3f
        E 9 b2 01 3f
        E 9 b2 01 3f
        E 9 b2 01 3f
        E 9 b2 01 3f
        E 9 b2 01 3f
        E 9 b2 01 3f
        E 9 b2 01 3e
        E 9 b2 01 3e
        E 9 b2 01 3d
        E 9 b2 01 3d
        E 9 b2 01 3c
        E 9 b2 01 3b
        E 9 b2 01 3a
        E 9 b2 01 3a
        E 9 b2 01 39
        E 9 b2 01 38
        E 9 b2 01 37
        E 9 b2 01 36
        E 9 b2 01 34
        E 9 b2 01 33
        E 9 b2 01 32
        E 9 b2 01 31
        E 9 b2 01 2f
        E 9 b2 01 2e
        E 9 b2 01 2c
        E 9 b2 01 2b
        E 9 b2 01 2a
        E 9 b2 01 28
        E 9 b2 01 27
        E 9 b2 01 25
        E 9 b2 01 23
        E 9 b2 01 22
        E 9 b2 01 20
        E 9 b2 01 1f
        E 9 b2 01 1d
        E 9 b2 01 1c
        E 9 b2 01 1a
        E 9 b2 01 18
        E 9 b2 01 17
        E 9 b2 01 15
        E 9 b2 01 14
        E 9 b2 01 13
        E 9 b2 01 11
        E 9 b2 01 10
        E 9 b2 01 0e
        E 9 b2 01 0d
        E 9 b2 01 0c
        E 9 b2 01 0b
        E 9 b2 01 09
        E 9 b2 01 08
        E 9 b2 01 07
        E 9 b2 01 06
        E 9 b2 01 05
        E 9 b2 01 05
        E 9 b2 01 04
        E 9 b2 01 03
        E 9 b2 01 02
        E 9 b2 01 02
        E 9 b2 01 01
        E 9 b2 01 01
        E 9 b2 01 00
        E 9 b2 01 00
        E 9 b2 01 00
        E 9 b2 01 00
        E 9 b2 01 00
        E 9 b2 01 00
        E 9 b2 01 00
        E 9 b2 01 00
        E 9 b2 01 00
        E 9 b2 01 01
        E 9 b2 01 01
        E 9 b2 01 02
        E 9 b2 01 02
        E 9 b2 01 03
        E 9 b2 01 03
        E 9 b2 01 04
        E 9 b2 01 05
        E 9 b2 01 06
        E 9 b2 01 07
        E 9 b2 01 08
        E 9 b2 01 09
        E 9 b2 01 0a
        E 9 b2 01 0b
        E 9 b2 01 0c
        E 9 b2 01 0e
        E 9 b2 01 0f
        E 9 b2 01 10
        E 9 b2 01 12
        E 9 b2 01 13
        E 9 b2 01 15
        E 9 b2 01 16
        E 9 b2 01 18
        E 9 b2 01 19
        E 9 b2 01 1b
        E 9 b2 01 1c
        E 9 b2 01 1e
        E 9 b2 01 20
        E 11 b2 01 40
        E 11 b2 01 43
        E 11 b2 01 46
        E 11 b2 01 49
        E 11 b2 01 4c
        E 11 b2 01 4f
        E 11 b2 01 52
        E 11 b2 01 55
        E 11 b2 01 58
        E 11 b2 01 5b
        E 11 b2 01 5e
        E 11 b2 01 60
        E 11 b2 01 63
        E 11 b2 01 66
        E 11 b2 01 68
        E 11 b2 01 6a
        E 11 b2 01 6d
        E 11 b2 01 6f
        E 11 b2 01 71
        E 11 b2 01 73
        E 11 b2 01 75
        E 11 b2 01 76
        E 11 b2 01 78
        E 11 b2 01 79
        E 11 b2 01 7a
        E 11 b2 01 7b
        E 11 b2 01 7c
        E 11 b2 01 7d
        E 11 b2 01 7e
        E 11 b2 01 7e
        E 11 b2 01 7f
        E 11 b2 01 7f
        E 11 b2 01 7f
        E 11 b2 01 7f
        E 11 b2 01 7f
        E 11 b2 01 7e
        E 11 b2 01 7e
        E 11 b2 01 7d
        E 11 b2 01 7c
        E 11 b2 01 7b
        E 11 b2 01 7a
        E 11 b2 01 78
        E 11 b2 01 77
        E 11 b2 01 75
        E 11 b2 01 74
        E 11 b2 01 72
        E 11 b2 01 70
        E 11 b2 01 6e
        E 11 b2 01 6c
        E 11 b2 01 69
        E 11 b2 01 67
        E 11 b2 01 64
        E 11 b2 01 62
        E 11 b2 01 5f
        E 11 b2 01 5c
        E 11 b2 01 59
        E 11 b2 01 57
        E 11 b2 01 54
        E 11 b2 01 51
        E 11 b2 01 4e
        E 11 b2 01 4a
        E 11 b2 01 47
        E 11 b2 01 44
        E 11 b2 01 41
        E 11 b2 01 3e
        E 11 b2 01 3b
        E 11 b2 01 38
        E 11 b2 01 35
        E 11 b2 01 31
        E 11 b2 01 2e
        E 11 b2 01 2b
        E 11 b2 01 28
        E 11 b2 01 26
        E 11 b2 01 23
        E 11 b2 01 20
        E 11 b2 01 1d
        E 11 b2 01 1b
        E 11 b2 01 18
        E 11 b2 01 16
        E 11 b2 01 13
        E 11 b2 01 11
        E 11 b2 01 0f
        E 11 b2 01 0d
        E 11 b2 01 0b
        E 11 b2 01 0a
        E 11 b2 01 08
        E 11 b2 01 07
        E 11 b2 01 05
        E 11 b2 01 04
        E 11 b2 01 03
        E 11 b2 01 02
        E 11 b2 01 01
        E 11 b2 01 01
        E 11 b2 01 00
        E 11 b2 01 00
        E 11 b2 01 00
        E 11 b2 01 00
        E 11 b2 01 00
        E 11 b2 01 01
        E 11 b2 01 01
        E 11 b2 01 02
        E 11 b2 01 03
        E 11 b2 01 04
        E 11 b2 01 05
        E 11 b2 01 06
        E 11 b2 01 07
        E 11 b2 01 09
        E 11 b2 01 0a
        E 11 b2 01 0c
        E 11 b2 01 0e
        E 11 b2 01 10
        E 11 b2 01 12
        E 11 b2 01 15
        E 11 b2 01 17
        E 11 b2 01 19
        E 11 b2 01 1c
        E 11 b2 01 1f
        E 11 b2 01 21
        E 11 b2 01 24
        E 11 b2 01 27
        E 11 b2 01 2a
        E 11 b2 01 2d
        E 11 b2 01 30
        E 11 b2 01 33
        E 11 b2 01 36
        E 11 b2 01 39
        E 11 b2 01 3c
        E 11 b2 01 40
        E 1 b2 01 39
        E 1 b2 01 3c
        E 1 b2 01 3f
        E 1 b2 01 41
        E 1 b2 01 44
        E 1 b2 01 47
        E 1 b2 01 49
        E 1 b2 01 4c
        E 1 b2 01 4f
        E 1 b2 01 51
        E 1 b2 01 54
        E 1 b2 01 56
        E 1 b2 01 59
        E 1 b2 01 5b
        E 1 b2 01 5d
        E 1 b2 01 5f
        E 1 b2 01 62
        E 1 b2 01 63
        E 1 b2 01 65
        E 1 b2 01 67
        E 1 b2 01 69
        E 1 b2 01 6a
        E 1 b2 01 6c
        E 1 b2 01 6c
        E 1 b2 01 6d
        E 1 b2 01 6e
        E 1 b2 01 6f
        E 1 b2 01 70
        E 1 b2 01 71
        E 1 b2 01 71
        E 1 b2 01 72
        E 1 b2 01 72
        E 1 b2 01 72
        E 1 b2 01 72
        E 1 b2 01 72
        E 1 b2 01 71
        E 1 b2 01 71
        E 1 b2 01 70
        E 1 b2 01 6f
        E 1 b2 01 6e
        E 1 b2 01 6d
        E 1 b2 01 6c
        E 1 b2 01 6b
        E 1 b2 01 69
        E 1 b2 01 68
        E 1 b2 01 66
        E 1 b2 01 64
        E 1 b2 01 63
        E 1 b2 01 61
        E 1 b2 01 5e
        E 1 b2 01 5c
        E 1 b2 01 5a
        E 1 b2 01 58
        E 1 b2 01 55
        E 1 b2 01 52
        E 1 b2 01 50
        E 1 b2 01 4e
        E 1 b2 01 4b
        E 1 b2 01 48
        E 1 b2 01 46
        E 1 b2 01 42
        E 1 b2 01 3f
        E 1 b2 01 3d
        E 1 b2 01 3a
        E 1 b2 01 37
        E 1 b2 01 35
        E 1 b2 01 32
        E 1 b2 01 2f
        E 1 b2 01 2c
        E 1 b2 01 29
        E 1 b2 01 26
        E 1 b2 01 24
        E 1 b2 01 22
        E 1 b2 01 1f
        E 1 b2 01 1c
        E 1 b2 01 1a
        E 1 b2 01 18
        E 1 b2 01 15
        E 1 b2 01 13
        E 1 b2 01 11
        E 1 b2 01 0f
        E 1 b2 01 0d
        E 1 b2 01 0b
        E 1 b2 01 09
        E 1 b2 01 09
        E 1 b2 01 07
        E 1 b2 01 06
        E 1 b2 01 04
        E 1 b2 01 03
        E 1 b2 01 02
        E 1 b2 01 01
        E 1 b2 01 00
        E 1 b2 01 00
        E 1 b2 01 00
        E 1 b2 01 00
        E 1 b2 01 00
        E 1 b2 01 00
        E 1 b2 01 00
        E 1 b2 01 00
        E 1 b2 01 00
        E 1 b2 01 01
        E 1 b2 01 02
        E 1 b2 01 03
        E 1 b2 01 04
        E 1 b2 01 05
        E 1 b2 01 06
        E 1 b2 01 08
        E 1 b2 01 09
        E 1 b2 01 0a
        E 1 b2 01 0c
        E 1 b2 01 0e
        E 1 b2 01 10
        E 1 b2 01 12
        E 1 b2 01 14
        E 1 b2 01 16
        E 1 b2 01 19
        E 1 b2 01 1b
        E 1 b2 01 1d
        E 1 b2 01 20
        E 1 b2 01 23
        E 1 b2 01 25
        E 1 b2 01 28
        E 1 b2 01 2b
        E 1 b2 01 2d
        E 1 b2 01 30
        E 1 b2 01 33
        E 1 b2 01 36
        E 1 b2 01 39
        E 5 b2 01 40
        E 5 b2 01 43
        E 5 b2 01 46
        E 5 b2 01 49
        E 5 b2 01 4c
        E 5 b2 01 4f
        E 5 b2 01 52
        E 5 b2 01 55
        E 5 b2 01 58
        E 5 b2 01 5b
        E 5 b2 01 5e
        E 5 b2 01 60
        E 5 b2 01 63
        E 5 b2 01 66
        E 5 b2 01 68
        E 5 b2 01 6a
        E 5 b2 01 6d
        E 5 b2 01 6f
        E 5 b2 01 71
        E 5 b2 01 73
        E 5 b2 01 75
        E 5 b2 01 76
        E 5 b2 01 78
        E 5 b2 01 79
        E 5 b2 01 7a
        E 5 b2 01 7b
        E 5 b2 01 7c
        E 5 b2 01 7d
        E 5 b2 01 7e
        E 5 b2 01 7e
        E 5 b2 01 7f
        E 5 b2 01 7f
        E 5 b2 01 7f
        E 5 b2 01 7f
        E 5 b2 01 7f
        E 5 b2 01 7e
        E 5 b2 01 7e
        E 5 b2 01 7d
        E 5 b2 01 7c
        E 5 b2 01 7b
        E 5 b2 01 7a
        E 5 b2 01 78
        E 5 b2 01 77
        E 5 b2 01 75
        E 5 b2 01 74
        E 5 b2 01 72
        E 5 b2 01 70
        E 5 b2 01 6e
        E 5 b2 01 6c
        E 5 b2 01 69
        E 5 b2 01 67
        E 5 b2 01 64
        E 5 b2 01 62
        E 5 b2 01 5f
        E 5 b2 01 5c
        E 5 b2 01 59
        E 5 b2 01 57
        E 5 b2 01 54
        E 5 b2 01 51
        E 5 b2 01 4e
        E 5 b2 01 4a
        E 5 b2 01 47
        E 5 b2 01 44
        E 5 b2 01 41
        E 5 b2 01 3e
        E 5 b2 01 3b
        E 5 b2 01 38
        E 5 b2 01 35
        E 5 b2 01 31
        E 5 b2 01 2e
        E 5 b2 01 2b
        E 5 b2 01 28
        E 5 b2 01 26
        E 5 b2 01 23
        E 5 b2 01 20
        E 5 b2 01 1d
        E 5 b2 01 1b
        E 5 b2 01 18
        E 5 b2 01 16
        E 5 b2 01 13
        E 5 b2 01 11
        E 5 b2 01 0f
        E 5 b2 01 0d
        E 5 b2 01 0b
        E 5 b2 01 0a
        E 5 b2 01 08
        E 5 b2 01 07
        E 5 b2 01 05
        E 5 b2 01 04
        E 5 b2 01 03
        E 5 b2 01 02
        E 5 b2 01 01
        E 5 b2 01 01
        E 5 b2 01 00
        E 5 b2 01 00
        E 5 b2 01 00
        E 5 b2 01 00
        E 5 b2 01 00
        E 5 b2 01 01
        E 5 b2 01 01
        E 5 b2 01 02
        E 5 b2 01 03
        E 5 b2 01 04
        E 5 b2 01 05
        E 5 b2 01 06
        E 5 b2 01 07
        E 5 b2 01 09
        E 5 b2 01 0a
        E 5 b2 01 0c
        E 5 b2 01 0e
        E 5 b2 01 10
        E 5 b2 01 12
        E 5 b2 01 15
        E 5 b2 01 17
        E 5 b2 01 19
        E 5 b2 01 1c
        E 5 b2 01 1f
        E 5 b2 01 21
        E 5 b2 01 24
        E 5 b2 01 27
        E 5 b2 01 2a
        E 5 b2 01 2d
        E 5 b2 01 30
        E 5 b2 01 33
        E 5 b2 01 36
        E 5 b2 01 39
        E 5 b2 01 3c
        E 5 b2 01 40
        E 9 b2 01 39
        E 9 b2 01 3c
        E 9 b2 01 3f
        E 9 b2 01 41
        E 9 b2 01 44
        E 9 b2 01 47
        E 9 b2 01 49
        E 9 b2 01 4c
        E 9 b2 01 4f
        E 9 b2 01 51
        E 9 b2 01 54
        E 9 b2 01 56
        E 9 b2 01 59
        E 9 b2 01 5b
        E 9 b2 01 5d
        E 9 b2 01 5f
        E 9 b2 01 62
        E 9 b2 01 63
        E 9 b2 01 65
        E 9 b2 01 67
        E 9 b2 01 69
        E 9 b2 01 6a
        E 9 b2 01 6c
        E 9 b2 01 6c
        E 9 b2 01 6d
        E 9 b2 01 6e
        E 9 b2 01 6f
        E 9 b2 01 70
        E 9 b2 01 71
        E 9 b2 01 71
        E 9 b2 01 72
        E 9 b2 01 72
        E 9 b2 01 72
        E 9 b2 01 72
        E 9 b2 01 72
        E 9 b2 01 71
        E 9 b2 01 71
        E 9 b2 01 70
        E 9 b2 01 6f
        E 9 b2 01 6e
        E 9 b2 01 6d
        E 9 b2 01 6c
        E 9 b2 01 6b
        E 9 b2 01 69
        E 9 b2 01 68
        E 9 b2 01 66
        E 9 b2 01 64
        E 9 b2 01 63
        E 9 b2 01 61
        E 9 b2 01 5e
        E 9 b2 01 5c
        E 9 b2 01 5a
        E 9 b2 01 58
        E 9 b2 01 55
        E 9 b2 01 52
        E 9 b2 01 50
        E 9 b2 01 4e
        E 9 b2 01 4b
        E 9 b2 01 48
        E 9 b2 01 46
        E 9 b2 01 42
        E 9 b2 01 3f
        E 9 b2 01 3d
        E 9 b2 01 3a
        E 9 b2 01 37
        E 9 b2 01 35
        E 9 b2 01 32
        E 9 b2 01 2f
        E 9 b2 01 2c
        E 9 b2 01 29
        E 9 b2 01 26
        E 9 b2 01 24
        E 9 b2 01 22
        E 9 b2 01 1f
        E 9 b2 01 1c
        E 9 b2 01 1a
        E 9 b2 01 18
        E 9 b2 01 15
        E 9 b2 01 13
        E 9 b2 01 11
        E 9 b2 01 0f
        E 9 b2 01 0d
        E 9 b2 01 0b
        E 9 b2 01 09
        E 9 b2 01 09
        E 9 b2 01 07
        E 9 b2 01 06
        E 9 b2 01 04
        E 9 b2 01 03
        E 9 b2 01 02
        E 9 b2 01 01
        E 9 b2 01 00
        E 9 b2 01 00
        E 9 b2 01 00
        E 9 b2 01 00
        E 9 b2 01 00
        E 9 b2 01 00
        E 9 b2 01 00
        E 9 b2 01 00
        E 9 b2 01 00
        E 9 b2 01 01
        E 9 b2 01 02
        E 9 b2 01 03
        E 9 b2 01 04
        E 9 b2 01 05
        E 9 b2 01 06
        E 9 b2 01 08
        E 9 b2 01 09
        E 9 b2 01 0a
        E 9 b2 01 0c
        E 9 b2 01 0e
        E 9 b2 01 10
        E 9 b2 01 12
        E 9 b2 01 14
        E 9 b2 01 16
        E 9 b2 01 19
        E 9 b2 01 1b
        E 9 b2 01 1d
        E 9 b2 01 20
        E 9 b2 01 23
        E 9 b2 01 25
        E 9 b2 01 28
        E 9 b2 01 2b
        E 9 b2 01 2d
        E 9 b2 01 30
        E 9 b2 01 33
        E 9 b2 01 36
        E 9 b2 01 39
        E 7 b2 01 20
        E 7 b2 01 21
        E 7 b2 01 23
        E 7 b2 01 24
        E 7 b2 01 26
        E 7 b2 01 27
        E 7 b2 01 29
        E 7 b2 01 2a
        E 7 b2 01 2c
        E 7 b2 01 2d
        E 7 b2 01 2f
        E 7 b2 01 30
        E 7 b2 01 31
        E 7 b2 01 33
        E 7 b2 01 34
        E 7 b2 01 35
        E 7 b2 01 36
        E 7 b2 01 37
        E 7 b2 01 38
        E 7 b2 01 39
        E 7 b2 01 3a
        E 7 b2 01 3b
        E 7 b2 01 3c
        E 7 b2 01 3c
        E 7 b2 01 3d
        E 7 b2 01 3d
        E 7 b2 01 3e
        E 7 b2 01 3e
        E 7 b2 01 3f
        E 7 b2 01 3f
        E 7 b2 01 3f
        E 7 b2 01 3f
        E 7 b2 01 3f
        E 7 b2 01 3f
        E 7 b2 01 3f
        E 7 b2 01 3f
        E 7 b2 01 3f
        E 7 b2 01 3e
        E 7 b2 01 3e
        E 7 b2 01 3d
        E 7 b2 01 3d
        E 7 b2 01 3c
        E 7 b2 01 3b
        E 7 b2 01 3a
        E 7 b2 01 3a
        E 7 b2 01 39
        E 7 b2 01 38
        E 7 b2 01 37
        E 7 b2 01 36
        E 7 b2 01 34
        E 7 b2 01 33
        E 7 b2 01 32
        E 7 b2 01 31
        E 7 b2 01 2f
        E 7 b2 01 2e
        E 7 b2 01 2c
        E 7 b2 01 2b
        E 7 b2 01 2a
        E 7 b2 01 28
        E 7 b2 01 27
        E 7 b2 01 25
        E 7 b2 01 23
        E 7 b2 01 22
        E 7 b2 01 20
        E 7 b2 01 1f
        E 7 b2 01 1d
        E 7 b2 01 1c
        E 7 b2 01 1a
        E 7 b2 01 18
        E 7 b2 01 17
        E 7 b2 01 15
        E 7 b2 01 14
        E 7 b2 01 13
        E 7 b2 01 11
        E 7 b2 01 10
        E 7 b2 01 0e
        E 7 b2 01 0d
        E 7 b2 01 0c
        E 7 b2 01 0b
        E 7 b2 01 09
        E 7 b2 01 08
        E 7 b2 01 07
        E 7 b2 01 06
        E 7 b2 01 05
        E 7 b2 01 05
        E 7 b2 01 04
        E 7 b2 01 03
        E 7 b2 01 02
        E 7 b2 01 02
        E 7 b2 01 01
        E 7 b2 01 01
        E 7 b2 01 00
        E 7 b2 01 00
        E 7 b2 01 00
        E 7 b2 01 00
        E 7 b2 01 00
        E 7 b2 01 00
        E 7 b2 01 00
        E 7 b2 01 00
        E 7 b2 01 00
        E 7 b2 01 01
        E 7 b2 01 01
        E 7 b2 01 02
        E 7 b2 01 02
        E 7 b2 01 03
        E 7 b2 01 03
        E 7 b2 01 04
        E 7 b2 01 05
        E 7 b2 01 06
        E 7 b2 01 07
        E 7 b2 01 08
        E 7 b2 01 09
        E 7 b2 01 0a
        E 7 b2 01 0b
        E 7 b2 01 0c
        E 7 b2 01 0e
        E 7 b2 01 0f
        E 7 b2 01 10
        E 7 b2 01 12
        E 7 b2 01 13
        E 7 b2 01 15
        E 7 b2 01 16
        E 7 b2 01 18
        E 7 b2 01 19
        E 7 b2 01 1b
        E 7 b2 01 1c
        E 7 b2 01 1e
        E 7 b2 01 20
        E 7 b2 01 20
        E 7 b2 01 21
        E 7 b2 01 23
        E 7 b2 01 24
        E 7 b2 01 26
        E 7 b2 01 27
        E 7 b2 01 29
        E 7 b2 01 2a
        E 7 b2 01 2c
        E 7 b2 01 2d
        E 7 b2 01 2f
        E 7 b2 01 30
        E 7 b2 01 31
        E 7 b2 01 33
        E 7 b2 01 34
        E 7 b2 01 35
        E 7 b2 01 36
        E 7 b2 01 37
        E 7 b2 01 38
        E 7 b2 01 39
        E 7 b2 01 3a
        E 7 b2 01 3b
        E 7 b2 01 3c
        E 7 b2 01 3c
        E 7 b2 01 3d
        E 7 b2 01 3d
        E 7 b2 01 3e
        E 7 b2 01 3e
        E 7 b2 01 3f
        E 7 b2 01 3f
        E 7 b2 01 3f
        E 7 b2 01 3f
        E 7 b2 01 3f
        E 7 b2 01 3f
        E 7 b2 01 3f
        E 7 b2 01 3f
        E 7 b2 01 3f
        E 7 b2 01 3e
        E 7 b2 01 3e
        E 7 b2 01 3d
        E 7 b2 01 3d
        E 7 b2 01 3c
        E 7 b2 01 3b
        E 7 b2 01 3a
        E 7 b2 01 3a
        E 7 b2 01 39
        E 7 b2 01 38
        E 7 b2 01 37
        E 7 b2 01 36
        E 7 b2 01 34
        E 7 b2 01 33
        E 7 b2 01 32
        E 7 b2 01 31
        E 7 b2 01 2f
        E 7 b2 01 2e
        E 7 b2 01 2c
        E 7 b2 01 2b
        E 7 b2 01 2a
        E 7 b2 01 28
        E 7 b2 01 27
        E 7 b2 01 25
        E 7 b2 01 23
        E 7 b2 01 22
        E 7 b2 01 20
        E 7 b2 01 1f
        E 7 b2 01 1d
        E 7 b2 01 1c
        E 7 b2 01 1a
        E 7 b2 01 18
        E 7 b2 01 17
        E 7 b2 01 15
        E 7 b2 01 14
        E 7 b2 01 13
        E 7 b2 01 11
        E 7 b2 01 10
        E 7 b2 01 0e
        E 7 b2 01 0d
        E 7 b2 01 0c
        E 7 b2 01 0b
        E 7 b2 01 09
        E 7 b2 01 08
        E 7 b2 01 07
        E 7 b2 01 06
        E 7 b2 01 05
        E 7 b2 01 05
        E 7 b2 01 04
        E 7 b2 01 03
        E 7 b2 01 02
        E 7 b2 01 02
        E 7 b2 01 01
        E 7 b2 01 01
        E 7 b2 01 00
        E 7 b2 01 00
        E 7 b2 01 00
        E 7 b2 01 00
        E 7 b2 01 00
        E 7 b2 01 00
        E 7 b2 01 00
        E 7 b2 01 00
        E 7 b2 01 00
        E 7 b2 01 01
        E 7 b2 01 01
        E 7 b2 01 02
        E 7 b2 01 02
        E 7 b2 01 03
        E 7 b2 01 03
        E 7 b2 01 04
        E 7 b2 01 05
        E 7 b2 01 06
        E 7 b2 01 07
        E 7 b2 01 08
        E 7 b2 01 09
        E 7 b2 01 0a
        E 7 b2 01 0b
        E 7 b2 01 0c
        E 7 b2 01 0e
        E 7 b2 01 0f
        E 7 b2 01 10
        E 7 b2 01 12
        E 7 b2 01 13
        E 7 b2 01 15
        E 7 b2 01 16
        E 7 b2 01 18
        E 7 b2 01 19
        E 7 b2 01 1b
        E 7 b2 01 1c
        E 7 b2 01 1e
        E 7 b2 01 20
        E 14 b2 01 2c
        E 14 b2 01 2e
        E 14 b2 01 31
        E 14 b2 01 33
        E 14 b2 01 35
        E 14 b2 01 37
        E 14 b2 01 39
        E 14 b2 01 3b
        E 14 b2 01 3d
        E 14 b2 01 3f
        E 14 b2 01 41
        E 14 b2 01 43
        E 14 b2 01 45
        E 14 b2 01 47
        E 14 b2 01 48
        E 14 b2 01 4a
        E 14 b2 01 4c
        E 14 b2 01 4d
        E 14 b2 01 4f
        E 14 b2 01 50
        E 14 b2 01 51
        E 14 b2 01 52
        E 14 b2 01 54
        E 14 b2 01 54
        E 14 b2 01 55
        E 14 b2 01 56
        E 14 b2 01 56
        E 14 b2 01 57
        E 14 b2 01 58
        E 14 b2 01 58
        E 14 b2 01 58
        E 14 b2 01 58
        E 14 b2 01 58
        E 14 b2 01 58
        E 14 b2 01 58
        E 14 b2 01 58
        E 14 b2 01 58
        E 14 b2 01 57
        E 14 b2 01 56
        E 14 b2 01 56
        E 14 b2 01 55
        E 14 b2 01 54
        E 14 b2 01 53
        E 14 b2 01 51
        E 14 b2 01 51
        E 14 b2 01 4f
        E 14 b2 01 4e
        E 14 b2 01 4d
        E 14 b2 01 4b
        E 14 b2 01 49
        E 14 b2 01 48
        E 14 b2 01 46
        E 14 b2 01 44
        E 14 b2 01 42
        E 14 b2 01 40
        E 14 b2 01 3e
        E 14 b2 01 3c
        E 14 b2 01 3a
        E 14 b2 01 38
        E 14 b2 01 36
        E 14 b2 01 33
        E 14 b2 01 31
        E 14 b2 01 2f
        E 14 b2 01 2d
        E 14 b2 01 2b
        E 14 b2 01 29
        E 14 b2 01 27
        E 14 b2 01 25
        E 14 b2 01 22
        E 14 b2 01 20
        E 14 b2 01 1e
        E 14 b2 01 1c
        E 14 b2 01 1a
        E 14 b2 01 18
        E 14 b2 01 16
        E 14 b2 01 14
        E 14 b2 01 12
        E 14 b2 01 10
        E 14 b2 01 0f
        E 14 b2 01 0d
        E 14 b2 01 0b
        E 14 b2 01 0a
        E 14 b2 01 09
        E 14 b2 01 07
        E 14 b2 01 07
        E 14 b2 01 05
        E 14 b2 01 04
        E 14 b2 01 03
        E 14 b2 01 02
        E 14 b2 01 02
        E 14 b2 01 01
        E 14 b2 01 00
        E 14 b2 01 00
        E 14 b2 01 00
        E 14 b2 01 00
        E 14 b2 01 00
        E 14 b2 01 00
        E 14 b2 01 00
        E 14 b2 01 00
        E 14 b2 01 00
        E 14 b2 01 01
        E 14 b2 01 02
        E 14 b2 01 02
        E 14 b2 01 03
        E 14 b2 01 04
        E 14 b2 01 04
        E 14 b2 01 06
        E 14 b2 01 07
        E 14 b2 01 08
        E 14 b2 01 09
        E 14 b2 01 0b
        E 14 b2 01 0c
        E 14 b2 01 0e
        E 14 b2 01 10
        E 14 b2 01 11
        E 14 b2 01 13
        E 14 b2 01 15
        E 14 b2 01 17
        E 14 b2 01 19
        E 14 b2 01 1b
        E 14 b2 01 1d
        E 14 b2 01 1f
        E 14 b2 01 21
        E 14 b2 01 23
        E 14 b2 01 25
        E 14 b2 01 27
        E 14 b2 01 2a
        E 14 b2 01 2c
        E 12 b2 01 33
        E 12 b2 01 35
        E 12 b2 01 37
        E 12 b2 01 3a
        E 12 b2 01 3c
        E 12 b2 01 3f
        E 12 b2 01 41
        E 12 b2 01 44
        E 12 b2 01 46
        E 12 b2 01 48
        E 12 b2 01 4b
        E 12 b2 01 4c
        E 12 b2 01 4f
        E 12 b2 01 51
        E 12 b2 01 53
        E 12 b2 01 54
        E 12 b2 01 57
        E 12 b2 01 58
        E 12 b2 01 5a
        E 12 b2 01 5b
        E 12 b2 01 5d
        E 12 b2 01 5e
        E 12 b2 01 5f
        E 12 b2 01 60
        E 12 b2 01 61
        E 12 b2 01 62
        E 12 b2 01 63
        E 12 b2 01 63
        E 12 b2 01 64
        E 12 b2 01 64
        E 12 b2 01 65
        E 12 b2 01 65
        E 12 b2 01 65
        E 12 b2 01 65
        E 12 b2 01 65
        E 12 b2 01 64
        E 12 b2 01 64
        E 12 b2 01 63
        E 12 b2 01 63
        E 12 b2 01 62
        E 12 b2 01 61
        E 12 b2 01 5f
        E 12 b2 01 5f
        E 12 b2 01 5d
        E 12 b2 01 5c
        E 12 b2 01 5b
        E 12 b2 01 59
        E 12 b2 01 57
        E 12 b2 01 56
        E 12 b2 01 54
        E 12 b2 01 52
        E 12 b2 01 50
        E 12 b2 01 4e
        E 12 b2 01 4c
        E 12 b2 01 49
        E 12 b2 01 47
        E 12 b2 01 45
        E 12 b2 01 43
        E 12 b2 01 40
        E 12 b2 01 3e
        E 12 b2 01 3b
        E 12 b2 01 38
        E 12 b2 01 36
        E 12 b2 01 33
        E 12 b2 01 31
        E 12 b2 01 2f
        E 12 b2 01 2c
        E 12 b2 01 2a
        E 12 b2 01 27
        E 12 b2 01 24
        E 12 b2 01 22
        E 12 b2 01 1f
        E 12 b2 01 1e
        E 12 b2 01 1b
        E 12 b2 01 19
        E 12 b2 01 17
        E 12 b2 01 15
        E 12 b2 01 13
        E 12 b2 01 11
        E 12 b2 01 0f
        E 12 b2 01 0d
        E 12 b2 01 0b
        E 12 b2 01 0a
        E 12 b2 01 08
        E 12 b2 01 07
        E 12 b2 01 06
        E 12 b2 01 05
        E 12 b2 01 03
        E 12 b2 01 03
        E 12 b2 01 02
        E 12 b2 01 01
        E 12 b2 01 00
        E 12 b2 01 00
        E 12 b2 01 00
        E 12 b2 01 00
        E 12 b2 01 00
        E 12 b2 01 00
        E 12 b2 01 00
        E 12 b2 01 00
        E 12 b2 01 00
        E 12 b2 01 01
        E 12 b2 01 02
        E 12 b2 01 03
        E 12 b2 01 03
        E 12 b2 01 04
        E 12 b2 01 05
        E 12 b2 01 07
        E 12 b2 01 07
        E 12 b2 01 09
        E 12 b2 01 0b
        E 12 b2 01 0c
        E 12 b2 01 0e
        E 12 b2 01 10
        E 12 b2 01 12
        E 12 b2 01 14
        E 12 b2 01 16
        E 12 b2 01 18
        E 12 b2 01 1a
        E 12 b2 01 1c
        E 12 b2 01 1f
        E 12 b2 01 21
        E 12 b2 01 24
        E 12 b2 01 26
        E 12 b2 01 28
        E 12 b2 01 2b
        E 12 b2 01 2d
        E 12 b2 01 2f
        E 12 b2 01 33
        E 14 b2 01 06
        E 14 b2 01 06
        E 14 b2 01 07
        E 14 b2 01 07
        E 14 b2 01 07
        E 14 b2 01 07
        E 14 b2 01 08
        E 14 b2 01 08
        E 14 b2 01 08
        E 14 b2 01 09
        E 14 b2 01 09
        E 14 b2 01 09
        E 14 b2 01 09
        E 14 b2 01 0a
        E 14 b2 01 0a
        E 14 b2 01 0a
        E 14 b2 01 0a
        E 14 b2 01 0b
        E 14 b2 01 0b
        E 14 b2 01 0b
        E 14 b2 01 0b
        E 14 b2 01 0b
        E 14 b2 01 0c
        E 14 b2 01 0c
        E 14 b2 01 0c
        E 14 b2 01 0c
        E 14 b2 01 0c
        E 14 b2 01 0c
        E 14 b2 01 0c
        E 14 b2 01 0c
        E 14 b2 01 0c
        E 14 b2 01 0c
        E 14 b2 01 0c
        E 14 b2 01 0c
        E 14 b2 01 0c
        E 14 b2 01 0c
        E 14 b2 01 0c
        E 14 b2 01 0c
        E 14 b2 01 0c
        E 14 b2 01 0c
        E 14 b2 01 0c
        E 14 b2 01 0c
        E 14 b2 01 0b
        E 14 b2 01 0b
        E 14 b2 01 0b
        E 14 b2 01 0b
        E 14 b2 01 0b
        E 14 b2 01 0b
        E 14 b2 01 0a
        E 14 b2 01 0a
        E 14 b2 01 0a
        E 14 b2 01 0a
        E 14 b2 01 09
        E 14 b2 01 09
        E 14 b2 01 09
        E 14 b2 01 08
        E 14 b2 01 08
        E 14 b2 01 08
        E 14 b2 01 08
        E 14 b2 01 07
        E 14 b2 01 07
        E 14 b2 01 07
        E 14 b2 01 06
        E 14 b2 01 06
        E 14 b2 01 06
        E 14 b2 01 05
        E 14 b2 01 05
        E 14 b2 01 05
        E 14 b2 01 04
        E 14 b2 01 04
        E 14 b2 01 04
        E 14 b2 01 04
        E 14 b2 01 03
        E 14 b2 01 03
        E 14 b2 01 03
        E 14 b2 01 02
        E 14 b2 01 02
        E 14 b2 01 02
        E 14 b2 01 02
        E 14 b2 01 01
        E 14 b2 01 01
        E 14 b2 01 01
        E 14 b2 01 01
        E 14 b2 01 01
        E 14 b2 01 01
        E 14 b2 01 00
        E 14 b2 01 00
        E 14 b2 01 00
        E 14 b2 01 00
        E 14 b2 01 00
        E 14 b2 01 00
        E 14 b2 01 00
        E 14 b2 01 00
        E 14 b2 01 00
        E 14 b2 01 00
        E 14 b2 01 00
        E 14 b2 01 00
        E 14 b2 01 00
        E 14 b2 01 00
        E 14 b2 01 00
        E 14 b2 01 00
        E 14 b2 01 00
        E 14 b2 01 00
        E 14 b2 01 00
        E 14 b2 01 00
        E 14 b2 01 00
        E 14 b2 01 00
        E 14 b2 01 01
        E 14 b2 01 01
        E 14 b2 01 01
        E 14 b2 01 01
        E 14 b2 01 01
        E 14 b2 01 02
        E 14 b2 01 02
        E 14 b2 01 02
        E 14 b2 01 02
        E 14 b2 01 03
        E 14 b2 01 03
        E 14 b2 01 03
        E 14 b2 01 03
        E 14 b2 01 04
        E 14 b2 01 04
        E 14 b2 01 04
        E 14 b2 01 05
        E 14 b2 01 05
        E 14 b2 01 05
        E 14 b2 01 06
        E 14 b2 01 06
        E 12 b2 01 19
        E 12 b2 01 1a
        E 12 b2 01 1c
        E 12 b2 01 1d
        E 12 b2 01 1e
        E 12 b2 01 1f
        E 12 b2 01 20
        E 12 b2 01 22
        E 12 b2 01 23
        E 12 b2 01 24
        E 12 b2 01 25
        E 12 b2 01 26
        E 12 b2 01 27
        E 12 b2 01 28
        E 12 b2 01 29
        E 12 b2 01 2a
        E 12 b2 01 2b
        E 12 b2 01 2c
        E 12 b2 01 2d
        E 12 b2 01 2e
        E 12 b2 01 2e
        E 12 b2 01 2f
        E 12 b2 01 30
        E 12 b2 01 30
        E 12 b2 01 30
        E 12 b2 01 31
        E 12 b2 01 31
        E 12 b2 01 32
        E 12 b2 01 32
        E 12 b2 01 32
        E 12 b2 01 32
        E 12 b2 01 32
        E 12 b2 01 32
        E 12 b2 01 32
        E 12 b2 01 32
        E 12 b2 01 32
        E 12 b2 01 32
        E 12 b2 01 32
        E 12 b2 01 31
        E 12 b2 01 31
        E 12 b2 01 30
        E 12 b2 01 30
        E 12 b2 01 2f
        E 12 b2 01 2e
        E 12 b2 01 2e
        E 12 b2 01 2d
        E 12 b2 01 2c
        E 12 b2 01 2c
        E 12 b2 01 2b
        E 12 b2 01 2a
        E 12 b2 01 29
        E 12 b2 01 28
        E 12 b2 01 27
        E 12 b2 01 26
        E 12 b2 01 24
        E 12 b2 01 23
        E 12 b2 01 22
        E 12 b2 01 21
        E 12 b2 01 20
        E 12 b2 01 1f
        E 12 b2 01 1d
        E 12 b2 01 1c
        E 12 b2 01 1b
        E 12 b2 01 1a
        E 12 b2 01 18
        E 12 b2 01 17
        E 12 b2 01 16
        E 12 b2 01 15
        E 12 b2 01 13
        E 12 b2 01 12
        E 12 b2 01 11
        E 12 b2 01 10
        E 12 b2 01 0f
        E 12 b2 01 0e
        E 12 b2 01 0c
        E 12 b2 01 0b
        E 12 b2 01 0a
        E 12 b2 01 09
        E 12 b2 01 08
        E 12 b2 01 07
        E 12 b2 01 06
        E 12 b2 01 06
        E 12 b2 01 05
        E 12 b2 01 04
        E 12 b2 01 04
        E 12 b2 01 03
        E 12 b2 01 02
        E 12 b2 01 02
        E 12 b2 01 01
        E 12 b2 01 01
        E 12 b2 01 00
        E 12 b2 01 00
        E 12 b2 01 00
        E 12 b2 01 00
        E 12 b2 01 00
        E 12 b2 01 00
        E 12 b2 01 00
        E 12 b2 01 00
        E 12 b2 01 00
        E 12 b2 01 00
        E 12 b2 01 00
        E 12 b2 01 01
        E 12 b2 01 01
        E 12 b2 01 02
        E 12 b2 01 02
        E 12 b2 01 02
        E 12 b2 01 03
        E 12 b2 01 04
        E 12 b2 01 04
        E 12 b2 01 05
        E 12 b2 01 06
        E 12 b2 01 07
        E 12 b2 01 08
        E 12 b2 01 09
        E 12 b2 01 0a
        E 12 b2 01 0b
        E 12 b2 01 0c
        E 12 b2 01 0d
        E 12 b2 01 0e
        E 12 b2 01 0f
        E 12 b2 01 10
        E 12 b2 01 12
        E 12 b2 01 13
        E 12 b2 01 14
        E 12 b2 01 15
        E 12 b2 01 16
        E 12 b2 01 18
        E 12 b2 01 19
        E 7 b2 01 2c
        E 7 b2 01 2e
        E 7 b2 01 31
        E 7 b2 01 33
        E 7 b2 01 35
        E 7 b2 01 37
        E 7 b2 01 39
        E 7 b2 01 3b
        E 7 b2 01 3d
        E 7 b2 01 3f
        E 7 b2 01 41
        E 7 b2 01 43
        E 7 b2 01 45
        E 7 b2 01 47
        E 7 b2 01 48
        E 7 b2 01 4a
        E 7 b2 01 4c
        E 7 b2 01 4d
        E 7 b2 01 4f
        E 7 b2 01 50
        E 7 b2 01 51
        E 7 b2 01 52
        E 7 b2 01 54
        E 7 b2 01 54
        E 7 b2 01 55
        E 7 b2 01 56
        E 7 b2 01 56
        E 7 b2 01 57
        E 7 b2 01 58
        E 7 b2 01 58
        E 7 b2 01 58
        E 7 b2 01 58
        E 7 b2 01 58
        E 7 b2 01 58
        E 7 b2 01 58
        E 7 b2 01 58
        E 7 b2 01 58
        E 7 b2 01 57
        E 7 b2 01 56
        E 7 b2 01 56
        E 7 b2 01 55
        E 7 b2 01 54
        E 7 b2 01 53
        E 7 b2 01 51
        E 7 b2 01 51
        E 7 b2 01 4f
        E 7 b2 01 4e
        E 7 b2 01 4d
        E 7 b2 01 4b
        E 7 b2 01 49
        E 7 b2 01 48
        E 7 b2 01 46
        E 7 b2 01 44
        E 7 b2 01 42
        E 7 b2 01 40
        E 7 b2 01 3e
        E 7 b2 01 3c
        E 7 b2 01 3a
        E 7 b2 01 38
        E 7 b2 01 36
        E 7 b2 01 33
        E 7 b2 01 31
        E 7 b2 01 2f
        E 7 b2 01 2d
        E 7 b2 01 2b
        E 7 b2 01 29
        E 7 b2 01 27
        E 7 b2 01 25
        E 7 b2 01 22
        E 7 b2 01 20
        E 7 b2 01 1e
        E 7 b2 01 1c
        E 7 b2 01 1a
        E 7 b2 01 18
        E 7 b2 01 16
        E 7 b2 01 14
        E 7 b2 01 12
        E 7 b2 01 10
        E 7 b2 01 0f
        E 7 b2 01 0d
        E 7 b2 01 0b
        E 7 b2 01 0a
        E 7 b2 01 09
        E 7 b2 01 07
        E 7 b2 01 07
        E 7 b2 01 05
        E 7 b2 01 04
        E 7 b2 01 03
        E 7 b2 01 02
        E 7 b2 01 02
        E 7 b2 01 01
        E 7 b2 01 00
        E 7 b2 01 00
        E 7 b2 01 00
        E 7 b2 01 00
        E 7 b2 01 00
        E 7 b2 01 00
        E 7 b2 01 00
        E 7 b2 01 00
        E 7 b2 01 00
        E 7 b2 01 01
        E 7 b2 01 02
        E 7 b2 01 02
        E 7 b2 01 03
        E 7 b2 01 04
        E 7 b2 01 04
        E 7 b2 01 06
        E 7 b2 01 07
        E 7 b2 01 08
        E 7 b2 01 09
        E 7 b2 01 0b
        E 7 b2 01 0c
        E 7 b2 01 0e
        E 7 b2 01 10
        E 7 b2 01 11
        E 7 b2 01 13
        E 7 b2 01 15
        E 7 b2 01 17
        E 7 b2 01 19
        E 7 b2 01 1b
        E 7 b2 01 1d
        E 7 b2 01 1f
        E 7 b2 01 21
        E 7 b2 01 23
        E 7 b2 01 25
        E 7 b2 01 27
        E 7 b2 01 2a
        E 7 b2 01 2c
        E 7 b2 01 20
        E 7 b2 01 21
        E 7 b2 01 23
        E 7 b2 01 24
        E 7 b2 01 26
        E 7 b2 01 27
        E 7 b2 01 29
        E 7 b2 01 2a
        E 7 b2 01 2c
        E 7 b2 01 2d
        E 7 b2 01 2f
        E 7 b2 01 30
        E 7 b2 01 31
        E 7 b2 01 33
        E 7 b2 01 34
        E 7 b2 01 35
        E 7 b2 01 36
        E 7 b2 01 37
        E 7 b2 01 38
        E 7 b2 01 39
        E 7 b2 01 3a
        E 7 b2 01 3b
        E 7 b2 01 3c
        E 7 b2 01 3c
        E 7 b2 01 3d
        E 7 b2 01 3d
        E 7 b2 01 3e
        E 7 b2 01 3e
        E 7 b2 01 3f
        E 7 b2 01 3f
        E 7 b2 01 3f
        E 7 b2 01 3f
        E 7 b2 01 3f
        E 7 b2 01 3f
        E 7 b2 01 3f
        E 7 b2 01 3f
        E 7 b2 01 3f
        E 7 b2 01 3e
        E 7 b2 01 3e
        E 7 b2 01 3d
        E 7 b2 01 3d
        E 7 b2 01 3c
        E 7 b2 01 3b
        E 7 b2 01 3a
        E 7 b2 01 3a
        E 7 b2 01 39
        E 7 b2 01 38
        E 7 b2 01 37
        E 7 b2 01 36
        E 7 b2 01 34
        E 7 b2 01 33
        E 7 b2 01 32
        E 7 b2 01 31
        E 7 b2 01 2f
        E 7 b2 01 2e
        E 7 b2 01 2c
        E 7 b2 01 2b
        E 7 b2 01 2a
        E 7 b2 01 28
        E 7 b2 01 27
        E 7 b2 01 25
        E 7 b2 01 23
        E 7 b2 01 22
        E 7 b2 01 20
        E 7 b2 01 1f
        E 7 b2 01 1d
        E 7 b2 01 1c
        E 7 b2 01 1a
        E 7 b2 01 18
        E 7 b2 01 17
        E 7 b2 01 15
        E 7 b2 01 14
        E 7 b2 01 13
        E 7 b2 01 11
        E 7 b2 01 10
        E 7 b2 01 0e
        E 7 b2 01 0d
        E 7 b2 01 0c
        E 7 b2 01 0b
        E 7 b2 01 09
        E 7 b2 01 08
        E 7 b2 01 07
        E 7 b2 01 06
        E 7 b2 01 05
        E 7 b2 01 05
        E 7 b2 01 04
        E 7 b2 01 03
        E 7 b2 01 02
        E 7 b2 01 02
        E 7 b2 01 01
        E 7 b2 01 01
        E 7 b2 01 00
        E 7 b2 01 00
        E 7 b2 01 00
        E 7 b2 01 00
        E 7 b2 01 00
        E 7 b2 01 00
        E 7 b2 01 00
        E 7 b2 01 00
        E 7 b2 01 00
        E 7 b2 01 01
        E 7 b2 01 01
        E 7 b2 01 02
        E 7 b2 01 02
        E 7 b2 01 03
        E 7 b2 01 03
        E 7 b2 01 04
        E 7 b2 01 05
        E 7 b2 01 06
        E 7 b2 01 07
        E 7 b2 01 08
        E 7 b2 01 09
        E 7 b2 01 0a
        E 7 b2 01 0b
        E 7 b2 01 0c
        E 7 b2 01 0e
        E 7 b2 01 0f
        E 7 b2 01 10
        E 7 b2 01 12
        E 7 b2 01 13
        E 7 b2 01 15
        E 7 b2 01 16
        E 7 b2 01 18
        E 7 b2 01 19
        E 7 b2 01 1b
        E 7 b2 01 1c
        E 7 b2 01 1e
        E 7 b2 01 20
        E 1 b2 01 39
        E 1 b2 01 3c
        E 1 b2 01 3f
        E 1 b2 01 41
        E 1 b2 01 44
        E 1 b2 01 47
        E 1 b2 01 49
        E 1 b2 01 4c
        E 1 b2 01 4f
        E 1 b2 01 51
        E 1 b2 01 54
        E 1 b2 01 56
        E 1 b2 01 59
        E 1 b2 01 5b
        E 1 b2 01 5d
        E 1 b2 01 5f
        E 1 b2 01 62
        E 1 b2 01 63
        E 1 b2 01 65
        E 1 b2 01 67
        E 1 b2 01 69
        E 1 b2 01 6a
        E 1 b2 01 6c
        E 1 b2 01 6c
        E 1 b2 01 6d
        E 1 b2 01 6e
        E 1 b2 01 6f
        E 1 b2 01 70
        E 1 b2 01 71
        E 1 b2 01 71
        E 1 b2 01 72
        E 1 b2 01 72
        E 1 b2 01 72
        E 1 b2 01 72
        E 1 b2 01 72
        E 1 b2 01 71
        E 1 b2 01 71
        E 1 b2 01 70
        E 1 b2 01 6f
        E 1 b2 01 6e
        E 1 b2 01 6d
        E 1 b2 01 6c
        E 1 b2 01 6b
        E 1 b2 01 69
        E 1 b2 01 68
        E 1 b2 01 66
        E 1 b2 01 64
        E 1 b2 01 63
        E 1 b2 01 61
        E 1 b2 01 5e
        E 1 b2 01 5c
        E 1 b2 01 5a
        E 1 b2 01 58
        E 1 b2 01 55
        E 1 b2 01 52
        E 1 b2 01 50
        E 1 b2 01 4e
        E 1 b2 01 4b
        E 1 b2 01 48
        E 1 b2 01 46
        E 1 b2 01 42
        E 1 b2 01 3f
        E 1 b2 01 3d
        E 1 b2 01 3a
        E 1 b2 01 37
        E 1 b2 01 35
        E 1 b2 01 32
        E 1 b2 01 2f
        E 1 b2 01 2c
        E 1 b2 01 29
        E 1 b2 01 26
        E 1 b2 01 24
        E 1 b2 01 22
        E 1 b2 01 1f
        E 1 b2 01 1c
        E 1 b2 01 1a
        E 1 b2 01 18
        E 1 b2 01 15
        E 1 b2 01 13
        E 1 b2 01 11
        E 1 b2 01 0f
        E 1 b2 01 0d
        E 1 b2 01 0b
        E 1 b2 01 09
        E 1 b2 01 09
        E 1 b2 01 07
        E 1 b2 01 06
        E 1 b2 01 04
        E 1 b2 01 03
        E 1 b2 01 02
        E 1 b2 01 01
        E 1 b2 01 00
        E 1 b2 01 00
        E 1 b2 01 00
        E 1 b2 01 00
        E 1 b2 01 00
        E 1 b2 01 00
        E 1 b2 01 00
        E 1 b2 01 00
        E 1 b2 01 00
        E 1 b2 01 01
        E 1 b2 01 02
        E 1 b2 01 03
        E 1 b2 01 04
        E 1 b2 01 05
        E 1 b2 01 06
        E 1 b2 01 08
        E 1 b2 01 09
        E 1 b2 01 0a
        E 1 b2 01 0c
        E 1 b2 01 0e
        E 1 b2 01 10
        E 1 b2 01 12
        E 1 b2 01 14
        E 1 b2 01 16
        E 1 b2 01 19
        E 1 b2 01 1b
        E 1 b2 01 1d
        E 1 b2 01 20
        E 1 b2 01 23
        E 1 b2 01 25
        E 1 b2 01 28
        E 1 b2 01 2b
        E 1 b2 01 2d
        E 1 b2 01 30
        E 1 b2 01 33
        E 1 b2 01 36
        E 1 b2 01 39
        E 5 b2 01 40
        E 5 b2 01 43
        E 5 b2 01 46
        E 5 b2 01 49
        E 5 b2 01 4c
        E 5 b2 01 4f
        E 5 b2 01 52
        E 5 b2 01 55
        E 5 b2 01 58
        E 5 b2 01 5b
        E 5 b2 01 5e
        E 5 b2 01 60
        E 5 b2 01 63
        E 5 b2 01 66
        E 5 b2 01 68
        E 5 b2 01 6a
        E 5 b2 01 6d
        E 5 b2 01 6f
        E 5 b2 01 71
        E 5 b2 01 73
        E 5 b2 01 75
        E 5 b2 01 76
        E 5 b2 01 78
        E 5 b2 01 79
        E 5 b2 01 7a
        E 5 b2 01 7b
        E 5 b2 01 7c
        E 5 b2 01 7d
        E 5 b2 01 7e
        E 5 b2 01 7e
        E 5 b2 01 7f
        E 5 b2 01 7f
        E 5 b2 01 7f
        E 5 b2 01 7f
        E 5 b2 01 7f
        E 5 b2 01 7e
        E 5 b2 01 7e
        E 5 b2 01 7d
        E 5 b2 01 7c
        E 5 b2 01 7b
        E 5 b2 01 7a
        E 5 b2 01 78
        E 5 b2 01 77
        E 5 b2 01 75
        E 5 b2 01 74
        E 5 b2 01 72
        E 5 b2 01 70
        E 5 b2 01 6e
        E 5 b2 01 6c
        E 5 b2 01 69
        E 5 b2 01 67
        E 5 b2 01 64
        E 5 b2 01 62
        E 5 b2 01 5f
        E 5 b2 01 5c
        E 5 b2 01 59
        E 5 b2 01 57
        E 5 b2 01 54
        E 5 b2 01 51
        E 5 b2 01 4e
        E 5 b2 01 4a
        E 5 b2 01 47
        E 5 b2 01 44
        E 5 b2 01 41
        E 5 b2 01 3e
        E 5 b2 01 3b
        E 5 b2 01 38
        E 5 b2 01 35
        E 5 b2 01 31
        E 5 b2 01 2e
        E 5 b2 01 2b
        E 5 b2 01 28
        E 5 b2 01 26
        E 5 b2 01 23
        E 5 b2 01 20
        E 5 b2 01 1d
        E 5 b2 01 1b
        E 5 b2 01 18
        E 5 b2 01 16
        E 5 b2 01 13
        E 5 b2 01 11
        E 5 b2 01 0f
        E 5 b2 01 0d
        E 5 b2 01 0b
        E 5 b2 01 0a
        E 5 b2 01 08
        E 5 b2 01 07
        E 5 b2 01 05
        E 5 b2 01 04
        E 5 b2 01 03
        E 5 b2 01 02
        E 5 b2 01 01
        E 5 b2 01 01
        E 5 b2 01 00
        E 5 b2 01 00
        E 5 b2 01 00
        E 5 b2 01 00
        E 5 b2 01 00
        E 5 b2 01 01
        E 5 b2 01 01
        E 5 b2 01 02
        E 5 b2 01 03
        E 5 b2 01 04
        E 5 b2 01 05
        E 5 b2 01 06
        E 5 b2 01 07
        E 5 b2 01 09
        E 5 b2 01 0a
        E 5 b2 01 0c
        E 5 b2 01 0e
        E 5 b2 01 10
        E 5 b2 01 12
        E 5 b2 01 15
        E 5 b2 01 17
        E 5 b2 01 19
        E 5 b2 01 1c
        E 5 b2 01 1f
        E 5 b2 01 21
        E 5 b2 01 24
        E 5 b2 01 27
        E 5 b2 01 2a
        E 5 b2 01 2d
        E 5 b2 01 30
        E 5 b2 01 33
        E 5 b2 01 36
        E 5 b2 01 39
        E 5 b2 01 3c
        E 5 b2 01 40
        E 9 b2 01 39
        E 9 b2 01 3c
        E 9 b2 01 3f
        E 9 b2 01 41
        E 9 b2 01 44
        E 9 b2 01 47
        E 9 b2 01 49
        E 9 b2 01 4c
        E 9 b2 01 4f
        E 9 b2 01 51
        E 9 b2 01 54
        E 9 b2 01 56
        E 9 b2 01 59
        E 9 b2 01 5b
        E 9 b2 01 5d
        E 9 b2 01 5f
        E 9 b2 01 62
        E 9 b2 01 63
        E 9 b2 01 65
        E 9 b2 01 67
        E 9 b2 01 69
        E 9 b2 01 6a
        E 9 b2 01 6c
        E 9 b2 01 6c
        E 9 b2 01 6d
        E 9 b2 01 6e
        E 9 b2 01 6f
        E 9 b2 01 70
        E 9 b2 01 71
        E 9 b2 01 71
        E 9 b2 01 72
        E 9 b2 01 72
        E 9 b2 01 72
        E 9 b2 01 72
        E 9 b2 01 72
        E 9 b2 01 71
        E 9 b2 01 71
        E 9 b2 01 70
        E 9 b2 01 6f
        E 9 b2 01 6e
        E 9 b2 01 6d
        E 9 b2 01 6c
        E 9 b2 01 6b
        E 9 b2 01 69
        E 9 b2 01 68
        E 9 b2 01 66
        E 9 b2 01 64
        E 9 b2 01 63
        E 9 b2 01 61
        E 9 b2 01 5e
        E 9 b2 01 5c
        E 9 b2 01 5a
        E 9 b2 01 58
        E 9 b2 01 55
        E 9 b2 01 52
        E 9 b2 01 50
        E 9 b2 01 4e
        E 9 b2 01 4b
        E 9 b2 01 48
        E 9 b2 01 46
        E 9 b2 01 42
        E 9 b2 01 3f
        E 9 b2 01 3d
        E 9 b2 01 3a
        E 9 b2 01 37
        E 9 b2 01 35
        E 9 b2 01 32
        E 9 b2 01 2f
        E 9 b2 01 2c
        E 9 b2 01 29
        E 9 b2 01 26
        E 9 b2 01 24
        E 9 b2 01 22
        E 9 b2 01 1f
        E 9 b2 01 1c
        E 9 b2 01 1a
        E 9 b2 01 18
        E 9 b2 01 15
        E 9 b2 01 13
        E 9 b2 01 11
        E 9 b2 01 0f
        E 9 b2 01 0d
        E 9 b2 01 0b
        E 9 b2 01 09
        E 9 b2 01 09
        E 9 b2 01 07
        E 9 b2 01 06
        E 9 b2 01 04
        E 9 b2 01 03
        E 9 b2 01 02
        E 9 b2 01 01
        E 9 b2 01 00
        E 9 b2 01 00
        E 9 b2 01 00
        E 9 b2 01 00
        E 9 b2 01 00
        E 9 b2 01 00
        E 9 b2 01 00
        E 9 b2 01 00
        E 9 b2 01 00
        E 9 b2 01 01
        E 9 b2 01 02
        E 9 b2 01 03
        E 9 b2 01 04
        E 9 b2 01 05
        E 9 b2 01 06
        E 9 b2 01 08
        E 9 b2 01 09
        E 9 b2 01 0a
        E 9 b2 01 0c
        E 9 b2 01 0e
        E 9 b2 01 10
        E 9 b2 01 12
        E 9 b2 01 14
        E 9 b2 01 16
        E 9 b2 01 19
        E 9 b2 01 1b
        E 9 b2 01 1d
        E 9 b2 01 20
        E 9 b2 01 23
        E 9 b2 01 25
        E 9 b2 01 28
        E 9 b2 01 2b
        E 9 b2 01 2d
        E 9 b2 01 30
        E 9 b2 01 33
        E 9 b2 01 36
        E 9 b2 01 39
        E 7 b2 01 20
        E 7 b2 01 21
        E 7 b2 01 23
        E 7 b2 01 24
        E 7 b2 01 26
        E 7 b2 01 27
        E 7 b2 01 29
        E 7 b2 01 2a
        E 7 b2 01 2c
        E 7 b2 01 2d
        E 7 b2 01 2f
        E 7 b2 01 30
        E 7 b2 01 31
        E 7 b2 01 33
        E 7 b2 01 34
        E 7 b2 01 35
        E 7 b2 01 36
        E 7 b2 01 37
        E 7 b2 01 38
        E 7 b2 01 39
        E 7 b2 01 3a
        E 7 b2 01 3b
        E 7 b2 01 3c
        E 7 b2 01 3c
        E 7 b2 01 3d
        E 7 b2 01 3d
        E 7 b2 01 3e
        E 7 b2 01 3e
        E 7 b2 01 3f
        E 7 b2 01 3f
        E 7 b2 01 3f
        E 7 b2 01 3f
        E 7 b2 01 3f
        E 7 b2 01 3f
        E 7 b2 01 3f
        E 7 b2 01 3f
        E 7 b2 01 3f
        E 7 b2 01 3e
        E 7 b2 01 3e
        E 7 b2 01 3d
        E 7 b2 01 3d
        E 7 b2 01 3c
        E 7 b2 01 3b
        E 7 b2 01 3a
        E 7 b2 01 3a
        E 7 b2 01 39
        E 7 b2 01 38
        E 7 b2 01 37
        E 7 b2 01 36
        E 7 b2 01 34
        E 7 b2 01 33
        E 7 b2 01 32
        E 7 b2 01 31
        E 7 b2 01 2f
        E 7 b2 01 2e
        E 7 b2 01 2c
        E 7 b2 01 2b
        E 7 b2 01 2a
        E 7 b2 01 28
        E 7 b2 01 27
        E 7 b2 01 25
        E 7 b2 01 23
        E 7 b2 01 22
        E 7 b2 01 20
        E 7 b2 01 1f
        E 7 b2 01 1d
        E 7 b2 01 1c
        E 7 b2 01 1a
        E 7 b2 01 18
        E 7 b2 01 17
        E 7 b2 01 15
        E 7 b2 01 14
        E 7 b2 01 13
        E 7 b2 01 11
        E 7 b2 01 10
        E 7 b2 01 0e
        E 7 b2 01 0d
        E 7 b2 01 0c
        E 7 b2 01 0b
        E 7 b2 01 09
        E 7 b2 01 08
        E 7 b2 01 07
        E 7 b2 01 06
        E 7 b2 01 05
        E 7 b2 01 05
        E 7 b2 01 04
        E 7 b2 01 03
        E 7 b2 01 02
        E 7 b2 01 02
        E 7 b2 01 01
        E 7 b2 01 01
        E 7 b2 01 00
        E 7 b2 01 00
        E 7 b2 01 00
        E 7 b2 01 00
        E 7 b2 01 00
        E 7 b2 01 00
        E 7 b2 01 00
        E 7 b2 01 00
        E 7 b2 01 00
        E 7 b2 01 01
        E 7 b2 01 01
        E 7 b2 01 02
        E 7 b2 01 02
        E 7 b2 01 03
        E 7 b2 01 03
        E 7 b2 01 04
        E 7 b2 01 05
        E 7 b2 01 06
        E 7 b2 01 07
        E 7 b2 01 08
        E 7 b2 01 09
        E 7 b2 01 0a
        E 7 b2 01 0b
        E 7 b2 01 0c
        E 7 b2 01 0e
        E 7 b2 01 0f
        E 7 b2 01 10
        E 7 b2 01 12
        E 7 b2 01 13
        E 7 b2 01 15
        E 7 b2 01 16
        E 7 b2 01 18
        E 7 b2 01 19
        E 7 b2 01 1b
        E 7 b2 01 1c
        E 7 b2 01 1e
        E 7 b2 01 20
        E 7 b2 01 20
        E 7 b2 01 21
        E 7 b2 01 23
        E 7 b2 01 24
        E 7 b2 01 26
        E 7 b2 01 27
        E 7 b2 01 29
        E 7 b2 01 2a
        E 7 b2 01 2c
        E 7 b2 01 2d
        E 7 b2 01 2f
        E 7 b2 01 30
        E 7 b2 01 31
        E 7 b2 01 33
        E 7 b2 01 34
        E 7 b2 01 35
        E 7 b2 01 36
        E 7 b2 01 37
        E 7 b2 01 38
        E 7 b2 01 39
        E 7 b2 01 3a
        E 7 b2 01 3b
        E 7 b2 01 3c
        E 7 b2 01 3c
        E 7 b2 01 3d
        E 7 b2 01 3d
        E 7 b2 01 3e
        E 7 b2 01 3e
        E 7 b2 01 3f
        E 7 b2 01 3f
        E 7 b2 01 3f
        E 7 b2 01 3f
        E 7 b2 01 3f
        E 7 b2 01 3f
        E 7 b2 01 3f
        E 7 b2 01 3f
        E 7 b2 01 3f
        E 7 b2 01 3e
        E 7 b2 01 3e
        E 7 b2 01 3d
        E 7 b2 01 3d
        E 7 b2 01 3c
        E 7 b2 01 3b
        E 7 b2 01 3a
        E 7 b2 01 3a
        E 7 b2 01 39
        E 7 b2 01 38
        E 7 b2 01 37
        E 7 b2 01 36
        E 7 b2 01 34
        E 7 b2 01 33
        E 7 b2 01 32
        E 7 b2 01 31
        E 7 b2 01 2f
        E 7 b2 01 2e
        E 7 b2 01 2c
        E 7 b2 01 2b
        E 7 b2 01 2a
        E 7 b2 01 28
        E 7 b2 01 27
        E 7 b2 01 25
        E 7 b2 01 23
        E 7 b2 01 22
        E 7 b2 01 20
        E 7 b2 01 1f
        E 7 b2 01 1d
        E 7 b2 01 1c
        E 7 b2 01 1a
        E 7 b2 01 18
        E 7 b2 01 17
        E 7 b2 01 15
        E 7 b2 01 14
        E 7 b2 01 13
        E 7 b2 01 11
        E 7 b2 01 10
        E 7 b2 01 0e
        E 7 b2 01 0d
        E 7 b2 01 0c
        E 7 b2 01 0b
        E 7 b2 01 09
        E 7 b2 01 08
        E 7 b2 01 07
        E 7 b2 01 06
        E 7 b2 01 05
        E 7 b2 01 05
        E 7 b2 01 04
        E 7 b2 01 03
        E 7 b2 01 02
        E 7 b2 01 02
        E 7 b2 01 01
        E 7 b2 01 01
        E 7 b2 01 00
        E 7 b2 01 00
        E 7 b2 01 00
        E 7 b2 01 00
        E 7 b2 01 00
        E 7 b2 01 00
        E 7 b2 01 00
        E 7 b2 01 00
        E 7 b2 01 00
        E 7 b2 01 01
        E 7 b2 01 01
        E 7 b2 01 02
        E 7 b2 01 02
        E 7 b2 01 03
        E 7 b2 01 03
        E 7 b2 01 04
        E 7 b2 01 05
        E 7 b2 01 06
        E 7 b2 01 07
        E 7 b2 01 08
        E 7 b2 01 09
        E 7 b2 01 0a
        E 7 b2 01 0b
        E 7 b2 01 0c
        E 7 b2 01 0e
        E 7 b2 01 0f
        E 7 b2 01 10
        E 7 b2 01 12
        E 7 b2 01 13
        E 7 b2 01 15
        E 7 b2 01 16
        E 7 b2 01 18
        E 7 b2 01 19
        E 7 b2 01 1b
        E 7 b2 01 1c
        E 7 b2 01 1e
        E 7 b2 01 20
        E 14 b2 01 2c
        E 14 b2 01 2e
        E 14 b2 01 31
        E 14 b2 01 33
        E 14 b2 01 35
        E 14 b2 01 37
        E 14 b2 01 39
        E 14 b2 01 3b
        E 14 b2 01 3d
        E 14 b2 01 3f
        E 14 b2 01 41
        E 14 b2 01 43
        E 14 b2 01 45
        E 14 b2 01 47
        E 14 b2 01 48
        E 14 b2 01 4a
        E 14 b2 01 4c
        E 14 b2 01 4d
        E 14 b2 01 4f
        E 14 b2 01 50
        E 14 b2 01 51
        E 14 b2 01 52
        E 14 b2 01 54
        E 14 b2 01 54
        E 14 b2 01 55
        E 14 b2 01 56
        E 14 b2 01 56
        E 14 b2 01 57
        E 14 b2 01 58
        E 14 b2 01 58
        E 14 b2 01 58
        E 14 b2 01 58
        E 14 b2 01 58
        E 14 b2 01 58
        E 14 b2 01 58
        E 14 b2 01 58
        E 14 b2 01 58
        E 14 b2 01 57
        E 14 b2 01 56
        E 14 b2 01 56
        E 14 b2 01 55
        E 14 b2 01 54
        E 14 b2 01 53
        E 14 b2 01 51
        E 14 b2 01 51
        E 14 b2 01 4f
        E 14 b2 01 4e
        E 14 b2 01 4d
        E 14 b2 01 4b
        E 14 b2 01 49
        E 14 b2 01 48
        E 14 b2 01 46
        E 14 b2 01 44
        E 14 b2 01 42
        E 14 b2 01 40
        E 14 b2 01 3e
        E 14 b2 01 3c
        E 14 b2 01 3a
        E 14 b2 01 38
        E 14 b2 01 36
        E 14 b2 01 33
        E 14 b2 01 31
        E 14 b2 01 2f
        E 14 b2 01 2d
        E 14 b2 01 2b
        E 14 b2 01 29
        E 14 b2 01 27
        E 14 b2 01 25
        E 14 b2 01 22
        E 14 b2 01 20
        E 14 b2 01 1e
        E 14 b2 01 1c
        E 14 b2 01 1a
        E 14 b2 01 18
        E 14 b2 01 16
        E 14 b2 01 14
        E 14 b2 01 12
        E 14 b2 01 10
        E 14 b2 01 0f
        E 14 b2 01 0d
        E 14 b2 01 0b
        E 14 b2 01 0a
        E 14 b2 01 09
        E 14 b2 01 07
        E 14 b2 01 07
        E 14 b2 01 05
        E 14 b2 01 04
        E 14 b2 01 03
        E 14 b2 01 02
        E 14 b2 01 02
        E 14 b2 01 01
        E 14 b2 01 00
        E 14 b2 01 00
        E 14 b2 01 00
        E 14 b2 01 00
        E 14 b2 01 00
        E 14 b2 01 00
        E 14 b2 01 00
        E 14 b2 01 00
        E 14 b2 01 00
        E 14 b2 01 01
        E 14 b2 01 02
        E 14 b2 01 02
        E 14 b2 01 03
        E 14 b2 01 04
        E 14 b2 01 04
        E 14 b2 01 06
        E 14 b2 01 07
        E 14 b2 01 08
        E 14 b2 01 09
        E 14 b2 01 0b
        E 14 b2 01 0c
        E 14 b2 01 0e
        E 14 b2 01 10
        E 14 b2 01 11
        E 14 b2 01 13
        E 14 b2 01 15
        E 14 b2 01 17
        E 14 b2 01 19
        E 14 b2 01 1b
        E 14 b2 01 1d
        E 14 b2 01 1f
        E 14 b2 01 21
        E 14 b2 01 23
        E 14 b2 01 25
        E 14 b2 01 27
        E 14 b2 01 2a
        E 14 b2 01 2c
        E 12 b2 01 33
        E 12 b2 01 35
        E 12 b2 01 37
        E 12 b2 01 3a
        E 12 b2 01 3c
        E 12 b2 01 3f
        E 12 b2 01 41
        E 12 b2 01 44
        E 12 b2 01 46
        E 12 b2 01 48
        E 12 b2 01 4b
        E 12 b2 01 4c
        E 12 b2 01 4f
        E 12 b2 01 51
        E 12 b2 01 53
        E 12 b2 01 54
        E 12 b2 01 57
        E 12 b2 01 58
        E 12 b2 01 5a
        E 12 b2 01 5b
        E 12 b2 01 5d
        E 12 b2 01 5e
        E 12 b2 01 5f
        E 12 b2 01 60
        E 12 b2 01 61
        E 12 b2 01 62
        E 12 b2 01 63
        E 12 b2 01 63
        E 12 b2 01 64
        E 12 b2 01 64
        E 12 b2 01 65
        E 12 b2 01 65
        E 12 b2 01 65
        E 12 b2 01 65
        E 12 b2 01 65
        E 12 b2 01 64
        E 12 b2 01 64
        E 12 b2 01 63
        E 12 b2 01 63
        E 12 b2 01 62
        E 12 b2 01 61
        E 12 b2 01 5f
        E 12 b2 01 5f
        E 12 b2 01 5d
        E 12 b2 01 5c
        E 12 b2 01 5b
        E 12 b2 01 59
        E 12 b2 01 57
        E 12 b2 01 56
        E 12 b2 01 54
        E 12 b2 01 52
        E 12 b2 01 50
        E 12 b2 01 4e
        E 12 b2 01 4c
        E 12 b2 01 49
        E 12 b2 01 47
        E 12 b2 01 45
        E 12 b2 01 43
        E 12 b2 01 40
        E 12 b2 01 3e
        E 12 b2 01 3b
        E 12 b2 01 38
        E 12 b2 01 36
        E 12 b2 01 33
        E 12 b2 01 31
        E 12 b2 01 2f
        E 12 b2 01 2c
        E 12 b2 01 2a
        E 12 b2 01 27
        E 12 b2 01 24
        E 12 b2 01 22
        E 12 b2 01 1f
        E 12 b2 01 1e
        E 12 b2 01 1b
        E 12 b2 01 19
        E 12 b2 01 17
        E 12 b2 01 15
        E 12 b2 01 13
        E 12 b2 01 11
        E 12 b2 01 0f
        E 12 b2 01 0d
        E 12 b2 01 0b
        E 12 b2 01 0a
        E 12 b2 01 08
        E 12 b2 01 07
        E 12 b2 01 06
        E 12 b2 01 05
        E 12 b2 01 03
        E 12 b2 01 03
        E 12 b2 01 02
        E 12 b2 01 01
        E 12 b2 01 00
        E 12 b2 01 00
        E 12 b2 01 00
        E 12 b2 01 00
        E 12 b2 01 00
        E 12 b2 01 00
        E 12 b2 01 00
        E 12 b2 01 00
        E 12 b2 01 00
        E 12 b2 01 01
        E 12 b2 01 02
        E 12 b2 01 03
        E 12 b2 01 03
        E 12 b2 01 04
        E 12 b2 01 05
        E 12 b2 01 07
        E 12 b2 01 07
        E 12 b2 01 09
        E 12 b2 01 0b
        E 12 b2 01 0c
        E 12 b2 01 0e
        E 12 b2 01 10
        E 12 b2 01 12
        E 12 b2 01 14
        E 12 b2 01 16
        E 12 b2 01 18
        E 12 b2 01 1a
        E 12 b2 01 1c
        E 12 b2 01 1f
        E 12 b2 01 21
        E 12 b2 01 24
        E 12 b2 01 26
        E 12 b2 01 28
        E 12 b2 01 2b
        E 12 b2 01 2d
        E 12 b2 01 2f
        E 12 b2 01 33
        E 14 b2 01 06
        E 14 b2 01 06
        E 14 b2 01 07
        E 14 b2 01 07
        E 14 b2 01 07
        E 14 b2 01 07
        E 14 b2 01 08
        E 14 b2 01 08
        E 14 b2 01 08
        E 14 b2 01 09
        E 14 b2 01 09
        E 14 b2 01 09
        E 14 b2 01 09
        E 14 b2 01 0a
        E 14 b2 01 0a
        E 14 b2 01 0a
        E 14 b2 01 0a
        E 14 b2 01 0b
        E 14 b2 01 0b
        E 14 b2 01 0b
        E 14 b2 01 0b
        E 14 b2 01 0b
        E 14 b2 01 0c
        E 14 b2 01 0c
        E 14 b2 01 0c
        E 14 b2 01 0c
        E 14 b2 01 0c
        E 14 b2 01 0c
        E 14 b2 01 0c
        E 14 b2 01 0c
        E 14 b2 01 0c
        E 14 b2 01 0c
        E 14 b2 01 0c
        E 14 b2 01 0c
        E 14 b2 01 0c
        E 14 b2 01 0c
        E 14 b2 01 0c
        E 14 b2 01 0c
        E 14 b2 01 0c
        E 14 b2 01 0c
        E 14 b2 01 0c
        E 14 b2 01 0c
        E 14 b2 01 0b
        E 14 b2 01 0b
        E 14 b2 01 0b
        E 14 b2 01 0b
        E 14 b2 01 0b
        E 14 b2 01 0b
        E 14 b2 01 0a
        E 14 b2 01 0a
        E 14 b2 01 0a
        E 14 b2 01 0a
        E 14 b2 01 09
        E 14 b2 01 09
        E 14 b2 01 09
        E 14 b2 01 08
        E 14 b2 01 08
        E 14 b2 01 08
        E 14 b2 01 08
        E 14 b2 01 07
        E 14 b2 01 07
        E 14 b2 01 07
        E 14 b2 01 06
        E 14 b2 01 06
        E 14 b2 01 06
        E 14 b2 01 05
        E 14 b2 01 05
        E 14 b2 01 05
        E 14 b2 01 04
        E 14 b2 01 04
        E 14 b2 01 04
        E 14 b2 01 04
        E 14 b2 01 03
        E 14 b2 01 03
        E 14 b2 01 03
        E 14 b2 01 02
        E 14 b2 01 02
        E 14 b2 01 02
        E 14 b2 01 02
        E 14 b2 01 01
        E 14 b2 01 01
        E 14 b2 01 01
        E 14 b2 01 01
        E 14 b2 01 01
        E 14 b2 01 01
        E 14 b2 01 00
        E 14 b2 01 00
        E 14 b2 01 00
        E 14 b2 01 00
        E 14 b2 01 00
        E 14 b2 01 00
        E 14 b2 01 00
        E 14 b2 01 00
        E 14 b2 01 00
        E 14 b2 01 00
        E 14 b2 01 00
        E 14 b2 01 00
        E 14 b2 01 00
        E 14 b2 01 00
        E 14 b2 01 00
        E 14 b2 01 00
        E 14 b2 01 00
        E 14 b2 01 00
        E 14 b2 01 00
        E 14 b2 01 00
        E 14 b2 01 00
        E 14 b2 01 00
        E 14 b2 01 01
        E 14 b2 01 01
        E 14 b2 01 01
        E 14 b2 01 01
        E 14 b2 01 01
        E 14 b2 01 02
        E 14 b2 01 02
        E 14 b2 01 02
        E 14 b2 01 02
        E 14 b2 01 03
        E 14 b2 01 03
        E 14 b2 01 03
        E 14 b2 01 03
        E 14 b2 01 04
        E 14 b2 01 04
        E 14 b2 01 04
        E 14 b2 01 05
        E 14 b2 01 05
        E 14 b2 01 05
        E 14 b2 01 06
        E 14 b2 01 06
        E 12 b2 01 19
        E 12 b2 01 1a
        E 12 b2 01 1c
        E 12 b2 01 1d
        E 12 b2 01 1e
        E 12 b2 01 1f
        E 12 b2 01 20
        E 12 b2 01 22
        E 12 b2 01 23
        E 12 b2 01 24
        E 12 b2 01 25
        E 12 b2 01 26
        E 12 b2 01 27
        E 12 b2 01 28
        E 12 b2 01 29
        E 12 b2 01 2a
        E 12 b2 01 2b
        E 12 b2 01 2c
        E 12 b2 01 2d
        E 12 b2 01 2e
        E 12 b2 01 2e
        E 12 b2 01 2f
        E 12 b2 01 30
        E 12 b2 01 30
        E 12 b2 01 30
        E 12 b2 01 31
        E 12 b2 01 31
        E 12 b2 01 32
        E 12 b2 01 32
        E 12 b2 01 32
        E 12 b2 01 32
        E 12 b2 01 32
        E 12 b2 01 32
        E 12 b2 01 32
        E 12 b2 01 32
        E 12 b2 01 32
        E 12 b2 01 32
        E 12 b2 01 32
        E 12 b2 01 31
        E 12 b2 01 31
        E 12 b2 01 30
        E 12 b2 01 30
        E 12 b2 01 2f
        E 12 b2 01 2e
        E 12 b2 01 2e
        E 12 b2 01 2d
        E 12 b2 01 2c
        E 12 b2 01 2c
        E 12 b2 01 2b
        E 12 b2 01 2a
        E 12 b2 01 29
        E 12 b2 01 28
        E 12 b2 01 27
        E 12 b2 01 26
        E 12 b2 01 24
        E 12 b2 01 23
        E 12 b2 01 22
        E 12 b2 01 21
        E 12 b2 01 20
        E 12 b2 01 1f
        E 12 b2 01 1d
        E 12 b2 01 1c
        E 12 b2 01 1b
        E 12 b2 01 1a
        E 12 b2 01 18
        E 12 b2 01 17
        E 12 b2 01 16
        E 12 b2 01 15
        E 12 b2 01 13
        E 12 b2 01 12
        E 12 b2 01 11
        E 12 b2 01 10
        E 12 b2 01 0f
        E 12 b2 01 0e
        E 12 b2 01 0c
        E 12 b2 01 0b
        E 12 b2 01 0a
        E 12 b2 01 09
        E 12 b2 01 08
        E 12 b2 01 07
        E 12 b2 01 06
        E 12 b2 01 06
        E 12 b2 01 05
        E 12 b2 01 04
        E 12 b2 01 04
        E 12 b2 01 03
        E 12 b2 01 02
        E 12 b2 01 02
        E 12 b2 01 01
        E 12 b2 01 01
        E 12 b2 01 00
        E 12 b2 01 00
        E 12 b2 01 00
        E 12 b2 01 00
        E 12 b2 01 00
        E 12 b2 01 00
        E 12 b2 01 00
        E 12 b2 01 00
        E 12 b2 01 00
        E 12 b2 01 00
        E 12 b2 01 00
        E 12 b2 01 01
        E 12 b2 01 01
        E 12 b2 01 02
        E 12 b2 01 02
        E 12 b2 01 02
        E 12 b2 01 03
        E 12 b2 01 04
        E 12 b2 01 04
        E 12 b2 01 05
        E 12 b2 01 06
        E 12 b2 01 07
        E 12 b2 01 08
        E 12 b2 01 09
        E 12 b2 01 0a
        E 12 b2 01 0b
        E 12 b2 01 0c
        E 12 b2 01 0d
        E 12 b2 01 0e
        E 12 b2 01 0f
        E 12 b2 01 10
        E 12 b2 01 12
        E 12 b2 01 13
        E 12 b2 01 14
        E 12 b2 01 15
        E 12 b2 01 16
        E 12 b2 01 18
        E 12 b2 01 19
        E 7 b2 01 2c
        E 7 b2 01 2e
        E 7 b2 01 31
        E 7 b2 01 33
        E 7 b2 01 35
        E 7 b2 01 37
        E 7 b2 01 39
        E 7 b2 01 3b
        E 7 b2 01 3d
        E 7 b2 01 3f
        E 7 b2 01 41
        E 7 b2 01 43
        E 7 b2 01 45
        E 7 b2 01 47
        E 7 b2 01 48
        E 7 b2 01 4a
        E 7 b2 01 4c
        E 7 b2 01 4d
        E 7 b2 01 4f
        E 7 b2 01 50
        E 7 b2 01 51
        E 7 b2 01 52
        E 7 b2 01 54
        E 7 b2 01 54
        E 7 b2 01 55
        E 7 b2 01 56
        E 7 b2 01 56
        E 7 b2 01 57
        E 7 b2 01 58
        E 7 b2 01 58
        E 7 b2 01 58
        E 7 b2 01 58
        E 7 b2 01 58
        E 7 b2 01 58
        E 7 b2 01 58
        E 7 b2 01 58
        E 7 b2 01 58
        E 7 b2 01 57
        E 7 b2 01 56
        E 7 b2 01 56
        E 7 b2 01 55
        E 7 b2 01 54
        E 7 b2 01 53
        E 7 b2 01 51
        E 7 b2 01 51
        E 7 b2 01 4f
        E 7 b2 01 4e
        E 7 b2 01 4d
        E 7 b2 01 4b
        E 7 b2 01 49
        E 7 b2 01 48
        E 7 b2 01 46
        E 7 b2 01 44
        E 7 b2 01 42
        E 7 b2 01 40
        E 7 b2 01 3e
        E 7 b2 01 3c
        E 7 b2 01 3a
        E 7 b2 01 38
        E 7 b2 01 36
        E 7 b2 01 33
        E 7 b2 01 31
        E 7 b2 01 2f
        E 7 b2 01 2d
        E 7 b2 01 2b
        E 7 b2 01 29
        E 7 b2 01 27
        E 7 b2 01 25
        E 7 b2 01 22
        E 7 b2 01 20
        E 7 b2 01 1e
        E 7 b2 01 1c
        E 7 b2 01 1a
        E 7 b2 01 18
        E 7 b2 01 16
        E 7 b2 01 14
        E 7 b2 01 12
        E 7 b2 01 10
        E 7 b2 01 0f
        E 7 b2 01 0d
        E 7 b2 01 0b
        E 7 b2 01 0a
        E 7 b2 01 09
        E 7 b2 01 07
        E 7 b2 01 07
        E 7 b2 01 05
        E 7 b2 01 04
        E 7 b2 01 03
        E 7 b2 01 02
        E 7 b2 01 02
        E 7 b2 01 01
        E 7 b2 01 00
        E 7 b2 01 00
        E 7 b2 01 00
        E 7 b2 01 00
        E 7 b2 01 00
        E 7 b2 01 00
        E 7 b2 01 00
        E 7 b2 01 00
        E 7 b2 01 00
        E 7 b2 01 01
        E 7 b2 01 02
        E 7 b2 01 02
        E 7 b2 01 03
        E 7 b2 01 04
        E 7 b2 01 04
        E 7 b2 01 06
        E 7 b2 01 07
        E 7 b2 01 08
        E 7 b2 01 09
        E 7 b2 01 0b
        E 7 b2 01 0c
        E 7 b2 01 0e
        E 7 b2 01 10
        E 7 b2 01 11
        E 7 b2 01 13
        E 7 b2 01 15
        E 7 b2 01 17
        E 7 b2 01 19
        E 7 b2 01 1b
        E 7 b2 01 1d
        E 7 b2 01 1f
        E 7 b2 01 21
        E 7 b2 01 23
        E 7 b2 01 25
        E 7 b2 01 27
        E 7 b2 01 2a
        E 7 b2 01 2c
        E 7 b2 01 20
        E 7 b2 01 21
        E 7 b2 01 23
        E 7 b2 01 24
        E 7 b2 01 26
        E 7 b2 01 27
        E 7 b2 01 29
        E 7 b2 01 2a
        E 7 b2 01 2c
        E 7 b2 01 2d
        E 7 b2 01 2f
        E 7 b2 01 30
        E 7 b2 01 31
        E 7 b2 01 33
        E 7 b2 01 34
        E 7 b2 01 35
        E 7 b2 01 36
        E 7 b2 01 37
        E 7 b2 01 38
        E 7 b2 01 39
        E 7 b2 01 3a
        E 7 b2 01 3b
        E 7 b2 01 3c
        E 7 b2 01 3c
        E 7 b2 01 3d
        E 7 b2 01 3d
        E 7 b2 01 3e
        E 7 b2 01 3e
        E 7 b2 01 3f
        E 7 b2 01 3f
        E 7 b2 01 3f
        E 7 b2 01 3f
        E 7 b2 01 3f
        E 7 b2 01 3f
        E 7 b2 01 3f
        E 7 b2 01 3f
        E 7 b2 01 3f
        E 7 b2 01 3e
        E 7 b2 01 3e
        E 7 b2 01 3d
        E 7 b2 01 3d
        E 7 b2 01 3c
        E 7 b2 01 3b
        E 7 b2 01 3a
        E 7 b2 01 3a
        E 7 b2 01 39
        E 7 b2 01 38
        E 7 b2 01 37
        E 7 b2 01 36
        E 7 b2 01 34
        E 7 b2 01 33
        E 7 b2 01 32
        E 7 b2 01 31
        E 7 b2 01 2f
        E 7 b2 01 2e
        E 7 b2 01 2c
        E 7 b2 01 2b
        E 7 b2 01 2a
        E 7 b2 01 28
        E 7 b2 01 27
        E 7 b2 01 25
        E 7 b2 01 23
        E 7 b2 01 22
        E 7 b2 01 20
        E 7 b2 01 1f
        E 7 b2 01 1d
        E 7 b2 01 1c
        E 7 b2 01 1a
        E 7 b2 01 18
        E 7 b2 01 17
        E 7 b2 01 15
        E 7 b2 01 14
        E 7 b2 01 13
        E 7 b2 01 11
        E 7 b2 01 10
        E 7 b2 01 0e
        E 7 b2 01 0d
        E 7 b2 01 0c
        E 7 b2 01 0b
        E 7 b2 01 09
        E 7 b2 01 08
        E 7 b2 01 07
        E 7 b2 01 06
        E 7 b2 01 05
        E 7 b2 01 05
        E 7 b2 01 04
        E 7 b2 01 03
        E 7 b2 01 02
        E 7 b2 01 02
        E 7 b2 01 01
        E 7 b2 01 01
        E 7 b2 01 00
        E 7 b2 01 00
        E 7 b2 01 00
        E 7 b2 01 00
        E 7 b2 01 00
        E 7 b2 01 00
        E 7 b2 01 00
        E 7 b2 01 00
        E 7 b2 01 00
        E 7 b2 01 01
        E 7 b2 01 01
        E 7 b2 01 02
        E 7 b2 01 02
        E 7 b2 01 03
        E 7 b2 01 03
        E 7 b2 01 04
        E 7 b2 01 05
        E 7 b2 01 06
        E 7 b2 01 07
        E 7 b2 01 08
        E 7 b2 01 09
        E 7 b2 01 0a
        E 7 b2 01 0b
        E 7 b2 01 0c
        E 7 b2 01 0e
        E 7 b2 01 0f
        E 7 b2 01 10
        E 7 b2 01 12
        E 7 b2 01 13
        E 7 b2 01 15
        E 7 b2 01 16
        E 7 b2 01 18
        E 7 b2 01 19
        E 7 b2 01 1b
        E 7 b2 01 1c
        E 7 b2 01 1e
        E 7 b2 01 20
        E 9 b2 01 20
        E 9 b2 01 21
        E 9 b2 01 23
        E 9 b2 01 24
        E 9 b2 01 26
        E 9 b2 01 27
        E 9 b2 01 29
        E 9 b2 01 2a
        E 9 b2 01 2c
        E 9 b2 01 2d
        E 9 b2 01 2f
        E 9 b2 01 30
        E 9 b2 01 31
        E 9 b2 01 33
        E 9 b2 01 34
        E 9 b2 01 35
        E 9 b2 01 36
        E 9 b2 01 37
        E 9 b2 01 38
        E 9 b2 01 39
        E 9 b2 01 3a
        E 9 b2 01 3b
        E 9 b2 01 3c
        E 9 b2 01 3c
        E 9 b2 01 3d
        E 9 b2 01 3d
        E 9 b2 01 3e
        E 9 b2 01 3e
        E 9 b2 01 3f
        E 9 b2 01 3f
        E 9 b2 01 3f
        E 9 b2 01 3f
        E 9 b2 01 3f
        E 9 b2 01 3f
        E 9 b2 01 3f
        E 9 b2 01 3f
        E 9 b2 01 3f
        E 9 b2 01 3e
        E 9 b2 01 3e
        E 9 b2 01 3d
        E 9 b2 01 3d
        E 9 b2 01 3c
        E 9 b2 01 3b
        E 9 b2 01 3a
        E 9 b2 01 3a
        E 9 b2 01 39
        E 9 b2 01 38
        E 9 b2 01 37
        E 9 b2 01 36
        E 9 b2 01 34
        E 9 b2 01 33
        E 9 b2 01 32
        E 9 b2 01 31
        E 9 b2 01 2f
        E 9 b2 01 2e
        E 9 b2 01 2c
        E 9 b2 01 2b
        E 9 b2 01 2a
        E 9 b2 01 28
        E 9 b2 01 27
        E 9 b2 01 25
        E 9 b2 01 23
        E 9 b2 01 22
        E 9 b2 01 20
        E 9 b2 01 1f
        E 9 b2 01 1d
        E 9 b2 01 1c
        E 9 b2 01 1a
        E 9 b2 01 18
        E 9 b2 01 17
        E 9 b2 01 15
        E 9 b2 01 14
        E 9 b2 01 13
        E 9 b2 01 11
        E 9 b2 01 10
        E 9 b2 01 0e
        E 9 b2 01 0d
        E 9 b2 01 0c
        E 9 b2 01 0b
        E 9 b2 01 09
        E 9 b2 01 08
        E 9 b2 01 07
        E 9 b2 01 06
        E 9 b2 01 05
        E 9 b2 01 05
        E 9 b2 01 04
        E 9 b2 01 03
        E 9 b2 01 02
        E 9 b2 01 02
        E 9 b2 01 01
        E 9 b2 01 01
        E 9 b2 01 00
        E 9 b2 01 00
        E 9 b2 01 00
        E 9 b2 01 00
        E 9 b2 01 00
        E 9 b2 01 00
        E 9 b2 01 00
        E 9 b2 01 00
        E 9 b2 01 00
        E 9 b2 01 01
        E 9 b2 01 01
        E 9 b2 01 02
        E 9 b2 01 02
        E 9 b2 01 03
        E 9 b2 01 03
        E 9 b2 01 04
        E 9 b2 01 05
        E 9 b2 01 06
        E 9 b2 01 07
        E 9 b2 01 08
        E 9 b2 01 09
        E 9 b2 01 0a
        E 9 b2 01 0b
        E 9 b2 01 0c
        E 9 b2 01 0e
        E 9 b2 01 0f
        E 9 b2 01 10
        E 9 b2 01 12
        E 9 b2 01 13
        E 9 b2 01 15
        E 9 b2 01 16
        E 9 b2 01 18
        E 9 b2 01 19
        E 9 b2 01 1b
        E 9 b2 01 1c
        E 9 b2 01 1e
        E 9 b2 01 20
        E 11 b2 01 40
        E 11 b2 01 43
        E 11 b2 01 46
        E 11 b2 01 49
        E 11 b2 01 4c
        E 11 b2 01 4f
        E 11 b2 01 52
        E 11 b2 01 55
        E 11 b2 01 58
        E 11 b2 01 5b
        E 11 b2 01 5e
        E 11 b2 01 60
        E 11 b2 01 63
        E 11 b2 01 66
        E 11 b2 01 68
        E 11 b2 01 6a
        E 11 b2 01 6d
        E 11 b2 01 6f
        E 11 b2 01 71
        E 11 b2 01 73
        E 11 b2 01 75
        E 11 b2 01 76
        E 11 b2 01 78
        E 11 b2 01 79
        E 11 b2 01 7a
        E 11 b2 01 7b
        E 11 b2 01 7c
        E 11 b2 01 7d
        E 11 b2 01 7e
        E 11 b2 01 7e
        E 11 b2 01 7f
        E 11 b2 01 7f
        E 11 b2 01 7f
        E 11 b2 01 7f
        E 11 b2 01 7f
        E 11 b2 01 7e
        E 11 b2 01 7e
        E 11 b2 01 7d
        E 11 b2 01 7c
        E 11 b2 01 7b
        E 11 b2 01 7a
        E 11 b2 01 78
        E 11 b2 01 77
        E 11 b2 01 75
        E 11 b2 01 74
        E 11 b2 01 72
        E 11 b2 01 70
        E 11 b2 01 6e
        E 11 b2 01 6c
        E 11 b2 01 69
        E 11 b2 01 67
        E 11 b2 01 64
        E 11 b2 01 62
        E 11 b2 01 5f
        E 11 b2 01 5c
        E 11 b2 01 59
        E 11 b2 01 57
        E 11 b2 01 54
        E 11 b2 01 51
        E 11 b2 01 4e
        E 11 b2 01 4a
        E 11 b2 01 47
        E 11 b2 01 44
        E 11 b2 01 41
        E 11 b2 01 3e
        E 11 b2 01 3b
        E 11 b2 01 38
        E 11 b2 01 35
        E 11 b2 01 31
        E 11 b2 01 2e
        E 11 b2 01 2b
        E 11 b2 01 28
        E 11 b2 01 26
        E 11 b2 01 23
        E 11 b2 01 20
        E 11 b2 01 1d
        E 11 b2 01 1b
        E 11 b2 01 18
        E 11 b2 01 16
        E 11 b2 01 13
        E 11 b2 01 11
        E 11 b2 01 0f
        E 11 b2 01 0d
        E 11 b2 01 0b
        E 11 b2 01 0a
        E 11 b2 01 08
        E 11 b2 01 07
        E 11 b2 01 05
        E 11 b2 01 04
        E 11 b2 01 03
        E 11 b2 01 02
        E 11 b2 01 01
        E 11 b2 01 01
        E 11 b2 01 00
        E 11 b2 01 00
        E 11 b2 01 00
        E 11 b2 01 00
        E 11 b2 01 00
        E 11 b2 01 01
        E 11 b2 01 01
        E 11 b2 01 02
        E 11 b2 01 03
        E 11 b2 01 04
        E 11 b2 01 05
        E 11 b2 01 06
        E 11 b2 01 07
        E 11 b2 01 09
        E 11 b2 01 0a
        E 11 b2 01 0c
        E 11 b2 01 0e
        E 11 b2 01 10
        E 11 b2 01 12
        E 11 b2 01 15
        E 11 b2 01 17
        E 11 b2 01 19
        E 11 b2 01 1c
        E 11 b2 01 1f
        E 11 b2 01 21
        E 11 b2 01 24
        E 11 b2 01 27
        E 11 b2 01 2a
        E 11 b2 01 2d
        E 11 b2 01 30
        E 11 b2 01 33
        E 11 b2 01 36
        E 11 b2 01 39
        E 11 b2 01 3c
        E 11 b2 01 40
        E 1 b2 01 39
        E 1 b2 01 3c
        E 1 b2 01 3f
        E 1 b2 01 41
        E 1 b2 01 44
        E 1 b2 01 47
        E 1 b2 01 49
        E 1 b2 01 4c
        E 1 b2 01 4f
        E 1 b2 01 51
        E 1 b2 01 54
        E 1 b2 01 56
        E 1 b2 01 59
        E 1 b2 01 5b
        E 1 b2 01 5d
        E 1 b2 01 5f
        E 1 b2 01 62
        E 1 b2 01 63
        E 1 b2 01 65
        E 1 b2 01 67
        E 1 b2 01 69
        E 1 b2 01 6a
        E 1 b2 01 6c
        E 1 b2 01 6c
        E 1 b2 01 6d
        E 1 b2 01 6e
        E 1 b2 01 6f
        E 1 b2 01 70
        E 1 b2 01 71
        E 1 b2 01 71
        E 1 b2 01 72
        E 1 b2 01 72
        E 1 b2 01 72
        E 1 b2 01 72
        E 1 b2 01 72
        E 1 b2 01 71
        E 1 b2 01 71
        E 1 b2 01 70
        E 1 b2 01 6f
        E 1 b2 01 6e
        E 1 b2 01 6d
        E 1 b2 01 6c
        E 1 b2 01 6b
        E 1 b2 01 69
        E 1 b2 01 68
        E 1 b2 01 66
        E 1 b2 01 64
        E 1 b2 01 63
        E 1 b2 01 61
        E 1 b2 01 5e
        E 1 b2 01 5c
        E 1 b2 01 5a
        E 1 b2 01 58
        E 1 b2 01 55
        E 1 b2 01 52
        E 1 b2 01 50
        E 1 b2 01 4e
        E 1 b2 01 4b
        E 1 b2 01 48
        E 1 b2 01 46
        E 1 b2 01 42
        E 1 b2 01 3f
        E 1 b2 01 3d
        E 1 b2 01 3a
        E 1 b2 01 37
        E 1 b2 01 35
        E 1 b2 01 32
        E 1 b2 01 2f
        E 1 b2 01 2c
        E 1 b2 01 29
        E 1 b2 01 26
        E 1 b2 01 24
        E 1 b2 01 22
        E 1 b2 01 1f
        E 1 b2 01 1c
        E 1 b2 01 1a
        E 1 b2 01 18
        E 1 b2 01 15
        E 1 b2 01 13
        E 1 b2 01 11
        E 1 b2 01 0f
        E 1 b2 01 0d
        E 1 b2 01 0b
        E 1 b2 01 09
        E 1 b2 01 09
        E 1 b2 01 07
        E 1 b2 01 06
        E 1 b2 01 04
        E 1 b2 01 03
        E 1 b2 01 02
        E 1 b2 01 01
        E 1 b2 01 00
        E 1 b2 01 00
        E 1 b2 01 00
        E 1 b2 01 00
        E 1 b2 01 00
        E 1 b2 01 00
        E 1 b2 01 00
        E 1 b2 01 00
        E 1 b2 01 00
        E 1 b2 01 01
        E 1 b2 01 02
        E 1 b2 01 03
        E 1 b2 01 04
        E 1 b2 01 05
        E 1 b2 01 06
        E 1 b2 01 08
        E 1 b2 01 09
        E 1 b2 01 0a
        E 1 b2 01 0c
        E 1 b2 01 0e
        E 1 b2 01 10
        E 1 b2 01 12
        E 1 b2 01 14
        E 1 b2 01 16
        E 1 b2 01 19
        E 1 b2 01 1b
        E 1 b2 01 1d
        E 1 b2 01 20
        E 1 b2 01 23
        E 1 b2 01 25
        E 1 b2 01 28
        E 1 b2 01 2b
        E 1 b2 01 2d
        E 1 b2 01 30
        E 1 b2 01 33
        E 1 b2 01 36
        E 1 b2 01 39
        E 5 b2 01 40
        E 5 b2 01 43
        E 5 b2 01 46
        E 5 b2 01 49
        E 5 b2 01 4c
        E 5 b2 01 4f
        E 5 b2 01 52
        E 5 b2 01 55
        E 5 b2 01 58
        E 5 b2 01 5b
        E 5 b2 01 5e
        E 5 b2 01 60
        E 5 b2 01 63
        E 5 b2 01 66
        E 5 b2 01 68
        E 5 b2 01 6a
        E 5 b2 01 6d
        E 5 b2 01 6f
        E 5 b2 01 71
        E 5 b2 01 73
        E 5 b2 01 75
        E 5 b2 01 76
        E 5 b2 01 78
        E 5 b2 01 79
        E 5 b2 01 7a
        E 5 b2 01 7b
        E 5 b2 01 7c
        E 5 b2 01 7d
        E 5 b2 01 7e
        E 5 b2 01 7e
        E 5 b2 01 7f
        E 5 b2 01 7f
        E 5 b2 01 7f
        E 5 b2 01 7f
        E 5 b2 01 7f
        E 5 b2 01 7e
        E 5 b2 01 7e
        E 5 b2 01 7d
        E 5 b2 01 7c
        E 5 b2 01 7b
        E 5 b2 01 7a
        E 5 b2 01 78
        E 5 b2 01 77
        E 5 b2 01 75
        E 5 b2 01 74
        E 5 b2 01 72
        E 5 b2 01 70
        E 5 b2 01 6e
        E 5 b2 01 6c
        E 5 b2 01 69
        E 5 b2 01 67
        E 5 b2 01 64
        E 5 b2 01 62
        E 5 b2 01 5f
        E 5 b2 01 5c
        E 5 b2 01 59
        E 5 b2 01 57
        E 5 b2 01 54
        E 5 b2 01 51
        E 5 b2 01 4e
        E 5 b2 01 4a
        E 5 b2 01 47
        E 5 b2 01 44
        E 5 b2 01 41
        E 5 b2 01 3e
        E 5 b2 01 3b
        E 5 b2 01 38
        E 5 b2 01 35
        E 5 b2 01 31
        E 5 b2 01 2e
        E 5 b2 01 2b
        E 5 b2 01 28
        E 5 b2 01 26
        E 5 b2 01 23
        E 5 b2 01 20
        E 5 b2 01 1d
        E 5 b2 01 1b
        E 5 b2 01 18
        E 5 b2 01 16
        E 5 b2 01 13
        E 5 b2 01 11
        E 5 b2 01 0f
        E 5 b2 01 0d
        E 5 b2 01 0b
        E 5 b2 01 0a
        E 5 b2 01 08
        E 5 b2 01 07
        E 5 b2 01 05
        E 5 b2 01 04
        E 5 b2 01 03
        E 5 b2 01 02
        E 5 b2 01 01
        E 5 b2 01 01
        E 5 b2 01 00
        E 5 b2 01 00
        E 5 b2 01 00
        E 5 b2 01 00
        E 5 b2 01 00
        E 5 b2 01 01
        E 5 b2 01 01
        E 5 b2 01 02
        E 5 b2 01 03
        E 5 b2 01 04
        E 5 b2 01 05
        E 5 b2 01 06
        E 5 b2 01 07
        E 5 b2 01 09
        E 5 b2 01 0a
        E 5 b2 01 0c
        E 5 b2 01 0e
        E 5 b2 01 10
        E 5 b2 01 12
        E 5 b2 01 15
        E 5 b2 01 17
        E 5 b2 01 19
        E 5 b2 01 1c
        E 5 b2 01 1f
        E 5 b2 01 21
        E 5 b2 01 24
        E 5 b2 01 27
        E 5 b2 01 2a
        E 5 b2 01 2d
        E 5 b2 01 30
        E 5 b2 01 33
        E 5 b2 01 36
        E 5 b2 01 39
        E 5 b2 01 3c
        E 5 b2 01 40
        E 9 b2 01 39
        E 9 b2 01 3c
        E 9 b2 01 3f
        E 9 b2 01 41
        E 9 b2 01 44
        E 9 b2 01 47
        E 9 b2 01 49
        E 9 b2 01 4c
        E 9 b2 01 4f
        E 9 b2 01 51
        E 9 b2 01 54
        E 9 b2 01 56
        E 9 b2 01 59
        E 9 b2 01 5b
        E 9 b2 01 5d
        E 9 b2 01 5f
        E 9 b2 01 62
        E 9 b2 01 63
        E 9 b2 01 65
        E 9 b2 01 67
        E 9 b2 01 69
        E 9 b2 01 6a
        E 9 b2 01 6c
        E 9 b2 01 6c
        E 9 b2 01 6d
        E 9 b2 01 6e
        E 9 b2 01 6f
        E 9 b2 01 70
        E 9 b2 01 71
        E 9 b2 01 71
        E 9 b2 01 72
        E 9 b2 01 72
        E 9 b2 01 72
        E 9 b2 01 72
        E 9 b2 01 72
        E 9 b2 01 71
        E 9 b2 01 71
        E 9 b2 01 70
        E 9 b2 01 6f
        E 9 b2 01 6e
        E 9 b2 01 6d
        E 9 b2 01 6c
        E 9 b2 01 6b
        E 9 b2 01 69
        E 9 b2 01 68
        E 9 b2 01 66
        E 9 b2 01 64
        E 9 b2 01 63
        E 9 b2 01 61
        E 9 b2 01 5e
        E 9 b2 01 5c
        E 9 b2 01 5a
        E 9 b2 01 58
        E 9 b2 01 55
        E 9 b2 01 52
        E 9 b2 01 50
        E 9 b2 01 4e
        E 9 b2 01 4b
        E 9 b2 01 48
        E 9 b2 01 46
        E 9 b2 01 42
        E 9 b2 01 3f
        E 9 b2 01 3d
        E 9 b2 01 3a
        E 9 b2 01 37
        E 9 b2 01 35
        E 9 b2 01 32
        E 9 b2 01 2f
        E 9 b2 01 2c
        E 9 b2 01 29
        E 9 b2 01 26
        E 9 b2 01 24
        E 9 b2 01 22
        E 9 b2 01 1f
        E 9 b2 01 1c
        E 9 b2 01 1a
        E 9 b2 01 18
        E 9 b2 01 15
        E 9 b2 01 13
        E 9 b2 01 11
        E 9 b2 01 0f
        E 9 b2 01 0d
        E 9 b2 01 0b
        E 9 b2 01 09
        E 9 b2 01 09
        E 9 b2 01 07
        E 9 b2 01 06
        E 9 b2 01 04
        E 9 b2 01 03
        E 9 b2 01 02
        E 9 b2 01 01
        E 9 b2 01 00
        E 9 b2 01 00
        E 9 b2 01 00
        E 9 b2 01 00
        E 9 b2 01 00
        E 9 b2 01 00
        E 9 b2 01 00
        E 9 b2 01 00
        E 9 b2 01 00
        E 9 b2 01 01
        E 9 b2 01 02
        E 9 b2 01 03
        E 9 b2 01 04
        E 9 b2 01 05
        E 9 b2 01 06
        E 9 b2 01 08
        E 9 b2 01 09
        E 9 b2 01 0a
        E 9 b2 01 0c
        E 9 b2 01 0e
        E 9 b2 01 10
        E 9 b2 01 12
        E 9 b2 01 14
        E 9 b2 01 16
        E 9 b2 01 19
        E 9 b2 01 1b
        E 9 b2 01 1d
        E 9 b2 01 20
        E 9 b2 01 23
        E 9 b2 01 25
        E 9 b2 01 28
        E 9 b2 01 2b
        E 9 b2 01 2d
        E 9 b2 01 30
        E 9 b2 01 33
        E 9 b2 01 36
        E 9 b2 01 39
        E 7 b2 01 20
        E 7 b2 01 21
        E 7 b2 01 23
        E 7 b2 01 24
        E 7 b2 01 26
        E 7 b2 01 27
        E 7 b2 01 29
        E 7 b2 01 2a
        E 7 b2 01 2c
        E 7 b2 01 2d
        E 7 b2 01 2f
        E 7 b2 01 30
        E 7 b2 01 31
        E 7 b2 01 33
        E 7 b2 01 34
        E 7 b2 01 35
        E 7 b2 01 36
        E 7 b2 01 37
        E 7 b2 01 38
        E 7 b2 01 39
        E 7 b2 01 3a
        E 7 b2 01 3b
        E 7 b2 01 3c
        E 7 b2 01 3c
        E 7 b2 01 3d
        E 7 b2 01 3d
        E 7 b2 01 3e
        E 7 b2 01 3e
        E 7 b2 01 3f
        E 7 b2 01 3f
        E 7 b2 01 3f
        E 7 b2 01 3f
        E 7 b2 01 3f
        E 7 b2 01 3f
        E 7 b2 01 3f
        E 7 b2 01 3f
        E 7 b2 01 3f
        E 7 b2 01 3e
        E 7 b2 01 3e
        E 7 b2 01 3d
        E 7 b2 01 3d
        E 7 b2 01 3c
        E 7 b2 01 3b
        E 7 b2 01 3a
        E 7 b2 01 3a
        E 7 b2 01 39
        E 7 b2 01 38
        E 7 b2 01 37
        E 7 b2 01 36
        E 7 b2 01 34
        E 7 b2 01 33
        E 7 b2 01 32
        E 7 b2 01 31
        E 7 b2 01 2f
        E 7 b2 01 2e
        E 7 b2 01 2c
        E 7 b2 01 2b
        E 7 b2 01 2a
        E 7 b2 01 28
        E 7 b2 01 27
        E 7 b2 01 25
        E 7 b2 01 23
        E 7 b2 01 22
        E 7 b2 01 20
        E 7 b2 01 1f
        E 7 b2 01 1d
        E 7 b2 01 1c
        E 7 b2 01 1a
        E 7 b2 01 18
        E 7 b2 01 17
        E 7 b2 01 15
        E 7 b2 01 14
        E 7 b2 01 13
        E 7 b2 01 11
        E 7 b2 01 10
        E 7 b2 01 0e
        E 7 b2 01 0d
        E 7 b2 01 0c
        E 7 b2 01 0b
        E 7 b2 01 09
        E 7 b2 01 08
        E 7 b2 01 07
        E 7 b2 01 06
        E 7 b2 01 05
        E 7 b2 01 05
        E 7 b2 01 04
        E 7 b2 01 03
        E 7 b2 01 02
        E 7 b2 01 02
        E 7 b2 01 01
        E 7 b2 01 01
        E 7 b2 01 00
        E 7 b2 01 00
        E 7 b2 01 00
        E 7 b2 01 00
        E 7 b2 01 00
        E 7 b2 01 00
        E 7 b2 01 00
        E 7 b2 01 00
        E 7 b2 01 00
        E 7 b2 01 01
        E 7 b2 01 01
        E 7 b2 01 02
        E 7 b2 01 02
        E 7 b2 01 03
        E 7 b2 01 03
        E 7 b2 01 04
        E 7 b2 01 05
        E 7 b2 01 06
        E 7 b2 01 07
        E 7 b2 01 08
        E 7 b2 01 09
        E 7 b2 01 0a
        E 7 b2 01 0b
        E 7 b2 01 0c
        E 7 b2 01 0e
        E 7 b2 01 0f
        E 7 b2 01 10
        E 7 b2 01 12
        E 7 b2 01 13
        E 7 b2 01 15
        E 7 b2 01 16
        E 7 b2 01 18
        E 7 b2 01 19
        E 7 b2 01 1b
        E 7 b2 01 1c
        E 7 b2 01 1e
        E 7 b2 01 20
        E 7 b2 01 20
        E 7 b2 01 21
        E 7 b2 01 23
        E 7 b2 01 24
        E 7 b2 01 26
        E 7 b2 01 27
        E 7 b2 01 29
        E 7 b2 01 2a
        E 7 b2 01 2c
        E 7 b2 01 2d
        E 7 b2 01 2f
        E 7 b2 01 30
        E 7 b2 01 31
        E 7 b2 01 33
        E 7 b2 01 34
        E 7 b2 01 35
        E 7 b2 01 36
        E 7 b2 01 37
        E 7 b2 01 38
        E 7 b2 01 39
        E 7 b2 01 3a
        E 7 b2 01 3b
        E 7 b2 01 3c
        E 7 b2 01 3c
        E 7 b2 01 3d
        E 7 b2 01 3d
        E 7 b2 01 3e
        E 7 b2 01 3e
        E 7 b2 01 3f
        E 7 b2 01 3f
        E 7 b2 01 3f
        E 7 b2 01 3f
        E 7 b2 01 3f
        E 7 b2 01 3f
        E 7 b2 01 3f
        E 7 b2 01 3f
        E 7 b2 01 3f
        E 7 b2 01 3e
        E 7 b2 01 3e
        E 7 b2 01 3d
        E 7 b2 01 3d
        E 7 b2 01 3c
        E 7 b2 01 3b
        E 7 b2 01 3a
        E 7 b2 01 3a
        E 7 b2 01 39
        E 7 b2 01 38
        E 7 b2 01 37
        E 7 b2 01 36
        E 7 b2 01 34
        E 7 b2 01 33
        E 7 b2 01 32
        E 7 b2 01 31
        E 7 b2 01 2f
        E 7 b2 01 2e
        E 7 b2 01 2c
        E 7 b2 01 2b
        E 7 b2 01 2a
        E 7 b2 01 28
        E 7 b2 01 27
        E 7 b2 01 25
        E 7 b2 01 23
        E 7 b2 01 22
        E 7 b2 01 20
        E 7 b2 01 1f
        E 7 b2 01 1d
        E 7 b2 01 1c
        E 7 b2 01 1a
        E 7 b2 01 18
        E 7 b2 01 17
        E 7 b2 01 15
        E 7 b2 01 14
        E 7 b2 01 13
        E 7 b2 01 11
        E 7 b2 01 10
        E 7 b2 01 0e
        E 7 b2 01 0d
        E 7 b2 01 0c
        E 7 b2 01 0b
        E 7 b2 01 09
        E 7 b2 01 08
        E 7 b2 01 07
        E 7 b2 01 06
        E 7 b2 01 05
        E 7 b2 01 05
        E 7 b2 01 04
        E 7 b2 01 03
        E 7 b2 01 02
        E 7 b2 01 02
        E 7 b2 01 01
        E 7 b2 01 01
        E 7 b2 01 00
        E 7 b2 01 00
        E 7 b2 01 00
        E 7 b2 01 00
        E 7 b2 01 00
        E 7 b2 01 00
        E 7 b2 01 00
        E 7 b2 01 00
        E 7 b2 01 00
        E 7 b2 01 01
        E 7 b2 01 01
        E 7 b2 01 02
        E 7 b2 01 02
        E 7 b2 01 03
        E 7 b2 01 03
        E 7 b2 01 04
        E 7 b2 01 05
        E 7 b2 01 06
        E 7 b2 01 07
        E 7 b2 01 08
        E 7 b2 01 09
        E 7 b2 01 0a
        E 7 b2 01 0b
        E 7 b2 01 0c
        E 7 b2 01 0e
        E 7 b2 01 0f
        E 7 b2 01 10
        E 7 b2 01 12
        E 7 b2 01 13
        E 7 b2 01 15
        E 7 b2 01 16
        E 7 b2 01 18
        E 7 b2 01 19
        E 7 b2 01 1b
        E 7 b2 01 1c
        E 7 b2 01 1e
        E 7 b2 01 20
        E 14 b2 01 2c
        E 14 b2 01 2e
        E 14 b2 01 31
        E 14 b2 01 33
        E 14 b2 01 35
        E 14 b2 01 37
        E 14 b2 01 39
        E 14 b2 01 3b
        E 14 b2 01 3d
        E 14 b2 01 3f
        E 14 b2 01 41
        E 14 b2 01 43
        E 14 b2 01 45
        E 14 b2 01 47
        E 14 b2 01 48
        E 14 b2 01 4a
        E 14 b2 01 4c
        E 14 b2 01 4d
        E 14 b2 01 4f
        E 14 b2 01 50
        E 14 b2 01 51
        E 14 b2 01 52
        E 14 b2 01 54
        E 14 b2 01 54
        E 14 b2 01 55
        E 14 b2 01 56
        E 14 b2 01 56
        E 14 b2 01 57
        E 14 b2 01 58
        E 14 b2 01 58
        E 14 b2 01 58
        E 14 b2 01 58
        E 14 b2 01 58
        E 14 b2 01 58
        E 14 b2 01 58
        E 14 b2 01 58
        E 14 b2 01 58
        E 14 b2 01 57
        E 14 b2 01 56
        E 14 b2 01 56
        E 14 b2 01 55
        E 14 b2 01 54
        E 14 b2 01 53
        E 14 b2 01 51
        E 14 b2 01 51
        E 14 b2 01 4f
        E 14 b2 01 4e
        E 14 b2 01 4d
        E 14 b2 01 4b
        E 14 b2 01 49
        E 14 b2 01 48
        E 14 b2 01 46
        E 14 b2 01 44
        E 14 b2 01 42
        E 14 b2 01 40
        E 14 b2 01 3e
        E 14 b2 01 3c
        E 14 b2 01 3a
        E 14 b2 01 38
        E 14 b2 01 36
        E 14 b2 01 33
        E 14 b2 01 31
        E 14 b2 01 2f
        E 14 b2 01 2d
        E 14 b2 01 2b
        E 14 b2 01 29
        E 14 b2 01 27
        E 14 b2 01 25
        E 14 b2 01 22
        E 14 b2 01 20
        E 14 b2 01 1e
        E 14 b2 01 1c
        E 14 b2 01 1a
        E 14 b2 01 18
        E 14 b2 01 16
        E 14 b2 01 14
        E 14 b2 01 12
        E 14 b2 01 10
        E 14 b2 01 0f
        E 14 b2 01 0d
        E 14 b2 01 0b
        E 14 b2 01 0a
        E 14 b2 01 09
        E 14 b2 01 07
        E 14 b2 01 07
        E 14 b2 01 05
        E 14 b2 01 04
        E 14 b2 01 03
        E 14 b2 01 02
        E 14 b2 01 02
        E 14 b2 01 01
        E 14 b2 01 00
        E 14 b2 01 00
        E 14 b2 01 00
        E 14 b2 01 00
        E 14 b2 01 00
        E 14 b2 01 00
        E 14 b2 01 00
        E 14 b2 01 00
        E 14 b2 01 00
        E 14 b2 01 01
        E 14 b2 01 02
        E 14 b2 01 02
        E 14 b2 01 03
        E 14 b2 01 04
        E 14 b2 01 04
        E 14 b2 01 06
        E 14 b2 01 07
        E 14 b2 01 08
        E 14 b2 01 09
        E 14 b2 01 0b
        E 14 b2 01 0c
        E 14 b2 01 0e
        E 14 b2 01 10
        E 14 b2 01 11
        E 14 b2 01 13
        E 14 b2 01 15
        E 14 b2 01 17
        E 14 b2 01 19
        E 14 b2 01 1b
        E 14 b2 01 1d
        E 14 b2 01 1f
        E 14 b2 01 21
        E 14 b2 01 23
        E 14 b2 01 25
        E 14 b2 01 27
        E 14 b2 01 2a
        E 14 b2 01 2c
        E 12 b2 01 33
        E 12 b2 01 35
        E 12 b2 01 37
        E 12 b2 01 3a
        E 12 b2 01 3c
        E 12 b2 01 3f
        E 12 b2 01 41
        E 12 b2 01 44
        E 12 b2 01 46
        E 12 b2 01 48
        E 12 b2 01 4b
        E 12 b2 01 4c
        E 12 b2 01 4f
        E 12 b2 01 51
        E 12 b2 01 53
        E 12 b2 01 54
        E 12 b2 01 57
        E 12 b2 01 58
        E 12 b2 01 5a
        E 12 b2 01 5b
        E 12 b2 01 5d
        E 12 b2 01 5e
        E 12 b2 01 5f
        E 12 b2 01 60
        E 12 b2 01 61
        E 12 b2 01 62
        E 12 b2 01 63
        E 12 b2 01 63
        E 12 b2 01 64
        E 12 b2 01 64
        E 12 b2 01 65
        E 12 b2 01 65
        E 12 b2 01 65
        E 12 b2 01 65
        E 12 b2 01 65
        E 12 b2 01 64
        E 12 b2 01 64
        E 12 b2 01 63
        E 12 b2 01 63
        E 12 b2 01 62
        E 12 b2 01 61
        E 12 b2 01 5f
        E 12 b2 01 5f
        E 12 b2 01 5d
        E 12 b2 01 5c
        E 12 b2 01 5b
        E 12 b2 01 59
        E 12 b2 01 57
        E 12 b2 01 56
        E 12 b2 01 54
        E 12 b2 01 52
        E 12 b2 01 50
        E 12 b2 01 4e
        E 12 b2 01 4c
        E 12 b2 01 49
        E 12 b2 01 47
        E 12 b2 01 45
        E 12 b2 01 43
        E 12 b2 01 40
        E 12 b2 01 3e
        E 12 b2 01 3b
        E 12 b2 01 38
        E 12 b2 01 36
        E 12 b2 01 33
        E 12 b2 01 31
        E 12 b2 01 2f
        E 12 b2 01 2c
        E 12 b2 01 2a
        E 12 b2 01 27
        E 12 b2 01 24
        E 12 b2 01 22
        E 12 b2 01 1f
        E 12 b2 01 1e
        E 12 b2 01 1b
        E 12 b2 01 19
        E 12 b2 01 17
        E 12 b2 01 15
        E 12 b2 01 13
        E 12 b2 01 11
        E 12 b2 01 0f
        E 12 b2 01 0d
        E 12 b2 01 0b
        E 12 b2 01 0a
        E 12 b2 01 08
        E 12 b2 01 07
        E 12 b2 01 06
        E 12 b2 01 05
        E 12 b2 01 03
        E 12 b2 01 03
        E 12 b2 01 02
        E 12 b2 01 01
        E 12 b2 01 00
        E 12 b2 01 00
        E 12 b2 01 00
        E 12 b2 01 00
        E 12 b2 01 00
        E 12 b2 01 00
        E 12 b2 01 00
        E 12 b2 01 00
        E 12 b2 01 00
        E 12 b2 01 01
        E 12 b2 01 02
        E 12 b2 01 03
        E 12 b2 01 03
        E 12 b2 01 04
        E 12 b2 01 05
        E 12 b2 01 07
        E 12 b2 01 07
        E 12 b2 01 09
        E 12 b2 01 0b
        E 12 b2 01 0c
        E 12 b2 01 0e
        E 12 b2 01 10
        E 12 b2 01 12
        E 12 b2 01 14
        E 12 b2 01 16
        E 12 b2 01 18
        E 12 b2 01 1a
        E 12 b2 01 1c
        E 12 b2 01 1f
        E 12 b2 01 21
        E 12 b2 01 24
        E 12 b2 01 26
        E 12 b2 01 28
        E 12 b2 01 2b
        E 12 b2 01 2d
        E 12 b2 01 2f
        E 12 b2 01 33
        E 14 b2 01 06
        E 14 b2 01 06
        E 14 b2 01 07
        E 14 b2 01 07
        E 14 b2 01 07
        E 14 b2 01 07
        E 14 b2 01 08
        E 14 b2 01 08
        E 14 b2 01 08
        E 14 b2 01 09
        E 14 b2 01 09
        E 14 b2 01 09
        E 14 b2 01 09
        E 14 b2 01 0a
        E 14 b2 01 0a
        E 14 b2 01 0a
        E 14 b2 01 0a
        E 14 b2 01 0b
        E 14 b2 01 0b
        E 14 b2 01 0b
        E 14 b2 01 0b
        E 14 b2 01 0b
        E 14 b2 01 0c
        E 14 b2 01 0c
        E 14 b2 01 0c
        E 14 b2 01 0c
        E 14 b2 01 0c
        E 14 b2 01 0c
        E 14 b2 01 0c
        E 14 b2 01 0c
        E 14 b2 01 0c
        E 14 b2 01 0c
        E 14 b2 01 0c
        E 14 b2 01 0c
        E 14 b2 01 0c
        E 14 b2 01 0c
        E 14 b2 01 0c
        E 14 b2 01 0c
        E 14 b2 01 0c
        E 14 b2 01 0c
        E 14 b2 01 0c
        E 14 b2 01 0c
        E 14 b2 01 0b
        E 14 b2 01 0b
        E 14 b2 01 0b
        E 14 b2 01 0b
        E 14 b2 01 0b
        E 14 b2 01 0b
        E 14 b2 01 0a
        E 14 b2 01 0a
        E 14 b2 01 0a
        E 14 b2 01 0a
        E 14 b2 01 09
        E 14 b2 01 09
        E 14 b2 01 09
        E 14 b2 01 08
        E 14 b2 01 08
        E 14 b2 01 08
        E 14 b2 01 08
        E 14 b2 01 07
        E 14 b2 01 07
        E 14 b2 01 07
        E 14 b2 01 06
        E 14 b2 01 06
        E 14 b2 01 06
        E 14 b2 01 05
        E 14 b2 01 05
        E 14 b2 01 05
        E 14 b2 01 04
        E 14 b2 01 04
        E 14 b2 01 04
        E 14 b2 01 04
        E 14 b2 01 03
        E 14 b2 01 03
        E 14 b2 01 03
        E 14 b2 01 02
        E 14 b2 01 02
        E 14 b2 01 02
        E 14 b2 01 02
        E 14 b2 01 01
        E 14 b2 01 01
        E 14 b2 01 01
        E 14 b2 01 01
        E 14 b2 01 01
        E 14 b2 01 01
        E 14 b2 01 00
        E 14 b2 01 00
        E 14 b2 01 00
        E 14 b2 01 00
        E 14 b2 01 00
        E 14 b2 01 00
        E 14 b2 01 00
        E 14 b2 01 00
        E 14 b2 01 00
        E 14 b2 01 00
        E 14 b2 01 00
        E 14 b2 01 00
        E 14 b2 01 00
        E 14 b2 01 00
        E 14 b2 01 00
        E 14 b2 01 00
        E 14 b2 01 00
        E 14 b2 01 00
        E 14 b2 01 00
        E 14 b2 01 00
        E 14 b2 01 00
        E 14 b2 01 00
        E 14 b2 01 01
        E 14 b2 01 01
        E 14 b2 01 01
        E 14 b2 01 01
        E 14 b2 01 01
        E 14 b2 01 02
        E 14 b2 01 02
        E 14 b2 01 02
        E 14 b2 01 02
        E 14 b2 01 03
        E 14 b2 01 03
        E 14 b2 01 03
        E 14 b2 01 03
        E 14 b2 01 04
        E 14 b2 01 04
        E 14 b2 01 04
        E 14 b2 01 05
        E 14 b2 01 05
        E 14 b2 01 05
        E 14 b2 01 06
        E 14 b2 01 06
        E 12 b2 01 19
        E 12 b2 01 1a
        E 12 b2 01 1c
        E 12 b2 01 1d
        E 12 b2 01 1e
        E 12 b2 01 1f
        E 12 b2 01 20
        E 12 b2 01 22
        E 12 b2 01 23
        E 12 b2 01 24
        E 12 b2 01 25
        E 12 b2 01 26
        E 12 b2 01 27
        E 12 b2 01 28
        E 12 b2 01 29
        E 12 b2 01 2a
        E 12 b2 01 2b
        E 12 b2 01 2c
        E 12 b2 01 2d
        E 12 b2 01 2e
        E 12 b2 01 2e
        E 12 b2 01 2f
        E 12 b2 01 30
        E 12 b2 01 30
        E 12 b2 01 30
        E 12 b2 01 31
        E 12 b2 01 31
        E 12 b2 01 32
        E 12 b2 01 32
        E 12 b2 01 32
        E 12 b2 01 32
        E 12 b2 01 32
        E 12 b2 01 32
        E 12 b2 01 32
        E 12 b2 01 32
        E 12 b2 01 32
        E 12 b2 01 32
        E 12 b2 01 32
        E 12 b2 01 31
        E 12 b2 01 31
        E 12 b2 01 30
        E 12 b2 01 30
        E 12 b2 01 2f
        E 12 b2 01 2e
        E 12 b2 01 2e
        E 12 b2 01 2d
        E 12 b2 01 2c
        E 12 b2 01 2c
        E 12 b2 01 2b
        E 12 b2 01 2a
        E 12 b2 01 29
        E 12 b2 01 28
        E 12 b2 01 27
        E 12 b2 01 26
        E 12 b2 01 24
        E 12 b2 01 23
        E 12 b2 01 22
        E 12 b2 01 21
        E 12 b2 01 20
        E 12 b2 01 1f
        E 12 b2 01 1d
        E 12 b2 01 1c
        E 12 b2 01 1b
        E 12 b2 01 1a
        E 12 b2 01 18
        E 12 b2 01 17
        E 12 b2 01 16
        E 12 b2 01 15
        E 12 b2 01 13
        E 12 b2 01 12
        E 12 b2 01 11
        E 12 b2 01 10
        E 12 b2 01 0f
        E 12 b2 01 0e
        E 12 b2 01 0c
        E 12 b2 01 0b
        E 12 b2 01 0a
        E 12 b2 01 09
        E 12 b2 01 08
        E 12 b2 01 07
        E 12 b2 01 06
        E 12 b2 01 06
        E 12 b2 01 05
        E 12 b2 01 04
        E 12 b2 01 04
        E 12 b2 01 03
        E 12 b2 01 02
        E 12 b2 01 02
        E 12 b2 01 01
        E 12 b2 01 01
        E 12 b2 01 00
        E 12 b2 01 00
        E 12 b2 01 00
        E 12 b2 01 00
        E 12 b2 01 00
        E 12 b2 01 00
        E 12 b2 01 00
        E 12 b2 01 00
        E 12 b2 01 00
        E 12 b2 01 00
        E 12 b2 01 00
        E 12 b2 01 01
        E 12 b2 01 01
        E 12 b2 01 02
        E 12 b2 01 02
        E 12 b2 01 02
        E 12 b2 01 03
        E 12 b2 01 04
        E 12 b2 01 04
        E 12 b2 01 05
        E 12 b2 01 06
        E 12 b2 01 07
        E 12 b2 01 08
        E 12 b2 01 09
        E 12 b2 01 0a
        E 12 b2 01 0b
        E 12 b2 01 0c
        E 12 b2 01 0d
        E 12 b2 01 0e
        E 12 b2 01 0f
        E 12 b2 01 10
        E 12 b2 01 12
        E 12 b2 01 13
        E 12 b2 01 14
        E 12 b2 01 15
        E 12 b2 01 16
        E 12 b2 01 18
        E 12 b2 01 19
        E 7 b2 01 2c
        E 7 b2 01 2e
        E 7 b2 01 31
        E 7 b2 01 33
        E 7 b2 01 35
        E 7 b2 01 37
        E 7 b2 01 39
        E 7 b2 01 3b
        E 7 b2 01 3d
        E 7 b2 01 3f
        E 7 b2 01 41
        E 7 b2 01 43
        E 7 b2 01 45
        E 7 b2 01 47
        E 7 b2 01 48
        E 7 b2 01 4a
        E 7 b2 01 4c
        E 7 b2 01 4d
        E 7 b2 01 4f
        E 7 b2 01 50
        E 7 b2 01 51
        E 7 b2 01 52
        E 7 b2 01 54
        E 7 b2 01 54
        E 7 b2 01 55
        E 7 b2 01 56
        E 7 b2 01 56
        E 7 b2 01 57
        E 7 b2 01 58
        E 7 b2 01 58
        E 7 b2 01 58
        E 7 b2 01 58
        E 7 b2 01 58
        E 7 b2 01 58
        E 7 b2 01 58
        E 7 b2 01 58
        E 7 b2 01 58
        E 7 b2 01 57
        E 7 b2 01 56
        E 7 b2 01 56
        E 7 b2 01 55
        E 7 b2 01 54
        E 7 b2 01 53
        E 7 b2 01 51
        E 7 b2 01 51
        E 7 b2 01 4f
        E 7 b2 01 4e
        E 7 b2 01 4d
        E 7 b2 01 4b
        E 7 b2 01 49
        E 7 b2 01 48
        E 7 b2 01 46
        E 7 b2 01 44
        E 7 b2 01 42
        E 7 b2 01 40
        E 7 b2 01 3e
        E 7 b2 01 3c
        E 7 b2 01 3a
        E 7 b2 01 38
        E 7 b2 01 36
        E 7 b2 01 33
        E 7 b2 01 31
        E 7 b2 01 2f
        E 7 b2 01 2d
        E 7 b2 01 2b
        E 7 b2 01 29
        E 7 b2 01 27
        E 7 b2 01 25
        E 7 b2 01 22
        E 7 b2 01 20
        E 7 b2 01 1e
        E 7 b2 01 1c
        E 7 b2 01 1a
        E 7 b2 01 18
        E 7 b2 01 16
        E 7 b2 01 14
        E 7 b2 01 12
        E 7 b2 01 10
        E 7 b2 01 0f
        E 7 b2 01 0d
        E 7 b2 01 0b
        E 7 b2 01 0a
        E 7 b2 01 09
        E 7 b2 01 07
        E 7 b2 01 07
        E 7 b2 01 05
        E 7 b2 01 04
        E 7 b2 01 03
        E 7 b2 01 02
        E 7 b2 01 02
        E 7 b2 01 01
        E 7 b2 01 00
        E 7 b2 01 00
        E 7 b2 01 00
        E 7 b2 01 00
        E 7 b2 01 00
        E 7 b2 01 00
        E 7 b2 01 00
        E 7 b2 01 00
        E 7 b2 01 00
        E 7 b2 01 01
        E 7 b2 01 02
        E 7 b2 01 02
        E 7 b2 01 03
        E 7 b2 01 04
        E 7 b2 01 04
        E 7 b2 01 06
        E 7 b2 01 07
        E 7 b2 01 08
        E 7 b2 01 09
        E 7 b2 01 0b
        E 7 b2 01 0c
        E 7 b2 01 0e
        E 7 b2 01 10
        E 7 b2 01 11
        E 7 b2 01 13
        E 7 b2 01 15
        E 7 b2 01 17
        E 7 b2 01 19
        E 7 b2 01 1b
        E 7 b2 01 1d
        E 7 b2 01 1f
        E 7 b2 01 21
        E 7 b2 01 23
        E 7 b2 01 25
        E 7 b2 01 27
        E 7 b2 01 2a
        E 7 b2 01 2c
        E 7 b2 01 20
        E 7 b2 01 21
        E 7 b2 01 23
        E 7 b2 01 24
        E 7 b2 01 26
        E 7 b2 01 27
        E 7 b2 01 29
        E 7 b2 01 2a
        E 7 b2 01 2c
        E 7 b2 01 2d
        E 7 b2 01 2f
        E 7 b2 01 30
        E 7 b2 01 31
        E 7 b2 01 33
        E 7 b2 01 34
        E 7 b2 01 35
        E 7 b2 01 36
        E 7 b2 01 37
        E 7 b2 01 38
        E 7 b2 01 39
        E 7 b2 01 3a
        E 7 b2 01 3b
        E 7 b2 01 3c
        E 7 b2 01 3c
        E 7 b2 01 3d
        E 7 b2 01 3d
        E 7 b2 01 3e
        E 7 b2 01 3e
        E 7 b2 01 3f
        E 7 b2 01 3f
        E 7 b2 01 3f
        E 7 b2 01 3f
        E 7 b2 01 3f
        E 7 b2 01 3f
        E 7 b2 01 3f
        E 7 b2 01 3f
        E 7 b2 01 3f
        E 7 b2 01 3e
        E 7 b2 01 3e
        E 7 b2 01 3d
        E 7 b2 01 3d
        E 7 b2 01 3c
        E 7 b2 01 3b
        E 7 b2 01 3a
        E 7 b2 01 3a
        E 7 b2 01 39
        E 7 b2 01 38
        E 7 b2 01 37
        E 7 b2 01 36
        E 7 b2 01 34
        E 7 b2 01 33
        E 7 b2 01 32
        E 7 b2 01 31
        E 7 b2 01 2f
        E 7 b2 01 2e
        E 7 b2 01 2c
        E 7 b2 01 2b
        E 7 b2 01 2a
        E 7 b2 01 28
        E 7 b2 01 27
        E 7 b2 01 25
        E 7 b2 01 23
        E 7 b2 01 22
        E 7 b2 01 20
        E 7 b2 01 1f
        E 7 b2 01 1d
        E 7 b2 01 1c
        E 7 b2 01 1a
        E 7 b2 01 18
        E 7 b2 01 17
        E 7 b2 01 15
        E 7 b2 01 14
        E 7 b2 01 13
        E 7 b2 01 11
        E 7 b2 01 10
        E 7 b2 01 0e
        E 7 b2 01 0d
        E 7 b2 01 0c
        E 7 b2 01 0b
        E 7 b2 01 09
        E 7 b2 01 08
        E 7 b2 01 07
        E 7 b2 01 06
        E 7 b2 01 05
        E 7 b2 01 05
        E 7 b2 01 04
        E 7 b2 01 03
        E 7 b2 01 02
        E 7 b2 01 02
        E 7 b2 01 01
        E 7 b2 01 01
        E 7 b2 01 00
        E 7 b2 01 00
        E 7 b2 01 00
        E 7 b2 01 00
        E 7 b2 01 00
        E 7 b2 01 00
        E 7 b2 01 00
        E 7 b2 01 00
        E 7 b2 01 00
        E 7 b2 01 01
        E 7 b2 01 01
        E 7 b2 01 02
        E 7 b2 01 02
        E 7 b2 01 03
        E 7 b2 01 03
        E 7 b2 01 04
        E 7 b2 01 05
        E 7 b2 01 06
        E 7 b2 01 07
        E 7 b2 01 08
        E 7 b2 01 09
        E 7 b2 01 0a
        E 7 b2 01 0b
        E 7 b2 01 0c
        E 7 b2 01 0e
        E 7 b2 01 0f
        E 7 b2 01 10
        E 7 b2 01 12
        E 7 b2 01 13
        E 7 b2 01 15
        E 7 b2 01 16
        E 7 b2 01 18
        E 7 b2 01 19
        E 7 b2 01 1b
        E 7 b2 01 1c
        E 7 b2 01 1e
        E 6 b2 01 20
        E 1 b0 7b 00
        CCINTERP 32
        CHASE_CC_TAKEOFFS 1
        GUID {BF000B9C-62CE-314A-B513-EBA41DBC6344}
        IGNTEMPO 0 120 4 4
        SRCCOLOR 175
        VELLANE 3 601 0
        VELLANE -1 196 0
      >
    >
  >
  <TRACK {B8F39A90-44A4-7140-8B50-F9B423D0E7E4}
    NAME "insects of the los angeles basin"
    PEAKCOL 16576
    BEAT -1
    AUTOMODE 0
    VOLPAN 1 0 -1 -1 1
    MUTESOLO 0 0 0
    IPHASE 0
    PLAYOFFS 0 1
    ISBUS 0 0
    BUSCOMP 0 0 0 0 0
    SHOWINMIX 1 0.6667 0.5 1 0.5 0 -1 0
    FREEMODE 0
    SEL 0
    REC 0 0 1 0 0 0 0
    VU 2
    TRACKHEIGHT 0 1 0 0 -1 0
    INQ 0 0 0 0.5 100 0 0 100
    NCHAN 2
    FX 1
    TRACKID {B8F39A90-44A4-7140-8B50-F9B423D0E7E4}
    PERF 0
    MIDIOUT -1
    MAINSEND 1 0
    <ITEM
      POSITION 0
      SNAPOFFS 0
      LENGTH 0.521739
      LOOP 1
      ALLTAKES 0
      FADEIN 1 0 0 1 0 0
      FADEOUT 1 0 0 1 0 0
      MUTE 0 0
      SEL 0
      IGUID {8C38FB5F-A2D6-B941-A412-38E95FFC0127}
      IID 17
      NAME "insects of the los angeles basin.mid"
      VOLPAN 1 0 1 -1
      SOFFS 0 0
      PLAYRATE 1 1 0 -1 0 0.0025
      CHANMODE 0
      GUID {FD6B61A9-825D-F245-986B-A7581D9CC779}
      <SOURCE MIDI
        HASDATA 1 128 QN
        CCINTERP 32
        POOLEDEVTS {A398D09E-3DAD-5245-B4D1-248EE65F7ABB}
        E 128 b0 7b 00
        CCINTERP 32
        CHASE_CC_TAKEOFFS 1
        GUID {1B493054-6C13-8841-A53E-1338F9F9642A}
        IGNTEMPO 0 120 4 4
        SRCCOLOR 176
        VELLANE 3 601 0
        VELLANE -1 196 0
      >
    >
  >
  <TRACK {48255D4B-133A-A44D-BFC5-B7E0FEF8CE93}
    NAME "insects of the los angeles basin"
    PEAKCOL 16576
    BEAT -1
    AUTOMODE 0
    VOLPAN 1 0 -1 -1 1
    MUTESOLO 0 0 0
    IPHASE 0
    PLAYOFFS 0 1
    ISBUS 0 0
    BUSCOMP 0 0 0 0 0
    SHOWINMIX 1 0.6667 0.5 1 0.5 0 -1 0
    FREEMODE 0
    SEL 0
    REC 0 0 1 0 0 0 0
    VU 2
    TRACKHEIGHT 0 1 0 0 -1 0
    INQ 0 0 0 0.5 100 0 0 100
    NCHAN 2
    FX 1
    TRACKID {48255D4B-133A-A44D-BFC5-B7E0FEF8CE93}
    PERF 0
    MIDIOUT -1
    MAINSEND 1 0
    <ITEM
      POSITION 0
      SNAPOFFS 0
      LENGTH 2066.08644
      LOOP 1
      ALLTAKES 0
      FADEIN 1 0 0 1 0 0
      FADEOUT 1 0 0 1 0 0
      MUTE 0 0
      SEL 0
      IGUID {FD3E7151-8CCD-0044-A19F-ECA024E06E09}
      IID 18
      NAME "insects of the los angeles basin.mid"
      VOLPAN 1 0 1 -1
      SOFFS 0 0
      PLAYRATE 1 1 0 -1 0 0.0025
      CHANMODE 0
      GUID {32663F76-B5CE-6546-B10D-819848ECFA90}
      <SOURCE MIDI
        HASDATA 1 128 QN
        CCINTERP 32
        POOLEDEVTS {FF7D42BD-DF34-2148-966E-C49B2FE75A71}
        E 30 b4 04 20
        E 30 b4 04 21
        E 30 b4 04 23
        E 30 b4 04 24
        E 30 b4 04 26
        E 30 b4 04 27
        E 30 b4 04 29
        E 30 b4 04 2a
        E 30 b4 04 2c
        E 30 b4 04 2d
        E 30 b4 04 2f
        E 30 b4 04 30
        E 30 b4 04 31
        E 30 b4 04 33
        E 30 b4 04 34
        E 30 b4 04 35
        E 30 b4 04 36
        E 30 b4 04 37
        E 30 b4 04 38
        E 30 b4 04 39
        E 30 b4 04 3a
        E 30 b4 04 3b
        E 30 b4 04 3c
        E 30 b4 04 3c
        E 30 b4 04 3d
        E 30 b4 04 3d
        E 30 b4 04 3e
        E 30 b4 04 3e
        E 30 b4 04 3f
        E 30 b4 04 3f
        E 30 b4 04 3f
        E 30 b4 04 3f
        E 30 b4 04 3f
        E 30 b4 04 3f
        E 30 b4 04 3f
        E 30 b4 04 3f
        E 30 b4 04 3f
        E 30 b4 04 3e
        E 30 b4 04 3e
        E 30 b4 04 3d
        E 30 b4 04 3d
        E 30 b4 04 3c
        E 30 b4 04 3b
        E 30 b4 04 3a
        E 30 b4 04 3a
        E 30 b4 04 39
        E 30 b4 04 38
        E 30 b4 04 37
        E 30 b4 04 36
        E 30 b4 04 34
        E 30 b4 04 33
        E 30 b4 04 32
        E 30 b4 04 31
        E 30 b4 04 2f
        E 30 b4 04 2e
        E 30 b4 04 2c
        E 30 b4 04 2b
        E 30 b4 04 2a
        E 30 b4 04 28
        E 30 b4 04 27
        E 30 b4 04 25
        E 30 b4 04 23
        E 30 b4 04 22
        E 30 b4 04 20
        E 30 b4 04 1f
        E 30 b4 04 1d
        E 30 b4 04 1c
        E 30 b4 04 1a
        E 30 b4 04 18
        E 30 b4 04 17
        E 30 b4 04 15
        E 30 b4 04 14
        E 30 b4 04 13
        E 30 b4 04 11
        E 30 b4 04 10
        E 30 b4 04 0e
        E 30 b4 04 0d
        E 30 b4 04 0c
        E 30 b4 04 0b
        E 30 b4 04 09
        E 30 b4 04 08
        E 30 b4 04 07
        E 30 b4 04 06
        E 30 b4 04 05
        E 30 b4 04 05
        E 30 b4 04 04
        E 30 b4 04 03
        E 30 b4 04 02
        E 30 b4 04 02
        E 30 b4 04 01
        E 30 b4 04 01
        E 30 b4 04 00
        E 30 b4 04 00
        E 30 b4 04 00
        E 30 b4 04 00
        E 30 b4 04 00
        E 30 b4 04 00
        E 30 b4 04 00
        E 30 b4 04 00
        E 30 b4 04 00
        E 30 b4 04 01
        E 30 b4 04 01
        E 30 b4 04 02
        E 30 b4 04 02
        E 30 b4 04 03
        E 30 b4 04 03
        E 30 b4 04 04
        E 30 b4 04 05
        E 30 b4 04 06
        E 30 b4 04 07
        E 30 b4 04 08
        E 30 b4 04 09
        E 30 b4 04 0a
        E 30 b4 04 0b
        E 30 b4 04 0c
        E 30 b4 04 0e
        E 30 b4 04 0f
        E 30 b4 04 10
        E 30 b4 04 12
        E 30 b4 04 13
        E 30 b4 04 15
        E 30 b4 04 16
        E 30 b4 04 18
        E 30 b4 04 19
        E 30 b4 04 1b
        E 30 b4 04 1c
        E 30 b4 04 1e
        E 30 b4 04 20
        E 61 b4 04 2c
        E 61 b4 04 2e
        E 61 b4 04 31
        E 61 b4 04 33
        E 61 b4 04 35
        E 61 b4 04 37
        E 61 b4 04 39
        E 61 b4 04 3b
        E 61 b4 04 3d
        E 61 b4 04 3f
        E 61 b4 04 41
        E 61 b4 04 43
        E 61 b4 04 45
        E 61 b4 04 47
        E 61 b4 04 48
        E 61 b4 04 4a
        E 61 b4 04 4c
        E 61 b4 04 4d
        E 61 b4 04 4f
        E 61 b4 04 50
        E 61 b4 04 51
        E 61 b4 04 52
        E 61 b4 04 54
        E 61 b4 04 54
        E 61 b4 04 55
        E 61 b4 04 56
        E 61 b4 04 56
        E 61 b4 04 57
        E 61 b4 04 58
        E 61 b4 04 58
        E 61 b4 04 58
        E 61 b4 04 58
        E 61 b4 04 58
        E 61 b4 04 58
        E 61 b4 04 58
        E 61 b4 04 58
        E 61 b4 04 58
        E 61 b4 04 57
        E 61 b4 04 56
        E 61 b4 04 56
        E 61 b4 04 55
        E 61 b4 04 54
        E 61 b4 04 53
        E 61 b4 04 51
        E 61 b4 04 51
        E 61 b4 04 4f
        E 61 b4 04 4e
        E 61 b4 04 4d
        E 61 b4 04 4b
        E 61 b4 04 49
        E 61 b4 04 48
        E 61 b4 04 46
        E 61 b4 04 44
        E 61 b4 04 42
        E 61 b4 04 40
        E 61 b4 04 3e
        E 61 b4 04 3c
        E 61 b4 04 3a
        E 61 b4 04 38
        E 61 b4 04 36
        E 61 b4 04 33
        E 61 b4 04 31
        E 61 b4 04 2f
        E 61 b4 04 2d
        E 61 b4 04 2b
        E 61 b4 04 29
        E 61 b4 04 27
        E 61 b4 04 25
        E 61 b4 04 22
        E 61 b4 04 20
        E 61 b4 04 1e
        E 61 b4 04 1c
        E 61 b4 04 1a
        E 61 b4 04 18
        E 61 b4 04 16
        E 61 b4 04 14
        E 61 b4 04 12
        E 61 b4 04 10
        E 61 b4 04 0f
        E 61 b4 04 0d
        E 61 b4 04 0b
        E 61 b4 04 0a
        E 61 b4 04 09
        E 61 b4 04 07
        E 61 b4 04 07
        E 61 b4 04 05
        E 61 b4 04 04
        E 61 b4 04 03
        E 61 b4 04 02
        E 61 b4 04 02
        E 61 b4 04 01
        E 61 b4 04 00
        E 61 b4 04 00
        E 61 b4 04 00
        E 61 b4 04 00
        E 61 b4 04 00
        E 61 b4 04 00
        E 61 b4 04 00
        E 61 b4 04 00
        E 61 b4 04 00
        E 61 b4 04 01
        E 61 b4 04 02
        E 61 b4 04 02
        E 61 b4 04 03
        E 61 b4 04 04
        E 61 b4 04 04
        E 61 b4 04 06
        E 61 b4 04 07
        E 61 b4 04 08
        E 61 b4 04 09
        E 61 b4 04 0b
        E 61 b4 04 0c
        E 61 b4 04 0e
        E 61 b4 04 10
        E 61 b4 04 11
        E 61 b4 04 13
        E 61 b4 04 15
        E 61 b4 04 17
        E 61 b4 04 19
        E 61 b4 04 1b
        E 61 b4 04 1d
        E 61 b4 04 1f
        E 61 b4 04 21
        E 61 b4 04 23
        E 61 b4 04 25
        E 61 b4 04 27
        E 61 b4 04 2a
        E 61 b4 04 2c
        E 54 b4 04 33
        E 54 b4 04 35
        E 54 b4 04 37
        E 54 b4 04 3a
        E 54 b4 04 3c
        E 54 b4 04 3f
        E 54 b4 04 41
        E 54 b4 04 44
        E 54 b4 04 46
        E 54 b4 04 48
        E 54 b4 04 4b
        E 54 b4 04 4c
        E 54 b4 04 4f
        E 54 b4 04 51
        E 54 b4 04 53
        E 54 b4 04 54
        E 54 b4 04 57
        E 54 b4 04 58
        E 54 b4 04 5a
        E 54 b4 04 5b
        E 54 b4 04 5d
        E 54 b4 04 5e
        E 54 b4 04 5f
        E 54 b4 04 60
        E 54 b4 04 61
        E 54 b4 04 62
        E 54 b4 04 63
        E 54 b4 04 63
        E 54 b4 04 64
        E 54 b4 04 64
        E 54 b4 04 65
        E 54 b4 04 65
        E 54 b4 04 65
        E 54 b4 04 65
        E 54 b4 04 65
        E 54 b4 04 64
        E 54 b4 04 64
        E 54 b4 04 63
        E 54 b4 04 63
        E 54 b4 04 62
        E 54 b4 04 61
        E 54 b4 04 5f
        E 54 b4 04 5f
        E 54 b4 04 5d
        E 54 b4 04 5c
        E 54 b4 04 5b
        E 54 b4 04 59
        E 54 b4 04 57
        E 54 b4 04 56
        E 54 b4 04 54
        E 54 b4 04 52
        E 54 b4 04 50
        E 54 b4 04 4e
        E 54 b4 04 4c
        E 54 b4 04 49
        E 54 b4 04 47
        E 54 b4 04 45
        E 54 b4 04 43
        E 54 b4 04 40
        E 54 b4 04 3e
        E 54 b4 04 3b
        E 54 b4 04 38
        E 54 b4 04 36
        E 54 b4 04 33
        E 54 b4 04 31
        E 54 b4 04 2f
        E 54 b4 04 2c
        E 54 b4 04 2a
        E 54 b4 04 27
        E 54 b4 04 24
        E 54 b4 04 22
        E 54 b4 04 1f
        E 54 b4 04 1e
        E 54 b4 04 1b
        E 54 b4 04 19
        E 54 b4 04 17
        E 54 b4 04 15
        E 54 b4 04 13
        E 54 b4 04 11
        E 54 b4 04 0f
        E 54 b4 04 0d
        E 54 b4 04 0b
        E 54 b4 04 0a
        E 54 b4 04 08
        E 54 b4 04 07
        E 54 b4 04 06
        E 54 b4 04 05
        E 54 b4 04 03
        E 54 b4 04 03
        E 54 b4 04 02
        E 54 b4 04 01
        E 54 b4 04 00
        E 54 b4 04 00
        E 54 b4 04 00
        E 54 b4 04 00
        E 54 b4 04 00
        E 54 b4 04 00
        E 54 b4 04 00
        E 54 b4 04 00
        E 54 b4 04 00
        E 54 b4 04 01
        E 54 b4 04 02
        E 54 b4 04 03
        E 54 b4 04 03
        E 54 b4 04 04
        E 54 b4 04 05
        E 54 b4 04 07
        E 54 b4 04 07
        E 54 b4 04 09
        E 54 b4 04 0b
        E 54 b4 04 0c
        E 54 b4 04 0e
        E 54 b4 04 10
        E 54 b4 04 12
        E 54 b4 04 14
        E 54 b4 04 16
        E 54 b4 04 18
        E 54 b4 04 1a
        E 54 b4 04 1c
        E 54 b4 04 1f
        E 54 b4 04 21
        E 54 b4 04 24
        E 54 b4 04 26
        E 54 b4 04 28
        E 54 b4 04 2b
        E 54 b4 04 2d
        E 54 b4 04 2f
        E 54 b4 04 33
        E 61 b4 04 06
        E 61 b4 04 06
        E 61 b4 04 07
        E 61 b4 04 07
        E 61 b4 04 07
        E 61 b4 04 07
        E 61 b4 04 08
        E 61 b4 04 08
        E 61 b4 04 08
        E 61 b4 04 09
        E 61 b4 04 09
        E 61 b4 04 09
        E 61 b4 04 09
        E 61 b4 04 0a
        E 61 b4 04 0a
        E 61 b4 04 0a
        E 61 b4 04 0a
        E 61 b4 04 0b
        E 61 b4 04 0b
        E 61 b4 04 0b
        E 61 b4 04 0b
        E 61 b4 04 0b
        E 61 b4 04 0c
        E 61 b4 04 0c
        E 61 b4 04 0c
        E 61 b4 04 0c
        E 61 b4 04 0c
        E 61 b4 04 0c
        E 61 b4 04 0c
        E 61 b4 04 0c
        E 61 b4 04 0c
        E 61 b4 04 0c
        E 61 b4 04 0c
        E 61 b4 04 0c
        E 61 b4 04 0c
        E 61 b4 04 0c
        E 61 b4 04 0c
        E 61 b4 04 0c
        E 61 b4 04 0c
        E 61 b4 04 0c
        E 61 b4 04 0c
        E 61 b4 04 0c
        E 61 b4 04 0b
        E 61 b4 04 0b
        E 61 b4 04 0b
        E 61 b4 04 0b
        E 61 b4 04 0b
        E 61 b4 04 0b
        E 61 b4 04 0a
        E 61 b4 04 0a
        E 61 b4 04 0a
        E 61 b4 04 0a
        E 61 b4 04 09
        E 61 b4 04 09
        E 61 b4 04 09
        E 61 b4 04 08
        E 61 b4 04 08
        E 61 b4 04 08
        E 61 b4 04 08
        E 61 b4 04 07
        E 61 b4 04 07
        E 61 b4 04 07
        E 61 b4 04 06
        E 61 b4 04 06
        E 61 b4 04 06
        E 61 b4 04 05
        E 61 b4 04 05
        E 61 b4 04 05
        E 61 b4 04 04
        E 61 b4 04 04
        E 61 b4 04 04
        E 61 b4 04 04
        E 61 b4 04 03
        E 61 b4 04 03
        E 61 b4 04 03
        E 61 b4 04 02
        E 61 b4 04 02
        E 61 b4 04 02
        E 61 b4 04 02
        E 61 b4 04 01
        E 61 b4 04 01
        E 61 b4 04 01
        E 61 b4 04 01
        E 61 b4 04 01
        E 61 b4 04 01
        E 61 b4 04 00
        E 61 b4 04 00
        E 61 b4 04 00
        E 61 b4 04 00
        E 61 b4 04 00
        E 61 b4 04 00
        E 61 b4 04 00
        E 61 b4 04 00
        E 61 b4 04 00
        E 61 b4 04 00
        E 61 b4 04 00
        E 61 b4 04 00
        E 61 b4 04 00
        E 61 b4 04 00
        E 61 b4 04 00
        E 61 b4 04 00
        E 61 b4 04 00
        E 61 b4 04 00
        E 61 b4 04 00
        E 61 b4 04 00
        E 61 b4 04 00
        E 61 b4 04 00
        E 61 b4 04 01
        E 61 b4 04 01
        E 61 b4 04 01
        E 61 b4 04 01
        E 61 b4 04 01
        E 61 b4 04 02
        E 61 b4 04 02
        E 61 b4 04 02
        E 61 b4 04 02
        E 61 b4 04 03
        E 61 b4 04 03
        E 61 b4 04 03
        E 61 b4 04 03
        E 61 b4 04 04
        E 61 b4 04 04
        E 61 b4 04 04
        E 61 b4 04 05
        E 61 b4 04 05
        E 61 b4 04 05
        E 61 b4 04 06
        E 61 b4 04 06
        E 54 b4 04 19
        E 54 b4 04 1a
        E 54 b4 04 1c
        E 54 b4 04 1d
        E 54 b4 04 1e
        E 54 b4 04 1f
        E 54 b4 04 20
        E 54 b4 04 22
        E 54 b4 04 23
        E 54 b4 04 24
        E 54 b4 04 25
        E 54 b4 04 26
        E 54 b4 04 27
        E 54 b4 04 28
        E 54 b4 04 29
        E 54 b4 04 2a
        E 54 b4 04 2b
        E 54 b4 04 2c
        E 54 b4 04 2d
        E 54 b4 04 2e
        E 54 b4 04 2e
        E 54 b4 04 2f
        E 54 b4 04 30
        E 54 b4 04 30
        E 54 b4 04 30
        E 54 b4 04 31
        E 54 b4 04 31
        E 54 b4 04 32
        E 54 b4 04 32
        E 54 b4 04 32
        E 54 b4 04 32
        E 54 b4 04 32
        E 54 b4 04 32
        E 54 b4 04 32
        E 54 b4 04 32
        E 54 b4 04 32
        E 54 b4 04 32
        E 54 b4 04 32
        E 54 b4 04 31
        E 54 b4 04 31
        E 54 b4 04 30
        E 54 b4 04 30
        E 54 b4 04 2f
        E 54 b4 04 2e
        E 54 b4 04 2e
        E 54 b4 04 2d
        E 54 b4 04 2c
        E 54 b4 04 2c
        E 54 b4 04 2b
        E 54 b4 04 2a
        E 54 b4 04 29
        E 54 b4 04 28
        E 54 b4 04 27
        E 54 b4 04 26
        E 54 b4 04 24
        E 54 b4 04 23
        E 54 b4 04 22
        E 54 b4 04 21
        E 54 b4 04 20
        E 54 b4 04 1f
        E 54 b4 04 1d
        E 54 b4 04 1c
        E 54 b4 04 1b
        E 54 b4 04 1a
        E 54 b4 04 18
        E 54 b4 04 17
        E 54 b4 04 16
        E 54 b4 04 15
        E 54 b4 04 13
        E 54 b4 04 12
        E 54 b4 04 11
        E 54 b4 04 10
        E 54 b4 04 0f
        E 54 b4 04 0e
        E 54 b4 04 0c
        E 54 b4 04 0b
        E 54 b4 04 0a
        E 54 b4 04 09
        E 54 b4 04 08
        E 54 b4 04 07
        E 54 b4 04 06
        E 54 b4 04 06
        E 54 b4 04 05
        E 54 b4 04 04
        E 54 b4 04 04
        E 54 b4 04 03
        E 54 b4 04 02
        E 54 b4 04 02
        E 54 b4 04 01
        E 54 b4 04 01
        E 54 b4 04 00
        E 54 b4 04 00
        E 54 b4 04 00
        E 54 b4 04 00
        E 54 b4 04 00
        E 54 b4 04 00
        E 54 b4 04 00
        E 54 b4 04 00
        E 54 b4 04 00
        E 54 b4 04 00
        E 54 b4 04 00
        E 54 b4 04 01
        E 54 b4 04 01
        E 54 b4 04 02
        E 54 b4 04 02
        E 54 b4 04 02
        E 54 b4 04 03
        E 54 b4 04 04
        E 54 b4 04 04
        E 54 b4 04 05
        E 54 b4 04 06
        E 54 b4 04 07
        E 54 b4 04 08
        E 54 b4 04 09
        E 54 b4 04 0a
        E 54 b4 04 0b
        E 54 b4 04 0c
        E 54 b4 04 0d
        E 54 b4 04 0e
        E 54 b4 04 0f
        E 54 b4 04 10
        E 54 b4 04 12
        E 54 b4 04 13
        E 54 b4 04 14
        E 54 b4 04 15
        E 54 b4 04 16
        E 54 b4 04 18
        E 54 b4 04 19
        E 30 b4 04 2c
        E 30 b4 04 2e
        E 30 b4 04 31
        E 30 b4 04 33
        E 30 b4 04 35
        E 30 b4 04 37
        E 30 b4 04 39
        E 30 b4 04 3b
        E 30 b4 04 3d
        E 30 b4 04 3f
        E 30 b4 04 41
        E 30 b4 04 43
        E 30 b4 04 45
        E 30 b4 04 47
        E 30 b4 04 48
        E 30 b4 04 4a
        E 30 b4 04 4c
        E 30 b4 04 4d
        E 30 b4 04 4f
        E 30 b4 04 50
        E 30 b4 04 51
        E 30 b4 04 52
        E 30 b4 04 54
        E 30 b4 04 54
        E 30 b4 04 55
        E 30 b4 04 56
        E 30 b4 04 56
        E 30 b4 04 57
        E 30 b4 04 58
        E 30 b4 04 58
        E 30 b4 04 58
        E 30 b4 04 58
        E 30 b4 04 58
        E 30 b4 04 58
        E 30 b4 04 58
        E 30 b4 04 58
        E 30 b4 04 58
        E 30 b4 04 57
        E 30 b4 04 56
        E 30 b4 04 56
        E 30 b4 04 55
        E 30 b4 04 54
        E 30 b4 04 53
        E 30 b4 04 51
        E 30 b4 04 51
        E 30 b4 04 4f
        E 30 b4 04 4e
        E 30 b4 04 4d
        E 30 b4 04 4b
        E 30 b4 04 49
        E 30 b4 04 48
        E 30 b4 04 46
        E 30 b4 04 44
        E 30 b4 04 42
        E 30 b4 04 40
        E 30 b4 04 3e
        E 30 b4 04 3c
        E 30 b4 04 3a
        E 30 b4 04 38
        E 30 b4 04 36
        E 30 b4 04 33
        E 30 b4 04 31
        E 30 b4 04 2f
        E 30 b4 04 2d
        E 30 b4 04 2b
        E 30 b4 04 29
        E 30 b4 04 27
        E 30 b4 04 25
        E 30 b4 04 22
        E 30 b4 04 20
        E 30 b4 04 1e
        E 30 b4 04 1c
        E 30 b4 04 1a
        E 30 b4 04 18
        E 30 b4 04 16
        E 30 b4 04 14
        E 30 b4 04 12
        E 30 b4 04 10
        E 30 b4 04 0f
        E 30 b4 04 0d
        E 30 b4 04 0b
        E 30 b4 04 0a
        E 30 b4 04 09
        E 30 b4 04 07
        E 30 b4 04 07
        E 30 b4 04 05
        E 30 b4 04 04
        E 30 b4 04 03
        E 30 b4 04 02
        E 30 b4 04 02
        E 30 b4 04 01
        E 30 b4 04 00
        E 30 b4 04 00
        E 30 b4 04 00
        E 30 b4 04 00
        E 30 b4 04 00
        E 30 b4 04 00
        E 30 b4 04 00
        E 30 b4 04 00
        E 30 b4 04 00
        E 30 b4 04 01
        E 30 b4 04 02
        E 30 b4 04 02
        E 30 b4 04 03
        E 30 b4 04 04
        E 30 b4 04 04
        E 30 b4 04 06
        E 30 b4 04 07
        E 30 b4 04 08
        E 30 b4 04 09
        E 30 b4 04 0b
        E 30 b4 04 0c
        E 30 b4 04 0e
        E 30 b4 04 10
        E 30 b4 04 11
        E 30 b4 04 13
        E 30 b4 04 15
        E 30 b4 04 17
        E 30 b4 04 19
        E 30 b4 04 1b
        E 30 b4 04 1d
        E 30 b4 04 1f
        E 30 b4 04 21
        E 30 b4 04 23
        E 30 b4 04 25
        E 30 b4 04 27
        E 30 b4 04 2a
        E 30 b4 04 2c
        E 30 b4 04 20
        E 30 b4 04 21
        E 30 b4 04 23
        E 30 b4 04 24
        E 30 b4 04 26
        E 30 b4 04 27
        E 30 b4 04 29
        E 30 b4 04 2a
        E 30 b4 04 2c
        E 30 b4 04 2d
        E 30 b4 04 2f
        E 30 b4 04 30
        E 30 b4 04 31
        E 30 b4 04 33
        E 30 b4 04 34
        E 30 b4 04 35
        E 30 b4 04 36
        E 30 b4 04 37
        E 30 b4 04 38
        E 30 b4 04 39
        E 30 b4 04 3a
        E 30 b4 04 3b
        E 30 b4 04 3c
        E 30 b4 04 3c
        E 30 b4 04 3d
        E 30 b4 04 3d
        E 30 b4 04 3e
        E 30 b4 04 3e
        E 30 b4 04 3f
        E 30 b4 04 3f
        E 30 b4 04 3f
        E 30 b4 04 3f
        E 30 b4 04 3f
        E 30 b4 04 3f
        E 30 b4 04 3f
        E 30 b4 04 3f
        E 30 b4 04 3f
        E 30 b4 04 3e
        E 30 b4 04 3e
        E 30 b4 04 3d
        E 30 b4 04 3d
        E 30 b4 04 3c
        E 30 b4 04 3b
        E 30 b4 04 3a
        E 30 b4 04 3a
        E 30 b4 04 39
        E 30 b4 04 38
        E 30 b4 04 37
        E 30 b4 04 36
        E 30 b4 04 34
        E 30 b4 04 33
        E 30 b4 04 32
        E 30 b4 04 31
        E 30 b4 04 2f
        E 30 b4 04 2e
        E 30 b4 04 2c
        E 30 b4 04 2b
        E 30 b4 04 2a
        E 30 b4 04 28
        E 30 b4 04 27
        E 30 b4 04 25
        E 30 b4 04 23
        E 30 b4 04 22
        E 30 b4 04 20
        E 30 b4 04 1f
        E 30 b4 04 1d
        E 30 b4 04 1c
        E 30 b4 04 1a
        E 30 b4 04 18
        E 30 b4 04 17
        E 30 b4 04 15
        E 30 b4 04 14
        E 30 b4 04 13
        E 30 b4 04 11
        E 30 b4 04 10
        E 30 b4 04 0e
        E 30 b4 04 0d
        E 30 b4 04 0c
        E 30 b4 04 0b
        E 30 b4 04 09
        E 30 b4 04 08
        E 30 b4 04 07
        E 30 b4 04 06
        E 30 b4 04 05
        E 30 b4 04 05
        E 30 b4 04 04
        E 30 b4 04 03
        E 30 b4 04 02
        E 30 b4 04 02
        E 30 b4 04 01
        E 30 b4 04 01
        E 30 b4 04 00
        E 30 b4 04 00
        E 30 b4 04 00
        E 30 b4 04 00
        E 30 b4 04 00
        E 30 b4 04 00
        E 30 b4 04 00
        E 30 b4 04 00
        E 30 b4 04 00
        E 30 b4 04 01
        E 30 b4 04 01
        E 30 b4 04 02
        E 30 b4 04 02
        E 30 b4 04 03
        E 30 b4 04 03
        E 30 b4 04 04
        E 30 b4 04 05
        E 30 b4 04 06
        E 30 b4 04 07
        E 30 b4 04 08
        E 30 b4 04 09
        E 30 b4 04 0a
        E 30 b4 04 0b
        E 30 b4 04 0c
        E 30 b4 04 0e
        E 30 b4 04 0f
        E 30 b4 04 10
        E 30 b4 04 12
        E 30 b4 04 13
        E 30 b4 04 15
        E 30 b4 04 16
        E 30 b4 04 18
        E 30 b4 04 19
        E 30 b4 04 1b
        E 30 b4 04 1c
        E 30 b4 04 1e
        E 30 b4 04 20
        E 42 b4 04 20
        E 42 b4 04 21
        E 42 b4 04 23
        E 42 b4 04 24
        E 42 b4 04 26
        E 42 b4 04 27
        E 42 b4 04 29
        E 42 b4 04 2a
        E 42 b4 04 2c
        E 42 b4 04 2d
        E 42 b4 04 2f
        E 42 b4 04 30
        E 42 b4 04 31
        E 42 b4 04 33
        E 42 b4 04 34
        E 42 b4 04 35
        E 42 b4 04 36
        E 42 b4 04 37
        E 42 b4 04 38
        E 42 b4 04 39
        E 42 b4 04 3a
        E 42 b4 04 3b
        E 42 b4 04 3c
        E 42 b4 04 3c
        E 42 b4 04 3d
        E 42 b4 04 3d
        E 42 b4 04 3e
        E 42 b4 04 3e
        E 42 b4 04 3f
        E 42 b4 04 3f
        E 42 b4 04 3f
        E 42 b4 04 3f
        E 42 b4 04 3f
        E 42 b4 04 3f
        E 42 b4 04 3f
        E 42 b4 04 3f
        E 42 b4 04 3f
        E 42 b4 04 3e
        E 42 b4 04 3e
        E 42 b4 04 3d
        E 42 b4 04 3d
        E 42 b4 04 3c
        E 42 b4 04 3b
        E 42 b4 04 3a
        E 42 b4 04 3a
        E 42 b4 04 39
        E 42 b4 04 38
        E 42 b4 04 37
        E 42 b4 04 36
        E 42 b4 04 34
        E 42 b4 04 33
        E 42 b4 04 32
        E 42 b4 04 31
        E 42 b4 04 2f
        E 42 b4 04 2e
        E 42 b4 04 2c
        E 42 b4 04 2b
        E 42 b4 04 2a
        E 42 b4 04 28
        E 42 b4 04 27
        E 42 b4 04 25
        E 42 b4 04 23
        E 42 b4 04 22
        E 42 b4 04 20
        E 42 b4 04 1f
        E 42 b4 04 1d
        E 42 b4 04 1c
        E 42 b4 04 1a
        E 42 b4 04 18
        E 42 b4 04 17
        E 42 b4 04 15
        E 42 b4 04 14
        E 42 b4 04 13
        E 42 b4 04 11
        E 42 b4 04 10
        E 42 b4 04 0e
        E 42 b4 04 0d
        E 42 b4 04 0c
        E 42 b4 04 0b
        E 42 b4 04 09
        E 42 b4 04 08
        E 42 b4 04 07
        E 42 b4 04 06
        E 42 b4 04 05
        E 42 b4 04 05
        E 42 b4 04 04
        E 42 b4 04 03
        E 42 b4 04 02
        E 42 b4 04 02
        E 42 b4 04 01
        E 42 b4 04 01
        E 42 b4 04 00
        E 42 b4 04 00
        E 42 b4 04 00
        E 42 b4 04 00
        E 42 b4 04 00
        E 42 b4 04 00
        E 42 b4 04 00
        E 42 b4 04 00
        E 42 b4 04 00
        E 42 b4 04 01
        E 42 b4 04 01
        E 42 b4 04 02
        E 42 b4 04 02
        E 42 b4 04 03
        E 42 b4 04 03
        E 42 b4 04 04
        E 42 b4 04 05
        E 42 b4 04 06
        E 42 b4 04 07
        E 42 b4 04 08
        E 42 b4 04 09
        E 42 b4 04 0a
        E 42 b4 04 0b
        E 42 b4 04 0c
        E 42 b4 04 0e
        E 42 b4 04 0f
        E 42 b4 04 10
        E 42 b4 04 12
        E 42 b4 04 13
        E 42 b4 04 15
        E 42 b4 04 16
        E 42 b4 04 18
        E 42 b4 04 19
        E 42 b4 04 1b
        E 42 b4 04 1c
        E 42 b4 04 1e
        E 42 b4 04 20
        E 48 b4 04 40
        E 48 b4 04 43
        E 48 b4 04 46
        E 48 b4 04 49
        E 48 b4 04 4c
        E 48 b4 04 4f
        E 48 b4 04 52
        E 48 b4 04 55
        E 48 b4 04 58
        E 48 b4 04 5b
        E 48 b4 04 5e
        E 48 b4 04 60
        E 48 b4 04 63
        E 48 b4 04 66
        E 48 b4 04 68
        E 48 b4 04 6a
        E 48 b4 04 6d
        E 48 b4 04 6f
        E 48 b4 04 71
        E 48 b4 04 73
        E 48 b4 04 75
        E 48 b4 04 76
        E 48 b4 04 78
        E 48 b4 04 79
        E 48 b4 04 7a
        E 48 b4 04 7b
        E 48 b4 04 7c
        E 48 b4 04 7d
        E 48 b4 04 7e
        E 48 b4 04 7e
        E 48 b4 04 7f
        E 48 b4 04 7f
        E 48 b4 04 7f
        E 48 b4 04 7f
        E 48 b4 04 7f
        E 48 b4 04 7e
        E 48 b4 04 7e
        E 48 b4 04 7d
        E 48 b4 04 7c
        E 48 b4 04 7b
        E 48 b4 04 7a
        E 48 b4 04 78
        E 48 b4 04 77
        E 48 b4 04 75
        E 48 b4 04 74
        E 48 b4 04 72
        E 48 b4 04 70
        E 48 b4 04 6e
        E 48 b4 04 6c
        E 48 b4 04 69
        E 48 b4 04 67
        E 48 b4 04 64
        E 48 b4 04 62
        E 48 b4 04 5f
        E 48 b4 04 5c
        E 48 b4 04 59
        E 48 b4 04 57
        E 48 b4 04 54
        E 48 b4 04 51
        E 48 b4 04 4e
        E 48 b4 04 4a
        E 48 b4 04 47
        E 48 b4 04 44
        E 48 b4 04 41
        E 48 b4 04 3e
        E 48 b4 04 3b
        E 48 b4 04 38
        E 48 b4 04 35
        E 48 b4 04 31
        E 48 b4 04 2e
        E 48 b4 04 2b
        E 48 b4 04 28
        E 48 b4 04 26
        E 48 b4 04 23
        E 48 b4 04 20
        E 48 b4 04 1d
        E 48 b4 04 1b
        E 48 b4 04 18
        E 48 b4 04 16
        E 48 b4 04 13
        E 48 b4 04 11
        E 48 b4 04 0f
        E 48 b4 04 0d
        E 48 b4 04 0b
        E 48 b4 04 0a
        E 48 b4 04 08
        E 48 b4 04 07
        E 48 b4 04 05
        E 48 b4 04 04
        E 48 b4 04 03
        E 48 b4 04 02
        E 48 b4 04 01
        E 48 b4 04 01
        E 48 b4 04 00
        E 48 b4 04 00
        E 48 b4 04 00
        E 48 b4 04 00
        E 48 b4 04 00
        E 48 b4 04 01
        E 48 b4 04 01
        E 48 b4 04 02
        E 48 b4 04 03
        E 48 b4 04 04
        E 48 b4 04 05
        E 48 b4 04 06
        E 48 b4 04 07
        E 48 b4 04 09
        E 48 b4 04 0a
        E 48 b4 04 0c
        E 48 b4 04 0e
        E 48 b4 04 10
        E 48 b4 04 12
        E 48 b4 04 15
        E 48 b4 04 17
        E 48 b4 04 19
        E 48 b4 04 1c
        E 48 b4 04 1f
        E 48 b4 04 21
        E 48 b4 04 24
        E 48 b4 04 27
        E 48 b4 04 2a
        E 48 b4 04 2d
        E 48 b4 04 30
        E 48 b4 04 33
        E 48 b4 04 36
        E 48 b4 04 39
        E 48 b4 04 3c
        E 48 b4 04 40
        E 6 b4 04 39
        E 6 b4 04 3c
        E 6 b4 04 3f
        E 6 b4 04 41
        E 6 b4 04 44
        E 6 b4 04 47
        E 6 b4 04 49
        E 6 b4 04 4c
        E 6 b4 04 4f
        E 6 b4 04 51
        E 6 b4 04 54
        E 6 b4 04 56
        E 6 b4 04 59
        E 6 b4 04 5b
        E 6 b4 04 5d
        E 6 b4 04 5f
        E 6 b4 04 62
        E 6 b4 04 63
        E 6 b4 04 65
        E 6 b4 04 67
        E 6 b4 04 69
        E 6 b4 04 6a
        E 6 b4 04 6c
        E 6 b4 04 6c
        E 6 b4 04 6d
        E 6 b4 04 6e
        E 6 b4 04 6f
        E 6 b4 04 70
        E 6 b4 04 71
        E 6 b4 04 71
        E 6 b4 04 72
        E 6 b4 04 72
        E 6 b4 04 72
        E 6 b4 04 72
        E 6 b4 04 72
        E 6 b4 04 71
        E 6 b4 04 71
        E 6 b4 04 70
        E 6 b4 04 6f
        E 6 b4 04 6e
        E 6 b4 04 6d
        E 6 b4 04 6c
        E 6 b4 04 6b
        E 6 b4 04 69
        E 6 b4 04 68
        E 6 b4 04 66
        E 6 b4 04 64
        E 6 b4 04 63
        E 6 b4 04 61
        E 6 b4 04 5e
        E 6 b4 04 5c
        E 6 b4 04 5a
        E 6 b4 04 58
        E 6 b4 04 55
        E 6 b4 04 52
        E 6 b4 04 50
        E 6 b4 04 4e
        E 6 b4 04 4b
        E 6 b4 04 48
        E 6 b4 04 46
        E 6 b4 04 42
        E 6 b4 04 3f
        E 6 b4 04 3d
        E 6 b4 04 3a
        E 6 b4 04 37
        E 6 b4 04 35
        E 6 b4 04 32
        E 6 b4 04 2f
        E 6 b4 04 2c
        E 6 b4 04 29
        E 6 b4 04 26
        E 6 b4 04 24
        E 6 b4 04 22
        E 6 b4 04 1f
        E 6 b4 04 1c
        E 6 b4 04 1a
        E 6 b4 04 18
        E 6 b4 04 15
        E 6 b4 04 13
        E 6 b4 04 11
        E 6 b4 04 0f
        E 6 b4 04 0d
        E 6 b4 04 0b
        E 6 b4 04 09
        E 6 b4 04 09
        E 6 b4 04 07
        E 6 b4 04 06
        E 6 b4 04 04
        E 6 b4 04 03
        E 6 b4 04 02
        E 6 b4 04 01
        E 6 b4 04 00
        E 6 b4 04 00
        E 6 b4 04 00
        E 6 b4 04 00
        E 6 b4 04 00
        E 6 b4 04 00
        E 6 b4 04 00
        E 6 b4 04 00
        E 6 b4 04 00
        E 6 b4 04 01
        E 6 b4 04 02
        E 6 b4 04 03
        E 6 b4 04 04
        E 6 b4 04 05
        E 6 b4 04 06
        E 6 b4 04 08
        E 6 b4 04 09
        E 6 b4 04 0a
        E 6 b4 04 0c
        E 6 b4 04 0e
        E 6 b4 04 10
        E 6 b4 04 12
        E 6 b4 04 14
        E 6 b4 04 16
        E 6 b4 04 19
        E 6 b4 04 1b
        E 6 b4 04 1d
        E 6 b4 04 20
        E 6 b4 04 23
        E 6 b4 04 25
        E 6 b4 04 28
        E 6 b4 04 2b
        E 6 b4 04 2d
        E 6 b4 04 30
        E 6 b4 04 33
        E 6 b4 04 36
        E 6 b4 04 39
        E 24 b4 04 40
        E 24 b4 04 43
        E 24 b4 04 46
        E 24 b4 04 49
        E 24 b4 04 4c
        E 24 b4 04 4f
        E 24 b4 04 52
        E 24 b4 04 55
        E 24 b4 04 58
        E 24 b4 04 5b
        E 24 b4 04 5e
        E 24 b4 04 60
        E 24 b4 04 63
        E 24 b4 04 66
        E 24 b4 04 68
        E 24 b4 04 6a
        E 24 b4 04 6d
        E 24 b4 04 6f
        E 24 b4 04 71
        E 24 b4 04 73
        E 24 b4 04 75
        E 24 b4 04 76
        E 24 b4 04 78
        E 24 b4 04 79
        E 24 b4 04 7a
        E 24 b4 04 7b
        E 24 b4 04 7c
        E 24 b4 04 7d
        E 24 b4 04 7e
        E 24 b4 04 7e
        E 24 b4 04 7f
        E 24 b4 04 7f
        E 24 b4 04 7f
        E 24 b4 04 7f
        E 24 b4 04 7f
        E 24 b4 04 7e
        E 24 b4 04 7e
        E 24 b4 04 7d
        E 24 b4 04 7c
        E 24 b4 04 7b
        E 24 b4 04 7a
        E 24 b4 04 78
        E 24 b4 04 77
        E 24 b4 04 75
        E 24 b4 04 74
        E 24 b4 04 72
        E 24 b4 04 70
        E 24 b4 04 6e
        E 24 b4 04 6c
        E 24 b4 04 69
        E 24 b4 04 67
        E 24 b4 04 64
        E 24 b4 04 62
        E 24 b4 04 5f
        E 24 b4 04 5c
        E 24 b4 04 59
        E 24 b4 04 57
        E 24 b4 04 54
        E 24 b4 04 51
        E 24 b4 04 4e
        E 24 b4 04 4a
        E 24 b4 04 47
        E 24 b4 04 44
        E 24 b4 04 41
        E 24 b4 04 3e
        E 24 b4 04 3b
        E 24 b4 04 38
        E 24 b4 04 35
        E 24 b4 04 31
        E 24 b4 04 2e
        E 24 b4 04 2b
        E 24 b4 04 28
        E 24 b4 04 26
        E 24 b4 04 23
        E 24 b4 04 20
        E 24 b4 04 1d
        E 24 b4 04 1b
        E 24 b4 04 18
        E 24 b4 04 16
        E 24 b4 04 13
        E 24 b4 04 11
        E 24 b4 04 0f
        E 24 b4 04 0d
        E 24 b4 04 0b
        E 24 b4 04 0a
        E 24 b4 04 08
        E 24 b4 04 07
        E 24 b4 04 05
        E 24 b4 04 04
        E 24 b4 04 03
        E 24 b4 04 02
        E 24 b4 04 01
        E 24 b4 04 01
        E 24 b4 04 00
        E 24 b4 04 00
        E 24 b4 04 00
        E 24 b4 04 00
        E 24 b4 04 00
        E 24 b4 04 01
        E 24 b4 04 01
        E 24 b4 04 02
        E 24 b4 04 03
        E 24 b4 04 04
        E 24 b4 04 05
        E 24 b4 04 06
        E 24 b4 04 07
        E 24 b4 04 09
        E 24 b4 04 0a
        E 24 b4 04 0c
        E 24 b4 04 0e
        E 24 b4 04 10
        E 24 b4 04 12
        E 24 b4 04 15
        E 24 b4 04 17
        E 24 b4 04 19
        E 24 b4 04 1c
        E 24 b4 04 1f
        E 24 b4 04 21
        E 24 b4 04 24
        E 24 b4 04 27
        E 24 b4 04 2a
        E 24 b4 04 2d
        E 24 b4 04 30
        E 24 b4 04 33
        E 24 b4 04 36
        E 24 b4 04 39
        E 24 b4 04 3c
        E 24 b4 04 40
        E 30 b4 04 20
        E 30 b4 04 21
        E 30 b4 04 23
        E 30 b4 04 24
        E 30 b4 04 26
        E 30 b4 04 27
        E 30 b4 04 29
        E 30 b4 04 2a
        E 30 b4 04 2c
        E 30 b4 04 2d
        E 30 b4 04 2f
        E 30 b4 04 30
        E 30 b4 04 31
        E 30 b4 04 33
        E 30 b4 04 34
        E 30 b4 04 35
        E 30 b4 04 36
        E 30 b4 04 37
        E 30 b4 04 38
        E 30 b4 04 39
        E 30 b4 04 3a
        E 30 b4 04 3b
        E 30 b4 04 3c
        E 30 b4 04 3c
        E 30 b4 04 3d
        E 30 b4 04 3d
        E 30 b4 04 3e
        E 30 b4 04 3e
        E 30 b4 04 3f
        E 30 b4 04 3f
        E 30 b4 04 3f
        E 30 b4 04 3f
        E 30 b4 04 3f
        E 30 b4 04 3f
        E 30 b4 04 3f
        E 30 b4 04 3f
        E 30 b4 04 3f
        E 30 b4 04 3e
        E 30 b4 04 3e
        E 30 b4 04 3d
        E 30 b4 04 3d
        E 30 b4 04 3c
        E 30 b4 04 3b
        E 30 b4 04 3a
        E 30 b4 04 3a
        E 30 b4 04 39
        E 30 b4 04 38
        E 30 b4 04 37
        E 30 b4 04 36
        E 30 b4 04 34
        E 30 b4 04 33
        E 30 b4 04 32
        E 30 b4 04 31
        E 30 b4 04 2f
        E 30 b4 04 2e
        E 30 b4 04 2c
        E 30 b4 04 2b
        E 30 b4 04 2a
        E 30 b4 04 28
        E 30 b4 04 27
        E 30 b4 04 25
        E 30 b4 04 23
        E 30 b4 04 22
        E 30 b4 04 20
        E 30 b4 04 1f
        E 30 b4 04 1d
        E 30 b4 04 1c
        E 30 b4 04 1a
        E 30 b4 04 18
        E 30 b4 04 17
        E 30 b4 04 15
        E 30 b4 04 14
        E 30 b4 04 13
        E 30 b4 04 11
        E 30 b4 04 10
        E 30 b4 04 0e
        E 30 b4 04 0d
        E 30 b4 04 0c
        E 30 b4 04 0b
        E 30 b4 04 09
        E 30 b4 04 08
        E 30 b4 04 07
        E 30 b4 04 06
        E 30 b4 04 05
        E 30 b4 04 05
        E 30 b4 04 04
        E 30 b4 04 03
        E 30 b4 04 02
        E 30 b4 04 02
        E 30 b4 04 01
        E 30 b4 04 01
        E 30 b4 04 00
        E 30 b4 04 00
        E 30 b4 04 00
        E 30 b4 04 00
        E 30 b4 04 00
        E 30 b4 04 00
        E 30 b4 04 00
        E 30 b4 04 00
        E 30 b4 04 00
        E 30 b4 04 01
        E 30 b4 04 01
        E 30 b4 04 02
        E 30 b4 04 02
        E 30 b4 04 03
        E 30 b4 04 03
        E 30 b4 04 04
        E 30 b4 04 05
        E 30 b4 04 06
        E 30 b4 04 07
        E 30 b4 04 08
        E 30 b4 04 09
        E 30 b4 04 0a
        E 30 b4 04 0b
        E 30 b4 04 0c
        E 30 b4 04 0e
        E 30 b4 04 0f
        E 30 b4 04 10
        E 30 b4 04 12
        E 30 b4 04 13
        E 30 b4 04 15
        E 30 b4 04 16
        E 30 b4 04 18
        E 30 b4 04 19
        E 30 b4 04 1b
        E 30 b4 04 1c
        E 30 b4 04 1e
        E 30 b4 04 20
        E 61 b4 04 2c
        E 61 b4 04 2e
        E 61 b4 04 31
        E 61 b4 04 33
        E 61 b4 04 35
        E 61 b4 04 37
        E 61 b4 04 39
        E 61 b4 04 3b
        E 61 b4 04 3d
        E 61 b4 04 3f
        E 61 b4 04 41
        E 61 b4 04 43
        E 61 b4 04 45
        E 61 b4 04 47
        E 61 b4 04 48
        E 61 b4 04 4a
        E 61 b4 04 4c
        E 61 b4 04 4d
        E 61 b4 04 4f
        E 61 b4 04 50
        E 61 b4 04 51
        E 61 b4 04 52
        E 61 b4 04 54
        E 61 b4 04 54
        E 61 b4 04 55
        E 61 b4 04 56
        E 61 b4 04 56
        E 61 b4 04 57
        E 61 b4 04 58
        E 61 b4 04 58
        E 61 b4 04 58
        E 61 b4 04 58
        E 61 b4 04 58
        E 61 b4 04 58
        E 61 b4 04 58
        E 61 b4 04 58
        E 61 b4 04 58
        E 61 b4 04 57
        E 61 b4 04 56
        E 61 b4 04 56
        E 61 b4 04 55
        E 61 b4 04 54
        E 61 b4 04 53
        E 61 b4 04 51
        E 61 b4 04 51
        E 61 b4 04 4f
        E 61 b4 04 4e
        E 61 b4 04 4d
        E 61 b4 04 4b
        E 61 b4 04 49
        E 61 b4 04 48
        E 61 b4 04 46
        E 61 b4 04 44
        E 61 b4 04 42
        E 61 b4 04 40
        E 61 b4 04 3e
        E 61 b4 04 3c
        E 61 b4 04 3a
        E 61 b4 04 38
        E 61 b4 04 36
        E 61 b4 04 33
        E 61 b4 04 31
        E 61 b4 04 2f
        E 61 b4 04 2d
        E 61 b4 04 2b
        E 61 b4 04 29
        E 61 b4 04 27
        E 61 b4 04 25
        E 61 b4 04 22
        E 61 b4 04 20
        E 61 b4 04 1e
        E 61 b4 04 1c
        E 61 b4 04 1a
        E 61 b4 04 18
        E 61 b4 04 16
        E 61 b4 04 14
        E 61 b4 04 12
        E 61 b4 04 10
        E 61 b4 04 0f
        E 61 b4 04 0d
        E 61 b4 04 0b
        E 61 b4 04 0a
        E 61 b4 04 09
        E 61 b4 04 07
        E 61 b4 04 07
        E 61 b4 04 05
        E 61 b4 04 04
        E 61 b4 04 03
        E 61 b4 04 02
        E 61 b4 04 02
        E 61 b4 04 01
        E 61 b4 04 00
        E 61 b4 04 00
        E 61 b4 04 00
        E 61 b4 04 00
        E 61 b4 04 00
        E 61 b4 04 00
        E 61 b4 04 00
        E 61 b4 04 00
        E 61 b4 04 00
        E 61 b4 04 01
        E 61 b4 04 02
        E 61 b4 04 02
        E 61 b4 04 03
        E 61 b4 04 04
        E 61 b4 04 04
        E 61 b4 04 06
        E 61 b4 04 07
        E 61 b4 04 08
        E 61 b4 04 09
        E 61 b4 04 0b
        E 61 b4 04 0c
        E 61 b4 04 0e
        E 61 b4 04 10
        E 61 b4 04 11
        E 61 b4 04 13
        E 61 b4 04 15
        E 61 b4 04 17
        E 61 b4 04 19
        E 61 b4 04 1b
        E 61 b4 04 1d
        E 61 b4 04 1f
        E 61 b4 04 21
        E 61 b4 04 23
        E 61 b4 04 25
        E 61 b4 04 27
        E 61 b4 04 2a
        E 61 b4 04 2c
        E 54 b4 04 33
        E 54 b4 04 35
        E 54 b4 04 37
        E 54 b4 04 3a
        E 54 b4 04 3c
        E 54 b4 04 3f
        E 54 b4 04 41
        E 54 b4 04 44
        E 54 b4 04 46
        E 54 b4 04 48
        E 54 b4 04 4b
        E 54 b4 04 4c
        E 54 b4 04 4f
        E 54 b4 04 51
        E 54 b4 04 53
        E 54 b4 04 54
        E 54 b4 04 57
        E 54 b4 04 58
        E 54 b4 04 5a
        E 54 b4 04 5b
        E 54 b4 04 5d
        E 54 b4 04 5e
        E 54 b4 04 5f
        E 54 b4 04 60
        E 54 b4 04 61
        E 54 b4 04 62
        E 54 b4 04 63
        E 54 b4 04 63
        E 54 b4 04 64
        E 54 b4 04 64
        E 54 b4 04 65
        E 54 b4 04 65
        E 54 b4 04 65
        E 54 b4 04 65
        E 54 b4 04 65
        E 54 b4 04 64
        E 54 b4 04 64
        E 54 b4 04 63
        E 54 b4 04 63
        E 54 b4 04 62
        E 54 b4 04 61
        E 54 b4 04 5f
        E 54 b4 04 5f
        E 54 b4 04 5d
        E 54 b4 04 5c
        E 54 b4 04 5b
        E 54 b4 04 59
        E 54 b4 04 57
        E 54 b4 04 56
        E 54 b4 04 54
        E 54 b4 04 52
        E 54 b4 04 50
        E 54 b4 04 4e
        E 54 b4 04 4c
        E 54 b4 04 49
        E 54 b4 04 47
        E 54 b4 04 45
        E 54 b4 04 43
        E 54 b4 04 40
        E 54 b4 04 3e
        E 54 b4 04 3b
        E 54 b4 04 38
        E 54 b4 04 36
        E 54 b4 04 33
        E 54 b4 04 31
        E 54 b4 04 2f
        E 54 b4 04 2c
        E 54 b4 04 2a
        E 54 b4 04 27
        E 54 b4 04 24
        E 54 b4 04 22
        E 54 b4 04 1f
        E 54 b4 04 1e
        E 54 b4 04 1b
        E 54 b4 04 19
        E 54 b4 04 17
        E 54 b4 04 15
        E 54 b4 04 13
        E 54 b4 04 11
        E 54 b4 04 0f
        E 54 b4 04 0d
        E 54 b4 04 0b
        E 54 b4 04 0a
        E 54 b4 04 08
        E 54 b4 04 07
        E 54 b4 04 06
        E 54 b4 04 05
        E 54 b4 04 03
        E 54 b4 04 03
        E 54 b4 04 02
        E 54 b4 04 01
        E 54 b4 04 00
        E 54 b4 04 00
        E 54 b4 04 00
        E 54 b4 04 00
        E 54 b4 04 00
        E 54 b4 04 00
        E 54 b4 04 00
        E 54 b4 04 00
        E 54 b4 04 00
        E 54 b4 04 01
        E 54 b4 04 02
        E 54 b4 04 03
        E 54 b4 04 03
        E 54 b4 04 04
        E 54 b4 04 05
        E 54 b4 04 07
        E 54 b4 04 07
        E 54 b4 04 09
        E 54 b4 04 0b
        E 54 b4 04 0c
        E 54 b4 04 0e
        E 54 b4 04 10
        E 54 b4 04 12
        E 54 b4 04 14
        E 54 b4 04 16
        E 54 b4 04 18
        E 54 b4 04 1a
        E 54 b4 04 1c
        E 54 b4 04 1f
        E 54 b4 04 21
        E 54 b4 04 24
        E 54 b4 04 26
        E 54 b4 04 28
        E 54 b4 04 2b
        E 54 b4 04 2d
        E 54 b4 04 2f
        E 54 b4 04 33
        E 61 b4 04 06
        E 61 b4 04 06
        E 61 b4 04 07
        E 61 b4 04 07
        E 61 b4 04 07
        E 61 b4 04 07
        E 61 b4 04 08
        E 61 b4 04 08
        E 61 b4 04 08
        E 61 b4 04 09
        E 61 b4 04 09
        E 61 b4 04 09
        E 61 b4 04 09
        E 61 b4 04 0a
        E 61 b4 04 0a
        E 61 b4 04 0a
        E 61 b4 04 0a
        E 61 b4 04 0b
        E 61 b4 04 0b
        E 61 b4 04 0b
        E 61 b4 04 0b
        E 61 b4 04 0b
        E 61 b4 04 0c
        E 61 b4 04 0c
        E 61 b4 04 0c
        E 61 b4 04 0c
        E 61 b4 04 0c
        E 61 b4 04 0c
        E 61 b4 04 0c
        E 61 b4 04 0c
        E 61 b4 04 0c
        E 61 b4 04 0c
        E 61 b4 04 0c
        E 61 b4 04 0c
        E 61 b4 04 0c
        E 61 b4 04 0c
        E 61 b4 04 0c
        E 61 b4 04 0c
        E 61 b4 04 0c
        E 61 b4 04 0c
        E 61 b4 04 0c
        E 61 b4 04 0c
        E 61 b4 04 0b
        E 61 b4 04 0b
        E 61 b4 04 0b
        E 61 b4 04 0b
        E 61 b4 04 0b
        E 61 b4 04 0b
        E 61 b4 04 0a
        E 61 b4 04 0a
        E 61 b4 04 0a
        E 61 b4 04 0a
        E 61 b4 04 09
        E 61 b4 04 09
        E 61 b4 04 09
        E 61 b4 04 08
        E 61 b4 04 08
        E 61 b4 04 08
        E 61 b4 04 08
        E 61 b4 04 07
        E 61 b4 04 07
        E 61 b4 04 07
        E 61 b4 04 06
        E 61 b4 04 06
        E 61 b4 04 06
        E 61 b4 04 05
        E 61 b4 04 05
        E 61 b4 04 05
        E 61 b4 04 04
        E 61 b4 04 04
        E 61 b4 04 04
        E 61 b4 04 04
        E 61 b4 04 03
        E 61 b4 04 03
        E 61 b4 04 03
        E 61 b4 04 02
        E 61 b4 04 02
        E 61 b4 04 02
        E 61 b4 04 02
        E 61 b4 04 01
        E 61 b4 04 01
        E 61 b4 04 01
        E 61 b4 04 01
        E 61 b4 04 01
        E 61 b4 04 01
        E 61 b4 04 00
        E 61 b4 04 00
        E 61 b4 04 00
        E 61 b4 04 00
        E 61 b4 04 00
        E 61 b4 04 00
        E 61 b4 04 00
        E 61 b4 04 00
        E 61 b4 04 00
        E 61 b4 04 00
        E 61 b4 04 00
        E 61 b4 04 00
        E 61 b4 04 00
        E 61 b4 04 00
        E 61 b4 04 00
        E 61 b4 04 00
        E 61 b4 04 00
        E 61 b4 04 00
        E 61 b4 04 00
        E 61 b4 04 00
        E 61 b4 04 00
        E 61 b4 04 00
        E 61 b4 04 01
        E 61 b4 04 01
        E 61 b4 04 01
        E 61 b4 04 01
        E 61 b4 04 01
        E 61 b4 04 02
        E 61 b4 04 02
        E 61 b4 04 02
        E 61 b4 04 02
        E 61 b4 04 03
        E 61 b4 04 03
        E 61 b4 04 03
        E 61 b4 04 03
        E 61 b4 04 04
        E 61 b4 04 04
        E 61 b4 04 04
        E 61 b4 04 05
        E 61 b4 04 05
        E 61 b4 04 05
        E 61 b4 04 06
        E 61 b4 04 06
        E 54 b4 04 19
        E 54 b4 04 1a
        E 54 b4 04 1c
        E 54 b4 04 1d
        E 54 b4 04 1e
        E 54 b4 04 1f
        E 54 b4 04 20
        E 54 b4 04 22
        E 54 b4 04 23
        E 54 b4 04 24
        E 54 b4 04 25
        E 54 b4 04 26
        E 54 b4 04 27
        E 54 b4 04 28
        E 54 b4 04 29
        E 54 b4 04 2a
        E 54 b4 04 2b
        E 54 b4 04 2c
        E 54 b4 04 2d
        E 54 b4 04 2e
        E 54 b4 04 2e
        E 54 b4 04 2f
        E 54 b4 04 30
        E 54 b4 04 30
        E 54 b4 04 30
        E 54 b4 04 31
        E 54 b4 04 31
        E 54 b4 04 32
        E 54 b4 04 32
        E 54 b4 04 32
        E 54 b4 04 32
        E 54 b4 04 32
        E 54 b4 04 32
        E 54 b4 04 32
        E 54 b4 04 32
        E 54 b4 04 32
        E 54 b4 04 32
        E 54 b4 04 32
        E 54 b4 04 31
        E 54 b4 04 31
        E 54 b4 04 30
        E 54 b4 04 30
        E 54 b4 04 2f
        E 54 b4 04 2e
        E 54 b4 04 2e
        E 54 b4 04 2d
        E 54 b4 04 2c
        E 54 b4 04 2c
        E 54 b4 04 2b
        E 54 b4 04 2a
        E 54 b4 04 29
        E 54 b4 04 28
        E 54 b4 04 27
        E 54 b4 04 26
        E 54 b4 04 24
        E 54 b4 04 23
        E 54 b4 04 22
        E 54 b4 04 21
        E 54 b4 04 20
        E 54 b4 04 1f
        E 54 b4 04 1d
        E 54 b4 04 1c
        E 54 b4 04 1b
        E 54 b4 04 1a
        E 54 b4 04 18
        E 54 b4 04 17
        E 54 b4 04 16
        E 54 b4 04 15
        E 54 b4 04 13
        E 54 b4 04 12
        E 54 b4 04 11
        E 54 b4 04 10
        E 54 b4 04 0f
        E 54 b4 04 0e
        E 54 b4 04 0c
        E 54 b4 04 0b
        E 54 b4 04 0a
        E 54 b4 04 09
        E 54 b4 04 08
        E 54 b4 04 07
        E 54 b4 04 06
        E 54 b4 04 06
        E 54 b4 04 05
        E 54 b4 04 04
        E 54 b4 04 04
        E 54 b4 04 03
        E 54 b4 04 02
        E 54 b4 04 02
        E 54 b4 04 01
        E 54 b4 04 01
        E 54 b4 04 00
        E 54 b4 04 00
        E 54 b4 04 00
        E 54 b4 04 00
        E 54 b4 04 00
        E 54 b4 04 00
        E 54 b4 04 00
        E 54 b4 04 00
        E 54 b4 04 00
        E 54 b4 04 00
        E 54 b4 04 00
        E 54 b4 04 01
        E 54 b4 04 01
        E 54 b4 04 02
        E 54 b4 04 02
        E 54 b4 04 02
        E 54 b4 04 03
        E 54 b4 04 04
        E 54 b4 04 04
        E 54 b4 04 05
        E 54 b4 04 06
        E 54 b4 04 07
        E 54 b4 04 08
        E 54 b4 04 09
        E 54 b4 04 0a
        E 54 b4 04 0b
        E 54 b4 04 0c
        E 54 b4 04 0d
        E 54 b4 04 0e
        E 54 b4 04 0f
        E 54 b4 04 10
        E 54 b4 04 12
        E 54 b4 04 13
        E 54 b4 04 14
        E 54 b4 04 15
        E 54 b4 04 16
        E 54 b4 04 18
        E 54 b4 04 19
        E 30 b4 04 2c
        E 30 b4 04 2e
        E 30 b4 04 31
        E 30 b4 04 33
        E 30 b4 04 35
        E 30 b4 04 37
        E 30 b4 04 39
        E 30 b4 04 3b
        E 30 b4 04 3d
        E 30 b4 04 3f
        E 30 b4 04 41
        E 30 b4 04 43
        E 30 b4 04 45
        E 30 b4 04 47
        E 30 b4 04 48
        E 30 b4 04 4a
        E 30 b4 04 4c
        E 30 b4 04 4d
        E 30 b4 04 4f
        E 30 b4 04 50
        E 30 b4 04 51
        E 30 b4 04 52
        E 30 b4 04 54
        E 30 b4 04 54
        E 30 b4 04 55
        E 30 b4 04 56
        E 30 b4 04 56
        E 30 b4 04 57
        E 30 b4 04 58
        E 30 b4 04 58
        E 30 b4 04 58
        E 30 b4 04 58
        E 30 b4 04 58
        E 30 b4 04 58
        E 30 b4 04 58
        E 30 b4 04 58
        E 30 b4 04 58
        E 30 b4 04 57
        E 30 b4 04 56
        E 30 b4 04 56
        E 30 b4 04 55
        E 30 b4 04 54
        E 30 b4 04 53
        E 30 b4 04 51
        E 30 b4 04 51
        E 30 b4 04 4f
        E 30 b4 04 4e
        E 30 b4 04 4d
        E 30 b4 04 4b
        E 30 b4 04 49
        E 30 b4 04 48
        E 30 b4 04 46
        E 30 b4 04 44
        E 30 b4 04 42
        E 30 b4 04 40
        E 30 b4 04 3e
        E 30 b4 04 3c
        E 30 b4 04 3a
        E 30 b4 04 38
        E 30 b4 04 36
        E 30 b4 04 33
        E 30 b4 04 31
        E 30 b4 04 2f
        E 30 b4 04 2d
        E 30 b4 04 2b
        E 30 b4 04 29
        E 30 b4 04 27
        E 30 b4 04 25
        E 30 b4 04 22
        E 30 b4 04 20
        E 30 b4 04 1e
        E 30 b4 04 1c
        E 30 b4 04 1a
        E 30 b4 04 18
        E 30 b4 04 16
        E 30 b4 04 14
        E 30 b4 04 12
        E 30 b4 04 10
        E 30 b4 04 0f
        E 30 b4 04 0d
        E 30 b4 04 0b
        E 30 b4 04 0a
        E 30 b4 04 09
        E 30 b4 04 07
        E 30 b4 04 07
        E 30 b4 04 05
        E 30 b4 04 04
        E 30 b4 04 03
        E 30 b4 04 02
        E 30 b4 04 02
        E 30 b4 04 01
        E 30 b4 04 00
        E 30 b4 04 00
        E 30 b4 04 00
        E 30 b4 04 00
        E 30 b4 04 00
        E 30 b4 04 00
        E 30 b4 04 00
        E 30 b4 04 00
        E 30 b4 04 00
        E 30 b4 04 01
        E 30 b4 04 02
        E 30 b4 04 02
        E 30 b4 04 03
        E 30 b4 04 04
        E 30 b4 04 04
        E 30 b4 04 06
        E 30 b4 04 07
        E 30 b4 04 08
        E 30 b4 04 09
        E 30 b4 04 0b
        E 30 b4 04 0c
        E 30 b4 04 0e
        E 30 b4 04 10
        E 30 b4 04 11
        E 30 b4 04 13
        E 30 b4 04 15
        E 30 b4 04 17
        E 30 b4 04 19
        E 30 b4 04 1b
        E 30 b4 04 1d
        E 30 b4 04 1f
        E 30 b4 04 21
        E 30 b4 04 23
        E 30 b4 04 25
        E 30 b4 04 27
        E 30 b4 04 2a
        E 30 b4 04 2c
        E 30 b4 04 20
        E 30 b4 04 21
        E 30 b4 04 23
        E 30 b4 04 24
        E 30 b4 04 26
        E 30 b4 04 27
        E 30 b4 04 29
        E 30 b4 04 2a
        E 30 b4 04 2c
        E 30 b4 04 2d
        E 30 b4 04 2f
        E 30 b4 04 30
        E 30 b4 04 31
        E 30 b4 04 33
        E 30 b4 04 34
        E 30 b4 04 35
        E 30 b4 04 36
        E 30 b4 04 37
        E 30 b4 04 38
        E 30 b4 04 39
        E 30 b4 04 3a
        E 30 b4 04 3b
        E 30 b4 04 3c
        E 30 b4 04 3c
        E 30 b4 04 3d
        E 30 b4 04 3d
        E 30 b4 04 3e
        E 30 b4 04 3e
        E 30 b4 04 3f
        E 30 b4 04 3f
        E 30 b4 04 3f
        E 30 b4 04 3f
        E 30 b4 04 3f
        E 30 b4 04 3f
        E 30 b4 04 3f
        E 30 b4 04 3f
        E 30 b4 04 3f
        E 30 b4 04 3e
        E 30 b4 04 3e
        E 30 b4 04 3d
        E 30 b4 04 3d
        E 30 b4 04 3c
        E 30 b4 04 3b
        E 30 b4 04 3a
        E 30 b4 04 3a
        E 30 b4 04 39
        E 30 b4 04 38
        E 30 b4 04 37
        E 30 b4 04 36
        E 30 b4 04 34
        E 30 b4 04 33
        E 30 b4 04 32
        E 30 b4 04 31
        E 30 b4 04 2f
        E 30 b4 04 2e
        E 30 b4 04 2c
        E 30 b4 04 2b
        E 30 b4 04 2a
        E 30 b4 04 28
        E 30 b4 04 27
        E 30 b4 04 25
        E 30 b4 04 23
        E 30 b4 04 22
        E 30 b4 04 20
        E 30 b4 04 1f
        E 30 b4 04 1d
        E 30 b4 04 1c
        E 30 b4 04 1a
        E 30 b4 04 18
        E 30 b4 04 17
        E 30 b4 04 15
        E 30 b4 04 14
        E 30 b4 04 13
        E 30 b4 04 11
        E 30 b4 04 10
        E 30 b4 04 0e
        E 30 b4 04 0d
        E 30 b4 04 0c
        E 30 b4 04 0b
        E 30 b4 04 09
        E 30 b4 04 08
        E 30 b4 04 07
        E 30 b4 04 06
        E 30 b4 04 05
        E 30 b4 04 05
        E 30 b4 04 04
        E 30 b4 04 03
        E 30 b4 04 02
        E 30 b4 04 02
        E 30 b4 04 01
        E 30 b4 04 01
        E 30 b4 04 00
        E 30 b4 04 00
        E 30 b4 04 00
        E 30 b4 04 00
        E 30 b4 04 00
        E 30 b4 04 00
        E 30 b4 04 00
        E 30 b4 04 00
        E 30 b4 04 00
        E 30 b4 04 01
        E 30 b4 04 01
        E 30 b4 04 02
        E 30 b4 04 02
        E 30 b4 04 03
        E 30 b4 04 03
        E 30 b4 04 04
        E 30 b4 04 05
        E 30 b4 04 06
        E 30 b4 04 07
        E 30 b4 04 08
        E 30 b4 04 09
        E 30 b4 04 0a
        E 30 b4 04 0b
        E 30 b4 04 0c
        E 30 b4 04 0e
        E 30 b4 04 0f
        E 30 b4 04 10
        E 30 b4 04 12
        E 30 b4 04 13
        E 30 b4 04 15
        E 30 b4 04 16
        E 30 b4 04 18
        E 30 b4 04 19
        E 30 b4 04 1b
        E 30 b4 04 1c
        E 30 b4 04 1e
        E 30 b4 04 20
        E 42 b4 04 20
        E 42 b4 04 21
        E 42 b4 04 23
        E 42 b4 04 24
        E 42 b4 04 26
        E 42 b4 04 27
        E 42 b4 04 29
        E 42 b4 04 2a
        E 42 b4 04 2c
        E 42 b4 04 2d
        E 42 b4 04 2f
        E 42 b4 04 30
        E 42 b4 04 31
        E 42 b4 04 33
        E 42 b4 04 34
        E 42 b4 04 35
        E 42 b4 04 36
        E 42 b4 04 37
        E 42 b4 04 38
        E 42 b4 04 39
        E 42 b4 04 3a
        E 42 b4 04 3b
        E 42 b4 04 3c
        E 42 b4 04 3c
        E 42 b4 04 3d
        E 42 b4 04 3d
        E 42 b4 04 3e
        E 42 b4 04 3e
        E 42 b4 04 3f
        E 42 b4 04 3f
        E 42 b4 04 3f
        E 42 b4 04 3f
        E 42 b4 04 3f
        E 42 b4 04 3f
        E 42 b4 04 3f
        E 42 b4 04 3f
        E 42 b4 04 3f
        E 42 b4 04 3e
        E 42 b4 04 3e
        E 42 b4 04 3d
        E 42 b4 04 3d
        E 42 b4 04 3c
        E 42 b4 04 3b
        E 42 b4 04 3a
        E 42 b4 04 3a
        E 42 b4 04 39
        E 42 b4 04 38
        E 42 b4 04 37
        E 42 b4 04 36
        E 42 b4 04 34
        E 42 b4 04 33
        E 42 b4 04 32
        E 42 b4 04 31
        E 42 b4 04 2f
        E 42 b4 04 2e
        E 42 b4 04 2c
        E 42 b4 04 2b
        E 42 b4 04 2a
        E 42 b4 04 28
        E 42 b4 04 27
        E 42 b4 04 25
        E 42 b4 04 23
        E 42 b4 04 22
        E 42 b4 04 20
        E 42 b4 04 1f
        E 42 b4 04 1d
        E 42 b4 04 1c
        E 42 b4 04 1a
        E 42 b4 04 18
        E 42 b4 04 17
        E 42 b4 04 15
        E 42 b4 04 14
        E 42 b4 04 13
        E 42 b4 04 11
        E 42 b4 04 10
        E 42 b4 04 0e
        E 42 b4 04 0d
        E 42 b4 04 0c
        E 42 b4 04 0b
        E 42 b4 04 09
        E 42 b4 04 08
        E 42 b4 04 07
        E 42 b4 04 06
        E 42 b4 04 05
        E 42 b4 04 05
        E 42 b4 04 04
        E 42 b4 04 03
        E 42 b4 04 02
        E 42 b4 04 02
        E 42 b4 04 01
        E 42 b4 04 01
        E 42 b4 04 00
        E 42 b4 04 00
        E 42 b4 04 00
        E 42 b4 04 00
        E 42 b4 04 00
        E 42 b4 04 00
        E 42 b4 04 00
        E 42 b4 04 00
        E 42 b4 04 00
        E 42 b4 04 01
        E 42 b4 04 01
        E 42 b4 04 02
        E 42 b4 04 02
        E 42 b4 04 03
        E 42 b4 04 03
        E 42 b4 04 04
        E 42 b4 04 05
        E 42 b4 04 06
        E 42 b4 04 07
        E 42 b4 04 08
        E 42 b4 04 09
        E 42 b4 04 0a
        E 42 b4 04 0b
        E 42 b4 04 0c
        E 42 b4 04 0e
        E 42 b4 04 0f
        E 42 b4 04 10
        E 42 b4 04 12
        E 42 b4 04 13
        E 42 b4 04 15
        E 42 b4 04 16
        E 42 b4 04 18
        E 42 b4 04 19
        E 42 b4 04 1b
        E 42 b4 04 1c
        E 42 b4 04 1e
        E 42 b4 04 20
        E 48 b4 04 40
        E 48 b4 04 43
        E 48 b4 04 46
        E 48 b4 04 49
        E 48 b4 04 4c
        E 48 b4 04 4f
        E 48 b4 04 52
        E 48 b4 04 55
        E 48 b4 04 58
        E 48 b4 04 5b
        E 48 b4 04 5e
        E 48 b4 04 60
        E 48 b4 04 63
        E 48 b4 04 66
        E 48 b4 04 68
        E 48 b4 04 6a
        E 48 b4 04 6d
        E 48 b4 04 6f
        E 48 b4 04 71
        E 48 b4 04 73
        E 48 b4 04 75
        E 48 b4 04 76
        E 48 b4 04 78
        E 48 b4 04 79
        E 48 b4 04 7a
        E 48 b4 04 7b
        E 48 b4 04 7c
        E 48 b4 04 7d
        E 48 b4 04 7e
        E 48 b4 04 7e
        E 48 b4 04 7f
        E 48 b4 04 7f
        E 48 b4 04 7f
        E 48 b4 04 7f
        E 48 b4 04 7f
        E 48 b4 04 7e
        E 48 b4 04 7e
        E 48 b4 04 7d
        E 48 b4 04 7c
        E 48 b4 04 7b
        E 48 b4 04 7a
        E 48 b4 04 78
        E 48 b4 04 77
        E 48 b4 04 75
        E 48 b4 04 74
        E 48 b4 04 72
        E 48 b4 04 70
        E 48 b4 04 6e
        E 48 b4 04 6c
        E 48 b4 04 69
        E 48 b4 04 67
        E 48 b4 04 64
        E 48 b4 04 62
        E 48 b4 04 5f
        E 48 b4 04 5c
        E 48 b4 04 59
        E 48 b4 04 57
        E 48 b4 04 54
        E 48 b4 04 51
        E 48 b4 04 4e
        E 48 b4 04 4a
        E 48 b4 04 47
        E 48 b4 04 44
        E 48 b4 04 41
        E 48 b4 04 3e
        E 48 b4 04 3b
        E 48 b4 04 38
        E 48 b4 04 35
        E 48 b4 04 31
        E 48 b4 04 2e
        E 48 b4 04 2b
        E 48 b4 04 28
        E 48 b4 04 26
        E 48 b4 04 23
        E 48 b4 04 20
        E 48 b4 04 1d
        E 48 b4 04 1b
        E 48 b4 04 18
        E 48 b4 04 16
        E 48 b4 04 13
        E 48 b4 04 11
        E 48 b4 04 0f
        E 48 b4 04 0d
        E 48 b4 04 0b
        E 48 b4 04 0a
        E 48 b4 04 08
        E 48 b4 04 07
        E 48 b4 04 05
        E 48 b4 04 04
        E 48 b4 04 03
        E 48 b4 04 02
        E 48 b4 04 01
        E 48 b4 04 01
        E 48 b4 04 00
        E 48 b4 04 00
        E 48 b4 04 00
        E 48 b4 04 00
        E 48 b4 04 00
        E 48 b4 04 01
        E 48 b4 04 01
        E 48 b4 04 02
        E 48 b4 04 03
        E 48 b4 04 04
        E 48 b4 04 05
        E 48 b4 04 06
        E 48 b4 04 07
        E 48 b4 04 09
        E 48 b4 04 0a
        E 48 b4 04 0c
        E 48 b4 04 0e
        E 48 b4 04 10
        E 48 b4 04 12
        E 48 b4 04 15
        E 48 b4 04 17
        E 48 b4 04 19
        E 48 b4 04 1c
        E 48 b4 04 1f
        E 48 b4 04 21
        E 48 b4 04 24
        E 48 b4 04 27
        E 48 b4 04 2a
        E 48 b4 04 2d
        E 48 b4 04 30
        E 48 b4 04 33
        E 48 b4 04 36
        E 48 b4 04 39
        E 48 b4 04 3c
        E 48 b4 04 40
        E 6 b4 04 39
        E 6 b4 04 3c
        E 6 b4 04 3f
        E 6 b4 04 41
        E 6 b4 04 44
        E 6 b4 04 47
        E 6 b4 04 49
        E 6 b4 04 4c
        E 6 b4 04 4f
        E 6 b4 04 51
        E 6 b4 04 54
        E 6 b4 04 56
        E 6 b4 04 59
        E 6 b4 04 5b
        E 6 b4 04 5d
        E 6 b4 04 5f
        E 6 b4 04 62
        E 6 b4 04 63
        E 6 b4 04 65
        E 6 b4 04 67
        E 6 b4 04 69
        E 6 b4 04 6a
        E 6 b4 04 6c
        E 6 b4 04 6c
        E 6 b4 04 6d
        E 6 b4 04 6e
        E 6 b4 04 6f
        E 6 b4 04 70
        E 6 b4 04 71
        E 6 b4 04 71
        E 6 b4 04 72
        E 6 b4 04 72
        E 6 b4 04 72
        E 6 b4 04 72
        E 6 b4 04 72
        E 6 b4 04 71
        E 6 b4 04 71
        E 6 b4 04 70
        E 6 b4 04 6f
        E 6 b4 04 6e
        E 6 b4 04 6d
        E 6 b4 04 6c
        E 6 b4 04 6b
        E 6 b4 04 69
        E 6 b4 04 68
        E 6 b4 04 66
        E 6 b4 04 64
        E 6 b4 04 63
        E 6 b4 04 61
        E 6 b4 04 5e
        E 6 b4 04 5c
        E 6 b4 04 5a
        E 6 b4 04 58
        E 6 b4 04 55
        E 6 b4 04 52
        E 6 b4 04 50
        E 6 b4 04 4e
        E 6 b4 04 4b
        E 6 b4 04 48
        E 6 b4 04 46
        E 6 b4 04 42
        E 6 b4 04 3f
        E 6 b4 04 3d
        E 6 b4 04 3a
        E 6 b4 04 37
        E 6 b4 04 35
        E 6 b4 04 32
        E 6 b4 04 2f
        E 6 b4 04 2c
        E 6 b4 04 29
        E 6 b4 04 26
        E 6 b4 04 24
        E 6 b4 04 22
        E 6 b4 04 1f
        E 6 b4 04 1c
        E 6 b4 04 1a
        E 6 b4 04 18
        E 6 b4 04 15
        E 6 b4 04 13
        E 6 b4 04 11
        E 6 b4 04 0f
        E 6 b4 04 0d
        E 6 b4 04 0b
        E 6 b4 04 09
        E 6 b4 04 09
        E 6 b4 04 07
        E 6 b4 04 06
        E 6 b4 04 04
        E 6 b4 04 03
        E 6 b4 04 02
        E 6 b4 04 01
        E 6 b4 04 00
        E 6 b4 04 00
        E 6 b4 04 00
        E 6 b4 04 00
        E 6 b4 04 00
        E 6 b4 04 00
        E 6 b4 04 00
        E 6 b4 04 00
        E 6 b4 04 00
        E 6 b4 04 01
        E 6 b4 04 02
        E 6 b4 04 03
        E 6 b4 04 04
        E 6 b4 04 05
        E 6 b4 04 06
        E 6 b4 04 08
        E 6 b4 04 09
        E 6 b4 04 0a
        E 6 b4 04 0c
        E 6 b4 04 0e
        E 6 b4 04 10
        E 6 b4 04 12
        E 6 b4 04 14
        E 6 b4 04 16
        E 6 b4 04 19
        E 6 b4 04 1b
        E 6 b4 04 1d
        E 6 b4 04 20
        E 6 b4 04 23
        E 6 b4 04 25
        E 6 b4 04 28
        E 6 b4 04 2b
        E 6 b4 04 2d
        E 6 b4 04 30
        E 6 b4 04 33
        E 6 b4 04 36
        E 6 b4 04 39
        E 24 b4 04 40
        E 24 b4 04 43
        E 24 b4 04 46
        E 24 b4 04 49
        E 24 b4 04 4c
        E 24 b4 04 4f
        E 24 b4 04 52
        E 24 b4 04 55
        E 24 b4 04 58
        E 24 b4 04 5b
        E 24 b4 04 5e
        E 24 b4 04 60
        E 24 b4 04 63
        E 24 b4 04 66
        E 24 b4 04 68
        E 24 b4 04 6a
        E 24 b4 04 6d
        E 24 b4 04 6f
        E 24 b4 04 71
        E 24 b4 04 73
        E 24 b4 04 75
        E 24 b4 04 76
        E 24 b4 04 78
        E 24 b4 04 79
        E 24 b4 04 7a
        E 24 b4 04 7b
        E 24 b4 04 7c
        E 24 b4 04 7d
        E 24 b4 04 7e
        E 24 b4 04 7e
        E 24 b4 04 7f
        E 24 b4 04 7f
        E 24 b4 04 7f
        E 24 b4 04 7f
        E 24 b4 04 7f
        E 24 b4 04 7e
        E 24 b4 04 7e
        E 24 b4 04 7d
        E 24 b4 04 7c
        E 24 b4 04 7b
        E 24 b4 04 7a
        E 24 b4 04 78
        E 24 b4 04 77
        E 24 b4 04 75
        E 24 b4 04 74
        E 24 b4 04 72
        E 24 b4 04 70
        E 24 b4 04 6e
        E 24 b4 04 6c
        E 24 b4 04 69
        E 24 b4 04 67
        E 24 b4 04 64
        E 24 b4 04 62
        E 24 b4 04 5f
        E 24 b4 04 5c
        E 24 b4 04 59
        E 24 b4 04 57
        E 24 b4 04 54
        E 24 b4 04 51
        E 24 b4 04 4e
        E 24 b4 04 4a
        E 24 b4 04 47
        E 24 b4 04 44
        E 24 b4 04 41
        E 24 b4 04 3e
        E 24 b4 04 3b
        E 24 b4 04 38
        E 24 b4 04 35
        E 24 b4 04 31
        E 24 b4 04 2e
        E 24 b4 04 2b
        E 24 b4 04 28
        E 24 b4 04 26
        E 24 b4 04 23
        E 24 b4 04 20
        E 24 b4 04 1d
        E 24 b4 04 1b
        E 24 b4 04 18
        E 24 b4 04 16
        E 24 b4 04 13
        E 24 b4 04 11
        E 24 b4 04 0f
        E 24 b4 04 0d
        E 24 b4 04 0b
        E 24 b4 04 0a
        E 24 b4 04 08
        E 24 b4 04 07
        E 24 b4 04 05
        E 24 b4 04 04
        E 24 b4 04 03
        E 24 b4 04 02
        E 24 b4 04 01
        E 24 b4 04 01
        E 24 b4 04 00
        E 24 b4 04 00
        E 24 b4 04 00
        E 24 b4 04 00
        E 24 b4 04 00
        E 24 b4 04 01
        E 24 b4 04 01
        E 24 b4 04 02
        E 24 b4 04 03
        E 24 b4 04 04
        E 24 b4 04 05
        E 24 b4 04 06
        E 24 b4 04 07
        E 24 b4 04 09
        E 24 b4 04 0a
        E 24 b4 04 0c
        E 24 b4 04 0e
        E 24 b4 04 10
        E 24 b4 04 12
        E 24 b4 04 15
        E 24 b4 04 17
        E 24 b4 04 19
        E 24 b4 04 1c
        E 24 b4 04 1f
        E 24 b4 04 21
        E 24 b4 04 24
        E 24 b4 04 27
        E 24 b4 04 2a
        E 24 b4 04 2d
        E 24 b4 04 30
        E 24 b4 04 33
        E 24 b4 04 36
        E 24 b4 04 39
        E 24 b4 04 3c
        E 24 b4 04 40
        E 30 b4 04 20
        E 30 b4 04 21
        E 30 b4 04 23
        E 30 b4 04 24
        E 30 b4 04 26
        E 30 b4 04 27
        E 30 b4 04 29
        E 30 b4 04 2a
        E 30 b4 04 2c
        E 30 b4 04 2d
        E 30 b4 04 2f
        E 30 b4 04 30
        E 30 b4 04 31
        E 30 b4 04 33
        E 30 b4 04 34
        E 30 b4 04 35
        E 30 b4 04 36
        E 30 b4 04 37
        E 30 b4 04 38
        E 30 b4 04 39
        E 30 b4 04 3a
        E 30 b4 04 3b
        E 30 b4 04 3c
        E 30 b4 04 3c
        E 30 b4 04 3d
        E 30 b4 04 3d
        E 30 b4 04 3e
        E 30 b4 04 3e
        E 30 b4 04 3f
        E 30 b4 04 3f
        E 30 b4 04 3f
        E 30 b4 04 3f
        E 30 b4 04 3f
        E 30 b4 04 3f
        E 30 b4 04 3f
        E 30 b4 04 3f
        E 30 b4 04 3f
        E 30 b4 04 3e
        E 30 b4 04 3e
        E 30 b4 04 3d
        E 30 b4 04 3d
        E 30 b4 04 3c
        E 30 b4 04 3b
        E 30 b4 04 3a
        E 30 b4 04 3a
        E 30 b4 04 39
        E 30 b4 04 38
        E 30 b4 04 37
        E 30 b4 04 36
        E 30 b4 04 34
        E 30 b4 04 33
        E 30 b4 04 32
        E 30 b4 04 31
        E 30 b4 04 2f
        E 30 b4 04 2e
        E 30 b4 04 2c
        E 30 b4 04 2b
        E 30 b4 04 2a
        E 30 b4 04 28
        E 30 b4 04 27
        E 30 b4 04 25
        E 30 b4 04 23
        E 30 b4 04 22
        E 30 b4 04 20
        E 30 b4 04 1f
        E 30 b4 04 1d
        E 30 b4 04 1c
        E 30 b4 04 1a
        E 30 b4 04 18
        E 30 b4 04 17
        E 30 b4 04 15
        E 30 b4 04 14
        E 30 b4 04 13
        E 30 b4 04 11
        E 30 b4 04 10
        E 30 b4 04 0e
        E 30 b4 04 0d
        E 30 b4 04 0c
        E 30 b4 04 0b
        E 30 b4 04 09
        E 30 b4 04 08
        E 30 b4 04 07
        E 30 b4 04 06
        E 30 b4 04 05
        E 30 b4 04 05
        E 30 b4 04 04
        E 30 b4 04 03
        E 30 b4 04 02
        E 30 b4 04 02
        E 30 b4 04 01
        E 30 b4 04 01
        E 30 b4 04 00
        E 30 b4 04 00
        E 30 b4 04 00
        E 30 b4 04 00
        E 30 b4 04 00
        E 30 b4 04 00
        E 30 b4 04 00
        E 30 b4 04 00
        E 30 b4 04 00
        E 30 b4 04 01
        E 30 b4 04 01
        E 30 b4 04 02
        E 30 b4 04 02
        E 30 b4 04 03
        E 30 b4 04 03
        E 30 b4 04 04
        E 30 b4 04 05
        E 30 b4 04 06
        E 30 b4 04 07
        E 30 b4 04 08
        E 30 b4 04 09
        E 30 b4 04 0a
        E 30 b4 04 0b
        E 30 b4 04 0c
        E 30 b4 04 0e
        E 30 b4 04 0f
        E 30 b4 04 10
        E 30 b4 04 12
        E 30 b4 04 13
        E 30 b4 04 15
        E 30 b4 04 16
        E 30 b4 04 18
        E 30 b4 04 19
        E 30 b4 04 1b
        E 30 b4 04 1c
        E 30 b4 04 1e
        E 30 b4 04 20
        E 61 b4 04 2c
        E 61 b4 04 2e
        E 61 b4 04 31
        E 61 b4 04 33
        E 61 b4 04 35
        E 61 b4 04 37
        E 61 b4 04 39
        E 61 b4 04 3b
        E 61 b4 04 3d
        E 61 b4 04 3f
        E 61 b4 04 41
        E 61 b4 04 43
        E 61 b4 04 45
        E 61 b4 04 47
        E 61 b4 04 48
        E 61 b4 04 4a
        E 61 b4 04 4c
        E 61 b4 04 4d
        E 61 b4 04 4f
        E 61 b4 04 50
        E 61 b4 04 51
        E 61 b4 04 52
        E 61 b4 04 54
        E 61 b4 04 54
        E 61 b4 04 55
        E 61 b4 04 56
        E 61 b4 04 56
        E 61 b4 04 57
        E 61 b4 04 58
        E 61 b4 04 58
        E 61 b4 04 58
        E 61 b4 04 58
        E 61 b4 04 58
        E 61 b4 04 58
        E 61 b4 04 58
        E 61 b4 04 58
        E 61 b4 04 58
        E 61 b4 04 57
        E 61 b4 04 56
        E 61 b4 04 56
        E 61 b4 04 55
        E 61 b4 04 54
        E 61 b4 04 53
        E 61 b4 04 51
        E 61 b4 04 51
        E 61 b4 04 4f
        E 61 b4 04 4e
        E 61 b4 04 4d
        E 61 b4 04 4b
        E 61 b4 04 49
        E 61 b4 04 48
        E 61 b4 04 46
        E 61 b4 04 44
        E 61 b4 04 42
        E 61 b4 04 40
        E 61 b4 04 3e
        E 61 b4 04 3c
        E 61 b4 04 3a
        E 61 b4 04 38
        E 61 b4 04 36
        E 61 b4 04 33
        E 61 b4 04 31
        E 61 b4 04 2f
        E 61 b4 04 2d
        E 61 b4 04 2b
        E 61 b4 04 29
        E 61 b4 04 27
        E 61 b4 04 25
        E 61 b4 04 22
        E 61 b4 04 20
        E 61 b4 04 1e
        E 61 b4 04 1c
        E 61 b4 04 1a
        E 61 b4 04 18
        E 61 b4 04 16
        E 61 b4 04 14
        E 61 b4 04 12
        E 61 b4 04 10
        E 61 b4 04 0f
        E 61 b4 04 0d
        E 61 b4 04 0b
        E 61 b4 04 0a
        E 61 b4 04 09
        E 61 b4 04 07
        E 61 b4 04 07
        E 61 b4 04 05
        E 61 b4 04 04
        E 61 b4 04 03
        E 61 b4 04 02
        E 61 b4 04 02
        E 61 b4 04 01
        E 61 b4 04 00
        E 61 b4 04 00
        E 61 b4 04 00
        E 61 b4 04 00
        E 61 b4 04 00
        E 61 b4 04 00
        E 61 b4 04 00
        E 61 b4 04 00
        E 61 b4 04 00
        E 61 b4 04 01
        E 61 b4 04 02
        E 61 b4 04 02
        E 61 b4 04 03
        E 61 b4 04 04
        E 61 b4 04 04
        E 61 b4 04 06
        E 61 b4 04 07
        E 61 b4 04 08
        E 61 b4 04 09
        E 61 b4 04 0b
        E 61 b4 04 0c
        E 61 b4 04 0e
        E 61 b4 04 10
        E 61 b4 04 11
        E 61 b4 04 13
        E 61 b4 04 15
        E 61 b4 04 17
        E 61 b4 04 19
        E 61 b4 04 1b
        E 61 b4 04 1d
        E 61 b4 04 1f
        E 61 b4 04 21
        E 61 b4 04 23
        E 61 b4 04 25
        E 61 b4 04 27
        E 61 b4 04 2a
        E 61 b4 04 2c
        E 54 b4 04 33
        E 54 b4 04 35
        E 54 b4 04 37
        E 54 b4 04 3a
        E 54 b4 04 3c
        E 54 b4 04 3f
        E 54 b4 04 41
        E 54 b4 04 44
        E 54 b4 04 46
        E 54 b4 04 48
        E 54 b4 04 4b
        E 54 b4 04 4c
        E 54 b4 04 4f
        E 54 b4 04 51
        E 54 b4 04 53
        E 54 b4 04 54
        E 54 b4 04 57
        E 54 b4 04 58
        E 54 b4 04 5a
        E 54 b4 04 5b
        E 54 b4 04 5d
        E 54 b4 04 5e
        E 54 b4 04 5f
        E 54 b4 04 60
        E 54 b4 04 61
        E 54 b4 04 62
        E 54 b4 04 63
        E 54 b4 04 63
        E 54 b4 04 64
        E 54 b4 04 64
        E 54 b4 04 65
        E 54 b4 04 65
        E 54 b4 04 65
        E 54 b4 04 65
        E 54 b4 04 65
        E 54 b4 04 64
        E 54 b4 04 64
        E 54 b4 04 63
        E 54 b4 04 63
        E 54 b4 04 62
        E 54 b4 04 61
        E 54 b4 04 5f
        E 54 b4 04 5f
        E 54 b4 04 5d
        E 54 b4 04 5c
        E 54 b4 04 5b
        E 54 b4 04 59
        E 54 b4 04 57
        E 54 b4 04 56
        E 54 b4 04 54
        E 54 b4 04 52
        E 54 b4 04 50
        E 54 b4 04 4e
        E 54 b4 04 4c
        E 54 b4 04 49
        E 54 b4 04 47
        E 54 b4 04 45
        E 54 b4 04 43
        E 54 b4 04 40
        E 54 b4 04 3e
        E 54 b4 04 3b
        E 54 b4 04 38
        E 54 b4 04 36
        E 54 b4 04 33
        E 54 b4 04 31
        E 54 b4 04 2f
        E 54 b4 04 2c
        E 54 b4 04 2a
        E 54 b4 04 27
        E 54 b4 04 24
        E 54 b4 04 22
        E 54 b4 04 1f
        E 54 b4 04 1e
        E 54 b4 04 1b
        E 54 b4 04 19
        E 54 b4 04 17
        E 54 b4 04 15
        E 54 b4 04 13
        E 54 b4 04 11
        E 54 b4 04 0f
        E 54 b4 04 0d
        E 54 b4 04 0b
        E 54 b4 04 0a
        E 54 b4 04 08
        E 54 b4 04 07
        E 54 b4 04 06
        E 54 b4 04 05
        E 54 b4 04 03
        E 54 b4 04 03
        E 54 b4 04 02
        E 54 b4 04 01
        E 54 b4 04 00
        E 54 b4 04 00
        E 54 b4 04 00
        E 54 b4 04 00
        E 54 b4 04 00
        E 54 b4 04 00
        E 54 b4 04 00
        E 54 b4 04 00
        E 54 b4 04 00
        E 54 b4 04 01
        E 54 b4 04 02
        E 54 b4 04 03
        E 54 b4 04 03
        E 54 b4 04 04
        E 54 b4 04 05
        E 54 b4 04 07
        E 54 b4 04 07
        E 54 b4 04 09
        E 54 b4 04 0b
        E 54 b4 04 0c
        E 54 b4 04 0e
        E 54 b4 04 10
        E 54 b4 04 12
        E 54 b4 04 14
        E 54 b4 04 16
        E 54 b4 04 18
        E 54 b4 04 1a
        E 54 b4 04 1c
        E 54 b4 04 1f
        E 54 b4 04 21
        E 54 b4 04 24
        E 54 b4 04 26
        E 54 b4 04 28
        E 54 b4 04 2b
        E 54 b4 04 2d
        E 54 b4 04 2f
        E 54 b4 04 33
        E 61 b4 04 06
        E 61 b4 04 06
        E 61 b4 04 07
        E 61 b4 04 07
        E 61 b4 04 07
        E 61 b4 04 07
        E 61 b4 04 08
        E 61 b4 04 08
        E 61 b4 04 08
        E 61 b4 04 09
        E 61 b4 04 09
        E 61 b4 04 09
        E 61 b4 04 09
        E 61 b4 04 0a
        E 61 b4 04 0a
        E 61 b4 04 0a
        E 61 b4 04 0a
        E 61 b4 04 0b
        E 61 b4 04 0b
        E 61 b4 04 0b
        E 61 b4 04 0b
        E 61 b4 04 0b
        E 61 b4 04 0c
        E 61 b4 04 0c
        E 61 b4 04 0c
        E 61 b4 04 0c
        E 61 b4 04 0c
        E 61 b4 04 0c
        E 61 b4 04 0c
        E 61 b4 04 0c
        E 61 b4 04 0c
        E 61 b4 04 0c
        E 61 b4 04 0c
        E 61 b4 04 0c
        E 61 b4 04 0c
        E 61 b4 04 0c
        E 61 b4 04 0c
        E 61 b4 04 0c
        E 61 b4 04 0c
        E 61 b4 04 0c
        E 61 b4 04 0c
        E 61 b4 04 0c
        E 61 b4 04 0b
        E 61 b4 04 0b
        E 61 b4 04 0b
        E 61 b4 04 0b
        E 61 b4 04 0b
        E 61 b4 04 0b
        E 61 b4 04 0a
        E 61 b4 04 0a
        E 61 b4 04 0a
        E 61 b4 04 0a
        E 61 b4 04 09
        E 61 b4 04 09
        E 61 b4 04 09
        E 61 b4 04 08
        E 61 b4 04 08
        E 61 b4 04 08
        E 61 b4 04 08
        E 61 b4 04 07
        E 61 b4 04 07
        E 61 b4 04 07
        E 61 b4 04 06
        E 61 b4 04 06
        E 61 b4 04 06
        E 61 b4 04 05
        E 61 b4 04 05
        E 61 b4 04 05
        E 61 b4 04 04
        E 61 b4 04 04
        E 61 b4 04 04
        E 61 b4 04 04
        E 61 b4 04 03
        E 61 b4 04 03
        E 61 b4 04 03
        E 61 b4 04 02
        E 61 b4 04 02
        E 61 b4 04 02
        E 61 b4 04 02
        E 61 b4 04 01
        E 61 b4 04 01
        E 61 b4 04 01
        E 61 b4 04 01
        E 61 b4 04 01
        E 61 b4 04 01
        E 61 b4 04 00
        E 61 b4 04 00
        E 61 b4 04 00
        E 61 b4 04 00
        E 61 b4 04 00
        E 61 b4 04 00
        E 61 b4 04 00
        E 61 b4 04 00
        E 61 b4 04 00
        E 61 b4 04 00
        E 61 b4 04 00
        E 61 b4 04 00
        E 61 b4 04 00
        E 61 b4 04 00
        E 61 b4 04 00
        E 61 b4 04 00
        E 61 b4 04 00
        E 61 b4 04 00
        E 61 b4 04 00
        E 61 b4 04 00
        E 61 b4 04 00
        E 61 b4 04 00
        E 61 b4 04 01
        E 61 b4 04 01
        E 61 b4 04 01
        E 61 b4 04 01
        E 61 b4 04 01
        E 61 b4 04 02
        E 61 b4 04 02
        E 61 b4 04 02
        E 61 b4 04 02
        E 61 b4 04 03
        E 61 b4 04 03
        E 61 b4 04 03
        E 61 b4 04 03
        E 61 b4 04 04
        E 61 b4 04 04
        E 61 b4 04 04
        E 61 b4 04 05
        E 61 b4 04 05
        E 61 b4 04 05
        E 61 b4 04 06
        E 61 b4 04 06
        E 54 b4 04 19
        E 54 b4 04 1a
        E 54 b4 04 1c
        E 54 b4 04 1d
        E 54 b4 04 1e
        E 54 b4 04 1f
        E 54 b4 04 20
        E 54 b4 04 22
        E 54 b4 04 23
        E 54 b4 04 24
        E 54 b4 04 25
        E 54 b4 04 26
        E 54 b4 04 27
        E 54 b4 04 28
        E 54 b4 04 29
        E 54 b4 04 2a
        E 54 b4 04 2b
        E 54 b4 04 2c
        E 54 b4 04 2d
        E 54 b4 04 2e
        E 54 b4 04 2e
        E 54 b4 04 2f
        E 54 b4 04 30
        E 54 b4 04 30
        E 54 b4 04 30
        E 54 b4 04 31
        E 54 b4 04 31
        E 54 b4 04 32
        E 54 b4 04 32
        E 54 b4 04 32
        E 54 b4 04 32
        E 54 b4 04 32
        E 54 b4 04 32
        E 54 b4 04 32
        E 54 b4 04 32
        E 54 b4 04 32
        E 54 b4 04 32
        E 54 b4 04 32
        E 54 b4 04 31
        E 54 b4 04 31
        E 54 b4 04 30
        E 54 b4 04 30
        E 54 b4 04 2f
        E 54 b4 04 2e
        E 54 b4 04 2e
        E 54 b4 04 2d
        E 54 b4 04 2c
        E 54 b4 04 2c
        E 54 b4 04 2b
        E 54 b4 04 2a
        E 54 b4 04 29
        E 54 b4 04 28
        E 54 b4 04 27
        E 54 b4 04 26
        E 54 b4 04 24
        E 54 b4 04 23
        E 54 b4 04 22
        E 54 b4 04 21
        E 54 b4 04 20
        E 54 b4 04 1f
        E 54 b4 04 1d
        E 54 b4 04 1c
        E 54 b4 04 1b
        E 54 b4 04 1a
        E 54 b4 04 18
        E 54 b4 04 17
        E 54 b4 04 16
        E 54 b4 04 15
        E 54 b4 04 13
        E 54 b4 04 12
        E 54 b4 04 11
        E 54 b4 04 10
        E 54 b4 04 0f
        E 54 b4 04 0e
        E 54 b4 04 0c
        E 54 b4 04 0b
        E 54 b4 04 0a
        E 54 b4 04 09
        E 54 b4 04 08
        E 54 b4 04 07
        E 54 b4 04 06
        E 54 b4 04 06
        E 54 b4 04 05
        E 54 b4 04 04
        E 54 b4 04 04
        E 54 b4 04 03
        E 54 b4 04 02
        E 54 b4 04 02
        E 54 b4 04 01
        E 54 b4 04 01
        E 54 b4 04 00
        E 54 b4 04 00
        E 54 b4 04 00
        E 54 b4 04 00
        E 54 b4 04 00
        E 54 b4 04 00
        E 54 b4 04 00
        E 54 b4 04 00
        E 54 b4 04 00
        E 54 b4 04 00
        E 54 b4 04 00
        E 54 b4 04 01
        E 54 b4 04 01
        E 54 b4 04 02
        E 54 b4 04 02
        E 54 b4 04 02
        E 54 b4 04 03
        E 54 b4 04 04
        E 54 b4 04 04
        E 54 b4 04 05
        E 54 b4 04 06
        E 54 b4 04 07
        E 54 b4 04 08
        E 54 b4 04 09
        E 54 b4 04 0a
        E 54 b4 04 0b
        E 54 b4 04 0c
        E 54 b4 04 0d
        E 54 b4 04 0e
        E 54 b4 04 0f
        E 54 b4 04 10
        E 54 b4 04 12
        E 54 b4 04 13
        E 54 b4 04 14
        E 54 b4 04 15
        E 54 b4 04 16
        E 54 b4 04 18
        E 54 b4 04 19
        E 30 b4 04 2c
        E 30 b4 04 2e
        E 30 b4 04 31
        E 30 b4 04 33
        E 30 b4 04 35
        E 30 b4 04 37
        E 30 b4 04 39
        E 30 b4 04 3b
        E 30 b4 04 3d
        E 30 b4 04 3f
        E 30 b4 04 41
        E 30 b4 04 43
        E 30 b4 04 45
        E 30 b4 04 47
        E 30 b4 04 48
        E 30 b4 04 4a
        E 30 b4 04 4c
        E 30 b4 04 4d
        E 30 b4 04 4f
        E 30 b4 04 50
        E 30 b4 04 51
        E 30 b4 04 52
        E 30 b4 04 54
        E 30 b4 04 54
        E 30 b4 04 55
        E 30 b4 04 56
        E 30 b4 04 56
        E 30 b4 04 57
        E 30 b4 04 58
        E 30 b4 04 58
        E 30 b4 04 58
        E 30 b4 04 58
        E 30 b4 04 58
        E 30 b4 04 58
        E 30 b4 04 58
        E 30 b4 04 58
        E 30 b4 04 58
        E 30 b4 04 57
        E 30 b4 04 56
        E 30 b4 04 56
        E 30 b4 04 55
        E 30 b4 04 54
        E 30 b4 04 53
        E 30 b4 04 51
        E 30 b4 04 51
        E 30 b4 04 4f
        E 30 b4 04 4e
        E 30 b4 04 4d
        E 30 b4 04 4b
        E 30 b4 04 49
        E 30 b4 04 48
        E 30 b4 04 46
        E 30 b4 04 44
        E 30 b4 04 42
        E 30 b4 04 40
        E 30 b4 04 3e
        E 30 b4 04 3c
        E 30 b4 04 3a
        E 30 b4 04 38
        E 30 b4 04 36
        E 30 b4 04 33
        E 30 b4 04 31
        E 30 b4 04 2f
        E 30 b4 04 2d
        E 30 b4 04 2b
        E 30 b4 04 29
        E 30 b4 04 27
        E 30 b4 04 25
        E 30 b4 04 22
        E 30 b4 04 20
        E 30 b4 04 1e
        E 30 b4 04 1c
        E 30 b4 04 1a
        E 30 b4 04 18
        E 30 b4 04 16
        E 30 b4 04 14
        E 30 b4 04 12
        E 30 b4 04 10
        E 30 b4 04 0f
        E 30 b4 04 0d
        E 30 b4 04 0b
        E 30 b4 04 0a
        E 30 b4 04 09
        E 30 b4 04 07
        E 30 b4 04 07
        E 30 b4 04 05
        E 30 b4 04 04
        E 30 b4 04 03
        E 30 b4 04 02
        E 30 b4 04 02
        E 30 b4 04 01
        E 30 b4 04 00
        E 30 b4 04 00
        E 30 b4 04 00
        E 30 b4 04 00
        E 30 b4 04 00
        E 30 b4 04 00
        E 30 b4 04 00
        E 30 b4 04 00
        E 30 b4 04 00
        E 30 b4 04 01
        E 30 b4 04 02
        E 30 b4 04 02
        E 30 b4 04 03
        E 30 b4 04 04
        E 30 b4 04 04
        E 30 b4 04 06
        E 30 b4 04 07
        E 30 b4 04 08
        E 30 b4 04 09
        E 30 b4 04 0b
        E 30 b4 04 0c
        E 30 b4 04 0e
        E 30 b4 04 10
        E 30 b4 04 11
        E 30 b4 04 13
        E 30 b4 04 15
        E 30 b4 04 17
        E 30 b4 04 19
        E 30 b4 04 1b
        E 30 b4 04 1d
        E 30 b4 04 1f
        E 30 b4 04 21
        E 30 b4 04 23
        E 30 b4 04 25
        E 30 b4 04 27
        E 30 b4 04 2a
        E 30 b4 04 2c
        E 30 b4 04 20
        E 30 b4 04 21
        E 30 b4 04 23
        E 30 b4 04 24
        E 30 b4 04 26
        E 30 b4 04 27
        E 30 b4 04 29
        E 30 b4 04 2a
        E 30 b4 04 2c
        E 30 b4 04 2d
        E 30 b4 04 2f
        E 30 b4 04 30
        E 30 b4 04 31
        E 30 b4 04 33
        E 30 b4 04 34
        E 30 b4 04 35
        E 30 b4 04 36
        E 30 b4 04 37
        E 30 b4 04 38
        E 30 b4 04 39
        E 30 b4 04 3a
        E 30 b4 04 3b
        E 30 b4 04 3c
        E 30 b4 04 3c
        E 30 b4 04 3d
        E 30 b4 04 3d
        E 30 b4 04 3e
        E 30 b4 04 3e
        E 30 b4 04 3f
        E 30 b4 04 3f
        E 30 b4 04 3f
        E 30 b4 04 3f
        E 30 b4 04 3f
        E 30 b4 04 3f
        E 30 b4 04 3f
        E 30 b4 04 3f
        E 30 b4 04 3f
        E 30 b4 04 3e
        E 30 b4 04 3e
        E 30 b4 04 3d
        E 30 b4 04 3d
        E 30 b4 04 3c
        E 30 b4 04 3b
        E 30 b4 04 3a
        E 30 b4 04 3a
        E 30 b4 04 39
        E 30 b4 04 38
        E 30 b4 04 37
        E 30 b4 04 36
        E 30 b4 04 34
        E 30 b4 04 33
        E 30 b4 04 32
        E 30 b4 04 31
        E 30 b4 04 2f
        E 30 b4 04 2e
        E 30 b4 04 2c
        E 30 b4 04 2b
        E 30 b4 04 2a
        E 30 b4 04 28
        E 30 b4 04 27
        E 30 b4 04 25
        E 30 b4 04 23
        E 30 b4 04 22
        E 30 b4 04 20
        E 30 b4 04 1f
        E 30 b4 04 1d
        E 30 b4 04 1c
        E 30 b4 04 1a
        E 30 b4 04 18
        E 30 b4 04 17
        E 30 b4 04 15
        E 30 b4 04 14
        E 30 b4 04 13
        E 30 b4 04 11
        E 30 b4 04 10
        E 30 b4 04 0e
        E 30 b4 04 0d
        E 30 b4 04 0c
        E 30 b4 04 0b
        E 30 b4 04 09
        E 30 b4 04 08
        E 30 b4 04 07
        E 30 b4 04 06
        E 30 b4 04 05
        E 30 b4 04 05
        E 30 b4 04 04
        E 30 b4 04 03
        E 30 b4 04 02
        E 30 b4 04 02
        E 30 b4 04 01
        E 30 b4 04 01
        E 30 b4 04 00
        E 30 b4 04 00
        E 30 b4 04 00
        E 30 b4 04 00
        E 30 b4 04 00
        E 30 b4 04 00
        E 30 b4 04 00
        E 30 b4 04 00
        E 30 b4 04 00
        E 30 b4 04 01
        E 30 b4 04 01
        E 30 b4 04 02
        E 30 b4 04 02
        E 30 b4 04 03
        E 30 b4 04 03
        E 30 b4 04 04
        E 30 b4 04 05
        E 30 b4 04 06
        E 30 b4 04 07
        E 30 b4 04 08
        E 30 b4 04 09
        E 30 b4 04 0a
        E 30 b4 04 0b
        E 30 b4 04 0c
        E 30 b4 04 0e
        E 30 b4 04 0f
        E 30 b4 04 10
        E 30 b4 04 12
        E 30 b4 04 13
        E 30 b4 04 15
        E 30 b4 04 16
        E 30 b4 04 18
        E 30 b4 04 19
        E 30 b4 04 1b
        E 30 b4 04 1c
        E 30 b4 04 1e
        E 30 b4 04 20
        E 42 b4 04 20
        E 42 b4 04 21
        E 42 b4 04 23
        E 42 b4 04 24
        E 42 b4 04 26
        E 42 b4 04 27
        E 42 b4 04 29
        E 42 b4 04 2a
        E 42 b4 04 2c
        E 42 b4 04 2d
        E 42 b4 04 2f
        E 42 b4 04 30
        E 42 b4 04 31
        E 42 b4 04 33
        E 42 b4 04 34
        E 42 b4 04 35
        E 42 b4 04 36
        E 42 b4 04 37
        E 42 b4 04 38
        E 42 b4 04 39
        E 42 b4 04 3a
        E 42 b4 04 3b
        E 42 b4 04 3c
        E 42 b4 04 3c
        E 42 b4 04 3d
        E 42 b4 04 3d
        E 42 b4 04 3e
        E 42 b4 04 3e
        E 42 b4 04 3f
        E 42 b4 04 3f
        E 42 b4 04 3f
        E 42 b4 04 3f
        E 42 b4 04 3f
        E 42 b4 04 3f
        E 42 b4 04 3f
        E 42 b4 04 3f
        E 42 b4 04 3f
        E 42 b4 04 3e
        E 42 b4 04 3e
        E 42 b4 04 3d
        E 42 b4 04 3d
        E 42 b4 04 3c
        E 42 b4 04 3b
        E 42 b4 04 3a
        E 42 b4 04 3a
        E 42 b4 04 39
        E 42 b4 04 38
        E 42 b4 04 37
        E 42 b4 04 36
        E 42 b4 04 34
        E 42 b4 04 33
        E 42 b4 04 32
        E 42 b4 04 31
        E 42 b4 04 2f
        E 42 b4 04 2e
        E 42 b4 04 2c
        E 42 b4 04 2b
        E 42 b4 04 2a
        E 42 b4 04 28
        E 42 b4 04 27
        E 42 b4 04 25
        E 42 b4 04 23
        E 42 b4 04 22
        E 42 b4 04 20
        E 42 b4 04 1f
        E 42 b4 04 1d
        E 42 b4 04 1c
        E 42 b4 04 1a
        E 42 b4 04 18
        E 42 b4 04 17
        E 42 b4 04 15
        E 42 b4 04 14
        E 42 b4 04 13
        E 42 b4 04 11
        E 42 b4 04 10
        E 42 b4 04 0e
        E 42 b4 04 0d
        E 42 b4 04 0c
        E 42 b4 04 0b
        E 42 b4 04 09
        E 42 b4 04 08
        E 42 b4 04 07
        E 42 b4 04 06
        E 42 b4 04 05
        E 42 b4 04 05
        E 42 b4 04 04
        E 42 b4 04 03
        E 42 b4 04 02
        E 42 b4 04 02
        E 42 b4 04 01
        E 42 b4 04 01
        E 42 b4 04 00
        E 42 b4 04 00
        E 42 b4 04 00
        E 42 b4 04 00
        E 42 b4 04 00
        E 42 b4 04 00
        E 42 b4 04 00
        E 42 b4 04 00
        E 42 b4 04 00
        E 42 b4 04 01
        E 42 b4 04 01
        E 42 b4 04 02
        E 42 b4 04 02
        E 42 b4 04 03
        E 42 b4 04 03
        E 42 b4 04 04
        E 42 b4 04 05
        E 42 b4 04 06
        E 42 b4 04 07
        E 42 b4 04 08
        E 42 b4 04 09
        E 42 b4 04 0a
        E 42 b4 04 0b
        E 42 b4 04 0c
        E 42 b4 04 0e
        E 42 b4 04 0f
        E 42 b4 04 10
        E 42 b4 04 12
        E 42 b4 04 13
        E 42 b4 04 15
        E 42 b4 04 16
        E 42 b4 04 18
        E 42 b4 04 19
        E 42 b4 04 1b
        E 42 b4 04 1c
        E 42 b4 04 1e
        E 42 b4 04 20
        E 48 b4 04 40
        E 48 b4 04 43
        E 48 b4 04 46
        E 48 b4 04 49
        E 48 b4 04 4c
        E 48 b4 04 4f
        E 48 b4 04 52
        E 48 b4 04 55
        E 48 b4 04 58
        E 48 b4 04 5b
        E 48 b4 04 5e
        E 48 b4 04 60
        E 48 b4 04 63
        E 48 b4 04 66
        E 48 b4 04 68
        E 48 b4 04 6a
        E 48 b4 04 6d
        E 48 b4 04 6f
        E 48 b4 04 71
        E 48 b4 04 73
        E 48 b4 04 75
        E 48 b4 04 76
        E 48 b4 04 78
        E 48 b4 04 79
        E 48 b4 04 7a
        E 48 b4 04 7b
        E 48 b4 04 7c
        E 48 b4 04 7d
        E 48 b4 04 7e
        E 48 b4 04 7e
        E 48 b4 04 7f
        E 48 b4 04 7f
        E 48 b4 04 7f
        E 48 b4 04 7f
        E 48 b4 04 7f
        E 48 b4 04 7e
        E 48 b4 04 7e
        E 48 b4 04 7d
        E 48 b4 04 7c
        E 48 b4 04 7b
        E 48 b4 04 7a
        E 48 b4 04 78
        E 48 b4 04 77
        E 48 b4 04 75
        E 48 b4 04 74
        E 48 b4 04 72
        E 48 b4 04 70
        E 48 b4 04 6e
        E 48 b4 04 6c
        E 48 b4 04 69
        E 48 b4 04 67
        E 48 b4 04 64
        E 48 b4 04 62
        E 48 b4 04 5f
        E 48 b4 04 5c
        E 48 b4 04 59
        E 48 b4 04 57
        E 48 b4 04 54
        E 48 b4 04 51
        E 48 b4 04 4e
        E 48 b4 04 4a
        E 48 b4 04 47
        E 48 b4 04 44
        E 48 b4 04 41
        E 48 b4 04 3e
        E 48 b4 04 3b
        E 48 b4 04 38
        E 48 b4 04 35
        E 48 b4 04 31
        E 48 b4 04 2e
        E 48 b4 04 2b
        E 48 b4 04 28
        E 48 b4 04 26
        E 48 b4 04 23
        E 48 b4 04 20
        E 48 b4 04 1d
        E 48 b4 04 1b
        E 48 b4 04 18
        E 48 b4 04 16
        E 48 b4 04 13
        E 48 b4 04 11
        E 48 b4 04 0f
        E 48 b4 04 0d
        E 48 b4 04 0b
        E 48 b4 04 0a
        E 48 b4 04 08
        E 48 b4 04 07
        E 48 b4 04 05
        E 48 b4 04 04
        E 48 b4 04 03
        E 48 b4 04 02
        E 48 b4 04 01
        E 48 b4 04 01
        E 48 b4 04 00
        E 48 b4 04 00
        E 48 b4 04 00
        E 48 b4 04 00
        E 48 b4 04 00
        E 48 b4 04 01
        E 48 b4 04 01
        E 48 b4 04 02
        E 48 b4 04 03
        E 48 b4 04 04
        E 48 b4 04 05
        E 48 b4 04 06
        E 48 b4 04 07
        E 48 b4 04 09
        E 48 b4 04 0a
        E 48 b4 04 0c
        E 48 b4 04 0e
        E 48 b4 04 10
        E 48 b4 04 12
        E 48 b4 04 15
        E 48 b4 04 17
        E 48 b4 04 19
        E 48 b4 04 1c
        E 48 b4 04 1f
        E 48 b4 04 21
        E 48 b4 04 24
        E 48 b4 04 27
        E 48 b4 04 2a
        E 48 b4 04 2d
        E 48 b4 04 30
        E 48 b4 04 33
        E 48 b4 04 36
        E 48 b4 04 39
        E 48 b4 04 3c
        E 48 b4 04 40
        E 6 b4 04 39
        E 6 b4 04 3c
        E 6 b4 04 3f
        E 6 b4 04 41
        E 6 b4 04 44
        E 6 b4 04 47
        E 6 b4 04 49
        E 6 b4 04 4c
        E 6 b4 04 4f
        E 6 b4 04 51
        E 6 b4 04 54
        E 6 b4 04 56
        E 6 b4 04 59
        E 6 b4 04 5b
        E 6 b4 04 5d
        E 6 b4 04 5f
        E 6 b4 04 62
        E 6 b4 04 63
        E 6 b4 04 65
        E 6 b4 04 67
        E 6 b4 04 69
        E 6 b4 04 6a
        E 6 b4 04 6c
        E 6 b4 04 6c
        E 6 b4 04 6d
        E 6 b4 04 6e
        E 6 b4 04 6f
        E 6 b4 04 70
        E 6 b4 04 71
        E 6 b4 04 71
        E 6 b4 04 72
        E 6 b4 04 72
        E 6 b4 04 72
        E 6 b4 04 72
        E 6 b4 04 72
        E 6 b4 04 71
        E 6 b4 04 71
        E 6 b4 04 70
        E 6 b4 04 6f
        E 6 b4 04 6e
        E 6 b4 04 6d
        E 6 b4 04 6c
        E 6 b4 04 6b
        E 6 b4 04 69
        E 6 b4 04 68
        E 6 b4 04 66
        E 6 b4 04 64
        E 6 b4 04 63
        E 6 b4 04 61
        E 6 b4 04 5e
        E 6 b4 04 5c
        E 6 b4 04 5a
        E 6 b4 04 58
        E 6 b4 04 55
        E 6 b4 04 52
        E 6 b4 04 50
        E 6 b4 04 4e
        E 6 b4 04 4b
        E 6 b4 04 48
        E 6 b4 04 46
        E 6 b4 04 42
        E 6 b4 04 3f
        E 6 b4 04 3d
        E 6 b4 04 3a
        E 6 b4 04 37
        E 6 b4 04 35
        E 6 b4 04 32
        E 6 b4 04 2f
        E 6 b4 04 2c
        E 6 b4 04 29
        E 6 b4 04 26
        E 6 b4 04 24
        E 6 b4 04 22
        E 6 b4 04 1f
        E 6 b4 04 1c
        E 6 b4 04 1a
        E 6 b4 04 18
        E 6 b4 04 15
        E 6 b4 04 13
        E 6 b4 04 11
        E 6 b4 04 0f
        E 6 b4 04 0d
        E 6 b4 04 0b
        E 6 b4 04 09
        E 6 b4 04 09
        E 6 b4 04 07
        E 6 b4 04 06
        E 6 b4 04 04
        E 6 b4 04 03
        E 6 b4 04 02
        E 6 b4 04 01
        E 6 b4 04 00
        E 6 b4 04 00
        E 6 b4 04 00
        E 6 b4 04 00
        E 6 b4 04 00
        E 6 b4 04 00
        E 6 b4 04 00
        E 6 b4 04 00
        E 6 b4 04 00
        E 6 b4 04 01
        E 6 b4 04 02
        E 6 b4 04 03
        E 6 b4 04 04
        E 6 b4 04 05
        E 6 b4 04 06
        E 6 b4 04 08
        E 6 b4 04 09
        E 6 b4 04 0a
        E 6 b4 04 0c
        E 6 b4 04 0e
        E 6 b4 04 10
        E 6 b4 04 12
        E 6 b4 04 14
        E 6 b4 04 16
        E 6 b4 04 19
        E 6 b4 04 1b
        E 6 b4 04 1d
        E 6 b4 04 20
        E 6 b4 04 23
        E 6 b4 04 25
        E 6 b4 04 28
        E 6 b4 04 2b
        E 6 b4 04 2d
        E 6 b4 04 30
        E 6 b4 04 33
        E 6 b4 04 36
        E 6 b4 04 39
        E 24 b4 04 40
        E 24 b4 04 43
        E 24 b4 04 46
        E 24 b4 04 49
        E 24 b4 04 4c
        E 24 b4 04 4f
        E 24 b4 04 52
        E 24 b4 04 55
        E 24 b4 04 58
        E 24 b4 04 5b
        E 24 b4 04 5e
        E 24 b4 04 60
        E 24 b4 04 63
        E 24 b4 04 66
        E 24 b4 04 68
        E 24 b4 04 6a
        E 24 b4 04 6d
        E 24 b4 04 6f
        E 24 b4 04 71
        E 24 b4 04 73
        E 24 b4 04 75
        E 24 b4 04 76
        E 24 b4 04 78
        E 24 b4 04 79
        E 24 b4 04 7a
        E 24 b4 04 7b
        E 24 b4 04 7c
        E 24 b4 04 7d
        E 24 b4 04 7e
        E 24 b4 04 7e
        E 24 b4 04 7f
        E 24 b4 04 7f
        E 24 b4 04 7f
        E 24 b4 04 7f
        E 24 b4 04 7f
        E 24 b4 04 7e
        E 24 b4 04 7e
        E 24 b4 04 7d
        E 24 b4 04 7c
        E 24 b4 04 7b
        E 24 b4 04 7a
        E 24 b4 04 78
        E 24 b4 04 77
        E 24 b4 04 75
        E 24 b4 04 74
        E 24 b4 04 72
        E 24 b4 04 70
        E 24 b4 04 6e
        E 24 b4 04 6c
        E 24 b4 04 69
        E 24 b4 04 67
        E 24 b4 04 64
        E 24 b4 04 62
        E 24 b4 04 5f
        E 24 b4 04 5c
        E 24 b4 04 59
        E 24 b4 04 57
        E 24 b4 04 54
        E 24 b4 04 51
        E 24 b4 04 4e
        E 24 b4 04 4a
        E 24 b4 04 47
        E 24 b4 04 44
        E 24 b4 04 41
        E 24 b4 04 3e
        E 24 b4 04 3b
        E 24 b4 04 38
        E 24 b4 04 35
        E 24 b4 04 31
        E 24 b4 04 2e
        E 24 b4 04 2b
        E 24 b4 04 28
        E 24 b4 04 26
        E 24 b4 04 23
        E 24 b4 04 20
        E 24 b4 04 1d
        E 24 b4 04 1b
        E 24 b4 04 18
        E 24 b4 04 16
        E 24 b4 04 13
        E 24 b4 04 11
        E 24 b4 04 0f
        E 24 b4 04 0d
        E 24 b4 04 0b
        E 24 b4 04 0a
        E 24 b4 04 08
        E 24 b4 04 07
        E 24 b4 04 05
        E 24 b4 04 04
        E 24 b4 04 03
        E 24 b4 04 02
        E 24 b4 04 01
        E 24 b4 04 01
        E 24 b4 04 00
        E 24 b4 04 00
        E 24 b4 04 00
        E 24 b4 04 00
        E 24 b4 04 00
        E 24 b4 04 01
        E 24 b4 04 01
        E 24 b4 04 02
        E 24 b4 04 03
        E 24 b4 04 04
        E 24 b4 04 05
        E 24 b4 04 06
        E 24 b4 04 07
        E 24 b4 04 09
        E 24 b4 04 0a
        E 24 b4 04 0c
        E 24 b4 04 0e
        E 24 b4 04 10
        E 24 b4 04 12
        E 24 b4 04 15
        E 24 b4 04 17
        E 24 b4 04 19
        E 24 b4 04 1c
        E 24 b4 04 1f
        E 24 b4 04 21
        E 24 b4 04 24
        E 24 b4 04 27
        E 24 b4 04 2a
        E 24 b4 04 2d
        E 24 b4 04 30
        E 24 b4 04 33
        E 24 b4 04 36
        E 24 b4 04 39
        E 24 b4 04 3c
        E 24 b4 04 40
        E 30 b4 04 20
        E 30 b4 04 21
        E 30 b4 04 23
        E 30 b4 04 24
        E 30 b4 04 26
        E 30 b4 04 27
        E 30 b4 04 29
        E 30 b4 04 2a
        E 30 b4 04 2c
        E 30 b4 04 2d
        E 30 b4 04 2f
        E 30 b4 04 30
        E 30 b4 04 31
        E 30 b4 04 33
        E 30 b4 04 34
        E 30 b4 04 35
        E 30 b4 04 36
        E 30 b4 04 37
        E 30 b4 04 38
        E 30 b4 04 39
        E 30 b4 04 3a
        E 30 b4 04 3b
        E 30 b4 04 3c
        E 30 b4 04 3c
        E 30 b4 04 3d
        E 30 b4 04 3d
        E 30 b4 04 3e
        E 30 b4 04 3e
        E 30 b4 04 3f
        E 30 b4 04 3f
        E 30 b4 04 3f
        E 30 b4 04 3f
        E 30 b4 04 3f
        E 30 b4 04 3f
        E 30 b4 04 3f
        E 30 b4 04 3f
        E 30 b4 04 3f
        E 30 b4 04 3e
        E 30 b4 04 3e
        E 30 b4 04 3d
        E 30 b4 04 3d
        E 30 b4 04 3c
        E 30 b4 04 3b
        E 30 b4 04 3a
        E 30 b4 04 3a
        E 30 b4 04 39
        E 30 b4 04 38
        E 30 b4 04 37
        E 30 b4 04 36
        E 30 b4 04 34
        E 30 b4 04 33
        E 30 b4 04 32
        E 30 b4 04 31
        E 30 b4 04 2f
        E 30 b4 04 2e
        E 30 b4 04 2c
        E 30 b4 04 2b
        E 30 b4 04 2a
        E 30 b4 04 28
        E 30 b4 04 27
        E 30 b4 04 25
        E 30 b4 04 23
        E 30 b4 04 22
        E 30 b4 04 20
        E 30 b4 04 1f
        E 30 b4 04 1d
        E 30 b4 04 1c
        E 30 b4 04 1a
        E 30 b4 04 18
        E 30 b4 04 17
        E 30 b4 04 15
        E 30 b4 04 14
        E 30 b4 04 13
        E 30 b4 04 11
        E 30 b4 04 10
        E 30 b4 04 0e
        E 30 b4 04 0d
        E 30 b4 04 0c
        E 30 b4 04 0b
        E 30 b4 04 09
        E 30 b4 04 08
        E 30 b4 04 07
        E 30 b4 04 06
        E 30 b4 04 05
        E 30 b4 04 05
        E 30 b4 04 04
        E 30 b4 04 03
        E 30 b4 04 02
        E 30 b4 04 02
        E 30 b4 04 01
        E 30 b4 04 01
        E 30 b4 04 00
        E 30 b4 04 00
        E 30 b4 04 00
        E 30 b4 04 00
        E 30 b4 04 00
        E 30 b4 04 00
        E 30 b4 04 00
        E 30 b4 04 00
        E 30 b4 04 00
        E 30 b4 04 01
        E 30 b4 04 01
        E 30 b4 04 02
        E 30 b4 04 02
        E 30 b4 04 03
        E 30 b4 04 03
        E 30 b4 04 04
        E 30 b4 04 05
        E 30 b4 04 06
        E 30 b4 04 07
        E 30 b4 04 08
        E 30 b4 04 09
        E 30 b4 04 0a
        E 30 b4 04 0b
        E 30 b4 04 0c
        E 30 b4 04 0e
        E 30 b4 04 0f
        E 30 b4 04 10
        E 30 b4 04 12
        E 30 b4 04 13
        E 30 b4 04 15
        E 30 b4 04 16
        E 30 b4 04 18
        E 30 b4 04 19
        E 30 b4 04 1b
        E 30 b4 04 1c
        E 30 b4 04 1e
        E 30 b4 04 20
        E 61 b4 04 2c
        E 61 b4 04 2e
        E 61 b4 04 31
        E 61 b4 04 33
        E 61 b4 04 35
        E 61 b4 04 37
        E 61 b4 04 39
        E 61 b4 04 3b
        E 61 b4 04 3d
        E 61 b4 04 3f
        E 61 b4 04 41
        E 61 b4 04 43
        E 61 b4 04 45
        E 61 b4 04 47
        E 61 b4 04 48
        E 61 b4 04 4a
        E 61 b4 04 4c
        E 61 b4 04 4d
        E 61 b4 04 4f
        E 61 b4 04 50
        E 61 b4 04 51
        E 61 b4 04 52
        E 61 b4 04 54
        E 61 b4 04 54
        E 61 b4 04 55
        E 61 b4 04 56
        E 61 b4 04 56
        E 61 b4 04 57
        E 61 b4 04 58
        E 61 b4 04 58
        E 61 b4 04 58
        E 61 b4 04 58
        E 61 b4 04 58
        E 61 b4 04 58
        E 61 b4 04 58
        E 61 b4 04 58
        E 61 b4 04 58
        E 61 b4 04 57
        E 61 b4 04 56
        E 61 b4 04 56
        E 61 b4 04 55
        E 61 b4 04 54
        E 61 b4 04 53
        E 61 b4 04 51
        E 61 b4 04 51
        E 61 b4 04 4f
        E 61 b4 04 4e
        E 61 b4 04 4d
        E 61 b4 04 4b
        E 61 b4 04 49
        E 61 b4 04 48
        E 61 b4 04 46
        E 61 b4 04 44
        E 61 b4 04 42
        E 61 b4 04 40
        E 61 b4 04 3e
        E 61 b4 04 3c
        E 61 b4 04 3a
        E 61 b4 04 38
        E 61 b4 04 36
        E 61 b4 04 33
        E 61 b4 04 31
        E 61 b4 04 2f
        E 61 b4 04 2d
        E 61 b4 04 2b
        E 61 b4 04 29
        E 61 b4 04 27
        E 61 b4 04 25
        E 61 b4 04 22
        E 61 b4 04 20
        E 61 b4 04 1e
        E 61 b4 04 1c
        E 61 b4 04 1a
        E 61 b4 04 18
        E 61 b4 04 16
        E 61 b4 04 14
        E 61 b4 04 12
        E 61 b4 04 10
        E 61 b4 04 0f
        E 61 b4 04 0d
        E 61 b4 04 0b
        E 61 b4 04 0a
        E 61 b4 04 09
        E 61 b4 04 07
        E 61 b4 04 07
        E 61 b4 04 05
        E 61 b4 04 04
        E 61 b4 04 03
        E 61 b4 04 02
        E 61 b4 04 02
        E 61 b4 04 01
        E 61 b4 04 00
        E 61 b4 04 00
        E 61 b4 04 00
        E 61 b4 04 00
        E 61 b4 04 00
        E 61 b4 04 00
        E 61 b4 04 00
        E 61 b4 04 00
        E 61 b4 04 00
        E 61 b4 04 01
        E 61 b4 04 02
        E 61 b4 04 02
        E 61 b4 04 03
        E 61 b4 04 04
        E 61 b4 04 04
        E 61 b4 04 06
        E 61 b4 04 07
        E 61 b4 04 08
        E 61 b4 04 09
        E 61 b4 04 0b
        E 61 b4 04 0c
        E 61 b4 04 0e
        E 61 b4 04 10
        E 61 b4 04 11
        E 61 b4 04 13
        E 61 b4 04 15
        E 61 b4 04 17
        E 61 b4 04 19
        E 61 b4 04 1b
        E 61 b4 04 1d
        E 61 b4 04 1f
        E 61 b4 04 21
        E 61 b4 04 23
        E 61 b4 04 25
        E 61 b4 04 27
        E 61 b4 04 2a
        E 61 b4 04 2c
        E 54 b4 04 33
        E 54 b4 04 35
        E 54 b4 04 37
        E 54 b4 04 3a
        E 54 b4 04 3c
        E 54 b4 04 3f
        E 54 b4 04 41
        E 54 b4 04 44
        E 54 b4 04 46
        E 54 b4 04 48
        E 54 b4 04 4b
        E 54 b4 04 4c
        E 54 b4 04 4f
        E 54 b4 04 51
        E 54 b4 04 53
        E 54 b4 04 54
        E 54 b4 04 57
        E 54 b4 04 58
        E 54 b4 04 5a
        E 54 b4 04 5b
        E 54 b4 04 5d
        E 54 b4 04 5e
        E 54 b4 04 5f
        E 54 b4 04 60
        E 54 b4 04 61
        E 54 b4 04 62
        E 54 b4 04 63
        E 54 b4 04 63
        E 54 b4 04 64
        E 54 b4 04 64
        E 54 b4 04 65
        E 54 b4 04 65
        E 54 b4 04 65
        E 54 b4 04 65
        E 54 b4 04 65
        E 54 b4 04 64
        E 54 b4 04 64
        E 54 b4 04 63
        E 54 b4 04 63
        E 54 b4 04 62
        E 54 b4 04 61
        E 54 b4 04 5f
        E 54 b4 04 5f
        E 54 b4 04 5d
        E 54 b4 04 5c
        E 54 b4 04 5b
        E 54 b4 04 59
        E 54 b4 04 57
        E 54 b4 04 56
        E 54 b4 04 54
        E 54 b4 04 52
        E 54 b4 04 50
        E 54 b4 04 4e
        E 54 b4 04 4c
        E 54 b4 04 49
        E 54 b4 04 47
        E 54 b4 04 45
        E 54 b4 04 43
        E 54 b4 04 40
        E 54 b4 04 3e
        E 54 b4 04 3b
        E 54 b4 04 38
        E 54 b4 04 36
        E 54 b4 04 33
        E 54 b4 04 31
        E 54 b4 04 2f
        E 54 b4 04 2c
        E 54 b4 04 2a
        E 54 b4 04 27
        E 54 b4 04 24
        E 54 b4 04 22
        E 54 b4 04 1f
        E 54 b4 04 1e
        E 54 b4 04 1b
        E 54 b4 04 19
        E 54 b4 04 17
        E 54 b4 04 15
        E 54 b4 04 13
        E 54 b4 04 11
        E 54 b4 04 0f
        E 54 b4 04 0d
        E 54 b4 04 0b
        E 54 b4 04 0a
        E 54 b4 04 08
        E 54 b4 04 07
        E 54 b4 04 06
        E 54 b4 04 05
        E 54 b4 04 03
        E 54 b4 04 03
        E 54 b4 04 02
        E 54 b4 04 01
        E 54 b4 04 00
        E 54 b4 04 00
        E 54 b4 04 00
        E 54 b4 04 00
        E 54 b4 04 00
        E 54 b4 04 00
        E 54 b4 04 00
        E 54 b4 04 00
        E 54 b4 04 00
        E 54 b4 04 01
        E 54 b4 04 02
        E 54 b4 04 03
        E 54 b4 04 03
        E 54 b4 04 04
        E 54 b4 04 05
        E 54 b4 04 07
        E 54 b4 04 07
        E 54 b4 04 09
        E 54 b4 04 0b
        E 54 b4 04 0c
        E 54 b4 04 0e
        E 54 b4 04 10
        E 54 b4 04 12
        E 54 b4 04 14
        E 54 b4 04 16
        E 54 b4 04 18
        E 54 b4 04 1a
        E 54 b4 04 1c
        E 54 b4 04 1f
        E 54 b4 04 21
        E 54 b4 04 24
        E 54 b4 04 26
        E 54 b4 04 28
        E 54 b4 04 2b
        E 54 b4 04 2d
        E 54 b4 04 2f
        E 54 b4 04 33
        E 61 b4 04 06
        E 61 b4 04 06
        E 61 b4 04 07
        E 61 b4 04 07
        E 61 b4 04 07
        E 61 b4 04 07
        E 61 b4 04 08
        E 61 b4 04 08
        E 61 b4 04 08
        E 61 b4 04 09
        E 61 b4 04 09
        E 61 b4 04 09
        E 61 b4 04 09
        E 61 b4 04 0a
        E 61 b4 04 0a
        E 61 b4 04 0a
        E 61 b4 04 0a
        E 61 b4 04 0b
        E 61 b4 04 0b
        E 61 b4 04 0b
        E 61 b4 04 0b
        E 61 b4 04 0b
        E 61 b4 04 0c
        E 61 b4 04 0c
        E 61 b4 04 0c
        E 61 b4 04 0c
        E 61 b4 04 0c
        E 61 b4 04 0c
        E 61 b4 04 0c
        E 61 b4 04 0c
        E 61 b4 04 0c
        E 61 b4 04 0c
        E 61 b4 04 0c
        E 61 b4 04 0c
        E 61 b4 04 0c
        E 61 b4 04 0c
        E 61 b4 04 0c
        E 61 b4 04 0c
        E 61 b4 04 0c
        E 61 b4 04 0c
        E 61 b4 04 0c
        E 61 b4 04 0c
        E 61 b4 04 0b
        E 61 b4 04 0b
        E 61 b4 04 0b
        E 61 b4 04 0b
        E 61 b4 04 0b
        E 61 b4 04 0b
        E 61 b4 04 0a
        E 61 b4 04 0a
        E 61 b4 04 0a
        E 61 b4 04 0a
        E 61 b4 04 09
        E 61 b4 04 09
        E 61 b4 04 09
        E 61 b4 04 08
        E 61 b4 04 08
        E 61 b4 04 08
        E 61 b4 04 08
        E 61 b4 04 07
        E 61 b4 04 07
        E 61 b4 04 07
        E 61 b4 04 06
        E 61 b4 04 06
        E 61 b4 04 06
        E 61 b4 04 05
        E 61 b4 04 05
        E 61 b4 04 05
        E 61 b4 04 04
        E 61 b4 04 04
        E 61 b4 04 04
        E 61 b4 04 04
        E 61 b4 04 03
        E 61 b4 04 03
        E 61 b4 04 03
        E 61 b4 04 02
        E 61 b4 04 02
        E 61 b4 04 02
        E 61 b4 04 02
        E 61 b4 04 01
        E 61 b4 04 01
        E 61 b4 04 01
        E 61 b4 04 01
        E 61 b4 04 01
        E 61 b4 04 01
        E 61 b4 04 00
        E 61 b4 04 00
        E 61 b4 04 00
        E 61 b4 04 00
        E 61 b4 04 00
        E 61 b4 04 00
        E 61 b4 04 00
        E 61 b4 04 00
        E 61 b4 04 00
        E 61 b4 04 00
        E 61 b4 04 00
        E 61 b4 04 00
        E 61 b4 04 00
        E 61 b4 04 00
        E 61 b4 04 00
        E 61 b4 04 00
        E 61 b4 04 00
        E 61 b4 04 00
        E 61 b4 04 00
        E 61 b4 04 00
        E 61 b4 04 00
        E 61 b4 04 00
        E 61 b4 04 01
        E 61 b4 04 01
        E 61 b4 04 01
        E 61 b4 04 01
        E 61 b4 04 01
        E 61 b4 04 02
        E 61 b4 04 02
        E 61 b4 04 02
        E 61 b4 04 02
        E 61 b4 04 03
        E 61 b4 04 03
        E 61 b4 04 03
        E 61 b4 04 03
        E 61 b4 04 04
        E 61 b4 04 04
        E 61 b4 04 04
        E 61 b4 04 05
        E 61 b4 04 05
        E 61 b4 04 05
        E 61 b4 04 06
        E 61 b4 04 06
        E 54 b4 04 19
        E 54 b4 04 1a
        E 54 b4 04 1c
        E 54 b4 04 1d
        E 54 b4 04 1e
        E 54 b4 04 1f
        E 54 b4 04 20
        E 54 b4 04 22
        E 54 b4 04 23
        E 54 b4 04 24
        E 54 b4 04 25
        E 54 b4 04 26
        E 54 b4 04 27
        E 54 b4 04 28
        E 54 b4 04 29
        E 54 b4 04 2a
        E 54 b4 04 2b
        E 54 b4 04 2c
        E 54 b4 04 2d
        E 54 b4 04 2e
        E 54 b4 04 2e
        E 54 b4 04 2f
        E 54 b4 04 30
        E 54 b4 04 30
        E 54 b4 04 30
        E 54 b4 04 31
        E 54 b4 04 31
        E 54 b4 04 32
        E 54 b4 04 32
        E 54 b4 04 32
        E 54 b4 04 32
        E 54 b4 04 32
        E 54 b4 04 32
        E 54 b4 04 32
        E 54 b4 04 32
        E 54 b4 04 32
        E 54 b4 04 32
        E 54 b4 04 32
        E 54 b4 04 31
        E 54 b4 04 31
        E 54 b4 04 30
        E 54 b4 04 30
        E 54 b4 04 2f
        E 54 b4 04 2e
        E 54 b4 04 2e
        E 54 b4 04 2d
        E 54 b4 04 2c
        E 54 b4 04 2c
        E 54 b4 04 2b
        E 54 b4 04 2a
        E 54 b4 04 29
        E 54 b4 04 28
        E 54 b4 04 27
        E 54 b4 04 26
        E 54 b4 04 24
        E 54 b4 04 23
        E 54 b4 04 22
        E 54 b4 04 21
        E 54 b4 04 20
        E 54 b4 04 1f
        E 54 b4 04 1d
        E 54 b4 04 1c
        E 54 b4 04 1b
        E 54 b4 04 1a
        E 54 b4 04 18
        E 54 b4 04 17
        E 54 b4 04 16
        E 54 b4 04 15
        E 54 b4 04 13
        E 54 b4 04 12
        E 54 b4 04 11
        E 54 b4 04 10
        E 54 b4 04 0f
        E 54 b4 04 0e
        E 54 b4 04 0c
        E 54 b4 04 0b
        E 54 b4 04 0a
        E 54 b4 04 09
        E 54 b4 04 08
        E 54 b4 04 07
        E 54 b4 04 06
        E 54 b4 04 06
        E 54 b4 04 05
        E 54 b4 04 04
        E 54 b4 04 04
        E 54 b4 04 03
        E 54 b4 04 02
        E 54 b4 04 02
        E 54 b4 04 01
        E 54 b4 04 01
        E 54 b4 04 00
        E 54 b4 04 00
        E 54 b4 04 00
        E 54 b4 04 00
        E 54 b4 04 00
        E 54 b4 04 00
        E 54 b4 04 00
        E 54 b4 04 00
        E 54 b4 04 00
        E 54 b4 04 00
        E 54 b4 04 00
        E 54 b4 04 01
        E 54 b4 04 01
        E 54 b4 04 02
        E 54 b4 04 02
        E 54 b4 04 02
        E 54 b4 04 03
        E 54 b4 04 04
        E 54 b4 04 04
        E 54 b4 04 05
        E 54 b4 04 06
        E 54 b4 04 07
        E 54 b4 04 08
        E 54 b4 04 09
        E 54 b4 04 0a
        E 54 b4 04 0b
        E 54 b4 04 0c
        E 54 b4 04 0d
        E 54 b4 04 0e
        E 54 b4 04 0f
        E 54 b4 04 10
        E 54 b4 04 12
        E 54 b4 04 13
        E 54 b4 04 14
        E 54 b4 04 15
        E 54 b4 04 16
        E 54 b4 04 18
        E 54 b4 04 19
        E 30 b4 04 2c
        E 30 b4 04 2e
        E 30 b4 04 31
        E 30 b4 04 33
        E 30 b4 04 35
        E 30 b4 04 37
        E 30 b4 04 39
        E 30 b4 04 3b
        E 30 b4 04 3d
        E 30 b4 04 3f
        E 30 b4 04 41
        E 30 b4 04 43
        E 30 b4 04 45
        E 30 b4 04 47
        E 30 b4 04 48
        E 30 b4 04 4a
        E 30 b4 04 4c
        E 30 b4 04 4d
        E 30 b4 04 4f
        E 30 b4 04 50
        E 30 b4 04 51
        E 30 b4 04 52
        E 30 b4 04 54
        E 30 b4 04 54
        E 30 b4 04 55
        E 30 b4 04 56
        E 30 b4 04 56
        E 30 b4 04 57
        E 30 b4 04 58
        E 30 b4 04 58
        E 30 b4 04 58
        E 30 b4 04 58
        E 30 b4 04 58
        E 30 b4 04 58
        E 30 b4 04 58
        E 30 b4 04 58
        E 30 b4 04 58
        E 30 b4 04 57
        E 30 b4 04 56
        E 30 b4 04 56
        E 30 b4 04 55
        E 30 b4 04 54
        E 30 b4 04 53
        E 30 b4 04 51
        E 30 b4 04 51
        E 30 b4 04 4f
        E 30 b4 04 4e
        E 30 b4 04 4d
        E 30 b4 04 4b
        E 30 b4 04 49
        E 30 b4 04 48
        E 30 b4 04 46
        E 30 b4 04 44
        E 30 b4 04 42
        E 30 b4 04 40
        E 30 b4 04 3e
        E 30 b4 04 3c
        E 30 b4 04 3a
        E 30 b4 04 38
        E 30 b4 04 36
        E 30 b4 04 33
        E 30 b4 04 31
        E 30 b4 04 2f
        E 30 b4 04 2d
        E 30 b4 04 2b
        E 30 b4 04 29
        E 30 b4 04 27
        E 30 b4 04 25
        E 30 b4 04 22
        E 30 b4 04 20
        E 30 b4 04 1e
        E 30 b4 04 1c
        E 30 b4 04 1a
        E 30 b4 04 18
        E 30 b4 04 16
        E 30 b4 04 14
        E 30 b4 04 12
        E 30 b4 04 10
        E 30 b4 04 0f
        E 30 b4 04 0d
        E 30 b4 04 0b
        E 30 b4 04 0a
        E 30 b4 04 09
        E 30 b4 04 07
        E 30 b4 04 07
        E 30 b4 04 05
        E 30 b4 04 04
        E 30 b4 04 03
        E 30 b4 04 02
        E 30 b4 04 02
        E 30 b4 04 01
        E 30 b4 04 00
        E 30 b4 04 00
        E 30 b4 04 00
        E 30 b4 04 00
        E 30 b4 04 00
        E 30 b4 04 00
        E 30 b4 04 00
        E 30 b4 04 00
        E 30 b4 04 00
        E 30 b4 04 01
        E 30 b4 04 02
        E 30 b4 04 02
        E 30 b4 04 03
        E 30 b4 04 04
        E 30 b4 04 04
        E 30 b4 04 06
        E 30 b4 04 07
        E 30 b4 04 08
        E 30 b4 04 09
        E 30 b4 04 0b
        E 30 b4 04 0c
        E 30 b4 04 0e
        E 30 b4 04 10
        E 30 b4 04 11
        E 30 b4 04 13
        E 30 b4 04 15
        E 30 b4 04 17
        E 30 b4 04 19
        E 30 b4 04 1b
        E 30 b4 04 1d
        E 30 b4 04 1f
        E 30 b4 04 21
        E 30 b4 04 23
        E 30 b4 04 25
        E 30 b4 04 27
        E 30 b4 04 2a
        E 30 b4 04 2c
        E 30 b4 04 20
        E 30 b4 04 21
        E 30 b4 04 23
        E 30 b4 04 24
        E 30 b4 04 26
        E 30 b4 04 27
        E 30 b4 04 29
        E 30 b4 04 2a
        E 30 b4 04 2c
        E 30 b4 04 2d
        E 30 b4 04 2f
        E 30 b4 04 30
        E 30 b4 04 31
        E 30 b4 04 33
        E 30 b4 04 34
        E 30 b4 04 35
        E 30 b4 04 36
        E 30 b4 04 37
        E 30 b4 04 38
        E 30 b4 04 39
        E 30 b4 04 3a
        E 30 b4 04 3b
        E 30 b4 04 3c
        E 30 b4 04 3c
        E 30 b4 04 3d
        E 30 b4 04 3d
        E 30 b4 04 3e
        E 30 b4 04 3e
        E 30 b4 04 3f
        E 30 b4 04 3f
        E 30 b4 04 3f
        E 30 b4 04 3f
        E 30 b4 04 3f
        E 30 b4 04 3f
        E 30 b4 04 3f
        E 30 b4 04 3f
        E 30 b4 04 3f
        E 30 b4 04 3e
        E 30 b4 04 3e
        E 30 b4 04 3d
        E 30 b4 04 3d
        E 30 b4 04 3c
        E 30 b4 04 3b
        E 30 b4 04 3a
        E 30 b4 04 3a
        E 30 b4 04 39
        E 30 b4 04 38
        E 30 b4 04 37
        E 30 b4 04 36
        E 30 b4 04 34
        E 30 b4 04 33
        E 30 b4 04 32
        E 30 b4 04 31
        E 30 b4 04 2f
        E 30 b4 04 2e
        E 30 b4 04 2c
        E 30 b4 04 2b
        E 30 b4 04 2a
        E 30 b4 04 28
        E 30 b4 04 27
        E 30 b4 04 25
        E 30 b4 04 23
        E 30 b4 04 22
        E 30 b4 04 20
        E 30 b4 04 1f
        E 30 b4 04 1d
        E 30 b4 04 1c
        E 30 b4 04 1a
        E 30 b4 04 18
        E 30 b4 04 17
        E 30 b4 04 15
        E 30 b4 04 14
        E 30 b4 04 13
        E 30 b4 04 11
        E 30 b4 04 10
        E 30 b4 04 0e
        E 30 b4 04 0d
        E 30 b4 04 0c
        E 30 b4 04 0b
        E 30 b4 04 09
        E 30 b4 04 08
        E 30 b4 04 07
        E 30 b4 04 06
        E 30 b4 04 05
        E 30 b4 04 05
        E 30 b4 04 04
        E 30 b4 04 03
        E 30 b4 04 02
        E 30 b4 04 02
        E 30 b4 04 01
        E 30 b4 04 01
        E 30 b4 04 00
        E 30 b4 04 00
        E 30 b4 04 00
        E 30 b4 04 00
        E 30 b4 04 00
        E 30 b4 04 00
        E 30 b4 04 00
        E 30 b4 04 00
        E 30 b4 04 00
        E 30 b4 04 01
        E 30 b4 04 01
        E 30 b4 04 02
        E 30 b4 04 02
        E 30 b4 04 03
        E 30 b4 04 03
        E 30 b4 04 04
        E 30 b4 04 05
        E 30 b4 04 06
        E 30 b4 04 07
        E 30 b4 04 08
        E 30 b4 04 09
        E 30 b4 04 0a
        E 30 b4 04 0b
        E 30 b4 04 0c
        E 30 b4 04 0e
        E 30 b4 04 0f
        E 30 b4 04 10
        E 30 b4 04 12
        E 30 b4 04 13
        E 30 b4 04 15
        E 30 b4 04 16
        E 30 b4 04 18
        E 30 b4 04 19
        E 30 b4 04 1b
        E 30 b4 04 1c
        E 30 b4 04 1e
        E 30 b4 04 20
        E 42 b4 04 20
        E 42 b4 04 21
        E 42 b4 04 23
        E 42 b4 04 24
        E 42 b4 04 26
        E 42 b4 04 27
        E 42 b4 04 29
        E 42 b4 04 2a
        E 42 b4 04 2c
        E 42 b4 04 2d
        E 42 b4 04 2f
        E 42 b4 04 30
        E 42 b4 04 31
        E 42 b4 04 33
        E 42 b4 04 34
        E 42 b4 04 35
        E 42 b4 04 36
        E 42 b4 04 37
        E 42 b4 04 38
        E 42 b4 04 39
        E 42 b4 04 3a
        E 42 b4 04 3b
        E 42 b4 04 3c
        E 42 b4 04 3c
        E 42 b4 04 3d
        E 42 b4 04 3d
        E 42 b4 04 3e
        E 42 b4 04 3e
        E 42 b4 04 3f
        E 42 b4 04 3f
        E 42 b4 04 3f
        E 42 b4 04 3f
        E 42 b4 04 3f
        E 42 b4 04 3f
        E 42 b4 04 3f
        E 42 b4 04 3f
        E 42 b4 04 3f
        E 42 b4 04 3e
        E 42 b4 04 3e
        E 42 b4 04 3d
        E 42 b4 04 3d
        E 42 b4 04 3c
        E 42 b4 04 3b
        E 42 b4 04 3a
        E 42 b4 04 3a
        E 42 b4 04 39
        E 42 b4 04 38
        E 42 b4 04 37
        E 42 b4 04 36
        E 42 b4 04 34
        E 42 b4 04 33
        E 42 b4 04 32
        E 42 b4 04 31
        E 42 b4 04 2f
        E 42 b4 04 2e
        E 42 b4 04 2c
        E 42 b4 04 2b
        E 42 b4 04 2a
        E 42 b4 04 28
        E 42 b4 04 27
        E 42 b4 04 25
        E 42 b4 04 23
        E 42 b4 04 22
        E 42 b4 04 20
        E 42 b4 04 1f
        E 42 b4 04 1d
        E 42 b4 04 1c
        E 42 b4 04 1a
        E 42 b4 04 18
        E 42 b4 04 17
        E 42 b4 04 15
        E 42 b4 04 14
        E 42 b4 04 13
        E 42 b4 04 11
        E 42 b4 04 10
        E 42 b4 04 0e
        E 42 b4 04 0d
        E 42 b4 04 0c
        E 42 b4 04 0b
        E 42 b4 04 09
        E 42 b4 04 08
        E 42 b4 04 07
        E 42 b4 04 06
        E 42 b4 04 05
        E 42 b4 04 05
        E 42 b4 04 04
        E 42 b4 04 03
        E 42 b4 04 02
        E 42 b4 04 02
        E 42 b4 04 01
        E 42 b4 04 01
        E 42 b4 04 00
        E 42 b4 04 00
        E 42 b4 04 00
        E 42 b4 04 00
        E 42 b4 04 00
        E 42 b4 04 00
        E 42 b4 04 00
        E 42 b4 04 00
        E 42 b4 04 00
        E 42 b4 04 01
        E 42 b4 04 01
        E 42 b4 04 02
        E 42 b4 04 02
        E 42 b4 04 03
        E 42 b4 04 03
        E 42 b4 04 04
        E 42 b4 04 05
        E 42 b4 04 06
        E 42 b4 04 07
        E 42 b4 04 08
        E 42 b4 04 09
        E 42 b4 04 0a
        E 42 b4 04 0b
        E 42 b4 04 0c
        E 42 b4 04 0e
        E 42 b4 04 0f
        E 42 b4 04 10
        E 42 b4 04 12
        E 42 b4 04 13
        E 42 b4 04 15
        E 42 b4 04 16
        E 42 b4 04 18
        E 42 b4 04 19
        E 42 b4 04 1b
        E 42 b4 04 1c
        E 42 b4 04 1e
        E 42 b4 04 20
        E 48 b4 04 40
        E 48 b4 04 43
        E 48 b4 04 46
        E 48 b4 04 49
        E 48 b4 04 4c
        E 48 b4 04 4f
        E 48 b4 04 52
        E 48 b4 04 55
        E 48 b4 04 58
        E 48 b4 04 5b
        E 48 b4 04 5e
        E 48 b4 04 60
        E 48 b4 04 63
        E 48 b4 04 66
        E 48 b4 04 68
        E 48 b4 04 6a
        E 48 b4 04 6d
        E 48 b4 04 6f
        E 48 b4 04 71
        E 48 b4 04 73
        E 48 b4 04 75
        E 48 b4 04 76
        E 48 b4 04 78
        E 48 b4 04 79
        E 48 b4 04 7a
        E 48 b4 04 7b
        E 48 b4 04 7c
        E 48 b4 04 7d
        E 48 b4 04 7e
        E 48 b4 04 7e
        E 48 b4 04 7f
        E 48 b4 04 7f
        E 48 b4 04 7f
        E 48 b4 04 7f
        E 48 b4 04 7f
        E 48 b4 04 7e
        E 48 b4 04 7e
        E 48 b4 04 7d
        E 48 b4 04 7c
        E 48 b4 04 7b
        E 48 b4 04 7a
        E 48 b4 04 78
        E 48 b4 04 77
        E 48 b4 04 75
        E 48 b4 04 74
        E 48 b4 04 72
        E 48 b4 04 70
        E 48 b4 04 6e
        E 48 b4 04 6c
        E 48 b4 04 69
        E 48 b4 04 67
        E 48 b4 04 64
        E 48 b4 04 62
        E 48 b4 04 5f
        E 48 b4 04 5c
        E 48 b4 04 59
        E 48 b4 04 57
        E 48 b4 04 54
        E 48 b4 04 51
        E 48 b4 04 4e
        E 48 b4 04 4a
        E 48 b4 04 47
        E 48 b4 04 44
        E 48 b4 04 41
        E 48 b4 04 3e
        E 48 b4 04 3b
        E 48 b4 04 38
        E 48 b4 04 35
        E 48 b4 04 31
        E 48 b4 04 2e
        E 48 b4 04 2b
        E 48 b4 04 28
        E 48 b4 04 26
        E 48 b4 04 23
        E 48 b4 04 20
        E 48 b4 04 1d
        E 48 b4 04 1b
        E 48 b4 04 18
        E 48 b4 04 16
        E 48 b4 04 13
        E 48 b4 04 11
        E 48 b4 04 0f
        E 48 b4 04 0d
        E 48 b4 04 0b
        E 48 b4 04 0a
        E 48 b4 04 08
        E 48 b4 04 07
        E 48 b4 04 05
        E 48 b4 04 04
        E 48 b4 04 03
        E 48 b4 04 02
        E 48 b4 04 01
        E 48 b4 04 01
        E 48 b4 04 00
        E 48 b4 04 00
        E 48 b4 04 00
        E 48 b4 04 00
        E 48 b4 04 00
        E 48 b4 04 01
        E 48 b4 04 01
        E 48 b4 04 02
        E 48 b4 04 03
        E 48 b4 04 04
        E 48 b4 04 05
        E 48 b4 04 06
        E 48 b4 04 07
        E 48 b4 04 09
        E 48 b4 04 0a
        E 48 b4 04 0c
        E 48 b4 04 0e
        E 48 b4 04 10
        E 48 b4 04 12
        E 48 b4 04 15
        E 48 b4 04 17
        E 48 b4 04 19
        E 48 b4 04 1c
        E 48 b4 04 1f
        E 48 b4 04 21
        E 48 b4 04 24
        E 48 b4 04 27
        E 48 b4 04 2a
        E 48 b4 04 2d
        E 48 b4 04 30
        E 48 b4 04 33
        E 48 b4 04 36
        E 48 b4 04 39
        E 48 b4 04 3c
        E 48 b4 04 40
        E 6 b4 04 39
        E 6 b4 04 3c
        E 6 b4 04 3f
        E 6 b4 04 41
        E 6 b4 04 44
        E 6 b4 04 47
        E 6 b4 04 49
        E 6 b4 04 4c
        E 6 b4 04 4f
        E 6 b4 04 51
        E 6 b4 04 54
        E 6 b4 04 56
        E 6 b4 04 59
        E 6 b4 04 5b
        E 6 b4 04 5d
        E 6 b4 04 5f
        E 6 b4 04 62
        E 6 b4 04 63
        E 6 b4 04 65
        E 6 b4 04 67
        E 6 b4 04 69
        E 6 b4 04 6a
        E 6 b4 04 6c
        E 6 b4 04 6c
        E 6 b4 04 6d
        E 6 b4 04 6e
        E 6 b4 04 6f
        E 6 b4 04 70
        E 6 b4 04 71
        E 6 b4 04 71
        E 6 b4 04 72
        E 6 b4 04 72
        E 6 b4 04 72
        E 6 b4 04 72
        E 6 b4 04 72
        E 6 b4 04 71
        E 6 b4 04 71
        E 6 b4 04 70
        E 6 b4 04 6f
        E 6 b4 04 6e
        E 6 b4 04 6d
        E 6 b4 04 6c
        E 6 b4 04 6b
        E 6 b4 04 69
        E 6 b4 04 68
        E 6 b4 04 66
        E 6 b4 04 64
        E 6 b4 04 63
        E 6 b4 04 61
        E 6 b4 04 5e
        E 6 b4 04 5c
        E 6 b4 04 5a
        E 6 b4 04 58
        E 6 b4 04 55
        E 6 b4 04 52
        E 6 b4 04 50
        E 6 b4 04 4e
        E 6 b4 04 4b
        E 6 b4 04 48
        E 6 b4 04 46
        E 6 b4 04 42
        E 6 b4 04 3f
        E 6 b4 04 3d
        E 6 b4 04 3a
        E 6 b4 04 37
        E 6 b4 04 35
        E 6 b4 04 32
        E 6 b4 04 2f
        E 6 b4 04 2c
        E 6 b4 04 29
        E 6 b4 04 26
        E 6 b4 04 24
        E 6 b4 04 22
        E 6 b4 04 1f
        E 6 b4 04 1c
        E 6 b4 04 1a
        E 6 b4 04 18
        E 6 b4 04 15
        E 6 b4 04 13
        E 6 b4 04 11
        E 6 b4 04 0f
        E 6 b4 04 0d
        E 6 b4 04 0b
        E 6 b4 04 09
        E 6 b4 04 09
        E 6 b4 04 07
        E 6 b4 04 06
        E 6 b4 04 04
        E 6 b4 04 03
        E 6 b4 04 02
        E 6 b4 04 01
        E 6 b4 04 00
        E 6 b4 04 00
        E 6 b4 04 00
        E 6 b4 04 00
        E 6 b4 04 00
        E 6 b4 04 00
        E 6 b4 04 00
        E 6 b4 04 00
        E 6 b4 04 00
        E 6 b4 04 01
        E 6 b4 04 02
        E 6 b4 04 03
        E 6 b4 04 04
        E 6 b4 04 05
        E 6 b4 04 06
        E 6 b4 04 08
        E 6 b4 04 09
        E 6 b4 04 0a
        E 6 b4 04 0c
        E 6 b4 04 0e
        E 6 b4 04 10
        E 6 b4 04 12
        E 6 b4 04 14
        E 6 b4 04 16
        E 6 b4 04 19
        E 6 b4 04 1b
        E 6 b4 04 1d
        E 6 b4 04 20
        E 6 b4 04 23
        E 6 b4 04 25
        E 6 b4 04 28
        E 6 b4 04 2b
        E 6 b4 04 2d
        E 6 b4 04 30
        E 6 b4 04 33
        E 6 b4 04 36
        E 6 b4 04 39
        E 24 b4 04 40
        E 24 b4 04 43
        E 24 b4 04 46
        E 24 b4 04 49
        E 24 b4 04 4c
        E 24 b4 04 4f
        E 24 b4 04 52
        E 24 b4 04 55
        E 24 b4 04 58
        E 24 b4 04 5b
        E 24 b4 04 5e
        E 24 b4 04 60
        E 24 b4 04 63
        E 24 b4 04 66
        E 24 b4 04 68
        E 24 b4 04 6a
        E 24 b4 04 6d
        E 24 b4 04 6f
        E 24 b4 04 71
        E 24 b4 04 73
        E 24 b4 04 75
        E 24 b4 04 76
        E 24 b4 04 78
        E 24 b4 04 79
        E 24 b4 04 7a
        E 24 b4 04 7b
        E 24 b4 04 7c
        E 24 b4 04 7d
        E 24 b4 04 7e
        E 24 b4 04 7e
        E 24 b4 04 7f
        E 24 b4 04 7f
        E 24 b4 04 7f
        E 24 b4 04 7f
        E 24 b4 04 7f
        E 24 b4 04 7e
        E 24 b4 04 7e
        E 24 b4 04 7d
        E 24 b4 04 7c
        E 24 b4 04 7b
        E 24 b4 04 7a
        E 24 b4 04 78
        E 24 b4 04 77
        E 24 b4 04 75
        E 24 b4 04 74
        E 24 b4 04 72
        E 24 b4 04 70
        E 24 b4 04 6e
        E 24 b4 04 6c
        E 24 b4 04 69
        E 24 b4 04 67
        E 24 b4 04 64
        E 24 b4 04 62
        E 24 b4 04 5f
        E 24 b4 04 5c
        E 24 b4 04 59
        E 24 b4 04 57
        E 24 b4 04 54
        E 24 b4 04 51
        E 24 b4 04 4e
        E 24 b4 04 4a
        E 24 b4 04 47
        E 24 b4 04 44
        E 24 b4 04 41
        E 24 b4 04 3e
        E 24 b4 04 3b
        E 24 b4 04 38
        E 24 b4 04 35
        E 24 b4 04 31
        E 24 b4 04 2e
        E 24 b4 04 2b
        E 24 b4 04 28
        E 24 b4 04 26
        E 24 b4 04 23
        E 24 b4 04 20
        E 24 b4 04 1d
        E 24 b4 04 1b
        E 24 b4 04 18
        E 24 b4 04 16
        E 24 b4 04 13
        E 24 b4 04 11
        E 24 b4 04 0f
        E 24 b4 04 0d
        E 24 b4 04 0b
        E 24 b4 04 0a
        E 24 b4 04 08
        E 24 b4 04 07
        E 24 b4 04 05
        E 24 b4 04 04
        E 24 b4 04 03
        E 24 b4 04 02
        E 24 b4 04 01
        E 24 b4 04 01
        E 24 b4 04 00
        E 24 b4 04 00
        E 24 b4 04 00
        E 24 b4 04 00
        E 24 b4 04 00
        E 24 b4 04 01
        E 24 b4 04 01
        E 24 b4 04 02
        E 24 b4 04 03
        E 24 b4 04 04
        E 24 b4 04 05
        E 24 b4 04 06
        E 24 b4 04 07
        E 24 b4 04 09
        E 24 b4 04 0a
        E 24 b4 04 0c
        E 24 b4 04 0e
        E 24 b4 04 10
        E 24 b4 04 12
        E 24 b4 04 15
        E 24 b4 04 17
        E 24 b4 04 19
        E 24 b4 04 1c
        E 24 b4 04 1f
        E 24 b4 04 21
        E 24 b4 04 24
        E 24 b4 04 27
        E 24 b4 04 2a
        E 24 b4 04 2d
        E 24 b4 04 30
        E 24 b4 04 33
        E 24 b4 04 36
        E 24 b4 04 39
        E 24 b4 04 3c
        E 24 b4 04 40
        E 30 b4 04 20
        E 30 b4 04 21
        E 30 b4 04 23
        E 30 b4 04 24
        E 30 b4 04 26
        E 30 b4 04 27
        E 30 b4 04 29
        E 30 b4 04 2a
        E 30 b4 04 2c
        E 30 b4 04 2d
        E 30 b4 04 2f
        E 30 b4 04 30
        E 30 b4 04 31
        E 30 b4 04 33
        E 30 b4 04 34
        E 30 b4 04 35
        E 30 b4 04 36
        E 30 b4 04 37
        E 30 b4 04 38
        E 30 b4 04 39
        E 30 b4 04 3a
        E 30 b4 04 3b
        E 30 b4 04 3c
        E 30 b4 04 3c
        E 30 b4 04 3d
        E 30 b4 04 3d
        E 30 b4 04 3e
        E 30 b4 04 3e
        E 30 b4 04 3f
        E 30 b4 04 3f
        E 30 b4 04 3f
        E 30 b4 04 3f
        E 30 b4 04 3f
        E 30 b4 04 3f
        E 30 b4 04 3f
        E 30 b4 04 3f
        E 30 b4 04 3f
        E 30 b4 04 3e
        E 30 b4 04 3e
        E 30 b4 04 3d
        E 30 b4 04 3d
        E 30 b4 04 3c
        E 30 b4 04 3b
        E 30 b4 04 3a
        E 30 b4 04 3a
        E 30 b4 04 39
        E 30 b4 04 38
        E 30 b4 04 37
        E 30 b4 04 36
        E 30 b4 04 34
        E 30 b4 04 33
        E 30 b4 04 32
        E 30 b4 04 31
        E 30 b4 04 2f
        E 30 b4 04 2e
        E 30 b4 04 2c
        E 30 b4 04 2b
        E 30 b4 04 2a
        E 30 b4 04 28
        E 30 b4 04 27
        E 30 b4 04 25
        E 30 b4 04 23
        E 30 b4 04 22
        E 30 b4 04 20
        E 30 b4 04 1f
        E 30 b4 04 1d
        E 30 b4 04 1c
        E 30 b4 04 1a
        E 30 b4 04 18
        E 30 b4 04 17
        E 30 b4 04 15
        E 30 b4 04 14
        E 30 b4 04 13
        E 30 b4 04 11
        E 30 b4 04 10
        E 30 b4 04 0e
        E 30 b4 04 0d
        E 30 b4 04 0c
        E 30 b4 04 0b
        E 30 b4 04 09
        E 30 b4 04 08
        E 30 b4 04 07
        E 30 b4 04 06
        E 30 b4 04 05
        E 30 b4 04 05
        E 30 b4 04 04
        E 30 b4 04 03
        E 30 b4 04 02
        E 30 b4 04 02
        E 30 b4 04 01
        E 30 b4 04 01
        E 30 b4 04 00
        E 30 b4 04 00
        E 30 b4 04 00
        E 30 b4 04 00
        E 30 b4 04 00
        E 30 b4 04 00
        E 30 b4 04 00
        E 30 b4 04 00
        E 30 b4 04 00
        E 30 b4 04 01
        E 30 b4 04 01
        E 30 b4 04 02
        E 30 b4 04 02
        E 30 b4 04 03
        E 30 b4 04 03
        E 30 b4 04 04
        E 30 b4 04 05
        E 30 b4 04 06
        E 30 b4 04 07
        E 30 b4 04 08
        E 30 b4 04 09
        E 30 b4 04 0a
        E 30 b4 04 0b
        E 30 b4 04 0c
        E 30 b4 04 0e
        E 30 b4 04 0f
        E 30 b4 04 10
        E 30 b4 04 12
        E 30 b4 04 13
        E 30 b4 04 15
        E 30 b4 04 16
        E 30 b4 04 18
        E 30 b4 04 19
        E 30 b4 04 1b
        E 30 b4 04 1c
        E 30 b4 04 1e
        E 30 b4 04 20
        E 61 b4 04 2c
        E 61 b4 04 2e
        E 61 b4 04 31
        E 61 b4 04 33
        E 61 b4 04 35
        E 61 b4 04 37
        E 61 b4 04 39
        E 61 b4 04 3b
        E 61 b4 04 3d
        E 61 b4 04 3f
        E 61 b4 04 41
        E 61 b4 04 43
        E 61 b4 04 45
        E 61 b4 04 47
        E 61 b4 04 48
        E 61 b4 04 4a
        E 61 b4 04 4c
        E 61 b4 04 4d
        E 61 b4 04 4f
        E 61 b4 04 50
        E 61 b4 04 51
        E 61 b4 04 52
        E 61 b4 04 54
        E 61 b4 04 54
        E 61 b4 04 55
        E 61 b4 04 56
        E 61 b4 04 56
        E 61 b4 04 57
        E 61 b4 04 58
        E 61 b4 04 58
        E 61 b4 04 58
        E 61 b4 04 58
        E 61 b4 04 58
        E 61 b4 04 58
        E 61 b4 04 58
        E 61 b4 04 58
        E 61 b4 04 58
        E 61 b4 04 57
        E 61 b4 04 56
        E 61 b4 04 56
        E 61 b4 04 55
        E 61 b4 04 54
        E 61 b4 04 53
        E 61 b4 04 51
        E 61 b4 04 51
        E 61 b4 04 4f
        E 61 b4 04 4e
        E 61 b4 04 4d
        E 61 b4 04 4b
        E 61 b4 04 49
        E 61 b4 04 48
        E 61 b4 04 46
        E 61 b4 04 44
        E 61 b4 04 42
        E 61 b4 04 40
        E 61 b4 04 3e
        E 61 b4 04 3c
        E 61 b4 04 3a
        E 61 b4 04 38
        E 61 b4 04 36
        E 61 b4 04 33
        E 61 b4 04 31
        E 61 b4 04 2f
        E 61 b4 04 2d
        E 61 b4 04 2b
        E 61 b4 04 29
        E 61 b4 04 27
        E 61 b4 04 25
        E 61 b4 04 22
        E 61 b4 04 20
        E 61 b4 04 1e
        E 61 b4 04 1c
        E 61 b4 04 1a
        E 61 b4 04 18
        E 61 b4 04 16
        E 61 b4 04 14
        E 61 b4 04 12
        E 61 b4 04 10
        E 61 b4 04 0f
        E 61 b4 04 0d
        E 61 b4 04 0b
        E 61 b4 04 0a
        E 61 b4 04 09
        E 61 b4 04 07
        E 61 b4 04 07
        E 61 b4 04 05
        E 61 b4 04 04
        E 61 b4 04 03
        E 61 b4 04 02
        E 61 b4 04 02
        E 61 b4 04 01
        E 61 b4 04 00
        E 61 b4 04 00
        E 61 b4 04 00
        E 61 b4 04 00
        E 61 b4 04 00
        E 61 b4 04 00
        E 61 b4 04 00
        E 61 b4 04 00
        E 61 b4 04 00
        E 61 b4 04 01
        E 61 b4 04 02
        E 61 b4 04 02
        E 61 b4 04 03
        E 61 b4 04 04
        E 61 b4 04 04
        E 61 b4 04 06
        E 61 b4 04 07
        E 61 b4 04 08
        E 61 b4 04 09
        E 61 b4 04 0b
        E 61 b4 04 0c
        E 61 b4 04 0e
        E 61 b4 04 10
        E 61 b4 04 11
        E 61 b4 04 13
        E 61 b4 04 15
        E 61 b4 04 17
        E 61 b4 04 19
        E 61 b4 04 1b
        E 61 b4 04 1d
        E 61 b4 04 1f
        E 61 b4 04 21
        E 61 b4 04 23
        E 61 b4 04 25
        E 61 b4 04 27
        E 61 b4 04 2a
        E 61 b4 04 2c
        E 54 b4 04 33
        E 54 b4 04 35
        E 54 b4 04 37
        E 54 b4 04 3a
        E 54 b4 04 3c
        E 54 b4 04 3f
        E 54 b4 04 41
        E 54 b4 04 44
        E 54 b4 04 46
        E 54 b4 04 48
        E 54 b4 04 4b
        E 54 b4 04 4c
        E 54 b4 04 4f
        E 54 b4 04 51
        E 54 b4 04 53
        E 54 b4 04 54
        E 54 b4 04 57
        E 54 b4 04 58
        E 54 b4 04 5a
        E 54 b4 04 5b
        E 54 b4 04 5d
        E 54 b4 04 5e
        E 54 b4 04 5f
        E 54 b4 04 60
        E 54 b4 04 61
        E 54 b4 04 62
        E 54 b4 04 63
        E 54 b4 04 63
        E 54 b4 04 64
        E 54 b4 04 64
        E 54 b4 04 65
        E 54 b4 04 65
        E 54 b4 04 65
        E 54 b4 04 65
        E 54 b4 04 65
        E 54 b4 04 64
        E 54 b4 04 64
        E 54 b4 04 63
        E 54 b4 04 63
        E 54 b4 04 62
        E 54 b4 04 61
        E 54 b4 04 5f
        E 54 b4 04 5f
        E 54 b4 04 5d
        E 54 b4 04 5c
        E 54 b4 04 5b
        E 54 b4 04 59
        E 54 b4 04 57
        E 54 b4 04 56
        E 54 b4 04 54
        E 54 b4 04 52
        E 54 b4 04 50
        E 54 b4 04 4e
        E 54 b4 04 4c
        E 54 b4 04 49
        E 54 b4 04 47
        E 54 b4 04 45
        E 54 b4 04 43
        E 54 b4 04 40
        E 54 b4 04 3e
        E 54 b4 04 3b
        E 54 b4 04 38
        E 54 b4 04 36
        E 54 b4 04 33
        E 54 b4 04 31
        E 54 b4 04 2f
        E 54 b4 04 2c
        E 54 b4 04 2a
        E 54 b4 04 27
        E 54 b4 04 24
        E 54 b4 04 22
        E 54 b4 04 1f
        E 54 b4 04 1e
        E 54 b4 04 1b
        E 54 b4 04 19
        E 54 b4 04 17
        E 54 b4 04 15
        E 54 b4 04 13
        E 54 b4 04 11
        E 54 b4 04 0f
        E 54 b4 04 0d
        E 54 b4 04 0b
        E 54 b4 04 0a
        E 54 b4 04 08
        E 54 b4 04 07
        E 54 b4 04 06
        E 54 b4 04 05
        E 54 b4 04 03
        E 54 b4 04 03
        E 54 b4 04 02
        E 54 b4 04 01
        E 54 b4 04 00
        E 54 b4 04 00
        E 54 b4 04 00
        E 54 b4 04 00
        E 54 b4 04 00
        E 54 b4 04 00
        E 54 b4 04 00
        E 54 b4 04 00
        E 54 b4 04 00
        E 54 b4 04 01
        E 54 b4 04 02
        E 54 b4 04 03
        E 54 b4 04 03
        E 54 b4 04 04
        E 54 b4 04 05
        E 54 b4 04 07
        E 54 b4 04 07
        E 54 b4 04 09
        E 54 b4 04 0b
        E 54 b4 04 0c
        E 54 b4 04 0e
        E 54 b4 04 10
        E 54 b4 04 12
        E 54 b4 04 14
        E 54 b4 04 16
        E 54 b4 04 18
        E 54 b4 04 1a
        E 54 b4 04 1c
        E 54 b4 04 1f
        E 54 b4 04 21
        E 54 b4 04 24
        E 54 b4 04 26
        E 54 b4 04 28
        E 54 b4 04 2b
        E 54 b4 04 2d
        E 54 b4 04 2f
        E 54 b4 04 33
        E 61 b4 04 06
        E 61 b4 04 06
        E 61 b4 04 07
        E 61 b4 04 07
        E 61 b4 04 07
        E 61 b4 04 07
        E 61 b4 04 08
        E 61 b4 04 08
        E 61 b4 04 08
        E 61 b4 04 09
        E 61 b4 04 09
        E 61 b4 04 09
        E 61 b4 04 09
        E 61 b4 04 0a
        E 61 b4 04 0a
        E 61 b4 04 0a
        E 61 b4 04 0a
        E 61 b4 04 0b
        E 61 b4 04 0b
        E 61 b4 04 0b
        E 61 b4 04 0b
        E 61 b4 04 0b
        E 61 b4 04 0c
        E 61 b4 04 0c
        E 61 b4 04 0c
        E 61 b4 04 0c
        E 61 b4 04 0c
        E 61 b4 04 0c
        E 61 b4 04 0c
        E 61 b4 04 0c
        E 61 b4 04 0c
        E 61 b4 04 0c
        E 61 b4 04 0c
        E 61 b4 04 0c
        E 61 b4 04 0c
        E 61 b4 04 0c
        E 61 b4 04 0c
        E 61 b4 04 0c
        E 61 b4 04 0c
        E 61 b4 04 0c
        E 61 b4 04 0c
        E 61 b4 04 0c
        E 61 b4 04 0b
        E 61 b4 04 0b
        E 61 b4 04 0b
        E 61 b4 04 0b
        E 61 b4 04 0b
        E 61 b4 04 0b
        E 61 b4 04 0a
        E 61 b4 04 0a
        E 61 b4 04 0a
        E 61 b4 04 0a
        E 61 b4 04 09
        E 61 b4 04 09
        E 61 b4 04 09
        E 61 b4 04 08
        E 61 b4 04 08
        E 61 b4 04 08
        E 61 b4 04 08
        E 61 b4 04 07
        E 61 b4 04 07
        E 61 b4 04 07
        E 61 b4 04 06
        E 61 b4 04 06
        E 61 b4 04 06
        E 61 b4 04 05
        E 61 b4 04 05
        E 61 b4 04 05
        E 61 b4 04 04
        E 61 b4 04 04
        E 61 b4 04 04
        E 61 b4 04 04
        E 61 b4 04 03
        E 61 b4 04 03
        E 61 b4 04 03
        E 61 b4 04 02
        E 61 b4 04 02
        E 61 b4 04 02
        E 61 b4 04 02
        E 61 b4 04 01
        E 61 b4 04 01
        E 61 b4 04 01
        E 61 b4 04 01
        E 61 b4 04 01
        E 61 b4 04 01
        E 61 b4 04 00
        E 61 b4 04 00
        E 61 b4 04 00
        E 61 b4 04 00
        E 61 b4 04 00
        E 61 b4 04 00
        E 61 b4 04 00
        E 61 b4 04 00
        E 61 b4 04 00
        E 61 b4 04 00
        E 61 b4 04 00
        E 61 b4 04 00
        E 61 b4 04 00
        E 61 b4 04 00
        E 61 b4 04 00
        E 61 b4 04 00
        E 61 b4 04 00
        E 61 b4 04 00
        E 61 b4 04 00
        E 61 b4 04 00
        E 61 b4 04 00
        E 61 b4 04 00
        E 61 b4 04 01
        E 61 b4 04 01
        E 61 b4 04 01
        E 61 b4 04 01
        E 61 b4 04 01
        E 61 b4 04 02
        E 61 b4 04 02
        E 61 b4 04 02
        E 61 b4 04 02
        E 61 b4 04 03
        E 61 b4 04 03
        E 61 b4 04 03
        E 61 b4 04 03
        E 61 b4 04 04
        E 61 b4 04 04
        E 61 b4 04 04
        E 61 b4 04 05
        E 61 b4 04 05
        E 61 b4 04 05
        E 61 b4 04 06
        E 61 b4 04 06
        E 54 b4 04 19
        E 54 b4 04 1a
        E 54 b4 04 1c
        E 54 b4 04 1d
        E 54 b4 04 1e
        E 54 b4 04 1f
        E 54 b4 04 20
        E 54 b4 04 22
        E 54 b4 04 23
        E 54 b4 04 24
        E 54 b4 04 25
        E 54 b4 04 26
        E 54 b4 04 27
        E 54 b4 04 28
        E 54 b4 04 29
        E 54 b4 04 2a
        E 54 b4 04 2b
        E 54 b4 04 2c
        E 54 b4 04 2d
        E 54 b4 04 2e
        E 54 b4 04 2e
        E 54 b4 04 2f
        E 54 b4 04 30
        E 54 b4 04 30
        E 54 b4 04 30
        E 54 b4 04 31
        E 54 b4 04 31
        E 54 b4 04 32
        E 54 b4 04 32
        E 54 b4 04 32
        E 54 b4 04 32
        E 54 b4 04 32
        E 54 b4 04 32
        E 54 b4 04 32
        E 54 b4 04 32
        E 54 b4 04 32
        E 54 b4 04 32
        E 54 b4 04 32
        E 54 b4 04 31
        E 54 b4 04 31
        E 54 b4 04 30
        E 54 b4 04 30
        E 54 b4 04 2f
        E 54 b4 04 2e
        E 54 b4 04 2e
        E 54 b4 04 2d
        E 54 b4 04 2c
        E 54 b4 04 2c
        E 54 b4 04 2b
        E 54 b4 04 2a
        E 54 b4 04 29
        E 54 b4 04 28
        E 54 b4 04 27
        E 54 b4 04 26
        E 54 b4 04 24
        E 54 b4 04 23
        E 54 b4 04 22
        E 54 b4 04 21
        E 54 b4 04 20
        E 54 b4 04 1f
        E 54 b4 04 1d
        E 54 b4 04 1c
        E 54 b4 04 1b
        E 54 b4 04 1a
        E 54 b4 04 18
        E 54 b4 04 17
        E 54 b4 04 16
        E 54 b4 04 15
        E 54 b4 04 13
        E 54 b4 04 12
        E 54 b4 04 11
        E 54 b4 04 10
        E 54 b4 04 0f
        E 54 b4 04 0e
        E 54 b4 04 0c
        E 54 b4 04 0b
        E 54 b4 04 0a
        E 54 b4 04 09
        E 54 b4 04 08
        E 54 b4 04 07
        E 54 b4 04 06
        E 54 b4 04 06
        E 54 b4 04 05
        E 54 b4 04 04
        E 54 b4 04 04
        E 54 b4 04 03
        E 54 b4 04 02
        E 54 b4 04 02
        E 54 b4 04 01
        E 54 b4 04 01
        E 54 b4 04 00
        E 54 b4 04 00
        E 54 b4 04 00
        E 54 b4 04 00
        E 54 b4 04 00
        E 54 b4 04 00
        E 54 b4 04 00
        E 54 b4 04 00
        E 54 b4 04 00
        E 54 b4 04 00
        E 54 b4 04 00
        E 54 b4 04 01
        E 54 b4 04 01
        E 54 b4 04 02
        E 54 b4 04 02
        E 54 b4 04 02
        E 54 b4 04 03
        E 54 b4 04 04
        E 54 b4 04 04
        E 54 b4 04 05
        E 54 b4 04 06
        E 54 b4 04 07
        E 54 b4 04 08
        E 54 b4 04 09
        E 54 b4 04 0a
        E 54 b4 04 0b
        E 54 b4 04 0c
        E 54 b4 04 0d
        E 54 b4 04 0e
        E 54 b4 04 0f
        E 54 b4 04 10
        E 54 b4 04 12
        E 54 b4 04 13
        E 54 b4 04 14
        E 54 b4 04 15
        E 54 b4 04 16
        E 54 b4 04 18
        E 54 b4 04 19
        E 30 b4 04 2c
        E 30 b4 04 2e
        E 30 b4 04 31
        E 30 b4 04 33
        E 30 b4 04 35
        E 30 b4 04 37
        E 30 b4 04 39
        E 30 b4 04 3b
        E 30 b4 04 3d
        E 30 b4 04 3f
        E 30 b4 04 41
        E 30 b4 04 43
        E 30 b4 04 45
        E 30 b4 04 47
        E 30 b4 04 48
        E 30 b4 04 4a
        E 30 b4 04 4c
        E 30 b4 04 4d
        E 30 b4 04 4f
        E 30 b4 04 50
        E 30 b4 04 51
        E 30 b4 04 52
        E 30 b4 04 54
        E 30 b4 04 54
        E 30 b4 04 55
        E 30 b4 04 56
        E 30 b4 04 56
        E 30 b4 04 57
        E 30 b4 04 58
        E 30 b4 04 58
        E 30 b4 04 58
        E 30 b4 04 58
        E 30 b4 04 58
        E 30 b4 04 58
        E 30 b4 04 58
        E 30 b4 04 58
        E 30 b4 04 58
        E 30 b4 04 57
        E 30 b4 04 56
        E 30 b4 04 56
        E 30 b4 04 55
        E 30 b4 04 54
        E 30 b4 04 53
        E 30 b4 04 51
        E 30 b4 04 51
        E 30 b4 04 4f
        E 30 b4 04 4e
        E 30 b4 04 4d
        E 30 b4 04 4b
        E 30 b4 04 49
        E 30 b4 04 48
        E 30 b4 04 46
        E 30 b4 04 44
        E 30 b4 04 42
        E 30 b4 04 40
        E 30 b4 04 3e
        E 30 b4 04 3c
        E 30 b4 04 3a
        E 30 b4 04 38
        E 30 b4 04 36
        E 30 b4 04 33
        E 30 b4 04 31
        E 30 b4 04 2f
        E 30 b4 04 2d
        E 30 b4 04 2b
        E 30 b4 04 29
        E 30 b4 04 27
        E 30 b4 04 25
        E 30 b4 04 22
        E 30 b4 04 20
        E 30 b4 04 1e
        E 30 b4 04 1c
        E 30 b4 04 1a
        E 30 b4 04 18
        E 30 b4 04 16
        E 30 b4 04 14
        E 30 b4 04 12
        E 30 b4 04 10
        E 30 b4 04 0f
        E 30 b4 04 0d
        E 30 b4 04 0b
        E 30 b4 04 0a
        E 30 b4 04 09
        E 30 b4 04 07
        E 30 b4 04 07
        E 30 b4 04 05
        E 30 b4 04 04
        E 30 b4 04 03
        E 30 b4 04 02
        E 30 b4 04 02
        E 30 b4 04 01
        E 30 b4 04 00
        E 30 b4 04 00
        E 30 b4 04 00
        E 30 b4 04 00
        E 30 b4 04 00
        E 30 b4 04 00
        E 30 b4 04 00
        E 30 b4 04 00
        E 30 b4 04 00
        E 30 b4 04 01
        E 30 b4 04 02
        E 30 b4 04 02
        E 30 b4 04 03
        E 30 b4 04 04
        E 30 b4 04 04
        E 30 b4 04 06
        E 30 b4 04 07
        E 30 b4 04 08
        E 30 b4 04 09
        E 30 b4 04 0b
        E 30 b4 04 0c
        E 30 b4 04 0e
        E 30 b4 04 10
        E 30 b4 04 11
        E 30 b4 04 13
        E 30 b4 04 15
        E 30 b4 04 17
        E 30 b4 04 19
        E 30 b4 04 1b
        E 30 b4 04 1d
        E 30 b4 04 1f
        E 30 b4 04 21
        E 30 b4 04 23
        E 30 b4 04 25
        E 30 b4 04 27
        E 30 b4 04 2a
        E 30 b4 04 2c
        E 30 b4 04 20
        E 30 b4 04 21
        E 30 b4 04 23
        E 30 b4 04 24
        E 30 b4 04 26
        E 30 b4 04 27
        E 30 b4 04 29
        E 30 b4 04 2a
        E 30 b4 04 2c
        E 30 b4 04 2d
        E 30 b4 04 2f
        E 30 b4 04 30
        E 30 b4 04 31
        E 30 b4 04 33
        E 30 b4 04 34
        E 30 b4 04 35
        E 30 b4 04 36
        E 30 b4 04 37
        E 30 b4 04 38
        E 30 b4 04 39
        E 30 b4 04 3a
        E 30 b4 04 3b
        E 30 b4 04 3c
        E 30 b4 04 3c
        E 30 b4 04 3d
        E 30 b4 04 3d
        E 30 b4 04 3e
        E 30 b4 04 3e
        E 30 b4 04 3f
        E 30 b4 04 3f
        E 30 b4 04 3f
        E 30 b4 04 3f
        E 30 b4 04 3f
        E 30 b4 04 3f
        E 30 b4 04 3f
        E 30 b4 04 3f
        E 30 b4 04 3f
        E 30 b4 04 3e
        E 30 b4 04 3e
        E 30 b4 04 3d
        E 30 b4 04 3d
        E 30 b4 04 3c
        E 30 b4 04 3b
        E 30 b4 04 3a
        E 30 b4 04 3a
        E 30 b4 04 39
        E 30 b4 04 38
        E 30 b4 04 37
        E 30 b4 04 36
        E 30 b4 04 34
        E 30 b4 04 33
        E 30 b4 04 32
        E 30 b4 04 31
        E 30 b4 04 2f
        E 30 b4 04 2e
        E 30 b4 04 2c
        E 30 b4 04 2b
        E 30 b4 04 2a
        E 30 b4 04 28
        E 30 b4 04 27
        E 30 b4 04 25
        E 30 b4 04 23
        E 30 b4 04 22
        E 30 b4 04 20
        E 30 b4 04 1f
        E 30 b4 04 1d
        E 30 b4 04 1c
        E 30 b4 04 1a
        E 30 b4 04 18
        E 30 b4 04 17
        E 30 b4 04 15
        E 30 b4 04 14
        E 30 b4 04 13
        E 30 b4 04 11
        E 30 b4 04 10
        E 30 b4 04 0e
        E 30 b4 04 0d
        E 30 b4 04 0c
        E 30 b4 04 0b
        E 30 b4 04 09
        E 30 b4 04 08
        E 30 b4 04 07
        E 30 b4 04 06
        E 30 b4 04 05
        E 30 b4 04 05
        E 30 b4 04 04
        E 30 b4 04 03
        E 30 b4 04 02
        E 30 b4 04 02
        E 30 b4 04 01
        E 30 b4 04 01
        E 30 b4 04 00
        E 30 b4 04 00
        E 30 b4 04 00
        E 30 b4 04 00
        E 30 b4 04 00
        E 30 b4 04 00
        E 30 b4 04 00
        E 30 b4 04 00
        E 30 b4 04 00
        E 30 b4 04 01
        E 30 b4 04 01
        E 30 b4 04 02
        E 30 b4 04 02
        E 30 b4 04 03
        E 30 b4 04 03
        E 30 b4 04 04
        E 30 b4 04 05
        E 30 b4 04 06
        E 30 b4 04 07
        E 30 b4 04 08
        E 30 b4 04 09
        E 30 b4 04 0a
        E 30 b4 04 0b
        E 30 b4 04 0c
        E 30 b4 04 0e
        E 30 b4 04 0f
        E 30 b4 04 10
        E 30 b4 04 12
        E 30 b4 04 13
        E 30 b4 04 15
        E 30 b4 04 16
        E 30 b4 04 18
        E 30 b4 04 19
        E 30 b4 04 1b
        E 30 b4 04 1c
        E 30 b4 04 1e
        E 30 b4 04 20
        E 42 b4 04 20
        E 42 b4 04 21
        E 42 b4 04 23
        E 42 b4 04 24
        E 42 b4 04 26
        E 42 b4 04 27
        E 42 b4 04 29
        E 42 b4 04 2a
        E 42 b4 04 2c
        E 42 b4 04 2d
        E 42 b4 04 2f
        E 42 b4 04 30
        E 42 b4 04 31
        E 42 b4 04 33
        E 42 b4 04 34
        E 42 b4 04 35
        E 42 b4 04 36
        E 42 b4 04 37
        E 42 b4 04 38
        E 42 b4 04 39
        E 42 b4 04 3a
        E 42 b4 04 3b
        E 42 b4 04 3c
        E 42 b4 04 3c
        E 42 b4 04 3d
        E 42 b4 04 3d
        E 42 b4 04 3e
        E 42 b4 04 3e
        E 42 b4 04 3f
        E 42 b4 04 3f
        E 42 b4 04 3f
        E 42 b4 04 3f
        E 42 b4 04 3f
        E 42 b4 04 3f
        E 42 b4 04 3f
        E 42 b4 04 3f
        E 42 b4 04 3f
        E 42 b4 04 3e
        E 42 b4 04 3e
        E 42 b4 04 3d
        E 42 b4 04 3d
        E 42 b4 04 3c
        E 42 b4 04 3b
        E 42 b4 04 3a
        E 42 b4 04 3a
        E 42 b4 04 39
        E 42 b4 04 38
        E 42 b4 04 37
        E 42 b4 04 36
        E 42 b4 04 34
        E 42 b4 04 33
        E 42 b4 04 32
        E 42 b4 04 31
        E 42 b4 04 2f
        E 42 b4 04 2e
        E 42 b4 04 2c
        E 42 b4 04 2b
        E 42 b4 04 2a
        E 42 b4 04 28
        E 42 b4 04 27
        E 42 b4 04 25
        E 42 b4 04 23
        E 42 b4 04 22
        E 42 b4 04 20
        E 42 b4 04 1f
        E 42 b4 04 1d
        E 42 b4 04 1c
        E 42 b4 04 1a
        E 42 b4 04 18
        E 42 b4 04 17
        E 42 b4 04 15
        E 42 b4 04 14
        E 42 b4 04 13
        E 42 b4 04 11
        E 42 b4 04 10
        E 42 b4 04 0e
        E 42 b4 04 0d
        E 42 b4 04 0c
        E 42 b4 04 0b
        E 42 b4 04 09
        E 42 b4 04 08
        E 42 b4 04 07
        E 42 b4 04 06
        E 42 b4 04 05
        E 42 b4 04 05
        E 42 b4 04 04
        E 42 b4 04 03
        E 42 b4 04 02
        E 42 b4 04 02
        E 42 b4 04 01
        E 42 b4 04 01
        E 42 b4 04 00
        E 42 b4 04 00
        E 42 b4 04 00
        E 42 b4 04 00
        E 42 b4 04 00
        E 42 b4 04 00
        E 42 b4 04 00
        E 42 b4 04 00
        E 42 b4 04 00
        E 42 b4 04 01
        E 42 b4 04 01
        E 42 b4 04 02
        E 42 b4 04 02
        E 42 b4 04 03
        E 42 b4 04 03
        E 42 b4 04 04
        E 42 b4 04 05
        E 42 b4 04 06
        E 42 b4 04 07
        E 42 b4 04 08
        E 42 b4 04 09
        E 42 b4 04 0a
        E 42 b4 04 0b
        E 42 b4 04 0c
        E 42 b4 04 0e
        E 42 b4 04 0f
        E 42 b4 04 10
        E 42 b4 04 12
        E 42 b4 04 13
        E 42 b4 04 15
        E 42 b4 04 16
        E 42 b4 04 18
        E 42 b4 04 19
        E 42 b4 04 1b
        E 42 b4 04 1c
        E 42 b4 04 1e
        E 42 b4 04 20
        E 48 b4 04 40
        E 48 b4 04 43
        E 48 b4 04 46
        E 48 b4 04 49
        E 48 b4 04 4c
        E 48 b4 04 4f
        E 48 b4 04 52
        E 48 b4 04 55
        E 48 b4 04 58
        E 48 b4 04 5b
        E 48 b4 04 5e
        E 48 b4 04 60
        E 48 b4 04 63
        E 48 b4 04 66
        E 48 b4 04 68
        E 48 b4 04 6a
        E 48 b4 04 6d
        E 48 b4 04 6f
        E 48 b4 04 71
        E 48 b4 04 73
        E 48 b4 04 75
        E 48 b4 04 76
        E 48 b4 04 78
        E 48 b4 04 79
        E 48 b4 04 7a
        E 48 b4 04 7b
        E 48 b4 04 7c
        E 48 b4 04 7d
        E 48 b4 04 7e
        E 48 b4 04 7e
        E 48 b4 04 7f
        E 48 b4 04 7f
        E 48 b4 04 7f
        E 48 b4 04 7f
        E 48 b4 04 7f
        E 48 b4 04 7e
        E 48 b4 04 7e
        E 48 b4 04 7d
        E 48 b4 04 7c
        E 48 b4 04 7b
        E 48 b4 04 7a
        E 48 b4 04 78
        E 48 b4 04 77
        E 48 b4 04 75
        E 48 b4 04 74
        E 48 b4 04 72
        E 48 b4 04 70
        E 48 b4 04 6e
        E 48 b4 04 6c
        E 48 b4 04 69
        E 48 b4 04 67
        E 48 b4 04 64
        E 48 b4 04 62
        E 48 b4 04 5f
        E 48 b4 04 5c
        E 48 b4 04 59
        E 48 b4 04 57
        E 48 b4 04 54
        E 48 b4 04 51
        E 48 b4 04 4e
        E 48 b4 04 4a
        E 48 b4 04 47
        E 48 b4 04 44
        E 48 b4 04 41
        E 48 b4 04 3e
        E 48 b4 04 3b
        E 48 b4 04 38
        E 48 b4 04 35
        E 48 b4 04 31
        E 48 b4 04 2e
        E 48 b4 04 2b
        E 48 b4 04 28
        E 48 b4 04 26
        E 48 b4 04 23
        E 48 b4 04 20
        E 48 b4 04 1d
        E 48 b4 04 1b
        E 48 b4 04 18
        E 48 b4 04 16
        E 48 b4 04 13
        E 48 b4 04 11
        E 48 b4 04 0f
        E 48 b4 04 0d
        E 48 b4 04 0b
        E 48 b4 04 0a
        E 48 b4 04 08
        E 48 b4 04 07
        E 48 b4 04 05
        E 48 b4 04 04
        E 48 b4 04 03
        E 48 b4 04 02
        E 48 b4 04 01
        E 48 b4 04 01
        E 48 b4 04 00
        E 48 b4 04 00
        E 48 b4 04 00
        E 48 b4 04 00
        E 48 b4 04 00
        E 48 b4 04 01
        E 48 b4 04 01
        E 48 b4 04 02
        E 48 b4 04 03
        E 48 b4 04 04
        E 48 b4 04 05
        E 48 b4 04 06
        E 48 b4 04 07
        E 48 b4 04 09
        E 48 b4 04 0a
        E 48 b4 04 0c
        E 48 b4 04 0e
        E 48 b4 04 10
        E 48 b4 04 12
        E 48 b4 04 15
        E 48 b4 04 17
        E 48 b4 04 19
        E 48 b4 04 1c
        E 48 b4 04 1f
        E 48 b4 04 21
        E 48 b4 04 24
        E 48 b4 04 27
        E 48 b4 04 2a
        E 48 b4 04 2d
        E 48 b4 04 30
        E 48 b4 04 33
        E 48 b4 04 36
        E 48 b4 04 39
        E 48 b4 04 3c
        E 48 b4 04 40
        E 6 b4 04 39
        E 6 b4 04 3c
        E 6 b4 04 3f
        E 6 b4 04 41
        E 6 b4 04 44
        E 6 b4 04 47
        E 6 b4 04 49
        E 6 b4 04 4c
        E 6 b4 04 4f
        E 6 b4 04 51
        E 6 b4 04 54
        E 6 b4 04 56
        E 6 b4 04 59
        E 6 b4 04 5b
        E 6 b4 04 5d
        E 6 b4 04 5f
        E 6 b4 04 62
        E 6 b4 04 63
        E 6 b4 04 65
        E 6 b4 04 67
        E 6 b4 04 69
        E 6 b4 04 6a
        E 6 b4 04 6c
        E 6 b4 04 6c
        E 6 b4 04 6d
        E 6 b4 04 6e
        E 6 b4 04 6f
        E 6 b4 04 70
        E 6 b4 04 71
        E 6 b4 04 71
        E 6 b4 04 72
        E 6 b4 04 72
        E 6 b4 04 72
        E 6 b4 04 72
        E 6 b4 04 72
        E 6 b4 04 71
        E 6 b4 04 71
        E 6 b4 04 70
        E 6 b4 04 6f
        E 6 b4 04 6e
        E 6 b4 04 6d
        E 6 b4 04 6c
        E 6 b4 04 6b
        E 6 b4 04 69
        E 6 b4 04 68
        E 6 b4 04 66
        E 6 b4 04 64
        E 6 b4 04 63
        E 6 b4 04 61
        E 6 b4 04 5e
        E 6 b4 04 5c
        E 6 b4 04 5a
        E 6 b4 04 58
        E 6 b4 04 55
        E 6 b4 04 52
        E 6 b4 04 50
        E 6 b4 04 4e
        E 6 b4 04 4b
        E 6 b4 04 48
        E 6 b4 04 46
        E 6 b4 04 42
        E 6 b4 04 3f
        E 6 b4 04 3d
        E 6 b4 04 3a
        E 6 b4 04 37
        E 6 b4 04 35
        E 6 b4 04 32
        E 6 b4 04 2f
        E 6 b4 04 2c
        E 6 b4 04 29
        E 6 b4 04 26
        E 6 b4 04 24
        E 6 b4 04 22
        E 6 b4 04 1f
        E 6 b4 04 1c
        E 6 b4 04 1a
        E 6 b4 04 18
        E 6 b4 04 15
        E 6 b4 04 13
        E 6 b4 04 11
        E 6 b4 04 0f
        E 6 b4 04 0d
        E 6 b4 04 0b
        E 6 b4 04 09
        E 6 b4 04 09
        E 6 b4 04 07
        E 6 b4 04 06
        E 6 b4 04 04
        E 6 b4 04 03
        E 6 b4 04 02
        E 6 b4 04 01
        E 6 b4 04 00
        E 6 b4 04 00
        E 6 b4 04 00
        E 6 b4 04 00
        E 6 b4 04 00
        E 6 b4 04 00
        E 6 b4 04 00
        E 6 b4 04 00
        E 6 b4 04 00
        E 6 b4 04 01
        E 6 b4 04 02
        E 6 b4 04 03
        E 6 b4 04 04
        E 6 b4 04 05
        E 6 b4 04 06
        E 6 b4 04 08
        E 6 b4 04 09
        E 6 b4 04 0a
        E 6 b4 04 0c
        E 6 b4 04 0e
        E 6 b4 04 10
        E 6 b4 04 12
        E 6 b4 04 14
        E 6 b4 04 16
        E 6 b4 04 19
        E 6 b4 04 1b
        E 6 b4 04 1d
        E 6 b4 04 20
        E 6 b4 04 23
        E 6 b4 04 25
        E 6 b4 04 28
        E 6 b4 04 2b
        E 6 b4 04 2d
        E 6 b4 04 30
        E 6 b4 04 33
        E 6 b4 04 36
        E 6 b4 04 39
        E 24 b4 04 40
        E 24 b4 04 43
        E 24 b4 04 46
        E 24 b4 04 49
        E 24 b4 04 4c
        E 24 b4 04 4f
        E 24 b4 04 52
        E 24 b4 04 55
        E 24 b4 04 58
        E 24 b4 04 5b
        E 24 b4 04 5e
        E 24 b4 04 60
        E 24 b4 04 63
        E 24 b4 04 66
        E 24 b4 04 68
        E 24 b4 04 6a
        E 24 b4 04 6d
        E 24 b4 04 6f
        E 24 b4 04 71
        E 24 b4 04 73
        E 24 b4 04 75
        E 24 b4 04 76
        E 24 b4 04 78
        E 24 b4 04 79
        E 24 b4 04 7a
        E 24 b4 04 7b
        E 24 b4 04 7c
        E 24 b4 04 7d
        E 24 b4 04 7e
        E 24 b4 04 7e
        E 24 b4 04 7f
        E 24 b4 04 7f
        E 24 b4 04 7f
        E 24 b4 04 7f
        E 24 b4 04 7f
        E 24 b4 04 7e
        E 24 b4 04 7e
        E 24 b4 04 7d
        E 24 b4 04 7c
        E 24 b4 04 7b
        E 24 b4 04 7a
        E 24 b4 04 78
        E 24 b4 04 77
        E 24 b4 04 75
        E 24 b4 04 74
        E 24 b4 04 72
        E 24 b4 04 70
        E 24 b4 04 6e
        E 24 b4 04 6c
        E 24 b4 04 69
        E 24 b4 04 67
        E 24 b4 04 64
        E 24 b4 04 62
        E 24 b4 04 5f
        E 24 b4 04 5c
        E 24 b4 04 59
        E 24 b4 04 57
        E 24 b4 04 54
        E 24 b4 04 51
        E 24 b4 04 4e
        E 24 b4 04 4a
        E 24 b4 04 47
        E 24 b4 04 44
        E 24 b4 04 41
        E 24 b4 04 3e
        E 24 b4 04 3b
        E 24 b4 04 38
        E 24 b4 04 35
        E 24 b4 04 31
        E 24 b4 04 2e
        E 24 b4 04 2b
        E 24 b4 04 28
        E 24 b4 04 26
        E 24 b4 04 23
        E 24 b4 04 20
        E 24 b4 04 1d
        E 24 b4 04 1b
        E 24 b4 04 18
        E 24 b4 04 16
        E 24 b4 04 13
        E 24 b4 04 11
        E 24 b4 04 0f
        E 24 b4 04 0d
        E 24 b4 04 0b
        E 24 b4 04 0a
        E 24 b4 04 08
        E 24 b4 04 07
        E 24 b4 04 05
        E 24 b4 04 04
        E 24 b4 04 03
        E 24 b4 04 02
        E 24 b4 04 01
        E 24 b4 04 01
        E 24 b4 04 00
        E 24 b4 04 00
        E 24 b4 04 00
        E 24 b4 04 00
        E 24 b4 04 00
        E 24 b4 04 01
        E 24 b4 04 01
        E 24 b4 04 02
        E 24 b4 04 03
        E 24 b4 04 04
        E 24 b4 04 05
        E 24 b4 04 06
        E 24 b4 04 07
        E 24 b4 04 09
        E 24 b4 04 0a
        E 24 b4 04 0c
        E 24 b4 04 0e
        E 24 b4 04 10
        E 24 b4 04 12
        E 24 b4 04 15
        E 24 b4 04 17
        E 24 b4 04 19
        E 24 b4 04 1c
        E 24 b4 04 1f
        E 24 b4 04 21
        E 24 b4 04 24
        E 24 b4 04 27
        E 24 b4 04 2a
        E 24 b4 04 2d
        E 24 b4 04 30
        E 24 b4 04 33
        E 24 b4 04 36
        E 24 b4 04 39
        E 24 b4 04 3c
        E 24 b4 04 40
        E 30 b4 04 20
        E 30 b4 04 21
        E 30 b4 04 23
        E 30 b4 04 24
        E 30 b4 04 26
        E 30 b4 04 27
        E 30 b4 04 29
        E 30 b4 04 2a
        E 30 b4 04 2c
        E 30 b4 04 2d
        E 30 b4 04 2f
        E 30 b4 04 30
        E 30 b4 04 31
        E 30 b4 04 33
        E 30 b4 04 34
        E 30 b4 04 35
        E 30 b4 04 36
        E 30 b4 04 37
        E 30 b4 04 38
        E 30 b4 04 39
        E 30 b4 04 3a
        E 30 b4 04 3b
        E 30 b4 04 3c
        E 30 b4 04 3c
        E 30 b4 04 3d
        E 30 b4 04 3d
        E 30 b4 04 3e
        E 30 b4 04 3e
        E 30 b4 04 3f
        E 30 b4 04 3f
        E 30 b4 04 3f
        E 30 b4 04 3f
        E 30 b4 04 3f
        E 30 b4 04 3f
        E 30 b4 04 3f
        E 30 b4 04 3f
        E 30 b4 04 3f
        E 30 b4 04 3e
        E 30 b4 04 3e
        E 30 b4 04 3d
        E 30 b4 04 3d
        E 30 b4 04 3c
        E 30 b4 04 3b
        E 30 b4 04 3a
        E 30 b4 04 3a
        E 30 b4 04 39
        E 30 b4 04 38
        E 30 b4 04 37
        E 30 b4 04 36
        E 30 b4 04 34
        E 30 b4 04 33
        E 30 b4 04 32
        E 30 b4 04 31
        E 30 b4 04 2f
        E 30 b4 04 2e
        E 30 b4 04 2c
        E 30 b4 04 2b
        E 30 b4 04 2a
        E 30 b4 04 28
        E 30 b4 04 27
        E 30 b4 04 25
        E 30 b4 04 23
        E 30 b4 04 22
        E 30 b4 04 20
        E 30 b4 04 1f
        E 30 b4 04 1d
        E 30 b4 04 1c
        E 30 b4 04 1a
        E 30 b4 04 18
        E 30 b4 04 17
        E 30 b4 04 15
        E 30 b4 04 14
        E 30 b4 04 13
        E 30 b4 04 11
        E 30 b4 04 10
        E 30 b4 04 0e
        E 30 b4 04 0d
        E 30 b4 04 0c
        E 30 b4 04 0b
        E 30 b4 04 09
        E 30 b4 04 08
        E 30 b4 04 07
        E 30 b4 04 06
        E 30 b4 04 05
        E 30 b4 04 05
        E 30 b4 04 04
        E 30 b4 04 03
        E 30 b4 04 02
        E 30 b4 04 02
        E 30 b4 04 01
        E 30 b4 04 01
        E 30 b4 04 00
        E 30 b4 04 00
        E 30 b4 04 00
        E 30 b4 04 00
        E 30 b4 04 00
        E 30 b4 04 00
        E 30 b4 04 00
        E 30 b4 04 00
        E 30 b4 04 00
        E 30 b4 04 01
        E 30 b4 04 01
        E 30 b4 04 02
        E 30 b4 04 02
        E 30 b4 04 03
        E 30 b4 04 03
        E 30 b4 04 04
        E 30 b4 04 05
        E 30 b4 04 06
        E 30 b4 04 07
        E 30 b4 04 08
        E 30 b4 04 09
        E 30 b4 04 0a
        E 30 b4 04 0b
        E 30 b4 04 0c
        E 30 b4 04 0e
        E 30 b4 04 0f
        E 30 b4 04 10
        E 30 b4 04 12
        E 30 b4 04 13
        E 30 b4 04 15
        E 30 b4 04 16
        E 30 b4 04 18
        E 30 b4 04 19
        E 30 b4 04 1b
        E 30 b4 04 1c
        E 30 b4 04 1e
        E 30 b4 04 20
        E 61 b4 04 2c
        E 61 b4 04 2e
        E 61 b4 04 31
        E 61 b4 04 33
        E 61 b4 04 35
        E 61 b4 04 37
        E 61 b4 04 39
        E 61 b4 04 3b
        E 61 b4 04 3d
        E 61 b4 04 3f
        E 61 b4 04 41
        E 61 b4 04 43
        E 61 b4 04 45
        E 61 b4 04 47
        E 61 b4 04 48
        E 61 b4 04 4a
        E 61 b4 04 4c
        E 61 b4 04 4d
        E 61 b4 04 4f
        E 61 b4 04 50
        E 61 b4 04 51
        E 61 b4 04 52
        E 61 b4 04 54
        E 61 b4 04 54
        E 61 b4 04 55
        E 61 b4 04 56
        E 61 b4 04 56
        E 61 b4 04 57
        E 61 b4 04 58
        E 61 b4 04 58
        E 61 b4 04 58
        E 61 b4 04 58
        E 61 b4 04 58
        E 61 b4 04 58
        E 61 b4 04 58
        E 61 b4 04 58
        E 61 b4 04 58
        E 61 b4 04 57
        E 61 b4 04 56
        E 61 b4 04 56
        E 61 b4 04 55
        E 61 b4 04 54
        E 61 b4 04 53
        E 61 b4 04 51
        E 61 b4 04 51
        E 61 b4 04 4f
        E 61 b4 04 4e
        E 61 b4 04 4d
        E 61 b4 04 4b
        E 61 b4 04 49
        E 61 b4 04 48
        E 61 b4 04 46
        E 61 b4 04 44
        E 61 b4 04 42
        E 61 b4 04 40
        E 61 b4 04 3e
        E 61 b4 04 3c
        E 61 b4 04 3a
        E 61 b4 04 38
        E 61 b4 04 36
        E 61 b4 04 33
        E 61 b4 04 31
        E 61 b4 04 2f
        E 61 b4 04 2d
        E 61 b4 04 2b
        E 61 b4 04 29
        E 61 b4 04 27
        E 61 b4 04 25
        E 61 b4 04 22
        E 61 b4 04 20
        E 61 b4 04 1e
        E 61 b4 04 1c
        E 61 b4 04 1a
        E 61 b4 04 18
        E 61 b4 04 16
        E 61 b4 04 14
        E 61 b4 04 12
        E 61 b4 04 10
        E 61 b4 04 0f
        E 61 b4 04 0d
        E 61 b4 04 0b
        E 61 b4 04 0a
        E 61 b4 04 09
        E 61 b4 04 07
        E 61 b4 04 07
        E 61 b4 04 05
        E 61 b4 04 04
        E 61 b4 04 03
        E 61 b4 04 02
        E 61 b4 04 02
        E 61 b4 04 01
        E 61 b4 04 00
        E 61 b4 04 00
        E 61 b4 04 00
        E 61 b4 04 00
        E 61 b4 04 00
        E 61 b4 04 00
        E 61 b4 04 00
        E 61 b4 04 00
        E 61 b4 04 00
        E 61 b4 04 01
        E 61 b4 04 02
        E 61 b4 04 02
        E 61 b4 04 03
        E 61 b4 04 04
        E 61 b4 04 04
        E 61 b4 04 06
        E 61 b4 04 07
        E 61 b4 04 08
        E 61 b4 04 09
        E 61 b4 04 0b
        E 61 b4 04 0c
        E 61 b4 04 0e
        E 61 b4 04 10
        E 61 b4 04 11
        E 61 b4 04 13
        E 61 b4 04 15
        E 61 b4 04 17
        E 61 b4 04 19
        E 61 b4 04 1b
        E 61 b4 04 1d
        E 61 b4 04 1f
        E 61 b4 04 21
        E 61 b4 04 23
        E 61 b4 04 25
        E 61 b4 04 27
        E 61 b4 04 2a
        E 61 b4 04 2c
        E 54 b4 04 33
        E 54 b4 04 35
        E 54 b4 04 37
        E 54 b4 04 3a
        E 54 b4 04 3c
        E 54 b4 04 3f
        E 54 b4 04 41
        E 54 b4 04 44
        E 54 b4 04 46
        E 54 b4 04 48
        E 54 b4 04 4b
        E 54 b4 04 4c
        E 54 b4 04 4f
        E 54 b4 04 51
        E 54 b4 04 53
        E 54 b4 04 54
        E 54 b4 04 57
        E 54 b4 04 58
        E 54 b4 04 5a
        E 54 b4 04 5b
        E 54 b4 04 5d
        E 54 b4 04 5e
        E 54 b4 04 5f
        E 54 b4 04 60
        E 54 b4 04 61
        E 54 b4 04 62
        E 54 b4 04 63
        E 54 b4 04 63
        E 54 b4 04 64
        E 54 b4 04 64
        E 54 b4 04 65
        E 54 b4 04 65
        E 54 b4 04 65
        E 54 b4 04 65
        E 54 b4 04 65
        E 54 b4 04 64
        E 54 b4 04 64
        E 54 b4 04 63
        E 54 b4 04 63
        E 54 b4 04 62
        E 54 b4 04 61
        E 54 b4 04 5f
        E 54 b4 04 5f
        E 54 b4 04 5d
        E 54 b4 04 5c
        E 54 b4 04 5b
        E 54 b4 04 59
        E 54 b4 04 57
        E 54 b4 04 56
        E 54 b4 04 54
        E 54 b4 04 52
        E 54 b4 04 50
        E 54 b4 04 4e
        E 54 b4 04 4c
        E 54 b4 04 49
        E 54 b4 04 47
        E 54 b4 04 45
        E 54 b4 04 43
        E 54 b4 04 40
        E 54 b4 04 3e
        E 54 b4 04 3b
        E 54 b4 04 38
        E 54 b4 04 36
        E 54 b4 04 33
        E 54 b4 04 31
        E 54 b4 04 2f
        E 54 b4 04 2c
        E 54 b4 04 2a
        E 54 b4 04 27
        E 54 b4 04 24
        E 54 b4 04 22
        E 54 b4 04 1f
        E 54 b4 04 1e
        E 54 b4 04 1b
        E 54 b4 04 19
        E 54 b4 04 17
        E 54 b4 04 15
        E 54 b4 04 13
        E 54 b4 04 11
        E 54 b4 04 0f
        E 54 b4 04 0d
        E 54 b4 04 0b
        E 54 b4 04 0a
        E 54 b4 04 08
        E 54 b4 04 07
        E 54 b4 04 06
        E 54 b4 04 05
        E 54 b4 04 03
        E 54 b4 04 03
        E 54 b4 04 02
        E 54 b4 04 01
        E 54 b4 04 00
        E 54 b4 04 00
        E 54 b4 04 00
        E 54 b4 04 00
        E 54 b4 04 00
        E 54 b4 04 00
        E 54 b4 04 00
        E 54 b4 04 00
        E 54 b4 04 00
        E 54 b4 04 01
        E 54 b4 04 02
        E 54 b4 04 03
        E 54 b4 04 03
        E 54 b4 04 04
        E 54 b4 04 05
        E 54 b4 04 07
        E 54 b4 04 07
        E 54 b4 04 09
        E 54 b4 04 0b
        E 54 b4 04 0c
        E 54 b4 04 0e
        E 54 b4 04 10
        E 54 b4 04 12
        E 54 b4 04 14
        E 54 b4 04 16
        E 54 b4 04 18
        E 54 b4 04 1a
        E 54 b4 04 1c
        E 54 b4 04 1f
        E 54 b4 04 21
        E 54 b4 04 24
        E 54 b4 04 26
        E 54 b4 04 28
        E 54 b4 04 2b
        E 54 b4 04 2d
        E 54 b4 04 2f
        E 54 b4 04 33
        E 61 b4 04 06
        E 61 b4 04 06
        E 61 b4 04 07
        E 61 b4 04 07
        E 61 b4 04 07
        E 61 b4 04 07
        E 61 b4 04 08
        E 61 b4 04 08
        E 61 b4 04 08
        E 61 b4 04 09
        E 61 b4 04 09
        E 61 b4 04 09
        E 61 b4 04 09
        E 61 b4 04 0a
        E 61 b4 04 0a
        E 61 b4 04 0a
        E 61 b4 04 0a
        E 61 b4 04 0b
        E 61 b4 04 0b
        E 61 b4 04 0b
        E 61 b4 04 0b
        E 61 b4 04 0b
        E 61 b4 04 0c
        E 61 b4 04 0c
        E 61 b4 04 0c
        E 61 b4 04 0c
        E 61 b4 04 0c
        E 61 b4 04 0c
        E 61 b4 04 0c
        E 61 b4 04 0c
        E 61 b4 04 0c
        E 61 b4 04 0c
        E 61 b4 04 0c
        E 61 b4 04 0c
        E 61 b4 04 0c
        E 61 b4 04 0c
        E 61 b4 04 0c
        E 61 b4 04 0c
        E 61 b4 04 0c
        E 61 b4 04 0c
        E 61 b4 04 0c
        E 61 b4 04 0c
        E 61 b4 04 0b
        E 61 b4 04 0b
        E 61 b4 04 0b
        E 61 b4 04 0b
        E 61 b4 04 0b
        E 61 b4 04 0b
        E 61 b4 04 0a
        E 61 b4 04 0a
        E 61 b4 04 0a
        E 61 b4 04 0a
        E 61 b4 04 09
        E 61 b4 04 09
        E 61 b4 04 09
        E 61 b4 04 08
        E 61 b4 04 08
        E 61 b4 04 08
        E 61 b4 04 08
        E 61 b4 04 07
        E 61 b4 04 07
        E 61 b4 04 07
        E 61 b4 04 06
        E 61 b4 04 06
        E 61 b4 04 06
        E 61 b4 04 05
        E 61 b4 04 05
        E 61 b4 04 05
        E 61 b4 04 04
        E 61 b4 04 04
        E 61 b4 04 04
        E 61 b4 04 04
        E 61 b4 04 03
        E 61 b4 04 03
        E 61 b4 04 03
        E 61 b4 04 02
        E 61 b4 04 02
        E 61 b4 04 02
        E 61 b4 04 02
        E 61 b4 04 01
        E 61 b4 04 01
        E 61 b4 04 01
        E 61 b4 04 01
        E 61 b4 04 01
        E 61 b4 04 01
        E 61 b4 04 00
        E 61 b4 04 00
        E 61 b4 04 00
        E 61 b4 04 00
        E 61 b4 04 00
        E 61 b4 04 00
        E 61 b4 04 00
        E 61 b4 04 00
        E 61 b4 04 00
        E 61 b4 04 00
        E 61 b4 04 00
        E 61 b4 04 00
        E 61 b4 04 00
        E 61 b4 04 00
        E 61 b4 04 00
        E 61 b4 04 00
        E 61 b4 04 00
        E 61 b4 04 00
        E 61 b4 04 00
        E 61 b4 04 00
        E 61 b4 04 00
        E 61 b4 04 00
        E 61 b4 04 01
        E 61 b4 04 01
        E 61 b4 04 01
        E 61 b4 04 01
        E 61 b4 04 01
        E 61 b4 04 02
        E 61 b4 04 02
        E 61 b4 04 02
        E 61 b4 04 02
        E 61 b4 04 03
        E 61 b4 04 03
        E 61 b4 04 03
        E 61 b4 04 03
        E 61 b4 04 04
        E 61 b4 04 04
        E 61 b4 04 04
        E 61 b4 04 05
        E 61 b4 04 05
        E 61 b4 04 05
        E 61 b4 04 06
        E 61 b4 04 06
        E 54 b4 04 19
        E 54 b4 04 1a
        E 54 b4 04 1c
        E 54 b4 04 1d
        E 54 b4 04 1e
        E 54 b4 04 1f
        E 54 b4 04 20
        E 54 b4 04 22
        E 54 b4 04 23
        E 54 b4 04 24
        E 54 b4 04 25
        E 54 b4 04 26
        E 54 b4 04 27
        E 54 b4 04 28
        E 54 b4 04 29
        E 54 b4 04 2a
        E 54 b4 04 2b
        E 54 b4 04 2c
        E 54 b4 04 2d
        E 54 b4 04 2e
        E 54 b4 04 2e
        E 54 b4 04 2f
        E 54 b4 04 30
        E 54 b4 04 30
        E 54 b4 04 30
        E 54 b4 04 31
        E 54 b4 04 31
        E 54 b4 04 32
        E 54 b4 04 32
        E 54 b4 04 32
        E 54 b4 04 32
        E 54 b4 04 32
        E 54 b4 04 32
        E 54 b4 04 32
        E 54 b4 04 32
        E 54 b4 04 32
        E 54 b4 04 32
        E 54 b4 04 32
        E 54 b4 04 31
        E 54 b4 04 31
        E 54 b4 04 30
        E 54 b4 04 30
        E 54 b4 04 2f
        E 54 b4 04 2e
        E 54 b4 04 2e
        E 54 b4 04 2d
        E 54 b4 04 2c
        E 54 b4 04 2c
        E 54 b4 04 2b
        E 54 b4 04 2a
        E 54 b4 04 29
        E 54 b4 04 28
        E 54 b4 04 27
        E 54 b4 04 26
        E 54 b4 04 24
        E 54 b4 04 23
        E 54 b4 04 22
        E 54 b4 04 21
        E 54 b4 04 20
        E 54 b4 04 1f
        E 54 b4 04 1d
        E 54 b4 04 1c
        E 54 b4 04 1b
        E 54 b4 04 1a
        E 54 b4 04 18
        E 54 b4 04 17
        E 54 b4 04 16
        E 54 b4 04 15
        E 54 b4 04 13
        E 54 b4 04 12
        E 54 b4 04 11
        E 54 b4 04 10
        E 54 b4 04 0f
        E 54 b4 04 0e
        E 54 b4 04 0c
        E 54 b4 04 0b
        E 54 b4 04 0a
        E 54 b4 04 09
        E 54 b4 04 08
        E 54 b4 04 07
        E 54 b4 04 06
        E 54 b4 04 06
        E 54 b4 04 05
        E 54 b4 04 04
        E 54 b4 04 04
        E 54 b4 04 03
        E 54 b4 04 02
        E 54 b4 04 02
        E 54 b4 04 01
        E 54 b4 04 01
        E 54 b4 04 00
        E 54 b4 04 00
        E 54 b4 04 00
        E 54 b4 04 00
        E 54 b4 04 00
        E 54 b4 04 00
        E 54 b4 04 00
        E 54 b4 04 00
        E 54 b4 04 00
        E 54 b4 04 00
        E 54 b4 04 00
        E 54 b4 04 01
        E 54 b4 04 01
        E 54 b4 04 02
        E 54 b4 04 02
        E 54 b4 04 02
        E 54 b4 04 03
        E 54 b4 04 04
        E 54 b4 04 04
        E 54 b4 04 05
        E 54 b4 04 06
        E 54 b4 04 07
        E 54 b4 04 08
        E 54 b4 04 09
        E 54 b4 04 0a
        E 54 b4 04 0b
        E 54 b4 04 0c
        E 54 b4 04 0d
        E 54 b4 04 0e
        E 54 b4 04 0f
        E 54 b4 04 10
        E 54 b4 04 12
        E 54 b4 04 13
        E 54 b4 04 14
        E 54 b4 04 15
        E 54 b4 04 16
        E 54 b4 04 18
        E 54 b4 04 19
        E 30 b4 04 2c
        E 30 b4 04 2e
        E 30 b4 04 31
        E 30 b4 04 33
        E 30 b4 04 35
        E 30 b4 04 37
        E 30 b4 04 39
        E 30 b4 04 3b
        E 30 b4 04 3d
        E 30 b4 04 3f
        E 30 b4 04 41
        E 30 b4 04 43
        E 30 b4 04 45
        E 30 b4 04 47
        E 30 b4 04 48
        E 30 b4 04 4a
        E 30 b4 04 4c
        E 30 b4 04 4d
        E 30 b4 04 4f
        E 30 b4 04 50
        E 30 b4 04 51
        E 30 b4 04 52
        E 30 b4 04 54
        E 30 b4 04 54
        E 30 b4 04 55
        E 30 b4 04 56
        E 30 b4 04 56
        E 30 b4 04 57
        E 30 b4 04 58
        E 30 b4 04 58
        E 30 b4 04 58
        E 30 b4 04 58
        E 30 b4 04 58
        E 30 b4 04 58
        E 30 b4 04 58
        E 30 b4 04 58
        E 30 b4 04 58
        E 30 b4 04 57
        E 30 b4 04 56
        E 30 b4 04 56
        E 30 b4 04 55
        E 30 b4 04 54
        E 30 b4 04 53
        E 30 b4 04 51
        E 30 b4 04 51
        E 30 b4 04 4f
        E 30 b4 04 4e
        E 30 b4 04 4d
        E 30 b4 04 4b
        E 30 b4 04 49
        E 30 b4 04 48
        E 30 b4 04 46
        E 30 b4 04 44
        E 30 b4 04 42
        E 30 b4 04 40
        E 30 b4 04 3e
        E 30 b4 04 3c
        E 30 b4 04 3a
        E 30 b4 04 38
        E 30 b4 04 36
        E 30 b4 04 33
        E 30 b4 04 31
        E 30 b4 04 2f
        E 30 b4 04 2d
        E 30 b4 04 2b
        E 30 b4 04 29
        E 30 b4 04 27
        E 30 b4 04 25
        E 30 b4 04 22
        E 30 b4 04 20
        E 30 b4 04 1e
        E 30 b4 04 1c
        E 30 b4 04 1a
        E 30 b4 04 18
        E 30 b4 04 16
        E 30 b4 04 14
        E 30 b4 04 12
        E 30 b4 04 10
        E 30 b4 04 0f
        E 30 b4 04 0d
        E 30 b4 04 0b
        E 30 b4 04 0a
        E 30 b4 04 09
        E 30 b4 04 07
        E 30 b4 04 07
        E 30 b4 04 05
        E 30 b4 04 04
        E 30 b4 04 03
        E 30 b4 04 02
        E 30 b4 04 02
        E 30 b4 04 01
        E 30 b4 04 00
        E 30 b4 04 00
        E 30 b4 04 00
        E 30 b4 04 00
        E 30 b4 04 00
        E 30 b4 04 00
        E 30 b4 04 00
        E 30 b4 04 00
        E 30 b4 04 00
        E 30 b4 04 01
        E 30 b4 04 02
        E 30 b4 04 02
        E 30 b4 04 03
        E 30 b4 04 04
        E 30 b4 04 04
        E 30 b4 04 06
        E 30 b4 04 07
        E 30 b4 04 08
        E 30 b4 04 09
        E 30 b4 04 0b
        E 30 b4 04 0c
        E 30 b4 04 0e
        E 30 b4 04 10
        E 30 b4 04 11
        E 30 b4 04 13
        E 30 b4 04 15
        E 30 b4 04 17
        E 30 b4 04 19
        E 30 b4 04 1b
        E 30 b4 04 1d
        E 30 b4 04 1f
        E 30 b4 04 21
        E 30 b4 04 23
        E 30 b4 04 25
        E 30 b4 04 27
        E 30 b4 04 2a
        E 30 b4 04 2c
        E 30 b4 04 20
        E 30 b4 04 21
        E 30 b4 04 23
        E 30 b4 04 24
        E 30 b4 04 26
        E 30 b4 04 27
        E 30 b4 04 29
        E 30 b4 04 2a
        E 30 b4 04 2c
        E 30 b4 04 2d
        E 30 b4 04 2f
        E 30 b4 04 30
        E 30 b4 04 31
        E 30 b4 04 33
        E 30 b4 04 34
        E 30 b4 04 35
        E 30 b4 04 36
        E 30 b4 04 37
        E 30 b4 04 38
        E 30 b4 04 39
        E 30 b4 04 3a
        E 30 b4 04 3b
        E 30 b4 04 3c
        E 30 b4 04 3c
        E 30 b4 04 3d
        E 30 b4 04 3d
        E 30 b4 04 3e
        E 30 b4 04 3e
        E 30 b4 04 3f
        E 30 b4 04 3f
        E 30 b4 04 3f
        E 30 b4 04 3f
        E 30 b4 04 3f
        E 30 b4 04 3f
        E 30 b4 04 3f
        E 30 b4 04 3f
        E 30 b4 04 3f
        E 30 b4 04 3e
        E 30 b4 04 3e
        E 30 b4 04 3d
        E 30 b4 04 3d
        E 30 b4 04 3c
        E 30 b4 04 3b
        E 30 b4 04 3a
        E 30 b4 04 3a
        E 30 b4 04 39
        E 30 b4 04 38
        E 30 b4 04 37
        E 30 b4 04 36
        E 30 b4 04 34
        E 30 b4 04 33
        E 30 b4 04 32
        E 30 b4 04 31
        E 30 b4 04 2f
        E 30 b4 04 2e
        E 30 b4 04 2c
        E 30 b4 04 2b
        E 30 b4 04 2a
        E 30 b4 04 28
        E 30 b4 04 27
        E 30 b4 04 25
        E 30 b4 04 23
        E 30 b4 04 22
        E 30 b4 04 20
        E 30 b4 04 1f
        E 30 b4 04 1d
        E 30 b4 04 1c
        E 30 b4 04 1a
        E 30 b4 04 18
        E 30 b4 04 17
        E 30 b4 04 15
        E 30 b4 04 14
        E 30 b4 04 13
        E 30 b4 04 11
        E 30 b4 04 10
        E 30 b4 04 0e
        E 30 b4 04 0d
        E 30 b4 04 0c
        E 30 b4 04 0b
        E 30 b4 04 09
        E 30 b4 04 08
        E 30 b4 04 07
        E 30 b4 04 06
        E 30 b4 04 05
        E 30 b4 04 05
        E 30 b4 04 04
        E 30 b4 04 03
        E 30 b4 04 02
        E 30 b4 04 02
        E 30 b4 04 01
        E 30 b4 04 01
        E 30 b4 04 00
        E 30 b4 04 00
        E 30 b4 04 00
        E 30 b4 04 00
        E 30 b4 04 00
        E 30 b4 04 00
        E 30 b4 04 00
        E 30 b4 04 00
        E 30 b4 04 00
        E 30 b4 04 01
        E 30 b4 04 01
        E 30 b4 04 02
        E 30 b4 04 02
        E 30 b4 04 03
        E 30 b4 04 03
        E 30 b4 04 04
        E 30 b4 04 05
        E 30 b4 04 06
        E 30 b4 04 07
        E 30 b4 04 08
        E 30 b4 04 09
        E 30 b4 04 0a
        E 30 b4 04 0b
        E 30 b4 04 0c
        E 30 b4 04 0e
        E 30 b4 04 0f
        E 30 b4 04 10
        E 30 b4 04 12
        E 30 b4 04 13
        E 30 b4 04 15
        E 30 b4 04 16
        E 30 b4 04 18
        E 30 b4 04 19
        E 30 b4 04 1b
        E 30 b4 04 1c
        E 30 b4 04 1e
        E 30 b4 04 20
        E 42 b4 04 20
        E 42 b4 04 21
        E 42 b4 04 23
        E 42 b4 04 24
        E 42 b4 04 26
        E 42 b4 04 27
        E 42 b4 04 29
        E 42 b4 04 2a
        E 42 b4 04 2c
        E 42 b4 04 2d
        E 42 b4 04 2f
        E 42 b4 04 30
        E 42 b4 04 31
        E 42 b4 04 33
        E 42 b4 04 34
        E 42 b4 04 35
        E 42 b4 04 36
        E 42 b4 04 37
        E 42 b4 04 38
        E 42 b4 04 39
        E 42 b4 04 3a
        E 42 b4 04 3b
        E 42 b4 04 3c
        E 42 b4 04 3c
        E 42 b4 04 3d
        E 42 b4 04 3d
        E 42 b4 04 3e
        E 42 b4 04 3e
        E 42 b4 04 3f
        E 42 b4 04 3f
        E 42 b4 04 3f
        E 42 b4 04 3f
        E 42 b4 04 3f
        E 42 b4 04 3f
        E 42 b4 04 3f
        E 42 b4 04 3f
        E 42 b4 04 3f
        E 42 b4 04 3e
        E 42 b4 04 3e
        E 42 b4 04 3d
        E 42 b4 04 3d
        E 42 b4 04 3c
        E 42 b4 04 3b
        E 42 b4 04 3a
        E 42 b4 04 3a
        E 42 b4 04 39
        E 42 b4 04 38
        E 42 b4 04 37
        E 42 b4 04 36
        E 42 b4 04 34
        E 42 b4 04 33
        E 42 b4 04 32
        E 42 b4 04 31
        E 42 b4 04 2f
        E 42 b4 04 2e
        E 42 b4 04 2c
        E 42 b4 04 2b
        E 42 b4 04 2a
        E 42 b4 04 28
        E 42 b4 04 27
        E 42 b4 04 25
        E 42 b4 04 23
        E 42 b4 04 22
        E 42 b4 04 20
        E 42 b4 04 1f
        E 42 b4 04 1d
        E 42 b4 04 1c
        E 42 b4 04 1a
        E 42 b4 04 18
        E 42 b4 04 17
        E 42 b4 04 15
        E 42 b4 04 14
        E 42 b4 04 13
        E 42 b4 04 11
        E 42 b4 04 10
        E 42 b4 04 0e
        E 42 b4 04 0d
        E 42 b4 04 0c
        E 42 b4 04 0b
        E 42 b4 04 09
        E 42 b4 04 08
        E 42 b4 04 07
        E 42 b4 04 06
        E 42 b4 04 05
        E 42 b4 04 05
        E 42 b4 04 04
        E 42 b4 04 03
        E 42 b4 04 02
        E 42 b4 04 02
        E 42 b4 04 01
        E 42 b4 04 01
        E 42 b4 04 00
        E 42 b4 04 00
        E 42 b4 04 00
        E 42 b4 04 00
        E 42 b4 04 00
        E 42 b4 04 00
        E 42 b4 04 00
        E 42 b4 04 00
        E 42 b4 04 00
        E 42 b4 04 01
        E 42 b4 04 01
        E 42 b4 04 02
        E 42 b4 04 02
        E 42 b4 04 03
        E 42 b4 04 03
        E 42 b4 04 04
        E 42 b4 04 05
        E 42 b4 04 06
        E 42 b4 04 07
        E 42 b4 04 08
        E 42 b4 04 09
        E 42 b4 04 0a
        E 42 b4 04 0b
        E 42 b4 04 0c
        E 42 b4 04 0e
        E 42 b4 04 0f
        E 42 b4 04 10
        E 42 b4 04 12
        E 42 b4 04 13
        E 42 b4 04 15
        E 42 b4 04 16
        E 42 b4 04 18
        E 42 b4 04 19
        E 42 b4 04 1b
        E 42 b4 04 1c
        E 42 b4 04 1e
        E 42 b4 04 20
        E 48 b4 04 40
        E 48 b4 04 43
        E 48 b4 04 46
        E 48 b4 04 49
        E 48 b4 04 4c
        E 48 b4 04 4f
        E 48 b4 04 52
        E 48 b4 04 55
        E 48 b4 04 58
        E 48 b4 04 5b
        E 48 b4 04 5e
        E 48 b4 04 60
        E 48 b4 04 63
        E 48 b4 04 66
        E 48 b4 04 68
        E 48 b4 04 6a
        E 48 b4 04 6d
        E 48 b4 04 6f
        E 48 b4 04 71
        E 48 b4 04 73
        E 48 b4 04 75
        E 48 b4 04 76
        E 48 b4 04 78
        E 48 b4 04 79
        E 48 b4 04 7a
        E 48 b4 04 7b
        E 48 b4 04 7c
        E 48 b4 04 7d
        E 48 b4 04 7e
        E 48 b4 04 7e
        E 48 b4 04 7f
        E 48 b4 04 7f
        E 48 b4 04 7f
        E 48 b4 04 7f
        E 48 b4 04 7f
        E 48 b4 04 7e
        E 48 b4 04 7e
        E 48 b4 04 7d
        E 48 b4 04 7c
        E 48 b4 04 7b
        E 48 b4 04 7a
        E 48 b4 04 78
        E 48 b4 04 77
        E 48 b4 04 75
        E 48 b4 04 74
        E 48 b4 04 72
        E 48 b4 04 70
        E 48 b4 04 6e
        E 48 b4 04 6c
        E 48 b4 04 69
        E 48 b4 04 67
        E 48 b4 04 64
        E 48 b4 04 62
        E 48 b4 04 5f
        E 48 b4 04 5c
        E 48 b4 04 59
        E 48 b4 04 57
        E 48 b4 04 54
        E 48 b4 04 51
        E 48 b4 04 4e
        E 48 b4 04 4a
        E 48 b4 04 47
        E 48 b4 04 44
        E 48 b4 04 41
        E 48 b4 04 3e
        E 48 b4 04 3b
        E 48 b4 04 38
        E 48 b4 04 35
        E 48 b4 04 31
        E 48 b4 04 2e
        E 48 b4 04 2b
        E 48 b4 04 28
        E 48 b4 04 26
        E 48 b4 04 23
        E 48 b4 04 20
        E 48 b4 04 1d
        E 48 b4 04 1b
        E 48 b4 04 18
        E 48 b4 04 16
        E 48 b4 04 13
        E 48 b4 04 11
        E 48 b4 04 0f
        E 48 b4 04 0d
        E 48 b4 04 0b
        E 48 b4 04 0a
        E 48 b4 04 08
        E 48 b4 04 07
        E 48 b4 04 05
        E 48 b4 04 04
        E 48 b4 04 03
        E 48 b4 04 02
        E 48 b4 04 01
        E 48 b4 04 01
        E 48 b4 04 00
        E 48 b4 04 00
        E 48 b4 04 00
        E 48 b4 04 00
        E 48 b4 04 00
        E 48 b4 04 01
        E 48 b4 04 01
        E 48 b4 04 02
        E 48 b4 04 03
        E 48 b4 04 04
        E 48 b4 04 05
        E 48 b4 04 06
        E 48 b4 04 07
        E 48 b4 04 09
        E 48 b4 04 0a
        E 48 b4 04 0c
        E 48 b4 04 0e
        E 48 b4 04 10
        E 48 b4 04 12
        E 48 b4 04 15
        E 48 b4 04 17
        E 48 b4 04 19
        E 48 b4 04 1c
        E 48 b4 04 1f
        E 48 b4 04 21
        E 48 b4 04 24
        E 48 b4 04 27
        E 48 b4 04 2a
        E 48 b4 04 2d
        E 48 b4 04 30
        E 48 b4 04 33
        E 48 b4 04 36
        E 48 b4 04 39
        E 48 b4 04 3c
        E 48 b4 04 40
        E 6 b4 04 39
        E 6 b4 04 3c
        E 6 b4 04 3f
        E 6 b4 04 41
        E 6 b4 04 44
        E 6 b4 04 47
        E 6 b4 04 49
        E 6 b4 04 4c
        E 6 b4 04 4f
        E 6 b4 04 51
        E 6 b4 04 54
        E 6 b4 04 56
        E 6 b4 04 59
        E 6 b4 04 5b
        E 6 b4 04 5d
        E 6 b4 04 5f
        E 6 b4 04 62
        E 6 b4 04 63
        E 6 b4 04 65
        E 6 b4 04 67
        E 6 b4 04 69
        E 6 b4 04 6a
        E 6 b4 04 6c
        E 6 b4 04 6c
        E 6 b4 04 6d
        E 6 b4 04 6e
        E 6 b4 04 6f
        E 6 b4 04 70
        E 6 b4 04 71
        E 6 b4 04 71
        E 6 b4 04 72
        E 6 b4 04 72
        E 6 b4 04 72
        E 6 b4 04 72
        E 6 b4 04 72
        E 6 b4 04 71
        E 6 b4 04 71
        E 6 b4 04 70
        E 6 b4 04 6f
        E 6 b4 04 6e
        E 6 b4 04 6d
        E 6 b4 04 6c
        E 6 b4 04 6b
        E 6 b4 04 69
        E 6 b4 04 68
        E 6 b4 04 66
        E 6 b4 04 64
        E 6 b4 04 63
        E 6 b4 04 61
        E 6 b4 04 5e
        E 6 b4 04 5c
        E 6 b4 04 5a
        E 6 b4 04 58
        E 6 b4 04 55
        E 6 b4 04 52
        E 6 b4 04 50
        E 6 b4 04 4e
        E 6 b4 04 4b
        E 6 b4 04 48
        E 6 b4 04 46
        E 6 b4 04 42
        E 6 b4 04 3f
        E 6 b4 04 3d
        E 6 b4 04 3a
        E 6 b4 04 37
        E 6 b4 04 35
        E 6 b4 04 32
        E 6 b4 04 2f
        E 6 b4 04 2c
        E 6 b4 04 29
        E 6 b4 04 26
        E 6 b4 04 24
        E 6 b4 04 22
        E 6 b4 04 1f
        E 6 b4 04 1c
        E 6 b4 04 1a
        E 6 b4 04 18
        E 6 b4 04 15
        E 6 b4 04 13
        E 6 b4 04 11
        E 6 b4 04 0f
        E 6 b4 04 0d
        E 6 b4 04 0b
        E 6 b4 04 09
        E 6 b4 04 09
        E 6 b4 04 07
        E 6 b4 04 06
        E 6 b4 04 04
        E 6 b4 04 03
        E 6 b4 04 02
        E 6 b4 04 01
        E 6 b4 04 00
        E 6 b4 04 00
        E 6 b4 04 00
        E 6 b4 04 00
        E 6 b4 04 00
        E 6 b4 04 00
        E 6 b4 04 00
        E 6 b4 04 00
        E 6 b4 04 00
        E 6 b4 04 01
        E 6 b4 04 02
        E 6 b4 04 03
        E 6 b4 04 04
        E 6 b4 04 05
        E 6 b4 04 06
        E 6 b4 04 08
        E 6 b4 04 09
        E 6 b4 04 0a
        E 6 b4 04 0c
        E 6 b4 04 0e
        E 6 b4 04 10
        E 6 b4 04 12
        E 6 b4 04 14
        E 6 b4 04 16
        E 6 b4 04 19
        E 6 b4 04 1b
        E 6 b4 04 1d
        E 6 b4 04 20
        E 6 b4 04 23
        E 6 b4 04 25
        E 6 b4 04 28
        E 6 b4 04 2b
        E 6 b4 04 2d
        E 6 b4 04 30
        E 6 b4 04 33
        E 6 b4 04 36
        E 6 b4 04 39
        E 24 b4 04 40
        E 24 b4 04 43
        E 24 b4 04 46
        E 24 b4 04 49
        E 24 b4 04 4c
        E 24 b4 04 4f
        E 24 b4 04 52
        E 24 b4 04 55
        E 24 b4 04 58
        E 24 b4 04 5b
        E 24 b4 04 5e
        E 24 b4 04 60
        E 24 b4 04 63
        E 24 b4 04 66
        E 24 b4 04 68
        E 24 b4 04 6a
        E 24 b4 04 6d
        E 24 b4 04 6f
        E 24 b4 04 71
        E 24 b4 04 73
        E 24 b4 04 75
        E 24 b4 04 76
        E 24 b4 04 78
        E 24 b4 04 79
        E 24 b4 04 7a
        E 24 b4 04 7b
        E 24 b4 04 7c
        E 24 b4 04 7d
        E 24 b4 04 7e
        E 24 b4 04 7e
        E 24 b4 04 7f
        E 24 b4 04 7f
        E 24 b4 04 7f
        E 24 b4 04 7f
        E 24 b4 04 7f
        E 24 b4 04 7e
        E 24 b4 04 7e
        E 24 b4 04 7d
        E 24 b4 04 7c
        E 24 b4 04 7b
        E 24 b4 04 7a
        E 24 b4 04 78
        E 24 b4 04 77
        E 24 b4 04 75
        E 24 b4 04 74
        E 24 b4 04 72
        E 24 b4 04 70
        E 24 b4 04 6e
        E 24 b4 04 6c
        E 24 b4 04 69
        E 24 b4 04 67
        E 24 b4 04 64
        E 24 b4 04 62
        E 24 b4 04 5f
        E 24 b4 04 5c
        E 24 b4 04 59
        E 24 b4 04 57
        E 24 b4 04 54
        E 24 b4 04 51
        E 24 b4 04 4e
        E 24 b4 04 4a
        E 24 b4 04 47
        E 24 b4 04 44
        E 24 b4 04 41
        E 24 b4 04 3e
        E 24 b4 04 3b
        E 24 b4 04 38
        E 24 b4 04 35
        E 24 b4 04 31
        E 24 b4 04 2e
        E 24 b4 04 2b
        E 24 b4 04 28
        E 24 b4 04 26
        E 24 b4 04 23
        E 24 b4 04 20
        E 24 b4 04 1d
        E 24 b4 04 1b
        E 24 b4 04 18
        E 24 b4 04 16
        E 24 b4 04 13
        E 24 b4 04 11
        E 24 b4 04 0f
        E 24 b4 04 0d
        E 24 b4 04 0b
        E 24 b4 04 0a
        E 24 b4 04 08
        E 24 b4 04 07
        E 24 b4 04 05
        E 24 b4 04 04
        E 24 b4 04 03
        E 24 b4 04 02
        E 24 b4 04 01
        E 24 b4 04 01
        E 24 b4 04 00
        E 24 b4 04 00
        E 24 b4 04 00
        E 24 b4 04 00
        E 24 b4 04 00
        E 24 b4 04 01
        E 24 b4 04 01
        E 24 b4 04 02
        E 24 b4 04 03
        E 24 b4 04 04
        E 24 b4 04 05
        E 24 b4 04 06
        E 24 b4 04 07
        E 24 b4 04 09
        E 24 b4 04 0a
        E 24 b4 04 0c
        E 24 b4 04 0e
        E 24 b4 04 10
        E 24 b4 04 12
        E 24 b4 04 15
        E 24 b4 04 17
        E 24 b4 04 19
        E 24 b4 04 1c
        E 24 b4 04 1f
        E 24 b4 04 21
        E 24 b4 04 24
        E 24 b4 04 27
        E 24 b4 04 2a
        E 24 b4 04 2d
        E 24 b4 04 30
        E 24 b4 04 33
        E 24 b4 04 36
        E 24 b4 04 39
        E 24 b4 04 3c
        E 24 b4 04 40
        E 30 b4 04 20
        E 30 b4 04 21
        E 30 b4 04 23
        E 30 b4 04 24
        E 30 b4 04 26
        E 30 b4 04 27
        E 30 b4 04 29
        E 30 b4 04 2a
        E 30 b4 04 2c
        E 30 b4 04 2d
        E 30 b4 04 2f
        E 30 b4 04 30
        E 30 b4 04 31
        E 30 b4 04 33
        E 30 b4 04 34
        E 30 b4 04 35
        E 30 b4 04 36
        E 30 b4 04 37
        E 30 b4 04 38
        E 30 b4 04 39
        E 30 b4 04 3a
        E 30 b4 04 3b
        E 30 b4 04 3c
        E 30 b4 04 3c
        E 30 b4 04 3d
        E 30 b4 04 3d
        E 30 b4 04 3e
        E 30 b4 04 3e
        E 30 b4 04 3f
        E 30 b4 04 3f
        E 30 b4 04 3f
        E 30 b4 04 3f
        E 30 b4 04 3f
        E 30 b4 04 3f
        E 30 b4 04 3f
        E 30 b4 04 3f
        E 30 b4 04 3f
        E 30 b4 04 3e
        E 30 b4 04 3e
        E 30 b4 04 3d
        E 30 b4 04 3d
        E 30 b4 04 3c
        E 30 b4 04 3b
        E 30 b4 04 3a
        E 30 b4 04 3a
        E 30 b4 04 39
        E 30 b4 04 38
        E 30 b4 04 37
        E 30 b4 04 36
        E 30 b4 04 34
        E 30 b4 04 33
        E 30 b4 04 32
        E 30 b4 04 31
        E 30 b4 04 2f
        E 30 b4 04 2e
        E 30 b4 04 2c
        E 30 b4 04 2b
        E 30 b4 04 2a
        E 30 b4 04 28
        E 30 b4 04 27
        E 30 b4 04 25
        E 30 b4 04 23
        E 30 b4 04 22
        E 30 b4 04 20
        E 30 b4 04 1f
        E 30 b4 04 1d
        E 30 b4 04 1c
        E 30 b4 04 1a
        E 30 b4 04 18
        E 30 b4 04 17
        E 30 b4 04 15
        E 30 b4 04 14
        E 30 b4 04 13
        E 30 b4 04 11
        E 30 b4 04 10
        E 30 b4 04 0e
        E 30 b4 04 0d
        E 30 b4 04 0c
        E 30 b4 04 0b
        E 30 b4 04 09
        E 30 b4 04 08
        E 30 b4 04 07
        E 30 b4 04 06
        E 30 b4 04 05
        E 30 b4 04 05
        E 30 b4 04 04
        E 30 b4 04 03
        E 30 b4 04 02
        E 30 b4 04 02
        E 30 b4 04 01
        E 30 b4 04 01
        E 30 b4 04 00
        E 30 b4 04 00
        E 30 b4 04 00
        E 30 b4 04 00
        E 30 b4 04 00
        E 30 b4 04 00
        E 30 b4 04 00
        E 30 b4 04 00
        E 30 b4 04 00
        E 30 b4 04 01
        E 30 b4 04 01
        E 30 b4 04 02
        E 30 b4 04 02
        E 30 b4 04 03
        E 30 b4 04 03
        E 30 b4 04 04
        E 30 b4 04 05
        E 30 b4 04 06
        E 30 b4 04 07
        E 30 b4 04 08
        E 30 b4 04 09
        E 30 b4 04 0a
        E 30 b4 04 0b
        E 30 b4 04 0c
        E 30 b4 04 0e
        E 30 b4 04 0f
        E 30 b4 04 10
        E 30 b4 04 12
        E 30 b4 04 13
        E 30 b4 04 15
        E 30 b4 04 16
        E 30 b4 04 18
        E 30 b4 04 19
        E 30 b4 04 1b
        E 30 b4 04 1c
        E 30 b4 04 1e
        E 30 b4 04 20
        E 61 b4 04 2c
        E 61 b4 04 2e
        E 61 b4 04 31
        E 61 b4 04 33
        E 61 b4 04 35
        E 61 b4 04 37
        E 61 b4 04 39
        E 61 b4 04 3b
        E 61 b4 04 3d
        E 61 b4 04 3f
        E 61 b4 04 41
        E 61 b4 04 43
        E 61 b4 04 45
        E 61 b4 04 47
        E 61 b4 04 48
        E 61 b4 04 4a
        E 61 b4 04 4c
        E 61 b4 04 4d
        E 61 b4 04 4f
        E 61 b4 04 50
        E 61 b4 04 51
        E 61 b4 04 52
        E 61 b4 04 54
        E 61 b4 04 54
        E 61 b4 04 55
        E 61 b4 04 56
        E 61 b4 04 56
        E 61 b4 04 57
        E 61 b4 04 58
        E 61 b4 04 58
        E 61 b4 04 58
        E 61 b4 04 58
        E 61 b4 04 58
        E 61 b4 04 58
        E 61 b4 04 58
        E 61 b4 04 58
        E 61 b4 04 58
        E 61 b4 04 57
        E 61 b4 04 56
        E 61 b4 04 56
        E 61 b4 04 55
        E 61 b4 04 54
        E 61 b4 04 53
        E 61 b4 04 51
        E 61 b4 04 51
        E 61 b4 04 4f
        E 61 b4 04 4e
        E 61 b4 04 4d
        E 61 b4 04 4b
        E 61 b4 04 49
        E 61 b4 04 48
        E 61 b4 04 46
        E 61 b4 04 44
        E 61 b4 04 42
        E 61 b4 04 40
        E 61 b4 04 3e
        E 61 b4 04 3c
        E 61 b4 04 3a
        E 61 b4 04 38
        E 61 b4 04 36
        E 61 b4 04 33
        E 61 b4 04 31
        E 61 b4 04 2f
        E 61 b4 04 2d
        E 61 b4 04 2b
        E 61 b4 04 29
        E 61 b4 04 27
        E 61 b4 04 25
        E 61 b4 04 22
        E 61 b4 04 20
        E 61 b4 04 1e
        E 61 b4 04 1c
        E 61 b4 04 1a
        E 61 b4 04 18
        E 61 b4 04 16
        E 61 b4 04 14
        E 61 b4 04 12
        E 61 b4 04 10
        E 61 b4 04 0f
        E 61 b4 04 0d
        E 61 b4 04 0b
        E 61 b4 04 0a
        E 61 b4 04 09
        E 61 b4 04 07
        E 61 b4 04 07
        E 61 b4 04 05
        E 61 b4 04 04
        E 61 b4 04 03
        E 61 b4 04 02
        E 61 b4 04 02
        E 61 b4 04 01
        E 61 b4 04 00
        E 61 b4 04 00
        E 61 b4 04 00
        E 61 b4 04 00
        E 61 b4 04 00
        E 61 b4 04 00
        E 61 b4 04 00
        E 61 b4 04 00
        E 61 b4 04 00
        E 61 b4 04 01
        E 61 b4 04 02
        E 61 b4 04 02
        E 61 b4 04 03
        E 61 b4 04 04
        E 61 b4 04 04
        E 61 b4 04 06
        E 61 b4 04 07
        E 61 b4 04 08
        E 61 b4 04 09
        E 61 b4 04 0b
        E 61 b4 04 0c
        E 61 b4 04 0e
        E 61 b4 04 10
        E 61 b4 04 11
        E 61 b4 04 13
        E 61 b4 04 15
        E 61 b4 04 17
        E 61 b4 04 19
        E 61 b4 04 1b
        E 61 b4 04 1d
        E 61 b4 04 1f
        E 61 b4 04 21
        E 61 b4 04 23
        E 61 b4 04 25
        E 61 b4 04 27
        E 61 b4 04 2a
        E 61 b4 04 2c
        E 54 b4 04 33
        E 54 b4 04 35
        E 54 b4 04 37
        E 54 b4 04 3a
        E 54 b4 04 3c
        E 54 b4 04 3f
        E 54 b4 04 41
        E 54 b4 04 44
        E 54 b4 04 46
        E 54 b4 04 48
        E 54 b4 04 4b
        E 54 b4 04 4c
        E 54 b4 04 4f
        E 54 b4 04 51
        E 54 b4 04 53
        E 54 b4 04 54
        E 54 b4 04 57
        E 54 b4 04 58
        E 54 b4 04 5a
        E 54 b4 04 5b
        E 54 b4 04 5d
        E 54 b4 04 5e
        E 54 b4 04 5f
        E 54 b4 04 60
        E 54 b4 04 61
        E 54 b4 04 62
        E 54 b4 04 63
        E 54 b4 04 63
        E 54 b4 04 64
        E 54 b4 04 64
        E 54 b4 04 65
        E 54 b4 04 65
        E 54 b4 04 65
        E 54 b4 04 65
        E 54 b4 04 65
        E 54 b4 04 64
        E 54 b4 04 64
        E 54 b4 04 63
        E 54 b4 04 63
        E 54 b4 04 62
        E 54 b4 04 61
        E 54 b4 04 5f
        E 54 b4 04 5f
        E 54 b4 04 5d
        E 54 b4 04 5c
        E 54 b4 04 5b
        E 54 b4 04 59
        E 54 b4 04 57
        E 54 b4 04 56
        E 54 b4 04 54
        E 54 b4 04 52
        E 54 b4 04 50
        E 54 b4 04 4e
        E 54 b4 04 4c
        E 54 b4 04 49
        E 54 b4 04 47
        E 54 b4 04 45
        E 54 b4 04 43
        E 54 b4 04 40
        E 54 b4 04 3e
        E 54 b4 04 3b
        E 54 b4 04 38
        E 54 b4 04 36
        E 54 b4 04 33
        E 54 b4 04 31
        E 54 b4 04 2f
        E 54 b4 04 2c
        E 54 b4 04 2a
        E 54 b4 04 27
        E 54 b4 04 24
        E 54 b4 04 22
        E 54 b4 04 1f
        E 54 b4 04 1e
        E 54 b4 04 1b
        E 54 b4 04 19
        E 54 b4 04 17
        E 54 b4 04 15
        E 54 b4 04 13
        E 54 b4 04 11
        E 54 b4 04 0f
        E 54 b4 04 0d
        E 54 b4 04 0b
        E 54 b4 04 0a
        E 54 b4 04 08
        E 54 b4 04 07
        E 54 b4 04 06
        E 54 b4 04 05
        E 54 b4 04 03
        E 54 b4 04 03
        E 54 b4 04 02
        E 54 b4 04 01
        E 54 b4 04 00
        E 54 b4 04 00
        E 54 b4 04 00
        E 54 b4 04 00
        E 54 b4 04 00
        E 54 b4 04 00
        E 54 b4 04 00
        E 54 b4 04 00
        E 54 b4 04 00
        E 54 b4 04 01
        E 54 b4 04 02
        E 54 b4 04 03
        E 54 b4 04 03
        E 54 b4 04 04
        E 54 b4 04 05
        E 54 b4 04 07
        E 54 b4 04 07
        E 54 b4 04 09
        E 54 b4 04 0b
        E 54 b4 04 0c
        E 54 b4 04 0e
        E 54 b4 04 10
        E 54 b4 04 12
        E 54 b4 04 14
        E 54 b4 04 16
        E 54 b4 04 18
        E 54 b4 04 1a
        E 54 b4 04 1c
        E 54 b4 04 1f
        E 54 b4 04 21
        E 54 b4 04 24
        E 54 b4 04 26
        E 54 b4 04 28
        E 54 b4 04 2b
        E 54 b4 04 2d
        E 54 b4 04 2f
        E 54 b4 04 33
        E 61 b4 04 06
        E 61 b4 04 06
        E 61 b4 04 07
        E 61 b4 04 07
        E 61 b4 04 07
        E 61 b4 04 07
        E 61 b4 04 08
        E 61 b4 04 08
        E 61 b4 04 08
        E 61 b4 04 09
        E 61 b4 04 09
        E 61 b4 04 09
        E 61 b4 04 09
        E 61 b4 04 0a
        E 61 b4 04 0a
        E 61 b4 04 0a
        E 61 b4 04 0a
        E 61 b4 04 0b
        E 61 b4 04 0b
        E 61 b4 04 0b
        E 61 b4 04 0b
        E 61 b4 04 0b
        E 61 b4 04 0c
        E 61 b4 04 0c
        E 61 b4 04 0c
        E 61 b4 04 0c
        E 61 b4 04 0c
        E 61 b4 04 0c
        E 61 b4 04 0c
        E 61 b4 04 0c
        E 61 b4 04 0c
        E 61 b4 04 0c
        E 61 b4 04 0c
        E 61 b4 04 0c
        E 61 b4 04 0c
        E 61 b4 04 0c
        E 61 b4 04 0c
        E 61 b4 04 0c
        E 61 b4 04 0c
        E 61 b4 04 0c
        E 61 b4 04 0c
        E 61 b4 04 0c
        E 61 b4 04 0b
        E 61 b4 04 0b
        E 61 b4 04 0b
        E 61 b4 04 0b
        E 61 b4 04 0b
        E 61 b4 04 0b
        E 61 b4 04 0a
        E 61 b4 04 0a
        E 61 b4 04 0a
        E 61 b4 04 0a
        E 61 b4 04 09
        E 61 b4 04 09
        E 61 b4 04 09
        E 61 b4 04 08
        E 61 b4 04 08
        E 61 b4 04 08
        E 61 b4 04 08
        E 61 b4 04 07
        E 61 b4 04 07
        E 61 b4 04 07
        E 61 b4 04 06
        E 61 b4 04 06
        E 61 b4 04 06
        E 61 b4 04 05
        E 61 b4 04 05
        E 61 b4 04 05
        E 61 b4 04 04
        E 61 b4 04 04
        E 61 b4 04 04
        E 61 b4 04 04
        E 61 b4 04 03
        E 61 b4 04 03
        E 61 b4 04 03
        E 61 b4 04 02
        E 61 b4 04 02
        E 61 b4 04 02
        E 61 b4 04 02
        E 61 b4 04 01
        E 61 b4 04 01
        E 61 b4 04 01
        E 61 b4 04 01
        E 61 b4 04 01
        E 61 b4 04 01
        E 61 b4 04 00
        E 61 b4 04 00
        E 61 b4 04 00
        E 61 b4 04 00
        E 61 b4 04 00
        E 61 b4 04 00
        E 61 b4 04 00
        E 61 b4 04 00
        E 61 b4 04 00
        E 61 b4 04 00
        E 61 b4 04 00
        E 61 b4 04 00
        E 61 b4 04 00
        E 61 b4 04 00
        E 61 b4 04 00
        E 61 b4 04 00
        E 61 b4 04 00
        E 61 b4 04 00
        E 61 b4 04 00
        E 61 b4 04 00
        E 61 b4 04 00
        E 61 b4 04 00
        E 61 b4 04 01
        E 61 b4 04 01
        E 61 b4 04 01
        E 61 b4 04 01
        E 61 b4 04 01
        E 61 b4 04 02
        E 61 b4 04 02
        E 61 b4 04 02
        E 61 b4 04 02
        E 61 b4 04 03
        E 61 b4 04 03
        E 61 b4 04 03
        E 61 b4 04 03
        E 61 b4 04 04
        E 61 b4 04 04
        E 61 b4 04 04
        E 61 b4 04 05
        E 61 b4 04 05
        E 61 b4 04 05
        E 61 b4 04 06
        E 61 b4 04 06
        E 54 b4 04 19
        E 54 b4 04 1a
        E 54 b4 04 1c
        E 54 b4 04 1d
        E 54 b4 04 1e
        E 54 b4 04 1f
        E 54 b4 04 20
        E 54 b4 04 22
        E 54 b4 04 23
        E 54 b4 04 24
        E 54 b4 04 25
        E 54 b4 04 26
        E 54 b4 04 27
        E 54 b4 04 28
        E 54 b4 04 29
        E 54 b4 04 2a
        E 54 b4 04 2b
        E 54 b4 04 2c
        E 54 b4 04 2d
        E 54 b4 04 2e
        E 54 b4 04 2e
        E 54 b4 04 2f
        E 54 b4 04 30
        E 54 b4 04 30
        E 54 b4 04 30
        E 54 b4 04 31
        E 54 b4 04 31
        E 54 b4 04 32
        E 54 b4 04 32
        E 54 b4 04 32
        E 54 b4 04 32
        E 54 b4 04 32
        E 54 b4 04 32
        E 54 b4 04 32
        E 54 b4 04 32
        E 54 b4 04 32
        E 54 b4 04 32
        E 54 b4 04 32
        E 54 b4 04 31
        E 54 b4 04 31
        E 54 b4 04 30
        E 54 b4 04 30
        E 54 b4 04 2f
        E 54 b4 04 2e
        E 54 b4 04 2e
        E 54 b4 04 2d
        E 54 b4 04 2c
        E 54 b4 04 2c
        E 54 b4 04 2b
        E 54 b4 04 2a
        E 54 b4 04 29
        E 54 b4 04 28
        E 54 b4 04 27
        E 54 b4 04 26
        E 54 b4 04 24
        E 54 b4 04 23
        E 54 b4 04 22
        E 54 b4 04 21
        E 54 b4 04 20
        E 54 b4 04 1f
        E 54 b4 04 1d
        E 54 b4 04 1c
        E 54 b4 04 1b
        E 54 b4 04 1a
        E 54 b4 04 18
        E 54 b4 04 17
        E 54 b4 04 16
        E 54 b4 04 15
        E 54 b4 04 13
        E 54 b4 04 12
        E 54 b4 04 11
        E 54 b4 04 10
        E 54 b4 04 0f
        E 54 b4 04 0e
        E 54 b4 04 0c
        E 54 b4 04 0b
        E 54 b4 04 0a
        E 54 b4 04 09
        E 54 b4 04 08
        E 54 b4 04 07
        E 54 b4 04 06
        E 54 b4 04 06
        E 54 b4 04 05
        E 54 b4 04 04
        E 54 b4 04 04
        E 54 b4 04 03
        E 54 b4 04 02
        E 54 b4 04 02
        E 54 b4 04 01
        E 54 b4 04 01
        E 54 b4 04 00
        E 54 b4 04 00
        E 54 b4 04 00
        E 54 b4 04 00
        E 54 b4 04 00
        E 54 b4 04 00
        E 54 b4 04 00
        E 54 b4 04 00
        E 54 b4 04 00
        E 54 b4 04 00
        E 54 b4 04 00
        E 54 b4 04 01
        E 54 b4 04 01
        E 54 b4 04 02
        E 54 b4 04 02
        E 54 b4 04 02
        E 54 b4 04 03
        E 54 b4 04 04
        E 54 b4 04 04
        E 54 b4 04 05
        E 54 b4 04 06
        E 54 b4 04 07
        E 54 b4 04 08
        E 54 b4 04 09
        E 54 b4 04 0a
        E 54 b4 04 0b
        E 54 b4 04 0c
        E 54 b4 04 0d
        E 54 b4 04 0e
        E 54 b4 04 0f
        E 54 b4 04 10
        E 54 b4 04 12
        E 54 b4 04 13
        E 54 b4 04 14
        E 54 b4 04 15
        E 54 b4 04 16
        E 54 b4 04 18
        E 54 b4 04 19
        E 30 b4 04 2c
        E 30 b4 04 2e
        E 30 b4 04 31
        E 30 b4 04 33
        E 30 b4 04 35
        E 30 b4 04 37
        E 30 b4 04 39
        E 30 b4 04 3b
        E 30 b4 04 3d
        E 30 b4 04 3f
        E 30 b4 04 41
        E 30 b4 04 43
        E 30 b4 04 45
        E 30 b4 04 47
        E 30 b4 04 48
        E 30 b4 04 4a
        E 30 b4 04 4c
        E 30 b4 04 4d
        E 30 b4 04 4f
        E 30 b4 04 50
        E 30 b4 04 51
        E 30 b4 04 52
        E 30 b4 04 54
        E 30 b4 04 54
        E 30 b4 04 55
        E 30 b4 04 56
        E 30 b4 04 56
        E 30 b4 04 57
        E 30 b4 04 58
        E 30 b4 04 58
        E 30 b4 04 58
        E 30 b4 04 58
        E 30 b4 04 58
        E 30 b4 04 58
        E 30 b4 04 58
        E 30 b4 04 58
        E 30 b4 04 58
        E 30 b4 04 57
        E 30 b4 04 56
        E 30 b4 04 56
        E 30 b4 04 55
        E 30 b4 04 54
        E 30 b4 04 53
        E 30 b4 04 51
        E 30 b4 04 51
        E 30 b4 04 4f
        E 30 b4 04 4e
        E 30 b4 04 4d
        E 30 b4 04 4b
        E 30 b4 04 49
        E 30 b4 04 48
        E 30 b4 04 46
        E 30 b4 04 44
        E 30 b4 04 42
        E 30 b4 04 40
        E 30 b4 04 3e
        E 30 b4 04 3c
        E 30 b4 04 3a
        E 30 b4 04 38
        E 30 b4 04 36
        E 30 b4 04 33
        E 30 b4 04 31
        E 30 b4 04 2f
        E 30 b4 04 2d
        E 30 b4 04 2b
        E 30 b4 04 29
        E 30 b4 04 27
        E 30 b4 04 25
        E 30 b4 04 22
        E 30 b4 04 20
        E 30 b4 04 1e
        E 30 b4 04 1c
        E 30 b4 04 1a
        E 30 b4 04 18
        E 30 b4 04 16
        E 30 b4 04 14
        E 30 b4 04 12
        E 30 b4 04 10
        E 30 b4 04 0f
        E 30 b4 04 0d
        E 30 b4 04 0b
        E 30 b4 04 0a
        E 30 b4 04 09
        E 30 b4 04 07
        E 30 b4 04 07
        E 30 b4 04 05
        E 30 b4 04 04
        E 30 b4 04 03
        E 30 b4 04 02
        E 30 b4 04 02
        E 30 b4 04 01
        E 30 b4 04 00
        E 30 b4 04 00
        E 30 b4 04 00
        E 30 b4 04 00
        E 30 b4 04 00
        E 30 b4 04 00
        E 30 b4 04 00
        E 30 b4 04 00
        E 30 b4 04 00
        E 30 b4 04 01
        E 30 b4 04 02
        E 30 b4 04 02
        E 30 b4 04 03
        E 30 b4 04 04
        E 30 b4 04 04
        E 30 b4 04 06
        E 30 b4 04 07
        E 30 b4 04 08
        E 30 b4 04 09
        E 30 b4 04 0b
        E 30 b4 04 0c
        E 30 b4 04 0e
        E 30 b4 04 10
        E 30 b4 04 11
        E 30 b4 04 13
        E 30 b4 04 15
        E 30 b4 04 17
        E 30 b4 04 19
        E 30 b4 04 1b
        E 30 b4 04 1d
        E 30 b4 04 1f
        E 30 b4 04 21
        E 30 b4 04 23
        E 30 b4 04 25
        E 30 b4 04 27
        E 30 b4 04 2a
        E 30 b4 04 2c
        E 30 b4 04 20
        E 30 b4 04 21
        E 30 b4 04 23
        E 30 b4 04 24
        E 30 b4 04 26
        E 30 b4 04 27
        E 30 b4 04 29
        E 30 b4 04 2a
        E 30 b4 04 2c
        E 30 b4 04 2d
        E 30 b4 04 2f
        E 30 b4 04 30
        E 30 b4 04 31
        E 30 b4 04 33
        E 30 b4 04 34
        E 30 b4 04 35
        E 30 b4 04 36
        E 30 b4 04 37
        E 30 b4 04 38
        E 30 b4 04 39
        E 30 b4 04 3a
        E 30 b4 04 3b
        E 30 b4 04 3c
        E 30 b4 04 3c
        E 30 b4 04 3d
        E 30 b4 04 3d
        E 30 b4 04 3e
        E 30 b4 04 3e
        E 30 b4 04 3f
        E 30 b4 04 3f
        E 30 b4 04 3f
        E 30 b4 04 3f
        E 30 b4 04 3f
        E 30 b4 04 3f
        E 30 b4 04 3f
        E 30 b4 04 3f
        E 30 b4 04 3f
        E 30 b4 04 3e
        E 30 b4 04 3e
        E 30 b4 04 3d
        E 30 b4 04 3d
        E 30 b4 04 3c
        E 30 b4 04 3b
        E 30 b4 04 3a
        E 30 b4 04 3a
        E 30 b4 04 39
        E 30 b4 04 38
        E 30 b4 04 37
        E 30 b4 04 36
        E 30 b4 04 34
        E 30 b4 04 33
        E 30 b4 04 32
        E 30 b4 04 31
        E 30 b4 04 2f
        E 30 b4 04 2e
        E 30 b4 04 2c
        E 30 b4 04 2b
        E 30 b4 04 2a
        E 30 b4 04 28
        E 30 b4 04 27
        E 30 b4 04 25
        E 30 b4 04 23
        E 30 b4 04 22
        E 30 b4 04 20
        E 30 b4 04 1f
        E 30 b4 04 1d
        E 30 b4 04 1c
        E 30 b4 04 1a
        E 30 b4 04 18
        E 30 b4 04 17
        E 30 b4 04 15
        E 30 b4 04 14
        E 30 b4 04 13
        E 30 b4 04 11
        E 30 b4 04 10
        E 30 b4 04 0e
        E 30 b4 04 0d
        E 30 b4 04 0c
        E 30 b4 04 0b
        E 30 b4 04 09
        E 30 b4 04 08
        E 30 b4 04 07
        E 30 b4 04 06
        E 30 b4 04 05
        E 30 b4 04 05
        E 30 b4 04 04
        E 30 b4 04 03
        E 30 b4 04 02
        E 30 b4 04 02
        E 30 b4 04 01
        E 30 b4 04 01
        E 30 b4 04 00
        E 30 b4 04 00
        E 30 b4 04 00
        E 30 b4 04 00
        E 30 b4 04 00
        E 30 b4 04 00
        E 30 b4 04 00
        E 30 b4 04 00
        E 30 b4 04 00
        E 30 b4 04 01
        E 30 b4 04 01
        E 30 b4 04 02
        E 30 b4 04 02
        E 30 b4 04 03
        E 30 b4 04 03
        E 30 b4 04 04
        E 30 b4 04 05
        E 30 b4 04 06
        E 30 b4 04 07
        E 30 b4 04 08
        E 30 b4 04 09
        E 30 b4 04 0a
        E 30 b4 04 0b
        E 30 b4 04 0c
        E 30 b4 04 0e
        E 30 b4 04 0f
        E 30 b4 04 10
        E 30 b4 04 12
        E 30 b4 04 13
        E 30 b4 04 15
        E 30 b4 04 16
        E 30 b4 04 18
        E 30 b4 04 19
        E 30 b4 04 1b
        E 30 b4 04 1c
        E 30 b4 04 1e
        E 30 b4 04 20
        E 42 b4 04 20
        E 42 b4 04 21
        E 42 b4 04 23
        E 42 b4 04 24
        E 42 b4 04 26
        E 42 b4 04 27
        E 42 b4 04 29
        E 42 b4 04 2a
        E 42 b4 04 2c
        E 42 b4 04 2d
        E 42 b4 04 2f
        E 42 b4 04 30
        E 42 b4 04 31
        E 42 b4 04 33
        E 42 b4 04 34
        E 42 b4 04 35
        E 42 b4 04 36
        E 42 b4 04 37
        E 42 b4 04 38
        E 42 b4 04 39
        E 42 b4 04 3a
        E 42 b4 04 3b
        E 42 b4 04 3c
        E 42 b4 04 3c
        E 42 b4 04 3d
        E 42 b4 04 3d
        E 42 b4 04 3e
        E 42 b4 04 3e
        E 42 b4 04 3f
        E 42 b4 04 3f
        E 42 b4 04 3f
        E 42 b4 04 3f
        E 42 b4 04 3f
        E 42 b4 04 3f
        E 42 b4 04 3f
        E 42 b4 04 3f
        E 42 b4 04 3f
        E 42 b4 04 3e
        E 42 b4 04 3e
        E 42 b4 04 3d
        E 42 b4 04 3d
        E 42 b4 04 3c
        E 42 b4 04 3b
        E 42 b4 04 3a
        E 42 b4 04 3a
        E 42 b4 04 39
        E 42 b4 04 38
        E 42 b4 04 37
        E 42 b4 04 36
        E 42 b4 04 34
        E 42 b4 04 33
        E 42 b4 04 32
        E 42 b4 04 31
        E 42 b4 04 2f
        E 42 b4 04 2e
        E 42 b4 04 2c
        E 42 b4 04 2b
        E 42 b4 04 2a
        E 42 b4 04 28
        E 42 b4 04 27
        E 42 b4 04 25
        E 42 b4 04 23
        E 42 b4 04 22
        E 42 b4 04 20
        E 42 b4 04 1f
        E 42 b4 04 1d
        E 42 b4 04 1c
        E 42 b4 04 1a
        E 42 b4 04 18
        E 42 b4 04 17
        E 42 b4 04 15
        E 42 b4 04 14
        E 42 b4 04 13
        E 42 b4 04 11
        E 42 b4 04 10
        E 42 b4 04 0e
        E 42 b4 04 0d
        E 42 b4 04 0c
        E 42 b4 04 0b
        E 42 b4 04 09
        E 42 b4 04 08
        E 42 b4 04 07
        E 42 b4 04 06
        E 42 b4 04 05
        E 42 b4 04 05
        E 42 b4 04 04
        E 42 b4 04 03
        E 42 b4 04 02
        E 42 b4 04 02
        E 42 b4 04 01
        E 42 b4 04 01
        E 42 b4 04 00
        E 42 b4 04 00
        E 42 b4 04 00
        E 42 b4 04 00
        E 42 b4 04 00
        E 42 b4 04 00
        E 42 b4 04 00
        E 42 b4 04 00
        E 42 b4 04 00
        E 42 b4 04 01
        E 42 b4 04 01
        E 42 b4 04 02
        E 42 b4 04 02
        E 42 b4 04 03
        E 42 b4 04 03
        E 42 b4 04 04
        E 42 b4 04 05
        E 42 b4 04 06
        E 42 b4 04 07
        E 42 b4 04 08
        E 42 b4 04 09
        E 42 b4 04 0a
        E 42 b4 04 0b
        E 42 b4 04 0c
        E 42 b4 04 0e
        E 42 b4 04 0f
        E 42 b4 04 10
        E 42 b4 04 12
        E 42 b4 04 13
        E 42 b4 04 15
        E 42 b4 04 16
        E 42 b4 04 18
        E 42 b4 04 19
        E 42 b4 04 1b
        E 42 b4 04 1c
        E 42 b4 04 1e
        E 42 b4 04 20
        E 48 b4 04 40
        E 48 b4 04 43
        E 48 b4 04 46
        E 48 b4 04 49
        E 48 b4 04 4c
        E 48 b4 04 4f
        E 48 b4 04 52
        E 48 b4 04 55
        E 48 b4 04 58
        E 48 b4 04 5b
        E 48 b4 04 5e
        E 48 b4 04 60
        E 48 b4 04 63
        E 48 b4 04 66
        E 48 b4 04 68
        E 48 b4 04 6a
        E 48 b4 04 6d
        E 48 b4 04 6f
        E 48 b4 04 71
        E 48 b4 04 73
        E 48 b4 04 75
        E 48 b4 04 76
        E 48 b4 04 78
        E 48 b4 04 79
        E 48 b4 04 7a
        E 48 b4 04 7b
        E 48 b4 04 7c
        E 48 b4 04 7d
        E 48 b4 04 7e
        E 48 b4 04 7e
        E 48 b4 04 7f
        E 48 b4 04 7f
        E 48 b4 04 7f
        E 48 b4 04 7f
        E 48 b4 04 7f
        E 48 b4 04 7e
        E 48 b4 04 7e
        E 48 b4 04 7d
        E 48 b4 04 7c
        E 48 b4 04 7b
        E 48 b4 04 7a
        E 48 b4 04 78
        E 48 b4 04 77
        E 48 b4 04 75
        E 48 b4 04 74
        E 48 b4 04 72
        E 48 b4 04 70
        E 48 b4 04 6e
        E 48 b4 04 6c
        E 48 b4 04 69
        E 48 b4 04 67
        E 48 b4 04 64
        E 48 b4 04 62
        E 48 b4 04 5f
        E 48 b4 04 5c
        E 48 b4 04 59
        E 48 b4 04 57
        E 48 b4 04 54
        E 48 b4 04 51
        E 48 b4 04 4e
        E 48 b4 04 4a
        E 48 b4 04 47
        E 48 b4 04 44
        E 48 b4 04 41
        E 48 b4 04 3e
        E 48 b4 04 3b
        E 48 b4 04 38
        E 48 b4 04 35
        E 48 b4 04 31
        E 48 b4 04 2e
        E 48 b4 04 2b
        E 48 b4 04 28
        E 48 b4 04 26
        E 48 b4 04 23
        E 48 b4 04 20
        E 48 b4 04 1d
        E 48 b4 04 1b
        E 48 b4 04 18
        E 48 b4 04 16
        E 48 b4 04 13
        E 48 b4 04 11
        E 48 b4 04 0f
        E 48 b4 04 0d
        E 48 b4 04 0b
        E 48 b4 04 0a
        E 48 b4 04 08
        E 48 b4 04 07
        E 48 b4 04 05
        E 48 b4 04 04
        E 48 b4 04 03
        E 48 b4 04 02
        E 48 b4 04 01
        E 48 b4 04 01
        E 48 b4 04 00
        E 48 b4 04 00
        E 48 b4 04 00
        E 48 b4 04 00
        E 48 b4 04 00
        E 48 b4 04 01
        E 48 b4 04 01
        E 48 b4 04 02
        E 48 b4 04 03
        E 48 b4 04 04
        E 48 b4 04 05
        E 48 b4 04 06
        E 48 b4 04 07
        E 48 b4 04 09
        E 48 b4 04 0a
        E 48 b4 04 0c
        E 48 b4 04 0e
        E 48 b4 04 10
        E 48 b4 04 12
        E 48 b4 04 15
        E 48 b4 04 17
        E 48 b4 04 19
        E 48 b4 04 1c
        E 48 b4 04 1f
        E 48 b4 04 21
        E 48 b4 04 24
        E 48 b4 04 27
        E 48 b4 04 2a
        E 48 b4 04 2d
        E 48 b4 04 30
        E 48 b4 04 33
        E 48 b4 04 36
        E 48 b4 04 39
        E 48 b4 04 3c
        E 48 b4 04 40
        E 6 b4 04 39
        E 6 b4 04 3c
        E 6 b4 04 3f
        E 6 b4 04 41
        E 6 b4 04 44
        E 6 b4 04 47
        E 6 b4 04 49
        E 6 b4 04 4c
        E 6 b4 04 4f
        E 6 b4 04 51
        E 6 b4 04 54
        E 6 b4 04 56
        E 6 b4 04 59
        E 6 b4 04 5b
        E 6 b4 04 5d
        E 6 b4 04 5f
        E 6 b4 04 62
        E 6 b4 04 63
        E 6 b4 04 65
        E 6 b4 04 67
        E 6 b4 04 69
        E 6 b4 04 6a
        E 6 b4 04 6c
        E 6 b4 04 6c
        E 6 b4 04 6d
        E 6 b4 04 6e
        E 6 b4 04 6f
        E 6 b4 04 70
        E 6 b4 04 71
        E 6 b4 04 71
        E 6 b4 04 72
        E 6 b4 04 72
        E 6 b4 04 72
        E 6 b4 04 72
        E 6 b4 04 72
        E 6 b4 04 71
        E 6 b4 04 71
        E 6 b4 04 70
        E 6 b4 04 6f
        E 6 b4 04 6e
        E 6 b4 04 6d
        E 6 b4 04 6c
        E 6 b4 04 6b
        E 6 b4 04 69
        E 6 b4 04 68
        E 6 b4 04 66
        E 6 b4 04 64
        E 6 b4 04 63
        E 6 b4 04 61
        E 6 b4 04 5e
        E 6 b4 04 5c
        E 6 b4 04 5a
        E 6 b4 04 58
        E 6 b4 04 55
        E 6 b4 04 52
        E 6 b4 04 50
        E 6 b4 04 4e
        E 6 b4 04 4b
        E 6 b4 04 48
        E 6 b4 04 46
        E 6 b4 04 42
        E 6 b4 04 3f
        E 6 b4 04 3d
        E 6 b4 04 3a
        E 6 b4 04 37
        E 6 b4 04 35
        E 6 b4 04 32
        E 6 b4 04 2f
        E 6 b4 04 2c
        E 6 b4 04 29
        E 6 b4 04 26
        E 6 b4 04 24
        E 6 b4 04 22
        E 6 b4 04 1f
        E 6 b4 04 1c
        E 6 b4 04 1a
        E 6 b4 04 18
        E 6 b4 04 15
        E 6 b4 04 13
        E 6 b4 04 11
        E 6 b4 04 0f
        E 6 b4 04 0d
        E 6 b4 04 0b
        E 6 b4 04 09
        E 6 b4 04 09
        E 6 b4 04 07
        E 6 b4 04 06
        E 6 b4 04 04
        E 6 b4 04 03
        E 6 b4 04 02
        E 6 b4 04 01
        E 6 b4 04 00
        E 6 b4 04 00
        E 6 b4 04 00
        E 6 b4 04 00
        E 6 b4 04 00
        E 6 b4 04 00
        E 6 b4 04 00
        E 6 b4 04 00
        E 6 b4 04 00
        E 6 b4 04 01
        E 6 b4 04 02
        E 6 b4 04 03
        E 6 b4 04 04
        E 6 b4 04 05
        E 6 b4 04 06
        E 6 b4 04 08
        E 6 b4 04 09
        E 6 b4 04 0a
        E 6 b4 04 0c
        E 6 b4 04 0e
        E 6 b4 04 10
        E 6 b4 04 12
        E 6 b4 04 14
        E 6 b4 04 16
        E 6 b4 04 19
        E 6 b4 04 1b
        E 6 b4 04 1d
        E 6 b4 04 20
        E 6 b4 04 23
        E 6 b4 04 25
        E 6 b4 04 28
        E 6 b4 04 2b
        E 6 b4 04 2d
        E 6 b4 04 30
        E 6 b4 04 33
        E 6 b4 04 36
        E 6 b4 04 39
        E 24 b4 04 40
        E 24 b4 04 43
        E 24 b4 04 46
        E 24 b4 04 49
        E 24 b4 04 4c
        E 24 b4 04 4f
        E 24 b4 04 52
        E 24 b4 04 55
        E 24 b4 04 58
        E 24 b4 04 5b
        E 24 b4 04 5e
        E 24 b4 04 60
        E 24 b4 04 63
        E 24 b4 04 66
        E 24 b4 04 68
        E 24 b4 04 6a
        E 24 b4 04 6d
        E 24 b4 04 6f
        E 24 b4 04 71
        E 24 b4 04 73
        E 24 b4 04 75
        E 24 b4 04 76
        E 24 b4 04 78
        E 24 b4 04 79
        E 24 b4 04 7a
        E 24 b4 04 7b
        E 24 b4 04 7c
        E 24 b4 04 7d
        E 24 b4 04 7e
        E 24 b4 04 7e
        E 24 b4 04 7f
        E 24 b4 04 7f
        E 24 b4 04 7f
        E 24 b4 04 7f
        E 24 b4 04 7f
        E 24 b4 04 7e
        E 24 b4 04 7e
        E 24 b4 04 7d
        E 24 b4 04 7c
        E 24 b4 04 7b
        E 24 b4 04 7a
        E 24 b4 04 78
        E 24 b4 04 77
        E 24 b4 04 75
        E 24 b4 04 74
        E 24 b4 04 72
        E 24 b4 04 70
        E 24 b4 04 6e
        E 24 b4 04 6c
        E 24 b4 04 69
        E 24 b4 04 67
        E 24 b4 04 64
        E 24 b4 04 62
        E 24 b4 04 5f
        E 24 b4 04 5c
        E 24 b4 04 59
        E 24 b4 04 57
        E 24 b4 04 54
        E 24 b4 04 51
        E 24 b4 04 4e
        E 24 b4 04 4a
        E 24 b4 04 47
        E 24 b4 04 44
        E 24 b4 04 41
        E 24 b4 04 3e
        E 24 b4 04 3b
        E 24 b4 04 38
        E 24 b4 04 35
        E 24 b4 04 31
        E 24 b4 04 2e
        E 24 b4 04 2b
        E 24 b4 04 28
        E 24 b4 04 26
        E 24 b4 04 23
        E 24 b4 04 20
        E 24 b4 04 1d
        E 24 b4 04 1b
        E 24 b4 04 18
        E 24 b4 04 16
        E 24 b4 04 13
        E 24 b4 04 11
        E 24 b4 04 0f
        E 24 b4 04 0d
        E 24 b4 04 0b
        E 24 b4 04 0a
        E 24 b4 04 08
        E 24 b4 04 07
        E 24 b4 04 05
        E 24 b4 04 04
        E 24 b4 04 03
        E 24 b4 04 02
        E 24 b4 04 01
        E 24 b4 04 01
        E 24 b4 04 00
        E 24 b4 04 00
        E 24 b4 04 00
        E 24 b4 04 00
        E 24 b4 04 00
        E 24 b4 04 01
        E 24 b4 04 01
        E 24 b4 04 02
        E 24 b4 04 03
        E 24 b4 04 04
        E 24 b4 04 05
        E 24 b4 04 06
        E 24 b4 04 07
        E 24 b4 04 09
        E 24 b4 04 0a
        E 24 b4 04 0c
        E 24 b4 04 0e
        E 24 b4 04 10
        E 24 b4 04 12
        E 24 b4 04 15
        E 24 b4 04 17
        E 24 b4 04 19
        E 24 b4 04 1c
        E 24 b4 04 1f
        E 24 b4 04 21
        E 24 b4 04 24
        E 24 b4 04 27
        E 24 b4 04 2a
        E 24 b4 04 2d
        E 24 b4 04 30
        E 24 b4 04 33
        E 24 b4 04 36
        E 24 b4 04 39
        E 24 b4 04 3c
        E 24 b4 04 40
        E 30 b4 04 20
        E 30 b4 04 21
        E 30 b4 04 23
        E 30 b4 04 24
        E 30 b4 04 26
        E 30 b4 04 27
        E 30 b4 04 29
        E 30 b4 04 2a
        E 30 b4 04 2c
        E 30 b4 04 2d
        E 30 b4 04 2f
        E 30 b4 04 30
        E 30 b4 04 31
        E 30 b4 04 33
        E 30 b4 04 34
        E 30 b4 04 35
        E 30 b4 04 36
        E 30 b4 04 37
        E 30 b4 04 38
        E 30 b4 04 39
        E 30 b4 04 3a
        E 30 b4 04 3b
        E 30 b4 04 3c
        E 30 b4 04 3c
        E 30 b4 04 3d
        E 30 b4 04 3d
        E 30 b4 04 3e
        E 30 b4 04 3e
        E 30 b4 04 3f
        E 30 b4 04 3f
        E 30 b4 04 3f
        E 30 b4 04 3f
        E 30 b4 04 3f
        E 30 b4 04 3f
        E 30 b4 04 3f
        E 30 b4 04 3f
        E 30 b4 04 3f
        E 30 b4 04 3e
        E 30 b4 04 3e
        E 30 b4 04 3d
        E 30 b4 04 3d
        E 30 b4 04 3c
        E 30 b4 04 3b
        E 30 b4 04 3a
        E 30 b4 04 3a
        E 30 b4 04 39
        E 30 b4 04 38
        E 30 b4 04 37
        E 30 b4 04 36
        E 30 b4 04 34
        E 30 b4 04 33
        E 30 b4 04 32
        E 30 b4 04 31
        E 30 b4 04 2f
        E 30 b4 04 2e
        E 30 b4 04 2c
        E 30 b4 04 2b
        E 30 b4 04 2a
        E 30 b4 04 28
        E 30 b4 04 27
        E 30 b4 04 25
        E 30 b4 04 23
        E 30 b4 04 22
        E 30 b4 04 20
        E 30 b4 04 1f
        E 30 b4 04 1d
        E 30 b4 04 1c
        E 30 b4 04 1a
        E 30 b4 04 18
        E 30 b4 04 17
        E 30 b4 04 15
        E 30 b4 04 14
        E 30 b4 04 13
        E 30 b4 04 11
        E 30 b4 04 10
        E 30 b4 04 0e
        E 30 b4 04 0d
        E 30 b4 04 0c
        E 30 b4 04 0b
        E 30 b4 04 09
        E 30 b4 04 08
        E 30 b4 04 07
        E 30 b4 04 06
        E 30 b4 04 05
        E 30 b4 04 05
        E 30 b4 04 04
        E 30 b4 04 03
        E 30 b4 04 02
        E 30 b4 04 02
        E 30 b4 04 01
        E 30 b4 04 01
        E 30 b4 04 00
        E 30 b4 04 00
        E 30 b4 04 00
        E 30 b4 04 00
        E 30 b4 04 00
        E 30 b4 04 00
        E 30 b4 04 00
        E 30 b4 04 00
        E 30 b4 04 00
        E 30 b4 04 01
        E 30 b4 04 01
        E 30 b4 04 02
        E 30 b4 04 02
        E 30 b4 04 03
        E 30 b4 04 03
        E 30 b4 04 04
        E 30 b4 04 05
        E 30 b4 04 06
        E 30 b4 04 07
        E 30 b4 04 08
        E 30 b4 04 09
        E 30 b4 04 0a
        E 30 b4 04 0b
        E 30 b4 04 0c
        E 30 b4 04 0e
        E 30 b4 04 0f
        E 30 b4 04 10
        E 30 b4 04 12
        E 30 b4 04 13
        E 30 b4 04 15
        E 30 b4 04 16
        E 30 b4 04 18
        E 30 b4 04 19
        E 30 b4 04 1b
        E 30 b4 04 1c
        E 30 b4 04 1e
        E 30 b4 04 20
        E 61 b4 04 2c
        E 61 b4 04 2e
        E 61 b4 04 31
        E 61 b4 04 33
        E 61 b4 04 35
        E 61 b4 04 37
        E 61 b4 04 39
        E 61 b4 04 3b
        E 61 b4 04 3d
        E 61 b4 04 3f
        E 61 b4 04 41
        E 61 b4 04 43
        E 61 b4 04 45
        E 61 b4 04 47
        E 61 b4 04 48
        E 61 b4 04 4a
        E 61 b4 04 4c
        E 61 b4 04 4d
        E 61 b4 04 4f
        E 61 b4 04 50
        E 61 b4 04 51
        E 61 b4 04 52
        E 61 b4 04 54
        E 61 b4 04 54
        E 61 b4 04 55
        E 61 b4 04 56
        E 61 b4 04 56
        E 61 b4 04 57
        E 61 b4 04 58
        E 61 b4 04 58
        E 61 b4 04 58
        E 61 b4 04 58
        E 61 b4 04 58
        E 61 b4 04 58
        E 61 b4 04 58
        E 61 b4 04 58
        E 61 b4 04 58
        E 61 b4 04 57
        E 61 b4 04 56
        E 61 b4 04 56
        E 61 b4 04 55
        E 61 b4 04 54
        E 61 b4 04 53
        E 61 b4 04 51
        E 61 b4 04 51
        E 61 b4 04 4f
        E 61 b4 04 4e
        E 61 b4 04 4d
        E 61 b4 04 4b
        E 61 b4 04 49
        E 61 b4 04 48
        E 61 b4 04 46
        E 61 b4 04 44
        E 61 b4 04 42
        E 61 b4 04 40
        E 61 b4 04 3e
        E 61 b4 04 3c
        E 61 b4 04 3a
        E 61 b4 04 38
        E 61 b4 04 36
        E 61 b4 04 33
        E 61 b4 04 31
        E 61 b4 04 2f
        E 61 b4 04 2d
        E 61 b4 04 2b
        E 61 b4 04 29
        E 61 b4 04 27
        E 61 b4 04 25
        E 61 b4 04 22
        E 61 b4 04 20
        E 61 b4 04 1e
        E 61 b4 04 1c
        E 61 b4 04 1a
        E 61 b4 04 18
        E 61 b4 04 16
        E 61 b4 04 14
        E 61 b4 04 12
        E 61 b4 04 10
        E 61 b4 04 0f
        E 61 b4 04 0d
        E 61 b4 04 0b
        E 61 b4 04 0a
        E 61 b4 04 09
        E 61 b4 04 07
        E 61 b4 04 07
        E 61 b4 04 05
        E 61 b4 04 04
        E 61 b4 04 03
        E 61 b4 04 02
        E 61 b4 04 02
        E 61 b4 04 01
        E 61 b4 04 00
        E 61 b4 04 00
        E 61 b4 04 00
        E 61 b4 04 00
        E 61 b4 04 00
        E 61 b4 04 00
        E 61 b4 04 00
        E 61 b4 04 00
        E 61 b4 04 00
        E 61 b4 04 01
        E 61 b4 04 02
        E 61 b4 04 02
        E 61 b4 04 03
        E 61 b4 04 04
        E 61 b4 04 04
        E 61 b4 04 06
        E 61 b4 04 07
        E 61 b4 04 08
        E 61 b4 04 09
        E 61 b4 04 0b
        E 61 b4 04 0c
        E 61 b4 04 0e
        E 61 b4 04 10
        E 61 b4 04 11
        E 61 b4 04 13
        E 61 b4 04 15
        E 61 b4 04 17
        E 61 b4 04 19
        E 61 b4 04 1b
        E 61 b4 04 1d
        E 61 b4 04 1f
        E 61 b4 04 21
        E 61 b4 04 23
        E 61 b4 04 25
        E 61 b4 04 27
        E 61 b4 04 2a
        E 61 b4 04 2c
        E 54 b4 04 33
        E 54 b4 04 35
        E 54 b4 04 37
        E 54 b4 04 3a
        E 54 b4 04 3c
        E 54 b4 04 3f
        E 54 b4 04 41
        E 54 b4 04 44
        E 54 b4 04 46
        E 54 b4 04 48
        E 54 b4 04 4b
        E 54 b4 04 4c
        E 54 b4 04 4f
        E 54 b4 04 51
        E 54 b4 04 53
        E 54 b4 04 54
        E 54 b4 04 57
        E 54 b4 04 58
        E 54 b4 04 5a
        E 54 b4 04 5b
        E 54 b4 04 5d
        E 54 b4 04 5e
        E 54 b4 04 5f
        E 54 b4 04 60
        E 54 b4 04 61
        E 54 b4 04 62
        E 54 b4 04 63
        E 54 b4 04 63
        E 54 b4 04 64
        E 54 b4 04 64
        E 54 b4 04 65
        E 54 b4 04 65
        E 54 b4 04 65
        E 54 b4 04 65
        E 54 b4 04 65
        E 54 b4 04 64
        E 54 b4 04 64
        E 54 b4 04 63
        E 54 b4 04 63
        E 54 b4 04 62
        E 54 b4 04 61
        E 54 b4 04 5f
        E 54 b4 04 5f
        E 54 b4 04 5d
        E 54 b4 04 5c
        E 54 b4 04 5b
        E 54 b4 04 59
        E 54 b4 04 57
        E 54 b4 04 56
        E 54 b4 04 54
        E 54 b4 04 52
        E 54 b4 04 50
        E 54 b4 04 4e
        E 54 b4 04 4c
        E 54 b4 04 49
        E 54 b4 04 47
        E 54 b4 04 45
        E 54 b4 04 43
        E 54 b4 04 40
        E 54 b4 04 3e
        E 54 b4 04 3b
        E 54 b4 04 38
        E 54 b4 04 36
        E 54 b4 04 33
        E 54 b4 04 31
        E 54 b4 04 2f
        E 54 b4 04 2c
        E 54 b4 04 2a
        E 54 b4 04 27
        E 54 b4 04 24
        E 54 b4 04 22
        E 54 b4 04 1f
        E 54 b4 04 1e
        E 54 b4 04 1b
        E 54 b4 04 19
        E 54 b4 04 17
        E 54 b4 04 15
        E 54 b4 04 13
        E 54 b4 04 11
        E 54 b4 04 0f
        E 54 b4 04 0d
        E 54 b4 04 0b
        E 54 b4 04 0a
        E 54 b4 04 08
        E 54 b4 04 07
        E 54 b4 04 06
        E 54 b4 04 05
        E 54 b4 04 03
        E 54 b4 04 03
        E 54 b4 04 02
        E 54 b4 04 01
        E 54 b4 04 00
        E 54 b4 04 00
        E 54 b4 04 00
        E 54 b4 04 00
        E 54 b4 04 00
        E 54 b4 04 00
        E 54 b4 04 00
        E 54 b4 04 00
        E 54 b4 04 00
        E 54 b4 04 01
        E 54 b4 04 02
        E 54 b4 04 03
        E 54 b4 04 03
        E 54 b4 04 04
        E 54 b4 04 05
        E 54 b4 04 07
        E 54 b4 04 07
        E 54 b4 04 09
        E 54 b4 04 0b
        E 54 b4 04 0c
        E 54 b4 04 0e
        E 54 b4 04 10
        E 54 b4 04 12
        E 54 b4 04 14
        E 54 b4 04 16
        E 54 b4 04 18
        E 54 b4 04 1a
        E 54 b4 04 1c
        E 54 b4 04 1f
        E 54 b4 04 21
        E 54 b4 04 24
        E 54 b4 04 26
        E 54 b4 04 28
        E 54 b4 04 2b
        E 54 b4 04 2d
        E 54 b4 04 2f
        E 54 b4 04 33
        E 61 b4 04 06
        E 61 b4 04 06
        E 61 b4 04 07
        E 61 b4 04 07
        E 61 b4 04 07
        E 61 b4 04 07
        E 61 b4 04 08
        E 61 b4 04 08
        E 61 b4 04 08
        E 61 b4 04 09
        E 61 b4 04 09
        E 61 b4 04 09
        E 61 b4 04 09
        E 61 b4 04 0a
        E 61 b4 04 0a
        E 61 b4 04 0a
        E 61 b4 04 0a
        E 61 b4 04 0b
        E 61 b4 04 0b
        E 61 b4 04 0b
        E 61 b4 04 0b
        E 61 b4 04 0b
        E 61 b4 04 0c
        E 61 b4 04 0c
        E 61 b4 04 0c
        E 61 b4 04 0c
        E 61 b4 04 0c
        E 61 b4 04 0c
        E 61 b4 04 0c
        E 61 b4 04 0c
        E 61 b4 04 0c
        E 61 b4 04 0c
        E 61 b4 04 0c
        E 61 b4 04 0c
        E 61 b4 04 0c
        E 61 b4 04 0c
        E 61 b4 04 0c
        E 61 b4 04 0c
        E 61 b4 04 0c
        E 61 b4 04 0c
        E 61 b4 04 0c
        E 61 b4 04 0c
        E 61 b4 04 0b
        E 61 b4 04 0b
        E 61 b4 04 0b
        E 61 b4 04 0b
        E 61 b4 04 0b
        E 61 b4 04 0b
        E 61 b4 04 0a
        E 61 b4 04 0a
        E 61 b4 04 0a
        E 61 b4 04 0a
        E 61 b4 04 09
        E 61 b4 04 09
        E 61 b4 04 09
        E 61 b4 04 08
        E 61 b4 04 08
        E 61 b4 04 08
        E 61 b4 04 08
        E 61 b4 04 07
        E 61 b4 04 07
        E 61 b4 04 07
        E 61 b4 04 06
        E 61 b4 04 06
        E 61 b4 04 06
        E 61 b4 04 05
        E 61 b4 04 05
        E 61 b4 04 05
        E 61 b4 04 04
        E 61 b4 04 04
        E 61 b4 04 04
        E 61 b4 04 04
        E 61 b4 04 03
        E 61 b4 04 03
        E 61 b4 04 03
        E 61 b4 04 02
        E 61 b4 04 02
        E 61 b4 04 02
        E 61 b4 04 02
        E 61 b4 04 01
        E 61 b4 04 01
        E 61 b4 04 01
        E 61 b4 04 01
        E 61 b4 04 01
        E 61 b4 04 01
        E 61 b4 04 00
        E 61 b4 04 00
        E 61 b4 04 00
        E 61 b4 04 00
        E 61 b4 04 00
        E 61 b4 04 00
        E 61 b4 04 00
        E 61 b4 04 00
        E 61 b4 04 00
        E 61 b4 04 00
        E 61 b4 04 00
        E 61 b4 04 00
        E 61 b4 04 00
        E 61 b4 04 00
        E 61 b4 04 00
        E 61 b4 04 00
        E 61 b4 04 00
        E 61 b4 04 00
        E 61 b4 04 00
        E 61 b4 04 00
        E 61 b4 04 00
        E 61 b4 04 00
        E 61 b4 04 01
        E 61 b4 04 01
        E 61 b4 04 01
        E 61 b4 04 01
        E 61 b4 04 01
        E 61 b4 04 02
        E 61 b4 04 02
        E 61 b4 04 02
        E 61 b4 04 02
        E 61 b4 04 03
        E 61 b4 04 03
        E 61 b4 04 03
        E 61 b4 04 03
        E 61 b4 04 04
        E 61 b4 04 04
        E 61 b4 04 04
        E 61 b4 04 05
        E 61 b4 04 05
        E 61 b4 04 05
        E 61 b4 04 06
        E 61 b4 04 06
        E 54 b4 04 19
        E 54 b4 04 1a
        E 54 b4 04 1c
        E 54 b4 04 1d
        E 54 b4 04 1e
        E 54 b4 04 1f
        E 54 b4 04 20
        E 54 b4 04 22
        E 54 b4 04 23
        E 54 b4 04 24
        E 54 b4 04 25
        E 54 b4 04 26
        E 54 b4 04 27
        E 54 b4 04 28
        E 54 b4 04 29
        E 54 b4 04 2a
        E 54 b4 04 2b
        E 54 b4 04 2c
        E 54 b4 04 2d
        E 54 b4 04 2e
        E 54 b4 04 2e
        E 54 b4 04 2f
        E 54 b4 04 30
        E 54 b4 04 30
        E 54 b4 04 30
        E 54 b4 04 31
        E 54 b4 04 31
        E 54 b4 04 32
        E 54 b4 04 32
        E 54 b4 04 32
        E 54 b4 04 32
        E 54 b4 04 32
        E 54 b4 04 32
        E 54 b4 04 32
        E 54 b4 04 32
        E 54 b4 04 32
        E 54 b4 04 32
        E 54 b4 04 32
        E 54 b4 04 31
        E 54 b4 04 31
        E 54 b4 04 30
        E 54 b4 04 30
        E 54 b4 04 2f
        E 54 b4 04 2e
        E 54 b4 04 2e
        E 54 b4 04 2d
        E 54 b4 04 2c
        E 54 b4 04 2c
        E 54 b4 04 2b
        E 54 b4 04 2a
        E 54 b4 04 29
        E 54 b4 04 28
        E 54 b4 04 27
        E 54 b4 04 26
        E 54 b4 04 24
        E 54 b4 04 23
        E 54 b4 04 22
        E 54 b4 04 21
        E 54 b4 04 20
        E 54 b4 04 1f
        E 54 b4 04 1d
        E 54 b4 04 1c
        E 54 b4 04 1b
        E 54 b4 04 1a
        E 54 b4 04 18
        E 54 b4 04 17
        E 54 b4 04 16
        E 54 b4 04 15
        E 54 b4 04 13
        E 54 b4 04 12
        E 54 b4 04 11
        E 54 b4 04 10
        E 54 b4 04 0f
        E 54 b4 04 0e
        E 54 b4 04 0c
        E 54 b4 04 0b
        E 54 b4 04 0a
        E 54 b4 04 09
        E 54 b4 04 08
        E 54 b4 04 07
        E 54 b4 04 06
        E 54 b4 04 06
        E 54 b4 04 05
        E 54 b4 04 04
        E 54 b4 04 04
        E 54 b4 04 03
        E 54 b4 04 02
        E 54 b4 04 02
        E 54 b4 04 01
        E 54 b4 04 01
        E 54 b4 04 00
        E 54 b4 04 00
        E 54 b4 04 00
        E 54 b4 04 00
        E 54 b4 04 00
        E 54 b4 04 00
        E 54 b4 04 00
        E 54 b4 04 00
        E 54 b4 04 00
        E 54 b4 04 00
        E 54 b4 04 00
        E 54 b4 04 01
        E 54 b4 04 01
        E 54 b4 04 02
        E 54 b4 04 02
        E 54 b4 04 02
        E 54 b4 04 03
        E 54 b4 04 04
        E 54 b4 04 04
        E 54 b4 04 05
        E 54 b4 04 06
        E 54 b4 04 07
        E 54 b4 04 08
        E 54 b4 04 09
        E 54 b4 04 0a
        E 54 b4 04 0b
        E 54 b4 04 0c
        E 54 b4 04 0d
        E 54 b4 04 0e
        E 54 b4 04 0f
        E 54 b4 04 10
        E 54 b4 04 12
        E 54 b4 04 13
        E 54 b4 04 14
        E 54 b4 04 15
        E 54 b4 04 16
        E 54 b4 04 18
        E 54 b4 04 19
        E 30 b4 04 2c
        E 30 b4 04 2e
        E 30 b4 04 31
        E 30 b4 04 33
        E 30 b4 04 35
        E 30 b4 04 37
        E 30 b4 04 39
        E 30 b4 04 3b
        E 30 b4 04 3d
        E 30 b4 04 3f
        E 30 b4 04 41
        E 30 b4 04 43
        E 30 b4 04 45
        E 30 b4 04 47
        E 30 b4 04 48
        E 30 b4 04 4a
        E 30 b4 04 4c
        E 30 b4 04 4d
        E 30 b4 04 4f
        E 30 b4 04 50
        E 30 b4 04 51
        E 30 b4 04 52
        E 30 b4 04 54
        E 30 b4 04 54
        E 30 b4 04 55
        E 30 b4 04 56
        E 30 b4 04 56
        E 30 b4 04 57
        E 30 b4 04 58
        E 30 b4 04 58
        E 30 b4 04 58
        E 30 b4 04 58
        E 30 b4 04 58
        E 30 b4 04 58
        E 30 b4 04 58
        E 30 b4 04 58
        E 30 b4 04 58
        E 30 b4 04 57
        E 30 b4 04 56
        E 30 b4 04 56
        E 30 b4 04 55
        E 30 b4 04 54
        E 30 b4 04 53
        E 30 b4 04 51
        E 30 b4 04 51
        E 30 b4 04 4f
        E 30 b4 04 4e
        E 30 b4 04 4d
        E 30 b4 04 4b
        E 30 b4 04 49
        E 30 b4 04 48
        E 30 b4 04 46
        E 30 b4 04 44
        E 30 b4 04 42
        E 30 b4 04 40
        E 30 b4 04 3e
        E 30 b4 04 3c
        E 30 b4 04 3a
        E 30 b4 04 38
        E 30 b4 04 36
        E 30 b4 04 33
        E 30 b4 04 31
        E 30 b4 04 2f
        E 30 b4 04 2d
        E 30 b4 04 2b
        E 30 b4 04 29
        E 30 b4 04 27
        E 30 b4 04 25
        E 30 b4 04 22
        E 30 b4 04 20
        E 30 b4 04 1e
        E 30 b4 04 1c
        E 30 b4 04 1a
        E 30 b4 04 18
        E 30 b4 04 16
        E 30 b4 04 14
        E 30 b4 04 12
        E 30 b4 04 10
        E 30 b4 04 0f
        E 30 b4 04 0d
        E 30 b4 04 0b
        E 30 b4 04 0a
        E 30 b4 04 09
        E 30 b4 04 07
        E 30 b4 04 07
        E 30 b4 04 05
        E 30 b4 04 04
        E 30 b4 04 03
        E 30 b4 04 02
        E 30 b4 04 02
        E 30 b4 04 01
        E 30 b4 04 00
        E 30 b4 04 00
        E 30 b4 04 00
        E 30 b4 04 00
        E 30 b4 04 00
        E 30 b4 04 00
        E 30 b4 04 00
        E 30 b4 04 00
        E 30 b4 04 00
        E 30 b4 04 01
        E 30 b4 04 02
        E 30 b4 04 02
        E 30 b4 04 03
        E 30 b4 04 04
        E 30 b4 04 04
        E 30 b4 04 06
        E 30 b4 04 07
        E 30 b4 04 08
        E 30 b4 04 09
        E 30 b4 04 0b
        E 30 b4 04 0c
        E 30 b4 04 0e
        E 30 b4 04 10
        E 30 b4 04 11
        E 30 b4 04 13
        E 30 b4 04 15
        E 30 b4 04 17
        E 30 b4 04 19
        E 30 b4 04 1b
        E 30 b4 04 1d
        E 30 b4 04 1f
        E 30 b4 04 21
        E 30 b4 04 23
        E 30 b4 04 25
        E 30 b4 04 27
        E 30 b4 04 2a
        E 30 b4 04 2c
        E 30 b4 04 20
        E 30 b4 04 21
        E 30 b4 04 23
        E 30 b4 04 24
        E 30 b4 04 26
        E 30 b4 04 27
        E 30 b4 04 29
        E 30 b4 04 2a
        E 30 b4 04 2c
        E 30 b4 04 2d
        E 30 b4 04 2f
        E 30 b4 04 30
        E 30 b4 04 31
        E 30 b4 04 33
        E 30 b4 04 34
        E 30 b4 04 35
        E 30 b4 04 36
        E 30 b4 04 37
        E 30 b4 04 38
        E 30 b4 04 39
        E 30 b4 04 3a
        E 30 b4 04 3b
        E 30 b4 04 3c
        E 30 b4 04 3c
        E 30 b4 04 3d
        E 30 b4 04 3d
        E 30 b4 04 3e
        E 30 b4 04 3e
        E 30 b4 04 3f
        E 30 b4 04 3f
        E 30 b4 04 3f
        E 30 b4 04 3f
        E 30 b4 04 3f
        E 30 b4 04 3f
        E 30 b4 04 3f
        E 30 b4 04 3f
        E 30 b4 04 3f
        E 30 b4 04 3e
        E 30 b4 04 3e
        E 30 b4 04 3d
        E 30 b4 04 3d
        E 30 b4 04 3c
        E 30 b4 04 3b
        E 30 b4 04 3a
        E 30 b4 04 3a
        E 30 b4 04 39
        E 30 b4 04 38
        E 30 b4 04 37
        E 30 b4 04 36
        E 30 b4 04 34
        E 30 b4 04 33
        E 30 b4 04 32
        E 30 b4 04 31
        E 30 b4 04 2f
        E 30 b4 04 2e
        E 30 b4 04 2c
        E 30 b4 04 2b
        E 30 b4 04 2a
        E 30 b4 04 28
        E 30 b4 04 27
        E 30 b4 04 25
        E 30 b4 04 23
        E 30 b4 04 22
        E 30 b4 04 20
        E 30 b4 04 1f
        E 30 b4 04 1d
        E 30 b4 04 1c
        E 30 b4 04 1a
        E 30 b4 04 18
        E 30 b4 04 17
        E 30 b4 04 15
        E 30 b4 04 14
        E 30 b4 04 13
        E 30 b4 04 11
        E 30 b4 04 10
        E 30 b4 04 0e
        E 30 b4 04 0d
        E 30 b4 04 0c
        E 30 b4 04 0b
        E 30 b4 04 09
        E 30 b4 04 08
        E 30 b4 04 07
        E 30 b4 04 06
        E 30 b4 04 05
        E 30 b4 04 05
        E 30 b4 04 04
        E 30 b4 04 03
        E 30 b4 04 02
        E 30 b4 04 02
        E 30 b4 04 01
        E 30 b4 04 01
        E 30 b4 04 00
        E 30 b4 04 00
        E 30 b4 04 00
        E 30 b4 04 00
        E 30 b4 04 00
        E 30 b4 04 00
        E 30 b4 04 00
        E 30 b4 04 00
        E 30 b4 04 00
        E 30 b4 04 01
        E 30 b4 04 01
        E 30 b4 04 02
        E 30 b4 04 02
        E 30 b4 04 03
        E 30 b4 04 03
        E 30 b4 04 04
        E 30 b4 04 05
        E 30 b4 04 06
        E 30 b4 04 07
        E 30 b4 04 08
        E 30 b4 04 09
        E 30 b4 04 0a
        E 30 b4 04 0b
        E 30 b4 04 0c
        E 30 b4 04 0e
        E 30 b4 04 0f
        E 30 b4 04 10
        E 30 b4 04 12
        E 30 b4 04 13
        E 30 b4 04 15
        E 30 b4 04 16
        E 30 b4 04 18
        E 30 b4 04 19
        E 30 b4 04 1b
        E 30 b4 04 1c
        E 30 b4 04 1e
        E 30 b4 04 20
        E 42 b4 04 20
        E 42 b4 04 21
        E 42 b4 04 23
        E 42 b4 04 24
        E 42 b4 04 26
        E 42 b4 04 27
        E 42 b4 04 29
        E 42 b4 04 2a
        E 42 b4 04 2c
        E 42 b4 04 2d
        E 42 b4 04 2f
        E 42 b4 04 30
        E 42 b4 04 31
        E 42 b4 04 33
        E 42 b4 04 34
        E 42 b4 04 35
        E 42 b4 04 36
        E 42 b4 04 37
        E 42 b4 04 38
        E 42 b4 04 39
        E 42 b4 04 3a
        E 42 b4 04 3b
        E 42 b4 04 3c
        E 42 b4 04 3c
        E 42 b4 04 3d
        E 42 b4 04 3d
        E 42 b4 04 3e
        E 42 b4 04 3e
        E 42 b4 04 3f
        E 42 b4 04 3f
        E 42 b4 04 3f
        E 42 b4 04 3f
        E 42 b4 04 3f
        E 42 b4 04 3f
        E 42 b4 04 3f
        E 42 b4 04 3f
        E 42 b4 04 3f
        E 42 b4 04 3e
        E 42 b4 04 3e
        E 42 b4 04 3d
        E 42 b4 04 3d
        E 42 b4 04 3c
        E 42 b4 04 3b
        E 42 b4 04 3a
        E 42 b4 04 3a
        E 42 b4 04 39
        E 42 b4 04 38
        E 42 b4 04 37
        E 42 b4 04 36
        E 42 b4 04 34
        E 42 b4 04 33
        E 42 b4 04 32
        E 42 b4 04 31
        E 42 b4 04 2f
        E 42 b4 04 2e
        E 42 b4 04 2c
        E 42 b4 04 2b
        E 42 b4 04 2a
        E 42 b4 04 28
        E 42 b4 04 27
        E 42 b4 04 25
        E 42 b4 04 23
        E 42 b4 04 22
        E 42 b4 04 20
        E 42 b4 04 1f
        E 42 b4 04 1d
        E 42 b4 04 1c
        E 42 b4 04 1a
        E 42 b4 04 18
        E 42 b4 04 17
        E 42 b4 04 15
        E 42 b4 04 14
        E 42 b4 04 13
        E 42 b4 04 11
        E 42 b4 04 10
        E 42 b4 04 0e
        E 42 b4 04 0d
        E 42 b4 04 0c
        E 42 b4 04 0b
        E 42 b4 04 09
        E 42 b4 04 08
        E 42 b4 04 07
        E 42 b4 04 06
        E 42 b4 04 05
        E 42 b4 04 05
        E 42 b4 04 04
        E 42 b4 04 03
        E 42 b4 04 02
        E 42 b4 04 02
        E 42 b4 04 01
        E 42 b4 04 01
        E 42 b4 04 00
        E 42 b4 04 00
        E 42 b4 04 00
        E 42 b4 04 00
        E 42 b4 04 00
        E 42 b4 04 00
        E 42 b4 04 00
        E 42 b4 04 00
        E 42 b4 04 00
        E 42 b4 04 01
        E 42 b4 04 01
        E 42 b4 04 02
        E 42 b4 04 02
        E 42 b4 04 03
        E 42 b4 04 03
        E 42 b4 04 04
        E 42 b4 04 05
        E 42 b4 04 06
        E 42 b4 04 07
        E 42 b4 04 08
        E 42 b4 04 09
        E 42 b4 04 0a
        E 42 b4 04 0b
        E 42 b4 04 0c
        E 42 b4 04 0e
        E 42 b4 04 0f
        E 42 b4 04 10
        E 42 b4 04 12
        E 42 b4 04 13
        E 42 b4 04 15
        E 42 b4 04 16
        E 42 b4 04 18
        E 42 b4 04 19
        E 42 b4 04 1b
        E 42 b4 04 1c
        E 42 b4 04 1e
        E 42 b4 04 20
        E 48 b4 04 40
        E 48 b4 04 43
        E 48 b4 04 46
        E 48 b4 04 49
        E 48 b4 04 4c
        E 48 b4 04 4f
        E 48 b4 04 52
        E 48 b4 04 55
        E 48 b4 04 58
        E 48 b4 04 5b
        E 48 b4 04 5e
        E 48 b4 04 60
        E 48 b4 04 63
        E 48 b4 04 66
        E 48 b4 04 68
        E 48 b4 04 6a
        E 48 b4 04 6d
        E 48 b4 04 6f
        E 48 b4 04 71
        E 48 b4 04 73
        E 48 b4 04 75
        E 48 b4 04 76
        E 48 b4 04 78
        E 48 b4 04 79
        E 48 b4 04 7a
        E 48 b4 04 7b
        E 48 b4 04 7c
        E 48 b4 04 7d
        E 48 b4 04 7e
        E 48 b4 04 7e
        E 48 b4 04 7f
        E 48 b4 04 7f
        E 48 b4 04 7f
        E 48 b4 04 7f
        E 48 b4 04 7f
        E 48 b4 04 7e
        E 48 b4 04 7e
        E 48 b4 04 7d
        E 48 b4 04 7c
        E 48 b4 04 7b
        E 48 b4 04 7a
        E 48 b4 04 78
        E 48 b4 04 77
        E 48 b4 04 75
        E 48 b4 04 74
        E 48 b4 04 72
        E 48 b4 04 70
        E 48 b4 04 6e
        E 48 b4 04 6c
        E 48 b4 04 69
        E 48 b4 04 67
        E 48 b4 04 64
        E 48 b4 04 62
        E 48 b4 04 5f
        E 48 b4 04 5c
        E 48 b4 04 59
        E 48 b4 04 57
        E 48 b4 04 54
        E 48 b4 04 51
        E 48 b4 04 4e
        E 48 b4 04 4a
        E 48 b4 04 47
        E 48 b4 04 44
        E 48 b4 04 41
        E 48 b4 04 3e
        E 48 b4 04 3b
        E 48 b4 04 38
        E 48 b4 04 35
        E 48 b4 04 31
        E 48 b4 04 2e
        E 48 b4 04 2b
        E 48 b4 04 28
        E 48 b4 04 26
        E 48 b4 04 23
        E 48 b4 04 20
        E 48 b4 04 1d
        E 48 b4 04 1b
        E 48 b4 04 18
        E 48 b4 04 16
        E 48 b4 04 13
        E 48 b4 04 11
        E 48 b4 04 0f
        E 48 b4 04 0d
        E 48 b4 04 0b
        E 48 b4 04 0a
        E 48 b4 04 08
        E 48 b4 04 07
        E 48 b4 04 05
        E 48 b4 04 04
        E 48 b4 04 03
        E 48 b4 04 02
        E 48 b4 04 01
        E 48 b4 04 01
        E 48 b4 04 00
        E 48 b4 04 00
        E 48 b4 04 00
        E 48 b4 04 00
        E 48 b4 04 00
        E 48 b4 04 01
        E 48 b4 04 01
        E 48 b4 04 02
        E 48 b4 04 03
        E 48 b4 04 04
        E 48 b4 04 05
        E 48 b4 04 06
        E 48 b4 04 07
        E 48 b4 04 09
        E 48 b4 04 0a
        E 48 b4 04 0c
        E 48 b4 04 0e
        E 48 b4 04 10
        E 48 b4 04 12
        E 48 b4 04 15
        E 48 b4 04 17
        E 48 b4 04 19
        E 48 b4 04 1c
        E 48 b4 04 1f
        E 48 b4 04 21
        E 48 b4 04 24
        E 48 b4 04 27
        E 48 b4 04 2a
        E 48 b4 04 2d
        E 48 b4 04 30
        E 48 b4 04 33
        E 48 b4 04 36
        E 48 b4 04 39
        E 48 b4 04 3c
        E 48 b4 04 40
        E 6 b4 04 39
        E 6 b4 04 3c
        E 6 b4 04 3f
        E 6 b4 04 41
        E 6 b4 04 44
        E 6 b4 04 47
        E 6 b4 04 49
        E 6 b4 04 4c
        E 6 b4 04 4f
        E 6 b4 04 51
        E 6 b4 04 54
        E 6 b4 04 56
        E 6 b4 04 59
        E 6 b4 04 5b
        E 6 b4 04 5d
        E 6 b4 04 5f
        E 6 b4 04 62
        E 6 b4 04 63
        E 6 b4 04 65
        E 6 b4 04 67
        E 6 b4 04 69
        E 6 b4 04 6a
        E 6 b4 04 6c
        E 6 b4 04 6c
        E 6 b4 04 6d
        E 6 b4 04 6e
        E 6 b4 04 6f
        E 6 b4 04 70
        E 6 b4 04 71
        E 6 b4 04 71
        E 6 b4 04 72
        E 6 b4 04 72
        E 6 b4 04 72
        E 6 b4 04 72
        E 6 b4 04 72
        E 6 b4 04 71
        E 6 b4 04 71
        E 6 b4 04 70
        E 6 b4 04 6f
        E 6 b4 04 6e
        E 6 b4 04 6d
        E 6 b4 04 6c
        E 6 b4 04 6b
        E 6 b4 04 69
        E 6 b4 04 68
        E 6 b4 04 66
        E 6 b4 04 64
        E 6 b4 04 63
        E 6 b4 04 61
        E 6 b4 04 5e
        E 6 b4 04 5c
        E 6 b4 04 5a
        E 6 b4 04 58
        E 6 b4 04 55
        E 6 b4 04 52
        E 6 b4 04 50
        E 6 b4 04 4e
        E 6 b4 04 4b
        E 6 b4 04 48
        E 6 b4 04 46
        E 6 b4 04 42
        E 6 b4 04 3f
        E 6 b4 04 3d
        E 6 b4 04 3a
        E 6 b4 04 37
        E 6 b4 04 35
        E 6 b4 04 32
        E 6 b4 04 2f
        E 6 b4 04 2c
        E 6 b4 04 29
        E 6 b4 04 26
        E 6 b4 04 24
        E 6 b4 04 22
        E 6 b4 04 1f
        E 6 b4 04 1c
        E 6 b4 04 1a
        E 6 b4 04 18
        E 6 b4 04 15
        E 6 b4 04 13
        E 6 b4 04 11
        E 6 b4 04 0f
        E 6 b4 04 0d
        E 6 b4 04 0b
        E 6 b4 04 09
        E 6 b4 04 09
        E 6 b4 04 07
        E 6 b4 04 06
        E 6 b4 04 04
        E 6 b4 04 03
        E 6 b4 04 02
        E 6 b4 04 01
        E 6 b4 04 00
        E 6 b4 04 00
        E 6 b4 04 00
        E 6 b4 04 00
        E 6 b4 04 00
        E 6 b4 04 00
        E 6 b4 04 00
        E 6 b4 04 00
        E 6 b4 04 00
        E 6 b4 04 01
        E 6 b4 04 02
        E 6 b4 04 03
        E 6 b4 04 04
        E 6 b4 04 05
        E 6 b4 04 06
        E 6 b4 04 08
        E 6 b4 04 09
        E 6 b4 04 0a
        E 6 b4 04 0c
        E 6 b4 04 0e
        E 6 b4 04 10
        E 6 b4 04 12
        E 6 b4 04 14
        E 6 b4 04 16
        E 6 b4 04 19
        E 6 b4 04 1b
        E 6 b4 04 1d
        E 6 b4 04 20
        E 6 b4 04 23
        E 6 b4 04 25
        E 6 b4 04 28
        E 6 b4 04 2b
        E 6 b4 04 2d
        E 6 b4 04 30
        E 6 b4 04 33
        E 6 b4 04 36
        E 6 b4 04 39
        E 24 b4 04 40
        E 24 b4 04 43
        E 24 b4 04 46
        E 24 b4 04 49
        E 24 b4 04 4c
        E 24 b4 04 4f
        E 24 b4 04 52
        E 24 b4 04 55
        E 24 b4 04 58
        E 24 b4 04 5b
        E 24 b4 04 5e
        E 24 b4 04 60
        E 24 b4 04 63
        E 24 b4 04 66
        E 24 b4 04 68
        E 24 b4 04 6a
        E 24 b4 04 6d
        E 24 b4 04 6f
        E 24 b4 04 71
        E 24 b4 04 73
        E 24 b4 04 75
        E 24 b4 04 76
        E 24 b4 04 78
        E 24 b4 04 79
        E 24 b4 04 7a
        E 24 b4 04 7b
        E 24 b4 04 7c
        E 24 b4 04 7d
        E 24 b4 04 7e
        E 24 b4 04 7e
        E 24 b4 04 7f
        E 24 b4 04 7f
        E 24 b4 04 7f
        E 24 b4 04 7f
        E 24 b4 04 7f
        E 24 b4 04 7e
        E 24 b4 04 7e
        E 24 b4 04 7d
        E 24 b4 04 7c
        E 24 b4 04 7b
        E 24 b4 04 7a
        E 24 b4 04 78
        E 24 b4 04 77
        E 24 b4 04 75
        E 24 b4 04 74
        E 24 b4 04 72
        E 24 b4 04 70
        E 24 b4 04 6e
        E 24 b4 04 6c
        E 24 b4 04 69
        E 24 b4 04 67
        E 24 b4 04 64
        E 24 b4 04 62
        E 24 b4 04 5f
        E 24 b4 04 5c
        E 24 b4 04 59
        E 24 b4 04 57
        E 24 b4 04 54
        E 24 b4 04 51
        E 24 b4 04 4e
        E 24 b4 04 4a
        E 24 b4 04 47
        E 24 b4 04 44
        E 24 b4 04 41
        E 24 b4 04 3e
        E 24 b4 04 3b
        E 24 b4 04 38
        E 24 b4 04 35
        E 24 b4 04 31
        E 24 b4 04 2e
        E 24 b4 04 2b
        E 24 b4 04 28
        E 24 b4 04 26
        E 24 b4 04 23
        E 24 b4 04 20
        E 24 b4 04 1d
        E 24 b4 04 1b
        E 24 b4 04 18
        E 24 b4 04 16
        E 24 b4 04 13
        E 24 b4 04 11
        E 24 b4 04 0f
        E 24 b4 04 0d
        E 24 b4 04 0b
        E 24 b4 04 0a
        E 24 b4 04 08
        E 24 b4 04 07
        E 24 b4 04 05
        E 24 b4 04 04
        E 24 b4 04 03
        E 24 b4 04 02
        E 24 b4 04 01
        E 24 b4 04 01
        E 24 b4 04 00
        E 24 b4 04 00
        E 24 b4 04 00
        E 24 b4 04 00
        E 24 b4 04 00
        E 24 b4 04 01
        E 24 b4 04 01
        E 24 b4 04 02
        E 24 b4 04 03
        E 24 b4 04 04
        E 24 b4 04 05
        E 24 b4 04 06
        E 24 b4 04 07
        E 24 b4 04 09
        E 24 b4 04 0a
        E 24 b4 04 0c
        E 24 b4 04 0e
        E 24 b4 04 10
        E 24 b4 04 12
        E 24 b4 04 15
        E 24 b4 04 17
        E 24 b4 04 19
        E 24 b4 04 1c
        E 24 b4 04 1f
        E 24 b4 04 21
        E 24 b4 04 24
        E 24 b4 04 27
        E 24 b4 04 2a
        E 24 b4 04 2d
        E 24 b4 04 30
        E 24 b4 04 33
        E 24 b4 04 36
        E 24 b4 04 39
        E 24 b4 04 3c
        E 24 b4 04 40
        E 30 b4 04 20
        E 30 b4 04 21
        E 30 b4 04 23
        E 30 b4 04 24
        E 30 b4 04 26
        E 30 b4 04 27
        E 30 b4 04 29
        E 30 b4 04 2a
        E 30 b4 04 2c
        E 30 b4 04 2d
        E 30 b4 04 2f
        E 30 b4 04 30
        E 30 b4 04 31
        E 30 b4 04 33
        E 30 b4 04 34
        E 30 b4 04 35
        E 30 b4 04 36
        E 30 b4 04 37
        E 30 b4 04 38
        E 30 b4 04 39
        E 30 b4 04 3a
        E 30 b4 04 3b
        E 30 b4 04 3c
        E 30 b4 04 3c
        E 30 b4 04 3d
        E 30 b4 04 3d
        E 30 b4 04 3e
        E 30 b4 04 3e
        E 30 b4 04 3f
        E 30 b4 04 3f
        E 30 b4 04 3f
        E 30 b4 04 3f
        E 30 b4 04 3f
        E 30 b4 04 3f
        E 30 b4 04 3f
        E 30 b4 04 3f
        E 30 b4 04 3f
        E 30 b4 04 3e
        E 30 b4 04 3e
        E 30 b4 04 3d
        E 30 b4 04 3d
        E 30 b4 04 3c
        E 30 b4 04 3b
        E 30 b4 04 3a
        E 30 b4 04 3a
        E 30 b4 04 39
        E 30 b4 04 38
        E 30 b4 04 37
        E 30 b4 04 36
        E 30 b4 04 34
        E 30 b4 04 33
        E 30 b4 04 32
        E 30 b4 04 31
        E 30 b4 04 2f
        E 30 b4 04 2e
        E 30 b4 04 2c
        E 30 b4 04 2b
        E 30 b4 04 2a
        E 30 b4 04 28
        E 30 b4 04 27
        E 30 b4 04 25
        E 30 b4 04 23
        E 30 b4 04 22
        E 30 b4 04 20
        E 30 b4 04 1f
        E 30 b4 04 1d
        E 30 b4 04 1c
        E 30 b4 04 1a
        E 30 b4 04 18
        E 30 b4 04 17
        E 30 b4 04 15
        E 30 b4 04 14
        E 30 b4 04 13
        E 30 b4 04 11
        E 30 b4 04 10
        E 30 b4 04 0e
        E 30 b4 04 0d
        E 30 b4 04 0c
        E 30 b4 04 0b
        E 30 b4 04 09
        E 30 b4 04 08
        E 30 b4 04 07
        E 30 b4 04 06
        E 30 b4 04 05
        E 30 b4 04 05
        E 30 b4 04 04
        E 30 b4 04 03
        E 30 b4 04 02
        E 30 b4 04 02
        E 30 b4 04 01
        E 30 b4 04 01
        E 30 b4 04 00
        E 30 b4 04 00
        E 30 b4 04 00
        E 30 b4 04 00
        E 30 b4 04 00
        E 30 b4 04 00
        E 30 b4 04 00
        E 30 b4 04 00
        E 30 b4 04 00
        E 30 b4 04 01
        E 30 b4 04 01
        E 30 b4 04 02
        E 30 b4 04 02
        E 30 b4 04 03
        E 30 b4 04 03
        E 30 b4 04 04
        E 30 b4 04 05
        E 30 b4 04 06
        E 30 b4 04 07
        E 30 b4 04 08
        E 30 b4 04 09
        E 30 b4 04 0a
        E 30 b4 04 0b
        E 30 b4 04 0c
        E 30 b4 04 0e
        E 30 b4 04 0f
        E 30 b4 04 10
        E 30 b4 04 12
        E 30 b4 04 13
        E 30 b4 04 15
        E 30 b4 04 16
        E 30 b4 04 18
        E 30 b4 04 19
        E 30 b4 04 1b
        E 30 b4 04 1c
        E 30 b4 04 1e
        E 30 b4 04 20
        E 61 b4 04 2c
        E 61 b4 04 2e
        E 61 b4 04 31
        E 61 b4 04 33
        E 61 b4 04 35
        E 61 b4 04 37
        E 61 b4 04 39
        E 61 b4 04 3b
        E 61 b4 04 3d
        E 61 b4 04 3f
        E 61 b4 04 41
        E 61 b4 04 43
        E 61 b4 04 45
        E 61 b4 04 47
        E 61 b4 04 48
        E 61 b4 04 4a
        E 61 b4 04 4c
        E 61 b4 04 4d
        E 61 b4 04 4f
        E 61 b4 04 50
        E 61 b4 04 51
        E 61 b4 04 52
        E 61 b4 04 54
        E 61 b4 04 54
        E 61 b4 04 55
        E 61 b4 04 56
        E 61 b4 04 56
        E 61 b4 04 57
        E 61 b4 04 58
        E 61 b4 04 58
        E 61 b4 04 58
        E 61 b4 04 58
        E 61 b4 04 58
        E 61 b4 04 58
        E 61 b4 04 58
        E 61 b4 04 58
        E 61 b4 04 58
        E 61 b4 04 57
        E 61 b4 04 56
        E 61 b4 04 56
        E 61 b4 04 55
        E 61 b4 04 54
        E 61 b4 04 53
        E 61 b4 04 51
        E 61 b4 04 51
        E 61 b4 04 4f
        E 61 b4 04 4e
        E 61 b4 04 4d
        E 61 b4 04 4b
        E 61 b4 04 49
        E 61 b4 04 48
        E 61 b4 04 46
        E 61 b4 04 44
        E 61 b4 04 42
        E 61 b4 04 40
        E 61 b4 04 3e
        E 61 b4 04 3c
        E 61 b4 04 3a
        E 61 b4 04 38
        E 61 b4 04 36
        E 61 b4 04 33
        E 61 b4 04 31
        E 61 b4 04 2f
        E 61 b4 04 2d
        E 61 b4 04 2b
        E 61 b4 04 29
        E 61 b4 04 27
        E 61 b4 04 25
        E 61 b4 04 22
        E 61 b4 04 20
        E 61 b4 04 1e
        E 61 b4 04 1c
        E 61 b4 04 1a
        E 61 b4 04 18
        E 61 b4 04 16
        E 61 b4 04 14
        E 61 b4 04 12
        E 61 b4 04 10
        E 61 b4 04 0f
        E 61 b4 04 0d
        E 61 b4 04 0b
        E 61 b4 04 0a
        E 61 b4 04 09
        E 61 b4 04 07
        E 61 b4 04 07
        E 61 b4 04 05
        E 61 b4 04 04
        E 61 b4 04 03
        E 61 b4 04 02
        E 61 b4 04 02
        E 61 b4 04 01
        E 61 b4 04 00
        E 61 b4 04 00
        E 61 b4 04 00
        E 61 b4 04 00
        E 61 b4 04 00
        E 61 b4 04 00
        E 61 b4 04 00
        E 61 b4 04 00
        E 61 b4 04 00
        E 61 b4 04 01
        E 61 b4 04 02
        E 61 b4 04 02
        E 61 b4 04 03
        E 61 b4 04 04
        E 61 b4 04 04
        E 61 b4 04 06
        E 61 b4 04 07
        E 61 b4 04 08
        E 61 b4 04 09
        E 61 b4 04 0b
        E 61 b4 04 0c
        E 61 b4 04 0e
        E 61 b4 04 10
        E 61 b4 04 11
        E 61 b4 04 13
        E 61 b4 04 15
        E 61 b4 04 17
        E 61 b4 04 19
        E 61 b4 04 1b
        E 61 b4 04 1d
        E 61 b4 04 1f
        E 61 b4 04 21
        E 61 b4 04 23
        E 61 b4 04 25
        E 61 b4 04 27
        E 61 b4 04 2a
        E 61 b4 04 2c
        E 54 b4 04 33
        E 54 b4 04 35
        E 54 b4 04 37
        E 54 b4 04 3a
        E 54 b4 04 3c
        E 54 b4 04 3f
        E 54 b4 04 41
        E 54 b4 04 44
        E 54 b4 04 46
        E 54 b4 04 48
        E 54 b4 04 4b
        E 54 b4 04 4c
        E 54 b4 04 4f
        E 54 b4 04 51
        E 54 b4 04 53
        E 54 b4 04 54
        E 54 b4 04 57
        E 54 b4 04 58
        E 54 b4 04 5a
        E 54 b4 04 5b
        E 54 b4 04 5d
        E 54 b4 04 5e
        E 54 b4 04 5f
        E 54 b4 04 60
        E 54 b4 04 61
        E 54 b4 04 62
        E 54 b4 04 63
        E 54 b4 04 63
        E 54 b4 04 64
        E 54 b4 04 64
        E 54 b4 04 65
        E 54 b4 04 65
        E 54 b4 04 65
        E 54 b4 04 65
        E 54 b4 04 65
        E 54 b4 04 64
        E 54 b4 04 64
        E 54 b4 04 63
        E 54 b4 04 63
        E 54 b4 04 62
        E 54 b4 04 61
        E 54 b4 04 5f
        E 54 b4 04 5f
        E 54 b4 04 5d
        E 54 b4 04 5c
        E 54 b4 04 5b
        E 54 b4 04 59
        E 54 b4 04 57
        E 54 b4 04 56
        E 54 b4 04 54
        E 54 b4 04 52
        E 54 b4 04 50
        E 54 b4 04 4e
        E 54 b4 04 4c
        E 54 b4 04 49
        E 54 b4 04 47
        E 54 b4 04 45
        E 54 b4 04 43
        E 54 b4 04 40
        E 54 b4 04 3e
        E 54 b4 04 3b
        E 54 b4 04 38
        E 54 b4 04 36
        E 54 b4 04 33
        E 54 b4 04 31
        E 54 b4 04 2f
        E 54 b4 04 2c
        E 54 b4 04 2a
        E 54 b4 04 27
        E 54 b4 04 24
        E 54 b4 04 22
        E 54 b4 04 1f
        E 54 b4 04 1e
        E 54 b4 04 1b
        E 54 b4 04 19
        E 54 b4 04 17
        E 54 b4 04 15
        E 54 b4 04 13
        E 54 b4 04 11
        E 54 b4 04 0f
        E 54 b4 04 0d
        E 54 b4 04 0b
        E 54 b4 04 0a
        E 54 b4 04 08
        E 54 b4 04 07
        E 54 b4 04 06
        E 54 b4 04 05
        E 54 b4 04 03
        E 54 b4 04 03
        E 54 b4 04 02
        E 54 b4 04 01
        E 54 b4 04 00
        E 54 b4 04 00
        E 54 b4 04 00
        E 54 b4 04 00
        E 54 b4 04 00
        E 54 b4 04 00
        E 54 b4 04 00
        E 54 b4 04 00
        E 54 b4 04 00
        E 54 b4 04 01
        E 54 b4 04 02
        E 54 b4 04 03
        E 54 b4 04 03
        E 54 b4 04 04
        E 54 b4 04 05
        E 54 b4 04 07
        E 54 b4 04 07
        E 54 b4 04 09
        E 54 b4 04 0b
        E 54 b4 04 0c
        E 54 b4 04 0e
        E 54 b4 04 10
        E 54 b4 04 12
        E 54 b4 04 14
        E 54 b4 04 16
        E 54 b4 04 18
        E 54 b4 04 1a
        E 54 b4 04 1c
        E 54 b4 04 1f
        E 54 b4 04 21
        E 54 b4 04 24
        E 54 b4 04 26
        E 54 b4 04 28
        E 54 b4 04 2b
        E 54 b4 04 2d
        E 54 b4 04 2f
        E 54 b4 04 33
        E 61 b4 04 06
        E 61 b4 04 06
        E 61 b4 04 07
        E 61 b4 04 07
        E 61 b4 04 07
        E 61 b4 04 07
        E 61 b4 04 08
        E 61 b4 04 08
        E 61 b4 04 08
        E 61 b4 04 09
        E 61 b4 04 09
        E 61 b4 04 09
        E 61 b4 04 09
        E 61 b4 04 0a
        E 61 b4 04 0a
        E 61 b4 04 0a
        E 61 b4 04 0a
        E 61 b4 04 0b
        E 61 b4 04 0b
        E 61 b4 04 0b
        E 61 b4 04 0b
        E 61 b4 04 0b
        E 61 b4 04 0c
        E 61 b4 04 0c
        E 61 b4 04 0c
        E 61 b4 04 0c
        E 61 b4 04 0c
        E 61 b4 04 0c
        E 61 b4 04 0c
        E 61 b4 04 0c
        E 61 b4 04 0c
        E 61 b4 04 0c
        E 61 b4 04 0c
        E 61 b4 04 0c
        E 61 b4 04 0c
        E 61 b4 04 0c
        E 61 b4 04 0c
        E 61 b4 04 0c
        E 61 b4 04 0c
        E 61 b4 04 0c
        E 61 b4 04 0c
        E 61 b4 04 0c
        E 61 b4 04 0b
        E 61 b4 04 0b
        E 61 b4 04 0b
        E 61 b4 04 0b
        E 61 b4 04 0b
        E 61 b4 04 0b
        E 61 b4 04 0a
        E 61 b4 04 0a
        E 61 b4 04 0a
        E 61 b4 04 0a
        E 61 b4 04 09
        E 61 b4 04 09
        E 61 b4 04 09
        E 61 b4 04 08
        E 61 b4 04 08
        E 61 b4 04 08
        E 61 b4 04 08
        E 61 b4 04 07
        E 61 b4 04 07
        E 61 b4 04 07
        E 61 b4 04 06
        E 61 b4 04 06
        E 61 b4 04 06
        E 61 b4 04 05
        E 61 b4 04 05
        E 61 b4 04 05
        E 61 b4 04 04
        E 61 b4 04 04
        E 61 b4 04 04
        E 61 b4 04 04
        E 61 b4 04 03
        E 61 b4 04 03
        E 61 b4 04 03
        E 61 b4 04 02
        E 61 b4 04 02
        E 61 b4 04 02
        E 61 b4 04 02
        E 61 b4 04 01
        E 61 b4 04 01
        E 61 b4 04 01
        E 61 b4 04 01
        E 61 b4 04 01
        E 61 b4 04 01
        E 61 b4 04 00
        E 61 b4 04 00
        E 61 b4 04 00
        E 61 b4 04 00
        E 61 b4 04 00
        E 61 b4 04 00
        E 61 b4 04 00
        E 61 b4 04 00
        E 61 b4 04 00
        E 61 b4 04 00
        E 61 b4 04 00
        E 61 b4 04 00
        E 61 b4 04 00
        E 61 b4 04 00
        E 61 b4 04 00
        E 61 b4 04 00
        E 61 b4 04 00
        E 61 b4 04 00
        E 61 b4 04 00
        E 61 b4 04 00
        E 61 b4 04 00
        E 61 b4 04 00
        E 61 b4 04 01
        E 61 b4 04 01
        E 61 b4 04 01
        E 61 b4 04 01
        E 61 b4 04 01
        E 61 b4 04 02
        E 61 b4 04 02
        E 61 b4 04 02
        E 61 b4 04 02
        E 61 b4 04 03
        E 61 b4 04 03
        E 61 b4 04 03
        E 61 b4 04 03
        E 61 b4 04 04
        E 61 b4 04 04
        E 61 b4 04 04
        E 61 b4 04 05
        E 61 b4 04 05
        E 61 b4 04 05
        E 61 b4 04 06
        E 61 b4 04 06
        E 54 b4 04 19
        E 54 b4 04 1a
        E 54 b4 04 1c
        E 54 b4 04 1d
        E 54 b4 04 1e
        E 54 b4 04 1f
        E 54 b4 04 20
        E 54 b4 04 22
        E 54 b4 04 23
        E 54 b4 04 24
        E 54 b4 04 25
        E 54 b4 04 26
        E 54 b4 04 27
        E 54 b4 04 28
        E 54 b4 04 29
        E 54 b4 04 2a
        E 54 b4 04 2b
        E 54 b4 04 2c
        E 54 b4 04 2d
        E 54 b4 04 2e
        E 54 b4 04 2e
        E 54 b4 04 2f
        E 54 b4 04 30
        E 54 b4 04 30
        E 54 b4 04 30
        E 54 b4 04 31
        E 54 b4 04 31
        E 54 b4 04 32
        E 54 b4 04 32
        E 54 b4 04 32
        E 54 b4 04 32
        E 54 b4 04 32
        E 54 b4 04 32
        E 54 b4 04 32
        E 54 b4 04 32
        E 54 b4 04 32
        E 54 b4 04 32
        E 54 b4 04 32
        E 54 b4 04 31
        E 54 b4 04 31
        E 54 b4 04 30
        E 54 b4 04 30
        E 54 b4 04 2f
        E 54 b4 04 2e
        E 54 b4 04 2e
        E 54 b4 04 2d
        E 54 b4 04 2c
        E 54 b4 04 2c
        E 54 b4 04 2b
        E 54 b4 04 2a
        E 54 b4 04 29
        E 54 b4 04 28
        E 54 b4 04 27
        E 54 b4 04 26
        E 54 b4 04 24
        E 54 b4 04 23
        E 54 b4 04 22
        E 54 b4 04 21
        E 54 b4 04 20
        E 54 b4 04 1f
        E 54 b4 04 1d
        E 54 b4 04 1c
        E 54 b4 04 1b
        E 54 b4 04 1a
        E 54 b4 04 18
        E 54 b4 04 17
        E 54 b4 04 16
        E 54 b4 04 15
        E 54 b4 04 13
        E 54 b4 04 12
        E 54 b4 04 11
        E 54 b4 04 10
        E 54 b4 04 0f
        E 54 b4 04 0e
        E 54 b4 04 0c
        E 54 b4 04 0b
        E 54 b4 04 0a
        E 54 b4 04 09
        E 54 b4 04 08
        E 54 b4 04 07
        E 54 b4 04 06
        E 54 b4 04 06
        E 54 b4 04 05
        E 54 b4 04 04
        E 54 b4 04 04
        E 54 b4 04 03
        E 54 b4 04 02
        E 54 b4 04 02
        E 54 b4 04 01
        E 54 b4 04 01
        E 54 b4 04 00
        E 54 b4 04 00
        E 54 b4 04 00
        E 54 b4 04 00
        E 54 b4 04 00
        E 54 b4 04 00
        E 54 b4 04 00
        E 54 b4 04 00
        E 54 b4 04 00
        E 54 b4 04 00
        E 54 b4 04 00
        E 54 b4 04 01
        E 54 b4 04 01
        E 54 b4 04 02
        E 54 b4 04 02
        E 54 b4 04 02
        E 54 b4 04 03
        E 54 b4 04 04
        E 54 b4 04 04
        E 54 b4 04 05
        E 54 b4 04 06
        E 54 b4 04 07
        E 54 b4 04 08
        E 54 b4 04 09
        E 54 b4 04 0a
        E 54 b4 04 0b
        E 54 b4 04 0c
        E 54 b4 04 0d
        E 54 b4 04 0e
        E 54 b4 04 0f
        E 54 b4 04 10
        E 54 b4 04 12
        E 54 b4 04 13
        E 54 b4 04 14
        E 54 b4 04 15
        E 54 b4 04 16
        E 54 b4 04 18
        E 54 b4 04 19
        E 30 b4 04 2c
        E 30 b4 04 2e
        E 30 b4 04 31
        E 30 b4 04 33
        E 30 b4 04 35
        E 30 b4 04 37
        E 30 b4 04 39
        E 30 b4 04 3b
        E 30 b4 04 3d
        E 30 b4 04 3f
        E 30 b4 04 41
        E 30 b4 04 43
        E 30 b4 04 45
        E 30 b4 04 47
        E 30 b4 04 48
        E 30 b4 04 4a
        E 30 b4 04 4c
        E 30 b4 04 4d
        E 30 b4 04 4f
        E 30 b4 04 50
        E 30 b4 04 51
        E 30 b4 04 52
        E 30 b4 04 54
        E 30 b4 04 54
        E 30 b4 04 55
        E 30 b4 04 56
        E 30 b4 04 56
        E 30 b4 04 57
        E 30 b4 04 58
        E 30 b4 04 58
        E 30 b4 04 58
        E 30 b4 04 58
        E 30 b4 04 58
        E 30 b4 04 58
        E 30 b4 04 58
        E 30 b4 04 58
        E 30 b4 04 58
        E 30 b4 04 57
        E 30 b4 04 56
        E 30 b4 04 56
        E 30 b4 04 55
        E 30 b4 04 54
        E 30 b4 04 53
        E 30 b4 04 51
        E 30 b4 04 51
        E 30 b4 04 4f
        E 30 b4 04 4e
        E 30 b4 04 4d
        E 30 b4 04 4b
        E 30 b4 04 49
        E 30 b4 04 48
        E 30 b4 04 46
        E 30 b4 04 44
        E 30 b4 04 42
        E 30 b4 04 40
        E 30 b4 04 3e
        E 30 b4 04 3c
        E 30 b4 04 3a
        E 30 b4 04 38
        E 30 b4 04 36
        E 30 b4 04 33
        E 30 b4 04 31
        E 30 b4 04 2f
        E 30 b4 04 2d
        E 30 b4 04 2b
        E 30 b4 04 29
        E 30 b4 04 27
        E 30 b4 04 25
        E 30 b4 04 22
        E 30 b4 04 20
        E 30 b4 04 1e
        E 30 b4 04 1c
        E 30 b4 04 1a
        E 30 b4 04 18
        E 30 b4 04 16
        E 30 b4 04 14
        E 30 b4 04 12
        E 30 b4 04 10
        E 30 b4 04 0f
        E 30 b4 04 0d
        E 30 b4 04 0b
        E 30 b4 04 0a
        E 30 b4 04 09
        E 30 b4 04 07
        E 30 b4 04 07
        E 30 b4 04 05
        E 30 b4 04 04
        E 30 b4 04 03
        E 30 b4 04 02
        E 30 b4 04 02
        E 30 b4 04 01
        E 30 b4 04 00
        E 30 b4 04 00
        E 30 b4 04 00
        E 30 b4 04 00
        E 30 b4 04 00
        E 30 b4 04 00
        E 30 b4 04 00
        E 30 b4 04 00
        E 30 b4 04 00
        E 30 b4 04 01
        E 30 b4 04 02
        E 30 b4 04 02
        E 30 b4 04 03
        E 30 b4 04 04
        E 30 b4 04 04
        E 30 b4 04 06
        E 30 b4 04 07
        E 30 b4 04 08
        E 30 b4 04 09
        E 30 b4 04 0b
        E 30 b4 04 0c
        E 30 b4 04 0e
        E 30 b4 04 10
        E 30 b4 04 11
        E 30 b4 04 13
        E 30 b4 04 15
        E 30 b4 04 17
        E 30 b4 04 19
        E 30 b4 04 1b
        E 30 b4 04 1d
        E 30 b4 04 1f
        E 30 b4 04 21
        E 30 b4 04 23
        E 30 b4 04 25
        E 30 b4 04 27
        E 30 b4 04 2a
        E 30 b4 04 2c
        E 30 b4 04 20
        E 30 b4 04 21
        E 30 b4 04 23
        E 30 b4 04 24
        E 30 b4 04 26
        E 30 b4 04 27
        E 30 b4 04 29
        E 30 b4 04 2a
        E 30 b4 04 2c
        E 30 b4 04 2d
        E 30 b4 04 2f
        E 30 b4 04 30
        E 30 b4 04 31
        E 30 b4 04 33
        E 30 b4 04 34
        E 30 b4 04 35
        E 30 b4 04 36
        E 30 b4 04 37
        E 30 b4 04 38
        E 30 b4 04 39
        E 30 b4 04 3a
        E 30 b4 04 3b
        E 30 b4 04 3c
        E 30 b4 04 3c
        E 30 b4 04 3d
        E 30 b4 04 3d
        E 30 b4 04 3e
        E 30 b4 04 3e
        E 30 b4 04 3f
        E 30 b4 04 3f
        E 30 b4 04 3f
        E 30 b4 04 3f
        E 30 b4 04 3f
        E 30 b4 04 3f
        E 30 b4 04 3f
        E 30 b4 04 3f
        E 30 b4 04 3f
        E 30 b4 04 3e
        E 30 b4 04 3e
        E 30 b4 04 3d
        E 30 b4 04 3d
        E 30 b4 04 3c
        E 30 b4 04 3b
        E 30 b4 04 3a
        E 30 b4 04 3a
        E 30 b4 04 39
        E 30 b4 04 38
        E 30 b4 04 37
        E 30 b4 04 36
        E 30 b4 04 34
        E 30 b4 04 33
        E 30 b4 04 32
        E 30 b4 04 31
        E 30 b4 04 2f
        E 30 b4 04 2e
        E 30 b4 04 2c
        E 30 b4 04 2b
        E 30 b4 04 2a
        E 30 b4 04 28
        E 30 b4 04 27
        E 30 b4 04 25
        E 30 b4 04 23
        E 30 b4 04 22
        E 30 b4 04 20
        E 30 b4 04 1f
        E 30 b4 04 1d
        E 30 b4 04 1c
        E 30 b4 04 1a
        E 30 b4 04 18
        E 30 b4 04 17
        E 30 b4 04 15
        E 30 b4 04 14
        E 30 b4 04 13
        E 30 b4 04 11
        E 30 b4 04 10
        E 30 b4 04 0e
        E 30 b4 04 0d
        E 30 b4 04 0c
        E 30 b4 04 0b
        E 30 b4 04 09
        E 30 b4 04 08
        E 30 b4 04 07
        E 30 b4 04 06
        E 30 b4 04 05
        E 30 b4 04 05
        E 30 b4 04 04
        E 30 b4 04 03
        E 30 b4 04 02
        E 30 b4 04 02
        E 30 b4 04 01
        E 30 b4 04 01
        E 30 b4 04 00
        E 30 b4 04 00
        E 30 b4 04 00
        E 30 b4 04 00
        E 30 b4 04 00
        E 30 b4 04 00
        E 30 b4 04 00
        E 30 b4 04 00
        E 30 b4 04 00
        E 30 b4 04 01
        E 30 b4 04 01
        E 30 b4 04 02
        E 30 b4 04 02
        E 30 b4 04 03
        E 30 b4 04 03
        E 30 b4 04 04
        E 30 b4 04 05
        E 30 b4 04 06
        E 30 b4 04 07
        E 30 b4 04 08
        E 30 b4 04 09
        E 30 b4 04 0a
        E 30 b4 04 0b
        E 30 b4 04 0c
        E 30 b4 04 0e
        E 30 b4 04 0f
        E 30 b4 04 10
        E 30 b4 04 12
        E 30 b4 04 13
        E 30 b4 04 15
        E 30 b4 04 16
        E 30 b4 04 18
        E 30 b4 04 19
        E 30 b4 04 1b
        E 30 b4 04 1c
        E 30 b4 04 1e
        E 30 b4 04 20
        E 42 b4 04 20
        E 42 b4 04 21
        E 42 b4 04 23
        E 42 b4 04 24
        E 42 b4 04 26
        E 42 b4 04 27
        E 42 b4 04 29
        E 42 b4 04 2a
        E 42 b4 04 2c
        E 42 b4 04 2d
        E 42 b4 04 2f
        E 42 b4 04 30
        E 42 b4 04 31
        E 42 b4 04 33
        E 42 b4 04 34
        E 42 b4 04 35
        E 42 b4 04 36
        E 42 b4 04 37
        E 42 b4 04 38
        E 42 b4 04 39
        E 42 b4 04 3a
        E 42 b4 04 3b
        E 42 b4 04 3c
        E 42 b4 04 3c
        E 42 b4 04 3d
        E 42 b4 04 3d
        E 42 b4 04 3e
        E 42 b4 04 3e
        E 42 b4 04 3f
        E 42 b4 04 3f
        E 42 b4 04 3f
        E 42 b4 04 3f
        E 42 b4 04 3f
        E 42 b4 04 3f
        E 42 b4 04 3f
        E 42 b4 04 3f
        E 42 b4 04 3f
        E 42 b4 04 3e
        E 42 b4 04 3e
        E 42 b4 04 3d
        E 42 b4 04 3d
        E 42 b4 04 3c
        E 42 b4 04 3b
        E 42 b4 04 3a
        E 42 b4 04 3a
        E 42 b4 04 39
        E 42 b4 04 38
        E 42 b4 04 37
        E 42 b4 04 36
        E 42 b4 04 34
        E 42 b4 04 33
        E 42 b4 04 32
        E 42 b4 04 31
        E 42 b4 04 2f
        E 42 b4 04 2e
        E 42 b4 04 2c
        E 42 b4 04 2b
        E 42 b4 04 2a
        E 42 b4 04 28
        E 42 b4 04 27
        E 42 b4 04 25
        E 42 b4 04 23
        E 42 b4 04 22
        E 42 b4 04 20
        E 42 b4 04 1f
        E 42 b4 04 1d
        E 42 b4 04 1c
        E 42 b4 04 1a
        E 42 b4 04 18
        E 42 b4 04 17
        E 42 b4 04 15
        E 42 b4 04 14
        E 42 b4 04 13
        E 42 b4 04 11
        E 42 b4 04 10
        E 42 b4 04 0e
        E 42 b4 04 0d
        E 42 b4 04 0c
        E 42 b4 04 0b
        E 42 b4 04 09
        E 42 b4 04 08
        E 42 b4 04 07
        E 42 b4 04 06
        E 42 b4 04 05
        E 42 b4 04 05
        E 42 b4 04 04
        E 42 b4 04 03
        E 42 b4 04 02
        E 42 b4 04 02
        E 42 b4 04 01
        E 42 b4 04 01
        E 42 b4 04 00
        E 42 b4 04 00
        E 42 b4 04 00
        E 42 b4 04 00
        E 42 b4 04 00
        E 42 b4 04 00
        E 42 b4 04 00
        E 42 b4 04 00
        E 42 b4 04 00
        E 42 b4 04 01
        E 42 b4 04 01
        E 42 b4 04 02
        E 42 b4 04 02
        E 42 b4 04 03
        E 42 b4 04 03
        E 42 b4 04 04
        E 42 b4 04 05
        E 42 b4 04 06
        E 42 b4 04 07
        E 42 b4 04 08
        E 42 b4 04 09
        E 42 b4 04 0a
        E 42 b4 04 0b
        E 42 b4 04 0c
        E 42 b4 04 0e
        E 42 b4 04 0f
        E 42 b4 04 10
        E 42 b4 04 12
        E 42 b4 04 13
        E 42 b4 04 15
        E 42 b4 04 16
        E 42 b4 04 18
        E 42 b4 04 19
        E 42 b4 04 1b
        E 42 b4 04 1c
        E 42 b4 04 1e
        E 42 b4 04 20
        E 48 b4 04 40
        E 48 b4 04 43
        E 48 b4 04 46
        E 48 b4 04 49
        E 48 b4 04 4c
        E 48 b4 04 4f
        E 48 b4 04 52
        E 48 b4 04 55
        E 48 b4 04 58
        E 48 b4 04 5b
        E 48 b4 04 5e
        E 48 b4 04 60
        E 48 b4 04 63
        E 48 b4 04 66
        E 48 b4 04 68
        E 48 b4 04 6a
        E 48 b4 04 6d
        E 48 b4 04 6f
        E 48 b4 04 71
        E 48 b4 04 73
        E 48 b4 04 75
        E 48 b4 04 76
        E 48 b4 04 78
        E 48 b4 04 79
        E 48 b4 04 7a
        E 48 b4 04 7b
        E 48 b4 04 7c
        E 48 b4 04 7d
        E 48 b4 04 7e
        E 48 b4 04 7e
        E 48 b4 04 7f
        E 48 b4 04 7f
        E 48 b4 04 7f
        E 48 b4 04 7f
        E 48 b4 04 7f
        E 48 b4 04 7e
        E 48 b4 04 7e
        E 48 b4 04 7d
        E 48 b4 04 7c
        E 48 b4 04 7b
        E 48 b4 04 7a
        E 48 b4 04 78
        E 48 b4 04 77
        E 48 b4 04 75
        E 48 b4 04 74
        E 48 b4 04 72
        E 48 b4 04 70
        E 48 b4 04 6e
        E 48 b4 04 6c
        E 48 b4 04 69
        E 48 b4 04 67
        E 48 b4 04 64
        E 48 b4 04 62
        E 48 b4 04 5f
        E 48 b4 04 5c
        E 48 b4 04 59
        E 48 b4 04 57
        E 48 b4 04 54
        E 48 b4 04 51
        E 48 b4 04 4e
        E 48 b4 04 4a
        E 48 b4 04 47
        E 48 b4 04 44
        E 48 b4 04 41
        E 48 b4 04 3e
        E 48 b4 04 3b
        E 48 b4 04 38
        E 48 b4 04 35
        E 48 b4 04 31
        E 48 b4 04 2e
        E 48 b4 04 2b
        E 48 b4 04 28
        E 48 b4 04 26
        E 48 b4 04 23
        E 48 b4 04 20
        E 48 b4 04 1d
        E 48 b4 04 1b
        E 48 b4 04 18
        E 48 b4 04 16
        E 48 b4 04 13
        E 48 b4 04 11
        E 48 b4 04 0f
        E 48 b4 04 0d
        E 48 b4 04 0b
        E 48 b4 04 0a
        E 48 b4 04 08
        E 48 b4 04 07
        E 48 b4 04 05
        E 48 b4 04 04
        E 48 b4 04 03
        E 48 b4 04 02
        E 48 b4 04 01
        E 48 b4 04 01
        E 48 b4 04 00
        E 48 b4 04 00
        E 48 b4 04 00
        E 48 b4 04 00
        E 48 b4 04 00
        E 48 b4 04 01
        E 48 b4 04 01
        E 48 b4 04 02
        E 48 b4 04 03
        E 48 b4 04 04
        E 48 b4 04 05
        E 48 b4 04 06
        E 48 b4 04 07
        E 48 b4 04 09
        E 48 b4 04 0a
        E 48 b4 04 0c
        E 48 b4 04 0e
        E 48 b4 04 10
        E 48 b4 04 12
        E 48 b4 04 15
        E 48 b4 04 17
        E 48 b4 04 19
        E 48 b4 04 1c
        E 48 b4 04 1f
        E 48 b4 04 21
        E 48 b4 04 24
        E 48 b4 04 27
        E 48 b4 04 2a
        E 48 b4 04 2d
        E 48 b4 04 30
        E 48 b4 04 33
        E 48 b4 04 36
        E 48 b4 04 39
        E 48 b4 04 3c
        E 48 b4 04 40
        E 6 b4 04 39
        E 6 b4 04 3c
        E 6 b4 04 3f
        E 6 b4 04 41
        E 6 b4 04 44
        E 6 b4 04 47
        E 6 b4 04 49
        E 6 b4 04 4c
        E 6 b4 04 4f
        E 6 b4 04 51
        E 6 b4 04 54
        E 6 b4 04 56
        E 6 b4 04 59
        E 6 b4 04 5b
        E 6 b4 04 5d
        E 6 b4 04 5f
        E 6 b4 04 62
        E 6 b4 04 63
        E 6 b4 04 65
        E 6 b4 04 67
        E 6 b4 04 69
        E 6 b4 04 6a
        E 6 b4 04 6c
        E 6 b4 04 6c
        E 6 b4 04 6d
        E 6 b4 04 6e
        E 6 b4 04 6f
        E 6 b4 04 70
        E 6 b4 04 71
        E 6 b4 04 71
        E 6 b4 04 72
        E 6 b4 04 72
        E 6 b4 04 72
        E 6 b4 04 72
        E 6 b4 04 72
        E 6 b4 04 71
        E 6 b4 04 71
        E 6 b4 04 70
        E 6 b4 04 6f
        E 6 b4 04 6e
        E 6 b4 04 6d
        E 6 b4 04 6c
        E 6 b4 04 6b
        E 6 b4 04 69
        E 6 b4 04 68
        E 6 b4 04 66
        E 6 b4 04 64
        E 6 b4 04 63
        E 6 b4 04 61
        E 6 b4 04 5e
        E 6 b4 04 5c
        E 6 b4 04 5a
        E 6 b4 04 58
        E 6 b4 04 55
        E 6 b4 04 52
        E 6 b4 04 50
        E 6 b4 04 4e
        E 6 b4 04 4b
        E 6 b4 04 48
        E 6 b4 04 46
        E 6 b4 04 42
        E 6 b4 04 3f
        E 6 b4 04 3d
        E 6 b4 04 3a
        E 6 b4 04 37
        E 6 b4 04 35
        E 6 b4 04 32
        E 6 b4 04 2f
        E 6 b4 04 2c
        E 6 b4 04 29
        E 6 b4 04 26
        E 6 b4 04 24
        E 6 b4 04 22
        E 6 b4 04 1f
        E 6 b4 04 1c
        E 6 b4 04 1a
        E 6 b4 04 18
        E 6 b4 04 15
        E 6 b4 04 13
        E 6 b4 04 11
        E 6 b4 04 0f
        E 6 b4 04 0d
        E 6 b4 04 0b
        E 6 b4 04 09
        E 6 b4 04 09
        E 6 b4 04 07
        E 6 b4 04 06
        E 6 b4 04 04
        E 6 b4 04 03
        E 6 b4 04 02
        E 6 b4 04 01
        E 6 b4 04 00
        E 6 b4 04 00
        E 6 b4 04 00
        E 6 b4 04 00
        E 6 b4 04 00
        E 6 b4 04 00
        E 6 b4 04 00
        E 6 b4 04 00
        E 6 b4 04 00
        E 6 b4 04 01
        E 6 b4 04 02
        E 6 b4 04 03
        E 6 b4 04 04
        E 6 b4 04 05
        E 6 b4 04 06
        E 6 b4 04 08
        E 6 b4 04 09
        E 6 b4 04 0a
        E 6 b4 04 0c
        E 6 b4 04 0e
        E 6 b4 04 10
        E 6 b4 04 12
        E 6 b4 04 14
        E 6 b4 04 16
        E 6 b4 04 19
        E 6 b4 04 1b
        E 6 b4 04 1d
        E 6 b4 04 20
        E 6 b4 04 23
        E 6 b4 04 25
        E 6 b4 04 28
        E 6 b4 04 2b
        E 6 b4 04 2d
        E 6 b4 04 30
        E 6 b4 04 33
        E 6 b4 04 36
        E 6 b4 04 39
        E 24 b4 04 40
        E 24 b4 04 43
        E 24 b4 04 46
        E 24 b4 04 49
        E 24 b4 04 4c
        E 24 b4 04 4f
        E 24 b4 04 52
        E 24 b4 04 55
        E 24 b4 04 58
        E 24 b4 04 5b
        E 24 b4 04 5e
        E 24 b4 04 60
        E 24 b4 04 63
        E 24 b4 04 66
        E 24 b4 04 68
        E 24 b4 04 6a
        E 24 b4 04 6d
        E 24 b4 04 6f
        E 24 b4 04 71
        E 24 b4 04 73
        E 24 b4 04 75
        E 24 b4 04 76
        E 24 b4 04 78
        E 24 b4 04 79
        E 24 b4 04 7a
        E 24 b4 04 7b
        E 24 b4 04 7c
        E 24 b4 04 7d
        E 24 b4 04 7e
        E 24 b4 04 7e
        E 24 b4 04 7f
        E 24 b4 04 7f
        E 24 b4 04 7f
        E 24 b4 04 7f
        E 24 b4 04 7f
        E 24 b4 04 7e
        E 24 b4 04 7e
        E 24 b4 04 7d
        E 24 b4 04 7c
        E 24 b4 04 7b
        E 24 b4 04 7a
        E 24 b4 04 78
        E 24 b4 04 77
        E 24 b4 04 75
        E 24 b4 04 74
        E 24 b4 04 72
        E 24 b4 04 70
        E 24 b4 04 6e
        E 24 b4 04 6c
        E 24 b4 04 69
        E 24 b4 04 67
        E 24 b4 04 64
        E 24 b4 04 62
        E 24 b4 04 5f
        E 24 b4 04 5c
        E 24 b4 04 59
        E 24 b4 04 57
        E 24 b4 04 54
        E 24 b4 04 51
        E 24 b4 04 4e
        E 24 b4 04 4a
        E 24 b4 04 47
        E 24 b4 04 44
        E 24 b4 04 41
        E 24 b4 04 3e
        E 24 b4 04 3b
        E 24 b4 04 38
        E 24 b4 04 35
        E 24 b4 04 31
        E 24 b4 04 2e
        E 24 b4 04 2b
        E 24 b4 04 28
        E 24 b4 04 26
        E 24 b4 04 23
        E 24 b4 04 20
        E 24 b4 04 1d
        E 24 b4 04 1b
        E 24 b4 04 18
        E 24 b4 04 16
        E 24 b4 04 13
        E 24 b4 04 11
        E 24 b4 04 0f
        E 24 b4 04 0d
        E 24 b4 04 0b
        E 24 b4 04 0a
        E 24 b4 04 08
        E 24 b4 04 07
        E 24 b4 04 05
        E 24 b4 04 04
        E 24 b4 04 03
        E 24 b4 04 02
        E 24 b4 04 01
        E 24 b4 04 01
        E 24 b4 04 00
        E 24 b4 04 00
        E 24 b4 04 00
        E 24 b4 04 00
        E 24 b4 04 00
        E 24 b4 04 01
        E 24 b4 04 01
        E 24 b4 04 02
        E 24 b4 04 03
        E 24 b4 04 04
        E 24 b4 04 05
        E 24 b4 04 06
        E 24 b4 04 07
        E 24 b4 04 09
        E 24 b4 04 0a
        E 24 b4 04 0c
        E 24 b4 04 0e
        E 24 b4 04 10
        E 24 b4 04 12
        E 24 b4 04 15
        E 24 b4 04 17
        E 24 b4 04 19
        E 24 b4 04 1c
        E 24 b4 04 1f
        E 24 b4 04 21
        E 24 b4 04 24
        E 24 b4 04 27
        E 24 b4 04 2a
        E 24 b4 04 2d
        E 24 b4 04 30
        E 24 b4 04 33
        E 24 b4 04 36
        E 24 b4 04 39
        E 24 b4 04 3c
        E 23 b4 04 40
        E 1 b0 7b 00
        CCINTERP 32
        CHASE_CC_TAKEOFFS 1
        GUID {24A06BCB-2F23-F643-B7F5-1931EA68011E}
        IGNTEMPO 0 120 4 4
        SRCCOLOR 177
        VELLANE 3 601 0
        VELLANE -1 196 0
      >
    >
  >
  <TRACK {AABEAED8-19E6-034C-9AD2-D3F6894487D6}
    NAME "insects of the los angeles basin"
    PEAKCOL 16576
    BEAT -1
    AUTOMODE 0
    VOLPAN 1 0 -1 -1 1
    MUTESOLO 0 0 0
    IPHASE 0
    PLAYOFFS 0 1
    ISBUS 0 0
    BUSCOMP 0 0 0 0 0
    SHOWINMIX 1 0.6667 0.5 1 0.5 0 -1 0
    FREEMODE 0
    SEL 0
    REC 0 0 1 0 0 0 0
    VU 2
    TRACKHEIGHT 0 1 0 0 -1 0
    INQ 0 0 0 0.5 100 0 0 100
    NCHAN 2
    FX 1
    TRACKID {AABEAED8-19E6-034C-9AD2-D3F6894487D6}
    PERF 0
    MIDIOUT -1
    MAINSEND 1 0
    <ITEM
      POSITION 0
      SNAPOFFS 0
      LENGTH 519.130305
      LOOP 1
      ALLTAKES 0
      FADEIN 1 0 0 1 0 0
      FADEOUT 1 0 0 1 0 0
      MUTE 0 0
      SEL 0
      IGUID {6928AFC8-409C-BC46-8612-30FC0DA3CD19}
      IID 19
      NAME "insects of the los angeles basin.mid"
      VOLPAN 1 0 1 -1
      SOFFS 0 0
      PLAYRATE 1 1 0 -1 0 0.0025
      CHANMODE 0
      GUID {55113492-9659-4F48-973A-87B251C532D5}
      <SOURCE MIDI
        HASDATA 1 128 QN
        CCINTERP 32
        POOLEDEVTS {2F94D3CF-4822-4848-BAF4-ED6A3D3C8573}
        E 31 b5 09 3f
        E 31 b5 09 3f
        E 31 b5 09 3f
        E 31 b5 09 3f
        E 31 b5 09 3f
        E 31 b5 09 3f
        E 31 b5 09 3f
        E 31 b5 09 3f
        E 31 b5 09 3f
        E 31 b5 09 3f
        E 31 b5 09 3f
        E 31 b5 09 3f
        E 31 b5 09 3f
        E 31 b5 09 3f
        E 31 b5 09 3f
        E 31 b5 09 3f
        E 31 b5 09 3f
        E 31 b5 09 3f
        E 31 b5 09 3f
        E 31 b5 09 3f
        E 31 b5 09 3f
        E 31 b5 09 3f
        E 31 b5 09 3f
        E 31 b5 09 3f
        E 31 b5 09 3f
        E 31 b5 09 3f
        E 31 b5 09 3f
        E 31 b5 09 3f
        E 31 b5 09 3f
        E 31 b5 09 3f
        E 31 b5 09 3f
        E 31 b5 09 3f
        E 31 b5 09 3f
        E 31 b5 09 3f
        E 31 b5 09 3f
        E 31 b5 09 3f
        E 31 b5 09 3f
        E 31 b5 09 3f
        E 31 b5 09 3f
        E 31 b5 09 3f
        E 31 b5 09 3f
        E 31 b5 09 3f
        E 31 b5 09 3f
        E 31 b5 09 3f
        E 31 b5 09 3f
        E 31 b5 09 3f
        E 31 b5 09 3f
        E 31 b5 09 3f
        E 31 b5 09 3f
        E 31 b5 09 3f
        E 31 b5 09 3f
        E 31 b5 09 3f
        E 31 b5 09 3f
        E 31 b5 09 3f
        E 31 b5 09 3f
        E 31 b5 09 3f
        E 31 b5 09 3f
        E 31 b5 09 3f
        E 31 b5 09 3f
        E 31 b5 09 3f
        E 31 b5 09 3f
        E 31 b5 09 3f
        E 31 b5 09 3f
        E 31 b5 09 00
        E 31 b5 09 00
        E 31 b5 09 00
        E 31 b5 09 00
        E 31 b5 09 00
        E 31 b5 09 00
        E 31 b5 09 00
        E 31 b5 09 00
        E 31 b5 09 00
        E 31 b5 09 00
        E 31 b5 09 00
        E 31 b5 09 00
        E 31 b5 09 00
        E 31 b5 09 00
        E 31 b5 09 00
        E 31 b5 09 00
        E 31 b5 09 00
        E 31 b5 09 00
        E 31 b5 09 00
        E 31 b5 09 00
        E 31 b5 09 00
        E 31 b5 09 00
        E 31 b5 09 00
        E 31 b5 09 00
        E 31 b5 09 00
        E 31 b5 09 00
        E 31 b5 09 00
        E 31 b5 09 00
        E 31 b5 09 00
        E 31 b5 09 00
        E 31 b5 09 00
        E 31 b5 09 00
        E 31 b5 09 00
        E 31 b5 09 00
        E 31 b5 09 00
        E 31 b5 09 00
        E 31 b5 09 00
        E 31 b5 09 00
        E 31 b5 09 00
        E 31 b5 09 00
        E 31 b5 09 00
        E 31 b5 09 00
        E 31 b5 09 00
        E 31 b5 09 00
        E 31 b5 09 00
        E 31 b5 09 00
        E 31 b5 09 00
        E 31 b5 09 00
        E 31 b5 09 00
        E 31 b5 09 00
        E 31 b5 09 00
        E 31 b5 09 00
        E 31 b5 09 00
        E 31 b5 09 00
        E 31 b5 09 00
        E 31 b5 09 00
        E 31 b5 09 00
        E 31 b5 09 00
        E 31 b5 09 00
        E 31 b5 09 00
        E 31 b5 09 00
        E 31 b5 09 00
        E 31 b5 09 00
        E 31 b5 09 00
        E 36 b5 09 7f
        E 36 b5 09 7f
        E 36 b5 09 7f
        E 36 b5 09 7f
        E 36 b5 09 7f
        E 36 b5 09 7f
        E 36 b5 09 7f
        E 36 b5 09 7f
        E 36 b5 09 7f
        E 36 b5 09 7f
        E 36 b5 09 7f
        E 36 b5 09 7f
        E 36 b5 09 7f
        E 36 b5 09 7f
        E 36 b5 09 7f
        E 36 b5 09 7f
        E 36 b5 09 7f
        E 36 b5 09 7f
        E 36 b5 09 7f
        E 36 b5 09 7f
        E 36 b5 09 7f
        E 36 b5 09 7f
        E 36 b5 09 7f
        E 36 b5 09 7f
        E 36 b5 09 7f
        E 36 b5 09 7f
        E 36 b5 09 7f
        E 36 b5 09 7f
        E 36 b5 09 7f
        E 36 b5 09 7f
        E 36 b5 09 7f
        E 36 b5 09 7f
        E 36 b5 09 7f
        E 36 b5 09 7f
        E 36 b5 09 7f
        E 36 b5 09 7f
        E 36 b5 09 7f
        E 36 b5 09 7f
        E 36 b5 09 7f
        E 36 b5 09 7f
        E 36 b5 09 7f
        E 36 b5 09 7f
        E 36 b5 09 7f
        E 36 b5 09 7f
        E 36 b5 09 7f
        E 36 b5 09 7f
        E 36 b5 09 7f
        E 36 b5 09 7f
        E 36 b5 09 7f
        E 36 b5 09 7f
        E 36 b5 09 7f
        E 36 b5 09 7f
        E 36 b5 09 7f
        E 36 b5 09 7f
        E 36 b5 09 7f
        E 36 b5 09 7f
        E 36 b5 09 7f
        E 36 b5 09 7f
        E 36 b5 09 7f
        E 36 b5 09 7f
        E 36 b5 09 7f
        E 36 b5 09 7f
        E 36 b5 09 7f
        E 36 b5 09 00
        E 36 b5 09 00
        E 36 b5 09 00
        E 36 b5 09 00
        E 36 b5 09 00
        E 36 b5 09 00
        E 36 b5 09 00
        E 36 b5 09 00
        E 36 b5 09 00
        E 36 b5 09 00
        E 36 b5 09 00
        E 36 b5 09 00
        E 36 b5 09 00
        E 36 b5 09 00
        E 36 b5 09 00
        E 36 b5 09 00
        E 36 b5 09 00
        E 36 b5 09 00
        E 36 b5 09 00
        E 36 b5 09 00
        E 36 b5 09 00
        E 36 b5 09 00
        E 36 b5 09 00
        E 36 b5 09 00
        E 36 b5 09 00
        E 36 b5 09 00
        E 36 b5 09 00
        E 36 b5 09 00
        E 36 b5 09 00
        E 36 b5 09 00
        E 36 b5 09 00
        E 36 b5 09 00
        E 36 b5 09 00
        E 36 b5 09 00
        E 36 b5 09 00
        E 36 b5 09 00
        E 36 b5 09 00
        E 36 b5 09 00
        E 36 b5 09 00
        E 36 b5 09 00
        E 36 b5 09 00
        E 36 b5 09 00
        E 36 b5 09 00
        E 36 b5 09 00
        E 36 b5 09 00
        E 36 b5 09 00
        E 36 b5 09 00
        E 36 b5 09 00
        E 36 b5 09 00
        E 36 b5 09 00
        E 36 b5 09 00
        E 36 b5 09 00
        E 36 b5 09 00
        E 36 b5 09 00
        E 36 b5 09 00
        E 36 b5 09 00
        E 36 b5 09 00
        E 36 b5 09 00
        E 36 b5 09 00
        E 36 b5 09 00
        E 36 b5 09 00
        E 36 b5 09 00
        E 36 b5 09 00
        E 36 b5 09 00
        E 4 b5 09 72
        E 4 b5 09 72
        E 4 b5 09 72
        E 4 b5 09 72
        E 4 b5 09 72
        E 4 b5 09 72
        E 4 b5 09 72
        E 4 b5 09 72
        E 4 b5 09 72
        E 4 b5 09 72
        E 4 b5 09 72
        E 4 b5 09 72
        E 4 b5 09 72
        E 4 b5 09 72
        E 4 b5 09 72
        E 4 b5 09 72
        E 4 b5 09 72
        E 4 b5 09 72
        E 4 b5 09 72
        E 4 b5 09 72
        E 4 b5 09 72
        E 4 b5 09 72
        E 4 b5 09 72
        E 4 b5 09 72
        E 4 b5 09 72
        E 4 b5 09 72
        E 4 b5 09 72
        E 4 b5 09 72
        E 4 b5 09 72
        E 4 b5 09 72
        E 4 b5 09 72
        E 4 b5 09 72
        E 4 b5 09 72
        E 4 b5 09 72
        E 4 b5 09 72
        E 4 b5 09 72
        E 4 b5 09 72
        E 4 b5 09 72
        E 4 b5 09 72
        E 4 b5 09 72
        E 4 b5 09 72
        E 4 b5 09 72
        E 4 b5 09 72
        E 4 b5 09 72
        E 4 b5 09 72
        E 4 b5 09 72
        E 4 b5 09 72
        E 4 b5 09 72
        E 4 b5 09 72
        E 4 b5 09 72
        E 4 b5 09 72
        E 4 b5 09 72
        E 4 b5 09 72
        E 4 b5 09 72
        E 4 b5 09 72
        E 4 b5 09 72
        E 4 b5 09 72
        E 4 b5 09 72
        E 4 b5 09 72
        E 4 b5 09 72
        E 4 b5 09 72
        E 4 b5 09 72
        E 4 b5 09 72
        E 4 b5 09 00
        E 4 b5 09 00
        E 4 b5 09 00
        E 4 b5 09 00
        E 4 b5 09 00
        E 4 b5 09 00
        E 4 b5 09 00
        E 4 b5 09 00
        E 4 b5 09 00
        E 4 b5 09 00
        E 4 b5 09 00
        E 4 b5 09 00
        E 4 b5 09 00
        E 4 b5 09 00
        E 4 b5 09 00
        E 4 b5 09 00
        E 4 b5 09 00
        E 4 b5 09 00
        E 4 b5 09 00
        E 4 b5 09 00
        E 4 b5 09 00
        E 4 b5 09 00
        E 4 b5 09 00
        E 4 b5 09 00
        E 4 b5 09 00
        E 4 b5 09 00
        E 4 b5 09 00
        E 4 b5 09 00
        E 4 b5 09 00
        E 4 b5 09 00
        E 4 b5 09 00
        E 4 b5 09 00
        E 4 b5 09 00
        E 4 b5 09 00
        E 4 b5 09 00
        E 4 b5 09 00
        E 4 b5 09 00
        E 4 b5 09 00
        E 4 b5 09 00
        E 4 b5 09 00
        E 4 b5 09 00
        E 4 b5 09 00
        E 4 b5 09 00
        E 4 b5 09 00
        E 4 b5 09 00
        E 4 b5 09 00
        E 4 b5 09 00
        E 4 b5 09 00
        E 4 b5 09 00
        E 4 b5 09 00
        E 4 b5 09 00
        E 4 b5 09 00
        E 4 b5 09 00
        E 4 b5 09 00
        E 4 b5 09 00
        E 4 b5 09 00
        E 4 b5 09 00
        E 4 b5 09 00
        E 4 b5 09 00
        E 4 b5 09 00
        E 4 b5 09 00
        E 4 b5 09 00
        E 4 b5 09 00
        E 4 b5 09 00
        E 18 b5 09 7f
        E 18 b5 09 7f
        E 18 b5 09 7f
        E 18 b5 09 7f
        E 18 b5 09 7f
        E 18 b5 09 7f
        E 18 b5 09 7f
        E 18 b5 09 7f
        E 18 b5 09 7f
        E 18 b5 09 7f
        E 18 b5 09 7f
        E 18 b5 09 7f
        E 18 b5 09 7f
        E 18 b5 09 7f
        E 18 b5 09 7f
        E 18 b5 09 7f
        E 18 b5 09 7f
        E 18 b5 09 7f
        E 18 b5 09 7f
        E 18 b5 09 7f
        E 18 b5 09 7f
        E 18 b5 09 7f
        E 18 b5 09 7f
        E 18 b5 09 7f
        E 18 b5 09 7f
        E 18 b5 09 7f
        E 18 b5 09 7f
        E 18 b5 09 7f
        E 18 b5 09 7f
        E 18 b5 09 7f
        E 18 b5 09 7f
        E 18 b5 09 7f
        E 18 b5 09 7f
        E 18 b5 09 7f
        E 18 b5 09 7f
        E 18 b5 09 7f
        E 18 b5 09 7f
        E 18 b5 09 7f
        E 18 b5 09 7f
        E 18 b5 09 7f
        E 18 b5 09 7f
        E 18 b5 09 7f
        E 18 b5 09 7f
        E 18 b5 09 7f
        E 18 b5 09 7f
        E 18 b5 09 7f
        E 18 b5 09 7f
        E 18 b5 09 7f
        E 18 b5 09 7f
        E 18 b5 09 7f
        E 18 b5 09 7f
        E 18 b5 09 7f
        E 18 b5 09 7f
        E 18 b5 09 7f
        E 18 b5 09 7f
        E 18 b5 09 7f
        E 18 b5 09 7f
        E 18 b5 09 7f
        E 18 b5 09 7f
        E 18 b5 09 7f
        E 18 b5 09 7f
        E 18 b5 09 7f
        E 18 b5 09 7f
        E 18 b5 09 00
        E 18 b5 09 00
        E 18 b5 09 00
        E 18 b5 09 00
        E 18 b5 09 00
        E 18 b5 09 00
        E 18 b5 09 00
        E 18 b5 09 00
        E 18 b5 09 00
        E 18 b5 09 00
        E 18 b5 09 00
        E 18 b5 09 00
        E 18 b5 09 00
        E 18 b5 09 00
        E 18 b5 09 00
        E 18 b5 09 00
        E 18 b5 09 00
        E 18 b5 09 00
        E 18 b5 09 00
        E 18 b5 09 00
        E 18 b5 09 00
        E 18 b5 09 00
        E 18 b5 09 00
        E 18 b5 09 00
        E 18 b5 09 00
        E 18 b5 09 00
        E 18 b5 09 00
        E 18 b5 09 00
        E 18 b5 09 00
        E 18 b5 09 00
        E 18 b5 09 00
        E 18 b5 09 00
        E 18 b5 09 00
        E 18 b5 09 00
        E 18 b5 09 00
        E 18 b5 09 00
        E 18 b5 09 00
        E 18 b5 09 00
        E 18 b5 09 00
        E 18 b5 09 00
        E 18 b5 09 00
        E 18 b5 09 00
        E 18 b5 09 00
        E 18 b5 09 00
        E 18 b5 09 00
        E 18 b5 09 00
        E 18 b5 09 00
        E 18 b5 09 00
        E 18 b5 09 00
        E 18 b5 09 00
        E 18 b5 09 00
        E 18 b5 09 00
        E 18 b5 09 00
        E 18 b5 09 00
        E 18 b5 09 00
        E 18 b5 09 00
        E 18 b5 09 00
        E 18 b5 09 00
        E 18 b5 09 00
        E 18 b5 09 00
        E 18 b5 09 00
        E 18 b5 09 00
        E 18 b5 09 00
        E 18 b5 09 00
        E 31 b5 09 72
        E 31 b5 09 72
        E 31 b5 09 72
        E 31 b5 09 72
        E 31 b5 09 72
        E 31 b5 09 72
        E 31 b5 09 72
        E 31 b5 09 72
        E 31 b5 09 72
        E 31 b5 09 72
        E 31 b5 09 72
        E 31 b5 09 72
        E 31 b5 09 72
        E 31 b5 09 72
        E 31 b5 09 72
        E 31 b5 09 72
        E 31 b5 09 72
        E 31 b5 09 72
        E 31 b5 09 72
        E 31 b5 09 72
        E 31 b5 09 72
        E 31 b5 09 72
        E 31 b5 09 72
        E 31 b5 09 72
        E 31 b5 09 72
        E 31 b5 09 72
        E 31 b5 09 72
        E 31 b5 09 72
        E 31 b5 09 72
        E 31 b5 09 72
        E 31 b5 09 72
        E 31 b5 09 72
        E 31 b5 09 72
        E 31 b5 09 72
        E 31 b5 09 72
        E 31 b5 09 72
        E 31 b5 09 72
        E 31 b5 09 72
        E 31 b5 09 72
        E 31 b5 09 72
        E 31 b5 09 72
        E 31 b5 09 72
        E 31 b5 09 72
        E 31 b5 09 72
        E 31 b5 09 72
        E 31 b5 09 72
        E 31 b5 09 72
        E 31 b5 09 72
        E 31 b5 09 72
        E 31 b5 09 72
        E 31 b5 09 72
        E 31 b5 09 72
        E 31 b5 09 72
        E 31 b5 09 72
        E 31 b5 09 72
        E 31 b5 09 72
        E 31 b5 09 72
        E 31 b5 09 72
        E 31 b5 09 72
        E 31 b5 09 72
        E 31 b5 09 72
        E 31 b5 09 72
        E 31 b5 09 72
        E 31 b5 09 00
        E 31 b5 09 00
        E 31 b5 09 00
        E 31 b5 09 00
        E 31 b5 09 00
        E 31 b5 09 00
        E 31 b5 09 00
        E 31 b5 09 00
        E 31 b5 09 00
        E 31 b5 09 00
        E 31 b5 09 00
        E 31 b5 09 00
        E 31 b5 09 00
        E 31 b5 09 00
        E 31 b5 09 00
        E 31 b5 09 00
        E 31 b5 09 00
        E 31 b5 09 00
        E 31 b5 09 00
        E 31 b5 09 00
        E 31 b5 09 00
        E 31 b5 09 00
        E 31 b5 09 00
        E 31 b5 09 00
        E 31 b5 09 00
        E 31 b5 09 00
        E 31 b5 09 00
        E 31 b5 09 00
        E 31 b5 09 00
        E 31 b5 09 00
        E 31 b5 09 00
        E 31 b5 09 00
        E 31 b5 09 00
        E 31 b5 09 00
        E 31 b5 09 00
        E 31 b5 09 00
        E 31 b5 09 00
        E 31 b5 09 00
        E 31 b5 09 00
        E 31 b5 09 00
        E 31 b5 09 00
        E 31 b5 09 00
        E 31 b5 09 00
        E 31 b5 09 00
        E 31 b5 09 00
        E 31 b5 09 00
        E 31 b5 09 00
        E 31 b5 09 00
        E 31 b5 09 00
        E 31 b5 09 00
        E 31 b5 09 00
        E 31 b5 09 00
        E 31 b5 09 00
        E 31 b5 09 00
        E 31 b5 09 00
        E 31 b5 09 00
        E 31 b5 09 00
        E 31 b5 09 00
        E 31 b5 09 00
        E 31 b5 09 00
        E 31 b5 09 00
        E 31 b5 09 00
        E 31 b5 09 00
        E 31 b5 09 00
        E 22 b5 09 3f
        E 22 b5 09 3f
        E 22 b5 09 3f
        E 22 b5 09 3f
        E 22 b5 09 3f
        E 22 b5 09 3f
        E 22 b5 09 3f
        E 22 b5 09 3f
        E 22 b5 09 3f
        E 22 b5 09 3f
        E 22 b5 09 3f
        E 22 b5 09 3f
        E 22 b5 09 3f
        E 22 b5 09 3f
        E 22 b5 09 3f
        E 22 b5 09 3f
        E 22 b5 09 3f
        E 22 b5 09 3f
        E 22 b5 09 3f
        E 22 b5 09 3f
        E 22 b5 09 3f
        E 22 b5 09 3f
        E 22 b5 09 3f
        E 22 b5 09 3f
        E 22 b5 09 3f
        E 22 b5 09 3f
        E 22 b5 09 3f
        E 22 b5 09 3f
        E 22 b5 09 3f
        E 22 b5 09 3f
        E 22 b5 09 3f
        E 22 b5 09 3f
        E 22 b5 09 3f
        E 22 b5 09 3f
        E 22 b5 09 3f
        E 22 b5 09 3f
        E 22 b5 09 3f
        E 22 b5 09 3f
        E 22 b5 09 3f
        E 22 b5 09 3f
        E 22 b5 09 3f
        E 22 b5 09 3f
        E 22 b5 09 3f
        E 22 b5 09 3f
        E 22 b5 09 3f
        E 22 b5 09 3f
        E 22 b5 09 3f
        E 22 b5 09 3f
        E 22 b5 09 3f
        E 22 b5 09 3f
        E 22 b5 09 3f
        E 22 b5 09 3f
        E 22 b5 09 3f
        E 22 b5 09 3f
        E 22 b5 09 3f
        E 22 b5 09 3f
        E 22 b5 09 3f
        E 22 b5 09 3f
        E 22 b5 09 3f
        E 22 b5 09 3f
        E 22 b5 09 3f
        E 22 b5 09 3f
        E 22 b5 09 3f
        E 22 b5 09 00
        E 22 b5 09 00
        E 22 b5 09 00
        E 22 b5 09 00
        E 22 b5 09 00
        E 22 b5 09 00
        E 22 b5 09 00
        E 22 b5 09 00
        E 22 b5 09 00
        E 22 b5 09 00
        E 22 b5 09 00
        E 22 b5 09 00
        E 22 b5 09 00
        E 22 b5 09 00
        E 22 b5 09 00
        E 22 b5 09 00
        E 22 b5 09 00
        E 22 b5 09 00
        E 22 b5 09 00
        E 22 b5 09 00
        E 22 b5 09 00
        E 22 b5 09 00
        E 22 b5 09 00
        E 22 b5 09 00
        E 22 b5 09 00
        E 22 b5 09 00
        E 22 b5 09 00
        E 22 b5 09 00
        E 22 b5 09 00
        E 22 b5 09 00
        E 22 b5 09 00
        E 22 b5 09 00
        E 22 b5 09 00
        E 22 b5 09 00
        E 22 b5 09 00
        E 22 b5 09 00
        E 22 b5 09 00
        E 22 b5 09 00
        E 22 b5 09 00
        E 22 b5 09 00
        E 22 b5 09 00
        E 22 b5 09 00
        E 22 b5 09 00
        E 22 b5 09 00
        E 22 b5 09 00
        E 22 b5 09 00
        E 22 b5 09 00
        E 22 b5 09 00
        E 22 b5 09 00
        E 22 b5 09 00
        E 22 b5 09 00
        E 22 b5 09 00
        E 22 b5 09 00
        E 22 b5 09 00
        E 22 b5 09 00
        E 22 b5 09 00
        E 22 b5 09 00
        E 22 b5 09 00
        E 22 b5 09 00
        E 22 b5 09 00
        E 22 b5 09 00
        E 22 b5 09 00
        E 22 b5 09 00
        E 22 b5 09 00
        E 22 b5 09 3f
        E 22 b5 09 3f
        E 22 b5 09 3f
        E 22 b5 09 3f
        E 22 b5 09 3f
        E 22 b5 09 3f
        E 22 b5 09 3f
        E 22 b5 09 3f
        E 22 b5 09 3f
        E 22 b5 09 3f
        E 22 b5 09 3f
        E 22 b5 09 3f
        E 22 b5 09 3f
        E 22 b5 09 3f
        E 22 b5 09 3f
        E 22 b5 09 3f
        E 22 b5 09 3f
        E 22 b5 09 3f
        E 22 b5 09 3f
        E 22 b5 09 3f
        E 22 b5 09 3f
        E 22 b5 09 3f
        E 22 b5 09 3f
        E 22 b5 09 3f
        E 22 b5 09 3f
        E 22 b5 09 3f
        E 22 b5 09 3f
        E 22 b5 09 3f
        E 22 b5 09 3f
        E 22 b5 09 3f
        E 22 b5 09 3f
        E 22 b5 09 3f
        E 22 b5 09 3f
        E 22 b5 09 3f
        E 22 b5 09 3f
        E 22 b5 09 3f
        E 22 b5 09 3f
        E 22 b5 09 3f
        E 22 b5 09 3f
        E 22 b5 09 3f
        E 22 b5 09 3f
        E 22 b5 09 3f
        E 22 b5 09 3f
        E 22 b5 09 3f
        E 22 b5 09 3f
        E 22 b5 09 3f
        E 22 b5 09 3f
        E 22 b5 09 3f
        E 22 b5 09 3f
        E 22 b5 09 3f
        E 22 b5 09 3f
        E 22 b5 09 3f
        E 22 b5 09 3f
        E 22 b5 09 3f
        E 22 b5 09 3f
        E 22 b5 09 3f
        E 22 b5 09 3f
        E 22 b5 09 3f
        E 22 b5 09 3f
        E 22 b5 09 3f
        E 22 b5 09 3f
        E 22 b5 09 3f
        E 22 b5 09 3f
        E 22 b5 09 00
        E 22 b5 09 00
        E 22 b5 09 00
        E 22 b5 09 00
        E 22 b5 09 00
        E 22 b5 09 00
        E 22 b5 09 00
        E 22 b5 09 00
        E 22 b5 09 00
        E 22 b5 09 00
        E 22 b5 09 00
        E 22 b5 09 00
        E 22 b5 09 00
        E 22 b5 09 00
        E 22 b5 09 00
        E 22 b5 09 00
        E 22 b5 09 00
        E 22 b5 09 00
        E 22 b5 09 00
        E 22 b5 09 00
        E 22 b5 09 00
        E 22 b5 09 00
        E 22 b5 09 00
        E 22 b5 09 00
        E 22 b5 09 00
        E 22 b5 09 00
        E 22 b5 09 00
        E 22 b5 09 00
        E 22 b5 09 00
        E 22 b5 09 00
        E 22 b5 09 00
        E 22 b5 09 00
        E 22 b5 09 00
        E 22 b5 09 00
        E 22 b5 09 00
        E 22 b5 09 00
        E 22 b5 09 00
        E 22 b5 09 00
        E 22 b5 09 00
        E 22 b5 09 00
        E 22 b5 09 00
        E 22 b5 09 00
        E 22 b5 09 00
        E 22 b5 09 00
        E 22 b5 09 00
        E 22 b5 09 00
        E 22 b5 09 00
        E 22 b5 09 00
        E 22 b5 09 00
        E 22 b5 09 00
        E 22 b5 09 00
        E 22 b5 09 00
        E 22 b5 09 00
        E 22 b5 09 00
        E 22 b5 09 00
        E 22 b5 09 00
        E 22 b5 09 00
        E 22 b5 09 00
        E 22 b5 09 00
        E 22 b5 09 00
        E 22 b5 09 00
        E 22 b5 09 00
        E 22 b5 09 00
        E 22 b5 09 00
        E 45 b5 09 58
        E 45 b5 09 58
        E 45 b5 09 58
        E 45 b5 09 58
        E 45 b5 09 58
        E 45 b5 09 58
        E 45 b5 09 58
        E 45 b5 09 58
        E 45 b5 09 58
        E 45 b5 09 58
        E 45 b5 09 58
        E 45 b5 09 58
        E 45 b5 09 58
        E 45 b5 09 58
        E 45 b5 09 58
        E 45 b5 09 58
        E 45 b5 09 58
        E 45 b5 09 58
        E 45 b5 09 58
        E 45 b5 09 58
        E 45 b5 09 58
        E 45 b5 09 58
        E 45 b5 09 58
        E 45 b5 09 58
        E 45 b5 09 58
        E 45 b5 09 58
        E 45 b5 09 58
        E 45 b5 09 58
        E 45 b5 09 58
        E 45 b5 09 58
        E 45 b5 09 58
        E 45 b5 09 58
        E 45 b5 09 58
        E 45 b5 09 58
        E 45 b5 09 58
        E 45 b5 09 58
        E 45 b5 09 58
        E 45 b5 09 58
        E 45 b5 09 58
        E 45 b5 09 58
        E 45 b5 09 58
        E 45 b5 09 58
        E 45 b5 09 58
        E 45 b5 09 58
        E 45 b5 09 58
        E 45 b5 09 58
        E 45 b5 09 58
        E 45 b5 09 58
        E 45 b5 09 58
        E 45 b5 09 58
        E 45 b5 09 58
        E 45 b5 09 58
        E 45 b5 09 58
        E 45 b5 09 58
        E 45 b5 09 58
        E 45 b5 09 58
        E 45 b5 09 58
        E 45 b5 09 58
        E 45 b5 09 58
        E 45 b5 09 58
        E 45 b5 09 58
        E 45 b5 09 58
        E 45 b5 09 58
        E 45 b5 09 00
        E 45 b5 09 00
        E 45 b5 09 00
        E 45 b5 09 00
        E 45 b5 09 00
        E 45 b5 09 00
        E 45 b5 09 00
        E 45 b5 09 00
        E 45 b5 09 00
        E 45 b5 09 00
        E 45 b5 09 00
        E 45 b5 09 00
        E 45 b5 09 00
        E 45 b5 09 00
        E 45 b5 09 00
        E 45 b5 09 00
        E 45 b5 09 00
        E 45 b5 09 00
        E 45 b5 09 00
        E 45 b5 09 00
        E 45 b5 09 00
        E 45 b5 09 00
        E 45 b5 09 00
        E 45 b5 09 00
        E 45 b5 09 00
        E 45 b5 09 00
        E 45 b5 09 00
        E 45 b5 09 00
        E 45 b5 09 00
        E 45 b5 09 00
        E 45 b5 09 00
        E 45 b5 09 00
        E 45 b5 09 00
        E 45 b5 09 00
        E 45 b5 09 00
        E 45 b5 09 00
        E 45 b5 09 00
        E 45 b5 09 00
        E 45 b5 09 00
        E 45 b5 09 00
        E 45 b5 09 00
        E 45 b5 09 00
        E 45 b5 09 00
        E 45 b5 09 00
        E 45 b5 09 00
        E 45 b5 09 00
        E 45 b5 09 00
        E 45 b5 09 00
        E 45 b5 09 00
        E 45 b5 09 00
        E 45 b5 09 00
        E 45 b5 09 00
        E 45 b5 09 00
        E 45 b5 09 00
        E 45 b5 09 00
        E 45 b5 09 00
        E 45 b5 09 00
        E 45 b5 09 00
        E 45 b5 09 00
        E 45 b5 09 00
        E 45 b5 09 00
        E 45 b5 09 00
        E 45 b5 09 00
        E 45 b5 09 00
        E 40 b5 09 65
        E 40 b5 09 65
        E 40 b5 09 65
        E 40 b5 09 65
        E 40 b5 09 65
        E 40 b5 09 65
        E 40 b5 09 65
        E 40 b5 09 65
        E 40 b5 09 65
        E 40 b5 09 65
        E 40 b5 09 65
        E 40 b5 09 65
        E 40 b5 09 65
        E 40 b5 09 65
        E 40 b5 09 65
        E 40 b5 09 65
        E 40 b5 09 65
        E 40 b5 09 65
        E 40 b5 09 65
        E 40 b5 09 65
        E 40 b5 09 65
        E 40 b5 09 65
        E 40 b5 09 65
        E 40 b5 09 65
        E 40 b5 09 65
        E 40 b5 09 65
        E 40 b5 09 65
        E 40 b5 09 65
        E 40 b5 09 65
        E 40 b5 09 65
        E 40 b5 09 65
        E 40 b5 09 65
        E 40 b5 09 65
        E 40 b5 09 65
        E 40 b5 09 65
        E 40 b5 09 65
        E 40 b5 09 65
        E 40 b5 09 65
        E 40 b5 09 65
        E 40 b5 09 65
        E 40 b5 09 65
        E 40 b5 09 65
        E 40 b5 09 65
        E 40 b5 09 65
        E 40 b5 09 65
        E 40 b5 09 65
        E 40 b5 09 65
        E 40 b5 09 65
        E 40 b5 09 65
        E 40 b5 09 65
        E 40 b5 09 65
        E 40 b5 09 65
        E 40 b5 09 65
        E 40 b5 09 65
        E 40 b5 09 65
        E 40 b5 09 65
        E 40 b5 09 65
        E 40 b5 09 65
        E 40 b5 09 65
        E 40 b5 09 65
        E 40 b5 09 65
        E 40 b5 09 65
        E 40 b5 09 65
        E 40 b5 09 00
        E 40 b5 09 00
        E 40 b5 09 00
        E 40 b5 09 00
        E 40 b5 09 00
        E 40 b5 09 00
        E 40 b5 09 00
        E 40 b5 09 00
        E 40 b5 09 00
        E 40 b5 09 00
        E 40 b5 09 00
        E 40 b5 09 00
        E 40 b5 09 00
        E 40 b5 09 00
        E 40 b5 09 00
        E 40 b5 09 00
        E 40 b5 09 00
        E 40 b5 09 00
        E 40 b5 09 00
        E 40 b5 09 00
        E 40 b5 09 00
        E 40 b5 09 00
        E 40 b5 09 00
        E 40 b5 09 00
        E 40 b5 09 00
        E 40 b5 09 00
        E 40 b5 09 00
        E 40 b5 09 00
        E 40 b5 09 00
        E 40 b5 09 00
        E 40 b5 09 00
        E 40 b5 09 00
        E 40 b5 09 00
        E 40 b5 09 00
        E 40 b5 09 00
        E 40 b5 09 00
        E 40 b5 09 00
        E 40 b5 09 00
        E 40 b5 09 00
        E 40 b5 09 00
        E 40 b5 09 00
        E 40 b5 09 00
        E 40 b5 09 00
        E 40 b5 09 00
        E 40 b5 09 00
        E 40 b5 09 00
        E 40 b5 09 00
        E 40 b5 09 00
        E 40 b5 09 00
        E 40 b5 09 00
        E 40 b5 09 00
        E 40 b5 09 00
        E 40 b5 09 00
        E 40 b5 09 00
        E 40 b5 09 00
        E 40 b5 09 00
        E 40 b5 09 00
        E 40 b5 09 00
        E 40 b5 09 00
        E 40 b5 09 00
        E 40 b5 09 00
        E 40 b5 09 00
        E 40 b5 09 00
        E 40 b5 09 00
        E 45 b5 09 0c
        E 45 b5 09 0c
        E 45 b5 09 0c
        E 45 b5 09 0c
        E 45 b5 09 0c
        E 45 b5 09 0c
        E 45 b5 09 0c
        E 45 b5 09 0c
        E 45 b5 09 0c
        E 45 b5 09 0c
        E 45 b5 09 0c
        E 45 b5 09 0c
        E 45 b5 09 0c
        E 45 b5 09 0c
        E 45 b5 09 0c
        E 45 b5 09 0c
        E 45 b5 09 0c
        E 45 b5 09 0c
        E 45 b5 09 0c
        E 45 b5 09 0c
        E 45 b5 09 0c
        E 45 b5 09 0c
        E 45 b5 09 0c
        E 45 b5 09 0c
        E 45 b5 09 0c
        E 45 b5 09 0c
        E 45 b5 09 0c
        E 45 b5 09 0c
        E 45 b5 09 0c
        E 45 b5 09 0c
        E 45 b5 09 0c
        E 45 b5 09 0c
        E 45 b5 09 0c
        E 45 b5 09 0c
        E 45 b5 09 0c
        E 45 b5 09 0c
        E 45 b5 09 0c
        E 45 b5 09 0c
        E 45 b5 09 0c
        E 45 b5 09 0c
        E 45 b5 09 0c
        E 45 b5 09 0c
        E 45 b5 09 0c
        E 45 b5 09 0c
        E 45 b5 09 0c
        E 45 b5 09 0c
        E 45 b5 09 0c
        E 45 b5 09 0c
        E 45 b5 09 0c
        E 45 b5 09 0c
        E 45 b5 09 0c
        E 45 b5 09 0c
        E 45 b5 09 0c
        E 45 b5 09 0c
        E 45 b5 09 0c
        E 45 b5 09 0c
        E 45 b5 09 0c
        E 45 b5 09 0c
        E 45 b5 09 0c
        E 45 b5 09 0c
        E 45 b5 09 0c
        E 45 b5 09 0c
        E 45 b5 09 0c
        E 45 b5 09 00
        E 45 b5 09 00
        E 45 b5 09 00
        E 45 b5 09 00
        E 45 b5 09 00
        E 45 b5 09 00
        E 45 b5 09 00
        E 45 b5 09 00
        E 45 b5 09 00
        E 45 b5 09 00
        E 45 b5 09 00
        E 45 b5 09 00
        E 45 b5 09 00
        E 45 b5 09 00
        E 45 b5 09 00
        E 45 b5 09 00
        E 45 b5 09 00
        E 45 b5 09 00
        E 45 b5 09 00
        E 45 b5 09 00
        E 45 b5 09 00
        E 45 b5 09 00
        E 45 b5 09 00
        E 45 b5 09 00
        E 45 b5 09 00
        E 45 b5 09 00
        E 45 b5 09 00
        E 45 b5 09 00
        E 45 b5 09 00
        E 45 b5 09 00
        E 45 b5 09 00
        E 45 b5 09 00
        E 45 b5 09 00
        E 45 b5 09 00
        E 45 b5 09 00
        E 45 b5 09 00
        E 45 b5 09 00
        E 45 b5 09 00
        E 45 b5 09 00
        E 45 b5 09 00
        E 45 b5 09 00
        E 45 b5 09 00
        E 45 b5 09 00
        E 45 b5 09 00
        E 45 b5 09 00
        E 45 b5 09 00
        E 45 b5 09 00
        E 45 b5 09 00
        E 45 b5 09 00
        E 45 b5 09 00
        E 45 b5 09 00
        E 45 b5 09 00
        E 45 b5 09 00
        E 45 b5 09 00
        E 45 b5 09 00
        E 45 b5 09 00
        E 45 b5 09 00
        E 45 b5 09 00
        E 45 b5 09 00
        E 45 b5 09 00
        E 45 b5 09 00
        E 45 b5 09 00
        E 45 b5 09 00
        E 45 b5 09 00
        E 40 b5 09 32
        E 40 b5 09 32
        E 40 b5 09 32
        E 40 b5 09 32
        E 40 b5 09 32
        E 40 b5 09 32
        E 40 b5 09 32
        E 40 b5 09 32
        E 40 b5 09 32
        E 40 b5 09 32
        E 40 b5 09 32
        E 40 b5 09 32
        E 40 b5 09 32
        E 40 b5 09 32
        E 40 b5 09 32
        E 40 b5 09 32
        E 40 b5 09 32
        E 40 b5 09 32
        E 40 b5 09 32
        E 40 b5 09 32
        E 40 b5 09 32
        E 40 b5 09 32
        E 40 b5 09 32
        E 40 b5 09 32
        E 40 b5 09 32
        E 40 b5 09 32
        E 40 b5 09 32
        E 40 b5 09 32
        E 40 b5 09 32
        E 40 b5 09 32
        E 40 b5 09 32
        E 40 b5 09 32
        E 40 b5 09 32
        E 40 b5 09 32
        E 40 b5 09 32
        E 40 b5 09 32
        E 40 b5 09 32
        E 40 b5 09 32
        E 40 b5 09 32
        E 40 b5 09 32
        E 40 b5 09 32
        E 40 b5 09 32
        E 40 b5 09 32
        E 40 b5 09 32
        E 40 b5 09 32
        E 40 b5 09 32
        E 40 b5 09 32
        E 40 b5 09 32
        E 40 b5 09 32
        E 40 b5 09 32
        E 40 b5 09 32
        E 40 b5 09 32
        E 40 b5 09 32
        E 40 b5 09 32
        E 40 b5 09 32
        E 40 b5 09 32
        E 40 b5 09 32
        E 40 b5 09 32
        E 40 b5 09 32
        E 40 b5 09 32
        E 40 b5 09 32
        E 40 b5 09 32
        E 40 b5 09 32
        E 40 b5 09 00
        E 40 b5 09 00
        E 40 b5 09 00
        E 40 b5 09 00
        E 40 b5 09 00
        E 40 b5 09 00
        E 40 b5 09 00
        E 40 b5 09 00
        E 40 b5 09 00
        E 40 b5 09 00
        E 40 b5 09 00
        E 40 b5 09 00
        E 40 b5 09 00
        E 40 b5 09 00
        E 40 b5 09 00
        E 40 b5 09 00
        E 40 b5 09 00
        E 40 b5 09 00
        E 40 b5 09 00
        E 40 b5 09 00
        E 40 b5 09 00
        E 40 b5 09 00
        E 40 b5 09 00
        E 40 b5 09 00
        E 40 b5 09 00
        E 40 b5 09 00
        E 40 b5 09 00
        E 40 b5 09 00
        E 40 b5 09 00
        E 40 b5 09 00
        E 40 b5 09 00
        E 40 b5 09 00
        E 40 b5 09 00
        E 40 b5 09 00
        E 40 b5 09 00
        E 40 b5 09 00
        E 40 b5 09 00
        E 40 b5 09 00
        E 40 b5 09 00
        E 40 b5 09 00
        E 40 b5 09 00
        E 40 b5 09 00
        E 40 b5 09 00
        E 40 b5 09 00
        E 40 b5 09 00
        E 40 b5 09 00
        E 40 b5 09 00
        E 40 b5 09 00
        E 40 b5 09 00
        E 40 b5 09 00
        E 40 b5 09 00
        E 40 b5 09 00
        E 40 b5 09 00
        E 40 b5 09 00
        E 40 b5 09 00
        E 40 b5 09 00
        E 40 b5 09 00
        E 40 b5 09 00
        E 40 b5 09 00
        E 40 b5 09 00
        E 40 b5 09 00
        E 40 b5 09 00
        E 40 b5 09 00
        E 40 b5 09 00
        E 31 b5 09 3f
        E 31 b5 09 3f
        E 31 b5 09 3f
        E 31 b5 09 3f
        E 31 b5 09 3f
        E 31 b5 09 3f
        E 31 b5 09 3f
        E 31 b5 09 3f
        E 31 b5 09 3f
        E 31 b5 09 3f
        E 31 b5 09 3f
        E 31 b5 09 3f
        E 31 b5 09 3f
        E 31 b5 09 3f
        E 31 b5 09 3f
        E 31 b5 09 3f
        E 31 b5 09 3f
        E 31 b5 09 3f
        E 31 b5 09 3f
        E 31 b5 09 3f
        E 31 b5 09 3f
        E 31 b5 09 3f
        E 31 b5 09 3f
        E 31 b5 09 3f
        E 31 b5 09 3f
        E 31 b5 09 3f
        E 31 b5 09 3f
        E 31 b5 09 3f
        E 31 b5 09 3f
        E 31 b5 09 3f
        E 31 b5 09 3f
        E 31 b5 09 3f
        E 31 b5 09 3f
        E 31 b5 09 3f
        E 31 b5 09 3f
        E 31 b5 09 3f
        E 31 b5 09 3f
        E 31 b5 09 3f
        E 31 b5 09 3f
        E 31 b5 09 3f
        E 31 b5 09 3f
        E 31 b5 09 3f
        E 31 b5 09 3f
        E 31 b5 09 3f
        E 31 b5 09 3f
        E 31 b5 09 3f
        E 31 b5 09 3f
        E 31 b5 09 3f
        E 31 b5 09 3f
        E 31 b5 09 3f
        E 31 b5 09 3f
        E 31 b5 09 3f
        E 31 b5 09 3f
        E 31 b5 09 3f
        E 31 b5 09 3f
        E 31 b5 09 3f
        E 31 b5 09 3f
        E 31 b5 09 3f
        E 31 b5 09 3f
        E 31 b5 09 3f
        E 31 b5 09 3f
        E 31 b5 09 3f
        E 31 b5 09 3f
        E 31 b5 09 00
        E 31 b5 09 00
        E 31 b5 09 00
        E 31 b5 09 00
        E 31 b5 09 00
        E 31 b5 09 00
        E 31 b5 09 00
        E 31 b5 09 00
        E 31 b5 09 00
        E 31 b5 09 00
        E 31 b5 09 00
        E 31 b5 09 00
        E 31 b5 09 00
        E 31 b5 09 00
        E 31 b5 09 00
        E 31 b5 09 00
        E 31 b5 09 00
        E 31 b5 09 00
        E 31 b5 09 00
        E 31 b5 09 00
        E 31 b5 09 00
        E 31 b5 09 00
        E 31 b5 09 00
        E 31 b5 09 00
        E 31 b5 09 00
        E 31 b5 09 00
        E 31 b5 09 00
        E 31 b5 09 00
        E 31 b5 09 00
        E 31 b5 09 00
        E 31 b5 09 00
        E 31 b5 09 00
        E 31 b5 09 00
        E 31 b5 09 00
        E 31 b5 09 00
        E 31 b5 09 00
        E 31 b5 09 00
        E 31 b5 09 00
        E 31 b5 09 00
        E 31 b5 09 00
        E 31 b5 09 00
        E 31 b5 09 00
        E 31 b5 09 00
        E 31 b5 09 00
        E 31 b5 09 00
        E 31 b5 09 00
        E 31 b5 09 00
        E 31 b5 09 00
        E 31 b5 09 00
        E 31 b5 09 00
        E 31 b5 09 00
        E 31 b5 09 00
        E 31 b5 09 00
        E 31 b5 09 00
        E 31 b5 09 00
        E 31 b5 09 00
        E 31 b5 09 00
        E 31 b5 09 00
        E 31 b5 09 00
        E 31 b5 09 00
        E 31 b5 09 00
        E 31 b5 09 00
        E 31 b5 09 00
        E 31 b5 09 00
        E 36 b5 09 7f
        E 36 b5 09 7f
        E 36 b5 09 7f
        E 36 b5 09 7f
        E 36 b5 09 7f
        E 36 b5 09 7f
        E 36 b5 09 7f
        E 36 b5 09 7f
        E 36 b5 09 7f
        E 36 b5 09 7f
        E 36 b5 09 7f
        E 36 b5 09 7f
        E 36 b5 09 7f
        E 36 b5 09 7f
        E 36 b5 09 7f
        E 36 b5 09 7f
        E 36 b5 09 7f
        E 36 b5 09 7f
        E 36 b5 09 7f
        E 36 b5 09 7f
        E 36 b5 09 7f
        E 36 b5 09 7f
        E 36 b5 09 7f
        E 36 b5 09 7f
        E 36 b5 09 7f
        E 36 b5 09 7f
        E 36 b5 09 7f
        E 36 b5 09 7f
        E 36 b5 09 7f
        E 36 b5 09 7f
        E 36 b5 09 7f
        E 36 b5 09 7f
        E 36 b5 09 7f
        E 36 b5 09 7f
        E 36 b5 09 7f
        E 36 b5 09 7f
        E 36 b5 09 7f
        E 36 b5 09 7f
        E 36 b5 09 7f
        E 36 b5 09 7f
        E 36 b5 09 7f
        E 36 b5 09 7f
        E 36 b5 09 7f
        E 36 b5 09 7f
        E 36 b5 09 7f
        E 36 b5 09 7f
        E 36 b5 09 7f
        E 36 b5 09 7f
        E 36 b5 09 7f
        E 36 b5 09 7f
        E 36 b5 09 7f
        E 36 b5 09 7f
        E 36 b5 09 7f
        E 36 b5 09 7f
        E 36 b5 09 7f
        E 36 b5 09 7f
        E 36 b5 09 7f
        E 36 b5 09 7f
        E 36 b5 09 7f
        E 36 b5 09 7f
        E 36 b5 09 7f
        E 36 b5 09 7f
        E 36 b5 09 7f
        E 36 b5 09 00
        E 36 b5 09 00
        E 36 b5 09 00
        E 36 b5 09 00
        E 36 b5 09 00
        E 36 b5 09 00
        E 36 b5 09 00
        E 36 b5 09 00
        E 36 b5 09 00
        E 36 b5 09 00
        E 36 b5 09 00
        E 36 b5 09 00
        E 36 b5 09 00
        E 36 b5 09 00
        E 36 b5 09 00
        E 36 b5 09 00
        E 36 b5 09 00
        E 36 b5 09 00
        E 36 b5 09 00
        E 36 b5 09 00
        E 36 b5 09 00
        E 36 b5 09 00
        E 36 b5 09 00
        E 36 b5 09 00
        E 36 b5 09 00
        E 36 b5 09 00
        E 36 b5 09 00
        E 36 b5 09 00
        E 36 b5 09 00
        E 36 b5 09 00
        E 36 b5 09 00
        E 36 b5 09 00
        E 36 b5 09 00
        E 36 b5 09 00
        E 36 b5 09 00
        E 36 b5 09 00
        E 36 b5 09 00
        E 36 b5 09 00
        E 36 b5 09 00
        E 36 b5 09 00
        E 36 b5 09 00
        E 36 b5 09 00
        E 36 b5 09 00
        E 36 b5 09 00
        E 36 b5 09 00
        E 36 b5 09 00
        E 36 b5 09 00
        E 36 b5 09 00
        E 36 b5 09 00
        E 36 b5 09 00
        E 36 b5 09 00
        E 36 b5 09 00
        E 36 b5 09 00
        E 36 b5 09 00
        E 36 b5 09 00
        E 36 b5 09 00
        E 36 b5 09 00
        E 36 b5 09 00
        E 36 b5 09 00
        E 36 b5 09 00
        E 36 b5 09 00
        E 36 b5 09 00
        E 36 b5 09 00
        E 36 b5 09 00
        E 4 b5 09 72
        E 4 b5 09 72
        E 4 b5 09 72
        E 4 b5 09 72
        E 4 b5 09 72
        E 4 b5 09 72
        E 4 b5 09 72
        E 4 b5 09 72
        E 4 b5 09 72
        E 4 b5 09 72
        E 4 b5 09 72
        E 4 b5 09 72
        E 4 b5 09 72
        E 4 b5 09 72
        E 4 b5 09 72
        E 4 b5 09 72
        E 4 b5 09 72
        E 4 b5 09 72
        E 4 b5 09 72
        E 4 b5 09 72
        E 4 b5 09 72
        E 4 b5 09 72
        E 4 b5 09 72
        E 4 b5 09 72
        E 4 b5 09 72
        E 4 b5 09 72
        E 4 b5 09 72
        E 4 b5 09 72
        E 4 b5 09 72
        E 4 b5 09 72
        E 4 b5 09 72
        E 4 b5 09 72
        E 4 b5 09 72
        E 4 b5 09 72
        E 4 b5 09 72
        E 4 b5 09 72
        E 4 b5 09 72
        E 4 b5 09 72
        E 4 b5 09 72
        E 4 b5 09 72
        E 4 b5 09 72
        E 4 b5 09 72
        E 4 b5 09 72
        E 4 b5 09 72
        E 4 b5 09 72
        E 4 b5 09 72
        E 4 b5 09 72
        E 4 b5 09 72
        E 4 b5 09 72
        E 4 b5 09 72
        E 4 b5 09 72
        E 4 b5 09 72
        E 4 b5 09 72
        E 4 b5 09 72
        E 4 b5 09 72
        E 4 b5 09 72
        E 4 b5 09 72
        E 4 b5 09 72
        E 4 b5 09 72
        E 4 b5 09 72
        E 4 b5 09 72
        E 4 b5 09 72
        E 4 b5 09 72
        E 4 b5 09 00
        E 4 b5 09 00
        E 4 b5 09 00
        E 4 b5 09 00
        E 4 b5 09 00
        E 4 b5 09 00
        E 4 b5 09 00
        E 4 b5 09 00
        E 4 b5 09 00
        E 4 b5 09 00
        E 4 b5 09 00
        E 4 b5 09 00
        E 4 b5 09 00
        E 4 b5 09 00
        E 4 b5 09 00
        E 4 b5 09 00
        E 4 b5 09 00
        E 4 b5 09 00
        E 4 b5 09 00
        E 4 b5 09 00
        E 4 b5 09 00
        E 4 b5 09 00
        E 4 b5 09 00
        E 4 b5 09 00
        E 4 b5 09 00
        E 4 b5 09 00
        E 4 b5 09 00
        E 4 b5 09 00
        E 4 b5 09 00
        E 4 b5 09 00
        E 4 b5 09 00
        E 4 b5 09 00
        E 4 b5 09 00
        E 4 b5 09 00
        E 4 b5 09 00
        E 4 b5 09 00
        E 4 b5 09 00
        E 4 b5 09 00
        E 4 b5 09 00
        E 4 b5 09 00
        E 4 b5 09 00
        E 4 b5 09 00
        E 4 b5 09 00
        E 4 b5 09 00
        E 4 b5 09 00
        E 4 b5 09 00
        E 4 b5 09 00
        E 4 b5 09 00
        E 4 b5 09 00
        E 4 b5 09 00
        E 4 b5 09 00
        E 4 b5 09 00
        E 4 b5 09 00
        E 4 b5 09 00
        E 4 b5 09 00
        E 4 b5 09 00
        E 4 b5 09 00
        E 4 b5 09 00
        E 4 b5 09 00
        E 4 b5 09 00
        E 4 b5 09 00
        E 4 b5 09 00
        E 4 b5 09 00
        E 4 b5 09 00
        E 18 b5 09 7f
        E 18 b5 09 7f
        E 18 b5 09 7f
        E 18 b5 09 7f
        E 18 b5 09 7f
        E 18 b5 09 7f
        E 18 b5 09 7f
        E 18 b5 09 7f
        E 18 b5 09 7f
        E 18 b5 09 7f
        E 18 b5 09 7f
        E 18 b5 09 7f
        E 18 b5 09 7f
        E 18 b5 09 7f
        E 18 b5 09 7f
        E 18 b5 09 7f
        E 18 b5 09 7f
        E 18 b5 09 7f
        E 18 b5 09 7f
        E 18 b5 09 7f
        E 18 b5 09 7f
        E 18 b5 09 7f
        E 18 b5 09 7f
        E 18 b5 09 7f
        E 18 b5 09 7f
        E 18 b5 09 7f
        E 18 b5 09 7f
        E 18 b5 09 7f
        E 18 b5 09 7f
        E 18 b5 09 7f
        E 18 b5 09 7f
        E 18 b5 09 7f
        E 18 b5 09 7f
        E 18 b5 09 7f
        E 18 b5 09 7f
        E 18 b5 09 7f
        E 18 b5 09 7f
        E 18 b5 09 7f
        E 18 b5 09 7f
        E 18 b5 09 7f
        E 18 b5 09 7f
        E 18 b5 09 7f
        E 18 b5 09 7f
        E 18 b5 09 7f
        E 18 b5 09 7f
        E 18 b5 09 7f
        E 18 b5 09 7f
        E 18 b5 09 7f
        E 18 b5 09 7f
        E 18 b5 09 7f
        E 18 b5 09 7f
        E 18 b5 09 7f
        E 18 b5 09 7f
        E 18 b5 09 7f
        E 18 b5 09 7f
        E 18 b5 09 7f
        E 18 b5 09 7f
        E 18 b5 09 7f
        E 18 b5 09 7f
        E 18 b5 09 7f
        E 18 b5 09 7f
        E 18 b5 09 7f
        E 18 b5 09 7f
        E 18 b5 09 00
        E 18 b5 09 00
        E 18 b5 09 00
        E 18 b5 09 00
        E 18 b5 09 00
        E 18 b5 09 00
        E 18 b5 09 00
        E 18 b5 09 00
        E 18 b5 09 00
        E 18 b5 09 00
        E 18 b5 09 00
        E 18 b5 09 00
        E 18 b5 09 00
        E 18 b5 09 00
        E 18 b5 09 00
        E 18 b5 09 00
        E 18 b5 09 00
        E 18 b5 09 00
        E 18 b5 09 00
        E 18 b5 09 00
        E 18 b5 09 00
        E 18 b5 09 00
        E 18 b5 09 00
        E 18 b5 09 00
        E 18 b5 09 00
        E 18 b5 09 00
        E 18 b5 09 00
        E 18 b5 09 00
        E 18 b5 09 00
        E 18 b5 09 00
        E 18 b5 09 00
        E 18 b5 09 00
        E 18 b5 09 00
        E 18 b5 09 00
        E 18 b5 09 00
        E 18 b5 09 00
        E 18 b5 09 00
        E 18 b5 09 00
        E 18 b5 09 00
        E 18 b5 09 00
        E 18 b5 09 00
        E 18 b5 09 00
        E 18 b5 09 00
        E 18 b5 09 00
        E 18 b5 09 00
        E 18 b5 09 00
        E 18 b5 09 00
        E 18 b5 09 00
        E 18 b5 09 00
        E 18 b5 09 00
        E 18 b5 09 00
        E 18 b5 09 00
        E 18 b5 09 00
        E 18 b5 09 00
        E 18 b5 09 00
        E 18 b5 09 00
        E 18 b5 09 00
        E 18 b5 09 00
        E 18 b5 09 00
        E 18 b5 09 00
        E 18 b5 09 00
        E 18 b5 09 00
        E 18 b5 09 00
        E 18 b5 09 00
        E 31 b5 09 72
        E 31 b5 09 72
        E 31 b5 09 72
        E 31 b5 09 72
        E 31 b5 09 72
        E 31 b5 09 72
        E 31 b5 09 72
        E 31 b5 09 72
        E 31 b5 09 72
        E 31 b5 09 72
        E 31 b5 09 72
        E 31 b5 09 72
        E 31 b5 09 72
        E 31 b5 09 72
        E 31 b5 09 72
        E 31 b5 09 72
        E 31 b5 09 72
        E 31 b5 09 72
        E 31 b5 09 72
        E 31 b5 09 72
        E 31 b5 09 72
        E 31 b5 09 72
        E 31 b5 09 72
        E 31 b5 09 72
        E 31 b5 09 72
        E 31 b5 09 72
        E 31 b5 09 72
        E 31 b5 09 72
        E 31 b5 09 72
        E 31 b5 09 72
        E 31 b5 09 72
        E 31 b5 09 72
        E 31 b5 09 72
        E 31 b5 09 72
        E 31 b5 09 72
        E 31 b5 09 72
        E 31 b5 09 72
        E 31 b5 09 72
        E 31 b5 09 72
        E 31 b5 09 72
        E 31 b5 09 72
        E 31 b5 09 72
        E 31 b5 09 72
        E 31 b5 09 72
        E 31 b5 09 72
        E 31 b5 09 72
        E 31 b5 09 72
        E 31 b5 09 72
        E 31 b5 09 72
        E 31 b5 09 72
        E 31 b5 09 72
        E 31 b5 09 72
        E 31 b5 09 72
        E 31 b5 09 72
        E 31 b5 09 72
        E 31 b5 09 72
        E 31 b5 09 72
        E 31 b5 09 72
        E 31 b5 09 72
        E 31 b5 09 72
        E 31 b5 09 72
        E 31 b5 09 72
        E 31 b5 09 72
        E 31 b5 09 00
        E 31 b5 09 00
        E 31 b5 09 00
        E 31 b5 09 00
        E 31 b5 09 00
        E 31 b5 09 00
        E 31 b5 09 00
        E 31 b5 09 00
        E 31 b5 09 00
        E 31 b5 09 00
        E 31 b5 09 00
        E 31 b5 09 00
        E 31 b5 09 00
        E 31 b5 09 00
        E 31 b5 09 00
        E 31 b5 09 00
        E 31 b5 09 00
        E 31 b5 09 00
        E 31 b5 09 00
        E 31 b5 09 00
        E 31 b5 09 00
        E 31 b5 09 00
        E 31 b5 09 00
        E 31 b5 09 00
        E 31 b5 09 00
        E 31 b5 09 00
        E 31 b5 09 00
        E 31 b5 09 00
        E 31 b5 09 00
        E 31 b5 09 00
        E 31 b5 09 00
        E 31 b5 09 00
        E 31 b5 09 00
        E 31 b5 09 00
        E 31 b5 09 00
        E 31 b5 09 00
        E 31 b5 09 00
        E 31 b5 09 00
        E 31 b5 09 00
        E 31 b5 09 00
        E 31 b5 09 00
        E 31 b5 09 00
        E 31 b5 09 00
        E 31 b5 09 00
        E 31 b5 09 00
        E 31 b5 09 00
        E 31 b5 09 00
        E 31 b5 09 00
        E 31 b5 09 00
        E 31 b5 09 00
        E 31 b5 09 00
        E 31 b5 09 00
        E 31 b5 09 00
        E 31 b5 09 00
        E 31 b5 09 00
        E 31 b5 09 00
        E 31 b5 09 00
        E 31 b5 09 00
        E 31 b5 09 00
        E 31 b5 09 00
        E 31 b5 09 00
        E 31 b5 09 00
        E 31 b5 09 00
        E 31 b5 09 00
        E 22 b5 09 3f
        E 22 b5 09 3f
        E 22 b5 09 3f
        E 22 b5 09 3f
        E 22 b5 09 3f
        E 22 b5 09 3f
        E 22 b5 09 3f
        E 22 b5 09 3f
        E 22 b5 09 3f
        E 22 b5 09 3f
        E 22 b5 09 3f
        E 22 b5 09 3f
        E 22 b5 09 3f
        E 22 b5 09 3f
        E 22 b5 09 3f
        E 22 b5 09 3f
        E 22 b5 09 3f
        E 22 b5 09 3f
        E 22 b5 09 3f
        E 22 b5 09 3f
        E 22 b5 09 3f
        E 22 b5 09 3f
        E 22 b5 09 3f
        E 22 b5 09 3f
        E 22 b5 09 3f
        E 22 b5 09 3f
        E 22 b5 09 3f
        E 22 b5 09 3f
        E 22 b5 09 3f
        E 22 b5 09 3f
        E 22 b5 09 3f
        E 22 b5 09 3f
        E 22 b5 09 3f
        E 22 b5 09 3f
        E 22 b5 09 3f
        E 22 b5 09 3f
        E 22 b5 09 3f
        E 22 b5 09 3f
        E 22 b5 09 3f
        E 22 b5 09 3f
        E 22 b5 09 3f
        E 22 b5 09 3f
        E 22 b5 09 3f
        E 22 b5 09 3f
        E 22 b5 09 3f
        E 22 b5 09 3f
        E 22 b5 09 3f
        E 22 b5 09 3f
        E 22 b5 09 3f
        E 22 b5 09 3f
        E 22 b5 09 3f
        E 22 b5 09 3f
        E 22 b5 09 3f
        E 22 b5 09 3f
        E 22 b5 09 3f
        E 22 b5 09 3f
        E 22 b5 09 3f
        E 22 b5 09 3f
        E 22 b5 09 3f
        E 22 b5 09 3f
        E 22 b5 09 3f
        E 22 b5 09 3f
        E 22 b5 09 3f
        E 22 b5 09 00
        E 22 b5 09 00
        E 22 b5 09 00
        E 22 b5 09 00
        E 22 b5 09 00
        E 22 b5 09 00
        E 22 b5 09 00
        E 22 b5 09 00
        E 22 b5 09 00
        E 22 b5 09 00
        E 22 b5 09 00
        E 22 b5 09 00
        E 22 b5 09 00
        E 22 b5 09 00
        E 22 b5 09 00
        E 22 b5 09 00
        E 22 b5 09 00
        E 22 b5 09 00
        E 22 b5 09 00
        E 22 b5 09 00
        E 22 b5 09 00
        E 22 b5 09 00
        E 22 b5 09 00
        E 22 b5 09 00
        E 22 b5 09 00
        E 22 b5 09 00
        E 22 b5 09 00
        E 22 b5 09 00
        E 22 b5 09 00
        E 22 b5 09 00
        E 22 b5 09 00
        E 22 b5 09 00
        E 22 b5 09 00
        E 22 b5 09 00
        E 22 b5 09 00
        E 22 b5 09 00
        E 22 b5 09 00
        E 22 b5 09 00
        E 22 b5 09 00
        E 22 b5 09 00
        E 22 b5 09 00
        E 22 b5 09 00
        E 22 b5 09 00
        E 22 b5 09 00
        E 22 b5 09 00
        E 22 b5 09 00
        E 22 b5 09 00
        E 22 b5 09 00
        E 22 b5 09 00
        E 22 b5 09 00
        E 22 b5 09 00
        E 22 b5 09 00
        E 22 b5 09 00
        E 22 b5 09 00
        E 22 b5 09 00
        E 22 b5 09 00
        E 22 b5 09 00
        E 22 b5 09 00
        E 22 b5 09 00
        E 22 b5 09 00
        E 22 b5 09 00
        E 22 b5 09 00
        E 22 b5 09 00
        E 22 b5 09 00
        E 22 b5 09 3f
        E 22 b5 09 3f
        E 22 b5 09 3f
        E 22 b5 09 3f
        E 22 b5 09 3f
        E 22 b5 09 3f
        E 22 b5 09 3f
        E 22 b5 09 3f
        E 22 b5 09 3f
        E 22 b5 09 3f
        E 22 b5 09 3f
        E 22 b5 09 3f
        E 22 b5 09 3f
        E 22 b5 09 3f
        E 22 b5 09 3f
        E 22 b5 09 3f
        E 22 b5 09 3f
        E 22 b5 09 3f
        E 22 b5 09 3f
        E 22 b5 09 3f
        E 22 b5 09 3f
        E 22 b5 09 3f
        E 22 b5 09 3f
        E 22 b5 09 3f
        E 22 b5 09 3f
        E 22 b5 09 3f
        E 22 b5 09 3f
        E 22 b5 09 3f
        E 22 b5 09 3f
        E 22 b5 09 3f
        E 22 b5 09 3f
        E 22 b5 09 3f
        E 22 b5 09 3f
        E 22 b5 09 3f
        E 22 b5 09 3f
        E 22 b5 09 3f
        E 22 b5 09 3f
        E 22 b5 09 3f
        E 22 b5 09 3f
        E 22 b5 09 3f
        E 22 b5 09 3f
        E 22 b5 09 3f
        E 22 b5 09 3f
        E 22 b5 09 3f
        E 22 b5 09 3f
        E 22 b5 09 3f
        E 22 b5 09 3f
        E 22 b5 09 3f
        E 22 b5 09 3f
        E 22 b5 09 3f
        E 22 b5 09 3f
        E 22 b5 09 3f
        E 22 b5 09 3f
        E 22 b5 09 3f
        E 22 b5 09 3f
        E 22 b5 09 3f
        E 22 b5 09 3f
        E 22 b5 09 3f
        E 22 b5 09 3f
        E 22 b5 09 3f
        E 22 b5 09 3f
        E 22 b5 09 3f
        E 22 b5 09 3f
        E 22 b5 09 00
        E 22 b5 09 00
        E 22 b5 09 00
        E 22 b5 09 00
        E 22 b5 09 00
        E 22 b5 09 00
        E 22 b5 09 00
        E 22 b5 09 00
        E 22 b5 09 00
        E 22 b5 09 00
        E 22 b5 09 00
        E 22 b5 09 00
        E 22 b5 09 00
        E 22 b5 09 00
        E 22 b5 09 00
        E 22 b5 09 00
        E 22 b5 09 00
        E 22 b5 09 00
        E 22 b5 09 00
        E 22 b5 09 00
        E 22 b5 09 00
        E 22 b5 09 00
        E 22 b5 09 00
        E 22 b5 09 00
        E 22 b5 09 00
        E 22 b5 09 00
        E 22 b5 09 00
        E 22 b5 09 00
        E 22 b5 09 00
        E 22 b5 09 00
        E 22 b5 09 00
        E 22 b5 09 00
        E 22 b5 09 00
        E 22 b5 09 00
        E 22 b5 09 00
        E 22 b5 09 00
        E 22 b5 09 00
        E 22 b5 09 00
        E 22 b5 09 00
        E 22 b5 09 00
        E 22 b5 09 00
        E 22 b5 09 00
        E 22 b5 09 00
        E 22 b5 09 00
        E 22 b5 09 00
        E 22 b5 09 00
        E 22 b5 09 00
        E 22 b5 09 00
        E 22 b5 09 00
        E 22 b5 09 00
        E 22 b5 09 00
        E 22 b5 09 00
        E 22 b5 09 00
        E 22 b5 09 00
        E 22 b5 09 00
        E 22 b5 09 00
        E 22 b5 09 00
        E 22 b5 09 00
        E 22 b5 09 00
        E 22 b5 09 00
        E 22 b5 09 00
        E 22 b5 09 00
        E 22 b5 09 00
        E 22 b5 09 00
        E 45 b5 09 58
        E 45 b5 09 58
        E 45 b5 09 58
        E 45 b5 09 58
        E 45 b5 09 58
        E 45 b5 09 58
        E 45 b5 09 58
        E 45 b5 09 58
        E 45 b5 09 58
        E 45 b5 09 58
        E 45 b5 09 58
        E 45 b5 09 58
        E 45 b5 09 58
        E 45 b5 09 58
        E 45 b5 09 58
        E 45 b5 09 58
        E 45 b5 09 58
        E 45 b5 09 58
        E 45 b5 09 58
        E 45 b5 09 58
        E 45 b5 09 58
        E 45 b5 09 58
        E 45 b5 09 58
        E 45 b5 09 58
        E 45 b5 09 58
        E 45 b5 09 58
        E 45 b5 09 58
        E 45 b5 09 58
        E 45 b5 09 58
        E 45 b5 09 58
        E 45 b5 09 58
        E 45 b5 09 58
        E 45 b5 09 58
        E 45 b5 09 58
        E 45 b5 09 58
        E 45 b5 09 58
        E 45 b5 09 58
        E 45 b5 09 58
        E 45 b5 09 58
        E 45 b5 09 58
        E 45 b5 09 58
        E 45 b5 09 58
        E 45 b5 09 58
        E 45 b5 09 58
        E 45 b5 09 58
        E 45 b5 09 58
        E 45 b5 09 58
        E 45 b5 09 58
        E 45 b5 09 58
        E 45 b5 09 58
        E 45 b5 09 58
        E 45 b5 09 58
        E 45 b5 09 58
        E 45 b5 09 58
        E 45 b5 09 58
        E 45 b5 09 58
        E 45 b5 09 58
        E 45 b5 09 58
        E 45 b5 09 58
        E 45 b5 09 58
        E 45 b5 09 58
        E 45 b5 09 58
        E 45 b5 09 58
        E 45 b5 09 00
        E 45 b5 09 00
        E 45 b5 09 00
        E 45 b5 09 00
        E 45 b5 09 00
        E 45 b5 09 00
        E 45 b5 09 00
        E 45 b5 09 00
        E 45 b5 09 00
        E 45 b5 09 00
        E 45 b5 09 00
        E 45 b5 09 00
        E 45 b5 09 00
        E 45 b5 09 00
        E 45 b5 09 00
        E 45 b5 09 00
        E 45 b5 09 00
        E 45 b5 09 00
        E 45 b5 09 00
        E 45 b5 09 00
        E 45 b5 09 00
        E 45 b5 09 00
        E 45 b5 09 00
        E 45 b5 09 00
        E 45 b5 09 00
        E 45 b5 09 00
        E 45 b5 09 00
        E 45 b5 09 00
        E 45 b5 09 00
        E 45 b5 09 00
        E 45 b5 09 00
        E 45 b5 09 00
        E 45 b5 09 00
        E 45 b5 09 00
        E 45 b5 09 00
        E 45 b5 09 00
        E 45 b5 09 00
        E 45 b5 09 00
        E 45 b5 09 00
        E 45 b5 09 00
        E 45 b5 09 00
        E 45 b5 09 00
        E 45 b5 09 00
        E 45 b5 09 00
        E 45 b5 09 00
        E 45 b5 09 00
        E 45 b5 09 00
        E 45 b5 09 00
        E 45 b5 09 00
        E 45 b5 09 00
        E 45 b5 09 00
        E 45 b5 09 00
        E 45 b5 09 00
        E 45 b5 09 00
        E 45 b5 09 00
        E 45 b5 09 00
        E 45 b5 09 00
        E 45 b5 09 00
        E 45 b5 09 00
        E 45 b5 09 00
        E 45 b5 09 00
        E 45 b5 09 00
        E 45 b5 09 00
        E 45 b5 09 00
        E 40 b5 09 65
        E 40 b5 09 65
        E 40 b5 09 65
        E 40 b5 09 65
        E 40 b5 09 65
        E 40 b5 09 65
        E 40 b5 09 65
        E 40 b5 09 65
        E 40 b5 09 65
        E 40 b5 09 65
        E 40 b5 09 65
        E 40 b5 09 65
        E 40 b5 09 65
        E 40 b5 09 65
        E 40 b5 09 65
        E 40 b5 09 65
        E 40 b5 09 65
        E 40 b5 09 65
        E 40 b5 09 65
        E 40 b5 09 65
        E 40 b5 09 65
        E 40 b5 09 65
        E 40 b5 09 65
        E 40 b5 09 65
        E 40 b5 09 65
        E 40 b5 09 65
        E 40 b5 09 65
        E 40 b5 09 65
        E 40 b5 09 65
        E 40 b5 09 65
        E 40 b5 09 65
        E 40 b5 09 65
        E 40 b5 09 65
        E 40 b5 09 65
        E 40 b5 09 65
        E 40 b5 09 65
        E 40 b5 09 65
        E 40 b5 09 65
        E 40 b5 09 65
        E 40 b5 09 65
        E 40 b5 09 65
        E 40 b5 09 65
        E 40 b5 09 65
        E 40 b5 09 65
        E 40 b5 09 65
        E 40 b5 09 65
        E 40 b5 09 65
        E 40 b5 09 65
        E 40 b5 09 65
        E 40 b5 09 65
        E 40 b5 09 65
        E 40 b5 09 65
        E 40 b5 09 65
        E 40 b5 09 65
        E 40 b5 09 65
        E 40 b5 09 65
        E 40 b5 09 65
        E 40 b5 09 65
        E 40 b5 09 65
        E 40 b5 09 65
        E 40 b5 09 65
        E 40 b5 09 65
        E 40 b5 09 65
        E 40 b5 09 00
        E 40 b5 09 00
        E 40 b5 09 00
        E 40 b5 09 00
        E 40 b5 09 00
        E 40 b5 09 00
        E 40 b5 09 00
        E 40 b5 09 00
        E 40 b5 09 00
        E 40 b5 09 00
        E 40 b5 09 00
        E 40 b5 09 00
        E 40 b5 09 00
        E 40 b5 09 00
        E 40 b5 09 00
        E 40 b5 09 00
        E 40 b5 09 00
        E 40 b5 09 00
        E 40 b5 09 00
        E 40 b5 09 00
        E 40 b5 09 00
        E 40 b5 09 00
        E 40 b5 09 00
        E 40 b5 09 00
        E 40 b5 09 00
        E 40 b5 09 00
        E 40 b5 09 00
        E 40 b5 09 00
        E 40 b5 09 00
        E 40 b5 09 00
        E 40 b5 09 00
        E 40 b5 09 00
        E 40 b5 09 00
        E 40 b5 09 00
        E 40 b5 09 00
        E 40 b5 09 00
        E 40 b5 09 00
        E 40 b5 09 00
        E 40 b5 09 00
        E 40 b5 09 00
        E 40 b5 09 00
        E 40 b5 09 00
        E 40 b5 09 00
        E 40 b5 09 00
        E 40 b5 09 00
        E 40 b5 09 00
        E 40 b5 09 00
        E 40 b5 09 00
        E 40 b5 09 00
        E 40 b5 09 00
        E 40 b5 09 00
        E 40 b5 09 00
        E 40 b5 09 00
        E 40 b5 09 00
        E 40 b5 09 00
        E 40 b5 09 00
        E 40 b5 09 00
        E 40 b5 09 00
        E 40 b5 09 00
        E 40 b5 09 00
        E 40 b5 09 00
        E 40 b5 09 00
        E 40 b5 09 00
        E 40 b5 09 00
        E 45 b5 09 0c
        E 45 b5 09 0c
        E 45 b5 09 0c
        E 45 b5 09 0c
        E 45 b5 09 0c
        E 45 b5 09 0c
        E 45 b5 09 0c
        E 45 b5 09 0c
        E 45 b5 09 0c
        E 45 b5 09 0c
        E 45 b5 09 0c
        E 45 b5 09 0c
        E 45 b5 09 0c
        E 45 b5 09 0c
        E 45 b5 09 0c
        E 45 b5 09 0c
        E 45 b5 09 0c
        E 45 b5 09 0c
        E 45 b5 09 0c
        E 45 b5 09 0c
        E 45 b5 09 0c
        E 45 b5 09 0c
        E 45 b5 09 0c
        E 45 b5 09 0c
        E 45 b5 09 0c
        E 45 b5 09 0c
        E 45 b5 09 0c
        E 45 b5 09 0c
        E 45 b5 09 0c
        E 45 b5 09 0c
        E 45 b5 09 0c
        E 45 b5 09 0c
        E 45 b5 09 0c
        E 45 b5 09 0c
        E 45 b5 09 0c
        E 45 b5 09 0c
        E 45 b5 09 0c
        E 45 b5 09 0c
        E 45 b5 09 0c
        E 45 b5 09 0c
        E 45 b5 09 0c
        E 45 b5 09 0c
        E 45 b5 09 0c
        E 45 b5 09 0c
        E 45 b5 09 0c
        E 45 b5 09 0c
        E 45 b5 09 0c
        E 45 b5 09 0c
        E 45 b5 09 0c
        E 45 b5 09 0c
        E 45 b5 09 0c
        E 45 b5 09 0c
        E 45 b5 09 0c
        E 45 b5 09 0c
        E 45 b5 09 0c
        E 45 b5 09 0c
        E 45 b5 09 0c
        E 45 b5 09 0c
        E 45 b5 09 0c
        E 45 b5 09 0c
        E 45 b5 09 0c
        E 45 b5 09 0c
        E 45 b5 09 0c
        E 45 b5 09 00
        E 45 b5 09 00
        E 45 b5 09 00
        E 45 b5 09 00
        E 45 b5 09 00
        E 45 b5 09 00
        E 45 b5 09 00
        E 45 b5 09 00
        E 45 b5 09 00
        E 45 b5 09 00
        E 45 b5 09 00
        E 45 b5 09 00
        E 45 b5 09 00
        E 45 b5 09 00
        E 45 b5 09 00
        E 45 b5 09 00
        E 45 b5 09 00
        E 45 b5 09 00
        E 45 b5 09 00
        E 45 b5 09 00
        E 45 b5 09 00
        E 45 b5 09 00
        E 45 b5 09 00
        E 45 b5 09 00
        E 45 b5 09 00
        E 45 b5 09 00
        E 45 b5 09 00
        E 45 b5 09 00
        E 45 b5 09 00
        E 45 b5 09 00
        E 45 b5 09 00
        E 45 b5 09 00
        E 45 b5 09 00
        E 45 b5 09 00
        E 45 b5 09 00
        E 45 b5 09 00
        E 45 b5 09 00
        E 45 b5 09 00
        E 45 b5 09 00
        E 45 b5 09 00
        E 45 b5 09 00
        E 45 b5 09 00
        E 45 b5 09 00
        E 45 b5 09 00
        E 45 b5 09 00
        E 45 b5 09 00
        E 45 b5 09 00
        E 45 b5 09 00
        E 45 b5 09 00
        E 45 b5 09 00
        E 45 b5 09 00
        E 45 b5 09 00
        E 45 b5 09 00
        E 45 b5 09 00
        E 45 b5 09 00
        E 45 b5 09 00
        E 45 b5 09 00
        E 45 b5 09 00
        E 45 b5 09 00
        E 45 b5 09 00
        E 45 b5 09 00
        E 45 b5 09 00
        E 45 b5 09 00
        E 45 b5 09 00
        E 40 b5 09 32
        E 40 b5 09 32
        E 40 b5 09 32
        E 40 b5 09 32
        E 40 b5 09 32
        E 40 b5 09 32
        E 40 b5 09 32
        E 40 b5 09 32
        E 40 b5 09 32
        E 40 b5 09 32
        E 40 b5 09 32
        E 40 b5 09 32
        E 40 b5 09 32
        E 40 b5 09 32
        E 40 b5 09 32
        E 40 b5 09 32
        E 40 b5 09 32
        E 40 b5 09 32
        E 40 b5 09 32
        E 40 b5 09 32
        E 40 b5 09 32
        E 40 b5 09 32
        E 40 b5 09 32
        E 40 b5 09 32
        E 40 b5 09 32
        E 40 b5 09 32
        E 40 b5 09 32
        E 40 b5 09 32
        E 40 b5 09 32
        E 40 b5 09 32
        E 40 b5 09 32
        E 40 b5 09 32
        E 40 b5 09 32
        E 40 b5 09 32
        E 40 b5 09 32
        E 40 b5 09 32
        E 40 b5 09 32
        E 40 b5 09 32
        E 40 b5 09 32
        E 40 b5 09 32
        E 40 b5 09 32
        E 40 b5 09 32
        E 40 b5 09 32
        E 40 b5 09 32
        E 40 b5 09 32
        E 40 b5 09 32
        E 40 b5 09 32
        E 40 b5 09 32
        E 40 b5 09 32
        E 40 b5 09 32
        E 40 b5 09 32
        E 40 b5 09 32
        E 40 b5 09 32
        E 40 b5 09 32
        E 40 b5 09 32
        E 40 b5 09 32
        E 40 b5 09 32
        E 40 b5 09 32
        E 40 b5 09 32
        E 40 b5 09 32
        E 40 b5 09 32
        E 40 b5 09 32
        E 40 b5 09 32
        E 40 b5 09 00
        E 40 b5 09 00
        E 40 b5 09 00
        E 40 b5 09 00
        E 40 b5 09 00
        E 40 b5 09 00
        E 40 b5 09 00
        E 40 b5 09 00
        E 40 b5 09 00
        E 40 b5 09 00
        E 40 b5 09 00
        E 40 b5 09 00
        E 40 b5 09 00
        E 40 b5 09 00
        E 40 b5 09 00
        E 40 b5 09 00
        E 40 b5 09 00
        E 40 b5 09 00
        E 40 b5 09 00
        E 40 b5 09 00
        E 40 b5 09 00
        E 40 b5 09 00
        E 40 b5 09 00
        E 40 b5 09 00
        E 40 b5 09 00
        E 40 b5 09 00
        E 40 b5 09 00
        E 40 b5 09 00
        E 40 b5 09 00
        E 40 b5 09 00
        E 40 b5 09 00
        E 40 b5 09 00
        E 40 b5 09 00
        E 40 b5 09 00
        E 40 b5 09 00
        E 40 b5 09 00
        E 40 b5 09 00
        E 40 b5 09 00
        E 40 b5 09 00
        E 40 b5 09 00
        E 40 b5 09 00
        E 40 b5 09 00
        E 40 b5 09 00
        E 40 b5 09 00
        E 40 b5 09 00
        E 40 b5 09 00
        E 40 b5 09 00
        E 40 b5 09 00
        E 40 b5 09 00
        E 40 b5 09 00
        E 40 b5 09 00
        E 40 b5 09 00
        E 40 b5 09 00
        E 40 b5 09 00
        E 40 b5 09 00
        E 40 b5 09 00
        E 40 b5 09 00
        E 40 b5 09 00
        E 40 b5 09 00
        E 40 b5 09 00
        E 40 b5 09 00
        E 40 b5 09 00
        E 40 b5 09 00
        E 40 b5 09 00
        E 31 b5 09 3f
        E 31 b5 09 3f
        E 31 b5 09 3f
        E 31 b5 09 3f
        E 31 b5 09 3f
        E 31 b5 09 3f
        E 31 b5 09 3f
        E 31 b5 09 3f
        E 31 b5 09 3f
        E 31 b5 09 3f
        E 31 b5 09 3f
        E 31 b5 09 3f
        E 31 b5 09 3f
        E 31 b5 09 3f
        E 31 b5 09 3f
        E 31 b5 09 3f
        E 31 b5 09 3f
        E 31 b5 09 3f
        E 31 b5 09 3f
        E 31 b5 09 3f
        E 31 b5 09 3f
        E 31 b5 09 3f
        E 31 b5 09 3f
        E 31 b5 09 3f
        E 31 b5 09 3f
        E 31 b5 09 3f
        E 31 b5 09 3f
        E 31 b5 09 3f
        E 31 b5 09 3f
        E 31 b5 09 3f
        E 31 b5 09 3f
        E 31 b5 09 3f
        E 31 b5 09 3f
        E 31 b5 09 3f
        E 31 b5 09 3f
        E 31 b5 09 3f
        E 31 b5 09 3f
        E 31 b5 09 3f
        E 31 b5 09 3f
        E 31 b5 09 3f
        E 31 b5 09 3f
        E 31 b5 09 3f
        E 31 b5 09 3f
        E 31 b5 09 3f
        E 31 b5 09 3f
        E 31 b5 09 3f
        E 31 b5 09 3f
        E 31 b5 09 3f
        E 31 b5 09 3f
        E 31 b5 09 3f
        E 31 b5 09 3f
        E 31 b5 09 3f
        E 31 b5 09 3f
        E 31 b5 09 3f
        E 31 b5 09 3f
        E 31 b5 09 3f
        E 31 b5 09 3f
        E 31 b5 09 3f
        E 31 b5 09 3f
        E 31 b5 09 3f
        E 31 b5 09 3f
        E 31 b5 09 3f
        E 31 b5 09 3f
        E 31 b5 09 00
        E 31 b5 09 00
        E 31 b5 09 00
        E 31 b5 09 00
        E 31 b5 09 00
        E 31 b5 09 00
        E 31 b5 09 00
        E 31 b5 09 00
        E 31 b5 09 00
        E 31 b5 09 00
        E 31 b5 09 00
        E 31 b5 09 00
        E 31 b5 09 00
        E 31 b5 09 00
        E 31 b5 09 00
        E 31 b5 09 00
        E 31 b5 09 00
        E 31 b5 09 00
        E 31 b5 09 00
        E 31 b5 09 00
        E 31 b5 09 00
        E 31 b5 09 00
        E 31 b5 09 00
        E 31 b5 09 00
        E 31 b5 09 00
        E 31 b5 09 00
        E 31 b5 09 00
        E 31 b5 09 00
        E 31 b5 09 00
        E 31 b5 09 00
        E 31 b5 09 00
        E 31 b5 09 00
        E 31 b5 09 00
        E 31 b5 09 00
        E 31 b5 09 00
        E 31 b5 09 00
        E 31 b5 09 00
        E 31 b5 09 00
        E 31 b5 09 00
        E 31 b5 09 00
        E 31 b5 09 00
        E 31 b5 09 00
        E 31 b5 09 00
        E 31 b5 09 00
        E 31 b5 09 00
        E 31 b5 09 00
        E 31 b5 09 00
        E 31 b5 09 00
        E 31 b5 09 00
        E 31 b5 09 00
        E 31 b5 09 00
        E 31 b5 09 00
        E 31 b5 09 00
        E 31 b5 09 00
        E 31 b5 09 00
        E 31 b5 09 00
        E 31 b5 09 00
        E 31 b5 09 00
        E 31 b5 09 00
        E 31 b5 09 00
        E 31 b5 09 00
        E 31 b5 09 00
        E 31 b5 09 00
        E 31 b5 09 00
        E 36 b5 09 7f
        E 36 b5 09 7f
        E 36 b5 09 7f
        E 36 b5 09 7f
        E 36 b5 09 7f
        E 36 b5 09 7f
        E 36 b5 09 7f
        E 36 b5 09 7f
        E 36 b5 09 7f
        E 36 b5 09 7f
        E 36 b5 09 7f
        E 36 b5 09 7f
        E 36 b5 09 7f
        E 36 b5 09 7f
        E 36 b5 09 7f
        E 36 b5 09 7f
        E 36 b5 09 7f
        E 36 b5 09 7f
        E 36 b5 09 7f
        E 36 b5 09 7f
        E 36 b5 09 7f
        E 36 b5 09 7f
        E 36 b5 09 7f
        E 36 b5 09 7f
        E 36 b5 09 7f
        E 36 b5 09 7f
        E 36 b5 09 7f
        E 36 b5 09 7f
        E 36 b5 09 7f
        E 36 b5 09 7f
        E 36 b5 09 7f
        E 36 b5 09 7f
        E 36 b5 09 7f
        E 36 b5 09 7f
        E 36 b5 09 7f
        E 36 b5 09 7f
        E 36 b5 09 7f
        E 36 b5 09 7f
        E 36 b5 09 7f
        E 36 b5 09 7f
        E 36 b5 09 7f
        E 36 b5 09 7f
        E 36 b5 09 7f
        E 36 b5 09 7f
        E 36 b5 09 7f
        E 36 b5 09 7f
        E 36 b5 09 7f
        E 36 b5 09 7f
        E 36 b5 09 7f
        E 36 b5 09 7f
        E 36 b5 09 7f
        E 36 b5 09 7f
        E 36 b5 09 7f
        E 36 b5 09 7f
        E 36 b5 09 7f
        E 36 b5 09 7f
        E 36 b5 09 7f
        E 36 b5 09 7f
        E 36 b5 09 7f
        E 36 b5 09 7f
        E 36 b5 09 7f
        E 36 b5 09 7f
        E 36 b5 09 7f
        E 36 b5 09 00
        E 36 b5 09 00
        E 36 b5 09 00
        E 36 b5 09 00
        E 36 b5 09 00
        E 36 b5 09 00
        E 36 b5 09 00
        E 36 b5 09 00
        E 36 b5 09 00
        E 36 b5 09 00
        E 36 b5 09 00
        E 36 b5 09 00
        E 36 b5 09 00
        E 36 b5 09 00
        E 36 b5 09 00
        E 36 b5 09 00
        E 36 b5 09 00
        E 36 b5 09 00
        E 36 b5 09 00
        E 36 b5 09 00
        E 36 b5 09 00
        E 36 b5 09 00
        E 36 b5 09 00
        E 36 b5 09 00
        E 36 b5 09 00
        E 36 b5 09 00
        E 36 b5 09 00
        E 36 b5 09 00
        E 36 b5 09 00
        E 36 b5 09 00
        E 36 b5 09 00
        E 36 b5 09 00
        E 36 b5 09 00
        E 36 b5 09 00
        E 36 b5 09 00
        E 36 b5 09 00
        E 36 b5 09 00
        E 36 b5 09 00
        E 36 b5 09 00
        E 36 b5 09 00
        E 36 b5 09 00
        E 36 b5 09 00
        E 36 b5 09 00
        E 36 b5 09 00
        E 36 b5 09 00
        E 36 b5 09 00
        E 36 b5 09 00
        E 36 b5 09 00
        E 36 b5 09 00
        E 36 b5 09 00
        E 36 b5 09 00
        E 36 b5 09 00
        E 36 b5 09 00
        E 36 b5 09 00
        E 36 b5 09 00
        E 36 b5 09 00
        E 36 b5 09 00
        E 36 b5 09 00
        E 36 b5 09 00
        E 36 b5 09 00
        E 36 b5 09 00
        E 36 b5 09 00
        E 36 b5 09 00
        E 36 b5 09 00
        E 4 b5 09 72
        E 4 b5 09 72
        E 4 b5 09 72
        E 4 b5 09 72
        E 4 b5 09 72
        E 4 b5 09 72
        E 4 b5 09 72
        E 4 b5 09 72
        E 4 b5 09 72
        E 4 b5 09 72
        E 4 b5 09 72
        E 4 b5 09 72
        E 4 b5 09 72
        E 4 b5 09 72
        E 4 b5 09 72
        E 4 b5 09 72
        E 4 b5 09 72
        E 4 b5 09 72
        E 4 b5 09 72
        E 4 b5 09 72
        E 4 b5 09 72
        E 4 b5 09 72
        E 4 b5 09 72
        E 4 b5 09 72
        E 4 b5 09 72
        E 4 b5 09 72
        E 4 b5 09 72
        E 4 b5 09 72
        E 4 b5 09 72
        E 4 b5 09 72
        E 4 b5 09 72
        E 4 b5 09 72
        E 4 b5 09 72
        E 4 b5 09 72
        E 4 b5 09 72
        E 4 b5 09 72
        E 4 b5 09 72
        E 4 b5 09 72
        E 4 b5 09 72
        E 4 b5 09 72
        E 4 b5 09 72
        E 4 b5 09 72
        E 4 b5 09 72
        E 4 b5 09 72
        E 4 b5 09 72
        E 4 b5 09 72
        E 4 b5 09 72
        E 4 b5 09 72
        E 4 b5 09 72
        E 4 b5 09 72
        E 4 b5 09 72
        E 4 b5 09 72
        E 4 b5 09 72
        E 4 b5 09 72
        E 4 b5 09 72
        E 4 b5 09 72
        E 4 b5 09 72
        E 4 b5 09 72
        E 4 b5 09 72
        E 4 b5 09 72
        E 4 b5 09 72
        E 4 b5 09 72
        E 4 b5 09 72
        E 4 b5 09 00
        E 4 b5 09 00
        E 4 b5 09 00
        E 4 b5 09 00
        E 4 b5 09 00
        E 4 b5 09 00
        E 4 b5 09 00
        E 4 b5 09 00
        E 4 b5 09 00
        E 4 b5 09 00
        E 4 b5 09 00
        E 4 b5 09 00
        E 4 b5 09 00
        E 4 b5 09 00
        E 4 b5 09 00
        E 4 b5 09 00
        E 4 b5 09 00
        E 4 b5 09 00
        E 4 b5 09 00
        E 4 b5 09 00
        E 4 b5 09 00
        E 4 b5 09 00
        E 4 b5 09 00
        E 4 b5 09 00
        E 4 b5 09 00
        E 4 b5 09 00
        E 4 b5 09 00
        E 4 b5 09 00
        E 4 b5 09 00
        E 4 b5 09 00
        E 4 b5 09 00
        E 4 b5 09 00
        E 4 b5 09 00
        E 4 b5 09 00
        E 4 b5 09 00
        E 4 b5 09 00
        E 4 b5 09 00
        E 4 b5 09 00
        E 4 b5 09 00
        E 4 b5 09 00
        E 4 b5 09 00
        E 4 b5 09 00
        E 4 b5 09 00
        E 4 b5 09 00
        E 4 b5 09 00
        E 4 b5 09 00
        E 4 b5 09 00
        E 4 b5 09 00
        E 4 b5 09 00
        E 4 b5 09 00
        E 4 b5 09 00
        E 4 b5 09 00
        E 4 b5 09 00
        E 4 b5 09 00
        E 4 b5 09 00
        E 4 b5 09 00
        E 4 b5 09 00
        E 4 b5 09 00
        E 4 b5 09 00
        E 4 b5 09 00
        E 4 b5 09 00
        E 4 b5 09 00
        E 4 b5 09 00
        E 4 b5 09 00
        E 18 b5 09 7f
        E 18 b5 09 7f
        E 18 b5 09 7f
        E 18 b5 09 7f
        E 18 b5 09 7f
        E 18 b5 09 7f
        E 18 b5 09 7f
        E 18 b5 09 7f
        E 18 b5 09 7f
        E 18 b5 09 7f
        E 18 b5 09 7f
        E 18 b5 09 7f
        E 18 b5 09 7f
        E 18 b5 09 7f
        E 18 b5 09 7f
        E 18 b5 09 7f
        E 18 b5 09 7f
        E 18 b5 09 7f
        E 18 b5 09 7f
        E 18 b5 09 7f
        E 18 b5 09 7f
        E 18 b5 09 7f
        E 18 b5 09 7f
        E 18 b5 09 7f
        E 18 b5 09 7f
        E 18 b5 09 7f
        E 18 b5 09 7f
        E 18 b5 09 7f
        E 18 b5 09 7f
        E 18 b5 09 7f
        E 18 b5 09 7f
        E 18 b5 09 7f
        E 18 b5 09 7f
        E 18 b5 09 7f
        E 18 b5 09 7f
        E 18 b5 09 7f
        E 18 b5 09 7f
        E 18 b5 09 7f
        E 18 b5 09 7f
        E 18 b5 09 7f
        E 18 b5 09 7f
        E 18 b5 09 7f
        E 18 b5 09 7f
        E 18 b5 09 7f
        E 18 b5 09 7f
        E 18 b5 09 7f
        E 18 b5 09 7f
        E 18 b5 09 7f
        E 18 b5 09 7f
        E 18 b5 09 7f
        E 18 b5 09 7f
        E 18 b5 09 7f
        E 18 b5 09 7f
        E 18 b5 09 7f
        E 18 b5 09 7f
        E 18 b5 09 7f
        E 18 b5 09 7f
        E 18 b5 09 7f
        E 18 b5 09 7f
        E 18 b5 09 7f
        E 18 b5 09 7f
        E 18 b5 09 7f
        E 18 b5 09 7f
        E 18 b5 09 00
        E 18 b5 09 00
        E 18 b5 09 00
        E 18 b5 09 00
        E 18 b5 09 00
        E 18 b5 09 00
        E 18 b5 09 00
        E 18 b5 09 00
        E 18 b5 09 00
        E 18 b5 09 00
        E 18 b5 09 00
        E 18 b5 09 00
        E 18 b5 09 00
        E 18 b5 09 00
        E 18 b5 09 00
        E 18 b5 09 00
        E 18 b5 09 00
        E 18 b5 09 00
        E 18 b5 09 00
        E 18 b5 09 00
        E 18 b5 09 00
        E 18 b5 09 00
        E 18 b5 09 00
        E 18 b5 09 00
        E 18 b5 09 00
        E 18 b5 09 00
        E 18 b5 09 00
        E 18 b5 09 00
        E 18 b5 09 00
        E 18 b5 09 00
        E 18 b5 09 00
        E 18 b5 09 00
        E 18 b5 09 00
        E 18 b5 09 00
        E 18 b5 09 00
        E 18 b5 09 00
        E 18 b5 09 00
        E 18 b5 09 00
        E 18 b5 09 00
        E 18 b5 09 00
        E 18 b5 09 00
        E 18 b5 09 00
        E 18 b5 09 00
        E 18 b5 09 00
        E 18 b5 09 00
        E 18 b5 09 00
        E 18 b5 09 00
        E 18 b5 09 00
        E 18 b5 09 00
        E 18 b5 09 00
        E 18 b5 09 00
        E 18 b5 09 00
        E 18 b5 09 00
        E 18 b5 09 00
        E 18 b5 09 00
        E 18 b5 09 00
        E 18 b5 09 00
        E 18 b5 09 00
        E 18 b5 09 00
        E 18 b5 09 00
        E 18 b5 09 00
        E 18 b5 09 00
        E 18 b5 09 00
        E 18 b5 09 00
        E 31 b5 09 72
        E 31 b5 09 72
        E 31 b5 09 72
        E 31 b5 09 72
        E 31 b5 09 72
        E 31 b5 09 72
        E 31 b5 09 72
        E 31 b5 09 72
        E 31 b5 09 72
        E 31 b5 09 72
        E 31 b5 09 72
        E 31 b5 09 72
        E 31 b5 09 72
        E 31 b5 09 72
        E 31 b5 09 72
        E 31 b5 09 72
        E 31 b5 09 72
        E 31 b5 09 72
        E 31 b5 09 72
        E 31 b5 09 72
        E 31 b5 09 72
        E 31 b5 09 72
        E 31 b5 09 72
        E 31 b5 09 72
        E 31 b5 09 72
        E 31 b5 09 72
        E 31 b5 09 72
        E 31 b5 09 72
        E 31 b5 09 72
        E 31 b5 09 72
        E 31 b5 09 72
        E 31 b5 09 72
        E 31 b5 09 72
        E 31 b5 09 72
        E 31 b5 09 72
        E 31 b5 09 72
        E 31 b5 09 72
        E 31 b5 09 72
        E 31 b5 09 72
        E 31 b5 09 72
        E 31 b5 09 72
        E 31 b5 09 72
        E 31 b5 09 72
        E 31 b5 09 72
        E 31 b5 09 72
        E 31 b5 09 72
        E 31 b5 09 72
        E 31 b5 09 72
        E 31 b5 09 72
        E 31 b5 09 72
        E 31 b5 09 72
        E 31 b5 09 72
        E 31 b5 09 72
        E 31 b5 09 72
        E 31 b5 09 72
        E 31 b5 09 72
        E 31 b5 09 72
        E 31 b5 09 72
        E 31 b5 09 72
        E 31 b5 09 72
        E 31 b5 09 72
        E 31 b5 09 72
        E 31 b5 09 72
        E 31 b5 09 00
        E 31 b5 09 00
        E 31 b5 09 00
        E 31 b5 09 00
        E 31 b5 09 00
        E 31 b5 09 00
        E 31 b5 09 00
        E 31 b5 09 00
        E 31 b5 09 00
        E 31 b5 09 00
        E 31 b5 09 00
        E 31 b5 09 00
        E 31 b5 09 00
        E 31 b5 09 00
        E 31 b5 09 00
        E 31 b5 09 00
        E 31 b5 09 00
        E 31 b5 09 00
        E 31 b5 09 00
        E 31 b5 09 00
        E 31 b5 09 00
        E 31 b5 09 00
        E 31 b5 09 00
        E 31 b5 09 00
        E 31 b5 09 00
        E 31 b5 09 00
        E 31 b5 09 00
        E 31 b5 09 00
        E 31 b5 09 00
        E 31 b5 09 00
        E 31 b5 09 00
        E 31 b5 09 00
        E 31 b5 09 00
        E 31 b5 09 00
        E 31 b5 09 00
        E 31 b5 09 00
        E 31 b5 09 00
        E 31 b5 09 00
        E 31 b5 09 00
        E 31 b5 09 00
        E 31 b5 09 00
        E 31 b5 09 00
        E 31 b5 09 00
        E 31 b5 09 00
        E 31 b5 09 00
        E 31 b5 09 00
        E 31 b5 09 00
        E 31 b5 09 00
        E 31 b5 09 00
        E 31 b5 09 00
        E 31 b5 09 00
        E 31 b5 09 00
        E 31 b5 09 00
        E 31 b5 09 00
        E 31 b5 09 00
        E 31 b5 09 00
        E 31 b5 09 00
        E 31 b5 09 00
        E 31 b5 09 00
        E 31 b5 09 00
        E 31 b5 09 00
        E 31 b5 09 00
        E 31 b5 09 00
        E 31 b5 09 00
        E 22 b5 09 3f
        E 22 b5 09 3f
        E 22 b5 09 3f
        E 22 b5 09 3f
        E 22 b5 09 3f
        E 22 b5 09 3f
        E 22 b5 09 3f
        E 22 b5 09 3f
        E 22 b5 09 3f
        E 22 b5 09 3f
        E 22 b5 09 3f
        E 22 b5 09 3f
        E 22 b5 09 3f
        E 22 b5 09 3f
        E 22 b5 09 3f
        E 22 b5 09 3f
        E 22 b5 09 3f
        E 22 b5 09 3f
        E 22 b5 09 3f
        E 22 b5 09 3f
        E 22 b5 09 3f
        E 22 b5 09 3f
        E 22 b5 09 3f
        E 22 b5 09 3f
        E 22 b5 09 3f
        E 22 b5 09 3f
        E 22 b5 09 3f
        E 22 b5 09 3f
        E 22 b5 09 3f
        E 22 b5 09 3f
        E 22 b5 09 3f
        E 22 b5 09 3f
        E 22 b5 09 3f
        E 22 b5 09 3f
        E 22 b5 09 3f
        E 22 b5 09 3f
        E 22 b5 09 3f
        E 22 b5 09 3f
        E 22 b5 09 3f
        E 22 b5 09 3f
        E 22 b5 09 3f
        E 22 b5 09 3f
        E 22 b5 09 3f
        E 22 b5 09 3f
        E 22 b5 09 3f
        E 22 b5 09 3f
        E 22 b5 09 3f
        E 22 b5 09 3f
        E 22 b5 09 3f
        E 22 b5 09 3f
        E 22 b5 09 3f
        E 22 b5 09 3f
        E 22 b5 09 3f
        E 22 b5 09 3f
        E 22 b5 09 3f
        E 22 b5 09 3f
        E 22 b5 09 3f
        E 22 b5 09 3f
        E 22 b5 09 3f
        E 22 b5 09 3f
        E 22 b5 09 3f
        E 22 b5 09 3f
        E 22 b5 09 3f
        E 22 b5 09 00
        E 22 b5 09 00
        E 22 b5 09 00
        E 22 b5 09 00
        E 22 b5 09 00
        E 22 b5 09 00
        E 22 b5 09 00
        E 22 b5 09 00
        E 22 b5 09 00
        E 22 b5 09 00
        E 22 b5 09 00
        E 22 b5 09 00
        E 22 b5 09 00
        E 22 b5 09 00
        E 22 b5 09 00
        E 22 b5 09 00
        E 22 b5 09 00
        E 22 b5 09 00
        E 22 b5 09 00
        E 22 b5 09 00
        E 22 b5 09 00
        E 22 b5 09 00
        E 22 b5 09 00
        E 22 b5 09 00
        E 22 b5 09 00
        E 22 b5 09 00
        E 22 b5 09 00
        E 22 b5 09 00
        E 22 b5 09 00
        E 22 b5 09 00
        E 22 b5 09 00
        E 22 b5 09 00
        E 22 b5 09 00
        E 22 b5 09 00
        E 22 b5 09 00
        E 22 b5 09 00
        E 22 b5 09 00
        E 22 b5 09 00
        E 22 b5 09 00
        E 22 b5 09 00
        E 22 b5 09 00
        E 22 b5 09 00
        E 22 b5 09 00
        E 22 b5 09 00
        E 22 b5 09 00
        E 22 b5 09 00
        E 22 b5 09 00
        E 22 b5 09 00
        E 22 b5 09 00
        E 22 b5 09 00
        E 22 b5 09 00
        E 22 b5 09 00
        E 22 b5 09 00
        E 22 b5 09 00
        E 22 b5 09 00
        E 22 b5 09 00
        E 22 b5 09 00
        E 22 b5 09 00
        E 22 b5 09 00
        E 22 b5 09 00
        E 22 b5 09 00
        E 22 b5 09 00
        E 22 b5 09 00
        E 22 b5 09 00
        E 22 b5 09 3f
        E 22 b5 09 3f
        E 22 b5 09 3f
        E 22 b5 09 3f
        E 22 b5 09 3f
        E 22 b5 09 3f
        E 22 b5 09 3f
        E 22 b5 09 3f
        E 22 b5 09 3f
        E 22 b5 09 3f
        E 22 b5 09 3f
        E 22 b5 09 3f
        E 22 b5 09 3f
        E 22 b5 09 3f
        E 22 b5 09 3f
        E 22 b5 09 3f
        E 22 b5 09 3f
        E 22 b5 09 3f
        E 22 b5 09 3f
        E 22 b5 09 3f
        E 22 b5 09 3f
        E 22 b5 09 3f
        E 22 b5 09 3f
        E 22 b5 09 3f
        E 22 b5 09 3f
        E 22 b5 09 3f
        E 22 b5 09 3f
        E 22 b5 09 3f
        E 22 b5 09 3f
        E 22 b5 09 3f
        E 22 b5 09 3f
        E 22 b5 09 3f
        E 22 b5 09 3f
        E 22 b5 09 3f
        E 22 b5 09 3f
        E 22 b5 09 3f
        E 22 b5 09 3f
        E 22 b5 09 3f
        E 22 b5 09 3f
        E 22 b5 09 3f
        E 22 b5 09 3f
        E 22 b5 09 3f
        E 22 b5 09 3f
        E 22 b5 09 3f
        E 22 b5 09 3f
        E 22 b5 09 3f
        E 22 b5 09 3f
        E 22 b5 09 3f
        E 22 b5 09 3f
        E 22 b5 09 3f
        E 22 b5 09 3f
        E 22 b5 09 3f
        E 22 b5 09 3f
        E 22 b5 09 3f
        E 22 b5 09 3f
        E 22 b5 09 3f
        E 22 b5 09 3f
        E 22 b5 09 3f
        E 22 b5 09 3f
        E 22 b5 09 3f
        E 22 b5 09 3f
        E 22 b5 09 3f
        E 22 b5 09 3f
        E 22 b5 09 00
        E 22 b5 09 00
        E 22 b5 09 00
        E 22 b5 09 00
        E 22 b5 09 00
        E 22 b5 09 00
        E 22 b5 09 00
        E 22 b5 09 00
        E 22 b5 09 00
        E 22 b5 09 00
        E 22 b5 09 00
        E 22 b5 09 00
        E 22 b5 09 00
        E 22 b5 09 00
        E 22 b5 09 00
        E 22 b5 09 00
        E 22 b5 09 00
        E 22 b5 09 00
        E 22 b5 09 00
        E 22 b5 09 00
        E 22 b5 09 00
        E 22 b5 09 00
        E 22 b5 09 00
        E 22 b5 09 00
        E 22 b5 09 00
        E 22 b5 09 00
        E 22 b5 09 00
        E 22 b5 09 00
        E 22 b5 09 00
        E 22 b5 09 00
        E 22 b5 09 00
        E 22 b5 09 00
        E 22 b5 09 00
        E 22 b5 09 00
        E 22 b5 09 00
        E 22 b5 09 00
        E 22 b5 09 00
        E 22 b5 09 00
        E 22 b5 09 00
        E 22 b5 09 00
        E 22 b5 09 00
        E 22 b5 09 00
        E 22 b5 09 00
        E 22 b5 09 00
        E 22 b5 09 00
        E 22 b5 09 00
        E 22 b5 09 00
        E 22 b5 09 00
        E 22 b5 09 00
        E 22 b5 09 00
        E 22 b5 09 00
        E 22 b5 09 00
        E 22 b5 09 00
        E 22 b5 09 00
        E 22 b5 09 00
        E 22 b5 09 00
        E 22 b5 09 00
        E 22 b5 09 00
        E 22 b5 09 00
        E 22 b5 09 00
        E 22 b5 09 00
        E 22 b5 09 00
        E 22 b5 09 00
        E 22 b5 09 00
        E 45 b5 09 58
        E 45 b5 09 58
        E 45 b5 09 58
        E 45 b5 09 58
        E 45 b5 09 58
        E 45 b5 09 58
        E 45 b5 09 58
        E 45 b5 09 58
        E 45 b5 09 58
        E 45 b5 09 58
        E 45 b5 09 58
        E 45 b5 09 58
        E 45 b5 09 58
        E 45 b5 09 58
        E 45 b5 09 58
        E 45 b5 09 58
        E 45 b5 09 58
        E 45 b5 09 58
        E 45 b5 09 58
        E 45 b5 09 58
        E 45 b5 09 58
        E 45 b5 09 58
        E 45 b5 09 58
        E 45 b5 09 58
        E 45 b5 09 58
        E 45 b5 09 58
        E 45 b5 09 58
        E 45 b5 09 58
        E 45 b5 09 58
        E 45 b5 09 58
        E 45 b5 09 58
        E 45 b5 09 58
        E 45 b5 09 58
        E 45 b5 09 58
        E 45 b5 09 58
        E 45 b5 09 58
        E 45 b5 09 58
        E 45 b5 09 58
        E 45 b5 09 58
        E 45 b5 09 58
        E 45 b5 09 58
        E 45 b5 09 58
        E 45 b5 09 58
        E 45 b5 09 58
        E 45 b5 09 58
        E 45 b5 09 58
        E 45 b5 09 58
        E 45 b5 09 58
        E 45 b5 09 58
        E 45 b5 09 58
        E 45 b5 09 58
        E 45 b5 09 58
        E 45 b5 09 58
        E 45 b5 09 58
        E 45 b5 09 58
        E 45 b5 09 58
        E 45 b5 09 58
        E 45 b5 09 58
        E 45 b5 09 58
        E 45 b5 09 58
        E 45 b5 09 58
        E 45 b5 09 58
        E 45 b5 09 58
        E 45 b5 09 00
        E 45 b5 09 00
        E 45 b5 09 00
        E 45 b5 09 00
        E 45 b5 09 00
        E 45 b5 09 00
        E 45 b5 09 00
        E 45 b5 09 00
        E 45 b5 09 00
        E 45 b5 09 00
        E 45 b5 09 00
        E 45 b5 09 00
        E 45 b5 09 00
        E 45 b5 09 00
        E 45 b5 09 00
        E 45 b5 09 00
        E 45 b5 09 00
        E 45 b5 09 00
        E 45 b5 09 00
        E 45 b5 09 00
        E 45 b5 09 00
        E 45 b5 09 00
        E 45 b5 09 00
        E 45 b5 09 00
        E 45 b5 09 00
        E 45 b5 09 00
        E 45 b5 09 00
        E 45 b5 09 00
        E 45 b5 09 00
        E 45 b5 09 00
        E 45 b5 09 00
        E 45 b5 09 00
        E 45 b5 09 00
        E 45 b5 09 00
        E 45 b5 09 00
        E 45 b5 09 00
        E 45 b5 09 00
        E 45 b5 09 00
        E 45 b5 09 00
        E 45 b5 09 00
        E 45 b5 09 00
        E 45 b5 09 00
        E 45 b5 09 00
        E 45 b5 09 00
        E 45 b5 09 00
        E 45 b5 09 00
        E 45 b5 09 00
        E 45 b5 09 00
        E 45 b5 09 00
        E 45 b5 09 00
        E 45 b5 09 00
        E 45 b5 09 00
        E 45 b5 09 00
        E 45 b5 09 00
        E 45 b5 09 00
        E 45 b5 09 00
        E 45 b5 09 00
        E 45 b5 09 00
        E 45 b5 09 00
        E 45 b5 09 00
        E 45 b5 09 00
        E 45 b5 09 00
        E 45 b5 09 00
        E 45 b5 09 00
        E 40 b5 09 65
        E 40 b5 09 65
        E 40 b5 09 65
        E 40 b5 09 65
        E 40 b5 09 65
        E 40 b5 09 65
        E 40 b5 09 65
        E 40 b5 09 65
        E 40 b5 09 65
        E 40 b5 09 65
        E 40 b5 09 65
        E 40 b5 09 65
        E 40 b5 09 65
        E 40 b5 09 65
        E 40 b5 09 65
        E 40 b5 09 65
        E 40 b5 09 65
        E 40 b5 09 65
        E 40 b5 09 65
        E 40 b5 09 65
        E 40 b5 09 65
        E 40 b5 09 65
        E 40 b5 09 65
        E 40 b5 09 65
        E 40 b5 09 65
        E 40 b5 09 65
        E 40 b5 09 65
        E 40 b5 09 65
        E 40 b5 09 65
        E 40 b5 09 65
        E 40 b5 09 65
        E 40 b5 09 65
        E 40 b5 09 65
        E 40 b5 09 65
        E 40 b5 09 65
        E 40 b5 09 65
        E 40 b5 09 65
        E 40 b5 09 65
        E 40 b5 09 65
        E 40 b5 09 65
        E 40 b5 09 65
        E 40 b5 09 65
        E 40 b5 09 65
        E 40 b5 09 65
        E 40 b5 09 65
        E 40 b5 09 65
        E 40 b5 09 65
        E 40 b5 09 65
        E 40 b5 09 65
        E 40 b5 09 65
        E 40 b5 09 65
        E 40 b5 09 65
        E 40 b5 09 65
        E 40 b5 09 65
        E 40 b5 09 65
        E 40 b5 09 65
        E 40 b5 09 65
        E 40 b5 09 65
        E 40 b5 09 65
        E 40 b5 09 65
        E 40 b5 09 65
        E 40 b5 09 65
        E 40 b5 09 65
        E 40 b5 09 00
        E 40 b5 09 00
        E 40 b5 09 00
        E 40 b5 09 00
        E 40 b5 09 00
        E 40 b5 09 00
        E 40 b5 09 00
        E 40 b5 09 00
        E 40 b5 09 00
        E 40 b5 09 00
        E 40 b5 09 00
        E 40 b5 09 00
        E 40 b5 09 00
        E 40 b5 09 00
        E 40 b5 09 00
        E 40 b5 09 00
        E 40 b5 09 00
        E 40 b5 09 00
        E 40 b5 09 00
        E 40 b5 09 00
        E 40 b5 09 00
        E 40 b5 09 00
        E 40 b5 09 00
        E 40 b5 09 00
        E 40 b5 09 00
        E 40 b5 09 00
        E 40 b5 09 00
        E 40 b5 09 00
        E 40 b5 09 00
        E 40 b5 09 00
        E 40 b5 09 00
        E 40 b5 09 00
        E 40 b5 09 00
        E 40 b5 09 00
        E 40 b5 09 00
        E 40 b5 09 00
        E 40 b5 09 00
        E 40 b5 09 00
        E 40 b5 09 00
        E 40 b5 09 00
        E 40 b5 09 00
        E 40 b5 09 00
        E 40 b5 09 00
        E 40 b5 09 00
        E 40 b5 09 00
        E 40 b5 09 00
        E 40 b5 09 00
        E 40 b5 09 00
        E 40 b5 09 00
        E 40 b5 09 00
        E 40 b5 09 00
        E 40 b5 09 00
        E 40 b5 09 00
        E 40 b5 09 00
        E 40 b5 09 00
        E 40 b5 09 00
        E 40 b5 09 00
        E 40 b5 09 00
        E 40 b5 09 00
        E 40 b5 09 00
        E 40 b5 09 00
        E 40 b5 09 00
        E 40 b5 09 00
        E 40 b5 09 00
        E 45 b5 09 0c
        E 45 b5 09 0c
        E 45 b5 09 0c
        E 45 b5 09 0c
        E 45 b5 09 0c
        E 45 b5 09 0c
        E 45 b5 09 0c
        E 45 b5 09 0c
        E 45 b5 09 0c
        E 45 b5 09 0c
        E 45 b5 09 0c
        E 45 b5 09 0c
        E 45 b5 09 0c
        E 45 b5 09 0c
        E 45 b5 09 0c
        E 45 b5 09 0c
        E 45 b5 09 0c
        E 45 b5 09 0c
        E 45 b5 09 0c
        E 45 b5 09 0c
        E 45 b5 09 0c
        E 45 b5 09 0c
        E 45 b5 09 0c
        E 45 b5 09 0c
        E 45 b5 09 0c
        E 45 b5 09 0c
        E 45 b5 09 0c
        E 45 b5 09 0c
        E 45 b5 09 0c
        E 45 b5 09 0c
        E 45 b5 09 0c
        E 45 b5 09 0c
        E 45 b5 09 0c
        E 45 b5 09 0c
        E 45 b5 09 0c
        E 45 b5 09 0c
        E 45 b5 09 0c
        E 45 b5 09 0c
        E 45 b5 09 0c
        E 45 b5 09 0c
        E 45 b5 09 0c
        E 45 b5 09 0c
        E 45 b5 09 0c
        E 45 b5 09 0c
        E 45 b5 09 0c
        E 45 b5 09 0c
        E 45 b5 09 0c
        E 45 b5 09 0c
        E 45 b5 09 0c
        E 45 b5 09 0c
        E 45 b5 09 0c
        E 45 b5 09 0c
        E 45 b5 09 0c
        E 45 b5 09 0c
        E 45 b5 09 0c
        E 45 b5 09 0c
        E 45 b5 09 0c
        E 45 b5 09 0c
        E 45 b5 09 0c
        E 45 b5 09 0c
        E 45 b5 09 0c
        E 45 b5 09 0c
        E 45 b5 09 0c
        E 45 b5 09 00
        E 45 b5 09 00
        E 45 b5 09 00
        E 45 b5 09 00
        E 45 b5 09 00
        E 45 b5 09 00
        E 45 b5 09 00
        E 45 b5 09 00
        E 45 b5 09 00
        E 45 b5 09 00
        E 45 b5 09 00
        E 45 b5 09 00
        E 45 b5 09 00
        E 45 b5 09 00
        E 45 b5 09 00
        E 45 b5 09 00
        E 45 b5 09 00
        E 45 b5 09 00
        E 45 b5 09 00
        E 45 b5 09 00
        E 45 b5 09 00
        E 45 b5 09 00
        E 45 b5 09 00
        E 45 b5 09 00
        E 45 b5 09 00
        E 45 b5 09 00
        E 45 b5 09 00
        E 45 b5 09 00
        E 45 b5 09 00
        E 45 b5 09 00
        E 45 b5 09 00
        E 45 b5 09 00
        E 45 b5 09 00
        E 45 b5 09 00
        E 45 b5 09 00
        E 45 b5 09 00
        E 45 b5 09 00
        E 45 b5 09 00
        E 45 b5 09 00
        E 45 b5 09 00
        E 45 b5 09 00
        E 45 b5 09 00
        E 45 b5 09 00
        E 45 b5 09 00
        E 45 b5 09 00
        E 45 b5 09 00
        E 45 b5 09 00
        E 45 b5 09 00
        E 45 b5 09 00
        E 45 b5 09 00
        E 45 b5 09 00
        E 45 b5 09 00
        E 45 b5 09 00
        E 45 b5 09 00
        E 45 b5 09 00
        E 45 b5 09 00
        E 45 b5 09 00
        E 45 b5 09 00
        E 45 b5 09 00
        E 45 b5 09 00
        E 45 b5 09 00
        E 45 b5 09 00
        E 45 b5 09 00
        E 45 b5 09 00
        E 40 b5 09 32
        E 40 b5 09 32
        E 40 b5 09 32
        E 40 b5 09 32
        E 40 b5 09 32
        E 40 b5 09 32
        E 40 b5 09 32
        E 40 b5 09 32
        E 40 b5 09 32
        E 40 b5 09 32
        E 40 b5 09 32
        E 40 b5 09 32
        E 40 b5 09 32
        E 40 b5 09 32
        E 40 b5 09 32
        E 40 b5 09 32
        E 40 b5 09 32
        E 40 b5 09 32
        E 40 b5 09 32
        E 40 b5 09 32
        E 40 b5 09 32
        E 40 b5 09 32
        E 40 b5 09 32
        E 40 b5 09 32
        E 40 b5 09 32
        E 40 b5 09 32
        E 40 b5 09 32
        E 40 b5 09 32
        E 40 b5 09 32
        E 40 b5 09 32
        E 40 b5 09 32
        E 40 b5 09 32
        E 40 b5 09 32
        E 40 b5 09 32
        E 40 b5 09 32
        E 40 b5 09 32
        E 40 b5 09 32
        E 40 b5 09 32
        E 40 b5 09 32
        E 40 b5 09 32
        E 40 b5 09 32
        E 40 b5 09 32
        E 40 b5 09 32
        E 40 b5 09 32
        E 40 b5 09 32
        E 40 b5 09 32
        E 40 b5 09 32
        E 40 b5 09 32
        E 40 b5 09 32
        E 40 b5 09 32
        E 40 b5 09 32
        E 40 b5 09 32
        E 40 b5 09 32
        E 40 b5 09 32
        E 40 b5 09 32
        E 40 b5 09 32
        E 40 b5 09 32
        E 40 b5 09 32
        E 40 b5 09 32
        E 40 b5 09 32
        E 40 b5 09 32
        E 40 b5 09 32
        E 40 b5 09 32
        E 40 b5 09 00
        E 40 b5 09 00
        E 40 b5 09 00
        E 40 b5 09 00
        E 40 b5 09 00
        E 40 b5 09 00
        E 40 b5 09 00
        E 40 b5 09 00
        E 40 b5 09 00
        E 40 b5 09 00
        E 40 b5 09 00
        E 40 b5 09 00
        E 40 b5 09 00
        E 40 b5 09 00
        E 40 b5 09 00
        E 40 b5 09 00
        E 40 b5 09 00
        E 40 b5 09 00
        E 40 b5 09 00
        E 40 b5 09 00
        E 40 b5 09 00
        E 40 b5 09 00
        E 40 b5 09 00
        E 40 b5 09 00
        E 40 b5 09 00
        E 40 b5 09 00
        E 40 b5 09 00
        E 40 b5 09 00
        E 40 b5 09 00
        E 40 b5 09 00
        E 40 b5 09 00
        E 40 b5 09 00
        E 40 b5 09 00
        E 40 b5 09 00
        E 40 b5 09 00
        E 40 b5 09 00
        E 40 b5 09 00
        E 40 b5 09 00
        E 40 b5 09 00
        E 40 b5 09 00
        E 40 b5 09 00
        E 40 b5 09 00
        E 40 b5 09 00
        E 40 b5 09 00
        E 40 b5 09 00
        E 40 b5 09 00
        E 40 b5 09 00
        E 40 b5 09 00
        E 40 b5 09 00
        E 40 b5 09 00
        E 40 b5 09 00
        E 40 b5 09 00
        E 40 b5 09 00
        E 40 b5 09 00
        E 40 b5 09 00
        E 40 b5 09 00
        E 40 b5 09 00
        E 40 b5 09 00
        E 40 b5 09 00
        E 40 b5 09 00
        E 40 b5 09 00
        E 40 b5 09 00
        E 40 b5 09 00
        E 40 b5 09 00
        E 106 b0 7b 00
        CCINTERP 32
        CHASE_CC_TAKEOFFS 1
        GUID {1AFE9590-9EC0-D34B-9740-379F861B97E7}
        IGNTEMPO 0 120 4 4
        SRCCOLOR 178
        VELLANE 3 601 0
        VELLANE -1 196 0
      >
    >
  >
  <TRACK {8539734C-762A-A442-BC9C-704E5255FB05}
    NAME "insects of the los angeles basin"
    PEAKCOL 16576
    BEAT -1
    AUTOMODE 0
    VOLPAN 1 0 -1 -1 1
    MUTESOLO 0 0 0
    IPHASE 0
    PLAYOFFS 0 1
    ISBUS 0 0
    BUSCOMP 0 0 0 0 0
    SHOWINMIX 1 0.6667 0.5 1 0.5 0 -1 0
    FREEMODE 0
    SEL 0
    REC 0 0 1 0 0 0 0
    VU 2
    TRACKHEIGHT 0 1 0 0 -1 0
    INQ 0 0 0 0.5 100 0 0 100
    NCHAN 2
    FX 1
    TRACKID {8539734C-762A-A442-BC9C-704E5255FB05}
    PERF 0
    MIDIOUT -1
    MAINSEND 1 0
    <ITEM
      POSITION 0
      SNAPOFFS 0
      LENGTH 1394.086608
      LOOP 1
      ALLTAKES 0
      FADEIN 1 0 0 1 0 0
      FADEOUT 1 0 0 1 0 0
      MUTE 0 0
      SEL 0
      IGUID {2C3D2F5F-B984-D44D-A31B-A83752A2C55D}
      IID 20
      NAME "insects of the los angeles basin.mid"
      VOLPAN 1 0 1 -1
      SOFFS 0 0
      PLAYRATE 1 1 0 -1 0 0.0025
      CHANMODE 0
      GUID {4F91B625-8F51-1847-A213-8CCC6B5CFB07}
      <SOURCE MIDI
        HASDATA 1 128 QN
        CCINTERP 32
        POOLEDEVTS {3D7594B7-304E-2545-984F-3A706AAFD45C}
        E 45 b6 07 2c
        E 45 b6 07 2e
        E 45 b6 07 31
        E 45 b6 07 33
        E 45 b6 07 35
        E 45 b6 07 37
        E 45 b6 07 39
        E 45 b6 07 3b
        E 45 b6 07 3d
        E 45 b6 07 3f
        E 45 b6 07 41
        E 45 b6 07 43
        E 45 b6 07 45
        E 45 b6 07 47
        E 45 b6 07 48
        E 45 b6 07 4a
        E 45 b6 07 4c
        E 45 b6 07 4d
        E 45 b6 07 4f
        E 45 b6 07 50
        E 45 b6 07 51
        E 45 b6 07 52
        E 45 b6 07 54
        E 45 b6 07 54
        E 45 b6 07 55
        E 45 b6 07 56
        E 45 b6 07 56
        E 45 b6 07 57
        E 45 b6 07 58
        E 45 b6 07 58
        E 45 b6 07 58
        E 45 b6 07 58
        E 45 b6 07 58
        E 45 b6 07 58
        E 45 b6 07 58
        E 45 b6 07 58
        E 45 b6 07 58
        E 45 b6 07 57
        E 45 b6 07 56
        E 45 b6 07 56
        E 45 b6 07 55
        E 45 b6 07 54
        E 45 b6 07 53
        E 45 b6 07 51
        E 45 b6 07 51
        E 45 b6 07 4f
        E 45 b6 07 4e
        E 45 b6 07 4d
        E 45 b6 07 4b
        E 45 b6 07 49
        E 45 b6 07 48
        E 45 b6 07 46
        E 45 b6 07 44
        E 45 b6 07 42
        E 45 b6 07 40
        E 45 b6 07 3e
        E 45 b6 07 3c
        E 45 b6 07 3a
        E 45 b6 07 38
        E 45 b6 07 36
        E 45 b6 07 33
        E 45 b6 07 31
        E 45 b6 07 2f
        E 45 b6 07 2d
        E 45 b6 07 2b
        E 45 b6 07 29
        E 45 b6 07 27
        E 45 b6 07 25
        E 45 b6 07 22
        E 45 b6 07 20
        E 45 b6 07 1e
        E 45 b6 07 1c
        E 45 b6 07 1a
        E 45 b6 07 18
        E 45 b6 07 16
        E 45 b6 07 14
        E 45 b6 07 12
        E 45 b6 07 10
        E 45 b6 07 0f
        E 45 b6 07 0d
        E 45 b6 07 0b
        E 45 b6 07 0a
        E 45 b6 07 09
        E 45 b6 07 07
        E 45 b6 07 07
        E 45 b6 07 05
        E 45 b6 07 04
        E 45 b6 07 03
        E 45 b6 07 02
        E 45 b6 07 02
        E 45 b6 07 01
        E 45 b6 07 00
        E 45 b6 07 00
        E 45 b6 07 00
        E 45 b6 07 00
        E 45 b6 07 00
        E 45 b6 07 00
        E 45 b6 07 00
        E 45 b6 07 00
        E 45 b6 07 00
        E 45 b6 07 01
        E 45 b6 07 02
        E 45 b6 07 02
        E 45 b6 07 03
        E 45 b6 07 04
        E 45 b6 07 04
        E 45 b6 07 06
        E 45 b6 07 07
        E 45 b6 07 08
        E 45 b6 07 09
        E 45 b6 07 0b
        E 45 b6 07 0c
        E 45 b6 07 0e
        E 45 b6 07 10
        E 45 b6 07 11
        E 45 b6 07 13
        E 45 b6 07 15
        E 45 b6 07 17
        E 45 b6 07 19
        E 45 b6 07 1b
        E 45 b6 07 1d
        E 45 b6 07 1f
        E 45 b6 07 21
        E 45 b6 07 23
        E 45 b6 07 25
        E 45 b6 07 27
        E 45 b6 07 2a
        E 45 b6 07 2c
        E 40 b6 07 33
        E 40 b6 07 35
        E 40 b6 07 37
        E 40 b6 07 3a
        E 40 b6 07 3c
        E 40 b6 07 3f
        E 40 b6 07 41
        E 40 b6 07 44
        E 40 b6 07 46
        E 40 b6 07 48
        E 40 b6 07 4b
        E 40 b6 07 4c
        E 40 b6 07 4f
        E 40 b6 07 51
        E 40 b6 07 53
        E 40 b6 07 54
        E 40 b6 07 57
        E 40 b6 07 58
        E 40 b6 07 5a
        E 40 b6 07 5b
        E 40 b6 07 5d
        E 40 b6 07 5e
        E 40 b6 07 5f
        E 40 b6 07 60
        E 40 b6 07 61
        E 40 b6 07 62
        E 40 b6 07 63
        E 40 b6 07 63
        E 40 b6 07 64
        E 40 b6 07 64
        E 40 b6 07 65
        E 40 b6 07 65
        E 40 b6 07 65
        E 40 b6 07 65
        E 40 b6 07 65
        E 40 b6 07 64
        E 40 b6 07 64
        E 40 b6 07 63
        E 40 b6 07 63
        E 40 b6 07 62
        E 40 b6 07 61
        E 40 b6 07 5f
        E 40 b6 07 5f
        E 40 b6 07 5d
        E 40 b6 07 5c
        E 40 b6 07 5b
        E 40 b6 07 59
        E 40 b6 07 57
        E 40 b6 07 56
        E 40 b6 07 54
        E 40 b6 07 52
        E 40 b6 07 50
        E 40 b6 07 4e
        E 40 b6 07 4c
        E 40 b6 07 49
        E 40 b6 07 47
        E 40 b6 07 45
        E 40 b6 07 43
        E 40 b6 07 40
        E 40 b6 07 3e
        E 40 b6 07 3b
        E 40 b6 07 38
        E 40 b6 07 36
        E 40 b6 07 33
        E 40 b6 07 31
        E 40 b6 07 2f
        E 40 b6 07 2c
        E 40 b6 07 2a
        E 40 b6 07 27
        E 40 b6 07 24
        E 40 b6 07 22
        E 40 b6 07 1f
        E 40 b6 07 1e
        E 40 b6 07 1b
        E 40 b6 07 19
        E 40 b6 07 17
        E 40 b6 07 15
        E 40 b6 07 13
        E 40 b6 07 11
        E 40 b6 07 0f
        E 40 b6 07 0d
        E 40 b6 07 0b
        E 40 b6 07 0a
        E 40 b6 07 08
        E 40 b6 07 07
        E 40 b6 07 06
        E 40 b6 07 05
        E 40 b6 07 03
        E 40 b6 07 03
        E 40 b6 07 02
        E 40 b6 07 01
        E 40 b6 07 00
        E 40 b6 07 00
        E 40 b6 07 00
        E 40 b6 07 00
        E 40 b6 07 00
        E 40 b6 07 00
        E 40 b6 07 00
        E 40 b6 07 00
        E 40 b6 07 00
        E 40 b6 07 01
        E 40 b6 07 02
        E 40 b6 07 03
        E 40 b6 07 03
        E 40 b6 07 04
        E 40 b6 07 05
        E 40 b6 07 07
        E 40 b6 07 07
        E 40 b6 07 09
        E 40 b6 07 0b
        E 40 b6 07 0c
        E 40 b6 07 0e
        E 40 b6 07 10
        E 40 b6 07 12
        E 40 b6 07 14
        E 40 b6 07 16
        E 40 b6 07 18
        E 40 b6 07 1a
        E 40 b6 07 1c
        E 40 b6 07 1f
        E 40 b6 07 21
        E 40 b6 07 24
        E 40 b6 07 26
        E 40 b6 07 28
        E 40 b6 07 2b
        E 40 b6 07 2d
        E 40 b6 07 2f
        E 40 b6 07 33
        E 45 b6 07 06
        E 45 b6 07 06
        E 45 b6 07 07
        E 45 b6 07 07
        E 45 b6 07 07
        E 45 b6 07 07
        E 45 b6 07 08
        E 45 b6 07 08
        E 45 b6 07 08
        E 45 b6 07 09
        E 45 b6 07 09
        E 45 b6 07 09
        E 45 b6 07 09
        E 45 b6 07 0a
        E 45 b6 07 0a
        E 45 b6 07 0a
        E 45 b6 07 0a
        E 45 b6 07 0b
        E 45 b6 07 0b
        E 45 b6 07 0b
        E 45 b6 07 0b
        E 45 b6 07 0b
        E 45 b6 07 0c
        E 45 b6 07 0c
        E 45 b6 07 0c
        E 45 b6 07 0c
        E 45 b6 07 0c
        E 45 b6 07 0c
        E 45 b6 07 0c
        E 45 b6 07 0c
        E 45 b6 07 0c
        E 45 b6 07 0c
        E 45 b6 07 0c
        E 45 b6 07 0c
        E 45 b6 07 0c
        E 45 b6 07 0c
        E 45 b6 07 0c
        E 45 b6 07 0c
        E 45 b6 07 0c
        E 45 b6 07 0c
        E 45 b6 07 0c
        E 45 b6 07 0c
        E 45 b6 07 0b
        E 45 b6 07 0b
        E 45 b6 07 0b
        E 45 b6 07 0b
        E 45 b6 07 0b
        E 45 b6 07 0b
        E 45 b6 07 0a
        E 45 b6 07 0a
        E 45 b6 07 0a
        E 45 b6 07 0a
        E 45 b6 07 09
        E 45 b6 07 09
        E 45 b6 07 09
        E 45 b6 07 08
        E 45 b6 07 08
        E 45 b6 07 08
        E 45 b6 07 08
        E 45 b6 07 07
        E 45 b6 07 07
        E 45 b6 07 07
        E 45 b6 07 06
        E 45 b6 07 06
        E 45 b6 07 06
        E 45 b6 07 05
        E 45 b6 07 05
        E 45 b6 07 05
        E 45 b6 07 04
        E 45 b6 07 04
        E 45 b6 07 04
        E 45 b6 07 04
        E 45 b6 07 03
        E 45 b6 07 03
        E 45 b6 07 03
        E 45 b6 07 02
        E 45 b6 07 02
        E 45 b6 07 02
        E 45 b6 07 02
        E 45 b6 07 01
        E 45 b6 07 01
        E 45 b6 07 01
        E 45 b6 07 01
        E 45 b6 07 01
        E 45 b6 07 01
        E 45 b6 07 00
        E 45 b6 07 00
        E 45 b6 07 00
        E 45 b6 07 00
        E 45 b6 07 00
        E 45 b6 07 00
        E 45 b6 07 00
        E 45 b6 07 00
        E 45 b6 07 00
        E 45 b6 07 00
        E 45 b6 07 00
        E 45 b6 07 00
        E 45 b6 07 00
        E 45 b6 07 00
        E 45 b6 07 00
        E 45 b6 07 00
        E 45 b6 07 00
        E 45 b6 07 00
        E 45 b6 07 00
        E 45 b6 07 00
        E 45 b6 07 00
        E 45 b6 07 00
        E 45 b6 07 01
        E 45 b6 07 01
        E 45 b6 07 01
        E 45 b6 07 01
        E 45 b6 07 01
        E 45 b6 07 02
        E 45 b6 07 02
        E 45 b6 07 02
        E 45 b6 07 02
        E 45 b6 07 03
        E 45 b6 07 03
        E 45 b6 07 03
        E 45 b6 07 03
        E 45 b6 07 04
        E 45 b6 07 04
        E 45 b6 07 04
        E 45 b6 07 05
        E 45 b6 07 05
        E 45 b6 07 05
        E 45 b6 07 06
        E 45 b6 07 06
        E 40 b6 07 19
        E 40 b6 07 1a
        E 40 b6 07 1c
        E 40 b6 07 1d
        E 40 b6 07 1e
        E 40 b6 07 1f
        E 40 b6 07 20
        E 40 b6 07 22
        E 40 b6 07 23
        E 40 b6 07 24
        E 40 b6 07 25
        E 40 b6 07 26
        E 40 b6 07 27
        E 40 b6 07 28
        E 40 b6 07 29
        E 40 b6 07 2a
        E 40 b6 07 2b
        E 40 b6 07 2c
        E 40 b6 07 2d
        E 40 b6 07 2e
        E 40 b6 07 2e
        E 40 b6 07 2f
        E 40 b6 07 30
        E 40 b6 07 30
        E 40 b6 07 30
        E 40 b6 07 31
        E 40 b6 07 31
        E 40 b6 07 32
        E 40 b6 07 32
        E 40 b6 07 32
        E 40 b6 07 32
        E 40 b6 07 32
        E 40 b6 07 32
        E 40 b6 07 32
        E 40 b6 07 32
        E 40 b6 07 32
        E 40 b6 07 32
        E 40 b6 07 32
        E 40 b6 07 31
        E 40 b6 07 31
        E 40 b6 07 30
        E 40 b6 07 30
        E 40 b6 07 2f
        E 40 b6 07 2e
        E 40 b6 07 2e
        E 40 b6 07 2d
        E 40 b6 07 2c
        E 40 b6 07 2c
        E 40 b6 07 2b
        E 40 b6 07 2a
        E 40 b6 07 29
        E 40 b6 07 28
        E 40 b6 07 27
        E 40 b6 07 26
        E 40 b6 07 24
        E 40 b6 07 23
        E 40 b6 07 22
        E 40 b6 07 21
        E 40 b6 07 20
        E 40 b6 07 1f
        E 40 b6 07 1d
        E 40 b6 07 1c
        E 40 b6 07 1b
        E 40 b6 07 1a
        E 40 b6 07 18
        E 40 b6 07 17
        E 40 b6 07 16
        E 40 b6 07 15
        E 40 b6 07 13
        E 40 b6 07 12
        E 40 b6 07 11
        E 40 b6 07 10
        E 40 b6 07 0f
        E 40 b6 07 0e
        E 40 b6 07 0c
        E 40 b6 07 0b
        E 40 b6 07 0a
        E 40 b6 07 09
        E 40 b6 07 08
        E 40 b6 07 07
        E 40 b6 07 06
        E 40 b6 07 06
        E 40 b6 07 05
        E 40 b6 07 04
        E 40 b6 07 04
        E 40 b6 07 03
        E 40 b6 07 02
        E 40 b6 07 02
        E 40 b6 07 01
        E 40 b6 07 01
        E 40 b6 07 00
        E 40 b6 07 00
        E 40 b6 07 00
        E 40 b6 07 00
        E 40 b6 07 00
        E 40 b6 07 00
        E 40 b6 07 00
        E 40 b6 07 00
        E 40 b6 07 00
        E 40 b6 07 00
        E 40 b6 07 00
        E 40 b6 07 01
        E 40 b6 07 01
        E 40 b6 07 02
        E 40 b6 07 02
        E 40 b6 07 02
        E 40 b6 07 03
        E 40 b6 07 04
        E 40 b6 07 04
        E 40 b6 07 05
        E 40 b6 07 06
        E 40 b6 07 07
        E 40 b6 07 08
        E 40 b6 07 09
        E 40 b6 07 0a
        E 40 b6 07 0b
        E 40 b6 07 0c
        E 40 b6 07 0d
        E 40 b6 07 0e
        E 40 b6 07 0f
        E 40 b6 07 10
        E 40 b6 07 12
        E 40 b6 07 13
        E 40 b6 07 14
        E 40 b6 07 15
        E 40 b6 07 16
        E 40 b6 07 18
        E 40 b6 07 19
        E 22 b6 07 2c
        E 22 b6 07 2e
        E 22 b6 07 31
        E 22 b6 07 33
        E 22 b6 07 35
        E 22 b6 07 37
        E 22 b6 07 39
        E 22 b6 07 3b
        E 22 b6 07 3d
        E 22 b6 07 3f
        E 22 b6 07 41
        E 22 b6 07 43
        E 22 b6 07 45
        E 22 b6 07 47
        E 22 b6 07 48
        E 22 b6 07 4a
        E 22 b6 07 4c
        E 22 b6 07 4d
        E 22 b6 07 4f
        E 22 b6 07 50
        E 22 b6 07 51
        E 22 b6 07 52
        E 22 b6 07 54
        E 22 b6 07 54
        E 22 b6 07 55
        E 22 b6 07 56
        E 22 b6 07 56
        E 22 b6 07 57
        E 22 b6 07 58
        E 22 b6 07 58
        E 22 b6 07 58
        E 22 b6 07 58
        E 22 b6 07 58
        E 22 b6 07 58
        E 22 b6 07 58
        E 22 b6 07 58
        E 22 b6 07 58
        E 22 b6 07 57
        E 22 b6 07 56
        E 22 b6 07 56
        E 22 b6 07 55
        E 22 b6 07 54
        E 22 b6 07 53
        E 22 b6 07 51
        E 22 b6 07 51
        E 22 b6 07 4f
        E 22 b6 07 4e
        E 22 b6 07 4d
        E 22 b6 07 4b
        E 22 b6 07 49
        E 22 b6 07 48
        E 22 b6 07 46
        E 22 b6 07 44
        E 22 b6 07 42
        E 22 b6 07 40
        E 22 b6 07 3e
        E 22 b6 07 3c
        E 22 b6 07 3a
        E 22 b6 07 38
        E 22 b6 07 36
        E 22 b6 07 33
        E 22 b6 07 31
        E 22 b6 07 2f
        E 22 b6 07 2d
        E 22 b6 07 2b
        E 22 b6 07 29
        E 22 b6 07 27
        E 22 b6 07 25
        E 22 b6 07 22
        E 22 b6 07 20
        E 22 b6 07 1e
        E 22 b6 07 1c
        E 22 b6 07 1a
        E 22 b6 07 18
        E 22 b6 07 16
        E 22 b6 07 14
        E 22 b6 07 12
        E 22 b6 07 10
        E 22 b6 07 0f
        E 22 b6 07 0d
        E 22 b6 07 0b
        E 22 b6 07 0a
        E 22 b6 07 09
        E 22 b6 07 07
        E 22 b6 07 07
        E 22 b6 07 05
        E 22 b6 07 04
        E 22 b6 07 03
        E 22 b6 07 02
        E 22 b6 07 02
        E 22 b6 07 01
        E 22 b6 07 00
        E 22 b6 07 00
        E 22 b6 07 00
        E 22 b6 07 00
        E 22 b6 07 00
        E 22 b6 07 00
        E 22 b6 07 00
        E 22 b6 07 00
        E 22 b6 07 00
        E 22 b6 07 01
        E 22 b6 07 02
        E 22 b6 07 02
        E 22 b6 07 03
        E 22 b6 07 04
        E 22 b6 07 04
        E 22 b6 07 06
        E 22 b6 07 07
        E 22 b6 07 08
        E 22 b6 07 09
        E 22 b6 07 0b
        E 22 b6 07 0c
        E 22 b6 07 0e
        E 22 b6 07 10
        E 22 b6 07 11
        E 22 b6 07 13
        E 22 b6 07 15
        E 22 b6 07 17
        E 22 b6 07 19
        E 22 b6 07 1b
        E 22 b6 07 1d
        E 22 b6 07 1f
        E 22 b6 07 21
        E 22 b6 07 23
        E 22 b6 07 25
        E 22 b6 07 27
        E 22 b6 07 2a
        E 22 b6 07 2c
        E 22 b6 07 20
        E 22 b6 07 21
        E 22 b6 07 23
        E 22 b6 07 24
        E 22 b6 07 26
        E 22 b6 07 27
        E 22 b6 07 29
        E 22 b6 07 2a
        E 22 b6 07 2c
        E 22 b6 07 2d
        E 22 b6 07 2f
        E 22 b6 07 30
        E 22 b6 07 31
        E 22 b6 07 33
        E 22 b6 07 34
        E 22 b6 07 35
        E 22 b6 07 36
        E 22 b6 07 37
        E 22 b6 07 38
        E 22 b6 07 39
        E 22 b6 07 3a
        E 22 b6 07 3b
        E 22 b6 07 3c
        E 22 b6 07 3c
        E 22 b6 07 3d
        E 22 b6 07 3d
        E 22 b6 07 3e
        E 22 b6 07 3e
        E 22 b6 07 3f
        E 22 b6 07 3f
        E 22 b6 07 3f
        E 22 b6 07 3f
        E 22 b6 07 3f
        E 22 b6 07 3f
        E 22 b6 07 3f
        E 22 b6 07 3f
        E 22 b6 07 3f
        E 22 b6 07 3e
        E 22 b6 07 3e
        E 22 b6 07 3d
        E 22 b6 07 3d
        E 22 b6 07 3c
        E 22 b6 07 3b
        E 22 b6 07 3a
        E 22 b6 07 3a
        E 22 b6 07 39
        E 22 b6 07 38
        E 22 b6 07 37
        E 22 b6 07 36
        E 22 b6 07 34
        E 22 b6 07 33
        E 22 b6 07 32
        E 22 b6 07 31
        E 22 b6 07 2f
        E 22 b6 07 2e
        E 22 b6 07 2c
        E 22 b6 07 2b
        E 22 b6 07 2a
        E 22 b6 07 28
        E 22 b6 07 27
        E 22 b6 07 25
        E 22 b6 07 23
        E 22 b6 07 22
        E 22 b6 07 20
        E 22 b6 07 1f
        E 22 b6 07 1d
        E 22 b6 07 1c
        E 22 b6 07 1a
        E 22 b6 07 18
        E 22 b6 07 17
        E 22 b6 07 15
        E 22 b6 07 14
        E 22 b6 07 13
        E 22 b6 07 11
        E 22 b6 07 10
        E 22 b6 07 0e
        E 22 b6 07 0d
        E 22 b6 07 0c
        E 22 b6 07 0b
        E 22 b6 07 09
        E 22 b6 07 08
        E 22 b6 07 07
        E 22 b6 07 06
        E 22 b6 07 05
        E 22 b6 07 05
        E 22 b6 07 04
        E 22 b6 07 03
        E 22 b6 07 02
        E 22 b6 07 02
        E 22 b6 07 01
        E 22 b6 07 01
        E 22 b6 07 00
        E 22 b6 07 00
        E 22 b6 07 00
        E 22 b6 07 00
        E 22 b6 07 00
        E 22 b6 07 00
        E 22 b6 07 00
        E 22 b6 07 00
        E 22 b6 07 00
        E 22 b6 07 01
        E 22 b6 07 01
        E 22 b6 07 02
        E 22 b6 07 02
        E 22 b6 07 03
        E 22 b6 07 03
        E 22 b6 07 04
        E 22 b6 07 05
        E 22 b6 07 06
        E 22 b6 07 07
        E 22 b6 07 08
        E 22 b6 07 09
        E 22 b6 07 0a
        E 22 b6 07 0b
        E 22 b6 07 0c
        E 22 b6 07 0e
        E 22 b6 07 0f
        E 22 b6 07 10
        E 22 b6 07 12
        E 22 b6 07 13
        E 22 b6 07 15
        E 22 b6 07 16
        E 22 b6 07 18
        E 22 b6 07 19
        E 22 b6 07 1b
        E 22 b6 07 1c
        E 22 b6 07 1e
        E 22 b6 07 20
        E 31 b6 07 20
        E 31 b6 07 21
        E 31 b6 07 23
        E 31 b6 07 24
        E 31 b6 07 26
        E 31 b6 07 27
        E 31 b6 07 29
        E 31 b6 07 2a
        E 31 b6 07 2c
        E 31 b6 07 2d
        E 31 b6 07 2f
        E 31 b6 07 30
        E 31 b6 07 31
        E 31 b6 07 33
        E 31 b6 07 34
        E 31 b6 07 35
        E 31 b6 07 36
        E 31 b6 07 37
        E 31 b6 07 38
        E 31 b6 07 39
        E 31 b6 07 3a
        E 31 b6 07 3b
        E 31 b6 07 3c
        E 31 b6 07 3c
        E 31 b6 07 3d
        E 31 b6 07 3d
        E 31 b6 07 3e
        E 31 b6 07 3e
        E 31 b6 07 3f
        E 31 b6 07 3f
        E 31 b6 07 3f
        E 31 b6 07 3f
        E 31 b6 07 3f
        E 31 b6 07 3f
        E 31 b6 07 3f
        E 31 b6 07 3f
        E 31 b6 07 3f
        E 31 b6 07 3e
        E 31 b6 07 3e
        E 31 b6 07 3d
        E 31 b6 07 3d
        E 31 b6 07 3c
        E 31 b6 07 3b
        E 31 b6 07 3a
        E 31 b6 07 3a
        E 31 b6 07 39
        E 31 b6 07 38
        E 31 b6 07 37
        E 31 b6 07 36
        E 31 b6 07 34
        E 31 b6 07 33
        E 31 b6 07 32
        E 31 b6 07 31
        E 31 b6 07 2f
        E 31 b6 07 2e
        E 31 b6 07 2c
        E 31 b6 07 2b
        E 31 b6 07 2a
        E 31 b6 07 28
        E 31 b6 07 27
        E 31 b6 07 25
        E 31 b6 07 23
        E 31 b6 07 22
        E 31 b6 07 20
        E 31 b6 07 1f
        E 31 b6 07 1d
        E 31 b6 07 1c
        E 31 b6 07 1a
        E 31 b6 07 18
        E 31 b6 07 17
        E 31 b6 07 15
        E 31 b6 07 14
        E 31 b6 07 13
        E 31 b6 07 11
        E 31 b6 07 10
        E 31 b6 07 0e
        E 31 b6 07 0d
        E 31 b6 07 0c
        E 31 b6 07 0b
        E 31 b6 07 09
        E 31 b6 07 08
        E 31 b6 07 07
        E 31 b6 07 06
        E 31 b6 07 05
        E 31 b6 07 05
        E 31 b6 07 04
        E 31 b6 07 03
        E 31 b6 07 02
        E 31 b6 07 02
        E 31 b6 07 01
        E 31 b6 07 01
        E 31 b6 07 00
        E 31 b6 07 00
        E 31 b6 07 00
        E 31 b6 07 00
        E 31 b6 07 00
        E 31 b6 07 00
        E 31 b6 07 00
        E 31 b6 07 00
        E 31 b6 07 00
        E 31 b6 07 01
        E 31 b6 07 01
        E 31 b6 07 02
        E 31 b6 07 02
        E 31 b6 07 03
        E 31 b6 07 03
        E 31 b6 07 04
        E 31 b6 07 05
        E 31 b6 07 06
        E 31 b6 07 07
        E 31 b6 07 08
        E 31 b6 07 09
        E 31 b6 07 0a
        E 31 b6 07 0b
        E 31 b6 07 0c
        E 31 b6 07 0e
        E 31 b6 07 0f
        E 31 b6 07 10
        E 31 b6 07 12
        E 31 b6 07 13
        E 31 b6 07 15
        E 31 b6 07 16
        E 31 b6 07 18
        E 31 b6 07 19
        E 31 b6 07 1b
        E 31 b6 07 1c
        E 31 b6 07 1e
        E 31 b6 07 20
        E 36 b6 07 40
        E 36 b6 07 43
        E 36 b6 07 46
        E 36 b6 07 49
        E 36 b6 07 4c
        E 36 b6 07 4f
        E 36 b6 07 52
        E 36 b6 07 55
        E 36 b6 07 58
        E 36 b6 07 5b
        E 36 b6 07 5e
        E 36 b6 07 60
        E 36 b6 07 63
        E 36 b6 07 66
        E 36 b6 07 68
        E 36 b6 07 6a
        E 36 b6 07 6d
        E 36 b6 07 6f
        E 36 b6 07 71
        E 36 b6 07 73
        E 36 b6 07 75
        E 36 b6 07 76
        E 36 b6 07 78
        E 36 b6 07 79
        E 36 b6 07 7a
        E 36 b6 07 7b
        E 36 b6 07 7c
        E 36 b6 07 7d
        E 36 b6 07 7e
        E 36 b6 07 7e
        E 36 b6 07 7f
        E 36 b6 07 7f
        E 36 b6 07 7f
        E 36 b6 07 7f
        E 36 b6 07 7f
        E 36 b6 07 7e
        E 36 b6 07 7e
        E 36 b6 07 7d
        E 36 b6 07 7c
        E 36 b6 07 7b
        E 36 b6 07 7a
        E 36 b6 07 78
        E 36 b6 07 77
        E 36 b6 07 75
        E 36 b6 07 74
        E 36 b6 07 72
        E 36 b6 07 70
        E 36 b6 07 6e
        E 36 b6 07 6c
        E 36 b6 07 69
        E 36 b6 07 67
        E 36 b6 07 64
        E 36 b6 07 62
        E 36 b6 07 5f
        E 36 b6 07 5c
        E 36 b6 07 59
        E 36 b6 07 57
        E 36 b6 07 54
        E 36 b6 07 51
        E 36 b6 07 4e
        E 36 b6 07 4a
        E 36 b6 07 47
        E 36 b6 07 44
        E 36 b6 07 41
        E 36 b6 07 3e
        E 36 b6 07 3b
        E 36 b6 07 38
        E 36 b6 07 35
        E 36 b6 07 31
        E 36 b6 07 2e
        E 36 b6 07 2b
        E 36 b6 07 28
        E 36 b6 07 26
        E 36 b6 07 23
        E 36 b6 07 20
        E 36 b6 07 1d
        E 36 b6 07 1b
        E 36 b6 07 18
        E 36 b6 07 16
        E 36 b6 07 13
        E 36 b6 07 11
        E 36 b6 07 0f
        E 36 b6 07 0d
        E 36 b6 07 0b
        E 36 b6 07 0a
        E 36 b6 07 08
        E 36 b6 07 07
        E 36 b6 07 05
        E 36 b6 07 04
        E 36 b6 07 03
        E 36 b6 07 02
        E 36 b6 07 01
        E 36 b6 07 01
        E 36 b6 07 00
        E 36 b6 07 00
        E 36 b6 07 00
        E 36 b6 07 00
        E 36 b6 07 00
        E 36 b6 07 01
        E 36 b6 07 01
        E 36 b6 07 02
        E 36 b6 07 03
        E 36 b6 07 04
        E 36 b6 07 05
        E 36 b6 07 06
        E 36 b6 07 07
        E 36 b6 07 09
        E 36 b6 07 0a
        E 36 b6 07 0c
        E 36 b6 07 0e
        E 36 b6 07 10
        E 36 b6 07 12
        E 36 b6 07 15
        E 36 b6 07 17
        E 36 b6 07 19
        E 36 b6 07 1c
        E 36 b6 07 1f
        E 36 b6 07 21
        E 36 b6 07 24
        E 36 b6 07 27
        E 36 b6 07 2a
        E 36 b6 07 2d
        E 36 b6 07 30
        E 36 b6 07 33
        E 36 b6 07 36
        E 36 b6 07 39
        E 36 b6 07 3c
        E 36 b6 07 40
        E 4 b6 07 39
        E 4 b6 07 3c
        E 4 b6 07 3f
        E 4 b6 07 41
        E 4 b6 07 44
        E 4 b6 07 47
        E 4 b6 07 49
        E 4 b6 07 4c
        E 4 b6 07 4f
        E 4 b6 07 51
        E 4 b6 07 54
        E 4 b6 07 56
        E 4 b6 07 59
        E 4 b6 07 5b
        E 4 b6 07 5d
        E 4 b6 07 5f
        E 4 b6 07 62
        E 4 b6 07 63
        E 4 b6 07 65
        E 4 b6 07 67
        E 4 b6 07 69
        E 4 b6 07 6a
        E 4 b6 07 6c
        E 4 b6 07 6c
        E 4 b6 07 6d
        E 4 b6 07 6e
        E 4 b6 07 6f
        E 4 b6 07 70
        E 4 b6 07 71
        E 4 b6 07 71
        E 4 b6 07 72
        E 4 b6 07 72
        E 4 b6 07 72
        E 4 b6 07 72
        E 4 b6 07 72
        E 4 b6 07 71
        E 4 b6 07 71
        E 4 b6 07 70
        E 4 b6 07 6f
        E 4 b6 07 6e
        E 4 b6 07 6d
        E 4 b6 07 6c
        E 4 b6 07 6b
        E 4 b6 07 69
        E 4 b6 07 68
        E 4 b6 07 66
        E 4 b6 07 64
        E 4 b6 07 63
        E 4 b6 07 61
        E 4 b6 07 5e
        E 4 b6 07 5c
        E 4 b6 07 5a
        E 4 b6 07 58
        E 4 b6 07 55
        E 4 b6 07 52
        E 4 b6 07 50
        E 4 b6 07 4e
        E 4 b6 07 4b
        E 4 b6 07 48
        E 4 b6 07 46
        E 4 b6 07 42
        E 4 b6 07 3f
        E 4 b6 07 3d
        E 4 b6 07 3a
        E 4 b6 07 37
        E 4 b6 07 35
        E 4 b6 07 32
        E 4 b6 07 2f
        E 4 b6 07 2c
        E 4 b6 07 29
        E 4 b6 07 26
        E 4 b6 07 24
        E 4 b6 07 22
        E 4 b6 07 1f
        E 4 b6 07 1c
        E 4 b6 07 1a
        E 4 b6 07 18
        E 4 b6 07 15
        E 4 b6 07 13
        E 4 b6 07 11
        E 4 b6 07 0f
        E 4 b6 07 0d
        E 4 b6 07 0b
        E 4 b6 07 09
        E 4 b6 07 09
        E 4 b6 07 07
        E 4 b6 07 06
        E 4 b6 07 04
        E 4 b6 07 03
        E 4 b6 07 02
        E 4 b6 07 01
        E 4 b6 07 00
        E 4 b6 07 00
        E 4 b6 07 00
        E 4 b6 07 00
        E 4 b6 07 00
        E 4 b6 07 00
        E 4 b6 07 00
        E 4 b6 07 00
        E 4 b6 07 00
        E 4 b6 07 01
        E 4 b6 07 02
        E 4 b6 07 03
        E 4 b6 07 04
        E 4 b6 07 05
        E 4 b6 07 06
        E 4 b6 07 08
        E 4 b6 07 09
        E 4 b6 07 0a
        E 4 b6 07 0c
        E 4 b6 07 0e
        E 4 b6 07 10
        E 4 b6 07 12
        E 4 b6 07 14
        E 4 b6 07 16
        E 4 b6 07 19
        E 4 b6 07 1b
        E 4 b6 07 1d
        E 4 b6 07 20
        E 4 b6 07 23
        E 4 b6 07 25
        E 4 b6 07 28
        E 4 b6 07 2b
        E 4 b6 07 2d
        E 4 b6 07 30
        E 4 b6 07 33
        E 4 b6 07 36
        E 4 b6 07 39
        E 18 b6 07 40
        E 18 b6 07 43
        E 18 b6 07 46
        E 18 b6 07 49
        E 18 b6 07 4c
        E 18 b6 07 4f
        E 18 b6 07 52
        E 18 b6 07 55
        E 18 b6 07 58
        E 18 b6 07 5b
        E 18 b6 07 5e
        E 18 b6 07 60
        E 18 b6 07 63
        E 18 b6 07 66
        E 18 b6 07 68
        E 18 b6 07 6a
        E 18 b6 07 6d
        E 18 b6 07 6f
        E 18 b6 07 71
        E 18 b6 07 73
        E 18 b6 07 75
        E 18 b6 07 76
        E 18 b6 07 78
        E 18 b6 07 79
        E 18 b6 07 7a
        E 18 b6 07 7b
        E 18 b6 07 7c
        E 18 b6 07 7d
        E 18 b6 07 7e
        E 18 b6 07 7e
        E 18 b6 07 7f
        E 18 b6 07 7f
        E 18 b6 07 7f
        E 18 b6 07 7f
        E 18 b6 07 7f
        E 18 b6 07 7e
        E 18 b6 07 7e
        E 18 b6 07 7d
        E 18 b6 07 7c
        E 18 b6 07 7b
        E 18 b6 07 7a
        E 18 b6 07 78
        E 18 b6 07 77
        E 18 b6 07 75
        E 18 b6 07 74
        E 18 b6 07 72
        E 18 b6 07 70
        E 18 b6 07 6e
        E 18 b6 07 6c
        E 18 b6 07 69
        E 18 b6 07 67
        E 18 b6 07 64
        E 18 b6 07 62
        E 18 b6 07 5f
        E 18 b6 07 5c
        E 18 b6 07 59
        E 18 b6 07 57
        E 18 b6 07 54
        E 18 b6 07 51
        E 18 b6 07 4e
        E 18 b6 07 4a
        E 18 b6 07 47
        E 18 b6 07 44
        E 18 b6 07 41
        E 18 b6 07 3e
        E 18 b6 07 3b
        E 18 b6 07 38
        E 18 b6 07 35
        E 18 b6 07 31
        E 18 b6 07 2e
        E 18 b6 07 2b
        E 18 b6 07 28
        E 18 b6 07 26
        E 18 b6 07 23
        E 18 b6 07 20
        E 18 b6 07 1d
        E 18 b6 07 1b
        E 18 b6 07 18
        E 18 b6 07 16
        E 18 b6 07 13
        E 18 b6 07 11
        E 18 b6 07 0f
        E 18 b6 07 0d
        E 18 b6 07 0b
        E 18 b6 07 0a
        E 18 b6 07 08
        E 18 b6 07 07
        E 18 b6 07 05
        E 18 b6 07 04
        E 18 b6 07 03
        E 18 b6 07 02
        E 18 b6 07 01
        E 18 b6 07 01
        E 18 b6 07 00
        E 18 b6 07 00
        E 18 b6 07 00
        E 18 b6 07 00
        E 18 b6 07 00
        E 18 b6 07 01
        E 18 b6 07 01
        E 18 b6 07 02
        E 18 b6 07 03
        E 18 b6 07 04
        E 18 b6 07 05
        E 18 b6 07 06
        E 18 b6 07 07
        E 18 b6 07 09
        E 18 b6 07 0a
        E 18 b6 07 0c
        E 18 b6 07 0e
        E 18 b6 07 10
        E 18 b6 07 12
        E 18 b6 07 15
        E 18 b6 07 17
        E 18 b6 07 19
        E 18 b6 07 1c
        E 18 b6 07 1f
        E 18 b6 07 21
        E 18 b6 07 24
        E 18 b6 07 27
        E 18 b6 07 2a
        E 18 b6 07 2d
        E 18 b6 07 30
        E 18 b6 07 33
        E 18 b6 07 36
        E 18 b6 07 39
        E 18 b6 07 3c
        E 18 b6 07 40
        E 31 b6 07 39
        E 31 b6 07 3c
        E 31 b6 07 3f
        E 31 b6 07 41
        E 31 b6 07 44
        E 31 b6 07 47
        E 31 b6 07 49
        E 31 b6 07 4c
        E 31 b6 07 4f
        E 31 b6 07 51
        E 31 b6 07 54
        E 31 b6 07 56
        E 31 b6 07 59
        E 31 b6 07 5b
        E 31 b6 07 5d
        E 31 b6 07 5f
        E 31 b6 07 62
        E 31 b6 07 63
        E 31 b6 07 65
        E 31 b6 07 67
        E 31 b6 07 69
        E 31 b6 07 6a
        E 31 b6 07 6c
        E 31 b6 07 6c
        E 31 b6 07 6d
        E 31 b6 07 6e
        E 31 b6 07 6f
        E 31 b6 07 70
        E 31 b6 07 71
        E 31 b6 07 71
        E 31 b6 07 72
        E 31 b6 07 72
        E 31 b6 07 72
        E 31 b6 07 72
        E 31 b6 07 72
        E 31 b6 07 71
        E 31 b6 07 71
        E 31 b6 07 70
        E 31 b6 07 6f
        E 31 b6 07 6e
        E 31 b6 07 6d
        E 31 b6 07 6c
        E 31 b6 07 6b
        E 31 b6 07 69
        E 31 b6 07 68
        E 31 b6 07 66
        E 31 b6 07 64
        E 31 b6 07 63
        E 31 b6 07 61
        E 31 b6 07 5e
        E 31 b6 07 5c
        E 31 b6 07 5a
        E 31 b6 07 58
        E 31 b6 07 55
        E 31 b6 07 52
        E 31 b6 07 50
        E 31 b6 07 4e
        E 31 b6 07 4b
        E 31 b6 07 48
        E 31 b6 07 46
        E 31 b6 07 42
        E 31 b6 07 3f
        E 31 b6 07 3d
        E 31 b6 07 3a
        E 31 b6 07 37
        E 31 b6 07 35
        E 31 b6 07 32
        E 31 b6 07 2f
        E 31 b6 07 2c
        E 31 b6 07 29
        E 31 b6 07 26
        E 31 b6 07 24
        E 31 b6 07 22
        E 31 b6 07 1f
        E 31 b6 07 1c
        E 31 b6 07 1a
        E 31 b6 07 18
        E 31 b6 07 15
        E 31 b6 07 13
        E 31 b6 07 11
        E 31 b6 07 0f
        E 31 b6 07 0d
        E 31 b6 07 0b
        E 31 b6 07 09
        E 31 b6 07 09
        E 31 b6 07 07
        E 31 b6 07 06
        E 31 b6 07 04
        E 31 b6 07 03
        E 31 b6 07 02
        E 31 b6 07 01
        E 31 b6 07 00
        E 31 b6 07 00
        E 31 b6 07 00
        E 31 b6 07 00
        E 31 b6 07 00
        E 31 b6 07 00
        E 31 b6 07 00
        E 31 b6 07 00
        E 31 b6 07 00
        E 31 b6 07 01
        E 31 b6 07 02
        E 31 b6 07 03
        E 31 b6 07 04
        E 31 b6 07 05
        E 31 b6 07 06
        E 31 b6 07 08
        E 31 b6 07 09
        E 31 b6 07 0a
        E 31 b6 07 0c
        E 31 b6 07 0e
        E 31 b6 07 10
        E 31 b6 07 12
        E 31 b6 07 14
        E 31 b6 07 16
        E 31 b6 07 19
        E 31 b6 07 1b
        E 31 b6 07 1d
        E 31 b6 07 20
        E 31 b6 07 23
        E 31 b6 07 25
        E 31 b6 07 28
        E 31 b6 07 2b
        E 31 b6 07 2d
        E 31 b6 07 30
        E 31 b6 07 33
        E 31 b6 07 36
        E 31 b6 07 39
        E 45 b6 07 2c
        E 45 b6 07 2e
        E 45 b6 07 31
        E 45 b6 07 33
        E 45 b6 07 35
        E 45 b6 07 37
        E 45 b6 07 39
        E 45 b6 07 3b
        E 45 b6 07 3d
        E 45 b6 07 3f
        E 45 b6 07 41
        E 45 b6 07 43
        E 45 b6 07 45
        E 45 b6 07 47
        E 45 b6 07 48
        E 45 b6 07 4a
        E 45 b6 07 4c
        E 45 b6 07 4d
        E 45 b6 07 4f
        E 45 b6 07 50
        E 45 b6 07 51
        E 45 b6 07 52
        E 45 b6 07 54
        E 45 b6 07 54
        E 45 b6 07 55
        E 45 b6 07 56
        E 45 b6 07 56
        E 45 b6 07 57
        E 45 b6 07 58
        E 45 b6 07 58
        E 45 b6 07 58
        E 45 b6 07 58
        E 45 b6 07 58
        E 45 b6 07 58
        E 45 b6 07 58
        E 45 b6 07 58
        E 45 b6 07 58
        E 45 b6 07 57
        E 45 b6 07 56
        E 45 b6 07 56
        E 45 b6 07 55
        E 45 b6 07 54
        E 45 b6 07 53
        E 45 b6 07 51
        E 45 b6 07 51
        E 45 b6 07 4f
        E 45 b6 07 4e
        E 45 b6 07 4d
        E 45 b6 07 4b
        E 45 b6 07 49
        E 45 b6 07 48
        E 45 b6 07 46
        E 45 b6 07 44
        E 45 b6 07 42
        E 45 b6 07 40
        E 45 b6 07 3e
        E 45 b6 07 3c
        E 45 b6 07 3a
        E 45 b6 07 38
        E 45 b6 07 36
        E 45 b6 07 33
        E 45 b6 07 31
        E 45 b6 07 2f
        E 45 b6 07 2d
        E 45 b6 07 2b
        E 45 b6 07 29
        E 45 b6 07 27
        E 45 b6 07 25
        E 45 b6 07 22
        E 45 b6 07 20
        E 45 b6 07 1e
        E 45 b6 07 1c
        E 45 b6 07 1a
        E 45 b6 07 18
        E 45 b6 07 16
        E 45 b6 07 14
        E 45 b6 07 12
        E 45 b6 07 10
        E 45 b6 07 0f
        E 45 b6 07 0d
        E 45 b6 07 0b
        E 45 b6 07 0a
        E 45 b6 07 09
        E 45 b6 07 07
        E 45 b6 07 07
        E 45 b6 07 05
        E 45 b6 07 04
        E 45 b6 07 03
        E 45 b6 07 02
        E 45 b6 07 02
        E 45 b6 07 01
        E 45 b6 07 00
        E 45 b6 07 00
        E 45 b6 07 00
        E 45 b6 07 00
        E 45 b6 07 00
        E 45 b6 07 00
        E 45 b6 07 00
        E 45 b6 07 00
        E 45 b6 07 00
        E 45 b6 07 01
        E 45 b6 07 02
        E 45 b6 07 02
        E 45 b6 07 03
        E 45 b6 07 04
        E 45 b6 07 04
        E 45 b6 07 06
        E 45 b6 07 07
        E 45 b6 07 08
        E 45 b6 07 09
        E 45 b6 07 0b
        E 45 b6 07 0c
        E 45 b6 07 0e
        E 45 b6 07 10
        E 45 b6 07 11
        E 45 b6 07 13
        E 45 b6 07 15
        E 45 b6 07 17
        E 45 b6 07 19
        E 45 b6 07 1b
        E 45 b6 07 1d
        E 45 b6 07 1f
        E 45 b6 07 21
        E 45 b6 07 23
        E 45 b6 07 25
        E 45 b6 07 27
        E 45 b6 07 2a
        E 45 b6 07 2c
        E 40 b6 07 33
        E 40 b6 07 35
        E 40 b6 07 37
        E 40 b6 07 3a
        E 40 b6 07 3c
        E 40 b6 07 3f
        E 40 b6 07 41
        E 40 b6 07 44
        E 40 b6 07 46
        E 40 b6 07 48
        E 40 b6 07 4b
        E 40 b6 07 4c
        E 40 b6 07 4f
        E 40 b6 07 51
        E 40 b6 07 53
        E 40 b6 07 54
        E 40 b6 07 57
        E 40 b6 07 58
        E 40 b6 07 5a
        E 40 b6 07 5b
        E 40 b6 07 5d
        E 40 b6 07 5e
        E 40 b6 07 5f
        E 40 b6 07 60
        E 40 b6 07 61
        E 40 b6 07 62
        E 40 b6 07 63
        E 40 b6 07 63
        E 40 b6 07 64
        E 40 b6 07 64
        E 40 b6 07 65
        E 40 b6 07 65
        E 40 b6 07 65
        E 40 b6 07 65
        E 40 b6 07 65
        E 40 b6 07 64
        E 40 b6 07 64
        E 40 b6 07 63
        E 40 b6 07 63
        E 40 b6 07 62
        E 40 b6 07 61
        E 40 b6 07 5f
        E 40 b6 07 5f
        E 40 b6 07 5d
        E 40 b6 07 5c
        E 40 b6 07 5b
        E 40 b6 07 59
        E 40 b6 07 57
        E 40 b6 07 56
        E 40 b6 07 54
        E 40 b6 07 52
        E 40 b6 07 50
        E 40 b6 07 4e
        E 40 b6 07 4c
        E 40 b6 07 49
        E 40 b6 07 47
        E 40 b6 07 45
        E 40 b6 07 43
        E 40 b6 07 40
        E 40 b6 07 3e
        E 40 b6 07 3b
        E 40 b6 07 38
        E 40 b6 07 36
        E 40 b6 07 33
        E 40 b6 07 31
        E 40 b6 07 2f
        E 40 b6 07 2c
        E 40 b6 07 2a
        E 40 b6 07 27
        E 40 b6 07 24
        E 40 b6 07 22
        E 40 b6 07 1f
        E 40 b6 07 1e
        E 40 b6 07 1b
        E 40 b6 07 19
        E 40 b6 07 17
        E 40 b6 07 15
        E 40 b6 07 13
        E 40 b6 07 11
        E 40 b6 07 0f
        E 40 b6 07 0d
        E 40 b6 07 0b
        E 40 b6 07 0a
        E 40 b6 07 08
        E 40 b6 07 07
        E 40 b6 07 06
        E 40 b6 07 05
        E 40 b6 07 03
        E 40 b6 07 03
        E 40 b6 07 02
        E 40 b6 07 01
        E 40 b6 07 00
        E 40 b6 07 00
        E 40 b6 07 00
        E 40 b6 07 00
        E 40 b6 07 00
        E 40 b6 07 00
        E 40 b6 07 00
        E 40 b6 07 00
        E 40 b6 07 00
        E 40 b6 07 01
        E 40 b6 07 02
        E 40 b6 07 03
        E 40 b6 07 03
        E 40 b6 07 04
        E 40 b6 07 05
        E 40 b6 07 07
        E 40 b6 07 07
        E 40 b6 07 09
        E 40 b6 07 0b
        E 40 b6 07 0c
        E 40 b6 07 0e
        E 40 b6 07 10
        E 40 b6 07 12
        E 40 b6 07 14
        E 40 b6 07 16
        E 40 b6 07 18
        E 40 b6 07 1a
        E 40 b6 07 1c
        E 40 b6 07 1f
        E 40 b6 07 21
        E 40 b6 07 24
        E 40 b6 07 26
        E 40 b6 07 28
        E 40 b6 07 2b
        E 40 b6 07 2d
        E 40 b6 07 2f
        E 40 b6 07 33
        E 45 b6 07 06
        E 45 b6 07 06
        E 45 b6 07 07
        E 45 b6 07 07
        E 45 b6 07 07
        E 45 b6 07 07
        E 45 b6 07 08
        E 45 b6 07 08
        E 45 b6 07 08
        E 45 b6 07 09
        E 45 b6 07 09
        E 45 b6 07 09
        E 45 b6 07 09
        E 45 b6 07 0a
        E 45 b6 07 0a
        E 45 b6 07 0a
        E 45 b6 07 0a
        E 45 b6 07 0b
        E 45 b6 07 0b
        E 45 b6 07 0b
        E 45 b6 07 0b
        E 45 b6 07 0b
        E 45 b6 07 0c
        E 45 b6 07 0c
        E 45 b6 07 0c
        E 45 b6 07 0c
        E 45 b6 07 0c
        E 45 b6 07 0c
        E 45 b6 07 0c
        E 45 b6 07 0c
        E 45 b6 07 0c
        E 45 b6 07 0c
        E 45 b6 07 0c
        E 45 b6 07 0c
        E 45 b6 07 0c
        E 45 b6 07 0c
        E 45 b6 07 0c
        E 45 b6 07 0c
        E 45 b6 07 0c
        E 45 b6 07 0c
        E 45 b6 07 0c
        E 45 b6 07 0c
        E 45 b6 07 0b
        E 45 b6 07 0b
        E 45 b6 07 0b
        E 45 b6 07 0b
        E 45 b6 07 0b
        E 45 b6 07 0b
        E 45 b6 07 0a
        E 45 b6 07 0a
        E 45 b6 07 0a
        E 45 b6 07 0a
        E 45 b6 07 09
        E 45 b6 07 09
        E 45 b6 07 09
        E 45 b6 07 08
        E 45 b6 07 08
        E 45 b6 07 08
        E 45 b6 07 08
        E 45 b6 07 07
        E 45 b6 07 07
        E 45 b6 07 07
        E 45 b6 07 06
        E 45 b6 07 06
        E 45 b6 07 06
        E 45 b6 07 05
        E 45 b6 07 05
        E 45 b6 07 05
        E 45 b6 07 04
        E 45 b6 07 04
        E 45 b6 07 04
        E 45 b6 07 04
        E 45 b6 07 03
        E 45 b6 07 03
        E 45 b6 07 03
        E 45 b6 07 02
        E 45 b6 07 02
        E 45 b6 07 02
        E 45 b6 07 02
        E 45 b6 07 01
        E 45 b6 07 01
        E 45 b6 07 01
        E 45 b6 07 01
        E 45 b6 07 01
        E 45 b6 07 01
        E 45 b6 07 00
        E 45 b6 07 00
        E 45 b6 07 00
        E 45 b6 07 00
        E 45 b6 07 00
        E 45 b6 07 00
        E 45 b6 07 00
        E 45 b6 07 00
        E 45 b6 07 00
        E 45 b6 07 00
        E 45 b6 07 00
        E 45 b6 07 00
        E 45 b6 07 00
        E 45 b6 07 00
        E 45 b6 07 00
        E 45 b6 07 00
        E 45 b6 07 00
        E 45 b6 07 00
        E 45 b6 07 00
        E 45 b6 07 00
        E 45 b6 07 00
        E 45 b6 07 00
        E 45 b6 07 01
        E 45 b6 07 01
        E 45 b6 07 01
        E 45 b6 07 01
        E 45 b6 07 01
        E 45 b6 07 02
        E 45 b6 07 02
        E 45 b6 07 02
        E 45 b6 07 02
        E 45 b6 07 03
        E 45 b6 07 03
        E 45 b6 07 03
        E 45 b6 07 03
        E 45 b6 07 04
        E 45 b6 07 04
        E 45 b6 07 04
        E 45 b6 07 05
        E 45 b6 07 05
        E 45 b6 07 05
        E 45 b6 07 06
        E 45 b6 07 06
        E 40 b6 07 19
        E 40 b6 07 1a
        E 40 b6 07 1c
        E 40 b6 07 1d
        E 40 b6 07 1e
        E 40 b6 07 1f
        E 40 b6 07 20
        E 40 b6 07 22
        E 40 b6 07 23
        E 40 b6 07 24
        E 40 b6 07 25
        E 40 b6 07 26
        E 40 b6 07 27
        E 40 b6 07 28
        E 40 b6 07 29
        E 40 b6 07 2a
        E 40 b6 07 2b
        E 40 b6 07 2c
        E 40 b6 07 2d
        E 40 b6 07 2e
        E 40 b6 07 2e
        E 40 b6 07 2f
        E 40 b6 07 30
        E 40 b6 07 30
        E 40 b6 07 30
        E 40 b6 07 31
        E 40 b6 07 31
        E 40 b6 07 32
        E 40 b6 07 32
        E 40 b6 07 32
        E 40 b6 07 32
        E 40 b6 07 32
        E 40 b6 07 32
        E 40 b6 07 32
        E 40 b6 07 32
        E 40 b6 07 32
        E 40 b6 07 32
        E 40 b6 07 32
        E 40 b6 07 31
        E 40 b6 07 31
        E 40 b6 07 30
        E 40 b6 07 30
        E 40 b6 07 2f
        E 40 b6 07 2e
        E 40 b6 07 2e
        E 40 b6 07 2d
        E 40 b6 07 2c
        E 40 b6 07 2c
        E 40 b6 07 2b
        E 40 b6 07 2a
        E 40 b6 07 29
        E 40 b6 07 28
        E 40 b6 07 27
        E 40 b6 07 26
        E 40 b6 07 24
        E 40 b6 07 23
        E 40 b6 07 22
        E 40 b6 07 21
        E 40 b6 07 20
        E 40 b6 07 1f
        E 40 b6 07 1d
        E 40 b6 07 1c
        E 40 b6 07 1b
        E 40 b6 07 1a
        E 40 b6 07 18
        E 40 b6 07 17
        E 40 b6 07 16
        E 40 b6 07 15
        E 40 b6 07 13
        E 40 b6 07 12
        E 40 b6 07 11
        E 40 b6 07 10
        E 40 b6 07 0f
        E 40 b6 07 0e
        E 40 b6 07 0c
        E 40 b6 07 0b
        E 40 b6 07 0a
        E 40 b6 07 09
        E 40 b6 07 08
        E 40 b6 07 07
        E 40 b6 07 06
        E 40 b6 07 06
        E 40 b6 07 05
        E 40 b6 07 04
        E 40 b6 07 04
        E 40 b6 07 03
        E 40 b6 07 02
        E 40 b6 07 02
        E 40 b6 07 01
        E 40 b6 07 01
        E 40 b6 07 00
        E 40 b6 07 00
        E 40 b6 07 00
        E 40 b6 07 00
        E 40 b6 07 00
        E 40 b6 07 00
        E 40 b6 07 00
        E 40 b6 07 00
        E 40 b6 07 00
        E 40 b6 07 00
        E 40 b6 07 00
        E 40 b6 07 01
        E 40 b6 07 01
        E 40 b6 07 02
        E 40 b6 07 02
        E 40 b6 07 02
        E 40 b6 07 03
        E 40 b6 07 04
        E 40 b6 07 04
        E 40 b6 07 05
        E 40 b6 07 06
        E 40 b6 07 07
        E 40 b6 07 08
        E 40 b6 07 09
        E 40 b6 07 0a
        E 40 b6 07 0b
        E 40 b6 07 0c
        E 40 b6 07 0d
        E 40 b6 07 0e
        E 40 b6 07 0f
        E 40 b6 07 10
        E 40 b6 07 12
        E 40 b6 07 13
        E 40 b6 07 14
        E 40 b6 07 15
        E 40 b6 07 16
        E 40 b6 07 18
        E 40 b6 07 19
        E 22 b6 07 2c
        E 22 b6 07 2e
        E 22 b6 07 31
        E 22 b6 07 33
        E 22 b6 07 35
        E 22 b6 07 37
        E 22 b6 07 39
        E 22 b6 07 3b
        E 22 b6 07 3d
        E 22 b6 07 3f
        E 22 b6 07 41
        E 22 b6 07 43
        E 22 b6 07 45
        E 22 b6 07 47
        E 22 b6 07 48
        E 22 b6 07 4a
        E 22 b6 07 4c
        E 22 b6 07 4d
        E 22 b6 07 4f
        E 22 b6 07 50
        E 22 b6 07 51
        E 22 b6 07 52
        E 22 b6 07 54
        E 22 b6 07 54
        E 22 b6 07 55
        E 22 b6 07 56
        E 22 b6 07 56
        E 22 b6 07 57
        E 22 b6 07 58
        E 22 b6 07 58
        E 22 b6 07 58
        E 22 b6 07 58
        E 22 b6 07 58
        E 22 b6 07 58
        E 22 b6 07 58
        E 22 b6 07 58
        E 22 b6 07 58
        E 22 b6 07 57
        E 22 b6 07 56
        E 22 b6 07 56
        E 22 b6 07 55
        E 22 b6 07 54
        E 22 b6 07 53
        E 22 b6 07 51
        E 22 b6 07 51
        E 22 b6 07 4f
        E 22 b6 07 4e
        E 22 b6 07 4d
        E 22 b6 07 4b
        E 22 b6 07 49
        E 22 b6 07 48
        E 22 b6 07 46
        E 22 b6 07 44
        E 22 b6 07 42
        E 22 b6 07 40
        E 22 b6 07 3e
        E 22 b6 07 3c
        E 22 b6 07 3a
        E 22 b6 07 38
        E 22 b6 07 36
        E 22 b6 07 33
        E 22 b6 07 31
        E 22 b6 07 2f
        E 22 b6 07 2d
        E 22 b6 07 2b
        E 22 b6 07 29
        E 22 b6 07 27
        E 22 b6 07 25
        E 22 b6 07 22
        E 22 b6 07 20
        E 22 b6 07 1e
        E 22 b6 07 1c
        E 22 b6 07 1a
        E 22 b6 07 18
        E 22 b6 07 16
        E 22 b6 07 14
        E 22 b6 07 12
        E 22 b6 07 10
        E 22 b6 07 0f
        E 22 b6 07 0d
        E 22 b6 07 0b
        E 22 b6 07 0a
        E 22 b6 07 09
        E 22 b6 07 07
        E 22 b6 07 07
        E 22 b6 07 05
        E 22 b6 07 04
        E 22 b6 07 03
        E 22 b6 07 02
        E 22 b6 07 02
        E 22 b6 07 01
        E 22 b6 07 00
        E 22 b6 07 00
        E 22 b6 07 00
        E 22 b6 07 00
        E 22 b6 07 00
        E 22 b6 07 00
        E 22 b6 07 00
        E 22 b6 07 00
        E 22 b6 07 00
        E 22 b6 07 01
        E 22 b6 07 02
        E 22 b6 07 02
        E 22 b6 07 03
        E 22 b6 07 04
        E 22 b6 07 04
        E 22 b6 07 06
        E 22 b6 07 07
        E 22 b6 07 08
        E 22 b6 07 09
        E 22 b6 07 0b
        E 22 b6 07 0c
        E 22 b6 07 0e
        E 22 b6 07 10
        E 22 b6 07 11
        E 22 b6 07 13
        E 22 b6 07 15
        E 22 b6 07 17
        E 22 b6 07 19
        E 22 b6 07 1b
        E 22 b6 07 1d
        E 22 b6 07 1f
        E 22 b6 07 21
        E 22 b6 07 23
        E 22 b6 07 25
        E 22 b6 07 27
        E 22 b6 07 2a
        E 22 b6 07 2c
        E 22 b6 07 20
        E 22 b6 07 21
        E 22 b6 07 23
        E 22 b6 07 24
        E 22 b6 07 26
        E 22 b6 07 27
        E 22 b6 07 29
        E 22 b6 07 2a
        E 22 b6 07 2c
        E 22 b6 07 2d
        E 22 b6 07 2f
        E 22 b6 07 30
        E 22 b6 07 31
        E 22 b6 07 33
        E 22 b6 07 34
        E 22 b6 07 35
        E 22 b6 07 36
        E 22 b6 07 37
        E 22 b6 07 38
        E 22 b6 07 39
        E 22 b6 07 3a
        E 22 b6 07 3b
        E 22 b6 07 3c
        E 22 b6 07 3c
        E 22 b6 07 3d
        E 22 b6 07 3d
        E 22 b6 07 3e
        E 22 b6 07 3e
        E 22 b6 07 3f
        E 22 b6 07 3f
        E 22 b6 07 3f
        E 22 b6 07 3f
        E 22 b6 07 3f
        E 22 b6 07 3f
        E 22 b6 07 3f
        E 22 b6 07 3f
        E 22 b6 07 3f
        E 22 b6 07 3e
        E 22 b6 07 3e
        E 22 b6 07 3d
        E 22 b6 07 3d
        E 22 b6 07 3c
        E 22 b6 07 3b
        E 22 b6 07 3a
        E 22 b6 07 3a
        E 22 b6 07 39
        E 22 b6 07 38
        E 22 b6 07 37
        E 22 b6 07 36
        E 22 b6 07 34
        E 22 b6 07 33
        E 22 b6 07 32
        E 22 b6 07 31
        E 22 b6 07 2f
        E 22 b6 07 2e
        E 22 b6 07 2c
        E 22 b6 07 2b
        E 22 b6 07 2a
        E 22 b6 07 28
        E 22 b6 07 27
        E 22 b6 07 25
        E 22 b6 07 23
        E 22 b6 07 22
        E 22 b6 07 20
        E 22 b6 07 1f
        E 22 b6 07 1d
        E 22 b6 07 1c
        E 22 b6 07 1a
        E 22 b6 07 18
        E 22 b6 07 17
        E 22 b6 07 15
        E 22 b6 07 14
        E 22 b6 07 13
        E 22 b6 07 11
        E 22 b6 07 10
        E 22 b6 07 0e
        E 22 b6 07 0d
        E 22 b6 07 0c
        E 22 b6 07 0b
        E 22 b6 07 09
        E 22 b6 07 08
        E 22 b6 07 07
        E 22 b6 07 06
        E 22 b6 07 05
        E 22 b6 07 05
        E 22 b6 07 04
        E 22 b6 07 03
        E 22 b6 07 02
        E 22 b6 07 02
        E 22 b6 07 01
        E 22 b6 07 01
        E 22 b6 07 00
        E 22 b6 07 00
        E 22 b6 07 00
        E 22 b6 07 00
        E 22 b6 07 00
        E 22 b6 07 00
        E 22 b6 07 00
        E 22 b6 07 00
        E 22 b6 07 00
        E 22 b6 07 01
        E 22 b6 07 01
        E 22 b6 07 02
        E 22 b6 07 02
        E 22 b6 07 03
        E 22 b6 07 03
        E 22 b6 07 04
        E 22 b6 07 05
        E 22 b6 07 06
        E 22 b6 07 07
        E 22 b6 07 08
        E 22 b6 07 09
        E 22 b6 07 0a
        E 22 b6 07 0b
        E 22 b6 07 0c
        E 22 b6 07 0e
        E 22 b6 07 0f
        E 22 b6 07 10
        E 22 b6 07 12
        E 22 b6 07 13
        E 22 b6 07 15
        E 22 b6 07 16
        E 22 b6 07 18
        E 22 b6 07 19
        E 22 b6 07 1b
        E 22 b6 07 1c
        E 22 b6 07 1e
        E 22 b6 07 20
        E 31 b6 07 20
        E 31 b6 07 21
        E 31 b6 07 23
        E 31 b6 07 24
        E 31 b6 07 26
        E 31 b6 07 27
        E 31 b6 07 29
        E 31 b6 07 2a
        E 31 b6 07 2c
        E 31 b6 07 2d
        E 31 b6 07 2f
        E 31 b6 07 30
        E 31 b6 07 31
        E 31 b6 07 33
        E 31 b6 07 34
        E 31 b6 07 35
        E 31 b6 07 36
        E 31 b6 07 37
        E 31 b6 07 38
        E 31 b6 07 39
        E 31 b6 07 3a
        E 31 b6 07 3b
        E 31 b6 07 3c
        E 31 b6 07 3c
        E 31 b6 07 3d
        E 31 b6 07 3d
        E 31 b6 07 3e
        E 31 b6 07 3e
        E 31 b6 07 3f
        E 31 b6 07 3f
        E 31 b6 07 3f
        E 31 b6 07 3f
        E 31 b6 07 3f
        E 31 b6 07 3f
        E 31 b6 07 3f
        E 31 b6 07 3f
        E 31 b6 07 3f
        E 31 b6 07 3e
        E 31 b6 07 3e
        E 31 b6 07 3d
        E 31 b6 07 3d
        E 31 b6 07 3c
        E 31 b6 07 3b
        E 31 b6 07 3a
        E 31 b6 07 3a
        E 31 b6 07 39
        E 31 b6 07 38
        E 31 b6 07 37
        E 31 b6 07 36
        E 31 b6 07 34
        E 31 b6 07 33
        E 31 b6 07 32
        E 31 b6 07 31
        E 31 b6 07 2f
        E 31 b6 07 2e
        E 31 b6 07 2c
        E 31 b6 07 2b
        E 31 b6 07 2a
        E 31 b6 07 28
        E 31 b6 07 27
        E 31 b6 07 25
        E 31 b6 07 23
        E 31 b6 07 22
        E 31 b6 07 20
        E 31 b6 07 1f
        E 31 b6 07 1d
        E 31 b6 07 1c
        E 31 b6 07 1a
        E 31 b6 07 18
        E 31 b6 07 17
        E 31 b6 07 15
        E 31 b6 07 14
        E 31 b6 07 13
        E 31 b6 07 11
        E 31 b6 07 10
        E 31 b6 07 0e
        E 31 b6 07 0d
        E 31 b6 07 0c
        E 31 b6 07 0b
        E 31 b6 07 09
        E 31 b6 07 08
        E 31 b6 07 07
        E 31 b6 07 06
        E 31 b6 07 05
        E 31 b6 07 05
        E 31 b6 07 04
        E 31 b6 07 03
        E 31 b6 07 02
        E 31 b6 07 02
        E 31 b6 07 01
        E 31 b6 07 01
        E 31 b6 07 00
        E 31 b6 07 00
        E 31 b6 07 00
        E 31 b6 07 00
        E 31 b6 07 00
        E 31 b6 07 00
        E 31 b6 07 00
        E 31 b6 07 00
        E 31 b6 07 00
        E 31 b6 07 01
        E 31 b6 07 01
        E 31 b6 07 02
        E 31 b6 07 02
        E 31 b6 07 03
        E 31 b6 07 03
        E 31 b6 07 04
        E 31 b6 07 05
        E 31 b6 07 06
        E 31 b6 07 07
        E 31 b6 07 08
        E 31 b6 07 09
        E 31 b6 07 0a
        E 31 b6 07 0b
        E 31 b6 07 0c
        E 31 b6 07 0e
        E 31 b6 07 0f
        E 31 b6 07 10
        E 31 b6 07 12
        E 31 b6 07 13
        E 31 b6 07 15
        E 31 b6 07 16
        E 31 b6 07 18
        E 31 b6 07 19
        E 31 b6 07 1b
        E 31 b6 07 1c
        E 31 b6 07 1e
        E 31 b6 07 20
        E 36 b6 07 40
        E 36 b6 07 43
        E 36 b6 07 46
        E 36 b6 07 49
        E 36 b6 07 4c
        E 36 b6 07 4f
        E 36 b6 07 52
        E 36 b6 07 55
        E 36 b6 07 58
        E 36 b6 07 5b
        E 36 b6 07 5e
        E 36 b6 07 60
        E 36 b6 07 63
        E 36 b6 07 66
        E 36 b6 07 68
        E 36 b6 07 6a
        E 36 b6 07 6d
        E 36 b6 07 6f
        E 36 b6 07 71
        E 36 b6 07 73
        E 36 b6 07 75
        E 36 b6 07 76
        E 36 b6 07 78
        E 36 b6 07 79
        E 36 b6 07 7a
        E 36 b6 07 7b
        E 36 b6 07 7c
        E 36 b6 07 7d
        E 36 b6 07 7e
        E 36 b6 07 7e
        E 36 b6 07 7f
        E 36 b6 07 7f
        E 36 b6 07 7f
        E 36 b6 07 7f
        E 36 b6 07 7f
        E 36 b6 07 7e
        E 36 b6 07 7e
        E 36 b6 07 7d
        E 36 b6 07 7c
        E 36 b6 07 7b
        E 36 b6 07 7a
        E 36 b6 07 78
        E 36 b6 07 77
        E 36 b6 07 75
        E 36 b6 07 74
        E 36 b6 07 72
        E 36 b6 07 70
        E 36 b6 07 6e
        E 36 b6 07 6c
        E 36 b6 07 69
        E 36 b6 07 67
        E 36 b6 07 64
        E 36 b6 07 62
        E 36 b6 07 5f
        E 36 b6 07 5c
        E 36 b6 07 59
        E 36 b6 07 57
        E 36 b6 07 54
        E 36 b6 07 51
        E 36 b6 07 4e
        E 36 b6 07 4a
        E 36 b6 07 47
        E 36 b6 07 44
        E 36 b6 07 41
        E 36 b6 07 3e
        E 36 b6 07 3b
        E 36 b6 07 38
        E 36 b6 07 35
        E 36 b6 07 31
        E 36 b6 07 2e
        E 36 b6 07 2b
        E 36 b6 07 28
        E 36 b6 07 26
        E 36 b6 07 23
        E 36 b6 07 20
        E 36 b6 07 1d
        E 36 b6 07 1b
        E 36 b6 07 18
        E 36 b6 07 16
        E 36 b6 07 13
        E 36 b6 07 11
        E 36 b6 07 0f
        E 36 b6 07 0d
        E 36 b6 07 0b
        E 36 b6 07 0a
        E 36 b6 07 08
        E 36 b6 07 07
        E 36 b6 07 05
        E 36 b6 07 04
        E 36 b6 07 03
        E 36 b6 07 02
        E 36 b6 07 01
        E 36 b6 07 01
        E 36 b6 07 00
        E 36 b6 07 00
        E 36 b6 07 00
        E 36 b6 07 00
        E 36 b6 07 00
        E 36 b6 07 01
        E 36 b6 07 01
        E 36 b6 07 02
        E 36 b6 07 03
        E 36 b6 07 04
        E 36 b6 07 05
        E 36 b6 07 06
        E 36 b6 07 07
        E 36 b6 07 09
        E 36 b6 07 0a
        E 36 b6 07 0c
        E 36 b6 07 0e
        E 36 b6 07 10
        E 36 b6 07 12
        E 36 b6 07 15
        E 36 b6 07 17
        E 36 b6 07 19
        E 36 b6 07 1c
        E 36 b6 07 1f
        E 36 b6 07 21
        E 36 b6 07 24
        E 36 b6 07 27
        E 36 b6 07 2a
        E 36 b6 07 2d
        E 36 b6 07 30
        E 36 b6 07 33
        E 36 b6 07 36
        E 36 b6 07 39
        E 36 b6 07 3c
        E 36 b6 07 40
        E 4 b6 07 39
        E 4 b6 07 3c
        E 4 b6 07 3f
        E 4 b6 07 41
        E 4 b6 07 44
        E 4 b6 07 47
        E 4 b6 07 49
        E 4 b6 07 4c
        E 4 b6 07 4f
        E 4 b6 07 51
        E 4 b6 07 54
        E 4 b6 07 56
        E 4 b6 07 59
        E 4 b6 07 5b
        E 4 b6 07 5d
        E 4 b6 07 5f
        E 4 b6 07 62
        E 4 b6 07 63
        E 4 b6 07 65
        E 4 b6 07 67
        E 4 b6 07 69
        E 4 b6 07 6a
        E 4 b6 07 6c
        E 4 b6 07 6c
        E 4 b6 07 6d
        E 4 b6 07 6e
        E 4 b6 07 6f
        E 4 b6 07 70
        E 4 b6 07 71
        E 4 b6 07 71
        E 4 b6 07 72
        E 4 b6 07 72
        E 4 b6 07 72
        E 4 b6 07 72
        E 4 b6 07 72
        E 4 b6 07 71
        E 4 b6 07 71
        E 4 b6 07 70
        E 4 b6 07 6f
        E 4 b6 07 6e
        E 4 b6 07 6d
        E 4 b6 07 6c
        E 4 b6 07 6b
        E 4 b6 07 69
        E 4 b6 07 68
        E 4 b6 07 66
        E 4 b6 07 64
        E 4 b6 07 63
        E 4 b6 07 61
        E 4 b6 07 5e
        E 4 b6 07 5c
        E 4 b6 07 5a
        E 4 b6 07 58
        E 4 b6 07 55
        E 4 b6 07 52
        E 4 b6 07 50
        E 4 b6 07 4e
        E 4 b6 07 4b
        E 4 b6 07 48
        E 4 b6 07 46
        E 4 b6 07 42
        E 4 b6 07 3f
        E 4 b6 07 3d
        E 4 b6 07 3a
        E 4 b6 07 37
        E 4 b6 07 35
        E 4 b6 07 32
        E 4 b6 07 2f
        E 4 b6 07 2c
        E 4 b6 07 29
        E 4 b6 07 26
        E 4 b6 07 24
        E 4 b6 07 22
        E 4 b6 07 1f
        E 4 b6 07 1c
        E 4 b6 07 1a
        E 4 b6 07 18
        E 4 b6 07 15
        E 4 b6 07 13
        E 4 b6 07 11
        E 4 b6 07 0f
        E 4 b6 07 0d
        E 4 b6 07 0b
        E 4 b6 07 09
        E 4 b6 07 09
        E 4 b6 07 07
        E 4 b6 07 06
        E 4 b6 07 04
        E 4 b6 07 03
        E 4 b6 07 02
        E 4 b6 07 01
        E 4 b6 07 00
        E 4 b6 07 00
        E 4 b6 07 00
        E 4 b6 07 00
        E 4 b6 07 00
        E 4 b6 07 00
        E 4 b6 07 00
        E 4 b6 07 00
        E 4 b6 07 00
        E 4 b6 07 01
        E 4 b6 07 02
        E 4 b6 07 03
        E 4 b6 07 04
        E 4 b6 07 05
        E 4 b6 07 06
        E 4 b6 07 08
        E 4 b6 07 09
        E 4 b6 07 0a
        E 4 b6 07 0c
        E 4 b6 07 0e
        E 4 b6 07 10
        E 4 b6 07 12
        E 4 b6 07 14
        E 4 b6 07 16
        E 4 b6 07 19
        E 4 b6 07 1b
        E 4 b6 07 1d
        E 4 b6 07 20
        E 4 b6 07 23
        E 4 b6 07 25
        E 4 b6 07 28
        E 4 b6 07 2b
        E 4 b6 07 2d
        E 4 b6 07 30
        E 4 b6 07 33
        E 4 b6 07 36
        E 4 b6 07 39
        E 18 b6 07 40
        E 18 b6 07 43
        E 18 b6 07 46
        E 18 b6 07 49
        E 18 b6 07 4c
        E 18 b6 07 4f
        E 18 b6 07 52
        E 18 b6 07 55
        E 18 b6 07 58
        E 18 b6 07 5b
        E 18 b6 07 5e
        E 18 b6 07 60
        E 18 b6 07 63
        E 18 b6 07 66
        E 18 b6 07 68
        E 18 b6 07 6a
        E 18 b6 07 6d
        E 18 b6 07 6f
        E 18 b6 07 71
        E 18 b6 07 73
        E 18 b6 07 75
        E 18 b6 07 76
        E 18 b6 07 78
        E 18 b6 07 79
        E 18 b6 07 7a
        E 18 b6 07 7b
        E 18 b6 07 7c
        E 18 b6 07 7d
        E 18 b6 07 7e
        E 18 b6 07 7e
        E 18 b6 07 7f
        E 18 b6 07 7f
        E 18 b6 07 7f
        E 18 b6 07 7f
        E 18 b6 07 7f
        E 18 b6 07 7e
        E 18 b6 07 7e
        E 18 b6 07 7d
        E 18 b6 07 7c
        E 18 b6 07 7b
        E 18 b6 07 7a
        E 18 b6 07 78
        E 18 b6 07 77
        E 18 b6 07 75
        E 18 b6 07 74
        E 18 b6 07 72
        E 18 b6 07 70
        E 18 b6 07 6e
        E 18 b6 07 6c
        E 18 b6 07 69
        E 18 b6 07 67
        E 18 b6 07 64
        E 18 b6 07 62
        E 18 b6 07 5f
        E 18 b6 07 5c
        E 18 b6 07 59
        E 18 b6 07 57
        E 18 b6 07 54
        E 18 b6 07 51
        E 18 b6 07 4e
        E 18 b6 07 4a
        E 18 b6 07 47
        E 18 b6 07 44
        E 18 b6 07 41
        E 18 b6 07 3e
        E 18 b6 07 3b
        E 18 b6 07 38
        E 18 b6 07 35
        E 18 b6 07 31
        E 18 b6 07 2e
        E 18 b6 07 2b
        E 18 b6 07 28
        E 18 b6 07 26
        E 18 b6 07 23
        E 18 b6 07 20
        E 18 b6 07 1d
        E 18 b6 07 1b
        E 18 b6 07 18
        E 18 b6 07 16
        E 18 b6 07 13
        E 18 b6 07 11
        E 18 b6 07 0f
        E 18 b6 07 0d
        E 18 b6 07 0b
        E 18 b6 07 0a
        E 18 b6 07 08
        E 18 b6 07 07
        E 18 b6 07 05
        E 18 b6 07 04
        E 18 b6 07 03
        E 18 b6 07 02
        E 18 b6 07 01
        E 18 b6 07 01
        E 18 b6 07 00
        E 18 b6 07 00
        E 18 b6 07 00
        E 18 b6 07 00
        E 18 b6 07 00
        E 18 b6 07 01
        E 18 b6 07 01
        E 18 b6 07 02
        E 18 b6 07 03
        E 18 b6 07 04
        E 18 b6 07 05
        E 18 b6 07 06
        E 18 b6 07 07
        E 18 b6 07 09
        E 18 b6 07 0a
        E 18 b6 07 0c
        E 18 b6 07 0e
        E 18 b6 07 10
        E 18 b6 07 12
        E 18 b6 07 15
        E 18 b6 07 17
        E 18 b6 07 19
        E 18 b6 07 1c
        E 18 b6 07 1f
        E 18 b6 07 21
        E 18 b6 07 24
        E 18 b6 07 27
        E 18 b6 07 2a
        E 18 b6 07 2d
        E 18 b6 07 30
        E 18 b6 07 33
        E 18 b6 07 36
        E 18 b6 07 39
        E 18 b6 07 3c
        E 18 b6 07 40
        E 31 b6 07 39
        E 31 b6 07 3c
        E 31 b6 07 3f
        E 31 b6 07 41
        E 31 b6 07 44
        E 31 b6 07 47
        E 31 b6 07 49
        E 31 b6 07 4c
        E 31 b6 07 4f
        E 31 b6 07 51
        E 31 b6 07 54
        E 31 b6 07 56
        E 31 b6 07 59
        E 31 b6 07 5b
        E 31 b6 07 5d
        E 31 b6 07 5f
        E 31 b6 07 62
        E 31 b6 07 63
        E 31 b6 07 65
        E 31 b6 07 67
        E 31 b6 07 69
        E 31 b6 07 6a
        E 31 b6 07 6c
        E 31 b6 07 6c
        E 31 b6 07 6d
        E 31 b6 07 6e
        E 31 b6 07 6f
        E 31 b6 07 70
        E 31 b6 07 71
        E 31 b6 07 71
        E 31 b6 07 72
        E 31 b6 07 72
        E 31 b6 07 72
        E 31 b6 07 72
        E 31 b6 07 72
        E 31 b6 07 71
        E 31 b6 07 71
        E 31 b6 07 70
        E 31 b6 07 6f
        E 31 b6 07 6e
        E 31 b6 07 6d
        E 31 b6 07 6c
        E 31 b6 07 6b
        E 31 b6 07 69
        E 31 b6 07 68
        E 31 b6 07 66
        E 31 b6 07 64
        E 31 b6 07 63
        E 31 b6 07 61
        E 31 b6 07 5e
        E 31 b6 07 5c
        E 31 b6 07 5a
        E 31 b6 07 58
        E 31 b6 07 55
        E 31 b6 07 52
        E 31 b6 07 50
        E 31 b6 07 4e
        E 31 b6 07 4b
        E 31 b6 07 48
        E 31 b6 07 46
        E 31 b6 07 42
        E 31 b6 07 3f
        E 31 b6 07 3d
        E 31 b6 07 3a
        E 31 b6 07 37
        E 31 b6 07 35
        E 31 b6 07 32
        E 31 b6 07 2f
        E 31 b6 07 2c
        E 31 b6 07 29
        E 31 b6 07 26
        E 31 b6 07 24
        E 31 b6 07 22
        E 31 b6 07 1f
        E 31 b6 07 1c
        E 31 b6 07 1a
        E 31 b6 07 18
        E 31 b6 07 15
        E 31 b6 07 13
        E 31 b6 07 11
        E 31 b6 07 0f
        E 31 b6 07 0d
        E 31 b6 07 0b
        E 31 b6 07 09
        E 31 b6 07 09
        E 31 b6 07 07
        E 31 b6 07 06
        E 31 b6 07 04
        E 31 b6 07 03
        E 31 b6 07 02
        E 31 b6 07 01
        E 31 b6 07 00
        E 31 b6 07 00
        E 31 b6 07 00
        E 31 b6 07 00
        E 31 b6 07 00
        E 31 b6 07 00
        E 31 b6 07 00
        E 31 b6 07 00
        E 31 b6 07 00
        E 31 b6 07 01
        E 31 b6 07 02
        E 31 b6 07 03
        E 31 b6 07 04
        E 31 b6 07 05
        E 31 b6 07 06
        E 31 b6 07 08
        E 31 b6 07 09
        E 31 b6 07 0a
        E 31 b6 07 0c
        E 31 b6 07 0e
        E 31 b6 07 10
        E 31 b6 07 12
        E 31 b6 07 14
        E 31 b6 07 16
        E 31 b6 07 19
        E 31 b6 07 1b
        E 31 b6 07 1d
        E 31 b6 07 20
        E 31 b6 07 23
        E 31 b6 07 25
        E 31 b6 07 28
        E 31 b6 07 2b
        E 31 b6 07 2d
        E 31 b6 07 30
        E 31 b6 07 33
        E 31 b6 07 36
        E 31 b6 07 39
        E 45 b6 07 2c
        E 45 b6 07 2e
        E 45 b6 07 31
        E 45 b6 07 33
        E 45 b6 07 35
        E 45 b6 07 37
        E 45 b6 07 39
        E 45 b6 07 3b
        E 45 b6 07 3d
        E 45 b6 07 3f
        E 45 b6 07 41
        E 45 b6 07 43
        E 45 b6 07 45
        E 45 b6 07 47
        E 45 b6 07 48
        E 45 b6 07 4a
        E 45 b6 07 4c
        E 45 b6 07 4d
        E 45 b6 07 4f
        E 45 b6 07 50
        E 45 b6 07 51
        E 45 b6 07 52
        E 45 b6 07 54
        E 45 b6 07 54
        E 45 b6 07 55
        E 45 b6 07 56
        E 45 b6 07 56
        E 45 b6 07 57
        E 45 b6 07 58
        E 45 b6 07 58
        E 45 b6 07 58
        E 45 b6 07 58
        E 45 b6 07 58
        E 45 b6 07 58
        E 45 b6 07 58
        E 45 b6 07 58
        E 45 b6 07 58
        E 45 b6 07 57
        E 45 b6 07 56
        E 45 b6 07 56
        E 45 b6 07 55
        E 45 b6 07 54
        E 45 b6 07 53
        E 45 b6 07 51
        E 45 b6 07 51
        E 45 b6 07 4f
        E 45 b6 07 4e
        E 45 b6 07 4d
        E 45 b6 07 4b
        E 45 b6 07 49
        E 45 b6 07 48
        E 45 b6 07 46
        E 45 b6 07 44
        E 45 b6 07 42
        E 45 b6 07 40
        E 45 b6 07 3e
        E 45 b6 07 3c
        E 45 b6 07 3a
        E 45 b6 07 38
        E 45 b6 07 36
        E 45 b6 07 33
        E 45 b6 07 31
        E 45 b6 07 2f
        E 45 b6 07 2d
        E 45 b6 07 2b
        E 45 b6 07 29
        E 45 b6 07 27
        E 45 b6 07 25
        E 45 b6 07 22
        E 45 b6 07 20
        E 45 b6 07 1e
        E 45 b6 07 1c
        E 45 b6 07 1a
        E 45 b6 07 18
        E 45 b6 07 16
        E 45 b6 07 14
        E 45 b6 07 12
        E 45 b6 07 10
        E 45 b6 07 0f
        E 45 b6 07 0d
        E 45 b6 07 0b
        E 45 b6 07 0a
        E 45 b6 07 09
        E 45 b6 07 07
        E 45 b6 07 07
        E 45 b6 07 05
        E 45 b6 07 04
        E 45 b6 07 03
        E 45 b6 07 02
        E 45 b6 07 02
        E 45 b6 07 01
        E 45 b6 07 00
        E 45 b6 07 00
        E 45 b6 07 00
        E 45 b6 07 00
        E 45 b6 07 00
        E 45 b6 07 00
        E 45 b6 07 00
        E 45 b6 07 00
        E 45 b6 07 00
        E 45 b6 07 01
        E 45 b6 07 02
        E 45 b6 07 02
        E 45 b6 07 03
        E 45 b6 07 04
        E 45 b6 07 04
        E 45 b6 07 06
        E 45 b6 07 07
        E 45 b6 07 08
        E 45 b6 07 09
        E 45 b6 07 0b
        E 45 b6 07 0c
        E 45 b6 07 0e
        E 45 b6 07 10
        E 45 b6 07 11
        E 45 b6 07 13
        E 45 b6 07 15
        E 45 b6 07 17
        E 45 b6 07 19
        E 45 b6 07 1b
        E 45 b6 07 1d
        E 45 b6 07 1f
        E 45 b6 07 21
        E 45 b6 07 23
        E 45 b6 07 25
        E 45 b6 07 27
        E 45 b6 07 2a
        E 45 b6 07 2c
        E 40 b6 07 33
        E 40 b6 07 35
        E 40 b6 07 37
        E 40 b6 07 3a
        E 40 b6 07 3c
        E 40 b6 07 3f
        E 40 b6 07 41
        E 40 b6 07 44
        E 40 b6 07 46
        E 40 b6 07 48
        E 40 b6 07 4b
        E 40 b6 07 4c
        E 40 b6 07 4f
        E 40 b6 07 51
        E 40 b6 07 53
        E 40 b6 07 54
        E 40 b6 07 57
        E 40 b6 07 58
        E 40 b6 07 5a
        E 40 b6 07 5b
        E 40 b6 07 5d
        E 40 b6 07 5e
        E 40 b6 07 5f
        E 40 b6 07 60
        E 40 b6 07 61
        E 40 b6 07 62
        E 40 b6 07 63
        E 40 b6 07 63
        E 40 b6 07 64
        E 40 b6 07 64
        E 40 b6 07 65
        E 40 b6 07 65
        E 40 b6 07 65
        E 40 b6 07 65
        E 40 b6 07 65
        E 40 b6 07 64
        E 40 b6 07 64
        E 40 b6 07 63
        E 40 b6 07 63
        E 40 b6 07 62
        E 40 b6 07 61
        E 40 b6 07 5f
        E 40 b6 07 5f
        E 40 b6 07 5d
        E 40 b6 07 5c
        E 40 b6 07 5b
        E 40 b6 07 59
        E 40 b6 07 57
        E 40 b6 07 56
        E 40 b6 07 54
        E 40 b6 07 52
        E 40 b6 07 50
        E 40 b6 07 4e
        E 40 b6 07 4c
        E 40 b6 07 49
        E 40 b6 07 47
        E 40 b6 07 45
        E 40 b6 07 43
        E 40 b6 07 40
        E 40 b6 07 3e
        E 40 b6 07 3b
        E 40 b6 07 38
        E 40 b6 07 36
        E 40 b6 07 33
        E 40 b6 07 31
        E 40 b6 07 2f
        E 40 b6 07 2c
        E 40 b6 07 2a
        E 40 b6 07 27
        E 40 b6 07 24
        E 40 b6 07 22
        E 40 b6 07 1f
        E 40 b6 07 1e
        E 40 b6 07 1b
        E 40 b6 07 19
        E 40 b6 07 17
        E 40 b6 07 15
        E 40 b6 07 13
        E 40 b6 07 11
        E 40 b6 07 0f
        E 40 b6 07 0d
        E 40 b6 07 0b
        E 40 b6 07 0a
        E 40 b6 07 08
        E 40 b6 07 07
        E 40 b6 07 06
        E 40 b6 07 05
        E 40 b6 07 03
        E 40 b6 07 03
        E 40 b6 07 02
        E 40 b6 07 01
        E 40 b6 07 00
        E 40 b6 07 00
        E 40 b6 07 00
        E 40 b6 07 00
        E 40 b6 07 00
        E 40 b6 07 00
        E 40 b6 07 00
        E 40 b6 07 00
        E 40 b6 07 00
        E 40 b6 07 01
        E 40 b6 07 02
        E 40 b6 07 03
        E 40 b6 07 03
        E 40 b6 07 04
        E 40 b6 07 05
        E 40 b6 07 07
        E 40 b6 07 07
        E 40 b6 07 09
        E 40 b6 07 0b
        E 40 b6 07 0c
        E 40 b6 07 0e
        E 40 b6 07 10
        E 40 b6 07 12
        E 40 b6 07 14
        E 40 b6 07 16
        E 40 b6 07 18
        E 40 b6 07 1a
        E 40 b6 07 1c
        E 40 b6 07 1f
        E 40 b6 07 21
        E 40 b6 07 24
        E 40 b6 07 26
        E 40 b6 07 28
        E 40 b6 07 2b
        E 40 b6 07 2d
        E 40 b6 07 2f
        E 40 b6 07 33
        E 45 b6 07 06
        E 45 b6 07 06
        E 45 b6 07 07
        E 45 b6 07 07
        E 45 b6 07 07
        E 45 b6 07 07
        E 45 b6 07 08
        E 45 b6 07 08
        E 45 b6 07 08
        E 45 b6 07 09
        E 45 b6 07 09
        E 45 b6 07 09
        E 45 b6 07 09
        E 45 b6 07 0a
        E 45 b6 07 0a
        E 45 b6 07 0a
        E 45 b6 07 0a
        E 45 b6 07 0b
        E 45 b6 07 0b
        E 45 b6 07 0b
        E 45 b6 07 0b
        E 45 b6 07 0b
        E 45 b6 07 0c
        E 45 b6 07 0c
        E 45 b6 07 0c
        E 45 b6 07 0c
        E 45 b6 07 0c
        E 45 b6 07 0c
        E 45 b6 07 0c
        E 45 b6 07 0c
        E 45 b6 07 0c
        E 45 b6 07 0c
        E 45 b6 07 0c
        E 45 b6 07 0c
        E 45 b6 07 0c
        E 45 b6 07 0c
        E 45 b6 07 0c
        E 45 b6 07 0c
        E 45 b6 07 0c
        E 45 b6 07 0c
        E 45 b6 07 0c
        E 45 b6 07 0c
        E 45 b6 07 0b
        E 45 b6 07 0b
        E 45 b6 07 0b
        E 45 b6 07 0b
        E 45 b6 07 0b
        E 45 b6 07 0b
        E 45 b6 07 0a
        E 45 b6 07 0a
        E 45 b6 07 0a
        E 45 b6 07 0a
        E 45 b6 07 09
        E 45 b6 07 09
        E 45 b6 07 09
        E 45 b6 07 08
        E 45 b6 07 08
        E 45 b6 07 08
        E 45 b6 07 08
        E 45 b6 07 07
        E 45 b6 07 07
        E 45 b6 07 07
        E 45 b6 07 06
        E 45 b6 07 06
        E 45 b6 07 06
        E 45 b6 07 05
        E 45 b6 07 05
        E 45 b6 07 05
        E 45 b6 07 04
        E 45 b6 07 04
        E 45 b6 07 04
        E 45 b6 07 04
        E 45 b6 07 03
        E 45 b6 07 03
        E 45 b6 07 03
        E 45 b6 07 02
        E 45 b6 07 02
        E 45 b6 07 02
        E 45 b6 07 02
        E 45 b6 07 01
        E 45 b6 07 01
        E 45 b6 07 01
        E 45 b6 07 01
        E 45 b6 07 01
        E 45 b6 07 01
        E 45 b6 07 00
        E 45 b6 07 00
        E 45 b6 07 00
        E 45 b6 07 00
        E 45 b6 07 00
        E 45 b6 07 00
        E 45 b6 07 00
        E 45 b6 07 00
        E 45 b6 07 00
        E 45 b6 07 00
        E 45 b6 07 00
        E 45 b6 07 00
        E 45 b6 07 00
        E 45 b6 07 00
        E 45 b6 07 00
        E 45 b6 07 00
        E 45 b6 07 00
        E 45 b6 07 00
        E 45 b6 07 00
        E 45 b6 07 00
        E 45 b6 07 00
        E 45 b6 07 00
        E 45 b6 07 01
        E 45 b6 07 01
        E 45 b6 07 01
        E 45 b6 07 01
        E 45 b6 07 01
        E 45 b6 07 02
        E 45 b6 07 02
        E 45 b6 07 02
        E 45 b6 07 02
        E 45 b6 07 03
        E 45 b6 07 03
        E 45 b6 07 03
        E 45 b6 07 03
        E 45 b6 07 04
        E 45 b6 07 04
        E 45 b6 07 04
        E 45 b6 07 05
        E 45 b6 07 05
        E 45 b6 07 05
        E 45 b6 07 06
        E 45 b6 07 06
        E 40 b6 07 19
        E 40 b6 07 1a
        E 40 b6 07 1c
        E 40 b6 07 1d
        E 40 b6 07 1e
        E 40 b6 07 1f
        E 40 b6 07 20
        E 40 b6 07 22
        E 40 b6 07 23
        E 40 b6 07 24
        E 40 b6 07 25
        E 40 b6 07 26
        E 40 b6 07 27
        E 40 b6 07 28
        E 40 b6 07 29
        E 40 b6 07 2a
        E 40 b6 07 2b
        E 40 b6 07 2c
        E 40 b6 07 2d
        E 40 b6 07 2e
        E 40 b6 07 2e
        E 40 b6 07 2f
        E 40 b6 07 30
        E 40 b6 07 30
        E 40 b6 07 30
        E 40 b6 07 31
        E 40 b6 07 31
        E 40 b6 07 32
        E 40 b6 07 32
        E 40 b6 07 32
        E 40 b6 07 32
        E 40 b6 07 32
        E 40 b6 07 32
        E 40 b6 07 32
        E 40 b6 07 32
        E 40 b6 07 32
        E 40 b6 07 32
        E 40 b6 07 32
        E 40 b6 07 31
        E 40 b6 07 31
        E 40 b6 07 30
        E 40 b6 07 30
        E 40 b6 07 2f
        E 40 b6 07 2e
        E 40 b6 07 2e
        E 40 b6 07 2d
        E 40 b6 07 2c
        E 40 b6 07 2c
        E 40 b6 07 2b
        E 40 b6 07 2a
        E 40 b6 07 29
        E 40 b6 07 28
        E 40 b6 07 27
        E 40 b6 07 26
        E 40 b6 07 24
        E 40 b6 07 23
        E 40 b6 07 22
        E 40 b6 07 21
        E 40 b6 07 20
        E 40 b6 07 1f
        E 40 b6 07 1d
        E 40 b6 07 1c
        E 40 b6 07 1b
        E 40 b6 07 1a
        E 40 b6 07 18
        E 40 b6 07 17
        E 40 b6 07 16
        E 40 b6 07 15
        E 40 b6 07 13
        E 40 b6 07 12
        E 40 b6 07 11
        E 40 b6 07 10
        E 40 b6 07 0f
        E 40 b6 07 0e
        E 40 b6 07 0c
        E 40 b6 07 0b
        E 40 b6 07 0a
        E 40 b6 07 09
        E 40 b6 07 08
        E 40 b6 07 07
        E 40 b6 07 06
        E 40 b6 07 06
        E 40 b6 07 05
        E 40 b6 07 04
        E 40 b6 07 04
        E 40 b6 07 03
        E 40 b6 07 02
        E 40 b6 07 02
        E 40 b6 07 01
        E 40 b6 07 01
        E 40 b6 07 00
        E 40 b6 07 00
        E 40 b6 07 00
        E 40 b6 07 00
        E 40 b6 07 00
        E 40 b6 07 00
        E 40 b6 07 00
        E 40 b6 07 00
        E 40 b6 07 00
        E 40 b6 07 00
        E 40 b6 07 00
        E 40 b6 07 01
        E 40 b6 07 01
        E 40 b6 07 02
        E 40 b6 07 02
        E 40 b6 07 02
        E 40 b6 07 03
        E 40 b6 07 04
        E 40 b6 07 04
        E 40 b6 07 05
        E 40 b6 07 06
        E 40 b6 07 07
        E 40 b6 07 08
        E 40 b6 07 09
        E 40 b6 07 0a
        E 40 b6 07 0b
        E 40 b6 07 0c
        E 40 b6 07 0d
        E 40 b6 07 0e
        E 40 b6 07 0f
        E 40 b6 07 10
        E 40 b6 07 12
        E 40 b6 07 13
        E 40 b6 07 14
        E 40 b6 07 15
        E 40 b6 07 16
        E 40 b6 07 18
        E 40 b6 07 19
        E 22 b6 07 2c
        E 22 b6 07 2e
        E 22 b6 07 31
        E 22 b6 07 33
        E 22 b6 07 35
        E 22 b6 07 37
        E 22 b6 07 39
        E 22 b6 07 3b
        E 22 b6 07 3d
        E 22 b6 07 3f
        E 22 b6 07 41
        E 22 b6 07 43
        E 22 b6 07 45
        E 22 b6 07 47
        E 22 b6 07 48
        E 22 b6 07 4a
        E 22 b6 07 4c
        E 22 b6 07 4d
        E 22 b6 07 4f
        E 22 b6 07 50
        E 22 b6 07 51
        E 22 b6 07 52
        E 22 b6 07 54
        E 22 b6 07 54
        E 22 b6 07 55
        E 22 b6 07 56
        E 22 b6 07 56
        E 22 b6 07 57
        E 22 b6 07 58
        E 22 b6 07 58
        E 22 b6 07 58
        E 22 b6 07 58
        E 22 b6 07 58
        E 22 b6 07 58
        E 22 b6 07 58
        E 22 b6 07 58
        E 22 b6 07 58
        E 22 b6 07 57
        E 22 b6 07 56
        E 22 b6 07 56
        E 22 b6 07 55
        E 22 b6 07 54
        E 22 b6 07 53
        E 22 b6 07 51
        E 22 b6 07 51
        E 22 b6 07 4f
        E 22 b6 07 4e
        E 22 b6 07 4d
        E 22 b6 07 4b
        E 22 b6 07 49
        E 22 b6 07 48
        E 22 b6 07 46
        E 22 b6 07 44
        E 22 b6 07 42
        E 22 b6 07 40
        E 22 b6 07 3e
        E 22 b6 07 3c
        E 22 b6 07 3a
        E 22 b6 07 38
        E 22 b6 07 36
        E 22 b6 07 33
        E 22 b6 07 31
        E 22 b6 07 2f
        E 22 b6 07 2d
        E 22 b6 07 2b
        E 22 b6 07 29
        E 22 b6 07 27
        E 22 b6 07 25
        E 22 b6 07 22
        E 22 b6 07 20
        E 22 b6 07 1e
        E 22 b6 07 1c
        E 22 b6 07 1a
        E 22 b6 07 18
        E 22 b6 07 16
        E 22 b6 07 14
        E 22 b6 07 12
        E 22 b6 07 10
        E 22 b6 07 0f
        E 22 b6 07 0d
        E 22 b6 07 0b
        E 22 b6 07 0a
        E 22 b6 07 09
        E 22 b6 07 07
        E 22 b6 07 07
        E 22 b6 07 05
        E 22 b6 07 04
        E 22 b6 07 03
        E 22 b6 07 02
        E 22 b6 07 02
        E 22 b6 07 01
        E 22 b6 07 00
        E 22 b6 07 00
        E 22 b6 07 00
        E 22 b6 07 00
        E 22 b6 07 00
        E 22 b6 07 00
        E 22 b6 07 00
        E 22 b6 07 00
        E 22 b6 07 00
        E 22 b6 07 01
        E 22 b6 07 02
        E 22 b6 07 02
        E 22 b6 07 03
        E 22 b6 07 04
        E 22 b6 07 04
        E 22 b6 07 06
        E 22 b6 07 07
        E 22 b6 07 08
        E 22 b6 07 09
        E 22 b6 07 0b
        E 22 b6 07 0c
        E 22 b6 07 0e
        E 22 b6 07 10
        E 22 b6 07 11
        E 22 b6 07 13
        E 22 b6 07 15
        E 22 b6 07 17
        E 22 b6 07 19
        E 22 b6 07 1b
        E 22 b6 07 1d
        E 22 b6 07 1f
        E 22 b6 07 21
        E 22 b6 07 23
        E 22 b6 07 25
        E 22 b6 07 27
        E 22 b6 07 2a
        E 22 b6 07 2c
        E 22 b6 07 20
        E 22 b6 07 21
        E 22 b6 07 23
        E 22 b6 07 24
        E 22 b6 07 26
        E 22 b6 07 27
        E 22 b6 07 29
        E 22 b6 07 2a
        E 22 b6 07 2c
        E 22 b6 07 2d
        E 22 b6 07 2f
        E 22 b6 07 30
        E 22 b6 07 31
        E 22 b6 07 33
        E 22 b6 07 34
        E 22 b6 07 35
        E 22 b6 07 36
        E 22 b6 07 37
        E 22 b6 07 38
        E 22 b6 07 39
        E 22 b6 07 3a
        E 22 b6 07 3b
        E 22 b6 07 3c
        E 22 b6 07 3c
        E 22 b6 07 3d
        E 22 b6 07 3d
        E 22 b6 07 3e
        E 22 b6 07 3e
        E 22 b6 07 3f
        E 22 b6 07 3f
        E 22 b6 07 3f
        E 22 b6 07 3f
        E 22 b6 07 3f
        E 22 b6 07 3f
        E 22 b6 07 3f
        E 22 b6 07 3f
        E 22 b6 07 3f
        E 22 b6 07 3e
        E 22 b6 07 3e
        E 22 b6 07 3d
        E 22 b6 07 3d
        E 22 b6 07 3c
        E 22 b6 07 3b
        E 22 b6 07 3a
        E 22 b6 07 3a
        E 22 b6 07 39
        E 22 b6 07 38
        E 22 b6 07 37
        E 22 b6 07 36
        E 22 b6 07 34
        E 22 b6 07 33
        E 22 b6 07 32
        E 22 b6 07 31
        E 22 b6 07 2f
        E 22 b6 07 2e
        E 22 b6 07 2c
        E 22 b6 07 2b
        E 22 b6 07 2a
        E 22 b6 07 28
        E 22 b6 07 27
        E 22 b6 07 25
        E 22 b6 07 23
        E 22 b6 07 22
        E 22 b6 07 20
        E 22 b6 07 1f
        E 22 b6 07 1d
        E 22 b6 07 1c
        E 22 b6 07 1a
        E 22 b6 07 18
        E 22 b6 07 17
        E 22 b6 07 15
        E 22 b6 07 14
        E 22 b6 07 13
        E 22 b6 07 11
        E 22 b6 07 10
        E 22 b6 07 0e
        E 22 b6 07 0d
        E 22 b6 07 0c
        E 22 b6 07 0b
        E 22 b6 07 09
        E 22 b6 07 08
        E 22 b6 07 07
        E 22 b6 07 06
        E 22 b6 07 05
        E 22 b6 07 05
        E 22 b6 07 04
        E 22 b6 07 03
        E 22 b6 07 02
        E 22 b6 07 02
        E 22 b6 07 01
        E 22 b6 07 01
        E 22 b6 07 00
        E 22 b6 07 00
        E 22 b6 07 00
        E 22 b6 07 00
        E 22 b6 07 00
        E 22 b6 07 00
        E 22 b6 07 00
        E 22 b6 07 00
        E 22 b6 07 00
        E 22 b6 07 01
        E 22 b6 07 01
        E 22 b6 07 02
        E 22 b6 07 02
        E 22 b6 07 03
        E 22 b6 07 03
        E 22 b6 07 04
        E 22 b6 07 05
        E 22 b6 07 06
        E 22 b6 07 07
        E 22 b6 07 08
        E 22 b6 07 09
        E 22 b6 07 0a
        E 22 b6 07 0b
        E 22 b6 07 0c
        E 22 b6 07 0e
        E 22 b6 07 0f
        E 22 b6 07 10
        E 22 b6 07 12
        E 22 b6 07 13
        E 22 b6 07 15
        E 22 b6 07 16
        E 22 b6 07 18
        E 22 b6 07 19
        E 22 b6 07 1b
        E 22 b6 07 1c
        E 22 b6 07 1e
        E 22 b6 07 20
        E 31 b6 07 20
        E 31 b6 07 21
        E 31 b6 07 23
        E 31 b6 07 24
        E 31 b6 07 26
        E 31 b6 07 27
        E 31 b6 07 29
        E 31 b6 07 2a
        E 31 b6 07 2c
        E 31 b6 07 2d
        E 31 b6 07 2f
        E 31 b6 07 30
        E 31 b6 07 31
        E 31 b6 07 33
        E 31 b6 07 34
        E 31 b6 07 35
        E 31 b6 07 36
        E 31 b6 07 37
        E 31 b6 07 38
        E 31 b6 07 39
        E 31 b6 07 3a
        E 31 b6 07 3b
        E 31 b6 07 3c
        E 31 b6 07 3c
        E 31 b6 07 3d
        E 31 b6 07 3d
        E 31 b6 07 3e
        E 31 b6 07 3e
        E 31 b6 07 3f
        E 31 b6 07 3f
        E 31 b6 07 3f
        E 31 b6 07 3f
        E 31 b6 07 3f
        E 31 b6 07 3f
        E 31 b6 07 3f
        E 31 b6 07 3f
        E 31 b6 07 3f
        E 31 b6 07 3e
        E 31 b6 07 3e
        E 31 b6 07 3d
        E 31 b6 07 3d
        E 31 b6 07 3c
        E 31 b6 07 3b
        E 31 b6 07 3a
        E 31 b6 07 3a
        E 31 b6 07 39
        E 31 b6 07 38
        E 31 b6 07 37
        E 31 b6 07 36
        E 31 b6 07 34
        E 31 b6 07 33
        E 31 b6 07 32
        E 31 b6 07 31
        E 31 b6 07 2f
        E 31 b6 07 2e
        E 31 b6 07 2c
        E 31 b6 07 2b
        E 31 b6 07 2a
        E 31 b6 07 28
        E 31 b6 07 27
        E 31 b6 07 25
        E 31 b6 07 23
        E 31 b6 07 22
        E 31 b6 07 20
        E 31 b6 07 1f
        E 31 b6 07 1d
        E 31 b6 07 1c
        E 31 b6 07 1a
        E 31 b6 07 18
        E 31 b6 07 17
        E 31 b6 07 15
        E 31 b6 07 14
        E 31 b6 07 13
        E 31 b6 07 11
        E 31 b6 07 10
        E 31 b6 07 0e
        E 31 b6 07 0d
        E 31 b6 07 0c
        E 31 b6 07 0b
        E 31 b6 07 09
        E 31 b6 07 08
        E 31 b6 07 07
        E 31 b6 07 06
        E 31 b6 07 05
        E 31 b6 07 05
        E 31 b6 07 04
        E 31 b6 07 03
        E 31 b6 07 02
        E 31 b6 07 02
        E 31 b6 07 01
        E 31 b6 07 01
        E 31 b6 07 00
        E 31 b6 07 00
        E 31 b6 07 00
        E 31 b6 07 00
        E 31 b6 07 00
        E 31 b6 07 00
        E 31 b6 07 00
        E 31 b6 07 00
        E 31 b6 07 00
        E 31 b6 07 01
        E 31 b6 07 01
        E 31 b6 07 02
        E 31 b6 07 02
        E 31 b6 07 03
        E 31 b6 07 03
        E 31 b6 07 04
        E 31 b6 07 05
        E 31 b6 07 06
        E 31 b6 07 07
        E 31 b6 07 08
        E 31 b6 07 09
        E 31 b6 07 0a
        E 31 b6 07 0b
        E 31 b6 07 0c
        E 31 b6 07 0e
        E 31 b6 07 0f
        E 31 b6 07 10
        E 31 b6 07 12
        E 31 b6 07 13
        E 31 b6 07 15
        E 31 b6 07 16
        E 31 b6 07 18
        E 31 b6 07 19
        E 31 b6 07 1b
        E 31 b6 07 1c
        E 31 b6 07 1e
        E 31 b6 07 20
        E 36 b6 07 40
        E 36 b6 07 43
        E 36 b6 07 46
        E 36 b6 07 49
        E 36 b6 07 4c
        E 36 b6 07 4f
        E 36 b6 07 52
        E 36 b6 07 55
        E 36 b6 07 58
        E 36 b6 07 5b
        E 36 b6 07 5e
        E 36 b6 07 60
        E 36 b6 07 63
        E 36 b6 07 66
        E 36 b6 07 68
        E 36 b6 07 6a
        E 36 b6 07 6d
        E 36 b6 07 6f
        E 36 b6 07 71
        E 36 b6 07 73
        E 36 b6 07 75
        E 36 b6 07 76
        E 36 b6 07 78
        E 36 b6 07 79
        E 36 b6 07 7a
        E 36 b6 07 7b
        E 36 b6 07 7c
        E 36 b6 07 7d
        E 36 b6 07 7e
        E 36 b6 07 7e
        E 36 b6 07 7f
        E 36 b6 07 7f
        E 36 b6 07 7f
        E 36 b6 07 7f
        E 36 b6 07 7f
        E 36 b6 07 7e
        E 36 b6 07 7e
        E 36 b6 07 7d
        E 36 b6 07 7c
        E 36 b6 07 7b
        E 36 b6 07 7a
        E 36 b6 07 78
        E 36 b6 07 77
        E 36 b6 07 75
        E 36 b6 07 74
        E 36 b6 07 72
        E 36 b6 07 70
        E 36 b6 07 6e
        E 36 b6 07 6c
        E 36 b6 07 69
        E 36 b6 07 67
        E 36 b6 07 64
        E 36 b6 07 62
        E 36 b6 07 5f
        E 36 b6 07 5c
        E 36 b6 07 59
        E 36 b6 07 57
        E 36 b6 07 54
        E 36 b6 07 51
        E 36 b6 07 4e
        E 36 b6 07 4a
        E 36 b6 07 47
        E 36 b6 07 44
        E 36 b6 07 41
        E 36 b6 07 3e
        E 36 b6 07 3b
        E 36 b6 07 38
        E 36 b6 07 35
        E 36 b6 07 31
        E 36 b6 07 2e
        E 36 b6 07 2b
        E 36 b6 07 28
        E 36 b6 07 26
        E 36 b6 07 23
        E 36 b6 07 20
        E 36 b6 07 1d
        E 36 b6 07 1b
        E 36 b6 07 18
        E 36 b6 07 16
        E 36 b6 07 13
        E 36 b6 07 11
        E 36 b6 07 0f
        E 36 b6 07 0d
        E 36 b6 07 0b
        E 36 b6 07 0a
        E 36 b6 07 08
        E 36 b6 07 07
        E 36 b6 07 05
        E 36 b6 07 04
        E 36 b6 07 03
        E 36 b6 07 02
        E 36 b6 07 01
        E 36 b6 07 01
        E 36 b6 07 00
        E 36 b6 07 00
        E 36 b6 07 00
        E 36 b6 07 00
        E 36 b6 07 00
        E 36 b6 07 01
        E 36 b6 07 01
        E 36 b6 07 02
        E 36 b6 07 03
        E 36 b6 07 04
        E 36 b6 07 05
        E 36 b6 07 06
        E 36 b6 07 07
        E 36 b6 07 09
        E 36 b6 07 0a
        E 36 b6 07 0c
        E 36 b6 07 0e
        E 36 b6 07 10
        E 36 b6 07 12
        E 36 b6 07 15
        E 36 b6 07 17
        E 36 b6 07 19
        E 36 b6 07 1c
        E 36 b6 07 1f
        E 36 b6 07 21
        E 36 b6 07 24
        E 36 b6 07 27
        E 36 b6 07 2a
        E 36 b6 07 2d
        E 36 b6 07 30
        E 36 b6 07 33
        E 36 b6 07 36
        E 36 b6 07 39
        E 36 b6 07 3c
        E 36 b6 07 40
        E 4 b6 07 39
        E 4 b6 07 3c
        E 4 b6 07 3f
        E 4 b6 07 41
        E 4 b6 07 44
        E 4 b6 07 47
        E 4 b6 07 49
        E 4 b6 07 4c
        E 4 b6 07 4f
        E 4 b6 07 51
        E 4 b6 07 54
        E 4 b6 07 56
        E 4 b6 07 59
        E 4 b6 07 5b
        E 4 b6 07 5d
        E 4 b6 07 5f
        E 4 b6 07 62
        E 4 b6 07 63
        E 4 b6 07 65
        E 4 b6 07 67
        E 4 b6 07 69
        E 4 b6 07 6a
        E 4 b6 07 6c
        E 4 b6 07 6c
        E 4 b6 07 6d
        E 4 b6 07 6e
        E 4 b6 07 6f
        E 4 b6 07 70
        E 4 b6 07 71
        E 4 b6 07 71
        E 4 b6 07 72
        E 4 b6 07 72
        E 4 b6 07 72
        E 4 b6 07 72
        E 4 b6 07 72
        E 4 b6 07 71
        E 4 b6 07 71
        E 4 b6 07 70
        E 4 b6 07 6f
        E 4 b6 07 6e
        E 4 b6 07 6d
        E 4 b6 07 6c
        E 4 b6 07 6b
        E 4 b6 07 69
        E 4 b6 07 68
        E 4 b6 07 66
        E 4 b6 07 64
        E 4 b6 07 63
        E 4 b6 07 61
        E 4 b6 07 5e
        E 4 b6 07 5c
        E 4 b6 07 5a
        E 4 b6 07 58
        E 4 b6 07 55
        E 4 b6 07 52
        E 4 b6 07 50
        E 4 b6 07 4e
        E 4 b6 07 4b
        E 4 b6 07 48
        E 4 b6 07 46
        E 4 b6 07 42
        E 4 b6 07 3f
        E 4 b6 07 3d
        E 4 b6 07 3a
        E 4 b6 07 37
        E 4 b6 07 35
        E 4 b6 07 32
        E 4 b6 07 2f
        E 4 b6 07 2c
        E 4 b6 07 29
        E 4 b6 07 26
        E 4 b6 07 24
        E 4 b6 07 22
        E 4 b6 07 1f
        E 4 b6 07 1c
        E 4 b6 07 1a
        E 4 b6 07 18
        E 4 b6 07 15
        E 4 b6 07 13
        E 4 b6 07 11
        E 4 b6 07 0f
        E 4 b6 07 0d
        E 4 b6 07 0b
        E 4 b6 07 09
        E 4 b6 07 09
        E 4 b6 07 07
        E 4 b6 07 06
        E 4 b6 07 04
        E 4 b6 07 03
        E 4 b6 07 02
        E 4 b6 07 01
        E 4 b6 07 00
        E 4 b6 07 00
        E 4 b6 07 00
        E 4 b6 07 00
        E 4 b6 07 00
        E 4 b6 07 00
        E 4 b6 07 00
        E 4 b6 07 00
        E 4 b6 07 00
        E 4 b6 07 01
        E 4 b6 07 02
        E 4 b6 07 03
        E 4 b6 07 04
        E 4 b6 07 05
        E 4 b6 07 06
        E 4 b6 07 08
        E 4 b6 07 09
        E 4 b6 07 0a
        E 4 b6 07 0c
        E 4 b6 07 0e
        E 4 b6 07 10
        E 4 b6 07 12
        E 4 b6 07 14
        E 4 b6 07 16
        E 4 b6 07 19
        E 4 b6 07 1b
        E 4 b6 07 1d
        E 4 b6 07 20
        E 4 b6 07 23
        E 4 b6 07 25
        E 4 b6 07 28
        E 4 b6 07 2b
        E 4 b6 07 2d
        E 4 b6 07 30
        E 4 b6 07 33
        E 4 b6 07 36
        E 4 b6 07 39
        E 18 b6 07 40
        E 18 b6 07 43
        E 18 b6 07 46
        E 18 b6 07 49
        E 18 b6 07 4c
        E 18 b6 07 4f
        E 18 b6 07 52
        E 18 b6 07 55
        E 18 b6 07 58
        E 18 b6 07 5b
        E 18 b6 07 5e
        E 18 b6 07 60
        E 18 b6 07 63
        E 18 b6 07 66
        E 18 b6 07 68
        E 18 b6 07 6a
        E 18 b6 07 6d
        E 18 b6 07 6f
        E 18 b6 07 71
        E 18 b6 07 73
        E 18 b6 07 75
        E 18 b6 07 76
        E 18 b6 07 78
        E 18 b6 07 79
        E 18 b6 07 7a
        E 18 b6 07 7b
        E 18 b6 07 7c
        E 18 b6 07 7d
        E 18 b6 07 7e
        E 18 b6 07 7e
        E 18 b6 07 7f
        E 18 b6 07 7f
        E 18 b6 07 7f
        E 18 b6 07 7f
        E 18 b6 07 7f
        E 18 b6 07 7e
        E 18 b6 07 7e
        E 18 b6 07 7d
        E 18 b6 07 7c
        E 18 b6 07 7b
        E 18 b6 07 7a
        E 18 b6 07 78
        E 18 b6 07 77
        E 18 b6 07 75
        E 18 b6 07 74
        E 18 b6 07 72
        E 18 b6 07 70
        E 18 b6 07 6e
        E 18 b6 07 6c
        E 18 b6 07 69
        E 18 b6 07 67
        E 18 b6 07 64
        E 18 b6 07 62
        E 18 b6 07 5f
        E 18 b6 07 5c
        E 18 b6 07 59
        E 18 b6 07 57
        E 18 b6 07 54
        E 18 b6 07 51
        E 18 b6 07 4e
        E 18 b6 07 4a
        E 18 b6 07 47
        E 18 b6 07 44
        E 18 b6 07 41
        E 18 b6 07 3e
        E 18 b6 07 3b
        E 18 b6 07 38
        E 18 b6 07 35
        E 18 b6 07 31
        E 18 b6 07 2e
        E 18 b6 07 2b
        E 18 b6 07 28
        E 18 b6 07 26
        E 18 b6 07 23
        E 18 b6 07 20
        E 18 b6 07 1d
        E 18 b6 07 1b
        E 18 b6 07 18
        E 18 b6 07 16
        E 18 b6 07 13
        E 18 b6 07 11
        E 18 b6 07 0f
        E 18 b6 07 0d
        E 18 b6 07 0b
        E 18 b6 07 0a
        E 18 b6 07 08
        E 18 b6 07 07
        E 18 b6 07 05
        E 18 b6 07 04
        E 18 b6 07 03
        E 18 b6 07 02
        E 18 b6 07 01
        E 18 b6 07 01
        E 18 b6 07 00
        E 18 b6 07 00
        E 18 b6 07 00
        E 18 b6 07 00
        E 18 b6 07 00
        E 18 b6 07 01
        E 18 b6 07 01
        E 18 b6 07 02
        E 18 b6 07 03
        E 18 b6 07 04
        E 18 b6 07 05
        E 18 b6 07 06
        E 18 b6 07 07
        E 18 b6 07 09
        E 18 b6 07 0a
        E 18 b6 07 0c
        E 18 b6 07 0e
        E 18 b6 07 10
        E 18 b6 07 12
        E 18 b6 07 15
        E 18 b6 07 17
        E 18 b6 07 19
        E 18 b6 07 1c
        E 18 b6 07 1f
        E 18 b6 07 21
        E 18 b6 07 24
        E 18 b6 07 27
        E 18 b6 07 2a
        E 18 b6 07 2d
        E 18 b6 07 30
        E 18 b6 07 33
        E 18 b6 07 36
        E 18 b6 07 39
        E 18 b6 07 3c
        E 18 b6 07 40
        E 31 b6 07 39
        E 31 b6 07 3c
        E 31 b6 07 3f
        E 31 b6 07 41
        E 31 b6 07 44
        E 31 b6 07 47
        E 31 b6 07 49
        E 31 b6 07 4c
        E 31 b6 07 4f
        E 31 b6 07 51
        E 31 b6 07 54
        E 31 b6 07 56
        E 31 b6 07 59
        E 31 b6 07 5b
        E 31 b6 07 5d
        E 31 b6 07 5f
        E 31 b6 07 62
        E 31 b6 07 63
        E 31 b6 07 65
        E 31 b6 07 67
        E 31 b6 07 69
        E 31 b6 07 6a
        E 31 b6 07 6c
        E 31 b6 07 6c
        E 31 b6 07 6d
        E 31 b6 07 6e
        E 31 b6 07 6f
        E 31 b6 07 70
        E 31 b6 07 71
        E 31 b6 07 71
        E 31 b6 07 72
        E 31 b6 07 72
        E 31 b6 07 72
        E 31 b6 07 72
        E 31 b6 07 72
        E 31 b6 07 71
        E 31 b6 07 71
        E 31 b6 07 70
        E 31 b6 07 6f
        E 31 b6 07 6e
        E 31 b6 07 6d
        E 31 b6 07 6c
        E 31 b6 07 6b
        E 31 b6 07 69
        E 31 b6 07 68
        E 31 b6 07 66
        E 31 b6 07 64
        E 31 b6 07 63
        E 31 b6 07 61
        E 31 b6 07 5e
        E 31 b6 07 5c
        E 31 b6 07 5a
        E 31 b6 07 58
        E 31 b6 07 55
        E 31 b6 07 52
        E 31 b6 07 50
        E 31 b6 07 4e
        E 31 b6 07 4b
        E 31 b6 07 48
        E 31 b6 07 46
        E 31 b6 07 42
        E 31 b6 07 3f
        E 31 b6 07 3d
        E 31 b6 07 3a
        E 31 b6 07 37
        E 31 b6 07 35
        E 31 b6 07 32
        E 31 b6 07 2f
        E 31 b6 07 2c
        E 31 b6 07 29
        E 31 b6 07 26
        E 31 b6 07 24
        E 31 b6 07 22
        E 31 b6 07 1f
        E 31 b6 07 1c
        E 31 b6 07 1a
        E 31 b6 07 18
        E 31 b6 07 15
        E 31 b6 07 13
        E 31 b6 07 11
        E 31 b6 07 0f
        E 31 b6 07 0d
        E 31 b6 07 0b
        E 31 b6 07 09
        E 31 b6 07 09
        E 31 b6 07 07
        E 31 b6 07 06
        E 31 b6 07 04
        E 31 b6 07 03
        E 31 b6 07 02
        E 31 b6 07 01
        E 31 b6 07 00
        E 31 b6 07 00
        E 31 b6 07 00
        E 31 b6 07 00
        E 31 b6 07 00
        E 31 b6 07 00
        E 31 b6 07 00
        E 31 b6 07 00
        E 31 b6 07 00
        E 31 b6 07 01
        E 31 b6 07 02
        E 31 b6 07 03
        E 31 b6 07 04
        E 31 b6 07 05
        E 31 b6 07 06
        E 31 b6 07 08
        E 31 b6 07 09
        E 31 b6 07 0a
        E 31 b6 07 0c
        E 31 b6 07 0e
        E 31 b6 07 10
        E 31 b6 07 12
        E 31 b6 07 14
        E 31 b6 07 16
        E 31 b6 07 19
        E 31 b6 07 1b
        E 31 b6 07 1d
        E 31 b6 07 20
        E 31 b6 07 23
        E 31 b6 07 25
        E 31 b6 07 28
        E 31 b6 07 2b
        E 31 b6 07 2d
        E 31 b6 07 30
        E 31 b6 07 33
        E 31 b6 07 36
        E 31 b6 07 39
        E 45 b6 07 2c
        E 45 b6 07 2e
        E 45 b6 07 31
        E 45 b6 07 33
        E 45 b6 07 35
        E 45 b6 07 37
        E 45 b6 07 39
        E 45 b6 07 3b
        E 45 b6 07 3d
        E 45 b6 07 3f
        E 45 b6 07 41
        E 45 b6 07 43
        E 45 b6 07 45
        E 45 b6 07 47
        E 45 b6 07 48
        E 45 b6 07 4a
        E 45 b6 07 4c
        E 45 b6 07 4d
        E 45 b6 07 4f
        E 45 b6 07 50
        E 45 b6 07 51
        E 45 b6 07 52
        E 45 b6 07 54
        E 45 b6 07 54
        E 45 b6 07 55
        E 45 b6 07 56
        E 45 b6 07 56
        E 45 b6 07 57
        E 45 b6 07 58
        E 45 b6 07 58
        E 45 b6 07 58
        E 45 b6 07 58
        E 45 b6 07 58
        E 45 b6 07 58
        E 45 b6 07 58
        E 45 b6 07 58
        E 45 b6 07 58
        E 45 b6 07 57
        E 45 b6 07 56
        E 45 b6 07 56
        E 45 b6 07 55
        E 45 b6 07 54
        E 45 b6 07 53
        E 45 b6 07 51
        E 45 b6 07 51
        E 45 b6 07 4f
        E 45 b6 07 4e
        E 45 b6 07 4d
        E 45 b6 07 4b
        E 45 b6 07 49
        E 45 b6 07 48
        E 45 b6 07 46
        E 45 b6 07 44
        E 45 b6 07 42
        E 45 b6 07 40
        E 45 b6 07 3e
        E 45 b6 07 3c
        E 45 b6 07 3a
        E 45 b6 07 38
        E 45 b6 07 36
        E 45 b6 07 33
        E 45 b6 07 31
        E 45 b6 07 2f
        E 45 b6 07 2d
        E 45 b6 07 2b
        E 45 b6 07 29
        E 45 b6 07 27
        E 45 b6 07 25
        E 45 b6 07 22
        E 45 b6 07 20
        E 45 b6 07 1e
        E 45 b6 07 1c
        E 45 b6 07 1a
        E 45 b6 07 18
        E 45 b6 07 16
        E 45 b6 07 14
        E 45 b6 07 12
        E 45 b6 07 10
        E 45 b6 07 0f
        E 45 b6 07 0d
        E 45 b6 07 0b
        E 45 b6 07 0a
        E 45 b6 07 09
        E 45 b6 07 07
        E 45 b6 07 07
        E 45 b6 07 05
        E 45 b6 07 04
        E 45 b6 07 03
        E 45 b6 07 02
        E 45 b6 07 02
        E 45 b6 07 01
        E 45 b6 07 00
        E 45 b6 07 00
        E 45 b6 07 00
        E 45 b6 07 00
        E 45 b6 07 00
        E 45 b6 07 00
        E 45 b6 07 00
        E 45 b6 07 00
        E 45 b6 07 00
        E 45 b6 07 01
        E 45 b6 07 02
        E 45 b6 07 02
        E 45 b6 07 03
        E 45 b6 07 04
        E 45 b6 07 04
        E 45 b6 07 06
        E 45 b6 07 07
        E 45 b6 07 08
        E 45 b6 07 09
        E 45 b6 07 0b
        E 45 b6 07 0c
        E 45 b6 07 0e
        E 45 b6 07 10
        E 45 b6 07 11
        E 45 b6 07 13
        E 45 b6 07 15
        E 45 b6 07 17
        E 45 b6 07 19
        E 45 b6 07 1b
        E 45 b6 07 1d
        E 45 b6 07 1f
        E 45 b6 07 21
        E 45 b6 07 23
        E 45 b6 07 25
        E 45 b6 07 27
        E 45 b6 07 2a
        E 45 b6 07 2c
        E 40 b6 07 33
        E 40 b6 07 35
        E 40 b6 07 37
        E 40 b6 07 3a
        E 40 b6 07 3c
        E 40 b6 07 3f
        E 40 b6 07 41
        E 40 b6 07 44
        E 40 b6 07 46
        E 40 b6 07 48
        E 40 b6 07 4b
        E 40 b6 07 4c
        E 40 b6 07 4f
        E 40 b6 07 51
        E 40 b6 07 53
        E 40 b6 07 54
        E 40 b6 07 57
        E 40 b6 07 58
        E 40 b6 07 5a
        E 40 b6 07 5b
        E 40 b6 07 5d
        E 40 b6 07 5e
        E 40 b6 07 5f
        E 40 b6 07 60
        E 40 b6 07 61
        E 40 b6 07 62
        E 40 b6 07 63
        E 40 b6 07 63
        E 40 b6 07 64
        E 40 b6 07 64
        E 40 b6 07 65
        E 40 b6 07 65
        E 40 b6 07 65
        E 40 b6 07 65
        E 40 b6 07 65
        E 40 b6 07 64
        E 40 b6 07 64
        E 40 b6 07 63
        E 40 b6 07 63
        E 40 b6 07 62
        E 40 b6 07 61
        E 40 b6 07 5f
        E 40 b6 07 5f
        E 40 b6 07 5d
        E 40 b6 07 5c
        E 40 b6 07 5b
        E 40 b6 07 59
        E 40 b6 07 57
        E 40 b6 07 56
        E 40 b6 07 54
        E 40 b6 07 52
        E 40 b6 07 50
        E 40 b6 07 4e
        E 40 b6 07 4c
        E 40 b6 07 49
        E 40 b6 07 47
        E 40 b6 07 45
        E 40 b6 07 43
        E 40 b6 07 40
        E 40 b6 07 3e
        E 40 b6 07 3b
        E 40 b6 07 38
        E 40 b6 07 36
        E 40 b6 07 33
        E 40 b6 07 31
        E 40 b6 07 2f
        E 40 b6 07 2c
        E 40 b6 07 2a
        E 40 b6 07 27
        E 40 b6 07 24
        E 40 b6 07 22
        E 40 b6 07 1f
        E 40 b6 07 1e
        E 40 b6 07 1b
        E 40 b6 07 19
        E 40 b6 07 17
        E 40 b6 07 15
        E 40 b6 07 13
        E 40 b6 07 11
        E 40 b6 07 0f
        E 40 b6 07 0d
        E 40 b6 07 0b
        E 40 b6 07 0a
        E 40 b6 07 08
        E 40 b6 07 07
        E 40 b6 07 06
        E 40 b6 07 05
        E 40 b6 07 03
        E 40 b6 07 03
        E 40 b6 07 02
        E 40 b6 07 01
        E 40 b6 07 00
        E 40 b6 07 00
        E 40 b6 07 00
        E 40 b6 07 00
        E 40 b6 07 00
        E 40 b6 07 00
        E 40 b6 07 00
        E 40 b6 07 00
        E 40 b6 07 00
        E 40 b6 07 01
        E 40 b6 07 02
        E 40 b6 07 03
        E 40 b6 07 03
        E 40 b6 07 04
        E 40 b6 07 05
        E 40 b6 07 07
        E 40 b6 07 07
        E 40 b6 07 09
        E 40 b6 07 0b
        E 40 b6 07 0c
        E 40 b6 07 0e
        E 40 b6 07 10
        E 40 b6 07 12
        E 40 b6 07 14
        E 40 b6 07 16
        E 40 b6 07 18
        E 40 b6 07 1a
        E 40 b6 07 1c
        E 40 b6 07 1f
        E 40 b6 07 21
        E 40 b6 07 24
        E 40 b6 07 26
        E 40 b6 07 28
        E 40 b6 07 2b
        E 40 b6 07 2d
        E 40 b6 07 2f
        E 40 b6 07 33
        E 45 b6 07 06
        E 45 b6 07 06
        E 45 b6 07 07
        E 45 b6 07 07
        E 45 b6 07 07
        E 45 b6 07 07
        E 45 b6 07 08
        E 45 b6 07 08
        E 45 b6 07 08
        E 45 b6 07 09
        E 45 b6 07 09
        E 45 b6 07 09
        E 45 b6 07 09
        E 45 b6 07 0a
        E 45 b6 07 0a
        E 45 b6 07 0a
        E 45 b6 07 0a
        E 45 b6 07 0b
        E 45 b6 07 0b
        E 45 b6 07 0b
        E 45 b6 07 0b
        E 45 b6 07 0b
        E 45 b6 07 0c
        E 45 b6 07 0c
        E 45 b6 07 0c
        E 45 b6 07 0c
        E 45 b6 07 0c
        E 45 b6 07 0c
        E 45 b6 07 0c
        E 45 b6 07 0c
        E 45 b6 07 0c
        E 45 b6 07 0c
        E 45 b6 07 0c
        E 45 b6 07 0c
        E 45 b6 07 0c
        E 45 b6 07 0c
        E 45 b6 07 0c
        E 45 b6 07 0c
        E 45 b6 07 0c
        E 45 b6 07 0c
        E 45 b6 07 0c
        E 45 b6 07 0c
        E 45 b6 07 0b
        E 45 b6 07 0b
        E 45 b6 07 0b
        E 45 b6 07 0b
        E 45 b6 07 0b
        E 45 b6 07 0b
        E 45 b6 07 0a
        E 45 b6 07 0a
        E 45 b6 07 0a
        E 45 b6 07 0a
        E 45 b6 07 09
        E 45 b6 07 09
        E 45 b6 07 09
        E 45 b6 07 08
        E 45 b6 07 08
        E 45 b6 07 08
        E 45 b6 07 08
        E 45 b6 07 07
        E 45 b6 07 07
        E 45 b6 07 07
        E 45 b6 07 06
        E 45 b6 07 06
        E 45 b6 07 06
        E 45 b6 07 05
        E 45 b6 07 05
        E 45 b6 07 05
        E 45 b6 07 04
        E 45 b6 07 04
        E 45 b6 07 04
        E 45 b6 07 04
        E 45 b6 07 03
        E 45 b6 07 03
        E 45 b6 07 03
        E 45 b6 07 02
        E 45 b6 07 02
        E 45 b6 07 02
        E 45 b6 07 02
        E 45 b6 07 01
        E 45 b6 07 01
        E 45 b6 07 01
        E 45 b6 07 01
        E 45 b6 07 01
        E 45 b6 07 01
        E 45 b6 07 00
        E 45 b6 07 00
        E 45 b6 07 00
        E 45 b6 07 00
        E 45 b6 07 00
        E 45 b6 07 00
        E 45 b6 07 00
        E 45 b6 07 00
        E 45 b6 07 00
        E 45 b6 07 00
        E 45 b6 07 00
        E 45 b6 07 00
        E 45 b6 07 00
        E 45 b6 07 00
        E 45 b6 07 00
        E 45 b6 07 00
        E 45 b6 07 00
        E 45 b6 07 00
        E 45 b6 07 00
        E 45 b6 07 00
        E 45 b6 07 00
        E 45 b6 07 00
        E 45 b6 07 01
        E 45 b6 07 01
        E 45 b6 07 01
        E 45 b6 07 01
        E 45 b6 07 01
        E 45 b6 07 02
        E 45 b6 07 02
        E 45 b6 07 02
        E 45 b6 07 02
        E 45 b6 07 03
        E 45 b6 07 03
        E 45 b6 07 03
        E 45 b6 07 03
        E 45 b6 07 04
        E 45 b6 07 04
        E 45 b6 07 04
        E 45 b6 07 05
        E 45 b6 07 05
        E 45 b6 07 05
        E 45 b6 07 06
        E 45 b6 07 06
        E 40 b6 07 19
        E 40 b6 07 1a
        E 40 b6 07 1c
        E 40 b6 07 1d
        E 40 b6 07 1e
        E 40 b6 07 1f
        E 40 b6 07 20
        E 40 b6 07 22
        E 40 b6 07 23
        E 40 b6 07 24
        E 40 b6 07 25
        E 40 b6 07 26
        E 40 b6 07 27
        E 40 b6 07 28
        E 40 b6 07 29
        E 40 b6 07 2a
        E 40 b6 07 2b
        E 40 b6 07 2c
        E 40 b6 07 2d
        E 40 b6 07 2e
        E 40 b6 07 2e
        E 40 b6 07 2f
        E 40 b6 07 30
        E 40 b6 07 30
        E 40 b6 07 30
        E 40 b6 07 31
        E 40 b6 07 31
        E 40 b6 07 32
        E 40 b6 07 32
        E 40 b6 07 32
        E 40 b6 07 32
        E 40 b6 07 32
        E 40 b6 07 32
        E 40 b6 07 32
        E 40 b6 07 32
        E 40 b6 07 32
        E 40 b6 07 32
        E 40 b6 07 32
        E 40 b6 07 31
        E 40 b6 07 31
        E 40 b6 07 30
        E 40 b6 07 30
        E 40 b6 07 2f
        E 40 b6 07 2e
        E 40 b6 07 2e
        E 40 b6 07 2d
        E 40 b6 07 2c
        E 40 b6 07 2c
        E 40 b6 07 2b
        E 40 b6 07 2a
        E 40 b6 07 29
        E 40 b6 07 28
        E 40 b6 07 27
        E 40 b6 07 26
        E 40 b6 07 24
        E 40 b6 07 23
        E 40 b6 07 22
        E 40 b6 07 21
        E 40 b6 07 20
        E 40 b6 07 1f
        E 40 b6 07 1d
        E 40 b6 07 1c
        E 40 b6 07 1b
        E 40 b6 07 1a
        E 40 b6 07 18
        E 40 b6 07 17
        E 40 b6 07 16
        E 40 b6 07 15
        E 40 b6 07 13
        E 40 b6 07 12
        E 40 b6 07 11
        E 40 b6 07 10
        E 40 b6 07 0f
        E 40 b6 07 0e
        E 40 b6 07 0c
        E 40 b6 07 0b
        E 40 b6 07 0a
        E 40 b6 07 09
        E 40 b6 07 08
        E 40 b6 07 07
        E 40 b6 07 06
        E 40 b6 07 06
        E 40 b6 07 05
        E 40 b6 07 04
        E 40 b6 07 04
        E 40 b6 07 03
        E 40 b6 07 02
        E 40 b6 07 02
        E 40 b6 07 01
        E 40 b6 07 01
        E 40 b6 07 00
        E 40 b6 07 00
        E 40 b6 07 00
        E 40 b6 07 00
        E 40 b6 07 00
        E 40 b6 07 00
        E 40 b6 07 00
        E 40 b6 07 00
        E 40 b6 07 00
        E 40 b6 07 00
        E 40 b6 07 00
        E 40 b6 07 01
        E 40 b6 07 01
        E 40 b6 07 02
        E 40 b6 07 02
        E 40 b6 07 02
        E 40 b6 07 03
        E 40 b6 07 04
        E 40 b6 07 04
        E 40 b6 07 05
        E 40 b6 07 06
        E 40 b6 07 07
        E 40 b6 07 08
        E 40 b6 07 09
        E 40 b6 07 0a
        E 40 b6 07 0b
        E 40 b6 07 0c
        E 40 b6 07 0d
        E 40 b6 07 0e
        E 40 b6 07 0f
        E 40 b6 07 10
        E 40 b6 07 12
        E 40 b6 07 13
        E 40 b6 07 14
        E 40 b6 07 15
        E 40 b6 07 16
        E 40 b6 07 18
        E 40 b6 07 19
        E 22 b6 07 2c
        E 22 b6 07 2e
        E 22 b6 07 31
        E 22 b6 07 33
        E 22 b6 07 35
        E 22 b6 07 37
        E 22 b6 07 39
        E 22 b6 07 3b
        E 22 b6 07 3d
        E 22 b6 07 3f
        E 22 b6 07 41
        E 22 b6 07 43
        E 22 b6 07 45
        E 22 b6 07 47
        E 22 b6 07 48
        E 22 b6 07 4a
        E 22 b6 07 4c
        E 22 b6 07 4d
        E 22 b6 07 4f
        E 22 b6 07 50
        E 22 b6 07 51
        E 22 b6 07 52
        E 22 b6 07 54
        E 22 b6 07 54
        E 22 b6 07 55
        E 22 b6 07 56
        E 22 b6 07 56
        E 22 b6 07 57
        E 22 b6 07 58
        E 22 b6 07 58
        E 22 b6 07 58
        E 22 b6 07 58
        E 22 b6 07 58
        E 22 b6 07 58
        E 22 b6 07 58
        E 22 b6 07 58
        E 22 b6 07 58
        E 22 b6 07 57
        E 22 b6 07 56
        E 22 b6 07 56
        E 22 b6 07 55
        E 22 b6 07 54
        E 22 b6 07 53
        E 22 b6 07 51
        E 22 b6 07 51
        E 22 b6 07 4f
        E 22 b6 07 4e
        E 22 b6 07 4d
        E 22 b6 07 4b
        E 22 b6 07 49
        E 22 b6 07 48
        E 22 b6 07 46
        E 22 b6 07 44
        E 22 b6 07 42
        E 22 b6 07 40
        E 22 b6 07 3e
        E 22 b6 07 3c
        E 22 b6 07 3a
        E 22 b6 07 38
        E 22 b6 07 36
        E 22 b6 07 33
        E 22 b6 07 31
        E 22 b6 07 2f
        E 22 b6 07 2d
        E 22 b6 07 2b
        E 22 b6 07 29
        E 22 b6 07 27
        E 22 b6 07 25
        E 22 b6 07 22
        E 22 b6 07 20
        E 22 b6 07 1e
        E 22 b6 07 1c
        E 22 b6 07 1a
        E 22 b6 07 18
        E 22 b6 07 16
        E 22 b6 07 14
        E 22 b6 07 12
        E 22 b6 07 10
        E 22 b6 07 0f
        E 22 b6 07 0d
        E 22 b6 07 0b
        E 22 b6 07 0a
        E 22 b6 07 09
        E 22 b6 07 07
        E 22 b6 07 07
        E 22 b6 07 05
        E 22 b6 07 04
        E 22 b6 07 03
        E 22 b6 07 02
        E 22 b6 07 02
        E 22 b6 07 01
        E 22 b6 07 00
        E 22 b6 07 00
        E 22 b6 07 00
        E 22 b6 07 00
        E 22 b6 07 00
        E 22 b6 07 00
        E 22 b6 07 00
        E 22 b6 07 00
        E 22 b6 07 00
        E 22 b6 07 01
        E 22 b6 07 02
        E 22 b6 07 02
        E 22 b6 07 03
        E 22 b6 07 04
        E 22 b6 07 04
        E 22 b6 07 06
        E 22 b6 07 07
        E 22 b6 07 08
        E 22 b6 07 09
        E 22 b6 07 0b
        E 22 b6 07 0c
        E 22 b6 07 0e
        E 22 b6 07 10
        E 22 b6 07 11
        E 22 b6 07 13
        E 22 b6 07 15
        E 22 b6 07 17
        E 22 b6 07 19
        E 22 b6 07 1b
        E 22 b6 07 1d
        E 22 b6 07 1f
        E 22 b6 07 21
        E 22 b6 07 23
        E 22 b6 07 25
        E 22 b6 07 27
        E 22 b6 07 2a
        E 22 b6 07 2c
        E 22 b6 07 20
        E 22 b6 07 21
        E 22 b6 07 23
        E 22 b6 07 24
        E 22 b6 07 26
        E 22 b6 07 27
        E 22 b6 07 29
        E 22 b6 07 2a
        E 22 b6 07 2c
        E 22 b6 07 2d
        E 22 b6 07 2f
        E 22 b6 07 30
        E 22 b6 07 31
        E 22 b6 07 33
        E 22 b6 07 34
        E 22 b6 07 35
        E 22 b6 07 36
        E 22 b6 07 37
        E 22 b6 07 38
        E 22 b6 07 39
        E 22 b6 07 3a
        E 22 b6 07 3b
        E 22 b6 07 3c
        E 22 b6 07 3c
        E 22 b6 07 3d
        E 22 b6 07 3d
        E 22 b6 07 3e
        E 22 b6 07 3e
        E 22 b6 07 3f
        E 22 b6 07 3f
        E 22 b6 07 3f
        E 22 b6 07 3f
        E 22 b6 07 3f
        E 22 b6 07 3f
        E 22 b6 07 3f
        E 22 b6 07 3f
        E 22 b6 07 3f
        E 22 b6 07 3e
        E 22 b6 07 3e
        E 22 b6 07 3d
        E 22 b6 07 3d
        E 22 b6 07 3c
        E 22 b6 07 3b
        E 22 b6 07 3a
        E 22 b6 07 3a
        E 22 b6 07 39
        E 22 b6 07 38
        E 22 b6 07 37
        E 22 b6 07 36
        E 22 b6 07 34
        E 22 b6 07 33
        E 22 b6 07 32
        E 22 b6 07 31
        E 22 b6 07 2f
        E 22 b6 07 2e
        E 22 b6 07 2c
        E 22 b6 07 2b
        E 22 b6 07 2a
        E 22 b6 07 28
        E 22 b6 07 27
        E 22 b6 07 25
        E 22 b6 07 23
        E 22 b6 07 22
        E 22 b6 07 20
        E 22 b6 07 1f
        E 22 b6 07 1d
        E 22 b6 07 1c
        E 22 b6 07 1a
        E 22 b6 07 18
        E 22 b6 07 17
        E 22 b6 07 15
        E 22 b6 07 14
        E 22 b6 07 13
        E 22 b6 07 11
        E 22 b6 07 10
        E 22 b6 07 0e
        E 22 b6 07 0d
        E 22 b6 07 0c
        E 22 b6 07 0b
        E 22 b6 07 09
        E 22 b6 07 08
        E 22 b6 07 07
        E 22 b6 07 06
        E 22 b6 07 05
        E 22 b6 07 05
        E 22 b6 07 04
        E 22 b6 07 03
        E 22 b6 07 02
        E 22 b6 07 02
        E 22 b6 07 01
        E 22 b6 07 01
        E 22 b6 07 00
        E 22 b6 07 00
        E 22 b6 07 00
        E 22 b6 07 00
        E 22 b6 07 00
        E 22 b6 07 00
        E 22 b6 07 00
        E 22 b6 07 00
        E 22 b6 07 00
        E 22 b6 07 01
        E 22 b6 07 01
        E 22 b6 07 02
        E 22 b6 07 02
        E 22 b6 07 03
        E 22 b6 07 03
        E 22 b6 07 04
        E 22 b6 07 05
        E 22 b6 07 06
        E 22 b6 07 07
        E 22 b6 07 08
        E 22 b6 07 09
        E 22 b6 07 0a
        E 22 b6 07 0b
        E 22 b6 07 0c
        E 22 b6 07 0e
        E 22 b6 07 0f
        E 22 b6 07 10
        E 22 b6 07 12
        E 22 b6 07 13
        E 22 b6 07 15
        E 22 b6 07 16
        E 22 b6 07 18
        E 22 b6 07 19
        E 22 b6 07 1b
        E 22 b6 07 1c
        E 22 b6 07 1e
        E 22 b6 07 20
        E 31 b6 07 20
        E 31 b6 07 21
        E 31 b6 07 23
        E 31 b6 07 24
        E 31 b6 07 26
        E 31 b6 07 27
        E 31 b6 07 29
        E 31 b6 07 2a
        E 31 b6 07 2c
        E 31 b6 07 2d
        E 31 b6 07 2f
        E 31 b6 07 30
        E 31 b6 07 31
        E 31 b6 07 33
        E 31 b6 07 34
        E 31 b6 07 35
        E 31 b6 07 36
        E 31 b6 07 37
        E 31 b6 07 38
        E 31 b6 07 39
        E 31 b6 07 3a
        E 31 b6 07 3b
        E 31 b6 07 3c
        E 31 b6 07 3c
        E 31 b6 07 3d
        E 31 b6 07 3d
        E 31 b6 07 3e
        E 31 b6 07 3e
        E 31 b6 07 3f
        E 31 b6 07 3f
        E 31 b6 07 3f
        E 31 b6 07 3f
        E 31 b6 07 3f
        E 31 b6 07 3f
        E 31 b6 07 3f
        E 31 b6 07 3f
        E 31 b6 07 3f
        E 31 b6 07 3e
        E 31 b6 07 3e
        E 31 b6 07 3d
        E 31 b6 07 3d
        E 31 b6 07 3c
        E 31 b6 07 3b
        E 31 b6 07 3a
        E 31 b6 07 3a
        E 31 b6 07 39
        E 31 b6 07 38
        E 31 b6 07 37
        E 31 b6 07 36
        E 31 b6 07 34
        E 31 b6 07 33
        E 31 b6 07 32
        E 31 b6 07 31
        E 31 b6 07 2f
        E 31 b6 07 2e
        E 31 b6 07 2c
        E 31 b6 07 2b
        E 31 b6 07 2a
        E 31 b6 07 28
        E 31 b6 07 27
        E 31 b6 07 25
        E 31 b6 07 23
        E 31 b6 07 22
        E 31 b6 07 20
        E 31 b6 07 1f
        E 31 b6 07 1d
        E 31 b6 07 1c
        E 31 b6 07 1a
        E 31 b6 07 18
        E 31 b6 07 17
        E 31 b6 07 15
        E 31 b6 07 14
        E 31 b6 07 13
        E 31 b6 07 11
        E 31 b6 07 10
        E 31 b6 07 0e
        E 31 b6 07 0d
        E 31 b6 07 0c
        E 31 b6 07 0b
        E 31 b6 07 09
        E 31 b6 07 08
        E 31 b6 07 07
        E 31 b6 07 06
        E 31 b6 07 05
        E 31 b6 07 05
        E 31 b6 07 04
        E 31 b6 07 03
        E 31 b6 07 02
        E 31 b6 07 02
        E 31 b6 07 01
        E 31 b6 07 01
        E 31 b6 07 00
        E 31 b6 07 00
        E 31 b6 07 00
        E 31 b6 07 00
        E 31 b6 07 00
        E 31 b6 07 00
        E 31 b6 07 00
        E 31 b6 07 00
        E 31 b6 07 00
        E 31 b6 07 01
        E 31 b6 07 01
        E 31 b6 07 02
        E 31 b6 07 02
        E 31 b6 07 03
        E 31 b6 07 03
        E 31 b6 07 04
        E 31 b6 07 05
        E 31 b6 07 06
        E 31 b6 07 07
        E 31 b6 07 08
        E 31 b6 07 09
        E 31 b6 07 0a
        E 31 b6 07 0b
        E 31 b6 07 0c
        E 31 b6 07 0e
        E 31 b6 07 0f
        E 31 b6 07 10
        E 31 b6 07 12
        E 31 b6 07 13
        E 31 b6 07 15
        E 31 b6 07 16
        E 31 b6 07 18
        E 31 b6 07 19
        E 31 b6 07 1b
        E 31 b6 07 1c
        E 31 b6 07 1e
        E 31 b6 07 20
        E 36 b6 07 40
        E 36 b6 07 43
        E 36 b6 07 46
        E 36 b6 07 49
        E 36 b6 07 4c
        E 36 b6 07 4f
        E 36 b6 07 52
        E 36 b6 07 55
        E 36 b6 07 58
        E 36 b6 07 5b
        E 36 b6 07 5e
        E 36 b6 07 60
        E 36 b6 07 63
        E 36 b6 07 66
        E 36 b6 07 68
        E 36 b6 07 6a
        E 36 b6 07 6d
        E 36 b6 07 6f
        E 36 b6 07 71
        E 36 b6 07 73
        E 36 b6 07 75
        E 36 b6 07 76
        E 36 b6 07 78
        E 36 b6 07 79
        E 36 b6 07 7a
        E 36 b6 07 7b
        E 36 b6 07 7c
        E 36 b6 07 7d
        E 36 b6 07 7e
        E 36 b6 07 7e
        E 36 b6 07 7f
        E 36 b6 07 7f
        E 36 b6 07 7f
        E 36 b6 07 7f
        E 36 b6 07 7f
        E 36 b6 07 7e
        E 36 b6 07 7e
        E 36 b6 07 7d
        E 36 b6 07 7c
        E 36 b6 07 7b
        E 36 b6 07 7a
        E 36 b6 07 78
        E 36 b6 07 77
        E 36 b6 07 75
        E 36 b6 07 74
        E 36 b6 07 72
        E 36 b6 07 70
        E 36 b6 07 6e
        E 36 b6 07 6c
        E 36 b6 07 69
        E 36 b6 07 67
        E 36 b6 07 64
        E 36 b6 07 62
        E 36 b6 07 5f
        E 36 b6 07 5c
        E 36 b6 07 59
        E 36 b6 07 57
        E 36 b6 07 54
        E 36 b6 07 51
        E 36 b6 07 4e
        E 36 b6 07 4a
        E 36 b6 07 47
        E 36 b6 07 44
        E 36 b6 07 41
        E 36 b6 07 3e
        E 36 b6 07 3b
        E 36 b6 07 38
        E 36 b6 07 35
        E 36 b6 07 31
        E 36 b6 07 2e
        E 36 b6 07 2b
        E 36 b6 07 28
        E 36 b6 07 26
        E 36 b6 07 23
        E 36 b6 07 20
        E 36 b6 07 1d
        E 36 b6 07 1b
        E 36 b6 07 18
        E 36 b6 07 16
        E 36 b6 07 13
        E 36 b6 07 11
        E 36 b6 07 0f
        E 36 b6 07 0d
        E 36 b6 07 0b
        E 36 b6 07 0a
        E 36 b6 07 08
        E 36 b6 07 07
        E 36 b6 07 05
        E 36 b6 07 04
        E 36 b6 07 03
        E 36 b6 07 02
        E 36 b6 07 01
        E 36 b6 07 01
        E 36 b6 07 00
        E 36 b6 07 00
        E 36 b6 07 00
        E 36 b6 07 00
        E 36 b6 07 00
        E 36 b6 07 01
        E 36 b6 07 01
        E 36 b6 07 02
        E 36 b6 07 03
        E 36 b6 07 04
        E 36 b6 07 05
        E 36 b6 07 06
        E 36 b6 07 07
        E 36 b6 07 09
        E 36 b6 07 0a
        E 36 b6 07 0c
        E 36 b6 07 0e
        E 36 b6 07 10
        E 36 b6 07 12
        E 36 b6 07 15
        E 36 b6 07 17
        E 36 b6 07 19
        E 36 b6 07 1c
        E 36 b6 07 1f
        E 36 b6 07 21
        E 36 b6 07 24
        E 36 b6 07 27
        E 36 b6 07 2a
        E 36 b6 07 2d
        E 36 b6 07 30
        E 36 b6 07 33
        E 36 b6 07 36
        E 36 b6 07 39
        E 36 b6 07 3c
        E 36 b6 07 40
        E 4 b6 07 39
        E 4 b6 07 3c
        E 4 b6 07 3f
        E 4 b6 07 41
        E 4 b6 07 44
        E 4 b6 07 47
        E 4 b6 07 49
        E 4 b6 07 4c
        E 4 b6 07 4f
        E 4 b6 07 51
        E 4 b6 07 54
        E 4 b6 07 56
        E 4 b6 07 59
        E 4 b6 07 5b
        E 4 b6 07 5d
        E 4 b6 07 5f
        E 4 b6 07 62
        E 4 b6 07 63
        E 4 b6 07 65
        E 4 b6 07 67
        E 4 b6 07 69
        E 4 b6 07 6a
        E 4 b6 07 6c
        E 4 b6 07 6c
        E 4 b6 07 6d
        E 4 b6 07 6e
        E 4 b6 07 6f
        E 4 b6 07 70
        E 4 b6 07 71
        E 4 b6 07 71
        E 4 b6 07 72
        E 4 b6 07 72
        E 4 b6 07 72
        E 4 b6 07 72
        E 4 b6 07 72
        E 4 b6 07 71
        E 4 b6 07 71
        E 4 b6 07 70
        E 4 b6 07 6f
        E 4 b6 07 6e
        E 4 b6 07 6d
        E 4 b6 07 6c
        E 4 b6 07 6b
        E 4 b6 07 69
        E 4 b6 07 68
        E 4 b6 07 66
        E 4 b6 07 64
        E 4 b6 07 63
        E 4 b6 07 61
        E 4 b6 07 5e
        E 4 b6 07 5c
        E 4 b6 07 5a
        E 4 b6 07 58
        E 4 b6 07 55
        E 4 b6 07 52
        E 4 b6 07 50
        E 4 b6 07 4e
        E 4 b6 07 4b
        E 4 b6 07 48
        E 4 b6 07 46
        E 4 b6 07 42
        E 4 b6 07 3f
        E 4 b6 07 3d
        E 4 b6 07 3a
        E 4 b6 07 37
        E 4 b6 07 35
        E 4 b6 07 32
        E 4 b6 07 2f
        E 4 b6 07 2c
        E 4 b6 07 29
        E 4 b6 07 26
        E 4 b6 07 24
        E 4 b6 07 22
        E 4 b6 07 1f
        E 4 b6 07 1c
        E 4 b6 07 1a
        E 4 b6 07 18
        E 4 b6 07 15
        E 4 b6 07 13
        E 4 b6 07 11
        E 4 b6 07 0f
        E 4 b6 07 0d
        E 4 b6 07 0b
        E 4 b6 07 09
        E 4 b6 07 09
        E 4 b6 07 07
        E 4 b6 07 06
        E 4 b6 07 04
        E 4 b6 07 03
        E 4 b6 07 02
        E 4 b6 07 01
        E 4 b6 07 00
        E 4 b6 07 00
        E 4 b6 07 00
        E 4 b6 07 00
        E 4 b6 07 00
        E 4 b6 07 00
        E 4 b6 07 00
        E 4 b6 07 00
        E 4 b6 07 00
        E 4 b6 07 01
        E 4 b6 07 02
        E 4 b6 07 03
        E 4 b6 07 04
        E 4 b6 07 05
        E 4 b6 07 06
        E 4 b6 07 08
        E 4 b6 07 09
        E 4 b6 07 0a
        E 4 b6 07 0c
        E 4 b6 07 0e
        E 4 b6 07 10
        E 4 b6 07 12
        E 4 b6 07 14
        E 4 b6 07 16
        E 4 b6 07 19
        E 4 b6 07 1b
        E 4 b6 07 1d
        E 4 b6 07 20
        E 4 b6 07 23
        E 4 b6 07 25
        E 4 b6 07 28
        E 4 b6 07 2b
        E 4 b6 07 2d
        E 4 b6 07 30
        E 4 b6 07 33
        E 4 b6 07 36
        E 4 b6 07 39
        E 18 b6 07 40
        E 18 b6 07 43
        E 18 b6 07 46
        E 18 b6 07 49
        E 18 b6 07 4c
        E 18 b6 07 4f
        E 18 b6 07 52
        E 18 b6 07 55
        E 18 b6 07 58
        E 18 b6 07 5b
        E 18 b6 07 5e
        E 18 b6 07 60
        E 18 b6 07 63
        E 18 b6 07 66
        E 18 b6 07 68
        E 18 b6 07 6a
        E 18 b6 07 6d
        E 18 b6 07 6f
        E 18 b6 07 71
        E 18 b6 07 73
        E 18 b6 07 75
        E 18 b6 07 76
        E 18 b6 07 78
        E 18 b6 07 79
        E 18 b6 07 7a
        E 18 b6 07 7b
        E 18 b6 07 7c
        E 18 b6 07 7d
        E 18 b6 07 7e
        E 18 b6 07 7e
        E 18 b6 07 7f
        E 18 b6 07 7f
        E 18 b6 07 7f
        E 18 b6 07 7f
        E 18 b6 07 7f
        E 18 b6 07 7e
        E 18 b6 07 7e
        E 18 b6 07 7d
        E 18 b6 07 7c
        E 18 b6 07 7b
        E 18 b6 07 7a
        E 18 b6 07 78
        E 18 b6 07 77
        E 18 b6 07 75
        E 18 b6 07 74
        E 18 b6 07 72
        E 18 b6 07 70
        E 18 b6 07 6e
        E 18 b6 07 6c
        E 18 b6 07 69
        E 18 b6 07 67
        E 18 b6 07 64
        E 18 b6 07 62
        E 18 b6 07 5f
        E 18 b6 07 5c
        E 18 b6 07 59
        E 18 b6 07 57
        E 18 b6 07 54
        E 18 b6 07 51
        E 18 b6 07 4e
        E 18 b6 07 4a
        E 18 b6 07 47
        E 18 b6 07 44
        E 18 b6 07 41
        E 18 b6 07 3e
        E 18 b6 07 3b
        E 18 b6 07 38
        E 18 b6 07 35
        E 18 b6 07 31
        E 18 b6 07 2e
        E 18 b6 07 2b
        E 18 b6 07 28
        E 18 b6 07 26
        E 18 b6 07 23
        E 18 b6 07 20
        E 18 b6 07 1d
        E 18 b6 07 1b
        E 18 b6 07 18
        E 18 b6 07 16
        E 18 b6 07 13
        E 18 b6 07 11
        E 18 b6 07 0f
        E 18 b6 07 0d
        E 18 b6 07 0b
        E 18 b6 07 0a
        E 18 b6 07 08
        E 18 b6 07 07
        E 18 b6 07 05
        E 18 b6 07 04
        E 18 b6 07 03
        E 18 b6 07 02
        E 18 b6 07 01
        E 18 b6 07 01
        E 18 b6 07 00
        E 18 b6 07 00
        E 18 b6 07 00
        E 18 b6 07 00
        E 18 b6 07 00
        E 18 b6 07 01
        E 18 b6 07 01
        E 18 b6 07 02
        E 18 b6 07 03
        E 18 b6 07 04
        E 18 b6 07 05
        E 18 b6 07 06
        E 18 b6 07 07
        E 18 b6 07 09
        E 18 b6 07 0a
        E 18 b6 07 0c
        E 18 b6 07 0e
        E 18 b6 07 10
        E 18 b6 07 12
        E 18 b6 07 15
        E 18 b6 07 17
        E 18 b6 07 19
        E 18 b6 07 1c
        E 18 b6 07 1f
        E 18 b6 07 21
        E 18 b6 07 24
        E 18 b6 07 27
        E 18 b6 07 2a
        E 18 b6 07 2d
        E 18 b6 07 30
        E 18 b6 07 33
        E 18 b6 07 36
        E 18 b6 07 39
        E 18 b6 07 3c
        E 18 b6 07 40
        E 31 b6 07 39
        E 31 b6 07 3c
        E 31 b6 07 3f
        E 31 b6 07 41
        E 31 b6 07 44
        E 31 b6 07 47
        E 31 b6 07 49
        E 31 b6 07 4c
        E 31 b6 07 4f
        E 31 b6 07 51
        E 31 b6 07 54
        E 31 b6 07 56
        E 31 b6 07 59
        E 31 b6 07 5b
        E 31 b6 07 5d
        E 31 b6 07 5f
        E 31 b6 07 62
        E 31 b6 07 63
        E 31 b6 07 65
        E 31 b6 07 67
        E 31 b6 07 69
        E 31 b6 07 6a
        E 31 b6 07 6c
        E 31 b6 07 6c
        E 31 b6 07 6d
        E 31 b6 07 6e
        E 31 b6 07 6f
        E 31 b6 07 70
        E 31 b6 07 71
        E 31 b6 07 71
        E 31 b6 07 72
        E 31 b6 07 72
        E 31 b6 07 72
        E 31 b6 07 72
        E 31 b6 07 72
        E 31 b6 07 71
        E 31 b6 07 71
        E 31 b6 07 70
        E 31 b6 07 6f
        E 31 b6 07 6e
        E 31 b6 07 6d
        E 31 b6 07 6c
        E 31 b6 07 6b
        E 31 b6 07 69
        E 31 b6 07 68
        E 31 b6 07 66
        E 31 b6 07 64
        E 31 b6 07 63
        E 31 b6 07 61
        E 31 b6 07 5e
        E 31 b6 07 5c
        E 31 b6 07 5a
        E 31 b6 07 58
        E 31 b6 07 55
        E 31 b6 07 52
        E 31 b6 07 50
        E 31 b6 07 4e
        E 31 b6 07 4b
        E 31 b6 07 48
        E 31 b6 07 46
        E 31 b6 07 42
        E 31 b6 07 3f
        E 31 b6 07 3d
        E 31 b6 07 3a
        E 31 b6 07 37
        E 31 b6 07 35
        E 31 b6 07 32
        E 31 b6 07 2f
        E 31 b6 07 2c
        E 31 b6 07 29
        E 31 b6 07 26
        E 31 b6 07 24
        E 31 b6 07 22
        E 31 b6 07 1f
        E 31 b6 07 1c
        E 31 b6 07 1a
        E 31 b6 07 18
        E 31 b6 07 15
        E 31 b6 07 13
        E 31 b6 07 11
        E 31 b6 07 0f
        E 31 b6 07 0d
        E 31 b6 07 0b
        E 31 b6 07 09
        E 31 b6 07 09
        E 31 b6 07 07
        E 31 b6 07 06
        E 31 b6 07 04
        E 31 b6 07 03
        E 31 b6 07 02
        E 31 b6 07 01
        E 31 b6 07 00
        E 31 b6 07 00
        E 31 b6 07 00
        E 31 b6 07 00
        E 31 b6 07 00
        E 31 b6 07 00
        E 31 b6 07 00
        E 31 b6 07 00
        E 31 b6 07 00
        E 31 b6 07 01
        E 31 b6 07 02
        E 31 b6 07 03
        E 31 b6 07 04
        E 31 b6 07 05
        E 31 b6 07 06
        E 31 b6 07 08
        E 31 b6 07 09
        E 31 b6 07 0a
        E 31 b6 07 0c
        E 31 b6 07 0e
        E 31 b6 07 10
        E 31 b6 07 12
        E 31 b6 07 14
        E 31 b6 07 16
        E 31 b6 07 19
        E 31 b6 07 1b
        E 31 b6 07 1d
        E 31 b6 07 20
        E 31 b6 07 23
        E 31 b6 07 25
        E 31 b6 07 28
        E 31 b6 07 2b
        E 31 b6 07 2d
        E 31 b6 07 30
        E 31 b6 07 33
        E 31 b6 07 36
        E 31 b6 07 39
        E 45 b6 07 2c
        E 45 b6 07 2e
        E 45 b6 07 31
        E 45 b6 07 33
        E 45 b6 07 35
        E 45 b6 07 37
        E 45 b6 07 39
        E 45 b6 07 3b
        E 45 b6 07 3d
        E 45 b6 07 3f
        E 45 b6 07 41
        E 45 b6 07 43
        E 45 b6 07 45
        E 45 b6 07 47
        E 45 b6 07 48
        E 45 b6 07 4a
        E 45 b6 07 4c
        E 45 b6 07 4d
        E 45 b6 07 4f
        E 45 b6 07 50
        E 45 b6 07 51
        E 45 b6 07 52
        E 45 b6 07 54
        E 45 b6 07 54
        E 45 b6 07 55
        E 45 b6 07 56
        E 45 b6 07 56
        E 45 b6 07 57
        E 45 b6 07 58
        E 45 b6 07 58
        E 45 b6 07 58
        E 45 b6 07 58
        E 45 b6 07 58
        E 45 b6 07 58
        E 45 b6 07 58
        E 45 b6 07 58
        E 45 b6 07 58
        E 45 b6 07 57
        E 45 b6 07 56
        E 45 b6 07 56
        E 45 b6 07 55
        E 45 b6 07 54
        E 45 b6 07 53
        E 45 b6 07 51
        E 45 b6 07 51
        E 45 b6 07 4f
        E 45 b6 07 4e
        E 45 b6 07 4d
        E 45 b6 07 4b
        E 45 b6 07 49
        E 45 b6 07 48
        E 45 b6 07 46
        E 45 b6 07 44
        E 45 b6 07 42
        E 45 b6 07 40
        E 45 b6 07 3e
        E 45 b6 07 3c
        E 45 b6 07 3a
        E 45 b6 07 38
        E 45 b6 07 36
        E 45 b6 07 33
        E 45 b6 07 31
        E 45 b6 07 2f
        E 45 b6 07 2d
        E 45 b6 07 2b
        E 45 b6 07 29
        E 45 b6 07 27
        E 45 b6 07 25
        E 45 b6 07 22
        E 45 b6 07 20
        E 45 b6 07 1e
        E 45 b6 07 1c
        E 45 b6 07 1a
        E 45 b6 07 18
        E 45 b6 07 16
        E 45 b6 07 14
        E 45 b6 07 12
        E 45 b6 07 10
        E 45 b6 07 0f
        E 45 b6 07 0d
        E 45 b6 07 0b
        E 45 b6 07 0a
        E 45 b6 07 09
        E 45 b6 07 07
        E 45 b6 07 07
        E 45 b6 07 05
        E 45 b6 07 04
        E 45 b6 07 03
        E 45 b6 07 02
        E 45 b6 07 02
        E 45 b6 07 01
        E 45 b6 07 00
        E 45 b6 07 00
        E 45 b6 07 00
        E 45 b6 07 00
        E 45 b6 07 00
        E 45 b6 07 00
        E 45 b6 07 00
        E 45 b6 07 00
        E 45 b6 07 00
        E 45 b6 07 01
        E 45 b6 07 02
        E 45 b6 07 02
        E 45 b6 07 03
        E 45 b6 07 04
        E 45 b6 07 04
        E 45 b6 07 06
        E 45 b6 07 07
        E 45 b6 07 08
        E 45 b6 07 09
        E 45 b6 07 0b
        E 45 b6 07 0c
        E 45 b6 07 0e
        E 45 b6 07 10
        E 45 b6 07 11
        E 45 b6 07 13
        E 45 b6 07 15
        E 45 b6 07 17
        E 45 b6 07 19
        E 45 b6 07 1b
        E 45 b6 07 1d
        E 45 b6 07 1f
        E 45 b6 07 21
        E 45 b6 07 23
        E 45 b6 07 25
        E 45 b6 07 27
        E 45 b6 07 2a
        E 45 b6 07 2c
        E 40 b6 07 33
        E 40 b6 07 35
        E 40 b6 07 37
        E 40 b6 07 3a
        E 40 b6 07 3c
        E 40 b6 07 3f
        E 40 b6 07 41
        E 40 b6 07 44
        E 40 b6 07 46
        E 40 b6 07 48
        E 40 b6 07 4b
        E 40 b6 07 4c
        E 40 b6 07 4f
        E 40 b6 07 51
        E 40 b6 07 53
        E 40 b6 07 54
        E 40 b6 07 57
        E 40 b6 07 58
        E 40 b6 07 5a
        E 40 b6 07 5b
        E 40 b6 07 5d
        E 40 b6 07 5e
        E 40 b6 07 5f
        E 40 b6 07 60
        E 40 b6 07 61
        E 40 b6 07 62
        E 40 b6 07 63
        E 40 b6 07 63
        E 40 b6 07 64
        E 40 b6 07 64
        E 40 b6 07 65
        E 40 b6 07 65
        E 40 b6 07 65
        E 40 b6 07 65
        E 40 b6 07 65
        E 40 b6 07 64
        E 40 b6 07 64
        E 40 b6 07 63
        E 40 b6 07 63
        E 40 b6 07 62
        E 40 b6 07 61
        E 40 b6 07 5f
        E 40 b6 07 5f
        E 40 b6 07 5d
        E 40 b6 07 5c
        E 40 b6 07 5b
        E 40 b6 07 59
        E 40 b6 07 57
        E 40 b6 07 56
        E 40 b6 07 54
        E 40 b6 07 52
        E 40 b6 07 50
        E 40 b6 07 4e
        E 40 b6 07 4c
        E 40 b6 07 49
        E 40 b6 07 47
        E 40 b6 07 45
        E 40 b6 07 43
        E 40 b6 07 40
        E 40 b6 07 3e
        E 40 b6 07 3b
        E 40 b6 07 38
        E 40 b6 07 36
        E 40 b6 07 33
        E 40 b6 07 31
        E 40 b6 07 2f
        E 40 b6 07 2c
        E 40 b6 07 2a
        E 40 b6 07 27
        E 40 b6 07 24
        E 40 b6 07 22
        E 40 b6 07 1f
        E 40 b6 07 1e
        E 40 b6 07 1b
        E 40 b6 07 19
        E 40 b6 07 17
        E 40 b6 07 15
        E 40 b6 07 13
        E 40 b6 07 11
        E 40 b6 07 0f
        E 40 b6 07 0d
        E 40 b6 07 0b
        E 40 b6 07 0a
        E 40 b6 07 08
        E 40 b6 07 07
        E 40 b6 07 06
        E 40 b6 07 05
        E 40 b6 07 03
        E 40 b6 07 03
        E 40 b6 07 02
        E 40 b6 07 01
        E 40 b6 07 00
        E 40 b6 07 00
        E 40 b6 07 00
        E 40 b6 07 00
        E 40 b6 07 00
        E 40 b6 07 00
        E 40 b6 07 00
        E 40 b6 07 00
        E 40 b6 07 00
        E 40 b6 07 01
        E 40 b6 07 02
        E 40 b6 07 03
        E 40 b6 07 03
        E 40 b6 07 04
        E 40 b6 07 05
        E 40 b6 07 07
        E 40 b6 07 07
        E 40 b6 07 09
        E 40 b6 07 0b
        E 40 b6 07 0c
        E 40 b6 07 0e
        E 40 b6 07 10
        E 40 b6 07 12
        E 40 b6 07 14
        E 40 b6 07 16
        E 40 b6 07 18
        E 40 b6 07 1a
        E 40 b6 07 1c
        E 40 b6 07 1f
        E 40 b6 07 21
        E 40 b6 07 24
        E 40 b6 07 26
        E 40 b6 07 28
        E 40 b6 07 2b
        E 40 b6 07 2d
        E 40 b6 07 2f
        E 40 b6 07 33
        E 45 b6 07 06
        E 45 b6 07 06
        E 45 b6 07 07
        E 45 b6 07 07
        E 45 b6 07 07
        E 45 b6 07 07
        E 45 b6 07 08
        E 45 b6 07 08
        E 45 b6 07 08
        E 45 b6 07 09
        E 45 b6 07 09
        E 45 b6 07 09
        E 45 b6 07 09
        E 45 b6 07 0a
        E 45 b6 07 0a
        E 45 b6 07 0a
        E 45 b6 07 0a
        E 45 b6 07 0b
        E 45 b6 07 0b
        E 45 b6 07 0b
        E 45 b6 07 0b
        E 45 b6 07 0b
        E 45 b6 07 0c
        E 45 b6 07 0c
        E 45 b6 07 0c
        E 45 b6 07 0c
        E 45 b6 07 0c
        E 45 b6 07 0c
        E 45 b6 07 0c
        E 45 b6 07 0c
        E 45 b6 07 0c
        E 45 b6 07 0c
        E 45 b6 07 0c
        E 45 b6 07 0c
        E 45 b6 07 0c
        E 45 b6 07 0c
        E 45 b6 07 0c
        E 45 b6 07 0c
        E 45 b6 07 0c
        E 45 b6 07 0c
        E 45 b6 07 0c
        E 45 b6 07 0c
        E 45 b6 07 0b
        E 45 b6 07 0b
        E 45 b6 07 0b
        E 45 b6 07 0b
        E 45 b6 07 0b
        E 45 b6 07 0b
        E 45 b6 07 0a
        E 45 b6 07 0a
        E 45 b6 07 0a
        E 45 b6 07 0a
        E 45 b6 07 09
        E 45 b6 07 09
        E 45 b6 07 09
        E 45 b6 07 08
        E 45 b6 07 08
        E 45 b6 07 08
        E 45 b6 07 08
        E 45 b6 07 07
        E 45 b6 07 07
        E 45 b6 07 07
        E 45 b6 07 06
        E 45 b6 07 06
        E 45 b6 07 06
        E 45 b6 07 05
        E 45 b6 07 05
        E 45 b6 07 05
        E 45 b6 07 04
        E 45 b6 07 04
        E 45 b6 07 04
        E 45 b6 07 04
        E 45 b6 07 03
        E 45 b6 07 03
        E 45 b6 07 03
        E 45 b6 07 02
        E 45 b6 07 02
        E 45 b6 07 02
        E 45 b6 07 02
        E 45 b6 07 01
        E 45 b6 07 01
        E 45 b6 07 01
        E 45 b6 07 01
        E 45 b6 07 01
        E 45 b6 07 01
        E 45 b6 07 00
        E 45 b6 07 00
        E 45 b6 07 00
        E 45 b6 07 00
        E 45 b6 07 00
        E 45 b6 07 00
        E 45 b6 07 00
        E 45 b6 07 00
        E 45 b6 07 00
        E 45 b6 07 00
        E 45 b6 07 00
        E 45 b6 07 00
        E 45 b6 07 00
        E 45 b6 07 00
        E 45 b6 07 00
        E 45 b6 07 00
        E 45 b6 07 00
        E 45 b6 07 00
        E 45 b6 07 00
        E 45 b6 07 00
        E 45 b6 07 00
        E 45 b6 07 00
        E 45 b6 07 01
        E 45 b6 07 01
        E 45 b6 07 01
        E 45 b6 07 01
        E 45 b6 07 01
        E 45 b6 07 02
        E 45 b6 07 02
        E 45 b6 07 02
        E 45 b6 07 02
        E 45 b6 07 03
        E 45 b6 07 03
        E 45 b6 07 03
        E 45 b6 07 03
        E 45 b6 07 04
        E 45 b6 07 04
        E 45 b6 07 04
        E 45 b6 07 05
        E 45 b6 07 05
        E 45 b6 07 05
        E 45 b6 07 06
        E 45 b6 07 06
        E 40 b6 07 19
        E 40 b6 07 1a
        E 40 b6 07 1c
        E 40 b6 07 1d
        E 40 b6 07 1e
        E 40 b6 07 1f
        E 40 b6 07 20
        E 40 b6 07 22
        E 40 b6 07 23
        E 40 b6 07 24
        E 40 b6 07 25
        E 40 b6 07 26
        E 40 b6 07 27
        E 40 b6 07 28
        E 40 b6 07 29
        E 40 b6 07 2a
        E 40 b6 07 2b
        E 40 b6 07 2c
        E 40 b6 07 2d
        E 40 b6 07 2e
        E 40 b6 07 2e
        E 40 b6 07 2f
        E 40 b6 07 30
        E 40 b6 07 30
        E 40 b6 07 30
        E 40 b6 07 31
        E 40 b6 07 31
        E 40 b6 07 32
        E 40 b6 07 32
        E 40 b6 07 32
        E 40 b6 07 32
        E 40 b6 07 32
        E 40 b6 07 32
        E 40 b6 07 32
        E 40 b6 07 32
        E 40 b6 07 32
        E 40 b6 07 32
        E 40 b6 07 32
        E 40 b6 07 31
        E 40 b6 07 31
        E 40 b6 07 30
        E 40 b6 07 30
        E 40 b6 07 2f
        E 40 b6 07 2e
        E 40 b6 07 2e
        E 40 b6 07 2d
        E 40 b6 07 2c
        E 40 b6 07 2c
        E 40 b6 07 2b
        E 40 b6 07 2a
        E 40 b6 07 29
        E 40 b6 07 28
        E 40 b6 07 27
        E 40 b6 07 26
        E 40 b6 07 24
        E 40 b6 07 23
        E 40 b6 07 22
        E 40 b6 07 21
        E 40 b6 07 20
        E 40 b6 07 1f
        E 40 b6 07 1d
        E 40 b6 07 1c
        E 40 b6 07 1b
        E 40 b6 07 1a
        E 40 b6 07 18
        E 40 b6 07 17
        E 40 b6 07 16
        E 40 b6 07 15
        E 40 b6 07 13
        E 40 b6 07 12
        E 40 b6 07 11
        E 40 b6 07 10
        E 40 b6 07 0f
        E 40 b6 07 0e
        E 40 b6 07 0c
        E 40 b6 07 0b
        E 40 b6 07 0a
        E 40 b6 07 09
        E 40 b6 07 08
        E 40 b6 07 07
        E 40 b6 07 06
        E 40 b6 07 06
        E 40 b6 07 05
        E 40 b6 07 04
        E 40 b6 07 04
        E 40 b6 07 03
        E 40 b6 07 02
        E 40 b6 07 02
        E 40 b6 07 01
        E 40 b6 07 01
        E 40 b6 07 00
        E 40 b6 07 00
        E 40 b6 07 00
        E 40 b6 07 00
        E 40 b6 07 00
        E 40 b6 07 00
        E 40 b6 07 00
        E 40 b6 07 00
        E 40 b6 07 00
        E 40 b6 07 00
        E 40 b6 07 00
        E 40 b6 07 01
        E 40 b6 07 01
        E 40 b6 07 02
        E 40 b6 07 02
        E 40 b6 07 02
        E 40 b6 07 03
        E 40 b6 07 04
        E 40 b6 07 04
        E 40 b6 07 05
        E 40 b6 07 06
        E 40 b6 07 07
        E 40 b6 07 08
        E 40 b6 07 09
        E 40 b6 07 0a
        E 40 b6 07 0b
        E 40 b6 07 0c
        E 40 b6 07 0d
        E 40 b6 07 0e
        E 40 b6 07 0f
        E 40 b6 07 10
        E 40 b6 07 12
        E 40 b6 07 13
        E 40 b6 07 14
        E 40 b6 07 15
        E 40 b6 07 16
        E 40 b6 07 18
        E 40 b6 07 19
        E 22 b6 07 2c
        E 22 b6 07 2e
        E 22 b6 07 31
        E 22 b6 07 33
        E 22 b6 07 35
        E 22 b6 07 37
        E 22 b6 07 39
        E 22 b6 07 3b
        E 22 b6 07 3d
        E 22 b6 07 3f
        E 22 b6 07 41
        E 22 b6 07 43
        E 22 b6 07 45
        E 22 b6 07 47
        E 22 b6 07 48
        E 22 b6 07 4a
        E 22 b6 07 4c
        E 22 b6 07 4d
        E 22 b6 07 4f
        E 22 b6 07 50
        E 22 b6 07 51
        E 22 b6 07 52
        E 22 b6 07 54
        E 22 b6 07 54
        E 22 b6 07 55
        E 22 b6 07 56
        E 22 b6 07 56
        E 22 b6 07 57
        E 22 b6 07 58
        E 22 b6 07 58
        E 22 b6 07 58
        E 22 b6 07 58
        E 22 b6 07 58
        E 22 b6 07 58
        E 22 b6 07 58
        E 22 b6 07 58
        E 22 b6 07 58
        E 22 b6 07 57
        E 22 b6 07 56
        E 22 b6 07 56
        E 22 b6 07 55
        E 22 b6 07 54
        E 22 b6 07 53
        E 22 b6 07 51
        E 22 b6 07 51
        E 22 b6 07 4f
        E 22 b6 07 4e
        E 22 b6 07 4d
        E 22 b6 07 4b
        E 22 b6 07 49
        E 22 b6 07 48
        E 22 b6 07 46
        E 22 b6 07 44
        E 22 b6 07 42
        E 22 b6 07 40
        E 22 b6 07 3e
        E 22 b6 07 3c
        E 22 b6 07 3a
        E 22 b6 07 38
        E 22 b6 07 36
        E 22 b6 07 33
        E 22 b6 07 31
        E 22 b6 07 2f
        E 22 b6 07 2d
        E 22 b6 07 2b
        E 22 b6 07 29
        E 22 b6 07 27
        E 22 b6 07 25
        E 22 b6 07 22
        E 22 b6 07 20
        E 22 b6 07 1e
        E 22 b6 07 1c
        E 22 b6 07 1a
        E 22 b6 07 18
        E 22 b6 07 16
        E 22 b6 07 14
        E 22 b6 07 12
        E 22 b6 07 10
        E 22 b6 07 0f
        E 22 b6 07 0d
        E 22 b6 07 0b
        E 22 b6 07 0a
        E 22 b6 07 09
        E 22 b6 07 07
        E 22 b6 07 07
        E 22 b6 07 05
        E 22 b6 07 04
        E 22 b6 07 03
        E 22 b6 07 02
        E 22 b6 07 02
        E 22 b6 07 01
        E 22 b6 07 00
        E 22 b6 07 00
        E 22 b6 07 00
        E 22 b6 07 00
        E 22 b6 07 00
        E 22 b6 07 00
        E 22 b6 07 00
        E 22 b6 07 00
        E 22 b6 07 00
        E 22 b6 07 01
        E 22 b6 07 02
        E 22 b6 07 02
        E 22 b6 07 03
        E 22 b6 07 04
        E 22 b6 07 04
        E 22 b6 07 06
        E 22 b6 07 07
        E 22 b6 07 08
        E 22 b6 07 09
        E 22 b6 07 0b
        E 22 b6 07 0c
        E 22 b6 07 0e
        E 22 b6 07 10
        E 22 b6 07 11
        E 22 b6 07 13
        E 22 b6 07 15
        E 22 b6 07 17
        E 22 b6 07 19
        E 22 b6 07 1b
        E 22 b6 07 1d
        E 22 b6 07 1f
        E 22 b6 07 21
        E 22 b6 07 23
        E 22 b6 07 25
        E 22 b6 07 27
        E 22 b6 07 2a
        E 22 b6 07 2c
        E 22 b6 07 20
        E 22 b6 07 21
        E 22 b6 07 23
        E 22 b6 07 24
        E 22 b6 07 26
        E 22 b6 07 27
        E 22 b6 07 29
        E 22 b6 07 2a
        E 22 b6 07 2c
        E 22 b6 07 2d
        E 22 b6 07 2f
        E 22 b6 07 30
        E 22 b6 07 31
        E 22 b6 07 33
        E 22 b6 07 34
        E 22 b6 07 35
        E 22 b6 07 36
        E 22 b6 07 37
        E 22 b6 07 38
        E 22 b6 07 39
        E 22 b6 07 3a
        E 22 b6 07 3b
        E 22 b6 07 3c
        E 22 b6 07 3c
        E 22 b6 07 3d
        E 22 b6 07 3d
        E 22 b6 07 3e
        E 22 b6 07 3e
        E 22 b6 07 3f
        E 22 b6 07 3f
        E 22 b6 07 3f
        E 22 b6 07 3f
        E 22 b6 07 3f
        E 22 b6 07 3f
        E 22 b6 07 3f
        E 22 b6 07 3f
        E 22 b6 07 3f
        E 22 b6 07 3e
        E 22 b6 07 3e
        E 22 b6 07 3d
        E 22 b6 07 3d
        E 22 b6 07 3c
        E 22 b6 07 3b
        E 22 b6 07 3a
        E 22 b6 07 3a
        E 22 b6 07 39
        E 22 b6 07 38
        E 22 b6 07 37
        E 22 b6 07 36
        E 22 b6 07 34
        E 22 b6 07 33
        E 22 b6 07 32
        E 22 b6 07 31
        E 22 b6 07 2f
        E 22 b6 07 2e
        E 22 b6 07 2c
        E 22 b6 07 2b
        E 22 b6 07 2a
        E 22 b6 07 28
        E 22 b6 07 27
        E 22 b6 07 25
        E 22 b6 07 23
        E 22 b6 07 22
        E 22 b6 07 20
        E 22 b6 07 1f
        E 22 b6 07 1d
        E 22 b6 07 1c
        E 22 b6 07 1a
        E 22 b6 07 18
        E 22 b6 07 17
        E 22 b6 07 15
        E 22 b6 07 14
        E 22 b6 07 13
        E 22 b6 07 11
        E 22 b6 07 10
        E 22 b6 07 0e
        E 22 b6 07 0d
        E 22 b6 07 0c
        E 22 b6 07 0b
        E 22 b6 07 09
        E 22 b6 07 08
        E 22 b6 07 07
        E 22 b6 07 06
        E 22 b6 07 05
        E 22 b6 07 05
        E 22 b6 07 04
        E 22 b6 07 03
        E 22 b6 07 02
        E 22 b6 07 02
        E 22 b6 07 01
        E 22 b6 07 01
        E 22 b6 07 00
        E 22 b6 07 00
        E 22 b6 07 00
        E 22 b6 07 00
        E 22 b6 07 00
        E 22 b6 07 00
        E 22 b6 07 00
        E 22 b6 07 00
        E 22 b6 07 00
        E 22 b6 07 01
        E 22 b6 07 01
        E 22 b6 07 02
        E 22 b6 07 02
        E 22 b6 07 03
        E 22 b6 07 03
        E 22 b6 07 04
        E 22 b6 07 05
        E 22 b6 07 06
        E 22 b6 07 07
        E 22 b6 07 08
        E 22 b6 07 09
        E 22 b6 07 0a
        E 22 b6 07 0b
        E 22 b6 07 0c
        E 22 b6 07 0e
        E 22 b6 07 0f
        E 22 b6 07 10
        E 22 b6 07 12
        E 22 b6 07 13
        E 22 b6 07 15
        E 22 b6 07 16
        E 22 b6 07 18
        E 22 b6 07 19
        E 22 b6 07 1b
        E 22 b6 07 1c
        E 22 b6 07 1e
        E 22 b6 07 20
        E 31 b6 07 20
        E 31 b6 07 21
        E 31 b6 07 23
        E 31 b6 07 24
        E 31 b6 07 26
        E 31 b6 07 27
        E 31 b6 07 29
        E 31 b6 07 2a
        E 31 b6 07 2c
        E 31 b6 07 2d
        E 31 b6 07 2f
        E 31 b6 07 30
        E 31 b6 07 31
        E 31 b6 07 33
        E 31 b6 07 34
        E 31 b6 07 35
        E 31 b6 07 36
        E 31 b6 07 37
        E 31 b6 07 38
        E 31 b6 07 39
        E 31 b6 07 3a
        E 31 b6 07 3b
        E 31 b6 07 3c
        E 31 b6 07 3c
        E 31 b6 07 3d
        E 31 b6 07 3d
        E 31 b6 07 3e
        E 31 b6 07 3e
        E 31 b6 07 3f
        E 31 b6 07 3f
        E 31 b6 07 3f
        E 31 b6 07 3f
        E 31 b6 07 3f
        E 31 b6 07 3f
        E 31 b6 07 3f
        E 31 b6 07 3f
        E 31 b6 07 3f
        E 31 b6 07 3e
        E 31 b6 07 3e
        E 31 b6 07 3d
        E 31 b6 07 3d
        E 31 b6 07 3c
        E 31 b6 07 3b
        E 31 b6 07 3a
        E 31 b6 07 3a
        E 31 b6 07 39
        E 31 b6 07 38
        E 31 b6 07 37
        E 31 b6 07 36
        E 31 b6 07 34
        E 31 b6 07 33
        E 31 b6 07 32
        E 31 b6 07 31
        E 31 b6 07 2f
        E 31 b6 07 2e
        E 31 b6 07 2c
        E 31 b6 07 2b
        E 31 b6 07 2a
        E 31 b6 07 28
        E 31 b6 07 27
        E 31 b6 07 25
        E 31 b6 07 23
        E 31 b6 07 22
        E 31 b6 07 20
        E 31 b6 07 1f
        E 31 b6 07 1d
        E 31 b6 07 1c
        E 31 b6 07 1a
        E 31 b6 07 18
        E 31 b6 07 17
        E 31 b6 07 15
        E 31 b6 07 14
        E 31 b6 07 13
        E 31 b6 07 11
        E 31 b6 07 10
        E 31 b6 07 0e
        E 31 b6 07 0d
        E 31 b6 07 0c
        E 31 b6 07 0b
        E 31 b6 07 09
        E 31 b6 07 08
        E 31 b6 07 07
        E 31 b6 07 06
        E 31 b6 07 05
        E 31 b6 07 05
        E 31 b6 07 04
        E 31 b6 07 03
        E 31 b6 07 02
        E 31 b6 07 02
        E 31 b6 07 01
        E 31 b6 07 01
        E 31 b6 07 00
        E 31 b6 07 00
        E 31 b6 07 00
        E 31 b6 07 00
        E 31 b6 07 00
        E 31 b6 07 00
        E 31 b6 07 00
        E 31 b6 07 00
        E 31 b6 07 00
        E 31 b6 07 01
        E 31 b6 07 01
        E 31 b6 07 02
        E 31 b6 07 02
        E 31 b6 07 03
        E 31 b6 07 03
        E 31 b6 07 04
        E 31 b6 07 05
        E 31 b6 07 06
        E 31 b6 07 07
        E 31 b6 07 08
        E 31 b6 07 09
        E 31 b6 07 0a
        E 31 b6 07 0b
        E 31 b6 07 0c
        E 31 b6 07 0e
        E 31 b6 07 0f
        E 31 b6 07 10
        E 31 b6 07 12
        E 31 b6 07 13
        E 31 b6 07 15
        E 31 b6 07 16
        E 31 b6 07 18
        E 31 b6 07 19
        E 31 b6 07 1b
        E 31 b6 07 1c
        E 31 b6 07 1e
        E 31 b6 07 20
        E 36 b6 07 40
        E 36 b6 07 43
        E 36 b6 07 46
        E 36 b6 07 49
        E 36 b6 07 4c
        E 36 b6 07 4f
        E 36 b6 07 52
        E 36 b6 07 55
        E 36 b6 07 58
        E 36 b6 07 5b
        E 36 b6 07 5e
        E 36 b6 07 60
        E 36 b6 07 63
        E 36 b6 07 66
        E 36 b6 07 68
        E 36 b6 07 6a
        E 36 b6 07 6d
        E 36 b6 07 6f
        E 36 b6 07 71
        E 36 b6 07 73
        E 36 b6 07 75
        E 36 b6 07 76
        E 36 b6 07 78
        E 36 b6 07 79
        E 36 b6 07 7a
        E 36 b6 07 7b
        E 36 b6 07 7c
        E 36 b6 07 7d
        E 36 b6 07 7e
        E 36 b6 07 7e
        E 36 b6 07 7f
        E 36 b6 07 7f
        E 36 b6 07 7f
        E 36 b6 07 7f
        E 36 b6 07 7f
        E 36 b6 07 7e
        E 36 b6 07 7e
        E 36 b6 07 7d
        E 36 b6 07 7c
        E 36 b6 07 7b
        E 36 b6 07 7a
        E 36 b6 07 78
        E 36 b6 07 77
        E 36 b6 07 75
        E 36 b6 07 74
        E 36 b6 07 72
        E 36 b6 07 70
        E 36 b6 07 6e
        E 36 b6 07 6c
        E 36 b6 07 69
        E 36 b6 07 67
        E 36 b6 07 64
        E 36 b6 07 62
        E 36 b6 07 5f
        E 36 b6 07 5c
        E 36 b6 07 59
        E 36 b6 07 57
        E 36 b6 07 54
        E 36 b6 07 51
        E 36 b6 07 4e
        E 36 b6 07 4a
        E 36 b6 07 47
        E 36 b6 07 44
        E 36 b6 07 41
        E 36 b6 07 3e
        E 36 b6 07 3b
        E 36 b6 07 38
        E 36 b6 07 35
        E 36 b6 07 31
        E 36 b6 07 2e
        E 36 b6 07 2b
        E 36 b6 07 28
        E 36 b6 07 26
        E 36 b6 07 23
        E 36 b6 07 20
        E 36 b6 07 1d
        E 36 b6 07 1b
        E 36 b6 07 18
        E 36 b6 07 16
        E 36 b6 07 13
        E 36 b6 07 11
        E 36 b6 07 0f
        E 36 b6 07 0d
        E 36 b6 07 0b
        E 36 b6 07 0a
        E 36 b6 07 08
        E 36 b6 07 07
        E 36 b6 07 05
        E 36 b6 07 04
        E 36 b6 07 03
        E 36 b6 07 02
        E 36 b6 07 01
        E 36 b6 07 01
        E 36 b6 07 00
        E 36 b6 07 00
        E 36 b6 07 00
        E 36 b6 07 00
        E 36 b6 07 00
        E 36 b6 07 01
        E 36 b6 07 01
        E 36 b6 07 02
        E 36 b6 07 03
        E 36 b6 07 04
        E 36 b6 07 05
        E 36 b6 07 06
        E 36 b6 07 07
        E 36 b6 07 09
        E 36 b6 07 0a
        E 36 b6 07 0c
        E 36 b6 07 0e
        E 36 b6 07 10
        E 36 b6 07 12
        E 36 b6 07 15
        E 36 b6 07 17
        E 36 b6 07 19
        E 36 b6 07 1c
        E 36 b6 07 1f
        E 36 b6 07 21
        E 36 b6 07 24
        E 36 b6 07 27
        E 36 b6 07 2a
        E 36 b6 07 2d
        E 36 b6 07 30
        E 36 b6 07 33
        E 36 b6 07 36
        E 36 b6 07 39
        E 36 b6 07 3c
        E 36 b6 07 40
        E 4 b6 07 39
        E 4 b6 07 3c
        E 4 b6 07 3f
        E 4 b6 07 41
        E 4 b6 07 44
        E 4 b6 07 47
        E 4 b6 07 49
        E 4 b6 07 4c
        E 4 b6 07 4f
        E 4 b6 07 51
        E 4 b6 07 54
        E 4 b6 07 56
        E 4 b6 07 59
        E 4 b6 07 5b
        E 4 b6 07 5d
        E 4 b6 07 5f
        E 4 b6 07 62
        E 4 b6 07 63
        E 4 b6 07 65
        E 4 b6 07 67
        E 4 b6 07 69
        E 4 b6 07 6a
        E 4 b6 07 6c
        E 4 b6 07 6c
        E 4 b6 07 6d
        E 4 b6 07 6e
        E 4 b6 07 6f
        E 4 b6 07 70
        E 4 b6 07 71
        E 4 b6 07 71
        E 4 b6 07 72
        E 4 b6 07 72
        E 4 b6 07 72
        E 4 b6 07 72
        E 4 b6 07 72
        E 4 b6 07 71
        E 4 b6 07 71
        E 4 b6 07 70
        E 4 b6 07 6f
        E 4 b6 07 6e
        E 4 b6 07 6d
        E 4 b6 07 6c
        E 4 b6 07 6b
        E 4 b6 07 69
        E 4 b6 07 68
        E 4 b6 07 66
        E 4 b6 07 64
        E 4 b6 07 63
        E 4 b6 07 61
        E 4 b6 07 5e
        E 4 b6 07 5c
        E 4 b6 07 5a
        E 4 b6 07 58
        E 4 b6 07 55
        E 4 b6 07 52
        E 4 b6 07 50
        E 4 b6 07 4e
        E 4 b6 07 4b
        E 4 b6 07 48
        E 4 b6 07 46
        E 4 b6 07 42
        E 4 b6 07 3f
        E 4 b6 07 3d
        E 4 b6 07 3a
        E 4 b6 07 37
        E 4 b6 07 35
        E 4 b6 07 32
        E 4 b6 07 2f
        E 4 b6 07 2c
        E 4 b6 07 29
        E 4 b6 07 26
        E 4 b6 07 24
        E 4 b6 07 22
        E 4 b6 07 1f
        E 4 b6 07 1c
        E 4 b6 07 1a
        E 4 b6 07 18
        E 4 b6 07 15
        E 4 b6 07 13
        E 4 b6 07 11
        E 4 b6 07 0f
        E 4 b6 07 0d
        E 4 b6 07 0b
        E 4 b6 07 09
        E 4 b6 07 09
        E 4 b6 07 07
        E 4 b6 07 06
        E 4 b6 07 04
        E 4 b6 07 03
        E 4 b6 07 02
        E 4 b6 07 01
        E 4 b6 07 00
        E 4 b6 07 00
        E 4 b6 07 00
        E 4 b6 07 00
        E 4 b6 07 00
        E 4 b6 07 00
        E 4 b6 07 00
        E 4 b6 07 00
        E 4 b6 07 00
        E 4 b6 07 01
        E 4 b6 07 02
        E 4 b6 07 03
        E 4 b6 07 04
        E 4 b6 07 05
        E 4 b6 07 06
        E 4 b6 07 08
        E 4 b6 07 09
        E 4 b6 07 0a
        E 4 b6 07 0c
        E 4 b6 07 0e
        E 4 b6 07 10
        E 4 b6 07 12
        E 4 b6 07 14
        E 4 b6 07 16
        E 4 b6 07 19
        E 4 b6 07 1b
        E 4 b6 07 1d
        E 4 b6 07 20
        E 4 b6 07 23
        E 4 b6 07 25
        E 4 b6 07 28
        E 4 b6 07 2b
        E 4 b6 07 2d
        E 4 b6 07 30
        E 4 b6 07 33
        E 4 b6 07 36
        E 4 b6 07 39
        E 18 b6 07 40
        E 18 b6 07 43
        E 18 b6 07 46
        E 18 b6 07 49
        E 18 b6 07 4c
        E 18 b6 07 4f
        E 18 b6 07 52
        E 18 b6 07 55
        E 18 b6 07 58
        E 18 b6 07 5b
        E 18 b6 07 5e
        E 18 b6 07 60
        E 18 b6 07 63
        E 18 b6 07 66
        E 18 b6 07 68
        E 18 b6 07 6a
        E 18 b6 07 6d
        E 18 b6 07 6f
        E 18 b6 07 71
        E 18 b6 07 73
        E 18 b6 07 75
        E 18 b6 07 76
        E 18 b6 07 78
        E 18 b6 07 79
        E 18 b6 07 7a
        E 18 b6 07 7b
        E 18 b6 07 7c
        E 18 b6 07 7d
        E 18 b6 07 7e
        E 18 b6 07 7e
        E 18 b6 07 7f
        E 18 b6 07 7f
        E 18 b6 07 7f
        E 18 b6 07 7f
        E 18 b6 07 7f
        E 18 b6 07 7e
        E 18 b6 07 7e
        E 18 b6 07 7d
        E 18 b6 07 7c
        E 18 b6 07 7b
        E 18 b6 07 7a
        E 18 b6 07 78
        E 18 b6 07 77
        E 18 b6 07 75
        E 18 b6 07 74
        E 18 b6 07 72
        E 18 b6 07 70
        E 18 b6 07 6e
        E 18 b6 07 6c
        E 18 b6 07 69
        E 18 b6 07 67
        E 18 b6 07 64
        E 18 b6 07 62
        E 18 b6 07 5f
        E 18 b6 07 5c
        E 18 b6 07 59
        E 18 b6 07 57
        E 18 b6 07 54
        E 18 b6 07 51
        E 18 b6 07 4e
        E 18 b6 07 4a
        E 18 b6 07 47
        E 18 b6 07 44
        E 18 b6 07 41
        E 18 b6 07 3e
        E 18 b6 07 3b
        E 18 b6 07 38
        E 18 b6 07 35
        E 18 b6 07 31
        E 18 b6 07 2e
        E 18 b6 07 2b
        E 18 b6 07 28
        E 18 b6 07 26
        E 18 b6 07 23
        E 18 b6 07 20
        E 18 b6 07 1d
        E 18 b6 07 1b
        E 18 b6 07 18
        E 18 b6 07 16
        E 18 b6 07 13
        E 18 b6 07 11
        E 18 b6 07 0f
        E 18 b6 07 0d
        E 18 b6 07 0b
        E 18 b6 07 0a
        E 18 b6 07 08
        E 18 b6 07 07
        E 18 b6 07 05
        E 18 b6 07 04
        E 18 b6 07 03
        E 18 b6 07 02
        E 18 b6 07 01
        E 18 b6 07 01
        E 18 b6 07 00
        E 18 b6 07 00
        E 18 b6 07 00
        E 18 b6 07 00
        E 18 b6 07 00
        E 18 b6 07 01
        E 18 b6 07 01
        E 18 b6 07 02
        E 18 b6 07 03
        E 18 b6 07 04
        E 18 b6 07 05
        E 18 b6 07 06
        E 18 b6 07 07
        E 18 b6 07 09
        E 18 b6 07 0a
        E 18 b6 07 0c
        E 18 b6 07 0e
        E 18 b6 07 10
        E 18 b6 07 12
        E 18 b6 07 15
        E 18 b6 07 17
        E 18 b6 07 19
        E 18 b6 07 1c
        E 18 b6 07 1f
        E 18 b6 07 21
        E 18 b6 07 24
        E 18 b6 07 27
        E 18 b6 07 2a
        E 18 b6 07 2d
        E 18 b6 07 30
        E 18 b6 07 33
        E 18 b6 07 36
        E 18 b6 07 39
        E 18 b6 07 3c
        E 18 b6 07 40
        E 31 b6 07 39
        E 31 b6 07 3c
        E 31 b6 07 3f
        E 31 b6 07 41
        E 31 b6 07 44
        E 31 b6 07 47
        E 31 b6 07 49
        E 31 b6 07 4c
        E 31 b6 07 4f
        E 31 b6 07 51
        E 31 b6 07 54
        E 31 b6 07 56
        E 31 b6 07 59
        E 31 b6 07 5b
        E 31 b6 07 5d
        E 31 b6 07 5f
        E 31 b6 07 62
        E 31 b6 07 63
        E 31 b6 07 65
        E 31 b6 07 67
        E 31 b6 07 69
        E 31 b6 07 6a
        E 31 b6 07 6c
        E 31 b6 07 6c
        E 31 b6 07 6d
        E 31 b6 07 6e
        E 31 b6 07 6f
        E 31 b6 07 70
        E 31 b6 07 71
        E 31 b6 07 71
        E 31 b6 07 72
        E 31 b6 07 72
        E 31 b6 07 72
        E 31 b6 07 72
        E 31 b6 07 72
        E 31 b6 07 71
        E 31 b6 07 71
        E 31 b6 07 70
        E 31 b6 07 6f
        E 31 b6 07 6e
        E 31 b6 07 6d
        E 31 b6 07 6c
        E 31 b6 07 6b
        E 31 b6 07 69
        E 31 b6 07 68
        E 31 b6 07 66
        E 31 b6 07 64
        E 31 b6 07 63
        E 31 b6 07 61
        E 31 b6 07 5e
        E 31 b6 07 5c
        E 31 b6 07 5a
        E 31 b6 07 58
        E 31 b6 07 55
        E 31 b6 07 52
        E 31 b6 07 50
        E 31 b6 07 4e
        E 31 b6 07 4b
        E 31 b6 07 48
        E 31 b6 07 46
        E 31 b6 07 42
        E 31 b6 07 3f
        E 31 b6 07 3d
        E 31 b6 07 3a
        E 31 b6 07 37
        E 31 b6 07 35
        E 31 b6 07 32
        E 31 b6 07 2f
        E 31 b6 07 2c
        E 31 b6 07 29
        E 31 b6 07 26
        E 31 b6 07 24
        E 31 b6 07 22
        E 31 b6 07 1f
        E 31 b6 07 1c
        E 31 b6 07 1a
        E 31 b6 07 18
        E 31 b6 07 15
        E 31 b6 07 13
        E 31 b6 07 11
        E 31 b6 07 0f
        E 31 b6 07 0d
        E 31 b6 07 0b
        E 31 b6 07 09
        E 31 b6 07 09
        E 31 b6 07 07
        E 31 b6 07 06
        E 31 b6 07 04
        E 31 b6 07 03
        E 31 b6 07 02
        E 31 b6 07 01
        E 31 b6 07 00
        E 31 b6 07 00
        E 31 b6 07 00
        E 31 b6 07 00
        E 31 b6 07 00
        E 31 b6 07 00
        E 31 b6 07 00
        E 31 b6 07 00
        E 31 b6 07 00
        E 31 b6 07 01
        E 31 b6 07 02
        E 31 b6 07 03
        E 31 b6 07 04
        E 31 b6 07 05
        E 31 b6 07 06
        E 31 b6 07 08
        E 31 b6 07 09
        E 31 b6 07 0a
        E 31 b6 07 0c
        E 31 b6 07 0e
        E 31 b6 07 10
        E 31 b6 07 12
        E 31 b6 07 14
        E 31 b6 07 16
        E 31 b6 07 19
        E 31 b6 07 1b
        E 31 b6 07 1d
        E 31 b6 07 20
        E 31 b6 07 23
        E 31 b6 07 25
        E 31 b6 07 28
        E 31 b6 07 2b
        E 31 b6 07 2d
        E 31 b6 07 30
        E 31 b6 07 33
        E 31 b6 07 36
        E 31 b6 07 39
        E 45 b6 07 2c
        E 45 b6 07 2e
        E 45 b6 07 31
        E 45 b6 07 33
        E 45 b6 07 35
        E 45 b6 07 37
        E 45 b6 07 39
        E 45 b6 07 3b
        E 45 b6 07 3d
        E 45 b6 07 3f
        E 45 b6 07 41
        E 45 b6 07 43
        E 45 b6 07 45
        E 45 b6 07 47
        E 45 b6 07 48
        E 45 b6 07 4a
        E 45 b6 07 4c
        E 45 b6 07 4d
        E 45 b6 07 4f
        E 45 b6 07 50
        E 45 b6 07 51
        E 45 b6 07 52
        E 45 b6 07 54
        E 45 b6 07 54
        E 45 b6 07 55
        E 45 b6 07 56
        E 45 b6 07 56
        E 45 b6 07 57
        E 45 b6 07 58
        E 45 b6 07 58
        E 45 b6 07 58
        E 45 b6 07 58
        E 45 b6 07 58
        E 45 b6 07 58
        E 45 b6 07 58
        E 45 b6 07 58
        E 45 b6 07 58
        E 45 b6 07 57
        E 45 b6 07 56
        E 45 b6 07 56
        E 45 b6 07 55
        E 45 b6 07 54
        E 45 b6 07 53
        E 45 b6 07 51
        E 45 b6 07 51
        E 45 b6 07 4f
        E 45 b6 07 4e
        E 45 b6 07 4d
        E 45 b6 07 4b
        E 45 b6 07 49
        E 45 b6 07 48
        E 45 b6 07 46
        E 45 b6 07 44
        E 45 b6 07 42
        E 45 b6 07 40
        E 45 b6 07 3e
        E 45 b6 07 3c
        E 45 b6 07 3a
        E 45 b6 07 38
        E 45 b6 07 36
        E 45 b6 07 33
        E 45 b6 07 31
        E 45 b6 07 2f
        E 45 b6 07 2d
        E 45 b6 07 2b
        E 45 b6 07 29
        E 45 b6 07 27
        E 45 b6 07 25
        E 45 b6 07 22
        E 45 b6 07 20
        E 45 b6 07 1e
        E 45 b6 07 1c
        E 45 b6 07 1a
        E 45 b6 07 18
        E 45 b6 07 16
        E 45 b6 07 14
        E 45 b6 07 12
        E 45 b6 07 10
        E 45 b6 07 0f
        E 45 b6 07 0d
        E 45 b6 07 0b
        E 45 b6 07 0a
        E 45 b6 07 09
        E 45 b6 07 07
        E 45 b6 07 07
        E 45 b6 07 05
        E 45 b6 07 04
        E 45 b6 07 03
        E 45 b6 07 02
        E 45 b6 07 02
        E 45 b6 07 01
        E 45 b6 07 00
        E 45 b6 07 00
        E 45 b6 07 00
        E 45 b6 07 00
        E 45 b6 07 00
        E 45 b6 07 00
        E 45 b6 07 00
        E 45 b6 07 00
        E 45 b6 07 00
        E 45 b6 07 01
        E 45 b6 07 02
        E 45 b6 07 02
        E 45 b6 07 03
        E 45 b6 07 04
        E 45 b6 07 04
        E 45 b6 07 06
        E 45 b6 07 07
        E 45 b6 07 08
        E 45 b6 07 09
        E 45 b6 07 0b
        E 45 b6 07 0c
        E 45 b6 07 0e
        E 45 b6 07 10
        E 45 b6 07 11
        E 45 b6 07 13
        E 45 b6 07 15
        E 45 b6 07 17
        E 45 b6 07 19
        E 45 b6 07 1b
        E 45 b6 07 1d
        E 45 b6 07 1f
        E 45 b6 07 21
        E 45 b6 07 23
        E 45 b6 07 25
        E 45 b6 07 27
        E 45 b6 07 2a
        E 45 b6 07 2c
        E 40 b6 07 33
        E 40 b6 07 35
        E 40 b6 07 37
        E 40 b6 07 3a
        E 40 b6 07 3c
        E 40 b6 07 3f
        E 40 b6 07 41
        E 40 b6 07 44
        E 40 b6 07 46
        E 40 b6 07 48
        E 40 b6 07 4b
        E 40 b6 07 4c
        E 40 b6 07 4f
        E 40 b6 07 51
        E 40 b6 07 53
        E 40 b6 07 54
        E 40 b6 07 57
        E 40 b6 07 58
        E 40 b6 07 5a
        E 40 b6 07 5b
        E 40 b6 07 5d
        E 40 b6 07 5e
        E 40 b6 07 5f
        E 40 b6 07 60
        E 40 b6 07 61
        E 40 b6 07 62
        E 40 b6 07 63
        E 40 b6 07 63
        E 40 b6 07 64
        E 40 b6 07 64
        E 40 b6 07 65
        E 40 b6 07 65
        E 40 b6 07 65
        E 40 b6 07 65
        E 40 b6 07 65
        E 40 b6 07 64
        E 40 b6 07 64
        E 40 b6 07 63
        E 40 b6 07 63
        E 40 b6 07 62
        E 40 b6 07 61
        E 40 b6 07 5f
        E 40 b6 07 5f
        E 40 b6 07 5d
        E 40 b6 07 5c
        E 40 b6 07 5b
        E 40 b6 07 59
        E 40 b6 07 57
        E 40 b6 07 56
        E 40 b6 07 54
        E 40 b6 07 52
        E 40 b6 07 50
        E 40 b6 07 4e
        E 40 b6 07 4c
        E 40 b6 07 49
        E 40 b6 07 47
        E 40 b6 07 45
        E 40 b6 07 43
        E 40 b6 07 40
        E 40 b6 07 3e
        E 40 b6 07 3b
        E 40 b6 07 38
        E 40 b6 07 36
        E 40 b6 07 33
        E 40 b6 07 31
        E 40 b6 07 2f
        E 40 b6 07 2c
        E 40 b6 07 2a
        E 40 b6 07 27
        E 40 b6 07 24
        E 40 b6 07 22
        E 40 b6 07 1f
        E 40 b6 07 1e
        E 40 b6 07 1b
        E 40 b6 07 19
        E 40 b6 07 17
        E 40 b6 07 15
        E 40 b6 07 13
        E 40 b6 07 11
        E 40 b6 07 0f
        E 40 b6 07 0d
        E 40 b6 07 0b
        E 40 b6 07 0a
        E 40 b6 07 08
        E 40 b6 07 07
        E 40 b6 07 06
        E 40 b6 07 05
        E 40 b6 07 03
        E 40 b6 07 03
        E 40 b6 07 02
        E 40 b6 07 01
        E 40 b6 07 00
        E 40 b6 07 00
        E 40 b6 07 00
        E 40 b6 07 00
        E 40 b6 07 00
        E 40 b6 07 00
        E 40 b6 07 00
        E 40 b6 07 00
        E 40 b6 07 00
        E 40 b6 07 01
        E 40 b6 07 02
        E 40 b6 07 03
        E 40 b6 07 03
        E 40 b6 07 04
        E 40 b6 07 05
        E 40 b6 07 07
        E 40 b6 07 07
        E 40 b6 07 09
        E 40 b6 07 0b
        E 40 b6 07 0c
        E 40 b6 07 0e
        E 40 b6 07 10
        E 40 b6 07 12
        E 40 b6 07 14
        E 40 b6 07 16
        E 40 b6 07 18
        E 40 b6 07 1a
        E 40 b6 07 1c
        E 40 b6 07 1f
        E 40 b6 07 21
        E 40 b6 07 24
        E 40 b6 07 26
        E 40 b6 07 28
        E 40 b6 07 2b
        E 40 b6 07 2d
        E 40 b6 07 2f
        E 40 b6 07 33
        E 45 b6 07 06
        E 45 b6 07 06
        E 45 b6 07 07
        E 45 b6 07 07
        E 45 b6 07 07
        E 45 b6 07 07
        E 45 b6 07 08
        E 45 b6 07 08
        E 45 b6 07 08
        E 45 b6 07 09
        E 45 b6 07 09
        E 45 b6 07 09
        E 45 b6 07 09
        E 45 b6 07 0a
        E 45 b6 07 0a
        E 45 b6 07 0a
        E 45 b6 07 0a
        E 45 b6 07 0b
        E 45 b6 07 0b
        E 45 b6 07 0b
        E 45 b6 07 0b
        E 45 b6 07 0b
        E 45 b6 07 0c
        E 45 b6 07 0c
        E 45 b6 07 0c
        E 45 b6 07 0c
        E 45 b6 07 0c
        E 45 b6 07 0c
        E 45 b6 07 0c
        E 45 b6 07 0c
        E 45 b6 07 0c
        E 45 b6 07 0c
        E 45 b6 07 0c
        E 45 b6 07 0c
        E 45 b6 07 0c
        E 45 b6 07 0c
        E 45 b6 07 0c
        E 45 b6 07 0c
        E 45 b6 07 0c
        E 45 b6 07 0c
        E 45 b6 07 0c
        E 45 b6 07 0c
        E 45 b6 07 0b
        E 45 b6 07 0b
        E 45 b6 07 0b
        E 45 b6 07 0b
        E 45 b6 07 0b
        E 45 b6 07 0b
        E 45 b6 07 0a
        E 45 b6 07 0a
        E 45 b6 07 0a
        E 45 b6 07 0a
        E 45 b6 07 09
        E 45 b6 07 09
        E 45 b6 07 09
        E 45 b6 07 08
        E 45 b6 07 08
        E 45 b6 07 08
        E 45 b6 07 08
        E 45 b6 07 07
        E 45 b6 07 07
        E 45 b6 07 07
        E 45 b6 07 06
        E 45 b6 07 06
        E 45 b6 07 06
        E 45 b6 07 05
        E 45 b6 07 05
        E 45 b6 07 05
        E 45 b6 07 04
        E 45 b6 07 04
        E 45 b6 07 04
        E 45 b6 07 04
        E 45 b6 07 03
        E 45 b6 07 03
        E 45 b6 07 03
        E 45 b6 07 02
        E 45 b6 07 02
        E 45 b6 07 02
        E 45 b6 07 02
        E 45 b6 07 01
        E 45 b6 07 01
        E 45 b6 07 01
        E 45 b6 07 01
        E 45 b6 07 01
        E 45 b6 07 01
        E 45 b6 07 00
        E 45 b6 07 00
        E 45 b6 07 00
        E 45 b6 07 00
        E 45 b6 07 00
        E 45 b6 07 00
        E 45 b6 07 00
        E 45 b6 07 00
        E 45 b6 07 00
        E 45 b6 07 00
        E 45 b6 07 00
        E 45 b6 07 00
        E 45 b6 07 00
        E 45 b6 07 00
        E 45 b6 07 00
        E 45 b6 07 00
        E 45 b6 07 00
        E 45 b6 07 00
        E 45 b6 07 00
        E 45 b6 07 00
        E 45 b6 07 00
        E 45 b6 07 00
        E 45 b6 07 01
        E 45 b6 07 01
        E 45 b6 07 01
        E 45 b6 07 01
        E 45 b6 07 01
        E 45 b6 07 02
        E 45 b6 07 02
        E 45 b6 07 02
        E 45 b6 07 02
        E 45 b6 07 03
        E 45 b6 07 03
        E 45 b6 07 03
        E 45 b6 07 03
        E 45 b6 07 04
        E 45 b6 07 04
        E 45 b6 07 04
        E 45 b6 07 05
        E 45 b6 07 05
        E 45 b6 07 05
        E 45 b6 07 06
        E 45 b6 07 06
        E 40 b6 07 19
        E 40 b6 07 1a
        E 40 b6 07 1c
        E 40 b6 07 1d
        E 40 b6 07 1e
        E 40 b6 07 1f
        E 40 b6 07 20
        E 40 b6 07 22
        E 40 b6 07 23
        E 40 b6 07 24
        E 40 b6 07 25
        E 40 b6 07 26
        E 40 b6 07 27
        E 40 b6 07 28
        E 40 b6 07 29
        E 40 b6 07 2a
        E 40 b6 07 2b
        E 40 b6 07 2c
        E 40 b6 07 2d
        E 40 b6 07 2e
        E 40 b6 07 2e
        E 40 b6 07 2f
        E 40 b6 07 30
        E 40 b6 07 30
        E 40 b6 07 30
        E 40 b6 07 31
        E 40 b6 07 31
        E 40 b6 07 32
        E 40 b6 07 32
        E 40 b6 07 32
        E 40 b6 07 32
        E 40 b6 07 32
        E 40 b6 07 32
        E 40 b6 07 32
        E 40 b6 07 32
        E 40 b6 07 32
        E 40 b6 07 32
        E 40 b6 07 32
        E 40 b6 07 31
        E 40 b6 07 31
        E 40 b6 07 30
        E 40 b6 07 30
        E 40 b6 07 2f
        E 40 b6 07 2e
        E 40 b6 07 2e
        E 40 b6 07 2d
        E 40 b6 07 2c
        E 40 b6 07 2c
        E 40 b6 07 2b
        E 40 b6 07 2a
        E 40 b6 07 29
        E 40 b6 07 28
        E 40 b6 07 27
        E 40 b6 07 26
        E 40 b6 07 24
        E 40 b6 07 23
        E 40 b6 07 22
        E 40 b6 07 21
        E 40 b6 07 20
        E 40 b6 07 1f
        E 40 b6 07 1d
        E 40 b6 07 1c
        E 40 b6 07 1b
        E 40 b6 07 1a
        E 40 b6 07 18
        E 40 b6 07 17
        E 40 b6 07 16
        E 40 b6 07 15
        E 40 b6 07 13
        E 40 b6 07 12
        E 40 b6 07 11
        E 40 b6 07 10
        E 40 b6 07 0f
        E 40 b6 07 0e
        E 40 b6 07 0c
        E 40 b6 07 0b
        E 40 b6 07 0a
        E 40 b6 07 09
        E 40 b6 07 08
        E 40 b6 07 07
        E 40 b6 07 06
        E 40 b6 07 06
        E 40 b6 07 05
        E 40 b6 07 04
        E 40 b6 07 04
        E 40 b6 07 03
        E 40 b6 07 02
        E 40 b6 07 02
        E 40 b6 07 01
        E 40 b6 07 01
        E 40 b6 07 00
        E 40 b6 07 00
        E 40 b6 07 00
        E 40 b6 07 00
        E 40 b6 07 00
        E 40 b6 07 00
        E 40 b6 07 00
        E 40 b6 07 00
        E 40 b6 07 00
        E 40 b6 07 00
        E 40 b6 07 00
        E 40 b6 07 01
        E 40 b6 07 01
        E 40 b6 07 02
        E 40 b6 07 02
        E 40 b6 07 02
        E 40 b6 07 03
        E 40 b6 07 04
        E 40 b6 07 04
        E 40 b6 07 05
        E 40 b6 07 06
        E 40 b6 07 07
        E 40 b6 07 08
        E 40 b6 07 09
        E 40 b6 07 0a
        E 40 b6 07 0b
        E 40 b6 07 0c
        E 40 b6 07 0d
        E 40 b6 07 0e
        E 40 b6 07 0f
        E 40 b6 07 10
        E 40 b6 07 12
        E 40 b6 07 13
        E 40 b6 07 14
        E 40 b6 07 15
        E 40 b6 07 16
        E 40 b6 07 18
        E 40 b6 07 19
        E 22 b6 07 2c
        E 22 b6 07 2e
        E 22 b6 07 31
        E 22 b6 07 33
        E 22 b6 07 35
        E 22 b6 07 37
        E 22 b6 07 39
        E 22 b6 07 3b
        E 22 b6 07 3d
        E 22 b6 07 3f
        E 22 b6 07 41
        E 22 b6 07 43
        E 22 b6 07 45
        E 22 b6 07 47
        E 22 b6 07 48
        E 22 b6 07 4a
        E 22 b6 07 4c
        E 22 b6 07 4d
        E 22 b6 07 4f
        E 22 b6 07 50
        E 22 b6 07 51
        E 22 b6 07 52
        E 22 b6 07 54
        E 22 b6 07 54
        E 22 b6 07 55
        E 22 b6 07 56
        E 22 b6 07 56
        E 22 b6 07 57
        E 22 b6 07 58
        E 22 b6 07 58
        E 22 b6 07 58
        E 22 b6 07 58
        E 22 b6 07 58
        E 22 b6 07 58
        E 22 b6 07 58
        E 22 b6 07 58
        E 22 b6 07 58
        E 22 b6 07 57
        E 22 b6 07 56
        E 22 b6 07 56
        E 22 b6 07 55
        E 22 b6 07 54
        E 22 b6 07 53
        E 22 b6 07 51
        E 22 b6 07 51
        E 22 b6 07 4f
        E 22 b6 07 4e
        E 22 b6 07 4d
        E 22 b6 07 4b
        E 22 b6 07 49
        E 22 b6 07 48
        E 22 b6 07 46
        E 22 b6 07 44
        E 22 b6 07 42
        E 22 b6 07 40
        E 22 b6 07 3e
        E 22 b6 07 3c
        E 22 b6 07 3a
        E 22 b6 07 38
        E 22 b6 07 36
        E 22 b6 07 33
        E 22 b6 07 31
        E 22 b6 07 2f
        E 22 b6 07 2d
        E 22 b6 07 2b
        E 22 b6 07 29
        E 22 b6 07 27
        E 22 b6 07 25
        E 22 b6 07 22
        E 22 b6 07 20
        E 22 b6 07 1e
        E 22 b6 07 1c
        E 22 b6 07 1a
        E 22 b6 07 18
        E 22 b6 07 16
        E 22 b6 07 14
        E 22 b6 07 12
        E 22 b6 07 10
        E 22 b6 07 0f
        E 22 b6 07 0d
        E 22 b6 07 0b
        E 22 b6 07 0a
        E 22 b6 07 09
        E 22 b6 07 07
        E 22 b6 07 07
        E 22 b6 07 05
        E 22 b6 07 04
        E 22 b6 07 03
        E 22 b6 07 02
        E 22 b6 07 02
        E 22 b6 07 01
        E 22 b6 07 00
        E 22 b6 07 00
        E 22 b6 07 00
        E 22 b6 07 00
        E 22 b6 07 00
        E 22 b6 07 00
        E 22 b6 07 00
        E 22 b6 07 00
        E 22 b6 07 00
        E 22 b6 07 01
        E 22 b6 07 02
        E 22 b6 07 02
        E 22 b6 07 03
        E 22 b6 07 04
        E 22 b6 07 04
        E 22 b6 07 06
        E 22 b6 07 07
        E 22 b6 07 08
        E 22 b6 07 09
        E 22 b6 07 0b
        E 22 b6 07 0c
        E 22 b6 07 0e
        E 22 b6 07 10
        E 22 b6 07 11
        E 22 b6 07 13
        E 22 b6 07 15
        E 22 b6 07 17
        E 22 b6 07 19
        E 22 b6 07 1b
        E 22 b6 07 1d
        E 22 b6 07 1f
        E 22 b6 07 21
        E 22 b6 07 23
        E 22 b6 07 25
        E 22 b6 07 27
        E 22 b6 07 2a
        E 22 b6 07 2c
        E 22 b6 07 20
        E 22 b6 07 21
        E 22 b6 07 23
        E 22 b6 07 24
        E 22 b6 07 26
        E 22 b6 07 27
        E 22 b6 07 29
        E 22 b6 07 2a
        E 22 b6 07 2c
        E 22 b6 07 2d
        E 22 b6 07 2f
        E 22 b6 07 30
        E 22 b6 07 31
        E 22 b6 07 33
        E 22 b6 07 34
        E 22 b6 07 35
        E 22 b6 07 36
        E 22 b6 07 37
        E 22 b6 07 38
        E 22 b6 07 39
        E 22 b6 07 3a
        E 22 b6 07 3b
        E 22 b6 07 3c
        E 22 b6 07 3c
        E 22 b6 07 3d
        E 22 b6 07 3d
        E 22 b6 07 3e
        E 22 b6 07 3e
        E 22 b6 07 3f
        E 22 b6 07 3f
        E 22 b6 07 3f
        E 22 b6 07 3f
        E 22 b6 07 3f
        E 22 b6 07 3f
        E 22 b6 07 3f
        E 22 b6 07 3f
        E 22 b6 07 3f
        E 22 b6 07 3e
        E 22 b6 07 3e
        E 22 b6 07 3d
        E 22 b6 07 3d
        E 22 b6 07 3c
        E 22 b6 07 3b
        E 22 b6 07 3a
        E 22 b6 07 3a
        E 22 b6 07 39
        E 22 b6 07 38
        E 22 b6 07 37
        E 22 b6 07 36
        E 22 b6 07 34
        E 22 b6 07 33
        E 22 b6 07 32
        E 22 b6 07 31
        E 22 b6 07 2f
        E 22 b6 07 2e
        E 22 b6 07 2c
        E 22 b6 07 2b
        E 22 b6 07 2a
        E 22 b6 07 28
        E 22 b6 07 27
        E 22 b6 07 25
        E 22 b6 07 23
        E 22 b6 07 22
        E 22 b6 07 20
        E 22 b6 07 1f
        E 22 b6 07 1d
        E 22 b6 07 1c
        E 22 b6 07 1a
        E 22 b6 07 18
        E 22 b6 07 17
        E 22 b6 07 15
        E 22 b6 07 14
        E 22 b6 07 13
        E 22 b6 07 11
        E 22 b6 07 10
        E 22 b6 07 0e
        E 22 b6 07 0d
        E 22 b6 07 0c
        E 22 b6 07 0b
        E 22 b6 07 09
        E 22 b6 07 08
        E 22 b6 07 07
        E 22 b6 07 06
        E 22 b6 07 05
        E 22 b6 07 05
        E 22 b6 07 04
        E 22 b6 07 03
        E 22 b6 07 02
        E 22 b6 07 02
        E 22 b6 07 01
        E 22 b6 07 01
        E 22 b6 07 00
        E 22 b6 07 00
        E 22 b6 07 00
        E 22 b6 07 00
        E 22 b6 07 00
        E 22 b6 07 00
        E 22 b6 07 00
        E 22 b6 07 00
        E 22 b6 07 00
        E 22 b6 07 01
        E 22 b6 07 01
        E 22 b6 07 02
        E 22 b6 07 02
        E 22 b6 07 03
        E 22 b6 07 03
        E 22 b6 07 04
        E 22 b6 07 05
        E 22 b6 07 06
        E 22 b6 07 07
        E 22 b6 07 08
        E 22 b6 07 09
        E 22 b6 07 0a
        E 22 b6 07 0b
        E 22 b6 07 0c
        E 22 b6 07 0e
        E 22 b6 07 0f
        E 22 b6 07 10
        E 22 b6 07 12
        E 22 b6 07 13
        E 22 b6 07 15
        E 22 b6 07 16
        E 22 b6 07 18
        E 22 b6 07 19
        E 22 b6 07 1b
        E 22 b6 07 1c
        E 22 b6 07 1e
        E 22 b6 07 20
        E 31 b6 07 20
        E 31 b6 07 21
        E 31 b6 07 23
        E 31 b6 07 24
        E 31 b6 07 26
        E 31 b6 07 27
        E 31 b6 07 29
        E 31 b6 07 2a
        E 31 b6 07 2c
        E 31 b6 07 2d
        E 31 b6 07 2f
        E 31 b6 07 30
        E 31 b6 07 31
        E 31 b6 07 33
        E 31 b6 07 34
        E 31 b6 07 35
        E 31 b6 07 36
        E 31 b6 07 37
        E 31 b6 07 38
        E 31 b6 07 39
        E 31 b6 07 3a
        E 31 b6 07 3b
        E 31 b6 07 3c
        E 31 b6 07 3c
        E 31 b6 07 3d
        E 31 b6 07 3d
        E 31 b6 07 3e
        E 31 b6 07 3e
        E 31 b6 07 3f
        E 31 b6 07 3f
        E 31 b6 07 3f
        E 31 b6 07 3f
        E 31 b6 07 3f
        E 31 b6 07 3f
        E 31 b6 07 3f
        E 31 b6 07 3f
        E 31 b6 07 3f
        E 31 b6 07 3e
        E 31 b6 07 3e
        E 31 b6 07 3d
        E 31 b6 07 3d
        E 31 b6 07 3c
        E 31 b6 07 3b
        E 31 b6 07 3a
        E 31 b6 07 3a
        E 31 b6 07 39
        E 31 b6 07 38
        E 31 b6 07 37
        E 31 b6 07 36
        E 31 b6 07 34
        E 31 b6 07 33
        E 31 b6 07 32
        E 31 b6 07 31
        E 31 b6 07 2f
        E 31 b6 07 2e
        E 31 b6 07 2c
        E 31 b6 07 2b
        E 31 b6 07 2a
        E 31 b6 07 28
        E 31 b6 07 27
        E 31 b6 07 25
        E 31 b6 07 23
        E 31 b6 07 22
        E 31 b6 07 20
        E 31 b6 07 1f
        E 31 b6 07 1d
        E 31 b6 07 1c
        E 31 b6 07 1a
        E 31 b6 07 18
        E 31 b6 07 17
        E 31 b6 07 15
        E 31 b6 07 14
        E 31 b6 07 13
        E 31 b6 07 11
        E 31 b6 07 10
        E 31 b6 07 0e
        E 31 b6 07 0d
        E 31 b6 07 0c
        E 31 b6 07 0b
        E 31 b6 07 09
        E 31 b6 07 08
        E 31 b6 07 07
        E 31 b6 07 06
        E 31 b6 07 05
        E 31 b6 07 05
        E 31 b6 07 04
        E 31 b6 07 03
        E 31 b6 07 02
        E 31 b6 07 02
        E 31 b6 07 01
        E 31 b6 07 01
        E 31 b6 07 00
        E 31 b6 07 00
        E 31 b6 07 00
        E 31 b6 07 00
        E 31 b6 07 00
        E 31 b6 07 00
        E 31 b6 07 00
        E 31 b6 07 00
        E 31 b6 07 00
        E 31 b6 07 01
        E 31 b6 07 01
        E 31 b6 07 02
        E 31 b6 07 02
        E 31 b6 07 03
        E 31 b6 07 03
        E 31 b6 07 04
        E 31 b6 07 05
        E 31 b6 07 06
        E 31 b6 07 07
        E 31 b6 07 08
        E 31 b6 07 09
        E 31 b6 07 0a
        E 31 b6 07 0b
        E 31 b6 07 0c
        E 31 b6 07 0e
        E 31 b6 07 0f
        E 31 b6 07 10
        E 31 b6 07 12
        E 31 b6 07 13
        E 31 b6 07 15
        E 31 b6 07 16
        E 31 b6 07 18
        E 31 b6 07 19
        E 31 b6 07 1b
        E 31 b6 07 1c
        E 31 b6 07 1e
        E 31 b6 07 20
        E 36 b6 07 40
        E 36 b6 07 43
        E 36 b6 07 46
        E 36 b6 07 49
        E 36 b6 07 4c
        E 36 b6 07 4f
        E 36 b6 07 52
        E 36 b6 07 55
        E 36 b6 07 58
        E 36 b6 07 5b
        E 36 b6 07 5e
        E 36 b6 07 60
        E 36 b6 07 63
        E 36 b6 07 66
        E 36 b6 07 68
        E 36 b6 07 6a
        E 36 b6 07 6d
        E 36 b6 07 6f
        E 36 b6 07 71
        E 36 b6 07 73
        E 36 b6 07 75
        E 36 b6 07 76
        E 36 b6 07 78
        E 36 b6 07 79
        E 36 b6 07 7a
        E 36 b6 07 7b
        E 36 b6 07 7c
        E 36 b6 07 7d
        E 36 b6 07 7e
        E 36 b6 07 7e
        E 36 b6 07 7f
        E 36 b6 07 7f
        E 36 b6 07 7f
        E 36 b6 07 7f
        E 36 b6 07 7f
        E 36 b6 07 7e
        E 36 b6 07 7e
        E 36 b6 07 7d
        E 36 b6 07 7c
        E 36 b6 07 7b
        E 36 b6 07 7a
        E 36 b6 07 78
        E 36 b6 07 77
        E 36 b6 07 75
        E 36 b6 07 74
        E 36 b6 07 72
        E 36 b6 07 70
        E 36 b6 07 6e
        E 36 b6 07 6c
        E 36 b6 07 69
        E 36 b6 07 67
        E 36 b6 07 64
        E 36 b6 07 62
        E 36 b6 07 5f
        E 36 b6 07 5c
        E 36 b6 07 59
        E 36 b6 07 57
        E 36 b6 07 54
        E 36 b6 07 51
        E 36 b6 07 4e
        E 36 b6 07 4a
        E 36 b6 07 47
        E 36 b6 07 44
        E 36 b6 07 41
        E 36 b6 07 3e
        E 36 b6 07 3b
        E 36 b6 07 38
        E 36 b6 07 35
        E 36 b6 07 31
        E 36 b6 07 2e
        E 36 b6 07 2b
        E 36 b6 07 28
        E 36 b6 07 26
        E 36 b6 07 23
        E 36 b6 07 20
        E 36 b6 07 1d
        E 36 b6 07 1b
        E 36 b6 07 18
        E 36 b6 07 16
        E 36 b6 07 13
        E 36 b6 07 11
        E 36 b6 07 0f
        E 36 b6 07 0d
        E 36 b6 07 0b
        E 36 b6 07 0a
        E 36 b6 07 08
        E 36 b6 07 07
        E 36 b6 07 05
        E 36 b6 07 04
        E 36 b6 07 03
        E 36 b6 07 02
        E 36 b6 07 01
        E 36 b6 07 01
        E 36 b6 07 00
        E 36 b6 07 00
        E 36 b6 07 00
        E 36 b6 07 00
        E 36 b6 07 00
        E 36 b6 07 01
        E 36 b6 07 01
        E 36 b6 07 02
        E 36 b6 07 03
        E 36 b6 07 04
        E 36 b6 07 05
        E 36 b6 07 06
        E 36 b6 07 07
        E 36 b6 07 09
        E 36 b6 07 0a
        E 36 b6 07 0c
        E 36 b6 07 0e
        E 36 b6 07 10
        E 36 b6 07 12
        E 36 b6 07 15
        E 36 b6 07 17
        E 36 b6 07 19
        E 36 b6 07 1c
        E 36 b6 07 1f
        E 36 b6 07 21
        E 36 b6 07 24
        E 36 b6 07 27
        E 36 b6 07 2a
        E 36 b6 07 2d
        E 36 b6 07 30
        E 36 b6 07 33
        E 36 b6 07 36
        E 36 b6 07 39
        E 36 b6 07 3c
        E 36 b6 07 40
        E 4 b6 07 39
        E 4 b6 07 3c
        E 4 b6 07 3f
        E 4 b6 07 41
        E 4 b6 07 44
        E 4 b6 07 47
        E 4 b6 07 49
        E 4 b6 07 4c
        E 4 b6 07 4f
        E 4 b6 07 51
        E 4 b6 07 54
        E 4 b6 07 56
        E 4 b6 07 59
        E 4 b6 07 5b
        E 4 b6 07 5d
        E 4 b6 07 5f
        E 4 b6 07 62
        E 4 b6 07 63
        E 4 b6 07 65
        E 4 b6 07 67
        E 4 b6 07 69
        E 4 b6 07 6a
        E 4 b6 07 6c
        E 4 b6 07 6c
        E 4 b6 07 6d
        E 4 b6 07 6e
        E 4 b6 07 6f
        E 4 b6 07 70
        E 4 b6 07 71
        E 4 b6 07 71
        E 4 b6 07 72
        E 4 b6 07 72
        E 4 b6 07 72
        E 4 b6 07 72
        E 4 b6 07 72
        E 4 b6 07 71
        E 4 b6 07 71
        E 4 b6 07 70
        E 4 b6 07 6f
        E 4 b6 07 6e
        E 4 b6 07 6d
        E 4 b6 07 6c
        E 4 b6 07 6b
        E 4 b6 07 69
        E 4 b6 07 68
        E 4 b6 07 66
        E 4 b6 07 64
        E 4 b6 07 63
        E 4 b6 07 61
        E 4 b6 07 5e
        E 4 b6 07 5c
        E 4 b6 07 5a
        E 4 b6 07 58
        E 4 b6 07 55
        E 4 b6 07 52
        E 4 b6 07 50
        E 4 b6 07 4e
        E 4 b6 07 4b
        E 4 b6 07 48
        E 4 b6 07 46
        E 4 b6 07 42
        E 4 b6 07 3f
        E 4 b6 07 3d
        E 4 b6 07 3a
        E 4 b6 07 37
        E 4 b6 07 35
        E 4 b6 07 32
        E 4 b6 07 2f
        E 4 b6 07 2c
        E 4 b6 07 29
        E 4 b6 07 26
        E 4 b6 07 24
        E 4 b6 07 22
        E 4 b6 07 1f
        E 4 b6 07 1c
        E 4 b6 07 1a
        E 4 b6 07 18
        E 4 b6 07 15
        E 4 b6 07 13
        E 4 b6 07 11
        E 4 b6 07 0f
        E 4 b6 07 0d
        E 4 b6 07 0b
        E 4 b6 07 09
        E 4 b6 07 09
        E 4 b6 07 07
        E 4 b6 07 06
        E 4 b6 07 04
        E 4 b6 07 03
        E 4 b6 07 02
        E 4 b6 07 01
        E 4 b6 07 00
        E 4 b6 07 00
        E 4 b6 07 00
        E 4 b6 07 00
        E 4 b6 07 00
        E 4 b6 07 00
        E 4 b6 07 00
        E 4 b6 07 00
        E 4 b6 07 00
        E 4 b6 07 01
        E 4 b6 07 02
        E 4 b6 07 03
        E 4 b6 07 04
        E 4 b6 07 05
        E 4 b6 07 06
        E 4 b6 07 08
        E 4 b6 07 09
        E 4 b6 07 0a
        E 4 b6 07 0c
        E 4 b6 07 0e
        E 4 b6 07 10
        E 4 b6 07 12
        E 4 b6 07 14
        E 4 b6 07 16
        E 4 b6 07 19
        E 4 b6 07 1b
        E 4 b6 07 1d
        E 4 b6 07 20
        E 4 b6 07 23
        E 4 b6 07 25
        E 4 b6 07 28
        E 4 b6 07 2b
        E 4 b6 07 2d
        E 4 b6 07 30
        E 4 b6 07 33
        E 4 b6 07 36
        E 4 b6 07 39
        E 18 b6 07 40
        E 18 b6 07 43
        E 18 b6 07 46
        E 18 b6 07 49
        E 18 b6 07 4c
        E 18 b6 07 4f
        E 18 b6 07 52
        E 18 b6 07 55
        E 18 b6 07 58
        E 18 b6 07 5b
        E 18 b6 07 5e
        E 18 b6 07 60
        E 18 b6 07 63
        E 18 b6 07 66
        E 18 b6 07 68
        E 18 b6 07 6a
        E 18 b6 07 6d
        E 18 b6 07 6f
        E 18 b6 07 71
        E 18 b6 07 73
        E 18 b6 07 75
        E 18 b6 07 76
        E 18 b6 07 78
        E 18 b6 07 79
        E 18 b6 07 7a
        E 18 b6 07 7b
        E 18 b6 07 7c
        E 18 b6 07 7d
        E 18 b6 07 7e
        E 18 b6 07 7e
        E 18 b6 07 7f
        E 18 b6 07 7f
        E 18 b6 07 7f
        E 18 b6 07 7f
        E 18 b6 07 7f
        E 18 b6 07 7e
        E 18 b6 07 7e
        E 18 b6 07 7d
        E 18 b6 07 7c
        E 18 b6 07 7b
        E 18 b6 07 7a
        E 18 b6 07 78
        E 18 b6 07 77
        E 18 b6 07 75
        E 18 b6 07 74
        E 18 b6 07 72
        E 18 b6 07 70
        E 18 b6 07 6e
        E 18 b6 07 6c
        E 18 b6 07 69
        E 18 b6 07 67
        E 18 b6 07 64
        E 18 b6 07 62
        E 18 b6 07 5f
        E 18 b6 07 5c
        E 18 b6 07 59
        E 18 b6 07 57
        E 18 b6 07 54
        E 18 b6 07 51
        E 18 b6 07 4e
        E 18 b6 07 4a
        E 18 b6 07 47
        E 18 b6 07 44
        E 18 b6 07 41
        E 18 b6 07 3e
        E 18 b6 07 3b
        E 18 b6 07 38
        E 18 b6 07 35
        E 18 b6 07 31
        E 18 b6 07 2e
        E 18 b6 07 2b
        E 18 b6 07 28
        E 18 b6 07 26
        E 18 b6 07 23
        E 18 b6 07 20
        E 18 b6 07 1d
        E 18 b6 07 1b
        E 18 b6 07 18
        E 18 b6 07 16
        E 18 b6 07 13
        E 18 b6 07 11
        E 18 b6 07 0f
        E 18 b6 07 0d
        E 18 b6 07 0b
        E 18 b6 07 0a
        E 18 b6 07 08
        E 18 b6 07 07
        E 18 b6 07 05
        E 18 b6 07 04
        E 18 b6 07 03
        E 18 b6 07 02
        E 18 b6 07 01
        E 18 b6 07 01
        E 18 b6 07 00
        E 18 b6 07 00
        E 18 b6 07 00
        E 18 b6 07 00
        E 18 b6 07 00
        E 18 b6 07 01
        E 18 b6 07 01
        E 18 b6 07 02
        E 18 b6 07 03
        E 18 b6 07 04
        E 18 b6 07 05
        E 18 b6 07 06
        E 18 b6 07 07
        E 18 b6 07 09
        E 18 b6 07 0a
        E 18 b6 07 0c
        E 18 b6 07 0e
        E 18 b6 07 10
        E 18 b6 07 12
        E 18 b6 07 15
        E 18 b6 07 17
        E 18 b6 07 19
        E 18 b6 07 1c
        E 18 b6 07 1f
        E 18 b6 07 21
        E 18 b6 07 24
        E 18 b6 07 27
        E 18 b6 07 2a
        E 18 b6 07 2d
        E 18 b6 07 30
        E 18 b6 07 33
        E 18 b6 07 36
        E 18 b6 07 39
        E 18 b6 07 3c
        E 18 b6 07 40
        E 31 b6 07 39
        E 31 b6 07 3c
        E 31 b6 07 3f
        E 31 b6 07 41
        E 31 b6 07 44
        E 31 b6 07 47
        E 31 b6 07 49
        E 31 b6 07 4c
        E 31 b6 07 4f
        E 31 b6 07 51
        E 31 b6 07 54
        E 31 b6 07 56
        E 31 b6 07 59
        E 31 b6 07 5b
        E 31 b6 07 5d
        E 31 b6 07 5f
        E 31 b6 07 62
        E 31 b6 07 63
        E 31 b6 07 65
        E 31 b6 07 67
        E 31 b6 07 69
        E 31 b6 07 6a
        E 31 b6 07 6c
        E 31 b6 07 6c
        E 31 b6 07 6d
        E 31 b6 07 6e
        E 31 b6 07 6f
        E 31 b6 07 70
        E 31 b6 07 71
        E 31 b6 07 71
        E 31 b6 07 72
        E 31 b6 07 72
        E 31 b6 07 72
        E 31 b6 07 72
        E 31 b6 07 72
        E 31 b6 07 71
        E 31 b6 07 71
        E 31 b6 07 70
        E 31 b6 07 6f
        E 31 b6 07 6e
        E 31 b6 07 6d
        E 31 b6 07 6c
        E 31 b6 07 6b
        E 31 b6 07 69
        E 31 b6 07 68
        E 31 b6 07 66
        E 31 b6 07 64
        E 31 b6 07 63
        E 31 b6 07 61
        E 31 b6 07 5e
        E 31 b6 07 5c
        E 31 b6 07 5a
        E 31 b6 07 58
        E 31 b6 07 55
        E 31 b6 07 52
        E 31 b6 07 50
        E 31 b6 07 4e
        E 31 b6 07 4b
        E 31 b6 07 48
        E 31 b6 07 46
        E 31 b6 07 42
        E 31 b6 07 3f
        E 31 b6 07 3d
        E 31 b6 07 3a
        E 31 b6 07 37
        E 31 b6 07 35
        E 31 b6 07 32
        E 31 b6 07 2f
        E 31 b6 07 2c
        E 31 b6 07 29
        E 31 b6 07 26
        E 31 b6 07 24
        E 31 b6 07 22
        E 31 b6 07 1f
        E 31 b6 07 1c
        E 31 b6 07 1a
        E 31 b6 07 18
        E 31 b6 07 15
        E 31 b6 07 13
        E 31 b6 07 11
        E 31 b6 07 0f
        E 31 b6 07 0d
        E 31 b6 07 0b
        E 31 b6 07 09
        E 31 b6 07 09
        E 31 b6 07 07
        E 31 b6 07 06
        E 31 b6 07 04
        E 31 b6 07 03
        E 31 b6 07 02
        E 31 b6 07 01
        E 31 b6 07 00
        E 31 b6 07 00
        E 31 b6 07 00
        E 31 b6 07 00
        E 31 b6 07 00
        E 31 b6 07 00
        E 31 b6 07 00
        E 31 b6 07 00
        E 31 b6 07 00
        E 31 b6 07 01
        E 31 b6 07 02
        E 31 b6 07 03
        E 31 b6 07 04
        E 31 b6 07 05
        E 31 b6 07 06
        E 31 b6 07 08
        E 31 b6 07 09
        E 31 b6 07 0a
        E 31 b6 07 0c
        E 31 b6 07 0e
        E 31 b6 07 10
        E 31 b6 07 12
        E 31 b6 07 14
        E 31 b6 07 16
        E 31 b6 07 19
        E 31 b6 07 1b
        E 31 b6 07 1d
        E 31 b6 07 20
        E 31 b6 07 23
        E 31 b6 07 25
        E 31 b6 07 28
        E 31 b6 07 2b
        E 31 b6 07 2d
        E 31 b6 07 30
        E 31 b6 07 33
        E 31 b6 07 36
        E 31 b6 07 39
        E 45 b6 07 2c
        E 45 b6 07 2e
        E 45 b6 07 31
        E 45 b6 07 33
        E 45 b6 07 35
        E 45 b6 07 37
        E 45 b6 07 39
        E 45 b6 07 3b
        E 45 b6 07 3d
        E 45 b6 07 3f
        E 45 b6 07 41
        E 45 b6 07 43
        E 45 b6 07 45
        E 45 b6 07 47
        E 45 b6 07 48
        E 45 b6 07 4a
        E 45 b6 07 4c
        E 45 b6 07 4d
        E 45 b6 07 4f
        E 45 b6 07 50
        E 45 b6 07 51
        E 45 b6 07 52
        E 45 b6 07 54
        E 45 b6 07 54
        E 45 b6 07 55
        E 45 b6 07 56
        E 45 b6 07 56
        E 45 b6 07 57
        E 45 b6 07 58
        E 45 b6 07 58
        E 45 b6 07 58
        E 45 b6 07 58
        E 45 b6 07 58
        E 45 b6 07 58
        E 45 b6 07 58
        E 45 b6 07 58
        E 45 b6 07 58
        E 45 b6 07 57
        E 45 b6 07 56
        E 45 b6 07 56
        E 45 b6 07 55
        E 45 b6 07 54
        E 45 b6 07 53
        E 45 b6 07 51
        E 45 b6 07 51
        E 45 b6 07 4f
        E 45 b6 07 4e
        E 45 b6 07 4d
        E 45 b6 07 4b
        E 45 b6 07 49
        E 45 b6 07 48
        E 45 b6 07 46
        E 45 b6 07 44
        E 45 b6 07 42
        E 45 b6 07 40
        E 45 b6 07 3e
        E 45 b6 07 3c
        E 45 b6 07 3a
        E 45 b6 07 38
        E 45 b6 07 36
        E 45 b6 07 33
        E 45 b6 07 31
        E 45 b6 07 2f
        E 45 b6 07 2d
        E 45 b6 07 2b
        E 45 b6 07 29
        E 45 b6 07 27
        E 45 b6 07 25
        E 45 b6 07 22
        E 45 b6 07 20
        E 45 b6 07 1e
        E 45 b6 07 1c
        E 45 b6 07 1a
        E 45 b6 07 18
        E 45 b6 07 16
        E 45 b6 07 14
        E 45 b6 07 12
        E 45 b6 07 10
        E 45 b6 07 0f
        E 45 b6 07 0d
        E 45 b6 07 0b
        E 45 b6 07 0a
        E 45 b6 07 09
        E 45 b6 07 07
        E 45 b6 07 07
        E 45 b6 07 05
        E 45 b6 07 04
        E 45 b6 07 03
        E 45 b6 07 02
        E 45 b6 07 02
        E 45 b6 07 01
        E 45 b6 07 00
        E 45 b6 07 00
        E 45 b6 07 00
        E 45 b6 07 00
        E 45 b6 07 00
        E 45 b6 07 00
        E 45 b6 07 00
        E 45 b6 07 00
        E 45 b6 07 00
        E 45 b6 07 01
        E 45 b6 07 02
        E 45 b6 07 02
        E 45 b6 07 03
        E 45 b6 07 04
        E 45 b6 07 04
        E 45 b6 07 06
        E 45 b6 07 07
        E 45 b6 07 08
        E 45 b6 07 09
        E 45 b6 07 0b
        E 45 b6 07 0c
        E 45 b6 07 0e
        E 45 b6 07 10
        E 45 b6 07 11
        E 45 b6 07 13
        E 45 b6 07 15
        E 45 b6 07 17
        E 45 b6 07 19
        E 45 b6 07 1b
        E 45 b6 07 1d
        E 45 b6 07 1f
        E 45 b6 07 21
        E 45 b6 07 23
        E 45 b6 07 25
        E 45 b6 07 27
        E 45 b6 07 2a
        E 45 b6 07 2c
        E 40 b6 07 33
        E 40 b6 07 35
        E 40 b6 07 37
        E 40 b6 07 3a
        E 40 b6 07 3c
        E 40 b6 07 3f
        E 40 b6 07 41
        E 40 b6 07 44
        E 40 b6 07 46
        E 40 b6 07 48
        E 40 b6 07 4b
        E 40 b6 07 4c
        E 40 b6 07 4f
        E 40 b6 07 51
        E 40 b6 07 53
        E 40 b6 07 54
        E 40 b6 07 57
        E 40 b6 07 58
        E 40 b6 07 5a
        E 40 b6 07 5b
        E 40 b6 07 5d
        E 40 b6 07 5e
        E 40 b6 07 5f
        E 40 b6 07 60
        E 40 b6 07 61
        E 40 b6 07 62
        E 40 b6 07 63
        E 40 b6 07 63
        E 40 b6 07 64
        E 40 b6 07 64
        E 40 b6 07 65
        E 40 b6 07 65
        E 40 b6 07 65
        E 40 b6 07 65
        E 40 b6 07 65
        E 40 b6 07 64
        E 40 b6 07 64
        E 40 b6 07 63
        E 40 b6 07 63
        E 40 b6 07 62
        E 40 b6 07 61
        E 40 b6 07 5f
        E 40 b6 07 5f
        E 40 b6 07 5d
        E 40 b6 07 5c
        E 40 b6 07 5b
        E 40 b6 07 59
        E 40 b6 07 57
        E 40 b6 07 56
        E 40 b6 07 54
        E 40 b6 07 52
        E 40 b6 07 50
        E 40 b6 07 4e
        E 40 b6 07 4c
        E 40 b6 07 49
        E 40 b6 07 47
        E 40 b6 07 45
        E 40 b6 07 43
        E 40 b6 07 40
        E 40 b6 07 3e
        E 40 b6 07 3b
        E 40 b6 07 38
        E 40 b6 07 36
        E 40 b6 07 33
        E 40 b6 07 31
        E 40 b6 07 2f
        E 40 b6 07 2c
        E 40 b6 07 2a
        E 40 b6 07 27
        E 40 b6 07 24
        E 40 b6 07 22
        E 40 b6 07 1f
        E 40 b6 07 1e
        E 40 b6 07 1b
        E 40 b6 07 19
        E 40 b6 07 17
        E 40 b6 07 15
        E 40 b6 07 13
        E 40 b6 07 11
        E 40 b6 07 0f
        E 40 b6 07 0d
        E 40 b6 07 0b
        E 40 b6 07 0a
        E 40 b6 07 08
        E 40 b6 07 07
        E 40 b6 07 06
        E 40 b6 07 05
        E 40 b6 07 03
        E 40 b6 07 03
        E 40 b6 07 02
        E 40 b6 07 01
        E 40 b6 07 00
        E 40 b6 07 00
        E 40 b6 07 00
        E 40 b6 07 00
        E 40 b6 07 00
        E 40 b6 07 00
        E 40 b6 07 00
        E 40 b6 07 00
        E 40 b6 07 00
        E 40 b6 07 01
        E 40 b6 07 02
        E 40 b6 07 03
        E 40 b6 07 03
        E 40 b6 07 04
        E 40 b6 07 05
        E 40 b6 07 07
        E 40 b6 07 07
        E 40 b6 07 09
        E 40 b6 07 0b
        E 40 b6 07 0c
        E 40 b6 07 0e
        E 40 b6 07 10
        E 40 b6 07 12
        E 40 b6 07 14
        E 40 b6 07 16
        E 40 b6 07 18
        E 40 b6 07 1a
        E 40 b6 07 1c
        E 40 b6 07 1f
        E 40 b6 07 21
        E 40 b6 07 24
        E 40 b6 07 26
        E 40 b6 07 28
        E 40 b6 07 2b
        E 40 b6 07 2d
        E 40 b6 07 2f
        E 40 b6 07 33
        E 45 b6 07 06
        E 45 b6 07 06
        E 45 b6 07 07
        E 45 b6 07 07
        E 45 b6 07 07
        E 45 b6 07 07
        E 45 b6 07 08
        E 45 b6 07 08
        E 45 b6 07 08
        E 45 b6 07 09
        E 45 b6 07 09
        E 45 b6 07 09
        E 45 b6 07 09
        E 45 b6 07 0a
        E 45 b6 07 0a
        E 45 b6 07 0a
        E 45 b6 07 0a
        E 45 b6 07 0b
        E 45 b6 07 0b
        E 45 b6 07 0b
        E 45 b6 07 0b
        E 45 b6 07 0b
        E 45 b6 07 0c
        E 45 b6 07 0c
        E 45 b6 07 0c
        E 45 b6 07 0c
        E 45 b6 07 0c
        E 45 b6 07 0c
        E 45 b6 07 0c
        E 45 b6 07 0c
        E 45 b6 07 0c
        E 45 b6 07 0c
        E 45 b6 07 0c
        E 45 b6 07 0c
        E 45 b6 07 0c
        E 45 b6 07 0c
        E 45 b6 07 0c
        E 45 b6 07 0c
        E 45 b6 07 0c
        E 45 b6 07 0c
        E 45 b6 07 0c
        E 45 b6 07 0c
        E 45 b6 07 0b
        E 45 b6 07 0b
        E 45 b6 07 0b
        E 45 b6 07 0b
        E 45 b6 07 0b
        E 45 b6 07 0b
        E 45 b6 07 0a
        E 45 b6 07 0a
        E 45 b6 07 0a
        E 45 b6 07 0a
        E 45 b6 07 09
        E 45 b6 07 09
        E 45 b6 07 09
        E 45 b6 07 08
        E 45 b6 07 08
        E 45 b6 07 08
        E 45 b6 07 08
        E 45 b6 07 07
        E 45 b6 07 07
        E 45 b6 07 07
        E 45 b6 07 06
        E 45 b6 07 06
        E 45 b6 07 06
        E 45 b6 07 05
        E 45 b6 07 05
        E 45 b6 07 05
        E 45 b6 07 04
        E 45 b6 07 04
        E 45 b6 07 04
        E 45 b6 07 04
        E 45 b6 07 03
        E 45 b6 07 03
        E 45 b6 07 03
        E 45 b6 07 02
        E 45 b6 07 02
        E 45 b6 07 02
        E 45 b6 07 02
        E 45 b6 07 01
        E 45 b6 07 01
        E 45 b6 07 01
        E 45 b6 07 01
        E 45 b6 07 01
        E 45 b6 07 01
        E 45 b6 07 00
        E 45 b6 07 00
        E 45 b6 07 00
        E 45 b6 07 00
        E 45 b6 07 00
        E 45 b6 07 00
        E 45 b6 07 00
        E 45 b6 07 00
        E 45 b6 07 00
        E 45 b6 07 00
        E 45 b6 07 00
        E 45 b6 07 00
        E 45 b6 07 00
        E 45 b6 07 00
        E 45 b6 07 00
        E 45 b6 07 00
        E 45 b6 07 00
        E 45 b6 07 00
        E 45 b6 07 00
        E 45 b6 07 00
        E 45 b6 07 00
        E 45 b6 07 00
        E 45 b6 07 01
        E 45 b6 07 01
        E 45 b6 07 01
        E 45 b6 07 01
        E 45 b6 07 01
        E 45 b6 07 02
        E 45 b6 07 02
        E 45 b6 07 02
        E 45 b6 07 02
        E 45 b6 07 03
        E 45 b6 07 03
        E 45 b6 07 03
        E 45 b6 07 03
        E 45 b6 07 04
        E 45 b6 07 04
        E 45 b6 07 04
        E 45 b6 07 05
        E 45 b6 07 05
        E 45 b6 07 05
        E 45 b6 07 06
        E 45 b6 07 06
        E 40 b6 07 19
        E 40 b6 07 1a
        E 40 b6 07 1c
        E 40 b6 07 1d
        E 40 b6 07 1e
        E 40 b6 07 1f
        E 40 b6 07 20
        E 40 b6 07 22
        E 40 b6 07 23
        E 40 b6 07 24
        E 40 b6 07 25
        E 40 b6 07 26
        E 40 b6 07 27
        E 40 b6 07 28
        E 40 b6 07 29
        E 40 b6 07 2a
        E 40 b6 07 2b
        E 40 b6 07 2c
        E 40 b6 07 2d
        E 40 b6 07 2e
        E 40 b6 07 2e
        E 40 b6 07 2f
        E 40 b6 07 30
        E 40 b6 07 30
        E 40 b6 07 30
        E 40 b6 07 31
        E 40 b6 07 31
        E 40 b6 07 32
        E 40 b6 07 32
        E 40 b6 07 32
        E 40 b6 07 32
        E 40 b6 07 32
        E 40 b6 07 32
        E 40 b6 07 32
        E 40 b6 07 32
        E 40 b6 07 32
        E 40 b6 07 32
        E 40 b6 07 32
        E 40 b6 07 31
        E 40 b6 07 31
        E 40 b6 07 30
        E 40 b6 07 30
        E 40 b6 07 2f
        E 40 b6 07 2e
        E 40 b6 07 2e
        E 40 b6 07 2d
        E 40 b6 07 2c
        E 40 b6 07 2c
        E 40 b6 07 2b
        E 40 b6 07 2a
        E 40 b6 07 29
        E 40 b6 07 28
        E 40 b6 07 27
        E 40 b6 07 26
        E 40 b6 07 24
        E 40 b6 07 23
        E 40 b6 07 22
        E 40 b6 07 21
        E 40 b6 07 20
        E 40 b6 07 1f
        E 40 b6 07 1d
        E 40 b6 07 1c
        E 40 b6 07 1b
        E 40 b6 07 1a
        E 40 b6 07 18
        E 40 b6 07 17
        E 40 b6 07 16
        E 40 b6 07 15
        E 40 b6 07 13
        E 40 b6 07 12
        E 40 b6 07 11
        E 40 b6 07 10
        E 40 b6 07 0f
        E 40 b6 07 0e
        E 40 b6 07 0c
        E 40 b6 07 0b
        E 40 b6 07 0a
        E 40 b6 07 09
        E 40 b6 07 08
        E 40 b6 07 07
        E 40 b6 07 06
        E 40 b6 07 06
        E 40 b6 07 05
        E 40 b6 07 04
        E 40 b6 07 04
        E 40 b6 07 03
        E 40 b6 07 02
        E 40 b6 07 02
        E 40 b6 07 01
        E 40 b6 07 01
        E 40 b6 07 00
        E 40 b6 07 00
        E 40 b6 07 00
        E 40 b6 07 00
        E 40 b6 07 00
        E 40 b6 07 00
        E 40 b6 07 00
        E 40 b6 07 00
        E 40 b6 07 00
        E 40 b6 07 00
        E 40 b6 07 00
        E 40 b6 07 01
        E 40 b6 07 01
        E 40 b6 07 02
        E 40 b6 07 02
        E 40 b6 07 02
        E 40 b6 07 03
        E 40 b6 07 04
        E 40 b6 07 04
        E 40 b6 07 05
        E 40 b6 07 06
        E 40 b6 07 07
        E 40 b6 07 08
        E 40 b6 07 09
        E 40 b6 07 0a
        E 40 b6 07 0b
        E 40 b6 07 0c
        E 40 b6 07 0d
        E 40 b6 07 0e
        E 40 b6 07 0f
        E 40 b6 07 10
        E 40 b6 07 12
        E 40 b6 07 13
        E 40 b6 07 14
        E 40 b6 07 15
        E 40 b6 07 16
        E 40 b6 07 18
        E 40 b6 07 19
        E 22 b6 07 2c
        E 22 b6 07 2e
        E 22 b6 07 31
        E 22 b6 07 33
        E 22 b6 07 35
        E 22 b6 07 37
        E 22 b6 07 39
        E 22 b6 07 3b
        E 22 b6 07 3d
        E 22 b6 07 3f
        E 22 b6 07 41
        E 22 b6 07 43
        E 22 b6 07 45
        E 22 b6 07 47
        E 22 b6 07 48
        E 22 b6 07 4a
        E 22 b6 07 4c
        E 22 b6 07 4d
        E 22 b6 07 4f
        E 22 b6 07 50
        E 22 b6 07 51
        E 22 b6 07 52
        E 22 b6 07 54
        E 22 b6 07 54
        E 22 b6 07 55
        E 22 b6 07 56
        E 22 b6 07 56
        E 22 b6 07 57
        E 22 b6 07 58
        E 22 b6 07 58
        E 22 b6 07 58
        E 22 b6 07 58
        E 22 b6 07 58
        E 22 b6 07 58
        E 22 b6 07 58
        E 22 b6 07 58
        E 22 b6 07 58
        E 22 b6 07 57
        E 22 b6 07 56
        E 22 b6 07 56
        E 22 b6 07 55
        E 22 b6 07 54
        E 22 b6 07 53
        E 22 b6 07 51
        E 22 b6 07 51
        E 22 b6 07 4f
        E 22 b6 07 4e
        E 22 b6 07 4d
        E 22 b6 07 4b
        E 22 b6 07 49
        E 22 b6 07 48
        E 22 b6 07 46
        E 22 b6 07 44
        E 22 b6 07 42
        E 22 b6 07 40
        E 22 b6 07 3e
        E 22 b6 07 3c
        E 22 b6 07 3a
        E 22 b6 07 38
        E 22 b6 07 36
        E 22 b6 07 33
        E 22 b6 07 31
        E 22 b6 07 2f
        E 22 b6 07 2d
        E 22 b6 07 2b
        E 22 b6 07 29
        E 22 b6 07 27
        E 22 b6 07 25
        E 22 b6 07 22
        E 22 b6 07 20
        E 22 b6 07 1e
        E 22 b6 07 1c
        E 22 b6 07 1a
        E 22 b6 07 18
        E 22 b6 07 16
        E 22 b6 07 14
        E 22 b6 07 12
        E 22 b6 07 10
        E 22 b6 07 0f
        E 22 b6 07 0d
        E 22 b6 07 0b
        E 22 b6 07 0a
        E 22 b6 07 09
        E 22 b6 07 07
        E 22 b6 07 07
        E 22 b6 07 05
        E 22 b6 07 04
        E 22 b6 07 03
        E 22 b6 07 02
        E 22 b6 07 02
        E 22 b6 07 01
        E 22 b6 07 00
        E 22 b6 07 00
        E 22 b6 07 00
        E 22 b6 07 00
        E 22 b6 07 00
        E 22 b6 07 00
        E 22 b6 07 00
        E 22 b6 07 00
        E 22 b6 07 00
        E 22 b6 07 01
        E 22 b6 07 02
        E 22 b6 07 02
        E 22 b6 07 03
        E 22 b6 07 04
        E 22 b6 07 04
        E 22 b6 07 06
        E 22 b6 07 07
        E 22 b6 07 08
        E 22 b6 07 09
        E 22 b6 07 0b
        E 22 b6 07 0c
        E 22 b6 07 0e
        E 22 b6 07 10
        E 22 b6 07 11
        E 22 b6 07 13
        E 22 b6 07 15
        E 22 b6 07 17
        E 22 b6 07 19
        E 22 b6 07 1b
        E 22 b6 07 1d
        E 22 b6 07 1f
        E 22 b6 07 21
        E 22 b6 07 23
        E 22 b6 07 25
        E 22 b6 07 27
        E 22 b6 07 2a
        E 22 b6 07 2c
        E 22 b6 07 20
        E 22 b6 07 21
        E 22 b6 07 23
        E 22 b6 07 24
        E 22 b6 07 26
        E 22 b6 07 27
        E 22 b6 07 29
        E 22 b6 07 2a
        E 22 b6 07 2c
        E 22 b6 07 2d
        E 22 b6 07 2f
        E 22 b6 07 30
        E 22 b6 07 31
        E 22 b6 07 33
        E 22 b6 07 34
        E 22 b6 07 35
        E 22 b6 07 36
        E 22 b6 07 37
        E 22 b6 07 38
        E 22 b6 07 39
        E 22 b6 07 3a
        E 22 b6 07 3b
        E 22 b6 07 3c
        E 22 b6 07 3c
        E 22 b6 07 3d
        E 22 b6 07 3d
        E 22 b6 07 3e
        E 22 b6 07 3e
        E 22 b6 07 3f
        E 22 b6 07 3f
        E 22 b6 07 3f
        E 22 b6 07 3f
        E 22 b6 07 3f
        E 22 b6 07 3f
        E 22 b6 07 3f
        E 22 b6 07 3f
        E 22 b6 07 3f
        E 22 b6 07 3e
        E 22 b6 07 3e
        E 22 b6 07 3d
        E 22 b6 07 3d
        E 22 b6 07 3c
        E 22 b6 07 3b
        E 22 b6 07 3a
        E 22 b6 07 3a
        E 22 b6 07 39
        E 22 b6 07 38
        E 22 b6 07 37
        E 22 b6 07 36
        E 22 b6 07 34
        E 22 b6 07 33
        E 22 b6 07 32
        E 22 b6 07 31
        E 22 b6 07 2f
        E 22 b6 07 2e
        E 22 b6 07 2c
        E 22 b6 07 2b
        E 22 b6 07 2a
        E 22 b6 07 28
        E 22 b6 07 27
        E 22 b6 07 25
        E 22 b6 07 23
        E 22 b6 07 22
        E 22 b6 07 20
        E 22 b6 07 1f
        E 22 b6 07 1d
        E 22 b6 07 1c
        E 22 b6 07 1a
        E 22 b6 07 18
        E 22 b6 07 17
        E 22 b6 07 15
        E 22 b6 07 14
        E 22 b6 07 13
        E 22 b6 07 11
        E 22 b6 07 10
        E 22 b6 07 0e
        E 22 b6 07 0d
        E 22 b6 07 0c
        E 22 b6 07 0b
        E 22 b6 07 09
        E 22 b6 07 08
        E 22 b6 07 07
        E 22 b6 07 06
        E 22 b6 07 05
        E 22 b6 07 05
        E 22 b6 07 04
        E 22 b6 07 03
        E 22 b6 07 02
        E 22 b6 07 02
        E 22 b6 07 01
        E 22 b6 07 01
        E 22 b6 07 00
        E 22 b6 07 00
        E 22 b6 07 00
        E 22 b6 07 00
        E 22 b6 07 00
        E 22 b6 07 00
        E 22 b6 07 00
        E 22 b6 07 00
        E 22 b6 07 00
        E 22 b6 07 01
        E 22 b6 07 01
        E 22 b6 07 02
        E 22 b6 07 02
        E 22 b6 07 03
        E 22 b6 07 03
        E 22 b6 07 04
        E 22 b6 07 05
        E 22 b6 07 06
        E 22 b6 07 07
        E 22 b6 07 08
        E 22 b6 07 09
        E 22 b6 07 0a
        E 22 b6 07 0b
        E 22 b6 07 0c
        E 22 b6 07 0e
        E 22 b6 07 0f
        E 22 b6 07 10
        E 22 b6 07 12
        E 22 b6 07 13
        E 22 b6 07 15
        E 22 b6 07 16
        E 22 b6 07 18
        E 22 b6 07 19
        E 22 b6 07 1b
        E 22 b6 07 1c
        E 22 b6 07 1e
        E 22 b6 07 20
        E 31 b6 07 20
        E 31 b6 07 21
        E 31 b6 07 23
        E 31 b6 07 24
        E 31 b6 07 26
        E 31 b6 07 27
        E 31 b6 07 29
        E 31 b6 07 2a
        E 31 b6 07 2c
        E 31 b6 07 2d
        E 31 b6 07 2f
        E 31 b6 07 30
        E 31 b6 07 31
        E 31 b6 07 33
        E 31 b6 07 34
        E 31 b6 07 35
        E 31 b6 07 36
        E 31 b6 07 37
        E 31 b6 07 38
        E 31 b6 07 39
        E 31 b6 07 3a
        E 31 b6 07 3b
        E 31 b6 07 3c
        E 31 b6 07 3c
        E 31 b6 07 3d
        E 31 b6 07 3d
        E 31 b6 07 3e
        E 31 b6 07 3e
        E 31 b6 07 3f
        E 31 b6 07 3f
        E 31 b6 07 3f
        E 31 b6 07 3f
        E 31 b6 07 3f
        E 31 b6 07 3f
        E 31 b6 07 3f
        E 31 b6 07 3f
        E 31 b6 07 3f
        E 31 b6 07 3e
        E 31 b6 07 3e
        E 31 b6 07 3d
        E 31 b6 07 3d
        E 31 b6 07 3c
        E 31 b6 07 3b
        E 31 b6 07 3a
        E 31 b6 07 3a
        E 31 b6 07 39
        E 31 b6 07 38
        E 31 b6 07 37
        E 31 b6 07 36
        E 31 b6 07 34
        E 31 b6 07 33
        E 31 b6 07 32
        E 31 b6 07 31
        E 31 b6 07 2f
        E 31 b6 07 2e
        E 31 b6 07 2c
        E 31 b6 07 2b
        E 31 b6 07 2a
        E 31 b6 07 28
        E 31 b6 07 27
        E 31 b6 07 25
        E 31 b6 07 23
        E 31 b6 07 22
        E 31 b6 07 20
        E 31 b6 07 1f
        E 31 b6 07 1d
        E 31 b6 07 1c
        E 31 b6 07 1a
        E 31 b6 07 18
        E 31 b6 07 17
        E 31 b6 07 15
        E 31 b6 07 14
        E 31 b6 07 13
        E 31 b6 07 11
        E 31 b6 07 10
        E 31 b6 07 0e
        E 31 b6 07 0d
        E 31 b6 07 0c
        E 31 b6 07 0b
        E 31 b6 07 09
        E 31 b6 07 08
        E 31 b6 07 07
        E 31 b6 07 06
        E 31 b6 07 05
        E 31 b6 07 05
        E 31 b6 07 04
        E 31 b6 07 03
        E 31 b6 07 02
        E 31 b6 07 02
        E 31 b6 07 01
        E 31 b6 07 01
        E 31 b6 07 00
        E 31 b6 07 00
        E 31 b6 07 00
        E 31 b6 07 00
        E 31 b6 07 00
        E 31 b6 07 00
        E 31 b6 07 00
        E 31 b6 07 00
        E 31 b6 07 00
        E 31 b6 07 01
        E 31 b6 07 01
        E 31 b6 07 02
        E 31 b6 07 02
        E 31 b6 07 03
        E 31 b6 07 03
        E 31 b6 07 04
        E 31 b6 07 05
        E 31 b6 07 06
        E 31 b6 07 07
        E 31 b6 07 08
        E 31 b6 07 09
        E 31 b6 07 0a
        E 31 b6 07 0b
        E 31 b6 07 0c
        E 31 b6 07 0e
        E 31 b6 07 0f
        E 31 b6 07 10
        E 31 b6 07 12
        E 31 b6 07 13
        E 31 b6 07 15
        E 31 b6 07 16
        E 31 b6 07 18
        E 31 b6 07 19
        E 31 b6 07 1b
        E 31 b6 07 1c
        E 31 b6 07 1e
        E 31 b6 07 20
        E 36 b6 07 40
        E 36 b6 07 43
        E 36 b6 07 46
        E 36 b6 07 49
        E 36 b6 07 4c
        E 36 b6 07 4f
        E 36 b6 07 52
        E 36 b6 07 55
        E 36 b6 07 58
        E 36 b6 07 5b
        E 36 b6 07 5e
        E 36 b6 07 60
        E 36 b6 07 63
        E 36 b6 07 66
        E 36 b6 07 68
        E 36 b6 07 6a
        E 36 b6 07 6d
        E 36 b6 07 6f
        E 36 b6 07 71
        E 36 b6 07 73
        E 36 b6 07 75
        E 36 b6 07 76
        E 36 b6 07 78
        E 36 b6 07 79
        E 36 b6 07 7a
        E 36 b6 07 7b
        E 36 b6 07 7c
        E 36 b6 07 7d
        E 36 b6 07 7e
        E 36 b6 07 7e
        E 36 b6 07 7f
        E 36 b6 07 7f
        E 36 b6 07 7f
        E 36 b6 07 7f
        E 36 b6 07 7f
        E 36 b6 07 7e
        E 36 b6 07 7e
        E 36 b6 07 7d
        E 36 b6 07 7c
        E 36 b6 07 7b
        E 36 b6 07 7a
        E 36 b6 07 78
        E 36 b6 07 77
        E 36 b6 07 75
        E 36 b6 07 74
        E 36 b6 07 72
        E 36 b6 07 70
        E 36 b6 07 6e
        E 36 b6 07 6c
        E 36 b6 07 69
        E 36 b6 07 67
        E 36 b6 07 64
        E 36 b6 07 62
        E 36 b6 07 5f
        E 36 b6 07 5c
        E 36 b6 07 59
        E 36 b6 07 57
        E 36 b6 07 54
        E 36 b6 07 51
        E 36 b6 07 4e
        E 36 b6 07 4a
        E 36 b6 07 47
        E 36 b6 07 44
        E 36 b6 07 41
        E 36 b6 07 3e
        E 36 b6 07 3b
        E 36 b6 07 38
        E 36 b6 07 35
        E 36 b6 07 31
        E 36 b6 07 2e
        E 36 b6 07 2b
        E 36 b6 07 28
        E 36 b6 07 26
        E 36 b6 07 23
        E 36 b6 07 20
        E 36 b6 07 1d
        E 36 b6 07 1b
        E 36 b6 07 18
        E 36 b6 07 16
        E 36 b6 07 13
        E 36 b6 07 11
        E 36 b6 07 0f
        E 36 b6 07 0d
        E 36 b6 07 0b
        E 36 b6 07 0a
        E 36 b6 07 08
        E 36 b6 07 07
        E 36 b6 07 05
        E 36 b6 07 04
        E 36 b6 07 03
        E 36 b6 07 02
        E 36 b6 07 01
        E 36 b6 07 01
        E 36 b6 07 00
        E 36 b6 07 00
        E 36 b6 07 00
        E 36 b6 07 00
        E 36 b6 07 00
        E 36 b6 07 01
        E 36 b6 07 01
        E 36 b6 07 02
        E 36 b6 07 03
        E 36 b6 07 04
        E 36 b6 07 05
        E 36 b6 07 06
        E 36 b6 07 07
        E 36 b6 07 09
        E 36 b6 07 0a
        E 36 b6 07 0c
        E 36 b6 07 0e
        E 36 b6 07 10
        E 36 b6 07 12
        E 36 b6 07 15
        E 36 b6 07 17
        E 36 b6 07 19
        E 36 b6 07 1c
        E 36 b6 07 1f
        E 36 b6 07 21
        E 36 b6 07 24
        E 36 b6 07 27
        E 36 b6 07 2a
        E 36 b6 07 2d
        E 36 b6 07 30
        E 36 b6 07 33
        E 36 b6 07 36
        E 36 b6 07 39
        E 36 b6 07 3c
        E 36 b6 07 40
        E 4 b6 07 39
        E 4 b6 07 3c
        E 4 b6 07 3f
        E 4 b6 07 41
        E 4 b6 07 44
        E 4 b6 07 47
        E 4 b6 07 49
        E 4 b6 07 4c
        E 4 b6 07 4f
        E 4 b6 07 51
        E 4 b6 07 54
        E 4 b6 07 56
        E 4 b6 07 59
        E 4 b6 07 5b
        E 4 b6 07 5d
        E 4 b6 07 5f
        E 4 b6 07 62
        E 4 b6 07 63
        E 4 b6 07 65
        E 4 b6 07 67
        E 4 b6 07 69
        E 4 b6 07 6a
        E 4 b6 07 6c
        E 4 b6 07 6c
        E 4 b6 07 6d
        E 4 b6 07 6e
        E 4 b6 07 6f
        E 4 b6 07 70
        E 4 b6 07 71
        E 4 b6 07 71
        E 4 b6 07 72
        E 4 b6 07 72
        E 4 b6 07 72
        E 4 b6 07 72
        E 4 b6 07 72
        E 4 b6 07 71
        E 4 b6 07 71
        E 4 b6 07 70
        E 4 b6 07 6f
        E 4 b6 07 6e
        E 4 b6 07 6d
        E 4 b6 07 6c
        E 4 b6 07 6b
        E 4 b6 07 69
        E 4 b6 07 68
        E 4 b6 07 66
        E 4 b6 07 64
        E 4 b6 07 63
        E 4 b6 07 61
        E 4 b6 07 5e
        E 4 b6 07 5c
        E 4 b6 07 5a
        E 4 b6 07 58
        E 4 b6 07 55
        E 4 b6 07 52
        E 4 b6 07 50
        E 4 b6 07 4e
        E 4 b6 07 4b
        E 4 b6 07 48
        E 4 b6 07 46
        E 4 b6 07 42
        E 4 b6 07 3f
        E 4 b6 07 3d
        E 4 b6 07 3a
        E 4 b6 07 37
        E 4 b6 07 35
        E 4 b6 07 32
        E 4 b6 07 2f
        E 4 b6 07 2c
        E 4 b6 07 29
        E 4 b6 07 26
        E 4 b6 07 24
        E 4 b6 07 22
        E 4 b6 07 1f
        E 4 b6 07 1c
        E 4 b6 07 1a
        E 4 b6 07 18
        E 4 b6 07 15
        E 4 b6 07 13
        E 4 b6 07 11
        E 4 b6 07 0f
        E 4 b6 07 0d
        E 4 b6 07 0b
        E 4 b6 07 09
        E 4 b6 07 09
        E 4 b6 07 07
        E 4 b6 07 06
        E 4 b6 07 04
        E 4 b6 07 03
        E 4 b6 07 02
        E 4 b6 07 01
        E 4 b6 07 00
        E 4 b6 07 00
        E 4 b6 07 00
        E 4 b6 07 00
        E 4 b6 07 00
        E 4 b6 07 00
        E 4 b6 07 00
        E 4 b6 07 00
        E 4 b6 07 00
        E 4 b6 07 01
        E 4 b6 07 02
        E 4 b6 07 03
        E 4 b6 07 04
        E 4 b6 07 05
        E 4 b6 07 06
        E 4 b6 07 08
        E 4 b6 07 09
        E 4 b6 07 0a
        E 4 b6 07 0c
        E 4 b6 07 0e
        E 4 b6 07 10
        E 4 b6 07 12
        E 4 b6 07 14
        E 4 b6 07 16
        E 4 b6 07 19
        E 4 b6 07 1b
        E 4 b6 07 1d
        E 4 b6 07 20
        E 4 b6 07 23
        E 4 b6 07 25
        E 4 b6 07 28
        E 4 b6 07 2b
        E 4 b6 07 2d
        E 4 b6 07 30
        E 4 b6 07 33
        E 4 b6 07 36
        E 4 b6 07 39
        E 18 b6 07 40
        E 18 b6 07 43
        E 18 b6 07 46
        E 18 b6 07 49
        E 18 b6 07 4c
        E 18 b6 07 4f
        E 18 b6 07 52
        E 18 b6 07 55
        E 18 b6 07 58
        E 18 b6 07 5b
        E 18 b6 07 5e
        E 18 b6 07 60
        E 18 b6 07 63
        E 18 b6 07 66
        E 18 b6 07 68
        E 18 b6 07 6a
        E 18 b6 07 6d
        E 18 b6 07 6f
        E 18 b6 07 71
        E 18 b6 07 73
        E 18 b6 07 75
        E 18 b6 07 76
        E 18 b6 07 78
        E 18 b6 07 79
        E 18 b6 07 7a
        E 18 b6 07 7b
        E 18 b6 07 7c
        E 18 b6 07 7d
        E 18 b6 07 7e
        E 18 b6 07 7e
        E 18 b6 07 7f
        E 18 b6 07 7f
        E 18 b6 07 7f
        E 18 b6 07 7f
        E 18 b6 07 7f
        E 18 b6 07 7e
        E 18 b6 07 7e
        E 18 b6 07 7d
        E 18 b6 07 7c
        E 18 b6 07 7b
        E 18 b6 07 7a
        E 18 b6 07 78
        E 18 b6 07 77
        E 18 b6 07 75
        E 18 b6 07 74
        E 18 b6 07 72
        E 18 b6 07 70
        E 18 b6 07 6e
        E 18 b6 07 6c
        E 18 b6 07 69
        E 18 b6 07 67
        E 18 b6 07 64
        E 18 b6 07 62
        E 18 b6 07 5f
        E 18 b6 07 5c
        E 18 b6 07 59
        E 18 b6 07 57
        E 18 b6 07 54
        E 18 b6 07 51
        E 18 b6 07 4e
        E 18 b6 07 4a
        E 18 b6 07 47
        E 18 b6 07 44
        E 18 b6 07 41
        E 18 b6 07 3e
        E 18 b6 07 3b
        E 18 b6 07 38
        E 18 b6 07 35
        E 18 b6 07 31
        E 18 b6 07 2e
        E 18 b6 07 2b
        E 18 b6 07 28
        E 18 b6 07 26
        E 18 b6 07 23
        E 18 b6 07 20
        E 18 b6 07 1d
        E 18 b6 07 1b
        E 18 b6 07 18
        E 18 b6 07 16
        E 18 b6 07 13
        E 18 b6 07 11
        E 18 b6 07 0f
        E 18 b6 07 0d
        E 18 b6 07 0b
        E 18 b6 07 0a
        E 18 b6 07 08
        E 18 b6 07 07
        E 18 b6 07 05
        E 18 b6 07 04
        E 18 b6 07 03
        E 18 b6 07 02
        E 18 b6 07 01
        E 18 b6 07 01
        E 18 b6 07 00
        E 18 b6 07 00
        E 18 b6 07 00
        E 18 b6 07 00
        E 18 b6 07 00
        E 18 b6 07 01
        E 18 b6 07 01
        E 18 b6 07 02
        E 18 b6 07 03
        E 18 b6 07 04
        E 18 b6 07 05
        E 18 b6 07 06
        E 18 b6 07 07
        E 18 b6 07 09
        E 18 b6 07 0a
        E 18 b6 07 0c
        E 18 b6 07 0e
        E 18 b6 07 10
        E 18 b6 07 12
        E 18 b6 07 15
        E 18 b6 07 17
        E 18 b6 07 19
        E 18 b6 07 1c
        E 18 b6 07 1f
        E 18 b6 07 21
        E 18 b6 07 24
        E 18 b6 07 27
        E 18 b6 07 2a
        E 18 b6 07 2d
        E 18 b6 07 30
        E 18 b6 07 33
        E 18 b6 07 36
        E 18 b6 07 39
        E 18 b6 07 3c
        E 18 b6 07 40
        E 31 b6 07 39
        E 31 b6 07 3c
        E 31 b6 07 3f
        E 31 b6 07 41
        E 31 b6 07 44
        E 31 b6 07 47
        E 31 b6 07 49
        E 31 b6 07 4c
        E 31 b6 07 4f
        E 31 b6 07 51
        E 31 b6 07 54
        E 31 b6 07 56
        E 31 b6 07 59
        E 31 b6 07 5b
        E 31 b6 07 5d
        E 31 b6 07 5f
        E 31 b6 07 62
        E 31 b6 07 63
        E 31 b6 07 65
        E 31 b6 07 67
        E 31 b6 07 69
        E 31 b6 07 6a
        E 31 b6 07 6c
        E 31 b6 07 6c
        E 31 b6 07 6d
        E 31 b6 07 6e
        E 31 b6 07 6f
        E 31 b6 07 70
        E 31 b6 07 71
        E 31 b6 07 71
        E 31 b6 07 72
        E 31 b6 07 72
        E 31 b6 07 72
        E 31 b6 07 72
        E 31 b6 07 72
        E 31 b6 07 71
        E 31 b6 07 71
        E 31 b6 07 70
        E 31 b6 07 6f
        E 31 b6 07 6e
        E 31 b6 07 6d
        E 31 b6 07 6c
        E 31 b6 07 6b
        E 31 b6 07 69
        E 31 b6 07 68
        E 31 b6 07 66
        E 31 b6 07 64
        E 31 b6 07 63
        E 31 b6 07 61
        E 31 b6 07 5e
        E 31 b6 07 5c
        E 31 b6 07 5a
        E 31 b6 07 58
        E 31 b6 07 55
        E 31 b6 07 52
        E 31 b6 07 50
        E 31 b6 07 4e
        E 31 b6 07 4b
        E 31 b6 07 48
        E 31 b6 07 46
        E 31 b6 07 42
        E 31 b6 07 3f
        E 31 b6 07 3d
        E 31 b6 07 3a
        E 31 b6 07 37
        E 31 b6 07 35
        E 31 b6 07 32
        E 31 b6 07 2f
        E 31 b6 07 2c
        E 31 b6 07 29
        E 31 b6 07 26
        E 31 b6 07 24
        E 31 b6 07 22
        E 31 b6 07 1f
        E 31 b6 07 1c
        E 31 b6 07 1a
        E 31 b6 07 18
        E 31 b6 07 15
        E 31 b6 07 13
        E 31 b6 07 11
        E 31 b6 07 0f
        E 31 b6 07 0d
        E 31 b6 07 0b
        E 31 b6 07 09
        E 31 b6 07 09
        E 31 b6 07 07
        E 31 b6 07 06
        E 31 b6 07 04
        E 31 b6 07 03
        E 31 b6 07 02
        E 31 b6 07 01
        E 31 b6 07 00
        E 31 b6 07 00
        E 31 b6 07 00
        E 31 b6 07 00
        E 31 b6 07 00
        E 31 b6 07 00
        E 31 b6 07 00
        E 31 b6 07 00
        E 31 b6 07 00
        E 31 b6 07 01
        E 31 b6 07 02
        E 31 b6 07 03
        E 31 b6 07 04
        E 31 b6 07 05
        E 31 b6 07 06
        E 31 b6 07 08
        E 31 b6 07 09
        E 31 b6 07 0a
        E 31 b6 07 0c
        E 31 b6 07 0e
        E 31 b6 07 10
        E 31 b6 07 12
        E 31 b6 07 14
        E 31 b6 07 16
        E 31 b6 07 19
        E 31 b6 07 1b
        E 31 b6 07 1d
        E 31 b6 07 20
        E 31 b6 07 23
        E 31 b6 07 25
        E 31 b6 07 28
        E 31 b6 07 2b
        E 31 b6 07 2d
        E 31 b6 07 30
        E 31 b6 07 33
        E 31 b6 07 36
        E 31 b6 07 39
        E 45 b6 07 2c
        E 45 b6 07 2e
        E 45 b6 07 31
        E 45 b6 07 33
        E 45 b6 07 35
        E 45 b6 07 37
        E 45 b6 07 39
        E 45 b6 07 3b
        E 45 b6 07 3d
        E 45 b6 07 3f
        E 45 b6 07 41
        E 45 b6 07 43
        E 45 b6 07 45
        E 45 b6 07 47
        E 45 b6 07 48
        E 45 b6 07 4a
        E 45 b6 07 4c
        E 45 b6 07 4d
        E 45 b6 07 4f
        E 45 b6 07 50
        E 45 b6 07 51
        E 45 b6 07 52
        E 45 b6 07 54
        E 45 b6 07 54
        E 45 b6 07 55
        E 45 b6 07 56
        E 45 b6 07 56
        E 45 b6 07 57
        E 45 b6 07 58
        E 45 b6 07 58
        E 45 b6 07 58
        E 45 b6 07 58
        E 45 b6 07 58
        E 45 b6 07 58
        E 45 b6 07 58
        E 45 b6 07 58
        E 45 b6 07 58
        E 45 b6 07 57
        E 45 b6 07 56
        E 45 b6 07 56
        E 45 b6 07 55
        E 45 b6 07 54
        E 45 b6 07 53
        E 45 b6 07 51
        E 45 b6 07 51
        E 45 b6 07 4f
        E 45 b6 07 4e
        E 45 b6 07 4d
        E 45 b6 07 4b
        E 45 b6 07 49
        E 45 b6 07 48
        E 45 b6 07 46
        E 45 b6 07 44
        E 45 b6 07 42
        E 45 b6 07 40
        E 45 b6 07 3e
        E 45 b6 07 3c
        E 45 b6 07 3a
        E 45 b6 07 38
        E 45 b6 07 36
        E 45 b6 07 33
        E 45 b6 07 31
        E 45 b6 07 2f
        E 45 b6 07 2d
        E 45 b6 07 2b
        E 45 b6 07 29
        E 45 b6 07 27
        E 45 b6 07 25
        E 45 b6 07 22
        E 45 b6 07 20
        E 45 b6 07 1e
        E 45 b6 07 1c
        E 45 b6 07 1a
        E 45 b6 07 18
        E 45 b6 07 16
        E 45 b6 07 14
        E 45 b6 07 12
        E 45 b6 07 10
        E 45 b6 07 0f
        E 45 b6 07 0d
        E 45 b6 07 0b
        E 45 b6 07 0a
        E 45 b6 07 09
        E 45 b6 07 07
        E 45 b6 07 07
        E 45 b6 07 05
        E 45 b6 07 04
        E 45 b6 07 03
        E 45 b6 07 02
        E 45 b6 07 02
        E 45 b6 07 01
        E 45 b6 07 00
        E 45 b6 07 00
        E 45 b6 07 00
        E 45 b6 07 00
        E 45 b6 07 00
        E 45 b6 07 00
        E 45 b6 07 00
        E 45 b6 07 00
        E 45 b6 07 00
        E 45 b6 07 01
        E 45 b6 07 02
        E 45 b6 07 02
        E 45 b6 07 03
        E 45 b6 07 04
        E 45 b6 07 04
        E 45 b6 07 06
        E 45 b6 07 07
        E 45 b6 07 08
        E 45 b6 07 09
        E 45 b6 07 0b
        E 45 b6 07 0c
        E 45 b6 07 0e
        E 45 b6 07 10
        E 45 b6 07 11
        E 45 b6 07 13
        E 45 b6 07 15
        E 45 b6 07 17
        E 45 b6 07 19
        E 45 b6 07 1b
        E 45 b6 07 1d
        E 45 b6 07 1f
        E 45 b6 07 21
        E 45 b6 07 23
        E 45 b6 07 25
        E 45 b6 07 27
        E 45 b6 07 2a
        E 45 b6 07 2c
        E 40 b6 07 33
        E 40 b6 07 35
        E 40 b6 07 37
        E 40 b6 07 3a
        E 40 b6 07 3c
        E 40 b6 07 3f
        E 40 b6 07 41
        E 40 b6 07 44
        E 40 b6 07 46
        E 40 b6 07 48
        E 40 b6 07 4b
        E 40 b6 07 4c
        E 40 b6 07 4f
        E 40 b6 07 51
        E 40 b6 07 53
        E 40 b6 07 54
        E 40 b6 07 57
        E 40 b6 07 58
        E 40 b6 07 5a
        E 40 b6 07 5b
        E 40 b6 07 5d
        E 40 b6 07 5e
        E 40 b6 07 5f
        E 40 b6 07 60
        E 40 b6 07 61
        E 40 b6 07 62
        E 40 b6 07 63
        E 40 b6 07 63
        E 40 b6 07 64
        E 40 b6 07 64
        E 40 b6 07 65
        E 40 b6 07 65
        E 40 b6 07 65
        E 40 b6 07 65
        E 40 b6 07 65
        E 40 b6 07 64
        E 40 b6 07 64
        E 40 b6 07 63
        E 40 b6 07 63
        E 40 b6 07 62
        E 40 b6 07 61
        E 40 b6 07 5f
        E 40 b6 07 5f
        E 40 b6 07 5d
        E 40 b6 07 5c
        E 40 b6 07 5b
        E 40 b6 07 59
        E 40 b6 07 57
        E 40 b6 07 56
        E 40 b6 07 54
        E 40 b6 07 52
        E 40 b6 07 50
        E 40 b6 07 4e
        E 40 b6 07 4c
        E 40 b6 07 49
        E 40 b6 07 47
        E 40 b6 07 45
        E 40 b6 07 43
        E 40 b6 07 40
        E 40 b6 07 3e
        E 40 b6 07 3b
        E 40 b6 07 38
        E 40 b6 07 36
        E 40 b6 07 33
        E 40 b6 07 31
        E 40 b6 07 2f
        E 40 b6 07 2c
        E 40 b6 07 2a
        E 40 b6 07 27
        E 40 b6 07 24
        E 40 b6 07 22
        E 40 b6 07 1f
        E 40 b6 07 1e
        E 40 b6 07 1b
        E 40 b6 07 19
        E 40 b6 07 17
        E 40 b6 07 15
        E 40 b6 07 13
        E 40 b6 07 11
        E 40 b6 07 0f
        E 40 b6 07 0d
        E 40 b6 07 0b
        E 40 b6 07 0a
        E 40 b6 07 08
        E 40 b6 07 07
        E 40 b6 07 06
        E 40 b6 07 05
        E 40 b6 07 03
        E 40 b6 07 03
        E 40 b6 07 02
        E 40 b6 07 01
        E 40 b6 07 00
        E 40 b6 07 00
        E 40 b6 07 00
        E 40 b6 07 00
        E 40 b6 07 00
        E 40 b6 07 00
        E 40 b6 07 00
        E 40 b6 07 00
        E 40 b6 07 00
        E 40 b6 07 01
        E 40 b6 07 02
        E 40 b6 07 03
        E 40 b6 07 03
        E 40 b6 07 04
        E 40 b6 07 05
        E 40 b6 07 07
        E 40 b6 07 07
        E 40 b6 07 09
        E 40 b6 07 0b
        E 40 b6 07 0c
        E 40 b6 07 0e
        E 40 b6 07 10
        E 40 b6 07 12
        E 40 b6 07 14
        E 40 b6 07 16
        E 40 b6 07 18
        E 40 b6 07 1a
        E 40 b6 07 1c
        E 40 b6 07 1f
        E 40 b6 07 21
        E 40 b6 07 24
        E 40 b6 07 26
        E 40 b6 07 28
        E 40 b6 07 2b
        E 40 b6 07 2d
        E 40 b6 07 2f
        E 40 b6 07 33
        E 45 b6 07 06
        E 45 b6 07 06
        E 45 b6 07 07
        E 45 b6 07 07
        E 45 b6 07 07
        E 45 b6 07 07
        E 45 b6 07 08
        E 45 b6 07 08
        E 45 b6 07 08
        E 45 b6 07 09
        E 45 b6 07 09
        E 45 b6 07 09
        E 45 b6 07 09
        E 45 b6 07 0a
        E 45 b6 07 0a
        E 45 b6 07 0a
        E 45 b6 07 0a
        E 45 b6 07 0b
        E 45 b6 07 0b
        E 45 b6 07 0b
        E 45 b6 07 0b
        E 45 b6 07 0b
        E 45 b6 07 0c
        E 45 b6 07 0c
        E 45 b6 07 0c
        E 45 b6 07 0c
        E 45 b6 07 0c
        E 45 b6 07 0c
        E 45 b6 07 0c
        E 45 b6 07 0c
        E 45 b6 07 0c
        E 45 b6 07 0c
        E 45 b6 07 0c
        E 45 b6 07 0c
        E 45 b6 07 0c
        E 45 b6 07 0c
        E 45 b6 07 0c
        E 45 b6 07 0c
        E 45 b6 07 0c
        E 45 b6 07 0c
        E 45 b6 07 0c
        E 45 b6 07 0c
        E 45 b6 07 0b
        E 45 b6 07 0b
        E 45 b6 07 0b
        E 45 b6 07 0b
        E 45 b6 07 0b
        E 45 b6 07 0b
        E 45 b6 07 0a
        E 45 b6 07 0a
        E 45 b6 07 0a
        E 45 b6 07 0a
        E 45 b6 07 09
        E 45 b6 07 09
        E 45 b6 07 09
        E 45 b6 07 08
        E 45 b6 07 08
        E 45 b6 07 08
        E 45 b6 07 08
        E 45 b6 07 07
        E 45 b6 07 07
        E 45 b6 07 07
        E 45 b6 07 06
        E 45 b6 07 06
        E 45 b6 07 06
        E 45 b6 07 05
        E 45 b6 07 05
        E 45 b6 07 05
        E 45 b6 07 04
        E 45 b6 07 04
        E 45 b6 07 04
        E 45 b6 07 04
        E 45 b6 07 03
        E 45 b6 07 03
        E 45 b6 07 03
        E 45 b6 07 02
        E 45 b6 07 02
        E 45 b6 07 02
        E 45 b6 07 02
        E 45 b6 07 01
        E 45 b6 07 01
        E 45 b6 07 01
        E 45 b6 07 01
        E 45 b6 07 01
        E 45 b6 07 01
        E 45 b6 07 00
        E 45 b6 07 00
        E 45 b6 07 00
        E 45 b6 07 00
        E 45 b6 07 00
        E 45 b6 07 00
        E 45 b6 07 00
        E 45 b6 07 00
        E 45 b6 07 00
        E 45 b6 07 00
        E 45 b6 07 00
        E 45 b6 07 00
        E 45 b6 07 00
        E 45 b6 07 00
        E 45 b6 07 00
        E 45 b6 07 00
        E 45 b6 07 00
        E 45 b6 07 00
        E 45 b6 07 00
        E 45 b6 07 00
        E 45 b6 07 00
        E 45 b6 07 00
        E 45 b6 07 01
        E 45 b6 07 01
        E 45 b6 07 01
        E 45 b6 07 01
        E 45 b6 07 01
        E 45 b6 07 02
        E 45 b6 07 02
        E 45 b6 07 02
        E 45 b6 07 02
        E 45 b6 07 03
        E 45 b6 07 03
        E 45 b6 07 03
        E 45 b6 07 03
        E 45 b6 07 04
        E 45 b6 07 04
        E 45 b6 07 04
        E 45 b6 07 05
        E 45 b6 07 05
        E 45 b6 07 05
        E 45 b6 07 06
        E 45 b6 07 06
        E 40 b6 07 19
        E 40 b6 07 1a
        E 40 b6 07 1c
        E 40 b6 07 1d
        E 40 b6 07 1e
        E 40 b6 07 1f
        E 40 b6 07 20
        E 40 b6 07 22
        E 40 b6 07 23
        E 40 b6 07 24
        E 40 b6 07 25
        E 40 b6 07 26
        E 40 b6 07 27
        E 40 b6 07 28
        E 40 b6 07 29
        E 40 b6 07 2a
        E 40 b6 07 2b
        E 40 b6 07 2c
        E 40 b6 07 2d
        E 40 b6 07 2e
        E 40 b6 07 2e
        E 40 b6 07 2f
        E 40 b6 07 30
        E 40 b6 07 30
        E 40 b6 07 30
        E 40 b6 07 31
        E 40 b6 07 31
        E 40 b6 07 32
        E 40 b6 07 32
        E 40 b6 07 32
        E 40 b6 07 32
        E 40 b6 07 32
        E 40 b6 07 32
        E 40 b6 07 32
        E 40 b6 07 32
        E 40 b6 07 32
        E 40 b6 07 32
        E 40 b6 07 32
        E 40 b6 07 31
        E 40 b6 07 31
        E 40 b6 07 30
        E 40 b6 07 30
        E 40 b6 07 2f
        E 40 b6 07 2e
        E 40 b6 07 2e
        E 40 b6 07 2d
        E 40 b6 07 2c
        E 40 b6 07 2c
        E 40 b6 07 2b
        E 40 b6 07 2a
        E 40 b6 07 29
        E 40 b6 07 28
        E 40 b6 07 27
        E 40 b6 07 26
        E 40 b6 07 24
        E 40 b6 07 23
        E 40 b6 07 22
        E 40 b6 07 21
        E 40 b6 07 20
        E 40 b6 07 1f
        E 40 b6 07 1d
        E 40 b6 07 1c
        E 40 b6 07 1b
        E 40 b6 07 1a
        E 40 b6 07 18
        E 40 b6 07 17
        E 40 b6 07 16
        E 40 b6 07 15
        E 40 b6 07 13
        E 40 b6 07 12
        E 40 b6 07 11
        E 40 b6 07 10
        E 40 b6 07 0f
        E 40 b6 07 0e
        E 40 b6 07 0c
        E 40 b6 07 0b
        E 40 b6 07 0a
        E 40 b6 07 09
        E 40 b6 07 08
        E 40 b6 07 07
        E 40 b6 07 06
        E 40 b6 07 06
        E 40 b6 07 05
        E 40 b6 07 04
        E 40 b6 07 04
        E 40 b6 07 03
        E 40 b6 07 02
        E 40 b6 07 02
        E 40 b6 07 01
        E 40 b6 07 01
        E 40 b6 07 00
        E 40 b6 07 00
        E 40 b6 07 00
        E 40 b6 07 00
        E 40 b6 07 00
        E 40 b6 07 00
        E 40 b6 07 00
        E 40 b6 07 00
        E 40 b6 07 00
        E 40 b6 07 00
        E 40 b6 07 00
        E 40 b6 07 01
        E 40 b6 07 01
        E 40 b6 07 02
        E 40 b6 07 02
        E 40 b6 07 02
        E 40 b6 07 03
        E 40 b6 07 04
        E 40 b6 07 04
        E 40 b6 07 05
        E 40 b6 07 06
        E 40 b6 07 07
        E 40 b6 07 08
        E 40 b6 07 09
        E 40 b6 07 0a
        E 40 b6 07 0b
        E 40 b6 07 0c
        E 40 b6 07 0d
        E 40 b6 07 0e
        E 40 b6 07 0f
        E 40 b6 07 10
        E 40 b6 07 12
        E 40 b6 07 13
        E 40 b6 07 14
        E 40 b6 07 15
        E 40 b6 07 16
        E 40 b6 07 18
        E 40 b6 07 19
        E 22 b6 07 2c
        E 22 b6 07 2e
        E 22 b6 07 31
        E 22 b6 07 33
        E 22 b6 07 35
        E 22 b6 07 37
        E 22 b6 07 39
        E 22 b6 07 3b
        E 22 b6 07 3d
        E 22 b6 07 3f
        E 22 b6 07 41
        E 22 b6 07 43
        E 22 b6 07 45
        E 22 b6 07 47
        E 22 b6 07 48
        E 22 b6 07 4a
        E 22 b6 07 4c
        E 22 b6 07 4d
        E 22 b6 07 4f
        E 22 b6 07 50
        E 22 b6 07 51
        E 22 b6 07 52
        E 22 b6 07 54
        E 22 b6 07 54
        E 22 b6 07 55
        E 22 b6 07 56
        E 22 b6 07 56
        E 22 b6 07 57
        E 22 b6 07 58
        E 22 b6 07 58
        E 22 b6 07 58
        E 22 b6 07 58
        E 22 b6 07 58
        E 22 b6 07 58
        E 22 b6 07 58
        E 22 b6 07 58
        E 22 b6 07 58
        E 22 b6 07 57
        E 22 b6 07 56
        E 22 b6 07 56
        E 22 b6 07 55
        E 22 b6 07 54
        E 22 b6 07 53
        E 22 b6 07 51
        E 22 b6 07 51
        E 22 b6 07 4f
        E 22 b6 07 4e
        E 22 b6 07 4d
        E 22 b6 07 4b
        E 22 b6 07 49
        E 22 b6 07 48
        E 22 b6 07 46
        E 22 b6 07 44
        E 22 b6 07 42
        E 22 b6 07 40
        E 22 b6 07 3e
        E 22 b6 07 3c
        E 22 b6 07 3a
        E 22 b6 07 38
        E 22 b6 07 36
        E 22 b6 07 33
        E 22 b6 07 31
        E 22 b6 07 2f
        E 22 b6 07 2d
        E 22 b6 07 2b
        E 22 b6 07 29
        E 22 b6 07 27
        E 22 b6 07 25
        E 22 b6 07 22
        E 22 b6 07 20
        E 22 b6 07 1e
        E 22 b6 07 1c
        E 22 b6 07 1a
        E 22 b6 07 18
        E 22 b6 07 16
        E 22 b6 07 14
        E 22 b6 07 12
        E 22 b6 07 10
        E 22 b6 07 0f
        E 22 b6 07 0d
        E 22 b6 07 0b
        E 22 b6 07 0a
        E 22 b6 07 09
        E 22 b6 07 07
        E 22 b6 07 07
        E 22 b6 07 05
        E 22 b6 07 04
        E 22 b6 07 03
        E 22 b6 07 02
        E 22 b6 07 02
        E 22 b6 07 01
        E 22 b6 07 00
        E 22 b6 07 00
        E 22 b6 07 00
        E 22 b6 07 00
        E 22 b6 07 00
        E 22 b6 07 00
        E 22 b6 07 00
        E 22 b6 07 00
        E 22 b6 07 00
        E 22 b6 07 01
        E 22 b6 07 02
        E 22 b6 07 02
        E 22 b6 07 03
        E 22 b6 07 04
        E 22 b6 07 04
        E 22 b6 07 06
        E 22 b6 07 07
        E 22 b6 07 08
        E 22 b6 07 09
        E 22 b6 07 0b
        E 22 b6 07 0c
        E 22 b6 07 0e
        E 22 b6 07 10
        E 22 b6 07 11
        E 22 b6 07 13
        E 22 b6 07 15
        E 22 b6 07 17
        E 22 b6 07 19
        E 22 b6 07 1b
        E 22 b6 07 1d
        E 22 b6 07 1f
        E 22 b6 07 21
        E 22 b6 07 23
        E 22 b6 07 25
        E 22 b6 07 27
        E 22 b6 07 2a
        E 22 b6 07 2c
        E 22 b6 07 20
        E 22 b6 07 21
        E 22 b6 07 23
        E 22 b6 07 24
        E 22 b6 07 26
        E 22 b6 07 27
        E 22 b6 07 29
        E 22 b6 07 2a
        E 22 b6 07 2c
        E 22 b6 07 2d
        E 22 b6 07 2f
        E 22 b6 07 30
        E 22 b6 07 31
        E 22 b6 07 33
        E 22 b6 07 34
        E 22 b6 07 35
        E 22 b6 07 36
        E 22 b6 07 37
        E 22 b6 07 38
        E 22 b6 07 39
        E 22 b6 07 3a
        E 22 b6 07 3b
        E 22 b6 07 3c
        E 22 b6 07 3c
        E 22 b6 07 3d
        E 22 b6 07 3d
        E 22 b6 07 3e
        E 22 b6 07 3e
        E 22 b6 07 3f
        E 22 b6 07 3f
        E 22 b6 07 3f
        E 22 b6 07 3f
        E 22 b6 07 3f
        E 22 b6 07 3f
        E 22 b6 07 3f
        E 22 b6 07 3f
        E 22 b6 07 3f
        E 22 b6 07 3e
        E 22 b6 07 3e
        E 22 b6 07 3d
        E 22 b6 07 3d
        E 22 b6 07 3c
        E 22 b6 07 3b
        E 22 b6 07 3a
        E 22 b6 07 3a
        E 22 b6 07 39
        E 22 b6 07 38
        E 22 b6 07 37
        E 22 b6 07 36
        E 22 b6 07 34
        E 22 b6 07 33
        E 22 b6 07 32
        E 22 b6 07 31
        E 22 b6 07 2f
        E 22 b6 07 2e
        E 22 b6 07 2c
        E 22 b6 07 2b
        E 22 b6 07 2a
        E 22 b6 07 28
        E 22 b6 07 27
        E 22 b6 07 25
        E 22 b6 07 23
        E 22 b6 07 22
        E 22 b6 07 20
        E 22 b6 07 1f
        E 22 b6 07 1d
        E 22 b6 07 1c
        E 22 b6 07 1a
        E 22 b6 07 18
        E 22 b6 07 17
        E 22 b6 07 15
        E 22 b6 07 14
        E 22 b6 07 13
        E 22 b6 07 11
        E 22 b6 07 10
        E 22 b6 07 0e
        E 22 b6 07 0d
        E 22 b6 07 0c
        E 22 b6 07 0b
        E 22 b6 07 09
        E 22 b6 07 08
        E 22 b6 07 07
        E 22 b6 07 06
        E 22 b6 07 05
        E 22 b6 07 05
        E 22 b6 07 04
        E 22 b6 07 03
        E 22 b6 07 02
        E 22 b6 07 02
        E 22 b6 07 01
        E 22 b6 07 01
        E 22 b6 07 00
        E 22 b6 07 00
        E 22 b6 07 00
        E 22 b6 07 00
        E 22 b6 07 00
        E 22 b6 07 00
        E 22 b6 07 00
        E 22 b6 07 00
        E 22 b6 07 00
        E 22 b6 07 01
        E 22 b6 07 01
        E 22 b6 07 02
        E 22 b6 07 02
        E 22 b6 07 03
        E 22 b6 07 03
        E 22 b6 07 04
        E 22 b6 07 05
        E 22 b6 07 06
        E 22 b6 07 07
        E 22 b6 07 08
        E 22 b6 07 09
        E 22 b6 07 0a
        E 22 b6 07 0b
        E 22 b6 07 0c
        E 22 b6 07 0e
        E 22 b6 07 0f
        E 22 b6 07 10
        E 22 b6 07 12
        E 22 b6 07 13
        E 22 b6 07 15
        E 22 b6 07 16
        E 22 b6 07 18
        E 22 b6 07 19
        E 22 b6 07 1b
        E 22 b6 07 1c
        E 22 b6 07 1e
        E 22 b6 07 20
        E 31 b6 07 20
        E 31 b6 07 21
        E 31 b6 07 23
        E 31 b6 07 24
        E 31 b6 07 26
        E 31 b6 07 27
        E 31 b6 07 29
        E 31 b6 07 2a
        E 31 b6 07 2c
        E 31 b6 07 2d
        E 31 b6 07 2f
        E 31 b6 07 30
        E 31 b6 07 31
        E 31 b6 07 33
        E 31 b6 07 34
        E 31 b6 07 35
        E 31 b6 07 36
        E 31 b6 07 37
        E 31 b6 07 38
        E 31 b6 07 39
        E 31 b6 07 3a
        E 31 b6 07 3b
        E 31 b6 07 3c
        E 31 b6 07 3c
        E 31 b6 07 3d
        E 31 b6 07 3d
        E 31 b6 07 3e
        E 31 b6 07 3e
        E 31 b6 07 3f
        E 31 b6 07 3f
        E 31 b6 07 3f
        E 31 b6 07 3f
        E 31 b6 07 3f
        E 31 b6 07 3f
        E 31 b6 07 3f
        E 31 b6 07 3f
        E 31 b6 07 3f
        E 31 b6 07 3e
        E 31 b6 07 3e
        E 31 b6 07 3d
        E 31 b6 07 3d
        E 31 b6 07 3c
        E 31 b6 07 3b
        E 31 b6 07 3a
        E 31 b6 07 3a
        E 31 b6 07 39
        E 31 b6 07 38
        E 31 b6 07 37
        E 31 b6 07 36
        E 31 b6 07 34
        E 31 b6 07 33
        E 31 b6 07 32
        E 31 b6 07 31
        E 31 b6 07 2f
        E 31 b6 07 2e
        E 31 b6 07 2c
        E 31 b6 07 2b
        E 31 b6 07 2a
        E 31 b6 07 28
        E 31 b6 07 27
        E 31 b6 07 25
        E 31 b6 07 23
        E 31 b6 07 22
        E 31 b6 07 20
        E 31 b6 07 1f
        E 31 b6 07 1d
        E 31 b6 07 1c
        E 31 b6 07 1a
        E 31 b6 07 18
        E 31 b6 07 17
        E 31 b6 07 15
        E 31 b6 07 14
        E 31 b6 07 13
        E 31 b6 07 11
        E 31 b6 07 10
        E 31 b6 07 0e
        E 31 b6 07 0d
        E 31 b6 07 0c
        E 31 b6 07 0b
        E 31 b6 07 09
        E 31 b6 07 08
        E 31 b6 07 07
        E 31 b6 07 06
        E 31 b6 07 05
        E 31 b6 07 05
        E 31 b6 07 04
        E 31 b6 07 03
        E 31 b6 07 02
        E 31 b6 07 02
        E 31 b6 07 01
        E 31 b6 07 01
        E 31 b6 07 00
        E 31 b6 07 00
        E 31 b6 07 00
        E 31 b6 07 00
        E 31 b6 07 00
        E 31 b6 07 00
        E 31 b6 07 00
        E 31 b6 07 00
        E 31 b6 07 00
        E 31 b6 07 01
        E 31 b6 07 01
        E 31 b6 07 02
        E 31 b6 07 02
        E 31 b6 07 03
        E 31 b6 07 03
        E 31 b6 07 04
        E 31 b6 07 05
        E 31 b6 07 06
        E 31 b6 07 07
        E 31 b6 07 08
        E 31 b6 07 09
        E 31 b6 07 0a
        E 31 b6 07 0b
        E 31 b6 07 0c
        E 31 b6 07 0e
        E 31 b6 07 0f
        E 31 b6 07 10
        E 31 b6 07 12
        E 31 b6 07 13
        E 31 b6 07 15
        E 31 b6 07 16
        E 31 b6 07 18
        E 31 b6 07 19
        E 31 b6 07 1b
        E 31 b6 07 1c
        E 31 b6 07 1e
        E 31 b6 07 20
        E 36 b6 07 40
        E 36 b6 07 43
        E 36 b6 07 46
        E 36 b6 07 49
        E 36 b6 07 4c
        E 36 b6 07 4f
        E 36 b6 07 52
        E 36 b6 07 55
        E 36 b6 07 58
        E 36 b6 07 5b
        E 36 b6 07 5e
        E 36 b6 07 60
        E 36 b6 07 63
        E 36 b6 07 66
        E 36 b6 07 68
        E 36 b6 07 6a
        E 36 b6 07 6d
        E 36 b6 07 6f
        E 36 b6 07 71
        E 36 b6 07 73
        E 36 b6 07 75
        E 36 b6 07 76
        E 36 b6 07 78
        E 36 b6 07 79
        E 36 b6 07 7a
        E 36 b6 07 7b
        E 36 b6 07 7c
        E 36 b6 07 7d
        E 36 b6 07 7e
        E 36 b6 07 7e
        E 36 b6 07 7f
        E 36 b6 07 7f
        E 36 b6 07 7f
        E 36 b6 07 7f
        E 36 b6 07 7f
        E 36 b6 07 7e
        E 36 b6 07 7e
        E 36 b6 07 7d
        E 36 b6 07 7c
        E 36 b6 07 7b
        E 36 b6 07 7a
        E 36 b6 07 78
        E 36 b6 07 77
        E 36 b6 07 75
        E 36 b6 07 74
        E 36 b6 07 72
        E 36 b6 07 70
        E 36 b6 07 6e
        E 36 b6 07 6c
        E 36 b6 07 69
        E 36 b6 07 67
        E 36 b6 07 64
        E 36 b6 07 62
        E 36 b6 07 5f
        E 36 b6 07 5c
        E 36 b6 07 59
        E 36 b6 07 57
        E 36 b6 07 54
        E 36 b6 07 51
        E 36 b6 07 4e
        E 36 b6 07 4a
        E 36 b6 07 47
        E 36 b6 07 44
        E 36 b6 07 41
        E 36 b6 07 3e
        E 36 b6 07 3b
        E 36 b6 07 38
        E 36 b6 07 35
        E 36 b6 07 31
        E 36 b6 07 2e
        E 36 b6 07 2b
        E 36 b6 07 28
        E 36 b6 07 26
        E 36 b6 07 23
        E 36 b6 07 20
        E 36 b6 07 1d
        E 36 b6 07 1b
        E 36 b6 07 18
        E 36 b6 07 16
        E 36 b6 07 13
        E 36 b6 07 11
        E 36 b6 07 0f
        E 36 b6 07 0d
        E 36 b6 07 0b
        E 36 b6 07 0a
        E 36 b6 07 08
        E 36 b6 07 07
        E 36 b6 07 05
        E 36 b6 07 04
        E 36 b6 07 03
        E 36 b6 07 02
        E 36 b6 07 01
        E 36 b6 07 01
        E 36 b6 07 00
        E 36 b6 07 00
        E 36 b6 07 00
        E 36 b6 07 00
        E 36 b6 07 00
        E 36 b6 07 01
        E 36 b6 07 01
        E 36 b6 07 02
        E 36 b6 07 03
        E 36 b6 07 04
        E 36 b6 07 05
        E 36 b6 07 06
        E 36 b6 07 07
        E 36 b6 07 09
        E 36 b6 07 0a
        E 36 b6 07 0c
        E 36 b6 07 0e
        E 36 b6 07 10
        E 36 b6 07 12
        E 36 b6 07 15
        E 36 b6 07 17
        E 36 b6 07 19
        E 36 b6 07 1c
        E 36 b6 07 1f
        E 36 b6 07 21
        E 36 b6 07 24
        E 36 b6 07 27
        E 36 b6 07 2a
        E 36 b6 07 2d
        E 36 b6 07 30
        E 36 b6 07 33
        E 36 b6 07 36
        E 36 b6 07 39
        E 36 b6 07 3c
        E 36 b6 07 40
        E 4 b6 07 39
        E 4 b6 07 3c
        E 4 b6 07 3f
        E 4 b6 07 41
        E 4 b6 07 44
        E 4 b6 07 47
        E 4 b6 07 49
        E 4 b6 07 4c
        E 4 b6 07 4f
        E 4 b6 07 51
        E 4 b6 07 54
        E 4 b6 07 56
        E 4 b6 07 59
        E 4 b6 07 5b
        E 4 b6 07 5d
        E 4 b6 07 5f
        E 4 b6 07 62
        E 4 b6 07 63
        E 4 b6 07 65
        E 4 b6 07 67
        E 4 b6 07 69
        E 4 b6 07 6a
        E 4 b6 07 6c
        E 4 b6 07 6c
        E 4 b6 07 6d
        E 4 b6 07 6e
        E 4 b6 07 6f
        E 4 b6 07 70
        E 4 b6 07 71
        E 4 b6 07 71
        E 4 b6 07 72
        E 4 b6 07 72
        E 4 b6 07 72
        E 4 b6 07 72
        E 4 b6 07 72
        E 4 b6 07 71
        E 4 b6 07 71
        E 4 b6 07 70
        E 4 b6 07 6f
        E 4 b6 07 6e
        E 4 b6 07 6d
        E 4 b6 07 6c
        E 4 b6 07 6b
        E 4 b6 07 69
        E 4 b6 07 68
        E 4 b6 07 66
        E 4 b6 07 64
        E 4 b6 07 63
        E 4 b6 07 61
        E 4 b6 07 5e
        E 4 b6 07 5c
        E 4 b6 07 5a
        E 4 b6 07 58
        E 4 b6 07 55
        E 4 b6 07 52
        E 4 b6 07 50
        E 4 b6 07 4e
        E 4 b6 07 4b
        E 4 b6 07 48
        E 4 b6 07 46
        E 4 b6 07 42
        E 4 b6 07 3f
        E 4 b6 07 3d
        E 4 b6 07 3a
        E 4 b6 07 37
        E 4 b6 07 35
        E 4 b6 07 32
        E 4 b6 07 2f
        E 4 b6 07 2c
        E 4 b6 07 29
        E 4 b6 07 26
        E 4 b6 07 24
        E 4 b6 07 22
        E 4 b6 07 1f
        E 4 b6 07 1c
        E 4 b6 07 1a
        E 4 b6 07 18
        E 4 b6 07 15
        E 4 b6 07 13
        E 4 b6 07 11
        E 4 b6 07 0f
        E 4 b6 07 0d
        E 4 b6 07 0b
        E 4 b6 07 09
        E 4 b6 07 09
        E 4 b6 07 07
        E 4 b6 07 06
        E 4 b6 07 04
        E 4 b6 07 03
        E 4 b6 07 02
        E 4 b6 07 01
        E 4 b6 07 00
        E 4 b6 07 00
        E 4 b6 07 00
        E 4 b6 07 00
        E 4 b6 07 00
        E 4 b6 07 00
        E 4 b6 07 00
        E 4 b6 07 00
        E 4 b6 07 00
        E 4 b6 07 01
        E 4 b6 07 02
        E 4 b6 07 03
        E 4 b6 07 04
        E 4 b6 07 05
        E 4 b6 07 06
        E 4 b6 07 08
        E 4 b6 07 09
        E 4 b6 07 0a
        E 4 b6 07 0c
        E 4 b6 07 0e
        E 4 b6 07 10
        E 4 b6 07 12
        E 4 b6 07 14
        E 4 b6 07 16
        E 4 b6 07 19
        E 4 b6 07 1b
        E 4 b6 07 1d
        E 4 b6 07 20
        E 4 b6 07 23
        E 4 b6 07 25
        E 4 b6 07 28
        E 4 b6 07 2b
        E 4 b6 07 2d
        E 4 b6 07 30
        E 4 b6 07 33
        E 4 b6 07 36
        E 4 b6 07 39
        E 18 b6 07 40
        E 18 b6 07 43
        E 18 b6 07 46
        E 18 b6 07 49
        E 18 b6 07 4c
        E 18 b6 07 4f
        E 18 b6 07 52
        E 18 b6 07 55
        E 18 b6 07 58
        E 18 b6 07 5b
        E 18 b6 07 5e
        E 18 b6 07 60
        E 18 b6 07 63
        E 18 b6 07 66
        E 18 b6 07 68
        E 18 b6 07 6a
        E 18 b6 07 6d
        E 18 b6 07 6f
        E 18 b6 07 71
        E 18 b6 07 73
        E 18 b6 07 75
        E 18 b6 07 76
        E 18 b6 07 78
        E 18 b6 07 79
        E 18 b6 07 7a
        E 18 b6 07 7b
        E 18 b6 07 7c
        E 18 b6 07 7d
        E 18 b6 07 7e
        E 18 b6 07 7e
        E 18 b6 07 7f
        E 18 b6 07 7f
        E 18 b6 07 7f
        E 18 b6 07 7f
        E 18 b6 07 7f
        E 18 b6 07 7e
        E 18 b6 07 7e
        E 18 b6 07 7d
        E 18 b6 07 7c
        E 18 b6 07 7b
        E 18 b6 07 7a
        E 18 b6 07 78
        E 18 b6 07 77
        E 18 b6 07 75
        E 18 b6 07 74
        E 18 b6 07 72
        E 18 b6 07 70
        E 18 b6 07 6e
        E 18 b6 07 6c
        E 18 b6 07 69
        E 18 b6 07 67
        E 18 b6 07 64
        E 18 b6 07 62
        E 18 b6 07 5f
        E 18 b6 07 5c
        E 18 b6 07 59
        E 18 b6 07 57
        E 18 b6 07 54
        E 18 b6 07 51
        E 18 b6 07 4e
        E 18 b6 07 4a
        E 18 b6 07 47
        E 18 b6 07 44
        E 18 b6 07 41
        E 18 b6 07 3e
        E 18 b6 07 3b
        E 18 b6 07 38
        E 18 b6 07 35
        E 18 b6 07 31
        E 18 b6 07 2e
        E 18 b6 07 2b
        E 18 b6 07 28
        E 18 b6 07 26
        E 18 b6 07 23
        E 18 b6 07 20
        E 18 b6 07 1d
        E 18 b6 07 1b
        E 18 b6 07 18
        E 18 b6 07 16
        E 18 b6 07 13
        E 18 b6 07 11
        E 18 b6 07 0f
        E 18 b6 07 0d
        E 18 b6 07 0b
        E 18 b6 07 0a
        E 18 b6 07 08
        E 18 b6 07 07
        E 18 b6 07 05
        E 18 b6 07 04
        E 18 b6 07 03
        E 18 b6 07 02
        E 18 b6 07 01
        E 18 b6 07 01
        E 18 b6 07 00
        E 18 b6 07 00
        E 18 b6 07 00
        E 18 b6 07 00
        E 18 b6 07 00
        E 18 b6 07 01
        E 18 b6 07 01
        E 18 b6 07 02
        E 18 b6 07 03
        E 18 b6 07 04
        E 18 b6 07 05
        E 18 b6 07 06
        E 18 b6 07 07
        E 18 b6 07 09
        E 18 b6 07 0a
        E 18 b6 07 0c
        E 18 b6 07 0e
        E 18 b6 07 10
        E 18 b6 07 12
        E 18 b6 07 15
        E 18 b6 07 17
        E 18 b6 07 19
        E 18 b6 07 1c
        E 18 b6 07 1f
        E 18 b6 07 21
        E 18 b6 07 24
        E 18 b6 07 27
        E 18 b6 07 2a
        E 18 b6 07 2d
        E 18 b6 07 30
        E 18 b6 07 33
        E 18 b6 07 36
        E 18 b6 07 39
        E 18 b6 07 3c
        E 18 b6 07 40
        E 31 b6 07 39
        E 31 b6 07 3c
        E 31 b6 07 3f
        E 31 b6 07 41
        E 31 b6 07 44
        E 31 b6 07 47
        E 31 b6 07 49
        E 31 b6 07 4c
        E 31 b6 07 4f
        E 31 b6 07 51
        E 31 b6 07 54
        E 31 b6 07 56
        E 31 b6 07 59
        E 31 b6 07 5b
        E 31 b6 07 5d
        E 31 b6 07 5f
        E 31 b6 07 62
        E 31 b6 07 63
        E 31 b6 07 65
        E 31 b6 07 67
        E 31 b6 07 69
        E 31 b6 07 6a
        E 31 b6 07 6c
        E 31 b6 07 6c
        E 31 b6 07 6d
        E 31 b6 07 6e
        E 31 b6 07 6f
        E 31 b6 07 70
        E 31 b6 07 71
        E 31 b6 07 71
        E 31 b6 07 72
        E 31 b6 07 72
        E 31 b6 07 72
        E 31 b6 07 72
        E 31 b6 07 72
        E 31 b6 07 71
        E 31 b6 07 71
        E 31 b6 07 70
        E 31 b6 07 6f
        E 31 b6 07 6e
        E 31 b6 07 6d
        E 31 b6 07 6c
        E 31 b6 07 6b
        E 31 b6 07 69
        E 31 b6 07 68
        E 31 b6 07 66
        E 31 b6 07 64
        E 31 b6 07 63
        E 31 b6 07 61
        E 31 b6 07 5e
        E 31 b6 07 5c
        E 31 b6 07 5a
        E 31 b6 07 58
        E 31 b6 07 55
        E 31 b6 07 52
        E 31 b6 07 50
        E 31 b6 07 4e
        E 31 b6 07 4b
        E 31 b6 07 48
        E 31 b6 07 46
        E 31 b6 07 42
        E 31 b6 07 3f
        E 31 b6 07 3d
        E 31 b6 07 3a
        E 31 b6 07 37
        E 31 b6 07 35
        E 31 b6 07 32
        E 31 b6 07 2f
        E 31 b6 07 2c
        E 31 b6 07 29
        E 31 b6 07 26
        E 31 b6 07 24
        E 31 b6 07 22
        E 31 b6 07 1f
        E 31 b6 07 1c
        E 31 b6 07 1a
        E 31 b6 07 18
        E 31 b6 07 15
        E 31 b6 07 13
        E 31 b6 07 11
        E 31 b6 07 0f
        E 31 b6 07 0d
        E 31 b6 07 0b
        E 31 b6 07 09
        E 31 b6 07 09
        E 31 b6 07 07
        E 31 b6 07 06
        E 31 b6 07 04
        E 31 b6 07 03
        E 31 b6 07 02
        E 31 b6 07 01
        E 31 b6 07 00
        E 31 b6 07 00
        E 31 b6 07 00
        E 31 b6 07 00
        E 31 b6 07 00
        E 31 b6 07 00
        E 31 b6 07 00
        E 31 b6 07 00
        E 31 b6 07 00
        E 31 b6 07 01
        E 31 b6 07 02
        E 31 b6 07 03
        E 31 b6 07 04
        E 31 b6 07 05
        E 31 b6 07 06
        E 31 b6 07 08
        E 31 b6 07 09
        E 31 b6 07 0a
        E 31 b6 07 0c
        E 31 b6 07 0e
        E 31 b6 07 10
        E 31 b6 07 12
        E 31 b6 07 14
        E 31 b6 07 16
        E 31 b6 07 19
        E 31 b6 07 1b
        E 31 b6 07 1d
        E 31 b6 07 20
        E 31 b6 07 23
        E 31 b6 07 25
        E 31 b6 07 28
        E 31 b6 07 2b
        E 31 b6 07 2d
        E 31 b6 07 30
        E 31 b6 07 33
        E 31 b6 07 36
        E 30 b6 07 39
        E 1 b0 7b 00
        CCINTERP 32
        CHASE_CC_TAKEOFFS 1
        GUID {224B2520-37A6-FF47-9A38-4BF9BAC0909E}
        IGNTEMPO 0 120 4 4
        SRCCOLOR 179
        VELLANE 3 601 0
        VELLANE -1 196 0
      >
    >
  >
  <TRACK {56B15667-D14B-EA4C-A47A-CA561AB19B2E}
    NAME "insects of the los angeles basin"
    PEAKCOL 16576
    BEAT -1
    AUTOMODE 0
    VOLPAN 1 0 -1 -1 1
    MUTESOLO 0 0 0
    IPHASE 0
    PLAYOFFS 0 1
    ISBUS 0 0
    BUSCOMP 0 0 0 0 0
    SHOWINMIX 1 0.6667 0.5 1 0.5 0 -1 0
    FREEMODE 0
    SEL 0
    REC 0 0 1 0 0 0 0
    VU 2
    TRACKHEIGHT 0 1 0 0 -1 0
    INQ 0 0 0 0.5 100 0 0 100
    NCHAN 2
    FX 1
    TRACKID {56B15667-D14B-EA4C-A47A-CA561AB19B2E}
    PERF 0
    MIDIOUT -1
    MAINSEND 1 0
    <ITEM
      POSITION 0
      SNAPOFFS 0
      LENGTH 1017.39105
      LOOP 1
      ALLTAKES 0
      FADEIN 1 0 0 1 0 0
      FADEOUT 1 0 0 1 0 0
      MUTE 0 0
      SEL 0
      IGUID {60585A38-18D3-AF4B-9CDF-9BC48626C26A}
      IID 21
      NAME "insects of the los angeles basin.mid"
      VOLPAN 1 0 1 -1
      SOFFS 0 0
      PLAYRATE 1 1 0 -1 0 0.0025
      CHANMODE 0
      GUID {8ACC8B61-8969-2844-8012-773F890FED74}
      <SOURCE MIDI
        HASDATA 1 128 QN
        CCINTERP 32
        POOLEDEVTS {8863B87F-D38C-EA46-968C-7EA267B1839A}
        E 36 b7 05 40
        E 36 b7 05 43
        E 36 b7 05 46
        E 36 b7 05 49
        E 36 b7 05 4c
        E 36 b7 05 4f
        E 36 b7 05 52
        E 36 b7 05 55
        E 36 b7 05 58
        E 36 b7 05 5b
        E 36 b7 05 5e
        E 36 b7 05 60
        E 36 b7 05 63
        E 36 b7 05 66
        E 36 b7 05 68
        E 36 b7 05 6a
        E 36 b7 05 6d
        E 36 b7 05 6f
        E 36 b7 05 71
        E 36 b7 05 73
        E 36 b7 05 75
        E 36 b7 05 76
        E 36 b7 05 78
        E 36 b7 05 79
        E 36 b7 05 7a
        E 36 b7 05 7b
        E 36 b7 05 7c
        E 36 b7 05 7d
        E 36 b7 05 7e
        E 36 b7 05 7e
        E 36 b7 05 7f
        E 36 b7 05 7f
        E 36 b7 05 7f
        E 36 b7 05 7f
        E 36 b7 05 7f
        E 36 b7 05 7e
        E 36 b7 05 7e
        E 36 b7 05 7d
        E 36 b7 05 7c
        E 36 b7 05 7b
        E 36 b7 05 7a
        E 36 b7 05 78
        E 36 b7 05 77
        E 36 b7 05 75
        E 36 b7 05 74
        E 36 b7 05 72
        E 36 b7 05 70
        E 36 b7 05 6e
        E 36 b7 05 6c
        E 36 b7 05 69
        E 36 b7 05 67
        E 36 b7 05 64
        E 36 b7 05 62
        E 36 b7 05 5f
        E 36 b7 05 5c
        E 36 b7 05 59
        E 36 b7 05 57
        E 36 b7 05 54
        E 36 b7 05 51
        E 36 b7 05 4e
        E 36 b7 05 4a
        E 36 b7 05 47
        E 36 b7 05 44
        E 36 b7 05 41
        E 36 b7 05 3e
        E 36 b7 05 3b
        E 36 b7 05 38
        E 36 b7 05 35
        E 36 b7 05 31
        E 36 b7 05 2e
        E 36 b7 05 2b
        E 36 b7 05 28
        E 36 b7 05 26
        E 36 b7 05 23
        E 36 b7 05 20
        E 36 b7 05 1d
        E 36 b7 05 1b
        E 36 b7 05 18
        E 36 b7 05 16
        E 36 b7 05 13
        E 36 b7 05 11
        E 36 b7 05 0f
        E 36 b7 05 0d
        E 36 b7 05 0b
        E 36 b7 05 0a
        E 36 b7 05 08
        E 36 b7 05 07
        E 36 b7 05 05
        E 36 b7 05 04
        E 36 b7 05 03
        E 36 b7 05 02
        E 36 b7 05 01
        E 36 b7 05 01
        E 36 b7 05 00
        E 36 b7 05 00
        E 36 b7 05 00
        E 36 b7 05 00
        E 36 b7 05 00
        E 36 b7 05 01
        E 36 b7 05 01
        E 36 b7 05 02
        E 36 b7 05 03
        E 36 b7 05 04
        E 36 b7 05 05
        E 36 b7 05 06
        E 36 b7 05 07
        E 36 b7 05 09
        E 36 b7 05 0a
        E 36 b7 05 0c
        E 36 b7 05 0e
        E 36 b7 05 10
        E 36 b7 05 12
        E 36 b7 05 15
        E 36 b7 05 17
        E 36 b7 05 19
        E 36 b7 05 1c
        E 36 b7 05 1f
        E 36 b7 05 21
        E 36 b7 05 24
        E 36 b7 05 27
        E 36 b7 05 2a
        E 36 b7 05 2d
        E 36 b7 05 30
        E 36 b7 05 33
        E 36 b7 05 36
        E 36 b7 05 39
        E 36 b7 05 3c
        E 36 b7 05 40
        E 4 b7 05 39
        E 4 b7 05 3c
        E 4 b7 05 3f
        E 4 b7 05 41
        E 4 b7 05 44
        E 4 b7 05 47
        E 4 b7 05 49
        E 4 b7 05 4c
        E 4 b7 05 4f
        E 4 b7 05 51
        E 4 b7 05 54
        E 4 b7 05 56
        E 4 b7 05 59
        E 4 b7 05 5b
        E 4 b7 05 5d
        E 4 b7 05 5f
        E 4 b7 05 62
        E 4 b7 05 63
        E 4 b7 05 65
        E 4 b7 05 67
        E 4 b7 05 69
        E 4 b7 05 6a
        E 4 b7 05 6c
        E 4 b7 05 6c
        E 4 b7 05 6d
        E 4 b7 05 6e
        E 4 b7 05 6f
        E 4 b7 05 70
        E 4 b7 05 71
        E 4 b7 05 71
        E 4 b7 05 72
        E 4 b7 05 72
        E 4 b7 05 72
        E 4 b7 05 72
        E 4 b7 05 72
        E 4 b7 05 71
        E 4 b7 05 71
        E 4 b7 05 70
        E 4 b7 05 6f
        E 4 b7 05 6e
        E 4 b7 05 6d
        E 4 b7 05 6c
        E 4 b7 05 6b
        E 4 b7 05 69
        E 4 b7 05 68
        E 4 b7 05 66
        E 4 b7 05 64
        E 4 b7 05 63
        E 4 b7 05 61
        E 4 b7 05 5e
        E 4 b7 05 5c
        E 4 b7 05 5a
        E 4 b7 05 58
        E 4 b7 05 55
        E 4 b7 05 52
        E 4 b7 05 50
        E 4 b7 05 4e
        E 4 b7 05 4b
        E 4 b7 05 48
        E 4 b7 05 46
        E 4 b7 05 42
        E 4 b7 05 3f
        E 4 b7 05 3d
        E 4 b7 05 3a
        E 4 b7 05 37
        E 4 b7 05 35
        E 4 b7 05 32
        E 4 b7 05 2f
        E 4 b7 05 2c
        E 4 b7 05 29
        E 4 b7 05 26
        E 4 b7 05 24
        E 4 b7 05 22
        E 4 b7 05 1f
        E 4 b7 05 1c
        E 4 b7 05 1a
        E 4 b7 05 18
        E 4 b7 05 15
        E 4 b7 05 13
        E 4 b7 05 11
        E 4 b7 05 0f
        E 4 b7 05 0d
        E 4 b7 05 0b
        E 4 b7 05 09
        E 4 b7 05 09
        E 4 b7 05 07
        E 4 b7 05 06
        E 4 b7 05 04
        E 4 b7 05 03
        E 4 b7 05 02
        E 4 b7 05 01
        E 4 b7 05 00
        E 4 b7 05 00
        E 4 b7 05 00
        E 4 b7 05 00
        E 4 b7 05 00
        E 4 b7 05 00
        E 4 b7 05 00
        E 4 b7 05 00
        E 4 b7 05 00
        E 4 b7 05 01
        E 4 b7 05 02
        E 4 b7 05 03
        E 4 b7 05 04
        E 4 b7 05 05
        E 4 b7 05 06
        E 4 b7 05 08
        E 4 b7 05 09
        E 4 b7 05 0a
        E 4 b7 05 0c
        E 4 b7 05 0e
        E 4 b7 05 10
        E 4 b7 05 12
        E 4 b7 05 14
        E 4 b7 05 16
        E 4 b7 05 19
        E 4 b7 05 1b
        E 4 b7 05 1d
        E 4 b7 05 20
        E 4 b7 05 23
        E 4 b7 05 25
        E 4 b7 05 28
        E 4 b7 05 2b
        E 4 b7 05 2d
        E 4 b7 05 30
        E 4 b7 05 33
        E 4 b7 05 36
        E 4 b7 05 39
        E 18 b7 05 40
        E 18 b7 05 43
        E 18 b7 05 46
        E 18 b7 05 49
        E 18 b7 05 4c
        E 18 b7 05 4f
        E 18 b7 05 52
        E 18 b7 05 55
        E 18 b7 05 58
        E 18 b7 05 5b
        E 18 b7 05 5e
        E 18 b7 05 60
        E 18 b7 05 63
        E 18 b7 05 66
        E 18 b7 05 68
        E 18 b7 05 6a
        E 18 b7 05 6d
        E 18 b7 05 6f
        E 18 b7 05 71
        E 18 b7 05 73
        E 18 b7 05 75
        E 18 b7 05 76
        E 18 b7 05 78
        E 18 b7 05 79
        E 18 b7 05 7a
        E 18 b7 05 7b
        E 18 b7 05 7c
        E 18 b7 05 7d
        E 18 b7 05 7e
        E 18 b7 05 7e
        E 18 b7 05 7f
        E 18 b7 05 7f
        E 18 b7 05 7f
        E 18 b7 05 7f
        E 18 b7 05 7f
        E 18 b7 05 7e
        E 18 b7 05 7e
        E 18 b7 05 7d
        E 18 b7 05 7c
        E 18 b7 05 7b
        E 18 b7 05 7a
        E 18 b7 05 78
        E 18 b7 05 77
        E 18 b7 05 75
        E 18 b7 05 74
        E 18 b7 05 72
        E 18 b7 05 70
        E 18 b7 05 6e
        E 18 b7 05 6c
        E 18 b7 05 69
        E 18 b7 05 67
        E 18 b7 05 64
        E 18 b7 05 62
        E 18 b7 05 5f
        E 18 b7 05 5c
        E 18 b7 05 59
        E 18 b7 05 57
        E 18 b7 05 54
        E 18 b7 05 51
        E 18 b7 05 4e
        E 18 b7 05 4a
        E 18 b7 05 47
        E 18 b7 05 44
        E 18 b7 05 41
        E 18 b7 05 3e
        E 18 b7 05 3b
        E 18 b7 05 38
        E 18 b7 05 35
        E 18 b7 05 31
        E 18 b7 05 2e
        E 18 b7 05 2b
        E 18 b7 05 28
        E 18 b7 05 26
        E 18 b7 05 23
        E 18 b7 05 20
        E 18 b7 05 1d
        E 18 b7 05 1b
        E 18 b7 05 18
        E 18 b7 05 16
        E 18 b7 05 13
        E 18 b7 05 11
        E 18 b7 05 0f
        E 18 b7 05 0d
        E 18 b7 05 0b
        E 18 b7 05 0a
        E 18 b7 05 08
        E 18 b7 05 07
        E 18 b7 05 05
        E 18 b7 05 04
        E 18 b7 05 03
        E 18 b7 05 02
        E 18 b7 05 01
        E 18 b7 05 01
        E 18 b7 05 00
        E 18 b7 05 00
        E 18 b7 05 00
        E 18 b7 05 00
        E 18 b7 05 00
        E 18 b7 05 01
        E 18 b7 05 01
        E 18 b7 05 02
        E 18 b7 05 03
        E 18 b7 05 04
        E 18 b7 05 05
        E 18 b7 05 06
        E 18 b7 05 07
        E 18 b7 05 09
        E 18 b7 05 0a
        E 18 b7 05 0c
        E 18 b7 05 0e
        E 18 b7 05 10
        E 18 b7 05 12
        E 18 b7 05 15
        E 18 b7 05 17
        E 18 b7 05 19
        E 18 b7 05 1c
        E 18 b7 05 1f
        E 18 b7 05 21
        E 18 b7 05 24
        E 18 b7 05 27
        E 18 b7 05 2a
        E 18 b7 05 2d
        E 18 b7 05 30
        E 18 b7 05 33
        E 18 b7 05 36
        E 18 b7 05 39
        E 18 b7 05 3c
        E 18 b7 05 40
        E 31 b7 05 39
        E 31 b7 05 3c
        E 31 b7 05 3f
        E 31 b7 05 41
        E 31 b7 05 44
        E 31 b7 05 47
        E 31 b7 05 49
        E 31 b7 05 4c
        E 31 b7 05 4f
        E 31 b7 05 51
        E 31 b7 05 54
        E 31 b7 05 56
        E 31 b7 05 59
        E 31 b7 05 5b
        E 31 b7 05 5d
        E 31 b7 05 5f
        E 31 b7 05 62
        E 31 b7 05 63
        E 31 b7 05 65
        E 31 b7 05 67
        E 31 b7 05 69
        E 31 b7 05 6a
        E 31 b7 05 6c
        E 31 b7 05 6c
        E 31 b7 05 6d
        E 31 b7 05 6e
        E 31 b7 05 6f
        E 31 b7 05 70
        E 31 b7 05 71
        E 31 b7 05 71
        E 31 b7 05 72
        E 31 b7 05 72
        E 31 b7 05 72
        E 31 b7 05 72
        E 31 b7 05 72
        E 31 b7 05 71
        E 31 b7 05 71
        E 31 b7 05 70
        E 31 b7 05 6f
        E 31 b7 05 6e
        E 31 b7 05 6d
        E 31 b7 05 6c
        E 31 b7 05 6b
        E 31 b7 05 69
        E 31 b7 05 68
        E 31 b7 05 66
        E 31 b7 05 64
        E 31 b7 05 63
        E 31 b7 05 61
        E 31 b7 05 5e
        E 31 b7 05 5c
        E 31 b7 05 5a
        E 31 b7 05 58
        E 31 b7 05 55
        E 31 b7 05 52
        E 31 b7 05 50
        E 31 b7 05 4e
        E 31 b7 05 4b
        E 31 b7 05 48
        E 31 b7 05 46
        E 31 b7 05 42
        E 31 b7 05 3f
        E 31 b7 05 3d
        E 31 b7 05 3a
        E 31 b7 05 37
        E 31 b7 05 35
        E 31 b7 05 32
        E 31 b7 05 2f
        E 31 b7 05 2c
        E 31 b7 05 29
        E 31 b7 05 26
        E 31 b7 05 24
        E 31 b7 05 22
        E 31 b7 05 1f
        E 31 b7 05 1c
        E 31 b7 05 1a
        E 31 b7 05 18
        E 31 b7 05 15
        E 31 b7 05 13
        E 31 b7 05 11
        E 31 b7 05 0f
        E 31 b7 05 0d
        E 31 b7 05 0b
        E 31 b7 05 09
        E 31 b7 05 09
        E 31 b7 05 07
        E 31 b7 05 06
        E 31 b7 05 04
        E 31 b7 05 03
        E 31 b7 05 02
        E 31 b7 05 01
        E 31 b7 05 00
        E 31 b7 05 00
        E 31 b7 05 00
        E 31 b7 05 00
        E 31 b7 05 00
        E 31 b7 05 00
        E 31 b7 05 00
        E 31 b7 05 00
        E 31 b7 05 00
        E 31 b7 05 01
        E 31 b7 05 02
        E 31 b7 05 03
        E 31 b7 05 04
        E 31 b7 05 05
        E 31 b7 05 06
        E 31 b7 05 08
        E 31 b7 05 09
        E 31 b7 05 0a
        E 31 b7 05 0c
        E 31 b7 05 0e
        E 31 b7 05 10
        E 31 b7 05 12
        E 31 b7 05 14
        E 31 b7 05 16
        E 31 b7 05 19
        E 31 b7 05 1b
        E 31 b7 05 1d
        E 31 b7 05 20
        E 31 b7 05 23
        E 31 b7 05 25
        E 31 b7 05 28
        E 31 b7 05 2b
        E 31 b7 05 2d
        E 31 b7 05 30
        E 31 b7 05 33
        E 31 b7 05 36
        E 31 b7 05 39
        E 22 b7 05 20
        E 22 b7 05 21
        E 22 b7 05 23
        E 22 b7 05 24
        E 22 b7 05 26
        E 22 b7 05 27
        E 22 b7 05 29
        E 22 b7 05 2a
        E 22 b7 05 2c
        E 22 b7 05 2d
        E 22 b7 05 2f
        E 22 b7 05 30
        E 22 b7 05 31
        E 22 b7 05 33
        E 22 b7 05 34
        E 22 b7 05 35
        E 22 b7 05 36
        E 22 b7 05 37
        E 22 b7 05 38
        E 22 b7 05 39
        E 22 b7 05 3a
        E 22 b7 05 3b
        E 22 b7 05 3c
        E 22 b7 05 3c
        E 22 b7 05 3d
        E 22 b7 05 3d
        E 22 b7 05 3e
        E 22 b7 05 3e
        E 22 b7 05 3f
        E 22 b7 05 3f
        E 22 b7 05 3f
        E 22 b7 05 3f
        E 22 b7 05 3f
        E 22 b7 05 3f
        E 22 b7 05 3f
        E 22 b7 05 3f
        E 22 b7 05 3f
        E 22 b7 05 3e
        E 22 b7 05 3e
        E 22 b7 05 3d
        E 22 b7 05 3d
        E 22 b7 05 3c
        E 22 b7 05 3b
        E 22 b7 05 3a
        E 22 b7 05 3a
        E 22 b7 05 39
        E 22 b7 05 38
        E 22 b7 05 37
        E 22 b7 05 36
        E 22 b7 05 34
        E 22 b7 05 33
        E 22 b7 05 32
        E 22 b7 05 31
        E 22 b7 05 2f
        E 22 b7 05 2e
        E 22 b7 05 2c
        E 22 b7 05 2b
        E 22 b7 05 2a
        E 22 b7 05 28
        E 22 b7 05 27
        E 22 b7 05 25
        E 22 b7 05 23
        E 22 b7 05 22
        E 22 b7 05 20
        E 22 b7 05 1f
        E 22 b7 05 1d
        E 22 b7 05 1c
        E 22 b7 05 1a
        E 22 b7 05 18
        E 22 b7 05 17
        E 22 b7 05 15
        E 22 b7 05 14
        E 22 b7 05 13
        E 22 b7 05 11
        E 22 b7 05 10
        E 22 b7 05 0e
        E 22 b7 05 0d
        E 22 b7 05 0c
        E 22 b7 05 0b
        E 22 b7 05 09
        E 22 b7 05 08
        E 22 b7 05 07
        E 22 b7 05 06
        E 22 b7 05 05
        E 22 b7 05 05
        E 22 b7 05 04
        E 22 b7 05 03
        E 22 b7 05 02
        E 22 b7 05 02
        E 22 b7 05 01
        E 22 b7 05 01
        E 22 b7 05 00
        E 22 b7 05 00
        E 22 b7 05 00
        E 22 b7 05 00
        E 22 b7 05 00
        E 22 b7 05 00
        E 22 b7 05 00
        E 22 b7 05 00
        E 22 b7 05 00
        E 22 b7 05 01
        E 22 b7 05 01
        E 22 b7 05 02
        E 22 b7 05 02
        E 22 b7 05 03
        E 22 b7 05 03
        E 22 b7 05 04
        E 22 b7 05 05
        E 22 b7 05 06
        E 22 b7 05 07
        E 22 b7 05 08
        E 22 b7 05 09
        E 22 b7 05 0a
        E 22 b7 05 0b
        E 22 b7 05 0c
        E 22 b7 05 0e
        E 22 b7 05 0f
        E 22 b7 05 10
        E 22 b7 05 12
        E 22 b7 05 13
        E 22 b7 05 15
        E 22 b7 05 16
        E 22 b7 05 18
        E 22 b7 05 19
        E 22 b7 05 1b
        E 22 b7 05 1c
        E 22 b7 05 1e
        E 22 b7 05 20
        E 22 b7 05 20
        E 22 b7 05 21
        E 22 b7 05 23
        E 22 b7 05 24
        E 22 b7 05 26
        E 22 b7 05 27
        E 22 b7 05 29
        E 22 b7 05 2a
        E 22 b7 05 2c
        E 22 b7 05 2d
        E 22 b7 05 2f
        E 22 b7 05 30
        E 22 b7 05 31
        E 22 b7 05 33
        E 22 b7 05 34
        E 22 b7 05 35
        E 22 b7 05 36
        E 22 b7 05 37
        E 22 b7 05 38
        E 22 b7 05 39
        E 22 b7 05 3a
        E 22 b7 05 3b
        E 22 b7 05 3c
        E 22 b7 05 3c
        E 22 b7 05 3d
        E 22 b7 05 3d
        E 22 b7 05 3e
        E 22 b7 05 3e
        E 22 b7 05 3f
        E 22 b7 05 3f
        E 22 b7 05 3f
        E 22 b7 05 3f
        E 22 b7 05 3f
        E 22 b7 05 3f
        E 22 b7 05 3f
        E 22 b7 05 3f
        E 22 b7 05 3f
        E 22 b7 05 3e
        E 22 b7 05 3e
        E 22 b7 05 3d
        E 22 b7 05 3d
        E 22 b7 05 3c
        E 22 b7 05 3b
        E 22 b7 05 3a
        E 22 b7 05 3a
        E 22 b7 05 39
        E 22 b7 05 38
        E 22 b7 05 37
        E 22 b7 05 36
        E 22 b7 05 34
        E 22 b7 05 33
        E 22 b7 05 32
        E 22 b7 05 31
        E 22 b7 05 2f
        E 22 b7 05 2e
        E 22 b7 05 2c
        E 22 b7 05 2b
        E 22 b7 05 2a
        E 22 b7 05 28
        E 22 b7 05 27
        E 22 b7 05 25
        E 22 b7 05 23
        E 22 b7 05 22
        E 22 b7 05 20
        E 22 b7 05 1f
        E 22 b7 05 1d
        E 22 b7 05 1c
        E 22 b7 05 1a
        E 22 b7 05 18
        E 22 b7 05 17
        E 22 b7 05 15
        E 22 b7 05 14
        E 22 b7 05 13
        E 22 b7 05 11
        E 22 b7 05 10
        E 22 b7 05 0e
        E 22 b7 05 0d
        E 22 b7 05 0c
        E 22 b7 05 0b
        E 22 b7 05 09
        E 22 b7 05 08
        E 22 b7 05 07
        E 22 b7 05 06
        E 22 b7 05 05
        E 22 b7 05 05
        E 22 b7 05 04
        E 22 b7 05 03
        E 22 b7 05 02
        E 22 b7 05 02
        E 22 b7 05 01
        E 22 b7 05 01
        E 22 b7 05 00
        E 22 b7 05 00
        E 22 b7 05 00
        E 22 b7 05 00
        E 22 b7 05 00
        E 22 b7 05 00
        E 22 b7 05 00
        E 22 b7 05 00
        E 22 b7 05 00
        E 22 b7 05 01
        E 22 b7 05 01
        E 22 b7 05 02
        E 22 b7 05 02
        E 22 b7 05 03
        E 22 b7 05 03
        E 22 b7 05 04
        E 22 b7 05 05
        E 22 b7 05 06
        E 22 b7 05 07
        E 22 b7 05 08
        E 22 b7 05 09
        E 22 b7 05 0a
        E 22 b7 05 0b
        E 22 b7 05 0c
        E 22 b7 05 0e
        E 22 b7 05 0f
        E 22 b7 05 10
        E 22 b7 05 12
        E 22 b7 05 13
        E 22 b7 05 15
        E 22 b7 05 16
        E 22 b7 05 18
        E 22 b7 05 19
        E 22 b7 05 1b
        E 22 b7 05 1c
        E 22 b7 05 1e
        E 22 b7 05 20
        E 45 b7 05 2c
        E 45 b7 05 2e
        E 45 b7 05 31
        E 45 b7 05 33
        E 45 b7 05 35
        E 45 b7 05 37
        E 45 b7 05 39
        E 45 b7 05 3b
        E 45 b7 05 3d
        E 45 b7 05 3f
        E 45 b7 05 41
        E 45 b7 05 43
        E 45 b7 05 45
        E 45 b7 05 47
        E 45 b7 05 48
        E 45 b7 05 4a
        E 45 b7 05 4c
        E 45 b7 05 4d
        E 45 b7 05 4f
        E 45 b7 05 50
        E 45 b7 05 51
        E 45 b7 05 52
        E 45 b7 05 54
        E 45 b7 05 54
        E 45 b7 05 55
        E 45 b7 05 56
        E 45 b7 05 56
        E 45 b7 05 57
        E 45 b7 05 58
        E 45 b7 05 58
        E 45 b7 05 58
        E 45 b7 05 58
        E 45 b7 05 58
        E 45 b7 05 58
        E 45 b7 05 58
        E 45 b7 05 58
        E 45 b7 05 58
        E 45 b7 05 57
        E 45 b7 05 56
        E 45 b7 05 56
        E 45 b7 05 55
        E 45 b7 05 54
        E 45 b7 05 53
        E 45 b7 05 51
        E 45 b7 05 51
        E 45 b7 05 4f
        E 45 b7 05 4e
        E 45 b7 05 4d
        E 45 b7 05 4b
        E 45 b7 05 49
        E 45 b7 05 48
        E 45 b7 05 46
        E 45 b7 05 44
        E 45 b7 05 42
        E 45 b7 05 40
        E 45 b7 05 3e
        E 45 b7 05 3c
        E 45 b7 05 3a
        E 45 b7 05 38
        E 45 b7 05 36
        E 45 b7 05 33
        E 45 b7 05 31
        E 45 b7 05 2f
        E 45 b7 05 2d
        E 45 b7 05 2b
        E 45 b7 05 29
        E 45 b7 05 27
        E 45 b7 05 25
        E 45 b7 05 22
        E 45 b7 05 20
        E 45 b7 05 1e
        E 45 b7 05 1c
        E 45 b7 05 1a
        E 45 b7 05 18
        E 45 b7 05 16
        E 45 b7 05 14
        E 45 b7 05 12
        E 45 b7 05 10
        E 45 b7 05 0f
        E 45 b7 05 0d
        E 45 b7 05 0b
        E 45 b7 05 0a
        E 45 b7 05 09
        E 45 b7 05 07
        E 45 b7 05 07
        E 45 b7 05 05
        E 45 b7 05 04
        E 45 b7 05 03
        E 45 b7 05 02
        E 45 b7 05 02
        E 45 b7 05 01
        E 45 b7 05 00
        E 45 b7 05 00
        E 45 b7 05 00
        E 45 b7 05 00
        E 45 b7 05 00
        E 45 b7 05 00
        E 45 b7 05 00
        E 45 b7 05 00
        E 45 b7 05 00
        E 45 b7 05 01
        E 45 b7 05 02
        E 45 b7 05 02
        E 45 b7 05 03
        E 45 b7 05 04
        E 45 b7 05 04
        E 45 b7 05 06
        E 45 b7 05 07
        E 45 b7 05 08
        E 45 b7 05 09
        E 45 b7 05 0b
        E 45 b7 05 0c
        E 45 b7 05 0e
        E 45 b7 05 10
        E 45 b7 05 11
        E 45 b7 05 13
        E 45 b7 05 15
        E 45 b7 05 17
        E 45 b7 05 19
        E 45 b7 05 1b
        E 45 b7 05 1d
        E 45 b7 05 1f
        E 45 b7 05 21
        E 45 b7 05 23
        E 45 b7 05 25
        E 45 b7 05 27
        E 45 b7 05 2a
        E 45 b7 05 2c
        E 40 b7 05 33
        E 40 b7 05 35
        E 40 b7 05 37
        E 40 b7 05 3a
        E 40 b7 05 3c
        E 40 b7 05 3f
        E 40 b7 05 41
        E 40 b7 05 44
        E 40 b7 05 46
        E 40 b7 05 48
        E 40 b7 05 4b
        E 40 b7 05 4c
        E 40 b7 05 4f
        E 40 b7 05 51
        E 40 b7 05 53
        E 40 b7 05 54
        E 40 b7 05 57
        E 40 b7 05 58
        E 40 b7 05 5a
        E 40 b7 05 5b
        E 40 b7 05 5d
        E 40 b7 05 5e
        E 40 b7 05 5f
        E 40 b7 05 60
        E 40 b7 05 61
        E 40 b7 05 62
        E 40 b7 05 63
        E 40 b7 05 63
        E 40 b7 05 64
        E 40 b7 05 64
        E 40 b7 05 65
        E 40 b7 05 65
        E 40 b7 05 65
        E 40 b7 05 65
        E 40 b7 05 65
        E 40 b7 05 64
        E 40 b7 05 64
        E 40 b7 05 63
        E 40 b7 05 63
        E 40 b7 05 62
        E 40 b7 05 61
        E 40 b7 05 5f
        E 40 b7 05 5f
        E 40 b7 05 5d
        E 40 b7 05 5c
        E 40 b7 05 5b
        E 40 b7 05 59
        E 40 b7 05 57
        E 40 b7 05 56
        E 40 b7 05 54
        E 40 b7 05 52
        E 40 b7 05 50
        E 40 b7 05 4e
        E 40 b7 05 4c
        E 40 b7 05 49
        E 40 b7 05 47
        E 40 b7 05 45
        E 40 b7 05 43
        E 40 b7 05 40
        E 40 b7 05 3e
        E 40 b7 05 3b
        E 40 b7 05 38
        E 40 b7 05 36
        E 40 b7 05 33
        E 40 b7 05 31
        E 40 b7 05 2f
        E 40 b7 05 2c
        E 40 b7 05 2a
        E 40 b7 05 27
        E 40 b7 05 24
        E 40 b7 05 22
        E 40 b7 05 1f
        E 40 b7 05 1e
        E 40 b7 05 1b
        E 40 b7 05 19
        E 40 b7 05 17
        E 40 b7 05 15
        E 40 b7 05 13
        E 40 b7 05 11
        E 40 b7 05 0f
        E 40 b7 05 0d
        E 40 b7 05 0b
        E 40 b7 05 0a
        E 40 b7 05 08
        E 40 b7 05 07
        E 40 b7 05 06
        E 40 b7 05 05
        E 40 b7 05 03
        E 40 b7 05 03
        E 40 b7 05 02
        E 40 b7 05 01
        E 40 b7 05 00
        E 40 b7 05 00
        E 40 b7 05 00
        E 40 b7 05 00
        E 40 b7 05 00
        E 40 b7 05 00
        E 40 b7 05 00
        E 40 b7 05 00
        E 40 b7 05 00
        E 40 b7 05 01
        E 40 b7 05 02
        E 40 b7 05 03
        E 40 b7 05 03
        E 40 b7 05 04
        E 40 b7 05 05
        E 40 b7 05 07
        E 40 b7 05 07
        E 40 b7 05 09
        E 40 b7 05 0b
        E 40 b7 05 0c
        E 40 b7 05 0e
        E 40 b7 05 10
        E 40 b7 05 12
        E 40 b7 05 14
        E 40 b7 05 16
        E 40 b7 05 18
        E 40 b7 05 1a
        E 40 b7 05 1c
        E 40 b7 05 1f
        E 40 b7 05 21
        E 40 b7 05 24
        E 40 b7 05 26
        E 40 b7 05 28
        E 40 b7 05 2b
        E 40 b7 05 2d
        E 40 b7 05 2f
        E 40 b7 05 33
        E 45 b7 05 06
        E 45 b7 05 06
        E 45 b7 05 07
        E 45 b7 05 07
        E 45 b7 05 07
        E 45 b7 05 07
        E 45 b7 05 08
        E 45 b7 05 08
        E 45 b7 05 08
        E 45 b7 05 09
        E 45 b7 05 09
        E 45 b7 05 09
        E 45 b7 05 09
        E 45 b7 05 0a
        E 45 b7 05 0a
        E 45 b7 05 0a
        E 45 b7 05 0a
        E 45 b7 05 0b
        E 45 b7 05 0b
        E 45 b7 05 0b
        E 45 b7 05 0b
        E 45 b7 05 0b
        E 45 b7 05 0c
        E 45 b7 05 0c
        E 45 b7 05 0c
        E 45 b7 05 0c
        E 45 b7 05 0c
        E 45 b7 05 0c
        E 45 b7 05 0c
        E 45 b7 05 0c
        E 45 b7 05 0c
        E 45 b7 05 0c
        E 45 b7 05 0c
        E 45 b7 05 0c
        E 45 b7 05 0c
        E 45 b7 05 0c
        E 45 b7 05 0c
        E 45 b7 05 0c
        E 45 b7 05 0c
        E 45 b7 05 0c
        E 45 b7 05 0c
        E 45 b7 05 0c
        E 45 b7 05 0b
        E 45 b7 05 0b
        E 45 b7 05 0b
        E 45 b7 05 0b
        E 45 b7 05 0b
        E 45 b7 05 0b
        E 45 b7 05 0a
        E 45 b7 05 0a
        E 45 b7 05 0a
        E 45 b7 05 0a
        E 45 b7 05 09
        E 45 b7 05 09
        E 45 b7 05 09
        E 45 b7 05 08
        E 45 b7 05 08
        E 45 b7 05 08
        E 45 b7 05 08
        E 45 b7 05 07
        E 45 b7 05 07
        E 45 b7 05 07
        E 45 b7 05 06
        E 45 b7 05 06
        E 45 b7 05 06
        E 45 b7 05 05
        E 45 b7 05 05
        E 45 b7 05 05
        E 45 b7 05 04
        E 45 b7 05 04
        E 45 b7 05 04
        E 45 b7 05 04
        E 45 b7 05 03
        E 45 b7 05 03
        E 45 b7 05 03
        E 45 b7 05 02
        E 45 b7 05 02
        E 45 b7 05 02
        E 45 b7 05 02
        E 45 b7 05 01
        E 45 b7 05 01
        E 45 b7 05 01
        E 45 b7 05 01
        E 45 b7 05 01
        E 45 b7 05 01
        E 45 b7 05 00
        E 45 b7 05 00
        E 45 b7 05 00
        E 45 b7 05 00
        E 45 b7 05 00
        E 45 b7 05 00
        E 45 b7 05 00
        E 45 b7 05 00
        E 45 b7 05 00
        E 45 b7 05 00
        E 45 b7 05 00
        E 45 b7 05 00
        E 45 b7 05 00
        E 45 b7 05 00
        E 45 b7 05 00
        E 45 b7 05 00
        E 45 b7 05 00
        E 45 b7 05 00
        E 45 b7 05 00
        E 45 b7 05 00
        E 45 b7 05 00
        E 45 b7 05 00
        E 45 b7 05 01
        E 45 b7 05 01
        E 45 b7 05 01
        E 45 b7 05 01
        E 45 b7 05 01
        E 45 b7 05 02
        E 45 b7 05 02
        E 45 b7 05 02
        E 45 b7 05 02
        E 45 b7 05 03
        E 45 b7 05 03
        E 45 b7 05 03
        E 45 b7 05 03
        E 45 b7 05 04
        E 45 b7 05 04
        E 45 b7 05 04
        E 45 b7 05 05
        E 45 b7 05 05
        E 45 b7 05 05
        E 45 b7 05 06
        E 45 b7 05 06
        E 40 b7 05 19
        E 40 b7 05 1a
        E 40 b7 05 1c
        E 40 b7 05 1d
        E 40 b7 05 1e
        E 40 b7 05 1f
        E 40 b7 05 20
        E 40 b7 05 22
        E 40 b7 05 23
        E 40 b7 05 24
        E 40 b7 05 25
        E 40 b7 05 26
        E 40 b7 05 27
        E 40 b7 05 28
        E 40 b7 05 29
        E 40 b7 05 2a
        E 40 b7 05 2b
        E 40 b7 05 2c
        E 40 b7 05 2d
        E 40 b7 05 2e
        E 40 b7 05 2e
        E 40 b7 05 2f
        E 40 b7 05 30
        E 40 b7 05 30
        E 40 b7 05 30
        E 40 b7 05 31
        E 40 b7 05 31
        E 40 b7 05 32
        E 40 b7 05 32
        E 40 b7 05 32
        E 40 b7 05 32
        E 40 b7 05 32
        E 40 b7 05 32
        E 40 b7 05 32
        E 40 b7 05 32
        E 40 b7 05 32
        E 40 b7 05 32
        E 40 b7 05 32
        E 40 b7 05 31
        E 40 b7 05 31
        E 40 b7 05 30
        E 40 b7 05 30
        E 40 b7 05 2f
        E 40 b7 05 2e
        E 40 b7 05 2e
        E 40 b7 05 2d
        E 40 b7 05 2c
        E 40 b7 05 2c
        E 40 b7 05 2b
        E 40 b7 05 2a
        E 40 b7 05 29
        E 40 b7 05 28
        E 40 b7 05 27
        E 40 b7 05 26
        E 40 b7 05 24
        E 40 b7 05 23
        E 40 b7 05 22
        E 40 b7 05 21
        E 40 b7 05 20
        E 40 b7 05 1f
        E 40 b7 05 1d
        E 40 b7 05 1c
        E 40 b7 05 1b
        E 40 b7 05 1a
        E 40 b7 05 18
        E 40 b7 05 17
        E 40 b7 05 16
        E 40 b7 05 15
        E 40 b7 05 13
        E 40 b7 05 12
        E 40 b7 05 11
        E 40 b7 05 10
        E 40 b7 05 0f
        E 40 b7 05 0e
        E 40 b7 05 0c
        E 40 b7 05 0b
        E 40 b7 05 0a
        E 40 b7 05 09
        E 40 b7 05 08
        E 40 b7 05 07
        E 40 b7 05 06
        E 40 b7 05 06
        E 40 b7 05 05
        E 40 b7 05 04
        E 40 b7 05 04
        E 40 b7 05 03
        E 40 b7 05 02
        E 40 b7 05 02
        E 40 b7 05 01
        E 40 b7 05 01
        E 40 b7 05 00
        E 40 b7 05 00
        E 40 b7 05 00
        E 40 b7 05 00
        E 40 b7 05 00
        E 40 b7 05 00
        E 40 b7 05 00
        E 40 b7 05 00
        E 40 b7 05 00
        E 40 b7 05 00
        E 40 b7 05 00
        E 40 b7 05 01
        E 40 b7 05 01
        E 40 b7 05 02
        E 40 b7 05 02
        E 40 b7 05 02
        E 40 b7 05 03
        E 40 b7 05 04
        E 40 b7 05 04
        E 40 b7 05 05
        E 40 b7 05 06
        E 40 b7 05 07
        E 40 b7 05 08
        E 40 b7 05 09
        E 40 b7 05 0a
        E 40 b7 05 0b
        E 40 b7 05 0c
        E 40 b7 05 0d
        E 40 b7 05 0e
        E 40 b7 05 0f
        E 40 b7 05 10
        E 40 b7 05 12
        E 40 b7 05 13
        E 40 b7 05 14
        E 40 b7 05 15
        E 40 b7 05 16
        E 40 b7 05 18
        E 40 b7 05 19
        E 22 b7 05 2c
        E 22 b7 05 2e
        E 22 b7 05 31
        E 22 b7 05 33
        E 22 b7 05 35
        E 22 b7 05 37
        E 22 b7 05 39
        E 22 b7 05 3b
        E 22 b7 05 3d
        E 22 b7 05 3f
        E 22 b7 05 41
        E 22 b7 05 43
        E 22 b7 05 45
        E 22 b7 05 47
        E 22 b7 05 48
        E 22 b7 05 4a
        E 22 b7 05 4c
        E 22 b7 05 4d
        E 22 b7 05 4f
        E 22 b7 05 50
        E 22 b7 05 51
        E 22 b7 05 52
        E 22 b7 05 54
        E 22 b7 05 54
        E 22 b7 05 55
        E 22 b7 05 56
        E 22 b7 05 56
        E 22 b7 05 57
        E 22 b7 05 58
        E 22 b7 05 58
        E 22 b7 05 58
        E 22 b7 05 58
        E 22 b7 05 58
        E 22 b7 05 58
        E 22 b7 05 58
        E 22 b7 05 58
        E 22 b7 05 58
        E 22 b7 05 57
        E 22 b7 05 56
        E 22 b7 05 56
        E 22 b7 05 55
        E 22 b7 05 54
        E 22 b7 05 53
        E 22 b7 05 51
        E 22 b7 05 51
        E 22 b7 05 4f
        E 22 b7 05 4e
        E 22 b7 05 4d
        E 22 b7 05 4b
        E 22 b7 05 49
        E 22 b7 05 48
        E 22 b7 05 46
        E 22 b7 05 44
        E 22 b7 05 42
        E 22 b7 05 40
        E 22 b7 05 3e
        E 22 b7 05 3c
        E 22 b7 05 3a
        E 22 b7 05 38
        E 22 b7 05 36
        E 22 b7 05 33
        E 22 b7 05 31
        E 22 b7 05 2f
        E 22 b7 05 2d
        E 22 b7 05 2b
        E 22 b7 05 29
        E 22 b7 05 27
        E 22 b7 05 25
        E 22 b7 05 22
        E 22 b7 05 20
        E 22 b7 05 1e
        E 22 b7 05 1c
        E 22 b7 05 1a
        E 22 b7 05 18
        E 22 b7 05 16
        E 22 b7 05 14
        E 22 b7 05 12
        E 22 b7 05 10
        E 22 b7 05 0f
        E 22 b7 05 0d
        E 22 b7 05 0b
        E 22 b7 05 0a
        E 22 b7 05 09
        E 22 b7 05 07
        E 22 b7 05 07
        E 22 b7 05 05
        E 22 b7 05 04
        E 22 b7 05 03
        E 22 b7 05 02
        E 22 b7 05 02
        E 22 b7 05 01
        E 22 b7 05 00
        E 22 b7 05 00
        E 22 b7 05 00
        E 22 b7 05 00
        E 22 b7 05 00
        E 22 b7 05 00
        E 22 b7 05 00
        E 22 b7 05 00
        E 22 b7 05 00
        E 22 b7 05 01
        E 22 b7 05 02
        E 22 b7 05 02
        E 22 b7 05 03
        E 22 b7 05 04
        E 22 b7 05 04
        E 22 b7 05 06
        E 22 b7 05 07
        E 22 b7 05 08
        E 22 b7 05 09
        E 22 b7 05 0b
        E 22 b7 05 0c
        E 22 b7 05 0e
        E 22 b7 05 10
        E 22 b7 05 11
        E 22 b7 05 13
        E 22 b7 05 15
        E 22 b7 05 17
        E 22 b7 05 19
        E 22 b7 05 1b
        E 22 b7 05 1d
        E 22 b7 05 1f
        E 22 b7 05 21
        E 22 b7 05 23
        E 22 b7 05 25
        E 22 b7 05 27
        E 22 b7 05 2a
        E 22 b7 05 2c
        E 36 b7 05 40
        E 36 b7 05 43
        E 36 b7 05 46
        E 36 b7 05 49
        E 36 b7 05 4c
        E 36 b7 05 4f
        E 36 b7 05 52
        E 36 b7 05 55
        E 36 b7 05 58
        E 36 b7 05 5b
        E 36 b7 05 5e
        E 36 b7 05 60
        E 36 b7 05 63
        E 36 b7 05 66
        E 36 b7 05 68
        E 36 b7 05 6a
        E 36 b7 05 6d
        E 36 b7 05 6f
        E 36 b7 05 71
        E 36 b7 05 73
        E 36 b7 05 75
        E 36 b7 05 76
        E 36 b7 05 78
        E 36 b7 05 79
        E 36 b7 05 7a
        E 36 b7 05 7b
        E 36 b7 05 7c
        E 36 b7 05 7d
        E 36 b7 05 7e
        E 36 b7 05 7e
        E 36 b7 05 7f
        E 36 b7 05 7f
        E 36 b7 05 7f
        E 36 b7 05 7f
        E 36 b7 05 7f
        E 36 b7 05 7e
        E 36 b7 05 7e
        E 36 b7 05 7d
        E 36 b7 05 7c
        E 36 b7 05 7b
        E 36 b7 05 7a
        E 36 b7 05 78
        E 36 b7 05 77
        E 36 b7 05 75
        E 36 b7 05 74
        E 36 b7 05 72
        E 36 b7 05 70
        E 36 b7 05 6e
        E 36 b7 05 6c
        E 36 b7 05 69
        E 36 b7 05 67
        E 36 b7 05 64
        E 36 b7 05 62
        E 36 b7 05 5f
        E 36 b7 05 5c
        E 36 b7 05 59
        E 36 b7 05 57
        E 36 b7 05 54
        E 36 b7 05 51
        E 36 b7 05 4e
        E 36 b7 05 4a
        E 36 b7 05 47
        E 36 b7 05 44
        E 36 b7 05 41
        E 36 b7 05 3e
        E 36 b7 05 3b
        E 36 b7 05 38
        E 36 b7 05 35
        E 36 b7 05 31
        E 36 b7 05 2e
        E 36 b7 05 2b
        E 36 b7 05 28
        E 36 b7 05 26
        E 36 b7 05 23
        E 36 b7 05 20
        E 36 b7 05 1d
        E 36 b7 05 1b
        E 36 b7 05 18
        E 36 b7 05 16
        E 36 b7 05 13
        E 36 b7 05 11
        E 36 b7 05 0f
        E 36 b7 05 0d
        E 36 b7 05 0b
        E 36 b7 05 0a
        E 36 b7 05 08
        E 36 b7 05 07
        E 36 b7 05 05
        E 36 b7 05 04
        E 36 b7 05 03
        E 36 b7 05 02
        E 36 b7 05 01
        E 36 b7 05 01
        E 36 b7 05 00
        E 36 b7 05 00
        E 36 b7 05 00
        E 36 b7 05 00
        E 36 b7 05 00
        E 36 b7 05 01
        E 36 b7 05 01
        E 36 b7 05 02
        E 36 b7 05 03
        E 36 b7 05 04
        E 36 b7 05 05
        E 36 b7 05 06
        E 36 b7 05 07
        E 36 b7 05 09
        E 36 b7 05 0a
        E 36 b7 05 0c
        E 36 b7 05 0e
        E 36 b7 05 10
        E 36 b7 05 12
        E 36 b7 05 15
        E 36 b7 05 17
        E 36 b7 05 19
        E 36 b7 05 1c
        E 36 b7 05 1f
        E 36 b7 05 21
        E 36 b7 05 24
        E 36 b7 05 27
        E 36 b7 05 2a
        E 36 b7 05 2d
        E 36 b7 05 30
        E 36 b7 05 33
        E 36 b7 05 36
        E 36 b7 05 39
        E 36 b7 05 3c
        E 36 b7 05 40
        E 4 b7 05 39
        E 4 b7 05 3c
        E 4 b7 05 3f
        E 4 b7 05 41
        E 4 b7 05 44
        E 4 b7 05 47
        E 4 b7 05 49
        E 4 b7 05 4c
        E 4 b7 05 4f
        E 4 b7 05 51
        E 4 b7 05 54
        E 4 b7 05 56
        E 4 b7 05 59
        E 4 b7 05 5b
        E 4 b7 05 5d
        E 4 b7 05 5f
        E 4 b7 05 62
        E 4 b7 05 63
        E 4 b7 05 65
        E 4 b7 05 67
        E 4 b7 05 69
        E 4 b7 05 6a
        E 4 b7 05 6c
        E 4 b7 05 6c
        E 4 b7 05 6d
        E 4 b7 05 6e
        E 4 b7 05 6f
        E 4 b7 05 70
        E 4 b7 05 71
        E 4 b7 05 71
        E 4 b7 05 72
        E 4 b7 05 72
        E 4 b7 05 72
        E 4 b7 05 72
        E 4 b7 05 72
        E 4 b7 05 71
        E 4 b7 05 71
        E 4 b7 05 70
        E 4 b7 05 6f
        E 4 b7 05 6e
        E 4 b7 05 6d
        E 4 b7 05 6c
        E 4 b7 05 6b
        E 4 b7 05 69
        E 4 b7 05 68
        E 4 b7 05 66
        E 4 b7 05 64
        E 4 b7 05 63
        E 4 b7 05 61
        E 4 b7 05 5e
        E 4 b7 05 5c
        E 4 b7 05 5a
        E 4 b7 05 58
        E 4 b7 05 55
        E 4 b7 05 52
        E 4 b7 05 50
        E 4 b7 05 4e
        E 4 b7 05 4b
        E 4 b7 05 48
        E 4 b7 05 46
        E 4 b7 05 42
        E 4 b7 05 3f
        E 4 b7 05 3d
        E 4 b7 05 3a
        E 4 b7 05 37
        E 4 b7 05 35
        E 4 b7 05 32
        E 4 b7 05 2f
        E 4 b7 05 2c
        E 4 b7 05 29
        E 4 b7 05 26
        E 4 b7 05 24
        E 4 b7 05 22
        E 4 b7 05 1f
        E 4 b7 05 1c
        E 4 b7 05 1a
        E 4 b7 05 18
        E 4 b7 05 15
        E 4 b7 05 13
        E 4 b7 05 11
        E 4 b7 05 0f
        E 4 b7 05 0d
        E 4 b7 05 0b
        E 4 b7 05 09
        E 4 b7 05 09
        E 4 b7 05 07
        E 4 b7 05 06
        E 4 b7 05 04
        E 4 b7 05 03
        E 4 b7 05 02
        E 4 b7 05 01
        E 4 b7 05 00
        E 4 b7 05 00
        E 4 b7 05 00
        E 4 b7 05 00
        E 4 b7 05 00
        E 4 b7 05 00
        E 4 b7 05 00
        E 4 b7 05 00
        E 4 b7 05 00
        E 4 b7 05 01
        E 4 b7 05 02
        E 4 b7 05 03
        E 4 b7 05 04
        E 4 b7 05 05
        E 4 b7 05 06
        E 4 b7 05 08
        E 4 b7 05 09
        E 4 b7 05 0a
        E 4 b7 05 0c
        E 4 b7 05 0e
        E 4 b7 05 10
        E 4 b7 05 12
        E 4 b7 05 14
        E 4 b7 05 16
        E 4 b7 05 19
        E 4 b7 05 1b
        E 4 b7 05 1d
        E 4 b7 05 20
        E 4 b7 05 23
        E 4 b7 05 25
        E 4 b7 05 28
        E 4 b7 05 2b
        E 4 b7 05 2d
        E 4 b7 05 30
        E 4 b7 05 33
        E 4 b7 05 36
        E 4 b7 05 39
        E 18 b7 05 40
        E 18 b7 05 43
        E 18 b7 05 46
        E 18 b7 05 49
        E 18 b7 05 4c
        E 18 b7 05 4f
        E 18 b7 05 52
        E 18 b7 05 55
        E 18 b7 05 58
        E 18 b7 05 5b
        E 18 b7 05 5e
        E 18 b7 05 60
        E 18 b7 05 63
        E 18 b7 05 66
        E 18 b7 05 68
        E 18 b7 05 6a
        E 18 b7 05 6d
        E 18 b7 05 6f
        E 18 b7 05 71
        E 18 b7 05 73
        E 18 b7 05 75
        E 18 b7 05 76
        E 18 b7 05 78
        E 18 b7 05 79
        E 18 b7 05 7a
        E 18 b7 05 7b
        E 18 b7 05 7c
        E 18 b7 05 7d
        E 18 b7 05 7e
        E 18 b7 05 7e
        E 18 b7 05 7f
        E 18 b7 05 7f
        E 18 b7 05 7f
        E 18 b7 05 7f
        E 18 b7 05 7f
        E 18 b7 05 7e
        E 18 b7 05 7e
        E 18 b7 05 7d
        E 18 b7 05 7c
        E 18 b7 05 7b
        E 18 b7 05 7a
        E 18 b7 05 78
        E 18 b7 05 77
        E 18 b7 05 75
        E 18 b7 05 74
        E 18 b7 05 72
        E 18 b7 05 70
        E 18 b7 05 6e
        E 18 b7 05 6c
        E 18 b7 05 69
        E 18 b7 05 67
        E 18 b7 05 64
        E 18 b7 05 62
        E 18 b7 05 5f
        E 18 b7 05 5c
        E 18 b7 05 59
        E 18 b7 05 57
        E 18 b7 05 54
        E 18 b7 05 51
        E 18 b7 05 4e
        E 18 b7 05 4a
        E 18 b7 05 47
        E 18 b7 05 44
        E 18 b7 05 41
        E 18 b7 05 3e
        E 18 b7 05 3b
        E 18 b7 05 38
        E 18 b7 05 35
        E 18 b7 05 31
        E 18 b7 05 2e
        E 18 b7 05 2b
        E 18 b7 05 28
        E 18 b7 05 26
        E 18 b7 05 23
        E 18 b7 05 20
        E 18 b7 05 1d
        E 18 b7 05 1b
        E 18 b7 05 18
        E 18 b7 05 16
        E 18 b7 05 13
        E 18 b7 05 11
        E 18 b7 05 0f
        E 18 b7 05 0d
        E 18 b7 05 0b
        E 18 b7 05 0a
        E 18 b7 05 08
        E 18 b7 05 07
        E 18 b7 05 05
        E 18 b7 05 04
        E 18 b7 05 03
        E 18 b7 05 02
        E 18 b7 05 01
        E 18 b7 05 01
        E 18 b7 05 00
        E 18 b7 05 00
        E 18 b7 05 00
        E 18 b7 05 00
        E 18 b7 05 00
        E 18 b7 05 01
        E 18 b7 05 01
        E 18 b7 05 02
        E 18 b7 05 03
        E 18 b7 05 04
        E 18 b7 05 05
        E 18 b7 05 06
        E 18 b7 05 07
        E 18 b7 05 09
        E 18 b7 05 0a
        E 18 b7 05 0c
        E 18 b7 05 0e
        E 18 b7 05 10
        E 18 b7 05 12
        E 18 b7 05 15
        E 18 b7 05 17
        E 18 b7 05 19
        E 18 b7 05 1c
        E 18 b7 05 1f
        E 18 b7 05 21
        E 18 b7 05 24
        E 18 b7 05 27
        E 18 b7 05 2a
        E 18 b7 05 2d
        E 18 b7 05 30
        E 18 b7 05 33
        E 18 b7 05 36
        E 18 b7 05 39
        E 18 b7 05 3c
        E 18 b7 05 40
        E 31 b7 05 39
        E 31 b7 05 3c
        E 31 b7 05 3f
        E 31 b7 05 41
        E 31 b7 05 44
        E 31 b7 05 47
        E 31 b7 05 49
        E 31 b7 05 4c
        E 31 b7 05 4f
        E 31 b7 05 51
        E 31 b7 05 54
        E 31 b7 05 56
        E 31 b7 05 59
        E 31 b7 05 5b
        E 31 b7 05 5d
        E 31 b7 05 5f
        E 31 b7 05 62
        E 31 b7 05 63
        E 31 b7 05 65
        E 31 b7 05 67
        E 31 b7 05 69
        E 31 b7 05 6a
        E 31 b7 05 6c
        E 31 b7 05 6c
        E 31 b7 05 6d
        E 31 b7 05 6e
        E 31 b7 05 6f
        E 31 b7 05 70
        E 31 b7 05 71
        E 31 b7 05 71
        E 31 b7 05 72
        E 31 b7 05 72
        E 31 b7 05 72
        E 31 b7 05 72
        E 31 b7 05 72
        E 31 b7 05 71
        E 31 b7 05 71
        E 31 b7 05 70
        E 31 b7 05 6f
        E 31 b7 05 6e
        E 31 b7 05 6d
        E 31 b7 05 6c
        E 31 b7 05 6b
        E 31 b7 05 69
        E 31 b7 05 68
        E 31 b7 05 66
        E 31 b7 05 64
        E 31 b7 05 63
        E 31 b7 05 61
        E 31 b7 05 5e
        E 31 b7 05 5c
        E 31 b7 05 5a
        E 31 b7 05 58
        E 31 b7 05 55
        E 31 b7 05 52
        E 31 b7 05 50
        E 31 b7 05 4e
        E 31 b7 05 4b
        E 31 b7 05 48
        E 31 b7 05 46
        E 31 b7 05 42
        E 31 b7 05 3f
        E 31 b7 05 3d
        E 31 b7 05 3a
        E 31 b7 05 37
        E 31 b7 05 35
        E 31 b7 05 32
        E 31 b7 05 2f
        E 31 b7 05 2c
        E 31 b7 05 29
        E 31 b7 05 26
        E 31 b7 05 24
        E 31 b7 05 22
        E 31 b7 05 1f
        E 31 b7 05 1c
        E 31 b7 05 1a
        E 31 b7 05 18
        E 31 b7 05 15
        E 31 b7 05 13
        E 31 b7 05 11
        E 31 b7 05 0f
        E 31 b7 05 0d
        E 31 b7 05 0b
        E 31 b7 05 09
        E 31 b7 05 09
        E 31 b7 05 07
        E 31 b7 05 06
        E 31 b7 05 04
        E 31 b7 05 03
        E 31 b7 05 02
        E 31 b7 05 01
        E 31 b7 05 00
        E 31 b7 05 00
        E 31 b7 05 00
        E 31 b7 05 00
        E 31 b7 05 00
        E 31 b7 05 00
        E 31 b7 05 00
        E 31 b7 05 00
        E 31 b7 05 00
        E 31 b7 05 01
        E 31 b7 05 02
        E 31 b7 05 03
        E 31 b7 05 04
        E 31 b7 05 05
        E 31 b7 05 06
        E 31 b7 05 08
        E 31 b7 05 09
        E 31 b7 05 0a
        E 31 b7 05 0c
        E 31 b7 05 0e
        E 31 b7 05 10
        E 31 b7 05 12
        E 31 b7 05 14
        E 31 b7 05 16
        E 31 b7 05 19
        E 31 b7 05 1b
        E 31 b7 05 1d
        E 31 b7 05 20
        E 31 b7 05 23
        E 31 b7 05 25
        E 31 b7 05 28
        E 31 b7 05 2b
        E 31 b7 05 2d
        E 31 b7 05 30
        E 31 b7 05 33
        E 31 b7 05 36
        E 31 b7 05 39
        E 22 b7 05 20
        E 22 b7 05 21
        E 22 b7 05 23
        E 22 b7 05 24
        E 22 b7 05 26
        E 22 b7 05 27
        E 22 b7 05 29
        E 22 b7 05 2a
        E 22 b7 05 2c
        E 22 b7 05 2d
        E 22 b7 05 2f
        E 22 b7 05 30
        E 22 b7 05 31
        E 22 b7 05 33
        E 22 b7 05 34
        E 22 b7 05 35
        E 22 b7 05 36
        E 22 b7 05 37
        E 22 b7 05 38
        E 22 b7 05 39
        E 22 b7 05 3a
        E 22 b7 05 3b
        E 22 b7 05 3c
        E 22 b7 05 3c
        E 22 b7 05 3d
        E 22 b7 05 3d
        E 22 b7 05 3e
        E 22 b7 05 3e
        E 22 b7 05 3f
        E 22 b7 05 3f
        E 22 b7 05 3f
        E 22 b7 05 3f
        E 22 b7 05 3f
        E 22 b7 05 3f
        E 22 b7 05 3f
        E 22 b7 05 3f
        E 22 b7 05 3f
        E 22 b7 05 3e
        E 22 b7 05 3e
        E 22 b7 05 3d
        E 22 b7 05 3d
        E 22 b7 05 3c
        E 22 b7 05 3b
        E 22 b7 05 3a
        E 22 b7 05 3a
        E 22 b7 05 39
        E 22 b7 05 38
        E 22 b7 05 37
        E 22 b7 05 36
        E 22 b7 05 34
        E 22 b7 05 33
        E 22 b7 05 32
        E 22 b7 05 31
        E 22 b7 05 2f
        E 22 b7 05 2e
        E 22 b7 05 2c
        E 22 b7 05 2b
        E 22 b7 05 2a
        E 22 b7 05 28
        E 22 b7 05 27
        E 22 b7 05 25
        E 22 b7 05 23
        E 22 b7 05 22
        E 22 b7 05 20
        E 22 b7 05 1f
        E 22 b7 05 1d
        E 22 b7 05 1c
        E 22 b7 05 1a
        E 22 b7 05 18
        E 22 b7 05 17
        E 22 b7 05 15
        E 22 b7 05 14
        E 22 b7 05 13
        E 22 b7 05 11
        E 22 b7 05 10
        E 22 b7 05 0e
        E 22 b7 05 0d
        E 22 b7 05 0c
        E 22 b7 05 0b
        E 22 b7 05 09
        E 22 b7 05 08
        E 22 b7 05 07
        E 22 b7 05 06
        E 22 b7 05 05
        E 22 b7 05 05
        E 22 b7 05 04
        E 22 b7 05 03
        E 22 b7 05 02
        E 22 b7 05 02
        E 22 b7 05 01
        E 22 b7 05 01
        E 22 b7 05 00
        E 22 b7 05 00
        E 22 b7 05 00
        E 22 b7 05 00
        E 22 b7 05 00
        E 22 b7 05 00
        E 22 b7 05 00
        E 22 b7 05 00
        E 22 b7 05 00
        E 22 b7 05 01
        E 22 b7 05 01
        E 22 b7 05 02
        E 22 b7 05 02
        E 22 b7 05 03
        E 22 b7 05 03
        E 22 b7 05 04
        E 22 b7 05 05
        E 22 b7 05 06
        E 22 b7 05 07
        E 22 b7 05 08
        E 22 b7 05 09
        E 22 b7 05 0a
        E 22 b7 05 0b
        E 22 b7 05 0c
        E 22 b7 05 0e
        E 22 b7 05 0f
        E 22 b7 05 10
        E 22 b7 05 12
        E 22 b7 05 13
        E 22 b7 05 15
        E 22 b7 05 16
        E 22 b7 05 18
        E 22 b7 05 19
        E 22 b7 05 1b
        E 22 b7 05 1c
        E 22 b7 05 1e
        E 22 b7 05 20
        E 22 b7 05 20
        E 22 b7 05 21
        E 22 b7 05 23
        E 22 b7 05 24
        E 22 b7 05 26
        E 22 b7 05 27
        E 22 b7 05 29
        E 22 b7 05 2a
        E 22 b7 05 2c
        E 22 b7 05 2d
        E 22 b7 05 2f
        E 22 b7 05 30
        E 22 b7 05 31
        E 22 b7 05 33
        E 22 b7 05 34
        E 22 b7 05 35
        E 22 b7 05 36
        E 22 b7 05 37
        E 22 b7 05 38
        E 22 b7 05 39
        E 22 b7 05 3a
        E 22 b7 05 3b
        E 22 b7 05 3c
        E 22 b7 05 3c
        E 22 b7 05 3d
        E 22 b7 05 3d
        E 22 b7 05 3e
        E 22 b7 05 3e
        E 22 b7 05 3f
        E 22 b7 05 3f
        E 22 b7 05 3f
        E 22 b7 05 3f
        E 22 b7 05 3f
        E 22 b7 05 3f
        E 22 b7 05 3f
        E 22 b7 05 3f
        E 22 b7 05 3f
        E 22 b7 05 3e
        E 22 b7 05 3e
        E 22 b7 05 3d
        E 22 b7 05 3d
        E 22 b7 05 3c
        E 22 b7 05 3b
        E 22 b7 05 3a
        E 22 b7 05 3a
        E 22 b7 05 39
        E 22 b7 05 38
        E 22 b7 05 37
        E 22 b7 05 36
        E 22 b7 05 34
        E 22 b7 05 33
        E 22 b7 05 32
        E 22 b7 05 31
        E 22 b7 05 2f
        E 22 b7 05 2e
        E 22 b7 05 2c
        E 22 b7 05 2b
        E 22 b7 05 2a
        E 22 b7 05 28
        E 22 b7 05 27
        E 22 b7 05 25
        E 22 b7 05 23
        E 22 b7 05 22
        E 22 b7 05 20
        E 22 b7 05 1f
        E 22 b7 05 1d
        E 22 b7 05 1c
        E 22 b7 05 1a
        E 22 b7 05 18
        E 22 b7 05 17
        E 22 b7 05 15
        E 22 b7 05 14
        E 22 b7 05 13
        E 22 b7 05 11
        E 22 b7 05 10
        E 22 b7 05 0e
        E 22 b7 05 0d
        E 22 b7 05 0c
        E 22 b7 05 0b
        E 22 b7 05 09
        E 22 b7 05 08
        E 22 b7 05 07
        E 22 b7 05 06
        E 22 b7 05 05
        E 22 b7 05 05
        E 22 b7 05 04
        E 22 b7 05 03
        E 22 b7 05 02
        E 22 b7 05 02
        E 22 b7 05 01
        E 22 b7 05 01
        E 22 b7 05 00
        E 22 b7 05 00
        E 22 b7 05 00
        E 22 b7 05 00
        E 22 b7 05 00
        E 22 b7 05 00
        E 22 b7 05 00
        E 22 b7 05 00
        E 22 b7 05 00
        E 22 b7 05 01
        E 22 b7 05 01
        E 22 b7 05 02
        E 22 b7 05 02
        E 22 b7 05 03
        E 22 b7 05 03
        E 22 b7 05 04
        E 22 b7 05 05
        E 22 b7 05 06
        E 22 b7 05 07
        E 22 b7 05 08
        E 22 b7 05 09
        E 22 b7 05 0a
        E 22 b7 05 0b
        E 22 b7 05 0c
        E 22 b7 05 0e
        E 22 b7 05 0f
        E 22 b7 05 10
        E 22 b7 05 12
        E 22 b7 05 13
        E 22 b7 05 15
        E 22 b7 05 16
        E 22 b7 05 18
        E 22 b7 05 19
        E 22 b7 05 1b
        E 22 b7 05 1c
        E 22 b7 05 1e
        E 22 b7 05 20
        E 45 b7 05 2c
        E 45 b7 05 2e
        E 45 b7 05 31
        E 45 b7 05 33
        E 45 b7 05 35
        E 45 b7 05 37
        E 45 b7 05 39
        E 45 b7 05 3b
        E 45 b7 05 3d
        E 45 b7 05 3f
        E 45 b7 05 41
        E 45 b7 05 43
        E 45 b7 05 45
        E 45 b7 05 47
        E 45 b7 05 48
        E 45 b7 05 4a
        E 45 b7 05 4c
        E 45 b7 05 4d
        E 45 b7 05 4f
        E 45 b7 05 50
        E 45 b7 05 51
        E 45 b7 05 52
        E 45 b7 05 54
        E 45 b7 05 54
        E 45 b7 05 55
        E 45 b7 05 56
        E 45 b7 05 56
        E 45 b7 05 57
        E 45 b7 05 58
        E 45 b7 05 58
        E 45 b7 05 58
        E 45 b7 05 58
        E 45 b7 05 58
        E 45 b7 05 58
        E 45 b7 05 58
        E 45 b7 05 58
        E 45 b7 05 58
        E 45 b7 05 57
        E 45 b7 05 56
        E 45 b7 05 56
        E 45 b7 05 55
        E 45 b7 05 54
        E 45 b7 05 53
        E 45 b7 05 51
        E 45 b7 05 51
        E 45 b7 05 4f
        E 45 b7 05 4e
        E 45 b7 05 4d
        E 45 b7 05 4b
        E 45 b7 05 49
        E 45 b7 05 48
        E 45 b7 05 46
        E 45 b7 05 44
        E 45 b7 05 42
        E 45 b7 05 40
        E 45 b7 05 3e
        E 45 b7 05 3c
        E 45 b7 05 3a
        E 45 b7 05 38
        E 45 b7 05 36
        E 45 b7 05 33
        E 45 b7 05 31
        E 45 b7 05 2f
        E 45 b7 05 2d
        E 45 b7 05 2b
        E 45 b7 05 29
        E 45 b7 05 27
        E 45 b7 05 25
        E 45 b7 05 22
        E 45 b7 05 20
        E 45 b7 05 1e
        E 45 b7 05 1c
        E 45 b7 05 1a
        E 45 b7 05 18
        E 45 b7 05 16
        E 45 b7 05 14
        E 45 b7 05 12
        E 45 b7 05 10
        E 45 b7 05 0f
        E 45 b7 05 0d
        E 45 b7 05 0b
        E 45 b7 05 0a
        E 45 b7 05 09
        E 45 b7 05 07
        E 45 b7 05 07
        E 45 b7 05 05
        E 45 b7 05 04
        E 45 b7 05 03
        E 45 b7 05 02
        E 45 b7 05 02
        E 45 b7 05 01
        E 45 b7 05 00
        E 45 b7 05 00
        E 45 b7 05 00
        E 45 b7 05 00
        E 45 b7 05 00
        E 45 b7 05 00
        E 45 b7 05 00
        E 45 b7 05 00
        E 45 b7 05 00
        E 45 b7 05 01
        E 45 b7 05 02
        E 45 b7 05 02
        E 45 b7 05 03
        E 45 b7 05 04
        E 45 b7 05 04
        E 45 b7 05 06
        E 45 b7 05 07
        E 45 b7 05 08
        E 45 b7 05 09
        E 45 b7 05 0b
        E 45 b7 05 0c
        E 45 b7 05 0e
        E 45 b7 05 10
        E 45 b7 05 11
        E 45 b7 05 13
        E 45 b7 05 15
        E 45 b7 05 17
        E 45 b7 05 19
        E 45 b7 05 1b
        E 45 b7 05 1d
        E 45 b7 05 1f
        E 45 b7 05 21
        E 45 b7 05 23
        E 45 b7 05 25
        E 45 b7 05 27
        E 45 b7 05 2a
        E 45 b7 05 2c
        E 40 b7 05 33
        E 40 b7 05 35
        E 40 b7 05 37
        E 40 b7 05 3a
        E 40 b7 05 3c
        E 40 b7 05 3f
        E 40 b7 05 41
        E 40 b7 05 44
        E 40 b7 05 46
        E 40 b7 05 48
        E 40 b7 05 4b
        E 40 b7 05 4c
        E 40 b7 05 4f
        E 40 b7 05 51
        E 40 b7 05 53
        E 40 b7 05 54
        E 40 b7 05 57
        E 40 b7 05 58
        E 40 b7 05 5a
        E 40 b7 05 5b
        E 40 b7 05 5d
        E 40 b7 05 5e
        E 40 b7 05 5f
        E 40 b7 05 60
        E 40 b7 05 61
        E 40 b7 05 62
        E 40 b7 05 63
        E 40 b7 05 63
        E 40 b7 05 64
        E 40 b7 05 64
        E 40 b7 05 65
        E 40 b7 05 65
        E 40 b7 05 65
        E 40 b7 05 65
        E 40 b7 05 65
        E 40 b7 05 64
        E 40 b7 05 64
        E 40 b7 05 63
        E 40 b7 05 63
        E 40 b7 05 62
        E 40 b7 05 61
        E 40 b7 05 5f
        E 40 b7 05 5f
        E 40 b7 05 5d
        E 40 b7 05 5c
        E 40 b7 05 5b
        E 40 b7 05 59
        E 40 b7 05 57
        E 40 b7 05 56
        E 40 b7 05 54
        E 40 b7 05 52
        E 40 b7 05 50
        E 40 b7 05 4e
        E 40 b7 05 4c
        E 40 b7 05 49
        E 40 b7 05 47
        E 40 b7 05 45
        E 40 b7 05 43
        E 40 b7 05 40
        E 40 b7 05 3e
        E 40 b7 05 3b
        E 40 b7 05 38
        E 40 b7 05 36
        E 40 b7 05 33
        E 40 b7 05 31
        E 40 b7 05 2f
        E 40 b7 05 2c
        E 40 b7 05 2a
        E 40 b7 05 27
        E 40 b7 05 24
        E 40 b7 05 22
        E 40 b7 05 1f
        E 40 b7 05 1e
        E 40 b7 05 1b
        E 40 b7 05 19
        E 40 b7 05 17
        E 40 b7 05 15
        E 40 b7 05 13
        E 40 b7 05 11
        E 40 b7 05 0f
        E 40 b7 05 0d
        E 40 b7 05 0b
        E 40 b7 05 0a
        E 40 b7 05 08
        E 40 b7 05 07
        E 40 b7 05 06
        E 40 b7 05 05
        E 40 b7 05 03
        E 40 b7 05 03
        E 40 b7 05 02
        E 40 b7 05 01
        E 40 b7 05 00
        E 40 b7 05 00
        E 40 b7 05 00
        E 40 b7 05 00
        E 40 b7 05 00
        E 40 b7 05 00
        E 40 b7 05 00
        E 40 b7 05 00
        E 40 b7 05 00
        E 40 b7 05 01
        E 40 b7 05 02
        E 40 b7 05 03
        E 40 b7 05 03
        E 40 b7 05 04
        E 40 b7 05 05
        E 40 b7 05 07
        E 40 b7 05 07
        E 40 b7 05 09
        E 40 b7 05 0b
        E 40 b7 05 0c
        E 40 b7 05 0e
        E 40 b7 05 10
        E 40 b7 05 12
        E 40 b7 05 14
        E 40 b7 05 16
        E 40 b7 05 18
        E 40 b7 05 1a
        E 40 b7 05 1c
        E 40 b7 05 1f
        E 40 b7 05 21
        E 40 b7 05 24
        E 40 b7 05 26
        E 40 b7 05 28
        E 40 b7 05 2b
        E 40 b7 05 2d
        E 40 b7 05 2f
        E 40 b7 05 33
        E 45 b7 05 06
        E 45 b7 05 06
        E 45 b7 05 07
        E 45 b7 05 07
        E 45 b7 05 07
        E 45 b7 05 07
        E 45 b7 05 08
        E 45 b7 05 08
        E 45 b7 05 08
        E 45 b7 05 09
        E 45 b7 05 09
        E 45 b7 05 09
        E 45 b7 05 09
        E 45 b7 05 0a
        E 45 b7 05 0a
        E 45 b7 05 0a
        E 45 b7 05 0a
        E 45 b7 05 0b
        E 45 b7 05 0b
        E 45 b7 05 0b
        E 45 b7 05 0b
        E 45 b7 05 0b
        E 45 b7 05 0c
        E 45 b7 05 0c
        E 45 b7 05 0c
        E 45 b7 05 0c
        E 45 b7 05 0c
        E 45 b7 05 0c
        E 45 b7 05 0c
        E 45 b7 05 0c
        E 45 b7 05 0c
        E 45 b7 05 0c
        E 45 b7 05 0c
        E 45 b7 05 0c
        E 45 b7 05 0c
        E 45 b7 05 0c
        E 45 b7 05 0c
        E 45 b7 05 0c
        E 45 b7 05 0c
        E 45 b7 05 0c
        E 45 b7 05 0c
        E 45 b7 05 0c
        E 45 b7 05 0b
        E 45 b7 05 0b
        E 45 b7 05 0b
        E 45 b7 05 0b
        E 45 b7 05 0b
        E 45 b7 05 0b
        E 45 b7 05 0a
        E 45 b7 05 0a
        E 45 b7 05 0a
        E 45 b7 05 0a
        E 45 b7 05 09
        E 45 b7 05 09
        E 45 b7 05 09
        E 45 b7 05 08
        E 45 b7 05 08
        E 45 b7 05 08
        E 45 b7 05 08
        E 45 b7 05 07
        E 45 b7 05 07
        E 45 b7 05 07
        E 45 b7 05 06
        E 45 b7 05 06
        E 45 b7 05 06
        E 45 b7 05 05
        E 45 b7 05 05
        E 45 b7 05 05
        E 45 b7 05 04
        E 45 b7 05 04
        E 45 b7 05 04
        E 45 b7 05 04
        E 45 b7 05 03
        E 45 b7 05 03
        E 45 b7 05 03
        E 45 b7 05 02
        E 45 b7 05 02
        E 45 b7 05 02
        E 45 b7 05 02
        E 45 b7 05 01
        E 45 b7 05 01
        E 45 b7 05 01
        E 45 b7 05 01
        E 45 b7 05 01
        E 45 b7 05 01
        E 45 b7 05 00
        E 45 b7 05 00
        E 45 b7 05 00
        E 45 b7 05 00
        E 45 b7 05 00
        E 45 b7 05 00
        E 45 b7 05 00
        E 45 b7 05 00
        E 45 b7 05 00
        E 45 b7 05 00
        E 45 b7 05 00
        E 45 b7 05 00
        E 45 b7 05 00
        E 45 b7 05 00
        E 45 b7 05 00
        E 45 b7 05 00
        E 45 b7 05 00
        E 45 b7 05 00
        E 45 b7 05 00
        E 45 b7 05 00
        E 45 b7 05 00
        E 45 b7 05 00
        E 45 b7 05 01
        E 45 b7 05 01
        E 45 b7 05 01
        E 45 b7 05 01
        E 45 b7 05 01
        E 45 b7 05 02
        E 45 b7 05 02
        E 45 b7 05 02
        E 45 b7 05 02
        E 45 b7 05 03
        E 45 b7 05 03
        E 45 b7 05 03
        E 45 b7 05 03
        E 45 b7 05 04
        E 45 b7 05 04
        E 45 b7 05 04
        E 45 b7 05 05
        E 45 b7 05 05
        E 45 b7 05 05
        E 45 b7 05 06
        E 45 b7 05 06
        E 40 b7 05 19
        E 40 b7 05 1a
        E 40 b7 05 1c
        E 40 b7 05 1d
        E 40 b7 05 1e
        E 40 b7 05 1f
        E 40 b7 05 20
        E 40 b7 05 22
        E 40 b7 05 23
        E 40 b7 05 24
        E 40 b7 05 25
        E 40 b7 05 26
        E 40 b7 05 27
        E 40 b7 05 28
        E 40 b7 05 29
        E 40 b7 05 2a
        E 40 b7 05 2b
        E 40 b7 05 2c
        E 40 b7 05 2d
        E 40 b7 05 2e
        E 40 b7 05 2e
        E 40 b7 05 2f
        E 40 b7 05 30
        E 40 b7 05 30
        E 40 b7 05 30
        E 40 b7 05 31
        E 40 b7 05 31
        E 40 b7 05 32
        E 40 b7 05 32
        E 40 b7 05 32
        E 40 b7 05 32
        E 40 b7 05 32
        E 40 b7 05 32
        E 40 b7 05 32
        E 40 b7 05 32
        E 40 b7 05 32
        E 40 b7 05 32
        E 40 b7 05 32
        E 40 b7 05 31
        E 40 b7 05 31
        E 40 b7 05 30
        E 40 b7 05 30
        E 40 b7 05 2f
        E 40 b7 05 2e
        E 40 b7 05 2e
        E 40 b7 05 2d
        E 40 b7 05 2c
        E 40 b7 05 2c
        E 40 b7 05 2b
        E 40 b7 05 2a
        E 40 b7 05 29
        E 40 b7 05 28
        E 40 b7 05 27
        E 40 b7 05 26
        E 40 b7 05 24
        E 40 b7 05 23
        E 40 b7 05 22
        E 40 b7 05 21
        E 40 b7 05 20
        E 40 b7 05 1f
        E 40 b7 05 1d
        E 40 b7 05 1c
        E 40 b7 05 1b
        E 40 b7 05 1a
        E 40 b7 05 18
        E 40 b7 05 17
        E 40 b7 05 16
        E 40 b7 05 15
        E 40 b7 05 13
        E 40 b7 05 12
        E 40 b7 05 11
        E 40 b7 05 10
        E 40 b7 05 0f
        E 40 b7 05 0e
        E 40 b7 05 0c
        E 40 b7 05 0b
        E 40 b7 05 0a
        E 40 b7 05 09
        E 40 b7 05 08
        E 40 b7 05 07
        E 40 b7 05 06
        E 40 b7 05 06
        E 40 b7 05 05
        E 40 b7 05 04
        E 40 b7 05 04
        E 40 b7 05 03
        E 40 b7 05 02
        E 40 b7 05 02
        E 40 b7 05 01
        E 40 b7 05 01
        E 40 b7 05 00
        E 40 b7 05 00
        E 40 b7 05 00
        E 40 b7 05 00
        E 40 b7 05 00
        E 40 b7 05 00
        E 40 b7 05 00
        E 40 b7 05 00
        E 40 b7 05 00
        E 40 b7 05 00
        E 40 b7 05 00
        E 40 b7 05 01
        E 40 b7 05 01
        E 40 b7 05 02
        E 40 b7 05 02
        E 40 b7 05 02
        E 40 b7 05 03
        E 40 b7 05 04
        E 40 b7 05 04
        E 40 b7 05 05
        E 40 b7 05 06
        E 40 b7 05 07
        E 40 b7 05 08
        E 40 b7 05 09
        E 40 b7 05 0a
        E 40 b7 05 0b
        E 40 b7 05 0c
        E 40 b7 05 0d
        E 40 b7 05 0e
        E 40 b7 05 0f
        E 40 b7 05 10
        E 40 b7 05 12
        E 40 b7 05 13
        E 40 b7 05 14
        E 40 b7 05 15
        E 40 b7 05 16
        E 40 b7 05 18
        E 40 b7 05 19
        E 22 b7 05 2c
        E 22 b7 05 2e
        E 22 b7 05 31
        E 22 b7 05 33
        E 22 b7 05 35
        E 22 b7 05 37
        E 22 b7 05 39
        E 22 b7 05 3b
        E 22 b7 05 3d
        E 22 b7 05 3f
        E 22 b7 05 41
        E 22 b7 05 43
        E 22 b7 05 45
        E 22 b7 05 47
        E 22 b7 05 48
        E 22 b7 05 4a
        E 22 b7 05 4c
        E 22 b7 05 4d
        E 22 b7 05 4f
        E 22 b7 05 50
        E 22 b7 05 51
        E 22 b7 05 52
        E 22 b7 05 54
        E 22 b7 05 54
        E 22 b7 05 55
        E 22 b7 05 56
        E 22 b7 05 56
        E 22 b7 05 57
        E 22 b7 05 58
        E 22 b7 05 58
        E 22 b7 05 58
        E 22 b7 05 58
        E 22 b7 05 58
        E 22 b7 05 58
        E 22 b7 05 58
        E 22 b7 05 58
        E 22 b7 05 58
        E 22 b7 05 57
        E 22 b7 05 56
        E 22 b7 05 56
        E 22 b7 05 55
        E 22 b7 05 54
        E 22 b7 05 53
        E 22 b7 05 51
        E 22 b7 05 51
        E 22 b7 05 4f
        E 22 b7 05 4e
        E 22 b7 05 4d
        E 22 b7 05 4b
        E 22 b7 05 49
        E 22 b7 05 48
        E 22 b7 05 46
        E 22 b7 05 44
        E 22 b7 05 42
        E 22 b7 05 40
        E 22 b7 05 3e
        E 22 b7 05 3c
        E 22 b7 05 3a
        E 22 b7 05 38
        E 22 b7 05 36
        E 22 b7 05 33
        E 22 b7 05 31
        E 22 b7 05 2f
        E 22 b7 05 2d
        E 22 b7 05 2b
        E 22 b7 05 29
        E 22 b7 05 27
        E 22 b7 05 25
        E 22 b7 05 22
        E 22 b7 05 20
        E 22 b7 05 1e
        E 22 b7 05 1c
        E 22 b7 05 1a
        E 22 b7 05 18
        E 22 b7 05 16
        E 22 b7 05 14
        E 22 b7 05 12
        E 22 b7 05 10
        E 22 b7 05 0f
        E 22 b7 05 0d
        E 22 b7 05 0b
        E 22 b7 05 0a
        E 22 b7 05 09
        E 22 b7 05 07
        E 22 b7 05 07
        E 22 b7 05 05
        E 22 b7 05 04
        E 22 b7 05 03
        E 22 b7 05 02
        E 22 b7 05 02
        E 22 b7 05 01
        E 22 b7 05 00
        E 22 b7 05 00
        E 22 b7 05 00
        E 22 b7 05 00
        E 22 b7 05 00
        E 22 b7 05 00
        E 22 b7 05 00
        E 22 b7 05 00
        E 22 b7 05 00
        E 22 b7 05 01
        E 22 b7 05 02
        E 22 b7 05 02
        E 22 b7 05 03
        E 22 b7 05 04
        E 22 b7 05 04
        E 22 b7 05 06
        E 22 b7 05 07
        E 22 b7 05 08
        E 22 b7 05 09
        E 22 b7 05 0b
        E 22 b7 05 0c
        E 22 b7 05 0e
        E 22 b7 05 10
        E 22 b7 05 11
        E 22 b7 05 13
        E 22 b7 05 15
        E 22 b7 05 17
        E 22 b7 05 19
        E 22 b7 05 1b
        E 22 b7 05 1d
        E 22 b7 05 1f
        E 22 b7 05 21
        E 22 b7 05 23
        E 22 b7 05 25
        E 22 b7 05 27
        E 22 b7 05 2a
        E 22 b7 05 2c
        E 36 b7 05 40
        E 36 b7 05 43
        E 36 b7 05 46
        E 36 b7 05 49
        E 36 b7 05 4c
        E 36 b7 05 4f
        E 36 b7 05 52
        E 36 b7 05 55
        E 36 b7 05 58
        E 36 b7 05 5b
        E 36 b7 05 5e
        E 36 b7 05 60
        E 36 b7 05 63
        E 36 b7 05 66
        E 36 b7 05 68
        E 36 b7 05 6a
        E 36 b7 05 6d
        E 36 b7 05 6f
        E 36 b7 05 71
        E 36 b7 05 73
        E 36 b7 05 75
        E 36 b7 05 76
        E 36 b7 05 78
        E 36 b7 05 79
        E 36 b7 05 7a
        E 36 b7 05 7b
        E 36 b7 05 7c
        E 36 b7 05 7d
        E 36 b7 05 7e
        E 36 b7 05 7e
        E 36 b7 05 7f
        E 36 b7 05 7f
        E 36 b7 05 7f
        E 36 b7 05 7f
        E 36 b7 05 7f
        E 36 b7 05 7e
        E 36 b7 05 7e
        E 36 b7 05 7d
        E 36 b7 05 7c
        E 36 b7 05 7b
        E 36 b7 05 7a
        E 36 b7 05 78
        E 36 b7 05 77
        E 36 b7 05 75
        E 36 b7 05 74
        E 36 b7 05 72
        E 36 b7 05 70
        E 36 b7 05 6e
        E 36 b7 05 6c
        E 36 b7 05 69
        E 36 b7 05 67
        E 36 b7 05 64
        E 36 b7 05 62
        E 36 b7 05 5f
        E 36 b7 05 5c
        E 36 b7 05 59
        E 36 b7 05 57
        E 36 b7 05 54
        E 36 b7 05 51
        E 36 b7 05 4e
        E 36 b7 05 4a
        E 36 b7 05 47
        E 36 b7 05 44
        E 36 b7 05 41
        E 36 b7 05 3e
        E 36 b7 05 3b
        E 36 b7 05 38
        E 36 b7 05 35
        E 36 b7 05 31
        E 36 b7 05 2e
        E 36 b7 05 2b
        E 36 b7 05 28
        E 36 b7 05 26
        E 36 b7 05 23
        E 36 b7 05 20
        E 36 b7 05 1d
        E 36 b7 05 1b
        E 36 b7 05 18
        E 36 b7 05 16
        E 36 b7 05 13
        E 36 b7 05 11
        E 36 b7 05 0f
        E 36 b7 05 0d
        E 36 b7 05 0b
        E 36 b7 05 0a
        E 36 b7 05 08
        E 36 b7 05 07
        E 36 b7 05 05
        E 36 b7 05 04
        E 36 b7 05 03
        E 36 b7 05 02
        E 36 b7 05 01
        E 36 b7 05 01
        E 36 b7 05 00
        E 36 b7 05 00
        E 36 b7 05 00
        E 36 b7 05 00
        E 36 b7 05 00
        E 36 b7 05 01
        E 36 b7 05 01
        E 36 b7 05 02
        E 36 b7 05 03
        E 36 b7 05 04
        E 36 b7 05 05
        E 36 b7 05 06
        E 36 b7 05 07
        E 36 b7 05 09
        E 36 b7 05 0a
        E 36 b7 05 0c
        E 36 b7 05 0e
        E 36 b7 05 10
        E 36 b7 05 12
        E 36 b7 05 15
        E 36 b7 05 17
        E 36 b7 05 19
        E 36 b7 05 1c
        E 36 b7 05 1f
        E 36 b7 05 21
        E 36 b7 05 24
        E 36 b7 05 27
        E 36 b7 05 2a
        E 36 b7 05 2d
        E 36 b7 05 30
        E 36 b7 05 33
        E 36 b7 05 36
        E 36 b7 05 39
        E 36 b7 05 3c
        E 36 b7 05 40
        E 4 b7 05 39
        E 4 b7 05 3c
        E 4 b7 05 3f
        E 4 b7 05 41
        E 4 b7 05 44
        E 4 b7 05 47
        E 4 b7 05 49
        E 4 b7 05 4c
        E 4 b7 05 4f
        E 4 b7 05 51
        E 4 b7 05 54
        E 4 b7 05 56
        E 4 b7 05 59
        E 4 b7 05 5b
        E 4 b7 05 5d
        E 4 b7 05 5f
        E 4 b7 05 62
        E 4 b7 05 63
        E 4 b7 05 65
        E 4 b7 05 67
        E 4 b7 05 69
        E 4 b7 05 6a
        E 4 b7 05 6c
        E 4 b7 05 6c
        E 4 b7 05 6d
        E 4 b7 05 6e
        E 4 b7 05 6f
        E 4 b7 05 70
        E 4 b7 05 71
        E 4 b7 05 71
        E 4 b7 05 72
        E 4 b7 05 72
        E 4 b7 05 72
        E 4 b7 05 72
        E 4 b7 05 72
        E 4 b7 05 71
        E 4 b7 05 71
        E 4 b7 05 70
        E 4 b7 05 6f
        E 4 b7 05 6e
        E 4 b7 05 6d
        E 4 b7 05 6c
        E 4 b7 05 6b
        E 4 b7 05 69
        E 4 b7 05 68
        E 4 b7 05 66
        E 4 b7 05 64
        E 4 b7 05 63
        E 4 b7 05 61
        E 4 b7 05 5e
        E 4 b7 05 5c
        E 4 b7 05 5a
        E 4 b7 05 58
        E 4 b7 05 55
        E 4 b7 05 52
        E 4 b7 05 50
        E 4 b7 05 4e
        E 4 b7 05 4b
        E 4 b7 05 48
        E 4 b7 05 46
        E 4 b7 05 42
        E 4 b7 05 3f
        E 4 b7 05 3d
        E 4 b7 05 3a
        E 4 b7 05 37
        E 4 b7 05 35
        E 4 b7 05 32
        E 4 b7 05 2f
        E 4 b7 05 2c
        E 4 b7 05 29
        E 4 b7 05 26
        E 4 b7 05 24
        E 4 b7 05 22
        E 4 b7 05 1f
        E 4 b7 05 1c
        E 4 b7 05 1a
        E 4 b7 05 18
        E 4 b7 05 15
        E 4 b7 05 13
        E 4 b7 05 11
        E 4 b7 05 0f
        E 4 b7 05 0d
        E 4 b7 05 0b
        E 4 b7 05 09
        E 4 b7 05 09
        E 4 b7 05 07
        E 4 b7 05 06
        E 4 b7 05 04
        E 4 b7 05 03
        E 4 b7 05 02
        E 4 b7 05 01
        E 4 b7 05 00
        E 4 b7 05 00
        E 4 b7 05 00
        E 4 b7 05 00
        E 4 b7 05 00
        E 4 b7 05 00
        E 4 b7 05 00
        E 4 b7 05 00
        E 4 b7 05 00
        E 4 b7 05 01
        E 4 b7 05 02
        E 4 b7 05 03
        E 4 b7 05 04
        E 4 b7 05 05
        E 4 b7 05 06
        E 4 b7 05 08
        E 4 b7 05 09
        E 4 b7 05 0a
        E 4 b7 05 0c
        E 4 b7 05 0e
        E 4 b7 05 10
        E 4 b7 05 12
        E 4 b7 05 14
        E 4 b7 05 16
        E 4 b7 05 19
        E 4 b7 05 1b
        E 4 b7 05 1d
        E 4 b7 05 20
        E 4 b7 05 23
        E 4 b7 05 25
        E 4 b7 05 28
        E 4 b7 05 2b
        E 4 b7 05 2d
        E 4 b7 05 30
        E 4 b7 05 33
        E 4 b7 05 36
        E 4 b7 05 39
        E 18 b7 05 40
        E 18 b7 05 43
        E 18 b7 05 46
        E 18 b7 05 49
        E 18 b7 05 4c
        E 18 b7 05 4f
        E 18 b7 05 52
        E 18 b7 05 55
        E 18 b7 05 58
        E 18 b7 05 5b
        E 18 b7 05 5e
        E 18 b7 05 60
        E 18 b7 05 63
        E 18 b7 05 66
        E 18 b7 05 68
        E 18 b7 05 6a
        E 18 b7 05 6d
        E 18 b7 05 6f
        E 18 b7 05 71
        E 18 b7 05 73
        E 18 b7 05 75
        E 18 b7 05 76
        E 18 b7 05 78
        E 18 b7 05 79
        E 18 b7 05 7a
        E 18 b7 05 7b
        E 18 b7 05 7c
        E 18 b7 05 7d
        E 18 b7 05 7e
        E 18 b7 05 7e
        E 18 b7 05 7f
        E 18 b7 05 7f
        E 18 b7 05 7f
        E 18 b7 05 7f
        E 18 b7 05 7f
        E 18 b7 05 7e
        E 18 b7 05 7e
        E 18 b7 05 7d
        E 18 b7 05 7c
        E 18 b7 05 7b
        E 18 b7 05 7a
        E 18 b7 05 78
        E 18 b7 05 77
        E 18 b7 05 75
        E 18 b7 05 74
        E 18 b7 05 72
        E 18 b7 05 70
        E 18 b7 05 6e
        E 18 b7 05 6c
        E 18 b7 05 69
        E 18 b7 05 67
        E 18 b7 05 64
        E 18 b7 05 62
        E 18 b7 05 5f
        E 18 b7 05 5c
        E 18 b7 05 59
        E 18 b7 05 57
        E 18 b7 05 54
        E 18 b7 05 51
        E 18 b7 05 4e
        E 18 b7 05 4a
        E 18 b7 05 47
        E 18 b7 05 44
        E 18 b7 05 41
        E 18 b7 05 3e
        E 18 b7 05 3b
        E 18 b7 05 38
        E 18 b7 05 35
        E 18 b7 05 31
        E 18 b7 05 2e
        E 18 b7 05 2b
        E 18 b7 05 28
        E 18 b7 05 26
        E 18 b7 05 23
        E 18 b7 05 20
        E 18 b7 05 1d
        E 18 b7 05 1b
        E 18 b7 05 18
        E 18 b7 05 16
        E 18 b7 05 13
        E 18 b7 05 11
        E 18 b7 05 0f
        E 18 b7 05 0d
        E 18 b7 05 0b
        E 18 b7 05 0a
        E 18 b7 05 08
        E 18 b7 05 07
        E 18 b7 05 05
        E 18 b7 05 04
        E 18 b7 05 03
        E 18 b7 05 02
        E 18 b7 05 01
        E 18 b7 05 01
        E 18 b7 05 00
        E 18 b7 05 00
        E 18 b7 05 00
        E 18 b7 05 00
        E 18 b7 05 00
        E 18 b7 05 01
        E 18 b7 05 01
        E 18 b7 05 02
        E 18 b7 05 03
        E 18 b7 05 04
        E 18 b7 05 05
        E 18 b7 05 06
        E 18 b7 05 07
        E 18 b7 05 09
        E 18 b7 05 0a
        E 18 b7 05 0c
        E 18 b7 05 0e
        E 18 b7 05 10
        E 18 b7 05 12
        E 18 b7 05 15
        E 18 b7 05 17
        E 18 b7 05 19
        E 18 b7 05 1c
        E 18 b7 05 1f
        E 18 b7 05 21
        E 18 b7 05 24
        E 18 b7 05 27
        E 18 b7 05 2a
        E 18 b7 05 2d
        E 18 b7 05 30
        E 18 b7 05 33
        E 18 b7 05 36
        E 18 b7 05 39
        E 18 b7 05 3c
        E 18 b7 05 40
        E 31 b7 05 39
        E 31 b7 05 3c
        E 31 b7 05 3f
        E 31 b7 05 41
        E 31 b7 05 44
        E 31 b7 05 47
        E 31 b7 05 49
        E 31 b7 05 4c
        E 31 b7 05 4f
        E 31 b7 05 51
        E 31 b7 05 54
        E 31 b7 05 56
        E 31 b7 05 59
        E 31 b7 05 5b
        E 31 b7 05 5d
        E 31 b7 05 5f
        E 31 b7 05 62
        E 31 b7 05 63
        E 31 b7 05 65
        E 31 b7 05 67
        E 31 b7 05 69
        E 31 b7 05 6a
        E 31 b7 05 6c
        E 31 b7 05 6c
        E 31 b7 05 6d
        E 31 b7 05 6e
        E 31 b7 05 6f
        E 31 b7 05 70
        E 31 b7 05 71
        E 31 b7 05 71
        E 31 b7 05 72
        E 31 b7 05 72
        E 31 b7 05 72
        E 31 b7 05 72
        E 31 b7 05 72
        E 31 b7 05 71
        E 31 b7 05 71
        E 31 b7 05 70
        E 31 b7 05 6f
        E 31 b7 05 6e
        E 31 b7 05 6d
        E 31 b7 05 6c
        E 31 b7 05 6b
        E 31 b7 05 69
        E 31 b7 05 68
        E 31 b7 05 66
        E 31 b7 05 64
        E 31 b7 05 63
        E 31 b7 05 61
        E 31 b7 05 5e
        E 31 b7 05 5c
        E 31 b7 05 5a
        E 31 b7 05 58
        E 31 b7 05 55
        E 31 b7 05 52
        E 31 b7 05 50
        E 31 b7 05 4e
        E 31 b7 05 4b
        E 31 b7 05 48
        E 31 b7 05 46
        E 31 b7 05 42
        E 31 b7 05 3f
        E 31 b7 05 3d
        E 31 b7 05 3a
        E 31 b7 05 37
        E 31 b7 05 35
        E 31 b7 05 32
        E 31 b7 05 2f
        E 31 b7 05 2c
        E 31 b7 05 29
        E 31 b7 05 26
        E 31 b7 05 24
        E 31 b7 05 22
        E 31 b7 05 1f
        E 31 b7 05 1c
        E 31 b7 05 1a
        E 31 b7 05 18
        E 31 b7 05 15
        E 31 b7 05 13
        E 31 b7 05 11
        E 31 b7 05 0f
        E 31 b7 05 0d
        E 31 b7 05 0b
        E 31 b7 05 09
        E 31 b7 05 09
        E 31 b7 05 07
        E 31 b7 05 06
        E 31 b7 05 04
        E 31 b7 05 03
        E 31 b7 05 02
        E 31 b7 05 01
        E 31 b7 05 00
        E 31 b7 05 00
        E 31 b7 05 00
        E 31 b7 05 00
        E 31 b7 05 00
        E 31 b7 05 00
        E 31 b7 05 00
        E 31 b7 05 00
        E 31 b7 05 00
        E 31 b7 05 01
        E 31 b7 05 02
        E 31 b7 05 03
        E 31 b7 05 04
        E 31 b7 05 05
        E 31 b7 05 06
        E 31 b7 05 08
        E 31 b7 05 09
        E 31 b7 05 0a
        E 31 b7 05 0c
        E 31 b7 05 0e
        E 31 b7 05 10
        E 31 b7 05 12
        E 31 b7 05 14
        E 31 b7 05 16
        E 31 b7 05 19
        E 31 b7 05 1b
        E 31 b7 05 1d
        E 31 b7 05 20
        E 31 b7 05 23
        E 31 b7 05 25
        E 31 b7 05 28
        E 31 b7 05 2b
        E 31 b7 05 2d
        E 31 b7 05 30
        E 31 b7 05 33
        E 31 b7 05 36
        E 31 b7 05 39
        E 22 b7 05 20
        E 22 b7 05 21
        E 22 b7 05 23
        E 22 b7 05 24
        E 22 b7 05 26
        E 22 b7 05 27
        E 22 b7 05 29
        E 22 b7 05 2a
        E 22 b7 05 2c
        E 22 b7 05 2d
        E 22 b7 05 2f
        E 22 b7 05 30
        E 22 b7 05 31
        E 22 b7 05 33
        E 22 b7 05 34
        E 22 b7 05 35
        E 22 b7 05 36
        E 22 b7 05 37
        E 22 b7 05 38
        E 22 b7 05 39
        E 22 b7 05 3a
        E 22 b7 05 3b
        E 22 b7 05 3c
        E 22 b7 05 3c
        E 22 b7 05 3d
        E 22 b7 05 3d
        E 22 b7 05 3e
        E 22 b7 05 3e
        E 22 b7 05 3f
        E 22 b7 05 3f
        E 22 b7 05 3f
        E 22 b7 05 3f
        E 22 b7 05 3f
        E 22 b7 05 3f
        E 22 b7 05 3f
        E 22 b7 05 3f
        E 22 b7 05 3f
        E 22 b7 05 3e
        E 22 b7 05 3e
        E 22 b7 05 3d
        E 22 b7 05 3d
        E 22 b7 05 3c
        E 22 b7 05 3b
        E 22 b7 05 3a
        E 22 b7 05 3a
        E 22 b7 05 39
        E 22 b7 05 38
        E 22 b7 05 37
        E 22 b7 05 36
        E 22 b7 05 34
        E 22 b7 05 33
        E 22 b7 05 32
        E 22 b7 05 31
        E 22 b7 05 2f
        E 22 b7 05 2e
        E 22 b7 05 2c
        E 22 b7 05 2b
        E 22 b7 05 2a
        E 22 b7 05 28
        E 22 b7 05 27
        E 22 b7 05 25
        E 22 b7 05 23
        E 22 b7 05 22
        E 22 b7 05 20
        E 22 b7 05 1f
        E 22 b7 05 1d
        E 22 b7 05 1c
        E 22 b7 05 1a
        E 22 b7 05 18
        E 22 b7 05 17
        E 22 b7 05 15
        E 22 b7 05 14
        E 22 b7 05 13
        E 22 b7 05 11
        E 22 b7 05 10
        E 22 b7 05 0e
        E 22 b7 05 0d
        E 22 b7 05 0c
        E 22 b7 05 0b
        E 22 b7 05 09
        E 22 b7 05 08
        E 22 b7 05 07
        E 22 b7 05 06
        E 22 b7 05 05
        E 22 b7 05 05
        E 22 b7 05 04
        E 22 b7 05 03
        E 22 b7 05 02
        E 22 b7 05 02
        E 22 b7 05 01
        E 22 b7 05 01
        E 22 b7 05 00
        E 22 b7 05 00
        E 22 b7 05 00
        E 22 b7 05 00
        E 22 b7 05 00
        E 22 b7 05 00
        E 22 b7 05 00
        E 22 b7 05 00
        E 22 b7 05 00
        E 22 b7 05 01
        E 22 b7 05 01
        E 22 b7 05 02
        E 22 b7 05 02
        E 22 b7 05 03
        E 22 b7 05 03
        E 22 b7 05 04
        E 22 b7 05 05
        E 22 b7 05 06
        E 22 b7 05 07
        E 22 b7 05 08
        E 22 b7 05 09
        E 22 b7 05 0a
        E 22 b7 05 0b
        E 22 b7 05 0c
        E 22 b7 05 0e
        E 22 b7 05 0f
        E 22 b7 05 10
        E 22 b7 05 12
        E 22 b7 05 13
        E 22 b7 05 15
        E 22 b7 05 16
        E 22 b7 05 18
        E 22 b7 05 19
        E 22 b7 05 1b
        E 22 b7 05 1c
        E 22 b7 05 1e
        E 22 b7 05 20
        E 22 b7 05 20
        E 22 b7 05 21
        E 22 b7 05 23
        E 22 b7 05 24
        E 22 b7 05 26
        E 22 b7 05 27
        E 22 b7 05 29
        E 22 b7 05 2a
        E 22 b7 05 2c
        E 22 b7 05 2d
        E 22 b7 05 2f
        E 22 b7 05 30
        E 22 b7 05 31
        E 22 b7 05 33
        E 22 b7 05 34
        E 22 b7 05 35
        E 22 b7 05 36
        E 22 b7 05 37
        E 22 b7 05 38
        E 22 b7 05 39
        E 22 b7 05 3a
        E 22 b7 05 3b
        E 22 b7 05 3c
        E 22 b7 05 3c
        E 22 b7 05 3d
        E 22 b7 05 3d
        E 22 b7 05 3e
        E 22 b7 05 3e
        E 22 b7 05 3f
        E 22 b7 05 3f
        E 22 b7 05 3f
        E 22 b7 05 3f
        E 22 b7 05 3f
        E 22 b7 05 3f
        E 22 b7 05 3f
        E 22 b7 05 3f
        E 22 b7 05 3f
        E 22 b7 05 3e
        E 22 b7 05 3e
        E 22 b7 05 3d
        E 22 b7 05 3d
        E 22 b7 05 3c
        E 22 b7 05 3b
        E 22 b7 05 3a
        E 22 b7 05 3a
        E 22 b7 05 39
        E 22 b7 05 38
        E 22 b7 05 37
        E 22 b7 05 36
        E 22 b7 05 34
        E 22 b7 05 33
        E 22 b7 05 32
        E 22 b7 05 31
        E 22 b7 05 2f
        E 22 b7 05 2e
        E 22 b7 05 2c
        E 22 b7 05 2b
        E 22 b7 05 2a
        E 22 b7 05 28
        E 22 b7 05 27
        E 22 b7 05 25
        E 22 b7 05 23
        E 22 b7 05 22
        E 22 b7 05 20
        E 22 b7 05 1f
        E 22 b7 05 1d
        E 22 b7 05 1c
        E 22 b7 05 1a
        E 22 b7 05 18
        E 22 b7 05 17
        E 22 b7 05 15
        E 22 b7 05 14
        E 22 b7 05 13
        E 22 b7 05 11
        E 22 b7 05 10
        E 22 b7 05 0e
        E 22 b7 05 0d
        E 22 b7 05 0c
        E 22 b7 05 0b
        E 22 b7 05 09
        E 22 b7 05 08
        E 22 b7 05 07
        E 22 b7 05 06
        E 22 b7 05 05
        E 22 b7 05 05
        E 22 b7 05 04
        E 22 b7 05 03
        E 22 b7 05 02
        E 22 b7 05 02
        E 22 b7 05 01
        E 22 b7 05 01
        E 22 b7 05 00
        E 22 b7 05 00
        E 22 b7 05 00
        E 22 b7 05 00
        E 22 b7 05 00
        E 22 b7 05 00
        E 22 b7 05 00
        E 22 b7 05 00
        E 22 b7 05 00
        E 22 b7 05 01
        E 22 b7 05 01
        E 22 b7 05 02
        E 22 b7 05 02
        E 22 b7 05 03
        E 22 b7 05 03
        E 22 b7 05 04
        E 22 b7 05 05
        E 22 b7 05 06
        E 22 b7 05 07
        E 22 b7 05 08
        E 22 b7 05 09
        E 22 b7 05 0a
        E 22 b7 05 0b
        E 22 b7 05 0c
        E 22 b7 05 0e
        E 22 b7 05 0f
        E 22 b7 05 10
        E 22 b7 05 12
        E 22 b7 05 13
        E 22 b7 05 15
        E 22 b7 05 16
        E 22 b7 05 18
        E 22 b7 05 19
        E 22 b7 05 1b
        E 22 b7 05 1c
        E 22 b7 05 1e
        E 22 b7 05 20
        E 45 b7 05 2c
        E 45 b7 05 2e
        E 45 b7 05 31
        E 45 b7 05 33
        E 45 b7 05 35
        E 45 b7 05 37
        E 45 b7 05 39
        E 45 b7 05 3b
        E 45 b7 05 3d
        E 45 b7 05 3f
        E 45 b7 05 41
        E 45 b7 05 43
        E 45 b7 05 45
        E 45 b7 05 47
        E 45 b7 05 48
        E 45 b7 05 4a
        E 45 b7 05 4c
        E 45 b7 05 4d
        E 45 b7 05 4f
        E 45 b7 05 50
        E 45 b7 05 51
        E 45 b7 05 52
        E 45 b7 05 54
        E 45 b7 05 54
        E 45 b7 05 55
        E 45 b7 05 56
        E 45 b7 05 56
        E 45 b7 05 57
        E 45 b7 05 58
        E 45 b7 05 58
        E 45 b7 05 58
        E 45 b7 05 58
        E 45 b7 05 58
        E 45 b7 05 58
        E 45 b7 05 58
        E 45 b7 05 58
        E 45 b7 05 58
        E 45 b7 05 57
        E 45 b7 05 56
        E 45 b7 05 56
        E 45 b7 05 55
        E 45 b7 05 54
        E 45 b7 05 53
        E 45 b7 05 51
        E 45 b7 05 51
        E 45 b7 05 4f
        E 45 b7 05 4e
        E 45 b7 05 4d
        E 45 b7 05 4b
        E 45 b7 05 49
        E 45 b7 05 48
        E 45 b7 05 46
        E 45 b7 05 44
        E 45 b7 05 42
        E 45 b7 05 40
        E 45 b7 05 3e
        E 45 b7 05 3c
        E 45 b7 05 3a
        E 45 b7 05 38
        E 45 b7 05 36
        E 45 b7 05 33
        E 45 b7 05 31
        E 45 b7 05 2f
        E 45 b7 05 2d
        E 45 b7 05 2b
        E 45 b7 05 29
        E 45 b7 05 27
        E 45 b7 05 25
        E 45 b7 05 22
        E 45 b7 05 20
        E 45 b7 05 1e
        E 45 b7 05 1c
        E 45 b7 05 1a
        E 45 b7 05 18
        E 45 b7 05 16
        E 45 b7 05 14
        E 45 b7 05 12
        E 45 b7 05 10
        E 45 b7 05 0f
        E 45 b7 05 0d
        E 45 b7 05 0b
        E 45 b7 05 0a
        E 45 b7 05 09
        E 45 b7 05 07
        E 45 b7 05 07
        E 45 b7 05 05
        E 45 b7 05 04
        E 45 b7 05 03
        E 45 b7 05 02
        E 45 b7 05 02
        E 45 b7 05 01
        E 45 b7 05 00
        E 45 b7 05 00
        E 45 b7 05 00
        E 45 b7 05 00
        E 45 b7 05 00
        E 45 b7 05 00
        E 45 b7 05 00
        E 45 b7 05 00
        E 45 b7 05 00
        E 45 b7 05 01
        E 45 b7 05 02
        E 45 b7 05 02
        E 45 b7 05 03
        E 45 b7 05 04
        E 45 b7 05 04
        E 45 b7 05 06
        E 45 b7 05 07
        E 45 b7 05 08
        E 45 b7 05 09
        E 45 b7 05 0b
        E 45 b7 05 0c
        E 45 b7 05 0e
        E 45 b7 05 10
        E 45 b7 05 11
        E 45 b7 05 13
        E 45 b7 05 15
        E 45 b7 05 17
        E 45 b7 05 19
        E 45 b7 05 1b
        E 45 b7 05 1d
        E 45 b7 05 1f
        E 45 b7 05 21
        E 45 b7 05 23
        E 45 b7 05 25
        E 45 b7 05 27
        E 45 b7 05 2a
        E 45 b7 05 2c
        E 40 b7 05 33
        E 40 b7 05 35
        E 40 b7 05 37
        E 40 b7 05 3a
        E 40 b7 05 3c
        E 40 b7 05 3f
        E 40 b7 05 41
        E 40 b7 05 44
        E 40 b7 05 46
        E 40 b7 05 48
        E 40 b7 05 4b
        E 40 b7 05 4c
        E 40 b7 05 4f
        E 40 b7 05 51
        E 40 b7 05 53
        E 40 b7 05 54
        E 40 b7 05 57
        E 40 b7 05 58
        E 40 b7 05 5a
        E 40 b7 05 5b
        E 40 b7 05 5d
        E 40 b7 05 5e
        E 40 b7 05 5f
        E 40 b7 05 60
        E 40 b7 05 61
        E 40 b7 05 62
        E 40 b7 05 63
        E 40 b7 05 63
        E 40 b7 05 64
        E 40 b7 05 64
        E 40 b7 05 65
        E 40 b7 05 65
        E 40 b7 05 65
        E 40 b7 05 65
        E 40 b7 05 65
        E 40 b7 05 64
        E 40 b7 05 64
        E 40 b7 05 63
        E 40 b7 05 63
        E 40 b7 05 62
        E 40 b7 05 61
        E 40 b7 05 5f
        E 40 b7 05 5f
        E 40 b7 05 5d
        E 40 b7 05 5c
        E 40 b7 05 5b
        E 40 b7 05 59
        E 40 b7 05 57
        E 40 b7 05 56
        E 40 b7 05 54
        E 40 b7 05 52
        E 40 b7 05 50
        E 40 b7 05 4e
        E 40 b7 05 4c
        E 40 b7 05 49
        E 40 b7 05 47
        E 40 b7 05 45
        E 40 b7 05 43
        E 40 b7 05 40
        E 40 b7 05 3e
        E 40 b7 05 3b
        E 40 b7 05 38
        E 40 b7 05 36
        E 40 b7 05 33
        E 40 b7 05 31
        E 40 b7 05 2f
        E 40 b7 05 2c
        E 40 b7 05 2a
        E 40 b7 05 27
        E 40 b7 05 24
        E 40 b7 05 22
        E 40 b7 05 1f
        E 40 b7 05 1e
        E 40 b7 05 1b
        E 40 b7 05 19
        E 40 b7 05 17
        E 40 b7 05 15
        E 40 b7 05 13
        E 40 b7 05 11
        E 40 b7 05 0f
        E 40 b7 05 0d
        E 40 b7 05 0b
        E 40 b7 05 0a
        E 40 b7 05 08
        E 40 b7 05 07
        E 40 b7 05 06
        E 40 b7 05 05
        E 40 b7 05 03
        E 40 b7 05 03
        E 40 b7 05 02
        E 40 b7 05 01
        E 40 b7 05 00
        E 40 b7 05 00
        E 40 b7 05 00
        E 40 b7 05 00
        E 40 b7 05 00
        E 40 b7 05 00
        E 40 b7 05 00
        E 40 b7 05 00
        E 40 b7 05 00
        E 40 b7 05 01
        E 40 b7 05 02
        E 40 b7 05 03
        E 40 b7 05 03
        E 40 b7 05 04
        E 40 b7 05 05
        E 40 b7 05 07
        E 40 b7 05 07
        E 40 b7 05 09
        E 40 b7 05 0b
        E 40 b7 05 0c
        E 40 b7 05 0e
        E 40 b7 05 10
        E 40 b7 05 12
        E 40 b7 05 14
        E 40 b7 05 16
        E 40 b7 05 18
        E 40 b7 05 1a
        E 40 b7 05 1c
        E 40 b7 05 1f
        E 40 b7 05 21
        E 40 b7 05 24
        E 40 b7 05 26
        E 40 b7 05 28
        E 40 b7 05 2b
        E 40 b7 05 2d
        E 40 b7 05 2f
        E 40 b7 05 33
        E 45 b7 05 06
        E 45 b7 05 06
        E 45 b7 05 07
        E 45 b7 05 07
        E 45 b7 05 07
        E 45 b7 05 07
        E 45 b7 05 08
        E 45 b7 05 08
        E 45 b7 05 08
        E 45 b7 05 09
        E 45 b7 05 09
        E 45 b7 05 09
        E 45 b7 05 09
        E 45 b7 05 0a
        E 45 b7 05 0a
        E 45 b7 05 0a
        E 45 b7 05 0a
        E 45 b7 05 0b
        E 45 b7 05 0b
        E 45 b7 05 0b
        E 45 b7 05 0b
        E 45 b7 05 0b
        E 45 b7 05 0c
        E 45 b7 05 0c
        E 45 b7 05 0c
        E 45 b7 05 0c
        E 45 b7 05 0c
        E 45 b7 05 0c
        E 45 b7 05 0c
        E 45 b7 05 0c
        E 45 b7 05 0c
        E 45 b7 05 0c
        E 45 b7 05 0c
        E 45 b7 05 0c
        E 45 b7 05 0c
        E 45 b7 05 0c
        E 45 b7 05 0c
        E 45 b7 05 0c
        E 45 b7 05 0c
        E 45 b7 05 0c
        E 45 b7 05 0c
        E 45 b7 05 0c
        E 45 b7 05 0b
        E 45 b7 05 0b
        E 45 b7 05 0b
        E 45 b7 05 0b
        E 45 b7 05 0b
        E 45 b7 05 0b
        E 45 b7 05 0a
        E 45 b7 05 0a
        E 45 b7 05 0a
        E 45 b7 05 0a
        E 45 b7 05 09
        E 45 b7 05 09
        E 45 b7 05 09
        E 45 b7 05 08
        E 45 b7 05 08
        E 45 b7 05 08
        E 45 b7 05 08
        E 45 b7 05 07
        E 45 b7 05 07
        E 45 b7 05 07
        E 45 b7 05 06
        E 45 b7 05 06
        E 45 b7 05 06
        E 45 b7 05 05
        E 45 b7 05 05
        E 45 b7 05 05
        E 45 b7 05 04
        E 45 b7 05 04
        E 45 b7 05 04
        E 45 b7 05 04
        E 45 b7 05 03
        E 45 b7 05 03
        E 45 b7 05 03
        E 45 b7 05 02
        E 45 b7 05 02
        E 45 b7 05 02
        E 45 b7 05 02
        E 45 b7 05 01
        E 45 b7 05 01
        E 45 b7 05 01
        E 45 b7 05 01
        E 45 b7 05 01
        E 45 b7 05 01
        E 45 b7 05 00
        E 45 b7 05 00
        E 45 b7 05 00
        E 45 b7 05 00
        E 45 b7 05 00
        E 45 b7 05 00
        E 45 b7 05 00
        E 45 b7 05 00
        E 45 b7 05 00
        E 45 b7 05 00
        E 45 b7 05 00
        E 45 b7 05 00
        E 45 b7 05 00
        E 45 b7 05 00
        E 45 b7 05 00
        E 45 b7 05 00
        E 45 b7 05 00
        E 45 b7 05 00
        E 45 b7 05 00
        E 45 b7 05 00
        E 45 b7 05 00
        E 45 b7 05 00
        E 45 b7 05 01
        E 45 b7 05 01
        E 45 b7 05 01
        E 45 b7 05 01
        E 45 b7 05 01
        E 45 b7 05 02
        E 45 b7 05 02
        E 45 b7 05 02
        E 45 b7 05 02
        E 45 b7 05 03
        E 45 b7 05 03
        E 45 b7 05 03
        E 45 b7 05 03
        E 45 b7 05 04
        E 45 b7 05 04
        E 45 b7 05 04
        E 45 b7 05 05
        E 45 b7 05 05
        E 45 b7 05 05
        E 45 b7 05 06
        E 45 b7 05 06
        E 40 b7 05 19
        E 40 b7 05 1a
        E 40 b7 05 1c
        E 40 b7 05 1d
        E 40 b7 05 1e
        E 40 b7 05 1f
        E 40 b7 05 20
        E 40 b7 05 22
        E 40 b7 05 23
        E 40 b7 05 24
        E 40 b7 05 25
        E 40 b7 05 26
        E 40 b7 05 27
        E 40 b7 05 28
        E 40 b7 05 29
        E 40 b7 05 2a
        E 40 b7 05 2b
        E 40 b7 05 2c
        E 40 b7 05 2d
        E 40 b7 05 2e
        E 40 b7 05 2e
        E 40 b7 05 2f
        E 40 b7 05 30
        E 40 b7 05 30
        E 40 b7 05 30
        E 40 b7 05 31
        E 40 b7 05 31
        E 40 b7 05 32
        E 40 b7 05 32
        E 40 b7 05 32
        E 40 b7 05 32
        E 40 b7 05 32
        E 40 b7 05 32
        E 40 b7 05 32
        E 40 b7 05 32
        E 40 b7 05 32
        E 40 b7 05 32
        E 40 b7 05 32
        E 40 b7 05 31
        E 40 b7 05 31
        E 40 b7 05 30
        E 40 b7 05 30
        E 40 b7 05 2f
        E 40 b7 05 2e
        E 40 b7 05 2e
        E 40 b7 05 2d
        E 40 b7 05 2c
        E 40 b7 05 2c
        E 40 b7 05 2b
        E 40 b7 05 2a
        E 40 b7 05 29
        E 40 b7 05 28
        E 40 b7 05 27
        E 40 b7 05 26
        E 40 b7 05 24
        E 40 b7 05 23
        E 40 b7 05 22
        E 40 b7 05 21
        E 40 b7 05 20
        E 40 b7 05 1f
        E 40 b7 05 1d
        E 40 b7 05 1c
        E 40 b7 05 1b
        E 40 b7 05 1a
        E 40 b7 05 18
        E 40 b7 05 17
        E 40 b7 05 16
        E 40 b7 05 15
        E 40 b7 05 13
        E 40 b7 05 12
        E 40 b7 05 11
        E 40 b7 05 10
        E 40 b7 05 0f
        E 40 b7 05 0e
        E 40 b7 05 0c
        E 40 b7 05 0b
        E 40 b7 05 0a
        E 40 b7 05 09
        E 40 b7 05 08
        E 40 b7 05 07
        E 40 b7 05 06
        E 40 b7 05 06
        E 40 b7 05 05
        E 40 b7 05 04
        E 40 b7 05 04
        E 40 b7 05 03
        E 40 b7 05 02
        E 40 b7 05 02
        E 40 b7 05 01
        E 40 b7 05 01
        E 40 b7 05 00
        E 40 b7 05 00
        E 40 b7 05 00
        E 40 b7 05 00
        E 40 b7 05 00
        E 40 b7 05 00
        E 40 b7 05 00
        E 40 b7 05 00
        E 40 b7 05 00
        E 40 b7 05 00
        E 40 b7 05 00
        E 40 b7 05 01
        E 40 b7 05 01
        E 40 b7 05 02
        E 40 b7 05 02
        E 40 b7 05 02
        E 40 b7 05 03
        E 40 b7 05 04
        E 40 b7 05 04
        E 40 b7 05 05
        E 40 b7 05 06
        E 40 b7 05 07
        E 40 b7 05 08
        E 40 b7 05 09
        E 40 b7 05 0a
        E 40 b7 05 0b
        E 40 b7 05 0c
        E 40 b7 05 0d
        E 40 b7 05 0e
        E 40 b7 05 0f
        E 40 b7 05 10
        E 40 b7 05 12
        E 40 b7 05 13
        E 40 b7 05 14
        E 40 b7 05 15
        E 40 b7 05 16
        E 40 b7 05 18
        E 40 b7 05 19
        E 22 b7 05 2c
        E 22 b7 05 2e
        E 22 b7 05 31
        E 22 b7 05 33
        E 22 b7 05 35
        E 22 b7 05 37
        E 22 b7 05 39
        E 22 b7 05 3b
        E 22 b7 05 3d
        E 22 b7 05 3f
        E 22 b7 05 41
        E 22 b7 05 43
        E 22 b7 05 45
        E 22 b7 05 47
        E 22 b7 05 48
        E 22 b7 05 4a
        E 22 b7 05 4c
        E 22 b7 05 4d
        E 22 b7 05 4f
        E 22 b7 05 50
        E 22 b7 05 51
        E 22 b7 05 52
        E 22 b7 05 54
        E 22 b7 05 54
        E 22 b7 05 55
        E 22 b7 05 56
        E 22 b7 05 56
        E 22 b7 05 57
        E 22 b7 05 58
        E 22 b7 05 58
        E 22 b7 05 58
        E 22 b7 05 58
        E 22 b7 05 58
        E 22 b7 05 58
        E 22 b7 05 58
        E 22 b7 05 58
        E 22 b7 05 58
        E 22 b7 05 57
        E 22 b7 05 56
        E 22 b7 05 56
        E 22 b7 05 55
        E 22 b7 05 54
        E 22 b7 05 53
        E 22 b7 05 51
        E 22 b7 05 51
        E 22 b7 05 4f
        E 22 b7 05 4e
        E 22 b7 05 4d
        E 22 b7 05 4b
        E 22 b7 05 49
        E 22 b7 05 48
        E 22 b7 05 46
        E 22 b7 05 44
        E 22 b7 05 42
        E 22 b7 05 40
        E 22 b7 05 3e
        E 22 b7 05 3c
        E 22 b7 05 3a
        E 22 b7 05 38
        E 22 b7 05 36
        E 22 b7 05 33
        E 22 b7 05 31
        E 22 b7 05 2f
        E 22 b7 05 2d
        E 22 b7 05 2b
        E 22 b7 05 29
        E 22 b7 05 27
        E 22 b7 05 25
        E 22 b7 05 22
        E 22 b7 05 20
        E 22 b7 05 1e
        E 22 b7 05 1c
        E 22 b7 05 1a
        E 22 b7 05 18
        E 22 b7 05 16
        E 22 b7 05 14
        E 22 b7 05 12
        E 22 b7 05 10
        E 22 b7 05 0f
        E 22 b7 05 0d
        E 22 b7 05 0b
        E 22 b7 05 0a
        E 22 b7 05 09
        E 22 b7 05 07
        E 22 b7 05 07
        E 22 b7 05 05
        E 22 b7 05 04
        E 22 b7 05 03
        E 22 b7 05 02
        E 22 b7 05 02
        E 22 b7 05 01
        E 22 b7 05 00
        E 22 b7 05 00
        E 22 b7 05 00
        E 22 b7 05 00
        E 22 b7 05 00
        E 22 b7 05 00
        E 22 b7 05 00
        E 22 b7 05 00
        E 22 b7 05 00
        E 22 b7 05 01
        E 22 b7 05 02
        E 22 b7 05 02
        E 22 b7 05 03
        E 22 b7 05 04
        E 22 b7 05 04
        E 22 b7 05 06
        E 22 b7 05 07
        E 22 b7 05 08
        E 22 b7 05 09
        E 22 b7 05 0b
        E 22 b7 05 0c
        E 22 b7 05 0e
        E 22 b7 05 10
        E 22 b7 05 11
        E 22 b7 05 13
        E 22 b7 05 15
        E 22 b7 05 17
        E 22 b7 05 19
        E 22 b7 05 1b
        E 22 b7 05 1d
        E 22 b7 05 1f
        E 22 b7 05 21
        E 22 b7 05 23
        E 22 b7 05 25
        E 22 b7 05 27
        E 22 b7 05 2a
        E 22 b7 05 2c
        E 36 b7 05 40
        E 36 b7 05 43
        E 36 b7 05 46
        E 36 b7 05 49
        E 36 b7 05 4c
        E 36 b7 05 4f
        E 36 b7 05 52
        E 36 b7 05 55
        E 36 b7 05 58
        E 36 b7 05 5b
        E 36 b7 05 5e
        E 36 b7 05 60
        E 36 b7 05 63
        E 36 b7 05 66
        E 36 b7 05 68
        E 36 b7 05 6a
        E 36 b7 05 6d
        E 36 b7 05 6f
        E 36 b7 05 71
        E 36 b7 05 73
        E 36 b7 05 75
        E 36 b7 05 76
        E 36 b7 05 78
        E 36 b7 05 79
        E 36 b7 05 7a
        E 36 b7 05 7b
        E 36 b7 05 7c
        E 36 b7 05 7d
        E 36 b7 05 7e
        E 36 b7 05 7e
        E 36 b7 05 7f
        E 36 b7 05 7f
        E 36 b7 05 7f
        E 36 b7 05 7f
        E 36 b7 05 7f
        E 36 b7 05 7e
        E 36 b7 05 7e
        E 36 b7 05 7d
        E 36 b7 05 7c
        E 36 b7 05 7b
        E 36 b7 05 7a
        E 36 b7 05 78
        E 36 b7 05 77
        E 36 b7 05 75
        E 36 b7 05 74
        E 36 b7 05 72
        E 36 b7 05 70
        E 36 b7 05 6e
        E 36 b7 05 6c
        E 36 b7 05 69
        E 36 b7 05 67
        E 36 b7 05 64
        E 36 b7 05 62
        E 36 b7 05 5f
        E 36 b7 05 5c
        E 36 b7 05 59
        E 36 b7 05 57
        E 36 b7 05 54
        E 36 b7 05 51
        E 36 b7 05 4e
        E 36 b7 05 4a
        E 36 b7 05 47
        E 36 b7 05 44
        E 36 b7 05 41
        E 36 b7 05 3e
        E 36 b7 05 3b
        E 36 b7 05 38
        E 36 b7 05 35
        E 36 b7 05 31
        E 36 b7 05 2e
        E 36 b7 05 2b
        E 36 b7 05 28
        E 36 b7 05 26
        E 36 b7 05 23
        E 36 b7 05 20
        E 36 b7 05 1d
        E 36 b7 05 1b
        E 36 b7 05 18
        E 36 b7 05 16
        E 36 b7 05 13
        E 36 b7 05 11
        E 36 b7 05 0f
        E 36 b7 05 0d
        E 36 b7 05 0b
        E 36 b7 05 0a
        E 36 b7 05 08
        E 36 b7 05 07
        E 36 b7 05 05
        E 36 b7 05 04
        E 36 b7 05 03
        E 36 b7 05 02
        E 36 b7 05 01
        E 36 b7 05 01
        E 36 b7 05 00
        E 36 b7 05 00
        E 36 b7 05 00
        E 36 b7 05 00
        E 36 b7 05 00
        E 36 b7 05 01
        E 36 b7 05 01
        E 36 b7 05 02
        E 36 b7 05 03
        E 36 b7 05 04
        E 36 b7 05 05
        E 36 b7 05 06
        E 36 b7 05 07
        E 36 b7 05 09
        E 36 b7 05 0a
        E 36 b7 05 0c
        E 36 b7 05 0e
        E 36 b7 05 10
        E 36 b7 05 12
        E 36 b7 05 15
        E 36 b7 05 17
        E 36 b7 05 19
        E 36 b7 05 1c
        E 36 b7 05 1f
        E 36 b7 05 21
        E 36 b7 05 24
        E 36 b7 05 27
        E 36 b7 05 2a
        E 36 b7 05 2d
        E 36 b7 05 30
        E 36 b7 05 33
        E 36 b7 05 36
        E 36 b7 05 39
        E 36 b7 05 3c
        E 36 b7 05 40
        E 4 b7 05 39
        E 4 b7 05 3c
        E 4 b7 05 3f
        E 4 b7 05 41
        E 4 b7 05 44
        E 4 b7 05 47
        E 4 b7 05 49
        E 4 b7 05 4c
        E 4 b7 05 4f
        E 4 b7 05 51
        E 4 b7 05 54
        E 4 b7 05 56
        E 4 b7 05 59
        E 4 b7 05 5b
        E 4 b7 05 5d
        E 4 b7 05 5f
        E 4 b7 05 62
        E 4 b7 05 63
        E 4 b7 05 65
        E 4 b7 05 67
        E 4 b7 05 69
        E 4 b7 05 6a
        E 4 b7 05 6c
        E 4 b7 05 6c
        E 4 b7 05 6d
        E 4 b7 05 6e
        E 4 b7 05 6f
        E 4 b7 05 70
        E 4 b7 05 71
        E 4 b7 05 71
        E 4 b7 05 72
        E 4 b7 05 72
        E 4 b7 05 72
        E 4 b7 05 72
        E 4 b7 05 72
        E 4 b7 05 71
        E 4 b7 05 71
        E 4 b7 05 70
        E 4 b7 05 6f
        E 4 b7 05 6e
        E 4 b7 05 6d
        E 4 b7 05 6c
        E 4 b7 05 6b
        E 4 b7 05 69
        E 4 b7 05 68
        E 4 b7 05 66
        E 4 b7 05 64
        E 4 b7 05 63
        E 4 b7 05 61
        E 4 b7 05 5e
        E 4 b7 05 5c
        E 4 b7 05 5a
        E 4 b7 05 58
        E 4 b7 05 55
        E 4 b7 05 52
        E 4 b7 05 50
        E 4 b7 05 4e
        E 4 b7 05 4b
        E 4 b7 05 48
        E 4 b7 05 46
        E 4 b7 05 42
        E 4 b7 05 3f
        E 4 b7 05 3d
        E 4 b7 05 3a
        E 4 b7 05 37
        E 4 b7 05 35
        E 4 b7 05 32
        E 4 b7 05 2f
        E 4 b7 05 2c
        E 4 b7 05 29
        E 4 b7 05 26
        E 4 b7 05 24
        E 4 b7 05 22
        E 4 b7 05 1f
        E 4 b7 05 1c
        E 4 b7 05 1a
        E 4 b7 05 18
        E 4 b7 05 15
        E 4 b7 05 13
        E 4 b7 05 11
        E 4 b7 05 0f
        E 4 b7 05 0d
        E 4 b7 05 0b
        E 4 b7 05 09
        E 4 b7 05 09
        E 4 b7 05 07
        E 4 b7 05 06
        E 4 b7 05 04
        E 4 b7 05 03
        E 4 b7 05 02
        E 4 b7 05 01
        E 4 b7 05 00
        E 4 b7 05 00
        E 4 b7 05 00
        E 4 b7 05 00
        E 4 b7 05 00
        E 4 b7 05 00
        E 4 b7 05 00
        E 4 b7 05 00
        E 4 b7 05 00
        E 4 b7 05 01
        E 4 b7 05 02
        E 4 b7 05 03
        E 4 b7 05 04
        E 4 b7 05 05
        E 4 b7 05 06
        E 4 b7 05 08
        E 4 b7 05 09
        E 4 b7 05 0a
        E 4 b7 05 0c
        E 4 b7 05 0e
        E 4 b7 05 10
        E 4 b7 05 12
        E 4 b7 05 14
        E 4 b7 05 16
        E 4 b7 05 19
        E 4 b7 05 1b
        E 4 b7 05 1d
        E 4 b7 05 20
        E 4 b7 05 23
        E 4 b7 05 25
        E 4 b7 05 28
        E 4 b7 05 2b
        E 4 b7 05 2d
        E 4 b7 05 30
        E 4 b7 05 33
        E 4 b7 05 36
        E 4 b7 05 39
        E 18 b7 05 40
        E 18 b7 05 43
        E 18 b7 05 46
        E 18 b7 05 49
        E 18 b7 05 4c
        E 18 b7 05 4f
        E 18 b7 05 52
        E 18 b7 05 55
        E 18 b7 05 58
        E 18 b7 05 5b
        E 18 b7 05 5e
        E 18 b7 05 60
        E 18 b7 05 63
        E 18 b7 05 66
        E 18 b7 05 68
        E 18 b7 05 6a
        E 18 b7 05 6d
        E 18 b7 05 6f
        E 18 b7 05 71
        E 18 b7 05 73
        E 18 b7 05 75
        E 18 b7 05 76
        E 18 b7 05 78
        E 18 b7 05 79
        E 18 b7 05 7a
        E 18 b7 05 7b
        E 18 b7 05 7c
        E 18 b7 05 7d
        E 18 b7 05 7e
        E 18 b7 05 7e
        E 18 b7 05 7f
        E 18 b7 05 7f
        E 18 b7 05 7f
        E 18 b7 05 7f
        E 18 b7 05 7f
        E 18 b7 05 7e
        E 18 b7 05 7e
        E 18 b7 05 7d
        E 18 b7 05 7c
        E 18 b7 05 7b
        E 18 b7 05 7a
        E 18 b7 05 78
        E 18 b7 05 77
        E 18 b7 05 75
        E 18 b7 05 74
        E 18 b7 05 72
        E 18 b7 05 70
        E 18 b7 05 6e
        E 18 b7 05 6c
        E 18 b7 05 69
        E 18 b7 05 67
        E 18 b7 05 64
        E 18 b7 05 62
        E 18 b7 05 5f
        E 18 b7 05 5c
        E 18 b7 05 59
        E 18 b7 05 57
        E 18 b7 05 54
        E 18 b7 05 51
        E 18 b7 05 4e
        E 18 b7 05 4a
        E 18 b7 05 47
        E 18 b7 05 44
        E 18 b7 05 41
        E 18 b7 05 3e
        E 18 b7 05 3b
        E 18 b7 05 38
        E 18 b7 05 35
        E 18 b7 05 31
        E 18 b7 05 2e
        E 18 b7 05 2b
        E 18 b7 05 28
        E 18 b7 05 26
        E 18 b7 05 23
        E 18 b7 05 20
        E 18 b7 05 1d
        E 18 b7 05 1b
        E 18 b7 05 18
        E 18 b7 05 16
        E 18 b7 05 13
        E 18 b7 05 11
        E 18 b7 05 0f
        E 18 b7 05 0d
        E 18 b7 05 0b
        E 18 b7 05 0a
        E 18 b7 05 08
        E 18 b7 05 07
        E 18 b7 05 05
        E 18 b7 05 04
        E 18 b7 05 03
        E 18 b7 05 02
        E 18 b7 05 01
        E 18 b7 05 01
        E 18 b7 05 00
        E 18 b7 05 00
        E 18 b7 05 00
        E 18 b7 05 00
        E 18 b7 05 00
        E 18 b7 05 01
        E 18 b7 05 01
        E 18 b7 05 02
        E 18 b7 05 03
        E 18 b7 05 04
        E 18 b7 05 05
        E 18 b7 05 06
        E 18 b7 05 07
        E 18 b7 05 09
        E 18 b7 05 0a
        E 18 b7 05 0c
        E 18 b7 05 0e
        E 18 b7 05 10
        E 18 b7 05 12
        E 18 b7 05 15
        E 18 b7 05 17
        E 18 b7 05 19
        E 18 b7 05 1c
        E 18 b7 05 1f
        E 18 b7 05 21
        E 18 b7 05 24
        E 18 b7 05 27
        E 18 b7 05 2a
        E 18 b7 05 2d
        E 18 b7 05 30
        E 18 b7 05 33
        E 18 b7 05 36
        E 18 b7 05 39
        E 18 b7 05 3c
        E 18 b7 05 40
        E 31 b7 05 39
        E 31 b7 05 3c
        E 31 b7 05 3f
        E 31 b7 05 41
        E 31 b7 05 44
        E 31 b7 05 47
        E 31 b7 05 49
        E 31 b7 05 4c
        E 31 b7 05 4f
        E 31 b7 05 51
        E 31 b7 05 54
        E 31 b7 05 56
        E 31 b7 05 59
        E 31 b7 05 5b
        E 31 b7 05 5d
        E 31 b7 05 5f
        E 31 b7 05 62
        E 31 b7 05 63
        E 31 b7 05 65
        E 31 b7 05 67
        E 31 b7 05 69
        E 31 b7 05 6a
        E 31 b7 05 6c
        E 31 b7 05 6c
        E 31 b7 05 6d
        E 31 b7 05 6e
        E 31 b7 05 6f
        E 31 b7 05 70
        E 31 b7 05 71
        E 31 b7 05 71
        E 31 b7 05 72
        E 31 b7 05 72
        E 31 b7 05 72
        E 31 b7 05 72
        E 31 b7 05 72
        E 31 b7 05 71
        E 31 b7 05 71
        E 31 b7 05 70
        E 31 b7 05 6f
        E 31 b7 05 6e
        E 31 b7 05 6d
        E 31 b7 05 6c
        E 31 b7 05 6b
        E 31 b7 05 69
        E 31 b7 05 68
        E 31 b7 05 66
        E 31 b7 05 64
        E 31 b7 05 63
        E 31 b7 05 61
        E 31 b7 05 5e
        E 31 b7 05 5c
        E 31 b7 05 5a
        E 31 b7 05 58
        E 31 b7 05 55
        E 31 b7 05 52
        E 31 b7 05 50
        E 31 b7 05 4e
        E 31 b7 05 4b
        E 31 b7 05 48
        E 31 b7 05 46
        E 31 b7 05 42
        E 31 b7 05 3f
        E 31 b7 05 3d
        E 31 b7 05 3a
        E 31 b7 05 37
        E 31 b7 05 35
        E 31 b7 05 32
        E 31 b7 05 2f
        E 31 b7 05 2c
        E 31 b7 05 29
        E 31 b7 05 26
        E 31 b7 05 24
        E 31 b7 05 22
        E 31 b7 05 1f
        E 31 b7 05 1c
        E 31 b7 05 1a
        E 31 b7 05 18
        E 31 b7 05 15
        E 31 b7 05 13
        E 31 b7 05 11
        E 31 b7 05 0f
        E 31 b7 05 0d
        E 31 b7 05 0b
        E 31 b7 05 09
        E 31 b7 05 09
        E 31 b7 05 07
        E 31 b7 05 06
        E 31 b7 05 04
        E 31 b7 05 03
        E 31 b7 05 02
        E 31 b7 05 01
        E 31 b7 05 00
        E 31 b7 05 00
        E 31 b7 05 00
        E 31 b7 05 00
        E 31 b7 05 00
        E 31 b7 05 00
        E 31 b7 05 00
        E 31 b7 05 00
        E 31 b7 05 00
        E 31 b7 05 01
        E 31 b7 05 02
        E 31 b7 05 03
        E 31 b7 05 04
        E 31 b7 05 05
        E 31 b7 05 06
        E 31 b7 05 08
        E 31 b7 05 09
        E 31 b7 05 0a
        E 31 b7 05 0c
        E 31 b7 05 0e
        E 31 b7 05 10
        E 31 b7 05 12
        E 31 b7 05 14
        E 31 b7 05 16
        E 31 b7 05 19
        E 31 b7 05 1b
        E 31 b7 05 1d
        E 31 b7 05 20
        E 31 b7 05 23
        E 31 b7 05 25
        E 31 b7 05 28
        E 31 b7 05 2b
        E 31 b7 05 2d
        E 31 b7 05 30
        E 31 b7 05 33
        E 31 b7 05 36
        E 31 b7 05 39
        E 22 b7 05 20
        E 22 b7 05 21
        E 22 b7 05 23
        E 22 b7 05 24
        E 22 b7 05 26
        E 22 b7 05 27
        E 22 b7 05 29
        E 22 b7 05 2a
        E 22 b7 05 2c
        E 22 b7 05 2d
        E 22 b7 05 2f
        E 22 b7 05 30
        E 22 b7 05 31
        E 22 b7 05 33
        E 22 b7 05 34
        E 22 b7 05 35
        E 22 b7 05 36
        E 22 b7 05 37
        E 22 b7 05 38
        E 22 b7 05 39
        E 22 b7 05 3a
        E 22 b7 05 3b
        E 22 b7 05 3c
        E 22 b7 05 3c
        E 22 b7 05 3d
        E 22 b7 05 3d
        E 22 b7 05 3e
        E 22 b7 05 3e
        E 22 b7 05 3f
        E 22 b7 05 3f
        E 22 b7 05 3f
        E 22 b7 05 3f
        E 22 b7 05 3f
        E 22 b7 05 3f
        E 22 b7 05 3f
        E 22 b7 05 3f
        E 22 b7 05 3f
        E 22 b7 05 3e
        E 22 b7 05 3e
        E 22 b7 05 3d
        E 22 b7 05 3d
        E 22 b7 05 3c
        E 22 b7 05 3b
        E 22 b7 05 3a
        E 22 b7 05 3a
        E 22 b7 05 39
        E 22 b7 05 38
        E 22 b7 05 37
        E 22 b7 05 36
        E 22 b7 05 34
        E 22 b7 05 33
        E 22 b7 05 32
        E 22 b7 05 31
        E 22 b7 05 2f
        E 22 b7 05 2e
        E 22 b7 05 2c
        E 22 b7 05 2b
        E 22 b7 05 2a
        E 22 b7 05 28
        E 22 b7 05 27
        E 22 b7 05 25
        E 22 b7 05 23
        E 22 b7 05 22
        E 22 b7 05 20
        E 22 b7 05 1f
        E 22 b7 05 1d
        E 22 b7 05 1c
        E 22 b7 05 1a
        E 22 b7 05 18
        E 22 b7 05 17
        E 22 b7 05 15
        E 22 b7 05 14
        E 22 b7 05 13
        E 22 b7 05 11
        E 22 b7 05 10
        E 22 b7 05 0e
        E 22 b7 05 0d
        E 22 b7 05 0c
        E 22 b7 05 0b
        E 22 b7 05 09
        E 22 b7 05 08
        E 22 b7 05 07
        E 22 b7 05 06
        E 22 b7 05 05
        E 22 b7 05 05
        E 22 b7 05 04
        E 22 b7 05 03
        E 22 b7 05 02
        E 22 b7 05 02
        E 22 b7 05 01
        E 22 b7 05 01
        E 22 b7 05 00
        E 22 b7 05 00
        E 22 b7 05 00
        E 22 b7 05 00
        E 22 b7 05 00
        E 22 b7 05 00
        E 22 b7 05 00
        E 22 b7 05 00
        E 22 b7 05 00
        E 22 b7 05 01
        E 22 b7 05 01
        E 22 b7 05 02
        E 22 b7 05 02
        E 22 b7 05 03
        E 22 b7 05 03
        E 22 b7 05 04
        E 22 b7 05 05
        E 22 b7 05 06
        E 22 b7 05 07
        E 22 b7 05 08
        E 22 b7 05 09
        E 22 b7 05 0a
        E 22 b7 05 0b
        E 22 b7 05 0c
        E 22 b7 05 0e
        E 22 b7 05 0f
        E 22 b7 05 10
        E 22 b7 05 12
        E 22 b7 05 13
        E 22 b7 05 15
        E 22 b7 05 16
        E 22 b7 05 18
        E 22 b7 05 19
        E 22 b7 05 1b
        E 22 b7 05 1c
        E 22 b7 05 1e
        E 22 b7 05 20
        E 22 b7 05 20
        E 22 b7 05 21
        E 22 b7 05 23
        E 22 b7 05 24
        E 22 b7 05 26
        E 22 b7 05 27
        E 22 b7 05 29
        E 22 b7 05 2a
        E 22 b7 05 2c
        E 22 b7 05 2d
        E 22 b7 05 2f
        E 22 b7 05 30
        E 22 b7 05 31
        E 22 b7 05 33
        E 22 b7 05 34
        E 22 b7 05 35
        E 22 b7 05 36
        E 22 b7 05 37
        E 22 b7 05 38
        E 22 b7 05 39
        E 22 b7 05 3a
        E 22 b7 05 3b
        E 22 b7 05 3c
        E 22 b7 05 3c
        E 22 b7 05 3d
        E 22 b7 05 3d
        E 22 b7 05 3e
        E 22 b7 05 3e
        E 22 b7 05 3f
        E 22 b7 05 3f
        E 22 b7 05 3f
        E 22 b7 05 3f
        E 22 b7 05 3f
        E 22 b7 05 3f
        E 22 b7 05 3f
        E 22 b7 05 3f
        E 22 b7 05 3f
        E 22 b7 05 3e
        E 22 b7 05 3e
        E 22 b7 05 3d
        E 22 b7 05 3d
        E 22 b7 05 3c
        E 22 b7 05 3b
        E 22 b7 05 3a
        E 22 b7 05 3a
        E 22 b7 05 39
        E 22 b7 05 38
        E 22 b7 05 37
        E 22 b7 05 36
        E 22 b7 05 34
        E 22 b7 05 33
        E 22 b7 05 32
        E 22 b7 05 31
        E 22 b7 05 2f
        E 22 b7 05 2e
        E 22 b7 05 2c
        E 22 b7 05 2b
        E 22 b7 05 2a
        E 22 b7 05 28
        E 22 b7 05 27
        E 22 b7 05 25
        E 22 b7 05 23
        E 22 b7 05 22
        E 22 b7 05 20
        E 22 b7 05 1f
        E 22 b7 05 1d
        E 22 b7 05 1c
        E 22 b7 05 1a
        E 22 b7 05 18
        E 22 b7 05 17
        E 22 b7 05 15
        E 22 b7 05 14
        E 22 b7 05 13
        E 22 b7 05 11
        E 22 b7 05 10
        E 22 b7 05 0e
        E 22 b7 05 0d
        E 22 b7 05 0c
        E 22 b7 05 0b
        E 22 b7 05 09
        E 22 b7 05 08
        E 22 b7 05 07
        E 22 b7 05 06
        E 22 b7 05 05
        E 22 b7 05 05
        E 22 b7 05 04
        E 22 b7 05 03
        E 22 b7 05 02
        E 22 b7 05 02
        E 22 b7 05 01
        E 22 b7 05 01
        E 22 b7 05 00
        E 22 b7 05 00
        E 22 b7 05 00
        E 22 b7 05 00
        E 22 b7 05 00
        E 22 b7 05 00
        E 22 b7 05 00
        E 22 b7 05 00
        E 22 b7 05 00
        E 22 b7 05 01
        E 22 b7 05 01
        E 22 b7 05 02
        E 22 b7 05 02
        E 22 b7 05 03
        E 22 b7 05 03
        E 22 b7 05 04
        E 22 b7 05 05
        E 22 b7 05 06
        E 22 b7 05 07
        E 22 b7 05 08
        E 22 b7 05 09
        E 22 b7 05 0a
        E 22 b7 05 0b
        E 22 b7 05 0c
        E 22 b7 05 0e
        E 22 b7 05 0f
        E 22 b7 05 10
        E 22 b7 05 12
        E 22 b7 05 13
        E 22 b7 05 15
        E 22 b7 05 16
        E 22 b7 05 18
        E 22 b7 05 19
        E 22 b7 05 1b
        E 22 b7 05 1c
        E 22 b7 05 1e
        E 22 b7 05 20
        E 45 b7 05 2c
        E 45 b7 05 2e
        E 45 b7 05 31
        E 45 b7 05 33
        E 45 b7 05 35
        E 45 b7 05 37
        E 45 b7 05 39
        E 45 b7 05 3b
        E 45 b7 05 3d
        E 45 b7 05 3f
        E 45 b7 05 41
        E 45 b7 05 43
        E 45 b7 05 45
        E 45 b7 05 47
        E 45 b7 05 48
        E 45 b7 05 4a
        E 45 b7 05 4c
        E 45 b7 05 4d
        E 45 b7 05 4f
        E 45 b7 05 50
        E 45 b7 05 51
        E 45 b7 05 52
        E 45 b7 05 54
        E 45 b7 05 54
        E 45 b7 05 55
        E 45 b7 05 56
        E 45 b7 05 56
        E 45 b7 05 57
        E 45 b7 05 58
        E 45 b7 05 58
        E 45 b7 05 58
        E 45 b7 05 58
        E 45 b7 05 58
        E 45 b7 05 58
        E 45 b7 05 58
        E 45 b7 05 58
        E 45 b7 05 58
        E 45 b7 05 57
        E 45 b7 05 56
        E 45 b7 05 56
        E 45 b7 05 55
        E 45 b7 05 54
        E 45 b7 05 53
        E 45 b7 05 51
        E 45 b7 05 51
        E 45 b7 05 4f
        E 45 b7 05 4e
        E 45 b7 05 4d
        E 45 b7 05 4b
        E 45 b7 05 49
        E 45 b7 05 48
        E 45 b7 05 46
        E 45 b7 05 44
        E 45 b7 05 42
        E 45 b7 05 40
        E 45 b7 05 3e
        E 45 b7 05 3c
        E 45 b7 05 3a
        E 45 b7 05 38
        E 45 b7 05 36
        E 45 b7 05 33
        E 45 b7 05 31
        E 45 b7 05 2f
        E 45 b7 05 2d
        E 45 b7 05 2b
        E 45 b7 05 29
        E 45 b7 05 27
        E 45 b7 05 25
        E 45 b7 05 22
        E 45 b7 05 20
        E 45 b7 05 1e
        E 45 b7 05 1c
        E 45 b7 05 1a
        E 45 b7 05 18
        E 45 b7 05 16
        E 45 b7 05 14
        E 45 b7 05 12
        E 45 b7 05 10
        E 45 b7 05 0f
        E 45 b7 05 0d
        E 45 b7 05 0b
        E 45 b7 05 0a
        E 45 b7 05 09
        E 45 b7 05 07
        E 45 b7 05 07
        E 45 b7 05 05
        E 45 b7 05 04
        E 45 b7 05 03
        E 45 b7 05 02
        E 45 b7 05 02
        E 45 b7 05 01
        E 45 b7 05 00
        E 45 b7 05 00
        E 45 b7 05 00
        E 45 b7 05 00
        E 45 b7 05 00
        E 45 b7 05 00
        E 45 b7 05 00
        E 45 b7 05 00
        E 45 b7 05 00
        E 45 b7 05 01
        E 45 b7 05 02
        E 45 b7 05 02
        E 45 b7 05 03
        E 45 b7 05 04
        E 45 b7 05 04
        E 45 b7 05 06
        E 45 b7 05 07
        E 45 b7 05 08
        E 45 b7 05 09
        E 45 b7 05 0b
        E 45 b7 05 0c
        E 45 b7 05 0e
        E 45 b7 05 10
        E 45 b7 05 11
        E 45 b7 05 13
        E 45 b7 05 15
        E 45 b7 05 17
        E 45 b7 05 19
        E 45 b7 05 1b
        E 45 b7 05 1d
        E 45 b7 05 1f
        E 45 b7 05 21
        E 45 b7 05 23
        E 45 b7 05 25
        E 45 b7 05 27
        E 45 b7 05 2a
        E 45 b7 05 2c
        E 40 b7 05 33
        E 40 b7 05 35
        E 40 b7 05 37
        E 40 b7 05 3a
        E 40 b7 05 3c
        E 40 b7 05 3f
        E 40 b7 05 41
        E 40 b7 05 44
        E 40 b7 05 46
        E 40 b7 05 48
        E 40 b7 05 4b
        E 40 b7 05 4c
        E 40 b7 05 4f
        E 40 b7 05 51
        E 40 b7 05 53
        E 40 b7 05 54
        E 40 b7 05 57
        E 40 b7 05 58
        E 40 b7 05 5a
        E 40 b7 05 5b
        E 40 b7 05 5d
        E 40 b7 05 5e
        E 40 b7 05 5f
        E 40 b7 05 60
        E 40 b7 05 61
        E 40 b7 05 62
        E 40 b7 05 63
        E 40 b7 05 63
        E 40 b7 05 64
        E 40 b7 05 64
        E 40 b7 05 65
        E 40 b7 05 65
        E 40 b7 05 65
        E 40 b7 05 65
        E 40 b7 05 65
        E 40 b7 05 64
        E 40 b7 05 64
        E 40 b7 05 63
        E 40 b7 05 63
        E 40 b7 05 62
        E 40 b7 05 61
        E 40 b7 05 5f
        E 40 b7 05 5f
        E 40 b7 05 5d
        E 40 b7 05 5c
        E 40 b7 05 5b
        E 40 b7 05 59
        E 40 b7 05 57
        E 40 b7 05 56
        E 40 b7 05 54
        E 40 b7 05 52
        E 40 b7 05 50
        E 40 b7 05 4e
        E 40 b7 05 4c
        E 40 b7 05 49
        E 40 b7 05 47
        E 40 b7 05 45
        E 40 b7 05 43
        E 40 b7 05 40
        E 40 b7 05 3e
        E 40 b7 05 3b
        E 40 b7 05 38
        E 40 b7 05 36
        E 40 b7 05 33
        E 40 b7 05 31
        E 40 b7 05 2f
        E 40 b7 05 2c
        E 40 b7 05 2a
        E 40 b7 05 27
        E 40 b7 05 24
        E 40 b7 05 22
        E 40 b7 05 1f
        E 40 b7 05 1e
        E 40 b7 05 1b
        E 40 b7 05 19
        E 40 b7 05 17
        E 40 b7 05 15
        E 40 b7 05 13
        E 40 b7 05 11
        E 40 b7 05 0f
        E 40 b7 05 0d
        E 40 b7 05 0b
        E 40 b7 05 0a
        E 40 b7 05 08
        E 40 b7 05 07
        E 40 b7 05 06
        E 40 b7 05 05
        E 40 b7 05 03
        E 40 b7 05 03
        E 40 b7 05 02
        E 40 b7 05 01
        E 40 b7 05 00
        E 40 b7 05 00
        E 40 b7 05 00
        E 40 b7 05 00
        E 40 b7 05 00
        E 40 b7 05 00
        E 40 b7 05 00
        E 40 b7 05 00
        E 40 b7 05 00
        E 40 b7 05 01
        E 40 b7 05 02
        E 40 b7 05 03
        E 40 b7 05 03
        E 40 b7 05 04
        E 40 b7 05 05
        E 40 b7 05 07
        E 40 b7 05 07
        E 40 b7 05 09
        E 40 b7 05 0b
        E 40 b7 05 0c
        E 40 b7 05 0e
        E 40 b7 05 10
        E 40 b7 05 12
        E 40 b7 05 14
        E 40 b7 05 16
        E 40 b7 05 18
        E 40 b7 05 1a
        E 40 b7 05 1c
        E 40 b7 05 1f
        E 40 b7 05 21
        E 40 b7 05 24
        E 40 b7 05 26
        E 40 b7 05 28
        E 40 b7 05 2b
        E 40 b7 05 2d
        E 40 b7 05 2f
        E 40 b7 05 33
        E 45 b7 05 06
        E 45 b7 05 06
        E 45 b7 05 07
        E 45 b7 05 07
        E 45 b7 05 07
        E 45 b7 05 07
        E 45 b7 05 08
        E 45 b7 05 08
        E 45 b7 05 08
        E 45 b7 05 09
        E 45 b7 05 09
        E 45 b7 05 09
        E 45 b7 05 09
        E 45 b7 05 0a
        E 45 b7 05 0a
        E 45 b7 05 0a
        E 45 b7 05 0a
        E 45 b7 05 0b
        E 45 b7 05 0b
        E 45 b7 05 0b
        E 45 b7 05 0b
        E 45 b7 05 0b
        E 45 b7 05 0c
        E 45 b7 05 0c
        E 45 b7 05 0c
        E 45 b7 05 0c
        E 45 b7 05 0c
        E 45 b7 05 0c
        E 45 b7 05 0c
        E 45 b7 05 0c
        E 45 b7 05 0c
        E 45 b7 05 0c
        E 45 b7 05 0c
        E 45 b7 05 0c
        E 45 b7 05 0c
        E 45 b7 05 0c
        E 45 b7 05 0c
        E 45 b7 05 0c
        E 45 b7 05 0c
        E 45 b7 05 0c
        E 45 b7 05 0c
        E 45 b7 05 0c
        E 45 b7 05 0b
        E 45 b7 05 0b
        E 45 b7 05 0b
        E 45 b7 05 0b
        E 45 b7 05 0b
        E 45 b7 05 0b
        E 45 b7 05 0a
        E 45 b7 05 0a
        E 45 b7 05 0a
        E 45 b7 05 0a
        E 45 b7 05 09
        E 45 b7 05 09
        E 45 b7 05 09
        E 45 b7 05 08
        E 45 b7 05 08
        E 45 b7 05 08
        E 45 b7 05 08
        E 45 b7 05 07
        E 45 b7 05 07
        E 45 b7 05 07
        E 45 b7 05 06
        E 45 b7 05 06
        E 45 b7 05 06
        E 45 b7 05 05
        E 45 b7 05 05
        E 45 b7 05 05
        E 45 b7 05 04
        E 45 b7 05 04
        E 45 b7 05 04
        E 45 b7 05 04
        E 45 b7 05 03
        E 45 b7 05 03
        E 45 b7 05 03
        E 45 b7 05 02
        E 45 b7 05 02
        E 45 b7 05 02
        E 45 b7 05 02
        E 45 b7 05 01
        E 45 b7 05 01
        E 45 b7 05 01
        E 45 b7 05 01
        E 45 b7 05 01
        E 45 b7 05 01
        E 45 b7 05 00
        E 45 b7 05 00
        E 45 b7 05 00
        E 45 b7 05 00
        E 45 b7 05 00
        E 45 b7 05 00
        E 45 b7 05 00
        E 45 b7 05 00
        E 45 b7 05 00
        E 45 b7 05 00
        E 45 b7 05 00
        E 45 b7 05 00
        E 45 b7 05 00
        E 45 b7 05 00
        E 45 b7 05 00
        E 45 b7 05 00
        E 45 b7 05 00
        E 45 b7 05 00
        E 45 b7 05 00
        E 45 b7 05 00
        E 45 b7 05 00
        E 45 b7 05 00
        E 45 b7 05 01
        E 45 b7 05 01
        E 45 b7 05 01
        E 45 b7 05 01
        E 45 b7 05 01
        E 45 b7 05 02
        E 45 b7 05 02
        E 45 b7 05 02
        E 45 b7 05 02
        E 45 b7 05 03
        E 45 b7 05 03
        E 45 b7 05 03
        E 45 b7 05 03
        E 45 b7 05 04
        E 45 b7 05 04
        E 45 b7 05 04
        E 45 b7 05 05
        E 45 b7 05 05
        E 45 b7 05 05
        E 45 b7 05 06
        E 45 b7 05 06
        E 40 b7 05 19
        E 40 b7 05 1a
        E 40 b7 05 1c
        E 40 b7 05 1d
        E 40 b7 05 1e
        E 40 b7 05 1f
        E 40 b7 05 20
        E 40 b7 05 22
        E 40 b7 05 23
        E 40 b7 05 24
        E 40 b7 05 25
        E 40 b7 05 26
        E 40 b7 05 27
        E 40 b7 05 28
        E 40 b7 05 29
        E 40 b7 05 2a
        E 40 b7 05 2b
        E 40 b7 05 2c
        E 40 b7 05 2d
        E 40 b7 05 2e
        E 40 b7 05 2e
        E 40 b7 05 2f
        E 40 b7 05 30
        E 40 b7 05 30
        E 40 b7 05 30
        E 40 b7 05 31
        E 40 b7 05 31
        E 40 b7 05 32
        E 40 b7 05 32
        E 40 b7 05 32
        E 40 b7 05 32
        E 40 b7 05 32
        E 40 b7 05 32
        E 40 b7 05 32
        E 40 b7 05 32
        E 40 b7 05 32
        E 40 b7 05 32
        E 40 b7 05 32
        E 40 b7 05 31
        E 40 b7 05 31
        E 40 b7 05 30
        E 40 b7 05 30
        E 40 b7 05 2f
        E 40 b7 05 2e
        E 40 b7 05 2e
        E 40 b7 05 2d
        E 40 b7 05 2c
        E 40 b7 05 2c
        E 40 b7 05 2b
        E 40 b7 05 2a
        E 40 b7 05 29
        E 40 b7 05 28
        E 40 b7 05 27
        E 40 b7 05 26
        E 40 b7 05 24
        E 40 b7 05 23
        E 40 b7 05 22
        E 40 b7 05 21
        E 40 b7 05 20
        E 40 b7 05 1f
        E 40 b7 05 1d
        E 40 b7 05 1c
        E 40 b7 05 1b
        E 40 b7 05 1a
        E 40 b7 05 18
        E 40 b7 05 17
        E 40 b7 05 16
        E 40 b7 05 15
        E 40 b7 05 13
        E 40 b7 05 12
        E 40 b7 05 11
        E 40 b7 05 10
        E 40 b7 05 0f
        E 40 b7 05 0e
        E 40 b7 05 0c
        E 40 b7 05 0b
        E 40 b7 05 0a
        E 40 b7 05 09
        E 40 b7 05 08
        E 40 b7 05 07
        E 40 b7 05 06
        E 40 b7 05 06
        E 40 b7 05 05
        E 40 b7 05 04
        E 40 b7 05 04
        E 40 b7 05 03
        E 40 b7 05 02
        E 40 b7 05 02
        E 40 b7 05 01
        E 40 b7 05 01
        E 40 b7 05 00
        E 40 b7 05 00
        E 40 b7 05 00
        E 40 b7 05 00
        E 40 b7 05 00
        E 40 b7 05 00
        E 40 b7 05 00
        E 40 b7 05 00
        E 40 b7 05 00
        E 40 b7 05 00
        E 40 b7 05 00
        E 40 b7 05 01
        E 40 b7 05 01
        E 40 b7 05 02
        E 40 b7 05 02
        E 40 b7 05 02
        E 40 b7 05 03
        E 40 b7 05 04
        E 40 b7 05 04
        E 40 b7 05 05
        E 40 b7 05 06
        E 40 b7 05 07
        E 40 b7 05 08
        E 40 b7 05 09
        E 40 b7 05 0a
        E 40 b7 05 0b
        E 40 b7 05 0c
        E 40 b7 05 0d
        E 40 b7 05 0e
        E 40 b7 05 0f
        E 40 b7 05 10
        E 40 b7 05 12
        E 40 b7 05 13
        E 40 b7 05 14
        E 40 b7 05 15
        E 40 b7 05 16
        E 40 b7 05 18
        E 40 b7 05 19
        E 22 b7 05 2c
        E 22 b7 05 2e
        E 22 b7 05 31
        E 22 b7 05 33
        E 22 b7 05 35
        E 22 b7 05 37
        E 22 b7 05 39
        E 22 b7 05 3b
        E 22 b7 05 3d
        E 22 b7 05 3f
        E 22 b7 05 41
        E 22 b7 05 43
        E 22 b7 05 45
        E 22 b7 05 47
        E 22 b7 05 48
        E 22 b7 05 4a
        E 22 b7 05 4c
        E 22 b7 05 4d
        E 22 b7 05 4f
        E 22 b7 05 50
        E 22 b7 05 51
        E 22 b7 05 52
        E 22 b7 05 54
        E 22 b7 05 54
        E 22 b7 05 55
        E 22 b7 05 56
        E 22 b7 05 56
        E 22 b7 05 57
        E 22 b7 05 58
        E 22 b7 05 58
        E 22 b7 05 58
        E 22 b7 05 58
        E 22 b7 05 58
        E 22 b7 05 58
        E 22 b7 05 58
        E 22 b7 05 58
        E 22 b7 05 58
        E 22 b7 05 57
        E 22 b7 05 56
        E 22 b7 05 56
        E 22 b7 05 55
        E 22 b7 05 54
        E 22 b7 05 53
        E 22 b7 05 51
        E 22 b7 05 51
        E 22 b7 05 4f
        E 22 b7 05 4e
        E 22 b7 05 4d
        E 22 b7 05 4b
        E 22 b7 05 49
        E 22 b7 05 48
        E 22 b7 05 46
        E 22 b7 05 44
        E 22 b7 05 42
        E 22 b7 05 40
        E 22 b7 05 3e
        E 22 b7 05 3c
        E 22 b7 05 3a
        E 22 b7 05 38
        E 22 b7 05 36
        E 22 b7 05 33
        E 22 b7 05 31
        E 22 b7 05 2f
        E 22 b7 05 2d
        E 22 b7 05 2b
        E 22 b7 05 29
        E 22 b7 05 27
        E 22 b7 05 25
        E 22 b7 05 22
        E 22 b7 05 20
        E 22 b7 05 1e
        E 22 b7 05 1c
        E 22 b7 05 1a
        E 22 b7 05 18
        E 22 b7 05 16
        E 22 b7 05 14
        E 22 b7 05 12
        E 22 b7 05 10
        E 22 b7 05 0f
        E 22 b7 05 0d
        E 22 b7 05 0b
        E 22 b7 05 0a
        E 22 b7 05 09
        E 22 b7 05 07
        E 22 b7 05 07
        E 22 b7 05 05
        E 22 b7 05 04
        E 22 b7 05 03
        E 22 b7 05 02
        E 22 b7 05 02
        E 22 b7 05 01
        E 22 b7 05 00
        E 22 b7 05 00
        E 22 b7 05 00
        E 22 b7 05 00
        E 22 b7 05 00
        E 22 b7 05 00
        E 22 b7 05 00
        E 22 b7 05 00
        E 22 b7 05 00
        E 22 b7 05 01
        E 22 b7 05 02
        E 22 b7 05 02
        E 22 b7 05 03
        E 22 b7 05 04
        E 22 b7 05 04
        E 22 b7 05 06
        E 22 b7 05 07
        E 22 b7 05 08
        E 22 b7 05 09
        E 22 b7 05 0b
        E 22 b7 05 0c
        E 22 b7 05 0e
        E 22 b7 05 10
        E 22 b7 05 11
        E 22 b7 05 13
        E 22 b7 05 15
        E 22 b7 05 17
        E 22 b7 05 19
        E 22 b7 05 1b
        E 22 b7 05 1d
        E 22 b7 05 1f
        E 22 b7 05 21
        E 22 b7 05 23
        E 22 b7 05 25
        E 22 b7 05 27
        E 22 b7 05 2a
        E 22 b7 05 2c
        E 36 b7 05 40
        E 36 b7 05 43
        E 36 b7 05 46
        E 36 b7 05 49
        E 36 b7 05 4c
        E 36 b7 05 4f
        E 36 b7 05 52
        E 36 b7 05 55
        E 36 b7 05 58
        E 36 b7 05 5b
        E 36 b7 05 5e
        E 36 b7 05 60
        E 36 b7 05 63
        E 36 b7 05 66
        E 36 b7 05 68
        E 36 b7 05 6a
        E 36 b7 05 6d
        E 36 b7 05 6f
        E 36 b7 05 71
        E 36 b7 05 73
        E 36 b7 05 75
        E 36 b7 05 76
        E 36 b7 05 78
        E 36 b7 05 79
        E 36 b7 05 7a
        E 36 b7 05 7b
        E 36 b7 05 7c
        E 36 b7 05 7d
        E 36 b7 05 7e
        E 36 b7 05 7e
        E 36 b7 05 7f
        E 36 b7 05 7f
        E 36 b7 05 7f
        E 36 b7 05 7f
        E 36 b7 05 7f
        E 36 b7 05 7e
        E 36 b7 05 7e
        E 36 b7 05 7d
        E 36 b7 05 7c
        E 36 b7 05 7b
        E 36 b7 05 7a
        E 36 b7 05 78
        E 36 b7 05 77
        E 36 b7 05 75
        E 36 b7 05 74
        E 36 b7 05 72
        E 36 b7 05 70
        E 36 b7 05 6e
        E 36 b7 05 6c
        E 36 b7 05 69
        E 36 b7 05 67
        E 36 b7 05 64
        E 36 b7 05 62
        E 36 b7 05 5f
        E 36 b7 05 5c
        E 36 b7 05 59
        E 36 b7 05 57
        E 36 b7 05 54
        E 36 b7 05 51
        E 36 b7 05 4e
        E 36 b7 05 4a
        E 36 b7 05 47
        E 36 b7 05 44
        E 36 b7 05 41
        E 36 b7 05 3e
        E 36 b7 05 3b
        E 36 b7 05 38
        E 36 b7 05 35
        E 36 b7 05 31
        E 36 b7 05 2e
        E 36 b7 05 2b
        E 36 b7 05 28
        E 36 b7 05 26
        E 36 b7 05 23
        E 36 b7 05 20
        E 36 b7 05 1d
        E 36 b7 05 1b
        E 36 b7 05 18
        E 36 b7 05 16
        E 36 b7 05 13
        E 36 b7 05 11
        E 36 b7 05 0f
        E 36 b7 05 0d
        E 36 b7 05 0b
        E 36 b7 05 0a
        E 36 b7 05 08
        E 36 b7 05 07
        E 36 b7 05 05
        E 36 b7 05 04
        E 36 b7 05 03
        E 36 b7 05 02
        E 36 b7 05 01
        E 36 b7 05 01
        E 36 b7 05 00
        E 36 b7 05 00
        E 36 b7 05 00
        E 36 b7 05 00
        E 36 b7 05 00
        E 36 b7 05 01
        E 36 b7 05 01
        E 36 b7 05 02
        E 36 b7 05 03
        E 36 b7 05 04
        E 36 b7 05 05
        E 36 b7 05 06
        E 36 b7 05 07
        E 36 b7 05 09
        E 36 b7 05 0a
        E 36 b7 05 0c
        E 36 b7 05 0e
        E 36 b7 05 10
        E 36 b7 05 12
        E 36 b7 05 15
        E 36 b7 05 17
        E 36 b7 05 19
        E 36 b7 05 1c
        E 36 b7 05 1f
        E 36 b7 05 21
        E 36 b7 05 24
        E 36 b7 05 27
        E 36 b7 05 2a
        E 36 b7 05 2d
        E 36 b7 05 30
        E 36 b7 05 33
        E 36 b7 05 36
        E 36 b7 05 39
        E 36 b7 05 3c
        E 36 b7 05 40
        E 4 b7 05 39
        E 4 b7 05 3c
        E 4 b7 05 3f
        E 4 b7 05 41
        E 4 b7 05 44
        E 4 b7 05 47
        E 4 b7 05 49
        E 4 b7 05 4c
        E 4 b7 05 4f
        E 4 b7 05 51
        E 4 b7 05 54
        E 4 b7 05 56
        E 4 b7 05 59
        E 4 b7 05 5b
        E 4 b7 05 5d
        E 4 b7 05 5f
        E 4 b7 05 62
        E 4 b7 05 63
        E 4 b7 05 65
        E 4 b7 05 67
        E 4 b7 05 69
        E 4 b7 05 6a
        E 4 b7 05 6c
        E 4 b7 05 6c
        E 4 b7 05 6d
        E 4 b7 05 6e
        E 4 b7 05 6f
        E 4 b7 05 70
        E 4 b7 05 71
        E 4 b7 05 71
        E 4 b7 05 72
        E 4 b7 05 72
        E 4 b7 05 72
        E 4 b7 05 72
        E 4 b7 05 72
        E 4 b7 05 71
        E 4 b7 05 71
        E 4 b7 05 70
        E 4 b7 05 6f
        E 4 b7 05 6e
        E 4 b7 05 6d
        E 4 b7 05 6c
        E 4 b7 05 6b
        E 4 b7 05 69
        E 4 b7 05 68
        E 4 b7 05 66
        E 4 b7 05 64
        E 4 b7 05 63
        E 4 b7 05 61
        E 4 b7 05 5e
        E 4 b7 05 5c
        E 4 b7 05 5a
        E 4 b7 05 58
        E 4 b7 05 55
        E 4 b7 05 52
        E 4 b7 05 50
        E 4 b7 05 4e
        E 4 b7 05 4b
        E 4 b7 05 48
        E 4 b7 05 46
        E 4 b7 05 42
        E 4 b7 05 3f
        E 4 b7 05 3d
        E 4 b7 05 3a
        E 4 b7 05 37
        E 4 b7 05 35
        E 4 b7 05 32
        E 4 b7 05 2f
        E 4 b7 05 2c
        E 4 b7 05 29
        E 4 b7 05 26
        E 4 b7 05 24
        E 4 b7 05 22
        E 4 b7 05 1f
        E 4 b7 05 1c
        E 4 b7 05 1a
        E 4 b7 05 18
        E 4 b7 05 15
        E 4 b7 05 13
        E 4 b7 05 11
        E 4 b7 05 0f
        E 4 b7 05 0d
        E 4 b7 05 0b
        E 4 b7 05 09
        E 4 b7 05 09
        E 4 b7 05 07
        E 4 b7 05 06
        E 4 b7 05 04
        E 4 b7 05 03
        E 4 b7 05 02
        E 4 b7 05 01
        E 4 b7 05 00
        E 4 b7 05 00
        E 4 b7 05 00
        E 4 b7 05 00
        E 4 b7 05 00
        E 4 b7 05 00
        E 4 b7 05 00
        E 4 b7 05 00
        E 4 b7 05 00
        E 4 b7 05 01
        E 4 b7 05 02
        E 4 b7 05 03
        E 4 b7 05 04
        E 4 b7 05 05
        E 4 b7 05 06
        E 4 b7 05 08
        E 4 b7 05 09
        E 4 b7 05 0a
        E 4 b7 05 0c
        E 4 b7 05 0e
        E 4 b7 05 10
        E 4 b7 05 12
        E 4 b7 05 14
        E 4 b7 05 16
        E 4 b7 05 19
        E 4 b7 05 1b
        E 4 b7 05 1d
        E 4 b7 05 20
        E 4 b7 05 23
        E 4 b7 05 25
        E 4 b7 05 28
        E 4 b7 05 2b
        E 4 b7 05 2d
        E 4 b7 05 30
        E 4 b7 05 33
        E 4 b7 05 36
        E 4 b7 05 39
        E 18 b7 05 40
        E 18 b7 05 43
        E 18 b7 05 46
        E 18 b7 05 49
        E 18 b7 05 4c
        E 18 b7 05 4f
        E 18 b7 05 52
        E 18 b7 05 55
        E 18 b7 05 58
        E 18 b7 05 5b
        E 18 b7 05 5e
        E 18 b7 05 60
        E 18 b7 05 63
        E 18 b7 05 66
        E 18 b7 05 68
        E 18 b7 05 6a
        E 18 b7 05 6d
        E 18 b7 05 6f
        E 18 b7 05 71
        E 18 b7 05 73
        E 18 b7 05 75
        E 18 b7 05 76
        E 18 b7 05 78
        E 18 b7 05 79
        E 18 b7 05 7a
        E 18 b7 05 7b
        E 18 b7 05 7c
        E 18 b7 05 7d
        E 18 b7 05 7e
        E 18 b7 05 7e
        E 18 b7 05 7f
        E 18 b7 05 7f
        E 18 b7 05 7f
        E 18 b7 05 7f
        E 18 b7 05 7f
        E 18 b7 05 7e
        E 18 b7 05 7e
        E 18 b7 05 7d
        E 18 b7 05 7c
        E 18 b7 05 7b
        E 18 b7 05 7a
        E 18 b7 05 78
        E 18 b7 05 77
        E 18 b7 05 75
        E 18 b7 05 74
        E 18 b7 05 72
        E 18 b7 05 70
        E 18 b7 05 6e
        E 18 b7 05 6c
        E 18 b7 05 69
        E 18 b7 05 67
        E 18 b7 05 64
        E 18 b7 05 62
        E 18 b7 05 5f
        E 18 b7 05 5c
        E 18 b7 05 59
        E 18 b7 05 57
        E 18 b7 05 54
        E 18 b7 05 51
        E 18 b7 05 4e
        E 18 b7 05 4a
        E 18 b7 05 47
        E 18 b7 05 44
        E 18 b7 05 41
        E 18 b7 05 3e
        E 18 b7 05 3b
        E 18 b7 05 38
        E 18 b7 05 35
        E 18 b7 05 31
        E 18 b7 05 2e
        E 18 b7 05 2b
        E 18 b7 05 28
        E 18 b7 05 26
        E 18 b7 05 23
        E 18 b7 05 20
        E 18 b7 05 1d
        E 18 b7 05 1b
        E 18 b7 05 18
        E 18 b7 05 16
        E 18 b7 05 13
        E 18 b7 05 11
        E 18 b7 05 0f
        E 18 b7 05 0d
        E 18 b7 05 0b
        E 18 b7 05 0a
        E 18 b7 05 08
        E 18 b7 05 07
        E 18 b7 05 05
        E 18 b7 05 04
        E 18 b7 05 03
        E 18 b7 05 02
        E 18 b7 05 01
        E 18 b7 05 01
        E 18 b7 05 00
        E 18 b7 05 00
        E 18 b7 05 00
        E 18 b7 05 00
        E 18 b7 05 00
        E 18 b7 05 01
        E 18 b7 05 01
        E 18 b7 05 02
        E 18 b7 05 03
        E 18 b7 05 04
        E 18 b7 05 05
        E 18 b7 05 06
        E 18 b7 05 07
        E 18 b7 05 09
        E 18 b7 05 0a
        E 18 b7 05 0c
        E 18 b7 05 0e
        E 18 b7 05 10
        E 18 b7 05 12
        E 18 b7 05 15
        E 18 b7 05 17
        E 18 b7 05 19
        E 18 b7 05 1c
        E 18 b7 05 1f
        E 18 b7 05 21
        E 18 b7 05 24
        E 18 b7 05 27
        E 18 b7 05 2a
        E 18 b7 05 2d
        E 18 b7 05 30
        E 18 b7 05 33
        E 18 b7 05 36
        E 18 b7 05 39
        E 18 b7 05 3c
        E 18 b7 05 40
        E 31 b7 05 39
        E 31 b7 05 3c
        E 31 b7 05 3f
        E 31 b7 05 41
        E 31 b7 05 44
        E 31 b7 05 47
        E 31 b7 05 49
        E 31 b7 05 4c
        E 31 b7 05 4f
        E 31 b7 05 51
        E 31 b7 05 54
        E 31 b7 05 56
        E 31 b7 05 59
        E 31 b7 05 5b
        E 31 b7 05 5d
        E 31 b7 05 5f
        E 31 b7 05 62
        E 31 b7 05 63
        E 31 b7 05 65
        E 31 b7 05 67
        E 31 b7 05 69
        E 31 b7 05 6a
        E 31 b7 05 6c
        E 31 b7 05 6c
        E 31 b7 05 6d
        E 31 b7 05 6e
        E 31 b7 05 6f
        E 31 b7 05 70
        E 31 b7 05 71
        E 31 b7 05 71
        E 31 b7 05 72
        E 31 b7 05 72
        E 31 b7 05 72
        E 31 b7 05 72
        E 31 b7 05 72
        E 31 b7 05 71
        E 31 b7 05 71
        E 31 b7 05 70
        E 31 b7 05 6f
        E 31 b7 05 6e
        E 31 b7 05 6d
        E 31 b7 05 6c
        E 31 b7 05 6b
        E 31 b7 05 69
        E 31 b7 05 68
        E 31 b7 05 66
        E 31 b7 05 64
        E 31 b7 05 63
        E 31 b7 05 61
        E 31 b7 05 5e
        E 31 b7 05 5c
        E 31 b7 05 5a
        E 31 b7 05 58
        E 31 b7 05 55
        E 31 b7 05 52
        E 31 b7 05 50
        E 31 b7 05 4e
        E 31 b7 05 4b
        E 31 b7 05 48
        E 31 b7 05 46
        E 31 b7 05 42
        E 31 b7 05 3f
        E 31 b7 05 3d
        E 31 b7 05 3a
        E 31 b7 05 37
        E 31 b7 05 35
        E 31 b7 05 32
        E 31 b7 05 2f
        E 31 b7 05 2c
        E 31 b7 05 29
        E 31 b7 05 26
        E 31 b7 05 24
        E 31 b7 05 22
        E 31 b7 05 1f
        E 31 b7 05 1c
        E 31 b7 05 1a
        E 31 b7 05 18
        E 31 b7 05 15
        E 31 b7 05 13
        E 31 b7 05 11
        E 31 b7 05 0f
        E 31 b7 05 0d
        E 31 b7 05 0b
        E 31 b7 05 09
        E 31 b7 05 09
        E 31 b7 05 07
        E 31 b7 05 06
        E 31 b7 05 04
        E 31 b7 05 03
        E 31 b7 05 02
        E 31 b7 05 01
        E 31 b7 05 00
        E 31 b7 05 00
        E 31 b7 05 00
        E 31 b7 05 00
        E 31 b7 05 00
        E 31 b7 05 00
        E 31 b7 05 00
        E 31 b7 05 00
        E 31 b7 05 00
        E 31 b7 05 01
        E 31 b7 05 02
        E 31 b7 05 03
        E 31 b7 05 04
        E 31 b7 05 05
        E 31 b7 05 06
        E 31 b7 05 08
        E 31 b7 05 09
        E 31 b7 05 0a
        E 31 b7 05 0c
        E 31 b7 05 0e
        E 31 b7 05 10
        E 31 b7 05 12
        E 31 b7 05 14
        E 31 b7 05 16
        E 31 b7 05 19
        E 31 b7 05 1b
        E 31 b7 05 1d
        E 31 b7 05 20
        E 31 b7 05 23
        E 31 b7 05 25
        E 31 b7 05 28
        E 31 b7 05 2b
        E 31 b7 05 2d
        E 31 b7 05 30
        E 31 b7 05 33
        E 31 b7 05 36
        E 31 b7 05 39
        E 22 b7 05 20
        E 22 b7 05 21
        E 22 b7 05 23
        E 22 b7 05 24
        E 22 b7 05 26
        E 22 b7 05 27
        E 22 b7 05 29
        E 22 b7 05 2a
        E 22 b7 05 2c
        E 22 b7 05 2d
        E 22 b7 05 2f
        E 22 b7 05 30
        E 22 b7 05 31
        E 22 b7 05 33
        E 22 b7 05 34
        E 22 b7 05 35
        E 22 b7 05 36
        E 22 b7 05 37
        E 22 b7 05 38
        E 22 b7 05 39
        E 22 b7 05 3a
        E 22 b7 05 3b
        E 22 b7 05 3c
        E 22 b7 05 3c
        E 22 b7 05 3d
        E 22 b7 05 3d
        E 22 b7 05 3e
        E 22 b7 05 3e
        E 22 b7 05 3f
        E 22 b7 05 3f
        E 22 b7 05 3f
        E 22 b7 05 3f
        E 22 b7 05 3f
        E 22 b7 05 3f
        E 22 b7 05 3f
        E 22 b7 05 3f
        E 22 b7 05 3f
        E 22 b7 05 3e
        E 22 b7 05 3e
        E 22 b7 05 3d
        E 22 b7 05 3d
        E 22 b7 05 3c
        E 22 b7 05 3b
        E 22 b7 05 3a
        E 22 b7 05 3a
        E 22 b7 05 39
        E 22 b7 05 38
        E 22 b7 05 37
        E 22 b7 05 36
        E 22 b7 05 34
        E 22 b7 05 33
        E 22 b7 05 32
        E 22 b7 05 31
        E 22 b7 05 2f
        E 22 b7 05 2e
        E 22 b7 05 2c
        E 22 b7 05 2b
        E 22 b7 05 2a
        E 22 b7 05 28
        E 22 b7 05 27
        E 22 b7 05 25
        E 22 b7 05 23
        E 22 b7 05 22
        E 22 b7 05 20
        E 22 b7 05 1f
        E 22 b7 05 1d
        E 22 b7 05 1c
        E 22 b7 05 1a
        E 22 b7 05 18
        E 22 b7 05 17
        E 22 b7 05 15
        E 22 b7 05 14
        E 22 b7 05 13
        E 22 b7 05 11
        E 22 b7 05 10
        E 22 b7 05 0e
        E 22 b7 05 0d
        E 22 b7 05 0c
        E 22 b7 05 0b
        E 22 b7 05 09
        E 22 b7 05 08
        E 22 b7 05 07
        E 22 b7 05 06
        E 22 b7 05 05
        E 22 b7 05 05
        E 22 b7 05 04
        E 22 b7 05 03
        E 22 b7 05 02
        E 22 b7 05 02
        E 22 b7 05 01
        E 22 b7 05 01
        E 22 b7 05 00
        E 22 b7 05 00
        E 22 b7 05 00
        E 22 b7 05 00
        E 22 b7 05 00
        E 22 b7 05 00
        E 22 b7 05 00
        E 22 b7 05 00
        E 22 b7 05 00
        E 22 b7 05 01
        E 22 b7 05 01
        E 22 b7 05 02
        E 22 b7 05 02
        E 22 b7 05 03
        E 22 b7 05 03
        E 22 b7 05 04
        E 22 b7 05 05
        E 22 b7 05 06
        E 22 b7 05 07
        E 22 b7 05 08
        E 22 b7 05 09
        E 22 b7 05 0a
        E 22 b7 05 0b
        E 22 b7 05 0c
        E 22 b7 05 0e
        E 22 b7 05 0f
        E 22 b7 05 10
        E 22 b7 05 12
        E 22 b7 05 13
        E 22 b7 05 15
        E 22 b7 05 16
        E 22 b7 05 18
        E 22 b7 05 19
        E 22 b7 05 1b
        E 22 b7 05 1c
        E 22 b7 05 1e
        E 22 b7 05 20
        E 22 b7 05 20
        E 22 b7 05 21
        E 22 b7 05 23
        E 22 b7 05 24
        E 22 b7 05 26
        E 22 b7 05 27
        E 22 b7 05 29
        E 22 b7 05 2a
        E 22 b7 05 2c
        E 22 b7 05 2d
        E 22 b7 05 2f
        E 22 b7 05 30
        E 22 b7 05 31
        E 22 b7 05 33
        E 22 b7 05 34
        E 22 b7 05 35
        E 22 b7 05 36
        E 22 b7 05 37
        E 22 b7 05 38
        E 22 b7 05 39
        E 22 b7 05 3a
        E 22 b7 05 3b
        E 22 b7 05 3c
        E 22 b7 05 3c
        E 22 b7 05 3d
        E 22 b7 05 3d
        E 22 b7 05 3e
        E 22 b7 05 3e
        E 22 b7 05 3f
        E 22 b7 05 3f
        E 22 b7 05 3f
        E 22 b7 05 3f
        E 22 b7 05 3f
        E 22 b7 05 3f
        E 22 b7 05 3f
        E 22 b7 05 3f
        E 22 b7 05 3f
        E 22 b7 05 3e
        E 22 b7 05 3e
        E 22 b7 05 3d
        E 22 b7 05 3d
        E 22 b7 05 3c
        E 22 b7 05 3b
        E 22 b7 05 3a
        E 22 b7 05 3a
        E 22 b7 05 39
        E 22 b7 05 38
        E 22 b7 05 37
        E 22 b7 05 36
        E 22 b7 05 34
        E 22 b7 05 33
        E 22 b7 05 32
        E 22 b7 05 31
        E 22 b7 05 2f
        E 22 b7 05 2e
        E 22 b7 05 2c
        E 22 b7 05 2b
        E 22 b7 05 2a
        E 22 b7 05 28
        E 22 b7 05 27
        E 22 b7 05 25
        E 22 b7 05 23
        E 22 b7 05 22
        E 22 b7 05 20
        E 22 b7 05 1f
        E 22 b7 05 1d
        E 22 b7 05 1c
        E 22 b7 05 1a
        E 22 b7 05 18
        E 22 b7 05 17
        E 22 b7 05 15
        E 22 b7 05 14
        E 22 b7 05 13
        E 22 b7 05 11
        E 22 b7 05 10
        E 22 b7 05 0e
        E 22 b7 05 0d
        E 22 b7 05 0c
        E 22 b7 05 0b
        E 22 b7 05 09
        E 22 b7 05 08
        E 22 b7 05 07
        E 22 b7 05 06
        E 22 b7 05 05
        E 22 b7 05 05
        E 22 b7 05 04
        E 22 b7 05 03
        E 22 b7 05 02
        E 22 b7 05 02
        E 22 b7 05 01
        E 22 b7 05 01
        E 22 b7 05 00
        E 22 b7 05 00
        E 22 b7 05 00
        E 22 b7 05 00
        E 22 b7 05 00
        E 22 b7 05 00
        E 22 b7 05 00
        E 22 b7 05 00
        E 22 b7 05 00
        E 22 b7 05 01
        E 22 b7 05 01
        E 22 b7 05 02
        E 22 b7 05 02
        E 22 b7 05 03
        E 22 b7 05 03
        E 22 b7 05 04
        E 22 b7 05 05
        E 22 b7 05 06
        E 22 b7 05 07
        E 22 b7 05 08
        E 22 b7 05 09
        E 22 b7 05 0a
        E 22 b7 05 0b
        E 22 b7 05 0c
        E 22 b7 05 0e
        E 22 b7 05 0f
        E 22 b7 05 10
        E 22 b7 05 12
        E 22 b7 05 13
        E 22 b7 05 15
        E 22 b7 05 16
        E 22 b7 05 18
        E 22 b7 05 19
        E 22 b7 05 1b
        E 22 b7 05 1c
        E 22 b7 05 1e
        E 22 b7 05 20
        E 45 b7 05 2c
        E 45 b7 05 2e
        E 45 b7 05 31
        E 45 b7 05 33
        E 45 b7 05 35
        E 45 b7 05 37
        E 45 b7 05 39
        E 45 b7 05 3b
        E 45 b7 05 3d
        E 45 b7 05 3f
        E 45 b7 05 41
        E 45 b7 05 43
        E 45 b7 05 45
        E 45 b7 05 47
        E 45 b7 05 48
        E 45 b7 05 4a
        E 45 b7 05 4c
        E 45 b7 05 4d
        E 45 b7 05 4f
        E 45 b7 05 50
        E 45 b7 05 51
        E 45 b7 05 52
        E 45 b7 05 54
        E 45 b7 05 54
        E 45 b7 05 55
        E 45 b7 05 56
        E 45 b7 05 56
        E 45 b7 05 57
        E 45 b7 05 58
        E 45 b7 05 58
        E 45 b7 05 58
        E 45 b7 05 58
        E 45 b7 05 58
        E 45 b7 05 58
        E 45 b7 05 58
        E 45 b7 05 58
        E 45 b7 05 58
        E 45 b7 05 57
        E 45 b7 05 56
        E 45 b7 05 56
        E 45 b7 05 55
        E 45 b7 05 54
        E 45 b7 05 53
        E 45 b7 05 51
        E 45 b7 05 51
        E 45 b7 05 4f
        E 45 b7 05 4e
        E 45 b7 05 4d
        E 45 b7 05 4b
        E 45 b7 05 49
        E 45 b7 05 48
        E 45 b7 05 46
        E 45 b7 05 44
        E 45 b7 05 42
        E 45 b7 05 40
        E 45 b7 05 3e
        E 45 b7 05 3c
        E 45 b7 05 3a
        E 45 b7 05 38
        E 45 b7 05 36
        E 45 b7 05 33
        E 45 b7 05 31
        E 45 b7 05 2f
        E 45 b7 05 2d
        E 45 b7 05 2b
        E 45 b7 05 29
        E 45 b7 05 27
        E 45 b7 05 25
        E 45 b7 05 22
        E 45 b7 05 20
        E 45 b7 05 1e
        E 45 b7 05 1c
        E 45 b7 05 1a
        E 45 b7 05 18
        E 45 b7 05 16
        E 45 b7 05 14
        E 45 b7 05 12
        E 45 b7 05 10
        E 45 b7 05 0f
        E 45 b7 05 0d
        E 45 b7 05 0b
        E 45 b7 05 0a
        E 45 b7 05 09
        E 45 b7 05 07
        E 45 b7 05 07
        E 45 b7 05 05
        E 45 b7 05 04
        E 45 b7 05 03
        E 45 b7 05 02
        E 45 b7 05 02
        E 45 b7 05 01
        E 45 b7 05 00
        E 45 b7 05 00
        E 45 b7 05 00
        E 45 b7 05 00
        E 45 b7 05 00
        E 45 b7 05 00
        E 45 b7 05 00
        E 45 b7 05 00
        E 45 b7 05 00
        E 45 b7 05 01
        E 45 b7 05 02
        E 45 b7 05 02
        E 45 b7 05 03
        E 45 b7 05 04
        E 45 b7 05 04
        E 45 b7 05 06
        E 45 b7 05 07
        E 45 b7 05 08
        E 45 b7 05 09
        E 45 b7 05 0b
        E 45 b7 05 0c
        E 45 b7 05 0e
        E 45 b7 05 10
        E 45 b7 05 11
        E 45 b7 05 13
        E 45 b7 05 15
        E 45 b7 05 17
        E 45 b7 05 19
        E 45 b7 05 1b
        E 45 b7 05 1d
        E 45 b7 05 1f
        E 45 b7 05 21
        E 45 b7 05 23
        E 45 b7 05 25
        E 45 b7 05 27
        E 45 b7 05 2a
        E 45 b7 05 2c
        E 40 b7 05 33
        E 40 b7 05 35
        E 40 b7 05 37
        E 40 b7 05 3a
        E 40 b7 05 3c
        E 40 b7 05 3f
        E 40 b7 05 41
        E 40 b7 05 44
        E 40 b7 05 46
        E 40 b7 05 48
        E 40 b7 05 4b
        E 40 b7 05 4c
        E 40 b7 05 4f
        E 40 b7 05 51
        E 40 b7 05 53
        E 40 b7 05 54
        E 40 b7 05 57
        E 40 b7 05 58
        E 40 b7 05 5a
        E 40 b7 05 5b
        E 40 b7 05 5d
        E 40 b7 05 5e
        E 40 b7 05 5f
        E 40 b7 05 60
        E 40 b7 05 61
        E 40 b7 05 62
        E 40 b7 05 63
        E 40 b7 05 63
        E 40 b7 05 64
        E 40 b7 05 64
        E 40 b7 05 65
        E 40 b7 05 65
        E 40 b7 05 65
        E 40 b7 05 65
        E 40 b7 05 65
        E 40 b7 05 64
        E 40 b7 05 64
        E 40 b7 05 63
        E 40 b7 05 63
        E 40 b7 05 62
        E 40 b7 05 61
        E 40 b7 05 5f
        E 40 b7 05 5f
        E 40 b7 05 5d
        E 40 b7 05 5c
        E 40 b7 05 5b
        E 40 b7 05 59
        E 40 b7 05 57
        E 40 b7 05 56
        E 40 b7 05 54
        E 40 b7 05 52
        E 40 b7 05 50
        E 40 b7 05 4e
        E 40 b7 05 4c
        E 40 b7 05 49
        E 40 b7 05 47
        E 40 b7 05 45
        E 40 b7 05 43
        E 40 b7 05 40
        E 40 b7 05 3e
        E 40 b7 05 3b
        E 40 b7 05 38
        E 40 b7 05 36
        E 40 b7 05 33
        E 40 b7 05 31
        E 40 b7 05 2f
        E 40 b7 05 2c
        E 40 b7 05 2a
        E 40 b7 05 27
        E 40 b7 05 24
        E 40 b7 05 22
        E 40 b7 05 1f
        E 40 b7 05 1e
        E 40 b7 05 1b
        E 40 b7 05 19
        E 40 b7 05 17
        E 40 b7 05 15
        E 40 b7 05 13
        E 40 b7 05 11
        E 40 b7 05 0f
        E 40 b7 05 0d
        E 40 b7 05 0b
        E 40 b7 05 0a
        E 40 b7 05 08
        E 40 b7 05 07
        E 40 b7 05 06
        E 40 b7 05 05
        E 40 b7 05 03
        E 40 b7 05 03
        E 40 b7 05 02
        E 40 b7 05 01
        E 40 b7 05 00
        E 40 b7 05 00
        E 40 b7 05 00
        E 40 b7 05 00
        E 40 b7 05 00
        E 40 b7 05 00
        E 40 b7 05 00
        E 40 b7 05 00
        E 40 b7 05 00
        E 40 b7 05 01
        E 40 b7 05 02
        E 40 b7 05 03
        E 40 b7 05 03
        E 40 b7 05 04
        E 40 b7 05 05
        E 40 b7 05 07
        E 40 b7 05 07
        E 40 b7 05 09
        E 40 b7 05 0b
        E 40 b7 05 0c
        E 40 b7 05 0e
        E 40 b7 05 10
        E 40 b7 05 12
        E 40 b7 05 14
        E 40 b7 05 16
        E 40 b7 05 18
        E 40 b7 05 1a
        E 40 b7 05 1c
        E 40 b7 05 1f
        E 40 b7 05 21
        E 40 b7 05 24
        E 40 b7 05 26
        E 40 b7 05 28
        E 40 b7 05 2b
        E 40 b7 05 2d
        E 40 b7 05 2f
        E 40 b7 05 33
        E 45 b7 05 06
        E 45 b7 05 06
        E 45 b7 05 07
        E 45 b7 05 07
        E 45 b7 05 07
        E 45 b7 05 07
        E 45 b7 05 08
        E 45 b7 05 08
        E 45 b7 05 08
        E 45 b7 05 09
        E 45 b7 05 09
        E 45 b7 05 09
        E 45 b7 05 09
        E 45 b7 05 0a
        E 45 b7 05 0a
        E 45 b7 05 0a
        E 45 b7 05 0a
        E 45 b7 05 0b
        E 45 b7 05 0b
        E 45 b7 05 0b
        E 45 b7 05 0b
        E 45 b7 05 0b
        E 45 b7 05 0c
        E 45 b7 05 0c
        E 45 b7 05 0c
        E 45 b7 05 0c
        E 45 b7 05 0c
        E 45 b7 05 0c
        E 45 b7 05 0c
        E 45 b7 05 0c
        E 45 b7 05 0c
        E 45 b7 05 0c
        E 45 b7 05 0c
        E 45 b7 05 0c
        E 45 b7 05 0c
        E 45 b7 05 0c
        E 45 b7 05 0c
        E 45 b7 05 0c
        E 45 b7 05 0c
        E 45 b7 05 0c
        E 45 b7 05 0c
        E 45 b7 05 0c
        E 45 b7 05 0b
        E 45 b7 05 0b
        E 45 b7 05 0b
        E 45 b7 05 0b
        E 45 b7 05 0b
        E 45 b7 05 0b
        E 45 b7 05 0a
        E 45 b7 05 0a
        E 45 b7 05 0a
        E 45 b7 05 0a
        E 45 b7 05 09
        E 45 b7 05 09
        E 45 b7 05 09
        E 45 b7 05 08
        E 45 b7 05 08
        E 45 b7 05 08
        E 45 b7 05 08
        E 45 b7 05 07
        E 45 b7 05 07
        E 45 b7 05 07
        E 45 b7 05 06
        E 45 b7 05 06
        E 45 b7 05 06
        E 45 b7 05 05
        E 45 b7 05 05
        E 45 b7 05 05
        E 45 b7 05 04
        E 45 b7 05 04
        E 45 b7 05 04
        E 45 b7 05 04
        E 45 b7 05 03
        E 45 b7 05 03
        E 45 b7 05 03
        E 45 b7 05 02
        E 45 b7 05 02
        E 45 b7 05 02
        E 45 b7 05 02
        E 45 b7 05 01
        E 45 b7 05 01
        E 45 b7 05 01
        E 45 b7 05 01
        E 45 b7 05 01
        E 45 b7 05 01
        E 45 b7 05 00
        E 45 b7 05 00
        E 45 b7 05 00
        E 45 b7 05 00
        E 45 b7 05 00
        E 45 b7 05 00
        E 45 b7 05 00
        E 45 b7 05 00
        E 45 b7 05 00
        E 45 b7 05 00
        E 45 b7 05 00
        E 45 b7 05 00
        E 45 b7 05 00
        E 45 b7 05 00
        E 45 b7 05 00
        E 45 b7 05 00
        E 45 b7 05 00
        E 45 b7 05 00
        E 45 b7 05 00
        E 45 b7 05 00
        E 45 b7 05 00
        E 45 b7 05 00
        E 45 b7 05 01
        E 45 b7 05 01
        E 45 b7 05 01
        E 45 b7 05 01
        E 45 b7 05 01
        E 45 b7 05 02
        E 45 b7 05 02
        E 45 b7 05 02
        E 45 b7 05 02
        E 45 b7 05 03
        E 45 b7 05 03
        E 45 b7 05 03
        E 45 b7 05 03
        E 45 b7 05 04
        E 45 b7 05 04
        E 45 b7 05 04
        E 45 b7 05 05
        E 45 b7 05 05
        E 45 b7 05 05
        E 45 b7 05 06
        E 45 b7 05 06
        E 40 b7 05 19
        E 40 b7 05 1a
        E 40 b7 05 1c
        E 40 b7 05 1d
        E 40 b7 05 1e
        E 40 b7 05 1f
        E 40 b7 05 20
        E 40 b7 05 22
        E 40 b7 05 23
        E 40 b7 05 24
        E 40 b7 05 25
        E 40 b7 05 26
        E 40 b7 05 27
        E 40 b7 05 28
        E 40 b7 05 29
        E 40 b7 05 2a
        E 40 b7 05 2b
        E 40 b7 05 2c
        E 40 b7 05 2d
        E 40 b7 05 2e
        E 40 b7 05 2e
        E 40 b7 05 2f
        E 40 b7 05 30
        E 40 b7 05 30
        E 40 b7 05 30
        E 40 b7 05 31
        E 40 b7 05 31
        E 40 b7 05 32
        E 40 b7 05 32
        E 40 b7 05 32
        E 40 b7 05 32
        E 40 b7 05 32
        E 40 b7 05 32
        E 40 b7 05 32
        E 40 b7 05 32
        E 40 b7 05 32
        E 40 b7 05 32
        E 40 b7 05 32
        E 40 b7 05 31
        E 40 b7 05 31
        E 40 b7 05 30
        E 40 b7 05 30
        E 40 b7 05 2f
        E 40 b7 05 2e
        E 40 b7 05 2e
        E 40 b7 05 2d
        E 40 b7 05 2c
        E 40 b7 05 2c
        E 40 b7 05 2b
        E 40 b7 05 2a
        E 40 b7 05 29
        E 40 b7 05 28
        E 40 b7 05 27
        E 40 b7 05 26
        E 40 b7 05 24
        E 40 b7 05 23
        E 40 b7 05 22
        E 40 b7 05 21
        E 40 b7 05 20
        E 40 b7 05 1f
        E 40 b7 05 1d
        E 40 b7 05 1c
        E 40 b7 05 1b
        E 40 b7 05 1a
        E 40 b7 05 18
        E 40 b7 05 17
        E 40 b7 05 16
        E 40 b7 05 15
        E 40 b7 05 13
        E 40 b7 05 12
        E 40 b7 05 11
        E 40 b7 05 10
        E 40 b7 05 0f
        E 40 b7 05 0e
        E 40 b7 05 0c
        E 40 b7 05 0b
        E 40 b7 05 0a
        E 40 b7 05 09
        E 40 b7 05 08
        E 40 b7 05 07
        E 40 b7 05 06
        E 40 b7 05 06
        E 40 b7 05 05
        E 40 b7 05 04
        E 40 b7 05 04
        E 40 b7 05 03
        E 40 b7 05 02
        E 40 b7 05 02
        E 40 b7 05 01
        E 40 b7 05 01
        E 40 b7 05 00
        E 40 b7 05 00
        E 40 b7 05 00
        E 40 b7 05 00
        E 40 b7 05 00
        E 40 b7 05 00
        E 40 b7 05 00
        E 40 b7 05 00
        E 40 b7 05 00
        E 40 b7 05 00
        E 40 b7 05 00
        E 40 b7 05 01
        E 40 b7 05 01
        E 40 b7 05 02
        E 40 b7 05 02
        E 40 b7 05 02
        E 40 b7 05 03
        E 40 b7 05 04
        E 40 b7 05 04
        E 40 b7 05 05
        E 40 b7 05 06
        E 40 b7 05 07
        E 40 b7 05 08
        E 40 b7 05 09
        E 40 b7 05 0a
        E 40 b7 05 0b
        E 40 b7 05 0c
        E 40 b7 05 0d
        E 40 b7 05 0e
        E 40 b7 05 0f
        E 40 b7 05 10
        E 40 b7 05 12
        E 40 b7 05 13
        E 40 b7 05 14
        E 40 b7 05 15
        E 40 b7 05 16
        E 40 b7 05 18
        E 40 b7 05 19
        E 22 b7 05 2c
        E 22 b7 05 2e
        E 22 b7 05 31
        E 22 b7 05 33
        E 22 b7 05 35
        E 22 b7 05 37
        E 22 b7 05 39
        E 22 b7 05 3b
        E 22 b7 05 3d
        E 22 b7 05 3f
        E 22 b7 05 41
        E 22 b7 05 43
        E 22 b7 05 45
        E 22 b7 05 47
        E 22 b7 05 48
        E 22 b7 05 4a
        E 22 b7 05 4c
        E 22 b7 05 4d
        E 22 b7 05 4f
        E 22 b7 05 50
        E 22 b7 05 51
        E 22 b7 05 52
        E 22 b7 05 54
        E 22 b7 05 54
        E 22 b7 05 55
        E 22 b7 05 56
        E 22 b7 05 56
        E 22 b7 05 57
        E 22 b7 05 58
        E 22 b7 05 58
        E 22 b7 05 58
        E 22 b7 05 58
        E 22 b7 05 58
        E 22 b7 05 58
        E 22 b7 05 58
        E 22 b7 05 58
        E 22 b7 05 58
        E 22 b7 05 57
        E 22 b7 05 56
        E 22 b7 05 56
        E 22 b7 05 55
        E 22 b7 05 54
        E 22 b7 05 53
        E 22 b7 05 51
        E 22 b7 05 51
        E 22 b7 05 4f
        E 22 b7 05 4e
        E 22 b7 05 4d
        E 22 b7 05 4b
        E 22 b7 05 49
        E 22 b7 05 48
        E 22 b7 05 46
        E 22 b7 05 44
        E 22 b7 05 42
        E 22 b7 05 40
        E 22 b7 05 3e
        E 22 b7 05 3c
        E 22 b7 05 3a
        E 22 b7 05 38
        E 22 b7 05 36
        E 22 b7 05 33
        E 22 b7 05 31
        E 22 b7 05 2f
        E 22 b7 05 2d
        E 22 b7 05 2b
        E 22 b7 05 29
        E 22 b7 05 27
        E 22 b7 05 25
        E 22 b7 05 22
        E 22 b7 05 20
        E 22 b7 05 1e
        E 22 b7 05 1c
        E 22 b7 05 1a
        E 22 b7 05 18
        E 22 b7 05 16
        E 22 b7 05 14
        E 22 b7 05 12
        E 22 b7 05 10
        E 22 b7 05 0f
        E 22 b7 05 0d
        E 22 b7 05 0b
        E 22 b7 05 0a
        E 22 b7 05 09
        E 22 b7 05 07
        E 22 b7 05 07
        E 22 b7 05 05
        E 22 b7 05 04
        E 22 b7 05 03
        E 22 b7 05 02
        E 22 b7 05 02
        E 22 b7 05 01
        E 22 b7 05 00
        E 22 b7 05 00
        E 22 b7 05 00
        E 22 b7 05 00
        E 22 b7 05 00
        E 22 b7 05 00
        E 22 b7 05 00
        E 22 b7 05 00
        E 22 b7 05 00
        E 22 b7 05 01
        E 22 b7 05 02
        E 22 b7 05 02
        E 22 b7 05 03
        E 22 b7 05 04
        E 22 b7 05 04
        E 22 b7 05 06
        E 22 b7 05 07
        E 22 b7 05 08
        E 22 b7 05 09
        E 22 b7 05 0b
        E 22 b7 05 0c
        E 22 b7 05 0e
        E 22 b7 05 10
        E 22 b7 05 11
        E 22 b7 05 13
        E 22 b7 05 15
        E 22 b7 05 17
        E 22 b7 05 19
        E 22 b7 05 1b
        E 22 b7 05 1d
        E 22 b7 05 1f
        E 22 b7 05 21
        E 22 b7 05 23
        E 22 b7 05 25
        E 22 b7 05 27
        E 22 b7 05 2a
        E 22 b7 05 2c
        E 36 b7 05 40
        E 36 b7 05 43
        E 36 b7 05 46
        E 36 b7 05 49
        E 36 b7 05 4c
        E 36 b7 05 4f
        E 36 b7 05 52
        E 36 b7 05 55
        E 36 b7 05 58
        E 36 b7 05 5b
        E 36 b7 05 5e
        E 36 b7 05 60
        E 36 b7 05 63
        E 36 b7 05 66
        E 36 b7 05 68
        E 36 b7 05 6a
        E 36 b7 05 6d
        E 36 b7 05 6f
        E 36 b7 05 71
        E 36 b7 05 73
        E 36 b7 05 75
        E 36 b7 05 76
        E 36 b7 05 78
        E 36 b7 05 79
        E 36 b7 05 7a
        E 36 b7 05 7b
        E 36 b7 05 7c
        E 36 b7 05 7d
        E 36 b7 05 7e
        E 36 b7 05 7e
        E 36 b7 05 7f
        E 36 b7 05 7f
        E 36 b7 05 7f
        E 36 b7 05 7f
        E 36 b7 05 7f
        E 36 b7 05 7e
        E 36 b7 05 7e
        E 36 b7 05 7d
        E 36 b7 05 7c
        E 36 b7 05 7b
        E 36 b7 05 7a
        E 36 b7 05 78
        E 36 b7 05 77
        E 36 b7 05 75
        E 36 b7 05 74
        E 36 b7 05 72
        E 36 b7 05 70
        E 36 b7 05 6e
        E 36 b7 05 6c
        E 36 b7 05 69
        E 36 b7 05 67
        E 36 b7 05 64
        E 36 b7 05 62
        E 36 b7 05 5f
        E 36 b7 05 5c
        E 36 b7 05 59
        E 36 b7 05 57
        E 36 b7 05 54
        E 36 b7 05 51
        E 36 b7 05 4e
        E 36 b7 05 4a
        E 36 b7 05 47
        E 36 b7 05 44
        E 36 b7 05 41
        E 36 b7 05 3e
        E 36 b7 05 3b
        E 36 b7 05 38
        E 36 b7 05 35
        E 36 b7 05 31
        E 36 b7 05 2e
        E 36 b7 05 2b
        E 36 b7 05 28
        E 36 b7 05 26
        E 36 b7 05 23
        E 36 b7 05 20
        E 36 b7 05 1d
        E 36 b7 05 1b
        E 36 b7 05 18
        E 36 b7 05 16
        E 36 b7 05 13
        E 36 b7 05 11
        E 36 b7 05 0f
        E 36 b7 05 0d
        E 36 b7 05 0b
        E 36 b7 05 0a
        E 36 b7 05 08
        E 36 b7 05 07
        E 36 b7 05 05
        E 36 b7 05 04
        E 36 b7 05 03
        E 36 b7 05 02
        E 36 b7 05 01
        E 36 b7 05 01
        E 36 b7 05 00
        E 36 b7 05 00
        E 36 b7 05 00
        E 36 b7 05 00
        E 36 b7 05 00
        E 36 b7 05 01
        E 36 b7 05 01
        E 36 b7 05 02
        E 36 b7 05 03
        E 36 b7 05 04
        E 36 b7 05 05
        E 36 b7 05 06
        E 36 b7 05 07
        E 36 b7 05 09
        E 36 b7 05 0a
        E 36 b7 05 0c
        E 36 b7 05 0e
        E 36 b7 05 10
        E 36 b7 05 12
        E 36 b7 05 15
        E 36 b7 05 17
        E 36 b7 05 19
        E 36 b7 05 1c
        E 36 b7 05 1f
        E 36 b7 05 21
        E 36 b7 05 24
        E 36 b7 05 27
        E 36 b7 05 2a
        E 36 b7 05 2d
        E 36 b7 05 30
        E 36 b7 05 33
        E 36 b7 05 36
        E 36 b7 05 39
        E 36 b7 05 3c
        E 36 b7 05 40
        E 4 b7 05 39
        E 4 b7 05 3c
        E 4 b7 05 3f
        E 4 b7 05 41
        E 4 b7 05 44
        E 4 b7 05 47
        E 4 b7 05 49
        E 4 b7 05 4c
        E 4 b7 05 4f
        E 4 b7 05 51
        E 4 b7 05 54
        E 4 b7 05 56
        E 4 b7 05 59
        E 4 b7 05 5b
        E 4 b7 05 5d
        E 4 b7 05 5f
        E 4 b7 05 62
        E 4 b7 05 63
        E 4 b7 05 65
        E 4 b7 05 67
        E 4 b7 05 69
        E 4 b7 05 6a
        E 4 b7 05 6c
        E 4 b7 05 6c
        E 4 b7 05 6d
        E 4 b7 05 6e
        E 4 b7 05 6f
        E 4 b7 05 70
        E 4 b7 05 71
        E 4 b7 05 71
        E 4 b7 05 72
        E 4 b7 05 72
        E 4 b7 05 72
        E 4 b7 05 72
        E 4 b7 05 72
        E 4 b7 05 71
        E 4 b7 05 71
        E 4 b7 05 70
        E 4 b7 05 6f
        E 4 b7 05 6e
        E 4 b7 05 6d
        E 4 b7 05 6c
        E 4 b7 05 6b
        E 4 b7 05 69
        E 4 b7 05 68
        E 4 b7 05 66
        E 4 b7 05 64
        E 4 b7 05 63
        E 4 b7 05 61
        E 4 b7 05 5e
        E 4 b7 05 5c
        E 4 b7 05 5a
        E 4 b7 05 58
        E 4 b7 05 55
        E 4 b7 05 52
        E 4 b7 05 50
        E 4 b7 05 4e
        E 4 b7 05 4b
        E 4 b7 05 48
        E 4 b7 05 46
        E 4 b7 05 42
        E 4 b7 05 3f
        E 4 b7 05 3d
        E 4 b7 05 3a
        E 4 b7 05 37
        E 4 b7 05 35
        E 4 b7 05 32
        E 4 b7 05 2f
        E 4 b7 05 2c
        E 4 b7 05 29
        E 4 b7 05 26
        E 4 b7 05 24
        E 4 b7 05 22
        E 4 b7 05 1f
        E 4 b7 05 1c
        E 4 b7 05 1a
        E 4 b7 05 18
        E 4 b7 05 15
        E 4 b7 05 13
        E 4 b7 05 11
        E 4 b7 05 0f
        E 4 b7 05 0d
        E 4 b7 05 0b
        E 4 b7 05 09
        E 4 b7 05 09
        E 4 b7 05 07
        E 4 b7 05 06
        E 4 b7 05 04
        E 4 b7 05 03
        E 4 b7 05 02
        E 4 b7 05 01
        E 4 b7 05 00
        E 4 b7 05 00
        E 4 b7 05 00
        E 4 b7 05 00
        E 4 b7 05 00
        E 4 b7 05 00
        E 4 b7 05 00
        E 4 b7 05 00
        E 4 b7 05 00
        E 4 b7 05 01
        E 4 b7 05 02
        E 4 b7 05 03
        E 4 b7 05 04
        E 4 b7 05 05
        E 4 b7 05 06
        E 4 b7 05 08
        E 4 b7 05 09
        E 4 b7 05 0a
        E 4 b7 05 0c
        E 4 b7 05 0e
        E 4 b7 05 10
        E 4 b7 05 12
        E 4 b7 05 14
        E 4 b7 05 16
        E 4 b7 05 19
        E 4 b7 05 1b
        E 4 b7 05 1d
        E 4 b7 05 20
        E 4 b7 05 23
        E 4 b7 05 25
        E 4 b7 05 28
        E 4 b7 05 2b
        E 4 b7 05 2d
        E 4 b7 05 30
        E 4 b7 05 33
        E 4 b7 05 36
        E 4 b7 05 39
        E 18 b7 05 40
        E 18 b7 05 43
        E 18 b7 05 46
        E 18 b7 05 49
        E 18 b7 05 4c
        E 18 b7 05 4f
        E 18 b7 05 52
        E 18 b7 05 55
        E 18 b7 05 58
        E 18 b7 05 5b
        E 18 b7 05 5e
        E 18 b7 05 60
        E 18 b7 05 63
        E 18 b7 05 66
        E 18 b7 05 68
        E 18 b7 05 6a
        E 18 b7 05 6d
        E 18 b7 05 6f
        E 18 b7 05 71
        E 18 b7 05 73
        E 18 b7 05 75
        E 18 b7 05 76
        E 18 b7 05 78
        E 18 b7 05 79
        E 18 b7 05 7a
        E 18 b7 05 7b
        E 18 b7 05 7c
        E 18 b7 05 7d
        E 18 b7 05 7e
        E 18 b7 05 7e
        E 18 b7 05 7f
        E 18 b7 05 7f
        E 18 b7 05 7f
        E 18 b7 05 7f
        E 18 b7 05 7f
        E 18 b7 05 7e
        E 18 b7 05 7e
        E 18 b7 05 7d
        E 18 b7 05 7c
        E 18 b7 05 7b
        E 18 b7 05 7a
        E 18 b7 05 78
        E 18 b7 05 77
        E 18 b7 05 75
        E 18 b7 05 74
        E 18 b7 05 72
        E 18 b7 05 70
        E 18 b7 05 6e
        E 18 b7 05 6c
        E 18 b7 05 69
        E 18 b7 05 67
        E 18 b7 05 64
        E 18 b7 05 62
        E 18 b7 05 5f
        E 18 b7 05 5c
        E 18 b7 05 59
        E 18 b7 05 57
        E 18 b7 05 54
        E 18 b7 05 51
        E 18 b7 05 4e
        E 18 b7 05 4a
        E 18 b7 05 47
        E 18 b7 05 44
        E 18 b7 05 41
        E 18 b7 05 3e
        E 18 b7 05 3b
        E 18 b7 05 38
        E 18 b7 05 35
        E 18 b7 05 31
        E 18 b7 05 2e
        E 18 b7 05 2b
        E 18 b7 05 28
        E 18 b7 05 26
        E 18 b7 05 23
        E 18 b7 05 20
        E 18 b7 05 1d
        E 18 b7 05 1b
        E 18 b7 05 18
        E 18 b7 05 16
        E 18 b7 05 13
        E 18 b7 05 11
        E 18 b7 05 0f
        E 18 b7 05 0d
        E 18 b7 05 0b
        E 18 b7 05 0a
        E 18 b7 05 08
        E 18 b7 05 07
        E 18 b7 05 05
        E 18 b7 05 04
        E 18 b7 05 03
        E 18 b7 05 02
        E 18 b7 05 01
        E 18 b7 05 01
        E 18 b7 05 00
        E 18 b7 05 00
        E 18 b7 05 00
        E 18 b7 05 00
        E 18 b7 05 00
        E 18 b7 05 01
        E 18 b7 05 01
        E 18 b7 05 02
        E 18 b7 05 03
        E 18 b7 05 04
        E 18 b7 05 05
        E 18 b7 05 06
        E 18 b7 05 07
        E 18 b7 05 09
        E 18 b7 05 0a
        E 18 b7 05 0c
        E 18 b7 05 0e
        E 18 b7 05 10
        E 18 b7 05 12
        E 18 b7 05 15
        E 18 b7 05 17
        E 18 b7 05 19
        E 18 b7 05 1c
        E 18 b7 05 1f
        E 18 b7 05 21
        E 18 b7 05 24
        E 18 b7 05 27
        E 18 b7 05 2a
        E 18 b7 05 2d
        E 18 b7 05 30
        E 18 b7 05 33
        E 18 b7 05 36
        E 18 b7 05 39
        E 18 b7 05 3c
        E 18 b7 05 40
        E 31 b7 05 39
        E 31 b7 05 3c
        E 31 b7 05 3f
        E 31 b7 05 41
        E 31 b7 05 44
        E 31 b7 05 47
        E 31 b7 05 49
        E 31 b7 05 4c
        E 31 b7 05 4f
        E 31 b7 05 51
        E 31 b7 05 54
        E 31 b7 05 56
        E 31 b7 05 59
        E 31 b7 05 5b
        E 31 b7 05 5d
        E 31 b7 05 5f
        E 31 b7 05 62
        E 31 b7 05 63
        E 31 b7 05 65
        E 31 b7 05 67
        E 31 b7 05 69
        E 31 b7 05 6a
        E 31 b7 05 6c
        E 31 b7 05 6c
        E 31 b7 05 6d
        E 31 b7 05 6e
        E 31 b7 05 6f
        E 31 b7 05 70
        E 31 b7 05 71
        E 31 b7 05 71
        E 31 b7 05 72
        E 31 b7 05 72
        E 31 b7 05 72
        E 31 b7 05 72
        E 31 b7 05 72
        E 31 b7 05 71
        E 31 b7 05 71
        E 31 b7 05 70
        E 31 b7 05 6f
        E 31 b7 05 6e
        E 31 b7 05 6d
        E 31 b7 05 6c
        E 31 b7 05 6b
        E 31 b7 05 69
        E 31 b7 05 68
        E 31 b7 05 66
        E 31 b7 05 64
        E 31 b7 05 63
        E 31 b7 05 61
        E 31 b7 05 5e
        E 31 b7 05 5c
        E 31 b7 05 5a
        E 31 b7 05 58
        E 31 b7 05 55
        E 31 b7 05 52
        E 31 b7 05 50
        E 31 b7 05 4e
        E 31 b7 05 4b
        E 31 b7 05 48
        E 31 b7 05 46
        E 31 b7 05 42
        E 31 b7 05 3f
        E 31 b7 05 3d
        E 31 b7 05 3a
        E 31 b7 05 37
        E 31 b7 05 35
        E 31 b7 05 32
        E 31 b7 05 2f
        E 31 b7 05 2c
        E 31 b7 05 29
        E 31 b7 05 26
        E 31 b7 05 24
        E 31 b7 05 22
        E 31 b7 05 1f
        E 31 b7 05 1c
        E 31 b7 05 1a
        E 31 b7 05 18
        E 31 b7 05 15
        E 31 b7 05 13
        E 31 b7 05 11
        E 31 b7 05 0f
        E 31 b7 05 0d
        E 31 b7 05 0b
        E 31 b7 05 09
        E 31 b7 05 09
        E 31 b7 05 07
        E 31 b7 05 06
        E 31 b7 05 04
        E 31 b7 05 03
        E 31 b7 05 02
        E 31 b7 05 01
        E 31 b7 05 00
        E 31 b7 05 00
        E 31 b7 05 00
        E 31 b7 05 00
        E 31 b7 05 00
        E 31 b7 05 00
        E 31 b7 05 00
        E 31 b7 05 00
        E 31 b7 05 00
        E 31 b7 05 01
        E 31 b7 05 02
        E 31 b7 05 03
        E 31 b7 05 04
        E 31 b7 05 05
        E 31 b7 05 06
        E 31 b7 05 08
        E 31 b7 05 09
        E 31 b7 05 0a
        E 31 b7 05 0c
        E 31 b7 05 0e
        E 31 b7 05 10
        E 31 b7 05 12
        E 31 b7 05 14
        E 31 b7 05 16
        E 31 b7 05 19
        E 31 b7 05 1b
        E 31 b7 05 1d
        E 31 b7 05 20
        E 31 b7 05 23
        E 31 b7 05 25
        E 31 b7 05 28
        E 31 b7 05 2b
        E 31 b7 05 2d
        E 31 b7 05 30
        E 31 b7 05 33
        E 31 b7 05 36
        E 31 b7 05 39
        E 22 b7 05 20
        E 22 b7 05 21
        E 22 b7 05 23
        E 22 b7 05 24
        E 22 b7 05 26
        E 22 b7 05 27
        E 22 b7 05 29
        E 22 b7 05 2a
        E 22 b7 05 2c
        E 22 b7 05 2d
        E 22 b7 05 2f
        E 22 b7 05 30
        E 22 b7 05 31
        E 22 b7 05 33
        E 22 b7 05 34
        E 22 b7 05 35
        E 22 b7 05 36
        E 22 b7 05 37
        E 22 b7 05 38
        E 22 b7 05 39
        E 22 b7 05 3a
        E 22 b7 05 3b
        E 22 b7 05 3c
        E 22 b7 05 3c
        E 22 b7 05 3d
        E 22 b7 05 3d
        E 22 b7 05 3e
        E 22 b7 05 3e
        E 22 b7 05 3f
        E 22 b7 05 3f
        E 22 b7 05 3f
        E 22 b7 05 3f
        E 22 b7 05 3f
        E 22 b7 05 3f
        E 22 b7 05 3f
        E 22 b7 05 3f
        E 22 b7 05 3f
        E 22 b7 05 3e
        E 22 b7 05 3e
        E 22 b7 05 3d
        E 22 b7 05 3d
        E 22 b7 05 3c
        E 22 b7 05 3b
        E 22 b7 05 3a
        E 22 b7 05 3a
        E 22 b7 05 39
        E 22 b7 05 38
        E 22 b7 05 37
        E 22 b7 05 36
        E 22 b7 05 34
        E 22 b7 05 33
        E 22 b7 05 32
        E 22 b7 05 31
        E 22 b7 05 2f
        E 22 b7 05 2e
        E 22 b7 05 2c
        E 22 b7 05 2b
        E 22 b7 05 2a
        E 22 b7 05 28
        E 22 b7 05 27
        E 22 b7 05 25
        E 22 b7 05 23
        E 22 b7 05 22
        E 22 b7 05 20
        E 22 b7 05 1f
        E 22 b7 05 1d
        E 22 b7 05 1c
        E 22 b7 05 1a
        E 22 b7 05 18
        E 22 b7 05 17
        E 22 b7 05 15
        E 22 b7 05 14
        E 22 b7 05 13
        E 22 b7 05 11
        E 22 b7 05 10
        E 22 b7 05 0e
        E 22 b7 05 0d
        E 22 b7 05 0c
        E 22 b7 05 0b
        E 22 b7 05 09
        E 22 b7 05 08
        E 22 b7 05 07
        E 22 b7 05 06
        E 22 b7 05 05
        E 22 b7 05 05
        E 22 b7 05 04
        E 22 b7 05 03
        E 22 b7 05 02
        E 22 b7 05 02
        E 22 b7 05 01
        E 22 b7 05 01
        E 22 b7 05 00
        E 22 b7 05 00
        E 22 b7 05 00
        E 22 b7 05 00
        E 22 b7 05 00
        E 22 b7 05 00
        E 22 b7 05 00
        E 22 b7 05 00
        E 22 b7 05 00
        E 22 b7 05 01
        E 22 b7 05 01
        E 22 b7 05 02
        E 22 b7 05 02
        E 22 b7 05 03
        E 22 b7 05 03
        E 22 b7 05 04
        E 22 b7 05 05
        E 22 b7 05 06
        E 22 b7 05 07
        E 22 b7 05 08
        E 22 b7 05 09
        E 22 b7 05 0a
        E 22 b7 05 0b
        E 22 b7 05 0c
        E 22 b7 05 0e
        E 22 b7 05 0f
        E 22 b7 05 10
        E 22 b7 05 12
        E 22 b7 05 13
        E 22 b7 05 15
        E 22 b7 05 16
        E 22 b7 05 18
        E 22 b7 05 19
        E 22 b7 05 1b
        E 22 b7 05 1c
        E 22 b7 05 1e
        E 22 b7 05 20
        E 22 b7 05 20
        E 22 b7 05 21
        E 22 b7 05 23
        E 22 b7 05 24
        E 22 b7 05 26
        E 22 b7 05 27
        E 22 b7 05 29
        E 22 b7 05 2a
        E 22 b7 05 2c
        E 22 b7 05 2d
        E 22 b7 05 2f
        E 22 b7 05 30
        E 22 b7 05 31
        E 22 b7 05 33
        E 22 b7 05 34
        E 22 b7 05 35
        E 22 b7 05 36
        E 22 b7 05 37
        E 22 b7 05 38
        E 22 b7 05 39
        E 22 b7 05 3a
        E 22 b7 05 3b
        E 22 b7 05 3c
        E 22 b7 05 3c
        E 22 b7 05 3d
        E 22 b7 05 3d
        E 22 b7 05 3e
        E 22 b7 05 3e
        E 22 b7 05 3f
        E 22 b7 05 3f
        E 22 b7 05 3f
        E 22 b7 05 3f
        E 22 b7 05 3f
        E 22 b7 05 3f
        E 22 b7 05 3f
        E 22 b7 05 3f
        E 22 b7 05 3f
        E 22 b7 05 3e
        E 22 b7 05 3e
        E 22 b7 05 3d
        E 22 b7 05 3d
        E 22 b7 05 3c
        E 22 b7 05 3b
        E 22 b7 05 3a
        E 22 b7 05 3a
        E 22 b7 05 39
        E 22 b7 05 38
        E 22 b7 05 37
        E 22 b7 05 36
        E 22 b7 05 34
        E 22 b7 05 33
        E 22 b7 05 32
        E 22 b7 05 31
        E 22 b7 05 2f
        E 22 b7 05 2e
        E 22 b7 05 2c
        E 22 b7 05 2b
        E 22 b7 05 2a
        E 22 b7 05 28
        E 22 b7 05 27
        E 22 b7 05 25
        E 22 b7 05 23
        E 22 b7 05 22
        E 22 b7 05 20
        E 22 b7 05 1f
        E 22 b7 05 1d
        E 22 b7 05 1c
        E 22 b7 05 1a
        E 22 b7 05 18
        E 22 b7 05 17
        E 22 b7 05 15
        E 22 b7 05 14
        E 22 b7 05 13
        E 22 b7 05 11
        E 22 b7 05 10
        E 22 b7 05 0e
        E 22 b7 05 0d
        E 22 b7 05 0c
        E 22 b7 05 0b
        E 22 b7 05 09
        E 22 b7 05 08
        E 22 b7 05 07
        E 22 b7 05 06
        E 22 b7 05 05
        E 22 b7 05 05
        E 22 b7 05 04
        E 22 b7 05 03
        E 22 b7 05 02
        E 22 b7 05 02
        E 22 b7 05 01
        E 22 b7 05 01
        E 22 b7 05 00
        E 22 b7 05 00
        E 22 b7 05 00
        E 22 b7 05 00
        E 22 b7 05 00
        E 22 b7 05 00
        E 22 b7 05 00
        E 22 b7 05 00
        E 22 b7 05 00
        E 22 b7 05 01
        E 22 b7 05 01
        E 22 b7 05 02
        E 22 b7 05 02
        E 22 b7 05 03
        E 22 b7 05 03
        E 22 b7 05 04
        E 22 b7 05 05
        E 22 b7 05 06
        E 22 b7 05 07
        E 22 b7 05 08
        E 22 b7 05 09
        E 22 b7 05 0a
        E 22 b7 05 0b
        E 22 b7 05 0c
        E 22 b7 05 0e
        E 22 b7 05 0f
        E 22 b7 05 10
        E 22 b7 05 12
        E 22 b7 05 13
        E 22 b7 05 15
        E 22 b7 05 16
        E 22 b7 05 18
        E 22 b7 05 19
        E 22 b7 05 1b
        E 22 b7 05 1c
        E 22 b7 05 1e
        E 22 b7 05 20
        E 45 b7 05 2c
        E 45 b7 05 2e
        E 45 b7 05 31
        E 45 b7 05 33
        E 45 b7 05 35
        E 45 b7 05 37
        E 45 b7 05 39
        E 45 b7 05 3b
        E 45 b7 05 3d
        E 45 b7 05 3f
        E 45 b7 05 41
        E 45 b7 05 43
        E 45 b7 05 45
        E 45 b7 05 47
        E 45 b7 05 48
        E 45 b7 05 4a
        E 45 b7 05 4c
        E 45 b7 05 4d
        E 45 b7 05 4f
        E 45 b7 05 50
        E 45 b7 05 51
        E 45 b7 05 52
        E 45 b7 05 54
        E 45 b7 05 54
        E 45 b7 05 55
        E 45 b7 05 56
        E 45 b7 05 56
        E 45 b7 05 57
        E 45 b7 05 58
        E 45 b7 05 58
        E 45 b7 05 58
        E 45 b7 05 58
        E 45 b7 05 58
        E 45 b7 05 58
        E 45 b7 05 58
        E 45 b7 05 58
        E 45 b7 05 58
        E 45 b7 05 57
        E 45 b7 05 56
        E 45 b7 05 56
        E 45 b7 05 55
        E 45 b7 05 54
        E 45 b7 05 53
        E 45 b7 05 51
        E 45 b7 05 51
        E 45 b7 05 4f
        E 45 b7 05 4e
        E 45 b7 05 4d
        E 45 b7 05 4b
        E 45 b7 05 49
        E 45 b7 05 48
        E 45 b7 05 46
        E 45 b7 05 44
        E 45 b7 05 42
        E 45 b7 05 40
        E 45 b7 05 3e
        E 45 b7 05 3c
        E 45 b7 05 3a
        E 45 b7 05 38
        E 45 b7 05 36
        E 45 b7 05 33
        E 45 b7 05 31
        E 45 b7 05 2f
        E 45 b7 05 2d
        E 45 b7 05 2b
        E 45 b7 05 29
        E 45 b7 05 27
        E 45 b7 05 25
        E 45 b7 05 22
        E 45 b7 05 20
        E 45 b7 05 1e
        E 45 b7 05 1c
        E 45 b7 05 1a
        E 45 b7 05 18
        E 45 b7 05 16
        E 45 b7 05 14
        E 45 b7 05 12
        E 45 b7 05 10
        E 45 b7 05 0f
        E 45 b7 05 0d
        E 45 b7 05 0b
        E 45 b7 05 0a
        E 45 b7 05 09
        E 45 b7 05 07
        E 45 b7 05 07
        E 45 b7 05 05
        E 45 b7 05 04
        E 45 b7 05 03
        E 45 b7 05 02
        E 45 b7 05 02
        E 45 b7 05 01
        E 45 b7 05 00
        E 45 b7 05 00
        E 45 b7 05 00
        E 45 b7 05 00
        E 45 b7 05 00
        E 45 b7 05 00
        E 45 b7 05 00
        E 45 b7 05 00
        E 45 b7 05 00
        E 45 b7 05 01
        E 45 b7 05 02
        E 45 b7 05 02
        E 45 b7 05 03
        E 45 b7 05 04
        E 45 b7 05 04
        E 45 b7 05 06
        E 45 b7 05 07
        E 45 b7 05 08
        E 45 b7 05 09
        E 45 b7 05 0b
        E 45 b7 05 0c
        E 45 b7 05 0e
        E 45 b7 05 10
        E 45 b7 05 11
        E 45 b7 05 13
        E 45 b7 05 15
        E 45 b7 05 17
        E 45 b7 05 19
        E 45 b7 05 1b
        E 45 b7 05 1d
        E 45 b7 05 1f
        E 45 b7 05 21
        E 45 b7 05 23
        E 45 b7 05 25
        E 45 b7 05 27
        E 45 b7 05 2a
        E 45 b7 05 2c
        E 40 b7 05 33
        E 40 b7 05 35
        E 40 b7 05 37
        E 40 b7 05 3a
        E 40 b7 05 3c
        E 40 b7 05 3f
        E 40 b7 05 41
        E 40 b7 05 44
        E 40 b7 05 46
        E 40 b7 05 48
        E 40 b7 05 4b
        E 40 b7 05 4c
        E 40 b7 05 4f
        E 40 b7 05 51
        E 40 b7 05 53
        E 40 b7 05 54
        E 40 b7 05 57
        E 40 b7 05 58
        E 40 b7 05 5a
        E 40 b7 05 5b
        E 40 b7 05 5d
        E 40 b7 05 5e
        E 40 b7 05 5f
        E 40 b7 05 60
        E 40 b7 05 61
        E 40 b7 05 62
        E 40 b7 05 63
        E 40 b7 05 63
        E 40 b7 05 64
        E 40 b7 05 64
        E 40 b7 05 65
        E 40 b7 05 65
        E 40 b7 05 65
        E 40 b7 05 65
        E 40 b7 05 65
        E 40 b7 05 64
        E 40 b7 05 64
        E 40 b7 05 63
        E 40 b7 05 63
        E 40 b7 05 62
        E 40 b7 05 61
        E 40 b7 05 5f
        E 40 b7 05 5f
        E 40 b7 05 5d
        E 40 b7 05 5c
        E 40 b7 05 5b
        E 40 b7 05 59
        E 40 b7 05 57
        E 40 b7 05 56
        E 40 b7 05 54
        E 40 b7 05 52
        E 40 b7 05 50
        E 40 b7 05 4e
        E 40 b7 05 4c
        E 40 b7 05 49
        E 40 b7 05 47
        E 40 b7 05 45
        E 40 b7 05 43
        E 40 b7 05 40
        E 40 b7 05 3e
        E 40 b7 05 3b
        E 40 b7 05 38
        E 40 b7 05 36
        E 40 b7 05 33
        E 40 b7 05 31
        E 40 b7 05 2f
        E 40 b7 05 2c
        E 40 b7 05 2a
        E 40 b7 05 27
        E 40 b7 05 24
        E 40 b7 05 22
        E 40 b7 05 1f
        E 40 b7 05 1e
        E 40 b7 05 1b
        E 40 b7 05 19
        E 40 b7 05 17
        E 40 b7 05 15
        E 40 b7 05 13
        E 40 b7 05 11
        E 40 b7 05 0f
        E 40 b7 05 0d
        E 40 b7 05 0b
        E 40 b7 05 0a
        E 40 b7 05 08
        E 40 b7 05 07
        E 40 b7 05 06
        E 40 b7 05 05
        E 40 b7 05 03
        E 40 b7 05 03
        E 40 b7 05 02
        E 40 b7 05 01
        E 40 b7 05 00
        E 40 b7 05 00
        E 40 b7 05 00
        E 40 b7 05 00
        E 40 b7 05 00
        E 40 b7 05 00
        E 40 b7 05 00
        E 40 b7 05 00
        E 40 b7 05 00
        E 40 b7 05 01
        E 40 b7 05 02
        E 40 b7 05 03
        E 40 b7 05 03
        E 40 b7 05 04
        E 40 b7 05 05
        E 40 b7 05 07
        E 40 b7 05 07
        E 40 b7 05 09
        E 40 b7 05 0b
        E 40 b7 05 0c
        E 40 b7 05 0e
        E 40 b7 05 10
        E 40 b7 05 12
        E 40 b7 05 14
        E 40 b7 05 16
        E 40 b7 05 18
        E 40 b7 05 1a
        E 40 b7 05 1c
        E 40 b7 05 1f
        E 40 b7 05 21
        E 40 b7 05 24
        E 40 b7 05 26
        E 40 b7 05 28
        E 40 b7 05 2b
        E 40 b7 05 2d
        E 40 b7 05 2f
        E 40 b7 05 33
        E 45 b7 05 06
        E 45 b7 05 06
        E 45 b7 05 07
        E 45 b7 05 07
        E 45 b7 05 07
        E 45 b7 05 07
        E 45 b7 05 08
        E 45 b7 05 08
        E 45 b7 05 08
        E 45 b7 05 09
        E 45 b7 05 09
        E 45 b7 05 09
        E 45 b7 05 09
        E 45 b7 05 0a
        E 45 b7 05 0a
        E 45 b7 05 0a
        E 45 b7 05 0a
        E 45 b7 05 0b
        E 45 b7 05 0b
        E 45 b7 05 0b
        E 45 b7 05 0b
        E 45 b7 05 0b
        E 45 b7 05 0c
        E 45 b7 05 0c
        E 45 b7 05 0c
        E 45 b7 05 0c
        E 45 b7 05 0c
        E 45 b7 05 0c
        E 45 b7 05 0c
        E 45 b7 05 0c
        E 45 b7 05 0c
        E 45 b7 05 0c
        E 45 b7 05 0c
        E 45 b7 05 0c
        E 45 b7 05 0c
        E 45 b7 05 0c
        E 45 b7 05 0c
        E 45 b7 05 0c
        E 45 b7 05 0c
        E 45 b7 05 0c
        E 45 b7 05 0c
        E 45 b7 05 0c
        E 45 b7 05 0b
        E 45 b7 05 0b
        E 45 b7 05 0b
        E 45 b7 05 0b
        E 45 b7 05 0b
        E 45 b7 05 0b
        E 45 b7 05 0a
        E 45 b7 05 0a
        E 45 b7 05 0a
        E 45 b7 05 0a
        E 45 b7 05 09
        E 45 b7 05 09
        E 45 b7 05 09
        E 45 b7 05 08
        E 45 b7 05 08
        E 45 b7 05 08
        E 45 b7 05 08
        E 45 b7 05 07
        E 45 b7 05 07
        E 45 b7 05 07
        E 45 b7 05 06
        E 45 b7 05 06
        E 45 b7 05 06
        E 45 b7 05 05
        E 45 b7 05 05
        E 45 b7 05 05
        E 45 b7 05 04
        E 45 b7 05 04
        E 45 b7 05 04
        E 45 b7 05 04
        E 45 b7 05 03
        E 45 b7 05 03
        E 45 b7 05 03
        E 45 b7 05 02
        E 45 b7 05 02
        E 45 b7 05 02
        E 45 b7 05 02
        E 45 b7 05 01
        E 45 b7 05 01
        E 45 b7 05 01
        E 45 b7 05 01
        E 45 b7 05 01
        E 45 b7 05 01
        E 45 b7 05 00
        E 45 b7 05 00
        E 45 b7 05 00
        E 45 b7 05 00
        E 45 b7 05 00
        E 45 b7 05 00
        E 45 b7 05 00
        E 45 b7 05 00
        E 45 b7 05 00
        E 45 b7 05 00
        E 45 b7 05 00
        E 45 b7 05 00
        E 45 b7 05 00
        E 45 b7 05 00
        E 45 b7 05 00
        E 45 b7 05 00
        E 45 b7 05 00
        E 45 b7 05 00
        E 45 b7 05 00
        E 45 b7 05 00
        E 45 b7 05 00
        E 45 b7 05 00
        E 45 b7 05 01
        E 45 b7 05 01
        E 45 b7 05 01
        E 45 b7 05 01
        E 45 b7 05 01
        E 45 b7 05 02
        E 45 b7 05 02
        E 45 b7 05 02
        E 45 b7 05 02
        E 45 b7 05 03
        E 45 b7 05 03
        E 45 b7 05 03
        E 45 b7 05 03
        E 45 b7 05 04
        E 45 b7 05 04
        E 45 b7 05 04
        E 45 b7 05 05
        E 45 b7 05 05
        E 45 b7 05 05
        E 45 b7 05 06
        E 45 b7 05 06
        E 40 b7 05 19
        E 40 b7 05 1a
        E 40 b7 05 1c
        E 40 b7 05 1d
        E 40 b7 05 1e
        E 40 b7 05 1f
        E 40 b7 05 20
        E 40 b7 05 22
        E 40 b7 05 23
        E 40 b7 05 24
        E 40 b7 05 25
        E 40 b7 05 26
        E 40 b7 05 27
        E 40 b7 05 28
        E 40 b7 05 29
        E 40 b7 05 2a
        E 40 b7 05 2b
        E 40 b7 05 2c
        E 40 b7 05 2d
        E 40 b7 05 2e
        E 40 b7 05 2e
        E 40 b7 05 2f
        E 40 b7 05 30
        E 40 b7 05 30
        E 40 b7 05 30
        E 40 b7 05 31
        E 40 b7 05 31
        E 40 b7 05 32
        E 40 b7 05 32
        E 40 b7 05 32
        E 40 b7 05 32
        E 40 b7 05 32
        E 40 b7 05 32
        E 40 b7 05 32
        E 40 b7 05 32
        E 40 b7 05 32
        E 40 b7 05 32
        E 40 b7 05 32
        E 40 b7 05 31
        E 40 b7 05 31
        E 40 b7 05 30
        E 40 b7 05 30
        E 40 b7 05 2f
        E 40 b7 05 2e
        E 40 b7 05 2e
        E 40 b7 05 2d
        E 40 b7 05 2c
        E 40 b7 05 2c
        E 40 b7 05 2b
        E 40 b7 05 2a
        E 40 b7 05 29
        E 40 b7 05 28
        E 40 b7 05 27
        E 40 b7 05 26
        E 40 b7 05 24
        E 40 b7 05 23
        E 40 b7 05 22
        E 40 b7 05 21
        E 40 b7 05 20
        E 40 b7 05 1f
        E 40 b7 05 1d
        E 40 b7 05 1c
        E 40 b7 05 1b
        E 40 b7 05 1a
        E 40 b7 05 18
        E 40 b7 05 17
        E 40 b7 05 16
        E 40 b7 05 15
        E 40 b7 05 13
        E 40 b7 05 12
        E 40 b7 05 11
        E 40 b7 05 10
        E 40 b7 05 0f
        E 40 b7 05 0e
        E 40 b7 05 0c
        E 40 b7 05 0b
        E 40 b7 05 0a
        E 40 b7 05 09
        E 40 b7 05 08
        E 40 b7 05 07
        E 40 b7 05 06
        E 40 b7 05 06
        E 40 b7 05 05
        E 40 b7 05 04
        E 40 b7 05 04
        E 40 b7 05 03
        E 40 b7 05 02
        E 40 b7 05 02
        E 40 b7 05 01
        E 40 b7 05 01
        E 40 b7 05 00
        E 40 b7 05 00
        E 40 b7 05 00
        E 40 b7 05 00
        E 40 b7 05 00
        E 40 b7 05 00
        E 40 b7 05 00
        E 40 b7 05 00
        E 40 b7 05 00
        E 40 b7 05 00
        E 40 b7 05 00
        E 40 b7 05 01
        E 40 b7 05 01
        E 40 b7 05 02
        E 40 b7 05 02
        E 40 b7 05 02
        E 40 b7 05 03
        E 40 b7 05 04
        E 40 b7 05 04
        E 40 b7 05 05
        E 40 b7 05 06
        E 40 b7 05 07
        E 40 b7 05 08
        E 40 b7 05 09
        E 40 b7 05 0a
        E 40 b7 05 0b
        E 40 b7 05 0c
        E 40 b7 05 0d
        E 40 b7 05 0e
        E 40 b7 05 0f
        E 40 b7 05 10
        E 40 b7 05 12
        E 40 b7 05 13
        E 40 b7 05 14
        E 40 b7 05 15
        E 40 b7 05 16
        E 40 b7 05 18
        E 40 b7 05 19
        E 22 b7 05 2c
        E 22 b7 05 2e
        E 22 b7 05 31
        E 22 b7 05 33
        E 22 b7 05 35
        E 22 b7 05 37
        E 22 b7 05 39
        E 22 b7 05 3b
        E 22 b7 05 3d
        E 22 b7 05 3f
        E 22 b7 05 41
        E 22 b7 05 43
        E 22 b7 05 45
        E 22 b7 05 47
        E 22 b7 05 48
        E 22 b7 05 4a
        E 22 b7 05 4c
        E 22 b7 05 4d
        E 22 b7 05 4f
        E 22 b7 05 50
        E 22 b7 05 51
        E 22 b7 05 52
        E 22 b7 05 54
        E 22 b7 05 54
        E 22 b7 05 55
        E 22 b7 05 56
        E 22 b7 05 56
        E 22 b7 05 57
        E 22 b7 05 58
        E 22 b7 05 58
        E 22 b7 05 58
        E 22 b7 05 58
        E 22 b7 05 58
        E 22 b7 05 58
        E 22 b7 05 58
        E 22 b7 05 58
        E 22 b7 05 58
        E 22 b7 05 57
        E 22 b7 05 56
        E 22 b7 05 56
        E 22 b7 05 55
        E 22 b7 05 54
        E 22 b7 05 53
        E 22 b7 05 51
        E 22 b7 05 51
        E 22 b7 05 4f
        E 22 b7 05 4e
        E 22 b7 05 4d
        E 22 b7 05 4b
        E 22 b7 05 49
        E 22 b7 05 48
        E 22 b7 05 46
        E 22 b7 05 44
        E 22 b7 05 42
        E 22 b7 05 40
        E 22 b7 05 3e
        E 22 b7 05 3c
        E 22 b7 05 3a
        E 22 b7 05 38
        E 22 b7 05 36
        E 22 b7 05 33
        E 22 b7 05 31
        E 22 b7 05 2f
        E 22 b7 05 2d
        E 22 b7 05 2b
        E 22 b7 05 29
        E 22 b7 05 27
        E 22 b7 05 25
        E 22 b7 05 22
        E 22 b7 05 20
        E 22 b7 05 1e
        E 22 b7 05 1c
        E 22 b7 05 1a
        E 22 b7 05 18
        E 22 b7 05 16
        E 22 b7 05 14
        E 22 b7 05 12
        E 22 b7 05 10
        E 22 b7 05 0f
        E 22 b7 05 0d
        E 22 b7 05 0b
        E 22 b7 05 0a
        E 22 b7 05 09
        E 22 b7 05 07
        E 22 b7 05 07
        E 22 b7 05 05
        E 22 b7 05 04
        E 22 b7 05 03
        E 22 b7 05 02
        E 22 b7 05 02
        E 22 b7 05 01
        E 22 b7 05 00
        E 22 b7 05 00
        E 22 b7 05 00
        E 22 b7 05 00
        E 22 b7 05 00
        E 22 b7 05 00
        E 22 b7 05 00
        E 22 b7 05 00
        E 22 b7 05 00
        E 22 b7 05 01
        E 22 b7 05 02
        E 22 b7 05 02
        E 22 b7 05 03
        E 22 b7 05 04
        E 22 b7 05 04
        E 22 b7 05 06
        E 22 b7 05 07
        E 22 b7 05 08
        E 22 b7 05 09
        E 22 b7 05 0b
        E 22 b7 05 0c
        E 22 b7 05 0e
        E 22 b7 05 10
        E 22 b7 05 11
        E 22 b7 05 13
        E 22 b7 05 15
        E 22 b7 05 17
        E 22 b7 05 19
        E 22 b7 05 1b
        E 22 b7 05 1d
        E 22 b7 05 1f
        E 22 b7 05 21
        E 22 b7 05 23
        E 22 b7 05 25
        E 22 b7 05 27
        E 22 b7 05 2a
        E 21 b7 05 2c
        E 1 b0 7b 00
        CCINTERP 32
        CHASE_CC_TAKEOFFS 1
        GUID {DDEACEC2-BAB8-B541-B214-808AFCAF7913}
        IGNTEMPO 0 120 4 4
        SRCCOLOR 180
        VELLANE 3 601 0
        VELLANE -1 196 0
      >
    >
  >
  <TRACK {C39DC22A-DE7E-B14E-A847-E3908F134A5A}
    NAME "insects of the los angeles basin"
    PEAKCOL 16576
    BEAT -1
    AUTOMODE 0
    VOLPAN 1 0 -1 -1 1
    MUTESOLO 0 0 0
    IPHASE 0
    PLAYOFFS 0 1
    ISBUS 0 0
    BUSCOMP 0 0 0 0 0
    SHOWINMIX 1 0.6667 0.5 1 0.5 -1 -1 -1
    FREEMODE 0
    SEL 0
    REC 0 0 1 0 0 0 0
    VU 2
    TRACKHEIGHT 0 1 0 0 -1 0
    INQ 0 0 0 0.5 100 0 0 100
    NCHAN 2
    FX 1
    TRACKID {C39DC22A-DE7E-B14E-A847-E3908F134A5A}
    PERF 0
    MIDIOUT -1
    MAINSEND 1 0
    <ITEM
      POSITION 0
      SNAPOFFS 0
      LENGTH 792.521541
      LOOP 1
      ALLTAKES 0
      FADEIN 1 0 0 1 0 0
      FADEOUT 1 0 0 1 0 0
      MUTE 0 0
      SEL 0
      IGUID {E0BB3EAE-1936-9048-99F8-055B645FBDC9}
      IID 22
      NAME "insects of the los angeles basin.mid"
      VOLPAN 1 0 1 -1
      SOFFS 0 0
      PLAYRATE 1 1 0 -1 0 0.0025
      CHANMODE 0
      GUID {AD2BB799-F140-8A48-B66C-8925F14184CD}
      <SOURCE MIDI
        HASDATA 1 128 QN
        CCINTERP 32
        POOLEDEVTS {835963DD-4245-0944-9FFD-266212E27699}
        E 42 b8 05 33
        E 42 b8 05 35
        E 42 b8 05 37
        E 42 b8 05 3a
        E 42 b8 05 3c
        E 42 b8 05 3f
        E 42 b8 05 41
        E 42 b8 05 44
        E 42 b8 05 46
        E 42 b8 05 48
        E 42 b8 05 4b
        E 42 b8 05 4c
        E 42 b8 05 4f
        E 42 b8 05 51
        E 42 b8 05 53
        E 42 b8 05 54
        E 42 b8 05 57
        E 42 b8 05 58
        E 42 b8 05 5a
        E 42 b8 05 5b
        E 42 b8 05 5d
        E 42 b8 05 5e
        E 42 b8 05 5f
        E 42 b8 05 60
        E 42 b8 05 61
        E 42 b8 05 62
        E 42 b8 05 63
        E 42 b8 05 63
        E 42 b8 05 64
        E 42 b8 05 64
        E 42 b8 05 65
        E 42 b8 05 65
        E 42 b8 05 65
        E 42 b8 05 65
        E 42 b8 05 65
        E 42 b8 05 64
        E 42 b8 05 64
        E 42 b8 05 63
        E 42 b8 05 63
        E 42 b8 05 62
        E 42 b8 05 61
        E 42 b8 05 5f
        E 42 b8 05 5f
        E 42 b8 05 5d
        E 42 b8 05 5c
        E 42 b8 05 5b
        E 42 b8 05 59
        E 42 b8 05 57
        E 42 b8 05 56
        E 42 b8 05 54
        E 42 b8 05 52
        E 42 b8 05 50
        E 42 b8 05 4e
        E 42 b8 05 4c
        E 42 b8 05 49
        E 42 b8 05 47
        E 42 b8 05 45
        E 42 b8 05 43
        E 42 b8 05 40
        E 42 b8 05 3e
        E 42 b8 05 3b
        E 42 b8 05 38
        E 42 b8 05 36
        E 42 b8 05 33
        E 42 b8 05 31
        E 42 b8 05 2f
        E 42 b8 05 2c
        E 42 b8 05 2a
        E 42 b8 05 27
        E 42 b8 05 24
        E 42 b8 05 22
        E 42 b8 05 1f
        E 42 b8 05 1e
        E 42 b8 05 1b
        E 42 b8 05 19
        E 42 b8 05 17
        E 42 b8 05 15
        E 42 b8 05 13
        E 42 b8 05 11
        E 42 b8 05 0f
        E 42 b8 05 0d
        E 42 b8 05 0b
        E 42 b8 05 0a
        E 42 b8 05 08
        E 42 b8 05 07
        E 42 b8 05 06
        E 42 b8 05 05
        E 42 b8 05 03
        E 42 b8 05 03
        E 42 b8 05 02
        E 42 b8 05 01
        E 42 b8 05 00
        E 42 b8 05 00
        E 42 b8 05 00
        E 42 b8 05 00
        E 42 b8 05 00
        E 42 b8 05 00
        E 42 b8 05 00
        E 42 b8 05 00
        E 42 b8 05 00
        E 42 b8 05 01
        E 42 b8 05 02
        E 42 b8 05 03
        E 42 b8 05 03
        E 42 b8 05 04
        E 42 b8 05 05
        E 42 b8 05 07
        E 42 b8 05 07
        E 42 b8 05 09
        E 42 b8 05 0b
        E 42 b8 05 0c
        E 42 b8 05 0e
        E 42 b8 05 10
        E 42 b8 05 12
        E 42 b8 05 14
        E 42 b8 05 16
        E 42 b8 05 18
        E 42 b8 05 1a
        E 42 b8 05 1c
        E 42 b8 05 1f
        E 42 b8 05 21
        E 42 b8 05 24
        E 42 b8 05 26
        E 42 b8 05 28
        E 42 b8 05 2b
        E 42 b8 05 2d
        E 42 b8 05 2f
        E 42 b8 05 33
        E 47 b8 05 06
        E 47 b8 05 06
        E 47 b8 05 07
        E 47 b8 05 07
        E 47 b8 05 07
        E 47 b8 05 07
        E 47 b8 05 08
        E 47 b8 05 08
        E 47 b8 05 08
        E 47 b8 05 09
        E 47 b8 05 09
        E 47 b8 05 09
        E 47 b8 05 09
        E 47 b8 05 0a
        E 47 b8 05 0a
        E 47 b8 05 0a
        E 47 b8 05 0a
        E 47 b8 05 0b
        E 47 b8 05 0b
        E 47 b8 05 0b
        E 47 b8 05 0b
        E 47 b8 05 0b
        E 47 b8 05 0c
        E 47 b8 05 0c
        E 47 b8 05 0c
        E 47 b8 05 0c
        E 47 b8 05 0c
        E 47 b8 05 0c
        E 47 b8 05 0c
        E 47 b8 05 0c
        E 47 b8 05 0c
        E 47 b8 05 0c
        E 47 b8 05 0c
        E 47 b8 05 0c
        E 47 b8 05 0c
        E 47 b8 05 0c
        E 47 b8 05 0c
        E 47 b8 05 0c
        E 47 b8 05 0c
        E 47 b8 05 0c
        E 47 b8 05 0c
        E 47 b8 05 0c
        E 47 b8 05 0b
        E 47 b8 05 0b
        E 47 b8 05 0b
        E 47 b8 05 0b
        E 47 b8 05 0b
        E 47 b8 05 0b
        E 47 b8 05 0a
        E 47 b8 05 0a
        E 47 b8 05 0a
        E 47 b8 05 0a
        E 47 b8 05 09
        E 47 b8 05 09
        E 47 b8 05 09
        E 47 b8 05 08
        E 47 b8 05 08
        E 47 b8 05 08
        E 47 b8 05 08
        E 47 b8 05 07
        E 47 b8 05 07
        E 47 b8 05 07
        E 47 b8 05 06
        E 47 b8 05 06
        E 47 b8 05 06
        E 47 b8 05 05
        E 47 b8 05 05
        E 47 b8 05 05
        E 47 b8 05 04
        E 47 b8 05 04
        E 47 b8 05 04
        E 47 b8 05 04
        E 47 b8 05 03
        E 47 b8 05 03
        E 47 b8 05 03
        E 47 b8 05 02
        E 47 b8 05 02
        E 47 b8 05 02
        E 47 b8 05 02
        E 47 b8 05 01
        E 47 b8 05 01
        E 47 b8 05 01
        E 47 b8 05 01
        E 47 b8 05 01
        E 47 b8 05 01
        E 47 b8 05 00
        E 47 b8 05 00
        E 47 b8 05 00
        E 47 b8 05 00
        E 47 b8 05 00
        E 47 b8 05 00
        E 47 b8 05 00
        E 47 b8 05 00
        E 47 b8 05 00
        E 47 b8 05 00
        E 47 b8 05 00
        E 47 b8 05 00
        E 47 b8 05 00
        E 47 b8 05 00
        E 47 b8 05 00
        E 47 b8 05 00
        E 47 b8 05 00
        E 47 b8 05 00
        E 47 b8 05 00
        E 47 b8 05 00
        E 47 b8 05 00
        E 47 b8 05 00
        E 47 b8 05 01
        E 47 b8 05 01
        E 47 b8 05 01
        E 47 b8 05 01
        E 47 b8 05 01
        E 47 b8 05 02
        E 47 b8 05 02
        E 47 b8 05 02
        E 47 b8 05 02
        E 47 b8 05 03
        E 47 b8 05 03
        E 47 b8 05 03
        E 47 b8 05 03
        E 47 b8 05 04
        E 47 b8 05 04
        E 47 b8 05 04
        E 47 b8 05 05
        E 47 b8 05 05
        E 47 b8 05 05
        E 47 b8 05 06
        E 47 b8 05 06
        E 42 b8 05 19
        E 42 b8 05 1a
        E 42 b8 05 1c
        E 42 b8 05 1d
        E 42 b8 05 1e
        E 42 b8 05 1f
        E 42 b8 05 20
        E 42 b8 05 22
        E 42 b8 05 23
        E 42 b8 05 24
        E 42 b8 05 25
        E 42 b8 05 26
        E 42 b8 05 27
        E 42 b8 05 28
        E 42 b8 05 29
        E 42 b8 05 2a
        E 42 b8 05 2b
        E 42 b8 05 2c
        E 42 b8 05 2d
        E 42 b8 05 2e
        E 42 b8 05 2e
        E 42 b8 05 2f
        E 42 b8 05 30
        E 42 b8 05 30
        E 42 b8 05 30
        E 42 b8 05 31
        E 42 b8 05 31
        E 42 b8 05 32
        E 42 b8 05 32
        E 42 b8 05 32
        E 42 b8 05 32
        E 42 b8 05 32
        E 42 b8 05 32
        E 42 b8 05 32
        E 42 b8 05 32
        E 42 b8 05 32
        E 42 b8 05 32
        E 42 b8 05 32
        E 42 b8 05 31
        E 42 b8 05 31
        E 42 b8 05 30
        E 42 b8 05 30
        E 42 b8 05 2f
        E 42 b8 05 2e
        E 42 b8 05 2e
        E 42 b8 05 2d
        E 42 b8 05 2c
        E 42 b8 05 2c
        E 42 b8 05 2b
        E 42 b8 05 2a
        E 42 b8 05 29
        E 42 b8 05 28
        E 42 b8 05 27
        E 42 b8 05 26
        E 42 b8 05 24
        E 42 b8 05 23
        E 42 b8 05 22
        E 42 b8 05 21
        E 42 b8 05 20
        E 42 b8 05 1f
        E 42 b8 05 1d
        E 42 b8 05 1c
        E 42 b8 05 1b
        E 42 b8 05 1a
        E 42 b8 05 18
        E 42 b8 05 17
        E 42 b8 05 16
        E 42 b8 05 15
        E 42 b8 05 13
        E 42 b8 05 12
        E 42 b8 05 11
        E 42 b8 05 10
        E 42 b8 05 0f
        E 42 b8 05 0e
        E 42 b8 05 0c
        E 42 b8 05 0b
        E 42 b8 05 0a
        E 42 b8 05 09
        E 42 b8 05 08
        E 42 b8 05 07
        E 42 b8 05 06
        E 42 b8 05 06
        E 42 b8 05 05
        E 42 b8 05 04
        E 42 b8 05 04
        E 42 b8 05 03
        E 42 b8 05 02
        E 42 b8 05 02
        E 42 b8 05 01
        E 42 b8 05 01
        E 42 b8 05 00
        E 42 b8 05 00
        E 42 b8 05 00
        E 42 b8 05 00
        E 42 b8 05 00
        E 42 b8 05 00
        E 42 b8 05 00
        E 42 b8 05 00
        E 42 b8 05 00
        E 42 b8 05 00
        E 42 b8 05 00
        E 42 b8 05 01
        E 42 b8 05 01
        E 42 b8 05 02
        E 42 b8 05 02
        E 42 b8 05 02
        E 42 b8 05 03
        E 42 b8 05 04
        E 42 b8 05 04
        E 42 b8 05 05
        E 42 b8 05 06
        E 42 b8 05 07
        E 42 b8 05 08
        E 42 b8 05 09
        E 42 b8 05 0a
        E 42 b8 05 0b
        E 42 b8 05 0c
        E 42 b8 05 0d
        E 42 b8 05 0e
        E 42 b8 05 0f
        E 42 b8 05 10
        E 42 b8 05 12
        E 42 b8 05 13
        E 42 b8 05 14
        E 42 b8 05 15
        E 42 b8 05 16
        E 42 b8 05 18
        E 42 b8 05 19
        E 23 b8 05 2c
        E 23 b8 05 2e
        E 23 b8 05 31
        E 23 b8 05 33
        E 23 b8 05 35
        E 23 b8 05 37
        E 23 b8 05 39
        E 23 b8 05 3b
        E 23 b8 05 3d
        E 23 b8 05 3f
        E 23 b8 05 41
        E 23 b8 05 43
        E 23 b8 05 45
        E 23 b8 05 47
        E 23 b8 05 48
        E 23 b8 05 4a
        E 23 b8 05 4c
        E 23 b8 05 4d
        E 23 b8 05 4f
        E 23 b8 05 50
        E 23 b8 05 51
        E 23 b8 05 52
        E 23 b8 05 54
        E 23 b8 05 54
        E 23 b8 05 55
        E 23 b8 05 56
        E 23 b8 05 56
        E 23 b8 05 57
        E 23 b8 05 58
        E 23 b8 05 58
        E 23 b8 05 58
        E 23 b8 05 58
        E 23 b8 05 58
        E 23 b8 05 58
        E 23 b8 05 58
        E 23 b8 05 58
        E 23 b8 05 58
        E 23 b8 05 57
        E 23 b8 05 56
        E 23 b8 05 56
        E 23 b8 05 55
        E 23 b8 05 54
        E 23 b8 05 53
        E 23 b8 05 51
        E 23 b8 05 51
        E 23 b8 05 4f
        E 23 b8 05 4e
        E 23 b8 05 4d
        E 23 b8 05 4b
        E 23 b8 05 49
        E 23 b8 05 48
        E 23 b8 05 46
        E 23 b8 05 44
        E 23 b8 05 42
        E 23 b8 05 40
        E 23 b8 05 3e
        E 23 b8 05 3c
        E 23 b8 05 3a
        E 23 b8 05 38
        E 23 b8 05 36
        E 23 b8 05 33
        E 23 b8 05 31
        E 23 b8 05 2f
        E 23 b8 05 2d
        E 23 b8 05 2b
        E 23 b8 05 29
        E 23 b8 05 27
        E 23 b8 05 25
        E 23 b8 05 22
        E 23 b8 05 20
        E 23 b8 05 1e
        E 23 b8 05 1c
        E 23 b8 05 1a
        E 23 b8 05 18
        E 23 b8 05 16
        E 23 b8 05 14
        E 23 b8 05 12
        E 23 b8 05 10
        E 23 b8 05 0f
        E 23 b8 05 0d
        E 23 b8 05 0b
        E 23 b8 05 0a
        E 23 b8 05 09
        E 23 b8 05 07
        E 23 b8 05 07
        E 23 b8 05 05
        E 23 b8 05 04
        E 23 b8 05 03
        E 23 b8 05 02
        E 23 b8 05 02
        E 23 b8 05 01
        E 23 b8 05 00
        E 23 b8 05 00
        E 23 b8 05 00
        E 23 b8 05 00
        E 23 b8 05 00
        E 23 b8 05 00
        E 23 b8 05 00
        E 23 b8 05 00
        E 23 b8 05 00
        E 23 b8 05 01
        E 23 b8 05 02
        E 23 b8 05 02
        E 23 b8 05 03
        E 23 b8 05 04
        E 23 b8 05 04
        E 23 b8 05 06
        E 23 b8 05 07
        E 23 b8 05 08
        E 23 b8 05 09
        E 23 b8 05 0b
        E 23 b8 05 0c
        E 23 b8 05 0e
        E 23 b8 05 10
        E 23 b8 05 11
        E 23 b8 05 13
        E 23 b8 05 15
        E 23 b8 05 17
        E 23 b8 05 19
        E 23 b8 05 1b
        E 23 b8 05 1d
        E 23 b8 05 1f
        E 23 b8 05 21
        E 23 b8 05 23
        E 23 b8 05 25
        E 23 b8 05 27
        E 23 b8 05 2a
        E 23 b8 05 2c
        E 23 b8 05 20
        E 23 b8 05 21
        E 23 b8 05 23
        E 23 b8 05 24
        E 23 b8 05 26
        E 23 b8 05 27
        E 23 b8 05 29
        E 23 b8 05 2a
        E 23 b8 05 2c
        E 23 b8 05 2d
        E 23 b8 05 2f
        E 23 b8 05 30
        E 23 b8 05 31
        E 23 b8 05 33
        E 23 b8 05 34
        E 23 b8 05 35
        E 23 b8 05 36
        E 23 b8 05 37
        E 23 b8 05 38
        E 23 b8 05 39
        E 23 b8 05 3a
        E 23 b8 05 3b
        E 23 b8 05 3c
        E 23 b8 05 3c
        E 23 b8 05 3d
        E 23 b8 05 3d
        E 23 b8 05 3e
        E 23 b8 05 3e
        E 23 b8 05 3f
        E 23 b8 05 3f
        E 23 b8 05 3f
        E 23 b8 05 3f
        E 23 b8 05 3f
        E 23 b8 05 3f
        E 23 b8 05 3f
        E 23 b8 05 3f
        E 23 b8 05 3f
        E 23 b8 05 3e
        E 23 b8 05 3e
        E 23 b8 05 3d
        E 23 b8 05 3d
        E 23 b8 05 3c
        E 23 b8 05 3b
        E 23 b8 05 3a
        E 23 b8 05 3a
        E 23 b8 05 39
        E 23 b8 05 38
        E 23 b8 05 37
        E 23 b8 05 36
        E 23 b8 05 34
        E 23 b8 05 33
        E 23 b8 05 32
        E 23 b8 05 31
        E 23 b8 05 2f
        E 23 b8 05 2e
        E 23 b8 05 2c
        E 23 b8 05 2b
        E 23 b8 05 2a
        E 23 b8 05 28
        E 23 b8 05 27
        E 23 b8 05 25
        E 23 b8 05 23
        E 23 b8 05 22
        E 23 b8 05 20
        E 23 b8 05 1f
        E 23 b8 05 1d
        E 23 b8 05 1c
        E 23 b8 05 1a
        E 23 b8 05 18
        E 23 b8 05 17
        E 23 b8 05 15
        E 23 b8 05 14
        E 23 b8 05 13
        E 23 b8 05 11
        E 23 b8 05 10
        E 23 b8 05 0e
        E 23 b8 05 0d
        E 23 b8 05 0c
        E 23 b8 05 0b
        E 23 b8 05 09
        E 23 b8 05 08
        E 23 b8 05 07
        E 23 b8 05 06
        E 23 b8 05 05
        E 23 b8 05 05
        E 23 b8 05 04
        E 23 b8 05 03
        E 23 b8 05 02
        E 23 b8 05 02
        E 23 b8 05 01
        E 23 b8 05 01
        E 23 b8 05 00
        E 23 b8 05 00
        E 23 b8 05 00
        E 23 b8 05 00
        E 23 b8 05 00
        E 23 b8 05 00
        E 23 b8 05 00
        E 23 b8 05 00
        E 23 b8 05 00
        E 23 b8 05 01
        E 23 b8 05 01
        E 23 b8 05 02
        E 23 b8 05 02
        E 23 b8 05 03
        E 23 b8 05 03
        E 23 b8 05 04
        E 23 b8 05 05
        E 23 b8 05 06
        E 23 b8 05 07
        E 23 b8 05 08
        E 23 b8 05 09
        E 23 b8 05 0a
        E 23 b8 05 0b
        E 23 b8 05 0c
        E 23 b8 05 0e
        E 23 b8 05 0f
        E 23 b8 05 10
        E 23 b8 05 12
        E 23 b8 05 13
        E 23 b8 05 15
        E 23 b8 05 16
        E 23 b8 05 18
        E 23 b8 05 19
        E 23 b8 05 1b
        E 23 b8 05 1c
        E 23 b8 05 1e
        E 23 b8 05 20
        E 32 b8 05 20
        E 32 b8 05 21
        E 32 b8 05 23
        E 32 b8 05 24
        E 32 b8 05 26
        E 32 b8 05 27
        E 32 b8 05 29
        E 32 b8 05 2a
        E 32 b8 05 2c
        E 32 b8 05 2d
        E 32 b8 05 2f
        E 32 b8 05 30
        E 32 b8 05 31
        E 32 b8 05 33
        E 32 b8 05 34
        E 32 b8 05 35
        E 32 b8 05 36
        E 32 b8 05 37
        E 32 b8 05 38
        E 32 b8 05 39
        E 32 b8 05 3a
        E 32 b8 05 3b
        E 32 b8 05 3c
        E 32 b8 05 3c
        E 32 b8 05 3d
        E 32 b8 05 3d
        E 32 b8 05 3e
        E 32 b8 05 3e
        E 32 b8 05 3f
        E 32 b8 05 3f
        E 32 b8 05 3f
        E 32 b8 05 3f
        E 32 b8 05 3f
        E 32 b8 05 3f
        E 32 b8 05 3f
        E 32 b8 05 3f
        E 32 b8 05 3f
        E 32 b8 05 3e
        E 32 b8 05 3e
        E 32 b8 05 3d
        E 32 b8 05 3d
        E 32 b8 05 3c
        E 32 b8 05 3b
        E 32 b8 05 3a
        E 32 b8 05 3a
        E 32 b8 05 39
        E 32 b8 05 38
        E 32 b8 05 37
        E 32 b8 05 36
        E 32 b8 05 34
        E 32 b8 05 33
        E 32 b8 05 32
        E 32 b8 05 31
        E 32 b8 05 2f
        E 32 b8 05 2e
        E 32 b8 05 2c
        E 32 b8 05 2b
        E 32 b8 05 2a
        E 32 b8 05 28
        E 32 b8 05 27
        E 32 b8 05 25
        E 32 b8 05 23
        E 32 b8 05 22
        E 32 b8 05 20
        E 32 b8 05 1f
        E 32 b8 05 1d
        E 32 b8 05 1c
        E 32 b8 05 1a
        E 32 b8 05 18
        E 32 b8 05 17
        E 32 b8 05 15
        E 32 b8 05 14
        E 32 b8 05 13
        E 32 b8 05 11
        E 32 b8 05 10
        E 32 b8 05 0e
        E 32 b8 05 0d
        E 32 b8 05 0c
        E 32 b8 05 0b
        E 32 b8 05 09
        E 32 b8 05 08
        E 32 b8 05 07
        E 32 b8 05 06
        E 32 b8 05 05
        E 32 b8 05 05
        E 32 b8 05 04
        E 32 b8 05 03
        E 32 b8 05 02
        E 32 b8 05 02
        E 32 b8 05 01
        E 32 b8 05 01
        E 32 b8 05 00
        E 32 b8 05 00
        E 32 b8 05 00
        E 32 b8 05 00
        E 32 b8 05 00
        E 32 b8 05 00
        E 32 b8 05 00
        E 32 b8 05 00
        E 32 b8 05 00
        E 32 b8 05 01
        E 32 b8 05 01
        E 32 b8 05 02
        E 32 b8 05 02
        E 32 b8 05 03
        E 32 b8 05 03
        E 32 b8 05 04
        E 32 b8 05 05
        E 32 b8 05 06
        E 32 b8 05 07
        E 32 b8 05 08
        E 32 b8 05 09
        E 32 b8 05 0a
        E 32 b8 05 0b
        E 32 b8 05 0c
        E 32 b8 05 0e
        E 32 b8 05 0f
        E 32 b8 05 10
        E 32 b8 05 12
        E 32 b8 05 13
        E 32 b8 05 15
        E 32 b8 05 16
        E 32 b8 05 18
        E 32 b8 05 19
        E 32 b8 05 1b
        E 32 b8 05 1c
        E 32 b8 05 1e
        E 32 b8 05 20
        E 37 b8 05 40
        E 37 b8 05 43
        E 37 b8 05 46
        E 37 b8 05 49
        E 37 b8 05 4c
        E 37 b8 05 4f
        E 37 b8 05 52
        E 37 b8 05 55
        E 37 b8 05 58
        E 37 b8 05 5b
        E 37 b8 05 5e
        E 37 b8 05 60
        E 37 b8 05 63
        E 37 b8 05 66
        E 37 b8 05 68
        E 37 b8 05 6a
        E 37 b8 05 6d
        E 37 b8 05 6f
        E 37 b8 05 71
        E 37 b8 05 73
        E 37 b8 05 75
        E 37 b8 05 76
        E 37 b8 05 78
        E 37 b8 05 79
        E 37 b8 05 7a
        E 37 b8 05 7b
        E 37 b8 05 7c
        E 37 b8 05 7d
        E 37 b8 05 7e
        E 37 b8 05 7e
        E 37 b8 05 7f
        E 37 b8 05 7f
        E 37 b8 05 7f
        E 37 b8 05 7f
        E 37 b8 05 7f
        E 37 b8 05 7e
        E 37 b8 05 7e
        E 37 b8 05 7d
        E 37 b8 05 7c
        E 37 b8 05 7b
        E 37 b8 05 7a
        E 37 b8 05 78
        E 37 b8 05 77
        E 37 b8 05 75
        E 37 b8 05 74
        E 37 b8 05 72
        E 37 b8 05 70
        E 37 b8 05 6e
        E 37 b8 05 6c
        E 37 b8 05 69
        E 37 b8 05 67
        E 37 b8 05 64
        E 37 b8 05 62
        E 37 b8 05 5f
        E 37 b8 05 5c
        E 37 b8 05 59
        E 37 b8 05 57
        E 37 b8 05 54
        E 37 b8 05 51
        E 37 b8 05 4e
        E 37 b8 05 4a
        E 37 b8 05 47
        E 37 b8 05 44
        E 37 b8 05 41
        E 37 b8 05 3e
        E 37 b8 05 3b
        E 37 b8 05 38
        E 37 b8 05 35
        E 37 b8 05 31
        E 37 b8 05 2e
        E 37 b8 05 2b
        E 37 b8 05 28
        E 37 b8 05 26
        E 37 b8 05 23
        E 37 b8 05 20
        E 37 b8 05 1d
        E 37 b8 05 1b
        E 37 b8 05 18
        E 37 b8 05 16
        E 37 b8 05 13
        E 37 b8 05 11
        E 37 b8 05 0f
        E 37 b8 05 0d
        E 37 b8 05 0b
        E 37 b8 05 0a
        E 37 b8 05 08
        E 37 b8 05 07
        E 37 b8 05 05
        E 37 b8 05 04
        E 37 b8 05 03
        E 37 b8 05 02
        E 37 b8 05 01
        E 37 b8 05 01
        E 37 b8 05 00
        E 37 b8 05 00
        E 37 b8 05 00
        E 37 b8 05 00
        E 37 b8 05 00
        E 37 b8 05 01
        E 37 b8 05 01
        E 37 b8 05 02
        E 37 b8 05 03
        E 37 b8 05 04
        E 37 b8 05 05
        E 37 b8 05 06
        E 37 b8 05 07
        E 37 b8 05 09
        E 37 b8 05 0a
        E 37 b8 05 0c
        E 37 b8 05 0e
        E 37 b8 05 10
        E 37 b8 05 12
        E 37 b8 05 15
        E 37 b8 05 17
        E 37 b8 05 19
        E 37 b8 05 1c
        E 37 b8 05 1f
        E 37 b8 05 21
        E 37 b8 05 24
        E 37 b8 05 27
        E 37 b8 05 2a
        E 37 b8 05 2d
        E 37 b8 05 30
        E 37 b8 05 33
        E 37 b8 05 36
        E 37 b8 05 39
        E 37 b8 05 3c
        E 37 b8 05 40
        E 4 b8 05 39
        E 4 b8 05 3c
        E 4 b8 05 3f
        E 4 b8 05 41
        E 4 b8 05 44
        E 4 b8 05 47
        E 4 b8 05 49
        E 4 b8 05 4c
        E 4 b8 05 4f
        E 4 b8 05 51
        E 4 b8 05 54
        E 4 b8 05 56
        E 4 b8 05 59
        E 4 b8 05 5b
        E 4 b8 05 5d
        E 4 b8 05 5f
        E 4 b8 05 62
        E 4 b8 05 63
        E 4 b8 05 65
        E 4 b8 05 67
        E 4 b8 05 69
        E 4 b8 05 6a
        E 4 b8 05 6c
        E 4 b8 05 6c
        E 4 b8 05 6d
        E 4 b8 05 6e
        E 4 b8 05 6f
        E 4 b8 05 70
        E 4 b8 05 71
        E 4 b8 05 71
        E 4 b8 05 72
        E 4 b8 05 72
        E 4 b8 05 72
        E 4 b8 05 72
        E 4 b8 05 72
        E 4 b8 05 71
        E 4 b8 05 71
        E 4 b8 05 70
        E 4 b8 05 6f
        E 4 b8 05 6e
        E 4 b8 05 6d
        E 4 b8 05 6c
        E 4 b8 05 6b
        E 4 b8 05 69
        E 4 b8 05 68
        E 4 b8 05 66
        E 4 b8 05 64
        E 4 b8 05 63
        E 4 b8 05 61
        E 4 b8 05 5e
        E 4 b8 05 5c
        E 4 b8 05 5a
        E 4 b8 05 58
        E 4 b8 05 55
        E 4 b8 05 52
        E 4 b8 05 50
        E 4 b8 05 4e
        E 4 b8 05 4b
        E 4 b8 05 48
        E 4 b8 05 46
        E 4 b8 05 42
        E 4 b8 05 3f
        E 4 b8 05 3d
        E 4 b8 05 3a
        E 4 b8 05 37
        E 4 b8 05 35
        E 4 b8 05 32
        E 4 b8 05 2f
        E 4 b8 05 2c
        E 4 b8 05 29
        E 4 b8 05 26
        E 4 b8 05 24
        E 4 b8 05 22
        E 4 b8 05 1f
        E 4 b8 05 1c
        E 4 b8 05 1a
        E 4 b8 05 18
        E 4 b8 05 15
        E 4 b8 05 13
        E 4 b8 05 11
        E 4 b8 05 0f
        E 4 b8 05 0d
        E 4 b8 05 0b
        E 4 b8 05 09
        E 4 b8 05 09
        E 4 b8 05 07
        E 4 b8 05 06
        E 4 b8 05 04
        E 4 b8 05 03
        E 4 b8 05 02
        E 4 b8 05 01
        E 4 b8 05 00
        E 4 b8 05 00
        E 4 b8 05 00
        E 4 b8 05 00
        E 4 b8 05 00
        E 4 b8 05 00
        E 4 b8 05 00
        E 4 b8 05 00
        E 4 b8 05 00
        E 4 b8 05 01
        E 4 b8 05 02
        E 4 b8 05 03
        E 4 b8 05 04
        E 4 b8 05 05
        E 4 b8 05 06
        E 4 b8 05 08
        E 4 b8 05 09
        E 4 b8 05 0a
        E 4 b8 05 0c
        E 4 b8 05 0e
        E 4 b8 05 10
        E 4 b8 05 12
        E 4 b8 05 14
        E 4 b8 05 16
        E 4 b8 05 19
        E 4 b8 05 1b
        E 4 b8 05 1d
        E 4 b8 05 20
        E 4 b8 05 23
        E 4 b8 05 25
        E 4 b8 05 28
        E 4 b8 05 2b
        E 4 b8 05 2d
        E 4 b8 05 30
        E 4 b8 05 33
        E 4 b8 05 36
        E 4 b8 05 39
        E 18 b8 05 40
        E 18 b8 05 43
        E 18 b8 05 46
        E 18 b8 05 49
        E 18 b8 05 4c
        E 18 b8 05 4f
        E 18 b8 05 52
        E 18 b8 05 55
        E 18 b8 05 58
        E 18 b8 05 5b
        E 18 b8 05 5e
        E 18 b8 05 60
        E 18 b8 05 63
        E 18 b8 05 66
        E 18 b8 05 68
        E 18 b8 05 6a
        E 18 b8 05 6d
        E 18 b8 05 6f
        E 18 b8 05 71
        E 18 b8 05 73
        E 18 b8 05 75
        E 18 b8 05 76
        E 18 b8 05 78
        E 18 b8 05 79
        E 18 b8 05 7a
        E 18 b8 05 7b
        E 18 b8 05 7c
        E 18 b8 05 7d
        E 18 b8 05 7e
        E 18 b8 05 7e
        E 18 b8 05 7f
        E 18 b8 05 7f
        E 18 b8 05 7f
        E 18 b8 05 7f
        E 18 b8 05 7f
        E 18 b8 05 7e
        E 18 b8 05 7e
        E 18 b8 05 7d
        E 18 b8 05 7c
        E 18 b8 05 7b
        E 18 b8 05 7a
        E 18 b8 05 78
        E 18 b8 05 77
        E 18 b8 05 75
        E 18 b8 05 74
        E 18 b8 05 72
        E 18 b8 05 70
        E 18 b8 05 6e
        E 18 b8 05 6c
        E 18 b8 05 69
        E 18 b8 05 67
        E 18 b8 05 64
        E 18 b8 05 62
        E 18 b8 05 5f
        E 18 b8 05 5c
        E 18 b8 05 59
        E 18 b8 05 57
        E 18 b8 05 54
        E 18 b8 05 51
        E 18 b8 05 4e
        E 18 b8 05 4a
        E 18 b8 05 47
        E 18 b8 05 44
        E 18 b8 05 41
        E 18 b8 05 3e
        E 18 b8 05 3b
        E 18 b8 05 38
        E 18 b8 05 35
        E 18 b8 05 31
        E 18 b8 05 2e
        E 18 b8 05 2b
        E 18 b8 05 28
        E 18 b8 05 26
        E 18 b8 05 23
        E 18 b8 05 20
        E 18 b8 05 1d
        E 18 b8 05 1b
        E 18 b8 05 18
        E 18 b8 05 16
        E 18 b8 05 13
        E 18 b8 05 11
        E 18 b8 05 0f
        E 18 b8 05 0d
        E 18 b8 05 0b
        E 18 b8 05 0a
        E 18 b8 05 08
        E 18 b8 05 07
        E 18 b8 05 05
        E 18 b8 05 04
        E 18 b8 05 03
        E 18 b8 05 02
        E 18 b8 05 01
        E 18 b8 05 01
        E 18 b8 05 00
        E 18 b8 05 00
        E 18 b8 05 00
        E 18 b8 05 00
        E 18 b8 05 00
        E 18 b8 05 01
        E 18 b8 05 01
        E 18 b8 05 02
        E 18 b8 05 03
        E 18 b8 05 04
        E 18 b8 05 05
        E 18 b8 05 06
        E 18 b8 05 07
        E 18 b8 05 09
        E 18 b8 05 0a
        E 18 b8 05 0c
        E 18 b8 05 0e
        E 18 b8 05 10
        E 18 b8 05 12
        E 18 b8 05 15
        E 18 b8 05 17
        E 18 b8 05 19
        E 18 b8 05 1c
        E 18 b8 05 1f
        E 18 b8 05 21
        E 18 b8 05 24
        E 18 b8 05 27
        E 18 b8 05 2a
        E 18 b8 05 2d
        E 18 b8 05 30
        E 18 b8 05 33
        E 18 b8 05 36
        E 18 b8 05 39
        E 18 b8 05 3c
        E 18 b8 05 40
        E 32 b8 05 39
        E 32 b8 05 3c
        E 32 b8 05 3f
        E 32 b8 05 41
        E 32 b8 05 44
        E 32 b8 05 47
        E 32 b8 05 49
        E 32 b8 05 4c
        E 32 b8 05 4f
        E 32 b8 05 51
        E 32 b8 05 54
        E 32 b8 05 56
        E 32 b8 05 59
        E 32 b8 05 5b
        E 32 b8 05 5d
        E 32 b8 05 5f
        E 32 b8 05 62
        E 32 b8 05 63
        E 32 b8 05 65
        E 32 b8 05 67
        E 32 b8 05 69
        E 32 b8 05 6a
        E 32 b8 05 6c
        E 32 b8 05 6c
        E 32 b8 05 6d
        E 32 b8 05 6e
        E 32 b8 05 6f
        E 32 b8 05 70
        E 32 b8 05 71
        E 32 b8 05 71
        E 32 b8 05 72
        E 32 b8 05 72
        E 32 b8 05 72
        E 32 b8 05 72
        E 32 b8 05 72
        E 32 b8 05 71
        E 32 b8 05 71
        E 32 b8 05 70
        E 32 b8 05 6f
        E 32 b8 05 6e
        E 32 b8 05 6d
        E 32 b8 05 6c
        E 32 b8 05 6b
        E 32 b8 05 69
        E 32 b8 05 68
        E 32 b8 05 66
        E 32 b8 05 64
        E 32 b8 05 63
        E 32 b8 05 61
        E 32 b8 05 5e
        E 32 b8 05 5c
        E 32 b8 05 5a
        E 32 b8 05 58
        E 32 b8 05 55
        E 32 b8 05 52
        E 32 b8 05 50
        E 32 b8 05 4e
        E 32 b8 05 4b
        E 32 b8 05 48
        E 32 b8 05 46
        E 32 b8 05 42
        E 32 b8 05 3f
        E 32 b8 05 3d
        E 32 b8 05 3a
        E 32 b8 05 37
        E 32 b8 05 35
        E 32 b8 05 32
        E 32 b8 05 2f
        E 32 b8 05 2c
        E 32 b8 05 29
        E 32 b8 05 26
        E 32 b8 05 24
        E 32 b8 05 22
        E 32 b8 05 1f
        E 32 b8 05 1c
        E 32 b8 05 1a
        E 32 b8 05 18
        E 32 b8 05 15
        E 32 b8 05 13
        E 32 b8 05 11
        E 32 b8 05 0f
        E 32 b8 05 0d
        E 32 b8 05 0b
        E 32 b8 05 09
        E 32 b8 05 09
        E 32 b8 05 07
        E 32 b8 05 06
        E 32 b8 05 04
        E 32 b8 05 03
        E 32 b8 05 02
        E 32 b8 05 01
        E 32 b8 05 00
        E 32 b8 05 00
        E 32 b8 05 00
        E 32 b8 05 00
        E 32 b8 05 00
        E 32 b8 05 00
        E 32 b8 05 00
        E 32 b8 05 00
        E 32 b8 05 00
        E 32 b8 05 01
        E 32 b8 05 02
        E 32 b8 05 03
        E 32 b8 05 04
        E 32 b8 05 05
        E 32 b8 05 06
        E 32 b8 05 08
        E 32 b8 05 09
        E 32 b8 05 0a
        E 32 b8 05 0c
        E 32 b8 05 0e
        E 32 b8 05 10
        E 32 b8 05 12
        E 32 b8 05 14
        E 32 b8 05 16
        E 32 b8 05 19
        E 32 b8 05 1b
        E 32 b8 05 1d
        E 32 b8 05 20
        E 32 b8 05 23
        E 32 b8 05 25
        E 32 b8 05 28
        E 32 b8 05 2b
        E 32 b8 05 2d
        E 32 b8 05 30
        E 32 b8 05 33
        E 32 b8 05 36
        E 32 b8 05 39
        E 23 b8 05 20
        E 23 b8 05 21
        E 23 b8 05 23
        E 23 b8 05 24
        E 23 b8 05 26
        E 23 b8 05 27
        E 23 b8 05 29
        E 23 b8 05 2a
        E 23 b8 05 2c
        E 23 b8 05 2d
        E 23 b8 05 2f
        E 23 b8 05 30
        E 23 b8 05 31
        E 23 b8 05 33
        E 23 b8 05 34
        E 23 b8 05 35
        E 23 b8 05 36
        E 23 b8 05 37
        E 23 b8 05 38
        E 23 b8 05 39
        E 23 b8 05 3a
        E 23 b8 05 3b
        E 23 b8 05 3c
        E 23 b8 05 3c
        E 23 b8 05 3d
        E 23 b8 05 3d
        E 23 b8 05 3e
        E 23 b8 05 3e
        E 23 b8 05 3f
        E 23 b8 05 3f
        E 23 b8 05 3f
        E 23 b8 05 3f
        E 23 b8 05 3f
        E 23 b8 05 3f
        E 23 b8 05 3f
        E 23 b8 05 3f
        E 23 b8 05 3f
        E 23 b8 05 3e
        E 23 b8 05 3e
        E 23 b8 05 3d
        E 23 b8 05 3d
        E 23 b8 05 3c
        E 23 b8 05 3b
        E 23 b8 05 3a
        E 23 b8 05 3a
        E 23 b8 05 39
        E 23 b8 05 38
        E 23 b8 05 37
        E 23 b8 05 36
        E 23 b8 05 34
        E 23 b8 05 33
        E 23 b8 05 32
        E 23 b8 05 31
        E 23 b8 05 2f
        E 23 b8 05 2e
        E 23 b8 05 2c
        E 23 b8 05 2b
        E 23 b8 05 2a
        E 23 b8 05 28
        E 23 b8 05 27
        E 23 b8 05 25
        E 23 b8 05 23
        E 23 b8 05 22
        E 23 b8 05 20
        E 23 b8 05 1f
        E 23 b8 05 1d
        E 23 b8 05 1c
        E 23 b8 05 1a
        E 23 b8 05 18
        E 23 b8 05 17
        E 23 b8 05 15
        E 23 b8 05 14
        E 23 b8 05 13
        E 23 b8 05 11
        E 23 b8 05 10
        E 23 b8 05 0e
        E 23 b8 05 0d
        E 23 b8 05 0c
        E 23 b8 05 0b
        E 23 b8 05 09
        E 23 b8 05 08
        E 23 b8 05 07
        E 23 b8 05 06
        E 23 b8 05 05
        E 23 b8 05 05
        E 23 b8 05 04
        E 23 b8 05 03
        E 23 b8 05 02
        E 23 b8 05 02
        E 23 b8 05 01
        E 23 b8 05 01
        E 23 b8 05 00
        E 23 b8 05 00
        E 23 b8 05 00
        E 23 b8 05 00
        E 23 b8 05 00
        E 23 b8 05 00
        E 23 b8 05 00
        E 23 b8 05 00
        E 23 b8 05 00
        E 23 b8 05 01
        E 23 b8 05 01
        E 23 b8 05 02
        E 23 b8 05 02
        E 23 b8 05 03
        E 23 b8 05 03
        E 23 b8 05 04
        E 23 b8 05 05
        E 23 b8 05 06
        E 23 b8 05 07
        E 23 b8 05 08
        E 23 b8 05 09
        E 23 b8 05 0a
        E 23 b8 05 0b
        E 23 b8 05 0c
        E 23 b8 05 0e
        E 23 b8 05 0f
        E 23 b8 05 10
        E 23 b8 05 12
        E 23 b8 05 13
        E 23 b8 05 15
        E 23 b8 05 16
        E 23 b8 05 18
        E 23 b8 05 19
        E 23 b8 05 1b
        E 23 b8 05 1c
        E 23 b8 05 1e
        E 23 b8 05 20
        E 23 b8 05 20
        E 23 b8 05 21
        E 23 b8 05 23
        E 23 b8 05 24
        E 23 b8 05 26
        E 23 b8 05 27
        E 23 b8 05 29
        E 23 b8 05 2a
        E 23 b8 05 2c
        E 23 b8 05 2d
        E 23 b8 05 2f
        E 23 b8 05 30
        E 23 b8 05 31
        E 23 b8 05 33
        E 23 b8 05 34
        E 23 b8 05 35
        E 23 b8 05 36
        E 23 b8 05 37
        E 23 b8 05 38
        E 23 b8 05 39
        E 23 b8 05 3a
        E 23 b8 05 3b
        E 23 b8 05 3c
        E 23 b8 05 3c
        E 23 b8 05 3d
        E 23 b8 05 3d
        E 23 b8 05 3e
        E 23 b8 05 3e
        E 23 b8 05 3f
        E 23 b8 05 3f
        E 23 b8 05 3f
        E 23 b8 05 3f
        E 23 b8 05 3f
        E 23 b8 05 3f
        E 23 b8 05 3f
        E 23 b8 05 3f
        E 23 b8 05 3f
        E 23 b8 05 3e
        E 23 b8 05 3e
        E 23 b8 05 3d
        E 23 b8 05 3d
        E 23 b8 05 3c
        E 23 b8 05 3b
        E 23 b8 05 3a
        E 23 b8 05 3a
        E 23 b8 05 39
        E 23 b8 05 38
        E 23 b8 05 37
        E 23 b8 05 36
        E 23 b8 05 34
        E 23 b8 05 33
        E 23 b8 05 32
        E 23 b8 05 31
        E 23 b8 05 2f
        E 23 b8 05 2e
        E 23 b8 05 2c
        E 23 b8 05 2b
        E 23 b8 05 2a
        E 23 b8 05 28
        E 23 b8 05 27
        E 23 b8 05 25
        E 23 b8 05 23
        E 23 b8 05 22
        E 23 b8 05 20
        E 23 b8 05 1f
        E 23 b8 05 1d
        E 23 b8 05 1c
        E 23 b8 05 1a
        E 23 b8 05 18
        E 23 b8 05 17
        E 23 b8 05 15
        E 23 b8 05 14
        E 23 b8 05 13
        E 23 b8 05 11
        E 23 b8 05 10
        E 23 b8 05 0e
        E 23 b8 05 0d
        E 23 b8 05 0c
        E 23 b8 05 0b
        E 23 b8 05 09
        E 23 b8 05 08
        E 23 b8 05 07
        E 23 b8 05 06
        E 23 b8 05 05
        E 23 b8 05 05
        E 23 b8 05 04
        E 23 b8 05 03
        E 23 b8 05 02
        E 23 b8 05 02
        E 23 b8 05 01
        E 23 b8 05 01
        E 23 b8 05 00
        E 23 b8 05 00
        E 23 b8 05 00
        E 23 b8 05 00
        E 23 b8 05 00
        E 23 b8 05 00
        E 23 b8 05 00
        E 23 b8 05 00
        E 23 b8 05 00
        E 23 b8 05 01
        E 23 b8 05 01
        E 23 b8 05 02
        E 23 b8 05 02
        E 23 b8 05 03
        E 23 b8 05 03
        E 23 b8 05 04
        E 23 b8 05 05
        E 23 b8 05 06
        E 23 b8 05 07
        E 23 b8 05 08
        E 23 b8 05 09
        E 23 b8 05 0a
        E 23 b8 05 0b
        E 23 b8 05 0c
        E 23 b8 05 0e
        E 23 b8 05 0f
        E 23 b8 05 10
        E 23 b8 05 12
        E 23 b8 05 13
        E 23 b8 05 15
        E 23 b8 05 16
        E 23 b8 05 18
        E 23 b8 05 19
        E 23 b8 05 1b
        E 23 b8 05 1c
        E 23 b8 05 1e
        E 23 b8 05 20
        E 47 b8 05 2c
        E 47 b8 05 2e
        E 47 b8 05 31
        E 47 b8 05 33
        E 47 b8 05 35
        E 47 b8 05 37
        E 47 b8 05 39
        E 47 b8 05 3b
        E 47 b8 05 3d
        E 47 b8 05 3f
        E 47 b8 05 41
        E 47 b8 05 43
        E 47 b8 05 45
        E 47 b8 05 47
        E 47 b8 05 48
        E 47 b8 05 4a
        E 47 b8 05 4c
        E 47 b8 05 4d
        E 47 b8 05 4f
        E 47 b8 05 50
        E 47 b8 05 51
        E 47 b8 05 52
        E 47 b8 05 54
        E 47 b8 05 54
        E 47 b8 05 55
        E 47 b8 05 56
        E 47 b8 05 56
        E 47 b8 05 57
        E 47 b8 05 58
        E 47 b8 05 58
        E 47 b8 05 58
        E 47 b8 05 58
        E 47 b8 05 58
        E 47 b8 05 58
        E 47 b8 05 58
        E 47 b8 05 58
        E 47 b8 05 58
        E 47 b8 05 57
        E 47 b8 05 56
        E 47 b8 05 56
        E 47 b8 05 55
        E 47 b8 05 54
        E 47 b8 05 53
        E 47 b8 05 51
        E 47 b8 05 51
        E 47 b8 05 4f
        E 47 b8 05 4e
        E 47 b8 05 4d
        E 47 b8 05 4b
        E 47 b8 05 49
        E 47 b8 05 48
        E 47 b8 05 46
        E 47 b8 05 44
        E 47 b8 05 42
        E 47 b8 05 40
        E 47 b8 05 3e
        E 47 b8 05 3c
        E 47 b8 05 3a
        E 47 b8 05 38
        E 47 b8 05 36
        E 47 b8 05 33
        E 47 b8 05 31
        E 47 b8 05 2f
        E 47 b8 05 2d
        E 47 b8 05 2b
        E 47 b8 05 29
        E 47 b8 05 27
        E 47 b8 05 25
        E 47 b8 05 22
        E 47 b8 05 20
        E 47 b8 05 1e
        E 47 b8 05 1c
        E 47 b8 05 1a
        E 47 b8 05 18
        E 47 b8 05 16
        E 47 b8 05 14
        E 47 b8 05 12
        E 47 b8 05 10
        E 47 b8 05 0f
        E 47 b8 05 0d
        E 47 b8 05 0b
        E 47 b8 05 0a
        E 47 b8 05 09
        E 47 b8 05 07
        E 47 b8 05 07
        E 47 b8 05 05
        E 47 b8 05 04
        E 47 b8 05 03
        E 47 b8 05 02
        E 47 b8 05 02
        E 47 b8 05 01
        E 47 b8 05 00
        E 47 b8 05 00
        E 47 b8 05 00
        E 47 b8 05 00
        E 47 b8 05 00
        E 47 b8 05 00
        E 47 b8 05 00
        E 47 b8 05 00
        E 47 b8 05 00
        E 47 b8 05 01
        E 47 b8 05 02
        E 47 b8 05 02
        E 47 b8 05 03
        E 47 b8 05 04
        E 47 b8 05 04
        E 47 b8 05 06
        E 47 b8 05 07
        E 47 b8 05 08
        E 47 b8 05 09
        E 47 b8 05 0b
        E 47 b8 05 0c
        E 47 b8 05 0e
        E 47 b8 05 10
        E 47 b8 05 11
        E 47 b8 05 13
        E 47 b8 05 15
        E 47 b8 05 17
        E 47 b8 05 19
        E 47 b8 05 1b
        E 47 b8 05 1d
        E 47 b8 05 1f
        E 47 b8 05 21
        E 47 b8 05 23
        E 47 b8 05 25
        E 47 b8 05 27
        E 47 b8 05 2a
        E 47 b8 05 2c
        E 42 b8 05 33
        E 42 b8 05 35
        E 42 b8 05 37
        E 42 b8 05 3a
        E 42 b8 05 3c
        E 42 b8 05 3f
        E 42 b8 05 41
        E 42 b8 05 44
        E 42 b8 05 46
        E 42 b8 05 48
        E 42 b8 05 4b
        E 42 b8 05 4c
        E 42 b8 05 4f
        E 42 b8 05 51
        E 42 b8 05 53
        E 42 b8 05 54
        E 42 b8 05 57
        E 42 b8 05 58
        E 42 b8 05 5a
        E 42 b8 05 5b
        E 42 b8 05 5d
        E 42 b8 05 5e
        E 42 b8 05 5f
        E 42 b8 05 60
        E 42 b8 05 61
        E 42 b8 05 62
        E 42 b8 05 63
        E 42 b8 05 63
        E 42 b8 05 64
        E 42 b8 05 64
        E 42 b8 05 65
        E 42 b8 05 65
        E 42 b8 05 65
        E 42 b8 05 65
        E 42 b8 05 65
        E 42 b8 05 64
        E 42 b8 05 64
        E 42 b8 05 63
        E 42 b8 05 63
        E 42 b8 05 62
        E 42 b8 05 61
        E 42 b8 05 5f
        E 42 b8 05 5f
        E 42 b8 05 5d
        E 42 b8 05 5c
        E 42 b8 05 5b
        E 42 b8 05 59
        E 42 b8 05 57
        E 42 b8 05 56
        E 42 b8 05 54
        E 42 b8 05 52
        E 42 b8 05 50
        E 42 b8 05 4e
        E 42 b8 05 4c
        E 42 b8 05 49
        E 42 b8 05 47
        E 42 b8 05 45
        E 42 b8 05 43
        E 42 b8 05 40
        E 42 b8 05 3e
        E 42 b8 05 3b
        E 42 b8 05 38
        E 42 b8 05 36
        E 42 b8 05 33
        E 42 b8 05 31
        E 42 b8 05 2f
        E 42 b8 05 2c
        E 42 b8 05 2a
        E 42 b8 05 27
        E 42 b8 05 24
        E 42 b8 05 22
        E 42 b8 05 1f
        E 42 b8 05 1e
        E 42 b8 05 1b
        E 42 b8 05 19
        E 42 b8 05 17
        E 42 b8 05 15
        E 42 b8 05 13
        E 42 b8 05 11
        E 42 b8 05 0f
        E 42 b8 05 0d
        E 42 b8 05 0b
        E 42 b8 05 0a
        E 42 b8 05 08
        E 42 b8 05 07
        E 42 b8 05 06
        E 42 b8 05 05
        E 42 b8 05 03
        E 42 b8 05 03
        E 42 b8 05 02
        E 42 b8 05 01
        E 42 b8 05 00
        E 42 b8 05 00
        E 42 b8 05 00
        E 42 b8 05 00
        E 42 b8 05 00
        E 42 b8 05 00
        E 42 b8 05 00
        E 42 b8 05 00
        E 42 b8 05 00
        E 42 b8 05 01
        E 42 b8 05 02
        E 42 b8 05 03
        E 42 b8 05 03
        E 42 b8 05 04
        E 42 b8 05 05
        E 42 b8 05 07
        E 42 b8 05 07
        E 42 b8 05 09
        E 42 b8 05 0b
        E 42 b8 05 0c
        E 42 b8 05 0e
        E 42 b8 05 10
        E 42 b8 05 12
        E 42 b8 05 14
        E 42 b8 05 16
        E 42 b8 05 18
        E 42 b8 05 1a
        E 42 b8 05 1c
        E 42 b8 05 1f
        E 42 b8 05 21
        E 42 b8 05 24
        E 42 b8 05 26
        E 42 b8 05 28
        E 42 b8 05 2b
        E 42 b8 05 2d
        E 42 b8 05 2f
        E 42 b8 05 33
        E 47 b8 05 06
        E 47 b8 05 06
        E 47 b8 05 07
        E 47 b8 05 07
        E 47 b8 05 07
        E 47 b8 05 07
        E 47 b8 05 08
        E 47 b8 05 08
        E 47 b8 05 08
        E 47 b8 05 09
        E 47 b8 05 09
        E 47 b8 05 09
        E 47 b8 05 09
        E 47 b8 05 0a
        E 47 b8 05 0a
        E 47 b8 05 0a
        E 47 b8 05 0a
        E 47 b8 05 0b
        E 47 b8 05 0b
        E 47 b8 05 0b
        E 47 b8 05 0b
        E 47 b8 05 0b
        E 47 b8 05 0c
        E 47 b8 05 0c
        E 47 b8 05 0c
        E 47 b8 05 0c
        E 47 b8 05 0c
        E 47 b8 05 0c
        E 47 b8 05 0c
        E 47 b8 05 0c
        E 47 b8 05 0c
        E 47 b8 05 0c
        E 47 b8 05 0c
        E 47 b8 05 0c
        E 47 b8 05 0c
        E 47 b8 05 0c
        E 47 b8 05 0c
        E 47 b8 05 0c
        E 47 b8 05 0c
        E 47 b8 05 0c
        E 47 b8 05 0c
        E 47 b8 05 0c
        E 47 b8 05 0b
        E 47 b8 05 0b
        E 47 b8 05 0b
        E 47 b8 05 0b
        E 47 b8 05 0b
        E 47 b8 05 0b
        E 47 b8 05 0a
        E 47 b8 05 0a
        E 47 b8 05 0a
        E 47 b8 05 0a
        E 47 b8 05 09
        E 47 b8 05 09
        E 47 b8 05 09
        E 47 b8 05 08
        E 47 b8 05 08
        E 47 b8 05 08
        E 47 b8 05 08
        E 47 b8 05 07
        E 47 b8 05 07
        E 47 b8 05 07
        E 47 b8 05 06
        E 47 b8 05 06
        E 47 b8 05 06
        E 47 b8 05 05
        E 47 b8 05 05
        E 47 b8 05 05
        E 47 b8 05 04
        E 47 b8 05 04
        E 47 b8 05 04
        E 47 b8 05 04
        E 47 b8 05 03
        E 47 b8 05 03
        E 47 b8 05 03
        E 47 b8 05 02
        E 47 b8 05 02
        E 47 b8 05 02
        E 47 b8 05 02
        E 47 b8 05 01
        E 47 b8 05 01
        E 47 b8 05 01
        E 47 b8 05 01
        E 47 b8 05 01
        E 47 b8 05 01
        E 47 b8 05 00
        E 47 b8 05 00
        E 47 b8 05 00
        E 47 b8 05 00
        E 47 b8 05 00
        E 47 b8 05 00
        E 47 b8 05 00
        E 47 b8 05 00
        E 47 b8 05 00
        E 47 b8 05 00
        E 47 b8 05 00
        E 47 b8 05 00
        E 47 b8 05 00
        E 47 b8 05 00
        E 47 b8 05 00
        E 47 b8 05 00
        E 47 b8 05 00
        E 47 b8 05 00
        E 47 b8 05 00
        E 47 b8 05 00
        E 47 b8 05 00
        E 47 b8 05 00
        E 47 b8 05 01
        E 47 b8 05 01
        E 47 b8 05 01
        E 47 b8 05 01
        E 47 b8 05 01
        E 47 b8 05 02
        E 47 b8 05 02
        E 47 b8 05 02
        E 47 b8 05 02
        E 47 b8 05 03
        E 47 b8 05 03
        E 47 b8 05 03
        E 47 b8 05 03
        E 47 b8 05 04
        E 47 b8 05 04
        E 47 b8 05 04
        E 47 b8 05 05
        E 47 b8 05 05
        E 47 b8 05 05
        E 47 b8 05 06
        E 47 b8 05 06
        E 42 b8 05 19
        E 42 b8 05 1a
        E 42 b8 05 1c
        E 42 b8 05 1d
        E 42 b8 05 1e
        E 42 b8 05 1f
        E 42 b8 05 20
        E 42 b8 05 22
        E 42 b8 05 23
        E 42 b8 05 24
        E 42 b8 05 25
        E 42 b8 05 26
        E 42 b8 05 27
        E 42 b8 05 28
        E 42 b8 05 29
        E 42 b8 05 2a
        E 42 b8 05 2b
        E 42 b8 05 2c
        E 42 b8 05 2d
        E 42 b8 05 2e
        E 42 b8 05 2e
        E 42 b8 05 2f
        E 42 b8 05 30
        E 42 b8 05 30
        E 42 b8 05 30
        E 42 b8 05 31
        E 42 b8 05 31
        E 42 b8 05 32
        E 42 b8 05 32
        E 42 b8 05 32
        E 42 b8 05 32
        E 42 b8 05 32
        E 42 b8 05 32
        E 42 b8 05 32
        E 42 b8 05 32
        E 42 b8 05 32
        E 42 b8 05 32
        E 42 b8 05 32
        E 42 b8 05 31
        E 42 b8 05 31
        E 42 b8 05 30
        E 42 b8 05 30
        E 42 b8 05 2f
        E 42 b8 05 2e
        E 42 b8 05 2e
        E 42 b8 05 2d
        E 42 b8 05 2c
        E 42 b8 05 2c
        E 42 b8 05 2b
        E 42 b8 05 2a
        E 42 b8 05 29
        E 42 b8 05 28
        E 42 b8 05 27
        E 42 b8 05 26
        E 42 b8 05 24
        E 42 b8 05 23
        E 42 b8 05 22
        E 42 b8 05 21
        E 42 b8 05 20
        E 42 b8 05 1f
        E 42 b8 05 1d
        E 42 b8 05 1c
        E 42 b8 05 1b
        E 42 b8 05 1a
        E 42 b8 05 18
        E 42 b8 05 17
        E 42 b8 05 16
        E 42 b8 05 15
        E 42 b8 05 13
        E 42 b8 05 12
        E 42 b8 05 11
        E 42 b8 05 10
        E 42 b8 05 0f
        E 42 b8 05 0e
        E 42 b8 05 0c
        E 42 b8 05 0b
        E 42 b8 05 0a
        E 42 b8 05 09
        E 42 b8 05 08
        E 42 b8 05 07
        E 42 b8 05 06
        E 42 b8 05 06
        E 42 b8 05 05
        E 42 b8 05 04
        E 42 b8 05 04
        E 42 b8 05 03
        E 42 b8 05 02
        E 42 b8 05 02
        E 42 b8 05 01
        E 42 b8 05 01
        E 42 b8 05 00
        E 42 b8 05 00
        E 42 b8 05 00
        E 42 b8 05 00
        E 42 b8 05 00
        E 42 b8 05 00
        E 42 b8 05 00
        E 42 b8 05 00
        E 42 b8 05 00
        E 42 b8 05 00
        E 42 b8 05 00
        E 42 b8 05 01
        E 42 b8 05 01
        E 42 b8 05 02
        E 42 b8 05 02
        E 42 b8 05 02
        E 42 b8 05 03
        E 42 b8 05 04
        E 42 b8 05 04
        E 42 b8 05 05
        E 42 b8 05 06
        E 42 b8 05 07
        E 42 b8 05 08
        E 42 b8 05 09
        E 42 b8 05 0a
        E 42 b8 05 0b
        E 42 b8 05 0c
        E 42 b8 05 0d
        E 42 b8 05 0e
        E 42 b8 05 0f
        E 42 b8 05 10
        E 42 b8 05 12
        E 42 b8 05 13
        E 42 b8 05 14
        E 42 b8 05 15
        E 42 b8 05 16
        E 42 b8 05 18
        E 42 b8 05 19
        E 31 b8 05 3f
        E 31 b8 05 3f
        E 31 b8 05 3f
        E 31 b8 05 3f
        E 31 b8 05 3f
        E 31 b8 05 3f
        E 31 b8 05 3f
        E 31 b8 05 3f
        E 31 b8 05 3f
        E 31 b8 05 3f
        E 31 b8 05 3f
        E 31 b8 05 3f
        E 31 b8 05 3f
        E 31 b8 05 3f
        E 31 b8 05 3f
        E 31 b8 05 3f
        E 31 b8 05 3f
        E 31 b8 05 3f
        E 31 b8 05 3f
        E 31 b8 05 3f
        E 31 b8 05 3f
        E 31 b8 05 3f
        E 31 b8 05 3f
        E 31 b8 05 3f
        E 31 b8 05 3f
        E 31 b8 05 3f
        E 31 b8 05 3f
        E 31 b8 05 3f
        E 31 b8 05 3f
        E 31 b8 05 3f
        E 31 b8 05 3f
        E 31 b8 05 3f
        E 31 b8 05 3f
        E 31 b8 05 3f
        E 31 b8 05 3f
        E 31 b8 05 3f
        E 31 b8 05 3f
        E 31 b8 05 3f
        E 31 b8 05 3f
        E 31 b8 05 3f
        E 31 b8 05 3f
        E 31 b8 05 3f
        E 31 b8 05 3f
        E 31 b8 05 3f
        E 31 b8 05 3f
        E 31 b8 05 3f
        E 31 b8 05 3f
        E 31 b8 05 3f
        E 31 b8 05 3f
        E 31 b8 05 3f
        E 31 b8 05 3f
        E 31 b8 05 3f
        E 31 b8 05 3f
        E 31 b8 05 3f
        E 31 b8 05 3f
        E 31 b8 05 3f
        E 31 b8 05 3f
        E 31 b8 05 3f
        E 31 b8 05 3f
        E 31 b8 05 3f
        E 31 b8 05 3f
        E 31 b8 05 3f
        E 31 b8 05 3f
        E 31 b8 05 00
        E 31 b8 05 00
        E 31 b8 05 00
        E 31 b8 05 00
        E 31 b8 05 00
        E 31 b8 05 00
        E 31 b8 05 00
        E 31 b8 05 00
        E 31 b8 05 00
        E 31 b8 05 00
        E 31 b8 05 00
        E 31 b8 05 00
        E 31 b8 05 00
        E 31 b8 05 00
        E 31 b8 05 00
        E 31 b8 05 00
        E 31 b8 05 00
        E 31 b8 05 00
        E 31 b8 05 00
        E 31 b8 05 00
        E 31 b8 05 00
        E 31 b8 05 00
        E 31 b8 05 00
        E 31 b8 05 00
        E 31 b8 05 00
        E 31 b8 05 00
        E 31 b8 05 00
        E 31 b8 05 00
        E 31 b8 05 00
        E 31 b8 05 00
        E 31 b8 05 00
        E 31 b8 05 00
        E 31 b8 05 00
        E 31 b8 05 00
        E 31 b8 05 00
        E 31 b8 05 00
        E 31 b8 05 00
        E 31 b8 05 00
        E 31 b8 05 00
        E 31 b8 05 00
        E 31 b8 05 00
        E 31 b8 05 00
        E 31 b8 05 00
        E 31 b8 05 00
        E 31 b8 05 00
        E 31 b8 05 00
        E 31 b8 05 00
        E 31 b8 05 00
        E 31 b8 05 00
        E 31 b8 05 00
        E 31 b8 05 00
        E 31 b8 05 00
        E 31 b8 05 00
        E 31 b8 05 00
        E 31 b8 05 00
        E 31 b8 05 00
        E 31 b8 05 00
        E 31 b8 05 00
        E 31 b8 05 00
        E 31 b8 05 00
        E 31 b8 05 00
        E 31 b8 05 00
        E 31 b8 05 00
        E 31 b8 05 00
        E 36 b8 05 7f
        E 36 b8 05 7f
        E 36 b8 05 7f
        E 36 b8 05 7f
        E 36 b8 05 7f
        E 36 b8 05 7f
        E 36 b8 05 7f
        E 36 b8 05 7f
        E 36 b8 05 7f
        E 36 b8 05 7f
        E 36 b8 05 7f
        E 36 b8 05 7f
        E 36 b8 05 7f
        E 36 b8 05 7f
        E 36 b8 05 7f
        E 36 b8 05 7f
        E 36 b8 05 7f
        E 36 b8 05 7f
        E 36 b8 05 7f
        E 36 b8 05 7f
        E 36 b8 05 7f
        E 36 b8 05 7f
        E 36 b8 05 7f
        E 36 b8 05 7f
        E 36 b8 05 7f
        E 36 b8 05 7f
        E 36 b8 05 7f
        E 36 b8 05 7f
        E 36 b8 05 7f
        E 36 b8 05 7f
        E 36 b8 05 7f
        E 36 b8 05 7f
        E 36 b8 05 7f
        E 36 b8 05 7f
        E 36 b8 05 7f
        E 36 b8 05 7f
        E 36 b8 05 7f
        E 36 b8 05 7f
        E 36 b8 05 7f
        E 36 b8 05 7f
        E 36 b8 05 7f
        E 36 b8 05 7f
        E 36 b8 05 7f
        E 36 b8 05 7f
        E 36 b8 05 7f
        E 36 b8 05 7f
        E 36 b8 05 7f
        E 36 b8 05 7f
        E 36 b8 05 7f
        E 36 b8 05 7f
        E 36 b8 05 7f
        E 36 b8 05 7f
        E 36 b8 05 7f
        E 36 b8 05 7f
        E 36 b8 05 7f
        E 36 b8 05 7f
        E 36 b8 05 7f
        E 36 b8 05 7f
        E 36 b8 05 7f
        E 36 b8 05 7f
        E 36 b8 05 7f
        E 36 b8 05 7f
        E 36 b8 05 7f
        E 36 b8 05 00
        E 36 b8 05 00
        E 36 b8 05 00
        E 36 b8 05 00
        E 36 b8 05 00
        E 36 b8 05 00
        E 36 b8 05 00
        E 36 b8 05 00
        E 36 b8 05 00
        E 36 b8 05 00
        E 36 b8 05 00
        E 36 b8 05 00
        E 36 b8 05 00
        E 36 b8 05 00
        E 36 b8 05 00
        E 36 b8 05 00
        E 36 b8 05 00
        E 36 b8 05 00
        E 36 b8 05 00
        E 36 b8 05 00
        E 36 b8 05 00
        E 36 b8 05 00
        E 36 b8 05 00
        E 36 b8 05 00
        E 36 b8 05 00
        E 36 b8 05 00
        E 36 b8 05 00
        E 36 b8 05 00
        E 36 b8 05 00
        E 36 b8 05 00
        E 36 b8 05 00
        E 36 b8 05 00
        E 36 b8 05 00
        E 36 b8 05 00
        E 36 b8 05 00
        E 36 b8 05 00
        E 36 b8 05 00
        E 36 b8 05 00
        E 36 b8 05 00
        E 36 b8 05 00
        E 36 b8 05 00
        E 36 b8 05 00
        E 36 b8 05 00
        E 36 b8 05 00
        E 36 b8 05 00
        E 36 b8 05 00
        E 36 b8 05 00
        E 36 b8 05 00
        E 36 b8 05 00
        E 36 b8 05 00
        E 36 b8 05 00
        E 36 b8 05 00
        E 36 b8 05 00
        E 36 b8 05 00
        E 36 b8 05 00
        E 36 b8 05 00
        E 36 b8 05 00
        E 36 b8 05 00
        E 36 b8 05 00
        E 36 b8 05 00
        E 36 b8 05 00
        E 36 b8 05 00
        E 36 b8 05 00
        E 36 b8 05 00
        E 4 b8 05 72
        E 4 b8 05 72
        E 4 b8 05 72
        E 4 b8 05 72
        E 4 b8 05 72
        E 4 b8 05 72
        E 4 b8 05 72
        E 4 b8 05 72
        E 4 b8 05 72
        E 4 b8 05 72
        E 4 b8 05 72
        E 4 b8 05 72
        E 4 b8 05 72
        E 4 b8 05 72
        E 4 b8 05 72
        E 4 b8 05 72
        E 4 b8 05 72
        E 4 b8 05 72
        E 4 b8 05 72
        E 4 b8 05 72
        E 4 b8 05 72
        E 4 b8 05 72
        E 4 b8 05 72
        E 4 b8 05 72
        E 4 b8 05 72
        E 4 b8 05 72
        E 4 b8 05 72
        E 4 b8 05 72
        E 4 b8 05 72
        E 4 b8 05 72
        E 4 b8 05 72
        E 4 b8 05 72
        E 4 b8 05 72
        E 4 b8 05 72
        E 4 b8 05 72
        E 4 b8 05 72
        E 4 b8 05 72
        E 4 b8 05 72
        E 4 b8 05 72
        E 4 b8 05 72
        E 4 b8 05 72
        E 4 b8 05 72
        E 4 b8 05 72
        E 4 b8 05 72
        E 4 b8 05 72
        E 4 b8 05 72
        E 4 b8 05 72
        E 4 b8 05 72
        E 4 b8 05 72
        E 4 b8 05 72
        E 4 b8 05 72
        E 4 b8 05 72
        E 4 b8 05 72
        E 4 b8 05 72
        E 4 b8 05 72
        E 4 b8 05 72
        E 4 b8 05 72
        E 4 b8 05 72
        E 4 b8 05 72
        E 4 b8 05 72
        E 4 b8 05 72
        E 4 b8 05 72
        E 4 b8 05 72
        E 4 b8 05 00
        E 4 b8 05 00
        E 4 b8 05 00
        E 4 b8 05 00
        E 4 b8 05 00
        E 4 b8 05 00
        E 4 b8 05 00
        E 4 b8 05 00
        E 4 b8 05 00
        E 4 b8 05 00
        E 4 b8 05 00
        E 4 b8 05 00
        E 4 b8 05 00
        E 4 b8 05 00
        E 4 b8 05 00
        E 4 b8 05 00
        E 4 b8 05 00
        E 4 b8 05 00
        E 4 b8 05 00
        E 4 b8 05 00
        E 4 b8 05 00
        E 4 b8 05 00
        E 4 b8 05 00
        E 4 b8 05 00
        E 4 b8 05 00
        E 4 b8 05 00
        E 4 b8 05 00
        E 4 b8 05 00
        E 4 b8 05 00
        E 4 b8 05 00
        E 4 b8 05 00
        E 4 b8 05 00
        E 4 b8 05 00
        E 4 b8 05 00
        E 4 b8 05 00
        E 4 b8 05 00
        E 4 b8 05 00
        E 4 b8 05 00
        E 4 b8 05 00
        E 4 b8 05 00
        E 4 b8 05 00
        E 4 b8 05 00
        E 4 b8 05 00
        E 4 b8 05 00
        E 4 b8 05 00
        E 4 b8 05 00
        E 4 b8 05 00
        E 4 b8 05 00
        E 4 b8 05 00
        E 4 b8 05 00
        E 4 b8 05 00
        E 4 b8 05 00
        E 4 b8 05 00
        E 4 b8 05 00
        E 4 b8 05 00
        E 4 b8 05 00
        E 4 b8 05 00
        E 4 b8 05 00
        E 4 b8 05 00
        E 4 b8 05 00
        E 4 b8 05 00
        E 4 b8 05 00
        E 4 b8 05 00
        E 4 b8 05 00
        E 18 b8 05 7f
        E 18 b8 05 7f
        E 18 b8 05 7f
        E 18 b8 05 7f
        E 18 b8 05 7f
        E 18 b8 05 7f
        E 18 b8 05 7f
        E 18 b8 05 7f
        E 18 b8 05 7f
        E 18 b8 05 7f
        E 18 b8 05 7f
        E 18 b8 05 7f
        E 18 b8 05 7f
        E 18 b8 05 7f
        E 18 b8 05 7f
        E 18 b8 05 7f
        E 18 b8 05 7f
        E 18 b8 05 7f
        E 18 b8 05 7f
        E 18 b8 05 7f
        E 18 b8 05 7f
        E 18 b8 05 7f
        E 18 b8 05 7f
        E 18 b8 05 7f
        E 18 b8 05 7f
        E 18 b8 05 7f
        E 18 b8 05 7f
        E 18 b8 05 7f
        E 18 b8 05 7f
        E 18 b8 05 7f
        E 18 b8 05 7f
        E 18 b8 05 7f
        E 18 b8 05 7f
        E 18 b8 05 7f
        E 18 b8 05 7f
        E 18 b8 05 7f
        E 18 b8 05 7f
        E 18 b8 05 7f
        E 18 b8 05 7f
        E 18 b8 05 7f
        E 18 b8 05 7f
        E 18 b8 05 7f
        E 18 b8 05 7f
        E 18 b8 05 7f
        E 18 b8 05 7f
        E 18 b8 05 7f
        E 18 b8 05 7f
        E 18 b8 05 7f
        E 18 b8 05 7f
        E 18 b8 05 7f
        E 18 b8 05 7f
        E 18 b8 05 7f
        E 18 b8 05 7f
        E 18 b8 05 7f
        E 18 b8 05 7f
        E 18 b8 05 7f
        E 18 b8 05 7f
        E 18 b8 05 7f
        E 18 b8 05 7f
        E 18 b8 05 7f
        E 18 b8 05 7f
        E 18 b8 05 7f
        E 18 b8 05 7f
        E 18 b8 05 00
        E 18 b8 05 00
        E 18 b8 05 00
        E 18 b8 05 00
        E 18 b8 05 00
        E 18 b8 05 00
        E 18 b8 05 00
        E 18 b8 05 00
        E 18 b8 05 00
        E 18 b8 05 00
        E 18 b8 05 00
        E 18 b8 05 00
        E 18 b8 05 00
        E 18 b8 05 00
        E 18 b8 05 00
        E 18 b8 05 00
        E 18 b8 05 00
        E 18 b8 05 00
        E 18 b8 05 00
        E 18 b8 05 00
        E 18 b8 05 00
        E 18 b8 05 00
        E 18 b8 05 00
        E 18 b8 05 00
        E 18 b8 05 00
        E 18 b8 05 00
        E 18 b8 05 00
        E 18 b8 05 00
        E 18 b8 05 00
        E 18 b8 05 00
        E 18 b8 05 00
        E 18 b8 05 00
        E 18 b8 05 00
        E 18 b8 05 00
        E 18 b8 05 00
        E 18 b8 05 00
        E 18 b8 05 00
        E 18 b8 05 00
        E 18 b8 05 00
        E 18 b8 05 00
        E 18 b8 05 00
        E 18 b8 05 00
        E 18 b8 05 00
        E 18 b8 05 00
        E 18 b8 05 00
        E 18 b8 05 00
        E 18 b8 05 00
        E 18 b8 05 00
        E 18 b8 05 00
        E 18 b8 05 00
        E 18 b8 05 00
        E 18 b8 05 00
        E 18 b8 05 00
        E 18 b8 05 00
        E 18 b8 05 00
        E 18 b8 05 00
        E 18 b8 05 00
        E 18 b8 05 00
        E 18 b8 05 00
        E 18 b8 05 00
        E 18 b8 05 00
        E 18 b8 05 00
        E 18 b8 05 00
        E 18 b8 05 00
        E 31 b8 05 72
        E 31 b8 05 72
        E 31 b8 05 72
        E 31 b8 05 72
        E 31 b8 05 72
        E 31 b8 05 72
        E 31 b8 05 72
        E 31 b8 05 72
        E 31 b8 05 72
        E 31 b8 05 72
        E 31 b8 05 72
        E 31 b8 05 72
        E 31 b8 05 72
        E 31 b8 05 72
        E 31 b8 05 72
        E 31 b8 05 72
        E 31 b8 05 72
        E 31 b8 05 72
        E 31 b8 05 72
        E 31 b8 05 72
        E 31 b8 05 72
        E 31 b8 05 72
        E 31 b8 05 72
        E 31 b8 05 72
        E 31 b8 05 72
        E 31 b8 05 72
        E 31 b8 05 72
        E 31 b8 05 72
        E 31 b8 05 72
        E 31 b8 05 72
        E 31 b8 05 72
        E 31 b8 05 72
        E 31 b8 05 72
        E 31 b8 05 72
        E 31 b8 05 72
        E 31 b8 05 72
        E 31 b8 05 72
        E 31 b8 05 72
        E 31 b8 05 72
        E 31 b8 05 72
        E 31 b8 05 72
        E 31 b8 05 72
        E 31 b8 05 72
        E 31 b8 05 72
        E 31 b8 05 72
        E 31 b8 05 72
        E 31 b8 05 72
        E 31 b8 05 72
        E 31 b8 05 72
        E 31 b8 05 72
        E 31 b8 05 72
        E 31 b8 05 72
        E 31 b8 05 72
        E 31 b8 05 72
        E 31 b8 05 72
        E 31 b8 05 72
        E 31 b8 05 72
        E 31 b8 05 72
        E 31 b8 05 72
        E 31 b8 05 72
        E 31 b8 05 72
        E 31 b8 05 72
        E 31 b8 05 72
        E 31 b8 05 00
        E 31 b8 05 00
        E 31 b8 05 00
        E 31 b8 05 00
        E 31 b8 05 00
        E 31 b8 05 00
        E 31 b8 05 00
        E 31 b8 05 00
        E 31 b8 05 00
        E 31 b8 05 00
        E 31 b8 05 00
        E 31 b8 05 00
        E 31 b8 05 00
        E 31 b8 05 00
        E 31 b8 05 00
        E 31 b8 05 00
        E 31 b8 05 00
        E 31 b8 05 00
        E 31 b8 05 00
        E 31 b8 05 00
        E 31 b8 05 00
        E 31 b8 05 00
        E 31 b8 05 00
        E 31 b8 05 00
        E 31 b8 05 00
        E 31 b8 05 00
        E 31 b8 05 00
        E 31 b8 05 00
        E 31 b8 05 00
        E 31 b8 05 00
        E 31 b8 05 00
        E 31 b8 05 00
        E 31 b8 05 00
        E 31 b8 05 00
        E 31 b8 05 00
        E 31 b8 05 00
        E 31 b8 05 00
        E 31 b8 05 00
        E 31 b8 05 00
        E 31 b8 05 00
        E 31 b8 05 00
        E 31 b8 05 00
        E 31 b8 05 00
        E 31 b8 05 00
        E 31 b8 05 00
        E 31 b8 05 00
        E 31 b8 05 00
        E 31 b8 05 00
        E 31 b8 05 00
        E 31 b8 05 00
        E 31 b8 05 00
        E 31 b8 05 00
        E 31 b8 05 00
        E 31 b8 05 00
        E 31 b8 05 00
        E 31 b8 05 00
        E 31 b8 05 00
        E 31 b8 05 00
        E 31 b8 05 00
        E 31 b8 05 00
        E 31 b8 05 00
        E 31 b8 05 00
        E 31 b8 05 00
        E 31 b8 05 00
        E 22 b8 05 3f
        E 22 b8 05 3f
        E 22 b8 05 3f
        E 22 b8 05 3f
        E 22 b8 05 3f
        E 22 b8 05 3f
        E 22 b8 05 3f
        E 22 b8 05 3f
        E 22 b8 05 3f
        E 22 b8 05 3f
        E 22 b8 05 3f
        E 22 b8 05 3f
        E 22 b8 05 3f
        E 22 b8 05 3f
        E 22 b8 05 3f
        E 22 b8 05 3f
        E 22 b8 05 3f
        E 22 b8 05 3f
        E 22 b8 05 3f
        E 22 b8 05 3f
        E 22 b8 05 3f
        E 22 b8 05 3f
        E 22 b8 05 3f
        E 22 b8 05 3f
        E 22 b8 05 3f
        E 22 b8 05 3f
        E 22 b8 05 3f
        E 22 b8 05 3f
        E 22 b8 05 3f
        E 22 b8 05 3f
        E 22 b8 05 3f
        E 22 b8 05 3f
        E 22 b8 05 3f
        E 22 b8 05 3f
        E 22 b8 05 3f
        E 22 b8 05 3f
        E 22 b8 05 3f
        E 22 b8 05 3f
        E 22 b8 05 3f
        E 22 b8 05 3f
        E 22 b8 05 3f
        E 22 b8 05 3f
        E 22 b8 05 3f
        E 22 b8 05 3f
        E 22 b8 05 3f
        E 22 b8 05 3f
        E 22 b8 05 3f
        E 22 b8 05 3f
        E 22 b8 05 3f
        E 22 b8 05 3f
        E 22 b8 05 3f
        E 22 b8 05 3f
        E 22 b8 05 3f
        E 22 b8 05 3f
        E 22 b8 05 3f
        E 22 b8 05 3f
        E 22 b8 05 3f
        E 22 b8 05 3f
        E 22 b8 05 3f
        E 22 b8 05 3f
        E 22 b8 05 3f
        E 22 b8 05 3f
        E 22 b8 05 3f
        E 22 b8 05 00
        E 22 b8 05 00
        E 22 b8 05 00
        E 22 b8 05 00
        E 22 b8 05 00
        E 22 b8 05 00
        E 22 b8 05 00
        E 22 b8 05 00
        E 22 b8 05 00
        E 22 b8 05 00
        E 22 b8 05 00
        E 22 b8 05 00
        E 22 b8 05 00
        E 22 b8 05 00
        E 22 b8 05 00
        E 22 b8 05 00
        E 22 b8 05 00
        E 22 b8 05 00
        E 22 b8 05 00
        E 22 b8 05 00
        E 22 b8 05 00
        E 22 b8 05 00
        E 22 b8 05 00
        E 22 b8 05 00
        E 22 b8 05 00
        E 22 b8 05 00
        E 22 b8 05 00
        E 22 b8 05 00
        E 22 b8 05 00
        E 22 b8 05 00
        E 22 b8 05 00
        E 22 b8 05 00
        E 22 b8 05 00
        E 22 b8 05 00
        E 22 b8 05 00
        E 22 b8 05 00
        E 22 b8 05 00
        E 22 b8 05 00
        E 22 b8 05 00
        E 22 b8 05 00
        E 22 b8 05 00
        E 22 b8 05 00
        E 22 b8 05 00
        E 22 b8 05 00
        E 22 b8 05 00
        E 22 b8 05 00
        E 22 b8 05 00
        E 22 b8 05 00
        E 22 b8 05 00
        E 22 b8 05 00
        E 22 b8 05 00
        E 22 b8 05 00
        E 22 b8 05 00
        E 22 b8 05 00
        E 22 b8 05 00
        E 22 b8 05 00
        E 22 b8 05 00
        E 22 b8 05 00
        E 22 b8 05 00
        E 22 b8 05 00
        E 22 b8 05 00
        E 22 b8 05 00
        E 22 b8 05 00
        E 22 b8 05 00
        E 22 b8 05 3f
        E 22 b8 05 3f
        E 22 b8 05 3f
        E 22 b8 05 3f
        E 22 b8 05 3f
        E 22 b8 05 3f
        E 22 b8 05 3f
        E 22 b8 05 3f
        E 22 b8 05 3f
        E 22 b8 05 3f
        E 22 b8 05 3f
        E 22 b8 05 3f
        E 22 b8 05 3f
        E 22 b8 05 3f
        E 22 b8 05 3f
        E 22 b8 05 3f
        E 22 b8 05 3f
        E 22 b8 05 3f
        E 22 b8 05 3f
        E 22 b8 05 3f
        E 22 b8 05 3f
        E 22 b8 05 3f
        E 22 b8 05 3f
        E 22 b8 05 3f
        E 22 b8 05 3f
        E 22 b8 05 3f
        E 22 b8 05 3f
        E 22 b8 05 3f
        E 22 b8 05 3f
        E 22 b8 05 3f
        E 22 b8 05 3f
        E 22 b8 05 3f
        E 22 b8 05 3f
        E 22 b8 05 3f
        E 22 b8 05 3f
        E 22 b8 05 3f
        E 22 b8 05 3f
        E 22 b8 05 3f
        E 22 b8 05 3f
        E 22 b8 05 3f
        E 22 b8 05 3f
        E 22 b8 05 3f
        E 22 b8 05 3f
        E 22 b8 05 3f
        E 22 b8 05 3f
        E 22 b8 05 3f
        E 22 b8 05 3f
        E 22 b8 05 3f
        E 22 b8 05 3f
        E 22 b8 05 3f
        E 22 b8 05 3f
        E 22 b8 05 3f
        E 22 b8 05 3f
        E 22 b8 05 3f
        E 22 b8 05 3f
        E 22 b8 05 3f
        E 22 b8 05 3f
        E 22 b8 05 3f
        E 22 b8 05 3f
        E 22 b8 05 3f
        E 22 b8 05 3f
        E 22 b8 05 3f
        E 22 b8 05 3f
        E 22 b8 05 00
        E 22 b8 05 00
        E 22 b8 05 00
        E 22 b8 05 00
        E 22 b8 05 00
        E 22 b8 05 00
        E 22 b8 05 00
        E 22 b8 05 00
        E 22 b8 05 00
        E 22 b8 05 00
        E 22 b8 05 00
        E 22 b8 05 00
        E 22 b8 05 00
        E 22 b8 05 00
        E 22 b8 05 00
        E 22 b8 05 00
        E 22 b8 05 00
        E 22 b8 05 00
        E 22 b8 05 00
        E 22 b8 05 00
        E 22 b8 05 00
        E 22 b8 05 00
        E 22 b8 05 00
        E 22 b8 05 00
        E 22 b8 05 00
        E 22 b8 05 00
        E 22 b8 05 00
        E 22 b8 05 00
        E 22 b8 05 00
        E 22 b8 05 00
        E 22 b8 05 00
        E 22 b8 05 00
        E 22 b8 05 00
        E 22 b8 05 00
        E 22 b8 05 00
        E 22 b8 05 00
        E 22 b8 05 00
        E 22 b8 05 00
        E 22 b8 05 00
        E 22 b8 05 00
        E 22 b8 05 00
        E 22 b8 05 00
        E 22 b8 05 00
        E 22 b8 05 00
        E 22 b8 05 00
        E 22 b8 05 00
        E 22 b8 05 00
        E 22 b8 05 00
        E 22 b8 05 00
        E 22 b8 05 00
        E 22 b8 05 00
        E 22 b8 05 00
        E 22 b8 05 00
        E 22 b8 05 00
        E 22 b8 05 00
        E 22 b8 05 00
        E 22 b8 05 00
        E 22 b8 05 00
        E 22 b8 05 00
        E 22 b8 05 00
        E 22 b8 05 00
        E 22 b8 05 00
        E 22 b8 05 00
        E 22 b8 05 00
        E 45 b8 05 58
        E 45 b8 05 58
        E 45 b8 05 58
        E 45 b8 05 58
        E 45 b8 05 58
        E 45 b8 05 58
        E 45 b8 05 58
        E 45 b8 05 58
        E 45 b8 05 58
        E 45 b8 05 58
        E 45 b8 05 58
        E 45 b8 05 58
        E 45 b8 05 58
        E 45 b8 05 58
        E 45 b8 05 58
        E 45 b8 05 58
        E 45 b8 05 58
        E 45 b8 05 58
        E 45 b8 05 58
        E 45 b8 05 58
        E 45 b8 05 58
        E 45 b8 05 58
        E 45 b8 05 58
        E 45 b8 05 58
        E 45 b8 05 58
        E 45 b8 05 58
        E 45 b8 05 58
        E 45 b8 05 58
        E 45 b8 05 58
        E 45 b8 05 58
        E 45 b8 05 58
        E 45 b8 05 58
        E 45 b8 05 58
        E 45 b8 05 58
        E 45 b8 05 58
        E 45 b8 05 58
        E 45 b8 05 58
        E 45 b8 05 58
        E 45 b8 05 58
        E 45 b8 05 58
        E 45 b8 05 58
        E 45 b8 05 58
        E 45 b8 05 58
        E 45 b8 05 58
        E 45 b8 05 58
        E 45 b8 05 58
        E 45 b8 05 58
        E 45 b8 05 58
        E 45 b8 05 58
        E 45 b8 05 58
        E 45 b8 05 58
        E 45 b8 05 58
        E 45 b8 05 58
        E 45 b8 05 58
        E 45 b8 05 58
        E 45 b8 05 58
        E 45 b8 05 58
        E 45 b8 05 58
        E 45 b8 05 58
        E 45 b8 05 58
        E 45 b8 05 58
        E 45 b8 05 58
        E 45 b8 05 58
        E 45 b8 05 00
        E 45 b8 05 00
        E 45 b8 05 00
        E 45 b8 05 00
        E 45 b8 05 00
        E 45 b8 05 00
        E 45 b8 05 00
        E 45 b8 05 00
        E 45 b8 05 00
        E 45 b8 05 00
        E 45 b8 05 00
        E 45 b8 05 00
        E 45 b8 05 00
        E 45 b8 05 00
        E 45 b8 05 00
        E 45 b8 05 00
        E 45 b8 05 00
        E 45 b8 05 00
        E 45 b8 05 00
        E 45 b8 05 00
        E 45 b8 05 00
        E 45 b8 05 00
        E 45 b8 05 00
        E 45 b8 05 00
        E 45 b8 05 00
        E 45 b8 05 00
        E 45 b8 05 00
        E 45 b8 05 00
        E 45 b8 05 00
        E 45 b8 05 00
        E 45 b8 05 00
        E 45 b8 05 00
        E 45 b8 05 00
        E 45 b8 05 00
        E 45 b8 05 00
        E 45 b8 05 00
        E 45 b8 05 00
        E 45 b8 05 00
        E 45 b8 05 00
        E 45 b8 05 00
        E 45 b8 05 00
        E 45 b8 05 00
        E 45 b8 05 00
        E 45 b8 05 00
        E 45 b8 05 00
        E 45 b8 05 00
        E 45 b8 05 00
        E 45 b8 05 00
        E 45 b8 05 00
        E 45 b8 05 00
        E 45 b8 05 00
        E 45 b8 05 00
        E 45 b8 05 00
        E 45 b8 05 00
        E 45 b8 05 00
        E 45 b8 05 00
        E 45 b8 05 00
        E 45 b8 05 00
        E 45 b8 05 00
        E 45 b8 05 00
        E 45 b8 05 00
        E 45 b8 05 00
        E 45 b8 05 00
        E 45 b8 05 00
        E 40 b8 05 65
        E 40 b8 05 65
        E 40 b8 05 65
        E 40 b8 05 65
        E 40 b8 05 65
        E 40 b8 05 65
        E 40 b8 05 65
        E 40 b8 05 65
        E 40 b8 05 65
        E 40 b8 05 65
        E 40 b8 05 65
        E 40 b8 05 65
        E 40 b8 05 65
        E 40 b8 05 65
        E 40 b8 05 65
        E 40 b8 05 65
        E 40 b8 05 65
        E 40 b8 05 65
        E 40 b8 05 65
        E 40 b8 05 65
        E 40 b8 05 65
        E 40 b8 05 65
        E 40 b8 05 65
        E 40 b8 05 65
        E 40 b8 05 65
        E 40 b8 05 65
        E 40 b8 05 65
        E 40 b8 05 65
        E 40 b8 05 65
        E 40 b8 05 65
        E 40 b8 05 65
        E 40 b8 05 65
        E 40 b8 05 65
        E 40 b8 05 65
        E 40 b8 05 65
        E 40 b8 05 65
        E 40 b8 05 65
        E 40 b8 05 65
        E 40 b8 05 65
        E 40 b8 05 65
        E 40 b8 05 65
        E 40 b8 05 65
        E 40 b8 05 65
        E 40 b8 05 65
        E 40 b8 05 65
        E 40 b8 05 65
        E 40 b8 05 65
        E 40 b8 05 65
        E 40 b8 05 65
        E 40 b8 05 65
        E 40 b8 05 65
        E 40 b8 05 65
        E 40 b8 05 65
        E 40 b8 05 65
        E 40 b8 05 65
        E 40 b8 05 65
        E 40 b8 05 65
        E 40 b8 05 65
        E 40 b8 05 65
        E 40 b8 05 65
        E 40 b8 05 65
        E 40 b8 05 65
        E 40 b8 05 65
        E 40 b8 05 00
        E 40 b8 05 00
        E 40 b8 05 00
        E 40 b8 05 00
        E 40 b8 05 00
        E 40 b8 05 00
        E 40 b8 05 00
        E 40 b8 05 00
        E 40 b8 05 00
        E 40 b8 05 00
        E 40 b8 05 00
        E 40 b8 05 00
        E 40 b8 05 00
        E 40 b8 05 00
        E 40 b8 05 00
        E 40 b8 05 00
        E 40 b8 05 00
        E 40 b8 05 00
        E 40 b8 05 00
        E 40 b8 05 00
        E 40 b8 05 00
        E 40 b8 05 00
        E 40 b8 05 00
        E 40 b8 05 00
        E 40 b8 05 00
        E 40 b8 05 00
        E 40 b8 05 00
        E 40 b8 05 00
        E 40 b8 05 00
        E 40 b8 05 00
        E 40 b8 05 00
        E 40 b8 05 00
        E 40 b8 05 00
        E 40 b8 05 00
        E 40 b8 05 00
        E 40 b8 05 00
        E 40 b8 05 00
        E 40 b8 05 00
        E 40 b8 05 00
        E 40 b8 05 00
        E 40 b8 05 00
        E 40 b8 05 00
        E 40 b8 05 00
        E 40 b8 05 00
        E 40 b8 05 00
        E 40 b8 05 00
        E 40 b8 05 00
        E 40 b8 05 00
        E 40 b8 05 00
        E 40 b8 05 00
        E 40 b8 05 00
        E 40 b8 05 00
        E 40 b8 05 00
        E 40 b8 05 00
        E 40 b8 05 00
        E 40 b8 05 00
        E 40 b8 05 00
        E 40 b8 05 00
        E 40 b8 05 00
        E 40 b8 05 00
        E 40 b8 05 00
        E 40 b8 05 00
        E 40 b8 05 00
        E 40 b8 05 00
        E 45 b8 05 0c
        E 45 b8 05 0c
        E 45 b8 05 0c
        E 45 b8 05 0c
        E 45 b8 05 0c
        E 45 b8 05 0c
        E 45 b8 05 0c
        E 45 b8 05 0c
        E 45 b8 05 0c
        E 45 b8 05 0c
        E 45 b8 05 0c
        E 45 b8 05 0c
        E 45 b8 05 0c
        E 45 b8 05 0c
        E 45 b8 05 0c
        E 45 b8 05 0c
        E 45 b8 05 0c
        E 45 b8 05 0c
        E 45 b8 05 0c
        E 45 b8 05 0c
        E 45 b8 05 0c
        E 45 b8 05 0c
        E 45 b8 05 0c
        E 45 b8 05 0c
        E 45 b8 05 0c
        E 45 b8 05 0c
        E 45 b8 05 0c
        E 45 b8 05 0c
        E 45 b8 05 0c
        E 45 b8 05 0c
        E 45 b8 05 0c
        E 45 b8 05 0c
        E 45 b8 05 0c
        E 45 b8 05 0c
        E 45 b8 05 0c
        E 45 b8 05 0c
        E 45 b8 05 0c
        E 45 b8 05 0c
        E 45 b8 05 0c
        E 45 b8 05 0c
        E 45 b8 05 0c
        E 45 b8 05 0c
        E 45 b8 05 0c
        E 45 b8 05 0c
        E 45 b8 05 0c
        E 45 b8 05 0c
        E 45 b8 05 0c
        E 45 b8 05 0c
        E 45 b8 05 0c
        E 45 b8 05 0c
        E 45 b8 05 0c
        E 45 b8 05 0c
        E 45 b8 05 0c
        E 45 b8 05 0c
        E 45 b8 05 0c
        E 45 b8 05 0c
        E 45 b8 05 0c
        E 45 b8 05 0c
        E 45 b8 05 0c
        E 45 b8 05 0c
        E 45 b8 05 0c
        E 45 b8 05 0c
        E 45 b8 05 0c
        E 45 b8 05 00
        E 45 b8 05 00
        E 45 b8 05 00
        E 45 b8 05 00
        E 45 b8 05 00
        E 45 b8 05 00
        E 45 b8 05 00
        E 45 b8 05 00
        E 45 b8 05 00
        E 45 b8 05 00
        E 45 b8 05 00
        E 45 b8 05 00
        E 45 b8 05 00
        E 45 b8 05 00
        E 45 b8 05 00
        E 45 b8 05 00
        E 45 b8 05 00
        E 45 b8 05 00
        E 45 b8 05 00
        E 45 b8 05 00
        E 45 b8 05 00
        E 45 b8 05 00
        E 45 b8 05 00
        E 45 b8 05 00
        E 45 b8 05 00
        E 45 b8 05 00
        E 45 b8 05 00
        E 45 b8 05 00
        E 45 b8 05 00
        E 45 b8 05 00
        E 45 b8 05 00
        E 45 b8 05 00
        E 45 b8 05 00
        E 45 b8 05 00
        E 45 b8 05 00
        E 45 b8 05 00
        E 45 b8 05 00
        E 45 b8 05 00
        E 45 b8 05 00
        E 45 b8 05 00
        E 45 b8 05 00
        E 45 b8 05 00
        E 45 b8 05 00
        E 45 b8 05 00
        E 45 b8 05 00
        E 45 b8 05 00
        E 45 b8 05 00
        E 45 b8 05 00
        E 45 b8 05 00
        E 45 b8 05 00
        E 45 b8 05 00
        E 45 b8 05 00
        E 45 b8 05 00
        E 45 b8 05 00
        E 45 b8 05 00
        E 45 b8 05 00
        E 45 b8 05 00
        E 45 b8 05 00
        E 45 b8 05 00
        E 45 b8 05 00
        E 45 b8 05 00
        E 45 b8 05 00
        E 45 b8 05 00
        E 45 b8 05 00
        E 40 b8 05 32
        E 40 b8 05 32
        E 40 b8 05 32
        E 40 b8 05 32
        E 40 b8 05 32
        E 40 b8 05 32
        E 40 b8 05 32
        E 40 b8 05 32
        E 40 b8 05 32
        E 40 b8 05 32
        E 40 b8 05 32
        E 40 b8 05 32
        E 40 b8 05 32
        E 40 b8 05 32
        E 40 b8 05 32
        E 40 b8 05 32
        E 40 b8 05 32
        E 40 b8 05 32
        E 40 b8 05 32
        E 40 b8 05 32
        E 40 b8 05 32
        E 40 b8 05 32
        E 40 b8 05 32
        E 40 b8 05 32
        E 40 b8 05 32
        E 40 b8 05 32
        E 40 b8 05 32
        E 40 b8 05 32
        E 40 b8 05 32
        E 40 b8 05 32
        E 40 b8 05 32
        E 40 b8 05 32
        E 40 b8 05 32
        E 40 b8 05 32
        E 40 b8 05 32
        E 40 b8 05 32
        E 40 b8 05 32
        E 40 b8 05 32
        E 40 b8 05 32
        E 40 b8 05 32
        E 40 b8 05 32
        E 40 b8 05 32
        E 40 b8 05 32
        E 40 b8 05 32
        E 40 b8 05 32
        E 40 b8 05 32
        E 40 b8 05 32
        E 40 b8 05 32
        E 40 b8 05 32
        E 40 b8 05 32
        E 40 b8 05 32
        E 40 b8 05 32
        E 40 b8 05 32
        E 40 b8 05 32
        E 40 b8 05 32
        E 40 b8 05 32
        E 40 b8 05 32
        E 40 b8 05 32
        E 40 b8 05 32
        E 40 b8 05 32
        E 40 b8 05 32
        E 40 b8 05 32
        E 40 b8 05 32
        E 40 b8 05 00
        E 40 b8 05 00
        E 40 b8 05 00
        E 40 b8 05 00
        E 40 b8 05 00
        E 40 b8 05 00
        E 40 b8 05 00
        E 40 b8 05 00
        E 40 b8 05 00
        E 40 b8 05 00
        E 40 b8 05 00
        E 40 b8 05 00
        E 40 b8 05 00
        E 40 b8 05 00
        E 40 b8 05 00
        E 40 b8 05 00
        E 40 b8 05 00
        E 40 b8 05 00
        E 40 b8 05 00
        E 40 b8 05 00
        E 40 b8 05 00
        E 40 b8 05 00
        E 40 b8 05 00
        E 40 b8 05 00
        E 40 b8 05 00
        E 40 b8 05 00
        E 40 b8 05 00
        E 40 b8 05 00
        E 40 b8 05 00
        E 40 b8 05 00
        E 40 b8 05 00
        E 40 b8 05 00
        E 40 b8 05 00
        E 40 b8 05 00
        E 40 b8 05 00
        E 40 b8 05 00
        E 40 b8 05 00
        E 40 b8 05 00
        E 40 b8 05 00
        E 40 b8 05 00
        E 40 b8 05 00
        E 40 b8 05 00
        E 40 b8 05 00
        E 40 b8 05 00
        E 40 b8 05 00
        E 40 b8 05 00
        E 40 b8 05 00
        E 40 b8 05 00
        E 40 b8 05 00
        E 40 b8 05 00
        E 40 b8 05 00
        E 40 b8 05 00
        E 40 b8 05 00
        E 40 b8 05 00
        E 40 b8 05 00
        E 40 b8 05 00
        E 40 b8 05 00
        E 40 b8 05 00
        E 40 b8 05 00
        E 40 b8 05 00
        E 40 b8 05 00
        E 40 b8 05 00
        E 40 b8 05 00
        E 40 b8 05 00
        E 31 b8 05 3f
        E 31 b8 05 3f
        E 31 b8 05 3f
        E 31 b8 05 3f
        E 31 b8 05 3f
        E 31 b8 05 3f
        E 31 b8 05 3f
        E 31 b8 05 3f
        E 31 b8 05 3f
        E 31 b8 05 3f
        E 31 b8 05 3f
        E 31 b8 05 3f
        E 31 b8 05 3f
        E 31 b8 05 3f
        E 31 b8 05 3f
        E 31 b8 05 3f
        E 31 b8 05 3f
        E 31 b8 05 3f
        E 31 b8 05 3f
        E 31 b8 05 3f
        E 31 b8 05 3f
        E 31 b8 05 3f
        E 31 b8 05 3f
        E 31 b8 05 3f
        E 31 b8 05 3f
        E 31 b8 05 3f
        E 31 b8 05 3f
        E 31 b8 05 3f
        E 31 b8 05 3f
        E 31 b8 05 3f
        E 31 b8 05 3f
        E 31 b8 05 3f
        E 31 b8 05 3f
        E 31 b8 05 3f
        E 31 b8 05 3f
        E 31 b8 05 3f
        E 31 b8 05 3f
        E 31 b8 05 3f
        E 31 b8 05 3f
        E 31 b8 05 3f
        E 31 b8 05 3f
        E 31 b8 05 3f
        E 31 b8 05 3f
        E 31 b8 05 3f
        E 31 b8 05 3f
        E 31 b8 05 3f
        E 31 b8 05 3f
        E 31 b8 05 3f
        E 31 b8 05 3f
        E 31 b8 05 3f
        E 31 b8 05 3f
        E 31 b8 05 3f
        E 31 b8 05 3f
        E 31 b8 05 3f
        E 31 b8 05 3f
        E 31 b8 05 3f
        E 31 b8 05 3f
        E 31 b8 05 3f
        E 31 b8 05 3f
        E 31 b8 05 3f
        E 31 b8 05 3f
        E 31 b8 05 3f
        E 31 b8 05 3f
        E 31 b8 05 00
        E 31 b8 05 00
        E 31 b8 05 00
        E 31 b8 05 00
        E 31 b8 05 00
        E 31 b8 05 00
        E 31 b8 05 00
        E 31 b8 05 00
        E 31 b8 05 00
        E 31 b8 05 00
        E 31 b8 05 00
        E 31 b8 05 00
        E 31 b8 05 00
        E 31 b8 05 00
        E 31 b8 05 00
        E 31 b8 05 00
        E 31 b8 05 00
        E 31 b8 05 00
        E 31 b8 05 00
        E 31 b8 05 00
        E 31 b8 05 00
        E 31 b8 05 00
        E 31 b8 05 00
        E 31 b8 05 00
        E 31 b8 05 00
        E 31 b8 05 00
        E 31 b8 05 00
        E 31 b8 05 00
        E 31 b8 05 00
        E 31 b8 05 00
        E 31 b8 05 00
        E 31 b8 05 00
        E 31 b8 05 00
        E 31 b8 05 00
        E 31 b8 05 00
        E 31 b8 05 00
        E 31 b8 05 00
        E 31 b8 05 00
        E 31 b8 05 00
        E 31 b8 05 00
        E 31 b8 05 00
        E 31 b8 05 00
        E 31 b8 05 00
        E 31 b8 05 00
        E 31 b8 05 00
        E 31 b8 05 00
        E 31 b8 05 00
        E 31 b8 05 00
        E 31 b8 05 00
        E 31 b8 05 00
        E 31 b8 05 00
        E 31 b8 05 00
        E 31 b8 05 00
        E 31 b8 05 00
        E 31 b8 05 00
        E 31 b8 05 00
        E 31 b8 05 00
        E 31 b8 05 00
        E 31 b8 05 00
        E 31 b8 05 00
        E 31 b8 05 00
        E 31 b8 05 00
        E 31 b8 05 00
        E 31 b8 05 00
        E 36 b8 05 7f
        E 36 b8 05 7f
        E 36 b8 05 7f
        E 36 b8 05 7f
        E 36 b8 05 7f
        E 36 b8 05 7f
        E 36 b8 05 7f
        E 36 b8 05 7f
        E 36 b8 05 7f
        E 36 b8 05 7f
        E 36 b8 05 7f
        E 36 b8 05 7f
        E 36 b8 05 7f
        E 36 b8 05 7f
        E 36 b8 05 7f
        E 36 b8 05 7f
        E 36 b8 05 7f
        E 36 b8 05 7f
        E 36 b8 05 7f
        E 36 b8 05 7f
        E 36 b8 05 7f
        E 36 b8 05 7f
        E 36 b8 05 7f
        E 36 b8 05 7f
        E 36 b8 05 7f
        E 36 b8 05 7f
        E 36 b8 05 7f
        E 36 b8 05 7f
        E 36 b8 05 7f
        E 36 b8 05 7f
        E 36 b8 05 7f
        E 36 b8 05 7f
        E 36 b8 05 7f
        E 36 b8 05 7f
        E 36 b8 05 7f
        E 36 b8 05 7f
        E 36 b8 05 7f
        E 36 b8 05 7f
        E 36 b8 05 7f
        E 36 b8 05 7f
        E 36 b8 05 7f
        E 36 b8 05 7f
        E 36 b8 05 7f
        E 36 b8 05 7f
        E 36 b8 05 7f
        E 36 b8 05 7f
        E 36 b8 05 7f
        E 36 b8 05 7f
        E 36 b8 05 7f
        E 36 b8 05 7f
        E 36 b8 05 7f
        E 36 b8 05 7f
        E 36 b8 05 7f
        E 36 b8 05 7f
        E 36 b8 05 7f
        E 36 b8 05 7f
        E 36 b8 05 7f
        E 36 b8 05 7f
        E 36 b8 05 7f
        E 36 b8 05 7f
        E 36 b8 05 7f
        E 36 b8 05 7f
        E 36 b8 05 7f
        E 36 b8 05 00
        E 36 b8 05 00
        E 36 b8 05 00
        E 36 b8 05 00
        E 36 b8 05 00
        E 36 b8 05 00
        E 36 b8 05 00
        E 36 b8 05 00
        E 36 b8 05 00
        E 36 b8 05 00
        E 36 b8 05 00
        E 36 b8 05 00
        E 36 b8 05 00
        E 36 b8 05 00
        E 36 b8 05 00
        E 36 b8 05 00
        E 36 b8 05 00
        E 36 b8 05 00
        E 36 b8 05 00
        E 36 b8 05 00
        E 36 b8 05 00
        E 36 b8 05 00
        E 36 b8 05 00
        E 36 b8 05 00
        E 36 b8 05 00
        E 36 b8 05 00
        E 36 b8 05 00
        E 36 b8 05 00
        E 36 b8 05 00
        E 36 b8 05 00
        E 36 b8 05 00
        E 36 b8 05 00
        E 36 b8 05 00
        E 36 b8 05 00
        E 36 b8 05 00
        E 36 b8 05 00
        E 36 b8 05 00
        E 36 b8 05 00
        E 36 b8 05 00
        E 36 b8 05 00
        E 36 b8 05 00
        E 36 b8 05 00
        E 36 b8 05 00
        E 36 b8 05 00
        E 36 b8 05 00
        E 36 b8 05 00
        E 36 b8 05 00
        E 36 b8 05 00
        E 36 b8 05 00
        E 36 b8 05 00
        E 36 b8 05 00
        E 36 b8 05 00
        E 36 b8 05 00
        E 36 b8 05 00
        E 36 b8 05 00
        E 36 b8 05 00
        E 36 b8 05 00
        E 36 b8 05 00
        E 36 b8 05 00
        E 36 b8 05 00
        E 36 b8 05 00
        E 36 b8 05 00
        E 36 b8 05 00
        E 36 b8 05 00
        E 4 b8 05 72
        E 4 b8 05 72
        E 4 b8 05 72
        E 4 b8 05 72
        E 4 b8 05 72
        E 4 b8 05 72
        E 4 b8 05 72
        E 4 b8 05 72
        E 4 b8 05 72
        E 4 b8 05 72
        E 4 b8 05 72
        E 4 b8 05 72
        E 4 b8 05 72
        E 4 b8 05 72
        E 4 b8 05 72
        E 4 b8 05 72
        E 4 b8 05 72
        E 4 b8 05 72
        E 4 b8 05 72
        E 4 b8 05 72
        E 4 b8 05 72
        E 4 b8 05 72
        E 4 b8 05 72
        E 4 b8 05 72
        E 4 b8 05 72
        E 4 b8 05 72
        E 4 b8 05 72
        E 4 b8 05 72
        E 4 b8 05 72
        E 4 b8 05 72
        E 4 b8 05 72
        E 4 b8 05 72
        E 4 b8 05 72
        E 4 b8 05 72
        E 4 b8 05 72
        E 4 b8 05 72
        E 4 b8 05 72
        E 4 b8 05 72
        E 4 b8 05 72
        E 4 b8 05 72
        E 4 b8 05 72
        E 4 b8 05 72
        E 4 b8 05 72
        E 4 b8 05 72
        E 4 b8 05 72
        E 4 b8 05 72
        E 4 b8 05 72
        E 4 b8 05 72
        E 4 b8 05 72
        E 4 b8 05 72
        E 4 b8 05 72
        E 4 b8 05 72
        E 4 b8 05 72
        E 4 b8 05 72
        E 4 b8 05 72
        E 4 b8 05 72
        E 4 b8 05 72
        E 4 b8 05 72
        E 4 b8 05 72
        E 4 b8 05 72
        E 4 b8 05 72
        E 4 b8 05 72
        E 4 b8 05 72
        E 4 b8 05 00
        E 4 b8 05 00
        E 4 b8 05 00
        E 4 b8 05 00
        E 4 b8 05 00
        E 4 b8 05 00
        E 4 b8 05 00
        E 4 b8 05 00
        E 4 b8 05 00
        E 4 b8 05 00
        E 4 b8 05 00
        E 4 b8 05 00
        E 4 b8 05 00
        E 4 b8 05 00
        E 4 b8 05 00
        E 4 b8 05 00
        E 4 b8 05 00
        E 4 b8 05 00
        E 4 b8 05 00
        E 4 b8 05 00
        E 4 b8 05 00
        E 4 b8 05 00
        E 4 b8 05 00
        E 4 b8 05 00
        E 4 b8 05 00
        E 4 b8 05 00
        E 4 b8 05 00
        E 4 b8 05 00
        E 4 b8 05 00
        E 4 b8 05 00
        E 4 b8 05 00
        E 4 b8 05 00
        E 4 b8 05 00
        E 4 b8 05 00
        E 4 b8 05 00
        E 4 b8 05 00
        E 4 b8 05 00
        E 4 b8 05 00
        E 4 b8 05 00
        E 4 b8 05 00
        E 4 b8 05 00
        E 4 b8 05 00
        E 4 b8 05 00
        E 4 b8 05 00
        E 4 b8 05 00
        E 4 b8 05 00
        E 4 b8 05 00
        E 4 b8 05 00
        E 4 b8 05 00
        E 4 b8 05 00
        E 4 b8 05 00
        E 4 b8 05 00
        E 4 b8 05 00
        E 4 b8 05 00
        E 4 b8 05 00
        E 4 b8 05 00
        E 4 b8 05 00
        E 4 b8 05 00
        E 4 b8 05 00
        E 4 b8 05 00
        E 4 b8 05 00
        E 4 b8 05 00
        E 4 b8 05 00
        E 4 b8 05 00
        E 18 b8 05 7f
        E 18 b8 05 7f
        E 18 b8 05 7f
        E 18 b8 05 7f
        E 18 b8 05 7f
        E 18 b8 05 7f
        E 18 b8 05 7f
        E 18 b8 05 7f
        E 18 b8 05 7f
        E 18 b8 05 7f
        E 18 b8 05 7f
        E 18 b8 05 7f
        E 18 b8 05 7f
        E 18 b8 05 7f
        E 18 b8 05 7f
        E 18 b8 05 7f
        E 18 b8 05 7f
        E 18 b8 05 7f
        E 18 b8 05 7f
        E 18 b8 05 7f
        E 18 b8 05 7f
        E 18 b8 05 7f
        E 18 b8 05 7f
        E 18 b8 05 7f
        E 18 b8 05 7f
        E 18 b8 05 7f
        E 18 b8 05 7f
        E 18 b8 05 7f
        E 18 b8 05 7f
        E 18 b8 05 7f
        E 18 b8 05 7f
        E 18 b8 05 7f
        E 18 b8 05 7f
        E 18 b8 05 7f
        E 18 b8 05 7f
        E 18 b8 05 7f
        E 18 b8 05 7f
        E 18 b8 05 7f
        E 18 b8 05 7f
        E 18 b8 05 7f
        E 18 b8 05 7f
        E 18 b8 05 7f
        E 18 b8 05 7f
        E 18 b8 05 7f
        E 18 b8 05 7f
        E 18 b8 05 7f
        E 18 b8 05 7f
        E 18 b8 05 7f
        E 18 b8 05 7f
        E 18 b8 05 7f
        E 18 b8 05 7f
        E 18 b8 05 7f
        E 18 b8 05 7f
        E 18 b8 05 7f
        E 18 b8 05 7f
        E 18 b8 05 7f
        E 18 b8 05 7f
        E 18 b8 05 7f
        E 18 b8 05 7f
        E 18 b8 05 7f
        E 18 b8 05 7f
        E 18 b8 05 7f
        E 18 b8 05 7f
        E 18 b8 05 00
        E 18 b8 05 00
        E 18 b8 05 00
        E 18 b8 05 00
        E 18 b8 05 00
        E 18 b8 05 00
        E 18 b8 05 00
        E 18 b8 05 00
        E 18 b8 05 00
        E 18 b8 05 00
        E 18 b8 05 00
        E 18 b8 05 00
        E 18 b8 05 00
        E 18 b8 05 00
        E 18 b8 05 00
        E 18 b8 05 00
        E 18 b8 05 00
        E 18 b8 05 00
        E 18 b8 05 00
        E 18 b8 05 00
        E 18 b8 05 00
        E 18 b8 05 00
        E 18 b8 05 00
        E 18 b8 05 00
        E 18 b8 05 00
        E 18 b8 05 00
        E 18 b8 05 00
        E 18 b8 05 00
        E 18 b8 05 00
        E 18 b8 05 00
        E 18 b8 05 00
        E 18 b8 05 00
        E 18 b8 05 00
        E 18 b8 05 00
        E 18 b8 05 00
        E 18 b8 05 00
        E 18 b8 05 00
        E 18 b8 05 00
        E 18 b8 05 00
        E 18 b8 05 00
        E 18 b8 05 00
        E 18 b8 05 00
        E 18 b8 05 00
        E 18 b8 05 00
        E 18 b8 05 00
        E 18 b8 05 00
        E 18 b8 05 00
        E 18 b8 05 00
        E 18 b8 05 00
        E 18 b8 05 00
        E 18 b8 05 00
        E 18 b8 05 00
        E 18 b8 05 00
        E 18 b8 05 00
        E 18 b8 05 00
        E 18 b8 05 00
        E 18 b8 05 00
        E 18 b8 05 00
        E 18 b8 05 00
        E 18 b8 05 00
        E 18 b8 05 00
        E 18 b8 05 00
        E 18 b8 05 00
        E 18 b8 05 00
        E 31 b8 05 72
        E 31 b8 05 72
        E 31 b8 05 72
        E 31 b8 05 72
        E 31 b8 05 72
        E 31 b8 05 72
        E 31 b8 05 72
        E 31 b8 05 72
        E 31 b8 05 72
        E 31 b8 05 72
        E 31 b8 05 72
        E 31 b8 05 72
        E 31 b8 05 72
        E 31 b8 05 72
        E 31 b8 05 72
        E 31 b8 05 72
        E 31 b8 05 72
        E 31 b8 05 72
        E 31 b8 05 72
        E 31 b8 05 72
        E 31 b8 05 72
        E 31 b8 05 72
        E 31 b8 05 72
        E 31 b8 05 72
        E 31 b8 05 72
        E 31 b8 05 72
        E 31 b8 05 72
        E 31 b8 05 72
        E 31 b8 05 72
        E 31 b8 05 72
        E 31 b8 05 72
        E 31 b8 05 72
        E 31 b8 05 72
        E 31 b8 05 72
        E 31 b8 05 72
        E 31 b8 05 72
        E 31 b8 05 72
        E 31 b8 05 72
        E 31 b8 05 72
        E 31 b8 05 72
        E 31 b8 05 72
        E 31 b8 05 72
        E 31 b8 05 72
        E 31 b8 05 72
        E 31 b8 05 72
        E 31 b8 05 72
        E 31 b8 05 72
        E 31 b8 05 72
        E 31 b8 05 72
        E 31 b8 05 72
        E 31 b8 05 72
        E 31 b8 05 72
        E 31 b8 05 72
        E 31 b8 05 72
        E 31 b8 05 72
        E 31 b8 05 72
        E 31 b8 05 72
        E 31 b8 05 72
        E 31 b8 05 72
        E 31 b8 05 72
        E 31 b8 05 72
        E 31 b8 05 72
        E 31 b8 05 72
        E 31 b8 05 00
        E 31 b8 05 00
        E 31 b8 05 00
        E 31 b8 05 00
        E 31 b8 05 00
        E 31 b8 05 00
        E 31 b8 05 00
        E 31 b8 05 00
        E 31 b8 05 00
        E 31 b8 05 00
        E 31 b8 05 00
        E 31 b8 05 00
        E 31 b8 05 00
        E 31 b8 05 00
        E 31 b8 05 00
        E 31 b8 05 00
        E 31 b8 05 00
        E 31 b8 05 00
        E 31 b8 05 00
        E 31 b8 05 00
        E 31 b8 05 00
        E 31 b8 05 00
        E 31 b8 05 00
        E 31 b8 05 00
        E 31 b8 05 00
        E 31 b8 05 00
        E 31 b8 05 00
        E 31 b8 05 00
        E 31 b8 05 00
        E 31 b8 05 00
        E 31 b8 05 00
        E 31 b8 05 00
        E 31 b8 05 00
        E 31 b8 05 00
        E 31 b8 05 00
        E 31 b8 05 00
        E 31 b8 05 00
        E 31 b8 05 00
        E 31 b8 05 00
        E 31 b8 05 00
        E 31 b8 05 00
        E 31 b8 05 00
        E 31 b8 05 00
        E 31 b8 05 00
        E 31 b8 05 00
        E 31 b8 05 00
        E 31 b8 05 00
        E 31 b8 05 00
        E 31 b8 05 00
        E 31 b8 05 00
        E 31 b8 05 00
        E 31 b8 05 00
        E 31 b8 05 00
        E 31 b8 05 00
        E 31 b8 05 00
        E 31 b8 05 00
        E 31 b8 05 00
        E 31 b8 05 00
        E 31 b8 05 00
        E 31 b8 05 00
        E 31 b8 05 00
        E 31 b8 05 00
        E 31 b8 05 00
        E 31 b8 05 00
        E 22 b8 05 3f
        E 22 b8 05 3f
        E 22 b8 05 3f
        E 22 b8 05 3f
        E 22 b8 05 3f
        E 22 b8 05 3f
        E 22 b8 05 3f
        E 22 b8 05 3f
        E 22 b8 05 3f
        E 22 b8 05 3f
        E 22 b8 05 3f
        E 22 b8 05 3f
        E 22 b8 05 3f
        E 22 b8 05 3f
        E 22 b8 05 3f
        E 22 b8 05 3f
        E 22 b8 05 3f
        E 22 b8 05 3f
        E 22 b8 05 3f
        E 22 b8 05 3f
        E 22 b8 05 3f
        E 22 b8 05 3f
        E 22 b8 05 3f
        E 22 b8 05 3f
        E 22 b8 05 3f
        E 22 b8 05 3f
        E 22 b8 05 3f
        E 22 b8 05 3f
        E 22 b8 05 3f
        E 22 b8 05 3f
        E 22 b8 05 3f
        E 22 b8 05 3f
        E 22 b8 05 3f
        E 22 b8 05 3f
        E 22 b8 05 3f
        E 22 b8 05 3f
        E 22 b8 05 3f
        E 22 b8 05 3f
        E 22 b8 05 3f
        E 22 b8 05 3f
        E 22 b8 05 3f
        E 22 b8 05 3f
        E 22 b8 05 3f
        E 22 b8 05 3f
        E 22 b8 05 3f
        E 22 b8 05 3f
        E 22 b8 05 3f
        E 22 b8 05 3f
        E 22 b8 05 3f
        E 22 b8 05 3f
        E 22 b8 05 3f
        E 22 b8 05 3f
        E 22 b8 05 3f
        E 22 b8 05 3f
        E 22 b8 05 3f
        E 22 b8 05 3f
        E 22 b8 05 3f
        E 22 b8 05 3f
        E 22 b8 05 3f
        E 22 b8 05 3f
        E 22 b8 05 3f
        E 22 b8 05 3f
        E 22 b8 05 3f
        E 22 b8 05 00
        E 22 b8 05 00
        E 22 b8 05 00
        E 22 b8 05 00
        E 22 b8 05 00
        E 22 b8 05 00
        E 22 b8 05 00
        E 22 b8 05 00
        E 22 b8 05 00
        E 22 b8 05 00
        E 22 b8 05 00
        E 22 b8 05 00
        E 22 b8 05 00
        E 22 b8 05 00
        E 22 b8 05 00
        E 22 b8 05 00
        E 22 b8 05 00
        E 22 b8 05 00
        E 22 b8 05 00
        E 22 b8 05 00
        E 22 b8 05 00
        E 22 b8 05 00
        E 22 b8 05 00
        E 22 b8 05 00
        E 22 b8 05 00
        E 22 b8 05 00
        E 22 b8 05 00
        E 22 b8 05 00
        E 22 b8 05 00
        E 22 b8 05 00
        E 22 b8 05 00
        E 22 b8 05 00
        E 22 b8 05 00
        E 22 b8 05 00
        E 22 b8 05 00
        E 22 b8 05 00
        E 22 b8 05 00
        E 22 b8 05 00
        E 22 b8 05 00
        E 22 b8 05 00
        E 22 b8 05 00
        E 22 b8 05 00
        E 22 b8 05 00
        E 22 b8 05 00
        E 22 b8 05 00
        E 22 b8 05 00
        E 22 b8 05 00
        E 22 b8 05 00
        E 22 b8 05 00
        E 22 b8 05 00
        E 22 b8 05 00
        E 22 b8 05 00
        E 22 b8 05 00
        E 22 b8 05 00
        E 22 b8 05 00
        E 22 b8 05 00
        E 22 b8 05 00
        E 22 b8 05 00
        E 22 b8 05 00
        E 22 b8 05 00
        E 22 b8 05 00
        E 22 b8 05 00
        E 22 b8 05 00
        E 22 b8 05 00
        E 22 b8 05 3f
        E 22 b8 05 3f
        E 22 b8 05 3f
        E 22 b8 05 3f
        E 22 b8 05 3f
        E 22 b8 05 3f
        E 22 b8 05 3f
        E 22 b8 05 3f
        E 22 b8 05 3f
        E 22 b8 05 3f
        E 22 b8 05 3f
        E 22 b8 05 3f
        E 22 b8 05 3f
        E 22 b8 05 3f
        E 22 b8 05 3f
        E 22 b8 05 3f
        E 22 b8 05 3f
        E 22 b8 05 3f
        E 22 b8 05 3f
        E 22 b8 05 3f
        E 22 b8 05 3f
        E 22 b8 05 3f
        E 22 b8 05 3f
        E 22 b8 05 3f
        E 22 b8 05 3f
        E 22 b8 05 3f
        E 22 b8 05 3f
        E 22 b8 05 3f
        E 22 b8 05 3f
        E 22 b8 05 3f
        E 22 b8 05 3f
        E 22 b8 05 3f
        E 22 b8 05 3f
        E 22 b8 05 3f
        E 22 b8 05 3f
        E 22 b8 05 3f
        E 22 b8 05 3f
        E 22 b8 05 3f
        E 22 b8 05 3f
        E 22 b8 05 3f
        E 22 b8 05 3f
        E 22 b8 05 3f
        E 22 b8 05 3f
        E 22 b8 05 3f
        E 22 b8 05 3f
        E 22 b8 05 3f
        E 22 b8 05 3f
        E 22 b8 05 3f
        E 22 b8 05 3f
        E 22 b8 05 3f
        E 22 b8 05 3f
        E 22 b8 05 3f
        E 22 b8 05 3f
        E 22 b8 05 3f
        E 22 b8 05 3f
        E 22 b8 05 3f
        E 22 b8 05 3f
        E 22 b8 05 3f
        E 22 b8 05 3f
        E 22 b8 05 3f
        E 22 b8 05 3f
        E 22 b8 05 3f
        E 22 b8 05 3f
        E 22 b8 05 00
        E 22 b8 05 00
        E 22 b8 05 00
        E 22 b8 05 00
        E 22 b8 05 00
        E 22 b8 05 00
        E 22 b8 05 00
        E 22 b8 05 00
        E 22 b8 05 00
        E 22 b8 05 00
        E 22 b8 05 00
        E 22 b8 05 00
        E 22 b8 05 00
        E 22 b8 05 00
        E 22 b8 05 00
        E 22 b8 05 00
        E 22 b8 05 00
        E 22 b8 05 00
        E 22 b8 05 00
        E 22 b8 05 00
        E 22 b8 05 00
        E 22 b8 05 00
        E 22 b8 05 00
        E 22 b8 05 00
        E 22 b8 05 00
        E 22 b8 05 00
        E 22 b8 05 00
        E 22 b8 05 00
        E 22 b8 05 00
        E 22 b8 05 00
        E 22 b8 05 00
        E 22 b8 05 00
        E 22 b8 05 00
        E 22 b8 05 00
        E 22 b8 05 00
        E 22 b8 05 00
        E 22 b8 05 00
        E 22 b8 05 00
        E 22 b8 05 00
        E 22 b8 05 00
        E 22 b8 05 00
        E 22 b8 05 00
        E 22 b8 05 00
        E 22 b8 05 00
        E 22 b8 05 00
        E 22 b8 05 00
        E 22 b8 05 00
        E 22 b8 05 00
        E 22 b8 05 00
        E 22 b8 05 00
        E 22 b8 05 00
        E 22 b8 05 00
        E 22 b8 05 00
        E 22 b8 05 00
        E 22 b8 05 00
        E 22 b8 05 00
        E 22 b8 05 00
        E 22 b8 05 00
        E 22 b8 05 00
        E 22 b8 05 00
        E 22 b8 05 00
        E 22 b8 05 00
        E 22 b8 05 00
        E 22 b8 05 00
        E 45 b8 05 58
        E 45 b8 05 58
        E 45 b8 05 58
        E 45 b8 05 58
        E 45 b8 05 58
        E 45 b8 05 58
        E 45 b8 05 58
        E 45 b8 05 58
        E 45 b8 05 58
        E 45 b8 05 58
        E 45 b8 05 58
        E 45 b8 05 58
        E 45 b8 05 58
        E 45 b8 05 58
        E 45 b8 05 58
        E 45 b8 05 58
        E 45 b8 05 58
        E 45 b8 05 58
        E 45 b8 05 58
        E 45 b8 05 58
        E 45 b8 05 58
        E 45 b8 05 58
        E 45 b8 05 58
        E 45 b8 05 58
        E 45 b8 05 58
        E 45 b8 05 58
        E 45 b8 05 58
        E 45 b8 05 58
        E 45 b8 05 58
        E 45 b8 05 58
        E 45 b8 05 58
        E 45 b8 05 58
        E 45 b8 05 58
        E 45 b8 05 58
        E 45 b8 05 58
        E 45 b8 05 58
        E 45 b8 05 58
        E 45 b8 05 58
        E 45 b8 05 58
        E 45 b8 05 58
        E 45 b8 05 58
        E 45 b8 05 58
        E 45 b8 05 58
        E 45 b8 05 58
        E 45 b8 05 58
        E 45 b8 05 58
        E 45 b8 05 58
        E 45 b8 05 58
        E 45 b8 05 58
        E 45 b8 05 58
        E 45 b8 05 58
        E 45 b8 05 58
        E 45 b8 05 58
        E 45 b8 05 58
        E 45 b8 05 58
        E 45 b8 05 58
        E 45 b8 05 58
        E 45 b8 05 58
        E 45 b8 05 58
        E 45 b8 05 58
        E 45 b8 05 58
        E 45 b8 05 58
        E 45 b8 05 58
        E 45 b8 05 00
        E 45 b8 05 00
        E 45 b8 05 00
        E 45 b8 05 00
        E 45 b8 05 00
        E 45 b8 05 00
        E 45 b8 05 00
        E 45 b8 05 00
        E 45 b8 05 00
        E 45 b8 05 00
        E 45 b8 05 00
        E 45 b8 05 00
        E 45 b8 05 00
        E 45 b8 05 00
        E 45 b8 05 00
        E 45 b8 05 00
        E 45 b8 05 00
        E 45 b8 05 00
        E 45 b8 05 00
        E 45 b8 05 00
        E 45 b8 05 00
        E 45 b8 05 00
        E 45 b8 05 00
        E 45 b8 05 00
        E 45 b8 05 00
        E 45 b8 05 00
        E 45 b8 05 00
        E 45 b8 05 00
        E 45 b8 05 00
        E 45 b8 05 00
        E 45 b8 05 00
        E 45 b8 05 00
        E 45 b8 05 00
        E 45 b8 05 00
        E 45 b8 05 00
        E 45 b8 05 00
        E 45 b8 05 00
        E 45 b8 05 00
        E 45 b8 05 00
        E 45 b8 05 00
        E 45 b8 05 00
        E 45 b8 05 00
        E 45 b8 05 00
        E 45 b8 05 00
        E 45 b8 05 00
        E 45 b8 05 00
        E 45 b8 05 00
        E 45 b8 05 00
        E 45 b8 05 00
        E 45 b8 05 00
        E 45 b8 05 00
        E 45 b8 05 00
        E 45 b8 05 00
        E 45 b8 05 00
        E 45 b8 05 00
        E 45 b8 05 00
        E 45 b8 05 00
        E 45 b8 05 00
        E 45 b8 05 00
        E 45 b8 05 00
        E 45 b8 05 00
        E 45 b8 05 00
        E 45 b8 05 00
        E 45 b8 05 00
        E 40 b8 05 65
        E 40 b8 05 65
        E 40 b8 05 65
        E 40 b8 05 65
        E 40 b8 05 65
        E 40 b8 05 65
        E 40 b8 05 65
        E 40 b8 05 65
        E 40 b8 05 65
        E 40 b8 05 65
        E 40 b8 05 65
        E 40 b8 05 65
        E 40 b8 05 65
        E 40 b8 05 65
        E 40 b8 05 65
        E 40 b8 05 65
        E 40 b8 05 65
        E 40 b8 05 65
        E 40 b8 05 65
        E 40 b8 05 65
        E 40 b8 05 65
        E 40 b8 05 65
        E 40 b8 05 65
        E 40 b8 05 65
        E 40 b8 05 65
        E 40 b8 05 65
        E 40 b8 05 65
        E 40 b8 05 65
        E 40 b8 05 65
        E 40 b8 05 65
        E 40 b8 05 65
        E 40 b8 05 65
        E 40 b8 05 65
        E 40 b8 05 65
        E 40 b8 05 65
        E 40 b8 05 65
        E 40 b8 05 65
        E 40 b8 05 65
        E 40 b8 05 65
        E 40 b8 05 65
        E 40 b8 05 65
        E 40 b8 05 65
        E 40 b8 05 65
        E 40 b8 05 65
        E 40 b8 05 65
        E 40 b8 05 65
        E 40 b8 05 65
        E 40 b8 05 65
        E 40 b8 05 65
        E 40 b8 05 65
        E 40 b8 05 65
        E 40 b8 05 65
        E 40 b8 05 65
        E 40 b8 05 65
        E 40 b8 05 65
        E 40 b8 05 65
        E 40 b8 05 65
        E 40 b8 05 65
        E 40 b8 05 65
        E 40 b8 05 65
        E 40 b8 05 65
        E 40 b8 05 65
        E 40 b8 05 65
        E 40 b8 05 00
        E 40 b8 05 00
        E 40 b8 05 00
        E 40 b8 05 00
        E 40 b8 05 00
        E 40 b8 05 00
        E 40 b8 05 00
        E 40 b8 05 00
        E 40 b8 05 00
        E 40 b8 05 00
        E 40 b8 05 00
        E 40 b8 05 00
        E 40 b8 05 00
        E 40 b8 05 00
        E 40 b8 05 00
        E 40 b8 05 00
        E 40 b8 05 00
        E 40 b8 05 00
        E 40 b8 05 00
        E 40 b8 05 00
        E 40 b8 05 00
        E 40 b8 05 00
        E 40 b8 05 00
        E 40 b8 05 00
        E 40 b8 05 00
        E 40 b8 05 00
        E 40 b8 05 00
        E 40 b8 05 00
        E 40 b8 05 00
        E 40 b8 05 00
        E 40 b8 05 00
        E 40 b8 05 00
        E 40 b8 05 00
        E 40 b8 05 00
        E 40 b8 05 00
        E 40 b8 05 00
        E 40 b8 05 00
        E 40 b8 05 00
        E 40 b8 05 00
        E 40 b8 05 00
        E 40 b8 05 00
        E 40 b8 05 00
        E 40 b8 05 00
        E 40 b8 05 00
        E 40 b8 05 00
        E 40 b8 05 00
        E 40 b8 05 00
        E 40 b8 05 00
        E 40 b8 05 00
        E 40 b8 05 00
        E 40 b8 05 00
        E 40 b8 05 00
        E 40 b8 05 00
        E 40 b8 05 00
        E 40 b8 05 00
        E 40 b8 05 00
        E 40 b8 05 00
        E 40 b8 05 00
        E 40 b8 05 00
        E 40 b8 05 00
        E 40 b8 05 00
        E 40 b8 05 00
        E 40 b8 05 00
        E 40 b8 05 00
        E 45 b8 05 0c
        E 45 b8 05 0c
        E 45 b8 05 0c
        E 45 b8 05 0c
        E 45 b8 05 0c
        E 45 b8 05 0c
        E 45 b8 05 0c
        E 45 b8 05 0c
        E 45 b8 05 0c
        E 45 b8 05 0c
        E 45 b8 05 0c
        E 45 b8 05 0c
        E 45 b8 05 0c
        E 45 b8 05 0c
        E 45 b8 05 0c
        E 45 b8 05 0c
        E 45 b8 05 0c
        E 45 b8 05 0c
        E 45 b8 05 0c
        E 45 b8 05 0c
        E 45 b8 05 0c
        E 45 b8 05 0c
        E 45 b8 05 0c
        E 45 b8 05 0c
        E 45 b8 05 0c
        E 45 b8 05 0c
        E 45 b8 05 0c
        E 45 b8 05 0c
        E 45 b8 05 0c
        E 45 b8 05 0c
        E 45 b8 05 0c
        E 45 b8 05 0c
        E 45 b8 05 0c
        E 45 b8 05 0c
        E 45 b8 05 0c
        E 45 b8 05 0c
        E 45 b8 05 0c
        E 45 b8 05 0c
        E 45 b8 05 0c
        E 45 b8 05 0c
        E 45 b8 05 0c
        E 45 b8 05 0c
        E 45 b8 05 0c
        E 45 b8 05 0c
        E 45 b8 05 0c
        E 45 b8 05 0c
        E 45 b8 05 0c
        E 45 b8 05 0c
        E 45 b8 05 0c
        E 45 b8 05 0c
        E 45 b8 05 0c
        E 45 b8 05 0c
        E 45 b8 05 0c
        E 45 b8 05 0c
        E 45 b8 05 0c
        E 45 b8 05 0c
        E 45 b8 05 0c
        E 45 b8 05 0c
        E 45 b8 05 0c
        E 45 b8 05 0c
        E 45 b8 05 0c
        E 45 b8 05 0c
        E 45 b8 05 0c
        E 45 b8 05 00
        E 45 b8 05 00
        E 45 b8 05 00
        E 45 b8 05 00
        E 45 b8 05 00
        E 45 b8 05 00
        E 45 b8 05 00
        E 45 b8 05 00
        E 45 b8 05 00
        E 45 b8 05 00
        E 45 b8 05 00
        E 45 b8 05 00
        E 45 b8 05 00
        E 45 b8 05 00
        E 45 b8 05 00
        E 45 b8 05 00
        E 45 b8 05 00
        E 45 b8 05 00
        E 45 b8 05 00
        E 45 b8 05 00
        E 45 b8 05 00
        E 45 b8 05 00
        E 45 b8 05 00
        E 45 b8 05 00
        E 45 b8 05 00
        E 45 b8 05 00
        E 45 b8 05 00
        E 45 b8 05 00
        E 45 b8 05 00
        E 45 b8 05 00
        E 45 b8 05 00
        E 45 b8 05 00
        E 45 b8 05 00
        E 45 b8 05 00
        E 45 b8 05 00
        E 45 b8 05 00
        E 45 b8 05 00
        E 45 b8 05 00
        E 45 b8 05 00
        E 45 b8 05 00
        E 45 b8 05 00
        E 45 b8 05 00
        E 45 b8 05 00
        E 45 b8 05 00
        E 45 b8 05 00
        E 45 b8 05 00
        E 45 b8 05 00
        E 45 b8 05 00
        E 45 b8 05 00
        E 45 b8 05 00
        E 45 b8 05 00
        E 45 b8 05 00
        E 45 b8 05 00
        E 45 b8 05 00
        E 45 b8 05 00
        E 45 b8 05 00
        E 45 b8 05 00
        E 45 b8 05 00
        E 45 b8 05 00
        E 45 b8 05 00
        E 45 b8 05 00
        E 45 b8 05 00
        E 45 b8 05 00
        E 45 b8 05 00
        E 40 b8 05 32
        E 40 b8 05 32
        E 40 b8 05 32
        E 40 b8 05 32
        E 40 b8 05 32
        E 40 b8 05 32
        E 40 b8 05 32
        E 40 b8 05 32
        E 40 b8 05 32
        E 40 b8 05 32
        E 40 b8 05 32
        E 40 b8 05 32
        E 40 b8 05 32
        E 40 b8 05 32
        E 40 b8 05 32
        E 40 b8 05 32
        E 40 b8 05 32
        E 40 b8 05 32
        E 40 b8 05 32
        E 40 b8 05 32
        E 40 b8 05 32
        E 40 b8 05 32
        E 40 b8 05 32
        E 40 b8 05 32
        E 40 b8 05 32
        E 40 b8 05 32
        E 40 b8 05 32
        E 40 b8 05 32
        E 40 b8 05 32
        E 40 b8 05 32
        E 40 b8 05 32
        E 40 b8 05 32
        E 40 b8 05 32
        E 40 b8 05 32
        E 40 b8 05 32
        E 40 b8 05 32
        E 40 b8 05 32
        E 40 b8 05 32
        E 40 b8 05 32
        E 40 b8 05 32
        E 40 b8 05 32
        E 40 b8 05 32
        E 40 b8 05 32
        E 40 b8 05 32
        E 40 b8 05 32
        E 40 b8 05 32
        E 40 b8 05 32
        E 40 b8 05 32
        E 40 b8 05 32
        E 40 b8 05 32
        E 40 b8 05 32
        E 40 b8 05 32
        E 40 b8 05 32
        E 40 b8 05 32
        E 40 b8 05 32
        E 40 b8 05 32
        E 40 b8 05 32
        E 40 b8 05 32
        E 40 b8 05 32
        E 40 b8 05 32
        E 40 b8 05 32
        E 40 b8 05 32
        E 40 b8 05 32
        E 40 b8 05 00
        E 40 b8 05 00
        E 40 b8 05 00
        E 40 b8 05 00
        E 40 b8 05 00
        E 40 b8 05 00
        E 40 b8 05 00
        E 40 b8 05 00
        E 40 b8 05 00
        E 40 b8 05 00
        E 40 b8 05 00
        E 40 b8 05 00
        E 40 b8 05 00
        E 40 b8 05 00
        E 40 b8 05 00
        E 40 b8 05 00
        E 40 b8 05 00
        E 40 b8 05 00
        E 40 b8 05 00
        E 40 b8 05 00
        E 40 b8 05 00
        E 40 b8 05 00
        E 40 b8 05 00
        E 40 b8 05 00
        E 40 b8 05 00
        E 40 b8 05 00
        E 40 b8 05 00
        E 40 b8 05 00
        E 40 b8 05 00
        E 40 b8 05 00
        E 40 b8 05 00
        E 40 b8 05 00
        E 40 b8 05 00
        E 40 b8 05 00
        E 40 b8 05 00
        E 40 b8 05 00
        E 40 b8 05 00
        E 40 b8 05 00
        E 40 b8 05 00
        E 40 b8 05 00
        E 40 b8 05 00
        E 40 b8 05 00
        E 40 b8 05 00
        E 40 b8 05 00
        E 40 b8 05 00
        E 40 b8 05 00
        E 40 b8 05 00
        E 40 b8 05 00
        E 40 b8 05 00
        E 40 b8 05 00
        E 40 b8 05 00
        E 40 b8 05 00
        E 40 b8 05 00
        E 40 b8 05 00
        E 40 b8 05 00
        E 40 b8 05 00
        E 40 b8 05 00
        E 40 b8 05 00
        E 40 b8 05 00
        E 40 b8 05 00
        E 40 b8 05 00
        E 40 b8 05 00
        E 40 b8 05 00
        E 40 b8 05 00
        E 31 b8 05 3f
        E 31 b8 05 3f
        E 31 b8 05 3f
        E 31 b8 05 3f
        E 31 b8 05 3f
        E 31 b8 05 3f
        E 31 b8 05 3f
        E 31 b8 05 3f
        E 31 b8 05 3f
        E 31 b8 05 3f
        E 31 b8 05 3f
        E 31 b8 05 3f
        E 31 b8 05 3f
        E 31 b8 05 3f
        E 31 b8 05 3f
        E 31 b8 05 3f
        E 31 b8 05 3f
        E 31 b8 05 3f
        E 31 b8 05 3f
        E 31 b8 05 3f
        E 31 b8 05 3f
        E 31 b8 05 3f
        E 31 b8 05 3f
        E 31 b8 05 3f
        E 31 b8 05 3f
        E 31 b8 05 3f
        E 31 b8 05 3f
        E 31 b8 05 3f
        E 31 b8 05 3f
        E 31 b8 05 3f
        E 31 b8 05 3f
        E 31 b8 05 3f
        E 31 b8 05 3f
        E 31 b8 05 3f
        E 31 b8 05 3f
        E 31 b8 05 3f
        E 31 b8 05 3f
        E 31 b8 05 3f
        E 31 b8 05 3f
        E 31 b8 05 3f
        E 31 b8 05 3f
        E 31 b8 05 3f
        E 31 b8 05 3f
        E 31 b8 05 3f
        E 31 b8 05 3f
        E 31 b8 05 3f
        E 31 b8 05 3f
        E 31 b8 05 3f
        E 31 b8 05 3f
        E 31 b8 05 3f
        E 31 b8 05 3f
        E 31 b8 05 3f
        E 31 b8 05 3f
        E 31 b8 05 3f
        E 31 b8 05 3f
        E 31 b8 05 3f
        E 31 b8 05 3f
        E 31 b8 05 3f
        E 31 b8 05 3f
        E 31 b8 05 3f
        E 31 b8 05 3f
        E 31 b8 05 3f
        E 31 b8 05 3f
        E 31 b8 05 00
        E 31 b8 05 00
        E 31 b8 05 00
        E 31 b8 05 00
        E 31 b8 05 00
        E 31 b8 05 00
        E 31 b8 05 00
        E 31 b8 05 00
        E 31 b8 05 00
        E 31 b8 05 00
        E 31 b8 05 00
        E 31 b8 05 00
        E 31 b8 05 00
        E 31 b8 05 00
        E 31 b8 05 00
        E 31 b8 05 00
        E 31 b8 05 00
        E 31 b8 05 00
        E 31 b8 05 00
        E 31 b8 05 00
        E 31 b8 05 00
        E 31 b8 05 00
        E 31 b8 05 00
        E 31 b8 05 00
        E 31 b8 05 00
        E 31 b8 05 00
        E 31 b8 05 00
        E 31 b8 05 00
        E 31 b8 05 00
        E 31 b8 05 00
        E 31 b8 05 00
        E 31 b8 05 00
        E 31 b8 05 00
        E 31 b8 05 00
        E 31 b8 05 00
        E 31 b8 05 00
        E 31 b8 05 00
        E 31 b8 05 00
        E 31 b8 05 00
        E 31 b8 05 00
        E 31 b8 05 00
        E 31 b8 05 00
        E 31 b8 05 00
        E 31 b8 05 00
        E 31 b8 05 00
        E 31 b8 05 00
        E 31 b8 05 00
        E 31 b8 05 00
        E 31 b8 05 00
        E 31 b8 05 00
        E 31 b8 05 00
        E 31 b8 05 00
        E 31 b8 05 00
        E 31 b8 05 00
        E 31 b8 05 00
        E 31 b8 05 00
        E 31 b8 05 00
        E 31 b8 05 00
        E 31 b8 05 00
        E 31 b8 05 00
        E 31 b8 05 00
        E 31 b8 05 00
        E 31 b8 05 00
        E 31 b8 05 00
        E 36 b8 05 7f
        E 36 b8 05 7f
        E 36 b8 05 7f
        E 36 b8 05 7f
        E 36 b8 05 7f
        E 36 b8 05 7f
        E 36 b8 05 7f
        E 36 b8 05 7f
        E 36 b8 05 7f
        E 36 b8 05 7f
        E 36 b8 05 7f
        E 36 b8 05 7f
        E 36 b8 05 7f
        E 36 b8 05 7f
        E 36 b8 05 7f
        E 36 b8 05 7f
        E 36 b8 05 7f
        E 36 b8 05 7f
        E 36 b8 05 7f
        E 36 b8 05 7f
        E 36 b8 05 7f
        E 36 b8 05 7f
        E 36 b8 05 7f
        E 36 b8 05 7f
        E 36 b8 05 7f
        E 36 b8 05 7f
        E 36 b8 05 7f
        E 36 b8 05 7f
        E 36 b8 05 7f
        E 36 b8 05 7f
        E 36 b8 05 7f
        E 36 b8 05 7f
        E 36 b8 05 7f
        E 36 b8 05 7f
        E 36 b8 05 7f
        E 36 b8 05 7f
        E 36 b8 05 7f
        E 36 b8 05 7f
        E 36 b8 05 7f
        E 36 b8 05 7f
        E 36 b8 05 7f
        E 36 b8 05 7f
        E 36 b8 05 7f
        E 36 b8 05 7f
        E 36 b8 05 7f
        E 36 b8 05 7f
        E 36 b8 05 7f
        E 36 b8 05 7f
        E 36 b8 05 7f
        E 36 b8 05 7f
        E 36 b8 05 7f
        E 36 b8 05 7f
        E 36 b8 05 7f
        E 36 b8 05 7f
        E 36 b8 05 7f
        E 36 b8 05 7f
        E 36 b8 05 7f
        E 36 b8 05 7f
        E 36 b8 05 7f
        E 36 b8 05 7f
        E 36 b8 05 7f
        E 36 b8 05 7f
        E 36 b8 05 7f
        E 36 b8 05 00
        E 36 b8 05 00
        E 36 b8 05 00
        E 36 b8 05 00
        E 36 b8 05 00
        E 36 b8 05 00
        E 36 b8 05 00
        E 36 b8 05 00
        E 36 b8 05 00
        E 36 b8 05 00
        E 36 b8 05 00
        E 36 b8 05 00
        E 36 b8 05 00
        E 36 b8 05 00
        E 36 b8 05 00
        E 36 b8 05 00
        E 36 b8 05 00
        E 36 b8 05 00
        E 36 b8 05 00
        E 36 b8 05 00
        E 36 b8 05 00
        E 36 b8 05 00
        E 36 b8 05 00
        E 36 b8 05 00
        E 36 b8 05 00
        E 36 b8 05 00
        E 36 b8 05 00
        E 36 b8 05 00
        E 36 b8 05 00
        E 36 b8 05 00
        E 36 b8 05 00
        E 36 b8 05 00
        E 36 b8 05 00
        E 36 b8 05 00
        E 36 b8 05 00
        E 36 b8 05 00
        E 36 b8 05 00
        E 36 b8 05 00
        E 36 b8 05 00
        E 36 b8 05 00
        E 36 b8 05 00
        E 36 b8 05 00
        E 36 b8 05 00
        E 36 b8 05 00
        E 36 b8 05 00
        E 36 b8 05 00
        E 36 b8 05 00
        E 36 b8 05 00
        E 36 b8 05 00
        E 36 b8 05 00
        E 36 b8 05 00
        E 36 b8 05 00
        E 36 b8 05 00
        E 36 b8 05 00
        E 36 b8 05 00
        E 36 b8 05 00
        E 36 b8 05 00
        E 36 b8 05 00
        E 36 b8 05 00
        E 36 b8 05 00
        E 36 b8 05 00
        E 36 b8 05 00
        E 36 b8 05 00
        E 36 b8 05 00
        E 4 b8 05 72
        E 4 b8 05 72
        E 4 b8 05 72
        E 4 b8 05 72
        E 4 b8 05 72
        E 4 b8 05 72
        E 4 b8 05 72
        E 4 b8 05 72
        E 4 b8 05 72
        E 4 b8 05 72
        E 4 b8 05 72
        E 4 b8 05 72
        E 4 b8 05 72
        E 4 b8 05 72
        E 4 b8 05 72
        E 4 b8 05 72
        E 4 b8 05 72
        E 4 b8 05 72
        E 4 b8 05 72
        E 4 b8 05 72
        E 4 b8 05 72
        E 4 b8 05 72
        E 4 b8 05 72
        E 4 b8 05 72
        E 4 b8 05 72
        E 4 b8 05 72
        E 4 b8 05 72
        E 4 b8 05 72
        E 4 b8 05 72
        E 4 b8 05 72
        E 4 b8 05 72
        E 4 b8 05 72
        E 4 b8 05 72
        E 4 b8 05 72
        E 4 b8 05 72
        E 4 b8 05 72
        E 4 b8 05 72
        E 4 b8 05 72
        E 4 b8 05 72
        E 4 b8 05 72
        E 4 b8 05 72
        E 4 b8 05 72
        E 4 b8 05 72
        E 4 b8 05 72
        E 4 b8 05 72
        E 4 b8 05 72
        E 4 b8 05 72
        E 4 b8 05 72
        E 4 b8 05 72
        E 4 b8 05 72
        E 4 b8 05 72
        E 4 b8 05 72
        E 4 b8 05 72
        E 4 b8 05 72
        E 4 b8 05 72
        E 4 b8 05 72
        E 4 b8 05 72
        E 4 b8 05 72
        E 4 b8 05 72
        E 4 b8 05 72
        E 4 b8 05 72
        E 4 b8 05 72
        E 4 b8 05 72
        E 4 b8 05 00
        E 4 b8 05 00
        E 4 b8 05 00
        E 4 b8 05 00
        E 4 b8 05 00
        E 4 b8 05 00
        E 4 b8 05 00
        E 4 b8 05 00
        E 4 b8 05 00
        E 4 b8 05 00
        E 4 b8 05 00
        E 4 b8 05 00
        E 4 b8 05 00
        E 4 b8 05 00
        E 4 b8 05 00
        E 4 b8 05 00
        E 4 b8 05 00
        E 4 b8 05 00
        E 4 b8 05 00
        E 4 b8 05 00
        E 4 b8 05 00
        E 4 b8 05 00
        E 4 b8 05 00
        E 4 b8 05 00
        E 4 b8 05 00
        E 4 b8 05 00
        E 4 b8 05 00
        E 4 b8 05 00
        E 4 b8 05 00
        E 4 b8 05 00
        E 4 b8 05 00
        E 4 b8 05 00
        E 4 b8 05 00
        E 4 b8 05 00
        E 4 b8 05 00
        E 4 b8 05 00
        E 4 b8 05 00
        E 4 b8 05 00
        E 4 b8 05 00
        E 4 b8 05 00
        E 4 b8 05 00
        E 4 b8 05 00
        E 4 b8 05 00
        E 4 b8 05 00
        E 4 b8 05 00
        E 4 b8 05 00
        E 4 b8 05 00
        E 4 b8 05 00
        E 4 b8 05 00
        E 4 b8 05 00
        E 4 b8 05 00
        E 4 b8 05 00
        E 4 b8 05 00
        E 4 b8 05 00
        E 4 b8 05 00
        E 4 b8 05 00
        E 4 b8 05 00
        E 4 b8 05 00
        E 4 b8 05 00
        E 4 b8 05 00
        E 4 b8 05 00
        E 4 b8 05 00
        E 4 b8 05 00
        E 4 b8 05 00
        E 18 b8 05 7f
        E 18 b8 05 7f
        E 18 b8 05 7f
        E 18 b8 05 7f
        E 18 b8 05 7f
        E 18 b8 05 7f
        E 18 b8 05 7f
        E 18 b8 05 7f
        E 18 b8 05 7f
        E 18 b8 05 7f
        E 18 b8 05 7f
        E 18 b8 05 7f
        E 18 b8 05 7f
        E 18 b8 05 7f
        E 18 b8 05 7f
        E 18 b8 05 7f
        E 18 b8 05 7f
        E 18 b8 05 7f
        E 18 b8 05 7f
        E 18 b8 05 7f
        E 18 b8 05 7f
        E 18 b8 05 7f
        E 18 b8 05 7f
        E 18 b8 05 7f
        E 18 b8 05 7f
        E 18 b8 05 7f
        E 18 b8 05 7f
        E 18 b8 05 7f
        E 18 b8 05 7f
        E 18 b8 05 7f
        E 18 b8 05 7f
        E 18 b8 05 7f
        E 18 b8 05 7f
        E 18 b8 05 7f
        E 18 b8 05 7f
        E 18 b8 05 7f
        E 18 b8 05 7f
        E 18 b8 05 7f
        E 18 b8 05 7f
        E 18 b8 05 7f
        E 18 b8 05 7f
        E 18 b8 05 7f
        E 18 b8 05 7f
        E 18 b8 05 7f
        E 18 b8 05 7f
        E 18 b8 05 7f
        E 18 b8 05 7f
        E 18 b8 05 7f
        E 18 b8 05 7f
        E 18 b8 05 7f
        E 18 b8 05 7f
        E 18 b8 05 7f
        E 18 b8 05 7f
        E 18 b8 05 7f
        E 18 b8 05 7f
        E 18 b8 05 7f
        E 18 b8 05 7f
        E 18 b8 05 7f
        E 18 b8 05 7f
        E 18 b8 05 7f
        E 18 b8 05 7f
        E 18 b8 05 7f
        E 18 b8 05 7f
        E 18 b8 05 00
        E 18 b8 05 00
        E 18 b8 05 00
        E 18 b8 05 00
        E 18 b8 05 00
        E 18 b8 05 00
        E 18 b8 05 00
        E 18 b8 05 00
        E 18 b8 05 00
        E 18 b8 05 00
        E 18 b8 05 00
        E 18 b8 05 00
        E 18 b8 05 00
        E 18 b8 05 00
        E 18 b8 05 00
        E 18 b8 05 00
        E 18 b8 05 00
        E 18 b8 05 00
        E 18 b8 05 00
        E 18 b8 05 00
        E 18 b8 05 00
        E 18 b8 05 00
        E 18 b8 05 00
        E 18 b8 05 00
        E 18 b8 05 00
        E 18 b8 05 00
        E 18 b8 05 00
        E 18 b8 05 00
        E 18 b8 05 00
        E 18 b8 05 00
        E 18 b8 05 00
        E 18 b8 05 00
        E 18 b8 05 00
        E 18 b8 05 00
        E 18 b8 05 00
        E 18 b8 05 00
        E 18 b8 05 00
        E 18 b8 05 00
        E 18 b8 05 00
        E 18 b8 05 00
        E 18 b8 05 00
        E 18 b8 05 00
        E 18 b8 05 00
        E 18 b8 05 00
        E 18 b8 05 00
        E 18 b8 05 00
        E 18 b8 05 00
        E 18 b8 05 00
        E 18 b8 05 00
        E 18 b8 05 00
        E 18 b8 05 00
        E 18 b8 05 00
        E 18 b8 05 00
        E 18 b8 05 00
        E 18 b8 05 00
        E 18 b8 05 00
        E 18 b8 05 00
        E 18 b8 05 00
        E 18 b8 05 00
        E 18 b8 05 00
        E 18 b8 05 00
        E 18 b8 05 00
        E 18 b8 05 00
        E 18 b8 05 00
        E 31 b8 05 72
        E 31 b8 05 72
        E 31 b8 05 72
        E 31 b8 05 72
        E 31 b8 05 72
        E 31 b8 05 72
        E 31 b8 05 72
        E 31 b8 05 72
        E 31 b8 05 72
        E 31 b8 05 72
        E 31 b8 05 72
        E 31 b8 05 72
        E 31 b8 05 72
        E 31 b8 05 72
        E 31 b8 05 72
        E 31 b8 05 72
        E 31 b8 05 72
        E 31 b8 05 72
        E 31 b8 05 72
        E 31 b8 05 72
        E 31 b8 05 72
        E 31 b8 05 72
        E 31 b8 05 72
        E 31 b8 05 72
        E 31 b8 05 72
        E 31 b8 05 72
        E 31 b8 05 72
        E 31 b8 05 72
        E 31 b8 05 72
        E 31 b8 05 72
        E 31 b8 05 72
        E 31 b8 05 72
        E 31 b8 05 72
        E 31 b8 05 72
        E 31 b8 05 72
        E 31 b8 05 72
        E 31 b8 05 72
        E 31 b8 05 72
        E 31 b8 05 72
        E 31 b8 05 72
        E 31 b8 05 72
        E 31 b8 05 72
        E 31 b8 05 72
        E 31 b8 05 72
        E 31 b8 05 72
        E 31 b8 05 72
        E 31 b8 05 72
        E 31 b8 05 72
        E 31 b8 05 72
        E 31 b8 05 72
        E 31 b8 05 72
        E 31 b8 05 72
        E 31 b8 05 72
        E 31 b8 05 72
        E 31 b8 05 72
        E 31 b8 05 72
        E 31 b8 05 72
        E 31 b8 05 72
        E 31 b8 05 72
        E 31 b8 05 72
        E 31 b8 05 72
        E 31 b8 05 72
        E 31 b8 05 72
        E 31 b8 05 00
        E 31 b8 05 00
        E 31 b8 05 00
        E 31 b8 05 00
        E 31 b8 05 00
        E 31 b8 05 00
        E 31 b8 05 00
        E 31 b8 05 00
        E 31 b8 05 00
        E 31 b8 05 00
        E 31 b8 05 00
        E 31 b8 05 00
        E 31 b8 05 00
        E 31 b8 05 00
        E 31 b8 05 00
        E 31 b8 05 00
        E 31 b8 05 00
        E 31 b8 05 00
        E 31 b8 05 00
        E 31 b8 05 00
        E 31 b8 05 00
        E 31 b8 05 00
        E 31 b8 05 00
        E 31 b8 05 00
        E 31 b8 05 00
        E 31 b8 05 00
        E 31 b8 05 00
        E 31 b8 05 00
        E 31 b8 05 00
        E 31 b8 05 00
        E 31 b8 05 00
        E 31 b8 05 00
        E 31 b8 05 00
        E 31 b8 05 00
        E 31 b8 05 00
        E 31 b8 05 00
        E 31 b8 05 00
        E 31 b8 05 00
        E 31 b8 05 00
        E 31 b8 05 00
        E 31 b8 05 00
        E 31 b8 05 00
        E 31 b8 05 00
        E 31 b8 05 00
        E 31 b8 05 00
        E 31 b8 05 00
        E 31 b8 05 00
        E 31 b8 05 00
        E 31 b8 05 00
        E 31 b8 05 00
        E 31 b8 05 00
        E 31 b8 05 00
        E 31 b8 05 00
        E 31 b8 05 00
        E 31 b8 05 00
        E 31 b8 05 00
        E 31 b8 05 00
        E 31 b8 05 00
        E 31 b8 05 00
        E 31 b8 05 00
        E 31 b8 05 00
        E 31 b8 05 00
        E 31 b8 05 00
        E 31 b8 05 00
        E 22 b8 05 3f
        E 22 b8 05 3f
        E 22 b8 05 3f
        E 22 b8 05 3f
        E 22 b8 05 3f
        E 22 b8 05 3f
        E 22 b8 05 3f
        E 22 b8 05 3f
        E 22 b8 05 3f
        E 22 b8 05 3f
        E 22 b8 05 3f
        E 22 b8 05 3f
        E 22 b8 05 3f
        E 22 b8 05 3f
        E 22 b8 05 3f
        E 22 b8 05 3f
        E 22 b8 05 3f
        E 22 b8 05 3f
        E 22 b8 05 3f
        E 22 b8 05 3f
        E 22 b8 05 3f
        E 22 b8 05 3f
        E 22 b8 05 3f
        E 22 b8 05 3f
        E 22 b8 05 3f
        E 22 b8 05 3f
        E 22 b8 05 3f
        E 22 b8 05 3f
        E 22 b8 05 3f
        E 22 b8 05 3f
        E 22 b8 05 3f
        E 22 b8 05 3f
        E 22 b8 05 3f
        E 22 b8 05 3f
        E 22 b8 05 3f
        E 22 b8 05 3f
        E 22 b8 05 3f
        E 22 b8 05 3f
        E 22 b8 05 3f
        E 22 b8 05 3f
        E 22 b8 05 3f
        E 22 b8 05 3f
        E 22 b8 05 3f
        E 22 b8 05 3f
        E 22 b8 05 3f
        E 22 b8 05 3f
        E 22 b8 05 3f
        E 22 b8 05 3f
        E 22 b8 05 3f
        E 22 b8 05 3f
        E 22 b8 05 3f
        E 22 b8 05 3f
        E 22 b8 05 3f
        E 22 b8 05 3f
        E 22 b8 05 3f
        E 22 b8 05 3f
        E 22 b8 05 3f
        E 22 b8 05 3f
        E 22 b8 05 3f
        E 22 b8 05 3f
        E 22 b8 05 3f
        E 22 b8 05 3f
        E 22 b8 05 3f
        E 22 b8 05 00
        E 22 b8 05 00
        E 22 b8 05 00
        E 22 b8 05 00
        E 22 b8 05 00
        E 22 b8 05 00
        E 22 b8 05 00
        E 22 b8 05 00
        E 22 b8 05 00
        E 22 b8 05 00
        E 22 b8 05 00
        E 22 b8 05 00
        E 22 b8 05 00
        E 22 b8 05 00
        E 22 b8 05 00
        E 22 b8 05 00
        E 22 b8 05 00
        E 22 b8 05 00
        E 22 b8 05 00
        E 22 b8 05 00
        E 22 b8 05 00
        E 22 b8 05 00
        E 22 b8 05 00
        E 22 b8 05 00
        E 22 b8 05 00
        E 22 b8 05 00
        E 22 b8 05 00
        E 22 b8 05 00
        E 22 b8 05 00
        E 22 b8 05 00
        E 22 b8 05 00
        E 22 b8 05 00
        E 22 b8 05 00
        E 22 b8 05 00
        E 22 b8 05 00
        E 22 b8 05 00
        E 22 b8 05 00
        E 22 b8 05 00
        E 22 b8 05 00
        E 22 b8 05 00
        E 22 b8 05 00
        E 22 b8 05 00
        E 22 b8 05 00
        E 22 b8 05 00
        E 22 b8 05 00
        E 22 b8 05 00
        E 22 b8 05 00
        E 22 b8 05 00
        E 22 b8 05 00
        E 22 b8 05 00
        E 22 b8 05 00
        E 22 b8 05 00
        E 22 b8 05 00
        E 22 b8 05 00
        E 22 b8 05 00
        E 22 b8 05 00
        E 22 b8 05 00
        E 22 b8 05 00
        E 22 b8 05 00
        E 22 b8 05 00
        E 22 b8 05 00
        E 22 b8 05 00
        E 22 b8 05 00
        E 22 b8 05 00
        E 22 b8 05 3f
        E 22 b8 05 3f
        E 22 b8 05 3f
        E 22 b8 05 3f
        E 22 b8 05 3f
        E 22 b8 05 3f
        E 22 b8 05 3f
        E 22 b8 05 3f
        E 22 b8 05 3f
        E 22 b8 05 3f
        E 22 b8 05 3f
        E 22 b8 05 3f
        E 22 b8 05 3f
        E 22 b8 05 3f
        E 22 b8 05 3f
        E 22 b8 05 3f
        E 22 b8 05 3f
        E 22 b8 05 3f
        E 22 b8 05 3f
        E 22 b8 05 3f
        E 22 b8 05 3f
        E 22 b8 05 3f
        E 22 b8 05 3f
        E 22 b8 05 3f
        E 22 b8 05 3f
        E 22 b8 05 3f
        E 22 b8 05 3f
        E 22 b8 05 3f
        E 22 b8 05 3f
        E 22 b8 05 3f
        E 22 b8 05 3f
        E 22 b8 05 3f
        E 22 b8 05 3f
        E 22 b8 05 3f
        E 22 b8 05 3f
        E 22 b8 05 3f
        E 22 b8 05 3f
        E 22 b8 05 3f
        E 22 b8 05 3f
        E 22 b8 05 3f
        E 22 b8 05 3f
        E 22 b8 05 3f
        E 22 b8 05 3f
        E 22 b8 05 3f
        E 22 b8 05 3f
        E 22 b8 05 3f
        E 22 b8 05 3f
        E 22 b8 05 3f
        E 22 b8 05 3f
        E 22 b8 05 3f
        E 22 b8 05 3f
        E 22 b8 05 3f
        E 22 b8 05 3f
        E 22 b8 05 3f
        E 22 b8 05 3f
        E 22 b8 05 3f
        E 22 b8 05 3f
        E 22 b8 05 3f
        E 22 b8 05 3f
        E 22 b8 05 3f
        E 22 b8 05 3f
        E 22 b8 05 3f
        E 22 b8 05 3f
        E 22 b8 05 00
        E 22 b8 05 00
        E 22 b8 05 00
        E 22 b8 05 00
        E 22 b8 05 00
        E 22 b8 05 00
        E 22 b8 05 00
        E 22 b8 05 00
        E 22 b8 05 00
        E 22 b8 05 00
        E 22 b8 05 00
        E 22 b8 05 00
        E 22 b8 05 00
        E 22 b8 05 00
        E 22 b8 05 00
        E 22 b8 05 00
        E 22 b8 05 00
        E 22 b8 05 00
        E 22 b8 05 00
        E 22 b8 05 00
        E 22 b8 05 00
        E 22 b8 05 00
        E 22 b8 05 00
        E 22 b8 05 00
        E 22 b8 05 00
        E 22 b8 05 00
        E 22 b8 05 00
        E 22 b8 05 00
        E 22 b8 05 00
        E 22 b8 05 00
        E 22 b8 05 00
        E 22 b8 05 00
        E 22 b8 05 00
        E 22 b8 05 00
        E 22 b8 05 00
        E 22 b8 05 00
        E 22 b8 05 00
        E 22 b8 05 00
        E 22 b8 05 00
        E 22 b8 05 00
        E 22 b8 05 00
        E 22 b8 05 00
        E 22 b8 05 00
        E 22 b8 05 00
        E 22 b8 05 00
        E 22 b8 05 00
        E 22 b8 05 00
        E 22 b8 05 00
        E 22 b8 05 00
        E 22 b8 05 00
        E 22 b8 05 00
        E 22 b8 05 00
        E 22 b8 05 00
        E 22 b8 05 00
        E 22 b8 05 00
        E 22 b8 05 00
        E 22 b8 05 00
        E 22 b8 05 00
        E 22 b8 05 00
        E 22 b8 05 00
        E 22 b8 05 00
        E 22 b8 05 00
        E 22 b8 05 00
        E 22 b8 05 00
        E 45 b8 05 58
        E 45 b8 05 58
        E 45 b8 05 58
        E 45 b8 05 58
        E 45 b8 05 58
        E 45 b8 05 58
        E 45 b8 05 58
        E 45 b8 05 58
        E 45 b8 05 58
        E 45 b8 05 58
        E 45 b8 05 58
        E 45 b8 05 58
        E 45 b8 05 58
        E 45 b8 05 58
        E 45 b8 05 58
        E 45 b8 05 58
        E 45 b8 05 58
        E 45 b8 05 58
        E 45 b8 05 58
        E 45 b8 05 58
        E 45 b8 05 58
        E 45 b8 05 58
        E 45 b8 05 58
        E 45 b8 05 58
        E 45 b8 05 58
        E 45 b8 05 58
        E 45 b8 05 58
        E 45 b8 05 58
        E 45 b8 05 58
        E 45 b8 05 58
        E 45 b8 05 58
        E 45 b8 05 58
        E 45 b8 05 58
        E 45 b8 05 58
        E 45 b8 05 58
        E 45 b8 05 58
        E 45 b8 05 58
        E 45 b8 05 58
        E 45 b8 05 58
        E 45 b8 05 58
        E 45 b8 05 58
        E 45 b8 05 58
        E 45 b8 05 58
        E 45 b8 05 58
        E 45 b8 05 58
        E 45 b8 05 58
        E 45 b8 05 58
        E 45 b8 05 58
        E 45 b8 05 58
        E 45 b8 05 58
        E 45 b8 05 58
        E 45 b8 05 58
        E 45 b8 05 58
        E 45 b8 05 58
        E 45 b8 05 58
        E 45 b8 05 58
        E 45 b8 05 58
        E 45 b8 05 58
        E 45 b8 05 58
        E 45 b8 05 58
        E 45 b8 05 58
        E 45 b8 05 58
        E 45 b8 05 58
        E 45 b8 05 00
        E 45 b8 05 00
        E 45 b8 05 00
        E 45 b8 05 00
        E 45 b8 05 00
        E 45 b8 05 00
        E 45 b8 05 00
        E 45 b8 05 00
        E 45 b8 05 00
        E 45 b8 05 00
        E 45 b8 05 00
        E 45 b8 05 00
        E 45 b8 05 00
        E 45 b8 05 00
        E 45 b8 05 00
        E 45 b8 05 00
        E 45 b8 05 00
        E 45 b8 05 00
        E 45 b8 05 00
        E 45 b8 05 00
        E 45 b8 05 00
        E 45 b8 05 00
        E 45 b8 05 00
        E 45 b8 05 00
        E 45 b8 05 00
        E 45 b8 05 00
        E 45 b8 05 00
        E 45 b8 05 00
        E 45 b8 05 00
        E 45 b8 05 00
        E 45 b8 05 00
        E 45 b8 05 00
        E 45 b8 05 00
        E 45 b8 05 00
        E 45 b8 05 00
        E 45 b8 05 00
        E 45 b8 05 00
        E 45 b8 05 00
        E 45 b8 05 00
        E 45 b8 05 00
        E 45 b8 05 00
        E 45 b8 05 00
        E 45 b8 05 00
        E 45 b8 05 00
        E 45 b8 05 00
        E 45 b8 05 00
        E 45 b8 05 00
        E 45 b8 05 00
        E 45 b8 05 00
        E 45 b8 05 00
        E 45 b8 05 00
        E 45 b8 05 00
        E 45 b8 05 00
        E 45 b8 05 00
        E 45 b8 05 00
        E 45 b8 05 00
        E 45 b8 05 00
        E 45 b8 05 00
        E 45 b8 05 00
        E 45 b8 05 00
        E 45 b8 05 00
        E 45 b8 05 00
        E 45 b8 05 00
        E 45 b8 05 00
        E 40 b8 05 65
        E 40 b8 05 65
        E 40 b8 05 65
        E 40 b8 05 65
        E 40 b8 05 65
        E 40 b8 05 65
        E 40 b8 05 65
        E 40 b8 05 65
        E 40 b8 05 65
        E 40 b8 05 65
        E 40 b8 05 65
        E 40 b8 05 65
        E 40 b8 05 65
        E 40 b8 05 65
        E 40 b8 05 65
        E 40 b8 05 65
        E 40 b8 05 65
        E 40 b8 05 65
        E 40 b8 05 65
        E 40 b8 05 65
        E 40 b8 05 65
        E 40 b8 05 65
        E 40 b8 05 65
        E 40 b8 05 65
        E 40 b8 05 65
        E 40 b8 05 65
        E 40 b8 05 65
        E 40 b8 05 65
        E 40 b8 05 65
        E 40 b8 05 65
        E 40 b8 05 65
        E 40 b8 05 65
        E 40 b8 05 65
        E 40 b8 05 65
        E 40 b8 05 65
        E 40 b8 05 65
        E 40 b8 05 65
        E 40 b8 05 65
        E 40 b8 05 65
        E 40 b8 05 65
        E 40 b8 05 65
        E 40 b8 05 65
        E 40 b8 05 65
        E 40 b8 05 65
        E 40 b8 05 65
        E 40 b8 05 65
        E 40 b8 05 65
        E 40 b8 05 65
        E 40 b8 05 65
        E 40 b8 05 65
        E 40 b8 05 65
        E 40 b8 05 65
        E 40 b8 05 65
        E 40 b8 05 65
        E 40 b8 05 65
        E 40 b8 05 65
        E 40 b8 05 65
        E 40 b8 05 65
        E 40 b8 05 65
        E 40 b8 05 65
        E 40 b8 05 65
        E 40 b8 05 65
        E 40 b8 05 65
        E 40 b8 05 00
        E 40 b8 05 00
        E 40 b8 05 00
        E 40 b8 05 00
        E 40 b8 05 00
        E 40 b8 05 00
        E 40 b8 05 00
        E 40 b8 05 00
        E 40 b8 05 00
        E 40 b8 05 00
        E 40 b8 05 00
        E 40 b8 05 00
        E 40 b8 05 00
        E 40 b8 05 00
        E 40 b8 05 00
        E 40 b8 05 00
        E 40 b8 05 00
        E 40 b8 05 00
        E 40 b8 05 00
        E 40 b8 05 00
        E 40 b8 05 00
        E 40 b8 05 00
        E 40 b8 05 00
        E 40 b8 05 00
        E 40 b8 05 00
        E 40 b8 05 00
        E 40 b8 05 00
        E 40 b8 05 00
        E 40 b8 05 00
        E 40 b8 05 00
        E 40 b8 05 00
        E 40 b8 05 00
        E 40 b8 05 00
        E 40 b8 05 00
        E 40 b8 05 00
        E 40 b8 05 00
        E 40 b8 05 00
        E 40 b8 05 00
        E 40 b8 05 00
        E 40 b8 05 00
        E 40 b8 05 00
        E 40 b8 05 00
        E 40 b8 05 00
        E 40 b8 05 00
        E 40 b8 05 00
        E 40 b8 05 00
        E 40 b8 05 00
        E 40 b8 05 00
        E 40 b8 05 00
        E 40 b8 05 00
        E 40 b8 05 00
        E 40 b8 05 00
        E 40 b8 05 00
        E 40 b8 05 00
        E 40 b8 05 00
        E 40 b8 05 00
        E 40 b8 05 00
        E 40 b8 05 00
        E 40 b8 05 00
        E 40 b8 05 00
        E 40 b8 05 00
        E 40 b8 05 00
        E 40 b8 05 00
        E 40 b8 05 00
        E 45 b8 05 0c
        E 45 b8 05 0c
        E 45 b8 05 0c
        E 45 b8 05 0c
        E 45 b8 05 0c
        E 45 b8 05 0c
        E 45 b8 05 0c
        E 45 b8 05 0c
        E 45 b8 05 0c
        E 45 b8 05 0c
        E 45 b8 05 0c
        E 45 b8 05 0c
        E 45 b8 05 0c
        E 45 b8 05 0c
        E 45 b8 05 0c
        E 45 b8 05 0c
        E 45 b8 05 0c
        E 45 b8 05 0c
        E 45 b8 05 0c
        E 45 b8 05 0c
        E 45 b8 05 0c
        E 45 b8 05 0c
        E 45 b8 05 0c
        E 45 b8 05 0c
        E 45 b8 05 0c
        E 45 b8 05 0c
        E 45 b8 05 0c
        E 45 b8 05 0c
        E 45 b8 05 0c
        E 45 b8 05 0c
        E 45 b8 05 0c
        E 45 b8 05 0c
        E 45 b8 05 0c
        E 45 b8 05 0c
        E 45 b8 05 0c
        E 45 b8 05 0c
        E 45 b8 05 0c
        E 45 b8 05 0c
        E 45 b8 05 0c
        E 45 b8 05 0c
        E 45 b8 05 0c
        E 45 b8 05 0c
        E 45 b8 05 0c
        E 45 b8 05 0c
        E 45 b8 05 0c
        E 45 b8 05 0c
        E 45 b8 05 0c
        E 45 b8 05 0c
        E 45 b8 05 0c
        E 45 b8 05 0c
        E 45 b8 05 0c
        E 45 b8 05 0c
        E 45 b8 05 0c
        E 45 b8 05 0c
        E 45 b8 05 0c
        E 45 b8 05 0c
        E 45 b8 05 0c
        E 45 b8 05 0c
        E 45 b8 05 0c
        E 45 b8 05 0c
        E 45 b8 05 0c
        E 45 b8 05 0c
        E 45 b8 05 0c
        E 45 b8 05 00
        E 45 b8 05 00
        E 45 b8 05 00
        E 45 b8 05 00
        E 45 b8 05 00
        E 45 b8 05 00
        E 45 b8 05 00
        E 45 b8 05 00
        E 45 b8 05 00
        E 45 b8 05 00
        E 45 b8 05 00
        E 45 b8 05 00
        E 45 b8 05 00
        E 45 b8 05 00
        E 45 b8 05 00
        E 45 b8 05 00
        E 45 b8 05 00
        E 45 b8 05 00
        E 45 b8 05 00
        E 45 b8 05 00
        E 45 b8 05 00
        E 45 b8 05 00
        E 45 b8 05 00
        E 45 b8 05 00
        E 45 b8 05 00
        E 45 b8 05 00
        E 45 b8 05 00
        E 45 b8 05 00
        E 45 b8 05 00
        E 45 b8 05 00
        E 45 b8 05 00
        E 45 b8 05 00
        E 45 b8 05 00
        E 45 b8 05 00
        E 45 b8 05 00
        E 45 b8 05 00
        E 45 b8 05 00
        E 45 b8 05 00
        E 45 b8 05 00
        E 45 b8 05 00
        E 45 b8 05 00
        E 45 b8 05 00
        E 45 b8 05 00
        E 45 b8 05 00
        E 45 b8 05 00
        E 45 b8 05 00
        E 45 b8 05 00
        E 45 b8 05 00
        E 45 b8 05 00
        E 45 b8 05 00
        E 45 b8 05 00
        E 45 b8 05 00
        E 45 b8 05 00
        E 45 b8 05 00
        E 45 b8 05 00
        E 45 b8 05 00
        E 45 b8 05 00
        E 45 b8 05 00
        E 45 b8 05 00
        E 45 b8 05 00
        E 45 b8 05 00
        E 45 b8 05 00
        E 45 b8 05 00
        E 45 b8 05 00
        E 40 b8 05 32
        E 40 b8 05 32
        E 40 b8 05 32
        E 40 b8 05 32
        E 40 b8 05 32
        E 40 b8 05 32
        E 40 b8 05 32
        E 40 b8 05 32
        E 40 b8 05 32
        E 40 b8 05 32
        E 40 b8 05 32
        E 40 b8 05 32
        E 40 b8 05 32
        E 40 b8 05 32
        E 40 b8 05 32
        E 40 b8 05 32
        E 40 b8 05 32
        E 40 b8 05 32
        E 40 b8 05 32
        E 40 b8 05 32
        E 40 b8 05 32
        E 40 b8 05 32
        E 40 b8 05 32
        E 40 b8 05 32
        E 40 b8 05 32
        E 40 b8 05 32
        E 40 b8 05 32
        E 40 b8 05 32
        E 40 b8 05 32
        E 40 b8 05 32
        E 40 b8 05 32
        E 40 b8 05 32
        E 40 b8 05 32
        E 40 b8 05 32
        E 40 b8 05 32
        E 40 b8 05 32
        E 40 b8 05 32
        E 40 b8 05 32
        E 40 b8 05 32
        E 40 b8 05 32
        E 40 b8 05 32
        E 40 b8 05 32
        E 40 b8 05 32
        E 40 b8 05 32
        E 40 b8 05 32
        E 40 b8 05 32
        E 40 b8 05 32
        E 40 b8 05 32
        E 40 b8 05 32
        E 40 b8 05 32
        E 40 b8 05 32
        E 40 b8 05 32
        E 40 b8 05 32
        E 40 b8 05 32
        E 40 b8 05 32
        E 40 b8 05 32
        E 40 b8 05 32
        E 40 b8 05 32
        E 40 b8 05 32
        E 40 b8 05 32
        E 40 b8 05 32
        E 40 b8 05 32
        E 40 b8 05 32
        E 40 b8 05 00
        E 40 b8 05 00
        E 40 b8 05 00
        E 40 b8 05 00
        E 40 b8 05 00
        E 40 b8 05 00
        E 40 b8 05 00
        E 40 b8 05 00
        E 40 b8 05 00
        E 40 b8 05 00
        E 40 b8 05 00
        E 40 b8 05 00
        E 40 b8 05 00
        E 40 b8 05 00
        E 40 b8 05 00
        E 40 b8 05 00
        E 40 b8 05 00
        E 40 b8 05 00
        E 40 b8 05 00
        E 40 b8 05 00
        E 40 b8 05 00
        E 40 b8 05 00
        E 40 b8 05 00
        E 40 b8 05 00
        E 40 b8 05 00
        E 40 b8 05 00
        E 40 b8 05 00
        E 40 b8 05 00
        E 40 b8 05 00
        E 40 b8 05 00
        E 40 b8 05 00
        E 40 b8 05 00
        E 40 b8 05 00
        E 40 b8 05 00
        E 40 b8 05 00
        E 40 b8 05 00
        E 40 b8 05 00
        E 40 b8 05 00
        E 40 b8 05 00
        E 40 b8 05 00
        E 40 b8 05 00
        E 40 b8 05 00
        E 40 b8 05 00
        E 40 b8 05 00
        E 40 b8 05 00
        E 40 b8 05 00
        E 40 b8 05 00
        E 40 b8 05 00
        E 40 b8 05 00
        E 40 b8 05 00
        E 40 b8 05 00
        E 40 b8 05 00
        E 40 b8 05 00
        E 40 b8 05 00
        E 40 b8 05 00
        E 40 b8 05 00
        E 40 b8 05 00
        E 40 b8 05 00
        E 40 b8 05 00
        E 40 b8 05 00
        E 40 b8 05 00
        E 40 b8 05 00
        E 40 b8 05 00
        E 40 b8 05 00
        E 106 b0 7b 00
        CCINTERP 32
        CHASE_CC_TAKEOFFS 1
        GUID {45472F1B-3318-DE4B-B765-F32ABFC789B2}
        IGNTEMPO 0 120 4 4
        SRCCOLOR 181
        VELLANE 3 601 0
        VELLANE -1 196 0
      >
    >
  >
  <TRACK {C3B7F671-A4DF-5246-A631-C0CAFF84420F}
    NAME "insects of the los angeles basin"
    PEAKCOL 16576
    BEAT -1
    AUTOMODE 0
    VOLPAN 1 0 -1 -1 1
    MUTESOLO 0 0 0
    IPHASE 0
    PLAYOFFS 0 1
    ISBUS 0 0
    BUSCOMP 0 0 0 0 0
    SHOWINMIX 1 0.6667 0.5 1 0.5 -1 -1 -1
    FREEMODE 0
    SEL 0
    REC 0 0 1 0 0 0 0
    VU 2
    TRACKHEIGHT 0 1 0 0 -1 0
    INQ 0 0 0 0.5 100 0 0 100
    NCHAN 2
    FX 1
    TRACKID {C3B7F671-A4DF-5246-A631-C0CAFF84420F}
    PERF 0
    MIDIOUT -1
    MAINSEND 1 0
    <ITEM
      POSITION 0
      SNAPOFFS 0
      LENGTH 438.26076
      LOOP 1
      ALLTAKES 0
      FADEIN 1 0 0 1 0 0
      FADEOUT 1 0 0 1 0 0
      MUTE 0 0
      SEL 0
      IGUID {4050C325-A965-9A4C-BD06-B8C105A6AAE8}
      IID 23
      NAME "insects of the los angeles basin.mid"
      VOLPAN 1 0 1 -1
      SOFFS 0 0
      PLAYRATE 1 1 0 -1 0 0.0025
      CHANMODE 0
      GUID {7BDACAA6-D803-7048-9F44-82020867D28B}
      <SOURCE MIDI
        HASDATA 1 128 QN
        CCINTERP 32
        POOLEDEVTS {ACB0E3B9-1825-CC48-B20F-3F5112E69DD8}
        E 1 b9 05 39
        E 1 b9 05 3c
        E 1 b9 05 3f
        E 1 b9 05 41
        E 1 b9 05 44
        E 1 b9 05 47
        E 1 b9 05 49
        E 1 b9 05 4c
        E 1 b9 05 4f
        E 1 b9 05 51
        E 1 b9 05 54
        E 1 b9 05 56
        E 1 b9 05 59
        E 1 b9 05 5b
        E 1 b9 05 5d
        E 1 b9 05 5f
        E 1 b9 05 62
        E 1 b9 05 63
        E 1 b9 05 65
        E 1 b9 05 67
        E 1 b9 05 69
        E 1 b9 05 6a
        E 1 b9 05 6c
        E 1 b9 05 6c
        E 1 b9 05 6d
        E 1 b9 05 6e
        E 1 b9 05 6f
        E 1 b9 05 70
        E 1 b9 05 71
        E 1 b9 05 71
        E 1 b9 05 72
        E 1 b9 05 72
        E 1 b9 05 72
        E 1 b9 05 72
        E 1 b9 05 72
        E 1 b9 05 71
        E 1 b9 05 71
        E 1 b9 05 70
        E 1 b9 05 6f
        E 1 b9 05 6e
        E 1 b9 05 6d
        E 1 b9 05 6c
        E 1 b9 05 6b
        E 1 b9 05 69
        E 1 b9 05 68
        E 1 b9 05 66
        E 1 b9 05 64
        E 1 b9 05 63
        E 1 b9 05 61
        E 1 b9 05 5e
        E 1 b9 05 5c
        E 1 b9 05 5a
        E 1 b9 05 58
        E 1 b9 05 55
        E 1 b9 05 52
        E 1 b9 05 50
        E 1 b9 05 4e
        E 1 b9 05 4b
        E 1 b9 05 48
        E 1 b9 05 46
        E 1 b9 05 42
        E 1 b9 05 3f
        E 1 b9 05 3d
        E 1 b9 05 3a
        E 1 b9 05 37
        E 1 b9 05 35
        E 1 b9 05 32
        E 1 b9 05 2f
        E 1 b9 05 2c
        E 1 b9 05 29
        E 1 b9 05 26
        E 1 b9 05 24
        E 1 b9 05 22
        E 1 b9 05 1f
        E 1 b9 05 1c
        E 1 b9 05 1a
        E 1 b9 05 18
        E 1 b9 05 15
        E 1 b9 05 13
        E 1 b9 05 11
        E 1 b9 05 0f
        E 1 b9 05 0d
        E 1 b9 05 0b
        E 1 b9 05 09
        E 1 b9 05 09
        E 1 b9 05 07
        E 1 b9 05 06
        E 1 b9 05 04
        E 1 b9 05 03
        E 1 b9 05 02
        E 1 b9 05 01
        E 1 b9 05 00
        E 1 b9 05 00
        E 1 b9 05 00
        E 1 b9 05 00
        E 1 b9 05 00
        E 1 b9 05 00
        E 1 b9 05 00
        E 1 b9 05 00
        E 1 b9 05 00
        E 1 b9 05 01
        E 1 b9 05 02
        E 1 b9 05 03
        E 1 b9 05 04
        E 1 b9 05 05
        E 1 b9 05 06
        E 1 b9 05 08
        E 1 b9 05 09
        E 1 b9 05 0a
        E 1 b9 05 0c
        E 1 b9 05 0e
        E 1 b9 05 10
        E 1 b9 05 12
        E 1 b9 05 14
        E 1 b9 05 16
        E 1 b9 05 19
        E 1 b9 05 1b
        E 1 b9 05 1d
        E 1 b9 05 20
        E 1 b9 05 23
        E 1 b9 05 25
        E 1 b9 05 28
        E 1 b9 05 2b
        E 1 b9 05 2d
        E 1 b9 05 30
        E 1 b9 05 33
        E 1 b9 05 36
        E 1 b9 05 39
        E 5 b9 05 40
        E 5 b9 05 43
        E 5 b9 05 46
        E 5 b9 05 49
        E 5 b9 05 4c
        E 5 b9 05 4f
        E 5 b9 05 52
        E 5 b9 05 55
        E 5 b9 05 58
        E 5 b9 05 5b
        E 5 b9 05 5e
        E 5 b9 05 60
        E 5 b9 05 63
        E 5 b9 05 66
        E 5 b9 05 68
        E 5 b9 05 6a
        E 5 b9 05 6d
        E 5 b9 05 6f
        E 5 b9 05 71
        E 5 b9 05 73
        E 5 b9 05 75
        E 5 b9 05 76
        E 5 b9 05 78
        E 5 b9 05 79
        E 5 b9 05 7a
        E 5 b9 05 7b
        E 5 b9 05 7c
        E 5 b9 05 7d
        E 5 b9 05 7e
        E 5 b9 05 7e
        E 5 b9 05 7f
        E 5 b9 05 7f
        E 5 b9 05 7f
        E 5 b9 05 7f
        E 5 b9 05 7f
        E 5 b9 05 7e
        E 5 b9 05 7e
        E 5 b9 05 7d
        E 5 b9 05 7c
        E 5 b9 05 7b
        E 5 b9 05 7a
        E 5 b9 05 78
        E 5 b9 05 77
        E 5 b9 05 75
        E 5 b9 05 74
        E 5 b9 05 72
        E 5 b9 05 70
        E 5 b9 05 6e
        E 5 b9 05 6c
        E 5 b9 05 69
        E 5 b9 05 67
        E 5 b9 05 64
        E 5 b9 05 62
        E 5 b9 05 5f
        E 5 b9 05 5c
        E 5 b9 05 59
        E 5 b9 05 57
        E 5 b9 05 54
        E 5 b9 05 51
        E 5 b9 05 4e
        E 5 b9 05 4a
        E 5 b9 05 47
        E 5 b9 05 44
        E 5 b9 05 41
        E 5 b9 05 3e
        E 5 b9 05 3b
        E 5 b9 05 38
        E 5 b9 05 35
        E 5 b9 05 31
        E 5 b9 05 2e
        E 5 b9 05 2b
        E 5 b9 05 28
        E 5 b9 05 26
        E 5 b9 05 23
        E 5 b9 05 20
        E 5 b9 05 1d
        E 5 b9 05 1b
        E 5 b9 05 18
        E 5 b9 05 16
        E 5 b9 05 13
        E 5 b9 05 11
        E 5 b9 05 0f
        E 5 b9 05 0d
        E 5 b9 05 0b
        E 5 b9 05 0a
        E 5 b9 05 08
        E 5 b9 05 07
        E 5 b9 05 05
        E 5 b9 05 04
        E 5 b9 05 03
        E 5 b9 05 02
        E 5 b9 05 01
        E 5 b9 05 01
        E 5 b9 05 00
        E 5 b9 05 00
        E 5 b9 05 00
        E 5 b9 05 00
        E 5 b9 05 00
        E 5 b9 05 01
        E 5 b9 05 01
        E 5 b9 05 02
        E 5 b9 05 03
        E 5 b9 05 04
        E 5 b9 05 05
        E 5 b9 05 06
        E 5 b9 05 07
        E 5 b9 05 09
        E 5 b9 05 0a
        E 5 b9 05 0c
        E 5 b9 05 0e
        E 5 b9 05 10
        E 5 b9 05 12
        E 5 b9 05 15
        E 5 b9 05 17
        E 5 b9 05 19
        E 5 b9 05 1c
        E 5 b9 05 1f
        E 5 b9 05 21
        E 5 b9 05 24
        E 5 b9 05 27
        E 5 b9 05 2a
        E 5 b9 05 2d
        E 5 b9 05 30
        E 5 b9 05 33
        E 5 b9 05 36
        E 5 b9 05 39
        E 5 b9 05 3c
        E 5 b9 05 40
        E 9 b9 05 39
        E 9 b9 05 3c
        E 9 b9 05 3f
        E 9 b9 05 41
        E 9 b9 05 44
        E 9 b9 05 47
        E 9 b9 05 49
        E 9 b9 05 4c
        E 9 b9 05 4f
        E 9 b9 05 51
        E 9 b9 05 54
        E 9 b9 05 56
        E 9 b9 05 59
        E 9 b9 05 5b
        E 9 b9 05 5d
        E 9 b9 05 5f
        E 9 b9 05 62
        E 9 b9 05 63
        E 9 b9 05 65
        E 9 b9 05 67
        E 9 b9 05 69
        E 9 b9 05 6a
        E 9 b9 05 6c
        E 9 b9 05 6c
        E 9 b9 05 6d
        E 9 b9 05 6e
        E 9 b9 05 6f
        E 9 b9 05 70
        E 9 b9 05 71
        E 9 b9 05 71
        E 9 b9 05 72
        E 9 b9 05 72
        E 9 b9 05 72
        E 9 b9 05 72
        E 9 b9 05 72
        E 9 b9 05 71
        E 9 b9 05 71
        E 9 b9 05 70
        E 9 b9 05 6f
        E 9 b9 05 6e
        E 9 b9 05 6d
        E 9 b9 05 6c
        E 9 b9 05 6b
        E 9 b9 05 69
        E 9 b9 05 68
        E 9 b9 05 66
        E 9 b9 05 64
        E 9 b9 05 63
        E 9 b9 05 61
        E 9 b9 05 5e
        E 9 b9 05 5c
        E 9 b9 05 5a
        E 9 b9 05 58
        E 9 b9 05 55
        E 9 b9 05 52
        E 9 b9 05 50
        E 9 b9 05 4e
        E 9 b9 05 4b
        E 9 b9 05 48
        E 9 b9 05 46
        E 9 b9 05 42
        E 9 b9 05 3f
        E 9 b9 05 3d
        E 9 b9 05 3a
        E 9 b9 05 37
        E 9 b9 05 35
        E 9 b9 05 32
        E 9 b9 05 2f
        E 9 b9 05 2c
        E 9 b9 05 29
        E 9 b9 05 26
        E 9 b9 05 24
        E 9 b9 05 22
        E 9 b9 05 1f
        E 9 b9 05 1c
        E 9 b9 05 1a
        E 9 b9 05 18
        E 9 b9 05 15
        E 9 b9 05 13
        E 9 b9 05 11
        E 9 b9 05 0f
        E 9 b9 05 0d
        E 9 b9 05 0b
        E 9 b9 05 09
        E 9 b9 05 09
        E 9 b9 05 07
        E 9 b9 05 06
        E 9 b9 05 04
        E 9 b9 05 03
        E 9 b9 05 02
        E 9 b9 05 01
        E 9 b9 05 00
        E 9 b9 05 00
        E 9 b9 05 00
        E 9 b9 05 00
        E 9 b9 05 00
        E 9 b9 05 00
        E 9 b9 05 00
        E 9 b9 05 00
        E 9 b9 05 00
        E 9 b9 05 01
        E 9 b9 05 02
        E 9 b9 05 03
        E 9 b9 05 04
        E 9 b9 05 05
        E 9 b9 05 06
        E 9 b9 05 08
        E 9 b9 05 09
        E 9 b9 05 0a
        E 9 b9 05 0c
        E 9 b9 05 0e
        E 9 b9 05 10
        E 9 b9 05 12
        E 9 b9 05 14
        E 9 b9 05 16
        E 9 b9 05 19
        E 9 b9 05 1b
        E 9 b9 05 1d
        E 9 b9 05 20
        E 9 b9 05 23
        E 9 b9 05 25
        E 9 b9 05 28
        E 9 b9 05 2b
        E 9 b9 05 2d
        E 9 b9 05 30
        E 9 b9 05 33
        E 9 b9 05 36
        E 9 b9 05 39
        E 7 b9 05 20
        E 7 b9 05 21
        E 7 b9 05 23
        E 7 b9 05 24
        E 7 b9 05 26
        E 7 b9 05 27
        E 7 b9 05 29
        E 7 b9 05 2a
        E 7 b9 05 2c
        E 7 b9 05 2d
        E 7 b9 05 2f
        E 7 b9 05 30
        E 7 b9 05 31
        E 7 b9 05 33
        E 7 b9 05 34
        E 7 b9 05 35
        E 7 b9 05 36
        E 7 b9 05 37
        E 7 b9 05 38
        E 7 b9 05 39
        E 7 b9 05 3a
        E 7 b9 05 3b
        E 7 b9 05 3c
        E 7 b9 05 3c
        E 7 b9 05 3d
        E 7 b9 05 3d
        E 7 b9 05 3e
        E 7 b9 05 3e
        E 7 b9 05 3f
        E 7 b9 05 3f
        E 7 b9 05 3f
        E 7 b9 05 3f
        E 7 b9 05 3f
        E 7 b9 05 3f
        E 7 b9 05 3f
        E 7 b9 05 3f
        E 7 b9 05 3f
        E 7 b9 05 3e
        E 7 b9 05 3e
        E 7 b9 05 3d
        E 7 b9 05 3d
        E 7 b9 05 3c
        E 7 b9 05 3b
        E 7 b9 05 3a
        E 7 b9 05 3a
        E 7 b9 05 39
        E 7 b9 05 38
        E 7 b9 05 37
        E 7 b9 05 36
        E 7 b9 05 34
        E 7 b9 05 33
        E 7 b9 05 32
        E 7 b9 05 31
        E 7 b9 05 2f
        E 7 b9 05 2e
        E 7 b9 05 2c
        E 7 b9 05 2b
        E 7 b9 05 2a
        E 7 b9 05 28
        E 7 b9 05 27
        E 7 b9 05 25
        E 7 b9 05 23
        E 7 b9 05 22
        E 7 b9 05 20
        E 7 b9 05 1f
        E 7 b9 05 1d
        E 7 b9 05 1c
        E 7 b9 05 1a
        E 7 b9 05 18
        E 7 b9 05 17
        E 7 b9 05 15
        E 7 b9 05 14
        E 7 b9 05 13
        E 7 b9 05 11
        E 7 b9 05 10
        E 7 b9 05 0e
        E 7 b9 05 0d
        E 7 b9 05 0c
        E 7 b9 05 0b
        E 7 b9 05 09
        E 7 b9 05 08
        E 7 b9 05 07
        E 7 b9 05 06
        E 7 b9 05 05
        E 7 b9 05 05
        E 7 b9 05 04
        E 7 b9 05 03
        E 7 b9 05 02
        E 7 b9 05 02
        E 7 b9 05 01
        E 7 b9 05 01
        E 7 b9 05 00
        E 7 b9 05 00
        E 7 b9 05 00
        E 7 b9 05 00
        E 7 b9 05 00
        E 7 b9 05 00
        E 7 b9 05 00
        E 7 b9 05 00
        E 7 b9 05 00
        E 7 b9 05 01
        E 7 b9 05 01
        E 7 b9 05 02
        E 7 b9 05 02
        E 7 b9 05 03
        E 7 b9 05 03
        E 7 b9 05 04
        E 7 b9 05 05
        E 7 b9 05 06
        E 7 b9 05 07
        E 7 b9 05 08
        E 7 b9 05 09
        E 7 b9 05 0a
        E 7 b9 05 0b
        E 7 b9 05 0c
        E 7 b9 05 0e
        E 7 b9 05 0f
        E 7 b9 05 10
        E 7 b9 05 12
        E 7 b9 05 13
        E 7 b9 05 15
        E 7 b9 05 16
        E 7 b9 05 18
        E 7 b9 05 19
        E 7 b9 05 1b
        E 7 b9 05 1c
        E 7 b9 05 1e
        E 7 b9 05 20
        E 7 b9 05 20
        E 7 b9 05 21
        E 7 b9 05 23
        E 7 b9 05 24
        E 7 b9 05 26
        E 7 b9 05 27
        E 7 b9 05 29
        E 7 b9 05 2a
        E 7 b9 05 2c
        E 7 b9 05 2d
        E 7 b9 05 2f
        E 7 b9 05 30
        E 7 b9 05 31
        E 7 b9 05 33
        E 7 b9 05 34
        E 7 b9 05 35
        E 7 b9 05 36
        E 7 b9 05 37
        E 7 b9 05 38
        E 7 b9 05 39
        E 7 b9 05 3a
        E 7 b9 05 3b
        E 7 b9 05 3c
        E 7 b9 05 3c
        E 7 b9 05 3d
        E 7 b9 05 3d
        E 7 b9 05 3e
        E 7 b9 05 3e
        E 7 b9 05 3f
        E 7 b9 05 3f
        E 7 b9 05 3f
        E 7 b9 05 3f
        E 7 b9 05 3f
        E 7 b9 05 3f
        E 7 b9 05 3f
        E 7 b9 05 3f
        E 7 b9 05 3f
        E 7 b9 05 3e
        E 7 b9 05 3e
        E 7 b9 05 3d
        E 7 b9 05 3d
        E 7 b9 05 3c
        E 7 b9 05 3b
        E 7 b9 05 3a
        E 7 b9 05 3a
        E 7 b9 05 39
        E 7 b9 05 38
        E 7 b9 05 37
        E 7 b9 05 36
        E 7 b9 05 34
        E 7 b9 05 33
        E 7 b9 05 32
        E 7 b9 05 31
        E 7 b9 05 2f
        E 7 b9 05 2e
        E 7 b9 05 2c
        E 7 b9 05 2b
        E 7 b9 05 2a
        E 7 b9 05 28
        E 7 b9 05 27
        E 7 b9 05 25
        E 7 b9 05 23
        E 7 b9 05 22
        E 7 b9 05 20
        E 7 b9 05 1f
        E 7 b9 05 1d
        E 7 b9 05 1c
        E 7 b9 05 1a
        E 7 b9 05 18
        E 7 b9 05 17
        E 7 b9 05 15
        E 7 b9 05 14
        E 7 b9 05 13
        E 7 b9 05 11
        E 7 b9 05 10
        E 7 b9 05 0e
        E 7 b9 05 0d
        E 7 b9 05 0c
        E 7 b9 05 0b
        E 7 b9 05 09
        E 7 b9 05 08
        E 7 b9 05 07
        E 7 b9 05 06
        E 7 b9 05 05
        E 7 b9 05 05
        E 7 b9 05 04
        E 7 b9 05 03
        E 7 b9 05 02
        E 7 b9 05 02
        E 7 b9 05 01
        E 7 b9 05 01
        E 7 b9 05 00
        E 7 b9 05 00
        E 7 b9 05 00
        E 7 b9 05 00
        E 7 b9 05 00
        E 7 b9 05 00
        E 7 b9 05 00
        E 7 b9 05 00
        E 7 b9 05 00
        E 7 b9 05 01
        E 7 b9 05 01
        E 7 b9 05 02
        E 7 b9 05 02
        E 7 b9 05 03
        E 7 b9 05 03
        E 7 b9 05 04
        E 7 b9 05 05
        E 7 b9 05 06
        E 7 b9 05 07
        E 7 b9 05 08
        E 7 b9 05 09
        E 7 b9 05 0a
        E 7 b9 05 0b
        E 7 b9 05 0c
        E 7 b9 05 0e
        E 7 b9 05 0f
        E 7 b9 05 10
        E 7 b9 05 12
        E 7 b9 05 13
        E 7 b9 05 15
        E 7 b9 05 16
        E 7 b9 05 18
        E 7 b9 05 19
        E 7 b9 05 1b
        E 7 b9 05 1c
        E 7 b9 05 1e
        E 7 b9 05 20
        E 14 b9 05 2c
        E 14 b9 05 2e
        E 14 b9 05 31
        E 14 b9 05 33
        E 14 b9 05 35
        E 14 b9 05 37
        E 14 b9 05 39
        E 14 b9 05 3b
        E 14 b9 05 3d
        E 14 b9 05 3f
        E 14 b9 05 41
        E 14 b9 05 43
        E 14 b9 05 45
        E 14 b9 05 47
        E 14 b9 05 48
        E 14 b9 05 4a
        E 14 b9 05 4c
        E 14 b9 05 4d
        E 14 b9 05 4f
        E 14 b9 05 50
        E 14 b9 05 51
        E 14 b9 05 52
        E 14 b9 05 54
        E 14 b9 05 54
        E 14 b9 05 55
        E 14 b9 05 56
        E 14 b9 05 56
        E 14 b9 05 57
        E 14 b9 05 58
        E 14 b9 05 58
        E 14 b9 05 58
        E 14 b9 05 58
        E 14 b9 05 58
        E 14 b9 05 58
        E 14 b9 05 58
        E 14 b9 05 58
        E 14 b9 05 58
        E 14 b9 05 57
        E 14 b9 05 56
        E 14 b9 05 56
        E 14 b9 05 55
        E 14 b9 05 54
        E 14 b9 05 53
        E 14 b9 05 51
        E 14 b9 05 51
        E 14 b9 05 4f
        E 14 b9 05 4e
        E 14 b9 05 4d
        E 14 b9 05 4b
        E 14 b9 05 49
        E 14 b9 05 48
        E 14 b9 05 46
        E 14 b9 05 44
        E 14 b9 05 42
        E 14 b9 05 40
        E 14 b9 05 3e
        E 14 b9 05 3c
        E 14 b9 05 3a
        E 14 b9 05 38
        E 14 b9 05 36
        E 14 b9 05 33
        E 14 b9 05 31
        E 14 b9 05 2f
        E 14 b9 05 2d
        E 14 b9 05 2b
        E 14 b9 05 29
        E 14 b9 05 27
        E 14 b9 05 25
        E 14 b9 05 22
        E 14 b9 05 20
        E 14 b9 05 1e
        E 14 b9 05 1c
        E 14 b9 05 1a
        E 14 b9 05 18
        E 14 b9 05 16
        E 14 b9 05 14
        E 14 b9 05 12
        E 14 b9 05 10
        E 14 b9 05 0f
        E 14 b9 05 0d
        E 14 b9 05 0b
        E 14 b9 05 0a
        E 14 b9 05 09
        E 14 b9 05 07
        E 14 b9 05 07
        E 14 b9 05 05
        E 14 b9 05 04
        E 14 b9 05 03
        E 14 b9 05 02
        E 14 b9 05 02
        E 14 b9 05 01
        E 14 b9 05 00
        E 14 b9 05 00
        E 14 b9 05 00
        E 14 b9 05 00
        E 14 b9 05 00
        E 14 b9 05 00
        E 14 b9 05 00
        E 14 b9 05 00
        E 14 b9 05 00
        E 14 b9 05 01
        E 14 b9 05 02
        E 14 b9 05 02
        E 14 b9 05 03
        E 14 b9 05 04
        E 14 b9 05 04
        E 14 b9 05 06
        E 14 b9 05 07
        E 14 b9 05 08
        E 14 b9 05 09
        E 14 b9 05 0b
        E 14 b9 05 0c
        E 14 b9 05 0e
        E 14 b9 05 10
        E 14 b9 05 11
        E 14 b9 05 13
        E 14 b9 05 15
        E 14 b9 05 17
        E 14 b9 05 19
        E 14 b9 05 1b
        E 14 b9 05 1d
        E 14 b9 05 1f
        E 14 b9 05 21
        E 14 b9 05 23
        E 14 b9 05 25
        E 14 b9 05 27
        E 14 b9 05 2a
        E 14 b9 05 2c
        E 12 b9 05 33
        E 12 b9 05 35
        E 12 b9 05 37
        E 12 b9 05 3a
        E 12 b9 05 3c
        E 12 b9 05 3f
        E 12 b9 05 41
        E 12 b9 05 44
        E 12 b9 05 46
        E 12 b9 05 48
        E 12 b9 05 4b
        E 12 b9 05 4c
        E 12 b9 05 4f
        E 12 b9 05 51
        E 12 b9 05 53
        E 12 b9 05 54
        E 12 b9 05 57
        E 12 b9 05 58
        E 12 b9 05 5a
        E 12 b9 05 5b
        E 12 b9 05 5d
        E 12 b9 05 5e
        E 12 b9 05 5f
        E 12 b9 05 60
        E 12 b9 05 61
        E 12 b9 05 62
        E 12 b9 05 63
        E 12 b9 05 63
        E 12 b9 05 64
        E 12 b9 05 64
        E 12 b9 05 65
        E 12 b9 05 65
        E 12 b9 05 65
        E 12 b9 05 65
        E 12 b9 05 65
        E 12 b9 05 64
        E 12 b9 05 64
        E 12 b9 05 63
        E 12 b9 05 63
        E 12 b9 05 62
        E 12 b9 05 61
        E 12 b9 05 5f
        E 12 b9 05 5f
        E 12 b9 05 5d
        E 12 b9 05 5c
        E 12 b9 05 5b
        E 12 b9 05 59
        E 12 b9 05 57
        E 12 b9 05 56
        E 12 b9 05 54
        E 12 b9 05 52
        E 12 b9 05 50
        E 12 b9 05 4e
        E 12 b9 05 4c
        E 12 b9 05 49
        E 12 b9 05 47
        E 12 b9 05 45
        E 12 b9 05 43
        E 12 b9 05 40
        E 12 b9 05 3e
        E 12 b9 05 3b
        E 12 b9 05 38
        E 12 b9 05 36
        E 12 b9 05 33
        E 12 b9 05 31
        E 12 b9 05 2f
        E 12 b9 05 2c
        E 12 b9 05 2a
        E 12 b9 05 27
        E 12 b9 05 24
        E 12 b9 05 22
        E 12 b9 05 1f
        E 12 b9 05 1e
        E 12 b9 05 1b
        E 12 b9 05 19
        E 12 b9 05 17
        E 12 b9 05 15
        E 12 b9 05 13
        E 12 b9 05 11
        E 12 b9 05 0f
        E 12 b9 05 0d
        E 12 b9 05 0b
        E 12 b9 05 0a
        E 12 b9 05 08
        E 12 b9 05 07
        E 12 b9 05 06
        E 12 b9 05 05
        E 12 b9 05 03
        E 12 b9 05 03
        E 12 b9 05 02
        E 12 b9 05 01
        E 12 b9 05 00
        E 12 b9 05 00
        E 12 b9 05 00
        E 12 b9 05 00
        E 12 b9 05 00
        E 12 b9 05 00
        E 12 b9 05 00
        E 12 b9 05 00
        E 12 b9 05 00
        E 12 b9 05 01
        E 12 b9 05 02
        E 12 b9 05 03
        E 12 b9 05 03
        E 12 b9 05 04
        E 12 b9 05 05
        E 12 b9 05 07
        E 12 b9 05 07
        E 12 b9 05 09
        E 12 b9 05 0b
        E 12 b9 05 0c
        E 12 b9 05 0e
        E 12 b9 05 10
        E 12 b9 05 12
        E 12 b9 05 14
        E 12 b9 05 16
        E 12 b9 05 18
        E 12 b9 05 1a
        E 12 b9 05 1c
        E 12 b9 05 1f
        E 12 b9 05 21
        E 12 b9 05 24
        E 12 b9 05 26
        E 12 b9 05 28
        E 12 b9 05 2b
        E 12 b9 05 2d
        E 12 b9 05 2f
        E 12 b9 05 33
        E 14 b9 05 06
        E 14 b9 05 06
        E 14 b9 05 07
        E 14 b9 05 07
        E 14 b9 05 07
        E 14 b9 05 07
        E 14 b9 05 08
        E 14 b9 05 08
        E 14 b9 05 08
        E 14 b9 05 09
        E 14 b9 05 09
        E 14 b9 05 09
        E 14 b9 05 09
        E 14 b9 05 0a
        E 14 b9 05 0a
        E 14 b9 05 0a
        E 14 b9 05 0a
        E 14 b9 05 0b
        E 14 b9 05 0b
        E 14 b9 05 0b
        E 14 b9 05 0b
        E 14 b9 05 0b
        E 14 b9 05 0c
        E 14 b9 05 0c
        E 14 b9 05 0c
        E 14 b9 05 0c
        E 14 b9 05 0c
        E 14 b9 05 0c
        E 14 b9 05 0c
        E 14 b9 05 0c
        E 14 b9 05 0c
        E 14 b9 05 0c
        E 14 b9 05 0c
        E 14 b9 05 0c
        E 14 b9 05 0c
        E 14 b9 05 0c
        E 14 b9 05 0c
        E 14 b9 05 0c
        E 14 b9 05 0c
        E 14 b9 05 0c
        E 14 b9 05 0c
        E 14 b9 05 0c
        E 14 b9 05 0b
        E 14 b9 05 0b
        E 14 b9 05 0b
        E 14 b9 05 0b
        E 14 b9 05 0b
        E 14 b9 05 0b
        E 14 b9 05 0a
        E 14 b9 05 0a
        E 14 b9 05 0a
        E 14 b9 05 0a
        E 14 b9 05 09
        E 14 b9 05 09
        E 14 b9 05 09
        E 14 b9 05 08
        E 14 b9 05 08
        E 14 b9 05 08
        E 14 b9 05 08
        E 14 b9 05 07
        E 14 b9 05 07
        E 14 b9 05 07
        E 14 b9 05 06
        E 14 b9 05 06
        E 14 b9 05 06
        E 14 b9 05 05
        E 14 b9 05 05
        E 14 b9 05 05
        E 14 b9 05 04
        E 14 b9 05 04
        E 14 b9 05 04
        E 14 b9 05 04
        E 14 b9 05 03
        E 14 b9 05 03
        E 14 b9 05 03
        E 14 b9 05 02
        E 14 b9 05 02
        E 14 b9 05 02
        E 14 b9 05 02
        E 14 b9 05 01
        E 14 b9 05 01
        E 14 b9 05 01
        E 14 b9 05 01
        E 14 b9 05 01
        E 14 b9 05 01
        E 14 b9 05 00
        E 14 b9 05 00
        E 14 b9 05 00
        E 14 b9 05 00
        E 14 b9 05 00
        E 14 b9 05 00
        E 14 b9 05 00
        E 14 b9 05 00
        E 14 b9 05 00
        E 14 b9 05 00
        E 14 b9 05 00
        E 14 b9 05 00
        E 14 b9 05 00
        E 14 b9 05 00
        E 14 b9 05 00
        E 14 b9 05 00
        E 14 b9 05 00
        E 14 b9 05 00
        E 14 b9 05 00
        E 14 b9 05 00
        E 14 b9 05 00
        E 14 b9 05 00
        E 14 b9 05 01
        E 14 b9 05 01
        E 14 b9 05 01
        E 14 b9 05 01
        E 14 b9 05 01
        E 14 b9 05 02
        E 14 b9 05 02
        E 14 b9 05 02
        E 14 b9 05 02
        E 14 b9 05 03
        E 14 b9 05 03
        E 14 b9 05 03
        E 14 b9 05 03
        E 14 b9 05 04
        E 14 b9 05 04
        E 14 b9 05 04
        E 14 b9 05 05
        E 14 b9 05 05
        E 14 b9 05 05
        E 14 b9 05 06
        E 14 b9 05 06
        E 12 b9 05 19
        E 12 b9 05 1a
        E 12 b9 05 1c
        E 12 b9 05 1d
        E 12 b9 05 1e
        E 12 b9 05 1f
        E 12 b9 05 20
        E 12 b9 05 22
        E 12 b9 05 23
        E 12 b9 05 24
        E 12 b9 05 25
        E 12 b9 05 26
        E 12 b9 05 27
        E 12 b9 05 28
        E 12 b9 05 29
        E 12 b9 05 2a
        E 12 b9 05 2b
        E 12 b9 05 2c
        E 12 b9 05 2d
        E 12 b9 05 2e
        E 12 b9 05 2e
        E 12 b9 05 2f
        E 12 b9 05 30
        E 12 b9 05 30
        E 12 b9 05 30
        E 12 b9 05 31
        E 12 b9 05 31
        E 12 b9 05 32
        E 12 b9 05 32
        E 12 b9 05 32
        E 12 b9 05 32
        E 12 b9 05 32
        E 12 b9 05 32
        E 12 b9 05 32
        E 12 b9 05 32
        E 12 b9 05 32
        E 12 b9 05 32
        E 12 b9 05 32
        E 12 b9 05 31
        E 12 b9 05 31
        E 12 b9 05 30
        E 12 b9 05 30
        E 12 b9 05 2f
        E 12 b9 05 2e
        E 12 b9 05 2e
        E 12 b9 05 2d
        E 12 b9 05 2c
        E 12 b9 05 2c
        E 12 b9 05 2b
        E 12 b9 05 2a
        E 12 b9 05 29
        E 12 b9 05 28
        E 12 b9 05 27
        E 12 b9 05 26
        E 12 b9 05 24
        E 12 b9 05 23
        E 12 b9 05 22
        E 12 b9 05 21
        E 12 b9 05 20
        E 12 b9 05 1f
        E 12 b9 05 1d
        E 12 b9 05 1c
        E 12 b9 05 1b
        E 12 b9 05 1a
        E 12 b9 05 18
        E 12 b9 05 17
        E 12 b9 05 16
        E 12 b9 05 15
        E 12 b9 05 13
        E 12 b9 05 12
        E 12 b9 05 11
        E 12 b9 05 10
        E 12 b9 05 0f
        E 12 b9 05 0e
        E 12 b9 05 0c
        E 12 b9 05 0b
        E 12 b9 05 0a
        E 12 b9 05 09
        E 12 b9 05 08
        E 12 b9 05 07
        E 12 b9 05 06
        E 12 b9 05 06
        E 12 b9 05 05
        E 12 b9 05 04
        E 12 b9 05 04
        E 12 b9 05 03
        E 12 b9 05 02
        E 12 b9 05 02
        E 12 b9 05 01
        E 12 b9 05 01
        E 12 b9 05 00
        E 12 b9 05 00
        E 12 b9 05 00
        E 12 b9 05 00
        E 12 b9 05 00
        E 12 b9 05 00
        E 12 b9 05 00
        E 12 b9 05 00
        E 12 b9 05 00
        E 12 b9 05 00
        E 12 b9 05 00
        E 12 b9 05 01
        E 12 b9 05 01
        E 12 b9 05 02
        E 12 b9 05 02
        E 12 b9 05 02
        E 12 b9 05 03
        E 12 b9 05 04
        E 12 b9 05 04
        E 12 b9 05 05
        E 12 b9 05 06
        E 12 b9 05 07
        E 12 b9 05 08
        E 12 b9 05 09
        E 12 b9 05 0a
        E 12 b9 05 0b
        E 12 b9 05 0c
        E 12 b9 05 0d
        E 12 b9 05 0e
        E 12 b9 05 0f
        E 12 b9 05 10
        E 12 b9 05 12
        E 12 b9 05 13
        E 12 b9 05 14
        E 12 b9 05 15
        E 12 b9 05 16
        E 12 b9 05 18
        E 12 b9 05 19
        E 7 b9 05 2c
        E 7 b9 05 2e
        E 7 b9 05 31
        E 7 b9 05 33
        E 7 b9 05 35
        E 7 b9 05 37
        E 7 b9 05 39
        E 7 b9 05 3b
        E 7 b9 05 3d
        E 7 b9 05 3f
        E 7 b9 05 41
        E 7 b9 05 43
        E 7 b9 05 45
        E 7 b9 05 47
        E 7 b9 05 48
        E 7 b9 05 4a
        E 7 b9 05 4c
        E 7 b9 05 4d
        E 7 b9 05 4f
        E 7 b9 05 50
        E 7 b9 05 51
        E 7 b9 05 52
        E 7 b9 05 54
        E 7 b9 05 54
        E 7 b9 05 55
        E 7 b9 05 56
        E 7 b9 05 56
        E 7 b9 05 57
        E 7 b9 05 58
        E 7 b9 05 58
        E 7 b9 05 58
        E 7 b9 05 58
        E 7 b9 05 58
        E 7 b9 05 58
        E 7 b9 05 58
        E 7 b9 05 58
        E 7 b9 05 58
        E 7 b9 05 57
        E 7 b9 05 56
        E 7 b9 05 56
        E 7 b9 05 55
        E 7 b9 05 54
        E 7 b9 05 53
        E 7 b9 05 51
        E 7 b9 05 51
        E 7 b9 05 4f
        E 7 b9 05 4e
        E 7 b9 05 4d
        E 7 b9 05 4b
        E 7 b9 05 49
        E 7 b9 05 48
        E 7 b9 05 46
        E 7 b9 05 44
        E 7 b9 05 42
        E 7 b9 05 40
        E 7 b9 05 3e
        E 7 b9 05 3c
        E 7 b9 05 3a
        E 7 b9 05 38
        E 7 b9 05 36
        E 7 b9 05 33
        E 7 b9 05 31
        E 7 b9 05 2f
        E 7 b9 05 2d
        E 7 b9 05 2b
        E 7 b9 05 29
        E 7 b9 05 27
        E 7 b9 05 25
        E 7 b9 05 22
        E 7 b9 05 20
        E 7 b9 05 1e
        E 7 b9 05 1c
        E 7 b9 05 1a
        E 7 b9 05 18
        E 7 b9 05 16
        E 7 b9 05 14
        E 7 b9 05 12
        E 7 b9 05 10
        E 7 b9 05 0f
        E 7 b9 05 0d
        E 7 b9 05 0b
        E 7 b9 05 0a
        E 7 b9 05 09
        E 7 b9 05 07
        E 7 b9 05 07
        E 7 b9 05 05
        E 7 b9 05 04
        E 7 b9 05 03
        E 7 b9 05 02
        E 7 b9 05 02
        E 7 b9 05 01
        E 7 b9 05 00
        E 7 b9 05 00
        E 7 b9 05 00
        E 7 b9 05 00
        E 7 b9 05 00
        E 7 b9 05 00
        E 7 b9 05 00
        E 7 b9 05 00
        E 7 b9 05 00
        E 7 b9 05 01
        E 7 b9 05 02
        E 7 b9 05 02
        E 7 b9 05 03
        E 7 b9 05 04
        E 7 b9 05 04
        E 7 b9 05 06
        E 7 b9 05 07
        E 7 b9 05 08
        E 7 b9 05 09
        E 7 b9 05 0b
        E 7 b9 05 0c
        E 7 b9 05 0e
        E 7 b9 05 10
        E 7 b9 05 11
        E 7 b9 05 13
        E 7 b9 05 15
        E 7 b9 05 17
        E 7 b9 05 19
        E 7 b9 05 1b
        E 7 b9 05 1d
        E 7 b9 05 1f
        E 7 b9 05 21
        E 7 b9 05 23
        E 7 b9 05 25
        E 7 b9 05 27
        E 7 b9 05 2a
        E 7 b9 05 2c
        E 7 b9 05 20
        E 7 b9 05 21
        E 7 b9 05 23
        E 7 b9 05 24
        E 7 b9 05 26
        E 7 b9 05 27
        E 7 b9 05 29
        E 7 b9 05 2a
        E 7 b9 05 2c
        E 7 b9 05 2d
        E 7 b9 05 2f
        E 7 b9 05 30
        E 7 b9 05 31
        E 7 b9 05 33
        E 7 b9 05 34
        E 7 b9 05 35
        E 7 b9 05 36
        E 7 b9 05 37
        E 7 b9 05 38
        E 7 b9 05 39
        E 7 b9 05 3a
        E 7 b9 05 3b
        E 7 b9 05 3c
        E 7 b9 05 3c
        E 7 b9 05 3d
        E 7 b9 05 3d
        E 7 b9 05 3e
        E 7 b9 05 3e
        E 7 b9 05 3f
        E 7 b9 05 3f
        E 7 b9 05 3f
        E 7 b9 05 3f
        E 7 b9 05 3f
        E 7 b9 05 3f
        E 7 b9 05 3f
        E 7 b9 05 3f
        E 7 b9 05 3f
        E 7 b9 05 3e
        E 7 b9 05 3e
        E 7 b9 05 3d
        E 7 b9 05 3d
        E 7 b9 05 3c
        E 7 b9 05 3b
        E 7 b9 05 3a
        E 7 b9 05 3a
        E 7 b9 05 39
        E 7 b9 05 38
        E 7 b9 05 37
        E 7 b9 05 36
        E 7 b9 05 34
        E 7 b9 05 33
        E 7 b9 05 32
        E 7 b9 05 31
        E 7 b9 05 2f
        E 7 b9 05 2e
        E 7 b9 05 2c
        E 7 b9 05 2b
        E 7 b9 05 2a
        E 7 b9 05 28
        E 7 b9 05 27
        E 7 b9 05 25
        E 7 b9 05 23
        E 7 b9 05 22
        E 7 b9 05 20
        E 7 b9 05 1f
        E 7 b9 05 1d
        E 7 b9 05 1c
        E 7 b9 05 1a
        E 7 b9 05 18
        E 7 b9 05 17
        E 7 b9 05 15
        E 7 b9 05 14
        E 7 b9 05 13
        E 7 b9 05 11
        E 7 b9 05 10
        E 7 b9 05 0e
        E 7 b9 05 0d
        E 7 b9 05 0c
        E 7 b9 05 0b
        E 7 b9 05 09
        E 7 b9 05 08
        E 7 b9 05 07
        E 7 b9 05 06
        E 7 b9 05 05
        E 7 b9 05 05
        E 7 b9 05 04
        E 7 b9 05 03
        E 7 b9 05 02
        E 7 b9 05 02
        E 7 b9 05 01
        E 7 b9 05 01
        E 7 b9 05 00
        E 7 b9 05 00
        E 7 b9 05 00
        E 7 b9 05 00
        E 7 b9 05 00
        E 7 b9 05 00
        E 7 b9 05 00
        E 7 b9 05 00
        E 7 b9 05 00
        E 7 b9 05 01
        E 7 b9 05 01
        E 7 b9 05 02
        E 7 b9 05 02
        E 7 b9 05 03
        E 7 b9 05 03
        E 7 b9 05 04
        E 7 b9 05 05
        E 7 b9 05 06
        E 7 b9 05 07
        E 7 b9 05 08
        E 7 b9 05 09
        E 7 b9 05 0a
        E 7 b9 05 0b
        E 7 b9 05 0c
        E 7 b9 05 0e
        E 7 b9 05 0f
        E 7 b9 05 10
        E 7 b9 05 12
        E 7 b9 05 13
        E 7 b9 05 15
        E 7 b9 05 16
        E 7 b9 05 18
        E 7 b9 05 19
        E 7 b9 05 1b
        E 7 b9 05 1c
        E 7 b9 05 1e
        E 7 b9 05 20
        E 9 b9 05 20
        E 9 b9 05 21
        E 9 b9 05 23
        E 9 b9 05 24
        E 9 b9 05 26
        E 9 b9 05 27
        E 9 b9 05 29
        E 9 b9 05 2a
        E 9 b9 05 2c
        E 9 b9 05 2d
        E 9 b9 05 2f
        E 9 b9 05 30
        E 9 b9 05 31
        E 9 b9 05 33
        E 9 b9 05 34
        E 9 b9 05 35
        E 9 b9 05 36
        E 9 b9 05 37
        E 9 b9 05 38
        E 9 b9 05 39
        E 9 b9 05 3a
        E 9 b9 05 3b
        E 9 b9 05 3c
        E 9 b9 05 3c
        E 9 b9 05 3d
        E 9 b9 05 3d
        E 9 b9 05 3e
        E 9 b9 05 3e
        E 9 b9 05 3f
        E 9 b9 05 3f
        E 9 b9 05 3f
        E 9 b9 05 3f
        E 9 b9 05 3f
        E 9 b9 05 3f
        E 9 b9 05 3f
        E 9 b9 05 3f
        E 9 b9 05 3f
        E 9 b9 05 3e
        E 9 b9 05 3e
        E 9 b9 05 3d
        E 9 b9 05 3d
        E 9 b9 05 3c
        E 9 b9 05 3b
        E 9 b9 05 3a
        E 9 b9 05 3a
        E 9 b9 05 39
        E 9 b9 05 38
        E 9 b9 05 37
        E 9 b9 05 36
        E 9 b9 05 34
        E 9 b9 05 33
        E 9 b9 05 32
        E 9 b9 05 31
        E 9 b9 05 2f
        E 9 b9 05 2e
        E 9 b9 05 2c
        E 9 b9 05 2b
        E 9 b9 05 2a
        E 9 b9 05 28
        E 9 b9 05 27
        E 9 b9 05 25
        E 9 b9 05 23
        E 9 b9 05 22
        E 9 b9 05 20
        E 9 b9 05 1f
        E 9 b9 05 1d
        E 9 b9 05 1c
        E 9 b9 05 1a
        E 9 b9 05 18
        E 9 b9 05 17
        E 9 b9 05 15
        E 9 b9 05 14
        E 9 b9 05 13
        E 9 b9 05 11
        E 9 b9 05 10
        E 9 b9 05 0e
        E 9 b9 05 0d
        E 9 b9 05 0c
        E 9 b9 05 0b
        E 9 b9 05 09
        E 9 b9 05 08
        E 9 b9 05 07
        E 9 b9 05 06
        E 9 b9 05 05
        E 9 b9 05 05
        E 9 b9 05 04
        E 9 b9 05 03
        E 9 b9 05 02
        E 9 b9 05 02
        E 9 b9 05 01
        E 9 b9 05 01
        E 9 b9 05 00
        E 9 b9 05 00
        E 9 b9 05 00
        E 9 b9 05 00
        E 9 b9 05 00
        E 9 b9 05 00
        E 9 b9 05 00
        E 9 b9 05 00
        E 9 b9 05 00
        E 9 b9 05 01
        E 9 b9 05 01
        E 9 b9 05 02
        E 9 b9 05 02
        E 9 b9 05 03
        E 9 b9 05 03
        E 9 b9 05 04
        E 9 b9 05 05
        E 9 b9 05 06
        E 9 b9 05 07
        E 9 b9 05 08
        E 9 b9 05 09
        E 9 b9 05 0a
        E 9 b9 05 0b
        E 9 b9 05 0c
        E 9 b9 05 0e
        E 9 b9 05 0f
        E 9 b9 05 10
        E 9 b9 05 12
        E 9 b9 05 13
        E 9 b9 05 15
        E 9 b9 05 16
        E 9 b9 05 18
        E 9 b9 05 19
        E 9 b9 05 1b
        E 9 b9 05 1c
        E 9 b9 05 1e
        E 9 b9 05 20
        E 11 b9 05 40
        E 11 b9 05 43
        E 11 b9 05 46
        E 11 b9 05 49
        E 11 b9 05 4c
        E 11 b9 05 4f
        E 11 b9 05 52
        E 11 b9 05 55
        E 11 b9 05 58
        E 11 b9 05 5b
        E 11 b9 05 5e
        E 11 b9 05 60
        E 11 b9 05 63
        E 11 b9 05 66
        E 11 b9 05 68
        E 11 b9 05 6a
        E 11 b9 05 6d
        E 11 b9 05 6f
        E 11 b9 05 71
        E 11 b9 05 73
        E 11 b9 05 75
        E 11 b9 05 76
        E 11 b9 05 78
        E 11 b9 05 79
        E 11 b9 05 7a
        E 11 b9 05 7b
        E 11 b9 05 7c
        E 11 b9 05 7d
        E 11 b9 05 7e
        E 11 b9 05 7e
        E 11 b9 05 7f
        E 11 b9 05 7f
        E 11 b9 05 7f
        E 11 b9 05 7f
        E 11 b9 05 7f
        E 11 b9 05 7e
        E 11 b9 05 7e
        E 11 b9 05 7d
        E 11 b9 05 7c
        E 11 b9 05 7b
        E 11 b9 05 7a
        E 11 b9 05 78
        E 11 b9 05 77
        E 11 b9 05 75
        E 11 b9 05 74
        E 11 b9 05 72
        E 11 b9 05 70
        E 11 b9 05 6e
        E 11 b9 05 6c
        E 11 b9 05 69
        E 11 b9 05 67
        E 11 b9 05 64
        E 11 b9 05 62
        E 11 b9 05 5f
        E 11 b9 05 5c
        E 11 b9 05 59
        E 11 b9 05 57
        E 11 b9 05 54
        E 11 b9 05 51
        E 11 b9 05 4e
        E 11 b9 05 4a
        E 11 b9 05 47
        E 11 b9 05 44
        E 11 b9 05 41
        E 11 b9 05 3e
        E 11 b9 05 3b
        E 11 b9 05 38
        E 11 b9 05 35
        E 11 b9 05 31
        E 11 b9 05 2e
        E 11 b9 05 2b
        E 11 b9 05 28
        E 11 b9 05 26
        E 11 b9 05 23
        E 11 b9 05 20
        E 11 b9 05 1d
        E 11 b9 05 1b
        E 11 b9 05 18
        E 11 b9 05 16
        E 11 b9 05 13
        E 11 b9 05 11
        E 11 b9 05 0f
        E 11 b9 05 0d
        E 11 b9 05 0b
        E 11 b9 05 0a
        E 11 b9 05 08
        E 11 b9 05 07
        E 11 b9 05 05
        E 11 b9 05 04
        E 11 b9 05 03
        E 11 b9 05 02
        E 11 b9 05 01
        E 11 b9 05 01
        E 11 b9 05 00
        E 11 b9 05 00
        E 11 b9 05 00
        E 11 b9 05 00
        E 11 b9 05 00
        E 11 b9 05 01
        E 11 b9 05 01
        E 11 b9 05 02
        E 11 b9 05 03
        E 11 b9 05 04
        E 11 b9 05 05
        E 11 b9 05 06
        E 11 b9 05 07
        E 11 b9 05 09
        E 11 b9 05 0a
        E 11 b9 05 0c
        E 11 b9 05 0e
        E 11 b9 05 10
        E 11 b9 05 12
        E 11 b9 05 15
        E 11 b9 05 17
        E 11 b9 05 19
        E 11 b9 05 1c
        E 11 b9 05 1f
        E 11 b9 05 21
        E 11 b9 05 24
        E 11 b9 05 27
        E 11 b9 05 2a
        E 11 b9 05 2d
        E 11 b9 05 30
        E 11 b9 05 33
        E 11 b9 05 36
        E 11 b9 05 39
        E 11 b9 05 3c
        E 11 b9 05 40
        E 1 b9 05 39
        E 1 b9 05 3c
        E 1 b9 05 3f
        E 1 b9 05 41
        E 1 b9 05 44
        E 1 b9 05 47
        E 1 b9 05 49
        E 1 b9 05 4c
        E 1 b9 05 4f
        E 1 b9 05 51
        E 1 b9 05 54
        E 1 b9 05 56
        E 1 b9 05 59
        E 1 b9 05 5b
        E 1 b9 05 5d
        E 1 b9 05 5f
        E 1 b9 05 62
        E 1 b9 05 63
        E 1 b9 05 65
        E 1 b9 05 67
        E 1 b9 05 69
        E 1 b9 05 6a
        E 1 b9 05 6c
        E 1 b9 05 6c
        E 1 b9 05 6d
        E 1 b9 05 6e
        E 1 b9 05 6f
        E 1 b9 05 70
        E 1 b9 05 71
        E 1 b9 05 71
        E 1 b9 05 72
        E 1 b9 05 72
        E 1 b9 05 72
        E 1 b9 05 72
        E 1 b9 05 72
        E 1 b9 05 71
        E 1 b9 05 71
        E 1 b9 05 70
        E 1 b9 05 6f
        E 1 b9 05 6e
        E 1 b9 05 6d
        E 1 b9 05 6c
        E 1 b9 05 6b
        E 1 b9 05 69
        E 1 b9 05 68
        E 1 b9 05 66
        E 1 b9 05 64
        E 1 b9 05 63
        E 1 b9 05 61
        E 1 b9 05 5e
        E 1 b9 05 5c
        E 1 b9 05 5a
        E 1 b9 05 58
        E 1 b9 05 55
        E 1 b9 05 52
        E 1 b9 05 50
        E 1 b9 05 4e
        E 1 b9 05 4b
        E 1 b9 05 48
        E 1 b9 05 46
        E 1 b9 05 42
        E 1 b9 05 3f
        E 1 b9 05 3d
        E 1 b9 05 3a
        E 1 b9 05 37
        E 1 b9 05 35
        E 1 b9 05 32
        E 1 b9 05 2f
        E 1 b9 05 2c
        E 1 b9 05 29
        E 1 b9 05 26
        E 1 b9 05 24
        E 1 b9 05 22
        E 1 b9 05 1f
        E 1 b9 05 1c
        E 1 b9 05 1a
        E 1 b9 05 18
        E 1 b9 05 15
        E 1 b9 05 13
        E 1 b9 05 11
        E 1 b9 05 0f
        E 1 b9 05 0d
        E 1 b9 05 0b
        E 1 b9 05 09
        E 1 b9 05 09
        E 1 b9 05 07
        E 1 b9 05 06
        E 1 b9 05 04
        E 1 b9 05 03
        E 1 b9 05 02
        E 1 b9 05 01
        E 1 b9 05 00
        E 1 b9 05 00
        E 1 b9 05 00
        E 1 b9 05 00
        E 1 b9 05 00
        E 1 b9 05 00
        E 1 b9 05 00
        E 1 b9 05 00
        E 1 b9 05 00
        E 1 b9 05 01
        E 1 b9 05 02
        E 1 b9 05 03
        E 1 b9 05 04
        E 1 b9 05 05
        E 1 b9 05 06
        E 1 b9 05 08
        E 1 b9 05 09
        E 1 b9 05 0a
        E 1 b9 05 0c
        E 1 b9 05 0e
        E 1 b9 05 10
        E 1 b9 05 12
        E 1 b9 05 14
        E 1 b9 05 16
        E 1 b9 05 19
        E 1 b9 05 1b
        E 1 b9 05 1d
        E 1 b9 05 20
        E 1 b9 05 23
        E 1 b9 05 25
        E 1 b9 05 28
        E 1 b9 05 2b
        E 1 b9 05 2d
        E 1 b9 05 30
        E 1 b9 05 33
        E 1 b9 05 36
        E 1 b9 05 39
        E 5 b9 05 40
        E 5 b9 05 43
        E 5 b9 05 46
        E 5 b9 05 49
        E 5 b9 05 4c
        E 5 b9 05 4f
        E 5 b9 05 52
        E 5 b9 05 55
        E 5 b9 05 58
        E 5 b9 05 5b
        E 5 b9 05 5e
        E 5 b9 05 60
        E 5 b9 05 63
        E 5 b9 05 66
        E 5 b9 05 68
        E 5 b9 05 6a
        E 5 b9 05 6d
        E 5 b9 05 6f
        E 5 b9 05 71
        E 5 b9 05 73
        E 5 b9 05 75
        E 5 b9 05 76
        E 5 b9 05 78
        E 5 b9 05 79
        E 5 b9 05 7a
        E 5 b9 05 7b
        E 5 b9 05 7c
        E 5 b9 05 7d
        E 5 b9 05 7e
        E 5 b9 05 7e
        E 5 b9 05 7f
        E 5 b9 05 7f
        E 5 b9 05 7f
        E 5 b9 05 7f
        E 5 b9 05 7f
        E 5 b9 05 7e
        E 5 b9 05 7e
        E 5 b9 05 7d
        E 5 b9 05 7c
        E 5 b9 05 7b
        E 5 b9 05 7a
        E 5 b9 05 78
        E 5 b9 05 77
        E 5 b9 05 75
        E 5 b9 05 74
        E 5 b9 05 72
        E 5 b9 05 70
        E 5 b9 05 6e
        E 5 b9 05 6c
        E 5 b9 05 69
        E 5 b9 05 67
        E 5 b9 05 64
        E 5 b9 05 62
        E 5 b9 05 5f
        E 5 b9 05 5c
        E 5 b9 05 59
        E 5 b9 05 57
        E 5 b9 05 54
        E 5 b9 05 51
        E 5 b9 05 4e
        E 5 b9 05 4a
        E 5 b9 05 47
        E 5 b9 05 44
        E 5 b9 05 41
        E 5 b9 05 3e
        E 5 b9 05 3b
        E 5 b9 05 38
        E 5 b9 05 35
        E 5 b9 05 31
        E 5 b9 05 2e
        E 5 b9 05 2b
        E 5 b9 05 28
        E 5 b9 05 26
        E 5 b9 05 23
        E 5 b9 05 20
        E 5 b9 05 1d
        E 5 b9 05 1b
        E 5 b9 05 18
        E 5 b9 05 16
        E 5 b9 05 13
        E 5 b9 05 11
        E 5 b9 05 0f
        E 5 b9 05 0d
        E 5 b9 05 0b
        E 5 b9 05 0a
        E 5 b9 05 08
        E 5 b9 05 07
        E 5 b9 05 05
        E 5 b9 05 04
        E 5 b9 05 03
        E 5 b9 05 02
        E 5 b9 05 01
        E 5 b9 05 01
        E 5 b9 05 00
        E 5 b9 05 00
        E 5 b9 05 00
        E 5 b9 05 00
        E 5 b9 05 00
        E 5 b9 05 01
        E 5 b9 05 01
        E 5 b9 05 02
        E 5 b9 05 03
        E 5 b9 05 04
        E 5 b9 05 05
        E 5 b9 05 06
        E 5 b9 05 07
        E 5 b9 05 09
        E 5 b9 05 0a
        E 5 b9 05 0c
        E 5 b9 05 0e
        E 5 b9 05 10
        E 5 b9 05 12
        E 5 b9 05 15
        E 5 b9 05 17
        E 5 b9 05 19
        E 5 b9 05 1c
        E 5 b9 05 1f
        E 5 b9 05 21
        E 5 b9 05 24
        E 5 b9 05 27
        E 5 b9 05 2a
        E 5 b9 05 2d
        E 5 b9 05 30
        E 5 b9 05 33
        E 5 b9 05 36
        E 5 b9 05 39
        E 5 b9 05 3c
        E 5 b9 05 40
        E 9 b9 05 39
        E 9 b9 05 3c
        E 9 b9 05 3f
        E 9 b9 05 41
        E 9 b9 05 44
        E 9 b9 05 47
        E 9 b9 05 49
        E 9 b9 05 4c
        E 9 b9 05 4f
        E 9 b9 05 51
        E 9 b9 05 54
        E 9 b9 05 56
        E 9 b9 05 59
        E 9 b9 05 5b
        E 9 b9 05 5d
        E 9 b9 05 5f
        E 9 b9 05 62
        E 9 b9 05 63
        E 9 b9 05 65
        E 9 b9 05 67
        E 9 b9 05 69
        E 9 b9 05 6a
        E 9 b9 05 6c
        E 9 b9 05 6c
        E 9 b9 05 6d
        E 9 b9 05 6e
        E 9 b9 05 6f
        E 9 b9 05 70
        E 9 b9 05 71
        E 9 b9 05 71
        E 9 b9 05 72
        E 9 b9 05 72
        E 9 b9 05 72
        E 9 b9 05 72
        E 9 b9 05 72
        E 9 b9 05 71
        E 9 b9 05 71
        E 9 b9 05 70
        E 9 b9 05 6f
        E 9 b9 05 6e
        E 9 b9 05 6d
        E 9 b9 05 6c
        E 9 b9 05 6b
        E 9 b9 05 69
        E 9 b9 05 68
        E 9 b9 05 66
        E 9 b9 05 64
        E 9 b9 05 63
        E 9 b9 05 61
        E 9 b9 05 5e
        E 9 b9 05 5c
        E 9 b9 05 5a
        E 9 b9 05 58
        E 9 b9 05 55
        E 9 b9 05 52
        E 9 b9 05 50
        E 9 b9 05 4e
        E 9 b9 05 4b
        E 9 b9 05 48
        E 9 b9 05 46
        E 9 b9 05 42
        E 9 b9 05 3f
        E 9 b9 05 3d
        E 9 b9 05 3a
        E 9 b9 05 37
        E 9 b9 05 35
        E 9 b9 05 32
        E 9 b9 05 2f
        E 9 b9 05 2c
        E 9 b9 05 29
        E 9 b9 05 26
        E 9 b9 05 24
        E 9 b9 05 22
        E 9 b9 05 1f
        E 9 b9 05 1c
        E 9 b9 05 1a
        E 9 b9 05 18
        E 9 b9 05 15
        E 9 b9 05 13
        E 9 b9 05 11
        E 9 b9 05 0f
        E 9 b9 05 0d
        E 9 b9 05 0b
        E 9 b9 05 09
        E 9 b9 05 09
        E 9 b9 05 07
        E 9 b9 05 06
        E 9 b9 05 04
        E 9 b9 05 03
        E 9 b9 05 02
        E 9 b9 05 01
        E 9 b9 05 00
        E 9 b9 05 00
        E 9 b9 05 00
        E 9 b9 05 00
        E 9 b9 05 00
        E 9 b9 05 00
        E 9 b9 05 00
        E 9 b9 05 00
        E 9 b9 05 00
        E 9 b9 05 01
        E 9 b9 05 02
        E 9 b9 05 03
        E 9 b9 05 04
        E 9 b9 05 05
        E 9 b9 05 06
        E 9 b9 05 08
        E 9 b9 05 09
        E 9 b9 05 0a
        E 9 b9 05 0c
        E 9 b9 05 0e
        E 9 b9 05 10
        E 9 b9 05 12
        E 9 b9 05 14
        E 9 b9 05 16
        E 9 b9 05 19
        E 9 b9 05 1b
        E 9 b9 05 1d
        E 9 b9 05 20
        E 9 b9 05 23
        E 9 b9 05 25
        E 9 b9 05 28
        E 9 b9 05 2b
        E 9 b9 05 2d
        E 9 b9 05 30
        E 9 b9 05 33
        E 9 b9 05 36
        E 9 b9 05 39
        E 7 b9 05 20
        E 7 b9 05 21
        E 7 b9 05 23
        E 7 b9 05 24
        E 7 b9 05 26
        E 7 b9 05 27
        E 7 b9 05 29
        E 7 b9 05 2a
        E 7 b9 05 2c
        E 7 b9 05 2d
        E 7 b9 05 2f
        E 7 b9 05 30
        E 7 b9 05 31
        E 7 b9 05 33
        E 7 b9 05 34
        E 7 b9 05 35
        E 7 b9 05 36
        E 7 b9 05 37
        E 7 b9 05 38
        E 7 b9 05 39
        E 7 b9 05 3a
        E 7 b9 05 3b
        E 7 b9 05 3c
        E 7 b9 05 3c
        E 7 b9 05 3d
        E 7 b9 05 3d
        E 7 b9 05 3e
        E 7 b9 05 3e
        E 7 b9 05 3f
        E 7 b9 05 3f
        E 7 b9 05 3f
        E 7 b9 05 3f
        E 7 b9 05 3f
        E 7 b9 05 3f
        E 7 b9 05 3f
        E 7 b9 05 3f
        E 7 b9 05 3f
        E 7 b9 05 3e
        E 7 b9 05 3e
        E 7 b9 05 3d
        E 7 b9 05 3d
        E 7 b9 05 3c
        E 7 b9 05 3b
        E 7 b9 05 3a
        E 7 b9 05 3a
        E 7 b9 05 39
        E 7 b9 05 38
        E 7 b9 05 37
        E 7 b9 05 36
        E 7 b9 05 34
        E 7 b9 05 33
        E 7 b9 05 32
        E 7 b9 05 31
        E 7 b9 05 2f
        E 7 b9 05 2e
        E 7 b9 05 2c
        E 7 b9 05 2b
        E 7 b9 05 2a
        E 7 b9 05 28
        E 7 b9 05 27
        E 7 b9 05 25
        E 7 b9 05 23
        E 7 b9 05 22
        E 7 b9 05 20
        E 7 b9 05 1f
        E 7 b9 05 1d
        E 7 b9 05 1c
        E 7 b9 05 1a
        E 7 b9 05 18
        E 7 b9 05 17
        E 7 b9 05 15
        E 7 b9 05 14
        E 7 b9 05 13
        E 7 b9 05 11
        E 7 b9 05 10
        E 7 b9 05 0e
        E 7 b9 05 0d
        E 7 b9 05 0c
        E 7 b9 05 0b
        E 7 b9 05 09
        E 7 b9 05 08
        E 7 b9 05 07
        E 7 b9 05 06
        E 7 b9 05 05
        E 7 b9 05 05
        E 7 b9 05 04
        E 7 b9 05 03
        E 7 b9 05 02
        E 7 b9 05 02
        E 7 b9 05 01
        E 7 b9 05 01
        E 7 b9 05 00
        E 7 b9 05 00
        E 7 b9 05 00
        E 7 b9 05 00
        E 7 b9 05 00
        E 7 b9 05 00
        E 7 b9 05 00
        E 7 b9 05 00
        E 7 b9 05 00
        E 7 b9 05 01
        E 7 b9 05 01
        E 7 b9 05 02
        E 7 b9 05 02
        E 7 b9 05 03
        E 7 b9 05 03
        E 7 b9 05 04
        E 7 b9 05 05
        E 7 b9 05 06
        E 7 b9 05 07
        E 7 b9 05 08
        E 7 b9 05 09
        E 7 b9 05 0a
        E 7 b9 05 0b
        E 7 b9 05 0c
        E 7 b9 05 0e
        E 7 b9 05 0f
        E 7 b9 05 10
        E 7 b9 05 12
        E 7 b9 05 13
        E 7 b9 05 15
        E 7 b9 05 16
        E 7 b9 05 18
        E 7 b9 05 19
        E 7 b9 05 1b
        E 7 b9 05 1c
        E 7 b9 05 1e
        E 7 b9 05 20
        E 7 b9 05 20
        E 7 b9 05 21
        E 7 b9 05 23
        E 7 b9 05 24
        E 7 b9 05 26
        E 7 b9 05 27
        E 7 b9 05 29
        E 7 b9 05 2a
        E 7 b9 05 2c
        E 7 b9 05 2d
        E 7 b9 05 2f
        E 7 b9 05 30
        E 7 b9 05 31
        E 7 b9 05 33
        E 7 b9 05 34
        E 7 b9 05 35
        E 7 b9 05 36
        E 7 b9 05 37
        E 7 b9 05 38
        E 7 b9 05 39
        E 7 b9 05 3a
        E 7 b9 05 3b
        E 7 b9 05 3c
        E 7 b9 05 3c
        E 7 b9 05 3d
        E 7 b9 05 3d
        E 7 b9 05 3e
        E 7 b9 05 3e
        E 7 b9 05 3f
        E 7 b9 05 3f
        E 7 b9 05 3f
        E 7 b9 05 3f
        E 7 b9 05 3f
        E 7 b9 05 3f
        E 7 b9 05 3f
        E 7 b9 05 3f
        E 7 b9 05 3f
        E 7 b9 05 3e
        E 7 b9 05 3e
        E 7 b9 05 3d
        E 7 b9 05 3d
        E 7 b9 05 3c
        E 7 b9 05 3b
        E 7 b9 05 3a
        E 7 b9 05 3a
        E 7 b9 05 39
        E 7 b9 05 38
        E 7 b9 05 37
        E 7 b9 05 36
        E 7 b9 05 34
        E 7 b9 05 33
        E 7 b9 05 32
        E 7 b9 05 31
        E 7 b9 05 2f
        E 7 b9 05 2e
        E 7 b9 05 2c
        E 7 b9 05 2b
        E 7 b9 05 2a
        E 7 b9 05 28
        E 7 b9 05 27
        E 7 b9 05 25
        E 7 b9 05 23
        E 7 b9 05 22
        E 7 b9 05 20
        E 7 b9 05 1f
        E 7 b9 05 1d
        E 7 b9 05 1c
        E 7 b9 05 1a
        E 7 b9 05 18
        E 7 b9 05 17
        E 7 b9 05 15
        E 7 b9 05 14
        E 7 b9 05 13
        E 7 b9 05 11
        E 7 b9 05 10
        E 7 b9 05 0e
        E 7 b9 05 0d
        E 7 b9 05 0c
        E 7 b9 05 0b
        E 7 b9 05 09
        E 7 b9 05 08
        E 7 b9 05 07
        E 7 b9 05 06
        E 7 b9 05 05
        E 7 b9 05 05
        E 7 b9 05 04
        E 7 b9 05 03
        E 7 b9 05 02
        E 7 b9 05 02
        E 7 b9 05 01
        E 7 b9 05 01
        E 7 b9 05 00
        E 7 b9 05 00
        E 7 b9 05 00
        E 7 b9 05 00
        E 7 b9 05 00
        E 7 b9 05 00
        E 7 b9 05 00
        E 7 b9 05 00
        E 7 b9 05 00
        E 7 b9 05 01
        E 7 b9 05 01
        E 7 b9 05 02
        E 7 b9 05 02
        E 7 b9 05 03
        E 7 b9 05 03
        E 7 b9 05 04
        E 7 b9 05 05
        E 7 b9 05 06
        E 7 b9 05 07
        E 7 b9 05 08
        E 7 b9 05 09
        E 7 b9 05 0a
        E 7 b9 05 0b
        E 7 b9 05 0c
        E 7 b9 05 0e
        E 7 b9 05 0f
        E 7 b9 05 10
        E 7 b9 05 12
        E 7 b9 05 13
        E 7 b9 05 15
        E 7 b9 05 16
        E 7 b9 05 18
        E 7 b9 05 19
        E 7 b9 05 1b
        E 7 b9 05 1c
        E 7 b9 05 1e
        E 7 b9 05 20
        E 14 b9 05 2c
        E 14 b9 05 2e
        E 14 b9 05 31
        E 14 b9 05 33
        E 14 b9 05 35
        E 14 b9 05 37
        E 14 b9 05 39
        E 14 b9 05 3b
        E 14 b9 05 3d
        E 14 b9 05 3f
        E 14 b9 05 41
        E 14 b9 05 43
        E 14 b9 05 45
        E 14 b9 05 47
        E 14 b9 05 48
        E 14 b9 05 4a
        E 14 b9 05 4c
        E 14 b9 05 4d
        E 14 b9 05 4f
        E 14 b9 05 50
        E 14 b9 05 51
        E 14 b9 05 52
        E 14 b9 05 54
        E 14 b9 05 54
        E 14 b9 05 55
        E 14 b9 05 56
        E 14 b9 05 56
        E 14 b9 05 57
        E 14 b9 05 58
        E 14 b9 05 58
        E 14 b9 05 58
        E 14 b9 05 58
        E 14 b9 05 58
        E 14 b9 05 58
        E 14 b9 05 58
        E 14 b9 05 58
        E 14 b9 05 58
        E 14 b9 05 57
        E 14 b9 05 56
        E 14 b9 05 56
        E 14 b9 05 55
        E 14 b9 05 54
        E 14 b9 05 53
        E 14 b9 05 51
        E 14 b9 05 51
        E 14 b9 05 4f
        E 14 b9 05 4e
        E 14 b9 05 4d
        E 14 b9 05 4b
        E 14 b9 05 49
        E 14 b9 05 48
        E 14 b9 05 46
        E 14 b9 05 44
        E 14 b9 05 42
        E 14 b9 05 40
        E 14 b9 05 3e
        E 14 b9 05 3c
        E 14 b9 05 3a
        E 14 b9 05 38
        E 14 b9 05 36
        E 14 b9 05 33
        E 14 b9 05 31
        E 14 b9 05 2f
        E 14 b9 05 2d
        E 14 b9 05 2b
        E 14 b9 05 29
        E 14 b9 05 27
        E 14 b9 05 25
        E 14 b9 05 22
        E 14 b9 05 20
        E 14 b9 05 1e
        E 14 b9 05 1c
        E 14 b9 05 1a
        E 14 b9 05 18
        E 14 b9 05 16
        E 14 b9 05 14
        E 14 b9 05 12
        E 14 b9 05 10
        E 14 b9 05 0f
        E 14 b9 05 0d
        E 14 b9 05 0b
        E 14 b9 05 0a
        E 14 b9 05 09
        E 14 b9 05 07
        E 14 b9 05 07
        E 14 b9 05 05
        E 14 b9 05 04
        E 14 b9 05 03
        E 14 b9 05 02
        E 14 b9 05 02
        E 14 b9 05 01
        E 14 b9 05 00
        E 14 b9 05 00
        E 14 b9 05 00
        E 14 b9 05 00
        E 14 b9 05 00
        E 14 b9 05 00
        E 14 b9 05 00
        E 14 b9 05 00
        E 14 b9 05 00
        E 14 b9 05 01
        E 14 b9 05 02
        E 14 b9 05 02
        E 14 b9 05 03
        E 14 b9 05 04
        E 14 b9 05 04
        E 14 b9 05 06
        E 14 b9 05 07
        E 14 b9 05 08
        E 14 b9 05 09
        E 14 b9 05 0b
        E 14 b9 05 0c
        E 14 b9 05 0e
        E 14 b9 05 10
        E 14 b9 05 11
        E 14 b9 05 13
        E 14 b9 05 15
        E 14 b9 05 17
        E 14 b9 05 19
        E 14 b9 05 1b
        E 14 b9 05 1d
        E 14 b9 05 1f
        E 14 b9 05 21
        E 14 b9 05 23
        E 14 b9 05 25
        E 14 b9 05 27
        E 14 b9 05 2a
        E 14 b9 05 2c
        E 12 b9 05 33
        E 12 b9 05 35
        E 12 b9 05 37
        E 12 b9 05 3a
        E 12 b9 05 3c
        E 12 b9 05 3f
        E 12 b9 05 41
        E 12 b9 05 44
        E 12 b9 05 46
        E 12 b9 05 48
        E 12 b9 05 4b
        E 12 b9 05 4c
        E 12 b9 05 4f
        E 12 b9 05 51
        E 12 b9 05 53
        E 12 b9 05 54
        E 12 b9 05 57
        E 12 b9 05 58
        E 12 b9 05 5a
        E 12 b9 05 5b
        E 12 b9 05 5d
        E 12 b9 05 5e
        E 12 b9 05 5f
        E 12 b9 05 60
        E 12 b9 05 61
        E 12 b9 05 62
        E 12 b9 05 63
        E 12 b9 05 63
        E 12 b9 05 64
        E 12 b9 05 64
        E 12 b9 05 65
        E 12 b9 05 65
        E 12 b9 05 65
        E 12 b9 05 65
        E 12 b9 05 65
        E 12 b9 05 64
        E 12 b9 05 64
        E 12 b9 05 63
        E 12 b9 05 63
        E 12 b9 05 62
        E 12 b9 05 61
        E 12 b9 05 5f
        E 12 b9 05 5f
        E 12 b9 05 5d
        E 12 b9 05 5c
        E 12 b9 05 5b
        E 12 b9 05 59
        E 12 b9 05 57
        E 12 b9 05 56
        E 12 b9 05 54
        E 12 b9 05 52
        E 12 b9 05 50
        E 12 b9 05 4e
        E 12 b9 05 4c
        E 12 b9 05 49
        E 12 b9 05 47
        E 12 b9 05 45
        E 12 b9 05 43
        E 12 b9 05 40
        E 12 b9 05 3e
        E 12 b9 05 3b
        E 12 b9 05 38
        E 12 b9 05 36
        E 12 b9 05 33
        E 12 b9 05 31
        E 12 b9 05 2f
        E 12 b9 05 2c
        E 12 b9 05 2a
        E 12 b9 05 27
        E 12 b9 05 24
        E 12 b9 05 22
        E 12 b9 05 1f
        E 12 b9 05 1e
        E 12 b9 05 1b
        E 12 b9 05 19
        E 12 b9 05 17
        E 12 b9 05 15
        E 12 b9 05 13
        E 12 b9 05 11
        E 12 b9 05 0f
        E 12 b9 05 0d
        E 12 b9 05 0b
        E 12 b9 05 0a
        E 12 b9 05 08
        E 12 b9 05 07
        E 12 b9 05 06
        E 12 b9 05 05
        E 12 b9 05 03
        E 12 b9 05 03
        E 12 b9 05 02
        E 12 b9 05 01
        E 12 b9 05 00
        E 12 b9 05 00
        E 12 b9 05 00
        E 12 b9 05 00
        E 12 b9 05 00
        E 12 b9 05 00
        E 12 b9 05 00
        E 12 b9 05 00
        E 12 b9 05 00
        E 12 b9 05 01
        E 12 b9 05 02
        E 12 b9 05 03
        E 12 b9 05 03
        E 12 b9 05 04
        E 12 b9 05 05
        E 12 b9 05 07
        E 12 b9 05 07
        E 12 b9 05 09
        E 12 b9 05 0b
        E 12 b9 05 0c
        E 12 b9 05 0e
        E 12 b9 05 10
        E 12 b9 05 12
        E 12 b9 05 14
        E 12 b9 05 16
        E 12 b9 05 18
        E 12 b9 05 1a
        E 12 b9 05 1c
        E 12 b9 05 1f
        E 12 b9 05 21
        E 12 b9 05 24
        E 12 b9 05 26
        E 12 b9 05 28
        E 12 b9 05 2b
        E 12 b9 05 2d
        E 12 b9 05 2f
        E 12 b9 05 33
        E 14 b9 05 06
        E 14 b9 05 06
        E 14 b9 05 07
        E 14 b9 05 07
        E 14 b9 05 07
        E 14 b9 05 07
        E 14 b9 05 08
        E 14 b9 05 08
        E 14 b9 05 08
        E 14 b9 05 09
        E 14 b9 05 09
        E 14 b9 05 09
        E 14 b9 05 09
        E 14 b9 05 0a
        E 14 b9 05 0a
        E 14 b9 05 0a
        E 14 b9 05 0a
        E 14 b9 05 0b
        E 14 b9 05 0b
        E 14 b9 05 0b
        E 14 b9 05 0b
        E 14 b9 05 0b
        E 14 b9 05 0c
        E 14 b9 05 0c
        E 14 b9 05 0c
        E 14 b9 05 0c
        E 14 b9 05 0c
        E 14 b9 05 0c
        E 14 b9 05 0c
        E 14 b9 05 0c
        E 14 b9 05 0c
        E 14 b9 05 0c
        E 14 b9 05 0c
        E 14 b9 05 0c
        E 14 b9 05 0c
        E 14 b9 05 0c
        E 14 b9 05 0c
        E 14 b9 05 0c
        E 14 b9 05 0c
        E 14 b9 05 0c
        E 14 b9 05 0c
        E 14 b9 05 0c
        E 14 b9 05 0b
        E 14 b9 05 0b
        E 14 b9 05 0b
        E 14 b9 05 0b
        E 14 b9 05 0b
        E 14 b9 05 0b
        E 14 b9 05 0a
        E 14 b9 05 0a
        E 14 b9 05 0a
        E 14 b9 05 0a
        E 14 b9 05 09
        E 14 b9 05 09
        E 14 b9 05 09
        E 14 b9 05 08
        E 14 b9 05 08
        E 14 b9 05 08
        E 14 b9 05 08
        E 14 b9 05 07
        E 14 b9 05 07
        E 14 b9 05 07
        E 14 b9 05 06
        E 14 b9 05 06
        E 14 b9 05 06
        E 14 b9 05 05
        E 14 b9 05 05
        E 14 b9 05 05
        E 14 b9 05 04
        E 14 b9 05 04
        E 14 b9 05 04
        E 14 b9 05 04
        E 14 b9 05 03
        E 14 b9 05 03
        E 14 b9 05 03
        E 14 b9 05 02
        E 14 b9 05 02
        E 14 b9 05 02
        E 14 b9 05 02
        E 14 b9 05 01
        E 14 b9 05 01
        E 14 b9 05 01
        E 14 b9 05 01
        E 14 b9 05 01
        E 14 b9 05 01
        E 14 b9 05 00
        E 14 b9 05 00
        E 14 b9 05 00
        E 14 b9 05 00
        E 14 b9 05 00
        E 14 b9 05 00
        E 14 b9 05 00
        E 14 b9 05 00
        E 14 b9 05 00
        E 14 b9 05 00
        E 14 b9 05 00
        E 14 b9 05 00
        E 14 b9 05 00
        E 14 b9 05 00
        E 14 b9 05 00
        E 14 b9 05 00
        E 14 b9 05 00
        E 14 b9 05 00
        E 14 b9 05 00
        E 14 b9 05 00
        E 14 b9 05 00
        E 14 b9 05 00
        E 14 b9 05 01
        E 14 b9 05 01
        E 14 b9 05 01
        E 14 b9 05 01
        E 14 b9 05 01
        E 14 b9 05 02
        E 14 b9 05 02
        E 14 b9 05 02
        E 14 b9 05 02
        E 14 b9 05 03
        E 14 b9 05 03
        E 14 b9 05 03
        E 14 b9 05 03
        E 14 b9 05 04
        E 14 b9 05 04
        E 14 b9 05 04
        E 14 b9 05 05
        E 14 b9 05 05
        E 14 b9 05 05
        E 14 b9 05 06
        E 14 b9 05 06
        E 12 b9 05 19
        E 12 b9 05 1a
        E 12 b9 05 1c
        E 12 b9 05 1d
        E 12 b9 05 1e
        E 12 b9 05 1f
        E 12 b9 05 20
        E 12 b9 05 22
        E 12 b9 05 23
        E 12 b9 05 24
        E 12 b9 05 25
        E 12 b9 05 26
        E 12 b9 05 27
        E 12 b9 05 28
        E 12 b9 05 29
        E 12 b9 05 2a
        E 12 b9 05 2b
        E 12 b9 05 2c
        E 12 b9 05 2d
        E 12 b9 05 2e
        E 12 b9 05 2e
        E 12 b9 05 2f
        E 12 b9 05 30
        E 12 b9 05 30
        E 12 b9 05 30
        E 12 b9 05 31
        E 12 b9 05 31
        E 12 b9 05 32
        E 12 b9 05 32
        E 12 b9 05 32
        E 12 b9 05 32
        E 12 b9 05 32
        E 12 b9 05 32
        E 12 b9 05 32
        E 12 b9 05 32
        E 12 b9 05 32
        E 12 b9 05 32
        E 12 b9 05 32
        E 12 b9 05 31
        E 12 b9 05 31
        E 12 b9 05 30
        E 12 b9 05 30
        E 12 b9 05 2f
        E 12 b9 05 2e
        E 12 b9 05 2e
        E 12 b9 05 2d
        E 12 b9 05 2c
        E 12 b9 05 2c
        E 12 b9 05 2b
        E 12 b9 05 2a
        E 12 b9 05 29
        E 12 b9 05 28
        E 12 b9 05 27
        E 12 b9 05 26
        E 12 b9 05 24
        E 12 b9 05 23
        E 12 b9 05 22
        E 12 b9 05 21
        E 12 b9 05 20
        E 12 b9 05 1f
        E 12 b9 05 1d
        E 12 b9 05 1c
        E 12 b9 05 1b
        E 12 b9 05 1a
        E 12 b9 05 18
        E 12 b9 05 17
        E 12 b9 05 16
        E 12 b9 05 15
        E 12 b9 05 13
        E 12 b9 05 12
        E 12 b9 05 11
        E 12 b9 05 10
        E 12 b9 05 0f
        E 12 b9 05 0e
        E 12 b9 05 0c
        E 12 b9 05 0b
        E 12 b9 05 0a
        E 12 b9 05 09
        E 12 b9 05 08
        E 12 b9 05 07
        E 12 b9 05 06
        E 12 b9 05 06
        E 12 b9 05 05
        E 12 b9 05 04
        E 12 b9 05 04
        E 12 b9 05 03
        E 12 b9 05 02
        E 12 b9 05 02
        E 12 b9 05 01
        E 12 b9 05 01
        E 12 b9 05 00
        E 12 b9 05 00
        E 12 b9 05 00
        E 12 b9 05 00
        E 12 b9 05 00
        E 12 b9 05 00
        E 12 b9 05 00
        E 12 b9 05 00
        E 12 b9 05 00
        E 12 b9 05 00
        E 12 b9 05 00
        E 12 b9 05 01
        E 12 b9 05 01
        E 12 b9 05 02
        E 12 b9 05 02
        E 12 b9 05 02
        E 12 b9 05 03
        E 12 b9 05 04
        E 12 b9 05 04
        E 12 b9 05 05
        E 12 b9 05 06
        E 12 b9 05 07
        E 12 b9 05 08
        E 12 b9 05 09
        E 12 b9 05 0a
        E 12 b9 05 0b
        E 12 b9 05 0c
        E 12 b9 05 0d
        E 12 b9 05 0e
        E 12 b9 05 0f
        E 12 b9 05 10
        E 12 b9 05 12
        E 12 b9 05 13
        E 12 b9 05 14
        E 12 b9 05 15
        E 12 b9 05 16
        E 12 b9 05 18
        E 12 b9 05 19
        E 7 b9 05 2c
        E 7 b9 05 2e
        E 7 b9 05 31
        E 7 b9 05 33
        E 7 b9 05 35
        E 7 b9 05 37
        E 7 b9 05 39
        E 7 b9 05 3b
        E 7 b9 05 3d
        E 7 b9 05 3f
        E 7 b9 05 41
        E 7 b9 05 43
        E 7 b9 05 45
        E 7 b9 05 47
        E 7 b9 05 48
        E 7 b9 05 4a
        E 7 b9 05 4c
        E 7 b9 05 4d
        E 7 b9 05 4f
        E 7 b9 05 50
        E 7 b9 05 51
        E 7 b9 05 52
        E 7 b9 05 54
        E 7 b9 05 54
        E 7 b9 05 55
        E 7 b9 05 56
        E 7 b9 05 56
        E 7 b9 05 57
        E 7 b9 05 58
        E 7 b9 05 58
        E 7 b9 05 58
        E 7 b9 05 58
        E 7 b9 05 58
        E 7 b9 05 58
        E 7 b9 05 58
        E 7 b9 05 58
        E 7 b9 05 58
        E 7 b9 05 57
        E 7 b9 05 56
        E 7 b9 05 56
        E 7 b9 05 55
        E 7 b9 05 54
        E 7 b9 05 53
        E 7 b9 05 51
        E 7 b9 05 51
        E 7 b9 05 4f
        E 7 b9 05 4e
        E 7 b9 05 4d
        E 7 b9 05 4b
        E 7 b9 05 49
        E 7 b9 05 48
        E 7 b9 05 46
        E 7 b9 05 44
        E 7 b9 05 42
        E 7 b9 05 40
        E 7 b9 05 3e
        E 7 b9 05 3c
        E 7 b9 05 3a
        E 7 b9 05 38
        E 7 b9 05 36
        E 7 b9 05 33
        E 7 b9 05 31
        E 7 b9 05 2f
        E 7 b9 05 2d
        E 7 b9 05 2b
        E 7 b9 05 29
        E 7 b9 05 27
        E 7 b9 05 25
        E 7 b9 05 22
        E 7 b9 05 20
        E 7 b9 05 1e
        E 7 b9 05 1c
        E 7 b9 05 1a
        E 7 b9 05 18
        E 7 b9 05 16
        E 7 b9 05 14
        E 7 b9 05 12
        E 7 b9 05 10
        E 7 b9 05 0f
        E 7 b9 05 0d
        E 7 b9 05 0b
        E 7 b9 05 0a
        E 7 b9 05 09
        E 7 b9 05 07
        E 7 b9 05 07
        E 7 b9 05 05
        E 7 b9 05 04
        E 7 b9 05 03
        E 7 b9 05 02
        E 7 b9 05 02
        E 7 b9 05 01
        E 7 b9 05 00
        E 7 b9 05 00
        E 7 b9 05 00
        E 7 b9 05 00
        E 7 b9 05 00
        E 7 b9 05 00
        E 7 b9 05 00
        E 7 b9 05 00
        E 7 b9 05 00
        E 7 b9 05 01
        E 7 b9 05 02
        E 7 b9 05 02
        E 7 b9 05 03
        E 7 b9 05 04
        E 7 b9 05 04
        E 7 b9 05 06
        E 7 b9 05 07
        E 7 b9 05 08
        E 7 b9 05 09
        E 7 b9 05 0b
        E 7 b9 05 0c
        E 7 b9 05 0e
        E 7 b9 05 10
        E 7 b9 05 11
        E 7 b9 05 13
        E 7 b9 05 15
        E 7 b9 05 17
        E 7 b9 05 19
        E 7 b9 05 1b
        E 7 b9 05 1d
        E 7 b9 05 1f
        E 7 b9 05 21
        E 7 b9 05 23
        E 7 b9 05 25
        E 7 b9 05 27
        E 7 b9 05 2a
        E 7 b9 05 2c
        E 7 b9 05 20
        E 7 b9 05 21
        E 7 b9 05 23
        E 7 b9 05 24
        E 7 b9 05 26
        E 7 b9 05 27
        E 7 b9 05 29
        E 7 b9 05 2a
        E 7 b9 05 2c
        E 7 b9 05 2d
        E 7 b9 05 2f
        E 7 b9 05 30
        E 7 b9 05 31
        E 7 b9 05 33
        E 7 b9 05 34
        E 7 b9 05 35
        E 7 b9 05 36
        E 7 b9 05 37
        E 7 b9 05 38
        E 7 b9 05 39
        E 7 b9 05 3a
        E 7 b9 05 3b
        E 7 b9 05 3c
        E 7 b9 05 3c
        E 7 b9 05 3d
        E 7 b9 05 3d
        E 7 b9 05 3e
        E 7 b9 05 3e
        E 7 b9 05 3f
        E 7 b9 05 3f
        E 7 b9 05 3f
        E 7 b9 05 3f
        E 7 b9 05 3f
        E 7 b9 05 3f
        E 7 b9 05 3f
        E 7 b9 05 3f
        E 7 b9 05 3f
        E 7 b9 05 3e
        E 7 b9 05 3e
        E 7 b9 05 3d
        E 7 b9 05 3d
        E 7 b9 05 3c
        E 7 b9 05 3b
        E 7 b9 05 3a
        E 7 b9 05 3a
        E 7 b9 05 39
        E 7 b9 05 38
        E 7 b9 05 37
        E 7 b9 05 36
        E 7 b9 05 34
        E 7 b9 05 33
        E 7 b9 05 32
        E 7 b9 05 31
        E 7 b9 05 2f
        E 7 b9 05 2e
        E 7 b9 05 2c
        E 7 b9 05 2b
        E 7 b9 05 2a
        E 7 b9 05 28
        E 7 b9 05 27
        E 7 b9 05 25
        E 7 b9 05 23
        E 7 b9 05 22
        E 7 b9 05 20
        E 7 b9 05 1f
        E 7 b9 05 1d
        E 7 b9 05 1c
        E 7 b9 05 1a
        E 7 b9 05 18
        E 7 b9 05 17
        E 7 b9 05 15
        E 7 b9 05 14
        E 7 b9 05 13
        E 7 b9 05 11
        E 7 b9 05 10
        E 7 b9 05 0e
        E 7 b9 05 0d
        E 7 b9 05 0c
        E 7 b9 05 0b
        E 7 b9 05 09
        E 7 b9 05 08
        E 7 b9 05 07
        E 7 b9 05 06
        E 7 b9 05 05
        E 7 b9 05 05
        E 7 b9 05 04
        E 7 b9 05 03
        E 7 b9 05 02
        E 7 b9 05 02
        E 7 b9 05 01
        E 7 b9 05 01
        E 7 b9 05 00
        E 7 b9 05 00
        E 7 b9 05 00
        E 7 b9 05 00
        E 7 b9 05 00
        E 7 b9 05 00
        E 7 b9 05 00
        E 7 b9 05 00
        E 7 b9 05 00
        E 7 b9 05 01
        E 7 b9 05 01
        E 7 b9 05 02
        E 7 b9 05 02
        E 7 b9 05 03
        E 7 b9 05 03
        E 7 b9 05 04
        E 7 b9 05 05
        E 7 b9 05 06
        E 7 b9 05 07
        E 7 b9 05 08
        E 7 b9 05 09
        E 7 b9 05 0a
        E 7 b9 05 0b
        E 7 b9 05 0c
        E 7 b9 05 0e
        E 7 b9 05 0f
        E 7 b9 05 10
        E 7 b9 05 12
        E 7 b9 05 13
        E 7 b9 05 15
        E 7 b9 05 16
        E 7 b9 05 18
        E 7 b9 05 19
        E 7 b9 05 1b
        E 7 b9 05 1c
        E 7 b9 05 1e
        E 7 b9 05 20
        E 1 b9 05 39
        E 1 b9 05 3c
        E 1 b9 05 3f
        E 1 b9 05 41
        E 1 b9 05 44
        E 1 b9 05 47
        E 1 b9 05 49
        E 1 b9 05 4c
        E 1 b9 05 4f
        E 1 b9 05 51
        E 1 b9 05 54
        E 1 b9 05 56
        E 1 b9 05 59
        E 1 b9 05 5b
        E 1 b9 05 5d
        E 1 b9 05 5f
        E 1 b9 05 62
        E 1 b9 05 63
        E 1 b9 05 65
        E 1 b9 05 67
        E 1 b9 05 69
        E 1 b9 05 6a
        E 1 b9 05 6c
        E 1 b9 05 6c
        E 1 b9 05 6d
        E 1 b9 05 6e
        E 1 b9 05 6f
        E 1 b9 05 70
        E 1 b9 05 71
        E 1 b9 05 71
        E 1 b9 05 72
        E 1 b9 05 72
        E 1 b9 05 72
        E 1 b9 05 72
        E 1 b9 05 72
        E 1 b9 05 71
        E 1 b9 05 71
        E 1 b9 05 70
        E 1 b9 05 6f
        E 1 b9 05 6e
        E 1 b9 05 6d
        E 1 b9 05 6c
        E 1 b9 05 6b
        E 1 b9 05 69
        E 1 b9 05 68
        E 1 b9 05 66
        E 1 b9 05 64
        E 1 b9 05 63
        E 1 b9 05 61
        E 1 b9 05 5e
        E 1 b9 05 5c
        E 1 b9 05 5a
        E 1 b9 05 58
        E 1 b9 05 55
        E 1 b9 05 52
        E 1 b9 05 50
        E 1 b9 05 4e
        E 1 b9 05 4b
        E 1 b9 05 48
        E 1 b9 05 46
        E 1 b9 05 42
        E 1 b9 05 3f
        E 1 b9 05 3d
        E 1 b9 05 3a
        E 1 b9 05 37
        E 1 b9 05 35
        E 1 b9 05 32
        E 1 b9 05 2f
        E 1 b9 05 2c
        E 1 b9 05 29
        E 1 b9 05 26
        E 1 b9 05 24
        E 1 b9 05 22
        E 1 b9 05 1f
        E 1 b9 05 1c
        E 1 b9 05 1a
        E 1 b9 05 18
        E 1 b9 05 15
        E 1 b9 05 13
        E 1 b9 05 11
        E 1 b9 05 0f
        E 1 b9 05 0d
        E 1 b9 05 0b
        E 1 b9 05 09
        E 1 b9 05 09
        E 1 b9 05 07
        E 1 b9 05 06
        E 1 b9 05 04
        E 1 b9 05 03
        E 1 b9 05 02
        E 1 b9 05 01
        E 1 b9 05 00
        E 1 b9 05 00
        E 1 b9 05 00
        E 1 b9 05 00
        E 1 b9 05 00
        E 1 b9 05 00
        E 1 b9 05 00
        E 1 b9 05 00
        E 1 b9 05 00
        E 1 b9 05 01
        E 1 b9 05 02
        E 1 b9 05 03
        E 1 b9 05 04
        E 1 b9 05 05
        E 1 b9 05 06
        E 1 b9 05 08
        E 1 b9 05 09
        E 1 b9 05 0a
        E 1 b9 05 0c
        E 1 b9 05 0e
        E 1 b9 05 10
        E 1 b9 05 12
        E 1 b9 05 14
        E 1 b9 05 16
        E 1 b9 05 19
        E 1 b9 05 1b
        E 1 b9 05 1d
        E 1 b9 05 20
        E 1 b9 05 23
        E 1 b9 05 25
        E 1 b9 05 28
        E 1 b9 05 2b
        E 1 b9 05 2d
        E 1 b9 05 30
        E 1 b9 05 33
        E 1 b9 05 36
        E 1 b9 05 39
        E 5 b9 05 40
        E 5 b9 05 43
        E 5 b9 05 46
        E 5 b9 05 49
        E 5 b9 05 4c
        E 5 b9 05 4f
        E 5 b9 05 52
        E 5 b9 05 55
        E 5 b9 05 58
        E 5 b9 05 5b
        E 5 b9 05 5e
        E 5 b9 05 60
        E 5 b9 05 63
        E 5 b9 05 66
        E 5 b9 05 68
        E 5 b9 05 6a
        E 5 b9 05 6d
        E 5 b9 05 6f
        E 5 b9 05 71
        E 5 b9 05 73
        E 5 b9 05 75
        E 5 b9 05 76
        E 5 b9 05 78
        E 5 b9 05 79
        E 5 b9 05 7a
        E 5 b9 05 7b
        E 5 b9 05 7c
        E 5 b9 05 7d
        E 5 b9 05 7e
        E 5 b9 05 7e
        E 5 b9 05 7f
        E 5 b9 05 7f
        E 5 b9 05 7f
        E 5 b9 05 7f
        E 5 b9 05 7f
        E 5 b9 05 7e
        E 5 b9 05 7e
        E 5 b9 05 7d
        E 5 b9 05 7c
        E 5 b9 05 7b
        E 5 b9 05 7a
        E 5 b9 05 78
        E 5 b9 05 77
        E 5 b9 05 75
        E 5 b9 05 74
        E 5 b9 05 72
        E 5 b9 05 70
        E 5 b9 05 6e
        E 5 b9 05 6c
        E 5 b9 05 69
        E 5 b9 05 67
        E 5 b9 05 64
        E 5 b9 05 62
        E 5 b9 05 5f
        E 5 b9 05 5c
        E 5 b9 05 59
        E 5 b9 05 57
        E 5 b9 05 54
        E 5 b9 05 51
        E 5 b9 05 4e
        E 5 b9 05 4a
        E 5 b9 05 47
        E 5 b9 05 44
        E 5 b9 05 41
        E 5 b9 05 3e
        E 5 b9 05 3b
        E 5 b9 05 38
        E 5 b9 05 35
        E 5 b9 05 31
        E 5 b9 05 2e
        E 5 b9 05 2b
        E 5 b9 05 28
        E 5 b9 05 26
        E 5 b9 05 23
        E 5 b9 05 20
        E 5 b9 05 1d
        E 5 b9 05 1b
        E 5 b9 05 18
        E 5 b9 05 16
        E 5 b9 05 13
        E 5 b9 05 11
        E 5 b9 05 0f
        E 5 b9 05 0d
        E 5 b9 05 0b
        E 5 b9 05 0a
        E 5 b9 05 08
        E 5 b9 05 07
        E 5 b9 05 05
        E 5 b9 05 04
        E 5 b9 05 03
        E 5 b9 05 02
        E 5 b9 05 01
        E 5 b9 05 01
        E 5 b9 05 00
        E 5 b9 05 00
        E 5 b9 05 00
        E 5 b9 05 00
        E 5 b9 05 00
        E 5 b9 05 01
        E 5 b9 05 01
        E 5 b9 05 02
        E 5 b9 05 03
        E 5 b9 05 04
        E 5 b9 05 05
        E 5 b9 05 06
        E 5 b9 05 07
        E 5 b9 05 09
        E 5 b9 05 0a
        E 5 b9 05 0c
        E 5 b9 05 0e
        E 5 b9 05 10
        E 5 b9 05 12
        E 5 b9 05 15
        E 5 b9 05 17
        E 5 b9 05 19
        E 5 b9 05 1c
        E 5 b9 05 1f
        E 5 b9 05 21
        E 5 b9 05 24
        E 5 b9 05 27
        E 5 b9 05 2a
        E 5 b9 05 2d
        E 5 b9 05 30
        E 5 b9 05 33
        E 5 b9 05 36
        E 5 b9 05 39
        E 5 b9 05 3c
        E 5 b9 05 40
        E 9 b9 05 39
        E 9 b9 05 3c
        E 9 b9 05 3f
        E 9 b9 05 41
        E 9 b9 05 44
        E 9 b9 05 47
        E 9 b9 05 49
        E 9 b9 05 4c
        E 9 b9 05 4f
        E 9 b9 05 51
        E 9 b9 05 54
        E 9 b9 05 56
        E 9 b9 05 59
        E 9 b9 05 5b
        E 9 b9 05 5d
        E 9 b9 05 5f
        E 9 b9 05 62
        E 9 b9 05 63
        E 9 b9 05 65
        E 9 b9 05 67
        E 9 b9 05 69
        E 9 b9 05 6a
        E 9 b9 05 6c
        E 9 b9 05 6c
        E 9 b9 05 6d
        E 9 b9 05 6e
        E 9 b9 05 6f
        E 9 b9 05 70
        E 9 b9 05 71
        E 9 b9 05 71
        E 9 b9 05 72
        E 9 b9 05 72
        E 9 b9 05 72
        E 9 b9 05 72
        E 9 b9 05 72
        E 9 b9 05 71
        E 9 b9 05 71
        E 9 b9 05 70
        E 9 b9 05 6f
        E 9 b9 05 6e
        E 9 b9 05 6d
        E 9 b9 05 6c
        E 9 b9 05 6b
        E 9 b9 05 69
        E 9 b9 05 68
        E 9 b9 05 66
        E 9 b9 05 64
        E 9 b9 05 63
        E 9 b9 05 61
        E 9 b9 05 5e
        E 9 b9 05 5c
        E 9 b9 05 5a
        E 9 b9 05 58
        E 9 b9 05 55
        E 9 b9 05 52
        E 9 b9 05 50
        E 9 b9 05 4e
        E 9 b9 05 4b
        E 9 b9 05 48
        E 9 b9 05 46
        E 9 b9 05 42
        E 9 b9 05 3f
        E 9 b9 05 3d
        E 9 b9 05 3a
        E 9 b9 05 37
        E 9 b9 05 35
        E 9 b9 05 32
        E 9 b9 05 2f
        E 9 b9 05 2c
        E 9 b9 05 29
        E 9 b9 05 26
        E 9 b9 05 24
        E 9 b9 05 22
        E 9 b9 05 1f
        E 9 b9 05 1c
        E 9 b9 05 1a
        E 9 b9 05 18
        E 9 b9 05 15
        E 9 b9 05 13
        E 9 b9 05 11
        E 9 b9 05 0f
        E 9 b9 05 0d
        E 9 b9 05 0b
        E 9 b9 05 09
        E 9 b9 05 09
        E 9 b9 05 07
        E 9 b9 05 06
        E 9 b9 05 04
        E 9 b9 05 03
        E 9 b9 05 02
        E 9 b9 05 01
        E 9 b9 05 00
        E 9 b9 05 00
        E 9 b9 05 00
        E 9 b9 05 00
        E 9 b9 05 00
        E 9 b9 05 00
        E 9 b9 05 00
        E 9 b9 05 00
        E 9 b9 05 00
        E 9 b9 05 01
        E 9 b9 05 02
        E 9 b9 05 03
        E 9 b9 05 04
        E 9 b9 05 05
        E 9 b9 05 06
        E 9 b9 05 08
        E 9 b9 05 09
        E 9 b9 05 0a
        E 9 b9 05 0c
        E 9 b9 05 0e
        E 9 b9 05 10
        E 9 b9 05 12
        E 9 b9 05 14
        E 9 b9 05 16
        E 9 b9 05 19
        E 9 b9 05 1b
        E 9 b9 05 1d
        E 9 b9 05 20
        E 9 b9 05 23
        E 9 b9 05 25
        E 9 b9 05 28
        E 9 b9 05 2b
        E 9 b9 05 2d
        E 9 b9 05 30
        E 9 b9 05 33
        E 9 b9 05 36
        E 9 b9 05 39
        E 7 b9 05 20
        E 7 b9 05 21
        E 7 b9 05 23
        E 7 b9 05 24
        E 7 b9 05 26
        E 7 b9 05 27
        E 7 b9 05 29
        E 7 b9 05 2a
        E 7 b9 05 2c
        E 7 b9 05 2d
        E 7 b9 05 2f
        E 7 b9 05 30
        E 7 b9 05 31
        E 7 b9 05 33
        E 7 b9 05 34
        E 7 b9 05 35
        E 7 b9 05 36
        E 7 b9 05 37
        E 7 b9 05 38
        E 7 b9 05 39
        E 7 b9 05 3a
        E 7 b9 05 3b
        E 7 b9 05 3c
        E 7 b9 05 3c
        E 7 b9 05 3d
        E 7 b9 05 3d
        E 7 b9 05 3e
        E 7 b9 05 3e
        E 7 b9 05 3f
        E 7 b9 05 3f
        E 7 b9 05 3f
        E 7 b9 05 3f
        E 7 b9 05 3f
        E 7 b9 05 3f
        E 7 b9 05 3f
        E 7 b9 05 3f
        E 7 b9 05 3f
        E 7 b9 05 3e
        E 7 b9 05 3e
        E 7 b9 05 3d
        E 7 b9 05 3d
        E 7 b9 05 3c
        E 7 b9 05 3b
        E 7 b9 05 3a
        E 7 b9 05 3a
        E 7 b9 05 39
        E 7 b9 05 38
        E 7 b9 05 37
        E 7 b9 05 36
        E 7 b9 05 34
        E 7 b9 05 33
        E 7 b9 05 32
        E 7 b9 05 31
        E 7 b9 05 2f
        E 7 b9 05 2e
        E 7 b9 05 2c
        E 7 b9 05 2b
        E 7 b9 05 2a
        E 7 b9 05 28
        E 7 b9 05 27
        E 7 b9 05 25
        E 7 b9 05 23
        E 7 b9 05 22
        E 7 b9 05 20
        E 7 b9 05 1f
        E 7 b9 05 1d
        E 7 b9 05 1c
        E 7 b9 05 1a
        E 7 b9 05 18
        E 7 b9 05 17
        E 7 b9 05 15
        E 7 b9 05 14
        E 7 b9 05 13
        E 7 b9 05 11
        E 7 b9 05 10
        E 7 b9 05 0e
        E 7 b9 05 0d
        E 7 b9 05 0c
        E 7 b9 05 0b
        E 7 b9 05 09
        E 7 b9 05 08
        E 7 b9 05 07
        E 7 b9 05 06
        E 7 b9 05 05
        E 7 b9 05 05
        E 7 b9 05 04
        E 7 b9 05 03
        E 7 b9 05 02
        E 7 b9 05 02
        E 7 b9 05 01
        E 7 b9 05 01
        E 7 b9 05 00
        E 7 b9 05 00
        E 7 b9 05 00
        E 7 b9 05 00
        E 7 b9 05 00
        E 7 b9 05 00
        E 7 b9 05 00
        E 7 b9 05 00
        E 7 b9 05 00
        E 7 b9 05 01
        E 7 b9 05 01
        E 7 b9 05 02
        E 7 b9 05 02
        E 7 b9 05 03
        E 7 b9 05 03
        E 7 b9 05 04
        E 7 b9 05 05
        E 7 b9 05 06
        E 7 b9 05 07
        E 7 b9 05 08
        E 7 b9 05 09
        E 7 b9 05 0a
        E 7 b9 05 0b
        E 7 b9 05 0c
        E 7 b9 05 0e
        E 7 b9 05 0f
        E 7 b9 05 10
        E 7 b9 05 12
        E 7 b9 05 13
        E 7 b9 05 15
        E 7 b9 05 16
        E 7 b9 05 18
        E 7 b9 05 19
        E 7 b9 05 1b
        E 7 b9 05 1c
        E 7 b9 05 1e
        E 7 b9 05 20
        E 7 b9 05 20
        E 7 b9 05 21
        E 7 b9 05 23
        E 7 b9 05 24
        E 7 b9 05 26
        E 7 b9 05 27
        E 7 b9 05 29
        E 7 b9 05 2a
        E 7 b9 05 2c
        E 7 b9 05 2d
        E 7 b9 05 2f
        E 7 b9 05 30
        E 7 b9 05 31
        E 7 b9 05 33
        E 7 b9 05 34
        E 7 b9 05 35
        E 7 b9 05 36
        E 7 b9 05 37
        E 7 b9 05 38
        E 7 b9 05 39
        E 7 b9 05 3a
        E 7 b9 05 3b
        E 7 b9 05 3c
        E 7 b9 05 3c
        E 7 b9 05 3d
        E 7 b9 05 3d
        E 7 b9 05 3e
        E 7 b9 05 3e
        E 7 b9 05 3f
        E 7 b9 05 3f
        E 7 b9 05 3f
        E 7 b9 05 3f
        E 7 b9 05 3f
        E 7 b9 05 3f
        E 7 b9 05 3f
        E 7 b9 05 3f
        E 7 b9 05 3f
        E 7 b9 05 3e
        E 7 b9 05 3e
        E 7 b9 05 3d
        E 7 b9 05 3d
        E 7 b9 05 3c
        E 7 b9 05 3b
        E 7 b9 05 3a
        E 7 b9 05 3a
        E 7 b9 05 39
        E 7 b9 05 38
        E 7 b9 05 37
        E 7 b9 05 36
        E 7 b9 05 34
        E 7 b9 05 33
        E 7 b9 05 32
        E 7 b9 05 31
        E 7 b9 05 2f
        E 7 b9 05 2e
        E 7 b9 05 2c
        E 7 b9 05 2b
        E 7 b9 05 2a
        E 7 b9 05 28
        E 7 b9 05 27
        E 7 b9 05 25
        E 7 b9 05 23
        E 7 b9 05 22
        E 7 b9 05 20
        E 7 b9 05 1f
        E 7 b9 05 1d
        E 7 b9 05 1c
        E 7 b9 05 1a
        E 7 b9 05 18
        E 7 b9 05 17
        E 7 b9 05 15
        E 7 b9 05 14
        E 7 b9 05 13
        E 7 b9 05 11
        E 7 b9 05 10
        E 7 b9 05 0e
        E 7 b9 05 0d
        E 7 b9 05 0c
        E 7 b9 05 0b
        E 7 b9 05 09
        E 7 b9 05 08
        E 7 b9 05 07
        E 7 b9 05 06
        E 7 b9 05 05
        E 7 b9 05 05
        E 7 b9 05 04
        E 7 b9 05 03
        E 7 b9 05 02
        E 7 b9 05 02
        E 7 b9 05 01
        E 7 b9 05 01
        E 7 b9 05 00
        E 7 b9 05 00
        E 7 b9 05 00
        E 7 b9 05 00
        E 7 b9 05 00
        E 7 b9 05 00
        E 7 b9 05 00
        E 7 b9 05 00
        E 7 b9 05 00
        E 7 b9 05 01
        E 7 b9 05 01
        E 7 b9 05 02
        E 7 b9 05 02
        E 7 b9 05 03
        E 7 b9 05 03
        E 7 b9 05 04
        E 7 b9 05 05
        E 7 b9 05 06
        E 7 b9 05 07
        E 7 b9 05 08
        E 7 b9 05 09
        E 7 b9 05 0a
        E 7 b9 05 0b
        E 7 b9 05 0c
        E 7 b9 05 0e
        E 7 b9 05 0f
        E 7 b9 05 10
        E 7 b9 05 12
        E 7 b9 05 13
        E 7 b9 05 15
        E 7 b9 05 16
        E 7 b9 05 18
        E 7 b9 05 19
        E 7 b9 05 1b
        E 7 b9 05 1c
        E 7 b9 05 1e
        E 7 b9 05 20
        E 14 b9 05 2c
        E 14 b9 05 2e
        E 14 b9 05 31
        E 14 b9 05 33
        E 14 b9 05 35
        E 14 b9 05 37
        E 14 b9 05 39
        E 14 b9 05 3b
        E 14 b9 05 3d
        E 14 b9 05 3f
        E 14 b9 05 41
        E 14 b9 05 43
        E 14 b9 05 45
        E 14 b9 05 47
        E 14 b9 05 48
        E 14 b9 05 4a
        E 14 b9 05 4c
        E 14 b9 05 4d
        E 14 b9 05 4f
        E 14 b9 05 50
        E 14 b9 05 51
        E 14 b9 05 52
        E 14 b9 05 54
        E 14 b9 05 54
        E 14 b9 05 55
        E 14 b9 05 56
        E 14 b9 05 56
        E 14 b9 05 57
        E 14 b9 05 58
        E 14 b9 05 58
        E 14 b9 05 58
        E 14 b9 05 58
        E 14 b9 05 58
        E 14 b9 05 58
        E 14 b9 05 58
        E 14 b9 05 58
        E 14 b9 05 58
        E 14 b9 05 57
        E 14 b9 05 56
        E 14 b9 05 56
        E 14 b9 05 55
        E 14 b9 05 54
        E 14 b9 05 53
        E 14 b9 05 51
        E 14 b9 05 51
        E 14 b9 05 4f
        E 14 b9 05 4e
        E 14 b9 05 4d
        E 14 b9 05 4b
        E 14 b9 05 49
        E 14 b9 05 48
        E 14 b9 05 46
        E 14 b9 05 44
        E 14 b9 05 42
        E 14 b9 05 40
        E 14 b9 05 3e
        E 14 b9 05 3c
        E 14 b9 05 3a
        E 14 b9 05 38
        E 14 b9 05 36
        E 14 b9 05 33
        E 14 b9 05 31
        E 14 b9 05 2f
        E 14 b9 05 2d
        E 14 b9 05 2b
        E 14 b9 05 29
        E 14 b9 05 27
        E 14 b9 05 25
        E 14 b9 05 22
        E 14 b9 05 20
        E 14 b9 05 1e
        E 14 b9 05 1c
        E 14 b9 05 1a
        E 14 b9 05 18
        E 14 b9 05 16
        E 14 b9 05 14
        E 14 b9 05 12
        E 14 b9 05 10
        E 14 b9 05 0f
        E 14 b9 05 0d
        E 14 b9 05 0b
        E 14 b9 05 0a
        E 14 b9 05 09
        E 14 b9 05 07
        E 14 b9 05 07
        E 14 b9 05 05
        E 14 b9 05 04
        E 14 b9 05 03
        E 14 b9 05 02
        E 14 b9 05 02
        E 14 b9 05 01
        E 14 b9 05 00
        E 14 b9 05 00
        E 14 b9 05 00
        E 14 b9 05 00
        E 14 b9 05 00
        E 14 b9 05 00
        E 14 b9 05 00
        E 14 b9 05 00
        E 14 b9 05 00
        E 14 b9 05 01
        E 14 b9 05 02
        E 14 b9 05 02
        E 14 b9 05 03
        E 14 b9 05 04
        E 14 b9 05 04
        E 14 b9 05 06
        E 14 b9 05 07
        E 14 b9 05 08
        E 14 b9 05 09
        E 14 b9 05 0b
        E 14 b9 05 0c
        E 14 b9 05 0e
        E 14 b9 05 10
        E 14 b9 05 11
        E 14 b9 05 13
        E 14 b9 05 15
        E 14 b9 05 17
        E 14 b9 05 19
        E 14 b9 05 1b
        E 14 b9 05 1d
        E 14 b9 05 1f
        E 14 b9 05 21
        E 14 b9 05 23
        E 14 b9 05 25
        E 14 b9 05 27
        E 14 b9 05 2a
        E 14 b9 05 2c
        E 12 b9 05 33
        E 12 b9 05 35
        E 12 b9 05 37
        E 12 b9 05 3a
        E 12 b9 05 3c
        E 12 b9 05 3f
        E 12 b9 05 41
        E 12 b9 05 44
        E 12 b9 05 46
        E 12 b9 05 48
        E 12 b9 05 4b
        E 12 b9 05 4c
        E 12 b9 05 4f
        E 12 b9 05 51
        E 12 b9 05 53
        E 12 b9 05 54
        E 12 b9 05 57
        E 12 b9 05 58
        E 12 b9 05 5a
        E 12 b9 05 5b
        E 12 b9 05 5d
        E 12 b9 05 5e
        E 12 b9 05 5f
        E 12 b9 05 60
        E 12 b9 05 61
        E 12 b9 05 62
        E 12 b9 05 63
        E 12 b9 05 63
        E 12 b9 05 64
        E 12 b9 05 64
        E 12 b9 05 65
        E 12 b9 05 65
        E 12 b9 05 65
        E 12 b9 05 65
        E 12 b9 05 65
        E 12 b9 05 64
        E 12 b9 05 64
        E 12 b9 05 63
        E 12 b9 05 63
        E 12 b9 05 62
        E 12 b9 05 61
        E 12 b9 05 5f
        E 12 b9 05 5f
        E 12 b9 05 5d
        E 12 b9 05 5c
        E 12 b9 05 5b
        E 12 b9 05 59
        E 12 b9 05 57
        E 12 b9 05 56
        E 12 b9 05 54
        E 12 b9 05 52
        E 12 b9 05 50
        E 12 b9 05 4e
        E 12 b9 05 4c
        E 12 b9 05 49
        E 12 b9 05 47
        E 12 b9 05 45
        E 12 b9 05 43
        E 12 b9 05 40
        E 12 b9 05 3e
        E 12 b9 05 3b
        E 12 b9 05 38
        E 12 b9 05 36
        E 12 b9 05 33
        E 12 b9 05 31
        E 12 b9 05 2f
        E 12 b9 05 2c
        E 12 b9 05 2a
        E 12 b9 05 27
        E 12 b9 05 24
        E 12 b9 05 22
        E 12 b9 05 1f
        E 12 b9 05 1e
        E 12 b9 05 1b
        E 12 b9 05 19
        E 12 b9 05 17
        E 12 b9 05 15
        E 12 b9 05 13
        E 12 b9 05 11
        E 12 b9 05 0f
        E 12 b9 05 0d
        E 12 b9 05 0b
        E 12 b9 05 0a
        E 12 b9 05 08
        E 12 b9 05 07
        E 12 b9 05 06
        E 12 b9 05 05
        E 12 b9 05 03
        E 12 b9 05 03
        E 12 b9 05 02
        E 12 b9 05 01
        E 12 b9 05 00
        E 12 b9 05 00
        E 12 b9 05 00
        E 12 b9 05 00
        E 12 b9 05 00
        E 12 b9 05 00
        E 12 b9 05 00
        E 12 b9 05 00
        E 12 b9 05 00
        E 12 b9 05 01
        E 12 b9 05 02
        E 12 b9 05 03
        E 12 b9 05 03
        E 12 b9 05 04
        E 12 b9 05 05
        E 12 b9 05 07
        E 12 b9 05 07
        E 12 b9 05 09
        E 12 b9 05 0b
        E 12 b9 05 0c
        E 12 b9 05 0e
        E 12 b9 05 10
        E 12 b9 05 12
        E 12 b9 05 14
        E 12 b9 05 16
        E 12 b9 05 18
        E 12 b9 05 1a
        E 12 b9 05 1c
        E 12 b9 05 1f
        E 12 b9 05 21
        E 12 b9 05 24
        E 12 b9 05 26
        E 12 b9 05 28
        E 12 b9 05 2b
        E 12 b9 05 2d
        E 12 b9 05 2f
        E 12 b9 05 33
        E 14 b9 05 06
        E 14 b9 05 06
        E 14 b9 05 07
        E 14 b9 05 07
        E 14 b9 05 07
        E 14 b9 05 07
        E 14 b9 05 08
        E 14 b9 05 08
        E 14 b9 05 08
        E 14 b9 05 09
        E 14 b9 05 09
        E 14 b9 05 09
        E 14 b9 05 09
        E 14 b9 05 0a
        E 14 b9 05 0a
        E 14 b9 05 0a
        E 14 b9 05 0a
        E 14 b9 05 0b
        E 14 b9 05 0b
        E 14 b9 05 0b
        E 14 b9 05 0b
        E 14 b9 05 0b
        E 14 b9 05 0c
        E 14 b9 05 0c
        E 14 b9 05 0c
        E 14 b9 05 0c
        E 14 b9 05 0c
        E 14 b9 05 0c
        E 14 b9 05 0c
        E 14 b9 05 0c
        E 14 b9 05 0c
        E 14 b9 05 0c
        E 14 b9 05 0c
        E 14 b9 05 0c
        E 14 b9 05 0c
        E 14 b9 05 0c
        E 14 b9 05 0c
        E 14 b9 05 0c
        E 14 b9 05 0c
        E 14 b9 05 0c
        E 14 b9 05 0c
        E 14 b9 05 0c
        E 14 b9 05 0b
        E 14 b9 05 0b
        E 14 b9 05 0b
        E 14 b9 05 0b
        E 14 b9 05 0b
        E 14 b9 05 0b
        E 14 b9 05 0a
        E 14 b9 05 0a
        E 14 b9 05 0a
        E 14 b9 05 0a
        E 14 b9 05 09
        E 14 b9 05 09
        E 14 b9 05 09
        E 14 b9 05 08
        E 14 b9 05 08
        E 14 b9 05 08
        E 14 b9 05 08
        E 14 b9 05 07
        E 14 b9 05 07
        E 14 b9 05 07
        E 14 b9 05 06
        E 14 b9 05 06
        E 14 b9 05 06
        E 14 b9 05 05
        E 14 b9 05 05
        E 14 b9 05 05
        E 14 b9 05 04
        E 14 b9 05 04
        E 14 b9 05 04
        E 14 b9 05 04
        E 14 b9 05 03
        E 14 b9 05 03
        E 14 b9 05 03
        E 14 b9 05 02
        E 14 b9 05 02
        E 14 b9 05 02
        E 14 b9 05 02
        E 14 b9 05 01
        E 14 b9 05 01
        E 14 b9 05 01
        E 14 b9 05 01
        E 14 b9 05 01
        E 14 b9 05 01
        E 14 b9 05 00
        E 14 b9 05 00
        E 14 b9 05 00
        E 14 b9 05 00
        E 14 b9 05 00
        E 14 b9 05 00
        E 14 b9 05 00
        E 14 b9 05 00
        E 14 b9 05 00
        E 14 b9 05 00
        E 14 b9 05 00
        E 14 b9 05 00
        E 14 b9 05 00
        E 14 b9 05 00
        E 14 b9 05 00
        E 14 b9 05 00
        E 14 b9 05 00
        E 14 b9 05 00
        E 14 b9 05 00
        E 14 b9 05 00
        E 14 b9 05 00
        E 14 b9 05 00
        E 14 b9 05 01
        E 14 b9 05 01
        E 14 b9 05 01
        E 14 b9 05 01
        E 14 b9 05 01
        E 14 b9 05 02
        E 14 b9 05 02
        E 14 b9 05 02
        E 14 b9 05 02
        E 14 b9 05 03
        E 14 b9 05 03
        E 14 b9 05 03
        E 14 b9 05 03
        E 14 b9 05 04
        E 14 b9 05 04
        E 14 b9 05 04
        E 14 b9 05 05
        E 14 b9 05 05
        E 14 b9 05 05
        E 14 b9 05 06
        E 14 b9 05 06
        E 12 b9 05 19
        E 12 b9 05 1a
        E 12 b9 05 1c
        E 12 b9 05 1d
        E 12 b9 05 1e
        E 12 b9 05 1f
        E 12 b9 05 20
        E 12 b9 05 22
        E 12 b9 05 23
        E 12 b9 05 24
        E 12 b9 05 25
        E 12 b9 05 26
        E 12 b9 05 27
        E 12 b9 05 28
        E 12 b9 05 29
        E 12 b9 05 2a
        E 12 b9 05 2b
        E 12 b9 05 2c
        E 12 b9 05 2d
        E 12 b9 05 2e
        E 12 b9 05 2e
        E 12 b9 05 2f
        E 12 b9 05 30
        E 12 b9 05 30
        E 12 b9 05 30
        E 12 b9 05 31
        E 12 b9 05 31
        E 12 b9 05 32
        E 12 b9 05 32
        E 12 b9 05 32
        E 12 b9 05 32
        E 12 b9 05 32
        E 12 b9 05 32
        E 12 b9 05 32
        E 12 b9 05 32
        E 12 b9 05 32
        E 12 b9 05 32
        E 12 b9 05 32
        E 12 b9 05 31
        E 12 b9 05 31
        E 12 b9 05 30
        E 12 b9 05 30
        E 12 b9 05 2f
        E 12 b9 05 2e
        E 12 b9 05 2e
        E 12 b9 05 2d
        E 12 b9 05 2c
        E 12 b9 05 2c
        E 12 b9 05 2b
        E 12 b9 05 2a
        E 12 b9 05 29
        E 12 b9 05 28
        E 12 b9 05 27
        E 12 b9 05 26
        E 12 b9 05 24
        E 12 b9 05 23
        E 12 b9 05 22
        E 12 b9 05 21
        E 12 b9 05 20
        E 12 b9 05 1f
        E 12 b9 05 1d
        E 12 b9 05 1c
        E 12 b9 05 1b
        E 12 b9 05 1a
        E 12 b9 05 18
        E 12 b9 05 17
        E 12 b9 05 16
        E 12 b9 05 15
        E 12 b9 05 13
        E 12 b9 05 12
        E 12 b9 05 11
        E 12 b9 05 10
        E 12 b9 05 0f
        E 12 b9 05 0e
        E 12 b9 05 0c
        E 12 b9 05 0b
        E 12 b9 05 0a
        E 12 b9 05 09
        E 12 b9 05 08
        E 12 b9 05 07
        E 12 b9 05 06
        E 12 b9 05 06
        E 12 b9 05 05
        E 12 b9 05 04
        E 12 b9 05 04
        E 12 b9 05 03
        E 12 b9 05 02
        E 12 b9 05 02
        E 12 b9 05 01
        E 12 b9 05 01
        E 12 b9 05 00
        E 12 b9 05 00
        E 12 b9 05 00
        E 12 b9 05 00
        E 12 b9 05 00
        E 12 b9 05 00
        E 12 b9 05 00
        E 12 b9 05 00
        E 12 b9 05 00
        E 12 b9 05 00
        E 12 b9 05 00
        E 12 b9 05 01
        E 12 b9 05 01
        E 12 b9 05 02
        E 12 b9 05 02
        E 12 b9 05 02
        E 12 b9 05 03
        E 12 b9 05 04
        E 12 b9 05 04
        E 12 b9 05 05
        E 12 b9 05 06
        E 12 b9 05 07
        E 12 b9 05 08
        E 12 b9 05 09
        E 12 b9 05 0a
        E 12 b9 05 0b
        E 12 b9 05 0c
        E 12 b9 05 0d
        E 12 b9 05 0e
        E 12 b9 05 0f
        E 12 b9 05 10
        E 12 b9 05 12
        E 12 b9 05 13
        E 12 b9 05 14
        E 12 b9 05 15
        E 12 b9 05 16
        E 12 b9 05 18
        E 12 b9 05 19
        E 7 b9 05 2c
        E 7 b9 05 2e
        E 7 b9 05 31
        E 7 b9 05 33
        E 7 b9 05 35
        E 7 b9 05 37
        E 7 b9 05 39
        E 7 b9 05 3b
        E 7 b9 05 3d
        E 7 b9 05 3f
        E 7 b9 05 41
        E 7 b9 05 43
        E 7 b9 05 45
        E 7 b9 05 47
        E 7 b9 05 48
        E 7 b9 05 4a
        E 7 b9 05 4c
        E 7 b9 05 4d
        E 7 b9 05 4f
        E 7 b9 05 50
        E 7 b9 05 51
        E 7 b9 05 52
        E 7 b9 05 54
        E 7 b9 05 54
        E 7 b9 05 55
        E 7 b9 05 56
        E 7 b9 05 56
        E 7 b9 05 57
        E 7 b9 05 58
        E 7 b9 05 58
        E 7 b9 05 58
        E 7 b9 05 58
        E 7 b9 05 58
        E 7 b9 05 58
        E 7 b9 05 58
        E 7 b9 05 58
        E 7 b9 05 58
        E 7 b9 05 57
        E 7 b9 05 56
        E 7 b9 05 56
        E 7 b9 05 55
        E 7 b9 05 54
        E 7 b9 05 53
        E 7 b9 05 51
        E 7 b9 05 51
        E 7 b9 05 4f
        E 7 b9 05 4e
        E 7 b9 05 4d
        E 7 b9 05 4b
        E 7 b9 05 49
        E 7 b9 05 48
        E 7 b9 05 46
        E 7 b9 05 44
        E 7 b9 05 42
        E 7 b9 05 40
        E 7 b9 05 3e
        E 7 b9 05 3c
        E 7 b9 05 3a
        E 7 b9 05 38
        E 7 b9 05 36
        E 7 b9 05 33
        E 7 b9 05 31
        E 7 b9 05 2f
        E 7 b9 05 2d
        E 7 b9 05 2b
        E 7 b9 05 29
        E 7 b9 05 27
        E 7 b9 05 25
        E 7 b9 05 22
        E 7 b9 05 20
        E 7 b9 05 1e
        E 7 b9 05 1c
        E 7 b9 05 1a
        E 7 b9 05 18
        E 7 b9 05 16
        E 7 b9 05 14
        E 7 b9 05 12
        E 7 b9 05 10
        E 7 b9 05 0f
        E 7 b9 05 0d
        E 7 b9 05 0b
        E 7 b9 05 0a
        E 7 b9 05 09
        E 7 b9 05 07
        E 7 b9 05 07
        E 7 b9 05 05
        E 7 b9 05 04
        E 7 b9 05 03
        E 7 b9 05 02
        E 7 b9 05 02
        E 7 b9 05 01
        E 7 b9 05 00
        E 7 b9 05 00
        E 7 b9 05 00
        E 7 b9 05 00
        E 7 b9 05 00
        E 7 b9 05 00
        E 7 b9 05 00
        E 7 b9 05 00
        E 7 b9 05 00
        E 7 b9 05 01
        E 7 b9 05 02
        E 7 b9 05 02
        E 7 b9 05 03
        E 7 b9 05 04
        E 7 b9 05 04
        E 7 b9 05 06
        E 7 b9 05 07
        E 7 b9 05 08
        E 7 b9 05 09
        E 7 b9 05 0b
        E 7 b9 05 0c
        E 7 b9 05 0e
        E 7 b9 05 10
        E 7 b9 05 11
        E 7 b9 05 13
        E 7 b9 05 15
        E 7 b9 05 17
        E 7 b9 05 19
        E 7 b9 05 1b
        E 7 b9 05 1d
        E 7 b9 05 1f
        E 7 b9 05 21
        E 7 b9 05 23
        E 7 b9 05 25
        E 7 b9 05 27
        E 7 b9 05 2a
        E 7 b9 05 2c
        E 7 b9 05 20
        E 7 b9 05 21
        E 7 b9 05 23
        E 7 b9 05 24
        E 7 b9 05 26
        E 7 b9 05 27
        E 7 b9 05 29
        E 7 b9 05 2a
        E 7 b9 05 2c
        E 7 b9 05 2d
        E 7 b9 05 2f
        E 7 b9 05 30
        E 7 b9 05 31
        E 7 b9 05 33
        E 7 b9 05 34
        E 7 b9 05 35
        E 7 b9 05 36
        E 7 b9 05 37
        E 7 b9 05 38
        E 7 b9 05 39
        E 7 b9 05 3a
        E 7 b9 05 3b
        E 7 b9 05 3c
        E 7 b9 05 3c
        E 7 b9 05 3d
        E 7 b9 05 3d
        E 7 b9 05 3e
        E 7 b9 05 3e
        E 7 b9 05 3f
        E 7 b9 05 3f
        E 7 b9 05 3f
        E 7 b9 05 3f
        E 7 b9 05 3f
        E 7 b9 05 3f
        E 7 b9 05 3f
        E 7 b9 05 3f
        E 7 b9 05 3f
        E 7 b9 05 3e
        E 7 b9 05 3e
        E 7 b9 05 3d
        E 7 b9 05 3d
        E 7 b9 05 3c
        E 7 b9 05 3b
        E 7 b9 05 3a
        E 7 b9 05 3a
        E 7 b9 05 39
        E 7 b9 05 38
        E 7 b9 05 37
        E 7 b9 05 36
        E 7 b9 05 34
        E 7 b9 05 33
        E 7 b9 05 32
        E 7 b9 05 31
        E 7 b9 05 2f
        E 7 b9 05 2e
        E 7 b9 05 2c
        E 7 b9 05 2b
        E 7 b9 05 2a
        E 7 b9 05 28
        E 7 b9 05 27
        E 7 b9 05 25
        E 7 b9 05 23
        E 7 b9 05 22
        E 7 b9 05 20
        E 7 b9 05 1f
        E 7 b9 05 1d
        E 7 b9 05 1c
        E 7 b9 05 1a
        E 7 b9 05 18
        E 7 b9 05 17
        E 7 b9 05 15
        E 7 b9 05 14
        E 7 b9 05 13
        E 7 b9 05 11
        E 7 b9 05 10
        E 7 b9 05 0e
        E 7 b9 05 0d
        E 7 b9 05 0c
        E 7 b9 05 0b
        E 7 b9 05 09
        E 7 b9 05 08
        E 7 b9 05 07
        E 7 b9 05 06
        E 7 b9 05 05
        E 7 b9 05 05
        E 7 b9 05 04
        E 7 b9 05 03
        E 7 b9 05 02
        E 7 b9 05 02
        E 7 b9 05 01
        E 7 b9 05 01
        E 7 b9 05 00
        E 7 b9 05 00
        E 7 b9 05 00
        E 7 b9 05 00
        E 7 b9 05 00
        E 7 b9 05 00
        E 7 b9 05 00
        E 7 b9 05 00
        E 7 b9 05 00
        E 7 b9 05 01
        E 7 b9 05 01
        E 7 b9 05 02
        E 7 b9 05 02
        E 7 b9 05 03
        E 7 b9 05 03
        E 7 b9 05 04
        E 7 b9 05 05
        E 7 b9 05 06
        E 7 b9 05 07
        E 7 b9 05 08
        E 7 b9 05 09
        E 7 b9 05 0a
        E 7 b9 05 0b
        E 7 b9 05 0c
        E 7 b9 05 0e
        E 7 b9 05 0f
        E 7 b9 05 10
        E 7 b9 05 12
        E 7 b9 05 13
        E 7 b9 05 15
        E 7 b9 05 16
        E 7 b9 05 18
        E 7 b9 05 19
        E 7 b9 05 1b
        E 7 b9 05 1c
        E 7 b9 05 1e
        E 7 b9 05 20
        E 9 b9 05 20
        E 9 b9 05 21
        E 9 b9 05 23
        E 9 b9 05 24
        E 9 b9 05 26
        E 9 b9 05 27
        E 9 b9 05 29
        E 9 b9 05 2a
        E 9 b9 05 2c
        E 9 b9 05 2d
        E 9 b9 05 2f
        E 9 b9 05 30
        E 9 b9 05 31
        E 9 b9 05 33
        E 9 b9 05 34
        E 9 b9 05 35
        E 9 b9 05 36
        E 9 b9 05 37
        E 9 b9 05 38
        E 9 b9 05 39
        E 9 b9 05 3a
        E 9 b9 05 3b
        E 9 b9 05 3c
        E 9 b9 05 3c
        E 9 b9 05 3d
        E 9 b9 05 3d
        E 9 b9 05 3e
        E 9 b9 05 3e
        E 9 b9 05 3f
        E 9 b9 05 3f
        E 9 b9 05 3f
        E 9 b9 05 3f
        E 9 b9 05 3f
        E 9 b9 05 3f
        E 9 b9 05 3f
        E 9 b9 05 3f
        E 9 b9 05 3f
        E 9 b9 05 3e
        E 9 b9 05 3e
        E 9 b9 05 3d
        E 9 b9 05 3d
        E 9 b9 05 3c
        E 9 b9 05 3b
        E 9 b9 05 3a
        E 9 b9 05 3a
        E 9 b9 05 39
        E 9 b9 05 38
        E 9 b9 05 37
        E 9 b9 05 36
        E 9 b9 05 34
        E 9 b9 05 33
        E 9 b9 05 32
        E 9 b9 05 31
        E 9 b9 05 2f
        E 9 b9 05 2e
        E 9 b9 05 2c
        E 9 b9 05 2b
        E 9 b9 05 2a
        E 9 b9 05 28
        E 9 b9 05 27
        E 9 b9 05 25
        E 9 b9 05 23
        E 9 b9 05 22
        E 9 b9 05 20
        E 9 b9 05 1f
        E 9 b9 05 1d
        E 9 b9 05 1c
        E 9 b9 05 1a
        E 9 b9 05 18
        E 9 b9 05 17
        E 9 b9 05 15
        E 9 b9 05 14
        E 9 b9 05 13
        E 9 b9 05 11
        E 9 b9 05 10
        E 9 b9 05 0e
        E 9 b9 05 0d
        E 9 b9 05 0c
        E 9 b9 05 0b
        E 9 b9 05 09
        E 9 b9 05 08
        E 9 b9 05 07
        E 9 b9 05 06
        E 9 b9 05 05
        E 9 b9 05 05
        E 9 b9 05 04
        E 9 b9 05 03
        E 9 b9 05 02
        E 9 b9 05 02
        E 9 b9 05 01
        E 9 b9 05 01
        E 9 b9 05 00
        E 9 b9 05 00
        E 9 b9 05 00
        E 9 b9 05 00
        E 9 b9 05 00
        E 9 b9 05 00
        E 9 b9 05 00
        E 9 b9 05 00
        E 9 b9 05 00
        E 9 b9 05 01
        E 9 b9 05 01
        E 9 b9 05 02
        E 9 b9 05 02
        E 9 b9 05 03
        E 9 b9 05 03
        E 9 b9 05 04
        E 9 b9 05 05
        E 9 b9 05 06
        E 9 b9 05 07
        E 9 b9 05 08
        E 9 b9 05 09
        E 9 b9 05 0a
        E 9 b9 05 0b
        E 9 b9 05 0c
        E 9 b9 05 0e
        E 9 b9 05 0f
        E 9 b9 05 10
        E 9 b9 05 12
        E 9 b9 05 13
        E 9 b9 05 15
        E 9 b9 05 16
        E 9 b9 05 18
        E 9 b9 05 19
        E 9 b9 05 1b
        E 9 b9 05 1c
        E 9 b9 05 1e
        E 9 b9 05 20
        E 11 b9 05 40
        E 11 b9 05 43
        E 11 b9 05 46
        E 11 b9 05 49
        E 11 b9 05 4c
        E 11 b9 05 4f
        E 11 b9 05 52
        E 11 b9 05 55
        E 11 b9 05 58
        E 11 b9 05 5b
        E 11 b9 05 5e
        E 11 b9 05 60
        E 11 b9 05 63
        E 11 b9 05 66
        E 11 b9 05 68
        E 11 b9 05 6a
        E 11 b9 05 6d
        E 11 b9 05 6f
        E 11 b9 05 71
        E 11 b9 05 73
        E 11 b9 05 75
        E 11 b9 05 76
        E 11 b9 05 78
        E 11 b9 05 79
        E 11 b9 05 7a
        E 11 b9 05 7b
        E 11 b9 05 7c
        E 11 b9 05 7d
        E 11 b9 05 7e
        E 11 b9 05 7e
        E 11 b9 05 7f
        E 11 b9 05 7f
        E 11 b9 05 7f
        E 11 b9 05 7f
        E 11 b9 05 7f
        E 11 b9 05 7e
        E 11 b9 05 7e
        E 11 b9 05 7d
        E 11 b9 05 7c
        E 11 b9 05 7b
        E 11 b9 05 7a
        E 11 b9 05 78
        E 11 b9 05 77
        E 11 b9 05 75
        E 11 b9 05 74
        E 11 b9 05 72
        E 11 b9 05 70
        E 11 b9 05 6e
        E 11 b9 05 6c
        E 11 b9 05 69
        E 11 b9 05 67
        E 11 b9 05 64
        E 11 b9 05 62
        E 11 b9 05 5f
        E 11 b9 05 5c
        E 11 b9 05 59
        E 11 b9 05 57
        E 11 b9 05 54
        E 11 b9 05 51
        E 11 b9 05 4e
        E 11 b9 05 4a
        E 11 b9 05 47
        E 11 b9 05 44
        E 11 b9 05 41
        E 11 b9 05 3e
        E 11 b9 05 3b
        E 11 b9 05 38
        E 11 b9 05 35
        E 11 b9 05 31
        E 11 b9 05 2e
        E 11 b9 05 2b
        E 11 b9 05 28
        E 11 b9 05 26
        E 11 b9 05 23
        E 11 b9 05 20
        E 11 b9 05 1d
        E 11 b9 05 1b
        E 11 b9 05 18
        E 11 b9 05 16
        E 11 b9 05 13
        E 11 b9 05 11
        E 11 b9 05 0f
        E 11 b9 05 0d
        E 11 b9 05 0b
        E 11 b9 05 0a
        E 11 b9 05 08
        E 11 b9 05 07
        E 11 b9 05 05
        E 11 b9 05 04
        E 11 b9 05 03
        E 11 b9 05 02
        E 11 b9 05 01
        E 11 b9 05 01
        E 11 b9 05 00
        E 11 b9 05 00
        E 11 b9 05 00
        E 11 b9 05 00
        E 11 b9 05 00
        E 11 b9 05 01
        E 11 b9 05 01
        E 11 b9 05 02
        E 11 b9 05 03
        E 11 b9 05 04
        E 11 b9 05 05
        E 11 b9 05 06
        E 11 b9 05 07
        E 11 b9 05 09
        E 11 b9 05 0a
        E 11 b9 05 0c
        E 11 b9 05 0e
        E 11 b9 05 10
        E 11 b9 05 12
        E 11 b9 05 15
        E 11 b9 05 17
        E 11 b9 05 19
        E 11 b9 05 1c
        E 11 b9 05 1f
        E 11 b9 05 21
        E 11 b9 05 24
        E 11 b9 05 27
        E 11 b9 05 2a
        E 11 b9 05 2d
        E 11 b9 05 30
        E 11 b9 05 33
        E 11 b9 05 36
        E 11 b9 05 39
        E 11 b9 05 3c
        E 11 b9 05 40
        E 1 b9 05 39
        E 1 b9 05 3c
        E 1 b9 05 3f
        E 1 b9 05 41
        E 1 b9 05 44
        E 1 b9 05 47
        E 1 b9 05 49
        E 1 b9 05 4c
        E 1 b9 05 4f
        E 1 b9 05 51
        E 1 b9 05 54
        E 1 b9 05 56
        E 1 b9 05 59
        E 1 b9 05 5b
        E 1 b9 05 5d
        E 1 b9 05 5f
        E 1 b9 05 62
        E 1 b9 05 63
        E 1 b9 05 65
        E 1 b9 05 67
        E 1 b9 05 69
        E 1 b9 05 6a
        E 1 b9 05 6c
        E 1 b9 05 6c
        E 1 b9 05 6d
        E 1 b9 05 6e
        E 1 b9 05 6f
        E 1 b9 05 70
        E 1 b9 05 71
        E 1 b9 05 71
        E 1 b9 05 72
        E 1 b9 05 72
        E 1 b9 05 72
        E 1 b9 05 72
        E 1 b9 05 72
        E 1 b9 05 71
        E 1 b9 05 71
        E 1 b9 05 70
        E 1 b9 05 6f
        E 1 b9 05 6e
        E 1 b9 05 6d
        E 1 b9 05 6c
        E 1 b9 05 6b
        E 1 b9 05 69
        E 1 b9 05 68
        E 1 b9 05 66
        E 1 b9 05 64
        E 1 b9 05 63
        E 1 b9 05 61
        E 1 b9 05 5e
        E 1 b9 05 5c
        E 1 b9 05 5a
        E 1 b9 05 58
        E 1 b9 05 55
        E 1 b9 05 52
        E 1 b9 05 50
        E 1 b9 05 4e
        E 1 b9 05 4b
        E 1 b9 05 48
        E 1 b9 05 46
        E 1 b9 05 42
        E 1 b9 05 3f
        E 1 b9 05 3d
        E 1 b9 05 3a
        E 1 b9 05 37
        E 1 b9 05 35
        E 1 b9 05 32
        E 1 b9 05 2f
        E 1 b9 05 2c
        E 1 b9 05 29
        E 1 b9 05 26
        E 1 b9 05 24
        E 1 b9 05 22
        E 1 b9 05 1f
        E 1 b9 05 1c
        E 1 b9 05 1a
        E 1 b9 05 18
        E 1 b9 05 15
        E 1 b9 05 13
        E 1 b9 05 11
        E 1 b9 05 0f
        E 1 b9 05 0d
        E 1 b9 05 0b
        E 1 b9 05 09
        E 1 b9 05 09
        E 1 b9 05 07
        E 1 b9 05 06
        E 1 b9 05 04
        E 1 b9 05 03
        E 1 b9 05 02
        E 1 b9 05 01
        E 1 b9 05 00
        E 1 b9 05 00
        E 1 b9 05 00
        E 1 b9 05 00
        E 1 b9 05 00
        E 1 b9 05 00
        E 1 b9 05 00
        E 1 b9 05 00
        E 1 b9 05 00
        E 1 b9 05 01
        E 1 b9 05 02
        E 1 b9 05 03
        E 1 b9 05 04
        E 1 b9 05 05
        E 1 b9 05 06
        E 1 b9 05 08
        E 1 b9 05 09
        E 1 b9 05 0a
        E 1 b9 05 0c
        E 1 b9 05 0e
        E 1 b9 05 10
        E 1 b9 05 12
        E 1 b9 05 14
        E 1 b9 05 16
        E 1 b9 05 19
        E 1 b9 05 1b
        E 1 b9 05 1d
        E 1 b9 05 20
        E 1 b9 05 23
        E 1 b9 05 25
        E 1 b9 05 28
        E 1 b9 05 2b
        E 1 b9 05 2d
        E 1 b9 05 30
        E 1 b9 05 33
        E 1 b9 05 36
        E 1 b9 05 39
        E 5 b9 05 40
        E 5 b9 05 43
        E 5 b9 05 46
        E 5 b9 05 49
        E 5 b9 05 4c
        E 5 b9 05 4f
        E 5 b9 05 52
        E 5 b9 05 55
        E 5 b9 05 58
        E 5 b9 05 5b
        E 5 b9 05 5e
        E 5 b9 05 60
        E 5 b9 05 63
        E 5 b9 05 66
        E 5 b9 05 68
        E 5 b9 05 6a
        E 5 b9 05 6d
        E 5 b9 05 6f
        E 5 b9 05 71
        E 5 b9 05 73
        E 5 b9 05 75
        E 5 b9 05 76
        E 5 b9 05 78
        E 5 b9 05 79
        E 5 b9 05 7a
        E 5 b9 05 7b
        E 5 b9 05 7c
        E 5 b9 05 7d
        E 5 b9 05 7e
        E 5 b9 05 7e
        E 5 b9 05 7f
        E 5 b9 05 7f
        E 5 b9 05 7f
        E 5 b9 05 7f
        E 5 b9 05 7f
        E 5 b9 05 7e
        E 5 b9 05 7e
        E 5 b9 05 7d
        E 5 b9 05 7c
        E 5 b9 05 7b
        E 5 b9 05 7a
        E 5 b9 05 78
        E 5 b9 05 77
        E 5 b9 05 75
        E 5 b9 05 74
        E 5 b9 05 72
        E 5 b9 05 70
        E 5 b9 05 6e
        E 5 b9 05 6c
        E 5 b9 05 69
        E 5 b9 05 67
        E 5 b9 05 64
        E 5 b9 05 62
        E 5 b9 05 5f
        E 5 b9 05 5c
        E 5 b9 05 59
        E 5 b9 05 57
        E 5 b9 05 54
        E 5 b9 05 51
        E 5 b9 05 4e
        E 5 b9 05 4a
        E 5 b9 05 47
        E 5 b9 05 44
        E 5 b9 05 41
        E 5 b9 05 3e
        E 5 b9 05 3b
        E 5 b9 05 38
        E 5 b9 05 35
        E 5 b9 05 31
        E 5 b9 05 2e
        E 5 b9 05 2b
        E 5 b9 05 28
        E 5 b9 05 26
        E 5 b9 05 23
        E 5 b9 05 20
        E 5 b9 05 1d
        E 5 b9 05 1b
        E 5 b9 05 18
        E 5 b9 05 16
        E 5 b9 05 13
        E 5 b9 05 11
        E 5 b9 05 0f
        E 5 b9 05 0d
        E 5 b9 05 0b
        E 5 b9 05 0a
        E 5 b9 05 08
        E 5 b9 05 07
        E 5 b9 05 05
        E 5 b9 05 04
        E 5 b9 05 03
        E 5 b9 05 02
        E 5 b9 05 01
        E 5 b9 05 01
        E 5 b9 05 00
        E 5 b9 05 00
        E 5 b9 05 00
        E 5 b9 05 00
        E 5 b9 05 00
        E 5 b9 05 01
        E 5 b9 05 01
        E 5 b9 05 02
        E 5 b9 05 03
        E 5 b9 05 04
        E 5 b9 05 05
        E 5 b9 05 06
        E 5 b9 05 07
        E 5 b9 05 09
        E 5 b9 05 0a
        E 5 b9 05 0c
        E 5 b9 05 0e
        E 5 b9 05 10
        E 5 b9 05 12
        E 5 b9 05 15
        E 5 b9 05 17
        E 5 b9 05 19
        E 5 b9 05 1c
        E 5 b9 05 1f
        E 5 b9 05 21
        E 5 b9 05 24
        E 5 b9 05 27
        E 5 b9 05 2a
        E 5 b9 05 2d
        E 5 b9 05 30
        E 5 b9 05 33
        E 5 b9 05 36
        E 5 b9 05 39
        E 5 b9 05 3c
        E 5 b9 05 40
        E 9 b9 05 39
        E 9 b9 05 3c
        E 9 b9 05 3f
        E 9 b9 05 41
        E 9 b9 05 44
        E 9 b9 05 47
        E 9 b9 05 49
        E 9 b9 05 4c
        E 9 b9 05 4f
        E 9 b9 05 51
        E 9 b9 05 54
        E 9 b9 05 56
        E 9 b9 05 59
        E 9 b9 05 5b
        E 9 b9 05 5d
        E 9 b9 05 5f
        E 9 b9 05 62
        E 9 b9 05 63
        E 9 b9 05 65
        E 9 b9 05 67
        E 9 b9 05 69
        E 9 b9 05 6a
        E 9 b9 05 6c
        E 9 b9 05 6c
        E 9 b9 05 6d
        E 9 b9 05 6e
        E 9 b9 05 6f
        E 9 b9 05 70
        E 9 b9 05 71
        E 9 b9 05 71
        E 9 b9 05 72
        E 9 b9 05 72
        E 9 b9 05 72
        E 9 b9 05 72
        E 9 b9 05 72
        E 9 b9 05 71
        E 9 b9 05 71
        E 9 b9 05 70
        E 9 b9 05 6f
        E 9 b9 05 6e
        E 9 b9 05 6d
        E 9 b9 05 6c
        E 9 b9 05 6b
        E 9 b9 05 69
        E 9 b9 05 68
        E 9 b9 05 66
        E 9 b9 05 64
        E 9 b9 05 63
        E 9 b9 05 61
        E 9 b9 05 5e
        E 9 b9 05 5c
        E 9 b9 05 5a
        E 9 b9 05 58
        E 9 b9 05 55
        E 9 b9 05 52
        E 9 b9 05 50
        E 9 b9 05 4e
        E 9 b9 05 4b
        E 9 b9 05 48
        E 9 b9 05 46
        E 9 b9 05 42
        E 9 b9 05 3f
        E 9 b9 05 3d
        E 9 b9 05 3a
        E 9 b9 05 37
        E 9 b9 05 35
        E 9 b9 05 32
        E 9 b9 05 2f
        E 9 b9 05 2c
        E 9 b9 05 29
        E 9 b9 05 26
        E 9 b9 05 24
        E 9 b9 05 22
        E 9 b9 05 1f
        E 9 b9 05 1c
        E 9 b9 05 1a
        E 9 b9 05 18
        E 9 b9 05 15
        E 9 b9 05 13
        E 9 b9 05 11
        E 9 b9 05 0f
        E 9 b9 05 0d
        E 9 b9 05 0b
        E 9 b9 05 09
        E 9 b9 05 09
        E 9 b9 05 07
        E 9 b9 05 06
        E 9 b9 05 04
        E 9 b9 05 03
        E 9 b9 05 02
        E 9 b9 05 01
        E 9 b9 05 00
        E 9 b9 05 00
        E 9 b9 05 00
        E 9 b9 05 00
        E 9 b9 05 00
        E 9 b9 05 00
        E 9 b9 05 00
        E 9 b9 05 00
        E 9 b9 05 00
        E 9 b9 05 01
        E 9 b9 05 02
        E 9 b9 05 03
        E 9 b9 05 04
        E 9 b9 05 05
        E 9 b9 05 06
        E 9 b9 05 08
        E 9 b9 05 09
        E 9 b9 05 0a
        E 9 b9 05 0c
        E 9 b9 05 0e
        E 9 b9 05 10
        E 9 b9 05 12
        E 9 b9 05 14
        E 9 b9 05 16
        E 9 b9 05 19
        E 9 b9 05 1b
        E 9 b9 05 1d
        E 9 b9 05 20
        E 9 b9 05 23
        E 9 b9 05 25
        E 9 b9 05 28
        E 9 b9 05 2b
        E 9 b9 05 2d
        E 9 b9 05 30
        E 9 b9 05 33
        E 9 b9 05 36
        E 9 b9 05 39
        E 7 b9 05 20
        E 7 b9 05 21
        E 7 b9 05 23
        E 7 b9 05 24
        E 7 b9 05 26
        E 7 b9 05 27
        E 7 b9 05 29
        E 7 b9 05 2a
        E 7 b9 05 2c
        E 7 b9 05 2d
        E 7 b9 05 2f
        E 7 b9 05 30
        E 7 b9 05 31
        E 7 b9 05 33
        E 7 b9 05 34
        E 7 b9 05 35
        E 7 b9 05 36
        E 7 b9 05 37
        E 7 b9 05 38
        E 7 b9 05 39
        E 7 b9 05 3a
        E 7 b9 05 3b
        E 7 b9 05 3c
        E 7 b9 05 3c
        E 7 b9 05 3d
        E 7 b9 05 3d
        E 7 b9 05 3e
        E 7 b9 05 3e
        E 7 b9 05 3f
        E 7 b9 05 3f
        E 7 b9 05 3f
        E 7 b9 05 3f
        E 7 b9 05 3f
        E 7 b9 05 3f
        E 7 b9 05 3f
        E 7 b9 05 3f
        E 7 b9 05 3f
        E 7 b9 05 3e
        E 7 b9 05 3e
        E 7 b9 05 3d
        E 7 b9 05 3d
        E 7 b9 05 3c
        E 7 b9 05 3b
        E 7 b9 05 3a
        E 7 b9 05 3a
        E 7 b9 05 39
        E 7 b9 05 38
        E 7 b9 05 37
        E 7 b9 05 36
        E 7 b9 05 34
        E 7 b9 05 33
        E 7 b9 05 32
        E 7 b9 05 31
        E 7 b9 05 2f
        E 7 b9 05 2e
        E 7 b9 05 2c
        E 7 b9 05 2b
        E 7 b9 05 2a
        E 7 b9 05 28
        E 7 b9 05 27
        E 7 b9 05 25
        E 7 b9 05 23
        E 7 b9 05 22
        E 7 b9 05 20
        E 7 b9 05 1f
        E 7 b9 05 1d
        E 7 b9 05 1c
        E 7 b9 05 1a
        E 7 b9 05 18
        E 7 b9 05 17
        E 7 b9 05 15
        E 7 b9 05 14
        E 7 b9 05 13
        E 7 b9 05 11
        E 7 b9 05 10
        E 7 b9 05 0e
        E 7 b9 05 0d
        E 7 b9 05 0c
        E 7 b9 05 0b
        E 7 b9 05 09
        E 7 b9 05 08
        E 7 b9 05 07
        E 7 b9 05 06
        E 7 b9 05 05
        E 7 b9 05 05
        E 7 b9 05 04
        E 7 b9 05 03
        E 7 b9 05 02
        E 7 b9 05 02
        E 7 b9 05 01
        E 7 b9 05 01
        E 7 b9 05 00
        E 7 b9 05 00
        E 7 b9 05 00
        E 7 b9 05 00
        E 7 b9 05 00
        E 7 b9 05 00
        E 7 b9 05 00
        E 7 b9 05 00
        E 7 b9 05 00
        E 7 b9 05 01
        E 7 b9 05 01
        E 7 b9 05 02
        E 7 b9 05 02
        E 7 b9 05 03
        E 7 b9 05 03
        E 7 b9 05 04
        E 7 b9 05 05
        E 7 b9 05 06
        E 7 b9 05 07
        E 7 b9 05 08
        E 7 b9 05 09
        E 7 b9 05 0a
        E 7 b9 05 0b
        E 7 b9 05 0c
        E 7 b9 05 0e
        E 7 b9 05 0f
        E 7 b9 05 10
        E 7 b9 05 12
        E 7 b9 05 13
        E 7 b9 05 15
        E 7 b9 05 16
        E 7 b9 05 18
        E 7 b9 05 19
        E 7 b9 05 1b
        E 7 b9 05 1c
        E 7 b9 05 1e
        E 7 b9 05 20
        E 7 b9 05 20
        E 7 b9 05 21
        E 7 b9 05 23
        E 7 b9 05 24
        E 7 b9 05 26
        E 7 b9 05 27
        E 7 b9 05 29
        E 7 b9 05 2a
        E 7 b9 05 2c
        E 7 b9 05 2d
        E 7 b9 05 2f
        E 7 b9 05 30
        E 7 b9 05 31
        E 7 b9 05 33
        E 7 b9 05 34
        E 7 b9 05 35
        E 7 b9 05 36
        E 7 b9 05 37
        E 7 b9 05 38
        E 7 b9 05 39
        E 7 b9 05 3a
        E 7 b9 05 3b
        E 7 b9 05 3c
        E 7 b9 05 3c
        E 7 b9 05 3d
        E 7 b9 05 3d
        E 7 b9 05 3e
        E 7 b9 05 3e
        E 7 b9 05 3f
        E 7 b9 05 3f
        E 7 b9 05 3f
        E 7 b9 05 3f
        E 7 b9 05 3f
        E 7 b9 05 3f
        E 7 b9 05 3f
        E 7 b9 05 3f
        E 7 b9 05 3f
        E 7 b9 05 3e
        E 7 b9 05 3e
        E 7 b9 05 3d
        E 7 b9 05 3d
        E 7 b9 05 3c
        E 7 b9 05 3b
        E 7 b9 05 3a
        E 7 b9 05 3a
        E 7 b9 05 39
        E 7 b9 05 38
        E 7 b9 05 37
        E 7 b9 05 36
        E 7 b9 05 34
        E 7 b9 05 33
        E 7 b9 05 32
        E 7 b9 05 31
        E 7 b9 05 2f
        E 7 b9 05 2e
        E 7 b9 05 2c
        E 7 b9 05 2b
        E 7 b9 05 2a
        E 7 b9 05 28
        E 7 b9 05 27
        E 7 b9 05 25
        E 7 b9 05 23
        E 7 b9 05 22
        E 7 b9 05 20
        E 7 b9 05 1f
        E 7 b9 05 1d
        E 7 b9 05 1c
        E 7 b9 05 1a
        E 7 b9 05 18
        E 7 b9 05 17
        E 7 b9 05 15
        E 7 b9 05 14
        E 7 b9 05 13
        E 7 b9 05 11
        E 7 b9 05 10
        E 7 b9 05 0e
        E 7 b9 05 0d
        E 7 b9 05 0c
        E 7 b9 05 0b
        E 7 b9 05 09
        E 7 b9 05 08
        E 7 b9 05 07
        E 7 b9 05 06
        E 7 b9 05 05
        E 7 b9 05 05
        E 7 b9 05 04
        E 7 b9 05 03
        E 7 b9 05 02
        E 7 b9 05 02
        E 7 b9 05 01
        E 7 b9 05 01
        E 7 b9 05 00
        E 7 b9 05 00
        E 7 b9 05 00
        E 7 b9 05 00
        E 7 b9 05 00
        E 7 b9 05 00
        E 7 b9 05 00
        E 7 b9 05 00
        E 7 b9 05 00
        E 7 b9 05 01
        E 7 b9 05 01
        E 7 b9 05 02
        E 7 b9 05 02
        E 7 b9 05 03
        E 7 b9 05 03
        E 7 b9 05 04
        E 7 b9 05 05
        E 7 b9 05 06
        E 7 b9 05 07
        E 7 b9 05 08
        E 7 b9 05 09
        E 7 b9 05 0a
        E 7 b9 05 0b
        E 7 b9 05 0c
        E 7 b9 05 0e
        E 7 b9 05 0f
        E 7 b9 05 10
        E 7 b9 05 12
        E 7 b9 05 13
        E 7 b9 05 15
        E 7 b9 05 16
        E 7 b9 05 18
        E 7 b9 05 19
        E 7 b9 05 1b
        E 7 b9 05 1c
        E 7 b9 05 1e
        E 7 b9 05 20
        E 14 b9 05 2c
        E 14 b9 05 2e
        E 14 b9 05 31
        E 14 b9 05 33
        E 14 b9 05 35
        E 14 b9 05 37
        E 14 b9 05 39
        E 14 b9 05 3b
        E 14 b9 05 3d
        E 14 b9 05 3f
        E 14 b9 05 41
        E 14 b9 05 43
        E 14 b9 05 45
        E 14 b9 05 47
        E 14 b9 05 48
        E 14 b9 05 4a
        E 14 b9 05 4c
        E 14 b9 05 4d
        E 14 b9 05 4f
        E 14 b9 05 50
        E 14 b9 05 51
        E 14 b9 05 52
        E 14 b9 05 54
        E 14 b9 05 54
        E 14 b9 05 55
        E 14 b9 05 56
        E 14 b9 05 56
        E 14 b9 05 57
        E 14 b9 05 58
        E 14 b9 05 58
        E 14 b9 05 58
        E 14 b9 05 58
        E 14 b9 05 58
        E 14 b9 05 58
        E 14 b9 05 58
        E 14 b9 05 58
        E 14 b9 05 58
        E 14 b9 05 57
        E 14 b9 05 56
        E 14 b9 05 56
        E 14 b9 05 55
        E 14 b9 05 54
        E 14 b9 05 53
        E 14 b9 05 51
        E 14 b9 05 51
        E 14 b9 05 4f
        E 14 b9 05 4e
        E 14 b9 05 4d
        E 14 b9 05 4b
        E 14 b9 05 49
        E 14 b9 05 48
        E 14 b9 05 46
        E 14 b9 05 44
        E 14 b9 05 42
        E 14 b9 05 40
        E 14 b9 05 3e
        E 14 b9 05 3c
        E 14 b9 05 3a
        E 14 b9 05 38
        E 14 b9 05 36
        E 14 b9 05 33
        E 14 b9 05 31
        E 14 b9 05 2f
        E 14 b9 05 2d
        E 14 b9 05 2b
        E 14 b9 05 29
        E 14 b9 05 27
        E 14 b9 05 25
        E 14 b9 05 22
        E 14 b9 05 20
        E 14 b9 05 1e
        E 14 b9 05 1c
        E 14 b9 05 1a
        E 14 b9 05 18
        E 14 b9 05 16
        E 14 b9 05 14
        E 14 b9 05 12
        E 14 b9 05 10
        E 14 b9 05 0f
        E 14 b9 05 0d
        E 14 b9 05 0b
        E 14 b9 05 0a
        E 14 b9 05 09
        E 14 b9 05 07
        E 14 b9 05 07
        E 14 b9 05 05
        E 14 b9 05 04
        E 14 b9 05 03
        E 14 b9 05 02
        E 14 b9 05 02
        E 14 b9 05 01
        E 14 b9 05 00
        E 14 b9 05 00
        E 14 b9 05 00
        E 14 b9 05 00
        E 14 b9 05 00
        E 14 b9 05 00
        E 14 b9 05 00
        E 14 b9 05 00
        E 14 b9 05 00
        E 14 b9 05 01
        E 14 b9 05 02
        E 14 b9 05 02
        E 14 b9 05 03
        E 14 b9 05 04
        E 14 b9 05 04
        E 14 b9 05 06
        E 14 b9 05 07
        E 14 b9 05 08
        E 14 b9 05 09
        E 14 b9 05 0b
        E 14 b9 05 0c
        E 14 b9 05 0e
        E 14 b9 05 10
        E 14 b9 05 11
        E 14 b9 05 13
        E 14 b9 05 15
        E 14 b9 05 17
        E 14 b9 05 19
        E 14 b9 05 1b
        E 14 b9 05 1d
        E 14 b9 05 1f
        E 14 b9 05 21
        E 14 b9 05 23
        E 14 b9 05 25
        E 14 b9 05 27
        E 14 b9 05 2a
        E 14 b9 05 2c
        E 12 b9 05 33
        E 12 b9 05 35
        E 12 b9 05 37
        E 12 b9 05 3a
        E 12 b9 05 3c
        E 12 b9 05 3f
        E 12 b9 05 41
        E 12 b9 05 44
        E 12 b9 05 46
        E 12 b9 05 48
        E 12 b9 05 4b
        E 12 b9 05 4c
        E 12 b9 05 4f
        E 12 b9 05 51
        E 12 b9 05 53
        E 12 b9 05 54
        E 12 b9 05 57
        E 12 b9 05 58
        E 12 b9 05 5a
        E 12 b9 05 5b
        E 12 b9 05 5d
        E 12 b9 05 5e
        E 12 b9 05 5f
        E 12 b9 05 60
        E 12 b9 05 61
        E 12 b9 05 62
        E 12 b9 05 63
        E 12 b9 05 63
        E 12 b9 05 64
        E 12 b9 05 64
        E 12 b9 05 65
        E 12 b9 05 65
        E 12 b9 05 65
        E 12 b9 05 65
        E 12 b9 05 65
        E 12 b9 05 64
        E 12 b9 05 64
        E 12 b9 05 63
        E 12 b9 05 63
        E 12 b9 05 62
        E 12 b9 05 61
        E 12 b9 05 5f
        E 12 b9 05 5f
        E 12 b9 05 5d
        E 12 b9 05 5c
        E 12 b9 05 5b
        E 12 b9 05 59
        E 12 b9 05 57
        E 12 b9 05 56
        E 12 b9 05 54
        E 12 b9 05 52
        E 12 b9 05 50
        E 12 b9 05 4e
        E 12 b9 05 4c
        E 12 b9 05 49
        E 12 b9 05 47
        E 12 b9 05 45
        E 12 b9 05 43
        E 12 b9 05 40
        E 12 b9 05 3e
        E 12 b9 05 3b
        E 12 b9 05 38
        E 12 b9 05 36
        E 12 b9 05 33
        E 12 b9 05 31
        E 12 b9 05 2f
        E 12 b9 05 2c
        E 12 b9 05 2a
        E 12 b9 05 27
        E 12 b9 05 24
        E 12 b9 05 22
        E 12 b9 05 1f
        E 12 b9 05 1e
        E 12 b9 05 1b
        E 12 b9 05 19
        E 12 b9 05 17
        E 12 b9 05 15
        E 12 b9 05 13
        E 12 b9 05 11
        E 12 b9 05 0f
        E 12 b9 05 0d
        E 12 b9 05 0b
        E 12 b9 05 0a
        E 12 b9 05 08
        E 12 b9 05 07
        E 12 b9 05 06
        E 12 b9 05 05
        E 12 b9 05 03
        E 12 b9 05 03
        E 12 b9 05 02
        E 12 b9 05 01
        E 12 b9 05 00
        E 12 b9 05 00
        E 12 b9 05 00
        E 12 b9 05 00
        E 12 b9 05 00
        E 12 b9 05 00
        E 12 b9 05 00
        E 12 b9 05 00
        E 12 b9 05 00
        E 12 b9 05 01
        E 12 b9 05 02
        E 12 b9 05 03
        E 12 b9 05 03
        E 12 b9 05 04
        E 12 b9 05 05
        E 12 b9 05 07
        E 12 b9 05 07
        E 12 b9 05 09
        E 12 b9 05 0b
        E 12 b9 05 0c
        E 12 b9 05 0e
        E 12 b9 05 10
        E 12 b9 05 12
        E 12 b9 05 14
        E 12 b9 05 16
        E 12 b9 05 18
        E 12 b9 05 1a
        E 12 b9 05 1c
        E 12 b9 05 1f
        E 12 b9 05 21
        E 12 b9 05 24
        E 12 b9 05 26
        E 12 b9 05 28
        E 12 b9 05 2b
        E 12 b9 05 2d
        E 12 b9 05 2f
        E 12 b9 05 33
        E 14 b9 05 06
        E 14 b9 05 06
        E 14 b9 05 07
        E 14 b9 05 07
        E 14 b9 05 07
        E 14 b9 05 07
        E 14 b9 05 08
        E 14 b9 05 08
        E 14 b9 05 08
        E 14 b9 05 09
        E 14 b9 05 09
        E 14 b9 05 09
        E 14 b9 05 09
        E 14 b9 05 0a
        E 14 b9 05 0a
        E 14 b9 05 0a
        E 14 b9 05 0a
        E 14 b9 05 0b
        E 14 b9 05 0b
        E 14 b9 05 0b
        E 14 b9 05 0b
        E 14 b9 05 0b
        E 14 b9 05 0c
        E 14 b9 05 0c
        E 14 b9 05 0c
        E 14 b9 05 0c
        E 14 b9 05 0c
        E 14 b9 05 0c
        E 14 b9 05 0c
        E 14 b9 05 0c
        E 14 b9 05 0c
        E 14 b9 05 0c
        E 14 b9 05 0c
        E 14 b9 05 0c
        E 14 b9 05 0c
        E 14 b9 05 0c
        E 14 b9 05 0c
        E 14 b9 05 0c
        E 14 b9 05 0c
        E 14 b9 05 0c
        E 14 b9 05 0c
        E 14 b9 05 0c
        E 14 b9 05 0b
        E 14 b9 05 0b
        E 14 b9 05 0b
        E 14 b9 05 0b
        E 14 b9 05 0b
        E 14 b9 05 0b
        E 14 b9 05 0a
        E 14 b9 05 0a
        E 14 b9 05 0a
        E 14 b9 05 0a
        E 14 b9 05 09
        E 14 b9 05 09
        E 14 b9 05 09
        E 14 b9 05 08
        E 14 b9 05 08
        E 14 b9 05 08
        E 14 b9 05 08
        E 14 b9 05 07
        E 14 b9 05 07
        E 14 b9 05 07
        E 14 b9 05 06
        E 14 b9 05 06
        E 14 b9 05 06
        E 14 b9 05 05
        E 14 b9 05 05
        E 14 b9 05 05
        E 14 b9 05 04
        E 14 b9 05 04
        E 14 b9 05 04
        E 14 b9 05 04
        E 14 b9 05 03
        E 14 b9 05 03
        E 14 b9 05 03
        E 14 b9 05 02
        E 14 b9 05 02
        E 14 b9 05 02
        E 14 b9 05 02
        E 14 b9 05 01
        E 14 b9 05 01
        E 14 b9 05 01
        E 14 b9 05 01
        E 14 b9 05 01
        E 14 b9 05 01
        E 14 b9 05 00
        E 14 b9 05 00
        E 14 b9 05 00
        E 14 b9 05 00
        E 14 b9 05 00
        E 14 b9 05 00
        E 14 b9 05 00
        E 14 b9 05 00
        E 14 b9 05 00
        E 14 b9 05 00
        E 14 b9 05 00
        E 14 b9 05 00
        E 14 b9 05 00
        E 14 b9 05 00
        E 14 b9 05 00
        E 14 b9 05 00
        E 14 b9 05 00
        E 14 b9 05 00
        E 14 b9 05 00
        E 14 b9 05 00
        E 14 b9 05 00
        E 14 b9 05 00
        E 14 b9 05 01
        E 14 b9 05 01
        E 14 b9 05 01
        E 14 b9 05 01
        E 14 b9 05 01
        E 14 b9 05 02
        E 14 b9 05 02
        E 14 b9 05 02
        E 14 b9 05 02
        E 14 b9 05 03
        E 14 b9 05 03
        E 14 b9 05 03
        E 14 b9 05 03
        E 14 b9 05 04
        E 14 b9 05 04
        E 14 b9 05 04
        E 14 b9 05 05
        E 14 b9 05 05
        E 14 b9 05 05
        E 14 b9 05 06
        E 14 b9 05 06
        E 12 b9 05 19
        E 12 b9 05 1a
        E 12 b9 05 1c
        E 12 b9 05 1d
        E 12 b9 05 1e
        E 12 b9 05 1f
        E 12 b9 05 20
        E 12 b9 05 22
        E 12 b9 05 23
        E 12 b9 05 24
        E 12 b9 05 25
        E 12 b9 05 26
        E 12 b9 05 27
        E 12 b9 05 28
        E 12 b9 05 29
        E 12 b9 05 2a
        E 12 b9 05 2b
        E 12 b9 05 2c
        E 12 b9 05 2d
        E 12 b9 05 2e
        E 12 b9 05 2e
        E 12 b9 05 2f
        E 12 b9 05 30
        E 12 b9 05 30
        E 12 b9 05 30
        E 12 b9 05 31
        E 12 b9 05 31
        E 12 b9 05 32
        E 12 b9 05 32
        E 12 b9 05 32
        E 12 b9 05 32
        E 12 b9 05 32
        E 12 b9 05 32
        E 12 b9 05 32
        E 12 b9 05 32
        E 12 b9 05 32
        E 12 b9 05 32
        E 12 b9 05 32
        E 12 b9 05 31
        E 12 b9 05 31
        E 12 b9 05 30
        E 12 b9 05 30
        E 12 b9 05 2f
        E 12 b9 05 2e
        E 12 b9 05 2e
        E 12 b9 05 2d
        E 12 b9 05 2c
        E 12 b9 05 2c
        E 12 b9 05 2b
        E 12 b9 05 2a
        E 12 b9 05 29
        E 12 b9 05 28
        E 12 b9 05 27
        E 12 b9 05 26
        E 12 b9 05 24
        E 12 b9 05 23
        E 12 b9 05 22
        E 12 b9 05 21
        E 12 b9 05 20
        E 12 b9 05 1f
        E 12 b9 05 1d
        E 12 b9 05 1c
        E 12 b9 05 1b
        E 12 b9 05 1a
        E 12 b9 05 18
        E 12 b9 05 17
        E 12 b9 05 16
        E 12 b9 05 15
        E 12 b9 05 13
        E 12 b9 05 12
        E 12 b9 05 11
        E 12 b9 05 10
        E 12 b9 05 0f
        E 12 b9 05 0e
        E 12 b9 05 0c
        E 12 b9 05 0b
        E 12 b9 05 0a
        E 12 b9 05 09
        E 12 b9 05 08
        E 12 b9 05 07
        E 12 b9 05 06
        E 12 b9 05 06
        E 12 b9 05 05
        E 12 b9 05 04
        E 12 b9 05 04
        E 12 b9 05 03
        E 12 b9 05 02
        E 12 b9 05 02
        E 12 b9 05 01
        E 12 b9 05 01
        E 12 b9 05 00
        E 12 b9 05 00
        E 12 b9 05 00
        E 12 b9 05 00
        E 12 b9 05 00
        E 12 b9 05 00
        E 12 b9 05 00
        E 12 b9 05 00
        E 12 b9 05 00
        E 12 b9 05 00
        E 12 b9 05 00
        E 12 b9 05 01
        E 12 b9 05 01
        E 12 b9 05 02
        E 12 b9 05 02
        E 12 b9 05 02
        E 12 b9 05 03
        E 12 b9 05 04
        E 12 b9 05 04
        E 12 b9 05 05
        E 12 b9 05 06
        E 12 b9 05 07
        E 12 b9 05 08
        E 12 b9 05 09
        E 12 b9 05 0a
        E 12 b9 05 0b
        E 12 b9 05 0c
        E 12 b9 05 0d
        E 12 b9 05 0e
        E 12 b9 05 0f
        E 12 b9 05 10
        E 12 b9 05 12
        E 12 b9 05 13
        E 12 b9 05 14
        E 12 b9 05 15
        E 12 b9 05 16
        E 12 b9 05 18
        E 12 b9 05 19
        E 7 b9 05 2c
        E 7 b9 05 2e
        E 7 b9 05 31
        E 7 b9 05 33
        E 7 b9 05 35
        E 7 b9 05 37
        E 7 b9 05 39
        E 7 b9 05 3b
        E 7 b9 05 3d
        E 7 b9 05 3f
        E 7 b9 05 41
        E 7 b9 05 43
        E 7 b9 05 45
        E 7 b9 05 47
        E 7 b9 05 48
        E 7 b9 05 4a
        E 7 b9 05 4c
        E 7 b9 05 4d
        E 7 b9 05 4f
        E 7 b9 05 50
        E 7 b9 05 51
        E 7 b9 05 52
        E 7 b9 05 54
        E 7 b9 05 54
        E 7 b9 05 55
        E 7 b9 05 56
        E 7 b9 05 56
        E 7 b9 05 57
        E 7 b9 05 58
        E 7 b9 05 58
        E 7 b9 05 58
        E 7 b9 05 58
        E 7 b9 05 58
        E 7 b9 05 58
        E 7 b9 05 58
        E 7 b9 05 58
        E 7 b9 05 58
        E 7 b9 05 57
        E 7 b9 05 56
        E 7 b9 05 56
        E 7 b9 05 55
        E 7 b9 05 54
        E 7 b9 05 53
        E 7 b9 05 51
        E 7 b9 05 51
        E 7 b9 05 4f
        E 7 b9 05 4e
        E 7 b9 05 4d
        E 7 b9 05 4b
        E 7 b9 05 49
        E 7 b9 05 48
        E 7 b9 05 46
        E 7 b9 05 44
        E 7 b9 05 42
        E 7 b9 05 40
        E 7 b9 05 3e
        E 7 b9 05 3c
        E 7 b9 05 3a
        E 7 b9 05 38
        E 7 b9 05 36
        E 7 b9 05 33
        E 7 b9 05 31
        E 7 b9 05 2f
        E 7 b9 05 2d
        E 7 b9 05 2b
        E 7 b9 05 29
        E 7 b9 05 27
        E 7 b9 05 25
        E 7 b9 05 22
        E 7 b9 05 20
        E 7 b9 05 1e
        E 7 b9 05 1c
        E 7 b9 05 1a
        E 7 b9 05 18
        E 7 b9 05 16
        E 7 b9 05 14
        E 7 b9 05 12
        E 7 b9 05 10
        E 7 b9 05 0f
        E 7 b9 05 0d
        E 7 b9 05 0b
        E 7 b9 05 0a
        E 7 b9 05 09
        E 7 b9 05 07
        E 7 b9 05 07
        E 7 b9 05 05
        E 7 b9 05 04
        E 7 b9 05 03
        E 7 b9 05 02
        E 7 b9 05 02
        E 7 b9 05 01
        E 7 b9 05 00
        E 7 b9 05 00
        E 7 b9 05 00
        E 7 b9 05 00
        E 7 b9 05 00
        E 7 b9 05 00
        E 7 b9 05 00
        E 7 b9 05 00
        E 7 b9 05 00
        E 7 b9 05 01
        E 7 b9 05 02
        E 7 b9 05 02
        E 7 b9 05 03
        E 7 b9 05 04
        E 7 b9 05 04
        E 7 b9 05 06
        E 7 b9 05 07
        E 7 b9 05 08
        E 7 b9 05 09
        E 7 b9 05 0b
        E 7 b9 05 0c
        E 7 b9 05 0e
        E 7 b9 05 10
        E 7 b9 05 11
        E 7 b9 05 13
        E 7 b9 05 15
        E 7 b9 05 17
        E 7 b9 05 19
        E 7 b9 05 1b
        E 7 b9 05 1d
        E 7 b9 05 1f
        E 7 b9 05 21
        E 7 b9 05 23
        E 7 b9 05 25
        E 7 b9 05 27
        E 7 b9 05 2a
        E 7 b9 05 2c
        E 7 b9 05 20
        E 7 b9 05 21
        E 7 b9 05 23
        E 7 b9 05 24
        E 7 b9 05 26
        E 7 b9 05 27
        E 7 b9 05 29
        E 7 b9 05 2a
        E 7 b9 05 2c
        E 7 b9 05 2d
        E 7 b9 05 2f
        E 7 b9 05 30
        E 7 b9 05 31
        E 7 b9 05 33
        E 7 b9 05 34
        E 7 b9 05 35
        E 7 b9 05 36
        E 7 b9 05 37
        E 7 b9 05 38
        E 7 b9 05 39
        E 7 b9 05 3a
        E 7 b9 05 3b
        E 7 b9 05 3c
        E 7 b9 05 3c
        E 7 b9 05 3d
        E 7 b9 05 3d
        E 7 b9 05 3e
        E 7 b9 05 3e
        E 7 b9 05 3f
        E 7 b9 05 3f
        E 7 b9 05 3f
        E 7 b9 05 3f
        E 7 b9 05 3f
        E 7 b9 05 3f
        E 7 b9 05 3f
        E 7 b9 05 3f
        E 7 b9 05 3f
        E 7 b9 05 3e
        E 7 b9 05 3e
        E 7 b9 05 3d
        E 7 b9 05 3d
        E 7 b9 05 3c
        E 7 b9 05 3b
        E 7 b9 05 3a
        E 7 b9 05 3a
        E 7 b9 05 39
        E 7 b9 05 38
        E 7 b9 05 37
        E 7 b9 05 36
        E 7 b9 05 34
        E 7 b9 05 33
        E 7 b9 05 32
        E 7 b9 05 31
        E 7 b9 05 2f
        E 7 b9 05 2e
        E 7 b9 05 2c
        E 7 b9 05 2b
        E 7 b9 05 2a
        E 7 b9 05 28
        E 7 b9 05 27
        E 7 b9 05 25
        E 7 b9 05 23
        E 7 b9 05 22
        E 7 b9 05 20
        E 7 b9 05 1f
        E 7 b9 05 1d
        E 7 b9 05 1c
        E 7 b9 05 1a
        E 7 b9 05 18
        E 7 b9 05 17
        E 7 b9 05 15
        E 7 b9 05 14
        E 7 b9 05 13
        E 7 b9 05 11
        E 7 b9 05 10
        E 7 b9 05 0e
        E 7 b9 05 0d
        E 7 b9 05 0c
        E 7 b9 05 0b
        E 7 b9 05 09
        E 7 b9 05 08
        E 7 b9 05 07
        E 7 b9 05 06
        E 7 b9 05 05
        E 7 b9 05 05
        E 7 b9 05 04
        E 7 b9 05 03
        E 7 b9 05 02
        E 7 b9 05 02
        E 7 b9 05 01
        E 7 b9 05 01
        E 7 b9 05 00
        E 7 b9 05 00
        E 7 b9 05 00
        E 7 b9 05 00
        E 7 b9 05 00
        E 7 b9 05 00
        E 7 b9 05 00
        E 7 b9 05 00
        E 7 b9 05 00
        E 7 b9 05 01
        E 7 b9 05 01
        E 7 b9 05 02
        E 7 b9 05 02
        E 7 b9 05 03
        E 7 b9 05 03
        E 7 b9 05 04
        E 7 b9 05 05
        E 7 b9 05 06
        E 7 b9 05 07
        E 7 b9 05 08
        E 7 b9 05 09
        E 7 b9 05 0a
        E 7 b9 05 0b
        E 7 b9 05 0c
        E 7 b9 05 0e
        E 7 b9 05 0f
        E 7 b9 05 10
        E 7 b9 05 12
        E 7 b9 05 13
        E 7 b9 05 15
        E 7 b9 05 16
        E 7 b9 05 18
        E 7 b9 05 19
        E 7 b9 05 1b
        E 7 b9 05 1c
        E 7 b9 05 1e
        E 7 b9 05 20
        E 1 b9 05 39
        E 1 b9 05 3c
        E 1 b9 05 3f
        E 1 b9 05 41
        E 1 b9 05 44
        E 1 b9 05 47
        E 1 b9 05 49
        E 1 b9 05 4c
        E 1 b9 05 4f
        E 1 b9 05 51
        E 1 b9 05 54
        E 1 b9 05 56
        E 1 b9 05 59
        E 1 b9 05 5b
        E 1 b9 05 5d
        E 1 b9 05 5f
        E 1 b9 05 62
        E 1 b9 05 63
        E 1 b9 05 65
        E 1 b9 05 67
        E 1 b9 05 69
        E 1 b9 05 6a
        E 1 b9 05 6c
        E 1 b9 05 6c
        E 1 b9 05 6d
        E 1 b9 05 6e
        E 1 b9 05 6f
        E 1 b9 05 70
        E 1 b9 05 71
        E 1 b9 05 71
        E 1 b9 05 72
        E 1 b9 05 72
        E 1 b9 05 72
        E 1 b9 05 72
        E 1 b9 05 72
        E 1 b9 05 71
        E 1 b9 05 71
        E 1 b9 05 70
        E 1 b9 05 6f
        E 1 b9 05 6e
        E 1 b9 05 6d
        E 1 b9 05 6c
        E 1 b9 05 6b
        E 1 b9 05 69
        E 1 b9 05 68
        E 1 b9 05 66
        E 1 b9 05 64
        E 1 b9 05 63
        E 1 b9 05 61
        E 1 b9 05 5e
        E 1 b9 05 5c
        E 1 b9 05 5a
        E 1 b9 05 58
        E 1 b9 05 55
        E 1 b9 05 52
        E 1 b9 05 50
        E 1 b9 05 4e
        E 1 b9 05 4b
        E 1 b9 05 48
        E 1 b9 05 46
        E 1 b9 05 42
        E 1 b9 05 3f
        E 1 b9 05 3d
        E 1 b9 05 3a
        E 1 b9 05 37
        E 1 b9 05 35
        E 1 b9 05 32
        E 1 b9 05 2f
        E 1 b9 05 2c
        E 1 b9 05 29
        E 1 b9 05 26
        E 1 b9 05 24
        E 1 b9 05 22
        E 1 b9 05 1f
        E 1 b9 05 1c
        E 1 b9 05 1a
        E 1 b9 05 18
        E 1 b9 05 15
        E 1 b9 05 13
        E 1 b9 05 11
        E 1 b9 05 0f
        E 1 b9 05 0d
        E 1 b9 05 0b
        E 1 b9 05 09
        E 1 b9 05 09
        E 1 b9 05 07
        E 1 b9 05 06
        E 1 b9 05 04
        E 1 b9 05 03
        E 1 b9 05 02
        E 1 b9 05 01
        E 1 b9 05 00
        E 1 b9 05 00
        E 1 b9 05 00
        E 1 b9 05 00
        E 1 b9 05 00
        E 1 b9 05 00
        E 1 b9 05 00
        E 1 b9 05 00
        E 1 b9 05 00
        E 1 b9 05 01
        E 1 b9 05 02
        E 1 b9 05 03
        E 1 b9 05 04
        E 1 b9 05 05
        E 1 b9 05 06
        E 1 b9 05 08
        E 1 b9 05 09
        E 1 b9 05 0a
        E 1 b9 05 0c
        E 1 b9 05 0e
        E 1 b9 05 10
        E 1 b9 05 12
        E 1 b9 05 14
        E 1 b9 05 16
        E 1 b9 05 19
        E 1 b9 05 1b
        E 1 b9 05 1d
        E 1 b9 05 20
        E 1 b9 05 23
        E 1 b9 05 25
        E 1 b9 05 28
        E 1 b9 05 2b
        E 1 b9 05 2d
        E 1 b9 05 30
        E 1 b9 05 33
        E 1 b9 05 36
        E 1 b9 05 39
        E 5 b9 05 40
        E 5 b9 05 43
        E 5 b9 05 46
        E 5 b9 05 49
        E 5 b9 05 4c
        E 5 b9 05 4f
        E 5 b9 05 52
        E 5 b9 05 55
        E 5 b9 05 58
        E 5 b9 05 5b
        E 5 b9 05 5e
        E 5 b9 05 60
        E 5 b9 05 63
        E 5 b9 05 66
        E 5 b9 05 68
        E 5 b9 05 6a
        E 5 b9 05 6d
        E 5 b9 05 6f
        E 5 b9 05 71
        E 5 b9 05 73
        E 5 b9 05 75
        E 5 b9 05 76
        E 5 b9 05 78
        E 5 b9 05 79
        E 5 b9 05 7a
        E 5 b9 05 7b
        E 5 b9 05 7c
        E 5 b9 05 7d
        E 5 b9 05 7e
        E 5 b9 05 7e
        E 5 b9 05 7f
        E 5 b9 05 7f
        E 5 b9 05 7f
        E 5 b9 05 7f
        E 5 b9 05 7f
        E 5 b9 05 7e
        E 5 b9 05 7e
        E 5 b9 05 7d
        E 5 b9 05 7c
        E 5 b9 05 7b
        E 5 b9 05 7a
        E 5 b9 05 78
        E 5 b9 05 77
        E 5 b9 05 75
        E 5 b9 05 74
        E 5 b9 05 72
        E 5 b9 05 70
        E 5 b9 05 6e
        E 5 b9 05 6c
        E 5 b9 05 69
        E 5 b9 05 67
        E 5 b9 05 64
        E 5 b9 05 62
        E 5 b9 05 5f
        E 5 b9 05 5c
        E 5 b9 05 59
        E 5 b9 05 57
        E 5 b9 05 54
        E 5 b9 05 51
        E 5 b9 05 4e
        E 5 b9 05 4a
        E 5 b9 05 47
        E 5 b9 05 44
        E 5 b9 05 41
        E 5 b9 05 3e
        E 5 b9 05 3b
        E 5 b9 05 38
        E 5 b9 05 35
        E 5 b9 05 31
        E 5 b9 05 2e
        E 5 b9 05 2b
        E 5 b9 05 28
        E 5 b9 05 26
        E 5 b9 05 23
        E 5 b9 05 20
        E 5 b9 05 1d
        E 5 b9 05 1b
        E 5 b9 05 18
        E 5 b9 05 16
        E 5 b9 05 13
        E 5 b9 05 11
        E 5 b9 05 0f
        E 5 b9 05 0d
        E 5 b9 05 0b
        E 5 b9 05 0a
        E 5 b9 05 08
        E 5 b9 05 07
        E 5 b9 05 05
        E 5 b9 05 04
        E 5 b9 05 03
        E 5 b9 05 02
        E 5 b9 05 01
        E 5 b9 05 01
        E 5 b9 05 00
        E 5 b9 05 00
        E 5 b9 05 00
        E 5 b9 05 00
        E 5 b9 05 00
        E 5 b9 05 01
        E 5 b9 05 01
        E 5 b9 05 02
        E 5 b9 05 03
        E 5 b9 05 04
        E 5 b9 05 05
        E 5 b9 05 06
        E 5 b9 05 07
        E 5 b9 05 09
        E 5 b9 05 0a
        E 5 b9 05 0c
        E 5 b9 05 0e
        E 5 b9 05 10
        E 5 b9 05 12
        E 5 b9 05 15
        E 5 b9 05 17
        E 5 b9 05 19
        E 5 b9 05 1c
        E 5 b9 05 1f
        E 5 b9 05 21
        E 5 b9 05 24
        E 5 b9 05 27
        E 5 b9 05 2a
        E 5 b9 05 2d
        E 5 b9 05 30
        E 5 b9 05 33
        E 5 b9 05 36
        E 5 b9 05 39
        E 5 b9 05 3c
        E 5 b9 05 40
        E 9 b9 05 39
        E 9 b9 05 3c
        E 9 b9 05 3f
        E 9 b9 05 41
        E 9 b9 05 44
        E 9 b9 05 47
        E 9 b9 05 49
        E 9 b9 05 4c
        E 9 b9 05 4f
        E 9 b9 05 51
        E 9 b9 05 54
        E 9 b9 05 56
        E 9 b9 05 59
        E 9 b9 05 5b
        E 9 b9 05 5d
        E 9 b9 05 5f
        E 9 b9 05 62
        E 9 b9 05 63
        E 9 b9 05 65
        E 9 b9 05 67
        E 9 b9 05 69
        E 9 b9 05 6a
        E 9 b9 05 6c
        E 9 b9 05 6c
        E 9 b9 05 6d
        E 9 b9 05 6e
        E 9 b9 05 6f
        E 9 b9 05 70
        E 9 b9 05 71
        E 9 b9 05 71
        E 9 b9 05 72
        E 9 b9 05 72
        E 9 b9 05 72
        E 9 b9 05 72
        E 9 b9 05 72
        E 9 b9 05 71
        E 9 b9 05 71
        E 9 b9 05 70
        E 9 b9 05 6f
        E 9 b9 05 6e
        E 9 b9 05 6d
        E 9 b9 05 6c
        E 9 b9 05 6b
        E 9 b9 05 69
        E 9 b9 05 68
        E 9 b9 05 66
        E 9 b9 05 64
        E 9 b9 05 63
        E 9 b9 05 61
        E 9 b9 05 5e
        E 9 b9 05 5c
        E 9 b9 05 5a
        E 9 b9 05 58
        E 9 b9 05 55
        E 9 b9 05 52
        E 9 b9 05 50
        E 9 b9 05 4e
        E 9 b9 05 4b
        E 9 b9 05 48
        E 9 b9 05 46
        E 9 b9 05 42
        E 9 b9 05 3f
        E 9 b9 05 3d
        E 9 b9 05 3a
        E 9 b9 05 37
        E 9 b9 05 35
        E 9 b9 05 32
        E 9 b9 05 2f
        E 9 b9 05 2c
        E 9 b9 05 29
        E 9 b9 05 26
        E 9 b9 05 24
        E 9 b9 05 22
        E 9 b9 05 1f
        E 9 b9 05 1c
        E 9 b9 05 1a
        E 9 b9 05 18
        E 9 b9 05 15
        E 9 b9 05 13
        E 9 b9 05 11
        E 9 b9 05 0f
        E 9 b9 05 0d
        E 9 b9 05 0b
        E 9 b9 05 09
        E 9 b9 05 09
        E 9 b9 05 07
        E 9 b9 05 06
        E 9 b9 05 04
        E 9 b9 05 03
        E 9 b9 05 02
        E 9 b9 05 01
        E 9 b9 05 00
        E 9 b9 05 00
        E 9 b9 05 00
        E 9 b9 05 00
        E 9 b9 05 00
        E 9 b9 05 00
        E 9 b9 05 00
        E 9 b9 05 00
        E 9 b9 05 00
        E 9 b9 05 01
        E 9 b9 05 02
        E 9 b9 05 03
        E 9 b9 05 04
        E 9 b9 05 05
        E 9 b9 05 06
        E 9 b9 05 08
        E 9 b9 05 09
        E 9 b9 05 0a
        E 9 b9 05 0c
        E 9 b9 05 0e
        E 9 b9 05 10
        E 9 b9 05 12
        E 9 b9 05 14
        E 9 b9 05 16
        E 9 b9 05 19
        E 9 b9 05 1b
        E 9 b9 05 1d
        E 9 b9 05 20
        E 9 b9 05 23
        E 9 b9 05 25
        E 9 b9 05 28
        E 9 b9 05 2b
        E 9 b9 05 2d
        E 9 b9 05 30
        E 9 b9 05 33
        E 9 b9 05 36
        E 9 b9 05 39
        E 7 b9 05 20
        E 7 b9 05 21
        E 7 b9 05 23
        E 7 b9 05 24
        E 7 b9 05 26
        E 7 b9 05 27
        E 7 b9 05 29
        E 7 b9 05 2a
        E 7 b9 05 2c
        E 7 b9 05 2d
        E 7 b9 05 2f
        E 7 b9 05 30
        E 7 b9 05 31
        E 7 b9 05 33
        E 7 b9 05 34
        E 7 b9 05 35
        E 7 b9 05 36
        E 7 b9 05 37
        E 7 b9 05 38
        E 7 b9 05 39
        E 7 b9 05 3a
        E 7 b9 05 3b
        E 7 b9 05 3c
        E 7 b9 05 3c
        E 7 b9 05 3d
        E 7 b9 05 3d
        E 7 b9 05 3e
        E 7 b9 05 3e
        E 7 b9 05 3f
        E 7 b9 05 3f
        E 7 b9 05 3f
        E 7 b9 05 3f
        E 7 b9 05 3f
        E 7 b9 05 3f
        E 7 b9 05 3f
        E 7 b9 05 3f
        E 7 b9 05 3f
        E 7 b9 05 3e
        E 7 b9 05 3e
        E 7 b9 05 3d
        E 7 b9 05 3d
        E 7 b9 05 3c
        E 7 b9 05 3b
        E 7 b9 05 3a
        E 7 b9 05 3a
        E 7 b9 05 39
        E 7 b9 05 38
        E 7 b9 05 37
        E 7 b9 05 36
        E 7 b9 05 34
        E 7 b9 05 33
        E 7 b9 05 32
        E 7 b9 05 31
        E 7 b9 05 2f
        E 7 b9 05 2e
        E 7 b9 05 2c
        E 7 b9 05 2b
        E 7 b9 05 2a
        E 7 b9 05 28
        E 7 b9 05 27
        E 7 b9 05 25
        E 7 b9 05 23
        E 7 b9 05 22
        E 7 b9 05 20
        E 7 b9 05 1f
        E 7 b9 05 1d
        E 7 b9 05 1c
        E 7 b9 05 1a
        E 7 b9 05 18
        E 7 b9 05 17
        E 7 b9 05 15
        E 7 b9 05 14
        E 7 b9 05 13
        E 7 b9 05 11
        E 7 b9 05 10
        E 7 b9 05 0e
        E 7 b9 05 0d
        E 7 b9 05 0c
        E 7 b9 05 0b
        E 7 b9 05 09
        E 7 b9 05 08
        E 7 b9 05 07
        E 7 b9 05 06
        E 7 b9 05 05
        E 7 b9 05 05
        E 7 b9 05 04
        E 7 b9 05 03
        E 7 b9 05 02
        E 7 b9 05 02
        E 7 b9 05 01
        E 7 b9 05 01
        E 7 b9 05 00
        E 7 b9 05 00
        E 7 b9 05 00
        E 7 b9 05 00
        E 7 b9 05 00
        E 7 b9 05 00
        E 7 b9 05 00
        E 7 b9 05 00
        E 7 b9 05 00
        E 7 b9 05 01
        E 7 b9 05 01
        E 7 b9 05 02
        E 7 b9 05 02
        E 7 b9 05 03
        E 7 b9 05 03
        E 7 b9 05 04
        E 7 b9 05 05
        E 7 b9 05 06
        E 7 b9 05 07
        E 7 b9 05 08
        E 7 b9 05 09
        E 7 b9 05 0a
        E 7 b9 05 0b
        E 7 b9 05 0c
        E 7 b9 05 0e
        E 7 b9 05 0f
        E 7 b9 05 10
        E 7 b9 05 12
        E 7 b9 05 13
        E 7 b9 05 15
        E 7 b9 05 16
        E 7 b9 05 18
        E 7 b9 05 19
        E 7 b9 05 1b
        E 7 b9 05 1c
        E 7 b9 05 1e
        E 7 b9 05 20
        E 7 b9 05 20
        E 7 b9 05 21
        E 7 b9 05 23
        E 7 b9 05 24
        E 7 b9 05 26
        E 7 b9 05 27
        E 7 b9 05 29
        E 7 b9 05 2a
        E 7 b9 05 2c
        E 7 b9 05 2d
        E 7 b9 05 2f
        E 7 b9 05 30
        E 7 b9 05 31
        E 7 b9 05 33
        E 7 b9 05 34
        E 7 b9 05 35
        E 7 b9 05 36
        E 7 b9 05 37
        E 7 b9 05 38
        E 7 b9 05 39
        E 7 b9 05 3a
        E 7 b9 05 3b
        E 7 b9 05 3c
        E 7 b9 05 3c
        E 7 b9 05 3d
        E 7 b9 05 3d
        E 7 b9 05 3e
        E 7 b9 05 3e
        E 7 b9 05 3f
        E 7 b9 05 3f
        E 7 b9 05 3f
        E 7 b9 05 3f
        E 7 b9 05 3f
        E 7 b9 05 3f
        E 7 b9 05 3f
        E 7 b9 05 3f
        E 7 b9 05 3f
        E 7 b9 05 3e
        E 7 b9 05 3e
        E 7 b9 05 3d
        E 7 b9 05 3d
        E 7 b9 05 3c
        E 7 b9 05 3b
        E 7 b9 05 3a
        E 7 b9 05 3a
        E 7 b9 05 39
        E 7 b9 05 38
        E 7 b9 05 37
        E 7 b9 05 36
        E 7 b9 05 34
        E 7 b9 05 33
        E 7 b9 05 32
        E 7 b9 05 31
        E 7 b9 05 2f
        E 7 b9 05 2e
        E 7 b9 05 2c
        E 7 b9 05 2b
        E 7 b9 05 2a
        E 7 b9 05 28
        E 7 b9 05 27
        E 7 b9 05 25
        E 7 b9 05 23
        E 7 b9 05 22
        E 7 b9 05 20
        E 7 b9 05 1f
        E 7 b9 05 1d
        E 7 b9 05 1c
        E 7 b9 05 1a
        E 7 b9 05 18
        E 7 b9 05 17
        E 7 b9 05 15
        E 7 b9 05 14
        E 7 b9 05 13
        E 7 b9 05 11
        E 7 b9 05 10
        E 7 b9 05 0e
        E 7 b9 05 0d
        E 7 b9 05 0c
        E 7 b9 05 0b
        E 7 b9 05 09
        E 7 b9 05 08
        E 7 b9 05 07
        E 7 b9 05 06
        E 7 b9 05 05
        E 7 b9 05 05
        E 7 b9 05 04
        E 7 b9 05 03
        E 7 b9 05 02
        E 7 b9 05 02
        E 7 b9 05 01
        E 7 b9 05 01
        E 7 b9 05 00
        E 7 b9 05 00
        E 7 b9 05 00
        E 7 b9 05 00
        E 7 b9 05 00
        E 7 b9 05 00
        E 7 b9 05 00
        E 7 b9 05 00
        E 7 b9 05 00
        E 7 b9 05 01
        E 7 b9 05 01
        E 7 b9 05 02
        E 7 b9 05 02
        E 7 b9 05 03
        E 7 b9 05 03
        E 7 b9 05 04
        E 7 b9 05 05
        E 7 b9 05 06
        E 7 b9 05 07
        E 7 b9 05 08
        E 7 b9 05 09
        E 7 b9 05 0a
        E 7 b9 05 0b
        E 7 b9 05 0c
        E 7 b9 05 0e
        E 7 b9 05 0f
        E 7 b9 05 10
        E 7 b9 05 12
        E 7 b9 05 13
        E 7 b9 05 15
        E 7 b9 05 16
        E 7 b9 05 18
        E 7 b9 05 19
        E 7 b9 05 1b
        E 7 b9 05 1c
        E 7 b9 05 1e
        E 7 b9 05 20
        E 14 b9 05 2c
        E 14 b9 05 2e
        E 14 b9 05 31
        E 14 b9 05 33
        E 14 b9 05 35
        E 14 b9 05 37
        E 14 b9 05 39
        E 14 b9 05 3b
        E 14 b9 05 3d
        E 14 b9 05 3f
        E 14 b9 05 41
        E 14 b9 05 43
        E 14 b9 05 45
        E 14 b9 05 47
        E 14 b9 05 48
        E 14 b9 05 4a
        E 14 b9 05 4c
        E 14 b9 05 4d
        E 14 b9 05 4f
        E 14 b9 05 50
        E 14 b9 05 51
        E 14 b9 05 52
        E 14 b9 05 54
        E 14 b9 05 54
        E 14 b9 05 55
        E 14 b9 05 56
        E 14 b9 05 56
        E 14 b9 05 57
        E 14 b9 05 58
        E 14 b9 05 58
        E 14 b9 05 58
        E 14 b9 05 58
        E 14 b9 05 58
        E 14 b9 05 58
        E 14 b9 05 58
        E 14 b9 05 58
        E 14 b9 05 58
        E 14 b9 05 57
        E 14 b9 05 56
        E 14 b9 05 56
        E 14 b9 05 55
        E 14 b9 05 54
        E 14 b9 05 53
        E 14 b9 05 51
        E 14 b9 05 51
        E 14 b9 05 4f
        E 14 b9 05 4e
        E 14 b9 05 4d
        E 14 b9 05 4b
        E 14 b9 05 49
        E 14 b9 05 48
        E 14 b9 05 46
        E 14 b9 05 44
        E 14 b9 05 42
        E 14 b9 05 40
        E 14 b9 05 3e
        E 14 b9 05 3c
        E 14 b9 05 3a
        E 14 b9 05 38
        E 14 b9 05 36
        E 14 b9 05 33
        E 14 b9 05 31
        E 14 b9 05 2f
        E 14 b9 05 2d
        E 14 b9 05 2b
        E 14 b9 05 29
        E 14 b9 05 27
        E 14 b9 05 25
        E 14 b9 05 22
        E 14 b9 05 20
        E 14 b9 05 1e
        E 14 b9 05 1c
        E 14 b9 05 1a
        E 14 b9 05 18
        E 14 b9 05 16
        E 14 b9 05 14
        E 14 b9 05 12
        E 14 b9 05 10
        E 14 b9 05 0f
        E 14 b9 05 0d
        E 14 b9 05 0b
        E 14 b9 05 0a
        E 14 b9 05 09
        E 14 b9 05 07
        E 14 b9 05 07
        E 14 b9 05 05
        E 14 b9 05 04
        E 14 b9 05 03
        E 14 b9 05 02
        E 14 b9 05 02
        E 14 b9 05 01
        E 14 b9 05 00
        E 14 b9 05 00
        E 14 b9 05 00
        E 14 b9 05 00
        E 14 b9 05 00
        E 14 b9 05 00
        E 14 b9 05 00
        E 14 b9 05 00
        E 14 b9 05 00
        E 14 b9 05 01
        E 14 b9 05 02
        E 14 b9 05 02
        E 14 b9 05 03
        E 14 b9 05 04
        E 14 b9 05 04
        E 14 b9 05 06
        E 14 b9 05 07
        E 14 b9 05 08
        E 14 b9 05 09
        E 14 b9 05 0b
        E 14 b9 05 0c
        E 14 b9 05 0e
        E 14 b9 05 10
        E 14 b9 05 11
        E 14 b9 05 13
        E 14 b9 05 15
        E 14 b9 05 17
        E 14 b9 05 19
        E 14 b9 05 1b
        E 14 b9 05 1d
        E 14 b9 05 1f
        E 14 b9 05 21
        E 14 b9 05 23
        E 14 b9 05 25
        E 14 b9 05 27
        E 14 b9 05 2a
        E 14 b9 05 2c
        E 12 b9 05 33
        E 12 b9 05 35
        E 12 b9 05 37
        E 12 b9 05 3a
        E 12 b9 05 3c
        E 12 b9 05 3f
        E 12 b9 05 41
        E 12 b9 05 44
        E 12 b9 05 46
        E 12 b9 05 48
        E 12 b9 05 4b
        E 12 b9 05 4c
        E 12 b9 05 4f
        E 12 b9 05 51
        E 12 b9 05 53
        E 12 b9 05 54
        E 12 b9 05 57
        E 12 b9 05 58
        E 12 b9 05 5a
        E 12 b9 05 5b
        E 12 b9 05 5d
        E 12 b9 05 5e
        E 12 b9 05 5f
        E 12 b9 05 60
        E 12 b9 05 61
        E 12 b9 05 62
        E 12 b9 05 63
        E 12 b9 05 63
        E 12 b9 05 64
        E 12 b9 05 64
        E 12 b9 05 65
        E 12 b9 05 65
        E 12 b9 05 65
        E 12 b9 05 65
        E 12 b9 05 65
        E 12 b9 05 64
        E 12 b9 05 64
        E 12 b9 05 63
        E 12 b9 05 63
        E 12 b9 05 62
        E 12 b9 05 61
        E 12 b9 05 5f
        E 12 b9 05 5f
        E 12 b9 05 5d
        E 12 b9 05 5c
        E 12 b9 05 5b
        E 12 b9 05 59
        E 12 b9 05 57
        E 12 b9 05 56
        E 12 b9 05 54
        E 12 b9 05 52
        E 12 b9 05 50
        E 12 b9 05 4e
        E 12 b9 05 4c
        E 12 b9 05 49
        E 12 b9 05 47
        E 12 b9 05 45
        E 12 b9 05 43
        E 12 b9 05 40
        E 12 b9 05 3e
        E 12 b9 05 3b
        E 12 b9 05 38
        E 12 b9 05 36
        E 12 b9 05 33
        E 12 b9 05 31
        E 12 b9 05 2f
        E 12 b9 05 2c
        E 12 b9 05 2a
        E 12 b9 05 27
        E 12 b9 05 24
        E 12 b9 05 22
        E 12 b9 05 1f
        E 12 b9 05 1e
        E 12 b9 05 1b
        E 12 b9 05 19
        E 12 b9 05 17
        E 12 b9 05 15
        E 12 b9 05 13
        E 12 b9 05 11
        E 12 b9 05 0f
        E 12 b9 05 0d
        E 12 b9 05 0b
        E 12 b9 05 0a
        E 12 b9 05 08
        E 12 b9 05 07
        E 12 b9 05 06
        E 12 b9 05 05
        E 12 b9 05 03
        E 12 b9 05 03
        E 12 b9 05 02
        E 12 b9 05 01
        E 12 b9 05 00
        E 12 b9 05 00
        E 12 b9 05 00
        E 12 b9 05 00
        E 12 b9 05 00
        E 12 b9 05 00
        E 12 b9 05 00
        E 12 b9 05 00
        E 12 b9 05 00
        E 12 b9 05 01
        E 12 b9 05 02
        E 12 b9 05 03
        E 12 b9 05 03
        E 12 b9 05 04
        E 12 b9 05 05
        E 12 b9 05 07
        E 12 b9 05 07
        E 12 b9 05 09
        E 12 b9 05 0b
        E 12 b9 05 0c
        E 12 b9 05 0e
        E 12 b9 05 10
        E 12 b9 05 12
        E 12 b9 05 14
        E 12 b9 05 16
        E 12 b9 05 18
        E 12 b9 05 1a
        E 12 b9 05 1c
        E 12 b9 05 1f
        E 12 b9 05 21
        E 12 b9 05 24
        E 12 b9 05 26
        E 12 b9 05 28
        E 12 b9 05 2b
        E 12 b9 05 2d
        E 12 b9 05 2f
        E 12 b9 05 33
        E 14 b9 05 06
        E 14 b9 05 06
        E 14 b9 05 07
        E 14 b9 05 07
        E 14 b9 05 07
        E 14 b9 05 07
        E 14 b9 05 08
        E 14 b9 05 08
        E 14 b9 05 08
        E 14 b9 05 09
        E 14 b9 05 09
        E 14 b9 05 09
        E 14 b9 05 09
        E 14 b9 05 0a
        E 14 b9 05 0a
        E 14 b9 05 0a
        E 14 b9 05 0a
        E 14 b9 05 0b
        E 14 b9 05 0b
        E 14 b9 05 0b
        E 14 b9 05 0b
        E 14 b9 05 0b
        E 14 b9 05 0c
        E 14 b9 05 0c
        E 14 b9 05 0c
        E 14 b9 05 0c
        E 14 b9 05 0c
        E 14 b9 05 0c
        E 14 b9 05 0c
        E 14 b9 05 0c
        E 14 b9 05 0c
        E 14 b9 05 0c
        E 14 b9 05 0c
        E 14 b9 05 0c
        E 14 b9 05 0c
        E 14 b9 05 0c
        E 14 b9 05 0c
        E 14 b9 05 0c
        E 14 b9 05 0c
        E 14 b9 05 0c
        E 14 b9 05 0c
        E 14 b9 05 0c
        E 14 b9 05 0b
        E 14 b9 05 0b
        E 14 b9 05 0b
        E 14 b9 05 0b
        E 14 b9 05 0b
        E 14 b9 05 0b
        E 14 b9 05 0a
        E 14 b9 05 0a
        E 14 b9 05 0a
        E 14 b9 05 0a
        E 14 b9 05 09
        E 14 b9 05 09
        E 14 b9 05 09
        E 14 b9 05 08
        E 14 b9 05 08
        E 14 b9 05 08
        E 14 b9 05 08
        E 14 b9 05 07
        E 14 b9 05 07
        E 14 b9 05 07
        E 14 b9 05 06
        E 14 b9 05 06
        E 14 b9 05 06
        E 14 b9 05 05
        E 14 b9 05 05
        E 14 b9 05 05
        E 14 b9 05 04
        E 14 b9 05 04
        E 14 b9 05 04
        E 14 b9 05 04
        E 14 b9 05 03
        E 14 b9 05 03
        E 14 b9 05 03
        E 14 b9 05 02
        E 14 b9 05 02
        E 14 b9 05 02
        E 14 b9 05 02
        E 14 b9 05 01
        E 14 b9 05 01
        E 14 b9 05 01
        E 14 b9 05 01
        E 14 b9 05 01
        E 14 b9 05 01
        E 14 b9 05 00
        E 14 b9 05 00
        E 14 b9 05 00
        E 14 b9 05 00
        E 14 b9 05 00
        E 14 b9 05 00
        E 14 b9 05 00
        E 14 b9 05 00
        E 14 b9 05 00
        E 14 b9 05 00
        E 14 b9 05 00
        E 14 b9 05 00
        E 14 b9 05 00
        E 14 b9 05 00
        E 14 b9 05 00
        E 14 b9 05 00
        E 14 b9 05 00
        E 14 b9 05 00
        E 14 b9 05 00
        E 14 b9 05 00
        E 14 b9 05 00
        E 14 b9 05 00
        E 14 b9 05 01
        E 14 b9 05 01
        E 14 b9 05 01
        E 14 b9 05 01
        E 14 b9 05 01
        E 14 b9 05 02
        E 14 b9 05 02
        E 14 b9 05 02
        E 14 b9 05 02
        E 14 b9 05 03
        E 14 b9 05 03
        E 14 b9 05 03
        E 14 b9 05 03
        E 14 b9 05 04
        E 14 b9 05 04
        E 14 b9 05 04
        E 14 b9 05 05
        E 14 b9 05 05
        E 14 b9 05 05
        E 14 b9 05 06
        E 14 b9 05 06
        E 12 b9 05 19
        E 12 b9 05 1a
        E 12 b9 05 1c
        E 12 b9 05 1d
        E 12 b9 05 1e
        E 12 b9 05 1f
        E 12 b9 05 20
        E 12 b9 05 22
        E 12 b9 05 23
        E 12 b9 05 24
        E 12 b9 05 25
        E 12 b9 05 26
        E 12 b9 05 27
        E 12 b9 05 28
        E 12 b9 05 29
        E 12 b9 05 2a
        E 12 b9 05 2b
        E 12 b9 05 2c
        E 12 b9 05 2d
        E 12 b9 05 2e
        E 12 b9 05 2e
        E 12 b9 05 2f
        E 12 b9 05 30
        E 12 b9 05 30
        E 12 b9 05 30
        E 12 b9 05 31
        E 12 b9 05 31
        E 12 b9 05 32
        E 12 b9 05 32
        E 12 b9 05 32
        E 12 b9 05 32
        E 12 b9 05 32
        E 12 b9 05 32
        E 12 b9 05 32
        E 12 b9 05 32
        E 12 b9 05 32
        E 12 b9 05 32
        E 12 b9 05 32
        E 12 b9 05 31
        E 12 b9 05 31
        E 12 b9 05 30
        E 12 b9 05 30
        E 12 b9 05 2f
        E 12 b9 05 2e
        E 12 b9 05 2e
        E 12 b9 05 2d
        E 12 b9 05 2c
        E 12 b9 05 2c
        E 12 b9 05 2b
        E 12 b9 05 2a
        E 12 b9 05 29
        E 12 b9 05 28
        E 12 b9 05 27
        E 12 b9 05 26
        E 12 b9 05 24
        E 12 b9 05 23
        E 12 b9 05 22
        E 12 b9 05 21
        E 12 b9 05 20
        E 12 b9 05 1f
        E 12 b9 05 1d
        E 12 b9 05 1c
        E 12 b9 05 1b
        E 12 b9 05 1a
        E 12 b9 05 18
        E 12 b9 05 17
        E 12 b9 05 16
        E 12 b9 05 15
        E 12 b9 05 13
        E 12 b9 05 12
        E 12 b9 05 11
        E 12 b9 05 10
        E 12 b9 05 0f
        E 12 b9 05 0e
        E 12 b9 05 0c
        E 12 b9 05 0b
        E 12 b9 05 0a
        E 12 b9 05 09
        E 12 b9 05 08
        E 12 b9 05 07
        E 12 b9 05 06
        E 12 b9 05 06
        E 12 b9 05 05
        E 12 b9 05 04
        E 12 b9 05 04
        E 12 b9 05 03
        E 12 b9 05 02
        E 12 b9 05 02
        E 12 b9 05 01
        E 12 b9 05 01
        E 12 b9 05 00
        E 12 b9 05 00
        E 12 b9 05 00
        E 12 b9 05 00
        E 12 b9 05 00
        E 12 b9 05 00
        E 12 b9 05 00
        E 12 b9 05 00
        E 12 b9 05 00
        E 12 b9 05 00
        E 12 b9 05 00
        E 12 b9 05 01
        E 12 b9 05 01
        E 12 b9 05 02
        E 12 b9 05 02
        E 12 b9 05 02
        E 12 b9 05 03
        E 12 b9 05 04
        E 12 b9 05 04
        E 12 b9 05 05
        E 12 b9 05 06
        E 12 b9 05 07
        E 12 b9 05 08
        E 12 b9 05 09
        E 12 b9 05 0a
        E 12 b9 05 0b
        E 12 b9 05 0c
        E 12 b9 05 0d
        E 12 b9 05 0e
        E 12 b9 05 0f
        E 12 b9 05 10
        E 12 b9 05 12
        E 12 b9 05 13
        E 12 b9 05 14
        E 12 b9 05 15
        E 12 b9 05 16
        E 12 b9 05 18
        E 12 b9 05 19
        E 7 b9 05 2c
        E 7 b9 05 2e
        E 7 b9 05 31
        E 7 b9 05 33
        E 7 b9 05 35
        E 7 b9 05 37
        E 7 b9 05 39
        E 7 b9 05 3b
        E 7 b9 05 3d
        E 7 b9 05 3f
        E 7 b9 05 41
        E 7 b9 05 43
        E 7 b9 05 45
        E 7 b9 05 47
        E 7 b9 05 48
        E 7 b9 05 4a
        E 7 b9 05 4c
        E 7 b9 05 4d
        E 7 b9 05 4f
        E 7 b9 05 50
        E 7 b9 05 51
        E 7 b9 05 52
        E 7 b9 05 54
        E 7 b9 05 54
        E 7 b9 05 55
        E 7 b9 05 56
        E 7 b9 05 56
        E 7 b9 05 57
        E 7 b9 05 58
        E 7 b9 05 58
        E 7 b9 05 58
        E 7 b9 05 58
        E 7 b9 05 58
        E 7 b9 05 58
        E 7 b9 05 58
        E 7 b9 05 58
        E 7 b9 05 58
        E 7 b9 05 57
        E 7 b9 05 56
        E 7 b9 05 56
        E 7 b9 05 55
        E 7 b9 05 54
        E 7 b9 05 53
        E 7 b9 05 51
        E 7 b9 05 51
        E 7 b9 05 4f
        E 7 b9 05 4e
        E 7 b9 05 4d
        E 7 b9 05 4b
        E 7 b9 05 49
        E 7 b9 05 48
        E 7 b9 05 46
        E 7 b9 05 44
        E 7 b9 05 42
        E 7 b9 05 40
        E 7 b9 05 3e
        E 7 b9 05 3c
        E 7 b9 05 3a
        E 7 b9 05 38
        E 7 b9 05 36
        E 7 b9 05 33
        E 7 b9 05 31
        E 7 b9 05 2f
        E 7 b9 05 2d
        E 7 b9 05 2b
        E 7 b9 05 29
        E 7 b9 05 27
        E 7 b9 05 25
        E 7 b9 05 22
        E 7 b9 05 20
        E 7 b9 05 1e
        E 7 b9 05 1c
        E 7 b9 05 1a
        E 7 b9 05 18
        E 7 b9 05 16
        E 7 b9 05 14
        E 7 b9 05 12
        E 7 b9 05 10
        E 7 b9 05 0f
        E 7 b9 05 0d
        E 7 b9 05 0b
        E 7 b9 05 0a
        E 7 b9 05 09
        E 7 b9 05 07
        E 7 b9 05 07
        E 7 b9 05 05
        E 7 b9 05 04
        E 7 b9 05 03
        E 7 b9 05 02
        E 7 b9 05 02
        E 7 b9 05 01
        E 7 b9 05 00
        E 7 b9 05 00
        E 7 b9 05 00
        E 7 b9 05 00
        E 7 b9 05 00
        E 7 b9 05 00
        E 7 b9 05 00
        E 7 b9 05 00
        E 7 b9 05 00
        E 7 b9 05 01
        E 7 b9 05 02
        E 7 b9 05 02
        E 7 b9 05 03
        E 7 b9 05 04
        E 7 b9 05 04
        E 7 b9 05 06
        E 7 b9 05 07
        E 7 b9 05 08
        E 7 b9 05 09
        E 7 b9 05 0b
        E 7 b9 05 0c
        E 7 b9 05 0e
        E 7 b9 05 10
        E 7 b9 05 11
        E 7 b9 05 13
        E 7 b9 05 15
        E 7 b9 05 17
        E 7 b9 05 19
        E 7 b9 05 1b
        E 7 b9 05 1d
        E 7 b9 05 1f
        E 7 b9 05 21
        E 7 b9 05 23
        E 7 b9 05 25
        E 7 b9 05 27
        E 7 b9 05 2a
        E 7 b9 05 2c
        E 7 b9 05 20
        E 7 b9 05 21
        E 7 b9 05 23
        E 7 b9 05 24
        E 7 b9 05 26
        E 7 b9 05 27
        E 7 b9 05 29
        E 7 b9 05 2a
        E 7 b9 05 2c
        E 7 b9 05 2d
        E 7 b9 05 2f
        E 7 b9 05 30
        E 7 b9 05 31
        E 7 b9 05 33
        E 7 b9 05 34
        E 7 b9 05 35
        E 7 b9 05 36
        E 7 b9 05 37
        E 7 b9 05 38
        E 7 b9 05 39
        E 7 b9 05 3a
        E 7 b9 05 3b
        E 7 b9 05 3c
        E 7 b9 05 3c
        E 7 b9 05 3d
        E 7 b9 05 3d
        E 7 b9 05 3e
        E 7 b9 05 3e
        E 7 b9 05 3f
        E 7 b9 05 3f
        E 7 b9 05 3f
        E 7 b9 05 3f
        E 7 b9 05 3f
        E 7 b9 05 3f
        E 7 b9 05 3f
        E 7 b9 05 3f
        E 7 b9 05 3f
        E 7 b9 05 3e
        E 7 b9 05 3e
        E 7 b9 05 3d
        E 7 b9 05 3d
        E 7 b9 05 3c
        E 7 b9 05 3b
        E 7 b9 05 3a
        E 7 b9 05 3a
        E 7 b9 05 39
        E 7 b9 05 38
        E 7 b9 05 37
        E 7 b9 05 36
        E 7 b9 05 34
        E 7 b9 05 33
        E 7 b9 05 32
        E 7 b9 05 31
        E 7 b9 05 2f
        E 7 b9 05 2e
        E 7 b9 05 2c
        E 7 b9 05 2b
        E 7 b9 05 2a
        E 7 b9 05 28
        E 7 b9 05 27
        E 7 b9 05 25
        E 7 b9 05 23
        E 7 b9 05 22
        E 7 b9 05 20
        E 7 b9 05 1f
        E 7 b9 05 1d
        E 7 b9 05 1c
        E 7 b9 05 1a
        E 7 b9 05 18
        E 7 b9 05 17
        E 7 b9 05 15
        E 7 b9 05 14
        E 7 b9 05 13
        E 7 b9 05 11
        E 7 b9 05 10
        E 7 b9 05 0e
        E 7 b9 05 0d
        E 7 b9 05 0c
        E 7 b9 05 0b
        E 7 b9 05 09
        E 7 b9 05 08
        E 7 b9 05 07
        E 7 b9 05 06
        E 7 b9 05 05
        E 7 b9 05 05
        E 7 b9 05 04
        E 7 b9 05 03
        E 7 b9 05 02
        E 7 b9 05 02
        E 7 b9 05 01
        E 7 b9 05 01
        E 7 b9 05 00
        E 7 b9 05 00
        E 7 b9 05 00
        E 7 b9 05 00
        E 7 b9 05 00
        E 7 b9 05 00
        E 7 b9 05 00
        E 7 b9 05 00
        E 7 b9 05 00
        E 7 b9 05 01
        E 7 b9 05 01
        E 7 b9 05 02
        E 7 b9 05 02
        E 7 b9 05 03
        E 7 b9 05 03
        E 7 b9 05 04
        E 7 b9 05 05
        E 7 b9 05 06
        E 7 b9 05 07
        E 7 b9 05 08
        E 7 b9 05 09
        E 7 b9 05 0a
        E 7 b9 05 0b
        E 7 b9 05 0c
        E 7 b9 05 0e
        E 7 b9 05 0f
        E 7 b9 05 10
        E 7 b9 05 12
        E 7 b9 05 13
        E 7 b9 05 15
        E 7 b9 05 16
        E 7 b9 05 18
        E 7 b9 05 19
        E 7 b9 05 1b
        E 7 b9 05 1c
        E 7 b9 05 1e
        E 7 b9 05 20
        E 9 b9 05 20
        E 9 b9 05 21
        E 9 b9 05 23
        E 9 b9 05 24
        E 9 b9 05 26
        E 9 b9 05 27
        E 9 b9 05 29
        E 9 b9 05 2a
        E 9 b9 05 2c
        E 9 b9 05 2d
        E 9 b9 05 2f
        E 9 b9 05 30
        E 9 b9 05 31
        E 9 b9 05 33
        E 9 b9 05 34
        E 9 b9 05 35
        E 9 b9 05 36
        E 9 b9 05 37
        E 9 b9 05 38
        E 9 b9 05 39
        E 9 b9 05 3a
        E 9 b9 05 3b
        E 9 b9 05 3c
        E 9 b9 05 3c
        E 9 b9 05 3d
        E 9 b9 05 3d
        E 9 b9 05 3e
        E 9 b9 05 3e
        E 9 b9 05 3f
        E 9 b9 05 3f
        E 9 b9 05 3f
        E 9 b9 05 3f
        E 9 b9 05 3f
        E 9 b9 05 3f
        E 9 b9 05 3f
        E 9 b9 05 3f
        E 9 b9 05 3f
        E 9 b9 05 3e
        E 9 b9 05 3e
        E 9 b9 05 3d
        E 9 b9 05 3d
        E 9 b9 05 3c
        E 9 b9 05 3b
        E 9 b9 05 3a
        E 9 b9 05 3a
        E 9 b9 05 39
        E 9 b9 05 38
        E 9 b9 05 37
        E 9 b9 05 36
        E 9 b9 05 34
        E 9 b9 05 33
        E 9 b9 05 32
        E 9 b9 05 31
        E 9 b9 05 2f
        E 9 b9 05 2e
        E 9 b9 05 2c
        E 9 b9 05 2b
        E 9 b9 05 2a
        E 9 b9 05 28
        E 9 b9 05 27
        E 9 b9 05 25
        E 9 b9 05 23
        E 9 b9 05 22
        E 9 b9 05 20
        E 9 b9 05 1f
        E 9 b9 05 1d
        E 9 b9 05 1c
        E 9 b9 05 1a
        E 9 b9 05 18
        E 9 b9 05 17
        E 9 b9 05 15
        E 9 b9 05 14
        E 9 b9 05 13
        E 9 b9 05 11
        E 9 b9 05 10
        E 9 b9 05 0e
        E 9 b9 05 0d
        E 9 b9 05 0c
        E 9 b9 05 0b
        E 9 b9 05 09
        E 9 b9 05 08
        E 9 b9 05 07
        E 9 b9 05 06
        E 9 b9 05 05
        E 9 b9 05 05
        E 9 b9 05 04
        E 9 b9 05 03
        E 9 b9 05 02
        E 9 b9 05 02
        E 9 b9 05 01
        E 9 b9 05 01
        E 9 b9 05 00
        E 9 b9 05 00
        E 9 b9 05 00
        E 9 b9 05 00
        E 9 b9 05 00
        E 9 b9 05 00
        E 9 b9 05 00
        E 9 b9 05 00
        E 9 b9 05 00
        E 9 b9 05 01
        E 9 b9 05 01
        E 9 b9 05 02
        E 9 b9 05 02
        E 9 b9 05 03
        E 9 b9 05 03
        E 9 b9 05 04
        E 9 b9 05 05
        E 9 b9 05 06
        E 9 b9 05 07
        E 9 b9 05 08
        E 9 b9 05 09
        E 9 b9 05 0a
        E 9 b9 05 0b
        E 9 b9 05 0c
        E 9 b9 05 0e
        E 9 b9 05 0f
        E 9 b9 05 10
        E 9 b9 05 12
        E 9 b9 05 13
        E 9 b9 05 15
        E 9 b9 05 16
        E 9 b9 05 18
        E 9 b9 05 19
        E 9 b9 05 1b
        E 9 b9 05 1c
        E 9 b9 05 1e
        E 9 b9 05 20
        E 11 b9 05 40
        E 11 b9 05 43
        E 11 b9 05 46
        E 11 b9 05 49
        E 11 b9 05 4c
        E 11 b9 05 4f
        E 11 b9 05 52
        E 11 b9 05 55
        E 11 b9 05 58
        E 11 b9 05 5b
        E 11 b9 05 5e
        E 11 b9 05 60
        E 11 b9 05 63
        E 11 b9 05 66
        E 11 b9 05 68
        E 11 b9 05 6a
        E 11 b9 05 6d
        E 11 b9 05 6f
        E 11 b9 05 71
        E 11 b9 05 73
        E 11 b9 05 75
        E 11 b9 05 76
        E 11 b9 05 78
        E 11 b9 05 79
        E 11 b9 05 7a
        E 11 b9 05 7b
        E 11 b9 05 7c
        E 11 b9 05 7d
        E 11 b9 05 7e
        E 11 b9 05 7e
        E 11 b9 05 7f
        E 11 b9 05 7f
        E 11 b9 05 7f
        E 11 b9 05 7f
        E 11 b9 05 7f
        E 11 b9 05 7e
        E 11 b9 05 7e
        E 11 b9 05 7d
        E 11 b9 05 7c
        E 11 b9 05 7b
        E 11 b9 05 7a
        E 11 b9 05 78
        E 11 b9 05 77
        E 11 b9 05 75
        E 11 b9 05 74
        E 11 b9 05 72
        E 11 b9 05 70
        E 11 b9 05 6e
        E 11 b9 05 6c
        E 11 b9 05 69
        E 11 b9 05 67
        E 11 b9 05 64
        E 11 b9 05 62
        E 11 b9 05 5f
        E 11 b9 05 5c
        E 11 b9 05 59
        E 11 b9 05 57
        E 11 b9 05 54
        E 11 b9 05 51
        E 11 b9 05 4e
        E 11 b9 05 4a
        E 11 b9 05 47
        E 11 b9 05 44
        E 11 b9 05 41
        E 11 b9 05 3e
        E 11 b9 05 3b
        E 11 b9 05 38
        E 11 b9 05 35
        E 11 b9 05 31
        E 11 b9 05 2e
        E 11 b9 05 2b
        E 11 b9 05 28
        E 11 b9 05 26
        E 11 b9 05 23
        E 11 b9 05 20
        E 11 b9 05 1d
        E 11 b9 05 1b
        E 11 b9 05 18
        E 11 b9 05 16
        E 11 b9 05 13
        E 11 b9 05 11
        E 11 b9 05 0f
        E 11 b9 05 0d
        E 11 b9 05 0b
        E 11 b9 05 0a
        E 11 b9 05 08
        E 11 b9 05 07
        E 11 b9 05 05
        E 11 b9 05 04
        E 11 b9 05 03
        E 11 b9 05 02
        E 11 b9 05 01
        E 11 b9 05 01
        E 11 b9 05 00
        E 11 b9 05 00
        E 11 b9 05 00
        E 11 b9 05 00
        E 11 b9 05 00
        E 11 b9 05 01
        E 11 b9 05 01
        E 11 b9 05 02
        E 11 b9 05 03
        E 11 b9 05 04
        E 11 b9 05 05
        E 11 b9 05 06
        E 11 b9 05 07
        E 11 b9 05 09
        E 11 b9 05 0a
        E 11 b9 05 0c
        E 11 b9 05 0e
        E 11 b9 05 10
        E 11 b9 05 12
        E 11 b9 05 15
        E 11 b9 05 17
        E 11 b9 05 19
        E 11 b9 05 1c
        E 11 b9 05 1f
        E 11 b9 05 21
        E 11 b9 05 24
        E 11 b9 05 27
        E 11 b9 05 2a
        E 11 b9 05 2d
        E 11 b9 05 30
        E 11 b9 05 33
        E 11 b9 05 36
        E 11 b9 05 39
        E 11 b9 05 3c
        E 11 b9 05 40
        E 1 b9 05 39
        E 1 b9 05 3c
        E 1 b9 05 3f
        E 1 b9 05 41
        E 1 b9 05 44
        E 1 b9 05 47
        E 1 b9 05 49
        E 1 b9 05 4c
        E 1 b9 05 4f
        E 1 b9 05 51
        E 1 b9 05 54
        E 1 b9 05 56
        E 1 b9 05 59
        E 1 b9 05 5b
        E 1 b9 05 5d
        E 1 b9 05 5f
        E 1 b9 05 62
        E 1 b9 05 63
        E 1 b9 05 65
        E 1 b9 05 67
        E 1 b9 05 69
        E 1 b9 05 6a
        E 1 b9 05 6c
        E 1 b9 05 6c
        E 1 b9 05 6d
        E 1 b9 05 6e
        E 1 b9 05 6f
        E 1 b9 05 70
        E 1 b9 05 71
        E 1 b9 05 71
        E 1 b9 05 72
        E 1 b9 05 72
        E 1 b9 05 72
        E 1 b9 05 72
        E 1 b9 05 72
        E 1 b9 05 71
        E 1 b9 05 71
        E 1 b9 05 70
        E 1 b9 05 6f
        E 1 b9 05 6e
        E 1 b9 05 6d
        E 1 b9 05 6c
        E 1 b9 05 6b
        E 1 b9 05 69
        E 1 b9 05 68
        E 1 b9 05 66
        E 1 b9 05 64
        E 1 b9 05 63
        E 1 b9 05 61
        E 1 b9 05 5e
        E 1 b9 05 5c
        E 1 b9 05 5a
        E 1 b9 05 58
        E 1 b9 05 55
        E 1 b9 05 52
        E 1 b9 05 50
        E 1 b9 05 4e
        E 1 b9 05 4b
        E 1 b9 05 48
        E 1 b9 05 46
        E 1 b9 05 42
        E 1 b9 05 3f
        E 1 b9 05 3d
        E 1 b9 05 3a
        E 1 b9 05 37
        E 1 b9 05 35
        E 1 b9 05 32
        E 1 b9 05 2f
        E 1 b9 05 2c
        E 1 b9 05 29
        E 1 b9 05 26
        E 1 b9 05 24
        E 1 b9 05 22
        E 1 b9 05 1f
        E 1 b9 05 1c
        E 1 b9 05 1a
        E 1 b9 05 18
        E 1 b9 05 15
        E 1 b9 05 13
        E 1 b9 05 11
        E 1 b9 05 0f
        E 1 b9 05 0d
        E 1 b9 05 0b
        E 1 b9 05 09
        E 1 b9 05 09
        E 1 b9 05 07
        E 1 b9 05 06
        E 1 b9 05 04
        E 1 b9 05 03
        E 1 b9 05 02
        E 1 b9 05 01
        E 1 b9 05 00
        E 1 b9 05 00
        E 1 b9 05 00
        E 1 b9 05 00
        E 1 b9 05 00
        E 1 b9 05 00
        E 1 b9 05 00
        E 1 b9 05 00
        E 1 b9 05 00
        E 1 b9 05 01
        E 1 b9 05 02
        E 1 b9 05 03
        E 1 b9 05 04
        E 1 b9 05 05
        E 1 b9 05 06
        E 1 b9 05 08
        E 1 b9 05 09
        E 1 b9 05 0a
        E 1 b9 05 0c
        E 1 b9 05 0e
        E 1 b9 05 10
        E 1 b9 05 12
        E 1 b9 05 14
        E 1 b9 05 16
        E 1 b9 05 19
        E 1 b9 05 1b
        E 1 b9 05 1d
        E 1 b9 05 20
        E 1 b9 05 23
        E 1 b9 05 25
        E 1 b9 05 28
        E 1 b9 05 2b
        E 1 b9 05 2d
        E 1 b9 05 30
        E 1 b9 05 33
        E 1 b9 05 36
        E 1 b9 05 39
        E 5 b9 05 40
        E 5 b9 05 43
        E 5 b9 05 46
        E 5 b9 05 49
        E 5 b9 05 4c
        E 5 b9 05 4f
        E 5 b9 05 52
        E 5 b9 05 55
        E 5 b9 05 58
        E 5 b9 05 5b
        E 5 b9 05 5e
        E 5 b9 05 60
        E 5 b9 05 63
        E 5 b9 05 66
        E 5 b9 05 68
        E 5 b9 05 6a
        E 5 b9 05 6d
        E 5 b9 05 6f
        E 5 b9 05 71
        E 5 b9 05 73
        E 5 b9 05 75
        E 5 b9 05 76
        E 5 b9 05 78
        E 5 b9 05 79
        E 5 b9 05 7a
        E 5 b9 05 7b
        E 5 b9 05 7c
        E 5 b9 05 7d
        E 5 b9 05 7e
        E 5 b9 05 7e
        E 5 b9 05 7f
        E 5 b9 05 7f
        E 5 b9 05 7f
        E 5 b9 05 7f
        E 5 b9 05 7f
        E 5 b9 05 7e
        E 5 b9 05 7e
        E 5 b9 05 7d
        E 5 b9 05 7c
        E 5 b9 05 7b
        E 5 b9 05 7a
        E 5 b9 05 78
        E 5 b9 05 77
        E 5 b9 05 75
        E 5 b9 05 74
        E 5 b9 05 72
        E 5 b9 05 70
        E 5 b9 05 6e
        E 5 b9 05 6c
        E 5 b9 05 69
        E 5 b9 05 67
        E 5 b9 05 64
        E 5 b9 05 62
        E 5 b9 05 5f
        E 5 b9 05 5c
        E 5 b9 05 59
        E 5 b9 05 57
        E 5 b9 05 54
        E 5 b9 05 51
        E 5 b9 05 4e
        E 5 b9 05 4a
        E 5 b9 05 47
        E 5 b9 05 44
        E 5 b9 05 41
        E 5 b9 05 3e
        E 5 b9 05 3b
        E 5 b9 05 38
        E 5 b9 05 35
        E 5 b9 05 31
        E 5 b9 05 2e
        E 5 b9 05 2b
        E 5 b9 05 28
        E 5 b9 05 26
        E 5 b9 05 23
        E 5 b9 05 20
        E 5 b9 05 1d
        E 5 b9 05 1b
        E 5 b9 05 18
        E 5 b9 05 16
        E 5 b9 05 13
        E 5 b9 05 11
        E 5 b9 05 0f
        E 5 b9 05 0d
        E 5 b9 05 0b
        E 5 b9 05 0a
        E 5 b9 05 08
        E 5 b9 05 07
        E 5 b9 05 05
        E 5 b9 05 04
        E 5 b9 05 03
        E 5 b9 05 02
        E 5 b9 05 01
        E 5 b9 05 01
        E 5 b9 05 00
        E 5 b9 05 00
        E 5 b9 05 00
        E 5 b9 05 00
        E 5 b9 05 00
        E 5 b9 05 01
        E 5 b9 05 01
        E 5 b9 05 02
        E 5 b9 05 03
        E 5 b9 05 04
        E 5 b9 05 05
        E 5 b9 05 06
        E 5 b9 05 07
        E 5 b9 05 09
        E 5 b9 05 0a
        E 5 b9 05 0c
        E 5 b9 05 0e
        E 5 b9 05 10
        E 5 b9 05 12
        E 5 b9 05 15
        E 5 b9 05 17
        E 5 b9 05 19
        E 5 b9 05 1c
        E 5 b9 05 1f
        E 5 b9 05 21
        E 5 b9 05 24
        E 5 b9 05 27
        E 5 b9 05 2a
        E 5 b9 05 2d
        E 5 b9 05 30
        E 5 b9 05 33
        E 5 b9 05 36
        E 5 b9 05 39
        E 5 b9 05 3c
        E 5 b9 05 40
        E 9 b9 05 39
        E 9 b9 05 3c
        E 9 b9 05 3f
        E 9 b9 05 41
        E 9 b9 05 44
        E 9 b9 05 47
        E 9 b9 05 49
        E 9 b9 05 4c
        E 9 b9 05 4f
        E 9 b9 05 51
        E 9 b9 05 54
        E 9 b9 05 56
        E 9 b9 05 59
        E 9 b9 05 5b
        E 9 b9 05 5d
        E 9 b9 05 5f
        E 9 b9 05 62
        E 9 b9 05 63
        E 9 b9 05 65
        E 9 b9 05 67
        E 9 b9 05 69
        E 9 b9 05 6a
        E 9 b9 05 6c
        E 9 b9 05 6c
        E 9 b9 05 6d
        E 9 b9 05 6e
        E 9 b9 05 6f
        E 9 b9 05 70
        E 9 b9 05 71
        E 9 b9 05 71
        E 9 b9 05 72
        E 9 b9 05 72
        E 9 b9 05 72
        E 9 b9 05 72
        E 9 b9 05 72
        E 9 b9 05 71
        E 9 b9 05 71
        E 9 b9 05 70
        E 9 b9 05 6f
        E 9 b9 05 6e
        E 9 b9 05 6d
        E 9 b9 05 6c
        E 9 b9 05 6b
        E 9 b9 05 69
        E 9 b9 05 68
        E 9 b9 05 66
        E 9 b9 05 64
        E 9 b9 05 63
        E 9 b9 05 61
        E 9 b9 05 5e
        E 9 b9 05 5c
        E 9 b9 05 5a
        E 9 b9 05 58
        E 9 b9 05 55
        E 9 b9 05 52
        E 9 b9 05 50
        E 9 b9 05 4e
        E 9 b9 05 4b
        E 9 b9 05 48
        E 9 b9 05 46
        E 9 b9 05 42
        E 9 b9 05 3f
        E 9 b9 05 3d
        E 9 b9 05 3a
        E 9 b9 05 37
        E 9 b9 05 35
        E 9 b9 05 32
        E 9 b9 05 2f
        E 9 b9 05 2c
        E 9 b9 05 29
        E 9 b9 05 26
        E 9 b9 05 24
        E 9 b9 05 22
        E 9 b9 05 1f
        E 9 b9 05 1c
        E 9 b9 05 1a
        E 9 b9 05 18
        E 9 b9 05 15
        E 9 b9 05 13
        E 9 b9 05 11
        E 9 b9 05 0f
        E 9 b9 05 0d
        E 9 b9 05 0b
        E 9 b9 05 09
        E 9 b9 05 09
        E 9 b9 05 07
        E 9 b9 05 06
        E 9 b9 05 04
        E 9 b9 05 03
        E 9 b9 05 02
        E 9 b9 05 01
        E 9 b9 05 00
        E 9 b9 05 00
        E 9 b9 05 00
        E 9 b9 05 00
        E 9 b9 05 00
        E 9 b9 05 00
        E 9 b9 05 00
        E 9 b9 05 00
        E 9 b9 05 00
        E 9 b9 05 01
        E 9 b9 05 02
        E 9 b9 05 03
        E 9 b9 05 04
        E 9 b9 05 05
        E 9 b9 05 06
        E 9 b9 05 08
        E 9 b9 05 09
        E 9 b9 05 0a
        E 9 b9 05 0c
        E 9 b9 05 0e
        E 9 b9 05 10
        E 9 b9 05 12
        E 9 b9 05 14
        E 9 b9 05 16
        E 9 b9 05 19
        E 9 b9 05 1b
        E 9 b9 05 1d
        E 9 b9 05 20
        E 9 b9 05 23
        E 9 b9 05 25
        E 9 b9 05 28
        E 9 b9 05 2b
        E 9 b9 05 2d
        E 9 b9 05 30
        E 9 b9 05 33
        E 9 b9 05 36
        E 9 b9 05 39
        E 7 b9 05 20
        E 7 b9 05 21
        E 7 b9 05 23
        E 7 b9 05 24
        E 7 b9 05 26
        E 7 b9 05 27
        E 7 b9 05 29
        E 7 b9 05 2a
        E 7 b9 05 2c
        E 7 b9 05 2d
        E 7 b9 05 2f
        E 7 b9 05 30
        E 7 b9 05 31
        E 7 b9 05 33
        E 7 b9 05 34
        E 7 b9 05 35
        E 7 b9 05 36
        E 7 b9 05 37
        E 7 b9 05 38
        E 7 b9 05 39
        E 7 b9 05 3a
        E 7 b9 05 3b
        E 7 b9 05 3c
        E 7 b9 05 3c
        E 7 b9 05 3d
        E 7 b9 05 3d
        E 7 b9 05 3e
        E 7 b9 05 3e
        E 7 b9 05 3f
        E 7 b9 05 3f
        E 7 b9 05 3f
        E 7 b9 05 3f
        E 7 b9 05 3f
        E 7 b9 05 3f
        E 7 b9 05 3f
        E 7 b9 05 3f
        E 7 b9 05 3f
        E 7 b9 05 3e
        E 7 b9 05 3e
        E 7 b9 05 3d
        E 7 b9 05 3d
        E 7 b9 05 3c
        E 7 b9 05 3b
        E 7 b9 05 3a
        E 7 b9 05 3a
        E 7 b9 05 39
        E 7 b9 05 38
        E 7 b9 05 37
        E 7 b9 05 36
        E 7 b9 05 34
        E 7 b9 05 33
        E 7 b9 05 32
        E 7 b9 05 31
        E 7 b9 05 2f
        E 7 b9 05 2e
        E 7 b9 05 2c
        E 7 b9 05 2b
        E 7 b9 05 2a
        E 7 b9 05 28
        E 7 b9 05 27
        E 7 b9 05 25
        E 7 b9 05 23
        E 7 b9 05 22
        E 7 b9 05 20
        E 7 b9 05 1f
        E 7 b9 05 1d
        E 7 b9 05 1c
        E 7 b9 05 1a
        E 7 b9 05 18
        E 7 b9 05 17
        E 7 b9 05 15
        E 7 b9 05 14
        E 7 b9 05 13
        E 7 b9 05 11
        E 7 b9 05 10
        E 7 b9 05 0e
        E 7 b9 05 0d
        E 7 b9 05 0c
        E 7 b9 05 0b
        E 7 b9 05 09
        E 7 b9 05 08
        E 7 b9 05 07
        E 7 b9 05 06
        E 7 b9 05 05
        E 7 b9 05 05
        E 7 b9 05 04
        E 7 b9 05 03
        E 7 b9 05 02
        E 7 b9 05 02
        E 7 b9 05 01
        E 7 b9 05 01
        E 7 b9 05 00
        E 7 b9 05 00
        E 7 b9 05 00
        E 7 b9 05 00
        E 7 b9 05 00
        E 7 b9 05 00
        E 7 b9 05 00
        E 7 b9 05 00
        E 7 b9 05 00
        E 7 b9 05 01
        E 7 b9 05 01
        E 7 b9 05 02
        E 7 b9 05 02
        E 7 b9 05 03
        E 7 b9 05 03
        E 7 b9 05 04
        E 7 b9 05 05
        E 7 b9 05 06
        E 7 b9 05 07
        E 7 b9 05 08
        E 7 b9 05 09
        E 7 b9 05 0a
        E 7 b9 05 0b
        E 7 b9 05 0c
        E 7 b9 05 0e
        E 7 b9 05 0f
        E 7 b9 05 10
        E 7 b9 05 12
        E 7 b9 05 13
        E 7 b9 05 15
        E 7 b9 05 16
        E 7 b9 05 18
        E 7 b9 05 19
        E 7 b9 05 1b
        E 7 b9 05 1c
        E 7 b9 05 1e
        E 7 b9 05 20
        E 7 b9 05 20
        E 7 b9 05 21
        E 7 b9 05 23
        E 7 b9 05 24
        E 7 b9 05 26
        E 7 b9 05 27
        E 7 b9 05 29
        E 7 b9 05 2a
        E 7 b9 05 2c
        E 7 b9 05 2d
        E 7 b9 05 2f
        E 7 b9 05 30
        E 7 b9 05 31
        E 7 b9 05 33
        E 7 b9 05 34
        E 7 b9 05 35
        E 7 b9 05 36
        E 7 b9 05 37
        E 7 b9 05 38
        E 7 b9 05 39
        E 7 b9 05 3a
        E 7 b9 05 3b
        E 7 b9 05 3c
        E 7 b9 05 3c
        E 7 b9 05 3d
        E 7 b9 05 3d
        E 7 b9 05 3e
        E 7 b9 05 3e
        E 7 b9 05 3f
        E 7 b9 05 3f
        E 7 b9 05 3f
        E 7 b9 05 3f
        E 7 b9 05 3f
        E 7 b9 05 3f
        E 7 b9 05 3f
        E 7 b9 05 3f
        E 7 b9 05 3f
        E 7 b9 05 3e
        E 7 b9 05 3e
        E 7 b9 05 3d
        E 7 b9 05 3d
        E 7 b9 05 3c
        E 7 b9 05 3b
        E 7 b9 05 3a
        E 7 b9 05 3a
        E 7 b9 05 39
        E 7 b9 05 38
        E 7 b9 05 37
        E 7 b9 05 36
        E 7 b9 05 34
        E 7 b9 05 33
        E 7 b9 05 32
        E 7 b9 05 31
        E 7 b9 05 2f
        E 7 b9 05 2e
        E 7 b9 05 2c
        E 7 b9 05 2b
        E 7 b9 05 2a
        E 7 b9 05 28
        E 7 b9 05 27
        E 7 b9 05 25
        E 7 b9 05 23
        E 7 b9 05 22
        E 7 b9 05 20
        E 7 b9 05 1f
        E 7 b9 05 1d
        E 7 b9 05 1c
        E 7 b9 05 1a
        E 7 b9 05 18
        E 7 b9 05 17
        E 7 b9 05 15
        E 7 b9 05 14
        E 7 b9 05 13
        E 7 b9 05 11
        E 7 b9 05 10
        E 7 b9 05 0e
        E 7 b9 05 0d
        E 7 b9 05 0c
        E 7 b9 05 0b
        E 7 b9 05 09
        E 7 b9 05 08
        E 7 b9 05 07
        E 7 b9 05 06
        E 7 b9 05 05
        E 7 b9 05 05
        E 7 b9 05 04
        E 7 b9 05 03
        E 7 b9 05 02
        E 7 b9 05 02
        E 7 b9 05 01
        E 7 b9 05 01
        E 7 b9 05 00
        E 7 b9 05 00
        E 7 b9 05 00
        E 7 b9 05 00
        E 7 b9 05 00
        E 7 b9 05 00
        E 7 b9 05 00
        E 7 b9 05 00
        E 7 b9 05 00
        E 7 b9 05 01
        E 7 b9 05 01
        E 7 b9 05 02
        E 7 b9 05 02
        E 7 b9 05 03
        E 7 b9 05 03
        E 7 b9 05 04
        E 7 b9 05 05
        E 7 b9 05 06
        E 7 b9 05 07
        E 7 b9 05 08
        E 7 b9 05 09
        E 7 b9 05 0a
        E 7 b9 05 0b
        E 7 b9 05 0c
        E 7 b9 05 0e
        E 7 b9 05 0f
        E 7 b9 05 10
        E 7 b9 05 12
        E 7 b9 05 13
        E 7 b9 05 15
        E 7 b9 05 16
        E 7 b9 05 18
        E 7 b9 05 19
        E 7 b9 05 1b
        E 7 b9 05 1c
        E 7 b9 05 1e
        E 7 b9 05 20
        E 14 b9 05 2c
        E 14 b9 05 2e
        E 14 b9 05 31
        E 14 b9 05 33
        E 14 b9 05 35
        E 14 b9 05 37
        E 14 b9 05 39
        E 14 b9 05 3b
        E 14 b9 05 3d
        E 14 b9 05 3f
        E 14 b9 05 41
        E 14 b9 05 43
        E 14 b9 05 45
        E 14 b9 05 47
        E 14 b9 05 48
        E 14 b9 05 4a
        E 14 b9 05 4c
        E 14 b9 05 4d
        E 14 b9 05 4f
        E 14 b9 05 50
        E 14 b9 05 51
        E 14 b9 05 52
        E 14 b9 05 54
        E 14 b9 05 54
        E 14 b9 05 55
        E 14 b9 05 56
        E 14 b9 05 56
        E 14 b9 05 57
        E 14 b9 05 58
        E 14 b9 05 58
        E 14 b9 05 58
        E 14 b9 05 58
        E 14 b9 05 58
        E 14 b9 05 58
        E 14 b9 05 58
        E 14 b9 05 58
        E 14 b9 05 58
        E 14 b9 05 57
        E 14 b9 05 56
        E 14 b9 05 56
        E 14 b9 05 55
        E 14 b9 05 54
        E 14 b9 05 53
        E 14 b9 05 51
        E 14 b9 05 51
        E 14 b9 05 4f
        E 14 b9 05 4e
        E 14 b9 05 4d
        E 14 b9 05 4b
        E 14 b9 05 49
        E 14 b9 05 48
        E 14 b9 05 46
        E 14 b9 05 44
        E 14 b9 05 42
        E 14 b9 05 40
        E 14 b9 05 3e
        E 14 b9 05 3c
        E 14 b9 05 3a
        E 14 b9 05 38
        E 14 b9 05 36
        E 14 b9 05 33
        E 14 b9 05 31
        E 14 b9 05 2f
        E 14 b9 05 2d
        E 14 b9 05 2b
        E 14 b9 05 29
        E 14 b9 05 27
        E 14 b9 05 25
        E 14 b9 05 22
        E 14 b9 05 20
        E 14 b9 05 1e
        E 14 b9 05 1c
        E 14 b9 05 1a
        E 14 b9 05 18
        E 14 b9 05 16
        E 14 b9 05 14
        E 14 b9 05 12
        E 14 b9 05 10
        E 14 b9 05 0f
        E 14 b9 05 0d
        E 14 b9 05 0b
        E 14 b9 05 0a
        E 14 b9 05 09
        E 14 b9 05 07
        E 14 b9 05 07
        E 14 b9 05 05
        E 14 b9 05 04
        E 14 b9 05 03
        E 14 b9 05 02
        E 14 b9 05 02
        E 14 b9 05 01
        E 14 b9 05 00
        E 14 b9 05 00
        E 14 b9 05 00
        E 14 b9 05 00
        E 14 b9 05 00
        E 14 b9 05 00
        E 14 b9 05 00
        E 14 b9 05 00
        E 14 b9 05 00
        E 14 b9 05 01
        E 14 b9 05 02
        E 14 b9 05 02
        E 14 b9 05 03
        E 14 b9 05 04
        E 14 b9 05 04
        E 14 b9 05 06
        E 14 b9 05 07
        E 14 b9 05 08
        E 14 b9 05 09
        E 14 b9 05 0b
        E 14 b9 05 0c
        E 14 b9 05 0e
        E 14 b9 05 10
        E 14 b9 05 11
        E 14 b9 05 13
        E 14 b9 05 15
        E 14 b9 05 17
        E 14 b9 05 19
        E 14 b9 05 1b
        E 14 b9 05 1d
        E 14 b9 05 1f
        E 14 b9 05 21
        E 14 b9 05 23
        E 14 b9 05 25
        E 14 b9 05 27
        E 14 b9 05 2a
        E 14 b9 05 2c
        E 12 b9 05 33
        E 12 b9 05 35
        E 12 b9 05 37
        E 12 b9 05 3a
        E 12 b9 05 3c
        E 12 b9 05 3f
        E 12 b9 05 41
        E 12 b9 05 44
        E 12 b9 05 46
        E 12 b9 05 48
        E 12 b9 05 4b
        E 12 b9 05 4c
        E 12 b9 05 4f
        E 12 b9 05 51
        E 12 b9 05 53
        E 12 b9 05 54
        E 12 b9 05 57
        E 12 b9 05 58
        E 12 b9 05 5a
        E 12 b9 05 5b
        E 12 b9 05 5d
        E 12 b9 05 5e
        E 12 b9 05 5f
        E 12 b9 05 60
        E 12 b9 05 61
        E 12 b9 05 62
        E 12 b9 05 63
        E 12 b9 05 63
        E 12 b9 05 64
        E 12 b9 05 64
        E 12 b9 05 65
        E 12 b9 05 65
        E 12 b9 05 65
        E 12 b9 05 65
        E 12 b9 05 65
        E 12 b9 05 64
        E 12 b9 05 64
        E 12 b9 05 63
        E 12 b9 05 63
        E 12 b9 05 62
        E 12 b9 05 61
        E 12 b9 05 5f
        E 12 b9 05 5f
        E 12 b9 05 5d
        E 12 b9 05 5c
        E 12 b9 05 5b
        E 12 b9 05 59
        E 12 b9 05 57
        E 12 b9 05 56
        E 12 b9 05 54
        E 12 b9 05 52
        E 12 b9 05 50
        E 12 b9 05 4e
        E 12 b9 05 4c
        E 12 b9 05 49
        E 12 b9 05 47
        E 12 b9 05 45
        E 12 b9 05 43
        E 12 b9 05 40
        E 12 b9 05 3e
        E 12 b9 05 3b
        E 12 b9 05 38
        E 12 b9 05 36
        E 12 b9 05 33
        E 12 b9 05 31
        E 12 b9 05 2f
        E 12 b9 05 2c
        E 12 b9 05 2a
        E 12 b9 05 27
        E 12 b9 05 24
        E 12 b9 05 22
        E 12 b9 05 1f
        E 12 b9 05 1e
        E 12 b9 05 1b
        E 12 b9 05 19
        E 12 b9 05 17
        E 12 b9 05 15
        E 12 b9 05 13
        E 12 b9 05 11
        E 12 b9 05 0f
        E 12 b9 05 0d
        E 12 b9 05 0b
        E 12 b9 05 0a
        E 12 b9 05 08
        E 12 b9 05 07
        E 12 b9 05 06
        E 12 b9 05 05
        E 12 b9 05 03
        E 12 b9 05 03
        E 12 b9 05 02
        E 12 b9 05 01
        E 12 b9 05 00
        E 12 b9 05 00
        E 12 b9 05 00
        E 12 b9 05 00
        E 12 b9 05 00
        E 12 b9 05 00
        E 12 b9 05 00
        E 12 b9 05 00
        E 12 b9 05 00
        E 12 b9 05 01
        E 12 b9 05 02
        E 12 b9 05 03
        E 12 b9 05 03
        E 12 b9 05 04
        E 12 b9 05 05
        E 12 b9 05 07
        E 12 b9 05 07
        E 12 b9 05 09
        E 12 b9 05 0b
        E 12 b9 05 0c
        E 12 b9 05 0e
        E 12 b9 05 10
        E 12 b9 05 12
        E 12 b9 05 14
        E 12 b9 05 16
        E 12 b9 05 18
        E 12 b9 05 1a
        E 12 b9 05 1c
        E 12 b9 05 1f
        E 12 b9 05 21
        E 12 b9 05 24
        E 12 b9 05 26
        E 12 b9 05 28
        E 12 b9 05 2b
        E 12 b9 05 2d
        E 12 b9 05 2f
        E 12 b9 05 33
        E 14 b9 05 06
        E 14 b9 05 06
        E 14 b9 05 07
        E 14 b9 05 07
        E 14 b9 05 07
        E 14 b9 05 07
        E 14 b9 05 08
        E 14 b9 05 08
        E 14 b9 05 08
        E 14 b9 05 09
        E 14 b9 05 09
        E 14 b9 05 09
        E 14 b9 05 09
        E 14 b9 05 0a
        E 14 b9 05 0a
        E 14 b9 05 0a
        E 14 b9 05 0a
        E 14 b9 05 0b
        E 14 b9 05 0b
        E 14 b9 05 0b
        E 14 b9 05 0b
        E 14 b9 05 0b
        E 14 b9 05 0c
        E 14 b9 05 0c
        E 14 b9 05 0c
        E 14 b9 05 0c
        E 14 b9 05 0c
        E 14 b9 05 0c
        E 14 b9 05 0c
        E 14 b9 05 0c
        E 14 b9 05 0c
        E 14 b9 05 0c
        E 14 b9 05 0c
        E 14 b9 05 0c
        E 14 b9 05 0c
        E 14 b9 05 0c
        E 14 b9 05 0c
        E 14 b9 05 0c
        E 14 b9 05 0c
        E 14 b9 05 0c
        E 14 b9 05 0c
        E 14 b9 05 0c
        E 14 b9 05 0b
        E 14 b9 05 0b
        E 14 b9 05 0b
        E 14 b9 05 0b
        E 14 b9 05 0b
        E 14 b9 05 0b
        E 14 b9 05 0a
        E 14 b9 05 0a
        E 14 b9 05 0a
        E 14 b9 05 0a
        E 14 b9 05 09
        E 14 b9 05 09
        E 14 b9 05 09
        E 14 b9 05 08
        E 14 b9 05 08
        E 14 b9 05 08
        E 14 b9 05 08
        E 14 b9 05 07
        E 14 b9 05 07
        E 14 b9 05 07
        E 14 b9 05 06
        E 14 b9 05 06
        E 14 b9 05 06
        E 14 b9 05 05
        E 14 b9 05 05
        E 14 b9 05 05
        E 14 b9 05 04
        E 14 b9 05 04
        E 14 b9 05 04
        E 14 b9 05 04
        E 14 b9 05 03
        E 14 b9 05 03
        E 14 b9 05 03
        E 14 b9 05 02
        E 14 b9 05 02
        E 14 b9 05 02
        E 14 b9 05 02
        E 14 b9 05 01
        E 14 b9 05 01
        E 14 b9 05 01
        E 14 b9 05 01
        E 14 b9 05 01
        E 14 b9 05 01
        E 14 b9 05 00
        E 14 b9 05 00
        E 14 b9 05 00
        E 14 b9 05 00
        E 14 b9 05 00
        E 14 b9 05 00
        E 14 b9 05 00
        E 14 b9 05 00
        E 14 b9 05 00
        E 14 b9 05 00
        E 14 b9 05 00
        E 14 b9 05 00
        E 14 b9 05 00
        E 14 b9 05 00
        E 14 b9 05 00
        E 14 b9 05 00
        E 14 b9 05 00
        E 14 b9 05 00
        E 14 b9 05 00
        E 14 b9 05 00
        E 14 b9 05 00
        E 14 b9 05 00
        E 14 b9 05 01
        E 14 b9 05 01
        E 14 b9 05 01
        E 14 b9 05 01
        E 14 b9 05 01
        E 14 b9 05 02
        E 14 b9 05 02
        E 14 b9 05 02
        E 14 b9 05 02
        E 14 b9 05 03
        E 14 b9 05 03
        E 14 b9 05 03
        E 14 b9 05 03
        E 14 b9 05 04
        E 14 b9 05 04
        E 14 b9 05 04
        E 14 b9 05 05
        E 14 b9 05 05
        E 14 b9 05 05
        E 14 b9 05 06
        E 14 b9 05 06
        E 12 b9 05 19
        E 12 b9 05 1a
        E 12 b9 05 1c
        E 12 b9 05 1d
        E 12 b9 05 1e
        E 12 b9 05 1f
        E 12 b9 05 20
        E 12 b9 05 22
        E 12 b9 05 23
        E 12 b9 05 24
        E 12 b9 05 25
        E 12 b9 05 26
        E 12 b9 05 27
        E 12 b9 05 28
        E 12 b9 05 29
        E 12 b9 05 2a
        E 12 b9 05 2b
        E 12 b9 05 2c
        E 12 b9 05 2d
        E 12 b9 05 2e
        E 12 b9 05 2e
        E 12 b9 05 2f
        E 12 b9 05 30
        E 12 b9 05 30
        E 12 b9 05 30
        E 12 b9 05 31
        E 12 b9 05 31
        E 12 b9 05 32
        E 12 b9 05 32
        E 12 b9 05 32
        E 12 b9 05 32
        E 12 b9 05 32
        E 12 b9 05 32
        E 12 b9 05 32
        E 12 b9 05 32
        E 12 b9 05 32
        E 12 b9 05 32
        E 12 b9 05 32
        E 12 b9 05 31
        E 12 b9 05 31
        E 12 b9 05 30
        E 12 b9 05 30
        E 12 b9 05 2f
        E 12 b9 05 2e
        E 12 b9 05 2e
        E 12 b9 05 2d
        E 12 b9 05 2c
        E 12 b9 05 2c
        E 12 b9 05 2b
        E 12 b9 05 2a
        E 12 b9 05 29
        E 12 b9 05 28
        E 12 b9 05 27
        E 12 b9 05 26
        E 12 b9 05 24
        E 12 b9 05 23
        E 12 b9 05 22
        E 12 b9 05 21
        E 12 b9 05 20
        E 12 b9 05 1f
        E 12 b9 05 1d
        E 12 b9 05 1c
        E 12 b9 05 1b
        E 12 b9 05 1a
        E 12 b9 05 18
        E 12 b9 05 17
        E 12 b9 05 16
        E 12 b9 05 15
        E 12 b9 05 13
        E 12 b9 05 12
        E 12 b9 05 11
        E 12 b9 05 10
        E 12 b9 05 0f
        E 12 b9 05 0e
        E 12 b9 05 0c
        E 12 b9 05 0b
        E 12 b9 05 0a
        E 12 b9 05 09
        E 12 b9 05 08
        E 12 b9 05 07
        E 12 b9 05 06
        E 12 b9 05 06
        E 12 b9 05 05
        E 12 b9 05 04
        E 12 b9 05 04
        E 12 b9 05 03
        E 12 b9 05 02
        E 12 b9 05 02
        E 12 b9 05 01
        E 12 b9 05 01
        E 12 b9 05 00
        E 12 b9 05 00
        E 12 b9 05 00
        E 12 b9 05 00
        E 12 b9 05 00
        E 12 b9 05 00
        E 12 b9 05 00
        E 12 b9 05 00
        E 12 b9 05 00
        E 12 b9 05 00
        E 12 b9 05 00
        E 12 b9 05 01
        E 12 b9 05 01
        E 12 b9 05 02
        E 12 b9 05 02
        E 12 b9 05 02
        E 12 b9 05 03
        E 12 b9 05 04
        E 12 b9 05 04
        E 12 b9 05 05
        E 12 b9 05 06
        E 12 b9 05 07
        E 12 b9 05 08
        E 12 b9 05 09
        E 12 b9 05 0a
        E 12 b9 05 0b
        E 12 b9 05 0c
        E 12 b9 05 0d
        E 12 b9 05 0e
        E 12 b9 05 0f
        E 12 b9 05 10
        E 12 b9 05 12
        E 12 b9 05 13
        E 12 b9 05 14
        E 12 b9 05 15
        E 12 b9 05 16
        E 12 b9 05 18
        E 12 b9 05 19
        E 7 b9 05 2c
        E 7 b9 05 2e
        E 7 b9 05 31
        E 7 b9 05 33
        E 7 b9 05 35
        E 7 b9 05 37
        E 7 b9 05 39
        E 7 b9 05 3b
        E 7 b9 05 3d
        E 7 b9 05 3f
        E 7 b9 05 41
        E 7 b9 05 43
        E 7 b9 05 45
        E 7 b9 05 47
        E 7 b9 05 48
        E 7 b9 05 4a
        E 7 b9 05 4c
        E 7 b9 05 4d
        E 7 b9 05 4f
        E 7 b9 05 50
        E 7 b9 05 51
        E 7 b9 05 52
        E 7 b9 05 54
        E 7 b9 05 54
        E 7 b9 05 55
        E 7 b9 05 56
        E 7 b9 05 56
        E 7 b9 05 57
        E 7 b9 05 58
        E 7 b9 05 58
        E 7 b9 05 58
        E 7 b9 05 58
        E 7 b9 05 58
        E 7 b9 05 58
        E 7 b9 05 58
        E 7 b9 05 58
        E 7 b9 05 58
        E 7 b9 05 57
        E 7 b9 05 56
        E 7 b9 05 56
        E 7 b9 05 55
        E 7 b9 05 54
        E 7 b9 05 53
        E 7 b9 05 51
        E 7 b9 05 51
        E 7 b9 05 4f
        E 7 b9 05 4e
        E 7 b9 05 4d
        E 7 b9 05 4b
        E 7 b9 05 49
        E 7 b9 05 48
        E 7 b9 05 46
        E 7 b9 05 44
        E 7 b9 05 42
        E 7 b9 05 40
        E 7 b9 05 3e
        E 7 b9 05 3c
        E 7 b9 05 3a
        E 7 b9 05 38
        E 7 b9 05 36
        E 7 b9 05 33
        E 7 b9 05 31
        E 7 b9 05 2f
        E 7 b9 05 2d
        E 7 b9 05 2b
        E 7 b9 05 29
        E 7 b9 05 27
        E 7 b9 05 25
        E 7 b9 05 22
        E 7 b9 05 20
        E 7 b9 05 1e
        E 7 b9 05 1c
        E 7 b9 05 1a
        E 7 b9 05 18
        E 7 b9 05 16
        E 7 b9 05 14
        E 7 b9 05 12
        E 7 b9 05 10
        E 7 b9 05 0f
        E 7 b9 05 0d
        E 7 b9 05 0b
        E 7 b9 05 0a
        E 7 b9 05 09
        E 7 b9 05 07
        E 7 b9 05 07
        E 7 b9 05 05
        E 7 b9 05 04
        E 7 b9 05 03
        E 7 b9 05 02
        E 7 b9 05 02
        E 7 b9 05 01
        E 7 b9 05 00
        E 7 b9 05 00
        E 7 b9 05 00
        E 7 b9 05 00
        E 7 b9 05 00
        E 7 b9 05 00
        E 7 b9 05 00
        E 7 b9 05 00
        E 7 b9 05 00
        E 7 b9 05 01
        E 7 b9 05 02
        E 7 b9 05 02
        E 7 b9 05 03
        E 7 b9 05 04
        E 7 b9 05 04
        E 7 b9 05 06
        E 7 b9 05 07
        E 7 b9 05 08
        E 7 b9 05 09
        E 7 b9 05 0b
        E 7 b9 05 0c
        E 7 b9 05 0e
        E 7 b9 05 10
        E 7 b9 05 11
        E 7 b9 05 13
        E 7 b9 05 15
        E 7 b9 05 17
        E 7 b9 05 19
        E 7 b9 05 1b
        E 7 b9 05 1d
        E 7 b9 05 1f
        E 7 b9 05 21
        E 7 b9 05 23
        E 7 b9 05 25
        E 7 b9 05 27
        E 7 b9 05 2a
        E 7 b9 05 2c
        E 7 b9 05 20
        E 7 b9 05 21
        E 7 b9 05 23
        E 7 b9 05 24
        E 7 b9 05 26
        E 7 b9 05 27
        E 7 b9 05 29
        E 7 b9 05 2a
        E 7 b9 05 2c
        E 7 b9 05 2d
        E 7 b9 05 2f
        E 7 b9 05 30
        E 7 b9 05 31
        E 7 b9 05 33
        E 7 b9 05 34
        E 7 b9 05 35
        E 7 b9 05 36
        E 7 b9 05 37
        E 7 b9 05 38
        E 7 b9 05 39
        E 7 b9 05 3a
        E 7 b9 05 3b
        E 7 b9 05 3c
        E 7 b9 05 3c
        E 7 b9 05 3d
        E 7 b9 05 3d
        E 7 b9 05 3e
        E 7 b9 05 3e
        E 7 b9 05 3f
        E 7 b9 05 3f
        E 7 b9 05 3f
        E 7 b9 05 3f
        E 7 b9 05 3f
        E 7 b9 05 3f
        E 7 b9 05 3f
        E 7 b9 05 3f
        E 7 b9 05 3f
        E 7 b9 05 3e
        E 7 b9 05 3e
        E 7 b9 05 3d
        E 7 b9 05 3d
        E 7 b9 05 3c
        E 7 b9 05 3b
        E 7 b9 05 3a
        E 7 b9 05 3a
        E 7 b9 05 39
        E 7 b9 05 38
        E 7 b9 05 37
        E 7 b9 05 36
        E 7 b9 05 34
        E 7 b9 05 33
        E 7 b9 05 32
        E 7 b9 05 31
        E 7 b9 05 2f
        E 7 b9 05 2e
        E 7 b9 05 2c
        E 7 b9 05 2b
        E 7 b9 05 2a
        E 7 b9 05 28
        E 7 b9 05 27
        E 7 b9 05 25
        E 7 b9 05 23
        E 7 b9 05 22
        E 7 b9 05 20
        E 7 b9 05 1f
        E 7 b9 05 1d
        E 7 b9 05 1c
        E 7 b9 05 1a
        E 7 b9 05 18
        E 7 b9 05 17
        E 7 b9 05 15
        E 7 b9 05 14
        E 7 b9 05 13
        E 7 b9 05 11
        E 7 b9 05 10
        E 7 b9 05 0e
        E 7 b9 05 0d
        E 7 b9 05 0c
        E 7 b9 05 0b
        E 7 b9 05 09
        E 7 b9 05 08
        E 7 b9 05 07
        E 7 b9 05 06
        E 7 b9 05 05
        E 7 b9 05 05
        E 7 b9 05 04
        E 7 b9 05 03
        E 7 b9 05 02
        E 7 b9 05 02
        E 7 b9 05 01
        E 7 b9 05 01
        E 7 b9 05 00
        E 7 b9 05 00
        E 7 b9 05 00
        E 7 b9 05 00
        E 7 b9 05 00
        E 7 b9 05 00
        E 7 b9 05 00
        E 7 b9 05 00
        E 7 b9 05 00
        E 7 b9 05 01
        E 7 b9 05 01
        E 7 b9 05 02
        E 7 b9 05 02
        E 7 b9 05 03
        E 7 b9 05 03
        E 7 b9 05 04
        E 7 b9 05 05
        E 7 b9 05 06
        E 7 b9 05 07
        E 7 b9 05 08
        E 7 b9 05 09
        E 7 b9 05 0a
        E 7 b9 05 0b
        E 7 b9 05 0c
        E 7 b9 05 0e
        E 7 b9 05 0f
        E 7 b9 05 10
        E 7 b9 05 12
        E 7 b9 05 13
        E 7 b9 05 15
        E 7 b9 05 16
        E 7 b9 05 18
        E 7 b9 05 19
        E 7 b9 05 1b
        E 7 b9 05 1c
        E 7 b9 05 1e
        E 7 b9 05 20
        E 1 b9 05 39
        E 1 b9 05 3c
        E 1 b9 05 3f
        E 1 b9 05 41
        E 1 b9 05 44
        E 1 b9 05 47
        E 1 b9 05 49
        E 1 b9 05 4c
        E 1 b9 05 4f
        E 1 b9 05 51
        E 1 b9 05 54
        E 1 b9 05 56
        E 1 b9 05 59
        E 1 b9 05 5b
        E 1 b9 05 5d
        E 1 b9 05 5f
        E 1 b9 05 62
        E 1 b9 05 63
        E 1 b9 05 65
        E 1 b9 05 67
        E 1 b9 05 69
        E 1 b9 05 6a
        E 1 b9 05 6c
        E 1 b9 05 6c
        E 1 b9 05 6d
        E 1 b9 05 6e
        E 1 b9 05 6f
        E 1 b9 05 70
        E 1 b9 05 71
        E 1 b9 05 71
        E 1 b9 05 72
        E 1 b9 05 72
        E 1 b9 05 72
        E 1 b9 05 72
        E 1 b9 05 72
        E 1 b9 05 71
        E 1 b9 05 71
        E 1 b9 05 70
        E 1 b9 05 6f
        E 1 b9 05 6e
        E 1 b9 05 6d
        E 1 b9 05 6c
        E 1 b9 05 6b
        E 1 b9 05 69
        E 1 b9 05 68
        E 1 b9 05 66
        E 1 b9 05 64
        E 1 b9 05 63
        E 1 b9 05 61
        E 1 b9 05 5e
        E 1 b9 05 5c
        E 1 b9 05 5a
        E 1 b9 05 58
        E 1 b9 05 55
        E 1 b9 05 52
        E 1 b9 05 50
        E 1 b9 05 4e
        E 1 b9 05 4b
        E 1 b9 05 48
        E 1 b9 05 46
        E 1 b9 05 42
        E 1 b9 05 3f
        E 1 b9 05 3d
        E 1 b9 05 3a
        E 1 b9 05 37
        E 1 b9 05 35
        E 1 b9 05 32
        E 1 b9 05 2f
        E 1 b9 05 2c
        E 1 b9 05 29
        E 1 b9 05 26
        E 1 b9 05 24
        E 1 b9 05 22
        E 1 b9 05 1f
        E 1 b9 05 1c
        E 1 b9 05 1a
        E 1 b9 05 18
        E 1 b9 05 15
        E 1 b9 05 13
        E 1 b9 05 11
        E 1 b9 05 0f
        E 1 b9 05 0d
        E 1 b9 05 0b
        E 1 b9 05 09
        E 1 b9 05 09
        E 1 b9 05 07
        E 1 b9 05 06
        E 1 b9 05 04
        E 1 b9 05 03
        E 1 b9 05 02
        E 1 b9 05 01
        E 1 b9 05 00
        E 1 b9 05 00
        E 1 b9 05 00
        E 1 b9 05 00
        E 1 b9 05 00
        E 1 b9 05 00
        E 1 b9 05 00
        E 1 b9 05 00
        E 1 b9 05 00
        E 1 b9 05 01
        E 1 b9 05 02
        E 1 b9 05 03
        E 1 b9 05 04
        E 1 b9 05 05
        E 1 b9 05 06
        E 1 b9 05 08
        E 1 b9 05 09
        E 1 b9 05 0a
        E 1 b9 05 0c
        E 1 b9 05 0e
        E 1 b9 05 10
        E 1 b9 05 12
        E 1 b9 05 14
        E 1 b9 05 16
        E 1 b9 05 19
        E 1 b9 05 1b
        E 1 b9 05 1d
        E 1 b9 05 20
        E 1 b9 05 23
        E 1 b9 05 25
        E 1 b9 05 28
        E 1 b9 05 2b
        E 1 b9 05 2d
        E 1 b9 05 30
        E 1 b9 05 33
        E 1 b9 05 36
        E 1 b9 05 39
        E 5 b9 05 40
        E 5 b9 05 43
        E 5 b9 05 46
        E 5 b9 05 49
        E 5 b9 05 4c
        E 5 b9 05 4f
        E 5 b9 05 52
        E 5 b9 05 55
        E 5 b9 05 58
        E 5 b9 05 5b
        E 5 b9 05 5e
        E 5 b9 05 60
        E 5 b9 05 63
        E 5 b9 05 66
        E 5 b9 05 68
        E 5 b9 05 6a
        E 5 b9 05 6d
        E 5 b9 05 6f
        E 5 b9 05 71
        E 5 b9 05 73
        E 5 b9 05 75
        E 5 b9 05 76
        E 5 b9 05 78
        E 5 b9 05 79
        E 5 b9 05 7a
        E 5 b9 05 7b
        E 5 b9 05 7c
        E 5 b9 05 7d
        E 5 b9 05 7e
        E 5 b9 05 7e
        E 5 b9 05 7f
        E 5 b9 05 7f
        E 5 b9 05 7f
        E 5 b9 05 7f
        E 5 b9 05 7f
        E 5 b9 05 7e
        E 5 b9 05 7e
        E 5 b9 05 7d
        E 5 b9 05 7c
        E 5 b9 05 7b
        E 5 b9 05 7a
        E 5 b9 05 78
        E 5 b9 05 77
        E 5 b9 05 75
        E 5 b9 05 74
        E 5 b9 05 72
        E 5 b9 05 70
        E 5 b9 05 6e
        E 5 b9 05 6c
        E 5 b9 05 69
        E 5 b9 05 67
        E 5 b9 05 64
        E 5 b9 05 62
        E 5 b9 05 5f
        E 5 b9 05 5c
        E 5 b9 05 59
        E 5 b9 05 57
        E 5 b9 05 54
        E 5 b9 05 51
        E 5 b9 05 4e
        E 5 b9 05 4a
        E 5 b9 05 47
        E 5 b9 05 44
        E 5 b9 05 41
        E 5 b9 05 3e
        E 5 b9 05 3b
        E 5 b9 05 38
        E 5 b9 05 35
        E 5 b9 05 31
        E 5 b9 05 2e
        E 5 b9 05 2b
        E 5 b9 05 28
        E 5 b9 05 26
        E 5 b9 05 23
        E 5 b9 05 20
        E 5 b9 05 1d
        E 5 b9 05 1b
        E 5 b9 05 18
        E 5 b9 05 16
        E 5 b9 05 13
        E 5 b9 05 11
        E 5 b9 05 0f
        E 5 b9 05 0d
        E 5 b9 05 0b
        E 5 b9 05 0a
        E 5 b9 05 08
        E 5 b9 05 07
        E 5 b9 05 05
        E 5 b9 05 04
        E 5 b9 05 03
        E 5 b9 05 02
        E 5 b9 05 01
        E 5 b9 05 01
        E 5 b9 05 00
        E 5 b9 05 00
        E 5 b9 05 00
        E 5 b9 05 00
        E 5 b9 05 00
        E 5 b9 05 01
        E 5 b9 05 01
        E 5 b9 05 02
        E 5 b9 05 03
        E 5 b9 05 04
        E 5 b9 05 05
        E 5 b9 05 06
        E 5 b9 05 07
        E 5 b9 05 09
        E 5 b9 05 0a
        E 5 b9 05 0c
        E 5 b9 05 0e
        E 5 b9 05 10
        E 5 b9 05 12
        E 5 b9 05 15
        E 5 b9 05 17
        E 5 b9 05 19
        E 5 b9 05 1c
        E 5 b9 05 1f
        E 5 b9 05 21
        E 5 b9 05 24
        E 5 b9 05 27
        E 5 b9 05 2a
        E 5 b9 05 2d
        E 5 b9 05 30
        E 5 b9 05 33
        E 5 b9 05 36
        E 5 b9 05 39
        E 5 b9 05 3c
        E 5 b9 05 40
        E 9 b9 05 39
        E 9 b9 05 3c
        E 9 b9 05 3f
        E 9 b9 05 41
        E 9 b9 05 44
        E 9 b9 05 47
        E 9 b9 05 49
        E 9 b9 05 4c
        E 9 b9 05 4f
        E 9 b9 05 51
        E 9 b9 05 54
        E 9 b9 05 56
        E 9 b9 05 59
        E 9 b9 05 5b
        E 9 b9 05 5d
        E 9 b9 05 5f
        E 9 b9 05 62
        E 9 b9 05 63
        E 9 b9 05 65
        E 9 b9 05 67
        E 9 b9 05 69
        E 9 b9 05 6a
        E 9 b9 05 6c
        E 9 b9 05 6c
        E 9 b9 05 6d
        E 9 b9 05 6e
        E 9 b9 05 6f
        E 9 b9 05 70
        E 9 b9 05 71
        E 9 b9 05 71
        E 9 b9 05 72
        E 9 b9 05 72
        E 9 b9 05 72
        E 9 b9 05 72
        E 9 b9 05 72
        E 9 b9 05 71
        E 9 b9 05 71
        E 9 b9 05 70
        E 9 b9 05 6f
        E 9 b9 05 6e
        E 9 b9 05 6d
        E 9 b9 05 6c
        E 9 b9 05 6b
        E 9 b9 05 69
        E 9 b9 05 68
        E 9 b9 05 66
        E 9 b9 05 64
        E 9 b9 05 63
        E 9 b9 05 61
        E 9 b9 05 5e
        E 9 b9 05 5c
        E 9 b9 05 5a
        E 9 b9 05 58
        E 9 b9 05 55
        E 9 b9 05 52
        E 9 b9 05 50
        E 9 b9 05 4e
        E 9 b9 05 4b
        E 9 b9 05 48
        E 9 b9 05 46
        E 9 b9 05 42
        E 9 b9 05 3f
        E 9 b9 05 3d
        E 9 b9 05 3a
        E 9 b9 05 37
        E 9 b9 05 35
        E 9 b9 05 32
        E 9 b9 05 2f
        E 9 b9 05 2c
        E 9 b9 05 29
        E 9 b9 05 26
        E 9 b9 05 24
        E 9 b9 05 22
        E 9 b9 05 1f
        E 9 b9 05 1c
        E 9 b9 05 1a
        E 9 b9 05 18
        E 9 b9 05 15
        E 9 b9 05 13
        E 9 b9 05 11
        E 9 b9 05 0f
        E 9 b9 05 0d
        E 9 b9 05 0b
        E 9 b9 05 09
        E 9 b9 05 09
        E 9 b9 05 07
        E 9 b9 05 06
        E 9 b9 05 04
        E 9 b9 05 03
        E 9 b9 05 02
        E 9 b9 05 01
        E 9 b9 05 00
        E 9 b9 05 00
        E 9 b9 05 00
        E 9 b9 05 00
        E 9 b9 05 00
        E 9 b9 05 00
        E 9 b9 05 00
        E 9 b9 05 00
        E 9 b9 05 00
        E 9 b9 05 01
        E 9 b9 05 02
        E 9 b9 05 03
        E 9 b9 05 04
        E 9 b9 05 05
        E 9 b9 05 06
        E 9 b9 05 08
        E 9 b9 05 09
        E 9 b9 05 0a
        E 9 b9 05 0c
        E 9 b9 05 0e
        E 9 b9 05 10
        E 9 b9 05 12
        E 9 b9 05 14
        E 9 b9 05 16
        E 9 b9 05 19
        E 9 b9 05 1b
        E 9 b9 05 1d
        E 9 b9 05 20
        E 9 b9 05 23
        E 9 b9 05 25
        E 9 b9 05 28
        E 9 b9 05 2b
        E 9 b9 05 2d
        E 9 b9 05 30
        E 9 b9 05 33
        E 9 b9 05 36
        E 9 b9 05 39
        E 7 b9 05 20
        E 7 b9 05 21
        E 7 b9 05 23
        E 7 b9 05 24
        E 7 b9 05 26
        E 7 b9 05 27
        E 7 b9 05 29
        E 7 b9 05 2a
        E 7 b9 05 2c
        E 7 b9 05 2d
        E 7 b9 05 2f
        E 7 b9 05 30
        E 7 b9 05 31
        E 7 b9 05 33
        E 7 b9 05 34
        E 7 b9 05 35
        E 7 b9 05 36
        E 7 b9 05 37
        E 7 b9 05 38
        E 7 b9 05 39
        E 7 b9 05 3a
        E 7 b9 05 3b
        E 7 b9 05 3c
        E 7 b9 05 3c
        E 7 b9 05 3d
        E 7 b9 05 3d
        E 7 b9 05 3e
        E 7 b9 05 3e
        E 7 b9 05 3f
        E 7 b9 05 3f
        E 7 b9 05 3f
        E 7 b9 05 3f
        E 7 b9 05 3f
        E 7 b9 05 3f
        E 7 b9 05 3f
        E 7 b9 05 3f
        E 7 b9 05 3f
        E 7 b9 05 3e
        E 7 b9 05 3e
        E 7 b9 05 3d
        E 7 b9 05 3d
        E 7 b9 05 3c
        E 7 b9 05 3b
        E 7 b9 05 3a
        E 7 b9 05 3a
        E 7 b9 05 39
        E 7 b9 05 38
        E 7 b9 05 37
        E 7 b9 05 36
        E 7 b9 05 34
        E 7 b9 05 33
        E 7 b9 05 32
        E 7 b9 05 31
        E 7 b9 05 2f
        E 7 b9 05 2e
        E 7 b9 05 2c
        E 7 b9 05 2b
        E 7 b9 05 2a
        E 7 b9 05 28
        E 7 b9 05 27
        E 7 b9 05 25
        E 7 b9 05 23
        E 7 b9 05 22
        E 7 b9 05 20
        E 7 b9 05 1f
        E 7 b9 05 1d
        E 7 b9 05 1c
        E 7 b9 05 1a
        E 7 b9 05 18
        E 7 b9 05 17
        E 7 b9 05 15
        E 7 b9 05 14
        E 7 b9 05 13
        E 7 b9 05 11
        E 7 b9 05 10
        E 7 b9 05 0e
        E 7 b9 05 0d
        E 7 b9 05 0c
        E 7 b9 05 0b
        E 7 b9 05 09
        E 7 b9 05 08
        E 7 b9 05 07
        E 7 b9 05 06
        E 7 b9 05 05
        E 7 b9 05 05
        E 7 b9 05 04
        E 7 b9 05 03
        E 7 b9 05 02
        E 7 b9 05 02
        E 7 b9 05 01
        E 7 b9 05 01
        E 7 b9 05 00
        E 7 b9 05 00
        E 7 b9 05 00
        E 7 b9 05 00
        E 7 b9 05 00
        E 7 b9 05 00
        E 7 b9 05 00
        E 7 b9 05 00
        E 7 b9 05 00
        E 7 b9 05 01
        E 7 b9 05 01
        E 7 b9 05 02
        E 7 b9 05 02
        E 7 b9 05 03
        E 7 b9 05 03
        E 7 b9 05 04
        E 7 b9 05 05
        E 7 b9 05 06
        E 7 b9 05 07
        E 7 b9 05 08
        E 7 b9 05 09
        E 7 b9 05 0a
        E 7 b9 05 0b
        E 7 b9 05 0c
        E 7 b9 05 0e
        E 7 b9 05 0f
        E 7 b9 05 10
        E 7 b9 05 12
        E 7 b9 05 13
        E 7 b9 05 15
        E 7 b9 05 16
        E 7 b9 05 18
        E 7 b9 05 19
        E 7 b9 05 1b
        E 7 b9 05 1c
        E 7 b9 05 1e
        E 7 b9 05 20
        E 7 b9 05 20
        E 7 b9 05 21
        E 7 b9 05 23
        E 7 b9 05 24
        E 7 b9 05 26
        E 7 b9 05 27
        E 7 b9 05 29
        E 7 b9 05 2a
        E 7 b9 05 2c
        E 7 b9 05 2d
        E 7 b9 05 2f
        E 7 b9 05 30
        E 7 b9 05 31
        E 7 b9 05 33
        E 7 b9 05 34
        E 7 b9 05 35
        E 7 b9 05 36
        E 7 b9 05 37
        E 7 b9 05 38
        E 7 b9 05 39
        E 7 b9 05 3a
        E 7 b9 05 3b
        E 7 b9 05 3c
        E 7 b9 05 3c
        E 7 b9 05 3d
        E 7 b9 05 3d
        E 7 b9 05 3e
        E 7 b9 05 3e
        E 7 b9 05 3f
        E 7 b9 05 3f
        E 7 b9 05 3f
        E 7 b9 05 3f
        E 7 b9 05 3f
        E 7 b9 05 3f
        E 7 b9 05 3f
        E 7 b9 05 3f
        E 7 b9 05 3f
        E 7 b9 05 3e
        E 7 b9 05 3e
        E 7 b9 05 3d
        E 7 b9 05 3d
        E 7 b9 05 3c
        E 7 b9 05 3b
        E 7 b9 05 3a
        E 7 b9 05 3a
        E 7 b9 05 39
        E 7 b9 05 38
        E 7 b9 05 37
        E 7 b9 05 36
        E 7 b9 05 34
        E 7 b9 05 33
        E 7 b9 05 32
        E 7 b9 05 31
        E 7 b9 05 2f
        E 7 b9 05 2e
        E 7 b9 05 2c
        E 7 b9 05 2b
        E 7 b9 05 2a
        E 7 b9 05 28
        E 7 b9 05 27
        E 7 b9 05 25
        E 7 b9 05 23
        E 7 b9 05 22
        E 7 b9 05 20
        E 7 b9 05 1f
        E 7 b9 05 1d
        E 7 b9 05 1c
        E 7 b9 05 1a
        E 7 b9 05 18
        E 7 b9 05 17
        E 7 b9 05 15
        E 7 b9 05 14
        E 7 b9 05 13
        E 7 b9 05 11
        E 7 b9 05 10
        E 7 b9 05 0e
        E 7 b9 05 0d
        E 7 b9 05 0c
        E 7 b9 05 0b
        E 7 b9 05 09
        E 7 b9 05 08
        E 7 b9 05 07
        E 7 b9 05 06
        E 7 b9 05 05
        E 7 b9 05 05
        E 7 b9 05 04
        E 7 b9 05 03
        E 7 b9 05 02
        E 7 b9 05 02
        E 7 b9 05 01
        E 7 b9 05 01
        E 7 b9 05 00
        E 7 b9 05 00
        E 7 b9 05 00
        E 7 b9 05 00
        E 7 b9 05 00
        E 7 b9 05 00
        E 7 b9 05 00
        E 7 b9 05 00
        E 7 b9 05 00
        E 7 b9 05 01
        E 7 b9 05 01
        E 7 b9 05 02
        E 7 b9 05 02
        E 7 b9 05 03
        E 7 b9 05 03
        E 7 b9 05 04
        E 7 b9 05 05
        E 7 b9 05 06
        E 7 b9 05 07
        E 7 b9 05 08
        E 7 b9 05 09
        E 7 b9 05 0a
        E 7 b9 05 0b
        E 7 b9 05 0c
        E 7 b9 05 0e
        E 7 b9 05 0f
        E 7 b9 05 10
        E 7 b9 05 12
        E 7 b9 05 13
        E 7 b9 05 15
        E 7 b9 05 16
        E 7 b9 05 18
        E 7 b9 05 19
        E 7 b9 05 1b
        E 7 b9 05 1c
        E 7 b9 05 1e
        E 7 b9 05 20
        E 14 b9 05 2c
        E 14 b9 05 2e
        E 14 b9 05 31
        E 14 b9 05 33
        E 14 b9 05 35
        E 14 b9 05 37
        E 14 b9 05 39
        E 14 b9 05 3b
        E 14 b9 05 3d
        E 14 b9 05 3f
        E 14 b9 05 41
        E 14 b9 05 43
        E 14 b9 05 45
        E 14 b9 05 47
        E 14 b9 05 48
        E 14 b9 05 4a
        E 14 b9 05 4c
        E 14 b9 05 4d
        E 14 b9 05 4f
        E 14 b9 05 50
        E 14 b9 05 51
        E 14 b9 05 52
        E 14 b9 05 54
        E 14 b9 05 54
        E 14 b9 05 55
        E 14 b9 05 56
        E 14 b9 05 56
        E 14 b9 05 57
        E 14 b9 05 58
        E 14 b9 05 58
        E 14 b9 05 58
        E 14 b9 05 58
        E 14 b9 05 58
        E 14 b9 05 58
        E 14 b9 05 58
        E 14 b9 05 58
        E 14 b9 05 58
        E 14 b9 05 57
        E 14 b9 05 56
        E 14 b9 05 56
        E 14 b9 05 55
        E 14 b9 05 54
        E 14 b9 05 53
        E 14 b9 05 51
        E 14 b9 05 51
        E 14 b9 05 4f
        E 14 b9 05 4e
        E 14 b9 05 4d
        E 14 b9 05 4b
        E 14 b9 05 49
        E 14 b9 05 48
        E 14 b9 05 46
        E 14 b9 05 44
        E 14 b9 05 42
        E 14 b9 05 40
        E 14 b9 05 3e
        E 14 b9 05 3c
        E 14 b9 05 3a
        E 14 b9 05 38
        E 14 b9 05 36
        E 14 b9 05 33
        E 14 b9 05 31
        E 14 b9 05 2f
        E 14 b9 05 2d
        E 14 b9 05 2b
        E 14 b9 05 29
        E 14 b9 05 27
        E 14 b9 05 25
        E 14 b9 05 22
        E 14 b9 05 20
        E 14 b9 05 1e
        E 14 b9 05 1c
        E 14 b9 05 1a
        E 14 b9 05 18
        E 14 b9 05 16
        E 14 b9 05 14
        E 14 b9 05 12
        E 14 b9 05 10
        E 14 b9 05 0f
        E 14 b9 05 0d
        E 14 b9 05 0b
        E 14 b9 05 0a
        E 14 b9 05 09
        E 14 b9 05 07
        E 14 b9 05 07
        E 14 b9 05 05
        E 14 b9 05 04
        E 14 b9 05 03
        E 14 b9 05 02
        E 14 b9 05 02
        E 14 b9 05 01
        E 14 b9 05 00
        E 14 b9 05 00
        E 14 b9 05 00
        E 14 b9 05 00
        E 14 b9 05 00
        E 14 b9 05 00
        E 14 b9 05 00
        E 14 b9 05 00
        E 14 b9 05 00
        E 14 b9 05 01
        E 14 b9 05 02
        E 14 b9 05 02
        E 14 b9 05 03
        E 14 b9 05 04
        E 14 b9 05 04
        E 14 b9 05 06
        E 14 b9 05 07
        E 14 b9 05 08
        E 14 b9 05 09
        E 14 b9 05 0b
        E 14 b9 05 0c
        E 14 b9 05 0e
        E 14 b9 05 10
        E 14 b9 05 11
        E 14 b9 05 13
        E 14 b9 05 15
        E 14 b9 05 17
        E 14 b9 05 19
        E 14 b9 05 1b
        E 14 b9 05 1d
        E 14 b9 05 1f
        E 14 b9 05 21
        E 14 b9 05 23
        E 14 b9 05 25
        E 14 b9 05 27
        E 14 b9 05 2a
        E 14 b9 05 2c
        E 12 b9 05 33
        E 12 b9 05 35
        E 12 b9 05 37
        E 12 b9 05 3a
        E 12 b9 05 3c
        E 12 b9 05 3f
        E 12 b9 05 41
        E 12 b9 05 44
        E 12 b9 05 46
        E 12 b9 05 48
        E 12 b9 05 4b
        E 12 b9 05 4c
        E 12 b9 05 4f
        E 12 b9 05 51
        E 12 b9 05 53
        E 12 b9 05 54
        E 12 b9 05 57
        E 12 b9 05 58
        E 12 b9 05 5a
        E 12 b9 05 5b
        E 12 b9 05 5d
        E 12 b9 05 5e
        E 12 b9 05 5f
        E 12 b9 05 60
        E 12 b9 05 61
        E 12 b9 05 62
        E 12 b9 05 63
        E 12 b9 05 63
        E 12 b9 05 64
        E 12 b9 05 64
        E 12 b9 05 65
        E 12 b9 05 65
        E 12 b9 05 65
        E 12 b9 05 65
        E 12 b9 05 65
        E 12 b9 05 64
        E 12 b9 05 64
        E 12 b9 05 63
        E 12 b9 05 63
        E 12 b9 05 62
        E 12 b9 05 61
        E 12 b9 05 5f
        E 12 b9 05 5f
        E 12 b9 05 5d
        E 12 b9 05 5c
        E 12 b9 05 5b
        E 12 b9 05 59
        E 12 b9 05 57
        E 12 b9 05 56
        E 12 b9 05 54
        E 12 b9 05 52
        E 12 b9 05 50
        E 12 b9 05 4e
        E 12 b9 05 4c
        E 12 b9 05 49
        E 12 b9 05 47
        E 12 b9 05 45
        E 12 b9 05 43
        E 12 b9 05 40
        E 12 b9 05 3e
        E 12 b9 05 3b
        E 12 b9 05 38
        E 12 b9 05 36
        E 12 b9 05 33
        E 12 b9 05 31
        E 12 b9 05 2f
        E 12 b9 05 2c
        E 12 b9 05 2a
        E 12 b9 05 27
        E 12 b9 05 24
        E 12 b9 05 22
        E 12 b9 05 1f
        E 12 b9 05 1e
        E 12 b9 05 1b
        E 12 b9 05 19
        E 12 b9 05 17
        E 12 b9 05 15
        E 12 b9 05 13
        E 12 b9 05 11
        E 12 b9 05 0f
        E 12 b9 05 0d
        E 12 b9 05 0b
        E 12 b9 05 0a
        E 12 b9 05 08
        E 12 b9 05 07
        E 12 b9 05 06
        E 12 b9 05 05
        E 12 b9 05 03
        E 12 b9 05 03
        E 12 b9 05 02
        E 12 b9 05 01
        E 12 b9 05 00
        E 12 b9 05 00
        E 12 b9 05 00
        E 12 b9 05 00
        E 12 b9 05 00
        E 12 b9 05 00
        E 12 b9 05 00
        E 12 b9 05 00
        E 12 b9 05 00
        E 12 b9 05 01
        E 12 b9 05 02
        E 12 b9 05 03
        E 12 b9 05 03
        E 12 b9 05 04
        E 12 b9 05 05
        E 12 b9 05 07
        E 12 b9 05 07
        E 12 b9 05 09
        E 12 b9 05 0b
        E 12 b9 05 0c
        E 12 b9 05 0e
        E 12 b9 05 10
        E 12 b9 05 12
        E 12 b9 05 14
        E 12 b9 05 16
        E 12 b9 05 18
        E 12 b9 05 1a
        E 12 b9 05 1c
        E 12 b9 05 1f
        E 12 b9 05 21
        E 12 b9 05 24
        E 12 b9 05 26
        E 12 b9 05 28
        E 12 b9 05 2b
        E 12 b9 05 2d
        E 12 b9 05 2f
        E 12 b9 05 33
        E 14 b9 05 06
        E 14 b9 05 06
        E 14 b9 05 07
        E 14 b9 05 07
        E 14 b9 05 07
        E 14 b9 05 07
        E 14 b9 05 08
        E 14 b9 05 08
        E 14 b9 05 08
        E 14 b9 05 09
        E 14 b9 05 09
        E 14 b9 05 09
        E 14 b9 05 09
        E 14 b9 05 0a
        E 14 b9 05 0a
        E 14 b9 05 0a
        E 14 b9 05 0a
        E 14 b9 05 0b
        E 14 b9 05 0b
        E 14 b9 05 0b
        E 14 b9 05 0b
        E 14 b9 05 0b
        E 14 b9 05 0c
        E 14 b9 05 0c
        E 14 b9 05 0c
        E 14 b9 05 0c
        E 14 b9 05 0c
        E 14 b9 05 0c
        E 14 b9 05 0c
        E 14 b9 05 0c
        E 14 b9 05 0c
        E 14 b9 05 0c
        E 14 b9 05 0c
        E 14 b9 05 0c
        E 14 b9 05 0c
        E 14 b9 05 0c
        E 14 b9 05 0c
        E 14 b9 05 0c
        E 14 b9 05 0c
        E 14 b9 05 0c
        E 14 b9 05 0c
        E 14 b9 05 0c
        E 14 b9 05 0b
        E 14 b9 05 0b
        E 14 b9 05 0b
        E 14 b9 05 0b
        E 14 b9 05 0b
        E 14 b9 05 0b
        E 14 b9 05 0a
        E 14 b9 05 0a
        E 14 b9 05 0a
        E 14 b9 05 0a
        E 14 b9 05 09
        E 14 b9 05 09
        E 14 b9 05 09
        E 14 b9 05 08
        E 14 b9 05 08
        E 14 b9 05 08
        E 14 b9 05 08
        E 14 b9 05 07
        E 14 b9 05 07
        E 14 b9 05 07
        E 14 b9 05 06
        E 14 b9 05 06
        E 14 b9 05 06
        E 14 b9 05 05
        E 14 b9 05 05
        E 14 b9 05 05
        E 14 b9 05 04
        E 14 b9 05 04
        E 14 b9 05 04
        E 14 b9 05 04
        E 14 b9 05 03
        E 14 b9 05 03
        E 14 b9 05 03
        E 14 b9 05 02
        E 14 b9 05 02
        E 14 b9 05 02
        E 14 b9 05 02
        E 14 b9 05 01
        E 14 b9 05 01
        E 14 b9 05 01
        E 14 b9 05 01
        E 14 b9 05 01
        E 14 b9 05 01
        E 14 b9 05 00
        E 14 b9 05 00
        E 14 b9 05 00
        E 14 b9 05 00
        E 14 b9 05 00
        E 14 b9 05 00
        E 14 b9 05 00
        E 14 b9 05 00
        E 14 b9 05 00
        E 14 b9 05 00
        E 14 b9 05 00
        E 14 b9 05 00
        E 14 b9 05 00
        E 14 b9 05 00
        E 14 b9 05 00
        E 14 b9 05 00
        E 14 b9 05 00
        E 14 b9 05 00
        E 14 b9 05 00
        E 14 b9 05 00
        E 14 b9 05 00
        E 14 b9 05 00
        E 14 b9 05 01
        E 14 b9 05 01
        E 14 b9 05 01
        E 14 b9 05 01
        E 14 b9 05 01
        E 14 b9 05 02
        E 14 b9 05 02
        E 14 b9 05 02
        E 14 b9 05 02
        E 14 b9 05 03
        E 14 b9 05 03
        E 14 b9 05 03
        E 14 b9 05 03
        E 14 b9 05 04
        E 14 b9 05 04
        E 14 b9 05 04
        E 14 b9 05 05
        E 14 b9 05 05
        E 14 b9 05 05
        E 14 b9 05 06
        E 14 b9 05 06
        E 12 b9 05 19
        E 12 b9 05 1a
        E 12 b9 05 1c
        E 12 b9 05 1d
        E 12 b9 05 1e
        E 12 b9 05 1f
        E 12 b9 05 20
        E 12 b9 05 22
        E 12 b9 05 23
        E 12 b9 05 24
        E 12 b9 05 25
        E 12 b9 05 26
        E 12 b9 05 27
        E 12 b9 05 28
        E 12 b9 05 29
        E 12 b9 05 2a
        E 12 b9 05 2b
        E 12 b9 05 2c
        E 12 b9 05 2d
        E 12 b9 05 2e
        E 12 b9 05 2e
        E 12 b9 05 2f
        E 12 b9 05 30
        E 12 b9 05 30
        E 12 b9 05 30
        E 12 b9 05 31
        E 12 b9 05 31
        E 12 b9 05 32
        E 12 b9 05 32
        E 12 b9 05 32
        E 12 b9 05 32
        E 12 b9 05 32
        E 12 b9 05 32
        E 12 b9 05 32
        E 12 b9 05 32
        E 12 b9 05 32
        E 12 b9 05 32
        E 12 b9 05 32
        E 12 b9 05 31
        E 12 b9 05 31
        E 12 b9 05 30
        E 12 b9 05 30
        E 12 b9 05 2f
        E 12 b9 05 2e
        E 12 b9 05 2e
        E 12 b9 05 2d
        E 12 b9 05 2c
        E 12 b9 05 2c
        E 12 b9 05 2b
        E 12 b9 05 2a
        E 12 b9 05 29
        E 12 b9 05 28
        E 12 b9 05 27
        E 12 b9 05 26
        E 12 b9 05 24
        E 12 b9 05 23
        E 12 b9 05 22
        E 12 b9 05 21
        E 12 b9 05 20
        E 12 b9 05 1f
        E 12 b9 05 1d
        E 12 b9 05 1c
        E 12 b9 05 1b
        E 12 b9 05 1a
        E 12 b9 05 18
        E 12 b9 05 17
        E 12 b9 05 16
        E 12 b9 05 15
        E 12 b9 05 13
        E 12 b9 05 12
        E 12 b9 05 11
        E 12 b9 05 10
        E 12 b9 05 0f
        E 12 b9 05 0e
        E 12 b9 05 0c
        E 12 b9 05 0b
        E 12 b9 05 0a
        E 12 b9 05 09
        E 12 b9 05 08
        E 12 b9 05 07
        E 12 b9 05 06
        E 12 b9 05 06
        E 12 b9 05 05
        E 12 b9 05 04
        E 12 b9 05 04
        E 12 b9 05 03
        E 12 b9 05 02
        E 12 b9 05 02
        E 12 b9 05 01
        E 12 b9 05 01
        E 12 b9 05 00
        E 12 b9 05 00
        E 12 b9 05 00
        E 12 b9 05 00
        E 12 b9 05 00
        E 12 b9 05 00
        E 12 b9 05 00
        E 12 b9 05 00
        E 12 b9 05 00
        E 12 b9 05 00
        E 12 b9 05 00
        E 12 b9 05 01
        E 12 b9 05 01
        E 12 b9 05 02
        E 12 b9 05 02
        E 12 b9 05 02
        E 12 b9 05 03
        E 12 b9 05 04
        E 12 b9 05 04
        E 12 b9 05 05
        E 12 b9 05 06
        E 12 b9 05 07
        E 12 b9 05 08
        E 12 b9 05 09
        E 12 b9 05 0a
        E 12 b9 05 0b
        E 12 b9 05 0c
        E 12 b9 05 0d
        E 12 b9 05 0e
        E 12 b9 05 0f
        E 12 b9 05 10
        E 12 b9 05 12
        E 12 b9 05 13
        E 12 b9 05 14
        E 12 b9 05 15
        E 12 b9 05 16
        E 12 b9 05 18
        E 12 b9 05 19
        E 7 b9 05 2c
        E 7 b9 05 2e
        E 7 b9 05 31
        E 7 b9 05 33
        E 7 b9 05 35
        E 7 b9 05 37
        E 7 b9 05 39
        E 7 b9 05 3b
        E 7 b9 05 3d
        E 7 b9 05 3f
        E 7 b9 05 41
        E 7 b9 05 43
        E 7 b9 05 45
        E 7 b9 05 47
        E 7 b9 05 48
        E 7 b9 05 4a
        E 7 b9 05 4c
        E 7 b9 05 4d
        E 7 b9 05 4f
        E 7 b9 05 50
        E 7 b9 05 51
        E 7 b9 05 52
        E 7 b9 05 54
        E 7 b9 05 54
        E 7 b9 05 55
        E 7 b9 05 56
        E 7 b9 05 56
        E 7 b9 05 57
        E 7 b9 05 58
        E 7 b9 05 58
        E 7 b9 05 58
        E 7 b9 05 58
        E 7 b9 05 58
        E 7 b9 05 58
        E 7 b9 05 58
        E 7 b9 05 58
        E 7 b9 05 58
        E 7 b9 05 57
        E 7 b9 05 56
        E 7 b9 05 56
        E 7 b9 05 55
        E 7 b9 05 54
        E 7 b9 05 53
        E 7 b9 05 51
        E 7 b9 05 51
        E 7 b9 05 4f
        E 7 b9 05 4e
        E 7 b9 05 4d
        E 7 b9 05 4b
        E 7 b9 05 49
        E 7 b9 05 48
        E 7 b9 05 46
        E 7 b9 05 44
        E 7 b9 05 42
        E 7 b9 05 40
        E 7 b9 05 3e
        E 7 b9 05 3c
        E 7 b9 05 3a
        E 7 b9 05 38
        E 7 b9 05 36
        E 7 b9 05 33
        E 7 b9 05 31
        E 7 b9 05 2f
        E 7 b9 05 2d
        E 7 b9 05 2b
        E 7 b9 05 29
        E 7 b9 05 27
        E 7 b9 05 25
        E 7 b9 05 22
        E 7 b9 05 20
        E 7 b9 05 1e
        E 7 b9 05 1c
        E 7 b9 05 1a
        E 7 b9 05 18
        E 7 b9 05 16
        E 7 b9 05 14
        E 7 b9 05 12
        E 7 b9 05 10
        E 7 b9 05 0f
        E 7 b9 05 0d
        E 7 b9 05 0b
        E 7 b9 05 0a
        E 7 b9 05 09
        E 7 b9 05 07
        E 7 b9 05 07
        E 7 b9 05 05
        E 7 b9 05 04
        E 7 b9 05 03
        E 7 b9 05 02
        E 7 b9 05 02
        E 7 b9 05 01
        E 7 b9 05 00
        E 7 b9 05 00
        E 7 b9 05 00
        E 7 b9 05 00
        E 7 b9 05 00
        E 7 b9 05 00
        E 7 b9 05 00
        E 7 b9 05 00
        E 7 b9 05 00
        E 7 b9 05 01
        E 7 b9 05 02
        E 7 b9 05 02
        E 7 b9 05 03
        E 7 b9 05 04
        E 7 b9 05 04
        E 7 b9 05 06
        E 7 b9 05 07
        E 7 b9 05 08
        E 7 b9 05 09
        E 7 b9 05 0b
        E 7 b9 05 0c
        E 7 b9 05 0e
        E 7 b9 05 10
        E 7 b9 05 11
        E 7 b9 05 13
        E 7 b9 05 15
        E 7 b9 05 17
        E 7 b9 05 19
        E 7 b9 05 1b
        E 7 b9 05 1d
        E 7 b9 05 1f
        E 7 b9 05 21
        E 7 b9 05 23
        E 7 b9 05 25
        E 7 b9 05 27
        E 7 b9 05 2a
        E 7 b9 05 2c
        E 7 b9 05 20
        E 7 b9 05 21
        E 7 b9 05 23
        E 7 b9 05 24
        E 7 b9 05 26
        E 7 b9 05 27
        E 7 b9 05 29
        E 7 b9 05 2a
        E 7 b9 05 2c
        E 7 b9 05 2d
        E 7 b9 05 2f
        E 7 b9 05 30
        E 7 b9 05 31
        E 7 b9 05 33
        E 7 b9 05 34
        E 7 b9 05 35
        E 7 b9 05 36
        E 7 b9 05 37
        E 7 b9 05 38
        E 7 b9 05 39
        E 7 b9 05 3a
        E 7 b9 05 3b
        E 7 b9 05 3c
        E 7 b9 05 3c
        E 7 b9 05 3d
        E 7 b9 05 3d
        E 7 b9 05 3e
        E 7 b9 05 3e
        E 7 b9 05 3f
        E 7 b9 05 3f
        E 7 b9 05 3f
        E 7 b9 05 3f
        E 7 b9 05 3f
        E 7 b9 05 3f
        E 7 b9 05 3f
        E 7 b9 05 3f
        E 7 b9 05 3f
        E 7 b9 05 3e
        E 7 b9 05 3e
        E 7 b9 05 3d
        E 7 b9 05 3d
        E 7 b9 05 3c
        E 7 b9 05 3b
        E 7 b9 05 3a
        E 7 b9 05 3a
        E 7 b9 05 39
        E 7 b9 05 38
        E 7 b9 05 37
        E 7 b9 05 36
        E 7 b9 05 34
        E 7 b9 05 33
        E 7 b9 05 32
        E 7 b9 05 31
        E 7 b9 05 2f
        E 7 b9 05 2e
        E 7 b9 05 2c
        E 7 b9 05 2b
        E 7 b9 05 2a
        E 7 b9 05 28
        E 7 b9 05 27
        E 7 b9 05 25
        E 7 b9 05 23
        E 7 b9 05 22
        E 7 b9 05 20
        E 7 b9 05 1f
        E 7 b9 05 1d
        E 7 b9 05 1c
        E 7 b9 05 1a
        E 7 b9 05 18
        E 7 b9 05 17
        E 7 b9 05 15
        E 7 b9 05 14
        E 7 b9 05 13
        E 7 b9 05 11
        E 7 b9 05 10
        E 7 b9 05 0e
        E 7 b9 05 0d
        E 7 b9 05 0c
        E 7 b9 05 0b
        E 7 b9 05 09
        E 7 b9 05 08
        E 7 b9 05 07
        E 7 b9 05 06
        E 7 b9 05 05
        E 7 b9 05 05
        E 7 b9 05 04
        E 7 b9 05 03
        E 7 b9 05 02
        E 7 b9 05 02
        E 7 b9 05 01
        E 7 b9 05 01
        E 7 b9 05 00
        E 7 b9 05 00
        E 7 b9 05 00
        E 7 b9 05 00
        E 7 b9 05 00
        E 7 b9 05 00
        E 7 b9 05 00
        E 7 b9 05 00
        E 7 b9 05 00
        E 7 b9 05 01
        E 7 b9 05 01
        E 7 b9 05 02
        E 7 b9 05 02
        E 7 b9 05 03
        E 7 b9 05 03
        E 7 b9 05 04
        E 7 b9 05 05
        E 7 b9 05 06
        E 7 b9 05 07
        E 7 b9 05 08
        E 7 b9 05 09
        E 7 b9 05 0a
        E 7 b9 05 0b
        E 7 b9 05 0c
        E 7 b9 05 0e
        E 7 b9 05 0f
        E 7 b9 05 10
        E 7 b9 05 12
        E 7 b9 05 13
        E 7 b9 05 15
        E 7 b9 05 16
        E 7 b9 05 18
        E 7 b9 05 19
        E 7 b9 05 1b
        E 7 b9 05 1c
        E 7 b9 05 1e
        E 7 b9 05 20
        E 9 b9 05 20
        E 9 b9 05 21
        E 9 b9 05 23
        E 9 b9 05 24
        E 9 b9 05 26
        E 9 b9 05 27
        E 9 b9 05 29
        E 9 b9 05 2a
        E 9 b9 05 2c
        E 9 b9 05 2d
        E 9 b9 05 2f
        E 9 b9 05 30
        E 9 b9 05 31
        E 9 b9 05 33
        E 9 b9 05 34
        E 9 b9 05 35
        E 9 b9 05 36
        E 9 b9 05 37
        E 9 b9 05 38
        E 9 b9 05 39
        E 9 b9 05 3a
        E 9 b9 05 3b
        E 9 b9 05 3c
        E 9 b9 05 3c
        E 9 b9 05 3d
        E 9 b9 05 3d
        E 9 b9 05 3e
        E 9 b9 05 3e
        E 9 b9 05 3f
        E 9 b9 05 3f
        E 9 b9 05 3f
        E 9 b9 05 3f
        E 9 b9 05 3f
        E 9 b9 05 3f
        E 9 b9 05 3f
        E 9 b9 05 3f
        E 9 b9 05 3f
        E 9 b9 05 3e
        E 9 b9 05 3e
        E 9 b9 05 3d
        E 9 b9 05 3d
        E 9 b9 05 3c
        E 9 b9 05 3b
        E 9 b9 05 3a
        E 9 b9 05 3a
        E 9 b9 05 39
        E 9 b9 05 38
        E 9 b9 05 37
        E 9 b9 05 36
        E 9 b9 05 34
        E 9 b9 05 33
        E 9 b9 05 32
        E 9 b9 05 31
        E 9 b9 05 2f
        E 9 b9 05 2e
        E 9 b9 05 2c
        E 9 b9 05 2b
        E 9 b9 05 2a
        E 9 b9 05 28
        E 9 b9 05 27
        E 9 b9 05 25
        E 9 b9 05 23
        E 9 b9 05 22
        E 9 b9 05 20
        E 9 b9 05 1f
        E 9 b9 05 1d
        E 9 b9 05 1c
        E 9 b9 05 1a
        E 9 b9 05 18
        E 9 b9 05 17
        E 9 b9 05 15
        E 9 b9 05 14
        E 9 b9 05 13
        E 9 b9 05 11
        E 9 b9 05 10
        E 9 b9 05 0e
        E 9 b9 05 0d
        E 9 b9 05 0c
        E 9 b9 05 0b
        E 9 b9 05 09
        E 9 b9 05 08
        E 9 b9 05 07
        E 9 b9 05 06
        E 9 b9 05 05
        E 9 b9 05 05
        E 9 b9 05 04
        E 9 b9 05 03
        E 9 b9 05 02
        E 9 b9 05 02
        E 9 b9 05 01
        E 9 b9 05 01
        E 9 b9 05 00
        E 9 b9 05 00
        E 9 b9 05 00
        E 9 b9 05 00
        E 9 b9 05 00
        E 9 b9 05 00
        E 9 b9 05 00
        E 9 b9 05 00
        E 9 b9 05 00
        E 9 b9 05 01
        E 9 b9 05 01
        E 9 b9 05 02
        E 9 b9 05 02
        E 9 b9 05 03
        E 9 b9 05 03
        E 9 b9 05 04
        E 9 b9 05 05
        E 9 b9 05 06
        E 9 b9 05 07
        E 9 b9 05 08
        E 9 b9 05 09
        E 9 b9 05 0a
        E 9 b9 05 0b
        E 9 b9 05 0c
        E 9 b9 05 0e
        E 9 b9 05 0f
        E 9 b9 05 10
        E 9 b9 05 12
        E 9 b9 05 13
        E 9 b9 05 15
        E 9 b9 05 16
        E 9 b9 05 18
        E 9 b9 05 19
        E 9 b9 05 1b
        E 9 b9 05 1c
        E 9 b9 05 1e
        E 9 b9 05 20
        E 11 b9 05 40
        E 11 b9 05 43
        E 11 b9 05 46
        E 11 b9 05 49
        E 11 b9 05 4c
        E 11 b9 05 4f
        E 11 b9 05 52
        E 11 b9 05 55
        E 11 b9 05 58
        E 11 b9 05 5b
        E 11 b9 05 5e
        E 11 b9 05 60
        E 11 b9 05 63
        E 11 b9 05 66
        E 11 b9 05 68
        E 11 b9 05 6a
        E 11 b9 05 6d
        E 11 b9 05 6f
        E 11 b9 05 71
        E 11 b9 05 73
        E 11 b9 05 75
        E 11 b9 05 76
        E 11 b9 05 78
        E 11 b9 05 79
        E 11 b9 05 7a
        E 11 b9 05 7b
        E 11 b9 05 7c
        E 11 b9 05 7d
        E 11 b9 05 7e
        E 11 b9 05 7e
        E 11 b9 05 7f
        E 11 b9 05 7f
        E 11 b9 05 7f
        E 11 b9 05 7f
        E 11 b9 05 7f
        E 11 b9 05 7e
        E 11 b9 05 7e
        E 11 b9 05 7d
        E 11 b9 05 7c
        E 11 b9 05 7b
        E 11 b9 05 7a
        E 11 b9 05 78
        E 11 b9 05 77
        E 11 b9 05 75
        E 11 b9 05 74
        E 11 b9 05 72
        E 11 b9 05 70
        E 11 b9 05 6e
        E 11 b9 05 6c
        E 11 b9 05 69
        E 11 b9 05 67
        E 11 b9 05 64
        E 11 b9 05 62
        E 11 b9 05 5f
        E 11 b9 05 5c
        E 11 b9 05 59
        E 11 b9 05 57
        E 11 b9 05 54
        E 11 b9 05 51
        E 11 b9 05 4e
        E 11 b9 05 4a
        E 11 b9 05 47
        E 11 b9 05 44
        E 11 b9 05 41
        E 11 b9 05 3e
        E 11 b9 05 3b
        E 11 b9 05 38
        E 11 b9 05 35
        E 11 b9 05 31
        E 11 b9 05 2e
        E 11 b9 05 2b
        E 11 b9 05 28
        E 11 b9 05 26
        E 11 b9 05 23
        E 11 b9 05 20
        E 11 b9 05 1d
        E 11 b9 05 1b
        E 11 b9 05 18
        E 11 b9 05 16
        E 11 b9 05 13
        E 11 b9 05 11
        E 11 b9 05 0f
        E 11 b9 05 0d
        E 11 b9 05 0b
        E 11 b9 05 0a
        E 11 b9 05 08
        E 11 b9 05 07
        E 11 b9 05 05
        E 11 b9 05 04
        E 11 b9 05 03
        E 11 b9 05 02
        E 11 b9 05 01
        E 11 b9 05 01
        E 11 b9 05 00
        E 11 b9 05 00
        E 11 b9 05 00
        E 11 b9 05 00
        E 11 b9 05 00
        E 11 b9 05 01
        E 11 b9 05 01
        E 11 b9 05 02
        E 11 b9 05 03
        E 11 b9 05 04
        E 11 b9 05 05
        E 11 b9 05 06
        E 11 b9 05 07
        E 11 b9 05 09
        E 11 b9 05 0a
        E 11 b9 05 0c
        E 11 b9 05 0e
        E 11 b9 05 10
        E 11 b9 05 12
        E 11 b9 05 15
        E 11 b9 05 17
        E 11 b9 05 19
        E 11 b9 05 1c
        E 11 b9 05 1f
        E 11 b9 05 21
        E 11 b9 05 24
        E 11 b9 05 27
        E 11 b9 05 2a
        E 11 b9 05 2d
        E 11 b9 05 30
        E 11 b9 05 33
        E 11 b9 05 36
        E 11 b9 05 39
        E 11 b9 05 3c
        E 11 b9 05 40
        E 1 b9 05 39
        E 1 b9 05 3c
        E 1 b9 05 3f
        E 1 b9 05 41
        E 1 b9 05 44
        E 1 b9 05 47
        E 1 b9 05 49
        E 1 b9 05 4c
        E 1 b9 05 4f
        E 1 b9 05 51
        E 1 b9 05 54
        E 1 b9 05 56
        E 1 b9 05 59
        E 1 b9 05 5b
        E 1 b9 05 5d
        E 1 b9 05 5f
        E 1 b9 05 62
        E 1 b9 05 63
        E 1 b9 05 65
        E 1 b9 05 67
        E 1 b9 05 69
        E 1 b9 05 6a
        E 1 b9 05 6c
        E 1 b9 05 6c
        E 1 b9 05 6d
        E 1 b9 05 6e
        E 1 b9 05 6f
        E 1 b9 05 70
        E 1 b9 05 71
        E 1 b9 05 71
        E 1 b9 05 72
        E 1 b9 05 72
        E 1 b9 05 72
        E 1 b9 05 72
        E 1 b9 05 72
        E 1 b9 05 71
        E 1 b9 05 71
        E 1 b9 05 70
        E 1 b9 05 6f
        E 1 b9 05 6e
        E 1 b9 05 6d
        E 1 b9 05 6c
        E 1 b9 05 6b
        E 1 b9 05 69
        E 1 b9 05 68
        E 1 b9 05 66
        E 1 b9 05 64
        E 1 b9 05 63
        E 1 b9 05 61
        E 1 b9 05 5e
        E 1 b9 05 5c
        E 1 b9 05 5a
        E 1 b9 05 58
        E 1 b9 05 55
        E 1 b9 05 52
        E 1 b9 05 50
        E 1 b9 05 4e
        E 1 b9 05 4b
        E 1 b9 05 48
        E 1 b9 05 46
        E 1 b9 05 42
        E 1 b9 05 3f
        E 1 b9 05 3d
        E 1 b9 05 3a
        E 1 b9 05 37
        E 1 b9 05 35
        E 1 b9 05 32
        E 1 b9 05 2f
        E 1 b9 05 2c
        E 1 b9 05 29
        E 1 b9 05 26
        E 1 b9 05 24
        E 1 b9 05 22
        E 1 b9 05 1f
        E 1 b9 05 1c
        E 1 b9 05 1a
        E 1 b9 05 18
        E 1 b9 05 15
        E 1 b9 05 13
        E 1 b9 05 11
        E 1 b9 05 0f
        E 1 b9 05 0d
        E 1 b9 05 0b
        E 1 b9 05 09
        E 1 b9 05 09
        E 1 b9 05 07
        E 1 b9 05 06
        E 1 b9 05 04
        E 1 b9 05 03
        E 1 b9 05 02
        E 1 b9 05 01
        E 1 b9 05 00
        E 1 b9 05 00
        E 1 b9 05 00
        E 1 b9 05 00
        E 1 b9 05 00
        E 1 b9 05 00
        E 1 b9 05 00
        E 1 b9 05 00
        E 1 b9 05 00
        E 1 b9 05 01
        E 1 b9 05 02
        E 1 b9 05 03
        E 1 b9 05 04
        E 1 b9 05 05
        E 1 b9 05 06
        E 1 b9 05 08
        E 1 b9 05 09
        E 1 b9 05 0a
        E 1 b9 05 0c
        E 1 b9 05 0e
        E 1 b9 05 10
        E 1 b9 05 12
        E 1 b9 05 14
        E 1 b9 05 16
        E 1 b9 05 19
        E 1 b9 05 1b
        E 1 b9 05 1d
        E 1 b9 05 20
        E 1 b9 05 23
        E 1 b9 05 25
        E 1 b9 05 28
        E 1 b9 05 2b
        E 1 b9 05 2d
        E 1 b9 05 30
        E 1 b9 05 33
        E 1 b9 05 36
        E 1 b9 05 39
        E 5 b9 05 40
        E 5 b9 05 43
        E 5 b9 05 46
        E 5 b9 05 49
        E 5 b9 05 4c
        E 5 b9 05 4f
        E 5 b9 05 52
        E 5 b9 05 55
        E 5 b9 05 58
        E 5 b9 05 5b
        E 5 b9 05 5e
        E 5 b9 05 60
        E 5 b9 05 63
        E 5 b9 05 66
        E 5 b9 05 68
        E 5 b9 05 6a
        E 5 b9 05 6d
        E 5 b9 05 6f
        E 5 b9 05 71
        E 5 b9 05 73
        E 5 b9 05 75
        E 5 b9 05 76
        E 5 b9 05 78
        E 5 b9 05 79
        E 5 b9 05 7a
        E 5 b9 05 7b
        E 5 b9 05 7c
        E 5 b9 05 7d
        E 5 b9 05 7e
        E 5 b9 05 7e
        E 5 b9 05 7f
        E 5 b9 05 7f
        E 5 b9 05 7f
        E 5 b9 05 7f
        E 5 b9 05 7f
        E 5 b9 05 7e
        E 5 b9 05 7e
        E 5 b9 05 7d
        E 5 b9 05 7c
        E 5 b9 05 7b
        E 5 b9 05 7a
        E 5 b9 05 78
        E 5 b9 05 77
        E 5 b9 05 75
        E 5 b9 05 74
        E 5 b9 05 72
        E 5 b9 05 70
        E 5 b9 05 6e
        E 5 b9 05 6c
        E 5 b9 05 69
        E 5 b9 05 67
        E 5 b9 05 64
        E 5 b9 05 62
        E 5 b9 05 5f
        E 5 b9 05 5c
        E 5 b9 05 59
        E 5 b9 05 57
        E 5 b9 05 54
        E 5 b9 05 51
        E 5 b9 05 4e
        E 5 b9 05 4a
        E 5 b9 05 47
        E 5 b9 05 44
        E 5 b9 05 41
        E 5 b9 05 3e
        E 5 b9 05 3b
        E 5 b9 05 38
        E 5 b9 05 35
        E 5 b9 05 31
        E 5 b9 05 2e
        E 5 b9 05 2b
        E 5 b9 05 28
        E 5 b9 05 26
        E 5 b9 05 23
        E 5 b9 05 20
        E 5 b9 05 1d
        E 5 b9 05 1b
        E 5 b9 05 18
        E 5 b9 05 16
        E 5 b9 05 13
        E 5 b9 05 11
        E 5 b9 05 0f
        E 5 b9 05 0d
        E 5 b9 05 0b
        E 5 b9 05 0a
        E 5 b9 05 08
        E 5 b9 05 07
        E 5 b9 05 05
        E 5 b9 05 04
        E 5 b9 05 03
        E 5 b9 05 02
        E 5 b9 05 01
        E 5 b9 05 01
        E 5 b9 05 00
        E 5 b9 05 00
        E 5 b9 05 00
        E 5 b9 05 00
        E 5 b9 05 00
        E 5 b9 05 01
        E 5 b9 05 01
        E 5 b9 05 02
        E 5 b9 05 03
        E 5 b9 05 04
        E 5 b9 05 05
        E 5 b9 05 06
        E 5 b9 05 07
        E 5 b9 05 09
        E 5 b9 05 0a
        E 5 b9 05 0c
        E 5 b9 05 0e
        E 5 b9 05 10
        E 5 b9 05 12
        E 5 b9 05 15
        E 5 b9 05 17
        E 5 b9 05 19
        E 5 b9 05 1c
        E 5 b9 05 1f
        E 5 b9 05 21
        E 5 b9 05 24
        E 5 b9 05 27
        E 5 b9 05 2a
        E 5 b9 05 2d
        E 5 b9 05 30
        E 5 b9 05 33
        E 5 b9 05 36
        E 5 b9 05 39
        E 5 b9 05 3c
        E 5 b9 05 40
        E 9 b9 05 39
        E 9 b9 05 3c
        E 9 b9 05 3f
        E 9 b9 05 41
        E 9 b9 05 44
        E 9 b9 05 47
        E 9 b9 05 49
        E 9 b9 05 4c
        E 9 b9 05 4f
        E 9 b9 05 51
        E 9 b9 05 54
        E 9 b9 05 56
        E 9 b9 05 59
        E 9 b9 05 5b
        E 9 b9 05 5d
        E 9 b9 05 5f
        E 9 b9 05 62
        E 9 b9 05 63
        E 9 b9 05 65
        E 9 b9 05 67
        E 9 b9 05 69
        E 9 b9 05 6a
        E 9 b9 05 6c
        E 9 b9 05 6c
        E 9 b9 05 6d
        E 9 b9 05 6e
        E 9 b9 05 6f
        E 9 b9 05 70
        E 9 b9 05 71
        E 9 b9 05 71
        E 9 b9 05 72
        E 9 b9 05 72
        E 9 b9 05 72
        E 9 b9 05 72
        E 9 b9 05 72
        E 9 b9 05 71
        E 9 b9 05 71
        E 9 b9 05 70
        E 9 b9 05 6f
        E 9 b9 05 6e
        E 9 b9 05 6d
        E 9 b9 05 6c
        E 9 b9 05 6b
        E 9 b9 05 69
        E 9 b9 05 68
        E 9 b9 05 66
        E 9 b9 05 64
        E 9 b9 05 63
        E 9 b9 05 61
        E 9 b9 05 5e
        E 9 b9 05 5c
        E 9 b9 05 5a
        E 9 b9 05 58
        E 9 b9 05 55
        E 9 b9 05 52
        E 9 b9 05 50
        E 9 b9 05 4e
        E 9 b9 05 4b
        E 9 b9 05 48
        E 9 b9 05 46
        E 9 b9 05 42
        E 9 b9 05 3f
        E 9 b9 05 3d
        E 9 b9 05 3a
        E 9 b9 05 37
        E 9 b9 05 35
        E 9 b9 05 32
        E 9 b9 05 2f
        E 9 b9 05 2c
        E 9 b9 05 29
        E 9 b9 05 26
        E 9 b9 05 24
        E 9 b9 05 22
        E 9 b9 05 1f
        E 9 b9 05 1c
        E 9 b9 05 1a
        E 9 b9 05 18
        E 9 b9 05 15
        E 9 b9 05 13
        E 9 b9 05 11
        E 9 b9 05 0f
        E 9 b9 05 0d
        E 9 b9 05 0b
        E 9 b9 05 09
        E 9 b9 05 09
        E 9 b9 05 07
        E 9 b9 05 06
        E 9 b9 05 04
        E 9 b9 05 03
        E 9 b9 05 02
        E 9 b9 05 01
        E 9 b9 05 00
        E 9 b9 05 00
        E 9 b9 05 00
        E 9 b9 05 00
        E 9 b9 05 00
        E 9 b9 05 00
        E 9 b9 05 00
        E 9 b9 05 00
        E 9 b9 05 00
        E 9 b9 05 01
        E 9 b9 05 02
        E 9 b9 05 03
        E 9 b9 05 04
        E 9 b9 05 05
        E 9 b9 05 06
        E 9 b9 05 08
        E 9 b9 05 09
        E 9 b9 05 0a
        E 9 b9 05 0c
        E 9 b9 05 0e
        E 9 b9 05 10
        E 9 b9 05 12
        E 9 b9 05 14
        E 9 b9 05 16
        E 9 b9 05 19
        E 9 b9 05 1b
        E 9 b9 05 1d
        E 9 b9 05 20
        E 9 b9 05 23
        E 9 b9 05 25
        E 9 b9 05 28
        E 9 b9 05 2b
        E 9 b9 05 2d
        E 9 b9 05 30
        E 9 b9 05 33
        E 9 b9 05 36
        E 9 b9 05 39
        E 7 b9 05 20
        E 7 b9 05 21
        E 7 b9 05 23
        E 7 b9 05 24
        E 7 b9 05 26
        E 7 b9 05 27
        E 7 b9 05 29
        E 7 b9 05 2a
        E 7 b9 05 2c
        E 7 b9 05 2d
        E 7 b9 05 2f
        E 7 b9 05 30
        E 7 b9 05 31
        E 7 b9 05 33
        E 7 b9 05 34
        E 7 b9 05 35
        E 7 b9 05 36
        E 7 b9 05 37
        E 7 b9 05 38
        E 7 b9 05 39
        E 7 b9 05 3a
        E 7 b9 05 3b
        E 7 b9 05 3c
        E 7 b9 05 3c
        E 7 b9 05 3d
        E 7 b9 05 3d
        E 7 b9 05 3e
        E 7 b9 05 3e
        E 7 b9 05 3f
        E 7 b9 05 3f
        E 7 b9 05 3f
        E 7 b9 05 3f
        E 7 b9 05 3f
        E 7 b9 05 3f
        E 7 b9 05 3f
        E 7 b9 05 3f
        E 7 b9 05 3f
        E 7 b9 05 3e
        E 7 b9 05 3e
        E 7 b9 05 3d
        E 7 b9 05 3d
        E 7 b9 05 3c
        E 7 b9 05 3b
        E 7 b9 05 3a
        E 7 b9 05 3a
        E 7 b9 05 39
        E 7 b9 05 38
        E 7 b9 05 37
        E 7 b9 05 36
        E 7 b9 05 34
        E 7 b9 05 33
        E 7 b9 05 32
        E 7 b9 05 31
        E 7 b9 05 2f
        E 7 b9 05 2e
        E 7 b9 05 2c
        E 7 b9 05 2b
        E 7 b9 05 2a
        E 7 b9 05 28
        E 7 b9 05 27
        E 7 b9 05 25
        E 7 b9 05 23
        E 7 b9 05 22
        E 7 b9 05 20
        E 7 b9 05 1f
        E 7 b9 05 1d
        E 7 b9 05 1c
        E 7 b9 05 1a
        E 7 b9 05 18
        E 7 b9 05 17
        E 7 b9 05 15
        E 7 b9 05 14
        E 7 b9 05 13
        E 7 b9 05 11
        E 7 b9 05 10
        E 7 b9 05 0e
        E 7 b9 05 0d
        E 7 b9 05 0c
        E 7 b9 05 0b
        E 7 b9 05 09
        E 7 b9 05 08
        E 7 b9 05 07
        E 7 b9 05 06
        E 7 b9 05 05
        E 7 b9 05 05
        E 7 b9 05 04
        E 7 b9 05 03
        E 7 b9 05 02
        E 7 b9 05 02
        E 7 b9 05 01
        E 7 b9 05 01
        E 7 b9 05 00
        E 7 b9 05 00
        E 7 b9 05 00
        E 7 b9 05 00
        E 7 b9 05 00
        E 7 b9 05 00
        E 7 b9 05 00
        E 7 b9 05 00
        E 7 b9 05 00
        E 7 b9 05 01
        E 7 b9 05 01
        E 7 b9 05 02
        E 7 b9 05 02
        E 7 b9 05 03
        E 7 b9 05 03
        E 7 b9 05 04
        E 7 b9 05 05
        E 7 b9 05 06
        E 7 b9 05 07
        E 7 b9 05 08
        E 7 b9 05 09
        E 7 b9 05 0a
        E 7 b9 05 0b
        E 7 b9 05 0c
        E 7 b9 05 0e
        E 7 b9 05 0f
        E 7 b9 05 10
        E 7 b9 05 12
        E 7 b9 05 13
        E 7 b9 05 15
        E 7 b9 05 16
        E 7 b9 05 18
        E 7 b9 05 19
        E 7 b9 05 1b
        E 7 b9 05 1c
        E 7 b9 05 1e
        E 7 b9 05 20
        E 7 b9 05 20
        E 7 b9 05 21
        E 7 b9 05 23
        E 7 b9 05 24
        E 7 b9 05 26
        E 7 b9 05 27
        E 7 b9 05 29
        E 7 b9 05 2a
        E 7 b9 05 2c
        E 7 b9 05 2d
        E 7 b9 05 2f
        E 7 b9 05 30
        E 7 b9 05 31
        E 7 b9 05 33
        E 7 b9 05 34
        E 7 b9 05 35
        E 7 b9 05 36
        E 7 b9 05 37
        E 7 b9 05 38
        E 7 b9 05 39
        E 7 b9 05 3a
        E 7 b9 05 3b
        E 7 b9 05 3c
        E 7 b9 05 3c
        E 7 b9 05 3d
        E 7 b9 05 3d
        E 7 b9 05 3e
        E 7 b9 05 3e
        E 7 b9 05 3f
        E 7 b9 05 3f
        E 7 b9 05 3f
        E 7 b9 05 3f
        E 7 b9 05 3f
        E 7 b9 05 3f
        E 7 b9 05 3f
        E 7 b9 05 3f
        E 7 b9 05 3f
        E 7 b9 05 3e
        E 7 b9 05 3e
        E 7 b9 05 3d
        E 7 b9 05 3d
        E 7 b9 05 3c
        E 7 b9 05 3b
        E 7 b9 05 3a
        E 7 b9 05 3a
        E 7 b9 05 39
        E 7 b9 05 38
        E 7 b9 05 37
        E 7 b9 05 36
        E 7 b9 05 34
        E 7 b9 05 33
        E 7 b9 05 32
        E 7 b9 05 31
        E 7 b9 05 2f
        E 7 b9 05 2e
        E 7 b9 05 2c
        E 7 b9 05 2b
        E 7 b9 05 2a
        E 7 b9 05 28
        E 7 b9 05 27
        E 7 b9 05 25
        E 7 b9 05 23
        E 7 b9 05 22
        E 7 b9 05 20
        E 7 b9 05 1f
        E 7 b9 05 1d
        E 7 b9 05 1c
        E 7 b9 05 1a
        E 7 b9 05 18
        E 7 b9 05 17
        E 7 b9 05 15
        E 7 b9 05 14
        E 7 b9 05 13
        E 7 b9 05 11
        E 7 b9 05 10
        E 7 b9 05 0e
        E 7 b9 05 0d
        E 7 b9 05 0c
        E 7 b9 05 0b
        E 7 b9 05 09
        E 7 b9 05 08
        E 7 b9 05 07
        E 7 b9 05 06
        E 7 b9 05 05
        E 7 b9 05 05
        E 7 b9 05 04
        E 7 b9 05 03
        E 7 b9 05 02
        E 7 b9 05 02
        E 7 b9 05 01
        E 7 b9 05 01
        E 7 b9 05 00
        E 7 b9 05 00
        E 7 b9 05 00
        E 7 b9 05 00
        E 7 b9 05 00
        E 7 b9 05 00
        E 7 b9 05 00
        E 7 b9 05 00
        E 7 b9 05 00
        E 7 b9 05 01
        E 7 b9 05 01
        E 7 b9 05 02
        E 7 b9 05 02
        E 7 b9 05 03
        E 7 b9 05 03
        E 7 b9 05 04
        E 7 b9 05 05
        E 7 b9 05 06
        E 7 b9 05 07
        E 7 b9 05 08
        E 7 b9 05 09
        E 7 b9 05 0a
        E 7 b9 05 0b
        E 7 b9 05 0c
        E 7 b9 05 0e
        E 7 b9 05 0f
        E 7 b9 05 10
        E 7 b9 05 12
        E 7 b9 05 13
        E 7 b9 05 15
        E 7 b9 05 16
        E 7 b9 05 18
        E 7 b9 05 19
        E 7 b9 05 1b
        E 7 b9 05 1c
        E 7 b9 05 1e
        E 7 b9 05 20
        E 14 b9 05 2c
        E 14 b9 05 2e
        E 14 b9 05 31
        E 14 b9 05 33
        E 14 b9 05 35
        E 14 b9 05 37
        E 14 b9 05 39
        E 14 b9 05 3b
        E 14 b9 05 3d
        E 14 b9 05 3f
        E 14 b9 05 41
        E 14 b9 05 43
        E 14 b9 05 45
        E 14 b9 05 47
        E 14 b9 05 48
        E 14 b9 05 4a
        E 14 b9 05 4c
        E 14 b9 05 4d
        E 14 b9 05 4f
        E 14 b9 05 50
        E 14 b9 05 51
        E 14 b9 05 52
        E 14 b9 05 54
        E 14 b9 05 54
        E 14 b9 05 55
        E 14 b9 05 56
        E 14 b9 05 56
        E 14 b9 05 57
        E 14 b9 05 58
        E 14 b9 05 58
        E 14 b9 05 58
        E 14 b9 05 58
        E 14 b9 05 58
        E 14 b9 05 58
        E 14 b9 05 58
        E 14 b9 05 58
        E 14 b9 05 58
        E 14 b9 05 57
        E 14 b9 05 56
        E 14 b9 05 56
        E 14 b9 05 55
        E 14 b9 05 54
        E 14 b9 05 53
        E 14 b9 05 51
        E 14 b9 05 51
        E 14 b9 05 4f
        E 14 b9 05 4e
        E 14 b9 05 4d
        E 14 b9 05 4b
        E 14 b9 05 49
        E 14 b9 05 48
        E 14 b9 05 46
        E 14 b9 05 44
        E 14 b9 05 42
        E 14 b9 05 40
        E 14 b9 05 3e
        E 14 b9 05 3c
        E 14 b9 05 3a
        E 14 b9 05 38
        E 14 b9 05 36
        E 14 b9 05 33
        E 14 b9 05 31
        E 14 b9 05 2f
        E 14 b9 05 2d
        E 14 b9 05 2b
        E 14 b9 05 29
        E 14 b9 05 27
        E 14 b9 05 25
        E 14 b9 05 22
        E 14 b9 05 20
        E 14 b9 05 1e
        E 14 b9 05 1c
        E 14 b9 05 1a
        E 14 b9 05 18
        E 14 b9 05 16
        E 14 b9 05 14
        E 14 b9 05 12
        E 14 b9 05 10
        E 14 b9 05 0f
        E 14 b9 05 0d
        E 14 b9 05 0b
        E 14 b9 05 0a
        E 14 b9 05 09
        E 14 b9 05 07
        E 14 b9 05 07
        E 14 b9 05 05
        E 14 b9 05 04
        E 14 b9 05 03
        E 14 b9 05 02
        E 14 b9 05 02
        E 14 b9 05 01
        E 14 b9 05 00
        E 14 b9 05 00
        E 14 b9 05 00
        E 14 b9 05 00
        E 14 b9 05 00
        E 14 b9 05 00
        E 14 b9 05 00
        E 14 b9 05 00
        E 14 b9 05 00
        E 14 b9 05 01
        E 14 b9 05 02
        E 14 b9 05 02
        E 14 b9 05 03
        E 14 b9 05 04
        E 14 b9 05 04
        E 14 b9 05 06
        E 14 b9 05 07
        E 14 b9 05 08
        E 14 b9 05 09
        E 14 b9 05 0b
        E 14 b9 05 0c
        E 14 b9 05 0e
        E 14 b9 05 10
        E 14 b9 05 11
        E 14 b9 05 13
        E 14 b9 05 15
        E 14 b9 05 17
        E 14 b9 05 19
        E 14 b9 05 1b
        E 14 b9 05 1d
        E 14 b9 05 1f
        E 14 b9 05 21
        E 14 b9 05 23
        E 14 b9 05 25
        E 14 b9 05 27
        E 14 b9 05 2a
        E 14 b9 05 2c
        E 12 b9 05 33
        E 12 b9 05 35
        E 12 b9 05 37
        E 12 b9 05 3a
        E 12 b9 05 3c
        E 12 b9 05 3f
        E 12 b9 05 41
        E 12 b9 05 44
        E 12 b9 05 46
        E 12 b9 05 48
        E 12 b9 05 4b
        E 12 b9 05 4c
        E 12 b9 05 4f
        E 12 b9 05 51
        E 12 b9 05 53
        E 12 b9 05 54
        E 12 b9 05 57
        E 12 b9 05 58
        E 12 b9 05 5a
        E 12 b9 05 5b
        E 12 b9 05 5d
        E 12 b9 05 5e
        E 12 b9 05 5f
        E 12 b9 05 60
        E 12 b9 05 61
        E 12 b9 05 62
        E 12 b9 05 63
        E 12 b9 05 63
        E 12 b9 05 64
        E 12 b9 05 64
        E 12 b9 05 65
        E 12 b9 05 65
        E 12 b9 05 65
        E 12 b9 05 65
        E 12 b9 05 65
        E 12 b9 05 64
        E 12 b9 05 64
        E 12 b9 05 63
        E 12 b9 05 63
        E 12 b9 05 62
        E 12 b9 05 61
        E 12 b9 05 5f
        E 12 b9 05 5f
        E 12 b9 05 5d
        E 12 b9 05 5c
        E 12 b9 05 5b
        E 12 b9 05 59
        E 12 b9 05 57
        E 12 b9 05 56
        E 12 b9 05 54
        E 12 b9 05 52
        E 12 b9 05 50
        E 12 b9 05 4e
        E 12 b9 05 4c
        E 12 b9 05 49
        E 12 b9 05 47
        E 12 b9 05 45
        E 12 b9 05 43
        E 12 b9 05 40
        E 12 b9 05 3e
        E 12 b9 05 3b
        E 12 b9 05 38
        E 12 b9 05 36
        E 12 b9 05 33
        E 12 b9 05 31
        E 12 b9 05 2f
        E 12 b9 05 2c
        E 12 b9 05 2a
        E 12 b9 05 27
        E 12 b9 05 24
        E 12 b9 05 22
        E 12 b9 05 1f
        E 12 b9 05 1e
        E 12 b9 05 1b
        E 12 b9 05 19
        E 12 b9 05 17
        E 12 b9 05 15
        E 12 b9 05 13
        E 12 b9 05 11
        E 12 b9 05 0f
        E 12 b9 05 0d
        E 12 b9 05 0b
        E 12 b9 05 0a
        E 12 b9 05 08
        E 12 b9 05 07
        E 12 b9 05 06
        E 12 b9 05 05
        E 12 b9 05 03
        E 12 b9 05 03
        E 12 b9 05 02
        E 12 b9 05 01
        E 12 b9 05 00
        E 12 b9 05 00
        E 12 b9 05 00
        E 12 b9 05 00
        E 12 b9 05 00
        E 12 b9 05 00
        E 12 b9 05 00
        E 12 b9 05 00
        E 12 b9 05 00
        E 12 b9 05 01
        E 12 b9 05 02
        E 12 b9 05 03
        E 12 b9 05 03
        E 12 b9 05 04
        E 12 b9 05 05
        E 12 b9 05 07
        E 12 b9 05 07
        E 12 b9 05 09
        E 12 b9 05 0b
        E 12 b9 05 0c
        E 12 b9 05 0e
        E 12 b9 05 10
        E 12 b9 05 12
        E 12 b9 05 14
        E 12 b9 05 16
        E 12 b9 05 18
        E 12 b9 05 1a
        E 12 b9 05 1c
        E 12 b9 05 1f
        E 12 b9 05 21
        E 12 b9 05 24
        E 12 b9 05 26
        E 12 b9 05 28
        E 12 b9 05 2b
        E 12 b9 05 2d
        E 12 b9 05 2f
        E 12 b9 05 33
        E 14 b9 05 06
        E 14 b9 05 06
        E 14 b9 05 07
        E 14 b9 05 07
        E 14 b9 05 07
        E 14 b9 05 07
        E 14 b9 05 08
        E 14 b9 05 08
        E 14 b9 05 08
        E 14 b9 05 09
        E 14 b9 05 09
        E 14 b9 05 09
        E 14 b9 05 09
        E 14 b9 05 0a
        E 14 b9 05 0a
        E 14 b9 05 0a
        E 14 b9 05 0a
        E 14 b9 05 0b
        E 14 b9 05 0b
        E 14 b9 05 0b
        E 14 b9 05 0b
        E 14 b9 05 0b
        E 14 b9 05 0c
        E 14 b9 05 0c
        E 14 b9 05 0c
        E 14 b9 05 0c
        E 14 b9 05 0c
        E 14 b9 05 0c
        E 14 b9 05 0c
        E 14 b9 05 0c
        E 14 b9 05 0c
        E 14 b9 05 0c
        E 14 b9 05 0c
        E 14 b9 05 0c
        E 14 b9 05 0c
        E 14 b9 05 0c
        E 14 b9 05 0c
        E 14 b9 05 0c
        E 14 b9 05 0c
        E 14 b9 05 0c
        E 14 b9 05 0c
        E 14 b9 05 0c
        E 14 b9 05 0b
        E 14 b9 05 0b
        E 14 b9 05 0b
        E 14 b9 05 0b
        E 14 b9 05 0b
        E 14 b9 05 0b
        E 14 b9 05 0a
        E 14 b9 05 0a
        E 14 b9 05 0a
        E 14 b9 05 0a
        E 14 b9 05 09
        E 14 b9 05 09
        E 14 b9 05 09
        E 14 b9 05 08
        E 14 b9 05 08
        E 14 b9 05 08
        E 14 b9 05 08
        E 14 b9 05 07
        E 14 b9 05 07
        E 14 b9 05 07
        E 14 b9 05 06
        E 14 b9 05 06
        E 14 b9 05 06
        E 14 b9 05 05
        E 14 b9 05 05
        E 14 b9 05 05
        E 14 b9 05 04
        E 14 b9 05 04
        E 14 b9 05 04
        E 14 b9 05 04
        E 14 b9 05 03
        E 14 b9 05 03
        E 14 b9 05 03
        E 14 b9 05 02
        E 14 b9 05 02
        E 14 b9 05 02
        E 14 b9 05 02
        E 14 b9 05 01
        E 14 b9 05 01
        E 14 b9 05 01
        E 14 b9 05 01
        E 14 b9 05 01
        E 14 b9 05 01
        E 14 b9 05 00
        E 14 b9 05 00
        E 14 b9 05 00
        E 14 b9 05 00
        E 14 b9 05 00
        E 14 b9 05 00
        E 14 b9 05 00
        E 14 b9 05 00
        E 14 b9 05 00
        E 14 b9 05 00
        E 14 b9 05 00
        E 14 b9 05 00
        E 14 b9 05 00
        E 14 b9 05 00
        E 14 b9 05 00
        E 14 b9 05 00
        E 14 b9 05 00
        E 14 b9 05 00
        E 14 b9 05 00
        E 14 b9 05 00
        E 14 b9 05 00
        E 14 b9 05 00
        E 14 b9 05 01
        E 14 b9 05 01
        E 14 b9 05 01
        E 14 b9 05 01
        E 14 b9 05 01
        E 14 b9 05 02
        E 14 b9 05 02
        E 14 b9 05 02
        E 14 b9 05 02
        E 14 b9 05 03
        E 14 b9 05 03
        E 14 b9 05 03
        E 14 b9 05 03
        E 14 b9 05 04
        E 14 b9 05 04
        E 14 b9 05 04
        E 14 b9 05 05
        E 14 b9 05 05
        E 14 b9 05 05
        E 14 b9 05 06
        E 14 b9 05 06
        E 12 b9 05 19
        E 12 b9 05 1a
        E 12 b9 05 1c
        E 12 b9 05 1d
        E 12 b9 05 1e
        E 12 b9 05 1f
        E 12 b9 05 20
        E 12 b9 05 22
        E 12 b9 05 23
        E 12 b9 05 24
        E 12 b9 05 25
        E 12 b9 05 26
        E 12 b9 05 27
        E 12 b9 05 28
        E 12 b9 05 29
        E 12 b9 05 2a
        E 12 b9 05 2b
        E 12 b9 05 2c
        E 12 b9 05 2d
        E 12 b9 05 2e
        E 12 b9 05 2e
        E 12 b9 05 2f
        E 12 b9 05 30
        E 12 b9 05 30
        E 12 b9 05 30
        E 12 b9 05 31
        E 12 b9 05 31
        E 12 b9 05 32
        E 12 b9 05 32
        E 12 b9 05 32
        E 12 b9 05 32
        E 12 b9 05 32
        E 12 b9 05 32
        E 12 b9 05 32
        E 12 b9 05 32
        E 12 b9 05 32
        E 12 b9 05 32
        E 12 b9 05 32
        E 12 b9 05 31
        E 12 b9 05 31
        E 12 b9 05 30
        E 12 b9 05 30
        E 12 b9 05 2f
        E 12 b9 05 2e
        E 12 b9 05 2e
        E 12 b9 05 2d
        E 12 b9 05 2c
        E 12 b9 05 2c
        E 12 b9 05 2b
        E 12 b9 05 2a
        E 12 b9 05 29
        E 12 b9 05 28
        E 12 b9 05 27
        E 12 b9 05 26
        E 12 b9 05 24
        E 12 b9 05 23
        E 12 b9 05 22
        E 12 b9 05 21
        E 12 b9 05 20
        E 12 b9 05 1f
        E 12 b9 05 1d
        E 12 b9 05 1c
        E 12 b9 05 1b
        E 12 b9 05 1a
        E 12 b9 05 18
        E 12 b9 05 17
        E 12 b9 05 16
        E 12 b9 05 15
        E 12 b9 05 13
        E 12 b9 05 12
        E 12 b9 05 11
        E 12 b9 05 10
        E 12 b9 05 0f
        E 12 b9 05 0e
        E 12 b9 05 0c
        E 12 b9 05 0b
        E 12 b9 05 0a
        E 12 b9 05 09
        E 12 b9 05 08
        E 12 b9 05 07
        E 12 b9 05 06
        E 12 b9 05 06
        E 12 b9 05 05
        E 12 b9 05 04
        E 12 b9 05 04
        E 12 b9 05 03
        E 12 b9 05 02
        E 12 b9 05 02
        E 12 b9 05 01
        E 12 b9 05 01
        E 12 b9 05 00
        E 12 b9 05 00
        E 12 b9 05 00
        E 12 b9 05 00
        E 12 b9 05 00
        E 12 b9 05 00
        E 12 b9 05 00
        E 12 b9 05 00
        E 12 b9 05 00
        E 12 b9 05 00
        E 12 b9 05 00
        E 12 b9 05 01
        E 12 b9 05 01
        E 12 b9 05 02
        E 12 b9 05 02
        E 12 b9 05 02
        E 12 b9 05 03
        E 12 b9 05 04
        E 12 b9 05 04
        E 12 b9 05 05
        E 12 b9 05 06
        E 12 b9 05 07
        E 12 b9 05 08
        E 12 b9 05 09
        E 12 b9 05 0a
        E 12 b9 05 0b
        E 12 b9 05 0c
        E 12 b9 05 0d
        E 12 b9 05 0e
        E 12 b9 05 0f
        E 12 b9 05 10
        E 12 b9 05 12
        E 12 b9 05 13
        E 12 b9 05 14
        E 12 b9 05 15
        E 12 b9 05 16
        E 12 b9 05 18
        E 12 b9 05 19
        E 7 b9 05 2c
        E 7 b9 05 2e
        E 7 b9 05 31
        E 7 b9 05 33
        E 7 b9 05 35
        E 7 b9 05 37
        E 7 b9 05 39
        E 7 b9 05 3b
        E 7 b9 05 3d
        E 7 b9 05 3f
        E 7 b9 05 41
        E 7 b9 05 43
        E 7 b9 05 45
        E 7 b9 05 47
        E 7 b9 05 48
        E 7 b9 05 4a
        E 7 b9 05 4c
        E 7 b9 05 4d
        E 7 b9 05 4f
        E 7 b9 05 50
        E 7 b9 05 51
        E 7 b9 05 52
        E 7 b9 05 54
        E 7 b9 05 54
        E 7 b9 05 55
        E 7 b9 05 56
        E 7 b9 05 56
        E 7 b9 05 57
        E 7 b9 05 58
        E 7 b9 05 58
        E 7 b9 05 58
        E 7 b9 05 58
        E 7 b9 05 58
        E 7 b9 05 58
        E 7 b9 05 58
        E 7 b9 05 58
        E 7 b9 05 58
        E 7 b9 05 57
        E 7 b9 05 56
        E 7 b9 05 56
        E 7 b9 05 55
        E 7 b9 05 54
        E 7 b9 05 53
        E 7 b9 05 51
        E 7 b9 05 51
        E 7 b9 05 4f
        E 7 b9 05 4e
        E 7 b9 05 4d
        E 7 b9 05 4b
        E 7 b9 05 49
        E 7 b9 05 48
        E 7 b9 05 46
        E 7 b9 05 44
        E 7 b9 05 42
        E 7 b9 05 40
        E 7 b9 05 3e
        E 7 b9 05 3c
        E 7 b9 05 3a
        E 7 b9 05 38
        E 7 b9 05 36
        E 7 b9 05 33
        E 7 b9 05 31
        E 7 b9 05 2f
        E 7 b9 05 2d
        E 7 b9 05 2b
        E 7 b9 05 29
        E 7 b9 05 27
        E 7 b9 05 25
        E 7 b9 05 22
        E 7 b9 05 20
        E 7 b9 05 1e
        E 7 b9 05 1c
        E 7 b9 05 1a
        E 7 b9 05 18
        E 7 b9 05 16
        E 7 b9 05 14
        E 7 b9 05 12
        E 7 b9 05 10
        E 7 b9 05 0f
        E 7 b9 05 0d
        E 7 b9 05 0b
        E 7 b9 05 0a
        E 7 b9 05 09
        E 7 b9 05 07
        E 7 b9 05 07
        E 7 b9 05 05
        E 7 b9 05 04
        E 7 b9 05 03
        E 7 b9 05 02
        E 7 b9 05 02
        E 7 b9 05 01
        E 7 b9 05 00
        E 7 b9 05 00
        E 7 b9 05 00
        E 7 b9 05 00
        E 7 b9 05 00
        E 7 b9 05 00
        E 7 b9 05 00
        E 7 b9 05 00
        E 7 b9 05 00
        E 7 b9 05 01
        E 7 b9 05 02
        E 7 b9 05 02
        E 7 b9 05 03
        E 7 b9 05 04
        E 7 b9 05 04
        E 7 b9 05 06
        E 7 b9 05 07
        E 7 b9 05 08
        E 7 b9 05 09
        E 7 b9 05 0b
        E 7 b9 05 0c
        E 7 b9 05 0e
        E 7 b9 05 10
        E 7 b9 05 11
        E 7 b9 05 13
        E 7 b9 05 15
        E 7 b9 05 17
        E 7 b9 05 19
        E 7 b9 05 1b
        E 7 b9 05 1d
        E 7 b9 05 1f
        E 7 b9 05 21
        E 7 b9 05 23
        E 7 b9 05 25
        E 7 b9 05 27
        E 7 b9 05 2a
        E 7 b9 05 2c
        E 7 b9 05 20
        E 7 b9 05 21
        E 7 b9 05 23
        E 7 b9 05 24
        E 7 b9 05 26
        E 7 b9 05 27
        E 7 b9 05 29
        E 7 b9 05 2a
        E 7 b9 05 2c
        E 7 b9 05 2d
        E 7 b9 05 2f
        E 7 b9 05 30
        E 7 b9 05 31
        E 7 b9 05 33
        E 7 b9 05 34
        E 7 b9 05 35
        E 7 b9 05 36
        E 7 b9 05 37
        E 7 b9 05 38
        E 7 b9 05 39
        E 7 b9 05 3a
        E 7 b9 05 3b
        E 7 b9 05 3c
        E 7 b9 05 3c
        E 7 b9 05 3d
        E 7 b9 05 3d
        E 7 b9 05 3e
        E 7 b9 05 3e
        E 7 b9 05 3f
        E 7 b9 05 3f
        E 7 b9 05 3f
        E 7 b9 05 3f
        E 7 b9 05 3f
        E 7 b9 05 3f
        E 7 b9 05 3f
        E 7 b9 05 3f
        E 7 b9 05 3f
        E 7 b9 05 3e
        E 7 b9 05 3e
        E 7 b9 05 3d
        E 7 b9 05 3d
        E 7 b9 05 3c
        E 7 b9 05 3b
        E 7 b9 05 3a
        E 7 b9 05 3a
        E 7 b9 05 39
        E 7 b9 05 38
        E 7 b9 05 37
        E 7 b9 05 36
        E 7 b9 05 34
        E 7 b9 05 33
        E 7 b9 05 32
        E 7 b9 05 31
        E 7 b9 05 2f
        E 7 b9 05 2e
        E 7 b9 05 2c
        E 7 b9 05 2b
        E 7 b9 05 2a
        E 7 b9 05 28
        E 7 b9 05 27
        E 7 b9 05 25
        E 7 b9 05 23
        E 7 b9 05 22
        E 7 b9 05 20
        E 7 b9 05 1f
        E 7 b9 05 1d
        E 7 b9 05 1c
        E 7 b9 05 1a
        E 7 b9 05 18
        E 7 b9 05 17
        E 7 b9 05 15
        E 7 b9 05 14
        E 7 b9 05 13
        E 7 b9 05 11
        E 7 b9 05 10
        E 7 b9 05 0e
        E 7 b9 05 0d
        E 7 b9 05 0c
        E 7 b9 05 0b
        E 7 b9 05 09
        E 7 b9 05 08
        E 7 b9 05 07
        E 7 b9 05 06
        E 7 b9 05 05
        E 7 b9 05 05
        E 7 b9 05 04
        E 7 b9 05 03
        E 7 b9 05 02
        E 7 b9 05 02
        E 7 b9 05 01
        E 7 b9 05 01
        E 7 b9 05 00
        E 7 b9 05 00
        E 7 b9 05 00
        E 7 b9 05 00
        E 7 b9 05 00
        E 7 b9 05 00
        E 7 b9 05 00
        E 7 b9 05 00
        E 7 b9 05 00
        E 7 b9 05 01
        E 7 b9 05 01
        E 7 b9 05 02
        E 7 b9 05 02
        E 7 b9 05 03
        E 7 b9 05 03
        E 7 b9 05 04
        E 7 b9 05 05
        E 7 b9 05 06
        E 7 b9 05 07
        E 7 b9 05 08
        E 7 b9 05 09
        E 7 b9 05 0a
        E 7 b9 05 0b
        E 7 b9 05 0c
        E 7 b9 05 0e
        E 7 b9 05 0f
        E 7 b9 05 10
        E 7 b9 05 12
        E 7 b9 05 13
        E 7 b9 05 15
        E 7 b9 05 16
        E 7 b9 05 18
        E 7 b9 05 19
        E 7 b9 05 1b
        E 7 b9 05 1c
        E 7 b9 05 1e
        E 6 b9 05 20
        E 1 b0 7b 00
        CCINTERP 32
        CHASE_CC_TAKEOFFS 1
        GUID {A62BDC32-708E-4641-9809-E26F4F11DADE}
        IGNTEMPO 0 120 4 4
        SRCCOLOR 182
        VELLANE 3 601 0
        VELLANE -1 196 0
      >
    >
  >
  <TRACK {86F04467-2F51-CA40-B5C4-3C551970859A}
    NAME "insects of the los angeles basin"
    PEAKCOL 16576
    BEAT -1
    AUTOMODE 0
    VOLPAN 1 0 -1 -1 1
    MUTESOLO 0 0 0
    IPHASE 0
    PLAYOFFS 0 1
    ISBUS 0 0
    BUSCOMP 0 0 0 0 0
    SHOWINMIX 1 0.6667 0.5 1 0.5 -1 -1 -1
    FREEMODE 0
    SEL 0
    REC 0 0 1 0 0 0 0
    VU 2
    TRACKHEIGHT 0 1 0 0 -1 0
    INQ 0 0 0 0.5 100 0 0 100
    NCHAN 2
    FX 1
    TRACKID {86F04467-2F51-CA40-B5C4-3C551970859A}
    PERF 0
    MIDIOUT -1
    MAINSEND 1 0
    <ITEM
      POSITION 0
      SNAPOFFS 0
      LENGTH 1006.95627
      LOOP 1
      ALLTAKES 0
      FADEIN 1 0 0 1 0 0
      FADEOUT 1 0 0 1 0 0
      MUTE 0 0
      SEL 0
      IGUID {14409C2F-2E08-984C-9C53-9E9067823FE3}
      IID 24
      NAME "insects of the los angeles basin.mid"
      VOLPAN 1 0 1 -1
      SOFFS 0 0
      PLAYRATE 1 1 0 -1 0 0.0025
      CHANMODE 0
      GUID {AF4B7293-1D88-AE4C-8FF4-58115E2AFB18}
      <SOURCE MIDI
        HASDATA 1 128 QN
        CCINTERP 32
        POOLEDEVTS {39085487-0845-EC48-A6EC-1834BF3A68A1}
        E 88 ba 05 0c
        E 88 ba 05 0c
        E 88 ba 05 0c
        E 88 ba 05 0c
        E 88 ba 05 0c
        E 88 ba 05 0c
        E 88 ba 05 0c
        E 88 ba 05 0c
        E 88 ba 05 0c
        E 88 ba 05 0c
        E 88 ba 05 0c
        E 88 ba 05 0c
        E 88 ba 05 0c
        E 88 ba 05 0c
        E 88 ba 05 0c
        E 88 ba 05 0c
        E 88 ba 05 0c
        E 88 ba 05 0c
        E 88 ba 05 0c
        E 88 ba 05 0c
        E 88 ba 05 0c
        E 88 ba 05 0c
        E 88 ba 05 0c
        E 88 ba 05 0c
        E 88 ba 05 0c
        E 88 ba 05 0c
        E 88 ba 05 0c
        E 88 ba 05 0c
        E 88 ba 05 0c
        E 88 ba 05 0c
        E 88 ba 05 0c
        E 88 ba 05 0c
        E 88 ba 05 0c
        E 88 ba 05 0c
        E 88 ba 05 0c
        E 88 ba 05 0c
        E 88 ba 05 0c
        E 88 ba 05 0c
        E 88 ba 05 0c
        E 88 ba 05 0c
        E 88 ba 05 0c
        E 88 ba 05 0c
        E 88 ba 05 0c
        E 88 ba 05 0c
        E 88 ba 05 0c
        E 88 ba 05 0c
        E 88 ba 05 0c
        E 88 ba 05 0c
        E 88 ba 05 0c
        E 88 ba 05 0c
        E 88 ba 05 0c
        E 88 ba 05 0c
        E 88 ba 05 0c
        E 88 ba 05 0c
        E 88 ba 05 0c
        E 88 ba 05 0c
        E 88 ba 05 0c
        E 88 ba 05 0c
        E 88 ba 05 0c
        E 88 ba 05 0c
        E 88 ba 05 0c
        E 88 ba 05 0c
        E 88 ba 05 0c
        E 88 ba 05 00
        E 88 ba 05 00
        E 88 ba 05 00
        E 88 ba 05 00
        E 88 ba 05 00
        E 88 ba 05 00
        E 88 ba 05 00
        E 88 ba 05 00
        E 88 ba 05 00
        E 88 ba 05 00
        E 88 ba 05 00
        E 88 ba 05 00
        E 88 ba 05 00
        E 88 ba 05 00
        E 88 ba 05 00
        E 88 ba 05 00
        E 88 ba 05 00
        E 88 ba 05 00
        E 88 ba 05 00
        E 88 ba 05 00
        E 88 ba 05 00
        E 88 ba 05 00
        E 88 ba 05 00
        E 88 ba 05 00
        E 88 ba 05 00
        E 88 ba 05 00
        E 88 ba 05 00
        E 88 ba 05 00
        E 88 ba 05 00
        E 88 ba 05 00
        E 88 ba 05 00
        E 88 ba 05 00
        E 88 ba 05 00
        E 88 ba 05 00
        E 88 ba 05 00
        E 88 ba 05 00
        E 88 ba 05 00
        E 88 ba 05 00
        E 88 ba 05 00
        E 88 ba 05 00
        E 88 ba 05 00
        E 88 ba 05 00
        E 88 ba 05 00
        E 88 ba 05 00
        E 88 ba 05 00
        E 88 ba 05 00
        E 88 ba 05 00
        E 88 ba 05 00
        E 88 ba 05 00
        E 88 ba 05 00
        E 88 ba 05 00
        E 88 ba 05 00
        E 88 ba 05 00
        E 88 ba 05 00
        E 88 ba 05 00
        E 88 ba 05 00
        E 88 ba 05 00
        E 88 ba 05 00
        E 88 ba 05 00
        E 88 ba 05 00
        E 88 ba 05 00
        E 88 ba 05 00
        E 88 ba 05 00
        E 88 ba 05 00
        E 79 ba 05 32
        E 79 ba 05 32
        E 79 ba 05 32
        E 79 ba 05 32
        E 79 ba 05 32
        E 79 ba 05 32
        E 79 ba 05 32
        E 79 ba 05 32
        E 79 ba 05 32
        E 79 ba 05 32
        E 79 ba 05 32
        E 79 ba 05 32
        E 79 ba 05 32
        E 79 ba 05 32
        E 79 ba 05 32
        E 79 ba 05 32
        E 79 ba 05 32
        E 79 ba 05 32
        E 79 ba 05 32
        E 79 ba 05 32
        E 79 ba 05 32
        E 79 ba 05 32
        E 79 ba 05 32
        E 79 ba 05 32
        E 79 ba 05 32
        E 79 ba 05 32
        E 79 ba 05 32
        E 79 ba 05 32
        E 79 ba 05 32
        E 79 ba 05 32
        E 79 ba 05 32
        E 79 ba 05 32
        E 79 ba 05 32
        E 79 ba 05 32
        E 79 ba 05 32
        E 79 ba 05 32
        E 79 ba 05 32
        E 79 ba 05 32
        E 79 ba 05 32
        E 79 ba 05 32
        E 79 ba 05 32
        E 79 ba 05 32
        E 79 ba 05 32
        E 79 ba 05 32
        E 79 ba 05 32
        E 79 ba 05 32
        E 79 ba 05 32
        E 79 ba 05 32
        E 79 ba 05 32
        E 79 ba 05 32
        E 79 ba 05 32
        E 79 ba 05 32
        E 79 ba 05 32
        E 79 ba 05 32
        E 79 ba 05 32
        E 79 ba 05 32
        E 79 ba 05 32
        E 79 ba 05 32
        E 79 ba 05 32
        E 79 ba 05 32
        E 79 ba 05 32
        E 79 ba 05 32
        E 79 ba 05 32
        E 79 ba 05 00
        E 79 ba 05 00
        E 79 ba 05 00
        E 79 ba 05 00
        E 79 ba 05 00
        E 79 ba 05 00
        E 79 ba 05 00
        E 79 ba 05 00
        E 79 ba 05 00
        E 79 ba 05 00
        E 79 ba 05 00
        E 79 ba 05 00
        E 79 ba 05 00
        E 79 ba 05 00
        E 79 ba 05 00
        E 79 ba 05 00
        E 79 ba 05 00
        E 79 ba 05 00
        E 79 ba 05 00
        E 79 ba 05 00
        E 79 ba 05 00
        E 79 ba 05 00
        E 79 ba 05 00
        E 79 ba 05 00
        E 79 ba 05 00
        E 79 ba 05 00
        E 79 ba 05 00
        E 79 ba 05 00
        E 79 ba 05 00
        E 79 ba 05 00
        E 79 ba 05 00
        E 79 ba 05 00
        E 79 ba 05 00
        E 79 ba 05 00
        E 79 ba 05 00
        E 79 ba 05 00
        E 79 ba 05 00
        E 79 ba 05 00
        E 79 ba 05 00
        E 79 ba 05 00
        E 79 ba 05 00
        E 79 ba 05 00
        E 79 ba 05 00
        E 79 ba 05 00
        E 79 ba 05 00
        E 79 ba 05 00
        E 79 ba 05 00
        E 79 ba 05 00
        E 79 ba 05 00
        E 79 ba 05 00
        E 79 ba 05 00
        E 79 ba 05 00
        E 79 ba 05 00
        E 79 ba 05 00
        E 79 ba 05 00
        E 79 ba 05 00
        E 79 ba 05 00
        E 79 ba 05 00
        E 79 ba 05 00
        E 79 ba 05 00
        E 79 ba 05 00
        E 79 ba 05 00
        E 79 ba 05 00
        E 79 ba 05 00
        E 44 ba 05 58
        E 44 ba 05 58
        E 44 ba 05 58
        E 44 ba 05 58
        E 44 ba 05 58
        E 44 ba 05 58
        E 44 ba 05 58
        E 44 ba 05 58
        E 44 ba 05 58
        E 44 ba 05 58
        E 44 ba 05 58
        E 44 ba 05 58
        E 44 ba 05 58
        E 44 ba 05 58
        E 44 ba 05 58
        E 44 ba 05 58
        E 44 ba 05 58
        E 44 ba 05 58
        E 44 ba 05 58
        E 44 ba 05 58
        E 44 ba 05 58
        E 44 ba 05 58
        E 44 ba 05 58
        E 44 ba 05 58
        E 44 ba 05 58
        E 44 ba 05 58
        E 44 ba 05 58
        E 44 ba 05 58
        E 44 ba 05 58
        E 44 ba 05 58
        E 44 ba 05 58
        E 44 ba 05 58
        E 44 ba 05 58
        E 44 ba 05 58
        E 44 ba 05 58
        E 44 ba 05 58
        E 44 ba 05 58
        E 44 ba 05 58
        E 44 ba 05 58
        E 44 ba 05 58
        E 44 ba 05 58
        E 44 ba 05 58
        E 44 ba 05 58
        E 44 ba 05 58
        E 44 ba 05 58
        E 44 ba 05 58
        E 44 ba 05 58
        E 44 ba 05 58
        E 44 ba 05 58
        E 44 ba 05 58
        E 44 ba 05 58
        E 44 ba 05 58
        E 44 ba 05 58
        E 44 ba 05 58
        E 44 ba 05 58
        E 44 ba 05 58
        E 44 ba 05 58
        E 44 ba 05 58
        E 44 ba 05 58
        E 44 ba 05 58
        E 44 ba 05 58
        E 44 ba 05 58
        E 44 ba 05 58
        E 44 ba 05 00
        E 44 ba 05 00
        E 44 ba 05 00
        E 44 ba 05 00
        E 44 ba 05 00
        E 44 ba 05 00
        E 44 ba 05 00
        E 44 ba 05 00
        E 44 ba 05 00
        E 44 ba 05 00
        E 44 ba 05 00
        E 44 ba 05 00
        E 44 ba 05 00
        E 44 ba 05 00
        E 44 ba 05 00
        E 44 ba 05 00
        E 44 ba 05 00
        E 44 ba 05 00
        E 44 ba 05 00
        E 44 ba 05 00
        E 44 ba 05 00
        E 44 ba 05 00
        E 44 ba 05 00
        E 44 ba 05 00
        E 44 ba 05 00
        E 44 ba 05 00
        E 44 ba 05 00
        E 44 ba 05 00
        E 44 ba 05 00
        E 44 ba 05 00
        E 44 ba 05 00
        E 44 ba 05 00
        E 44 ba 05 00
        E 44 ba 05 00
        E 44 ba 05 00
        E 44 ba 05 00
        E 44 ba 05 00
        E 44 ba 05 00
        E 44 ba 05 00
        E 44 ba 05 00
        E 44 ba 05 00
        E 44 ba 05 00
        E 44 ba 05 00
        E 44 ba 05 00
        E 44 ba 05 00
        E 44 ba 05 00
        E 44 ba 05 00
        E 44 ba 05 00
        E 44 ba 05 00
        E 44 ba 05 00
        E 44 ba 05 00
        E 44 ba 05 00
        E 44 ba 05 00
        E 44 ba 05 00
        E 44 ba 05 00
        E 44 ba 05 00
        E 44 ba 05 00
        E 44 ba 05 00
        E 44 ba 05 00
        E 44 ba 05 00
        E 44 ba 05 00
        E 44 ba 05 00
        E 44 ba 05 00
        E 44 ba 05 00
        E 44 ba 05 3f
        E 44 ba 05 3f
        E 44 ba 05 3f
        E 44 ba 05 3f
        E 44 ba 05 3f
        E 44 ba 05 3f
        E 44 ba 05 3f
        E 44 ba 05 3f
        E 44 ba 05 3f
        E 44 ba 05 3f
        E 44 ba 05 3f
        E 44 ba 05 3f
        E 44 ba 05 3f
        E 44 ba 05 3f
        E 44 ba 05 3f
        E 44 ba 05 3f
        E 44 ba 05 3f
        E 44 ba 05 3f
        E 44 ba 05 3f
        E 44 ba 05 3f
        E 44 ba 05 3f
        E 44 ba 05 3f
        E 44 ba 05 3f
        E 44 ba 05 3f
        E 44 ba 05 3f
        E 44 ba 05 3f
        E 44 ba 05 3f
        E 44 ba 05 3f
        E 44 ba 05 3f
        E 44 ba 05 3f
        E 44 ba 05 3f
        E 44 ba 05 3f
        E 44 ba 05 3f
        E 44 ba 05 3f
        E 44 ba 05 3f
        E 44 ba 05 3f
        E 44 ba 05 3f
        E 44 ba 05 3f
        E 44 ba 05 3f
        E 44 ba 05 3f
        E 44 ba 05 3f
        E 44 ba 05 3f
        E 44 ba 05 3f
        E 44 ba 05 3f
        E 44 ba 05 3f
        E 44 ba 05 3f
        E 44 ba 05 3f
        E 44 ba 05 3f
        E 44 ba 05 3f
        E 44 ba 05 3f
        E 44 ba 05 3f
        E 44 ba 05 3f
        E 44 ba 05 3f
        E 44 ba 05 3f
        E 44 ba 05 3f
        E 44 ba 05 3f
        E 44 ba 05 3f
        E 44 ba 05 3f
        E 44 ba 05 3f
        E 44 ba 05 3f
        E 44 ba 05 3f
        E 44 ba 05 3f
        E 44 ba 05 3f
        E 44 ba 05 00
        E 44 ba 05 00
        E 44 ba 05 00
        E 44 ba 05 00
        E 44 ba 05 00
        E 44 ba 05 00
        E 44 ba 05 00
        E 44 ba 05 00
        E 44 ba 05 00
        E 44 ba 05 00
        E 44 ba 05 00
        E 44 ba 05 00
        E 44 ba 05 00
        E 44 ba 05 00
        E 44 ba 05 00
        E 44 ba 05 00
        E 44 ba 05 00
        E 44 ba 05 00
        E 44 ba 05 00
        E 44 ba 05 00
        E 44 ba 05 00
        E 44 ba 05 00
        E 44 ba 05 00
        E 44 ba 05 00
        E 44 ba 05 00
        E 44 ba 05 00
        E 44 ba 05 00
        E 44 ba 05 00
        E 44 ba 05 00
        E 44 ba 05 00
        E 44 ba 05 00
        E 44 ba 05 00
        E 44 ba 05 00
        E 44 ba 05 00
        E 44 ba 05 00
        E 44 ba 05 00
        E 44 ba 05 00
        E 44 ba 05 00
        E 44 ba 05 00
        E 44 ba 05 00
        E 44 ba 05 00
        E 44 ba 05 00
        E 44 ba 05 00
        E 44 ba 05 00
        E 44 ba 05 00
        E 44 ba 05 00
        E 44 ba 05 00
        E 44 ba 05 00
        E 44 ba 05 00
        E 44 ba 05 00
        E 44 ba 05 00
        E 44 ba 05 00
        E 44 ba 05 00
        E 44 ba 05 00
        E 44 ba 05 00
        E 44 ba 05 00
        E 44 ba 05 00
        E 44 ba 05 00
        E 44 ba 05 00
        E 44 ba 05 00
        E 44 ba 05 00
        E 44 ba 05 00
        E 44 ba 05 00
        E 44 ba 05 00
        E 61 ba 05 3f
        E 61 ba 05 3f
        E 61 ba 05 3f
        E 61 ba 05 3f
        E 61 ba 05 3f
        E 61 ba 05 3f
        E 61 ba 05 3f
        E 61 ba 05 3f
        E 61 ba 05 3f
        E 61 ba 05 3f
        E 61 ba 05 3f
        E 61 ba 05 3f
        E 61 ba 05 3f
        E 61 ba 05 3f
        E 61 ba 05 3f
        E 61 ba 05 3f
        E 61 ba 05 3f
        E 61 ba 05 3f
        E 61 ba 05 3f
        E 61 ba 05 3f
        E 61 ba 05 3f
        E 61 ba 05 3f
        E 61 ba 05 3f
        E 61 ba 05 3f
        E 61 ba 05 3f
        E 61 ba 05 3f
        E 61 ba 05 3f
        E 61 ba 05 3f
        E 61 ba 05 3f
        E 61 ba 05 3f
        E 61 ba 05 3f
        E 61 ba 05 3f
        E 61 ba 05 3f
        E 61 ba 05 3f
        E 61 ba 05 3f
        E 61 ba 05 3f
        E 61 ba 05 3f
        E 61 ba 05 3f
        E 61 ba 05 3f
        E 61 ba 05 3f
        E 61 ba 05 3f
        E 61 ba 05 3f
        E 61 ba 05 3f
        E 61 ba 05 3f
        E 61 ba 05 3f
        E 61 ba 05 3f
        E 61 ba 05 3f
        E 61 ba 05 3f
        E 61 ba 05 3f
        E 61 ba 05 3f
        E 61 ba 05 3f
        E 61 ba 05 3f
        E 61 ba 05 3f
        E 61 ba 05 3f
        E 61 ba 05 3f
        E 61 ba 05 3f
        E 61 ba 05 3f
        E 61 ba 05 3f
        E 61 ba 05 3f
        E 61 ba 05 3f
        E 61 ba 05 3f
        E 61 ba 05 3f
        E 61 ba 05 3f
        E 61 ba 05 00
        E 61 ba 05 00
        E 61 ba 05 00
        E 61 ba 05 00
        E 61 ba 05 00
        E 61 ba 05 00
        E 61 ba 05 00
        E 61 ba 05 00
        E 61 ba 05 00
        E 61 ba 05 00
        E 61 ba 05 00
        E 61 ba 05 00
        E 61 ba 05 00
        E 61 ba 05 00
        E 61 ba 05 00
        E 61 ba 05 00
        E 61 ba 05 00
        E 61 ba 05 00
        E 61 ba 05 00
        E 61 ba 05 00
        E 61 ba 05 00
        E 61 ba 05 00
        E 61 ba 05 00
        E 61 ba 05 00
        E 61 ba 05 00
        E 61 ba 05 00
        E 61 ba 05 00
        E 61 ba 05 00
        E 61 ba 05 00
        E 61 ba 05 00
        E 61 ba 05 00
        E 61 ba 05 00
        E 61 ba 05 00
        E 61 ba 05 00
        E 61 ba 05 00
        E 61 ba 05 00
        E 61 ba 05 00
        E 61 ba 05 00
        E 61 ba 05 00
        E 61 ba 05 00
        E 61 ba 05 00
        E 61 ba 05 00
        E 61 ba 05 00
        E 61 ba 05 00
        E 61 ba 05 00
        E 61 ba 05 00
        E 61 ba 05 00
        E 61 ba 05 00
        E 61 ba 05 00
        E 61 ba 05 00
        E 61 ba 05 00
        E 61 ba 05 00
        E 61 ba 05 00
        E 61 ba 05 00
        E 61 ba 05 00
        E 61 ba 05 00
        E 61 ba 05 00
        E 61 ba 05 00
        E 61 ba 05 00
        E 61 ba 05 00
        E 61 ba 05 00
        E 61 ba 05 00
        E 61 ba 05 00
        E 61 ba 05 00
        E 70 ba 05 7f
        E 70 ba 05 7f
        E 70 ba 05 7f
        E 70 ba 05 7f
        E 70 ba 05 7f
        E 70 ba 05 7f
        E 70 ba 05 7f
        E 70 ba 05 7f
        E 70 ba 05 7f
        E 70 ba 05 7f
        E 70 ba 05 7f
        E 70 ba 05 7f
        E 70 ba 05 7f
        E 70 ba 05 7f
        E 70 ba 05 7f
        E 70 ba 05 7f
        E 70 ba 05 7f
        E 70 ba 05 7f
        E 70 ba 05 7f
        E 70 ba 05 7f
        E 70 ba 05 7f
        E 70 ba 05 7f
        E 70 ba 05 7f
        E 70 ba 05 7f
        E 70 ba 05 7f
        E 70 ba 05 7f
        E 70 ba 05 7f
        E 70 ba 05 7f
        E 70 ba 05 7f
        E 70 ba 05 7f
        E 70 ba 05 7f
        E 70 ba 05 7f
        E 70 ba 05 7f
        E 70 ba 05 7f
        E 70 ba 05 7f
        E 70 ba 05 7f
        E 70 ba 05 7f
        E 70 ba 05 7f
        E 70 ba 05 7f
        E 70 ba 05 7f
        E 70 ba 05 7f
        E 70 ba 05 7f
        E 70 ba 05 7f
        E 70 ba 05 7f
        E 70 ba 05 7f
        E 70 ba 05 7f
        E 70 ba 05 7f
        E 70 ba 05 7f
        E 70 ba 05 7f
        E 70 ba 05 7f
        E 70 ba 05 7f
        E 70 ba 05 7f
        E 70 ba 05 7f
        E 70 ba 05 7f
        E 70 ba 05 7f
        E 70 ba 05 7f
        E 70 ba 05 7f
        E 70 ba 05 7f
        E 70 ba 05 7f
        E 70 ba 05 7f
        E 70 ba 05 7f
        E 70 ba 05 7f
        E 70 ba 05 7f
        E 70 ba 05 00
        E 70 ba 05 00
        E 70 ba 05 00
        E 70 ba 05 00
        E 70 ba 05 00
        E 70 ba 05 00
        E 70 ba 05 00
        E 70 ba 05 00
        E 70 ba 05 00
        E 70 ba 05 00
        E 70 ba 05 00
        E 70 ba 05 00
        E 70 ba 05 00
        E 70 ba 05 00
        E 70 ba 05 00
        E 70 ba 05 00
        E 70 ba 05 00
        E 70 ba 05 00
        E 70 ba 05 00
        E 70 ba 05 00
        E 70 ba 05 00
        E 70 ba 05 00
        E 70 ba 05 00
        E 70 ba 05 00
        E 70 ba 05 00
        E 70 ba 05 00
        E 70 ba 05 00
        E 70 ba 05 00
        E 70 ba 05 00
        E 70 ba 05 00
        E 70 ba 05 00
        E 70 ba 05 00
        E 70 ba 05 00
        E 70 ba 05 00
        E 70 ba 05 00
        E 70 ba 05 00
        E 70 ba 05 00
        E 70 ba 05 00
        E 70 ba 05 00
        E 70 ba 05 00
        E 70 ba 05 00
        E 70 ba 05 00
        E 70 ba 05 00
        E 70 ba 05 00
        E 70 ba 05 00
        E 70 ba 05 00
        E 70 ba 05 00
        E 70 ba 05 00
        E 70 ba 05 00
        E 70 ba 05 00
        E 70 ba 05 00
        E 70 ba 05 00
        E 70 ba 05 00
        E 70 ba 05 00
        E 70 ba 05 00
        E 70 ba 05 00
        E 70 ba 05 00
        E 70 ba 05 00
        E 70 ba 05 00
        E 70 ba 05 00
        E 70 ba 05 00
        E 70 ba 05 00
        E 70 ba 05 00
        E 70 ba 05 00
        E 8 ba 05 72
        E 8 ba 05 72
        E 8 ba 05 72
        E 8 ba 05 72
        E 8 ba 05 72
        E 8 ba 05 72
        E 8 ba 05 72
        E 8 ba 05 72
        E 8 ba 05 72
        E 8 ba 05 72
        E 8 ba 05 72
        E 8 ba 05 72
        E 8 ba 05 72
        E 8 ba 05 72
        E 8 ba 05 72
        E 8 ba 05 72
        E 8 ba 05 72
        E 8 ba 05 72
        E 8 ba 05 72
        E 8 ba 05 72
        E 8 ba 05 72
        E 8 ba 05 72
        E 8 ba 05 72
        E 8 ba 05 72
        E 8 ba 05 72
        E 8 ba 05 72
        E 8 ba 05 72
        E 8 ba 05 72
        E 8 ba 05 72
        E 8 ba 05 72
        E 8 ba 05 72
        E 8 ba 05 72
        E 8 ba 05 72
        E 8 ba 05 72
        E 8 ba 05 72
        E 8 ba 05 72
        E 8 ba 05 72
        E 8 ba 05 72
        E 8 ba 05 72
        E 8 ba 05 72
        E 8 ba 05 72
        E 8 ba 05 72
        E 8 ba 05 72
        E 8 ba 05 72
        E 8 ba 05 72
        E 8 ba 05 72
        E 8 ba 05 72
        E 8 ba 05 72
        E 8 ba 05 72
        E 8 ba 05 72
        E 8 ba 05 72
        E 8 ba 05 72
        E 8 ba 05 72
        E 8 ba 05 72
        E 8 ba 05 72
        E 8 ba 05 72
        E 8 ba 05 72
        E 8 ba 05 72
        E 8 ba 05 72
        E 8 ba 05 72
        E 8 ba 05 72
        E 8 ba 05 72
        E 8 ba 05 72
        E 8 ba 05 00
        E 8 ba 05 00
        E 8 ba 05 00
        E 8 ba 05 00
        E 8 ba 05 00
        E 8 ba 05 00
        E 8 ba 05 00
        E 8 ba 05 00
        E 8 ba 05 00
        E 8 ba 05 00
        E 8 ba 05 00
        E 8 ba 05 00
        E 8 ba 05 00
        E 8 ba 05 00
        E 8 ba 05 00
        E 8 ba 05 00
        E 8 ba 05 00
        E 8 ba 05 00
        E 8 ba 05 00
        E 8 ba 05 00
        E 8 ba 05 00
        E 8 ba 05 00
        E 8 ba 05 00
        E 8 ba 05 00
        E 8 ba 05 00
        E 8 ba 05 00
        E 8 ba 05 00
        E 8 ba 05 00
        E 8 ba 05 00
        E 8 ba 05 00
        E 8 ba 05 00
        E 8 ba 05 00
        E 8 ba 05 00
        E 8 ba 05 00
        E 8 ba 05 00
        E 8 ba 05 00
        E 8 ba 05 00
        E 8 ba 05 00
        E 8 ba 05 00
        E 8 ba 05 00
        E 8 ba 05 00
        E 8 ba 05 00
        E 8 ba 05 00
        E 8 ba 05 00
        E 8 ba 05 00
        E 8 ba 05 00
        E 8 ba 05 00
        E 8 ba 05 00
        E 8 ba 05 00
        E 8 ba 05 00
        E 8 ba 05 00
        E 8 ba 05 00
        E 8 ba 05 00
        E 8 ba 05 00
        E 8 ba 05 00
        E 8 ba 05 00
        E 8 ba 05 00
        E 8 ba 05 00
        E 8 ba 05 00
        E 8 ba 05 00
        E 8 ba 05 00
        E 8 ba 05 00
        E 8 ba 05 00
        E 8 ba 05 00
        E 35 ba 05 7f
        E 35 ba 05 7f
        E 35 ba 05 7f
        E 35 ba 05 7f
        E 35 ba 05 7f
        E 35 ba 05 7f
        E 35 ba 05 7f
        E 35 ba 05 7f
        E 35 ba 05 7f
        E 35 ba 05 7f
        E 35 ba 05 7f
        E 35 ba 05 7f
        E 35 ba 05 7f
        E 35 ba 05 7f
        E 35 ba 05 7f
        E 35 ba 05 7f
        E 35 ba 05 7f
        E 35 ba 05 7f
        E 35 ba 05 7f
        E 35 ba 05 7f
        E 35 ba 05 7f
        E 35 ba 05 7f
        E 35 ba 05 7f
        E 35 ba 05 7f
        E 35 ba 05 7f
        E 35 ba 05 7f
        E 35 ba 05 7f
        E 35 ba 05 7f
        E 35 ba 05 7f
        E 35 ba 05 7f
        E 35 ba 05 7f
        E 35 ba 05 7f
        E 35 ba 05 7f
        E 35 ba 05 7f
        E 35 ba 05 7f
        E 35 ba 05 7f
        E 35 ba 05 7f
        E 35 ba 05 7f
        E 35 ba 05 7f
        E 35 ba 05 7f
        E 35 ba 05 7f
        E 35 ba 05 7f
        E 35 ba 05 7f
        E 35 ba 05 7f
        E 35 ba 05 7f
        E 35 ba 05 7f
        E 35 ba 05 7f
        E 35 ba 05 7f
        E 35 ba 05 7f
        E 35 ba 05 7f
        E 35 ba 05 7f
        E 35 ba 05 7f
        E 35 ba 05 7f
        E 35 ba 05 7f
        E 35 ba 05 7f
        E 35 ba 05 7f
        E 35 ba 05 7f
        E 35 ba 05 7f
        E 35 ba 05 7f
        E 35 ba 05 7f
        E 35 ba 05 7f
        E 35 ba 05 7f
        E 35 ba 05 7f
        E 35 ba 05 00
        E 35 ba 05 00
        E 35 ba 05 00
        E 35 ba 05 00
        E 35 ba 05 00
        E 35 ba 05 00
        E 35 ba 05 00
        E 35 ba 05 00
        E 35 ba 05 00
        E 35 ba 05 00
        E 35 ba 05 00
        E 35 ba 05 00
        E 35 ba 05 00
        E 35 ba 05 00
        E 35 ba 05 00
        E 35 ba 05 00
        E 35 ba 05 00
        E 35 ba 05 00
        E 35 ba 05 00
        E 35 ba 05 00
        E 35 ba 05 00
        E 35 ba 05 00
        E 35 ba 05 00
        E 35 ba 05 00
        E 35 ba 05 00
        E 35 ba 05 00
        E 35 ba 05 00
        E 35 ba 05 00
        E 35 ba 05 00
        E 35 ba 05 00
        E 35 ba 05 00
        E 35 ba 05 00
        E 35 ba 05 00
        E 35 ba 05 00
        E 35 ba 05 00
        E 35 ba 05 00
        E 35 ba 05 00
        E 35 ba 05 00
        E 35 ba 05 00
        E 35 ba 05 00
        E 35 ba 05 00
        E 35 ba 05 00
        E 35 ba 05 00
        E 35 ba 05 00
        E 35 ba 05 00
        E 35 ba 05 00
        E 35 ba 05 00
        E 35 ba 05 00
        E 35 ba 05 00
        E 35 ba 05 00
        E 35 ba 05 00
        E 35 ba 05 00
        E 35 ba 05 00
        E 35 ba 05 00
        E 35 ba 05 00
        E 35 ba 05 00
        E 35 ba 05 00
        E 35 ba 05 00
        E 35 ba 05 00
        E 35 ba 05 00
        E 35 ba 05 00
        E 35 ba 05 00
        E 35 ba 05 00
        E 35 ba 05 00
        E 61 ba 05 72
        E 61 ba 05 72
        E 61 ba 05 72
        E 61 ba 05 72
        E 61 ba 05 72
        E 61 ba 05 72
        E 61 ba 05 72
        E 61 ba 05 72
        E 61 ba 05 72
        E 61 ba 05 72
        E 61 ba 05 72
        E 61 ba 05 72
        E 61 ba 05 72
        E 61 ba 05 72
        E 61 ba 05 72
        E 61 ba 05 72
        E 61 ba 05 72
        E 61 ba 05 72
        E 61 ba 05 72
        E 61 ba 05 72
        E 61 ba 05 72
        E 61 ba 05 72
        E 61 ba 05 72
        E 61 ba 05 72
        E 61 ba 05 72
        E 61 ba 05 72
        E 61 ba 05 72
        E 61 ba 05 72
        E 61 ba 05 72
        E 61 ba 05 72
        E 61 ba 05 72
        E 61 ba 05 72
        E 61 ba 05 72
        E 61 ba 05 72
        E 61 ba 05 72
        E 61 ba 05 72
        E 61 ba 05 72
        E 61 ba 05 72
        E 61 ba 05 72
        E 61 ba 05 72
        E 61 ba 05 72
        E 61 ba 05 72
        E 61 ba 05 72
        E 61 ba 05 72
        E 61 ba 05 72
        E 61 ba 05 72
        E 61 ba 05 72
        E 61 ba 05 72
        E 61 ba 05 72
        E 61 ba 05 72
        E 61 ba 05 72
        E 61 ba 05 72
        E 61 ba 05 72
        E 61 ba 05 72
        E 61 ba 05 72
        E 61 ba 05 72
        E 61 ba 05 72
        E 61 ba 05 72
        E 61 ba 05 72
        E 61 ba 05 72
        E 61 ba 05 72
        E 61 ba 05 72
        E 61 ba 05 72
        E 61 ba 05 00
        E 61 ba 05 00
        E 61 ba 05 00
        E 61 ba 05 00
        E 61 ba 05 00
        E 61 ba 05 00
        E 61 ba 05 00
        E 61 ba 05 00
        E 61 ba 05 00
        E 61 ba 05 00
        E 61 ba 05 00
        E 61 ba 05 00
        E 61 ba 05 00
        E 61 ba 05 00
        E 61 ba 05 00
        E 61 ba 05 00
        E 61 ba 05 00
        E 61 ba 05 00
        E 61 ba 05 00
        E 61 ba 05 00
        E 61 ba 05 00
        E 61 ba 05 00
        E 61 ba 05 00
        E 61 ba 05 00
        E 61 ba 05 00
        E 61 ba 05 00
        E 61 ba 05 00
        E 61 ba 05 00
        E 61 ba 05 00
        E 61 ba 05 00
        E 61 ba 05 00
        E 61 ba 05 00
        E 61 ba 05 00
        E 61 ba 05 00
        E 61 ba 05 00
        E 61 ba 05 00
        E 61 ba 05 00
        E 61 ba 05 00
        E 61 ba 05 00
        E 61 ba 05 00
        E 61 ba 05 00
        E 61 ba 05 00
        E 61 ba 05 00
        E 61 ba 05 00
        E 61 ba 05 00
        E 61 ba 05 00
        E 61 ba 05 00
        E 61 ba 05 00
        E 61 ba 05 00
        E 61 ba 05 00
        E 61 ba 05 00
        E 61 ba 05 00
        E 61 ba 05 00
        E 61 ba 05 00
        E 61 ba 05 00
        E 61 ba 05 00
        E 61 ba 05 00
        E 61 ba 05 00
        E 61 ba 05 00
        E 61 ba 05 00
        E 61 ba 05 00
        E 61 ba 05 00
        E 61 ba 05 00
        E 61 ba 05 00
        E 44 ba 05 3f
        E 44 ba 05 3f
        E 44 ba 05 3f
        E 44 ba 05 3f
        E 44 ba 05 3f
        E 44 ba 05 3f
        E 44 ba 05 3f
        E 44 ba 05 3f
        E 44 ba 05 3f
        E 44 ba 05 3f
        E 44 ba 05 3f
        E 44 ba 05 3f
        E 44 ba 05 3f
        E 44 ba 05 3f
        E 44 ba 05 3f
        E 44 ba 05 3f
        E 44 ba 05 3f
        E 44 ba 05 3f
        E 44 ba 05 3f
        E 44 ba 05 3f
        E 44 ba 05 3f
        E 44 ba 05 3f
        E 44 ba 05 3f
        E 44 ba 05 3f
        E 44 ba 05 3f
        E 44 ba 05 3f
        E 44 ba 05 3f
        E 44 ba 05 3f
        E 44 ba 05 3f
        E 44 ba 05 3f
        E 44 ba 05 3f
        E 44 ba 05 3f
        E 44 ba 05 3f
        E 44 ba 05 3f
        E 44 ba 05 3f
        E 44 ba 05 3f
        E 44 ba 05 3f
        E 44 ba 05 3f
        E 44 ba 05 3f
        E 44 ba 05 3f
        E 44 ba 05 3f
        E 44 ba 05 3f
        E 44 ba 05 3f
        E 44 ba 05 3f
        E 44 ba 05 3f
        E 44 ba 05 3f
        E 44 ba 05 3f
        E 44 ba 05 3f
        E 44 ba 05 3f
        E 44 ba 05 3f
        E 44 ba 05 3f
        E 44 ba 05 3f
        E 44 ba 05 3f
        E 44 ba 05 3f
        E 44 ba 05 3f
        E 44 ba 05 3f
        E 44 ba 05 3f
        E 44 ba 05 3f
        E 44 ba 05 3f
        E 44 ba 05 3f
        E 44 ba 05 3f
        E 44 ba 05 3f
        E 44 ba 05 3f
        E 44 ba 05 00
        E 44 ba 05 00
        E 44 ba 05 00
        E 44 ba 05 00
        E 44 ba 05 00
        E 44 ba 05 00
        E 44 ba 05 00
        E 44 ba 05 00
        E 44 ba 05 00
        E 44 ba 05 00
        E 44 ba 05 00
        E 44 ba 05 00
        E 44 ba 05 00
        E 44 ba 05 00
        E 44 ba 05 00
        E 44 ba 05 00
        E 44 ba 05 00
        E 44 ba 05 00
        E 44 ba 05 00
        E 44 ba 05 00
        E 44 ba 05 00
        E 44 ba 05 00
        E 44 ba 05 00
        E 44 ba 05 00
        E 44 ba 05 00
        E 44 ba 05 00
        E 44 ba 05 00
        E 44 ba 05 00
        E 44 ba 05 00
        E 44 ba 05 00
        E 44 ba 05 00
        E 44 ba 05 00
        E 44 ba 05 00
        E 44 ba 05 00
        E 44 ba 05 00
        E 44 ba 05 00
        E 44 ba 05 00
        E 44 ba 05 00
        E 44 ba 05 00
        E 44 ba 05 00
        E 44 ba 05 00
        E 44 ba 05 00
        E 44 ba 05 00
        E 44 ba 05 00
        E 44 ba 05 00
        E 44 ba 05 00
        E 44 ba 05 00
        E 44 ba 05 00
        E 44 ba 05 00
        E 44 ba 05 00
        E 44 ba 05 00
        E 44 ba 05 00
        E 44 ba 05 00
        E 44 ba 05 00
        E 44 ba 05 00
        E 44 ba 05 00
        E 44 ba 05 00
        E 44 ba 05 00
        E 44 ba 05 00
        E 44 ba 05 00
        E 44 ba 05 00
        E 44 ba 05 00
        E 44 ba 05 00
        E 44 ba 05 00
        E 44 ba 05 3f
        E 44 ba 05 3f
        E 44 ba 05 3f
        E 44 ba 05 3f
        E 44 ba 05 3f
        E 44 ba 05 3f
        E 44 ba 05 3f
        E 44 ba 05 3f
        E 44 ba 05 3f
        E 44 ba 05 3f
        E 44 ba 05 3f
        E 44 ba 05 3f
        E 44 ba 05 3f
        E 44 ba 05 3f
        E 44 ba 05 3f
        E 44 ba 05 3f
        E 44 ba 05 3f
        E 44 ba 05 3f
        E 44 ba 05 3f
        E 44 ba 05 3f
        E 44 ba 05 3f
        E 44 ba 05 3f
        E 44 ba 05 3f
        E 44 ba 05 3f
        E 44 ba 05 3f
        E 44 ba 05 3f
        E 44 ba 05 3f
        E 44 ba 05 3f
        E 44 ba 05 3f
        E 44 ba 05 3f
        E 44 ba 05 3f
        E 44 ba 05 3f
        E 44 ba 05 3f
        E 44 ba 05 3f
        E 44 ba 05 3f
        E 44 ba 05 3f
        E 44 ba 05 3f
        E 44 ba 05 3f
        E 44 ba 05 3f
        E 44 ba 05 3f
        E 44 ba 05 3f
        E 44 ba 05 3f
        E 44 ba 05 3f
        E 44 ba 05 3f
        E 44 ba 05 3f
        E 44 ba 05 3f
        E 44 ba 05 3f
        E 44 ba 05 3f
        E 44 ba 05 3f
        E 44 ba 05 3f
        E 44 ba 05 3f
        E 44 ba 05 3f
        E 44 ba 05 3f
        E 44 ba 05 3f
        E 44 ba 05 3f
        E 44 ba 05 3f
        E 44 ba 05 3f
        E 44 ba 05 3f
        E 44 ba 05 3f
        E 44 ba 05 3f
        E 44 ba 05 3f
        E 44 ba 05 3f
        E 44 ba 05 3f
        E 44 ba 05 00
        E 44 ba 05 00
        E 44 ba 05 00
        E 44 ba 05 00
        E 44 ba 05 00
        E 44 ba 05 00
        E 44 ba 05 00
        E 44 ba 05 00
        E 44 ba 05 00
        E 44 ba 05 00
        E 44 ba 05 00
        E 44 ba 05 00
        E 44 ba 05 00
        E 44 ba 05 00
        E 44 ba 05 00
        E 44 ba 05 00
        E 44 ba 05 00
        E 44 ba 05 00
        E 44 ba 05 00
        E 44 ba 05 00
        E 44 ba 05 00
        E 44 ba 05 00
        E 44 ba 05 00
        E 44 ba 05 00
        E 44 ba 05 00
        E 44 ba 05 00
        E 44 ba 05 00
        E 44 ba 05 00
        E 44 ba 05 00
        E 44 ba 05 00
        E 44 ba 05 00
        E 44 ba 05 00
        E 44 ba 05 00
        E 44 ba 05 00
        E 44 ba 05 00
        E 44 ba 05 00
        E 44 ba 05 00
        E 44 ba 05 00
        E 44 ba 05 00
        E 44 ba 05 00
        E 44 ba 05 00
        E 44 ba 05 00
        E 44 ba 05 00
        E 44 ba 05 00
        E 44 ba 05 00
        E 44 ba 05 00
        E 44 ba 05 00
        E 44 ba 05 00
        E 44 ba 05 00
        E 44 ba 05 00
        E 44 ba 05 00
        E 44 ba 05 00
        E 44 ba 05 00
        E 44 ba 05 00
        E 44 ba 05 00
        E 44 ba 05 00
        E 44 ba 05 00
        E 44 ba 05 00
        E 44 ba 05 00
        E 44 ba 05 00
        E 44 ba 05 00
        E 44 ba 05 00
        E 44 ba 05 00
        E 44 ba 05 00
        E 88 ba 05 58
        E 88 ba 05 58
        E 88 ba 05 58
        E 88 ba 05 58
        E 88 ba 05 58
        E 88 ba 05 58
        E 88 ba 05 58
        E 88 ba 05 58
        E 88 ba 05 58
        E 88 ba 05 58
        E 88 ba 05 58
        E 88 ba 05 58
        E 88 ba 05 58
        E 88 ba 05 58
        E 88 ba 05 58
        E 88 ba 05 58
        E 88 ba 05 58
        E 88 ba 05 58
        E 88 ba 05 58
        E 88 ba 05 58
        E 88 ba 05 58
        E 88 ba 05 58
        E 88 ba 05 58
        E 88 ba 05 58
        E 88 ba 05 58
        E 88 ba 05 58
        E 88 ba 05 58
        E 88 ba 05 58
        E 88 ba 05 58
        E 88 ba 05 58
        E 88 ba 05 58
        E 88 ba 05 58
        E 88 ba 05 58
        E 88 ba 05 58
        E 88 ba 05 58
        E 88 ba 05 58
        E 88 ba 05 58
        E 88 ba 05 58
        E 88 ba 05 58
        E 88 ba 05 58
        E 88 ba 05 58
        E 88 ba 05 58
        E 88 ba 05 58
        E 88 ba 05 58
        E 88 ba 05 58
        E 88 ba 05 58
        E 88 ba 05 58
        E 88 ba 05 58
        E 88 ba 05 58
        E 88 ba 05 58
        E 88 ba 05 58
        E 88 ba 05 58
        E 88 ba 05 58
        E 88 ba 05 58
        E 88 ba 05 58
        E 88 ba 05 58
        E 88 ba 05 58
        E 88 ba 05 58
        E 88 ba 05 58
        E 88 ba 05 58
        E 88 ba 05 58
        E 88 ba 05 58
        E 88 ba 05 58
        E 88 ba 05 00
        E 88 ba 05 00
        E 88 ba 05 00
        E 88 ba 05 00
        E 88 ba 05 00
        E 88 ba 05 00
        E 88 ba 05 00
        E 88 ba 05 00
        E 88 ba 05 00
        E 88 ba 05 00
        E 88 ba 05 00
        E 88 ba 05 00
        E 88 ba 05 00
        E 88 ba 05 00
        E 88 ba 05 00
        E 88 ba 05 00
        E 88 ba 05 00
        E 88 ba 05 00
        E 88 ba 05 00
        E 88 ba 05 00
        E 88 ba 05 00
        E 88 ba 05 00
        E 88 ba 05 00
        E 88 ba 05 00
        E 88 ba 05 00
        E 88 ba 05 00
        E 88 ba 05 00
        E 88 ba 05 00
        E 88 ba 05 00
        E 88 ba 05 00
        E 88 ba 05 00
        E 88 ba 05 00
        E 88 ba 05 00
        E 88 ba 05 00
        E 88 ba 05 00
        E 88 ba 05 00
        E 88 ba 05 00
        E 88 ba 05 00
        E 88 ba 05 00
        E 88 ba 05 00
        E 88 ba 05 00
        E 88 ba 05 00
        E 88 ba 05 00
        E 88 ba 05 00
        E 88 ba 05 00
        E 88 ba 05 00
        E 88 ba 05 00
        E 88 ba 05 00
        E 88 ba 05 00
        E 88 ba 05 00
        E 88 ba 05 00
        E 88 ba 05 00
        E 88 ba 05 00
        E 88 ba 05 00
        E 88 ba 05 00
        E 88 ba 05 00
        E 88 ba 05 00
        E 88 ba 05 00
        E 88 ba 05 00
        E 88 ba 05 00
        E 88 ba 05 00
        E 88 ba 05 00
        E 88 ba 05 00
        E 88 ba 05 00
        E 79 ba 05 65
        E 79 ba 05 65
        E 79 ba 05 65
        E 79 ba 05 65
        E 79 ba 05 65
        E 79 ba 05 65
        E 79 ba 05 65
        E 79 ba 05 65
        E 79 ba 05 65
        E 79 ba 05 65
        E 79 ba 05 65
        E 79 ba 05 65
        E 79 ba 05 65
        E 79 ba 05 65
        E 79 ba 05 65
        E 79 ba 05 65
        E 79 ba 05 65
        E 79 ba 05 65
        E 79 ba 05 65
        E 79 ba 05 65
        E 79 ba 05 65
        E 79 ba 05 65
        E 79 ba 05 65
        E 79 ba 05 65
        E 79 ba 05 65
        E 79 ba 05 65
        E 79 ba 05 65
        E 79 ba 05 65
        E 79 ba 05 65
        E 79 ba 05 65
        E 79 ba 05 65
        E 79 ba 05 65
        E 79 ba 05 65
        E 79 ba 05 65
        E 79 ba 05 65
        E 79 ba 05 65
        E 79 ba 05 65
        E 79 ba 05 65
        E 79 ba 05 65
        E 79 ba 05 65
        E 79 ba 05 65
        E 79 ba 05 65
        E 79 ba 05 65
        E 79 ba 05 65
        E 79 ba 05 65
        E 79 ba 05 65
        E 79 ba 05 65
        E 79 ba 05 65
        E 79 ba 05 65
        E 79 ba 05 65
        E 79 ba 05 65
        E 79 ba 05 65
        E 79 ba 05 65
        E 79 ba 05 65
        E 79 ba 05 65
        E 79 ba 05 65
        E 79 ba 05 65
        E 79 ba 05 65
        E 79 ba 05 65
        E 79 ba 05 65
        E 79 ba 05 65
        E 79 ba 05 65
        E 79 ba 05 65
        E 79 ba 05 00
        E 79 ba 05 00
        E 79 ba 05 00
        E 79 ba 05 00
        E 79 ba 05 00
        E 79 ba 05 00
        E 79 ba 05 00
        E 79 ba 05 00
        E 79 ba 05 00
        E 79 ba 05 00
        E 79 ba 05 00
        E 79 ba 05 00
        E 79 ba 05 00
        E 79 ba 05 00
        E 79 ba 05 00
        E 79 ba 05 00
        E 79 ba 05 00
        E 79 ba 05 00
        E 79 ba 05 00
        E 79 ba 05 00
        E 79 ba 05 00
        E 79 ba 05 00
        E 79 ba 05 00
        E 79 ba 05 00
        E 79 ba 05 00
        E 79 ba 05 00
        E 79 ba 05 00
        E 79 ba 05 00
        E 79 ba 05 00
        E 79 ba 05 00
        E 79 ba 05 00
        E 79 ba 05 00
        E 79 ba 05 00
        E 79 ba 05 00
        E 79 ba 05 00
        E 79 ba 05 00
        E 79 ba 05 00
        E 79 ba 05 00
        E 79 ba 05 00
        E 79 ba 05 00
        E 79 ba 05 00
        E 79 ba 05 00
        E 79 ba 05 00
        E 79 ba 05 00
        E 79 ba 05 00
        E 79 ba 05 00
        E 79 ba 05 00
        E 79 ba 05 00
        E 79 ba 05 00
        E 79 ba 05 00
        E 79 ba 05 00
        E 79 ba 05 00
        E 79 ba 05 00
        E 79 ba 05 00
        E 79 ba 05 00
        E 79 ba 05 00
        E 79 ba 05 00
        E 79 ba 05 00
        E 79 ba 05 00
        E 79 ba 05 00
        E 79 ba 05 00
        E 79 ba 05 00
        E 79 ba 05 00
        E 79 ba 05 00
        E 88 ba 05 0c
        E 88 ba 05 0c
        E 88 ba 05 0c
        E 88 ba 05 0c
        E 88 ba 05 0c
        E 88 ba 05 0c
        E 88 ba 05 0c
        E 88 ba 05 0c
        E 88 ba 05 0c
        E 88 ba 05 0c
        E 88 ba 05 0c
        E 88 ba 05 0c
        E 88 ba 05 0c
        E 88 ba 05 0c
        E 88 ba 05 0c
        E 88 ba 05 0c
        E 88 ba 05 0c
        E 88 ba 05 0c
        E 88 ba 05 0c
        E 88 ba 05 0c
        E 88 ba 05 0c
        E 88 ba 05 0c
        E 88 ba 05 0c
        E 88 ba 05 0c
        E 88 ba 05 0c
        E 88 ba 05 0c
        E 88 ba 05 0c
        E 88 ba 05 0c
        E 88 ba 05 0c
        E 88 ba 05 0c
        E 88 ba 05 0c
        E 88 ba 05 0c
        E 88 ba 05 0c
        E 88 ba 05 0c
        E 88 ba 05 0c
        E 88 ba 05 0c
        E 88 ba 05 0c
        E 88 ba 05 0c
        E 88 ba 05 0c
        E 88 ba 05 0c
        E 88 ba 05 0c
        E 88 ba 05 0c
        E 88 ba 05 0c
        E 88 ba 05 0c
        E 88 ba 05 0c
        E 88 ba 05 0c
        E 88 ba 05 0c
        E 88 ba 05 0c
        E 88 ba 05 0c
        E 88 ba 05 0c
        E 88 ba 05 0c
        E 88 ba 05 0c
        E 88 ba 05 0c
        E 88 ba 05 0c
        E 88 ba 05 0c
        E 88 ba 05 0c
        E 88 ba 05 0c
        E 88 ba 05 0c
        E 88 ba 05 0c
        E 88 ba 05 0c
        E 88 ba 05 0c
        E 88 ba 05 0c
        E 88 ba 05 0c
        E 88 ba 05 00
        E 88 ba 05 00
        E 88 ba 05 00
        E 88 ba 05 00
        E 88 ba 05 00
        E 88 ba 05 00
        E 88 ba 05 00
        E 88 ba 05 00
        E 88 ba 05 00
        E 88 ba 05 00
        E 88 ba 05 00
        E 88 ba 05 00
        E 88 ba 05 00
        E 88 ba 05 00
        E 88 ba 05 00
        E 88 ba 05 00
        E 88 ba 05 00
        E 88 ba 05 00
        E 88 ba 05 00
        E 88 ba 05 00
        E 88 ba 05 00
        E 88 ba 05 00
        E 88 ba 05 00
        E 88 ba 05 00
        E 88 ba 05 00
        E 88 ba 05 00
        E 88 ba 05 00
        E 88 ba 05 00
        E 88 ba 05 00
        E 88 ba 05 00
        E 88 ba 05 00
        E 88 ba 05 00
        E 88 ba 05 00
        E 88 ba 05 00
        E 88 ba 05 00
        E 88 ba 05 00
        E 88 ba 05 00
        E 88 ba 05 00
        E 88 ba 05 00
        E 88 ba 05 00
        E 88 ba 05 00
        E 88 ba 05 00
        E 88 ba 05 00
        E 88 ba 05 00
        E 88 ba 05 00
        E 88 ba 05 00
        E 88 ba 05 00
        E 88 ba 05 00
        E 88 ba 05 00
        E 88 ba 05 00
        E 88 ba 05 00
        E 88 ba 05 00
        E 88 ba 05 00
        E 88 ba 05 00
        E 88 ba 05 00
        E 88 ba 05 00
        E 88 ba 05 00
        E 88 ba 05 00
        E 88 ba 05 00
        E 88 ba 05 00
        E 88 ba 05 00
        E 88 ba 05 00
        E 88 ba 05 00
        E 88 ba 05 00
        E 79 ba 05 32
        E 79 ba 05 32
        E 79 ba 05 32
        E 79 ba 05 32
        E 79 ba 05 32
        E 79 ba 05 32
        E 79 ba 05 32
        E 79 ba 05 32
        E 79 ba 05 32
        E 79 ba 05 32
        E 79 ba 05 32
        E 79 ba 05 32
        E 79 ba 05 32
        E 79 ba 05 32
        E 79 ba 05 32
        E 79 ba 05 32
        E 79 ba 05 32
        E 79 ba 05 32
        E 79 ba 05 32
        E 79 ba 05 32
        E 79 ba 05 32
        E 79 ba 05 32
        E 79 ba 05 32
        E 79 ba 05 32
        E 79 ba 05 32
        E 79 ba 05 32
        E 79 ba 05 32
        E 79 ba 05 32
        E 79 ba 05 32
        E 79 ba 05 32
        E 79 ba 05 32
        E 79 ba 05 32
        E 79 ba 05 32
        E 79 ba 05 32
        E 79 ba 05 32
        E 79 ba 05 32
        E 79 ba 05 32
        E 79 ba 05 32
        E 79 ba 05 32
        E 79 ba 05 32
        E 79 ba 05 32
        E 79 ba 05 32
        E 79 ba 05 32
        E 79 ba 05 32
        E 79 ba 05 32
        E 79 ba 05 32
        E 79 ba 05 32
        E 79 ba 05 32
        E 79 ba 05 32
        E 79 ba 05 32
        E 79 ba 05 32
        E 79 ba 05 32
        E 79 ba 05 32
        E 79 ba 05 32
        E 79 ba 05 32
        E 79 ba 05 32
        E 79 ba 05 32
        E 79 ba 05 32
        E 79 ba 05 32
        E 79 ba 05 32
        E 79 ba 05 32
        E 79 ba 05 32
        E 79 ba 05 32
        E 79 ba 05 00
        E 79 ba 05 00
        E 79 ba 05 00
        E 79 ba 05 00
        E 79 ba 05 00
        E 79 ba 05 00
        E 79 ba 05 00
        E 79 ba 05 00
        E 79 ba 05 00
        E 79 ba 05 00
        E 79 ba 05 00
        E 79 ba 05 00
        E 79 ba 05 00
        E 79 ba 05 00
        E 79 ba 05 00
        E 79 ba 05 00
        E 79 ba 05 00
        E 79 ba 05 00
        E 79 ba 05 00
        E 79 ba 05 00
        E 79 ba 05 00
        E 79 ba 05 00
        E 79 ba 05 00
        E 79 ba 05 00
        E 79 ba 05 00
        E 79 ba 05 00
        E 79 ba 05 00
        E 79 ba 05 00
        E 79 ba 05 00
        E 79 ba 05 00
        E 79 ba 05 00
        E 79 ba 05 00
        E 79 ba 05 00
        E 79 ba 05 00
        E 79 ba 05 00
        E 79 ba 05 00
        E 79 ba 05 00
        E 79 ba 05 00
        E 79 ba 05 00
        E 79 ba 05 00
        E 79 ba 05 00
        E 79 ba 05 00
        E 79 ba 05 00
        E 79 ba 05 00
        E 79 ba 05 00
        E 79 ba 05 00
        E 79 ba 05 00
        E 79 ba 05 00
        E 79 ba 05 00
        E 79 ba 05 00
        E 79 ba 05 00
        E 79 ba 05 00
        E 79 ba 05 00
        E 79 ba 05 00
        E 79 ba 05 00
        E 79 ba 05 00
        E 79 ba 05 00
        E 79 ba 05 00
        E 79 ba 05 00
        E 79 ba 05 00
        E 79 ba 05 00
        E 79 ba 05 00
        E 79 ba 05 00
        E 79 ba 05 00
        E 44 ba 05 58
        E 44 ba 05 58
        E 44 ba 05 58
        E 44 ba 05 58
        E 44 ba 05 58
        E 44 ba 05 58
        E 44 ba 05 58
        E 44 ba 05 58
        E 44 ba 05 58
        E 44 ba 05 58
        E 44 ba 05 58
        E 44 ba 05 58
        E 44 ba 05 58
        E 44 ba 05 58
        E 44 ba 05 58
        E 44 ba 05 58
        E 44 ba 05 58
        E 44 ba 05 58
        E 44 ba 05 58
        E 44 ba 05 58
        E 44 ba 05 58
        E 44 ba 05 58
        E 44 ba 05 58
        E 44 ba 05 58
        E 44 ba 05 58
        E 44 ba 05 58
        E 44 ba 05 58
        E 44 ba 05 58
        E 44 ba 05 58
        E 44 ba 05 58
        E 44 ba 05 58
        E 44 ba 05 58
        E 44 ba 05 58
        E 44 ba 05 58
        E 44 ba 05 58
        E 44 ba 05 58
        E 44 ba 05 58
        E 44 ba 05 58
        E 44 ba 05 58
        E 44 ba 05 58
        E 44 ba 05 58
        E 44 ba 05 58
        E 44 ba 05 58
        E 44 ba 05 58
        E 44 ba 05 58
        E 44 ba 05 58
        E 44 ba 05 58
        E 44 ba 05 58
        E 44 ba 05 58
        E 44 ba 05 58
        E 44 ba 05 58
        E 44 ba 05 58
        E 44 ba 05 58
        E 44 ba 05 58
        E 44 ba 05 58
        E 44 ba 05 58
        E 44 ba 05 58
        E 44 ba 05 58
        E 44 ba 05 58
        E 44 ba 05 58
        E 44 ba 05 58
        E 44 ba 05 58
        E 44 ba 05 58
        E 44 ba 05 00
        E 44 ba 05 00
        E 44 ba 05 00
        E 44 ba 05 00
        E 44 ba 05 00
        E 44 ba 05 00
        E 44 ba 05 00
        E 44 ba 05 00
        E 44 ba 05 00
        E 44 ba 05 00
        E 44 ba 05 00
        E 44 ba 05 00
        E 44 ba 05 00
        E 44 ba 05 00
        E 44 ba 05 00
        E 44 ba 05 00
        E 44 ba 05 00
        E 44 ba 05 00
        E 44 ba 05 00
        E 44 ba 05 00
        E 44 ba 05 00
        E 44 ba 05 00
        E 44 ba 05 00
        E 44 ba 05 00
        E 44 ba 05 00
        E 44 ba 05 00
        E 44 ba 05 00
        E 44 ba 05 00
        E 44 ba 05 00
        E 44 ba 05 00
        E 44 ba 05 00
        E 44 ba 05 00
        E 44 ba 05 00
        E 44 ba 05 00
        E 44 ba 05 00
        E 44 ba 05 00
        E 44 ba 05 00
        E 44 ba 05 00
        E 44 ba 05 00
        E 44 ba 05 00
        E 44 ba 05 00
        E 44 ba 05 00
        E 44 ba 05 00
        E 44 ba 05 00
        E 44 ba 05 00
        E 44 ba 05 00
        E 44 ba 05 00
        E 44 ba 05 00
        E 44 ba 05 00
        E 44 ba 05 00
        E 44 ba 05 00
        E 44 ba 05 00
        E 44 ba 05 00
        E 44 ba 05 00
        E 44 ba 05 00
        E 44 ba 05 00
        E 44 ba 05 00
        E 44 ba 05 00
        E 44 ba 05 00
        E 44 ba 05 00
        E 44 ba 05 00
        E 44 ba 05 00
        E 44 ba 05 00
        E 44 ba 05 00
        E 44 ba 05 3f
        E 44 ba 05 3f
        E 44 ba 05 3f
        E 44 ba 05 3f
        E 44 ba 05 3f
        E 44 ba 05 3f
        E 44 ba 05 3f
        E 44 ba 05 3f
        E 44 ba 05 3f
        E 44 ba 05 3f
        E 44 ba 05 3f
        E 44 ba 05 3f
        E 44 ba 05 3f
        E 44 ba 05 3f
        E 44 ba 05 3f
        E 44 ba 05 3f
        E 44 ba 05 3f
        E 44 ba 05 3f
        E 44 ba 05 3f
        E 44 ba 05 3f
        E 44 ba 05 3f
        E 44 ba 05 3f
        E 44 ba 05 3f
        E 44 ba 05 3f
        E 44 ba 05 3f
        E 44 ba 05 3f
        E 44 ba 05 3f
        E 44 ba 05 3f
        E 44 ba 05 3f
        E 44 ba 05 3f
        E 44 ba 05 3f
        E 44 ba 05 3f
        E 44 ba 05 3f
        E 44 ba 05 3f
        E 44 ba 05 3f
        E 44 ba 05 3f
        E 44 ba 05 3f
        E 44 ba 05 3f
        E 44 ba 05 3f
        E 44 ba 05 3f
        E 44 ba 05 3f
        E 44 ba 05 3f
        E 44 ba 05 3f
        E 44 ba 05 3f
        E 44 ba 05 3f
        E 44 ba 05 3f
        E 44 ba 05 3f
        E 44 ba 05 3f
        E 44 ba 05 3f
        E 44 ba 05 3f
        E 44 ba 05 3f
        E 44 ba 05 3f
        E 44 ba 05 3f
        E 44 ba 05 3f
        E 44 ba 05 3f
        E 44 ba 05 3f
        E 44 ba 05 3f
        E 44 ba 05 3f
        E 44 ba 05 3f
        E 44 ba 05 3f
        E 44 ba 05 3f
        E 44 ba 05 3f
        E 44 ba 05 3f
        E 44 ba 05 00
        E 44 ba 05 00
        E 44 ba 05 00
        E 44 ba 05 00
        E 44 ba 05 00
        E 44 ba 05 00
        E 44 ba 05 00
        E 44 ba 05 00
        E 44 ba 05 00
        E 44 ba 05 00
        E 44 ba 05 00
        E 44 ba 05 00
        E 44 ba 05 00
        E 44 ba 05 00
        E 44 ba 05 00
        E 44 ba 05 00
        E 44 ba 05 00
        E 44 ba 05 00
        E 44 ba 05 00
        E 44 ba 05 00
        E 44 ba 05 00
        E 44 ba 05 00
        E 44 ba 05 00
        E 44 ba 05 00
        E 44 ba 05 00
        E 44 ba 05 00
        E 44 ba 05 00
        E 44 ba 05 00
        E 44 ba 05 00
        E 44 ba 05 00
        E 44 ba 05 00
        E 44 ba 05 00
        E 44 ba 05 00
        E 44 ba 05 00
        E 44 ba 05 00
        E 44 ba 05 00
        E 44 ba 05 00
        E 44 ba 05 00
        E 44 ba 05 00
        E 44 ba 05 00
        E 44 ba 05 00
        E 44 ba 05 00
        E 44 ba 05 00
        E 44 ba 05 00
        E 44 ba 05 00
        E 44 ba 05 00
        E 44 ba 05 00
        E 44 ba 05 00
        E 44 ba 05 00
        E 44 ba 05 00
        E 44 ba 05 00
        E 44 ba 05 00
        E 44 ba 05 00
        E 44 ba 05 00
        E 44 ba 05 00
        E 44 ba 05 00
        E 44 ba 05 00
        E 44 ba 05 00
        E 44 ba 05 00
        E 44 ba 05 00
        E 44 ba 05 00
        E 44 ba 05 00
        E 44 ba 05 00
        E 44 ba 05 00
        E 61 ba 05 3f
        E 61 ba 05 3f
        E 61 ba 05 3f
        E 61 ba 05 3f
        E 61 ba 05 3f
        E 61 ba 05 3f
        E 61 ba 05 3f
        E 61 ba 05 3f
        E 61 ba 05 3f
        E 61 ba 05 3f
        E 61 ba 05 3f
        E 61 ba 05 3f
        E 61 ba 05 3f
        E 61 ba 05 3f
        E 61 ba 05 3f
        E 61 ba 05 3f
        E 61 ba 05 3f
        E 61 ba 05 3f
        E 61 ba 05 3f
        E 61 ba 05 3f
        E 61 ba 05 3f
        E 61 ba 05 3f
        E 61 ba 05 3f
        E 61 ba 05 3f
        E 61 ba 05 3f
        E 61 ba 05 3f
        E 61 ba 05 3f
        E 61 ba 05 3f
        E 61 ba 05 3f
        E 61 ba 05 3f
        E 61 ba 05 3f
        E 61 ba 05 3f
        E 61 ba 05 3f
        E 61 ba 05 3f
        E 61 ba 05 3f
        E 61 ba 05 3f
        E 61 ba 05 3f
        E 61 ba 05 3f
        E 61 ba 05 3f
        E 61 ba 05 3f
        E 61 ba 05 3f
        E 61 ba 05 3f
        E 61 ba 05 3f
        E 61 ba 05 3f
        E 61 ba 05 3f
        E 61 ba 05 3f
        E 61 ba 05 3f
        E 61 ba 05 3f
        E 61 ba 05 3f
        E 61 ba 05 3f
        E 61 ba 05 3f
        E 61 ba 05 3f
        E 61 ba 05 3f
        E 61 ba 05 3f
        E 61 ba 05 3f
        E 61 ba 05 3f
        E 61 ba 05 3f
        E 61 ba 05 3f
        E 61 ba 05 3f
        E 61 ba 05 3f
        E 61 ba 05 3f
        E 61 ba 05 3f
        E 61 ba 05 3f
        E 61 ba 05 00
        E 61 ba 05 00
        E 61 ba 05 00
        E 61 ba 05 00
        E 61 ba 05 00
        E 61 ba 05 00
        E 61 ba 05 00
        E 61 ba 05 00
        E 61 ba 05 00
        E 61 ba 05 00
        E 61 ba 05 00
        E 61 ba 05 00
        E 61 ba 05 00
        E 61 ba 05 00
        E 61 ba 05 00
        E 61 ba 05 00
        E 61 ba 05 00
        E 61 ba 05 00
        E 61 ba 05 00
        E 61 ba 05 00
        E 61 ba 05 00
        E 61 ba 05 00
        E 61 ba 05 00
        E 61 ba 05 00
        E 61 ba 05 00
        E 61 ba 05 00
        E 61 ba 05 00
        E 61 ba 05 00
        E 61 ba 05 00
        E 61 ba 05 00
        E 61 ba 05 00
        E 61 ba 05 00
        E 61 ba 05 00
        E 61 ba 05 00
        E 61 ba 05 00
        E 61 ba 05 00
        E 61 ba 05 00
        E 61 ba 05 00
        E 61 ba 05 00
        E 61 ba 05 00
        E 61 ba 05 00
        E 61 ba 05 00
        E 61 ba 05 00
        E 61 ba 05 00
        E 61 ba 05 00
        E 61 ba 05 00
        E 61 ba 05 00
        E 61 ba 05 00
        E 61 ba 05 00
        E 61 ba 05 00
        E 61 ba 05 00
        E 61 ba 05 00
        E 61 ba 05 00
        E 61 ba 05 00
        E 61 ba 05 00
        E 61 ba 05 00
        E 61 ba 05 00
        E 61 ba 05 00
        E 61 ba 05 00
        E 61 ba 05 00
        E 61 ba 05 00
        E 61 ba 05 00
        E 61 ba 05 00
        E 61 ba 05 00
        E 70 ba 05 7f
        E 70 ba 05 7f
        E 70 ba 05 7f
        E 70 ba 05 7f
        E 70 ba 05 7f
        E 70 ba 05 7f
        E 70 ba 05 7f
        E 70 ba 05 7f
        E 70 ba 05 7f
        E 70 ba 05 7f
        E 70 ba 05 7f
        E 70 ba 05 7f
        E 70 ba 05 7f
        E 70 ba 05 7f
        E 70 ba 05 7f
        E 70 ba 05 7f
        E 70 ba 05 7f
        E 70 ba 05 7f
        E 70 ba 05 7f
        E 70 ba 05 7f
        E 70 ba 05 7f
        E 70 ba 05 7f
        E 70 ba 05 7f
        E 70 ba 05 7f
        E 70 ba 05 7f
        E 70 ba 05 7f
        E 70 ba 05 7f
        E 70 ba 05 7f
        E 70 ba 05 7f
        E 70 ba 05 7f
        E 70 ba 05 7f
        E 70 ba 05 7f
        E 70 ba 05 7f
        E 70 ba 05 7f
        E 70 ba 05 7f
        E 70 ba 05 7f
        E 70 ba 05 7f
        E 70 ba 05 7f
        E 70 ba 05 7f
        E 70 ba 05 7f
        E 70 ba 05 7f
        E 70 ba 05 7f
        E 70 ba 05 7f
        E 70 ba 05 7f
        E 70 ba 05 7f
        E 70 ba 05 7f
        E 70 ba 05 7f
        E 70 ba 05 7f
        E 70 ba 05 7f
        E 70 ba 05 7f
        E 70 ba 05 7f
        E 70 ba 05 7f
        E 70 ba 05 7f
        E 70 ba 05 7f
        E 70 ba 05 7f
        E 70 ba 05 7f
        E 70 ba 05 7f
        E 70 ba 05 7f
        E 70 ba 05 7f
        E 70 ba 05 7f
        E 70 ba 05 7f
        E 70 ba 05 7f
        E 70 ba 05 7f
        E 70 ba 05 00
        E 70 ba 05 00
        E 70 ba 05 00
        E 70 ba 05 00
        E 70 ba 05 00
        E 70 ba 05 00
        E 70 ba 05 00
        E 70 ba 05 00
        E 70 ba 05 00
        E 70 ba 05 00
        E 70 ba 05 00
        E 70 ba 05 00
        E 70 ba 05 00
        E 70 ba 05 00
        E 70 ba 05 00
        E 70 ba 05 00
        E 70 ba 05 00
        E 70 ba 05 00
        E 70 ba 05 00
        E 70 ba 05 00
        E 70 ba 05 00
        E 70 ba 05 00
        E 70 ba 05 00
        E 70 ba 05 00
        E 70 ba 05 00
        E 70 ba 05 00
        E 70 ba 05 00
        E 70 ba 05 00
        E 70 ba 05 00
        E 70 ba 05 00
        E 70 ba 05 00
        E 70 ba 05 00
        E 70 ba 05 00
        E 70 ba 05 00
        E 70 ba 05 00
        E 70 ba 05 00
        E 70 ba 05 00
        E 70 ba 05 00
        E 70 ba 05 00
        E 70 ba 05 00
        E 70 ba 05 00
        E 70 ba 05 00
        E 70 ba 05 00
        E 70 ba 05 00
        E 70 ba 05 00
        E 70 ba 05 00
        E 70 ba 05 00
        E 70 ba 05 00
        E 70 ba 05 00
        E 70 ba 05 00
        E 70 ba 05 00
        E 70 ba 05 00
        E 70 ba 05 00
        E 70 ba 05 00
        E 70 ba 05 00
        E 70 ba 05 00
        E 70 ba 05 00
        E 70 ba 05 00
        E 70 ba 05 00
        E 70 ba 05 00
        E 70 ba 05 00
        E 70 ba 05 00
        E 70 ba 05 00
        E 70 ba 05 00
        E 11 ba 05 39
        E 11 ba 05 3c
        E 11 ba 05 3f
        E 11 ba 05 41
        E 11 ba 05 44
        E 11 ba 05 47
        E 11 ba 05 49
        E 11 ba 05 4c
        E 11 ba 05 4f
        E 11 ba 05 51
        E 11 ba 05 54
        E 11 ba 05 56
        E 11 ba 05 59
        E 11 ba 05 5b
        E 11 ba 05 5d
        E 11 ba 05 5f
        E 11 ba 05 62
        E 11 ba 05 63
        E 11 ba 05 65
        E 11 ba 05 67
        E 11 ba 05 69
        E 11 ba 05 6a
        E 11 ba 05 6c
        E 11 ba 05 6c
        E 11 ba 05 6d
        E 11 ba 05 6e
        E 11 ba 05 6f
        E 11 ba 05 70
        E 11 ba 05 71
        E 11 ba 05 71
        E 11 ba 05 72
        E 11 ba 05 72
        E 11 ba 05 72
        E 11 ba 05 72
        E 11 ba 05 72
        E 11 ba 05 71
        E 11 ba 05 71
        E 11 ba 05 70
        E 11 ba 05 6f
        E 11 ba 05 6e
        E 11 ba 05 6d
        E 11 ba 05 6c
        E 11 ba 05 6b
        E 11 ba 05 69
        E 11 ba 05 68
        E 11 ba 05 66
        E 11 ba 05 64
        E 11 ba 05 63
        E 11 ba 05 61
        E 11 ba 05 5e
        E 11 ba 05 5c
        E 11 ba 05 5a
        E 11 ba 05 58
        E 11 ba 05 55
        E 11 ba 05 52
        E 11 ba 05 50
        E 11 ba 05 4e
        E 11 ba 05 4b
        E 11 ba 05 48
        E 11 ba 05 46
        E 11 ba 05 42
        E 11 ba 05 3f
        E 11 ba 05 3d
        E 11 ba 05 3a
        E 11 ba 05 37
        E 11 ba 05 35
        E 11 ba 05 32
        E 11 ba 05 2f
        E 11 ba 05 2c
        E 11 ba 05 29
        E 11 ba 05 26
        E 11 ba 05 24
        E 11 ba 05 22
        E 11 ba 05 1f
        E 11 ba 05 1c
        E 11 ba 05 1a
        E 11 ba 05 18
        E 11 ba 05 15
        E 11 ba 05 13
        E 11 ba 05 11
        E 11 ba 05 0f
        E 11 ba 05 0d
        E 11 ba 05 0b
        E 11 ba 05 09
        E 11 ba 05 09
        E 11 ba 05 07
        E 11 ba 05 06
        E 11 ba 05 04
        E 11 ba 05 03
        E 11 ba 05 02
        E 11 ba 05 01
        E 11 ba 05 00
        E 11 ba 05 00
        E 11 ba 05 00
        E 11 ba 05 00
        E 11 ba 05 00
        E 11 ba 05 00
        E 11 ba 05 00
        E 11 ba 05 00
        E 11 ba 05 00
        E 11 ba 05 01
        E 11 ba 05 02
        E 11 ba 05 03
        E 11 ba 05 04
        E 11 ba 05 05
        E 11 ba 05 06
        E 11 ba 05 08
        E 11 ba 05 09
        E 11 ba 05 0a
        E 11 ba 05 0c
        E 11 ba 05 0e
        E 11 ba 05 10
        E 11 ba 05 12
        E 11 ba 05 14
        E 11 ba 05 16
        E 11 ba 05 19
        E 11 ba 05 1b
        E 11 ba 05 1d
        E 11 ba 05 20
        E 11 ba 05 23
        E 11 ba 05 25
        E 11 ba 05 28
        E 11 ba 05 2b
        E 11 ba 05 2d
        E 11 ba 05 30
        E 11 ba 05 33
        E 11 ba 05 36
        E 11 ba 05 39
        E 8 ba 05 20
        E 8 ba 05 21
        E 8 ba 05 23
        E 8 ba 05 24
        E 8 ba 05 26
        E 8 ba 05 27
        E 8 ba 05 29
        E 8 ba 05 2a
        E 8 ba 05 2c
        E 8 ba 05 2d
        E 8 ba 05 2f
        E 8 ba 05 30
        E 8 ba 05 31
        E 8 ba 05 33
        E 8 ba 05 34
        E 8 ba 05 35
        E 8 ba 05 36
        E 8 ba 05 37
        E 8 ba 05 38
        E 8 ba 05 39
        E 8 ba 05 3a
        E 8 ba 05 3b
        E 8 ba 05 3c
        E 8 ba 05 3c
        E 8 ba 05 3d
        E 8 ba 05 3d
        E 8 ba 05 3e
        E 8 ba 05 3e
        E 8 ba 05 3f
        E 8 ba 05 3f
        E 8 ba 05 3f
        E 8 ba 05 3f
        E 8 ba 05 3f
        E 8 ba 05 3f
        E 8 ba 05 3f
        E 8 ba 05 3f
        E 8 ba 05 3f
        E 8 ba 05 3e
        E 8 ba 05 3e
        E 8 ba 05 3d
        E 8 ba 05 3d
        E 8 ba 05 3c
        E 8 ba 05 3b
        E 8 ba 05 3a
        E 8 ba 05 3a
        E 8 ba 05 39
        E 8 ba 05 38
        E 8 ba 05 37
        E 8 ba 05 36
        E 8 ba 05 34
        E 8 ba 05 33
        E 8 ba 05 32
        E 8 ba 05 31
        E 8 ba 05 2f
        E 8 ba 05 2e
        E 8 ba 05 2c
        E 8 ba 05 2b
        E 8 ba 05 2a
        E 8 ba 05 28
        E 8 ba 05 27
        E 8 ba 05 25
        E 8 ba 05 23
        E 8 ba 05 22
        E 8 ba 05 20
        E 8 ba 05 1f
        E 8 ba 05 1d
        E 8 ba 05 1c
        E 8 ba 05 1a
        E 8 ba 05 18
        E 8 ba 05 17
        E 8 ba 05 15
        E 8 ba 05 14
        E 8 ba 05 13
        E 8 ba 05 11
        E 8 ba 05 10
        E 8 ba 05 0e
        E 8 ba 05 0d
        E 8 ba 05 0c
        E 8 ba 05 0b
        E 8 ba 05 09
        E 8 ba 05 08
        E 8 ba 05 07
        E 8 ba 05 06
        E 8 ba 05 05
        E 8 ba 05 05
        E 8 ba 05 04
        E 8 ba 05 03
        E 8 ba 05 02
        E 8 ba 05 02
        E 8 ba 05 01
        E 8 ba 05 01
        E 8 ba 05 00
        E 8 ba 05 00
        E 8 ba 05 00
        E 8 ba 05 00
        E 8 ba 05 00
        E 8 ba 05 00
        E 8 ba 05 00
        E 8 ba 05 00
        E 8 ba 05 00
        E 8 ba 05 01
        E 8 ba 05 01
        E 8 ba 05 02
        E 8 ba 05 02
        E 8 ba 05 03
        E 8 ba 05 03
        E 8 ba 05 04
        E 8 ba 05 05
        E 8 ba 05 06
        E 8 ba 05 07
        E 8 ba 05 08
        E 8 ba 05 09
        E 8 ba 05 0a
        E 8 ba 05 0b
        E 8 ba 05 0c
        E 8 ba 05 0e
        E 8 ba 05 0f
        E 8 ba 05 10
        E 8 ba 05 12
        E 8 ba 05 13
        E 8 ba 05 15
        E 8 ba 05 16
        E 8 ba 05 18
        E 8 ba 05 19
        E 8 ba 05 1b
        E 8 ba 05 1c
        E 8 ba 05 1e
        E 8 ba 05 20
        E 8 ba 05 20
        E 8 ba 05 21
        E 8 ba 05 23
        E 8 ba 05 24
        E 8 ba 05 26
        E 8 ba 05 27
        E 8 ba 05 29
        E 8 ba 05 2a
        E 8 ba 05 2c
        E 8 ba 05 2d
        E 8 ba 05 2f
        E 8 ba 05 30
        E 8 ba 05 31
        E 8 ba 05 33
        E 8 ba 05 34
        E 8 ba 05 35
        E 8 ba 05 36
        E 8 ba 05 37
        E 8 ba 05 38
        E 8 ba 05 39
        E 8 ba 05 3a
        E 8 ba 05 3b
        E 8 ba 05 3c
        E 8 ba 05 3c
        E 8 ba 05 3d
        E 8 ba 05 3d
        E 8 ba 05 3e
        E 8 ba 05 3e
        E 8 ba 05 3f
        E 8 ba 05 3f
        E 8 ba 05 3f
        E 8 ba 05 3f
        E 8 ba 05 3f
        E 8 ba 05 3f
        E 8 ba 05 3f
        E 8 ba 05 3f
        E 8 ba 05 3f
        E 8 ba 05 3e
        E 8 ba 05 3e
        E 8 ba 05 3d
        E 8 ba 05 3d
        E 8 ba 05 3c
        E 8 ba 05 3b
        E 8 ba 05 3a
        E 8 ba 05 3a
        E 8 ba 05 39
        E 8 ba 05 38
        E 8 ba 05 37
        E 8 ba 05 36
        E 8 ba 05 34
        E 8 ba 05 33
        E 8 ba 05 32
        E 8 ba 05 31
        E 8 ba 05 2f
        E 8 ba 05 2e
        E 8 ba 05 2c
        E 8 ba 05 2b
        E 8 ba 05 2a
        E 8 ba 05 28
        E 8 ba 05 27
        E 8 ba 05 25
        E 8 ba 05 23
        E 8 ba 05 22
        E 8 ba 05 20
        E 8 ba 05 1f
        E 8 ba 05 1d
        E 8 ba 05 1c
        E 8 ba 05 1a
        E 8 ba 05 18
        E 8 ba 05 17
        E 8 ba 05 15
        E 8 ba 05 14
        E 8 ba 05 13
        E 8 ba 05 11
        E 8 ba 05 10
        E 8 ba 05 0e
        E 8 ba 05 0d
        E 8 ba 05 0c
        E 8 ba 05 0b
        E 8 ba 05 09
        E 8 ba 05 08
        E 8 ba 05 07
        E 8 ba 05 06
        E 8 ba 05 05
        E 8 ba 05 05
        E 8 ba 05 04
        E 8 ba 05 03
        E 8 ba 05 02
        E 8 ba 05 02
        E 8 ba 05 01
        E 8 ba 05 01
        E 8 ba 05 00
        E 8 ba 05 00
        E 8 ba 05 00
        E 8 ba 05 00
        E 8 ba 05 00
        E 8 ba 05 00
        E 8 ba 05 00
        E 8 ba 05 00
        E 8 ba 05 00
        E 8 ba 05 01
        E 8 ba 05 01
        E 8 ba 05 02
        E 8 ba 05 02
        E 8 ba 05 03
        E 8 ba 05 03
        E 8 ba 05 04
        E 8 ba 05 05
        E 8 ba 05 06
        E 8 ba 05 07
        E 8 ba 05 08
        E 8 ba 05 09
        E 8 ba 05 0a
        E 8 ba 05 0b
        E 8 ba 05 0c
        E 8 ba 05 0e
        E 8 ba 05 0f
        E 8 ba 05 10
        E 8 ba 05 12
        E 8 ba 05 13
        E 8 ba 05 15
        E 8 ba 05 16
        E 8 ba 05 18
        E 8 ba 05 19
        E 8 ba 05 1b
        E 8 ba 05 1c
        E 8 ba 05 1e
        E 8 ba 05 20
        E 17 ba 05 2c
        E 17 ba 05 2e
        E 17 ba 05 31
        E 17 ba 05 33
        E 17 ba 05 35
        E 17 ba 05 37
        E 17 ba 05 39
        E 17 ba 05 3b
        E 17 ba 05 3d
        E 17 ba 05 3f
        E 17 ba 05 41
        E 17 ba 05 43
        E 17 ba 05 45
        E 17 ba 05 47
        E 17 ba 05 48
        E 17 ba 05 4a
        E 17 ba 05 4c
        E 17 ba 05 4d
        E 17 ba 05 4f
        E 17 ba 05 50
        E 17 ba 05 51
        E 17 ba 05 52
        E 17 ba 05 54
        E 17 ba 05 54
        E 17 ba 05 55
        E 17 ba 05 56
        E 17 ba 05 56
        E 17 ba 05 57
        E 17 ba 05 58
        E 17 ba 05 58
        E 17 ba 05 58
        E 17 ba 05 58
        E 17 ba 05 58
        E 17 ba 05 58
        E 17 ba 05 58
        E 17 ba 05 58
        E 17 ba 05 58
        E 17 ba 05 57
        E 17 ba 05 56
        E 17 ba 05 56
        E 17 ba 05 55
        E 17 ba 05 54
        E 17 ba 05 53
        E 17 ba 05 51
        E 17 ba 05 51
        E 17 ba 05 4f
        E 17 ba 05 4e
        E 17 ba 05 4d
        E 17 ba 05 4b
        E 17 ba 05 49
        E 17 ba 05 48
        E 17 ba 05 46
        E 17 ba 05 44
        E 17 ba 05 42
        E 17 ba 05 40
        E 17 ba 05 3e
        E 17 ba 05 3c
        E 17 ba 05 3a
        E 17 ba 05 38
        E 17 ba 05 36
        E 17 ba 05 33
        E 17 ba 05 31
        E 17 ba 05 2f
        E 17 ba 05 2d
        E 17 ba 05 2b
        E 17 ba 05 29
        E 17 ba 05 27
        E 17 ba 05 25
        E 17 ba 05 22
        E 17 ba 05 20
        E 17 ba 05 1e
        E 17 ba 05 1c
        E 17 ba 05 1a
        E 17 ba 05 18
        E 17 ba 05 16
        E 17 ba 05 14
        E 17 ba 05 12
        E 17 ba 05 10
        E 17 ba 05 0f
        E 17 ba 05 0d
        E 17 ba 05 0b
        E 17 ba 05 0a
        E 17 ba 05 09
        E 17 ba 05 07
        E 17 ba 05 07
        E 17 ba 05 05
        E 17 ba 05 04
        E 17 ba 05 03
        E 17 ba 05 02
        E 17 ba 05 02
        E 17 ba 05 01
        E 17 ba 05 00
        E 17 ba 05 00
        E 17 ba 05 00
        E 17 ba 05 00
        E 17 ba 05 00
        E 17 ba 05 00
        E 17 ba 05 00
        E 17 ba 05 00
        E 17 ba 05 00
        E 17 ba 05 01
        E 17 ba 05 02
        E 17 ba 05 02
        E 17 ba 05 03
        E 17 ba 05 04
        E 17 ba 05 04
        E 17 ba 05 06
        E 17 ba 05 07
        E 17 ba 05 08
        E 17 ba 05 09
        E 17 ba 05 0b
        E 17 ba 05 0c
        E 17 ba 05 0e
        E 17 ba 05 10
        E 17 ba 05 11
        E 17 ba 05 13
        E 17 ba 05 15
        E 17 ba 05 17
        E 17 ba 05 19
        E 17 ba 05 1b
        E 17 ba 05 1d
        E 17 ba 05 1f
        E 17 ba 05 21
        E 17 ba 05 23
        E 17 ba 05 25
        E 17 ba 05 27
        E 17 ba 05 2a
        E 17 ba 05 2c
        E 15 ba 05 33
        E 15 ba 05 35
        E 15 ba 05 37
        E 15 ba 05 3a
        E 15 ba 05 3c
        E 15 ba 05 3f
        E 15 ba 05 41
        E 15 ba 05 44
        E 15 ba 05 46
        E 15 ba 05 48
        E 15 ba 05 4b
        E 15 ba 05 4c
        E 15 ba 05 4f
        E 15 ba 05 51
        E 15 ba 05 53
        E 15 ba 05 54
        E 15 ba 05 57
        E 15 ba 05 58
        E 15 ba 05 5a
        E 15 ba 05 5b
        E 15 ba 05 5d
        E 15 ba 05 5e
        E 15 ba 05 5f
        E 15 ba 05 60
        E 15 ba 05 61
        E 15 ba 05 62
        E 15 ba 05 63
        E 15 ba 05 63
        E 15 ba 05 64
        E 15 ba 05 64
        E 15 ba 05 65
        E 15 ba 05 65
        E 15 ba 05 65
        E 15 ba 05 65
        E 15 ba 05 65
        E 15 ba 05 64
        E 15 ba 05 64
        E 15 ba 05 63
        E 15 ba 05 63
        E 15 ba 05 62
        E 15 ba 05 61
        E 15 ba 05 5f
        E 15 ba 05 5f
        E 15 ba 05 5d
        E 15 ba 05 5c
        E 15 ba 05 5b
        E 15 ba 05 59
        E 15 ba 05 57
        E 15 ba 05 56
        E 15 ba 05 54
        E 15 ba 05 52
        E 15 ba 05 50
        E 15 ba 05 4e
        E 15 ba 05 4c
        E 15 ba 05 49
        E 15 ba 05 47
        E 15 ba 05 45
        E 15 ba 05 43
        E 15 ba 05 40
        E 15 ba 05 3e
        E 15 ba 05 3b
        E 15 ba 05 38
        E 15 ba 05 36
        E 15 ba 05 33
        E 15 ba 05 31
        E 15 ba 05 2f
        E 15 ba 05 2c
        E 15 ba 05 2a
        E 15 ba 05 27
        E 15 ba 05 24
        E 15 ba 05 22
        E 15 ba 05 1f
        E 15 ba 05 1e
        E 15 ba 05 1b
        E 15 ba 05 19
        E 15 ba 05 17
        E 15 ba 05 15
        E 15 ba 05 13
        E 15 ba 05 11
        E 15 ba 05 0f
        E 15 ba 05 0d
        E 15 ba 05 0b
        E 15 ba 05 0a
        E 15 ba 05 08
        E 15 ba 05 07
        E 15 ba 05 06
        E 15 ba 05 05
        E 15 ba 05 03
        E 15 ba 05 03
        E 15 ba 05 02
        E 15 ba 05 01
        E 15 ba 05 00
        E 15 ba 05 00
        E 15 ba 05 00
        E 15 ba 05 00
        E 15 ba 05 00
        E 15 ba 05 00
        E 15 ba 05 00
        E 15 ba 05 00
        E 15 ba 05 00
        E 15 ba 05 01
        E 15 ba 05 02
        E 15 ba 05 03
        E 15 ba 05 03
        E 15 ba 05 04
        E 15 ba 05 05
        E 15 ba 05 07
        E 15 ba 05 07
        E 15 ba 05 09
        E 15 ba 05 0b
        E 15 ba 05 0c
        E 15 ba 05 0e
        E 15 ba 05 10
        E 15 ba 05 12
        E 15 ba 05 14
        E 15 ba 05 16
        E 15 ba 05 18
        E 15 ba 05 1a
        E 15 ba 05 1c
        E 15 ba 05 1f
        E 15 ba 05 21
        E 15 ba 05 24
        E 15 ba 05 26
        E 15 ba 05 28
        E 15 ba 05 2b
        E 15 ba 05 2d
        E 15 ba 05 2f
        E 15 ba 05 33
        E 17 ba 05 06
        E 17 ba 05 06
        E 17 ba 05 07
        E 17 ba 05 07
        E 17 ba 05 07
        E 17 ba 05 07
        E 17 ba 05 08
        E 17 ba 05 08
        E 17 ba 05 08
        E 17 ba 05 09
        E 17 ba 05 09
        E 17 ba 05 09
        E 17 ba 05 09
        E 17 ba 05 0a
        E 17 ba 05 0a
        E 17 ba 05 0a
        E 17 ba 05 0a
        E 17 ba 05 0b
        E 17 ba 05 0b
        E 17 ba 05 0b
        E 17 ba 05 0b
        E 17 ba 05 0b
        E 17 ba 05 0c
        E 17 ba 05 0c
        E 17 ba 05 0c
        E 17 ba 05 0c
        E 17 ba 05 0c
        E 17 ba 05 0c
        E 17 ba 05 0c
        E 17 ba 05 0c
        E 17 ba 05 0c
        E 17 ba 05 0c
        E 17 ba 05 0c
        E 17 ba 05 0c
        E 17 ba 05 0c
        E 17 ba 05 0c
        E 17 ba 05 0c
        E 17 ba 05 0c
        E 17 ba 05 0c
        E 17 ba 05 0c
        E 17 ba 05 0c
        E 17 ba 05 0c
        E 17 ba 05 0b
        E 17 ba 05 0b
        E 17 ba 05 0b
        E 17 ba 05 0b
        E 17 ba 05 0b
        E 17 ba 05 0b
        E 17 ba 05 0a
        E 17 ba 05 0a
        E 17 ba 05 0a
        E 17 ba 05 0a
        E 17 ba 05 09
        E 17 ba 05 09
        E 17 ba 05 09
        E 17 ba 05 08
        E 17 ba 05 08
        E 17 ba 05 08
        E 17 ba 05 08
        E 17 ba 05 07
        E 17 ba 05 07
        E 17 ba 05 07
        E 17 ba 05 06
        E 17 ba 05 06
        E 17 ba 05 06
        E 17 ba 05 05
        E 17 ba 05 05
        E 17 ba 05 05
        E 17 ba 05 04
        E 17 ba 05 04
        E 17 ba 05 04
        E 17 ba 05 04
        E 17 ba 05 03
        E 17 ba 05 03
        E 17 ba 05 03
        E 17 ba 05 02
        E 17 ba 05 02
        E 17 ba 05 02
        E 17 ba 05 02
        E 17 ba 05 01
        E 17 ba 05 01
        E 17 ba 05 01
        E 17 ba 05 01
        E 17 ba 05 01
        E 17 ba 05 01
        E 17 ba 05 00
        E 17 ba 05 00
        E 17 ba 05 00
        E 17 ba 05 00
        E 17 ba 05 00
        E 17 ba 05 00
        E 17 ba 05 00
        E 17 ba 05 00
        E 17 ba 05 00
        E 17 ba 05 00
        E 17 ba 05 00
        E 17 ba 05 00
        E 17 ba 05 00
        E 17 ba 05 00
        E 17 ba 05 00
        E 17 ba 05 00
        E 17 ba 05 00
        E 17 ba 05 00
        E 17 ba 05 00
        E 17 ba 05 00
        E 17 ba 05 00
        E 17 ba 05 00
        E 17 ba 05 01
        E 17 ba 05 01
        E 17 ba 05 01
        E 17 ba 05 01
        E 17 ba 05 01
        E 17 ba 05 02
        E 17 ba 05 02
        E 17 ba 05 02
        E 17 ba 05 02
        E 17 ba 05 03
        E 17 ba 05 03
        E 17 ba 05 03
        E 17 ba 05 03
        E 17 ba 05 04
        E 17 ba 05 04
        E 17 ba 05 04
        E 17 ba 05 05
        E 17 ba 05 05
        E 17 ba 05 05
        E 17 ba 05 06
        E 17 ba 05 06
        E 15 ba 05 19
        E 15 ba 05 1a
        E 15 ba 05 1c
        E 15 ba 05 1d
        E 15 ba 05 1e
        E 15 ba 05 1f
        E 15 ba 05 20
        E 15 ba 05 22
        E 15 ba 05 23
        E 15 ba 05 24
        E 15 ba 05 25
        E 15 ba 05 26
        E 15 ba 05 27
        E 15 ba 05 28
        E 15 ba 05 29
        E 15 ba 05 2a
        E 15 ba 05 2b
        E 15 ba 05 2c
        E 15 ba 05 2d
        E 15 ba 05 2e
        E 15 ba 05 2e
        E 15 ba 05 2f
        E 15 ba 05 30
        E 15 ba 05 30
        E 15 ba 05 30
        E 15 ba 05 31
        E 15 ba 05 31
        E 15 ba 05 32
        E 15 ba 05 32
        E 15 ba 05 32
        E 15 ba 05 32
        E 15 ba 05 32
        E 15 ba 05 32
        E 15 ba 05 32
        E 15 ba 05 32
        E 15 ba 05 32
        E 15 ba 05 32
        E 15 ba 05 32
        E 15 ba 05 31
        E 15 ba 05 31
        E 15 ba 05 30
        E 15 ba 05 30
        E 15 ba 05 2f
        E 15 ba 05 2e
        E 15 ba 05 2e
        E 15 ba 05 2d
        E 15 ba 05 2c
        E 15 ba 05 2c
        E 15 ba 05 2b
        E 15 ba 05 2a
        E 15 ba 05 29
        E 15 ba 05 28
        E 15 ba 05 27
        E 15 ba 05 26
        E 15 ba 05 24
        E 15 ba 05 23
        E 15 ba 05 22
        E 15 ba 05 21
        E 15 ba 05 20
        E 15 ba 05 1f
        E 15 ba 05 1d
        E 15 ba 05 1c
        E 15 ba 05 1b
        E 15 ba 05 1a
        E 15 ba 05 18
        E 15 ba 05 17
        E 15 ba 05 16
        E 15 ba 05 15
        E 15 ba 05 13
        E 15 ba 05 12
        E 15 ba 05 11
        E 15 ba 05 10
        E 15 ba 05 0f
        E 15 ba 05 0e
        E 15 ba 05 0c
        E 15 ba 05 0b
        E 15 ba 05 0a
        E 15 ba 05 09
        E 15 ba 05 08
        E 15 ba 05 07
        E 15 ba 05 06
        E 15 ba 05 06
        E 15 ba 05 05
        E 15 ba 05 04
        E 15 ba 05 04
        E 15 ba 05 03
        E 15 ba 05 02
        E 15 ba 05 02
        E 15 ba 05 01
        E 15 ba 05 01
        E 15 ba 05 00
        E 15 ba 05 00
        E 15 ba 05 00
        E 15 ba 05 00
        E 15 ba 05 00
        E 15 ba 05 00
        E 15 ba 05 00
        E 15 ba 05 00
        E 15 ba 05 00
        E 15 ba 05 00
        E 15 ba 05 00
        E 15 ba 05 01
        E 15 ba 05 01
        E 15 ba 05 02
        E 15 ba 05 02
        E 15 ba 05 02
        E 15 ba 05 03
        E 15 ba 05 04
        E 15 ba 05 04
        E 15 ba 05 05
        E 15 ba 05 06
        E 15 ba 05 07
        E 15 ba 05 08
        E 15 ba 05 09
        E 15 ba 05 0a
        E 15 ba 05 0b
        E 15 ba 05 0c
        E 15 ba 05 0d
        E 15 ba 05 0e
        E 15 ba 05 0f
        E 15 ba 05 10
        E 15 ba 05 12
        E 15 ba 05 13
        E 15 ba 05 14
        E 15 ba 05 15
        E 15 ba 05 16
        E 15 ba 05 18
        E 15 ba 05 19
        E 8 ba 05 2c
        E 8 ba 05 2e
        E 8 ba 05 31
        E 8 ba 05 33
        E 8 ba 05 35
        E 8 ba 05 37
        E 8 ba 05 39
        E 8 ba 05 3b
        E 8 ba 05 3d
        E 8 ba 05 3f
        E 8 ba 05 41
        E 8 ba 05 43
        E 8 ba 05 45
        E 8 ba 05 47
        E 8 ba 05 48
        E 8 ba 05 4a
        E 8 ba 05 4c
        E 8 ba 05 4d
        E 8 ba 05 4f
        E 8 ba 05 50
        E 8 ba 05 51
        E 8 ba 05 52
        E 8 ba 05 54
        E 8 ba 05 54
        E 8 ba 05 55
        E 8 ba 05 56
        E 8 ba 05 56
        E 8 ba 05 57
        E 8 ba 05 58
        E 8 ba 05 58
        E 8 ba 05 58
        E 8 ba 05 58
        E 8 ba 05 58
        E 8 ba 05 58
        E 8 ba 05 58
        E 8 ba 05 58
        E 8 ba 05 58
        E 8 ba 05 57
        E 8 ba 05 56
        E 8 ba 05 56
        E 8 ba 05 55
        E 8 ba 05 54
        E 8 ba 05 53
        E 8 ba 05 51
        E 8 ba 05 51
        E 8 ba 05 4f
        E 8 ba 05 4e
        E 8 ba 05 4d
        E 8 ba 05 4b
        E 8 ba 05 49
        E 8 ba 05 48
        E 8 ba 05 46
        E 8 ba 05 44
        E 8 ba 05 42
        E 8 ba 05 40
        E 8 ba 05 3e
        E 8 ba 05 3c
        E 8 ba 05 3a
        E 8 ba 05 38
        E 8 ba 05 36
        E 8 ba 05 33
        E 8 ba 05 31
        E 8 ba 05 2f
        E 8 ba 05 2d
        E 8 ba 05 2b
        E 8 ba 05 29
        E 8 ba 05 27
        E 8 ba 05 25
        E 8 ba 05 22
        E 8 ba 05 20
        E 8 ba 05 1e
        E 8 ba 05 1c
        E 8 ba 05 1a
        E 8 ba 05 18
        E 8 ba 05 16
        E 8 ba 05 14
        E 8 ba 05 12
        E 8 ba 05 10
        E 8 ba 05 0f
        E 8 ba 05 0d
        E 8 ba 05 0b
        E 8 ba 05 0a
        E 8 ba 05 09
        E 8 ba 05 07
        E 8 ba 05 07
        E 8 ba 05 05
        E 8 ba 05 04
        E 8 ba 05 03
        E 8 ba 05 02
        E 8 ba 05 02
        E 8 ba 05 01
        E 8 ba 05 00
        E 8 ba 05 00
        E 8 ba 05 00
        E 8 ba 05 00
        E 8 ba 05 00
        E 8 ba 05 00
        E 8 ba 05 00
        E 8 ba 05 00
        E 8 ba 05 00
        E 8 ba 05 01
        E 8 ba 05 02
        E 8 ba 05 02
        E 8 ba 05 03
        E 8 ba 05 04
        E 8 ba 05 04
        E 8 ba 05 06
        E 8 ba 05 07
        E 8 ba 05 08
        E 8 ba 05 09
        E 8 ba 05 0b
        E 8 ba 05 0c
        E 8 ba 05 0e
        E 8 ba 05 10
        E 8 ba 05 11
        E 8 ba 05 13
        E 8 ba 05 15
        E 8 ba 05 17
        E 8 ba 05 19
        E 8 ba 05 1b
        E 8 ba 05 1d
        E 8 ba 05 1f
        E 8 ba 05 21
        E 8 ba 05 23
        E 8 ba 05 25
        E 8 ba 05 27
        E 8 ba 05 2a
        E 8 ba 05 2c
        E 8 ba 05 20
        E 8 ba 05 21
        E 8 ba 05 23
        E 8 ba 05 24
        E 8 ba 05 26
        E 8 ba 05 27
        E 8 ba 05 29
        E 8 ba 05 2a
        E 8 ba 05 2c
        E 8 ba 05 2d
        E 8 ba 05 2f
        E 8 ba 05 30
        E 8 ba 05 31
        E 8 ba 05 33
        E 8 ba 05 34
        E 8 ba 05 35
        E 8 ba 05 36
        E 8 ba 05 37
        E 8 ba 05 38
        E 8 ba 05 39
        E 8 ba 05 3a
        E 8 ba 05 3b
        E 8 ba 05 3c
        E 8 ba 05 3c
        E 8 ba 05 3d
        E 8 ba 05 3d
        E 8 ba 05 3e
        E 8 ba 05 3e
        E 8 ba 05 3f
        E 8 ba 05 3f
        E 8 ba 05 3f
        E 8 ba 05 3f
        E 8 ba 05 3f
        E 8 ba 05 3f
        E 8 ba 05 3f
        E 8 ba 05 3f
        E 8 ba 05 3f
        E 8 ba 05 3e
        E 8 ba 05 3e
        E 8 ba 05 3d
        E 8 ba 05 3d
        E 8 ba 05 3c
        E 8 ba 05 3b
        E 8 ba 05 3a
        E 8 ba 05 3a
        E 8 ba 05 39
        E 8 ba 05 38
        E 8 ba 05 37
        E 8 ba 05 36
        E 8 ba 05 34
        E 8 ba 05 33
        E 8 ba 05 32
        E 8 ba 05 31
        E 8 ba 05 2f
        E 8 ba 05 2e
        E 8 ba 05 2c
        E 8 ba 05 2b
        E 8 ba 05 2a
        E 8 ba 05 28
        E 8 ba 05 27
        E 8 ba 05 25
        E 8 ba 05 23
        E 8 ba 05 22
        E 8 ba 05 20
        E 8 ba 05 1f
        E 8 ba 05 1d
        E 8 ba 05 1c
        E 8 ba 05 1a
        E 8 ba 05 18
        E 8 ba 05 17
        E 8 ba 05 15
        E 8 ba 05 14
        E 8 ba 05 13
        E 8 ba 05 11
        E 8 ba 05 10
        E 8 ba 05 0e
        E 8 ba 05 0d
        E 8 ba 05 0c
        E 8 ba 05 0b
        E 8 ba 05 09
        E 8 ba 05 08
        E 8 ba 05 07
        E 8 ba 05 06
        E 8 ba 05 05
        E 8 ba 05 05
        E 8 ba 05 04
        E 8 ba 05 03
        E 8 ba 05 02
        E 8 ba 05 02
        E 8 ba 05 01
        E 8 ba 05 01
        E 8 ba 05 00
        E 8 ba 05 00
        E 8 ba 05 00
        E 8 ba 05 00
        E 8 ba 05 00
        E 8 ba 05 00
        E 8 ba 05 00
        E 8 ba 05 00
        E 8 ba 05 00
        E 8 ba 05 01
        E 8 ba 05 01
        E 8 ba 05 02
        E 8 ba 05 02
        E 8 ba 05 03
        E 8 ba 05 03
        E 8 ba 05 04
        E 8 ba 05 05
        E 8 ba 05 06
        E 8 ba 05 07
        E 8 ba 05 08
        E 8 ba 05 09
        E 8 ba 05 0a
        E 8 ba 05 0b
        E 8 ba 05 0c
        E 8 ba 05 0e
        E 8 ba 05 0f
        E 8 ba 05 10
        E 8 ba 05 12
        E 8 ba 05 13
        E 8 ba 05 15
        E 8 ba 05 16
        E 8 ba 05 18
        E 8 ba 05 19
        E 8 ba 05 1b
        E 8 ba 05 1c
        E 8 ba 05 1e
        E 8 ba 05 20
        E 11 ba 05 20
        E 11 ba 05 21
        E 11 ba 05 23
        E 11 ba 05 24
        E 11 ba 05 26
        E 11 ba 05 27
        E 11 ba 05 29
        E 11 ba 05 2a
        E 11 ba 05 2c
        E 11 ba 05 2d
        E 11 ba 05 2f
        E 11 ba 05 30
        E 11 ba 05 31
        E 11 ba 05 33
        E 11 ba 05 34
        E 11 ba 05 35
        E 11 ba 05 36
        E 11 ba 05 37
        E 11 ba 05 38
        E 11 ba 05 39
        E 11 ba 05 3a
        E 11 ba 05 3b
        E 11 ba 05 3c
        E 11 ba 05 3c
        E 11 ba 05 3d
        E 11 ba 05 3d
        E 11 ba 05 3e
        E 11 ba 05 3e
        E 11 ba 05 3f
        E 11 ba 05 3f
        E 11 ba 05 3f
        E 11 ba 05 3f
        E 11 ba 05 3f
        E 11 ba 05 3f
        E 11 ba 05 3f
        E 11 ba 05 3f
        E 11 ba 05 3f
        E 11 ba 05 3e
        E 11 ba 05 3e
        E 11 ba 05 3d
        E 11 ba 05 3d
        E 11 ba 05 3c
        E 11 ba 05 3b
        E 11 ba 05 3a
        E 11 ba 05 3a
        E 11 ba 05 39
        E 11 ba 05 38
        E 11 ba 05 37
        E 11 ba 05 36
        E 11 ba 05 34
        E 11 ba 05 33
        E 11 ba 05 32
        E 11 ba 05 31
        E 11 ba 05 2f
        E 11 ba 05 2e
        E 11 ba 05 2c
        E 11 ba 05 2b
        E 11 ba 05 2a
        E 11 ba 05 28
        E 11 ba 05 27
        E 11 ba 05 25
        E 11 ba 05 23
        E 11 ba 05 22
        E 11 ba 05 20
        E 11 ba 05 1f
        E 11 ba 05 1d
        E 11 ba 05 1c
        E 11 ba 05 1a
        E 11 ba 05 18
        E 11 ba 05 17
        E 11 ba 05 15
        E 11 ba 05 14
        E 11 ba 05 13
        E 11 ba 05 11
        E 11 ba 05 10
        E 11 ba 05 0e
        E 11 ba 05 0d
        E 11 ba 05 0c
        E 11 ba 05 0b
        E 11 ba 05 09
        E 11 ba 05 08
        E 11 ba 05 07
        E 11 ba 05 06
        E 11 ba 05 05
        E 11 ba 05 05
        E 11 ba 05 04
        E 11 ba 05 03
        E 11 ba 05 02
        E 11 ba 05 02
        E 11 ba 05 01
        E 11 ba 05 01
        E 11 ba 05 00
        E 11 ba 05 00
        E 11 ba 05 00
        E 11 ba 05 00
        E 11 ba 05 00
        E 11 ba 05 00
        E 11 ba 05 00
        E 11 ba 05 00
        E 11 ba 05 00
        E 11 ba 05 01
        E 11 ba 05 01
        E 11 ba 05 02
        E 11 ba 05 02
        E 11 ba 05 03
        E 11 ba 05 03
        E 11 ba 05 04
        E 11 ba 05 05
        E 11 ba 05 06
        E 11 ba 05 07
        E 11 ba 05 08
        E 11 ba 05 09
        E 11 ba 05 0a
        E 11 ba 05 0b
        E 11 ba 05 0c
        E 11 ba 05 0e
        E 11 ba 05 0f
        E 11 ba 05 10
        E 11 ba 05 12
        E 11 ba 05 13
        E 11 ba 05 15
        E 11 ba 05 16
        E 11 ba 05 18
        E 11 ba 05 19
        E 11 ba 05 1b
        E 11 ba 05 1c
        E 11 ba 05 1e
        E 11 ba 05 20
        E 13 ba 05 40
        E 13 ba 05 43
        E 13 ba 05 46
        E 13 ba 05 49
        E 13 ba 05 4c
        E 13 ba 05 4f
        E 13 ba 05 52
        E 13 ba 05 55
        E 13 ba 05 58
        E 13 ba 05 5b
        E 13 ba 05 5e
        E 13 ba 05 60
        E 13 ba 05 63
        E 13 ba 05 66
        E 13 ba 05 68
        E 13 ba 05 6a
        E 13 ba 05 6d
        E 13 ba 05 6f
        E 13 ba 05 71
        E 13 ba 05 73
        E 13 ba 05 75
        E 13 ba 05 76
        E 13 ba 05 78
        E 13 ba 05 79
        E 13 ba 05 7a
        E 13 ba 05 7b
        E 13 ba 05 7c
        E 13 ba 05 7d
        E 13 ba 05 7e
        E 13 ba 05 7e
        E 13 ba 05 7f
        E 13 ba 05 7f
        E 13 ba 05 7f
        E 13 ba 05 7f
        E 13 ba 05 7f
        E 13 ba 05 7e
        E 13 ba 05 7e
        E 13 ba 05 7d
        E 13 ba 05 7c
        E 13 ba 05 7b
        E 13 ba 05 7a
        E 13 ba 05 78
        E 13 ba 05 77
        E 13 ba 05 75
        E 13 ba 05 74
        E 13 ba 05 72
        E 13 ba 05 70
        E 13 ba 05 6e
        E 13 ba 05 6c
        E 13 ba 05 69
        E 13 ba 05 67
        E 13 ba 05 64
        E 13 ba 05 62
        E 13 ba 05 5f
        E 13 ba 05 5c
        E 13 ba 05 59
        E 13 ba 05 57
        E 13 ba 05 54
        E 13 ba 05 51
        E 13 ba 05 4e
        E 13 ba 05 4a
        E 13 ba 05 47
        E 13 ba 05 44
        E 13 ba 05 41
        E 13 ba 05 3e
        E 13 ba 05 3b
        E 13 ba 05 38
        E 13 ba 05 35
        E 13 ba 05 31
        E 13 ba 05 2e
        E 13 ba 05 2b
        E 13 ba 05 28
        E 13 ba 05 26
        E 13 ba 05 23
        E 13 ba 05 20
        E 13 ba 05 1d
        E 13 ba 05 1b
        E 13 ba 05 18
        E 13 ba 05 16
        E 13 ba 05 13
        E 13 ba 05 11
        E 13 ba 05 0f
        E 13 ba 05 0d
        E 13 ba 05 0b
        E 13 ba 05 0a
        E 13 ba 05 08
        E 13 ba 05 07
        E 13 ba 05 05
        E 13 ba 05 04
        E 13 ba 05 03
        E 13 ba 05 02
        E 13 ba 05 01
        E 13 ba 05 01
        E 13 ba 05 00
        E 13 ba 05 00
        E 13 ba 05 00
        E 13 ba 05 00
        E 13 ba 05 00
        E 13 ba 05 01
        E 13 ba 05 01
        E 13 ba 05 02
        E 13 ba 05 03
        E 13 ba 05 04
        E 13 ba 05 05
        E 13 ba 05 06
        E 13 ba 05 07
        E 13 ba 05 09
        E 13 ba 05 0a
        E 13 ba 05 0c
        E 13 ba 05 0e
        E 13 ba 05 10
        E 13 ba 05 12
        E 13 ba 05 15
        E 13 ba 05 17
        E 13 ba 05 19
        E 13 ba 05 1c
        E 13 ba 05 1f
        E 13 ba 05 21
        E 13 ba 05 24
        E 13 ba 05 27
        E 13 ba 05 2a
        E 13 ba 05 2d
        E 13 ba 05 30
        E 13 ba 05 33
        E 13 ba 05 36
        E 13 ba 05 39
        E 13 ba 05 3c
        E 13 ba 05 40
        E 1 ba 05 39
        E 1 ba 05 3c
        E 1 ba 05 3f
        E 1 ba 05 41
        E 1 ba 05 44
        E 1 ba 05 47
        E 1 ba 05 49
        E 1 ba 05 4c
        E 1 ba 05 4f
        E 1 ba 05 51
        E 1 ba 05 54
        E 1 ba 05 56
        E 1 ba 05 59
        E 1 ba 05 5b
        E 1 ba 05 5d
        E 1 ba 05 5f
        E 1 ba 05 62
        E 1 ba 05 63
        E 1 ba 05 65
        E 1 ba 05 67
        E 1 ba 05 69
        E 1 ba 05 6a
        E 1 ba 05 6c
        E 1 ba 05 6c
        E 1 ba 05 6d
        E 1 ba 05 6e
        E 1 ba 05 6f
        E 1 ba 05 70
        E 1 ba 05 71
        E 1 ba 05 71
        E 1 ba 05 72
        E 1 ba 05 72
        E 1 ba 05 72
        E 1 ba 05 72
        E 1 ba 05 72
        E 1 ba 05 71
        E 1 ba 05 71
        E 1 ba 05 70
        E 1 ba 05 6f
        E 1 ba 05 6e
        E 1 ba 05 6d
        E 1 ba 05 6c
        E 1 ba 05 6b
        E 1 ba 05 69
        E 1 ba 05 68
        E 1 ba 05 66
        E 1 ba 05 64
        E 1 ba 05 63
        E 1 ba 05 61
        E 1 ba 05 5e
        E 1 ba 05 5c
        E 1 ba 05 5a
        E 1 ba 05 58
        E 1 ba 05 55
        E 1 ba 05 52
        E 1 ba 05 50
        E 1 ba 05 4e
        E 1 ba 05 4b
        E 1 ba 05 48
        E 1 ba 05 46
        E 1 ba 05 42
        E 1 ba 05 3f
        E 1 ba 05 3d
        E 1 ba 05 3a
        E 1 ba 05 37
        E 1 ba 05 35
        E 1 ba 05 32
        E 1 ba 05 2f
        E 1 ba 05 2c
        E 1 ba 05 29
        E 1 ba 05 26
        E 1 ba 05 24
        E 1 ba 05 22
        E 1 ba 05 1f
        E 1 ba 05 1c
        E 1 ba 05 1a
        E 1 ba 05 18
        E 1 ba 05 15
        E 1 ba 05 13
        E 1 ba 05 11
        E 1 ba 05 0f
        E 1 ba 05 0d
        E 1 ba 05 0b
        E 1 ba 05 09
        E 1 ba 05 09
        E 1 ba 05 07
        E 1 ba 05 06
        E 1 ba 05 04
        E 1 ba 05 03
        E 1 ba 05 02
        E 1 ba 05 01
        E 1 ba 05 00
        E 1 ba 05 00
        E 1 ba 05 00
        E 1 ba 05 00
        E 1 ba 05 00
        E 1 ba 05 00
        E 1 ba 05 00
        E 1 ba 05 00
        E 1 ba 05 00
        E 1 ba 05 01
        E 1 ba 05 02
        E 1 ba 05 03
        E 1 ba 05 04
        E 1 ba 05 05
        E 1 ba 05 06
        E 1 ba 05 08
        E 1 ba 05 09
        E 1 ba 05 0a
        E 1 ba 05 0c
        E 1 ba 05 0e
        E 1 ba 05 10
        E 1 ba 05 12
        E 1 ba 05 14
        E 1 ba 05 16
        E 1 ba 05 19
        E 1 ba 05 1b
        E 1 ba 05 1d
        E 1 ba 05 20
        E 1 ba 05 23
        E 1 ba 05 25
        E 1 ba 05 28
        E 1 ba 05 2b
        E 1 ba 05 2d
        E 1 ba 05 30
        E 1 ba 05 33
        E 1 ba 05 36
        E 1 ba 05 39
        E 6 ba 05 40
        E 6 ba 05 43
        E 6 ba 05 46
        E 6 ba 05 49
        E 6 ba 05 4c
        E 6 ba 05 4f
        E 6 ba 05 52
        E 6 ba 05 55
        E 6 ba 05 58
        E 6 ba 05 5b
        E 6 ba 05 5e
        E 6 ba 05 60
        E 6 ba 05 63
        E 6 ba 05 66
        E 6 ba 05 68
        E 6 ba 05 6a
        E 6 ba 05 6d
        E 6 ba 05 6f
        E 6 ba 05 71
        E 6 ba 05 73
        E 6 ba 05 75
        E 6 ba 05 76
        E 6 ba 05 78
        E 6 ba 05 79
        E 6 ba 05 7a
        E 6 ba 05 7b
        E 6 ba 05 7c
        E 6 ba 05 7d
        E 6 ba 05 7e
        E 6 ba 05 7e
        E 6 ba 05 7f
        E 6 ba 05 7f
        E 6 ba 05 7f
        E 6 ba 05 7f
        E 6 ba 05 7f
        E 6 ba 05 7e
        E 6 ba 05 7e
        E 6 ba 05 7d
        E 6 ba 05 7c
        E 6 ba 05 7b
        E 6 ba 05 7a
        E 6 ba 05 78
        E 6 ba 05 77
        E 6 ba 05 75
        E 6 ba 05 74
        E 6 ba 05 72
        E 6 ba 05 70
        E 6 ba 05 6e
        E 6 ba 05 6c
        E 6 ba 05 69
        E 6 ba 05 67
        E 6 ba 05 64
        E 6 ba 05 62
        E 6 ba 05 5f
        E 6 ba 05 5c
        E 6 ba 05 59
        E 6 ba 05 57
        E 6 ba 05 54
        E 6 ba 05 51
        E 6 ba 05 4e
        E 6 ba 05 4a
        E 6 ba 05 47
        E 6 ba 05 44
        E 6 ba 05 41
        E 6 ba 05 3e
        E 6 ba 05 3b
        E 6 ba 05 38
        E 6 ba 05 35
        E 6 ba 05 31
        E 6 ba 05 2e
        E 6 ba 05 2b
        E 6 ba 05 28
        E 6 ba 05 26
        E 6 ba 05 23
        E 6 ba 05 20
        E 6 ba 05 1d
        E 6 ba 05 1b
        E 6 ba 05 18
        E 6 ba 05 16
        E 6 ba 05 13
        E 6 ba 05 11
        E 6 ba 05 0f
        E 6 ba 05 0d
        E 6 ba 05 0b
        E 6 ba 05 0a
        E 6 ba 05 08
        E 6 ba 05 07
        E 6 ba 05 05
        E 6 ba 05 04
        E 6 ba 05 03
        E 6 ba 05 02
        E 6 ba 05 01
        E 6 ba 05 01
        E 6 ba 05 00
        E 6 ba 05 00
        E 6 ba 05 00
        E 6 ba 05 00
        E 6 ba 05 00
        E 6 ba 05 01
        E 6 ba 05 01
        E 6 ba 05 02
        E 6 ba 05 03
        E 6 ba 05 04
        E 6 ba 05 05
        E 6 ba 05 06
        E 6 ba 05 07
        E 6 ba 05 09
        E 6 ba 05 0a
        E 6 ba 05 0c
        E 6 ba 05 0e
        E 6 ba 05 10
        E 6 ba 05 12
        E 6 ba 05 15
        E 6 ba 05 17
        E 6 ba 05 19
        E 6 ba 05 1c
        E 6 ba 05 1f
        E 6 ba 05 21
        E 6 ba 05 24
        E 6 ba 05 27
        E 6 ba 05 2a
        E 6 ba 05 2d
        E 6 ba 05 30
        E 6 ba 05 33
        E 6 ba 05 36
        E 6 ba 05 39
        E 6 ba 05 3c
        E 6 ba 05 40
        E 11 ba 05 39
        E 11 ba 05 3c
        E 11 ba 05 3f
        E 11 ba 05 41
        E 11 ba 05 44
        E 11 ba 05 47
        E 11 ba 05 49
        E 11 ba 05 4c
        E 11 ba 05 4f
        E 11 ba 05 51
        E 11 ba 05 54
        E 11 ba 05 56
        E 11 ba 05 59
        E 11 ba 05 5b
        E 11 ba 05 5d
        E 11 ba 05 5f
        E 11 ba 05 62
        E 11 ba 05 63
        E 11 ba 05 65
        E 11 ba 05 67
        E 11 ba 05 69
        E 11 ba 05 6a
        E 11 ba 05 6c
        E 11 ba 05 6c
        E 11 ba 05 6d
        E 11 ba 05 6e
        E 11 ba 05 6f
        E 11 ba 05 70
        E 11 ba 05 71
        E 11 ba 05 71
        E 11 ba 05 72
        E 11 ba 05 72
        E 11 ba 05 72
        E 11 ba 05 72
        E 11 ba 05 72
        E 11 ba 05 71
        E 11 ba 05 71
        E 11 ba 05 70
        E 11 ba 05 6f
        E 11 ba 05 6e
        E 11 ba 05 6d
        E 11 ba 05 6c
        E 11 ba 05 6b
        E 11 ba 05 69
        E 11 ba 05 68
        E 11 ba 05 66
        E 11 ba 05 64
        E 11 ba 05 63
        E 11 ba 05 61
        E 11 ba 05 5e
        E 11 ba 05 5c
        E 11 ba 05 5a
        E 11 ba 05 58
        E 11 ba 05 55
        E 11 ba 05 52
        E 11 ba 05 50
        E 11 ba 05 4e
        E 11 ba 05 4b
        E 11 ba 05 48
        E 11 ba 05 46
        E 11 ba 05 42
        E 11 ba 05 3f
        E 11 ba 05 3d
        E 11 ba 05 3a
        E 11 ba 05 37
        E 11 ba 05 35
        E 11 ba 05 32
        E 11 ba 05 2f
        E 11 ba 05 2c
        E 11 ba 05 29
        E 11 ba 05 26
        E 11 ba 05 24
        E 11 ba 05 22
        E 11 ba 05 1f
        E 11 ba 05 1c
        E 11 ba 05 1a
        E 11 ba 05 18
        E 11 ba 05 15
        E 11 ba 05 13
        E 11 ba 05 11
        E 11 ba 05 0f
        E 11 ba 05 0d
        E 11 ba 05 0b
        E 11 ba 05 09
        E 11 ba 05 09
        E 11 ba 05 07
        E 11 ba 05 06
        E 11 ba 05 04
        E 11 ba 05 03
        E 11 ba 05 02
        E 11 ba 05 01
        E 11 ba 05 00
        E 11 ba 05 00
        E 11 ba 05 00
        E 11 ba 05 00
        E 11 ba 05 00
        E 11 ba 05 00
        E 11 ba 05 00
        E 11 ba 05 00
        E 11 ba 05 00
        E 11 ba 05 01
        E 11 ba 05 02
        E 11 ba 05 03
        E 11 ba 05 04
        E 11 ba 05 05
        E 11 ba 05 06
        E 11 ba 05 08
        E 11 ba 05 09
        E 11 ba 05 0a
        E 11 ba 05 0c
        E 11 ba 05 0e
        E 11 ba 05 10
        E 11 ba 05 12
        E 11 ba 05 14
        E 11 ba 05 16
        E 11 ba 05 19
        E 11 ba 05 1b
        E 11 ba 05 1d
        E 11 ba 05 20
        E 11 ba 05 23
        E 11 ba 05 25
        E 11 ba 05 28
        E 11 ba 05 2b
        E 11 ba 05 2d
        E 11 ba 05 30
        E 11 ba 05 33
        E 11 ba 05 36
        E 11 ba 05 39
        E 8 ba 05 20
        E 8 ba 05 21
        E 8 ba 05 23
        E 8 ba 05 24
        E 8 ba 05 26
        E 8 ba 05 27
        E 8 ba 05 29
        E 8 ba 05 2a
        E 8 ba 05 2c
        E 8 ba 05 2d
        E 8 ba 05 2f
        E 8 ba 05 30
        E 8 ba 05 31
        E 8 ba 05 33
        E 8 ba 05 34
        E 8 ba 05 35
        E 8 ba 05 36
        E 8 ba 05 37
        E 8 ba 05 38
        E 8 ba 05 39
        E 8 ba 05 3a
        E 8 ba 05 3b
        E 8 ba 05 3c
        E 8 ba 05 3c
        E 8 ba 05 3d
        E 8 ba 05 3d
        E 8 ba 05 3e
        E 8 ba 05 3e
        E 8 ba 05 3f
        E 8 ba 05 3f
        E 8 ba 05 3f
        E 8 ba 05 3f
        E 8 ba 05 3f
        E 8 ba 05 3f
        E 8 ba 05 3f
        E 8 ba 05 3f
        E 8 ba 05 3f
        E 8 ba 05 3e
        E 8 ba 05 3e
        E 8 ba 05 3d
        E 8 ba 05 3d
        E 8 ba 05 3c
        E 8 ba 05 3b
        E 8 ba 05 3a
        E 8 ba 05 3a
        E 8 ba 05 39
        E 8 ba 05 38
        E 8 ba 05 37
        E 8 ba 05 36
        E 8 ba 05 34
        E 8 ba 05 33
        E 8 ba 05 32
        E 8 ba 05 31
        E 8 ba 05 2f
        E 8 ba 05 2e
        E 8 ba 05 2c
        E 8 ba 05 2b
        E 8 ba 05 2a
        E 8 ba 05 28
        E 8 ba 05 27
        E 8 ba 05 25
        E 8 ba 05 23
        E 8 ba 05 22
        E 8 ba 05 20
        E 8 ba 05 1f
        E 8 ba 05 1d
        E 8 ba 05 1c
        E 8 ba 05 1a
        E 8 ba 05 18
        E 8 ba 05 17
        E 8 ba 05 15
        E 8 ba 05 14
        E 8 ba 05 13
        E 8 ba 05 11
        E 8 ba 05 10
        E 8 ba 05 0e
        E 8 ba 05 0d
        E 8 ba 05 0c
        E 8 ba 05 0b
        E 8 ba 05 09
        E 8 ba 05 08
        E 8 ba 05 07
        E 8 ba 05 06
        E 8 ba 05 05
        E 8 ba 05 05
        E 8 ba 05 04
        E 8 ba 05 03
        E 8 ba 05 02
        E 8 ba 05 02
        E 8 ba 05 01
        E 8 ba 05 01
        E 8 ba 05 00
        E 8 ba 05 00
        E 8 ba 05 00
        E 8 ba 05 00
        E 8 ba 05 00
        E 8 ba 05 00
        E 8 ba 05 00
        E 8 ba 05 00
        E 8 ba 05 00
        E 8 ba 05 01
        E 8 ba 05 01
        E 8 ba 05 02
        E 8 ba 05 02
        E 8 ba 05 03
        E 8 ba 05 03
        E 8 ba 05 04
        E 8 ba 05 05
        E 8 ba 05 06
        E 8 ba 05 07
        E 8 ba 05 08
        E 8 ba 05 09
        E 8 ba 05 0a
        E 8 ba 05 0b
        E 8 ba 05 0c
        E 8 ba 05 0e
        E 8 ba 05 0f
        E 8 ba 05 10
        E 8 ba 05 12
        E 8 ba 05 13
        E 8 ba 05 15
        E 8 ba 05 16
        E 8 ba 05 18
        E 8 ba 05 19
        E 8 ba 05 1b
        E 8 ba 05 1c
        E 8 ba 05 1e
        E 8 ba 05 20
        E 8 ba 05 20
        E 8 ba 05 21
        E 8 ba 05 23
        E 8 ba 05 24
        E 8 ba 05 26
        E 8 ba 05 27
        E 8 ba 05 29
        E 8 ba 05 2a
        E 8 ba 05 2c
        E 8 ba 05 2d
        E 8 ba 05 2f
        E 8 ba 05 30
        E 8 ba 05 31
        E 8 ba 05 33
        E 8 ba 05 34
        E 8 ba 05 35
        E 8 ba 05 36
        E 8 ba 05 37
        E 8 ba 05 38
        E 8 ba 05 39
        E 8 ba 05 3a
        E 8 ba 05 3b
        E 8 ba 05 3c
        E 8 ba 05 3c
        E 8 ba 05 3d
        E 8 ba 05 3d
        E 8 ba 05 3e
        E 8 ba 05 3e
        E 8 ba 05 3f
        E 8 ba 05 3f
        E 8 ba 05 3f
        E 8 ba 05 3f
        E 8 ba 05 3f
        E 8 ba 05 3f
        E 8 ba 05 3f
        E 8 ba 05 3f
        E 8 ba 05 3f
        E 8 ba 05 3e
        E 8 ba 05 3e
        E 8 ba 05 3d
        E 8 ba 05 3d
        E 8 ba 05 3c
        E 8 ba 05 3b
        E 8 ba 05 3a
        E 8 ba 05 3a
        E 8 ba 05 39
        E 8 ba 05 38
        E 8 ba 05 37
        E 8 ba 05 36
        E 8 ba 05 34
        E 8 ba 05 33
        E 8 ba 05 32
        E 8 ba 05 31
        E 8 ba 05 2f
        E 8 ba 05 2e
        E 8 ba 05 2c
        E 8 ba 05 2b
        E 8 ba 05 2a
        E 8 ba 05 28
        E 8 ba 05 27
        E 8 ba 05 25
        E 8 ba 05 23
        E 8 ba 05 22
        E 8 ba 05 20
        E 8 ba 05 1f
        E 8 ba 05 1d
        E 8 ba 05 1c
        E 8 ba 05 1a
        E 8 ba 05 18
        E 8 ba 05 17
        E 8 ba 05 15
        E 8 ba 05 14
        E 8 ba 05 13
        E 8 ba 05 11
        E 8 ba 05 10
        E 8 ba 05 0e
        E 8 ba 05 0d
        E 8 ba 05 0c
        E 8 ba 05 0b
        E 8 ba 05 09
        E 8 ba 05 08
        E 8 ba 05 07
        E 8 ba 05 06
        E 8 ba 05 05
        E 8 ba 05 05
        E 8 ba 05 04
        E 8 ba 05 03
        E 8 ba 05 02
        E 8 ba 05 02
        E 8 ba 05 01
        E 8 ba 05 01
        E 8 ba 05 00
        E 8 ba 05 00
        E 8 ba 05 00
        E 8 ba 05 00
        E 8 ba 05 00
        E 8 ba 05 00
        E 8 ba 05 00
        E 8 ba 05 00
        E 8 ba 05 00
        E 8 ba 05 01
        E 8 ba 05 01
        E 8 ba 05 02
        E 8 ba 05 02
        E 8 ba 05 03
        E 8 ba 05 03
        E 8 ba 05 04
        E 8 ba 05 05
        E 8 ba 05 06
        E 8 ba 05 07
        E 8 ba 05 08
        E 8 ba 05 09
        E 8 ba 05 0a
        E 8 ba 05 0b
        E 8 ba 05 0c
        E 8 ba 05 0e
        E 8 ba 05 0f
        E 8 ba 05 10
        E 8 ba 05 12
        E 8 ba 05 13
        E 8 ba 05 15
        E 8 ba 05 16
        E 8 ba 05 18
        E 8 ba 05 19
        E 8 ba 05 1b
        E 8 ba 05 1c
        E 8 ba 05 1e
        E 8 ba 05 20
        E 17 ba 05 2c
        E 17 ba 05 2e
        E 17 ba 05 31
        E 17 ba 05 33
        E 17 ba 05 35
        E 17 ba 05 37
        E 17 ba 05 39
        E 17 ba 05 3b
        E 17 ba 05 3d
        E 17 ba 05 3f
        E 17 ba 05 41
        E 17 ba 05 43
        E 17 ba 05 45
        E 17 ba 05 47
        E 17 ba 05 48
        E 17 ba 05 4a
        E 17 ba 05 4c
        E 17 ba 05 4d
        E 17 ba 05 4f
        E 17 ba 05 50
        E 17 ba 05 51
        E 17 ba 05 52
        E 17 ba 05 54
        E 17 ba 05 54
        E 17 ba 05 55
        E 17 ba 05 56
        E 17 ba 05 56
        E 17 ba 05 57
        E 17 ba 05 58
        E 17 ba 05 58
        E 17 ba 05 58
        E 17 ba 05 58
        E 17 ba 05 58
        E 17 ba 05 58
        E 17 ba 05 58
        E 17 ba 05 58
        E 17 ba 05 58
        E 17 ba 05 57
        E 17 ba 05 56
        E 17 ba 05 56
        E 17 ba 05 55
        E 17 ba 05 54
        E 17 ba 05 53
        E 17 ba 05 51
        E 17 ba 05 51
        E 17 ba 05 4f
        E 17 ba 05 4e
        E 17 ba 05 4d
        E 17 ba 05 4b
        E 17 ba 05 49
        E 17 ba 05 48
        E 17 ba 05 46
        E 17 ba 05 44
        E 17 ba 05 42
        E 17 ba 05 40
        E 17 ba 05 3e
        E 17 ba 05 3c
        E 17 ba 05 3a
        E 17 ba 05 38
        E 17 ba 05 36
        E 17 ba 05 33
        E 17 ba 05 31
        E 17 ba 05 2f
        E 17 ba 05 2d
        E 17 ba 05 2b
        E 17 ba 05 29
        E 17 ba 05 27
        E 17 ba 05 25
        E 17 ba 05 22
        E 17 ba 05 20
        E 17 ba 05 1e
        E 17 ba 05 1c
        E 17 ba 05 1a
        E 17 ba 05 18
        E 17 ba 05 16
        E 17 ba 05 14
        E 17 ba 05 12
        E 17 ba 05 10
        E 17 ba 05 0f
        E 17 ba 05 0d
        E 17 ba 05 0b
        E 17 ba 05 0a
        E 17 ba 05 09
        E 17 ba 05 07
        E 17 ba 05 07
        E 17 ba 05 05
        E 17 ba 05 04
        E 17 ba 05 03
        E 17 ba 05 02
        E 17 ba 05 02
        E 17 ba 05 01
        E 17 ba 05 00
        E 17 ba 05 00
        E 17 ba 05 00
        E 17 ba 05 00
        E 17 ba 05 00
        E 17 ba 05 00
        E 17 ba 05 00
        E 17 ba 05 00
        E 17 ba 05 00
        E 17 ba 05 01
        E 17 ba 05 02
        E 17 ba 05 02
        E 17 ba 05 03
        E 17 ba 05 04
        E 17 ba 05 04
        E 17 ba 05 06
        E 17 ba 05 07
        E 17 ba 05 08
        E 17 ba 05 09
        E 17 ba 05 0b
        E 17 ba 05 0c
        E 17 ba 05 0e
        E 17 ba 05 10
        E 17 ba 05 11
        E 17 ba 05 13
        E 17 ba 05 15
        E 17 ba 05 17
        E 17 ba 05 19
        E 17 ba 05 1b
        E 17 ba 05 1d
        E 17 ba 05 1f
        E 17 ba 05 21
        E 17 ba 05 23
        E 17 ba 05 25
        E 17 ba 05 27
        E 17 ba 05 2a
        E 17 ba 05 2c
        E 15 ba 05 33
        E 15 ba 05 35
        E 15 ba 05 37
        E 15 ba 05 3a
        E 15 ba 05 3c
        E 15 ba 05 3f
        E 15 ba 05 41
        E 15 ba 05 44
        E 15 ba 05 46
        E 15 ba 05 48
        E 15 ba 05 4b
        E 15 ba 05 4c
        E 15 ba 05 4f
        E 15 ba 05 51
        E 15 ba 05 53
        E 15 ba 05 54
        E 15 ba 05 57
        E 15 ba 05 58
        E 15 ba 05 5a
        E 15 ba 05 5b
        E 15 ba 05 5d
        E 15 ba 05 5e
        E 15 ba 05 5f
        E 15 ba 05 60
        E 15 ba 05 61
        E 15 ba 05 62
        E 15 ba 05 63
        E 15 ba 05 63
        E 15 ba 05 64
        E 15 ba 05 64
        E 15 ba 05 65
        E 15 ba 05 65
        E 15 ba 05 65
        E 15 ba 05 65
        E 15 ba 05 65
        E 15 ba 05 64
        E 15 ba 05 64
        E 15 ba 05 63
        E 15 ba 05 63
        E 15 ba 05 62
        E 15 ba 05 61
        E 15 ba 05 5f
        E 15 ba 05 5f
        E 15 ba 05 5d
        E 15 ba 05 5c
        E 15 ba 05 5b
        E 15 ba 05 59
        E 15 ba 05 57
        E 15 ba 05 56
        E 15 ba 05 54
        E 15 ba 05 52
        E 15 ba 05 50
        E 15 ba 05 4e
        E 15 ba 05 4c
        E 15 ba 05 49
        E 15 ba 05 47
        E 15 ba 05 45
        E 15 ba 05 43
        E 15 ba 05 40
        E 15 ba 05 3e
        E 15 ba 05 3b
        E 15 ba 05 38
        E 15 ba 05 36
        E 15 ba 05 33
        E 15 ba 05 31
        E 15 ba 05 2f
        E 15 ba 05 2c
        E 15 ba 05 2a
        E 15 ba 05 27
        E 15 ba 05 24
        E 15 ba 05 22
        E 15 ba 05 1f
        E 15 ba 05 1e
        E 15 ba 05 1b
        E 15 ba 05 19
        E 15 ba 05 17
        E 15 ba 05 15
        E 15 ba 05 13
        E 15 ba 05 11
        E 15 ba 05 0f
        E 15 ba 05 0d
        E 15 ba 05 0b
        E 15 ba 05 0a
        E 15 ba 05 08
        E 15 ba 05 07
        E 15 ba 05 06
        E 15 ba 05 05
        E 15 ba 05 03
        E 15 ba 05 03
        E 15 ba 05 02
        E 15 ba 05 01
        E 15 ba 05 00
        E 15 ba 05 00
        E 15 ba 05 00
        E 15 ba 05 00
        E 15 ba 05 00
        E 15 ba 05 00
        E 15 ba 05 00
        E 15 ba 05 00
        E 15 ba 05 00
        E 15 ba 05 01
        E 15 ba 05 02
        E 15 ba 05 03
        E 15 ba 05 03
        E 15 ba 05 04
        E 15 ba 05 05
        E 15 ba 05 07
        E 15 ba 05 07
        E 15 ba 05 09
        E 15 ba 05 0b
        E 15 ba 05 0c
        E 15 ba 05 0e
        E 15 ba 05 10
        E 15 ba 05 12
        E 15 ba 05 14
        E 15 ba 05 16
        E 15 ba 05 18
        E 15 ba 05 1a
        E 15 ba 05 1c
        E 15 ba 05 1f
        E 15 ba 05 21
        E 15 ba 05 24
        E 15 ba 05 26
        E 15 ba 05 28
        E 15 ba 05 2b
        E 15 ba 05 2d
        E 15 ba 05 2f
        E 15 ba 05 33
        E 17 ba 05 06
        E 17 ba 05 06
        E 17 ba 05 07
        E 17 ba 05 07
        E 17 ba 05 07
        E 17 ba 05 07
        E 17 ba 05 08
        E 17 ba 05 08
        E 17 ba 05 08
        E 17 ba 05 09
        E 17 ba 05 09
        E 17 ba 05 09
        E 17 ba 05 09
        E 17 ba 05 0a
        E 17 ba 05 0a
        E 17 ba 05 0a
        E 17 ba 05 0a
        E 17 ba 05 0b
        E 17 ba 05 0b
        E 17 ba 05 0b
        E 17 ba 05 0b
        E 17 ba 05 0b
        E 17 ba 05 0c
        E 17 ba 05 0c
        E 17 ba 05 0c
        E 17 ba 05 0c
        E 17 ba 05 0c
        E 17 ba 05 0c
        E 17 ba 05 0c
        E 17 ba 05 0c
        E 17 ba 05 0c
        E 17 ba 05 0c
        E 17 ba 05 0c
        E 17 ba 05 0c
        E 17 ba 05 0c
        E 17 ba 05 0c
        E 17 ba 05 0c
        E 17 ba 05 0c
        E 17 ba 05 0c
        E 17 ba 05 0c
        E 17 ba 05 0c
        E 17 ba 05 0c
        E 17 ba 05 0b
        E 17 ba 05 0b
        E 17 ba 05 0b
        E 17 ba 05 0b
        E 17 ba 05 0b
        E 17 ba 05 0b
        E 17 ba 05 0a
        E 17 ba 05 0a
        E 17 ba 05 0a
        E 17 ba 05 0a
        E 17 ba 05 09
        E 17 ba 05 09
        E 17 ba 05 09
        E 17 ba 05 08
        E 17 ba 05 08
        E 17 ba 05 08
        E 17 ba 05 08
        E 17 ba 05 07
        E 17 ba 05 07
        E 17 ba 05 07
        E 17 ba 05 06
        E 17 ba 05 06
        E 17 ba 05 06
        E 17 ba 05 05
        E 17 ba 05 05
        E 17 ba 05 05
        E 17 ba 05 04
        E 17 ba 05 04
        E 17 ba 05 04
        E 17 ba 05 04
        E 17 ba 05 03
        E 17 ba 05 03
        E 17 ba 05 03
        E 17 ba 05 02
        E 17 ba 05 02
        E 17 ba 05 02
        E 17 ba 05 02
        E 17 ba 05 01
        E 17 ba 05 01
        E 17 ba 05 01
        E 17 ba 05 01
        E 17 ba 05 01
        E 17 ba 05 01
        E 17 ba 05 00
        E 17 ba 05 00
        E 17 ba 05 00
        E 17 ba 05 00
        E 17 ba 05 00
        E 17 ba 05 00
        E 17 ba 05 00
        E 17 ba 05 00
        E 17 ba 05 00
        E 17 ba 05 00
        E 17 ba 05 00
        E 17 ba 05 00
        E 17 ba 05 00
        E 17 ba 05 00
        E 17 ba 05 00
        E 17 ba 05 00
        E 17 ba 05 00
        E 17 ba 05 00
        E 17 ba 05 00
        E 17 ba 05 00
        E 17 ba 05 00
        E 17 ba 05 00
        E 17 ba 05 01
        E 17 ba 05 01
        E 17 ba 05 01
        E 17 ba 05 01
        E 17 ba 05 01
        E 17 ba 05 02
        E 17 ba 05 02
        E 17 ba 05 02
        E 17 ba 05 02
        E 17 ba 05 03
        E 17 ba 05 03
        E 17 ba 05 03
        E 17 ba 05 03
        E 17 ba 05 04
        E 17 ba 05 04
        E 17 ba 05 04
        E 17 ba 05 05
        E 17 ba 05 05
        E 17 ba 05 05
        E 17 ba 05 06
        E 17 ba 05 06
        E 15 ba 05 19
        E 15 ba 05 1a
        E 15 ba 05 1c
        E 15 ba 05 1d
        E 15 ba 05 1e
        E 15 ba 05 1f
        E 15 ba 05 20
        E 15 ba 05 22
        E 15 ba 05 23
        E 15 ba 05 24
        E 15 ba 05 25
        E 15 ba 05 26
        E 15 ba 05 27
        E 15 ba 05 28
        E 15 ba 05 29
        E 15 ba 05 2a
        E 15 ba 05 2b
        E 15 ba 05 2c
        E 15 ba 05 2d
        E 15 ba 05 2e
        E 15 ba 05 2e
        E 15 ba 05 2f
        E 15 ba 05 30
        E 15 ba 05 30
        E 15 ba 05 30
        E 15 ba 05 31
        E 15 ba 05 31
        E 15 ba 05 32
        E 15 ba 05 32
        E 15 ba 05 32
        E 15 ba 05 32
        E 15 ba 05 32
        E 15 ba 05 32
        E 15 ba 05 32
        E 15 ba 05 32
        E 15 ba 05 32
        E 15 ba 05 32
        E 15 ba 05 32
        E 15 ba 05 31
        E 15 ba 05 31
        E 15 ba 05 30
        E 15 ba 05 30
        E 15 ba 05 2f
        E 15 ba 05 2e
        E 15 ba 05 2e
        E 15 ba 05 2d
        E 15 ba 05 2c
        E 15 ba 05 2c
        E 15 ba 05 2b
        E 15 ba 05 2a
        E 15 ba 05 29
        E 15 ba 05 28
        E 15 ba 05 27
        E 15 ba 05 26
        E 15 ba 05 24
        E 15 ba 05 23
        E 15 ba 05 22
        E 15 ba 05 21
        E 15 ba 05 20
        E 15 ba 05 1f
        E 15 ba 05 1d
        E 15 ba 05 1c
        E 15 ba 05 1b
        E 15 ba 05 1a
        E 15 ba 05 18
        E 15 ba 05 17
        E 15 ba 05 16
        E 15 ba 05 15
        E 15 ba 05 13
        E 15 ba 05 12
        E 15 ba 05 11
        E 15 ba 05 10
        E 15 ba 05 0f
        E 15 ba 05 0e
        E 15 ba 05 0c
        E 15 ba 05 0b
        E 15 ba 05 0a
        E 15 ba 05 09
        E 15 ba 05 08
        E 15 ba 05 07
        E 15 ba 05 06
        E 15 ba 05 06
        E 15 ba 05 05
        E 15 ba 05 04
        E 15 ba 05 04
        E 15 ba 05 03
        E 15 ba 05 02
        E 15 ba 05 02
        E 15 ba 05 01
        E 15 ba 05 01
        E 15 ba 05 00
        E 15 ba 05 00
        E 15 ba 05 00
        E 15 ba 05 00
        E 15 ba 05 00
        E 15 ba 05 00
        E 15 ba 05 00
        E 15 ba 05 00
        E 15 ba 05 00
        E 15 ba 05 00
        E 15 ba 05 00
        E 15 ba 05 01
        E 15 ba 05 01
        E 15 ba 05 02
        E 15 ba 05 02
        E 15 ba 05 02
        E 15 ba 05 03
        E 15 ba 05 04
        E 15 ba 05 04
        E 15 ba 05 05
        E 15 ba 05 06
        E 15 ba 05 07
        E 15 ba 05 08
        E 15 ba 05 09
        E 15 ba 05 0a
        E 15 ba 05 0b
        E 15 ba 05 0c
        E 15 ba 05 0d
        E 15 ba 05 0e
        E 15 ba 05 0f
        E 15 ba 05 10
        E 15 ba 05 12
        E 15 ba 05 13
        E 15 ba 05 14
        E 15 ba 05 15
        E 15 ba 05 16
        E 15 ba 05 18
        E 15 ba 05 19
        E 8 ba 05 2c
        E 8 ba 05 2e
        E 8 ba 05 31
        E 8 ba 05 33
        E 8 ba 05 35
        E 8 ba 05 37
        E 8 ba 05 39
        E 8 ba 05 3b
        E 8 ba 05 3d
        E 8 ba 05 3f
        E 8 ba 05 41
        E 8 ba 05 43
        E 8 ba 05 45
        E 8 ba 05 47
        E 8 ba 05 48
        E 8 ba 05 4a
        E 8 ba 05 4c
        E 8 ba 05 4d
        E 8 ba 05 4f
        E 8 ba 05 50
        E 8 ba 05 51
        E 8 ba 05 52
        E 8 ba 05 54
        E 8 ba 05 54
        E 8 ba 05 55
        E 8 ba 05 56
        E 8 ba 05 56
        E 8 ba 05 57
        E 8 ba 05 58
        E 8 ba 05 58
        E 8 ba 05 58
        E 8 ba 05 58
        E 8 ba 05 58
        E 8 ba 05 58
        E 8 ba 05 58
        E 8 ba 05 58
        E 8 ba 05 58
        E 8 ba 05 57
        E 8 ba 05 56
        E 8 ba 05 56
        E 8 ba 05 55
        E 8 ba 05 54
        E 8 ba 05 53
        E 8 ba 05 51
        E 8 ba 05 51
        E 8 ba 05 4f
        E 8 ba 05 4e
        E 8 ba 05 4d
        E 8 ba 05 4b
        E 8 ba 05 49
        E 8 ba 05 48
        E 8 ba 05 46
        E 8 ba 05 44
        E 8 ba 05 42
        E 8 ba 05 40
        E 8 ba 05 3e
        E 8 ba 05 3c
        E 8 ba 05 3a
        E 8 ba 05 38
        E 8 ba 05 36
        E 8 ba 05 33
        E 8 ba 05 31
        E 8 ba 05 2f
        E 8 ba 05 2d
        E 8 ba 05 2b
        E 8 ba 05 29
        E 8 ba 05 27
        E 8 ba 05 25
        E 8 ba 05 22
        E 8 ba 05 20
        E 8 ba 05 1e
        E 8 ba 05 1c
        E 8 ba 05 1a
        E 8 ba 05 18
        E 8 ba 05 16
        E 8 ba 05 14
        E 8 ba 05 12
        E 8 ba 05 10
        E 8 ba 05 0f
        E 8 ba 05 0d
        E 8 ba 05 0b
        E 8 ba 05 0a
        E 8 ba 05 09
        E 8 ba 05 07
        E 8 ba 05 07
        E 8 ba 05 05
        E 8 ba 05 04
        E 8 ba 05 03
        E 8 ba 05 02
        E 8 ba 05 02
        E 8 ba 05 01
        E 8 ba 05 00
        E 8 ba 05 00
        E 8 ba 05 00
        E 8 ba 05 00
        E 8 ba 05 00
        E 8 ba 05 00
        E 8 ba 05 00
        E 8 ba 05 00
        E 8 ba 05 00
        E 8 ba 05 01
        E 8 ba 05 02
        E 8 ba 05 02
        E 8 ba 05 03
        E 8 ba 05 04
        E 8 ba 05 04
        E 8 ba 05 06
        E 8 ba 05 07
        E 8 ba 05 08
        E 8 ba 05 09
        E 8 ba 05 0b
        E 8 ba 05 0c
        E 8 ba 05 0e
        E 8 ba 05 10
        E 8 ba 05 11
        E 8 ba 05 13
        E 8 ba 05 15
        E 8 ba 05 17
        E 8 ba 05 19
        E 8 ba 05 1b
        E 8 ba 05 1d
        E 8 ba 05 1f
        E 8 ba 05 21
        E 8 ba 05 23
        E 8 ba 05 25
        E 8 ba 05 27
        E 8 ba 05 2a
        E 8 ba 05 2c
        E 8 ba 05 20
        E 8 ba 05 21
        E 8 ba 05 23
        E 8 ba 05 24
        E 8 ba 05 26
        E 8 ba 05 27
        E 8 ba 05 29
        E 8 ba 05 2a
        E 8 ba 05 2c
        E 8 ba 05 2d
        E 8 ba 05 2f
        E 8 ba 05 30
        E 8 ba 05 31
        E 8 ba 05 33
        E 8 ba 05 34
        E 8 ba 05 35
        E 8 ba 05 36
        E 8 ba 05 37
        E 8 ba 05 38
        E 8 ba 05 39
        E 8 ba 05 3a
        E 8 ba 05 3b
        E 8 ba 05 3c
        E 8 ba 05 3c
        E 8 ba 05 3d
        E 8 ba 05 3d
        E 8 ba 05 3e
        E 8 ba 05 3e
        E 8 ba 05 3f
        E 8 ba 05 3f
        E 8 ba 05 3f
        E 8 ba 05 3f
        E 8 ba 05 3f
        E 8 ba 05 3f
        E 8 ba 05 3f
        E 8 ba 05 3f
        E 8 ba 05 3f
        E 8 ba 05 3e
        E 8 ba 05 3e
        E 8 ba 05 3d
        E 8 ba 05 3d
        E 8 ba 05 3c
        E 8 ba 05 3b
        E 8 ba 05 3a
        E 8 ba 05 3a
        E 8 ba 05 39
        E 8 ba 05 38
        E 8 ba 05 37
        E 8 ba 05 36
        E 8 ba 05 34
        E 8 ba 05 33
        E 8 ba 05 32
        E 8 ba 05 31
        E 8 ba 05 2f
        E 8 ba 05 2e
        E 8 ba 05 2c
        E 8 ba 05 2b
        E 8 ba 05 2a
        E 8 ba 05 28
        E 8 ba 05 27
        E 8 ba 05 25
        E 8 ba 05 23
        E 8 ba 05 22
        E 8 ba 05 20
        E 8 ba 05 1f
        E 8 ba 05 1d
        E 8 ba 05 1c
        E 8 ba 05 1a
        E 8 ba 05 18
        E 8 ba 05 17
        E 8 ba 05 15
        E 8 ba 05 14
        E 8 ba 05 13
        E 8 ba 05 11
        E 8 ba 05 10
        E 8 ba 05 0e
        E 8 ba 05 0d
        E 8 ba 05 0c
        E 8 ba 05 0b
        E 8 ba 05 09
        E 8 ba 05 08
        E 8 ba 05 07
        E 8 ba 05 06
        E 8 ba 05 05
        E 8 ba 05 05
        E 8 ba 05 04
        E 8 ba 05 03
        E 8 ba 05 02
        E 8 ba 05 02
        E 8 ba 05 01
        E 8 ba 05 01
        E 8 ba 05 00
        E 8 ba 05 00
        E 8 ba 05 00
        E 8 ba 05 00
        E 8 ba 05 00
        E 8 ba 05 00
        E 8 ba 05 00
        E 8 ba 05 00
        E 8 ba 05 00
        E 8 ba 05 01
        E 8 ba 05 01
        E 8 ba 05 02
        E 8 ba 05 02
        E 8 ba 05 03
        E 8 ba 05 03
        E 8 ba 05 04
        E 8 ba 05 05
        E 8 ba 05 06
        E 8 ba 05 07
        E 8 ba 05 08
        E 8 ba 05 09
        E 8 ba 05 0a
        E 8 ba 05 0b
        E 8 ba 05 0c
        E 8 ba 05 0e
        E 8 ba 05 0f
        E 8 ba 05 10
        E 8 ba 05 12
        E 8 ba 05 13
        E 8 ba 05 15
        E 8 ba 05 16
        E 8 ba 05 18
        E 8 ba 05 19
        E 8 ba 05 1b
        E 8 ba 05 1c
        E 8 ba 05 1e
        E 8 ba 05 20
        E 11 ba 05 20
        E 11 ba 05 21
        E 11 ba 05 23
        E 11 ba 05 24
        E 11 ba 05 26
        E 11 ba 05 27
        E 11 ba 05 29
        E 11 ba 05 2a
        E 11 ba 05 2c
        E 11 ba 05 2d
        E 11 ba 05 2f
        E 11 ba 05 30
        E 11 ba 05 31
        E 11 ba 05 33
        E 11 ba 05 34
        E 11 ba 05 35
        E 11 ba 05 36
        E 11 ba 05 37
        E 11 ba 05 38
        E 11 ba 05 39
        E 11 ba 05 3a
        E 11 ba 05 3b
        E 11 ba 05 3c
        E 11 ba 05 3c
        E 11 ba 05 3d
        E 11 ba 05 3d
        E 11 ba 05 3e
        E 11 ba 05 3e
        E 11 ba 05 3f
        E 11 ba 05 3f
        E 11 ba 05 3f
        E 11 ba 05 3f
        E 11 ba 05 3f
        E 11 ba 05 3f
        E 11 ba 05 3f
        E 11 ba 05 3f
        E 11 ba 05 3f
        E 11 ba 05 3e
        E 11 ba 05 3e
        E 11 ba 05 3d
        E 11 ba 05 3d
        E 11 ba 05 3c
        E 11 ba 05 3b
        E 11 ba 05 3a
        E 11 ba 05 3a
        E 11 ba 05 39
        E 11 ba 05 38
        E 11 ba 05 37
        E 11 ba 05 36
        E 11 ba 05 34
        E 11 ba 05 33
        E 11 ba 05 32
        E 11 ba 05 31
        E 11 ba 05 2f
        E 11 ba 05 2e
        E 11 ba 05 2c
        E 11 ba 05 2b
        E 11 ba 05 2a
        E 11 ba 05 28
        E 11 ba 05 27
        E 11 ba 05 25
        E 11 ba 05 23
        E 11 ba 05 22
        E 11 ba 05 20
        E 11 ba 05 1f
        E 11 ba 05 1d
        E 11 ba 05 1c
        E 11 ba 05 1a
        E 11 ba 05 18
        E 11 ba 05 17
        E 11 ba 05 15
        E 11 ba 05 14
        E 11 ba 05 13
        E 11 ba 05 11
        E 11 ba 05 10
        E 11 ba 05 0e
        E 11 ba 05 0d
        E 11 ba 05 0c
        E 11 ba 05 0b
        E 11 ba 05 09
        E 11 ba 05 08
        E 11 ba 05 07
        E 11 ba 05 06
        E 11 ba 05 05
        E 11 ba 05 05
        E 11 ba 05 04
        E 11 ba 05 03
        E 11 ba 05 02
        E 11 ba 05 02
        E 11 ba 05 01
        E 11 ba 05 01
        E 11 ba 05 00
        E 11 ba 05 00
        E 11 ba 05 00
        E 11 ba 05 00
        E 11 ba 05 00
        E 11 ba 05 00
        E 11 ba 05 00
        E 11 ba 05 00
        E 11 ba 05 00
        E 11 ba 05 01
        E 11 ba 05 01
        E 11 ba 05 02
        E 11 ba 05 02
        E 11 ba 05 03
        E 11 ba 05 03
        E 11 ba 05 04
        E 11 ba 05 05
        E 11 ba 05 06
        E 11 ba 05 07
        E 11 ba 05 08
        E 11 ba 05 09
        E 11 ba 05 0a
        E 11 ba 05 0b
        E 11 ba 05 0c
        E 11 ba 05 0e
        E 11 ba 05 0f
        E 11 ba 05 10
        E 11 ba 05 12
        E 11 ba 05 13
        E 11 ba 05 15
        E 11 ba 05 16
        E 11 ba 05 18
        E 11 ba 05 19
        E 11 ba 05 1b
        E 11 ba 05 1c
        E 11 ba 05 1e
        E 11 ba 05 20
        E 13 ba 05 40
        E 13 ba 05 43
        E 13 ba 05 46
        E 13 ba 05 49
        E 13 ba 05 4c
        E 13 ba 05 4f
        E 13 ba 05 52
        E 13 ba 05 55
        E 13 ba 05 58
        E 13 ba 05 5b
        E 13 ba 05 5e
        E 13 ba 05 60
        E 13 ba 05 63
        E 13 ba 05 66
        E 13 ba 05 68
        E 13 ba 05 6a
        E 13 ba 05 6d
        E 13 ba 05 6f
        E 13 ba 05 71
        E 13 ba 05 73
        E 13 ba 05 75
        E 13 ba 05 76
        E 13 ba 05 78
        E 13 ba 05 79
        E 13 ba 05 7a
        E 13 ba 05 7b
        E 13 ba 05 7c
        E 13 ba 05 7d
        E 13 ba 05 7e
        E 13 ba 05 7e
        E 13 ba 05 7f
        E 13 ba 05 7f
        E 13 ba 05 7f
        E 13 ba 05 7f
        E 13 ba 05 7f
        E 13 ba 05 7e
        E 13 ba 05 7e
        E 13 ba 05 7d
        E 13 ba 05 7c
        E 13 ba 05 7b
        E 13 ba 05 7a
        E 13 ba 05 78
        E 13 ba 05 77
        E 13 ba 05 75
        E 13 ba 05 74
        E 13 ba 05 72
        E 13 ba 05 70
        E 13 ba 05 6e
        E 13 ba 05 6c
        E 13 ba 05 69
        E 13 ba 05 67
        E 13 ba 05 64
        E 13 ba 05 62
        E 13 ba 05 5f
        E 13 ba 05 5c
        E 13 ba 05 59
        E 13 ba 05 57
        E 13 ba 05 54
        E 13 ba 05 51
        E 13 ba 05 4e
        E 13 ba 05 4a
        E 13 ba 05 47
        E 13 ba 05 44
        E 13 ba 05 41
        E 13 ba 05 3e
        E 13 ba 05 3b
        E 13 ba 05 38
        E 13 ba 05 35
        E 13 ba 05 31
        E 13 ba 05 2e
        E 13 ba 05 2b
        E 13 ba 05 28
        E 13 ba 05 26
        E 13 ba 05 23
        E 13 ba 05 20
        E 13 ba 05 1d
        E 13 ba 05 1b
        E 13 ba 05 18
        E 13 ba 05 16
        E 13 ba 05 13
        E 13 ba 05 11
        E 13 ba 05 0f
        E 13 ba 05 0d
        E 13 ba 05 0b
        E 13 ba 05 0a
        E 13 ba 05 08
        E 13 ba 05 07
        E 13 ba 05 05
        E 13 ba 05 04
        E 13 ba 05 03
        E 13 ba 05 02
        E 13 ba 05 01
        E 13 ba 05 01
        E 13 ba 05 00
        E 13 ba 05 00
        E 13 ba 05 00
        E 13 ba 05 00
        E 13 ba 05 00
        E 13 ba 05 01
        E 13 ba 05 01
        E 13 ba 05 02
        E 13 ba 05 03
        E 13 ba 05 04
        E 13 ba 05 05
        E 13 ba 05 06
        E 13 ba 05 07
        E 13 ba 05 09
        E 13 ba 05 0a
        E 13 ba 05 0c
        E 13 ba 05 0e
        E 13 ba 05 10
        E 13 ba 05 12
        E 13 ba 05 15
        E 13 ba 05 17
        E 13 ba 05 19
        E 13 ba 05 1c
        E 13 ba 05 1f
        E 13 ba 05 21
        E 13 ba 05 24
        E 13 ba 05 27
        E 13 ba 05 2a
        E 13 ba 05 2d
        E 13 ba 05 30
        E 13 ba 05 33
        E 13 ba 05 36
        E 13 ba 05 39
        E 13 ba 05 3c
        E 13 ba 05 40
        E 11 ba 05 39
        E 11 ba 05 3c
        E 11 ba 05 3f
        E 11 ba 05 41
        E 11 ba 05 44
        E 11 ba 05 47
        E 11 ba 05 49
        E 11 ba 05 4c
        E 11 ba 05 4f
        E 11 ba 05 51
        E 11 ba 05 54
        E 11 ba 05 56
        E 11 ba 05 59
        E 11 ba 05 5b
        E 11 ba 05 5d
        E 11 ba 05 5f
        E 11 ba 05 62
        E 11 ba 05 63
        E 11 ba 05 65
        E 11 ba 05 67
        E 11 ba 05 69
        E 11 ba 05 6a
        E 11 ba 05 6c
        E 11 ba 05 6c
        E 11 ba 05 6d
        E 11 ba 05 6e
        E 11 ba 05 6f
        E 11 ba 05 70
        E 11 ba 05 71
        E 11 ba 05 71
        E 11 ba 05 72
        E 11 ba 05 72
        E 11 ba 05 72
        E 11 ba 05 72
        E 11 ba 05 72
        E 11 ba 05 71
        E 11 ba 05 71
        E 11 ba 05 70
        E 11 ba 05 6f
        E 11 ba 05 6e
        E 11 ba 05 6d
        E 11 ba 05 6c
        E 11 ba 05 6b
        E 11 ba 05 69
        E 11 ba 05 68
        E 11 ba 05 66
        E 11 ba 05 64
        E 11 ba 05 63
        E 11 ba 05 61
        E 11 ba 05 5e
        E 11 ba 05 5c
        E 11 ba 05 5a
        E 11 ba 05 58
        E 11 ba 05 55
        E 11 ba 05 52
        E 11 ba 05 50
        E 11 ba 05 4e
        E 11 ba 05 4b
        E 11 ba 05 48
        E 11 ba 05 46
        E 11 ba 05 42
        E 11 ba 05 3f
        E 11 ba 05 3d
        E 11 ba 05 3a
        E 11 ba 05 37
        E 11 ba 05 35
        E 11 ba 05 32
        E 11 ba 05 2f
        E 11 ba 05 2c
        E 11 ba 05 29
        E 11 ba 05 26
        E 11 ba 05 24
        E 11 ba 05 22
        E 11 ba 05 1f
        E 11 ba 05 1c
        E 11 ba 05 1a
        E 11 ba 05 18
        E 11 ba 05 15
        E 11 ba 05 13
        E 11 ba 05 11
        E 11 ba 05 0f
        E 11 ba 05 0d
        E 11 ba 05 0b
        E 11 ba 05 09
        E 11 ba 05 09
        E 11 ba 05 07
        E 11 ba 05 06
        E 11 ba 05 04
        E 11 ba 05 03
        E 11 ba 05 02
        E 11 ba 05 01
        E 11 ba 05 00
        E 11 ba 05 00
        E 11 ba 05 00
        E 11 ba 05 00
        E 11 ba 05 00
        E 11 ba 05 00
        E 11 ba 05 00
        E 11 ba 05 00
        E 11 ba 05 00
        E 11 ba 05 01
        E 11 ba 05 02
        E 11 ba 05 03
        E 11 ba 05 04
        E 11 ba 05 05
        E 11 ba 05 06
        E 11 ba 05 08
        E 11 ba 05 09
        E 11 ba 05 0a
        E 11 ba 05 0c
        E 11 ba 05 0e
        E 11 ba 05 10
        E 11 ba 05 12
        E 11 ba 05 14
        E 11 ba 05 16
        E 11 ba 05 19
        E 11 ba 05 1b
        E 11 ba 05 1d
        E 11 ba 05 20
        E 11 ba 05 23
        E 11 ba 05 25
        E 11 ba 05 28
        E 11 ba 05 2b
        E 11 ba 05 2d
        E 11 ba 05 30
        E 11 ba 05 33
        E 11 ba 05 36
        E 11 ba 05 39
        E 8 ba 05 20
        E 8 ba 05 21
        E 8 ba 05 23
        E 8 ba 05 24
        E 8 ba 05 26
        E 8 ba 05 27
        E 8 ba 05 29
        E 8 ba 05 2a
        E 8 ba 05 2c
        E 8 ba 05 2d
        E 8 ba 05 2f
        E 8 ba 05 30
        E 8 ba 05 31
        E 8 ba 05 33
        E 8 ba 05 34
        E 8 ba 05 35
        E 8 ba 05 36
        E 8 ba 05 37
        E 8 ba 05 38
        E 8 ba 05 39
        E 8 ba 05 3a
        E 8 ba 05 3b
        E 8 ba 05 3c
        E 8 ba 05 3c
        E 8 ba 05 3d
        E 8 ba 05 3d
        E 8 ba 05 3e
        E 8 ba 05 3e
        E 8 ba 05 3f
        E 8 ba 05 3f
        E 8 ba 05 3f
        E 8 ba 05 3f
        E 8 ba 05 3f
        E 8 ba 05 3f
        E 8 ba 05 3f
        E 8 ba 05 3f
        E 8 ba 05 3f
        E 8 ba 05 3e
        E 8 ba 05 3e
        E 8 ba 05 3d
        E 8 ba 05 3d
        E 8 ba 05 3c
        E 8 ba 05 3b
        E 8 ba 05 3a
        E 8 ba 05 3a
        E 8 ba 05 39
        E 8 ba 05 38
        E 8 ba 05 37
        E 8 ba 05 36
        E 8 ba 05 34
        E 8 ba 05 33
        E 8 ba 05 32
        E 8 ba 05 31
        E 8 ba 05 2f
        E 8 ba 05 2e
        E 8 ba 05 2c
        E 8 ba 05 2b
        E 8 ba 05 2a
        E 8 ba 05 28
        E 8 ba 05 27
        E 8 ba 05 25
        E 8 ba 05 23
        E 8 ba 05 22
        E 8 ba 05 20
        E 8 ba 05 1f
        E 8 ba 05 1d
        E 8 ba 05 1c
        E 8 ba 05 1a
        E 8 ba 05 18
        E 8 ba 05 17
        E 8 ba 05 15
        E 8 ba 05 14
        E 8 ba 05 13
        E 8 ba 05 11
        E 8 ba 05 10
        E 8 ba 05 0e
        E 8 ba 05 0d
        E 8 ba 05 0c
        E 8 ba 05 0b
        E 8 ba 05 09
        E 8 ba 05 08
        E 8 ba 05 07
        E 8 ba 05 06
        E 8 ba 05 05
        E 8 ba 05 05
        E 8 ba 05 04
        E 8 ba 05 03
        E 8 ba 05 02
        E 8 ba 05 02
        E 8 ba 05 01
        E 8 ba 05 01
        E 8 ba 05 00
        E 8 ba 05 00
        E 8 ba 05 00
        E 8 ba 05 00
        E 8 ba 05 00
        E 8 ba 05 00
        E 8 ba 05 00
        E 8 ba 05 00
        E 8 ba 05 00
        E 8 ba 05 01
        E 8 ba 05 01
        E 8 ba 05 02
        E 8 ba 05 02
        E 8 ba 05 03
        E 8 ba 05 03
        E 8 ba 05 04
        E 8 ba 05 05
        E 8 ba 05 06
        E 8 ba 05 07
        E 8 ba 05 08
        E 8 ba 05 09
        E 8 ba 05 0a
        E 8 ba 05 0b
        E 8 ba 05 0c
        E 8 ba 05 0e
        E 8 ba 05 0f
        E 8 ba 05 10
        E 8 ba 05 12
        E 8 ba 05 13
        E 8 ba 05 15
        E 8 ba 05 16
        E 8 ba 05 18
        E 8 ba 05 19
        E 8 ba 05 1b
        E 8 ba 05 1c
        E 8 ba 05 1e
        E 8 ba 05 20
        E 8 ba 05 20
        E 8 ba 05 21
        E 8 ba 05 23
        E 8 ba 05 24
        E 8 ba 05 26
        E 8 ba 05 27
        E 8 ba 05 29
        E 8 ba 05 2a
        E 8 ba 05 2c
        E 8 ba 05 2d
        E 8 ba 05 2f
        E 8 ba 05 30
        E 8 ba 05 31
        E 8 ba 05 33
        E 8 ba 05 34
        E 8 ba 05 35
        E 8 ba 05 36
        E 8 ba 05 37
        E 8 ba 05 38
        E 8 ba 05 39
        E 8 ba 05 3a
        E 8 ba 05 3b
        E 8 ba 05 3c
        E 8 ba 05 3c
        E 8 ba 05 3d
        E 8 ba 05 3d
        E 8 ba 05 3e
        E 8 ba 05 3e
        E 8 ba 05 3f
        E 8 ba 05 3f
        E 8 ba 05 3f
        E 8 ba 05 3f
        E 8 ba 05 3f
        E 8 ba 05 3f
        E 8 ba 05 3f
        E 8 ba 05 3f
        E 8 ba 05 3f
        E 8 ba 05 3e
        E 8 ba 05 3e
        E 8 ba 05 3d
        E 8 ba 05 3d
        E 8 ba 05 3c
        E 8 ba 05 3b
        E 8 ba 05 3a
        E 8 ba 05 3a
        E 8 ba 05 39
        E 8 ba 05 38
        E 8 ba 05 37
        E 8 ba 05 36
        E 8 ba 05 34
        E 8 ba 05 33
        E 8 ba 05 32
        E 8 ba 05 31
        E 8 ba 05 2f
        E 8 ba 05 2e
        E 8 ba 05 2c
        E 8 ba 05 2b
        E 8 ba 05 2a
        E 8 ba 05 28
        E 8 ba 05 27
        E 8 ba 05 25
        E 8 ba 05 23
        E 8 ba 05 22
        E 8 ba 05 20
        E 8 ba 05 1f
        E 8 ba 05 1d
        E 8 ba 05 1c
        E 8 ba 05 1a
        E 8 ba 05 18
        E 8 ba 05 17
        E 8 ba 05 15
        E 8 ba 05 14
        E 8 ba 05 13
        E 8 ba 05 11
        E 8 ba 05 10
        E 8 ba 05 0e
        E 8 ba 05 0d
        E 8 ba 05 0c
        E 8 ba 05 0b
        E 8 ba 05 09
        E 8 ba 05 08
        E 8 ba 05 07
        E 8 ba 05 06
        E 8 ba 05 05
        E 8 ba 05 05
        E 8 ba 05 04
        E 8 ba 05 03
        E 8 ba 05 02
        E 8 ba 05 02
        E 8 ba 05 01
        E 8 ba 05 01
        E 8 ba 05 00
        E 8 ba 05 00
        E 8 ba 05 00
        E 8 ba 05 00
        E 8 ba 05 00
        E 8 ba 05 00
        E 8 ba 05 00
        E 8 ba 05 00
        E 8 ba 05 00
        E 8 ba 05 01
        E 8 ba 05 01
        E 8 ba 05 02
        E 8 ba 05 02
        E 8 ba 05 03
        E 8 ba 05 03
        E 8 ba 05 04
        E 8 ba 05 05
        E 8 ba 05 06
        E 8 ba 05 07
        E 8 ba 05 08
        E 8 ba 05 09
        E 8 ba 05 0a
        E 8 ba 05 0b
        E 8 ba 05 0c
        E 8 ba 05 0e
        E 8 ba 05 0f
        E 8 ba 05 10
        E 8 ba 05 12
        E 8 ba 05 13
        E 8 ba 05 15
        E 8 ba 05 16
        E 8 ba 05 18
        E 8 ba 05 19
        E 8 ba 05 1b
        E 8 ba 05 1c
        E 8 ba 05 1e
        E 8 ba 05 20
        E 17 ba 05 2c
        E 17 ba 05 2e
        E 17 ba 05 31
        E 17 ba 05 33
        E 17 ba 05 35
        E 17 ba 05 37
        E 17 ba 05 39
        E 17 ba 05 3b
        E 17 ba 05 3d
        E 17 ba 05 3f
        E 17 ba 05 41
        E 17 ba 05 43
        E 17 ba 05 45
        E 17 ba 05 47
        E 17 ba 05 48
        E 17 ba 05 4a
        E 17 ba 05 4c
        E 17 ba 05 4d
        E 17 ba 05 4f
        E 17 ba 05 50
        E 17 ba 05 51
        E 17 ba 05 52
        E 17 ba 05 54
        E 17 ba 05 54
        E 17 ba 05 55
        E 17 ba 05 56
        E 17 ba 05 56
        E 17 ba 05 57
        E 17 ba 05 58
        E 17 ba 05 58
        E 17 ba 05 58
        E 17 ba 05 58
        E 17 ba 05 58
        E 17 ba 05 58
        E 17 ba 05 58
        E 17 ba 05 58
        E 17 ba 05 58
        E 17 ba 05 57
        E 17 ba 05 56
        E 17 ba 05 56
        E 17 ba 05 55
        E 17 ba 05 54
        E 17 ba 05 53
        E 17 ba 05 51
        E 17 ba 05 51
        E 17 ba 05 4f
        E 17 ba 05 4e
        E 17 ba 05 4d
        E 17 ba 05 4b
        E 17 ba 05 49
        E 17 ba 05 48
        E 17 ba 05 46
        E 17 ba 05 44
        E 17 ba 05 42
        E 17 ba 05 40
        E 17 ba 05 3e
        E 17 ba 05 3c
        E 17 ba 05 3a
        E 17 ba 05 38
        E 17 ba 05 36
        E 17 ba 05 33
        E 17 ba 05 31
        E 17 ba 05 2f
        E 17 ba 05 2d
        E 17 ba 05 2b
        E 17 ba 05 29
        E 17 ba 05 27
        E 17 ba 05 25
        E 17 ba 05 22
        E 17 ba 05 20
        E 17 ba 05 1e
        E 17 ba 05 1c
        E 17 ba 05 1a
        E 17 ba 05 18
        E 17 ba 05 16
        E 17 ba 05 14
        E 17 ba 05 12
        E 17 ba 05 10
        E 17 ba 05 0f
        E 17 ba 05 0d
        E 17 ba 05 0b
        E 17 ba 05 0a
        E 17 ba 05 09
        E 17 ba 05 07
        E 17 ba 05 07
        E 17 ba 05 05
        E 17 ba 05 04
        E 17 ba 05 03
        E 17 ba 05 02
        E 17 ba 05 02
        E 17 ba 05 01
        E 17 ba 05 00
        E 17 ba 05 00
        E 17 ba 05 00
        E 17 ba 05 00
        E 17 ba 05 00
        E 17 ba 05 00
        E 17 ba 05 00
        E 17 ba 05 00
        E 17 ba 05 00
        E 17 ba 05 01
        E 17 ba 05 02
        E 17 ba 05 02
        E 17 ba 05 03
        E 17 ba 05 04
        E 17 ba 05 04
        E 17 ba 05 06
        E 17 ba 05 07
        E 17 ba 05 08
        E 17 ba 05 09
        E 17 ba 05 0b
        E 17 ba 05 0c
        E 17 ba 05 0e
        E 17 ba 05 10
        E 17 ba 05 11
        E 17 ba 05 13
        E 17 ba 05 15
        E 17 ba 05 17
        E 17 ba 05 19
        E 17 ba 05 1b
        E 17 ba 05 1d
        E 17 ba 05 1f
        E 17 ba 05 21
        E 17 ba 05 23
        E 17 ba 05 25
        E 17 ba 05 27
        E 17 ba 05 2a
        E 17 ba 05 2c
        E 15 ba 05 33
        E 15 ba 05 35
        E 15 ba 05 37
        E 15 ba 05 3a
        E 15 ba 05 3c
        E 15 ba 05 3f
        E 15 ba 05 41
        E 15 ba 05 44
        E 15 ba 05 46
        E 15 ba 05 48
        E 15 ba 05 4b
        E 15 ba 05 4c
        E 15 ba 05 4f
        E 15 ba 05 51
        E 15 ba 05 53
        E 15 ba 05 54
        E 15 ba 05 57
        E 15 ba 05 58
        E 15 ba 05 5a
        E 15 ba 05 5b
        E 15 ba 05 5d
        E 15 ba 05 5e
        E 15 ba 05 5f
        E 15 ba 05 60
        E 15 ba 05 61
        E 15 ba 05 62
        E 15 ba 05 63
        E 15 ba 05 63
        E 15 ba 05 64
        E 15 ba 05 64
        E 15 ba 05 65
        E 15 ba 05 65
        E 15 ba 05 65
        E 15 ba 05 65
        E 15 ba 05 65
        E 15 ba 05 64
        E 15 ba 05 64
        E 15 ba 05 63
        E 15 ba 05 63
        E 15 ba 05 62
        E 15 ba 05 61
        E 15 ba 05 5f
        E 15 ba 05 5f
        E 15 ba 05 5d
        E 15 ba 05 5c
        E 15 ba 05 5b
        E 15 ba 05 59
        E 15 ba 05 57
        E 15 ba 05 56
        E 15 ba 05 54
        E 15 ba 05 52
        E 15 ba 05 50
        E 15 ba 05 4e
        E 15 ba 05 4c
        E 15 ba 05 49
        E 15 ba 05 47
        E 15 ba 05 45
        E 15 ba 05 43
        E 15 ba 05 40
        E 15 ba 05 3e
        E 15 ba 05 3b
        E 15 ba 05 38
        E 15 ba 05 36
        E 15 ba 05 33
        E 15 ba 05 31
        E 15 ba 05 2f
        E 15 ba 05 2c
        E 15 ba 05 2a
        E 15 ba 05 27
        E 15 ba 05 24
        E 15 ba 05 22
        E 15 ba 05 1f
        E 15 ba 05 1e
        E 15 ba 05 1b
        E 15 ba 05 19
        E 15 ba 05 17
        E 15 ba 05 15
        E 15 ba 05 13
        E 15 ba 05 11
        E 15 ba 05 0f
        E 15 ba 05 0d
        E 15 ba 05 0b
        E 15 ba 05 0a
        E 15 ba 05 08
        E 15 ba 05 07
        E 15 ba 05 06
        E 15 ba 05 05
        E 15 ba 05 03
        E 15 ba 05 03
        E 15 ba 05 02
        E 15 ba 05 01
        E 15 ba 05 00
        E 15 ba 05 00
        E 15 ba 05 00
        E 15 ba 05 00
        E 15 ba 05 00
        E 15 ba 05 00
        E 15 ba 05 00
        E 15 ba 05 00
        E 15 ba 05 00
        E 15 ba 05 01
        E 15 ba 05 02
        E 15 ba 05 03
        E 15 ba 05 03
        E 15 ba 05 04
        E 15 ba 05 05
        E 15 ba 05 07
        E 15 ba 05 07
        E 15 ba 05 09
        E 15 ba 05 0b
        E 15 ba 05 0c
        E 15 ba 05 0e
        E 15 ba 05 10
        E 15 ba 05 12
        E 15 ba 05 14
        E 15 ba 05 16
        E 15 ba 05 18
        E 15 ba 05 1a
        E 15 ba 05 1c
        E 15 ba 05 1f
        E 15 ba 05 21
        E 15 ba 05 24
        E 15 ba 05 26
        E 15 ba 05 28
        E 15 ba 05 2b
        E 15 ba 05 2d
        E 15 ba 05 2f
        E 15 ba 05 33
        E 17 ba 05 06
        E 17 ba 05 06
        E 17 ba 05 07
        E 17 ba 05 07
        E 17 ba 05 07
        E 17 ba 05 07
        E 17 ba 05 08
        E 17 ba 05 08
        E 17 ba 05 08
        E 17 ba 05 09
        E 17 ba 05 09
        E 17 ba 05 09
        E 17 ba 05 09
        E 17 ba 05 0a
        E 17 ba 05 0a
        E 17 ba 05 0a
        E 17 ba 05 0a
        E 17 ba 05 0b
        E 17 ba 05 0b
        E 17 ba 05 0b
        E 17 ba 05 0b
        E 17 ba 05 0b
        E 17 ba 05 0c
        E 17 ba 05 0c
        E 17 ba 05 0c
        E 17 ba 05 0c
        E 17 ba 05 0c
        E 17 ba 05 0c
        E 17 ba 05 0c
        E 17 ba 05 0c
        E 17 ba 05 0c
        E 17 ba 05 0c
        E 17 ba 05 0c
        E 17 ba 05 0c
        E 17 ba 05 0c
        E 17 ba 05 0c
        E 17 ba 05 0c
        E 17 ba 05 0c
        E 17 ba 05 0c
        E 17 ba 05 0c
        E 17 ba 05 0c
        E 17 ba 05 0c
        E 17 ba 05 0b
        E 17 ba 05 0b
        E 17 ba 05 0b
        E 17 ba 05 0b
        E 17 ba 05 0b
        E 17 ba 05 0b
        E 17 ba 05 0a
        E 17 ba 05 0a
        E 17 ba 05 0a
        E 17 ba 05 0a
        E 17 ba 05 09
        E 17 ba 05 09
        E 17 ba 05 09
        E 17 ba 05 08
        E 17 ba 05 08
        E 17 ba 05 08
        E 17 ba 05 08
        E 17 ba 05 07
        E 17 ba 05 07
        E 17 ba 05 07
        E 17 ba 05 06
        E 17 ba 05 06
        E 17 ba 05 06
        E 17 ba 05 05
        E 17 ba 05 05
        E 17 ba 05 05
        E 17 ba 05 04
        E 17 ba 05 04
        E 17 ba 05 04
        E 17 ba 05 04
        E 17 ba 05 03
        E 17 ba 05 03
        E 17 ba 05 03
        E 17 ba 05 02
        E 17 ba 05 02
        E 17 ba 05 02
        E 17 ba 05 02
        E 17 ba 05 01
        E 17 ba 05 01
        E 17 ba 05 01
        E 17 ba 05 01
        E 17 ba 05 01
        E 17 ba 05 01
        E 17 ba 05 00
        E 17 ba 05 00
        E 17 ba 05 00
        E 17 ba 05 00
        E 17 ba 05 00
        E 17 ba 05 00
        E 17 ba 05 00
        E 17 ba 05 00
        E 17 ba 05 00
        E 17 ba 05 00
        E 17 ba 05 00
        E 17 ba 05 00
        E 17 ba 05 00
        E 17 ba 05 00
        E 17 ba 05 00
        E 17 ba 05 00
        E 17 ba 05 00
        E 17 ba 05 00
        E 17 ba 05 00
        E 17 ba 05 00
        E 17 ba 05 00
        E 17 ba 05 00
        E 17 ba 05 01
        E 17 ba 05 01
        E 17 ba 05 01
        E 17 ba 05 01
        E 17 ba 05 01
        E 17 ba 05 02
        E 17 ba 05 02
        E 17 ba 05 02
        E 17 ba 05 02
        E 17 ba 05 03
        E 17 ba 05 03
        E 17 ba 05 03
        E 17 ba 05 03
        E 17 ba 05 04
        E 17 ba 05 04
        E 17 ba 05 04
        E 17 ba 05 05
        E 17 ba 05 05
        E 17 ba 05 05
        E 17 ba 05 06
        E 17 ba 05 06
        E 15 ba 05 19
        E 15 ba 05 1a
        E 15 ba 05 1c
        E 15 ba 05 1d
        E 15 ba 05 1e
        E 15 ba 05 1f
        E 15 ba 05 20
        E 15 ba 05 22
        E 15 ba 05 23
        E 15 ba 05 24
        E 15 ba 05 25
        E 15 ba 05 26
        E 15 ba 05 27
        E 15 ba 05 28
        E 15 ba 05 29
        E 15 ba 05 2a
        E 15 ba 05 2b
        E 15 ba 05 2c
        E 15 ba 05 2d
        E 15 ba 05 2e
        E 15 ba 05 2e
        E 15 ba 05 2f
        E 15 ba 05 30
        E 15 ba 05 30
        E 15 ba 05 30
        E 15 ba 05 31
        E 15 ba 05 31
        E 15 ba 05 32
        E 15 ba 05 32
        E 15 ba 05 32
        E 15 ba 05 32
        E 15 ba 05 32
        E 15 ba 05 32
        E 15 ba 05 32
        E 15 ba 05 32
        E 15 ba 05 32
        E 15 ba 05 32
        E 15 ba 05 32
        E 15 ba 05 31
        E 15 ba 05 31
        E 15 ba 05 30
        E 15 ba 05 30
        E 15 ba 05 2f
        E 15 ba 05 2e
        E 15 ba 05 2e
        E 15 ba 05 2d
        E 15 ba 05 2c
        E 15 ba 05 2c
        E 15 ba 05 2b
        E 15 ba 05 2a
        E 15 ba 05 29
        E 15 ba 05 28
        E 15 ba 05 27
        E 15 ba 05 26
        E 15 ba 05 24
        E 15 ba 05 23
        E 15 ba 05 22
        E 15 ba 05 21
        E 15 ba 05 20
        E 15 ba 05 1f
        E 15 ba 05 1d
        E 15 ba 05 1c
        E 15 ba 05 1b
        E 15 ba 05 1a
        E 15 ba 05 18
        E 15 ba 05 17
        E 15 ba 05 16
        E 15 ba 05 15
        E 15 ba 05 13
        E 15 ba 05 12
        E 15 ba 05 11
        E 15 ba 05 10
        E 15 ba 05 0f
        E 15 ba 05 0e
        E 15 ba 05 0c
        E 15 ba 05 0b
        E 15 ba 05 0a
        E 15 ba 05 09
        E 15 ba 05 08
        E 15 ba 05 07
        E 15 ba 05 06
        E 15 ba 05 06
        E 15 ba 05 05
        E 15 ba 05 04
        E 15 ba 05 04
        E 15 ba 05 03
        E 15 ba 05 02
        E 15 ba 05 02
        E 15 ba 05 01
        E 15 ba 05 01
        E 15 ba 05 00
        E 15 ba 05 00
        E 15 ba 05 00
        E 15 ba 05 00
        E 15 ba 05 00
        E 15 ba 05 00
        E 15 ba 05 00
        E 15 ba 05 00
        E 15 ba 05 00
        E 15 ba 05 00
        E 15 ba 05 00
        E 15 ba 05 01
        E 15 ba 05 01
        E 15 ba 05 02
        E 15 ba 05 02
        E 15 ba 05 02
        E 15 ba 05 03
        E 15 ba 05 04
        E 15 ba 05 04
        E 15 ba 05 05
        E 15 ba 05 06
        E 15 ba 05 07
        E 15 ba 05 08
        E 15 ba 05 09
        E 15 ba 05 0a
        E 15 ba 05 0b
        E 15 ba 05 0c
        E 15 ba 05 0d
        E 15 ba 05 0e
        E 15 ba 05 0f
        E 15 ba 05 10
        E 15 ba 05 12
        E 15 ba 05 13
        E 15 ba 05 14
        E 15 ba 05 15
        E 15 ba 05 16
        E 15 ba 05 18
        E 15 ba 05 19
        E 8 ba 05 2c
        E 8 ba 05 2e
        E 8 ba 05 31
        E 8 ba 05 33
        E 8 ba 05 35
        E 8 ba 05 37
        E 8 ba 05 39
        E 8 ba 05 3b
        E 8 ba 05 3d
        E 8 ba 05 3f
        E 8 ba 05 41
        E 8 ba 05 43
        E 8 ba 05 45
        E 8 ba 05 47
        E 8 ba 05 48
        E 8 ba 05 4a
        E 8 ba 05 4c
        E 8 ba 05 4d
        E 8 ba 05 4f
        E 8 ba 05 50
        E 8 ba 05 51
        E 8 ba 05 52
        E 8 ba 05 54
        E 8 ba 05 54
        E 8 ba 05 55
        E 8 ba 05 56
        E 8 ba 05 56
        E 8 ba 05 57
        E 8 ba 05 58
        E 8 ba 05 58
        E 8 ba 05 58
        E 8 ba 05 58
        E 8 ba 05 58
        E 8 ba 05 58
        E 8 ba 05 58
        E 8 ba 05 58
        E 8 ba 05 58
        E 8 ba 05 57
        E 8 ba 05 56
        E 8 ba 05 56
        E 8 ba 05 55
        E 8 ba 05 54
        E 8 ba 05 53
        E 8 ba 05 51
        E 8 ba 05 51
        E 8 ba 05 4f
        E 8 ba 05 4e
        E 8 ba 05 4d
        E 8 ba 05 4b
        E 8 ba 05 49
        E 8 ba 05 48
        E 8 ba 05 46
        E 8 ba 05 44
        E 8 ba 05 42
        E 8 ba 05 40
        E 8 ba 05 3e
        E 8 ba 05 3c
        E 8 ba 05 3a
        E 8 ba 05 38
        E 8 ba 05 36
        E 8 ba 05 33
        E 8 ba 05 31
        E 8 ba 05 2f
        E 8 ba 05 2d
        E 8 ba 05 2b
        E 8 ba 05 29
        E 8 ba 05 27
        E 8 ba 05 25
        E 8 ba 05 22
        E 8 ba 05 20
        E 8 ba 05 1e
        E 8 ba 05 1c
        E 8 ba 05 1a
        E 8 ba 05 18
        E 8 ba 05 16
        E 8 ba 05 14
        E 8 ba 05 12
        E 8 ba 05 10
        E 8 ba 05 0f
        E 8 ba 05 0d
        E 8 ba 05 0b
        E 8 ba 05 0a
        E 8 ba 05 09
        E 8 ba 05 07
        E 8 ba 05 07
        E 8 ba 05 05
        E 8 ba 05 04
        E 8 ba 05 03
        E 8 ba 05 02
        E 8 ba 05 02
        E 8 ba 05 01
        E 8 ba 05 00
        E 8 ba 05 00
        E 8 ba 05 00
        E 8 ba 05 00
        E 8 ba 05 00
        E 8 ba 05 00
        E 8 ba 05 00
        E 8 ba 05 00
        E 8 ba 05 00
        E 8 ba 05 01
        E 8 ba 05 02
        E 8 ba 05 02
        E 8 ba 05 03
        E 8 ba 05 04
        E 8 ba 05 04
        E 8 ba 05 06
        E 8 ba 05 07
        E 8 ba 05 08
        E 8 ba 05 09
        E 8 ba 05 0b
        E 8 ba 05 0c
        E 8 ba 05 0e
        E 8 ba 05 10
        E 8 ba 05 11
        E 8 ba 05 13
        E 8 ba 05 15
        E 8 ba 05 17
        E 8 ba 05 19
        E 8 ba 05 1b
        E 8 ba 05 1d
        E 8 ba 05 1f
        E 8 ba 05 21
        E 8 ba 05 23
        E 8 ba 05 25
        E 8 ba 05 27
        E 8 ba 05 2a
        E 8 ba 05 2c
        E 8 ba 05 20
        E 8 ba 05 21
        E 8 ba 05 23
        E 8 ba 05 24
        E 8 ba 05 26
        E 8 ba 05 27
        E 8 ba 05 29
        E 8 ba 05 2a
        E 8 ba 05 2c
        E 8 ba 05 2d
        E 8 ba 05 2f
        E 8 ba 05 30
        E 8 ba 05 31
        E 8 ba 05 33
        E 8 ba 05 34
        E 8 ba 05 35
        E 8 ba 05 36
        E 8 ba 05 37
        E 8 ba 05 38
        E 8 ba 05 39
        E 8 ba 05 3a
        E 8 ba 05 3b
        E 8 ba 05 3c
        E 8 ba 05 3c
        E 8 ba 05 3d
        E 8 ba 05 3d
        E 8 ba 05 3e
        E 8 ba 05 3e
        E 8 ba 05 3f
        E 8 ba 05 3f
        E 8 ba 05 3f
        E 8 ba 05 3f
        E 8 ba 05 3f
        E 8 ba 05 3f
        E 8 ba 05 3f
        E 8 ba 05 3f
        E 8 ba 05 3f
        E 8 ba 05 3e
        E 8 ba 05 3e
        E 8 ba 05 3d
        E 8 ba 05 3d
        E 8 ba 05 3c
        E 8 ba 05 3b
        E 8 ba 05 3a
        E 8 ba 05 3a
        E 8 ba 05 39
        E 8 ba 05 38
        E 8 ba 05 37
        E 8 ba 05 36
        E 8 ba 05 34
        E 8 ba 05 33
        E 8 ba 05 32
        E 8 ba 05 31
        E 8 ba 05 2f
        E 8 ba 05 2e
        E 8 ba 05 2c
        E 8 ba 05 2b
        E 8 ba 05 2a
        E 8 ba 05 28
        E 8 ba 05 27
        E 8 ba 05 25
        E 8 ba 05 23
        E 8 ba 05 22
        E 8 ba 05 20
        E 8 ba 05 1f
        E 8 ba 05 1d
        E 8 ba 05 1c
        E 8 ba 05 1a
        E 8 ba 05 18
        E 8 ba 05 17
        E 8 ba 05 15
        E 8 ba 05 14
        E 8 ba 05 13
        E 8 ba 05 11
        E 8 ba 05 10
        E 8 ba 05 0e
        E 8 ba 05 0d
        E 8 ba 05 0c
        E 8 ba 05 0b
        E 8 ba 05 09
        E 8 ba 05 08
        E 8 ba 05 07
        E 8 ba 05 06
        E 8 ba 05 05
        E 8 ba 05 05
        E 8 ba 05 04
        E 8 ba 05 03
        E 8 ba 05 02
        E 8 ba 05 02
        E 8 ba 05 01
        E 8 ba 05 01
        E 8 ba 05 00
        E 8 ba 05 00
        E 8 ba 05 00
        E 8 ba 05 00
        E 8 ba 05 00
        E 8 ba 05 00
        E 8 ba 05 00
        E 8 ba 05 00
        E 8 ba 05 00
        E 8 ba 05 01
        E 8 ba 05 01
        E 8 ba 05 02
        E 8 ba 05 02
        E 8 ba 05 03
        E 8 ba 05 03
        E 8 ba 05 04
        E 8 ba 05 05
        E 8 ba 05 06
        E 8 ba 05 07
        E 8 ba 05 08
        E 8 ba 05 09
        E 8 ba 05 0a
        E 8 ba 05 0b
        E 8 ba 05 0c
        E 8 ba 05 0e
        E 8 ba 05 0f
        E 8 ba 05 10
        E 8 ba 05 12
        E 8 ba 05 13
        E 8 ba 05 15
        E 8 ba 05 16
        E 8 ba 05 18
        E 8 ba 05 19
        E 8 ba 05 1b
        E 8 ba 05 1c
        E 8 ba 05 1e
        E 8 ba 05 20
        E 11 ba 05 20
        E 11 ba 05 21
        E 11 ba 05 23
        E 11 ba 05 24
        E 11 ba 05 26
        E 11 ba 05 27
        E 11 ba 05 29
        E 11 ba 05 2a
        E 11 ba 05 2c
        E 11 ba 05 2d
        E 11 ba 05 2f
        E 11 ba 05 30
        E 11 ba 05 31
        E 11 ba 05 33
        E 11 ba 05 34
        E 11 ba 05 35
        E 11 ba 05 36
        E 11 ba 05 37
        E 11 ba 05 38
        E 11 ba 05 39
        E 11 ba 05 3a
        E 11 ba 05 3b
        E 11 ba 05 3c
        E 11 ba 05 3c
        E 11 ba 05 3d
        E 11 ba 05 3d
        E 11 ba 05 3e
        E 11 ba 05 3e
        E 11 ba 05 3f
        E 11 ba 05 3f
        E 11 ba 05 3f
        E 11 ba 05 3f
        E 11 ba 05 3f
        E 11 ba 05 3f
        E 11 ba 05 3f
        E 11 ba 05 3f
        E 11 ba 05 3f
        E 11 ba 05 3e
        E 11 ba 05 3e
        E 11 ba 05 3d
        E 11 ba 05 3d
        E 11 ba 05 3c
        E 11 ba 05 3b
        E 11 ba 05 3a
        E 11 ba 05 3a
        E 11 ba 05 39
        E 11 ba 05 38
        E 11 ba 05 37
        E 11 ba 05 36
        E 11 ba 05 34
        E 11 ba 05 33
        E 11 ba 05 32
        E 11 ba 05 31
        E 11 ba 05 2f
        E 11 ba 05 2e
        E 11 ba 05 2c
        E 11 ba 05 2b
        E 11 ba 05 2a
        E 11 ba 05 28
        E 11 ba 05 27
        E 11 ba 05 25
        E 11 ba 05 23
        E 11 ba 05 22
        E 11 ba 05 20
        E 11 ba 05 1f
        E 11 ba 05 1d
        E 11 ba 05 1c
        E 11 ba 05 1a
        E 11 ba 05 18
        E 11 ba 05 17
        E 11 ba 05 15
        E 11 ba 05 14
        E 11 ba 05 13
        E 11 ba 05 11
        E 11 ba 05 10
        E 11 ba 05 0e
        E 11 ba 05 0d
        E 11 ba 05 0c
        E 11 ba 05 0b
        E 11 ba 05 09
        E 11 ba 05 08
        E 11 ba 05 07
        E 11 ba 05 06
        E 11 ba 05 05
        E 11 ba 05 05
        E 11 ba 05 04
        E 11 ba 05 03
        E 11 ba 05 02
        E 11 ba 05 02
        E 11 ba 05 01
        E 11 ba 05 01
        E 11 ba 05 00
        E 11 ba 05 00
        E 11 ba 05 00
        E 11 ba 05 00
        E 11 ba 05 00
        E 11 ba 05 00
        E 11 ba 05 00
        E 11 ba 05 00
        E 11 ba 05 00
        E 11 ba 05 01
        E 11 ba 05 01
        E 11 ba 05 02
        E 11 ba 05 02
        E 11 ba 05 03
        E 11 ba 05 03
        E 11 ba 05 04
        E 11 ba 05 05
        E 11 ba 05 06
        E 11 ba 05 07
        E 11 ba 05 08
        E 11 ba 05 09
        E 11 ba 05 0a
        E 11 ba 05 0b
        E 11 ba 05 0c
        E 11 ba 05 0e
        E 11 ba 05 0f
        E 11 ba 05 10
        E 11 ba 05 12
        E 11 ba 05 13
        E 11 ba 05 15
        E 11 ba 05 16
        E 11 ba 05 18
        E 11 ba 05 19
        E 11 ba 05 1b
        E 11 ba 05 1c
        E 11 ba 05 1e
        E 11 ba 05 20
        E 13 ba 05 40
        E 13 ba 05 43
        E 13 ba 05 46
        E 13 ba 05 49
        E 13 ba 05 4c
        E 13 ba 05 4f
        E 13 ba 05 52
        E 13 ba 05 55
        E 13 ba 05 58
        E 13 ba 05 5b
        E 13 ba 05 5e
        E 13 ba 05 60
        E 13 ba 05 63
        E 13 ba 05 66
        E 13 ba 05 68
        E 13 ba 05 6a
        E 13 ba 05 6d
        E 13 ba 05 6f
        E 13 ba 05 71
        E 13 ba 05 73
        E 13 ba 05 75
        E 13 ba 05 76
        E 13 ba 05 78
        E 13 ba 05 79
        E 13 ba 05 7a
        E 13 ba 05 7b
        E 13 ba 05 7c
        E 13 ba 05 7d
        E 13 ba 05 7e
        E 13 ba 05 7e
        E 13 ba 05 7f
        E 13 ba 05 7f
        E 13 ba 05 7f
        E 13 ba 05 7f
        E 13 ba 05 7f
        E 13 ba 05 7e
        E 13 ba 05 7e
        E 13 ba 05 7d
        E 13 ba 05 7c
        E 13 ba 05 7b
        E 13 ba 05 7a
        E 13 ba 05 78
        E 13 ba 05 77
        E 13 ba 05 75
        E 13 ba 05 74
        E 13 ba 05 72
        E 13 ba 05 70
        E 13 ba 05 6e
        E 13 ba 05 6c
        E 13 ba 05 69
        E 13 ba 05 67
        E 13 ba 05 64
        E 13 ba 05 62
        E 13 ba 05 5f
        E 13 ba 05 5c
        E 13 ba 05 59
        E 13 ba 05 57
        E 13 ba 05 54
        E 13 ba 05 51
        E 13 ba 05 4e
        E 13 ba 05 4a
        E 13 ba 05 47
        E 13 ba 05 44
        E 13 ba 05 41
        E 13 ba 05 3e
        E 13 ba 05 3b
        E 13 ba 05 38
        E 13 ba 05 35
        E 13 ba 05 31
        E 13 ba 05 2e
        E 13 ba 05 2b
        E 13 ba 05 28
        E 13 ba 05 26
        E 13 ba 05 23
        E 13 ba 05 20
        E 13 ba 05 1d
        E 13 ba 05 1b
        E 13 ba 05 18
        E 13 ba 05 16
        E 13 ba 05 13
        E 13 ba 05 11
        E 13 ba 05 0f
        E 13 ba 05 0d
        E 13 ba 05 0b
        E 13 ba 05 0a
        E 13 ba 05 08
        E 13 ba 05 07
        E 13 ba 05 05
        E 13 ba 05 04
        E 13 ba 05 03
        E 13 ba 05 02
        E 13 ba 05 01
        E 13 ba 05 01
        E 13 ba 05 00
        E 13 ba 05 00
        E 13 ba 05 00
        E 13 ba 05 00
        E 13 ba 05 00
        E 13 ba 05 01
        E 13 ba 05 01
        E 13 ba 05 02
        E 13 ba 05 03
        E 13 ba 05 04
        E 13 ba 05 05
        E 13 ba 05 06
        E 13 ba 05 07
        E 13 ba 05 09
        E 13 ba 05 0a
        E 13 ba 05 0c
        E 13 ba 05 0e
        E 13 ba 05 10
        E 13 ba 05 12
        E 13 ba 05 15
        E 13 ba 05 17
        E 13 ba 05 19
        E 13 ba 05 1c
        E 13 ba 05 1f
        E 13 ba 05 21
        E 13 ba 05 24
        E 13 ba 05 27
        E 13 ba 05 2a
        E 13 ba 05 2d
        E 13 ba 05 30
        E 13 ba 05 33
        E 13 ba 05 36
        E 13 ba 05 39
        E 13 ba 05 3c
        E 13 ba 05 40
        E 1 ba 05 39
        E 1 ba 05 3c
        E 1 ba 05 3f
        E 1 ba 05 41
        E 1 ba 05 44
        E 1 ba 05 47
        E 1 ba 05 49
        E 1 ba 05 4c
        E 1 ba 05 4f
        E 1 ba 05 51
        E 1 ba 05 54
        E 1 ba 05 56
        E 1 ba 05 59
        E 1 ba 05 5b
        E 1 ba 05 5d
        E 1 ba 05 5f
        E 1 ba 05 62
        E 1 ba 05 63
        E 1 ba 05 65
        E 1 ba 05 67
        E 1 ba 05 69
        E 1 ba 05 6a
        E 1 ba 05 6c
        E 1 ba 05 6c
        E 1 ba 05 6d
        E 1 ba 05 6e
        E 1 ba 05 6f
        E 1 ba 05 70
        E 1 ba 05 71
        E 1 ba 05 71
        E 1 ba 05 72
        E 1 ba 05 72
        E 1 ba 05 72
        E 1 ba 05 72
        E 1 ba 05 72
        E 1 ba 05 71
        E 1 ba 05 71
        E 1 ba 05 70
        E 1 ba 05 6f
        E 1 ba 05 6e
        E 1 ba 05 6d
        E 1 ba 05 6c
        E 1 ba 05 6b
        E 1 ba 05 69
        E 1 ba 05 68
        E 1 ba 05 66
        E 1 ba 05 64
        E 1 ba 05 63
        E 1 ba 05 61
        E 1 ba 05 5e
        E 1 ba 05 5c
        E 1 ba 05 5a
        E 1 ba 05 58
        E 1 ba 05 55
        E 1 ba 05 52
        E 1 ba 05 50
        E 1 ba 05 4e
        E 1 ba 05 4b
        E 1 ba 05 48
        E 1 ba 05 46
        E 1 ba 05 42
        E 1 ba 05 3f
        E 1 ba 05 3d
        E 1 ba 05 3a
        E 1 ba 05 37
        E 1 ba 05 35
        E 1 ba 05 32
        E 1 ba 05 2f
        E 1 ba 05 2c
        E 1 ba 05 29
        E 1 ba 05 26
        E 1 ba 05 24
        E 1 ba 05 22
        E 1 ba 05 1f
        E 1 ba 05 1c
        E 1 ba 05 1a
        E 1 ba 05 18
        E 1 ba 05 15
        E 1 ba 05 13
        E 1 ba 05 11
        E 1 ba 05 0f
        E 1 ba 05 0d
        E 1 ba 05 0b
        E 1 ba 05 09
        E 1 ba 05 09
        E 1 ba 05 07
        E 1 ba 05 06
        E 1 ba 05 04
        E 1 ba 05 03
        E 1 ba 05 02
        E 1 ba 05 01
        E 1 ba 05 00
        E 1 ba 05 00
        E 1 ba 05 00
        E 1 ba 05 00
        E 1 ba 05 00
        E 1 ba 05 00
        E 1 ba 05 00
        E 1 ba 05 00
        E 1 ba 05 00
        E 1 ba 05 01
        E 1 ba 05 02
        E 1 ba 05 03
        E 1 ba 05 04
        E 1 ba 05 05
        E 1 ba 05 06
        E 1 ba 05 08
        E 1 ba 05 09
        E 1 ba 05 0a
        E 1 ba 05 0c
        E 1 ba 05 0e
        E 1 ba 05 10
        E 1 ba 05 12
        E 1 ba 05 14
        E 1 ba 05 16
        E 1 ba 05 19
        E 1 ba 05 1b
        E 1 ba 05 1d
        E 1 ba 05 20
        E 1 ba 05 23
        E 1 ba 05 25
        E 1 ba 05 28
        E 1 ba 05 2b
        E 1 ba 05 2d
        E 1 ba 05 30
        E 1 ba 05 33
        E 1 ba 05 36
        E 1 ba 05 39
        E 6 ba 05 40
        E 6 ba 05 43
        E 6 ba 05 46
        E 6 ba 05 49
        E 6 ba 05 4c
        E 6 ba 05 4f
        E 6 ba 05 52
        E 6 ba 05 55
        E 6 ba 05 58
        E 6 ba 05 5b
        E 6 ba 05 5e
        E 6 ba 05 60
        E 6 ba 05 63
        E 6 ba 05 66
        E 6 ba 05 68
        E 6 ba 05 6a
        E 6 ba 05 6d
        E 6 ba 05 6f
        E 6 ba 05 71
        E 6 ba 05 73
        E 6 ba 05 75
        E 6 ba 05 76
        E 6 ba 05 78
        E 6 ba 05 79
        E 6 ba 05 7a
        E 6 ba 05 7b
        E 6 ba 05 7c
        E 6 ba 05 7d
        E 6 ba 05 7e
        E 6 ba 05 7e
        E 6 ba 05 7f
        E 6 ba 05 7f
        E 6 ba 05 7f
        E 6 ba 05 7f
        E 6 ba 05 7f
        E 6 ba 05 7e
        E 6 ba 05 7e
        E 6 ba 05 7d
        E 6 ba 05 7c
        E 6 ba 05 7b
        E 6 ba 05 7a
        E 6 ba 05 78
        E 6 ba 05 77
        E 6 ba 05 75
        E 6 ba 05 74
        E 6 ba 05 72
        E 6 ba 05 70
        E 6 ba 05 6e
        E 6 ba 05 6c
        E 6 ba 05 69
        E 6 ba 05 67
        E 6 ba 05 64
        E 6 ba 05 62
        E 6 ba 05 5f
        E 6 ba 05 5c
        E 6 ba 05 59
        E 6 ba 05 57
        E 6 ba 05 54
        E 6 ba 05 51
        E 6 ba 05 4e
        E 6 ba 05 4a
        E 6 ba 05 47
        E 6 ba 05 44
        E 6 ba 05 41
        E 6 ba 05 3e
        E 6 ba 05 3b
        E 6 ba 05 38
        E 6 ba 05 35
        E 6 ba 05 31
        E 6 ba 05 2e
        E 6 ba 05 2b
        E 6 ba 05 28
        E 6 ba 05 26
        E 6 ba 05 23
        E 6 ba 05 20
        E 6 ba 05 1d
        E 6 ba 05 1b
        E 6 ba 05 18
        E 6 ba 05 16
        E 6 ba 05 13
        E 6 ba 05 11
        E 6 ba 05 0f
        E 6 ba 05 0d
        E 6 ba 05 0b
        E 6 ba 05 0a
        E 6 ba 05 08
        E 6 ba 05 07
        E 6 ba 05 05
        E 6 ba 05 04
        E 6 ba 05 03
        E 6 ba 05 02
        E 6 ba 05 01
        E 6 ba 05 01
        E 6 ba 05 00
        E 6 ba 05 00
        E 6 ba 05 00
        E 6 ba 05 00
        E 6 ba 05 00
        E 6 ba 05 01
        E 6 ba 05 01
        E 6 ba 05 02
        E 6 ba 05 03
        E 6 ba 05 04
        E 6 ba 05 05
        E 6 ba 05 06
        E 6 ba 05 07
        E 6 ba 05 09
        E 6 ba 05 0a
        E 6 ba 05 0c
        E 6 ba 05 0e
        E 6 ba 05 10
        E 6 ba 05 12
        E 6 ba 05 15
        E 6 ba 05 17
        E 6 ba 05 19
        E 6 ba 05 1c
        E 6 ba 05 1f
        E 6 ba 05 21
        E 6 ba 05 24
        E 6 ba 05 27
        E 6 ba 05 2a
        E 6 ba 05 2d
        E 6 ba 05 30
        E 6 ba 05 33
        E 6 ba 05 36
        E 6 ba 05 39
        E 6 ba 05 3c
        E 6 ba 05 40
        E 11 ba 05 39
        E 11 ba 05 3c
        E 11 ba 05 3f
        E 11 ba 05 41
        E 11 ba 05 44
        E 11 ba 05 47
        E 11 ba 05 49
        E 11 ba 05 4c
        E 11 ba 05 4f
        E 11 ba 05 51
        E 11 ba 05 54
        E 11 ba 05 56
        E 11 ba 05 59
        E 11 ba 05 5b
        E 11 ba 05 5d
        E 11 ba 05 5f
        E 11 ba 05 62
        E 11 ba 05 63
        E 11 ba 05 65
        E 11 ba 05 67
        E 11 ba 05 69
        E 11 ba 05 6a
        E 11 ba 05 6c
        E 11 ba 05 6c
        E 11 ba 05 6d
        E 11 ba 05 6e
        E 11 ba 05 6f
        E 11 ba 05 70
        E 11 ba 05 71
        E 11 ba 05 71
        E 11 ba 05 72
        E 11 ba 05 72
        E 11 ba 05 72
        E 11 ba 05 72
        E 11 ba 05 72
        E 11 ba 05 71
        E 11 ba 05 71
        E 11 ba 05 70
        E 11 ba 05 6f
        E 11 ba 05 6e
        E 11 ba 05 6d
        E 11 ba 05 6c
        E 11 ba 05 6b
        E 11 ba 05 69
        E 11 ba 05 68
        E 11 ba 05 66
        E 11 ba 05 64
        E 11 ba 05 63
        E 11 ba 05 61
        E 11 ba 05 5e
        E 11 ba 05 5c
        E 11 ba 05 5a
        E 11 ba 05 58
        E 11 ba 05 55
        E 11 ba 05 52
        E 11 ba 05 50
        E 11 ba 05 4e
        E 11 ba 05 4b
        E 11 ba 05 48
        E 11 ba 05 46
        E 11 ba 05 42
        E 11 ba 05 3f
        E 11 ba 05 3d
        E 11 ba 05 3a
        E 11 ba 05 37
        E 11 ba 05 35
        E 11 ba 05 32
        E 11 ba 05 2f
        E 11 ba 05 2c
        E 11 ba 05 29
        E 11 ba 05 26
        E 11 ba 05 24
        E 11 ba 05 22
        E 11 ba 05 1f
        E 11 ba 05 1c
        E 11 ba 05 1a
        E 11 ba 05 18
        E 11 ba 05 15
        E 11 ba 05 13
        E 11 ba 05 11
        E 11 ba 05 0f
        E 11 ba 05 0d
        E 11 ba 05 0b
        E 11 ba 05 09
        E 11 ba 05 09
        E 11 ba 05 07
        E 11 ba 05 06
        E 11 ba 05 04
        E 11 ba 05 03
        E 11 ba 05 02
        E 11 ba 05 01
        E 11 ba 05 00
        E 11 ba 05 00
        E 11 ba 05 00
        E 11 ba 05 00
        E 11 ba 05 00
        E 11 ba 05 00
        E 11 ba 05 00
        E 11 ba 05 00
        E 11 ba 05 00
        E 11 ba 05 01
        E 11 ba 05 02
        E 11 ba 05 03
        E 11 ba 05 04
        E 11 ba 05 05
        E 11 ba 05 06
        E 11 ba 05 08
        E 11 ba 05 09
        E 11 ba 05 0a
        E 11 ba 05 0c
        E 11 ba 05 0e
        E 11 ba 05 10
        E 11 ba 05 12
        E 11 ba 05 14
        E 11 ba 05 16
        E 11 ba 05 19
        E 11 ba 05 1b
        E 11 ba 05 1d
        E 11 ba 05 20
        E 11 ba 05 23
        E 11 ba 05 25
        E 11 ba 05 28
        E 11 ba 05 2b
        E 11 ba 05 2d
        E 11 ba 05 30
        E 11 ba 05 33
        E 11 ba 05 36
        E 11 ba 05 39
        E 8 ba 05 20
        E 8 ba 05 21
        E 8 ba 05 23
        E 8 ba 05 24
        E 8 ba 05 26
        E 8 ba 05 27
        E 8 ba 05 29
        E 8 ba 05 2a
        E 8 ba 05 2c
        E 8 ba 05 2d
        E 8 ba 05 2f
        E 8 ba 05 30
        E 8 ba 05 31
        E 8 ba 05 33
        E 8 ba 05 34
        E 8 ba 05 35
        E 8 ba 05 36
        E 8 ba 05 37
        E 8 ba 05 38
        E 8 ba 05 39
        E 8 ba 05 3a
        E 8 ba 05 3b
        E 8 ba 05 3c
        E 8 ba 05 3c
        E 8 ba 05 3d
        E 8 ba 05 3d
        E 8 ba 05 3e
        E 8 ba 05 3e
        E 8 ba 05 3f
        E 8 ba 05 3f
        E 8 ba 05 3f
        E 8 ba 05 3f
        E 8 ba 05 3f
        E 8 ba 05 3f
        E 8 ba 05 3f
        E 8 ba 05 3f
        E 8 ba 05 3f
        E 8 ba 05 3e
        E 8 ba 05 3e
        E 8 ba 05 3d
        E 8 ba 05 3d
        E 8 ba 05 3c
        E 8 ba 05 3b
        E 8 ba 05 3a
        E 8 ba 05 3a
        E 8 ba 05 39
        E 8 ba 05 38
        E 8 ba 05 37
        E 8 ba 05 36
        E 8 ba 05 34
        E 8 ba 05 33
        E 8 ba 05 32
        E 8 ba 05 31
        E 8 ba 05 2f
        E 8 ba 05 2e
        E 8 ba 05 2c
        E 8 ba 05 2b
        E 8 ba 05 2a
        E 8 ba 05 28
        E 8 ba 05 27
        E 8 ba 05 25
        E 8 ba 05 23
        E 8 ba 05 22
        E 8 ba 05 20
        E 8 ba 05 1f
        E 8 ba 05 1d
        E 8 ba 05 1c
        E 8 ba 05 1a
        E 8 ba 05 18
        E 8 ba 05 17
        E 8 ba 05 15
        E 8 ba 05 14
        E 8 ba 05 13
        E 8 ba 05 11
        E 8 ba 05 10
        E 8 ba 05 0e
        E 8 ba 05 0d
        E 8 ba 05 0c
        E 8 ba 05 0b
        E 8 ba 05 09
        E 8 ba 05 08
        E 8 ba 05 07
        E 8 ba 05 06
        E 8 ba 05 05
        E 8 ba 05 05
        E 8 ba 05 04
        E 8 ba 05 03
        E 8 ba 05 02
        E 8 ba 05 02
        E 8 ba 05 01
        E 8 ba 05 01
        E 8 ba 05 00
        E 8 ba 05 00
        E 8 ba 05 00
        E 8 ba 05 00
        E 8 ba 05 00
        E 8 ba 05 00
        E 8 ba 05 00
        E 8 ba 05 00
        E 8 ba 05 00
        E 8 ba 05 01
        E 8 ba 05 01
        E 8 ba 05 02
        E 8 ba 05 02
        E 8 ba 05 03
        E 8 ba 05 03
        E 8 ba 05 04
        E 8 ba 05 05
        E 8 ba 05 06
        E 8 ba 05 07
        E 8 ba 05 08
        E 8 ba 05 09
        E 8 ba 05 0a
        E 8 ba 05 0b
        E 8 ba 05 0c
        E 8 ba 05 0e
        E 8 ba 05 0f
        E 8 ba 05 10
        E 8 ba 05 12
        E 8 ba 05 13
        E 8 ba 05 15
        E 8 ba 05 16
        E 8 ba 05 18
        E 8 ba 05 19
        E 8 ba 05 1b
        E 8 ba 05 1c
        E 8 ba 05 1e
        E 8 ba 05 20
        E 8 ba 05 20
        E 8 ba 05 21
        E 8 ba 05 23
        E 8 ba 05 24
        E 8 ba 05 26
        E 8 ba 05 27
        E 8 ba 05 29
        E 8 ba 05 2a
        E 8 ba 05 2c
        E 8 ba 05 2d
        E 8 ba 05 2f
        E 8 ba 05 30
        E 8 ba 05 31
        E 8 ba 05 33
        E 8 ba 05 34
        E 8 ba 05 35
        E 8 ba 05 36
        E 8 ba 05 37
        E 8 ba 05 38
        E 8 ba 05 39
        E 8 ba 05 3a
        E 8 ba 05 3b
        E 8 ba 05 3c
        E 8 ba 05 3c
        E 8 ba 05 3d
        E 8 ba 05 3d
        E 8 ba 05 3e
        E 8 ba 05 3e
        E 8 ba 05 3f
        E 8 ba 05 3f
        E 8 ba 05 3f
        E 8 ba 05 3f
        E 8 ba 05 3f
        E 8 ba 05 3f
        E 8 ba 05 3f
        E 8 ba 05 3f
        E 8 ba 05 3f
        E 8 ba 05 3e
        E 8 ba 05 3e
        E 8 ba 05 3d
        E 8 ba 05 3d
        E 8 ba 05 3c
        E 8 ba 05 3b
        E 8 ba 05 3a
        E 8 ba 05 3a
        E 8 ba 05 39
        E 8 ba 05 38
        E 8 ba 05 37
        E 8 ba 05 36
        E 8 ba 05 34
        E 8 ba 05 33
        E 8 ba 05 32
        E 8 ba 05 31
        E 8 ba 05 2f
        E 8 ba 05 2e
        E 8 ba 05 2c
        E 8 ba 05 2b
        E 8 ba 05 2a
        E 8 ba 05 28
        E 8 ba 05 27
        E 8 ba 05 25
        E 8 ba 05 23
        E 8 ba 05 22
        E 8 ba 05 20
        E 8 ba 05 1f
        E 8 ba 05 1d
        E 8 ba 05 1c
        E 8 ba 05 1a
        E 8 ba 05 18
        E 8 ba 05 17
        E 8 ba 05 15
        E 8 ba 05 14
        E 8 ba 05 13
        E 8 ba 05 11
        E 8 ba 05 10
        E 8 ba 05 0e
        E 8 ba 05 0d
        E 8 ba 05 0c
        E 8 ba 05 0b
        E 8 ba 05 09
        E 8 ba 05 08
        E 8 ba 05 07
        E 8 ba 05 06
        E 8 ba 05 05
        E 8 ba 05 05
        E 8 ba 05 04
        E 8 ba 05 03
        E 8 ba 05 02
        E 8 ba 05 02
        E 8 ba 05 01
        E 8 ba 05 01
        E 8 ba 05 00
        E 8 ba 05 00
        E 8 ba 05 00
        E 8 ba 05 00
        E 8 ba 05 00
        E 8 ba 05 00
        E 8 ba 05 00
        E 8 ba 05 00
        E 8 ba 05 00
        E 8 ba 05 01
        E 8 ba 05 01
        E 8 ba 05 02
        E 8 ba 05 02
        E 8 ba 05 03
        E 8 ba 05 03
        E 8 ba 05 04
        E 8 ba 05 05
        E 8 ba 05 06
        E 8 ba 05 07
        E 8 ba 05 08
        E 8 ba 05 09
        E 8 ba 05 0a
        E 8 ba 05 0b
        E 8 ba 05 0c
        E 8 ba 05 0e
        E 8 ba 05 0f
        E 8 ba 05 10
        E 8 ba 05 12
        E 8 ba 05 13
        E 8 ba 05 15
        E 8 ba 05 16
        E 8 ba 05 18
        E 8 ba 05 19
        E 8 ba 05 1b
        E 8 ba 05 1c
        E 8 ba 05 1e
        E 8 ba 05 20
        E 17 ba 05 2c
        E 17 ba 05 2e
        E 17 ba 05 31
        E 17 ba 05 33
        E 17 ba 05 35
        E 17 ba 05 37
        E 17 ba 05 39
        E 17 ba 05 3b
        E 17 ba 05 3d
        E 17 ba 05 3f
        E 17 ba 05 41
        E 17 ba 05 43
        E 17 ba 05 45
        E 17 ba 05 47
        E 17 ba 05 48
        E 17 ba 05 4a
        E 17 ba 05 4c
        E 17 ba 05 4d
        E 17 ba 05 4f
        E 17 ba 05 50
        E 17 ba 05 51
        E 17 ba 05 52
        E 17 ba 05 54
        E 17 ba 05 54
        E 17 ba 05 55
        E 17 ba 05 56
        E 17 ba 05 56
        E 17 ba 05 57
        E 17 ba 05 58
        E 17 ba 05 58
        E 17 ba 05 58
        E 17 ba 05 58
        E 17 ba 05 58
        E 17 ba 05 58
        E 17 ba 05 58
        E 17 ba 05 58
        E 17 ba 05 58
        E 17 ba 05 57
        E 17 ba 05 56
        E 17 ba 05 56
        E 17 ba 05 55
        E 17 ba 05 54
        E 17 ba 05 53
        E 17 ba 05 51
        E 17 ba 05 51
        E 17 ba 05 4f
        E 17 ba 05 4e
        E 17 ba 05 4d
        E 17 ba 05 4b
        E 17 ba 05 49
        E 17 ba 05 48
        E 17 ba 05 46
        E 17 ba 05 44
        E 17 ba 05 42
        E 17 ba 05 40
        E 17 ba 05 3e
        E 17 ba 05 3c
        E 17 ba 05 3a
        E 17 ba 05 38
        E 17 ba 05 36
        E 17 ba 05 33
        E 17 ba 05 31
        E 17 ba 05 2f
        E 17 ba 05 2d
        E 17 ba 05 2b
        E 17 ba 05 29
        E 17 ba 05 27
        E 17 ba 05 25
        E 17 ba 05 22
        E 17 ba 05 20
        E 17 ba 05 1e
        E 17 ba 05 1c
        E 17 ba 05 1a
        E 17 ba 05 18
        E 17 ba 05 16
        E 17 ba 05 14
        E 17 ba 05 12
        E 17 ba 05 10
        E 17 ba 05 0f
        E 17 ba 05 0d
        E 17 ba 05 0b
        E 17 ba 05 0a
        E 17 ba 05 09
        E 17 ba 05 07
        E 17 ba 05 07
        E 17 ba 05 05
        E 17 ba 05 04
        E 17 ba 05 03
        E 17 ba 05 02
        E 17 ba 05 02
        E 17 ba 05 01
        E 17 ba 05 00
        E 17 ba 05 00
        E 17 ba 05 00
        E 17 ba 05 00
        E 17 ba 05 00
        E 17 ba 05 00
        E 17 ba 05 00
        E 17 ba 05 00
        E 17 ba 05 00
        E 17 ba 05 01
        E 17 ba 05 02
        E 17 ba 05 02
        E 17 ba 05 03
        E 17 ba 05 04
        E 17 ba 05 04
        E 17 ba 05 06
        E 17 ba 05 07
        E 17 ba 05 08
        E 17 ba 05 09
        E 17 ba 05 0b
        E 17 ba 05 0c
        E 17 ba 05 0e
        E 17 ba 05 10
        E 17 ba 05 11
        E 17 ba 05 13
        E 17 ba 05 15
        E 17 ba 05 17
        E 17 ba 05 19
        E 17 ba 05 1b
        E 17 ba 05 1d
        E 17 ba 05 1f
        E 17 ba 05 21
        E 17 ba 05 23
        E 17 ba 05 25
        E 17 ba 05 27
        E 17 ba 05 2a
        E 17 ba 05 2c
        E 15 ba 05 33
        E 15 ba 05 35
        E 15 ba 05 37
        E 15 ba 05 3a
        E 15 ba 05 3c
        E 15 ba 05 3f
        E 15 ba 05 41
        E 15 ba 05 44
        E 15 ba 05 46
        E 15 ba 05 48
        E 15 ba 05 4b
        E 15 ba 05 4c
        E 15 ba 05 4f
        E 15 ba 05 51
        E 15 ba 05 53
        E 15 ba 05 54
        E 15 ba 05 57
        E 15 ba 05 58
        E 15 ba 05 5a
        E 15 ba 05 5b
        E 15 ba 05 5d
        E 15 ba 05 5e
        E 15 ba 05 5f
        E 15 ba 05 60
        E 15 ba 05 61
        E 15 ba 05 62
        E 15 ba 05 63
        E 15 ba 05 63
        E 15 ba 05 64
        E 15 ba 05 64
        E 15 ba 05 65
        E 15 ba 05 65
        E 15 ba 05 65
        E 15 ba 05 65
        E 15 ba 05 65
        E 15 ba 05 64
        E 15 ba 05 64
        E 15 ba 05 63
        E 15 ba 05 63
        E 15 ba 05 62
        E 15 ba 05 61
        E 15 ba 05 5f
        E 15 ba 05 5f
        E 15 ba 05 5d
        E 15 ba 05 5c
        E 15 ba 05 5b
        E 15 ba 05 59
        E 15 ba 05 57
        E 15 ba 05 56
        E 15 ba 05 54
        E 15 ba 05 52
        E 15 ba 05 50
        E 15 ba 05 4e
        E 15 ba 05 4c
        E 15 ba 05 49
        E 15 ba 05 47
        E 15 ba 05 45
        E 15 ba 05 43
        E 15 ba 05 40
        E 15 ba 05 3e
        E 15 ba 05 3b
        E 15 ba 05 38
        E 15 ba 05 36
        E 15 ba 05 33
        E 15 ba 05 31
        E 15 ba 05 2f
        E 15 ba 05 2c
        E 15 ba 05 2a
        E 15 ba 05 27
        E 15 ba 05 24
        E 15 ba 05 22
        E 15 ba 05 1f
        E 15 ba 05 1e
        E 15 ba 05 1b
        E 15 ba 05 19
        E 15 ba 05 17
        E 15 ba 05 15
        E 15 ba 05 13
        E 15 ba 05 11
        E 15 ba 05 0f
        E 15 ba 05 0d
        E 15 ba 05 0b
        E 15 ba 05 0a
        E 15 ba 05 08
        E 15 ba 05 07
        E 15 ba 05 06
        E 15 ba 05 05
        E 15 ba 05 03
        E 15 ba 05 03
        E 15 ba 05 02
        E 15 ba 05 01
        E 15 ba 05 00
        E 15 ba 05 00
        E 15 ba 05 00
        E 15 ba 05 00
        E 15 ba 05 00
        E 15 ba 05 00
        E 15 ba 05 00
        E 15 ba 05 00
        E 15 ba 05 00
        E 15 ba 05 01
        E 15 ba 05 02
        E 15 ba 05 03
        E 15 ba 05 03
        E 15 ba 05 04
        E 15 ba 05 05
        E 15 ba 05 07
        E 15 ba 05 07
        E 15 ba 05 09
        E 15 ba 05 0b
        E 15 ba 05 0c
        E 15 ba 05 0e
        E 15 ba 05 10
        E 15 ba 05 12
        E 15 ba 05 14
        E 15 ba 05 16
        E 15 ba 05 18
        E 15 ba 05 1a
        E 15 ba 05 1c
        E 15 ba 05 1f
        E 15 ba 05 21
        E 15 ba 05 24
        E 15 ba 05 26
        E 15 ba 05 28
        E 15 ba 05 2b
        E 15 ba 05 2d
        E 15 ba 05 2f
        E 15 ba 05 33
        E 17 ba 05 06
        E 17 ba 05 06
        E 17 ba 05 07
        E 17 ba 05 07
        E 17 ba 05 07
        E 17 ba 05 07
        E 17 ba 05 08
        E 17 ba 05 08
        E 17 ba 05 08
        E 17 ba 05 09
        E 17 ba 05 09
        E 17 ba 05 09
        E 17 ba 05 09
        E 17 ba 05 0a
        E 17 ba 05 0a
        E 17 ba 05 0a
        E 17 ba 05 0a
        E 17 ba 05 0b
        E 17 ba 05 0b
        E 17 ba 05 0b
        E 17 ba 05 0b
        E 17 ba 05 0b
        E 17 ba 05 0c
        E 17 ba 05 0c
        E 17 ba 05 0c
        E 17 ba 05 0c
        E 17 ba 05 0c
        E 17 ba 05 0c
        E 17 ba 05 0c
        E 17 ba 05 0c
        E 17 ba 05 0c
        E 17 ba 05 0c
        E 17 ba 05 0c
        E 17 ba 05 0c
        E 17 ba 05 0c
        E 17 ba 05 0c
        E 17 ba 05 0c
        E 17 ba 05 0c
        E 17 ba 05 0c
        E 17 ba 05 0c
        E 17 ba 05 0c
        E 17 ba 05 0c
        E 17 ba 05 0b
        E 17 ba 05 0b
        E 17 ba 05 0b
        E 17 ba 05 0b
        E 17 ba 05 0b
        E 17 ba 05 0b
        E 17 ba 05 0a
        E 17 ba 05 0a
        E 17 ba 05 0a
        E 17 ba 05 0a
        E 17 ba 05 09
        E 17 ba 05 09
        E 17 ba 05 09
        E 17 ba 05 08
        E 17 ba 05 08
        E 17 ba 05 08
        E 17 ba 05 08
        E 17 ba 05 07
        E 17 ba 05 07
        E 17 ba 05 07
        E 17 ba 05 06
        E 17 ba 05 06
        E 17 ba 05 06
        E 17 ba 05 05
        E 17 ba 05 05
        E 17 ba 05 05
        E 17 ba 05 04
        E 17 ba 05 04
        E 17 ba 05 04
        E 17 ba 05 04
        E 17 ba 05 03
        E 17 ba 05 03
        E 17 ba 05 03
        E 17 ba 05 02
        E 17 ba 05 02
        E 17 ba 05 02
        E 17 ba 05 02
        E 17 ba 05 01
        E 17 ba 05 01
        E 17 ba 05 01
        E 17 ba 05 01
        E 17 ba 05 01
        E 17 ba 05 01
        E 17 ba 05 00
        E 17 ba 05 00
        E 17 ba 05 00
        E 17 ba 05 00
        E 17 ba 05 00
        E 17 ba 05 00
        E 17 ba 05 00
        E 17 ba 05 00
        E 17 ba 05 00
        E 17 ba 05 00
        E 17 ba 05 00
        E 17 ba 05 00
        E 17 ba 05 00
        E 17 ba 05 00
        E 17 ba 05 00
        E 17 ba 05 00
        E 17 ba 05 00
        E 17 ba 05 00
        E 17 ba 05 00
        E 17 ba 05 00
        E 17 ba 05 00
        E 17 ba 05 00
        E 17 ba 05 01
        E 17 ba 05 01
        E 17 ba 05 01
        E 17 ba 05 01
        E 17 ba 05 01
        E 17 ba 05 02
        E 17 ba 05 02
        E 17 ba 05 02
        E 17 ba 05 02
        E 17 ba 05 03
        E 17 ba 05 03
        E 17 ba 05 03
        E 17 ba 05 03
        E 17 ba 05 04
        E 17 ba 05 04
        E 17 ba 05 04
        E 17 ba 05 05
        E 17 ba 05 05
        E 17 ba 05 05
        E 17 ba 05 06
        E 17 ba 05 06
        E 15 ba 05 19
        E 15 ba 05 1a
        E 15 ba 05 1c
        E 15 ba 05 1d
        E 15 ba 05 1e
        E 15 ba 05 1f
        E 15 ba 05 20
        E 15 ba 05 22
        E 15 ba 05 23
        E 15 ba 05 24
        E 15 ba 05 25
        E 15 ba 05 26
        E 15 ba 05 27
        E 15 ba 05 28
        E 15 ba 05 29
        E 15 ba 05 2a
        E 15 ba 05 2b
        E 15 ba 05 2c
        E 15 ba 05 2d
        E 15 ba 05 2e
        E 15 ba 05 2e
        E 15 ba 05 2f
        E 15 ba 05 30
        E 15 ba 05 30
        E 15 ba 05 30
        E 15 ba 05 31
        E 15 ba 05 31
        E 15 ba 05 32
        E 15 ba 05 32
        E 15 ba 05 32
        E 15 ba 05 32
        E 15 ba 05 32
        E 15 ba 05 32
        E 15 ba 05 32
        E 15 ba 05 32
        E 15 ba 05 32
        E 15 ba 05 32
        E 15 ba 05 32
        E 15 ba 05 31
        E 15 ba 05 31
        E 15 ba 05 30
        E 15 ba 05 30
        E 15 ba 05 2f
        E 15 ba 05 2e
        E 15 ba 05 2e
        E 15 ba 05 2d
        E 15 ba 05 2c
        E 15 ba 05 2c
        E 15 ba 05 2b
        E 15 ba 05 2a
        E 15 ba 05 29
        E 15 ba 05 28
        E 15 ba 05 27
        E 15 ba 05 26
        E 15 ba 05 24
        E 15 ba 05 23
        E 15 ba 05 22
        E 15 ba 05 21
        E 15 ba 05 20
        E 15 ba 05 1f
        E 15 ba 05 1d
        E 15 ba 05 1c
        E 15 ba 05 1b
        E 15 ba 05 1a
        E 15 ba 05 18
        E 15 ba 05 17
        E 15 ba 05 16
        E 15 ba 05 15
        E 15 ba 05 13
        E 15 ba 05 12
        E 15 ba 05 11
        E 15 ba 05 10
        E 15 ba 05 0f
        E 15 ba 05 0e
        E 15 ba 05 0c
        E 15 ba 05 0b
        E 15 ba 05 0a
        E 15 ba 05 09
        E 15 ba 05 08
        E 15 ba 05 07
        E 15 ba 05 06
        E 15 ba 05 06
        E 15 ba 05 05
        E 15 ba 05 04
        E 15 ba 05 04
        E 15 ba 05 03
        E 15 ba 05 02
        E 15 ba 05 02
        E 15 ba 05 01
        E 15 ba 05 01
        E 15 ba 05 00
        E 15 ba 05 00
        E 15 ba 05 00
        E 15 ba 05 00
        E 15 ba 05 00
        E 15 ba 05 00
        E 15 ba 05 00
        E 15 ba 05 00
        E 15 ba 05 00
        E 15 ba 05 00
        E 15 ba 05 00
        E 15 ba 05 01
        E 15 ba 05 01
        E 15 ba 05 02
        E 15 ba 05 02
        E 15 ba 05 02
        E 15 ba 05 03
        E 15 ba 05 04
        E 15 ba 05 04
        E 15 ba 05 05
        E 15 ba 05 06
        E 15 ba 05 07
        E 15 ba 05 08
        E 15 ba 05 09
        E 15 ba 05 0a
        E 15 ba 05 0b
        E 15 ba 05 0c
        E 15 ba 05 0d
        E 15 ba 05 0e
        E 15 ba 05 0f
        E 15 ba 05 10
        E 15 ba 05 12
        E 15 ba 05 13
        E 15 ba 05 14
        E 15 ba 05 15
        E 15 ba 05 16
        E 15 ba 05 18
        E 15 ba 05 19
        E 8 ba 05 2c
        E 8 ba 05 2e
        E 8 ba 05 31
        E 8 ba 05 33
        E 8 ba 05 35
        E 8 ba 05 37
        E 8 ba 05 39
        E 8 ba 05 3b
        E 8 ba 05 3d
        E 8 ba 05 3f
        E 8 ba 05 41
        E 8 ba 05 43
        E 8 ba 05 45
        E 8 ba 05 47
        E 8 ba 05 48
        E 8 ba 05 4a
        E 8 ba 05 4c
        E 8 ba 05 4d
        E 8 ba 05 4f
        E 8 ba 05 50
        E 8 ba 05 51
        E 8 ba 05 52
        E 8 ba 05 54
        E 8 ba 05 54
        E 8 ba 05 55
        E 8 ba 05 56
        E 8 ba 05 56
        E 8 ba 05 57
        E 8 ba 05 58
        E 8 ba 05 58
        E 8 ba 05 58
        E 8 ba 05 58
        E 8 ba 05 58
        E 8 ba 05 58
        E 8 ba 05 58
        E 8 ba 05 58
        E 8 ba 05 58
        E 8 ba 05 57
        E 8 ba 05 56
        E 8 ba 05 56
        E 8 ba 05 55
        E 8 ba 05 54
        E 8 ba 05 53
        E 8 ba 05 51
        E 8 ba 05 51
        E 8 ba 05 4f
        E 8 ba 05 4e
        E 8 ba 05 4d
        E 8 ba 05 4b
        E 8 ba 05 49
        E 8 ba 05 48
        E 8 ba 05 46
        E 8 ba 05 44
        E 8 ba 05 42
        E 8 ba 05 40
        E 8 ba 05 3e
        E 8 ba 05 3c
        E 8 ba 05 3a
        E 8 ba 05 38
        E 8 ba 05 36
        E 8 ba 05 33
        E 8 ba 05 31
        E 8 ba 05 2f
        E 8 ba 05 2d
        E 8 ba 05 2b
        E 8 ba 05 29
        E 8 ba 05 27
        E 8 ba 05 25
        E 8 ba 05 22
        E 8 ba 05 20
        E 8 ba 05 1e
        E 8 ba 05 1c
        E 8 ba 05 1a
        E 8 ba 05 18
        E 8 ba 05 16
        E 8 ba 05 14
        E 8 ba 05 12
        E 8 ba 05 10
        E 8 ba 05 0f
        E 8 ba 05 0d
        E 8 ba 05 0b
        E 8 ba 05 0a
        E 8 ba 05 09
        E 8 ba 05 07
        E 8 ba 05 07
        E 8 ba 05 05
        E 8 ba 05 04
        E 8 ba 05 03
        E 8 ba 05 02
        E 8 ba 05 02
        E 8 ba 05 01
        E 8 ba 05 00
        E 8 ba 05 00
        E 8 ba 05 00
        E 8 ba 05 00
        E 8 ba 05 00
        E 8 ba 05 00
        E 8 ba 05 00
        E 8 ba 05 00
        E 8 ba 05 00
        E 8 ba 05 01
        E 8 ba 05 02
        E 8 ba 05 02
        E 8 ba 05 03
        E 8 ba 05 04
        E 8 ba 05 04
        E 8 ba 05 06
        E 8 ba 05 07
        E 8 ba 05 08
        E 8 ba 05 09
        E 8 ba 05 0b
        E 8 ba 05 0c
        E 8 ba 05 0e
        E 8 ba 05 10
        E 8 ba 05 11
        E 8 ba 05 13
        E 8 ba 05 15
        E 8 ba 05 17
        E 8 ba 05 19
        E 8 ba 05 1b
        E 8 ba 05 1d
        E 8 ba 05 1f
        E 8 ba 05 21
        E 8 ba 05 23
        E 8 ba 05 25
        E 8 ba 05 27
        E 8 ba 05 2a
        E 8 ba 05 2c
        E 8 ba 05 20
        E 8 ba 05 21
        E 8 ba 05 23
        E 8 ba 05 24
        E 8 ba 05 26
        E 8 ba 05 27
        E 8 ba 05 29
        E 8 ba 05 2a
        E 8 ba 05 2c
        E 8 ba 05 2d
        E 8 ba 05 2f
        E 8 ba 05 30
        E 8 ba 05 31
        E 8 ba 05 33
        E 8 ba 05 34
        E 8 ba 05 35
        E 8 ba 05 36
        E 8 ba 05 37
        E 8 ba 05 38
        E 8 ba 05 39
        E 8 ba 05 3a
        E 8 ba 05 3b
        E 8 ba 05 3c
        E 8 ba 05 3c
        E 8 ba 05 3d
        E 8 ba 05 3d
        E 8 ba 05 3e
        E 8 ba 05 3e
        E 8 ba 05 3f
        E 8 ba 05 3f
        E 8 ba 05 3f
        E 8 ba 05 3f
        E 8 ba 05 3f
        E 8 ba 05 3f
        E 8 ba 05 3f
        E 8 ba 05 3f
        E 8 ba 05 3f
        E 8 ba 05 3e
        E 8 ba 05 3e
        E 8 ba 05 3d
        E 8 ba 05 3d
        E 8 ba 05 3c
        E 8 ba 05 3b
        E 8 ba 05 3a
        E 8 ba 05 3a
        E 8 ba 05 39
        E 8 ba 05 38
        E 8 ba 05 37
        E 8 ba 05 36
        E 8 ba 05 34
        E 8 ba 05 33
        E 8 ba 05 32
        E 8 ba 05 31
        E 8 ba 05 2f
        E 8 ba 05 2e
        E 8 ba 05 2c
        E 8 ba 05 2b
        E 8 ba 05 2a
        E 8 ba 05 28
        E 8 ba 05 27
        E 8 ba 05 25
        E 8 ba 05 23
        E 8 ba 05 22
        E 8 ba 05 20
        E 8 ba 05 1f
        E 8 ba 05 1d
        E 8 ba 05 1c
        E 8 ba 05 1a
        E 8 ba 05 18
        E 8 ba 05 17
        E 8 ba 05 15
        E 8 ba 05 14
        E 8 ba 05 13
        E 8 ba 05 11
        E 8 ba 05 10
        E 8 ba 05 0e
        E 8 ba 05 0d
        E 8 ba 05 0c
        E 8 ba 05 0b
        E 8 ba 05 09
        E 8 ba 05 08
        E 8 ba 05 07
        E 8 ba 05 06
        E 8 ba 05 05
        E 8 ba 05 05
        E 8 ba 05 04
        E 8 ba 05 03
        E 8 ba 05 02
        E 8 ba 05 02
        E 8 ba 05 01
        E 8 ba 05 01
        E 8 ba 05 00
        E 8 ba 05 00
        E 8 ba 05 00
        E 8 ba 05 00
        E 8 ba 05 00
        E 8 ba 05 00
        E 8 ba 05 00
        E 8 ba 05 00
        E 8 ba 05 00
        E 8 ba 05 01
        E 8 ba 05 01
        E 8 ba 05 02
        E 8 ba 05 02
        E 8 ba 05 03
        E 8 ba 05 03
        E 8 ba 05 04
        E 8 ba 05 05
        E 8 ba 05 06
        E 8 ba 05 07
        E 8 ba 05 08
        E 8 ba 05 09
        E 8 ba 05 0a
        E 8 ba 05 0b
        E 8 ba 05 0c
        E 8 ba 05 0e
        E 8 ba 05 0f
        E 8 ba 05 10
        E 8 ba 05 12
        E 8 ba 05 13
        E 8 ba 05 15
        E 8 ba 05 16
        E 8 ba 05 18
        E 8 ba 05 19
        E 8 ba 05 1b
        E 8 ba 05 1c
        E 8 ba 05 1e
        E 8 ba 05 20
        E 11 ba 05 20
        E 11 ba 05 21
        E 11 ba 05 23
        E 11 ba 05 24
        E 11 ba 05 26
        E 11 ba 05 27
        E 11 ba 05 29
        E 11 ba 05 2a
        E 11 ba 05 2c
        E 11 ba 05 2d
        E 11 ba 05 2f
        E 11 ba 05 30
        E 11 ba 05 31
        E 11 ba 05 33
        E 11 ba 05 34
        E 11 ba 05 35
        E 11 ba 05 36
        E 11 ba 05 37
        E 11 ba 05 38
        E 11 ba 05 39
        E 11 ba 05 3a
        E 11 ba 05 3b
        E 11 ba 05 3c
        E 11 ba 05 3c
        E 11 ba 05 3d
        E 11 ba 05 3d
        E 11 ba 05 3e
        E 11 ba 05 3e
        E 11 ba 05 3f
        E 11 ba 05 3f
        E 11 ba 05 3f
        E 11 ba 05 3f
        E 11 ba 05 3f
        E 11 ba 05 3f
        E 11 ba 05 3f
        E 11 ba 05 3f
        E 11 ba 05 3f
        E 11 ba 05 3e
        E 11 ba 05 3e
        E 11 ba 05 3d
        E 11 ba 05 3d
        E 11 ba 05 3c
        E 11 ba 05 3b
        E 11 ba 05 3a
        E 11 ba 05 3a
        E 11 ba 05 39
        E 11 ba 05 38
        E 11 ba 05 37
        E 11 ba 05 36
        E 11 ba 05 34
        E 11 ba 05 33
        E 11 ba 05 32
        E 11 ba 05 31
        E 11 ba 05 2f
        E 11 ba 05 2e
        E 11 ba 05 2c
        E 11 ba 05 2b
        E 11 ba 05 2a
        E 11 ba 05 28
        E 11 ba 05 27
        E 11 ba 05 25
        E 11 ba 05 23
        E 11 ba 05 22
        E 11 ba 05 20
        E 11 ba 05 1f
        E 11 ba 05 1d
        E 11 ba 05 1c
        E 11 ba 05 1a
        E 11 ba 05 18
        E 11 ba 05 17
        E 11 ba 05 15
        E 11 ba 05 14
        E 11 ba 05 13
        E 11 ba 05 11
        E 11 ba 05 10
        E 11 ba 05 0e
        E 11 ba 05 0d
        E 11 ba 05 0c
        E 11 ba 05 0b
        E 11 ba 05 09
        E 11 ba 05 08
        E 11 ba 05 07
        E 11 ba 05 06
        E 11 ba 05 05
        E 11 ba 05 05
        E 11 ba 05 04
        E 11 ba 05 03
        E 11 ba 05 02
        E 11 ba 05 02
        E 11 ba 05 01
        E 11 ba 05 01
        E 11 ba 05 00
        E 11 ba 05 00
        E 11 ba 05 00
        E 11 ba 05 00
        E 11 ba 05 00
        E 11 ba 05 00
        E 11 ba 05 00
        E 11 ba 05 00
        E 11 ba 05 00
        E 11 ba 05 01
        E 11 ba 05 01
        E 11 ba 05 02
        E 11 ba 05 02
        E 11 ba 05 03
        E 11 ba 05 03
        E 11 ba 05 04
        E 11 ba 05 05
        E 11 ba 05 06
        E 11 ba 05 07
        E 11 ba 05 08
        E 11 ba 05 09
        E 11 ba 05 0a
        E 11 ba 05 0b
        E 11 ba 05 0c
        E 11 ba 05 0e
        E 11 ba 05 0f
        E 11 ba 05 10
        E 11 ba 05 12
        E 11 ba 05 13
        E 11 ba 05 15
        E 11 ba 05 16
        E 11 ba 05 18
        E 11 ba 05 19
        E 11 ba 05 1b
        E 11 ba 05 1c
        E 11 ba 05 1e
        E 11 ba 05 20
        E 13 ba 05 40
        E 13 ba 05 43
        E 13 ba 05 46
        E 13 ba 05 49
        E 13 ba 05 4c
        E 13 ba 05 4f
        E 13 ba 05 52
        E 13 ba 05 55
        E 13 ba 05 58
        E 13 ba 05 5b
        E 13 ba 05 5e
        E 13 ba 05 60
        E 13 ba 05 63
        E 13 ba 05 66
        E 13 ba 05 68
        E 13 ba 05 6a
        E 13 ba 05 6d
        E 13 ba 05 6f
        E 13 ba 05 71
        E 13 ba 05 73
        E 13 ba 05 75
        E 13 ba 05 76
        E 13 ba 05 78
        E 13 ba 05 79
        E 13 ba 05 7a
        E 13 ba 05 7b
        E 13 ba 05 7c
        E 13 ba 05 7d
        E 13 ba 05 7e
        E 13 ba 05 7e
        E 13 ba 05 7f
        E 13 ba 05 7f
        E 13 ba 05 7f
        E 13 ba 05 7f
        E 13 ba 05 7f
        E 13 ba 05 7e
        E 13 ba 05 7e
        E 13 ba 05 7d
        E 13 ba 05 7c
        E 13 ba 05 7b
        E 13 ba 05 7a
        E 13 ba 05 78
        E 13 ba 05 77
        E 13 ba 05 75
        E 13 ba 05 74
        E 13 ba 05 72
        E 13 ba 05 70
        E 13 ba 05 6e
        E 13 ba 05 6c
        E 13 ba 05 69
        E 13 ba 05 67
        E 13 ba 05 64
        E 13 ba 05 62
        E 13 ba 05 5f
        E 13 ba 05 5c
        E 13 ba 05 59
        E 13 ba 05 57
        E 13 ba 05 54
        E 13 ba 05 51
        E 13 ba 05 4e
        E 13 ba 05 4a
        E 13 ba 05 47
        E 13 ba 05 44
        E 13 ba 05 41
        E 13 ba 05 3e
        E 13 ba 05 3b
        E 13 ba 05 38
        E 13 ba 05 35
        E 13 ba 05 31
        E 13 ba 05 2e
        E 13 ba 05 2b
        E 13 ba 05 28
        E 13 ba 05 26
        E 13 ba 05 23
        E 13 ba 05 20
        E 13 ba 05 1d
        E 13 ba 05 1b
        E 13 ba 05 18
        E 13 ba 05 16
        E 13 ba 05 13
        E 13 ba 05 11
        E 13 ba 05 0f
        E 13 ba 05 0d
        E 13 ba 05 0b
        E 13 ba 05 0a
        E 13 ba 05 08
        E 13 ba 05 07
        E 13 ba 05 05
        E 13 ba 05 04
        E 13 ba 05 03
        E 13 ba 05 02
        E 13 ba 05 01
        E 13 ba 05 01
        E 13 ba 05 00
        E 13 ba 05 00
        E 13 ba 05 00
        E 13 ba 05 00
        E 13 ba 05 00
        E 13 ba 05 01
        E 13 ba 05 01
        E 13 ba 05 02
        E 13 ba 05 03
        E 13 ba 05 04
        E 13 ba 05 05
        E 13 ba 05 06
        E 13 ba 05 07
        E 13 ba 05 09
        E 13 ba 05 0a
        E 13 ba 05 0c
        E 13 ba 05 0e
        E 13 ba 05 10
        E 13 ba 05 12
        E 13 ba 05 15
        E 13 ba 05 17
        E 13 ba 05 19
        E 13 ba 05 1c
        E 13 ba 05 1f
        E 13 ba 05 21
        E 13 ba 05 24
        E 13 ba 05 27
        E 13 ba 05 2a
        E 13 ba 05 2d
        E 13 ba 05 30
        E 13 ba 05 33
        E 13 ba 05 36
        E 13 ba 05 39
        E 13 ba 05 3c
        E 13 ba 05 40
        E 11 ba 05 39
        E 11 ba 05 3c
        E 11 ba 05 3f
        E 11 ba 05 41
        E 11 ba 05 44
        E 11 ba 05 47
        E 11 ba 05 49
        E 11 ba 05 4c
        E 11 ba 05 4f
        E 11 ba 05 51
        E 11 ba 05 54
        E 11 ba 05 56
        E 11 ba 05 59
        E 11 ba 05 5b
        E 11 ba 05 5d
        E 11 ba 05 5f
        E 11 ba 05 62
        E 11 ba 05 63
        E 11 ba 05 65
        E 11 ba 05 67
        E 11 ba 05 69
        E 11 ba 05 6a
        E 11 ba 05 6c
        E 11 ba 05 6c
        E 11 ba 05 6d
        E 11 ba 05 6e
        E 11 ba 05 6f
        E 11 ba 05 70
        E 11 ba 05 71
        E 11 ba 05 71
        E 11 ba 05 72
        E 11 ba 05 72
        E 11 ba 05 72
        E 11 ba 05 72
        E 11 ba 05 72
        E 11 ba 05 71
        E 11 ba 05 71
        E 11 ba 05 70
        E 11 ba 05 6f
        E 11 ba 05 6e
        E 11 ba 05 6d
        E 11 ba 05 6c
        E 11 ba 05 6b
        E 11 ba 05 69
        E 11 ba 05 68
        E 11 ba 05 66
        E 11 ba 05 64
        E 11 ba 05 63
        E 11 ba 05 61
        E 11 ba 05 5e
        E 11 ba 05 5c
        E 11 ba 05 5a
        E 11 ba 05 58
        E 11 ba 05 55
        E 11 ba 05 52
        E 11 ba 05 50
        E 11 ba 05 4e
        E 11 ba 05 4b
        E 11 ba 05 48
        E 11 ba 05 46
        E 11 ba 05 42
        E 11 ba 05 3f
        E 11 ba 05 3d
        E 11 ba 05 3a
        E 11 ba 05 37
        E 11 ba 05 35
        E 11 ba 05 32
        E 11 ba 05 2f
        E 11 ba 05 2c
        E 11 ba 05 29
        E 11 ba 05 26
        E 11 ba 05 24
        E 11 ba 05 22
        E 11 ba 05 1f
        E 11 ba 05 1c
        E 11 ba 05 1a
        E 11 ba 05 18
        E 11 ba 05 15
        E 11 ba 05 13
        E 11 ba 05 11
        E 11 ba 05 0f
        E 11 ba 05 0d
        E 11 ba 05 0b
        E 11 ba 05 09
        E 11 ba 05 09
        E 11 ba 05 07
        E 11 ba 05 06
        E 11 ba 05 04
        E 11 ba 05 03
        E 11 ba 05 02
        E 11 ba 05 01
        E 11 ba 05 00
        E 11 ba 05 00
        E 11 ba 05 00
        E 11 ba 05 00
        E 11 ba 05 00
        E 11 ba 05 00
        E 11 ba 05 00
        E 11 ba 05 00
        E 11 ba 05 00
        E 11 ba 05 01
        E 11 ba 05 02
        E 11 ba 05 03
        E 11 ba 05 04
        E 11 ba 05 05
        E 11 ba 05 06
        E 11 ba 05 08
        E 11 ba 05 09
        E 11 ba 05 0a
        E 11 ba 05 0c
        E 11 ba 05 0e
        E 11 ba 05 10
        E 11 ba 05 12
        E 11 ba 05 14
        E 11 ba 05 16
        E 11 ba 05 19
        E 11 ba 05 1b
        E 11 ba 05 1d
        E 11 ba 05 20
        E 11 ba 05 23
        E 11 ba 05 25
        E 11 ba 05 28
        E 11 ba 05 2b
        E 11 ba 05 2d
        E 11 ba 05 30
        E 11 ba 05 33
        E 11 ba 05 36
        E 11 ba 05 39
        E 8 ba 05 20
        E 8 ba 05 21
        E 8 ba 05 23
        E 8 ba 05 24
        E 8 ba 05 26
        E 8 ba 05 27
        E 8 ba 05 29
        E 8 ba 05 2a
        E 8 ba 05 2c
        E 8 ba 05 2d
        E 8 ba 05 2f
        E 8 ba 05 30
        E 8 ba 05 31
        E 8 ba 05 33
        E 8 ba 05 34
        E 8 ba 05 35
        E 8 ba 05 36
        E 8 ba 05 37
        E 8 ba 05 38
        E 8 ba 05 39
        E 8 ba 05 3a
        E 8 ba 05 3b
        E 8 ba 05 3c
        E 8 ba 05 3c
        E 8 ba 05 3d
        E 8 ba 05 3d
        E 8 ba 05 3e
        E 8 ba 05 3e
        E 8 ba 05 3f
        E 8 ba 05 3f
        E 8 ba 05 3f
        E 8 ba 05 3f
        E 8 ba 05 3f
        E 8 ba 05 3f
        E 8 ba 05 3f
        E 8 ba 05 3f
        E 8 ba 05 3f
        E 8 ba 05 3e
        E 8 ba 05 3e
        E 8 ba 05 3d
        E 8 ba 05 3d
        E 8 ba 05 3c
        E 8 ba 05 3b
        E 8 ba 05 3a
        E 8 ba 05 3a
        E 8 ba 05 39
        E 8 ba 05 38
        E 8 ba 05 37
        E 8 ba 05 36
        E 8 ba 05 34
        E 8 ba 05 33
        E 8 ba 05 32
        E 8 ba 05 31
        E 8 ba 05 2f
        E 8 ba 05 2e
        E 8 ba 05 2c
        E 8 ba 05 2b
        E 8 ba 05 2a
        E 8 ba 05 28
        E 8 ba 05 27
        E 8 ba 05 25
        E 8 ba 05 23
        E 8 ba 05 22
        E 8 ba 05 20
        E 8 ba 05 1f
        E 8 ba 05 1d
        E 8 ba 05 1c
        E 8 ba 05 1a
        E 8 ba 05 18
        E 8 ba 05 17
        E 8 ba 05 15
        E 8 ba 05 14
        E 8 ba 05 13
        E 8 ba 05 11
        E 8 ba 05 10
        E 8 ba 05 0e
        E 8 ba 05 0d
        E 8 ba 05 0c
        E 8 ba 05 0b
        E 8 ba 05 09
        E 8 ba 05 08
        E 8 ba 05 07
        E 8 ba 05 06
        E 8 ba 05 05
        E 8 ba 05 05
        E 8 ba 05 04
        E 8 ba 05 03
        E 8 ba 05 02
        E 8 ba 05 02
        E 8 ba 05 01
        E 8 ba 05 01
        E 8 ba 05 00
        E 8 ba 05 00
        E 8 ba 05 00
        E 8 ba 05 00
        E 8 ba 05 00
        E 8 ba 05 00
        E 8 ba 05 00
        E 8 ba 05 00
        E 8 ba 05 00
        E 8 ba 05 01
        E 8 ba 05 01
        E 8 ba 05 02
        E 8 ba 05 02
        E 8 ba 05 03
        E 8 ba 05 03
        E 8 ba 05 04
        E 8 ba 05 05
        E 8 ba 05 06
        E 8 ba 05 07
        E 8 ba 05 08
        E 8 ba 05 09
        E 8 ba 05 0a
        E 8 ba 05 0b
        E 8 ba 05 0c
        E 8 ba 05 0e
        E 8 ba 05 0f
        E 8 ba 05 10
        E 8 ba 05 12
        E 8 ba 05 13
        E 8 ba 05 15
        E 8 ba 05 16
        E 8 ba 05 18
        E 8 ba 05 19
        E 8 ba 05 1b
        E 8 ba 05 1c
        E 8 ba 05 1e
        E 8 ba 05 20
        E 8 ba 05 20
        E 8 ba 05 21
        E 8 ba 05 23
        E 8 ba 05 24
        E 8 ba 05 26
        E 8 ba 05 27
        E 8 ba 05 29
        E 8 ba 05 2a
        E 8 ba 05 2c
        E 8 ba 05 2d
        E 8 ba 05 2f
        E 8 ba 05 30
        E 8 ba 05 31
        E 8 ba 05 33
        E 8 ba 05 34
        E 8 ba 05 35
        E 8 ba 05 36
        E 8 ba 05 37
        E 8 ba 05 38
        E 8 ba 05 39
        E 8 ba 05 3a
        E 8 ba 05 3b
        E 8 ba 05 3c
        E 8 ba 05 3c
        E 8 ba 05 3d
        E 8 ba 05 3d
        E 8 ba 05 3e
        E 8 ba 05 3e
        E 8 ba 05 3f
        E 8 ba 05 3f
        E 8 ba 05 3f
        E 8 ba 05 3f
        E 8 ba 05 3f
        E 8 ba 05 3f
        E 8 ba 05 3f
        E 8 ba 05 3f
        E 8 ba 05 3f
        E 8 ba 05 3e
        E 8 ba 05 3e
        E 8 ba 05 3d
        E 8 ba 05 3d
        E 8 ba 05 3c
        E 8 ba 05 3b
        E 8 ba 05 3a
        E 8 ba 05 3a
        E 8 ba 05 39
        E 8 ba 05 38
        E 8 ba 05 37
        E 8 ba 05 36
        E 8 ba 05 34
        E 8 ba 05 33
        E 8 ba 05 32
        E 8 ba 05 31
        E 8 ba 05 2f
        E 8 ba 05 2e
        E 8 ba 05 2c
        E 8 ba 05 2b
        E 8 ba 05 2a
        E 8 ba 05 28
        E 8 ba 05 27
        E 8 ba 05 25
        E 8 ba 05 23
        E 8 ba 05 22
        E 8 ba 05 20
        E 8 ba 05 1f
        E 8 ba 05 1d
        E 8 ba 05 1c
        E 8 ba 05 1a
        E 8 ba 05 18
        E 8 ba 05 17
        E 8 ba 05 15
        E 8 ba 05 14
        E 8 ba 05 13
        E 8 ba 05 11
        E 8 ba 05 10
        E 8 ba 05 0e
        E 8 ba 05 0d
        E 8 ba 05 0c
        E 8 ba 05 0b
        E 8 ba 05 09
        E 8 ba 05 08
        E 8 ba 05 07
        E 8 ba 05 06
        E 8 ba 05 05
        E 8 ba 05 05
        E 8 ba 05 04
        E 8 ba 05 03
        E 8 ba 05 02
        E 8 ba 05 02
        E 8 ba 05 01
        E 8 ba 05 01
        E 8 ba 05 00
        E 8 ba 05 00
        E 8 ba 05 00
        E 8 ba 05 00
        E 8 ba 05 00
        E 8 ba 05 00
        E 8 ba 05 00
        E 8 ba 05 00
        E 8 ba 05 00
        E 8 ba 05 01
        E 8 ba 05 01
        E 8 ba 05 02
        E 8 ba 05 02
        E 8 ba 05 03
        E 8 ba 05 03
        E 8 ba 05 04
        E 8 ba 05 05
        E 8 ba 05 06
        E 8 ba 05 07
        E 8 ba 05 08
        E 8 ba 05 09
        E 8 ba 05 0a
        E 8 ba 05 0b
        E 8 ba 05 0c
        E 8 ba 05 0e
        E 8 ba 05 0f
        E 8 ba 05 10
        E 8 ba 05 12
        E 8 ba 05 13
        E 8 ba 05 15
        E 8 ba 05 16
        E 8 ba 05 18
        E 8 ba 05 19
        E 8 ba 05 1b
        E 8 ba 05 1c
        E 8 ba 05 1e
        E 8 ba 05 20
        E 17 ba 05 2c
        E 17 ba 05 2e
        E 17 ba 05 31
        E 17 ba 05 33
        E 17 ba 05 35
        E 17 ba 05 37
        E 17 ba 05 39
        E 17 ba 05 3b
        E 17 ba 05 3d
        E 17 ba 05 3f
        E 17 ba 05 41
        E 17 ba 05 43
        E 17 ba 05 45
        E 17 ba 05 47
        E 17 ba 05 48
        E 17 ba 05 4a
        E 17 ba 05 4c
        E 17 ba 05 4d
        E 17 ba 05 4f
        E 17 ba 05 50
        E 17 ba 05 51
        E 17 ba 05 52
        E 17 ba 05 54
        E 17 ba 05 54
        E 17 ba 05 55
        E 17 ba 05 56
        E 17 ba 05 56
        E 17 ba 05 57
        E 17 ba 05 58
        E 17 ba 05 58
        E 17 ba 05 58
        E 17 ba 05 58
        E 17 ba 05 58
        E 17 ba 05 58
        E 17 ba 05 58
        E 17 ba 05 58
        E 17 ba 05 58
        E 17 ba 05 57
        E 17 ba 05 56
        E 17 ba 05 56
        E 17 ba 05 55
        E 17 ba 05 54
        E 17 ba 05 53
        E 17 ba 05 51
        E 17 ba 05 51
        E 17 ba 05 4f
        E 17 ba 05 4e
        E 17 ba 05 4d
        E 17 ba 05 4b
        E 17 ba 05 49
        E 17 ba 05 48
        E 17 ba 05 46
        E 17 ba 05 44
        E 17 ba 05 42
        E 17 ba 05 40
        E 17 ba 05 3e
        E 17 ba 05 3c
        E 17 ba 05 3a
        E 17 ba 05 38
        E 17 ba 05 36
        E 17 ba 05 33
        E 17 ba 05 31
        E 17 ba 05 2f
        E 17 ba 05 2d
        E 17 ba 05 2b
        E 17 ba 05 29
        E 17 ba 05 27
        E 17 ba 05 25
        E 17 ba 05 22
        E 17 ba 05 20
        E 17 ba 05 1e
        E 17 ba 05 1c
        E 17 ba 05 1a
        E 17 ba 05 18
        E 17 ba 05 16
        E 17 ba 05 14
        E 17 ba 05 12
        E 17 ba 05 10
        E 17 ba 05 0f
        E 17 ba 05 0d
        E 17 ba 05 0b
        E 17 ba 05 0a
        E 17 ba 05 09
        E 17 ba 05 07
        E 17 ba 05 07
        E 17 ba 05 05
        E 17 ba 05 04
        E 17 ba 05 03
        E 17 ba 05 02
        E 17 ba 05 02
        E 17 ba 05 01
        E 17 ba 05 00
        E 17 ba 05 00
        E 17 ba 05 00
        E 17 ba 05 00
        E 17 ba 05 00
        E 17 ba 05 00
        E 17 ba 05 00
        E 17 ba 05 00
        E 17 ba 05 00
        E 17 ba 05 01
        E 17 ba 05 02
        E 17 ba 05 02
        E 17 ba 05 03
        E 17 ba 05 04
        E 17 ba 05 04
        E 17 ba 05 06
        E 17 ba 05 07
        E 17 ba 05 08
        E 17 ba 05 09
        E 17 ba 05 0b
        E 17 ba 05 0c
        E 17 ba 05 0e
        E 17 ba 05 10
        E 17 ba 05 11
        E 17 ba 05 13
        E 17 ba 05 15
        E 17 ba 05 17
        E 17 ba 05 19
        E 17 ba 05 1b
        E 17 ba 05 1d
        E 17 ba 05 1f
        E 17 ba 05 21
        E 17 ba 05 23
        E 17 ba 05 25
        E 17 ba 05 27
        E 17 ba 05 2a
        E 17 ba 05 2c
        E 15 ba 05 33
        E 15 ba 05 35
        E 15 ba 05 37
        E 15 ba 05 3a
        E 15 ba 05 3c
        E 15 ba 05 3f
        E 15 ba 05 41
        E 15 ba 05 44
        E 15 ba 05 46
        E 15 ba 05 48
        E 15 ba 05 4b
        E 15 ba 05 4c
        E 15 ba 05 4f
        E 15 ba 05 51
        E 15 ba 05 53
        E 15 ba 05 54
        E 15 ba 05 57
        E 15 ba 05 58
        E 15 ba 05 5a
        E 15 ba 05 5b
        E 15 ba 05 5d
        E 15 ba 05 5e
        E 15 ba 05 5f
        E 15 ba 05 60
        E 15 ba 05 61
        E 15 ba 05 62
        E 15 ba 05 63
        E 15 ba 05 63
        E 15 ba 05 64
        E 15 ba 05 64
        E 15 ba 05 65
        E 15 ba 05 65
        E 15 ba 05 65
        E 15 ba 05 65
        E 15 ba 05 65
        E 15 ba 05 64
        E 15 ba 05 64
        E 15 ba 05 63
        E 15 ba 05 63
        E 15 ba 05 62
        E 15 ba 05 61
        E 15 ba 05 5f
        E 15 ba 05 5f
        E 15 ba 05 5d
        E 15 ba 05 5c
        E 15 ba 05 5b
        E 15 ba 05 59
        E 15 ba 05 57
        E 15 ba 05 56
        E 15 ba 05 54
        E 15 ba 05 52
        E 15 ba 05 50
        E 15 ba 05 4e
        E 15 ba 05 4c
        E 15 ba 05 49
        E 15 ba 05 47
        E 15 ba 05 45
        E 15 ba 05 43
        E 15 ba 05 40
        E 15 ba 05 3e
        E 15 ba 05 3b
        E 15 ba 05 38
        E 15 ba 05 36
        E 15 ba 05 33
        E 15 ba 05 31
        E 15 ba 05 2f
        E 15 ba 05 2c
        E 15 ba 05 2a
        E 15 ba 05 27
        E 15 ba 05 24
        E 15 ba 05 22
        E 15 ba 05 1f
        E 15 ba 05 1e
        E 15 ba 05 1b
        E 15 ba 05 19
        E 15 ba 05 17
        E 15 ba 05 15
        E 15 ba 05 13
        E 15 ba 05 11
        E 15 ba 05 0f
        E 15 ba 05 0d
        E 15 ba 05 0b
        E 15 ba 05 0a
        E 15 ba 05 08
        E 15 ba 05 07
        E 15 ba 05 06
        E 15 ba 05 05
        E 15 ba 05 03
        E 15 ba 05 03
        E 15 ba 05 02
        E 15 ba 05 01
        E 15 ba 05 00
        E 15 ba 05 00
        E 15 ba 05 00
        E 15 ba 05 00
        E 15 ba 05 00
        E 15 ba 05 00
        E 15 ba 05 00
        E 15 ba 05 00
        E 15 ba 05 00
        E 15 ba 05 01
        E 15 ba 05 02
        E 15 ba 05 03
        E 15 ba 05 03
        E 15 ba 05 04
        E 15 ba 05 05
        E 15 ba 05 07
        E 15 ba 05 07
        E 15 ba 05 09
        E 15 ba 05 0b
        E 15 ba 05 0c
        E 15 ba 05 0e
        E 15 ba 05 10
        E 15 ba 05 12
        E 15 ba 05 14
        E 15 ba 05 16
        E 15 ba 05 18
        E 15 ba 05 1a
        E 15 ba 05 1c
        E 15 ba 05 1f
        E 15 ba 05 21
        E 15 ba 05 24
        E 15 ba 05 26
        E 15 ba 05 28
        E 15 ba 05 2b
        E 15 ba 05 2d
        E 15 ba 05 2f
        E 15 ba 05 33
        E 17 ba 05 06
        E 17 ba 05 06
        E 17 ba 05 07
        E 17 ba 05 07
        E 17 ba 05 07
        E 17 ba 05 07
        E 17 ba 05 08
        E 17 ba 05 08
        E 17 ba 05 08
        E 17 ba 05 09
        E 17 ba 05 09
        E 17 ba 05 09
        E 17 ba 05 09
        E 17 ba 05 0a
        E 17 ba 05 0a
        E 17 ba 05 0a
        E 17 ba 05 0a
        E 17 ba 05 0b
        E 17 ba 05 0b
        E 17 ba 05 0b
        E 17 ba 05 0b
        E 17 ba 05 0b
        E 17 ba 05 0c
        E 17 ba 05 0c
        E 17 ba 05 0c
        E 17 ba 05 0c
        E 17 ba 05 0c
        E 17 ba 05 0c
        E 17 ba 05 0c
        E 17 ba 05 0c
        E 17 ba 05 0c
        E 17 ba 05 0c
        E 17 ba 05 0c
        E 17 ba 05 0c
        E 17 ba 05 0c
        E 17 ba 05 0c
        E 17 ba 05 0c
        E 17 ba 05 0c
        E 17 ba 05 0c
        E 17 ba 05 0c
        E 17 ba 05 0c
        E 17 ba 05 0c
        E 17 ba 05 0b
        E 17 ba 05 0b
        E 17 ba 05 0b
        E 17 ba 05 0b
        E 17 ba 05 0b
        E 17 ba 05 0b
        E 17 ba 05 0a
        E 17 ba 05 0a
        E 17 ba 05 0a
        E 17 ba 05 0a
        E 17 ba 05 09
        E 17 ba 05 09
        E 17 ba 05 09
        E 17 ba 05 08
        E 17 ba 05 08
        E 17 ba 05 08
        E 17 ba 05 08
        E 17 ba 05 07
        E 17 ba 05 07
        E 17 ba 05 07
        E 17 ba 05 06
        E 17 ba 05 06
        E 17 ba 05 06
        E 17 ba 05 05
        E 17 ba 05 05
        E 17 ba 05 05
        E 17 ba 05 04
        E 17 ba 05 04
        E 17 ba 05 04
        E 17 ba 05 04
        E 17 ba 05 03
        E 17 ba 05 03
        E 17 ba 05 03
        E 17 ba 05 02
        E 17 ba 05 02
        E 17 ba 05 02
        E 17 ba 05 02
        E 17 ba 05 01
        E 17 ba 05 01
        E 17 ba 05 01
        E 17 ba 05 01
        E 17 ba 05 01
        E 17 ba 05 01
        E 17 ba 05 00
        E 17 ba 05 00
        E 17 ba 05 00
        E 17 ba 05 00
        E 17 ba 05 00
        E 17 ba 05 00
        E 17 ba 05 00
        E 17 ba 05 00
        E 17 ba 05 00
        E 17 ba 05 00
        E 17 ba 05 00
        E 17 ba 05 00
        E 17 ba 05 00
        E 17 ba 05 00
        E 17 ba 05 00
        E 17 ba 05 00
        E 17 ba 05 00
        E 17 ba 05 00
        E 17 ba 05 00
        E 17 ba 05 00
        E 17 ba 05 00
        E 17 ba 05 00
        E 17 ba 05 01
        E 17 ba 05 01
        E 17 ba 05 01
        E 17 ba 05 01
        E 17 ba 05 01
        E 17 ba 05 02
        E 17 ba 05 02
        E 17 ba 05 02
        E 17 ba 05 02
        E 17 ba 05 03
        E 17 ba 05 03
        E 17 ba 05 03
        E 17 ba 05 03
        E 17 ba 05 04
        E 17 ba 05 04
        E 17 ba 05 04
        E 17 ba 05 05
        E 17 ba 05 05
        E 17 ba 05 05
        E 17 ba 05 06
        E 17 ba 05 06
        E 15 ba 05 19
        E 15 ba 05 1a
        E 15 ba 05 1c
        E 15 ba 05 1d
        E 15 ba 05 1e
        E 15 ba 05 1f
        E 15 ba 05 20
        E 15 ba 05 22
        E 15 ba 05 23
        E 15 ba 05 24
        E 15 ba 05 25
        E 15 ba 05 26
        E 15 ba 05 27
        E 15 ba 05 28
        E 15 ba 05 29
        E 15 ba 05 2a
        E 15 ba 05 2b
        E 15 ba 05 2c
        E 15 ba 05 2d
        E 15 ba 05 2e
        E 15 ba 05 2e
        E 15 ba 05 2f
        E 15 ba 05 30
        E 15 ba 05 30
        E 15 ba 05 30
        E 15 ba 05 31
        E 15 ba 05 31
        E 15 ba 05 32
        E 15 ba 05 32
        E 15 ba 05 32
        E 15 ba 05 32
        E 15 ba 05 32
        E 15 ba 05 32
        E 15 ba 05 32
        E 15 ba 05 32
        E 15 ba 05 32
        E 15 ba 05 32
        E 15 ba 05 32
        E 15 ba 05 31
        E 15 ba 05 31
        E 15 ba 05 30
        E 15 ba 05 30
        E 15 ba 05 2f
        E 15 ba 05 2e
        E 15 ba 05 2e
        E 15 ba 05 2d
        E 15 ba 05 2c
        E 15 ba 05 2c
        E 15 ba 05 2b
        E 15 ba 05 2a
        E 15 ba 05 29
        E 15 ba 05 28
        E 15 ba 05 27
        E 15 ba 05 26
        E 15 ba 05 24
        E 15 ba 05 23
        E 15 ba 05 22
        E 15 ba 05 21
        E 15 ba 05 20
        E 15 ba 05 1f
        E 15 ba 05 1d
        E 15 ba 05 1c
        E 15 ba 05 1b
        E 15 ba 05 1a
        E 15 ba 05 18
        E 15 ba 05 17
        E 15 ba 05 16
        E 15 ba 05 15
        E 15 ba 05 13
        E 15 ba 05 12
        E 15 ba 05 11
        E 15 ba 05 10
        E 15 ba 05 0f
        E 15 ba 05 0e
        E 15 ba 05 0c
        E 15 ba 05 0b
        E 15 ba 05 0a
        E 15 ba 05 09
        E 15 ba 05 08
        E 15 ba 05 07
        E 15 ba 05 06
        E 15 ba 05 06
        E 15 ba 05 05
        E 15 ba 05 04
        E 15 ba 05 04
        E 15 ba 05 03
        E 15 ba 05 02
        E 15 ba 05 02
        E 15 ba 05 01
        E 15 ba 05 01
        E 15 ba 05 00
        E 15 ba 05 00
        E 15 ba 05 00
        E 15 ba 05 00
        E 15 ba 05 00
        E 15 ba 05 00
        E 15 ba 05 00
        E 15 ba 05 00
        E 15 ba 05 00
        E 15 ba 05 00
        E 15 ba 05 00
        E 15 ba 05 01
        E 15 ba 05 01
        E 15 ba 05 02
        E 15 ba 05 02
        E 15 ba 05 02
        E 15 ba 05 03
        E 15 ba 05 04
        E 15 ba 05 04
        E 15 ba 05 05
        E 15 ba 05 06
        E 15 ba 05 07
        E 15 ba 05 08
        E 15 ba 05 09
        E 15 ba 05 0a
        E 15 ba 05 0b
        E 15 ba 05 0c
        E 15 ba 05 0d
        E 15 ba 05 0e
        E 15 ba 05 0f
        E 15 ba 05 10
        E 15 ba 05 12
        E 15 ba 05 13
        E 15 ba 05 14
        E 15 ba 05 15
        E 15 ba 05 16
        E 15 ba 05 18
        E 15 ba 05 19
        E 8 ba 05 2c
        E 8 ba 05 2e
        E 8 ba 05 31
        E 8 ba 05 33
        E 8 ba 05 35
        E 8 ba 05 37
        E 8 ba 05 39
        E 8 ba 05 3b
        E 8 ba 05 3d
        E 8 ba 05 3f
        E 8 ba 05 41
        E 8 ba 05 43
        E 8 ba 05 45
        E 8 ba 05 47
        E 8 ba 05 48
        E 8 ba 05 4a
        E 8 ba 05 4c
        E 8 ba 05 4d
        E 8 ba 05 4f
        E 8 ba 05 50
        E 8 ba 05 51
        E 8 ba 05 52
        E 8 ba 05 54
        E 8 ba 05 54
        E 8 ba 05 55
        E 8 ba 05 56
        E 8 ba 05 56
        E 8 ba 05 57
        E 8 ba 05 58
        E 8 ba 05 58
        E 8 ba 05 58
        E 8 ba 05 58
        E 8 ba 05 58
        E 8 ba 05 58
        E 8 ba 05 58
        E 8 ba 05 58
        E 8 ba 05 58
        E 8 ba 05 57
        E 8 ba 05 56
        E 8 ba 05 56
        E 8 ba 05 55
        E 8 ba 05 54
        E 8 ba 05 53
        E 8 ba 05 51
        E 8 ba 05 51
        E 8 ba 05 4f
        E 8 ba 05 4e
        E 8 ba 05 4d
        E 8 ba 05 4b
        E 8 ba 05 49
        E 8 ba 05 48
        E 8 ba 05 46
        E 8 ba 05 44
        E 8 ba 05 42
        E 8 ba 05 40
        E 8 ba 05 3e
        E 8 ba 05 3c
        E 8 ba 05 3a
        E 8 ba 05 38
        E 8 ba 05 36
        E 8 ba 05 33
        E 8 ba 05 31
        E 8 ba 05 2f
        E 8 ba 05 2d
        E 8 ba 05 2b
        E 8 ba 05 29
        E 8 ba 05 27
        E 8 ba 05 25
        E 8 ba 05 22
        E 8 ba 05 20
        E 8 ba 05 1e
        E 8 ba 05 1c
        E 8 ba 05 1a
        E 8 ba 05 18
        E 8 ba 05 16
        E 8 ba 05 14
        E 8 ba 05 12
        E 8 ba 05 10
        E 8 ba 05 0f
        E 8 ba 05 0d
        E 8 ba 05 0b
        E 8 ba 05 0a
        E 8 ba 05 09
        E 8 ba 05 07
        E 8 ba 05 07
        E 8 ba 05 05
        E 8 ba 05 04
        E 8 ba 05 03
        E 8 ba 05 02
        E 8 ba 05 02
        E 8 ba 05 01
        E 8 ba 05 00
        E 8 ba 05 00
        E 8 ba 05 00
        E 8 ba 05 00
        E 8 ba 05 00
        E 8 ba 05 00
        E 8 ba 05 00
        E 8 ba 05 00
        E 8 ba 05 00
        E 8 ba 05 01
        E 8 ba 05 02
        E 8 ba 05 02
        E 8 ba 05 03
        E 8 ba 05 04
        E 8 ba 05 04
        E 8 ba 05 06
        E 8 ba 05 07
        E 8 ba 05 08
        E 8 ba 05 09
        E 8 ba 05 0b
        E 8 ba 05 0c
        E 8 ba 05 0e
        E 8 ba 05 10
        E 8 ba 05 11
        E 8 ba 05 13
        E 8 ba 05 15
        E 8 ba 05 17
        E 8 ba 05 19
        E 8 ba 05 1b
        E 8 ba 05 1d
        E 8 ba 05 1f
        E 8 ba 05 21
        E 8 ba 05 23
        E 8 ba 05 25
        E 8 ba 05 27
        E 8 ba 05 2a
        E 8 ba 05 2c
        E 8 ba 05 20
        E 8 ba 05 21
        E 8 ba 05 23
        E 8 ba 05 24
        E 8 ba 05 26
        E 8 ba 05 27
        E 8 ba 05 29
        E 8 ba 05 2a
        E 8 ba 05 2c
        E 8 ba 05 2d
        E 8 ba 05 2f
        E 8 ba 05 30
        E 8 ba 05 31
        E 8 ba 05 33
        E 8 ba 05 34
        E 8 ba 05 35
        E 8 ba 05 36
        E 8 ba 05 37
        E 8 ba 05 38
        E 8 ba 05 39
        E 8 ba 05 3a
        E 8 ba 05 3b
        E 8 ba 05 3c
        E 8 ba 05 3c
        E 8 ba 05 3d
        E 8 ba 05 3d
        E 8 ba 05 3e
        E 8 ba 05 3e
        E 8 ba 05 3f
        E 8 ba 05 3f
        E 8 ba 05 3f
        E 8 ba 05 3f
        E 8 ba 05 3f
        E 8 ba 05 3f
        E 8 ba 05 3f
        E 8 ba 05 3f
        E 8 ba 05 3f
        E 8 ba 05 3e
        E 8 ba 05 3e
        E 8 ba 05 3d
        E 8 ba 05 3d
        E 8 ba 05 3c
        E 8 ba 05 3b
        E 8 ba 05 3a
        E 8 ba 05 3a
        E 8 ba 05 39
        E 8 ba 05 38
        E 8 ba 05 37
        E 8 ba 05 36
        E 8 ba 05 34
        E 8 ba 05 33
        E 8 ba 05 32
        E 8 ba 05 31
        E 8 ba 05 2f
        E 8 ba 05 2e
        E 8 ba 05 2c
        E 8 ba 05 2b
        E 8 ba 05 2a
        E 8 ba 05 28
        E 8 ba 05 27
        E 8 ba 05 25
        E 8 ba 05 23
        E 8 ba 05 22
        E 8 ba 05 20
        E 8 ba 05 1f
        E 8 ba 05 1d
        E 8 ba 05 1c
        E 8 ba 05 1a
        E 8 ba 05 18
        E 8 ba 05 17
        E 8 ba 05 15
        E 8 ba 05 14
        E 8 ba 05 13
        E 8 ba 05 11
        E 8 ba 05 10
        E 8 ba 05 0e
        E 8 ba 05 0d
        E 8 ba 05 0c
        E 8 ba 05 0b
        E 8 ba 05 09
        E 8 ba 05 08
        E 8 ba 05 07
        E 8 ba 05 06
        E 8 ba 05 05
        E 8 ba 05 05
        E 8 ba 05 04
        E 8 ba 05 03
        E 8 ba 05 02
        E 8 ba 05 02
        E 8 ba 05 01
        E 8 ba 05 01
        E 8 ba 05 00
        E 8 ba 05 00
        E 8 ba 05 00
        E 8 ba 05 00
        E 8 ba 05 00
        E 8 ba 05 00
        E 8 ba 05 00
        E 8 ba 05 00
        E 8 ba 05 00
        E 8 ba 05 01
        E 8 ba 05 01
        E 8 ba 05 02
        E 8 ba 05 02
        E 8 ba 05 03
        E 8 ba 05 03
        E 8 ba 05 04
        E 8 ba 05 05
        E 8 ba 05 06
        E 8 ba 05 07
        E 8 ba 05 08
        E 8 ba 05 09
        E 8 ba 05 0a
        E 8 ba 05 0b
        E 8 ba 05 0c
        E 8 ba 05 0e
        E 8 ba 05 0f
        E 8 ba 05 10
        E 8 ba 05 12
        E 8 ba 05 13
        E 8 ba 05 15
        E 8 ba 05 16
        E 8 ba 05 18
        E 8 ba 05 19
        E 8 ba 05 1b
        E 8 ba 05 1c
        E 8 ba 05 1e
        E 8 ba 05 20
        E 11 ba 05 20
        E 11 ba 05 21
        E 11 ba 05 23
        E 11 ba 05 24
        E 11 ba 05 26
        E 11 ba 05 27
        E 11 ba 05 29
        E 11 ba 05 2a
        E 11 ba 05 2c
        E 11 ba 05 2d
        E 11 ba 05 2f
        E 11 ba 05 30
        E 11 ba 05 31
        E 11 ba 05 33
        E 11 ba 05 34
        E 11 ba 05 35
        E 11 ba 05 36
        E 11 ba 05 37
        E 11 ba 05 38
        E 11 ba 05 39
        E 11 ba 05 3a
        E 11 ba 05 3b
        E 11 ba 05 3c
        E 11 ba 05 3c
        E 11 ba 05 3d
        E 11 ba 05 3d
        E 11 ba 05 3e
        E 11 ba 05 3e
        E 11 ba 05 3f
        E 11 ba 05 3f
        E 11 ba 05 3f
        E 11 ba 05 3f
        E 11 ba 05 3f
        E 11 ba 05 3f
        E 11 ba 05 3f
        E 11 ba 05 3f
        E 11 ba 05 3f
        E 11 ba 05 3e
        E 11 ba 05 3e
        E 11 ba 05 3d
        E 11 ba 05 3d
        E 11 ba 05 3c
        E 11 ba 05 3b
        E 11 ba 05 3a
        E 11 ba 05 3a
        E 11 ba 05 39
        E 11 ba 05 38
        E 11 ba 05 37
        E 11 ba 05 36
        E 11 ba 05 34
        E 11 ba 05 33
        E 11 ba 05 32
        E 11 ba 05 31
        E 11 ba 05 2f
        E 11 ba 05 2e
        E 11 ba 05 2c
        E 11 ba 05 2b
        E 11 ba 05 2a
        E 11 ba 05 28
        E 11 ba 05 27
        E 11 ba 05 25
        E 11 ba 05 23
        E 11 ba 05 22
        E 11 ba 05 20
        E 11 ba 05 1f
        E 11 ba 05 1d
        E 11 ba 05 1c
        E 11 ba 05 1a
        E 11 ba 05 18
        E 11 ba 05 17
        E 11 ba 05 15
        E 11 ba 05 14
        E 11 ba 05 13
        E 11 ba 05 11
        E 11 ba 05 10
        E 11 ba 05 0e
        E 11 ba 05 0d
        E 11 ba 05 0c
        E 11 ba 05 0b
        E 11 ba 05 09
        E 11 ba 05 08
        E 11 ba 05 07
        E 11 ba 05 06
        E 11 ba 05 05
        E 11 ba 05 05
        E 11 ba 05 04
        E 11 ba 05 03
        E 11 ba 05 02
        E 11 ba 05 02
        E 11 ba 05 01
        E 11 ba 05 01
        E 11 ba 05 00
        E 11 ba 05 00
        E 11 ba 05 00
        E 11 ba 05 00
        E 11 ba 05 00
        E 11 ba 05 00
        E 11 ba 05 00
        E 11 ba 05 00
        E 11 ba 05 00
        E 11 ba 05 01
        E 11 ba 05 01
        E 11 ba 05 02
        E 11 ba 05 02
        E 11 ba 05 03
        E 11 ba 05 03
        E 11 ba 05 04
        E 11 ba 05 05
        E 11 ba 05 06
        E 11 ba 05 07
        E 11 ba 05 08
        E 11 ba 05 09
        E 11 ba 05 0a
        E 11 ba 05 0b
        E 11 ba 05 0c
        E 11 ba 05 0e
        E 11 ba 05 0f
        E 11 ba 05 10
        E 11 ba 05 12
        E 11 ba 05 13
        E 11 ba 05 15
        E 11 ba 05 16
        E 11 ba 05 18
        E 11 ba 05 19
        E 11 ba 05 1b
        E 11 ba 05 1c
        E 11 ba 05 1e
        E 11 ba 05 20
        E 13 ba 05 40
        E 13 ba 05 43
        E 13 ba 05 46
        E 13 ba 05 49
        E 13 ba 05 4c
        E 13 ba 05 4f
        E 13 ba 05 52
        E 13 ba 05 55
        E 13 ba 05 58
        E 13 ba 05 5b
        E 13 ba 05 5e
        E 13 ba 05 60
        E 13 ba 05 63
        E 13 ba 05 66
        E 13 ba 05 68
        E 13 ba 05 6a
        E 13 ba 05 6d
        E 13 ba 05 6f
        E 13 ba 05 71
        E 13 ba 05 73
        E 13 ba 05 75
        E 13 ba 05 76
        E 13 ba 05 78
        E 13 ba 05 79
        E 13 ba 05 7a
        E 13 ba 05 7b
        E 13 ba 05 7c
        E 13 ba 05 7d
        E 13 ba 05 7e
        E 13 ba 05 7e
        E 13 ba 05 7f
        E 13 ba 05 7f
        E 13 ba 05 7f
        E 13 ba 05 7f
        E 13 ba 05 7f
        E 13 ba 05 7e
        E 13 ba 05 7e
        E 13 ba 05 7d
        E 13 ba 05 7c
        E 13 ba 05 7b
        E 13 ba 05 7a
        E 13 ba 05 78
        E 13 ba 05 77
        E 13 ba 05 75
        E 13 ba 05 74
        E 13 ba 05 72
        E 13 ba 05 70
        E 13 ba 05 6e
        E 13 ba 05 6c
        E 13 ba 05 69
        E 13 ba 05 67
        E 13 ba 05 64
        E 13 ba 05 62
        E 13 ba 05 5f
        E 13 ba 05 5c
        E 13 ba 05 59
        E 13 ba 05 57
        E 13 ba 05 54
        E 13 ba 05 51
        E 13 ba 05 4e
        E 13 ba 05 4a
        E 13 ba 05 47
        E 13 ba 05 44
        E 13 ba 05 41
        E 13 ba 05 3e
        E 13 ba 05 3b
        E 13 ba 05 38
        E 13 ba 05 35
        E 13 ba 05 31
        E 13 ba 05 2e
        E 13 ba 05 2b
        E 13 ba 05 28
        E 13 ba 05 26
        E 13 ba 05 23
        E 13 ba 05 20
        E 13 ba 05 1d
        E 13 ba 05 1b
        E 13 ba 05 18
        E 13 ba 05 16
        E 13 ba 05 13
        E 13 ba 05 11
        E 13 ba 05 0f
        E 13 ba 05 0d
        E 13 ba 05 0b
        E 13 ba 05 0a
        E 13 ba 05 08
        E 13 ba 05 07
        E 13 ba 05 05
        E 13 ba 05 04
        E 13 ba 05 03
        E 13 ba 05 02
        E 13 ba 05 01
        E 13 ba 05 01
        E 13 ba 05 00
        E 13 ba 05 00
        E 13 ba 05 00
        E 13 ba 05 00
        E 13 ba 05 00
        E 13 ba 05 01
        E 13 ba 05 01
        E 13 ba 05 02
        E 13 ba 05 03
        E 13 ba 05 04
        E 13 ba 05 05
        E 13 ba 05 06
        E 13 ba 05 07
        E 13 ba 05 09
        E 13 ba 05 0a
        E 13 ba 05 0c
        E 13 ba 05 0e
        E 13 ba 05 10
        E 13 ba 05 12
        E 13 ba 05 15
        E 13 ba 05 17
        E 13 ba 05 19
        E 13 ba 05 1c
        E 13 ba 05 1f
        E 13 ba 05 21
        E 13 ba 05 24
        E 13 ba 05 27
        E 13 ba 05 2a
        E 13 ba 05 2d
        E 13 ba 05 30
        E 13 ba 05 33
        E 13 ba 05 36
        E 13 ba 05 39
        E 13 ba 05 3c
        E 13 ba 05 40
        E 1 ba 05 39
        E 1 ba 05 3c
        E 1 ba 05 3f
        E 1 ba 05 41
        E 1 ba 05 44
        E 1 ba 05 47
        E 1 ba 05 49
        E 1 ba 05 4c
        E 1 ba 05 4f
        E 1 ba 05 51
        E 1 ba 05 54
        E 1 ba 05 56
        E 1 ba 05 59
        E 1 ba 05 5b
        E 1 ba 05 5d
        E 1 ba 05 5f
        E 1 ba 05 62
        E 1 ba 05 63
        E 1 ba 05 65
        E 1 ba 05 67
        E 1 ba 05 69
        E 1 ba 05 6a
        E 1 ba 05 6c
        E 1 ba 05 6c
        E 1 ba 05 6d
        E 1 ba 05 6e
        E 1 ba 05 6f
        E 1 ba 05 70
        E 1 ba 05 71
        E 1 ba 05 71
        E 1 ba 05 72
        E 1 ba 05 72
        E 1 ba 05 72
        E 1 ba 05 72
        E 1 ba 05 72
        E 1 ba 05 71
        E 1 ba 05 71
        E 1 ba 05 70
        E 1 ba 05 6f
        E 1 ba 05 6e
        E 1 ba 05 6d
        E 1 ba 05 6c
        E 1 ba 05 6b
        E 1 ba 05 69
        E 1 ba 05 68
        E 1 ba 05 66
        E 1 ba 05 64
        E 1 ba 05 63
        E 1 ba 05 61
        E 1 ba 05 5e
        E 1 ba 05 5c
        E 1 ba 05 5a
        E 1 ba 05 58
        E 1 ba 05 55
        E 1 ba 05 52
        E 1 ba 05 50
        E 1 ba 05 4e
        E 1 ba 05 4b
        E 1 ba 05 48
        E 1 ba 05 46
        E 1 ba 05 42
        E 1 ba 05 3f
        E 1 ba 05 3d
        E 1 ba 05 3a
        E 1 ba 05 37
        E 1 ba 05 35
        E 1 ba 05 32
        E 1 ba 05 2f
        E 1 ba 05 2c
        E 1 ba 05 29
        E 1 ba 05 26
        E 1 ba 05 24
        E 1 ba 05 22
        E 1 ba 05 1f
        E 1 ba 05 1c
        E 1 ba 05 1a
        E 1 ba 05 18
        E 1 ba 05 15
        E 1 ba 05 13
        E 1 ba 05 11
        E 1 ba 05 0f
        E 1 ba 05 0d
        E 1 ba 05 0b
        E 1 ba 05 09
        E 1 ba 05 09
        E 1 ba 05 07
        E 1 ba 05 06
        E 1 ba 05 04
        E 1 ba 05 03
        E 1 ba 05 02
        E 1 ba 05 01
        E 1 ba 05 00
        E 1 ba 05 00
        E 1 ba 05 00
        E 1 ba 05 00
        E 1 ba 05 00
        E 1 ba 05 00
        E 1 ba 05 00
        E 1 ba 05 00
        E 1 ba 05 00
        E 1 ba 05 01
        E 1 ba 05 02
        E 1 ba 05 03
        E 1 ba 05 04
        E 1 ba 05 05
        E 1 ba 05 06
        E 1 ba 05 08
        E 1 ba 05 09
        E 1 ba 05 0a
        E 1 ba 05 0c
        E 1 ba 05 0e
        E 1 ba 05 10
        E 1 ba 05 12
        E 1 ba 05 14
        E 1 ba 05 16
        E 1 ba 05 19
        E 1 ba 05 1b
        E 1 ba 05 1d
        E 1 ba 05 20
        E 1 ba 05 23
        E 1 ba 05 25
        E 1 ba 05 28
        E 1 ba 05 2b
        E 1 ba 05 2d
        E 1 ba 05 30
        E 1 ba 05 33
        E 1 ba 05 36
        E 1 ba 05 39
        E 6 ba 05 40
        E 6 ba 05 43
        E 6 ba 05 46
        E 6 ba 05 49
        E 6 ba 05 4c
        E 6 ba 05 4f
        E 6 ba 05 52
        E 6 ba 05 55
        E 6 ba 05 58
        E 6 ba 05 5b
        E 6 ba 05 5e
        E 6 ba 05 60
        E 6 ba 05 63
        E 6 ba 05 66
        E 6 ba 05 68
        E 6 ba 05 6a
        E 6 ba 05 6d
        E 6 ba 05 6f
        E 6 ba 05 71
        E 6 ba 05 73
        E 6 ba 05 75
        E 6 ba 05 76
        E 6 ba 05 78
        E 6 ba 05 79
        E 6 ba 05 7a
        E 6 ba 05 7b
        E 6 ba 05 7c
        E 6 ba 05 7d
        E 6 ba 05 7e
        E 6 ba 05 7e
        E 6 ba 05 7f
        E 6 ba 05 7f
        E 6 ba 05 7f
        E 6 ba 05 7f
        E 6 ba 05 7f
        E 6 ba 05 7e
        E 6 ba 05 7e
        E 6 ba 05 7d
        E 6 ba 05 7c
        E 6 ba 05 7b
        E 6 ba 05 7a
        E 6 ba 05 78
        E 6 ba 05 77
        E 6 ba 05 75
        E 6 ba 05 74
        E 6 ba 05 72
        E 6 ba 05 70
        E 6 ba 05 6e
        E 6 ba 05 6c
        E 6 ba 05 69
        E 6 ba 05 67
        E 6 ba 05 64
        E 6 ba 05 62
        E 6 ba 05 5f
        E 6 ba 05 5c
        E 6 ba 05 59
        E 6 ba 05 57
        E 6 ba 05 54
        E 6 ba 05 51
        E 6 ba 05 4e
        E 6 ba 05 4a
        E 6 ba 05 47
        E 6 ba 05 44
        E 6 ba 05 41
        E 6 ba 05 3e
        E 6 ba 05 3b
        E 6 ba 05 38
        E 6 ba 05 35
        E 6 ba 05 31
        E 6 ba 05 2e
        E 6 ba 05 2b
        E 6 ba 05 28
        E 6 ba 05 26
        E 6 ba 05 23
        E 6 ba 05 20
        E 6 ba 05 1d
        E 6 ba 05 1b
        E 6 ba 05 18
        E 6 ba 05 16
        E 6 ba 05 13
        E 6 ba 05 11
        E 6 ba 05 0f
        E 6 ba 05 0d
        E 6 ba 05 0b
        E 6 ba 05 0a
        E 6 ba 05 08
        E 6 ba 05 07
        E 6 ba 05 05
        E 6 ba 05 04
        E 6 ba 05 03
        E 6 ba 05 02
        E 6 ba 05 01
        E 6 ba 05 01
        E 6 ba 05 00
        E 6 ba 05 00
        E 6 ba 05 00
        E 6 ba 05 00
        E 6 ba 05 00
        E 6 ba 05 01
        E 6 ba 05 01
        E 6 ba 05 02
        E 6 ba 05 03
        E 6 ba 05 04
        E 6 ba 05 05
        E 6 ba 05 06
        E 6 ba 05 07
        E 6 ba 05 09
        E 6 ba 05 0a
        E 6 ba 05 0c
        E 6 ba 05 0e
        E 6 ba 05 10
        E 6 ba 05 12
        E 6 ba 05 15
        E 6 ba 05 17
        E 6 ba 05 19
        E 6 ba 05 1c
        E 6 ba 05 1f
        E 6 ba 05 21
        E 6 ba 05 24
        E 6 ba 05 27
        E 6 ba 05 2a
        E 6 ba 05 2d
        E 6 ba 05 30
        E 6 ba 05 33
        E 6 ba 05 36
        E 6 ba 05 39
        E 6 ba 05 3c
        E 6 ba 05 40
        E 11 ba 05 39
        E 11 ba 05 3c
        E 11 ba 05 3f
        E 11 ba 05 41
        E 11 ba 05 44
        E 11 ba 05 47
        E 11 ba 05 49
        E 11 ba 05 4c
        E 11 ba 05 4f
        E 11 ba 05 51
        E 11 ba 05 54
        E 11 ba 05 56
        E 11 ba 05 59
        E 11 ba 05 5b
        E 11 ba 05 5d
        E 11 ba 05 5f
        E 11 ba 05 62
        E 11 ba 05 63
        E 11 ba 05 65
        E 11 ba 05 67
        E 11 ba 05 69
        E 11 ba 05 6a
        E 11 ba 05 6c
        E 11 ba 05 6c
        E 11 ba 05 6d
        E 11 ba 05 6e
        E 11 ba 05 6f
        E 11 ba 05 70
        E 11 ba 05 71
        E 11 ba 05 71
        E 11 ba 05 72
        E 11 ba 05 72
        E 11 ba 05 72
        E 11 ba 05 72
        E 11 ba 05 72
        E 11 ba 05 71
        E 11 ba 05 71
        E 11 ba 05 70
        E 11 ba 05 6f
        E 11 ba 05 6e
        E 11 ba 05 6d
        E 11 ba 05 6c
        E 11 ba 05 6b
        E 11 ba 05 69
        E 11 ba 05 68
        E 11 ba 05 66
        E 11 ba 05 64
        E 11 ba 05 63
        E 11 ba 05 61
        E 11 ba 05 5e
        E 11 ba 05 5c
        E 11 ba 05 5a
        E 11 ba 05 58
        E 11 ba 05 55
        E 11 ba 05 52
        E 11 ba 05 50
        E 11 ba 05 4e
        E 11 ba 05 4b
        E 11 ba 05 48
        E 11 ba 05 46
        E 11 ba 05 42
        E 11 ba 05 3f
        E 11 ba 05 3d
        E 11 ba 05 3a
        E 11 ba 05 37
        E 11 ba 05 35
        E 11 ba 05 32
        E 11 ba 05 2f
        E 11 ba 05 2c
        E 11 ba 05 29
        E 11 ba 05 26
        E 11 ba 05 24
        E 11 ba 05 22
        E 11 ba 05 1f
        E 11 ba 05 1c
        E 11 ba 05 1a
        E 11 ba 05 18
        E 11 ba 05 15
        E 11 ba 05 13
        E 11 ba 05 11
        E 11 ba 05 0f
        E 11 ba 05 0d
        E 11 ba 05 0b
        E 11 ba 05 09
        E 11 ba 05 09
        E 11 ba 05 07
        E 11 ba 05 06
        E 11 ba 05 04
        E 11 ba 05 03
        E 11 ba 05 02
        E 11 ba 05 01
        E 11 ba 05 00
        E 11 ba 05 00
        E 11 ba 05 00
        E 11 ba 05 00
        E 11 ba 05 00
        E 11 ba 05 00
        E 11 ba 05 00
        E 11 ba 05 00
        E 11 ba 05 00
        E 11 ba 05 01
        E 11 ba 05 02
        E 11 ba 05 03
        E 11 ba 05 04
        E 11 ba 05 05
        E 11 ba 05 06
        E 11 ba 05 08
        E 11 ba 05 09
        E 11 ba 05 0a
        E 11 ba 05 0c
        E 11 ba 05 0e
        E 11 ba 05 10
        E 11 ba 05 12
        E 11 ba 05 14
        E 11 ba 05 16
        E 11 ba 05 19
        E 11 ba 05 1b
        E 11 ba 05 1d
        E 11 ba 05 20
        E 11 ba 05 23
        E 11 ba 05 25
        E 11 ba 05 28
        E 11 ba 05 2b
        E 11 ba 05 2d
        E 11 ba 05 30
        E 11 ba 05 33
        E 11 ba 05 36
        E 11 ba 05 39
        E 8 ba 05 20
        E 8 ba 05 21
        E 8 ba 05 23
        E 8 ba 05 24
        E 8 ba 05 26
        E 8 ba 05 27
        E 8 ba 05 29
        E 8 ba 05 2a
        E 8 ba 05 2c
        E 8 ba 05 2d
        E 8 ba 05 2f
        E 8 ba 05 30
        E 8 ba 05 31
        E 8 ba 05 33
        E 8 ba 05 34
        E 8 ba 05 35
        E 8 ba 05 36
        E 8 ba 05 37
        E 8 ba 05 38
        E 8 ba 05 39
        E 8 ba 05 3a
        E 8 ba 05 3b
        E 8 ba 05 3c
        E 8 ba 05 3c
        E 8 ba 05 3d
        E 8 ba 05 3d
        E 8 ba 05 3e
        E 8 ba 05 3e
        E 8 ba 05 3f
        E 8 ba 05 3f
        E 8 ba 05 3f
        E 8 ba 05 3f
        E 8 ba 05 3f
        E 8 ba 05 3f
        E 8 ba 05 3f
        E 8 ba 05 3f
        E 8 ba 05 3f
        E 8 ba 05 3e
        E 8 ba 05 3e
        E 8 ba 05 3d
        E 8 ba 05 3d
        E 8 ba 05 3c
        E 8 ba 05 3b
        E 8 ba 05 3a
        E 8 ba 05 3a
        E 8 ba 05 39
        E 8 ba 05 38
        E 8 ba 05 37
        E 8 ba 05 36
        E 8 ba 05 34
        E 8 ba 05 33
        E 8 ba 05 32
        E 8 ba 05 31
        E 8 ba 05 2f
        E 8 ba 05 2e
        E 8 ba 05 2c
        E 8 ba 05 2b
        E 8 ba 05 2a
        E 8 ba 05 28
        E 8 ba 05 27
        E 8 ba 05 25
        E 8 ba 05 23
        E 8 ba 05 22
        E 8 ba 05 20
        E 8 ba 05 1f
        E 8 ba 05 1d
        E 8 ba 05 1c
        E 8 ba 05 1a
        E 8 ba 05 18
        E 8 ba 05 17
        E 8 ba 05 15
        E 8 ba 05 14
        E 8 ba 05 13
        E 8 ba 05 11
        E 8 ba 05 10
        E 8 ba 05 0e
        E 8 ba 05 0d
        E 8 ba 05 0c
        E 8 ba 05 0b
        E 8 ba 05 09
        E 8 ba 05 08
        E 8 ba 05 07
        E 8 ba 05 06
        E 8 ba 05 05
        E 8 ba 05 05
        E 8 ba 05 04
        E 8 ba 05 03
        E 8 ba 05 02
        E 8 ba 05 02
        E 8 ba 05 01
        E 8 ba 05 01
        E 8 ba 05 00
        E 8 ba 05 00
        E 8 ba 05 00
        E 8 ba 05 00
        E 8 ba 05 00
        E 8 ba 05 00
        E 8 ba 05 00
        E 8 ba 05 00
        E 8 ba 05 00
        E 8 ba 05 01
        E 8 ba 05 01
        E 8 ba 05 02
        E 8 ba 05 02
        E 8 ba 05 03
        E 8 ba 05 03
        E 8 ba 05 04
        E 8 ba 05 05
        E 8 ba 05 06
        E 8 ba 05 07
        E 8 ba 05 08
        E 8 ba 05 09
        E 8 ba 05 0a
        E 8 ba 05 0b
        E 8 ba 05 0c
        E 8 ba 05 0e
        E 8 ba 05 0f
        E 8 ba 05 10
        E 8 ba 05 12
        E 8 ba 05 13
        E 8 ba 05 15
        E 8 ba 05 16
        E 8 ba 05 18
        E 8 ba 05 19
        E 8 ba 05 1b
        E 8 ba 05 1c
        E 8 ba 05 1e
        E 8 ba 05 20
        E 8 ba 05 20
        E 8 ba 05 21
        E 8 ba 05 23
        E 8 ba 05 24
        E 8 ba 05 26
        E 8 ba 05 27
        E 8 ba 05 29
        E 8 ba 05 2a
        E 8 ba 05 2c
        E 8 ba 05 2d
        E 8 ba 05 2f
        E 8 ba 05 30
        E 8 ba 05 31
        E 8 ba 05 33
        E 8 ba 05 34
        E 8 ba 05 35
        E 8 ba 05 36
        E 8 ba 05 37
        E 8 ba 05 38
        E 8 ba 05 39
        E 8 ba 05 3a
        E 8 ba 05 3b
        E 8 ba 05 3c
        E 8 ba 05 3c
        E 8 ba 05 3d
        E 8 ba 05 3d
        E 8 ba 05 3e
        E 8 ba 05 3e
        E 8 ba 05 3f
        E 8 ba 05 3f
        E 8 ba 05 3f
        E 8 ba 05 3f
        E 8 ba 05 3f
        E 8 ba 05 3f
        E 8 ba 05 3f
        E 8 ba 05 3f
        E 8 ba 05 3f
        E 8 ba 05 3e
        E 8 ba 05 3e
        E 8 ba 05 3d
        E 8 ba 05 3d
        E 8 ba 05 3c
        E 8 ba 05 3b
        E 8 ba 05 3a
        E 8 ba 05 3a
        E 8 ba 05 39
        E 8 ba 05 38
        E 8 ba 05 37
        E 8 ba 05 36
        E 8 ba 05 34
        E 8 ba 05 33
        E 8 ba 05 32
        E 8 ba 05 31
        E 8 ba 05 2f
        E 8 ba 05 2e
        E 8 ba 05 2c
        E 8 ba 05 2b
        E 8 ba 05 2a
        E 8 ba 05 28
        E 8 ba 05 27
        E 8 ba 05 25
        E 8 ba 05 23
        E 8 ba 05 22
        E 8 ba 05 20
        E 8 ba 05 1f
        E 8 ba 05 1d
        E 8 ba 05 1c
        E 8 ba 05 1a
        E 8 ba 05 18
        E 8 ba 05 17
        E 8 ba 05 15
        E 8 ba 05 14
        E 8 ba 05 13
        E 8 ba 05 11
        E 8 ba 05 10
        E 8 ba 05 0e
        E 8 ba 05 0d
        E 8 ba 05 0c
        E 8 ba 05 0b
        E 8 ba 05 09
        E 8 ba 05 08
        E 8 ba 05 07
        E 8 ba 05 06
        E 8 ba 05 05
        E 8 ba 05 05
        E 8 ba 05 04
        E 8 ba 05 03
        E 8 ba 05 02
        E 8 ba 05 02
        E 8 ba 05 01
        E 8 ba 05 01
        E 8 ba 05 00
        E 8 ba 05 00
        E 8 ba 05 00
        E 8 ba 05 00
        E 8 ba 05 00
        E 8 ba 05 00
        E 8 ba 05 00
        E 8 ba 05 00
        E 8 ba 05 00
        E 8 ba 05 01
        E 8 ba 05 01
        E 8 ba 05 02
        E 8 ba 05 02
        E 8 ba 05 03
        E 8 ba 05 03
        E 8 ba 05 04
        E 8 ba 05 05
        E 8 ba 05 06
        E 8 ba 05 07
        E 8 ba 05 08
        E 8 ba 05 09
        E 8 ba 05 0a
        E 8 ba 05 0b
        E 8 ba 05 0c
        E 8 ba 05 0e
        E 8 ba 05 0f
        E 8 ba 05 10
        E 8 ba 05 12
        E 8 ba 05 13
        E 8 ba 05 15
        E 8 ba 05 16
        E 8 ba 05 18
        E 8 ba 05 19
        E 8 ba 05 1b
        E 8 ba 05 1c
        E 8 ba 05 1e
        E 8 ba 05 20
        E 17 ba 05 2c
        E 17 ba 05 2e
        E 17 ba 05 31
        E 17 ba 05 33
        E 17 ba 05 35
        E 17 ba 05 37
        E 17 ba 05 39
        E 17 ba 05 3b
        E 17 ba 05 3d
        E 17 ba 05 3f
        E 17 ba 05 41
        E 17 ba 05 43
        E 17 ba 05 45
        E 17 ba 05 47
        E 17 ba 05 48
        E 17 ba 05 4a
        E 17 ba 05 4c
        E 17 ba 05 4d
        E 17 ba 05 4f
        E 17 ba 05 50
        E 17 ba 05 51
        E 17 ba 05 52
        E 17 ba 05 54
        E 17 ba 05 54
        E 17 ba 05 55
        E 17 ba 05 56
        E 17 ba 05 56
        E 17 ba 05 57
        E 17 ba 05 58
        E 17 ba 05 58
        E 17 ba 05 58
        E 17 ba 05 58
        E 17 ba 05 58
        E 17 ba 05 58
        E 17 ba 05 58
        E 17 ba 05 58
        E 17 ba 05 58
        E 17 ba 05 57
        E 17 ba 05 56
        E 17 ba 05 56
        E 17 ba 05 55
        E 17 ba 05 54
        E 17 ba 05 53
        E 17 ba 05 51
        E 17 ba 05 51
        E 17 ba 05 4f
        E 17 ba 05 4e
        E 17 ba 05 4d
        E 17 ba 05 4b
        E 17 ba 05 49
        E 17 ba 05 48
        E 17 ba 05 46
        E 17 ba 05 44
        E 17 ba 05 42
        E 17 ba 05 40
        E 17 ba 05 3e
        E 17 ba 05 3c
        E 17 ba 05 3a
        E 17 ba 05 38
        E 17 ba 05 36
        E 17 ba 05 33
        E 17 ba 05 31
        E 17 ba 05 2f
        E 17 ba 05 2d
        E 17 ba 05 2b
        E 17 ba 05 29
        E 17 ba 05 27
        E 17 ba 05 25
        E 17 ba 05 22
        E 17 ba 05 20
        E 17 ba 05 1e
        E 17 ba 05 1c
        E 17 ba 05 1a
        E 17 ba 05 18
        E 17 ba 05 16
        E 17 ba 05 14
        E 17 ba 05 12
        E 17 ba 05 10
        E 17 ba 05 0f
        E 17 ba 05 0d
        E 17 ba 05 0b
        E 17 ba 05 0a
        E 17 ba 05 09
        E 17 ba 05 07
        E 17 ba 05 07
        E 17 ba 05 05
        E 17 ba 05 04
        E 17 ba 05 03
        E 17 ba 05 02
        E 17 ba 05 02
        E 17 ba 05 01
        E 17 ba 05 00
        E 17 ba 05 00
        E 17 ba 05 00
        E 17 ba 05 00
        E 17 ba 05 00
        E 17 ba 05 00
        E 17 ba 05 00
        E 17 ba 05 00
        E 17 ba 05 00
        E 17 ba 05 01
        E 17 ba 05 02
        E 17 ba 05 02
        E 17 ba 05 03
        E 17 ba 05 04
        E 17 ba 05 04
        E 17 ba 05 06
        E 17 ba 05 07
        E 17 ba 05 08
        E 17 ba 05 09
        E 17 ba 05 0b
        E 17 ba 05 0c
        E 17 ba 05 0e
        E 17 ba 05 10
        E 17 ba 05 11
        E 17 ba 05 13
        E 17 ba 05 15
        E 17 ba 05 17
        E 17 ba 05 19
        E 17 ba 05 1b
        E 17 ba 05 1d
        E 17 ba 05 1f
        E 17 ba 05 21
        E 17 ba 05 23
        E 17 ba 05 25
        E 17 ba 05 27
        E 17 ba 05 2a
        E 17 ba 05 2c
        E 15 ba 05 33
        E 15 ba 05 35
        E 15 ba 05 37
        E 15 ba 05 3a
        E 15 ba 05 3c
        E 15 ba 05 3f
        E 15 ba 05 41
        E 15 ba 05 44
        E 15 ba 05 46
        E 15 ba 05 48
        E 15 ba 05 4b
        E 15 ba 05 4c
        E 15 ba 05 4f
        E 15 ba 05 51
        E 15 ba 05 53
        E 15 ba 05 54
        E 15 ba 05 57
        E 15 ba 05 58
        E 15 ba 05 5a
        E 15 ba 05 5b
        E 15 ba 05 5d
        E 15 ba 05 5e
        E 15 ba 05 5f
        E 15 ba 05 60
        E 15 ba 05 61
        E 15 ba 05 62
        E 15 ba 05 63
        E 15 ba 05 63
        E 15 ba 05 64
        E 15 ba 05 64
        E 15 ba 05 65
        E 15 ba 05 65
        E 15 ba 05 65
        E 15 ba 05 65
        E 15 ba 05 65
        E 15 ba 05 64
        E 15 ba 05 64
        E 15 ba 05 63
        E 15 ba 05 63
        E 15 ba 05 62
        E 15 ba 05 61
        E 15 ba 05 5f
        E 15 ba 05 5f
        E 15 ba 05 5d
        E 15 ba 05 5c
        E 15 ba 05 5b
        E 15 ba 05 59
        E 15 ba 05 57
        E 15 ba 05 56
        E 15 ba 05 54
        E 15 ba 05 52
        E 15 ba 05 50
        E 15 ba 05 4e
        E 15 ba 05 4c
        E 15 ba 05 49
        E 15 ba 05 47
        E 15 ba 05 45
        E 15 ba 05 43
        E 15 ba 05 40
        E 15 ba 05 3e
        E 15 ba 05 3b
        E 15 ba 05 38
        E 15 ba 05 36
        E 15 ba 05 33
        E 15 ba 05 31
        E 15 ba 05 2f
        E 15 ba 05 2c
        E 15 ba 05 2a
        E 15 ba 05 27
        E 15 ba 05 24
        E 15 ba 05 22
        E 15 ba 05 1f
        E 15 ba 05 1e
        E 15 ba 05 1b
        E 15 ba 05 19
        E 15 ba 05 17
        E 15 ba 05 15
        E 15 ba 05 13
        E 15 ba 05 11
        E 15 ba 05 0f
        E 15 ba 05 0d
        E 15 ba 05 0b
        E 15 ba 05 0a
        E 15 ba 05 08
        E 15 ba 05 07
        E 15 ba 05 06
        E 15 ba 05 05
        E 15 ba 05 03
        E 15 ba 05 03
        E 15 ba 05 02
        E 15 ba 05 01
        E 15 ba 05 00
        E 15 ba 05 00
        E 15 ba 05 00
        E 15 ba 05 00
        E 15 ba 05 00
        E 15 ba 05 00
        E 15 ba 05 00
        E 15 ba 05 00
        E 15 ba 05 00
        E 15 ba 05 01
        E 15 ba 05 02
        E 15 ba 05 03
        E 15 ba 05 03
        E 15 ba 05 04
        E 15 ba 05 05
        E 15 ba 05 07
        E 15 ba 05 07
        E 15 ba 05 09
        E 15 ba 05 0b
        E 15 ba 05 0c
        E 15 ba 05 0e
        E 15 ba 05 10
        E 15 ba 05 12
        E 15 ba 05 14
        E 15 ba 05 16
        E 15 ba 05 18
        E 15 ba 05 1a
        E 15 ba 05 1c
        E 15 ba 05 1f
        E 15 ba 05 21
        E 15 ba 05 24
        E 15 ba 05 26
        E 15 ba 05 28
        E 15 ba 05 2b
        E 15 ba 05 2d
        E 15 ba 05 2f
        E 15 ba 05 33
        E 17 ba 05 06
        E 17 ba 05 06
        E 17 ba 05 07
        E 17 ba 05 07
        E 17 ba 05 07
        E 17 ba 05 07
        E 17 ba 05 08
        E 17 ba 05 08
        E 17 ba 05 08
        E 17 ba 05 09
        E 17 ba 05 09
        E 17 ba 05 09
        E 17 ba 05 09
        E 17 ba 05 0a
        E 17 ba 05 0a
        E 17 ba 05 0a
        E 17 ba 05 0a
        E 17 ba 05 0b
        E 17 ba 05 0b
        E 17 ba 05 0b
        E 17 ba 05 0b
        E 17 ba 05 0b
        E 17 ba 05 0c
        E 17 ba 05 0c
        E 17 ba 05 0c
        E 17 ba 05 0c
        E 17 ba 05 0c
        E 17 ba 05 0c
        E 17 ba 05 0c
        E 17 ba 05 0c
        E 17 ba 05 0c
        E 17 ba 05 0c
        E 17 ba 05 0c
        E 17 ba 05 0c
        E 17 ba 05 0c
        E 17 ba 05 0c
        E 17 ba 05 0c
        E 17 ba 05 0c
        E 17 ba 05 0c
        E 17 ba 05 0c
        E 17 ba 05 0c
        E 17 ba 05 0c
        E 17 ba 05 0b
        E 17 ba 05 0b
        E 17 ba 05 0b
        E 17 ba 05 0b
        E 17 ba 05 0b
        E 17 ba 05 0b
        E 17 ba 05 0a
        E 17 ba 05 0a
        E 17 ba 05 0a
        E 17 ba 05 0a
        E 17 ba 05 09
        E 17 ba 05 09
        E 17 ba 05 09
        E 17 ba 05 08
        E 17 ba 05 08
        E 17 ba 05 08
        E 17 ba 05 08
        E 17 ba 05 07
        E 17 ba 05 07
        E 17 ba 05 07
        E 17 ba 05 06
        E 17 ba 05 06
        E 17 ba 05 06
        E 17 ba 05 05
        E 17 ba 05 05
        E 17 ba 05 05
        E 17 ba 05 04
        E 17 ba 05 04
        E 17 ba 05 04
        E 17 ba 05 04
        E 17 ba 05 03
        E 17 ba 05 03
        E 17 ba 05 03
        E 17 ba 05 02
        E 17 ba 05 02
        E 17 ba 05 02
        E 17 ba 05 02
        E 17 ba 05 01
        E 17 ba 05 01
        E 17 ba 05 01
        E 17 ba 05 01
        E 17 ba 05 01
        E 17 ba 05 01
        E 17 ba 05 00
        E 17 ba 05 00
        E 17 ba 05 00
        E 17 ba 05 00
        E 17 ba 05 00
        E 17 ba 05 00
        E 17 ba 05 00
        E 17 ba 05 00
        E 17 ba 05 00
        E 17 ba 05 00
        E 17 ba 05 00
        E 17 ba 05 00
        E 17 ba 05 00
        E 17 ba 05 00
        E 17 ba 05 00
        E 17 ba 05 00
        E 17 ba 05 00
        E 17 ba 05 00
        E 17 ba 05 00
        E 17 ba 05 00
        E 17 ba 05 00
        E 17 ba 05 00
        E 17 ba 05 01
        E 17 ba 05 01
        E 17 ba 05 01
        E 17 ba 05 01
        E 17 ba 05 01
        E 17 ba 05 02
        E 17 ba 05 02
        E 17 ba 05 02
        E 17 ba 05 02
        E 17 ba 05 03
        E 17 ba 05 03
        E 17 ba 05 03
        E 17 ba 05 03
        E 17 ba 05 04
        E 17 ba 05 04
        E 17 ba 05 04
        E 17 ba 05 05
        E 17 ba 05 05
        E 17 ba 05 05
        E 17 ba 05 06
        E 17 ba 05 06
        E 15 ba 05 19
        E 15 ba 05 1a
        E 15 ba 05 1c
        E 15 ba 05 1d
        E 15 ba 05 1e
        E 15 ba 05 1f
        E 15 ba 05 20
        E 15 ba 05 22
        E 15 ba 05 23
        E 15 ba 05 24
        E 15 ba 05 25
        E 15 ba 05 26
        E 15 ba 05 27
        E 15 ba 05 28
        E 15 ba 05 29
        E 15 ba 05 2a
        E 15 ba 05 2b
        E 15 ba 05 2c
        E 15 ba 05 2d
        E 15 ba 05 2e
        E 15 ba 05 2e
        E 15 ba 05 2f
        E 15 ba 05 30
        E 15 ba 05 30
        E 15 ba 05 30
        E 15 ba 05 31
        E 15 ba 05 31
        E 15 ba 05 32
        E 15 ba 05 32
        E 15 ba 05 32
        E 15 ba 05 32
        E 15 ba 05 32
        E 15 ba 05 32
        E 15 ba 05 32
        E 15 ba 05 32
        E 15 ba 05 32
        E 15 ba 05 32
        E 15 ba 05 32
        E 15 ba 05 31
        E 15 ba 05 31
        E 15 ba 05 30
        E 15 ba 05 30
        E 15 ba 05 2f
        E 15 ba 05 2e
        E 15 ba 05 2e
        E 15 ba 05 2d
        E 15 ba 05 2c
        E 15 ba 05 2c
        E 15 ba 05 2b
        E 15 ba 05 2a
        E 15 ba 05 29
        E 15 ba 05 28
        E 15 ba 05 27
        E 15 ba 05 26
        E 15 ba 05 24
        E 15 ba 05 23
        E 15 ba 05 22
        E 15 ba 05 21
        E 15 ba 05 20
        E 15 ba 05 1f
        E 15 ba 05 1d
        E 15 ba 05 1c
        E 15 ba 05 1b
        E 15 ba 05 1a
        E 15 ba 05 18
        E 15 ba 05 17
        E 15 ba 05 16
        E 15 ba 05 15
        E 15 ba 05 13
        E 15 ba 05 12
        E 15 ba 05 11
        E 15 ba 05 10
        E 15 ba 05 0f
        E 15 ba 05 0e
        E 15 ba 05 0c
        E 15 ba 05 0b
        E 15 ba 05 0a
        E 15 ba 05 09
        E 15 ba 05 08
        E 15 ba 05 07
        E 15 ba 05 06
        E 15 ba 05 06
        E 15 ba 05 05
        E 15 ba 05 04
        E 15 ba 05 04
        E 15 ba 05 03
        E 15 ba 05 02
        E 15 ba 05 02
        E 15 ba 05 01
        E 15 ba 05 01
        E 15 ba 05 00
        E 15 ba 05 00
        E 15 ba 05 00
        E 15 ba 05 00
        E 15 ba 05 00
        E 15 ba 05 00
        E 15 ba 05 00
        E 15 ba 05 00
        E 15 ba 05 00
        E 15 ba 05 00
        E 15 ba 05 00
        E 15 ba 05 01
        E 15 ba 05 01
        E 15 ba 05 02
        E 15 ba 05 02
        E 15 ba 05 02
        E 15 ba 05 03
        E 15 ba 05 04
        E 15 ba 05 04
        E 15 ba 05 05
        E 15 ba 05 06
        E 15 ba 05 07
        E 15 ba 05 08
        E 15 ba 05 09
        E 15 ba 05 0a
        E 15 ba 05 0b
        E 15 ba 05 0c
        E 15 ba 05 0d
        E 15 ba 05 0e
        E 15 ba 05 0f
        E 15 ba 05 10
        E 15 ba 05 12
        E 15 ba 05 13
        E 15 ba 05 14
        E 15 ba 05 15
        E 15 ba 05 16
        E 15 ba 05 18
        E 15 ba 05 19
        E 8 ba 05 2c
        E 8 ba 05 2e
        E 8 ba 05 31
        E 8 ba 05 33
        E 8 ba 05 35
        E 8 ba 05 37
        E 8 ba 05 39
        E 8 ba 05 3b
        E 8 ba 05 3d
        E 8 ba 05 3f
        E 8 ba 05 41
        E 8 ba 05 43
        E 8 ba 05 45
        E 8 ba 05 47
        E 8 ba 05 48
        E 8 ba 05 4a
        E 8 ba 05 4c
        E 8 ba 05 4d
        E 8 ba 05 4f
        E 8 ba 05 50
        E 8 ba 05 51
        E 8 ba 05 52
        E 8 ba 05 54
        E 8 ba 05 54
        E 8 ba 05 55
        E 8 ba 05 56
        E 8 ba 05 56
        E 8 ba 05 57
        E 8 ba 05 58
        E 8 ba 05 58
        E 8 ba 05 58
        E 8 ba 05 58
        E 8 ba 05 58
        E 8 ba 05 58
        E 8 ba 05 58
        E 8 ba 05 58
        E 8 ba 05 58
        E 8 ba 05 57
        E 8 ba 05 56
        E 8 ba 05 56
        E 8 ba 05 55
        E 8 ba 05 54
        E 8 ba 05 53
        E 8 ba 05 51
        E 8 ba 05 51
        E 8 ba 05 4f
        E 8 ba 05 4e
        E 8 ba 05 4d
        E 8 ba 05 4b
        E 8 ba 05 49
        E 8 ba 05 48
        E 8 ba 05 46
        E 8 ba 05 44
        E 8 ba 05 42
        E 8 ba 05 40
        E 8 ba 05 3e
        E 8 ba 05 3c
        E 8 ba 05 3a
        E 8 ba 05 38
        E 8 ba 05 36
        E 8 ba 05 33
        E 8 ba 05 31
        E 8 ba 05 2f
        E 8 ba 05 2d
        E 8 ba 05 2b
        E 8 ba 05 29
        E 8 ba 05 27
        E 8 ba 05 25
        E 8 ba 05 22
        E 8 ba 05 20
        E 8 ba 05 1e
        E 8 ba 05 1c
        E 8 ba 05 1a
        E 8 ba 05 18
        E 8 ba 05 16
        E 8 ba 05 14
        E 8 ba 05 12
        E 8 ba 05 10
        E 8 ba 05 0f
        E 8 ba 05 0d
        E 8 ba 05 0b
        E 8 ba 05 0a
        E 8 ba 05 09
        E 8 ba 05 07
        E 8 ba 05 07
        E 8 ba 05 05
        E 8 ba 05 04
        E 8 ba 05 03
        E 8 ba 05 02
        E 8 ba 05 02
        E 8 ba 05 01
        E 8 ba 05 00
        E 8 ba 05 00
        E 8 ba 05 00
        E 8 ba 05 00
        E 8 ba 05 00
        E 8 ba 05 00
        E 8 ba 05 00
        E 8 ba 05 00
        E 8 ba 05 00
        E 8 ba 05 01
        E 8 ba 05 02
        E 8 ba 05 02
        E 8 ba 05 03
        E 8 ba 05 04
        E 8 ba 05 04
        E 8 ba 05 06
        E 8 ba 05 07
        E 8 ba 05 08
        E 8 ba 05 09
        E 8 ba 05 0b
        E 8 ba 05 0c
        E 8 ba 05 0e
        E 8 ba 05 10
        E 8 ba 05 11
        E 8 ba 05 13
        E 8 ba 05 15
        E 8 ba 05 17
        E 8 ba 05 19
        E 8 ba 05 1b
        E 8 ba 05 1d
        E 8 ba 05 1f
        E 8 ba 05 21
        E 8 ba 05 23
        E 8 ba 05 25
        E 8 ba 05 27
        E 8 ba 05 2a
        E 8 ba 05 2c
        E 8 ba 05 20
        E 8 ba 05 21
        E 8 ba 05 23
        E 8 ba 05 24
        E 8 ba 05 26
        E 8 ba 05 27
        E 8 ba 05 29
        E 8 ba 05 2a
        E 8 ba 05 2c
        E 8 ba 05 2d
        E 8 ba 05 2f
        E 8 ba 05 30
        E 8 ba 05 31
        E 8 ba 05 33
        E 8 ba 05 34
        E 8 ba 05 35
        E 8 ba 05 36
        E 8 ba 05 37
        E 8 ba 05 38
        E 8 ba 05 39
        E 8 ba 05 3a
        E 8 ba 05 3b
        E 8 ba 05 3c
        E 8 ba 05 3c
        E 8 ba 05 3d
        E 8 ba 05 3d
        E 8 ba 05 3e
        E 8 ba 05 3e
        E 8 ba 05 3f
        E 8 ba 05 3f
        E 8 ba 05 3f
        E 8 ba 05 3f
        E 8 ba 05 3f
        E 8 ba 05 3f
        E 8 ba 05 3f
        E 8 ba 05 3f
        E 8 ba 05 3f
        E 8 ba 05 3e
        E 8 ba 05 3e
        E 8 ba 05 3d
        E 8 ba 05 3d
        E 8 ba 05 3c
        E 8 ba 05 3b
        E 8 ba 05 3a
        E 8 ba 05 3a
        E 8 ba 05 39
        E 8 ba 05 38
        E 8 ba 05 37
        E 8 ba 05 36
        E 8 ba 05 34
        E 8 ba 05 33
        E 8 ba 05 32
        E 8 ba 05 31
        E 8 ba 05 2f
        E 8 ba 05 2e
        E 8 ba 05 2c
        E 8 ba 05 2b
        E 8 ba 05 2a
        E 8 ba 05 28
        E 8 ba 05 27
        E 8 ba 05 25
        E 8 ba 05 23
        E 8 ba 05 22
        E 8 ba 05 20
        E 8 ba 05 1f
        E 8 ba 05 1d
        E 8 ba 05 1c
        E 8 ba 05 1a
        E 8 ba 05 18
        E 8 ba 05 17
        E 8 ba 05 15
        E 8 ba 05 14
        E 8 ba 05 13
        E 8 ba 05 11
        E 8 ba 05 10
        E 8 ba 05 0e
        E 8 ba 05 0d
        E 8 ba 05 0c
        E 8 ba 05 0b
        E 8 ba 05 09
        E 8 ba 05 08
        E 8 ba 05 07
        E 8 ba 05 06
        E 8 ba 05 05
        E 8 ba 05 05
        E 8 ba 05 04
        E 8 ba 05 03
        E 8 ba 05 02
        E 8 ba 05 02
        E 8 ba 05 01
        E 8 ba 05 01
        E 8 ba 05 00
        E 8 ba 05 00
        E 8 ba 05 00
        E 8 ba 05 00
        E 8 ba 05 00
        E 8 ba 05 00
        E 8 ba 05 00
        E 8 ba 05 00
        E 8 ba 05 00
        E 8 ba 05 01
        E 8 ba 05 01
        E 8 ba 05 02
        E 8 ba 05 02
        E 8 ba 05 03
        E 8 ba 05 03
        E 8 ba 05 04
        E 8 ba 05 05
        E 8 ba 05 06
        E 8 ba 05 07
        E 8 ba 05 08
        E 8 ba 05 09
        E 8 ba 05 0a
        E 8 ba 05 0b
        E 8 ba 05 0c
        E 8 ba 05 0e
        E 8 ba 05 0f
        E 8 ba 05 10
        E 8 ba 05 12
        E 8 ba 05 13
        E 8 ba 05 15
        E 8 ba 05 16
        E 8 ba 05 18
        E 8 ba 05 19
        E 8 ba 05 1b
        E 8 ba 05 1c
        E 8 ba 05 1e
        E 8 ba 05 20
        E 11 ba 05 20
        E 11 ba 05 21
        E 11 ba 05 23
        E 11 ba 05 24
        E 11 ba 05 26
        E 11 ba 05 27
        E 11 ba 05 29
        E 11 ba 05 2a
        E 11 ba 05 2c
        E 11 ba 05 2d
        E 11 ba 05 2f
        E 11 ba 05 30
        E 11 ba 05 31
        E 11 ba 05 33
        E 11 ba 05 34
        E 11 ba 05 35
        E 11 ba 05 36
        E 11 ba 05 37
        E 11 ba 05 38
        E 11 ba 05 39
        E 11 ba 05 3a
        E 11 ba 05 3b
        E 11 ba 05 3c
        E 11 ba 05 3c
        E 11 ba 05 3d
        E 11 ba 05 3d
        E 11 ba 05 3e
        E 11 ba 05 3e
        E 11 ba 05 3f
        E 11 ba 05 3f
        E 11 ba 05 3f
        E 11 ba 05 3f
        E 11 ba 05 3f
        E 11 ba 05 3f
        E 11 ba 05 3f
        E 11 ba 05 3f
        E 11 ba 05 3f
        E 11 ba 05 3e
        E 11 ba 05 3e
        E 11 ba 05 3d
        E 11 ba 05 3d
        E 11 ba 05 3c
        E 11 ba 05 3b
        E 11 ba 05 3a
        E 11 ba 05 3a
        E 11 ba 05 39
        E 11 ba 05 38
        E 11 ba 05 37
        E 11 ba 05 36
        E 11 ba 05 34
        E 11 ba 05 33
        E 11 ba 05 32
        E 11 ba 05 31
        E 11 ba 05 2f
        E 11 ba 05 2e
        E 11 ba 05 2c
        E 11 ba 05 2b
        E 11 ba 05 2a
        E 11 ba 05 28
        E 11 ba 05 27
        E 11 ba 05 25
        E 11 ba 05 23
        E 11 ba 05 22
        E 11 ba 05 20
        E 11 ba 05 1f
        E 11 ba 05 1d
        E 11 ba 05 1c
        E 11 ba 05 1a
        E 11 ba 05 18
        E 11 ba 05 17
        E 11 ba 05 15
        E 11 ba 05 14
        E 11 ba 05 13
        E 11 ba 05 11
        E 11 ba 05 10
        E 11 ba 05 0e
        E 11 ba 05 0d
        E 11 ba 05 0c
        E 11 ba 05 0b
        E 11 ba 05 09
        E 11 ba 05 08
        E 11 ba 05 07
        E 11 ba 05 06
        E 11 ba 05 05
        E 11 ba 05 05
        E 11 ba 05 04
        E 11 ba 05 03
        E 11 ba 05 02
        E 11 ba 05 02
        E 11 ba 05 01
        E 11 ba 05 01
        E 11 ba 05 00
        E 11 ba 05 00
        E 11 ba 05 00
        E 11 ba 05 00
        E 11 ba 05 00
        E 11 ba 05 00
        E 11 ba 05 00
        E 11 ba 05 00
        E 11 ba 05 00
        E 11 ba 05 01
        E 11 ba 05 01
        E 11 ba 05 02
        E 11 ba 05 02
        E 11 ba 05 03
        E 11 ba 05 03
        E 11 ba 05 04
        E 11 ba 05 05
        E 11 ba 05 06
        E 11 ba 05 07
        E 11 ba 05 08
        E 11 ba 05 09
        E 11 ba 05 0a
        E 11 ba 05 0b
        E 11 ba 05 0c
        E 11 ba 05 0e
        E 11 ba 05 0f
        E 11 ba 05 10
        E 11 ba 05 12
        E 11 ba 05 13
        E 11 ba 05 15
        E 11 ba 05 16
        E 11 ba 05 18
        E 11 ba 05 19
        E 11 ba 05 1b
        E 11 ba 05 1c
        E 11 ba 05 1e
        E 11 ba 05 20
        E 13 ba 05 40
        E 13 ba 05 43
        E 13 ba 05 46
        E 13 ba 05 49
        E 13 ba 05 4c
        E 13 ba 05 4f
        E 13 ba 05 52
        E 13 ba 05 55
        E 13 ba 05 58
        E 13 ba 05 5b
        E 13 ba 05 5e
        E 13 ba 05 60
        E 13 ba 05 63
        E 13 ba 05 66
        E 13 ba 05 68
        E 13 ba 05 6a
        E 13 ba 05 6d
        E 13 ba 05 6f
        E 13 ba 05 71
        E 13 ba 05 73
        E 13 ba 05 75
        E 13 ba 05 76
        E 13 ba 05 78
        E 13 ba 05 79
        E 13 ba 05 7a
        E 13 ba 05 7b
        E 13 ba 05 7c
        E 13 ba 05 7d
        E 13 ba 05 7e
        E 13 ba 05 7e
        E 13 ba 05 7f
        E 13 ba 05 7f
        E 13 ba 05 7f
        E 13 ba 05 7f
        E 13 ba 05 7f
        E 13 ba 05 7e
        E 13 ba 05 7e
        E 13 ba 05 7d
        E 13 ba 05 7c
        E 13 ba 05 7b
        E 13 ba 05 7a
        E 13 ba 05 78
        E 13 ba 05 77
        E 13 ba 05 75
        E 13 ba 05 74
        E 13 ba 05 72
        E 13 ba 05 70
        E 13 ba 05 6e
        E 13 ba 05 6c
        E 13 ba 05 69
        E 13 ba 05 67
        E 13 ba 05 64
        E 13 ba 05 62
        E 13 ba 05 5f
        E 13 ba 05 5c
        E 13 ba 05 59
        E 13 ba 05 57
        E 13 ba 05 54
        E 13 ba 05 51
        E 13 ba 05 4e
        E 13 ba 05 4a
        E 13 ba 05 47
        E 13 ba 05 44
        E 13 ba 05 41
        E 13 ba 05 3e
        E 13 ba 05 3b
        E 13 ba 05 38
        E 13 ba 05 35
        E 13 ba 05 31
        E 13 ba 05 2e
        E 13 ba 05 2b
        E 13 ba 05 28
        E 13 ba 05 26
        E 13 ba 05 23
        E 13 ba 05 20
        E 13 ba 05 1d
        E 13 ba 05 1b
        E 13 ba 05 18
        E 13 ba 05 16
        E 13 ba 05 13
        E 13 ba 05 11
        E 13 ba 05 0f
        E 13 ba 05 0d
        E 13 ba 05 0b
        E 13 ba 05 0a
        E 13 ba 05 08
        E 13 ba 05 07
        E 13 ba 05 05
        E 13 ba 05 04
        E 13 ba 05 03
        E 13 ba 05 02
        E 13 ba 05 01
        E 13 ba 05 01
        E 13 ba 05 00
        E 13 ba 05 00
        E 13 ba 05 00
        E 13 ba 05 00
        E 13 ba 05 00
        E 13 ba 05 01
        E 13 ba 05 01
        E 13 ba 05 02
        E 13 ba 05 03
        E 13 ba 05 04
        E 13 ba 05 05
        E 13 ba 05 06
        E 13 ba 05 07
        E 13 ba 05 09
        E 13 ba 05 0a
        E 13 ba 05 0c
        E 13 ba 05 0e
        E 13 ba 05 10
        E 13 ba 05 12
        E 13 ba 05 15
        E 13 ba 05 17
        E 13 ba 05 19
        E 13 ba 05 1c
        E 13 ba 05 1f
        E 13 ba 05 21
        E 13 ba 05 24
        E 13 ba 05 27
        E 13 ba 05 2a
        E 13 ba 05 2d
        E 13 ba 05 30
        E 13 ba 05 33
        E 13 ba 05 36
        E 13 ba 05 39
        E 13 ba 05 3c
        E 13 ba 05 40
        E 107 b0 7b 00
        CCINTERP 32
        CHASE_CC_TAKEOFFS 1
        GUID {9D6449F1-AC41-044D-A31F-5190FB42FAAE}
        IGNTEMPO 0 120 4 4
        SRCCOLOR 183
        VELLANE 3 601 0
        VELLANE -1 196 0
      >
    >
  >
  <TRACK {E96353B5-AFCD-224D-AD14-27989D4A81DC}
    NAME "insects of the los angeles basin"
    PEAKCOL 16576
    BEAT -1
    AUTOMODE 0
    VOLPAN 1 0 -1 -1 1
    MUTESOLO 0 0 0
    IPHASE 0
    PLAYOFFS 0 1
    ISBUS 0 0
    BUSCOMP 0 0 0 0 0
    SHOWINMIX 1 0.6667 0.5 1 0.5 -1 -1 -1
    FREEMODE 0
    SEL 0
    REC 0 0 1 0 0 0 0
    VU 2
    TRACKHEIGHT 0 1 0 0 -1 0
    INQ 0 0 0 0.5 100 0 0 100
    NCHAN 2
    FX 1
    TRACKID {E96353B5-AFCD-224D-AD14-27989D4A81DC}
    PERF 0
    MIDIOUT -1
    MAINSEND 1 0
    <ITEM
      POSITION 0
      SNAPOFFS 0
      LENGTH 1063.825821
      LOOP 1
      ALLTAKES 0
      FADEIN 1 0 0 1 0 0
      FADEOUT 1 0 0 1 0 0
      MUTE 0 0
      SEL 0
      IGUID {20046EFD-561B-DF42-B7B8-0734227E8F18}
      IID 25
      NAME "insects of the los angeles basin.mid"
      VOLPAN 1 0 1 -1
      SOFFS 0 0
      PLAYRATE 1 1 0 -1 0 0.0025
      CHANMODE 0
      GUID {07E706EA-1657-084F-9D4B-F1291809F1AA}
      <SOURCE MIDI
        HASDATA 1 128 QN
        CCINTERP 32
        POOLEDEVTS {601620F8-0B56-1945-ADA9-53664670269F}
        E 29 bb 07 02
        E 29 bb 07 04
        E 29 bb 07 06
        E 29 bb 07 08
        E 29 bb 07 0a
        E 29 bb 07 0c
        E 29 bb 07 0e
        E 29 bb 07 10
        E 29 bb 07 12
        E 29 bb 07 14
        E 29 bb 07 16
        E 29 bb 07 18
        E 29 bb 07 1a
        E 29 bb 07 1c
        E 29 bb 07 1e
        E 29 bb 07 20
        E 29 bb 07 22
        E 29 bb 07 24
        E 29 bb 07 26
        E 29 bb 07 28
        E 29 bb 07 2a
        E 29 bb 07 2c
        E 29 bb 07 2e
        E 29 bb 07 30
        E 29 bb 07 32
        E 29 bb 07 34
        E 29 bb 07 36
        E 29 bb 07 38
        E 29 bb 07 3a
        E 29 bb 07 3c
        E 29 bb 07 3e
        E 29 bb 07 40
        E 29 bb 07 42
        E 29 bb 07 44
        E 29 bb 07 46
        E 29 bb 07 48
        E 29 bb 07 4a
        E 29 bb 07 4c
        E 29 bb 07 4e
        E 29 bb 07 50
        E 29 bb 07 52
        E 29 bb 07 54
        E 29 bb 07 56
        E 29 bb 07 58
        E 29 bb 07 5a
        E 29 bb 07 5c
        E 29 bb 07 5e
        E 29 bb 07 60
        E 29 bb 07 62
        E 29 bb 07 64
        E 29 bb 07 66
        E 29 bb 07 68
        E 29 bb 07 6a
        E 29 bb 07 6c
        E 29 bb 07 6e
        E 29 bb 07 70
        E 29 bb 07 72
        E 29 bb 07 74
        E 29 bb 07 76
        E 29 bb 07 78
        E 29 bb 07 7a
        E 29 bb 07 7c
        E 29 bb 07 7e
        E 29 bb 07 7f
        E 29 bb 07 7e
        E 29 bb 07 7c
        E 29 bb 07 7a
        E 29 bb 07 78
        E 29 bb 07 76
        E 29 bb 07 74
        E 29 bb 07 72
        E 29 bb 07 70
        E 29 bb 07 6e
        E 29 bb 07 6c
        E 29 bb 07 6a
        E 29 bb 07 68
        E 29 bb 07 66
        E 29 bb 07 64
        E 29 bb 07 62
        E 29 bb 07 60
        E 29 bb 07 5e
        E 29 bb 07 5c
        E 29 bb 07 5a
        E 29 bb 07 58
        E 29 bb 07 56
        E 29 bb 07 54
        E 29 bb 07 52
        E 29 bb 07 50
        E 29 bb 07 4e
        E 29 bb 07 4c
        E 29 bb 07 4a
        E 29 bb 07 48
        E 29 bb 07 46
        E 29 bb 07 44
        E 29 bb 07 42
        E 29 bb 07 40
        E 29 bb 07 3e
        E 29 bb 07 3c
        E 29 bb 07 3a
        E 29 bb 07 38
        E 29 bb 07 36
        E 29 bb 07 34
        E 29 bb 07 32
        E 29 bb 07 30
        E 29 bb 07 2e
        E 29 bb 07 2c
        E 29 bb 07 2a
        E 29 bb 07 28
        E 29 bb 07 26
        E 29 bb 07 24
        E 29 bb 07 22
        E 29 bb 07 20
        E 29 bb 07 1e
        E 29 bb 07 1c
        E 29 bb 07 1a
        E 29 bb 07 18
        E 29 bb 07 16
        E 29 bb 07 14
        E 29 bb 07 12
        E 29 bb 07 10
        E 29 bb 07 0e
        E 29 bb 07 0c
        E 29 bb 07 0a
        E 29 bb 07 08
        E 29 bb 07 06
        E 29 bb 07 04
        E 29 bb 07 02
        E 29 bb 07 00
        E 51 bb 07 01
        E 51 bb 07 03
        E 51 bb 07 05
        E 51 bb 07 07
        E 51 bb 07 09
        E 51 bb 07 0a
        E 51 bb 07 0c
        E 51 bb 07 0e
        E 51 bb 07 10
        E 51 bb 07 12
        E 51 bb 07 13
        E 51 bb 07 15
        E 51 bb 07 17
        E 51 bb 07 19
        E 51 bb 07 1b
        E 51 bb 07 1c
        E 51 bb 07 1e
        E 51 bb 07 20
        E 51 bb 07 22
        E 51 bb 07 24
        E 51 bb 07 25
        E 51 bb 07 27
        E 51 bb 07 29
        E 51 bb 07 2b
        E 51 bb 07 2d
        E 51 bb 07 2e
        E 51 bb 07 30
        E 51 bb 07 32
        E 51 bb 07 34
        E 51 bb 07 36
        E 51 bb 07 37
        E 51 bb 07 39
        E 51 bb 07 3b
        E 51 bb 07 3d
        E 51 bb 07 3f
        E 51 bb 07 40
        E 51 bb 07 42
        E 51 bb 07 44
        E 51 bb 07 46
        E 51 bb 07 48
        E 51 bb 07 49
        E 51 bb 07 4b
        E 51 bb 07 4d
        E 51 bb 07 4f
        E 51 bb 07 51
        E 51 bb 07 52
        E 51 bb 07 54
        E 51 bb 07 56
        E 51 bb 07 58
        E 51 bb 07 5a
        E 51 bb 07 5b
        E 51 bb 07 5d
        E 51 bb 07 5f
        E 51 bb 07 61
        E 51 bb 07 63
        E 51 bb 07 64
        E 51 bb 07 66
        E 51 bb 07 68
        E 51 bb 07 6a
        E 51 bb 07 6c
        E 51 bb 07 6d
        E 51 bb 07 6f
        E 51 bb 07 71
        E 51 bb 07 72
        E 51 bb 07 71
        E 51 bb 07 6f
        E 51 bb 07 6d
        E 51 bb 07 6c
        E 51 bb 07 6a
        E 51 bb 07 68
        E 51 bb 07 66
        E 51 bb 07 64
        E 51 bb 07 63
        E 51 bb 07 61
        E 51 bb 07 5f
        E 51 bb 07 5d
        E 51 bb 07 5b
        E 51 bb 07 5a
        E 51 bb 07 58
        E 51 bb 07 56
        E 51 bb 07 54
        E 51 bb 07 52
        E 51 bb 07 51
        E 51 bb 07 4f
        E 51 bb 07 4d
        E 51 bb 07 4b
        E 51 bb 07 49
        E 51 bb 07 48
        E 51 bb 07 46
        E 51 bb 07 44
        E 51 bb 07 42
        E 51 bb 07 40
        E 51 bb 07 3f
        E 51 bb 07 3d
        E 51 bb 07 3b
        E 51 bb 07 39
        E 51 bb 07 37
        E 51 bb 07 36
        E 51 bb 07 34
        E 51 bb 07 32
        E 51 bb 07 30
        E 51 bb 07 2e
        E 51 bb 07 2d
        E 51 bb 07 2b
        E 51 bb 07 29
        E 51 bb 07 27
        E 51 bb 07 25
        E 51 bb 07 24
        E 51 bb 07 22
        E 51 bb 07 20
        E 51 bb 07 1e
        E 51 bb 07 1c
        E 51 bb 07 1b
        E 51 bb 07 19
        E 51 bb 07 17
        E 51 bb 07 15
        E 51 bb 07 13
        E 51 bb 07 12
        E 51 bb 07 10
        E 51 bb 07 0e
        E 51 bb 07 0c
        E 51 bb 07 0a
        E 51 bb 07 09
        E 51 bb 07 07
        E 51 bb 07 05
        E 51 bb 07 03
        E 51 bb 07 01
        E 51 bb 07 00
        E 36 bb 07 01
        E 36 bb 07 02
        E 36 bb 07 03
        E 36 bb 07 04
        E 36 bb 07 05
        E 36 bb 07 06
        E 36 bb 07 07
        E 36 bb 07 08
        E 36 bb 07 09
        E 36 bb 07 0a
        E 36 bb 07 0b
        E 36 bb 07 0c
        E 36 bb 07 0d
        E 36 bb 07 0e
        E 36 bb 07 0f
        E 36 bb 07 10
        E 36 bb 07 11
        E 36 bb 07 12
        E 36 bb 07 13
        E 36 bb 07 14
        E 36 bb 07 15
        E 36 bb 07 16
        E 36 bb 07 17
        E 36 bb 07 18
        E 36 bb 07 19
        E 36 bb 07 1a
        E 36 bb 07 1b
        E 36 bb 07 1c
        E 36 bb 07 1d
        E 36 bb 07 1e
        E 36 bb 07 1f
        E 36 bb 07 20
        E 36 bb 07 21
        E 36 bb 07 22
        E 36 bb 07 23
        E 36 bb 07 24
        E 36 bb 07 25
        E 36 bb 07 26
        E 36 bb 07 27
        E 36 bb 07 28
        E 36 bb 07 29
        E 36 bb 07 2a
        E 36 bb 07 2b
        E 36 bb 07 2c
        E 36 bb 07 2d
        E 36 bb 07 2e
        E 36 bb 07 2f
        E 36 bb 07 30
        E 36 bb 07 31
        E 36 bb 07 32
        E 36 bb 07 33
        E 36 bb 07 34
        E 36 bb 07 35
        E 36 bb 07 36
        E 36 bb 07 37
        E 36 bb 07 38
        E 36 bb 07 39
        E 36 bb 07 3a
        E 36 bb 07 3b
        E 36 bb 07 3c
        E 36 bb 07 3d
        E 36 bb 07 3e
        E 36 bb 07 3f
        E 36 bb 07 3f
        E 36 bb 07 3f
        E 36 bb 07 3e
        E 36 bb 07 3d
        E 36 bb 07 3c
        E 36 bb 07 3b
        E 36 bb 07 3a
        E 36 bb 07 39
        E 36 bb 07 38
        E 36 bb 07 37
        E 36 bb 07 36
        E 36 bb 07 35
        E 36 bb 07 34
        E 36 bb 07 33
        E 36 bb 07 32
        E 36 bb 07 31
        E 36 bb 07 30
        E 36 bb 07 2f
        E 36 bb 07 2e
        E 36 bb 07 2d
        E 36 bb 07 2c
        E 36 bb 07 2b
        E 36 bb 07 2a
        E 36 bb 07 29
        E 36 bb 07 28
        E 36 bb 07 27
        E 36 bb 07 26
        E 36 bb 07 25
        E 36 bb 07 24
        E 36 bb 07 23
        E 36 bb 07 22
        E 36 bb 07 21
        E 36 bb 07 20
        E 36 bb 07 1f
        E 36 bb 07 1e
        E 36 bb 07 1d
        E 36 bb 07 1c
        E 36 bb 07 1b
        E 36 bb 07 1a
        E 36 bb 07 19
        E 36 bb 07 18
        E 36 bb 07 17
        E 36 bb 07 16
        E 36 bb 07 15
        E 36 bb 07 14
        E 36 bb 07 13
        E 36 bb 07 12
        E 36 bb 07 11
        E 36 bb 07 10
        E 36 bb 07 0f
        E 36 bb 07 0e
        E 36 bb 07 0d
        E 36 bb 07 0c
        E 36 bb 07 0b
        E 36 bb 07 0a
        E 36 bb 07 09
        E 36 bb 07 08
        E 36 bb 07 07
        E 36 bb 07 06
        E 36 bb 07 05
        E 36 bb 07 04
        E 36 bb 07 03
        E 36 bb 07 02
        E 36 bb 07 01
        E 36 bb 07 00
        E 36 bb 07 01
        E 36 bb 07 02
        E 36 bb 07 03
        E 36 bb 07 04
        E 36 bb 07 05
        E 36 bb 07 06
        E 36 bb 07 07
        E 36 bb 07 08
        E 36 bb 07 09
        E 36 bb 07 0a
        E 36 bb 07 0b
        E 36 bb 07 0c
        E 36 bb 07 0d
        E 36 bb 07 0e
        E 36 bb 07 0f
        E 36 bb 07 10
        E 36 bb 07 11
        E 36 bb 07 12
        E 36 bb 07 13
        E 36 bb 07 14
        E 36 bb 07 15
        E 36 bb 07 16
        E 36 bb 07 17
        E 36 bb 07 18
        E 36 bb 07 19
        E 36 bb 07 1a
        E 36 bb 07 1b
        E 36 bb 07 1c
        E 36 bb 07 1d
        E 36 bb 07 1e
        E 36 bb 07 1f
        E 36 bb 07 20
        E 36 bb 07 21
        E 36 bb 07 22
        E 36 bb 07 23
        E 36 bb 07 24
        E 36 bb 07 25
        E 36 bb 07 26
        E 36 bb 07 27
        E 36 bb 07 28
        E 36 bb 07 29
        E 36 bb 07 2a
        E 36 bb 07 2b
        E 36 bb 07 2c
        E 36 bb 07 2d
        E 36 bb 07 2e
        E 36 bb 07 2f
        E 36 bb 07 30
        E 36 bb 07 31
        E 36 bb 07 32
        E 36 bb 07 33
        E 36 bb 07 34
        E 36 bb 07 35
        E 36 bb 07 36
        E 36 bb 07 37
        E 36 bb 07 38
        E 36 bb 07 39
        E 36 bb 07 3a
        E 36 bb 07 3b
        E 36 bb 07 3c
        E 36 bb 07 3d
        E 36 bb 07 3e
        E 36 bb 07 3f
        E 36 bb 07 3f
        E 36 bb 07 3f
        E 36 bb 07 3e
        E 36 bb 07 3d
        E 36 bb 07 3c
        E 36 bb 07 3b
        E 36 bb 07 3a
        E 36 bb 07 39
        E 36 bb 07 38
        E 36 bb 07 37
        E 36 bb 07 36
        E 36 bb 07 35
        E 36 bb 07 34
        E 36 bb 07 33
        E 36 bb 07 32
        E 36 bb 07 31
        E 36 bb 07 30
        E 36 bb 07 2f
        E 36 bb 07 2e
        E 36 bb 07 2d
        E 36 bb 07 2c
        E 36 bb 07 2b
        E 36 bb 07 2a
        E 36 bb 07 29
        E 36 bb 07 28
        E 36 bb 07 27
        E 36 bb 07 26
        E 36 bb 07 25
        E 36 bb 07 24
        E 36 bb 07 23
        E 36 bb 07 22
        E 36 bb 07 21
        E 36 bb 07 20
        E 36 bb 07 1f
        E 36 bb 07 1e
        E 36 bb 07 1d
        E 36 bb 07 1c
        E 36 bb 07 1b
        E 36 bb 07 1a
        E 36 bb 07 19
        E 36 bb 07 18
        E 36 bb 07 17
        E 36 bb 07 16
        E 36 bb 07 15
        E 36 bb 07 14
        E 36 bb 07 13
        E 36 bb 07 12
        E 36 bb 07 11
        E 36 bb 07 10
        E 36 bb 07 0f
        E 36 bb 07 0e
        E 36 bb 07 0d
        E 36 bb 07 0c
        E 36 bb 07 0b
        E 36 bb 07 0a
        E 36 bb 07 09
        E 36 bb 07 08
        E 36 bb 07 07
        E 36 bb 07 06
        E 36 bb 07 05
        E 36 bb 07 04
        E 36 bb 07 03
        E 36 bb 07 02
        E 36 bb 07 01
        E 36 bb 07 00
        E 73 bb 07 01
        E 73 bb 07 02
        E 73 bb 07 04
        E 73 bb 07 05
        E 73 bb 07 07
        E 73 bb 07 08
        E 73 bb 07 09
        E 73 bb 07 0b
        E 73 bb 07 0c
        E 73 bb 07 0e
        E 73 bb 07 0f
        E 73 bb 07 10
        E 73 bb 07 12
        E 73 bb 07 13
        E 73 bb 07 15
        E 73 bb 07 16
        E 73 bb 07 17
        E 73 bb 07 19
        E 73 bb 07 1a
        E 73 bb 07 1c
        E 73 bb 07 1d
        E 73 bb 07 1e
        E 73 bb 07 20
        E 73 bb 07 21
        E 73 bb 07 23
        E 73 bb 07 24
        E 73 bb 07 25
        E 73 bb 07 27
        E 73 bb 07 28
        E 73 bb 07 2a
        E 73 bb 07 2b
        E 73 bb 07 2c
        E 73 bb 07 2e
        E 73 bb 07 2f
        E 73 bb 07 31
        E 73 bb 07 32
        E 73 bb 07 33
        E 73 bb 07 35
        E 73 bb 07 36
        E 73 bb 07 38
        E 73 bb 07 39
        E 73 bb 07 3a
        E 73 bb 07 3c
        E 73 bb 07 3d
        E 73 bb 07 3e
        E 73 bb 07 40
        E 73 bb 07 41
        E 73 bb 07 43
        E 73 bb 07 44
        E 73 bb 07 46
        E 73 bb 07 47
        E 73 bb 07 48
        E 73 bb 07 4a
        E 73 bb 07 4b
        E 73 bb 07 4d
        E 73 bb 07 4e
        E 73 bb 07 4f
        E 73 bb 07 51
        E 73 bb 07 52
        E 73 bb 07 54
        E 73 bb 07 55
        E 73 bb 07 56
        E 73 bb 07 58
        E 73 bb 07 58
        E 73 bb 07 58
        E 73 bb 07 56
        E 73 bb 07 55
        E 73 bb 07 54
        E 73 bb 07 52
        E 73 bb 07 51
        E 73 bb 07 4f
        E 73 bb 07 4e
        E 73 bb 07 4d
        E 73 bb 07 4b
        E 73 bb 07 4a
        E 73 bb 07 48
        E 73 bb 07 47
        E 73 bb 07 46
        E 73 bb 07 44
        E 73 bb 07 43
        E 73 bb 07 41
        E 73 bb 07 40
        E 73 bb 07 3e
        E 73 bb 07 3d
        E 73 bb 07 3c
        E 73 bb 07 3a
        E 73 bb 07 39
        E 73 bb 07 38
        E 73 bb 07 36
        E 73 bb 07 35
        E 73 bb 07 33
        E 73 bb 07 32
        E 73 bb 07 31
        E 73 bb 07 2f
        E 73 bb 07 2e
        E 73 bb 07 2c
        E 73 bb 07 2b
        E 73 bb 07 2a
        E 73 bb 07 28
        E 73 bb 07 27
        E 73 bb 07 25
        E 73 bb 07 24
        E 73 bb 07 23
        E 73 bb 07 21
        E 73 bb 07 20
        E 73 bb 07 1e
        E 73 bb 07 1d
        E 73 bb 07 1c
        E 73 bb 07 1a
        E 73 bb 07 19
        E 73 bb 07 17
        E 73 bb 07 16
        E 73 bb 07 15
        E 73 bb 07 13
        E 73 bb 07 12
        E 73 bb 07 10
        E 73 bb 07 0f
        E 73 bb 07 0e
        E 73 bb 07 0c
        E 73 bb 07 0b
        E 73 bb 07 09
        E 73 bb 07 08
        E 73 bb 07 07
        E 73 bb 07 05
        E 73 bb 07 04
        E 73 bb 07 02
        E 73 bb 07 01
        E 73 bb 07 00
        E 65 bb 07 01
        E 65 bb 07 03
        E 65 bb 07 04
        E 65 bb 07 06
        E 65 bb 07 07
        E 65 bb 07 09
        E 65 bb 07 0b
        E 65 bb 07 0c
        E 65 bb 07 0e
        E 65 bb 07 0f
        E 65 bb 07 11
        E 65 bb 07 13
        E 65 bb 07 14
        E 65 bb 07 16
        E 65 bb 07 17
        E 65 bb 07 19
        E 65 bb 07 1b
        E 65 bb 07 1c
        E 65 bb 07 1e
        E 65 bb 07 1f
        E 65 bb 07 21
        E 65 bb 07 23
        E 65 bb 07 24
        E 65 bb 07 26
        E 65 bb 07 28
        E 65 bb 07 29
        E 65 bb 07 2b
        E 65 bb 07 2c
        E 65 bb 07 2e
        E 65 bb 07 2f
        E 65 bb 07 31
        E 65 bb 07 33
        E 65 bb 07 34
        E 65 bb 07 36
        E 65 bb 07 37
        E 65 bb 07 39
        E 65 bb 07 3b
        E 65 bb 07 3c
        E 65 bb 07 3e
        E 65 bb 07 3f
        E 65 bb 07 41
        E 65 bb 07 43
        E 65 bb 07 44
        E 65 bb 07 46
        E 65 bb 07 48
        E 65 bb 07 49
        E 65 bb 07 4b
        E 65 bb 07 4c
        E 65 bb 07 4e
        E 65 bb 07 50
        E 65 bb 07 51
        E 65 bb 07 53
        E 65 bb 07 54
        E 65 bb 07 56
        E 65 bb 07 57
        E 65 bb 07 59
        E 65 bb 07 5b
        E 65 bb 07 5c
        E 65 bb 07 5e
        E 65 bb 07 5f
        E 65 bb 07 61
        E 65 bb 07 63
        E 65 bb 07 64
        E 65 bb 07 65
        E 65 bb 07 64
        E 65 bb 07 63
        E 65 bb 07 61
        E 65 bb 07 5f
        E 65 bb 07 5e
        E 65 bb 07 5c
        E 65 bb 07 5b
        E 65 bb 07 59
        E 65 bb 07 57
        E 65 bb 07 56
        E 65 bb 07 54
        E 65 bb 07 53
        E 65 bb 07 51
        E 65 bb 07 50
        E 65 bb 07 4e
        E 65 bb 07 4c
        E 65 bb 07 4b
        E 65 bb 07 49
        E 65 bb 07 48
        E 65 bb 07 46
        E 65 bb 07 44
        E 65 bb 07 43
        E 65 bb 07 41
        E 65 bb 07 3f
        E 65 bb 07 3e
        E 65 bb 07 3c
        E 65 bb 07 3b
        E 65 bb 07 39
        E 65 bb 07 37
        E 65 bb 07 36
        E 65 bb 07 34
        E 65 bb 07 33
        E 65 bb 07 31
        E 65 bb 07 2f
        E 65 bb 07 2e
        E 65 bb 07 2c
        E 65 bb 07 2b
        E 65 bb 07 29
        E 65 bb 07 28
        E 65 bb 07 26
        E 65 bb 07 24
        E 65 bb 07 23
        E 65 bb 07 21
        E 65 bb 07 1f
        E 65 bb 07 1e
        E 65 bb 07 1c
        E 65 bb 07 1b
        E 65 bb 07 19
        E 65 bb 07 17
        E 65 bb 07 16
        E 65 bb 07 14
        E 65 bb 07 13
        E 65 bb 07 11
        E 65 bb 07 0f
        E 65 bb 07 0e
        E 65 bb 07 0c
        E 65 bb 07 0b
        E 65 bb 07 09
        E 65 bb 07 07
        E 65 bb 07 06
        E 65 bb 07 04
        E 65 bb 07 03
        E 65 bb 07 01
        E 65 bb 07 00
        E 73 bb 07 00
        E 73 bb 07 00
        E 73 bb 07 00
        E 73 bb 07 00
        E 73 bb 07 01
        E 73 bb 07 01
        E 73 bb 07 01
        E 73 bb 07 01
        E 73 bb 07 01
        E 73 bb 07 02
        E 73 bb 07 02
        E 73 bb 07 02
        E 73 bb 07 02
        E 73 bb 07 02
        E 73 bb 07 03
        E 73 bb 07 03
        E 73 bb 07 03
        E 73 bb 07 03
        E 73 bb 07 03
        E 73 bb 07 04
        E 73 bb 07 04
        E 73 bb 07 04
        E 73 bb 07 04
        E 73 bb 07 04
        E 73 bb 07 05
        E 73 bb 07 05
        E 73 bb 07 05
        E 73 bb 07 05
        E 73 bb 07 05
        E 73 bb 07 06
        E 73 bb 07 06
        E 73 bb 07 06
        E 73 bb 07 06
        E 73 bb 07 06
        E 73 bb 07 07
        E 73 bb 07 07
        E 73 bb 07 07
        E 73 bb 07 07
        E 73 bb 07 07
        E 73 bb 07 08
        E 73 bb 07 08
        E 73 bb 07 08
        E 73 bb 07 08
        E 73 bb 07 08
        E 73 bb 07 09
        E 73 bb 07 09
        E 73 bb 07 09
        E 73 bb 07 09
        E 73 bb 07 09
        E 73 bb 07 0a
        E 73 bb 07 0a
        E 73 bb 07 0a
        E 73 bb 07 0a
        E 73 bb 07 0a
        E 73 bb 07 0b
        E 73 bb 07 0b
        E 73 bb 07 0b
        E 73 bb 07 0b
        E 73 bb 07 0b
        E 73 bb 07 0c
        E 73 bb 07 0c
        E 73 bb 07 0c
        E 73 bb 07 0c
        E 73 bb 07 0c
        E 73 bb 07 0c
        E 73 bb 07 0c
        E 73 bb 07 0c
        E 73 bb 07 0c
        E 73 bb 07 0b
        E 73 bb 07 0b
        E 73 bb 07 0b
        E 73 bb 07 0b
        E 73 bb 07 0b
        E 73 bb 07 0a
        E 73 bb 07 0a
        E 73 bb 07 0a
        E 73 bb 07 0a
        E 73 bb 07 0a
        E 73 bb 07 09
        E 73 bb 07 09
        E 73 bb 07 09
        E 73 bb 07 09
        E 73 bb 07 09
        E 73 bb 07 08
        E 73 bb 07 08
        E 73 bb 07 08
        E 73 bb 07 08
        E 73 bb 07 08
        E 73 bb 07 07
        E 73 bb 07 07
        E 73 bb 07 07
        E 73 bb 07 07
        E 73 bb 07 07
        E 73 bb 07 06
        E 73 bb 07 06
        E 73 bb 07 06
        E 73 bb 07 06
        E 73 bb 07 06
        E 73 bb 07 05
        E 73 bb 07 05
        E 73 bb 07 05
        E 73 bb 07 05
        E 73 bb 07 05
        E 73 bb 07 04
        E 73 bb 07 04
        E 73 bb 07 04
        E 73 bb 07 04
        E 73 bb 07 04
        E 73 bb 07 03
        E 73 bb 07 03
        E 73 bb 07 03
        E 73 bb 07 03
        E 73 bb 07 03
        E 73 bb 07 02
        E 73 bb 07 02
        E 73 bb 07 02
        E 73 bb 07 02
        E 73 bb 07 02
        E 73 bb 07 01
        E 73 bb 07 01
        E 73 bb 07 01
        E 73 bb 07 01
        E 73 bb 07 01
        E 73 bb 07 00
        E 73 bb 07 00
        E 73 bb 07 00
        E 73 bb 07 00
        E 73 bb 07 00
        E 65 bb 07 00
        E 65 bb 07 01
        E 65 bb 07 02
        E 65 bb 07 03
        E 65 bb 07 04
        E 65 bb 07 04
        E 65 bb 07 05
        E 65 bb 07 06
        E 65 bb 07 07
        E 65 bb 07 08
        E 65 bb 07 08
        E 65 bb 07 09
        E 65 bb 07 0a
        E 65 bb 07 0b
        E 65 bb 07 0c
        E 65 bb 07 0c
        E 65 bb 07 0d
        E 65 bb 07 0e
        E 65 bb 07 0f
        E 65 bb 07 10
        E 65 bb 07 10
        E 65 bb 07 11
        E 65 bb 07 12
        E 65 bb 07 13
        E 65 bb 07 14
        E 65 bb 07 14
        E 65 bb 07 15
        E 65 bb 07 16
        E 65 bb 07 17
        E 65 bb 07 18
        E 65 bb 07 18
        E 65 bb 07 19
        E 65 bb 07 1a
        E 65 bb 07 1b
        E 65 bb 07 1c
        E 65 bb 07 1c
        E 65 bb 07 1d
        E 65 bb 07 1e
        E 65 bb 07 1f
        E 65 bb 07 20
        E 65 bb 07 20
        E 65 bb 07 21
        E 65 bb 07 22
        E 65 bb 07 23
        E 65 bb 07 24
        E 65 bb 07 24
        E 65 bb 07 25
        E 65 bb 07 26
        E 65 bb 07 27
        E 65 bb 07 28
        E 65 bb 07 28
        E 65 bb 07 29
        E 65 bb 07 2a
        E 65 bb 07 2b
        E 65 bb 07 2c
        E 65 bb 07 2c
        E 65 bb 07 2d
        E 65 bb 07 2e
        E 65 bb 07 2f
        E 65 bb 07 30
        E 65 bb 07 30
        E 65 bb 07 31
        E 65 bb 07 32
        E 65 bb 07 32
        E 65 bb 07 32
        E 65 bb 07 31
        E 65 bb 07 30
        E 65 bb 07 30
        E 65 bb 07 2f
        E 65 bb 07 2e
        E 65 bb 07 2d
        E 65 bb 07 2c
        E 65 bb 07 2c
        E 65 bb 07 2b
        E 65 bb 07 2a
        E 65 bb 07 29
        E 65 bb 07 28
        E 65 bb 07 28
        E 65 bb 07 27
        E 65 bb 07 26
        E 65 bb 07 25
        E 65 bb 07 24
        E 65 bb 07 24
        E 65 bb 07 23
        E 65 bb 07 22
        E 65 bb 07 21
        E 65 bb 07 20
        E 65 bb 07 20
        E 65 bb 07 1f
        E 65 bb 07 1e
        E 65 bb 07 1d
        E 65 bb 07 1c
        E 65 bb 07 1c
        E 65 bb 07 1b
        E 65 bb 07 1a
        E 65 bb 07 19
        E 65 bb 07 18
        E 65 bb 07 18
        E 65 bb 07 17
        E 65 bb 07 16
        E 65 bb 07 15
        E 65 bb 07 14
        E 65 bb 07 14
        E 65 bb 07 13
        E 65 bb 07 12
        E 65 bb 07 11
        E 65 bb 07 10
        E 65 bb 07 10
        E 65 bb 07 0f
        E 65 bb 07 0e
        E 65 bb 07 0d
        E 65 bb 07 0c
        E 65 bb 07 0c
        E 65 bb 07 0b
        E 65 bb 07 0a
        E 65 bb 07 09
        E 65 bb 07 08
        E 65 bb 07 08
        E 65 bb 07 07
        E 65 bb 07 06
        E 65 bb 07 05
        E 65 bb 07 04
        E 65 bb 07 04
        E 65 bb 07 03
        E 65 bb 07 02
        E 65 bb 07 01
        E 65 bb 07 00
        E 65 bb 07 00
        E 36 bb 07 01
        E 36 bb 07 02
        E 36 bb 07 04
        E 36 bb 07 05
        E 36 bb 07 07
        E 36 bb 07 08
        E 36 bb 07 09
        E 36 bb 07 0b
        E 36 bb 07 0c
        E 36 bb 07 0e
        E 36 bb 07 0f
        E 36 bb 07 10
        E 36 bb 07 12
        E 36 bb 07 13
        E 36 bb 07 15
        E 36 bb 07 16
        E 36 bb 07 17
        E 36 bb 07 19
        E 36 bb 07 1a
        E 36 bb 07 1c
        E 36 bb 07 1d
        E 36 bb 07 1e
        E 36 bb 07 20
        E 36 bb 07 21
        E 36 bb 07 23
        E 36 bb 07 24
        E 36 bb 07 25
        E 36 bb 07 27
        E 36 bb 07 28
        E 36 bb 07 2a
        E 36 bb 07 2b
        E 36 bb 07 2c
        E 36 bb 07 2e
        E 36 bb 07 2f
        E 36 bb 07 31
        E 36 bb 07 32
        E 36 bb 07 33
        E 36 bb 07 35
        E 36 bb 07 36
        E 36 bb 07 38
        E 36 bb 07 39
        E 36 bb 07 3a
        E 36 bb 07 3c
        E 36 bb 07 3d
        E 36 bb 07 3e
        E 36 bb 07 40
        E 36 bb 07 41
        E 36 bb 07 43
        E 36 bb 07 44
        E 36 bb 07 46
        E 36 bb 07 47
        E 36 bb 07 48
        E 36 bb 07 4a
        E 36 bb 07 4b
        E 36 bb 07 4d
        E 36 bb 07 4e
        E 36 bb 07 4f
        E 36 bb 07 51
        E 36 bb 07 52
        E 36 bb 07 54
        E 36 bb 07 55
        E 36 bb 07 56
        E 36 bb 07 58
        E 36 bb 07 58
        E 36 bb 07 58
        E 36 bb 07 56
        E 36 bb 07 55
        E 36 bb 07 54
        E 36 bb 07 52
        E 36 bb 07 51
        E 36 bb 07 4f
        E 36 bb 07 4e
        E 36 bb 07 4d
        E 36 bb 07 4b
        E 36 bb 07 4a
        E 36 bb 07 48
        E 36 bb 07 47
        E 36 bb 07 46
        E 36 bb 07 44
        E 36 bb 07 43
        E 36 bb 07 41
        E 36 bb 07 40
        E 36 bb 07 3e
        E 36 bb 07 3d
        E 36 bb 07 3c
        E 36 bb 07 3a
        E 36 bb 07 39
        E 36 bb 07 38
        E 36 bb 07 36
        E 36 bb 07 35
        E 36 bb 07 33
        E 36 bb 07 32
        E 36 bb 07 31
        E 36 bb 07 2f
        E 36 bb 07 2e
        E 36 bb 07 2c
        E 36 bb 07 2b
        E 36 bb 07 2a
        E 36 bb 07 28
        E 36 bb 07 27
        E 36 bb 07 25
        E 36 bb 07 24
        E 36 bb 07 23
        E 36 bb 07 21
        E 36 bb 07 20
        E 36 bb 07 1e
        E 36 bb 07 1d
        E 36 bb 07 1c
        E 36 bb 07 1a
        E 36 bb 07 19
        E 36 bb 07 17
        E 36 bb 07 16
        E 36 bb 07 15
        E 36 bb 07 13
        E 36 bb 07 12
        E 36 bb 07 10
        E 36 bb 07 0f
        E 36 bb 07 0e
        E 36 bb 07 0c
        E 36 bb 07 0b
        E 36 bb 07 09
        E 36 bb 07 08
        E 36 bb 07 07
        E 36 bb 07 05
        E 36 bb 07 04
        E 36 bb 07 02
        E 36 bb 07 01
        E 36 bb 07 00
        E 36 bb 07 01
        E 36 bb 07 02
        E 36 bb 07 03
        E 36 bb 07 04
        E 36 bb 07 05
        E 36 bb 07 06
        E 36 bb 07 07
        E 36 bb 07 08
        E 36 bb 07 09
        E 36 bb 07 0a
        E 36 bb 07 0b
        E 36 bb 07 0c
        E 36 bb 07 0d
        E 36 bb 07 0e
        E 36 bb 07 0f
        E 36 bb 07 10
        E 36 bb 07 11
        E 36 bb 07 12
        E 36 bb 07 13
        E 36 bb 07 14
        E 36 bb 07 15
        E 36 bb 07 16
        E 36 bb 07 17
        E 36 bb 07 18
        E 36 bb 07 19
        E 36 bb 07 1a
        E 36 bb 07 1b
        E 36 bb 07 1c
        E 36 bb 07 1d
        E 36 bb 07 1e
        E 36 bb 07 1f
        E 36 bb 07 20
        E 36 bb 07 21
        E 36 bb 07 22
        E 36 bb 07 23
        E 36 bb 07 24
        E 36 bb 07 25
        E 36 bb 07 26
        E 36 bb 07 27
        E 36 bb 07 28
        E 36 bb 07 29
        E 36 bb 07 2a
        E 36 bb 07 2b
        E 36 bb 07 2c
        E 36 bb 07 2d
        E 36 bb 07 2e
        E 36 bb 07 2f
        E 36 bb 07 30
        E 36 bb 07 31
        E 36 bb 07 32
        E 36 bb 07 33
        E 36 bb 07 34
        E 36 bb 07 35
        E 36 bb 07 36
        E 36 bb 07 37
        E 36 bb 07 38
        E 36 bb 07 39
        E 36 bb 07 3a
        E 36 bb 07 3b
        E 36 bb 07 3c
        E 36 bb 07 3d
        E 36 bb 07 3e
        E 36 bb 07 3f
        E 36 bb 07 3f
        E 36 bb 07 3f
        E 36 bb 07 3e
        E 36 bb 07 3d
        E 36 bb 07 3c
        E 36 bb 07 3b
        E 36 bb 07 3a
        E 36 bb 07 39
        E 36 bb 07 38
        E 36 bb 07 37
        E 36 bb 07 36
        E 36 bb 07 35
        E 36 bb 07 34
        E 36 bb 07 33
        E 36 bb 07 32
        E 36 bb 07 31
        E 36 bb 07 30
        E 36 bb 07 2f
        E 36 bb 07 2e
        E 36 bb 07 2d
        E 36 bb 07 2c
        E 36 bb 07 2b
        E 36 bb 07 2a
        E 36 bb 07 29
        E 36 bb 07 28
        E 36 bb 07 27
        E 36 bb 07 26
        E 36 bb 07 25
        E 36 bb 07 24
        E 36 bb 07 23
        E 36 bb 07 22
        E 36 bb 07 21
        E 36 bb 07 20
        E 36 bb 07 1f
        E 36 bb 07 1e
        E 36 bb 07 1d
        E 36 bb 07 1c
        E 36 bb 07 1b
        E 36 bb 07 1a
        E 36 bb 07 19
        E 36 bb 07 18
        E 36 bb 07 17
        E 36 bb 07 16
        E 36 bb 07 15
        E 36 bb 07 14
        E 36 bb 07 13
        E 36 bb 07 12
        E 36 bb 07 11
        E 36 bb 07 10
        E 36 bb 07 0f
        E 36 bb 07 0e
        E 36 bb 07 0d
        E 36 bb 07 0c
        E 36 bb 07 0b
        E 36 bb 07 0a
        E 36 bb 07 09
        E 36 bb 07 08
        E 36 bb 07 07
        E 36 bb 07 06
        E 36 bb 07 05
        E 36 bb 07 04
        E 36 bb 07 03
        E 36 bb 07 02
        E 36 bb 07 01
        E 36 bb 07 00
        E 51 bb 07 01
        E 51 bb 07 02
        E 51 bb 07 03
        E 51 bb 07 04
        E 51 bb 07 05
        E 51 bb 07 06
        E 51 bb 07 07
        E 51 bb 07 08
        E 51 bb 07 09
        E 51 bb 07 0a
        E 51 bb 07 0b
        E 51 bb 07 0c
        E 51 bb 07 0d
        E 51 bb 07 0e
        E 51 bb 07 0f
        E 51 bb 07 10
        E 51 bb 07 11
        E 51 bb 07 12
        E 51 bb 07 13
        E 51 bb 07 14
        E 51 bb 07 15
        E 51 bb 07 16
        E 51 bb 07 17
        E 51 bb 07 18
        E 51 bb 07 19
        E 51 bb 07 1a
        E 51 bb 07 1b
        E 51 bb 07 1c
        E 51 bb 07 1d
        E 51 bb 07 1e
        E 51 bb 07 1f
        E 51 bb 07 20
        E 51 bb 07 21
        E 51 bb 07 22
        E 51 bb 07 23
        E 51 bb 07 24
        E 51 bb 07 25
        E 51 bb 07 26
        E 51 bb 07 27
        E 51 bb 07 28
        E 51 bb 07 29
        E 51 bb 07 2a
        E 51 bb 07 2b
        E 51 bb 07 2c
        E 51 bb 07 2d
        E 51 bb 07 2e
        E 51 bb 07 2f
        E 51 bb 07 30
        E 51 bb 07 31
        E 51 bb 07 32
        E 51 bb 07 33
        E 51 bb 07 34
        E 51 bb 07 35
        E 51 bb 07 36
        E 51 bb 07 37
        E 51 bb 07 38
        E 51 bb 07 39
        E 51 bb 07 3a
        E 51 bb 07 3b
        E 51 bb 07 3c
        E 51 bb 07 3d
        E 51 bb 07 3e
        E 51 bb 07 3f
        E 51 bb 07 3f
        E 51 bb 07 3f
        E 51 bb 07 3e
        E 51 bb 07 3d
        E 51 bb 07 3c
        E 51 bb 07 3b
        E 51 bb 07 3a
        E 51 bb 07 39
        E 51 bb 07 38
        E 51 bb 07 37
        E 51 bb 07 36
        E 51 bb 07 35
        E 51 bb 07 34
        E 51 bb 07 33
        E 51 bb 07 32
        E 51 bb 07 31
        E 51 bb 07 30
        E 51 bb 07 2f
        E 51 bb 07 2e
        E 51 bb 07 2d
        E 51 bb 07 2c
        E 51 bb 07 2b
        E 51 bb 07 2a
        E 51 bb 07 29
        E 51 bb 07 28
        E 51 bb 07 27
        E 51 bb 07 26
        E 51 bb 07 25
        E 51 bb 07 24
        E 51 bb 07 23
        E 51 bb 07 22
        E 51 bb 07 21
        E 51 bb 07 20
        E 51 bb 07 1f
        E 51 bb 07 1e
        E 51 bb 07 1d
        E 51 bb 07 1c
        E 51 bb 07 1b
        E 51 bb 07 1a
        E 51 bb 07 19
        E 51 bb 07 18
        E 51 bb 07 17
        E 51 bb 07 16
        E 51 bb 07 15
        E 51 bb 07 14
        E 51 bb 07 13
        E 51 bb 07 12
        E 51 bb 07 11
        E 51 bb 07 10
        E 51 bb 07 0f
        E 51 bb 07 0e
        E 51 bb 07 0d
        E 51 bb 07 0c
        E 51 bb 07 0b
        E 51 bb 07 0a
        E 51 bb 07 09
        E 51 bb 07 08
        E 51 bb 07 07
        E 51 bb 07 06
        E 51 bb 07 05
        E 51 bb 07 04
        E 51 bb 07 03
        E 51 bb 07 02
        E 51 bb 07 01
        E 51 bb 07 00
        E 58 bb 07 02
        E 58 bb 07 04
        E 58 bb 07 06
        E 58 bb 07 08
        E 58 bb 07 0a
        E 58 bb 07 0c
        E 58 bb 07 0e
        E 58 bb 07 10
        E 58 bb 07 12
        E 58 bb 07 14
        E 58 bb 07 16
        E 58 bb 07 18
        E 58 bb 07 1a
        E 58 bb 07 1c
        E 58 bb 07 1e
        E 58 bb 07 20
        E 58 bb 07 22
        E 58 bb 07 24
        E 58 bb 07 26
        E 58 bb 07 28
        E 58 bb 07 2a
        E 58 bb 07 2c
        E 58 bb 07 2e
        E 58 bb 07 30
        E 58 bb 07 32
        E 58 bb 07 34
        E 58 bb 07 36
        E 58 bb 07 38
        E 58 bb 07 3a
        E 58 bb 07 3c
        E 58 bb 07 3e
        E 58 bb 07 40
        E 58 bb 07 42
        E 58 bb 07 44
        E 58 bb 07 46
        E 58 bb 07 48
        E 58 bb 07 4a
        E 58 bb 07 4c
        E 58 bb 07 4e
        E 58 bb 07 50
        E 58 bb 07 52
        E 58 bb 07 54
        E 58 bb 07 56
        E 58 bb 07 58
        E 58 bb 07 5a
        E 58 bb 07 5c
        E 58 bb 07 5e
        E 58 bb 07 60
        E 58 bb 07 62
        E 58 bb 07 64
        E 58 bb 07 66
        E 58 bb 07 68
        E 58 bb 07 6a
        E 58 bb 07 6c
        E 58 bb 07 6e
        E 58 bb 07 70
        E 58 bb 07 72
        E 58 bb 07 74
        E 58 bb 07 76
        E 58 bb 07 78
        E 58 bb 07 7a
        E 58 bb 07 7c
        E 58 bb 07 7e
        E 58 bb 07 7f
        E 58 bb 07 7e
        E 58 bb 07 7c
        E 58 bb 07 7a
        E 58 bb 07 78
        E 58 bb 07 76
        E 58 bb 07 74
        E 58 bb 07 72
        E 58 bb 07 70
        E 58 bb 07 6e
        E 58 bb 07 6c
        E 58 bb 07 6a
        E 58 bb 07 68
        E 58 bb 07 66
        E 58 bb 07 64
        E 58 bb 07 62
        E 58 bb 07 60
        E 58 bb 07 5e
        E 58 bb 07 5c
        E 58 bb 07 5a
        E 58 bb 07 58
        E 58 bb 07 56
        E 58 bb 07 54
        E 58 bb 07 52
        E 58 bb 07 50
        E 58 bb 07 4e
        E 58 bb 07 4c
        E 58 bb 07 4a
        E 58 bb 07 48
        E 58 bb 07 46
        E 58 bb 07 44
        E 58 bb 07 42
        E 58 bb 07 40
        E 58 bb 07 3e
        E 58 bb 07 3c
        E 58 bb 07 3a
        E 58 bb 07 38
        E 58 bb 07 36
        E 58 bb 07 34
        E 58 bb 07 32
        E 58 bb 07 30
        E 58 bb 07 2e
        E 58 bb 07 2c
        E 58 bb 07 2a
        E 58 bb 07 28
        E 58 bb 07 26
        E 58 bb 07 24
        E 58 bb 07 22
        E 58 bb 07 20
        E 58 bb 07 1e
        E 58 bb 07 1c
        E 58 bb 07 1a
        E 58 bb 07 18
        E 58 bb 07 16
        E 58 bb 07 14
        E 58 bb 07 12
        E 58 bb 07 10
        E 58 bb 07 0e
        E 58 bb 07 0c
        E 58 bb 07 0a
        E 58 bb 07 08
        E 58 bb 07 06
        E 58 bb 07 04
        E 58 bb 07 02
        E 58 bb 07 00
        E 7 bb 07 01
        E 7 bb 07 03
        E 7 bb 07 05
        E 7 bb 07 07
        E 7 bb 07 09
        E 7 bb 07 0a
        E 7 bb 07 0c
        E 7 bb 07 0e
        E 7 bb 07 10
        E 7 bb 07 12
        E 7 bb 07 13
        E 7 bb 07 15
        E 7 bb 07 17
        E 7 bb 07 19
        E 7 bb 07 1b
        E 7 bb 07 1c
        E 7 bb 07 1e
        E 7 bb 07 20
        E 7 bb 07 22
        E 7 bb 07 24
        E 7 bb 07 25
        E 7 bb 07 27
        E 7 bb 07 29
        E 7 bb 07 2b
        E 7 bb 07 2d
        E 7 bb 07 2e
        E 7 bb 07 30
        E 7 bb 07 32
        E 7 bb 07 34
        E 7 bb 07 36
        E 7 bb 07 37
        E 7 bb 07 39
        E 7 bb 07 3b
        E 7 bb 07 3d
        E 7 bb 07 3f
        E 7 bb 07 40
        E 7 bb 07 42
        E 7 bb 07 44
        E 7 bb 07 46
        E 7 bb 07 48
        E 7 bb 07 49
        E 7 bb 07 4b
        E 7 bb 07 4d
        E 7 bb 07 4f
        E 7 bb 07 51
        E 7 bb 07 52
        E 7 bb 07 54
        E 7 bb 07 56
        E 7 bb 07 58
        E 7 bb 07 5a
        E 7 bb 07 5b
        E 7 bb 07 5d
        E 7 bb 07 5f
        E 7 bb 07 61
        E 7 bb 07 63
        E 7 bb 07 64
        E 7 bb 07 66
        E 7 bb 07 68
        E 7 bb 07 6a
        E 7 bb 07 6c
        E 7 bb 07 6d
        E 7 bb 07 6f
        E 7 bb 07 71
        E 7 bb 07 72
        E 7 bb 07 71
        E 7 bb 07 6f
        E 7 bb 07 6d
        E 7 bb 07 6c
        E 7 bb 07 6a
        E 7 bb 07 68
        E 7 bb 07 66
        E 7 bb 07 64
        E 7 bb 07 63
        E 7 bb 07 61
        E 7 bb 07 5f
        E 7 bb 07 5d
        E 7 bb 07 5b
        E 7 bb 07 5a
        E 7 bb 07 58
        E 7 bb 07 56
        E 7 bb 07 54
        E 7 bb 07 52
        E 7 bb 07 51
        E 7 bb 07 4f
        E 7 bb 07 4d
        E 7 bb 07 4b
        E 7 bb 07 49
        E 7 bb 07 48
        E 7 bb 07 46
        E 7 bb 07 44
        E 7 bb 07 42
        E 7 bb 07 40
        E 7 bb 07 3f
        E 7 bb 07 3d
        E 7 bb 07 3b
        E 7 bb 07 39
        E 7 bb 07 37
        E 7 bb 07 36
        E 7 bb 07 34
        E 7 bb 07 32
        E 7 bb 07 30
        E 7 bb 07 2e
        E 7 bb 07 2d
        E 7 bb 07 2b
        E 7 bb 07 29
        E 7 bb 07 27
        E 7 bb 07 25
        E 7 bb 07 24
        E 7 bb 07 22
        E 7 bb 07 20
        E 7 bb 07 1e
        E 7 bb 07 1c
        E 7 bb 07 1b
        E 7 bb 07 19
        E 7 bb 07 17
        E 7 bb 07 15
        E 7 bb 07 13
        E 7 bb 07 12
        E 7 bb 07 10
        E 7 bb 07 0e
        E 7 bb 07 0c
        E 7 bb 07 0a
        E 7 bb 07 09
        E 7 bb 07 07
        E 7 bb 07 05
        E 7 bb 07 03
        E 7 bb 07 01
        E 7 bb 07 00
        E 29 bb 07 02
        E 29 bb 07 04
        E 29 bb 07 06
        E 29 bb 07 08
        E 29 bb 07 0a
        E 29 bb 07 0c
        E 29 bb 07 0e
        E 29 bb 07 10
        E 29 bb 07 12
        E 29 bb 07 14
        E 29 bb 07 16
        E 29 bb 07 18
        E 29 bb 07 1a
        E 29 bb 07 1c
        E 29 bb 07 1e
        E 29 bb 07 20
        E 29 bb 07 22
        E 29 bb 07 24
        E 29 bb 07 26
        E 29 bb 07 28
        E 29 bb 07 2a
        E 29 bb 07 2c
        E 29 bb 07 2e
        E 29 bb 07 30
        E 29 bb 07 32
        E 29 bb 07 34
        E 29 bb 07 36
        E 29 bb 07 38
        E 29 bb 07 3a
        E 29 bb 07 3c
        E 29 bb 07 3e
        E 29 bb 07 40
        E 29 bb 07 42
        E 29 bb 07 44
        E 29 bb 07 46
        E 29 bb 07 48
        E 29 bb 07 4a
        E 29 bb 07 4c
        E 29 bb 07 4e
        E 29 bb 07 50
        E 29 bb 07 52
        E 29 bb 07 54
        E 29 bb 07 56
        E 29 bb 07 58
        E 29 bb 07 5a
        E 29 bb 07 5c
        E 29 bb 07 5e
        E 29 bb 07 60
        E 29 bb 07 62
        E 29 bb 07 64
        E 29 bb 07 66
        E 29 bb 07 68
        E 29 bb 07 6a
        E 29 bb 07 6c
        E 29 bb 07 6e
        E 29 bb 07 70
        E 29 bb 07 72
        E 29 bb 07 74
        E 29 bb 07 76
        E 29 bb 07 78
        E 29 bb 07 7a
        E 29 bb 07 7c
        E 29 bb 07 7e
        E 29 bb 07 7f
        E 29 bb 07 7e
        E 29 bb 07 7c
        E 29 bb 07 7a
        E 29 bb 07 78
        E 29 bb 07 76
        E 29 bb 07 74
        E 29 bb 07 72
        E 29 bb 07 70
        E 29 bb 07 6e
        E 29 bb 07 6c
        E 29 bb 07 6a
        E 29 bb 07 68
        E 29 bb 07 66
        E 29 bb 07 64
        E 29 bb 07 62
        E 29 bb 07 60
        E 29 bb 07 5e
        E 29 bb 07 5c
        E 29 bb 07 5a
        E 29 bb 07 58
        E 29 bb 07 56
        E 29 bb 07 54
        E 29 bb 07 52
        E 29 bb 07 50
        E 29 bb 07 4e
        E 29 bb 07 4c
        E 29 bb 07 4a
        E 29 bb 07 48
        E 29 bb 07 46
        E 29 bb 07 44
        E 29 bb 07 42
        E 29 bb 07 40
        E 29 bb 07 3e
        E 29 bb 07 3c
        E 29 bb 07 3a
        E 29 bb 07 38
        E 29 bb 07 36
        E 29 bb 07 34
        E 29 bb 07 32
        E 29 bb 07 30
        E 29 bb 07 2e
        E 29 bb 07 2c
        E 29 bb 07 2a
        E 29 bb 07 28
        E 29 bb 07 26
        E 29 bb 07 24
        E 29 bb 07 22
        E 29 bb 07 20
        E 29 bb 07 1e
        E 29 bb 07 1c
        E 29 bb 07 1a
        E 29 bb 07 18
        E 29 bb 07 16
        E 29 bb 07 14
        E 29 bb 07 12
        E 29 bb 07 10
        E 29 bb 07 0e
        E 29 bb 07 0c
        E 29 bb 07 0a
        E 29 bb 07 08
        E 29 bb 07 06
        E 29 bb 07 04
        E 29 bb 07 02
        E 29 bb 07 00
        E 51 bb 07 01
        E 51 bb 07 03
        E 51 bb 07 05
        E 51 bb 07 07
        E 51 bb 07 09
        E 51 bb 07 0a
        E 51 bb 07 0c
        E 51 bb 07 0e
        E 51 bb 07 10
        E 51 bb 07 12
        E 51 bb 07 13
        E 51 bb 07 15
        E 51 bb 07 17
        E 51 bb 07 19
        E 51 bb 07 1b
        E 51 bb 07 1c
        E 51 bb 07 1e
        E 51 bb 07 20
        E 51 bb 07 22
        E 51 bb 07 24
        E 51 bb 07 25
        E 51 bb 07 27
        E 51 bb 07 29
        E 51 bb 07 2b
        E 51 bb 07 2d
        E 51 bb 07 2e
        E 51 bb 07 30
        E 51 bb 07 32
        E 51 bb 07 34
        E 51 bb 07 36
        E 51 bb 07 37
        E 51 bb 07 39
        E 51 bb 07 3b
        E 51 bb 07 3d
        E 51 bb 07 3f
        E 51 bb 07 40
        E 51 bb 07 42
        E 51 bb 07 44
        E 51 bb 07 46
        E 51 bb 07 48
        E 51 bb 07 49
        E 51 bb 07 4b
        E 51 bb 07 4d
        E 51 bb 07 4f
        E 51 bb 07 51
        E 51 bb 07 52
        E 51 bb 07 54
        E 51 bb 07 56
        E 51 bb 07 58
        E 51 bb 07 5a
        E 51 bb 07 5b
        E 51 bb 07 5d
        E 51 bb 07 5f
        E 51 bb 07 61
        E 51 bb 07 63
        E 51 bb 07 64
        E 51 bb 07 66
        E 51 bb 07 68
        E 51 bb 07 6a
        E 51 bb 07 6c
        E 51 bb 07 6d
        E 51 bb 07 6f
        E 51 bb 07 71
        E 51 bb 07 72
        E 51 bb 07 71
        E 51 bb 07 6f
        E 51 bb 07 6d
        E 51 bb 07 6c
        E 51 bb 07 6a
        E 51 bb 07 68
        E 51 bb 07 66
        E 51 bb 07 64
        E 51 bb 07 63
        E 51 bb 07 61
        E 51 bb 07 5f
        E 51 bb 07 5d
        E 51 bb 07 5b
        E 51 bb 07 5a
        E 51 bb 07 58
        E 51 bb 07 56
        E 51 bb 07 54
        E 51 bb 07 52
        E 51 bb 07 51
        E 51 bb 07 4f
        E 51 bb 07 4d
        E 51 bb 07 4b
        E 51 bb 07 49
        E 51 bb 07 48
        E 51 bb 07 46
        E 51 bb 07 44
        E 51 bb 07 42
        E 51 bb 07 40
        E 51 bb 07 3f
        E 51 bb 07 3d
        E 51 bb 07 3b
        E 51 bb 07 39
        E 51 bb 07 37
        E 51 bb 07 36
        E 51 bb 07 34
        E 51 bb 07 32
        E 51 bb 07 30
        E 51 bb 07 2e
        E 51 bb 07 2d
        E 51 bb 07 2b
        E 51 bb 07 29
        E 51 bb 07 27
        E 51 bb 07 25
        E 51 bb 07 24
        E 51 bb 07 22
        E 51 bb 07 20
        E 51 bb 07 1e
        E 51 bb 07 1c
        E 51 bb 07 1b
        E 51 bb 07 19
        E 51 bb 07 17
        E 51 bb 07 15
        E 51 bb 07 13
        E 51 bb 07 12
        E 51 bb 07 10
        E 51 bb 07 0e
        E 51 bb 07 0c
        E 51 bb 07 0a
        E 51 bb 07 09
        E 51 bb 07 07
        E 51 bb 07 05
        E 51 bb 07 03
        E 51 bb 07 01
        E 51 bb 07 00
        E 36 bb 07 01
        E 36 bb 07 02
        E 36 bb 07 03
        E 36 bb 07 04
        E 36 bb 07 05
        E 36 bb 07 06
        E 36 bb 07 07
        E 36 bb 07 08
        E 36 bb 07 09
        E 36 bb 07 0a
        E 36 bb 07 0b
        E 36 bb 07 0c
        E 36 bb 07 0d
        E 36 bb 07 0e
        E 36 bb 07 0f
        E 36 bb 07 10
        E 36 bb 07 11
        E 36 bb 07 12
        E 36 bb 07 13
        E 36 bb 07 14
        E 36 bb 07 15
        E 36 bb 07 16
        E 36 bb 07 17
        E 36 bb 07 18
        E 36 bb 07 19
        E 36 bb 07 1a
        E 36 bb 07 1b
        E 36 bb 07 1c
        E 36 bb 07 1d
        E 36 bb 07 1e
        E 36 bb 07 1f
        E 36 bb 07 20
        E 36 bb 07 21
        E 36 bb 07 22
        E 36 bb 07 23
        E 36 bb 07 24
        E 36 bb 07 25
        E 36 bb 07 26
        E 36 bb 07 27
        E 36 bb 07 28
        E 36 bb 07 29
        E 36 bb 07 2a
        E 36 bb 07 2b
        E 36 bb 07 2c
        E 36 bb 07 2d
        E 36 bb 07 2e
        E 36 bb 07 2f
        E 36 bb 07 30
        E 36 bb 07 31
        E 36 bb 07 32
        E 36 bb 07 33
        E 36 bb 07 34
        E 36 bb 07 35
        E 36 bb 07 36
        E 36 bb 07 37
        E 36 bb 07 38
        E 36 bb 07 39
        E 36 bb 07 3a
        E 36 bb 07 3b
        E 36 bb 07 3c
        E 36 bb 07 3d
        E 36 bb 07 3e
        E 36 bb 07 3f
        E 36 bb 07 3f
        E 36 bb 07 3f
        E 36 bb 07 3e
        E 36 bb 07 3d
        E 36 bb 07 3c
        E 36 bb 07 3b
        E 36 bb 07 3a
        E 36 bb 07 39
        E 36 bb 07 38
        E 36 bb 07 37
        E 36 bb 07 36
        E 36 bb 07 35
        E 36 bb 07 34
        E 36 bb 07 33
        E 36 bb 07 32
        E 36 bb 07 31
        E 36 bb 07 30
        E 36 bb 07 2f
        E 36 bb 07 2e
        E 36 bb 07 2d
        E 36 bb 07 2c
        E 36 bb 07 2b
        E 36 bb 07 2a
        E 36 bb 07 29
        E 36 bb 07 28
        E 36 bb 07 27
        E 36 bb 07 26
        E 36 bb 07 25
        E 36 bb 07 24
        E 36 bb 07 23
        E 36 bb 07 22
        E 36 bb 07 21
        E 36 bb 07 20
        E 36 bb 07 1f
        E 36 bb 07 1e
        E 36 bb 07 1d
        E 36 bb 07 1c
        E 36 bb 07 1b
        E 36 bb 07 1a
        E 36 bb 07 19
        E 36 bb 07 18
        E 36 bb 07 17
        E 36 bb 07 16
        E 36 bb 07 15
        E 36 bb 07 14
        E 36 bb 07 13
        E 36 bb 07 12
        E 36 bb 07 11
        E 36 bb 07 10
        E 36 bb 07 0f
        E 36 bb 07 0e
        E 36 bb 07 0d
        E 36 bb 07 0c
        E 36 bb 07 0b
        E 36 bb 07 0a
        E 36 bb 07 09
        E 36 bb 07 08
        E 36 bb 07 07
        E 36 bb 07 06
        E 36 bb 07 05
        E 36 bb 07 04
        E 36 bb 07 03
        E 36 bb 07 02
        E 36 bb 07 01
        E 36 bb 07 00
        E 36 bb 07 01
        E 36 bb 07 02
        E 36 bb 07 03
        E 36 bb 07 04
        E 36 bb 07 05
        E 36 bb 07 06
        E 36 bb 07 07
        E 36 bb 07 08
        E 36 bb 07 09
        E 36 bb 07 0a
        E 36 bb 07 0b
        E 36 bb 07 0c
        E 36 bb 07 0d
        E 36 bb 07 0e
        E 36 bb 07 0f
        E 36 bb 07 10
        E 36 bb 07 11
        E 36 bb 07 12
        E 36 bb 07 13
        E 36 bb 07 14
        E 36 bb 07 15
        E 36 bb 07 16
        E 36 bb 07 17
        E 36 bb 07 18
        E 36 bb 07 19
        E 36 bb 07 1a
        E 36 bb 07 1b
        E 36 bb 07 1c
        E 36 bb 07 1d
        E 36 bb 07 1e
        E 36 bb 07 1f
        E 36 bb 07 20
        E 36 bb 07 21
        E 36 bb 07 22
        E 36 bb 07 23
        E 36 bb 07 24
        E 36 bb 07 25
        E 36 bb 07 26
        E 36 bb 07 27
        E 36 bb 07 28
        E 36 bb 07 29
        E 36 bb 07 2a
        E 36 bb 07 2b
        E 36 bb 07 2c
        E 36 bb 07 2d
        E 36 bb 07 2e
        E 36 bb 07 2f
        E 36 bb 07 30
        E 36 bb 07 31
        E 36 bb 07 32
        E 36 bb 07 33
        E 36 bb 07 34
        E 36 bb 07 35
        E 36 bb 07 36
        E 36 bb 07 37
        E 36 bb 07 38
        E 36 bb 07 39
        E 36 bb 07 3a
        E 36 bb 07 3b
        E 36 bb 07 3c
        E 36 bb 07 3d
        E 36 bb 07 3e
        E 36 bb 07 3f
        E 36 bb 07 3f
        E 36 bb 07 3f
        E 36 bb 07 3e
        E 36 bb 07 3d
        E 36 bb 07 3c
        E 36 bb 07 3b
        E 36 bb 07 3a
        E 36 bb 07 39
        E 36 bb 07 38
        E 36 bb 07 37
        E 36 bb 07 36
        E 36 bb 07 35
        E 36 bb 07 34
        E 36 bb 07 33
        E 36 bb 07 32
        E 36 bb 07 31
        E 36 bb 07 30
        E 36 bb 07 2f
        E 36 bb 07 2e
        E 36 bb 07 2d
        E 36 bb 07 2c
        E 36 bb 07 2b
        E 36 bb 07 2a
        E 36 bb 07 29
        E 36 bb 07 28
        E 36 bb 07 27
        E 36 bb 07 26
        E 36 bb 07 25
        E 36 bb 07 24
        E 36 bb 07 23
        E 36 bb 07 22
        E 36 bb 07 21
        E 36 bb 07 20
        E 36 bb 07 1f
        E 36 bb 07 1e
        E 36 bb 07 1d
        E 36 bb 07 1c
        E 36 bb 07 1b
        E 36 bb 07 1a
        E 36 bb 07 19
        E 36 bb 07 18
        E 36 bb 07 17
        E 36 bb 07 16
        E 36 bb 07 15
        E 36 bb 07 14
        E 36 bb 07 13
        E 36 bb 07 12
        E 36 bb 07 11
        E 36 bb 07 10
        E 36 bb 07 0f
        E 36 bb 07 0e
        E 36 bb 07 0d
        E 36 bb 07 0c
        E 36 bb 07 0b
        E 36 bb 07 0a
        E 36 bb 07 09
        E 36 bb 07 08
        E 36 bb 07 07
        E 36 bb 07 06
        E 36 bb 07 05
        E 36 bb 07 04
        E 36 bb 07 03
        E 36 bb 07 02
        E 36 bb 07 01
        E 36 bb 07 00
        E 73 bb 07 01
        E 73 bb 07 02
        E 73 bb 07 04
        E 73 bb 07 05
        E 73 bb 07 07
        E 73 bb 07 08
        E 73 bb 07 09
        E 73 bb 07 0b
        E 73 bb 07 0c
        E 73 bb 07 0e
        E 73 bb 07 0f
        E 73 bb 07 10
        E 73 bb 07 12
        E 73 bb 07 13
        E 73 bb 07 15
        E 73 bb 07 16
        E 73 bb 07 17
        E 73 bb 07 19
        E 73 bb 07 1a
        E 73 bb 07 1c
        E 73 bb 07 1d
        E 73 bb 07 1e
        E 73 bb 07 20
        E 73 bb 07 21
        E 73 bb 07 23
        E 73 bb 07 24
        E 73 bb 07 25
        E 73 bb 07 27
        E 73 bb 07 28
        E 73 bb 07 2a
        E 73 bb 07 2b
        E 73 bb 07 2c
        E 73 bb 07 2e
        E 73 bb 07 2f
        E 73 bb 07 31
        E 73 bb 07 32
        E 73 bb 07 33
        E 73 bb 07 35
        E 73 bb 07 36
        E 73 bb 07 38
        E 73 bb 07 39
        E 73 bb 07 3a
        E 73 bb 07 3c
        E 73 bb 07 3d
        E 73 bb 07 3e
        E 73 bb 07 40
        E 73 bb 07 41
        E 73 bb 07 43
        E 73 bb 07 44
        E 73 bb 07 46
        E 73 bb 07 47
        E 73 bb 07 48
        E 73 bb 07 4a
        E 73 bb 07 4b
        E 73 bb 07 4d
        E 73 bb 07 4e
        E 73 bb 07 4f
        E 73 bb 07 51
        E 73 bb 07 52
        E 73 bb 07 54
        E 73 bb 07 55
        E 73 bb 07 56
        E 73 bb 07 58
        E 73 bb 07 58
        E 73 bb 07 58
        E 73 bb 07 56
        E 73 bb 07 55
        E 73 bb 07 54
        E 73 bb 07 52
        E 73 bb 07 51
        E 73 bb 07 4f
        E 73 bb 07 4e
        E 73 bb 07 4d
        E 73 bb 07 4b
        E 73 bb 07 4a
        E 73 bb 07 48
        E 73 bb 07 47
        E 73 bb 07 46
        E 73 bb 07 44
        E 73 bb 07 43
        E 73 bb 07 41
        E 73 bb 07 40
        E 73 bb 07 3e
        E 73 bb 07 3d
        E 73 bb 07 3c
        E 73 bb 07 3a
        E 73 bb 07 39
        E 73 bb 07 38
        E 73 bb 07 36
        E 73 bb 07 35
        E 73 bb 07 33
        E 73 bb 07 32
        E 73 bb 07 31
        E 73 bb 07 2f
        E 73 bb 07 2e
        E 73 bb 07 2c
        E 73 bb 07 2b
        E 73 bb 07 2a
        E 73 bb 07 28
        E 73 bb 07 27
        E 73 bb 07 25
        E 73 bb 07 24
        E 73 bb 07 23
        E 73 bb 07 21
        E 73 bb 07 20
        E 73 bb 07 1e
        E 73 bb 07 1d
        E 73 bb 07 1c
        E 73 bb 07 1a
        E 73 bb 07 19
        E 73 bb 07 17
        E 73 bb 07 16
        E 73 bb 07 15
        E 73 bb 07 13
        E 73 bb 07 12
        E 73 bb 07 10
        E 73 bb 07 0f
        E 73 bb 07 0e
        E 73 bb 07 0c
        E 73 bb 07 0b
        E 73 bb 07 09
        E 73 bb 07 08
        E 73 bb 07 07
        E 73 bb 07 05
        E 73 bb 07 04
        E 73 bb 07 02
        E 73 bb 07 01
        E 73 bb 07 00
        E 65 bb 07 01
        E 65 bb 07 03
        E 65 bb 07 04
        E 65 bb 07 06
        E 65 bb 07 07
        E 65 bb 07 09
        E 65 bb 07 0b
        E 65 bb 07 0c
        E 65 bb 07 0e
        E 65 bb 07 0f
        E 65 bb 07 11
        E 65 bb 07 13
        E 65 bb 07 14
        E 65 bb 07 16
        E 65 bb 07 17
        E 65 bb 07 19
        E 65 bb 07 1b
        E 65 bb 07 1c
        E 65 bb 07 1e
        E 65 bb 07 1f
        E 65 bb 07 21
        E 65 bb 07 23
        E 65 bb 07 24
        E 65 bb 07 26
        E 65 bb 07 28
        E 65 bb 07 29
        E 65 bb 07 2b
        E 65 bb 07 2c
        E 65 bb 07 2e
        E 65 bb 07 2f
        E 65 bb 07 31
        E 65 bb 07 33
        E 65 bb 07 34
        E 65 bb 07 36
        E 65 bb 07 37
        E 65 bb 07 39
        E 65 bb 07 3b
        E 65 bb 07 3c
        E 65 bb 07 3e
        E 65 bb 07 3f
        E 65 bb 07 41
        E 65 bb 07 43
        E 65 bb 07 44
        E 65 bb 07 46
        E 65 bb 07 48
        E 65 bb 07 49
        E 65 bb 07 4b
        E 65 bb 07 4c
        E 65 bb 07 4e
        E 65 bb 07 50
        E 65 bb 07 51
        E 65 bb 07 53
        E 65 bb 07 54
        E 65 bb 07 56
        E 65 bb 07 57
        E 65 bb 07 59
        E 65 bb 07 5b
        E 65 bb 07 5c
        E 65 bb 07 5e
        E 65 bb 07 5f
        E 65 bb 07 61
        E 65 bb 07 63
        E 65 bb 07 64
        E 65 bb 07 65
        E 65 bb 07 64
        E 65 bb 07 63
        E 65 bb 07 61
        E 65 bb 07 5f
        E 65 bb 07 5e
        E 65 bb 07 5c
        E 65 bb 07 5b
        E 65 bb 07 59
        E 65 bb 07 57
        E 65 bb 07 56
        E 65 bb 07 54
        E 65 bb 07 53
        E 65 bb 07 51
        E 65 bb 07 50
        E 65 bb 07 4e
        E 65 bb 07 4c
        E 65 bb 07 4b
        E 65 bb 07 49
        E 65 bb 07 48
        E 65 bb 07 46
        E 65 bb 07 44
        E 65 bb 07 43
        E 65 bb 07 41
        E 65 bb 07 3f
        E 65 bb 07 3e
        E 65 bb 07 3c
        E 65 bb 07 3b
        E 65 bb 07 39
        E 65 bb 07 37
        E 65 bb 07 36
        E 65 bb 07 34
        E 65 bb 07 33
        E 65 bb 07 31
        E 65 bb 07 2f
        E 65 bb 07 2e
        E 65 bb 07 2c
        E 65 bb 07 2b
        E 65 bb 07 29
        E 65 bb 07 28
        E 65 bb 07 26
        E 65 bb 07 24
        E 65 bb 07 23
        E 65 bb 07 21
        E 65 bb 07 1f
        E 65 bb 07 1e
        E 65 bb 07 1c
        E 65 bb 07 1b
        E 65 bb 07 19
        E 65 bb 07 17
        E 65 bb 07 16
        E 65 bb 07 14
        E 65 bb 07 13
        E 65 bb 07 11
        E 65 bb 07 0f
        E 65 bb 07 0e
        E 65 bb 07 0c
        E 65 bb 07 0b
        E 65 bb 07 09
        E 65 bb 07 07
        E 65 bb 07 06
        E 65 bb 07 04
        E 65 bb 07 03
        E 65 bb 07 01
        E 65 bb 07 00
        E 73 bb 07 00
        E 73 bb 07 00
        E 73 bb 07 00
        E 73 bb 07 00
        E 73 bb 07 01
        E 73 bb 07 01
        E 73 bb 07 01
        E 73 bb 07 01
        E 73 bb 07 01
        E 73 bb 07 02
        E 73 bb 07 02
        E 73 bb 07 02
        E 73 bb 07 02
        E 73 bb 07 02
        E 73 bb 07 03
        E 73 bb 07 03
        E 73 bb 07 03
        E 73 bb 07 03
        E 73 bb 07 03
        E 73 bb 07 04
        E 73 bb 07 04
        E 73 bb 07 04
        E 73 bb 07 04
        E 73 bb 07 04
        E 73 bb 07 05
        E 73 bb 07 05
        E 73 bb 07 05
        E 73 bb 07 05
        E 73 bb 07 05
        E 73 bb 07 06
        E 73 bb 07 06
        E 73 bb 07 06
        E 73 bb 07 06
        E 73 bb 07 06
        E 73 bb 07 07
        E 73 bb 07 07
        E 73 bb 07 07
        E 73 bb 07 07
        E 73 bb 07 07
        E 73 bb 07 08
        E 73 bb 07 08
        E 73 bb 07 08
        E 73 bb 07 08
        E 73 bb 07 08
        E 73 bb 07 09
        E 73 bb 07 09
        E 73 bb 07 09
        E 73 bb 07 09
        E 73 bb 07 09
        E 73 bb 07 0a
        E 73 bb 07 0a
        E 73 bb 07 0a
        E 73 bb 07 0a
        E 73 bb 07 0a
        E 73 bb 07 0b
        E 73 bb 07 0b
        E 73 bb 07 0b
        E 73 bb 07 0b
        E 73 bb 07 0b
        E 73 bb 07 0c
        E 73 bb 07 0c
        E 73 bb 07 0c
        E 73 bb 07 0c
        E 73 bb 07 0c
        E 73 bb 07 0c
        E 73 bb 07 0c
        E 73 bb 07 0c
        E 73 bb 07 0c
        E 73 bb 07 0b
        E 73 bb 07 0b
        E 73 bb 07 0b
        E 73 bb 07 0b
        E 73 bb 07 0b
        E 73 bb 07 0a
        E 73 bb 07 0a
        E 73 bb 07 0a
        E 73 bb 07 0a
        E 73 bb 07 0a
        E 73 bb 07 09
        E 73 bb 07 09
        E 73 bb 07 09
        E 73 bb 07 09
        E 73 bb 07 09
        E 73 bb 07 08
        E 73 bb 07 08
        E 73 bb 07 08
        E 73 bb 07 08
        E 73 bb 07 08
        E 73 bb 07 07
        E 73 bb 07 07
        E 73 bb 07 07
        E 73 bb 07 07
        E 73 bb 07 07
        E 73 bb 07 06
        E 73 bb 07 06
        E 73 bb 07 06
        E 73 bb 07 06
        E 73 bb 07 06
        E 73 bb 07 05
        E 73 bb 07 05
        E 73 bb 07 05
        E 73 bb 07 05
        E 73 bb 07 05
        E 73 bb 07 04
        E 73 bb 07 04
        E 73 bb 07 04
        E 73 bb 07 04
        E 73 bb 07 04
        E 73 bb 07 03
        E 73 bb 07 03
        E 73 bb 07 03
        E 73 bb 07 03
        E 73 bb 07 03
        E 73 bb 07 02
        E 73 bb 07 02
        E 73 bb 07 02
        E 73 bb 07 02
        E 73 bb 07 02
        E 73 bb 07 01
        E 73 bb 07 01
        E 73 bb 07 01
        E 73 bb 07 01
        E 73 bb 07 01
        E 73 bb 07 00
        E 73 bb 07 00
        E 73 bb 07 00
        E 73 bb 07 00
        E 73 bb 07 00
        E 65 bb 07 00
        E 65 bb 07 01
        E 65 bb 07 02
        E 65 bb 07 03
        E 65 bb 07 04
        E 65 bb 07 04
        E 65 bb 07 05
        E 65 bb 07 06
        E 65 bb 07 07
        E 65 bb 07 08
        E 65 bb 07 08
        E 65 bb 07 09
        E 65 bb 07 0a
        E 65 bb 07 0b
        E 65 bb 07 0c
        E 65 bb 07 0c
        E 65 bb 07 0d
        E 65 bb 07 0e
        E 65 bb 07 0f
        E 65 bb 07 10
        E 65 bb 07 10
        E 65 bb 07 11
        E 65 bb 07 12
        E 65 bb 07 13
        E 65 bb 07 14
        E 65 bb 07 14
        E 65 bb 07 15
        E 65 bb 07 16
        E 65 bb 07 17
        E 65 bb 07 18
        E 65 bb 07 18
        E 65 bb 07 19
        E 65 bb 07 1a
        E 65 bb 07 1b
        E 65 bb 07 1c
        E 65 bb 07 1c
        E 65 bb 07 1d
        E 65 bb 07 1e
        E 65 bb 07 1f
        E 65 bb 07 20
        E 65 bb 07 20
        E 65 bb 07 21
        E 65 bb 07 22
        E 65 bb 07 23
        E 65 bb 07 24
        E 65 bb 07 24
        E 65 bb 07 25
        E 65 bb 07 26
        E 65 bb 07 27
        E 65 bb 07 28
        E 65 bb 07 28
        E 65 bb 07 29
        E 65 bb 07 2a
        E 65 bb 07 2b
        E 65 bb 07 2c
        E 65 bb 07 2c
        E 65 bb 07 2d
        E 65 bb 07 2e
        E 65 bb 07 2f
        E 65 bb 07 30
        E 65 bb 07 30
        E 65 bb 07 31
        E 65 bb 07 32
        E 65 bb 07 32
        E 65 bb 07 32
        E 65 bb 07 31
        E 65 bb 07 30
        E 65 bb 07 30
        E 65 bb 07 2f
        E 65 bb 07 2e
        E 65 bb 07 2d
        E 65 bb 07 2c
        E 65 bb 07 2c
        E 65 bb 07 2b
        E 65 bb 07 2a
        E 65 bb 07 29
        E 65 bb 07 28
        E 65 bb 07 28
        E 65 bb 07 27
        E 65 bb 07 26
        E 65 bb 07 25
        E 65 bb 07 24
        E 65 bb 07 24
        E 65 bb 07 23
        E 65 bb 07 22
        E 65 bb 07 21
        E 65 bb 07 20
        E 65 bb 07 20
        E 65 bb 07 1f
        E 65 bb 07 1e
        E 65 bb 07 1d
        E 65 bb 07 1c
        E 65 bb 07 1c
        E 65 bb 07 1b
        E 65 bb 07 1a
        E 65 bb 07 19
        E 65 bb 07 18
        E 65 bb 07 18
        E 65 bb 07 17
        E 65 bb 07 16
        E 65 bb 07 15
        E 65 bb 07 14
        E 65 bb 07 14
        E 65 bb 07 13
        E 65 bb 07 12
        E 65 bb 07 11
        E 65 bb 07 10
        E 65 bb 07 10
        E 65 bb 07 0f
        E 65 bb 07 0e
        E 65 bb 07 0d
        E 65 bb 07 0c
        E 65 bb 07 0c
        E 65 bb 07 0b
        E 65 bb 07 0a
        E 65 bb 07 09
        E 65 bb 07 08
        E 65 bb 07 08
        E 65 bb 07 07
        E 65 bb 07 06
        E 65 bb 07 05
        E 65 bb 07 04
        E 65 bb 07 04
        E 65 bb 07 03
        E 65 bb 07 02
        E 65 bb 07 01
        E 65 bb 07 00
        E 65 bb 07 00
        E 31 bb 07 3f
        E 31 bb 07 3f
        E 31 bb 07 3f
        E 31 bb 07 3f
        E 31 bb 07 3f
        E 31 bb 07 3f
        E 31 bb 07 3f
        E 31 bb 07 3f
        E 31 bb 07 3f
        E 31 bb 07 3f
        E 31 bb 07 3f
        E 31 bb 07 3f
        E 31 bb 07 3f
        E 31 bb 07 3f
        E 31 bb 07 3f
        E 31 bb 07 3f
        E 31 bb 07 3f
        E 31 bb 07 3f
        E 31 bb 07 3f
        E 31 bb 07 3f
        E 31 bb 07 3f
        E 31 bb 07 3f
        E 31 bb 07 3f
        E 31 bb 07 3f
        E 31 bb 07 3f
        E 31 bb 07 3f
        E 31 bb 07 3f
        E 31 bb 07 3f
        E 31 bb 07 3f
        E 31 bb 07 3f
        E 31 bb 07 3f
        E 31 bb 07 3f
        E 31 bb 07 3f
        E 31 bb 07 3f
        E 31 bb 07 3f
        E 31 bb 07 3f
        E 31 bb 07 3f
        E 31 bb 07 3f
        E 31 bb 07 3f
        E 31 bb 07 3f
        E 31 bb 07 3f
        E 31 bb 07 3f
        E 31 bb 07 3f
        E 31 bb 07 3f
        E 31 bb 07 3f
        E 31 bb 07 3f
        E 31 bb 07 3f
        E 31 bb 07 3f
        E 31 bb 07 3f
        E 31 bb 07 3f
        E 31 bb 07 3f
        E 31 bb 07 3f
        E 31 bb 07 3f
        E 31 bb 07 3f
        E 31 bb 07 3f
        E 31 bb 07 3f
        E 31 bb 07 3f
        E 31 bb 07 3f
        E 31 bb 07 3f
        E 31 bb 07 3f
        E 31 bb 07 3f
        E 31 bb 07 3f
        E 31 bb 07 3f
        E 31 bb 07 00
        E 31 bb 07 00
        E 31 bb 07 00
        E 31 bb 07 00
        E 31 bb 07 00
        E 31 bb 07 00
        E 31 bb 07 00
        E 31 bb 07 00
        E 31 bb 07 00
        E 31 bb 07 00
        E 31 bb 07 00
        E 31 bb 07 00
        E 31 bb 07 00
        E 31 bb 07 00
        E 31 bb 07 00
        E 31 bb 07 00
        E 31 bb 07 00
        E 31 bb 07 00
        E 31 bb 07 00
        E 31 bb 07 00
        E 31 bb 07 00
        E 31 bb 07 00
        E 31 bb 07 00
        E 31 bb 07 00
        E 31 bb 07 00
        E 31 bb 07 00
        E 31 bb 07 00
        E 31 bb 07 00
        E 31 bb 07 00
        E 31 bb 07 00
        E 31 bb 07 00
        E 31 bb 07 00
        E 31 bb 07 00
        E 31 bb 07 00
        E 31 bb 07 00
        E 31 bb 07 00
        E 31 bb 07 00
        E 31 bb 07 00
        E 31 bb 07 00
        E 31 bb 07 00
        E 31 bb 07 00
        E 31 bb 07 00
        E 31 bb 07 00
        E 31 bb 07 00
        E 31 bb 07 00
        E 31 bb 07 00
        E 31 bb 07 00
        E 31 bb 07 00
        E 31 bb 07 00
        E 31 bb 07 00
        E 31 bb 07 00
        E 31 bb 07 00
        E 31 bb 07 00
        E 31 bb 07 00
        E 31 bb 07 00
        E 31 bb 07 00
        E 31 bb 07 00
        E 31 bb 07 00
        E 31 bb 07 00
        E 31 bb 07 00
        E 31 bb 07 00
        E 31 bb 07 00
        E 31 bb 07 00
        E 31 bb 07 00
        E 36 bb 07 7f
        E 36 bb 07 7f
        E 36 bb 07 7f
        E 36 bb 07 7f
        E 36 bb 07 7f
        E 36 bb 07 7f
        E 36 bb 07 7f
        E 36 bb 07 7f
        E 36 bb 07 7f
        E 36 bb 07 7f
        E 36 bb 07 7f
        E 36 bb 07 7f
        E 36 bb 07 7f
        E 36 bb 07 7f
        E 36 bb 07 7f
        E 36 bb 07 7f
        E 36 bb 07 7f
        E 36 bb 07 7f
        E 36 bb 07 7f
        E 36 bb 07 7f
        E 36 bb 07 7f
        E 36 bb 07 7f
        E 36 bb 07 7f
        E 36 bb 07 7f
        E 36 bb 07 7f
        E 36 bb 07 7f
        E 36 bb 07 7f
        E 36 bb 07 7f
        E 36 bb 07 7f
        E 36 bb 07 7f
        E 36 bb 07 7f
        E 36 bb 07 7f
        E 36 bb 07 7f
        E 36 bb 07 7f
        E 36 bb 07 7f
        E 36 bb 07 7f
        E 36 bb 07 7f
        E 36 bb 07 7f
        E 36 bb 07 7f
        E 36 bb 07 7f
        E 36 bb 07 7f
        E 36 bb 07 7f
        E 36 bb 07 7f
        E 36 bb 07 7f
        E 36 bb 07 7f
        E 36 bb 07 7f
        E 36 bb 07 7f
        E 36 bb 07 7f
        E 36 bb 07 7f
        E 36 bb 07 7f
        E 36 bb 07 7f
        E 36 bb 07 7f
        E 36 bb 07 7f
        E 36 bb 07 7f
        E 36 bb 07 7f
        E 36 bb 07 7f
        E 36 bb 07 7f
        E 36 bb 07 7f
        E 36 bb 07 7f
        E 36 bb 07 7f
        E 36 bb 07 7f
        E 36 bb 07 7f
        E 36 bb 07 7f
        E 36 bb 07 00
        E 36 bb 07 00
        E 36 bb 07 00
        E 36 bb 07 00
        E 36 bb 07 00
        E 36 bb 07 00
        E 36 bb 07 00
        E 36 bb 07 00
        E 36 bb 07 00
        E 36 bb 07 00
        E 36 bb 07 00
        E 36 bb 07 00
        E 36 bb 07 00
        E 36 bb 07 00
        E 36 bb 07 00
        E 36 bb 07 00
        E 36 bb 07 00
        E 36 bb 07 00
        E 36 bb 07 00
        E 36 bb 07 00
        E 36 bb 07 00
        E 36 bb 07 00
        E 36 bb 07 00
        E 36 bb 07 00
        E 36 bb 07 00
        E 36 bb 07 00
        E 36 bb 07 00
        E 36 bb 07 00
        E 36 bb 07 00
        E 36 bb 07 00
        E 36 bb 07 00
        E 36 bb 07 00
        E 36 bb 07 00
        E 36 bb 07 00
        E 36 bb 07 00
        E 36 bb 07 00
        E 36 bb 07 00
        E 36 bb 07 00
        E 36 bb 07 00
        E 36 bb 07 00
        E 36 bb 07 00
        E 36 bb 07 00
        E 36 bb 07 00
        E 36 bb 07 00
        E 36 bb 07 00
        E 36 bb 07 00
        E 36 bb 07 00
        E 36 bb 07 00
        E 36 bb 07 00
        E 36 bb 07 00
        E 36 bb 07 00
        E 36 bb 07 00
        E 36 bb 07 00
        E 36 bb 07 00
        E 36 bb 07 00
        E 36 bb 07 00
        E 36 bb 07 00
        E 36 bb 07 00
        E 36 bb 07 00
        E 36 bb 07 00
        E 36 bb 07 00
        E 36 bb 07 00
        E 36 bb 07 00
        E 36 bb 07 00
        E 4 bb 07 72
        E 4 bb 07 72
        E 4 bb 07 72
        E 4 bb 07 72
        E 4 bb 07 72
        E 4 bb 07 72
        E 4 bb 07 72
        E 4 bb 07 72
        E 4 bb 07 72
        E 4 bb 07 72
        E 4 bb 07 72
        E 4 bb 07 72
        E 4 bb 07 72
        E 4 bb 07 72
        E 4 bb 07 72
        E 4 bb 07 72
        E 4 bb 07 72
        E 4 bb 07 72
        E 4 bb 07 72
        E 4 bb 07 72
        E 4 bb 07 72
        E 4 bb 07 72
        E 4 bb 07 72
        E 4 bb 07 72
        E 4 bb 07 72
        E 4 bb 07 72
        E 4 bb 07 72
        E 4 bb 07 72
        E 4 bb 07 72
        E 4 bb 07 72
        E 4 bb 07 72
        E 4 bb 07 72
        E 4 bb 07 72
        E 4 bb 07 72
        E 4 bb 07 72
        E 4 bb 07 72
        E 4 bb 07 72
        E 4 bb 07 72
        E 4 bb 07 72
        E 4 bb 07 72
        E 4 bb 07 72
        E 4 bb 07 72
        E 4 bb 07 72
        E 4 bb 07 72
        E 4 bb 07 72
        E 4 bb 07 72
        E 4 bb 07 72
        E 4 bb 07 72
        E 4 bb 07 72
        E 4 bb 07 72
        E 4 bb 07 72
        E 4 bb 07 72
        E 4 bb 07 72
        E 4 bb 07 72
        E 4 bb 07 72
        E 4 bb 07 72
        E 4 bb 07 72
        E 4 bb 07 72
        E 4 bb 07 72
        E 4 bb 07 72
        E 4 bb 07 72
        E 4 bb 07 72
        E 4 bb 07 72
        E 4 bb 07 00
        E 4 bb 07 00
        E 4 bb 07 00
        E 4 bb 07 00
        E 4 bb 07 00
        E 4 bb 07 00
        E 4 bb 07 00
        E 4 bb 07 00
        E 4 bb 07 00
        E 4 bb 07 00
        E 4 bb 07 00
        E 4 bb 07 00
        E 4 bb 07 00
        E 4 bb 07 00
        E 4 bb 07 00
        E 4 bb 07 00
        E 4 bb 07 00
        E 4 bb 07 00
        E 4 bb 07 00
        E 4 bb 07 00
        E 4 bb 07 00
        E 4 bb 07 00
        E 4 bb 07 00
        E 4 bb 07 00
        E 4 bb 07 00
        E 4 bb 07 00
        E 4 bb 07 00
        E 4 bb 07 00
        E 4 bb 07 00
        E 4 bb 07 00
        E 4 bb 07 00
        E 4 bb 07 00
        E 4 bb 07 00
        E 4 bb 07 00
        E 4 bb 07 00
        E 4 bb 07 00
        E 4 bb 07 00
        E 4 bb 07 00
        E 4 bb 07 00
        E 4 bb 07 00
        E 4 bb 07 00
        E 4 bb 07 00
        E 4 bb 07 00
        E 4 bb 07 00
        E 4 bb 07 00
        E 4 bb 07 00
        E 4 bb 07 00
        E 4 bb 07 00
        E 4 bb 07 00
        E 4 bb 07 00
        E 4 bb 07 00
        E 4 bb 07 00
        E 4 bb 07 00
        E 4 bb 07 00
        E 4 bb 07 00
        E 4 bb 07 00
        E 4 bb 07 00
        E 4 bb 07 00
        E 4 bb 07 00
        E 4 bb 07 00
        E 4 bb 07 00
        E 4 bb 07 00
        E 4 bb 07 00
        E 4 bb 07 00
        E 18 bb 07 7f
        E 18 bb 07 7f
        E 18 bb 07 7f
        E 18 bb 07 7f
        E 18 bb 07 7f
        E 18 bb 07 7f
        E 18 bb 07 7f
        E 18 bb 07 7f
        E 18 bb 07 7f
        E 18 bb 07 7f
        E 18 bb 07 7f
        E 18 bb 07 7f
        E 18 bb 07 7f
        E 18 bb 07 7f
        E 18 bb 07 7f
        E 18 bb 07 7f
        E 18 bb 07 7f
        E 18 bb 07 7f
        E 18 bb 07 7f
        E 18 bb 07 7f
        E 18 bb 07 7f
        E 18 bb 07 7f
        E 18 bb 07 7f
        E 18 bb 07 7f
        E 18 bb 07 7f
        E 18 bb 07 7f
        E 18 bb 07 7f
        E 18 bb 07 7f
        E 18 bb 07 7f
        E 18 bb 07 7f
        E 18 bb 07 7f
        E 18 bb 07 7f
        E 18 bb 07 7f
        E 18 bb 07 7f
        E 18 bb 07 7f
        E 18 bb 07 7f
        E 18 bb 07 7f
        E 18 bb 07 7f
        E 18 bb 07 7f
        E 18 bb 07 7f
        E 18 bb 07 7f
        E 18 bb 07 7f
        E 18 bb 07 7f
        E 18 bb 07 7f
        E 18 bb 07 7f
        E 18 bb 07 7f
        E 18 bb 07 7f
        E 18 bb 07 7f
        E 18 bb 07 7f
        E 18 bb 07 7f
        E 18 bb 07 7f
        E 18 bb 07 7f
        E 18 bb 07 7f
        E 18 bb 07 7f
        E 18 bb 07 7f
        E 18 bb 07 7f
        E 18 bb 07 7f
        E 18 bb 07 7f
        E 18 bb 07 7f
        E 18 bb 07 7f
        E 18 bb 07 7f
        E 18 bb 07 7f
        E 18 bb 07 7f
        E 18 bb 07 00
        E 18 bb 07 00
        E 18 bb 07 00
        E 18 bb 07 00
        E 18 bb 07 00
        E 18 bb 07 00
        E 18 bb 07 00
        E 18 bb 07 00
        E 18 bb 07 00
        E 18 bb 07 00
        E 18 bb 07 00
        E 18 bb 07 00
        E 18 bb 07 00
        E 18 bb 07 00
        E 18 bb 07 00
        E 18 bb 07 00
        E 18 bb 07 00
        E 18 bb 07 00
        E 18 bb 07 00
        E 18 bb 07 00
        E 18 bb 07 00
        E 18 bb 07 00
        E 18 bb 07 00
        E 18 bb 07 00
        E 18 bb 07 00
        E 18 bb 07 00
        E 18 bb 07 00
        E 18 bb 07 00
        E 18 bb 07 00
        E 18 bb 07 00
        E 18 bb 07 00
        E 18 bb 07 00
        E 18 bb 07 00
        E 18 bb 07 00
        E 18 bb 07 00
        E 18 bb 07 00
        E 18 bb 07 00
        E 18 bb 07 00
        E 18 bb 07 00
        E 18 bb 07 00
        E 18 bb 07 00
        E 18 bb 07 00
        E 18 bb 07 00
        E 18 bb 07 00
        E 18 bb 07 00
        E 18 bb 07 00
        E 18 bb 07 00
        E 18 bb 07 00
        E 18 bb 07 00
        E 18 bb 07 00
        E 18 bb 07 00
        E 18 bb 07 00
        E 18 bb 07 00
        E 18 bb 07 00
        E 18 bb 07 00
        E 18 bb 07 00
        E 18 bb 07 00
        E 18 bb 07 00
        E 18 bb 07 00
        E 18 bb 07 00
        E 18 bb 07 00
        E 18 bb 07 00
        E 18 bb 07 00
        E 18 bb 07 00
        E 31 bb 07 72
        E 31 bb 07 72
        E 31 bb 07 72
        E 31 bb 07 72
        E 31 bb 07 72
        E 31 bb 07 72
        E 31 bb 07 72
        E 31 bb 07 72
        E 31 bb 07 72
        E 31 bb 07 72
        E 31 bb 07 72
        E 31 bb 07 72
        E 31 bb 07 72
        E 31 bb 07 72
        E 31 bb 07 72
        E 31 bb 07 72
        E 31 bb 07 72
        E 31 bb 07 72
        E 31 bb 07 72
        E 31 bb 07 72
        E 31 bb 07 72
        E 31 bb 07 72
        E 31 bb 07 72
        E 31 bb 07 72
        E 31 bb 07 72
        E 31 bb 07 72
        E 31 bb 07 72
        E 31 bb 07 72
        E 31 bb 07 72
        E 31 bb 07 72
        E 31 bb 07 72
        E 31 bb 07 72
        E 31 bb 07 72
        E 31 bb 07 72
        E 31 bb 07 72
        E 31 bb 07 72
        E 31 bb 07 72
        E 31 bb 07 72
        E 31 bb 07 72
        E 31 bb 07 72
        E 31 bb 07 72
        E 31 bb 07 72
        E 31 bb 07 72
        E 31 bb 07 72
        E 31 bb 07 72
        E 31 bb 07 72
        E 31 bb 07 72
        E 31 bb 07 72
        E 31 bb 07 72
        E 31 bb 07 72
        E 31 bb 07 72
        E 31 bb 07 72
        E 31 bb 07 72
        E 31 bb 07 72
        E 31 bb 07 72
        E 31 bb 07 72
        E 31 bb 07 72
        E 31 bb 07 72
        E 31 bb 07 72
        E 31 bb 07 72
        E 31 bb 07 72
        E 31 bb 07 72
        E 31 bb 07 72
        E 31 bb 07 00
        E 31 bb 07 00
        E 31 bb 07 00
        E 31 bb 07 00
        E 31 bb 07 00
        E 31 bb 07 00
        E 31 bb 07 00
        E 31 bb 07 00
        E 31 bb 07 00
        E 31 bb 07 00
        E 31 bb 07 00
        E 31 bb 07 00
        E 31 bb 07 00
        E 31 bb 07 00
        E 31 bb 07 00
        E 31 bb 07 00
        E 31 bb 07 00
        E 31 bb 07 00
        E 31 bb 07 00
        E 31 bb 07 00
        E 31 bb 07 00
        E 31 bb 07 00
        E 31 bb 07 00
        E 31 bb 07 00
        E 31 bb 07 00
        E 31 bb 07 00
        E 31 bb 07 00
        E 31 bb 07 00
        E 31 bb 07 00
        E 31 bb 07 00
        E 31 bb 07 00
        E 31 bb 07 00
        E 31 bb 07 00
        E 31 bb 07 00
        E 31 bb 07 00
        E 31 bb 07 00
        E 31 bb 07 00
        E 31 bb 07 00
        E 31 bb 07 00
        E 31 bb 07 00
        E 31 bb 07 00
        E 31 bb 07 00
        E 31 bb 07 00
        E 31 bb 07 00
        E 31 bb 07 00
        E 31 bb 07 00
        E 31 bb 07 00
        E 31 bb 07 00
        E 31 bb 07 00
        E 31 bb 07 00
        E 31 bb 07 00
        E 31 bb 07 00
        E 31 bb 07 00
        E 31 bb 07 00
        E 31 bb 07 00
        E 31 bb 07 00
        E 31 bb 07 00
        E 31 bb 07 00
        E 31 bb 07 00
        E 31 bb 07 00
        E 31 bb 07 00
        E 31 bb 07 00
        E 31 bb 07 00
        E 31 bb 07 00
        E 22 bb 07 3f
        E 22 bb 07 3f
        E 22 bb 07 3f
        E 22 bb 07 3f
        E 22 bb 07 3f
        E 22 bb 07 3f
        E 22 bb 07 3f
        E 22 bb 07 3f
        E 22 bb 07 3f
        E 22 bb 07 3f
        E 22 bb 07 3f
        E 22 bb 07 3f
        E 22 bb 07 3f
        E 22 bb 07 3f
        E 22 bb 07 3f
        E 22 bb 07 3f
        E 22 bb 07 3f
        E 22 bb 07 3f
        E 22 bb 07 3f
        E 22 bb 07 3f
        E 22 bb 07 3f
        E 22 bb 07 3f
        E 22 bb 07 3f
        E 22 bb 07 3f
        E 22 bb 07 3f
        E 22 bb 07 3f
        E 22 bb 07 3f
        E 22 bb 07 3f
        E 22 bb 07 3f
        E 22 bb 07 3f
        E 22 bb 07 3f
        E 22 bb 07 3f
        E 22 bb 07 3f
        E 22 bb 07 3f
        E 22 bb 07 3f
        E 22 bb 07 3f
        E 22 bb 07 3f
        E 22 bb 07 3f
        E 22 bb 07 3f
        E 22 bb 07 3f
        E 22 bb 07 3f
        E 22 bb 07 3f
        E 22 bb 07 3f
        E 22 bb 07 3f
        E 22 bb 07 3f
        E 22 bb 07 3f
        E 22 bb 07 3f
        E 22 bb 07 3f
        E 22 bb 07 3f
        E 22 bb 07 3f
        E 22 bb 07 3f
        E 22 bb 07 3f
        E 22 bb 07 3f
        E 22 bb 07 3f
        E 22 bb 07 3f
        E 22 bb 07 3f
        E 22 bb 07 3f
        E 22 bb 07 3f
        E 22 bb 07 3f
        E 22 bb 07 3f
        E 22 bb 07 3f
        E 22 bb 07 3f
        E 22 bb 07 3f
        E 22 bb 07 00
        E 22 bb 07 00
        E 22 bb 07 00
        E 22 bb 07 00
        E 22 bb 07 00
        E 22 bb 07 00
        E 22 bb 07 00
        E 22 bb 07 00
        E 22 bb 07 00
        E 22 bb 07 00
        E 22 bb 07 00
        E 22 bb 07 00
        E 22 bb 07 00
        E 22 bb 07 00
        E 22 bb 07 00
        E 22 bb 07 00
        E 22 bb 07 00
        E 22 bb 07 00
        E 22 bb 07 00
        E 22 bb 07 00
        E 22 bb 07 00
        E 22 bb 07 00
        E 22 bb 07 00
        E 22 bb 07 00
        E 22 bb 07 00
        E 22 bb 07 00
        E 22 bb 07 00
        E 22 bb 07 00
        E 22 bb 07 00
        E 22 bb 07 00
        E 22 bb 07 00
        E 22 bb 07 00
        E 22 bb 07 00
        E 22 bb 07 00
        E 22 bb 07 00
        E 22 bb 07 00
        E 22 bb 07 00
        E 22 bb 07 00
        E 22 bb 07 00
        E 22 bb 07 00
        E 22 bb 07 00
        E 22 bb 07 00
        E 22 bb 07 00
        E 22 bb 07 00
        E 22 bb 07 00
        E 22 bb 07 00
        E 22 bb 07 00
        E 22 bb 07 00
        E 22 bb 07 00
        E 22 bb 07 00
        E 22 bb 07 00
        E 22 bb 07 00
        E 22 bb 07 00
        E 22 bb 07 00
        E 22 bb 07 00
        E 22 bb 07 00
        E 22 bb 07 00
        E 22 bb 07 00
        E 22 bb 07 00
        E 22 bb 07 00
        E 22 bb 07 00
        E 22 bb 07 00
        E 22 bb 07 00
        E 22 bb 07 00
        E 22 bb 07 3f
        E 22 bb 07 3f
        E 22 bb 07 3f
        E 22 bb 07 3f
        E 22 bb 07 3f
        E 22 bb 07 3f
        E 22 bb 07 3f
        E 22 bb 07 3f
        E 22 bb 07 3f
        E 22 bb 07 3f
        E 22 bb 07 3f
        E 22 bb 07 3f
        E 22 bb 07 3f
        E 22 bb 07 3f
        E 22 bb 07 3f
        E 22 bb 07 3f
        E 22 bb 07 3f
        E 22 bb 07 3f
        E 22 bb 07 3f
        E 22 bb 07 3f
        E 22 bb 07 3f
        E 22 bb 07 3f
        E 22 bb 07 3f
        E 22 bb 07 3f
        E 22 bb 07 3f
        E 22 bb 07 3f
        E 22 bb 07 3f
        E 22 bb 07 3f
        E 22 bb 07 3f
        E 22 bb 07 3f
        E 22 bb 07 3f
        E 22 bb 07 3f
        E 22 bb 07 3f
        E 22 bb 07 3f
        E 22 bb 07 3f
        E 22 bb 07 3f
        E 22 bb 07 3f
        E 22 bb 07 3f
        E 22 bb 07 3f
        E 22 bb 07 3f
        E 22 bb 07 3f
        E 22 bb 07 3f
        E 22 bb 07 3f
        E 22 bb 07 3f
        E 22 bb 07 3f
        E 22 bb 07 3f
        E 22 bb 07 3f
        E 22 bb 07 3f
        E 22 bb 07 3f
        E 22 bb 07 3f
        E 22 bb 07 3f
        E 22 bb 07 3f
        E 22 bb 07 3f
        E 22 bb 07 3f
        E 22 bb 07 3f
        E 22 bb 07 3f
        E 22 bb 07 3f
        E 22 bb 07 3f
        E 22 bb 07 3f
        E 22 bb 07 3f
        E 22 bb 07 3f
        E 22 bb 07 3f
        E 22 bb 07 3f
        E 22 bb 07 00
        E 22 bb 07 00
        E 22 bb 07 00
        E 22 bb 07 00
        E 22 bb 07 00
        E 22 bb 07 00
        E 22 bb 07 00
        E 22 bb 07 00
        E 22 bb 07 00
        E 22 bb 07 00
        E 22 bb 07 00
        E 22 bb 07 00
        E 22 bb 07 00
        E 22 bb 07 00
        E 22 bb 07 00
        E 22 bb 07 00
        E 22 bb 07 00
        E 22 bb 07 00
        E 22 bb 07 00
        E 22 bb 07 00
        E 22 bb 07 00
        E 22 bb 07 00
        E 22 bb 07 00
        E 22 bb 07 00
        E 22 bb 07 00
        E 22 bb 07 00
        E 22 bb 07 00
        E 22 bb 07 00
        E 22 bb 07 00
        E 22 bb 07 00
        E 22 bb 07 00
        E 22 bb 07 00
        E 22 bb 07 00
        E 22 bb 07 00
        E 22 bb 07 00
        E 22 bb 07 00
        E 22 bb 07 00
        E 22 bb 07 00
        E 22 bb 07 00
        E 22 bb 07 00
        E 22 bb 07 00
        E 22 bb 07 00
        E 22 bb 07 00
        E 22 bb 07 00
        E 22 bb 07 00
        E 22 bb 07 00
        E 22 bb 07 00
        E 22 bb 07 00
        E 22 bb 07 00
        E 22 bb 07 00
        E 22 bb 07 00
        E 22 bb 07 00
        E 22 bb 07 00
        E 22 bb 07 00
        E 22 bb 07 00
        E 22 bb 07 00
        E 22 bb 07 00
        E 22 bb 07 00
        E 22 bb 07 00
        E 22 bb 07 00
        E 22 bb 07 00
        E 22 bb 07 00
        E 22 bb 07 00
        E 22 bb 07 00
        E 45 bb 07 58
        E 45 bb 07 58
        E 45 bb 07 58
        E 45 bb 07 58
        E 45 bb 07 58
        E 45 bb 07 58
        E 45 bb 07 58
        E 45 bb 07 58
        E 45 bb 07 58
        E 45 bb 07 58
        E 45 bb 07 58
        E 45 bb 07 58
        E 45 bb 07 58
        E 45 bb 07 58
        E 45 bb 07 58
        E 45 bb 07 58
        E 45 bb 07 58
        E 45 bb 07 58
        E 45 bb 07 58
        E 45 bb 07 58
        E 45 bb 07 58
        E 45 bb 07 58
        E 45 bb 07 58
        E 45 bb 07 58
        E 45 bb 07 58
        E 45 bb 07 58
        E 45 bb 07 58
        E 45 bb 07 58
        E 45 bb 07 58
        E 45 bb 07 58
        E 45 bb 07 58
        E 45 bb 07 58
        E 45 bb 07 58
        E 45 bb 07 58
        E 45 bb 07 58
        E 45 bb 07 58
        E 45 bb 07 58
        E 45 bb 07 58
        E 45 bb 07 58
        E 45 bb 07 58
        E 45 bb 07 58
        E 45 bb 07 58
        E 45 bb 07 58
        E 45 bb 07 58
        E 45 bb 07 58
        E 45 bb 07 58
        E 45 bb 07 58
        E 45 bb 07 58
        E 45 bb 07 58
        E 45 bb 07 58
        E 45 bb 07 58
        E 45 bb 07 58
        E 45 bb 07 58
        E 45 bb 07 58
        E 45 bb 07 58
        E 45 bb 07 58
        E 45 bb 07 58
        E 45 bb 07 58
        E 45 bb 07 58
        E 45 bb 07 58
        E 45 bb 07 58
        E 45 bb 07 58
        E 45 bb 07 58
        E 45 bb 07 00
        E 45 bb 07 00
        E 45 bb 07 00
        E 45 bb 07 00
        E 45 bb 07 00
        E 45 bb 07 00
        E 45 bb 07 00
        E 45 bb 07 00
        E 45 bb 07 00
        E 45 bb 07 00
        E 45 bb 07 00
        E 45 bb 07 00
        E 45 bb 07 00
        E 45 bb 07 00
        E 45 bb 07 00
        E 45 bb 07 00
        E 45 bb 07 00
        E 45 bb 07 00
        E 45 bb 07 00
        E 45 bb 07 00
        E 45 bb 07 00
        E 45 bb 07 00
        E 45 bb 07 00
        E 45 bb 07 00
        E 45 bb 07 00
        E 45 bb 07 00
        E 45 bb 07 00
        E 45 bb 07 00
        E 45 bb 07 00
        E 45 bb 07 00
        E 45 bb 07 00
        E 45 bb 07 00
        E 45 bb 07 00
        E 45 bb 07 00
        E 45 bb 07 00
        E 45 bb 07 00
        E 45 bb 07 00
        E 45 bb 07 00
        E 45 bb 07 00
        E 45 bb 07 00
        E 45 bb 07 00
        E 45 bb 07 00
        E 45 bb 07 00
        E 45 bb 07 00
        E 45 bb 07 00
        E 45 bb 07 00
        E 45 bb 07 00
        E 45 bb 07 00
        E 45 bb 07 00
        E 45 bb 07 00
        E 45 bb 07 00
        E 45 bb 07 00
        E 45 bb 07 00
        E 45 bb 07 00
        E 45 bb 07 00
        E 45 bb 07 00
        E 45 bb 07 00
        E 45 bb 07 00
        E 45 bb 07 00
        E 45 bb 07 00
        E 45 bb 07 00
        E 45 bb 07 00
        E 45 bb 07 00
        E 45 bb 07 00
        E 40 bb 07 65
        E 40 bb 07 65
        E 40 bb 07 65
        E 40 bb 07 65
        E 40 bb 07 65
        E 40 bb 07 65
        E 40 bb 07 65
        E 40 bb 07 65
        E 40 bb 07 65
        E 40 bb 07 65
        E 40 bb 07 65
        E 40 bb 07 65
        E 40 bb 07 65
        E 40 bb 07 65
        E 40 bb 07 65
        E 40 bb 07 65
        E 40 bb 07 65
        E 40 bb 07 65
        E 40 bb 07 65
        E 40 bb 07 65
        E 40 bb 07 65
        E 40 bb 07 65
        E 40 bb 07 65
        E 40 bb 07 65
        E 40 bb 07 65
        E 40 bb 07 65
        E 40 bb 07 65
        E 40 bb 07 65
        E 40 bb 07 65
        E 40 bb 07 65
        E 40 bb 07 65
        E 40 bb 07 65
        E 40 bb 07 65
        E 40 bb 07 65
        E 40 bb 07 65
        E 40 bb 07 65
        E 40 bb 07 65
        E 40 bb 07 65
        E 40 bb 07 65
        E 40 bb 07 65
        E 40 bb 07 65
        E 40 bb 07 65
        E 40 bb 07 65
        E 40 bb 07 65
        E 40 bb 07 65
        E 40 bb 07 65
        E 40 bb 07 65
        E 40 bb 07 65
        E 40 bb 07 65
        E 40 bb 07 65
        E 40 bb 07 65
        E 40 bb 07 65
        E 40 bb 07 65
        E 40 bb 07 65
        E 40 bb 07 65
        E 40 bb 07 65
        E 40 bb 07 65
        E 40 bb 07 65
        E 40 bb 07 65
        E 40 bb 07 65
        E 40 bb 07 65
        E 40 bb 07 65
        E 40 bb 07 65
        E 40 bb 07 00
        E 40 bb 07 00
        E 40 bb 07 00
        E 40 bb 07 00
        E 40 bb 07 00
        E 40 bb 07 00
        E 40 bb 07 00
        E 40 bb 07 00
        E 40 bb 07 00
        E 40 bb 07 00
        E 40 bb 07 00
        E 40 bb 07 00
        E 40 bb 07 00
        E 40 bb 07 00
        E 40 bb 07 00
        E 40 bb 07 00
        E 40 bb 07 00
        E 40 bb 07 00
        E 40 bb 07 00
        E 40 bb 07 00
        E 40 bb 07 00
        E 40 bb 07 00
        E 40 bb 07 00
        E 40 bb 07 00
        E 40 bb 07 00
        E 40 bb 07 00
        E 40 bb 07 00
        E 40 bb 07 00
        E 40 bb 07 00
        E 40 bb 07 00
        E 40 bb 07 00
        E 40 bb 07 00
        E 40 bb 07 00
        E 40 bb 07 00
        E 40 bb 07 00
        E 40 bb 07 00
        E 40 bb 07 00
        E 40 bb 07 00
        E 40 bb 07 00
        E 40 bb 07 00
        E 40 bb 07 00
        E 40 bb 07 00
        E 40 bb 07 00
        E 40 bb 07 00
        E 40 bb 07 00
        E 40 bb 07 00
        E 40 bb 07 00
        E 40 bb 07 00
        E 40 bb 07 00
        E 40 bb 07 00
        E 40 bb 07 00
        E 40 bb 07 00
        E 40 bb 07 00
        E 40 bb 07 00
        E 40 bb 07 00
        E 40 bb 07 00
        E 40 bb 07 00
        E 40 bb 07 00
        E 40 bb 07 00
        E 40 bb 07 00
        E 40 bb 07 00
        E 40 bb 07 00
        E 40 bb 07 00
        E 40 bb 07 00
        E 45 bb 07 0c
        E 45 bb 07 0c
        E 45 bb 07 0c
        E 45 bb 07 0c
        E 45 bb 07 0c
        E 45 bb 07 0c
        E 45 bb 07 0c
        E 45 bb 07 0c
        E 45 bb 07 0c
        E 45 bb 07 0c
        E 45 bb 07 0c
        E 45 bb 07 0c
        E 45 bb 07 0c
        E 45 bb 07 0c
        E 45 bb 07 0c
        E 45 bb 07 0c
        E 45 bb 07 0c
        E 45 bb 07 0c
        E 45 bb 07 0c
        E 45 bb 07 0c
        E 45 bb 07 0c
        E 45 bb 07 0c
        E 45 bb 07 0c
        E 45 bb 07 0c
        E 45 bb 07 0c
        E 45 bb 07 0c
        E 45 bb 07 0c
        E 45 bb 07 0c
        E 45 bb 07 0c
        E 45 bb 07 0c
        E 45 bb 07 0c
        E 45 bb 07 0c
        E 45 bb 07 0c
        E 45 bb 07 0c
        E 45 bb 07 0c
        E 45 bb 07 0c
        E 45 bb 07 0c
        E 45 bb 07 0c
        E 45 bb 07 0c
        E 45 bb 07 0c
        E 45 bb 07 0c
        E 45 bb 07 0c
        E 45 bb 07 0c
        E 45 bb 07 0c
        E 45 bb 07 0c
        E 45 bb 07 0c
        E 45 bb 07 0c
        E 45 bb 07 0c
        E 45 bb 07 0c
        E 45 bb 07 0c
        E 45 bb 07 0c
        E 45 bb 07 0c
        E 45 bb 07 0c
        E 45 bb 07 0c
        E 45 bb 07 0c
        E 45 bb 07 0c
        E 45 bb 07 0c
        E 45 bb 07 0c
        E 45 bb 07 0c
        E 45 bb 07 0c
        E 45 bb 07 0c
        E 45 bb 07 0c
        E 45 bb 07 0c
        E 45 bb 07 00
        E 45 bb 07 00
        E 45 bb 07 00
        E 45 bb 07 00
        E 45 bb 07 00
        E 45 bb 07 00
        E 45 bb 07 00
        E 45 bb 07 00
        E 45 bb 07 00
        E 45 bb 07 00
        E 45 bb 07 00
        E 45 bb 07 00
        E 45 bb 07 00
        E 45 bb 07 00
        E 45 bb 07 00
        E 45 bb 07 00
        E 45 bb 07 00
        E 45 bb 07 00
        E 45 bb 07 00
        E 45 bb 07 00
        E 45 bb 07 00
        E 45 bb 07 00
        E 45 bb 07 00
        E 45 bb 07 00
        E 45 bb 07 00
        E 45 bb 07 00
        E 45 bb 07 00
        E 45 bb 07 00
        E 45 bb 07 00
        E 45 bb 07 00
        E 45 bb 07 00
        E 45 bb 07 00
        E 45 bb 07 00
        E 45 bb 07 00
        E 45 bb 07 00
        E 45 bb 07 00
        E 45 bb 07 00
        E 45 bb 07 00
        E 45 bb 07 00
        E 45 bb 07 00
        E 45 bb 07 00
        E 45 bb 07 00
        E 45 bb 07 00
        E 45 bb 07 00
        E 45 bb 07 00
        E 45 bb 07 00
        E 45 bb 07 00
        E 45 bb 07 00
        E 45 bb 07 00
        E 45 bb 07 00
        E 45 bb 07 00
        E 45 bb 07 00
        E 45 bb 07 00
        E 45 bb 07 00
        E 45 bb 07 00
        E 45 bb 07 00
        E 45 bb 07 00
        E 45 bb 07 00
        E 45 bb 07 00
        E 45 bb 07 00
        E 45 bb 07 00
        E 45 bb 07 00
        E 45 bb 07 00
        E 45 bb 07 00
        E 40 bb 07 32
        E 40 bb 07 32
        E 40 bb 07 32
        E 40 bb 07 32
        E 40 bb 07 32
        E 40 bb 07 32
        E 40 bb 07 32
        E 40 bb 07 32
        E 40 bb 07 32
        E 40 bb 07 32
        E 40 bb 07 32
        E 40 bb 07 32
        E 40 bb 07 32
        E 40 bb 07 32
        E 40 bb 07 32
        E 40 bb 07 32
        E 40 bb 07 32
        E 40 bb 07 32
        E 40 bb 07 32
        E 40 bb 07 32
        E 40 bb 07 32
        E 40 bb 07 32
        E 40 bb 07 32
        E 40 bb 07 32
        E 40 bb 07 32
        E 40 bb 07 32
        E 40 bb 07 32
        E 40 bb 07 32
        E 40 bb 07 32
        E 40 bb 07 32
        E 40 bb 07 32
        E 40 bb 07 32
        E 40 bb 07 32
        E 40 bb 07 32
        E 40 bb 07 32
        E 40 bb 07 32
        E 40 bb 07 32
        E 40 bb 07 32
        E 40 bb 07 32
        E 40 bb 07 32
        E 40 bb 07 32
        E 40 bb 07 32
        E 40 bb 07 32
        E 40 bb 07 32
        E 40 bb 07 32
        E 40 bb 07 32
        E 40 bb 07 32
        E 40 bb 07 32
        E 40 bb 07 32
        E 40 bb 07 32
        E 40 bb 07 32
        E 40 bb 07 32
        E 40 bb 07 32
        E 40 bb 07 32
        E 40 bb 07 32
        E 40 bb 07 32
        E 40 bb 07 32
        E 40 bb 07 32
        E 40 bb 07 32
        E 40 bb 07 32
        E 40 bb 07 32
        E 40 bb 07 32
        E 40 bb 07 32
        E 40 bb 07 00
        E 40 bb 07 00
        E 40 bb 07 00
        E 40 bb 07 00
        E 40 bb 07 00
        E 40 bb 07 00
        E 40 bb 07 00
        E 40 bb 07 00
        E 40 bb 07 00
        E 40 bb 07 00
        E 40 bb 07 00
        E 40 bb 07 00
        E 40 bb 07 00
        E 40 bb 07 00
        E 40 bb 07 00
        E 40 bb 07 00
        E 40 bb 07 00
        E 40 bb 07 00
        E 40 bb 07 00
        E 40 bb 07 00
        E 40 bb 07 00
        E 40 bb 07 00
        E 40 bb 07 00
        E 40 bb 07 00
        E 40 bb 07 00
        E 40 bb 07 00
        E 40 bb 07 00
        E 40 bb 07 00
        E 40 bb 07 00
        E 40 bb 07 00
        E 40 bb 07 00
        E 40 bb 07 00
        E 40 bb 07 00
        E 40 bb 07 00
        E 40 bb 07 00
        E 40 bb 07 00
        E 40 bb 07 00
        E 40 bb 07 00
        E 40 bb 07 00
        E 40 bb 07 00
        E 40 bb 07 00
        E 40 bb 07 00
        E 40 bb 07 00
        E 40 bb 07 00
        E 40 bb 07 00
        E 40 bb 07 00
        E 40 bb 07 00
        E 40 bb 07 00
        E 40 bb 07 00
        E 40 bb 07 00
        E 40 bb 07 00
        E 40 bb 07 00
        E 40 bb 07 00
        E 40 bb 07 00
        E 40 bb 07 00
        E 40 bb 07 00
        E 40 bb 07 00
        E 40 bb 07 00
        E 40 bb 07 00
        E 40 bb 07 00
        E 40 bb 07 00
        E 40 bb 07 00
        E 40 bb 07 00
        E 40 bb 07 00
        E 31 bb 07 3f
        E 31 bb 07 3f
        E 31 bb 07 3f
        E 31 bb 07 3f
        E 31 bb 07 3f
        E 31 bb 07 3f
        E 31 bb 07 3f
        E 31 bb 07 3f
        E 31 bb 07 3f
        E 31 bb 07 3f
        E 31 bb 07 3f
        E 31 bb 07 3f
        E 31 bb 07 3f
        E 31 bb 07 3f
        E 31 bb 07 3f
        E 31 bb 07 3f
        E 31 bb 07 3f
        E 31 bb 07 3f
        E 31 bb 07 3f
        E 31 bb 07 3f
        E 31 bb 07 3f
        E 31 bb 07 3f
        E 31 bb 07 3f
        E 31 bb 07 3f
        E 31 bb 07 3f
        E 31 bb 07 3f
        E 31 bb 07 3f
        E 31 bb 07 3f
        E 31 bb 07 3f
        E 31 bb 07 3f
        E 31 bb 07 3f
        E 31 bb 07 3f
        E 31 bb 07 3f
        E 31 bb 07 3f
        E 31 bb 07 3f
        E 31 bb 07 3f
        E 31 bb 07 3f
        E 31 bb 07 3f
        E 31 bb 07 3f
        E 31 bb 07 3f
        E 31 bb 07 3f
        E 31 bb 07 3f
        E 31 bb 07 3f
        E 31 bb 07 3f
        E 31 bb 07 3f
        E 31 bb 07 3f
        E 31 bb 07 3f
        E 31 bb 07 3f
        E 31 bb 07 3f
        E 31 bb 07 3f
        E 31 bb 07 3f
        E 31 bb 07 3f
        E 31 bb 07 3f
        E 31 bb 07 3f
        E 31 bb 07 3f
        E 31 bb 07 3f
        E 31 bb 07 3f
        E 31 bb 07 3f
        E 31 bb 07 3f
        E 31 bb 07 3f
        E 31 bb 07 3f
        E 31 bb 07 3f
        E 31 bb 07 3f
        E 31 bb 07 00
        E 31 bb 07 00
        E 31 bb 07 00
        E 31 bb 07 00
        E 31 bb 07 00
        E 31 bb 07 00
        E 31 bb 07 00
        E 31 bb 07 00
        E 31 bb 07 00
        E 31 bb 07 00
        E 31 bb 07 00
        E 31 bb 07 00
        E 31 bb 07 00
        E 31 bb 07 00
        E 31 bb 07 00
        E 31 bb 07 00
        E 31 bb 07 00
        E 31 bb 07 00
        E 31 bb 07 00
        E 31 bb 07 00
        E 31 bb 07 00
        E 31 bb 07 00
        E 31 bb 07 00
        E 31 bb 07 00
        E 31 bb 07 00
        E 31 bb 07 00
        E 31 bb 07 00
        E 31 bb 07 00
        E 31 bb 07 00
        E 31 bb 07 00
        E 31 bb 07 00
        E 31 bb 07 00
        E 31 bb 07 00
        E 31 bb 07 00
        E 31 bb 07 00
        E 31 bb 07 00
        E 31 bb 07 00
        E 31 bb 07 00
        E 31 bb 07 00
        E 31 bb 07 00
        E 31 bb 07 00
        E 31 bb 07 00
        E 31 bb 07 00
        E 31 bb 07 00
        E 31 bb 07 00
        E 31 bb 07 00
        E 31 bb 07 00
        E 31 bb 07 00
        E 31 bb 07 00
        E 31 bb 07 00
        E 31 bb 07 00
        E 31 bb 07 00
        E 31 bb 07 00
        E 31 bb 07 00
        E 31 bb 07 00
        E 31 bb 07 00
        E 31 bb 07 00
        E 31 bb 07 00
        E 31 bb 07 00
        E 31 bb 07 00
        E 31 bb 07 00
        E 31 bb 07 00
        E 31 bb 07 00
        E 31 bb 07 00
        E 36 bb 07 7f
        E 36 bb 07 7f
        E 36 bb 07 7f
        E 36 bb 07 7f
        E 36 bb 07 7f
        E 36 bb 07 7f
        E 36 bb 07 7f
        E 36 bb 07 7f
        E 36 bb 07 7f
        E 36 bb 07 7f
        E 36 bb 07 7f
        E 36 bb 07 7f
        E 36 bb 07 7f
        E 36 bb 07 7f
        E 36 bb 07 7f
        E 36 bb 07 7f
        E 36 bb 07 7f
        E 36 bb 07 7f
        E 36 bb 07 7f
        E 36 bb 07 7f
        E 36 bb 07 7f
        E 36 bb 07 7f
        E 36 bb 07 7f
        E 36 bb 07 7f
        E 36 bb 07 7f
        E 36 bb 07 7f
        E 36 bb 07 7f
        E 36 bb 07 7f
        E 36 bb 07 7f
        E 36 bb 07 7f
        E 36 bb 07 7f
        E 36 bb 07 7f
        E 36 bb 07 7f
        E 36 bb 07 7f
        E 36 bb 07 7f
        E 36 bb 07 7f
        E 36 bb 07 7f
        E 36 bb 07 7f
        E 36 bb 07 7f
        E 36 bb 07 7f
        E 36 bb 07 7f
        E 36 bb 07 7f
        E 36 bb 07 7f
        E 36 bb 07 7f
        E 36 bb 07 7f
        E 36 bb 07 7f
        E 36 bb 07 7f
        E 36 bb 07 7f
        E 36 bb 07 7f
        E 36 bb 07 7f
        E 36 bb 07 7f
        E 36 bb 07 7f
        E 36 bb 07 7f
        E 36 bb 07 7f
        E 36 bb 07 7f
        E 36 bb 07 7f
        E 36 bb 07 7f
        E 36 bb 07 7f
        E 36 bb 07 7f
        E 36 bb 07 7f
        E 36 bb 07 7f
        E 36 bb 07 7f
        E 36 bb 07 7f
        E 36 bb 07 00
        E 36 bb 07 00
        E 36 bb 07 00
        E 36 bb 07 00
        E 36 bb 07 00
        E 36 bb 07 00
        E 36 bb 07 00
        E 36 bb 07 00
        E 36 bb 07 00
        E 36 bb 07 00
        E 36 bb 07 00
        E 36 bb 07 00
        E 36 bb 07 00
        E 36 bb 07 00
        E 36 bb 07 00
        E 36 bb 07 00
        E 36 bb 07 00
        E 36 bb 07 00
        E 36 bb 07 00
        E 36 bb 07 00
        E 36 bb 07 00
        E 36 bb 07 00
        E 36 bb 07 00
        E 36 bb 07 00
        E 36 bb 07 00
        E 36 bb 07 00
        E 36 bb 07 00
        E 36 bb 07 00
        E 36 bb 07 00
        E 36 bb 07 00
        E 36 bb 07 00
        E 36 bb 07 00
        E 36 bb 07 00
        E 36 bb 07 00
        E 36 bb 07 00
        E 36 bb 07 00
        E 36 bb 07 00
        E 36 bb 07 00
        E 36 bb 07 00
        E 36 bb 07 00
        E 36 bb 07 00
        E 36 bb 07 00
        E 36 bb 07 00
        E 36 bb 07 00
        E 36 bb 07 00
        E 36 bb 07 00
        E 36 bb 07 00
        E 36 bb 07 00
        E 36 bb 07 00
        E 36 bb 07 00
        E 36 bb 07 00
        E 36 bb 07 00
        E 36 bb 07 00
        E 36 bb 07 00
        E 36 bb 07 00
        E 36 bb 07 00
        E 36 bb 07 00
        E 36 bb 07 00
        E 36 bb 07 00
        E 36 bb 07 00
        E 36 bb 07 00
        E 36 bb 07 00
        E 36 bb 07 00
        E 36 bb 07 00
        E 4 bb 07 72
        E 4 bb 07 72
        E 4 bb 07 72
        E 4 bb 07 72
        E 4 bb 07 72
        E 4 bb 07 72
        E 4 bb 07 72
        E 4 bb 07 72
        E 4 bb 07 72
        E 4 bb 07 72
        E 4 bb 07 72
        E 4 bb 07 72
        E 4 bb 07 72
        E 4 bb 07 72
        E 4 bb 07 72
        E 4 bb 07 72
        E 4 bb 07 72
        E 4 bb 07 72
        E 4 bb 07 72
        E 4 bb 07 72
        E 4 bb 07 72
        E 4 bb 07 72
        E 4 bb 07 72
        E 4 bb 07 72
        E 4 bb 07 72
        E 4 bb 07 72
        E 4 bb 07 72
        E 4 bb 07 72
        E 4 bb 07 72
        E 4 bb 07 72
        E 4 bb 07 72
        E 4 bb 07 72
        E 4 bb 07 72
        E 4 bb 07 72
        E 4 bb 07 72
        E 4 bb 07 72
        E 4 bb 07 72
        E 4 bb 07 72
        E 4 bb 07 72
        E 4 bb 07 72
        E 4 bb 07 72
        E 4 bb 07 72
        E 4 bb 07 72
        E 4 bb 07 72
        E 4 bb 07 72
        E 4 bb 07 72
        E 4 bb 07 72
        E 4 bb 07 72
        E 4 bb 07 72
        E 4 bb 07 72
        E 4 bb 07 72
        E 4 bb 07 72
        E 4 bb 07 72
        E 4 bb 07 72
        E 4 bb 07 72
        E 4 bb 07 72
        E 4 bb 07 72
        E 4 bb 07 72
        E 4 bb 07 72
        E 4 bb 07 72
        E 4 bb 07 72
        E 4 bb 07 72
        E 4 bb 07 72
        E 4 bb 07 00
        E 4 bb 07 00
        E 4 bb 07 00
        E 4 bb 07 00
        E 4 bb 07 00
        E 4 bb 07 00
        E 4 bb 07 00
        E 4 bb 07 00
        E 4 bb 07 00
        E 4 bb 07 00
        E 4 bb 07 00
        E 4 bb 07 00
        E 4 bb 07 00
        E 4 bb 07 00
        E 4 bb 07 00
        E 4 bb 07 00
        E 4 bb 07 00
        E 4 bb 07 00
        E 4 bb 07 00
        E 4 bb 07 00
        E 4 bb 07 00
        E 4 bb 07 00
        E 4 bb 07 00
        E 4 bb 07 00
        E 4 bb 07 00
        E 4 bb 07 00
        E 4 bb 07 00
        E 4 bb 07 00
        E 4 bb 07 00
        E 4 bb 07 00
        E 4 bb 07 00
        E 4 bb 07 00
        E 4 bb 07 00
        E 4 bb 07 00
        E 4 bb 07 00
        E 4 bb 07 00
        E 4 bb 07 00
        E 4 bb 07 00
        E 4 bb 07 00
        E 4 bb 07 00
        E 4 bb 07 00
        E 4 bb 07 00
        E 4 bb 07 00
        E 4 bb 07 00
        E 4 bb 07 00
        E 4 bb 07 00
        E 4 bb 07 00
        E 4 bb 07 00
        E 4 bb 07 00
        E 4 bb 07 00
        E 4 bb 07 00
        E 4 bb 07 00
        E 4 bb 07 00
        E 4 bb 07 00
        E 4 bb 07 00
        E 4 bb 07 00
        E 4 bb 07 00
        E 4 bb 07 00
        E 4 bb 07 00
        E 4 bb 07 00
        E 4 bb 07 00
        E 4 bb 07 00
        E 4 bb 07 00
        E 4 bb 07 00
        E 18 bb 07 7f
        E 18 bb 07 7f
        E 18 bb 07 7f
        E 18 bb 07 7f
        E 18 bb 07 7f
        E 18 bb 07 7f
        E 18 bb 07 7f
        E 18 bb 07 7f
        E 18 bb 07 7f
        E 18 bb 07 7f
        E 18 bb 07 7f
        E 18 bb 07 7f
        E 18 bb 07 7f
        E 18 bb 07 7f
        E 18 bb 07 7f
        E 18 bb 07 7f
        E 18 bb 07 7f
        E 18 bb 07 7f
        E 18 bb 07 7f
        E 18 bb 07 7f
        E 18 bb 07 7f
        E 18 bb 07 7f
        E 18 bb 07 7f
        E 18 bb 07 7f
        E 18 bb 07 7f
        E 18 bb 07 7f
        E 18 bb 07 7f
        E 18 bb 07 7f
        E 18 bb 07 7f
        E 18 bb 07 7f
        E 18 bb 07 7f
        E 18 bb 07 7f
        E 18 bb 07 7f
        E 18 bb 07 7f
        E 18 bb 07 7f
        E 18 bb 07 7f
        E 18 bb 07 7f
        E 18 bb 07 7f
        E 18 bb 07 7f
        E 18 bb 07 7f
        E 18 bb 07 7f
        E 18 bb 07 7f
        E 18 bb 07 7f
        E 18 bb 07 7f
        E 18 bb 07 7f
        E 18 bb 07 7f
        E 18 bb 07 7f
        E 18 bb 07 7f
        E 18 bb 07 7f
        E 18 bb 07 7f
        E 18 bb 07 7f
        E 18 bb 07 7f
        E 18 bb 07 7f
        E 18 bb 07 7f
        E 18 bb 07 7f
        E 18 bb 07 7f
        E 18 bb 07 7f
        E 18 bb 07 7f
        E 18 bb 07 7f
        E 18 bb 07 7f
        E 18 bb 07 7f
        E 18 bb 07 7f
        E 18 bb 07 7f
        E 18 bb 07 00
        E 18 bb 07 00
        E 18 bb 07 00
        E 18 bb 07 00
        E 18 bb 07 00
        E 18 bb 07 00
        E 18 bb 07 00
        E 18 bb 07 00
        E 18 bb 07 00
        E 18 bb 07 00
        E 18 bb 07 00
        E 18 bb 07 00
        E 18 bb 07 00
        E 18 bb 07 00
        E 18 bb 07 00
        E 18 bb 07 00
        E 18 bb 07 00
        E 18 bb 07 00
        E 18 bb 07 00
        E 18 bb 07 00
        E 18 bb 07 00
        E 18 bb 07 00
        E 18 bb 07 00
        E 18 bb 07 00
        E 18 bb 07 00
        E 18 bb 07 00
        E 18 bb 07 00
        E 18 bb 07 00
        E 18 bb 07 00
        E 18 bb 07 00
        E 18 bb 07 00
        E 18 bb 07 00
        E 18 bb 07 00
        E 18 bb 07 00
        E 18 bb 07 00
        E 18 bb 07 00
        E 18 bb 07 00
        E 18 bb 07 00
        E 18 bb 07 00
        E 18 bb 07 00
        E 18 bb 07 00
        E 18 bb 07 00
        E 18 bb 07 00
        E 18 bb 07 00
        E 18 bb 07 00
        E 18 bb 07 00
        E 18 bb 07 00
        E 18 bb 07 00
        E 18 bb 07 00
        E 18 bb 07 00
        E 18 bb 07 00
        E 18 bb 07 00
        E 18 bb 07 00
        E 18 bb 07 00
        E 18 bb 07 00
        E 18 bb 07 00
        E 18 bb 07 00
        E 18 bb 07 00
        E 18 bb 07 00
        E 18 bb 07 00
        E 18 bb 07 00
        E 18 bb 07 00
        E 18 bb 07 00
        E 18 bb 07 00
        E 31 bb 07 72
        E 31 bb 07 72
        E 31 bb 07 72
        E 31 bb 07 72
        E 31 bb 07 72
        E 31 bb 07 72
        E 31 bb 07 72
        E 31 bb 07 72
        E 31 bb 07 72
        E 31 bb 07 72
        E 31 bb 07 72
        E 31 bb 07 72
        E 31 bb 07 72
        E 31 bb 07 72
        E 31 bb 07 72
        E 31 bb 07 72
        E 31 bb 07 72
        E 31 bb 07 72
        E 31 bb 07 72
        E 31 bb 07 72
        E 31 bb 07 72
        E 31 bb 07 72
        E 31 bb 07 72
        E 31 bb 07 72
        E 31 bb 07 72
        E 31 bb 07 72
        E 31 bb 07 72
        E 31 bb 07 72
        E 31 bb 07 72
        E 31 bb 07 72
        E 31 bb 07 72
        E 31 bb 07 72
        E 31 bb 07 72
        E 31 bb 07 72
        E 31 bb 07 72
        E 31 bb 07 72
        E 31 bb 07 72
        E 31 bb 07 72
        E 31 bb 07 72
        E 31 bb 07 72
        E 31 bb 07 72
        E 31 bb 07 72
        E 31 bb 07 72
        E 31 bb 07 72
        E 31 bb 07 72
        E 31 bb 07 72
        E 31 bb 07 72
        E 31 bb 07 72
        E 31 bb 07 72
        E 31 bb 07 72
        E 31 bb 07 72
        E 31 bb 07 72
        E 31 bb 07 72
        E 31 bb 07 72
        E 31 bb 07 72
        E 31 bb 07 72
        E 31 bb 07 72
        E 31 bb 07 72
        E 31 bb 07 72
        E 31 bb 07 72
        E 31 bb 07 72
        E 31 bb 07 72
        E 31 bb 07 72
        E 31 bb 07 00
        E 31 bb 07 00
        E 31 bb 07 00
        E 31 bb 07 00
        E 31 bb 07 00
        E 31 bb 07 00
        E 31 bb 07 00
        E 31 bb 07 00
        E 31 bb 07 00
        E 31 bb 07 00
        E 31 bb 07 00
        E 31 bb 07 00
        E 31 bb 07 00
        E 31 bb 07 00
        E 31 bb 07 00
        E 31 bb 07 00
        E 31 bb 07 00
        E 31 bb 07 00
        E 31 bb 07 00
        E 31 bb 07 00
        E 31 bb 07 00
        E 31 bb 07 00
        E 31 bb 07 00
        E 31 bb 07 00
        E 31 bb 07 00
        E 31 bb 07 00
        E 31 bb 07 00
        E 31 bb 07 00
        E 31 bb 07 00
        E 31 bb 07 00
        E 31 bb 07 00
        E 31 bb 07 00
        E 31 bb 07 00
        E 31 bb 07 00
        E 31 bb 07 00
        E 31 bb 07 00
        E 31 bb 07 00
        E 31 bb 07 00
        E 31 bb 07 00
        E 31 bb 07 00
        E 31 bb 07 00
        E 31 bb 07 00
        E 31 bb 07 00
        E 31 bb 07 00
        E 31 bb 07 00
        E 31 bb 07 00
        E 31 bb 07 00
        E 31 bb 07 00
        E 31 bb 07 00
        E 31 bb 07 00
        E 31 bb 07 00
        E 31 bb 07 00
        E 31 bb 07 00
        E 31 bb 07 00
        E 31 bb 07 00
        E 31 bb 07 00
        E 31 bb 07 00
        E 31 bb 07 00
        E 31 bb 07 00
        E 31 bb 07 00
        E 31 bb 07 00
        E 31 bb 07 00
        E 31 bb 07 00
        E 31 bb 07 00
        E 22 bb 07 3f
        E 22 bb 07 3f
        E 22 bb 07 3f
        E 22 bb 07 3f
        E 22 bb 07 3f
        E 22 bb 07 3f
        E 22 bb 07 3f
        E 22 bb 07 3f
        E 22 bb 07 3f
        E 22 bb 07 3f
        E 22 bb 07 3f
        E 22 bb 07 3f
        E 22 bb 07 3f
        E 22 bb 07 3f
        E 22 bb 07 3f
        E 22 bb 07 3f
        E 22 bb 07 3f
        E 22 bb 07 3f
        E 22 bb 07 3f
        E 22 bb 07 3f
        E 22 bb 07 3f
        E 22 bb 07 3f
        E 22 bb 07 3f
        E 22 bb 07 3f
        E 22 bb 07 3f
        E 22 bb 07 3f
        E 22 bb 07 3f
        E 22 bb 07 3f
        E 22 bb 07 3f
        E 22 bb 07 3f
        E 22 bb 07 3f
        E 22 bb 07 3f
        E 22 bb 07 3f
        E 22 bb 07 3f
        E 22 bb 07 3f
        E 22 bb 07 3f
        E 22 bb 07 3f
        E 22 bb 07 3f
        E 22 bb 07 3f
        E 22 bb 07 3f
        E 22 bb 07 3f
        E 22 bb 07 3f
        E 22 bb 07 3f
        E 22 bb 07 3f
        E 22 bb 07 3f
        E 22 bb 07 3f
        E 22 bb 07 3f
        E 22 bb 07 3f
        E 22 bb 07 3f
        E 22 bb 07 3f
        E 22 bb 07 3f
        E 22 bb 07 3f
        E 22 bb 07 3f
        E 22 bb 07 3f
        E 22 bb 07 3f
        E 22 bb 07 3f
        E 22 bb 07 3f
        E 22 bb 07 3f
        E 22 bb 07 3f
        E 22 bb 07 3f
        E 22 bb 07 3f
        E 22 bb 07 3f
        E 22 bb 07 3f
        E 22 bb 07 00
        E 22 bb 07 00
        E 22 bb 07 00
        E 22 bb 07 00
        E 22 bb 07 00
        E 22 bb 07 00
        E 22 bb 07 00
        E 22 bb 07 00
        E 22 bb 07 00
        E 22 bb 07 00
        E 22 bb 07 00
        E 22 bb 07 00
        E 22 bb 07 00
        E 22 bb 07 00
        E 22 bb 07 00
        E 22 bb 07 00
        E 22 bb 07 00
        E 22 bb 07 00
        E 22 bb 07 00
        E 22 bb 07 00
        E 22 bb 07 00
        E 22 bb 07 00
        E 22 bb 07 00
        E 22 bb 07 00
        E 22 bb 07 00
        E 22 bb 07 00
        E 22 bb 07 00
        E 22 bb 07 00
        E 22 bb 07 00
        E 22 bb 07 00
        E 22 bb 07 00
        E 22 bb 07 00
        E 22 bb 07 00
        E 22 bb 07 00
        E 22 bb 07 00
        E 22 bb 07 00
        E 22 bb 07 00
        E 22 bb 07 00
        E 22 bb 07 00
        E 22 bb 07 00
        E 22 bb 07 00
        E 22 bb 07 00
        E 22 bb 07 00
        E 22 bb 07 00
        E 22 bb 07 00
        E 22 bb 07 00
        E 22 bb 07 00
        E 22 bb 07 00
        E 22 bb 07 00
        E 22 bb 07 00
        E 22 bb 07 00
        E 22 bb 07 00
        E 22 bb 07 00
        E 22 bb 07 00
        E 22 bb 07 00
        E 22 bb 07 00
        E 22 bb 07 00
        E 22 bb 07 00
        E 22 bb 07 00
        E 22 bb 07 00
        E 22 bb 07 00
        E 22 bb 07 00
        E 22 bb 07 00
        E 22 bb 07 00
        E 22 bb 07 3f
        E 22 bb 07 3f
        E 22 bb 07 3f
        E 22 bb 07 3f
        E 22 bb 07 3f
        E 22 bb 07 3f
        E 22 bb 07 3f
        E 22 bb 07 3f
        E 22 bb 07 3f
        E 22 bb 07 3f
        E 22 bb 07 3f
        E 22 bb 07 3f
        E 22 bb 07 3f
        E 22 bb 07 3f
        E 22 bb 07 3f
        E 22 bb 07 3f
        E 22 bb 07 3f
        E 22 bb 07 3f
        E 22 bb 07 3f
        E 22 bb 07 3f
        E 22 bb 07 3f
        E 22 bb 07 3f
        E 22 bb 07 3f
        E 22 bb 07 3f
        E 22 bb 07 3f
        E 22 bb 07 3f
        E 22 bb 07 3f
        E 22 bb 07 3f
        E 22 bb 07 3f
        E 22 bb 07 3f
        E 22 bb 07 3f
        E 22 bb 07 3f
        E 22 bb 07 3f
        E 22 bb 07 3f
        E 22 bb 07 3f
        E 22 bb 07 3f
        E 22 bb 07 3f
        E 22 bb 07 3f
        E 22 bb 07 3f
        E 22 bb 07 3f
        E 22 bb 07 3f
        E 22 bb 07 3f
        E 22 bb 07 3f
        E 22 bb 07 3f
        E 22 bb 07 3f
        E 22 bb 07 3f
        E 22 bb 07 3f
        E 22 bb 07 3f
        E 22 bb 07 3f
        E 22 bb 07 3f
        E 22 bb 07 3f
        E 22 bb 07 3f
        E 22 bb 07 3f
        E 22 bb 07 3f
        E 22 bb 07 3f
        E 22 bb 07 3f
        E 22 bb 07 3f
        E 22 bb 07 3f
        E 22 bb 07 3f
        E 22 bb 07 3f
        E 22 bb 07 3f
        E 22 bb 07 3f
        E 22 bb 07 3f
        E 22 bb 07 00
        E 22 bb 07 00
        E 22 bb 07 00
        E 22 bb 07 00
        E 22 bb 07 00
        E 22 bb 07 00
        E 22 bb 07 00
        E 22 bb 07 00
        E 22 bb 07 00
        E 22 bb 07 00
        E 22 bb 07 00
        E 22 bb 07 00
        E 22 bb 07 00
        E 22 bb 07 00
        E 22 bb 07 00
        E 22 bb 07 00
        E 22 bb 07 00
        E 22 bb 07 00
        E 22 bb 07 00
        E 22 bb 07 00
        E 22 bb 07 00
        E 22 bb 07 00
        E 22 bb 07 00
        E 22 bb 07 00
        E 22 bb 07 00
        E 22 bb 07 00
        E 22 bb 07 00
        E 22 bb 07 00
        E 22 bb 07 00
        E 22 bb 07 00
        E 22 bb 07 00
        E 22 bb 07 00
        E 22 bb 07 00
        E 22 bb 07 00
        E 22 bb 07 00
        E 22 bb 07 00
        E 22 bb 07 00
        E 22 bb 07 00
        E 22 bb 07 00
        E 22 bb 07 00
        E 22 bb 07 00
        E 22 bb 07 00
        E 22 bb 07 00
        E 22 bb 07 00
        E 22 bb 07 00
        E 22 bb 07 00
        E 22 bb 07 00
        E 22 bb 07 00
        E 22 bb 07 00
        E 22 bb 07 00
        E 22 bb 07 00
        E 22 bb 07 00
        E 22 bb 07 00
        E 22 bb 07 00
        E 22 bb 07 00
        E 22 bb 07 00
        E 22 bb 07 00
        E 22 bb 07 00
        E 22 bb 07 00
        E 22 bb 07 00
        E 22 bb 07 00
        E 22 bb 07 00
        E 22 bb 07 00
        E 22 bb 07 00
        E 45 bb 07 58
        E 45 bb 07 58
        E 45 bb 07 58
        E 45 bb 07 58
        E 45 bb 07 58
        E 45 bb 07 58
        E 45 bb 07 58
        E 45 bb 07 58
        E 45 bb 07 58
        E 45 bb 07 58
        E 45 bb 07 58
        E 45 bb 07 58
        E 45 bb 07 58
        E 45 bb 07 58
        E 45 bb 07 58
        E 45 bb 07 58
        E 45 bb 07 58
        E 45 bb 07 58
        E 45 bb 07 58
        E 45 bb 07 58
        E 45 bb 07 58
        E 45 bb 07 58
        E 45 bb 07 58
        E 45 bb 07 58
        E 45 bb 07 58
        E 45 bb 07 58
        E 45 bb 07 58
        E 45 bb 07 58
        E 45 bb 07 58
        E 45 bb 07 58
        E 45 bb 07 58
        E 45 bb 07 58
        E 45 bb 07 58
        E 45 bb 07 58
        E 45 bb 07 58
        E 45 bb 07 58
        E 45 bb 07 58
        E 45 bb 07 58
        E 45 bb 07 58
        E 45 bb 07 58
        E 45 bb 07 58
        E 45 bb 07 58
        E 45 bb 07 58
        E 45 bb 07 58
        E 45 bb 07 58
        E 45 bb 07 58
        E 45 bb 07 58
        E 45 bb 07 58
        E 45 bb 07 58
        E 45 bb 07 58
        E 45 bb 07 58
        E 45 bb 07 58
        E 45 bb 07 58
        E 45 bb 07 58
        E 45 bb 07 58
        E 45 bb 07 58
        E 45 bb 07 58
        E 45 bb 07 58
        E 45 bb 07 58
        E 45 bb 07 58
        E 45 bb 07 58
        E 45 bb 07 58
        E 45 bb 07 58
        E 45 bb 07 00
        E 45 bb 07 00
        E 45 bb 07 00
        E 45 bb 07 00
        E 45 bb 07 00
        E 45 bb 07 00
        E 45 bb 07 00
        E 45 bb 07 00
        E 45 bb 07 00
        E 45 bb 07 00
        E 45 bb 07 00
        E 45 bb 07 00
        E 45 bb 07 00
        E 45 bb 07 00
        E 45 bb 07 00
        E 45 bb 07 00
        E 45 bb 07 00
        E 45 bb 07 00
        E 45 bb 07 00
        E 45 bb 07 00
        E 45 bb 07 00
        E 45 bb 07 00
        E 45 bb 07 00
        E 45 bb 07 00
        E 45 bb 07 00
        E 45 bb 07 00
        E 45 bb 07 00
        E 45 bb 07 00
        E 45 bb 07 00
        E 45 bb 07 00
        E 45 bb 07 00
        E 45 bb 07 00
        E 45 bb 07 00
        E 45 bb 07 00
        E 45 bb 07 00
        E 45 bb 07 00
        E 45 bb 07 00
        E 45 bb 07 00
        E 45 bb 07 00
        E 45 bb 07 00
        E 45 bb 07 00
        E 45 bb 07 00
        E 45 bb 07 00
        E 45 bb 07 00
        E 45 bb 07 00
        E 45 bb 07 00
        E 45 bb 07 00
        E 45 bb 07 00
        E 45 bb 07 00
        E 45 bb 07 00
        E 45 bb 07 00
        E 45 bb 07 00
        E 45 bb 07 00
        E 45 bb 07 00
        E 45 bb 07 00
        E 45 bb 07 00
        E 45 bb 07 00
        E 45 bb 07 00
        E 45 bb 07 00
        E 45 bb 07 00
        E 45 bb 07 00
        E 45 bb 07 00
        E 45 bb 07 00
        E 45 bb 07 00
        E 40 bb 07 65
        E 40 bb 07 65
        E 40 bb 07 65
        E 40 bb 07 65
        E 40 bb 07 65
        E 40 bb 07 65
        E 40 bb 07 65
        E 40 bb 07 65
        E 40 bb 07 65
        E 40 bb 07 65
        E 40 bb 07 65
        E 40 bb 07 65
        E 40 bb 07 65
        E 40 bb 07 65
        E 40 bb 07 65
        E 40 bb 07 65
        E 40 bb 07 65
        E 40 bb 07 65
        E 40 bb 07 65
        E 40 bb 07 65
        E 40 bb 07 65
        E 40 bb 07 65
        E 40 bb 07 65
        E 40 bb 07 65
        E 40 bb 07 65
        E 40 bb 07 65
        E 40 bb 07 65
        E 40 bb 07 65
        E 40 bb 07 65
        E 40 bb 07 65
        E 40 bb 07 65
        E 40 bb 07 65
        E 40 bb 07 65
        E 40 bb 07 65
        E 40 bb 07 65
        E 40 bb 07 65
        E 40 bb 07 65
        E 40 bb 07 65
        E 40 bb 07 65
        E 40 bb 07 65
        E 40 bb 07 65
        E 40 bb 07 65
        E 40 bb 07 65
        E 40 bb 07 65
        E 40 bb 07 65
        E 40 bb 07 65
        E 40 bb 07 65
        E 40 bb 07 65
        E 40 bb 07 65
        E 40 bb 07 65
        E 40 bb 07 65
        E 40 bb 07 65
        E 40 bb 07 65
        E 40 bb 07 65
        E 40 bb 07 65
        E 40 bb 07 65
        E 40 bb 07 65
        E 40 bb 07 65
        E 40 bb 07 65
        E 40 bb 07 65
        E 40 bb 07 65
        E 40 bb 07 65
        E 40 bb 07 65
        E 40 bb 07 00
        E 40 bb 07 00
        E 40 bb 07 00
        E 40 bb 07 00
        E 40 bb 07 00
        E 40 bb 07 00
        E 40 bb 07 00
        E 40 bb 07 00
        E 40 bb 07 00
        E 40 bb 07 00
        E 40 bb 07 00
        E 40 bb 07 00
        E 40 bb 07 00
        E 40 bb 07 00
        E 40 bb 07 00
        E 40 bb 07 00
        E 40 bb 07 00
        E 40 bb 07 00
        E 40 bb 07 00
        E 40 bb 07 00
        E 40 bb 07 00
        E 40 bb 07 00
        E 40 bb 07 00
        E 40 bb 07 00
        E 40 bb 07 00
        E 40 bb 07 00
        E 40 bb 07 00
        E 40 bb 07 00
        E 40 bb 07 00
        E 40 bb 07 00
        E 40 bb 07 00
        E 40 bb 07 00
        E 40 bb 07 00
        E 40 bb 07 00
        E 40 bb 07 00
        E 40 bb 07 00
        E 40 bb 07 00
        E 40 bb 07 00
        E 40 bb 07 00
        E 40 bb 07 00
        E 40 bb 07 00
        E 40 bb 07 00
        E 40 bb 07 00
        E 40 bb 07 00
        E 40 bb 07 00
        E 40 bb 07 00
        E 40 bb 07 00
        E 40 bb 07 00
        E 40 bb 07 00
        E 40 bb 07 00
        E 40 bb 07 00
        E 40 bb 07 00
        E 40 bb 07 00
        E 40 bb 07 00
        E 40 bb 07 00
        E 40 bb 07 00
        E 40 bb 07 00
        E 40 bb 07 00
        E 40 bb 07 00
        E 40 bb 07 00
        E 40 bb 07 00
        E 40 bb 07 00
        E 40 bb 07 00
        E 40 bb 07 00
        E 45 bb 07 0c
        E 45 bb 07 0c
        E 45 bb 07 0c
        E 45 bb 07 0c
        E 45 bb 07 0c
        E 45 bb 07 0c
        E 45 bb 07 0c
        E 45 bb 07 0c
        E 45 bb 07 0c
        E 45 bb 07 0c
        E 45 bb 07 0c
        E 45 bb 07 0c
        E 45 bb 07 0c
        E 45 bb 07 0c
        E 45 bb 07 0c
        E 45 bb 07 0c
        E 45 bb 07 0c
        E 45 bb 07 0c
        E 45 bb 07 0c
        E 45 bb 07 0c
        E 45 bb 07 0c
        E 45 bb 07 0c
        E 45 bb 07 0c
        E 45 bb 07 0c
        E 45 bb 07 0c
        E 45 bb 07 0c
        E 45 bb 07 0c
        E 45 bb 07 0c
        E 45 bb 07 0c
        E 45 bb 07 0c
        E 45 bb 07 0c
        E 45 bb 07 0c
        E 45 bb 07 0c
        E 45 bb 07 0c
        E 45 bb 07 0c
        E 45 bb 07 0c
        E 45 bb 07 0c
        E 45 bb 07 0c
        E 45 bb 07 0c
        E 45 bb 07 0c
        E 45 bb 07 0c
        E 45 bb 07 0c
        E 45 bb 07 0c
        E 45 bb 07 0c
        E 45 bb 07 0c
        E 45 bb 07 0c
        E 45 bb 07 0c
        E 45 bb 07 0c
        E 45 bb 07 0c
        E 45 bb 07 0c
        E 45 bb 07 0c
        E 45 bb 07 0c
        E 45 bb 07 0c
        E 45 bb 07 0c
        E 45 bb 07 0c
        E 45 bb 07 0c
        E 45 bb 07 0c
        E 45 bb 07 0c
        E 45 bb 07 0c
        E 45 bb 07 0c
        E 45 bb 07 0c
        E 45 bb 07 0c
        E 45 bb 07 0c
        E 45 bb 07 00
        E 45 bb 07 00
        E 45 bb 07 00
        E 45 bb 07 00
        E 45 bb 07 00
        E 45 bb 07 00
        E 45 bb 07 00
        E 45 bb 07 00
        E 45 bb 07 00
        E 45 bb 07 00
        E 45 bb 07 00
        E 45 bb 07 00
        E 45 bb 07 00
        E 45 bb 07 00
        E 45 bb 07 00
        E 45 bb 07 00
        E 45 bb 07 00
        E 45 bb 07 00
        E 45 bb 07 00
        E 45 bb 07 00
        E 45 bb 07 00
        E 45 bb 07 00
        E 45 bb 07 00
        E 45 bb 07 00
        E 45 bb 07 00
        E 45 bb 07 00
        E 45 bb 07 00
        E 45 bb 07 00
        E 45 bb 07 00
        E 45 bb 07 00
        E 45 bb 07 00
        E 45 bb 07 00
        E 45 bb 07 00
        E 45 bb 07 00
        E 45 bb 07 00
        E 45 bb 07 00
        E 45 bb 07 00
        E 45 bb 07 00
        E 45 bb 07 00
        E 45 bb 07 00
        E 45 bb 07 00
        E 45 bb 07 00
        E 45 bb 07 00
        E 45 bb 07 00
        E 45 bb 07 00
        E 45 bb 07 00
        E 45 bb 07 00
        E 45 bb 07 00
        E 45 bb 07 00
        E 45 bb 07 00
        E 45 bb 07 00
        E 45 bb 07 00
        E 45 bb 07 00
        E 45 bb 07 00
        E 45 bb 07 00
        E 45 bb 07 00
        E 45 bb 07 00
        E 45 bb 07 00
        E 45 bb 07 00
        E 45 bb 07 00
        E 45 bb 07 00
        E 45 bb 07 00
        E 45 bb 07 00
        E 45 bb 07 00
        E 40 bb 07 32
        E 40 bb 07 32
        E 40 bb 07 32
        E 40 bb 07 32
        E 40 bb 07 32
        E 40 bb 07 32
        E 40 bb 07 32
        E 40 bb 07 32
        E 40 bb 07 32
        E 40 bb 07 32
        E 40 bb 07 32
        E 40 bb 07 32
        E 40 bb 07 32
        E 40 bb 07 32
        E 40 bb 07 32
        E 40 bb 07 32
        E 40 bb 07 32
        E 40 bb 07 32
        E 40 bb 07 32
        E 40 bb 07 32
        E 40 bb 07 32
        E 40 bb 07 32
        E 40 bb 07 32
        E 40 bb 07 32
        E 40 bb 07 32
        E 40 bb 07 32
        E 40 bb 07 32
        E 40 bb 07 32
        E 40 bb 07 32
        E 40 bb 07 32
        E 40 bb 07 32
        E 40 bb 07 32
        E 40 bb 07 32
        E 40 bb 07 32
        E 40 bb 07 32
        E 40 bb 07 32
        E 40 bb 07 32
        E 40 bb 07 32
        E 40 bb 07 32
        E 40 bb 07 32
        E 40 bb 07 32
        E 40 bb 07 32
        E 40 bb 07 32
        E 40 bb 07 32
        E 40 bb 07 32
        E 40 bb 07 32
        E 40 bb 07 32
        E 40 bb 07 32
        E 40 bb 07 32
        E 40 bb 07 32
        E 40 bb 07 32
        E 40 bb 07 32
        E 40 bb 07 32
        E 40 bb 07 32
        E 40 bb 07 32
        E 40 bb 07 32
        E 40 bb 07 32
        E 40 bb 07 32
        E 40 bb 07 32
        E 40 bb 07 32
        E 40 bb 07 32
        E 40 bb 07 32
        E 40 bb 07 32
        E 40 bb 07 00
        E 40 bb 07 00
        E 40 bb 07 00
        E 40 bb 07 00
        E 40 bb 07 00
        E 40 bb 07 00
        E 40 bb 07 00
        E 40 bb 07 00
        E 40 bb 07 00
        E 40 bb 07 00
        E 40 bb 07 00
        E 40 bb 07 00
        E 40 bb 07 00
        E 40 bb 07 00
        E 40 bb 07 00
        E 40 bb 07 00
        E 40 bb 07 00
        E 40 bb 07 00
        E 40 bb 07 00
        E 40 bb 07 00
        E 40 bb 07 00
        E 40 bb 07 00
        E 40 bb 07 00
        E 40 bb 07 00
        E 40 bb 07 00
        E 40 bb 07 00
        E 40 bb 07 00
        E 40 bb 07 00
        E 40 bb 07 00
        E 40 bb 07 00
        E 40 bb 07 00
        E 40 bb 07 00
        E 40 bb 07 00
        E 40 bb 07 00
        E 40 bb 07 00
        E 40 bb 07 00
        E 40 bb 07 00
        E 40 bb 07 00
        E 40 bb 07 00
        E 40 bb 07 00
        E 40 bb 07 00
        E 40 bb 07 00
        E 40 bb 07 00
        E 40 bb 07 00
        E 40 bb 07 00
        E 40 bb 07 00
        E 40 bb 07 00
        E 40 bb 07 00
        E 40 bb 07 00
        E 40 bb 07 00
        E 40 bb 07 00
        E 40 bb 07 00
        E 40 bb 07 00
        E 40 bb 07 00
        E 40 bb 07 00
        E 40 bb 07 00
        E 40 bb 07 00
        E 40 bb 07 00
        E 40 bb 07 00
        E 40 bb 07 00
        E 40 bb 07 00
        E 40 bb 07 00
        E 40 bb 07 00
        E 40 bb 07 00
        E 31 bb 07 3f
        E 31 bb 07 3f
        E 31 bb 07 3f
        E 31 bb 07 3f
        E 31 bb 07 3f
        E 31 bb 07 3f
        E 31 bb 07 3f
        E 31 bb 07 3f
        E 31 bb 07 3f
        E 31 bb 07 3f
        E 31 bb 07 3f
        E 31 bb 07 3f
        E 31 bb 07 3f
        E 31 bb 07 3f
        E 31 bb 07 3f
        E 31 bb 07 3f
        E 31 bb 07 3f
        E 31 bb 07 3f
        E 31 bb 07 3f
        E 31 bb 07 3f
        E 31 bb 07 3f
        E 31 bb 07 3f
        E 31 bb 07 3f
        E 31 bb 07 3f
        E 31 bb 07 3f
        E 31 bb 07 3f
        E 31 bb 07 3f
        E 31 bb 07 3f
        E 31 bb 07 3f
        E 31 bb 07 3f
        E 31 bb 07 3f
        E 31 bb 07 3f
        E 31 bb 07 3f
        E 31 bb 07 3f
        E 31 bb 07 3f
        E 31 bb 07 3f
        E 31 bb 07 3f
        E 31 bb 07 3f
        E 31 bb 07 3f
        E 31 bb 07 3f
        E 31 bb 07 3f
        E 31 bb 07 3f
        E 31 bb 07 3f
        E 31 bb 07 3f
        E 31 bb 07 3f
        E 31 bb 07 3f
        E 31 bb 07 3f
        E 31 bb 07 3f
        E 31 bb 07 3f
        E 31 bb 07 3f
        E 31 bb 07 3f
        E 31 bb 07 3f
        E 31 bb 07 3f
        E 31 bb 07 3f
        E 31 bb 07 3f
        E 31 bb 07 3f
        E 31 bb 07 3f
        E 31 bb 07 3f
        E 31 bb 07 3f
        E 31 bb 07 3f
        E 31 bb 07 3f
        E 31 bb 07 3f
        E 31 bb 07 3f
        E 31 bb 07 00
        E 31 bb 07 00
        E 31 bb 07 00
        E 31 bb 07 00
        E 31 bb 07 00
        E 31 bb 07 00
        E 31 bb 07 00
        E 31 bb 07 00
        E 31 bb 07 00
        E 31 bb 07 00
        E 31 bb 07 00
        E 31 bb 07 00
        E 31 bb 07 00
        E 31 bb 07 00
        E 31 bb 07 00
        E 31 bb 07 00
        E 31 bb 07 00
        E 31 bb 07 00
        E 31 bb 07 00
        E 31 bb 07 00
        E 31 bb 07 00
        E 31 bb 07 00
        E 31 bb 07 00
        E 31 bb 07 00
        E 31 bb 07 00
        E 31 bb 07 00
        E 31 bb 07 00
        E 31 bb 07 00
        E 31 bb 07 00
        E 31 bb 07 00
        E 31 bb 07 00
        E 31 bb 07 00
        E 31 bb 07 00
        E 31 bb 07 00
        E 31 bb 07 00
        E 31 bb 07 00
        E 31 bb 07 00
        E 31 bb 07 00
        E 31 bb 07 00
        E 31 bb 07 00
        E 31 bb 07 00
        E 31 bb 07 00
        E 31 bb 07 00
        E 31 bb 07 00
        E 31 bb 07 00
        E 31 bb 07 00
        E 31 bb 07 00
        E 31 bb 07 00
        E 31 bb 07 00
        E 31 bb 07 00
        E 31 bb 07 00
        E 31 bb 07 00
        E 31 bb 07 00
        E 31 bb 07 00
        E 31 bb 07 00
        E 31 bb 07 00
        E 31 bb 07 00
        E 31 bb 07 00
        E 31 bb 07 00
        E 31 bb 07 00
        E 31 bb 07 00
        E 31 bb 07 00
        E 31 bb 07 00
        E 31 bb 07 00
        E 36 bb 07 7f
        E 36 bb 07 7f
        E 36 bb 07 7f
        E 36 bb 07 7f
        E 36 bb 07 7f
        E 36 bb 07 7f
        E 36 bb 07 7f
        E 36 bb 07 7f
        E 36 bb 07 7f
        E 36 bb 07 7f
        E 36 bb 07 7f
        E 36 bb 07 7f
        E 36 bb 07 7f
        E 36 bb 07 7f
        E 36 bb 07 7f
        E 36 bb 07 7f
        E 36 bb 07 7f
        E 36 bb 07 7f
        E 36 bb 07 7f
        E 36 bb 07 7f
        E 36 bb 07 7f
        E 36 bb 07 7f
        E 36 bb 07 7f
        E 36 bb 07 7f
        E 36 bb 07 7f
        E 36 bb 07 7f
        E 36 bb 07 7f
        E 36 bb 07 7f
        E 36 bb 07 7f
        E 36 bb 07 7f
        E 36 bb 07 7f
        E 36 bb 07 7f
        E 36 bb 07 7f
        E 36 bb 07 7f
        E 36 bb 07 7f
        E 36 bb 07 7f
        E 36 bb 07 7f
        E 36 bb 07 7f
        E 36 bb 07 7f
        E 36 bb 07 7f
        E 36 bb 07 7f
        E 36 bb 07 7f
        E 36 bb 07 7f
        E 36 bb 07 7f
        E 36 bb 07 7f
        E 36 bb 07 7f
        E 36 bb 07 7f
        E 36 bb 07 7f
        E 36 bb 07 7f
        E 36 bb 07 7f
        E 36 bb 07 7f
        E 36 bb 07 7f
        E 36 bb 07 7f
        E 36 bb 07 7f
        E 36 bb 07 7f
        E 36 bb 07 7f
        E 36 bb 07 7f
        E 36 bb 07 7f
        E 36 bb 07 7f
        E 36 bb 07 7f
        E 36 bb 07 7f
        E 36 bb 07 7f
        E 36 bb 07 7f
        E 36 bb 07 00
        E 36 bb 07 00
        E 36 bb 07 00
        E 36 bb 07 00
        E 36 bb 07 00
        E 36 bb 07 00
        E 36 bb 07 00
        E 36 bb 07 00
        E 36 bb 07 00
        E 36 bb 07 00
        E 36 bb 07 00
        E 36 bb 07 00
        E 36 bb 07 00
        E 36 bb 07 00
        E 36 bb 07 00
        E 36 bb 07 00
        E 36 bb 07 00
        E 36 bb 07 00
        E 36 bb 07 00
        E 36 bb 07 00
        E 36 bb 07 00
        E 36 bb 07 00
        E 36 bb 07 00
        E 36 bb 07 00
        E 36 bb 07 00
        E 36 bb 07 00
        E 36 bb 07 00
        E 36 bb 07 00
        E 36 bb 07 00
        E 36 bb 07 00
        E 36 bb 07 00
        E 36 bb 07 00
        E 36 bb 07 00
        E 36 bb 07 00
        E 36 bb 07 00
        E 36 bb 07 00
        E 36 bb 07 00
        E 36 bb 07 00
        E 36 bb 07 00
        E 36 bb 07 00
        E 36 bb 07 00
        E 36 bb 07 00
        E 36 bb 07 00
        E 36 bb 07 00
        E 36 bb 07 00
        E 36 bb 07 00
        E 36 bb 07 00
        E 36 bb 07 00
        E 36 bb 07 00
        E 36 bb 07 00
        E 36 bb 07 00
        E 36 bb 07 00
        E 36 bb 07 00
        E 36 bb 07 00
        E 36 bb 07 00
        E 36 bb 07 00
        E 36 bb 07 00
        E 36 bb 07 00
        E 36 bb 07 00
        E 36 bb 07 00
        E 36 bb 07 00
        E 36 bb 07 00
        E 36 bb 07 00
        E 36 bb 07 00
        E 4 bb 07 72
        E 4 bb 07 72
        E 4 bb 07 72
        E 4 bb 07 72
        E 4 bb 07 72
        E 4 bb 07 72
        E 4 bb 07 72
        E 4 bb 07 72
        E 4 bb 07 72
        E 4 bb 07 72
        E 4 bb 07 72
        E 4 bb 07 72
        E 4 bb 07 72
        E 4 bb 07 72
        E 4 bb 07 72
        E 4 bb 07 72
        E 4 bb 07 72
        E 4 bb 07 72
        E 4 bb 07 72
        E 4 bb 07 72
        E 4 bb 07 72
        E 4 bb 07 72
        E 4 bb 07 72
        E 4 bb 07 72
        E 4 bb 07 72
        E 4 bb 07 72
        E 4 bb 07 72
        E 4 bb 07 72
        E 4 bb 07 72
        E 4 bb 07 72
        E 4 bb 07 72
        E 4 bb 07 72
        E 4 bb 07 72
        E 4 bb 07 72
        E 4 bb 07 72
        E 4 bb 07 72
        E 4 bb 07 72
        E 4 bb 07 72
        E 4 bb 07 72
        E 4 bb 07 72
        E 4 bb 07 72
        E 4 bb 07 72
        E 4 bb 07 72
        E 4 bb 07 72
        E 4 bb 07 72
        E 4 bb 07 72
        E 4 bb 07 72
        E 4 bb 07 72
        E 4 bb 07 72
        E 4 bb 07 72
        E 4 bb 07 72
        E 4 bb 07 72
        E 4 bb 07 72
        E 4 bb 07 72
        E 4 bb 07 72
        E 4 bb 07 72
        E 4 bb 07 72
        E 4 bb 07 72
        E 4 bb 07 72
        E 4 bb 07 72
        E 4 bb 07 72
        E 4 bb 07 72
        E 4 bb 07 72
        E 4 bb 07 00
        E 4 bb 07 00
        E 4 bb 07 00
        E 4 bb 07 00
        E 4 bb 07 00
        E 4 bb 07 00
        E 4 bb 07 00
        E 4 bb 07 00
        E 4 bb 07 00
        E 4 bb 07 00
        E 4 bb 07 00
        E 4 bb 07 00
        E 4 bb 07 00
        E 4 bb 07 00
        E 4 bb 07 00
        E 4 bb 07 00
        E 4 bb 07 00
        E 4 bb 07 00
        E 4 bb 07 00
        E 4 bb 07 00
        E 4 bb 07 00
        E 4 bb 07 00
        E 4 bb 07 00
        E 4 bb 07 00
        E 4 bb 07 00
        E 4 bb 07 00
        E 4 bb 07 00
        E 4 bb 07 00
        E 4 bb 07 00
        E 4 bb 07 00
        E 4 bb 07 00
        E 4 bb 07 00
        E 4 bb 07 00
        E 4 bb 07 00
        E 4 bb 07 00
        E 4 bb 07 00
        E 4 bb 07 00
        E 4 bb 07 00
        E 4 bb 07 00
        E 4 bb 07 00
        E 4 bb 07 00
        E 4 bb 07 00
        E 4 bb 07 00
        E 4 bb 07 00
        E 4 bb 07 00
        E 4 bb 07 00
        E 4 bb 07 00
        E 4 bb 07 00
        E 4 bb 07 00
        E 4 bb 07 00
        E 4 bb 07 00
        E 4 bb 07 00
        E 4 bb 07 00
        E 4 bb 07 00
        E 4 bb 07 00
        E 4 bb 07 00
        E 4 bb 07 00
        E 4 bb 07 00
        E 4 bb 07 00
        E 4 bb 07 00
        E 4 bb 07 00
        E 4 bb 07 00
        E 4 bb 07 00
        E 4 bb 07 00
        E 18 bb 07 7f
        E 18 bb 07 7f
        E 18 bb 07 7f
        E 18 bb 07 7f
        E 18 bb 07 7f
        E 18 bb 07 7f
        E 18 bb 07 7f
        E 18 bb 07 7f
        E 18 bb 07 7f
        E 18 bb 07 7f
        E 18 bb 07 7f
        E 18 bb 07 7f
        E 18 bb 07 7f
        E 18 bb 07 7f
        E 18 bb 07 7f
        E 18 bb 07 7f
        E 18 bb 07 7f
        E 18 bb 07 7f
        E 18 bb 07 7f
        E 18 bb 07 7f
        E 18 bb 07 7f
        E 18 bb 07 7f
        E 18 bb 07 7f
        E 18 bb 07 7f
        E 18 bb 07 7f
        E 18 bb 07 7f
        E 18 bb 07 7f
        E 18 bb 07 7f
        E 18 bb 07 7f
        E 18 bb 07 7f
        E 18 bb 07 7f
        E 18 bb 07 7f
        E 18 bb 07 7f
        E 18 bb 07 7f
        E 18 bb 07 7f
        E 18 bb 07 7f
        E 18 bb 07 7f
        E 18 bb 07 7f
        E 18 bb 07 7f
        E 18 bb 07 7f
        E 18 bb 07 7f
        E 18 bb 07 7f
        E 18 bb 07 7f
        E 18 bb 07 7f
        E 18 bb 07 7f
        E 18 bb 07 7f
        E 18 bb 07 7f
        E 18 bb 07 7f
        E 18 bb 07 7f
        E 18 bb 07 7f
        E 18 bb 07 7f
        E 18 bb 07 7f
        E 18 bb 07 7f
        E 18 bb 07 7f
        E 18 bb 07 7f
        E 18 bb 07 7f
        E 18 bb 07 7f
        E 18 bb 07 7f
        E 18 bb 07 7f
        E 18 bb 07 7f
        E 18 bb 07 7f
        E 18 bb 07 7f
        E 18 bb 07 7f
        E 18 bb 07 00
        E 18 bb 07 00
        E 18 bb 07 00
        E 18 bb 07 00
        E 18 bb 07 00
        E 18 bb 07 00
        E 18 bb 07 00
        E 18 bb 07 00
        E 18 bb 07 00
        E 18 bb 07 00
        E 18 bb 07 00
        E 18 bb 07 00
        E 18 bb 07 00
        E 18 bb 07 00
        E 18 bb 07 00
        E 18 bb 07 00
        E 18 bb 07 00
        E 18 bb 07 00
        E 18 bb 07 00
        E 18 bb 07 00
        E 18 bb 07 00
        E 18 bb 07 00
        E 18 bb 07 00
        E 18 bb 07 00
        E 18 bb 07 00
        E 18 bb 07 00
        E 18 bb 07 00
        E 18 bb 07 00
        E 18 bb 07 00
        E 18 bb 07 00
        E 18 bb 07 00
        E 18 bb 07 00
        E 18 bb 07 00
        E 18 bb 07 00
        E 18 bb 07 00
        E 18 bb 07 00
        E 18 bb 07 00
        E 18 bb 07 00
        E 18 bb 07 00
        E 18 bb 07 00
        E 18 bb 07 00
        E 18 bb 07 00
        E 18 bb 07 00
        E 18 bb 07 00
        E 18 bb 07 00
        E 18 bb 07 00
        E 18 bb 07 00
        E 18 bb 07 00
        E 18 bb 07 00
        E 18 bb 07 00
        E 18 bb 07 00
        E 18 bb 07 00
        E 18 bb 07 00
        E 18 bb 07 00
        E 18 bb 07 00
        E 18 bb 07 00
        E 18 bb 07 00
        E 18 bb 07 00
        E 18 bb 07 00
        E 18 bb 07 00
        E 18 bb 07 00
        E 18 bb 07 00
        E 18 bb 07 00
        E 18 bb 07 00
        E 31 bb 07 72
        E 31 bb 07 72
        E 31 bb 07 72
        E 31 bb 07 72
        E 31 bb 07 72
        E 31 bb 07 72
        E 31 bb 07 72
        E 31 bb 07 72
        E 31 bb 07 72
        E 31 bb 07 72
        E 31 bb 07 72
        E 31 bb 07 72
        E 31 bb 07 72
        E 31 bb 07 72
        E 31 bb 07 72
        E 31 bb 07 72
        E 31 bb 07 72
        E 31 bb 07 72
        E 31 bb 07 72
        E 31 bb 07 72
        E 31 bb 07 72
        E 31 bb 07 72
        E 31 bb 07 72
        E 31 bb 07 72
        E 31 bb 07 72
        E 31 bb 07 72
        E 31 bb 07 72
        E 31 bb 07 72
        E 31 bb 07 72
        E 31 bb 07 72
        E 31 bb 07 72
        E 31 bb 07 72
        E 31 bb 07 72
        E 31 bb 07 72
        E 31 bb 07 72
        E 31 bb 07 72
        E 31 bb 07 72
        E 31 bb 07 72
        E 31 bb 07 72
        E 31 bb 07 72
        E 31 bb 07 72
        E 31 bb 07 72
        E 31 bb 07 72
        E 31 bb 07 72
        E 31 bb 07 72
        E 31 bb 07 72
        E 31 bb 07 72
        E 31 bb 07 72
        E 31 bb 07 72
        E 31 bb 07 72
        E 31 bb 07 72
        E 31 bb 07 72
        E 31 bb 07 72
        E 31 bb 07 72
        E 31 bb 07 72
        E 31 bb 07 72
        E 31 bb 07 72
        E 31 bb 07 72
        E 31 bb 07 72
        E 31 bb 07 72
        E 31 bb 07 72
        E 31 bb 07 72
        E 31 bb 07 72
        E 31 bb 07 00
        E 31 bb 07 00
        E 31 bb 07 00
        E 31 bb 07 00
        E 31 bb 07 00
        E 31 bb 07 00
        E 31 bb 07 00
        E 31 bb 07 00
        E 31 bb 07 00
        E 31 bb 07 00
        E 31 bb 07 00
        E 31 bb 07 00
        E 31 bb 07 00
        E 31 bb 07 00
        E 31 bb 07 00
        E 31 bb 07 00
        E 31 bb 07 00
        E 31 bb 07 00
        E 31 bb 07 00
        E 31 bb 07 00
        E 31 bb 07 00
        E 31 bb 07 00
        E 31 bb 07 00
        E 31 bb 07 00
        E 31 bb 07 00
        E 31 bb 07 00
        E 31 bb 07 00
        E 31 bb 07 00
        E 31 bb 07 00
        E 31 bb 07 00
        E 31 bb 07 00
        E 31 bb 07 00
        E 31 bb 07 00
        E 31 bb 07 00
        E 31 bb 07 00
        E 31 bb 07 00
        E 31 bb 07 00
        E 31 bb 07 00
        E 31 bb 07 00
        E 31 bb 07 00
        E 31 bb 07 00
        E 31 bb 07 00
        E 31 bb 07 00
        E 31 bb 07 00
        E 31 bb 07 00
        E 31 bb 07 00
        E 31 bb 07 00
        E 31 bb 07 00
        E 31 bb 07 00
        E 31 bb 07 00
        E 31 bb 07 00
        E 31 bb 07 00
        E 31 bb 07 00
        E 31 bb 07 00
        E 31 bb 07 00
        E 31 bb 07 00
        E 31 bb 07 00
        E 31 bb 07 00
        E 31 bb 07 00
        E 31 bb 07 00
        E 31 bb 07 00
        E 31 bb 07 00
        E 31 bb 07 00
        E 31 bb 07 00
        E 22 bb 07 3f
        E 22 bb 07 3f
        E 22 bb 07 3f
        E 22 bb 07 3f
        E 22 bb 07 3f
        E 22 bb 07 3f
        E 22 bb 07 3f
        E 22 bb 07 3f
        E 22 bb 07 3f
        E 22 bb 07 3f
        E 22 bb 07 3f
        E 22 bb 07 3f
        E 22 bb 07 3f
        E 22 bb 07 3f
        E 22 bb 07 3f
        E 22 bb 07 3f
        E 22 bb 07 3f
        E 22 bb 07 3f
        E 22 bb 07 3f
        E 22 bb 07 3f
        E 22 bb 07 3f
        E 22 bb 07 3f
        E 22 bb 07 3f
        E 22 bb 07 3f
        E 22 bb 07 3f
        E 22 bb 07 3f
        E 22 bb 07 3f
        E 22 bb 07 3f
        E 22 bb 07 3f
        E 22 bb 07 3f
        E 22 bb 07 3f
        E 22 bb 07 3f
        E 22 bb 07 3f
        E 22 bb 07 3f
        E 22 bb 07 3f
        E 22 bb 07 3f
        E 22 bb 07 3f
        E 22 bb 07 3f
        E 22 bb 07 3f
        E 22 bb 07 3f
        E 22 bb 07 3f
        E 22 bb 07 3f
        E 22 bb 07 3f
        E 22 bb 07 3f
        E 22 bb 07 3f
        E 22 bb 07 3f
        E 22 bb 07 3f
        E 22 bb 07 3f
        E 22 bb 07 3f
        E 22 bb 07 3f
        E 22 bb 07 3f
        E 22 bb 07 3f
        E 22 bb 07 3f
        E 22 bb 07 3f
        E 22 bb 07 3f
        E 22 bb 07 3f
        E 22 bb 07 3f
        E 22 bb 07 3f
        E 22 bb 07 3f
        E 22 bb 07 3f
        E 22 bb 07 3f
        E 22 bb 07 3f
        E 22 bb 07 3f
        E 22 bb 07 00
        E 22 bb 07 00
        E 22 bb 07 00
        E 22 bb 07 00
        E 22 bb 07 00
        E 22 bb 07 00
        E 22 bb 07 00
        E 22 bb 07 00
        E 22 bb 07 00
        E 22 bb 07 00
        E 22 bb 07 00
        E 22 bb 07 00
        E 22 bb 07 00
        E 22 bb 07 00
        E 22 bb 07 00
        E 22 bb 07 00
        E 22 bb 07 00
        E 22 bb 07 00
        E 22 bb 07 00
        E 22 bb 07 00
        E 22 bb 07 00
        E 22 bb 07 00
        E 22 bb 07 00
        E 22 bb 07 00
        E 22 bb 07 00
        E 22 bb 07 00
        E 22 bb 07 00
        E 22 bb 07 00
        E 22 bb 07 00
        E 22 bb 07 00
        E 22 bb 07 00
        E 22 bb 07 00
        E 22 bb 07 00
        E 22 bb 07 00
        E 22 bb 07 00
        E 22 bb 07 00
        E 22 bb 07 00
        E 22 bb 07 00
        E 22 bb 07 00
        E 22 bb 07 00
        E 22 bb 07 00
        E 22 bb 07 00
        E 22 bb 07 00
        E 22 bb 07 00
        E 22 bb 07 00
        E 22 bb 07 00
        E 22 bb 07 00
        E 22 bb 07 00
        E 22 bb 07 00
        E 22 bb 07 00
        E 22 bb 07 00
        E 22 bb 07 00
        E 22 bb 07 00
        E 22 bb 07 00
        E 22 bb 07 00
        E 22 bb 07 00
        E 22 bb 07 00
        E 22 bb 07 00
        E 22 bb 07 00
        E 22 bb 07 00
        E 22 bb 07 00
        E 22 bb 07 00
        E 22 bb 07 00
        E 22 bb 07 00
        E 22 bb 07 3f
        E 22 bb 07 3f
        E 22 bb 07 3f
        E 22 bb 07 3f
        E 22 bb 07 3f
        E 22 bb 07 3f
        E 22 bb 07 3f
        E 22 bb 07 3f
        E 22 bb 07 3f
        E 22 bb 07 3f
        E 22 bb 07 3f
        E 22 bb 07 3f
        E 22 bb 07 3f
        E 22 bb 07 3f
        E 22 bb 07 3f
        E 22 bb 07 3f
        E 22 bb 07 3f
        E 22 bb 07 3f
        E 22 bb 07 3f
        E 22 bb 07 3f
        E 22 bb 07 3f
        E 22 bb 07 3f
        E 22 bb 07 3f
        E 22 bb 07 3f
        E 22 bb 07 3f
        E 22 bb 07 3f
        E 22 bb 07 3f
        E 22 bb 07 3f
        E 22 bb 07 3f
        E 22 bb 07 3f
        E 22 bb 07 3f
        E 22 bb 07 3f
        E 22 bb 07 3f
        E 22 bb 07 3f
        E 22 bb 07 3f
        E 22 bb 07 3f
        E 22 bb 07 3f
        E 22 bb 07 3f
        E 22 bb 07 3f
        E 22 bb 07 3f
        E 22 bb 07 3f
        E 22 bb 07 3f
        E 22 bb 07 3f
        E 22 bb 07 3f
        E 22 bb 07 3f
        E 22 bb 07 3f
        E 22 bb 07 3f
        E 22 bb 07 3f
        E 22 bb 07 3f
        E 22 bb 07 3f
        E 22 bb 07 3f
        E 22 bb 07 3f
        E 22 bb 07 3f
        E 22 bb 07 3f
        E 22 bb 07 3f
        E 22 bb 07 3f
        E 22 bb 07 3f
        E 22 bb 07 3f
        E 22 bb 07 3f
        E 22 bb 07 3f
        E 22 bb 07 3f
        E 22 bb 07 3f
        E 22 bb 07 3f
        E 22 bb 07 00
        E 22 bb 07 00
        E 22 bb 07 00
        E 22 bb 07 00
        E 22 bb 07 00
        E 22 bb 07 00
        E 22 bb 07 00
        E 22 bb 07 00
        E 22 bb 07 00
        E 22 bb 07 00
        E 22 bb 07 00
        E 22 bb 07 00
        E 22 bb 07 00
        E 22 bb 07 00
        E 22 bb 07 00
        E 22 bb 07 00
        E 22 bb 07 00
        E 22 bb 07 00
        E 22 bb 07 00
        E 22 bb 07 00
        E 22 bb 07 00
        E 22 bb 07 00
        E 22 bb 07 00
        E 22 bb 07 00
        E 22 bb 07 00
        E 22 bb 07 00
        E 22 bb 07 00
        E 22 bb 07 00
        E 22 bb 07 00
        E 22 bb 07 00
        E 22 bb 07 00
        E 22 bb 07 00
        E 22 bb 07 00
        E 22 bb 07 00
        E 22 bb 07 00
        E 22 bb 07 00
        E 22 bb 07 00
        E 22 bb 07 00
        E 22 bb 07 00
        E 22 bb 07 00
        E 22 bb 07 00
        E 22 bb 07 00
        E 22 bb 07 00
        E 22 bb 07 00
        E 22 bb 07 00
        E 22 bb 07 00
        E 22 bb 07 00
        E 22 bb 07 00
        E 22 bb 07 00
        E 22 bb 07 00
        E 22 bb 07 00
        E 22 bb 07 00
        E 22 bb 07 00
        E 22 bb 07 00
        E 22 bb 07 00
        E 22 bb 07 00
        E 22 bb 07 00
        E 22 bb 07 00
        E 22 bb 07 00
        E 22 bb 07 00
        E 22 bb 07 00
        E 22 bb 07 00
        E 22 bb 07 00
        E 22 bb 07 00
        E 45 bb 07 58
        E 45 bb 07 58
        E 45 bb 07 58
        E 45 bb 07 58
        E 45 bb 07 58
        E 45 bb 07 58
        E 45 bb 07 58
        E 45 bb 07 58
        E 45 bb 07 58
        E 45 bb 07 58
        E 45 bb 07 58
        E 45 bb 07 58
        E 45 bb 07 58
        E 45 bb 07 58
        E 45 bb 07 58
        E 45 bb 07 58
        E 45 bb 07 58
        E 45 bb 07 58
        E 45 bb 07 58
        E 45 bb 07 58
        E 45 bb 07 58
        E 45 bb 07 58
        E 45 bb 07 58
        E 45 bb 07 58
        E 45 bb 07 58
        E 45 bb 07 58
        E 45 bb 07 58
        E 45 bb 07 58
        E 45 bb 07 58
        E 45 bb 07 58
        E 45 bb 07 58
        E 45 bb 07 58
        E 45 bb 07 58
        E 45 bb 07 58
        E 45 bb 07 58
        E 45 bb 07 58
        E 45 bb 07 58
        E 45 bb 07 58
        E 45 bb 07 58
        E 45 bb 07 58
        E 45 bb 07 58
        E 45 bb 07 58
        E 45 bb 07 58
        E 45 bb 07 58
        E 45 bb 07 58
        E 45 bb 07 58
        E 45 bb 07 58
        E 45 bb 07 58
        E 45 bb 07 58
        E 45 bb 07 58
        E 45 bb 07 58
        E 45 bb 07 58
        E 45 bb 07 58
        E 45 bb 07 58
        E 45 bb 07 58
        E 45 bb 07 58
        E 45 bb 07 58
        E 45 bb 07 58
        E 45 bb 07 58
        E 45 bb 07 58
        E 45 bb 07 58
        E 45 bb 07 58
        E 45 bb 07 58
        E 45 bb 07 00
        E 45 bb 07 00
        E 45 bb 07 00
        E 45 bb 07 00
        E 45 bb 07 00
        E 45 bb 07 00
        E 45 bb 07 00
        E 45 bb 07 00
        E 45 bb 07 00
        E 45 bb 07 00
        E 45 bb 07 00
        E 45 bb 07 00
        E 45 bb 07 00
        E 45 bb 07 00
        E 45 bb 07 00
        E 45 bb 07 00
        E 45 bb 07 00
        E 45 bb 07 00
        E 45 bb 07 00
        E 45 bb 07 00
        E 45 bb 07 00
        E 45 bb 07 00
        E 45 bb 07 00
        E 45 bb 07 00
        E 45 bb 07 00
        E 45 bb 07 00
        E 45 bb 07 00
        E 45 bb 07 00
        E 45 bb 07 00
        E 45 bb 07 00
        E 45 bb 07 00
        E 45 bb 07 00
        E 45 bb 07 00
        E 45 bb 07 00
        E 45 bb 07 00
        E 45 bb 07 00
        E 45 bb 07 00
        E 45 bb 07 00
        E 45 bb 07 00
        E 45 bb 07 00
        E 45 bb 07 00
        E 45 bb 07 00
        E 45 bb 07 00
        E 45 bb 07 00
        E 45 bb 07 00
        E 45 bb 07 00
        E 45 bb 07 00
        E 45 bb 07 00
        E 45 bb 07 00
        E 45 bb 07 00
        E 45 bb 07 00
        E 45 bb 07 00
        E 45 bb 07 00
        E 45 bb 07 00
        E 45 bb 07 00
        E 45 bb 07 00
        E 45 bb 07 00
        E 45 bb 07 00
        E 45 bb 07 00
        E 45 bb 07 00
        E 45 bb 07 00
        E 45 bb 07 00
        E 45 bb 07 00
        E 45 bb 07 00
        E 40 bb 07 65
        E 40 bb 07 65
        E 40 bb 07 65
        E 40 bb 07 65
        E 40 bb 07 65
        E 40 bb 07 65
        E 40 bb 07 65
        E 40 bb 07 65
        E 40 bb 07 65
        E 40 bb 07 65
        E 40 bb 07 65
        E 40 bb 07 65
        E 40 bb 07 65
        E 40 bb 07 65
        E 40 bb 07 65
        E 40 bb 07 65
        E 40 bb 07 65
        E 40 bb 07 65
        E 40 bb 07 65
        E 40 bb 07 65
        E 40 bb 07 65
        E 40 bb 07 65
        E 40 bb 07 65
        E 40 bb 07 65
        E 40 bb 07 65
        E 40 bb 07 65
        E 40 bb 07 65
        E 40 bb 07 65
        E 40 bb 07 65
        E 40 bb 07 65
        E 40 bb 07 65
        E 40 bb 07 65
        E 40 bb 07 65
        E 40 bb 07 65
        E 40 bb 07 65
        E 40 bb 07 65
        E 40 bb 07 65
        E 40 bb 07 65
        E 40 bb 07 65
        E 40 bb 07 65
        E 40 bb 07 65
        E 40 bb 07 65
        E 40 bb 07 65
        E 40 bb 07 65
        E 40 bb 07 65
        E 40 bb 07 65
        E 40 bb 07 65
        E 40 bb 07 65
        E 40 bb 07 65
        E 40 bb 07 65
        E 40 bb 07 65
        E 40 bb 07 65
        E 40 bb 07 65
        E 40 bb 07 65
        E 40 bb 07 65
        E 40 bb 07 65
        E 40 bb 07 65
        E 40 bb 07 65
        E 40 bb 07 65
        E 40 bb 07 65
        E 40 bb 07 65
        E 40 bb 07 65
        E 40 bb 07 65
        E 40 bb 07 00
        E 40 bb 07 00
        E 40 bb 07 00
        E 40 bb 07 00
        E 40 bb 07 00
        E 40 bb 07 00
        E 40 bb 07 00
        E 40 bb 07 00
        E 40 bb 07 00
        E 40 bb 07 00
        E 40 bb 07 00
        E 40 bb 07 00
        E 40 bb 07 00
        E 40 bb 07 00
        E 40 bb 07 00
        E 40 bb 07 00
        E 40 bb 07 00
        E 40 bb 07 00
        E 40 bb 07 00
        E 40 bb 07 00
        E 40 bb 07 00
        E 40 bb 07 00
        E 40 bb 07 00
        E 40 bb 07 00
        E 40 bb 07 00
        E 40 bb 07 00
        E 40 bb 07 00
        E 40 bb 07 00
        E 40 bb 07 00
        E 40 bb 07 00
        E 40 bb 07 00
        E 40 bb 07 00
        E 40 bb 07 00
        E 40 bb 07 00
        E 40 bb 07 00
        E 40 bb 07 00
        E 40 bb 07 00
        E 40 bb 07 00
        E 40 bb 07 00
        E 40 bb 07 00
        E 40 bb 07 00
        E 40 bb 07 00
        E 40 bb 07 00
        E 40 bb 07 00
        E 40 bb 07 00
        E 40 bb 07 00
        E 40 bb 07 00
        E 40 bb 07 00
        E 40 bb 07 00
        E 40 bb 07 00
        E 40 bb 07 00
        E 40 bb 07 00
        E 40 bb 07 00
        E 40 bb 07 00
        E 40 bb 07 00
        E 40 bb 07 00
        E 40 bb 07 00
        E 40 bb 07 00
        E 40 bb 07 00
        E 40 bb 07 00
        E 40 bb 07 00
        E 40 bb 07 00
        E 40 bb 07 00
        E 40 bb 07 00
        E 45 bb 07 0c
        E 45 bb 07 0c
        E 45 bb 07 0c
        E 45 bb 07 0c
        E 45 bb 07 0c
        E 45 bb 07 0c
        E 45 bb 07 0c
        E 45 bb 07 0c
        E 45 bb 07 0c
        E 45 bb 07 0c
        E 45 bb 07 0c
        E 45 bb 07 0c
        E 45 bb 07 0c
        E 45 bb 07 0c
        E 45 bb 07 0c
        E 45 bb 07 0c
        E 45 bb 07 0c
        E 45 bb 07 0c
        E 45 bb 07 0c
        E 45 bb 07 0c
        E 45 bb 07 0c
        E 45 bb 07 0c
        E 45 bb 07 0c
        E 45 bb 07 0c
        E 45 bb 07 0c
        E 45 bb 07 0c
        E 45 bb 07 0c
        E 45 bb 07 0c
        E 45 bb 07 0c
        E 45 bb 07 0c
        E 45 bb 07 0c
        E 45 bb 07 0c
        E 45 bb 07 0c
        E 45 bb 07 0c
        E 45 bb 07 0c
        E 45 bb 07 0c
        E 45 bb 07 0c
        E 45 bb 07 0c
        E 45 bb 07 0c
        E 45 bb 07 0c
        E 45 bb 07 0c
        E 45 bb 07 0c
        E 45 bb 07 0c
        E 45 bb 07 0c
        E 45 bb 07 0c
        E 45 bb 07 0c
        E 45 bb 07 0c
        E 45 bb 07 0c
        E 45 bb 07 0c
        E 45 bb 07 0c
        E 45 bb 07 0c
        E 45 bb 07 0c
        E 45 bb 07 0c
        E 45 bb 07 0c
        E 45 bb 07 0c
        E 45 bb 07 0c
        E 45 bb 07 0c
        E 45 bb 07 0c
        E 45 bb 07 0c
        E 45 bb 07 0c
        E 45 bb 07 0c
        E 45 bb 07 0c
        E 45 bb 07 0c
        E 45 bb 07 00
        E 45 bb 07 00
        E 45 bb 07 00
        E 45 bb 07 00
        E 45 bb 07 00
        E 45 bb 07 00
        E 45 bb 07 00
        E 45 bb 07 00
        E 45 bb 07 00
        E 45 bb 07 00
        E 45 bb 07 00
        E 45 bb 07 00
        E 45 bb 07 00
        E 45 bb 07 00
        E 45 bb 07 00
        E 45 bb 07 00
        E 45 bb 07 00
        E 45 bb 07 00
        E 45 bb 07 00
        E 45 bb 07 00
        E 45 bb 07 00
        E 45 bb 07 00
        E 45 bb 07 00
        E 45 bb 07 00
        E 45 bb 07 00
        E 45 bb 07 00
        E 45 bb 07 00
        E 45 bb 07 00
        E 45 bb 07 00
        E 45 bb 07 00
        E 45 bb 07 00
        E 45 bb 07 00
        E 45 bb 07 00
        E 45 bb 07 00
        E 45 bb 07 00
        E 45 bb 07 00
        E 45 bb 07 00
        E 45 bb 07 00
        E 45 bb 07 00
        E 45 bb 07 00
        E 45 bb 07 00
        E 45 bb 07 00
        E 45 bb 07 00
        E 45 bb 07 00
        E 45 bb 07 00
        E 45 bb 07 00
        E 45 bb 07 00
        E 45 bb 07 00
        E 45 bb 07 00
        E 45 bb 07 00
        E 45 bb 07 00
        E 45 bb 07 00
        E 45 bb 07 00
        E 45 bb 07 00
        E 45 bb 07 00
        E 45 bb 07 00
        E 45 bb 07 00
        E 45 bb 07 00
        E 45 bb 07 00
        E 45 bb 07 00
        E 45 bb 07 00
        E 45 bb 07 00
        E 45 bb 07 00
        E 45 bb 07 00
        E 40 bb 07 32
        E 40 bb 07 32
        E 40 bb 07 32
        E 40 bb 07 32
        E 40 bb 07 32
        E 40 bb 07 32
        E 40 bb 07 32
        E 40 bb 07 32
        E 40 bb 07 32
        E 40 bb 07 32
        E 40 bb 07 32
        E 40 bb 07 32
        E 40 bb 07 32
        E 40 bb 07 32
        E 40 bb 07 32
        E 40 bb 07 32
        E 40 bb 07 32
        E 40 bb 07 32
        E 40 bb 07 32
        E 40 bb 07 32
        E 40 bb 07 32
        E 40 bb 07 32
        E 40 bb 07 32
        E 40 bb 07 32
        E 40 bb 07 32
        E 40 bb 07 32
        E 40 bb 07 32
        E 40 bb 07 32
        E 40 bb 07 32
        E 40 bb 07 32
        E 40 bb 07 32
        E 40 bb 07 32
        E 40 bb 07 32
        E 40 bb 07 32
        E 40 bb 07 32
        E 40 bb 07 32
        E 40 bb 07 32
        E 40 bb 07 32
        E 40 bb 07 32
        E 40 bb 07 32
        E 40 bb 07 32
        E 40 bb 07 32
        E 40 bb 07 32
        E 40 bb 07 32
        E 40 bb 07 32
        E 40 bb 07 32
        E 40 bb 07 32
        E 40 bb 07 32
        E 40 bb 07 32
        E 40 bb 07 32
        E 40 bb 07 32
        E 40 bb 07 32
        E 40 bb 07 32
        E 40 bb 07 32
        E 40 bb 07 32
        E 40 bb 07 32
        E 40 bb 07 32
        E 40 bb 07 32
        E 40 bb 07 32
        E 40 bb 07 32
        E 40 bb 07 32
        E 40 bb 07 32
        E 40 bb 07 32
        E 40 bb 07 00
        E 40 bb 07 00
        E 40 bb 07 00
        E 40 bb 07 00
        E 40 bb 07 00
        E 40 bb 07 00
        E 40 bb 07 00
        E 40 bb 07 00
        E 40 bb 07 00
        E 40 bb 07 00
        E 40 bb 07 00
        E 40 bb 07 00
        E 40 bb 07 00
        E 40 bb 07 00
        E 40 bb 07 00
        E 40 bb 07 00
        E 40 bb 07 00
        E 40 bb 07 00
        E 40 bb 07 00
        E 40 bb 07 00
        E 40 bb 07 00
        E 40 bb 07 00
        E 40 bb 07 00
        E 40 bb 07 00
        E 40 bb 07 00
        E 40 bb 07 00
        E 40 bb 07 00
        E 40 bb 07 00
        E 40 bb 07 00
        E 40 bb 07 00
        E 40 bb 07 00
        E 40 bb 07 00
        E 40 bb 07 00
        E 40 bb 07 00
        E 40 bb 07 00
        E 40 bb 07 00
        E 40 bb 07 00
        E 40 bb 07 00
        E 40 bb 07 00
        E 40 bb 07 00
        E 40 bb 07 00
        E 40 bb 07 00
        E 40 bb 07 00
        E 40 bb 07 00
        E 40 bb 07 00
        E 40 bb 07 00
        E 40 bb 07 00
        E 40 bb 07 00
        E 40 bb 07 00
        E 40 bb 07 00
        E 40 bb 07 00
        E 40 bb 07 00
        E 40 bb 07 00
        E 40 bb 07 00
        E 40 bb 07 00
        E 40 bb 07 00
        E 40 bb 07 00
        E 40 bb 07 00
        E 40 bb 07 00
        E 40 bb 07 00
        E 40 bb 07 00
        E 40 bb 07 00
        E 40 bb 07 00
        E 40 bb 07 00
        E 106 b0 7b 00
        CCINTERP 32
        CHASE_CC_TAKEOFFS 1
        GUID {582DEAB4-BC05-F34C-9379-4274D4846C6E}
        IGNTEMPO 0 120 4 4
        SRCCOLOR 184
        VELLANE 3 601 0
        VELLANE -1 196 0
      >
    >
  >
  <TRACK {7B58932B-A443-2E40-A641-35A61BDACD6F}
    NAME "insects of the los angeles basin"
    PEAKCOL 16576
    BEAT -1
    AUTOMODE 0
    VOLPAN 1 0 -1 -1 1
    MUTESOLO 0 0 0
    IPHASE 0
    PLAYOFFS 0 1
    ISBUS 2 -1
    BUSCOMP 0 0 0 0 0
    SHOWINMIX 1 0.6667 0.5 1 0.5 -1 -1 -1
    FREEMODE 0
    SEL 0
    REC 0 0 1 0 0 0 0
    VU 2
    TRACKHEIGHT 0 1 0 0 -1 0
    INQ 0 0 0 0.5 100 0 0 100
    NCHAN 2
    FX 1
    TRACKID {7B58932B-A443-2E40-A641-35A61BDACD6F}
    PERF 0
    MIDIOUT -1
    MAINSEND 1 0
    <ITEM
      POSITION 0
      SNAPOFFS 0
      LENGTH 901.043253
      LOOP 1
      ALLTAKES 0
      FADEIN 1 0 0 1 0 0
      FADEOUT 1 0 0 1 0 0
      MUTE 0 0
      SEL 0
      IGUID {3CFC242E-23FD-914B-9630-78F5D783830B}
      IID 26
      NAME "insects of the los angeles basin.mid"
      VOLPAN 1 0 1 -1
      SOFFS 0 0
      PLAYRATE 1 1 0 -1 0 0.0025
      CHANMODE 0
      GUID {5E7ACCF7-AF83-3548-A57A-C2AB2CD9FAE1}
      <SOURCE MIDI
        HASDATA 1 128 QN
        CCINTERP 32
        POOLEDEVTS {E85430A7-4380-7B47-BC14-CFDB93E4ABAC}
        E 66 bc 0a 0b
        E 66 bc 0a 26
        E 66 bc 0a 19
        E 66 bc 0a 04
        E 66 bc 0a 24
        E 66 bc 0a 20
        E 66 bc 0a 04
        E 66 bc 0a 04
        E 66 bc 0a 18
        E 66 bc 0a 30
        E 66 bc 0a 28
        E 66 bc 0a 2c
        E 66 bc 0a 1f
        E 66 bc 0a 05
        E 66 bc 0a 09
        E 66 bc 0a 22
        E 66 bc 0a 1c
        E 66 bc 0a 0e
        E 66 bc 0a 0a
        E 66 bc 0a 0d
        E 66 bc 0a 27
        E 66 bc 0a 17
        E 66 bc 0a 0c
        E 66 bc 0a 1d
        E 66 bc 0a 32
        E 66 bc 0a 00
        E 66 bc 0a 06
        E 66 bc 0a 14
        E 66 bc 0a 11
        E 66 bc 0a 29
        E 66 bc 0a 0a
        E 66 bc 0a 03
        E 66 bc 0a 08
        E 66 bc 0a 08
        E 66 bc 0a 2e
        E 66 bc 0a 0c
        E 66 bc 0a 00
        E 66 bc 0a 25
        E 66 bc 0a 11
        E 66 bc 0a 0a
        E 66 bc 0a 14
        E 66 bc 0a 0d
        E 66 bc 0a 2b
        E 66 bc 0a 2a
        E 66 bc 0a 32
        E 66 bc 0a 2a
        E 66 bc 0a 16
        E 66 bc 0a 2f
        E 66 bc 0a 24
        E 66 bc 0a 06
        E 66 bc 0a 16
        E 66 bc 0a 1b
        E 66 bc 0a 30
        E 66 bc 0a 26
        E 66 bc 0a 1b
        E 66 bc 0a 1c
        E 66 bc 0a 02
        E 66 bc 0a 05
        E 66 bc 0a 2e
        E 66 bc 0a 28
        E 66 bc 0a 15
        E 66 bc 0a 10
        E 66 bc 0a 06
        E 66 bc 0a 16
        E 66 bc 0a 0f
        E 66 bc 0a 0c
        E 66 bc 0a 13
        E 66 bc 0a 1a
        E 66 bc 0a 1e
        E 66 bc 0a 20
        E 66 bc 0a 08
        E 66 bc 0a 1e
        E 66 bc 0a 2d
        E 66 bc 0a 1a
        E 66 bc 0a 1d
        E 66 bc 0a 01
        E 66 bc 0a 03
        E 66 bc 0a 32
        E 66 bc 0a 21
        E 66 bc 0a 09
        E 66 bc 0a 2e
        E 66 bc 0a 10
        E 66 bc 0a 13
        E 66 bc 0a 18
        E 66 bc 0a 14
        E 66 bc 0a 22
        E 66 bc 0a 29
        E 66 bc 0a 0e
        E 66 bc 0a 1c
        E 66 bc 0a 0b
        E 66 bc 0a 2d
        E 66 bc 0a 2a
        E 66 bc 0a 17
        E 66 bc 0a 12
        E 66 bc 0a 28
        E 66 bc 0a 12
        E 66 bc 0a 23
        E 66 bc 0a 07
        E 66 bc 0a 00
        E 66 bc 0a 10
        E 66 bc 0a 19
        E 66 bc 0a 2b
        E 66 bc 0a 27
        E 66 bc 0a 01
        E 66 bc 0a 2c
        E 66 bc 0a 25
        E 66 bc 0a 02
        E 66 bc 0a 0f
        E 66 bc 0a 1e
        E 66 bc 0a 26
        E 66 bc 0a 30
        E 66 bc 0a 1f
        E 66 bc 0a 15
        E 66 bc 0a 0e
        E 66 bc 0a 23
        E 66 bc 0a 24
        E 66 bc 0a 2c
        E 66 bc 0a 31
        E 66 bc 0a 18
        E 66 bc 0a 20
        E 66 bc 0a 22
        E 66 bc 0a 1a
        E 66 bc 0a 2f
        E 66 bc 0a 07
        E 66 bc 0a 12
        E 66 bc 0a 21
        E 37 bc 0a 13
        E 37 bc 0a 43
        E 37 bc 0a 2c
        E 37 bc 0a 07
        E 37 bc 0a 3e
        E 37 bc 0a 38
        E 37 bc 0a 08
        E 37 bc 0a 07
        E 37 bc 0a 2a
        E 37 bc 0a 54
        E 37 bc 0a 46
        E 37 bc 0a 4d
        E 37 bc 0a 37
        E 37 bc 0a 09
        E 37 bc 0a 10
        E 37 bc 0a 3c
        E 37 bc 0a 31
        E 37 bc 0a 19
        E 37 bc 0a 11
        E 37 bc 0a 17
        E 37 bc 0a 45
        E 37 bc 0a 29
        E 37 bc 0a 15
        E 37 bc 0a 33
        E 37 bc 0a 58
        E 37 bc 0a 00
        E 37 bc 0a 0b
        E 37 bc 0a 24
        E 37 bc 0a 1e
        E 37 bc 0a 48
        E 37 bc 0a 12
        E 37 bc 0a 05
        E 37 bc 0a 0e
        E 37 bc 0a 0f
        E 37 bc 0a 50
        E 37 bc 0a 16
        E 37 bc 0a 00
        E 37 bc 0a 41
        E 37 bc 0a 1e
        E 37 bc 0a 12
        E 37 bc 0a 23
        E 37 bc 0a 17
        E 37 bc 0a 4b
        E 37 bc 0a 4a
        E 37 bc 0a 58
        E 37 bc 0a 4a
        E 37 bc 0a 26
        E 37 bc 0a 52
        E 37 bc 0a 3f
        E 37 bc 0a 0a
        E 37 bc 0a 27
        E 37 bc 0a 2f
        E 37 bc 0a 54
        E 37 bc 0a 43
        E 37 bc 0a 30
        E 37 bc 0a 31
        E 37 bc 0a 04
        E 37 bc 0a 09
        E 37 bc 0a 51
        E 37 bc 0a 47
        E 37 bc 0a 25
        E 37 bc 0a 1c
        E 37 bc 0a 0b
        E 37 bc 0a 27
        E 37 bc 0a 1a
        E 37 bc 0a 15
        E 37 bc 0a 21
        E 37 bc 0a 2e
        E 37 bc 0a 35
        E 37 bc 0a 39
        E 37 bc 0a 0e
        E 37 bc 0a 35
        E 37 bc 0a 4f
        E 37 bc 0a 2d
        E 37 bc 0a 33
        E 37 bc 0a 02
        E 37 bc 0a 06
        E 37 bc 0a 57
        E 37 bc 0a 3a
        E 37 bc 0a 10
        E 37 bc 0a 51
        E 37 bc 0a 1c
        E 37 bc 0a 22
        E 37 bc 0a 2b
        E 37 bc 0a 23
        E 37 bc 0a 3b
        E 37 bc 0a 48
        E 37 bc 0a 19
        E 37 bc 0a 32
        E 37 bc 0a 14
        E 37 bc 0a 4f
        E 37 bc 0a 49
        E 37 bc 0a 28
        E 37 bc 0a 20
        E 37 bc 0a 46
        E 37 bc 0a 20
        E 37 bc 0a 3e
        E 37 bc 0a 0c
        E 37 bc 0a 01
        E 37 bc 0a 1d
        E 37 bc 0a 2c
        E 37 bc 0a 4c
        E 37 bc 0a 44
        E 37 bc 0a 02
        E 37 bc 0a 4d
        E 37 bc 0a 41
        E 37 bc 0a 04
        E 37 bc 0a 1b
        E 37 bc 0a 34
        E 37 bc 0a 42
        E 37 bc 0a 55
        E 37 bc 0a 36
        E 37 bc 0a 25
        E 37 bc 0a 18
        E 37 bc 0a 3d
        E 37 bc 0a 40
        E 37 bc 0a 4e
        E 37 bc 0a 56
        E 37 bc 0a 2a
        E 37 bc 0a 38
        E 37 bc 0a 3c
        E 37 bc 0a 2e
        E 37 bc 0a 53
        E 37 bc 0a 0d
        E 37 bc 0a 1f
        E 37 bc 0a 3a
        E 36 bc 0a 40
        E 36 bc 0a 43
        E 36 bc 0a 46
        E 36 bc 0a 49
        E 36 bc 0a 4c
        E 36 bc 0a 4f
        E 36 bc 0a 52
        E 36 bc 0a 55
        E 36 bc 0a 58
        E 36 bc 0a 5b
        E 36 bc 0a 5e
        E 36 bc 0a 60
        E 36 bc 0a 63
        E 36 bc 0a 66
        E 36 bc 0a 68
        E 36 bc 0a 6a
        E 36 bc 0a 6d
        E 36 bc 0a 6f
        E 36 bc 0a 71
        E 36 bc 0a 73
        E 36 bc 0a 75
        E 36 bc 0a 76
        E 36 bc 0a 78
        E 36 bc 0a 79
        E 36 bc 0a 7a
        E 36 bc 0a 7b
        E 36 bc 0a 7c
        E 36 bc 0a 7d
        E 36 bc 0a 7e
        E 36 bc 0a 7e
        E 36 bc 0a 7f
        E 36 bc 0a 7f
        E 36 bc 0a 7f
        E 36 bc 0a 7f
        E 36 bc 0a 7f
        E 36 bc 0a 7e
        E 36 bc 0a 7e
        E 36 bc 0a 7d
        E 36 bc 0a 7c
        E 36 bc 0a 7b
        E 36 bc 0a 7a
        E 36 bc 0a 78
        E 36 bc 0a 77
        E 36 bc 0a 75
        E 36 bc 0a 74
        E 36 bc 0a 72
        E 36 bc 0a 70
        E 36 bc 0a 6e
        E 36 bc 0a 6c
        E 36 bc 0a 69
        E 36 bc 0a 67
        E 36 bc 0a 64
        E 36 bc 0a 62
        E 36 bc 0a 5f
        E 36 bc 0a 5c
        E 36 bc 0a 59
        E 36 bc 0a 57
        E 36 bc 0a 54
        E 36 bc 0a 51
        E 36 bc 0a 4e
        E 36 bc 0a 4a
        E 36 bc 0a 47
        E 36 bc 0a 44
        E 36 bc 0a 41
        E 36 bc 0a 3e
        E 36 bc 0a 3b
        E 36 bc 0a 38
        E 36 bc 0a 35
        E 36 bc 0a 31
        E 36 bc 0a 2e
        E 36 bc 0a 2b
        E 36 bc 0a 28
        E 36 bc 0a 26
        E 36 bc 0a 23
        E 36 bc 0a 20
        E 36 bc 0a 1d
        E 36 bc 0a 1b
        E 36 bc 0a 18
        E 36 bc 0a 16
        E 36 bc 0a 13
        E 36 bc 0a 11
        E 36 bc 0a 0f
        E 36 bc 0a 0d
        E 36 bc 0a 0b
        E 36 bc 0a 0a
        E 36 bc 0a 08
        E 36 bc 0a 07
        E 36 bc 0a 05
        E 36 bc 0a 04
        E 36 bc 0a 03
        E 36 bc 0a 02
        E 36 bc 0a 01
        E 36 bc 0a 01
        E 36 bc 0a 00
        E 36 bc 0a 00
        E 36 bc 0a 00
        E 36 bc 0a 00
        E 36 bc 0a 00
        E 36 bc 0a 01
        E 36 bc 0a 01
        E 36 bc 0a 02
        E 36 bc 0a 03
        E 36 bc 0a 04
        E 36 bc 0a 05
        E 36 bc 0a 06
        E 36 bc 0a 07
        E 36 bc 0a 09
        E 36 bc 0a 0a
        E 36 bc 0a 0c
        E 36 bc 0a 0e
        E 36 bc 0a 10
        E 36 bc 0a 12
        E 36 bc 0a 15
        E 36 bc 0a 17
        E 36 bc 0a 19
        E 36 bc 0a 1c
        E 36 bc 0a 1f
        E 36 bc 0a 21
        E 36 bc 0a 24
        E 36 bc 0a 27
        E 36 bc 0a 2a
        E 36 bc 0a 2d
        E 36 bc 0a 30
        E 36 bc 0a 33
        E 36 bc 0a 36
        E 36 bc 0a 39
        E 36 bc 0a 3c
        E 36 bc 0a 40
        E 4 bc 0a 39
        E 4 bc 0a 3c
        E 4 bc 0a 3f
        E 4 bc 0a 41
        E 4 bc 0a 44
        E 4 bc 0a 47
        E 4 bc 0a 49
        E 4 bc 0a 4c
        E 4 bc 0a 4f
        E 4 bc 0a 51
        E 4 bc 0a 54
        E 4 bc 0a 56
        E 4 bc 0a 59
        E 4 bc 0a 5b
        E 4 bc 0a 5d
        E 4 bc 0a 5f
        E 4 bc 0a 62
        E 4 bc 0a 63
        E 4 bc 0a 65
        E 4 bc 0a 67
        E 4 bc 0a 69
        E 4 bc 0a 6a
        E 4 bc 0a 6c
        E 4 bc 0a 6c
        E 4 bc 0a 6d
        E 4 bc 0a 6e
        E 4 bc 0a 6f
        E 4 bc 0a 70
        E 4 bc 0a 71
        E 4 bc 0a 71
        E 4 bc 0a 72
        E 4 bc 0a 72
        E 4 bc 0a 72
        E 4 bc 0a 72
        E 4 bc 0a 72
        E 4 bc 0a 71
        E 4 bc 0a 71
        E 4 bc 0a 70
        E 4 bc 0a 6f
        E 4 bc 0a 6e
        E 4 bc 0a 6d
        E 4 bc 0a 6c
        E 4 bc 0a 6b
        E 4 bc 0a 69
        E 4 bc 0a 68
        E 4 bc 0a 66
        E 4 bc 0a 64
        E 4 bc 0a 63
        E 4 bc 0a 61
        E 4 bc 0a 5e
        E 4 bc 0a 5c
        E 4 bc 0a 5a
        E 4 bc 0a 58
        E 4 bc 0a 55
        E 4 bc 0a 52
        E 4 bc 0a 50
        E 4 bc 0a 4e
        E 4 bc 0a 4b
        E 4 bc 0a 48
        E 4 bc 0a 46
        E 4 bc 0a 42
        E 4 bc 0a 3f
        E 4 bc 0a 3d
        E 4 bc 0a 3a
        E 4 bc 0a 37
        E 4 bc 0a 35
        E 4 bc 0a 32
        E 4 bc 0a 2f
        E 4 bc 0a 2c
        E 4 bc 0a 29
        E 4 bc 0a 26
        E 4 bc 0a 24
        E 4 bc 0a 22
        E 4 bc 0a 1f
        E 4 bc 0a 1c
        E 4 bc 0a 1a
        E 4 bc 0a 18
        E 4 bc 0a 15
        E 4 bc 0a 13
        E 4 bc 0a 11
        E 4 bc 0a 0f
        E 4 bc 0a 0d
        E 4 bc 0a 0b
        E 4 bc 0a 09
        E 4 bc 0a 09
        E 4 bc 0a 07
        E 4 bc 0a 06
        E 4 bc 0a 04
        E 4 bc 0a 03
        E 4 bc 0a 02
        E 4 bc 0a 01
        E 4 bc 0a 00
        E 4 bc 0a 00
        E 4 bc 0a 00
        E 4 bc 0a 00
        E 4 bc 0a 00
        E 4 bc 0a 00
        E 4 bc 0a 00
        E 4 bc 0a 00
        E 4 bc 0a 00
        E 4 bc 0a 01
        E 4 bc 0a 02
        E 4 bc 0a 03
        E 4 bc 0a 04
        E 4 bc 0a 05
        E 4 bc 0a 06
        E 4 bc 0a 08
        E 4 bc 0a 09
        E 4 bc 0a 0a
        E 4 bc 0a 0c
        E 4 bc 0a 0e
        E 4 bc 0a 10
        E 4 bc 0a 12
        E 4 bc 0a 14
        E 4 bc 0a 16
        E 4 bc 0a 19
        E 4 bc 0a 1b
        E 4 bc 0a 1d
        E 4 bc 0a 20
        E 4 bc 0a 23
        E 4 bc 0a 25
        E 4 bc 0a 28
        E 4 bc 0a 2b
        E 4 bc 0a 2d
        E 4 bc 0a 30
        E 4 bc 0a 33
        E 4 bc 0a 36
        E 4 bc 0a 39
        E 18 bc 0a 40
        E 18 bc 0a 43
        E 18 bc 0a 46
        E 18 bc 0a 49
        E 18 bc 0a 4c
        E 18 bc 0a 4f
        E 18 bc 0a 52
        E 18 bc 0a 55
        E 18 bc 0a 58
        E 18 bc 0a 5b
        E 18 bc 0a 5e
        E 18 bc 0a 60
        E 18 bc 0a 63
        E 18 bc 0a 66
        E 18 bc 0a 68
        E 18 bc 0a 6a
        E 18 bc 0a 6d
        E 18 bc 0a 6f
        E 18 bc 0a 71
        E 18 bc 0a 73
        E 18 bc 0a 75
        E 18 bc 0a 76
        E 18 bc 0a 78
        E 18 bc 0a 79
        E 18 bc 0a 7a
        E 18 bc 0a 7b
        E 18 bc 0a 7c
        E 18 bc 0a 7d
        E 18 bc 0a 7e
        E 18 bc 0a 7e
        E 18 bc 0a 7f
        E 18 bc 0a 7f
        E 18 bc 0a 7f
        E 18 bc 0a 7f
        E 18 bc 0a 7f
        E 18 bc 0a 7e
        E 18 bc 0a 7e
        E 18 bc 0a 7d
        E 18 bc 0a 7c
        E 18 bc 0a 7b
        E 18 bc 0a 7a
        E 18 bc 0a 78
        E 18 bc 0a 77
        E 18 bc 0a 75
        E 18 bc 0a 74
        E 18 bc 0a 72
        E 18 bc 0a 70
        E 18 bc 0a 6e
        E 18 bc 0a 6c
        E 18 bc 0a 69
        E 18 bc 0a 67
        E 18 bc 0a 64
        E 18 bc 0a 62
        E 18 bc 0a 5f
        E 18 bc 0a 5c
        E 18 bc 0a 59
        E 18 bc 0a 57
        E 18 bc 0a 54
        E 18 bc 0a 51
        E 18 bc 0a 4e
        E 18 bc 0a 4a
        E 18 bc 0a 47
        E 18 bc 0a 44
        E 18 bc 0a 41
        E 18 bc 0a 3e
        E 18 bc 0a 3b
        E 18 bc 0a 38
        E 18 bc 0a 35
        E 18 bc 0a 31
        E 18 bc 0a 2e
        E 18 bc 0a 2b
        E 18 bc 0a 28
        E 18 bc 0a 26
        E 18 bc 0a 23
        E 18 bc 0a 20
        E 18 bc 0a 1d
        E 18 bc 0a 1b
        E 18 bc 0a 18
        E 18 bc 0a 16
        E 18 bc 0a 13
        E 18 bc 0a 11
        E 18 bc 0a 0f
        E 18 bc 0a 0d
        E 18 bc 0a 0b
        E 18 bc 0a 0a
        E 18 bc 0a 08
        E 18 bc 0a 07
        E 18 bc 0a 05
        E 18 bc 0a 04
        E 18 bc 0a 03
        E 18 bc 0a 02
        E 18 bc 0a 01
        E 18 bc 0a 01
        E 18 bc 0a 00
        E 18 bc 0a 00
        E 18 bc 0a 00
        E 18 bc 0a 00
        E 18 bc 0a 00
        E 18 bc 0a 01
        E 18 bc 0a 01
        E 18 bc 0a 02
        E 18 bc 0a 03
        E 18 bc 0a 04
        E 18 bc 0a 05
        E 18 bc 0a 06
        E 18 bc 0a 07
        E 18 bc 0a 09
        E 18 bc 0a 0a
        E 18 bc 0a 0c
        E 18 bc 0a 0e
        E 18 bc 0a 10
        E 18 bc 0a 12
        E 18 bc 0a 15
        E 18 bc 0a 17
        E 18 bc 0a 19
        E 18 bc 0a 1c
        E 18 bc 0a 1f
        E 18 bc 0a 21
        E 18 bc 0a 24
        E 18 bc 0a 27
        E 18 bc 0a 2a
        E 18 bc 0a 2d
        E 18 bc 0a 30
        E 18 bc 0a 33
        E 18 bc 0a 36
        E 18 bc 0a 39
        E 18 bc 0a 3c
        E 18 bc 0a 40
        E 31 bc 0a 39
        E 31 bc 0a 3c
        E 31 bc 0a 3f
        E 31 bc 0a 41
        E 31 bc 0a 44
        E 31 bc 0a 47
        E 31 bc 0a 49
        E 31 bc 0a 4c
        E 31 bc 0a 4f
        E 31 bc 0a 51
        E 31 bc 0a 54
        E 31 bc 0a 56
        E 31 bc 0a 59
        E 31 bc 0a 5b
        E 31 bc 0a 5d
        E 31 bc 0a 5f
        E 31 bc 0a 62
        E 31 bc 0a 63
        E 31 bc 0a 65
        E 31 bc 0a 67
        E 31 bc 0a 69
        E 31 bc 0a 6a
        E 31 bc 0a 6c
        E 31 bc 0a 6c
        E 31 bc 0a 6d
        E 31 bc 0a 6e
        E 31 bc 0a 6f
        E 31 bc 0a 70
        E 31 bc 0a 71
        E 31 bc 0a 71
        E 31 bc 0a 72
        E 31 bc 0a 72
        E 31 bc 0a 72
        E 31 bc 0a 72
        E 31 bc 0a 72
        E 31 bc 0a 71
        E 31 bc 0a 71
        E 31 bc 0a 70
        E 31 bc 0a 6f
        E 31 bc 0a 6e
        E 31 bc 0a 6d
        E 31 bc 0a 6c
        E 31 bc 0a 6b
        E 31 bc 0a 69
        E 31 bc 0a 68
        E 31 bc 0a 66
        E 31 bc 0a 64
        E 31 bc 0a 63
        E 31 bc 0a 61
        E 31 bc 0a 5e
        E 31 bc 0a 5c
        E 31 bc 0a 5a
        E 31 bc 0a 58
        E 31 bc 0a 55
        E 31 bc 0a 52
        E 31 bc 0a 50
        E 31 bc 0a 4e
        E 31 bc 0a 4b
        E 31 bc 0a 48
        E 31 bc 0a 46
        E 31 bc 0a 42
        E 31 bc 0a 3f
        E 31 bc 0a 3d
        E 31 bc 0a 3a
        E 31 bc 0a 37
        E 31 bc 0a 35
        E 31 bc 0a 32
        E 31 bc 0a 2f
        E 31 bc 0a 2c
        E 31 bc 0a 29
        E 31 bc 0a 26
        E 31 bc 0a 24
        E 31 bc 0a 22
        E 31 bc 0a 1f
        E 31 bc 0a 1c
        E 31 bc 0a 1a
        E 31 bc 0a 18
        E 31 bc 0a 15
        E 31 bc 0a 13
        E 31 bc 0a 11
        E 31 bc 0a 0f
        E 31 bc 0a 0d
        E 31 bc 0a 0b
        E 31 bc 0a 09
        E 31 bc 0a 09
        E 31 bc 0a 07
        E 31 bc 0a 06
        E 31 bc 0a 04
        E 31 bc 0a 03
        E 31 bc 0a 02
        E 31 bc 0a 01
        E 31 bc 0a 00
        E 31 bc 0a 00
        E 31 bc 0a 00
        E 31 bc 0a 00
        E 31 bc 0a 00
        E 31 bc 0a 00
        E 31 bc 0a 00
        E 31 bc 0a 00
        E 31 bc 0a 00
        E 31 bc 0a 01
        E 31 bc 0a 02
        E 31 bc 0a 03
        E 31 bc 0a 04
        E 31 bc 0a 05
        E 31 bc 0a 06
        E 31 bc 0a 08
        E 31 bc 0a 09
        E 31 bc 0a 0a
        E 31 bc 0a 0c
        E 31 bc 0a 0e
        E 31 bc 0a 10
        E 31 bc 0a 12
        E 31 bc 0a 14
        E 31 bc 0a 16
        E 31 bc 0a 19
        E 31 bc 0a 1b
        E 31 bc 0a 1d
        E 31 bc 0a 20
        E 31 bc 0a 23
        E 31 bc 0a 25
        E 31 bc 0a 28
        E 31 bc 0a 2b
        E 31 bc 0a 2d
        E 31 bc 0a 30
        E 31 bc 0a 33
        E 31 bc 0a 36
        E 31 bc 0a 39
        E 22 bc 0a 20
        E 22 bc 0a 21
        E 22 bc 0a 23
        E 22 bc 0a 24
        E 22 bc 0a 26
        E 22 bc 0a 27
        E 22 bc 0a 29
        E 22 bc 0a 2a
        E 22 bc 0a 2c
        E 22 bc 0a 2d
        E 22 bc 0a 2f
        E 22 bc 0a 30
        E 22 bc 0a 31
        E 22 bc 0a 33
        E 22 bc 0a 34
        E 22 bc 0a 35
        E 22 bc 0a 36
        E 22 bc 0a 37
        E 22 bc 0a 38
        E 22 bc 0a 39
        E 22 bc 0a 3a
        E 22 bc 0a 3b
        E 22 bc 0a 3c
        E 22 bc 0a 3c
        E 22 bc 0a 3d
        E 22 bc 0a 3d
        E 22 bc 0a 3e
        E 22 bc 0a 3e
        E 22 bc 0a 3f
        E 22 bc 0a 3f
        E 22 bc 0a 3f
        E 22 bc 0a 3f
        E 22 bc 0a 3f
        E 22 bc 0a 3f
        E 22 bc 0a 3f
        E 22 bc 0a 3f
        E 22 bc 0a 3f
        E 22 bc 0a 3e
        E 22 bc 0a 3e
        E 22 bc 0a 3d
        E 22 bc 0a 3d
        E 22 bc 0a 3c
        E 22 bc 0a 3b
        E 22 bc 0a 3a
        E 22 bc 0a 3a
        E 22 bc 0a 39
        E 22 bc 0a 38
        E 22 bc 0a 37
        E 22 bc 0a 36
        E 22 bc 0a 34
        E 22 bc 0a 33
        E 22 bc 0a 32
        E 22 bc 0a 31
        E 22 bc 0a 2f
        E 22 bc 0a 2e
        E 22 bc 0a 2c
        E 22 bc 0a 2b
        E 22 bc 0a 2a
        E 22 bc 0a 28
        E 22 bc 0a 27
        E 22 bc 0a 25
        E 22 bc 0a 23
        E 22 bc 0a 22
        E 22 bc 0a 20
        E 22 bc 0a 1f
        E 22 bc 0a 1d
        E 22 bc 0a 1c
        E 22 bc 0a 1a
        E 22 bc 0a 18
        E 22 bc 0a 17
        E 22 bc 0a 15
        E 22 bc 0a 14
        E 22 bc 0a 13
        E 22 bc 0a 11
        E 22 bc 0a 10
        E 22 bc 0a 0e
        E 22 bc 0a 0d
        E 22 bc 0a 0c
        E 22 bc 0a 0b
        E 22 bc 0a 09
        E 22 bc 0a 08
        E 22 bc 0a 07
        E 22 bc 0a 06
        E 22 bc 0a 05
        E 22 bc 0a 05
        E 22 bc 0a 04
        E 22 bc 0a 03
        E 22 bc 0a 02
        E 22 bc 0a 02
        E 22 bc 0a 01
        E 22 bc 0a 01
        E 22 bc 0a 00
        E 22 bc 0a 00
        E 22 bc 0a 00
        E 22 bc 0a 00
        E 22 bc 0a 00
        E 22 bc 0a 00
        E 22 bc 0a 00
        E 22 bc 0a 00
        E 22 bc 0a 00
        E 22 bc 0a 01
        E 22 bc 0a 01
        E 22 bc 0a 02
        E 22 bc 0a 02
        E 22 bc 0a 03
        E 22 bc 0a 03
        E 22 bc 0a 04
        E 22 bc 0a 05
        E 22 bc 0a 06
        E 22 bc 0a 07
        E 22 bc 0a 08
        E 22 bc 0a 09
        E 22 bc 0a 0a
        E 22 bc 0a 0b
        E 22 bc 0a 0c
        E 22 bc 0a 0e
        E 22 bc 0a 0f
        E 22 bc 0a 10
        E 22 bc 0a 12
        E 22 bc 0a 13
        E 22 bc 0a 15
        E 22 bc 0a 16
        E 22 bc 0a 18
        E 22 bc 0a 19
        E 22 bc 0a 1b
        E 22 bc 0a 1c
        E 22 bc 0a 1e
        E 22 bc 0a 20
        E 22 bc 0a 20
        E 22 bc 0a 21
        E 22 bc 0a 23
        E 22 bc 0a 24
        E 22 bc 0a 26
        E 22 bc 0a 27
        E 22 bc 0a 29
        E 22 bc 0a 2a
        E 22 bc 0a 2c
        E 22 bc 0a 2d
        E 22 bc 0a 2f
        E 22 bc 0a 30
        E 22 bc 0a 31
        E 22 bc 0a 33
        E 22 bc 0a 34
        E 22 bc 0a 35
        E 22 bc 0a 36
        E 22 bc 0a 37
        E 22 bc 0a 38
        E 22 bc 0a 39
        E 22 bc 0a 3a
        E 22 bc 0a 3b
        E 22 bc 0a 3c
        E 22 bc 0a 3c
        E 22 bc 0a 3d
        E 22 bc 0a 3d
        E 22 bc 0a 3e
        E 22 bc 0a 3e
        E 22 bc 0a 3f
        E 22 bc 0a 3f
        E 22 bc 0a 3f
        E 22 bc 0a 3f
        E 22 bc 0a 3f
        E 22 bc 0a 3f
        E 22 bc 0a 3f
        E 22 bc 0a 3f
        E 22 bc 0a 3f
        E 22 bc 0a 3e
        E 22 bc 0a 3e
        E 22 bc 0a 3d
        E 22 bc 0a 3d
        E 22 bc 0a 3c
        E 22 bc 0a 3b
        E 22 bc 0a 3a
        E 22 bc 0a 3a
        E 22 bc 0a 39
        E 22 bc 0a 38
        E 22 bc 0a 37
        E 22 bc 0a 36
        E 22 bc 0a 34
        E 22 bc 0a 33
        E 22 bc 0a 32
        E 22 bc 0a 31
        E 22 bc 0a 2f
        E 22 bc 0a 2e
        E 22 bc 0a 2c
        E 22 bc 0a 2b
        E 22 bc 0a 2a
        E 22 bc 0a 28
        E 22 bc 0a 27
        E 22 bc 0a 25
        E 22 bc 0a 23
        E 22 bc 0a 22
        E 22 bc 0a 20
        E 22 bc 0a 1f
        E 22 bc 0a 1d
        E 22 bc 0a 1c
        E 22 bc 0a 1a
        E 22 bc 0a 18
        E 22 bc 0a 17
        E 22 bc 0a 15
        E 22 bc 0a 14
        E 22 bc 0a 13
        E 22 bc 0a 11
        E 22 bc 0a 10
        E 22 bc 0a 0e
        E 22 bc 0a 0d
        E 22 bc 0a 0c
        E 22 bc 0a 0b
        E 22 bc 0a 09
        E 22 bc 0a 08
        E 22 bc 0a 07
        E 22 bc 0a 06
        E 22 bc 0a 05
        E 22 bc 0a 05
        E 22 bc 0a 04
        E 22 bc 0a 03
        E 22 bc 0a 02
        E 22 bc 0a 02
        E 22 bc 0a 01
        E 22 bc 0a 01
        E 22 bc 0a 00
        E 22 bc 0a 00
        E 22 bc 0a 00
        E 22 bc 0a 00
        E 22 bc 0a 00
        E 22 bc 0a 00
        E 22 bc 0a 00
        E 22 bc 0a 00
        E 22 bc 0a 00
        E 22 bc 0a 01
        E 22 bc 0a 01
        E 22 bc 0a 02
        E 22 bc 0a 02
        E 22 bc 0a 03
        E 22 bc 0a 03
        E 22 bc 0a 04
        E 22 bc 0a 05
        E 22 bc 0a 06
        E 22 bc 0a 07
        E 22 bc 0a 08
        E 22 bc 0a 09
        E 22 bc 0a 0a
        E 22 bc 0a 0b
        E 22 bc 0a 0c
        E 22 bc 0a 0e
        E 22 bc 0a 0f
        E 22 bc 0a 10
        E 22 bc 0a 12
        E 22 bc 0a 13
        E 22 bc 0a 15
        E 22 bc 0a 16
        E 22 bc 0a 18
        E 22 bc 0a 19
        E 22 bc 0a 1b
        E 22 bc 0a 1c
        E 22 bc 0a 1e
        E 22 bc 0a 20
        E 45 bc 0a 2c
        E 45 bc 0a 2e
        E 45 bc 0a 31
        E 45 bc 0a 33
        E 45 bc 0a 35
        E 45 bc 0a 37
        E 45 bc 0a 39
        E 45 bc 0a 3b
        E 45 bc 0a 3d
        E 45 bc 0a 3f
        E 45 bc 0a 41
        E 45 bc 0a 43
        E 45 bc 0a 45
        E 45 bc 0a 47
        E 45 bc 0a 48
        E 45 bc 0a 4a
        E 45 bc 0a 4c
        E 45 bc 0a 4d
        E 45 bc 0a 4f
        E 45 bc 0a 50
        E 45 bc 0a 51
        E 45 bc 0a 52
        E 45 bc 0a 54
        E 45 bc 0a 54
        E 45 bc 0a 55
        E 45 bc 0a 56
        E 45 bc 0a 56
        E 45 bc 0a 57
        E 45 bc 0a 58
        E 45 bc 0a 58
        E 45 bc 0a 58
        E 45 bc 0a 58
        E 45 bc 0a 58
        E 45 bc 0a 58
        E 45 bc 0a 58
        E 45 bc 0a 58
        E 45 bc 0a 58
        E 45 bc 0a 57
        E 45 bc 0a 56
        E 45 bc 0a 56
        E 45 bc 0a 55
        E 45 bc 0a 54
        E 45 bc 0a 53
        E 45 bc 0a 51
        E 45 bc 0a 51
        E 45 bc 0a 4f
        E 45 bc 0a 4e
        E 45 bc 0a 4d
        E 45 bc 0a 4b
        E 45 bc 0a 49
        E 45 bc 0a 48
        E 45 bc 0a 46
        E 45 bc 0a 44
        E 45 bc 0a 42
        E 45 bc 0a 40
        E 45 bc 0a 3e
        E 45 bc 0a 3c
        E 45 bc 0a 3a
        E 45 bc 0a 38
        E 45 bc 0a 36
        E 45 bc 0a 33
        E 45 bc 0a 31
        E 45 bc 0a 2f
        E 45 bc 0a 2d
        E 45 bc 0a 2b
        E 45 bc 0a 29
        E 45 bc 0a 27
        E 45 bc 0a 25
        E 45 bc 0a 22
        E 45 bc 0a 20
        E 45 bc 0a 1e
        E 45 bc 0a 1c
        E 45 bc 0a 1a
        E 45 bc 0a 18
        E 45 bc 0a 16
        E 45 bc 0a 14
        E 45 bc 0a 12
        E 45 bc 0a 10
        E 45 bc 0a 0f
        E 45 bc 0a 0d
        E 45 bc 0a 0b
        E 45 bc 0a 0a
        E 45 bc 0a 09
        E 45 bc 0a 07
        E 45 bc 0a 07
        E 45 bc 0a 05
        E 45 bc 0a 04
        E 45 bc 0a 03
        E 45 bc 0a 02
        E 45 bc 0a 02
        E 45 bc 0a 01
        E 45 bc 0a 00
        E 45 bc 0a 00
        E 45 bc 0a 00
        E 45 bc 0a 00
        E 45 bc 0a 00
        E 45 bc 0a 00
        E 45 bc 0a 00
        E 45 bc 0a 00
        E 45 bc 0a 00
        E 45 bc 0a 01
        E 45 bc 0a 02
        E 45 bc 0a 02
        E 45 bc 0a 03
        E 45 bc 0a 04
        E 45 bc 0a 04
        E 45 bc 0a 06
        E 45 bc 0a 07
        E 45 bc 0a 08
        E 45 bc 0a 09
        E 45 bc 0a 0b
        E 45 bc 0a 0c
        E 45 bc 0a 0e
        E 45 bc 0a 10
        E 45 bc 0a 11
        E 45 bc 0a 13
        E 45 bc 0a 15
        E 45 bc 0a 17
        E 45 bc 0a 19
        E 45 bc 0a 1b
        E 45 bc 0a 1d
        E 45 bc 0a 1f
        E 45 bc 0a 21
        E 45 bc 0a 23
        E 45 bc 0a 25
        E 45 bc 0a 27
        E 45 bc 0a 2a
        E 45 bc 0a 2c
        E 40 bc 0a 33
        E 40 bc 0a 35
        E 40 bc 0a 37
        E 40 bc 0a 3a
        E 40 bc 0a 3c
        E 40 bc 0a 3f
        E 40 bc 0a 41
        E 40 bc 0a 44
        E 40 bc 0a 46
        E 40 bc 0a 48
        E 40 bc 0a 4b
        E 40 bc 0a 4c
        E 40 bc 0a 4f
        E 40 bc 0a 51
        E 40 bc 0a 53
        E 40 bc 0a 54
        E 40 bc 0a 57
        E 40 bc 0a 58
        E 40 bc 0a 5a
        E 40 bc 0a 5b
        E 40 bc 0a 5d
        E 40 bc 0a 5e
        E 40 bc 0a 5f
        E 40 bc 0a 60
        E 40 bc 0a 61
        E 40 bc 0a 62
        E 40 bc 0a 63
        E 40 bc 0a 63
        E 40 bc 0a 64
        E 40 bc 0a 64
        E 40 bc 0a 65
        E 40 bc 0a 65
        E 40 bc 0a 65
        E 40 bc 0a 65
        E 40 bc 0a 65
        E 40 bc 0a 64
        E 40 bc 0a 64
        E 40 bc 0a 63
        E 40 bc 0a 63
        E 40 bc 0a 62
        E 40 bc 0a 61
        E 40 bc 0a 5f
        E 40 bc 0a 5f
        E 40 bc 0a 5d
        E 40 bc 0a 5c
        E 40 bc 0a 5b
        E 40 bc 0a 59
        E 40 bc 0a 57
        E 40 bc 0a 56
        E 40 bc 0a 54
        E 40 bc 0a 52
        E 40 bc 0a 50
        E 40 bc 0a 4e
        E 40 bc 0a 4c
        E 40 bc 0a 49
        E 40 bc 0a 47
        E 40 bc 0a 45
        E 40 bc 0a 43
        E 40 bc 0a 40
        E 40 bc 0a 3e
        E 40 bc 0a 3b
        E 40 bc 0a 38
        E 40 bc 0a 36
        E 40 bc 0a 33
        E 40 bc 0a 31
        E 40 bc 0a 2f
        E 40 bc 0a 2c
        E 40 bc 0a 2a
        E 40 bc 0a 27
        E 40 bc 0a 24
        E 40 bc 0a 22
        E 40 bc 0a 1f
        E 40 bc 0a 1e
        E 40 bc 0a 1b
        E 40 bc 0a 19
        E 40 bc 0a 17
        E 40 bc 0a 15
        E 40 bc 0a 13
        E 40 bc 0a 11
        E 40 bc 0a 0f
        E 40 bc 0a 0d
        E 40 bc 0a 0b
        E 40 bc 0a 0a
        E 40 bc 0a 08
        E 40 bc 0a 07
        E 40 bc 0a 06
        E 40 bc 0a 05
        E 40 bc 0a 03
        E 40 bc 0a 03
        E 40 bc 0a 02
        E 40 bc 0a 01
        E 40 bc 0a 00
        E 40 bc 0a 00
        E 40 bc 0a 00
        E 40 bc 0a 00
        E 40 bc 0a 00
        E 40 bc 0a 00
        E 40 bc 0a 00
        E 40 bc 0a 00
        E 40 bc 0a 00
        E 40 bc 0a 01
        E 40 bc 0a 02
        E 40 bc 0a 03
        E 40 bc 0a 03
        E 40 bc 0a 04
        E 40 bc 0a 05
        E 40 bc 0a 07
        E 40 bc 0a 07
        E 40 bc 0a 09
        E 40 bc 0a 0b
        E 40 bc 0a 0c
        E 40 bc 0a 0e
        E 40 bc 0a 10
        E 40 bc 0a 12
        E 40 bc 0a 14
        E 40 bc 0a 16
        E 40 bc 0a 18
        E 40 bc 0a 1a
        E 40 bc 0a 1c
        E 40 bc 0a 1f
        E 40 bc 0a 21
        E 40 bc 0a 24
        E 40 bc 0a 26
        E 40 bc 0a 28
        E 40 bc 0a 2b
        E 40 bc 0a 2d
        E 40 bc 0a 2f
        E 40 bc 0a 33
        E 45 bc 0a 06
        E 45 bc 0a 06
        E 45 bc 0a 07
        E 45 bc 0a 07
        E 45 bc 0a 07
        E 45 bc 0a 07
        E 45 bc 0a 08
        E 45 bc 0a 08
        E 45 bc 0a 08
        E 45 bc 0a 09
        E 45 bc 0a 09
        E 45 bc 0a 09
        E 45 bc 0a 09
        E 45 bc 0a 0a
        E 45 bc 0a 0a
        E 45 bc 0a 0a
        E 45 bc 0a 0a
        E 45 bc 0a 0b
        E 45 bc 0a 0b
        E 45 bc 0a 0b
        E 45 bc 0a 0b
        E 45 bc 0a 0b
        E 45 bc 0a 0c
        E 45 bc 0a 0c
        E 45 bc 0a 0c
        E 45 bc 0a 0c
        E 45 bc 0a 0c
        E 45 bc 0a 0c
        E 45 bc 0a 0c
        E 45 bc 0a 0c
        E 45 bc 0a 0c
        E 45 bc 0a 0c
        E 45 bc 0a 0c
        E 45 bc 0a 0c
        E 45 bc 0a 0c
        E 45 bc 0a 0c
        E 45 bc 0a 0c
        E 45 bc 0a 0c
        E 45 bc 0a 0c
        E 45 bc 0a 0c
        E 45 bc 0a 0c
        E 45 bc 0a 0c
        E 45 bc 0a 0b
        E 45 bc 0a 0b
        E 45 bc 0a 0b
        E 45 bc 0a 0b
        E 45 bc 0a 0b
        E 45 bc 0a 0b
        E 45 bc 0a 0a
        E 45 bc 0a 0a
        E 45 bc 0a 0a
        E 45 bc 0a 0a
        E 45 bc 0a 09
        E 45 bc 0a 09
        E 45 bc 0a 09
        E 45 bc 0a 08
        E 45 bc 0a 08
        E 45 bc 0a 08
        E 45 bc 0a 08
        E 45 bc 0a 07
        E 45 bc 0a 07
        E 45 bc 0a 07
        E 45 bc 0a 06
        E 45 bc 0a 06
        E 45 bc 0a 06
        E 45 bc 0a 05
        E 45 bc 0a 05
        E 45 bc 0a 05
        E 45 bc 0a 04
        E 45 bc 0a 04
        E 45 bc 0a 04
        E 45 bc 0a 04
        E 45 bc 0a 03
        E 45 bc 0a 03
        E 45 bc 0a 03
        E 45 bc 0a 02
        E 45 bc 0a 02
        E 45 bc 0a 02
        E 45 bc 0a 02
        E 45 bc 0a 01
        E 45 bc 0a 01
        E 45 bc 0a 01
        E 45 bc 0a 01
        E 45 bc 0a 01
        E 45 bc 0a 01
        E 45 bc 0a 00
        E 45 bc 0a 00
        E 45 bc 0a 00
        E 45 bc 0a 00
        E 45 bc 0a 00
        E 45 bc 0a 00
        E 45 bc 0a 00
        E 45 bc 0a 00
        E 45 bc 0a 00
        E 45 bc 0a 00
        E 45 bc 0a 00
        E 45 bc 0a 00
        E 45 bc 0a 00
        E 45 bc 0a 00
        E 45 bc 0a 00
        E 45 bc 0a 00
        E 45 bc 0a 00
        E 45 bc 0a 00
        E 45 bc 0a 00
        E 45 bc 0a 00
        E 45 bc 0a 00
        E 45 bc 0a 00
        E 45 bc 0a 01
        E 45 bc 0a 01
        E 45 bc 0a 01
        E 45 bc 0a 01
        E 45 bc 0a 01
        E 45 bc 0a 02
        E 45 bc 0a 02
        E 45 bc 0a 02
        E 45 bc 0a 02
        E 45 bc 0a 03
        E 45 bc 0a 03
        E 45 bc 0a 03
        E 45 bc 0a 03
        E 45 bc 0a 04
        E 45 bc 0a 04
        E 45 bc 0a 04
        E 45 bc 0a 05
        E 45 bc 0a 05
        E 45 bc 0a 05
        E 45 bc 0a 06
        E 45 bc 0a 06
        E 40 bc 0a 19
        E 40 bc 0a 1a
        E 40 bc 0a 1c
        E 40 bc 0a 1d
        E 40 bc 0a 1e
        E 40 bc 0a 1f
        E 40 bc 0a 20
        E 40 bc 0a 22
        E 40 bc 0a 23
        E 40 bc 0a 24
        E 40 bc 0a 25
        E 40 bc 0a 26
        E 40 bc 0a 27
        E 40 bc 0a 28
        E 40 bc 0a 29
        E 40 bc 0a 2a
        E 40 bc 0a 2b
        E 40 bc 0a 2c
        E 40 bc 0a 2d
        E 40 bc 0a 2e
        E 40 bc 0a 2e
        E 40 bc 0a 2f
        E 40 bc 0a 30
        E 40 bc 0a 30
        E 40 bc 0a 30
        E 40 bc 0a 31
        E 40 bc 0a 31
        E 40 bc 0a 32
        E 40 bc 0a 32
        E 40 bc 0a 32
        E 40 bc 0a 32
        E 40 bc 0a 32
        E 40 bc 0a 32
        E 40 bc 0a 32
        E 40 bc 0a 32
        E 40 bc 0a 32
        E 40 bc 0a 32
        E 40 bc 0a 32
        E 40 bc 0a 31
        E 40 bc 0a 31
        E 40 bc 0a 30
        E 40 bc 0a 30
        E 40 bc 0a 2f
        E 40 bc 0a 2e
        E 40 bc 0a 2e
        E 40 bc 0a 2d
        E 40 bc 0a 2c
        E 40 bc 0a 2c
        E 40 bc 0a 2b
        E 40 bc 0a 2a
        E 40 bc 0a 29
        E 40 bc 0a 28
        E 40 bc 0a 27
        E 40 bc 0a 26
        E 40 bc 0a 24
        E 40 bc 0a 23
        E 40 bc 0a 22
        E 40 bc 0a 21
        E 40 bc 0a 20
        E 40 bc 0a 1f
        E 40 bc 0a 1d
        E 40 bc 0a 1c
        E 40 bc 0a 1b
        E 40 bc 0a 1a
        E 40 bc 0a 18
        E 40 bc 0a 17
        E 40 bc 0a 16
        E 40 bc 0a 15
        E 40 bc 0a 13
        E 40 bc 0a 12
        E 40 bc 0a 11
        E 40 bc 0a 10
        E 40 bc 0a 0f
        E 40 bc 0a 0e
        E 40 bc 0a 0c
        E 40 bc 0a 0b
        E 40 bc 0a 0a
        E 40 bc 0a 09
        E 40 bc 0a 08
        E 40 bc 0a 07
        E 40 bc 0a 06
        E 40 bc 0a 06
        E 40 bc 0a 05
        E 40 bc 0a 04
        E 40 bc 0a 04
        E 40 bc 0a 03
        E 40 bc 0a 02
        E 40 bc 0a 02
        E 40 bc 0a 01
        E 40 bc 0a 01
        E 40 bc 0a 00
        E 40 bc 0a 00
        E 40 bc 0a 00
        E 40 bc 0a 00
        E 40 bc 0a 00
        E 40 bc 0a 00
        E 40 bc 0a 00
        E 40 bc 0a 00
        E 40 bc 0a 00
        E 40 bc 0a 00
        E 40 bc 0a 00
        E 40 bc 0a 01
        E 40 bc 0a 01
        E 40 bc 0a 02
        E 40 bc 0a 02
        E 40 bc 0a 02
        E 40 bc 0a 03
        E 40 bc 0a 04
        E 40 bc 0a 04
        E 40 bc 0a 05
        E 40 bc 0a 06
        E 40 bc 0a 07
        E 40 bc 0a 08
        E 40 bc 0a 09
        E 40 bc 0a 0a
        E 40 bc 0a 0b
        E 40 bc 0a 0c
        E 40 bc 0a 0d
        E 40 bc 0a 0e
        E 40 bc 0a 0f
        E 40 bc 0a 10
        E 40 bc 0a 12
        E 40 bc 0a 13
        E 40 bc 0a 14
        E 40 bc 0a 15
        E 40 bc 0a 16
        E 40 bc 0a 18
        E 40 bc 0a 19
        E 22 bc 0a 2c
        E 22 bc 0a 2e
        E 22 bc 0a 31
        E 22 bc 0a 33
        E 22 bc 0a 35
        E 22 bc 0a 37
        E 22 bc 0a 39
        E 22 bc 0a 3b
        E 22 bc 0a 3d
        E 22 bc 0a 3f
        E 22 bc 0a 41
        E 22 bc 0a 43
        E 22 bc 0a 45
        E 22 bc 0a 47
        E 22 bc 0a 48
        E 22 bc 0a 4a
        E 22 bc 0a 4c
        E 22 bc 0a 4d
        E 22 bc 0a 4f
        E 22 bc 0a 50
        E 22 bc 0a 51
        E 22 bc 0a 52
        E 22 bc 0a 54
        E 22 bc 0a 54
        E 22 bc 0a 55
        E 22 bc 0a 56
        E 22 bc 0a 56
        E 22 bc 0a 57
        E 22 bc 0a 58
        E 22 bc 0a 58
        E 22 bc 0a 58
        E 22 bc 0a 58
        E 22 bc 0a 58
        E 22 bc 0a 58
        E 22 bc 0a 58
        E 22 bc 0a 58
        E 22 bc 0a 58
        E 22 bc 0a 57
        E 22 bc 0a 56
        E 22 bc 0a 56
        E 22 bc 0a 55
        E 22 bc 0a 54
        E 22 bc 0a 53
        E 22 bc 0a 51
        E 22 bc 0a 51
        E 22 bc 0a 4f
        E 22 bc 0a 4e
        E 22 bc 0a 4d
        E 22 bc 0a 4b
        E 22 bc 0a 49
        E 22 bc 0a 48
        E 22 bc 0a 46
        E 22 bc 0a 44
        E 22 bc 0a 42
        E 22 bc 0a 40
        E 22 bc 0a 3e
        E 22 bc 0a 3c
        E 22 bc 0a 3a
        E 22 bc 0a 38
        E 22 bc 0a 36
        E 22 bc 0a 33
        E 22 bc 0a 31
        E 22 bc 0a 2f
        E 22 bc 0a 2d
        E 22 bc 0a 2b
        E 22 bc 0a 29
        E 22 bc 0a 27
        E 22 bc 0a 25
        E 22 bc 0a 22
        E 22 bc 0a 20
        E 22 bc 0a 1e
        E 22 bc 0a 1c
        E 22 bc 0a 1a
        E 22 bc 0a 18
        E 22 bc 0a 16
        E 22 bc 0a 14
        E 22 bc 0a 12
        E 22 bc 0a 10
        E 22 bc 0a 0f
        E 22 bc 0a 0d
        E 22 bc 0a 0b
        E 22 bc 0a 0a
        E 22 bc 0a 09
        E 22 bc 0a 07
        E 22 bc 0a 07
        E 22 bc 0a 05
        E 22 bc 0a 04
        E 22 bc 0a 03
        E 22 bc 0a 02
        E 22 bc 0a 02
        E 22 bc 0a 01
        E 22 bc 0a 00
        E 22 bc 0a 00
        E 22 bc 0a 00
        E 22 bc 0a 00
        E 22 bc 0a 00
        E 22 bc 0a 00
        E 22 bc 0a 00
        E 22 bc 0a 00
        E 22 bc 0a 00
        E 22 bc 0a 01
        E 22 bc 0a 02
        E 22 bc 0a 02
        E 22 bc 0a 03
        E 22 bc 0a 04
        E 22 bc 0a 04
        E 22 bc 0a 06
        E 22 bc 0a 07
        E 22 bc 0a 08
        E 22 bc 0a 09
        E 22 bc 0a 0b
        E 22 bc 0a 0c
        E 22 bc 0a 0e
        E 22 bc 0a 10
        E 22 bc 0a 11
        E 22 bc 0a 13
        E 22 bc 0a 15
        E 22 bc 0a 17
        E 22 bc 0a 19
        E 22 bc 0a 1b
        E 22 bc 0a 1d
        E 22 bc 0a 1f
        E 22 bc 0a 21
        E 22 bc 0a 23
        E 22 bc 0a 25
        E 22 bc 0a 27
        E 22 bc 0a 2a
        E 22 bc 0a 2c
        E 36 bc 0a 40
        E 36 bc 0a 43
        E 36 bc 0a 46
        E 36 bc 0a 49
        E 36 bc 0a 4c
        E 36 bc 0a 4f
        E 36 bc 0a 52
        E 36 bc 0a 55
        E 36 bc 0a 58
        E 36 bc 0a 5b
        E 36 bc 0a 5e
        E 36 bc 0a 60
        E 36 bc 0a 63
        E 36 bc 0a 66
        E 36 bc 0a 68
        E 36 bc 0a 6a
        E 36 bc 0a 6d
        E 36 bc 0a 6f
        E 36 bc 0a 71
        E 36 bc 0a 73
        E 36 bc 0a 75
        E 36 bc 0a 76
        E 36 bc 0a 78
        E 36 bc 0a 79
        E 36 bc 0a 7a
        E 36 bc 0a 7b
        E 36 bc 0a 7c
        E 36 bc 0a 7d
        E 36 bc 0a 7e
        E 36 bc 0a 7e
        E 36 bc 0a 7f
        E 36 bc 0a 7f
        E 36 bc 0a 7f
        E 36 bc 0a 7f
        E 36 bc 0a 7f
        E 36 bc 0a 7e
        E 36 bc 0a 7e
        E 36 bc 0a 7d
        E 36 bc 0a 7c
        E 36 bc 0a 7b
        E 36 bc 0a 7a
        E 36 bc 0a 78
        E 36 bc 0a 77
        E 36 bc 0a 75
        E 36 bc 0a 74
        E 36 bc 0a 72
        E 36 bc 0a 70
        E 36 bc 0a 6e
        E 36 bc 0a 6c
        E 36 bc 0a 69
        E 36 bc 0a 67
        E 36 bc 0a 64
        E 36 bc 0a 62
        E 36 bc 0a 5f
        E 36 bc 0a 5c
        E 36 bc 0a 59
        E 36 bc 0a 57
        E 36 bc 0a 54
        E 36 bc 0a 51
        E 36 bc 0a 4e
        E 36 bc 0a 4a
        E 36 bc 0a 47
        E 36 bc 0a 44
        E 36 bc 0a 41
        E 36 bc 0a 3e
        E 36 bc 0a 3b
        E 36 bc 0a 38
        E 36 bc 0a 35
        E 36 bc 0a 31
        E 36 bc 0a 2e
        E 36 bc 0a 2b
        E 36 bc 0a 28
        E 36 bc 0a 26
        E 36 bc 0a 23
        E 36 bc 0a 20
        E 36 bc 0a 1d
        E 36 bc 0a 1b
        E 36 bc 0a 18
        E 36 bc 0a 16
        E 36 bc 0a 13
        E 36 bc 0a 11
        E 36 bc 0a 0f
        E 36 bc 0a 0d
        E 36 bc 0a 0b
        E 36 bc 0a 0a
        E 36 bc 0a 08
        E 36 bc 0a 07
        E 36 bc 0a 05
        E 36 bc 0a 04
        E 36 bc 0a 03
        E 36 bc 0a 02
        E 36 bc 0a 01
        E 36 bc 0a 01
        E 36 bc 0a 00
        E 36 bc 0a 00
        E 36 bc 0a 00
        E 36 bc 0a 00
        E 36 bc 0a 00
        E 36 bc 0a 01
        E 36 bc 0a 01
        E 36 bc 0a 02
        E 36 bc 0a 03
        E 36 bc 0a 04
        E 36 bc 0a 05
        E 36 bc 0a 06
        E 36 bc 0a 07
        E 36 bc 0a 09
        E 36 bc 0a 0a
        E 36 bc 0a 0c
        E 36 bc 0a 0e
        E 36 bc 0a 10
        E 36 bc 0a 12
        E 36 bc 0a 15
        E 36 bc 0a 17
        E 36 bc 0a 19
        E 36 bc 0a 1c
        E 36 bc 0a 1f
        E 36 bc 0a 21
        E 36 bc 0a 24
        E 36 bc 0a 27
        E 36 bc 0a 2a
        E 36 bc 0a 2d
        E 36 bc 0a 30
        E 36 bc 0a 33
        E 36 bc 0a 36
        E 36 bc 0a 39
        E 36 bc 0a 3c
        E 36 bc 0a 40
        E 4 bc 0a 39
        E 4 bc 0a 3c
        E 4 bc 0a 3f
        E 4 bc 0a 41
        E 4 bc 0a 44
        E 4 bc 0a 47
        E 4 bc 0a 49
        E 4 bc 0a 4c
        E 4 bc 0a 4f
        E 4 bc 0a 51
        E 4 bc 0a 54
        E 4 bc 0a 56
        E 4 bc 0a 59
        E 4 bc 0a 5b
        E 4 bc 0a 5d
        E 4 bc 0a 5f
        E 4 bc 0a 62
        E 4 bc 0a 63
        E 4 bc 0a 65
        E 4 bc 0a 67
        E 4 bc 0a 69
        E 4 bc 0a 6a
        E 4 bc 0a 6c
        E 4 bc 0a 6c
        E 4 bc 0a 6d
        E 4 bc 0a 6e
        E 4 bc 0a 6f
        E 4 bc 0a 70
        E 4 bc 0a 71
        E 4 bc 0a 71
        E 4 bc 0a 72
        E 4 bc 0a 72
        E 4 bc 0a 72
        E 4 bc 0a 72
        E 4 bc 0a 72
        E 4 bc 0a 71
        E 4 bc 0a 71
        E 4 bc 0a 70
        E 4 bc 0a 6f
        E 4 bc 0a 6e
        E 4 bc 0a 6d
        E 4 bc 0a 6c
        E 4 bc 0a 6b
        E 4 bc 0a 69
        E 4 bc 0a 68
        E 4 bc 0a 66
        E 4 bc 0a 64
        E 4 bc 0a 63
        E 4 bc 0a 61
        E 4 bc 0a 5e
        E 4 bc 0a 5c
        E 4 bc 0a 5a
        E 4 bc 0a 58
        E 4 bc 0a 55
        E 4 bc 0a 52
        E 4 bc 0a 50
        E 4 bc 0a 4e
        E 4 bc 0a 4b
        E 4 bc 0a 48
        E 4 bc 0a 46
        E 4 bc 0a 42
        E 4 bc 0a 3f
        E 4 bc 0a 3d
        E 4 bc 0a 3a
        E 4 bc 0a 37
        E 4 bc 0a 35
        E 4 bc 0a 32
        E 4 bc 0a 2f
        E 4 bc 0a 2c
        E 4 bc 0a 29
        E 4 bc 0a 26
        E 4 bc 0a 24
        E 4 bc 0a 22
        E 4 bc 0a 1f
        E 4 bc 0a 1c
        E 4 bc 0a 1a
        E 4 bc 0a 18
        E 4 bc 0a 15
        E 4 bc 0a 13
        E 4 bc 0a 11
        E 4 bc 0a 0f
        E 4 bc 0a 0d
        E 4 bc 0a 0b
        E 4 bc 0a 09
        E 4 bc 0a 09
        E 4 bc 0a 07
        E 4 bc 0a 06
        E 4 bc 0a 04
        E 4 bc 0a 03
        E 4 bc 0a 02
        E 4 bc 0a 01
        E 4 bc 0a 00
        E 4 bc 0a 00
        E 4 bc 0a 00
        E 4 bc 0a 00
        E 4 bc 0a 00
        E 4 bc 0a 00
        E 4 bc 0a 00
        E 4 bc 0a 00
        E 4 bc 0a 00
        E 4 bc 0a 01
        E 4 bc 0a 02
        E 4 bc 0a 03
        E 4 bc 0a 04
        E 4 bc 0a 05
        E 4 bc 0a 06
        E 4 bc 0a 08
        E 4 bc 0a 09
        E 4 bc 0a 0a
        E 4 bc 0a 0c
        E 4 bc 0a 0e
        E 4 bc 0a 10
        E 4 bc 0a 12
        E 4 bc 0a 14
        E 4 bc 0a 16
        E 4 bc 0a 19
        E 4 bc 0a 1b
        E 4 bc 0a 1d
        E 4 bc 0a 20
        E 4 bc 0a 23
        E 4 bc 0a 25
        E 4 bc 0a 28
        E 4 bc 0a 2b
        E 4 bc 0a 2d
        E 4 bc 0a 30
        E 4 bc 0a 33
        E 4 bc 0a 36
        E 4 bc 0a 39
        E 18 bc 0a 40
        E 18 bc 0a 43
        E 18 bc 0a 46
        E 18 bc 0a 49
        E 18 bc 0a 4c
        E 18 bc 0a 4f
        E 18 bc 0a 52
        E 18 bc 0a 55
        E 18 bc 0a 58
        E 18 bc 0a 5b
        E 18 bc 0a 5e
        E 18 bc 0a 60
        E 18 bc 0a 63
        E 18 bc 0a 66
        E 18 bc 0a 68
        E 18 bc 0a 6a
        E 18 bc 0a 6d
        E 18 bc 0a 6f
        E 18 bc 0a 71
        E 18 bc 0a 73
        E 18 bc 0a 75
        E 18 bc 0a 76
        E 18 bc 0a 78
        E 18 bc 0a 79
        E 18 bc 0a 7a
        E 18 bc 0a 7b
        E 18 bc 0a 7c
        E 18 bc 0a 7d
        E 18 bc 0a 7e
        E 18 bc 0a 7e
        E 18 bc 0a 7f
        E 18 bc 0a 7f
        E 18 bc 0a 7f
        E 18 bc 0a 7f
        E 18 bc 0a 7f
        E 18 bc 0a 7e
        E 18 bc 0a 7e
        E 18 bc 0a 7d
        E 18 bc 0a 7c
        E 18 bc 0a 7b
        E 18 bc 0a 7a
        E 18 bc 0a 78
        E 18 bc 0a 77
        E 18 bc 0a 75
        E 18 bc 0a 74
        E 18 bc 0a 72
        E 18 bc 0a 70
        E 18 bc 0a 6e
        E 18 bc 0a 6c
        E 18 bc 0a 69
        E 18 bc 0a 67
        E 18 bc 0a 64
        E 18 bc 0a 62
        E 18 bc 0a 5f
        E 18 bc 0a 5c
        E 18 bc 0a 59
        E 18 bc 0a 57
        E 18 bc 0a 54
        E 18 bc 0a 51
        E 18 bc 0a 4e
        E 18 bc 0a 4a
        E 18 bc 0a 47
        E 18 bc 0a 44
        E 18 bc 0a 41
        E 18 bc 0a 3e
        E 18 bc 0a 3b
        E 18 bc 0a 38
        E 18 bc 0a 35
        E 18 bc 0a 31
        E 18 bc 0a 2e
        E 18 bc 0a 2b
        E 18 bc 0a 28
        E 18 bc 0a 26
        E 18 bc 0a 23
        E 18 bc 0a 20
        E 18 bc 0a 1d
        E 18 bc 0a 1b
        E 18 bc 0a 18
        E 18 bc 0a 16
        E 18 bc 0a 13
        E 18 bc 0a 11
        E 18 bc 0a 0f
        E 18 bc 0a 0d
        E 18 bc 0a 0b
        E 18 bc 0a 0a
        E 18 bc 0a 08
        E 18 bc 0a 07
        E 18 bc 0a 05
        E 18 bc 0a 04
        E 18 bc 0a 03
        E 18 bc 0a 02
        E 18 bc 0a 01
        E 18 bc 0a 01
        E 18 bc 0a 00
        E 18 bc 0a 00
        E 18 bc 0a 00
        E 18 bc 0a 00
        E 18 bc 0a 00
        E 18 bc 0a 01
        E 18 bc 0a 01
        E 18 bc 0a 02
        E 18 bc 0a 03
        E 18 bc 0a 04
        E 18 bc 0a 05
        E 18 bc 0a 06
        E 18 bc 0a 07
        E 18 bc 0a 09
        E 18 bc 0a 0a
        E 18 bc 0a 0c
        E 18 bc 0a 0e
        E 18 bc 0a 10
        E 18 bc 0a 12
        E 18 bc 0a 15
        E 18 bc 0a 17
        E 18 bc 0a 19
        E 18 bc 0a 1c
        E 18 bc 0a 1f
        E 18 bc 0a 21
        E 18 bc 0a 24
        E 18 bc 0a 27
        E 18 bc 0a 2a
        E 18 bc 0a 2d
        E 18 bc 0a 30
        E 18 bc 0a 33
        E 18 bc 0a 36
        E 18 bc 0a 39
        E 18 bc 0a 3c
        E 18 bc 0a 40
        E 31 bc 0a 39
        E 31 bc 0a 3c
        E 31 bc 0a 3f
        E 31 bc 0a 41
        E 31 bc 0a 44
        E 31 bc 0a 47
        E 31 bc 0a 49
        E 31 bc 0a 4c
        E 31 bc 0a 4f
        E 31 bc 0a 51
        E 31 bc 0a 54
        E 31 bc 0a 56
        E 31 bc 0a 59
        E 31 bc 0a 5b
        E 31 bc 0a 5d
        E 31 bc 0a 5f
        E 31 bc 0a 62
        E 31 bc 0a 63
        E 31 bc 0a 65
        E 31 bc 0a 67
        E 31 bc 0a 69
        E 31 bc 0a 6a
        E 31 bc 0a 6c
        E 31 bc 0a 6c
        E 31 bc 0a 6d
        E 31 bc 0a 6e
        E 31 bc 0a 6f
        E 31 bc 0a 70
        E 31 bc 0a 71
        E 31 bc 0a 71
        E 31 bc 0a 72
        E 31 bc 0a 72
        E 31 bc 0a 72
        E 31 bc 0a 72
        E 31 bc 0a 72
        E 31 bc 0a 71
        E 31 bc 0a 71
        E 31 bc 0a 70
        E 31 bc 0a 6f
        E 31 bc 0a 6e
        E 31 bc 0a 6d
        E 31 bc 0a 6c
        E 31 bc 0a 6b
        E 31 bc 0a 69
        E 31 bc 0a 68
        E 31 bc 0a 66
        E 31 bc 0a 64
        E 31 bc 0a 63
        E 31 bc 0a 61
        E 31 bc 0a 5e
        E 31 bc 0a 5c
        E 31 bc 0a 5a
        E 31 bc 0a 58
        E 31 bc 0a 55
        E 31 bc 0a 52
        E 31 bc 0a 50
        E 31 bc 0a 4e
        E 31 bc 0a 4b
        E 31 bc 0a 48
        E 31 bc 0a 46
        E 31 bc 0a 42
        E 31 bc 0a 3f
        E 31 bc 0a 3d
        E 31 bc 0a 3a
        E 31 bc 0a 37
        E 31 bc 0a 35
        E 31 bc 0a 32
        E 31 bc 0a 2f
        E 31 bc 0a 2c
        E 31 bc 0a 29
        E 31 bc 0a 26
        E 31 bc 0a 24
        E 31 bc 0a 22
        E 31 bc 0a 1f
        E 31 bc 0a 1c
        E 31 bc 0a 1a
        E 31 bc 0a 18
        E 31 bc 0a 15
        E 31 bc 0a 13
        E 31 bc 0a 11
        E 31 bc 0a 0f
        E 31 bc 0a 0d
        E 31 bc 0a 0b
        E 31 bc 0a 09
        E 31 bc 0a 09
        E 31 bc 0a 07
        E 31 bc 0a 06
        E 31 bc 0a 04
        E 31 bc 0a 03
        E 31 bc 0a 02
        E 31 bc 0a 01
        E 31 bc 0a 00
        E 31 bc 0a 00
        E 31 bc 0a 00
        E 31 bc 0a 00
        E 31 bc 0a 00
        E 31 bc 0a 00
        E 31 bc 0a 00
        E 31 bc 0a 00
        E 31 bc 0a 00
        E 31 bc 0a 01
        E 31 bc 0a 02
        E 31 bc 0a 03
        E 31 bc 0a 04
        E 31 bc 0a 05
        E 31 bc 0a 06
        E 31 bc 0a 08
        E 31 bc 0a 09
        E 31 bc 0a 0a
        E 31 bc 0a 0c
        E 31 bc 0a 0e
        E 31 bc 0a 10
        E 31 bc 0a 12
        E 31 bc 0a 14
        E 31 bc 0a 16
        E 31 bc 0a 19
        E 31 bc 0a 1b
        E 31 bc 0a 1d
        E 31 bc 0a 20
        E 31 bc 0a 23
        E 31 bc 0a 25
        E 31 bc 0a 28
        E 31 bc 0a 2b
        E 31 bc 0a 2d
        E 31 bc 0a 30
        E 31 bc 0a 33
        E 31 bc 0a 36
        E 31 bc 0a 39
        E 22 bc 0a 20
        E 22 bc 0a 21
        E 22 bc 0a 23
        E 22 bc 0a 24
        E 22 bc 0a 26
        E 22 bc 0a 27
        E 22 bc 0a 29
        E 22 bc 0a 2a
        E 22 bc 0a 2c
        E 22 bc 0a 2d
        E 22 bc 0a 2f
        E 22 bc 0a 30
        E 22 bc 0a 31
        E 22 bc 0a 33
        E 22 bc 0a 34
        E 22 bc 0a 35
        E 22 bc 0a 36
        E 22 bc 0a 37
        E 22 bc 0a 38
        E 22 bc 0a 39
        E 22 bc 0a 3a
        E 22 bc 0a 3b
        E 22 bc 0a 3c
        E 22 bc 0a 3c
        E 22 bc 0a 3d
        E 22 bc 0a 3d
        E 22 bc 0a 3e
        E 22 bc 0a 3e
        E 22 bc 0a 3f
        E 22 bc 0a 3f
        E 22 bc 0a 3f
        E 22 bc 0a 3f
        E 22 bc 0a 3f
        E 22 bc 0a 3f
        E 22 bc 0a 3f
        E 22 bc 0a 3f
        E 22 bc 0a 3f
        E 22 bc 0a 3e
        E 22 bc 0a 3e
        E 22 bc 0a 3d
        E 22 bc 0a 3d
        E 22 bc 0a 3c
        E 22 bc 0a 3b
        E 22 bc 0a 3a
        E 22 bc 0a 3a
        E 22 bc 0a 39
        E 22 bc 0a 38
        E 22 bc 0a 37
        E 22 bc 0a 36
        E 22 bc 0a 34
        E 22 bc 0a 33
        E 22 bc 0a 32
        E 22 bc 0a 31
        E 22 bc 0a 2f
        E 22 bc 0a 2e
        E 22 bc 0a 2c
        E 22 bc 0a 2b
        E 22 bc 0a 2a
        E 22 bc 0a 28
        E 22 bc 0a 27
        E 22 bc 0a 25
        E 22 bc 0a 23
        E 22 bc 0a 22
        E 22 bc 0a 20
        E 22 bc 0a 1f
        E 22 bc 0a 1d
        E 22 bc 0a 1c
        E 22 bc 0a 1a
        E 22 bc 0a 18
        E 22 bc 0a 17
        E 22 bc 0a 15
        E 22 bc 0a 14
        E 22 bc 0a 13
        E 22 bc 0a 11
        E 22 bc 0a 10
        E 22 bc 0a 0e
        E 22 bc 0a 0d
        E 22 bc 0a 0c
        E 22 bc 0a 0b
        E 22 bc 0a 09
        E 22 bc 0a 08
        E 22 bc 0a 07
        E 22 bc 0a 06
        E 22 bc 0a 05
        E 22 bc 0a 05
        E 22 bc 0a 04
        E 22 bc 0a 03
        E 22 bc 0a 02
        E 22 bc 0a 02
        E 22 bc 0a 01
        E 22 bc 0a 01
        E 22 bc 0a 00
        E 22 bc 0a 00
        E 22 bc 0a 00
        E 22 bc 0a 00
        E 22 bc 0a 00
        E 22 bc 0a 00
        E 22 bc 0a 00
        E 22 bc 0a 00
        E 22 bc 0a 00
        E 22 bc 0a 01
        E 22 bc 0a 01
        E 22 bc 0a 02
        E 22 bc 0a 02
        E 22 bc 0a 03
        E 22 bc 0a 03
        E 22 bc 0a 04
        E 22 bc 0a 05
        E 22 bc 0a 06
        E 22 bc 0a 07
        E 22 bc 0a 08
        E 22 bc 0a 09
        E 22 bc 0a 0a
        E 22 bc 0a 0b
        E 22 bc 0a 0c
        E 22 bc 0a 0e
        E 22 bc 0a 0f
        E 22 bc 0a 10
        E 22 bc 0a 12
        E 22 bc 0a 13
        E 22 bc 0a 15
        E 22 bc 0a 16
        E 22 bc 0a 18
        E 22 bc 0a 19
        E 22 bc 0a 1b
        E 22 bc 0a 1c
        E 22 bc 0a 1e
        E 22 bc 0a 20
        E 22 bc 0a 20
        E 22 bc 0a 21
        E 22 bc 0a 23
        E 22 bc 0a 24
        E 22 bc 0a 26
        E 22 bc 0a 27
        E 22 bc 0a 29
        E 22 bc 0a 2a
        E 22 bc 0a 2c
        E 22 bc 0a 2d
        E 22 bc 0a 2f
        E 22 bc 0a 30
        E 22 bc 0a 31
        E 22 bc 0a 33
        E 22 bc 0a 34
        E 22 bc 0a 35
        E 22 bc 0a 36
        E 22 bc 0a 37
        E 22 bc 0a 38
        E 22 bc 0a 39
        E 22 bc 0a 3a
        E 22 bc 0a 3b
        E 22 bc 0a 3c
        E 22 bc 0a 3c
        E 22 bc 0a 3d
        E 22 bc 0a 3d
        E 22 bc 0a 3e
        E 22 bc 0a 3e
        E 22 bc 0a 3f
        E 22 bc 0a 3f
        E 22 bc 0a 3f
        E 22 bc 0a 3f
        E 22 bc 0a 3f
        E 22 bc 0a 3f
        E 22 bc 0a 3f
        E 22 bc 0a 3f
        E 22 bc 0a 3f
        E 22 bc 0a 3e
        E 22 bc 0a 3e
        E 22 bc 0a 3d
        E 22 bc 0a 3d
        E 22 bc 0a 3c
        E 22 bc 0a 3b
        E 22 bc 0a 3a
        E 22 bc 0a 3a
        E 22 bc 0a 39
        E 22 bc 0a 38
        E 22 bc 0a 37
        E 22 bc 0a 36
        E 22 bc 0a 34
        E 22 bc 0a 33
        E 22 bc 0a 32
        E 22 bc 0a 31
        E 22 bc 0a 2f
        E 22 bc 0a 2e
        E 22 bc 0a 2c
        E 22 bc 0a 2b
        E 22 bc 0a 2a
        E 22 bc 0a 28
        E 22 bc 0a 27
        E 22 bc 0a 25
        E 22 bc 0a 23
        E 22 bc 0a 22
        E 22 bc 0a 20
        E 22 bc 0a 1f
        E 22 bc 0a 1d
        E 22 bc 0a 1c
        E 22 bc 0a 1a
        E 22 bc 0a 18
        E 22 bc 0a 17
        E 22 bc 0a 15
        E 22 bc 0a 14
        E 22 bc 0a 13
        E 22 bc 0a 11
        E 22 bc 0a 10
        E 22 bc 0a 0e
        E 22 bc 0a 0d
        E 22 bc 0a 0c
        E 22 bc 0a 0b
        E 22 bc 0a 09
        E 22 bc 0a 08
        E 22 bc 0a 07
        E 22 bc 0a 06
        E 22 bc 0a 05
        E 22 bc 0a 05
        E 22 bc 0a 04
        E 22 bc 0a 03
        E 22 bc 0a 02
        E 22 bc 0a 02
        E 22 bc 0a 01
        E 22 bc 0a 01
        E 22 bc 0a 00
        E 22 bc 0a 00
        E 22 bc 0a 00
        E 22 bc 0a 00
        E 22 bc 0a 00
        E 22 bc 0a 00
        E 22 bc 0a 00
        E 22 bc 0a 00
        E 22 bc 0a 00
        E 22 bc 0a 01
        E 22 bc 0a 01
        E 22 bc 0a 02
        E 22 bc 0a 02
        E 22 bc 0a 03
        E 22 bc 0a 03
        E 22 bc 0a 04
        E 22 bc 0a 05
        E 22 bc 0a 06
        E 22 bc 0a 07
        E 22 bc 0a 08
        E 22 bc 0a 09
        E 22 bc 0a 0a
        E 22 bc 0a 0b
        E 22 bc 0a 0c
        E 22 bc 0a 0e
        E 22 bc 0a 0f
        E 22 bc 0a 10
        E 22 bc 0a 12
        E 22 bc 0a 13
        E 22 bc 0a 15
        E 22 bc 0a 16
        E 22 bc 0a 18
        E 22 bc 0a 19
        E 22 bc 0a 1b
        E 22 bc 0a 1c
        E 22 bc 0a 1e
        E 22 bc 0a 20
        E 45 bc 0a 2c
        E 45 bc 0a 2e
        E 45 bc 0a 31
        E 45 bc 0a 33
        E 45 bc 0a 35
        E 45 bc 0a 37
        E 45 bc 0a 39
        E 45 bc 0a 3b
        E 45 bc 0a 3d
        E 45 bc 0a 3f
        E 45 bc 0a 41
        E 45 bc 0a 43
        E 45 bc 0a 45
        E 45 bc 0a 47
        E 45 bc 0a 48
        E 45 bc 0a 4a
        E 45 bc 0a 4c
        E 45 bc 0a 4d
        E 45 bc 0a 4f
        E 45 bc 0a 50
        E 45 bc 0a 51
        E 45 bc 0a 52
        E 45 bc 0a 54
        E 45 bc 0a 54
        E 45 bc 0a 55
        E 45 bc 0a 56
        E 45 bc 0a 56
        E 45 bc 0a 57
        E 45 bc 0a 58
        E 45 bc 0a 58
        E 45 bc 0a 58
        E 45 bc 0a 58
        E 45 bc 0a 58
        E 45 bc 0a 58
        E 45 bc 0a 58
        E 45 bc 0a 58
        E 45 bc 0a 58
        E 45 bc 0a 57
        E 45 bc 0a 56
        E 45 bc 0a 56
        E 45 bc 0a 55
        E 45 bc 0a 54
        E 45 bc 0a 53
        E 45 bc 0a 51
        E 45 bc 0a 51
        E 45 bc 0a 4f
        E 45 bc 0a 4e
        E 45 bc 0a 4d
        E 45 bc 0a 4b
        E 45 bc 0a 49
        E 45 bc 0a 48
        E 45 bc 0a 46
        E 45 bc 0a 44
        E 45 bc 0a 42
        E 45 bc 0a 40
        E 45 bc 0a 3e
        E 45 bc 0a 3c
        E 45 bc 0a 3a
        E 45 bc 0a 38
        E 45 bc 0a 36
        E 45 bc 0a 33
        E 45 bc 0a 31
        E 45 bc 0a 2f
        E 45 bc 0a 2d
        E 45 bc 0a 2b
        E 45 bc 0a 29
        E 45 bc 0a 27
        E 45 bc 0a 25
        E 45 bc 0a 22
        E 45 bc 0a 20
        E 45 bc 0a 1e
        E 45 bc 0a 1c
        E 45 bc 0a 1a
        E 45 bc 0a 18
        E 45 bc 0a 16
        E 45 bc 0a 14
        E 45 bc 0a 12
        E 45 bc 0a 10
        E 45 bc 0a 0f
        E 45 bc 0a 0d
        E 45 bc 0a 0b
        E 45 bc 0a 0a
        E 45 bc 0a 09
        E 45 bc 0a 07
        E 45 bc 0a 07
        E 45 bc 0a 05
        E 45 bc 0a 04
        E 45 bc 0a 03
        E 45 bc 0a 02
        E 45 bc 0a 02
        E 45 bc 0a 01
        E 45 bc 0a 00
        E 45 bc 0a 00
        E 45 bc 0a 00
        E 45 bc 0a 00
        E 45 bc 0a 00
        E 45 bc 0a 00
        E 45 bc 0a 00
        E 45 bc 0a 00
        E 45 bc 0a 00
        E 45 bc 0a 01
        E 45 bc 0a 02
        E 45 bc 0a 02
        E 45 bc 0a 03
        E 45 bc 0a 04
        E 45 bc 0a 04
        E 45 bc 0a 06
        E 45 bc 0a 07
        E 45 bc 0a 08
        E 45 bc 0a 09
        E 45 bc 0a 0b
        E 45 bc 0a 0c
        E 45 bc 0a 0e
        E 45 bc 0a 10
        E 45 bc 0a 11
        E 45 bc 0a 13
        E 45 bc 0a 15
        E 45 bc 0a 17
        E 45 bc 0a 19
        E 45 bc 0a 1b
        E 45 bc 0a 1d
        E 45 bc 0a 1f
        E 45 bc 0a 21
        E 45 bc 0a 23
        E 45 bc 0a 25
        E 45 bc 0a 27
        E 45 bc 0a 2a
        E 45 bc 0a 2c
        E 40 bc 0a 33
        E 40 bc 0a 35
        E 40 bc 0a 37
        E 40 bc 0a 3a
        E 40 bc 0a 3c
        E 40 bc 0a 3f
        E 40 bc 0a 41
        E 40 bc 0a 44
        E 40 bc 0a 46
        E 40 bc 0a 48
        E 40 bc 0a 4b
        E 40 bc 0a 4c
        E 40 bc 0a 4f
        E 40 bc 0a 51
        E 40 bc 0a 53
        E 40 bc 0a 54
        E 40 bc 0a 57
        E 40 bc 0a 58
        E 40 bc 0a 5a
        E 40 bc 0a 5b
        E 40 bc 0a 5d
        E 40 bc 0a 5e
        E 40 bc 0a 5f
        E 40 bc 0a 60
        E 40 bc 0a 61
        E 40 bc 0a 62
        E 40 bc 0a 63
        E 40 bc 0a 63
        E 40 bc 0a 64
        E 40 bc 0a 64
        E 40 bc 0a 65
        E 40 bc 0a 65
        E 40 bc 0a 65
        E 40 bc 0a 65
        E 40 bc 0a 65
        E 40 bc 0a 64
        E 40 bc 0a 64
        E 40 bc 0a 63
        E 40 bc 0a 63
        E 40 bc 0a 62
        E 40 bc 0a 61
        E 40 bc 0a 5f
        E 40 bc 0a 5f
        E 40 bc 0a 5d
        E 40 bc 0a 5c
        E 40 bc 0a 5b
        E 40 bc 0a 59
        E 40 bc 0a 57
        E 40 bc 0a 56
        E 40 bc 0a 54
        E 40 bc 0a 52
        E 40 bc 0a 50
        E 40 bc 0a 4e
        E 40 bc 0a 4c
        E 40 bc 0a 49
        E 40 bc 0a 47
        E 40 bc 0a 45
        E 40 bc 0a 43
        E 40 bc 0a 40
        E 40 bc 0a 3e
        E 40 bc 0a 3b
        E 40 bc 0a 38
        E 40 bc 0a 36
        E 40 bc 0a 33
        E 40 bc 0a 31
        E 40 bc 0a 2f
        E 40 bc 0a 2c
        E 40 bc 0a 2a
        E 40 bc 0a 27
        E 40 bc 0a 24
        E 40 bc 0a 22
        E 40 bc 0a 1f
        E 40 bc 0a 1e
        E 40 bc 0a 1b
        E 40 bc 0a 19
        E 40 bc 0a 17
        E 40 bc 0a 15
        E 40 bc 0a 13
        E 40 bc 0a 11
        E 40 bc 0a 0f
        E 40 bc 0a 0d
        E 40 bc 0a 0b
        E 40 bc 0a 0a
        E 40 bc 0a 08
        E 40 bc 0a 07
        E 40 bc 0a 06
        E 40 bc 0a 05
        E 40 bc 0a 03
        E 40 bc 0a 03
        E 40 bc 0a 02
        E 40 bc 0a 01
        E 40 bc 0a 00
        E 40 bc 0a 00
        E 40 bc 0a 00
        E 40 bc 0a 00
        E 40 bc 0a 00
        E 40 bc 0a 00
        E 40 bc 0a 00
        E 40 bc 0a 00
        E 40 bc 0a 00
        E 40 bc 0a 01
        E 40 bc 0a 02
        E 40 bc 0a 03
        E 40 bc 0a 03
        E 40 bc 0a 04
        E 40 bc 0a 05
        E 40 bc 0a 07
        E 40 bc 0a 07
        E 40 bc 0a 09
        E 40 bc 0a 0b
        E 40 bc 0a 0c
        E 40 bc 0a 0e
        E 40 bc 0a 10
        E 40 bc 0a 12
        E 40 bc 0a 14
        E 40 bc 0a 16
        E 40 bc 0a 18
        E 40 bc 0a 1a
        E 40 bc 0a 1c
        E 40 bc 0a 1f
        E 40 bc 0a 21
        E 40 bc 0a 24
        E 40 bc 0a 26
        E 40 bc 0a 28
        E 40 bc 0a 2b
        E 40 bc 0a 2d
        E 40 bc 0a 2f
        E 40 bc 0a 33
        E 45 bc 0a 06
        E 45 bc 0a 06
        E 45 bc 0a 07
        E 45 bc 0a 07
        E 45 bc 0a 07
        E 45 bc 0a 07
        E 45 bc 0a 08
        E 45 bc 0a 08
        E 45 bc 0a 08
        E 45 bc 0a 09
        E 45 bc 0a 09
        E 45 bc 0a 09
        E 45 bc 0a 09
        E 45 bc 0a 0a
        E 45 bc 0a 0a
        E 45 bc 0a 0a
        E 45 bc 0a 0a
        E 45 bc 0a 0b
        E 45 bc 0a 0b
        E 45 bc 0a 0b
        E 45 bc 0a 0b
        E 45 bc 0a 0b
        E 45 bc 0a 0c
        E 45 bc 0a 0c
        E 45 bc 0a 0c
        E 45 bc 0a 0c
        E 45 bc 0a 0c
        E 45 bc 0a 0c
        E 45 bc 0a 0c
        E 45 bc 0a 0c
        E 45 bc 0a 0c
        E 45 bc 0a 0c
        E 45 bc 0a 0c
        E 45 bc 0a 0c
        E 45 bc 0a 0c
        E 45 bc 0a 0c
        E 45 bc 0a 0c
        E 45 bc 0a 0c
        E 45 bc 0a 0c
        E 45 bc 0a 0c
        E 45 bc 0a 0c
        E 45 bc 0a 0c
        E 45 bc 0a 0b
        E 45 bc 0a 0b
        E 45 bc 0a 0b
        E 45 bc 0a 0b
        E 45 bc 0a 0b
        E 45 bc 0a 0b
        E 45 bc 0a 0a
        E 45 bc 0a 0a
        E 45 bc 0a 0a
        E 45 bc 0a 0a
        E 45 bc 0a 09
        E 45 bc 0a 09
        E 45 bc 0a 09
        E 45 bc 0a 08
        E 45 bc 0a 08
        E 45 bc 0a 08
        E 45 bc 0a 08
        E 45 bc 0a 07
        E 45 bc 0a 07
        E 45 bc 0a 07
        E 45 bc 0a 06
        E 45 bc 0a 06
        E 45 bc 0a 06
        E 45 bc 0a 05
        E 45 bc 0a 05
        E 45 bc 0a 05
        E 45 bc 0a 04
        E 45 bc 0a 04
        E 45 bc 0a 04
        E 45 bc 0a 04
        E 45 bc 0a 03
        E 45 bc 0a 03
        E 45 bc 0a 03
        E 45 bc 0a 02
        E 45 bc 0a 02
        E 45 bc 0a 02
        E 45 bc 0a 02
        E 45 bc 0a 01
        E 45 bc 0a 01
        E 45 bc 0a 01
        E 45 bc 0a 01
        E 45 bc 0a 01
        E 45 bc 0a 01
        E 45 bc 0a 00
        E 45 bc 0a 00
        E 45 bc 0a 00
        E 45 bc 0a 00
        E 45 bc 0a 00
        E 45 bc 0a 00
        E 45 bc 0a 00
        E 45 bc 0a 00
        E 45 bc 0a 00
        E 45 bc 0a 00
        E 45 bc 0a 00
        E 45 bc 0a 00
        E 45 bc 0a 00
        E 45 bc 0a 00
        E 45 bc 0a 00
        E 45 bc 0a 00
        E 45 bc 0a 00
        E 45 bc 0a 00
        E 45 bc 0a 00
        E 45 bc 0a 00
        E 45 bc 0a 00
        E 45 bc 0a 00
        E 45 bc 0a 01
        E 45 bc 0a 01
        E 45 bc 0a 01
        E 45 bc 0a 01
        E 45 bc 0a 01
        E 45 bc 0a 02
        E 45 bc 0a 02
        E 45 bc 0a 02
        E 45 bc 0a 02
        E 45 bc 0a 03
        E 45 bc 0a 03
        E 45 bc 0a 03
        E 45 bc 0a 03
        E 45 bc 0a 04
        E 45 bc 0a 04
        E 45 bc 0a 04
        E 45 bc 0a 05
        E 45 bc 0a 05
        E 45 bc 0a 05
        E 45 bc 0a 06
        E 45 bc 0a 06
        E 40 bc 0a 19
        E 40 bc 0a 1a
        E 40 bc 0a 1c
        E 40 bc 0a 1d
        E 40 bc 0a 1e
        E 40 bc 0a 1f
        E 40 bc 0a 20
        E 40 bc 0a 22
        E 40 bc 0a 23
        E 40 bc 0a 24
        E 40 bc 0a 25
        E 40 bc 0a 26
        E 40 bc 0a 27
        E 40 bc 0a 28
        E 40 bc 0a 29
        E 40 bc 0a 2a
        E 40 bc 0a 2b
        E 40 bc 0a 2c
        E 40 bc 0a 2d
        E 40 bc 0a 2e
        E 40 bc 0a 2e
        E 40 bc 0a 2f
        E 40 bc 0a 30
        E 40 bc 0a 30
        E 40 bc 0a 30
        E 40 bc 0a 31
        E 40 bc 0a 31
        E 40 bc 0a 32
        E 40 bc 0a 32
        E 40 bc 0a 32
        E 40 bc 0a 32
        E 40 bc 0a 32
        E 40 bc 0a 32
        E 40 bc 0a 32
        E 40 bc 0a 32
        E 40 bc 0a 32
        E 40 bc 0a 32
        E 40 bc 0a 32
        E 40 bc 0a 31
        E 40 bc 0a 31
        E 40 bc 0a 30
        E 40 bc 0a 30
        E 40 bc 0a 2f
        E 40 bc 0a 2e
        E 40 bc 0a 2e
        E 40 bc 0a 2d
        E 40 bc 0a 2c
        E 40 bc 0a 2c
        E 40 bc 0a 2b
        E 40 bc 0a 2a
        E 40 bc 0a 29
        E 40 bc 0a 28
        E 40 bc 0a 27
        E 40 bc 0a 26
        E 40 bc 0a 24
        E 40 bc 0a 23
        E 40 bc 0a 22
        E 40 bc 0a 21
        E 40 bc 0a 20
        E 40 bc 0a 1f
        E 40 bc 0a 1d
        E 40 bc 0a 1c
        E 40 bc 0a 1b
        E 40 bc 0a 1a
        E 40 bc 0a 18
        E 40 bc 0a 17
        E 40 bc 0a 16
        E 40 bc 0a 15
        E 40 bc 0a 13
        E 40 bc 0a 12
        E 40 bc 0a 11
        E 40 bc 0a 10
        E 40 bc 0a 0f
        E 40 bc 0a 0e
        E 40 bc 0a 0c
        E 40 bc 0a 0b
        E 40 bc 0a 0a
        E 40 bc 0a 09
        E 40 bc 0a 08
        E 40 bc 0a 07
        E 40 bc 0a 06
        E 40 bc 0a 06
        E 40 bc 0a 05
        E 40 bc 0a 04
        E 40 bc 0a 04
        E 40 bc 0a 03
        E 40 bc 0a 02
        E 40 bc 0a 02
        E 40 bc 0a 01
        E 40 bc 0a 01
        E 40 bc 0a 00
        E 40 bc 0a 00
        E 40 bc 0a 00
        E 40 bc 0a 00
        E 40 bc 0a 00
        E 40 bc 0a 00
        E 40 bc 0a 00
        E 40 bc 0a 00
        E 40 bc 0a 00
        E 40 bc 0a 00
        E 40 bc 0a 00
        E 40 bc 0a 01
        E 40 bc 0a 01
        E 40 bc 0a 02
        E 40 bc 0a 02
        E 40 bc 0a 02
        E 40 bc 0a 03
        E 40 bc 0a 04
        E 40 bc 0a 04
        E 40 bc 0a 05
        E 40 bc 0a 06
        E 40 bc 0a 07
        E 40 bc 0a 08
        E 40 bc 0a 09
        E 40 bc 0a 0a
        E 40 bc 0a 0b
        E 40 bc 0a 0c
        E 40 bc 0a 0d
        E 40 bc 0a 0e
        E 40 bc 0a 0f
        E 40 bc 0a 10
        E 40 bc 0a 12
        E 40 bc 0a 13
        E 40 bc 0a 14
        E 40 bc 0a 15
        E 40 bc 0a 16
        E 40 bc 0a 18
        E 40 bc 0a 19
        E 22 bc 0a 2c
        E 22 bc 0a 2e
        E 22 bc 0a 31
        E 22 bc 0a 33
        E 22 bc 0a 35
        E 22 bc 0a 37
        E 22 bc 0a 39
        E 22 bc 0a 3b
        E 22 bc 0a 3d
        E 22 bc 0a 3f
        E 22 bc 0a 41
        E 22 bc 0a 43
        E 22 bc 0a 45
        E 22 bc 0a 47
        E 22 bc 0a 48
        E 22 bc 0a 4a
        E 22 bc 0a 4c
        E 22 bc 0a 4d
        E 22 bc 0a 4f
        E 22 bc 0a 50
        E 22 bc 0a 51
        E 22 bc 0a 52
        E 22 bc 0a 54
        E 22 bc 0a 54
        E 22 bc 0a 55
        E 22 bc 0a 56
        E 22 bc 0a 56
        E 22 bc 0a 57
        E 22 bc 0a 58
        E 22 bc 0a 58
        E 22 bc 0a 58
        E 22 bc 0a 58
        E 22 bc 0a 58
        E 22 bc 0a 58
        E 22 bc 0a 58
        E 22 bc 0a 58
        E 22 bc 0a 58
        E 22 bc 0a 57
        E 22 bc 0a 56
        E 22 bc 0a 56
        E 22 bc 0a 55
        E 22 bc 0a 54
        E 22 bc 0a 53
        E 22 bc 0a 51
        E 22 bc 0a 51
        E 22 bc 0a 4f
        E 22 bc 0a 4e
        E 22 bc 0a 4d
        E 22 bc 0a 4b
        E 22 bc 0a 49
        E 22 bc 0a 48
        E 22 bc 0a 46
        E 22 bc 0a 44
        E 22 bc 0a 42
        E 22 bc 0a 40
        E 22 bc 0a 3e
        E 22 bc 0a 3c
        E 22 bc 0a 3a
        E 22 bc 0a 38
        E 22 bc 0a 36
        E 22 bc 0a 33
        E 22 bc 0a 31
        E 22 bc 0a 2f
        E 22 bc 0a 2d
        E 22 bc 0a 2b
        E 22 bc 0a 29
        E 22 bc 0a 27
        E 22 bc 0a 25
        E 22 bc 0a 22
        E 22 bc 0a 20
        E 22 bc 0a 1e
        E 22 bc 0a 1c
        E 22 bc 0a 1a
        E 22 bc 0a 18
        E 22 bc 0a 16
        E 22 bc 0a 14
        E 22 bc 0a 12
        E 22 bc 0a 10
        E 22 bc 0a 0f
        E 22 bc 0a 0d
        E 22 bc 0a 0b
        E 22 bc 0a 0a
        E 22 bc 0a 09
        E 22 bc 0a 07
        E 22 bc 0a 07
        E 22 bc 0a 05
        E 22 bc 0a 04
        E 22 bc 0a 03
        E 22 bc 0a 02
        E 22 bc 0a 02
        E 22 bc 0a 01
        E 22 bc 0a 00
        E 22 bc 0a 00
        E 22 bc 0a 00
        E 22 bc 0a 00
        E 22 bc 0a 00
        E 22 bc 0a 00
        E 22 bc 0a 00
        E 22 bc 0a 00
        E 22 bc 0a 00
        E 22 bc 0a 01
        E 22 bc 0a 02
        E 22 bc 0a 02
        E 22 bc 0a 03
        E 22 bc 0a 04
        E 22 bc 0a 04
        E 22 bc 0a 06
        E 22 bc 0a 07
        E 22 bc 0a 08
        E 22 bc 0a 09
        E 22 bc 0a 0b
        E 22 bc 0a 0c
        E 22 bc 0a 0e
        E 22 bc 0a 10
        E 22 bc 0a 11
        E 22 bc 0a 13
        E 22 bc 0a 15
        E 22 bc 0a 17
        E 22 bc 0a 19
        E 22 bc 0a 1b
        E 22 bc 0a 1d
        E 22 bc 0a 1f
        E 22 bc 0a 21
        E 22 bc 0a 23
        E 22 bc 0a 25
        E 22 bc 0a 27
        E 22 bc 0a 2a
        E 22 bc 0a 2c
        E 36 bc 0a 40
        E 36 bc 0a 43
        E 36 bc 0a 46
        E 36 bc 0a 49
        E 36 bc 0a 4c
        E 36 bc 0a 4f
        E 36 bc 0a 52
        E 36 bc 0a 55
        E 36 bc 0a 58
        E 36 bc 0a 5b
        E 36 bc 0a 5e
        E 36 bc 0a 60
        E 36 bc 0a 63
        E 36 bc 0a 66
        E 36 bc 0a 68
        E 36 bc 0a 6a
        E 36 bc 0a 6d
        E 36 bc 0a 6f
        E 36 bc 0a 71
        E 36 bc 0a 73
        E 36 bc 0a 75
        E 36 bc 0a 76
        E 36 bc 0a 78
        E 36 bc 0a 79
        E 36 bc 0a 7a
        E 36 bc 0a 7b
        E 36 bc 0a 7c
        E 36 bc 0a 7d
        E 36 bc 0a 7e
        E 36 bc 0a 7e
        E 36 bc 0a 7f
        E 36 bc 0a 7f
        E 36 bc 0a 7f
        E 36 bc 0a 7f
        E 36 bc 0a 7f
        E 36 bc 0a 7e
        E 36 bc 0a 7e
        E 36 bc 0a 7d
        E 36 bc 0a 7c
        E 36 bc 0a 7b
        E 36 bc 0a 7a
        E 36 bc 0a 78
        E 36 bc 0a 77
        E 36 bc 0a 75
        E 36 bc 0a 74
        E 36 bc 0a 72
        E 36 bc 0a 70
        E 36 bc 0a 6e
        E 36 bc 0a 6c
        E 36 bc 0a 69
        E 36 bc 0a 67
        E 36 bc 0a 64
        E 36 bc 0a 62
        E 36 bc 0a 5f
        E 36 bc 0a 5c
        E 36 bc 0a 59
        E 36 bc 0a 57
        E 36 bc 0a 54
        E 36 bc 0a 51
        E 36 bc 0a 4e
        E 36 bc 0a 4a
        E 36 bc 0a 47
        E 36 bc 0a 44
        E 36 bc 0a 41
        E 36 bc 0a 3e
        E 36 bc 0a 3b
        E 36 bc 0a 38
        E 36 bc 0a 35
        E 36 bc 0a 31
        E 36 bc 0a 2e
        E 36 bc 0a 2b
        E 36 bc 0a 28
        E 36 bc 0a 26
        E 36 bc 0a 23
        E 36 bc 0a 20
        E 36 bc 0a 1d
        E 36 bc 0a 1b
        E 36 bc 0a 18
        E 36 bc 0a 16
        E 36 bc 0a 13
        E 36 bc 0a 11
        E 36 bc 0a 0f
        E 36 bc 0a 0d
        E 36 bc 0a 0b
        E 36 bc 0a 0a
        E 36 bc 0a 08
        E 36 bc 0a 07
        E 36 bc 0a 05
        E 36 bc 0a 04
        E 36 bc 0a 03
        E 36 bc 0a 02
        E 36 bc 0a 01
        E 36 bc 0a 01
        E 36 bc 0a 00
        E 36 bc 0a 00
        E 36 bc 0a 00
        E 36 bc 0a 00
        E 36 bc 0a 00
        E 36 bc 0a 01
        E 36 bc 0a 01
        E 36 bc 0a 02
        E 36 bc 0a 03
        E 36 bc 0a 04
        E 36 bc 0a 05
        E 36 bc 0a 06
        E 36 bc 0a 07
        E 36 bc 0a 09
        E 36 bc 0a 0a
        E 36 bc 0a 0c
        E 36 bc 0a 0e
        E 36 bc 0a 10
        E 36 bc 0a 12
        E 36 bc 0a 15
        E 36 bc 0a 17
        E 36 bc 0a 19
        E 36 bc 0a 1c
        E 36 bc 0a 1f
        E 36 bc 0a 21
        E 36 bc 0a 24
        E 36 bc 0a 27
        E 36 bc 0a 2a
        E 36 bc 0a 2d
        E 36 bc 0a 30
        E 36 bc 0a 33
        E 36 bc 0a 36
        E 36 bc 0a 39
        E 36 bc 0a 3c
        E 36 bc 0a 40
        E 4 bc 0a 39
        E 4 bc 0a 3c
        E 4 bc 0a 3f
        E 4 bc 0a 41
        E 4 bc 0a 44
        E 4 bc 0a 47
        E 4 bc 0a 49
        E 4 bc 0a 4c
        E 4 bc 0a 4f
        E 4 bc 0a 51
        E 4 bc 0a 54
        E 4 bc 0a 56
        E 4 bc 0a 59
        E 4 bc 0a 5b
        E 4 bc 0a 5d
        E 4 bc 0a 5f
        E 4 bc 0a 62
        E 4 bc 0a 63
        E 4 bc 0a 65
        E 4 bc 0a 67
        E 4 bc 0a 69
        E 4 bc 0a 6a
        E 4 bc 0a 6c
        E 4 bc 0a 6c
        E 4 bc 0a 6d
        E 4 bc 0a 6e
        E 4 bc 0a 6f
        E 4 bc 0a 70
        E 4 bc 0a 71
        E 4 bc 0a 71
        E 4 bc 0a 72
        E 4 bc 0a 72
        E 4 bc 0a 72
        E 4 bc 0a 72
        E 4 bc 0a 72
        E 4 bc 0a 71
        E 4 bc 0a 71
        E 4 bc 0a 70
        E 4 bc 0a 6f
        E 4 bc 0a 6e
        E 4 bc 0a 6d
        E 4 bc 0a 6c
        E 4 bc 0a 6b
        E 4 bc 0a 69
        E 4 bc 0a 68
        E 4 bc 0a 66
        E 4 bc 0a 64
        E 4 bc 0a 63
        E 4 bc 0a 61
        E 4 bc 0a 5e
        E 4 bc 0a 5c
        E 4 bc 0a 5a
        E 4 bc 0a 58
        E 4 bc 0a 55
        E 4 bc 0a 52
        E 4 bc 0a 50
        E 4 bc 0a 4e
        E 4 bc 0a 4b
        E 4 bc 0a 48
        E 4 bc 0a 46
        E 4 bc 0a 42
        E 4 bc 0a 3f
        E 4 bc 0a 3d
        E 4 bc 0a 3a
        E 4 bc 0a 37
        E 4 bc 0a 35
        E 4 bc 0a 32
        E 4 bc 0a 2f
        E 4 bc 0a 2c
        E 4 bc 0a 29
        E 4 bc 0a 26
        E 4 bc 0a 24
        E 4 bc 0a 22
        E 4 bc 0a 1f
        E 4 bc 0a 1c
        E 4 bc 0a 1a
        E 4 bc 0a 18
        E 4 bc 0a 15
        E 4 bc 0a 13
        E 4 bc 0a 11
        E 4 bc 0a 0f
        E 4 bc 0a 0d
        E 4 bc 0a 0b
        E 4 bc 0a 09
        E 4 bc 0a 09
        E 4 bc 0a 07
        E 4 bc 0a 06
        E 4 bc 0a 04
        E 4 bc 0a 03
        E 4 bc 0a 02
        E 4 bc 0a 01
        E 4 bc 0a 00
        E 4 bc 0a 00
        E 4 bc 0a 00
        E 4 bc 0a 00
        E 4 bc 0a 00
        E 4 bc 0a 00
        E 4 bc 0a 00
        E 4 bc 0a 00
        E 4 bc 0a 00
        E 4 bc 0a 01
        E 4 bc 0a 02
        E 4 bc 0a 03
        E 4 bc 0a 04
        E 4 bc 0a 05
        E 4 bc 0a 06
        E 4 bc 0a 08
        E 4 bc 0a 09
        E 4 bc 0a 0a
        E 4 bc 0a 0c
        E 4 bc 0a 0e
        E 4 bc 0a 10
        E 4 bc 0a 12
        E 4 bc 0a 14
        E 4 bc 0a 16
        E 4 bc 0a 19
        E 4 bc 0a 1b
        E 4 bc 0a 1d
        E 4 bc 0a 20
        E 4 bc 0a 23
        E 4 bc 0a 25
        E 4 bc 0a 28
        E 4 bc 0a 2b
        E 4 bc 0a 2d
        E 4 bc 0a 30
        E 4 bc 0a 33
        E 4 bc 0a 36
        E 4 bc 0a 39
        E 18 bc 0a 40
        E 18 bc 0a 43
        E 18 bc 0a 46
        E 18 bc 0a 49
        E 18 bc 0a 4c
        E 18 bc 0a 4f
        E 18 bc 0a 52
        E 18 bc 0a 55
        E 18 bc 0a 58
        E 18 bc 0a 5b
        E 18 bc 0a 5e
        E 18 bc 0a 60
        E 18 bc 0a 63
        E 18 bc 0a 66
        E 18 bc 0a 68
        E 18 bc 0a 6a
        E 18 bc 0a 6d
        E 18 bc 0a 6f
        E 18 bc 0a 71
        E 18 bc 0a 73
        E 18 bc 0a 75
        E 18 bc 0a 76
        E 18 bc 0a 78
        E 18 bc 0a 79
        E 18 bc 0a 7a
        E 18 bc 0a 7b
        E 18 bc 0a 7c
        E 18 bc 0a 7d
        E 18 bc 0a 7e
        E 18 bc 0a 7e
        E 18 bc 0a 7f
        E 18 bc 0a 7f
        E 18 bc 0a 7f
        E 18 bc 0a 7f
        E 18 bc 0a 7f
        E 18 bc 0a 7e
        E 18 bc 0a 7e
        E 18 bc 0a 7d
        E 18 bc 0a 7c
        E 18 bc 0a 7b
        E 18 bc 0a 7a
        E 18 bc 0a 78
        E 18 bc 0a 77
        E 18 bc 0a 75
        E 18 bc 0a 74
        E 18 bc 0a 72
        E 18 bc 0a 70
        E 18 bc 0a 6e
        E 18 bc 0a 6c
        E 18 bc 0a 69
        E 18 bc 0a 67
        E 18 bc 0a 64
        E 18 bc 0a 62
        E 18 bc 0a 5f
        E 18 bc 0a 5c
        E 18 bc 0a 59
        E 18 bc 0a 57
        E 18 bc 0a 54
        E 18 bc 0a 51
        E 18 bc 0a 4e
        E 18 bc 0a 4a
        E 18 bc 0a 47
        E 18 bc 0a 44
        E 18 bc 0a 41
        E 18 bc 0a 3e
        E 18 bc 0a 3b
        E 18 bc 0a 38
        E 18 bc 0a 35
        E 18 bc 0a 31
        E 18 bc 0a 2e
        E 18 bc 0a 2b
        E 18 bc 0a 28
        E 18 bc 0a 26
        E 18 bc 0a 23
        E 18 bc 0a 20
        E 18 bc 0a 1d
        E 18 bc 0a 1b
        E 18 bc 0a 18
        E 18 bc 0a 16
        E 18 bc 0a 13
        E 18 bc 0a 11
        E 18 bc 0a 0f
        E 18 bc 0a 0d
        E 18 bc 0a 0b
        E 18 bc 0a 0a
        E 18 bc 0a 08
        E 18 bc 0a 07
        E 18 bc 0a 05
        E 18 bc 0a 04
        E 18 bc 0a 03
        E 18 bc 0a 02
        E 18 bc 0a 01
        E 18 bc 0a 01
        E 18 bc 0a 00
        E 18 bc 0a 00
        E 18 bc 0a 00
        E 18 bc 0a 00
        E 18 bc 0a 00
        E 18 bc 0a 01
        E 18 bc 0a 01
        E 18 bc 0a 02
        E 18 bc 0a 03
        E 18 bc 0a 04
        E 18 bc 0a 05
        E 18 bc 0a 06
        E 18 bc 0a 07
        E 18 bc 0a 09
        E 18 bc 0a 0a
        E 18 bc 0a 0c
        E 18 bc 0a 0e
        E 18 bc 0a 10
        E 18 bc 0a 12
        E 18 bc 0a 15
        E 18 bc 0a 17
        E 18 bc 0a 19
        E 18 bc 0a 1c
        E 18 bc 0a 1f
        E 18 bc 0a 21
        E 18 bc 0a 24
        E 18 bc 0a 27
        E 18 bc 0a 2a
        E 18 bc 0a 2d
        E 18 bc 0a 30
        E 18 bc 0a 33
        E 18 bc 0a 36
        E 18 bc 0a 39
        E 18 bc 0a 3c
        E 18 bc 0a 40
        E 31 bc 0a 39
        E 31 bc 0a 3c
        E 31 bc 0a 3f
        E 31 bc 0a 41
        E 31 bc 0a 44
        E 31 bc 0a 47
        E 31 bc 0a 49
        E 31 bc 0a 4c
        E 31 bc 0a 4f
        E 31 bc 0a 51
        E 31 bc 0a 54
        E 31 bc 0a 56
        E 31 bc 0a 59
        E 31 bc 0a 5b
        E 31 bc 0a 5d
        E 31 bc 0a 5f
        E 31 bc 0a 62
        E 31 bc 0a 63
        E 31 bc 0a 65
        E 31 bc 0a 67
        E 31 bc 0a 69
        E 31 bc 0a 6a
        E 31 bc 0a 6c
        E 31 bc 0a 6c
        E 31 bc 0a 6d
        E 31 bc 0a 6e
        E 31 bc 0a 6f
        E 31 bc 0a 70
        E 31 bc 0a 71
        E 31 bc 0a 71
        E 31 bc 0a 72
        E 31 bc 0a 72
        E 31 bc 0a 72
        E 31 bc 0a 72
        E 31 bc 0a 72
        E 31 bc 0a 71
        E 31 bc 0a 71
        E 31 bc 0a 70
        E 31 bc 0a 6f
        E 31 bc 0a 6e
        E 31 bc 0a 6d
        E 31 bc 0a 6c
        E 31 bc 0a 6b
        E 31 bc 0a 69
        E 31 bc 0a 68
        E 31 bc 0a 66
        E 31 bc 0a 64
        E 31 bc 0a 63
        E 31 bc 0a 61
        E 31 bc 0a 5e
        E 31 bc 0a 5c
        E 31 bc 0a 5a
        E 31 bc 0a 58
        E 31 bc 0a 55
        E 31 bc 0a 52
        E 31 bc 0a 50
        E 31 bc 0a 4e
        E 31 bc 0a 4b
        E 31 bc 0a 48
        E 31 bc 0a 46
        E 31 bc 0a 42
        E 31 bc 0a 3f
        E 31 bc 0a 3d
        E 31 bc 0a 3a
        E 31 bc 0a 37
        E 31 bc 0a 35
        E 31 bc 0a 32
        E 31 bc 0a 2f
        E 31 bc 0a 2c
        E 31 bc 0a 29
        E 31 bc 0a 26
        E 31 bc 0a 24
        E 31 bc 0a 22
        E 31 bc 0a 1f
        E 31 bc 0a 1c
        E 31 bc 0a 1a
        E 31 bc 0a 18
        E 31 bc 0a 15
        E 31 bc 0a 13
        E 31 bc 0a 11
        E 31 bc 0a 0f
        E 31 bc 0a 0d
        E 31 bc 0a 0b
        E 31 bc 0a 09
        E 31 bc 0a 09
        E 31 bc 0a 07
        E 31 bc 0a 06
        E 31 bc 0a 04
        E 31 bc 0a 03
        E 31 bc 0a 02
        E 31 bc 0a 01
        E 31 bc 0a 00
        E 31 bc 0a 00
        E 31 bc 0a 00
        E 31 bc 0a 00
        E 31 bc 0a 00
        E 31 bc 0a 00
        E 31 bc 0a 00
        E 31 bc 0a 00
        E 31 bc 0a 00
        E 31 bc 0a 01
        E 31 bc 0a 02
        E 31 bc 0a 03
        E 31 bc 0a 04
        E 31 bc 0a 05
        E 31 bc 0a 06
        E 31 bc 0a 08
        E 31 bc 0a 09
        E 31 bc 0a 0a
        E 31 bc 0a 0c
        E 31 bc 0a 0e
        E 31 bc 0a 10
        E 31 bc 0a 12
        E 31 bc 0a 14
        E 31 bc 0a 16
        E 31 bc 0a 19
        E 31 bc 0a 1b
        E 31 bc 0a 1d
        E 31 bc 0a 20
        E 31 bc 0a 23
        E 31 bc 0a 25
        E 31 bc 0a 28
        E 31 bc 0a 2b
        E 31 bc 0a 2d
        E 31 bc 0a 30
        E 31 bc 0a 33
        E 31 bc 0a 36
        E 31 bc 0a 39
        E 22 bc 0a 20
        E 22 bc 0a 21
        E 22 bc 0a 23
        E 22 bc 0a 24
        E 22 bc 0a 26
        E 22 bc 0a 27
        E 22 bc 0a 29
        E 22 bc 0a 2a
        E 22 bc 0a 2c
        E 22 bc 0a 2d
        E 22 bc 0a 2f
        E 22 bc 0a 30
        E 22 bc 0a 31
        E 22 bc 0a 33
        E 22 bc 0a 34
        E 22 bc 0a 35
        E 22 bc 0a 36
        E 22 bc 0a 37
        E 22 bc 0a 38
        E 22 bc 0a 39
        E 22 bc 0a 3a
        E 22 bc 0a 3b
        E 22 bc 0a 3c
        E 22 bc 0a 3c
        E 22 bc 0a 3d
        E 22 bc 0a 3d
        E 22 bc 0a 3e
        E 22 bc 0a 3e
        E 22 bc 0a 3f
        E 22 bc 0a 3f
        E 22 bc 0a 3f
        E 22 bc 0a 3f
        E 22 bc 0a 3f
        E 22 bc 0a 3f
        E 22 bc 0a 3f
        E 22 bc 0a 3f
        E 22 bc 0a 3f
        E 22 bc 0a 3e
        E 22 bc 0a 3e
        E 22 bc 0a 3d
        E 22 bc 0a 3d
        E 22 bc 0a 3c
        E 22 bc 0a 3b
        E 22 bc 0a 3a
        E 22 bc 0a 3a
        E 22 bc 0a 39
        E 22 bc 0a 38
        E 22 bc 0a 37
        E 22 bc 0a 36
        E 22 bc 0a 34
        E 22 bc 0a 33
        E 22 bc 0a 32
        E 22 bc 0a 31
        E 22 bc 0a 2f
        E 22 bc 0a 2e
        E 22 bc 0a 2c
        E 22 bc 0a 2b
        E 22 bc 0a 2a
        E 22 bc 0a 28
        E 22 bc 0a 27
        E 22 bc 0a 25
        E 22 bc 0a 23
        E 22 bc 0a 22
        E 22 bc 0a 20
        E 22 bc 0a 1f
        E 22 bc 0a 1d
        E 22 bc 0a 1c
        E 22 bc 0a 1a
        E 22 bc 0a 18
        E 22 bc 0a 17
        E 22 bc 0a 15
        E 22 bc 0a 14
        E 22 bc 0a 13
        E 22 bc 0a 11
        E 22 bc 0a 10
        E 22 bc 0a 0e
        E 22 bc 0a 0d
        E 22 bc 0a 0c
        E 22 bc 0a 0b
        E 22 bc 0a 09
        E 22 bc 0a 08
        E 22 bc 0a 07
        E 22 bc 0a 06
        E 22 bc 0a 05
        E 22 bc 0a 05
        E 22 bc 0a 04
        E 22 bc 0a 03
        E 22 bc 0a 02
        E 22 bc 0a 02
        E 22 bc 0a 01
        E 22 bc 0a 01
        E 22 bc 0a 00
        E 22 bc 0a 00
        E 22 bc 0a 00
        E 22 bc 0a 00
        E 22 bc 0a 00
        E 22 bc 0a 00
        E 22 bc 0a 00
        E 22 bc 0a 00
        E 22 bc 0a 00
        E 22 bc 0a 01
        E 22 bc 0a 01
        E 22 bc 0a 02
        E 22 bc 0a 02
        E 22 bc 0a 03
        E 22 bc 0a 03
        E 22 bc 0a 04
        E 22 bc 0a 05
        E 22 bc 0a 06
        E 22 bc 0a 07
        E 22 bc 0a 08
        E 22 bc 0a 09
        E 22 bc 0a 0a
        E 22 bc 0a 0b
        E 22 bc 0a 0c
        E 22 bc 0a 0e
        E 22 bc 0a 0f
        E 22 bc 0a 10
        E 22 bc 0a 12
        E 22 bc 0a 13
        E 22 bc 0a 15
        E 22 bc 0a 16
        E 22 bc 0a 18
        E 22 bc 0a 19
        E 22 bc 0a 1b
        E 22 bc 0a 1c
        E 22 bc 0a 1e
        E 22 bc 0a 20
        E 22 bc 0a 20
        E 22 bc 0a 21
        E 22 bc 0a 23
        E 22 bc 0a 24
        E 22 bc 0a 26
        E 22 bc 0a 27
        E 22 bc 0a 29
        E 22 bc 0a 2a
        E 22 bc 0a 2c
        E 22 bc 0a 2d
        E 22 bc 0a 2f
        E 22 bc 0a 30
        E 22 bc 0a 31
        E 22 bc 0a 33
        E 22 bc 0a 34
        E 22 bc 0a 35
        E 22 bc 0a 36
        E 22 bc 0a 37
        E 22 bc 0a 38
        E 22 bc 0a 39
        E 22 bc 0a 3a
        E 22 bc 0a 3b
        E 22 bc 0a 3c
        E 22 bc 0a 3c
        E 22 bc 0a 3d
        E 22 bc 0a 3d
        E 22 bc 0a 3e
        E 22 bc 0a 3e
        E 22 bc 0a 3f
        E 22 bc 0a 3f
        E 22 bc 0a 3f
        E 22 bc 0a 3f
        E 22 bc 0a 3f
        E 22 bc 0a 3f
        E 22 bc 0a 3f
        E 22 bc 0a 3f
        E 22 bc 0a 3f
        E 22 bc 0a 3e
        E 22 bc 0a 3e
        E 22 bc 0a 3d
        E 22 bc 0a 3d
        E 22 bc 0a 3c
        E 22 bc 0a 3b
        E 22 bc 0a 3a
        E 22 bc 0a 3a
        E 22 bc 0a 39
        E 22 bc 0a 38
        E 22 bc 0a 37
        E 22 bc 0a 36
        E 22 bc 0a 34
        E 22 bc 0a 33
        E 22 bc 0a 32
        E 22 bc 0a 31
        E 22 bc 0a 2f
        E 22 bc 0a 2e
        E 22 bc 0a 2c
        E 22 bc 0a 2b
        E 22 bc 0a 2a
        E 22 bc 0a 28
        E 22 bc 0a 27
        E 22 bc 0a 25
        E 22 bc 0a 23
        E 22 bc 0a 22
        E 22 bc 0a 20
        E 22 bc 0a 1f
        E 22 bc 0a 1d
        E 22 bc 0a 1c
        E 22 bc 0a 1a
        E 22 bc 0a 18
        E 22 bc 0a 17
        E 22 bc 0a 15
        E 22 bc 0a 14
        E 22 bc 0a 13
        E 22 bc 0a 11
        E 22 bc 0a 10
        E 22 bc 0a 0e
        E 22 bc 0a 0d
        E 22 bc 0a 0c
        E 22 bc 0a 0b
        E 22 bc 0a 09
        E 22 bc 0a 08
        E 22 bc 0a 07
        E 22 bc 0a 06
        E 22 bc 0a 05
        E 22 bc 0a 05
        E 22 bc 0a 04
        E 22 bc 0a 03
        E 22 bc 0a 02
        E 22 bc 0a 02
        E 22 bc 0a 01
        E 22 bc 0a 01
        E 22 bc 0a 00
        E 22 bc 0a 00
        E 22 bc 0a 00
        E 22 bc 0a 00
        E 22 bc 0a 00
        E 22 bc 0a 00
        E 22 bc 0a 00
        E 22 bc 0a 00
        E 22 bc 0a 00
        E 22 bc 0a 01
        E 22 bc 0a 01
        E 22 bc 0a 02
        E 22 bc 0a 02
        E 22 bc 0a 03
        E 22 bc 0a 03
        E 22 bc 0a 04
        E 22 bc 0a 05
        E 22 bc 0a 06
        E 22 bc 0a 07
        E 22 bc 0a 08
        E 22 bc 0a 09
        E 22 bc 0a 0a
        E 22 bc 0a 0b
        E 22 bc 0a 0c
        E 22 bc 0a 0e
        E 22 bc 0a 0f
        E 22 bc 0a 10
        E 22 bc 0a 12
        E 22 bc 0a 13
        E 22 bc 0a 15
        E 22 bc 0a 16
        E 22 bc 0a 18
        E 22 bc 0a 19
        E 22 bc 0a 1b
        E 22 bc 0a 1c
        E 22 bc 0a 1e
        E 22 bc 0a 20
        E 45 bc 0a 2c
        E 45 bc 0a 2e
        E 45 bc 0a 31
        E 45 bc 0a 33
        E 45 bc 0a 35
        E 45 bc 0a 37
        E 45 bc 0a 39
        E 45 bc 0a 3b
        E 45 bc 0a 3d
        E 45 bc 0a 3f
        E 45 bc 0a 41
        E 45 bc 0a 43
        E 45 bc 0a 45
        E 45 bc 0a 47
        E 45 bc 0a 48
        E 45 bc 0a 4a
        E 45 bc 0a 4c
        E 45 bc 0a 4d
        E 45 bc 0a 4f
        E 45 bc 0a 50
        E 45 bc 0a 51
        E 45 bc 0a 52
        E 45 bc 0a 54
        E 45 bc 0a 54
        E 45 bc 0a 55
        E 45 bc 0a 56
        E 45 bc 0a 56
        E 45 bc 0a 57
        E 45 bc 0a 58
        E 45 bc 0a 58
        E 45 bc 0a 58
        E 45 bc 0a 58
        E 45 bc 0a 58
        E 45 bc 0a 58
        E 45 bc 0a 58
        E 45 bc 0a 58
        E 45 bc 0a 58
        E 45 bc 0a 57
        E 45 bc 0a 56
        E 45 bc 0a 56
        E 45 bc 0a 55
        E 45 bc 0a 54
        E 45 bc 0a 53
        E 45 bc 0a 51
        E 45 bc 0a 51
        E 45 bc 0a 4f
        E 45 bc 0a 4e
        E 45 bc 0a 4d
        E 45 bc 0a 4b
        E 45 bc 0a 49
        E 45 bc 0a 48
        E 45 bc 0a 46
        E 45 bc 0a 44
        E 45 bc 0a 42
        E 45 bc 0a 40
        E 45 bc 0a 3e
        E 45 bc 0a 3c
        E 45 bc 0a 3a
        E 45 bc 0a 38
        E 45 bc 0a 36
        E 45 bc 0a 33
        E 45 bc 0a 31
        E 45 bc 0a 2f
        E 45 bc 0a 2d
        E 45 bc 0a 2b
        E 45 bc 0a 29
        E 45 bc 0a 27
        E 45 bc 0a 25
        E 45 bc 0a 22
        E 45 bc 0a 20
        E 45 bc 0a 1e
        E 45 bc 0a 1c
        E 45 bc 0a 1a
        E 45 bc 0a 18
        E 45 bc 0a 16
        E 45 bc 0a 14
        E 45 bc 0a 12
        E 45 bc 0a 10
        E 45 bc 0a 0f
        E 45 bc 0a 0d
        E 45 bc 0a 0b
        E 45 bc 0a 0a
        E 45 bc 0a 09
        E 45 bc 0a 07
        E 45 bc 0a 07
        E 45 bc 0a 05
        E 45 bc 0a 04
        E 45 bc 0a 03
        E 45 bc 0a 02
        E 45 bc 0a 02
        E 45 bc 0a 01
        E 45 bc 0a 00
        E 45 bc 0a 00
        E 45 bc 0a 00
        E 45 bc 0a 00
        E 45 bc 0a 00
        E 45 bc 0a 00
        E 45 bc 0a 00
        E 45 bc 0a 00
        E 45 bc 0a 00
        E 45 bc 0a 01
        E 45 bc 0a 02
        E 45 bc 0a 02
        E 45 bc 0a 03
        E 45 bc 0a 04
        E 45 bc 0a 04
        E 45 bc 0a 06
        E 45 bc 0a 07
        E 45 bc 0a 08
        E 45 bc 0a 09
        E 45 bc 0a 0b
        E 45 bc 0a 0c
        E 45 bc 0a 0e
        E 45 bc 0a 10
        E 45 bc 0a 11
        E 45 bc 0a 13
        E 45 bc 0a 15
        E 45 bc 0a 17
        E 45 bc 0a 19
        E 45 bc 0a 1b
        E 45 bc 0a 1d
        E 45 bc 0a 1f
        E 45 bc 0a 21
        E 45 bc 0a 23
        E 45 bc 0a 25
        E 45 bc 0a 27
        E 45 bc 0a 2a
        E 45 bc 0a 2c
        E 40 bc 0a 33
        E 40 bc 0a 35
        E 40 bc 0a 37
        E 40 bc 0a 3a
        E 40 bc 0a 3c
        E 40 bc 0a 3f
        E 40 bc 0a 41
        E 40 bc 0a 44
        E 40 bc 0a 46
        E 40 bc 0a 48
        E 40 bc 0a 4b
        E 40 bc 0a 4c
        E 40 bc 0a 4f
        E 40 bc 0a 51
        E 40 bc 0a 53
        E 40 bc 0a 54
        E 40 bc 0a 57
        E 40 bc 0a 58
        E 40 bc 0a 5a
        E 40 bc 0a 5b
        E 40 bc 0a 5d
        E 40 bc 0a 5e
        E 40 bc 0a 5f
        E 40 bc 0a 60
        E 40 bc 0a 61
        E 40 bc 0a 62
        E 40 bc 0a 63
        E 40 bc 0a 63
        E 40 bc 0a 64
        E 40 bc 0a 64
        E 40 bc 0a 65
        E 40 bc 0a 65
        E 40 bc 0a 65
        E 40 bc 0a 65
        E 40 bc 0a 65
        E 40 bc 0a 64
        E 40 bc 0a 64
        E 40 bc 0a 63
        E 40 bc 0a 63
        E 40 bc 0a 62
        E 40 bc 0a 61
        E 40 bc 0a 5f
        E 40 bc 0a 5f
        E 40 bc 0a 5d
        E 40 bc 0a 5c
        E 40 bc 0a 5b
        E 40 bc 0a 59
        E 40 bc 0a 57
        E 40 bc 0a 56
        E 40 bc 0a 54
        E 40 bc 0a 52
        E 40 bc 0a 50
        E 40 bc 0a 4e
        E 40 bc 0a 4c
        E 40 bc 0a 49
        E 40 bc 0a 47
        E 40 bc 0a 45
        E 40 bc 0a 43
        E 40 bc 0a 40
        E 40 bc 0a 3e
        E 40 bc 0a 3b
        E 40 bc 0a 38
        E 40 bc 0a 36
        E 40 bc 0a 33
        E 40 bc 0a 31
        E 40 bc 0a 2f
        E 40 bc 0a 2c
        E 40 bc 0a 2a
        E 40 bc 0a 27
        E 40 bc 0a 24
        E 40 bc 0a 22
        E 40 bc 0a 1f
        E 40 bc 0a 1e
        E 40 bc 0a 1b
        E 40 bc 0a 19
        E 40 bc 0a 17
        E 40 bc 0a 15
        E 40 bc 0a 13
        E 40 bc 0a 11
        E 40 bc 0a 0f
        E 40 bc 0a 0d
        E 40 bc 0a 0b
        E 40 bc 0a 0a
        E 40 bc 0a 08
        E 40 bc 0a 07
        E 40 bc 0a 06
        E 40 bc 0a 05
        E 40 bc 0a 03
        E 40 bc 0a 03
        E 40 bc 0a 02
        E 40 bc 0a 01
        E 40 bc 0a 00
        E 40 bc 0a 00
        E 40 bc 0a 00
        E 40 bc 0a 00
        E 40 bc 0a 00
        E 40 bc 0a 00
        E 40 bc 0a 00
        E 40 bc 0a 00
        E 40 bc 0a 00
        E 40 bc 0a 01
        E 40 bc 0a 02
        E 40 bc 0a 03
        E 40 bc 0a 03
        E 40 bc 0a 04
        E 40 bc 0a 05
        E 40 bc 0a 07
        E 40 bc 0a 07
        E 40 bc 0a 09
        E 40 bc 0a 0b
        E 40 bc 0a 0c
        E 40 bc 0a 0e
        E 40 bc 0a 10
        E 40 bc 0a 12
        E 40 bc 0a 14
        E 40 bc 0a 16
        E 40 bc 0a 18
        E 40 bc 0a 1a
        E 40 bc 0a 1c
        E 40 bc 0a 1f
        E 40 bc 0a 21
        E 40 bc 0a 24
        E 40 bc 0a 26
        E 40 bc 0a 28
        E 40 bc 0a 2b
        E 40 bc 0a 2d
        E 40 bc 0a 2f
        E 40 bc 0a 33
        E 45 bc 0a 06
        E 45 bc 0a 06
        E 45 bc 0a 07
        E 45 bc 0a 07
        E 45 bc 0a 07
        E 45 bc 0a 07
        E 45 bc 0a 08
        E 45 bc 0a 08
        E 45 bc 0a 08
        E 45 bc 0a 09
        E 45 bc 0a 09
        E 45 bc 0a 09
        E 45 bc 0a 09
        E 45 bc 0a 0a
        E 45 bc 0a 0a
        E 45 bc 0a 0a
        E 45 bc 0a 0a
        E 45 bc 0a 0b
        E 45 bc 0a 0b
        E 45 bc 0a 0b
        E 45 bc 0a 0b
        E 45 bc 0a 0b
        E 45 bc 0a 0c
        E 45 bc 0a 0c
        E 45 bc 0a 0c
        E 45 bc 0a 0c
        E 45 bc 0a 0c
        E 45 bc 0a 0c
        E 45 bc 0a 0c
        E 45 bc 0a 0c
        E 45 bc 0a 0c
        E 45 bc 0a 0c
        E 45 bc 0a 0c
        E 45 bc 0a 0c
        E 45 bc 0a 0c
        E 45 bc 0a 0c
        E 45 bc 0a 0c
        E 45 bc 0a 0c
        E 45 bc 0a 0c
        E 45 bc 0a 0c
        E 45 bc 0a 0c
        E 45 bc 0a 0c
        E 45 bc 0a 0b
        E 45 bc 0a 0b
        E 45 bc 0a 0b
        E 45 bc 0a 0b
        E 45 bc 0a 0b
        E 45 bc 0a 0b
        E 45 bc 0a 0a
        E 45 bc 0a 0a
        E 45 bc 0a 0a
        E 45 bc 0a 0a
        E 45 bc 0a 09
        E 45 bc 0a 09
        E 45 bc 0a 09
        E 45 bc 0a 08
        E 45 bc 0a 08
        E 45 bc 0a 08
        E 45 bc 0a 08
        E 45 bc 0a 07
        E 45 bc 0a 07
        E 45 bc 0a 07
        E 45 bc 0a 06
        E 45 bc 0a 06
        E 45 bc 0a 06
        E 45 bc 0a 05
        E 45 bc 0a 05
        E 45 bc 0a 05
        E 45 bc 0a 04
        E 45 bc 0a 04
        E 45 bc 0a 04
        E 45 bc 0a 04
        E 45 bc 0a 03
        E 45 bc 0a 03
        E 45 bc 0a 03
        E 45 bc 0a 02
        E 45 bc 0a 02
        E 45 bc 0a 02
        E 45 bc 0a 02
        E 45 bc 0a 01
        E 45 bc 0a 01
        E 45 bc 0a 01
        E 45 bc 0a 01
        E 45 bc 0a 01
        E 45 bc 0a 01
        E 45 bc 0a 00
        E 45 bc 0a 00
        E 45 bc 0a 00
        E 45 bc 0a 00
        E 45 bc 0a 00
        E 45 bc 0a 00
        E 45 bc 0a 00
        E 45 bc 0a 00
        E 45 bc 0a 00
        E 45 bc 0a 00
        E 45 bc 0a 00
        E 45 bc 0a 00
        E 45 bc 0a 00
        E 45 bc 0a 00
        E 45 bc 0a 00
        E 45 bc 0a 00
        E 45 bc 0a 00
        E 45 bc 0a 00
        E 45 bc 0a 00
        E 45 bc 0a 00
        E 45 bc 0a 00
        E 45 bc 0a 00
        E 45 bc 0a 01
        E 45 bc 0a 01
        E 45 bc 0a 01
        E 45 bc 0a 01
        E 45 bc 0a 01
        E 45 bc 0a 02
        E 45 bc 0a 02
        E 45 bc 0a 02
        E 45 bc 0a 02
        E 45 bc 0a 03
        E 45 bc 0a 03
        E 45 bc 0a 03
        E 45 bc 0a 03
        E 45 bc 0a 04
        E 45 bc 0a 04
        E 45 bc 0a 04
        E 45 bc 0a 05
        E 45 bc 0a 05
        E 45 bc 0a 05
        E 45 bc 0a 06
        E 45 bc 0a 06
        E 40 bc 0a 19
        E 40 bc 0a 1a
        E 40 bc 0a 1c
        E 40 bc 0a 1d
        E 40 bc 0a 1e
        E 40 bc 0a 1f
        E 40 bc 0a 20
        E 40 bc 0a 22
        E 40 bc 0a 23
        E 40 bc 0a 24
        E 40 bc 0a 25
        E 40 bc 0a 26
        E 40 bc 0a 27
        E 40 bc 0a 28
        E 40 bc 0a 29
        E 40 bc 0a 2a
        E 40 bc 0a 2b
        E 40 bc 0a 2c
        E 40 bc 0a 2d
        E 40 bc 0a 2e
        E 40 bc 0a 2e
        E 40 bc 0a 2f
        E 40 bc 0a 30
        E 40 bc 0a 30
        E 40 bc 0a 30
        E 40 bc 0a 31
        E 40 bc 0a 31
        E 40 bc 0a 32
        E 40 bc 0a 32
        E 40 bc 0a 32
        E 40 bc 0a 32
        E 40 bc 0a 32
        E 40 bc 0a 32
        E 40 bc 0a 32
        E 40 bc 0a 32
        E 40 bc 0a 32
        E 40 bc 0a 32
        E 40 bc 0a 32
        E 40 bc 0a 31
        E 40 bc 0a 31
        E 40 bc 0a 30
        E 40 bc 0a 30
        E 40 bc 0a 2f
        E 40 bc 0a 2e
        E 40 bc 0a 2e
        E 40 bc 0a 2d
        E 40 bc 0a 2c
        E 40 bc 0a 2c
        E 40 bc 0a 2b
        E 40 bc 0a 2a
        E 40 bc 0a 29
        E 40 bc 0a 28
        E 40 bc 0a 27
        E 40 bc 0a 26
        E 40 bc 0a 24
        E 40 bc 0a 23
        E 40 bc 0a 22
        E 40 bc 0a 21
        E 40 bc 0a 20
        E 40 bc 0a 1f
        E 40 bc 0a 1d
        E 40 bc 0a 1c
        E 40 bc 0a 1b
        E 40 bc 0a 1a
        E 40 bc 0a 18
        E 40 bc 0a 17
        E 40 bc 0a 16
        E 40 bc 0a 15
        E 40 bc 0a 13
        E 40 bc 0a 12
        E 40 bc 0a 11
        E 40 bc 0a 10
        E 40 bc 0a 0f
        E 40 bc 0a 0e
        E 40 bc 0a 0c
        E 40 bc 0a 0b
        E 40 bc 0a 0a
        E 40 bc 0a 09
        E 40 bc 0a 08
        E 40 bc 0a 07
        E 40 bc 0a 06
        E 40 bc 0a 06
        E 40 bc 0a 05
        E 40 bc 0a 04
        E 40 bc 0a 04
        E 40 bc 0a 03
        E 40 bc 0a 02
        E 40 bc 0a 02
        E 40 bc 0a 01
        E 40 bc 0a 01
        E 40 bc 0a 00
        E 40 bc 0a 00
        E 40 bc 0a 00
        E 40 bc 0a 00
        E 40 bc 0a 00
        E 40 bc 0a 00
        E 40 bc 0a 00
        E 40 bc 0a 00
        E 40 bc 0a 00
        E 40 bc 0a 00
        E 40 bc 0a 00
        E 40 bc 0a 01
        E 40 bc 0a 01
        E 40 bc 0a 02
        E 40 bc 0a 02
        E 40 bc 0a 02
        E 40 bc 0a 03
        E 40 bc 0a 04
        E 40 bc 0a 04
        E 40 bc 0a 05
        E 40 bc 0a 06
        E 40 bc 0a 07
        E 40 bc 0a 08
        E 40 bc 0a 09
        E 40 bc 0a 0a
        E 40 bc 0a 0b
        E 40 bc 0a 0c
        E 40 bc 0a 0d
        E 40 bc 0a 0e
        E 40 bc 0a 0f
        E 40 bc 0a 10
        E 40 bc 0a 12
        E 40 bc 0a 13
        E 40 bc 0a 14
        E 40 bc 0a 15
        E 40 bc 0a 16
        E 40 bc 0a 18
        E 40 bc 0a 19
        E 22 bc 0a 2c
        E 22 bc 0a 2e
        E 22 bc 0a 31
        E 22 bc 0a 33
        E 22 bc 0a 35
        E 22 bc 0a 37
        E 22 bc 0a 39
        E 22 bc 0a 3b
        E 22 bc 0a 3d
        E 22 bc 0a 3f
        E 22 bc 0a 41
        E 22 bc 0a 43
        E 22 bc 0a 45
        E 22 bc 0a 47
        E 22 bc 0a 48
        E 22 bc 0a 4a
        E 22 bc 0a 4c
        E 22 bc 0a 4d
        E 22 bc 0a 4f
        E 22 bc 0a 50
        E 22 bc 0a 51
        E 22 bc 0a 52
        E 22 bc 0a 54
        E 22 bc 0a 54
        E 22 bc 0a 55
        E 22 bc 0a 56
        E 22 bc 0a 56
        E 22 bc 0a 57
        E 22 bc 0a 58
        E 22 bc 0a 58
        E 22 bc 0a 58
        E 22 bc 0a 58
        E 22 bc 0a 58
        E 22 bc 0a 58
        E 22 bc 0a 58
        E 22 bc 0a 58
        E 22 bc 0a 58
        E 22 bc 0a 57
        E 22 bc 0a 56
        E 22 bc 0a 56
        E 22 bc 0a 55
        E 22 bc 0a 54
        E 22 bc 0a 53
        E 22 bc 0a 51
        E 22 bc 0a 51
        E 22 bc 0a 4f
        E 22 bc 0a 4e
        E 22 bc 0a 4d
        E 22 bc 0a 4b
        E 22 bc 0a 49
        E 22 bc 0a 48
        E 22 bc 0a 46
        E 22 bc 0a 44
        E 22 bc 0a 42
        E 22 bc 0a 40
        E 22 bc 0a 3e
        E 22 bc 0a 3c
        E 22 bc 0a 3a
        E 22 bc 0a 38
        E 22 bc 0a 36
        E 22 bc 0a 33
        E 22 bc 0a 31
        E 22 bc 0a 2f
        E 22 bc 0a 2d
        E 22 bc 0a 2b
        E 22 bc 0a 29
        E 22 bc 0a 27
        E 22 bc 0a 25
        E 22 bc 0a 22
        E 22 bc 0a 20
        E 22 bc 0a 1e
        E 22 bc 0a 1c
        E 22 bc 0a 1a
        E 22 bc 0a 18
        E 22 bc 0a 16
        E 22 bc 0a 14
        E 22 bc 0a 12
        E 22 bc 0a 10
        E 22 bc 0a 0f
        E 22 bc 0a 0d
        E 22 bc 0a 0b
        E 22 bc 0a 0a
        E 22 bc 0a 09
        E 22 bc 0a 07
        E 22 bc 0a 07
        E 22 bc 0a 05
        E 22 bc 0a 04
        E 22 bc 0a 03
        E 22 bc 0a 02
        E 22 bc 0a 02
        E 22 bc 0a 01
        E 22 bc 0a 00
        E 22 bc 0a 00
        E 22 bc 0a 00
        E 22 bc 0a 00
        E 22 bc 0a 00
        E 22 bc 0a 00
        E 22 bc 0a 00
        E 22 bc 0a 00
        E 22 bc 0a 00
        E 22 bc 0a 01
        E 22 bc 0a 02
        E 22 bc 0a 02
        E 22 bc 0a 03
        E 22 bc 0a 04
        E 22 bc 0a 04
        E 22 bc 0a 06
        E 22 bc 0a 07
        E 22 bc 0a 08
        E 22 bc 0a 09
        E 22 bc 0a 0b
        E 22 bc 0a 0c
        E 22 bc 0a 0e
        E 22 bc 0a 10
        E 22 bc 0a 11
        E 22 bc 0a 13
        E 22 bc 0a 15
        E 22 bc 0a 17
        E 22 bc 0a 19
        E 22 bc 0a 1b
        E 22 bc 0a 1d
        E 22 bc 0a 1f
        E 22 bc 0a 21
        E 22 bc 0a 23
        E 22 bc 0a 25
        E 22 bc 0a 27
        E 22 bc 0a 2a
        E 22 bc 0a 2c
        E 36 bc 0a 40
        E 36 bc 0a 43
        E 36 bc 0a 46
        E 36 bc 0a 49
        E 36 bc 0a 4c
        E 36 bc 0a 4f
        E 36 bc 0a 52
        E 36 bc 0a 55
        E 36 bc 0a 58
        E 36 bc 0a 5b
        E 36 bc 0a 5e
        E 36 bc 0a 60
        E 36 bc 0a 63
        E 36 bc 0a 66
        E 36 bc 0a 68
        E 36 bc 0a 6a
        E 36 bc 0a 6d
        E 36 bc 0a 6f
        E 36 bc 0a 71
        E 36 bc 0a 73
        E 36 bc 0a 75
        E 36 bc 0a 76
        E 36 bc 0a 78
        E 36 bc 0a 79
        E 36 bc 0a 7a
        E 36 bc 0a 7b
        E 36 bc 0a 7c
        E 36 bc 0a 7d
        E 36 bc 0a 7e
        E 36 bc 0a 7e
        E 36 bc 0a 7f
        E 36 bc 0a 7f
        E 36 bc 0a 7f
        E 36 bc 0a 7f
        E 36 bc 0a 7f
        E 36 bc 0a 7e
        E 36 bc 0a 7e
        E 36 bc 0a 7d
        E 36 bc 0a 7c
        E 36 bc 0a 7b
        E 36 bc 0a 7a
        E 36 bc 0a 78
        E 36 bc 0a 77
        E 36 bc 0a 75
        E 36 bc 0a 74
        E 36 bc 0a 72
        E 36 bc 0a 70
        E 36 bc 0a 6e
        E 36 bc 0a 6c
        E 36 bc 0a 69
        E 36 bc 0a 67
        E 36 bc 0a 64
        E 36 bc 0a 62
        E 36 bc 0a 5f
        E 36 bc 0a 5c
        E 36 bc 0a 59
        E 36 bc 0a 57
        E 36 bc 0a 54
        E 36 bc 0a 51
        E 36 bc 0a 4e
        E 36 bc 0a 4a
        E 36 bc 0a 47
        E 36 bc 0a 44
        E 36 bc 0a 41
        E 36 bc 0a 3e
        E 36 bc 0a 3b
        E 36 bc 0a 38
        E 36 bc 0a 35
        E 36 bc 0a 31
        E 36 bc 0a 2e
        E 36 bc 0a 2b
        E 36 bc 0a 28
        E 36 bc 0a 26
        E 36 bc 0a 23
        E 36 bc 0a 20
        E 36 bc 0a 1d
        E 36 bc 0a 1b
        E 36 bc 0a 18
        E 36 bc 0a 16
        E 36 bc 0a 13
        E 36 bc 0a 11
        E 36 bc 0a 0f
        E 36 bc 0a 0d
        E 36 bc 0a 0b
        E 36 bc 0a 0a
        E 36 bc 0a 08
        E 36 bc 0a 07
        E 36 bc 0a 05
        E 36 bc 0a 04
        E 36 bc 0a 03
        E 36 bc 0a 02
        E 36 bc 0a 01
        E 36 bc 0a 01
        E 36 bc 0a 00
        E 36 bc 0a 00
        E 36 bc 0a 00
        E 36 bc 0a 00
        E 36 bc 0a 00
        E 36 bc 0a 01
        E 36 bc 0a 01
        E 36 bc 0a 02
        E 36 bc 0a 03
        E 36 bc 0a 04
        E 36 bc 0a 05
        E 36 bc 0a 06
        E 36 bc 0a 07
        E 36 bc 0a 09
        E 36 bc 0a 0a
        E 36 bc 0a 0c
        E 36 bc 0a 0e
        E 36 bc 0a 10
        E 36 bc 0a 12
        E 36 bc 0a 15
        E 36 bc 0a 17
        E 36 bc 0a 19
        E 36 bc 0a 1c
        E 36 bc 0a 1f
        E 36 bc 0a 21
        E 36 bc 0a 24
        E 36 bc 0a 27
        E 36 bc 0a 2a
        E 36 bc 0a 2d
        E 36 bc 0a 30
        E 36 bc 0a 33
        E 36 bc 0a 36
        E 36 bc 0a 39
        E 36 bc 0a 3c
        E 36 bc 0a 40
        E 4 bc 0a 39
        E 4 bc 0a 3c
        E 4 bc 0a 3f
        E 4 bc 0a 41
        E 4 bc 0a 44
        E 4 bc 0a 47
        E 4 bc 0a 49
        E 4 bc 0a 4c
        E 4 bc 0a 4f
        E 4 bc 0a 51
        E 4 bc 0a 54
        E 4 bc 0a 56
        E 4 bc 0a 59
        E 4 bc 0a 5b
        E 4 bc 0a 5d
        E 4 bc 0a 5f
        E 4 bc 0a 62
        E 4 bc 0a 63
        E 4 bc 0a 65
        E 4 bc 0a 67
        E 4 bc 0a 69
        E 4 bc 0a 6a
        E 4 bc 0a 6c
        E 4 bc 0a 6c
        E 4 bc 0a 6d
        E 4 bc 0a 6e
        E 4 bc 0a 6f
        E 4 bc 0a 70
        E 4 bc 0a 71
        E 4 bc 0a 71
        E 4 bc 0a 72
        E 4 bc 0a 72
        E 4 bc 0a 72
        E 4 bc 0a 72
        E 4 bc 0a 72
        E 4 bc 0a 71
        E 4 bc 0a 71
        E 4 bc 0a 70
        E 4 bc 0a 6f
        E 4 bc 0a 6e
        E 4 bc 0a 6d
        E 4 bc 0a 6c
        E 4 bc 0a 6b
        E 4 bc 0a 69
        E 4 bc 0a 68
        E 4 bc 0a 66
        E 4 bc 0a 64
        E 4 bc 0a 63
        E 4 bc 0a 61
        E 4 bc 0a 5e
        E 4 bc 0a 5c
        E 4 bc 0a 5a
        E 4 bc 0a 58
        E 4 bc 0a 55
        E 4 bc 0a 52
        E 4 bc 0a 50
        E 4 bc 0a 4e
        E 4 bc 0a 4b
        E 4 bc 0a 48
        E 4 bc 0a 46
        E 4 bc 0a 42
        E 4 bc 0a 3f
        E 4 bc 0a 3d
        E 4 bc 0a 3a
        E 4 bc 0a 37
        E 4 bc 0a 35
        E 4 bc 0a 32
        E 4 bc 0a 2f
        E 4 bc 0a 2c
        E 4 bc 0a 29
        E 4 bc 0a 26
        E 4 bc 0a 24
        E 4 bc 0a 22
        E 4 bc 0a 1f
        E 4 bc 0a 1c
        E 4 bc 0a 1a
        E 4 bc 0a 18
        E 4 bc 0a 15
        E 4 bc 0a 13
        E 4 bc 0a 11
        E 4 bc 0a 0f
        E 4 bc 0a 0d
        E 4 bc 0a 0b
        E 4 bc 0a 09
        E 4 bc 0a 09
        E 4 bc 0a 07
        E 4 bc 0a 06
        E 4 bc 0a 04
        E 4 bc 0a 03
        E 4 bc 0a 02
        E 4 bc 0a 01
        E 4 bc 0a 00
        E 4 bc 0a 00
        E 4 bc 0a 00
        E 4 bc 0a 00
        E 4 bc 0a 00
        E 4 bc 0a 00
        E 4 bc 0a 00
        E 4 bc 0a 00
        E 4 bc 0a 00
        E 4 bc 0a 01
        E 4 bc 0a 02
        E 4 bc 0a 03
        E 4 bc 0a 04
        E 4 bc 0a 05
        E 4 bc 0a 06
        E 4 bc 0a 08
        E 4 bc 0a 09
        E 4 bc 0a 0a
        E 4 bc 0a 0c
        E 4 bc 0a 0e
        E 4 bc 0a 10
        E 4 bc 0a 12
        E 4 bc 0a 14
        E 4 bc 0a 16
        E 4 bc 0a 19
        E 4 bc 0a 1b
        E 4 bc 0a 1d
        E 4 bc 0a 20
        E 4 bc 0a 23
        E 4 bc 0a 25
        E 4 bc 0a 28
        E 4 bc 0a 2b
        E 4 bc 0a 2d
        E 4 bc 0a 30
        E 4 bc 0a 33
        E 4 bc 0a 36
        E 4 bc 0a 39
        E 18 bc 0a 40
        E 18 bc 0a 43
        E 18 bc 0a 46
        E 18 bc 0a 49
        E 18 bc 0a 4c
        E 18 bc 0a 4f
        E 18 bc 0a 52
        E 18 bc 0a 55
        E 18 bc 0a 58
        E 18 bc 0a 5b
        E 18 bc 0a 5e
        E 18 bc 0a 60
        E 18 bc 0a 63
        E 18 bc 0a 66
        E 18 bc 0a 68
        E 18 bc 0a 6a
        E 18 bc 0a 6d
        E 18 bc 0a 6f
        E 18 bc 0a 71
        E 18 bc 0a 73
        E 18 bc 0a 75
        E 18 bc 0a 76
        E 18 bc 0a 78
        E 18 bc 0a 79
        E 18 bc 0a 7a
        E 18 bc 0a 7b
        E 18 bc 0a 7c
        E 18 bc 0a 7d
        E 18 bc 0a 7e
        E 18 bc 0a 7e
        E 18 bc 0a 7f
        E 18 bc 0a 7f
        E 18 bc 0a 7f
        E 18 bc 0a 7f
        E 18 bc 0a 7f
        E 18 bc 0a 7e
        E 18 bc 0a 7e
        E 18 bc 0a 7d
        E 18 bc 0a 7c
        E 18 bc 0a 7b
        E 18 bc 0a 7a
        E 18 bc 0a 78
        E 18 bc 0a 77
        E 18 bc 0a 75
        E 18 bc 0a 74
        E 18 bc 0a 72
        E 18 bc 0a 70
        E 18 bc 0a 6e
        E 18 bc 0a 6c
        E 18 bc 0a 69
        E 18 bc 0a 67
        E 18 bc 0a 64
        E 18 bc 0a 62
        E 18 bc 0a 5f
        E 18 bc 0a 5c
        E 18 bc 0a 59
        E 18 bc 0a 57
        E 18 bc 0a 54
        E 18 bc 0a 51
        E 18 bc 0a 4e
        E 18 bc 0a 4a
        E 18 bc 0a 47
        E 18 bc 0a 44
        E 18 bc 0a 41
        E 18 bc 0a 3e
        E 18 bc 0a 3b
        E 18 bc 0a 38
        E 18 bc 0a 35
        E 18 bc 0a 31
        E 18 bc 0a 2e
        E 18 bc 0a 2b
        E 18 bc 0a 28
        E 18 bc 0a 26
        E 18 bc 0a 23
        E 18 bc 0a 20
        E 18 bc 0a 1d
        E 18 bc 0a 1b
        E 18 bc 0a 18
        E 18 bc 0a 16
        E 18 bc 0a 13
        E 18 bc 0a 11
        E 18 bc 0a 0f
        E 18 bc 0a 0d
        E 18 bc 0a 0b
        E 18 bc 0a 0a
        E 18 bc 0a 08
        E 18 bc 0a 07
        E 18 bc 0a 05
        E 18 bc 0a 04
        E 18 bc 0a 03
        E 18 bc 0a 02
        E 18 bc 0a 01
        E 18 bc 0a 01
        E 18 bc 0a 00
        E 18 bc 0a 00
        E 18 bc 0a 00
        E 18 bc 0a 00
        E 18 bc 0a 00
        E 18 bc 0a 01
        E 18 bc 0a 01
        E 18 bc 0a 02
        E 18 bc 0a 03
        E 18 bc 0a 04
        E 18 bc 0a 05
        E 18 bc 0a 06
        E 18 bc 0a 07
        E 18 bc 0a 09
        E 18 bc 0a 0a
        E 18 bc 0a 0c
        E 18 bc 0a 0e
        E 18 bc 0a 10
        E 18 bc 0a 12
        E 18 bc 0a 15
        E 18 bc 0a 17
        E 18 bc 0a 19
        E 18 bc 0a 1c
        E 18 bc 0a 1f
        E 18 bc 0a 21
        E 18 bc 0a 24
        E 18 bc 0a 27
        E 18 bc 0a 2a
        E 18 bc 0a 2d
        E 18 bc 0a 30
        E 18 bc 0a 33
        E 18 bc 0a 36
        E 18 bc 0a 39
        E 18 bc 0a 3c
        E 18 bc 0a 40
        E 31 bc 0a 39
        E 31 bc 0a 3c
        E 31 bc 0a 3f
        E 31 bc 0a 41
        E 31 bc 0a 44
        E 31 bc 0a 47
        E 31 bc 0a 49
        E 31 bc 0a 4c
        E 31 bc 0a 4f
        E 31 bc 0a 51
        E 31 bc 0a 54
        E 31 bc 0a 56
        E 31 bc 0a 59
        E 31 bc 0a 5b
        E 31 bc 0a 5d
        E 31 bc 0a 5f
        E 31 bc 0a 62
        E 31 bc 0a 63
        E 31 bc 0a 65
        E 31 bc 0a 67
        E 31 bc 0a 69
        E 31 bc 0a 6a
        E 31 bc 0a 6c
        E 31 bc 0a 6c
        E 31 bc 0a 6d
        E 31 bc 0a 6e
        E 31 bc 0a 6f
        E 31 bc 0a 70
        E 31 bc 0a 71
        E 31 bc 0a 71
        E 31 bc 0a 72
        E 31 bc 0a 72
        E 31 bc 0a 72
        E 31 bc 0a 72
        E 31 bc 0a 72
        E 31 bc 0a 71
        E 31 bc 0a 71
        E 31 bc 0a 70
        E 31 bc 0a 6f
        E 31 bc 0a 6e
        E 31 bc 0a 6d
        E 31 bc 0a 6c
        E 31 bc 0a 6b
        E 31 bc 0a 69
        E 31 bc 0a 68
        E 31 bc 0a 66
        E 31 bc 0a 64
        E 31 bc 0a 63
        E 31 bc 0a 61
        E 31 bc 0a 5e
        E 31 bc 0a 5c
        E 31 bc 0a 5a
        E 31 bc 0a 58
        E 31 bc 0a 55
        E 31 bc 0a 52
        E 31 bc 0a 50
        E 31 bc 0a 4e
        E 31 bc 0a 4b
        E 31 bc 0a 48
        E 31 bc 0a 46
        E 31 bc 0a 42
        E 31 bc 0a 3f
        E 31 bc 0a 3d
        E 31 bc 0a 3a
        E 31 bc 0a 37
        E 31 bc 0a 35
        E 31 bc 0a 32
        E 31 bc 0a 2f
        E 31 bc 0a 2c
        E 31 bc 0a 29
        E 31 bc 0a 26
        E 31 bc 0a 24
        E 31 bc 0a 22
        E 31 bc 0a 1f
        E 31 bc 0a 1c
        E 31 bc 0a 1a
        E 31 bc 0a 18
        E 31 bc 0a 15
        E 31 bc 0a 13
        E 31 bc 0a 11
        E 31 bc 0a 0f
        E 31 bc 0a 0d
        E 31 bc 0a 0b
        E 31 bc 0a 09
        E 31 bc 0a 09
        E 31 bc 0a 07
        E 31 bc 0a 06
        E 31 bc 0a 04
        E 31 bc 0a 03
        E 31 bc 0a 02
        E 31 bc 0a 01
        E 31 bc 0a 00
        E 31 bc 0a 00
        E 31 bc 0a 00
        E 31 bc 0a 00
        E 31 bc 0a 00
        E 31 bc 0a 00
        E 31 bc 0a 00
        E 31 bc 0a 00
        E 31 bc 0a 00
        E 31 bc 0a 01
        E 31 bc 0a 02
        E 31 bc 0a 03
        E 31 bc 0a 04
        E 31 bc 0a 05
        E 31 bc 0a 06
        E 31 bc 0a 08
        E 31 bc 0a 09
        E 31 bc 0a 0a
        E 31 bc 0a 0c
        E 31 bc 0a 0e
        E 31 bc 0a 10
        E 31 bc 0a 12
        E 31 bc 0a 14
        E 31 bc 0a 16
        E 31 bc 0a 19
        E 31 bc 0a 1b
        E 31 bc 0a 1d
        E 31 bc 0a 20
        E 31 bc 0a 23
        E 31 bc 0a 25
        E 31 bc 0a 28
        E 31 bc 0a 2b
        E 31 bc 0a 2d
        E 31 bc 0a 30
        E 31 bc 0a 33
        E 31 bc 0a 36
        E 31 bc 0a 39
        E 22 bc 0a 20
        E 22 bc 0a 21
        E 22 bc 0a 23
        E 22 bc 0a 24
        E 22 bc 0a 26
        E 22 bc 0a 27
        E 22 bc 0a 29
        E 22 bc 0a 2a
        E 22 bc 0a 2c
        E 22 bc 0a 2d
        E 22 bc 0a 2f
        E 22 bc 0a 30
        E 22 bc 0a 31
        E 22 bc 0a 33
        E 22 bc 0a 34
        E 22 bc 0a 35
        E 22 bc 0a 36
        E 22 bc 0a 37
        E 22 bc 0a 38
        E 22 bc 0a 39
        E 22 bc 0a 3a
        E 22 bc 0a 3b
        E 22 bc 0a 3c
        E 22 bc 0a 3c
        E 22 bc 0a 3d
        E 22 bc 0a 3d
        E 22 bc 0a 3e
        E 22 bc 0a 3e
        E 22 bc 0a 3f
        E 22 bc 0a 3f
        E 22 bc 0a 3f
        E 22 bc 0a 3f
        E 22 bc 0a 3f
        E 22 bc 0a 3f
        E 22 bc 0a 3f
        E 22 bc 0a 3f
        E 22 bc 0a 3f
        E 22 bc 0a 3e
        E 22 bc 0a 3e
        E 22 bc 0a 3d
        E 22 bc 0a 3d
        E 22 bc 0a 3c
        E 22 bc 0a 3b
        E 22 bc 0a 3a
        E 22 bc 0a 3a
        E 22 bc 0a 39
        E 22 bc 0a 38
        E 22 bc 0a 37
        E 22 bc 0a 36
        E 22 bc 0a 34
        E 22 bc 0a 33
        E 22 bc 0a 32
        E 22 bc 0a 31
        E 22 bc 0a 2f
        E 22 bc 0a 2e
        E 22 bc 0a 2c
        E 22 bc 0a 2b
        E 22 bc 0a 2a
        E 22 bc 0a 28
        E 22 bc 0a 27
        E 22 bc 0a 25
        E 22 bc 0a 23
        E 22 bc 0a 22
        E 22 bc 0a 20
        E 22 bc 0a 1f
        E 22 bc 0a 1d
        E 22 bc 0a 1c
        E 22 bc 0a 1a
        E 22 bc 0a 18
        E 22 bc 0a 17
        E 22 bc 0a 15
        E 22 bc 0a 14
        E 22 bc 0a 13
        E 22 bc 0a 11
        E 22 bc 0a 10
        E 22 bc 0a 0e
        E 22 bc 0a 0d
        E 22 bc 0a 0c
        E 22 bc 0a 0b
        E 22 bc 0a 09
        E 22 bc 0a 08
        E 22 bc 0a 07
        E 22 bc 0a 06
        E 22 bc 0a 05
        E 22 bc 0a 05
        E 22 bc 0a 04
        E 22 bc 0a 03
        E 22 bc 0a 02
        E 22 bc 0a 02
        E 22 bc 0a 01
        E 22 bc 0a 01
        E 22 bc 0a 00
        E 22 bc 0a 00
        E 22 bc 0a 00
        E 22 bc 0a 00
        E 22 bc 0a 00
        E 22 bc 0a 00
        E 22 bc 0a 00
        E 22 bc 0a 00
        E 22 bc 0a 00
        E 22 bc 0a 01
        E 22 bc 0a 01
        E 22 bc 0a 02
        E 22 bc 0a 02
        E 22 bc 0a 03
        E 22 bc 0a 03
        E 22 bc 0a 04
        E 22 bc 0a 05
        E 22 bc 0a 06
        E 22 bc 0a 07
        E 22 bc 0a 08
        E 22 bc 0a 09
        E 22 bc 0a 0a
        E 22 bc 0a 0b
        E 22 bc 0a 0c
        E 22 bc 0a 0e
        E 22 bc 0a 0f
        E 22 bc 0a 10
        E 22 bc 0a 12
        E 22 bc 0a 13
        E 22 bc 0a 15
        E 22 bc 0a 16
        E 22 bc 0a 18
        E 22 bc 0a 19
        E 22 bc 0a 1b
        E 22 bc 0a 1c
        E 22 bc 0a 1e
        E 22 bc 0a 20
        E 22 bc 0a 20
        E 22 bc 0a 21
        E 22 bc 0a 23
        E 22 bc 0a 24
        E 22 bc 0a 26
        E 22 bc 0a 27
        E 22 bc 0a 29
        E 22 bc 0a 2a
        E 22 bc 0a 2c
        E 22 bc 0a 2d
        E 22 bc 0a 2f
        E 22 bc 0a 30
        E 22 bc 0a 31
        E 22 bc 0a 33
        E 22 bc 0a 34
        E 22 bc 0a 35
        E 22 bc 0a 36
        E 22 bc 0a 37
        E 22 bc 0a 38
        E 22 bc 0a 39
        E 22 bc 0a 3a
        E 22 bc 0a 3b
        E 22 bc 0a 3c
        E 22 bc 0a 3c
        E 22 bc 0a 3d
        E 22 bc 0a 3d
        E 22 bc 0a 3e
        E 22 bc 0a 3e
        E 22 bc 0a 3f
        E 22 bc 0a 3f
        E 22 bc 0a 3f
        E 22 bc 0a 3f
        E 22 bc 0a 3f
        E 22 bc 0a 3f
        E 22 bc 0a 3f
        E 22 bc 0a 3f
        E 22 bc 0a 3f
        E 22 bc 0a 3e
        E 22 bc 0a 3e
        E 22 bc 0a 3d
        E 22 bc 0a 3d
        E 22 bc 0a 3c
        E 22 bc 0a 3b
        E 22 bc 0a 3a
        E 22 bc 0a 3a
        E 22 bc 0a 39
        E 22 bc 0a 38
        E 22 bc 0a 37
        E 22 bc 0a 36
        E 22 bc 0a 34
        E 22 bc 0a 33
        E 22 bc 0a 32
        E 22 bc 0a 31
        E 22 bc 0a 2f
        E 22 bc 0a 2e
        E 22 bc 0a 2c
        E 22 bc 0a 2b
        E 22 bc 0a 2a
        E 22 bc 0a 28
        E 22 bc 0a 27
        E 22 bc 0a 25
        E 22 bc 0a 23
        E 22 bc 0a 22
        E 22 bc 0a 20
        E 22 bc 0a 1f
        E 22 bc 0a 1d
        E 22 bc 0a 1c
        E 22 bc 0a 1a
        E 22 bc 0a 18
        E 22 bc 0a 17
        E 22 bc 0a 15
        E 22 bc 0a 14
        E 22 bc 0a 13
        E 22 bc 0a 11
        E 22 bc 0a 10
        E 22 bc 0a 0e
        E 22 bc 0a 0d
        E 22 bc 0a 0c
        E 22 bc 0a 0b
        E 22 bc 0a 09
        E 22 bc 0a 08
        E 22 bc 0a 07
        E 22 bc 0a 06
        E 22 bc 0a 05
        E 22 bc 0a 05
        E 22 bc 0a 04
        E 22 bc 0a 03
        E 22 bc 0a 02
        E 22 bc 0a 02
        E 22 bc 0a 01
        E 22 bc 0a 01
        E 22 bc 0a 00
        E 22 bc 0a 00
        E 22 bc 0a 00
        E 22 bc 0a 00
        E 22 bc 0a 00
        E 22 bc 0a 00
        E 22 bc 0a 00
        E 22 bc 0a 00
        E 22 bc 0a 00
        E 22 bc 0a 01
        E 22 bc 0a 01
        E 22 bc 0a 02
        E 22 bc 0a 02
        E 22 bc 0a 03
        E 22 bc 0a 03
        E 22 bc 0a 04
        E 22 bc 0a 05
        E 22 bc 0a 06
        E 22 bc 0a 07
        E 22 bc 0a 08
        E 22 bc 0a 09
        E 22 bc 0a 0a
        E 22 bc 0a 0b
        E 22 bc 0a 0c
        E 22 bc 0a 0e
        E 22 bc 0a 0f
        E 22 bc 0a 10
        E 22 bc 0a 12
        E 22 bc 0a 13
        E 22 bc 0a 15
        E 22 bc 0a 16
        E 22 bc 0a 18
        E 22 bc 0a 19
        E 22 bc 0a 1b
        E 22 bc 0a 1c
        E 22 bc 0a 1e
        E 22 bc 0a 20
        E 45 bc 0a 2c
        E 45 bc 0a 2e
        E 45 bc 0a 31
        E 45 bc 0a 33
        E 45 bc 0a 35
        E 45 bc 0a 37
        E 45 bc 0a 39
        E 45 bc 0a 3b
        E 45 bc 0a 3d
        E 45 bc 0a 3f
        E 45 bc 0a 41
        E 45 bc 0a 43
        E 45 bc 0a 45
        E 45 bc 0a 47
        E 45 bc 0a 48
        E 45 bc 0a 4a
        E 45 bc 0a 4c
        E 45 bc 0a 4d
        E 45 bc 0a 4f
        E 45 bc 0a 50
        E 45 bc 0a 51
        E 45 bc 0a 52
        E 45 bc 0a 54
        E 45 bc 0a 54
        E 45 bc 0a 55
        E 45 bc 0a 56
        E 45 bc 0a 56
        E 45 bc 0a 57
        E 45 bc 0a 58
        E 45 bc 0a 58
        E 45 bc 0a 58
        E 45 bc 0a 58
        E 45 bc 0a 58
        E 45 bc 0a 58
        E 45 bc 0a 58
        E 45 bc 0a 58
        E 45 bc 0a 58
        E 45 bc 0a 57
        E 45 bc 0a 56
        E 45 bc 0a 56
        E 45 bc 0a 55
        E 45 bc 0a 54
        E 45 bc 0a 53
        E 45 bc 0a 51
        E 45 bc 0a 51
        E 45 bc 0a 4f
        E 45 bc 0a 4e
        E 45 bc 0a 4d
        E 45 bc 0a 4b
        E 45 bc 0a 49
        E 45 bc 0a 48
        E 45 bc 0a 46
        E 45 bc 0a 44
        E 45 bc 0a 42
        E 45 bc 0a 40
        E 45 bc 0a 3e
        E 45 bc 0a 3c
        E 45 bc 0a 3a
        E 45 bc 0a 38
        E 45 bc 0a 36
        E 45 bc 0a 33
        E 45 bc 0a 31
        E 45 bc 0a 2f
        E 45 bc 0a 2d
        E 45 bc 0a 2b
        E 45 bc 0a 29
        E 45 bc 0a 27
        E 45 bc 0a 25
        E 45 bc 0a 22
        E 45 bc 0a 20
        E 45 bc 0a 1e
        E 45 bc 0a 1c
        E 45 bc 0a 1a
        E 45 bc 0a 18
        E 45 bc 0a 16
        E 45 bc 0a 14
        E 45 bc 0a 12
        E 45 bc 0a 10
        E 45 bc 0a 0f
        E 45 bc 0a 0d
        E 45 bc 0a 0b
        E 45 bc 0a 0a
        E 45 bc 0a 09
        E 45 bc 0a 07
        E 45 bc 0a 07
        E 45 bc 0a 05
        E 45 bc 0a 04
        E 45 bc 0a 03
        E 45 bc 0a 02
        E 45 bc 0a 02
        E 45 bc 0a 01
        E 45 bc 0a 00
        E 45 bc 0a 00
        E 45 bc 0a 00
        E 45 bc 0a 00
        E 45 bc 0a 00
        E 45 bc 0a 00
        E 45 bc 0a 00
        E 45 bc 0a 00
        E 45 bc 0a 00
        E 45 bc 0a 01
        E 45 bc 0a 02
        E 45 bc 0a 02
        E 45 bc 0a 03
        E 45 bc 0a 04
        E 45 bc 0a 04
        E 45 bc 0a 06
        E 45 bc 0a 07
        E 45 bc 0a 08
        E 45 bc 0a 09
        E 45 bc 0a 0b
        E 45 bc 0a 0c
        E 45 bc 0a 0e
        E 45 bc 0a 10
        E 45 bc 0a 11
        E 45 bc 0a 13
        E 45 bc 0a 15
        E 45 bc 0a 17
        E 45 bc 0a 19
        E 45 bc 0a 1b
        E 45 bc 0a 1d
        E 45 bc 0a 1f
        E 45 bc 0a 21
        E 45 bc 0a 23
        E 45 bc 0a 25
        E 45 bc 0a 27
        E 45 bc 0a 2a
        E 45 bc 0a 2c
        E 40 bc 0a 33
        E 40 bc 0a 35
        E 40 bc 0a 37
        E 40 bc 0a 3a
        E 40 bc 0a 3c
        E 40 bc 0a 3f
        E 40 bc 0a 41
        E 40 bc 0a 44
        E 40 bc 0a 46
        E 40 bc 0a 48
        E 40 bc 0a 4b
        E 40 bc 0a 4c
        E 40 bc 0a 4f
        E 40 bc 0a 51
        E 40 bc 0a 53
        E 40 bc 0a 54
        E 40 bc 0a 57
        E 40 bc 0a 58
        E 40 bc 0a 5a
        E 40 bc 0a 5b
        E 40 bc 0a 5d
        E 40 bc 0a 5e
        E 40 bc 0a 5f
        E 40 bc 0a 60
        E 40 bc 0a 61
        E 40 bc 0a 62
        E 40 bc 0a 63
        E 40 bc 0a 63
        E 40 bc 0a 64
        E 40 bc 0a 64
        E 40 bc 0a 65
        E 40 bc 0a 65
        E 40 bc 0a 65
        E 40 bc 0a 65
        E 40 bc 0a 65
        E 40 bc 0a 64
        E 40 bc 0a 64
        E 40 bc 0a 63
        E 40 bc 0a 63
        E 40 bc 0a 62
        E 40 bc 0a 61
        E 40 bc 0a 5f
        E 40 bc 0a 5f
        E 40 bc 0a 5d
        E 40 bc 0a 5c
        E 40 bc 0a 5b
        E 40 bc 0a 59
        E 40 bc 0a 57
        E 40 bc 0a 56
        E 40 bc 0a 54
        E 40 bc 0a 52
        E 40 bc 0a 50
        E 40 bc 0a 4e
        E 40 bc 0a 4c
        E 40 bc 0a 49
        E 40 bc 0a 47
        E 40 bc 0a 45
        E 40 bc 0a 43
        E 40 bc 0a 40
        E 40 bc 0a 3e
        E 40 bc 0a 3b
        E 40 bc 0a 38
        E 40 bc 0a 36
        E 40 bc 0a 33
        E 40 bc 0a 31
        E 40 bc 0a 2f
        E 40 bc 0a 2c
        E 40 bc 0a 2a
        E 40 bc 0a 27
        E 40 bc 0a 24
        E 40 bc 0a 22
        E 40 bc 0a 1f
        E 40 bc 0a 1e
        E 40 bc 0a 1b
        E 40 bc 0a 19
        E 40 bc 0a 17
        E 40 bc 0a 15
        E 40 bc 0a 13
        E 40 bc 0a 11
        E 40 bc 0a 0f
        E 40 bc 0a 0d
        E 40 bc 0a 0b
        E 40 bc 0a 0a
        E 40 bc 0a 08
        E 40 bc 0a 07
        E 40 bc 0a 06
        E 40 bc 0a 05
        E 40 bc 0a 03
        E 40 bc 0a 03
        E 40 bc 0a 02
        E 40 bc 0a 01
        E 40 bc 0a 00
        E 40 bc 0a 00
        E 40 bc 0a 00
        E 40 bc 0a 00
        E 40 bc 0a 00
        E 40 bc 0a 00
        E 40 bc 0a 00
        E 40 bc 0a 00
        E 40 bc 0a 00
        E 40 bc 0a 01
        E 40 bc 0a 02
        E 40 bc 0a 03
        E 40 bc 0a 03
        E 40 bc 0a 04
        E 40 bc 0a 05
        E 40 bc 0a 07
        E 40 bc 0a 07
        E 40 bc 0a 09
        E 40 bc 0a 0b
        E 40 bc 0a 0c
        E 40 bc 0a 0e
        E 40 bc 0a 10
        E 40 bc 0a 12
        E 40 bc 0a 14
        E 40 bc 0a 16
        E 40 bc 0a 18
        E 40 bc 0a 1a
        E 40 bc 0a 1c
        E 40 bc 0a 1f
        E 40 bc 0a 21
        E 40 bc 0a 24
        E 40 bc 0a 26
        E 40 bc 0a 28
        E 40 bc 0a 2b
        E 40 bc 0a 2d
        E 40 bc 0a 2f
        E 40 bc 0a 33
        E 45 bc 0a 06
        E 45 bc 0a 06
        E 45 bc 0a 07
        E 45 bc 0a 07
        E 45 bc 0a 07
        E 45 bc 0a 07
        E 45 bc 0a 08
        E 45 bc 0a 08
        E 45 bc 0a 08
        E 45 bc 0a 09
        E 45 bc 0a 09
        E 45 bc 0a 09
        E 45 bc 0a 09
        E 45 bc 0a 0a
        E 45 bc 0a 0a
        E 45 bc 0a 0a
        E 45 bc 0a 0a
        E 45 bc 0a 0b
        E 45 bc 0a 0b
        E 45 bc 0a 0b
        E 45 bc 0a 0b
        E 45 bc 0a 0b
        E 45 bc 0a 0c
        E 45 bc 0a 0c
        E 45 bc 0a 0c
        E 45 bc 0a 0c
        E 45 bc 0a 0c
        E 45 bc 0a 0c
        E 45 bc 0a 0c
        E 45 bc 0a 0c
        E 45 bc 0a 0c
        E 45 bc 0a 0c
        E 45 bc 0a 0c
        E 45 bc 0a 0c
        E 45 bc 0a 0c
        E 45 bc 0a 0c
        E 45 bc 0a 0c
        E 45 bc 0a 0c
        E 45 bc 0a 0c
        E 45 bc 0a 0c
        E 45 bc 0a 0c
        E 45 bc 0a 0c
        E 45 bc 0a 0b
        E 45 bc 0a 0b
        E 45 bc 0a 0b
        E 45 bc 0a 0b
        E 45 bc 0a 0b
        E 45 bc 0a 0b
        E 45 bc 0a 0a
        E 45 bc 0a 0a
        E 45 bc 0a 0a
        E 45 bc 0a 0a
        E 45 bc 0a 09
        E 45 bc 0a 09
        E 45 bc 0a 09
        E 45 bc 0a 08
        E 45 bc 0a 08
        E 45 bc 0a 08
        E 45 bc 0a 08
        E 45 bc 0a 07
        E 45 bc 0a 07
        E 45 bc 0a 07
        E 45 bc 0a 06
        E 45 bc 0a 06
        E 45 bc 0a 06
        E 45 bc 0a 05
        E 45 bc 0a 05
        E 45 bc 0a 05
        E 45 bc 0a 04
        E 45 bc 0a 04
        E 45 bc 0a 04
        E 45 bc 0a 04
        E 45 bc 0a 03
        E 45 bc 0a 03
        E 45 bc 0a 03
        E 45 bc 0a 02
        E 45 bc 0a 02
        E 45 bc 0a 02
        E 45 bc 0a 02
        E 45 bc 0a 01
        E 45 bc 0a 01
        E 45 bc 0a 01
        E 45 bc 0a 01
        E 45 bc 0a 01
        E 45 bc 0a 01
        E 45 bc 0a 00
        E 45 bc 0a 00
        E 45 bc 0a 00
        E 45 bc 0a 00
        E 45 bc 0a 00
        E 45 bc 0a 00
        E 45 bc 0a 00
        E 45 bc 0a 00
        E 45 bc 0a 00
        E 45 bc 0a 00
        E 45 bc 0a 00
        E 45 bc 0a 00
        E 45 bc 0a 00
        E 45 bc 0a 00
        E 45 bc 0a 00
        E 45 bc 0a 00
        E 45 bc 0a 00
        E 45 bc 0a 00
        E 45 bc 0a 00
        E 45 bc 0a 00
        E 45 bc 0a 00
        E 45 bc 0a 00
        E 45 bc 0a 01
        E 45 bc 0a 01
        E 45 bc 0a 01
        E 45 bc 0a 01
        E 45 bc 0a 01
        E 45 bc 0a 02
        E 45 bc 0a 02
        E 45 bc 0a 02
        E 45 bc 0a 02
        E 45 bc 0a 03
        E 45 bc 0a 03
        E 45 bc 0a 03
        E 45 bc 0a 03
        E 45 bc 0a 04
        E 45 bc 0a 04
        E 45 bc 0a 04
        E 45 bc 0a 05
        E 45 bc 0a 05
        E 45 bc 0a 05
        E 45 bc 0a 06
        E 45 bc 0a 06
        E 40 bc 0a 19
        E 40 bc 0a 1a
        E 40 bc 0a 1c
        E 40 bc 0a 1d
        E 40 bc 0a 1e
        E 40 bc 0a 1f
        E 40 bc 0a 20
        E 40 bc 0a 22
        E 40 bc 0a 23
        E 40 bc 0a 24
        E 40 bc 0a 25
        E 40 bc 0a 26
        E 40 bc 0a 27
        E 40 bc 0a 28
        E 40 bc 0a 29
        E 40 bc 0a 2a
        E 40 bc 0a 2b
        E 40 bc 0a 2c
        E 40 bc 0a 2d
        E 40 bc 0a 2e
        E 40 bc 0a 2e
        E 40 bc 0a 2f
        E 40 bc 0a 30
        E 40 bc 0a 30
        E 40 bc 0a 30
        E 40 bc 0a 31
        E 40 bc 0a 31
        E 40 bc 0a 32
        E 40 bc 0a 32
        E 40 bc 0a 32
        E 40 bc 0a 32
        E 40 bc 0a 32
        E 40 bc 0a 32
        E 40 bc 0a 32
        E 40 bc 0a 32
        E 40 bc 0a 32
        E 40 bc 0a 32
        E 40 bc 0a 32
        E 40 bc 0a 31
        E 40 bc 0a 31
        E 40 bc 0a 30
        E 40 bc 0a 30
        E 40 bc 0a 2f
        E 40 bc 0a 2e
        E 40 bc 0a 2e
        E 40 bc 0a 2d
        E 40 bc 0a 2c
        E 40 bc 0a 2c
        E 40 bc 0a 2b
        E 40 bc 0a 2a
        E 40 bc 0a 29
        E 40 bc 0a 28
        E 40 bc 0a 27
        E 40 bc 0a 26
        E 40 bc 0a 24
        E 40 bc 0a 23
        E 40 bc 0a 22
        E 40 bc 0a 21
        E 40 bc 0a 20
        E 40 bc 0a 1f
        E 40 bc 0a 1d
        E 40 bc 0a 1c
        E 40 bc 0a 1b
        E 40 bc 0a 1a
        E 40 bc 0a 18
        E 40 bc 0a 17
        E 40 bc 0a 16
        E 40 bc 0a 15
        E 40 bc 0a 13
        E 40 bc 0a 12
        E 40 bc 0a 11
        E 40 bc 0a 10
        E 40 bc 0a 0f
        E 40 bc 0a 0e
        E 40 bc 0a 0c
        E 40 bc 0a 0b
        E 40 bc 0a 0a
        E 40 bc 0a 09
        E 40 bc 0a 08
        E 40 bc 0a 07
        E 40 bc 0a 06
        E 40 bc 0a 06
        E 40 bc 0a 05
        E 40 bc 0a 04
        E 40 bc 0a 04
        E 40 bc 0a 03
        E 40 bc 0a 02
        E 40 bc 0a 02
        E 40 bc 0a 01
        E 40 bc 0a 01
        E 40 bc 0a 00
        E 40 bc 0a 00
        E 40 bc 0a 00
        E 40 bc 0a 00
        E 40 bc 0a 00
        E 40 bc 0a 00
        E 40 bc 0a 00
        E 40 bc 0a 00
        E 40 bc 0a 00
        E 40 bc 0a 00
        E 40 bc 0a 00
        E 40 bc 0a 01
        E 40 bc 0a 01
        E 40 bc 0a 02
        E 40 bc 0a 02
        E 40 bc 0a 02
        E 40 bc 0a 03
        E 40 bc 0a 04
        E 40 bc 0a 04
        E 40 bc 0a 05
        E 40 bc 0a 06
        E 40 bc 0a 07
        E 40 bc 0a 08
        E 40 bc 0a 09
        E 40 bc 0a 0a
        E 40 bc 0a 0b
        E 40 bc 0a 0c
        E 40 bc 0a 0d
        E 40 bc 0a 0e
        E 40 bc 0a 0f
        E 40 bc 0a 10
        E 40 bc 0a 12
        E 40 bc 0a 13
        E 40 bc 0a 14
        E 40 bc 0a 15
        E 40 bc 0a 16
        E 40 bc 0a 18
        E 40 bc 0a 19
        E 22 bc 0a 2c
        E 22 bc 0a 2e
        E 22 bc 0a 31
        E 22 bc 0a 33
        E 22 bc 0a 35
        E 22 bc 0a 37
        E 22 bc 0a 39
        E 22 bc 0a 3b
        E 22 bc 0a 3d
        E 22 bc 0a 3f
        E 22 bc 0a 41
        E 22 bc 0a 43
        E 22 bc 0a 45
        E 22 bc 0a 47
        E 22 bc 0a 48
        E 22 bc 0a 4a
        E 22 bc 0a 4c
        E 22 bc 0a 4d
        E 22 bc 0a 4f
        E 22 bc 0a 50
        E 22 bc 0a 51
        E 22 bc 0a 52
        E 22 bc 0a 54
        E 22 bc 0a 54
        E 22 bc 0a 55
        E 22 bc 0a 56
        E 22 bc 0a 56
        E 22 bc 0a 57
        E 22 bc 0a 58
        E 22 bc 0a 58
        E 22 bc 0a 58
        E 22 bc 0a 58
        E 22 bc 0a 58
        E 22 bc 0a 58
        E 22 bc 0a 58
        E 22 bc 0a 58
        E 22 bc 0a 58
        E 22 bc 0a 57
        E 22 bc 0a 56
        E 22 bc 0a 56
        E 22 bc 0a 55
        E 22 bc 0a 54
        E 22 bc 0a 53
        E 22 bc 0a 51
        E 22 bc 0a 51
        E 22 bc 0a 4f
        E 22 bc 0a 4e
        E 22 bc 0a 4d
        E 22 bc 0a 4b
        E 22 bc 0a 49
        E 22 bc 0a 48
        E 22 bc 0a 46
        E 22 bc 0a 44
        E 22 bc 0a 42
        E 22 bc 0a 40
        E 22 bc 0a 3e
        E 22 bc 0a 3c
        E 22 bc 0a 3a
        E 22 bc 0a 38
        E 22 bc 0a 36
        E 22 bc 0a 33
        E 22 bc 0a 31
        E 22 bc 0a 2f
        E 22 bc 0a 2d
        E 22 bc 0a 2b
        E 22 bc 0a 29
        E 22 bc 0a 27
        E 22 bc 0a 25
        E 22 bc 0a 22
        E 22 bc 0a 20
        E 22 bc 0a 1e
        E 22 bc 0a 1c
        E 22 bc 0a 1a
        E 22 bc 0a 18
        E 22 bc 0a 16
        E 22 bc 0a 14
        E 22 bc 0a 12
        E 22 bc 0a 10
        E 22 bc 0a 0f
        E 22 bc 0a 0d
        E 22 bc 0a 0b
        E 22 bc 0a 0a
        E 22 bc 0a 09
        E 22 bc 0a 07
        E 22 bc 0a 07
        E 22 bc 0a 05
        E 22 bc 0a 04
        E 22 bc 0a 03
        E 22 bc 0a 02
        E 22 bc 0a 02
        E 22 bc 0a 01
        E 22 bc 0a 00
        E 22 bc 0a 00
        E 22 bc 0a 00
        E 22 bc 0a 00
        E 22 bc 0a 00
        E 22 bc 0a 00
        E 22 bc 0a 00
        E 22 bc 0a 00
        E 22 bc 0a 00
        E 22 bc 0a 01
        E 22 bc 0a 02
        E 22 bc 0a 02
        E 22 bc 0a 03
        E 22 bc 0a 04
        E 22 bc 0a 04
        E 22 bc 0a 06
        E 22 bc 0a 07
        E 22 bc 0a 08
        E 22 bc 0a 09
        E 22 bc 0a 0b
        E 22 bc 0a 0c
        E 22 bc 0a 0e
        E 22 bc 0a 10
        E 22 bc 0a 11
        E 22 bc 0a 13
        E 22 bc 0a 15
        E 22 bc 0a 17
        E 22 bc 0a 19
        E 22 bc 0a 1b
        E 22 bc 0a 1d
        E 22 bc 0a 1f
        E 22 bc 0a 21
        E 22 bc 0a 23
        E 22 bc 0a 25
        E 22 bc 0a 27
        E 22 bc 0a 2a
        E 22 bc 0a 2c
        E 36 bc 0a 40
        E 36 bc 0a 43
        E 36 bc 0a 46
        E 36 bc 0a 49
        E 36 bc 0a 4c
        E 36 bc 0a 4f
        E 36 bc 0a 52
        E 36 bc 0a 55
        E 36 bc 0a 58
        E 36 bc 0a 5b
        E 36 bc 0a 5e
        E 36 bc 0a 60
        E 36 bc 0a 63
        E 36 bc 0a 66
        E 36 bc 0a 68
        E 36 bc 0a 6a
        E 36 bc 0a 6d
        E 36 bc 0a 6f
        E 36 bc 0a 71
        E 36 bc 0a 73
        E 36 bc 0a 75
        E 36 bc 0a 76
        E 36 bc 0a 78
        E 36 bc 0a 79
        E 36 bc 0a 7a
        E 36 bc 0a 7b
        E 36 bc 0a 7c
        E 36 bc 0a 7d
        E 36 bc 0a 7e
        E 36 bc 0a 7e
        E 36 bc 0a 7f
        E 36 bc 0a 7f
        E 36 bc 0a 7f
        E 36 bc 0a 7f
        E 36 bc 0a 7f
        E 36 bc 0a 7e
        E 36 bc 0a 7e
        E 36 bc 0a 7d
        E 36 bc 0a 7c
        E 36 bc 0a 7b
        E 36 bc 0a 7a
        E 36 bc 0a 78
        E 36 bc 0a 77
        E 36 bc 0a 75
        E 36 bc 0a 74
        E 36 bc 0a 72
        E 36 bc 0a 70
        E 36 bc 0a 6e
        E 36 bc 0a 6c
        E 36 bc 0a 69
        E 36 bc 0a 67
        E 36 bc 0a 64
        E 36 bc 0a 62
        E 36 bc 0a 5f
        E 36 bc 0a 5c
        E 36 bc 0a 59
        E 36 bc 0a 57
        E 36 bc 0a 54
        E 36 bc 0a 51
        E 36 bc 0a 4e
        E 36 bc 0a 4a
        E 36 bc 0a 47
        E 36 bc 0a 44
        E 36 bc 0a 41
        E 36 bc 0a 3e
        E 36 bc 0a 3b
        E 36 bc 0a 38
        E 36 bc 0a 35
        E 36 bc 0a 31
        E 36 bc 0a 2e
        E 36 bc 0a 2b
        E 36 bc 0a 28
        E 36 bc 0a 26
        E 36 bc 0a 23
        E 36 bc 0a 20
        E 36 bc 0a 1d
        E 36 bc 0a 1b
        E 36 bc 0a 18
        E 36 bc 0a 16
        E 36 bc 0a 13
        E 36 bc 0a 11
        E 36 bc 0a 0f
        E 36 bc 0a 0d
        E 36 bc 0a 0b
        E 36 bc 0a 0a
        E 36 bc 0a 08
        E 36 bc 0a 07
        E 36 bc 0a 05
        E 36 bc 0a 04
        E 36 bc 0a 03
        E 36 bc 0a 02
        E 36 bc 0a 01
        E 36 bc 0a 01
        E 36 bc 0a 00
        E 36 bc 0a 00
        E 36 bc 0a 00
        E 36 bc 0a 00
        E 36 bc 0a 00
        E 36 bc 0a 01
        E 36 bc 0a 01
        E 36 bc 0a 02
        E 36 bc 0a 03
        E 36 bc 0a 04
        E 36 bc 0a 05
        E 36 bc 0a 06
        E 36 bc 0a 07
        E 36 bc 0a 09
        E 36 bc 0a 0a
        E 36 bc 0a 0c
        E 36 bc 0a 0e
        E 36 bc 0a 10
        E 36 bc 0a 12
        E 36 bc 0a 15
        E 36 bc 0a 17
        E 36 bc 0a 19
        E 36 bc 0a 1c
        E 36 bc 0a 1f
        E 36 bc 0a 21
        E 36 bc 0a 24
        E 36 bc 0a 27
        E 36 bc 0a 2a
        E 36 bc 0a 2d
        E 36 bc 0a 30
        E 36 bc 0a 33
        E 36 bc 0a 36
        E 36 bc 0a 39
        E 36 bc 0a 3c
        E 36 bc 0a 40
        E 4 bc 0a 39
        E 4 bc 0a 3c
        E 4 bc 0a 3f
        E 4 bc 0a 41
        E 4 bc 0a 44
        E 4 bc 0a 47
        E 4 bc 0a 49
        E 4 bc 0a 4c
        E 4 bc 0a 4f
        E 4 bc 0a 51
        E 4 bc 0a 54
        E 4 bc 0a 56
        E 4 bc 0a 59
        E 4 bc 0a 5b
        E 4 bc 0a 5d
        E 4 bc 0a 5f
        E 4 bc 0a 62
        E 4 bc 0a 63
        E 4 bc 0a 65
        E 4 bc 0a 67
        E 4 bc 0a 69
        E 4 bc 0a 6a
        E 4 bc 0a 6c
        E 4 bc 0a 6c
        E 4 bc 0a 6d
        E 4 bc 0a 6e
        E 4 bc 0a 6f
        E 4 bc 0a 70
        E 4 bc 0a 71
        E 4 bc 0a 71
        E 4 bc 0a 72
        E 4 bc 0a 72
        E 4 bc 0a 72
        E 4 bc 0a 72
        E 4 bc 0a 72
        E 4 bc 0a 71
        E 4 bc 0a 71
        E 4 bc 0a 70
        E 4 bc 0a 6f
        E 4 bc 0a 6e
        E 4 bc 0a 6d
        E 4 bc 0a 6c
        E 4 bc 0a 6b
        E 4 bc 0a 69
        E 4 bc 0a 68
        E 4 bc 0a 66
        E 4 bc 0a 64
        E 4 bc 0a 63
        E 4 bc 0a 61
        E 4 bc 0a 5e
        E 4 bc 0a 5c
        E 4 bc 0a 5a
        E 4 bc 0a 58
        E 4 bc 0a 55
        E 4 bc 0a 52
        E 4 bc 0a 50
        E 4 bc 0a 4e
        E 4 bc 0a 4b
        E 4 bc 0a 48
        E 4 bc 0a 46
        E 4 bc 0a 42
        E 4 bc 0a 3f
        E 4 bc 0a 3d
        E 4 bc 0a 3a
        E 4 bc 0a 37
        E 4 bc 0a 35
        E 4 bc 0a 32
        E 4 bc 0a 2f
        E 4 bc 0a 2c
        E 4 bc 0a 29
        E 4 bc 0a 26
        E 4 bc 0a 24
        E 4 bc 0a 22
        E 4 bc 0a 1f
        E 4 bc 0a 1c
        E 4 bc 0a 1a
        E 4 bc 0a 18
        E 4 bc 0a 15
        E 4 bc 0a 13
        E 4 bc 0a 11
        E 4 bc 0a 0f
        E 4 bc 0a 0d
        E 4 bc 0a 0b
        E 4 bc 0a 09
        E 4 bc 0a 09
        E 4 bc 0a 07
        E 4 bc 0a 06
        E 4 bc 0a 04
        E 4 bc 0a 03
        E 4 bc 0a 02
        E 4 bc 0a 01
        E 4 bc 0a 00
        E 4 bc 0a 00
        E 4 bc 0a 00
        E 4 bc 0a 00
        E 4 bc 0a 00
        E 4 bc 0a 00
        E 4 bc 0a 00
        E 4 bc 0a 00
        E 4 bc 0a 00
        E 4 bc 0a 01
        E 4 bc 0a 02
        E 4 bc 0a 03
        E 4 bc 0a 04
        E 4 bc 0a 05
        E 4 bc 0a 06
        E 4 bc 0a 08
        E 4 bc 0a 09
        E 4 bc 0a 0a
        E 4 bc 0a 0c
        E 4 bc 0a 0e
        E 4 bc 0a 10
        E 4 bc 0a 12
        E 4 bc 0a 14
        E 4 bc 0a 16
        E 4 bc 0a 19
        E 4 bc 0a 1b
        E 4 bc 0a 1d
        E 4 bc 0a 20
        E 4 bc 0a 23
        E 4 bc 0a 25
        E 4 bc 0a 28
        E 4 bc 0a 2b
        E 4 bc 0a 2d
        E 4 bc 0a 30
        E 4 bc 0a 33
        E 4 bc 0a 36
        E 4 bc 0a 39
        E 18 bc 0a 40
        E 18 bc 0a 43
        E 18 bc 0a 46
        E 18 bc 0a 49
        E 18 bc 0a 4c
        E 18 bc 0a 4f
        E 18 bc 0a 52
        E 18 bc 0a 55
        E 18 bc 0a 58
        E 18 bc 0a 5b
        E 18 bc 0a 5e
        E 18 bc 0a 60
        E 18 bc 0a 63
        E 18 bc 0a 66
        E 18 bc 0a 68
        E 18 bc 0a 6a
        E 18 bc 0a 6d
        E 18 bc 0a 6f
        E 18 bc 0a 71
        E 18 bc 0a 73
        E 18 bc 0a 75
        E 18 bc 0a 76
        E 18 bc 0a 78
        E 18 bc 0a 79
        E 18 bc 0a 7a
        E 18 bc 0a 7b
        E 18 bc 0a 7c
        E 18 bc 0a 7d
        E 18 bc 0a 7e
        E 18 bc 0a 7e
        E 18 bc 0a 7f
        E 18 bc 0a 7f
        E 18 bc 0a 7f
        E 18 bc 0a 7f
        E 18 bc 0a 7f
        E 18 bc 0a 7e
        E 18 bc 0a 7e
        E 18 bc 0a 7d
        E 18 bc 0a 7c
        E 18 bc 0a 7b
        E 18 bc 0a 7a
        E 18 bc 0a 78
        E 18 bc 0a 77
        E 18 bc 0a 75
        E 18 bc 0a 74
        E 18 bc 0a 72
        E 18 bc 0a 70
        E 18 bc 0a 6e
        E 18 bc 0a 6c
        E 18 bc 0a 69
        E 18 bc 0a 67
        E 18 bc 0a 64
        E 18 bc 0a 62
        E 18 bc 0a 5f
        E 18 bc 0a 5c
        E 18 bc 0a 59
        E 18 bc 0a 57
        E 18 bc 0a 54
        E 18 bc 0a 51
        E 18 bc 0a 4e
        E 18 bc 0a 4a
        E 18 bc 0a 47
        E 18 bc 0a 44
        E 18 bc 0a 41
        E 18 bc 0a 3e
        E 18 bc 0a 3b
        E 18 bc 0a 38
        E 18 bc 0a 35
        E 18 bc 0a 31
        E 18 bc 0a 2e
        E 18 bc 0a 2b
        E 18 bc 0a 28
        E 18 bc 0a 26
        E 18 bc 0a 23
        E 18 bc 0a 20
        E 18 bc 0a 1d
        E 18 bc 0a 1b
        E 18 bc 0a 18
        E 18 bc 0a 16
        E 18 bc 0a 13
        E 18 bc 0a 11
        E 18 bc 0a 0f
        E 18 bc 0a 0d
        E 18 bc 0a 0b
        E 18 bc 0a 0a
        E 18 bc 0a 08
        E 18 bc 0a 07
        E 18 bc 0a 05
        E 18 bc 0a 04
        E 18 bc 0a 03
        E 18 bc 0a 02
        E 18 bc 0a 01
        E 18 bc 0a 01
        E 18 bc 0a 00
        E 18 bc 0a 00
        E 18 bc 0a 00
        E 18 bc 0a 00
        E 18 bc 0a 00
        E 18 bc 0a 01
        E 18 bc 0a 01
        E 18 bc 0a 02
        E 18 bc 0a 03
        E 18 bc 0a 04
        E 18 bc 0a 05
        E 18 bc 0a 06
        E 18 bc 0a 07
        E 18 bc 0a 09
        E 18 bc 0a 0a
        E 18 bc 0a 0c
        E 18 bc 0a 0e
        E 18 bc 0a 10
        E 18 bc 0a 12
        E 18 bc 0a 15
        E 18 bc 0a 17
        E 18 bc 0a 19
        E 18 bc 0a 1c
        E 18 bc 0a 1f
        E 18 bc 0a 21
        E 18 bc 0a 24
        E 18 bc 0a 27
        E 18 bc 0a 2a
        E 18 bc 0a 2d
        E 18 bc 0a 30
        E 18 bc 0a 33
        E 18 bc 0a 36
        E 18 bc 0a 39
        E 18 bc 0a 3c
        E 18 bc 0a 40
        E 31 bc 0a 39
        E 31 bc 0a 3c
        E 31 bc 0a 3f
        E 31 bc 0a 41
        E 31 bc 0a 44
        E 31 bc 0a 47
        E 31 bc 0a 49
        E 31 bc 0a 4c
        E 31 bc 0a 4f
        E 31 bc 0a 51
        E 31 bc 0a 54
        E 31 bc 0a 56
        E 31 bc 0a 59
        E 31 bc 0a 5b
        E 31 bc 0a 5d
        E 31 bc 0a 5f
        E 31 bc 0a 62
        E 31 bc 0a 63
        E 31 bc 0a 65
        E 31 bc 0a 67
        E 31 bc 0a 69
        E 31 bc 0a 6a
        E 31 bc 0a 6c
        E 31 bc 0a 6c
        E 31 bc 0a 6d
        E 31 bc 0a 6e
        E 31 bc 0a 6f
        E 31 bc 0a 70
        E 31 bc 0a 71
        E 31 bc 0a 71
        E 31 bc 0a 72
        E 31 bc 0a 72
        E 31 bc 0a 72
        E 31 bc 0a 72
        E 31 bc 0a 72
        E 31 bc 0a 71
        E 31 bc 0a 71
        E 31 bc 0a 70
        E 31 bc 0a 6f
        E 31 bc 0a 6e
        E 31 bc 0a 6d
        E 31 bc 0a 6c
        E 31 bc 0a 6b
        E 31 bc 0a 69
        E 31 bc 0a 68
        E 31 bc 0a 66
        E 31 bc 0a 64
        E 31 bc 0a 63
        E 31 bc 0a 61
        E 31 bc 0a 5e
        E 31 bc 0a 5c
        E 31 bc 0a 5a
        E 31 bc 0a 58
        E 31 bc 0a 55
        E 31 bc 0a 52
        E 31 bc 0a 50
        E 31 bc 0a 4e
        E 31 bc 0a 4b
        E 31 bc 0a 48
        E 31 bc 0a 46
        E 31 bc 0a 42
        E 31 bc 0a 3f
        E 31 bc 0a 3d
        E 31 bc 0a 3a
        E 31 bc 0a 37
        E 31 bc 0a 35
        E 31 bc 0a 32
        E 31 bc 0a 2f
        E 31 bc 0a 2c
        E 31 bc 0a 29
        E 31 bc 0a 26
        E 31 bc 0a 24
        E 31 bc 0a 22
        E 31 bc 0a 1f
        E 31 bc 0a 1c
        E 31 bc 0a 1a
        E 31 bc 0a 18
        E 31 bc 0a 15
        E 31 bc 0a 13
        E 31 bc 0a 11
        E 31 bc 0a 0f
        E 31 bc 0a 0d
        E 31 bc 0a 0b
        E 31 bc 0a 09
        E 31 bc 0a 09
        E 31 bc 0a 07
        E 31 bc 0a 06
        E 31 bc 0a 04
        E 31 bc 0a 03
        E 31 bc 0a 02
        E 31 bc 0a 01
        E 31 bc 0a 00
        E 31 bc 0a 00
        E 31 bc 0a 00
        E 31 bc 0a 00
        E 31 bc 0a 00
        E 31 bc 0a 00
        E 31 bc 0a 00
        E 31 bc 0a 00
        E 31 bc 0a 00
        E 31 bc 0a 01
        E 31 bc 0a 02
        E 31 bc 0a 03
        E 31 bc 0a 04
        E 31 bc 0a 05
        E 31 bc 0a 06
        E 31 bc 0a 08
        E 31 bc 0a 09
        E 31 bc 0a 0a
        E 31 bc 0a 0c
        E 31 bc 0a 0e
        E 31 bc 0a 10
        E 31 bc 0a 12
        E 31 bc 0a 14
        E 31 bc 0a 16
        E 31 bc 0a 19
        E 31 bc 0a 1b
        E 31 bc 0a 1d
        E 31 bc 0a 20
        E 31 bc 0a 23
        E 31 bc 0a 25
        E 31 bc 0a 28
        E 31 bc 0a 2b
        E 31 bc 0a 2d
        E 31 bc 0a 30
        E 31 bc 0a 33
        E 31 bc 0a 36
        E 31 bc 0a 39
        E 22 bc 0a 20
        E 22 bc 0a 21
        E 22 bc 0a 23
        E 22 bc 0a 24
        E 22 bc 0a 26
        E 22 bc 0a 27
        E 22 bc 0a 29
        E 22 bc 0a 2a
        E 22 bc 0a 2c
        E 22 bc 0a 2d
        E 22 bc 0a 2f
        E 22 bc 0a 30
        E 22 bc 0a 31
        E 22 bc 0a 33
        E 22 bc 0a 34
        E 22 bc 0a 35
        E 22 bc 0a 36
        E 22 bc 0a 37
        E 22 bc 0a 38
        E 22 bc 0a 39
        E 22 bc 0a 3a
        E 22 bc 0a 3b
        E 22 bc 0a 3c
        E 22 bc 0a 3c
        E 22 bc 0a 3d
        E 22 bc 0a 3d
        E 22 bc 0a 3e
        E 22 bc 0a 3e
        E 22 bc 0a 3f
        E 22 bc 0a 3f
        E 22 bc 0a 3f
        E 22 bc 0a 3f
        E 22 bc 0a 3f
        E 22 bc 0a 3f
        E 22 bc 0a 3f
        E 22 bc 0a 3f
        E 22 bc 0a 3f
        E 22 bc 0a 3e
        E 22 bc 0a 3e
        E 22 bc 0a 3d
        E 22 bc 0a 3d
        E 22 bc 0a 3c
        E 22 bc 0a 3b
        E 22 bc 0a 3a
        E 22 bc 0a 3a
        E 22 bc 0a 39
        E 22 bc 0a 38
        E 22 bc 0a 37
        E 22 bc 0a 36
        E 22 bc 0a 34
        E 22 bc 0a 33
        E 22 bc 0a 32
        E 22 bc 0a 31
        E 22 bc 0a 2f
        E 22 bc 0a 2e
        E 22 bc 0a 2c
        E 22 bc 0a 2b
        E 22 bc 0a 2a
        E 22 bc 0a 28
        E 22 bc 0a 27
        E 22 bc 0a 25
        E 22 bc 0a 23
        E 22 bc 0a 22
        E 22 bc 0a 20
        E 22 bc 0a 1f
        E 22 bc 0a 1d
        E 22 bc 0a 1c
        E 22 bc 0a 1a
        E 22 bc 0a 18
        E 22 bc 0a 17
        E 22 bc 0a 15
        E 22 bc 0a 14
        E 22 bc 0a 13
        E 22 bc 0a 11
        E 22 bc 0a 10
        E 22 bc 0a 0e
        E 22 bc 0a 0d
        E 22 bc 0a 0c
        E 22 bc 0a 0b
        E 22 bc 0a 09
        E 22 bc 0a 08
        E 22 bc 0a 07
        E 22 bc 0a 06
        E 22 bc 0a 05
        E 22 bc 0a 05
        E 22 bc 0a 04
        E 22 bc 0a 03
        E 22 bc 0a 02
        E 22 bc 0a 02
        E 22 bc 0a 01
        E 22 bc 0a 01
        E 22 bc 0a 00
        E 22 bc 0a 00
        E 22 bc 0a 00
        E 22 bc 0a 00
        E 22 bc 0a 00
        E 22 bc 0a 00
        E 22 bc 0a 00
        E 22 bc 0a 00
        E 22 bc 0a 00
        E 22 bc 0a 01
        E 22 bc 0a 01
        E 22 bc 0a 02
        E 22 bc 0a 02
        E 22 bc 0a 03
        E 22 bc 0a 03
        E 22 bc 0a 04
        E 22 bc 0a 05
        E 22 bc 0a 06
        E 22 bc 0a 07
        E 22 bc 0a 08
        E 22 bc 0a 09
        E 22 bc 0a 0a
        E 22 bc 0a 0b
        E 22 bc 0a 0c
        E 22 bc 0a 0e
        E 22 bc 0a 0f
        E 22 bc 0a 10
        E 22 bc 0a 12
        E 22 bc 0a 13
        E 22 bc 0a 15
        E 22 bc 0a 16
        E 22 bc 0a 18
        E 22 bc 0a 19
        E 22 bc 0a 1b
        E 22 bc 0a 1c
        E 22 bc 0a 1e
        E 22 bc 0a 20
        E 22 bc 0a 20
        E 22 bc 0a 21
        E 22 bc 0a 23
        E 22 bc 0a 24
        E 22 bc 0a 26
        E 22 bc 0a 27
        E 22 bc 0a 29
        E 22 bc 0a 2a
        E 22 bc 0a 2c
        E 22 bc 0a 2d
        E 22 bc 0a 2f
        E 22 bc 0a 30
        E 22 bc 0a 31
        E 22 bc 0a 33
        E 22 bc 0a 34
        E 22 bc 0a 35
        E 22 bc 0a 36
        E 22 bc 0a 37
        E 22 bc 0a 38
        E 22 bc 0a 39
        E 22 bc 0a 3a
        E 22 bc 0a 3b
        E 22 bc 0a 3c
        E 22 bc 0a 3c
        E 22 bc 0a 3d
        E 22 bc 0a 3d
        E 22 bc 0a 3e
        E 22 bc 0a 3e
        E 22 bc 0a 3f
        E 22 bc 0a 3f
        E 22 bc 0a 3f
        E 22 bc 0a 3f
        E 22 bc 0a 3f
        E 22 bc 0a 3f
        E 22 bc 0a 3f
        E 22 bc 0a 3f
        E 22 bc 0a 3f
        E 22 bc 0a 3e
        E 22 bc 0a 3e
        E 22 bc 0a 3d
        E 22 bc 0a 3d
        E 22 bc 0a 3c
        E 22 bc 0a 3b
        E 22 bc 0a 3a
        E 22 bc 0a 3a
        E 22 bc 0a 39
        E 22 bc 0a 38
        E 22 bc 0a 37
        E 22 bc 0a 36
        E 22 bc 0a 34
        E 22 bc 0a 33
        E 22 bc 0a 32
        E 22 bc 0a 31
        E 22 bc 0a 2f
        E 22 bc 0a 2e
        E 22 bc 0a 2c
        E 22 bc 0a 2b
        E 22 bc 0a 2a
        E 22 bc 0a 28
        E 22 bc 0a 27
        E 22 bc 0a 25
        E 22 bc 0a 23
        E 22 bc 0a 22
        E 22 bc 0a 20
        E 22 bc 0a 1f
        E 22 bc 0a 1d
        E 22 bc 0a 1c
        E 22 bc 0a 1a
        E 22 bc 0a 18
        E 22 bc 0a 17
        E 22 bc 0a 15
        E 22 bc 0a 14
        E 22 bc 0a 13
        E 22 bc 0a 11
        E 22 bc 0a 10
        E 22 bc 0a 0e
        E 22 bc 0a 0d
        E 22 bc 0a 0c
        E 22 bc 0a 0b
        E 22 bc 0a 09
        E 22 bc 0a 08
        E 22 bc 0a 07
        E 22 bc 0a 06
        E 22 bc 0a 05
        E 22 bc 0a 05
        E 22 bc 0a 04
        E 22 bc 0a 03
        E 22 bc 0a 02
        E 22 bc 0a 02
        E 22 bc 0a 01
        E 22 bc 0a 01
        E 22 bc 0a 00
        E 22 bc 0a 00
        E 22 bc 0a 00
        E 22 bc 0a 00
        E 22 bc 0a 00
        E 22 bc 0a 00
        E 22 bc 0a 00
        E 22 bc 0a 00
        E 22 bc 0a 00
        E 22 bc 0a 01
        E 22 bc 0a 01
        E 22 bc 0a 02
        E 22 bc 0a 02
        E 22 bc 0a 03
        E 22 bc 0a 03
        E 22 bc 0a 04
        E 22 bc 0a 05
        E 22 bc 0a 06
        E 22 bc 0a 07
        E 22 bc 0a 08
        E 22 bc 0a 09
        E 22 bc 0a 0a
        E 22 bc 0a 0b
        E 22 bc 0a 0c
        E 22 bc 0a 0e
        E 22 bc 0a 0f
        E 22 bc 0a 10
        E 22 bc 0a 12
        E 22 bc 0a 13
        E 22 bc 0a 15
        E 22 bc 0a 16
        E 22 bc 0a 18
        E 22 bc 0a 19
        E 22 bc 0a 1b
        E 22 bc 0a 1c
        E 22 bc 0a 1e
        E 22 bc 0a 20
        E 45 bc 0a 2c
        E 45 bc 0a 2e
        E 45 bc 0a 31
        E 45 bc 0a 33
        E 45 bc 0a 35
        E 45 bc 0a 37
        E 45 bc 0a 39
        E 45 bc 0a 3b
        E 45 bc 0a 3d
        E 45 bc 0a 3f
        E 45 bc 0a 41
        E 45 bc 0a 43
        E 45 bc 0a 45
        E 45 bc 0a 47
        E 45 bc 0a 48
        E 45 bc 0a 4a
        E 45 bc 0a 4c
        E 45 bc 0a 4d
        E 45 bc 0a 4f
        E 45 bc 0a 50
        E 45 bc 0a 51
        E 45 bc 0a 52
        E 45 bc 0a 54
        E 45 bc 0a 54
        E 45 bc 0a 55
        E 45 bc 0a 56
        E 45 bc 0a 56
        E 45 bc 0a 57
        E 45 bc 0a 58
        E 45 bc 0a 58
        E 45 bc 0a 58
        E 45 bc 0a 58
        E 45 bc 0a 58
        E 45 bc 0a 58
        E 45 bc 0a 58
        E 45 bc 0a 58
        E 45 bc 0a 58
        E 45 bc 0a 57
        E 45 bc 0a 56
        E 45 bc 0a 56
        E 45 bc 0a 55
        E 45 bc 0a 54
        E 45 bc 0a 53
        E 45 bc 0a 51
        E 45 bc 0a 51
        E 45 bc 0a 4f
        E 45 bc 0a 4e
        E 45 bc 0a 4d
        E 45 bc 0a 4b
        E 45 bc 0a 49
        E 45 bc 0a 48
        E 45 bc 0a 46
        E 45 bc 0a 44
        E 45 bc 0a 42
        E 45 bc 0a 40
        E 45 bc 0a 3e
        E 45 bc 0a 3c
        E 45 bc 0a 3a
        E 45 bc 0a 38
        E 45 bc 0a 36
        E 45 bc 0a 33
        E 45 bc 0a 31
        E 45 bc 0a 2f
        E 45 bc 0a 2d
        E 45 bc 0a 2b
        E 45 bc 0a 29
        E 45 bc 0a 27
        E 45 bc 0a 25
        E 45 bc 0a 22
        E 45 bc 0a 20
        E 45 bc 0a 1e
        E 45 bc 0a 1c
        E 45 bc 0a 1a
        E 45 bc 0a 18
        E 45 bc 0a 16
        E 45 bc 0a 14
        E 45 bc 0a 12
        E 45 bc 0a 10
        E 45 bc 0a 0f
        E 45 bc 0a 0d
        E 45 bc 0a 0b
        E 45 bc 0a 0a
        E 45 bc 0a 09
        E 45 bc 0a 07
        E 45 bc 0a 07
        E 45 bc 0a 05
        E 45 bc 0a 04
        E 45 bc 0a 03
        E 45 bc 0a 02
        E 45 bc 0a 02
        E 45 bc 0a 01
        E 45 bc 0a 00
        E 45 bc 0a 00
        E 45 bc 0a 00
        E 45 bc 0a 00
        E 45 bc 0a 00
        E 45 bc 0a 00
        E 45 bc 0a 00
        E 45 bc 0a 00
        E 45 bc 0a 00
        E 45 bc 0a 01
        E 45 bc 0a 02
        E 45 bc 0a 02
        E 45 bc 0a 03
        E 45 bc 0a 04
        E 45 bc 0a 04
        E 45 bc 0a 06
        E 45 bc 0a 07
        E 45 bc 0a 08
        E 45 bc 0a 09
        E 45 bc 0a 0b
        E 45 bc 0a 0c
        E 45 bc 0a 0e
        E 45 bc 0a 10
        E 45 bc 0a 11
        E 45 bc 0a 13
        E 45 bc 0a 15
        E 45 bc 0a 17
        E 45 bc 0a 19
        E 45 bc 0a 1b
        E 45 bc 0a 1d
        E 45 bc 0a 1f
        E 45 bc 0a 21
        E 45 bc 0a 23
        E 45 bc 0a 25
        E 45 bc 0a 27
        E 45 bc 0a 2a
        E 45 bc 0a 2c
        E 40 bc 0a 33
        E 40 bc 0a 35
        E 40 bc 0a 37
        E 40 bc 0a 3a
        E 40 bc 0a 3c
        E 40 bc 0a 3f
        E 40 bc 0a 41
        E 40 bc 0a 44
        E 40 bc 0a 46
        E 40 bc 0a 48
        E 40 bc 0a 4b
        E 40 bc 0a 4c
        E 40 bc 0a 4f
        E 40 bc 0a 51
        E 40 bc 0a 53
        E 40 bc 0a 54
        E 40 bc 0a 57
        E 40 bc 0a 58
        E 40 bc 0a 5a
        E 40 bc 0a 5b
        E 40 bc 0a 5d
        E 40 bc 0a 5e
        E 40 bc 0a 5f
        E 40 bc 0a 60
        E 40 bc 0a 61
        E 40 bc 0a 62
        E 40 bc 0a 63
        E 40 bc 0a 63
        E 40 bc 0a 64
        E 40 bc 0a 64
        E 40 bc 0a 65
        E 40 bc 0a 65
        E 40 bc 0a 65
        E 40 bc 0a 65
        E 40 bc 0a 65
        E 40 bc 0a 64
        E 40 bc 0a 64
        E 40 bc 0a 63
        E 40 bc 0a 63
        E 40 bc 0a 62
        E 40 bc 0a 61
        E 40 bc 0a 5f
        E 40 bc 0a 5f
        E 40 bc 0a 5d
        E 40 bc 0a 5c
        E 40 bc 0a 5b
        E 40 bc 0a 59
        E 40 bc 0a 57
        E 40 bc 0a 56
        E 40 bc 0a 54
        E 40 bc 0a 52
        E 40 bc 0a 50
        E 40 bc 0a 4e
        E 40 bc 0a 4c
        E 40 bc 0a 49
        E 40 bc 0a 47
        E 40 bc 0a 45
        E 40 bc 0a 43
        E 40 bc 0a 40
        E 40 bc 0a 3e
        E 40 bc 0a 3b
        E 40 bc 0a 38
        E 40 bc 0a 36
        E 40 bc 0a 33
        E 40 bc 0a 31
        E 40 bc 0a 2f
        E 40 bc 0a 2c
        E 40 bc 0a 2a
        E 40 bc 0a 27
        E 40 bc 0a 24
        E 40 bc 0a 22
        E 40 bc 0a 1f
        E 40 bc 0a 1e
        E 40 bc 0a 1b
        E 40 bc 0a 19
        E 40 bc 0a 17
        E 40 bc 0a 15
        E 40 bc 0a 13
        E 40 bc 0a 11
        E 40 bc 0a 0f
        E 40 bc 0a 0d
        E 40 bc 0a 0b
        E 40 bc 0a 0a
        E 40 bc 0a 08
        E 40 bc 0a 07
        E 40 bc 0a 06
        E 40 bc 0a 05
        E 40 bc 0a 03
        E 40 bc 0a 03
        E 40 bc 0a 02
        E 40 bc 0a 01
        E 40 bc 0a 00
        E 40 bc 0a 00
        E 40 bc 0a 00
        E 40 bc 0a 00
        E 40 bc 0a 00
        E 40 bc 0a 00
        E 40 bc 0a 00
        E 40 bc 0a 00
        E 40 bc 0a 00
        E 40 bc 0a 01
        E 40 bc 0a 02
        E 40 bc 0a 03
        E 40 bc 0a 03
        E 40 bc 0a 04
        E 40 bc 0a 05
        E 40 bc 0a 07
        E 40 bc 0a 07
        E 40 bc 0a 09
        E 40 bc 0a 0b
        E 40 bc 0a 0c
        E 40 bc 0a 0e
        E 40 bc 0a 10
        E 40 bc 0a 12
        E 40 bc 0a 14
        E 40 bc 0a 16
        E 40 bc 0a 18
        E 40 bc 0a 1a
        E 40 bc 0a 1c
        E 40 bc 0a 1f
        E 40 bc 0a 21
        E 40 bc 0a 24
        E 40 bc 0a 26
        E 40 bc 0a 28
        E 40 bc 0a 2b
        E 40 bc 0a 2d
        E 40 bc 0a 2f
        E 40 bc 0a 33
        E 45 bc 0a 06
        E 45 bc 0a 06
        E 45 bc 0a 07
        E 45 bc 0a 07
        E 45 bc 0a 07
        E 45 bc 0a 07
        E 45 bc 0a 08
        E 45 bc 0a 08
        E 45 bc 0a 08
        E 45 bc 0a 09
        E 45 bc 0a 09
        E 45 bc 0a 09
        E 45 bc 0a 09
        E 45 bc 0a 0a
        E 45 bc 0a 0a
        E 45 bc 0a 0a
        E 45 bc 0a 0a
        E 45 bc 0a 0b
        E 45 bc 0a 0b
        E 45 bc 0a 0b
        E 45 bc 0a 0b
        E 45 bc 0a 0b
        E 45 bc 0a 0c
        E 45 bc 0a 0c
        E 45 bc 0a 0c
        E 45 bc 0a 0c
        E 45 bc 0a 0c
        E 45 bc 0a 0c
        E 45 bc 0a 0c
        E 45 bc 0a 0c
        E 45 bc 0a 0c
        E 45 bc 0a 0c
        E 45 bc 0a 0c
        E 45 bc 0a 0c
        E 45 bc 0a 0c
        E 45 bc 0a 0c
        E 45 bc 0a 0c
        E 45 bc 0a 0c
        E 45 bc 0a 0c
        E 45 bc 0a 0c
        E 45 bc 0a 0c
        E 45 bc 0a 0c
        E 45 bc 0a 0b
        E 45 bc 0a 0b
        E 45 bc 0a 0b
        E 45 bc 0a 0b
        E 45 bc 0a 0b
        E 45 bc 0a 0b
        E 45 bc 0a 0a
        E 45 bc 0a 0a
        E 45 bc 0a 0a
        E 45 bc 0a 0a
        E 45 bc 0a 09
        E 45 bc 0a 09
        E 45 bc 0a 09
        E 45 bc 0a 08
        E 45 bc 0a 08
        E 45 bc 0a 08
        E 45 bc 0a 08
        E 45 bc 0a 07
        E 45 bc 0a 07
        E 45 bc 0a 07
        E 45 bc 0a 06
        E 45 bc 0a 06
        E 45 bc 0a 06
        E 45 bc 0a 05
        E 45 bc 0a 05
        E 45 bc 0a 05
        E 45 bc 0a 04
        E 45 bc 0a 04
        E 45 bc 0a 04
        E 45 bc 0a 04
        E 45 bc 0a 03
        E 45 bc 0a 03
        E 45 bc 0a 03
        E 45 bc 0a 02
        E 45 bc 0a 02
        E 45 bc 0a 02
        E 45 bc 0a 02
        E 45 bc 0a 01
        E 45 bc 0a 01
        E 45 bc 0a 01
        E 45 bc 0a 01
        E 45 bc 0a 01
        E 45 bc 0a 01
        E 45 bc 0a 00
        E 45 bc 0a 00
        E 45 bc 0a 00
        E 45 bc 0a 00
        E 45 bc 0a 00
        E 45 bc 0a 00
        E 45 bc 0a 00
        E 45 bc 0a 00
        E 45 bc 0a 00
        E 45 bc 0a 00
        E 45 bc 0a 00
        E 45 bc 0a 00
        E 45 bc 0a 00
        E 45 bc 0a 00
        E 45 bc 0a 00
        E 45 bc 0a 00
        E 45 bc 0a 00
        E 45 bc 0a 00
        E 45 bc 0a 00
        E 45 bc 0a 00
        E 45 bc 0a 00
        E 45 bc 0a 00
        E 45 bc 0a 01
        E 45 bc 0a 01
        E 45 bc 0a 01
        E 45 bc 0a 01
        E 45 bc 0a 01
        E 45 bc 0a 02
        E 45 bc 0a 02
        E 45 bc 0a 02
        E 45 bc 0a 02
        E 45 bc 0a 03
        E 45 bc 0a 03
        E 45 bc 0a 03
        E 45 bc 0a 03
        E 45 bc 0a 04
        E 45 bc 0a 04
        E 45 bc 0a 04
        E 45 bc 0a 05
        E 45 bc 0a 05
        E 45 bc 0a 05
        E 45 bc 0a 06
        E 45 bc 0a 06
        E 40 bc 0a 19
        E 40 bc 0a 1a
        E 40 bc 0a 1c
        E 40 bc 0a 1d
        E 40 bc 0a 1e
        E 40 bc 0a 1f
        E 40 bc 0a 20
        E 40 bc 0a 22
        E 40 bc 0a 23
        E 40 bc 0a 24
        E 40 bc 0a 25
        E 40 bc 0a 26
        E 40 bc 0a 27
        E 40 bc 0a 28
        E 40 bc 0a 29
        E 40 bc 0a 2a
        E 40 bc 0a 2b
        E 40 bc 0a 2c
        E 40 bc 0a 2d
        E 40 bc 0a 2e
        E 40 bc 0a 2e
        E 40 bc 0a 2f
        E 40 bc 0a 30
        E 40 bc 0a 30
        E 40 bc 0a 30
        E 40 bc 0a 31
        E 40 bc 0a 31
        E 40 bc 0a 32
        E 40 bc 0a 32
        E 40 bc 0a 32
        E 40 bc 0a 32
        E 40 bc 0a 32
        E 40 bc 0a 32
        E 40 bc 0a 32
        E 40 bc 0a 32
        E 40 bc 0a 32
        E 40 bc 0a 32
        E 40 bc 0a 32
        E 40 bc 0a 31
        E 40 bc 0a 31
        E 40 bc 0a 30
        E 40 bc 0a 30
        E 40 bc 0a 2f
        E 40 bc 0a 2e
        E 40 bc 0a 2e
        E 40 bc 0a 2d
        E 40 bc 0a 2c
        E 40 bc 0a 2c
        E 40 bc 0a 2b
        E 40 bc 0a 2a
        E 40 bc 0a 29
        E 40 bc 0a 28
        E 40 bc 0a 27
        E 40 bc 0a 26
        E 40 bc 0a 24
        E 40 bc 0a 23
        E 40 bc 0a 22
        E 40 bc 0a 21
        E 40 bc 0a 20
        E 40 bc 0a 1f
        E 40 bc 0a 1d
        E 40 bc 0a 1c
        E 40 bc 0a 1b
        E 40 bc 0a 1a
        E 40 bc 0a 18
        E 40 bc 0a 17
        E 40 bc 0a 16
        E 40 bc 0a 15
        E 40 bc 0a 13
        E 40 bc 0a 12
        E 40 bc 0a 11
        E 40 bc 0a 10
        E 40 bc 0a 0f
        E 40 bc 0a 0e
        E 40 bc 0a 0c
        E 40 bc 0a 0b
        E 40 bc 0a 0a
        E 40 bc 0a 09
        E 40 bc 0a 08
        E 40 bc 0a 07
        E 40 bc 0a 06
        E 40 bc 0a 06
        E 40 bc 0a 05
        E 40 bc 0a 04
        E 40 bc 0a 04
        E 40 bc 0a 03
        E 40 bc 0a 02
        E 40 bc 0a 02
        E 40 bc 0a 01
        E 40 bc 0a 01
        E 40 bc 0a 00
        E 40 bc 0a 00
        E 40 bc 0a 00
        E 40 bc 0a 00
        E 40 bc 0a 00
        E 40 bc 0a 00
        E 40 bc 0a 00
        E 40 bc 0a 00
        E 40 bc 0a 00
        E 40 bc 0a 00
        E 40 bc 0a 00
        E 40 bc 0a 01
        E 40 bc 0a 01
        E 40 bc 0a 02
        E 40 bc 0a 02
        E 40 bc 0a 02
        E 40 bc 0a 03
        E 40 bc 0a 04
        E 40 bc 0a 04
        E 40 bc 0a 05
        E 40 bc 0a 06
        E 40 bc 0a 07
        E 40 bc 0a 08
        E 40 bc 0a 09
        E 40 bc 0a 0a
        E 40 bc 0a 0b
        E 40 bc 0a 0c
        E 40 bc 0a 0d
        E 40 bc 0a 0e
        E 40 bc 0a 0f
        E 40 bc 0a 10
        E 40 bc 0a 12
        E 40 bc 0a 13
        E 40 bc 0a 14
        E 40 bc 0a 15
        E 40 bc 0a 16
        E 40 bc 0a 18
        E 40 bc 0a 19
        E 22 bc 0a 2c
        E 22 bc 0a 2e
        E 22 bc 0a 31
        E 22 bc 0a 33
        E 22 bc 0a 35
        E 22 bc 0a 37
        E 22 bc 0a 39
        E 22 bc 0a 3b
        E 22 bc 0a 3d
        E 22 bc 0a 3f
        E 22 bc 0a 41
        E 22 bc 0a 43
        E 22 bc 0a 45
        E 22 bc 0a 47
        E 22 bc 0a 48
        E 22 bc 0a 4a
        E 22 bc 0a 4c
        E 22 bc 0a 4d
        E 22 bc 0a 4f
        E 22 bc 0a 50
        E 22 bc 0a 51
        E 22 bc 0a 52
        E 22 bc 0a 54
        E 22 bc 0a 54
        E 22 bc 0a 55
        E 22 bc 0a 56
        E 22 bc 0a 56
        E 22 bc 0a 57
        E 22 bc 0a 58
        E 22 bc 0a 58
        E 22 bc 0a 58
        E 22 bc 0a 58
        E 22 bc 0a 58
        E 22 bc 0a 58
        E 22 bc 0a 58
        E 22 bc 0a 58
        E 22 bc 0a 58
        E 22 bc 0a 57
        E 22 bc 0a 56
        E 22 bc 0a 56
        E 22 bc 0a 55
        E 22 bc 0a 54
        E 22 bc 0a 53
        E 22 bc 0a 51
        E 22 bc 0a 51
        E 22 bc 0a 4f
        E 22 bc 0a 4e
        E 22 bc 0a 4d
        E 22 bc 0a 4b
        E 22 bc 0a 49
        E 22 bc 0a 48
        E 22 bc 0a 46
        E 22 bc 0a 44
        E 22 bc 0a 42
        E 22 bc 0a 40
        E 22 bc 0a 3e
        E 22 bc 0a 3c
        E 22 bc 0a 3a
        E 22 bc 0a 38
        E 22 bc 0a 36
        E 22 bc 0a 33
        E 22 bc 0a 31
        E 22 bc 0a 2f
        E 22 bc 0a 2d
        E 22 bc 0a 2b
        E 22 bc 0a 29
        E 22 bc 0a 27
        E 22 bc 0a 25
        E 22 bc 0a 22
        E 22 bc 0a 20
        E 22 bc 0a 1e
        E 22 bc 0a 1c
        E 22 bc 0a 1a
        E 22 bc 0a 18
        E 22 bc 0a 16
        E 22 bc 0a 14
        E 22 bc 0a 12
        E 22 bc 0a 10
        E 22 bc 0a 0f
        E 22 bc 0a 0d
        E 22 bc 0a 0b
        E 22 bc 0a 0a
        E 22 bc 0a 09
        E 22 bc 0a 07
        E 22 bc 0a 07
        E 22 bc 0a 05
        E 22 bc 0a 04
        E 22 bc 0a 03
        E 22 bc 0a 02
        E 22 bc 0a 02
        E 22 bc 0a 01
        E 22 bc 0a 00
        E 22 bc 0a 00
        E 22 bc 0a 00
        E 22 bc 0a 00
        E 22 bc 0a 00
        E 22 bc 0a 00
        E 22 bc 0a 00
        E 22 bc 0a 00
        E 22 bc 0a 00
        E 22 bc 0a 01
        E 22 bc 0a 02
        E 22 bc 0a 02
        E 22 bc 0a 03
        E 22 bc 0a 04
        E 22 bc 0a 04
        E 22 bc 0a 06
        E 22 bc 0a 07
        E 22 bc 0a 08
        E 22 bc 0a 09
        E 22 bc 0a 0b
        E 22 bc 0a 0c
        E 22 bc 0a 0e
        E 22 bc 0a 10
        E 22 bc 0a 11
        E 22 bc 0a 13
        E 22 bc 0a 15
        E 22 bc 0a 17
        E 22 bc 0a 19
        E 22 bc 0a 1b
        E 22 bc 0a 1d
        E 22 bc 0a 1f
        E 22 bc 0a 21
        E 22 bc 0a 23
        E 22 bc 0a 25
        E 22 bc 0a 27
        E 22 bc 0a 2a
        E 22 bc 0a 2c
        E 78 b0 7b 00
        CCINTERP 32
        CHASE_CC_TAKEOFFS 1
        GUID {7F781E11-D5E6-B445-9C19-E069C943DB1B}
        IGNTEMPO 0 120 4 4
        SRCCOLOR 185
        VELLANE 3 601 0
        VELLANE -1 196 0
      >
    >
  >
  <EXTENSIONS
  >
>
