<REAPER_PROJECT 0.1 "6.14/OSX64" 1607041331
  RIPPLE 0
  GROUPOVERRIDE 0 0 0
  AUTOXFADE 1
  ENVATTACH 1
  POOLEDENVATTACH 0
  MIXERUIFLAGS 11 48
  PEAKGAIN 1
  FEEDBACK 0
  PANLAW 1
  PROJOFFS 0 0 0
  MAXPROJLEN 0 600
  GRID 3455 8 1 8 1 0 0 0
  TIMEMODE 1 5 -1 30 0 0 -1
  VIDEO_CONFIG 0 0 256
  PANMODE 3
  CURSOR 0
  ZOOM 2.6084053304589 0 0
  VZOOMEX 1 0
  USE_REC_CFG 0
  RECMODE 1
  SMPTESYNC 0 30 100 40 1000 300 0 0 1 0 0
  LOOP 0
  LOOPGRAN 0 4
  RECORD_PATH "Audio Files" ""
  <RECORD_CFG
    ZXZhdxgAAA==
  >
  <APPLYFX_CFG
  >
  RENDER_FILE "/Users/scottmetoyer/Desktop/WIP for Amir/cannabis-infused gummies.wav"
  RENDER_FMT 0 2 48000
  RENDER_1X 0
  RENDER_RANGE 1 0 0 18 5000
  RENDER_RESAMPLE 8 0 1
  RENDER_ADDTOPROJ 0
  RENDER_STEMS 0
  RENDER_DITHER 0
  TIMELOCKMODE 0
  TEMPOENVLOCKMODE 1
  ITEMMIX 0
  DEFPITCHMODE 589824 0
  TAKELANE 1
  SAMPLERATE 44100 0 0
  <RENDER_CFG
    ZXZhdxgAAA==
  >
  LOCK 1
  <METRONOME 6 2
    VOL 0.25 0.125
    FREQ 800 1600 1
    BEATLEN 4
    SAMPLES "" ""
    PATTERN 2863311530 2863311529
  >
  GLOBAL_AUTO -1
  TEMPO 120 4 4
  PLAYRATE 1 0 0.25 4
  SELECTION 362.4484480001633 78.3672320000353
  SELECTION2 362.4484480001633 78.3672320000353
  MASTERAUTOMODE 0
  MASTERTRACKHEIGHT 0 0
  MASTERPEAKCOL 16576
  MASTERMUTESOLO 0
  MASTERTRACKVIEW 0 0.6667 0.5 0.5 0 -1 0 0 0 0 -1 -1 0
  MASTERHWOUT 0 0 1 0 0 0 0 -1
  MASTER_NCH 2 2
  MASTER_VOLUME 1 0 -1 -1 1
  MASTER_FX 1
  MASTER_SEL 0
  <MASTERFXLIST
    SHOW 0
    LASTSEL 0
    DOCKED 0
    BYPASS 0 0 0
    <VST "VST: ReaEQ (Cockos)" reaeq.vst.dylib 0 "" 1919247729<56535472656571726561657100000000> ""
      cWVlcu5e7f4CAAAAAQAAAAAAAAACAAAAAAAAAAIAAAABAAAAAAAAAAIAAAAAAAAAqAAAAAEAAAAAABAA
      IQAAAAQAAAAAAAAAAQAAAAAAAAAAAFlAAAAAAAAA8D8AAAAAAAAAQAEIAAAAAQAAAAAAAAAAwHJAAAAAAAAA8D8AAAAAAAAAQAEIAAAAAQAAAAAAAAAAQI9AAAAAAAAA
      8D8AAAAAAAAAQAEBAAAAAQAAAAAAAAAAiLNAAAAAAAAA8D8AAAAAAAAAQAEBAAAAAQAAAAAAAAAAAPA/AAAAAFQCAABwAQAA
      AAAQAAAA
    >
    FLOATPOS 32 641 596 422
    FXID {66805074-F16D-C549-BD71-A35C70ECE148}
    WAK 0 0
    BYPASS 0 0 0
    <AU "AU: SPAN (Voxengo)" "Voxengo: SPAN" "" 1635083896 880176950 1450733159
      6QMAAAAAAAACAAAAAQAAAAAAAAACAAAAAAAAAAIAAAABAAAAAAAAAAIAAAAAAAAA8AcAADw/eG1sIHZlcnNpb249IjEuMCIgZW5jb2Rpbmc9IlVURi04Ij8+CjwhRE9D
      VFlQRSBwbGlzdCBQVUJMSUMgIi0vL0FwcGxlLy9EVEQgUExJU1QgMS4wLy9FTiIgImh0dHA6Ly93d3cuYXBwbGUuY29tL0RURHMvUHJvcGVydHlMaXN0LTEuMC5kdGQi
      Pgo8cGxpc3QgdmVyc2lvbj0iMS4wIj4KPGRpY3Q+Cgk8a2V5PlZveFBsdWdpblN0YXRlPC9rZXk+Cgk8ZGF0YT4KCVlYQnljd2NaQUFBaEFHc0FlSnpGV010dTFEQVVU
      VXNmdzZOMHFBb0NTaDhVSko0cExTMmx3R0tDaEhoSVVCQjhRVHJqCgltYkZJNGhCbldsbzJJTEZBckZqQkFnSGk4UVA4QWF6WUl2RURmRUkvZ2V0SkhKdzRjUk9rbEVo
      VzdyWFBmZmxlMjNIMgoJYUpxMnNFb1dMMTlEVGJOaitjZUJINEsyc3U2YWxPcklNVmNzZEFVNnhxQ1puUVltTXpacDNER3hNeE9EOU1Bd2ExcjQKCTVqUjdLdEJhSHVt
      NEZGbUxRQitRVlBGUmxSYm1GWGFvYnpwMXBEdW1qVzZtZWhXRDlBaDYwdG9VSi9ZejVVUjNUYyswCglhZUJPVndIOUFRUEhaQ05wMEtUeVNvS2Y2eFdZOHpzRVpyNVBZ
      QmI2QmViQ2dNQXNEZ3JNUlZIOUVtZVlDYWFaS1dSNgoJbVBoZzZNdUlIQ04yV28vWk5Hd1ZJT0NTcWFsb1djOW1MZjdXalBpN0VyMFB4enpDamw1dm00NkRyR0ErMThE
      TVNZVm4KCVNYeHkvcXNKL3JZNC8vZjUvTFAzcmVVb0F3RWI1U0Jnb3l3RWJKU0hnSTB5RWJCTE8yUHNwVjBoMjlkbDUyWjN4L201CglQWEgrL0ZDY245OGI1eGVHNC95
      RmFweGY1THlxRkppTHpDL21DN1BQYkRJN3crRzBqU1lUQTBYZ1F4RnNRUCswT2lVaAoJTXJ0Y3BMTEkvY1FMMktaQVlZOXVWY0FjbDcrQTh6L3hiUU1pNStFLzBkVGJo
      Z0F0WTZiR1luN1JObG5UVGN2aXk0WGUKCWd1RlRDdThrQWRXK3pPckZCbmw5RFRzTmtLTjRBMTJIdmduSlFCS1YxTnJMVmI1NkdVUTgrOHc0eExTVHhvTjdWNWRuCgky
      cmlCZEJ2NXlLTTZiUEkrdlFHREoyUXpXWEJWRlBzRk81Q1hycGp1cjd2b1RXb21VNkdpemtwQ2Z4bTBPRGZVUlhVZAoJMnk3eGZMMU9MT0s5N1ZITmpRUlArdDZ2Slo5
      a05mSnR2R3IwUzVnOFdENldCMXNwZ0swV3dJNFd3QjRzZ0QyeUpaYXQKCTBGZ3lPazREZVphNXJuY1AzSGRhMmdwVkNHeDM3VTBsL1BlOWpzMjNEOVBDTFdlMnNiSU1t
      QmxsRUdsU3FsVjZWR1hWCgk4VEhvTU9sZEFKM0xiNWFMcWV4T3F1eXV0bnhzbzQ4QTBmTmJEWVFVV1RQS29LY1ZjYXhZcFA2d3V5OS9BZFJzN2xEKwoJeW1WSE0ycVVR
      YXV5MHNDVVhVdUtaU1VVMnU2MWRFUVJSeE5iMW5zWVA1MDdDQ2FSSGNGbXJReGF0UzZiSG5xa3QzR3IKCS9Wa3JzaTRqc2N4WVh2d3l5cUNudG9yRkltdWZ0Q0k3RzVm
      S3pzcUNVUWF0eWdyMEIxZmt5WjRpV1luRWVDejhpMVc4CglqYkpiUnZnN29WZnUyaUYzOWNsZC9YTFhnTncxS0hkVjVDN1JWKzRROTRLYjV2WkVJenkyQ2NVOGttYVRJ
      djgySU03bQoJbnNSQTVsL1BHN0xLam4yMzJNNFdDbVZYNE85YUdiVHF2UEZNcDRXNks3elllZk5YTGkyYW44OWY2N1h4YjdVeWFOVjYKCUNyeUNSVjVzbDR2RTBtSVoy
      ZjM5cS9GMHFsWUdyWXFGb25yd1U2OVlMSkhZZHArZnF0VUNUckdyV2JIVkVncGx4MUV4Cgl5cURIVlhGWXhFVWZBSEFtZnhSTUpEdUdFYU1NV2xsWE5pRitHenV0Z25Y
      RnhiYTdybFRmWmF3K2luMlgvWTgvQktxVAoJSy9nUlUremtDbVJVSjljK3dTSklJdDFGNWtOMkM1N01OQkxCc3ZWdTF0aWZTdGREY0c1MlB6K1kyNGNralFKQVBQT1QK
      CUxlWFQ0QStBOFVTSQoJPC9kYXRhPgoJPGtleT5kYXRhPC9rZXk+Cgk8ZGF0YT4KCUFBQUFBQUFBQUFBQUFBQUNBQUFBQUFBQUFBQUFBQUFCQUFBQUFBPT0KCTwvZGF0
      YT4KCTxrZXk+bWFudWZhY3R1cmVyPC9rZXk+Cgk8aW50ZWdlcj4xNDUwNzMzMTU5PC9pbnRlZ2VyPgoJPGtleT5uYW1lPC9rZXk+Cgk8c3RyaW5nPlVudGl0bGVkPC9z
      dHJpbmc+Cgk8a2V5PnN1YnR5cGU8L2tleT4KCTxpbnRlZ2VyPjg4MDE3Njk1MDwvaW50ZWdlcj4KCTxrZXk+dHlwZTwva2V5PgoJPGludGVnZXI+MTYzNTA4Mzg5Njwv
      aW50ZWdlcj4KCTxrZXk+dmVyc2lvbjwva2V5PgoJPGludGVnZXI+MDwvaW50ZWdlcj4KPC9kaWN0Pgo8L3BsaXN0PgoBAAAAAAAAAAAA
    >
    FLOATPOS 64 426 850 605
    FXID {F2499938-F3D1-2844-B20B-13303EA84F0B}
    WAK 0 0
  >
  <MASTERPLAYSPEEDENV
    EGUID {B5607DCC-1AD0-1248-9A2F-AB9C27EFFF05}
    ACT 0 -1
    VIS 0 1 1
    LANEHEIGHT 0 0
    ARM 0
    DEFSHAPE 0 -1 -1
  >
  <TEMPOENVEX
    EGUID {05919879-AF6E-A145-9033-2F0CC9114640}
    ACT 1 -1
    VIS 1 0 1
    LANEHEIGHT 0 0
    ARM 0
    DEFSHAPE 1 -1 -1
    PT 0.000000000000 98.0001437335 1 262148 0 1
  >
  <PROJBAY
  >
  <TRACK {28FAAA66-0E00-C64D-B59E-0B3FECCC01C7}
    NAME "Freetz perc"
    PEAKCOL 16576
    BEAT -1
    AUTOMODE 0
    VOLPAN 1 0 -1 -1 1
    MUTESOLO 0 0 0
    IPHASE 0
    PLAYOFFS 0 1
    ISBUS 0 0
    BUSCOMP 0 0 0 0 0
    SHOWINMIX 1 0.6667 0.5 1 0.5 0 -1 0
    FREEMODE 0
    SEL 0
    REC 0 -1 1 3 0 0 0
    VU 2
    TRACKHEIGHT 0 0 0 0 -1 0
    INQ 0 0 0 0.5 100 0 0 100
    NCHAN 2
    FX 1
    TRACKID {28FAAA66-0E00-C64D-B59E-0B3FECCC01C7}
    PERF 0
    MIDIOUT -1
    MAINSEND 1 0
    <FXCHAIN
      WNDRECT 502 0 1062 1031
      SHOW 0
      LASTSEL 0
      DOCKED 0
    >
    <ITEM
      POSITION 12.24488000000552
      SNAPOFFS 0
      LENGTH 9.79590400000441
      LOOP 1
      ALLTAKES 0
      FADEIN 1 3.036263 0 1 0 0
      FADEOUT 1 3.165863 0 1 0 0
      MUTE 0 0
      SEL 0
      IGUID {941B6DEB-DA97-D94D-8187-9C9F0FB0DB1B}
      IID 54
      NAME "01-Freetz perc-201202_1323.wav"
      VOLPAN 1 0 1 -1
      SOFFS 0
      PLAYRATE 1 1 0 -1 0 0.0025
      CHANMODE 0
      GUID {4F1E40A9-7C2F-774F-86CB-46BAD4B21ADB}
      RECPASS 1
      <SOURCE WAVE
        FILE "Audio Files/01-Freetz perc-201202_1323.wav"
      >
    >
    <ITEM
      POSITION 24.48976000001103
      SNAPOFFS 0
      LENGTH 24.48976000001103
      LOOP 1
      ALLTAKES 0
      FADEIN 1 1.811485 0 1 0 0
      FADEOUT 1 6.989066 0 1 0 0
      MUTE 0 0
      SEL 0
      IGUID {0C94D059-3E9E-3348-9509-53190E8B9B9D}
      IID 58
      NAME "01-Freetz perc-201202_1323.wav"
      VOLPAN 1 0 1 -1
      SOFFS 9.79590400000441
      PLAYRATE 1 1 0 -1 0 0.0025
      CHANMODE 0
      GUID {6E1385EC-DD5D-4244-9413-D2E0D6B1AAE2}
      RECPASS 1
      <SOURCE WAVE
        FILE "Audio Files/01-Freetz perc-201202_1323.wav"
      >
    >
    <ITEM
      POSITION 178.77524800004903
      SNAPOFFS 0
      LENGTH 7.34692800003481
      LOOP 1
      ALLTAKES 0
      FADEIN 1 1.811485 0 1 0 0
      FADEOUT 1 1.574442 0 1 0 0
      MUTE 0 0
      SEL 0
      IGUID {3C972FBC-20D1-B945-B0B8-534A21B77450}
      IID 58
      NAME "01-Freetz perc-201202_1323.wav"
      VOLPAN 1 0 1 -1
      SOFFS 9.79590400000441
      PLAYRATE 1 1 0 -1 0 0.0025
      CHANMODE 0
      GUID {155E2A8F-B83C-2647-9809-70455AD6130E}
      RECPASS 1
      <SOURCE WAVE
        FILE "Audio Files/01-Freetz perc-201202_1323.wav"
      >
    >
    <ITEM
      POSITION 186.12217600008384
      SNAPOFFS 0
      LENGTH 24.48976000001105
      LOOP 1
      ALLTAKES 0
      FADEIN 1 5.816426 0 1 0 0
      FADEOUT 1 5.795306 0 1 0 0
      MUTE 0 0
      SEL 0
      IGUID {557A5D7F-FB47-8745-A558-8502D65F7DA6}
      IID 93
      NAME "01-Freetz perc-201202_1323.wav"
      VOLPAN 1 0 1 -1
      SOFFS 17.14283200003922
      PLAYRATE 1 1 0 -1 0 0.0025
      CHANMODE 0
      GUID {1EB9A059-FDB2-0C40-B7BD-35108623BD57}
      RECPASS 1
      <SOURCE WAVE
        FILE "Audio Files/01-Freetz perc-201202_1323.wav"
      >
    >
    <ITEM
      POSITION 210.61193600009489
      SNAPOFFS 0
      LENGTH 47.7403246666164
      LOOP 1
      ALLTAKES 0
      FADEIN 1 10.106258 0 1 0 0
      FADEOUT 1 6.989066 0 1 0 0
      MUTE 0 0
      SEL 0
      IGUID {E35E80FF-ED5B-154D-8F3F-8A8D5DD1A394}
      IID 94
      NAME "01-Freetz perc-201202_1323.wav"
      VOLPAN 1 0 1 -1
      SOFFS 41.63259200005027
      PLAYRATE 1 1 0 -1 0 0.0025
      CHANMODE 0
      GUID {82666DC4-A5F9-4441-92A1-483D41885D38}
      RECPASS 1
      <SOURCE WAVE
        FILE "Audio Files/01-Freetz perc-201202_1323.wav"
      >
    >
  >
  <TRACK {97269792-18B3-9343-9D53-A2A266A533B3}
    NAME "cannabis-infused gummies"
    PEAKCOL 16576
    BEAT -1
    AUTOMODE 0
    VOLPAN 1 0 -1 -1 1
    MUTESOLO 0 0 0
    IPHASE 0
    PLAYOFFS 0 1
    ISBUS 0 0
    BUSCOMP 0 0 0 0 0
    SHOWINMIX 1 0.6667 0.5 1 0.5 0 -1 0
    FREEMODE 0
    SEL 1
    REC 0 0 1 0 0 0 0
    VU 2
    TRACKHEIGHT 80 0 0 0 -1 0
    INQ 0 0 0 0.5 100 0 0 100
    NCHAN 2
    FX 1
    TRACKID {97269792-18B3-9343-9D53-A2A266A533B3}
    PERF 0
    MIDIOUT -1
    MAINSEND 1 0
    <FXCHAIN
      WNDRECT 173 90 1159 532
      SHOW 0
      LASTSEL 0
      DOCKED 0
      BYPASS 0 0 0
      <VST "VSTi: FM8 (Native Instruments GmbH)" FM8.vst 0 "" 1315530296<5653544E696638666D38000000000000> ""
        OGZpTu5e7f4AAAAAAgAAAAEAAAAAAAAAAgAAAAAAAAD/CgAAAQAAAAAAEAA=
        /woAAAAAAAABAAAAaHNpbgEAAAAAAAAAN455D8DDx0mHoN4j0l/0WZYAAAAAAAAARFNJTnYAAAABAAAASAAAAAAAAABEU0lOagAAAAEAAAAYAAAAAAAAAERTSU4BAAAA
        AQAAAAEAAAABAAAAAQAAAAEAAAAAAAAAAAAAAAAAAAANYmWFAQAAAAhwEAAAAAAAAQAAAAEAAAAAAAAAAAAAAAAAAAADAAAAMAAwADAAAAAAAAAAAAAAAAAAAAAAAAEA
        AAABAAAAAAAAAERTSU5lAAAALQoAAAAAAAABAAAAaHNpbgEAAAAAAAAAMOH4NwAUwEaoogAOyNUgkW0AAAAAAAAARFNJTmUAAAABAAAANAAAAAAAAABEU0lOagAAAAEA
        AAAYAAAAAAAAAERTSU4BAAAAAQAAAAEAAAABAAAAAgAAAAEAAAAACAAAAAEAAAAKAAAAMQAuADIALgAwAC4AMQAwADEAMAABAAAAAwAAAAAAAABEU0lObAAAAJgCAAAA
        AAAAAQAAAGhzaW4BAAAAAAAAACA7190CLVtKvWPIjKqbw/toAgAAAAAAAERTSU5sAAAAAQAAABgAAAAAAAAARFNJTgEAAAABAAAAAQAAAAEAAAACAAAAAQAAAAAAAAAU
        AAAAQQBiAGEAbgBkAG8AbgBlAGQAIABUAG8AeQBmAGEAYwB0AG8AcgB5AAoAAABFAHIAaQBjACAAWQBvAHUAbgBnABIAAABOAGEAdABpAHYAZQAgAEkAbgBzAHQAcgB1
        AG0AZQBuAHQAcwAAAAAAAAAAAP////8AAAAAAAAAAAAAAAAAAAAAAAAAAAEAAAABAAAAAgAAAAMAAABGAE0AOAAKAAAARgBNADcAIABMAGUAZwBhAGMAeQAGAAAACwAA
        AEwAYQB5AGUAcgBlAGQAIABQAGEAZAAMAAAATABvAG4AZwAgAFIAZQBsAGUAYQBzAGUADQAAAEwAbwBuAGcALwBFAHYAbwBsAHYAaQBuAGcACQAAAFAAcgBvAGMAZQBz
        AHMAZQBkAAkAAABTAHkAbgB0AGgAIABQAGEAZAAJAAAAUwB5AG4AdABoAGUAdABpAGMAAAAAAAcAAAAHAAAAXABAAGMAbwBsAG8AcgABAAAAMAARAAAAXABAAGQAZQB2
        AGkAYwBlAHQAeQBwAGUAZgBsAGEAZwBzAAEAAAAxAAsAAABcAEAAcwBvAHUAbgBkAHQAeQBwAGUAAQAAADAABwAAAFwAQAB0AGUAbQBwAG8AAQAAADAABgAAAFwAQAB2
        AGUAcgBsAAUAAAAxAC4ANwAuADgABgAAAFwAQAB2AGUAcgBtAAUAAAAxAC4ANwAuADgABwAAAFwAQAB2AGkAcwBpAGIAAQAAADAAAQAAAAAAAAACAAAARFNJTnkAAABo
        AAAAAAAAAAEAAABoc2luAQAAAAAAAABG64vCmumHRIQ9Mih2ujahOAAAAAAAAABEU0lOeQAAAAEAAAAYAAAAAAAAAERTSU4BAAAAAQAAAAEAAAABAAAAAQAAAAAAAAAB
        AAAAAAAAAAEAAABEU0lOdAAAAGwGAAAAAAAAAQAAAGhzaW4BAAAAAAAAAMPiDYJzLJxOuWtBgMMVvqQ8BgAAAAAAAERTSU50AAAAAQAAACMGAAAAAAAARFNJTnMAAAAB
        AAAAGAAAAAAAAABEU0lOAQAAAAEAAAABAAAAAQAAAAFpEAAA6gUAAAJpEABgAAABIAUDaHNpbkAHQAAQHyRrBvAZSEqYrqFXTcEPPBhAFCAAA0RTSU5AI+AHA0AAQBsA
        bSAIARUQIAQgAEAj4ANTEUkCYzKs2sVGp2B2wrYRj5zlDyAkIADAN0Av4BdnQCMAnaA3AAUgOwEPDSAEIAAIdHNycEU4TUbPIAsEvCMAABcgBxZBYmFuZG9uZWQgVG95
        ZmFjdG9yeS4uLuBIGgMAAAxCQG4CAABQIANABwSAPwAAoEAL4AIAAsDBAGAAAPAgF0AfwAAAICAPwABAF0APQE8AaEBToAAAVCALwDcAYCAvADAgAwCaIBPAAEAfAIgg
        E2AAIHvgBANAAMAT4AMAQBPgAAADzczMPiAMAz+amRlAF8AD4AAXIArgBxtAE0AA4AcHQAAgE0DLYAAgC2ADQABACyAA4AQbQABAF0AD4AMAYA8G/WWXPqZ5pyCbQDNA
        A2AXQBtAAwsA61E4P9Jvnz60NyhAD0ADQABAB0ADwADgAwugAACsIT8AECADQVcAqiAHAIIgA8AAQGcASCAPADwgA+ATAEAnQANAAMAH4A8AAGwgSwBwIAPgAwBB4wGA
        wIHLAJIgGwAkIAMAyOACA0AAACAgDwBAodtAG0AA4NtLIAACAgIBQAEDBgEBASP4QAECAwMCQAECBwIAIA5gAAA7QAACHlFkIAwELAAAHCcgB2AAAC9gBWAAICyAAAL+
        GRogIgASZJ4FKjkfADJUgBfgGwADy+H5A2AnAzjuDgRgCCBiAPwgBeAPAApXTk1OS1FSEgMAHUAiADCktAEAHiAD4BEAAf8BIAEBAP/gAiAg/OAXAAUADQcMEBlAnhZi
        EIA/CfnAP3UCSEH67e9AUicAP7sn/yL+Qp7AA4AAA5DC9byACeAJAMBx4P1ZIVkagD+xLNNC8QpIRK8ZlkMDTrLERKpUc0WXJZhFQBAfApZFnETC3KhES6V5RAOn9XRE
        vFRaRAQN+kOozJVDAmQGK7NFsZiTRWAdDVeBS0RK8HpEcJyzRKTdIB0fnUwyRPsUHUSsRg5DBw7Zu0ZobYtHNvcUR4MCBkd82TQMR/vM30f4KjlGt+DxRiLMBchCAAD6
        Q0ADYJgHj8L1Pcy8jCtAA2AQA1K4nj5ADEADIC4BgD9ACEADYB0G16PwPpqZmWAhAwLD9WjgBR1GBwLsUTiAHUA7IF0APEA7AwekcH0iRkVJAIBgHQLNzEzgADpAICAt
        4AEAIGkKAD9bj0I/AgBAP84gKQcDuB6FPoXrEeAAEAECACBHAAAgHQP+/z8/YC4AACAyAAIgEEAuBwLoUbg+SuE64AUdQBlAAwACQCoD+ijcPkAMDQetR+E+XY8CP1s5
        FD/2IBQCRIsMIOQEMD8vXI9gIGAtAmZmZmADQAwgAEWIAf5C4DIMAJghg+AGQKSQ4AAVgACgY4AA4CEMAqDCAGAAAaDC4AQzIGMAoCB5AIZgugE/AKADQCLgLAwDehRu
        P0GY4ARAIGMEAD9RuF5AUWAAABQgAGAIIAAABiAAACQgAABkIAAALyAAAMggACAW4AgAAAggAEAUABAgACAqYAApeykrAgAAEyAAIAZgAAADIABgCKAAQCgAGSAAALog
        AKASAQAeIAAgBuAEAAApIABAKyCCAS86IADgAxwAFyAA4AMPQABAKwA8IAAAwSAAQA/gAwAg3uAA3wAKIAAAPyAA4AMf4AcAAAwgAMATAEQgAAAhIADAD+ALAEVMwBdA
        h8AL4IcAAP/gFwBm9wEIMiGwBUAyAAAAPEDVIAMB8EJi2AABIAGC4iAHIAJCVIAGoAkgN6AJIEigCSvDoAkABuAACQAH4AAJIACgHYBIoAagE+DCT+BLAAARoFQDa25h
        YkExwAABgAAgAAAZoBEDY3RuaU03AREnYVxMvEAARGQBoELiEw8BdADiATAAD+ACC+D9AOC9AAAgIddAAANzaXVnQiQA6CNxwAAAKiAIABkgAyOYYAAj0mAAB2dwdGNZ
        VE1FQAwLDWJlhQEAAAAAAAAAAQAAAAABAAAAAAAAAA==
        ADxkaXNhYmxlZD4AEAAAAA==
      >
      PRESETNAME <disabled>
      FLOATPOS 32 559 948 504
      FXID {A87EE2F4-A9DC-8F49-8E34-295B02041C86}
      WAK 0 0
    >
    <ITEM
      POSITION 0
      SNAPOFFS 0
      LENGTH 58.77542400002648
      LOOP 1
      ALLTAKES 0
      FADEIN 1 0 0 1 0 0
      FADEOUT 1 15.837312 0 1 0 0
      MUTE 0 0
      SEL 0
      IGUID {0311E25B-685C-9A45-B48D-778EBBFB9433}
      IID 1
      NAME "cannabis-infused gummies.mid"
      VOLPAN 1 0 1 -1
      SOFFS 19.59180800000883 32
      PLAYRATE 1 1 0 -1 0 0.0025
      CHANMODE 0
      GUID {C6D615EA-10A9-D643-A7B3-15130B46BF55}
      <SOURCE MIDI
        HASDATA 1 128 QN
        CCINTERP 32
        POOLEDEVTS {C48DD515-20A2-B54C-89F9-FCDE3166B9B5}
        E 0 90 40 73
        E 149 80 40 73
        E 0 90 3e 73
        E 64 80 3e 73
        E 0 90 40 73
        E 149 80 40 73
        E 0 90 3e 73
        E 64 80 3e 73
        E 0 90 40 73
        E 149 80 40 73
        E 0 90 3e 73
        E 64 80 3e 73
        E 0 90 40 73
        E 149 80 40 73
        E 0 90 3e 73
        E 64 80 3e 73
        E 0 90 40 73
        E 149 80 40 73
        E 0 90 3e 73
        E 64 80 3e 73
        E 0 90 40 73
        E 149 80 40 73
        E 0 90 3e 73
        E 64 80 3e 73
        E 0 90 40 73
        E 149 80 40 73
        E 0 90 3e 73
        E 64 80 3e 73
        E 0 90 40 73
        E 149 80 40 73
        E 0 90 3e 73
        E 64 80 3e 73
        E 0 90 40 73
        E 149 80 40 73
        E 0 90 3e 73
        E 64 80 3e 73
        E 0 90 40 73
        E 149 80 40 73
        E 0 90 3e 73
        E 64 80 3e 73
        E 0 90 40 73
        E 149 80 40 73
        E 0 90 3e 73
        E 64 80 3e 73
        E 0 90 40 73
        E 149 80 40 73
        E 0 90 3e 73
        E 64 80 3e 73
        E 0 90 40 73
        E 149 80 40 73
        E 0 90 3e 73
        E 64 80 3e 73
        E 0 90 40 73
        E 149 80 40 73
        E 0 90 3e 73
        E 64 80 3e 73
        E 0 90 40 73
        E 149 80 40 73
        E 0 90 3e 73
        E 64 80 3e 73
        E 0 90 40 73
        E 149 80 40 73
        E 0 90 3e 73
        E 64 80 3e 73
        E 0 90 40 73
        E 149 80 40 73
        E 0 90 3e 73
        E 64 80 3e 73
        E 0 90 40 73
        E 149 80 40 73
        E 0 90 3e 73
        E 64 80 3e 73
        E 0 90 40 73
        E 149 80 40 73
        E 0 90 3e 73
        E 64 80 3e 73
        E 0 90 40 73
        E 149 80 40 73
        E 0 90 3e 73
        E 64 80 3e 73
        E 0 90 40 73
        E 149 80 40 73
        E 0 90 3e 73
        E 64 80 3e 73
        E 0 90 40 73
        E 149 80 40 73
        E 0 90 3e 73
        E 64 80 3e 73
        E 0 90 40 73
        E 149 80 40 73
        E 0 90 3e 73
        E 64 80 3e 73
        E 0 90 40 73
        E 149 80 40 73
        E 0 90 3e 73
        E 64 80 3e 73
        E 0 90 40 73
        E 149 80 40 73
        E 0 90 3e 73
        E 64 80 3e 73
        E 0 90 40 73
        E 149 80 40 73
        E 0 90 3e 73
        E 64 80 3e 73
        E 0 90 40 73
        E 149 80 40 73
        E 0 90 3e 73
        E 64 80 3e 73
        E 0 90 40 73
        E 149 80 40 73
        E 0 90 3e 73
        E 64 80 3e 73
        E 0 90 40 73
        E 149 80 40 73
        E 0 90 3e 73
        E 64 80 3e 73
        E 0 90 40 73
        E 149 80 40 73
        E 0 90 3e 73
        E 64 80 3e 73
        E 0 90 40 73
        E 149 80 40 73
        E 0 90 3e 73
        E 64 80 3e 73
        E 0 90 40 73
        E 149 80 40 73
        E 0 90 3e 73
        E 64 80 3e 73
        E 0 90 40 73
        E 149 80 40 73
        E 0 90 3e 73
        E 64 80 3e 73
        E 0 90 40 73
        E 149 80 40 73
        E 0 90 3e 73
        E 64 80 3e 73
        E 0 90 40 73
        E 149 80 40 73
        E 0 90 3e 73
        E 64 80 3e 73
        E 0 90 40 73
        E 149 80 40 73
        E 0 90 3e 73
        E 64 80 3e 73
        E 0 90 40 73
        E 149 80 40 73
        E 0 90 3e 73
        E 64 80 3e 73
        E 0 90 40 73
        E 149 80 40 73
        E 0 90 3e 73
        E 64 80 3e 73
        E 0 90 40 73
        E 149 80 40 73
        E 0 90 3e 73
        E 64 80 3e 73
        E 0 90 40 73
        E 149 80 40 73
        E 0 90 3e 73
        E 64 80 3e 73
        E 0 90 40 73
        E 149 80 40 73
        E 0 90 3e 73
        E 64 80 3e 73
        E 0 90 40 73
        E 149 80 40 73
        E 0 90 3e 73
        E 64 80 3e 73
        E 0 90 40 73
        E 149 80 40 73
        E 0 90 3e 73
        E 64 80 3e 73
        E 0 90 40 73
        E 149 80 40 73
        E 0 90 3e 73
        E 64 80 3e 73
        E 0 90 40 73
        E 149 80 40 73
        E 0 90 3e 73
        E 64 80 3e 73
        E 0 90 40 73
        E 149 80 40 73
        E 0 90 3e 73
        E 64 80 3e 73
        E 0 90 40 73
        E 149 80 40 73
        E 0 90 3e 73
        E 64 80 3e 73
        E 0 90 40 73
        E 149 80 40 73
        E 0 90 3e 73
        E 64 80 3e 73
        E 0 90 35 73
        E 170 80 35 73
        E 0 90 40 73
        E 106 80 40 73
        E 0 90 3a 73
        E 42 80 3a 73
        E 0 90 35 73
        E 170 80 35 73
        E 0 90 40 73
        E 149 80 40 73
        E 0 90 3e 73
        E 64 80 3e 73
        E 0 90 37 73
        E 0 90 35 73
        E 170 80 35 73
        E 0 90 40 73
        E 106 80 40 73
        E 0 90 3a 73
        E 42 80 3a 73
        E 0 90 35 73
        E 170 80 35 73
        E 0 90 40 73
        E 149 80 40 73
        E 0 90 3e 73
        E 64 80 3e 73
        E 0 90 37 73
        E 0 90 35 73
        E 170 80 35 73
        E 0 90 40 73
        E 106 80 40 73
        E 0 90 3a 73
        E 42 80 3a 73
        E 0 90 35 73
        E 170 80 35 73
        E 0 90 40 73
        E 149 80 40 73
        E 0 90 3e 73
        E 64 80 3e 73
        E 0 90 37 73
        E 0 90 35 73
        E 170 80 35 73
        E 0 90 40 73
        E 106 80 40 73
        E 0 90 3a 73
        E 42 80 3a 73
        E 0 90 35 73
        E 170 80 35 73
        E 0 90 40 73
        E 149 80 40 73
        E 0 90 3e 73
        E 64 80 3e 73
        E 0 90 37 73
        E 0 90 35 73
        E 170 80 35 73
        E 0 90 40 73
        E 106 80 40 73
        E 0 90 3a 73
        E 42 80 3a 73
        E 0 90 35 73
        E 170 80 35 73
        E 0 90 40 73
        E 149 80 40 73
        E 0 90 3e 73
        E 64 80 3e 73
        E 0 90 37 73
        E 0 90 35 73
        E 170 80 35 73
        E 0 90 40 73
        E 106 80 40 73
        E 0 90 3a 73
        E 42 80 3a 73
        E 0 90 35 73
        E 170 80 35 73
        E 0 90 40 73
        E 149 80 40 73
        E 0 90 3e 73
        E 64 80 3e 73
        E 0 90 37 73
        E 0 90 35 73
        E 170 80 35 73
        E 0 90 40 73
        E 106 80 40 73
        E 0 90 3a 73
        E 42 80 3a 73
        E 0 90 35 73
        E 170 80 35 73
        E 0 90 40 73
        E 149 80 40 73
        E 0 90 3e 73
        E 64 80 3e 73
        E 0 90 37 73
        E 0 90 35 73
        E 170 80 35 73
        E 0 90 40 73
        E 106 80 40 73
        E 0 90 3a 73
        E 42 80 3a 73
        E 0 90 35 73
        E 170 80 35 73
        E 0 90 40 73
        E 149 80 40 73
        E 0 90 3e 73
        E 64 80 3e 73
        E 0 90 37 73
        E 0 90 35 73
        E 170 80 35 73
        E 0 90 40 73
        E 106 80 40 73
        E 0 90 3a 73
        E 42 80 3a 73
        E 0 90 35 73
        E 170 80 35 73
        E 0 90 40 73
        E 64 80 37 00
        E 0 80 40 00
        E 0 b0 7b 00
        CCINTERP 32
        CHASE_CC_TAKEOFFS 1
        GUID {AE4D715B-1E06-9649-A1FF-11CE9922BE3D}
        IGNTEMPO 0 120 4 4
        SRCCOLOR 57
        VELLANE 3 601 0
        VELLANE -1 196 0
      >
    >
    <ITEM
      POSITION 72.46806306956101
      SNAPOFFS 0
      LENGTH 78.25105064618434
      LOOP 1
      ALLTAKES 0
      FADEIN 1 7.228734 0 1 0 0
      FADEOUT 1 0 0 1 0 0
      MUTE 0 0
      SEL 0
      IGUID {071C3CF1-B933-A949-9219-EC7B9BE06D67}
      IID 56
      NAME "cannabis-infused gummies.mid"
      VOLPAN 1 0 1 -1
      SOFFS 8.79468706953233 14.3646766150887
      PLAYRATE 1 1 0 -1 0 0.0025
      CHANMODE 0
      GUID {D26D7F9A-AC8C-384C-892C-F6853FBF126A}
      <SOURCE MIDI
        HASDATA 1 128 QN
        CCINTERP 32
        POOLEDEVTS {CC35ADFF-5249-C349-8B03-B31109F6504E}
        E 0 90 35 73
        E 0 90 37 73
        E 46 80 35 73
        E 0 90 40 73
        E 149 80 40 73
        E 0 90 3e 73
        E 64 80 3e 73
        E 0 90 37 73
        E 0 90 35 73
        E 170 80 35 73
        E 0 90 40 73
        E 106 80 40 73
        E 0 90 3a 73
        E 42 80 3a 73
        E 0 90 35 73
        E 170 80 35 73
        E 0 90 40 73
        E 149 80 40 73
        E 0 90 3e 73
        E 64 80 3e 73
        E 0 90 37 73
        E 0 90 35 73
        E 170 80 35 73
        E 0 90 40 73
        E 106 80 40 73
        E 0 90 3a 73
        E 42 80 3a 73
        E 0 90 35 73
        E 170 80 35 73
        E 0 90 40 73
        E 149 80 40 73
        E 0 90 3e 73
        E 64 80 3e 73
        E 0 90 37 73
        E 0 90 35 73
        E 170 80 35 73
        E 0 90 40 73
        E 106 80 40 73
        E 0 90 3a 73
        E 42 80 3a 73
        E 0 90 35 73
        E 170 80 35 73
        E 0 90 40 73
        E 149 80 40 73
        E 0 90 3e 73
        E 64 80 3e 73
        E 0 90 37 73
        E 0 90 35 73
        E 170 80 35 73
        E 0 90 40 73
        E 106 80 40 73
        E 0 90 3a 73
        E 42 80 3a 73
        E 0 90 35 73
        E 170 80 35 73
        E 0 90 40 73
        E 149 80 40 73
        E 0 90 3e 73
        E 64 80 3e 73
        E 0 90 37 73
        E 0 90 35 73
        E 9 80 35 00
        E 0 80 37 00
        E 0 b0 7b 00
        CCINTERP 32
        CHASE_CC_TAKEOFFS 1
        GUID {E9C6A5B4-A957-794C-B634-131B78CCBF53}
        IGNTEMPO 0 120 4 4
        SRCCOLOR 1258
        VELLANE 1 601 0
        VELLANE -1 196 0
      >
    >
    <ITEM
      POSITION 154.28548800006951
      SNAPOFFS 0
      LENGTH 74.69376799992165
      LOOP 1
      ALLTAKES 0
      FADEIN 1 0 0 1 0 0
      FADEOUT 1 0 0 1 0 0
      MUTE 0 0
      SEL 0
      IGUID {6F89FF63-2BEB-884F-8A1D-69FD26C6BD0B}
      IID 61
      NAME "cannabis-infused gummies.mid"
      VOLPAN 1 0 1 -1
      SOFFS 22.04078400000992 36
      PLAYRATE 1 1 0 -1 0 0.0025
      CHANMODE 0
      GUID {73D1F57B-3335-4849-920E-86F3E6E85F47}
      <SOURCE MIDI
        HASDATA 1 128 QN
        CCINTERP 32
        POOLEDEVTS {C01BA77D-BDE4-6941-8874-949688FF6E2D}
        E 0 90 37 73
        E 0 90 40 73
        E 147 80 40 73
        E 0 90 3e 73
        E 64 80 3e 73
        E 0 90 37 73
        E 0 90 35 73
        E 170 80 35 73
        E 0 90 40 73
        E 106 80 40 73
        E 0 90 3a 73
        E 42 80 3a 73
        E 0 90 35 73
        E 170 80 35 73
        E 0 90 40 73
        E 149 80 40 73
        E 0 90 3e 73
        E 64 80 3e 73
        E 0 90 37 73
        E 0 90 35 73
        E 170 80 35 73
        E 0 90 40 73
        E 106 80 40 73
        E 0 90 3a 73
        E 42 80 3a 73
        E 0 90 35 73
        E 170 80 35 73
        E 0 90 40 73
        E 149 80 40 73
        E 0 90 3e 73
        E 64 80 3e 73
        E 0 90 37 73
        E 0 90 35 73
        E 170 80 35 73
        E 0 90 40 73
        E 106 80 40 73
        E 0 90 3a 73
        E 42 80 3a 73
        E 0 90 35 73
        E 170 80 35 73
        E 0 90 40 73
        E 149 80 40 73
        E 0 90 3e 73
        E 64 80 3e 73
        E 0 90 37 73
        E 0 90 35 73
        E 170 80 35 73
        E 0 90 40 73
        E 106 80 40 73
        E 0 90 3a 73
        E 42 80 3a 73
        E 0 90 35 73
        E 170 80 35 73
        E 0 90 40 73
        E 149 80 40 73
        E 0 90 3e 73
        E 64 80 3e 73
        E 0 90 37 73
        E 0 90 35 73
        E 170 80 35 73
        E 0 90 40 73
        E 106 80 40 73
        E 0 90 3a 73
        E 42 80 3a 73
        E 0 90 35 73
        E 170 80 35 73
        E 0 90 40 73
        E 149 80 40 73
        E 0 90 3e 73
        E 64 80 3e 73
        E 0 90 37 73
        E 0 90 35 73
        E 170 80 35 73
        E 0 90 40 73
        E 106 80 40 73
        E 0 90 3a 73
        E 42 80 3a 73
        E 0 90 35 73
        E 170 80 35 73
        E 0 90 40 73
        E 149 80 40 73
        E 0 90 3e 73
        E 64 80 3e 73
        E 0 90 37 73
        E 0 90 35 73
        E 170 80 35 73
        E 0 90 40 73
        E 106 80 40 73
        E 0 90 3a 73
        E 42 80 3a 73
        E 0 90 35 73
        E 170 80 35 73
        E 0 90 40 73
        E 149 80 40 73
        E 0 90 3e 73
        E 64 80 3e 73
        E 0 90 37 73
        E 0 90 35 73
        E 170 80 35 73
        E 0 90 40 73
        E 106 80 40 73
        E 0 90 3a 73
        E 42 80 3a 73
        E 0 90 35 73
        E 170 80 35 73
        E 0 90 40 73
        E 149 80 40 73
        E 0 90 3e 73
        E 64 80 3e 73
        E 0 90 37 73
        E 0 90 35 73
        E 170 80 35 73
        E 0 90 40 73
        E 106 80 40 73
        E 0 90 3a 73
        E 42 80 3a 73
        E 0 90 35 73
        E 170 80 35 73
        E 0 90 40 73
        E 149 80 40 73
        E 0 90 3e 73
        E 64 80 3e 73
        E 0 90 37 73
        E 0 90 35 73
        E 170 80 35 73
        E 0 90 40 73
        E 106 80 40 73
        E 0 90 3a 73
        E 42 80 3a 73
        E 0 90 35 73
        E 170 80 35 73
        E 0 90 40 73
        E 149 80 40 73
        E 0 90 3e 73
        E 64 80 3e 73
        E 0 90 37 73
        E 0 90 35 73
        E 170 80 35 73
        E 0 90 40 73
        E 106 80 40 73
        E 0 90 3a 73
        E 42 80 3a 73
        E 0 90 35 73
        E 170 80 35 73
        E 0 90 40 73
        E 149 80 40 73
        E 0 90 3e 73
        E 64 80 3e 73
        E 0 90 37 73
        E 0 90 3e 73
        E 42 80 3e 73
        E 0 90 35 73
        E 170 80 35 73
        E 0 90 40 73
        E 106 80 40 73
        E 0 90 3a 73
        E 42 80 3a 73
        E 0 90 35 73
        E 170 80 35 73
        E 0 90 40 73
        E 149 80 40 73
        E 0 90 3e 73
        E 42 80 3e 73
        E 0 90 35 73
        E 170 80 35 73
        E 0 90 40 73
        E 106 80 40 73
        E 0 90 3a 73
        E 42 80 3a 73
        E 0 90 35 73
        E 170 80 35 73
        E 0 90 40 73
        E 149 80 40 73
        E 0 90 3e 73
        E 42 80 3e 73
        E 0 90 35 73
        E 170 80 35 73
        E 0 90 40 73
        E 106 80 40 73
        E 0 90 3a 73
        E 42 80 3a 73
        E 0 90 35 73
        E 170 80 35 73
        E 0 90 40 73
        E 149 80 40 73
        E 0 90 3e 73
        E 42 80 3e 73
        E 0 90 35 73
        E 170 80 35 73
        E 0 90 40 73
        E 106 80 40 73
        E 0 90 3a 73
        E 42 80 3a 73
        E 0 90 35 73
        E 170 80 35 73
        E 0 90 40 73
        E 149 80 40 73
        E 0 90 3e 73
        E 42 80 3e 73
        E 0 90 35 73
        E 170 80 35 73
        E 0 90 40 73
        E 106 80 40 73
        E 0 90 3a 73
        E 42 80 3a 73
        E 0 90 35 73
        E 170 80 35 73
        E 0 90 40 73
        E 149 80 40 73
        E 0 90 3e 73
        E 42 80 3e 73
        E 0 90 35 73
        E 170 80 35 73
        E 0 90 40 73
        E 106 80 40 73
        E 0 90 3a 73
        E 42 80 3a 73
        E 0 90 35 73
        E 170 80 35 73
        E 0 90 40 73
        E 149 80 40 73
        E 0 90 3e 73
        E 42 80 3e 73
        E 0 90 35 73
        E 170 80 35 73
        E 0 90 40 73
        E 106 80 40 73
        E 0 90 3a 73
        E 42 80 3a 73
        E 0 90 35 73
        E 170 80 35 73
        E 0 90 40 73
        E 149 80 40 73
        E 0 90 3e 73
        E 42 80 3e 73
        E 0 90 35 73
        E 170 80 35 73
        E 0 90 40 73
        E 106 80 40 73
        E 0 90 3a 73
        E 42 80 3a 73
        E 0 90 35 73
        E 170 80 35 73
        E 0 90 40 73
        E 149 80 40 73
        E 0 90 3e 73
        E 42 80 3e 73
        E 0 90 35 73
        E 170 80 35 73
        E 0 90 40 73
        E 106 80 40 73
        E 0 90 3a 73
        E 42 80 3a 73
        E 0 90 35 73
        E 170 80 35 73
        E 0 90 40 73
        E 149 80 40 73
        E 0 90 3e 73
        E 42 80 3e 73
        E 0 90 35 73
        E 170 80 35 73
        E 0 90 40 73
        E 106 80 40 73
        E 0 90 3a 73
        E 42 80 3a 73
        E 0 90 35 73
        E 170 80 35 73
        E 0 90 40 73
        E 149 80 40 73
        E 0 90 3e 73
        E 42 80 3e 73
        E 0 90 35 73
        E 170 80 35 73
        E 0 90 40 73
        E 106 80 40 73
        E 0 90 3a 73
        E 42 80 3a 73
        E 0 90 35 73
        E 170 80 35 73
        E 0 90 40 73
        E 149 80 40 73
        E 0 90 3e 73
        E 42 80 3e 73
        E 0 90 35 73
        E 170 80 35 73
        E 0 90 40 73
        E 106 80 40 73
        E 0 90 3a 73
        E 42 80 3a 73
        E 0 90 35 73
        E 170 80 35 73
        E 0 90 40 73
        E 149 80 40 73
        E 0 90 3e 73
        E 42 80 3e 73
        E 0 90 35 73
        E 170 80 35 73
        E 0 90 40 73
        E 106 80 40 73
        E 0 90 3a 73
        E 42 80 3a 73
        E 0 90 35 73
        E 170 80 35 73
        E 0 90 40 73
        E 149 80 40 73
        E 0 90 3e 73
        E 42 80 3e 73
        E 0 90 35 73
        E 170 80 35 73
        E 0 90 40 73
        E 106 80 40 73
        E 0 90 3a 73
        E 42 80 3a 73
        E 0 90 35 73
        E 170 80 35 73
        E 0 90 40 73
        E 149 80 40 73
        E 0 90 3e 73
        E 42 80 3e 73
        E 0 90 35 73
        E 170 80 35 73
        E 0 90 40 73
        E 106 80 40 73
        E 0 90 3a 73
        E 42 80 3a 73
        E 0 90 35 73
        E 170 80 35 73
        E 0 90 40 73
        E 149 80 40 73
        E 0 90 3e 73
        E 42 80 3e 73
        E 0 90 35 73
        E 170 80 35 73
        E 0 90 40 73
        E 106 80 40 73
        E 0 90 3a 73
        E 42 80 3a 73
        E 0 90 35 73
        E 170 80 35 73
        E 0 90 40 73
        E 149 80 40 73
        E 0 90 3e 73
        E 42 80 3e 73
        E 0 90 35 73
        E 170 80 35 73
        E 0 90 40 73
        E 106 80 40 73
        E 0 90 3a 73
        E 42 80 3a 73
        E 0 90 35 73
        E 170 80 35 73
        E 0 90 40 73
        E 149 80 40 73
        E 0 90 3e 73
        E 42 80 3e 73
        E 0 90 35 73
        E 170 80 35 73
        E 0 90 40 73
        E 106 80 40 73
        E 0 90 3a 73
        E 42 80 3a 73
        E 0 90 35 73
        E 170 80 35 73
        E 0 90 40 73
        E 149 80 40 73
        E 80 b0 7b 00
        CCINTERP 32
        CHASE_CC_TAKEOFFS 1
        GUID {4439E77E-C0C6-1A43-9BF3-2D9F96168001}
        IGNTEMPO 0 120 4 4
        SRCCOLOR 1261
        VELLANE 1 601 0
        VELLANE -1 196 0
      >
    >
  >
  <TRACK {AB160FD7-74B8-2844-90F7-FD74A8AB5CAE}
    NAME BaliBells
    PEAKCOL 16576
    BEAT -1
    AUTOMODE 0
    VOLPAN 0.43161018370141 -0.52 -1 -1 1
    MUTESOLO 0 0 0
    IPHASE 0
    PLAYOFFS 0 1
    ISBUS 0 0
    BUSCOMP 0 0 0 0 0
    SHOWINMIX 1 0.6667 0.5 1 0.5 0 -1 0
    FREEMODE 0
    SEL 0
    REC 0 0 1 0 0 0 0
    VU 2
    TRACKHEIGHT 0 0 0 0 -1 0
    INQ 0 0 0 0.5 100 0 0 100
    NCHAN 2
    FX 1
    TRACKID {AB160FD7-74B8-2844-90F7-FD74A8AB5CAE}
    PERF 0
    AUXRECV 15 0 1 0 0 0 0 -1 0 -1:U 1024 -1 ''
    MIDIOUT -1
    MAINSEND 1 0
    <FXCHAIN
      WNDRECT 0 0 1792 1095
      SHOW 0
      LASTSEL 0
      DOCKED 0
      BYPASS 0 0 0
      <VST "VSTi: FM8 (Native Instruments GmbH)" FM8.vst 0 "" 1315530296<5653544E696638666D38000000000000> ""
        OGZpTu5e7f4AAAAAAgAAAAEAAAAAAAAAAgAAAAAAAACoCgAAAQAAAAAAEAA=
        qAoAAAAAAAABAAAAaHNpbgEAAAAAAAAAN455D8DDx0mHoN4j0l/0WZYAAAAAAAAARFNJTnYAAAABAAAASAAAAAAAAABEU0lOagAAAAEAAAAYAAAAAAAAAERTSU4BAAAA
        AQAAAAEAAAABAAAAAQAAAAEAAAAAAAAAAAAAAAAAAAANYmWFAQAAAAhwEAAAAAAAAQAAAAEAAAAAAAAAAAAAAAAAAAADAAAAMAAwADAAAAAAAAAAAAAAAAAAAAAAAAEA
        AAABAAAAAAAAAERTSU5lAAAA1gkAAAAAAAABAAAAaHNpbgEAAAAAAAAAMOH4NwAUwEaoogAOyNUgkW0AAAAAAAAARFNJTmUAAAABAAAANAAAAAAAAABEU0lOagAAAAEA
        AAAYAAAAAAAAAERTSU4BAAAAAQAAAAEAAAABAAAAAgAAAAEAAAAACAAAAAEAAAAKAAAAMQAuADIALgAwAC4AMQAwADEAMAABAAAAAwAAAAAAAABEU0lObAAAANQCAAAA
        AAAAAQAAAGhzaW4BAAAAAAAAACA7190CLVtKvWPIjKqbw/ukAgAAAAAAAERTSU5sAAAAAQAAABgAAAAAAAAARFNJTgEAAAABAAAAAQAAAAEAAAACAAAAAQAAAAAAAAAK
        AAAAQgBhAGwAaQAgAEIAZQBsAGwAcwAOAAAASABhAG4AcwAgAFMAYwBoAGUAZgBmAGwAZQByABIAAABOAGEAdABpAHYAZQAgAEkAbgBzAHQAcgB1AG0AZQBuAHQAcwAA
        AAAAAAAAAP////8AAAAAAAAAAAAAAAAAAAAAAAAAAAEAAAABAAAAAgAAAAMAAABGAE0AOAARAAAAVAByAGEAbgBzAGkAZQBuAHQAIABBAHQAdABhAGMAawBzAAgAAAAE
        AAAAQgBlAGwAbAAMAAAARwBsAG8AYwBrAGUAbgBzAHAAaQBlAGwAEgAAAE0AYQBsAGwAZQB0ACAASQBuAHMAdAByAHUAbQBlAG4AdABzABAAAABPAHQAaABlAHIAIABQ
        AGkAYQBuAG8ALwBLAGUAeQBzAAoAAABQAGUAcgBjAHUAcwBzAGkAdgBlAAoAAABQAGkAYQBuAG8ALwBLAGUAeQBzAAkAAABQAHIAbwBjAGUAcwBzAGUAZAAJAAAAUwB5
        AG4AdABoAGUAdABpAGMAAAAAAAcAAAAHAAAAXABAAGMAbwBsAG8AcgABAAAAMAARAAAAXABAAGQAZQB2AGkAYwBlAHQAeQBwAGUAZgBsAGEAZwBzAAEAAAAxAAsAAABc
        AEAAcwBvAHUAbgBkAHQAeQBwAGUAAQAAADAABwAAAFwAQAB0AGUAbQBwAG8AAQAAADAABgAAAFwAQAB2AGUAcgBsAAUAAAAxAC4ANwAuADgABgAAAFwAQAB2AGUAcgBt
        AAUAAAAxAC4ANwAuADgABwAAAFwAQAB2AGkAcwBpAGIAAQAAADAAAQAAAAAAAAACAAAARFNJTnkAAABoAAAAAAAAAAEAAABoc2luAQAAAAAAAABG64vCmumHRIQ9Mih2
        ujahOAAAAAAAAABEU0lOeQAAAAEAAAAYAAAAAAAAAERTSU4BAAAAAQAAAAEAAAABAAAAAQAAAAAAAAABAAAAAAAAAAEAAABEU0lOdAAAANkFAAAAAAAAAQAAAGhzaW4B
        AAAAAAAAAMPiDYJzLJxOuWtBgMMVvqSpBQAAAAAAAERTSU50AAAAAQAAAJAFAAAAAAAARFNJTnMAAAABAAAAGAAAAAAAAABEU0lOAQAAAAEAAAABAAAAAQAAAAEfEAAA
        VwUAAAIfEABgAAABIAUDaHNpbkAHQAAQHyRrBvAZSEqYrqFXTcEPPBhAFCAAA0RTSU5AI+AHA0AAQBsAbSAIAcsPIAQgAEAj4ANTEEkCYzKs2sVGp2B2wrYRj5yboCfA
        N0Av4BdnQCMAU6A3AAUgYwHFDCAEIAAIdHNycEU4TUbPIAsEvCMAAAQgBwNCYWxpQCMEQnV6enlAEANQdXJlQBAETWV0YWwgIAA/4AIDA0EAAIBAD+AHAAFAAGAAAkhC
        AOANHyAAYDcgJwA4ICMAQCBHwABAM0AD4BcfYABAe+ADA0AAwA/gAwBAE6AADIA/9WR8PgAAwD6QaEUgFwAgIANAHwSAP0/G7yAXAOAgAwQAP3MgUSAXAGggA0AbYANA
        AEAPQADAB0AAIAtgq0AAIAtgA0AAQAtAACDjYB8gD8AHQAvgBAAgG2AAQAdAA8AAQAugAxCAP3uD7z4zMyM/w2RKP/MfQiAXBoA/PXnYPQBgI2BbQAAgF0AAAODgAncA
        yCFjYAMhZwAQoAtAAEAzQAMAwCAXwXNAD+AXAEAjgAMGFR0JPj5XGyEzQA/AAGBrIGfAAEBbACAgY0AAQAtAAwCgIB9AB0AAALQgCwCWIAPgAwDAP0AHQAPAAEAz4C9L
        AAQgYwCIIAMA+CCLAHggBwCQIAcA4CADALogC0BXAJogB+BrlyAAAAMgAAABIAAAAkAAIA8CAAEEIABADGAWAAFDwgRHOGRQRyAABAAmMiYyICIALCADYADD/wEAAGA6
        QAAA/kAEgAAC5p2dgAjgLQAAZOAsNuAacgQB//8B/+AEXCDm4BMA4AQrDAAxKik/lt1fQOQUO0FABwZpIkBAl90/ovZCjkAD4BkAQHHgBSXgQ1kgW+ACXeBEWeAEtOA/
        WSXxBYA/IZvLREAHB/aam0ADKrVGYBQDAPALRUAUAAAjjgMM0HhFYBTgHCkilIBLA8GCqElgDAcPQZxES6V5RGAMB7SBwkHzq5JBYAwIZjV3RAlYX0QDQDOAA0P9AYA/
        YG4DzLyMK+ADA+AAFAOnm0Q7QANAHOAAFEAMwAPgABRAJUADQBgAAkAEwANgfuAEDEB2QBDgBBkgmOAFAAsEku18PoXAaj+gGq8lBwEAP0AL4DYUIHFlx2BLIAwAgCBY
        BEA//v8/QAwEAD9mZmZgAyAZ4AEMQJggsuABA0AdQAAk1AH+QqAMAEDgAwzgBBngBAwAiCUU4AAz4AQMAHBgQKJ74AAiDgAA4IurwQJx9QPCAL64wGAMAACgAAKEjorg
        AQwDRaYhwuAAGQIq8MXgARkClieR4AEMQAAgYwRwwqqqEmC64ADYQDwDPxOuxyEQoAxACEADYBlACEAD4B4MIGMFAD/MzAw/JWsBKREgACAP4BwABxkAFSYdMQsS4Aks
        AjMAZCAA4AUXBhcABDAWMAsgAOAFF+ARAAIJFgspcwETYeABIQAa4ApX4AMAAxgcAADgBI7gBoPgBwAAKaAQAAkgBwA2IAPgGwDhIB6gAOAWguByAAD/4BcAJC8DAAAI
        ACNUAT8xIAkAPEIpIAMB8EJnYoXUQmQlhiAWYAkgBgEB+4AJAAEgN4AJRVCgCQIFAfmACQEBBuAAEwAH4AAJIACAHWBIIA0gCSAGIAJACeAMT+AAHeCkT6AAAcEAZFjg
        PQDCmANrbmFiQTHAAAGAACAAABmgEQNjdG5pTO0CEScAQVJMvEAARl4BoELiEw8CdAAA4gAwTUXgEyvg/QDgqQAAICHjQAADc2l1Z0IkAOgjccAARbUAGSAMI5FgAGQb
        IAAGZ3B0Y1lUTSkVDQAADWJlhQEAAAAAAAAAAQAAAAABAAAAAAAAAA==
        ADxkaXNhYmxlZD4AEAAAAA==
      >
      PRESETNAME <disabled>
      FLOATPOS 809 164 948 504
      FXID {8776B3B0-E3BF-4B44-9423-9D99AC136DB5}
      <PROGRAMENV 21 0
        PARAMBASE 0
        LFO 0
        LFOWT 1 1
        AUDIOCTL 0
        AUDIOCTLWT 1 1
        PLINK 1 -100 -1 0.36
        MIDIPLINK 0 0 176 6
      >
      <PROGRAMENV 22 0
        PARAMBASE 0
        LFO 0
        LFOWT 1 1
        AUDIOCTL 0
        AUDIOCTLWT 1 1
        PLINK 1 -100 -1:x-1127727672:-1177994551 0.34
        MIDIPLINK 0 0 176 6
        MODWND 0 138 400 525 691
      >
      PARM_TCP 21 22
      WAK 0 0
    >
    <ITEM
      POSITION 19.59180800000883
      SNAPOFFS 0
      LENGTH 58.83996100794499
      LOOP 1
      ALLTAKES 0
      FADEIN 1 21.792697 0 1 0 0
      FADEOUT 1 32.167868 0 1 0 0
      MUTE 0 0
      SEL 0
      IGUID {18AD9560-7CED-B548-BE0C-5217B68CAB50}
      IID 26
      NAME "cannabis-infused gummies.mid"
      VOLPAN 1 0 1 -1
      SOFFS 0 0
      PLAYRATE 1 1 0 -1 0 0.0025
      CHANMODE 0
      GUID {FB9C7B5F-7180-4F4E-8B9D-D899B19B4B16}
      <SOURCE MIDI
        HASDATA 1 128 QN
        CCINTERP 32
        POOLEDEVTS {8103247F-DDD7-C040-9466-7E28E80D3620}
        E 0 92 3e 73
        E 28 82 3e 73
        E 0 92 35 73
        E 113 82 35 73
        E 0 92 40 73
        E 71 82 40 73
        E 0 92 3a 73
        E 28 82 3a 73
        E 0 92 35 73
        E 113 82 35 73
        E 0 92 40 73
        E 99 82 40 73
        E 0 92 3e 73
        E 28 82 3e 73
        E 0 92 35 73
        E 113 82 35 73
        E 0 92 40 73
        E 71 82 40 73
        E 0 92 3a 73
        E 28 82 3a 73
        E 0 92 35 73
        E 113 82 35 73
        E 0 92 40 73
        E 99 82 40 73
        E 0 92 3e 73
        E 28 82 3e 73
        E 0 92 35 73
        E 113 82 35 73
        E 0 92 40 73
        E 71 82 40 73
        E 0 92 3a 73
        E 28 82 3a 73
        E 0 92 35 73
        E 113 82 35 73
        E 0 92 40 73
        E 99 82 40 73
        E 0 92 3e 73
        E 28 82 3e 73
        E 0 92 35 73
        E 113 82 35 73
        E 0 92 40 73
        E 71 82 40 73
        E 0 92 3a 73
        E 28 82 3a 73
        E 0 92 35 73
        E 113 82 35 73
        E 0 92 40 73
        E 99 82 40 73
        E 0 92 3e 73
        E 28 82 3e 73
        E 0 92 35 73
        E 113 82 35 73
        E 0 92 40 73
        E 71 82 40 73
        E 0 92 3a 73
        E 28 82 3a 73
        E 0 92 35 73
        E 113 82 35 73
        E 0 92 40 73
        E 99 82 40 73
        E 0 92 3e 73
        E 28 82 3e 73
        E 0 92 35 73
        E 113 82 35 73
        E 0 92 40 73
        E 71 82 40 73
        E 0 92 3a 73
        E 28 82 3a 73
        E 0 92 35 73
        E 113 82 35 73
        E 0 92 40 73
        E 99 82 40 73
        E 0 92 3e 73
        E 28 82 3e 73
        E 0 92 35 73
        E 113 82 35 73
        E 0 92 40 73
        E 71 82 40 73
        E 0 92 3a 73
        E 28 82 3a 73
        E 0 92 35 73
        E 113 82 35 73
        E 0 92 40 73
        E 99 82 40 73
        E 0 92 3e 73
        E 28 82 3e 73
        E 0 92 35 73
        E 113 82 35 73
        E 0 92 40 73
        E 71 82 40 73
        E 0 92 3a 73
        E 28 82 3a 73
        E 0 92 35 73
        E 113 82 35 73
        E 0 92 40 73
        E 99 82 40 73
        E 0 92 3e 73
        E 28 82 3e 73
        E 0 92 35 73
        E 113 82 35 73
        E 0 92 40 73
        E 71 82 40 73
        E 0 92 3a 73
        E 28 82 3a 73
        E 0 92 35 73
        E 113 82 35 73
        E 0 92 40 73
        E 99 82 40 73
        E 0 92 3e 73
        E 28 82 3e 73
        E 0 92 35 73
        E 113 82 35 73
        E 0 92 40 73
        E 71 82 40 73
        E 0 92 3a 73
        E 28 82 3a 73
        E 0 92 35 73
        E 113 82 35 73
        E 0 92 40 73
        E 99 82 40 73
        E 0 92 3e 73
        E 28 82 3e 73
        E 0 92 35 73
        E 113 82 35 73
        E 0 92 40 73
        E 71 82 40 73
        E 0 92 3a 73
        E 28 82 3a 73
        E 0 92 35 73
        E 113 82 35 73
        E 0 92 40 73
        E 99 82 40 73
        E 0 92 3e 73
        E 28 82 3e 73
        E 0 92 35 73
        E 113 82 35 73
        E 0 92 40 73
        E 71 82 40 73
        E 0 92 3a 73
        E 28 82 3a 73
        E 0 92 35 73
        E 113 82 35 73
        E 0 92 40 73
        E 99 82 40 73
        E 0 92 3e 73
        E 28 82 3e 73
        E 0 92 35 73
        E 113 82 35 73
        E 0 92 40 73
        E 71 82 40 73
        E 0 92 3a 73
        E 28 82 3a 73
        E 0 92 35 73
        E 113 82 35 73
        E 0 92 40 73
        E 99 82 40 73
        E 0 92 3e 73
        E 28 82 3e 73
        E 0 92 35 73
        E 113 82 35 73
        E 0 92 40 73
        E 71 82 40 73
        E 0 92 3a 73
        E 28 82 3a 73
        E 0 92 35 73
        E 113 82 35 73
        E 0 92 40 73
        E 99 82 40 73
        E 0 92 3e 73
        E 28 82 3e 73
        E 0 92 35 73
        E 113 82 35 73
        E 0 92 40 73
        E 71 82 40 73
        E 0 92 3a 73
        E 28 82 3a 73
        E 0 92 35 73
        E 113 82 35 73
        E 0 92 40 73
        E 99 82 40 73
        E 0 92 3e 73
        E 28 82 3e 73
        E 0 92 35 73
        E 113 82 35 73
        E 0 92 40 73
        E 71 82 40 73
        E 0 92 3a 73
        E 28 82 3a 73
        E 0 92 35 73
        E 113 82 35 73
        E 0 92 40 73
        E 99 82 40 73
        E 0 92 3e 73
        E 28 82 3e 73
        E 0 92 35 73
        E 113 82 35 73
        E 0 92 40 73
        E 71 82 40 73
        E 0 92 3a 73
        E 28 82 3a 73
        E 0 92 35 73
        E 113 82 35 73
        E 0 92 40 73
        E 99 82 40 73
        E 0 92 3e 73
        E 28 82 3e 73
        E 0 92 35 73
        E 113 82 35 73
        E 0 92 40 73
        E 71 82 40 73
        E 0 92 3a 73
        E 28 82 3a 73
        E 0 92 35 73
        E 113 82 35 73
        E 0 92 40 73
        E 99 82 40 73
        E 0 92 3e 73
        E 28 82 3e 73
        E 0 92 35 73
        E 113 82 35 73
        E 0 92 40 73
        E 71 82 40 73
        E 0 92 3a 73
        E 28 82 3a 73
        E 0 92 35 73
        E 113 82 35 73
        E 0 92 40 73
        E 99 82 40 73
        E 0 92 3e 73
        E 28 82 3e 73
        E 0 92 35 73
        E 113 82 35 73
        E 0 92 40 73
        E 71 82 40 73
        E 0 92 3a 73
        E 28 82 3a 73
        E 0 92 35 73
        E 113 82 35 73
        E 0 92 40 73
        E 99 82 40 73
        E 0 92 3e 73
        E 28 82 3e 73
        E 0 92 35 73
        E 113 82 35 73
        E 0 92 40 73
        E 71 82 40 73
        E 0 92 3a 73
        E 28 82 3a 73
        E 0 92 35 73
        E 113 82 35 73
        E 0 92 40 73
        E 99 82 40 73
        E 0 92 3e 73
        E 28 82 3e 73
        E 0 92 35 73
        E 113 82 35 73
        E 0 92 40 73
        E 71 82 40 73
        E 0 92 3a 73
        E 28 82 3a 73
        E 0 92 35 73
        E 113 82 35 73
        E 0 92 40 73
        E 99 82 40 73
        E 0 92 3e 73
        E 28 82 3e 73
        E 0 92 35 73
        E 113 82 35 73
        E 0 92 40 73
        E 71 82 40 73
        E 0 92 3a 73
        E 28 82 3a 73
        E 0 92 35 73
        E 113 82 35 73
        E 0 92 40 73
        E 99 82 40 73
        E 0 92 3e 73
        E 28 82 3e 73
        E 0 92 35 73
        E 113 82 35 73
        E 0 92 40 73
        E 71 82 40 73
        E 0 92 3a 73
        E 28 82 3a 73
        E 0 92 35 73
        E 113 82 35 73
        E 0 92 40 73
        E 99 82 40 73
        E 0 92 3e 73
        E 28 82 3e 73
        E 0 92 35 73
        E 113 82 35 73
        E 0 92 40 73
        E 71 82 40 73
        E 0 92 3a 73
        E 28 82 3a 73
        E 0 92 35 73
        E 113 82 35 73
        E 0 92 40 73
        E 99 82 40 73
        E 0 92 3e 73
        E 28 82 3e 73
        E 0 92 35 73
        E 113 82 35 73
        E 0 92 40 73
        E 71 82 40 73
        E 0 92 3a 73
        E 28 82 3a 73
        E 0 92 35 73
        E 113 82 35 73
        E 0 92 40 73
        E 99 82 40 73
        E 0 92 3e 73
        E 28 82 3e 73
        E 0 92 35 73
        E 113 82 35 73
        E 0 92 40 73
        E 71 82 40 73
        E 0 92 3a 73
        E 28 82 3a 73
        E 0 92 35 73
        E 113 82 35 73
        E 0 92 40 73
        E 99 82 40 73
        E 0 92 3a 73
        E 28 82 3a 73
        E 0 92 35 73
        E 69 82 35 00
        E 0 b0 7b 00
        CCINTERP 32
        CHASE_CC_TAKEOFFS 1
        GUID {25F84936-BAD9-7E44-A377-FC286F4791B2}
        IGNTEMPO 0 120 4 4
        SRCCOLOR 1162
        VELLANE 3 156 0
        VELLANE -1 196 0
      >
    >
    <ITEM
      POSITION 78.43176900795382
      SNAPOFFS 0
      LENGTH 78.30269499211678
      LOOP 1
      ALLTAKES 0
      FADEIN 1 23.13195 0 1 0 0
      FADEOUT 1 28.605146 0 1 0 0
      MUTE 0 0
      SEL 0
      IGUID {C54225A5-70E1-4541-85AD-96193D430D0A}
      IID 125
      NAME "cannabis-infused gummies.mid"
      VOLPAN 1 0 1 -1
      SOFFS 58.83996100794499 96.10541060086908
      PLAYRATE 1 1 0 -1 0 0.0025
      CHANMODE 0
      GUID {6A7BAB31-1073-1941-BB6C-122FF34C4CF5}
      <SOURCE MIDI
        HASDATA 1 128 QN
        CCINTERP 32
        POOLEDEVTS {F7AA0EEE-7C64-3840-A389-9B061488B835}
        E 0 92 3e 73
        E 28 82 3e 73
        E 0 92 35 73
        E 113 82 35 73
        E 0 92 40 73
        E 71 82 40 73
        E 0 92 3a 73
        E 28 82 3a 73
        E 0 92 35 73
        E 113 82 35 73
        E 0 92 40 73
        E 99 82 40 73
        E 0 92 3e 73
        E 28 82 3e 73
        E 0 92 35 73
        E 113 82 35 73
        E 0 92 40 73
        E 71 82 40 73
        E 0 92 3a 73
        E 28 82 3a 73
        E 0 92 35 73
        E 113 82 35 73
        E 0 92 40 73
        E 99 82 40 73
        E 0 92 3e 73
        E 28 82 3e 73
        E 0 92 35 73
        E 113 82 35 73
        E 0 92 40 73
        E 71 82 40 73
        E 0 92 3a 73
        E 28 82 3a 73
        E 0 92 35 73
        E 113 82 35 73
        E 0 92 40 73
        E 99 82 40 73
        E 0 92 3e 73
        E 28 82 3e 73
        E 0 92 35 73
        E 113 82 35 73
        E 0 92 40 73
        E 71 82 40 73
        E 0 92 3a 73
        E 28 82 3a 73
        E 0 92 35 73
        E 113 82 35 73
        E 0 92 40 73
        E 99 82 40 73
        E 0 92 3e 73
        E 28 82 3e 73
        E 0 92 35 73
        E 113 82 35 73
        E 0 92 40 73
        E 71 82 40 73
        E 0 92 3a 73
        E 28 82 3a 73
        E 0 92 35 73
        E 113 82 35 73
        E 0 92 40 73
        E 99 82 40 73
        E 0 92 3e 73
        E 28 82 3e 73
        E 0 92 35 73
        E 113 82 35 73
        E 0 92 40 73
        E 71 82 40 73
        E 0 92 3a 73
        E 28 82 3a 73
        E 0 92 35 73
        E 113 82 35 73
        E 0 92 40 73
        E 99 82 40 73
        E 0 92 3e 73
        E 28 82 3e 73
        E 0 92 35 73
        E 113 82 35 73
        E 0 92 40 73
        E 71 82 40 73
        E 0 92 3a 73
        E 28 82 3a 73
        E 0 92 35 73
        E 113 82 35 73
        E 0 92 40 73
        E 99 82 40 73
        E 0 92 3e 73
        E 28 82 3e 73
        E 0 92 35 73
        E 113 82 35 73
        E 0 92 40 73
        E 71 82 40 73
        E 0 92 3a 73
        E 28 82 3a 73
        E 0 92 35 73
        E 113 82 35 73
        E 0 92 40 73
        E 99 82 40 73
        E 0 92 3e 73
        E 28 82 3e 73
        E 0 92 35 73
        E 113 82 35 73
        E 0 92 40 73
        E 71 82 40 73
        E 0 92 3a 73
        E 28 82 3a 73
        E 0 92 35 73
        E 113 82 35 73
        E 0 92 40 73
        E 99 82 40 73
        E 0 92 3e 73
        E 28 82 3e 73
        E 0 92 35 73
        E 113 82 35 73
        E 0 92 40 73
        E 71 82 40 73
        E 0 92 3a 73
        E 28 82 3a 73
        E 0 92 35 73
        E 113 82 35 73
        E 0 92 40 73
        E 99 82 40 73
        E 0 92 3e 73
        E 28 82 3e 73
        E 0 92 35 73
        E 113 82 35 73
        E 0 92 40 73
        E 71 82 40 73
        E 0 92 3a 73
        E 28 82 3a 73
        E 0 92 35 73
        E 113 82 35 73
        E 0 92 40 73
        E 99 82 40 73
        E 0 92 3e 73
        E 28 82 3e 73
        E 0 92 35 73
        E 113 82 35 73
        E 0 92 40 73
        E 71 82 40 73
        E 0 92 3a 73
        E 28 82 3a 73
        E 0 92 35 73
        E 113 82 35 73
        E 0 92 40 73
        E 99 82 40 73
        E 0 92 3e 73
        E 28 82 3e 73
        E 0 92 35 73
        E 113 82 35 73
        E 0 92 40 73
        E 71 82 40 73
        E 0 92 3a 73
        E 28 82 3a 73
        E 0 92 35 73
        E 113 82 35 73
        E 0 92 40 73
        E 99 82 40 73
        E 0 92 3e 73
        E 28 82 3e 73
        E 0 92 35 73
        E 113 82 35 73
        E 0 92 40 73
        E 71 82 40 73
        E 0 92 3a 73
        E 28 82 3a 73
        E 0 92 35 73
        E 113 82 35 73
        E 0 92 40 73
        E 99 82 40 73
        E 0 92 3e 73
        E 28 82 3e 73
        E 0 92 35 73
        E 113 82 35 73
        E 0 92 40 73
        E 71 82 40 73
        E 0 92 3a 73
        E 28 82 3a 73
        E 0 92 35 73
        E 113 82 35 73
        E 0 92 40 73
        E 99 82 40 73
        E 0 92 3e 73
        E 28 82 3e 73
        E 0 92 35 73
        E 113 82 35 73
        E 0 92 40 73
        E 71 82 40 73
        E 0 92 3a 73
        E 28 82 3a 73
        E 0 92 35 73
        E 113 82 35 73
        E 0 92 40 73
        E 99 82 40 73
        E 0 92 3e 73
        E 28 82 3e 73
        E 0 92 35 73
        E 113 82 35 73
        E 0 92 40 73
        E 71 82 40 73
        E 0 92 3a 73
        E 28 82 3a 73
        E 0 92 35 73
        E 113 82 35 73
        E 0 92 40 73
        E 99 82 40 73
        E 0 92 3e 73
        E 28 82 3e 73
        E 0 92 35 73
        E 113 82 35 73
        E 0 92 40 73
        E 71 82 40 73
        E 0 92 3a 73
        E 28 82 3a 73
        E 0 92 35 73
        E 113 82 35 73
        E 0 92 40 73
        E 99 82 40 73
        E 0 92 3e 73
        E 28 82 3e 73
        E 0 92 35 73
        E 113 82 35 73
        E 0 92 40 73
        E 71 82 40 73
        E 0 92 3a 73
        E 28 82 3a 73
        E 0 92 35 73
        E 113 82 35 73
        E 0 92 40 73
        E 99 82 40 73
        E 0 92 3e 73
        E 28 82 3e 73
        E 0 92 35 73
        E 113 82 35 73
        E 0 92 40 73
        E 71 82 40 73
        E 0 92 3a 73
        E 28 82 3a 73
        E 0 92 35 73
        E 113 82 35 73
        E 0 92 40 73
        E 99 82 40 73
        E 0 92 3e 73
        E 28 82 3e 73
        E 0 92 35 73
        E 113 82 35 73
        E 0 92 40 73
        E 71 82 40 73
        E 0 92 3a 73
        E 28 82 3a 73
        E 0 92 35 73
        E 113 82 35 73
        E 0 92 40 73
        E 99 82 40 73
        E 0 92 3e 73
        E 28 82 3e 73
        E 0 92 35 73
        E 113 82 35 73
        E 0 92 40 73
        E 71 82 40 73
        E 0 92 3a 73
        E 28 82 3a 73
        E 0 92 35 73
        E 113 82 35 73
        E 0 92 40 73
        E 99 82 40 73
        E 0 92 3e 73
        E 28 82 3e 73
        E 0 92 35 73
        E 113 82 35 73
        E 0 92 40 73
        E 71 82 40 73
        E 0 92 3a 73
        E 28 82 3a 73
        E 0 92 35 73
        E 113 82 35 73
        E 0 92 40 73
        E 99 82 40 73
        E 0 92 3e 73
        E 28 82 3e 73
        E 0 92 35 73
        E 113 82 35 73
        E 0 92 40 73
        E 71 82 40 73
        E 0 92 3a 73
        E 28 82 3a 73
        E 0 92 35 73
        E 113 82 35 73
        E 0 92 40 73
        E 99 82 40 73
        E 0 92 3e 73
        E 28 82 3e 73
        E 0 92 35 73
        E 113 82 35 73
        E 0 92 40 73
        E 71 82 40 73
        E 0 92 3a 73
        E 28 82 3a 73
        E 0 92 35 73
        E 113 82 35 73
        E 0 92 40 73
        E 99 82 40 73
        E 0 92 3e 73
        E 28 82 3e 73
        E 0 92 35 73
        E 113 82 35 73
        E 0 92 40 73
        E 71 82 40 73
        E 0 92 3a 73
        E 28 82 3a 73
        E 0 92 35 73
        E 113 82 35 73
        E 0 92 40 73
        E 99 82 40 73
        E 0 92 3e 73
        E 28 82 3e 73
        E 0 92 35 73
        E 113 82 35 73
        E 0 92 40 73
        E 71 82 40 73
        E 0 92 3a 73
        E 28 82 3a 73
        E 0 92 35 73
        E 113 82 35 73
        E 0 92 40 73
        E 99 82 40 73
        E 0 92 3a 73
        E 28 82 3a 73
        E 0 92 35 73
        E 113 82 35 73
        E 0 92 40 73
        E 99 82 40 73
        E 0 92 3e 73
        E 42 82 3e 73
        E 0 92 37 73
        E 0 92 32 73
        E 113 82 32 73
        E 0 92 40 73
        E 85 82 40 73
        E 0 92 3a 73
        E 28 82 3a 73
        E 0 92 35 73
        E 113 82 35 73
        E 0 92 40 73
        E 99 82 40 73
        E 0 92 3e 73
        E 42 82 3e 73
        E 0 92 37 73
        E 0 92 32 73
        E 113 82 32 73
        E 0 92 40 73
        E 85 82 40 73
        E 0 92 3a 73
        E 28 82 3a 73
        E 0 92 35 73
        E 113 82 35 73
        E 0 92 40 73
        E 99 82 40 73
        E 0 92 3e 73
        E 42 82 3e 73
        E 0 92 37 73
        E 0 92 32 73
        E 113 82 32 73
        E 0 92 40 73
        E 85 82 40 73
        E 0 92 3a 73
        E 28 82 3a 73
        E 0 92 35 73
        E 113 82 35 73
        E 0 92 40 73
        E 99 82 40 73
        E 0 92 3e 73
        E 42 82 3e 73
        E 0 92 37 73
        E 0 92 32 73
        E 113 82 32 73
        E 0 92 40 73
        E 85 82 40 73
        E 0 92 3a 73
        E 28 82 3a 73
        E 0 92 35 73
        E 113 82 35 73
        E 0 92 40 73
        E 99 82 40 73
        E 0 92 3e 73
        E 42 82 3e 73
        E 0 92 37 73
        E 0 92 32 73
        E 113 82 32 73
        E 0 92 40 73
        E 85 82 40 73
        E 0 92 3a 73
        E 28 82 3a 73
        E 0 92 35 73
        E 113 82 35 73
        E 0 92 40 73
        E 99 82 40 73
        E 0 92 3e 73
        E 42 82 3e 73
        E 0 92 37 73
        E 0 92 32 73
        E 113 82 32 73
        E 0 92 40 73
        E 85 82 40 73
        E 0 92 3a 73
        E 28 82 3a 73
        E 0 92 35 73
        E 113 82 35 73
        E 0 92 40 73
        E 99 82 40 73
        E 0 92 3e 73
        E 42 82 3e 73
        E 0 92 37 73
        E 0 92 32 73
        E 113 82 32 73
        E 0 92 40 73
        E 85 82 40 73
        E 0 92 3a 73
        E 28 82 3a 73
        E 0 92 35 73
        E 113 82 35 73
        E 0 92 40 73
        E 99 82 40 73
        E 0 92 3e 73
        E 42 82 3e 73
        E 0 92 37 73
        E 0 92 32 73
        E 113 82 32 73
        E 0 92 40 73
        E 85 82 40 73
        E 0 92 3a 73
        E 28 82 3a 73
        E 0 92 35 73
        E 113 82 35 73
        E 0 92 40 73
        E 99 82 40 73
        E 0 92 3e 73
        E 42 82 3e 73
        E 0 92 37 73
        E 0 92 32 73
        E 113 82 32 73
        E 0 92 40 73
        E 85 82 40 73
        E 0 92 3a 73
        E 28 82 3a 73
        E 0 92 35 73
        E 113 82 35 73
        E 0 92 40 73
        E 99 82 40 73
        E 0 92 3e 73
        E 42 82 3e 73
        E 0 92 37 73
        E 0 92 32 73
        E 113 82 32 73
        E 0 92 40 73
        E 85 82 40 73
        E 0 92 3a 73
        E 28 82 3a 73
        E 0 92 35 73
        E 113 82 35 73
        E 0 92 40 73
        E 99 82 40 73
        E 0 92 3e 73
        E 42 82 3e 73
        E 0 92 37 73
        E 0 92 32 73
        E 113 82 32 73
        E 0 92 40 73
        E 85 82 40 73
        E 0 92 3a 73
        E 28 82 3a 73
        E 0 92 35 73
        E 113 82 35 73
        E 0 92 40 73
        E 99 82 40 73
        E 0 92 3e 73
        E 42 82 3e 73
        E 0 92 37 73
        E 0 92 32 73
        E 113 82 32 73
        E 0 92 40 73
        E 85 82 40 73
        E 0 92 3a 73
        E 28 82 3a 73
        E 0 92 35 73
        E 113 82 35 73
        E 0 92 40 73
        E 99 82 40 73
        E 0 92 3e 73
        E 42 82 3e 73
        E 0 92 37 73
        E 0 92 32 73
        E 113 82 32 73
        E 0 92 40 73
        E 85 82 40 73
        E 0 92 3a 73
        E 28 82 3a 73
        E 0 92 35 73
        E 113 82 35 73
        E 0 92 40 73
        E 99 82 40 73
        E 0 92 3e 73
        E 42 82 3e 73
        E 0 92 37 73
        E 0 92 32 73
        E 113 82 32 73
        E 0 92 40 73
        E 85 82 40 73
        E 0 92 3a 73
        E 28 82 3a 73
        E 0 92 35 73
        E 113 82 35 73
        E 0 92 40 73
        E 99 82 40 73
        E 0 92 3e 73
        E 42 82 3e 73
        E 0 92 37 73
        E 0 92 32 73
        E 113 82 32 73
        E 0 92 40 73
        E 85 82 40 73
        E 0 92 3a 73
        E 28 82 3a 73
        E 0 92 35 73
        E 113 82 35 73
        E 0 92 40 73
        E 99 82 40 73
        E 0 92 3e 73
        E 42 82 3e 73
        E 0 92 37 73
        E 0 92 32 73
        E 113 82 32 73
        E 0 92 40 73
        E 85 82 40 73
        E 0 92 3a 73
        E 28 82 3a 73
        E 0 92 35 73
        E 113 82 35 73
        E 0 92 40 73
        E 99 82 40 73
        E 0 92 3e 73
        E 42 82 3e 73
        E 0 92 37 73
        E 0 92 32 73
        E 113 82 32 73
        E 0 92 40 73
        E 85 82 40 73
        E 0 92 3a 73
        E 28 82 3a 73
        E 0 92 35 73
        E 113 82 35 73
        E 0 92 40 73
        E 99 82 40 73
        E 0 92 3e 73
        E 42 82 3e 73
        E 0 92 37 73
        E 0 92 32 73
        E 113 82 32 73
        E 0 92 40 73
        E 85 82 40 73
        E 0 92 3a 73
        E 28 82 3a 73
        E 0 92 35 73
        E 113 82 35 73
        E 0 92 40 73
        E 99 82 40 73
        E 0 92 3e 73
        E 42 82 3e 73
        E 0 92 37 73
        E 0 92 32 73
        E 113 82 32 73
        E 0 92 40 73
        E 85 82 40 73
        E 0 92 3a 73
        E 28 82 3a 73
        E 0 92 35 73
        E 113 82 35 73
        E 0 92 40 73
        E 99 82 40 73
        E 0 92 3e 73
        E 42 82 3e 73
        E 0 92 37 73
        E 0 92 32 73
        E 113 82 32 73
        E 0 92 40 73
        E 85 82 40 73
        E 0 92 3a 73
        E 28 82 3a 73
        E 0 92 35 73
        E 113 82 35 73
        E 0 92 40 73
        E 99 82 40 73
        E 0 92 3e 73
        E 42 82 3e 73
        E 0 92 37 73
        E 0 92 32 73
        E 113 82 32 73
        E 0 92 40 73
        E 85 82 40 73
        E 0 92 3a 73
        E 28 82 3a 73
        E 0 92 35 73
        E 113 82 35 73
        E 0 92 40 73
        E 99 82 40 73
        E 0 92 3e 73
        E 42 82 3e 73
        E 0 92 37 73
        E 0 92 32 73
        E 113 82 32 73
        E 0 92 40 73
        E 85 82 40 73
        E 0 92 3a 73
        E 28 82 3a 73
        E 0 92 35 73
        E 113 82 35 73
        E 0 92 40 73
        E 99 82 40 73
        E 0 92 3e 73
        E 42 82 3e 73
        E 0 92 37 73
        E 0 92 32 73
        E 113 82 32 73
        E 0 92 40 73
        E 85 82 40 73
        E 0 92 3a 73
        E 28 82 3a 73
        E 0 92 35 73
        E 113 82 35 73
        E 0 92 40 73
        E 99 82 40 73
        E 0 92 3e 73
        E 42 82 3e 73
        E 0 92 37 73
        E 0 92 32 73
        E 113 82 32 73
        E 0 92 40 73
        E 85 82 40 73
        E 0 92 3a 73
        E 28 82 3a 73
        E 0 92 35 73
        E 113 82 35 73
        E 0 92 40 73
        E 99 82 40 73
        E 0 92 3e 73
        E 42 82 3e 73
        E 0 92 37 73
        E 0 92 32 73
        E 113 82 32 73
        E 0 92 40 73
        E 85 82 40 73
        E 0 92 3a 73
        E 28 82 3a 73
        E 0 92 35 73
        E 113 82 35 73
        E 0 92 40 73
        E 99 82 40 73
        E 0 92 3e 73
        E 42 82 3e 73
        E 0 92 37 73
        E 0 92 32 73
        E 113 82 32 73
        E 0 92 40 73
        E 85 82 40 73
        E 0 92 3a 73
        E 28 82 3a 73
        E 0 92 35 73
        E 113 82 35 73
        E 0 92 40 73
        E 99 82 40 73
        E 0 92 3e 73
        E 42 82 3e 73
        E 0 92 37 73
        E 0 92 32 73
        E 113 82 32 73
        E 0 92 40 73
        E 85 82 40 73
        E 0 92 3a 73
        E 28 82 3a 73
        E 0 92 35 73
        E 113 82 35 73
        E 0 92 40 73
        E 99 82 40 73
        E 0 92 3e 73
        E 42 82 3e 73
        E 0 92 37 73
        E 0 92 32 73
        E 113 82 32 73
        E 0 92 40 73
        E 85 82 40 73
        E 0 92 3a 73
        E 28 82 3a 73
        E 0 92 35 73
        E 113 82 35 73
        E 0 92 40 73
        E 99 82 40 73
        E 0 92 3e 73
        E 42 82 3e 73
        E 0 92 37 73
        E 0 92 32 73
        E 113 82 32 73
        E 0 92 40 73
        E 85 82 40 73
        E 0 92 3a 73
        E 28 82 3a 73
        E 0 92 35 73
        E 113 82 35 73
        E 0 92 40 73
        E 99 82 40 73
        E 0 92 3e 73
        E 42 82 3e 73
        E 0 92 37 73
        E 0 92 32 73
        E 113 82 32 73
        E 0 92 40 73
        E 85 82 40 73
        E 0 92 3a 73
        E 28 82 3a 73
        E 0 92 35 73
        E 113 82 35 73
        E 0 92 40 73
        E 99 82 40 73
        E 0 92 3e 73
        E 42 82 3e 73
        E 0 92 37 73
        E 0 92 32 73
        E 113 82 32 73
        E 0 92 40 73
        E 85 82 40 73
        E 0 92 3a 73
        E 28 82 3a 73
        E 0 92 35 73
        E 113 82 35 73
        E 0 92 40 73
        E 99 82 40 73
        E 0 92 3e 73
        E 42 82 3e 73
        E 0 92 37 73
        E 0 92 32 73
        E 113 82 32 73
        E 0 92 40 73
        E 85 82 40 73
        E 0 92 3a 73
        E 28 82 3a 73
        E 0 92 35 73
        E 113 82 35 73
        E 0 92 40 73
        E 99 82 40 73
        E 0 92 3e 73
        E 42 82 3e 73
        E 0 92 37 73
        E 0 92 32 73
        E 113 82 32 73
        E 0 92 40 73
        E 85 82 40 73
        E 0 92 3a 73
        E 28 82 3a 73
        E 0 92 35 73
        E 113 82 35 73
        E 0 92 40 73
        E 99 82 40 73
        E 0 92 3e 73
        E 42 82 3e 73
        E 0 92 37 73
        E 0 92 32 73
        E 113 82 32 73
        E 0 92 40 73
        E 85 82 40 73
        E 0 92 3a 73
        E 28 82 3a 73
        E 0 92 35 73
        E 113 82 35 73
        E 0 92 40 73
        E 7 82 37 00
        E 0 82 40 00
        E 0 b0 7b 00
        CCINTERP 32
        CHASE_CC_TAKEOFFS 1
        GUID {D33DD213-651D-5940-B939-F6CA06FEEBDA}
        IGNTEMPO 0 120 4 4
        SRCCOLOR 1314
        VELLANE 6 601 0
        VELLANE -1 196 0
      >
    >
    <ITEM
      POSITION 174.57393746931655
      SNAPOFFS 0
      LENGTH 80.77756676780513
      LOOP 1
      ALLTAKES 0
      FADEIN 1 53.673353 0 1 0 0
      FADEOUT 1 0 0 1 0 0
      MUTE 0 0
      SEL 1
      IGUID {71806E09-61ED-1249-AD7B-A3EE76440D36}
      IID 95
      NAME "cannabis-infused gummies.mid"
      VOLPAN 1 0 1 -1
      SOFFS 17.79371723212432 29.063114105024
      PLAYRATE 1 1 0 -1 0 0.0025
      CHANMODE 0
      GUID {B580B15E-68BD-9D4A-B9BD-46FC886E6A93}
      <SOURCE MIDI
        HASDATA 1 128 QN
        CCINTERP 32
        POOLEDEVTS {57AE75CC-EA02-EB4A-9CFF-C53043AACA3F}
        E 0 92 37 73
        E 0 92 40 73
        E 92 82 40 73
        E 0 92 3e 73
        E 42 82 3e 73
        E 0 92 37 73
        E 0 92 32 73
        E 113 82 32 73
        E 0 92 40 73
        E 85 82 40 73
        E 0 92 3a 73
        E 28 82 3a 73
        E 0 92 35 73
        E 113 82 35 73
        E 0 92 40 73
        E 99 82 40 73
        E 0 92 3e 73
        E 42 82 3e 73
        E 0 92 37 73
        E 0 92 32 73
        E 113 82 32 73
        E 0 92 40 73
        E 85 82 40 73
        E 0 92 3a 73
        E 28 82 3a 73
        E 0 92 35 73
        E 113 82 35 73
        E 0 92 40 73
        E 99 82 40 73
        E 0 92 3e 73
        E 42 82 3e 73
        E 0 92 37 73
        E 0 92 32 73
        E 113 82 32 73
        E 0 92 40 73
        E 85 82 40 73
        E 0 92 3a 73
        E 28 82 3a 73
        E 0 92 35 73
        E 113 82 35 73
        E 0 92 40 73
        E 99 82 40 73
        E 0 92 3e 73
        E 42 82 3e 73
        E 0 92 37 73
        E 0 92 32 73
        E 113 82 32 73
        E 0 92 40 73
        E 85 82 40 73
        E 0 92 3a 73
        E 28 82 3a 73
        E 0 92 35 73
        E 113 82 35 73
        E 0 92 40 73
        E 99 82 40 73
        E 0 92 3e 73
        E 42 82 3e 73
        E 0 92 37 73
        E 0 92 32 73
        E 113 82 32 73
        E 0 92 40 73
        E 85 82 40 73
        E 0 92 3a 73
        E 28 82 3a 73
        E 0 92 35 73
        E 113 82 35 73
        E 0 92 40 73
        E 99 82 40 73
        E 0 92 3e 73
        E 42 82 3e 73
        E 0 92 37 73
        E 0 92 32 73
        E 113 82 32 73
        E 0 92 40 73
        E 85 82 40 73
        E 0 92 3a 73
        E 28 82 3a 73
        E 0 92 35 73
        E 113 82 35 73
        E 0 92 40 73
        E 99 82 40 73
        E 0 92 3e 73
        E 42 82 3e 73
        E 0 92 37 73
        E 0 92 32 73
        E 113 82 32 73
        E 0 92 40 73
        E 85 82 40 73
        E 0 92 3a 73
        E 28 82 3a 73
        E 0 92 35 73
        E 113 82 35 73
        E 0 92 40 73
        E 99 82 40 73
        E 0 92 3e 73
        E 42 82 3e 73
        E 0 92 37 73
        E 0 92 32 73
        E 113 82 32 73
        E 0 92 40 73
        E 85 82 40 73
        E 0 92 3a 73
        E 28 82 3a 73
        E 0 92 35 73
        E 113 82 35 73
        E 0 92 40 73
        E 99 82 40 73
        E 0 92 3e 73
        E 42 82 3e 73
        E 0 92 37 73
        E 0 92 32 73
        E 113 82 32 73
        E 0 92 40 73
        E 85 82 40 73
        E 0 92 3a 73
        E 28 82 3a 73
        E 0 92 35 73
        E 113 82 35 73
        E 0 92 40 73
        E 99 82 40 73
        E 0 92 3e 73
        E 42 82 3e 73
        E 0 92 37 73
        E 0 92 32 73
        E 113 82 32 73
        E 0 92 40 73
        E 85 82 40 73
        E 0 92 3a 73
        E 28 82 3a 73
        E 0 92 35 73
        E 113 82 35 73
        E 0 92 40 73
        E 99 82 40 73
        E 0 92 3e 73
        E 42 82 3e 73
        E 0 92 37 73
        E 0 92 32 73
        E 113 82 32 73
        E 0 92 40 73
        E 85 82 40 73
        E 0 92 3a 73
        E 28 82 3a 73
        E 0 92 35 73
        E 113 82 35 73
        E 0 92 40 73
        E 99 82 40 73
        E 0 92 3e 73
        E 42 82 3e 73
        E 0 92 37 73
        E 0 92 32 73
        E 113 82 32 73
        E 0 92 40 73
        E 85 82 40 73
        E 0 92 3a 73
        E 28 82 3a 73
        E 0 92 35 73
        E 113 82 35 73
        E 0 92 40 73
        E 99 82 40 73
        E 0 92 3e 73
        E 42 82 3e 73
        E 0 92 37 73
        E 0 92 32 73
        E 113 82 32 73
        E 0 92 40 73
        E 85 82 40 73
        E 0 92 3a 73
        E 28 82 3a 73
        E 0 92 35 73
        E 113 82 35 73
        E 0 92 40 73
        E 99 82 40 73
        E 0 92 3e 73
        E 42 82 3e 73
        E 0 92 37 73
        E 0 92 32 73
        E 113 82 32 73
        E 0 92 40 73
        E 85 82 40 73
        E 0 92 3a 73
        E 28 82 3a 73
        E 0 92 35 73
        E 113 82 35 73
        E 0 92 40 73
        E 99 82 40 73
        E 0 92 3e 73
        E 42 82 3e 73
        E 0 92 37 73
        E 0 92 32 73
        E 113 82 32 73
        E 0 92 40 73
        E 85 82 40 73
        E 0 92 3a 73
        E 28 82 3a 73
        E 0 92 35 73
        E 113 82 35 73
        E 0 92 40 73
        E 99 82 40 73
        E 0 92 3e 73
        E 42 82 3e 73
        E 0 92 37 73
        E 0 92 32 73
        E 113 82 32 73
        E 0 92 40 73
        E 85 82 40 73
        E 0 92 3a 73
        E 28 82 3a 73
        E 0 92 35 73
        E 113 82 35 73
        E 0 92 40 73
        E 99 82 40 73
        E 0 92 3e 73
        E 42 82 3e 73
        E 0 92 37 73
        E 0 92 32 73
        E 113 82 32 73
        E 0 92 40 73
        E 85 82 40 73
        E 0 92 3a 73
        E 28 82 3a 73
        E 0 92 35 73
        E 113 82 35 73
        E 0 92 40 73
        E 99 82 40 73
        E 0 92 3e 73
        E 42 82 3e 73
        E 0 92 37 73
        E 0 92 32 73
        E 113 82 32 73
        E 0 92 40 73
        E 85 82 40 73
        E 0 92 3a 73
        E 28 82 3a 73
        E 0 92 35 73
        E 113 82 35 73
        E 0 92 40 73
        E 99 82 40 73
        E 0 92 3e 73
        E 42 82 3e 73
        E 0 92 37 73
        E 0 92 32 73
        E 113 82 32 73
        E 0 92 40 73
        E 85 82 40 73
        E 0 92 3a 73
        E 28 82 3a 73
        E 0 92 35 73
        E 113 82 35 73
        E 0 92 40 73
        E 99 82 40 73
        E 0 92 3e 73
        E 42 82 3e 73
        E 0 92 37 73
        E 0 92 32 73
        E 113 82 32 73
        E 0 92 40 73
        E 85 82 40 73
        E 0 92 3a 73
        E 28 82 3a 73
        E 0 92 35 73
        E 113 82 35 73
        E 0 92 40 73
        E 99 82 40 73
        E 0 92 3e 73
        E 42 82 3e 73
        E 0 92 37 73
        E 0 92 32 73
        E 113 82 32 73
        E 0 92 40 73
        E 85 82 40 73
        E 0 92 3a 73
        E 28 82 3a 73
        E 0 92 35 73
        E 113 82 35 73
        E 0 92 40 73
        E 99 82 40 73
        E 0 92 3e 73
        E 42 82 3e 73
        E 0 92 37 73
        E 0 92 32 73
        E 113 82 32 73
        E 0 92 40 73
        E 85 82 40 73
        E 0 92 3a 73
        E 28 82 3a 73
        E 0 92 35 73
        E 113 82 35 73
        E 0 92 40 73
        E 99 82 40 73
        E 0 92 3e 73
        E 42 82 3e 73
        E 0 92 37 73
        E 0 92 32 73
        E 113 82 32 73
        E 0 92 40 73
        E 85 82 40 73
        E 0 92 3a 73
        E 28 82 3a 73
        E 0 92 35 73
        E 113 82 35 73
        E 0 92 40 73
        E 99 82 40 73
        E 0 92 3e 73
        E 42 82 3e 73
        E 0 92 37 73
        E 0 92 32 73
        E 113 82 32 73
        E 0 92 40 73
        E 85 82 40 73
        E 0 92 3a 73
        E 28 82 3a 73
        E 0 92 35 73
        E 113 82 35 73
        E 0 92 40 73
        E 99 82 40 73
        E 0 92 3e 73
        E 42 82 3e 73
        E 0 92 37 73
        E 0 92 32 73
        E 113 82 32 73
        E 0 92 40 73
        E 85 82 40 73
        E 0 92 3a 73
        E 28 82 3a 73
        E 0 92 35 73
        E 113 82 35 73
        E 0 92 40 73
        E 99 82 40 73
        E 0 92 3e 73
        E 42 82 3e 73
        E 0 92 37 73
        E 0 92 32 73
        E 113 82 32 73
        E 0 92 40 73
        E 85 82 40 73
        E 0 92 3a 73
        E 28 82 3a 73
        E 0 92 35 73
        E 113 82 35 73
        E 0 92 40 73
        E 99 82 40 73
        E 0 92 3e 73
        E 42 82 3e 73
        E 0 92 37 73
        E 0 92 32 73
        E 113 82 32 73
        E 0 92 40 73
        E 85 82 40 73
        E 0 92 3a 73
        E 28 82 3a 73
        E 0 92 35 73
        E 113 82 35 73
        E 0 92 40 73
        E 99 82 40 73
        E 0 92 3e 73
        E 42 82 3e 73
        E 0 92 37 73
        E 0 92 32 73
        E 113 82 32 73
        E 0 92 40 73
        E 85 82 40 73
        E 0 92 3a 73
        E 28 82 3a 73
        E 0 92 35 73
        E 113 82 35 73
        E 0 92 40 73
        E 99 82 40 73
        E 0 92 3e 73
        E 42 82 3e 73
        E 0 92 37 73
        E 0 92 32 73
        E 113 82 32 73
        E 0 92 40 73
        E 85 82 40 73
        E 0 92 3a 73
        E 28 82 3a 73
        E 0 92 35 73
        E 113 82 35 73
        E 0 92 40 73
        E 99 82 40 73
        E 0 92 3e 73
        E 42 82 3e 73
        E 0 92 37 73
        E 0 92 32 73
        E 113 82 32 73
        E 0 92 40 73
        E 85 82 40 73
        E 0 92 3a 73
        E 28 82 3a 73
        E 0 92 35 73
        E 113 82 35 73
        E 0 92 40 73
        E 99 82 40 73
        E 0 92 3e 73
        E 42 82 3e 73
        E 0 92 37 73
        E 0 92 32 73
        E 113 82 32 73
        E 0 92 40 73
        E 85 82 40 73
        E 0 92 3a 73
        E 28 82 3a 73
        E 0 92 35 73
        E 113 82 35 73
        E 0 92 40 73
        E 99 82 40 73
        E 0 92 3e 73
        E 42 82 3e 73
        E 0 92 37 73
        E 0 92 32 73
        E 113 82 32 73
        E 0 92 40 73
        E 85 82 40 73
        E 0 92 3a 73
        E 28 82 3a 73
        E 0 92 35 73
        E 113 82 35 73
        E 0 92 40 73
        E 99 82 40 73
        E 0 92 3e 73
        E 42 82 3e 73
        E 0 92 37 73
        E 0 92 32 73
        E 113 82 32 73
        E 0 92 40 73
        E 85 82 40 73
        E 0 92 3a 73
        E 28 82 3a 73
        E 0 92 35 73
        E 113 82 35 73
        E 0 92 40 73
        E 99 82 40 73
        E 0 92 3e 73
        E 42 82 3e 73
        E 0 92 37 73
        E 0 92 32 73
        E 113 82 32 73
        E 0 92 40 73
        E 85 82 40 73
        E 0 92 3a 73
        E 28 82 3a 73
        E 0 92 35 73
        E 113 82 35 73
        E 0 92 40 73
        E 99 82 40 73
        E 0 92 3e 73
        E 42 82 3e 73
        E 0 92 37 73
        E 0 92 32 73
        E 113 82 32 73
        E 0 92 40 73
        E 85 82 40 73
        E 0 92 3a 73
        E 28 82 3a 73
        E 0 92 35 73
        E 113 82 35 73
        E 0 92 40 73
        E 99 82 40 73
        E 0 92 3e 73
        E 42 82 3e 73
        E 0 92 37 73
        E 0 92 32 73
        E 113 82 32 73
        E 0 92 40 73
        E 85 82 40 73
        E 0 92 3a 73
        E 28 82 3a 73
        E 0 92 35 73
        E 113 82 35 73
        E 0 92 40 73
        E 99 82 40 73
        E 0 92 3e 73
        E 42 82 3e 73
        E 0 92 37 73
        E 0 92 32 73
        E 113 82 32 73
        E 0 92 40 73
        E 85 82 40 73
        E 0 92 3a 73
        E 28 82 3a 73
        E 0 92 35 73
        E 113 82 35 73
        E 0 92 40 73
        E 99 82 40 73
        E 0 92 3e 73
        E 42 82 3e 73
        E 0 92 37 73
        E 0 92 32 73
        E 113 82 32 73
        E 0 92 40 73
        E 85 82 40 73
        E 0 92 35 73
        E 113 82 35 73
        E 0 92 40 73
        E 71 82 40 73
        E 0 92 3a 73
        E 28 82 3a 73
        E 0 92 35 73
        E 113 82 35 73
        E 0 92 40 73
        E 99 82 40 73
        E 0 92 3e 73
        E 42 82 3e 73
        E 0 92 37 73
        E 0 92 35 73
        E 113 82 35 73
        E 0 92 40 73
        E 71 82 40 73
        E 0 92 3a 73
        E 28 82 3a 73
        E 0 92 35 73
        E 113 82 35 73
        E 0 92 40 73
        E 99 82 40 73
        E 0 92 3e 73
        E 42 82 3e 73
        E 0 92 37 73
        E 0 92 35 73
        E 113 82 35 73
        E 0 92 40 73
        E 71 82 40 73
        E 0 92 3a 73
        E 28 82 3a 73
        E 0 92 35 73
        E 113 82 35 73
        E 0 92 40 73
        E 99 82 40 73
        E 0 92 3e 73
        E 42 82 3e 73
        E 0 92 37 73
        E 0 92 35 73
        E 113 82 35 73
        E 0 92 40 73
        E 71 82 40 73
        E 0 92 3a 73
        E 28 82 3a 73
        E 0 92 35 73
        E 113 82 35 73
        E 0 92 40 73
        E 99 82 40 73
        E 0 92 3e 73
        E 42 82 3e 73
        E 0 92 37 73
        E 0 92 35 73
        E 113 82 35 73
        E 0 92 40 73
        E 71 82 40 73
        E 0 92 3a 73
        E 28 82 3a 73
        E 0 92 35 73
        E 113 82 35 73
        E 0 92 40 73
        E 99 82 40 73
        E 0 92 3e 73
        E 42 82 3e 73
        E 0 92 37 73
        E 0 92 35 73
        E 113 82 35 73
        E 0 92 40 73
        E 71 82 40 73
        E 0 92 3a 73
        E 28 82 3a 73
        E 0 92 35 73
        E 113 82 35 73
        E 0 92 40 73
        E 99 82 40 73
        E 0 92 3e 73
        E 42 82 3e 73
        E 0 92 37 73
        E 0 92 35 73
        E 113 82 35 73
        E 0 92 40 73
        E 71 82 40 73
        E 0 92 3a 73
        E 28 82 3a 73
        E 0 92 35 73
        E 113 82 35 73
        E 0 92 40 73
        E 99 82 40 73
        E 0 92 3e 73
        E 42 82 3e 73
        E 0 92 37 73
        E 0 92 35 73
        E 113 82 35 73
        E 0 92 40 73
        E 71 82 40 73
        E 0 92 3a 73
        E 28 82 3a 73
        E 0 92 35 73
        E 113 82 35 73
        E 0 92 40 73
        E 99 82 40 73
        E 0 92 3e 73
        E 42 82 3e 73
        E 0 92 37 73
        E 0 92 35 73
        E 113 82 35 73
        E 0 92 40 73
        E 71 82 40 73
        E 0 92 3a 73
        E 28 82 3a 73
        E 0 92 35 73
        E 113 82 35 73
        E 0 92 40 73
        E 99 82 40 73
        E 0 92 3e 73
        E 42 82 3e 73
        E 0 92 37 73
        E 0 92 35 73
        E 113 82 35 73
        E 0 92 40 73
        E 71 82 40 73
        E 0 92 3a 73
        E 28 82 3a 73
        E 0 92 35 73
        E 113 82 35 73
        E 0 92 40 73
        E 99 82 40 73
        E 0 92 3e 73
        E 42 82 3e 73
        E 0 92 37 73
        E 0 92 35 73
        E 113 82 35 73
        E 0 92 40 73
        E 71 82 40 73
        E 0 92 3a 73
        E 28 82 3a 73
        E 0 92 35 73
        E 113 82 35 73
        E 0 92 40 73
        E 99 82 40 73
        E 0 92 3e 73
        E 42 82 3e 73
        E 0 92 37 73
        E 0 92 35 73
        E 113 82 35 73
        E 0 92 40 73
        E 71 82 40 73
        E 0 92 3a 73
        E 28 82 3a 73
        E 0 92 35 73
        E 113 82 35 73
        E 0 92 40 73
        E 99 82 40 73
        E 0 92 3e 73
        E 42 82 3e 73
        E 0 92 37 73
        E 0 92 35 73
        E 113 82 35 73
        E 0 92 40 73
        E 71 82 40 73
        E 0 92 3a 73
        E 28 82 3a 73
        E 0 92 35 73
        E 113 82 35 73
        E 0 92 40 73
        E 99 82 40 73
        E 0 92 3e 73
        E 42 82 3e 73
        E 0 92 37 73
        E 0 92 35 73
        E 113 82 35 73
        E 0 92 40 73
        E 71 82 40 73
        E 0 92 3a 73
        E 28 82 3a 73
        E 0 92 35 73
        E 113 82 35 73
        E 0 92 40 73
        E 99 82 40 73
        E 0 92 3e 73
        E 42 82 3e 73
        E 0 92 37 73
        E 0 92 35 73
        E 113 82 35 73
        E 0 92 40 73
        E 71 82 40 73
        E 0 92 3a 73
        E 28 82 3a 73
        E 0 92 35 73
        E 113 82 35 73
        E 0 92 40 73
        E 99 82 40 73
        E 0 92 3e 73
        E 42 82 3e 73
        E 0 92 37 73
        E 0 92 35 73
        E 113 82 35 73
        E 0 92 40 73
        E 71 82 40 73
        E 0 92 3a 73
        E 28 82 3a 73
        E 0 92 35 73
        E 113 82 35 73
        E 0 92 40 73
        E 99 82 40 73
        E 0 92 3e 73
        E 42 82 3e 73
        E 0 92 37 73
        E 0 92 35 73
        E 113 82 35 73
        E 0 92 40 73
        E 71 82 40 73
        E 0 92 3a 73
        E 28 82 3a 73
        E 0 92 35 73
        E 113 82 35 73
        E 0 92 40 73
        E 99 82 40 73
        E 0 92 3e 73
        E 42 82 3e 73
        E 0 92 37 73
        E 0 92 35 73
        E 113 82 35 73
        E 0 92 40 73
        E 71 82 40 73
        E 0 92 3a 73
        E 28 82 3a 73
        E 0 92 35 73
        E 113 82 35 73
        E 0 92 40 73
        E 99 82 40 73
        E 0 92 3e 73
        E 42 82 3e 73
        E 0 92 37 73
        E 0 92 35 73
        E 113 82 35 73
        E 0 92 40 73
        E 71 82 40 73
        E 0 92 3a 73
        E 28 82 3a 73
        E 0 92 35 73
        E 113 82 35 73
        E 0 92 40 73
        E 99 82 40 73
        E 0 92 3e 73
        E 42 82 3e 73
        E 0 92 37 73
        E 0 92 35 73
        E 113 82 35 73
        E 0 92 40 73
        E 71 82 40 73
        E 0 92 3a 73
        E 28 82 3a 73
        E 0 92 35 73
        E 113 82 35 73
        E 0 92 40 73
        E 99 82 40 73
        E 0 92 3e 73
        E 42 82 3e 73
        E 0 92 37 73
        E 0 92 35 73
        E 113 82 35 73
        E 0 92 40 73
        E 71 82 40 73
        E 0 92 3a 73
        E 28 82 3a 73
        E 0 92 35 73
        E 113 82 35 73
        E 0 92 40 73
        E 99 82 40 73
        E 0 92 3e 73
        E 42 82 3e 73
        E 0 92 37 73
        E 0 92 35 73
        E 113 82 35 73
        E 0 92 40 73
        E 71 82 40 73
        E 0 92 3a 73
        E 28 82 3a 73
        E 0 92 35 73
        E 113 82 35 73
        E 0 92 40 73
        E 99 82 40 73
        E 0 92 3e 73
        E 42 82 3e 73
        E 0 92 37 73
        E 0 92 35 73
        E 113 82 35 73
        E 0 92 40 73
        E 71 82 40 73
        E 0 92 3a 73
        E 28 82 3a 73
        E 0 92 35 73
        E 113 82 35 73
        E 0 92 40 73
        E 99 82 40 73
        E 0 92 3e 73
        E 42 82 3e 73
        E 0 92 37 73
        E 0 92 35 73
        E 113 82 35 73
        E 0 92 40 73
        E 71 82 40 73
        E 0 92 3a 73
        E 28 82 3a 73
        E 0 92 35 73
        E 113 82 35 73
        E 0 92 40 73
        E 99 82 40 73
        E 0 92 3e 73
        E 42 82 3e 73
        E 0 92 37 73
        E 0 92 35 73
        E 113 82 35 73
        E 0 92 40 73
        E 71 82 40 73
        E 0 92 3a 73
        E 28 82 3a 73
        E 0 92 35 73
        E 113 82 35 73
        E 0 92 40 73
        E 99 82 40 73
        E 0 92 3e 73
        E 42 82 3e 73
        E 0 92 37 73
        E 0 92 35 73
        E 113 82 35 73
        E 0 92 40 73
        E 71 82 40 73
        E 0 92 3a 73
        E 28 82 3a 73
        E 0 92 35 73
        E 113 82 35 73
        E 0 92 40 73
        E 99 82 40 73
        E 0 92 3e 73
        E 42 82 3e 73
        E 0 92 37 73
        E 0 92 35 73
        E 113 82 35 73
        E 0 92 40 73
        E 71 82 40 73
        E 0 92 3a 73
        E 28 82 3a 73
        E 0 92 35 73
        E 113 82 35 73
        E 0 92 40 73
        E 99 82 40 73
        E 0 92 3e 73
        E 42 82 3e 73
        E 0 92 37 73
        E 0 92 35 73
        E 113 82 35 73
        E 0 92 40 73
        E 71 82 40 73
        E 0 92 3a 73
        E 28 82 3a 73
        E 0 92 35 73
        E 113 82 35 73
        E 0 92 40 73
        E 99 82 40 73
        E 0 92 3e 73
        E 42 82 3e 73
        E 0 92 37 73
        E 0 92 35 73
        E 113 82 35 73
        E 0 92 40 73
        E 71 82 40 73
        E 0 92 3a 73
        E 28 82 3a 73
        E 0 92 35 73
        E 113 82 35 73
        E 0 92 40 73
        E 99 82 40 73
        E 0 92 3e 73
        E 42 82 3e 73
        E 0 92 37 73
        E 0 92 35 73
        E 113 82 35 73
        E 0 92 40 73
        E 71 82 40 73
        E 0 92 3a 73
        E 28 82 3a 73
        E 0 92 35 73
        E 113 82 35 73
        E 0 92 40 73
        E 99 82 40 73
        E 0 92 3e 73
        E 42 82 3e 73
        E 0 92 37 73
        E 0 92 35 73
        E 113 82 35 73
        E 0 92 40 73
        E 71 82 40 73
        E 0 92 3a 73
        E 28 82 3a 73
        E 0 92 35 73
        E 113 82 35 73
        E 0 92 40 73
        E 99 82 40 73
        E 0 92 3e 73
        E 42 82 3e 73
        E 0 92 37 73
        E 0 92 35 73
        E 113 82 35 73
        E 0 92 40 73
        E 71 82 40 73
        E 0 92 3a 73
        E 28 82 3a 73
        E 0 92 35 73
        E 113 82 35 73
        E 0 92 40 73
        E 99 82 40 73
        E 0 92 3e 73
        E 42 82 3e 73
        E 0 92 37 73
        E 0 92 35 73
        E 113 82 35 73
        E 0 92 40 73
        E 71 82 40 73
        E 0 92 3a 73
        E 28 82 3a 73
        E 0 92 35 73
        E 113 82 35 73
        E 0 92 40 73
        E 99 82 40 73
        E 0 92 3e 73
        E 42 82 3e 73
        E 0 92 37 73
        E 0 92 35 73
        E 113 82 35 73
        E 0 92 40 73
        E 71 82 40 73
        E 0 92 3a 73
        E 28 82 3a 73
        E 0 92 35 73
        E 113 82 35 73
        E 0 92 40 73
        E 99 82 40 73
        E 0 92 3e 73
        E 42 82 3e 73
        E 0 92 37 73
        E 0 92 35 73
        E 113 82 35 73
        E 0 92 40 73
        E 71 82 40 73
        E 0 92 3a 73
        E 28 82 3a 73
        E 0 92 35 73
        E 113 82 35 73
        E 0 92 40 73
        E 99 82 40 73
        E 0 92 3e 73
        E 42 82 3e 73
        E 0 92 37 73
        E 0 92 35 73
        E 113 82 35 73
        E 0 92 40 73
        E 71 82 40 73
        E 0 92 3a 73
        E 28 82 3a 73
        E 0 92 35 73
        E 113 82 35 73
        E 0 92 40 73
        E 99 82 40 73
        E 0 92 3e 73
        E 42 82 3e 73
        E 0 92 37 73
        E 0 92 35 73
        E 113 82 35 73
        E 0 92 40 73
        E 71 82 40 73
        E 0 92 3a 73
        E 28 82 3a 73
        E 0 92 35 73
        E 113 82 35 73
        E 0 92 40 73
        E 99 82 40 73
        E 0 92 3e 73
        E 42 82 3e 73
        E 0 92 37 73
        E 0 92 35 73
        E 113 82 35 73
        E 0 92 40 73
        E 71 82 40 73
        E 0 92 3a 73
        E 28 82 3a 73
        E 0 92 35 73
        E 113 82 35 73
        E 0 92 40 73
        E 99 82 40 73
        E 0 92 3e 73
        E 42 82 3e 73
        E 0 92 37 73
        E 0 92 35 73
        E 113 82 35 73
        E 0 92 40 73
        E 71 82 40 73
        E 0 92 3a 73
        E 28 82 3a 73
        E 0 92 35 73
        E 113 82 35 73
        E 0 92 40 73
        E 99 82 40 73
        E 0 92 3e 73
        E 42 82 3e 73
        E 0 92 37 73
        E 0 92 35 73
        E 113 82 35 73
        E 0 92 40 73
        E 71 82 40 73
        E 0 92 3a 73
        E 28 82 3a 73
        E 0 92 35 73
        E 113 82 35 73
        E 0 92 40 73
        E 99 82 40 73
        E 0 92 3e 73
        E 42 82 3e 73
        E 0 92 37 73
        E 0 92 35 73
        E 113 82 35 73
        E 0 92 40 73
        E 71 82 40 73
        E 0 92 3a 73
        E 28 82 3a 73
        E 0 92 35 73
        E 113 82 35 73
        E 0 92 40 73
        E 99 82 40 73
        E 0 92 3e 73
        E 42 82 3e 73
        E 0 92 37 73
        E 0 92 35 73
        E 113 82 35 73
        E 0 92 40 73
        E 71 82 40 73
        E 0 92 3a 73
        E 28 82 3a 73
        E 0 92 35 73
        E 113 82 35 73
        E 0 92 40 73
        E 99 82 40 73
        E 0 92 3e 73
        E 42 82 3e 73
        E 0 92 37 73
        E 0 92 35 73
        E 113 82 35 73
        E 0 92 40 73
        E 71 82 40 73
        E 0 92 3a 73
        E 28 82 3a 73
        E 0 92 35 73
        E 113 82 35 73
        E 0 92 40 73
        E 99 82 40 73
        E 0 92 3e 73
        E 42 82 3e 73
        E 0 92 37 73
        E 0 92 35 73
        E 113 82 35 73
        E 0 92 40 73
        E 71 82 40 73
        E 0 92 3a 73
        E 28 82 3a 73
        E 0 92 35 73
        E 113 82 35 73
        E 0 92 40 73
        E 99 82 40 73
        E 0 92 3e 73
        E 42 82 3e 73
        E 0 92 37 73
        E 0 92 35 73
        E 113 82 35 73
        E 0 92 40 73
        E 71 82 40 73
        E 0 92 3a 73
        E 28 82 3a 73
        E 0 92 35 73
        E 113 82 35 73
        E 0 92 40 73
        E 99 82 40 73
        E 0 92 3e 73
        E 42 82 3e 73
        E 0 92 37 73
        E 0 92 35 73
        E 113 82 35 73
        E 0 92 40 73
        E 71 82 40 73
        E 0 92 3a 73
        E 28 82 3a 73
        E 0 92 35 73
        E 113 82 35 73
        E 0 92 40 73
        E 99 82 40 73
        E 0 92 3e 73
        E 42 82 3e 73
        E 0 92 37 73
        E 0 92 35 73
        E 113 82 35 73
        E 0 92 40 73
        E 71 82 40 73
        E 0 92 3a 73
        E 28 82 3a 73
        E 0 92 35 73
        E 113 82 35 73
        E 0 92 40 73
        E 99 82 40 73
        E 0 92 3e 73
        E 42 82 3e 73
        E 0 92 37 73
        E 0 92 35 73
        E 113 82 35 73
        E 0 92 40 73
        E 71 82 40 73
        E 0 92 3a 73
        E 28 82 3a 73
        E 0 92 35 73
        E 113 82 35 73
        E 0 92 40 73
        E 99 82 40 73
        E 0 92 3e 73
        E 42 82 3e 73
        E 0 92 37 73
        E 0 92 35 73
        E 113 82 35 73
        E 0 92 40 73
        E 71 82 40 73
        E 0 92 3a 73
        E 28 82 3a 73
        E 0 92 35 73
        E 113 82 35 73
        E 0 92 40 73
        E 99 82 40 73
        E 0 92 3e 73
        E 42 82 3e 73
        E 0 92 37 73
        E 0 92 35 73
        E 113 82 35 73
        E 0 92 40 73
        E 71 82 40 73
        E 0 92 3a 73
        E 28 82 3a 73
        E 0 92 35 73
        E 113 82 35 73
        E 0 92 40 73
        E 99 82 40 73
        E 0 92 3e 73
        E 42 82 3e 73
        E 0 92 37 73
        E 0 92 35 73
        E 113 82 35 73
        E 0 92 40 73
        E 71 82 40 73
        E 0 92 3a 73
        E 28 82 3a 73
        E 0 92 35 73
        E 113 82 35 73
        E 0 92 40 73
        E 99 82 40 73
        E 0 92 3e 73
        E 42 82 3e 73
        E 0 92 37 73
        E 0 92 35 73
        E 113 82 35 73
        E 0 92 40 73
        E 71 82 40 73
        E 0 92 3a 73
        E 28 82 3a 73
        E 0 92 35 73
        E 113 82 35 73
        E 0 92 40 73
        E 99 82 40 73
        E 0 92 3e 73
        E 42 82 3e 73
        E 0 92 37 73
        E 0 92 35 73
        E 113 82 35 73
        E 0 92 40 73
        E 71 82 40 73
        E 0 92 3a 73
        E 28 82 3a 73
        E 0 92 35 73
        E 113 82 35 73
        E 0 92 40 73
        E 99 82 40 73
        E 0 92 3e 73
        E 42 82 3e 73
        E 0 92 37 73
        E 0 92 35 73
        E 113 82 35 73
        E 0 92 40 73
        E 71 82 40 73
        E 0 92 3a 73
        E 28 82 3a 73
        E 0 92 35 73
        E 113 82 35 73
        E 0 92 40 73
        E 99 82 40 73
        E 0 92 3e 73
        E 42 82 3e 73
        E 0 92 37 73
        E 8 b0 7b 00
        CCINTERP 32
        CHASE_CC_TAKEOFFS 1
        GUID {3BD04696-1EFC-8540-AB56-DD5BF238F9E5}
        IGNTEMPO 0 120 4 4
        SRCCOLOR 1290
        VELLANE 6 601 0
        VELLANE -1 196 0
      >
    >
  >
  <TRACK {9ED9F19B-FF8C-BB48-9F4D-D0C741049A85}
    NAME "cannabis-infused gummies"
    PEAKCOL 16576
    BEAT -1
    AUTOMODE 0
    VOLPAN 1.73672236586141 0.168 -1 -1 1
    MUTESOLO 0 0 0
    IPHASE 0
    PLAYOFFS 0 1
    ISBUS 0 0
    BUSCOMP 0 0 0 0 0
    SHOWINMIX 1 0.6667 0.5 1 0.5 0 -1 0
    FREEMODE 0
    SEL 0
    REC 0 0 1 0 0 0 0
    VU 2
    TRACKHEIGHT 0 0 0 0 -1 0
    INQ 0 0 0 0.5 100 0 0 100
    NCHAN 2
    FX 1
    TRACKID {9ED9F19B-FF8C-BB48-9F4D-D0C741049A85}
    PERF 0
    MIDIOUT -1
    MAINSEND 1 0
    <FXCHAIN
      WNDRECT 683 385 1159 532
      SHOW 0
      LASTSEL 0
      DOCKED 0
      BYPASS 0 0 0
      <VST "VSTi: FM8 (Native Instruments GmbH)" FM8.vst 0 "" 1315530296<5653544E696638666D38000000000000> ""
        OGZpTu5e7f4AAAAAAgAAAAEAAAAAAAAAAgAAAAAAAAD3CgAAAQAAAAAAEAA=
        9woAAAAAAAABAAAAaHNpbgEAAAAAAAAAN455D8DDx0mHoN4j0l/0WZYAAAAAAAAARFNJTnYAAAABAAAASAAAAAAAAABEU0lOagAAAAEAAAAYAAAAAAAAAERTSU4BAAAA
        AQAAAAEAAAABAAAAAQAAAAEAAAAAAAAAAAAAAAAAAAANYmWFAQAAAAhwEAAAAAAAAQAAAAEAAAAAAAAAAAAAAAAAAAADAAAAMAAwADAAAAAAAAAAAAAAAAAAAAAAAAEA
        AAABAAAAAAAAAERTSU5lAAAAJQoAAAAAAAABAAAAaHNpbgEAAAAAAAAAMOH4NwAUwEaoogAOyNUgkW0AAAAAAAAARFNJTmUAAAABAAAANAAAAAAAAABEU0lOagAAAAEA
        AAAYAAAAAAAAAERTSU4BAAAAAQAAAAEAAAABAAAAAgAAAAEAAAAACAAAAAEAAAAKAAAAMQAuADIALgAwAC4AMQAwADEAMAABAAAAAwAAAAAAAABEU0lObAAAAKoCAAAA
        AAAAAQAAAGhzaW4BAAAAAAAAACA7190CLVtKvWPIjKqbw/t6AgAAAAAAAERTSU5sAAAAAQAAABgAAAAAAAAARFNJTgEAAAABAAAAAQAAAAEAAAACAAAAAQAAAAAAAAAK
        AAAAQQBmAHIAaQBsAGUAYwB0AHIAbwALAAAAVABoAG8AbQBhAHMAIABLAG8AbwB0ABIAAABOAGEAdABpAHYAZQAgAEkAbgBzAHQAcgB1AG0AZQBuAHQAcwAAAAAAAAAA
        AP////8AAAAAAAAAAAAAAAAAAAAAAAAAAAEAAAABAAAAAgAAAAMAAABGAE0AOAARAAAAVAByAGEAbgBzAGkAZQBuAHQAIABBAHQAdABhAGMAawBzAAcAAAADAAAARABy
        AHkACgAAAFAAZQByAGMAdQBzAHMAaQBvAG4ADwAAAFAAZQByAGMAdQBzAHMAaQBvAG4AIABMAG8AbwBwAAoAAABQAGUAcgBjAHUAcwBzAGkAdgBlAA0AAABTAGUAcQB1
        AGUAbgBjAGUALwBMAG8AbwBwAAkAAABTAHkAbgB0AGgAZQB0AGkAYwAMAAAAVABlAG0AcABvAC0AcwB5AG4AYwBlAGQAAAAAAAcAAAAHAAAAXABAAGMAbwBsAG8AcgAB
        AAAAMAARAAAAXABAAGQAZQB2AGkAYwBlAHQAeQBwAGUAZgBsAGEAZwBzAAEAAAAxAAsAAABcAEAAcwBvAHUAbgBkAHQAeQBwAGUAAQAAADAABwAAAFwAQAB0AGUAbQBw
        AG8AAQAAADAABgAAAFwAQAB2AGUAcgBsAAUAAAAxAC4ANwAuADgABgAAAFwAQAB2AGUAcgBtAAUAAAAxAC4ANwAuADgABwAAAFwAQAB2AGkAcwBpAGIAAQAAADAAAQAA
        AAAAAAACAAAARFNJTnkAAABoAAAAAAAAAAEAAABoc2luAQAAAAAAAABG64vCmumHRIQ9Mih2ujahOAAAAAAAAABEU0lOeQAAAAEAAAAYAAAAAAAAAERTSU4BAAAAAQAA
        AAEAAAABAAAAAQAAAAAAAAABAAAAAAAAAAEAAABEU0lOdAAAAFIGAAAAAAAAAQAAAGhzaW4BAAAAAAAAAMPiDYJzLJxOuWtBgMMVvqQiBgAAAAAAAERTSU50AAAAAQAA
        AAkGAAAAAAAARFNJTnMAAAABAAAAGAAAAAAAAABEU0lOAQAAAAEAAAABAAAAAQAAAAG8DwAA0AUAAAK8DwBgAAABIAUDaHNpbkAHQAAQHyRrBvAZSEqYrqFXTcEPPBhA
        FCAAA0RTSU5AI+AHA0AAQBsAbSAIAWgPIAQgAEAj4ANTEEkCYzKs2sVGp2B2wrYRj5w4oCfAN0Av4BdnQCMB8A4gXCAAAAUgAwFiDCAEIAAIdHNycEU4TUbPIAsEvCMA
        ABEgBxBFbGVjdHJpYyBBZnJpIGtpdEA3DkJyb2tlbiBzcGVha2VyECAmCktpdCBmb3IgdGhlICQCZHMQIBMIUGVyY3Vzc2lvICkDb2xvISASAD/gAgMDQQAAgCAPAPgg
        B+ALAADwIBdAH8AAATBCwAkAAIAXA0AAAKggI8AAQCsASCAjQANAC0AfQAvgAwBAD0ADwAAIgD8juZw+IY51IIcEgD9X7D9gB0ALAgAAQCBfCAAAih/jPgAAgCALABAg
        WwQAAM3MzCAPBAA/mpkZICPgAM8DACRaYSAPCBg/PZs1P1NPxiAjAUA+QDsC7MA5IBcEAAAg0m8gE2AAYA+gACALQGtgACALYANAAEALQAAgd2AAwA9AB0AD4AMAwA9A
        B0ADwABAC6ADBIA/52rrIH8IgD+4HoU9BaPSIAsKAABlGQI/v+wePAAgFwYAAADAsJjZYBfAAAVGA/g9AABBB0D/ACAg/wAUIAMAyCADwABANwAIIA8ALCADQABAD+AM
        AEBfQAMgAOALI+ADE0BfQAPAAEGvACCh50ALQANAH0AHAEwgd0ALAKwgB+ADAABYoA9AG0ADwABAM+AHSwB0ICsAwCADAHAgY0ArAKQgC0AHwAAAXCAP4AMAAIigDwCu
        IAfgB0tANwAwIEfBJwCaICMANCADwAAAbOACC0AAAEQgD0DDQEtAAACgIDvBS0BLAJQgH0AHwAPgAwDgApcAAcAA4AAfAALAAOAAESAAAhE4GmPS4AEAAgEAZOABDAAA
        4AAsAP4gDOAxAADa4Ak6ABTgCRLgNgAg6wIBAf8gBeAAACAKIA7BCeAGAGAXAwAAFxZEl2AAQnIPgD+jcN0/j8IZQVyPikCOBkAT4CUAoGbgT1lA1OBPswAB4ElZAQIm
        IVIHZK0ZQk01v0FgDANxcTRCQBQiWgSAPwMYTOABDANq/JNB4AAZAy02OUNgDAZaP0xBOta9gCYGWr6iQZQzwoAMQEACsN3+gAwLFjdzQoMd9UMAAPpDYBkDzLyMK0AD
        4DkMAojGeuAOTQun4GU+5hQ8Pqfg5b4gZwQAP2ZmZmAD4CMMAgrXY+ABMwKH61HgAQwCKlxP4AEM4BBaIAAAcCQUAf5CQHQgAIAMIoBAAOALCOAEJ+AEDOAANKAVgADg
        BAwgIgKgwgAgACAIgABgCAOPCjzC4AQn4AQMYCICAACGYFdF9GADQCJgCCAaAD9AIuAOCOAEJ+AEDOAANCBB4AkAAEbgABIAZCAABADE1u7E4AAR4AcAAE/gABAgKgRk
        ADMbGiFSIAAAMSADQF1IqeAMAOUDLQASICGpN6AAAFtgAsAAQCsA0sAMgAAATIAGQABJWuABAEArABngAQ5AAEASIAAIFgAqFgA9ACtIgA8BR1ogEwEABCAD4BEASaBA
        AAFMMGAzABZAC+AbAGAt4IsAAP/gFwBBDwcBDjIDAAAofyDAADwiKSTeAgDwQmKYRUUB/gdCSkAUAP6gEwIAAgHAEyAaIAIgJ0FYoAkrFqAJAAagOwQAAAcA+2ATAAHg
        AAkgNGA+QAbACQIAAAOgEyBPAP+ARQAB4AAJIE/gAB0AB+AACSAAYFkgSOAACSAQIAJAECDXoAkg6KAJ4AKf4AATAAfgAAkgAKAn4DZP4EsAwvoDa25hYkClwAABgAAg
        AAAZoBEEY3RuaUUsigERJ2DDTCxAAACgI6gBoELiEw8BdADiATBNGuATK+D9AOCpAAAgIeNAAANzaXVnQiQA6CMhwAAAKiAIRUoi+GAAIzJgAAdncHRjWVRNRUAMCw1i
        ZYUBAAAAAAAAAAEAAAAAAQAAAAAAAAA=
        ADxkaXNhYmxlZD4AEAAAAA==
      >
      PRESETNAME <disabled>
      FLOATPOS 0 0 0 0
      FXID {92FDBCA8-17B7-944F-9430-8BAE0ECD4824}
      WAK 0 0
    >
    <ITEM
      POSITION 39.18361600001765
      SNAPOFFS 0
      LENGTH 118.7753360000535
      LOOP 1
      ALLTAKES 0
      FADEIN 1 0 0 1 0 0
      FADEOUT 1 0 0 1 0 0
      MUTE 0 0
      SEL 0
      IGUID {C5963CFB-CF18-F54F-85D9-8C6ABEFB5706}
      IID 27
      NAME "cannabis-infused gummies.mid"
      VOLPAN 1 0 1 -1
      SOFFS 0 0
      PLAYRATE 1 1 0 -1 0 0.0025
      CHANMODE 0
      GUID {0A36CC00-E68B-4E4B-B350-555F584E9CFF}
      <SOURCE MIDI
        HASDATA 1 128 QN
        CCINTERP 32
        POOLEDEVTS {0E8D6E97-193B-0D48-9454-8081F30C5630}
        E 0 91 35 73
        E 341 81 35 73
        E 0 91 40 73
        E 213 81 40 73
        E 0 91 3a 73
        E 85 81 3a 73
        E 0 91 35 73
        E 341 81 35 73
        E 0 91 40 73
        E 298 81 40 73
        E 0 91 3e 73
        E 128 81 3e 73
        E 0 91 37 73
        E 0 91 35 73
        E 341 81 35 73
        E 0 91 40 73
        E 213 81 40 73
        E 0 91 3a 73
        E 85 81 3a 73
        E 0 91 35 73
        E 341 81 35 73
        E 0 91 40 73
        E 298 81 40 73
        E 0 91 3e 73
        E 128 81 3e 73
        E 0 91 37 73
        E 0 91 35 73
        E 341 81 35 73
        E 0 91 40 73
        E 213 81 40 73
        E 0 91 3a 73
        E 85 81 3a 73
        E 0 91 35 73
        E 341 81 35 73
        E 0 91 40 73
        E 298 81 40 73
        E 0 91 3e 73
        E 128 81 3e 73
        E 0 91 37 73
        E 0 91 35 73
        E 341 81 35 73
        E 0 91 40 73
        E 213 81 40 73
        E 0 91 3a 73
        E 85 81 3a 73
        E 0 91 35 73
        E 341 81 35 73
        E 0 91 40 73
        E 298 81 40 73
        E 0 91 3e 73
        E 128 81 3e 73
        E 0 91 37 73
        E 0 91 35 73
        E 341 81 35 73
        E 0 91 40 73
        E 213 81 40 73
        E 0 91 3a 73
        E 85 81 3a 73
        E 0 91 35 73
        E 341 81 35 73
        E 0 91 40 73
        E 298 81 40 73
        E 0 91 3e 73
        E 128 81 3e 73
        E 0 91 37 73
        E 0 91 35 73
        E 341 81 35 73
        E 0 91 40 73
        E 213 81 40 73
        E 0 91 3a 73
        E 85 81 3a 73
        E 0 91 35 73
        E 341 81 35 73
        E 0 91 40 73
        E 298 81 40 73
        E 0 91 3e 73
        E 128 81 3e 73
        E 0 91 37 73
        E 0 91 35 73
        E 341 81 35 73
        E 0 91 40 73
        E 213 81 40 73
        E 0 91 3a 73
        E 85 81 3a 73
        E 0 91 35 73
        E 341 81 35 73
        E 0 91 40 73
        E 298 81 40 73
        E 0 91 3e 73
        E 128 81 3e 73
        E 0 91 37 73
        E 0 91 35 73
        E 341 81 35 73
        E 0 91 40 73
        E 213 81 40 73
        E 0 91 3a 73
        E 85 81 3a 73
        E 0 91 35 73
        E 341 81 35 73
        E 0 91 40 73
        E 298 81 40 73
        E 0 91 3e 73
        E 128 81 3e 73
        E 0 91 37 73
        E 0 91 35 73
        E 341 81 35 73
        E 0 91 40 73
        E 213 81 40 73
        E 0 91 3a 73
        E 85 81 3a 73
        E 0 91 35 73
        E 341 81 35 73
        E 0 91 40 73
        E 298 81 40 73
        E 0 91 3e 73
        E 128 81 3e 73
        E 0 91 37 73
        E 0 91 35 73
        E 341 81 35 73
        E 0 91 40 73
        E 213 81 40 73
        E 0 91 3a 73
        E 85 81 3a 73
        E 0 91 35 73
        E 341 81 35 73
        E 0 91 40 73
        E 298 81 40 73
        E 0 91 3e 73
        E 128 81 3e 73
        E 0 91 37 73
        E 0 91 35 73
        E 341 81 35 73
        E 0 91 40 73
        E 213 81 40 73
        E 0 91 3a 73
        E 85 81 3a 73
        E 0 91 35 73
        E 341 81 35 73
        E 0 91 40 73
        E 298 81 40 73
        E 0 91 3e 73
        E 128 81 3e 73
        E 0 91 37 73
        E 0 91 35 73
        E 341 81 35 73
        E 0 91 40 73
        E 213 81 40 73
        E 0 91 3a 73
        E 85 81 3a 73
        E 0 91 35 73
        E 341 81 35 73
        E 0 91 40 73
        E 298 81 40 73
        E 0 91 3e 73
        E 128 81 3e 73
        E 0 91 37 73
        E 0 91 35 73
        E 341 81 35 73
        E 0 91 40 73
        E 213 81 40 73
        E 0 91 3a 73
        E 85 81 3a 73
        E 0 91 35 73
        E 341 81 35 73
        E 0 91 40 73
        E 298 81 40 73
        E 0 91 3e 73
        E 128 81 3e 73
        E 0 91 37 73
        E 0 91 35 73
        E 341 81 35 73
        E 0 91 40 73
        E 213 81 40 73
        E 0 91 3a 73
        E 85 81 3a 73
        E 0 91 35 73
        E 341 81 35 73
        E 0 91 40 73
        E 298 81 40 73
        E 0 91 3e 73
        E 128 81 3e 73
        E 0 91 37 73
        E 0 91 35 73
        E 341 81 35 73
        E 0 91 40 73
        E 213 81 40 73
        E 0 91 3a 73
        E 85 81 3a 73
        E 0 91 35 73
        E 341 81 35 73
        E 0 91 40 73
        E 298 81 40 73
        E 0 91 3e 73
        E 128 81 3e 73
        E 0 91 37 73
        E 0 91 35 73
        E 341 81 35 73
        E 0 91 40 73
        E 213 81 40 73
        E 0 91 3a 73
        E 85 81 3a 73
        E 0 91 35 73
        E 341 81 35 73
        E 0 91 40 73
        E 298 81 40 73
        E 0 91 3e 73
        E 128 81 3e 73
        E 0 91 37 73
        E 0 91 35 73
        E 341 81 35 73
        E 0 91 40 73
        E 213 81 40 73
        E 0 91 3a 73
        E 85 81 3a 73
        E 0 91 35 73
        E 341 81 35 73
        E 0 91 40 73
        E 298 81 40 73
        E 0 91 3e 73
        E 128 81 3e 73
        E 0 91 37 73
        E 0 91 35 73
        E 341 81 35 73
        E 0 91 40 73
        E 213 81 40 73
        E 0 91 3a 73
        E 85 81 3a 73
        E 0 91 35 73
        E 291 81 35 00
        E 0 81 37 00
        E 0 b0 7b 00
        CCINTERP 32
        CHASE_CC_TAKEOFFS 1
        GUID {0A2BFE23-5999-C648-9E6F-7E8349F81070}
        IGNTEMPO 0 120 4 4
        SRCCOLOR 1163
        VELLANE 3 156 0
        VELLANE -1 196 0
      >
    >
  >
  <TRACK {435DC634-8212-DA40-A2AD-B61CD5C4758F}
    NAME "cannabis-infused gummies"
    PEAKCOL 16576
    BEAT -1
    AUTOMODE 0
    VOLPAN 1 0 -1 -1 1
    MUTESOLO 0 0 0
    IPHASE 0
    PLAYOFFS 0 1
    ISBUS 0 0
    BUSCOMP 0 0 0 0 0
    SHOWINMIX 1 0.6667 0.5 1 0.5 0 -1 0
    FREEMODE 0
    SEL 0
    REC 0 0 1 0 0 0 0
    VU 2
    TRACKHEIGHT 0 0 0 0 -1 0
    INQ 0 0 0 0.5 100 0 0 100
    NCHAN 2
    FX 1
    TRACKID {435DC634-8212-DA40-A2AD-B61CD5C4758F}
    PERF 0
    MIDIOUT -1
    MAINSEND 1 0
    <FXCHAIN
      WNDRECT 32 531 1159 532
      SHOW 0
      LASTSEL 0
      DOCKED 0
      BYPASS 0 0 0
      <VST "VSTi: FM8 (Native Instruments GmbH)" FM8.vst 0 "" 1315530296<5653544E696638666D38000000000000> ""
        OGZpTu5e7f4AAAAAAgAAAAEAAAAAAAAAAgAAAAAAAAA7DgAAAQAAAAAAEAA=
        Ow4AAAAAAAABAAAAaHNpbgEAAAAAAAAAN455D8DDx0mHoN4j0l/0WZYAAAAAAAAARFNJTnYAAAABAAAASAAAAAAAAABEU0lOagAAAAEAAAAYAAAAAAAAAERTSU4BAAAA
        AQAAAAEAAAABAAAAAQAAAAEAAAAAAAAAAAAAAAAAAAANYmWFAQAAAAhwEAAAAAAAAQAAAAEAAAAAAAAAAAAAAAAAAAADAAAAMAAwADAAAAAAAAAAAAAAAAAAAAAAAAEA
        AAABAAAAAAAAAERTSU5lAAAAaQ0AAAAAAAABAAAAaHNpbgEAAAAAAAAAMOH4NwAUwEaoogAOyNUgkW0AAAAAAAAARFNJTmUAAAABAAAANAAAAAAAAABEU0lOagAAAAEA
        AAAYAAAAAAAAAERTSU4BAAAAAQAAAAEAAAABAAAAAgAAAAEAAAAACAAAAAEAAAAKAAAAMQAuADIALgAwAC4AMQAwADEAMAABAAAAAwAAAAAAAABEU0lObAAAALYCAAAA
        AAAAAQAAAGhzaW4BAAAAAAAAACA7190CLVtKvWPIjKqbw/uGAgAAAAAAAERTSU5sAAAAAQAAABgAAAAAAAAARFNJTgEAAAABAAAAAQAAAAEAAAACAAAAAQAAAAAAAAAZ
        AAAAQQB3AGEAaQB0AGkAbgBnACAAMQAgAHgAIABsAGEAcgBnAGUAIABmAHIAaQBnAGgAdAAKAAAAUwBpAG0AbwBuACAAUAB5AGsAZQASAAAATgBhAHQAaQB2AGUAIABJ
        AG4AcwB0AHIAdQBtAGUAbgB0AHMAAAAAAAAAAAD/////AAAAAAAAAAAAAAAAAAAAAAAAAAABAAAAAQAAAAIAAAADAAAARgBNADgACgAAAEYATQA3ACAATABlAGcAYQBj
        AHkABwAAAAYAAABHAGwAbwBvAG0AeQAMAAAATABvAG4AZwAgAFIAZQBsAGUAYQBzAGUADQAAAEwAbwBuAGcALwBFAHYAbwBsAHYAaQBuAGcACQAAAFAAcgBvAGMAZQBz
        AHMAZQBkAAsAAABTAGwAbwB3ACAAQQB0AHQAYQBjAGsACwAAAFMAbwB1AG4AZABzAGMAYQBwAGUAcwAJAAAAUwB5AG4AdABoAGUAdABpAGMAAAAAAAcAAAAHAAAAXABA
        AGMAbwBsAG8AcgABAAAAMAARAAAAXABAAGQAZQB2AGkAYwBlAHQAeQBwAGUAZgBsAGEAZwBzAAEAAAAxAAsAAABcAEAAcwBvAHUAbgBkAHQAeQBwAGUAAQAAADAABwAA
        AFwAQAB0AGUAbQBwAG8AAQAAADAABgAAAFwAQAB2AGUAcgBsAAUAAAAxAC4ANwAuADgABgAAAFwAQAB2AGUAcgBtAAUAAAAxAC4ANwAuADgABwAAAFwAQAB2AGkAcwBp
        AGIAAQAAADAAAQAAAAAAAAACAAAARFNJTnkAAABoAAAAAAAAAAEAAABoc2luAQAAAAAAAABG64vCmumHRIQ9Mih2ujahOAAAAAAAAABEU0lOeQAAAAEAAAAYAAAAAAAA
        AERTSU4BAAAAAQAAAAEAAAABAAAAAQAAAAAAAAABAAAAAAAAAAEAAABEU0lOdAAAAIoJAAAAAAAAAQAAAGhzaW4BAAAAAAAAAMPiDYJzLJxOuWtBgMMVvqRaCQAAAAAA
        AERTSU50AAAAAQAAAEEJAAAAAAAARFNJTnMAAAABAAAAGAAAAAAAAABEU0lOAQAAAAEAAAABAAAAAQAAAAH1EwAACAkAAAL1EwBgAAABIAUDaHNpbkAHQAAQHyRrBvAZ
        SEqYrqFXTcEPPBhAFCAAA0RTSU5AI+AHA0AAQBsAbSAIAaETIAQgAEAj4ANTEEkCYzKs2sVGp2B2wrYRj5xxoCfAN0Av4BdnQCMAKaA3AAUgYwGbECAEIAAIdHNycEU4
        TUbPIAsEvCMAABkgBxhBd2FpdGluZyAxIHggbGFyZ2UgZnJpZ2h04E4cBgAAUEEAANggAwCQIAMAACADBIA/AACgIAfgAwACQMEAYAAA8CAXQB/AAAAgIA/gBAAHQgAA
        QEAAAIogB0AnwAMA0KAnQGcAWCAbAMAgI0AAQB8ApCAPAJggA2AAIHvgBANAAMAT4AMAQBPgAAADzczMPiAMAz+amRlAF8AD4AAXIArgBxtAE0AA4AcHQAAgE0CXYAAg
        C2ADQABACyAA4AQbQABAF0AD4AMAYA8G/WWXPqZ5pyCbQDNAA2AXQBtAAwsA61E4P9Jvnz60NyhAD0ADQABAB0ADwADgAwugAACAIS8APCADQacAvCAHAMggA8AAQGcA
        SCAPQAPgHwBAM+ATAAC6IE8A4KHDQAcArCAPAGAgAwAQIBMA+CADQAcAJCAPACwgA0HrAJwgBwCEIANB10AXQADAo+DbSyAAGggLDAUIBAYOBAMABgMGAgECAAwSDQcJ
        CgcSCCAdgAAZNSpCUiouLS4AIxBVOD8xARMAGr5a0Bn58vWAHyAAAAIgA2AAAP5gBcAAA7a4AFLAC+CAAAABwADgAJHAEOAQACUbHxEUCwwUCxcNANv5r0FANUFByzKO
        Qa62ZUGTqSxB/Kk9B0COlw1B9OyiImYfgD8KBwBEpPDCQl0v60RmvgZFwsUERMKVq0NSmPJEmskCMUQAIACAbOD/WRMMAQAgQgDwIUUAIAJFAQC3QwGQUyAHDCFDAUAT
        RAGA7kMBADggAwo1QwGA9EMBAEVDACOpBxIAADRFAHAfICgAICAUCPJDAeCDRAFAsCFfQ8YgAwGAzCAoCMpCAQDVRAFg4yAXALEgAwBCIBMAMiADIB/gAgMfDQFgw0QA
        QNlEAZBnRQAASkMBQPJEAIBMRAEAaEMAYPQERADACUSAMATmQgGggiAXCTxDAMDGRAcAAPwgGAWHRAGg00Qk6whFAXBERQCAy0QglR9FAABAQgkAANlDANAVRQDAg0QA
        EBdFAoD6QwAABEUAAASUQwEAxyADH+1DAMCERAoAoPZEAMCKRAGwN0UBwCREAYAjRAFQUUUABYAPRQEA3uAErx8HAUCjRACALUUAwE5EAQBNQwHAkEQBYPFEAcBJRAFA
        ChFEEgCArUQAoA5FAWDuRAHAOkQg9Q9EAMAaRAGAbEQBcBJFAaALIT0BB0VA1BIBoLVEAWDGRABAPUQAAA5DAaC2IAdBIQEWQ0AHCwgAkFBFANAYRQAQGmAwHwDA0kQA
        gJhDAMBrRADg2kQAgP1DDAaBlT76fio/TmIQHz+bxAA/+FOjPrx0Ez3MvIwrHoXrPUs3yT7z/dQ+bhKDHzo7388+O9+PPhKmm0Q/5dACPzEIrD4CKwc9KVyPPrbzHX0+
        2/m+PpLtfD5SuB4+m8SgPotsZz7C9Sg+VeOlPUBQB65H4T3vp4Y+QAsCvHSTYBMPDY2XLj9aZBs/sHJoPlg5NCAsCOU+LbIdPkSLrGAoBsuhhT7rUbhgCwJLN4lgNBNS
        uJ4+Bw0CSz9YObQ+ZmYmP3a+3yAkAfg+IGEfPpZDyz5FtlM/CQisXD9eukk+tcg2P+J6VD9KDAI/sXIEKD9qvDRg50CGQAMfCqjGCz/D9eg+okW2PhbZDj9WDi0+WmQ7
        PmmRrT5cj8IDPYXrkeAALAQHku08P0B6EmqRbT6q8VI+uB4FPnjppj7jpRtgJAsSyqElPy2ynT46tIhhOhYisHI+iUGgPkOLbD6TGMQ+6PsJPyuH1iAfCMg94nqUPmDl
        0GDUAilcD2AHQJLAAw8IYztfPkJg5byS7Ry/bhIDYYcDxks3vkBgEOj7qb3+1Li+DEW2sz7l0CI/IroDP2mRLWHMC+omET8ehQs/NV4aP0DTBgrXAz8IrNwhLQYGP7XI
        9j4SINgguwYlP2DlUD/rIV8Sxkv3PhWuxz7iehQ/kxhEP0OL7CDfAJIgWADiQeQDP9aj8CFWBLM+Di3yIaMAJSFFBPQ+xSDwKIQKAD8NGAQ2P8ZLNz9CGUktQjICrkcB
        IUkErT6PwrUiBQAIYi0fYhCYPp7vpz7azjc//tQYPwfeJAY/EoMgP3sU7j5xPYohdgQbP4lBQCINBug+kML1PglAOQfJdr4+Nl46P0BRBqAarz72KFwgCwhBPxWuBz8N
        AisgBwLHPgqCCghGPyKw8j7Q99MgagUYP53E4D5AggYbL90+MzMTYHJArwQHQmAlP0J4DkoMYj9cjyI/SzcJP7bzHSE5CZA+TmLQPhKClcMg3QAQIRkFGD8YBFY/QDAC
        JzEIICAUED/vp8Y+BoHVPukmsT4xCEw/+n7qIcQEkD6CwMphHQAVIJYGMggMP95PzWEdEwgRWLk+d74/P/YonD7LoQU/UrgeIFAERT+8dDMgvwCrImMBAj+njwFwQieR
        AELgRQwAASDyIADgAFaAAKBjgADgOAwgYwRwwgAAhmC6YWMgWGDUYAjgPAwgY4BJIAcBABsgACAG4AAAADQgAOAADOAKAAA4IAAAEiAAABkgAAANIADgCiLgCAAAKSAA
        AC0gAOAIGOAKAABEIADgChbgEAAAFCAAQBwAJSAAQAfgBwCIbAABQPPgAAAAZCAA4AAM4EYAIFrgUFvgNwAA/+AXAAAEQGEKCDIDAABAMgAAADxBNSADAvBCAELYAAEg
        AYLiIAcgAoATQAagCSA3oAkgSKAJL0+gCQAG4AAJKDegEyAAoAmASKAGoBPgwk/gSwAAEaBUA2tuYWJBMcAAAYAAIAAAGaARA2N0bmlQwwERJ2FcUEBAAACgJR8BoELi
        Ew8weeIAMAAP4AIL4P0A4L0AACAh10AAA3NpdWdCJADoI3HAAAAqIAgAGSADI5hgACPSYAAGZ3B0Y1lUTSsKDQAADWJlhQEAAAAAAAAAAQAAAAABAAAAAAAAAA==
        ADxkaXNhYmxlZD4AEAAAAA==
      >
      PRESETNAME <disabled>
      FLOATPOS 0 0 0 0
      FXID {97984ABD-71A2-AA4B-8B6C-E83D423C9CC4}
      WAK 0 0
    >
    <ITEM
      POSITION 58.77542400002648
      SNAPOFFS 0
      LENGTH 166.53036799993825
      LOOP 1
      ALLTAKES 0
      FADEIN 1 0 0 1 0 0
      FADEOUT 1 0 0 1 0 0
      MUTE 0 0
      SEL 0
      IGUID {5A6B77E1-1A5B-A940-B72D-2AABB7DBCFD0}
      IID 28
      NAME "cannabis-infused gummies.mid"
      VOLPAN 1 0 1 -1
      SOFFS 0 0
      PLAYRATE 1 1 0 -1 0 0.0025
      CHANMODE 0
      GUID {D1893DFB-1B63-B24B-B67C-75E199775ADC}
      <SOURCE MIDI
        HASDATA 1 128 QN
        CCINTERP 32
        POOLEDEVTS {152E4910-5AA7-4643-B146-22DD6ECE8456}
        E 0 94 3a 73
        E 64 84 3a 73
        E 0 94 35 73
        E 256 84 35 73
        E 0 94 40 73
        E 224 84 40 73
        E 0 94 3e 73
        E 96 84 3e 73
        E 0 94 37 73
        E 0 94 32 73
        E 256 84 32 73
        E 0 94 40 73
        E 192 84 40 73
        E 0 94 3a 73
        E 64 84 3a 73
        E 0 94 35 73
        E 256 84 35 73
        E 0 94 40 73
        E 224 84 40 73
        E 0 94 3e 73
        E 96 84 3e 73
        E 0 94 37 73
        E 0 94 32 73
        E 256 84 32 73
        E 0 94 40 73
        E 192 84 40 73
        E 0 94 3a 73
        E 64 84 3a 73
        E 0 94 35 73
        E 256 84 35 73
        E 0 94 40 73
        E 224 84 40 73
        E 0 94 3e 73
        E 96 84 3e 73
        E 0 94 37 73
        E 0 94 32 73
        E 256 84 32 73
        E 0 94 40 73
        E 192 84 40 73
        E 0 94 3a 73
        E 64 84 3a 73
        E 0 94 35 73
        E 256 84 35 73
        E 0 94 40 73
        E 224 84 40 73
        E 0 94 3e 73
        E 96 84 3e 73
        E 0 94 37 73
        E 0 94 32 73
        E 256 84 32 73
        E 0 94 40 73
        E 192 84 40 73
        E 0 94 3a 73
        E 64 84 3a 73
        E 0 94 35 73
        E 256 84 35 73
        E 0 94 40 73
        E 224 84 40 73
        E 0 94 3e 73
        E 96 84 3e 73
        E 0 94 37 73
        E 0 94 32 73
        E 256 84 32 73
        E 0 94 40 73
        E 192 84 40 73
        E 0 94 3a 73
        E 64 84 3a 73
        E 0 94 35 73
        E 256 84 35 73
        E 0 94 40 73
        E 224 84 40 73
        E 0 94 3e 73
        E 96 84 3e 73
        E 0 94 37 73
        E 0 94 32 73
        E 256 84 32 73
        E 0 94 40 73
        E 192 84 40 73
        E 0 94 3a 73
        E 64 84 3a 73
        E 0 94 35 73
        E 256 84 35 73
        E 0 94 40 73
        E 224 84 40 73
        E 0 94 3e 73
        E 96 84 3e 73
        E 0 94 37 73
        E 0 94 32 73
        E 256 84 32 73
        E 0 94 40 73
        E 192 84 40 73
        E 0 94 3a 73
        E 64 84 3a 73
        E 0 94 35 73
        E 256 84 35 73
        E 0 94 40 73
        E 224 84 40 73
        E 0 94 3e 73
        E 96 84 3e 73
        E 0 94 37 73
        E 0 94 32 73
        E 256 84 32 73
        E 0 94 40 73
        E 192 84 40 73
        E 0 94 3a 73
        E 64 84 3a 73
        E 0 94 35 73
        E 256 84 35 73
        E 0 94 40 73
        E 224 84 40 73
        E 0 94 3e 73
        E 96 84 3e 73
        E 0 94 37 73
        E 0 94 32 73
        E 256 84 32 73
        E 0 94 40 73
        E 192 84 40 73
        E 0 94 3a 73
        E 64 84 3a 73
        E 0 94 35 73
        E 256 84 35 73
        E 0 94 40 73
        E 224 84 40 73
        E 0 94 3e 73
        E 96 84 3e 73
        E 0 94 37 73
        E 0 94 32 73
        E 256 84 32 73
        E 0 94 40 73
        E 192 84 40 73
        E 0 94 3a 73
        E 64 84 3a 73
        E 0 94 35 73
        E 256 84 35 73
        E 0 94 40 73
        E 224 84 40 73
        E 0 94 3e 73
        E 96 84 3e 73
        E 0 94 37 73
        E 0 94 32 73
        E 256 84 32 73
        E 0 94 40 73
        E 192 84 40 73
        E 0 94 3a 73
        E 64 84 3a 73
        E 0 94 35 73
        E 256 84 35 73
        E 0 94 40 73
        E 224 84 40 73
        E 0 94 3e 73
        E 96 84 3e 73
        E 0 94 37 73
        E 0 94 32 73
        E 256 84 32 73
        E 0 94 40 73
        E 192 84 40 73
        E 0 94 3a 73
        E 64 84 3a 73
        E 0 94 35 73
        E 256 84 35 73
        E 0 94 40 73
        E 224 84 40 73
        E 0 94 3e 73
        E 96 84 3e 73
        E 0 94 37 73
        E 0 94 32 73
        E 256 84 32 73
        E 0 94 40 73
        E 192 84 40 73
        E 0 94 3a 73
        E 64 84 3a 73
        E 0 94 35 73
        E 256 84 35 73
        E 0 94 40 73
        E 224 84 40 73
        E 0 94 3e 73
        E 96 84 3e 73
        E 0 94 37 73
        E 0 94 32 73
        E 256 84 32 73
        E 0 94 40 73
        E 192 84 40 73
        E 0 94 3a 73
        E 64 84 3a 73
        E 0 94 35 73
        E 256 84 35 73
        E 0 94 40 73
        E 224 84 40 73
        E 0 94 3e 73
        E 96 84 3e 73
        E 0 94 37 73
        E 0 94 32 73
        E 256 84 32 73
        E 0 94 40 73
        E 192 84 40 73
        E 0 94 3a 73
        E 64 84 3a 73
        E 0 94 35 73
        E 256 84 35 73
        E 0 94 40 73
        E 224 84 40 73
        E 0 94 3e 73
        E 96 84 3e 73
        E 0 94 37 73
        E 0 94 32 73
        E 256 84 32 73
        E 0 94 40 73
        E 192 84 40 73
        E 0 94 3a 73
        E 64 84 3a 73
        E 0 94 35 73
        E 256 84 35 73
        E 0 94 40 73
        E 224 84 40 73
        E 0 94 3e 73
        E 96 84 3e 73
        E 0 94 37 73
        E 0 94 32 73
        E 256 84 32 73
        E 0 94 40 73
        E 192 84 40 73
        E 0 94 3a 73
        E 64 84 3a 73
        E 0 94 35 73
        E 256 84 35 73
        E 0 94 40 73
        E 224 84 40 73
        E 0 94 3e 73
        E 96 84 3e 73
        E 0 94 37 73
        E 0 94 32 73
        E 256 84 32 73
        E 0 94 40 73
        E 192 84 40 73
        E 0 94 3a 73
        E 64 84 3a 73
        E 0 94 35 73
        E 256 84 35 73
        E 0 94 40 73
        E 224 84 40 73
        E 0 94 3e 73
        E 96 84 3e 73
        E 0 94 37 73
        E 0 94 32 73
        E 256 84 32 73
        E 0 94 40 73
        E 192 84 40 73
        E 0 94 3a 73
        E 64 84 3a 73
        E 0 94 35 73
        E 256 84 35 73
        E 0 94 40 73
        E 224 84 40 73
        E 0 94 3e 73
        E 96 84 3e 73
        E 0 94 37 73
        E 0 94 32 73
        E 256 84 32 73
        E 0 94 40 73
        E 192 84 40 73
        E 0 94 3a 73
        E 64 84 3a 73
        E 0 94 35 73
        E 256 84 35 73
        E 0 94 40 73
        E 224 84 40 73
        E 0 94 3e 73
        E 96 84 3e 73
        E 0 94 37 73
        E 0 94 32 73
        E 256 84 32 73
        E 0 94 40 73
        E 192 84 40 73
        E 0 94 3a 73
        E 64 84 3a 73
        E 0 94 35 73
        E 256 84 35 73
        E 0 94 40 73
        E 224 84 40 73
        E 0 94 3e 73
        E 96 84 3e 73
        E 0 94 37 73
        E 0 94 32 73
        E 256 84 32 73
        E 0 94 40 73
        E 192 84 40 73
        E 0 94 3a 73
        E 64 84 3a 73
        E 0 94 35 73
        E 256 84 35 73
        E 0 94 40 73
        E 224 84 40 73
        E 0 94 3e 73
        E 96 84 3e 73
        E 0 94 37 73
        E 0 94 32 73
        E 256 84 32 73
        E 0 94 40 73
        E 192 84 40 73
        E 0 94 3a 73
        E 64 84 3a 73
        E 0 94 35 73
        E 256 84 35 73
        E 0 94 40 73
        E 224 84 40 73
        E 0 94 3e 73
        E 96 84 3e 73
        E 0 94 37 73
        E 0 94 32 73
        E 256 84 32 73
        E 0 94 40 73
        E 192 84 40 73
        E 0 94 3a 73
        E 64 84 3a 73
        E 0 94 35 73
        E 256 84 35 73
        E 0 94 40 73
        E 224 84 40 73
        E 0 94 3e 73
        E 96 84 3e 73
        E 0 94 37 73
        E 0 94 32 73
        E 256 84 32 73
        E 0 94 40 73
        E 192 84 40 73
        E 0 94 3a 73
        E 64 84 3a 73
        E 0 94 35 73
        E 256 84 35 73
        E 0 94 40 73
        E 224 84 40 73
        E 0 94 3e 73
        E 96 84 3e 73
        E 0 94 37 73
        E 0 94 32 73
        E 256 84 32 73
        E 0 94 40 73
        E 192 84 40 73
        E 0 94 3a 73
        E 64 84 3a 73
        E 0 94 35 73
        E 256 84 35 73
        E 0 94 40 73
        E 224 84 40 73
        E 0 94 3e 73
        E 96 84 3e 73
        E 0 94 37 73
        E 0 94 32 73
        E 256 84 32 73
        E 0 94 40 73
        E 192 84 40 73
        E 0 94 3a 73
        E 64 84 3a 73
        E 0 94 35 73
        E 256 84 35 73
        E 0 94 40 73
        E 224 84 40 73
        E 0 94 3e 73
        E 96 84 3e 73
        E 0 94 37 73
        E 0 94 32 73
        E 256 84 32 73
        E 0 94 40 73
        E 192 84 40 73
        E 0 94 3a 73
        E 64 84 3a 73
        E 0 94 35 73
        E 256 84 35 73
        E 0 94 40 73
        E 224 84 40 73
        E 0 94 3e 73
        E 96 84 3e 73
        E 0 94 37 73
        E 0 94 32 73
        E 256 84 32 73
        E 0 94 40 73
        E 192 84 40 73
        E 0 94 3a 73
        E 64 84 3a 73
        E 0 94 35 73
        E 256 84 35 73
        E 0 94 40 73
        E 224 84 40 73
        E 0 94 3e 73
        E 96 84 3e 73
        E 0 94 37 73
        E 0 94 32 73
        E 256 84 32 73
        E 0 94 40 73
        E 192 84 40 73
        E 0 94 3a 73
        E 64 84 3a 73
        E 0 94 35 73
        E 256 84 35 73
        E 0 94 40 73
        E 224 84 40 73
        E 0 94 3e 73
        E 96 84 3e 73
        E 0 94 37 73
        E 0 94 32 73
        E 256 84 32 73
        E 0 94 40 73
        E 192 84 40 73
        E 0 94 3a 73
        E 64 84 3a 73
        E 0 94 35 73
        E 256 84 35 73
        E 0 94 40 73
        E 224 84 40 73
        E 0 94 3e 73
        E 96 84 3e 73
        E 0 94 37 73
        E 0 94 32 73
        E 256 84 32 73
        E 0 94 40 73
        E 191 84 40 73
        E 1 b0 7b 00
        CCINTERP 32
        CHASE_CC_TAKEOFFS 1
        GUID {35BB0CAA-1ECD-A44D-B1B3-2025164B1735}
        IGNTEMPO 0 120 4 4
        SRCCOLOR 1164
        VELLANE 3 156 0
        VELLANE -1 196 0
      >
    >
  >
  <TRACK {0ACD30D0-CCDA-2E40-9C1E-AEE075B7F9CE}
    NAME "cannabis-infused gummies"
    PEAKCOL 16576
    BEAT -1
    AUTOMODE 0
    VOLPAN 1.5179077042073 0 -1 -1 1
    MUTESOLO 0 0 0
    IPHASE 0
    PLAYOFFS 0 1
    ISBUS 0 0
    BUSCOMP 0 0 0 0 0
    SHOWINMIX 1 0.6667 0.5 1 0.5 0 -1 0
    FREEMODE 0
    SEL 0
    REC 0 0 1 0 0 0 0
    VU 2
    TRACKHEIGHT 0 0 0 0 -1 0
    INQ 0 0 0 0.5 100 0 0 100
    NCHAN 2
    FX 1
    TRACKID {0ACD30D0-CCDA-2E40-9C1E-AEE075B7F9CE}
    PERF 0
    MIDIOUT -1
    MAINSEND 1 0
    <FXCHAIN
      WNDRECT 32 531 1159 532
      SHOW 0
      LASTSEL 0
      DOCKED 0
      BYPASS 0 0 0
      <VST "VSTi: FM8 (Native Instruments GmbH)" FM8.vst 0 "" 1315530296<5653544E696638666D38000000000000> ""
        OGZpTu5e7f4AAAAAAgAAAAEAAAAAAAAAAgAAAAAAAAAxCwAAAQAAAAAAEAA=
        MQsAAAAAAAABAAAAaHNpbgEAAAAAAAAAN455D8DDx0mHoN4j0l/0WZYAAAAAAAAARFNJTnYAAAABAAAASAAAAAAAAABEU0lOagAAAAEAAAAYAAAAAAAAAERTSU4BAAAA
        AQAAAAEAAAABAAAAAQAAAAEAAAAAAAAAAAAAAAAAAAANYmWFAQAAAAhwEAAAAAAAAQAAAAEAAAAAAAAAAAAAAAAAAAADAAAAMAAwADAAAAAAAAAAAAAAAAAAAAAAAAEA
        AAABAAAAAAAAAERTSU5lAAAAXwoAAAAAAAABAAAAaHNpbgEAAAAAAAAAMOH4NwAUwEaoogAOyNUgkW0AAAAAAAAARFNJTmUAAAABAAAANAAAAAAAAABEU0lOagAAAAEA
        AAAYAAAAAAAAAERTSU4BAAAAAQAAAAEAAAABAAAAAgAAAAEAAAAACAAAAAEAAAAKAAAAMQAuADIALgAwAC4AMQAwADEAMAABAAAAAwAAAAAAAABEU0lObAAAAEIDAAAA
        AAAAAQAAAGhzaW4BAAAAAAAAACA7190CLVtKvWPIjKqbw/sSAwAAAAAAAERTSU5sAAAAAQAAABgAAAAAAAAARFNJTgEAAAABAAAAAQAAAAEAAAACAAAAAQAAAAAAAAAJ
        AAAAQwBhAG4AbgBpAGIAYQBsAHMADAAAAEEAbgBkAHIAZQAgAEUAdAB0AGUAbQBhABIAAABOAGEAdABpAHYAZQAgAEkAbgBzAHQAcgB1AG0AZQBuAHQAcwA/AAAAVwBp
        AHQAaAAgAGEAIABsAGkAdAB0AGwAZQAgAG0AbwByAGUAIABzAGEAbAB0ACAAJwBuACAAcABlAHAAcABhACAAeQBvAHUAIABhAGMAdAB1AGEAbABsAHkAIAB0AGEAcwB0
        AGUAIABxAHUAaQB0AGUAIABnAG8AbwBkAC4AAAAAAP////8AAAAAAAAAAAAAAAAAAAAAAAAAAAEAAAABAAAAAgAAAAMAAABGAE0AOAALAAAARgBNADgAIABGAGEAYwB0
        AG8AcgB5AAgAAAALAAAAQQByAHAAZQBnAGcAaQBhAHQAZQBkAAoAAABQAGUAcgBjAHUAcwBzAGkAbwBuAA8AAABQAGUAcgBjAHUAcwBzAGkAbwBuACAATABvAG8AcAAK
        AAAAUABlAHIAYwB1AHMAcwBpAHYAZQAJAAAAUAByAG8AYwBlAHMAcwBlAGQADQAAAFMAZQBxAHUAZQBuAGMAZQAvAEwAbwBvAHAACQAAAFMAeQBuAHQAaABlAHQAaQBj
        AAwAAABUAGUAbQBwAG8ALQBzAHkAbgBjAGUAZAAAAAAABwAAAAcAAABcAEAAYwBvAGwAbwByAAEAAAAwABEAAABcAEAAZABlAHYAaQBjAGUAdAB5AHAAZQBmAGwAYQBn
        AHMAAQAAADEACwAAAFwAQABzAG8AdQBuAGQAdAB5AHAAZQABAAAAMAAHAAAAXABAAHQAZQBtAHAAbwABAAAAMAAGAAAAXABAAHYAZQByAGwABQAAADEALgA3AC4AOAAG
        AAAAXABAAHYAZQByAG0ABQAAADEALgA3AC4AOAAHAAAAXABAAHYAaQBzAGkAYgABAAAAMAABAAAAAAAAAAIAAABEU0lOeQAAAGgAAAAAAAAAAQAAAGhzaW4BAAAAAAAA
        AEbri8Ka6YdEhD0yKHa6NqE4AAAAAAAAAERTSU55AAAAAQAAABgAAAAAAAAARFNJTgEAAAABAAAAAQAAAAEAAAABAAAAAAAAAAEAAAAAAAAAAQAAAERTSU50AAAA9AUA
        AAAAAAABAAAAaHNpbgEAAAAAAAAAw+INgnMsnE65a0GAwxW+pMQFAAAAAAAARFNJTnQAAAABAAAAqwUAAAAAAABEU0lOcwAAAAEAAAAYAAAAAAAAAERTSU4BAAAAAQAA
        AAEAAAABAAAAAXwQAAByBQAAAnwQAGAAAAEgBQNoc2luQAdAABAfJGsG8BlISpiuoVdNwQ88GEAUIAADRFNJTkAj4AcDQABAGwBtIAgBKBAgBCAAQCPgA1MRSQJjMqza
        xUanYHbCthGPnPgPICQgAMA3QC/gF2dAIwCwoDcABSA7ASINIAQgAAh0c3JwRThNRs8gCwS8IwAAGiAHACCAAAZFYXQgWW91gAyAAAgIAAAAQWxpdmUgDgAZIAsgBmAA
        BEdvbm5hYAmgAEDJYAoDV2UnckAtIAAAAGAABmBBAACAQAAgRwQAAIA/AOAIAAJAwQBgAADAoB/AIwDgIA/AAEATQEMCCEIAYBdAD+ADAEAP4BMfBAAAIR8UQHvgAwNA
        AAM/16NwQBPgAwDgBA8DzczMPiAcAz+amRlAF8AD4AAXIArgBxtAE0AA4AcHQAAgE0CrYAAgC2ADQABACyAA4AQbQABAF0AD4AMAwA9AB0ADwABAC6ADEIA/YHYfPytl
        +T6WkK8+wvUoIBcEgD/4McZAyyAACIA/9igdQjcaECAXQABBOwCAIAtAAwCeIWNAAACgoX8AriAPAAQgA0AAQB8A+CAXQBtAC0AD4AsAQBdAA0AA4AcHQADAE0AAAMgg
        W0ADwAAAdCAPACAgYwCoIhcAECALQBtAAwBIIAsAliADALQgA0AHQAAAcCALQAAAvKAHQCdAA8AA4CtLAJDgQksAmuBCSwBgoEsgAAADIAADAgIBASAEQAYDAAACBCAA
        QBMBBAFgACAjATcdQAAIAAAoS0tLJgAmIBHgCAAAAsARAP7ACOA/AABk4D9I4AAABAH/Af//QNfgAABg6OAVAOAAKwsARpQCQCsYhT++n4Ii5kMmAMCgB+ABAAe4HoU+
        uB4FvqPy4AwAwG/gARzg81kBBABjyUPNAFAinQXIQgOA+kOgFAAAJfIAQOAFFAIGAEQgEOAGFAcCsDdFA5B8RUA+BQsAbEQDAGBPADQgKSPJAsCvRaAQARVEQBADCQAn
        RCK2QHEB+kNAB+AEDKB6QGUB0EJALkAhYBQHx0tXP+BPjT1AAwPMvIwrYBQDppvEO0AMwAOgFABE4BkUYJPANkAH4AgQoJeAJeAEDAkEuR7FPjQzM78A4AIACwSS7Xw+
        5tACP4TAKmKYD4TAaj8E9ihcPsUgUD8VrifgARQGjpduPmMQWOAFFEA+QBQCMggs4AApAANAFEBHIGdgT+AIECCXBAA/ZmZmYAPgBAwhCkMk4AUDQCFAACFWAf5C4CUM
        AIgl0OAAM+AEDEXCAf5Co1DgACKAAMBjYADgOAwgYwRwwgAAhmC6YRQgV2DUYAjgPAwgY4BJIAegACULIAJgBGAH4BEAAEYgAOARHeAJAAA0IADgCRXgIQAEPGRkZJ0g
        AOAPMQBOIADgDxvgEwBAV0AA4BMjQADgGyPgAwDgJy/gYwAA/+AXAENRAgEQQCQoATB/IJhCKEAEAfBCYtgmVyukYuIDAQAGAYAJAwABBf9gCSZvoBNACYATIAAgLiAC
        IAACAQICYAkgVAAFwDsAAOABOwAEgDFAOwD+gCcEAQEEAgpAO0AxgDsgCiAMgBMAASv2gAkDAAcCA6AJIB6gCQAGwB0AAaA7IAkACOAAHQD/oB0CAQAH4AF3wAkAAeAC
        x6CLICmgCQIBAQfAOwEBCaATAgAABKBZIQOgHSAToE8AAEBP4EsAABGgVANrbmFiQPXAAAGAACAAABmgEQNjdG5pTUoBESdBAgAATOBAAACgJR8BoELiEw8BdAAhJqAA
        AA/gAgvg/QDgvQCu/QQAc2l1Z0IkAOgj+cAAABUgCAAZIANCNEAARBtAAAZncHRjWVRNKQsNAAANYmWFAQAAAAAAAAABAAAAAAEAAAAAAAAA
        ADxkaXNhYmxlZD4AEAAAAA==
      >
      PRESETNAME <disabled>
      FLOATPOS 0 0 0 0
      FXID {A0D8C362-99D9-DC40-873F-C951E00FCDC5}
      WAK 0 0
    >
    <ITEM
      POSITION 156.12222000007034
      SNAPOFFS 0
      LENGTH 98.72750415882118
      LOOP 1
      ALLTAKES 0
      FADEIN 1 0 0 1 0 0
      FADEOUT 1 0 0 1 0 0
      MUTE 0 0
      SEL 0
      IGUID {B2319EBA-89EB-9148-9E98-58101D21605A}
      IID 34
      NAME "cannabis-infused gummies.mid"
      VOLPAN 1 0 1 -1
      SOFFS 97.34679600004387 159
      PLAYRATE 1 1 0 -1 0 0.0025
      CHANMODE 0
      GUID {AE52BE3A-01D1-8842-B2F2-89F3FCF7547B}
      <SOURCE MIDI
        HASDATA 1 128 QN
        CCINTERP 32
        POOLEDEVTS {134A0722-B0B4-BA4B-ADEE-7B2CF8870774}
        E 0 93 3a 73
        E 32 83 3a 73
        E 0 93 35 73
        E 128 83 35 73
        E 0 93 40 73
        E 112 83 40 73
        E 0 93 3e 73
        E 48 83 3e 73
        E 0 93 37 73
        E 0 93 32 73
        E 128 83 32 73
        E 0 93 40 73
        E 96 83 40 73
        E 0 93 3a 73
        E 32 83 3a 73
        E 0 93 35 73
        E 128 83 35 73
        E 0 93 40 73
        E 112 83 40 73
        E 0 93 3e 73
        E 48 83 3e 73
        E 0 93 37 73
        E 0 93 32 73
        E 128 83 32 73
        E 0 93 40 73
        E 96 83 40 73
        E 0 93 3a 73
        E 32 83 3a 73
        E 0 93 35 73
        E 128 83 35 73
        E 0 93 40 73
        E 112 83 40 73
        E 0 93 3e 73
        E 48 83 3e 73
        E 0 93 37 73
        E 0 93 32 73
        E 128 83 32 73
        E 0 93 40 73
        E 96 83 40 73
        E 0 93 3a 73
        E 32 83 3a 73
        E 0 93 35 73
        E 128 83 35 73
        E 0 93 40 73
        E 112 83 40 73
        E 0 93 3e 73
        E 48 83 3e 73
        E 0 93 37 73
        E 0 93 32 73
        E 128 83 32 73
        E 0 93 40 73
        E 96 83 40 73
        E 0 93 3a 73
        E 32 83 3a 73
        E 0 93 35 73
        E 128 83 35 73
        E 0 93 40 73
        E 112 83 40 73
        E 0 93 3e 73
        E 48 83 3e 73
        E 0 93 37 73
        E 0 93 32 73
        E 128 83 32 73
        E 0 93 40 73
        E 96 83 40 73
        E 0 93 3a 73
        E 32 83 3a 73
        E 0 93 35 73
        E 128 83 35 73
        E 0 93 40 73
        E 112 83 40 73
        E 0 93 3e 73
        E 48 83 3e 73
        E 0 93 37 73
        E 0 93 32 73
        E 128 83 32 73
        E 0 93 40 73
        E 96 83 40 73
        E 0 93 3a 73
        E 32 83 3a 73
        E 0 93 35 73
        E 128 83 35 73
        E 0 93 40 73
        E 112 83 40 73
        E 0 93 3e 73
        E 48 83 3e 73
        E 0 93 37 73
        E 0 93 32 73
        E 128 83 32 73
        E 0 93 40 73
        E 96 83 40 73
        E 0 93 3a 73
        E 32 83 3a 73
        E 0 93 35 73
        E 128 83 35 73
        E 0 93 40 73
        E 112 83 40 73
        E 0 93 3e 73
        E 48 83 3e 73
        E 0 93 37 73
        E 0 93 32 73
        E 128 83 32 73
        E 0 93 40 73
        E 96 83 40 73
        E 0 93 3a 73
        E 32 83 3a 73
        E 0 93 35 73
        E 128 83 35 73
        E 0 93 40 73
        E 112 83 40 73
        E 0 93 3e 73
        E 48 83 3e 73
        E 0 93 37 73
        E 0 93 32 73
        E 128 83 32 73
        E 0 93 40 73
        E 96 83 40 73
        E 0 93 3a 73
        E 32 83 3a 73
        E 0 93 35 73
        E 128 83 35 73
        E 0 93 40 73
        E 112 83 40 73
        E 0 93 3e 73
        E 48 83 3e 73
        E 0 93 37 73
        E 0 93 32 73
        E 128 83 32 73
        E 0 93 40 73
        E 96 83 40 73
        E 0 93 3a 73
        E 32 83 3a 73
        E 0 93 35 73
        E 128 83 35 73
        E 0 93 40 73
        E 112 83 40 73
        E 0 93 3e 73
        E 48 83 3e 73
        E 0 93 37 73
        E 0 93 32 73
        E 128 83 32 73
        E 0 93 40 73
        E 96 83 40 73
        E 0 93 3a 73
        E 32 83 3a 73
        E 0 93 35 73
        E 128 83 35 73
        E 0 93 40 73
        E 112 83 40 73
        E 0 93 3e 73
        E 48 83 3e 73
        E 0 93 37 73
        E 0 93 32 73
        E 128 83 32 73
        E 0 93 40 73
        E 96 83 40 73
        E 0 93 3a 73
        E 32 83 3a 73
        E 0 93 35 73
        E 128 83 35 73
        E 0 93 40 73
        E 112 83 40 73
        E 0 93 3e 73
        E 48 83 3e 73
        E 0 93 37 73
        E 0 93 32 73
        E 128 83 32 73
        E 0 93 40 73
        E 96 83 40 73
        E 0 93 3a 73
        E 32 83 3a 73
        E 0 93 35 73
        E 128 83 35 73
        E 0 93 40 73
        E 112 83 40 73
        E 0 93 3e 73
        E 48 83 3e 73
        E 0 93 37 73
        E 0 93 32 73
        E 128 83 32 73
        E 0 93 40 73
        E 96 83 40 73
        E 0 93 3a 73
        E 32 83 3a 73
        E 0 93 35 73
        E 128 83 35 73
        E 0 93 40 73
        E 112 83 40 73
        E 0 93 3e 73
        E 48 83 3e 73
        E 0 93 37 73
        E 0 93 32 73
        E 128 83 32 73
        E 0 93 40 73
        E 96 83 40 73
        E 0 93 3a 73
        E 32 83 3a 73
        E 0 93 35 73
        E 128 83 35 73
        E 0 93 40 73
        E 112 83 40 73
        E 0 93 3e 73
        E 48 83 3e 73
        E 0 93 37 73
        E 0 93 32 73
        E 128 83 32 73
        E 0 93 40 73
        E 96 83 40 73
        E 0 93 3a 73
        E 32 83 3a 73
        E 0 93 35 73
        E 128 83 35 73
        E 0 93 40 73
        E 112 83 40 73
        E 0 93 3e 73
        E 48 83 3e 73
        E 0 93 37 73
        E 0 93 32 73
        E 128 83 32 73
        E 0 93 40 73
        E 96 83 40 73
        E 0 93 3a 73
        E 32 83 3a 73
        E 0 93 35 73
        E 128 83 35 73
        E 0 93 40 73
        E 112 83 40 73
        E 0 93 3e 73
        E 48 83 3e 73
        E 0 93 37 73
        E 0 93 32 73
        E 128 83 32 73
        E 0 93 40 73
        E 96 83 40 73
        E 0 93 3a 73
        E 32 83 3a 73
        E 0 93 35 73
        E 128 83 35 73
        E 0 93 40 73
        E 112 83 40 73
        E 0 93 3e 73
        E 48 83 3e 73
        E 0 93 37 73
        E 0 93 32 73
        E 128 83 32 73
        E 0 93 40 73
        E 96 83 40 73
        E 0 93 3a 73
        E 32 83 3a 73
        E 0 93 35 73
        E 128 83 35 73
        E 0 93 40 73
        E 112 83 40 73
        E 0 93 3e 73
        E 48 83 3e 73
        E 0 93 37 73
        E 0 93 32 73
        E 128 83 32 73
        E 0 93 40 73
        E 96 83 40 73
        E 0 93 3a 73
        E 32 83 3a 73
        E 0 93 35 73
        E 128 83 35 73
        E 0 93 40 73
        E 112 83 40 73
        E 0 93 3e 73
        E 48 83 3e 73
        E 0 93 37 73
        E 0 93 32 73
        E 128 83 32 73
        E 0 93 40 73
        E 96 83 40 73
        E 0 93 3a 73
        E 32 83 3a 73
        E 0 93 35 73
        E 128 83 35 73
        E 0 93 40 73
        E 112 83 40 73
        E 0 93 3e 73
        E 48 83 3e 73
        E 0 93 37 73
        E 0 93 32 73
        E 128 83 32 73
        E 0 93 40 73
        E 96 83 40 73
        E 0 93 3a 73
        E 32 83 3a 73
        E 0 93 35 73
        E 128 83 35 73
        E 0 93 40 73
        E 112 83 40 73
        E 0 93 3e 73
        E 48 83 3e 73
        E 0 93 37 73
        E 0 93 32 73
        E 128 83 32 73
        E 0 93 40 73
        E 96 83 40 73
        E 0 93 3a 73
        E 32 83 3a 73
        E 0 93 35 73
        E 128 83 35 73
        E 0 93 40 73
        E 112 83 40 73
        E 0 93 3e 73
        E 48 83 3e 73
        E 0 93 37 73
        E 0 93 32 73
        E 128 83 32 73
        E 0 93 40 73
        E 96 83 40 73
        E 0 93 3a 73
        E 32 83 3a 73
        E 0 93 35 73
        E 128 83 35 73
        E 0 93 40 73
        E 112 83 40 73
        E 0 93 3e 73
        E 48 83 3e 73
        E 0 93 37 73
        E 0 93 32 73
        E 128 83 32 73
        E 0 93 40 73
        E 96 83 40 73
        E 0 93 3a 73
        E 32 83 3a 73
        E 0 93 35 73
        E 128 83 35 73
        E 0 93 40 73
        E 112 83 40 73
        E 0 93 3e 73
        E 48 83 3e 73
        E 0 93 37 73
        E 0 93 32 73
        E 128 83 32 73
        E 0 93 40 73
        E 96 83 40 73
        E 0 93 3a 73
        E 32 83 3a 73
        E 0 93 35 73
        E 128 83 35 73
        E 0 93 40 73
        E 112 83 40 73
        E 0 93 3e 73
        E 48 83 3e 73
        E 0 93 37 73
        E 0 93 32 73
        E 128 83 32 73
        E 0 93 40 73
        E 96 83 40 73
        E 0 93 3a 73
        E 32 83 3a 73
        E 0 93 35 73
        E 128 83 35 73
        E 0 93 40 73
        E 112 83 40 73
        E 0 93 3e 73
        E 48 83 3e 73
        E 0 93 37 73
        E 0 93 32 73
        E 128 83 32 73
        E 0 93 40 73
        E 96 83 40 73
        E 0 93 3a 73
        E 32 83 3a 73
        E 0 93 35 73
        E 128 83 35 73
        E 0 93 40 73
        E 112 83 40 73
        E 0 93 3e 73
        E 48 83 3e 73
        E 0 93 37 73
        E 0 93 32 73
        E 128 83 32 73
        E 0 93 40 73
        E 96 83 40 73
        E 0 93 3a 73
        E 32 83 3a 73
        E 0 93 35 73
        E 128 83 35 73
        E 0 93 40 73
        E 112 83 40 73
        E 0 93 3e 73
        E 48 83 3e 73
        E 0 93 37 73
        E 0 93 32 73
        E 128 83 32 73
        E 0 93 40 73
        E 96 83 40 73
        E 0 93 3a 73
        E 32 83 3a 73
        E 0 93 35 73
        E 128 83 35 73
        E 0 93 40 73
        E 112 83 40 73
        E 0 93 3e 73
        E 48 83 3e 73
        E 0 93 37 73
        E 0 93 32 73
        E 128 83 32 73
        E 0 93 40 73
        E 96 83 40 73
        E 0 93 3a 73
        E 32 83 3a 73
        E 0 93 35 73
        E 128 83 35 73
        E 0 93 40 73
        E 112 83 40 73
        E 0 93 3e 73
        E 48 83 3e 73
        E 0 93 37 73
        E 0 93 32 73
        E 128 83 32 73
        E 0 93 40 73
        E 96 83 40 73
        E 0 93 3a 73
        E 32 83 3a 73
        E 0 93 35 73
        E 128 83 35 73
        E 0 93 40 73
        E 112 83 40 73
        E 0 93 3e 73
        E 48 83 3e 73
        E 0 93 37 73
        E 0 93 32 73
        E 128 83 32 73
        E 0 93 40 73
        E 96 83 40 73
        E 0 93 3a 73
        E 32 83 3a 73
        E 0 93 35 73
        E 128 83 35 73
        E 0 93 40 73
        E 112 83 40 73
        E 0 93 3e 73
        E 48 83 3e 73
        E 0 93 37 73
        E 0 93 32 73
        E 128 83 32 73
        E 0 93 40 73
        E 96 83 40 73
        E 0 93 3a 73
        E 32 83 3a 73
        E 0 93 35 73
        E 128 83 35 73
        E 0 93 40 73
        E 112 83 40 73
        E 0 93 3e 73
        E 48 83 3e 73
        E 0 93 37 73
        E 0 93 32 73
        E 128 83 32 73
        E 0 93 40 73
        E 96 83 40 73
        E 0 93 3a 73
        E 32 83 3a 73
        E 0 93 35 73
        E 128 83 35 73
        E 0 93 40 73
        E 112 83 40 73
        E 0 93 3e 73
        E 48 83 3e 73
        E 0 93 37 73
        E 0 93 32 73
        E 128 83 32 73
        E 0 93 40 73
        E 96 83 40 73
        E 0 93 3a 73
        E 32 83 3a 73
        E 0 93 35 73
        E 128 83 35 73
        E 0 93 40 73
        E 112 83 40 73
        E 0 93 3e 73
        E 48 83 3e 73
        E 0 93 37 73
        E 0 93 32 73
        E 128 83 32 73
        E 0 93 40 73
        E 96 83 40 73
        E 0 93 3a 73
        E 32 83 3a 73
        E 0 93 35 73
        E 128 83 35 73
        E 0 93 40 73
        E 112 83 40 73
        E 0 93 3e 73
        E 48 83 3e 73
        E 0 93 37 73
        E 0 93 32 73
        E 32 83 32 00
        E 0 83 37 00
        E 0 b0 7b 00
        CCINTERP 32
        CHASE_CC_TAKEOFFS 1
        GUID {5DD2F79B-D637-7749-8F09-E26B44477A34}
        IGNTEMPO 0 120 4 4
        SRCCOLOR 1170
        VELLANE 1 601 0
        VELLANE -1 196 0
      >
    >
  >
  <TRACK {DA0EA40F-EF24-EC49-BA09-2039BB3ADFC7}
    NAME "cannabis-infused gummies"
    PEAKCOL 16576
    BEAT -1
    AUTOMODE 0
    VOLPAN 1.20023708422065 0 -1 -1 1
    MUTESOLO 0 0 0
    IPHASE 0
    PLAYOFFS 0 1
    ISBUS 0 0
    BUSCOMP 0 0 0 0 0
    SHOWINMIX 1 0.6667 0.5 1 0.5 0 -1 0
    FREEMODE 0
    SEL 0
    REC 0 0 1 0 0 0 0
    VU 2
    TRACKHEIGHT 0 0 0 0 -1 0
    INQ 0 0 0 0.5 100 0 0 100
    NCHAN 2
    FX 1
    TRACKID {DA0EA40F-EF24-EC49-BA09-2039BB3ADFC7}
    PERF 0
    MIDIOUT -1
    MAINSEND 1 0
    <FXCHAIN
      WNDRECT 434 -88 1159 532
      SHOW 0
      LASTSEL 0
      DOCKED 0
      BYPASS 0 0 0
      <VST "VSTi: FM8 (Native Instruments GmbH)" FM8.vst 0 "" 1315530296<5653544E696638666D38000000000000> ""
        OGZpTu5e7f4AAAAAAgAAAAEAAAAAAAAAAgAAAAAAAAANDAAAAQAAAAAAEAA=
        DQwAAAAAAAABAAAAaHNpbgEAAAAAAAAAN455D8DDx0mHoN4j0l/0WZYAAAAAAAAARFNJTnYAAAABAAAASAAAAAAAAABEU0lOagAAAAEAAAAYAAAAAAAAAERTSU4BAAAA
        AQAAAAEAAAABAAAAAQAAAAEAAAAAAAAAAAAAAAAAAAANYmWFAQAAAAhwEAAAAAAAAQAAAAEAAAAAAAAAAAAAAAAAAAADAAAAMAAwADAAAAAAAAAAAAAAAAAAAAAAAAEA
        AAABAAAAAAAAAERTSU5lAAAAOwsAAAAAAAABAAAAaHNpbgEAAAAAAAAAMOH4NwAUwEaoogAOyNUgkW0AAAAAAAAARFNJTmUAAAABAAAANAAAAAAAAABEU0lOagAAAAEA
        AAAYAAAAAAAAAERTSU4BAAAAAQAAAAEAAAABAAAAAgAAAAEAAAAACAAAAAEAAAAKAAAAMQAuADIALgAwAC4AMQAwADEAMAABAAAAAwAAAAAAAABEU0lObAAAAPwCAAAA
        AAAAAQAAAGhzaW4BAAAAAAAAACA7190CLVtKvWPIjKqbw/vMAgAAAAAAAERTSU5sAAAAAQAAABgAAAAAAAAARFNJTgEAAAABAAAAAQAAAAEAAAACAAAAAQAAAAAAAAAO
        AAAAVABpAG4AZwBsAGkAbgBnACAAVABpAG4AZQBzAAwAAABBAG4AZAByAGUAIABFAHQAdABlAG0AYQASAAAATgBhAHQAaQB2AGUAIABJAG4AcwB0AHIAdQBtAGUAbgB0
        AHMAJAAAAFAAbABhAHkAIABzAGgAbwByAHQAIABuAG8AdABlAHMAIABhAG4AZAAgAHcAYQBpAHQAIABmAG8AcgAgAGQAZQBsAGEAeQAuAAAAAAD/////AAAAAAAAAAAA
        AAAAAAAAAAAAAAABAAAAAQAAAAIAAAADAAAARgBNADgACwAAAEYATQA4ACAARgBhAGMAdABvAHIAeQAHAAAABQAAAEMAaABvAHIAZAAMAAAATABvAG4AZwAgAFIAZQBs
        AGUAYQBzAGUADQAAAEwAbwBuAGcALwBFAHYAbwBsAHYAaQBuAGcAEgAAAE0AYQBsAGwAZQB0ACAASQBuAHMAdAByAHUAbQBlAG4AdABzAAwAAABPAHQAaABlAHIAIABN
        AGEAbABsAGUAdAAJAAAAUAByAG8AYwBlAHMAcwBlAGQACQAAAFMAeQBuAHQAaABlAHQAaQBjAAAAAAAHAAAABwAAAFwAQABjAG8AbABvAHIAAQAAADAAEQAAAFwAQABk
        AGUAdgBpAGMAZQB0AHkAcABlAGYAbABhAGcAcwABAAAAMQALAAAAXABAAHMAbwB1AG4AZAB0AHkAcABlAAEAAAAwAAcAAABcAEAAdABlAG0AcABvAAEAAAAwAAYAAABc
        AEAAdgBlAHIAbAAFAAAAMQAuADcALgA4AAYAAABcAEAAdgBlAHIAbQAFAAAAMQAuADcALgA4AAcAAABcAEAAdgBpAHMAaQBiAAEAAAAwAAEAAAAAAAAAAgAAAERTSU55
        AAAAaAAAAAAAAAABAAAAaHNpbgEAAAAAAAAARuuLwprph0SEPTIodro2oTgAAAAAAAAARFNJTnkAAAABAAAAGAAAAAAAAABEU0lOAQAAAAEAAAABAAAAAQAAAAEAAAAA
        AAAAAQAAAAAAAAABAAAARFNJTnQAAAAWBwAAAAAAAAEAAABoc2luAQAAAAAAAADD4g2CcyycTrlrQYDDFb6k5gYAAAAAAABEU0lOdAAAAAEAAADNBgAAAAAAAERTSU5z
        AAAAAQAAABgAAAAAAAAARFNJTgEAAAABAAAAAQAAAAEAAAABLhEAAJQGAAACLhEAYAAAASAFA2hzaW5AB0AAEB8kawbwGUhKmK6hV03BDzwYQBQgAANEU0lOQCPgBwNA
        AEAbAG0gCAHaECAEIABAI+ADUxBJAmMyrNrFRqdgdsK2EY+cqqAnwDdAL+AXZ0AjAGKgNwAFIGMB1A0gBCAACHRzcnBFOE1GzyALBLwjAAAOIAcOSnVzdCAgR2xpZGlu
        ZyASIBEFUmVzbyBTIA0gAiAYAmFzc0BKD0FuYWxvZyBQYWQgTGF5ZXJAUuAEJCA5B0AAAMBBAACgIAcAACAHQA8AmEAH4AoABkhCAACAPwDgDABgFyBDADwgI+ALAMAf
        AITgDh9gAEBb4AMDQADAD+ADAEAT4AAADmQrAj72OSQ/MI8tP+iQGkAbQANAAEAH4A8D4AMAQCPAACALYKtAACALYANAAEALIACAGwIsQyxgDwh7FK4+lpCvPgBgAIAb
        AlZ9bqAPYDNgJ6AAQAvAA0AAwAugBwaAP/6y+z0AYA+ASyAAQBsgAABAIZNAE0ADAJYhQwDIIAMA8CATAIggBwCqIAPAAEAfAAQgDwAIIANAC0AD4BcA4BcjQGtAAwDA
        Id9AK0HjAIggewDgIA8AQCBnQhcAoCAHQAtCRwC0IAsAmCADAEAgHwBgICdAAEA/QABAB0AD4NNLIAADAwMDASADEwIFAgMCAAIBAwIBBAQGAgQGBAIHIB2AAAY2NSkv
        BC4GQ+wEACsfLgIgBmAAAf3/YAZAAOAAEwD+QA3gMQAACOAIOgAR4AgR4DcAAgEB/yABIADgAEggC+AVACApHxISAwECAQECAK7Yfz+JQcA/jgaYQfXb/z/wFlpB5PI/
        IkJCcoADErgeBb9cj0I+wvWwQbgehb4K14NjHgiamWNCkML1vAAgAIBxIAjgUVkAA+ChswEEACE6DwYAcEQI4LBFC8DnRLxhikVAFABCQBQBDgDgARQABkApAABDmwLo
        lkVgBwakRUYAABNDQAsMApUqikI0E/pDXx5FQyA+AAwj3SPFAOCAKRwOpHdGBgsAIEENCOtFDgAaQwRgUUWs4ThDlpaDQkADEAQHABhDAEAeRAcALkMAAMpCQD0i2wC6
        IAgBG0RAeCMVAKwgDEaBAA4gIQAwIAMgXwEA4CADQAcOyEIElkNrP8qhxT5QjZc9QAMDzLyMKyCJDIA/16OwPt9PjT2WQ4tgFAgG3SRmPzq0yD5AIUADBmqR7TwbL11g
        HCB0QOUBAD9AGAcEo3BdP/p+quAAKUAUAAZAFEAIQAMKqvHSPXe+nz09CtdgPgMEHoVrISQIgD8tsp09ppvEYBSgUwCAYDUIB4gWWT2yne89IHURPRbZzr0j2/m9WDk0
        PW4SAzsAIAAEBEjhuj4gDB0/WDkUP++nBj+EwGo/BGZmpj7VeAk/TmIwP9aj8D5AFAcGQ4tsPs3MDCL2AWU/It4HPjAIbD+28/1GXQk/Ao7CdT7OzEw/QAMOBLKdbz7j
        pRs/Fa5nP94kgFMDBs3MjGAyBrBy6D5jEFhgVwIehetgPggEtcj2Pt5PTT9AGAIMAgsg1CBTG30/9T46tGg/ZmZmPweKQeA+xSAQPzIIDD/o++lgswZOYhA/qvESYC0h
        fEAARggAiiGmANogAwH+QuACFACOIBAA2CADAP5B6UAAQCngBgxk+4AZAHggKgCmIAMA3CAD4AYlIWBAAAJwQg0gGUPaAABACKBqQAAJIMBmZsbAxU7swOACFAEAAMAU
        oD+AAOAEDKB/gAACzcxsYEcDFDsxweAEJeAEDAcBMzOMwl9RzGBqYQggPeAAA0B/4AAMwBhAP+ANDEB/4AAZwC5AB+ARMkD/YCIDGQAZGSAq4BAABDQ0KzSdIADAIAMY
        ABgYwAvgBwAAMyAAAGQgAOADFwYKAAoKHhse4AMSgAADKhkqAOAAVeAGAOYGaAAqIAAgguAMLQAUIAABHh7gAl8DMTMAAOAEgeARACBWACogruAeLeC9AAD/4BcAQnsL
        AAgVAwAAQDIAAAA8QikgAwHwQmLAAAEgAYLKIAcgAkJhgAagCSA3oAkgSKAJIp+gCSYeoAklqqAJIACgCYBIoAagE+DCT+BLAMmAA2tuYWJBMcAAAYAAIAAAGaARA2N0
        bmlN/AERJ2FcRx5AAEtsAaBC4hMPAXQA4gEwAA/gAgvg/QDgvQAAICHXQAADc2l1Z0IkAOgjccAAACogCEYdI5hgACPSYAAGZ3B0Y1lUTSngDQAADWJlhQEAAAAAAAAA
        AQAAAAABAAAAAAAAAA==
        ADxkaXNhYmxlZD4AEAAAAA==
      >
      PRESETNAME <disabled>
      FLOATPOS 0 0 0 0
      FXID {C11794F1-ACD9-824E-88CD-08D7898AE119}
      WAK 0 0
    >
    <ITEM
      POSITION 58.77542400002648
      SNAPOFFS 0
      LENGTH 97.95904000004413
      LOOP 1
      ALLTAKES 0
      FADEIN 1 0 0 1 0 0
      FADEOUT 1 0 0 1 0 0
      MUTE 0 0
      SEL 0
      IGUID {44D64158-22A2-F543-A914-7746F42F6FF0}
      IID 33
      NAME "cannabis-infused gummies.mid"
      VOLPAN 1 0 1 -1
      SOFFS 0 0
      PLAYRATE 1 1 0 -1 0 0.0025
      CHANMODE 0
      GUID {CE55116E-0A00-1745-85EA-32458C4100D1}
      <SOURCE MIDI
        HASDATA 1 128 QN
        CCINTERP 32
        POOLEDEVTS {CCADD79E-13DB-E947-8AAF-C0FAD4518CF6}
        E 0 95 3a 73
        E 256 85 3a 73
        E 0 95 35 73
        E 1024 85 35 73
        E 0 95 40 73
        E 896 85 40 73
        E 0 95 3e 73
        E 384 85 3e 73
        E 0 95 37 73
        E 0 95 32 73
        E 1024 85 32 73
        E 0 95 40 73
        E 768 85 40 73
        E 0 95 3a 73
        E 256 85 3a 73
        E 0 95 35 73
        E 1024 85 35 73
        E 0 95 40 73
        E 896 85 40 73
        E 0 95 3e 73
        E 384 85 3e 73
        E 0 95 37 73
        E 0 95 32 73
        E 1024 85 32 73
        E 0 95 40 73
        E 768 85 40 73
        E 0 95 3a 73
        E 256 85 3a 73
        E 0 95 35 73
        E 1024 85 35 73
        E 0 95 40 73
        E 896 85 40 73
        E 0 95 3e 73
        E 384 85 3e 73
        E 0 95 37 73
        E 0 95 32 73
        E 1024 85 32 73
        E 0 95 40 73
        E 768 85 40 73
        E 0 95 3a 73
        E 256 85 3a 73
        E 0 95 35 73
        E 1024 85 35 73
        E 0 95 40 73
        E 896 85 40 73
        E 0 95 3e 73
        E 384 85 3e 73
        E 0 95 37 73
        E 0 95 32 73
        E 1024 85 32 73
        E 0 95 40 73
        E 768 85 40 73
        E 0 95 3a 73
        E 256 85 3a 73
        E 0 95 35 73
        E 1024 85 35 73
        E 0 95 40 73
        E 896 85 40 73
        E 0 95 3e 73
        E 384 85 3e 73
        E 0 95 37 73
        E 0 95 32 73
        E 1024 85 32 73
        E 0 95 40 73
        E 768 85 40 73
        E 0 95 3a 73
        E 256 85 3a 73
        E 0 95 35 73
        E 1024 85 35 73
        E 0 95 40 73
        E 896 85 40 73
        E 0 95 3e 73
        E 384 85 3e 73
        E 0 95 37 73
        E 0 95 32 73
        E 1024 85 32 73
        E 0 95 40 73
        E 768 85 40 73
        E 0 95 3a 73
        E 256 85 3a 73
        E 0 95 35 73
        E 1024 85 35 73
        E 0 95 40 73
        E 896 85 40 73
        E 0 95 3e 73
        E 384 85 3e 73
        E 0 95 37 73
        E 0 95 32 73
        E 1024 85 32 73
        E 0 95 40 73
        E 768 85 40 73
        E 0 95 3a 73
        E 256 85 3a 73
        E 0 95 35 73
        E 1024 85 35 73
        E 0 95 40 73
        E 896 85 40 73
        E 0 95 3e 73
        E 384 85 3e 73
        E 0 95 37 73
        E 0 95 32 73
        E 1024 85 32 73
        E 0 95 40 73
        E 767 85 40 73
        E 1 b0 7b 00
        CCINTERP 32
        CHASE_CC_TAKEOFFS 1
        GUID {BBF2A7AD-3271-BA42-ACB5-79830483827E}
        IGNTEMPO 0 120 4 4
        SRCCOLOR 1169
        VELLANE 1 601 0
        VELLANE -1 196 0
      >
    >
  >
  <TRACK {6F67B2DD-F203-4F47-9852-8CD172DB6BE8}
    NAME "cannabis-infused gummies"
    PEAKCOL 16576
    BEAT -1
    AUTOMODE 0
    VOLPAN 1 0 -1 -1 1
    MUTESOLO 1 0 0
    IPHASE 0
    PLAYOFFS 0 1
    ISBUS 0 0
    BUSCOMP 0 0 0 0 0
    SHOWINMIX 1 0.6667 0.5 1 0.5 0 -1 0
    FREEMODE 0
    SEL 0
    REC 0 0 1 0 0 0 0
    VU 2
    TRACKHEIGHT 0 0 0 0 -1 0
    INQ 0 0 0 0.5 100 0 0 100
    NCHAN 2
    FX 1
    TRACKID {6F67B2DD-F203-4F47-9852-8CD172DB6BE8}
    PERF 0
    MIDIOUT -1
    MAINSEND 1 0
    <FXCHAIN
      SHOW 0
      LASTSEL 0
      DOCKED 0
      BYPASS 0 0 0
      <VST "VSTi: FM8 (Native Instruments GmbH)" FM8.vst 0 "" 1315530296<5653544E696638666D38000000000000> ""
        OGZpTu5e7f4AAAAAAgAAAAEAAAAAAAAAAgAAAAAAAAAYBwAAAQAAAAAAEAA=
        GAcAAAAAAAABAAAAaHNpbgEAAAAAAAAAN455D8DDx0mHoN4j0l/0WZYAAAAAAAAARFNJTnYAAAABAAAASAAAAAAAAABEU0lOagAAAAEAAAAYAAAAAAAAAERTSU4BAAAA
        AQAAAAEAAAABAAAAAQAAAAEAAAAAAAAAAAAAAAAAAAANYmWFAQAAAAhwEAAAAAAAAQAAAAEAAAAAAAAAAAAAAAAAAAADAAAAMAAwADAAAAAAAAAAAAAAAAAAAAAAAAEA
        AAABAAAAAAAAAERTSU5lAAAARgYAAAAAAAABAAAAaHNpbgEAAAAAAAAAMOH4NwAUwEaoogAOyNUgkW0AAAAAAAAARFNJTmUAAAABAAAANAAAAAAAAABEU0lOagAAAAEA
        AAAYAAAAAAAAAERTSU4BAAAAAQAAAAEAAAABAAAAAgAAAAEAAAAACAAAAAEAAAAKAAAAMQAuADIALgAwAC4AMQAwADEAMAABAAAAAwAAAAAAAABEU0lObAAAAKgBAAAA
        AAAAAQAAAGhzaW4BAAAAAAAAACA7190CLVtKvWPIjKqbw/t4AQAAAAAAAERTSU5sAAAAAQAAABgAAAAAAAAARFNJTgEAAAABAAAAAQAAAAEAAAACAAAAAQAAAAAAAAAI
        AAAATgBlAHcAUwBvAHUAbgBkAAcAAABuAG8AdAAgAHMAZQB0AAAAAAAAAAAAAAAAAAAAAAAAAAAAAAAAAAAAAAAAAAAAAAAAAAEAAAABAAAAAQAAAAMAAABGAE0AOAAA
        AAAAAAAAAAcAAAAHAAAAXABAAGMAbwBsAG8AcgABAAAAMAARAAAAXABAAGQAZQB2AGkAYwBlAHQAeQBwAGUAZgBsAGEAZwBzAAEAAAAxAAsAAABcAEAAcwBvAHUAbgBk
        AHQAeQBwAGUAAQAAADAABwAAAFwAQAB0AGUAbQBwAG8AAQAAADAABgAAAFwAQAB2AGUAcgBsAAUAAAAxAC4ANwAuADgABgAAAFwAQAB2AGUAcgBtAAUAAAAxAC4ANwAu
        ADgABwAAAFwAQAB2AGkAcwBpAGIAAQAAADAAAQAAAAAAAAACAAAARFNJTnkAAABoAAAAAAAAAAEAAABoc2luAQAAAAAAAABG64vCmumHRIQ9Mih2ujahOAAAAAAAAABE
        U0lOeQAAAAEAAAAYAAAAAAAAAERTSU4BAAAAAQAAAAEAAAABAAAAAQAAAAAAAAABAAAAAAAAAAEAAABEU0lOdAAAAHUDAAAAAAAAAQAAAGhzaW4BAAAAAAAAAMPiDYJz
        LJxOuWtBgMMVvqRFAwAAAAAAAERTSU50AAAAAQAAACwDAAAAAAAARFNJTnMAAAABAAAAGAAAAAAAAABEU0lOAQAAAAEAAAABAAAAAQAAAAG9DwAA8wIAAAK9DwBgAAAB
        IAUDaHNpbkAHQAAQHyRrBvAZSEqYrqFXTcEPPBhAFCAAA0RTSU5AI+AHA0AAQBsAbSAIAWkPIAQgAEAj4ANTEEkCYzKs2sVGp2B2wrYRj5w5oCfAN0Av4BdnQCMB8Q4g
        XCAAAAUgAwFjDCAEIAAIdHNycEU4TUbPIAsEvCMAAAcgBwZkZWZhdWx04BgKICoAP+ACAwNBAACAIA8AoCAH4AsAAPAgF0AfwAAAICAPwABgFwVAAABIQgDgBABAD0AD
        4BcfYAAge+AEA0AAwBPgAwBAE+AAAAPNzMw+IAwDP5qZGUAXwAPgABcgCuAHG0ATQADgBwdAACATYKtAACALYANAAEALQAAg42AAwA9AB0AD4AMAwA9AB0ADwABAC8AD
        QADAC8AHQADgAwtAAEAP4AMAIA/Bn8AHAMjhDnPgHwDgAO/gDgBAX0ADwABBz8H7QAtAAwCgIINAB0AAALQgCwCWIAPgAwDAP0AHQAPAAEAz4MdLIAAAAcAAIAuAAAAC
        wACADuAdAOAALAD+4B0v4CEAABTgISrgMADBA+AKAGBTgAXgAABChuAXA+AeAOD9WSBZIkBBUgH6Q0AH4FUMQ9VAZwH6Q6BnBYA/zLyMK+BVDOABACBnBAA/ZmZmYAPg
        YwwgAABwJOwB/kJAdCAA4D4MosLgAFaAAKBjgADgOAwgYwRwwgAAhmC6JliAA0BW4EEMIGPgAE3g8AAAUCAA4Of8AP/gFwAABEERCggyAwAAQDIAAAA8QikgAwHwQmLY
        AAEgAYLiIAcgAkKVgAagCSA3oAkgSKAJKxegCQAG4AAJKwSgEyAAoAmASKAGoBPgwk/gSwAAEaBUA2tuYWJBMcAAAYAAIAAAGaARA2N0bmlMiwERJ2FcTFBAAEocAaBC
        4hMPTInAH00bwAvg/QDgvQABIACAAANzaXVnQiQA6CNxwAAAKiAIABkgAyOYYAAj0mAAB2dwdGNZVE1FQAwLDWJlhQEAAAAAAAAAAQAAAAABAAAAAAAAAA==
        ADxkaXNhYmxlZD4AEAAAAA==
      >
      PRESETNAME <disabled>
      FLOATPOS 0 0 0 0
      FXID {715C6EB3-06A6-5346-B0A2-AD849854C453}
      WAK 0 0
    >
    <ITEM
      POSITION 0
      SNAPOFFS 0
      LENGTH 121.224312
      LOOP 1
      ALLTAKES 0
      FADEIN 1 0 0 1 0 0
      FADEOUT 1 0 0 1 0 0
      MUTE 0 0
      SEL 0
      IGUID {A9EC1419-46B0-0942-A398-7ACCDAD25A71}
      IID 7
      NAME "cannabis-infused gummies.mid"
      VOLPAN 1 0 1 -1
      SOFFS 0 0
      PLAYRATE 1 1 0 -1 0 0.0025
      CHANMODE 0
      GUID {B7D62A71-084D-1C4C-A2F9-A97A4EEB264C}
      <SOURCE MIDI
        HASDATA 1 128 QN
        CCINTERP 32
        POOLEDEVTS {ECDF5B3C-C8AB-5A4F-898B-4BEC7297249C}
        E 0 96 35 73
        E 1024 86 35 73
        E 0 96 40 73
        E 640 86 40 73
        E 0 96 3a 73
        E 256 86 3a 73
        E 0 96 35 73
        E 1024 86 35 73
        E 0 96 40 73
        E 896 86 40 73
        E 0 96 3e 73
        E 384 86 3e 73
        E 0 96 37 73
        E 0 96 35 73
        E 1024 86 35 73
        E 0 96 40 73
        E 640 86 40 73
        E 0 96 3a 73
        E 256 86 3a 73
        E 0 96 35 73
        E 1024 86 35 73
        E 0 96 40 73
        E 896 86 40 73
        E 0 96 3e 73
        E 384 86 3e 73
        E 0 96 37 73
        E 0 96 35 73
        E 1024 86 35 73
        E 0 96 40 73
        E 640 86 40 73
        E 0 96 3a 73
        E 256 86 3a 73
        E 0 96 35 73
        E 1024 86 35 73
        E 0 96 40 73
        E 896 86 40 73
        E 0 96 3e 73
        E 384 86 3e 73
        E 0 96 37 73
        E 0 96 35 73
        E 1024 86 35 73
        E 0 96 40 73
        E 640 86 40 73
        E 0 96 3a 73
        E 256 86 3a 73
        E 0 96 35 73
        E 1024 86 35 73
        E 0 96 40 73
        E 896 86 40 73
        E 0 96 3e 73
        E 384 86 3e 73
        E 0 96 37 73
        E 0 96 35 73
        E 1024 86 35 73
        E 0 96 40 73
        E 640 86 40 73
        E 0 96 3a 73
        E 256 86 3a 73
        E 0 96 35 73
        E 1024 86 35 73
        E 0 96 40 73
        E 896 86 40 73
        E 0 96 3e 73
        E 384 86 3e 73
        E 0 96 37 73
        E 0 96 35 73
        E 1024 86 35 73
        E 0 96 40 73
        E 640 86 40 73
        E 0 96 3a 73
        E 256 86 3a 73
        E 0 96 35 73
        E 1024 86 35 73
        E 0 96 40 73
        E 896 86 40 73
        E 0 96 3e 73
        E 383 86 3e 73
        E 0 96 37 73
        E 1 b0 7b 00
        CCINTERP 32
        CHASE_CC_TAKEOFFS 1
        GUID {3000B50A-A95F-3448-8AD9-37EC0B30E486}
        IGNTEMPO 0 120 4 4
        SRCCOLOR 63
        VELLANE 3 601 0
        VELLANE -1 196 0
      >
    >
  >
  <TRACK {5E9BCA09-4B7D-6840-AF76-4549B0EA7DD4}
    NAME "cannabis-infused gummies"
    PEAKCOL 16576
    BEAT -1
    AUTOMODE 0
    VOLPAN 1 0 -1 -1 1
    MUTESOLO 1 0 0
    IPHASE 0
    PLAYOFFS 0 1
    ISBUS 0 0
    BUSCOMP 0 0 0 0 0
    SHOWINMIX 1 0.6667 0.5 1 0.5 0 -1 0
    FREEMODE 0
    SEL 0
    REC 0 0 1 0 0 0 0
    VU 2
    TRACKHEIGHT 0 0 0 0 -1 0
    INQ 0 0 0 0.5 100 0 0 100
    NCHAN 2
    FX 1
    TRACKID {5E9BCA09-4B7D-6840-AF76-4549B0EA7DD4}
    PERF 0
    MIDIOUT -1
    MAINSEND 1 0
    <FXCHAIN
      SHOW 0
      LASTSEL 0
      DOCKED 0
      BYPASS 0 0 0
      <VST "VSTi: FM8 (Native Instruments GmbH)" FM8.vst 0 "" 1315530296<5653544E696638666D38000000000000> ""
        OGZpTu5e7f4AAAAAAgAAAAEAAAAAAAAAAgAAAAAAAAAYBwAAAQAAAAAAEAA=
        GAcAAAAAAAABAAAAaHNpbgEAAAAAAAAAN455D8DDx0mHoN4j0l/0WZYAAAAAAAAARFNJTnYAAAABAAAASAAAAAAAAABEU0lOagAAAAEAAAAYAAAAAAAAAERTSU4BAAAA
        AQAAAAEAAAABAAAAAQAAAAEAAAAAAAAAAAAAAAAAAAANYmWFAQAAAAhwEAAAAAAAAQAAAAEAAAAAAAAAAAAAAAAAAAADAAAAMAAwADAAAAAAAAAAAAAAAAAAAAAAAAEA
        AAABAAAAAAAAAERTSU5lAAAARgYAAAAAAAABAAAAaHNpbgEAAAAAAAAAMOH4NwAUwEaoogAOyNUgkW0AAAAAAAAARFNJTmUAAAABAAAANAAAAAAAAABEU0lOagAAAAEA
        AAAYAAAAAAAAAERTSU4BAAAAAQAAAAEAAAABAAAAAgAAAAEAAAAACAAAAAEAAAAKAAAAMQAuADIALgAwAC4AMQAwADEAMAABAAAAAwAAAAAAAABEU0lObAAAAKgBAAAA
        AAAAAQAAAGhzaW4BAAAAAAAAACA7190CLVtKvWPIjKqbw/t4AQAAAAAAAERTSU5sAAAAAQAAABgAAAAAAAAARFNJTgEAAAABAAAAAQAAAAEAAAACAAAAAQAAAAAAAAAI
        AAAATgBlAHcAUwBvAHUAbgBkAAcAAABuAG8AdAAgAHMAZQB0AAAAAAAAAAAAAAAAAAAAAAAAAAAAAAAAAAAAAAAAAAAAAAAAAAEAAAABAAAAAQAAAAMAAABGAE0AOAAA
        AAAAAAAAAAcAAAAHAAAAXABAAGMAbwBsAG8AcgABAAAAMAARAAAAXABAAGQAZQB2AGkAYwBlAHQAeQBwAGUAZgBsAGEAZwBzAAEAAAAxAAsAAABcAEAAcwBvAHUAbgBk
        AHQAeQBwAGUAAQAAADAABwAAAFwAQAB0AGUAbQBwAG8AAQAAADAABgAAAFwAQAB2AGUAcgBsAAUAAAAxAC4ANwAuADgABgAAAFwAQAB2AGUAcgBtAAUAAAAxAC4ANwAu
        ADgABwAAAFwAQAB2AGkAcwBpAGIAAQAAADAAAQAAAAAAAAACAAAARFNJTnkAAABoAAAAAAAAAAEAAABoc2luAQAAAAAAAABG64vCmumHRIQ9Mih2ujahOAAAAAAAAABE
        U0lOeQAAAAEAAAAYAAAAAAAAAERTSU4BAAAAAQAAAAEAAAABAAAAAQAAAAAAAAABAAAAAAAAAAEAAABEU0lOdAAAAHUDAAAAAAAAAQAAAGhzaW4BAAAAAAAAAMPiDYJz
        LJxOuWtBgMMVvqRFAwAAAAAAAERTSU50AAAAAQAAACwDAAAAAAAARFNJTnMAAAABAAAAGAAAAAAAAABEU0lOAQAAAAEAAAABAAAAAQAAAAG9DwAA8wIAAAK9DwBgAAAB
        IAUDaHNpbkAHQAAQHyRrBvAZSEqYrqFXTcEPPBhAFCAAA0RTSU5AI+AHA0AAQBsAbSAIAWkPIAQgAEAj4ANTEEkCYzKs2sVGp2B2wrYRj5w5oCfAN0Av4BdnQCMB8Q4g
        XCAAAAUgAwFjDCAEIAAIdHNycEU4TUbPIAsEvCMAAAcgBwZkZWZhdWx04BgKICoAP+ACAwNBAACAIA8AoCAH4AsAAPAgF0AfwAAAICAPwABgFwVAAABIQgDgBABAD0AD
        4BcfYAAge+AEA0AAwBPgAwBAE+AAAAPNzMw+IAwDP5qZGUAXwAPgABcgCuAHG0ATQADgBwdAACATYKtAACALYANAAEALQAAg42AAwA9AB0AD4AMAwA9AB0ADwABAC8AD
        QADAC8AHQADgAwtAAEAP4AMAIA/Bn8AHAMjhDnPgHwDgAO/gDgBAX0ADwABBz8H7QAtAAwCgIINAB0AAALQgCwCWIAPgAwDAP0AHQAPAAEAz4MdLIAAAAcAAIAuAAAAC
        wACADuAdAOAALAD+4B0v4CEAABTgISrgMADBA+AKAGBTgAXgAABChuAXA+AeAOD9WSBZIkBBUgH6Q0AH4FUMQ9VAZwH6Q6BnBYA/zLyMK+BVDOABACBnBAA/ZmZmYAPg
        YwwgAABwJOwB/kJAdCAA4D4MosLgAFaAAKBjgADgOAwgYwRwwgAAhmC6JliAA0BW4EEMIGPgAE3g8AAAUCAA4Of8AP/gFwAABEERCggyAwAAQDIAAAA8QikgAwHwQmLY
        AAEgAYLiIAcgAkKVgAagCSA3oAkgSKAJKxegCQAG4AAJKwSgEyAAoAmASKAGoBPgwk/gSwAAEaBUA2tuYWJBMcAAAYAAIAAAGaARA2N0bmlMiwERJ2FcTFBAAEocAaBC
        4hMPTInAH00bwAvg/QDgvQABIACAAANzaXVnQiQA6CNxwAAAKiAIABkgAyOYYAAj0mAAB2dwdGNZVE1FQAwLDWJlhQEAAAAAAAAAAQAAAAABAAAAAAAAAA==
        ADxkaXNhYmxlZD4AEAAAAA==
      >
      PRESETNAME <disabled>
      FLOATPOS 0 0 0 0
      FXID {8BC6F8CB-7FC6-2444-8F20-5F66D7EE6140}
      WAK 0 0
    >
    <ITEM
      POSITION 0
      SNAPOFFS 0
      LENGTH 383.876988
      LOOP 1
      ALLTAKES 0
      FADEIN 1 0 0 1 0 0
      FADEOUT 1 0 0 1 0 0
      MUTE 0 0
      SEL 0
      IGUID {63B2DD72-38BB-E54D-A6AF-71778303E7B9}
      IID 8
      NAME "cannabis-infused gummies.mid"
      VOLPAN 1 0 1 -1
      SOFFS 0 0
      PLAYRATE 1 1 0 -1 0 0.0025
      CHANMODE 0
      GUID {CAC5CE67-0656-3148-A06D-8207EECAA815}
      <SOURCE MIDI
        HASDATA 1 128 QN
        CCINTERP 32
        POOLEDEVTS {1599317C-16BE-3A44-80C1-7DD497C7A47B}
        E 0 97 30 73
        E 99 87 30 73
        E 0 97 3e 73
        E 28 87 3e 73
        E 0 97 35 73
        E 113 87 35 73
        E 0 97 40 73
        E 71 87 40 73
        E 0 97 3a 73
        E 28 87 3a 73
        E 0 97 35 73
        E 113 87 35 73
        E 0 97 40 73
        E 99 87 40 73
        E 0 97 3e 73
        E 42 87 3e 73
        E 0 97 30 73
        E 99 87 30 73
        E 0 97 3e 73
        E 28 87 3e 73
        E 0 97 35 73
        E 113 87 35 73
        E 0 97 40 73
        E 71 87 40 73
        E 0 97 3a 73
        E 28 87 3a 73
        E 0 97 35 73
        E 113 87 35 73
        E 0 97 40 73
        E 99 87 40 73
        E 0 97 3e 73
        E 42 87 3e 73
        E 0 97 30 73
        E 99 87 30 73
        E 0 97 3e 73
        E 28 87 3e 73
        E 0 97 35 73
        E 113 87 35 73
        E 0 97 40 73
        E 71 87 40 73
        E 0 97 3a 73
        E 28 87 3a 73
        E 0 97 35 73
        E 113 87 35 73
        E 0 97 40 73
        E 99 87 40 73
        E 0 97 3e 73
        E 42 87 3e 73
        E 0 97 30 73
        E 99 87 30 73
        E 0 97 3e 73
        E 28 87 3e 73
        E 0 97 35 73
        E 113 87 35 73
        E 0 97 40 73
        E 71 87 40 73
        E 0 97 3a 73
        E 28 87 3a 73
        E 0 97 35 73
        E 113 87 35 73
        E 0 97 40 73
        E 99 87 40 73
        E 0 97 3e 73
        E 42 87 3e 73
        E 0 97 30 73
        E 99 87 30 73
        E 0 97 3e 73
        E 28 87 3e 73
        E 0 97 35 73
        E 113 87 35 73
        E 0 97 40 73
        E 71 87 40 73
        E 0 97 3a 73
        E 28 87 3a 73
        E 0 97 35 73
        E 113 87 35 73
        E 0 97 40 73
        E 99 87 40 73
        E 0 97 3e 73
        E 42 87 3e 73
        E 0 97 30 73
        E 99 87 30 73
        E 0 97 3e 73
        E 28 87 3e 73
        E 0 97 35 73
        E 113 87 35 73
        E 0 97 40 73
        E 71 87 40 73
        E 0 97 3a 73
        E 28 87 3a 73
        E 0 97 35 73
        E 113 87 35 73
        E 0 97 40 73
        E 99 87 40 73
        E 0 97 3e 73
        E 42 87 3e 73
        E 0 97 30 73
        E 99 87 30 73
        E 0 97 3e 73
        E 28 87 3e 73
        E 0 97 35 73
        E 113 87 35 73
        E 0 97 40 73
        E 71 87 40 73
        E 0 97 3a 73
        E 28 87 3a 73
        E 0 97 35 73
        E 113 87 35 73
        E 0 97 40 73
        E 99 87 40 73
        E 0 97 3e 73
        E 42 87 3e 73
        E 0 97 30 73
        E 99 87 30 73
        E 0 97 3e 73
        E 28 87 3e 73
        E 0 97 35 73
        E 113 87 35 73
        E 0 97 40 73
        E 71 87 40 73
        E 0 97 3a 73
        E 28 87 3a 73
        E 0 97 35 73
        E 113 87 35 73
        E 0 97 40 73
        E 99 87 40 73
        E 0 97 3e 73
        E 42 87 3e 73
        E 0 97 30 73
        E 99 87 30 73
        E 0 97 3e 73
        E 28 87 3e 73
        E 0 97 35 73
        E 113 87 35 73
        E 0 97 40 73
        E 71 87 40 73
        E 0 97 3a 73
        E 28 87 3a 73
        E 0 97 35 73
        E 113 87 35 73
        E 0 97 40 73
        E 99 87 40 73
        E 0 97 3e 73
        E 42 87 3e 73
        E 0 97 30 73
        E 99 87 30 73
        E 0 97 3e 73
        E 28 87 3e 73
        E 0 97 35 73
        E 113 87 35 73
        E 0 97 40 73
        E 71 87 40 73
        E 0 97 3a 73
        E 28 87 3a 73
        E 0 97 35 73
        E 113 87 35 73
        E 0 97 40 73
        E 99 87 40 73
        E 0 97 3e 73
        E 42 87 3e 73
        E 0 97 30 73
        E 99 87 30 73
        E 0 97 3e 73
        E 28 87 3e 73
        E 0 97 35 73
        E 113 87 35 73
        E 0 97 40 73
        E 71 87 40 73
        E 0 97 3a 73
        E 28 87 3a 73
        E 0 97 35 73
        E 113 87 35 73
        E 0 97 40 73
        E 99 87 40 73
        E 0 97 3e 73
        E 42 87 3e 73
        E 0 97 30 73
        E 99 87 30 73
        E 0 97 3e 73
        E 28 87 3e 73
        E 0 97 35 73
        E 113 87 35 73
        E 0 97 40 73
        E 71 87 40 73
        E 0 97 3a 73
        E 28 87 3a 73
        E 0 97 35 73
        E 113 87 35 73
        E 0 97 40 73
        E 99 87 40 73
        E 0 97 3e 73
        E 42 87 3e 73
        E 0 97 30 73
        E 99 87 30 73
        E 0 97 3e 73
        E 28 87 3e 73
        E 0 97 35 73
        E 113 87 35 73
        E 0 97 40 73
        E 71 87 40 73
        E 0 97 3a 73
        E 28 87 3a 73
        E 0 97 35 73
        E 113 87 35 73
        E 0 97 40 73
        E 99 87 40 73
        E 0 97 3e 73
        E 42 87 3e 73
        E 0 97 30 73
        E 99 87 30 73
        E 0 97 3e 73
        E 28 87 3e 73
        E 0 97 35 73
        E 113 87 35 73
        E 0 97 40 73
        E 71 87 40 73
        E 0 97 3a 73
        E 28 87 3a 73
        E 0 97 35 73
        E 113 87 35 73
        E 0 97 40 73
        E 99 87 40 73
        E 0 97 3e 73
        E 42 87 3e 73
        E 0 97 30 73
        E 99 87 30 73
        E 0 97 3e 73
        E 28 87 3e 73
        E 0 97 35 73
        E 113 87 35 73
        E 0 97 40 73
        E 71 87 40 73
        E 0 97 3a 73
        E 28 87 3a 73
        E 0 97 35 73
        E 113 87 35 73
        E 0 97 40 73
        E 99 87 40 73
        E 0 97 3e 73
        E 42 87 3e 73
        E 0 97 30 73
        E 99 87 30 73
        E 0 97 3e 73
        E 28 87 3e 73
        E 0 97 35 73
        E 113 87 35 73
        E 0 97 40 73
        E 71 87 40 73
        E 0 97 3a 73
        E 28 87 3a 73
        E 0 97 35 73
        E 113 87 35 73
        E 0 97 40 73
        E 99 87 40 73
        E 0 97 3e 73
        E 42 87 3e 73
        E 0 97 30 73
        E 99 87 30 73
        E 0 97 3e 73
        E 28 87 3e 73
        E 0 97 35 73
        E 113 87 35 73
        E 0 97 40 73
        E 71 87 40 73
        E 0 97 3a 73
        E 28 87 3a 73
        E 0 97 35 73
        E 113 87 35 73
        E 0 97 40 73
        E 99 87 40 73
        E 0 97 3e 73
        E 42 87 3e 73
        E 0 97 30 73
        E 99 87 30 73
        E 0 97 3e 73
        E 28 87 3e 73
        E 0 97 35 73
        E 113 87 35 73
        E 0 97 40 73
        E 71 87 40 73
        E 0 97 3a 73
        E 28 87 3a 73
        E 0 97 35 73
        E 113 87 35 73
        E 0 97 40 73
        E 99 87 40 73
        E 0 97 3e 73
        E 42 87 3e 73
        E 0 97 30 73
        E 99 87 30 73
        E 0 97 3e 73
        E 28 87 3e 73
        E 0 97 35 73
        E 113 87 35 73
        E 0 97 40 73
        E 71 87 40 73
        E 0 97 3a 73
        E 28 87 3a 73
        E 0 97 35 73
        E 113 87 35 73
        E 0 97 40 73
        E 99 87 40 73
        E 0 97 3e 73
        E 42 87 3e 73
        E 0 97 30 73
        E 99 87 30 73
        E 0 97 3e 73
        E 28 87 3e 73
        E 0 97 35 73
        E 113 87 35 73
        E 0 97 40 73
        E 71 87 40 73
        E 0 97 3a 73
        E 28 87 3a 73
        E 0 97 35 73
        E 113 87 35 73
        E 0 97 40 73
        E 99 87 40 73
        E 0 97 3e 73
        E 42 87 3e 73
        E 0 97 30 73
        E 99 87 30 73
        E 0 97 3e 73
        E 28 87 3e 73
        E 0 97 35 73
        E 113 87 35 73
        E 0 97 40 73
        E 71 87 40 73
        E 0 97 3a 73
        E 28 87 3a 73
        E 0 97 35 73
        E 113 87 35 73
        E 0 97 40 73
        E 99 87 40 73
        E 0 97 3e 73
        E 42 87 3e 73
        E 0 97 30 73
        E 99 87 30 73
        E 0 97 3e 73
        E 28 87 3e 73
        E 0 97 35 73
        E 113 87 35 73
        E 0 97 40 73
        E 71 87 40 73
        E 0 97 3a 73
        E 28 87 3a 73
        E 0 97 35 73
        E 113 87 35 73
        E 0 97 40 73
        E 99 87 40 73
        E 0 97 3e 73
        E 42 87 3e 73
        E 0 97 30 73
        E 99 87 30 73
        E 0 97 3e 73
        E 28 87 3e 73
        E 0 97 35 73
        E 113 87 35 73
        E 0 97 40 73
        E 71 87 40 73
        E 0 97 3a 73
        E 28 87 3a 73
        E 0 97 35 73
        E 113 87 35 73
        E 0 97 40 73
        E 99 87 40 73
        E 0 97 3e 73
        E 42 87 3e 73
        E 0 97 30 73
        E 99 87 30 73
        E 0 97 3e 73
        E 28 87 3e 73
        E 0 97 35 73
        E 113 87 35 73
        E 0 97 40 73
        E 71 87 40 73
        E 0 97 3a 73
        E 28 87 3a 73
        E 0 97 35 73
        E 113 87 35 73
        E 0 97 40 73
        E 99 87 40 73
        E 0 97 3e 73
        E 42 87 3e 73
        E 0 97 30 73
        E 99 87 30 73
        E 0 97 3e 73
        E 28 87 3e 73
        E 0 97 35 73
        E 113 87 35 73
        E 0 97 40 73
        E 71 87 40 73
        E 0 97 3a 73
        E 28 87 3a 73
        E 0 97 35 73
        E 113 87 35 73
        E 0 97 40 73
        E 99 87 40 73
        E 0 97 3e 73
        E 42 87 3e 73
        E 0 97 30 73
        E 99 87 30 73
        E 0 97 3e 73
        E 28 87 3e 73
        E 0 97 35 73
        E 113 87 35 73
        E 0 97 40 73
        E 71 87 40 73
        E 0 97 3a 73
        E 28 87 3a 73
        E 0 97 35 73
        E 113 87 35 73
        E 0 97 40 73
        E 99 87 40 73
        E 0 97 3e 73
        E 42 87 3e 73
        E 0 97 30 73
        E 99 87 30 73
        E 0 97 3e 73
        E 28 87 3e 73
        E 0 97 35 73
        E 113 87 35 73
        E 0 97 40 73
        E 71 87 40 73
        E 0 97 3a 73
        E 28 87 3a 73
        E 0 97 35 73
        E 113 87 35 73
        E 0 97 40 73
        E 99 87 40 73
        E 0 97 3e 73
        E 42 87 3e 73
        E 0 97 30 73
        E 99 87 30 73
        E 0 97 3e 73
        E 28 87 3e 73
        E 0 97 35 73
        E 113 87 35 73
        E 0 97 40 73
        E 71 87 40 73
        E 0 97 3a 73
        E 28 87 3a 73
        E 0 97 35 73
        E 113 87 35 73
        E 0 97 40 73
        E 99 87 40 73
        E 0 97 3e 73
        E 42 87 3e 73
        E 0 97 30 73
        E 99 87 30 73
        E 0 97 3e 73
        E 28 87 3e 73
        E 0 97 35 73
        E 113 87 35 73
        E 0 97 40 73
        E 71 87 40 73
        E 0 97 3a 73
        E 28 87 3a 73
        E 0 97 35 73
        E 113 87 35 73
        E 0 97 40 73
        E 99 87 40 73
        E 0 97 3e 73
        E 42 87 3e 73
        E 0 97 30 73
        E 99 87 30 73
        E 0 97 3e 73
        E 28 87 3e 73
        E 0 97 35 73
        E 113 87 35 73
        E 0 97 40 73
        E 71 87 40 73
        E 0 97 3a 73
        E 28 87 3a 73
        E 0 97 35 73
        E 113 87 35 73
        E 0 97 40 73
        E 99 87 40 73
        E 0 97 3e 73
        E 42 87 3e 73
        E 0 97 30 73
        E 99 87 30 73
        E 0 97 3e 73
        E 28 87 3e 73
        E 0 97 35 73
        E 113 87 35 73
        E 0 97 40 73
        E 71 87 40 73
        E 0 97 3a 73
        E 28 87 3a 73
        E 0 97 35 73
        E 113 87 35 73
        E 0 97 40 73
        E 99 87 40 73
        E 0 97 3e 73
        E 42 87 3e 73
        E 0 97 30 73
        E 99 87 30 73
        E 0 97 3e 73
        E 28 87 3e 73
        E 0 97 35 73
        E 113 87 35 73
        E 0 97 40 73
        E 71 87 40 73
        E 0 97 3a 73
        E 28 87 3a 73
        E 0 97 35 73
        E 113 87 35 73
        E 0 97 40 73
        E 99 87 40 73
        E 0 97 3e 73
        E 42 87 3e 73
        E 0 97 30 73
        E 99 87 30 73
        E 0 97 3e 73
        E 28 87 3e 73
        E 0 97 35 73
        E 113 87 35 73
        E 0 97 40 73
        E 71 87 40 73
        E 0 97 3a 73
        E 28 87 3a 73
        E 0 97 35 73
        E 113 87 35 73
        E 0 97 40 73
        E 99 87 40 73
        E 0 97 3e 73
        E 42 87 3e 73
        E 0 97 30 73
        E 99 87 30 73
        E 0 97 3e 73
        E 28 87 3e 73
        E 0 97 35 73
        E 113 87 35 73
        E 0 97 40 73
        E 71 87 40 73
        E 0 97 3a 73
        E 28 87 3a 73
        E 0 97 35 73
        E 113 87 35 73
        E 0 97 40 73
        E 99 87 40 73
        E 0 97 3e 73
        E 42 87 3e 73
        E 0 97 30 73
        E 99 87 30 73
        E 0 97 3e 73
        E 28 87 3e 73
        E 0 97 35 73
        E 113 87 35 73
        E 0 97 40 73
        E 71 87 40 73
        E 0 97 3a 73
        E 28 87 3a 73
        E 0 97 35 73
        E 113 87 35 73
        E 0 97 40 73
        E 99 87 40 73
        E 0 97 3e 73
        E 42 87 3e 73
        E 0 97 30 73
        E 99 87 30 73
        E 0 97 3e 73
        E 28 87 3e 73
        E 0 97 35 73
        E 113 87 35 73
        E 0 97 40 73
        E 71 87 40 73
        E 0 97 3a 73
        E 28 87 3a 73
        E 0 97 35 73
        E 113 87 35 73
        E 0 97 40 73
        E 99 87 40 73
        E 0 97 3e 73
        E 42 87 3e 73
        E 0 97 30 73
        E 99 87 30 73
        E 0 97 3e 73
        E 28 87 3e 73
        E 0 97 35 73
        E 113 87 35 73
        E 0 97 40 73
        E 71 87 40 73
        E 0 97 3a 73
        E 28 87 3a 73
        E 0 97 35 73
        E 113 87 35 73
        E 0 97 40 73
        E 99 87 40 73
        E 0 97 3e 73
        E 42 87 3e 73
        E 0 97 30 73
        E 99 87 30 73
        E 0 97 3e 73
        E 28 87 3e 73
        E 0 97 35 73
        E 113 87 35 73
        E 0 97 40 73
        E 71 87 40 73
        E 0 97 3a 73
        E 28 87 3a 73
        E 0 97 35 73
        E 113 87 35 73
        E 0 97 40 73
        E 99 87 40 73
        E 0 97 3e 73
        E 42 87 3e 73
        E 0 97 30 73
        E 99 87 30 73
        E 0 97 3e 73
        E 28 87 3e 73
        E 0 97 35 73
        E 113 87 35 73
        E 0 97 40 73
        E 71 87 40 73
        E 0 97 3a 73
        E 28 87 3a 73
        E 0 97 35 73
        E 113 87 35 73
        E 0 97 40 73
        E 99 87 40 73
        E 0 97 3e 73
        E 42 87 3e 73
        E 0 97 30 73
        E 99 87 30 73
        E 0 97 3e 73
        E 28 87 3e 73
        E 0 97 35 73
        E 113 87 35 73
        E 0 97 40 73
        E 71 87 40 73
        E 0 97 3a 73
        E 28 87 3a 73
        E 0 97 35 73
        E 113 87 35 73
        E 0 97 40 73
        E 99 87 40 73
        E 0 97 3e 73
        E 42 87 3e 73
        E 0 97 30 73
        E 99 87 30 73
        E 0 97 3e 73
        E 28 87 3e 73
        E 0 97 35 73
        E 113 87 35 73
        E 0 97 40 73
        E 71 87 40 73
        E 0 97 3a 73
        E 28 87 3a 73
        E 0 97 35 73
        E 113 87 35 73
        E 0 97 40 73
        E 99 87 40 73
        E 0 97 3e 73
        E 42 87 3e 73
        E 0 97 30 73
        E 99 87 30 73
        E 0 97 3e 73
        E 28 87 3e 73
        E 0 97 35 73
        E 113 87 35 73
        E 0 97 40 73
        E 71 87 40 73
        E 0 97 3a 73
        E 28 87 3a 73
        E 0 97 35 73
        E 113 87 35 73
        E 0 97 40 73
        E 99 87 40 73
        E 0 97 3e 73
        E 42 87 3e 73
        E 0 97 30 73
        E 99 87 30 73
        E 0 97 3e 73
        E 28 87 3e 73
        E 0 97 35 73
        E 113 87 35 73
        E 0 97 40 73
        E 71 87 40 73
        E 0 97 3a 73
        E 28 87 3a 73
        E 0 97 35 73
        E 113 87 35 73
        E 0 97 40 73
        E 99 87 40 73
        E 0 97 3e 73
        E 42 87 3e 73
        E 0 97 30 73
        E 99 87 30 73
        E 0 97 3e 73
        E 28 87 3e 73
        E 0 97 35 73
        E 113 87 35 73
        E 0 97 40 73
        E 71 87 40 73
        E 0 97 3a 73
        E 28 87 3a 73
        E 0 97 35 73
        E 113 87 35 73
        E 0 97 40 73
        E 99 87 40 73
        E 0 97 3e 73
        E 42 87 3e 73
        E 0 97 30 73
        E 99 87 30 73
        E 0 97 3e 73
        E 28 87 3e 73
        E 0 97 35 73
        E 113 87 35 73
        E 0 97 40 73
        E 71 87 40 73
        E 0 97 3a 73
        E 28 87 3a 73
        E 0 97 35 73
        E 113 87 35 73
        E 0 97 40 73
        E 99 87 40 73
        E 0 97 3e 73
        E 42 87 3e 73
        E 0 97 30 73
        E 99 87 30 73
        E 0 97 3e 73
        E 28 87 3e 73
        E 0 97 35 73
        E 113 87 35 73
        E 0 97 40 73
        E 71 87 40 73
        E 0 97 3a 73
        E 28 87 3a 73
        E 0 97 35 73
        E 113 87 35 73
        E 0 97 40 73
        E 99 87 40 73
        E 0 97 3e 73
        E 42 87 3e 73
        E 0 97 30 73
        E 99 87 30 73
        E 0 97 3e 73
        E 28 87 3e 73
        E 0 97 35 73
        E 113 87 35 73
        E 0 97 40 73
        E 71 87 40 73
        E 0 97 3a 73
        E 28 87 3a 73
        E 0 97 35 73
        E 113 87 35 73
        E 0 97 40 73
        E 99 87 40 73
        E 0 97 3e 73
        E 42 87 3e 73
        E 0 97 30 73
        E 99 87 30 73
        E 0 97 3e 73
        E 28 87 3e 73
        E 0 97 35 73
        E 113 87 35 73
        E 0 97 40 73
        E 71 87 40 73
        E 0 97 3a 73
        E 28 87 3a 73
        E 0 97 35 73
        E 113 87 35 73
        E 0 97 40 73
        E 99 87 40 73
        E 0 97 3e 73
        E 42 87 3e 73
        E 0 97 30 73
        E 99 87 30 73
        E 0 97 3e 73
        E 28 87 3e 73
        E 0 97 35 73
        E 113 87 35 73
        E 0 97 40 73
        E 71 87 40 73
        E 0 97 3a 73
        E 28 87 3a 73
        E 0 97 35 73
        E 113 87 35 73
        E 0 97 40 73
        E 99 87 40 73
        E 0 97 3e 73
        E 42 87 3e 73
        E 0 97 30 73
        E 99 87 30 73
        E 0 97 3e 73
        E 28 87 3e 73
        E 0 97 35 73
        E 113 87 35 73
        E 0 97 40 73
        E 71 87 40 73
        E 0 97 3a 73
        E 28 87 3a 73
        E 0 97 35 73
        E 113 87 35 73
        E 0 97 40 73
        E 99 87 40 73
        E 0 97 3e 73
        E 42 87 3e 73
        E 0 97 30 73
        E 99 87 30 73
        E 0 97 3e 73
        E 28 87 3e 73
        E 0 97 35 73
        E 113 87 35 73
        E 0 97 40 73
        E 71 87 40 73
        E 0 97 3a 73
        E 28 87 3a 73
        E 0 97 35 73
        E 113 87 35 73
        E 0 97 40 73
        E 99 87 40 73
        E 0 97 3e 73
        E 42 87 3e 73
        E 0 97 30 73
        E 99 87 30 73
        E 0 97 3e 73
        E 28 87 3e 73
        E 0 97 35 73
        E 113 87 35 73
        E 0 97 40 73
        E 71 87 40 73
        E 0 97 3a 73
        E 28 87 3a 73
        E 0 97 35 73
        E 113 87 35 73
        E 0 97 40 73
        E 99 87 40 73
        E 0 97 3e 73
        E 42 87 3e 73
        E 0 97 30 73
        E 99 87 30 73
        E 0 97 3e 73
        E 28 87 3e 73
        E 0 97 35 73
        E 113 87 35 73
        E 0 97 40 73
        E 71 87 40 73
        E 0 97 3a 73
        E 28 87 3a 73
        E 0 97 35 73
        E 113 87 35 73
        E 0 97 40 73
        E 99 87 40 73
        E 0 97 3e 73
        E 42 87 3e 73
        E 0 97 30 73
        E 99 87 30 73
        E 0 97 3e 73
        E 28 87 3e 73
        E 0 97 35 73
        E 113 87 35 73
        E 0 97 40 73
        E 71 87 40 73
        E 0 97 3a 73
        E 28 87 3a 73
        E 0 97 35 73
        E 113 87 35 73
        E 0 97 40 73
        E 99 87 40 73
        E 0 97 3e 73
        E 42 87 3e 73
        E 0 97 30 73
        E 99 87 30 73
        E 0 97 3e 73
        E 28 87 3e 73
        E 0 97 35 73
        E 113 87 35 73
        E 0 97 40 73
        E 71 87 40 73
        E 0 97 3a 73
        E 28 87 3a 73
        E 0 97 35 73
        E 113 87 35 73
        E 0 97 40 73
        E 99 87 40 73
        E 0 97 3e 73
        E 42 87 3e 73
        E 0 97 30 73
        E 99 87 30 73
        E 0 97 3e 73
        E 28 87 3e 73
        E 0 97 35 73
        E 113 87 35 73
        E 0 97 40 73
        E 71 87 40 73
        E 0 97 3a 73
        E 28 87 3a 73
        E 0 97 35 73
        E 113 87 35 73
        E 0 97 40 73
        E 99 87 40 73
        E 0 97 3e 73
        E 42 87 3e 73
        E 0 97 30 73
        E 99 87 30 73
        E 0 97 3e 73
        E 28 87 3e 73
        E 0 97 35 73
        E 113 87 35 73
        E 0 97 40 73
        E 71 87 40 73
        E 0 97 3a 73
        E 28 87 3a 73
        E 0 97 35 73
        E 113 87 35 73
        E 0 97 40 73
        E 99 87 40 73
        E 0 97 3e 73
        E 42 87 3e 73
        E 0 97 30 73
        E 99 87 30 73
        E 0 97 3e 73
        E 28 87 3e 73
        E 0 97 35 73
        E 113 87 35 73
        E 0 97 40 73
        E 71 87 40 73
        E 0 97 3a 73
        E 28 87 3a 73
        E 0 97 35 73
        E 113 87 35 73
        E 0 97 40 73
        E 99 87 40 73
        E 0 97 3e 73
        E 42 87 3e 73
        E 0 97 30 73
        E 99 87 30 73
        E 0 97 3e 73
        E 28 87 3e 73
        E 0 97 35 73
        E 113 87 35 73
        E 0 97 40 73
        E 71 87 40 73
        E 0 97 3a 73
        E 28 87 3a 73
        E 0 97 35 73
        E 113 87 35 73
        E 0 97 40 73
        E 99 87 40 73
        E 0 97 3e 73
        E 42 87 3e 73
        E 0 97 30 73
        E 99 87 30 73
        E 0 97 3e 73
        E 28 87 3e 73
        E 0 97 35 73
        E 113 87 35 73
        E 0 97 40 73
        E 71 87 40 73
        E 0 97 3a 73
        E 28 87 3a 73
        E 0 97 35 73
        E 113 87 35 73
        E 0 97 40 73
        E 99 87 40 73
        E 0 97 3e 73
        E 42 87 3e 73
        E 0 97 30 73
        E 99 87 30 73
        E 0 97 3e 73
        E 28 87 3e 73
        E 0 97 35 73
        E 113 87 35 73
        E 0 97 40 73
        E 71 87 40 73
        E 0 97 3a 73
        E 28 87 3a 73
        E 0 97 35 73
        E 113 87 35 73
        E 0 97 40 73
        E 99 87 40 73
        E 0 97 3e 73
        E 42 87 3e 73
        E 0 97 30 73
        E 99 87 30 73
        E 0 97 3e 73
        E 28 87 3e 73
        E 0 97 35 73
        E 113 87 35 73
        E 0 97 40 73
        E 71 87 40 73
        E 0 97 3a 73
        E 28 87 3a 73
        E 0 97 35 73
        E 113 87 35 73
        E 0 97 40 73
        E 99 87 40 73
        E 0 97 3e 73
        E 42 87 3e 73
        E 0 97 30 73
        E 99 87 30 73
        E 0 97 3e 73
        E 28 87 3e 73
        E 0 97 35 73
        E 113 87 35 73
        E 0 97 40 73
        E 71 87 40 73
        E 0 97 3a 73
        E 28 87 3a 73
        E 0 97 35 73
        E 113 87 35 73
        E 0 97 40 73
        E 99 87 40 73
        E 0 97 3e 73
        E 42 87 3e 73
        E 0 97 3e 73
        E 28 87 3e 73
        E 0 97 35 73
        E 113 87 35 73
        E 0 97 40 73
        E 71 87 40 73
        E 0 97 3a 73
        E 28 87 3a 73
        E 0 97 35 73
        E 113 87 35 73
        E 0 97 40 73
        E 99 87 40 73
        E 0 97 3e 73
        E 28 87 3e 73
        E 0 97 35 73
        E 113 87 35 73
        E 0 97 40 73
        E 71 87 40 73
        E 0 97 3a 73
        E 28 87 3a 73
        E 0 97 35 73
        E 113 87 35 73
        E 0 97 40 73
        E 99 87 40 73
        E 0 97 3e 73
        E 28 87 3e 73
        E 0 97 35 73
        E 113 87 35 73
        E 0 97 40 73
        E 71 87 40 73
        E 0 97 3a 73
        E 28 87 3a 73
        E 0 97 35 73
        E 113 87 35 73
        E 0 97 40 73
        E 99 87 40 73
        E 0 97 3e 73
        E 28 87 3e 73
        E 0 97 35 73
        E 113 87 35 73
        E 0 97 40 73
        E 71 87 40 73
        E 0 97 3a 73
        E 28 87 3a 73
        E 0 97 35 73
        E 113 87 35 73
        E 0 97 40 73
        E 99 87 40 73
        E 0 97 3e 73
        E 28 87 3e 73
        E 0 97 35 73
        E 113 87 35 73
        E 0 97 40 73
        E 71 87 40 73
        E 0 97 3a 73
        E 28 87 3a 73
        E 0 97 35 73
        E 113 87 35 73
        E 0 97 40 73
        E 99 87 40 73
        E 0 97 3e 73
        E 28 87 3e 73
        E 0 97 35 73
        E 113 87 35 73
        E 0 97 40 73
        E 71 87 40 73
        E 0 97 3a 73
        E 28 87 3a 73
        E 0 97 35 73
        E 113 87 35 73
        E 0 97 40 73
        E 99 87 40 73
        E 0 97 3e 73
        E 28 87 3e 73
        E 0 97 35 73
        E 113 87 35 73
        E 0 97 40 73
        E 71 87 40 73
        E 0 97 3a 73
        E 28 87 3a 73
        E 0 97 35 73
        E 113 87 35 73
        E 0 97 40 73
        E 99 87 40 73
        E 0 97 3e 73
        E 28 87 3e 73
        E 0 97 35 73
        E 113 87 35 73
        E 0 97 40 73
        E 71 87 40 73
        E 0 97 3a 73
        E 28 87 3a 73
        E 0 97 35 73
        E 113 87 35 73
        E 0 97 40 73
        E 99 87 40 73
        E 0 97 3e 73
        E 28 87 3e 73
        E 0 97 35 73
        E 113 87 35 73
        E 0 97 40 73
        E 71 87 40 73
        E 0 97 3a 73
        E 28 87 3a 73
        E 0 97 35 73
        E 113 87 35 73
        E 0 97 40 73
        E 99 87 40 73
        E 0 97 3e 73
        E 28 87 3e 73
        E 0 97 35 73
        E 113 87 35 73
        E 0 97 40 73
        E 71 87 40 73
        E 0 97 3a 73
        E 28 87 3a 73
        E 0 97 35 73
        E 113 87 35 73
        E 0 97 40 73
        E 99 87 40 73
        E 0 97 3e 73
        E 28 87 3e 73
        E 0 97 35 73
        E 113 87 35 73
        E 0 97 40 73
        E 71 87 40 73
        E 0 97 3a 73
        E 28 87 3a 73
        E 0 97 35 73
        E 113 87 35 73
        E 0 97 40 73
        E 99 87 40 73
        E 0 97 3e 73
        E 28 87 3e 73
        E 0 97 35 73
        E 113 87 35 73
        E 0 97 40 73
        E 71 87 40 73
        E 0 97 3a 73
        E 28 87 3a 73
        E 0 97 35 73
        E 113 87 35 73
        E 0 97 40 73
        E 99 87 40 73
        E 0 97 3e 73
        E 28 87 3e 73
        E 0 97 35 73
        E 113 87 35 73
        E 0 97 40 73
        E 71 87 40 73
        E 0 97 3a 73
        E 28 87 3a 73
        E 0 97 35 73
        E 113 87 35 73
        E 0 97 40 73
        E 99 87 40 73
        E 0 97 3e 73
        E 28 87 3e 73
        E 0 97 35 73
        E 113 87 35 73
        E 0 97 40 73
        E 71 87 40 73
        E 0 97 3a 73
        E 28 87 3a 73
        E 0 97 35 73
        E 113 87 35 73
        E 0 97 40 73
        E 99 87 40 73
        E 0 97 3e 73
        E 28 87 3e 73
        E 0 97 35 73
        E 113 87 35 73
        E 0 97 40 73
        E 71 87 40 73
        E 0 97 3a 73
        E 28 87 3a 73
        E 0 97 35 73
        E 113 87 35 73
        E 0 97 40 73
        E 99 87 40 73
        E 0 97 3e 73
        E 28 87 3e 73
        E 0 97 35 73
        E 113 87 35 73
        E 0 97 40 73
        E 71 87 40 73
        E 0 97 3a 73
        E 28 87 3a 73
        E 0 97 35 73
        E 113 87 35 73
        E 0 97 40 73
        E 99 87 40 73
        E 0 97 3e 73
        E 28 87 3e 73
        E 0 97 35 73
        E 113 87 35 73
        E 0 97 40 73
        E 71 87 40 73
        E 0 97 3a 73
        E 28 87 3a 73
        E 0 97 35 73
        E 113 87 35 73
        E 0 97 40 73
        E 99 87 40 73
        E 0 97 3e 73
        E 28 87 3e 73
        E 0 97 35 73
        E 113 87 35 73
        E 0 97 40 73
        E 71 87 40 73
        E 0 97 3a 73
        E 28 87 3a 73
        E 0 97 35 73
        E 113 87 35 73
        E 0 97 40 73
        E 99 87 40 73
        E 0 97 40 73
        E 99 87 40 73
        E 0 97 3e 73
        E 42 87 3e 73
        E 0 97 40 73
        E 99 87 40 73
        E 0 97 3e 73
        E 42 87 3e 73
        E 0 97 40 73
        E 99 87 40 73
        E 0 97 3e 73
        E 42 87 3e 73
        E 0 97 40 73
        E 99 87 40 73
        E 0 97 3e 73
        E 42 87 3e 73
        E 0 97 40 73
        E 99 87 40 73
        E 0 97 3e 73
        E 42 87 3e 73
        E 0 97 40 73
        E 99 87 40 73
        E 0 97 3e 73
        E 42 87 3e 73
        E 0 97 40 73
        E 99 87 40 73
        E 0 97 3e 73
        E 42 87 3e 73
        E 0 97 40 73
        E 99 87 40 73
        E 0 97 3e 73
        E 42 87 3e 73
        E 0 97 40 73
        E 99 87 40 73
        E 0 97 3e 73
        E 42 87 3e 73
        E 0 97 40 73
        E 99 87 40 73
        E 0 97 3e 73
        E 42 87 3e 73
        E 0 97 40 73
        E 99 87 40 73
        E 0 97 3e 73
        E 42 87 3e 73
        E 0 97 40 73
        E 99 87 40 73
        E 0 97 3e 73
        E 42 87 3e 73
        E 0 97 40 73
        E 99 87 40 73
        E 0 97 3e 73
        E 42 87 3e 73
        E 0 97 40 73
        E 99 87 40 73
        E 0 97 3e 73
        E 42 87 3e 73
        E 0 97 40 73
        E 99 87 40 73
        E 0 97 3e 73
        E 42 87 3e 73
        E 0 97 40 73
        E 99 87 40 73
        E 0 97 3e 73
        E 42 87 3e 73
        E 0 97 40 73
        E 99 87 40 73
        E 0 97 3e 73
        E 42 87 3e 73
        E 0 97 40 73
        E 99 87 40 73
        E 0 97 3e 73
        E 42 87 3e 73
        E 0 97 40 73
        E 99 87 40 73
        E 0 97 3e 73
        E 42 87 3e 73
        E 0 97 40 73
        E 99 87 40 73
        E 0 97 3e 73
        E 42 87 3e 73
        E 0 97 40 73
        E 99 87 40 73
        E 0 97 3e 73
        E 42 87 3e 73
        E 0 97 40 73
        E 99 87 40 73
        E 0 97 3e 73
        E 42 87 3e 73
        E 0 97 40 73
        E 99 87 40 73
        E 0 97 3e 73
        E 42 87 3e 73
        E 0 97 40 73
        E 99 87 40 73
        E 0 97 3e 73
        E 42 87 3e 73
        E 0 97 40 73
        E 99 87 40 73
        E 0 97 3e 73
        E 42 87 3e 73
        E 0 97 40 73
        E 99 87 40 73
        E 0 97 3e 73
        E 42 87 3e 73
        E 0 97 40 73
        E 99 87 40 73
        E 0 97 3e 73
        E 42 87 3e 73
        E 0 97 40 73
        E 99 87 40 73
        E 0 97 3e 73
        E 42 87 3e 73
        E 0 97 40 73
        E 99 87 40 73
        E 0 97 3e 73
        E 42 87 3e 73
        E 0 97 40 73
        E 99 87 40 73
        E 0 97 3e 73
        E 42 87 3e 73
        E 0 97 40 73
        E 99 87 40 73
        E 0 97 3e 73
        E 42 87 3e 73
        E 0 97 40 73
        E 99 87 40 73
        E 0 97 3e 73
        E 42 87 3e 73
        E 0 97 40 73
        E 99 87 40 73
        E 0 97 3e 73
        E 42 87 3e 73
        E 0 97 40 73
        E 99 87 40 73
        E 0 97 3e 73
        E 42 87 3e 73
        E 0 97 40 73
        E 99 87 40 73
        E 0 97 3e 73
        E 42 87 3e 73
        E 0 97 40 73
        E 99 87 40 73
        E 0 97 3e 73
        E 42 87 3e 73
        E 0 97 40 73
        E 99 87 40 73
        E 0 97 3e 73
        E 42 87 3e 73
        E 0 97 40 73
        E 99 87 40 73
        E 0 97 3e 73
        E 42 87 3e 73
        E 0 97 40 73
        E 99 87 40 73
        E 0 97 3e 73
        E 42 87 3e 73
        E 0 97 40 73
        E 99 87 40 73
        E 0 97 3e 73
        E 42 87 3e 73
        E 0 97 40 73
        E 99 87 40 73
        E 0 97 3e 73
        E 42 87 3e 73
        E 0 97 40 73
        E 99 87 40 73
        E 0 97 3e 73
        E 42 87 3e 73
        E 0 97 40 73
        E 99 87 40 73
        E 0 97 3e 73
        E 42 87 3e 73
        E 0 97 40 73
        E 99 87 40 73
        E 0 97 3e 73
        E 42 87 3e 73
        E 0 97 40 73
        E 99 87 40 73
        E 0 97 3e 73
        E 42 87 3e 73
        E 0 97 40 73
        E 99 87 40 73
        E 0 97 3e 73
        E 42 87 3e 73
        E 0 97 40 73
        E 99 87 40 73
        E 0 97 3e 73
        E 42 87 3e 73
        E 0 97 40 73
        E 99 87 40 73
        E 0 97 3e 73
        E 42 87 3e 73
        E 0 97 40 73
        E 99 87 40 73
        E 0 97 3e 73
        E 42 87 3e 73
        E 0 97 40 73
        E 99 87 40 73
        E 0 97 3e 73
        E 42 87 3e 73
        E 0 97 40 73
        E 99 87 40 73
        E 0 97 3e 73
        E 42 87 3e 73
        E 0 97 40 73
        E 99 87 40 73
        E 0 97 3e 73
        E 42 87 3e 73
        E 0 97 40 73
        E 99 87 40 73
        E 0 97 3e 73
        E 42 87 3e 73
        E 0 97 40 73
        E 99 87 40 73
        E 0 97 3e 73
        E 42 87 3e 73
        E 0 97 40 73
        E 99 87 40 73
        E 0 97 3e 73
        E 42 87 3e 73
        E 0 97 40 73
        E 99 87 40 73
        E 0 97 3e 73
        E 42 87 3e 73
        E 0 97 40 73
        E 99 87 40 73
        E 0 97 3e 73
        E 42 87 3e 73
        E 0 97 40 73
        E 99 87 40 73
        E 0 97 3e 73
        E 42 87 3e 73
        E 0 97 40 73
        E 99 87 40 73
        E 0 97 3e 73
        E 42 87 3e 73
        E 0 97 40 73
        E 99 87 40 73
        E 0 97 3e 73
        E 42 87 3e 73
        E 0 97 40 73
        E 99 87 40 73
        E 0 97 3e 73
        E 42 87 3e 73
        E 0 97 40 73
        E 99 87 40 73
        E 0 97 3e 73
        E 42 87 3e 73
        E 0 97 40 73
        E 99 87 40 73
        E 0 97 3e 73
        E 42 87 3e 73
        E 0 97 40 73
        E 99 87 40 73
        E 0 97 3e 73
        E 42 87 3e 73
        E 0 97 40 73
        E 99 87 40 73
        E 0 97 3e 73
        E 42 87 3e 73
        E 0 97 40 73
        E 99 87 40 73
        E 0 97 3e 73
        E 42 87 3e 73
        E 0 97 40 73
        E 99 87 40 73
        E 0 97 3e 73
        E 42 87 3e 73
        E 0 97 40 73
        E 99 87 40 73
        E 0 97 3e 73
        E 42 87 3e 73
        E 0 97 40 73
        E 99 87 40 73
        E 0 97 3e 73
        E 42 87 3e 73
        E 0 97 40 73
        E 99 87 40 73
        E 0 97 3e 73
        E 42 87 3e 73
        E 0 97 40 73
        E 99 87 40 73
        E 0 97 3e 73
        E 42 87 3e 73
        E 0 97 40 73
        E 99 87 40 73
        E 0 97 3e 73
        E 42 87 3e 73
        E 0 97 35 73
        E 113 87 35 73
        E 0 97 40 73
        E 71 87 40 73
        E 0 97 3a 73
        E 28 87 3a 73
        E 0 97 35 73
        E 113 87 35 73
        E 0 97 40 73
        E 99 87 40 73
        E 0 97 3e 73
        E 42 87 3e 73
        E 0 97 37 73
        E 0 97 35 73
        E 113 87 35 73
        E 0 97 40 73
        E 71 87 40 73
        E 0 97 3a 73
        E 28 87 3a 73
        E 0 97 35 73
        E 113 87 35 73
        E 0 97 40 73
        E 99 87 40 73
        E 0 97 3e 73
        E 42 87 3e 73
        E 0 97 37 73
        E 0 97 35 73
        E 113 87 35 73
        E 0 97 40 73
        E 71 87 40 73
        E 0 97 3a 73
        E 28 87 3a 73
        E 0 97 35 73
        E 113 87 35 73
        E 0 97 40 73
        E 99 87 40 73
        E 0 97 3e 73
        E 42 87 3e 73
        E 0 97 37 73
        E 0 97 35 73
        E 113 87 35 73
        E 0 97 40 73
        E 71 87 40 73
        E 0 97 3a 73
        E 28 87 3a 73
        E 0 97 35 73
        E 113 87 35 73
        E 0 97 40 73
        E 99 87 40 73
        E 0 97 3e 73
        E 42 87 3e 73
        E 0 97 37 73
        E 0 97 35 73
        E 113 87 35 73
        E 0 97 40 73
        E 71 87 40 73
        E 0 97 3a 73
        E 28 87 3a 73
        E 0 97 35 73
        E 113 87 35 73
        E 0 97 40 73
        E 99 87 40 73
        E 0 97 3e 73
        E 42 87 3e 73
        E 0 97 37 73
        E 0 97 35 73
        E 113 87 35 73
        E 0 97 40 73
        E 71 87 40 73
        E 0 97 3a 73
        E 28 87 3a 73
        E 0 97 35 73
        E 113 87 35 73
        E 0 97 40 73
        E 99 87 40 73
        E 0 97 3e 73
        E 42 87 3e 73
        E 0 97 37 73
        E 0 97 35 73
        E 113 87 35 73
        E 0 97 40 73
        E 71 87 40 73
        E 0 97 3a 73
        E 28 87 3a 73
        E 0 97 35 73
        E 113 87 35 73
        E 0 97 40 73
        E 99 87 40 73
        E 0 97 3e 73
        E 42 87 3e 73
        E 0 97 37 73
        E 0 97 35 73
        E 113 87 35 73
        E 0 97 40 73
        E 71 87 40 73
        E 0 97 3a 73
        E 28 87 3a 73
        E 0 97 35 73
        E 113 87 35 73
        E 0 97 40 73
        E 99 87 40 73
        E 0 97 3e 73
        E 42 87 3e 73
        E 0 97 37 73
        E 0 97 35 73
        E 113 87 35 73
        E 0 97 40 73
        E 71 87 40 73
        E 0 97 3a 73
        E 28 87 3a 73
        E 0 97 35 73
        E 113 87 35 73
        E 0 97 40 73
        E 99 87 40 73
        E 0 97 3e 73
        E 42 87 3e 73
        E 0 97 37 73
        E 0 97 35 73
        E 113 87 35 73
        E 0 97 40 73
        E 71 87 40 73
        E 0 97 3a 73
        E 28 87 3a 73
        E 0 97 35 73
        E 113 87 35 73
        E 0 97 40 73
        E 99 87 40 73
        E 0 97 3e 73
        E 42 87 3e 73
        E 0 97 37 73
        E 0 97 35 73
        E 113 87 35 73
        E 0 97 40 73
        E 71 87 40 73
        E 0 97 3a 73
        E 28 87 3a 73
        E 0 97 35 73
        E 113 87 35 73
        E 0 97 40 73
        E 99 87 40 73
        E 0 97 3e 73
        E 42 87 3e 73
        E 0 97 37 73
        E 0 97 35 73
        E 113 87 35 73
        E 0 97 40 73
        E 71 87 40 73
        E 0 97 3a 73
        E 28 87 3a 73
        E 0 97 35 73
        E 113 87 35 73
        E 0 97 40 73
        E 99 87 40 73
        E 0 97 3e 73
        E 42 87 3e 73
        E 0 97 37 73
        E 0 97 35 73
        E 113 87 35 73
        E 0 97 40 73
        E 71 87 40 73
        E 0 97 3a 73
        E 28 87 3a 73
        E 0 97 35 73
        E 113 87 35 73
        E 0 97 40 73
        E 99 87 40 73
        E 0 97 3e 73
        E 42 87 3e 73
        E 0 97 37 73
        E 0 97 35 73
        E 113 87 35 73
        E 0 97 40 73
        E 71 87 40 73
        E 0 97 3a 73
        E 28 87 3a 73
        E 0 97 35 73
        E 113 87 35 73
        E 0 97 40 73
        E 99 87 40 73
        E 0 97 3e 73
        E 42 87 3e 73
        E 0 97 37 73
        E 0 97 35 73
        E 113 87 35 73
        E 0 97 40 73
        E 71 87 40 73
        E 0 97 3a 73
        E 28 87 3a 73
        E 0 97 35 73
        E 113 87 35 73
        E 0 97 40 73
        E 99 87 40 73
        E 0 97 3e 73
        E 42 87 3e 73
        E 0 97 37 73
        E 0 97 35 73
        E 113 87 35 73
        E 0 97 40 73
        E 71 87 40 73
        E 0 97 3a 73
        E 28 87 3a 73
        E 0 97 35 73
        E 113 87 35 73
        E 0 97 40 73
        E 99 87 40 73
        E 0 97 3e 73
        E 42 87 3e 73
        E 0 97 37 73
        E 0 97 35 73
        E 113 87 35 73
        E 0 97 40 73
        E 71 87 40 73
        E 0 97 3a 73
        E 28 87 3a 73
        E 0 97 35 73
        E 113 87 35 73
        E 0 97 40 73
        E 99 87 40 73
        E 0 97 3e 73
        E 42 87 3e 73
        E 0 97 37 73
        E 0 97 35 73
        E 113 87 35 73
        E 0 97 40 73
        E 71 87 40 73
        E 0 97 3a 73
        E 28 87 3a 73
        E 0 97 35 73
        E 113 87 35 73
        E 0 97 40 73
        E 99 87 40 73
        E 0 97 3e 73
        E 42 87 3e 73
        E 0 97 37 73
        E 0 97 35 73
        E 113 87 35 73
        E 0 97 40 73
        E 71 87 40 73
        E 0 97 3a 73
        E 28 87 3a 73
        E 0 97 35 73
        E 113 87 35 73
        E 0 97 40 73
        E 99 87 40 73
        E 0 97 3e 73
        E 42 87 3e 73
        E 0 97 37 73
        E 0 97 35 73
        E 113 87 35 73
        E 0 97 40 73
        E 71 87 40 73
        E 0 97 3a 73
        E 28 87 3a 73
        E 0 97 35 73
        E 113 87 35 73
        E 0 97 40 73
        E 99 87 40 73
        E 0 97 3e 73
        E 42 87 3e 73
        E 0 97 37 73
        E 0 97 35 73
        E 113 87 35 73
        E 0 97 40 73
        E 71 87 40 73
        E 0 97 3a 73
        E 28 87 3a 73
        E 0 97 35 73
        E 113 87 35 73
        E 0 97 40 73
        E 99 87 40 73
        E 0 97 3e 73
        E 42 87 3e 73
        E 0 97 37 73
        E 0 97 35 73
        E 113 87 35 73
        E 0 97 40 73
        E 71 87 40 73
        E 0 97 3a 73
        E 28 87 3a 73
        E 0 97 35 73
        E 113 87 35 73
        E 0 97 40 73
        E 99 87 40 73
        E 0 97 3e 73
        E 42 87 3e 73
        E 0 97 37 73
        E 0 97 35 73
        E 113 87 35 73
        E 0 97 40 73
        E 71 87 40 73
        E 0 97 3a 73
        E 28 87 3a 73
        E 0 97 35 73
        E 113 87 35 73
        E 0 97 40 73
        E 99 87 40 73
        E 0 97 3e 73
        E 42 87 3e 73
        E 0 97 37 73
        E 0 97 35 73
        E 113 87 35 73
        E 0 97 40 73
        E 71 87 40 73
        E 0 97 3a 73
        E 28 87 3a 73
        E 0 97 35 73
        E 113 87 35 73
        E 0 97 40 73
        E 99 87 40 73
        E 0 97 3e 73
        E 42 87 3e 73
        E 0 97 37 73
        E 0 97 35 73
        E 113 87 35 73
        E 0 97 40 73
        E 71 87 40 73
        E 0 97 3a 73
        E 28 87 3a 73
        E 0 97 35 73
        E 113 87 35 73
        E 0 97 40 73
        E 99 87 40 73
        E 0 97 3e 73
        E 42 87 3e 73
        E 0 97 37 73
        E 0 97 35 73
        E 113 87 35 73
        E 0 97 40 73
        E 71 87 40 73
        E 0 97 3a 73
        E 28 87 3a 73
        E 0 97 35 73
        E 113 87 35 73
        E 0 97 40 73
        E 99 87 40 73
        E 0 97 3e 73
        E 42 87 3e 73
        E 0 97 37 73
        E 0 97 35 73
        E 113 87 35 73
        E 0 97 40 73
        E 71 87 40 73
        E 0 97 3a 73
        E 28 87 3a 73
        E 0 97 35 73
        E 113 87 35 73
        E 0 97 40 73
        E 99 87 40 73
        E 0 97 3e 73
        E 42 87 3e 73
        E 0 97 37 73
        E 0 97 35 73
        E 113 87 35 73
        E 0 97 40 73
        E 71 87 40 73
        E 0 97 3a 73
        E 28 87 3a 73
        E 0 97 35 73
        E 113 87 35 73
        E 0 97 40 73
        E 99 87 40 73
        E 0 97 3e 73
        E 42 87 3e 73
        E 0 97 37 73
        E 0 97 35 73
        E 113 87 35 73
        E 0 97 40 73
        E 71 87 40 73
        E 0 97 3a 73
        E 28 87 3a 73
        E 0 97 35 73
        E 113 87 35 73
        E 0 97 40 73
        E 99 87 40 73
        E 0 97 3e 73
        E 42 87 3e 73
        E 0 97 37 73
        E 0 97 35 73
        E 113 87 35 73
        E 0 97 40 73
        E 71 87 40 73
        E 0 97 3a 73
        E 28 87 3a 73
        E 0 97 35 73
        E 113 87 35 73
        E 0 97 40 73
        E 99 87 40 73
        E 0 97 3e 73
        E 42 87 3e 73
        E 0 97 37 73
        E 0 97 35 73
        E 113 87 35 73
        E 0 97 40 73
        E 71 87 40 73
        E 0 97 3a 73
        E 28 87 3a 73
        E 0 97 35 73
        E 113 87 35 73
        E 0 97 40 73
        E 99 87 40 73
        E 0 97 3e 73
        E 42 87 3e 73
        E 0 97 37 73
        E 0 97 35 73
        E 113 87 35 73
        E 0 97 40 73
        E 71 87 40 73
        E 0 97 3a 73
        E 28 87 3a 73
        E 0 97 35 73
        E 113 87 35 73
        E 0 97 40 73
        E 99 87 40 73
        E 0 97 3e 73
        E 42 87 3e 73
        E 0 97 37 73
        E 0 97 35 73
        E 113 87 35 73
        E 0 97 40 73
        E 71 87 40 73
        E 0 97 3a 73
        E 28 87 3a 73
        E 0 97 35 73
        E 113 87 35 73
        E 0 97 40 73
        E 99 87 40 73
        E 0 97 3e 73
        E 42 87 3e 73
        E 0 97 37 73
        E 0 97 35 73
        E 113 87 35 73
        E 0 97 40 73
        E 71 87 40 73
        E 0 97 3a 73
        E 28 87 3a 73
        E 0 97 35 73
        E 113 87 35 73
        E 0 97 40 73
        E 99 87 40 73
        E 0 97 3e 73
        E 42 87 3e 73
        E 0 97 37 73
        E 0 97 35 73
        E 113 87 35 73
        E 0 97 40 73
        E 71 87 40 73
        E 0 97 3a 73
        E 28 87 3a 73
        E 0 97 35 73
        E 113 87 35 73
        E 0 97 40 73
        E 99 87 40 73
        E 0 97 3e 73
        E 42 87 3e 73
        E 0 97 37 73
        E 0 97 35 73
        E 113 87 35 73
        E 0 97 40 73
        E 71 87 40 73
        E 0 97 3a 73
        E 28 87 3a 73
        E 0 97 35 73
        E 113 87 35 73
        E 0 97 40 73
        E 99 87 40 73
        E 0 97 3e 73
        E 42 87 3e 73
        E 0 97 37 73
        E 0 97 35 73
        E 113 87 35 73
        E 0 97 40 73
        E 71 87 40 73
        E 0 97 3a 73
        E 28 87 3a 73
        E 0 97 35 73
        E 113 87 35 73
        E 0 97 40 73
        E 99 87 40 73
        E 0 97 3e 73
        E 42 87 3e 73
        E 0 97 37 73
        E 0 97 35 73
        E 113 87 35 73
        E 0 97 40 73
        E 71 87 40 73
        E 0 97 3a 73
        E 28 87 3a 73
        E 0 97 35 73
        E 113 87 35 73
        E 0 97 40 73
        E 99 87 40 73
        E 0 97 3e 73
        E 42 87 3e 73
        E 0 97 37 73
        E 0 97 35 73
        E 113 87 35 73
        E 0 97 40 73
        E 71 87 40 73
        E 0 97 3a 73
        E 28 87 3a 73
        E 0 97 35 73
        E 113 87 35 73
        E 0 97 40 73
        E 99 87 40 73
        E 0 97 3e 73
        E 42 87 3e 73
        E 0 97 37 73
        E 0 97 35 73
        E 113 87 35 73
        E 0 97 40 73
        E 71 87 40 73
        E 0 97 3a 73
        E 28 87 3a 73
        E 0 97 35 73
        E 113 87 35 73
        E 0 97 40 73
        E 99 87 40 73
        E 0 97 3e 73
        E 42 87 3e 73
        E 0 97 37 73
        E 0 97 35 73
        E 113 87 35 73
        E 0 97 40 73
        E 71 87 40 73
        E 0 97 3a 73
        E 28 87 3a 73
        E 0 97 35 73
        E 113 87 35 73
        E 0 97 40 73
        E 99 87 40 73
        E 0 97 3e 73
        E 42 87 3e 73
        E 0 97 37 73
        E 0 97 35 73
        E 113 87 35 73
        E 0 97 40 73
        E 71 87 40 73
        E 0 97 3a 73
        E 28 87 3a 73
        E 0 97 35 73
        E 113 87 35 73
        E 0 97 40 73
        E 99 87 40 73
        E 0 97 3e 73
        E 42 87 3e 73
        E 0 97 37 73
        E 0 97 35 73
        E 113 87 35 73
        E 0 97 40 73
        E 71 87 40 73
        E 0 97 3a 73
        E 28 87 3a 73
        E 0 97 35 73
        E 113 87 35 73
        E 0 97 40 73
        E 99 87 40 73
        E 0 97 3e 73
        E 42 87 3e 73
        E 0 97 37 73
        E 0 97 35 73
        E 113 87 35 73
        E 0 97 40 73
        E 71 87 40 73
        E 0 97 3a 73
        E 28 87 3a 73
        E 0 97 35 73
        E 113 87 35 73
        E 0 97 40 73
        E 99 87 40 73
        E 0 97 3e 73
        E 42 87 3e 73
        E 0 97 37 73
        E 0 97 35 73
        E 113 87 35 73
        E 0 97 40 73
        E 71 87 40 73
        E 0 97 3a 73
        E 28 87 3a 73
        E 0 97 35 73
        E 113 87 35 73
        E 0 97 40 73
        E 99 87 40 73
        E 0 97 3e 73
        E 42 87 3e 73
        E 0 97 37 73
        E 0 97 32 73
        E 113 87 32 73
        E 0 97 40 73
        E 85 87 40 73
        E 0 97 32 73
        E 113 87 32 73
        E 0 97 40 73
        E 85 87 40 73
        E 0 97 32 73
        E 113 87 32 73
        E 0 97 40 73
        E 85 87 40 73
        E 0 97 32 73
        E 113 87 32 73
        E 0 97 40 73
        E 85 87 40 73
        E 0 97 32 73
        E 113 87 32 73
        E 0 97 40 73
        E 85 87 40 73
        E 0 97 32 73
        E 113 87 32 73
        E 0 97 40 73
        E 85 87 40 73
        E 0 97 32 73
        E 113 87 32 73
        E 0 97 40 73
        E 85 87 40 73
        E 0 97 32 73
        E 113 87 32 73
        E 0 97 40 73
        E 85 87 40 73
        E 0 97 32 73
        E 113 87 32 73
        E 0 97 40 73
        E 85 87 40 73
        E 0 97 32 73
        E 113 87 32 73
        E 0 97 40 73
        E 85 87 40 73
        E 0 97 32 73
        E 113 87 32 73
        E 0 97 40 73
        E 85 87 40 73
        E 0 97 32 73
        E 113 87 32 73
        E 0 97 40 73
        E 85 87 40 73
        E 0 97 32 73
        E 113 87 32 73
        E 0 97 40 73
        E 85 87 40 73
        E 0 97 32 73
        E 113 87 32 73
        E 0 97 40 73
        E 85 87 40 73
        E 0 97 32 73
        E 113 87 32 73
        E 0 97 40 73
        E 85 87 40 73
        E 0 97 32 73
        E 113 87 32 73
        E 0 97 40 73
        E 85 87 40 73
        E 0 97 32 73
        E 113 87 32 73
        E 0 97 40 73
        E 85 87 40 73
        E 0 97 32 73
        E 113 87 32 73
        E 0 97 40 73
        E 85 87 40 73
        E 75 b0 7b 00
        CCINTERP 32
        CHASE_CC_TAKEOFFS 1
        GUID {ABFF47E7-B01E-AC41-82E5-697E2482DE06}
        IGNTEMPO 0 120 4 4
        SRCCOLOR 64
        VELLANE 3 601 0
        VELLANE -1 196 0
      >
    >
  >
  <TRACK {F52FDA7B-B582-394C-BC5C-BE284121407F}
    NAME "cannabis-infused gummies"
    PEAKCOL 16576
    BEAT -1
    AUTOMODE 0
    VOLPAN 1 0 -1 -1 1
    MUTESOLO 1 0 0
    IPHASE 0
    PLAYOFFS 0 1
    ISBUS 0 0
    BUSCOMP 0 0 0 0 0
    SHOWINMIX 1 0.6667 0.5 1 0.5 0 -1 0
    FREEMODE 0
    SEL 0
    REC 0 0 1 0 0 0 0
    VU 2
    TRACKHEIGHT 0 0 0 0 -1 0
    INQ 0 0 0 0.5 100 0 0 100
    NCHAN 2
    FX 1
    TRACKID {F52FDA7B-B582-394C-BC5C-BE284121407F}
    PERF 0
    MIDIOUT -1
    MAINSEND 1 0
    <FXCHAIN
      SHOW 0
      LASTSEL 0
      DOCKED 0
      BYPASS 0 0 0
      <VST "VSTi: FM8 (Native Instruments GmbH)" FM8.vst 0 "" 1315530296<5653544E696638666D38000000000000> ""
        OGZpTu5e7f4AAAAAAgAAAAEAAAAAAAAAAgAAAAAAAAAYBwAAAQAAAAAAEAA=
        GAcAAAAAAAABAAAAaHNpbgEAAAAAAAAAN455D8DDx0mHoN4j0l/0WZYAAAAAAAAARFNJTnYAAAABAAAASAAAAAAAAABEU0lOagAAAAEAAAAYAAAAAAAAAERTSU4BAAAA
        AQAAAAEAAAABAAAAAQAAAAEAAAAAAAAAAAAAAAAAAAANYmWFAQAAAAhwEAAAAAAAAQAAAAEAAAAAAAAAAAAAAAAAAAADAAAAMAAwADAAAAAAAAAAAAAAAAAAAAAAAAEA
        AAABAAAAAAAAAERTSU5lAAAARgYAAAAAAAABAAAAaHNpbgEAAAAAAAAAMOH4NwAUwEaoogAOyNUgkW0AAAAAAAAARFNJTmUAAAABAAAANAAAAAAAAABEU0lOagAAAAEA
        AAAYAAAAAAAAAERTSU4BAAAAAQAAAAEAAAABAAAAAgAAAAEAAAAACAAAAAEAAAAKAAAAMQAuADIALgAwAC4AMQAwADEAMAABAAAAAwAAAAAAAABEU0lObAAAAKgBAAAA
        AAAAAQAAAGhzaW4BAAAAAAAAACA7190CLVtKvWPIjKqbw/t4AQAAAAAAAERTSU5sAAAAAQAAABgAAAAAAAAARFNJTgEAAAABAAAAAQAAAAEAAAACAAAAAQAAAAAAAAAI
        AAAATgBlAHcAUwBvAHUAbgBkAAcAAABuAG8AdAAgAHMAZQB0AAAAAAAAAAAAAAAAAAAAAAAAAAAAAAAAAAAAAAAAAAAAAAAAAAEAAAABAAAAAQAAAAMAAABGAE0AOAAA
        AAAAAAAAAAcAAAAHAAAAXABAAGMAbwBsAG8AcgABAAAAMAARAAAAXABAAGQAZQB2AGkAYwBlAHQAeQBwAGUAZgBsAGEAZwBzAAEAAAAxAAsAAABcAEAAcwBvAHUAbgBk
        AHQAeQBwAGUAAQAAADAABwAAAFwAQAB0AGUAbQBwAG8AAQAAADAABgAAAFwAQAB2AGUAcgBsAAUAAAAxAC4ANwAuADgABgAAAFwAQAB2AGUAcgBtAAUAAAAxAC4ANwAu
        ADgABwAAAFwAQAB2AGkAcwBpAGIAAQAAADAAAQAAAAAAAAACAAAARFNJTnkAAABoAAAAAAAAAAEAAABoc2luAQAAAAAAAABG64vCmumHRIQ9Mih2ujahOAAAAAAAAABE
        U0lOeQAAAAEAAAAYAAAAAAAAAERTSU4BAAAAAQAAAAEAAAABAAAAAQAAAAAAAAABAAAAAAAAAAEAAABEU0lOdAAAAHUDAAAAAAAAAQAAAGhzaW4BAAAAAAAAAMPiDYJz
        LJxOuWtBgMMVvqRFAwAAAAAAAERTSU50AAAAAQAAACwDAAAAAAAARFNJTnMAAAABAAAAGAAAAAAAAABEU0lOAQAAAAEAAAABAAAAAQAAAAG9DwAA8wIAAAK9DwBgAAAB
        IAUDaHNpbkAHQAAQHyRrBvAZSEqYrqFXTcEPPBhAFCAAA0RTSU5AI+AHA0AAQBsAbSAIAWkPIAQgAEAj4ANTEEkCYzKs2sVGp2B2wrYRj5w5oCfAN0Av4BdnQCMB8Q4g
        XCAAAAUgAwFjDCAEIAAIdHNycEU4TUbPIAsEvCMAAAcgBwZkZWZhdWx04BgKICoAP+ACAwNBAACAIA8AoCAH4AsAAPAgF0AfwAAAICAPwABgFwVAAABIQgDgBABAD0AD
        4BcfYAAge+AEA0AAwBPgAwBAE+AAAAPNzMw+IAwDP5qZGUAXwAPgABcgCuAHG0ATQADgBwdAACATYKtAACALYANAAEALQAAg42AAwA9AB0AD4AMAwA9AB0ADwABAC8AD
        QADAC8AHQADgAwtAAEAP4AMAIA/Bn8AHAMjhDnPgHwDgAO/gDgBAX0ADwABBz8H7QAtAAwCgIINAB0AAALQgCwCWIAPgAwDAP0AHQAPAAEAz4MdLIAAAAcAAIAuAAAAC
        wACADuAdAOAALAD+4B0v4CEAABTgISrgMADBA+AKAGBTgAXgAABChuAXA+AeAOD9WSBZIkBBUgH6Q0AH4FUMQ9VAZwH6Q6BnBYA/zLyMK+BVDOABACBnBAA/ZmZmYAPg
        YwwgAABwJOwB/kJAdCAA4D4MosLgAFaAAKBjgADgOAwgYwRwwgAAhmC6JliAA0BW4EEMIGPgAE3g8AAAUCAA4Of8AP/gFwAABEERCggyAwAAQDIAAAA8QikgAwHwQmLY
        AAEgAYLiIAcgAkKVgAagCSA3oAkgSKAJKxegCQAG4AAJKwSgEyAAoAmASKAGoBPgwk/gSwAAEaBUA2tuYWJBMcAAAYAAIAAAGaARA2N0bmlMiwERJ2FcTFBAAEocAaBC
        4hMPTInAH00bwAvg/QDgvQABIACAAANzaXVnQiQA6CNxwAAAKiAIABkgAyOYYAAj0mAAB2dwdGNZVE1FQAwLDWJlhQEAAAAAAAAAAQAAAAABAAAAAAAAAA==
        ADxkaXNhYmxlZD4AEAAAAA==
      >
      PRESETNAME <disabled>
      FLOATPOS 0 0 0 0
      FXID {21C2BF2E-BF7D-0747-BB68-32DE69B14A96}
      WAK 0 0
    >
    <ITEM
      POSITION 0
      SNAPOFFS 0
      LENGTH 362.448448
      LOOP 1
      ALLTAKES 0
      FADEIN 1 0 0 1 0 0
      FADEOUT 1 0 0 1 0 0
      MUTE 0 0
      SEL 0
      IGUID {F7B03CC9-F5A2-BC4B-8A92-5D18D7EFB96D}
      IID 9
      NAME "cannabis-infused gummies.mid"
      VOLPAN 1 0 1 -1
      SOFFS 0 0
      PLAYRATE 1 1 0 -1 0 0.0025
      CHANMODE 0
      GUID {952C3315-CC3F-BD49-B923-20CA9474A97A}
      <SOURCE MIDI
        HASDATA 1 128 QN
        CCINTERP 32
        POOLEDEVTS {43360A7B-D166-3743-BB6F-6AAD5D724947}
        E 32768 98 3e 73
        E 36 88 3e 73
        E 0 98 35 73
        E 146 88 35 73
        E 0 98 40 73
        E 91 88 40 73
        E 0 98 3a 73
        E 36 88 3a 73
        E 0 98 35 73
        E 146 88 35 73
        E 0 98 40 73
        E 128 88 40 73
        E 0 98 3e 73
        E 36 88 3e 73
        E 0 98 35 73
        E 146 88 35 73
        E 0 98 40 73
        E 91 88 40 73
        E 0 98 3a 73
        E 36 88 3a 73
        E 0 98 35 73
        E 146 88 35 73
        E 0 98 40 73
        E 128 88 40 73
        E 0 98 3e 73
        E 36 88 3e 73
        E 0 98 35 73
        E 146 88 35 73
        E 0 98 40 73
        E 91 88 40 73
        E 0 98 3a 73
        E 36 88 3a 73
        E 0 98 35 73
        E 146 88 35 73
        E 0 98 40 73
        E 128 88 40 73
        E 0 98 3e 73
        E 36 88 3e 73
        E 0 98 35 73
        E 146 88 35 73
        E 0 98 40 73
        E 91 88 40 73
        E 0 98 3a 73
        E 36 88 3a 73
        E 0 98 35 73
        E 146 88 35 73
        E 0 98 40 73
        E 128 88 40 73
        E 0 98 3e 73
        E 36 88 3e 73
        E 0 98 35 73
        E 146 88 35 73
        E 0 98 40 73
        E 91 88 40 73
        E 0 98 3a 73
        E 36 88 3a 73
        E 0 98 35 73
        E 146 88 35 73
        E 0 98 40 73
        E 128 88 40 73
        E 0 98 3e 73
        E 36 88 3e 73
        E 0 98 35 73
        E 146 88 35 73
        E 0 98 40 73
        E 91 88 40 73
        E 0 98 3a 73
        E 36 88 3a 73
        E 0 98 35 73
        E 146 88 35 73
        E 0 98 40 73
        E 128 88 40 73
        E 0 98 3e 73
        E 36 88 3e 73
        E 0 98 35 73
        E 146 88 35 73
        E 0 98 40 73
        E 91 88 40 73
        E 0 98 3a 73
        E 36 88 3a 73
        E 0 98 35 73
        E 146 88 35 73
        E 0 98 40 73
        E 128 88 40 73
        E 0 98 3e 73
        E 36 88 3e 73
        E 0 98 35 73
        E 146 88 35 73
        E 0 98 40 73
        E 91 88 40 73
        E 0 98 3a 73
        E 36 88 3a 73
        E 0 98 35 73
        E 146 88 35 73
        E 0 98 40 73
        E 128 88 40 73
        E 0 98 3e 73
        E 36 88 3e 73
        E 0 98 35 73
        E 146 88 35 73
        E 0 98 40 73
        E 91 88 40 73
        E 0 98 3a 73
        E 36 88 3a 73
        E 0 98 35 73
        E 146 88 35 73
        E 0 98 40 73
        E 128 88 40 73
        E 0 98 3e 73
        E 36 88 3e 73
        E 0 98 35 73
        E 146 88 35 73
        E 0 98 40 73
        E 91 88 40 73
        E 0 98 3a 73
        E 36 88 3a 73
        E 0 98 35 73
        E 146 88 35 73
        E 0 98 40 73
        E 128 88 40 73
        E 0 98 3e 73
        E 36 88 3e 73
        E 0 98 35 73
        E 146 88 35 73
        E 0 98 40 73
        E 91 88 40 73
        E 0 98 3a 73
        E 36 88 3a 73
        E 0 98 35 73
        E 146 88 35 73
        E 0 98 40 73
        E 128 88 40 73
        E 0 98 3e 73
        E 36 88 3e 73
        E 0 98 35 73
        E 146 88 35 73
        E 0 98 40 73
        E 91 88 40 73
        E 0 98 3a 73
        E 36 88 3a 73
        E 0 98 35 73
        E 146 88 35 73
        E 0 98 40 73
        E 128 88 40 73
        E 0 98 3e 73
        E 36 88 3e 73
        E 0 98 35 73
        E 146 88 35 73
        E 0 98 40 73
        E 91 88 40 73
        E 0 98 3a 73
        E 36 88 3a 73
        E 0 98 35 73
        E 146 88 35 73
        E 0 98 40 73
        E 128 88 40 73
        E 0 98 3e 73
        E 36 88 3e 73
        E 0 98 35 73
        E 146 88 35 73
        E 0 98 40 73
        E 91 88 40 73
        E 0 98 3a 73
        E 36 88 3a 73
        E 0 98 35 73
        E 146 88 35 73
        E 0 98 40 73
        E 128 88 40 73
        E 0 98 40 73
        E 128 88 40 73
        E 0 98 3e 73
        E 54 88 3e 73
        E 0 98 40 73
        E 128 88 40 73
        E 0 98 3e 73
        E 54 88 3e 73
        E 0 98 40 73
        E 128 88 40 73
        E 0 98 3e 73
        E 54 88 3e 73
        E 0 98 40 73
        E 128 88 40 73
        E 0 98 3e 73
        E 54 88 3e 73
        E 0 98 40 73
        E 128 88 40 73
        E 0 98 3e 73
        E 54 88 3e 73
        E 0 98 40 73
        E 128 88 40 73
        E 0 98 3e 73
        E 54 88 3e 73
        E 0 98 40 73
        E 128 88 40 73
        E 0 98 3e 73
        E 54 88 3e 73
        E 0 98 40 73
        E 128 88 40 73
        E 0 98 3e 73
        E 54 88 3e 73
        E 0 98 40 73
        E 128 88 40 73
        E 0 98 3e 73
        E 54 88 3e 73
        E 0 98 40 73
        E 128 88 40 73
        E 0 98 3e 73
        E 54 88 3e 73
        E 0 98 40 73
        E 128 88 40 73
        E 0 98 3e 73
        E 54 88 3e 73
        E 0 98 40 73
        E 128 88 40 73
        E 0 98 3e 73
        E 54 88 3e 73
        E 0 98 40 73
        E 128 88 40 73
        E 0 98 3e 73
        E 54 88 3e 73
        E 0 98 40 73
        E 128 88 40 73
        E 0 98 3e 73
        E 54 88 3e 73
        E 0 98 40 73
        E 128 88 40 73
        E 0 98 3e 73
        E 54 88 3e 73
        E 0 98 40 73
        E 128 88 40 73
        E 0 98 3e 73
        E 54 88 3e 73
        E 0 98 40 73
        E 128 88 40 73
        E 0 98 3e 73
        E 54 88 3e 73
        E 0 98 40 73
        E 128 88 40 73
        E 0 98 3e 73
        E 54 88 3e 73
        E 0 98 40 73
        E 128 88 40 73
        E 0 98 3e 73
        E 54 88 3e 73
        E 0 98 40 73
        E 128 88 40 73
        E 0 98 3e 73
        E 54 88 3e 73
        E 0 98 40 73
        E 128 88 40 73
        E 0 98 3e 73
        E 54 88 3e 73
        E 0 98 40 73
        E 128 88 40 73
        E 0 98 3e 73
        E 54 88 3e 73
        E 0 98 40 73
        E 128 88 40 73
        E 0 98 3e 73
        E 54 88 3e 73
        E 0 98 40 73
        E 128 88 40 73
        E 0 98 3e 73
        E 54 88 3e 73
        E 0 98 40 73
        E 128 88 40 73
        E 0 98 3e 73
        E 54 88 3e 73
        E 0 98 40 73
        E 128 88 40 73
        E 0 98 3e 73
        E 54 88 3e 73
        E 0 98 40 73
        E 128 88 40 73
        E 0 98 3e 73
        E 54 88 3e 73
        E 0 98 40 73
        E 128 88 40 73
        E 0 98 3e 73
        E 54 88 3e 73
        E 0 98 40 73
        E 128 88 40 73
        E 0 98 3e 73
        E 54 88 3e 73
        E 0 98 40 73
        E 128 88 40 73
        E 0 98 3e 73
        E 54 88 3e 73
        E 0 98 40 73
        E 128 88 40 73
        E 0 98 3e 73
        E 54 88 3e 73
        E 0 98 40 73
        E 128 88 40 73
        E 0 98 3e 73
        E 54 88 3e 73
        E 0 98 40 73
        E 128 88 40 73
        E 0 98 3e 73
        E 54 88 3e 73
        E 0 98 40 73
        E 128 88 40 73
        E 0 98 3e 73
        E 54 88 3e 73
        E 0 98 40 73
        E 128 88 40 73
        E 0 98 3e 73
        E 54 88 3e 73
        E 0 98 40 73
        E 128 88 40 73
        E 0 98 3e 73
        E 54 88 3e 73
        E 0 98 40 73
        E 128 88 40 73
        E 0 98 3e 73
        E 54 88 3e 73
        E 0 98 40 73
        E 128 88 40 73
        E 0 98 3e 73
        E 54 88 3e 73
        E 0 98 40 73
        E 128 88 40 73
        E 0 98 3e 73
        E 54 88 3e 73
        E 0 98 40 73
        E 128 88 40 73
        E 0 98 3e 73
        E 54 88 3e 73
        E 0 98 40 73
        E 128 88 40 73
        E 0 98 3e 73
        E 54 88 3e 73
        E 0 98 40 73
        E 128 88 40 73
        E 0 98 3e 73
        E 54 88 3e 73
        E 0 98 40 73
        E 128 88 40 73
        E 0 98 3e 73
        E 54 88 3e 73
        E 0 98 40 73
        E 128 88 40 73
        E 0 98 3e 73
        E 54 88 3e 73
        E 0 98 40 73
        E 128 88 40 73
        E 0 98 3e 73
        E 54 88 3e 73
        E 0 98 40 73
        E 128 88 40 73
        E 0 98 3e 73
        E 54 88 3e 73
        E 0 98 40 73
        E 128 88 40 73
        E 0 98 3e 73
        E 54 88 3e 73
        E 0 98 40 73
        E 128 88 40 73
        E 0 98 3e 73
        E 54 88 3e 73
        E 0 98 40 73
        E 128 88 40 73
        E 0 98 3e 73
        E 54 88 3e 73
        E 0 98 40 73
        E 128 88 40 73
        E 0 98 3e 73
        E 54 88 3e 73
        E 0 98 40 73
        E 128 88 40 73
        E 0 98 3e 73
        E 54 88 3e 73
        E 0 98 40 73
        E 128 88 40 73
        E 0 98 3e 73
        E 54 88 3e 73
        E 0 98 40 73
        E 128 88 40 73
        E 0 98 3e 73
        E 54 88 3e 73
        E 0 98 40 73
        E 128 88 40 73
        E 0 98 3e 73
        E 54 88 3e 73
        E 0 98 40 73
        E 128 88 40 73
        E 0 98 3e 73
        E 54 88 3e 73
        E 0 98 40 73
        E 128 88 40 73
        E 0 98 3e 73
        E 54 88 3e 73
        E 0 98 35 73
        E 146 88 35 73
        E 0 98 40 73
        E 91 88 40 73
        E 0 98 3a 73
        E 36 88 3a 73
        E 0 98 35 73
        E 146 88 35 73
        E 0 98 40 73
        E 128 88 40 73
        E 0 98 3e 73
        E 54 88 3e 73
        E 0 98 37 73
        E 0 98 35 73
        E 146 88 35 73
        E 0 98 40 73
        E 91 88 40 73
        E 0 98 3a 73
        E 36 88 3a 73
        E 0 98 35 73
        E 146 88 35 73
        E 0 98 40 73
        E 128 88 40 73
        E 0 98 3e 73
        E 54 88 3e 73
        E 0 98 37 73
        E 0 98 35 73
        E 146 88 35 73
        E 0 98 40 73
        E 91 88 40 73
        E 0 98 3a 73
        E 36 88 3a 73
        E 0 98 35 73
        E 146 88 35 73
        E 0 98 40 73
        E 128 88 40 73
        E 0 98 3e 73
        E 54 88 3e 73
        E 0 98 37 73
        E 0 98 35 73
        E 146 88 35 73
        E 0 98 40 73
        E 91 88 40 73
        E 0 98 3a 73
        E 36 88 3a 73
        E 0 98 35 73
        E 146 88 35 73
        E 0 98 40 73
        E 128 88 40 73
        E 0 98 3e 73
        E 54 88 3e 73
        E 0 98 37 73
        E 0 98 35 73
        E 146 88 35 73
        E 0 98 40 73
        E 91 88 40 73
        E 0 98 3a 73
        E 36 88 3a 73
        E 0 98 35 73
        E 146 88 35 73
        E 0 98 40 73
        E 128 88 40 73
        E 0 98 3e 73
        E 54 88 3e 73
        E 0 98 37 73
        E 0 98 35 73
        E 146 88 35 73
        E 0 98 40 73
        E 91 88 40 73
        E 0 98 3a 73
        E 36 88 3a 73
        E 0 98 35 73
        E 146 88 35 73
        E 0 98 40 73
        E 128 88 40 73
        E 0 98 3e 73
        E 54 88 3e 73
        E 0 98 37 73
        E 0 98 35 73
        E 146 88 35 73
        E 0 98 40 73
        E 91 88 40 73
        E 0 98 3a 73
        E 36 88 3a 73
        E 0 98 35 73
        E 146 88 35 73
        E 0 98 40 73
        E 128 88 40 73
        E 0 98 3e 73
        E 54 88 3e 73
        E 0 98 37 73
        E 0 98 35 73
        E 146 88 35 73
        E 0 98 40 73
        E 91 88 40 73
        E 0 98 3a 73
        E 36 88 3a 73
        E 0 98 35 73
        E 146 88 35 73
        E 0 98 40 73
        E 128 88 40 73
        E 0 98 3e 73
        E 54 88 3e 73
        E 0 98 37 73
        E 0 98 35 73
        E 146 88 35 73
        E 0 98 40 73
        E 91 88 40 73
        E 0 98 3a 73
        E 36 88 3a 73
        E 0 98 35 73
        E 146 88 35 73
        E 0 98 40 73
        E 128 88 40 73
        E 0 98 3e 73
        E 54 88 3e 73
        E 0 98 37 73
        E 0 98 35 73
        E 146 88 35 73
        E 0 98 40 73
        E 91 88 40 73
        E 0 98 3a 73
        E 36 88 3a 73
        E 0 98 35 73
        E 146 88 35 73
        E 0 98 40 73
        E 128 88 40 73
        E 0 98 3e 73
        E 54 88 3e 73
        E 0 98 37 73
        E 0 98 35 73
        E 146 88 35 73
        E 0 98 40 73
        E 91 88 40 73
        E 0 98 3a 73
        E 36 88 3a 73
        E 0 98 35 73
        E 146 88 35 73
        E 0 98 40 73
        E 128 88 40 73
        E 0 98 3e 73
        E 54 88 3e 73
        E 0 98 37 73
        E 0 98 35 73
        E 146 88 35 73
        E 0 98 40 73
        E 91 88 40 73
        E 0 98 3a 73
        E 36 88 3a 73
        E 0 98 35 73
        E 146 88 35 73
        E 0 98 40 73
        E 128 88 40 73
        E 0 98 3e 73
        E 54 88 3e 73
        E 0 98 37 73
        E 0 98 35 73
        E 146 88 35 73
        E 0 98 40 73
        E 91 88 40 73
        E 0 98 3a 73
        E 36 88 3a 73
        E 0 98 35 73
        E 146 88 35 73
        E 0 98 40 73
        E 128 88 40 73
        E 0 98 3e 73
        E 54 88 3e 73
        E 0 98 37 73
        E 0 98 35 73
        E 146 88 35 73
        E 0 98 40 73
        E 91 88 40 73
        E 0 98 3a 73
        E 36 88 3a 73
        E 0 98 35 73
        E 146 88 35 73
        E 0 98 40 73
        E 128 88 40 73
        E 0 98 3e 73
        E 54 88 3e 73
        E 0 98 37 73
        E 0 98 35 73
        E 146 88 35 73
        E 0 98 40 73
        E 91 88 40 73
        E 0 98 3a 73
        E 36 88 3a 73
        E 0 98 35 73
        E 146 88 35 73
        E 0 98 40 73
        E 128 88 40 73
        E 0 98 3e 73
        E 54 88 3e 73
        E 0 98 37 73
        E 0 98 35 73
        E 146 88 35 73
        E 0 98 40 73
        E 91 88 40 73
        E 0 98 3a 73
        E 36 88 3a 73
        E 0 98 35 73
        E 146 88 35 73
        E 0 98 40 73
        E 128 88 40 73
        E 0 98 3e 73
        E 54 88 3e 73
        E 0 98 37 73
        E 0 98 35 73
        E 146 88 35 73
        E 0 98 40 73
        E 91 88 40 73
        E 0 98 3a 73
        E 36 88 3a 73
        E 0 98 35 73
        E 146 88 35 73
        E 0 98 40 73
        E 128 88 40 73
        E 0 98 3e 73
        E 54 88 3e 73
        E 0 98 37 73
        E 0 98 35 73
        E 146 88 35 73
        E 0 98 40 73
        E 91 88 40 73
        E 0 98 3a 73
        E 36 88 3a 73
        E 0 98 35 73
        E 146 88 35 73
        E 0 98 40 73
        E 128 88 40 73
        E 0 98 3e 73
        E 54 88 3e 73
        E 0 98 37 73
        E 0 98 35 73
        E 146 88 35 73
        E 0 98 40 73
        E 91 88 40 73
        E 0 98 3a 73
        E 36 88 3a 73
        E 0 98 35 73
        E 146 88 35 73
        E 0 98 40 73
        E 128 88 40 73
        E 0 98 3e 73
        E 54 88 3e 73
        E 0 98 37 73
        E 0 98 35 73
        E 146 88 35 73
        E 0 98 40 73
        E 91 88 40 73
        E 0 98 3a 73
        E 36 88 3a 73
        E 0 98 35 73
        E 146 88 35 73
        E 0 98 40 73
        E 128 88 40 73
        E 0 98 3e 73
        E 54 88 3e 73
        E 0 98 37 73
        E 0 98 35 73
        E 146 88 35 73
        E 0 98 40 73
        E 91 88 40 73
        E 0 98 3a 73
        E 36 88 3a 73
        E 0 98 35 73
        E 146 88 35 73
        E 0 98 40 73
        E 128 88 40 73
        E 0 98 3e 73
        E 54 88 3e 73
        E 0 98 37 73
        E 0 98 35 73
        E 146 88 35 73
        E 0 98 40 73
        E 91 88 40 73
        E 0 98 3a 73
        E 36 88 3a 73
        E 0 98 35 73
        E 146 88 35 73
        E 0 98 40 73
        E 128 88 40 73
        E 0 98 3e 73
        E 54 88 3e 73
        E 0 98 37 73
        E 0 98 35 73
        E 146 88 35 73
        E 0 98 40 73
        E 91 88 40 73
        E 0 98 3a 73
        E 36 88 3a 73
        E 0 98 35 73
        E 146 88 35 73
        E 0 98 40 73
        E 128 88 40 73
        E 0 98 3e 73
        E 54 88 3e 73
        E 0 98 37 73
        E 0 98 35 73
        E 146 88 35 73
        E 0 98 40 73
        E 91 88 40 73
        E 0 98 3a 73
        E 36 88 3a 73
        E 0 98 35 73
        E 146 88 35 73
        E 0 98 40 73
        E 128 88 40 73
        E 0 98 3e 73
        E 54 88 3e 73
        E 0 98 37 73
        E 0 98 35 73
        E 146 88 35 73
        E 0 98 40 73
        E 91 88 40 73
        E 0 98 3a 73
        E 36 88 3a 73
        E 0 98 35 73
        E 146 88 35 73
        E 0 98 40 73
        E 128 88 40 73
        E 0 98 3e 73
        E 54 88 3e 73
        E 0 98 37 73
        E 0 98 35 73
        E 146 88 35 73
        E 0 98 40 73
        E 91 88 40 73
        E 0 98 3a 73
        E 36 88 3a 73
        E 0 98 35 73
        E 146 88 35 73
        E 0 98 40 73
        E 128 88 40 73
        E 0 98 3e 73
        E 54 88 3e 73
        E 0 98 37 73
        E 0 98 35 73
        E 146 88 35 73
        E 0 98 40 73
        E 91 88 40 73
        E 0 98 3a 73
        E 36 88 3a 73
        E 0 98 35 73
        E 146 88 35 73
        E 0 98 40 73
        E 128 88 40 73
        E 0 98 3e 73
        E 54 88 3e 73
        E 0 98 37 73
        E 0 98 35 73
        E 146 88 35 73
        E 0 98 40 73
        E 91 88 40 73
        E 0 98 3a 73
        E 36 88 3a 73
        E 0 98 35 73
        E 146 88 35 73
        E 0 98 40 73
        E 128 88 40 73
        E 0 98 3e 73
        E 54 88 3e 73
        E 0 98 37 73
        E 0 98 35 73
        E 146 88 35 73
        E 0 98 40 73
        E 91 88 40 73
        E 0 98 3a 73
        E 36 88 3a 73
        E 0 98 35 73
        E 146 88 35 73
        E 0 98 40 73
        E 128 88 40 73
        E 0 98 3e 73
        E 54 88 3e 73
        E 0 98 37 73
        E 0 98 35 73
        E 146 88 35 73
        E 0 98 40 73
        E 91 88 40 73
        E 0 98 3a 73
        E 36 88 3a 73
        E 0 98 35 73
        E 146 88 35 73
        E 0 98 40 73
        E 128 88 40 73
        E 0 98 3e 73
        E 54 88 3e 73
        E 0 98 37 73
        E 0 98 35 73
        E 146 88 35 73
        E 0 98 40 73
        E 91 88 40 73
        E 0 98 3a 73
        E 36 88 3a 73
        E 0 98 35 73
        E 146 88 35 73
        E 0 98 40 73
        E 128 88 40 73
        E 0 98 3e 73
        E 54 88 3e 73
        E 0 98 37 73
        E 0 98 35 73
        E 146 88 35 73
        E 0 98 40 73
        E 91 88 40 73
        E 0 98 3a 73
        E 36 88 3a 73
        E 0 98 35 73
        E 146 88 35 73
        E 0 98 40 73
        E 128 88 40 73
        E 0 98 3e 73
        E 54 88 3e 73
        E 0 98 37 73
        E 0 98 35 73
        E 146 88 35 73
        E 0 98 40 73
        E 91 88 40 73
        E 0 98 3a 73
        E 36 88 3a 73
        E 0 98 35 73
        E 146 88 35 73
        E 0 98 40 73
        E 128 88 40 73
        E 0 98 3e 73
        E 54 88 3e 73
        E 0 98 37 73
        E 0 98 35 73
        E 146 88 35 73
        E 0 98 40 73
        E 91 88 40 73
        E 0 98 3a 73
        E 36 88 3a 73
        E 0 98 35 73
        E 146 88 35 73
        E 0 98 40 73
        E 128 88 40 73
        E 0 98 3e 73
        E 54 88 3e 73
        E 0 98 37 73
        E 0 98 35 73
        E 146 88 35 73
        E 0 98 40 73
        E 91 88 40 73
        E 0 98 3a 73
        E 36 88 3a 73
        E 0 98 35 73
        E 146 88 35 73
        E 0 98 40 73
        E 128 88 40 73
        E 0 98 3e 73
        E 54 88 3e 73
        E 0 98 37 73
        E 0 98 32 73
        E 146 88 32 73
        E 0 98 40 73
        E 109 88 40 73
        E 0 98 32 73
        E 146 88 32 73
        E 0 98 40 73
        E 109 88 40 73
        E 0 98 32 73
        E 146 88 32 73
        E 0 98 40 73
        E 109 88 40 73
        E 0 98 32 73
        E 146 88 32 73
        E 0 98 40 73
        E 109 88 40 73
        E 0 98 32 73
        E 146 88 32 73
        E 0 98 40 73
        E 109 88 40 73
        E 0 98 32 73
        E 146 88 32 73
        E 0 98 40 73
        E 109 88 40 73
        E 0 98 32 73
        E 146 88 32 73
        E 0 98 40 73
        E 109 88 40 73
        E 0 98 32 73
        E 146 88 32 73
        E 0 98 40 73
        E 109 88 40 73
        E 0 98 32 73
        E 146 88 32 73
        E 0 98 40 73
        E 109 88 40 73
        E 0 98 32 73
        E 146 88 32 73
        E 0 98 40 73
        E 109 88 40 73
        E 0 98 32 73
        E 146 88 32 73
        E 0 98 40 73
        E 109 88 40 73
        E 0 98 32 73
        E 146 88 32 73
        E 0 98 40 73
        E 109 88 40 73
        E 0 98 32 73
        E 146 88 32 73
        E 0 98 40 73
        E 109 88 40 73
        E 0 98 32 73
        E 146 88 32 73
        E 0 98 40 73
        E 109 88 40 73
        E 49 b0 7b 00
        CCINTERP 32
        CHASE_CC_TAKEOFFS 1
        GUID {16442D0B-B0EE-554E-8689-4B9D406C4944}
        IGNTEMPO 0 120 4 4
        SRCCOLOR 65
        VELLANE 3 601 0
        VELLANE -1 196 0
      >
    >
  >
  <TRACK {863CE705-88B3-8B4F-9CED-F08C8E80C0C3}
    NAME "cannabis-infused gummies"
    PEAKCOL 16576
    BEAT -1
    AUTOMODE 0
    VOLPAN 1 0 -1 -1 1
    MUTESOLO 1 0 0
    IPHASE 0
    PLAYOFFS 0 1
    ISBUS 0 0
    BUSCOMP 0 0 0 0 0
    SHOWINMIX 1 0.6667 0.5 1 0.5 0 -1 0
    FREEMODE 0
    SEL 0
    REC 0 0 1 0 0 0 0
    VU 2
    TRACKHEIGHT 0 0 0 0 -1 0
    INQ 0 0 0 0.5 100 0 0 100
    NCHAN 2
    FX 1
    TRACKID {863CE705-88B3-8B4F-9CED-F08C8E80C0C3}
    PERF 0
    MIDIOUT -1
    MAINSEND 1 0
    <FXCHAIN
      SHOW 0
      LASTSEL 0
      DOCKED 0
      BYPASS 0 0 0
      <VST "VSTi: FM8 (Native Instruments GmbH)" FM8.vst 0 "" 1315530296<5653544E696638666D38000000000000> ""
        OGZpTu5e7f4AAAAAAgAAAAEAAAAAAAAAAgAAAAAAAAAYBwAAAQAAAAAAEAA=
        GAcAAAAAAAABAAAAaHNpbgEAAAAAAAAAN455D8DDx0mHoN4j0l/0WZYAAAAAAAAARFNJTnYAAAABAAAASAAAAAAAAABEU0lOagAAAAEAAAAYAAAAAAAAAERTSU4BAAAA
        AQAAAAEAAAABAAAAAQAAAAEAAAAAAAAAAAAAAAAAAAANYmWFAQAAAAhwEAAAAAAAAQAAAAEAAAAAAAAAAAAAAAAAAAADAAAAMAAwADAAAAAAAAAAAAAAAAAAAAAAAAEA
        AAABAAAAAAAAAERTSU5lAAAARgYAAAAAAAABAAAAaHNpbgEAAAAAAAAAMOH4NwAUwEaoogAOyNUgkW0AAAAAAAAARFNJTmUAAAABAAAANAAAAAAAAABEU0lOagAAAAEA
        AAAYAAAAAAAAAERTSU4BAAAAAQAAAAEAAAABAAAAAgAAAAEAAAAACAAAAAEAAAAKAAAAMQAuADIALgAwAC4AMQAwADEAMAABAAAAAwAAAAAAAABEU0lObAAAAKgBAAAA
        AAAAAQAAAGhzaW4BAAAAAAAAACA7190CLVtKvWPIjKqbw/t4AQAAAAAAAERTSU5sAAAAAQAAABgAAAAAAAAARFNJTgEAAAABAAAAAQAAAAEAAAACAAAAAQAAAAAAAAAI
        AAAATgBlAHcAUwBvAHUAbgBkAAcAAABuAG8AdAAgAHMAZQB0AAAAAAAAAAAAAAAAAAAAAAAAAAAAAAAAAAAAAAAAAAAAAAAAAAEAAAABAAAAAQAAAAMAAABGAE0AOAAA
        AAAAAAAAAAcAAAAHAAAAXABAAGMAbwBsAG8AcgABAAAAMAARAAAAXABAAGQAZQB2AGkAYwBlAHQAeQBwAGUAZgBsAGEAZwBzAAEAAAAxAAsAAABcAEAAcwBvAHUAbgBk
        AHQAeQBwAGUAAQAAADAABwAAAFwAQAB0AGUAbQBwAG8AAQAAADAABgAAAFwAQAB2AGUAcgBsAAUAAAAxAC4ANwAuADgABgAAAFwAQAB2AGUAcgBtAAUAAAAxAC4ANwAu
        ADgABwAAAFwAQAB2AGkAcwBpAGIAAQAAADAAAQAAAAAAAAACAAAARFNJTnkAAABoAAAAAAAAAAEAAABoc2luAQAAAAAAAABG64vCmumHRIQ9Mih2ujahOAAAAAAAAABE
        U0lOeQAAAAEAAAAYAAAAAAAAAERTSU4BAAAAAQAAAAEAAAABAAAAAQAAAAAAAAABAAAAAAAAAAEAAABEU0lOdAAAAHUDAAAAAAAAAQAAAGhzaW4BAAAAAAAAAMPiDYJz
        LJxOuWtBgMMVvqRFAwAAAAAAAERTSU50AAAAAQAAACwDAAAAAAAARFNJTnMAAAABAAAAGAAAAAAAAABEU0lOAQAAAAEAAAABAAAAAQAAAAG9DwAA8wIAAAK9DwBgAAAB
        IAUDaHNpbkAHQAAQHyRrBvAZSEqYrqFXTcEPPBhAFCAAA0RTSU5AI+AHA0AAQBsAbSAIAWkPIAQgAEAj4ANTEEkCYzKs2sVGp2B2wrYRj5w5oCfAN0Av4BdnQCMB8Q4g
        XCAAAAUgAwFjDCAEIAAIdHNycEU4TUbPIAsEvCMAAAcgBwZkZWZhdWx04BgKICoAP+ACAwNBAACAIA8AoCAH4AsAAPAgF0AfwAAAICAPwABgFwVAAABIQgDgBABAD0AD
        4BcfYAAge+AEA0AAwBPgAwBAE+AAAAPNzMw+IAwDP5qZGUAXwAPgABcgCuAHG0ATQADgBwdAACATYKtAACALYANAAEALQAAg42AAwA9AB0AD4AMAwA9AB0ADwABAC8AD
        QADAC8AHQADgAwtAAEAP4AMAIA/Bn8AHAMjhDnPgHwDgAO/gDgBAX0ADwABBz8H7QAtAAwCgIINAB0AAALQgCwCWIAPgAwDAP0AHQAPAAEAz4MdLIAAAAcAAIAuAAAAC
        wACADuAdAOAALAD+4B0v4CEAABTgISrgMADBA+AKAGBTgAXgAABChuAXA+AeAOD9WSBZIkBBUgH6Q0AH4FUMQ9VAZwH6Q6BnBYA/zLyMK+BVDOABACBnBAA/ZmZmYAPg
        YwwgAABwJOwB/kJAdCAA4D4MosLgAFaAAKBjgADgOAwgYwRwwgAAhmC6JliAA0BW4EEMIGPgAE3g8AAAUCAA4Of8AP/gFwAABEERCggyAwAAQDIAAAA8QikgAwHwQmLY
        AAEgAYLiIAcgAkKVgAagCSA3oAkgSKAJKxegCQAG4AAJKwSgEyAAoAmASKAGoBPgwk/gSwAAEaBUA2tuYWJBMcAAAYAAIAAAGaARA2N0bmlMiwERJ2FcTFBAAEocAaBC
        4hMPTInAH00bwAvg/QDgvQABIACAAANzaXVnQiQA6CNxwAAAKiAIABkgAyOYYAAj0mAAB2dwdGNZVE1FQAwLDWJlhQEAAAAAAAAAAQAAAAABAAAAAAAAAA==
        ADxkaXNhYmxlZD4AEAAAAA==
      >
      PRESETNAME <disabled>
      FLOATPOS 0 0 0 0
      FXID {23F3B2A5-05B7-DC42-8EA8-FCDBCBC45F75}
      WAK 0 0
    >
    <ITEM
      POSITION 0
      SNAPOFFS 0
      LENGTH 333.67298
      LOOP 1
      ALLTAKES 0
      FADEIN 1 0 0 1 0 0
      FADEOUT 1 0 0 1 0 0
      MUTE 0 0
      SEL 0
      IGUID {BA0BAEA6-FA6C-7C4F-9F19-4A6B693C71F8}
      IID 10
      NAME "cannabis-infused gummies.mid"
      VOLPAN 1 0 1 -1
      SOFFS 0 0
      PLAYRATE 1 1 0 -1 0 0.0025
      CHANMODE 0
      GUID {B09A2278-0E19-084A-AE8F-DED8F8253D8A}
      <SOURCE MIDI
        HASDATA 1 128 QN
        CCINTERP 32
        POOLEDEVTS {90842274-52F6-C946-831C-8EA5DFCDFB73}
        E 24576 99 40 73
        E 112 89 40 73
        E 0 99 3e 73
        E 48 89 3e 73
        E 0 99 40 73
        E 112 89 40 73
        E 0 99 3e 73
        E 48 89 3e 73
        E 0 99 40 73
        E 112 89 40 73
        E 0 99 3e 73
        E 48 89 3e 73
        E 0 99 40 73
        E 112 89 40 73
        E 0 99 3e 73
        E 48 89 3e 73
        E 0 99 40 73
        E 112 89 40 73
        E 0 99 3e 73
        E 48 89 3e 73
        E 0 99 40 73
        E 112 89 40 73
        E 0 99 3e 73
        E 48 89 3e 73
        E 0 99 40 73
        E 112 89 40 73
        E 0 99 3e 73
        E 48 89 3e 73
        E 0 99 40 73
        E 112 89 40 73
        E 0 99 3e 73
        E 48 89 3e 73
        E 0 99 40 73
        E 112 89 40 73
        E 0 99 3e 73
        E 48 89 3e 73
        E 0 99 40 73
        E 112 89 40 73
        E 0 99 3e 73
        E 48 89 3e 73
        E 0 99 40 73
        E 112 89 40 73
        E 0 99 3e 73
        E 48 89 3e 73
        E 0 99 40 73
        E 112 89 40 73
        E 0 99 3e 73
        E 48 89 3e 73
        E 0 99 40 73
        E 112 89 40 73
        E 0 99 3e 73
        E 48 89 3e 73
        E 0 99 40 73
        E 112 89 40 73
        E 0 99 3e 73
        E 48 89 3e 73
        E 0 99 40 73
        E 112 89 40 73
        E 0 99 3e 73
        E 48 89 3e 73
        E 0 99 40 73
        E 112 89 40 73
        E 0 99 3e 73
        E 48 89 3e 73
        E 0 99 40 73
        E 112 89 40 73
        E 0 99 3e 73
        E 48 89 3e 73
        E 0 99 40 73
        E 112 89 40 73
        E 0 99 3e 73
        E 48 89 3e 73
        E 0 99 40 73
        E 112 89 40 73
        E 0 99 3e 73
        E 48 89 3e 73
        E 0 99 40 73
        E 112 89 40 73
        E 0 99 3e 73
        E 48 89 3e 73
        E 0 99 40 73
        E 112 89 40 73
        E 0 99 3e 73
        E 48 89 3e 73
        E 0 99 40 73
        E 112 89 40 73
        E 0 99 3e 73
        E 48 89 3e 73
        E 0 99 40 73
        E 112 89 40 73
        E 0 99 3e 73
        E 48 89 3e 73
        E 0 99 40 73
        E 112 89 40 73
        E 0 99 3e 73
        E 48 89 3e 73
        E 0 99 40 73
        E 112 89 40 73
        E 0 99 3e 73
        E 48 89 3e 73
        E 0 99 40 73
        E 112 89 40 73
        E 0 99 3e 73
        E 48 89 3e 73
        E 0 99 40 73
        E 112 89 40 73
        E 0 99 3e 73
        E 48 89 3e 73
        E 0 99 40 73
        E 112 89 40 73
        E 0 99 3e 73
        E 48 89 3e 73
        E 0 99 40 73
        E 112 89 40 73
        E 0 99 3e 73
        E 48 89 3e 73
        E 0 99 40 73
        E 112 89 40 73
        E 0 99 3e 73
        E 48 89 3e 73
        E 0 99 40 73
        E 112 89 40 73
        E 0 99 3e 73
        E 48 89 3e 73
        E 0 99 40 73
        E 112 89 40 73
        E 0 99 3e 73
        E 48 89 3e 73
        E 0 99 40 73
        E 112 89 40 73
        E 0 99 3e 73
        E 48 89 3e 73
        E 0 99 40 73
        E 112 89 40 73
        E 0 99 3e 73
        E 48 89 3e 73
        E 0 99 40 73
        E 112 89 40 73
        E 0 99 3e 73
        E 48 89 3e 73
        E 0 99 40 73
        E 112 89 40 73
        E 0 99 3e 73
        E 48 89 3e 73
        E 0 99 40 73
        E 112 89 40 73
        E 0 99 3e 73
        E 48 89 3e 73
        E 0 99 40 73
        E 112 89 40 73
        E 0 99 3e 73
        E 48 89 3e 73
        E 0 99 40 73
        E 112 89 40 73
        E 0 99 3e 73
        E 48 89 3e 73
        E 0 99 40 73
        E 112 89 40 73
        E 0 99 3e 73
        E 48 89 3e 73
        E 0 99 40 73
        E 112 89 40 73
        E 0 99 3e 73
        E 48 89 3e 73
        E 0 99 40 73
        E 112 89 40 73
        E 0 99 3e 73
        E 48 89 3e 73
        E 0 99 40 73
        E 112 89 40 73
        E 0 99 3e 73
        E 48 89 3e 73
        E 0 99 40 73
        E 112 89 40 73
        E 0 99 3e 73
        E 48 89 3e 73
        E 0 99 40 73
        E 112 89 40 73
        E 0 99 3e 73
        E 48 89 3e 73
        E 0 99 40 73
        E 112 89 40 73
        E 0 99 3e 73
        E 48 89 3e 73
        E 0 99 40 73
        E 112 89 40 73
        E 0 99 3e 73
        E 48 89 3e 73
        E 0 99 40 73
        E 112 89 40 73
        E 0 99 3e 73
        E 48 89 3e 73
        E 0 99 40 73
        E 112 89 40 73
        E 0 99 3e 73
        E 48 89 3e 73
        E 0 99 40 73
        E 112 89 40 73
        E 0 99 3e 73
        E 48 89 3e 73
        E 0 99 40 73
        E 112 89 40 73
        E 0 99 3e 73
        E 48 89 3e 73
        E 0 99 40 73
        E 112 89 40 73
        E 0 99 3e 73
        E 48 89 3e 73
        E 0 99 40 73
        E 112 89 40 73
        E 0 99 3e 73
        E 48 89 3e 73
        E 0 99 40 73
        E 112 89 40 73
        E 0 99 3e 73
        E 48 89 3e 73
        E 0 99 40 73
        E 112 89 40 73
        E 0 99 3e 73
        E 48 89 3e 73
        E 0 99 40 73
        E 112 89 40 73
        E 0 99 3e 73
        E 48 89 3e 73
        E 0 99 40 73
        E 112 89 40 73
        E 0 99 3e 73
        E 48 89 3e 73
        E 0 99 40 73
        E 112 89 40 73
        E 0 99 3e 73
        E 48 89 3e 73
        E 0 99 40 73
        E 112 89 40 73
        E 0 99 3e 73
        E 48 89 3e 73
        E 0 99 40 73
        E 112 89 40 73
        E 0 99 3e 73
        E 48 89 3e 73
        E 0 99 40 73
        E 112 89 40 73
        E 0 99 3e 73
        E 48 89 3e 73
        E 0 99 40 73
        E 112 89 40 73
        E 0 99 3e 73
        E 48 89 3e 73
        E 0 99 40 73
        E 112 89 40 73
        E 0 99 3e 73
        E 48 89 3e 73
        E 0 99 40 73
        E 112 89 40 73
        E 0 99 3e 73
        E 48 89 3e 73
        E 0 99 35 73
        E 128 89 35 73
        E 0 99 40 73
        E 80 89 40 73
        E 0 99 3a 73
        E 32 89 3a 73
        E 0 99 35 73
        E 128 89 35 73
        E 0 99 40 73
        E 112 89 40 73
        E 0 99 3e 73
        E 48 89 3e 73
        E 0 99 37 73
        E 0 99 35 73
        E 128 89 35 73
        E 0 99 40 73
        E 80 89 40 73
        E 0 99 3a 73
        E 32 89 3a 73
        E 0 99 35 73
        E 128 89 35 73
        E 0 99 40 73
        E 112 89 40 73
        E 0 99 3e 73
        E 48 89 3e 73
        E 0 99 37 73
        E 0 99 35 73
        E 128 89 35 73
        E 0 99 40 73
        E 80 89 40 73
        E 0 99 3a 73
        E 32 89 3a 73
        E 0 99 35 73
        E 128 89 35 73
        E 0 99 40 73
        E 112 89 40 73
        E 0 99 3e 73
        E 48 89 3e 73
        E 0 99 37 73
        E 0 99 35 73
        E 128 89 35 73
        E 0 99 40 73
        E 80 89 40 73
        E 0 99 3a 73
        E 32 89 3a 73
        E 0 99 35 73
        E 128 89 35 73
        E 0 99 40 73
        E 112 89 40 73
        E 0 99 3e 73
        E 48 89 3e 73
        E 0 99 37 73
        E 0 99 35 73
        E 128 89 35 73
        E 0 99 40 73
        E 80 89 40 73
        E 0 99 3a 73
        E 32 89 3a 73
        E 0 99 35 73
        E 128 89 35 73
        E 0 99 40 73
        E 112 89 40 73
        E 0 99 3e 73
        E 48 89 3e 73
        E 0 99 37 73
        E 0 99 35 73
        E 128 89 35 73
        E 0 99 40 73
        E 80 89 40 73
        E 0 99 3a 73
        E 32 89 3a 73
        E 0 99 35 73
        E 128 89 35 73
        E 0 99 40 73
        E 112 89 40 73
        E 0 99 3e 73
        E 48 89 3e 73
        E 0 99 37 73
        E 0 99 35 73
        E 128 89 35 73
        E 0 99 40 73
        E 80 89 40 73
        E 0 99 3a 73
        E 32 89 3a 73
        E 0 99 35 73
        E 128 89 35 73
        E 0 99 40 73
        E 112 89 40 73
        E 0 99 3e 73
        E 48 89 3e 73
        E 0 99 37 73
        E 0 99 35 73
        E 128 89 35 73
        E 0 99 40 73
        E 80 89 40 73
        E 0 99 3a 73
        E 32 89 3a 73
        E 0 99 35 73
        E 128 89 35 73
        E 0 99 40 73
        E 112 89 40 73
        E 0 99 3e 73
        E 48 89 3e 73
        E 0 99 37 73
        E 0 99 35 73
        E 128 89 35 73
        E 0 99 40 73
        E 80 89 40 73
        E 0 99 3a 73
        E 32 89 3a 73
        E 0 99 35 73
        E 128 89 35 73
        E 0 99 40 73
        E 112 89 40 73
        E 0 99 3e 73
        E 48 89 3e 73
        E 0 99 37 73
        E 0 99 35 73
        E 128 89 35 73
        E 0 99 40 73
        E 80 89 40 73
        E 0 99 3a 73
        E 32 89 3a 73
        E 0 99 35 73
        E 128 89 35 73
        E 0 99 40 73
        E 112 89 40 73
        E 0 99 3e 73
        E 48 89 3e 73
        E 0 99 37 73
        E 0 99 35 73
        E 128 89 35 73
        E 0 99 40 73
        E 80 89 40 73
        E 0 99 3a 73
        E 32 89 3a 73
        E 0 99 35 73
        E 128 89 35 73
        E 0 99 40 73
        E 112 89 40 73
        E 0 99 3e 73
        E 48 89 3e 73
        E 0 99 37 73
        E 0 99 35 73
        E 128 89 35 73
        E 0 99 40 73
        E 80 89 40 73
        E 0 99 3a 73
        E 32 89 3a 73
        E 0 99 35 73
        E 128 89 35 73
        E 0 99 40 73
        E 112 89 40 73
        E 0 99 3e 73
        E 48 89 3e 73
        E 0 99 37 73
        E 0 99 35 73
        E 128 89 35 73
        E 0 99 40 73
        E 80 89 40 73
        E 0 99 3a 73
        E 32 89 3a 73
        E 0 99 35 73
        E 128 89 35 73
        E 0 99 40 73
        E 112 89 40 73
        E 0 99 3e 73
        E 48 89 3e 73
        E 0 99 37 73
        E 0 99 35 73
        E 128 89 35 73
        E 0 99 40 73
        E 80 89 40 73
        E 0 99 3a 73
        E 32 89 3a 73
        E 0 99 35 73
        E 128 89 35 73
        E 0 99 40 73
        E 112 89 40 73
        E 0 99 3e 73
        E 48 89 3e 73
        E 0 99 37 73
        E 0 99 35 73
        E 128 89 35 73
        E 0 99 40 73
        E 80 89 40 73
        E 0 99 3a 73
        E 32 89 3a 73
        E 0 99 35 73
        E 128 89 35 73
        E 0 99 40 73
        E 112 89 40 73
        E 0 99 3e 73
        E 48 89 3e 73
        E 0 99 37 73
        E 0 99 35 73
        E 128 89 35 73
        E 0 99 40 73
        E 80 89 40 73
        E 0 99 3a 73
        E 32 89 3a 73
        E 0 99 35 73
        E 128 89 35 73
        E 0 99 40 73
        E 112 89 40 73
        E 0 99 3e 73
        E 48 89 3e 73
        E 0 99 37 73
        E 0 99 35 73
        E 128 89 35 73
        E 0 99 40 73
        E 80 89 40 73
        E 0 99 3a 73
        E 32 89 3a 73
        E 0 99 35 73
        E 128 89 35 73
        E 0 99 40 73
        E 112 89 40 73
        E 0 99 3e 73
        E 48 89 3e 73
        E 0 99 37 73
        E 0 99 35 73
        E 128 89 35 73
        E 0 99 40 73
        E 80 89 40 73
        E 0 99 3a 73
        E 32 89 3a 73
        E 0 99 35 73
        E 128 89 35 73
        E 0 99 40 73
        E 112 89 40 73
        E 0 99 3e 73
        E 48 89 3e 73
        E 0 99 37 73
        E 0 99 35 73
        E 128 89 35 73
        E 0 99 40 73
        E 80 89 40 73
        E 0 99 3a 73
        E 32 89 3a 73
        E 0 99 35 73
        E 128 89 35 73
        E 0 99 40 73
        E 112 89 40 73
        E 0 99 3e 73
        E 48 89 3e 73
        E 0 99 37 73
        E 0 99 35 73
        E 128 89 35 73
        E 0 99 40 73
        E 80 89 40 73
        E 0 99 3a 73
        E 32 89 3a 73
        E 0 99 35 73
        E 128 89 35 73
        E 0 99 40 73
        E 112 89 40 73
        E 0 99 3e 73
        E 48 89 3e 73
        E 0 99 37 73
        E 0 99 35 73
        E 128 89 35 73
        E 0 99 40 73
        E 80 89 40 73
        E 0 99 3a 73
        E 32 89 3a 73
        E 0 99 35 73
        E 128 89 35 73
        E 0 99 40 73
        E 112 89 40 73
        E 0 99 3e 73
        E 48 89 3e 73
        E 0 99 37 73
        E 0 99 35 73
        E 128 89 35 73
        E 0 99 40 73
        E 80 89 40 73
        E 0 99 3a 73
        E 32 89 3a 73
        E 0 99 35 73
        E 128 89 35 73
        E 0 99 40 73
        E 112 89 40 73
        E 0 99 3e 73
        E 48 89 3e 73
        E 0 99 37 73
        E 0 99 35 73
        E 128 89 35 73
        E 0 99 40 73
        E 80 89 40 73
        E 0 99 3a 73
        E 32 89 3a 73
        E 0 99 35 73
        E 128 89 35 73
        E 0 99 40 73
        E 112 89 40 73
        E 0 99 3e 73
        E 48 89 3e 73
        E 0 99 37 73
        E 0 99 35 73
        E 128 89 35 73
        E 0 99 40 73
        E 80 89 40 73
        E 0 99 3a 73
        E 32 89 3a 73
        E 0 99 35 73
        E 128 89 35 73
        E 0 99 40 73
        E 112 89 40 73
        E 0 99 3e 73
        E 48 89 3e 73
        E 0 99 37 73
        E 0 99 35 73
        E 128 89 35 73
        E 0 99 40 73
        E 80 89 40 73
        E 0 99 3a 73
        E 32 89 3a 73
        E 0 99 35 73
        E 128 89 35 73
        E 0 99 40 73
        E 112 89 40 73
        E 0 99 3e 73
        E 48 89 3e 73
        E 0 99 37 73
        E 0 99 35 73
        E 128 89 35 73
        E 0 99 40 73
        E 80 89 40 73
        E 0 99 3a 73
        E 32 89 3a 73
        E 0 99 35 73
        E 128 89 35 73
        E 0 99 40 73
        E 112 89 40 73
        E 0 99 3e 73
        E 48 89 3e 73
        E 0 99 37 73
        E 0 99 35 73
        E 128 89 35 73
        E 0 99 40 73
        E 80 89 40 73
        E 0 99 3a 73
        E 32 89 3a 73
        E 0 99 35 73
        E 128 89 35 73
        E 0 99 40 73
        E 112 89 40 73
        E 0 99 3e 73
        E 48 89 3e 73
        E 0 99 37 73
        E 0 99 35 73
        E 128 89 35 73
        E 0 99 40 73
        E 80 89 40 73
        E 0 99 3a 73
        E 32 89 3a 73
        E 0 99 35 73
        E 128 89 35 73
        E 0 99 40 73
        E 112 89 40 73
        E 0 99 3e 73
        E 48 89 3e 73
        E 0 99 37 73
        E 0 99 35 73
        E 128 89 35 73
        E 0 99 40 73
        E 80 89 40 73
        E 0 99 3a 73
        E 32 89 3a 73
        E 0 99 35 73
        E 128 89 35 73
        E 0 99 40 73
        E 112 89 40 73
        E 0 99 3e 73
        E 48 89 3e 73
        E 0 99 37 73
        E 0 99 35 73
        E 128 89 35 73
        E 0 99 40 73
        E 80 89 40 73
        E 0 99 3a 73
        E 32 89 3a 73
        E 0 99 35 73
        E 128 89 35 73
        E 0 99 40 73
        E 112 89 40 73
        E 0 99 3e 73
        E 48 89 3e 73
        E 0 99 37 73
        E 0 99 35 73
        E 128 89 35 73
        E 0 99 40 73
        E 80 89 40 73
        E 0 99 3a 73
        E 32 89 3a 73
        E 0 99 35 73
        E 128 89 35 73
        E 0 99 40 73
        E 112 89 40 73
        E 0 99 3e 73
        E 48 89 3e 73
        E 0 99 37 73
        E 0 99 35 73
        E 128 89 35 73
        E 0 99 40 73
        E 80 89 40 73
        E 0 99 3a 73
        E 32 89 3a 73
        E 0 99 35 73
        E 128 89 35 73
        E 0 99 40 73
        E 112 89 40 73
        E 0 99 3e 73
        E 48 89 3e 73
        E 0 99 37 73
        E 0 99 35 73
        E 128 89 35 73
        E 0 99 40 73
        E 80 89 40 73
        E 0 99 3a 73
        E 32 89 3a 73
        E 0 99 35 73
        E 128 89 35 73
        E 0 99 40 73
        E 112 89 40 73
        E 0 99 3e 73
        E 48 89 3e 73
        E 0 99 37 73
        E 0 99 35 73
        E 128 89 35 73
        E 0 99 40 73
        E 80 89 40 73
        E 0 99 3a 73
        E 32 89 3a 73
        E 0 99 35 73
        E 128 89 35 73
        E 0 99 40 73
        E 112 89 40 73
        E 0 99 3e 73
        E 48 89 3e 73
        E 0 99 37 73
        E 0 99 35 73
        E 128 89 35 73
        E 0 99 40 73
        E 80 89 40 73
        E 0 99 3a 73
        E 32 89 3a 73
        E 0 99 35 73
        E 128 89 35 73
        E 0 99 40 73
        E 112 89 40 73
        E 0 99 3e 73
        E 48 89 3e 73
        E 0 99 37 73
        E 0 99 35 73
        E 128 89 35 73
        E 0 99 40 73
        E 80 89 40 73
        E 0 99 3a 73
        E 32 89 3a 73
        E 0 99 35 73
        E 128 89 35 73
        E 0 99 40 73
        E 112 89 40 73
        E 0 99 3e 73
        E 48 89 3e 73
        E 0 99 37 73
        E 0 99 35 73
        E 128 89 35 73
        E 0 99 40 73
        E 80 89 40 73
        E 0 99 3a 73
        E 32 89 3a 73
        E 0 99 35 73
        E 128 89 35 73
        E 0 99 40 73
        E 112 89 40 73
        E 0 99 3e 73
        E 48 89 3e 73
        E 0 99 37 73
        E 0 99 35 73
        E 128 89 35 73
        E 0 99 40 73
        E 80 89 40 73
        E 0 99 3a 73
        E 32 89 3a 73
        E 0 99 35 73
        E 128 89 35 73
        E 0 99 40 73
        E 112 89 40 73
        E 0 99 3e 73
        E 48 89 3e 73
        E 0 99 37 73
        E 0 99 35 73
        E 128 89 35 73
        E 0 99 40 73
        E 80 89 40 73
        E 0 99 3a 73
        E 32 89 3a 73
        E 0 99 35 73
        E 128 89 35 73
        E 0 99 40 73
        E 112 89 40 73
        E 0 99 3e 73
        E 48 89 3e 73
        E 0 99 37 73
        E 0 99 35 73
        E 128 89 35 73
        E 0 99 40 73
        E 80 89 40 73
        E 0 99 3a 73
        E 32 89 3a 73
        E 0 99 35 73
        E 128 89 35 73
        E 0 99 40 73
        E 112 89 40 73
        E 0 99 3e 73
        E 48 89 3e 73
        E 0 99 37 73
        E 0 99 32 73
        E 128 89 32 73
        E 0 99 40 73
        E 96 89 40 73
        E 0 99 32 73
        E 128 89 32 73
        E 0 99 40 73
        E 96 89 40 73
        E 0 99 32 73
        E 128 89 32 73
        E 0 99 40 73
        E 96 89 40 73
        E 0 99 32 73
        E 128 89 32 73
        E 0 99 40 73
        E 96 89 40 73
        E 0 99 32 73
        E 128 89 32 73
        E 0 99 40 73
        E 96 89 40 73
        E 0 99 32 73
        E 128 89 32 73
        E 0 99 40 73
        E 96 89 40 73
        E 0 99 32 73
        E 128 89 32 73
        E 0 99 40 73
        E 96 89 40 73
        E 0 99 32 73
        E 128 89 32 73
        E 0 99 40 73
        E 96 89 40 73
        E 0 99 32 73
        E 128 89 32 73
        E 0 99 40 73
        E 96 89 40 73
        E 0 99 32 73
        E 128 89 32 73
        E 0 99 40 73
        E 96 89 40 73
        E 0 99 32 73
        E 128 89 32 73
        E 0 99 40 73
        E 96 89 40 73
        E 0 99 32 73
        E 128 89 32 73
        E 0 99 40 73
        E 96 89 40 73
        E 0 99 32 73
        E 128 89 32 73
        E 0 99 40 73
        E 96 89 40 73
        E 0 99 32 73
        E 128 89 32 73
        E 0 99 40 73
        E 96 89 40 73
        E 0 99 32 73
        E 128 89 32 73
        E 0 99 40 73
        E 96 89 40 73
        E 0 99 32 73
        E 128 89 32 73
        E 0 99 40 73
        E 96 89 40 73
        E 0 99 40 73
        E 112 89 40 73
        E 0 99 3e 73
        E 48 89 3e 73
        E 0 99 40 73
        E 112 89 40 73
        E 0 99 3e 73
        E 48 89 3e 73
        E 0 99 40 73
        E 112 89 40 73
        E 0 99 3e 73
        E 48 89 3e 73
        E 0 99 40 73
        E 112 89 40 73
        E 0 99 3e 73
        E 48 89 3e 73
        E 0 99 40 73
        E 112 89 40 73
        E 0 99 3e 73
        E 48 89 3e 73
        E 0 99 40 73
        E 112 89 40 73
        E 0 99 3e 73
        E 48 89 3e 73
        E 0 99 40 73
        E 112 89 40 73
        E 0 99 3e 73
        E 48 89 3e 73
        E 0 99 40 73
        E 112 89 40 73
        E 0 99 3e 73
        E 48 89 3e 73
        E 0 99 40 73
        E 112 89 40 73
        E 0 99 3e 73
        E 48 89 3e 73
        E 0 99 40 73
        E 112 89 40 73
        E 0 99 3e 73
        E 48 89 3e 73
        E 0 99 40 73
        E 112 89 40 73
        E 0 99 3e 73
        E 48 89 3e 73
        E 0 99 40 73
        E 112 89 40 73
        E 0 99 3e 73
        E 48 89 3e 73
        E 0 99 40 73
        E 112 89 40 73
        E 0 99 3e 73
        E 48 89 3e 73
        E 0 99 40 73
        E 112 89 40 73
        E 0 99 3e 73
        E 48 89 3e 73
        E 0 99 40 73
        E 112 89 40 73
        E 0 99 3e 73
        E 48 89 3e 73
        E 0 99 40 73
        E 112 89 40 73
        E 0 99 3e 73
        E 48 89 3e 73
        E 0 99 40 73
        E 112 89 40 73
        E 0 99 3e 73
        E 48 89 3e 73
        E 0 99 40 73
        E 112 89 40 73
        E 0 99 3e 73
        E 48 89 3e 73
        E 0 99 40 73
        E 112 89 40 73
        E 0 99 3e 73
        E 48 89 3e 73
        E 0 99 40 73
        E 112 89 40 73
        E 0 99 3e 73
        E 48 89 3e 73
        E 0 99 40 73
        E 112 89 40 73
        E 0 99 3e 73
        E 48 89 3e 73
        E 0 99 40 73
        E 112 89 40 73
        E 0 99 3e 73
        E 48 89 3e 73
        E 0 99 40 73
        E 112 89 40 73
        E 0 99 3e 73
        E 48 89 3e 73
        E 0 99 40 73
        E 112 89 40 73
        E 0 99 3e 73
        E 48 89 3e 73
        E 0 99 40 73
        E 112 89 40 73
        E 0 99 3e 73
        E 48 89 3e 73
        E 0 99 40 73
        E 112 89 40 73
        E 0 99 3e 73
        E 48 89 3e 73
        E 0 99 40 73
        E 112 89 40 73
        E 0 99 3e 73
        E 48 89 3e 73
        E 0 99 40 73
        E 112 89 40 73
        E 0 99 3e 73
        E 48 89 3e 73
        E 0 99 40 73
        E 112 89 40 73
        E 0 99 3e 73
        E 48 89 3e 73
        E 0 99 40 73
        E 112 89 40 73
        E 0 99 3e 73
        E 48 89 3e 73
        E 0 99 40 73
        E 112 89 40 73
        E 0 99 3e 73
        E 48 89 3e 73
        E 0 99 40 73
        E 112 89 40 73
        E 0 99 3e 73
        E 48 89 3e 73
        E 0 99 40 73
        E 112 89 40 73
        E 0 99 3e 73
        E 48 89 3e 73
        E 0 99 40 73
        E 112 89 40 73
        E 0 99 3e 73
        E 48 89 3e 73
        E 0 99 40 73
        E 112 89 40 73
        E 0 99 3e 73
        E 48 89 3e 73
        E 0 99 40 73
        E 112 89 40 73
        E 0 99 3e 73
        E 48 89 3e 73
        E 0 99 40 73
        E 112 89 40 73
        E 0 99 3e 73
        E 48 89 3e 73
        E 0 99 40 73
        E 112 89 40 73
        E 0 99 3e 73
        E 48 89 3e 73
        E 0 99 40 73
        E 112 89 40 73
        E 0 99 3e 73
        E 48 89 3e 73
        E 0 99 40 73
        E 112 89 40 73
        E 0 99 3e 73
        E 48 89 3e 73
        E 0 99 40 73
        E 112 89 40 73
        E 0 99 3e 73
        E 48 89 3e 73
        E 0 99 40 73
        E 112 89 40 73
        E 0 99 3e 73
        E 48 89 3e 73
        E 0 99 40 73
        E 112 89 40 73
        E 0 99 3e 73
        E 48 89 3e 73
        E 0 99 40 73
        E 112 89 40 73
        E 0 99 3e 73
        E 48 89 3e 73
        E 0 99 40 73
        E 112 89 40 73
        E 0 99 3e 73
        E 48 89 3e 73
        E 0 99 40 73
        E 112 89 40 73
        E 0 99 3e 73
        E 48 89 3e 73
        E 0 99 40 73
        E 112 89 40 73
        E 0 99 3e 73
        E 48 89 3e 73
        E 0 99 40 73
        E 112 89 40 73
        E 0 99 3e 73
        E 48 89 3e 73
        E 0 99 40 73
        E 112 89 40 73
        E 0 99 3e 73
        E 48 89 3e 73
        E 0 99 40 73
        E 112 89 40 73
        E 0 99 3e 73
        E 48 89 3e 73
        E 0 99 40 73
        E 112 89 40 73
        E 0 99 3e 73
        E 48 89 3e 73
        E 0 99 40 73
        E 112 89 40 73
        E 0 99 3e 73
        E 48 89 3e 73
        E 0 99 40 73
        E 112 89 40 73
        E 0 99 3e 73
        E 48 89 3e 73
        E 0 99 40 73
        E 112 89 40 73
        E 0 99 3e 73
        E 48 89 3e 73
        E 0 99 40 73
        E 112 89 40 73
        E 0 99 3e 73
        E 48 89 3e 73
        E 0 99 40 73
        E 112 89 40 73
        E 0 99 3e 73
        E 48 89 3e 73
        E 0 99 40 73
        E 112 89 40 73
        E 0 99 3e 73
        E 48 89 3e 73
        E 0 99 40 73
        E 112 89 40 73
        E 0 99 3e 73
        E 48 89 3e 73
        E 0 99 40 73
        E 112 89 40 73
        E 0 99 3e 73
        E 48 89 3e 73
        E 0 99 40 73
        E 112 89 40 73
        E 0 99 3e 73
        E 48 89 3e 73
        E 0 99 40 73
        E 112 89 40 73
        E 0 99 3e 73
        E 48 89 3e 73
        E 0 99 40 73
        E 112 89 40 73
        E 0 99 3e 73
        E 48 89 3e 73
        E 0 99 40 73
        E 112 89 40 73
        E 0 99 3e 73
        E 48 89 3e 73
        E 0 99 40 73
        E 112 89 40 73
        E 0 99 3e 73
        E 47 89 3e 73
        E 1 b0 7b 00
        CCINTERP 32
        CHASE_CC_TAKEOFFS 1
        GUID {D958B3AE-B2E9-3244-8E06-B291634AD30E}
        IGNTEMPO 0 120 4 4
        SRCCOLOR 66
        VELLANE 3 601 0
        VELLANE -1 196 0
      >
    >
  >
  <TRACK {E14F2ACF-C5BB-5644-B128-54922C55218C}
    NAME "cannabis-infused gummies"
    PEAKCOL 16576
    BEAT -1
    AUTOMODE 0
    VOLPAN 1 0 -1 -1 1
    MUTESOLO 1 0 0
    IPHASE 0
    PLAYOFFS 0 1
    ISBUS 0 0
    BUSCOMP 0 0 0 0 0
    SHOWINMIX 1 0.6667 0.5 1 0.5 0 -1 0
    FREEMODE 0
    SEL 0
    REC 0 0 1 0 0 0 0
    VU 2
    TRACKHEIGHT 0 0 0 0 -1 0
    INQ 0 0 0 0.5 100 0 0 100
    NCHAN 2
    FX 1
    TRACKID {E14F2ACF-C5BB-5644-B128-54922C55218C}
    PERF 0
    MIDIOUT -1
    MAINSEND 1 0
    <FXCHAIN
      SHOW 0
      LASTSEL 0
      DOCKED 0
      BYPASS 0 0 0
      <VST "VSTi: FM8 (Native Instruments GmbH)" FM8.vst 0 "" 1315530296<5653544E696638666D38000000000000> ""
        OGZpTu5e7f4AAAAAAgAAAAEAAAAAAAAAAgAAAAAAAAAYBwAAAQAAAAAAEAA=
        GAcAAAAAAAABAAAAaHNpbgEAAAAAAAAAN455D8DDx0mHoN4j0l/0WZYAAAAAAAAARFNJTnYAAAABAAAASAAAAAAAAABEU0lOagAAAAEAAAAYAAAAAAAAAERTSU4BAAAA
        AQAAAAEAAAABAAAAAQAAAAEAAAAAAAAAAAAAAAAAAAANYmWFAQAAAAhwEAAAAAAAAQAAAAEAAAAAAAAAAAAAAAAAAAADAAAAMAAwADAAAAAAAAAAAAAAAAAAAAAAAAEA
        AAABAAAAAAAAAERTSU5lAAAARgYAAAAAAAABAAAAaHNpbgEAAAAAAAAAMOH4NwAUwEaoogAOyNUgkW0AAAAAAAAARFNJTmUAAAABAAAANAAAAAAAAABEU0lOagAAAAEA
        AAAYAAAAAAAAAERTSU4BAAAAAQAAAAEAAAABAAAAAgAAAAEAAAAACAAAAAEAAAAKAAAAMQAuADIALgAwAC4AMQAwADEAMAABAAAAAwAAAAAAAABEU0lObAAAAKgBAAAA
        AAAAAQAAAGhzaW4BAAAAAAAAACA7190CLVtKvWPIjKqbw/t4AQAAAAAAAERTSU5sAAAAAQAAABgAAAAAAAAARFNJTgEAAAABAAAAAQAAAAEAAAACAAAAAQAAAAAAAAAI
        AAAATgBlAHcAUwBvAHUAbgBkAAcAAABuAG8AdAAgAHMAZQB0AAAAAAAAAAAAAAAAAAAAAAAAAAAAAAAAAAAAAAAAAAAAAAAAAAEAAAABAAAAAQAAAAMAAABGAE0AOAAA
        AAAAAAAAAAcAAAAHAAAAXABAAGMAbwBsAG8AcgABAAAAMAARAAAAXABAAGQAZQB2AGkAYwBlAHQAeQBwAGUAZgBsAGEAZwBzAAEAAAAxAAsAAABcAEAAcwBvAHUAbgBk
        AHQAeQBwAGUAAQAAADAABwAAAFwAQAB0AGUAbQBwAG8AAQAAADAABgAAAFwAQAB2AGUAcgBsAAUAAAAxAC4ANwAuADgABgAAAFwAQAB2AGUAcgBtAAUAAAAxAC4ANwAu
        ADgABwAAAFwAQAB2AGkAcwBpAGIAAQAAADAAAQAAAAAAAAACAAAARFNJTnkAAABoAAAAAAAAAAEAAABoc2luAQAAAAAAAABG64vCmumHRIQ9Mih2ujahOAAAAAAAAABE
        U0lOeQAAAAEAAAAYAAAAAAAAAERTSU4BAAAAAQAAAAEAAAABAAAAAQAAAAAAAAABAAAAAAAAAAEAAABEU0lOdAAAAHUDAAAAAAAAAQAAAGhzaW4BAAAAAAAAAMPiDYJz
        LJxOuWtBgMMVvqRFAwAAAAAAAERTSU50AAAAAQAAACwDAAAAAAAARFNJTnMAAAABAAAAGAAAAAAAAABEU0lOAQAAAAEAAAABAAAAAQAAAAG9DwAA8wIAAAK9DwBgAAAB
        IAUDaHNpbkAHQAAQHyRrBvAZSEqYrqFXTcEPPBhAFCAAA0RTSU5AI+AHA0AAQBsAbSAIAWkPIAQgAEAj4ANTEEkCYzKs2sVGp2B2wrYRj5w5oCfAN0Av4BdnQCMB8Q4g
        XCAAAAUgAwFjDCAEIAAIdHNycEU4TUbPIAsEvCMAAAcgBwZkZWZhdWx04BgKICoAP+ACAwNBAACAIA8AoCAH4AsAAPAgF0AfwAAAICAPwABgFwVAAABIQgDgBABAD0AD
        4BcfYAAge+AEA0AAwBPgAwBAE+AAAAPNzMw+IAwDP5qZGUAXwAPgABcgCuAHG0ATQADgBwdAACATYKtAACALYANAAEALQAAg42AAwA9AB0AD4AMAwA9AB0ADwABAC8AD
        QADAC8AHQADgAwtAAEAP4AMAIA/Bn8AHAMjhDnPgHwDgAO/gDgBAX0ADwABBz8H7QAtAAwCgIINAB0AAALQgCwCWIAPgAwDAP0AHQAPAAEAz4MdLIAAAAcAAIAuAAAAC
        wACADuAdAOAALAD+4B0v4CEAABTgISrgMADBA+AKAGBTgAXgAABChuAXA+AeAOD9WSBZIkBBUgH6Q0AH4FUMQ9VAZwH6Q6BnBYA/zLyMK+BVDOABACBnBAA/ZmZmYAPg
        YwwgAABwJOwB/kJAdCAA4D4MosLgAFaAAKBjgADgOAwgYwRwwgAAhmC6JliAA0BW4EEMIGPgAE3g8AAAUCAA4Of8AP/gFwAABEERCggyAwAAQDIAAAA8QikgAwHwQmLY
        AAEgAYLiIAcgAkKVgAagCSA3oAkgSKAJKxegCQAG4AAJKwSgEyAAoAmASKAGoBPgwk/gSwAAEaBUA2tuYWJBMcAAAYAAIAAAGaARA2N0bmlMiwERJ2FcTFBAAEocAaBC
        4hMPTInAH00bwAvg/QDgvQABIACAAANzaXVnQiQA6CNxwAAAKiAIABkgAyOYYAAj0mAAB2dwdGNZVE1FQAwLDWJlhQEAAAAAAAAAAQAAAAABAAAAAAAAAA==
        ADxkaXNhYmxlZD4AEAAAAA==
      >
      PRESETNAME <disabled>
      FLOATPOS 0 0 0 0
      FXID {EA0B2281-F063-3D4A-B575-FB243F6E23F6}
      WAK 0 0
    >
    <ITEM
      POSITION 0
      SNAPOFFS 0
      LENGTH 255.305748
      LOOP 1
      ALLTAKES 0
      FADEIN 1 0 0 1 0 0
      FADEOUT 1 0 0 1 0 0
      MUTE 0 0
      SEL 0
      IGUID {507636E9-2F38-984C-829B-B53BB263D9B8}
      IID 11
      NAME "cannabis-infused gummies.mid"
      VOLPAN 1 0 1 -1
      SOFFS 0 0
      PLAYRATE 1 1 0 -1 0 0.0025
      CHANMODE 0
      GUID {53C5DD1B-233A-6A4B-95B3-8E588E033387}
      <SOURCE MIDI
        HASDATA 1 128 QN
        CCINTERP 32
        POOLEDEVTS {B76F1A9B-2F5B-E64B-BF5E-B07D8F2149E9}
        E 28672 9a 35 73
        E 341 8a 35 73
        E 0 9a 40 73
        E 213 8a 40 73
        E 0 9a 3a 73
        E 85 8a 3a 73
        E 0 9a 35 73
        E 341 8a 35 73
        E 0 9a 40 73
        E 298 8a 40 73
        E 0 9a 3e 73
        E 128 8a 3e 73
        E 0 9a 37 73
        E 0 9a 35 73
        E 341 8a 35 73
        E 0 9a 40 73
        E 213 8a 40 73
        E 0 9a 3a 73
        E 85 8a 3a 73
        E 0 9a 35 73
        E 341 8a 35 73
        E 0 9a 40 73
        E 298 8a 40 73
        E 0 9a 3e 73
        E 128 8a 3e 73
        E 0 9a 37 73
        E 0 9a 35 73
        E 341 8a 35 73
        E 0 9a 40 73
        E 213 8a 40 73
        E 0 9a 3a 73
        E 85 8a 3a 73
        E 0 9a 35 73
        E 341 8a 35 73
        E 0 9a 40 73
        E 298 8a 40 73
        E 0 9a 3e 73
        E 128 8a 3e 73
        E 0 9a 37 73
        E 0 9a 35 73
        E 341 8a 35 73
        E 0 9a 40 73
        E 213 8a 40 73
        E 0 9a 3a 73
        E 85 8a 3a 73
        E 0 9a 35 73
        E 341 8a 35 73
        E 0 9a 40 73
        E 298 8a 40 73
        E 0 9a 3e 73
        E 128 8a 3e 73
        E 0 9a 37 73
        E 0 9a 35 73
        E 341 8a 35 73
        E 0 9a 40 73
        E 213 8a 40 73
        E 0 9a 3a 73
        E 85 8a 3a 73
        E 0 9a 35 73
        E 341 8a 35 73
        E 0 9a 40 73
        E 298 8a 40 73
        E 0 9a 3e 73
        E 128 8a 3e 73
        E 0 9a 37 73
        E 0 9a 35 73
        E 341 8a 35 73
        E 0 9a 40 73
        E 213 8a 40 73
        E 0 9a 3a 73
        E 85 8a 3a 73
        E 0 9a 35 73
        E 341 8a 35 73
        E 0 9a 40 73
        E 298 8a 40 73
        E 0 9a 3e 73
        E 128 8a 3e 73
        E 0 9a 37 73
        E 0 9a 35 73
        E 341 8a 35 73
        E 0 9a 40 73
        E 213 8a 40 73
        E 0 9a 3a 73
        E 85 8a 3a 73
        E 0 9a 35 73
        E 341 8a 35 73
        E 0 9a 40 73
        E 298 8a 40 73
        E 0 9a 3e 73
        E 128 8a 3e 73
        E 0 9a 37 73
        E 0 9a 35 73
        E 341 8a 35 73
        E 0 9a 40 73
        E 213 8a 40 73
        E 0 9a 3a 73
        E 85 8a 3a 73
        E 0 9a 35 73
        E 341 8a 35 73
        E 0 9a 40 73
        E 298 8a 40 73
        E 0 9a 3e 73
        E 128 8a 3e 73
        E 0 9a 37 73
        E 0 9a 35 73
        E 341 8a 35 73
        E 0 9a 40 73
        E 213 8a 40 73
        E 0 9a 3a 73
        E 85 8a 3a 73
        E 0 9a 35 73
        E 341 8a 35 73
        E 0 9a 40 73
        E 298 8a 40 73
        E 0 9a 3e 73
        E 128 8a 3e 73
        E 0 9a 37 73
        E 0 9a 35 73
        E 341 8a 35 73
        E 0 9a 40 73
        E 213 8a 40 73
        E 0 9a 3a 73
        E 85 8a 3a 73
        E 0 9a 35 73
        E 341 8a 35 73
        E 0 9a 40 73
        E 298 8a 40 73
        E 0 9a 3e 73
        E 128 8a 3e 73
        E 0 9a 37 73
        E 0 9a 35 73
        E 341 8a 35 73
        E 0 9a 40 73
        E 213 8a 40 73
        E 0 9a 3a 73
        E 85 8a 3a 73
        E 0 9a 35 73
        E 341 8a 35 73
        E 0 9a 40 73
        E 298 8a 40 73
        E 0 9a 3e 73
        E 128 8a 3e 73
        E 0 9a 37 73
        E 0 9a 35 73
        E 341 8a 35 73
        E 0 9a 40 73
        E 213 8a 40 73
        E 0 9a 3a 73
        E 85 8a 3a 73
        E 0 9a 35 73
        E 341 8a 35 73
        E 0 9a 40 73
        E 298 8a 40 73
        E 0 9a 3e 73
        E 128 8a 3e 73
        E 0 9a 37 73
        E 0 9a 35 73
        E 341 8a 35 73
        E 0 9a 40 73
        E 213 8a 40 73
        E 0 9a 3a 73
        E 85 8a 3a 73
        E 0 9a 35 73
        E 341 8a 35 73
        E 0 9a 40 73
        E 298 8a 40 73
        E 0 9a 3e 73
        E 128 8a 3e 73
        E 0 9a 37 73
        E 0 9a 35 73
        E 341 8a 35 73
        E 0 9a 40 73
        E 213 8a 40 73
        E 0 9a 3a 73
        E 85 8a 3a 73
        E 0 9a 35 73
        E 341 8a 35 73
        E 0 9a 40 73
        E 298 8a 40 73
        E 0 9a 3e 73
        E 128 8a 3e 73
        E 0 9a 37 73
        E 0 9a 35 73
        E 341 8a 35 73
        E 0 9a 40 73
        E 213 8a 40 73
        E 0 9a 3a 73
        E 85 8a 3a 73
        E 0 9a 35 73
        E 341 8a 35 73
        E 0 9a 40 73
        E 298 8a 40 73
        E 0 9a 3e 73
        E 128 8a 3e 73
        E 0 9a 37 73
        E 0 9a 32 73
        E 341 8a 32 73
        E 0 9a 40 73
        E 256 8a 40 73
        E 0 9a 32 73
        E 341 8a 32 73
        E 0 9a 40 73
        E 256 8a 40 73
        E 0 9a 32 73
        E 341 8a 32 73
        E 0 9a 40 73
        E 256 8a 40 73
        E 0 9a 32 73
        E 341 8a 32 73
        E 0 9a 40 73
        E 256 8a 40 73
        E 0 9a 32 73
        E 341 8a 32 73
        E 0 9a 40 73
        E 256 8a 40 73
        E 0 9a 32 73
        E 341 8a 32 73
        E 0 9a 40 73
        E 256 8a 40 73
        E 32 b0 7b 00
        CCINTERP 32
        CHASE_CC_TAKEOFFS 1
        GUID {AB9F2392-98F6-9842-B1E1-B1BEAA4E550D}
        IGNTEMPO 0 120 4 4
        SRCCOLOR 67
        VELLANE 3 601 0
        VELLANE -1 196 0
      >
    >
  >
  <TRACK {9C9F8C62-EEED-9847-8963-900FE3C2F90A}
    NAME "cannabis-infused gummies"
    PEAKCOL 16576
    BEAT -1
    AUTOMODE 0
    VOLPAN 1 0 -1 -1 1
    MUTESOLO 1 0 0
    IPHASE 0
    PLAYOFFS 0 1
    ISBUS 0 0
    BUSCOMP 0 0 0 0 0
    SHOWINMIX 1 0.6667 0.5 1 0.5 0 -1 0
    FREEMODE 0
    SEL 0
    REC 0 0 1 0 0 0 0
    VU 2
    TRACKHEIGHT 0 0 0 0 -1 0
    INQ 0 0 0 0.5 100 0 0 100
    NCHAN 2
    FX 1
    TRACKID {9C9F8C62-EEED-9847-8963-900FE3C2F90A}
    PERF 0
    MIDIOUT -1
    MAINSEND 1 0
    <FXCHAIN
      SHOW 0
      LASTSEL 0
      DOCKED 0
      BYPASS 0 0 0
      <VST "VSTi: FM8 (Native Instruments GmbH)" FM8.vst 0 "" 1315530296<5653544E696638666D38000000000000> ""
        OGZpTu5e7f4AAAAAAgAAAAEAAAAAAAAAAgAAAAAAAAAYBwAAAQAAAAAAEAA=
        GAcAAAAAAAABAAAAaHNpbgEAAAAAAAAAN455D8DDx0mHoN4j0l/0WZYAAAAAAAAARFNJTnYAAAABAAAASAAAAAAAAABEU0lOagAAAAEAAAAYAAAAAAAAAERTSU4BAAAA
        AQAAAAEAAAABAAAAAQAAAAEAAAAAAAAAAAAAAAAAAAANYmWFAQAAAAhwEAAAAAAAAQAAAAEAAAAAAAAAAAAAAAAAAAADAAAAMAAwADAAAAAAAAAAAAAAAAAAAAAAAAEA
        AAABAAAAAAAAAERTSU5lAAAARgYAAAAAAAABAAAAaHNpbgEAAAAAAAAAMOH4NwAUwEaoogAOyNUgkW0AAAAAAAAARFNJTmUAAAABAAAANAAAAAAAAABEU0lOagAAAAEA
        AAAYAAAAAAAAAERTSU4BAAAAAQAAAAEAAAABAAAAAgAAAAEAAAAACAAAAAEAAAAKAAAAMQAuADIALgAwAC4AMQAwADEAMAABAAAAAwAAAAAAAABEU0lObAAAAKgBAAAA
        AAAAAQAAAGhzaW4BAAAAAAAAACA7190CLVtKvWPIjKqbw/t4AQAAAAAAAERTSU5sAAAAAQAAABgAAAAAAAAARFNJTgEAAAABAAAAAQAAAAEAAAACAAAAAQAAAAAAAAAI
        AAAATgBlAHcAUwBvAHUAbgBkAAcAAABuAG8AdAAgAHMAZQB0AAAAAAAAAAAAAAAAAAAAAAAAAAAAAAAAAAAAAAAAAAAAAAAAAAEAAAABAAAAAQAAAAMAAABGAE0AOAAA
        AAAAAAAAAAcAAAAHAAAAXABAAGMAbwBsAG8AcgABAAAAMAARAAAAXABAAGQAZQB2AGkAYwBlAHQAeQBwAGUAZgBsAGEAZwBzAAEAAAAxAAsAAABcAEAAcwBvAHUAbgBk
        AHQAeQBwAGUAAQAAADAABwAAAFwAQAB0AGUAbQBwAG8AAQAAADAABgAAAFwAQAB2AGUAcgBsAAUAAAAxAC4ANwAuADgABgAAAFwAQAB2AGUAcgBtAAUAAAAxAC4ANwAu
        ADgABwAAAFwAQAB2AGkAcwBpAGIAAQAAADAAAQAAAAAAAAACAAAARFNJTnkAAABoAAAAAAAAAAEAAABoc2luAQAAAAAAAABG64vCmumHRIQ9Mih2ujahOAAAAAAAAABE
        U0lOeQAAAAEAAAAYAAAAAAAAAERTSU4BAAAAAQAAAAEAAAABAAAAAQAAAAAAAAABAAAAAAAAAAEAAABEU0lOdAAAAHUDAAAAAAAAAQAAAGhzaW4BAAAAAAAAAMPiDYJz
        LJxOuWtBgMMVvqRFAwAAAAAAAERTSU50AAAAAQAAACwDAAAAAAAARFNJTnMAAAABAAAAGAAAAAAAAABEU0lOAQAAAAEAAAABAAAAAQAAAAG9DwAA8wIAAAK9DwBgAAAB
        IAUDaHNpbkAHQAAQHyRrBvAZSEqYrqFXTcEPPBhAFCAAA0RTSU5AI+AHA0AAQBsAbSAIAWkPIAQgAEAj4ANTEEkCYzKs2sVGp2B2wrYRj5w5oCfAN0Av4BdnQCMB8Q4g
        XCAAAAUgAwFjDCAEIAAIdHNycEU4TUbPIAsEvCMAAAcgBwZkZWZhdWx04BgKICoAP+ACAwNBAACAIA8AoCAH4AsAAPAgF0AfwAAAICAPwABgFwVAAABIQgDgBABAD0AD
        4BcfYAAge+AEA0AAwBPgAwBAE+AAAAPNzMw+IAwDP5qZGUAXwAPgABcgCuAHG0ATQADgBwdAACATYKtAACALYANAAEALQAAg42AAwA9AB0AD4AMAwA9AB0ADwABAC8AD
        QADAC8AHQADgAwtAAEAP4AMAIA/Bn8AHAMjhDnPgHwDgAO/gDgBAX0ADwABBz8H7QAtAAwCgIINAB0AAALQgCwCWIAPgAwDAP0AHQAPAAEAz4MdLIAAAAcAAIAuAAAAC
        wACADuAdAOAALAD+4B0v4CEAABTgISrgMADBA+AKAGBTgAXgAABChuAXA+AeAOD9WSBZIkBBUgH6Q0AH4FUMQ9VAZwH6Q6BnBYA/zLyMK+BVDOABACBnBAA/ZmZmYAPg
        YwwgAABwJOwB/kJAdCAA4D4MosLgAFaAAKBjgADgOAwgYwRwwgAAhmC6JliAA0BW4EEMIGPgAE3g8AAAUCAA4Of8AP/gFwAABEERCggyAwAAQDIAAAA8QikgAwHwQmLY
        AAEgAYLiIAcgAkKVgAagCSA3oAkgSKAJKxegCQAG4AAJKwSgEyAAoAmASKAGoBPgwk/gSwAAEaBUA2tuYWJBMcAAAYAAIAAAGaARA2N0bmlMiwERJ2FcTFBAAEocAaBC
        4hMPTInAH00bwAvg/QDgvQABIACAAANzaXVnQiQA6CNxwAAAKiAIABkgAyOYYAAj0mAAB2dwdGNZVE1FQAwLDWJlhQEAAAAAAAAAAQAAAAABAAAAAAAAAA==
        ADxkaXNhYmxlZD4AEAAAAA==
      >
      PRESETNAME <disabled>
      FLOATPOS 0 0 0 0
      FXID {BE9DE37C-3420-824E-9480-C3020287B986}
      WAK 0 0
    >
    <ITEM
      POSITION 0
      SNAPOFFS 0
      LENGTH 303.673024
      LOOP 1
      ALLTAKES 0
      FADEIN 1 0 0 1 0 0
      FADEOUT 1 0 0 1 0 0
      MUTE 0 0
      SEL 0
      IGUID {BB1D9DDE-6B83-7D47-90A2-9B6B1BD8CDAD}
      IID 12
      NAME "cannabis-infused gummies.mid"
      VOLPAN 1 0 1 -1
      SOFFS 0 0
      PLAYRATE 1 1 0 -1 0 0.0025
      CHANMODE 0
      GUID {DC232E28-78E1-9B42-8AEE-8BBF97F2DC15}
      <SOURCE MIDI
        HASDATA 1 128 QN
        CCINTERP 32
        POOLEDEVTS {544516F2-C96A-2F47-9560-DC5045B10597}
        E 8192 9b 32 73
        E 113 8b 32 73
        E 0 9b 40 73
        E 85 8b 40 73
        E 0 9b 32 73
        E 113 8b 32 73
        E 0 9b 40 73
        E 85 8b 40 73
        E 0 9b 32 73
        E 113 8b 32 73
        E 0 9b 40 73
        E 85 8b 40 73
        E 0 9b 32 73
        E 113 8b 32 73
        E 0 9b 40 73
        E 85 8b 40 73
        E 0 9b 32 73
        E 113 8b 32 73
        E 0 9b 40 73
        E 85 8b 40 73
        E 0 9b 32 73
        E 113 8b 32 73
        E 0 9b 40 73
        E 85 8b 40 73
        E 0 9b 32 73
        E 113 8b 32 73
        E 0 9b 40 73
        E 85 8b 40 73
        E 0 9b 32 73
        E 113 8b 32 73
        E 0 9b 40 73
        E 85 8b 40 73
        E 0 9b 32 73
        E 113 8b 32 73
        E 0 9b 40 73
        E 85 8b 40 73
        E 0 9b 32 73
        E 113 8b 32 73
        E 0 9b 40 73
        E 85 8b 40 73
        E 0 9b 32 73
        E 113 8b 32 73
        E 0 9b 40 73
        E 85 8b 40 73
        E 0 9b 32 73
        E 113 8b 32 73
        E 0 9b 40 73
        E 85 8b 40 73
        E 0 9b 32 73
        E 113 8b 32 73
        E 0 9b 40 73
        E 85 8b 40 73
        E 0 9b 32 73
        E 113 8b 32 73
        E 0 9b 40 73
        E 85 8b 40 73
        E 0 9b 32 73
        E 113 8b 32 73
        E 0 9b 40 73
        E 85 8b 40 73
        E 0 9b 32 73
        E 113 8b 32 73
        E 0 9b 40 73
        E 85 8b 40 73
        E 0 9b 32 73
        E 113 8b 32 73
        E 0 9b 40 73
        E 85 8b 40 73
        E 0 9b 32 73
        E 113 8b 32 73
        E 0 9b 40 73
        E 85 8b 40 73
        E 0 9b 40 73
        E 99 8b 40 73
        E 0 9b 3e 73
        E 42 8b 3e 73
        E 0 9b 40 73
        E 99 8b 40 73
        E 0 9b 3e 73
        E 42 8b 3e 73
        E 0 9b 40 73
        E 99 8b 40 73
        E 0 9b 3e 73
        E 42 8b 3e 73
        E 0 9b 40 73
        E 99 8b 40 73
        E 0 9b 3e 73
        E 42 8b 3e 73
        E 0 9b 40 73
        E 99 8b 40 73
        E 0 9b 3e 73
        E 42 8b 3e 73
        E 0 9b 40 73
        E 99 8b 40 73
        E 0 9b 3e 73
        E 42 8b 3e 73
        E 0 9b 40 73
        E 99 8b 40 73
        E 0 9b 3e 73
        E 42 8b 3e 73
        E 0 9b 40 73
        E 99 8b 40 73
        E 0 9b 3e 73
        E 42 8b 3e 73
        E 0 9b 40 73
        E 99 8b 40 73
        E 0 9b 3e 73
        E 42 8b 3e 73
        E 0 9b 40 73
        E 99 8b 40 73
        E 0 9b 3e 73
        E 42 8b 3e 73
        E 0 9b 40 73
        E 99 8b 40 73
        E 0 9b 3e 73
        E 42 8b 3e 73
        E 0 9b 40 73
        E 99 8b 40 73
        E 0 9b 3e 73
        E 42 8b 3e 73
        E 0 9b 40 73
        E 99 8b 40 73
        E 0 9b 3e 73
        E 42 8b 3e 73
        E 0 9b 40 73
        E 99 8b 40 73
        E 0 9b 3e 73
        E 42 8b 3e 73
        E 0 9b 40 73
        E 99 8b 40 73
        E 0 9b 3e 73
        E 42 8b 3e 73
        E 0 9b 40 73
        E 99 8b 40 73
        E 0 9b 3e 73
        E 42 8b 3e 73
        E 0 9b 40 73
        E 99 8b 40 73
        E 0 9b 3e 73
        E 42 8b 3e 73
        E 0 9b 40 73
        E 99 8b 40 73
        E 0 9b 3e 73
        E 42 8b 3e 73
        E 0 9b 40 73
        E 99 8b 40 73
        E 0 9b 3e 73
        E 42 8b 3e 73
        E 0 9b 40 73
        E 99 8b 40 73
        E 0 9b 3e 73
        E 42 8b 3e 73
        E 0 9b 40 73
        E 99 8b 40 73
        E 0 9b 3e 73
        E 42 8b 3e 73
        E 0 9b 40 73
        E 99 8b 40 73
        E 0 9b 3e 73
        E 42 8b 3e 73
        E 0 9b 40 73
        E 99 8b 40 73
        E 0 9b 3e 73
        E 42 8b 3e 73
        E 0 9b 40 73
        E 99 8b 40 73
        E 0 9b 3e 73
        E 42 8b 3e 73
        E 0 9b 40 73
        E 99 8b 40 73
        E 0 9b 3e 73
        E 42 8b 3e 73
        E 0 9b 40 73
        E 99 8b 40 73
        E 0 9b 3e 73
        E 42 8b 3e 73
        E 0 9b 40 73
        E 99 8b 40 73
        E 0 9b 3e 73
        E 42 8b 3e 73
        E 0 9b 40 73
        E 99 8b 40 73
        E 0 9b 3e 73
        E 42 8b 3e 73
        E 0 9b 40 73
        E 99 8b 40 73
        E 0 9b 3e 73
        E 42 8b 3e 73
        E 0 9b 40 73
        E 99 8b 40 73
        E 0 9b 3e 73
        E 42 8b 3e 73
        E 0 9b 40 73
        E 99 8b 40 73
        E 0 9b 3e 73
        E 42 8b 3e 73
        E 0 9b 40 73
        E 99 8b 40 73
        E 0 9b 3e 73
        E 42 8b 3e 73
        E 0 9b 40 73
        E 99 8b 40 73
        E 0 9b 3e 73
        E 42 8b 3e 73
        E 0 9b 40 73
        E 99 8b 40 73
        E 0 9b 3e 73
        E 42 8b 3e 73
        E 0 9b 40 73
        E 99 8b 40 73
        E 0 9b 3e 73
        E 42 8b 3e 73
        E 0 9b 40 73
        E 99 8b 40 73
        E 0 9b 3e 73
        E 42 8b 3e 73
        E 0 9b 40 73
        E 99 8b 40 73
        E 0 9b 3e 73
        E 42 8b 3e 73
        E 0 9b 40 73
        E 99 8b 40 73
        E 0 9b 3e 73
        E 42 8b 3e 73
        E 0 9b 40 73
        E 99 8b 40 73
        E 0 9b 3e 73
        E 42 8b 3e 73
        E 0 9b 40 73
        E 99 8b 40 73
        E 0 9b 3e 73
        E 42 8b 3e 73
        E 0 9b 40 73
        E 99 8b 40 73
        E 0 9b 3e 73
        E 42 8b 3e 73
        E 0 9b 40 73
        E 99 8b 40 73
        E 0 9b 3e 73
        E 42 8b 3e 73
        E 0 9b 40 73
        E 99 8b 40 73
        E 0 9b 3e 73
        E 42 8b 3e 73
        E 0 9b 40 73
        E 99 8b 40 73
        E 0 9b 3e 73
        E 42 8b 3e 73
        E 0 9b 40 73
        E 99 8b 40 73
        E 0 9b 3e 73
        E 42 8b 3e 73
        E 0 9b 40 73
        E 99 8b 40 73
        E 0 9b 3e 73
        E 42 8b 3e 73
        E 0 9b 40 73
        E 99 8b 40 73
        E 0 9b 3e 73
        E 42 8b 3e 73
        E 0 9b 40 73
        E 99 8b 40 73
        E 0 9b 3e 73
        E 42 8b 3e 73
        E 0 9b 40 73
        E 99 8b 40 73
        E 0 9b 3e 73
        E 42 8b 3e 73
        E 0 9b 40 73
        E 99 8b 40 73
        E 0 9b 3e 73
        E 42 8b 3e 73
        E 0 9b 40 73
        E 99 8b 40 73
        E 0 9b 3e 73
        E 42 8b 3e 73
        E 0 9b 40 73
        E 99 8b 40 73
        E 0 9b 3e 73
        E 42 8b 3e 73
        E 0 9b 40 73
        E 99 8b 40 73
        E 0 9b 3e 73
        E 42 8b 3e 73
        E 0 9b 40 73
        E 99 8b 40 73
        E 0 9b 3e 73
        E 42 8b 3e 73
        E 0 9b 40 73
        E 99 8b 40 73
        E 0 9b 3e 73
        E 42 8b 3e 73
        E 0 9b 40 73
        E 99 8b 40 73
        E 0 9b 3e 73
        E 42 8b 3e 73
        E 0 9b 40 73
        E 99 8b 40 73
        E 0 9b 3e 73
        E 42 8b 3e 73
        E 0 9b 40 73
        E 99 8b 40 73
        E 0 9b 3e 73
        E 42 8b 3e 73
        E 0 9b 40 73
        E 99 8b 40 73
        E 0 9b 3e 73
        E 42 8b 3e 73
        E 0 9b 40 73
        E 99 8b 40 73
        E 0 9b 3e 73
        E 42 8b 3e 73
        E 0 9b 40 73
        E 99 8b 40 73
        E 0 9b 3e 73
        E 42 8b 3e 73
        E 0 9b 40 73
        E 99 8b 40 73
        E 0 9b 3e 73
        E 42 8b 3e 73
        E 0 9b 40 73
        E 99 8b 40 73
        E 0 9b 3e 73
        E 42 8b 3e 73
        E 0 9b 40 73
        E 99 8b 40 73
        E 0 9b 3e 73
        E 42 8b 3e 73
        E 0 9b 40 73
        E 99 8b 40 73
        E 0 9b 3e 73
        E 42 8b 3e 73
        E 0 9b 40 73
        E 99 8b 40 73
        E 0 9b 3e 73
        E 42 8b 3e 73
        E 0 9b 40 73
        E 99 8b 40 73
        E 0 9b 3e 73
        E 42 8b 3e 73
        E 0 9b 40 73
        E 99 8b 40 73
        E 0 9b 3e 73
        E 42 8b 3e 73
        E 0 9b 40 73
        E 99 8b 40 73
        E 0 9b 3e 73
        E 42 8b 3e 73
        E 0 9b 40 73
        E 99 8b 40 73
        E 0 9b 3e 73
        E 42 8b 3e 73
        E 0 9b 40 73
        E 99 8b 40 73
        E 0 9b 3e 73
        E 42 8b 3e 73
        E 0 9b 40 73
        E 99 8b 40 73
        E 0 9b 3e 73
        E 42 8b 3e 73
        E 0 9b 35 73
        E 113 8b 35 73
        E 0 9b 40 73
        E 71 8b 40 73
        E 0 9b 3a 73
        E 28 8b 3a 73
        E 0 9b 35 73
        E 113 8b 35 73
        E 0 9b 40 73
        E 99 8b 40 73
        E 0 9b 3e 73
        E 42 8b 3e 73
        E 0 9b 37 73
        E 0 9b 35 73
        E 113 8b 35 73
        E 0 9b 40 73
        E 71 8b 40 73
        E 0 9b 3a 73
        E 28 8b 3a 73
        E 0 9b 35 73
        E 113 8b 35 73
        E 0 9b 40 73
        E 99 8b 40 73
        E 0 9b 3e 73
        E 42 8b 3e 73
        E 0 9b 37 73
        E 0 9b 35 73
        E 113 8b 35 73
        E 0 9b 40 73
        E 71 8b 40 73
        E 0 9b 3a 73
        E 28 8b 3a 73
        E 0 9b 35 73
        E 113 8b 35 73
        E 0 9b 40 73
        E 99 8b 40 73
        E 0 9b 3e 73
        E 42 8b 3e 73
        E 0 9b 37 73
        E 0 9b 35 73
        E 113 8b 35 73
        E 0 9b 40 73
        E 71 8b 40 73
        E 0 9b 3a 73
        E 28 8b 3a 73
        E 0 9b 35 73
        E 113 8b 35 73
        E 0 9b 40 73
        E 99 8b 40 73
        E 0 9b 3e 73
        E 42 8b 3e 73
        E 0 9b 37 73
        E 0 9b 35 73
        E 113 8b 35 73
        E 0 9b 40 73
        E 71 8b 40 73
        E 0 9b 3a 73
        E 28 8b 3a 73
        E 0 9b 35 73
        E 113 8b 35 73
        E 0 9b 40 73
        E 99 8b 40 73
        E 0 9b 3e 73
        E 42 8b 3e 73
        E 0 9b 37 73
        E 0 9b 35 73
        E 113 8b 35 73
        E 0 9b 40 73
        E 71 8b 40 73
        E 0 9b 3a 73
        E 28 8b 3a 73
        E 0 9b 35 73
        E 113 8b 35 73
        E 0 9b 40 73
        E 99 8b 40 73
        E 0 9b 3e 73
        E 42 8b 3e 73
        E 0 9b 37 73
        E 0 9b 35 73
        E 113 8b 35 73
        E 0 9b 40 73
        E 71 8b 40 73
        E 0 9b 3a 73
        E 28 8b 3a 73
        E 0 9b 35 73
        E 113 8b 35 73
        E 0 9b 40 73
        E 99 8b 40 73
        E 0 9b 3e 73
        E 42 8b 3e 73
        E 0 9b 37 73
        E 0 9b 35 73
        E 113 8b 35 73
        E 0 9b 40 73
        E 71 8b 40 73
        E 0 9b 3a 73
        E 28 8b 3a 73
        E 0 9b 35 73
        E 113 8b 35 73
        E 0 9b 40 73
        E 99 8b 40 73
        E 0 9b 3e 73
        E 42 8b 3e 73
        E 0 9b 37 73
        E 0 9b 35 73
        E 113 8b 35 73
        E 0 9b 40 73
        E 71 8b 40 73
        E 0 9b 3a 73
        E 28 8b 3a 73
        E 0 9b 35 73
        E 113 8b 35 73
        E 0 9b 40 73
        E 99 8b 40 73
        E 0 9b 3e 73
        E 42 8b 3e 73
        E 0 9b 37 73
        E 0 9b 35 73
        E 113 8b 35 73
        E 0 9b 40 73
        E 71 8b 40 73
        E 0 9b 3a 73
        E 28 8b 3a 73
        E 0 9b 35 73
        E 113 8b 35 73
        E 0 9b 40 73
        E 99 8b 40 73
        E 0 9b 3e 73
        E 42 8b 3e 73
        E 0 9b 37 73
        E 0 9b 35 73
        E 113 8b 35 73
        E 0 9b 40 73
        E 71 8b 40 73
        E 0 9b 3a 73
        E 28 8b 3a 73
        E 0 9b 35 73
        E 113 8b 35 73
        E 0 9b 40 73
        E 99 8b 40 73
        E 0 9b 3e 73
        E 42 8b 3e 73
        E 0 9b 37 73
        E 0 9b 35 73
        E 113 8b 35 73
        E 0 9b 40 73
        E 71 8b 40 73
        E 0 9b 3a 73
        E 28 8b 3a 73
        E 0 9b 35 73
        E 113 8b 35 73
        E 0 9b 40 73
        E 99 8b 40 73
        E 0 9b 3e 73
        E 42 8b 3e 73
        E 0 9b 37 73
        E 0 9b 35 73
        E 113 8b 35 73
        E 0 9b 40 73
        E 71 8b 40 73
        E 0 9b 3a 73
        E 28 8b 3a 73
        E 0 9b 35 73
        E 113 8b 35 73
        E 0 9b 40 73
        E 99 8b 40 73
        E 0 9b 3e 73
        E 42 8b 3e 73
        E 0 9b 37 73
        E 0 9b 35 73
        E 113 8b 35 73
        E 0 9b 40 73
        E 71 8b 40 73
        E 0 9b 3a 73
        E 28 8b 3a 73
        E 0 9b 35 73
        E 113 8b 35 73
        E 0 9b 40 73
        E 99 8b 40 73
        E 0 9b 3e 73
        E 42 8b 3e 73
        E 0 9b 37 73
        E 0 9b 35 73
        E 113 8b 35 73
        E 0 9b 40 73
        E 71 8b 40 73
        E 0 9b 3a 73
        E 28 8b 3a 73
        E 0 9b 35 73
        E 113 8b 35 73
        E 0 9b 40 73
        E 99 8b 40 73
        E 0 9b 3e 73
        E 42 8b 3e 73
        E 0 9b 37 73
        E 0 9b 35 73
        E 113 8b 35 73
        E 0 9b 40 73
        E 71 8b 40 73
        E 0 9b 3a 73
        E 28 8b 3a 73
        E 0 9b 35 73
        E 113 8b 35 73
        E 0 9b 40 73
        E 99 8b 40 73
        E 0 9b 3e 73
        E 42 8b 3e 73
        E 0 9b 37 73
        E 0 9b 35 73
        E 113 8b 35 73
        E 0 9b 40 73
        E 71 8b 40 73
        E 0 9b 3a 73
        E 28 8b 3a 73
        E 0 9b 35 73
        E 113 8b 35 73
        E 0 9b 40 73
        E 99 8b 40 73
        E 0 9b 3e 73
        E 42 8b 3e 73
        E 0 9b 37 73
        E 0 9b 35 73
        E 113 8b 35 73
        E 0 9b 40 73
        E 71 8b 40 73
        E 0 9b 3a 73
        E 28 8b 3a 73
        E 0 9b 35 73
        E 113 8b 35 73
        E 0 9b 40 73
        E 99 8b 40 73
        E 0 9b 3e 73
        E 42 8b 3e 73
        E 0 9b 37 73
        E 0 9b 35 73
        E 113 8b 35 73
        E 0 9b 40 73
        E 71 8b 40 73
        E 0 9b 3a 73
        E 28 8b 3a 73
        E 0 9b 35 73
        E 113 8b 35 73
        E 0 9b 40 73
        E 99 8b 40 73
        E 0 9b 3e 73
        E 42 8b 3e 73
        E 0 9b 37 73
        E 0 9b 35 73
        E 113 8b 35 73
        E 0 9b 40 73
        E 71 8b 40 73
        E 0 9b 3a 73
        E 28 8b 3a 73
        E 0 9b 35 73
        E 113 8b 35 73
        E 0 9b 40 73
        E 99 8b 40 73
        E 0 9b 3e 73
        E 42 8b 3e 73
        E 0 9b 37 73
        E 0 9b 35 73
        E 113 8b 35 73
        E 0 9b 40 73
        E 71 8b 40 73
        E 0 9b 3a 73
        E 28 8b 3a 73
        E 0 9b 35 73
        E 113 8b 35 73
        E 0 9b 40 73
        E 99 8b 40 73
        E 0 9b 3e 73
        E 42 8b 3e 73
        E 0 9b 37 73
        E 0 9b 35 73
        E 113 8b 35 73
        E 0 9b 40 73
        E 71 8b 40 73
        E 0 9b 3a 73
        E 28 8b 3a 73
        E 0 9b 35 73
        E 113 8b 35 73
        E 0 9b 40 73
        E 99 8b 40 73
        E 0 9b 3e 73
        E 42 8b 3e 73
        E 0 9b 37 73
        E 0 9b 35 73
        E 113 8b 35 73
        E 0 9b 40 73
        E 71 8b 40 73
        E 0 9b 3a 73
        E 28 8b 3a 73
        E 0 9b 35 73
        E 113 8b 35 73
        E 0 9b 40 73
        E 99 8b 40 73
        E 0 9b 3e 73
        E 42 8b 3e 73
        E 0 9b 37 73
        E 0 9b 35 73
        E 113 8b 35 73
        E 0 9b 40 73
        E 71 8b 40 73
        E 0 9b 3a 73
        E 28 8b 3a 73
        E 0 9b 35 73
        E 113 8b 35 73
        E 0 9b 40 73
        E 99 8b 40 73
        E 0 9b 3e 73
        E 42 8b 3e 73
        E 0 9b 37 73
        E 0 9b 35 73
        E 113 8b 35 73
        E 0 9b 40 73
        E 71 8b 40 73
        E 0 9b 3a 73
        E 28 8b 3a 73
        E 0 9b 35 73
        E 113 8b 35 73
        E 0 9b 40 73
        E 99 8b 40 73
        E 0 9b 3e 73
        E 42 8b 3e 73
        E 0 9b 37 73
        E 0 9b 35 73
        E 113 8b 35 73
        E 0 9b 40 73
        E 71 8b 40 73
        E 0 9b 3a 73
        E 28 8b 3a 73
        E 0 9b 35 73
        E 113 8b 35 73
        E 0 9b 40 73
        E 99 8b 40 73
        E 0 9b 3e 73
        E 42 8b 3e 73
        E 0 9b 37 73
        E 0 9b 35 73
        E 113 8b 35 73
        E 0 9b 40 73
        E 71 8b 40 73
        E 0 9b 3a 73
        E 28 8b 3a 73
        E 0 9b 35 73
        E 113 8b 35 73
        E 0 9b 40 73
        E 99 8b 40 73
        E 0 9b 3e 73
        E 42 8b 3e 73
        E 0 9b 37 73
        E 0 9b 35 73
        E 113 8b 35 73
        E 0 9b 40 73
        E 71 8b 40 73
        E 0 9b 3a 73
        E 28 8b 3a 73
        E 0 9b 35 73
        E 113 8b 35 73
        E 0 9b 40 73
        E 99 8b 40 73
        E 0 9b 3e 73
        E 42 8b 3e 73
        E 0 9b 37 73
        E 0 9b 35 73
        E 113 8b 35 73
        E 0 9b 40 73
        E 71 8b 40 73
        E 0 9b 3a 73
        E 28 8b 3a 73
        E 0 9b 35 73
        E 113 8b 35 73
        E 0 9b 40 73
        E 99 8b 40 73
        E 0 9b 3e 73
        E 42 8b 3e 73
        E 0 9b 37 73
        E 0 9b 35 73
        E 113 8b 35 73
        E 0 9b 40 73
        E 71 8b 40 73
        E 0 9b 3a 73
        E 28 8b 3a 73
        E 0 9b 35 73
        E 113 8b 35 73
        E 0 9b 40 73
        E 99 8b 40 73
        E 0 9b 3e 73
        E 42 8b 3e 73
        E 0 9b 37 73
        E 0 9b 35 73
        E 113 8b 35 73
        E 0 9b 40 73
        E 71 8b 40 73
        E 0 9b 3a 73
        E 28 8b 3a 73
        E 0 9b 35 73
        E 113 8b 35 73
        E 0 9b 40 73
        E 99 8b 40 73
        E 0 9b 3e 73
        E 42 8b 3e 73
        E 0 9b 37 73
        E 0 9b 35 73
        E 113 8b 35 73
        E 0 9b 40 73
        E 71 8b 40 73
        E 0 9b 3a 73
        E 28 8b 3a 73
        E 0 9b 35 73
        E 113 8b 35 73
        E 0 9b 40 73
        E 99 8b 40 73
        E 0 9b 3e 73
        E 42 8b 3e 73
        E 0 9b 37 73
        E 0 9b 35 73
        E 113 8b 35 73
        E 0 9b 40 73
        E 71 8b 40 73
        E 0 9b 3a 73
        E 28 8b 3a 73
        E 0 9b 35 73
        E 113 8b 35 73
        E 0 9b 40 73
        E 99 8b 40 73
        E 0 9b 3e 73
        E 42 8b 3e 73
        E 0 9b 37 73
        E 0 9b 35 73
        E 113 8b 35 73
        E 0 9b 40 73
        E 71 8b 40 73
        E 0 9b 3a 73
        E 28 8b 3a 73
        E 0 9b 35 73
        E 113 8b 35 73
        E 0 9b 40 73
        E 99 8b 40 73
        E 0 9b 3e 73
        E 42 8b 3e 73
        E 0 9b 37 73
        E 0 9b 35 73
        E 113 8b 35 73
        E 0 9b 40 73
        E 71 8b 40 73
        E 0 9b 3a 73
        E 28 8b 3a 73
        E 0 9b 35 73
        E 113 8b 35 73
        E 0 9b 40 73
        E 99 8b 40 73
        E 0 9b 3e 73
        E 42 8b 3e 73
        E 0 9b 37 73
        E 0 9b 35 73
        E 113 8b 35 73
        E 0 9b 40 73
        E 71 8b 40 73
        E 0 9b 3a 73
        E 28 8b 3a 73
        E 0 9b 35 73
        E 113 8b 35 73
        E 0 9b 40 73
        E 99 8b 40 73
        E 0 9b 3e 73
        E 42 8b 3e 73
        E 0 9b 37 73
        E 0 9b 35 73
        E 113 8b 35 73
        E 0 9b 40 73
        E 71 8b 40 73
        E 0 9b 3a 73
        E 28 8b 3a 73
        E 0 9b 35 73
        E 113 8b 35 73
        E 0 9b 40 73
        E 99 8b 40 73
        E 0 9b 3e 73
        E 42 8b 3e 73
        E 0 9b 37 73
        E 0 9b 35 73
        E 113 8b 35 73
        E 0 9b 40 73
        E 71 8b 40 73
        E 0 9b 3a 73
        E 28 8b 3a 73
        E 0 9b 35 73
        E 113 8b 35 73
        E 0 9b 40 73
        E 99 8b 40 73
        E 0 9b 3e 73
        E 42 8b 3e 73
        E 0 9b 37 73
        E 0 9b 35 73
        E 113 8b 35 73
        E 0 9b 40 73
        E 71 8b 40 73
        E 0 9b 3a 73
        E 28 8b 3a 73
        E 0 9b 35 73
        E 113 8b 35 73
        E 0 9b 40 73
        E 99 8b 40 73
        E 0 9b 3e 73
        E 42 8b 3e 73
        E 0 9b 37 73
        E 0 9b 35 73
        E 113 8b 35 73
        E 0 9b 40 73
        E 71 8b 40 73
        E 0 9b 3a 73
        E 28 8b 3a 73
        E 0 9b 35 73
        E 113 8b 35 73
        E 0 9b 40 73
        E 99 8b 40 73
        E 0 9b 3e 73
        E 42 8b 3e 73
        E 0 9b 37 73
        E 0 9b 35 73
        E 113 8b 35 73
        E 0 9b 40 73
        E 71 8b 40 73
        E 0 9b 3a 73
        E 28 8b 3a 73
        E 0 9b 35 73
        E 113 8b 35 73
        E 0 9b 40 73
        E 99 8b 40 73
        E 0 9b 3e 73
        E 42 8b 3e 73
        E 0 9b 37 73
        E 0 9b 35 73
        E 113 8b 35 73
        E 0 9b 40 73
        E 71 8b 40 73
        E 0 9b 3a 73
        E 28 8b 3a 73
        E 0 9b 35 73
        E 113 8b 35 73
        E 0 9b 40 73
        E 99 8b 40 73
        E 0 9b 3e 73
        E 42 8b 3e 73
        E 0 9b 37 73
        E 0 9b 35 73
        E 113 8b 35 73
        E 0 9b 40 73
        E 71 8b 40 73
        E 0 9b 3a 73
        E 28 8b 3a 73
        E 0 9b 35 73
        E 113 8b 35 73
        E 0 9b 40 73
        E 99 8b 40 73
        E 0 9b 3e 73
        E 42 8b 3e 73
        E 0 9b 37 73
        E 0 9b 35 73
        E 113 8b 35 73
        E 0 9b 40 73
        E 71 8b 40 73
        E 0 9b 3a 73
        E 28 8b 3a 73
        E 0 9b 35 73
        E 113 8b 35 73
        E 0 9b 40 73
        E 99 8b 40 73
        E 0 9b 3e 73
        E 42 8b 3e 73
        E 0 9b 37 73
        E 0 9b 35 73
        E 113 8b 35 73
        E 0 9b 40 73
        E 71 8b 40 73
        E 0 9b 3a 73
        E 28 8b 3a 73
        E 0 9b 35 73
        E 113 8b 35 73
        E 0 9b 40 73
        E 99 8b 40 73
        E 0 9b 3e 73
        E 42 8b 3e 73
        E 0 9b 37 73
        E 0 9b 35 73
        E 113 8b 35 73
        E 0 9b 40 73
        E 71 8b 40 73
        E 0 9b 3a 73
        E 28 8b 3a 73
        E 0 9b 35 73
        E 113 8b 35 73
        E 0 9b 40 73
        E 99 8b 40 73
        E 0 9b 3e 73
        E 42 8b 3e 73
        E 0 9b 37 73
        E 0 9b 35 73
        E 113 8b 35 73
        E 0 9b 40 73
        E 71 8b 40 73
        E 0 9b 3a 73
        E 28 8b 3a 73
        E 0 9b 35 73
        E 113 8b 35 73
        E 0 9b 40 73
        E 99 8b 40 73
        E 0 9b 3e 73
        E 42 8b 3e 73
        E 0 9b 37 73
        E 0 9b 35 73
        E 113 8b 35 73
        E 0 9b 40 73
        E 71 8b 40 73
        E 0 9b 3a 73
        E 28 8b 3a 73
        E 0 9b 35 73
        E 113 8b 35 73
        E 0 9b 40 73
        E 99 8b 40 73
        E 0 9b 3e 73
        E 42 8b 3e 73
        E 0 9b 37 73
        E 0 9b 35 73
        E 113 8b 35 73
        E 0 9b 40 73
        E 71 8b 40 73
        E 0 9b 3a 73
        E 28 8b 3a 73
        E 0 9b 35 73
        E 113 8b 35 73
        E 0 9b 40 73
        E 99 8b 40 73
        E 0 9b 3e 73
        E 42 8b 3e 73
        E 0 9b 37 73
        E 0 9b 35 73
        E 113 8b 35 73
        E 0 9b 40 73
        E 71 8b 40 73
        E 0 9b 3a 73
        E 28 8b 3a 73
        E 0 9b 35 73
        E 113 8b 35 73
        E 0 9b 40 73
        E 99 8b 40 73
        E 0 9b 3e 73
        E 42 8b 3e 73
        E 0 9b 37 73
        E 0 9b 35 73
        E 113 8b 35 73
        E 0 9b 40 73
        E 71 8b 40 73
        E 0 9b 3a 73
        E 28 8b 3a 73
        E 0 9b 35 73
        E 113 8b 35 73
        E 0 9b 40 73
        E 99 8b 40 73
        E 0 9b 3e 73
        E 42 8b 3e 73
        E 0 9b 37 73
        E 0 9b 35 73
        E 113 8b 35 73
        E 0 9b 40 73
        E 71 8b 40 73
        E 0 9b 3a 73
        E 28 8b 3a 73
        E 0 9b 35 73
        E 113 8b 35 73
        E 0 9b 40 73
        E 99 8b 40 73
        E 0 9b 3e 73
        E 42 8b 3e 73
        E 0 9b 37 73
        E 0 9b 35 73
        E 113 8b 35 73
        E 0 9b 40 73
        E 71 8b 40 73
        E 0 9b 3a 73
        E 28 8b 3a 73
        E 0 9b 35 73
        E 113 8b 35 73
        E 0 9b 40 73
        E 99 8b 40 73
        E 0 9b 3e 73
        E 42 8b 3e 73
        E 0 9b 37 73
        E 0 9b 35 73
        E 113 8b 35 73
        E 0 9b 40 73
        E 71 8b 40 73
        E 0 9b 3a 73
        E 28 8b 3a 73
        E 0 9b 35 73
        E 113 8b 35 73
        E 0 9b 40 73
        E 99 8b 40 73
        E 0 9b 3e 73
        E 42 8b 3e 73
        E 0 9b 37 73
        E 0 9b 35 73
        E 113 8b 35 73
        E 0 9b 40 73
        E 71 8b 40 73
        E 0 9b 3a 73
        E 28 8b 3a 73
        E 0 9b 35 73
        E 113 8b 35 73
        E 0 9b 40 73
        E 99 8b 40 73
        E 0 9b 3e 73
        E 42 8b 3e 73
        E 0 9b 37 73
        E 0 9b 35 73
        E 113 8b 35 73
        E 0 9b 40 73
        E 71 8b 40 73
        E 0 9b 3a 73
        E 28 8b 3a 73
        E 0 9b 35 73
        E 113 8b 35 73
        E 0 9b 40 73
        E 99 8b 40 73
        E 0 9b 3e 73
        E 42 8b 3e 73
        E 0 9b 37 73
        E 0 9b 35 73
        E 113 8b 35 73
        E 0 9b 40 73
        E 71 8b 40 73
        E 0 9b 3a 73
        E 28 8b 3a 73
        E 0 9b 35 73
        E 113 8b 35 73
        E 0 9b 40 73
        E 99 8b 40 73
        E 0 9b 3e 73
        E 42 8b 3e 73
        E 0 9b 37 73
        E 0 9b 35 73
        E 113 8b 35 73
        E 0 9b 40 73
        E 71 8b 40 73
        E 0 9b 3a 73
        E 28 8b 3a 73
        E 0 9b 35 73
        E 113 8b 35 73
        E 0 9b 40 73
        E 99 8b 40 73
        E 0 9b 3e 73
        E 42 8b 3e 73
        E 0 9b 37 73
        E 0 9b 35 73
        E 113 8b 35 73
        E 0 9b 40 73
        E 71 8b 40 73
        E 0 9b 3a 73
        E 28 8b 3a 73
        E 0 9b 35 73
        E 113 8b 35 73
        E 0 9b 40 73
        E 99 8b 40 73
        E 0 9b 3e 73
        E 42 8b 3e 73
        E 0 9b 37 73
        E 0 9b 35 73
        E 113 8b 35 73
        E 0 9b 40 73
        E 71 8b 40 73
        E 0 9b 3a 73
        E 28 8b 3a 73
        E 0 9b 35 73
        E 113 8b 35 73
        E 0 9b 40 73
        E 99 8b 40 73
        E 0 9b 3e 73
        E 42 8b 3e 73
        E 0 9b 37 73
        E 0 9b 35 73
        E 113 8b 35 73
        E 0 9b 40 73
        E 71 8b 40 73
        E 0 9b 3a 73
        E 28 8b 3a 73
        E 0 9b 35 73
        E 113 8b 35 73
        E 0 9b 40 73
        E 99 8b 40 73
        E 0 9b 3e 73
        E 42 8b 3e 73
        E 0 9b 37 73
        E 0 9b 35 73
        E 113 8b 35 73
        E 0 9b 40 73
        E 71 8b 40 73
        E 0 9b 3a 73
        E 28 8b 3a 73
        E 0 9b 35 73
        E 113 8b 35 73
        E 0 9b 40 73
        E 99 8b 40 73
        E 0 9b 3e 73
        E 42 8b 3e 73
        E 0 9b 37 73
        E 0 9b 35 73
        E 113 8b 35 73
        E 0 9b 40 73
        E 71 8b 40 73
        E 0 9b 3a 73
        E 28 8b 3a 73
        E 0 9b 35 73
        E 113 8b 35 73
        E 0 9b 40 73
        E 99 8b 40 73
        E 0 9b 3e 73
        E 42 8b 3e 73
        E 0 9b 37 73
        E 0 9b 3e 73
        E 28 8b 3e 73
        E 0 9b 35 73
        E 113 8b 35 73
        E 0 9b 40 73
        E 71 8b 40 73
        E 0 9b 3a 73
        E 28 8b 3a 73
        E 0 9b 35 73
        E 113 8b 35 73
        E 0 9b 40 73
        E 99 8b 40 73
        E 0 9b 3e 73
        E 28 8b 3e 73
        E 0 9b 35 73
        E 113 8b 35 73
        E 0 9b 40 73
        E 71 8b 40 73
        E 0 9b 3a 73
        E 28 8b 3a 73
        E 0 9b 35 73
        E 113 8b 35 73
        E 0 9b 40 73
        E 99 8b 40 73
        E 0 9b 3e 73
        E 28 8b 3e 73
        E 0 9b 35 73
        E 113 8b 35 73
        E 0 9b 40 73
        E 71 8b 40 73
        E 0 9b 3a 73
        E 28 8b 3a 73
        E 0 9b 35 73
        E 113 8b 35 73
        E 0 9b 40 73
        E 99 8b 40 73
        E 0 9b 3e 73
        E 28 8b 3e 73
        E 0 9b 35 73
        E 113 8b 35 73
        E 0 9b 40 73
        E 71 8b 40 73
        E 0 9b 3a 73
        E 28 8b 3a 73
        E 0 9b 35 73
        E 113 8b 35 73
        E 0 9b 40 73
        E 99 8b 40 73
        E 0 9b 3e 73
        E 28 8b 3e 73
        E 0 9b 35 73
        E 113 8b 35 73
        E 0 9b 40 73
        E 71 8b 40 73
        E 0 9b 3a 73
        E 28 8b 3a 73
        E 0 9b 35 73
        E 113 8b 35 73
        E 0 9b 40 73
        E 99 8b 40 73
        E 0 9b 3e 73
        E 28 8b 3e 73
        E 0 9b 35 73
        E 113 8b 35 73
        E 0 9b 40 73
        E 71 8b 40 73
        E 0 9b 3a 73
        E 28 8b 3a 73
        E 0 9b 35 73
        E 113 8b 35 73
        E 0 9b 40 73
        E 99 8b 40 73
        E 0 9b 3e 73
        E 28 8b 3e 73
        E 0 9b 35 73
        E 113 8b 35 73
        E 0 9b 40 73
        E 71 8b 40 73
        E 0 9b 3a 73
        E 28 8b 3a 73
        E 0 9b 35 73
        E 113 8b 35 73
        E 0 9b 40 73
        E 99 8b 40 73
        E 0 9b 3e 73
        E 28 8b 3e 73
        E 0 9b 35 73
        E 113 8b 35 73
        E 0 9b 40 73
        E 71 8b 40 73
        E 0 9b 3a 73
        E 28 8b 3a 73
        E 0 9b 35 73
        E 113 8b 35 73
        E 0 9b 40 73
        E 99 8b 40 73
        E 0 9b 3e 73
        E 28 8b 3e 73
        E 0 9b 35 73
        E 113 8b 35 73
        E 0 9b 40 73
        E 71 8b 40 73
        E 0 9b 3a 73
        E 28 8b 3a 73
        E 0 9b 35 73
        E 113 8b 35 73
        E 0 9b 40 73
        E 99 8b 40 73
        E 0 9b 3e 73
        E 28 8b 3e 73
        E 0 9b 35 73
        E 113 8b 35 73
        E 0 9b 40 73
        E 71 8b 40 73
        E 0 9b 3a 73
        E 28 8b 3a 73
        E 0 9b 35 73
        E 113 8b 35 73
        E 0 9b 40 73
        E 99 8b 40 73
        E 0 9b 3e 73
        E 28 8b 3e 73
        E 0 9b 35 73
        E 113 8b 35 73
        E 0 9b 40 73
        E 71 8b 40 73
        E 0 9b 3a 73
        E 28 8b 3a 73
        E 0 9b 35 73
        E 113 8b 35 73
        E 0 9b 40 73
        E 99 8b 40 73
        E 0 9b 3e 73
        E 28 8b 3e 73
        E 0 9b 35 73
        E 113 8b 35 73
        E 0 9b 40 73
        E 71 8b 40 73
        E 0 9b 3a 73
        E 28 8b 3a 73
        E 0 9b 35 73
        E 113 8b 35 73
        E 0 9b 40 73
        E 99 8b 40 73
        E 0 9b 3e 73
        E 28 8b 3e 73
        E 0 9b 35 73
        E 113 8b 35 73
        E 0 9b 40 73
        E 71 8b 40 73
        E 0 9b 3a 73
        E 28 8b 3a 73
        E 0 9b 35 73
        E 113 8b 35 73
        E 0 9b 40 73
        E 99 8b 40 73
        E 0 9b 3e 73
        E 28 8b 3e 73
        E 0 9b 35 73
        E 113 8b 35 73
        E 0 9b 40 73
        E 71 8b 40 73
        E 0 9b 3a 73
        E 28 8b 3a 73
        E 0 9b 35 73
        E 113 8b 35 73
        E 0 9b 40 73
        E 99 8b 40 73
        E 0 9b 3e 73
        E 28 8b 3e 73
        E 0 9b 35 73
        E 113 8b 35 73
        E 0 9b 40 73
        E 71 8b 40 73
        E 0 9b 3a 73
        E 28 8b 3a 73
        E 0 9b 35 73
        E 113 8b 35 73
        E 0 9b 40 73
        E 99 8b 40 73
        E 0 9b 3e 73
        E 28 8b 3e 73
        E 0 9b 35 73
        E 113 8b 35 73
        E 0 9b 40 73
        E 71 8b 40 73
        E 0 9b 3a 73
        E 28 8b 3a 73
        E 0 9b 35 73
        E 113 8b 35 73
        E 0 9b 40 73
        E 99 8b 40 73
        E 0 9b 3e 73
        E 28 8b 3e 73
        E 0 9b 35 73
        E 113 8b 35 73
        E 0 9b 40 73
        E 71 8b 40 73
        E 0 9b 3a 73
        E 28 8b 3a 73
        E 0 9b 35 73
        E 113 8b 35 73
        E 0 9b 40 73
        E 99 8b 40 73
        E 0 9b 3e 73
        E 28 8b 3e 73
        E 0 9b 35 73
        E 113 8b 35 73
        E 0 9b 40 73
        E 71 8b 40 73
        E 0 9b 3a 73
        E 28 8b 3a 73
        E 0 9b 35 73
        E 113 8b 35 73
        E 0 9b 40 73
        E 99 8b 40 73
        E 0 9b 3e 73
        E 28 8b 3e 73
        E 0 9b 35 73
        E 113 8b 35 73
        E 0 9b 40 73
        E 71 8b 40 73
        E 0 9b 3a 73
        E 28 8b 3a 73
        E 0 9b 35 73
        E 113 8b 35 73
        E 0 9b 40 73
        E 99 8b 40 73
        E 0 9b 3e 73
        E 28 8b 3e 73
        E 0 9b 35 73
        E 113 8b 35 73
        E 0 9b 40 73
        E 71 8b 40 73
        E 0 9b 3a 73
        E 28 8b 3a 73
        E 0 9b 35 73
        E 113 8b 35 73
        E 0 9b 40 73
        E 99 8b 40 73
        E 0 9b 3e 73
        E 28 8b 3e 73
        E 0 9b 35 73
        E 113 8b 35 73
        E 0 9b 40 73
        E 71 8b 40 73
        E 0 9b 3a 73
        E 28 8b 3a 73
        E 0 9b 35 73
        E 113 8b 35 73
        E 0 9b 40 73
        E 99 8b 40 73
        E 0 9b 3e 73
        E 28 8b 3e 73
        E 0 9b 35 73
        E 113 8b 35 73
        E 0 9b 40 73
        E 71 8b 40 73
        E 0 9b 3a 73
        E 28 8b 3a 73
        E 0 9b 35 73
        E 113 8b 35 73
        E 0 9b 40 73
        E 99 8b 40 73
        E 0 9b 3e 73
        E 28 8b 3e 73
        E 0 9b 35 73
        E 113 8b 35 73
        E 0 9b 40 73
        E 71 8b 40 73
        E 0 9b 3a 73
        E 28 8b 3a 73
        E 0 9b 35 73
        E 113 8b 35 73
        E 0 9b 40 73
        E 99 8b 40 73
        E 0 9b 3e 73
        E 28 8b 3e 73
        E 0 9b 35 73
        E 113 8b 35 73
        E 0 9b 40 73
        E 71 8b 40 73
        E 0 9b 3a 73
        E 28 8b 3a 73
        E 0 9b 35 73
        E 113 8b 35 73
        E 0 9b 40 73
        E 99 8b 40 73
        E 0 9b 3e 73
        E 28 8b 3e 73
        E 0 9b 35 73
        E 113 8b 35 73
        E 0 9b 40 73
        E 71 8b 40 73
        E 0 9b 3a 73
        E 28 8b 3a 73
        E 0 9b 35 73
        E 113 8b 35 73
        E 0 9b 40 73
        E 99 8b 40 73
        E 0 9b 3e 73
        E 28 8b 3e 73
        E 0 9b 35 73
        E 113 8b 35 73
        E 0 9b 40 73
        E 71 8b 40 73
        E 0 9b 3a 73
        E 28 8b 3a 73
        E 0 9b 35 73
        E 113 8b 35 73
        E 0 9b 40 73
        E 99 8b 40 73
        E 0 9b 3e 73
        E 28 8b 3e 73
        E 0 9b 35 73
        E 113 8b 35 73
        E 0 9b 40 73
        E 71 8b 40 73
        E 0 9b 3a 73
        E 28 8b 3a 73
        E 0 9b 35 73
        E 113 8b 35 73
        E 0 9b 40 73
        E 99 8b 40 73
        E 18 b0 7b 00
        CCINTERP 32
        CHASE_CC_TAKEOFFS 1
        GUID {390A59BE-8B1D-C448-AA70-4FB4A732049B}
        IGNTEMPO 0 120 4 4
        SRCCOLOR 68
        VELLANE 3 601 0
        VELLANE -1 196 0
      >
    >
  >
  <TRACK {6ECC70D1-BC47-6B41-A589-611D3F7377C0}
    NAME "Valhalla reverb - NOT WORKING"
    PEAKCOL 16576
    BEAT -1
    AUTOMODE 0
    VOLPAN 1 0 -1 -1 1
    MUTESOLO 0 0 0
    IPHASE 0
    PLAYOFFS 0 1
    ISBUS 0 0
    BUSCOMP 0 0 0 0 0
    SHOWINMIX 1 0.6667 0.5 1 0.5 0 -1 0
    FREEMODE 0
    SEL 0
    REC 0 0 1 0 0 0 0
    VU 2
    TRACKHEIGHT 0 0 0 0 -1 0
    INQ 0 0 0 0.5 100 0 0 100
    NCHAN 2
    FX 1
    TRACKID {6ECC70D1-BC47-6B41-A589-611D3F7377C0}
    PERF 0
    MIDIOUT -1
    MAINSEND 1 0
  >
  <TRACK {BBCB0C84-362B-DE4F-A782-2383C49233DB}
    NAME CC
    PEAKCOL 16576
    BEAT -1
    AUTOMODE 0
    VOLPAN 1 0 -1 -1 1
    MUTESOLO 0 0 0
    IPHASE 0
    PLAYOFFS 0 1
    ISBUS 1 1
    BUSCOMP 0 0 0 0 0
    SHOWINMIX 1 0.6667 0.5 1 0.5 0 -1 0
    FREEMODE 0
    SEL 0
    REC 0 0 1 0 0 0 0
    VU 2
    TRACKHEIGHT 0 0 0 0 -1 0
    INQ 0 0 0 0.5 100 0 0 100
    NCHAN 2
    FX 1
    TRACKID {BBCB0C84-362B-DE4F-A782-2383C49233DB}
    PERF 0
    MIDIOUT -1
    MAINSEND 1 0
  >
  <TRACK {2708229B-4463-2745-A107-B815B54D1CE5}
    NAME "cannabis-infused gummies"
    PEAKCOL 16576
    BEAT -1
    AUTOMODE 0
    VOLPAN 1 0 -1 -1 1
    MUTESOLO 0 0 0
    IPHASE 0
    PLAYOFFS 0 1
    ISBUS 0 0
    BUSCOMP 0 0 0 0 0
    SHOWINMIX 1 0.6667 0.5 1 0.5 0 -1 0
    FREEMODE 0
    SEL 0
    REC 0 0 1 0 0 0 0
    VU 2
    TRACKHEIGHT 0 0 0 0 -1 0
    INQ 0 0 0 0.5 100 0 0 100
    NCHAN 2
    FX 1
    TRACKID {2708229B-4463-2745-A107-B815B54D1CE5}
    PERF 0
    MIDIOUT -1
    MAINSEND 1 0
    <ITEM
      POSITION 0
      SNAPOFFS 0
      LENGTH 1219.2471755361205
      LOOP 1
      ALLTAKES 0
      FADEIN 1 0 0 1 0 0
      FADEOUT 1 0 0 1 0 0
      MUTE 0 0
      SEL 0
      IGUID {504A51A8-8CC8-3A4E-A94A-453AC3A4F3CA}
      IID 13
      NAME "cannabis-infused gummies.mid"
      VOLPAN 1 0 1 -1
      SOFFS 459.52587246388003 750.56002584537055
      PLAYRATE 1 1 0 -1 0 0.0025
      CHANMODE 0
      GUID {A0487A9C-00DC-7A4A-BE8B-4D2D0E5C5824}
      <SOURCE MIDI
        HASDATA 1 128 QN
        CCINTERP 32
        POOLEDEVTS {EE2FEB3A-2EC8-974D-8182-02F51636DE26}
        E 8 b0 06 0c
        E 8 b0 06 0c
        E 8 b0 06 0c
        E 8 b0 06 0c
        E 8 b0 06 0c
        E 8 b0 06 0c
        E 8 b0 06 0c
        E 8 b0 06 0c
        E 8 b0 06 0c
        E 8 b0 06 0c
        E 8 b0 06 0c
        E 8 b0 06 0c
        E 8 b0 06 0c
        E 8 b0 06 0c
        E 8 b0 06 0c
        E 8 b0 06 0c
        E 8 b0 06 0c
        E 8 b0 06 0c
        E 8 b0 06 0c
        E 8 b0 06 0c
        E 8 b0 06 0c
        E 8 b0 06 0c
        E 8 b0 06 0c
        E 8 b0 06 0c
        E 8 b0 06 0c
        E 8 b0 06 0c
        E 8 b0 06 0c
        E 8 b0 06 0c
        E 8 b0 06 0c
        E 8 b0 06 0c
        E 8 b0 06 0c
        E 8 b0 06 0c
        E 8 b0 06 0c
        E 8 b0 06 0c
        E 8 b0 06 0c
        E 8 b0 06 0c
        E 8 b0 06 0c
        E 8 b0 06 0c
        E 8 b0 06 0c
        E 8 b0 06 0c
        E 8 b0 06 0c
        E 8 b0 06 0c
        E 8 b0 06 0c
        E 8 b0 06 0c
        E 8 b0 06 0c
        E 8 b0 06 0c
        E 8 b0 06 0c
        E 8 b0 06 0c
        E 8 b0 06 0c
        E 8 b0 06 0c
        E 8 b0 06 0c
        E 8 b0 06 0c
        E 8 b0 06 0c
        E 8 b0 06 0c
        E 8 b0 06 0c
        E 8 b0 06 0c
        E 8 b0 06 0c
        E 8 b0 06 0c
        E 8 b0 06 0c
        E 8 b0 06 0c
        E 8 b0 06 0c
        E 8 b0 06 0c
        E 8 b0 06 0c
        E 8 b0 06 00
        E 8 b0 06 00
        E 8 b0 06 00
        E 8 b0 06 00
        E 8 b0 06 00
        E 8 b0 06 00
        E 8 b0 06 00
        E 8 b0 06 00
        E 8 b0 06 00
        E 8 b0 06 00
        E 8 b0 06 00
        E 8 b0 06 00
        E 8 b0 06 00
        E 8 b0 06 00
        E 8 b0 06 00
        E 8 b0 06 00
        E 8 b0 06 00
        E 8 b0 06 00
        E 8 b0 06 00
        E 8 b0 06 00
        E 8 b0 06 00
        E 8 b0 06 00
        E 8 b0 06 00
        E 8 b0 06 00
        E 8 b0 06 00
        E 8 b0 06 00
        E 8 b0 06 00
        E 8 b0 06 00
        E 8 b0 06 00
        E 8 b0 06 00
        E 8 b0 06 00
        E 8 b0 06 00
        E 8 b0 06 00
        E 8 b0 06 00
        E 8 b0 06 00
        E 8 b0 06 00
        E 8 b0 06 00
        E 8 b0 06 00
        E 8 b0 06 00
        E 8 b0 06 00
        E 8 b0 06 00
        E 8 b0 06 00
        E 8 b0 06 00
        E 8 b0 06 00
        E 8 b0 06 00
        E 8 b0 06 00
        E 8 b0 06 00
        E 8 b0 06 00
        E 8 b0 06 00
        E 8 b0 06 00
        E 8 b0 06 00
        E 8 b0 06 00
        E 8 b0 06 00
        E 8 b0 06 00
        E 8 b0 06 00
        E 8 b0 06 00
        E 8 b0 06 00
        E 8 b0 06 00
        E 8 b0 06 00
        E 8 b0 06 00
        E 8 b0 06 00
        E 8 b0 06 00
        E 8 b0 06 00
        E 8 b0 06 00
        E 56 b0 06 72
        E 56 b0 06 72
        E 56 b0 06 72
        E 56 b0 06 72
        E 56 b0 06 72
        E 56 b0 06 72
        E 56 b0 06 72
        E 56 b0 06 72
        E 56 b0 06 72
        E 56 b0 06 72
        E 56 b0 06 72
        E 56 b0 06 72
        E 56 b0 06 72
        E 56 b0 06 72
        E 56 b0 06 72
        E 56 b0 06 72
        E 56 b0 06 72
        E 56 b0 06 72
        E 56 b0 06 72
        E 56 b0 06 72
        E 56 b0 06 72
        E 56 b0 06 72
        E 56 b0 06 72
        E 56 b0 06 72
        E 56 b0 06 72
        E 56 b0 06 72
        E 56 b0 06 72
        E 56 b0 06 72
        E 56 b0 06 72
        E 56 b0 06 72
        E 56 b0 06 72
        E 56 b0 06 72
        E 56 b0 06 72
        E 56 b0 06 72
        E 56 b0 06 72
        E 56 b0 06 72
        E 56 b0 06 72
        E 56 b0 06 72
        E 56 b0 06 72
        E 56 b0 06 72
        E 56 b0 06 72
        E 56 b0 06 72
        E 56 b0 06 72
        E 56 b0 06 72
        E 56 b0 06 72
        E 56 b0 06 72
        E 56 b0 06 72
        E 56 b0 06 72
        E 56 b0 06 72
        E 56 b0 06 72
        E 56 b0 06 72
        E 56 b0 06 72
        E 56 b0 06 72
        E 56 b0 06 72
        E 56 b0 06 72
        E 56 b0 06 72
        E 56 b0 06 72
        E 56 b0 06 72
        E 56 b0 06 72
        E 56 b0 06 72
        E 56 b0 06 72
        E 56 b0 06 72
        E 56 b0 06 72
        E 56 b0 06 00
        E 56 b0 06 00
        E 56 b0 06 00
        E 56 b0 06 00
        E 56 b0 06 00
        E 56 b0 06 00
        E 56 b0 06 00
        E 56 b0 06 00
        E 56 b0 06 00
        E 56 b0 06 00
        E 56 b0 06 00
        E 56 b0 06 00
        E 56 b0 06 00
        E 56 b0 06 00
        E 56 b0 06 00
        E 56 b0 06 00
        E 56 b0 06 00
        E 56 b0 06 00
        E 56 b0 06 00
        E 56 b0 06 00
        E 56 b0 06 00
        E 56 b0 06 00
        E 56 b0 06 00
        E 56 b0 06 00
        E 56 b0 06 00
        E 56 b0 06 00
        E 56 b0 06 00
        E 56 b0 06 00
        E 56 b0 06 00
        E 56 b0 06 00
        E 56 b0 06 00
        E 56 b0 06 00
        E 56 b0 06 00
        E 56 b0 06 00
        E 56 b0 06 00
        E 56 b0 06 00
        E 56 b0 06 00
        E 56 b0 06 00
        E 56 b0 06 00
        E 56 b0 06 00
        E 56 b0 06 00
        E 56 b0 06 00
        E 56 b0 06 00
        E 56 b0 06 00
        E 56 b0 06 00
        E 56 b0 06 00
        E 56 b0 06 00
        E 56 b0 06 00
        E 56 b0 06 00
        E 56 b0 06 00
        E 56 b0 06 00
        E 56 b0 06 00
        E 56 b0 06 00
        E 56 b0 06 00
        E 56 b0 06 00
        E 56 b0 06 00
        E 56 b0 06 00
        E 56 b0 06 00
        E 56 b0 06 00
        E 56 b0 06 00
        E 56 b0 06 00
        E 56 b0 06 00
        E 56 b0 06 00
        E 56 b0 06 00
        E 24 b0 06 65
        E 24 b0 06 65
        E 24 b0 06 65
        E 24 b0 06 65
        E 24 b0 06 65
        E 24 b0 06 65
        E 24 b0 06 65
        E 24 b0 06 65
        E 24 b0 06 65
        E 24 b0 06 65
        E 24 b0 06 65
        E 24 b0 06 65
        E 24 b0 06 65
        E 24 b0 06 65
        E 24 b0 06 65
        E 24 b0 06 65
        E 24 b0 06 65
        E 24 b0 06 65
        E 24 b0 06 65
        E 24 b0 06 65
        E 24 b0 06 65
        E 24 b0 06 65
        E 24 b0 06 65
        E 24 b0 06 65
        E 24 b0 06 65
        E 24 b0 06 65
        E 24 b0 06 65
        E 24 b0 06 65
        E 24 b0 06 65
        E 24 b0 06 65
        E 24 b0 06 65
        E 24 b0 06 65
        E 24 b0 06 65
        E 24 b0 06 65
        E 24 b0 06 65
        E 24 b0 06 65
        E 24 b0 06 65
        E 24 b0 06 65
        E 24 b0 06 65
        E 24 b0 06 65
        E 24 b0 06 65
        E 24 b0 06 65
        E 24 b0 06 65
        E 24 b0 06 65
        E 24 b0 06 65
        E 24 b0 06 65
        E 24 b0 06 65
        E 24 b0 06 65
        E 24 b0 06 65
        E 24 b0 06 65
        E 24 b0 06 65
        E 24 b0 06 65
        E 24 b0 06 65
        E 24 b0 06 65
        E 24 b0 06 65
        E 24 b0 06 65
        E 24 b0 06 65
        E 24 b0 06 65
        E 24 b0 06 65
        E 24 b0 06 65
        E 24 b0 06 65
        E 24 b0 06 65
        E 24 b0 06 65
        E 24 b0 06 00
        E 24 b0 06 00
        E 24 b0 06 00
        E 24 b0 06 00
        E 24 b0 06 00
        E 24 b0 06 00
        E 24 b0 06 00
        E 24 b0 06 00
        E 24 b0 06 00
        E 24 b0 06 00
        E 24 b0 06 00
        E 24 b0 06 00
        E 24 b0 06 00
        E 24 b0 06 00
        E 24 b0 06 00
        E 24 b0 06 00
        E 24 b0 06 00
        E 24 b0 06 00
        E 24 b0 06 00
        E 24 b0 06 00
        E 24 b0 06 00
        E 24 b0 06 00
        E 24 b0 06 00
        E 24 b0 06 00
        E 24 b0 06 00
        E 24 b0 06 00
        E 24 b0 06 00
        E 24 b0 06 00
        E 24 b0 06 00
        E 24 b0 06 00
        E 24 b0 06 00
        E 24 b0 06 00
        E 24 b0 06 00
        E 24 b0 06 00
        E 24 b0 06 00
        E 24 b0 06 00
        E 24 b0 06 00
        E 24 b0 06 00
        E 24 b0 06 00
        E 24 b0 06 00
        E 24 b0 06 00
        E 24 b0 06 00
        E 24 b0 06 00
        E 24 b0 06 00
        E 24 b0 06 00
        E 24 b0 06 00
        E 24 b0 06 00
        E 24 b0 06 00
        E 24 b0 06 00
        E 24 b0 06 00
        E 24 b0 06 00
        E 24 b0 06 00
        E 24 b0 06 00
        E 24 b0 06 00
        E 24 b0 06 00
        E 24 b0 06 00
        E 24 b0 06 00
        E 24 b0 06 00
        E 24 b0 06 00
        E 24 b0 06 00
        E 24 b0 06 00
        E 24 b0 06 00
        E 24 b0 06 00
        E 24 b0 06 00
        E 48 b0 06 72
        E 48 b0 06 72
        E 48 b0 06 72
        E 48 b0 06 72
        E 48 b0 06 72
        E 48 b0 06 72
        E 48 b0 06 72
        E 48 b0 06 72
        E 48 b0 06 72
        E 48 b0 06 72
        E 48 b0 06 72
        E 48 b0 06 72
        E 48 b0 06 72
        E 48 b0 06 72
        E 48 b0 06 72
        E 48 b0 06 72
        E 48 b0 06 72
        E 48 b0 06 72
        E 48 b0 06 72
        E 48 b0 06 72
        E 48 b0 06 72
        E 48 b0 06 72
        E 48 b0 06 72
        E 48 b0 06 72
        E 48 b0 06 72
        E 48 b0 06 72
        E 48 b0 06 72
        E 48 b0 06 72
        E 48 b0 06 72
        E 48 b0 06 72
        E 48 b0 06 72
        E 48 b0 06 72
        E 48 b0 06 72
        E 48 b0 06 72
        E 48 b0 06 72
        E 48 b0 06 72
        E 48 b0 06 72
        E 48 b0 06 72
        E 48 b0 06 72
        E 48 b0 06 72
        E 48 b0 06 72
        E 48 b0 06 72
        E 48 b0 06 72
        E 48 b0 06 72
        E 48 b0 06 72
        E 48 b0 06 72
        E 48 b0 06 72
        E 48 b0 06 72
        E 48 b0 06 72
        E 48 b0 06 72
        E 48 b0 06 72
        E 48 b0 06 72
        E 48 b0 06 72
        E 48 b0 06 72
        E 48 b0 06 72
        E 48 b0 06 72
        E 48 b0 06 72
        E 48 b0 06 72
        E 48 b0 06 72
        E 48 b0 06 72
        E 48 b0 06 72
        E 48 b0 06 72
        E 48 b0 06 72
        E 48 b0 06 00
        E 48 b0 06 00
        E 48 b0 06 00
        E 48 b0 06 00
        E 48 b0 06 00
        E 48 b0 06 00
        E 48 b0 06 00
        E 48 b0 06 00
        E 48 b0 06 00
        E 48 b0 06 00
        E 48 b0 06 00
        E 48 b0 06 00
        E 48 b0 06 00
        E 48 b0 06 00
        E 48 b0 06 00
        E 48 b0 06 00
        E 48 b0 06 00
        E 48 b0 06 00
        E 48 b0 06 00
        E 48 b0 06 00
        E 48 b0 06 00
        E 48 b0 06 00
        E 48 b0 06 00
        E 48 b0 06 00
        E 48 b0 06 00
        E 48 b0 06 00
        E 48 b0 06 00
        E 48 b0 06 00
        E 48 b0 06 00
        E 48 b0 06 00
        E 48 b0 06 00
        E 48 b0 06 00
        E 48 b0 06 00
        E 48 b0 06 00
        E 48 b0 06 00
        E 48 b0 06 00
        E 48 b0 06 00
        E 48 b0 06 00
        E 48 b0 06 00
        E 48 b0 06 00
        E 48 b0 06 00
        E 48 b0 06 00
        E 48 b0 06 00
        E 48 b0 06 00
        E 48 b0 06 00
        E 48 b0 06 00
        E 48 b0 06 00
        E 48 b0 06 00
        E 48 b0 06 00
        E 48 b0 06 00
        E 48 b0 06 00
        E 48 b0 06 00
        E 48 b0 06 00
        E 48 b0 06 00
        E 48 b0 06 00
        E 48 b0 06 00
        E 48 b0 06 00
        E 48 b0 06 00
        E 48 b0 06 00
        E 48 b0 06 00
        E 48 b0 06 00
        E 48 b0 06 00
        E 48 b0 06 00
        E 48 b0 06 00
        E 72 b0 06 26
        E 72 b0 06 26
        E 72 b0 06 26
        E 72 b0 06 26
        E 72 b0 06 26
        E 72 b0 06 26
        E 72 b0 06 26
        E 72 b0 06 26
        E 72 b0 06 26
        E 72 b0 06 26
        E 72 b0 06 26
        E 72 b0 06 26
        E 72 b0 06 26
        E 72 b0 06 26
        E 72 b0 06 26
        E 72 b0 06 26
        E 72 b0 06 26
        E 72 b0 06 26
        E 72 b0 06 26
        E 72 b0 06 26
        E 72 b0 06 26
        E 72 b0 06 26
        E 72 b0 06 26
        E 72 b0 06 26
        E 72 b0 06 26
        E 72 b0 06 26
        E 72 b0 06 26
        E 72 b0 06 26
        E 72 b0 06 26
        E 72 b0 06 26
        E 72 b0 06 26
        E 72 b0 06 26
        E 72 b0 06 26
        E 72 b0 06 26
        E 72 b0 06 26
        E 72 b0 06 26
        E 72 b0 06 26
        E 72 b0 06 26
        E 72 b0 06 26
        E 72 b0 06 26
        E 72 b0 06 26
        E 72 b0 06 26
        E 72 b0 06 26
        E 72 b0 06 26
        E 72 b0 06 26
        E 72 b0 06 26
        E 72 b0 06 26
        E 72 b0 06 26
        E 72 b0 06 26
        E 72 b0 06 26
        E 72 b0 06 26
        E 72 b0 06 26
        E 72 b0 06 26
        E 72 b0 06 26
        E 72 b0 06 26
        E 72 b0 06 26
        E 72 b0 06 26
        E 72 b0 06 26
        E 72 b0 06 26
        E 72 b0 06 26
        E 72 b0 06 26
        E 72 b0 06 26
        E 72 b0 06 26
        E 72 b0 06 00
        E 72 b0 06 00
        E 72 b0 06 00
        E 72 b0 06 00
        E 72 b0 06 00
        E 72 b0 06 00
        E 72 b0 06 00
        E 72 b0 06 00
        E 72 b0 06 00
        E 72 b0 06 00
        E 72 b0 06 00
        E 72 b0 06 00
        E 72 b0 06 00
        E 72 b0 06 00
        E 72 b0 06 00
        E 72 b0 06 00
        E 72 b0 06 00
        E 72 b0 06 00
        E 72 b0 06 00
        E 72 b0 06 00
        E 72 b0 06 00
        E 72 b0 06 00
        E 72 b0 06 00
        E 72 b0 06 00
        E 72 b0 06 00
        E 72 b0 06 00
        E 72 b0 06 00
        E 72 b0 06 00
        E 72 b0 06 00
        E 72 b0 06 00
        E 72 b0 06 00
        E 72 b0 06 00
        E 72 b0 06 00
        E 72 b0 06 00
        E 72 b0 06 00
        E 72 b0 06 00
        E 72 b0 06 00
        E 72 b0 06 00
        E 72 b0 06 00
        E 72 b0 06 00
        E 72 b0 06 00
        E 72 b0 06 00
        E 72 b0 06 00
        E 72 b0 06 00
        E 72 b0 06 00
        E 72 b0 06 00
        E 72 b0 06 00
        E 72 b0 06 00
        E 72 b0 06 00
        E 72 b0 06 00
        E 72 b0 06 00
        E 72 b0 06 00
        E 72 b0 06 00
        E 72 b0 06 00
        E 72 b0 06 00
        E 72 b0 06 00
        E 72 b0 06 00
        E 72 b0 06 00
        E 72 b0 06 00
        E 72 b0 06 00
        E 72 b0 06 00
        E 72 b0 06 00
        E 72 b0 06 00
        E 72 b0 06 00
        E 32 b0 06 65
        E 32 b0 06 65
        E 32 b0 06 65
        E 32 b0 06 65
        E 32 b0 06 65
        E 32 b0 06 65
        E 32 b0 06 65
        E 32 b0 06 65
        E 32 b0 06 65
        E 32 b0 06 65
        E 32 b0 06 65
        E 32 b0 06 65
        E 32 b0 06 65
        E 32 b0 06 65
        E 32 b0 06 65
        E 32 b0 06 65
        E 32 b0 06 65
        E 32 b0 06 65
        E 32 b0 06 65
        E 32 b0 06 65
        E 32 b0 06 65
        E 32 b0 06 65
        E 32 b0 06 65
        E 32 b0 06 65
        E 32 b0 06 65
        E 32 b0 06 65
        E 32 b0 06 65
        E 32 b0 06 65
        E 32 b0 06 65
        E 32 b0 06 65
        E 32 b0 06 65
        E 32 b0 06 65
        E 32 b0 06 65
        E 32 b0 06 65
        E 32 b0 06 65
        E 32 b0 06 65
        E 32 b0 06 65
        E 32 b0 06 65
        E 32 b0 06 65
        E 32 b0 06 65
        E 32 b0 06 65
        E 32 b0 06 65
        E 32 b0 06 65
        E 32 b0 06 65
        E 32 b0 06 65
        E 32 b0 06 65
        E 32 b0 06 65
        E 32 b0 06 65
        E 32 b0 06 65
        E 32 b0 06 65
        E 32 b0 06 65
        E 32 b0 06 65
        E 32 b0 06 65
        E 32 b0 06 65
        E 32 b0 06 65
        E 32 b0 06 65
        E 32 b0 06 65
        E 32 b0 06 65
        E 32 b0 06 65
        E 32 b0 06 65
        E 32 b0 06 65
        E 32 b0 06 65
        E 32 b0 06 65
        E 32 b0 06 00
        E 32 b0 06 00
        E 32 b0 06 00
        E 32 b0 06 00
        E 32 b0 06 00
        E 32 b0 06 00
        E 32 b0 06 00
        E 32 b0 06 00
        E 32 b0 06 00
        E 32 b0 06 00
        E 32 b0 06 00
        E 32 b0 06 00
        E 32 b0 06 00
        E 32 b0 06 00
        E 32 b0 06 00
        E 32 b0 06 00
        E 32 b0 06 00
        E 32 b0 06 00
        E 32 b0 06 00
        E 32 b0 06 00
        E 32 b0 06 00
        E 32 b0 06 00
        E 32 b0 06 00
        E 32 b0 06 00
        E 32 b0 06 00
        E 32 b0 06 00
        E 32 b0 06 00
        E 32 b0 06 00
        E 32 b0 06 00
        E 32 b0 06 00
        E 32 b0 06 00
        E 32 b0 06 00
        E 32 b0 06 00
        E 32 b0 06 00
        E 32 b0 06 00
        E 32 b0 06 00
        E 32 b0 06 00
        E 32 b0 06 00
        E 32 b0 06 00
        E 32 b0 06 00
        E 32 b0 06 00
        E 32 b0 06 00
        E 32 b0 06 00
        E 32 b0 06 00
        E 32 b0 06 00
        E 32 b0 06 00
        E 32 b0 06 00
        E 32 b0 06 00
        E 32 b0 06 00
        E 32 b0 06 00
        E 32 b0 06 00
        E 32 b0 06 00
        E 32 b0 06 00
        E 32 b0 06 00
        E 32 b0 06 00
        E 32 b0 06 00
        E 32 b0 06 00
        E 32 b0 06 00
        E 32 b0 06 00
        E 32 b0 06 00
        E 32 b0 06 00
        E 32 b0 06 00
        E 32 b0 06 00
        E 32 b0 06 00
        E 8 b0 06 0c
        E 8 b0 06 0c
        E 8 b0 06 0c
        E 8 b0 06 0c
        E 8 b0 06 0c
        E 8 b0 06 0c
        E 8 b0 06 0c
        E 8 b0 06 0c
        E 8 b0 06 0c
        E 8 b0 06 0c
        E 8 b0 06 0c
        E 8 b0 06 0c
        E 8 b0 06 0c
        E 8 b0 06 0c
        E 8 b0 06 0c
        E 8 b0 06 0c
        E 8 b0 06 0c
        E 8 b0 06 0c
        E 8 b0 06 0c
        E 8 b0 06 0c
        E 8 b0 06 0c
        E 8 b0 06 0c
        E 8 b0 06 0c
        E 8 b0 06 0c
        E 8 b0 06 0c
        E 8 b0 06 0c
        E 8 b0 06 0c
        E 8 b0 06 0c
        E 8 b0 06 0c
        E 8 b0 06 0c
        E 8 b0 06 0c
        E 8 b0 06 0c
        E 8 b0 06 0c
        E 8 b0 06 0c
        E 8 b0 06 0c
        E 8 b0 06 0c
        E 8 b0 06 0c
        E 8 b0 06 0c
        E 8 b0 06 0c
        E 8 b0 06 0c
        E 8 b0 06 0c
        E 8 b0 06 0c
        E 8 b0 06 0c
        E 8 b0 06 0c
        E 8 b0 06 0c
        E 8 b0 06 0c
        E 8 b0 06 0c
        E 8 b0 06 0c
        E 8 b0 06 0c
        E 8 b0 06 0c
        E 8 b0 06 0c
        E 8 b0 06 0c
        E 8 b0 06 0c
        E 8 b0 06 0c
        E 8 b0 06 0c
        E 8 b0 06 0c
        E 8 b0 06 0c
        E 8 b0 06 0c
        E 8 b0 06 0c
        E 8 b0 06 0c
        E 8 b0 06 0c
        E 8 b0 06 0c
        E 8 b0 06 0c
        E 8 b0 06 00
        E 8 b0 06 00
        E 8 b0 06 00
        E 8 b0 06 00
        E 8 b0 06 00
        E 8 b0 06 00
        E 8 b0 06 00
        E 8 b0 06 00
        E 8 b0 06 00
        E 8 b0 06 00
        E 8 b0 06 00
        E 8 b0 06 00
        E 8 b0 06 00
        E 8 b0 06 00
        E 8 b0 06 00
        E 8 b0 06 00
        E 8 b0 06 00
        E 8 b0 06 00
        E 8 b0 06 00
        E 8 b0 06 00
        E 8 b0 06 00
        E 8 b0 06 00
        E 8 b0 06 00
        E 8 b0 06 00
        E 8 b0 06 00
        E 8 b0 06 00
        E 8 b0 06 00
        E 8 b0 06 00
        E 8 b0 06 00
        E 8 b0 06 00
        E 8 b0 06 00
        E 8 b0 06 00
        E 8 b0 06 00
        E 8 b0 06 00
        E 8 b0 06 00
        E 8 b0 06 00
        E 8 b0 06 00
        E 8 b0 06 00
        E 8 b0 06 00
        E 8 b0 06 00
        E 8 b0 06 00
        E 8 b0 06 00
        E 8 b0 06 00
        E 8 b0 06 00
        E 8 b0 06 00
        E 8 b0 06 00
        E 8 b0 06 00
        E 8 b0 06 00
        E 8 b0 06 00
        E 8 b0 06 00
        E 8 b0 06 00
        E 8 b0 06 00
        E 8 b0 06 00
        E 8 b0 06 00
        E 8 b0 06 00
        E 8 b0 06 00
        E 8 b0 06 00
        E 8 b0 06 00
        E 8 b0 06 00
        E 8 b0 06 00
        E 8 b0 06 00
        E 8 b0 06 00
        E 8 b0 06 00
        E 8 b0 06 00
        E 56 b0 06 72
        E 56 b0 06 72
        E 56 b0 06 72
        E 56 b0 06 72
        E 56 b0 06 72
        E 56 b0 06 72
        E 56 b0 06 72
        E 56 b0 06 72
        E 56 b0 06 72
        E 56 b0 06 72
        E 56 b0 06 72
        E 56 b0 06 72
        E 56 b0 06 72
        E 56 b0 06 72
        E 56 b0 06 72
        E 56 b0 06 72
        E 56 b0 06 72
        E 56 b0 06 72
        E 56 b0 06 72
        E 56 b0 06 72
        E 56 b0 06 72
        E 56 b0 06 72
        E 56 b0 06 72
        E 56 b0 06 72
        E 56 b0 06 72
        E 56 b0 06 72
        E 56 b0 06 72
        E 56 b0 06 72
        E 56 b0 06 72
        E 56 b0 06 72
        E 56 b0 06 72
        E 56 b0 06 72
        E 56 b0 06 72
        E 56 b0 06 72
        E 56 b0 06 72
        E 56 b0 06 72
        E 56 b0 06 72
        E 56 b0 06 72
        E 56 b0 06 72
        E 56 b0 06 72
        E 56 b0 06 72
        E 56 b0 06 72
        E 56 b0 06 72
        E 56 b0 06 72
        E 56 b0 06 72
        E 56 b0 06 72
        E 56 b0 06 72
        E 56 b0 06 72
        E 56 b0 06 72
        E 56 b0 06 72
        E 56 b0 06 72
        E 56 b0 06 72
        E 56 b0 06 72
        E 56 b0 06 72
        E 56 b0 06 72
        E 56 b0 06 72
        E 56 b0 06 72
        E 56 b0 06 72
        E 56 b0 06 72
        E 56 b0 06 72
        E 56 b0 06 72
        E 56 b0 06 72
        E 56 b0 06 72
        E 56 b0 06 00
        E 56 b0 06 00
        E 56 b0 06 00
        E 56 b0 06 00
        E 56 b0 06 00
        E 56 b0 06 00
        E 56 b0 06 00
        E 56 b0 06 00
        E 56 b0 06 00
        E 56 b0 06 00
        E 56 b0 06 00
        E 56 b0 06 00
        E 56 b0 06 00
        E 56 b0 06 00
        E 56 b0 06 00
        E 56 b0 06 00
        E 56 b0 06 00
        E 56 b0 06 00
        E 56 b0 06 00
        E 56 b0 06 00
        E 56 b0 06 00
        E 56 b0 06 00
        E 56 b0 06 00
        E 56 b0 06 00
        E 56 b0 06 00
        E 56 b0 06 00
        E 56 b0 06 00
        E 56 b0 06 00
        E 56 b0 06 00
        E 56 b0 06 00
        E 56 b0 06 00
        E 56 b0 06 00
        E 56 b0 06 00
        E 56 b0 06 00
        E 56 b0 06 00
        E 56 b0 06 00
        E 56 b0 06 00
        E 56 b0 06 00
        E 56 b0 06 00
        E 56 b0 06 00
        E 56 b0 06 00
        E 56 b0 06 00
        E 56 b0 06 00
        E 56 b0 06 00
        E 56 b0 06 00
        E 56 b0 06 00
        E 56 b0 06 00
        E 56 b0 06 00
        E 56 b0 06 00
        E 56 b0 06 00
        E 56 b0 06 00
        E 56 b0 06 00
        E 56 b0 06 00
        E 56 b0 06 00
        E 56 b0 06 00
        E 56 b0 06 00
        E 56 b0 06 00
        E 56 b0 06 00
        E 56 b0 06 00
        E 56 b0 06 00
        E 56 b0 06 00
        E 56 b0 06 00
        E 56 b0 06 00
        E 56 b0 06 00
        E 24 b0 06 65
        E 24 b0 06 65
        E 24 b0 06 65
        E 24 b0 06 65
        E 24 b0 06 65
        E 24 b0 06 65
        E 24 b0 06 65
        E 24 b0 06 65
        E 24 b0 06 65
        E 24 b0 06 65
        E 24 b0 06 65
        E 24 b0 06 65
        E 24 b0 06 65
        E 24 b0 06 65
        E 24 b0 06 65
        E 24 b0 06 65
        E 24 b0 06 65
        E 24 b0 06 65
        E 24 b0 06 65
        E 24 b0 06 65
        E 24 b0 06 65
        E 24 b0 06 65
        E 24 b0 06 65
        E 24 b0 06 65
        E 24 b0 06 65
        E 24 b0 06 65
        E 24 b0 06 65
        E 24 b0 06 65
        E 24 b0 06 65
        E 24 b0 06 65
        E 24 b0 06 65
        E 24 b0 06 65
        E 24 b0 06 65
        E 24 b0 06 65
        E 24 b0 06 65
        E 24 b0 06 65
        E 24 b0 06 65
        E 24 b0 06 65
        E 24 b0 06 65
        E 24 b0 06 65
        E 24 b0 06 65
        E 24 b0 06 65
        E 24 b0 06 65
        E 24 b0 06 65
        E 24 b0 06 65
        E 24 b0 06 65
        E 24 b0 06 65
        E 24 b0 06 65
        E 24 b0 06 65
        E 24 b0 06 65
        E 24 b0 06 65
        E 24 b0 06 65
        E 24 b0 06 65
        E 24 b0 06 65
        E 24 b0 06 65
        E 24 b0 06 65
        E 24 b0 06 65
        E 24 b0 06 65
        E 24 b0 06 65
        E 24 b0 06 65
        E 24 b0 06 65
        E 24 b0 06 65
        E 24 b0 06 65
        E 24 b0 06 00
        E 24 b0 06 00
        E 24 b0 06 00
        E 24 b0 06 00
        E 24 b0 06 00
        E 24 b0 06 00
        E 24 b0 06 00
        E 24 b0 06 00
        E 24 b0 06 00
        E 24 b0 06 00
        E 24 b0 06 00
        E 24 b0 06 00
        E 24 b0 06 00
        E 24 b0 06 00
        E 24 b0 06 00
        E 24 b0 06 00
        E 24 b0 06 00
        E 24 b0 06 00
        E 24 b0 06 00
        E 24 b0 06 00
        E 24 b0 06 00
        E 24 b0 06 00
        E 24 b0 06 00
        E 24 b0 06 00
        E 24 b0 06 00
        E 24 b0 06 00
        E 24 b0 06 00
        E 24 b0 06 00
        E 24 b0 06 00
        E 24 b0 06 00
        E 24 b0 06 00
        E 24 b0 06 00
        E 24 b0 06 00
        E 24 b0 06 00
        E 24 b0 06 00
        E 24 b0 06 00
        E 24 b0 06 00
        E 24 b0 06 00
        E 24 b0 06 00
        E 24 b0 06 00
        E 24 b0 06 00
        E 24 b0 06 00
        E 24 b0 06 00
        E 24 b0 06 00
        E 24 b0 06 00
        E 24 b0 06 00
        E 24 b0 06 00
        E 24 b0 06 00
        E 24 b0 06 00
        E 24 b0 06 00
        E 24 b0 06 00
        E 24 b0 06 00
        E 24 b0 06 00
        E 24 b0 06 00
        E 24 b0 06 00
        E 24 b0 06 00
        E 24 b0 06 00
        E 24 b0 06 00
        E 24 b0 06 00
        E 24 b0 06 00
        E 24 b0 06 00
        E 24 b0 06 00
        E 24 b0 06 00
        E 24 b0 06 00
        E 48 b0 06 72
        E 48 b0 06 72
        E 48 b0 06 72
        E 48 b0 06 72
        E 48 b0 06 72
        E 48 b0 06 72
        E 48 b0 06 72
        E 48 b0 06 72
        E 48 b0 06 72
        E 48 b0 06 72
        E 48 b0 06 72
        E 48 b0 06 72
        E 48 b0 06 72
        E 48 b0 06 72
        E 48 b0 06 72
        E 48 b0 06 72
        E 48 b0 06 72
        E 48 b0 06 72
        E 48 b0 06 72
        E 48 b0 06 72
        E 48 b0 06 72
        E 48 b0 06 72
        E 48 b0 06 72
        E 48 b0 06 72
        E 48 b0 06 72
        E 48 b0 06 72
        E 48 b0 06 72
        E 48 b0 06 72
        E 48 b0 06 72
        E 48 b0 06 72
        E 48 b0 06 72
        E 48 b0 06 72
        E 48 b0 06 72
        E 48 b0 06 72
        E 48 b0 06 72
        E 48 b0 06 72
        E 48 b0 06 72
        E 48 b0 06 72
        E 48 b0 06 72
        E 48 b0 06 72
        E 48 b0 06 72
        E 48 b0 06 72
        E 48 b0 06 72
        E 48 b0 06 72
        E 48 b0 06 72
        E 48 b0 06 72
        E 48 b0 06 72
        E 48 b0 06 72
        E 48 b0 06 72
        E 48 b0 06 72
        E 48 b0 06 72
        E 48 b0 06 72
        E 48 b0 06 72
        E 48 b0 06 72
        E 48 b0 06 72
        E 48 b0 06 72
        E 48 b0 06 72
        E 48 b0 06 72
        E 48 b0 06 72
        E 48 b0 06 72
        E 48 b0 06 72
        E 48 b0 06 72
        E 48 b0 06 72
        E 48 b0 06 00
        E 48 b0 06 00
        E 48 b0 06 00
        E 48 b0 06 00
        E 48 b0 06 00
        E 48 b0 06 00
        E 48 b0 06 00
        E 48 b0 06 00
        E 48 b0 06 00
        E 48 b0 06 00
        E 48 b0 06 00
        E 48 b0 06 00
        E 48 b0 06 00
        E 48 b0 06 00
        E 48 b0 06 00
        E 48 b0 06 00
        E 48 b0 06 00
        E 48 b0 06 00
        E 48 b0 06 00
        E 48 b0 06 00
        E 48 b0 06 00
        E 48 b0 06 00
        E 48 b0 06 00
        E 48 b0 06 00
        E 48 b0 06 00
        E 48 b0 06 00
        E 48 b0 06 00
        E 48 b0 06 00
        E 48 b0 06 00
        E 48 b0 06 00
        E 48 b0 06 00
        E 48 b0 06 00
        E 48 b0 06 00
        E 48 b0 06 00
        E 48 b0 06 00
        E 48 b0 06 00
        E 48 b0 06 00
        E 48 b0 06 00
        E 48 b0 06 00
        E 48 b0 06 00
        E 48 b0 06 00
        E 48 b0 06 00
        E 48 b0 06 00
        E 48 b0 06 00
        E 48 b0 06 00
        E 48 b0 06 00
        E 48 b0 06 00
        E 48 b0 06 00
        E 48 b0 06 00
        E 48 b0 06 00
        E 48 b0 06 00
        E 48 b0 06 00
        E 48 b0 06 00
        E 48 b0 06 00
        E 48 b0 06 00
        E 48 b0 06 00
        E 48 b0 06 00
        E 48 b0 06 00
        E 48 b0 06 00
        E 48 b0 06 00
        E 48 b0 06 00
        E 48 b0 06 00
        E 48 b0 06 00
        E 48 b0 06 00
        E 72 b0 06 26
        E 72 b0 06 26
        E 72 b0 06 26
        E 72 b0 06 26
        E 72 b0 06 26
        E 72 b0 06 26
        E 72 b0 06 26
        E 72 b0 06 26
        E 72 b0 06 26
        E 72 b0 06 26
        E 72 b0 06 26
        E 72 b0 06 26
        E 72 b0 06 26
        E 72 b0 06 26
        E 72 b0 06 26
        E 72 b0 06 26
        E 72 b0 06 26
        E 72 b0 06 26
        E 72 b0 06 26
        E 72 b0 06 26
        E 72 b0 06 26
        E 72 b0 06 26
        E 72 b0 06 26
        E 72 b0 06 26
        E 72 b0 06 26
        E 72 b0 06 26
        E 72 b0 06 26
        E 72 b0 06 26
        E 72 b0 06 26
        E 72 b0 06 26
        E 72 b0 06 26
        E 72 b0 06 26
        E 72 b0 06 26
        E 72 b0 06 26
        E 72 b0 06 26
        E 72 b0 06 26
        E 72 b0 06 26
        E 72 b0 06 26
        E 72 b0 06 26
        E 72 b0 06 26
        E 72 b0 06 26
        E 72 b0 06 26
        E 72 b0 06 26
        E 72 b0 06 26
        E 72 b0 06 26
        E 72 b0 06 26
        E 72 b0 06 26
        E 72 b0 06 26
        E 72 b0 06 26
        E 72 b0 06 26
        E 72 b0 06 26
        E 72 b0 06 26
        E 72 b0 06 26
        E 72 b0 06 26
        E 72 b0 06 26
        E 72 b0 06 26
        E 72 b0 06 26
        E 72 b0 06 26
        E 72 b0 06 26
        E 72 b0 06 26
        E 72 b0 06 26
        E 72 b0 06 26
        E 72 b0 06 26
        E 72 b0 06 00
        E 72 b0 06 00
        E 72 b0 06 00
        E 72 b0 06 00
        E 72 b0 06 00
        E 72 b0 06 00
        E 72 b0 06 00
        E 72 b0 06 00
        E 72 b0 06 00
        E 72 b0 06 00
        E 72 b0 06 00
        E 72 b0 06 00
        E 72 b0 06 00
        E 72 b0 06 00
        E 72 b0 06 00
        E 72 b0 06 00
        E 72 b0 06 00
        E 72 b0 06 00
        E 72 b0 06 00
        E 72 b0 06 00
        E 72 b0 06 00
        E 72 b0 06 00
        E 72 b0 06 00
        E 72 b0 06 00
        E 72 b0 06 00
        E 72 b0 06 00
        E 72 b0 06 00
        E 72 b0 06 00
        E 72 b0 06 00
        E 72 b0 06 00
        E 72 b0 06 00
        E 72 b0 06 00
        E 72 b0 06 00
        E 72 b0 06 00
        E 72 b0 06 00
        E 72 b0 06 00
        E 72 b0 06 00
        E 72 b0 06 00
        E 72 b0 06 00
        E 72 b0 06 00
        E 72 b0 06 00
        E 72 b0 06 00
        E 72 b0 06 00
        E 72 b0 06 00
        E 72 b0 06 00
        E 72 b0 06 00
        E 72 b0 06 00
        E 72 b0 06 00
        E 72 b0 06 00
        E 72 b0 06 00
        E 72 b0 06 00
        E 72 b0 06 00
        E 72 b0 06 00
        E 72 b0 06 00
        E 72 b0 06 00
        E 72 b0 06 00
        E 72 b0 06 00
        E 72 b0 06 00
        E 72 b0 06 00
        E 72 b0 06 00
        E 72 b0 06 00
        E 72 b0 06 00
        E 72 b0 06 00
        E 72 b0 06 00
        E 32 b0 06 65
        E 32 b0 06 65
        E 32 b0 06 65
        E 32 b0 06 65
        E 32 b0 06 65
        E 32 b0 06 65
        E 32 b0 06 65
        E 32 b0 06 65
        E 32 b0 06 65
        E 32 b0 06 65
        E 32 b0 06 65
        E 32 b0 06 65
        E 32 b0 06 65
        E 32 b0 06 65
        E 32 b0 06 65
        E 32 b0 06 65
        E 32 b0 06 65
        E 32 b0 06 65
        E 32 b0 06 65
        E 32 b0 06 65
        E 32 b0 06 65
        E 32 b0 06 65
        E 32 b0 06 65
        E 32 b0 06 65
        E 32 b0 06 65
        E 32 b0 06 65
        E 32 b0 06 65
        E 32 b0 06 65
        E 32 b0 06 65
        E 32 b0 06 65
        E 32 b0 06 65
        E 32 b0 06 65
        E 32 b0 06 65
        E 32 b0 06 65
        E 32 b0 06 65
        E 32 b0 06 65
        E 32 b0 06 65
        E 32 b0 06 65
        E 32 b0 06 65
        E 32 b0 06 65
        E 32 b0 06 65
        E 32 b0 06 65
        E 32 b0 06 65
        E 32 b0 06 65
        E 32 b0 06 65
        E 32 b0 06 65
        E 32 b0 06 65
        E 32 b0 06 65
        E 32 b0 06 65
        E 32 b0 06 65
        E 32 b0 06 65
        E 32 b0 06 65
        E 32 b0 06 65
        E 32 b0 06 65
        E 32 b0 06 65
        E 32 b0 06 65
        E 32 b0 06 65
        E 32 b0 06 65
        E 32 b0 06 65
        E 32 b0 06 65
        E 32 b0 06 65
        E 32 b0 06 65
        E 32 b0 06 65
        E 32 b0 06 00
        E 32 b0 06 00
        E 32 b0 06 00
        E 32 b0 06 00
        E 32 b0 06 00
        E 32 b0 06 00
        E 32 b0 06 00
        E 32 b0 06 00
        E 32 b0 06 00
        E 32 b0 06 00
        E 32 b0 06 00
        E 32 b0 06 00
        E 32 b0 06 00
        E 32 b0 06 00
        E 32 b0 06 00
        E 32 b0 06 00
        E 32 b0 06 00
        E 32 b0 06 00
        E 32 b0 06 00
        E 32 b0 06 00
        E 32 b0 06 00
        E 32 b0 06 00
        E 32 b0 06 00
        E 32 b0 06 00
        E 32 b0 06 00
        E 32 b0 06 00
        E 32 b0 06 00
        E 32 b0 06 00
        E 32 b0 06 00
        E 32 b0 06 00
        E 32 b0 06 00
        E 32 b0 06 00
        E 32 b0 06 00
        E 32 b0 06 00
        E 32 b0 06 00
        E 32 b0 06 00
        E 32 b0 06 00
        E 32 b0 06 00
        E 32 b0 06 00
        E 32 b0 06 00
        E 32 b0 06 00
        E 32 b0 06 00
        E 32 b0 06 00
        E 32 b0 06 00
        E 32 b0 06 00
        E 32 b0 06 00
        E 32 b0 06 00
        E 32 b0 06 00
        E 32 b0 06 00
        E 32 b0 06 00
        E 32 b0 06 00
        E 32 b0 06 00
        E 32 b0 06 00
        E 32 b0 06 00
        E 32 b0 06 00
        E 32 b0 06 00
        E 32 b0 06 00
        E 32 b0 06 00
        E 32 b0 06 00
        E 32 b0 06 00
        E 32 b0 06 00
        E 32 b0 06 00
        E 32 b0 06 00
        E 32 b0 06 00
        E 8 b0 06 0c
        E 8 b0 06 0c
        E 8 b0 06 0c
        E 8 b0 06 0c
        E 8 b0 06 0c
        E 8 b0 06 0c
        E 8 b0 06 0c
        E 8 b0 06 0c
        E 8 b0 06 0c
        E 8 b0 06 0c
        E 8 b0 06 0c
        E 8 b0 06 0c
        E 8 b0 06 0c
        E 8 b0 06 0c
        E 8 b0 06 0c
        E 8 b0 06 0c
        E 8 b0 06 0c
        E 8 b0 06 0c
        E 8 b0 06 0c
        E 8 b0 06 0c
        E 8 b0 06 0c
        E 8 b0 06 0c
        E 8 b0 06 0c
        E 8 b0 06 0c
        E 8 b0 06 0c
        E 8 b0 06 0c
        E 8 b0 06 0c
        E 8 b0 06 0c
        E 8 b0 06 0c
        E 8 b0 06 0c
        E 8 b0 06 0c
        E 8 b0 06 0c
        E 8 b0 06 0c
        E 8 b0 06 0c
        E 8 b0 06 0c
        E 8 b0 06 0c
        E 8 b0 06 0c
        E 8 b0 06 0c
        E 8 b0 06 0c
        E 8 b0 06 0c
        E 8 b0 06 0c
        E 8 b0 06 0c
        E 8 b0 06 0c
        E 8 b0 06 0c
        E 8 b0 06 0c
        E 8 b0 06 0c
        E 8 b0 06 0c
        E 8 b0 06 0c
        E 8 b0 06 0c
        E 8 b0 06 0c
        E 8 b0 06 0c
        E 8 b0 06 0c
        E 8 b0 06 0c
        E 8 b0 06 0c
        E 8 b0 06 0c
        E 8 b0 06 0c
        E 8 b0 06 0c
        E 8 b0 06 0c
        E 8 b0 06 0c
        E 8 b0 06 0c
        E 8 b0 06 0c
        E 8 b0 06 0c
        E 8 b0 06 0c
        E 8 b0 06 00
        E 8 b0 06 00
        E 8 b0 06 00
        E 8 b0 06 00
        E 8 b0 06 00
        E 8 b0 06 00
        E 8 b0 06 00
        E 8 b0 06 00
        E 8 b0 06 00
        E 8 b0 06 00
        E 8 b0 06 00
        E 8 b0 06 00
        E 8 b0 06 00
        E 8 b0 06 00
        E 8 b0 06 00
        E 8 b0 06 00
        E 8 b0 06 00
        E 8 b0 06 00
        E 8 b0 06 00
        E 8 b0 06 00
        E 8 b0 06 00
        E 8 b0 06 00
        E 8 b0 06 00
        E 8 b0 06 00
        E 8 b0 06 00
        E 8 b0 06 00
        E 8 b0 06 00
        E 8 b0 06 00
        E 8 b0 06 00
        E 8 b0 06 00
        E 8 b0 06 00
        E 8 b0 06 00
        E 8 b0 06 00
        E 8 b0 06 00
        E 8 b0 06 00
        E 8 b0 06 00
        E 8 b0 06 00
        E 8 b0 06 00
        E 8 b0 06 00
        E 8 b0 06 00
        E 8 b0 06 00
        E 8 b0 06 00
        E 8 b0 06 00
        E 8 b0 06 00
        E 8 b0 06 00
        E 8 b0 06 00
        E 8 b0 06 00
        E 8 b0 06 00
        E 8 b0 06 00
        E 8 b0 06 00
        E 8 b0 06 00
        E 8 b0 06 00
        E 8 b0 06 00
        E 8 b0 06 00
        E 8 b0 06 00
        E 8 b0 06 00
        E 8 b0 06 00
        E 8 b0 06 00
        E 8 b0 06 00
        E 8 b0 06 00
        E 8 b0 06 00
        E 8 b0 06 00
        E 8 b0 06 00
        E 8 b0 06 00
        E 56 b0 06 72
        E 56 b0 06 72
        E 56 b0 06 72
        E 56 b0 06 72
        E 56 b0 06 72
        E 56 b0 06 72
        E 56 b0 06 72
        E 56 b0 06 72
        E 56 b0 06 72
        E 56 b0 06 72
        E 56 b0 06 72
        E 56 b0 06 72
        E 56 b0 06 72
        E 56 b0 06 72
        E 56 b0 06 72
        E 56 b0 06 72
        E 56 b0 06 72
        E 56 b0 06 72
        E 56 b0 06 72
        E 56 b0 06 72
        E 56 b0 06 72
        E 56 b0 06 72
        E 56 b0 06 72
        E 56 b0 06 72
        E 56 b0 06 72
        E 56 b0 06 72
        E 56 b0 06 72
        E 56 b0 06 72
        E 56 b0 06 72
        E 56 b0 06 72
        E 56 b0 06 72
        E 56 b0 06 72
        E 56 b0 06 72
        E 56 b0 06 72
        E 56 b0 06 72
        E 56 b0 06 72
        E 56 b0 06 72
        E 56 b0 06 72
        E 56 b0 06 72
        E 56 b0 06 72
        E 56 b0 06 72
        E 56 b0 06 72
        E 56 b0 06 72
        E 56 b0 06 72
        E 56 b0 06 72
        E 56 b0 06 72
        E 56 b0 06 72
        E 56 b0 06 72
        E 56 b0 06 72
        E 56 b0 06 72
        E 56 b0 06 72
        E 56 b0 06 72
        E 56 b0 06 72
        E 56 b0 06 72
        E 56 b0 06 72
        E 56 b0 06 72
        E 56 b0 06 72
        E 56 b0 06 72
        E 56 b0 06 72
        E 56 b0 06 72
        E 56 b0 06 72
        E 56 b0 06 72
        E 56 b0 06 72
        E 56 b0 06 00
        E 56 b0 06 00
        E 56 b0 06 00
        E 56 b0 06 00
        E 56 b0 06 00
        E 56 b0 06 00
        E 56 b0 06 00
        E 56 b0 06 00
        E 56 b0 06 00
        E 56 b0 06 00
        E 56 b0 06 00
        E 56 b0 06 00
        E 56 b0 06 00
        E 56 b0 06 00
        E 56 b0 06 00
        E 56 b0 06 00
        E 56 b0 06 00
        E 56 b0 06 00
        E 56 b0 06 00
        E 56 b0 06 00
        E 56 b0 06 00
        E 56 b0 06 00
        E 56 b0 06 00
        E 56 b0 06 00
        E 56 b0 06 00
        E 56 b0 06 00
        E 56 b0 06 00
        E 56 b0 06 00
        E 56 b0 06 00
        E 56 b0 06 00
        E 56 b0 06 00
        E 56 b0 06 00
        E 56 b0 06 00
        E 56 b0 06 00
        E 56 b0 06 00
        E 56 b0 06 00
        E 56 b0 06 00
        E 56 b0 06 00
        E 56 b0 06 00
        E 56 b0 06 00
        E 56 b0 06 00
        E 56 b0 06 00
        E 56 b0 06 00
        E 56 b0 06 00
        E 56 b0 06 00
        E 56 b0 06 00
        E 56 b0 06 00
        E 56 b0 06 00
        E 56 b0 06 00
        E 56 b0 06 00
        E 56 b0 06 00
        E 56 b0 06 00
        E 56 b0 06 00
        E 56 b0 06 00
        E 56 b0 06 00
        E 56 b0 06 00
        E 56 b0 06 00
        E 56 b0 06 00
        E 56 b0 06 00
        E 56 b0 06 00
        E 56 b0 06 00
        E 56 b0 06 00
        E 56 b0 06 00
        E 56 b0 06 00
        E 24 b0 06 65
        E 24 b0 06 65
        E 24 b0 06 65
        E 24 b0 06 65
        E 24 b0 06 65
        E 24 b0 06 65
        E 24 b0 06 65
        E 24 b0 06 65
        E 24 b0 06 65
        E 24 b0 06 65
        E 24 b0 06 65
        E 24 b0 06 65
        E 24 b0 06 65
        E 24 b0 06 65
        E 24 b0 06 65
        E 24 b0 06 65
        E 24 b0 06 65
        E 24 b0 06 65
        E 24 b0 06 65
        E 24 b0 06 65
        E 24 b0 06 65
        E 24 b0 06 65
        E 24 b0 06 65
        E 24 b0 06 65
        E 24 b0 06 65
        E 24 b0 06 65
        E 24 b0 06 65
        E 24 b0 06 65
        E 24 b0 06 65
        E 24 b0 06 65
        E 24 b0 06 65
        E 24 b0 06 65
        E 24 b0 06 65
        E 24 b0 06 65
        E 24 b0 06 65
        E 24 b0 06 65
        E 24 b0 06 65
        E 24 b0 06 65
        E 24 b0 06 65
        E 24 b0 06 65
        E 24 b0 06 65
        E 24 b0 06 65
        E 24 b0 06 65
        E 24 b0 06 65
        E 24 b0 06 65
        E 24 b0 06 65
        E 24 b0 06 65
        E 24 b0 06 65
        E 24 b0 06 65
        E 24 b0 06 65
        E 24 b0 06 65
        E 24 b0 06 65
        E 24 b0 06 65
        E 24 b0 06 65
        E 24 b0 06 65
        E 24 b0 06 65
        E 24 b0 06 65
        E 24 b0 06 65
        E 24 b0 06 65
        E 24 b0 06 65
        E 24 b0 06 65
        E 24 b0 06 65
        E 24 b0 06 65
        E 24 b0 06 00
        E 24 b0 06 00
        E 24 b0 06 00
        E 24 b0 06 00
        E 24 b0 06 00
        E 24 b0 06 00
        E 24 b0 06 00
        E 24 b0 06 00
        E 24 b0 06 00
        E 24 b0 06 00
        E 24 b0 06 00
        E 24 b0 06 00
        E 24 b0 06 00
        E 24 b0 06 00
        E 24 b0 06 00
        E 24 b0 06 00
        E 24 b0 06 00
        E 24 b0 06 00
        E 24 b0 06 00
        E 24 b0 06 00
        E 24 b0 06 00
        E 24 b0 06 00
        E 24 b0 06 00
        E 24 b0 06 00
        E 24 b0 06 00
        E 24 b0 06 00
        E 24 b0 06 00
        E 24 b0 06 00
        E 24 b0 06 00
        E 24 b0 06 00
        E 24 b0 06 00
        E 24 b0 06 00
        E 24 b0 06 00
        E 24 b0 06 00
        E 24 b0 06 00
        E 24 b0 06 00
        E 24 b0 06 00
        E 24 b0 06 00
        E 24 b0 06 00
        E 24 b0 06 00
        E 24 b0 06 00
        E 24 b0 06 00
        E 24 b0 06 00
        E 24 b0 06 00
        E 24 b0 06 00
        E 24 b0 06 00
        E 24 b0 06 00
        E 24 b0 06 00
        E 24 b0 06 00
        E 24 b0 06 00
        E 24 b0 06 00
        E 24 b0 06 00
        E 24 b0 06 00
        E 24 b0 06 00
        E 24 b0 06 00
        E 24 b0 06 00
        E 24 b0 06 00
        E 24 b0 06 00
        E 24 b0 06 00
        E 24 b0 06 00
        E 24 b0 06 00
        E 24 b0 06 00
        E 24 b0 06 00
        E 24 b0 06 00
        E 48 b0 06 72
        E 48 b0 06 72
        E 48 b0 06 72
        E 48 b0 06 72
        E 48 b0 06 72
        E 48 b0 06 72
        E 48 b0 06 72
        E 48 b0 06 72
        E 48 b0 06 72
        E 48 b0 06 72
        E 48 b0 06 72
        E 48 b0 06 72
        E 48 b0 06 72
        E 48 b0 06 72
        E 48 b0 06 72
        E 48 b0 06 72
        E 48 b0 06 72
        E 48 b0 06 72
        E 48 b0 06 72
        E 48 b0 06 72
        E 48 b0 06 72
        E 48 b0 06 72
        E 48 b0 06 72
        E 48 b0 06 72
        E 48 b0 06 72
        E 48 b0 06 72
        E 48 b0 06 72
        E 48 b0 06 72
        E 48 b0 06 72
        E 48 b0 06 72
        E 48 b0 06 72
        E 48 b0 06 72
        E 48 b0 06 72
        E 48 b0 06 72
        E 48 b0 06 72
        E 48 b0 06 72
        E 48 b0 06 72
        E 48 b0 06 72
        E 48 b0 06 72
        E 48 b0 06 72
        E 48 b0 06 72
        E 48 b0 06 72
        E 48 b0 06 72
        E 48 b0 06 72
        E 48 b0 06 72
        E 48 b0 06 72
        E 48 b0 06 72
        E 48 b0 06 72
        E 48 b0 06 72
        E 48 b0 06 72
        E 48 b0 06 72
        E 48 b0 06 72
        E 48 b0 06 72
        E 48 b0 06 72
        E 48 b0 06 72
        E 48 b0 06 72
        E 48 b0 06 72
        E 48 b0 06 72
        E 48 b0 06 72
        E 48 b0 06 72
        E 48 b0 06 72
        E 48 b0 06 72
        E 48 b0 06 72
        E 48 b0 06 00
        E 48 b0 06 00
        E 48 b0 06 00
        E 48 b0 06 00
        E 48 b0 06 00
        E 48 b0 06 00
        E 48 b0 06 00
        E 48 b0 06 00
        E 48 b0 06 00
        E 48 b0 06 00
        E 48 b0 06 00
        E 48 b0 06 00
        E 48 b0 06 00
        E 48 b0 06 00
        E 48 b0 06 00
        E 48 b0 06 00
        E 48 b0 06 00
        E 48 b0 06 00
        E 48 b0 06 00
        E 48 b0 06 00
        E 48 b0 06 00
        E 48 b0 06 00
        E 48 b0 06 00
        E 48 b0 06 00
        E 48 b0 06 00
        E 48 b0 06 00
        E 48 b0 06 00
        E 48 b0 06 00
        E 48 b0 06 00
        E 48 b0 06 00
        E 48 b0 06 00
        E 48 b0 06 00
        E 48 b0 06 00
        E 48 b0 06 00
        E 48 b0 06 00
        E 48 b0 06 00
        E 48 b0 06 00
        E 48 b0 06 00
        E 48 b0 06 00
        E 48 b0 06 00
        E 48 b0 06 00
        E 48 b0 06 00
        E 48 b0 06 00
        E 48 b0 06 00
        E 48 b0 06 00
        E 48 b0 06 00
        E 48 b0 06 00
        E 48 b0 06 00
        E 48 b0 06 00
        E 48 b0 06 00
        E 48 b0 06 00
        E 48 b0 06 00
        E 48 b0 06 00
        E 48 b0 06 00
        E 48 b0 06 00
        E 48 b0 06 00
        E 48 b0 06 00
        E 48 b0 06 00
        E 48 b0 06 00
        E 48 b0 06 00
        E 48 b0 06 00
        E 48 b0 06 00
        E 48 b0 06 00
        E 48 b0 06 00
        E 72 b0 06 26
        E 72 b0 06 26
        E 72 b0 06 26
        E 72 b0 06 26
        E 72 b0 06 26
        E 72 b0 06 26
        E 72 b0 06 26
        E 72 b0 06 26
        E 72 b0 06 26
        E 72 b0 06 26
        E 72 b0 06 26
        E 72 b0 06 26
        E 72 b0 06 26
        E 72 b0 06 26
        E 72 b0 06 26
        E 72 b0 06 26
        E 72 b0 06 26
        E 72 b0 06 26
        E 72 b0 06 26
        E 72 b0 06 26
        E 72 b0 06 26
        E 72 b0 06 26
        E 72 b0 06 26
        E 72 b0 06 26
        E 72 b0 06 26
        E 72 b0 06 26
        E 72 b0 06 26
        E 72 b0 06 26
        E 72 b0 06 26
        E 72 b0 06 26
        E 72 b0 06 26
        E 72 b0 06 26
        E 72 b0 06 26
        E 72 b0 06 26
        E 72 b0 06 26
        E 72 b0 06 26
        E 72 b0 06 26
        E 72 b0 06 26
        E 72 b0 06 26
        E 72 b0 06 26
        E 72 b0 06 26
        E 72 b0 06 26
        E 72 b0 06 26
        E 72 b0 06 26
        E 72 b0 06 26
        E 72 b0 06 26
        E 72 b0 06 26
        E 72 b0 06 26
        E 72 b0 06 26
        E 72 b0 06 26
        E 72 b0 06 26
        E 72 b0 06 26
        E 72 b0 06 26
        E 72 b0 06 26
        E 72 b0 06 26
        E 72 b0 06 26
        E 72 b0 06 26
        E 72 b0 06 26
        E 72 b0 06 26
        E 72 b0 06 26
        E 72 b0 06 26
        E 72 b0 06 26
        E 72 b0 06 26
        E 72 b0 06 00
        E 72 b0 06 00
        E 72 b0 06 00
        E 72 b0 06 00
        E 72 b0 06 00
        E 72 b0 06 00
        E 72 b0 06 00
        E 72 b0 06 00
        E 72 b0 06 00
        E 72 b0 06 00
        E 72 b0 06 00
        E 72 b0 06 00
        E 72 b0 06 00
        E 72 b0 06 00
        E 72 b0 06 00
        E 72 b0 06 00
        E 72 b0 06 00
        E 72 b0 06 00
        E 72 b0 06 00
        E 72 b0 06 00
        E 72 b0 06 00
        E 72 b0 06 00
        E 72 b0 06 00
        E 72 b0 06 00
        E 72 b0 06 00
        E 72 b0 06 00
        E 72 b0 06 00
        E 72 b0 06 00
        E 72 b0 06 00
        E 72 b0 06 00
        E 72 b0 06 00
        E 72 b0 06 00
        E 72 b0 06 00
        E 72 b0 06 00
        E 72 b0 06 00
        E 72 b0 06 00
        E 72 b0 06 00
        E 72 b0 06 00
        E 72 b0 06 00
        E 72 b0 06 00
        E 72 b0 06 00
        E 72 b0 06 00
        E 72 b0 06 00
        E 72 b0 06 00
        E 72 b0 06 00
        E 72 b0 06 00
        E 72 b0 06 00
        E 72 b0 06 00
        E 72 b0 06 00
        E 72 b0 06 00
        E 72 b0 06 00
        E 72 b0 06 00
        E 72 b0 06 00
        E 72 b0 06 00
        E 72 b0 06 00
        E 72 b0 06 00
        E 72 b0 06 00
        E 72 b0 06 00
        E 72 b0 06 00
        E 72 b0 06 00
        E 72 b0 06 00
        E 72 b0 06 00
        E 72 b0 06 00
        E 72 b0 06 00
        E 32 b0 06 65
        E 32 b0 06 65
        E 32 b0 06 65
        E 32 b0 06 65
        E 32 b0 06 65
        E 32 b0 06 65
        E 32 b0 06 65
        E 32 b0 06 65
        E 32 b0 06 65
        E 32 b0 06 65
        E 32 b0 06 65
        E 32 b0 06 65
        E 32 b0 06 65
        E 32 b0 06 65
        E 32 b0 06 65
        E 32 b0 06 65
        E 32 b0 06 65
        E 32 b0 06 65
        E 32 b0 06 65
        E 32 b0 06 65
        E 32 b0 06 65
        E 32 b0 06 65
        E 32 b0 06 65
        E 32 b0 06 65
        E 32 b0 06 65
        E 32 b0 06 65
        E 32 b0 06 65
        E 32 b0 06 65
        E 32 b0 06 65
        E 32 b0 06 65
        E 32 b0 06 65
        E 32 b0 06 65
        E 32 b0 06 65
        E 32 b0 06 65
        E 32 b0 06 65
        E 32 b0 06 65
        E 32 b0 06 65
        E 32 b0 06 65
        E 32 b0 06 65
        E 32 b0 06 65
        E 32 b0 06 65
        E 32 b0 06 65
        E 32 b0 06 65
        E 32 b0 06 65
        E 32 b0 06 65
        E 32 b0 06 65
        E 32 b0 06 65
        E 32 b0 06 65
        E 32 b0 06 65
        E 32 b0 06 65
        E 32 b0 06 65
        E 32 b0 06 65
        E 32 b0 06 65
        E 32 b0 06 65
        E 32 b0 06 65
        E 32 b0 06 65
        E 32 b0 06 65
        E 32 b0 06 65
        E 32 b0 06 65
        E 32 b0 06 65
        E 32 b0 06 65
        E 32 b0 06 65
        E 32 b0 06 65
        E 32 b0 06 00
        E 32 b0 06 00
        E 32 b0 06 00
        E 32 b0 06 00
        E 32 b0 06 00
        E 32 b0 06 00
        E 32 b0 06 00
        E 32 b0 06 00
        E 32 b0 06 00
        E 32 b0 06 00
        E 32 b0 06 00
        E 32 b0 06 00
        E 32 b0 06 00
        E 32 b0 06 00
        E 32 b0 06 00
        E 32 b0 06 00
        E 32 b0 06 00
        E 32 b0 06 00
        E 32 b0 06 00
        E 32 b0 06 00
        E 32 b0 06 00
        E 32 b0 06 00
        E 32 b0 06 00
        E 32 b0 06 00
        E 32 b0 06 00
        E 32 b0 06 00
        E 32 b0 06 00
        E 32 b0 06 00
        E 32 b0 06 00
        E 32 b0 06 00
        E 32 b0 06 00
        E 32 b0 06 00
        E 32 b0 06 00
        E 32 b0 06 00
        E 32 b0 06 00
        E 32 b0 06 00
        E 32 b0 06 00
        E 32 b0 06 00
        E 32 b0 06 00
        E 32 b0 06 00
        E 32 b0 06 00
        E 32 b0 06 00
        E 32 b0 06 00
        E 32 b0 06 00
        E 32 b0 06 00
        E 32 b0 06 00
        E 32 b0 06 00
        E 32 b0 06 00
        E 32 b0 06 00
        E 32 b0 06 00
        E 32 b0 06 00
        E 32 b0 06 00
        E 32 b0 06 00
        E 32 b0 06 00
        E 32 b0 06 00
        E 32 b0 06 00
        E 32 b0 06 00
        E 32 b0 06 00
        E 32 b0 06 00
        E 32 b0 06 00
        E 32 b0 06 00
        E 32 b0 06 00
        E 32 b0 06 00
        E 32 b0 06 00
        E 8 b0 06 0c
        E 8 b0 06 0c
        E 8 b0 06 0c
        E 8 b0 06 0c
        E 8 b0 06 0c
        E 8 b0 06 0c
        E 8 b0 06 0c
        E 8 b0 06 0c
        E 8 b0 06 0c
        E 8 b0 06 0c
        E 8 b0 06 0c
        E 8 b0 06 0c
        E 8 b0 06 0c
        E 8 b0 06 0c
        E 8 b0 06 0c
        E 8 b0 06 0c
        E 8 b0 06 0c
        E 8 b0 06 0c
        E 8 b0 06 0c
        E 8 b0 06 0c
        E 8 b0 06 0c
        E 8 b0 06 0c
        E 8 b0 06 0c
        E 8 b0 06 0c
        E 8 b0 06 0c
        E 8 b0 06 0c
        E 8 b0 06 0c
        E 8 b0 06 0c
        E 8 b0 06 0c
        E 8 b0 06 0c
        E 8 b0 06 0c
        E 8 b0 06 0c
        E 8 b0 06 0c
        E 8 b0 06 0c
        E 8 b0 06 0c
        E 8 b0 06 0c
        E 8 b0 06 0c
        E 8 b0 06 0c
        E 8 b0 06 0c
        E 8 b0 06 0c
        E 8 b0 06 0c
        E 8 b0 06 0c
        E 8 b0 06 0c
        E 8 b0 06 0c
        E 8 b0 06 0c
        E 8 b0 06 0c
        E 8 b0 06 0c
        E 8 b0 06 0c
        E 8 b0 06 0c
        E 8 b0 06 0c
        E 8 b0 06 0c
        E 8 b0 06 0c
        E 8 b0 06 0c
        E 8 b0 06 0c
        E 8 b0 06 0c
        E 8 b0 06 0c
        E 8 b0 06 0c
        E 8 b0 06 0c
        E 8 b0 06 0c
        E 8 b0 06 0c
        E 8 b0 06 0c
        E 8 b0 06 0c
        E 8 b0 06 0c
        E 8 b0 06 00
        E 8 b0 06 00
        E 8 b0 06 00
        E 8 b0 06 00
        E 8 b0 06 00
        E 8 b0 06 00
        E 8 b0 06 00
        E 8 b0 06 00
        E 8 b0 06 00
        E 8 b0 06 00
        E 8 b0 06 00
        E 8 b0 06 00
        E 8 b0 06 00
        E 8 b0 06 00
        E 8 b0 06 00
        E 8 b0 06 00
        E 8 b0 06 00
        E 8 b0 06 00
        E 8 b0 06 00
        E 8 b0 06 00
        E 8 b0 06 00
        E 8 b0 06 00
        E 8 b0 06 00
        E 8 b0 06 00
        E 8 b0 06 00
        E 8 b0 06 00
        E 8 b0 06 00
        E 8 b0 06 00
        E 8 b0 06 00
        E 8 b0 06 00
        E 8 b0 06 00
        E 8 b0 06 00
        E 8 b0 06 00
        E 8 b0 06 00
        E 8 b0 06 00
        E 8 b0 06 00
        E 8 b0 06 00
        E 8 b0 06 00
        E 8 b0 06 00
        E 8 b0 06 00
        E 8 b0 06 00
        E 8 b0 06 00
        E 8 b0 06 00
        E 8 b0 06 00
        E 8 b0 06 00
        E 8 b0 06 00
        E 8 b0 06 00
        E 8 b0 06 00
        E 8 b0 06 00
        E 8 b0 06 00
        E 8 b0 06 00
        E 8 b0 06 00
        E 8 b0 06 00
        E 8 b0 06 00
        E 8 b0 06 00
        E 8 b0 06 00
        E 8 b0 06 00
        E 8 b0 06 00
        E 8 b0 06 00
        E 8 b0 06 00
        E 8 b0 06 00
        E 8 b0 06 00
        E 8 b0 06 00
        E 8 b0 06 00
        E 38 b0 06 39
        E 38 b0 06 3c
        E 38 b0 06 3f
        E 38 b0 06 41
        E 38 b0 06 44
        E 38 b0 06 47
        E 38 b0 06 49
        E 38 b0 06 4c
        E 38 b0 06 4f
        E 38 b0 06 51
        E 38 b0 06 54
        E 38 b0 06 56
        E 38 b0 06 59
        E 38 b0 06 5b
        E 38 b0 06 5d
        E 38 b0 06 5f
        E 38 b0 06 62
        E 38 b0 06 63
        E 38 b0 06 65
        E 38 b0 06 67
        E 38 b0 06 69
        E 38 b0 06 6a
        E 38 b0 06 6c
        E 38 b0 06 6c
        E 38 b0 06 6d
        E 38 b0 06 6e
        E 38 b0 06 6f
        E 38 b0 06 70
        E 38 b0 06 71
        E 38 b0 06 71
        E 38 b0 06 72
        E 38 b0 06 72
        E 38 b0 06 72
        E 38 b0 06 72
        E 38 b0 06 72
        E 38 b0 06 71
        E 38 b0 06 71
        E 38 b0 06 70
        E 38 b0 06 6f
        E 38 b0 06 6e
        E 38 b0 06 6d
        E 38 b0 06 6c
        E 38 b0 06 6b
        E 38 b0 06 69
        E 38 b0 06 68
        E 38 b0 06 66
        E 38 b0 06 64
        E 38 b0 06 63
        E 38 b0 06 61
        E 38 b0 06 5e
        E 38 b0 06 5c
        E 38 b0 06 5a
        E 38 b0 06 58
        E 38 b0 06 55
        E 38 b0 06 52
        E 38 b0 06 50
        E 38 b0 06 4e
        E 38 b0 06 4b
        E 38 b0 06 48
        E 38 b0 06 46
        E 38 b0 06 42
        E 38 b0 06 3f
        E 38 b0 06 3d
        E 38 b0 06 3a
        E 38 b0 06 37
        E 38 b0 06 35
        E 38 b0 06 32
        E 38 b0 06 2f
        E 38 b0 06 2c
        E 38 b0 06 29
        E 38 b0 06 26
        E 38 b0 06 24
        E 38 b0 06 22
        E 38 b0 06 1f
        E 38 b0 06 1c
        E 38 b0 06 1a
        E 38 b0 06 18
        E 38 b0 06 15
        E 38 b0 06 13
        E 38 b0 06 11
        E 38 b0 06 0f
        E 38 b0 06 0d
        E 38 b0 06 0b
        E 38 b0 06 09
        E 38 b0 06 09
        E 38 b0 06 07
        E 38 b0 06 06
        E 38 b0 06 04
        E 38 b0 06 03
        E 38 b0 06 02
        E 38 b0 06 01
        E 38 b0 06 00
        E 38 b0 06 00
        E 38 b0 06 00
        E 38 b0 06 00
        E 38 b0 06 00
        E 38 b0 06 00
        E 38 b0 06 00
        E 38 b0 06 00
        E 38 b0 06 00
        E 38 b0 06 01
        E 38 b0 06 02
        E 38 b0 06 03
        E 38 b0 06 04
        E 38 b0 06 05
        E 38 b0 06 06
        E 38 b0 06 08
        E 38 b0 06 09
        E 38 b0 06 0a
        E 38 b0 06 0c
        E 38 b0 06 0e
        E 38 b0 06 10
        E 38 b0 06 12
        E 38 b0 06 14
        E 38 b0 06 16
        E 38 b0 06 19
        E 38 b0 06 1b
        E 38 b0 06 1d
        E 38 b0 06 20
        E 38 b0 06 23
        E 38 b0 06 25
        E 38 b0 06 28
        E 38 b0 06 2b
        E 38 b0 06 2d
        E 38 b0 06 30
        E 38 b0 06 33
        E 38 b0 06 36
        E 38 b0 06 39
        E 57 b0 06 13
        E 57 b0 06 14
        E 57 b0 06 15
        E 57 b0 06 15
        E 57 b0 06 16
        E 57 b0 06 17
        E 57 b0 06 18
        E 57 b0 06 19
        E 57 b0 06 1a
        E 57 b0 06 1b
        E 57 b0 06 1c
        E 57 b0 06 1c
        E 57 b0 06 1d
        E 57 b0 06 1e
        E 57 b0 06 1f
        E 57 b0 06 1f
        E 57 b0 06 20
        E 57 b0 06 21
        E 57 b0 06 21
        E 57 b0 06 22
        E 57 b0 06 23
        E 57 b0 06 23
        E 57 b0 06 24
        E 57 b0 06 24
        E 57 b0 06 24
        E 57 b0 06 24
        E 57 b0 06 25
        E 57 b0 06 25
        E 57 b0 06 25
        E 57 b0 06 25
        E 57 b0 06 26
        E 57 b0 06 26
        E 57 b0 06 26
        E 57 b0 06 26
        E 57 b0 06 26
        E 57 b0 06 25
        E 57 b0 06 25
        E 57 b0 06 25
        E 57 b0 06 25
        E 57 b0 06 24
        E 57 b0 06 24
        E 57 b0 06 24
        E 57 b0 06 23
        E 57 b0 06 23
        E 57 b0 06 22
        E 57 b0 06 22
        E 57 b0 06 21
        E 57 b0 06 21
        E 57 b0 06 20
        E 57 b0 06 1f
        E 57 b0 06 1e
        E 57 b0 06 1e
        E 57 b0 06 1d
        E 57 b0 06 1c
        E 57 b0 06 1b
        E 57 b0 06 1a
        E 57 b0 06 1a
        E 57 b0 06 19
        E 57 b0 06 18
        E 57 b0 06 17
        E 57 b0 06 16
        E 57 b0 06 15
        E 57 b0 06 14
        E 57 b0 06 13
        E 57 b0 06 12
        E 57 b0 06 11
        E 57 b0 06 10
        E 57 b0 06 0f
        E 57 b0 06 0e
        E 57 b0 06 0d
        E 57 b0 06 0c
        E 57 b0 06 0c
        E 57 b0 06 0b
        E 57 b0 06 0a
        E 57 b0 06 09
        E 57 b0 06 08
        E 57 b0 06 08
        E 57 b0 06 07
        E 57 b0 06 06
        E 57 b0 06 05
        E 57 b0 06 05
        E 57 b0 06 04
        E 57 b0 06 03
        E 57 b0 06 03
        E 57 b0 06 03
        E 57 b0 06 02
        E 57 b0 06 02
        E 57 b0 06 01
        E 57 b0 06 01
        E 57 b0 06 00
        E 57 b0 06 00
        E 57 b0 06 00
        E 57 b0 06 00
        E 57 b0 06 00
        E 57 b0 06 00
        E 57 b0 06 00
        E 57 b0 06 00
        E 57 b0 06 00
        E 57 b0 06 00
        E 57 b0 06 00
        E 57 b0 06 00
        E 57 b0 06 00
        E 57 b0 06 01
        E 57 b0 06 01
        E 57 b0 06 01
        E 57 b0 06 02
        E 57 b0 06 02
        E 57 b0 06 03
        E 57 b0 06 03
        E 57 b0 06 04
        E 57 b0 06 04
        E 57 b0 06 05
        E 57 b0 06 06
        E 57 b0 06 06
        E 57 b0 06 07
        E 57 b0 06 08
        E 57 b0 06 09
        E 57 b0 06 09
        E 57 b0 06 0a
        E 57 b0 06 0b
        E 57 b0 06 0c
        E 57 b0 06 0d
        E 57 b0 06 0e
        E 57 b0 06 0f
        E 57 b0 06 10
        E 57 b0 06 11
        E 57 b0 06 12
        E 57 b0 06 13
        E 25 b0 06 33
        E 25 b0 06 35
        E 25 b0 06 37
        E 25 b0 06 3a
        E 25 b0 06 3c
        E 25 b0 06 3f
        E 25 b0 06 41
        E 25 b0 06 44
        E 25 b0 06 46
        E 25 b0 06 48
        E 25 b0 06 4b
        E 25 b0 06 4c
        E 25 b0 06 4f
        E 25 b0 06 51
        E 25 b0 06 53
        E 25 b0 06 54
        E 25 b0 06 57
        E 25 b0 06 58
        E 25 b0 06 5a
        E 25 b0 06 5b
        E 25 b0 06 5d
        E 25 b0 06 5e
        E 25 b0 06 5f
        E 25 b0 06 60
        E 25 b0 06 61
        E 25 b0 06 62
        E 25 b0 06 63
        E 25 b0 06 63
        E 25 b0 06 64
        E 25 b0 06 64
        E 25 b0 06 65
        E 25 b0 06 65
        E 25 b0 06 65
        E 25 b0 06 65
        E 25 b0 06 65
        E 25 b0 06 64
        E 25 b0 06 64
        E 25 b0 06 63
        E 25 b0 06 63
        E 25 b0 06 62
        E 25 b0 06 61
        E 25 b0 06 5f
        E 25 b0 06 5f
        E 25 b0 06 5d
        E 25 b0 06 5c
        E 25 b0 06 5b
        E 25 b0 06 59
        E 25 b0 06 57
        E 25 b0 06 56
        E 25 b0 06 54
        E 25 b0 06 52
        E 25 b0 06 50
        E 25 b0 06 4e
        E 25 b0 06 4c
        E 25 b0 06 49
        E 25 b0 06 47
        E 25 b0 06 45
        E 25 b0 06 43
        E 25 b0 06 40
        E 25 b0 06 3e
        E 25 b0 06 3b
        E 25 b0 06 38
        E 25 b0 06 36
        E 25 b0 06 33
        E 25 b0 06 31
        E 25 b0 06 2f
        E 25 b0 06 2c
        E 25 b0 06 2a
        E 25 b0 06 27
        E 25 b0 06 24
        E 25 b0 06 22
        E 25 b0 06 1f
        E 25 b0 06 1e
        E 25 b0 06 1b
        E 25 b0 06 19
        E 25 b0 06 17
        E 25 b0 06 15
        E 25 b0 06 13
        E 25 b0 06 11
        E 25 b0 06 0f
        E 25 b0 06 0d
        E 25 b0 06 0b
        E 25 b0 06 0a
        E 25 b0 06 08
        E 25 b0 06 07
        E 25 b0 06 06
        E 25 b0 06 05
        E 25 b0 06 03
        E 25 b0 06 03
        E 25 b0 06 02
        E 25 b0 06 01
        E 25 b0 06 00
        E 25 b0 06 00
        E 25 b0 06 00
        E 25 b0 06 00
        E 25 b0 06 00
        E 25 b0 06 00
        E 25 b0 06 00
        E 25 b0 06 00
        E 25 b0 06 00
        E 25 b0 06 01
        E 25 b0 06 02
        E 25 b0 06 03
        E 25 b0 06 03
        E 25 b0 06 04
        E 25 b0 06 05
        E 25 b0 06 07
        E 25 b0 06 07
        E 25 b0 06 09
        E 25 b0 06 0b
        E 25 b0 06 0c
        E 25 b0 06 0e
        E 25 b0 06 10
        E 25 b0 06 12
        E 25 b0 06 14
        E 25 b0 06 16
        E 25 b0 06 18
        E 25 b0 06 1a
        E 25 b0 06 1c
        E 25 b0 06 1f
        E 25 b0 06 21
        E 25 b0 06 24
        E 25 b0 06 26
        E 25 b0 06 28
        E 25 b0 06 2b
        E 25 b0 06 2d
        E 25 b0 06 2f
        E 25 b0 06 33
        E 6 b0 06 06
        E 6 b0 06 06
        E 6 b0 06 07
        E 6 b0 06 07
        E 6 b0 06 07
        E 6 b0 06 07
        E 6 b0 06 08
        E 6 b0 06 08
        E 6 b0 06 08
        E 6 b0 06 09
        E 6 b0 06 09
        E 6 b0 06 09
        E 6 b0 06 09
        E 6 b0 06 0a
        E 6 b0 06 0a
        E 6 b0 06 0a
        E 6 b0 06 0a
        E 6 b0 06 0b
        E 6 b0 06 0b
        E 6 b0 06 0b
        E 6 b0 06 0b
        E 6 b0 06 0b
        E 6 b0 06 0c
        E 6 b0 06 0c
        E 6 b0 06 0c
        E 6 b0 06 0c
        E 6 b0 06 0c
        E 6 b0 06 0c
        E 6 b0 06 0c
        E 6 b0 06 0c
        E 6 b0 06 0c
        E 6 b0 06 0c
        E 6 b0 06 0c
        E 6 b0 06 0c
        E 6 b0 06 0c
        E 6 b0 06 0c
        E 6 b0 06 0c
        E 6 b0 06 0c
        E 6 b0 06 0c
        E 6 b0 06 0c
        E 6 b0 06 0c
        E 6 b0 06 0c
        E 6 b0 06 0b
        E 6 b0 06 0b
        E 6 b0 06 0b
        E 6 b0 06 0b
        E 6 b0 06 0b
        E 6 b0 06 0b
        E 6 b0 06 0a
        E 6 b0 06 0a
        E 6 b0 06 0a
        E 6 b0 06 0a
        E 6 b0 06 09
        E 6 b0 06 09
        E 6 b0 06 09
        E 6 b0 06 08
        E 6 b0 06 08
        E 6 b0 06 08
        E 6 b0 06 08
        E 6 b0 06 07
        E 6 b0 06 07
        E 6 b0 06 07
        E 6 b0 06 06
        E 6 b0 06 06
        E 6 b0 06 06
        E 6 b0 06 05
        E 6 b0 06 05
        E 6 b0 06 05
        E 6 b0 06 04
        E 6 b0 06 04
        E 6 b0 06 04
        E 6 b0 06 04
        E 6 b0 06 03
        E 6 b0 06 03
        E 6 b0 06 03
        E 6 b0 06 02
        E 6 b0 06 02
        E 6 b0 06 02
        E 6 b0 06 02
        E 6 b0 06 01
        E 6 b0 06 01
        E 6 b0 06 01
        E 6 b0 06 01
        E 6 b0 06 01
        E 6 b0 06 01
        E 6 b0 06 00
        E 6 b0 06 00
        E 6 b0 06 00
        E 6 b0 06 00
        E 6 b0 06 00
        E 6 b0 06 00
        E 6 b0 06 00
        E 6 b0 06 00
        E 6 b0 06 00
        E 6 b0 06 00
        E 6 b0 06 00
        E 6 b0 06 00
        E 6 b0 06 00
        E 6 b0 06 00
        E 6 b0 06 00
        E 6 b0 06 00
        E 6 b0 06 00
        E 6 b0 06 00
        E 6 b0 06 00
        E 6 b0 06 00
        E 6 b0 06 00
        E 6 b0 06 00
        E 6 b0 06 01
        E 6 b0 06 01
        E 6 b0 06 01
        E 6 b0 06 01
        E 6 b0 06 01
        E 6 b0 06 02
        E 6 b0 06 02
        E 6 b0 06 02
        E 6 b0 06 02
        E 6 b0 06 03
        E 6 b0 06 03
        E 6 b0 06 03
        E 6 b0 06 03
        E 6 b0 06 04
        E 6 b0 06 04
        E 6 b0 06 04
        E 6 b0 06 05
        E 6 b0 06 05
        E 6 b0 06 05
        E 6 b0 06 06
        E 6 b0 06 06
        E 44 b0 06 39
        E 44 b0 06 3c
        E 44 b0 06 3f
        E 44 b0 06 41
        E 44 b0 06 44
        E 44 b0 06 47
        E 44 b0 06 49
        E 44 b0 06 4c
        E 44 b0 06 4f
        E 44 b0 06 51
        E 44 b0 06 54
        E 44 b0 06 56
        E 44 b0 06 59
        E 44 b0 06 5b
        E 44 b0 06 5d
        E 44 b0 06 5f
        E 44 b0 06 62
        E 44 b0 06 63
        E 44 b0 06 65
        E 44 b0 06 67
        E 44 b0 06 69
        E 44 b0 06 6a
        E 44 b0 06 6c
        E 44 b0 06 6c
        E 44 b0 06 6d
        E 44 b0 06 6e
        E 44 b0 06 6f
        E 44 b0 06 70
        E 44 b0 06 71
        E 44 b0 06 71
        E 44 b0 06 72
        E 44 b0 06 72
        E 44 b0 06 72
        E 44 b0 06 72
        E 44 b0 06 72
        E 44 b0 06 71
        E 44 b0 06 71
        E 44 b0 06 70
        E 44 b0 06 6f
        E 44 b0 06 6e
        E 44 b0 06 6d
        E 44 b0 06 6c
        E 44 b0 06 6b
        E 44 b0 06 69
        E 44 b0 06 68
        E 44 b0 06 66
        E 44 b0 06 64
        E 44 b0 06 63
        E 44 b0 06 61
        E 44 b0 06 5e
        E 44 b0 06 5c
        E 44 b0 06 5a
        E 44 b0 06 58
        E 44 b0 06 55
        E 44 b0 06 52
        E 44 b0 06 50
        E 44 b0 06 4e
        E 44 b0 06 4b
        E 44 b0 06 48
        E 44 b0 06 46
        E 44 b0 06 42
        E 44 b0 06 3f
        E 44 b0 06 3d
        E 44 b0 06 3a
        E 44 b0 06 37
        E 44 b0 06 35
        E 44 b0 06 32
        E 44 b0 06 2f
        E 44 b0 06 2c
        E 44 b0 06 29
        E 44 b0 06 26
        E 44 b0 06 24
        E 44 b0 06 22
        E 44 b0 06 1f
        E 44 b0 06 1c
        E 44 b0 06 1a
        E 44 b0 06 18
        E 44 b0 06 15
        E 44 b0 06 13
        E 44 b0 06 11
        E 44 b0 06 0f
        E 44 b0 06 0d
        E 44 b0 06 0b
        E 44 b0 06 09
        E 44 b0 06 09
        E 44 b0 06 07
        E 44 b0 06 06
        E 44 b0 06 04
        E 44 b0 06 03
        E 44 b0 06 02
        E 44 b0 06 01
        E 44 b0 06 00
        E 44 b0 06 00
        E 44 b0 06 00
        E 44 b0 06 00
        E 44 b0 06 00
        E 44 b0 06 00
        E 44 b0 06 00
        E 44 b0 06 00
        E 44 b0 06 00
        E 44 b0 06 01
        E 44 b0 06 02
        E 44 b0 06 03
        E 44 b0 06 04
        E 44 b0 06 05
        E 44 b0 06 06
        E 44 b0 06 08
        E 44 b0 06 09
        E 44 b0 06 0a
        E 44 b0 06 0c
        E 44 b0 06 0e
        E 44 b0 06 10
        E 44 b0 06 12
        E 44 b0 06 14
        E 44 b0 06 16
        E 44 b0 06 19
        E 44 b0 06 1b
        E 44 b0 06 1d
        E 44 b0 06 20
        E 44 b0 06 23
        E 44 b0 06 25
        E 44 b0 06 28
        E 44 b0 06 2b
        E 44 b0 06 2d
        E 44 b0 06 30
        E 44 b0 06 33
        E 44 b0 06 36
        E 44 b0 06 39
        E 19 b0 06 33
        E 19 b0 06 35
        E 19 b0 06 37
        E 19 b0 06 3a
        E 19 b0 06 3c
        E 19 b0 06 3f
        E 19 b0 06 41
        E 19 b0 06 44
        E 19 b0 06 46
        E 19 b0 06 48
        E 19 b0 06 4b
        E 19 b0 06 4c
        E 19 b0 06 4f
        E 19 b0 06 51
        E 19 b0 06 53
        E 19 b0 06 54
        E 19 b0 06 57
        E 19 b0 06 58
        E 19 b0 06 5a
        E 19 b0 06 5b
        E 19 b0 06 5d
        E 19 b0 06 5e
        E 19 b0 06 5f
        E 19 b0 06 60
        E 19 b0 06 61
        E 19 b0 06 62
        E 19 b0 06 63
        E 19 b0 06 63
        E 19 b0 06 64
        E 19 b0 06 64
        E 19 b0 06 65
        E 19 b0 06 65
        E 19 b0 06 65
        E 19 b0 06 65
        E 19 b0 06 65
        E 19 b0 06 64
        E 19 b0 06 64
        E 19 b0 06 63
        E 19 b0 06 63
        E 19 b0 06 62
        E 19 b0 06 61
        E 19 b0 06 5f
        E 19 b0 06 5f
        E 19 b0 06 5d
        E 19 b0 06 5c
        E 19 b0 06 5b
        E 19 b0 06 59
        E 19 b0 06 57
        E 19 b0 06 56
        E 19 b0 06 54
        E 19 b0 06 52
        E 19 b0 06 50
        E 19 b0 06 4e
        E 19 b0 06 4c
        E 19 b0 06 49
        E 19 b0 06 47
        E 19 b0 06 45
        E 19 b0 06 43
        E 19 b0 06 40
        E 19 b0 06 3e
        E 19 b0 06 3b
        E 19 b0 06 38
        E 19 b0 06 36
        E 19 b0 06 33
        E 19 b0 06 31
        E 19 b0 06 2f
        E 19 b0 06 2c
        E 19 b0 06 2a
        E 19 b0 06 27
        E 19 b0 06 24
        E 19 b0 06 22
        E 19 b0 06 1f
        E 19 b0 06 1e
        E 19 b0 06 1b
        E 19 b0 06 19
        E 19 b0 06 17
        E 19 b0 06 15
        E 19 b0 06 13
        E 19 b0 06 11
        E 19 b0 06 0f
        E 19 b0 06 0d
        E 19 b0 06 0b
        E 19 b0 06 0a
        E 19 b0 06 08
        E 19 b0 06 07
        E 19 b0 06 06
        E 19 b0 06 05
        E 19 b0 06 03
        E 19 b0 06 03
        E 19 b0 06 02
        E 19 b0 06 01
        E 19 b0 06 00
        E 19 b0 06 00
        E 19 b0 06 00
        E 19 b0 06 00
        E 19 b0 06 00
        E 19 b0 06 00
        E 19 b0 06 00
        E 19 b0 06 00
        E 19 b0 06 00
        E 19 b0 06 01
        E 19 b0 06 02
        E 19 b0 06 03
        E 19 b0 06 03
        E 19 b0 06 04
        E 19 b0 06 05
        E 19 b0 06 07
        E 19 b0 06 07
        E 19 b0 06 09
        E 19 b0 06 0b
        E 19 b0 06 0c
        E 19 b0 06 0e
        E 19 b0 06 10
        E 19 b0 06 12
        E 19 b0 06 14
        E 19 b0 06 16
        E 19 b0 06 18
        E 19 b0 06 1a
        E 19 b0 06 1c
        E 19 b0 06 1f
        E 19 b0 06 21
        E 19 b0 06 24
        E 19 b0 06 26
        E 19 b0 06 28
        E 19 b0 06 2b
        E 19 b0 06 2d
        E 19 b0 06 2f
        E 19 b0 06 33
        E 38 b0 06 39
        E 38 b0 06 3c
        E 38 b0 06 3f
        E 38 b0 06 41
        E 38 b0 06 44
        E 38 b0 06 47
        E 38 b0 06 49
        E 38 b0 06 4c
        E 38 b0 06 4f
        E 38 b0 06 51
        E 38 b0 06 54
        E 38 b0 06 56
        E 38 b0 06 59
        E 38 b0 06 5b
        E 38 b0 06 5d
        E 38 b0 06 5f
        E 38 b0 06 62
        E 38 b0 06 63
        E 38 b0 06 65
        E 38 b0 06 67
        E 38 b0 06 69
        E 38 b0 06 6a
        E 38 b0 06 6c
        E 38 b0 06 6c
        E 38 b0 06 6d
        E 38 b0 06 6e
        E 38 b0 06 6f
        E 38 b0 06 70
        E 38 b0 06 71
        E 38 b0 06 71
        E 38 b0 06 72
        E 38 b0 06 72
        E 38 b0 06 72
        E 38 b0 06 72
        E 38 b0 06 72
        E 38 b0 06 71
        E 38 b0 06 71
        E 38 b0 06 70
        E 38 b0 06 6f
        E 38 b0 06 6e
        E 38 b0 06 6d
        E 38 b0 06 6c
        E 38 b0 06 6b
        E 38 b0 06 69
        E 38 b0 06 68
        E 38 b0 06 66
        E 38 b0 06 64
        E 38 b0 06 63
        E 38 b0 06 61
        E 38 b0 06 5e
        E 38 b0 06 5c
        E 38 b0 06 5a
        E 38 b0 06 58
        E 38 b0 06 55
        E 38 b0 06 52
        E 38 b0 06 50
        E 38 b0 06 4e
        E 38 b0 06 4b
        E 38 b0 06 48
        E 38 b0 06 46
        E 38 b0 06 42
        E 38 b0 06 3f
        E 38 b0 06 3d
        E 38 b0 06 3a
        E 38 b0 06 37
        E 38 b0 06 35
        E 38 b0 06 32
        E 38 b0 06 2f
        E 38 b0 06 2c
        E 38 b0 06 29
        E 38 b0 06 26
        E 38 b0 06 24
        E 38 b0 06 22
        E 38 b0 06 1f
        E 38 b0 06 1c
        E 38 b0 06 1a
        E 38 b0 06 18
        E 38 b0 06 15
        E 38 b0 06 13
        E 38 b0 06 11
        E 38 b0 06 0f
        E 38 b0 06 0d
        E 38 b0 06 0b
        E 38 b0 06 09
        E 38 b0 06 09
        E 38 b0 06 07
        E 38 b0 06 06
        E 38 b0 06 04
        E 38 b0 06 03
        E 38 b0 06 02
        E 38 b0 06 01
        E 38 b0 06 00
        E 38 b0 06 00
        E 38 b0 06 00
        E 38 b0 06 00
        E 38 b0 06 00
        E 38 b0 06 00
        E 38 b0 06 00
        E 38 b0 06 00
        E 38 b0 06 00
        E 38 b0 06 01
        E 38 b0 06 02
        E 38 b0 06 03
        E 38 b0 06 04
        E 38 b0 06 05
        E 38 b0 06 06
        E 38 b0 06 08
        E 38 b0 06 09
        E 38 b0 06 0a
        E 38 b0 06 0c
        E 38 b0 06 0e
        E 38 b0 06 10
        E 38 b0 06 12
        E 38 b0 06 14
        E 38 b0 06 16
        E 38 b0 06 19
        E 38 b0 06 1b
        E 38 b0 06 1d
        E 38 b0 06 20
        E 38 b0 06 23
        E 38 b0 06 25
        E 38 b0 06 28
        E 38 b0 06 2b
        E 38 b0 06 2d
        E 38 b0 06 30
        E 38 b0 06 33
        E 38 b0 06 36
        E 38 b0 06 39
        E 57 b0 06 13
        E 57 b0 06 14
        E 57 b0 06 15
        E 57 b0 06 15
        E 57 b0 06 16
        E 57 b0 06 17
        E 57 b0 06 18
        E 57 b0 06 19
        E 57 b0 06 1a
        E 57 b0 06 1b
        E 57 b0 06 1c
        E 57 b0 06 1c
        E 57 b0 06 1d
        E 57 b0 06 1e
        E 57 b0 06 1f
        E 57 b0 06 1f
        E 57 b0 06 20
        E 57 b0 06 21
        E 57 b0 06 21
        E 57 b0 06 22
        E 57 b0 06 23
        E 57 b0 06 23
        E 57 b0 06 24
        E 57 b0 06 24
        E 57 b0 06 24
        E 57 b0 06 24
        E 57 b0 06 25
        E 57 b0 06 25
        E 57 b0 06 25
        E 57 b0 06 25
        E 57 b0 06 26
        E 57 b0 06 26
        E 57 b0 06 26
        E 57 b0 06 26
        E 57 b0 06 26
        E 57 b0 06 25
        E 57 b0 06 25
        E 57 b0 06 25
        E 57 b0 06 25
        E 57 b0 06 24
        E 57 b0 06 24
        E 57 b0 06 24
        E 57 b0 06 23
        E 57 b0 06 23
        E 57 b0 06 22
        E 57 b0 06 22
        E 57 b0 06 21
        E 57 b0 06 21
        E 57 b0 06 20
        E 57 b0 06 1f
        E 57 b0 06 1e
        E 57 b0 06 1e
        E 57 b0 06 1d
        E 57 b0 06 1c
        E 57 b0 06 1b
        E 57 b0 06 1a
        E 57 b0 06 1a
        E 57 b0 06 19
        E 57 b0 06 18
        E 57 b0 06 17
        E 57 b0 06 16
        E 57 b0 06 15
        E 57 b0 06 14
        E 57 b0 06 13
        E 57 b0 06 12
        E 57 b0 06 11
        E 57 b0 06 10
        E 57 b0 06 0f
        E 57 b0 06 0e
        E 57 b0 06 0d
        E 57 b0 06 0c
        E 57 b0 06 0c
        E 57 b0 06 0b
        E 57 b0 06 0a
        E 57 b0 06 09
        E 57 b0 06 08
        E 57 b0 06 08
        E 57 b0 06 07
        E 57 b0 06 06
        E 57 b0 06 05
        E 57 b0 06 05
        E 57 b0 06 04
        E 57 b0 06 03
        E 57 b0 06 03
        E 57 b0 06 03
        E 57 b0 06 02
        E 57 b0 06 02
        E 57 b0 06 01
        E 57 b0 06 01
        E 57 b0 06 00
        E 57 b0 06 00
        E 57 b0 06 00
        E 57 b0 06 00
        E 57 b0 06 00
        E 57 b0 06 00
        E 57 b0 06 00
        E 57 b0 06 00
        E 57 b0 06 00
        E 57 b0 06 00
        E 57 b0 06 00
        E 57 b0 06 00
        E 57 b0 06 00
        E 57 b0 06 01
        E 57 b0 06 01
        E 57 b0 06 01
        E 57 b0 06 02
        E 57 b0 06 02
        E 57 b0 06 03
        E 57 b0 06 03
        E 57 b0 06 04
        E 57 b0 06 04
        E 57 b0 06 05
        E 57 b0 06 06
        E 57 b0 06 06
        E 57 b0 06 07
        E 57 b0 06 08
        E 57 b0 06 09
        E 57 b0 06 09
        E 57 b0 06 0a
        E 57 b0 06 0b
        E 57 b0 06 0c
        E 57 b0 06 0d
        E 57 b0 06 0e
        E 57 b0 06 0f
        E 57 b0 06 10
        E 57 b0 06 11
        E 57 b0 06 12
        E 57 b0 06 13
        E 25 b0 06 33
        E 25 b0 06 35
        E 25 b0 06 37
        E 25 b0 06 3a
        E 25 b0 06 3c
        E 25 b0 06 3f
        E 25 b0 06 41
        E 25 b0 06 44
        E 25 b0 06 46
        E 25 b0 06 48
        E 25 b0 06 4b
        E 25 b0 06 4c
        E 25 b0 06 4f
        E 25 b0 06 51
        E 25 b0 06 53
        E 25 b0 06 54
        E 25 b0 06 57
        E 25 b0 06 58
        E 25 b0 06 5a
        E 25 b0 06 5b
        E 25 b0 06 5d
        E 25 b0 06 5e
        E 25 b0 06 5f
        E 25 b0 06 60
        E 25 b0 06 61
        E 25 b0 06 62
        E 25 b0 06 63
        E 25 b0 06 63
        E 25 b0 06 64
        E 25 b0 06 64
        E 25 b0 06 65
        E 25 b0 06 65
        E 25 b0 06 65
        E 25 b0 06 65
        E 25 b0 06 65
        E 25 b0 06 64
        E 25 b0 06 64
        E 25 b0 06 63
        E 25 b0 06 63
        E 25 b0 06 62
        E 25 b0 06 61
        E 25 b0 06 5f
        E 25 b0 06 5f
        E 25 b0 06 5d
        E 25 b0 06 5c
        E 25 b0 06 5b
        E 25 b0 06 59
        E 25 b0 06 57
        E 25 b0 06 56
        E 25 b0 06 54
        E 25 b0 06 52
        E 25 b0 06 50
        E 25 b0 06 4e
        E 25 b0 06 4c
        E 25 b0 06 49
        E 25 b0 06 47
        E 25 b0 06 45
        E 25 b0 06 43
        E 25 b0 06 40
        E 25 b0 06 3e
        E 25 b0 06 3b
        E 25 b0 06 38
        E 25 b0 06 36
        E 25 b0 06 33
        E 25 b0 06 31
        E 25 b0 06 2f
        E 25 b0 06 2c
        E 25 b0 06 2a
        E 25 b0 06 27
        E 25 b0 06 24
        E 25 b0 06 22
        E 25 b0 06 1f
        E 25 b0 06 1e
        E 25 b0 06 1b
        E 25 b0 06 19
        E 25 b0 06 17
        E 25 b0 06 15
        E 25 b0 06 13
        E 25 b0 06 11
        E 25 b0 06 0f
        E 25 b0 06 0d
        E 25 b0 06 0b
        E 25 b0 06 0a
        E 25 b0 06 08
        E 25 b0 06 07
        E 25 b0 06 06
        E 25 b0 06 05
        E 25 b0 06 03
        E 25 b0 06 03
        E 25 b0 06 02
        E 25 b0 06 01
        E 25 b0 06 00
        E 25 b0 06 00
        E 25 b0 06 00
        E 25 b0 06 00
        E 25 b0 06 00
        E 25 b0 06 00
        E 25 b0 06 00
        E 25 b0 06 00
        E 25 b0 06 00
        E 25 b0 06 01
        E 25 b0 06 02
        E 25 b0 06 03
        E 25 b0 06 03
        E 25 b0 06 04
        E 25 b0 06 05
        E 25 b0 06 07
        E 25 b0 06 07
        E 25 b0 06 09
        E 25 b0 06 0b
        E 25 b0 06 0c
        E 25 b0 06 0e
        E 25 b0 06 10
        E 25 b0 06 12
        E 25 b0 06 14
        E 25 b0 06 16
        E 25 b0 06 18
        E 25 b0 06 1a
        E 25 b0 06 1c
        E 25 b0 06 1f
        E 25 b0 06 21
        E 25 b0 06 24
        E 25 b0 06 26
        E 25 b0 06 28
        E 25 b0 06 2b
        E 25 b0 06 2d
        E 25 b0 06 2f
        E 25 b0 06 33
        E 6 b0 06 06
        E 6 b0 06 06
        E 6 b0 06 07
        E 6 b0 06 07
        E 6 b0 06 07
        E 6 b0 06 07
        E 6 b0 06 08
        E 6 b0 06 08
        E 6 b0 06 08
        E 6 b0 06 09
        E 6 b0 06 09
        E 6 b0 06 09
        E 6 b0 06 09
        E 6 b0 06 0a
        E 6 b0 06 0a
        E 6 b0 06 0a
        E 6 b0 06 0a
        E 6 b0 06 0b
        E 6 b0 06 0b
        E 6 b0 06 0b
        E 6 b0 06 0b
        E 6 b0 06 0b
        E 6 b0 06 0c
        E 6 b0 06 0c
        E 6 b0 06 0c
        E 6 b0 06 0c
        E 6 b0 06 0c
        E 6 b0 06 0c
        E 6 b0 06 0c
        E 6 b0 06 0c
        E 6 b0 06 0c
        E 6 b0 06 0c
        E 6 b0 06 0c
        E 6 b0 06 0c
        E 6 b0 06 0c
        E 6 b0 06 0c
        E 6 b0 06 0c
        E 6 b0 06 0c
        E 6 b0 06 0c
        E 6 b0 06 0c
        E 6 b0 06 0c
        E 6 b0 06 0c
        E 6 b0 06 0b
        E 6 b0 06 0b
        E 6 b0 06 0b
        E 6 b0 06 0b
        E 6 b0 06 0b
        E 6 b0 06 0b
        E 6 b0 06 0a
        E 6 b0 06 0a
        E 6 b0 06 0a
        E 6 b0 06 0a
        E 6 b0 06 09
        E 6 b0 06 09
        E 6 b0 06 09
        E 6 b0 06 08
        E 6 b0 06 08
        E 6 b0 06 08
        E 6 b0 06 08
        E 6 b0 06 07
        E 6 b0 06 07
        E 6 b0 06 07
        E 6 b0 06 06
        E 6 b0 06 06
        E 6 b0 06 06
        E 6 b0 06 05
        E 6 b0 06 05
        E 6 b0 06 05
        E 6 b0 06 04
        E 6 b0 06 04
        E 6 b0 06 04
        E 6 b0 06 04
        E 6 b0 06 03
        E 6 b0 06 03
        E 6 b0 06 03
        E 6 b0 06 02
        E 6 b0 06 02
        E 6 b0 06 02
        E 6 b0 06 02
        E 6 b0 06 01
        E 6 b0 06 01
        E 6 b0 06 01
        E 6 b0 06 01
        E 6 b0 06 01
        E 6 b0 06 01
        E 6 b0 06 00
        E 6 b0 06 00
        E 6 b0 06 00
        E 6 b0 06 00
        E 6 b0 06 00
        E 6 b0 06 00
        E 6 b0 06 00
        E 6 b0 06 00
        E 6 b0 06 00
        E 6 b0 06 00
        E 6 b0 06 00
        E 6 b0 06 00
        E 6 b0 06 00
        E 6 b0 06 00
        E 6 b0 06 00
        E 6 b0 06 00
        E 6 b0 06 00
        E 6 b0 06 00
        E 6 b0 06 00
        E 6 b0 06 00
        E 6 b0 06 00
        E 6 b0 06 00
        E 6 b0 06 01
        E 6 b0 06 01
        E 6 b0 06 01
        E 6 b0 06 01
        E 6 b0 06 01
        E 6 b0 06 02
        E 6 b0 06 02
        E 6 b0 06 02
        E 6 b0 06 02
        E 6 b0 06 03
        E 6 b0 06 03
        E 6 b0 06 03
        E 6 b0 06 03
        E 6 b0 06 04
        E 6 b0 06 04
        E 6 b0 06 04
        E 6 b0 06 05
        E 6 b0 06 05
        E 6 b0 06 05
        E 6 b0 06 06
        E 6 b0 06 06
        E 44 b0 06 39
        E 44 b0 06 3c
        E 44 b0 06 3f
        E 44 b0 06 41
        E 44 b0 06 44
        E 44 b0 06 47
        E 44 b0 06 49
        E 44 b0 06 4c
        E 44 b0 06 4f
        E 44 b0 06 51
        E 44 b0 06 54
        E 44 b0 06 56
        E 44 b0 06 59
        E 44 b0 06 5b
        E 44 b0 06 5d
        E 44 b0 06 5f
        E 44 b0 06 62
        E 44 b0 06 63
        E 44 b0 06 65
        E 44 b0 06 67
        E 44 b0 06 69
        E 44 b0 06 6a
        E 44 b0 06 6c
        E 44 b0 06 6c
        E 44 b0 06 6d
        E 44 b0 06 6e
        E 44 b0 06 6f
        E 44 b0 06 70
        E 44 b0 06 71
        E 44 b0 06 71
        E 44 b0 06 72
        E 44 b0 06 72
        E 44 b0 06 72
        E 44 b0 06 72
        E 44 b0 06 72
        E 44 b0 06 71
        E 44 b0 06 71
        E 44 b0 06 70
        E 44 b0 06 6f
        E 44 b0 06 6e
        E 44 b0 06 6d
        E 44 b0 06 6c
        E 44 b0 06 6b
        E 44 b0 06 69
        E 44 b0 06 68
        E 44 b0 06 66
        E 44 b0 06 64
        E 44 b0 06 63
        E 44 b0 06 61
        E 44 b0 06 5e
        E 44 b0 06 5c
        E 44 b0 06 5a
        E 44 b0 06 58
        E 44 b0 06 55
        E 44 b0 06 52
        E 44 b0 06 50
        E 44 b0 06 4e
        E 44 b0 06 4b
        E 44 b0 06 48
        E 44 b0 06 46
        E 44 b0 06 42
        E 44 b0 06 3f
        E 44 b0 06 3d
        E 44 b0 06 3a
        E 44 b0 06 37
        E 44 b0 06 35
        E 44 b0 06 32
        E 44 b0 06 2f
        E 44 b0 06 2c
        E 44 b0 06 29
        E 44 b0 06 26
        E 44 b0 06 24
        E 44 b0 06 22
        E 44 b0 06 1f
        E 44 b0 06 1c
        E 44 b0 06 1a
        E 44 b0 06 18
        E 44 b0 06 15
        E 44 b0 06 13
        E 44 b0 06 11
        E 44 b0 06 0f
        E 44 b0 06 0d
        E 44 b0 06 0b
        E 44 b0 06 09
        E 44 b0 06 09
        E 44 b0 06 07
        E 44 b0 06 06
        E 44 b0 06 04
        E 44 b0 06 03
        E 44 b0 06 02
        E 44 b0 06 01
        E 44 b0 06 00
        E 44 b0 06 00
        E 44 b0 06 00
        E 44 b0 06 00
        E 44 b0 06 00
        E 44 b0 06 00
        E 44 b0 06 00
        E 44 b0 06 00
        E 44 b0 06 00
        E 44 b0 06 01
        E 44 b0 06 02
        E 44 b0 06 03
        E 44 b0 06 04
        E 44 b0 06 05
        E 44 b0 06 06
        E 44 b0 06 08
        E 44 b0 06 09
        E 44 b0 06 0a
        E 44 b0 06 0c
        E 44 b0 06 0e
        E 44 b0 06 10
        E 44 b0 06 12
        E 44 b0 06 14
        E 44 b0 06 16
        E 44 b0 06 19
        E 44 b0 06 1b
        E 44 b0 06 1d
        E 44 b0 06 20
        E 44 b0 06 23
        E 44 b0 06 25
        E 44 b0 06 28
        E 44 b0 06 2b
        E 44 b0 06 2d
        E 44 b0 06 30
        E 44 b0 06 33
        E 44 b0 06 36
        E 44 b0 06 39
        E 19 b0 06 33
        E 19 b0 06 35
        E 19 b0 06 37
        E 19 b0 06 3a
        E 19 b0 06 3c
        E 19 b0 06 3f
        E 19 b0 06 41
        E 19 b0 06 44
        E 19 b0 06 46
        E 19 b0 06 48
        E 19 b0 06 4b
        E 19 b0 06 4c
        E 19 b0 06 4f
        E 19 b0 06 51
        E 19 b0 06 53
        E 19 b0 06 54
        E 19 b0 06 57
        E 19 b0 06 58
        E 19 b0 06 5a
        E 19 b0 06 5b
        E 19 b0 06 5d
        E 19 b0 06 5e
        E 19 b0 06 5f
        E 19 b0 06 60
        E 19 b0 06 61
        E 19 b0 06 62
        E 19 b0 06 63
        E 19 b0 06 63
        E 19 b0 06 64
        E 19 b0 06 64
        E 19 b0 06 65
        E 19 b0 06 65
        E 19 b0 06 65
        E 19 b0 06 65
        E 19 b0 06 65
        E 19 b0 06 64
        E 19 b0 06 64
        E 19 b0 06 63
        E 19 b0 06 63
        E 19 b0 06 62
        E 19 b0 06 61
        E 19 b0 06 5f
        E 19 b0 06 5f
        E 19 b0 06 5d
        E 19 b0 06 5c
        E 19 b0 06 5b
        E 19 b0 06 59
        E 19 b0 06 57
        E 19 b0 06 56
        E 19 b0 06 54
        E 19 b0 06 52
        E 19 b0 06 50
        E 19 b0 06 4e
        E 19 b0 06 4c
        E 19 b0 06 49
        E 19 b0 06 47
        E 19 b0 06 45
        E 19 b0 06 43
        E 19 b0 06 40
        E 19 b0 06 3e
        E 19 b0 06 3b
        E 19 b0 06 38
        E 19 b0 06 36
        E 19 b0 06 33
        E 19 b0 06 31
        E 19 b0 06 2f
        E 19 b0 06 2c
        E 19 b0 06 2a
        E 19 b0 06 27
        E 19 b0 06 24
        E 19 b0 06 22
        E 19 b0 06 1f
        E 19 b0 06 1e
        E 19 b0 06 1b
        E 19 b0 06 19
        E 19 b0 06 17
        E 19 b0 06 15
        E 19 b0 06 13
        E 19 b0 06 11
        E 19 b0 06 0f
        E 19 b0 06 0d
        E 19 b0 06 0b
        E 19 b0 06 0a
        E 19 b0 06 08
        E 19 b0 06 07
        E 19 b0 06 06
        E 19 b0 06 05
        E 19 b0 06 03
        E 19 b0 06 03
        E 19 b0 06 02
        E 19 b0 06 01
        E 19 b0 06 00
        E 19 b0 06 00
        E 19 b0 06 00
        E 19 b0 06 00
        E 19 b0 06 00
        E 19 b0 06 00
        E 19 b0 06 00
        E 19 b0 06 00
        E 19 b0 06 00
        E 19 b0 06 01
        E 19 b0 06 02
        E 19 b0 06 03
        E 19 b0 06 03
        E 19 b0 06 04
        E 19 b0 06 05
        E 19 b0 06 07
        E 19 b0 06 07
        E 19 b0 06 09
        E 19 b0 06 0b
        E 19 b0 06 0c
        E 19 b0 06 0e
        E 19 b0 06 10
        E 19 b0 06 12
        E 19 b0 06 14
        E 19 b0 06 16
        E 19 b0 06 18
        E 19 b0 06 1a
        E 19 b0 06 1c
        E 19 b0 06 1f
        E 19 b0 06 21
        E 19 b0 06 24
        E 19 b0 06 26
        E 19 b0 06 28
        E 19 b0 06 2b
        E 19 b0 06 2d
        E 19 b0 06 2f
        E 19 b0 06 33
        E 38 b0 06 39
        E 38 b0 06 3c
        E 38 b0 06 3f
        E 38 b0 06 41
        E 38 b0 06 44
        E 38 b0 06 47
        E 38 b0 06 49
        E 38 b0 06 4c
        E 38 b0 06 4f
        E 38 b0 06 51
        E 38 b0 06 54
        E 38 b0 06 56
        E 38 b0 06 59
        E 38 b0 06 5b
        E 38 b0 06 5d
        E 38 b0 06 5f
        E 38 b0 06 62
        E 38 b0 06 63
        E 38 b0 06 65
        E 38 b0 06 67
        E 38 b0 06 69
        E 38 b0 06 6a
        E 38 b0 06 6c
        E 38 b0 06 6c
        E 38 b0 06 6d
        E 38 b0 06 6e
        E 38 b0 06 6f
        E 38 b0 06 70
        E 38 b0 06 71
        E 38 b0 06 71
        E 38 b0 06 72
        E 38 b0 06 72
        E 38 b0 06 72
        E 38 b0 06 72
        E 38 b0 06 72
        E 38 b0 06 71
        E 38 b0 06 71
        E 38 b0 06 70
        E 38 b0 06 6f
        E 38 b0 06 6e
        E 38 b0 06 6d
        E 38 b0 06 6c
        E 38 b0 06 6b
        E 38 b0 06 69
        E 38 b0 06 68
        E 38 b0 06 66
        E 38 b0 06 64
        E 38 b0 06 63
        E 38 b0 06 61
        E 38 b0 06 5e
        E 38 b0 06 5c
        E 38 b0 06 5a
        E 38 b0 06 58
        E 38 b0 06 55
        E 38 b0 06 52
        E 38 b0 06 50
        E 38 b0 06 4e
        E 38 b0 06 4b
        E 38 b0 06 48
        E 38 b0 06 46
        E 38 b0 06 42
        E 38 b0 06 3f
        E 38 b0 06 3d
        E 38 b0 06 3a
        E 38 b0 06 37
        E 38 b0 06 35
        E 38 b0 06 32
        E 38 b0 06 2f
        E 38 b0 06 2c
        E 38 b0 06 29
        E 38 b0 06 26
        E 38 b0 06 24
        E 38 b0 06 22
        E 38 b0 06 1f
        E 38 b0 06 1c
        E 38 b0 06 1a
        E 38 b0 06 18
        E 38 b0 06 15
        E 38 b0 06 13
        E 38 b0 06 11
        E 38 b0 06 0f
        E 38 b0 06 0d
        E 38 b0 06 0b
        E 38 b0 06 09
        E 38 b0 06 09
        E 38 b0 06 07
        E 38 b0 06 06
        E 38 b0 06 04
        E 38 b0 06 03
        E 38 b0 06 02
        E 38 b0 06 01
        E 38 b0 06 00
        E 38 b0 06 00
        E 38 b0 06 00
        E 38 b0 06 00
        E 38 b0 06 00
        E 38 b0 06 00
        E 38 b0 06 00
        E 38 b0 06 00
        E 38 b0 06 00
        E 38 b0 06 01
        E 38 b0 06 02
        E 38 b0 06 03
        E 38 b0 06 04
        E 38 b0 06 05
        E 38 b0 06 06
        E 38 b0 06 08
        E 38 b0 06 09
        E 38 b0 06 0a
        E 38 b0 06 0c
        E 38 b0 06 0e
        E 38 b0 06 10
        E 38 b0 06 12
        E 38 b0 06 14
        E 38 b0 06 16
        E 38 b0 06 19
        E 38 b0 06 1b
        E 38 b0 06 1d
        E 38 b0 06 20
        E 38 b0 06 23
        E 38 b0 06 25
        E 38 b0 06 28
        E 38 b0 06 2b
        E 38 b0 06 2d
        E 38 b0 06 30
        E 38 b0 06 33
        E 38 b0 06 36
        E 38 b0 06 39
        E 57 b0 06 13
        E 57 b0 06 14
        E 57 b0 06 15
        E 57 b0 06 15
        E 57 b0 06 16
        E 57 b0 06 17
        E 57 b0 06 18
        E 57 b0 06 19
        E 57 b0 06 1a
        E 57 b0 06 1b
        E 57 b0 06 1c
        E 57 b0 06 1c
        E 57 b0 06 1d
        E 57 b0 06 1e
        E 57 b0 06 1f
        E 57 b0 06 1f
        E 57 b0 06 20
        E 57 b0 06 21
        E 57 b0 06 21
        E 57 b0 06 22
        E 57 b0 06 23
        E 57 b0 06 23
        E 57 b0 06 24
        E 57 b0 06 24
        E 57 b0 06 24
        E 57 b0 06 24
        E 57 b0 06 25
        E 57 b0 06 25
        E 57 b0 06 25
        E 57 b0 06 25
        E 57 b0 06 26
        E 57 b0 06 26
        E 57 b0 06 26
        E 57 b0 06 26
        E 57 b0 06 26
        E 57 b0 06 25
        E 57 b0 06 25
        E 57 b0 06 25
        E 57 b0 06 25
        E 57 b0 06 24
        E 57 b0 06 24
        E 57 b0 06 24
        E 57 b0 06 23
        E 57 b0 06 23
        E 57 b0 06 22
        E 57 b0 06 22
        E 57 b0 06 21
        E 57 b0 06 21
        E 57 b0 06 20
        E 57 b0 06 1f
        E 57 b0 06 1e
        E 57 b0 06 1e
        E 57 b0 06 1d
        E 57 b0 06 1c
        E 57 b0 06 1b
        E 57 b0 06 1a
        E 57 b0 06 1a
        E 57 b0 06 19
        E 57 b0 06 18
        E 57 b0 06 17
        E 57 b0 06 16
        E 57 b0 06 15
        E 57 b0 06 14
        E 57 b0 06 13
        E 57 b0 06 12
        E 57 b0 06 11
        E 57 b0 06 10
        E 57 b0 06 0f
        E 57 b0 06 0e
        E 57 b0 06 0d
        E 57 b0 06 0c
        E 57 b0 06 0c
        E 57 b0 06 0b
        E 57 b0 06 0a
        E 57 b0 06 09
        E 57 b0 06 08
        E 57 b0 06 08
        E 57 b0 06 07
        E 57 b0 06 06
        E 57 b0 06 05
        E 57 b0 06 05
        E 57 b0 06 04
        E 57 b0 06 03
        E 57 b0 06 03
        E 57 b0 06 03
        E 57 b0 06 02
        E 57 b0 06 02
        E 57 b0 06 01
        E 57 b0 06 01
        E 57 b0 06 00
        E 57 b0 06 00
        E 57 b0 06 00
        E 57 b0 06 00
        E 57 b0 06 00
        E 57 b0 06 00
        E 57 b0 06 00
        E 57 b0 06 00
        E 57 b0 06 00
        E 57 b0 06 00
        E 57 b0 06 00
        E 57 b0 06 00
        E 57 b0 06 00
        E 57 b0 06 01
        E 57 b0 06 01
        E 57 b0 06 01
        E 57 b0 06 02
        E 57 b0 06 02
        E 57 b0 06 03
        E 57 b0 06 03
        E 57 b0 06 04
        E 57 b0 06 04
        E 57 b0 06 05
        E 57 b0 06 06
        E 57 b0 06 06
        E 57 b0 06 07
        E 57 b0 06 08
        E 57 b0 06 09
        E 57 b0 06 09
        E 57 b0 06 0a
        E 57 b0 06 0b
        E 57 b0 06 0c
        E 57 b0 06 0d
        E 57 b0 06 0e
        E 57 b0 06 0f
        E 57 b0 06 10
        E 57 b0 06 11
        E 57 b0 06 12
        E 57 b0 06 13
        E 25 b0 06 33
        E 25 b0 06 35
        E 25 b0 06 37
        E 25 b0 06 3a
        E 25 b0 06 3c
        E 25 b0 06 3f
        E 25 b0 06 41
        E 25 b0 06 44
        E 25 b0 06 46
        E 25 b0 06 48
        E 25 b0 06 4b
        E 25 b0 06 4c
        E 25 b0 06 4f
        E 25 b0 06 51
        E 25 b0 06 53
        E 25 b0 06 54
        E 25 b0 06 57
        E 25 b0 06 58
        E 25 b0 06 5a
        E 25 b0 06 5b
        E 25 b0 06 5d
        E 25 b0 06 5e
        E 25 b0 06 5f
        E 25 b0 06 60
        E 25 b0 06 61
        E 25 b0 06 62
        E 25 b0 06 63
        E 25 b0 06 63
        E 25 b0 06 64
        E 25 b0 06 64
        E 25 b0 06 65
        E 25 b0 06 65
        E 25 b0 06 65
        E 25 b0 06 65
        E 25 b0 06 65
        E 25 b0 06 64
        E 25 b0 06 64
        E 25 b0 06 63
        E 25 b0 06 63
        E 25 b0 06 62
        E 25 b0 06 61
        E 25 b0 06 5f
        E 25 b0 06 5f
        E 25 b0 06 5d
        E 25 b0 06 5c
        E 25 b0 06 5b
        E 25 b0 06 59
        E 25 b0 06 57
        E 25 b0 06 56
        E 25 b0 06 54
        E 25 b0 06 52
        E 25 b0 06 50
        E 25 b0 06 4e
        E 25 b0 06 4c
        E 25 b0 06 49
        E 25 b0 06 47
        E 25 b0 06 45
        E 25 b0 06 43
        E 25 b0 06 40
        E 25 b0 06 3e
        E 25 b0 06 3b
        E 25 b0 06 38
        E 25 b0 06 36
        E 25 b0 06 33
        E 25 b0 06 31
        E 25 b0 06 2f
        E 25 b0 06 2c
        E 25 b0 06 2a
        E 25 b0 06 27
        E 25 b0 06 24
        E 25 b0 06 22
        E 25 b0 06 1f
        E 25 b0 06 1e
        E 25 b0 06 1b
        E 25 b0 06 19
        E 25 b0 06 17
        E 25 b0 06 15
        E 25 b0 06 13
        E 25 b0 06 11
        E 25 b0 06 0f
        E 25 b0 06 0d
        E 25 b0 06 0b
        E 25 b0 06 0a
        E 25 b0 06 08
        E 25 b0 06 07
        E 25 b0 06 06
        E 25 b0 06 05
        E 25 b0 06 03
        E 25 b0 06 03
        E 25 b0 06 02
        E 25 b0 06 01
        E 25 b0 06 00
        E 25 b0 06 00
        E 25 b0 06 00
        E 25 b0 06 00
        E 25 b0 06 00
        E 25 b0 06 00
        E 25 b0 06 00
        E 25 b0 06 00
        E 25 b0 06 00
        E 25 b0 06 01
        E 25 b0 06 02
        E 25 b0 06 03
        E 25 b0 06 03
        E 25 b0 06 04
        E 25 b0 06 05
        E 25 b0 06 07
        E 25 b0 06 07
        E 25 b0 06 09
        E 25 b0 06 0b
        E 25 b0 06 0c
        E 25 b0 06 0e
        E 25 b0 06 10
        E 25 b0 06 12
        E 25 b0 06 14
        E 25 b0 06 16
        E 25 b0 06 18
        E 25 b0 06 1a
        E 25 b0 06 1c
        E 25 b0 06 1f
        E 25 b0 06 21
        E 25 b0 06 24
        E 25 b0 06 26
        E 25 b0 06 28
        E 25 b0 06 2b
        E 25 b0 06 2d
        E 25 b0 06 2f
        E 25 b0 06 33
        E 6 b0 06 06
        E 6 b0 06 06
        E 6 b0 06 07
        E 6 b0 06 07
        E 6 b0 06 07
        E 6 b0 06 07
        E 6 b0 06 08
        E 6 b0 06 08
        E 6 b0 06 08
        E 6 b0 06 09
        E 6 b0 06 09
        E 6 b0 06 09
        E 6 b0 06 09
        E 6 b0 06 0a
        E 6 b0 06 0a
        E 6 b0 06 0a
        E 6 b0 06 0a
        E 6 b0 06 0b
        E 6 b0 06 0b
        E 6 b0 06 0b
        E 6 b0 06 0b
        E 6 b0 06 0b
        E 6 b0 06 0c
        E 6 b0 06 0c
        E 6 b0 06 0c
        E 6 b0 06 0c
        E 6 b0 06 0c
        E 6 b0 06 0c
        E 6 b0 06 0c
        E 6 b0 06 0c
        E 6 b0 06 0c
        E 6 b0 06 0c
        E 6 b0 06 0c
        E 6 b0 06 0c
        E 6 b0 06 0c
        E 6 b0 06 0c
        E 6 b0 06 0c
        E 6 b0 06 0c
        E 6 b0 06 0c
        E 6 b0 06 0c
        E 6 b0 06 0c
        E 6 b0 06 0c
        E 6 b0 06 0b
        E 6 b0 06 0b
        E 6 b0 06 0b
        E 6 b0 06 0b
        E 6 b0 06 0b
        E 6 b0 06 0b
        E 6 b0 06 0a
        E 6 b0 06 0a
        E 6 b0 06 0a
        E 6 b0 06 0a
        E 6 b0 06 09
        E 6 b0 06 09
        E 6 b0 06 09
        E 6 b0 06 08
        E 6 b0 06 08
        E 6 b0 06 08
        E 6 b0 06 08
        E 6 b0 06 07
        E 6 b0 06 07
        E 6 b0 06 07
        E 6 b0 06 06
        E 6 b0 06 06
        E 6 b0 06 06
        E 6 b0 06 05
        E 6 b0 06 05
        E 6 b0 06 05
        E 6 b0 06 04
        E 6 b0 06 04
        E 6 b0 06 04
        E 6 b0 06 04
        E 6 b0 06 03
        E 6 b0 06 03
        E 6 b0 06 03
        E 6 b0 06 02
        E 6 b0 06 02
        E 6 b0 06 02
        E 6 b0 06 02
        E 6 b0 06 01
        E 6 b0 06 01
        E 6 b0 06 01
        E 6 b0 06 01
        E 6 b0 06 01
        E 6 b0 06 01
        E 6 b0 06 00
        E 6 b0 06 00
        E 6 b0 06 00
        E 6 b0 06 00
        E 6 b0 06 00
        E 6 b0 06 00
        E 6 b0 06 00
        E 6 b0 06 00
        E 6 b0 06 00
        E 6 b0 06 00
        E 6 b0 06 00
        E 6 b0 06 00
        E 6 b0 06 00
        E 6 b0 06 00
        E 6 b0 06 00
        E 6 b0 06 00
        E 6 b0 06 00
        E 6 b0 06 00
        E 6 b0 06 00
        E 6 b0 06 00
        E 6 b0 06 00
        E 6 b0 06 00
        E 6 b0 06 01
        E 6 b0 06 01
        E 6 b0 06 01
        E 6 b0 06 01
        E 6 b0 06 01
        E 6 b0 06 02
        E 6 b0 06 02
        E 6 b0 06 02
        E 6 b0 06 02
        E 6 b0 06 03
        E 6 b0 06 03
        E 6 b0 06 03
        E 6 b0 06 03
        E 6 b0 06 04
        E 6 b0 06 04
        E 6 b0 06 04
        E 6 b0 06 05
        E 6 b0 06 05
        E 6 b0 06 05
        E 6 b0 06 06
        E 6 b0 06 06
        E 44 b0 06 39
        E 44 b0 06 3c
        E 44 b0 06 3f
        E 44 b0 06 41
        E 44 b0 06 44
        E 44 b0 06 47
        E 44 b0 06 49
        E 44 b0 06 4c
        E 44 b0 06 4f
        E 44 b0 06 51
        E 44 b0 06 54
        E 44 b0 06 56
        E 44 b0 06 59
        E 44 b0 06 5b
        E 44 b0 06 5d
        E 44 b0 06 5f
        E 44 b0 06 62
        E 44 b0 06 63
        E 44 b0 06 65
        E 44 b0 06 67
        E 44 b0 06 69
        E 44 b0 06 6a
        E 44 b0 06 6c
        E 44 b0 06 6c
        E 44 b0 06 6d
        E 44 b0 06 6e
        E 44 b0 06 6f
        E 44 b0 06 70
        E 44 b0 06 71
        E 44 b0 06 71
        E 44 b0 06 72
        E 44 b0 06 72
        E 44 b0 06 72
        E 44 b0 06 72
        E 44 b0 06 72
        E 44 b0 06 71
        E 44 b0 06 71
        E 44 b0 06 70
        E 44 b0 06 6f
        E 44 b0 06 6e
        E 44 b0 06 6d
        E 44 b0 06 6c
        E 44 b0 06 6b
        E 44 b0 06 69
        E 44 b0 06 68
        E 44 b0 06 66
        E 44 b0 06 64
        E 44 b0 06 63
        E 44 b0 06 61
        E 44 b0 06 5e
        E 44 b0 06 5c
        E 44 b0 06 5a
        E 44 b0 06 58
        E 44 b0 06 55
        E 44 b0 06 52
        E 44 b0 06 50
        E 44 b0 06 4e
        E 44 b0 06 4b
        E 44 b0 06 48
        E 44 b0 06 46
        E 44 b0 06 42
        E 44 b0 06 3f
        E 44 b0 06 3d
        E 44 b0 06 3a
        E 44 b0 06 37
        E 44 b0 06 35
        E 44 b0 06 32
        E 44 b0 06 2f
        E 44 b0 06 2c
        E 44 b0 06 29
        E 44 b0 06 26
        E 44 b0 06 24
        E 44 b0 06 22
        E 44 b0 06 1f
        E 44 b0 06 1c
        E 44 b0 06 1a
        E 44 b0 06 18
        E 44 b0 06 15
        E 44 b0 06 13
        E 44 b0 06 11
        E 44 b0 06 0f
        E 44 b0 06 0d
        E 44 b0 06 0b
        E 44 b0 06 09
        E 44 b0 06 09
        E 44 b0 06 07
        E 44 b0 06 06
        E 44 b0 06 04
        E 44 b0 06 03
        E 44 b0 06 02
        E 44 b0 06 01
        E 44 b0 06 00
        E 44 b0 06 00
        E 44 b0 06 00
        E 44 b0 06 00
        E 44 b0 06 00
        E 44 b0 06 00
        E 44 b0 06 00
        E 44 b0 06 00
        E 44 b0 06 00
        E 44 b0 06 01
        E 44 b0 06 02
        E 44 b0 06 03
        E 44 b0 06 04
        E 44 b0 06 05
        E 44 b0 06 06
        E 44 b0 06 08
        E 44 b0 06 09
        E 44 b0 06 0a
        E 44 b0 06 0c
        E 44 b0 06 0e
        E 44 b0 06 10
        E 44 b0 06 12
        E 44 b0 06 14
        E 44 b0 06 16
        E 44 b0 06 19
        E 44 b0 06 1b
        E 44 b0 06 1d
        E 44 b0 06 20
        E 44 b0 06 23
        E 44 b0 06 25
        E 44 b0 06 28
        E 44 b0 06 2b
        E 44 b0 06 2d
        E 44 b0 06 30
        E 44 b0 06 33
        E 44 b0 06 36
        E 44 b0 06 39
        E 19 b0 06 33
        E 19 b0 06 35
        E 19 b0 06 37
        E 19 b0 06 3a
        E 19 b0 06 3c
        E 19 b0 06 3f
        E 19 b0 06 41
        E 19 b0 06 44
        E 19 b0 06 46
        E 19 b0 06 48
        E 19 b0 06 4b
        E 19 b0 06 4c
        E 19 b0 06 4f
        E 19 b0 06 51
        E 19 b0 06 53
        E 19 b0 06 54
        E 19 b0 06 57
        E 19 b0 06 58
        E 19 b0 06 5a
        E 19 b0 06 5b
        E 19 b0 06 5d
        E 19 b0 06 5e
        E 19 b0 06 5f
        E 19 b0 06 60
        E 19 b0 06 61
        E 19 b0 06 62
        E 19 b0 06 63
        E 19 b0 06 63
        E 19 b0 06 64
        E 19 b0 06 64
        E 19 b0 06 65
        E 19 b0 06 65
        E 19 b0 06 65
        E 19 b0 06 65
        E 19 b0 06 65
        E 19 b0 06 64
        E 19 b0 06 64
        E 19 b0 06 63
        E 19 b0 06 63
        E 19 b0 06 62
        E 19 b0 06 61
        E 19 b0 06 5f
        E 19 b0 06 5f
        E 19 b0 06 5d
        E 19 b0 06 5c
        E 19 b0 06 5b
        E 19 b0 06 59
        E 19 b0 06 57
        E 19 b0 06 56
        E 19 b0 06 54
        E 19 b0 06 52
        E 19 b0 06 50
        E 19 b0 06 4e
        E 19 b0 06 4c
        E 19 b0 06 49
        E 19 b0 06 47
        E 19 b0 06 45
        E 19 b0 06 43
        E 19 b0 06 40
        E 19 b0 06 3e
        E 19 b0 06 3b
        E 19 b0 06 38
        E 19 b0 06 36
        E 19 b0 06 33
        E 19 b0 06 31
        E 19 b0 06 2f
        E 19 b0 06 2c
        E 19 b0 06 2a
        E 19 b0 06 27
        E 19 b0 06 24
        E 19 b0 06 22
        E 19 b0 06 1f
        E 19 b0 06 1e
        E 19 b0 06 1b
        E 19 b0 06 19
        E 19 b0 06 17
        E 19 b0 06 15
        E 19 b0 06 13
        E 19 b0 06 11
        E 19 b0 06 0f
        E 19 b0 06 0d
        E 19 b0 06 0b
        E 19 b0 06 0a
        E 19 b0 06 08
        E 19 b0 06 07
        E 19 b0 06 06
        E 19 b0 06 05
        E 19 b0 06 03
        E 19 b0 06 03
        E 19 b0 06 02
        E 19 b0 06 01
        E 19 b0 06 00
        E 19 b0 06 00
        E 19 b0 06 00
        E 19 b0 06 00
        E 19 b0 06 00
        E 19 b0 06 00
        E 19 b0 06 00
        E 19 b0 06 00
        E 19 b0 06 00
        E 19 b0 06 01
        E 19 b0 06 02
        E 19 b0 06 03
        E 19 b0 06 03
        E 19 b0 06 04
        E 19 b0 06 05
        E 19 b0 06 07
        E 19 b0 06 07
        E 19 b0 06 09
        E 19 b0 06 0b
        E 19 b0 06 0c
        E 19 b0 06 0e
        E 19 b0 06 10
        E 19 b0 06 12
        E 19 b0 06 14
        E 19 b0 06 16
        E 19 b0 06 18
        E 19 b0 06 1a
        E 19 b0 06 1c
        E 19 b0 06 1f
        E 19 b0 06 21
        E 19 b0 06 24
        E 19 b0 06 26
        E 19 b0 06 28
        E 19 b0 06 2b
        E 19 b0 06 2d
        E 19 b0 06 2f
        E 19 b0 06 33
        E 38 b0 06 39
        E 38 b0 06 3c
        E 38 b0 06 3f
        E 38 b0 06 41
        E 38 b0 06 44
        E 38 b0 06 47
        E 38 b0 06 49
        E 38 b0 06 4c
        E 38 b0 06 4f
        E 38 b0 06 51
        E 38 b0 06 54
        E 38 b0 06 56
        E 38 b0 06 59
        E 38 b0 06 5b
        E 38 b0 06 5d
        E 38 b0 06 5f
        E 38 b0 06 62
        E 38 b0 06 63
        E 38 b0 06 65
        E 38 b0 06 67
        E 38 b0 06 69
        E 38 b0 06 6a
        E 38 b0 06 6c
        E 38 b0 06 6c
        E 38 b0 06 6d
        E 38 b0 06 6e
        E 38 b0 06 6f
        E 38 b0 06 70
        E 38 b0 06 71
        E 38 b0 06 71
        E 38 b0 06 72
        E 38 b0 06 72
        E 38 b0 06 72
        E 38 b0 06 72
        E 38 b0 06 72
        E 38 b0 06 71
        E 38 b0 06 71
        E 38 b0 06 70
        E 38 b0 06 6f
        E 38 b0 06 6e
        E 38 b0 06 6d
        E 38 b0 06 6c
        E 38 b0 06 6b
        E 38 b0 06 69
        E 38 b0 06 68
        E 38 b0 06 66
        E 38 b0 06 64
        E 38 b0 06 63
        E 38 b0 06 61
        E 38 b0 06 5e
        E 38 b0 06 5c
        E 38 b0 06 5a
        E 38 b0 06 58
        E 38 b0 06 55
        E 38 b0 06 52
        E 38 b0 06 50
        E 38 b0 06 4e
        E 38 b0 06 4b
        E 38 b0 06 48
        E 38 b0 06 46
        E 38 b0 06 42
        E 38 b0 06 3f
        E 38 b0 06 3d
        E 38 b0 06 3a
        E 38 b0 06 37
        E 38 b0 06 35
        E 38 b0 06 32
        E 38 b0 06 2f
        E 38 b0 06 2c
        E 38 b0 06 29
        E 38 b0 06 26
        E 38 b0 06 24
        E 38 b0 06 22
        E 38 b0 06 1f
        E 38 b0 06 1c
        E 38 b0 06 1a
        E 38 b0 06 18
        E 38 b0 06 15
        E 38 b0 06 13
        E 38 b0 06 11
        E 38 b0 06 0f
        E 38 b0 06 0d
        E 38 b0 06 0b
        E 38 b0 06 09
        E 38 b0 06 09
        E 38 b0 06 07
        E 38 b0 06 06
        E 38 b0 06 04
        E 38 b0 06 03
        E 38 b0 06 02
        E 38 b0 06 01
        E 38 b0 06 00
        E 38 b0 06 00
        E 38 b0 06 00
        E 38 b0 06 00
        E 38 b0 06 00
        E 38 b0 06 00
        E 38 b0 06 00
        E 38 b0 06 00
        E 38 b0 06 00
        E 38 b0 06 01
        E 38 b0 06 02
        E 38 b0 06 03
        E 38 b0 06 04
        E 38 b0 06 05
        E 38 b0 06 06
        E 38 b0 06 08
        E 38 b0 06 09
        E 38 b0 06 0a
        E 38 b0 06 0c
        E 38 b0 06 0e
        E 38 b0 06 10
        E 38 b0 06 12
        E 38 b0 06 14
        E 38 b0 06 16
        E 38 b0 06 19
        E 38 b0 06 1b
        E 38 b0 06 1d
        E 38 b0 06 20
        E 38 b0 06 23
        E 38 b0 06 25
        E 38 b0 06 28
        E 38 b0 06 2b
        E 38 b0 06 2d
        E 38 b0 06 30
        E 38 b0 06 33
        E 38 b0 06 36
        E 38 b0 06 39
        E 8 b0 06 0c
        E 8 b0 06 0c
        E 8 b0 06 0c
        E 8 b0 06 0c
        E 8 b0 06 0c
        E 8 b0 06 0c
        E 8 b0 06 0c
        E 8 b0 06 0c
        E 8 b0 06 0c
        E 8 b0 06 0c
        E 8 b0 06 0c
        E 8 b0 06 0c
        E 8 b0 06 0c
        E 8 b0 06 0c
        E 8 b0 06 0c
        E 8 b0 06 0c
        E 8 b0 06 0c
        E 8 b0 06 0c
        E 8 b0 06 0c
        E 8 b0 06 0c
        E 8 b0 06 0c
        E 8 b0 06 0c
        E 8 b0 06 0c
        E 8 b0 06 0c
        E 8 b0 06 0c
        E 8 b0 06 0c
        E 8 b0 06 0c
        E 8 b0 06 0c
        E 8 b0 06 0c
        E 8 b0 06 0c
        E 8 b0 06 0c
        E 8 b0 06 0c
        E 8 b0 06 0c
        E 8 b0 06 0c
        E 8 b0 06 0c
        E 8 b0 06 0c
        E 8 b0 06 0c
        E 8 b0 06 0c
        E 8 b0 06 0c
        E 8 b0 06 0c
        E 8 b0 06 0c
        E 8 b0 06 0c
        E 8 b0 06 0c
        E 8 b0 06 0c
        E 8 b0 06 0c
        E 8 b0 06 0c
        E 8 b0 06 0c
        E 8 b0 06 0c
        E 8 b0 06 0c
        E 8 b0 06 0c
        E 8 b0 06 0c
        E 8 b0 06 0c
        E 8 b0 06 0c
        E 8 b0 06 0c
        E 8 b0 06 0c
        E 8 b0 06 0c
        E 8 b0 06 0c
        E 8 b0 06 0c
        E 8 b0 06 0c
        E 8 b0 06 0c
        E 8 b0 06 0c
        E 8 b0 06 0c
        E 8 b0 06 0c
        E 8 b0 06 00
        E 8 b0 06 00
        E 8 b0 06 00
        E 8 b0 06 00
        E 8 b0 06 00
        E 8 b0 06 00
        E 8 b0 06 00
        E 8 b0 06 00
        E 8 b0 06 00
        E 8 b0 06 00
        E 8 b0 06 00
        E 8 b0 06 00
        E 8 b0 06 00
        E 8 b0 06 00
        E 8 b0 06 00
        E 8 b0 06 00
        E 8 b0 06 00
        E 8 b0 06 00
        E 8 b0 06 00
        E 8 b0 06 00
        E 8 b0 06 00
        E 8 b0 06 00
        E 8 b0 06 00
        E 8 b0 06 00
        E 8 b0 06 00
        E 8 b0 06 00
        E 8 b0 06 00
        E 8 b0 06 00
        E 8 b0 06 00
        E 8 b0 06 00
        E 8 b0 06 00
        E 8 b0 06 00
        E 8 b0 06 00
        E 8 b0 06 00
        E 8 b0 06 00
        E 8 b0 06 00
        E 8 b0 06 00
        E 8 b0 06 00
        E 8 b0 06 00
        E 8 b0 06 00
        E 8 b0 06 00
        E 8 b0 06 00
        E 8 b0 06 00
        E 8 b0 06 00
        E 8 b0 06 00
        E 8 b0 06 00
        E 8 b0 06 00
        E 8 b0 06 00
        E 8 b0 06 00
        E 8 b0 06 00
        E 8 b0 06 00
        E 8 b0 06 00
        E 8 b0 06 00
        E 8 b0 06 00
        E 8 b0 06 00
        E 8 b0 06 00
        E 8 b0 06 00
        E 8 b0 06 00
        E 8 b0 06 00
        E 8 b0 06 00
        E 8 b0 06 00
        E 8 b0 06 00
        E 8 b0 06 00
        E 8 b0 06 00
        E 56 b0 06 72
        E 56 b0 06 72
        E 56 b0 06 72
        E 56 b0 06 72
        E 56 b0 06 72
        E 56 b0 06 72
        E 56 b0 06 72
        E 56 b0 06 72
        E 56 b0 06 72
        E 56 b0 06 72
        E 56 b0 06 72
        E 56 b0 06 72
        E 56 b0 06 72
        E 56 b0 06 72
        E 56 b0 06 72
        E 56 b0 06 72
        E 56 b0 06 72
        E 56 b0 06 72
        E 56 b0 06 72
        E 56 b0 06 72
        E 56 b0 06 72
        E 56 b0 06 72
        E 56 b0 06 72
        E 56 b0 06 72
        E 56 b0 06 72
        E 56 b0 06 72
        E 56 b0 06 72
        E 56 b0 06 72
        E 56 b0 06 72
        E 56 b0 06 72
        E 56 b0 06 72
        E 56 b0 06 72
        E 56 b0 06 72
        E 56 b0 06 72
        E 56 b0 06 72
        E 56 b0 06 72
        E 56 b0 06 72
        E 56 b0 06 72
        E 56 b0 06 72
        E 56 b0 06 72
        E 56 b0 06 72
        E 56 b0 06 72
        E 56 b0 06 72
        E 56 b0 06 72
        E 56 b0 06 72
        E 56 b0 06 72
        E 56 b0 06 72
        E 56 b0 06 72
        E 56 b0 06 72
        E 56 b0 06 72
        E 56 b0 06 72
        E 56 b0 06 72
        E 56 b0 06 72
        E 56 b0 06 72
        E 56 b0 06 72
        E 56 b0 06 72
        E 56 b0 06 72
        E 56 b0 06 72
        E 56 b0 06 72
        E 56 b0 06 72
        E 56 b0 06 72
        E 56 b0 06 72
        E 56 b0 06 72
        E 56 b0 06 00
        E 56 b0 06 00
        E 56 b0 06 00
        E 56 b0 06 00
        E 56 b0 06 00
        E 56 b0 06 00
        E 56 b0 06 00
        E 56 b0 06 00
        E 56 b0 06 00
        E 56 b0 06 00
        E 56 b0 06 00
        E 56 b0 06 00
        E 56 b0 06 00
        E 56 b0 06 00
        E 56 b0 06 00
        E 56 b0 06 00
        E 56 b0 06 00
        E 56 b0 06 00
        E 56 b0 06 00
        E 56 b0 06 00
        E 56 b0 06 00
        E 56 b0 06 00
        E 56 b0 06 00
        E 56 b0 06 00
        E 56 b0 06 00
        E 56 b0 06 00
        E 56 b0 06 00
        E 56 b0 06 00
        E 56 b0 06 00
        E 56 b0 06 00
        E 56 b0 06 00
        E 56 b0 06 00
        E 56 b0 06 00
        E 56 b0 06 00
        E 56 b0 06 00
        E 56 b0 06 00
        E 56 b0 06 00
        E 56 b0 06 00
        E 56 b0 06 00
        E 56 b0 06 00
        E 56 b0 06 00
        E 56 b0 06 00
        E 56 b0 06 00
        E 56 b0 06 00
        E 56 b0 06 00
        E 56 b0 06 00
        E 56 b0 06 00
        E 56 b0 06 00
        E 56 b0 06 00
        E 56 b0 06 00
        E 56 b0 06 00
        E 56 b0 06 00
        E 56 b0 06 00
        E 56 b0 06 00
        E 56 b0 06 00
        E 56 b0 06 00
        E 56 b0 06 00
        E 56 b0 06 00
        E 56 b0 06 00
        E 56 b0 06 00
        E 56 b0 06 00
        E 56 b0 06 00
        E 56 b0 06 00
        E 56 b0 06 00
        E 24 b0 06 65
        E 24 b0 06 65
        E 24 b0 06 65
        E 24 b0 06 65
        E 24 b0 06 65
        E 24 b0 06 65
        E 24 b0 06 65
        E 24 b0 06 65
        E 24 b0 06 65
        E 24 b0 06 65
        E 24 b0 06 65
        E 24 b0 06 65
        E 24 b0 06 65
        E 24 b0 06 65
        E 24 b0 06 65
        E 24 b0 06 65
        E 24 b0 06 65
        E 24 b0 06 65
        E 24 b0 06 65
        E 24 b0 06 65
        E 24 b0 06 65
        E 24 b0 06 65
        E 24 b0 06 65
        E 24 b0 06 65
        E 24 b0 06 65
        E 24 b0 06 65
        E 24 b0 06 65
        E 24 b0 06 65
        E 24 b0 06 65
        E 24 b0 06 65
        E 24 b0 06 65
        E 24 b0 06 65
        E 24 b0 06 65
        E 24 b0 06 65
        E 24 b0 06 65
        E 24 b0 06 65
        E 24 b0 06 65
        E 24 b0 06 65
        E 24 b0 06 65
        E 24 b0 06 65
        E 24 b0 06 65
        E 24 b0 06 65
        E 24 b0 06 65
        E 24 b0 06 65
        E 24 b0 06 65
        E 24 b0 06 65
        E 24 b0 06 65
        E 24 b0 06 65
        E 24 b0 06 65
        E 24 b0 06 65
        E 24 b0 06 65
        E 24 b0 06 65
        E 24 b0 06 65
        E 24 b0 06 65
        E 24 b0 06 65
        E 24 b0 06 65
        E 24 b0 06 65
        E 24 b0 06 65
        E 24 b0 06 65
        E 24 b0 06 65
        E 24 b0 06 65
        E 24 b0 06 65
        E 24 b0 06 65
        E 24 b0 06 00
        E 24 b0 06 00
        E 24 b0 06 00
        E 24 b0 06 00
        E 24 b0 06 00
        E 24 b0 06 00
        E 24 b0 06 00
        E 24 b0 06 00
        E 24 b0 06 00
        E 24 b0 06 00
        E 24 b0 06 00
        E 24 b0 06 00
        E 24 b0 06 00
        E 24 b0 06 00
        E 24 b0 06 00
        E 24 b0 06 00
        E 24 b0 06 00
        E 24 b0 06 00
        E 24 b0 06 00
        E 24 b0 06 00
        E 24 b0 06 00
        E 24 b0 06 00
        E 24 b0 06 00
        E 24 b0 06 00
        E 24 b0 06 00
        E 24 b0 06 00
        E 24 b0 06 00
        E 24 b0 06 00
        E 24 b0 06 00
        E 24 b0 06 00
        E 24 b0 06 00
        E 24 b0 06 00
        E 24 b0 06 00
        E 24 b0 06 00
        E 24 b0 06 00
        E 24 b0 06 00
        E 24 b0 06 00
        E 24 b0 06 00
        E 24 b0 06 00
        E 24 b0 06 00
        E 24 b0 06 00
        E 24 b0 06 00
        E 24 b0 06 00
        E 24 b0 06 00
        E 24 b0 06 00
        E 24 b0 06 00
        E 24 b0 06 00
        E 24 b0 06 00
        E 24 b0 06 00
        E 24 b0 06 00
        E 24 b0 06 00
        E 24 b0 06 00
        E 24 b0 06 00
        E 24 b0 06 00
        E 24 b0 06 00
        E 24 b0 06 00
        E 24 b0 06 00
        E 24 b0 06 00
        E 24 b0 06 00
        E 24 b0 06 00
        E 24 b0 06 00
        E 24 b0 06 00
        E 24 b0 06 00
        E 24 b0 06 00
        E 48 b0 06 72
        E 48 b0 06 72
        E 48 b0 06 72
        E 48 b0 06 72
        E 48 b0 06 72
        E 48 b0 06 72
        E 48 b0 06 72
        E 48 b0 06 72
        E 48 b0 06 72
        E 48 b0 06 72
        E 48 b0 06 72
        E 48 b0 06 72
        E 48 b0 06 72
        E 48 b0 06 72
        E 48 b0 06 72
        E 48 b0 06 72
        E 48 b0 06 72
        E 48 b0 06 72
        E 48 b0 06 72
        E 48 b0 06 72
        E 48 b0 06 72
        E 48 b0 06 72
        E 48 b0 06 72
        E 48 b0 06 72
        E 48 b0 06 72
        E 48 b0 06 72
        E 48 b0 06 72
        E 48 b0 06 72
        E 48 b0 06 72
        E 48 b0 06 72
        E 48 b0 06 72
        E 48 b0 06 72
        E 48 b0 06 72
        E 48 b0 06 72
        E 48 b0 06 72
        E 48 b0 06 72
        E 48 b0 06 72
        E 48 b0 06 72
        E 48 b0 06 72
        E 48 b0 06 72
        E 48 b0 06 72
        E 48 b0 06 72
        E 48 b0 06 72
        E 48 b0 06 72
        E 48 b0 06 72
        E 48 b0 06 72
        E 48 b0 06 72
        E 48 b0 06 72
        E 48 b0 06 72
        E 48 b0 06 72
        E 48 b0 06 72
        E 48 b0 06 72
        E 48 b0 06 72
        E 48 b0 06 72
        E 48 b0 06 72
        E 48 b0 06 72
        E 48 b0 06 72
        E 48 b0 06 72
        E 48 b0 06 72
        E 48 b0 06 72
        E 48 b0 06 72
        E 48 b0 06 72
        E 48 b0 06 72
        E 48 b0 06 00
        E 48 b0 06 00
        E 48 b0 06 00
        E 48 b0 06 00
        E 48 b0 06 00
        E 48 b0 06 00
        E 48 b0 06 00
        E 48 b0 06 00
        E 48 b0 06 00
        E 48 b0 06 00
        E 48 b0 06 00
        E 48 b0 06 00
        E 48 b0 06 00
        E 48 b0 06 00
        E 48 b0 06 00
        E 48 b0 06 00
        E 48 b0 06 00
        E 48 b0 06 00
        E 48 b0 06 00
        E 48 b0 06 00
        E 48 b0 06 00
        E 48 b0 06 00
        E 48 b0 06 00
        E 48 b0 06 00
        E 48 b0 06 00
        E 48 b0 06 00
        E 48 b0 06 00
        E 48 b0 06 00
        E 48 b0 06 00
        E 48 b0 06 00
        E 48 b0 06 00
        E 48 b0 06 00
        E 48 b0 06 00
        E 48 b0 06 00
        E 48 b0 06 00
        E 48 b0 06 00
        E 48 b0 06 00
        E 48 b0 06 00
        E 48 b0 06 00
        E 48 b0 06 00
        E 48 b0 06 00
        E 48 b0 06 00
        E 48 b0 06 00
        E 48 b0 06 00
        E 48 b0 06 00
        E 48 b0 06 00
        E 48 b0 06 00
        E 48 b0 06 00
        E 48 b0 06 00
        E 48 b0 06 00
        E 48 b0 06 00
        E 48 b0 06 00
        E 48 b0 06 00
        E 48 b0 06 00
        E 48 b0 06 00
        E 48 b0 06 00
        E 48 b0 06 00
        E 48 b0 06 00
        E 48 b0 06 00
        E 48 b0 06 00
        E 48 b0 06 00
        E 48 b0 06 00
        E 48 b0 06 00
        E 48 b0 06 00
        E 72 b0 06 26
        E 72 b0 06 26
        E 72 b0 06 26
        E 72 b0 06 26
        E 72 b0 06 26
        E 72 b0 06 26
        E 72 b0 06 26
        E 72 b0 06 26
        E 72 b0 06 26
        E 72 b0 06 26
        E 72 b0 06 26
        E 72 b0 06 26
        E 72 b0 06 26
        E 72 b0 06 26
        E 72 b0 06 26
        E 72 b0 06 26
        E 72 b0 06 26
        E 72 b0 06 26
        E 72 b0 06 26
        E 72 b0 06 26
        E 72 b0 06 26
        E 72 b0 06 26
        E 72 b0 06 26
        E 72 b0 06 26
        E 72 b0 06 26
        E 72 b0 06 26
        E 72 b0 06 26
        E 72 b0 06 26
        E 72 b0 06 26
        E 72 b0 06 26
        E 72 b0 06 26
        E 72 b0 06 26
        E 72 b0 06 26
        E 72 b0 06 26
        E 72 b0 06 26
        E 72 b0 06 26
        E 72 b0 06 26
        E 72 b0 06 26
        E 72 b0 06 26
        E 72 b0 06 26
        E 72 b0 06 26
        E 72 b0 06 26
        E 72 b0 06 26
        E 72 b0 06 26
        E 72 b0 06 26
        E 72 b0 06 26
        E 72 b0 06 26
        E 72 b0 06 26
        E 72 b0 06 26
        E 72 b0 06 26
        E 72 b0 06 26
        E 72 b0 06 26
        E 72 b0 06 26
        E 72 b0 06 26
        E 72 b0 06 26
        E 72 b0 06 26
        E 72 b0 06 26
        E 72 b0 06 26
        E 72 b0 06 26
        E 72 b0 06 26
        E 72 b0 06 26
        E 72 b0 06 26
        E 72 b0 06 26
        E 72 b0 06 00
        E 72 b0 06 00
        E 72 b0 06 00
        E 72 b0 06 00
        E 72 b0 06 00
        E 72 b0 06 00
        E 72 b0 06 00
        E 72 b0 06 00
        E 72 b0 06 00
        E 72 b0 06 00
        E 72 b0 06 00
        E 72 b0 06 00
        E 72 b0 06 00
        E 72 b0 06 00
        E 72 b0 06 00
        E 72 b0 06 00
        E 72 b0 06 00
        E 72 b0 06 00
        E 72 b0 06 00
        E 72 b0 06 00
        E 72 b0 06 00
        E 72 b0 06 00
        E 72 b0 06 00
        E 72 b0 06 00
        E 72 b0 06 00
        E 72 b0 06 00
        E 72 b0 06 00
        E 72 b0 06 00
        E 72 b0 06 00
        E 72 b0 06 00
        E 72 b0 06 00
        E 72 b0 06 00
        E 72 b0 06 00
        E 72 b0 06 00
        E 72 b0 06 00
        E 72 b0 06 00
        E 72 b0 06 00
        E 72 b0 06 00
        E 72 b0 06 00
        E 72 b0 06 00
        E 72 b0 06 00
        E 72 b0 06 00
        E 72 b0 06 00
        E 72 b0 06 00
        E 72 b0 06 00
        E 72 b0 06 00
        E 72 b0 06 00
        E 72 b0 06 00
        E 72 b0 06 00
        E 72 b0 06 00
        E 72 b0 06 00
        E 72 b0 06 00
        E 72 b0 06 00
        E 72 b0 06 00
        E 72 b0 06 00
        E 72 b0 06 00
        E 72 b0 06 00
        E 72 b0 06 00
        E 72 b0 06 00
        E 72 b0 06 00
        E 72 b0 06 00
        E 72 b0 06 00
        E 72 b0 06 00
        E 72 b0 06 00
        E 32 b0 06 65
        E 32 b0 06 65
        E 32 b0 06 65
        E 32 b0 06 65
        E 32 b0 06 65
        E 32 b0 06 65
        E 32 b0 06 65
        E 32 b0 06 65
        E 32 b0 06 65
        E 32 b0 06 65
        E 32 b0 06 65
        E 32 b0 06 65
        E 32 b0 06 65
        E 32 b0 06 65
        E 32 b0 06 65
        E 32 b0 06 65
        E 32 b0 06 65
        E 32 b0 06 65
        E 32 b0 06 65
        E 32 b0 06 65
        E 32 b0 06 65
        E 32 b0 06 65
        E 32 b0 06 65
        E 32 b0 06 65
        E 32 b0 06 65
        E 32 b0 06 65
        E 32 b0 06 65
        E 32 b0 06 65
        E 32 b0 06 65
        E 32 b0 06 65
        E 32 b0 06 65
        E 32 b0 06 65
        E 32 b0 06 65
        E 32 b0 06 65
        E 32 b0 06 65
        E 32 b0 06 65
        E 32 b0 06 65
        E 32 b0 06 65
        E 32 b0 06 65
        E 32 b0 06 65
        E 32 b0 06 65
        E 32 b0 06 65
        E 32 b0 06 65
        E 32 b0 06 65
        E 32 b0 06 65
        E 32 b0 06 65
        E 32 b0 06 65
        E 32 b0 06 65
        E 32 b0 06 65
        E 32 b0 06 65
        E 32 b0 06 65
        E 32 b0 06 65
        E 32 b0 06 65
        E 32 b0 06 65
        E 32 b0 06 65
        E 32 b0 06 65
        E 32 b0 06 65
        E 32 b0 06 65
        E 32 b0 06 65
        E 32 b0 06 65
        E 32 b0 06 65
        E 32 b0 06 65
        E 32 b0 06 65
        E 32 b0 06 00
        E 32 b0 06 00
        E 32 b0 06 00
        E 32 b0 06 00
        E 32 b0 06 00
        E 32 b0 06 00
        E 32 b0 06 00
        E 32 b0 06 00
        E 32 b0 06 00
        E 32 b0 06 00
        E 32 b0 06 00
        E 32 b0 06 00
        E 32 b0 06 00
        E 32 b0 06 00
        E 32 b0 06 00
        E 32 b0 06 00
        E 32 b0 06 00
        E 32 b0 06 00
        E 32 b0 06 00
        E 32 b0 06 00
        E 32 b0 06 00
        E 32 b0 06 00
        E 32 b0 06 00
        E 32 b0 06 00
        E 32 b0 06 00
        E 32 b0 06 00
        E 32 b0 06 00
        E 32 b0 06 00
        E 32 b0 06 00
        E 32 b0 06 00
        E 32 b0 06 00
        E 32 b0 06 00
        E 32 b0 06 00
        E 32 b0 06 00
        E 32 b0 06 00
        E 32 b0 06 00
        E 32 b0 06 00
        E 32 b0 06 00
        E 32 b0 06 00
        E 32 b0 06 00
        E 32 b0 06 00
        E 32 b0 06 00
        E 32 b0 06 00
        E 32 b0 06 00
        E 32 b0 06 00
        E 32 b0 06 00
        E 32 b0 06 00
        E 32 b0 06 00
        E 32 b0 06 00
        E 32 b0 06 00
        E 32 b0 06 00
        E 32 b0 06 00
        E 32 b0 06 00
        E 32 b0 06 00
        E 32 b0 06 00
        E 32 b0 06 00
        E 32 b0 06 00
        E 32 b0 06 00
        E 32 b0 06 00
        E 32 b0 06 00
        E 32 b0 06 00
        E 32 b0 06 00
        E 32 b0 06 00
        E 32 b0 06 00
        E 8 b0 06 0c
        E 8 b0 06 0c
        E 8 b0 06 0c
        E 8 b0 06 0c
        E 8 b0 06 0c
        E 8 b0 06 0c
        E 8 b0 06 0c
        E 8 b0 06 0c
        E 8 b0 06 0c
        E 8 b0 06 0c
        E 8 b0 06 0c
        E 8 b0 06 0c
        E 8 b0 06 0c
        E 8 b0 06 0c
        E 8 b0 06 0c
        E 8 b0 06 0c
        E 8 b0 06 0c
        E 8 b0 06 0c
        E 8 b0 06 0c
        E 8 b0 06 0c
        E 8 b0 06 0c
        E 8 b0 06 0c
        E 8 b0 06 0c
        E 8 b0 06 0c
        E 8 b0 06 0c
        E 8 b0 06 0c
        E 8 b0 06 0c
        E 8 b0 06 0c
        E 8 b0 06 0c
        E 8 b0 06 0c
        E 8 b0 06 0c
        E 8 b0 06 0c
        E 8 b0 06 0c
        E 8 b0 06 0c
        E 8 b0 06 0c
        E 8 b0 06 0c
        E 8 b0 06 0c
        E 8 b0 06 0c
        E 8 b0 06 0c
        E 8 b0 06 0c
        E 8 b0 06 0c
        E 8 b0 06 0c
        E 8 b0 06 0c
        E 8 b0 06 0c
        E 8 b0 06 0c
        E 8 b0 06 0c
        E 8 b0 06 0c
        E 8 b0 06 0c
        E 8 b0 06 0c
        E 8 b0 06 0c
        E 8 b0 06 0c
        E 8 b0 06 0c
        E 8 b0 06 0c
        E 8 b0 06 0c
        E 8 b0 06 0c
        E 8 b0 06 0c
        E 8 b0 06 0c
        E 8 b0 06 0c
        E 8 b0 06 0c
        E 8 b0 06 0c
        E 8 b0 06 0c
        E 8 b0 06 0c
        E 8 b0 06 0c
        E 8 b0 06 00
        E 8 b0 06 00
        E 8 b0 06 00
        E 8 b0 06 00
        E 8 b0 06 00
        E 8 b0 06 00
        E 8 b0 06 00
        E 8 b0 06 00
        E 8 b0 06 00
        E 8 b0 06 00
        E 8 b0 06 00
        E 8 b0 06 00
        E 8 b0 06 00
        E 8 b0 06 00
        E 8 b0 06 00
        E 8 b0 06 00
        E 8 b0 06 00
        E 8 b0 06 00
        E 8 b0 06 00
        E 8 b0 06 00
        E 8 b0 06 00
        E 8 b0 06 00
        E 8 b0 06 00
        E 8 b0 06 00
        E 8 b0 06 00
        E 8 b0 06 00
        E 8 b0 06 00
        E 8 b0 06 00
        E 8 b0 06 00
        E 8 b0 06 00
        E 8 b0 06 00
        E 8 b0 06 00
        E 8 b0 06 00
        E 8 b0 06 00
        E 8 b0 06 00
        E 8 b0 06 00
        E 8 b0 06 00
        E 8 b0 06 00
        E 8 b0 06 00
        E 8 b0 06 00
        E 8 b0 06 00
        E 8 b0 06 00
        E 8 b0 06 00
        E 8 b0 06 00
        E 8 b0 06 00
        E 8 b0 06 00
        E 8 b0 06 00
        E 8 b0 06 00
        E 8 b0 06 00
        E 8 b0 06 00
        E 8 b0 06 00
        E 8 b0 06 00
        E 8 b0 06 00
        E 8 b0 06 00
        E 8 b0 06 00
        E 8 b0 06 00
        E 8 b0 06 00
        E 8 b0 06 00
        E 8 b0 06 00
        E 8 b0 06 00
        E 8 b0 06 00
        E 8 b0 06 00
        E 8 b0 06 00
        E 8 b0 06 00
        E 56 b0 06 72
        E 56 b0 06 72
        E 56 b0 06 72
        E 56 b0 06 72
        E 56 b0 06 72
        E 56 b0 06 72
        E 56 b0 06 72
        E 56 b0 06 72
        E 56 b0 06 72
        E 56 b0 06 72
        E 56 b0 06 72
        E 56 b0 06 72
        E 56 b0 06 72
        E 56 b0 06 72
        E 56 b0 06 72
        E 56 b0 06 72
        E 56 b0 06 72
        E 56 b0 06 72
        E 56 b0 06 72
        E 56 b0 06 72
        E 56 b0 06 72
        E 56 b0 06 72
        E 56 b0 06 72
        E 56 b0 06 72
        E 56 b0 06 72
        E 56 b0 06 72
        E 56 b0 06 72
        E 56 b0 06 72
        E 56 b0 06 72
        E 56 b0 06 72
        E 56 b0 06 72
        E 56 b0 06 72
        E 56 b0 06 72
        E 56 b0 06 72
        E 56 b0 06 72
        E 56 b0 06 72
        E 56 b0 06 72
        E 56 b0 06 72
        E 56 b0 06 72
        E 56 b0 06 72
        E 56 b0 06 72
        E 56 b0 06 72
        E 56 b0 06 72
        E 56 b0 06 72
        E 56 b0 06 72
        E 56 b0 06 72
        E 56 b0 06 72
        E 56 b0 06 72
        E 56 b0 06 72
        E 56 b0 06 72
        E 56 b0 06 72
        E 56 b0 06 72
        E 56 b0 06 72
        E 56 b0 06 72
        E 56 b0 06 72
        E 56 b0 06 72
        E 56 b0 06 72
        E 56 b0 06 72
        E 56 b0 06 72
        E 56 b0 06 72
        E 56 b0 06 72
        E 56 b0 06 72
        E 56 b0 06 72
        E 56 b0 06 00
        E 56 b0 06 00
        E 56 b0 06 00
        E 56 b0 06 00
        E 56 b0 06 00
        E 56 b0 06 00
        E 56 b0 06 00
        E 56 b0 06 00
        E 56 b0 06 00
        E 56 b0 06 00
        E 56 b0 06 00
        E 56 b0 06 00
        E 56 b0 06 00
        E 56 b0 06 00
        E 56 b0 06 00
        E 56 b0 06 00
        E 56 b0 06 00
        E 56 b0 06 00
        E 56 b0 06 00
        E 56 b0 06 00
        E 56 b0 06 00
        E 56 b0 06 00
        E 56 b0 06 00
        E 56 b0 06 00
        E 56 b0 06 00
        E 56 b0 06 00
        E 56 b0 06 00
        E 56 b0 06 00
        E 56 b0 06 00
        E 56 b0 06 00
        E 56 b0 06 00
        E 56 b0 06 00
        E 56 b0 06 00
        E 56 b0 06 00
        E 56 b0 06 00
        E 56 b0 06 00
        E 56 b0 06 00
        E 56 b0 06 00
        E 56 b0 06 00
        E 56 b0 06 00
        E 56 b0 06 00
        E 56 b0 06 00
        E 56 b0 06 00
        E 56 b0 06 00
        E 56 b0 06 00
        E 56 b0 06 00
        E 56 b0 06 00
        E 56 b0 06 00
        E 56 b0 06 00
        E 56 b0 06 00
        E 56 b0 06 00
        E 56 b0 06 00
        E 56 b0 06 00
        E 56 b0 06 00
        E 56 b0 06 00
        E 56 b0 06 00
        E 56 b0 06 00
        E 56 b0 06 00
        E 56 b0 06 00
        E 56 b0 06 00
        E 56 b0 06 00
        E 56 b0 06 00
        E 56 b0 06 00
        E 56 b0 06 00
        E 24 b0 06 65
        E 24 b0 06 65
        E 24 b0 06 65
        E 24 b0 06 65
        E 24 b0 06 65
        E 24 b0 06 65
        E 24 b0 06 65
        E 24 b0 06 65
        E 24 b0 06 65
        E 24 b0 06 65
        E 24 b0 06 65
        E 24 b0 06 65
        E 24 b0 06 65
        E 24 b0 06 65
        E 24 b0 06 65
        E 24 b0 06 65
        E 24 b0 06 65
        E 24 b0 06 65
        E 24 b0 06 65
        E 24 b0 06 65
        E 24 b0 06 65
        E 24 b0 06 65
        E 24 b0 06 65
        E 24 b0 06 65
        E 24 b0 06 65
        E 24 b0 06 65
        E 24 b0 06 65
        E 24 b0 06 65
        E 24 b0 06 65
        E 24 b0 06 65
        E 24 b0 06 65
        E 24 b0 06 65
        E 24 b0 06 65
        E 24 b0 06 65
        E 24 b0 06 65
        E 24 b0 06 65
        E 24 b0 06 65
        E 24 b0 06 65
        E 24 b0 06 65
        E 24 b0 06 65
        E 24 b0 06 65
        E 24 b0 06 65
        E 24 b0 06 65
        E 24 b0 06 65
        E 24 b0 06 65
        E 24 b0 06 65
        E 24 b0 06 65
        E 24 b0 06 65
        E 24 b0 06 65
        E 24 b0 06 65
        E 24 b0 06 65
        E 24 b0 06 65
        E 24 b0 06 65
        E 24 b0 06 65
        E 24 b0 06 65
        E 24 b0 06 65
        E 24 b0 06 65
        E 24 b0 06 65
        E 24 b0 06 65
        E 24 b0 06 65
        E 24 b0 06 65
        E 24 b0 06 65
        E 24 b0 06 65
        E 24 b0 06 00
        E 24 b0 06 00
        E 24 b0 06 00
        E 24 b0 06 00
        E 24 b0 06 00
        E 24 b0 06 00
        E 24 b0 06 00
        E 24 b0 06 00
        E 24 b0 06 00
        E 24 b0 06 00
        E 24 b0 06 00
        E 24 b0 06 00
        E 24 b0 06 00
        E 24 b0 06 00
        E 24 b0 06 00
        E 24 b0 06 00
        E 24 b0 06 00
        E 24 b0 06 00
        E 24 b0 06 00
        E 24 b0 06 00
        E 24 b0 06 00
        E 24 b0 06 00
        E 24 b0 06 00
        E 24 b0 06 00
        E 24 b0 06 00
        E 24 b0 06 00
        E 24 b0 06 00
        E 24 b0 06 00
        E 24 b0 06 00
        E 24 b0 06 00
        E 24 b0 06 00
        E 24 b0 06 00
        E 24 b0 06 00
        E 24 b0 06 00
        E 24 b0 06 00
        E 24 b0 06 00
        E 24 b0 06 00
        E 24 b0 06 00
        E 24 b0 06 00
        E 24 b0 06 00
        E 24 b0 06 00
        E 24 b0 06 00
        E 24 b0 06 00
        E 24 b0 06 00
        E 24 b0 06 00
        E 24 b0 06 00
        E 24 b0 06 00
        E 24 b0 06 00
        E 24 b0 06 00
        E 24 b0 06 00
        E 24 b0 06 00
        E 24 b0 06 00
        E 24 b0 06 00
        E 24 b0 06 00
        E 24 b0 06 00
        E 24 b0 06 00
        E 24 b0 06 00
        E 24 b0 06 00
        E 24 b0 06 00
        E 24 b0 06 00
        E 24 b0 06 00
        E 24 b0 06 00
        E 24 b0 06 00
        E 24 b0 06 00
        E 48 b0 06 72
        E 48 b0 06 72
        E 48 b0 06 72
        E 48 b0 06 72
        E 48 b0 06 72
        E 48 b0 06 72
        E 48 b0 06 72
        E 48 b0 06 72
        E 48 b0 06 72
        E 48 b0 06 72
        E 48 b0 06 72
        E 48 b0 06 72
        E 48 b0 06 72
        E 48 b0 06 72
        E 48 b0 06 72
        E 48 b0 06 72
        E 48 b0 06 72
        E 48 b0 06 72
        E 48 b0 06 72
        E 48 b0 06 72
        E 48 b0 06 72
        E 48 b0 06 72
        E 48 b0 06 72
        E 48 b0 06 72
        E 48 b0 06 72
        E 48 b0 06 72
        E 48 b0 06 72
        E 48 b0 06 72
        E 48 b0 06 72
        E 48 b0 06 72
        E 48 b0 06 72
        E 48 b0 06 72
        E 48 b0 06 72
        E 48 b0 06 72
        E 48 b0 06 72
        E 48 b0 06 72
        E 48 b0 06 72
        E 48 b0 06 72
        E 48 b0 06 72
        E 48 b0 06 72
        E 48 b0 06 72
        E 48 b0 06 72
        E 48 b0 06 72
        E 48 b0 06 72
        E 48 b0 06 72
        E 48 b0 06 72
        E 48 b0 06 72
        E 48 b0 06 72
        E 48 b0 06 72
        E 48 b0 06 72
        E 48 b0 06 72
        E 48 b0 06 72
        E 48 b0 06 72
        E 48 b0 06 72
        E 48 b0 06 72
        E 48 b0 06 72
        E 48 b0 06 72
        E 48 b0 06 72
        E 48 b0 06 72
        E 48 b0 06 72
        E 48 b0 06 72
        E 48 b0 06 72
        E 48 b0 06 72
        E 48 b0 06 00
        E 48 b0 06 00
        E 48 b0 06 00
        E 48 b0 06 00
        E 48 b0 06 00
        E 48 b0 06 00
        E 48 b0 06 00
        E 48 b0 06 00
        E 48 b0 06 00
        E 48 b0 06 00
        E 48 b0 06 00
        E 48 b0 06 00
        E 48 b0 06 00
        E 48 b0 06 00
        E 48 b0 06 00
        E 48 b0 06 00
        E 48 b0 06 00
        E 48 b0 06 00
        E 48 b0 06 00
        E 48 b0 06 00
        E 48 b0 06 00
        E 48 b0 06 00
        E 48 b0 06 00
        E 48 b0 06 00
        E 48 b0 06 00
        E 48 b0 06 00
        E 48 b0 06 00
        E 48 b0 06 00
        E 48 b0 06 00
        E 48 b0 06 00
        E 48 b0 06 00
        E 48 b0 06 00
        E 48 b0 06 00
        E 48 b0 06 00
        E 48 b0 06 00
        E 48 b0 06 00
        E 48 b0 06 00
        E 48 b0 06 00
        E 48 b0 06 00
        E 48 b0 06 00
        E 48 b0 06 00
        E 48 b0 06 00
        E 48 b0 06 00
        E 48 b0 06 00
        E 48 b0 06 00
        E 48 b0 06 00
        E 48 b0 06 00
        E 48 b0 06 00
        E 48 b0 06 00
        E 48 b0 06 00
        E 48 b0 06 00
        E 48 b0 06 00
        E 48 b0 06 00
        E 48 b0 06 00
        E 48 b0 06 00
        E 48 b0 06 00
        E 48 b0 06 00
        E 48 b0 06 00
        E 48 b0 06 00
        E 48 b0 06 00
        E 48 b0 06 00
        E 48 b0 06 00
        E 48 b0 06 00
        E 48 b0 06 00
        E 72 b0 06 26
        E 72 b0 06 26
        E 72 b0 06 26
        E 72 b0 06 26
        E 72 b0 06 26
        E 72 b0 06 26
        E 72 b0 06 26
        E 72 b0 06 26
        E 72 b0 06 26
        E 72 b0 06 26
        E 72 b0 06 26
        E 72 b0 06 26
        E 72 b0 06 26
        E 72 b0 06 26
        E 72 b0 06 26
        E 72 b0 06 26
        E 72 b0 06 26
        E 72 b0 06 26
        E 72 b0 06 26
        E 72 b0 06 26
        E 72 b0 06 26
        E 72 b0 06 26
        E 72 b0 06 26
        E 72 b0 06 26
        E 72 b0 06 26
        E 72 b0 06 26
        E 72 b0 06 26
        E 72 b0 06 26
        E 72 b0 06 26
        E 72 b0 06 26
        E 72 b0 06 26
        E 72 b0 06 26
        E 72 b0 06 26
        E 72 b0 06 26
        E 72 b0 06 26
        E 72 b0 06 26
        E 72 b0 06 26
        E 72 b0 06 26
        E 72 b0 06 26
        E 72 b0 06 26
        E 72 b0 06 26
        E 72 b0 06 26
        E 72 b0 06 26
        E 72 b0 06 26
        E 72 b0 06 26
        E 72 b0 06 26
        E 72 b0 06 26
        E 72 b0 06 26
        E 72 b0 06 26
        E 72 b0 06 26
        E 72 b0 06 26
        E 72 b0 06 26
        E 72 b0 06 26
        E 72 b0 06 26
        E 72 b0 06 26
        E 72 b0 06 26
        E 72 b0 06 26
        E 72 b0 06 26
        E 72 b0 06 26
        E 72 b0 06 26
        E 72 b0 06 26
        E 72 b0 06 26
        E 72 b0 06 26
        E 72 b0 06 00
        E 72 b0 06 00
        E 72 b0 06 00
        E 72 b0 06 00
        E 72 b0 06 00
        E 72 b0 06 00
        E 72 b0 06 00
        E 72 b0 06 00
        E 72 b0 06 00
        E 72 b0 06 00
        E 72 b0 06 00
        E 72 b0 06 00
        E 72 b0 06 00
        E 72 b0 06 00
        E 72 b0 06 00
        E 72 b0 06 00
        E 72 b0 06 00
        E 72 b0 06 00
        E 72 b0 06 00
        E 72 b0 06 00
        E 72 b0 06 00
        E 72 b0 06 00
        E 72 b0 06 00
        E 72 b0 06 00
        E 72 b0 06 00
        E 72 b0 06 00
        E 72 b0 06 00
        E 72 b0 06 00
        E 72 b0 06 00
        E 72 b0 06 00
        E 72 b0 06 00
        E 72 b0 06 00
        E 72 b0 06 00
        E 72 b0 06 00
        E 72 b0 06 00
        E 72 b0 06 00
        E 72 b0 06 00
        E 72 b0 06 00
        E 72 b0 06 00
        E 72 b0 06 00
        E 72 b0 06 00
        E 72 b0 06 00
        E 72 b0 06 00
        E 72 b0 06 00
        E 72 b0 06 00
        E 72 b0 06 00
        E 72 b0 06 00
        E 72 b0 06 00
        E 72 b0 06 00
        E 72 b0 06 00
        E 72 b0 06 00
        E 72 b0 06 00
        E 72 b0 06 00
        E 72 b0 06 00
        E 72 b0 06 00
        E 72 b0 06 00
        E 72 b0 06 00
        E 72 b0 06 00
        E 72 b0 06 00
        E 72 b0 06 00
        E 72 b0 06 00
        E 72 b0 06 00
        E 72 b0 06 00
        E 72 b0 06 00
        E 32 b0 06 65
        E 32 b0 06 65
        E 32 b0 06 65
        E 32 b0 06 65
        E 32 b0 06 65
        E 32 b0 06 65
        E 32 b0 06 65
        E 32 b0 06 65
        E 32 b0 06 65
        E 32 b0 06 65
        E 32 b0 06 65
        E 32 b0 06 65
        E 32 b0 06 65
        E 32 b0 06 65
        E 32 b0 06 65
        E 32 b0 06 65
        E 32 b0 06 65
        E 32 b0 06 65
        E 32 b0 06 65
        E 32 b0 06 65
        E 32 b0 06 65
        E 32 b0 06 65
        E 32 b0 06 65
        E 32 b0 06 65
        E 32 b0 06 65
        E 32 b0 06 65
        E 32 b0 06 65
        E 32 b0 06 65
        E 32 b0 06 65
        E 32 b0 06 65
        E 32 b0 06 65
        E 32 b0 06 65
        E 32 b0 06 65
        E 32 b0 06 65
        E 32 b0 06 65
        E 32 b0 06 65
        E 32 b0 06 65
        E 32 b0 06 65
        E 32 b0 06 65
        E 32 b0 06 65
        E 32 b0 06 65
        E 32 b0 06 65
        E 32 b0 06 65
        E 32 b0 06 65
        E 32 b0 06 65
        E 32 b0 06 65
        E 32 b0 06 65
        E 32 b0 06 65
        E 32 b0 06 65
        E 32 b0 06 65
        E 32 b0 06 65
        E 32 b0 06 65
        E 32 b0 06 65
        E 32 b0 06 65
        E 32 b0 06 65
        E 32 b0 06 65
        E 32 b0 06 65
        E 32 b0 06 65
        E 32 b0 06 65
        E 32 b0 06 65
        E 32 b0 06 65
        E 32 b0 06 65
        E 32 b0 06 65
        E 32 b0 06 00
        E 32 b0 06 00
        E 32 b0 06 00
        E 32 b0 06 00
        E 32 b0 06 00
        E 32 b0 06 00
        E 32 b0 06 00
        E 32 b0 06 00
        E 32 b0 06 00
        E 32 b0 06 00
        E 32 b0 06 00
        E 32 b0 06 00
        E 32 b0 06 00
        E 32 b0 06 00
        E 32 b0 06 00
        E 32 b0 06 00
        E 32 b0 06 00
        E 32 b0 06 00
        E 32 b0 06 00
        E 32 b0 06 00
        E 32 b0 06 00
        E 32 b0 06 00
        E 32 b0 06 00
        E 32 b0 06 00
        E 32 b0 06 00
        E 32 b0 06 00
        E 32 b0 06 00
        E 32 b0 06 00
        E 32 b0 06 00
        E 32 b0 06 00
        E 32 b0 06 00
        E 32 b0 06 00
        E 32 b0 06 00
        E 32 b0 06 00
        E 32 b0 06 00
        E 32 b0 06 00
        E 32 b0 06 00
        E 32 b0 06 00
        E 32 b0 06 00
        E 32 b0 06 00
        E 32 b0 06 00
        E 32 b0 06 00
        E 32 b0 06 00
        E 32 b0 06 00
        E 32 b0 06 00
        E 32 b0 06 00
        E 32 b0 06 00
        E 32 b0 06 00
        E 32 b0 06 00
        E 32 b0 06 00
        E 32 b0 06 00
        E 32 b0 06 00
        E 32 b0 06 00
        E 32 b0 06 00
        E 32 b0 06 00
        E 32 b0 06 00
        E 32 b0 06 00
        E 32 b0 06 00
        E 32 b0 06 00
        E 32 b0 06 00
        E 32 b0 06 00
        E 32 b0 06 00
        E 32 b0 06 00
        E 32 b0 06 00
        E 8 b0 06 0c
        E 8 b0 06 0c
        E 8 b0 06 0c
        E 8 b0 06 0c
        E 8 b0 06 0c
        E 8 b0 06 0c
        E 8 b0 06 0c
        E 8 b0 06 0c
        E 8 b0 06 0c
        E 8 b0 06 0c
        E 8 b0 06 0c
        E 8 b0 06 0c
        E 8 b0 06 0c
        E 8 b0 06 0c
        E 8 b0 06 0c
        E 8 b0 06 0c
        E 8 b0 06 0c
        E 8 b0 06 0c
        E 8 b0 06 0c
        E 8 b0 06 0c
        E 8 b0 06 0c
        E 8 b0 06 0c
        E 8 b0 06 0c
        E 8 b0 06 0c
        E 8 b0 06 0c
        E 8 b0 06 0c
        E 8 b0 06 0c
        E 8 b0 06 0c
        E 8 b0 06 0c
        E 8 b0 06 0c
        E 8 b0 06 0c
        E 8 b0 06 0c
        E 8 b0 06 0c
        E 8 b0 06 0c
        E 8 b0 06 0c
        E 8 b0 06 0c
        E 8 b0 06 0c
        E 8 b0 06 0c
        E 8 b0 06 0c
        E 8 b0 06 0c
        E 8 b0 06 0c
        E 8 b0 06 0c
        E 8 b0 06 0c
        E 8 b0 06 0c
        E 8 b0 06 0c
        E 8 b0 06 0c
        E 8 b0 06 0c
        E 8 b0 06 0c
        E 8 b0 06 0c
        E 8 b0 06 0c
        E 8 b0 06 0c
        E 8 b0 06 0c
        E 8 b0 06 0c
        E 8 b0 06 0c
        E 8 b0 06 0c
        E 8 b0 06 0c
        E 8 b0 06 0c
        E 8 b0 06 0c
        E 8 b0 06 0c
        E 8 b0 06 0c
        E 8 b0 06 0c
        E 8 b0 06 0c
        E 8 b0 06 0c
        E 8 b0 06 00
        E 8 b0 06 00
        E 8 b0 06 00
        E 8 b0 06 00
        E 8 b0 06 00
        E 8 b0 06 00
        E 8 b0 06 00
        E 8 b0 06 00
        E 8 b0 06 00
        E 8 b0 06 00
        E 8 b0 06 00
        E 8 b0 06 00
        E 8 b0 06 00
        E 8 b0 06 00
        E 8 b0 06 00
        E 8 b0 06 00
        E 8 b0 06 00
        E 8 b0 06 00
        E 8 b0 06 00
        E 8 b0 06 00
        E 8 b0 06 00
        E 8 b0 06 00
        E 8 b0 06 00
        E 8 b0 06 00
        E 8 b0 06 00
        E 8 b0 06 00
        E 8 b0 06 00
        E 8 b0 06 00
        E 8 b0 06 00
        E 8 b0 06 00
        E 8 b0 06 00
        E 8 b0 06 00
        E 8 b0 06 00
        E 8 b0 06 00
        E 8 b0 06 00
        E 8 b0 06 00
        E 8 b0 06 00
        E 8 b0 06 00
        E 8 b0 06 00
        E 8 b0 06 00
        E 8 b0 06 00
        E 8 b0 06 00
        E 8 b0 06 00
        E 8 b0 06 00
        E 8 b0 06 00
        E 8 b0 06 00
        E 8 b0 06 00
        E 8 b0 06 00
        E 8 b0 06 00
        E 8 b0 06 00
        E 8 b0 06 00
        E 8 b0 06 00
        E 8 b0 06 00
        E 8 b0 06 00
        E 8 b0 06 00
        E 8 b0 06 00
        E 8 b0 06 00
        E 8 b0 06 00
        E 8 b0 06 00
        E 8 b0 06 00
        E 8 b0 06 00
        E 8 b0 06 00
        E 8 b0 06 00
        E 8 b0 06 00
        E 56 b0 06 72
        E 56 b0 06 72
        E 56 b0 06 72
        E 56 b0 06 72
        E 56 b0 06 72
        E 56 b0 06 72
        E 56 b0 06 72
        E 56 b0 06 72
        E 56 b0 06 72
        E 56 b0 06 72
        E 56 b0 06 72
        E 56 b0 06 72
        E 56 b0 06 72
        E 56 b0 06 72
        E 56 b0 06 72
        E 56 b0 06 72
        E 56 b0 06 72
        E 56 b0 06 72
        E 56 b0 06 72
        E 56 b0 06 72
        E 56 b0 06 72
        E 56 b0 06 72
        E 56 b0 06 72
        E 56 b0 06 72
        E 56 b0 06 72
        E 56 b0 06 72
        E 56 b0 06 72
        E 56 b0 06 72
        E 56 b0 06 72
        E 56 b0 06 72
        E 56 b0 06 72
        E 56 b0 06 72
        E 56 b0 06 72
        E 56 b0 06 72
        E 56 b0 06 72
        E 56 b0 06 72
        E 56 b0 06 72
        E 56 b0 06 72
        E 56 b0 06 72
        E 56 b0 06 72
        E 56 b0 06 72
        E 56 b0 06 72
        E 56 b0 06 72
        E 56 b0 06 72
        E 56 b0 06 72
        E 56 b0 06 72
        E 56 b0 06 72
        E 56 b0 06 72
        E 56 b0 06 72
        E 56 b0 06 72
        E 56 b0 06 72
        E 56 b0 06 72
        E 56 b0 06 72
        E 56 b0 06 72
        E 56 b0 06 72
        E 56 b0 06 72
        E 56 b0 06 72
        E 56 b0 06 72
        E 56 b0 06 72
        E 56 b0 06 72
        E 56 b0 06 72
        E 56 b0 06 72
        E 56 b0 06 72
        E 56 b0 06 00
        E 56 b0 06 00
        E 56 b0 06 00
        E 56 b0 06 00
        E 56 b0 06 00
        E 56 b0 06 00
        E 56 b0 06 00
        E 56 b0 06 00
        E 56 b0 06 00
        E 56 b0 06 00
        E 56 b0 06 00
        E 56 b0 06 00
        E 56 b0 06 00
        E 56 b0 06 00
        E 56 b0 06 00
        E 56 b0 06 00
        E 56 b0 06 00
        E 56 b0 06 00
        E 56 b0 06 00
        E 56 b0 06 00
        E 56 b0 06 00
        E 56 b0 06 00
        E 56 b0 06 00
        E 56 b0 06 00
        E 56 b0 06 00
        E 56 b0 06 00
        E 56 b0 06 00
        E 56 b0 06 00
        E 56 b0 06 00
        E 56 b0 06 00
        E 56 b0 06 00
        E 56 b0 06 00
        E 56 b0 06 00
        E 56 b0 06 00
        E 56 b0 06 00
        E 56 b0 06 00
        E 56 b0 06 00
        E 56 b0 06 00
        E 56 b0 06 00
        E 56 b0 06 00
        E 56 b0 06 00
        E 56 b0 06 00
        E 56 b0 06 00
        E 56 b0 06 00
        E 56 b0 06 00
        E 56 b0 06 00
        E 56 b0 06 00
        E 56 b0 06 00
        E 56 b0 06 00
        E 56 b0 06 00
        E 56 b0 06 00
        E 56 b0 06 00
        E 56 b0 06 00
        E 56 b0 06 00
        E 56 b0 06 00
        E 56 b0 06 00
        E 56 b0 06 00
        E 56 b0 06 00
        E 56 b0 06 00
        E 56 b0 06 00
        E 56 b0 06 00
        E 56 b0 06 00
        E 56 b0 06 00
        E 56 b0 06 00
        E 24 b0 06 65
        E 24 b0 06 65
        E 24 b0 06 65
        E 24 b0 06 65
        E 24 b0 06 65
        E 24 b0 06 65
        E 24 b0 06 65
        E 24 b0 06 65
        E 24 b0 06 65
        E 24 b0 06 65
        E 24 b0 06 65
        E 24 b0 06 65
        E 24 b0 06 65
        E 24 b0 06 65
        E 24 b0 06 65
        E 24 b0 06 65
        E 24 b0 06 65
        E 24 b0 06 65
        E 24 b0 06 65
        E 24 b0 06 65
        E 24 b0 06 65
        E 24 b0 06 65
        E 24 b0 06 65
        E 24 b0 06 65
        E 24 b0 06 65
        E 24 b0 06 65
        E 24 b0 06 65
        E 24 b0 06 65
        E 24 b0 06 65
        E 24 b0 06 65
        E 24 b0 06 65
        E 24 b0 06 65
        E 24 b0 06 65
        E 24 b0 06 65
        E 24 b0 06 65
        E 24 b0 06 65
        E 24 b0 06 65
        E 24 b0 06 65
        E 24 b0 06 65
        E 24 b0 06 65
        E 24 b0 06 65
        E 24 b0 06 65
        E 24 b0 06 65
        E 24 b0 06 65
        E 24 b0 06 65
        E 24 b0 06 65
        E 24 b0 06 65
        E 24 b0 06 65
        E 24 b0 06 65
        E 24 b0 06 65
        E 24 b0 06 65
        E 24 b0 06 65
        E 24 b0 06 65
        E 24 b0 06 65
        E 24 b0 06 65
        E 24 b0 06 65
        E 24 b0 06 65
        E 24 b0 06 65
        E 24 b0 06 65
        E 24 b0 06 65
        E 24 b0 06 65
        E 24 b0 06 65
        E 24 b0 06 65
        E 24 b0 06 00
        E 24 b0 06 00
        E 24 b0 06 00
        E 24 b0 06 00
        E 24 b0 06 00
        E 24 b0 06 00
        E 24 b0 06 00
        E 24 b0 06 00
        E 24 b0 06 00
        E 24 b0 06 00
        E 24 b0 06 00
        E 24 b0 06 00
        E 24 b0 06 00
        E 24 b0 06 00
        E 24 b0 06 00
        E 24 b0 06 00
        E 24 b0 06 00
        E 24 b0 06 00
        E 24 b0 06 00
        E 24 b0 06 00
        E 24 b0 06 00
        E 24 b0 06 00
        E 24 b0 06 00
        E 24 b0 06 00
        E 24 b0 06 00
        E 24 b0 06 00
        E 24 b0 06 00
        E 24 b0 06 00
        E 24 b0 06 00
        E 24 b0 06 00
        E 24 b0 06 00
        E 24 b0 06 00
        E 24 b0 06 00
        E 24 b0 06 00
        E 24 b0 06 00
        E 24 b0 06 00
        E 24 b0 06 00
        E 24 b0 06 00
        E 24 b0 06 00
        E 24 b0 06 00
        E 24 b0 06 00
        E 24 b0 06 00
        E 24 b0 06 00
        E 24 b0 06 00
        E 24 b0 06 00
        E 24 b0 06 00
        E 24 b0 06 00
        E 24 b0 06 00
        E 24 b0 06 00
        E 24 b0 06 00
        E 24 b0 06 00
        E 24 b0 06 00
        E 24 b0 06 00
        E 24 b0 06 00
        E 24 b0 06 00
        E 24 b0 06 00
        E 24 b0 06 00
        E 24 b0 06 00
        E 24 b0 06 00
        E 24 b0 06 00
        E 24 b0 06 00
        E 24 b0 06 00
        E 24 b0 06 00
        E 24 b0 06 00
        E 48 b0 06 72
        E 48 b0 06 72
        E 48 b0 06 72
        E 48 b0 06 72
        E 48 b0 06 72
        E 48 b0 06 72
        E 48 b0 06 72
        E 48 b0 06 72
        E 48 b0 06 72
        E 48 b0 06 72
        E 48 b0 06 72
        E 48 b0 06 72
        E 48 b0 06 72
        E 48 b0 06 72
        E 48 b0 06 72
        E 48 b0 06 72
        E 48 b0 06 72
        E 48 b0 06 72
        E 48 b0 06 72
        E 48 b0 06 72
        E 48 b0 06 72
        E 48 b0 06 72
        E 48 b0 06 72
        E 48 b0 06 72
        E 48 b0 06 72
        E 48 b0 06 72
        E 48 b0 06 72
        E 48 b0 06 72
        E 48 b0 06 72
        E 48 b0 06 72
        E 48 b0 06 72
        E 48 b0 06 72
        E 48 b0 06 72
        E 48 b0 06 72
        E 48 b0 06 72
        E 48 b0 06 72
        E 48 b0 06 72
        E 48 b0 06 72
        E 48 b0 06 72
        E 48 b0 06 72
        E 48 b0 06 72
        E 48 b0 06 72
        E 48 b0 06 72
        E 48 b0 06 72
        E 48 b0 06 72
        E 48 b0 06 72
        E 48 b0 06 72
        E 48 b0 06 72
        E 48 b0 06 72
        E 48 b0 06 72
        E 48 b0 06 72
        E 48 b0 06 72
        E 48 b0 06 72
        E 48 b0 06 72
        E 48 b0 06 72
        E 48 b0 06 72
        E 48 b0 06 72
        E 48 b0 06 72
        E 48 b0 06 72
        E 48 b0 06 72
        E 48 b0 06 72
        E 48 b0 06 72
        E 48 b0 06 72
        E 48 b0 06 00
        E 48 b0 06 00
        E 48 b0 06 00
        E 48 b0 06 00
        E 48 b0 06 00
        E 48 b0 06 00
        E 48 b0 06 00
        E 48 b0 06 00
        E 48 b0 06 00
        E 48 b0 06 00
        E 48 b0 06 00
        E 48 b0 06 00
        E 48 b0 06 00
        E 48 b0 06 00
        E 48 b0 06 00
        E 48 b0 06 00
        E 48 b0 06 00
        E 48 b0 06 00
        E 48 b0 06 00
        E 48 b0 06 00
        E 48 b0 06 00
        E 48 b0 06 00
        E 48 b0 06 00
        E 48 b0 06 00
        E 48 b0 06 00
        E 48 b0 06 00
        E 48 b0 06 00
        E 48 b0 06 00
        E 48 b0 06 00
        E 48 b0 06 00
        E 48 b0 06 00
        E 48 b0 06 00
        E 48 b0 06 00
        E 48 b0 06 00
        E 48 b0 06 00
        E 48 b0 06 00
        E 48 b0 06 00
        E 48 b0 06 00
        E 48 b0 06 00
        E 48 b0 06 00
        E 48 b0 06 00
        E 48 b0 06 00
        E 48 b0 06 00
        E 48 b0 06 00
        E 48 b0 06 00
        E 48 b0 06 00
        E 48 b0 06 00
        E 48 b0 06 00
        E 48 b0 06 00
        E 48 b0 06 00
        E 48 b0 06 00
        E 48 b0 06 00
        E 48 b0 06 00
        E 48 b0 06 00
        E 48 b0 06 00
        E 48 b0 06 00
        E 48 b0 06 00
        E 48 b0 06 00
        E 48 b0 06 00
        E 48 b0 06 00
        E 48 b0 06 00
        E 48 b0 06 00
        E 48 b0 06 00
        E 48 b0 06 00
        E 72 b0 06 26
        E 72 b0 06 26
        E 72 b0 06 26
        E 72 b0 06 26
        E 72 b0 06 26
        E 72 b0 06 26
        E 72 b0 06 26
        E 72 b0 06 26
        E 72 b0 06 26
        E 72 b0 06 26
        E 72 b0 06 26
        E 72 b0 06 26
        E 72 b0 06 26
        E 72 b0 06 26
        E 72 b0 06 26
        E 72 b0 06 26
        E 72 b0 06 26
        E 72 b0 06 26
        E 72 b0 06 26
        E 72 b0 06 26
        E 72 b0 06 26
        E 72 b0 06 26
        E 72 b0 06 26
        E 72 b0 06 26
        E 72 b0 06 26
        E 72 b0 06 26
        E 72 b0 06 26
        E 72 b0 06 26
        E 72 b0 06 26
        E 72 b0 06 26
        E 72 b0 06 26
        E 72 b0 06 26
        E 72 b0 06 26
        E 72 b0 06 26
        E 72 b0 06 26
        E 72 b0 06 26
        E 72 b0 06 26
        E 72 b0 06 26
        E 72 b0 06 26
        E 72 b0 06 26
        E 72 b0 06 26
        E 72 b0 06 26
        E 72 b0 06 26
        E 72 b0 06 26
        E 72 b0 06 26
        E 72 b0 06 26
        E 72 b0 06 26
        E 72 b0 06 26
        E 72 b0 06 26
        E 72 b0 06 26
        E 72 b0 06 26
        E 72 b0 06 26
        E 72 b0 06 26
        E 72 b0 06 26
        E 72 b0 06 26
        E 72 b0 06 26
        E 72 b0 06 26
        E 72 b0 06 26
        E 72 b0 06 26
        E 72 b0 06 26
        E 72 b0 06 26
        E 72 b0 06 26
        E 72 b0 06 26
        E 72 b0 06 00
        E 72 b0 06 00
        E 72 b0 06 00
        E 72 b0 06 00
        E 72 b0 06 00
        E 72 b0 06 00
        E 72 b0 06 00
        E 72 b0 06 00
        E 72 b0 06 00
        E 72 b0 06 00
        E 72 b0 06 00
        E 72 b0 06 00
        E 72 b0 06 00
        E 72 b0 06 00
        E 72 b0 06 00
        E 72 b0 06 00
        E 72 b0 06 00
        E 72 b0 06 00
        E 72 b0 06 00
        E 72 b0 06 00
        E 72 b0 06 00
        E 72 b0 06 00
        E 72 b0 06 00
        E 72 b0 06 00
        E 72 b0 06 00
        E 72 b0 06 00
        E 72 b0 06 00
        E 72 b0 06 00
        E 72 b0 06 00
        E 72 b0 06 00
        E 72 b0 06 00
        E 72 b0 06 00
        E 72 b0 06 00
        E 72 b0 06 00
        E 72 b0 06 00
        E 72 b0 06 00
        E 72 b0 06 00
        E 72 b0 06 00
        E 72 b0 06 00
        E 72 b0 06 00
        E 72 b0 06 00
        E 72 b0 06 00
        E 72 b0 06 00
        E 72 b0 06 00
        E 72 b0 06 00
        E 72 b0 06 00
        E 72 b0 06 00
        E 72 b0 06 00
        E 72 b0 06 00
        E 72 b0 06 00
        E 72 b0 06 00
        E 72 b0 06 00
        E 72 b0 06 00
        E 72 b0 06 00
        E 72 b0 06 00
        E 72 b0 06 00
        E 72 b0 06 00
        E 72 b0 06 00
        E 72 b0 06 00
        E 72 b0 06 00
        E 72 b0 06 00
        E 72 b0 06 00
        E 72 b0 06 00
        E 72 b0 06 00
        E 32 b0 06 65
        E 32 b0 06 65
        E 32 b0 06 65
        E 32 b0 06 65
        E 32 b0 06 65
        E 32 b0 06 65
        E 32 b0 06 65
        E 32 b0 06 65
        E 32 b0 06 65
        E 32 b0 06 65
        E 32 b0 06 65
        E 32 b0 06 65
        E 32 b0 06 65
        E 32 b0 06 65
        E 32 b0 06 65
        E 32 b0 06 65
        E 32 b0 06 65
        E 32 b0 06 65
        E 32 b0 06 65
        E 32 b0 06 65
        E 32 b0 06 65
        E 32 b0 06 65
        E 32 b0 06 65
        E 32 b0 06 65
        E 32 b0 06 65
        E 32 b0 06 65
        E 32 b0 06 65
        E 32 b0 06 65
        E 32 b0 06 65
        E 32 b0 06 65
        E 32 b0 06 65
        E 32 b0 06 65
        E 32 b0 06 65
        E 32 b0 06 65
        E 32 b0 06 65
        E 32 b0 06 65
        E 32 b0 06 65
        E 32 b0 06 65
        E 32 b0 06 65
        E 32 b0 06 65
        E 32 b0 06 65
        E 32 b0 06 65
        E 32 b0 06 65
        E 32 b0 06 65
        E 32 b0 06 65
        E 32 b0 06 65
        E 32 b0 06 65
        E 32 b0 06 65
        E 32 b0 06 65
        E 32 b0 06 65
        E 32 b0 06 65
        E 32 b0 06 65
        E 32 b0 06 65
        E 32 b0 06 65
        E 32 b0 06 65
        E 32 b0 06 65
        E 32 b0 06 65
        E 32 b0 06 65
        E 32 b0 06 65
        E 32 b0 06 65
        E 32 b0 06 65
        E 32 b0 06 65
        E 32 b0 06 65
        E 32 b0 06 00
        E 32 b0 06 00
        E 32 b0 06 00
        E 32 b0 06 00
        E 32 b0 06 00
        E 32 b0 06 00
        E 32 b0 06 00
        E 32 b0 06 00
        E 32 b0 06 00
        E 32 b0 06 00
        E 32 b0 06 00
        E 32 b0 06 00
        E 32 b0 06 00
        E 32 b0 06 00
        E 32 b0 06 00
        E 32 b0 06 00
        E 32 b0 06 00
        E 32 b0 06 00
        E 32 b0 06 00
        E 32 b0 06 00
        E 32 b0 06 00
        E 32 b0 06 00
        E 32 b0 06 00
        E 32 b0 06 00
        E 32 b0 06 00
        E 32 b0 06 00
        E 32 b0 06 00
        E 32 b0 06 00
        E 32 b0 06 00
        E 32 b0 06 00
        E 32 b0 06 00
        E 32 b0 06 00
        E 32 b0 06 00
        E 32 b0 06 00
        E 32 b0 06 00
        E 32 b0 06 00
        E 32 b0 06 00
        E 32 b0 06 00
        E 32 b0 06 00
        E 32 b0 06 00
        E 32 b0 06 00
        E 32 b0 06 00
        E 32 b0 06 00
        E 32 b0 06 00
        E 32 b0 06 00
        E 32 b0 06 00
        E 32 b0 06 00
        E 32 b0 06 00
        E 32 b0 06 00
        E 32 b0 06 00
        E 32 b0 06 00
        E 32 b0 06 00
        E 32 b0 06 00
        E 32 b0 06 00
        E 32 b0 06 00
        E 32 b0 06 00
        E 32 b0 06 00
        E 32 b0 06 00
        E 32 b0 06 00
        E 32 b0 06 00
        E 32 b0 06 00
        E 32 b0 06 00
        E 32 b0 06 00
        E 32 b0 06 00
        E 8 b0 06 0c
        E 8 b0 06 0c
        E 8 b0 06 0c
        E 8 b0 06 0c
        E 8 b0 06 0c
        E 8 b0 06 0c
        E 8 b0 06 0c
        E 8 b0 06 0c
        E 8 b0 06 0c
        E 8 b0 06 0c
        E 8 b0 06 0c
        E 8 b0 06 0c
        E 8 b0 06 0c
        E 8 b0 06 0c
        E 8 b0 06 0c
        E 8 b0 06 0c
        E 8 b0 06 0c
        E 8 b0 06 0c
        E 8 b0 06 0c
        E 8 b0 06 0c
        E 8 b0 06 0c
        E 8 b0 06 0c
        E 8 b0 06 0c
        E 8 b0 06 0c
        E 8 b0 06 0c
        E 8 b0 06 0c
        E 8 b0 06 0c
        E 8 b0 06 0c
        E 8 b0 06 0c
        E 8 b0 06 0c
        E 8 b0 06 0c
        E 8 b0 06 0c
        E 8 b0 06 0c
        E 8 b0 06 0c
        E 8 b0 06 0c
        E 8 b0 06 0c
        E 8 b0 06 0c
        E 8 b0 06 0c
        E 8 b0 06 0c
        E 8 b0 06 0c
        E 8 b0 06 0c
        E 8 b0 06 0c
        E 8 b0 06 0c
        E 8 b0 06 0c
        E 8 b0 06 0c
        E 8 b0 06 0c
        E 8 b0 06 0c
        E 8 b0 06 0c
        E 8 b0 06 0c
        E 8 b0 06 0c
        E 8 b0 06 0c
        E 8 b0 06 0c
        E 8 b0 06 0c
        E 8 b0 06 0c
        E 8 b0 06 0c
        E 8 b0 06 0c
        E 8 b0 06 0c
        E 8 b0 06 0c
        E 8 b0 06 0c
        E 8 b0 06 0c
        E 8 b0 06 0c
        E 8 b0 06 0c
        E 8 b0 06 0c
        E 8 b0 06 00
        E 8 b0 06 00
        E 8 b0 06 00
        E 8 b0 06 00
        E 8 b0 06 00
        E 8 b0 06 00
        E 8 b0 06 00
        E 8 b0 06 00
        E 8 b0 06 00
        E 8 b0 06 00
        E 8 b0 06 00
        E 8 b0 06 00
        E 8 b0 06 00
        E 8 b0 06 00
        E 8 b0 06 00
        E 8 b0 06 00
        E 8 b0 06 00
        E 8 b0 06 00
        E 8 b0 06 00
        E 8 b0 06 00
        E 8 b0 06 00
        E 8 b0 06 00
        E 8 b0 06 00
        E 8 b0 06 00
        E 8 b0 06 00
        E 8 b0 06 00
        E 8 b0 06 00
        E 8 b0 06 00
        E 8 b0 06 00
        E 8 b0 06 00
        E 8 b0 06 00
        E 8 b0 06 00
        E 8 b0 06 00
        E 8 b0 06 00
        E 8 b0 06 00
        E 8 b0 06 00
        E 8 b0 06 00
        E 8 b0 06 00
        E 8 b0 06 00
        E 8 b0 06 00
        E 8 b0 06 00
        E 8 b0 06 00
        E 8 b0 06 00
        E 8 b0 06 00
        E 8 b0 06 00
        E 8 b0 06 00
        E 8 b0 06 00
        E 8 b0 06 00
        E 8 b0 06 00
        E 8 b0 06 00
        E 8 b0 06 00
        E 8 b0 06 00
        E 8 b0 06 00
        E 8 b0 06 00
        E 8 b0 06 00
        E 8 b0 06 00
        E 8 b0 06 00
        E 8 b0 06 00
        E 8 b0 06 00
        E 8 b0 06 00
        E 8 b0 06 00
        E 8 b0 06 00
        E 8 b0 06 00
        E 8 b0 06 00
        E 38 b0 06 39
        E 38 b0 06 3c
        E 38 b0 06 3f
        E 38 b0 06 41
        E 38 b0 06 44
        E 38 b0 06 47
        E 38 b0 06 49
        E 38 b0 06 4c
        E 38 b0 06 4f
        E 38 b0 06 51
        E 38 b0 06 54
        E 38 b0 06 56
        E 38 b0 06 59
        E 38 b0 06 5b
        E 38 b0 06 5d
        E 38 b0 06 5f
        E 38 b0 06 62
        E 38 b0 06 63
        E 38 b0 06 65
        E 38 b0 06 67
        E 38 b0 06 69
        E 38 b0 06 6a
        E 38 b0 06 6c
        E 38 b0 06 6c
        E 38 b0 06 6d
        E 38 b0 06 6e
        E 38 b0 06 6f
        E 38 b0 06 70
        E 38 b0 06 71
        E 38 b0 06 71
        E 38 b0 06 72
        E 38 b0 06 72
        E 38 b0 06 72
        E 38 b0 06 72
        E 38 b0 06 72
        E 38 b0 06 71
        E 38 b0 06 71
        E 38 b0 06 70
        E 38 b0 06 6f
        E 38 b0 06 6e
        E 38 b0 06 6d
        E 38 b0 06 6c
        E 38 b0 06 6b
        E 38 b0 06 69
        E 38 b0 06 68
        E 38 b0 06 66
        E 38 b0 06 64
        E 38 b0 06 63
        E 38 b0 06 61
        E 38 b0 06 5e
        E 38 b0 06 5c
        E 38 b0 06 5a
        E 38 b0 06 58
        E 38 b0 06 55
        E 38 b0 06 52
        E 38 b0 06 50
        E 38 b0 06 4e
        E 38 b0 06 4b
        E 38 b0 06 48
        E 38 b0 06 46
        E 38 b0 06 42
        E 38 b0 06 3f
        E 38 b0 06 3d
        E 38 b0 06 3a
        E 38 b0 06 37
        E 38 b0 06 35
        E 38 b0 06 32
        E 38 b0 06 2f
        E 38 b0 06 2c
        E 38 b0 06 29
        E 38 b0 06 26
        E 38 b0 06 24
        E 38 b0 06 22
        E 38 b0 06 1f
        E 38 b0 06 1c
        E 38 b0 06 1a
        E 38 b0 06 18
        E 38 b0 06 15
        E 38 b0 06 13
        E 38 b0 06 11
        E 38 b0 06 0f
        E 38 b0 06 0d
        E 38 b0 06 0b
        E 38 b0 06 09
        E 38 b0 06 09
        E 38 b0 06 07
        E 38 b0 06 06
        E 38 b0 06 04
        E 38 b0 06 03
        E 38 b0 06 02
        E 38 b0 06 01
        E 38 b0 06 00
        E 38 b0 06 00
        E 38 b0 06 00
        E 38 b0 06 00
        E 38 b0 06 00
        E 38 b0 06 00
        E 38 b0 06 00
        E 38 b0 06 00
        E 38 b0 06 00
        E 38 b0 06 01
        E 38 b0 06 02
        E 38 b0 06 03
        E 38 b0 06 04
        E 38 b0 06 05
        E 38 b0 06 06
        E 38 b0 06 08
        E 38 b0 06 09
        E 38 b0 06 0a
        E 38 b0 06 0c
        E 38 b0 06 0e
        E 38 b0 06 10
        E 38 b0 06 12
        E 38 b0 06 14
        E 38 b0 06 16
        E 38 b0 06 19
        E 38 b0 06 1b
        E 38 b0 06 1d
        E 38 b0 06 20
        E 38 b0 06 23
        E 38 b0 06 25
        E 38 b0 06 28
        E 38 b0 06 2b
        E 38 b0 06 2d
        E 38 b0 06 30
        E 38 b0 06 33
        E 38 b0 06 36
        E 38 b0 06 39
        E 57 b0 06 13
        E 57 b0 06 14
        E 57 b0 06 15
        E 57 b0 06 15
        E 57 b0 06 16
        E 57 b0 06 17
        E 57 b0 06 18
        E 57 b0 06 19
        E 57 b0 06 1a
        E 57 b0 06 1b
        E 57 b0 06 1c
        E 57 b0 06 1c
        E 57 b0 06 1d
        E 57 b0 06 1e
        E 57 b0 06 1f
        E 57 b0 06 1f
        E 57 b0 06 20
        E 57 b0 06 21
        E 57 b0 06 21
        E 57 b0 06 22
        E 57 b0 06 23
        E 57 b0 06 23
        E 57 b0 06 24
        E 57 b0 06 24
        E 57 b0 06 24
        E 57 b0 06 24
        E 57 b0 06 25
        E 57 b0 06 25
        E 57 b0 06 25
        E 57 b0 06 25
        E 57 b0 06 26
        E 57 b0 06 26
        E 57 b0 06 26
        E 57 b0 06 26
        E 57 b0 06 26
        E 57 b0 06 25
        E 57 b0 06 25
        E 57 b0 06 25
        E 57 b0 06 25
        E 57 b0 06 24
        E 57 b0 06 24
        E 57 b0 06 24
        E 57 b0 06 23
        E 57 b0 06 23
        E 57 b0 06 22
        E 57 b0 06 22
        E 57 b0 06 21
        E 57 b0 06 21
        E 57 b0 06 20
        E 57 b0 06 1f
        E 57 b0 06 1e
        E 57 b0 06 1e
        E 57 b0 06 1d
        E 57 b0 06 1c
        E 57 b0 06 1b
        E 57 b0 06 1a
        E 57 b0 06 1a
        E 57 b0 06 19
        E 57 b0 06 18
        E 57 b0 06 17
        E 57 b0 06 16
        E 57 b0 06 15
        E 57 b0 06 14
        E 57 b0 06 13
        E 57 b0 06 12
        E 57 b0 06 11
        E 57 b0 06 10
        E 57 b0 06 0f
        E 57 b0 06 0e
        E 57 b0 06 0d
        E 57 b0 06 0c
        E 57 b0 06 0c
        E 57 b0 06 0b
        E 57 b0 06 0a
        E 57 b0 06 09
        E 57 b0 06 08
        E 57 b0 06 08
        E 57 b0 06 07
        E 57 b0 06 06
        E 57 b0 06 05
        E 57 b0 06 05
        E 57 b0 06 04
        E 57 b0 06 03
        E 57 b0 06 03
        E 57 b0 06 03
        E 57 b0 06 02
        E 57 b0 06 02
        E 57 b0 06 01
        E 57 b0 06 01
        E 57 b0 06 00
        E 57 b0 06 00
        E 57 b0 06 00
        E 57 b0 06 00
        E 57 b0 06 00
        E 57 b0 06 00
        E 57 b0 06 00
        E 57 b0 06 00
        E 57 b0 06 00
        E 57 b0 06 00
        E 57 b0 06 00
        E 57 b0 06 00
        E 57 b0 06 00
        E 57 b0 06 01
        E 57 b0 06 01
        E 57 b0 06 01
        E 57 b0 06 02
        E 57 b0 06 02
        E 57 b0 06 03
        E 57 b0 06 03
        E 57 b0 06 04
        E 57 b0 06 04
        E 57 b0 06 05
        E 57 b0 06 06
        E 57 b0 06 06
        E 57 b0 06 07
        E 57 b0 06 08
        E 57 b0 06 09
        E 57 b0 06 09
        E 57 b0 06 0a
        E 57 b0 06 0b
        E 57 b0 06 0c
        E 57 b0 06 0d
        E 57 b0 06 0e
        E 57 b0 06 0f
        E 57 b0 06 10
        E 57 b0 06 11
        E 57 b0 06 12
        E 57 b0 06 13
        E 25 b0 06 33
        E 25 b0 06 35
        E 25 b0 06 37
        E 25 b0 06 3a
        E 25 b0 06 3c
        E 25 b0 06 3f
        E 25 b0 06 41
        E 25 b0 06 44
        E 25 b0 06 46
        E 25 b0 06 48
        E 25 b0 06 4b
        E 25 b0 06 4c
        E 25 b0 06 4f
        E 25 b0 06 51
        E 25 b0 06 53
        E 25 b0 06 54
        E 25 b0 06 57
        E 25 b0 06 58
        E 25 b0 06 5a
        E 25 b0 06 5b
        E 25 b0 06 5d
        E 25 b0 06 5e
        E 25 b0 06 5f
        E 25 b0 06 60
        E 25 b0 06 61
        E 25 b0 06 62
        E 25 b0 06 63
        E 25 b0 06 63
        E 25 b0 06 64
        E 25 b0 06 64
        E 25 b0 06 65
        E 25 b0 06 65
        E 25 b0 06 65
        E 25 b0 06 65
        E 25 b0 06 65
        E 25 b0 06 64
        E 25 b0 06 64
        E 25 b0 06 63
        E 25 b0 06 63
        E 25 b0 06 62
        E 25 b0 06 61
        E 25 b0 06 5f
        E 25 b0 06 5f
        E 25 b0 06 5d
        E 25 b0 06 5c
        E 25 b0 06 5b
        E 25 b0 06 59
        E 25 b0 06 57
        E 25 b0 06 56
        E 25 b0 06 54
        E 25 b0 06 52
        E 25 b0 06 50
        E 25 b0 06 4e
        E 25 b0 06 4c
        E 25 b0 06 49
        E 25 b0 06 47
        E 25 b0 06 45
        E 25 b0 06 43
        E 25 b0 06 40
        E 25 b0 06 3e
        E 25 b0 06 3b
        E 25 b0 06 38
        E 25 b0 06 36
        E 25 b0 06 33
        E 25 b0 06 31
        E 25 b0 06 2f
        E 25 b0 06 2c
        E 25 b0 06 2a
        E 25 b0 06 27
        E 25 b0 06 24
        E 25 b0 06 22
        E 25 b0 06 1f
        E 25 b0 06 1e
        E 25 b0 06 1b
        E 25 b0 06 19
        E 25 b0 06 17
        E 25 b0 06 15
        E 25 b0 06 13
        E 25 b0 06 11
        E 25 b0 06 0f
        E 25 b0 06 0d
        E 25 b0 06 0b
        E 25 b0 06 0a
        E 25 b0 06 08
        E 25 b0 06 07
        E 25 b0 06 06
        E 25 b0 06 05
        E 25 b0 06 03
        E 25 b0 06 03
        E 25 b0 06 02
        E 25 b0 06 01
        E 25 b0 06 00
        E 25 b0 06 00
        E 25 b0 06 00
        E 25 b0 06 00
        E 25 b0 06 00
        E 25 b0 06 00
        E 25 b0 06 00
        E 25 b0 06 00
        E 25 b0 06 00
        E 25 b0 06 01
        E 25 b0 06 02
        E 25 b0 06 03
        E 25 b0 06 03
        E 25 b0 06 04
        E 25 b0 06 05
        E 25 b0 06 07
        E 25 b0 06 07
        E 25 b0 06 09
        E 25 b0 06 0b
        E 25 b0 06 0c
        E 25 b0 06 0e
        E 25 b0 06 10
        E 25 b0 06 12
        E 25 b0 06 14
        E 25 b0 06 16
        E 25 b0 06 18
        E 25 b0 06 1a
        E 25 b0 06 1c
        E 25 b0 06 1f
        E 25 b0 06 21
        E 25 b0 06 24
        E 25 b0 06 26
        E 25 b0 06 28
        E 25 b0 06 2b
        E 25 b0 06 2d
        E 25 b0 06 2f
        E 25 b0 06 33
        E 6 b0 06 06
        E 6 b0 06 06
        E 6 b0 06 07
        E 6 b0 06 07
        E 6 b0 06 07
        E 6 b0 06 07
        E 6 b0 06 08
        E 6 b0 06 08
        E 6 b0 06 08
        E 6 b0 06 09
        E 6 b0 06 09
        E 6 b0 06 09
        E 6 b0 06 09
        E 6 b0 06 0a
        E 6 b0 06 0a
        E 6 b0 06 0a
        E 6 b0 06 0a
        E 6 b0 06 0b
        E 6 b0 06 0b
        E 6 b0 06 0b
        E 6 b0 06 0b
        E 6 b0 06 0b
        E 6 b0 06 0c
        E 6 b0 06 0c
        E 6 b0 06 0c
        E 6 b0 06 0c
        E 6 b0 06 0c
        E 6 b0 06 0c
        E 6 b0 06 0c
        E 6 b0 06 0c
        E 6 b0 06 0c
        E 6 b0 06 0c
        E 6 b0 06 0c
        E 6 b0 06 0c
        E 6 b0 06 0c
        E 6 b0 06 0c
        E 6 b0 06 0c
        E 6 b0 06 0c
        E 6 b0 06 0c
        E 6 b0 06 0c
        E 6 b0 06 0c
        E 6 b0 06 0c
        E 6 b0 06 0b
        E 6 b0 06 0b
        E 6 b0 06 0b
        E 6 b0 06 0b
        E 6 b0 06 0b
        E 6 b0 06 0b
        E 6 b0 06 0a
        E 6 b0 06 0a
        E 6 b0 06 0a
        E 6 b0 06 0a
        E 6 b0 06 09
        E 6 b0 06 09
        E 6 b0 06 09
        E 6 b0 06 08
        E 6 b0 06 08
        E 6 b0 06 08
        E 6 b0 06 08
        E 6 b0 06 07
        E 6 b0 06 07
        E 6 b0 06 07
        E 6 b0 06 06
        E 6 b0 06 06
        E 6 b0 06 06
        E 6 b0 06 05
        E 6 b0 06 05
        E 6 b0 06 05
        E 6 b0 06 04
        E 6 b0 06 04
        E 6 b0 06 04
        E 6 b0 06 04
        E 6 b0 06 03
        E 6 b0 06 03
        E 6 b0 06 03
        E 6 b0 06 02
        E 6 b0 06 02
        E 6 b0 06 02
        E 6 b0 06 02
        E 6 b0 06 01
        E 6 b0 06 01
        E 6 b0 06 01
        E 6 b0 06 01
        E 6 b0 06 01
        E 6 b0 06 01
        E 6 b0 06 00
        E 6 b0 06 00
        E 6 b0 06 00
        E 6 b0 06 00
        E 6 b0 06 00
        E 6 b0 06 00
        E 6 b0 06 00
        E 6 b0 06 00
        E 6 b0 06 00
        E 6 b0 06 00
        E 6 b0 06 00
        E 6 b0 06 00
        E 6 b0 06 00
        E 6 b0 06 00
        E 6 b0 06 00
        E 6 b0 06 00
        E 6 b0 06 00
        E 6 b0 06 00
        E 6 b0 06 00
        E 6 b0 06 00
        E 6 b0 06 00
        E 6 b0 06 00
        E 6 b0 06 01
        E 6 b0 06 01
        E 6 b0 06 01
        E 6 b0 06 01
        E 6 b0 06 01
        E 6 b0 06 02
        E 6 b0 06 02
        E 6 b0 06 02
        E 6 b0 06 02
        E 6 b0 06 03
        E 6 b0 06 03
        E 6 b0 06 03
        E 6 b0 06 03
        E 6 b0 06 04
        E 6 b0 06 04
        E 6 b0 06 04
        E 6 b0 06 05
        E 6 b0 06 05
        E 6 b0 06 05
        E 6 b0 06 06
        E 6 b0 06 06
        E 44 b0 06 39
        E 44 b0 06 3c
        E 44 b0 06 3f
        E 44 b0 06 41
        E 44 b0 06 44
        E 44 b0 06 47
        E 44 b0 06 49
        E 44 b0 06 4c
        E 44 b0 06 4f
        E 44 b0 06 51
        E 44 b0 06 54
        E 44 b0 06 56
        E 44 b0 06 59
        E 44 b0 06 5b
        E 44 b0 06 5d
        E 44 b0 06 5f
        E 44 b0 06 62
        E 44 b0 06 63
        E 44 b0 06 65
        E 44 b0 06 67
        E 44 b0 06 69
        E 44 b0 06 6a
        E 44 b0 06 6c
        E 44 b0 06 6c
        E 44 b0 06 6d
        E 44 b0 06 6e
        E 44 b0 06 6f
        E 44 b0 06 70
        E 44 b0 06 71
        E 44 b0 06 71
        E 44 b0 06 72
        E 44 b0 06 72
        E 44 b0 06 72
        E 44 b0 06 72
        E 44 b0 06 72
        E 44 b0 06 71
        E 44 b0 06 71
        E 44 b0 06 70
        E 44 b0 06 6f
        E 44 b0 06 6e
        E 44 b0 06 6d
        E 44 b0 06 6c
        E 44 b0 06 6b
        E 44 b0 06 69
        E 44 b0 06 68
        E 44 b0 06 66
        E 44 b0 06 64
        E 44 b0 06 63
        E 44 b0 06 61
        E 44 b0 06 5e
        E 44 b0 06 5c
        E 44 b0 06 5a
        E 44 b0 06 58
        E 44 b0 06 55
        E 44 b0 06 52
        E 44 b0 06 50
        E 44 b0 06 4e
        E 44 b0 06 4b
        E 44 b0 06 48
        E 44 b0 06 46
        E 44 b0 06 42
        E 44 b0 06 3f
        E 44 b0 06 3d
        E 44 b0 06 3a
        E 44 b0 06 37
        E 44 b0 06 35
        E 44 b0 06 32
        E 44 b0 06 2f
        E 44 b0 06 2c
        E 44 b0 06 29
        E 44 b0 06 26
        E 44 b0 06 24
        E 44 b0 06 22
        E 44 b0 06 1f
        E 44 b0 06 1c
        E 44 b0 06 1a
        E 44 b0 06 18
        E 44 b0 06 15
        E 44 b0 06 13
        E 44 b0 06 11
        E 44 b0 06 0f
        E 44 b0 06 0d
        E 44 b0 06 0b
        E 44 b0 06 09
        E 44 b0 06 09
        E 44 b0 06 07
        E 44 b0 06 06
        E 44 b0 06 04
        E 44 b0 06 03
        E 44 b0 06 02
        E 44 b0 06 01
        E 44 b0 06 00
        E 44 b0 06 00
        E 44 b0 06 00
        E 44 b0 06 00
        E 44 b0 06 00
        E 44 b0 06 00
        E 44 b0 06 00
        E 44 b0 06 00
        E 44 b0 06 00
        E 44 b0 06 01
        E 44 b0 06 02
        E 44 b0 06 03
        E 44 b0 06 04
        E 44 b0 06 05
        E 44 b0 06 06
        E 44 b0 06 08
        E 44 b0 06 09
        E 44 b0 06 0a
        E 44 b0 06 0c
        E 44 b0 06 0e
        E 44 b0 06 10
        E 44 b0 06 12
        E 44 b0 06 14
        E 44 b0 06 16
        E 44 b0 06 19
        E 44 b0 06 1b
        E 44 b0 06 1d
        E 44 b0 06 20
        E 44 b0 06 23
        E 44 b0 06 25
        E 44 b0 06 28
        E 44 b0 06 2b
        E 44 b0 06 2d
        E 44 b0 06 30
        E 44 b0 06 33
        E 44 b0 06 36
        E 44 b0 06 39
        E 19 b0 06 33
        E 19 b0 06 35
        E 19 b0 06 37
        E 19 b0 06 3a
        E 19 b0 06 3c
        E 19 b0 06 3f
        E 19 b0 06 41
        E 19 b0 06 44
        E 19 b0 06 46
        E 19 b0 06 48
        E 19 b0 06 4b
        E 19 b0 06 4c
        E 19 b0 06 4f
        E 19 b0 06 51
        E 19 b0 06 53
        E 19 b0 06 54
        E 19 b0 06 57
        E 19 b0 06 58
        E 19 b0 06 5a
        E 19 b0 06 5b
        E 19 b0 06 5d
        E 19 b0 06 5e
        E 19 b0 06 5f
        E 19 b0 06 60
        E 19 b0 06 61
        E 19 b0 06 62
        E 19 b0 06 63
        E 19 b0 06 63
        E 19 b0 06 64
        E 19 b0 06 64
        E 19 b0 06 65
        E 19 b0 06 65
        E 19 b0 06 65
        E 19 b0 06 65
        E 19 b0 06 65
        E 19 b0 06 64
        E 19 b0 06 64
        E 19 b0 06 63
        E 19 b0 06 63
        E 19 b0 06 62
        E 19 b0 06 61
        E 19 b0 06 5f
        E 19 b0 06 5f
        E 19 b0 06 5d
        E 19 b0 06 5c
        E 19 b0 06 5b
        E 19 b0 06 59
        E 19 b0 06 57
        E 19 b0 06 56
        E 19 b0 06 54
        E 19 b0 06 52
        E 19 b0 06 50
        E 19 b0 06 4e
        E 19 b0 06 4c
        E 19 b0 06 49
        E 19 b0 06 47
        E 19 b0 06 45
        E 19 b0 06 43
        E 19 b0 06 40
        E 19 b0 06 3e
        E 19 b0 06 3b
        E 19 b0 06 38
        E 19 b0 06 36
        E 19 b0 06 33
        E 19 b0 06 31
        E 19 b0 06 2f
        E 19 b0 06 2c
        E 19 b0 06 2a
        E 19 b0 06 27
        E 19 b0 06 24
        E 19 b0 06 22
        E 19 b0 06 1f
        E 19 b0 06 1e
        E 19 b0 06 1b
        E 19 b0 06 19
        E 19 b0 06 17
        E 19 b0 06 15
        E 19 b0 06 13
        E 19 b0 06 11
        E 19 b0 06 0f
        E 19 b0 06 0d
        E 19 b0 06 0b
        E 19 b0 06 0a
        E 19 b0 06 08
        E 19 b0 06 07
        E 19 b0 06 06
        E 19 b0 06 05
        E 19 b0 06 03
        E 19 b0 06 03
        E 19 b0 06 02
        E 19 b0 06 01
        E 19 b0 06 00
        E 19 b0 06 00
        E 19 b0 06 00
        E 19 b0 06 00
        E 19 b0 06 00
        E 19 b0 06 00
        E 19 b0 06 00
        E 19 b0 06 00
        E 19 b0 06 00
        E 19 b0 06 01
        E 19 b0 06 02
        E 19 b0 06 03
        E 19 b0 06 03
        E 19 b0 06 04
        E 19 b0 06 05
        E 19 b0 06 07
        E 19 b0 06 07
        E 19 b0 06 09
        E 19 b0 06 0b
        E 19 b0 06 0c
        E 19 b0 06 0e
        E 19 b0 06 10
        E 19 b0 06 12
        E 19 b0 06 14
        E 19 b0 06 16
        E 19 b0 06 18
        E 19 b0 06 1a
        E 19 b0 06 1c
        E 19 b0 06 1f
        E 19 b0 06 21
        E 19 b0 06 24
        E 19 b0 06 26
        E 19 b0 06 28
        E 19 b0 06 2b
        E 19 b0 06 2d
        E 19 b0 06 2f
        E 19 b0 06 33
        E 38 b0 06 39
        E 38 b0 06 3c
        E 38 b0 06 3f
        E 38 b0 06 41
        E 38 b0 06 44
        E 38 b0 06 47
        E 38 b0 06 49
        E 38 b0 06 4c
        E 38 b0 06 4f
        E 38 b0 06 51
        E 38 b0 06 54
        E 38 b0 06 56
        E 38 b0 06 59
        E 38 b0 06 5b
        E 38 b0 06 5d
        E 38 b0 06 5f
        E 38 b0 06 62
        E 38 b0 06 63
        E 38 b0 06 65
        E 38 b0 06 67
        E 38 b0 06 69
        E 38 b0 06 6a
        E 38 b0 06 6c
        E 38 b0 06 6c
        E 38 b0 06 6d
        E 38 b0 06 6e
        E 38 b0 06 6f
        E 38 b0 06 70
        E 38 b0 06 71
        E 38 b0 06 71
        E 38 b0 06 72
        E 38 b0 06 72
        E 38 b0 06 72
        E 38 b0 06 72
        E 38 b0 06 72
        E 38 b0 06 71
        E 38 b0 06 71
        E 38 b0 06 70
        E 38 b0 06 6f
        E 38 b0 06 6e
        E 38 b0 06 6d
        E 38 b0 06 6c
        E 38 b0 06 6b
        E 38 b0 06 69
        E 38 b0 06 68
        E 38 b0 06 66
        E 38 b0 06 64
        E 38 b0 06 63
        E 38 b0 06 61
        E 38 b0 06 5e
        E 38 b0 06 5c
        E 38 b0 06 5a
        E 38 b0 06 58
        E 38 b0 06 55
        E 38 b0 06 52
        E 38 b0 06 50
        E 38 b0 06 4e
        E 38 b0 06 4b
        E 38 b0 06 48
        E 38 b0 06 46
        E 38 b0 06 42
        E 38 b0 06 3f
        E 38 b0 06 3d
        E 38 b0 06 3a
        E 38 b0 06 37
        E 38 b0 06 35
        E 38 b0 06 32
        E 38 b0 06 2f
        E 38 b0 06 2c
        E 38 b0 06 29
        E 38 b0 06 26
        E 38 b0 06 24
        E 38 b0 06 22
        E 38 b0 06 1f
        E 38 b0 06 1c
        E 38 b0 06 1a
        E 38 b0 06 18
        E 38 b0 06 15
        E 38 b0 06 13
        E 38 b0 06 11
        E 38 b0 06 0f
        E 38 b0 06 0d
        E 38 b0 06 0b
        E 38 b0 06 09
        E 38 b0 06 09
        E 38 b0 06 07
        E 38 b0 06 06
        E 38 b0 06 04
        E 38 b0 06 03
        E 38 b0 06 02
        E 38 b0 06 01
        E 38 b0 06 00
        E 38 b0 06 00
        E 38 b0 06 00
        E 38 b0 06 00
        E 38 b0 06 00
        E 38 b0 06 00
        E 38 b0 06 00
        E 38 b0 06 00
        E 38 b0 06 00
        E 38 b0 06 01
        E 38 b0 06 02
        E 38 b0 06 03
        E 38 b0 06 04
        E 38 b0 06 05
        E 38 b0 06 06
        E 38 b0 06 08
        E 38 b0 06 09
        E 38 b0 06 0a
        E 38 b0 06 0c
        E 38 b0 06 0e
        E 38 b0 06 10
        E 38 b0 06 12
        E 38 b0 06 14
        E 38 b0 06 16
        E 38 b0 06 19
        E 38 b0 06 1b
        E 38 b0 06 1d
        E 38 b0 06 20
        E 38 b0 06 23
        E 38 b0 06 25
        E 38 b0 06 28
        E 38 b0 06 2b
        E 38 b0 06 2d
        E 38 b0 06 30
        E 38 b0 06 33
        E 38 b0 06 36
        E 38 b0 06 39
        E 57 b0 06 13
        E 57 b0 06 14
        E 57 b0 06 15
        E 57 b0 06 15
        E 57 b0 06 16
        E 57 b0 06 17
        E 57 b0 06 18
        E 57 b0 06 19
        E 57 b0 06 1a
        E 57 b0 06 1b
        E 57 b0 06 1c
        E 57 b0 06 1c
        E 57 b0 06 1d
        E 57 b0 06 1e
        E 57 b0 06 1f
        E 57 b0 06 1f
        E 57 b0 06 20
        E 57 b0 06 21
        E 57 b0 06 21
        E 57 b0 06 22
        E 57 b0 06 23
        E 57 b0 06 23
        E 57 b0 06 24
        E 57 b0 06 24
        E 57 b0 06 24
        E 57 b0 06 24
        E 57 b0 06 25
        E 57 b0 06 25
        E 57 b0 06 25
        E 57 b0 06 25
        E 57 b0 06 26
        E 57 b0 06 26
        E 57 b0 06 26
        E 57 b0 06 26
        E 57 b0 06 26
        E 57 b0 06 25
        E 57 b0 06 25
        E 57 b0 06 25
        E 57 b0 06 25
        E 57 b0 06 24
        E 57 b0 06 24
        E 57 b0 06 24
        E 57 b0 06 23
        E 57 b0 06 23
        E 57 b0 06 22
        E 57 b0 06 22
        E 57 b0 06 21
        E 57 b0 06 21
        E 57 b0 06 20
        E 57 b0 06 1f
        E 57 b0 06 1e
        E 57 b0 06 1e
        E 57 b0 06 1d
        E 57 b0 06 1c
        E 57 b0 06 1b
        E 57 b0 06 1a
        E 57 b0 06 1a
        E 57 b0 06 19
        E 57 b0 06 18
        E 57 b0 06 17
        E 57 b0 06 16
        E 57 b0 06 15
        E 57 b0 06 14
        E 57 b0 06 13
        E 57 b0 06 12
        E 57 b0 06 11
        E 57 b0 06 10
        E 57 b0 06 0f
        E 57 b0 06 0e
        E 57 b0 06 0d
        E 57 b0 06 0c
        E 57 b0 06 0c
        E 57 b0 06 0b
        E 57 b0 06 0a
        E 57 b0 06 09
        E 57 b0 06 08
        E 57 b0 06 08
        E 57 b0 06 07
        E 57 b0 06 06
        E 57 b0 06 05
        E 57 b0 06 05
        E 57 b0 06 04
        E 57 b0 06 03
        E 57 b0 06 03
        E 57 b0 06 03
        E 57 b0 06 02
        E 57 b0 06 02
        E 57 b0 06 01
        E 57 b0 06 01
        E 57 b0 06 00
        E 57 b0 06 00
        E 57 b0 06 00
        E 57 b0 06 00
        E 57 b0 06 00
        E 57 b0 06 00
        E 57 b0 06 00
        E 57 b0 06 00
        E 57 b0 06 00
        E 57 b0 06 00
        E 57 b0 06 00
        E 57 b0 06 00
        E 57 b0 06 00
        E 57 b0 06 01
        E 57 b0 06 01
        E 57 b0 06 01
        E 57 b0 06 02
        E 57 b0 06 02
        E 57 b0 06 03
        E 57 b0 06 03
        E 57 b0 06 04
        E 57 b0 06 04
        E 57 b0 06 05
        E 57 b0 06 06
        E 57 b0 06 06
        E 57 b0 06 07
        E 57 b0 06 08
        E 57 b0 06 09
        E 57 b0 06 09
        E 57 b0 06 0a
        E 57 b0 06 0b
        E 57 b0 06 0c
        E 57 b0 06 0d
        E 57 b0 06 0e
        E 57 b0 06 0f
        E 57 b0 06 10
        E 57 b0 06 11
        E 57 b0 06 12
        E 57 b0 06 13
        E 25 b0 06 33
        E 25 b0 06 35
        E 25 b0 06 37
        E 25 b0 06 3a
        E 25 b0 06 3c
        E 25 b0 06 3f
        E 25 b0 06 41
        E 25 b0 06 44
        E 25 b0 06 46
        E 25 b0 06 48
        E 25 b0 06 4b
        E 25 b0 06 4c
        E 25 b0 06 4f
        E 25 b0 06 51
        E 25 b0 06 53
        E 25 b0 06 54
        E 25 b0 06 57
        E 25 b0 06 58
        E 25 b0 06 5a
        E 25 b0 06 5b
        E 25 b0 06 5d
        E 25 b0 06 5e
        E 25 b0 06 5f
        E 25 b0 06 60
        E 25 b0 06 61
        E 25 b0 06 62
        E 25 b0 06 63
        E 25 b0 06 63
        E 25 b0 06 64
        E 25 b0 06 64
        E 25 b0 06 65
        E 25 b0 06 65
        E 25 b0 06 65
        E 25 b0 06 65
        E 25 b0 06 65
        E 25 b0 06 64
        E 25 b0 06 64
        E 25 b0 06 63
        E 25 b0 06 63
        E 25 b0 06 62
        E 25 b0 06 61
        E 25 b0 06 5f
        E 25 b0 06 5f
        E 25 b0 06 5d
        E 25 b0 06 5c
        E 25 b0 06 5b
        E 25 b0 06 59
        E 25 b0 06 57
        E 25 b0 06 56
        E 25 b0 06 54
        E 25 b0 06 52
        E 25 b0 06 50
        E 25 b0 06 4e
        E 25 b0 06 4c
        E 25 b0 06 49
        E 25 b0 06 47
        E 25 b0 06 45
        E 25 b0 06 43
        E 25 b0 06 40
        E 25 b0 06 3e
        E 25 b0 06 3b
        E 25 b0 06 38
        E 25 b0 06 36
        E 25 b0 06 33
        E 25 b0 06 31
        E 25 b0 06 2f
        E 25 b0 06 2c
        E 25 b0 06 2a
        E 25 b0 06 27
        E 25 b0 06 24
        E 25 b0 06 22
        E 25 b0 06 1f
        E 25 b0 06 1e
        E 25 b0 06 1b
        E 25 b0 06 19
        E 25 b0 06 17
        E 25 b0 06 15
        E 25 b0 06 13
        E 25 b0 06 11
        E 25 b0 06 0f
        E 25 b0 06 0d
        E 25 b0 06 0b
        E 25 b0 06 0a
        E 25 b0 06 08
        E 25 b0 06 07
        E 25 b0 06 06
        E 25 b0 06 05
        E 25 b0 06 03
        E 25 b0 06 03
        E 25 b0 06 02
        E 25 b0 06 01
        E 25 b0 06 00
        E 25 b0 06 00
        E 25 b0 06 00
        E 25 b0 06 00
        E 25 b0 06 00
        E 25 b0 06 00
        E 25 b0 06 00
        E 25 b0 06 00
        E 25 b0 06 00
        E 25 b0 06 01
        E 25 b0 06 02
        E 25 b0 06 03
        E 25 b0 06 03
        E 25 b0 06 04
        E 25 b0 06 05
        E 25 b0 06 07
        E 25 b0 06 07
        E 25 b0 06 09
        E 25 b0 06 0b
        E 25 b0 06 0c
        E 25 b0 06 0e
        E 25 b0 06 10
        E 25 b0 06 12
        E 25 b0 06 14
        E 25 b0 06 16
        E 25 b0 06 18
        E 25 b0 06 1a
        E 25 b0 06 1c
        E 25 b0 06 1f
        E 25 b0 06 21
        E 25 b0 06 24
        E 25 b0 06 26
        E 25 b0 06 28
        E 25 b0 06 2b
        E 25 b0 06 2d
        E 25 b0 06 2f
        E 25 b0 06 33
        E 6 b0 06 06
        E 6 b0 06 06
        E 6 b0 06 07
        E 6 b0 06 07
        E 6 b0 06 07
        E 6 b0 06 07
        E 6 b0 06 08
        E 6 b0 06 08
        E 6 b0 06 08
        E 6 b0 06 09
        E 6 b0 06 09
        E 6 b0 06 09
        E 6 b0 06 09
        E 6 b0 06 0a
        E 6 b0 06 0a
        E 6 b0 06 0a
        E 6 b0 06 0a
        E 6 b0 06 0b
        E 6 b0 06 0b
        E 6 b0 06 0b
        E 6 b0 06 0b
        E 6 b0 06 0b
        E 6 b0 06 0c
        E 6 b0 06 0c
        E 6 b0 06 0c
        E 6 b0 06 0c
        E 6 b0 06 0c
        E 6 b0 06 0c
        E 6 b0 06 0c
        E 6 b0 06 0c
        E 6 b0 06 0c
        E 6 b0 06 0c
        E 6 b0 06 0c
        E 6 b0 06 0c
        E 6 b0 06 0c
        E 6 b0 06 0c
        E 6 b0 06 0c
        E 6 b0 06 0c
        E 6 b0 06 0c
        E 6 b0 06 0c
        E 6 b0 06 0c
        E 6 b0 06 0c
        E 6 b0 06 0b
        E 6 b0 06 0b
        E 6 b0 06 0b
        E 6 b0 06 0b
        E 6 b0 06 0b
        E 6 b0 06 0b
        E 6 b0 06 0a
        E 6 b0 06 0a
        E 6 b0 06 0a
        E 6 b0 06 0a
        E 6 b0 06 09
        E 6 b0 06 09
        E 6 b0 06 09
        E 6 b0 06 08
        E 6 b0 06 08
        E 6 b0 06 08
        E 6 b0 06 08
        E 6 b0 06 07
        E 6 b0 06 07
        E 6 b0 06 07
        E 6 b0 06 06
        E 6 b0 06 06
        E 6 b0 06 06
        E 6 b0 06 05
        E 6 b0 06 05
        E 6 b0 06 05
        E 6 b0 06 04
        E 6 b0 06 04
        E 6 b0 06 04
        E 6 b0 06 04
        E 6 b0 06 03
        E 6 b0 06 03
        E 6 b0 06 03
        E 6 b0 06 02
        E 6 b0 06 02
        E 6 b0 06 02
        E 6 b0 06 02
        E 6 b0 06 01
        E 6 b0 06 01
        E 6 b0 06 01
        E 6 b0 06 01
        E 6 b0 06 01
        E 6 b0 06 01
        E 6 b0 06 00
        E 6 b0 06 00
        E 6 b0 06 00
        E 6 b0 06 00
        E 6 b0 06 00
        E 6 b0 06 00
        E 6 b0 06 00
        E 6 b0 06 00
        E 6 b0 06 00
        E 6 b0 06 00
        E 6 b0 06 00
        E 6 b0 06 00
        E 6 b0 06 00
        E 6 b0 06 00
        E 6 b0 06 00
        E 6 b0 06 00
        E 6 b0 06 00
        E 6 b0 06 00
        E 6 b0 06 00
        E 6 b0 06 00
        E 6 b0 06 00
        E 6 b0 06 00
        E 6 b0 06 01
        E 6 b0 06 01
        E 6 b0 06 01
        E 6 b0 06 01
        E 6 b0 06 01
        E 6 b0 06 02
        E 6 b0 06 02
        E 6 b0 06 02
        E 6 b0 06 02
        E 6 b0 06 03
        E 6 b0 06 03
        E 6 b0 06 03
        E 6 b0 06 03
        E 6 b0 06 04
        E 6 b0 06 04
        E 6 b0 06 04
        E 6 b0 06 05
        E 6 b0 06 05
        E 6 b0 06 05
        E 6 b0 06 06
        E 6 b0 06 06
        E 44 b0 06 39
        E 44 b0 06 3c
        E 44 b0 06 3f
        E 44 b0 06 41
        E 44 b0 06 44
        E 44 b0 06 47
        E 44 b0 06 49
        E 44 b0 06 4c
        E 44 b0 06 4f
        E 44 b0 06 51
        E 44 b0 06 54
        E 44 b0 06 56
        E 44 b0 06 59
        E 44 b0 06 5b
        E 44 b0 06 5d
        E 44 b0 06 5f
        E 44 b0 06 62
        E 44 b0 06 63
        E 44 b0 06 65
        E 44 b0 06 67
        E 44 b0 06 69
        E 44 b0 06 6a
        E 44 b0 06 6c
        E 44 b0 06 6c
        E 44 b0 06 6d
        E 44 b0 06 6e
        E 44 b0 06 6f
        E 44 b0 06 70
        E 44 b0 06 71
        E 44 b0 06 71
        E 44 b0 06 72
        E 44 b0 06 72
        E 44 b0 06 72
        E 44 b0 06 72
        E 44 b0 06 72
        E 44 b0 06 71
        E 44 b0 06 71
        E 44 b0 06 70
        E 44 b0 06 6f
        E 44 b0 06 6e
        E 44 b0 06 6d
        E 44 b0 06 6c
        E 44 b0 06 6b
        E 44 b0 06 69
        E 44 b0 06 68
        E 44 b0 06 66
        E 44 b0 06 64
        E 44 b0 06 63
        E 44 b0 06 61
        E 44 b0 06 5e
        E 44 b0 06 5c
        E 44 b0 06 5a
        E 44 b0 06 58
        E 44 b0 06 55
        E 44 b0 06 52
        E 44 b0 06 50
        E 44 b0 06 4e
        E 44 b0 06 4b
        E 44 b0 06 48
        E 44 b0 06 46
        E 44 b0 06 42
        E 44 b0 06 3f
        E 44 b0 06 3d
        E 44 b0 06 3a
        E 44 b0 06 37
        E 44 b0 06 35
        E 44 b0 06 32
        E 44 b0 06 2f
        E 44 b0 06 2c
        E 44 b0 06 29
        E 44 b0 06 26
        E 44 b0 06 24
        E 44 b0 06 22
        E 44 b0 06 1f
        E 44 b0 06 1c
        E 44 b0 06 1a
        E 44 b0 06 18
        E 44 b0 06 15
        E 44 b0 06 13
        E 44 b0 06 11
        E 44 b0 06 0f
        E 44 b0 06 0d
        E 44 b0 06 0b
        E 44 b0 06 09
        E 44 b0 06 09
        E 44 b0 06 07
        E 44 b0 06 06
        E 44 b0 06 04
        E 44 b0 06 03
        E 44 b0 06 02
        E 44 b0 06 01
        E 44 b0 06 00
        E 44 b0 06 00
        E 44 b0 06 00
        E 44 b0 06 00
        E 44 b0 06 00
        E 44 b0 06 00
        E 44 b0 06 00
        E 44 b0 06 00
        E 44 b0 06 00
        E 44 b0 06 01
        E 44 b0 06 02
        E 44 b0 06 03
        E 44 b0 06 04
        E 44 b0 06 05
        E 44 b0 06 06
        E 44 b0 06 08
        E 44 b0 06 09
        E 44 b0 06 0a
        E 44 b0 06 0c
        E 44 b0 06 0e
        E 44 b0 06 10
        E 44 b0 06 12
        E 44 b0 06 14
        E 44 b0 06 16
        E 44 b0 06 19
        E 44 b0 06 1b
        E 44 b0 06 1d
        E 44 b0 06 20
        E 44 b0 06 23
        E 44 b0 06 25
        E 44 b0 06 28
        E 44 b0 06 2b
        E 44 b0 06 2d
        E 44 b0 06 30
        E 44 b0 06 33
        E 44 b0 06 36
        E 44 b0 06 39
        E 19 b0 06 33
        E 19 b0 06 35
        E 19 b0 06 37
        E 19 b0 06 3a
        E 19 b0 06 3c
        E 19 b0 06 3f
        E 19 b0 06 41
        E 19 b0 06 44
        E 19 b0 06 46
        E 19 b0 06 48
        E 19 b0 06 4b
        E 19 b0 06 4c
        E 19 b0 06 4f
        E 19 b0 06 51
        E 19 b0 06 53
        E 19 b0 06 54
        E 19 b0 06 57
        E 19 b0 06 58
        E 19 b0 06 5a
        E 19 b0 06 5b
        E 19 b0 06 5d
        E 19 b0 06 5e
        E 19 b0 06 5f
        E 19 b0 06 60
        E 19 b0 06 61
        E 19 b0 06 62
        E 19 b0 06 63
        E 19 b0 06 63
        E 19 b0 06 64
        E 19 b0 06 64
        E 19 b0 06 65
        E 19 b0 06 65
        E 19 b0 06 65
        E 19 b0 06 65
        E 19 b0 06 65
        E 19 b0 06 64
        E 19 b0 06 64
        E 19 b0 06 63
        E 19 b0 06 63
        E 19 b0 06 62
        E 19 b0 06 61
        E 19 b0 06 5f
        E 19 b0 06 5f
        E 19 b0 06 5d
        E 19 b0 06 5c
        E 19 b0 06 5b
        E 19 b0 06 59
        E 19 b0 06 57
        E 19 b0 06 56
        E 19 b0 06 54
        E 19 b0 06 52
        E 19 b0 06 50
        E 19 b0 06 4e
        E 19 b0 06 4c
        E 19 b0 06 49
        E 19 b0 06 47
        E 19 b0 06 45
        E 19 b0 06 43
        E 19 b0 06 40
        E 19 b0 06 3e
        E 19 b0 06 3b
        E 19 b0 06 38
        E 19 b0 06 36
        E 19 b0 06 33
        E 19 b0 06 31
        E 19 b0 06 2f
        E 19 b0 06 2c
        E 19 b0 06 2a
        E 19 b0 06 27
        E 19 b0 06 24
        E 19 b0 06 22
        E 19 b0 06 1f
        E 19 b0 06 1e
        E 19 b0 06 1b
        E 19 b0 06 19
        E 19 b0 06 17
        E 19 b0 06 15
        E 19 b0 06 13
        E 19 b0 06 11
        E 19 b0 06 0f
        E 19 b0 06 0d
        E 19 b0 06 0b
        E 19 b0 06 0a
        E 19 b0 06 08
        E 19 b0 06 07
        E 19 b0 06 06
        E 19 b0 06 05
        E 19 b0 06 03
        E 19 b0 06 03
        E 19 b0 06 02
        E 19 b0 06 01
        E 19 b0 06 00
        E 19 b0 06 00
        E 19 b0 06 00
        E 19 b0 06 00
        E 19 b0 06 00
        E 19 b0 06 00
        E 19 b0 06 00
        E 19 b0 06 00
        E 19 b0 06 00
        E 19 b0 06 01
        E 19 b0 06 02
        E 19 b0 06 03
        E 19 b0 06 03
        E 19 b0 06 04
        E 19 b0 06 05
        E 19 b0 06 07
        E 19 b0 06 07
        E 19 b0 06 09
        E 19 b0 06 0b
        E 19 b0 06 0c
        E 19 b0 06 0e
        E 19 b0 06 10
        E 19 b0 06 12
        E 19 b0 06 14
        E 19 b0 06 16
        E 19 b0 06 18
        E 19 b0 06 1a
        E 19 b0 06 1c
        E 19 b0 06 1f
        E 19 b0 06 21
        E 19 b0 06 24
        E 19 b0 06 26
        E 19 b0 06 28
        E 19 b0 06 2b
        E 19 b0 06 2d
        E 19 b0 06 2f
        E 19 b0 06 33
        E 38 b0 06 39
        E 38 b0 06 3c
        E 38 b0 06 3f
        E 38 b0 06 41
        E 38 b0 06 44
        E 38 b0 06 47
        E 38 b0 06 49
        E 38 b0 06 4c
        E 38 b0 06 4f
        E 38 b0 06 51
        E 38 b0 06 54
        E 38 b0 06 56
        E 38 b0 06 59
        E 38 b0 06 5b
        E 38 b0 06 5d
        E 38 b0 06 5f
        E 38 b0 06 62
        E 38 b0 06 63
        E 38 b0 06 65
        E 38 b0 06 67
        E 38 b0 06 69
        E 38 b0 06 6a
        E 38 b0 06 6c
        E 38 b0 06 6c
        E 38 b0 06 6d
        E 38 b0 06 6e
        E 38 b0 06 6f
        E 38 b0 06 70
        E 38 b0 06 71
        E 38 b0 06 71
        E 38 b0 06 72
        E 38 b0 06 72
        E 38 b0 06 72
        E 38 b0 06 72
        E 38 b0 06 72
        E 38 b0 06 71
        E 38 b0 06 71
        E 38 b0 06 70
        E 38 b0 06 6f
        E 38 b0 06 6e
        E 38 b0 06 6d
        E 38 b0 06 6c
        E 38 b0 06 6b
        E 38 b0 06 69
        E 38 b0 06 68
        E 38 b0 06 66
        E 38 b0 06 64
        E 38 b0 06 63
        E 38 b0 06 61
        E 38 b0 06 5e
        E 38 b0 06 5c
        E 38 b0 06 5a
        E 38 b0 06 58
        E 38 b0 06 55
        E 38 b0 06 52
        E 38 b0 06 50
        E 38 b0 06 4e
        E 38 b0 06 4b
        E 38 b0 06 48
        E 38 b0 06 46
        E 38 b0 06 42
        E 38 b0 06 3f
        E 38 b0 06 3d
        E 38 b0 06 3a
        E 38 b0 06 37
        E 38 b0 06 35
        E 38 b0 06 32
        E 38 b0 06 2f
        E 38 b0 06 2c
        E 38 b0 06 29
        E 38 b0 06 26
        E 38 b0 06 24
        E 38 b0 06 22
        E 38 b0 06 1f
        E 38 b0 06 1c
        E 38 b0 06 1a
        E 38 b0 06 18
        E 38 b0 06 15
        E 38 b0 06 13
        E 38 b0 06 11
        E 38 b0 06 0f
        E 38 b0 06 0d
        E 38 b0 06 0b
        E 38 b0 06 09
        E 38 b0 06 09
        E 38 b0 06 07
        E 38 b0 06 06
        E 38 b0 06 04
        E 38 b0 06 03
        E 38 b0 06 02
        E 38 b0 06 01
        E 38 b0 06 00
        E 38 b0 06 00
        E 38 b0 06 00
        E 38 b0 06 00
        E 38 b0 06 00
        E 38 b0 06 00
        E 38 b0 06 00
        E 38 b0 06 00
        E 38 b0 06 00
        E 38 b0 06 01
        E 38 b0 06 02
        E 38 b0 06 03
        E 38 b0 06 04
        E 38 b0 06 05
        E 38 b0 06 06
        E 38 b0 06 08
        E 38 b0 06 09
        E 38 b0 06 0a
        E 38 b0 06 0c
        E 38 b0 06 0e
        E 38 b0 06 10
        E 38 b0 06 12
        E 38 b0 06 14
        E 38 b0 06 16
        E 38 b0 06 19
        E 38 b0 06 1b
        E 38 b0 06 1d
        E 38 b0 06 20
        E 38 b0 06 23
        E 38 b0 06 25
        E 38 b0 06 28
        E 38 b0 06 2b
        E 38 b0 06 2d
        E 38 b0 06 30
        E 38 b0 06 33
        E 38 b0 06 36
        E 38 b0 06 39
        E 57 b0 06 13
        E 57 b0 06 14
        E 57 b0 06 15
        E 57 b0 06 15
        E 57 b0 06 16
        E 57 b0 06 17
        E 57 b0 06 18
        E 57 b0 06 19
        E 57 b0 06 1a
        E 57 b0 06 1b
        E 57 b0 06 1c
        E 57 b0 06 1c
        E 57 b0 06 1d
        E 57 b0 06 1e
        E 57 b0 06 1f
        E 57 b0 06 1f
        E 57 b0 06 20
        E 57 b0 06 21
        E 57 b0 06 21
        E 57 b0 06 22
        E 57 b0 06 23
        E 57 b0 06 23
        E 57 b0 06 24
        E 57 b0 06 24
        E 57 b0 06 24
        E 57 b0 06 24
        E 57 b0 06 25
        E 57 b0 06 25
        E 57 b0 06 25
        E 57 b0 06 25
        E 57 b0 06 26
        E 57 b0 06 26
        E 57 b0 06 26
        E 57 b0 06 26
        E 57 b0 06 26
        E 57 b0 06 25
        E 57 b0 06 25
        E 57 b0 06 25
        E 57 b0 06 25
        E 57 b0 06 24
        E 57 b0 06 24
        E 57 b0 06 24
        E 57 b0 06 23
        E 57 b0 06 23
        E 57 b0 06 22
        E 57 b0 06 22
        E 57 b0 06 21
        E 57 b0 06 21
        E 57 b0 06 20
        E 57 b0 06 1f
        E 57 b0 06 1e
        E 57 b0 06 1e
        E 57 b0 06 1d
        E 57 b0 06 1c
        E 57 b0 06 1b
        E 57 b0 06 1a
        E 57 b0 06 1a
        E 57 b0 06 19
        E 57 b0 06 18
        E 57 b0 06 17
        E 57 b0 06 16
        E 57 b0 06 15
        E 57 b0 06 14
        E 57 b0 06 13
        E 57 b0 06 12
        E 57 b0 06 11
        E 57 b0 06 10
        E 57 b0 06 0f
        E 57 b0 06 0e
        E 57 b0 06 0d
        E 57 b0 06 0c
        E 57 b0 06 0c
        E 57 b0 06 0b
        E 57 b0 06 0a
        E 57 b0 06 09
        E 57 b0 06 08
        E 57 b0 06 08
        E 57 b0 06 07
        E 57 b0 06 06
        E 57 b0 06 05
        E 57 b0 06 05
        E 57 b0 06 04
        E 57 b0 06 03
        E 57 b0 06 03
        E 57 b0 06 03
        E 57 b0 06 02
        E 57 b0 06 02
        E 57 b0 06 01
        E 57 b0 06 01
        E 57 b0 06 00
        E 57 b0 06 00
        E 57 b0 06 00
        E 57 b0 06 00
        E 57 b0 06 00
        E 57 b0 06 00
        E 57 b0 06 00
        E 57 b0 06 00
        E 57 b0 06 00
        E 57 b0 06 00
        E 57 b0 06 00
        E 57 b0 06 00
        E 57 b0 06 00
        E 57 b0 06 01
        E 57 b0 06 01
        E 57 b0 06 01
        E 57 b0 06 02
        E 57 b0 06 02
        E 57 b0 06 03
        E 57 b0 06 03
        E 57 b0 06 04
        E 57 b0 06 04
        E 57 b0 06 05
        E 57 b0 06 06
        E 57 b0 06 06
        E 57 b0 06 07
        E 57 b0 06 08
        E 57 b0 06 09
        E 57 b0 06 09
        E 57 b0 06 0a
        E 57 b0 06 0b
        E 57 b0 06 0c
        E 57 b0 06 0d
        E 57 b0 06 0e
        E 57 b0 06 0f
        E 57 b0 06 10
        E 57 b0 06 11
        E 57 b0 06 12
        E 57 b0 06 13
        E 25 b0 06 33
        E 25 b0 06 35
        E 25 b0 06 37
        E 25 b0 06 3a
        E 25 b0 06 3c
        E 25 b0 06 3f
        E 25 b0 06 41
        E 25 b0 06 44
        E 25 b0 06 46
        E 25 b0 06 48
        E 25 b0 06 4b
        E 25 b0 06 4c
        E 25 b0 06 4f
        E 25 b0 06 51
        E 25 b0 06 53
        E 25 b0 06 54
        E 25 b0 06 57
        E 25 b0 06 58
        E 25 b0 06 5a
        E 25 b0 06 5b
        E 25 b0 06 5d
        E 25 b0 06 5e
        E 25 b0 06 5f
        E 25 b0 06 60
        E 25 b0 06 61
        E 25 b0 06 62
        E 25 b0 06 63
        E 25 b0 06 63
        E 25 b0 06 64
        E 25 b0 06 64
        E 25 b0 06 65
        E 25 b0 06 65
        E 25 b0 06 65
        E 25 b0 06 65
        E 25 b0 06 65
        E 25 b0 06 64
        E 25 b0 06 64
        E 25 b0 06 63
        E 25 b0 06 63
        E 25 b0 06 62
        E 25 b0 06 61
        E 25 b0 06 5f
        E 25 b0 06 5f
        E 25 b0 06 5d
        E 25 b0 06 5c
        E 25 b0 06 5b
        E 25 b0 06 59
        E 25 b0 06 57
        E 25 b0 06 56
        E 25 b0 06 54
        E 25 b0 06 52
        E 25 b0 06 50
        E 25 b0 06 4e
        E 25 b0 06 4c
        E 25 b0 06 49
        E 25 b0 06 47
        E 25 b0 06 45
        E 25 b0 06 43
        E 25 b0 06 40
        E 25 b0 06 3e
        E 25 b0 06 3b
        E 25 b0 06 38
        E 25 b0 06 36
        E 25 b0 06 33
        E 25 b0 06 31
        E 25 b0 06 2f
        E 25 b0 06 2c
        E 25 b0 06 2a
        E 25 b0 06 27
        E 25 b0 06 24
        E 25 b0 06 22
        E 25 b0 06 1f
        E 25 b0 06 1e
        E 25 b0 06 1b
        E 25 b0 06 19
        E 25 b0 06 17
        E 25 b0 06 15
        E 25 b0 06 13
        E 25 b0 06 11
        E 25 b0 06 0f
        E 25 b0 06 0d
        E 25 b0 06 0b
        E 25 b0 06 0a
        E 25 b0 06 08
        E 25 b0 06 07
        E 25 b0 06 06
        E 25 b0 06 05
        E 25 b0 06 03
        E 25 b0 06 03
        E 25 b0 06 02
        E 25 b0 06 01
        E 25 b0 06 00
        E 25 b0 06 00
        E 25 b0 06 00
        E 25 b0 06 00
        E 25 b0 06 00
        E 25 b0 06 00
        E 25 b0 06 00
        E 25 b0 06 00
        E 25 b0 06 00
        E 25 b0 06 01
        E 25 b0 06 02
        E 25 b0 06 03
        E 25 b0 06 03
        E 25 b0 06 04
        E 25 b0 06 05
        E 25 b0 06 07
        E 25 b0 06 07
        E 25 b0 06 09
        E 25 b0 06 0b
        E 25 b0 06 0c
        E 25 b0 06 0e
        E 25 b0 06 10
        E 25 b0 06 12
        E 25 b0 06 14
        E 25 b0 06 16
        E 25 b0 06 18
        E 25 b0 06 1a
        E 25 b0 06 1c
        E 25 b0 06 1f
        E 25 b0 06 21
        E 25 b0 06 24
        E 25 b0 06 26
        E 25 b0 06 28
        E 25 b0 06 2b
        E 25 b0 06 2d
        E 25 b0 06 2f
        E 25 b0 06 33
        E 6 b0 06 06
        E 6 b0 06 06
        E 6 b0 06 07
        E 6 b0 06 07
        E 6 b0 06 07
        E 6 b0 06 07
        E 6 b0 06 08
        E 6 b0 06 08
        E 6 b0 06 08
        E 6 b0 06 09
        E 6 b0 06 09
        E 6 b0 06 09
        E 6 b0 06 09
        E 6 b0 06 0a
        E 6 b0 06 0a
        E 6 b0 06 0a
        E 6 b0 06 0a
        E 6 b0 06 0b
        E 6 b0 06 0b
        E 6 b0 06 0b
        E 6 b0 06 0b
        E 6 b0 06 0b
        E 6 b0 06 0c
        E 6 b0 06 0c
        E 6 b0 06 0c
        E 6 b0 06 0c
        E 6 b0 06 0c
        E 6 b0 06 0c
        E 6 b0 06 0c
        E 6 b0 06 0c
        E 6 b0 06 0c
        E 6 b0 06 0c
        E 6 b0 06 0c
        E 6 b0 06 0c
        E 6 b0 06 0c
        E 6 b0 06 0c
        E 6 b0 06 0c
        E 6 b0 06 0c
        E 6 b0 06 0c
        E 6 b0 06 0c
        E 6 b0 06 0c
        E 6 b0 06 0c
        E 6 b0 06 0b
        E 6 b0 06 0b
        E 6 b0 06 0b
        E 6 b0 06 0b
        E 6 b0 06 0b
        E 6 b0 06 0b
        E 6 b0 06 0a
        E 6 b0 06 0a
        E 6 b0 06 0a
        E 6 b0 06 0a
        E 6 b0 06 09
        E 6 b0 06 09
        E 6 b0 06 09
        E 6 b0 06 08
        E 6 b0 06 08
        E 6 b0 06 08
        E 6 b0 06 08
        E 6 b0 06 07
        E 6 b0 06 07
        E 6 b0 06 07
        E 6 b0 06 06
        E 6 b0 06 06
        E 6 b0 06 06
        E 6 b0 06 05
        E 6 b0 06 05
        E 6 b0 06 05
        E 6 b0 06 04
        E 6 b0 06 04
        E 6 b0 06 04
        E 6 b0 06 04
        E 6 b0 06 03
        E 6 b0 06 03
        E 6 b0 06 03
        E 6 b0 06 02
        E 6 b0 06 02
        E 6 b0 06 02
        E 6 b0 06 02
        E 6 b0 06 01
        E 6 b0 06 01
        E 6 b0 06 01
        E 6 b0 06 01
        E 6 b0 06 01
        E 6 b0 06 01
        E 6 b0 06 00
        E 6 b0 06 00
        E 6 b0 06 00
        E 6 b0 06 00
        E 6 b0 06 00
        E 6 b0 06 00
        E 6 b0 06 00
        E 6 b0 06 00
        E 6 b0 06 00
        E 6 b0 06 00
        E 6 b0 06 00
        E 6 b0 06 00
        E 6 b0 06 00
        E 6 b0 06 00
        E 6 b0 06 00
        E 6 b0 06 00
        E 6 b0 06 00
        E 6 b0 06 00
        E 6 b0 06 00
        E 6 b0 06 00
        E 6 b0 06 00
        E 6 b0 06 00
        E 6 b0 06 01
        E 6 b0 06 01
        E 6 b0 06 01
        E 6 b0 06 01
        E 6 b0 06 01
        E 6 b0 06 02
        E 6 b0 06 02
        E 6 b0 06 02
        E 6 b0 06 02
        E 6 b0 06 03
        E 6 b0 06 03
        E 6 b0 06 03
        E 6 b0 06 03
        E 6 b0 06 04
        E 6 b0 06 04
        E 6 b0 06 04
        E 6 b0 06 05
        E 6 b0 06 05
        E 6 b0 06 05
        E 6 b0 06 06
        E 6 b0 06 06
        E 44 b0 06 39
        E 44 b0 06 3c
        E 44 b0 06 3f
        E 44 b0 06 41
        E 44 b0 06 44
        E 44 b0 06 47
        E 44 b0 06 49
        E 44 b0 06 4c
        E 44 b0 06 4f
        E 44 b0 06 51
        E 44 b0 06 54
        E 44 b0 06 56
        E 44 b0 06 59
        E 44 b0 06 5b
        E 44 b0 06 5d
        E 44 b0 06 5f
        E 44 b0 06 62
        E 44 b0 06 63
        E 44 b0 06 65
        E 44 b0 06 67
        E 44 b0 06 69
        E 44 b0 06 6a
        E 44 b0 06 6c
        E 44 b0 06 6c
        E 44 b0 06 6d
        E 44 b0 06 6e
        E 44 b0 06 6f
        E 44 b0 06 70
        E 44 b0 06 71
        E 44 b0 06 71
        E 44 b0 06 72
        E 44 b0 06 72
        E 44 b0 06 72
        E 44 b0 06 72
        E 44 b0 06 72
        E 44 b0 06 71
        E 44 b0 06 71
        E 44 b0 06 70
        E 44 b0 06 6f
        E 44 b0 06 6e
        E 44 b0 06 6d
        E 44 b0 06 6c
        E 44 b0 06 6b
        E 44 b0 06 69
        E 44 b0 06 68
        E 44 b0 06 66
        E 44 b0 06 64
        E 44 b0 06 63
        E 44 b0 06 61
        E 44 b0 06 5e
        E 44 b0 06 5c
        E 44 b0 06 5a
        E 44 b0 06 58
        E 44 b0 06 55
        E 44 b0 06 52
        E 44 b0 06 50
        E 44 b0 06 4e
        E 44 b0 06 4b
        E 44 b0 06 48
        E 44 b0 06 46
        E 44 b0 06 42
        E 44 b0 06 3f
        E 44 b0 06 3d
        E 44 b0 06 3a
        E 44 b0 06 37
        E 44 b0 06 35
        E 44 b0 06 32
        E 44 b0 06 2f
        E 44 b0 06 2c
        E 44 b0 06 29
        E 44 b0 06 26
        E 44 b0 06 24
        E 44 b0 06 22
        E 44 b0 06 1f
        E 44 b0 06 1c
        E 44 b0 06 1a
        E 44 b0 06 18
        E 44 b0 06 15
        E 44 b0 06 13
        E 44 b0 06 11
        E 44 b0 06 0f
        E 44 b0 06 0d
        E 44 b0 06 0b
        E 44 b0 06 09
        E 44 b0 06 09
        E 44 b0 06 07
        E 44 b0 06 06
        E 44 b0 06 04
        E 44 b0 06 03
        E 44 b0 06 02
        E 44 b0 06 01
        E 44 b0 06 00
        E 44 b0 06 00
        E 44 b0 06 00
        E 44 b0 06 00
        E 44 b0 06 00
        E 44 b0 06 00
        E 44 b0 06 00
        E 44 b0 06 00
        E 44 b0 06 00
        E 44 b0 06 01
        E 44 b0 06 02
        E 44 b0 06 03
        E 44 b0 06 04
        E 44 b0 06 05
        E 44 b0 06 06
        E 44 b0 06 08
        E 44 b0 06 09
        E 44 b0 06 0a
        E 44 b0 06 0c
        E 44 b0 06 0e
        E 44 b0 06 10
        E 44 b0 06 12
        E 44 b0 06 14
        E 44 b0 06 16
        E 44 b0 06 19
        E 44 b0 06 1b
        E 44 b0 06 1d
        E 44 b0 06 20
        E 44 b0 06 23
        E 44 b0 06 25
        E 44 b0 06 28
        E 44 b0 06 2b
        E 44 b0 06 2d
        E 44 b0 06 30
        E 44 b0 06 33
        E 44 b0 06 36
        E 44 b0 06 39
        E 19 b0 06 33
        E 19 b0 06 35
        E 19 b0 06 37
        E 19 b0 06 3a
        E 19 b0 06 3c
        E 19 b0 06 3f
        E 19 b0 06 41
        E 19 b0 06 44
        E 19 b0 06 46
        E 19 b0 06 48
        E 19 b0 06 4b
        E 19 b0 06 4c
        E 19 b0 06 4f
        E 19 b0 06 51
        E 19 b0 06 53
        E 19 b0 06 54
        E 19 b0 06 57
        E 19 b0 06 58
        E 19 b0 06 5a
        E 19 b0 06 5b
        E 19 b0 06 5d
        E 19 b0 06 5e
        E 19 b0 06 5f
        E 19 b0 06 60
        E 19 b0 06 61
        E 19 b0 06 62
        E 19 b0 06 63
        E 19 b0 06 63
        E 19 b0 06 64
        E 19 b0 06 64
        E 19 b0 06 65
        E 19 b0 06 65
        E 19 b0 06 65
        E 19 b0 06 65
        E 19 b0 06 65
        E 19 b0 06 64
        E 19 b0 06 64
        E 19 b0 06 63
        E 19 b0 06 63
        E 19 b0 06 62
        E 19 b0 06 61
        E 19 b0 06 5f
        E 19 b0 06 5f
        E 19 b0 06 5d
        E 19 b0 06 5c
        E 19 b0 06 5b
        E 19 b0 06 59
        E 19 b0 06 57
        E 19 b0 06 56
        E 19 b0 06 54
        E 19 b0 06 52
        E 19 b0 06 50
        E 19 b0 06 4e
        E 19 b0 06 4c
        E 19 b0 06 49
        E 19 b0 06 47
        E 19 b0 06 45
        E 19 b0 06 43
        E 19 b0 06 40
        E 19 b0 06 3e
        E 19 b0 06 3b
        E 19 b0 06 38
        E 19 b0 06 36
        E 19 b0 06 33
        E 19 b0 06 31
        E 19 b0 06 2f
        E 19 b0 06 2c
        E 19 b0 06 2a
        E 19 b0 06 27
        E 19 b0 06 24
        E 19 b0 06 22
        E 19 b0 06 1f
        E 19 b0 06 1e
        E 19 b0 06 1b
        E 19 b0 06 19
        E 19 b0 06 17
        E 19 b0 06 15
        E 19 b0 06 13
        E 19 b0 06 11
        E 19 b0 06 0f
        E 19 b0 06 0d
        E 19 b0 06 0b
        E 19 b0 06 0a
        E 19 b0 06 08
        E 19 b0 06 07
        E 19 b0 06 06
        E 19 b0 06 05
        E 19 b0 06 03
        E 19 b0 06 03
        E 19 b0 06 02
        E 19 b0 06 01
        E 19 b0 06 00
        E 19 b0 06 00
        E 19 b0 06 00
        E 19 b0 06 00
        E 19 b0 06 00
        E 19 b0 06 00
        E 19 b0 06 00
        E 19 b0 06 00
        E 19 b0 06 00
        E 19 b0 06 01
        E 19 b0 06 02
        E 19 b0 06 03
        E 19 b0 06 03
        E 19 b0 06 04
        E 19 b0 06 05
        E 19 b0 06 07
        E 19 b0 06 07
        E 19 b0 06 09
        E 19 b0 06 0b
        E 19 b0 06 0c
        E 19 b0 06 0e
        E 19 b0 06 10
        E 19 b0 06 12
        E 19 b0 06 14
        E 19 b0 06 16
        E 19 b0 06 18
        E 19 b0 06 1a
        E 19 b0 06 1c
        E 19 b0 06 1f
        E 19 b0 06 21
        E 19 b0 06 24
        E 19 b0 06 26
        E 19 b0 06 28
        E 19 b0 06 2b
        E 19 b0 06 2d
        E 19 b0 06 2f
        E 19 b0 06 33
        E 38 b0 06 39
        E 38 b0 06 3c
        E 38 b0 06 3f
        E 38 b0 06 41
        E 38 b0 06 44
        E 38 b0 06 47
        E 38 b0 06 49
        E 38 b0 06 4c
        E 38 b0 06 4f
        E 38 b0 06 51
        E 38 b0 06 54
        E 38 b0 06 56
        E 38 b0 06 59
        E 38 b0 06 5b
        E 38 b0 06 5d
        E 38 b0 06 5f
        E 38 b0 06 62
        E 38 b0 06 63
        E 38 b0 06 65
        E 38 b0 06 67
        E 38 b0 06 69
        E 38 b0 06 6a
        E 38 b0 06 6c
        E 38 b0 06 6c
        E 38 b0 06 6d
        E 38 b0 06 6e
        E 38 b0 06 6f
        E 38 b0 06 70
        E 38 b0 06 71
        E 38 b0 06 71
        E 38 b0 06 72
        E 38 b0 06 72
        E 38 b0 06 72
        E 38 b0 06 72
        E 38 b0 06 72
        E 38 b0 06 71
        E 38 b0 06 71
        E 38 b0 06 70
        E 38 b0 06 6f
        E 38 b0 06 6e
        E 38 b0 06 6d
        E 38 b0 06 6c
        E 38 b0 06 6b
        E 38 b0 06 69
        E 38 b0 06 68
        E 38 b0 06 66
        E 38 b0 06 64
        E 38 b0 06 63
        E 38 b0 06 61
        E 38 b0 06 5e
        E 38 b0 06 5c
        E 38 b0 06 5a
        E 38 b0 06 58
        E 38 b0 06 55
        E 38 b0 06 52
        E 38 b0 06 50
        E 38 b0 06 4e
        E 38 b0 06 4b
        E 38 b0 06 48
        E 38 b0 06 46
        E 38 b0 06 42
        E 38 b0 06 3f
        E 38 b0 06 3d
        E 38 b0 06 3a
        E 38 b0 06 37
        E 38 b0 06 35
        E 38 b0 06 32
        E 38 b0 06 2f
        E 38 b0 06 2c
        E 38 b0 06 29
        E 38 b0 06 26
        E 38 b0 06 24
        E 38 b0 06 22
        E 38 b0 06 1f
        E 38 b0 06 1c
        E 38 b0 06 1a
        E 38 b0 06 18
        E 38 b0 06 15
        E 38 b0 06 13
        E 38 b0 06 11
        E 38 b0 06 0f
        E 38 b0 06 0d
        E 38 b0 06 0b
        E 38 b0 06 09
        E 38 b0 06 09
        E 38 b0 06 07
        E 38 b0 06 06
        E 38 b0 06 04
        E 38 b0 06 03
        E 38 b0 06 02
        E 38 b0 06 01
        E 38 b0 06 00
        E 38 b0 06 00
        E 38 b0 06 00
        E 38 b0 06 00
        E 38 b0 06 00
        E 38 b0 06 00
        E 38 b0 06 00
        E 38 b0 06 00
        E 38 b0 06 00
        E 38 b0 06 01
        E 38 b0 06 02
        E 38 b0 06 03
        E 38 b0 06 04
        E 38 b0 06 05
        E 38 b0 06 06
        E 38 b0 06 08
        E 38 b0 06 09
        E 38 b0 06 0a
        E 38 b0 06 0c
        E 38 b0 06 0e
        E 38 b0 06 10
        E 38 b0 06 12
        E 38 b0 06 14
        E 38 b0 06 16
        E 38 b0 06 19
        E 38 b0 06 1b
        E 38 b0 06 1d
        E 38 b0 06 20
        E 38 b0 06 23
        E 38 b0 06 25
        E 38 b0 06 28
        E 38 b0 06 2b
        E 38 b0 06 2d
        E 38 b0 06 30
        E 38 b0 06 33
        E 38 b0 06 36
        E 38 b0 06 39
        E 8 b0 06 0c
        E 8 b0 06 0c
        E 8 b0 06 0c
        E 8 b0 06 0c
        E 8 b0 06 0c
        E 8 b0 06 0c
        E 8 b0 06 0c
        E 8 b0 06 0c
        E 8 b0 06 0c
        E 8 b0 06 0c
        E 8 b0 06 0c
        E 8 b0 06 0c
        E 8 b0 06 0c
        E 8 b0 06 0c
        E 8 b0 06 0c
        E 8 b0 06 0c
        E 8 b0 06 0c
        E 8 b0 06 0c
        E 8 b0 06 0c
        E 8 b0 06 0c
        E 8 b0 06 0c
        E 8 b0 06 0c
        E 8 b0 06 0c
        E 8 b0 06 0c
        E 8 b0 06 0c
        E 8 b0 06 0c
        E 8 b0 06 0c
        E 8 b0 06 0c
        E 8 b0 06 0c
        E 8 b0 06 0c
        E 8 b0 06 0c
        E 8 b0 06 0c
        E 8 b0 06 0c
        E 8 b0 06 0c
        E 8 b0 06 0c
        E 8 b0 06 0c
        E 8 b0 06 0c
        E 8 b0 06 0c
        E 8 b0 06 0c
        E 8 b0 06 0c
        E 8 b0 06 0c
        E 8 b0 06 0c
        E 8 b0 06 0c
        E 8 b0 06 0c
        E 8 b0 06 0c
        E 8 b0 06 0c
        E 8 b0 06 0c
        E 8 b0 06 0c
        E 8 b0 06 0c
        E 8 b0 06 0c
        E 8 b0 06 0c
        E 8 b0 06 0c
        E 8 b0 06 0c
        E 8 b0 06 0c
        E 8 b0 06 0c
        E 8 b0 06 0c
        E 8 b0 06 0c
        E 8 b0 06 0c
        E 8 b0 06 0c
        E 8 b0 06 0c
        E 8 b0 06 0c
        E 8 b0 06 0c
        E 8 b0 06 0c
        E 8 b0 06 00
        E 8 b0 06 00
        E 8 b0 06 00
        E 8 b0 06 00
        E 8 b0 06 00
        E 8 b0 06 00
        E 8 b0 06 00
        E 8 b0 06 00
        E 8 b0 06 00
        E 8 b0 06 00
        E 8 b0 06 00
        E 8 b0 06 00
        E 8 b0 06 00
        E 8 b0 06 00
        E 8 b0 06 00
        E 8 b0 06 00
        E 8 b0 06 00
        E 8 b0 06 00
        E 8 b0 06 00
        E 8 b0 06 00
        E 8 b0 06 00
        E 8 b0 06 00
        E 8 b0 06 00
        E 8 b0 06 00
        E 8 b0 06 00
        E 8 b0 06 00
        E 8 b0 06 00
        E 8 b0 06 00
        E 8 b0 06 00
        E 8 b0 06 00
        E 8 b0 06 00
        E 8 b0 06 00
        E 8 b0 06 00
        E 8 b0 06 00
        E 8 b0 06 00
        E 8 b0 06 00
        E 8 b0 06 00
        E 8 b0 06 00
        E 8 b0 06 00
        E 8 b0 06 00
        E 8 b0 06 00
        E 8 b0 06 00
        E 8 b0 06 00
        E 8 b0 06 00
        E 8 b0 06 00
        E 8 b0 06 00
        E 8 b0 06 00
        E 8 b0 06 00
        E 8 b0 06 00
        E 8 b0 06 00
        E 8 b0 06 00
        E 8 b0 06 00
        E 8 b0 06 00
        E 8 b0 06 00
        E 8 b0 06 00
        E 8 b0 06 00
        E 8 b0 06 00
        E 8 b0 06 00
        E 8 b0 06 00
        E 8 b0 06 00
        E 8 b0 06 00
        E 8 b0 06 00
        E 8 b0 06 00
        E 8 b0 06 00
        E 56 b0 06 72
        E 56 b0 06 72
        E 56 b0 06 72
        E 56 b0 06 72
        E 56 b0 06 72
        E 56 b0 06 72
        E 56 b0 06 72
        E 56 b0 06 72
        E 56 b0 06 72
        E 56 b0 06 72
        E 56 b0 06 72
        E 56 b0 06 72
        E 56 b0 06 72
        E 56 b0 06 72
        E 56 b0 06 72
        E 56 b0 06 72
        E 56 b0 06 72
        E 56 b0 06 72
        E 56 b0 06 72
        E 56 b0 06 72
        E 56 b0 06 72
        E 56 b0 06 72
        E 56 b0 06 72
        E 56 b0 06 72
        E 56 b0 06 72
        E 56 b0 06 72
        E 56 b0 06 72
        E 56 b0 06 72
        E 56 b0 06 72
        E 56 b0 06 72
        E 56 b0 06 72
        E 56 b0 06 72
        E 56 b0 06 72
        E 56 b0 06 72
        E 56 b0 06 72
        E 56 b0 06 72
        E 56 b0 06 72
        E 56 b0 06 72
        E 56 b0 06 72
        E 56 b0 06 72
        E 56 b0 06 72
        E 56 b0 06 72
        E 56 b0 06 72
        E 56 b0 06 72
        E 56 b0 06 72
        E 56 b0 06 72
        E 56 b0 06 72
        E 56 b0 06 72
        E 56 b0 06 72
        E 56 b0 06 72
        E 56 b0 06 72
        E 56 b0 06 72
        E 56 b0 06 72
        E 56 b0 06 72
        E 56 b0 06 72
        E 56 b0 06 72
        E 56 b0 06 72
        E 56 b0 06 72
        E 56 b0 06 72
        E 56 b0 06 72
        E 56 b0 06 72
        E 56 b0 06 72
        E 56 b0 06 72
        E 56 b0 06 00
        E 56 b0 06 00
        E 56 b0 06 00
        E 56 b0 06 00
        E 56 b0 06 00
        E 56 b0 06 00
        E 56 b0 06 00
        E 56 b0 06 00
        E 56 b0 06 00
        E 56 b0 06 00
        E 56 b0 06 00
        E 56 b0 06 00
        E 56 b0 06 00
        E 56 b0 06 00
        E 56 b0 06 00
        E 56 b0 06 00
        E 56 b0 06 00
        E 56 b0 06 00
        E 56 b0 06 00
        E 56 b0 06 00
        E 56 b0 06 00
        E 56 b0 06 00
        E 56 b0 06 00
        E 56 b0 06 00
        E 56 b0 06 00
        E 56 b0 06 00
        E 56 b0 06 00
        E 56 b0 06 00
        E 56 b0 06 00
        E 56 b0 06 00
        E 56 b0 06 00
        E 56 b0 06 00
        E 56 b0 06 00
        E 56 b0 06 00
        E 56 b0 06 00
        E 56 b0 06 00
        E 56 b0 06 00
        E 56 b0 06 00
        E 56 b0 06 00
        E 56 b0 06 00
        E 56 b0 06 00
        E 56 b0 06 00
        E 56 b0 06 00
        E 56 b0 06 00
        E 56 b0 06 00
        E 56 b0 06 00
        E 56 b0 06 00
        E 56 b0 06 00
        E 56 b0 06 00
        E 56 b0 06 00
        E 56 b0 06 00
        E 56 b0 06 00
        E 56 b0 06 00
        E 56 b0 06 00
        E 56 b0 06 00
        E 56 b0 06 00
        E 56 b0 06 00
        E 56 b0 06 00
        E 56 b0 06 00
        E 56 b0 06 00
        E 56 b0 06 00
        E 56 b0 06 00
        E 56 b0 06 00
        E 56 b0 06 00
        E 24 b0 06 65
        E 24 b0 06 65
        E 24 b0 06 65
        E 24 b0 06 65
        E 24 b0 06 65
        E 24 b0 06 65
        E 24 b0 06 65
        E 24 b0 06 65
        E 24 b0 06 65
        E 24 b0 06 65
        E 24 b0 06 65
        E 24 b0 06 65
        E 24 b0 06 65
        E 24 b0 06 65
        E 24 b0 06 65
        E 24 b0 06 65
        E 24 b0 06 65
        E 24 b0 06 65
        E 24 b0 06 65
        E 24 b0 06 65
        E 24 b0 06 65
        E 24 b0 06 65
        E 24 b0 06 65
        E 24 b0 06 65
        E 24 b0 06 65
        E 24 b0 06 65
        E 24 b0 06 65
        E 24 b0 06 65
        E 24 b0 06 65
        E 24 b0 06 65
        E 24 b0 06 65
        E 24 b0 06 65
        E 24 b0 06 65
        E 24 b0 06 65
        E 24 b0 06 65
        E 24 b0 06 65
        E 24 b0 06 65
        E 24 b0 06 65
        E 24 b0 06 65
        E 24 b0 06 65
        E 24 b0 06 65
        E 24 b0 06 65
        E 24 b0 06 65
        E 24 b0 06 65
        E 24 b0 06 65
        E 24 b0 06 65
        E 24 b0 06 65
        E 24 b0 06 65
        E 24 b0 06 65
        E 24 b0 06 65
        E 24 b0 06 65
        E 24 b0 06 65
        E 24 b0 06 65
        E 24 b0 06 65
        E 24 b0 06 65
        E 24 b0 06 65
        E 24 b0 06 65
        E 24 b0 06 65
        E 24 b0 06 65
        E 24 b0 06 65
        E 24 b0 06 65
        E 24 b0 06 65
        E 24 b0 06 65
        E 24 b0 06 00
        E 24 b0 06 00
        E 24 b0 06 00
        E 24 b0 06 00
        E 24 b0 06 00
        E 24 b0 06 00
        E 24 b0 06 00
        E 24 b0 06 00
        E 24 b0 06 00
        E 24 b0 06 00
        E 24 b0 06 00
        E 24 b0 06 00
        E 24 b0 06 00
        E 24 b0 06 00
        E 24 b0 06 00
        E 24 b0 06 00
        E 24 b0 06 00
        E 24 b0 06 00
        E 24 b0 06 00
        E 24 b0 06 00
        E 24 b0 06 00
        E 24 b0 06 00
        E 24 b0 06 00
        E 24 b0 06 00
        E 24 b0 06 00
        E 24 b0 06 00
        E 24 b0 06 00
        E 24 b0 06 00
        E 24 b0 06 00
        E 24 b0 06 00
        E 24 b0 06 00
        E 24 b0 06 00
        E 24 b0 06 00
        E 24 b0 06 00
        E 24 b0 06 00
        E 24 b0 06 00
        E 24 b0 06 00
        E 24 b0 06 00
        E 24 b0 06 00
        E 24 b0 06 00
        E 24 b0 06 00
        E 24 b0 06 00
        E 24 b0 06 00
        E 24 b0 06 00
        E 24 b0 06 00
        E 24 b0 06 00
        E 24 b0 06 00
        E 24 b0 06 00
        E 24 b0 06 00
        E 24 b0 06 00
        E 24 b0 06 00
        E 24 b0 06 00
        E 24 b0 06 00
        E 24 b0 06 00
        E 24 b0 06 00
        E 24 b0 06 00
        E 24 b0 06 00
        E 24 b0 06 00
        E 24 b0 06 00
        E 24 b0 06 00
        E 24 b0 06 00
        E 24 b0 06 00
        E 24 b0 06 00
        E 24 b0 06 00
        E 8 b0 7b 00
        CCINTERP 32
        CHASE_CC_TAKEOFFS 1
        GUID {A10A688A-1394-6845-9508-C0F258595745}
        IGNTEMPO 0 120 4 4
        SRCCOLOR 69
        VELLANE 6 601 0
        VELLANE -1 196 0
        CFGEDITVIEW 96071.683308 0.005089 61 12 0 -1 0 0 0 0.5
        KEYSNAP 0
        TRACKSEL 252
        EVTFILTER 0 -1 -1 -1 -1 0 0 0 0 -1 -1 -1 -1 0 -1 0 -1 -1
        CFGEDIT 1 1 0 1 0 0 1 1 1 1 1 0.125 0 0 1792 1095 0 0 0 0 0 0 0 0 0 0.5 0 0 1 64
      >
    >
  >
  <TRACK {1EFA0C12-901B-5A4F-B5A5-24361F1EBC48}
    NAME "cannabis-infused gummies"
    PEAKCOL 16576
    BEAT -1
    AUTOMODE 0
    VOLPAN 1 0 -1 -1 1
    MUTESOLO 0 0 0
    IPHASE 0
    PLAYOFFS 0 1
    ISBUS 0 0
    BUSCOMP 0 0 0 0 0
    SHOWINMIX 1 0.6667 0.5 1 0.5 0 -1 0
    FREEMODE 0
    SEL 0
    REC 0 0 1 0 0 0 0
    VU 2
    TRACKHEIGHT 0 0 0 0 -1 0
    INQ 0 0 0 0.5 100 0 0 100
    NCHAN 2
    FX 1
    TRACKID {1EFA0C12-901B-5A4F-B5A5-24361F1EBC48}
    PERF 0
    MIDIOUT -1
    MAINSEND 1 0
    <ITEM
      POSITION 0
      SNAPOFFS 0
      LENGTH 1845.303416
      LOOP 1
      ALLTAKES 0
      FADEIN 1 0 0 1 0 0
      FADEOUT 1 0 0 1 0 0
      MUTE 0 0
      SEL 0
      IGUID {27E9FBEB-5112-EC4D-B2C3-5DF02C778BDF}
      IID 14
      NAME "cannabis-infused gummies.mid"
      VOLPAN 1 0 1 -1
      SOFFS 0 0
      PLAYRATE 1 1 0 -1 0 0.0025
      CHANMODE 0
      GUID {5F95623C-2DF1-D34D-9B40-19AEA22052B7}
      <SOURCE MIDI
        HASDATA 1 128 QN
        CCINTERP 32
        POOLEDEVTS {004CA3D2-EF4B-064D-AE1A-6C1C89EAB245}
        E 61 b1 03 06
        E 61 b1 03 06
        E 61 b1 03 07
        E 61 b1 03 07
        E 61 b1 03 07
        E 61 b1 03 07
        E 61 b1 03 08
        E 61 b1 03 08
        E 61 b1 03 08
        E 61 b1 03 09
        E 61 b1 03 09
        E 61 b1 03 09
        E 61 b1 03 09
        E 61 b1 03 0a
        E 61 b1 03 0a
        E 61 b1 03 0a
        E 61 b1 03 0a
        E 61 b1 03 0b
        E 61 b1 03 0b
        E 61 b1 03 0b
        E 61 b1 03 0b
        E 61 b1 03 0b
        E 61 b1 03 0c
        E 61 b1 03 0c
        E 61 b1 03 0c
        E 61 b1 03 0c
        E 61 b1 03 0c
        E 61 b1 03 0c
        E 61 b1 03 0c
        E 61 b1 03 0c
        E 61 b1 03 0c
        E 61 b1 03 0c
        E 61 b1 03 0c
        E 61 b1 03 0c
        E 61 b1 03 0c
        E 61 b1 03 0c
        E 61 b1 03 0c
        E 61 b1 03 0c
        E 61 b1 03 0c
        E 61 b1 03 0c
        E 61 b1 03 0c
        E 61 b1 03 0c
        E 61 b1 03 0b
        E 61 b1 03 0b
        E 61 b1 03 0b
        E 61 b1 03 0b
        E 61 b1 03 0b
        E 61 b1 03 0b
        E 61 b1 03 0a
        E 61 b1 03 0a
        E 61 b1 03 0a
        E 61 b1 03 0a
        E 61 b1 03 09
        E 61 b1 03 09
        E 61 b1 03 09
        E 61 b1 03 08
        E 61 b1 03 08
        E 61 b1 03 08
        E 61 b1 03 08
        E 61 b1 03 07
        E 61 b1 03 07
        E 61 b1 03 07
        E 61 b1 03 06
        E 61 b1 03 06
        E 61 b1 03 06
        E 61 b1 03 05
        E 61 b1 03 05
        E 61 b1 03 05
        E 61 b1 03 04
        E 61 b1 03 04
        E 61 b1 03 04
        E 61 b1 03 04
        E 61 b1 03 03
        E 61 b1 03 03
        E 61 b1 03 03
        E 61 b1 03 02
        E 61 b1 03 02
        E 61 b1 03 02
        E 61 b1 03 02
        E 61 b1 03 01
        E 61 b1 03 01
        E 61 b1 03 01
        E 61 b1 03 01
        E 61 b1 03 01
        E 61 b1 03 01
        E 61 b1 03 00
        E 61 b1 03 00
        E 61 b1 03 00
        E 61 b1 03 00
        E 61 b1 03 00
        E 61 b1 03 00
        E 61 b1 03 00
        E 61 b1 03 00
        E 61 b1 03 00
        E 61 b1 03 00
        E 61 b1 03 00
        E 61 b1 03 00
        E 61 b1 03 00
        E 61 b1 03 00
        E 61 b1 03 00
        E 61 b1 03 00
        E 61 b1 03 00
        E 61 b1 03 00
        E 61 b1 03 00
        E 61 b1 03 00
        E 61 b1 03 00
        E 61 b1 03 00
        E 61 b1 03 01
        E 61 b1 03 01
        E 61 b1 03 01
        E 61 b1 03 01
        E 61 b1 03 01
        E 61 b1 03 02
        E 61 b1 03 02
        E 61 b1 03 02
        E 61 b1 03 02
        E 61 b1 03 03
        E 61 b1 03 03
        E 61 b1 03 03
        E 61 b1 03 03
        E 61 b1 03 04
        E 61 b1 03 04
        E 61 b1 03 04
        E 61 b1 03 05
        E 61 b1 03 05
        E 61 b1 03 05
        E 61 b1 03 06
        E 61 b1 03 06
        E 54 b1 03 2c
        E 54 b1 03 2e
        E 54 b1 03 31
        E 54 b1 03 33
        E 54 b1 03 35
        E 54 b1 03 37
        E 54 b1 03 39
        E 54 b1 03 3b
        E 54 b1 03 3d
        E 54 b1 03 3f
        E 54 b1 03 41
        E 54 b1 03 43
        E 54 b1 03 45
        E 54 b1 03 47
        E 54 b1 03 48
        E 54 b1 03 4a
        E 54 b1 03 4c
        E 54 b1 03 4d
        E 54 b1 03 4f
        E 54 b1 03 50
        E 54 b1 03 51
        E 54 b1 03 52
        E 54 b1 03 54
        E 54 b1 03 54
        E 54 b1 03 55
        E 54 b1 03 56
        E 54 b1 03 56
        E 54 b1 03 57
        E 54 b1 03 58
        E 54 b1 03 58
        E 54 b1 03 58
        E 54 b1 03 58
        E 54 b1 03 58
        E 54 b1 03 58
        E 54 b1 03 58
        E 54 b1 03 58
        E 54 b1 03 58
        E 54 b1 03 57
        E 54 b1 03 56
        E 54 b1 03 56
        E 54 b1 03 55
        E 54 b1 03 54
        E 54 b1 03 53
        E 54 b1 03 51
        E 54 b1 03 51
        E 54 b1 03 4f
        E 54 b1 03 4e
        E 54 b1 03 4d
        E 54 b1 03 4b
        E 54 b1 03 49
        E 54 b1 03 48
        E 54 b1 03 46
        E 54 b1 03 44
        E 54 b1 03 42
        E 54 b1 03 40
        E 54 b1 03 3e
        E 54 b1 03 3c
        E 54 b1 03 3a
        E 54 b1 03 38
        E 54 b1 03 36
        E 54 b1 03 33
        E 54 b1 03 31
        E 54 b1 03 2f
        E 54 b1 03 2d
        E 54 b1 03 2b
        E 54 b1 03 29
        E 54 b1 03 27
        E 54 b1 03 25
        E 54 b1 03 22
        E 54 b1 03 20
        E 54 b1 03 1e
        E 54 b1 03 1c
        E 54 b1 03 1a
        E 54 b1 03 18
        E 54 b1 03 16
        E 54 b1 03 14
        E 54 b1 03 12
        E 54 b1 03 10
        E 54 b1 03 0f
        E 54 b1 03 0d
        E 54 b1 03 0b
        E 54 b1 03 0a
        E 54 b1 03 09
        E 54 b1 03 07
        E 54 b1 03 07
        E 54 b1 03 05
        E 54 b1 03 04
        E 54 b1 03 03
        E 54 b1 03 02
        E 54 b1 03 02
        E 54 b1 03 01
        E 54 b1 03 00
        E 54 b1 03 00
        E 54 b1 03 00
        E 54 b1 03 00
        E 54 b1 03 00
        E 54 b1 03 00
        E 54 b1 03 00
        E 54 b1 03 00
        E 54 b1 03 00
        E 54 b1 03 01
        E 54 b1 03 02
        E 54 b1 03 02
        E 54 b1 03 03
        E 54 b1 03 04
        E 54 b1 03 04
        E 54 b1 03 06
        E 54 b1 03 07
        E 54 b1 03 08
        E 54 b1 03 09
        E 54 b1 03 0b
        E 54 b1 03 0c
        E 54 b1 03 0e
        E 54 b1 03 10
        E 54 b1 03 11
        E 54 b1 03 13
        E 54 b1 03 15
        E 54 b1 03 17
        E 54 b1 03 19
        E 54 b1 03 1b
        E 54 b1 03 1d
        E 54 b1 03 1f
        E 54 b1 03 21
        E 54 b1 03 23
        E 54 b1 03 25
        E 54 b1 03 27
        E 54 b1 03 2a
        E 54 b1 03 2c
        E 61 b1 03 13
        E 61 b1 03 14
        E 61 b1 03 15
        E 61 b1 03 15
        E 61 b1 03 16
        E 61 b1 03 17
        E 61 b1 03 18
        E 61 b1 03 19
        E 61 b1 03 1a
        E 61 b1 03 1b
        E 61 b1 03 1c
        E 61 b1 03 1c
        E 61 b1 03 1d
        E 61 b1 03 1e
        E 61 b1 03 1f
        E 61 b1 03 1f
        E 61 b1 03 20
        E 61 b1 03 21
        E 61 b1 03 21
        E 61 b1 03 22
        E 61 b1 03 23
        E 61 b1 03 23
        E 61 b1 03 24
        E 61 b1 03 24
        E 61 b1 03 24
        E 61 b1 03 24
        E 61 b1 03 25
        E 61 b1 03 25
        E 61 b1 03 25
        E 61 b1 03 25
        E 61 b1 03 26
        E 61 b1 03 26
        E 61 b1 03 26
        E 61 b1 03 26
        E 61 b1 03 26
        E 61 b1 03 25
        E 61 b1 03 25
        E 61 b1 03 25
        E 61 b1 03 25
        E 61 b1 03 24
        E 61 b1 03 24
        E 61 b1 03 24
        E 61 b1 03 23
        E 61 b1 03 23
        E 61 b1 03 22
        E 61 b1 03 22
        E 61 b1 03 21
        E 61 b1 03 21
        E 61 b1 03 20
        E 61 b1 03 1f
        E 61 b1 03 1e
        E 61 b1 03 1e
        E 61 b1 03 1d
        E 61 b1 03 1c
        E 61 b1 03 1b
        E 61 b1 03 1a
        E 61 b1 03 1a
        E 61 b1 03 19
        E 61 b1 03 18
        E 61 b1 03 17
        E 61 b1 03 16
        E 61 b1 03 15
        E 61 b1 03 14
        E 61 b1 03 13
        E 61 b1 03 12
        E 61 b1 03 11
        E 61 b1 03 10
        E 61 b1 03 0f
        E 61 b1 03 0e
        E 61 b1 03 0d
        E 61 b1 03 0c
        E 61 b1 03 0c
        E 61 b1 03 0b
        E 61 b1 03 0a
        E 61 b1 03 09
        E 61 b1 03 08
        E 61 b1 03 08
        E 61 b1 03 07
        E 61 b1 03 06
        E 61 b1 03 05
        E 61 b1 03 05
        E 61 b1 03 04
        E 61 b1 03 03
        E 61 b1 03 03
        E 61 b1 03 03
        E 61 b1 03 02
        E 61 b1 03 02
        E 61 b1 03 01
        E 61 b1 03 01
        E 61 b1 03 00
        E 61 b1 03 00
        E 61 b1 03 00
        E 61 b1 03 00
        E 61 b1 03 00
        E 61 b1 03 00
        E 61 b1 03 00
        E 61 b1 03 00
        E 61 b1 03 00
        E 61 b1 03 00
        E 61 b1 03 00
        E 61 b1 03 00
        E 61 b1 03 00
        E 61 b1 03 01
        E 61 b1 03 01
        E 61 b1 03 01
        E 61 b1 03 02
        E 61 b1 03 02
        E 61 b1 03 03
        E 61 b1 03 03
        E 61 b1 03 04
        E 61 b1 03 04
        E 61 b1 03 05
        E 61 b1 03 06
        E 61 b1 03 06
        E 61 b1 03 07
        E 61 b1 03 08
        E 61 b1 03 09
        E 61 b1 03 09
        E 61 b1 03 0a
        E 61 b1 03 0b
        E 61 b1 03 0c
        E 61 b1 03 0d
        E 61 b1 03 0e
        E 61 b1 03 0f
        E 61 b1 03 10
        E 61 b1 03 11
        E 61 b1 03 12
        E 61 b1 03 13
        E 20 b1 03 26
        E 20 b1 03 28
        E 20 b1 03 2a
        E 20 b1 03 2b
        E 20 b1 03 2d
        E 20 b1 03 2f
        E 20 b1 03 31
        E 20 b1 03 33
        E 20 b1 03 34
        E 20 b1 03 36
        E 20 b1 03 38
        E 20 b1 03 39
        E 20 b1 03 3b
        E 20 b1 03 3d
        E 20 b1 03 3e
        E 20 b1 03 3f
        E 20 b1 03 41
        E 20 b1 03 42
        E 20 b1 03 43
        E 20 b1 03 45
        E 20 b1 03 46
        E 20 b1 03 46
        E 20 b1 03 48
        E 20 b1 03 48
        E 20 b1 03 49
        E 20 b1 03 49
        E 20 b1 03 4a
        E 20 b1 03 4b
        E 20 b1 03 4b
        E 20 b1 03 4b
        E 20 b1 03 4c
        E 20 b1 03 4c
        E 20 b1 03 4c
        E 20 b1 03 4c
        E 20 b1 03 4c
        E 20 b1 03 4b
        E 20 b1 03 4b
        E 20 b1 03 4b
        E 20 b1 03 4a
        E 20 b1 03 49
        E 20 b1 03 49
        E 20 b1 03 48
        E 20 b1 03 47
        E 20 b1 03 46
        E 20 b1 03 45
        E 20 b1 03 44
        E 20 b1 03 43
        E 20 b1 03 42
        E 20 b1 03 40
        E 20 b1 03 3f
        E 20 b1 03 3d
        E 20 b1 03 3c
        E 20 b1 03 3a
        E 20 b1 03 39
        E 20 b1 03 37
        E 20 b1 03 35
        E 20 b1 03 34
        E 20 b1 03 32
        E 20 b1 03 30
        E 20 b1 03 2e
        E 20 b1 03 2c
        E 20 b1 03 2a
        E 20 b1 03 28
        E 20 b1 03 27
        E 20 b1 03 25
        E 20 b1 03 23
        E 20 b1 03 21
        E 20 b1 03 1f
        E 20 b1 03 1d
        E 20 b1 03 1b
        E 20 b1 03 19
        E 20 b1 03 18
        E 20 b1 03 16
        E 20 b1 03 15
        E 20 b1 03 13
        E 20 b1 03 11
        E 20 b1 03 10
        E 20 b1 03 0e
        E 20 b1 03 0d
        E 20 b1 03 0b
        E 20 b1 03 0a
        E 20 b1 03 09
        E 20 b1 03 07
        E 20 b1 03 06
        E 20 b1 03 06
        E 20 b1 03 04
        E 20 b1 03 04
        E 20 b1 03 03
        E 20 b1 03 02
        E 20 b1 03 01
        E 20 b1 03 01
        E 20 b1 03 00
        E 20 b1 03 00
        E 20 b1 03 00
        E 20 b1 03 00
        E 20 b1 03 00
        E 20 b1 03 00
        E 20 b1 03 00
        E 20 b1 03 00
        E 20 b1 03 00
        E 20 b1 03 01
        E 20 b1 03 01
        E 20 b1 03 02
        E 20 b1 03 03
        E 20 b1 03 03
        E 20 b1 03 04
        E 20 b1 03 05
        E 20 b1 03 06
        E 20 b1 03 07
        E 20 b1 03 08
        E 20 b1 03 09
        E 20 b1 03 0a
        E 20 b1 03 0c
        E 20 b1 03 0d
        E 20 b1 03 0f
        E 20 b1 03 10
        E 20 b1 03 12
        E 20 b1 03 13
        E 20 b1 03 15
        E 20 b1 03 17
        E 20 b1 03 19
        E 20 b1 03 1b
        E 20 b1 03 1c
        E 20 b1 03 1e
        E 20 b1 03 20
        E 20 b1 03 22
        E 20 b1 03 24
        E 20 b1 03 26
        E 54 b1 03 39
        E 54 b1 03 3c
        E 54 b1 03 3f
        E 54 b1 03 41
        E 54 b1 03 44
        E 54 b1 03 47
        E 54 b1 03 49
        E 54 b1 03 4c
        E 54 b1 03 4f
        E 54 b1 03 51
        E 54 b1 03 54
        E 54 b1 03 56
        E 54 b1 03 59
        E 54 b1 03 5b
        E 54 b1 03 5d
        E 54 b1 03 5f
        E 54 b1 03 62
        E 54 b1 03 63
        E 54 b1 03 65
        E 54 b1 03 67
        E 54 b1 03 69
        E 54 b1 03 6a
        E 54 b1 03 6c
        E 54 b1 03 6c
        E 54 b1 03 6d
        E 54 b1 03 6e
        E 54 b1 03 6f
        E 54 b1 03 70
        E 54 b1 03 71
        E 54 b1 03 71
        E 54 b1 03 72
        E 54 b1 03 72
        E 54 b1 03 72
        E 54 b1 03 72
        E 54 b1 03 72
        E 54 b1 03 71
        E 54 b1 03 71
        E 54 b1 03 70
        E 54 b1 03 6f
        E 54 b1 03 6e
        E 54 b1 03 6d
        E 54 b1 03 6c
        E 54 b1 03 6b
        E 54 b1 03 69
        E 54 b1 03 68
        E 54 b1 03 66
        E 54 b1 03 64
        E 54 b1 03 63
        E 54 b1 03 61
        E 54 b1 03 5e
        E 54 b1 03 5c
        E 54 b1 03 5a
        E 54 b1 03 58
        E 54 b1 03 55
        E 54 b1 03 52
        E 54 b1 03 50
        E 54 b1 03 4e
        E 54 b1 03 4b
        E 54 b1 03 48
        E 54 b1 03 46
        E 54 b1 03 42
        E 54 b1 03 3f
        E 54 b1 03 3d
        E 54 b1 03 3a
        E 54 b1 03 37
        E 54 b1 03 35
        E 54 b1 03 32
        E 54 b1 03 2f
        E 54 b1 03 2c
        E 54 b1 03 29
        E 54 b1 03 26
        E 54 b1 03 24
        E 54 b1 03 22
        E 54 b1 03 1f
        E 54 b1 03 1c
        E 54 b1 03 1a
        E 54 b1 03 18
        E 54 b1 03 15
        E 54 b1 03 13
        E 54 b1 03 11
        E 54 b1 03 0f
        E 54 b1 03 0d
        E 54 b1 03 0b
        E 54 b1 03 09
        E 54 b1 03 09
        E 54 b1 03 07
        E 54 b1 03 06
        E 54 b1 03 04
        E 54 b1 03 03
        E 54 b1 03 02
        E 54 b1 03 01
        E 54 b1 03 00
        E 54 b1 03 00
        E 54 b1 03 00
        E 54 b1 03 00
        E 54 b1 03 00
        E 54 b1 03 00
        E 54 b1 03 00
        E 54 b1 03 00
        E 54 b1 03 00
        E 54 b1 03 01
        E 54 b1 03 02
        E 54 b1 03 03
        E 54 b1 03 04
        E 54 b1 03 05
        E 54 b1 03 06
        E 54 b1 03 08
        E 54 b1 03 09
        E 54 b1 03 0a
        E 54 b1 03 0c
        E 54 b1 03 0e
        E 54 b1 03 10
        E 54 b1 03 12
        E 54 b1 03 14
        E 54 b1 03 16
        E 54 b1 03 19
        E 54 b1 03 1b
        E 54 b1 03 1d
        E 54 b1 03 20
        E 54 b1 03 23
        E 54 b1 03 25
        E 54 b1 03 28
        E 54 b1 03 2b
        E 54 b1 03 2d
        E 54 b1 03 30
        E 54 b1 03 33
        E 54 b1 03 36
        E 54 b1 03 39
        E 6 b1 03 19
        E 6 b1 03 1a
        E 6 b1 03 1c
        E 6 b1 03 1d
        E 6 b1 03 1e
        E 6 b1 03 1f
        E 6 b1 03 20
        E 6 b1 03 22
        E 6 b1 03 23
        E 6 b1 03 24
        E 6 b1 03 25
        E 6 b1 03 26
        E 6 b1 03 27
        E 6 b1 03 28
        E 6 b1 03 29
        E 6 b1 03 2a
        E 6 b1 03 2b
        E 6 b1 03 2c
        E 6 b1 03 2d
        E 6 b1 03 2e
        E 6 b1 03 2e
        E 6 b1 03 2f
        E 6 b1 03 30
        E 6 b1 03 30
        E 6 b1 03 30
        E 6 b1 03 31
        E 6 b1 03 31
        E 6 b1 03 32
        E 6 b1 03 32
        E 6 b1 03 32
        E 6 b1 03 32
        E 6 b1 03 32
        E 6 b1 03 32
        E 6 b1 03 32
        E 6 b1 03 32
        E 6 b1 03 32
        E 6 b1 03 32
        E 6 b1 03 32
        E 6 b1 03 31
        E 6 b1 03 31
        E 6 b1 03 30
        E 6 b1 03 30
        E 6 b1 03 2f
        E 6 b1 03 2e
        E 6 b1 03 2e
        E 6 b1 03 2d
        E 6 b1 03 2c
        E 6 b1 03 2c
        E 6 b1 03 2b
        E 6 b1 03 2a
        E 6 b1 03 29
        E 6 b1 03 28
        E 6 b1 03 27
        E 6 b1 03 26
        E 6 b1 03 24
        E 6 b1 03 23
        E 6 b1 03 22
        E 6 b1 03 21
        E 6 b1 03 20
        E 6 b1 03 1f
        E 6 b1 03 1d
        E 6 b1 03 1c
        E 6 b1 03 1b
        E 6 b1 03 1a
        E 6 b1 03 18
        E 6 b1 03 17
        E 6 b1 03 16
        E 6 b1 03 15
        E 6 b1 03 13
        E 6 b1 03 12
        E 6 b1 03 11
        E 6 b1 03 10
        E 6 b1 03 0f
        E 6 b1 03 0e
        E 6 b1 03 0c
        E 6 b1 03 0b
        E 6 b1 03 0a
        E 6 b1 03 09
        E 6 b1 03 08
        E 6 b1 03 07
        E 6 b1 03 06
        E 6 b1 03 06
        E 6 b1 03 05
        E 6 b1 03 04
        E 6 b1 03 04
        E 6 b1 03 03
        E 6 b1 03 02
        E 6 b1 03 02
        E 6 b1 03 01
        E 6 b1 03 01
        E 6 b1 03 00
        E 6 b1 03 00
        E 6 b1 03 00
        E 6 b1 03 00
        E 6 b1 03 00
        E 6 b1 03 00
        E 6 b1 03 00
        E 6 b1 03 00
        E 6 b1 03 00
        E 6 b1 03 00
        E 6 b1 03 00
        E 6 b1 03 01
        E 6 b1 03 01
        E 6 b1 03 02
        E 6 b1 03 02
        E 6 b1 03 02
        E 6 b1 03 03
        E 6 b1 03 04
        E 6 b1 03 04
        E 6 b1 03 05
        E 6 b1 03 06
        E 6 b1 03 07
        E 6 b1 03 08
        E 6 b1 03 09
        E 6 b1 03 0a
        E 6 b1 03 0b
        E 6 b1 03 0c
        E 6 b1 03 0d
        E 6 b1 03 0e
        E 6 b1 03 0f
        E 6 b1 03 10
        E 6 b1 03 12
        E 6 b1 03 13
        E 6 b1 03 14
        E 6 b1 03 15
        E 6 b1 03 16
        E 6 b1 03 18
        E 6 b1 03 19
        E 61 b1 03 06
        E 61 b1 03 06
        E 61 b1 03 07
        E 61 b1 03 07
        E 61 b1 03 07
        E 61 b1 03 07
        E 61 b1 03 08
        E 61 b1 03 08
        E 61 b1 03 08
        E 61 b1 03 09
        E 61 b1 03 09
        E 61 b1 03 09
        E 61 b1 03 09
        E 61 b1 03 0a
        E 61 b1 03 0a
        E 61 b1 03 0a
        E 61 b1 03 0a
        E 61 b1 03 0b
        E 61 b1 03 0b
        E 61 b1 03 0b
        E 61 b1 03 0b
        E 61 b1 03 0b
        E 61 b1 03 0c
        E 61 b1 03 0c
        E 61 b1 03 0c
        E 61 b1 03 0c
        E 61 b1 03 0c
        E 61 b1 03 0c
        E 61 b1 03 0c
        E 61 b1 03 0c
        E 61 b1 03 0c
        E 61 b1 03 0c
        E 61 b1 03 0c
        E 61 b1 03 0c
        E 61 b1 03 0c
        E 61 b1 03 0c
        E 61 b1 03 0c
        E 61 b1 03 0c
        E 61 b1 03 0c
        E 61 b1 03 0c
        E 61 b1 03 0c
        E 61 b1 03 0c
        E 61 b1 03 0b
        E 61 b1 03 0b
        E 61 b1 03 0b
        E 61 b1 03 0b
        E 61 b1 03 0b
        E 61 b1 03 0b
        E 61 b1 03 0a
        E 61 b1 03 0a
        E 61 b1 03 0a
        E 61 b1 03 0a
        E 61 b1 03 09
        E 61 b1 03 09
        E 61 b1 03 09
        E 61 b1 03 08
        E 61 b1 03 08
        E 61 b1 03 08
        E 61 b1 03 08
        E 61 b1 03 07
        E 61 b1 03 07
        E 61 b1 03 07
        E 61 b1 03 06
        E 61 b1 03 06
        E 61 b1 03 06
        E 61 b1 03 05
        E 61 b1 03 05
        E 61 b1 03 05
        E 61 b1 03 04
        E 61 b1 03 04
        E 61 b1 03 04
        E 61 b1 03 04
        E 61 b1 03 03
        E 61 b1 03 03
        E 61 b1 03 03
        E 61 b1 03 02
        E 61 b1 03 02
        E 61 b1 03 02
        E 61 b1 03 02
        E 61 b1 03 01
        E 61 b1 03 01
        E 61 b1 03 01
        E 61 b1 03 01
        E 61 b1 03 01
        E 61 b1 03 01
        E 61 b1 03 00
        E 61 b1 03 00
        E 61 b1 03 00
        E 61 b1 03 00
        E 61 b1 03 00
        E 61 b1 03 00
        E 61 b1 03 00
        E 61 b1 03 00
        E 61 b1 03 00
        E 61 b1 03 00
        E 61 b1 03 00
        E 61 b1 03 00
        E 61 b1 03 00
        E 61 b1 03 00
        E 61 b1 03 00
        E 61 b1 03 00
        E 61 b1 03 00
        E 61 b1 03 00
        E 61 b1 03 00
        E 61 b1 03 00
        E 61 b1 03 00
        E 61 b1 03 00
        E 61 b1 03 01
        E 61 b1 03 01
        E 61 b1 03 01
        E 61 b1 03 01
        E 61 b1 03 01
        E 61 b1 03 02
        E 61 b1 03 02
        E 61 b1 03 02
        E 61 b1 03 02
        E 61 b1 03 03
        E 61 b1 03 03
        E 61 b1 03 03
        E 61 b1 03 03
        E 61 b1 03 04
        E 61 b1 03 04
        E 61 b1 03 04
        E 61 b1 03 05
        E 61 b1 03 05
        E 61 b1 03 05
        E 61 b1 03 06
        E 61 b1 03 06
        E 54 b1 03 2c
        E 54 b1 03 2e
        E 54 b1 03 31
        E 54 b1 03 33
        E 54 b1 03 35
        E 54 b1 03 37
        E 54 b1 03 39
        E 54 b1 03 3b
        E 54 b1 03 3d
        E 54 b1 03 3f
        E 54 b1 03 41
        E 54 b1 03 43
        E 54 b1 03 45
        E 54 b1 03 47
        E 54 b1 03 48
        E 54 b1 03 4a
        E 54 b1 03 4c
        E 54 b1 03 4d
        E 54 b1 03 4f
        E 54 b1 03 50
        E 54 b1 03 51
        E 54 b1 03 52
        E 54 b1 03 54
        E 54 b1 03 54
        E 54 b1 03 55
        E 54 b1 03 56
        E 54 b1 03 56
        E 54 b1 03 57
        E 54 b1 03 58
        E 54 b1 03 58
        E 54 b1 03 58
        E 54 b1 03 58
        E 54 b1 03 58
        E 54 b1 03 58
        E 54 b1 03 58
        E 54 b1 03 58
        E 54 b1 03 58
        E 54 b1 03 57
        E 54 b1 03 56
        E 54 b1 03 56
        E 54 b1 03 55
        E 54 b1 03 54
        E 54 b1 03 53
        E 54 b1 03 51
        E 54 b1 03 51
        E 54 b1 03 4f
        E 54 b1 03 4e
        E 54 b1 03 4d
        E 54 b1 03 4b
        E 54 b1 03 49
        E 54 b1 03 48
        E 54 b1 03 46
        E 54 b1 03 44
        E 54 b1 03 42
        E 54 b1 03 40
        E 54 b1 03 3e
        E 54 b1 03 3c
        E 54 b1 03 3a
        E 54 b1 03 38
        E 54 b1 03 36
        E 54 b1 03 33
        E 54 b1 03 31
        E 54 b1 03 2f
        E 54 b1 03 2d
        E 54 b1 03 2b
        E 54 b1 03 29
        E 54 b1 03 27
        E 54 b1 03 25
        E 54 b1 03 22
        E 54 b1 03 20
        E 54 b1 03 1e
        E 54 b1 03 1c
        E 54 b1 03 1a
        E 54 b1 03 18
        E 54 b1 03 16
        E 54 b1 03 14
        E 54 b1 03 12
        E 54 b1 03 10
        E 54 b1 03 0f
        E 54 b1 03 0d
        E 54 b1 03 0b
        E 54 b1 03 0a
        E 54 b1 03 09
        E 54 b1 03 07
        E 54 b1 03 07
        E 54 b1 03 05
        E 54 b1 03 04
        E 54 b1 03 03
        E 54 b1 03 02
        E 54 b1 03 02
        E 54 b1 03 01
        E 54 b1 03 00
        E 54 b1 03 00
        E 54 b1 03 00
        E 54 b1 03 00
        E 54 b1 03 00
        E 54 b1 03 00
        E 54 b1 03 00
        E 54 b1 03 00
        E 54 b1 03 00
        E 54 b1 03 01
        E 54 b1 03 02
        E 54 b1 03 02
        E 54 b1 03 03
        E 54 b1 03 04
        E 54 b1 03 04
        E 54 b1 03 06
        E 54 b1 03 07
        E 54 b1 03 08
        E 54 b1 03 09
        E 54 b1 03 0b
        E 54 b1 03 0c
        E 54 b1 03 0e
        E 54 b1 03 10
        E 54 b1 03 11
        E 54 b1 03 13
        E 54 b1 03 15
        E 54 b1 03 17
        E 54 b1 03 19
        E 54 b1 03 1b
        E 54 b1 03 1d
        E 54 b1 03 1f
        E 54 b1 03 21
        E 54 b1 03 23
        E 54 b1 03 25
        E 54 b1 03 27
        E 54 b1 03 2a
        E 54 b1 03 2c
        E 61 b1 03 13
        E 61 b1 03 14
        E 61 b1 03 15
        E 61 b1 03 15
        E 61 b1 03 16
        E 61 b1 03 17
        E 61 b1 03 18
        E 61 b1 03 19
        E 61 b1 03 1a
        E 61 b1 03 1b
        E 61 b1 03 1c
        E 61 b1 03 1c
        E 61 b1 03 1d
        E 61 b1 03 1e
        E 61 b1 03 1f
        E 61 b1 03 1f
        E 61 b1 03 20
        E 61 b1 03 21
        E 61 b1 03 21
        E 61 b1 03 22
        E 61 b1 03 23
        E 61 b1 03 23
        E 61 b1 03 24
        E 61 b1 03 24
        E 61 b1 03 24
        E 61 b1 03 24
        E 61 b1 03 25
        E 61 b1 03 25
        E 61 b1 03 25
        E 61 b1 03 25
        E 61 b1 03 26
        E 61 b1 03 26
        E 61 b1 03 26
        E 61 b1 03 26
        E 61 b1 03 26
        E 61 b1 03 25
        E 61 b1 03 25
        E 61 b1 03 25
        E 61 b1 03 25
        E 61 b1 03 24
        E 61 b1 03 24
        E 61 b1 03 24
        E 61 b1 03 23
        E 61 b1 03 23
        E 61 b1 03 22
        E 61 b1 03 22
        E 61 b1 03 21
        E 61 b1 03 21
        E 61 b1 03 20
        E 61 b1 03 1f
        E 61 b1 03 1e
        E 61 b1 03 1e
        E 61 b1 03 1d
        E 61 b1 03 1c
        E 61 b1 03 1b
        E 61 b1 03 1a
        E 61 b1 03 1a
        E 61 b1 03 19
        E 61 b1 03 18
        E 61 b1 03 17
        E 61 b1 03 16
        E 61 b1 03 15
        E 61 b1 03 14
        E 61 b1 03 13
        E 61 b1 03 12
        E 61 b1 03 11
        E 61 b1 03 10
        E 61 b1 03 0f
        E 61 b1 03 0e
        E 61 b1 03 0d
        E 61 b1 03 0c
        E 61 b1 03 0c
        E 61 b1 03 0b
        E 61 b1 03 0a
        E 61 b1 03 09
        E 61 b1 03 08
        E 61 b1 03 08
        E 61 b1 03 07
        E 61 b1 03 06
        E 61 b1 03 05
        E 61 b1 03 05
        E 61 b1 03 04
        E 61 b1 03 03
        E 61 b1 03 03
        E 61 b1 03 03
        E 61 b1 03 02
        E 61 b1 03 02
        E 61 b1 03 01
        E 61 b1 03 01
        E 61 b1 03 00
        E 61 b1 03 00
        E 61 b1 03 00
        E 61 b1 03 00
        E 61 b1 03 00
        E 61 b1 03 00
        E 61 b1 03 00
        E 61 b1 03 00
        E 61 b1 03 00
        E 61 b1 03 00
        E 61 b1 03 00
        E 61 b1 03 00
        E 61 b1 03 00
        E 61 b1 03 01
        E 61 b1 03 01
        E 61 b1 03 01
        E 61 b1 03 02
        E 61 b1 03 02
        E 61 b1 03 03
        E 61 b1 03 03
        E 61 b1 03 04
        E 61 b1 03 04
        E 61 b1 03 05
        E 61 b1 03 06
        E 61 b1 03 06
        E 61 b1 03 07
        E 61 b1 03 08
        E 61 b1 03 09
        E 61 b1 03 09
        E 61 b1 03 0a
        E 61 b1 03 0b
        E 61 b1 03 0c
        E 61 b1 03 0d
        E 61 b1 03 0e
        E 61 b1 03 0f
        E 61 b1 03 10
        E 61 b1 03 11
        E 61 b1 03 12
        E 61 b1 03 13
        E 3 b1 03 00
        E 3 b1 03 01
        E 3 b1 03 02
        E 3 b1 03 03
        E 3 b1 03 04
        E 3 b1 03 04
        E 3 b1 03 05
        E 3 b1 03 06
        E 3 b1 03 07
        E 3 b1 03 08
        E 3 b1 03 08
        E 3 b1 03 09
        E 3 b1 03 0a
        E 3 b1 03 0b
        E 3 b1 03 0c
        E 3 b1 03 0c
        E 3 b1 03 0d
        E 3 b1 03 0e
        E 3 b1 03 0f
        E 3 b1 03 10
        E 3 b1 03 10
        E 3 b1 03 11
        E 3 b1 03 12
        E 3 b1 03 13
        E 3 b1 03 14
        E 3 b1 03 14
        E 3 b1 03 15
        E 3 b1 03 16
        E 3 b1 03 17
        E 3 b1 03 18
        E 3 b1 03 18
        E 3 b1 03 19
        E 3 b1 03 1a
        E 3 b1 03 1b
        E 3 b1 03 1c
        E 3 b1 03 1c
        E 3 b1 03 1d
        E 3 b1 03 1e
        E 3 b1 03 1f
        E 3 b1 03 20
        E 3 b1 03 20
        E 3 b1 03 21
        E 3 b1 03 22
        E 3 b1 03 23
        E 3 b1 03 24
        E 3 b1 03 24
        E 3 b1 03 25
        E 3 b1 03 26
        E 3 b1 03 27
        E 3 b1 03 28
        E 3 b1 03 28
        E 3 b1 03 29
        E 3 b1 03 2a
        E 3 b1 03 2b
        E 3 b1 03 2c
        E 3 b1 03 2c
        E 3 b1 03 2d
        E 3 b1 03 2e
        E 3 b1 03 2f
        E 3 b1 03 30
        E 3 b1 03 30
        E 3 b1 03 31
        E 3 b1 03 32
        E 3 b1 03 32
        E 3 b1 03 32
        E 3 b1 03 31
        E 3 b1 03 30
        E 3 b1 03 30
        E 3 b1 03 2f
        E 3 b1 03 2e
        E 3 b1 03 2d
        E 3 b1 03 2c
        E 3 b1 03 2c
        E 3 b1 03 2b
        E 3 b1 03 2a
        E 3 b1 03 29
        E 3 b1 03 28
        E 3 b1 03 28
        E 3 b1 03 27
        E 3 b1 03 26
        E 3 b1 03 25
        E 3 b1 03 24
        E 3 b1 03 24
        E 3 b1 03 23
        E 3 b1 03 22
        E 3 b1 03 21
        E 3 b1 03 20
        E 3 b1 03 20
        E 3 b1 03 1f
        E 3 b1 03 1e
        E 3 b1 03 1d
        E 3 b1 03 1c
        E 3 b1 03 1c
        E 3 b1 03 1b
        E 3 b1 03 1a
        E 3 b1 03 19
        E 3 b1 03 18
        E 3 b1 03 18
        E 3 b1 03 17
        E 3 b1 03 16
        E 3 b1 03 15
        E 3 b1 03 14
        E 3 b1 03 14
        E 3 b1 03 13
        E 3 b1 03 12
        E 3 b1 03 11
        E 3 b1 03 10
        E 3 b1 03 10
        E 3 b1 03 0f
        E 3 b1 03 0e
        E 3 b1 03 0d
        E 3 b1 03 0c
        E 3 b1 03 0c
        E 3 b1 03 0b
        E 3 b1 03 0a
        E 3 b1 03 09
        E 3 b1 03 08
        E 3 b1 03 08
        E 3 b1 03 07
        E 3 b1 03 06
        E 3 b1 03 05
        E 3 b1 03 04
        E 3 b1 03 04
        E 3 b1 03 03
        E 3 b1 03 02
        E 3 b1 03 01
        E 3 b1 03 00
        E 3 b1 03 00
        E 28 b1 03 00
        E 28 b1 03 00
        E 28 b1 03 00
        E 28 b1 03 00
        E 28 b1 03 01
        E 28 b1 03 01
        E 28 b1 03 01
        E 28 b1 03 01
        E 28 b1 03 01
        E 28 b1 03 02
        E 28 b1 03 02
        E 28 b1 03 02
        E 28 b1 03 02
        E 28 b1 03 02
        E 28 b1 03 03
        E 28 b1 03 03
        E 28 b1 03 03
        E 28 b1 03 03
        E 28 b1 03 03
        E 28 b1 03 04
        E 28 b1 03 04
        E 28 b1 03 04
        E 28 b1 03 04
        E 28 b1 03 04
        E 28 b1 03 05
        E 28 b1 03 05
        E 28 b1 03 05
        E 28 b1 03 05
        E 28 b1 03 05
        E 28 b1 03 06
        E 28 b1 03 06
        E 28 b1 03 06
        E 28 b1 03 06
        E 28 b1 03 06
        E 28 b1 03 07
        E 28 b1 03 07
        E 28 b1 03 07
        E 28 b1 03 07
        E 28 b1 03 07
        E 28 b1 03 08
        E 28 b1 03 08
        E 28 b1 03 08
        E 28 b1 03 08
        E 28 b1 03 08
        E 28 b1 03 09
        E 28 b1 03 09
        E 28 b1 03 09
        E 28 b1 03 09
        E 28 b1 03 09
        E 28 b1 03 0a
        E 28 b1 03 0a
        E 28 b1 03 0a
        E 28 b1 03 0a
        E 28 b1 03 0a
        E 28 b1 03 0b
        E 28 b1 03 0b
        E 28 b1 03 0b
        E 28 b1 03 0b
        E 28 b1 03 0b
        E 28 b1 03 0c
        E 28 b1 03 0c
        E 28 b1 03 0c
        E 28 b1 03 0c
        E 28 b1 03 0c
        E 28 b1 03 0c
        E 28 b1 03 0c
        E 28 b1 03 0c
        E 28 b1 03 0c
        E 28 b1 03 0b
        E 28 b1 03 0b
        E 28 b1 03 0b
        E 28 b1 03 0b
        E 28 b1 03 0b
        E 28 b1 03 0a
        E 28 b1 03 0a
        E 28 b1 03 0a
        E 28 b1 03 0a
        E 28 b1 03 0a
        E 28 b1 03 09
        E 28 b1 03 09
        E 28 b1 03 09
        E 28 b1 03 09
        E 28 b1 03 09
        E 28 b1 03 08
        E 28 b1 03 08
        E 28 b1 03 08
        E 28 b1 03 08
        E 28 b1 03 08
        E 28 b1 03 07
        E 28 b1 03 07
        E 28 b1 03 07
        E 28 b1 03 07
        E 28 b1 03 07
        E 28 b1 03 06
        E 28 b1 03 06
        E 28 b1 03 06
        E 28 b1 03 06
        E 28 b1 03 06
        E 28 b1 03 05
        E 28 b1 03 05
        E 28 b1 03 05
        E 28 b1 03 05
        E 28 b1 03 05
        E 28 b1 03 04
        E 28 b1 03 04
        E 28 b1 03 04
        E 28 b1 03 04
        E 28 b1 03 04
        E 28 b1 03 03
        E 28 b1 03 03
        E 28 b1 03 03
        E 28 b1 03 03
        E 28 b1 03 03
        E 28 b1 03 02
        E 28 b1 03 02
        E 28 b1 03 02
        E 28 b1 03 02
        E 28 b1 03 02
        E 28 b1 03 01
        E 28 b1 03 01
        E 28 b1 03 01
        E 28 b1 03 01
        E 28 b1 03 01
        E 28 b1 03 00
        E 28 b1 03 00
        E 28 b1 03 00
        E 28 b1 03 00
        E 28 b1 03 00
        E 25 b1 03 01
        E 25 b1 03 02
        E 25 b1 03 04
        E 25 b1 03 05
        E 25 b1 03 07
        E 25 b1 03 08
        E 25 b1 03 09
        E 25 b1 03 0b
        E 25 b1 03 0c
        E 25 b1 03 0e
        E 25 b1 03 0f
        E 25 b1 03 10
        E 25 b1 03 12
        E 25 b1 03 13
        E 25 b1 03 15
        E 25 b1 03 16
        E 25 b1 03 17
        E 25 b1 03 19
        E 25 b1 03 1a
        E 25 b1 03 1c
        E 25 b1 03 1d
        E 25 b1 03 1e
        E 25 b1 03 20
        E 25 b1 03 21
        E 25 b1 03 23
        E 25 b1 03 24
        E 25 b1 03 25
        E 25 b1 03 27
        E 25 b1 03 28
        E 25 b1 03 2a
        E 25 b1 03 2b
        E 25 b1 03 2c
        E 25 b1 03 2e
        E 25 b1 03 2f
        E 25 b1 03 31
        E 25 b1 03 32
        E 25 b1 03 33
        E 25 b1 03 35
        E 25 b1 03 36
        E 25 b1 03 38
        E 25 b1 03 39
        E 25 b1 03 3a
        E 25 b1 03 3c
        E 25 b1 03 3d
        E 25 b1 03 3e
        E 25 b1 03 40
        E 25 b1 03 41
        E 25 b1 03 43
        E 25 b1 03 44
        E 25 b1 03 46
        E 25 b1 03 47
        E 25 b1 03 48
        E 25 b1 03 4a
        E 25 b1 03 4b
        E 25 b1 03 4d
        E 25 b1 03 4e
        E 25 b1 03 4f
        E 25 b1 03 51
        E 25 b1 03 52
        E 25 b1 03 54
        E 25 b1 03 55
        E 25 b1 03 56
        E 25 b1 03 58
        E 25 b1 03 58
        E 25 b1 03 58
        E 25 b1 03 56
        E 25 b1 03 55
        E 25 b1 03 54
        E 25 b1 03 52
        E 25 b1 03 51
        E 25 b1 03 4f
        E 25 b1 03 4e
        E 25 b1 03 4d
        E 25 b1 03 4b
        E 25 b1 03 4a
        E 25 b1 03 48
        E 25 b1 03 47
        E 25 b1 03 46
        E 25 b1 03 44
        E 25 b1 03 43
        E 25 b1 03 41
        E 25 b1 03 40
        E 25 b1 03 3e
        E 25 b1 03 3d
        E 25 b1 03 3c
        E 25 b1 03 3a
        E 25 b1 03 39
        E 25 b1 03 38
        E 25 b1 03 36
        E 25 b1 03 35
        E 25 b1 03 33
        E 25 b1 03 32
        E 25 b1 03 31
        E 25 b1 03 2f
        E 25 b1 03 2e
        E 25 b1 03 2c
        E 25 b1 03 2b
        E 25 b1 03 2a
        E 25 b1 03 28
        E 25 b1 03 27
        E 25 b1 03 25
        E 25 b1 03 24
        E 25 b1 03 23
        E 25 b1 03 21
        E 25 b1 03 20
        E 25 b1 03 1e
        E 25 b1 03 1d
        E 25 b1 03 1c
        E 25 b1 03 1a
        E 25 b1 03 19
        E 25 b1 03 17
        E 25 b1 03 16
        E 25 b1 03 15
        E 25 b1 03 13
        E 25 b1 03 12
        E 25 b1 03 10
        E 25 b1 03 0f
        E 25 b1 03 0e
        E 25 b1 03 0c
        E 25 b1 03 0b
        E 25 b1 03 09
        E 25 b1 03 08
        E 25 b1 03 07
        E 25 b1 03 05
        E 25 b1 03 04
        E 25 b1 03 02
        E 25 b1 03 01
        E 25 b1 03 00
        E 28 b1 03 00
        E 28 b1 03 01
        E 28 b1 03 01
        E 28 b1 03 02
        E 28 b1 03 03
        E 28 b1 03 03
        E 28 b1 03 04
        E 28 b1 03 04
        E 28 b1 03 05
        E 28 b1 03 06
        E 28 b1 03 06
        E 28 b1 03 07
        E 28 b1 03 07
        E 28 b1 03 08
        E 28 b1 03 09
        E 28 b1 03 09
        E 28 b1 03 0a
        E 28 b1 03 0a
        E 28 b1 03 0b
        E 28 b1 03 0c
        E 28 b1 03 0c
        E 28 b1 03 0d
        E 28 b1 03 0d
        E 28 b1 03 0e
        E 28 b1 03 0f
        E 28 b1 03 0f
        E 28 b1 03 10
        E 28 b1 03 10
        E 28 b1 03 11
        E 28 b1 03 12
        E 28 b1 03 12
        E 28 b1 03 13
        E 28 b1 03 13
        E 28 b1 03 14
        E 28 b1 03 15
        E 28 b1 03 15
        E 28 b1 03 16
        E 28 b1 03 16
        E 28 b1 03 17
        E 28 b1 03 18
        E 28 b1 03 18
        E 28 b1 03 19
        E 28 b1 03 19
        E 28 b1 03 1a
        E 28 b1 03 1b
        E 28 b1 03 1b
        E 28 b1 03 1c
        E 28 b1 03 1c
        E 28 b1 03 1d
        E 28 b1 03 1e
        E 28 b1 03 1e
        E 28 b1 03 1f
        E 28 b1 03 1f
        E 28 b1 03 20
        E 28 b1 03 21
        E 28 b1 03 21
        E 28 b1 03 22
        E 28 b1 03 22
        E 28 b1 03 23
        E 28 b1 03 24
        E 28 b1 03 24
        E 28 b1 03 25
        E 28 b1 03 25
        E 28 b1 03 26
        E 28 b1 03 25
        E 28 b1 03 25
        E 28 b1 03 24
        E 28 b1 03 24
        E 28 b1 03 23
        E 28 b1 03 22
        E 28 b1 03 22
        E 28 b1 03 21
        E 28 b1 03 21
        E 28 b1 03 20
        E 28 b1 03 1f
        E 28 b1 03 1f
        E 28 b1 03 1e
        E 28 b1 03 1e
        E 28 b1 03 1d
        E 28 b1 03 1c
        E 28 b1 03 1c
        E 28 b1 03 1b
        E 28 b1 03 1b
        E 28 b1 03 1a
        E 28 b1 03 19
        E 28 b1 03 19
        E 28 b1 03 18
        E 28 b1 03 18
        E 28 b1 03 17
        E 28 b1 03 16
        E 28 b1 03 16
        E 28 b1 03 15
        E 28 b1 03 15
        E 28 b1 03 14
        E 28 b1 03 13
        E 28 b1 03 13
        E 28 b1 03 12
        E 28 b1 03 12
        E 28 b1 03 11
        E 28 b1 03 10
        E 28 b1 03 10
        E 28 b1 03 0f
        E 28 b1 03 0f
        E 28 b1 03 0e
        E 28 b1 03 0d
        E 28 b1 03 0d
        E 28 b1 03 0c
        E 28 b1 03 0c
        E 28 b1 03 0b
        E 28 b1 03 0a
        E 28 b1 03 0a
        E 28 b1 03 09
        E 28 b1 03 09
        E 28 b1 03 08
        E 28 b1 03 07
        E 28 b1 03 07
        E 28 b1 03 06
        E 28 b1 03 06
        E 28 b1 03 05
        E 28 b1 03 04
        E 28 b1 03 04
        E 28 b1 03 03
        E 28 b1 03 03
        E 28 b1 03 02
        E 28 b1 03 01
        E 28 b1 03 01
        E 28 b1 03 00
        E 28 b1 03 00
        E 9 b1 03 01
        E 9 b1 03 02
        E 9 b1 03 03
        E 9 b1 03 04
        E 9 b1 03 06
        E 9 b1 03 07
        E 9 b1 03 08
        E 9 b1 03 09
        E 9 b1 03 0a
        E 9 b1 03 0c
        E 9 b1 03 0d
        E 9 b1 03 0e
        E 9 b1 03 0f
        E 9 b1 03 10
        E 9 b1 03 12
        E 9 b1 03 13
        E 9 b1 03 14
        E 9 b1 03 15
        E 9 b1 03 16
        E 9 b1 03 18
        E 9 b1 03 19
        E 9 b1 03 1a
        E 9 b1 03 1b
        E 9 b1 03 1c
        E 9 b1 03 1e
        E 9 b1 03 1f
        E 9 b1 03 20
        E 9 b1 03 21
        E 9 b1 03 22
        E 9 b1 03 24
        E 9 b1 03 25
        E 9 b1 03 26
        E 9 b1 03 27
        E 9 b1 03 28
        E 9 b1 03 2a
        E 9 b1 03 2b
        E 9 b1 03 2c
        E 9 b1 03 2d
        E 9 b1 03 2e
        E 9 b1 03 30
        E 9 b1 03 31
        E 9 b1 03 32
        E 9 b1 03 33
        E 9 b1 03 34
        E 9 b1 03 36
        E 9 b1 03 37
        E 9 b1 03 38
        E 9 b1 03 39
        E 9 b1 03 3a
        E 9 b1 03 3c
        E 9 b1 03 3d
        E 9 b1 03 3e
        E 9 b1 03 3f
        E 9 b1 03 40
        E 9 b1 03 42
        E 9 b1 03 43
        E 9 b1 03 44
        E 9 b1 03 45
        E 9 b1 03 46
        E 9 b1 03 48
        E 9 b1 03 49
        E 9 b1 03 4a
        E 9 b1 03 4b
        E 9 b1 03 4c
        E 9 b1 03 4b
        E 9 b1 03 4a
        E 9 b1 03 49
        E 9 b1 03 48
        E 9 b1 03 46
        E 9 b1 03 45
        E 9 b1 03 44
        E 9 b1 03 43
        E 9 b1 03 42
        E 9 b1 03 40
        E 9 b1 03 3f
        E 9 b1 03 3e
        E 9 b1 03 3d
        E 9 b1 03 3c
        E 9 b1 03 3a
        E 9 b1 03 39
        E 9 b1 03 38
        E 9 b1 03 37
        E 9 b1 03 36
        E 9 b1 03 34
        E 9 b1 03 33
        E 9 b1 03 32
        E 9 b1 03 31
        E 9 b1 03 30
        E 9 b1 03 2e
        E 9 b1 03 2d
        E 9 b1 03 2c
        E 9 b1 03 2b
        E 9 b1 03 2a
        E 9 b1 03 28
        E 9 b1 03 27
        E 9 b1 03 26
        E 9 b1 03 25
        E 9 b1 03 24
        E 9 b1 03 22
        E 9 b1 03 21
        E 9 b1 03 20
        E 9 b1 03 1f
        E 9 b1 03 1e
        E 9 b1 03 1c
        E 9 b1 03 1b
        E 9 b1 03 1a
        E 9 b1 03 19
        E 9 b1 03 18
        E 9 b1 03 16
        E 9 b1 03 15
        E 9 b1 03 14
        E 9 b1 03 13
        E 9 b1 03 12
        E 9 b1 03 10
        E 9 b1 03 0f
        E 9 b1 03 0e
        E 9 b1 03 0d
        E 9 b1 03 0c
        E 9 b1 03 0a
        E 9 b1 03 09
        E 9 b1 03 08
        E 9 b1 03 07
        E 9 b1 03 06
        E 9 b1 03 04
        E 9 b1 03 03
        E 9 b1 03 02
        E 9 b1 03 01
        E 9 b1 03 00
        E 25 b1 03 01
        E 25 b1 03 03
        E 25 b1 03 05
        E 25 b1 03 07
        E 25 b1 03 09
        E 25 b1 03 0a
        E 25 b1 03 0c
        E 25 b1 03 0e
        E 25 b1 03 10
        E 25 b1 03 12
        E 25 b1 03 13
        E 25 b1 03 15
        E 25 b1 03 17
        E 25 b1 03 19
        E 25 b1 03 1b
        E 25 b1 03 1c
        E 25 b1 03 1e
        E 25 b1 03 20
        E 25 b1 03 22
        E 25 b1 03 24
        E 25 b1 03 25
        E 25 b1 03 27
        E 25 b1 03 29
        E 25 b1 03 2b
        E 25 b1 03 2d
        E 25 b1 03 2e
        E 25 b1 03 30
        E 25 b1 03 32
        E 25 b1 03 34
        E 25 b1 03 36
        E 25 b1 03 37
        E 25 b1 03 39
        E 25 b1 03 3b
        E 25 b1 03 3d
        E 25 b1 03 3f
        E 25 b1 03 40
        E 25 b1 03 42
        E 25 b1 03 44
        E 25 b1 03 46
        E 25 b1 03 48
        E 25 b1 03 49
        E 25 b1 03 4b
        E 25 b1 03 4d
        E 25 b1 03 4f
        E 25 b1 03 51
        E 25 b1 03 52
        E 25 b1 03 54
        E 25 b1 03 56
        E 25 b1 03 58
        E 25 b1 03 5a
        E 25 b1 03 5b
        E 25 b1 03 5d
        E 25 b1 03 5f
        E 25 b1 03 61
        E 25 b1 03 63
        E 25 b1 03 64
        E 25 b1 03 66
        E 25 b1 03 68
        E 25 b1 03 6a
        E 25 b1 03 6c
        E 25 b1 03 6d
        E 25 b1 03 6f
        E 25 b1 03 71
        E 25 b1 03 72
        E 25 b1 03 71
        E 25 b1 03 6f
        E 25 b1 03 6d
        E 25 b1 03 6c
        E 25 b1 03 6a
        E 25 b1 03 68
        E 25 b1 03 66
        E 25 b1 03 64
        E 25 b1 03 63
        E 25 b1 03 61
        E 25 b1 03 5f
        E 25 b1 03 5d
        E 25 b1 03 5b
        E 25 b1 03 5a
        E 25 b1 03 58
        E 25 b1 03 56
        E 25 b1 03 54
        E 25 b1 03 52
        E 25 b1 03 51
        E 25 b1 03 4f
        E 25 b1 03 4d
        E 25 b1 03 4b
        E 25 b1 03 49
        E 25 b1 03 48
        E 25 b1 03 46
        E 25 b1 03 44
        E 25 b1 03 42
        E 25 b1 03 40
        E 25 b1 03 3f
        E 25 b1 03 3d
        E 25 b1 03 3b
        E 25 b1 03 39
        E 25 b1 03 37
        E 25 b1 03 36
        E 25 b1 03 34
        E 25 b1 03 32
        E 25 b1 03 30
        E 25 b1 03 2e
        E 25 b1 03 2d
        E 25 b1 03 2b
        E 25 b1 03 29
        E 25 b1 03 27
        E 25 b1 03 25
        E 25 b1 03 24
        E 25 b1 03 22
        E 25 b1 03 20
        E 25 b1 03 1e
        E 25 b1 03 1c
        E 25 b1 03 1b
        E 25 b1 03 19
        E 25 b1 03 17
        E 25 b1 03 15
        E 25 b1 03 13
        E 25 b1 03 12
        E 25 b1 03 10
        E 25 b1 03 0e
        E 25 b1 03 0c
        E 25 b1 03 0a
        E 25 b1 03 09
        E 25 b1 03 07
        E 25 b1 03 05
        E 25 b1 03 03
        E 25 b1 03 01
        E 25 b1 03 00
        E 3 b1 03 00
        E 3 b1 03 01
        E 3 b1 03 02
        E 3 b1 03 03
        E 3 b1 03 04
        E 3 b1 03 04
        E 3 b1 03 05
        E 3 b1 03 06
        E 3 b1 03 07
        E 3 b1 03 08
        E 3 b1 03 08
        E 3 b1 03 09
        E 3 b1 03 0a
        E 3 b1 03 0b
        E 3 b1 03 0c
        E 3 b1 03 0c
        E 3 b1 03 0d
        E 3 b1 03 0e
        E 3 b1 03 0f
        E 3 b1 03 10
        E 3 b1 03 10
        E 3 b1 03 11
        E 3 b1 03 12
        E 3 b1 03 13
        E 3 b1 03 14
        E 3 b1 03 14
        E 3 b1 03 15
        E 3 b1 03 16
        E 3 b1 03 17
        E 3 b1 03 18
        E 3 b1 03 18
        E 3 b1 03 19
        E 3 b1 03 1a
        E 3 b1 03 1b
        E 3 b1 03 1c
        E 3 b1 03 1c
        E 3 b1 03 1d
        E 3 b1 03 1e
        E 3 b1 03 1f
        E 3 b1 03 20
        E 3 b1 03 20
        E 3 b1 03 21
        E 3 b1 03 22
        E 3 b1 03 23
        E 3 b1 03 24
        E 3 b1 03 24
        E 3 b1 03 25
        E 3 b1 03 26
        E 3 b1 03 27
        E 3 b1 03 28
        E 3 b1 03 28
        E 3 b1 03 29
        E 3 b1 03 2a
        E 3 b1 03 2b
        E 3 b1 03 2c
        E 3 b1 03 2c
        E 3 b1 03 2d
        E 3 b1 03 2e
        E 3 b1 03 2f
        E 3 b1 03 30
        E 3 b1 03 30
        E 3 b1 03 31
        E 3 b1 03 32
        E 3 b1 03 32
        E 3 b1 03 32
        E 3 b1 03 31
        E 3 b1 03 30
        E 3 b1 03 30
        E 3 b1 03 2f
        E 3 b1 03 2e
        E 3 b1 03 2d
        E 3 b1 03 2c
        E 3 b1 03 2c
        E 3 b1 03 2b
        E 3 b1 03 2a
        E 3 b1 03 29
        E 3 b1 03 28
        E 3 b1 03 28
        E 3 b1 03 27
        E 3 b1 03 26
        E 3 b1 03 25
        E 3 b1 03 24
        E 3 b1 03 24
        E 3 b1 03 23
        E 3 b1 03 22
        E 3 b1 03 21
        E 3 b1 03 20
        E 3 b1 03 20
        E 3 b1 03 1f
        E 3 b1 03 1e
        E 3 b1 03 1d
        E 3 b1 03 1c
        E 3 b1 03 1c
        E 3 b1 03 1b
        E 3 b1 03 1a
        E 3 b1 03 19
        E 3 b1 03 18
        E 3 b1 03 18
        E 3 b1 03 17
        E 3 b1 03 16
        E 3 b1 03 15
        E 3 b1 03 14
        E 3 b1 03 14
        E 3 b1 03 13
        E 3 b1 03 12
        E 3 b1 03 11
        E 3 b1 03 10
        E 3 b1 03 10
        E 3 b1 03 0f
        E 3 b1 03 0e
        E 3 b1 03 0d
        E 3 b1 03 0c
        E 3 b1 03 0c
        E 3 b1 03 0b
        E 3 b1 03 0a
        E 3 b1 03 09
        E 3 b1 03 08
        E 3 b1 03 08
        E 3 b1 03 07
        E 3 b1 03 06
        E 3 b1 03 05
        E 3 b1 03 04
        E 3 b1 03 04
        E 3 b1 03 03
        E 3 b1 03 02
        E 3 b1 03 01
        E 3 b1 03 00
        E 3 b1 03 00
        E 28 b1 03 00
        E 28 b1 03 00
        E 28 b1 03 00
        E 28 b1 03 00
        E 28 b1 03 01
        E 28 b1 03 01
        E 28 b1 03 01
        E 28 b1 03 01
        E 28 b1 03 01
        E 28 b1 03 02
        E 28 b1 03 02
        E 28 b1 03 02
        E 28 b1 03 02
        E 28 b1 03 02
        E 28 b1 03 03
        E 28 b1 03 03
        E 28 b1 03 03
        E 28 b1 03 03
        E 28 b1 03 03
        E 28 b1 03 04
        E 28 b1 03 04
        E 28 b1 03 04
        E 28 b1 03 04
        E 28 b1 03 04
        E 28 b1 03 05
        E 28 b1 03 05
        E 28 b1 03 05
        E 28 b1 03 05
        E 28 b1 03 05
        E 28 b1 03 06
        E 28 b1 03 06
        E 28 b1 03 06
        E 28 b1 03 06
        E 28 b1 03 06
        E 28 b1 03 07
        E 28 b1 03 07
        E 28 b1 03 07
        E 28 b1 03 07
        E 28 b1 03 07
        E 28 b1 03 08
        E 28 b1 03 08
        E 28 b1 03 08
        E 28 b1 03 08
        E 28 b1 03 08
        E 28 b1 03 09
        E 28 b1 03 09
        E 28 b1 03 09
        E 28 b1 03 09
        E 28 b1 03 09
        E 28 b1 03 0a
        E 28 b1 03 0a
        E 28 b1 03 0a
        E 28 b1 03 0a
        E 28 b1 03 0a
        E 28 b1 03 0b
        E 28 b1 03 0b
        E 28 b1 03 0b
        E 28 b1 03 0b
        E 28 b1 03 0b
        E 28 b1 03 0c
        E 28 b1 03 0c
        E 28 b1 03 0c
        E 28 b1 03 0c
        E 28 b1 03 0c
        E 28 b1 03 0c
        E 28 b1 03 0c
        E 28 b1 03 0c
        E 28 b1 03 0c
        E 28 b1 03 0b
        E 28 b1 03 0b
        E 28 b1 03 0b
        E 28 b1 03 0b
        E 28 b1 03 0b
        E 28 b1 03 0a
        E 28 b1 03 0a
        E 28 b1 03 0a
        E 28 b1 03 0a
        E 28 b1 03 0a
        E 28 b1 03 09
        E 28 b1 03 09
        E 28 b1 03 09
        E 28 b1 03 09
        E 28 b1 03 09
        E 28 b1 03 08
        E 28 b1 03 08
        E 28 b1 03 08
        E 28 b1 03 08
        E 28 b1 03 08
        E 28 b1 03 07
        E 28 b1 03 07
        E 28 b1 03 07
        E 28 b1 03 07
        E 28 b1 03 07
        E 28 b1 03 06
        E 28 b1 03 06
        E 28 b1 03 06
        E 28 b1 03 06
        E 28 b1 03 06
        E 28 b1 03 05
        E 28 b1 03 05
        E 28 b1 03 05
        E 28 b1 03 05
        E 28 b1 03 05
        E 28 b1 03 04
        E 28 b1 03 04
        E 28 b1 03 04
        E 28 b1 03 04
        E 28 b1 03 04
        E 28 b1 03 03
        E 28 b1 03 03
        E 28 b1 03 03
        E 28 b1 03 03
        E 28 b1 03 03
        E 28 b1 03 02
        E 28 b1 03 02
        E 28 b1 03 02
        E 28 b1 03 02
        E 28 b1 03 02
        E 28 b1 03 01
        E 28 b1 03 01
        E 28 b1 03 01
        E 28 b1 03 01
        E 28 b1 03 01
        E 28 b1 03 00
        E 28 b1 03 00
        E 28 b1 03 00
        E 28 b1 03 00
        E 28 b1 03 00
        E 25 b1 03 01
        E 25 b1 03 02
        E 25 b1 03 04
        E 25 b1 03 05
        E 25 b1 03 07
        E 25 b1 03 08
        E 25 b1 03 09
        E 25 b1 03 0b
        E 25 b1 03 0c
        E 25 b1 03 0e
        E 25 b1 03 0f
        E 25 b1 03 10
        E 25 b1 03 12
        E 25 b1 03 13
        E 25 b1 03 15
        E 25 b1 03 16
        E 25 b1 03 17
        E 25 b1 03 19
        E 25 b1 03 1a
        E 25 b1 03 1c
        E 25 b1 03 1d
        E 25 b1 03 1e
        E 25 b1 03 20
        E 25 b1 03 21
        E 25 b1 03 23
        E 25 b1 03 24
        E 25 b1 03 25
        E 25 b1 03 27
        E 25 b1 03 28
        E 25 b1 03 2a
        E 25 b1 03 2b
        E 25 b1 03 2c
        E 25 b1 03 2e
        E 25 b1 03 2f
        E 25 b1 03 31
        E 25 b1 03 32
        E 25 b1 03 33
        E 25 b1 03 35
        E 25 b1 03 36
        E 25 b1 03 38
        E 25 b1 03 39
        E 25 b1 03 3a
        E 25 b1 03 3c
        E 25 b1 03 3d
        E 25 b1 03 3e
        E 25 b1 03 40
        E 25 b1 03 41
        E 25 b1 03 43
        E 25 b1 03 44
        E 25 b1 03 46
        E 25 b1 03 47
        E 25 b1 03 48
        E 25 b1 03 4a
        E 25 b1 03 4b
        E 25 b1 03 4d
        E 25 b1 03 4e
        E 25 b1 03 4f
        E 25 b1 03 51
        E 25 b1 03 52
        E 25 b1 03 54
        E 25 b1 03 55
        E 25 b1 03 56
        E 25 b1 03 58
        E 25 b1 03 58
        E 25 b1 03 58
        E 25 b1 03 56
        E 25 b1 03 55
        E 25 b1 03 54
        E 25 b1 03 52
        E 25 b1 03 51
        E 25 b1 03 4f
        E 25 b1 03 4e
        E 25 b1 03 4d
        E 25 b1 03 4b
        E 25 b1 03 4a
        E 25 b1 03 48
        E 25 b1 03 47
        E 25 b1 03 46
        E 25 b1 03 44
        E 25 b1 03 43
        E 25 b1 03 41
        E 25 b1 03 40
        E 25 b1 03 3e
        E 25 b1 03 3d
        E 25 b1 03 3c
        E 25 b1 03 3a
        E 25 b1 03 39
        E 25 b1 03 38
        E 25 b1 03 36
        E 25 b1 03 35
        E 25 b1 03 33
        E 25 b1 03 32
        E 25 b1 03 31
        E 25 b1 03 2f
        E 25 b1 03 2e
        E 25 b1 03 2c
        E 25 b1 03 2b
        E 25 b1 03 2a
        E 25 b1 03 28
        E 25 b1 03 27
        E 25 b1 03 25
        E 25 b1 03 24
        E 25 b1 03 23
        E 25 b1 03 21
        E 25 b1 03 20
        E 25 b1 03 1e
        E 25 b1 03 1d
        E 25 b1 03 1c
        E 25 b1 03 1a
        E 25 b1 03 19
        E 25 b1 03 17
        E 25 b1 03 16
        E 25 b1 03 15
        E 25 b1 03 13
        E 25 b1 03 12
        E 25 b1 03 10
        E 25 b1 03 0f
        E 25 b1 03 0e
        E 25 b1 03 0c
        E 25 b1 03 0b
        E 25 b1 03 09
        E 25 b1 03 08
        E 25 b1 03 07
        E 25 b1 03 05
        E 25 b1 03 04
        E 25 b1 03 02
        E 25 b1 03 01
        E 25 b1 03 00
        E 28 b1 03 00
        E 28 b1 03 01
        E 28 b1 03 01
        E 28 b1 03 02
        E 28 b1 03 03
        E 28 b1 03 03
        E 28 b1 03 04
        E 28 b1 03 04
        E 28 b1 03 05
        E 28 b1 03 06
        E 28 b1 03 06
        E 28 b1 03 07
        E 28 b1 03 07
        E 28 b1 03 08
        E 28 b1 03 09
        E 28 b1 03 09
        E 28 b1 03 0a
        E 28 b1 03 0a
        E 28 b1 03 0b
        E 28 b1 03 0c
        E 28 b1 03 0c
        E 28 b1 03 0d
        E 28 b1 03 0d
        E 28 b1 03 0e
        E 28 b1 03 0f
        E 28 b1 03 0f
        E 28 b1 03 10
        E 28 b1 03 10
        E 28 b1 03 11
        E 28 b1 03 12
        E 28 b1 03 12
        E 28 b1 03 13
        E 28 b1 03 13
        E 28 b1 03 14
        E 28 b1 03 15
        E 28 b1 03 15
        E 28 b1 03 16
        E 28 b1 03 16
        E 28 b1 03 17
        E 28 b1 03 18
        E 28 b1 03 18
        E 28 b1 03 19
        E 28 b1 03 19
        E 28 b1 03 1a
        E 28 b1 03 1b
        E 28 b1 03 1b
        E 28 b1 03 1c
        E 28 b1 03 1c
        E 28 b1 03 1d
        E 28 b1 03 1e
        E 28 b1 03 1e
        E 28 b1 03 1f
        E 28 b1 03 1f
        E 28 b1 03 20
        E 28 b1 03 21
        E 28 b1 03 21
        E 28 b1 03 22
        E 28 b1 03 22
        E 28 b1 03 23
        E 28 b1 03 24
        E 28 b1 03 24
        E 28 b1 03 25
        E 28 b1 03 25
        E 28 b1 03 26
        E 28 b1 03 25
        E 28 b1 03 25
        E 28 b1 03 24
        E 28 b1 03 24
        E 28 b1 03 23
        E 28 b1 03 22
        E 28 b1 03 22
        E 28 b1 03 21
        E 28 b1 03 21
        E 28 b1 03 20
        E 28 b1 03 1f
        E 28 b1 03 1f
        E 28 b1 03 1e
        E 28 b1 03 1e
        E 28 b1 03 1d
        E 28 b1 03 1c
        E 28 b1 03 1c
        E 28 b1 03 1b
        E 28 b1 03 1b
        E 28 b1 03 1a
        E 28 b1 03 19
        E 28 b1 03 19
        E 28 b1 03 18
        E 28 b1 03 18
        E 28 b1 03 17
        E 28 b1 03 16
        E 28 b1 03 16
        E 28 b1 03 15
        E 28 b1 03 15
        E 28 b1 03 14
        E 28 b1 03 13
        E 28 b1 03 13
        E 28 b1 03 12
        E 28 b1 03 12
        E 28 b1 03 11
        E 28 b1 03 10
        E 28 b1 03 10
        E 28 b1 03 0f
        E 28 b1 03 0f
        E 28 b1 03 0e
        E 28 b1 03 0d
        E 28 b1 03 0d
        E 28 b1 03 0c
        E 28 b1 03 0c
        E 28 b1 03 0b
        E 28 b1 03 0a
        E 28 b1 03 0a
        E 28 b1 03 09
        E 28 b1 03 09
        E 28 b1 03 08
        E 28 b1 03 07
        E 28 b1 03 07
        E 28 b1 03 06
        E 28 b1 03 06
        E 28 b1 03 05
        E 28 b1 03 04
        E 28 b1 03 04
        E 28 b1 03 03
        E 28 b1 03 03
        E 28 b1 03 02
        E 28 b1 03 01
        E 28 b1 03 01
        E 28 b1 03 00
        E 28 b1 03 00
        E 9 b1 03 01
        E 9 b1 03 02
        E 9 b1 03 03
        E 9 b1 03 04
        E 9 b1 03 06
        E 9 b1 03 07
        E 9 b1 03 08
        E 9 b1 03 09
        E 9 b1 03 0a
        E 9 b1 03 0c
        E 9 b1 03 0d
        E 9 b1 03 0e
        E 9 b1 03 0f
        E 9 b1 03 10
        E 9 b1 03 12
        E 9 b1 03 13
        E 9 b1 03 14
        E 9 b1 03 15
        E 9 b1 03 16
        E 9 b1 03 18
        E 9 b1 03 19
        E 9 b1 03 1a
        E 9 b1 03 1b
        E 9 b1 03 1c
        E 9 b1 03 1e
        E 9 b1 03 1f
        E 9 b1 03 20
        E 9 b1 03 21
        E 9 b1 03 22
        E 9 b1 03 24
        E 9 b1 03 25
        E 9 b1 03 26
        E 9 b1 03 27
        E 9 b1 03 28
        E 9 b1 03 2a
        E 9 b1 03 2b
        E 9 b1 03 2c
        E 9 b1 03 2d
        E 9 b1 03 2e
        E 9 b1 03 30
        E 9 b1 03 31
        E 9 b1 03 32
        E 9 b1 03 33
        E 9 b1 03 34
        E 9 b1 03 36
        E 9 b1 03 37
        E 9 b1 03 38
        E 9 b1 03 39
        E 9 b1 03 3a
        E 9 b1 03 3c
        E 9 b1 03 3d
        E 9 b1 03 3e
        E 9 b1 03 3f
        E 9 b1 03 40
        E 9 b1 03 42
        E 9 b1 03 43
        E 9 b1 03 44
        E 9 b1 03 45
        E 9 b1 03 46
        E 9 b1 03 48
        E 9 b1 03 49
        E 9 b1 03 4a
        E 9 b1 03 4b
        E 9 b1 03 4c
        E 9 b1 03 4b
        E 9 b1 03 4a
        E 9 b1 03 49
        E 9 b1 03 48
        E 9 b1 03 46
        E 9 b1 03 45
        E 9 b1 03 44
        E 9 b1 03 43
        E 9 b1 03 42
        E 9 b1 03 40
        E 9 b1 03 3f
        E 9 b1 03 3e
        E 9 b1 03 3d
        E 9 b1 03 3c
        E 9 b1 03 3a
        E 9 b1 03 39
        E 9 b1 03 38
        E 9 b1 03 37
        E 9 b1 03 36
        E 9 b1 03 34
        E 9 b1 03 33
        E 9 b1 03 32
        E 9 b1 03 31
        E 9 b1 03 30
        E 9 b1 03 2e
        E 9 b1 03 2d
        E 9 b1 03 2c
        E 9 b1 03 2b
        E 9 b1 03 2a
        E 9 b1 03 28
        E 9 b1 03 27
        E 9 b1 03 26
        E 9 b1 03 25
        E 9 b1 03 24
        E 9 b1 03 22
        E 9 b1 03 21
        E 9 b1 03 20
        E 9 b1 03 1f
        E 9 b1 03 1e
        E 9 b1 03 1c
        E 9 b1 03 1b
        E 9 b1 03 1a
        E 9 b1 03 19
        E 9 b1 03 18
        E 9 b1 03 16
        E 9 b1 03 15
        E 9 b1 03 14
        E 9 b1 03 13
        E 9 b1 03 12
        E 9 b1 03 10
        E 9 b1 03 0f
        E 9 b1 03 0e
        E 9 b1 03 0d
        E 9 b1 03 0c
        E 9 b1 03 0a
        E 9 b1 03 09
        E 9 b1 03 08
        E 9 b1 03 07
        E 9 b1 03 06
        E 9 b1 03 04
        E 9 b1 03 03
        E 9 b1 03 02
        E 9 b1 03 01
        E 9 b1 03 00
        E 25 b1 03 01
        E 25 b1 03 03
        E 25 b1 03 05
        E 25 b1 03 07
        E 25 b1 03 09
        E 25 b1 03 0a
        E 25 b1 03 0c
        E 25 b1 03 0e
        E 25 b1 03 10
        E 25 b1 03 12
        E 25 b1 03 13
        E 25 b1 03 15
        E 25 b1 03 17
        E 25 b1 03 19
        E 25 b1 03 1b
        E 25 b1 03 1c
        E 25 b1 03 1e
        E 25 b1 03 20
        E 25 b1 03 22
        E 25 b1 03 24
        E 25 b1 03 25
        E 25 b1 03 27
        E 25 b1 03 29
        E 25 b1 03 2b
        E 25 b1 03 2d
        E 25 b1 03 2e
        E 25 b1 03 30
        E 25 b1 03 32
        E 25 b1 03 34
        E 25 b1 03 36
        E 25 b1 03 37
        E 25 b1 03 39
        E 25 b1 03 3b
        E 25 b1 03 3d
        E 25 b1 03 3f
        E 25 b1 03 40
        E 25 b1 03 42
        E 25 b1 03 44
        E 25 b1 03 46
        E 25 b1 03 48
        E 25 b1 03 49
        E 25 b1 03 4b
        E 25 b1 03 4d
        E 25 b1 03 4f
        E 25 b1 03 51
        E 25 b1 03 52
        E 25 b1 03 54
        E 25 b1 03 56
        E 25 b1 03 58
        E 25 b1 03 5a
        E 25 b1 03 5b
        E 25 b1 03 5d
        E 25 b1 03 5f
        E 25 b1 03 61
        E 25 b1 03 63
        E 25 b1 03 64
        E 25 b1 03 66
        E 25 b1 03 68
        E 25 b1 03 6a
        E 25 b1 03 6c
        E 25 b1 03 6d
        E 25 b1 03 6f
        E 25 b1 03 71
        E 25 b1 03 72
        E 25 b1 03 71
        E 25 b1 03 6f
        E 25 b1 03 6d
        E 25 b1 03 6c
        E 25 b1 03 6a
        E 25 b1 03 68
        E 25 b1 03 66
        E 25 b1 03 64
        E 25 b1 03 63
        E 25 b1 03 61
        E 25 b1 03 5f
        E 25 b1 03 5d
        E 25 b1 03 5b
        E 25 b1 03 5a
        E 25 b1 03 58
        E 25 b1 03 56
        E 25 b1 03 54
        E 25 b1 03 52
        E 25 b1 03 51
        E 25 b1 03 4f
        E 25 b1 03 4d
        E 25 b1 03 4b
        E 25 b1 03 49
        E 25 b1 03 48
        E 25 b1 03 46
        E 25 b1 03 44
        E 25 b1 03 42
        E 25 b1 03 40
        E 25 b1 03 3f
        E 25 b1 03 3d
        E 25 b1 03 3b
        E 25 b1 03 39
        E 25 b1 03 37
        E 25 b1 03 36
        E 25 b1 03 34
        E 25 b1 03 32
        E 25 b1 03 30
        E 25 b1 03 2e
        E 25 b1 03 2d
        E 25 b1 03 2b
        E 25 b1 03 29
        E 25 b1 03 27
        E 25 b1 03 25
        E 25 b1 03 24
        E 25 b1 03 22
        E 25 b1 03 20
        E 25 b1 03 1e
        E 25 b1 03 1c
        E 25 b1 03 1b
        E 25 b1 03 19
        E 25 b1 03 17
        E 25 b1 03 15
        E 25 b1 03 13
        E 25 b1 03 12
        E 25 b1 03 10
        E 25 b1 03 0e
        E 25 b1 03 0c
        E 25 b1 03 0a
        E 25 b1 03 09
        E 25 b1 03 07
        E 25 b1 03 05
        E 25 b1 03 03
        E 25 b1 03 01
        E 25 b1 03 00
        E 3 b1 03 00
        E 3 b1 03 01
        E 3 b1 03 02
        E 3 b1 03 03
        E 3 b1 03 04
        E 3 b1 03 04
        E 3 b1 03 05
        E 3 b1 03 06
        E 3 b1 03 07
        E 3 b1 03 08
        E 3 b1 03 08
        E 3 b1 03 09
        E 3 b1 03 0a
        E 3 b1 03 0b
        E 3 b1 03 0c
        E 3 b1 03 0c
        E 3 b1 03 0d
        E 3 b1 03 0e
        E 3 b1 03 0f
        E 3 b1 03 10
        E 3 b1 03 10
        E 3 b1 03 11
        E 3 b1 03 12
        E 3 b1 03 13
        E 3 b1 03 14
        E 3 b1 03 14
        E 3 b1 03 15
        E 3 b1 03 16
        E 3 b1 03 17
        E 3 b1 03 18
        E 3 b1 03 18
        E 3 b1 03 19
        E 3 b1 03 1a
        E 3 b1 03 1b
        E 3 b1 03 1c
        E 3 b1 03 1c
        E 3 b1 03 1d
        E 3 b1 03 1e
        E 3 b1 03 1f
        E 3 b1 03 20
        E 3 b1 03 20
        E 3 b1 03 21
        E 3 b1 03 22
        E 3 b1 03 23
        E 3 b1 03 24
        E 3 b1 03 24
        E 3 b1 03 25
        E 3 b1 03 26
        E 3 b1 03 27
        E 3 b1 03 28
        E 3 b1 03 28
        E 3 b1 03 29
        E 3 b1 03 2a
        E 3 b1 03 2b
        E 3 b1 03 2c
        E 3 b1 03 2c
        E 3 b1 03 2d
        E 3 b1 03 2e
        E 3 b1 03 2f
        E 3 b1 03 30
        E 3 b1 03 30
        E 3 b1 03 31
        E 3 b1 03 32
        E 3 b1 03 32
        E 3 b1 03 32
        E 3 b1 03 31
        E 3 b1 03 30
        E 3 b1 03 30
        E 3 b1 03 2f
        E 3 b1 03 2e
        E 3 b1 03 2d
        E 3 b1 03 2c
        E 3 b1 03 2c
        E 3 b1 03 2b
        E 3 b1 03 2a
        E 3 b1 03 29
        E 3 b1 03 28
        E 3 b1 03 28
        E 3 b1 03 27
        E 3 b1 03 26
        E 3 b1 03 25
        E 3 b1 03 24
        E 3 b1 03 24
        E 3 b1 03 23
        E 3 b1 03 22
        E 3 b1 03 21
        E 3 b1 03 20
        E 3 b1 03 20
        E 3 b1 03 1f
        E 3 b1 03 1e
        E 3 b1 03 1d
        E 3 b1 03 1c
        E 3 b1 03 1c
        E 3 b1 03 1b
        E 3 b1 03 1a
        E 3 b1 03 19
        E 3 b1 03 18
        E 3 b1 03 18
        E 3 b1 03 17
        E 3 b1 03 16
        E 3 b1 03 15
        E 3 b1 03 14
        E 3 b1 03 14
        E 3 b1 03 13
        E 3 b1 03 12
        E 3 b1 03 11
        E 3 b1 03 10
        E 3 b1 03 10
        E 3 b1 03 0f
        E 3 b1 03 0e
        E 3 b1 03 0d
        E 3 b1 03 0c
        E 3 b1 03 0c
        E 3 b1 03 0b
        E 3 b1 03 0a
        E 3 b1 03 09
        E 3 b1 03 08
        E 3 b1 03 08
        E 3 b1 03 07
        E 3 b1 03 06
        E 3 b1 03 05
        E 3 b1 03 04
        E 3 b1 03 04
        E 3 b1 03 03
        E 3 b1 03 02
        E 3 b1 03 01
        E 3 b1 03 00
        E 3 b1 03 00
        E 28 b1 03 00
        E 28 b1 03 00
        E 28 b1 03 00
        E 28 b1 03 00
        E 28 b1 03 01
        E 28 b1 03 01
        E 28 b1 03 01
        E 28 b1 03 01
        E 28 b1 03 01
        E 28 b1 03 02
        E 28 b1 03 02
        E 28 b1 03 02
        E 28 b1 03 02
        E 28 b1 03 02
        E 28 b1 03 03
        E 28 b1 03 03
        E 28 b1 03 03
        E 28 b1 03 03
        E 28 b1 03 03
        E 28 b1 03 04
        E 28 b1 03 04
        E 28 b1 03 04
        E 28 b1 03 04
        E 28 b1 03 04
        E 28 b1 03 05
        E 28 b1 03 05
        E 28 b1 03 05
        E 28 b1 03 05
        E 28 b1 03 05
        E 28 b1 03 06
        E 28 b1 03 06
        E 28 b1 03 06
        E 28 b1 03 06
        E 28 b1 03 06
        E 28 b1 03 07
        E 28 b1 03 07
        E 28 b1 03 07
        E 28 b1 03 07
        E 28 b1 03 07
        E 28 b1 03 08
        E 28 b1 03 08
        E 28 b1 03 08
        E 28 b1 03 08
        E 28 b1 03 08
        E 28 b1 03 09
        E 28 b1 03 09
        E 28 b1 03 09
        E 28 b1 03 09
        E 28 b1 03 09
        E 28 b1 03 0a
        E 28 b1 03 0a
        E 28 b1 03 0a
        E 28 b1 03 0a
        E 28 b1 03 0a
        E 28 b1 03 0b
        E 28 b1 03 0b
        E 28 b1 03 0b
        E 28 b1 03 0b
        E 28 b1 03 0b
        E 28 b1 03 0c
        E 28 b1 03 0c
        E 28 b1 03 0c
        E 28 b1 03 0c
        E 28 b1 03 0c
        E 28 b1 03 0c
        E 28 b1 03 0c
        E 28 b1 03 0c
        E 28 b1 03 0c
        E 28 b1 03 0b
        E 28 b1 03 0b
        E 28 b1 03 0b
        E 28 b1 03 0b
        E 28 b1 03 0b
        E 28 b1 03 0a
        E 28 b1 03 0a
        E 28 b1 03 0a
        E 28 b1 03 0a
        E 28 b1 03 0a
        E 28 b1 03 09
        E 28 b1 03 09
        E 28 b1 03 09
        E 28 b1 03 09
        E 28 b1 03 09
        E 28 b1 03 08
        E 28 b1 03 08
        E 28 b1 03 08
        E 28 b1 03 08
        E 28 b1 03 08
        E 28 b1 03 07
        E 28 b1 03 07
        E 28 b1 03 07
        E 28 b1 03 07
        E 28 b1 03 07
        E 28 b1 03 06
        E 28 b1 03 06
        E 28 b1 03 06
        E 28 b1 03 06
        E 28 b1 03 06
        E 28 b1 03 05
        E 28 b1 03 05
        E 28 b1 03 05
        E 28 b1 03 05
        E 28 b1 03 05
        E 28 b1 03 04
        E 28 b1 03 04
        E 28 b1 03 04
        E 28 b1 03 04
        E 28 b1 03 04
        E 28 b1 03 03
        E 28 b1 03 03
        E 28 b1 03 03
        E 28 b1 03 03
        E 28 b1 03 03
        E 28 b1 03 02
        E 28 b1 03 02
        E 28 b1 03 02
        E 28 b1 03 02
        E 28 b1 03 02
        E 28 b1 03 01
        E 28 b1 03 01
        E 28 b1 03 01
        E 28 b1 03 01
        E 28 b1 03 01
        E 28 b1 03 00
        E 28 b1 03 00
        E 28 b1 03 00
        E 28 b1 03 00
        E 28 b1 03 00
        E 25 b1 03 01
        E 25 b1 03 02
        E 25 b1 03 04
        E 25 b1 03 05
        E 25 b1 03 07
        E 25 b1 03 08
        E 25 b1 03 09
        E 25 b1 03 0b
        E 25 b1 03 0c
        E 25 b1 03 0e
        E 25 b1 03 0f
        E 25 b1 03 10
        E 25 b1 03 12
        E 25 b1 03 13
        E 25 b1 03 15
        E 25 b1 03 16
        E 25 b1 03 17
        E 25 b1 03 19
        E 25 b1 03 1a
        E 25 b1 03 1c
        E 25 b1 03 1d
        E 25 b1 03 1e
        E 25 b1 03 20
        E 25 b1 03 21
        E 25 b1 03 23
        E 25 b1 03 24
        E 25 b1 03 25
        E 25 b1 03 27
        E 25 b1 03 28
        E 25 b1 03 2a
        E 25 b1 03 2b
        E 25 b1 03 2c
        E 25 b1 03 2e
        E 25 b1 03 2f
        E 25 b1 03 31
        E 25 b1 03 32
        E 25 b1 03 33
        E 25 b1 03 35
        E 25 b1 03 36
        E 25 b1 03 38
        E 25 b1 03 39
        E 25 b1 03 3a
        E 25 b1 03 3c
        E 25 b1 03 3d
        E 25 b1 03 3e
        E 25 b1 03 40
        E 25 b1 03 41
        E 25 b1 03 43
        E 25 b1 03 44
        E 25 b1 03 46
        E 25 b1 03 47
        E 25 b1 03 48
        E 25 b1 03 4a
        E 25 b1 03 4b
        E 25 b1 03 4d
        E 25 b1 03 4e
        E 25 b1 03 4f
        E 25 b1 03 51
        E 25 b1 03 52
        E 25 b1 03 54
        E 25 b1 03 55
        E 25 b1 03 56
        E 25 b1 03 58
        E 25 b1 03 58
        E 25 b1 03 58
        E 25 b1 03 56
        E 25 b1 03 55
        E 25 b1 03 54
        E 25 b1 03 52
        E 25 b1 03 51
        E 25 b1 03 4f
        E 25 b1 03 4e
        E 25 b1 03 4d
        E 25 b1 03 4b
        E 25 b1 03 4a
        E 25 b1 03 48
        E 25 b1 03 47
        E 25 b1 03 46
        E 25 b1 03 44
        E 25 b1 03 43
        E 25 b1 03 41
        E 25 b1 03 40
        E 25 b1 03 3e
        E 25 b1 03 3d
        E 25 b1 03 3c
        E 25 b1 03 3a
        E 25 b1 03 39
        E 25 b1 03 38
        E 25 b1 03 36
        E 25 b1 03 35
        E 25 b1 03 33
        E 25 b1 03 32
        E 25 b1 03 31
        E 25 b1 03 2f
        E 25 b1 03 2e
        E 25 b1 03 2c
        E 25 b1 03 2b
        E 25 b1 03 2a
        E 25 b1 03 28
        E 25 b1 03 27
        E 25 b1 03 25
        E 25 b1 03 24
        E 25 b1 03 23
        E 25 b1 03 21
        E 25 b1 03 20
        E 25 b1 03 1e
        E 25 b1 03 1d
        E 25 b1 03 1c
        E 25 b1 03 1a
        E 25 b1 03 19
        E 25 b1 03 17
        E 25 b1 03 16
        E 25 b1 03 15
        E 25 b1 03 13
        E 25 b1 03 12
        E 25 b1 03 10
        E 25 b1 03 0f
        E 25 b1 03 0e
        E 25 b1 03 0c
        E 25 b1 03 0b
        E 25 b1 03 09
        E 25 b1 03 08
        E 25 b1 03 07
        E 25 b1 03 05
        E 25 b1 03 04
        E 25 b1 03 02
        E 25 b1 03 01
        E 25 b1 03 00
        E 28 b1 03 00
        E 28 b1 03 01
        E 28 b1 03 01
        E 28 b1 03 02
        E 28 b1 03 03
        E 28 b1 03 03
        E 28 b1 03 04
        E 28 b1 03 04
        E 28 b1 03 05
        E 28 b1 03 06
        E 28 b1 03 06
        E 28 b1 03 07
        E 28 b1 03 07
        E 28 b1 03 08
        E 28 b1 03 09
        E 28 b1 03 09
        E 28 b1 03 0a
        E 28 b1 03 0a
        E 28 b1 03 0b
        E 28 b1 03 0c
        E 28 b1 03 0c
        E 28 b1 03 0d
        E 28 b1 03 0d
        E 28 b1 03 0e
        E 28 b1 03 0f
        E 28 b1 03 0f
        E 28 b1 03 10
        E 28 b1 03 10
        E 28 b1 03 11
        E 28 b1 03 12
        E 28 b1 03 12
        E 28 b1 03 13
        E 28 b1 03 13
        E 28 b1 03 14
        E 28 b1 03 15
        E 28 b1 03 15
        E 28 b1 03 16
        E 28 b1 03 16
        E 28 b1 03 17
        E 28 b1 03 18
        E 28 b1 03 18
        E 28 b1 03 19
        E 28 b1 03 19
        E 28 b1 03 1a
        E 28 b1 03 1b
        E 28 b1 03 1b
        E 28 b1 03 1c
        E 28 b1 03 1c
        E 28 b1 03 1d
        E 28 b1 03 1e
        E 28 b1 03 1e
        E 28 b1 03 1f
        E 28 b1 03 1f
        E 28 b1 03 20
        E 28 b1 03 21
        E 28 b1 03 21
        E 28 b1 03 22
        E 28 b1 03 22
        E 28 b1 03 23
        E 28 b1 03 24
        E 28 b1 03 24
        E 28 b1 03 25
        E 28 b1 03 25
        E 28 b1 03 26
        E 28 b1 03 25
        E 28 b1 03 25
        E 28 b1 03 24
        E 28 b1 03 24
        E 28 b1 03 23
        E 28 b1 03 22
        E 28 b1 03 22
        E 28 b1 03 21
        E 28 b1 03 21
        E 28 b1 03 20
        E 28 b1 03 1f
        E 28 b1 03 1f
        E 28 b1 03 1e
        E 28 b1 03 1e
        E 28 b1 03 1d
        E 28 b1 03 1c
        E 28 b1 03 1c
        E 28 b1 03 1b
        E 28 b1 03 1b
        E 28 b1 03 1a
        E 28 b1 03 19
        E 28 b1 03 19
        E 28 b1 03 18
        E 28 b1 03 18
        E 28 b1 03 17
        E 28 b1 03 16
        E 28 b1 03 16
        E 28 b1 03 15
        E 28 b1 03 15
        E 28 b1 03 14
        E 28 b1 03 13
        E 28 b1 03 13
        E 28 b1 03 12
        E 28 b1 03 12
        E 28 b1 03 11
        E 28 b1 03 10
        E 28 b1 03 10
        E 28 b1 03 0f
        E 28 b1 03 0f
        E 28 b1 03 0e
        E 28 b1 03 0d
        E 28 b1 03 0d
        E 28 b1 03 0c
        E 28 b1 03 0c
        E 28 b1 03 0b
        E 28 b1 03 0a
        E 28 b1 03 0a
        E 28 b1 03 09
        E 28 b1 03 09
        E 28 b1 03 08
        E 28 b1 03 07
        E 28 b1 03 07
        E 28 b1 03 06
        E 28 b1 03 06
        E 28 b1 03 05
        E 28 b1 03 04
        E 28 b1 03 04
        E 28 b1 03 03
        E 28 b1 03 03
        E 28 b1 03 02
        E 28 b1 03 01
        E 28 b1 03 01
        E 28 b1 03 00
        E 28 b1 03 00
        E 9 b1 03 01
        E 9 b1 03 02
        E 9 b1 03 03
        E 9 b1 03 04
        E 9 b1 03 06
        E 9 b1 03 07
        E 9 b1 03 08
        E 9 b1 03 09
        E 9 b1 03 0a
        E 9 b1 03 0c
        E 9 b1 03 0d
        E 9 b1 03 0e
        E 9 b1 03 0f
        E 9 b1 03 10
        E 9 b1 03 12
        E 9 b1 03 13
        E 9 b1 03 14
        E 9 b1 03 15
        E 9 b1 03 16
        E 9 b1 03 18
        E 9 b1 03 19
        E 9 b1 03 1a
        E 9 b1 03 1b
        E 9 b1 03 1c
        E 9 b1 03 1e
        E 9 b1 03 1f
        E 9 b1 03 20
        E 9 b1 03 21
        E 9 b1 03 22
        E 9 b1 03 24
        E 9 b1 03 25
        E 9 b1 03 26
        E 9 b1 03 27
        E 9 b1 03 28
        E 9 b1 03 2a
        E 9 b1 03 2b
        E 9 b1 03 2c
        E 9 b1 03 2d
        E 9 b1 03 2e
        E 9 b1 03 30
        E 9 b1 03 31
        E 9 b1 03 32
        E 9 b1 03 33
        E 9 b1 03 34
        E 9 b1 03 36
        E 9 b1 03 37
        E 9 b1 03 38
        E 9 b1 03 39
        E 9 b1 03 3a
        E 9 b1 03 3c
        E 9 b1 03 3d
        E 9 b1 03 3e
        E 9 b1 03 3f
        E 9 b1 03 40
        E 9 b1 03 42
        E 9 b1 03 43
        E 9 b1 03 44
        E 9 b1 03 45
        E 9 b1 03 46
        E 9 b1 03 48
        E 9 b1 03 49
        E 9 b1 03 4a
        E 9 b1 03 4b
        E 9 b1 03 4c
        E 9 b1 03 4b
        E 9 b1 03 4a
        E 9 b1 03 49
        E 9 b1 03 48
        E 9 b1 03 46
        E 9 b1 03 45
        E 9 b1 03 44
        E 9 b1 03 43
        E 9 b1 03 42
        E 9 b1 03 40
        E 9 b1 03 3f
        E 9 b1 03 3e
        E 9 b1 03 3d
        E 9 b1 03 3c
        E 9 b1 03 3a
        E 9 b1 03 39
        E 9 b1 03 38
        E 9 b1 03 37
        E 9 b1 03 36
        E 9 b1 03 34
        E 9 b1 03 33
        E 9 b1 03 32
        E 9 b1 03 31
        E 9 b1 03 30
        E 9 b1 03 2e
        E 9 b1 03 2d
        E 9 b1 03 2c
        E 9 b1 03 2b
        E 9 b1 03 2a
        E 9 b1 03 28
        E 9 b1 03 27
        E 9 b1 03 26
        E 9 b1 03 25
        E 9 b1 03 24
        E 9 b1 03 22
        E 9 b1 03 21
        E 9 b1 03 20
        E 9 b1 03 1f
        E 9 b1 03 1e
        E 9 b1 03 1c
        E 9 b1 03 1b
        E 9 b1 03 1a
        E 9 b1 03 19
        E 9 b1 03 18
        E 9 b1 03 16
        E 9 b1 03 15
        E 9 b1 03 14
        E 9 b1 03 13
        E 9 b1 03 12
        E 9 b1 03 10
        E 9 b1 03 0f
        E 9 b1 03 0e
        E 9 b1 03 0d
        E 9 b1 03 0c
        E 9 b1 03 0a
        E 9 b1 03 09
        E 9 b1 03 08
        E 9 b1 03 07
        E 9 b1 03 06
        E 9 b1 03 04
        E 9 b1 03 03
        E 9 b1 03 02
        E 9 b1 03 01
        E 9 b1 03 00
        E 25 b1 03 01
        E 25 b1 03 03
        E 25 b1 03 05
        E 25 b1 03 07
        E 25 b1 03 09
        E 25 b1 03 0a
        E 25 b1 03 0c
        E 25 b1 03 0e
        E 25 b1 03 10
        E 25 b1 03 12
        E 25 b1 03 13
        E 25 b1 03 15
        E 25 b1 03 17
        E 25 b1 03 19
        E 25 b1 03 1b
        E 25 b1 03 1c
        E 25 b1 03 1e
        E 25 b1 03 20
        E 25 b1 03 22
        E 25 b1 03 24
        E 25 b1 03 25
        E 25 b1 03 27
        E 25 b1 03 29
        E 25 b1 03 2b
        E 25 b1 03 2d
        E 25 b1 03 2e
        E 25 b1 03 30
        E 25 b1 03 32
        E 25 b1 03 34
        E 25 b1 03 36
        E 25 b1 03 37
        E 25 b1 03 39
        E 25 b1 03 3b
        E 25 b1 03 3d
        E 25 b1 03 3f
        E 25 b1 03 40
        E 25 b1 03 42
        E 25 b1 03 44
        E 25 b1 03 46
        E 25 b1 03 48
        E 25 b1 03 49
        E 25 b1 03 4b
        E 25 b1 03 4d
        E 25 b1 03 4f
        E 25 b1 03 51
        E 25 b1 03 52
        E 25 b1 03 54
        E 25 b1 03 56
        E 25 b1 03 58
        E 25 b1 03 5a
        E 25 b1 03 5b
        E 25 b1 03 5d
        E 25 b1 03 5f
        E 25 b1 03 61
        E 25 b1 03 63
        E 25 b1 03 64
        E 25 b1 03 66
        E 25 b1 03 68
        E 25 b1 03 6a
        E 25 b1 03 6c
        E 25 b1 03 6d
        E 25 b1 03 6f
        E 25 b1 03 71
        E 25 b1 03 72
        E 25 b1 03 71
        E 25 b1 03 6f
        E 25 b1 03 6d
        E 25 b1 03 6c
        E 25 b1 03 6a
        E 25 b1 03 68
        E 25 b1 03 66
        E 25 b1 03 64
        E 25 b1 03 63
        E 25 b1 03 61
        E 25 b1 03 5f
        E 25 b1 03 5d
        E 25 b1 03 5b
        E 25 b1 03 5a
        E 25 b1 03 58
        E 25 b1 03 56
        E 25 b1 03 54
        E 25 b1 03 52
        E 25 b1 03 51
        E 25 b1 03 4f
        E 25 b1 03 4d
        E 25 b1 03 4b
        E 25 b1 03 49
        E 25 b1 03 48
        E 25 b1 03 46
        E 25 b1 03 44
        E 25 b1 03 42
        E 25 b1 03 40
        E 25 b1 03 3f
        E 25 b1 03 3d
        E 25 b1 03 3b
        E 25 b1 03 39
        E 25 b1 03 37
        E 25 b1 03 36
        E 25 b1 03 34
        E 25 b1 03 32
        E 25 b1 03 30
        E 25 b1 03 2e
        E 25 b1 03 2d
        E 25 b1 03 2b
        E 25 b1 03 29
        E 25 b1 03 27
        E 25 b1 03 25
        E 25 b1 03 24
        E 25 b1 03 22
        E 25 b1 03 20
        E 25 b1 03 1e
        E 25 b1 03 1c
        E 25 b1 03 1b
        E 25 b1 03 19
        E 25 b1 03 17
        E 25 b1 03 15
        E 25 b1 03 13
        E 25 b1 03 12
        E 25 b1 03 10
        E 25 b1 03 0e
        E 25 b1 03 0c
        E 25 b1 03 0a
        E 25 b1 03 09
        E 25 b1 03 07
        E 25 b1 03 05
        E 25 b1 03 03
        E 25 b1 03 01
        E 25 b1 03 00
        E 3 b1 03 00
        E 3 b1 03 01
        E 3 b1 03 02
        E 3 b1 03 03
        E 3 b1 03 04
        E 3 b1 03 04
        E 3 b1 03 05
        E 3 b1 03 06
        E 3 b1 03 07
        E 3 b1 03 08
        E 3 b1 03 08
        E 3 b1 03 09
        E 3 b1 03 0a
        E 3 b1 03 0b
        E 3 b1 03 0c
        E 3 b1 03 0c
        E 3 b1 03 0d
        E 3 b1 03 0e
        E 3 b1 03 0f
        E 3 b1 03 10
        E 3 b1 03 10
        E 3 b1 03 11
        E 3 b1 03 12
        E 3 b1 03 13
        E 3 b1 03 14
        E 3 b1 03 14
        E 3 b1 03 15
        E 3 b1 03 16
        E 3 b1 03 17
        E 3 b1 03 18
        E 3 b1 03 18
        E 3 b1 03 19
        E 3 b1 03 1a
        E 3 b1 03 1b
        E 3 b1 03 1c
        E 3 b1 03 1c
        E 3 b1 03 1d
        E 3 b1 03 1e
        E 3 b1 03 1f
        E 3 b1 03 20
        E 3 b1 03 20
        E 3 b1 03 21
        E 3 b1 03 22
        E 3 b1 03 23
        E 3 b1 03 24
        E 3 b1 03 24
        E 3 b1 03 25
        E 3 b1 03 26
        E 3 b1 03 27
        E 3 b1 03 28
        E 3 b1 03 28
        E 3 b1 03 29
        E 3 b1 03 2a
        E 3 b1 03 2b
        E 3 b1 03 2c
        E 3 b1 03 2c
        E 3 b1 03 2d
        E 3 b1 03 2e
        E 3 b1 03 2f
        E 3 b1 03 30
        E 3 b1 03 30
        E 3 b1 03 31
        E 3 b1 03 32
        E 3 b1 03 32
        E 3 b1 03 32
        E 3 b1 03 31
        E 3 b1 03 30
        E 3 b1 03 30
        E 3 b1 03 2f
        E 3 b1 03 2e
        E 3 b1 03 2d
        E 3 b1 03 2c
        E 3 b1 03 2c
        E 3 b1 03 2b
        E 3 b1 03 2a
        E 3 b1 03 29
        E 3 b1 03 28
        E 3 b1 03 28
        E 3 b1 03 27
        E 3 b1 03 26
        E 3 b1 03 25
        E 3 b1 03 24
        E 3 b1 03 24
        E 3 b1 03 23
        E 3 b1 03 22
        E 3 b1 03 21
        E 3 b1 03 20
        E 3 b1 03 20
        E 3 b1 03 1f
        E 3 b1 03 1e
        E 3 b1 03 1d
        E 3 b1 03 1c
        E 3 b1 03 1c
        E 3 b1 03 1b
        E 3 b1 03 1a
        E 3 b1 03 19
        E 3 b1 03 18
        E 3 b1 03 18
        E 3 b1 03 17
        E 3 b1 03 16
        E 3 b1 03 15
        E 3 b1 03 14
        E 3 b1 03 14
        E 3 b1 03 13
        E 3 b1 03 12
        E 3 b1 03 11
        E 3 b1 03 10
        E 3 b1 03 10
        E 3 b1 03 0f
        E 3 b1 03 0e
        E 3 b1 03 0d
        E 3 b1 03 0c
        E 3 b1 03 0c
        E 3 b1 03 0b
        E 3 b1 03 0a
        E 3 b1 03 09
        E 3 b1 03 08
        E 3 b1 03 08
        E 3 b1 03 07
        E 3 b1 03 06
        E 3 b1 03 05
        E 3 b1 03 04
        E 3 b1 03 04
        E 3 b1 03 03
        E 3 b1 03 02
        E 3 b1 03 01
        E 3 b1 03 00
        E 3 b1 03 00
        E 28 b1 03 00
        E 28 b1 03 00
        E 28 b1 03 00
        E 28 b1 03 00
        E 28 b1 03 01
        E 28 b1 03 01
        E 28 b1 03 01
        E 28 b1 03 01
        E 28 b1 03 01
        E 28 b1 03 02
        E 28 b1 03 02
        E 28 b1 03 02
        E 28 b1 03 02
        E 28 b1 03 02
        E 28 b1 03 03
        E 28 b1 03 03
        E 28 b1 03 03
        E 28 b1 03 03
        E 28 b1 03 03
        E 28 b1 03 04
        E 28 b1 03 04
        E 28 b1 03 04
        E 28 b1 03 04
        E 28 b1 03 04
        E 28 b1 03 05
        E 28 b1 03 05
        E 28 b1 03 05
        E 28 b1 03 05
        E 28 b1 03 05
        E 28 b1 03 06
        E 28 b1 03 06
        E 28 b1 03 06
        E 28 b1 03 06
        E 28 b1 03 06
        E 28 b1 03 07
        E 28 b1 03 07
        E 28 b1 03 07
        E 28 b1 03 07
        E 28 b1 03 07
        E 28 b1 03 08
        E 28 b1 03 08
        E 28 b1 03 08
        E 28 b1 03 08
        E 28 b1 03 08
        E 28 b1 03 09
        E 28 b1 03 09
        E 28 b1 03 09
        E 28 b1 03 09
        E 28 b1 03 09
        E 28 b1 03 0a
        E 28 b1 03 0a
        E 28 b1 03 0a
        E 28 b1 03 0a
        E 28 b1 03 0a
        E 28 b1 03 0b
        E 28 b1 03 0b
        E 28 b1 03 0b
        E 28 b1 03 0b
        E 28 b1 03 0b
        E 28 b1 03 0c
        E 28 b1 03 0c
        E 28 b1 03 0c
        E 28 b1 03 0c
        E 28 b1 03 0c
        E 28 b1 03 0c
        E 28 b1 03 0c
        E 28 b1 03 0c
        E 28 b1 03 0c
        E 28 b1 03 0b
        E 28 b1 03 0b
        E 28 b1 03 0b
        E 28 b1 03 0b
        E 28 b1 03 0b
        E 28 b1 03 0a
        E 28 b1 03 0a
        E 28 b1 03 0a
        E 28 b1 03 0a
        E 28 b1 03 0a
        E 28 b1 03 09
        E 28 b1 03 09
        E 28 b1 03 09
        E 28 b1 03 09
        E 28 b1 03 09
        E 28 b1 03 08
        E 28 b1 03 08
        E 28 b1 03 08
        E 28 b1 03 08
        E 28 b1 03 08
        E 28 b1 03 07
        E 28 b1 03 07
        E 28 b1 03 07
        E 28 b1 03 07
        E 28 b1 03 07
        E 28 b1 03 06
        E 28 b1 03 06
        E 28 b1 03 06
        E 28 b1 03 06
        E 28 b1 03 06
        E 28 b1 03 05
        E 28 b1 03 05
        E 28 b1 03 05
        E 28 b1 03 05
        E 28 b1 03 05
        E 28 b1 03 04
        E 28 b1 03 04
        E 28 b1 03 04
        E 28 b1 03 04
        E 28 b1 03 04
        E 28 b1 03 03
        E 28 b1 03 03
        E 28 b1 03 03
        E 28 b1 03 03
        E 28 b1 03 03
        E 28 b1 03 02
        E 28 b1 03 02
        E 28 b1 03 02
        E 28 b1 03 02
        E 28 b1 03 02
        E 28 b1 03 01
        E 28 b1 03 01
        E 28 b1 03 01
        E 28 b1 03 01
        E 28 b1 03 01
        E 28 b1 03 00
        E 28 b1 03 00
        E 28 b1 03 00
        E 28 b1 03 00
        E 28 b1 03 00
        E 25 b1 03 01
        E 25 b1 03 02
        E 25 b1 03 04
        E 25 b1 03 05
        E 25 b1 03 07
        E 25 b1 03 08
        E 25 b1 03 09
        E 25 b1 03 0b
        E 25 b1 03 0c
        E 25 b1 03 0e
        E 25 b1 03 0f
        E 25 b1 03 10
        E 25 b1 03 12
        E 25 b1 03 13
        E 25 b1 03 15
        E 25 b1 03 16
        E 25 b1 03 17
        E 25 b1 03 19
        E 25 b1 03 1a
        E 25 b1 03 1c
        E 25 b1 03 1d
        E 25 b1 03 1e
        E 25 b1 03 20
        E 25 b1 03 21
        E 25 b1 03 23
        E 25 b1 03 24
        E 25 b1 03 25
        E 25 b1 03 27
        E 25 b1 03 28
        E 25 b1 03 2a
        E 25 b1 03 2b
        E 25 b1 03 2c
        E 25 b1 03 2e
        E 25 b1 03 2f
        E 25 b1 03 31
        E 25 b1 03 32
        E 25 b1 03 33
        E 25 b1 03 35
        E 25 b1 03 36
        E 25 b1 03 38
        E 25 b1 03 39
        E 25 b1 03 3a
        E 25 b1 03 3c
        E 25 b1 03 3d
        E 25 b1 03 3e
        E 25 b1 03 40
        E 25 b1 03 41
        E 25 b1 03 43
        E 25 b1 03 44
        E 25 b1 03 46
        E 25 b1 03 47
        E 25 b1 03 48
        E 25 b1 03 4a
        E 25 b1 03 4b
        E 25 b1 03 4d
        E 25 b1 03 4e
        E 25 b1 03 4f
        E 25 b1 03 51
        E 25 b1 03 52
        E 25 b1 03 54
        E 25 b1 03 55
        E 25 b1 03 56
        E 25 b1 03 58
        E 25 b1 03 58
        E 25 b1 03 58
        E 25 b1 03 56
        E 25 b1 03 55
        E 25 b1 03 54
        E 25 b1 03 52
        E 25 b1 03 51
        E 25 b1 03 4f
        E 25 b1 03 4e
        E 25 b1 03 4d
        E 25 b1 03 4b
        E 25 b1 03 4a
        E 25 b1 03 48
        E 25 b1 03 47
        E 25 b1 03 46
        E 25 b1 03 44
        E 25 b1 03 43
        E 25 b1 03 41
        E 25 b1 03 40
        E 25 b1 03 3e
        E 25 b1 03 3d
        E 25 b1 03 3c
        E 25 b1 03 3a
        E 25 b1 03 39
        E 25 b1 03 38
        E 25 b1 03 36
        E 25 b1 03 35
        E 25 b1 03 33
        E 25 b1 03 32
        E 25 b1 03 31
        E 25 b1 03 2f
        E 25 b1 03 2e
        E 25 b1 03 2c
        E 25 b1 03 2b
        E 25 b1 03 2a
        E 25 b1 03 28
        E 25 b1 03 27
        E 25 b1 03 25
        E 25 b1 03 24
        E 25 b1 03 23
        E 25 b1 03 21
        E 25 b1 03 20
        E 25 b1 03 1e
        E 25 b1 03 1d
        E 25 b1 03 1c
        E 25 b1 03 1a
        E 25 b1 03 19
        E 25 b1 03 17
        E 25 b1 03 16
        E 25 b1 03 15
        E 25 b1 03 13
        E 25 b1 03 12
        E 25 b1 03 10
        E 25 b1 03 0f
        E 25 b1 03 0e
        E 25 b1 03 0c
        E 25 b1 03 0b
        E 25 b1 03 09
        E 25 b1 03 08
        E 25 b1 03 07
        E 25 b1 03 05
        E 25 b1 03 04
        E 25 b1 03 02
        E 25 b1 03 01
        E 25 b1 03 00
        E 62 b1 03 72
        E 62 b1 03 72
        E 62 b1 03 72
        E 62 b1 03 72
        E 62 b1 03 72
        E 62 b1 03 72
        E 62 b1 03 72
        E 62 b1 03 72
        E 62 b1 03 72
        E 62 b1 03 72
        E 62 b1 03 72
        E 62 b1 03 72
        E 62 b1 03 72
        E 62 b1 03 72
        E 62 b1 03 72
        E 62 b1 03 72
        E 62 b1 03 72
        E 62 b1 03 72
        E 62 b1 03 72
        E 62 b1 03 72
        E 62 b1 03 72
        E 62 b1 03 72
        E 62 b1 03 72
        E 62 b1 03 72
        E 62 b1 03 72
        E 62 b1 03 72
        E 62 b1 03 72
        E 62 b1 03 72
        E 62 b1 03 72
        E 62 b1 03 72
        E 62 b1 03 72
        E 62 b1 03 72
        E 62 b1 03 72
        E 62 b1 03 72
        E 62 b1 03 72
        E 62 b1 03 72
        E 62 b1 03 72
        E 62 b1 03 72
        E 62 b1 03 72
        E 62 b1 03 72
        E 62 b1 03 72
        E 62 b1 03 72
        E 62 b1 03 72
        E 62 b1 03 72
        E 62 b1 03 72
        E 62 b1 03 72
        E 62 b1 03 72
        E 62 b1 03 72
        E 62 b1 03 72
        E 62 b1 03 72
        E 62 b1 03 72
        E 62 b1 03 72
        E 62 b1 03 72
        E 62 b1 03 72
        E 62 b1 03 72
        E 62 b1 03 72
        E 62 b1 03 72
        E 62 b1 03 72
        E 62 b1 03 72
        E 62 b1 03 72
        E 62 b1 03 72
        E 62 b1 03 72
        E 62 b1 03 72
        E 62 b1 03 00
        E 62 b1 03 00
        E 62 b1 03 00
        E 62 b1 03 00
        E 62 b1 03 00
        E 62 b1 03 00
        E 62 b1 03 00
        E 62 b1 03 00
        E 62 b1 03 00
        E 62 b1 03 00
        E 62 b1 03 00
        E 62 b1 03 00
        E 62 b1 03 00
        E 62 b1 03 00
        E 62 b1 03 00
        E 62 b1 03 00
        E 62 b1 03 00
        E 62 b1 03 00
        E 62 b1 03 00
        E 62 b1 03 00
        E 62 b1 03 00
        E 62 b1 03 00
        E 62 b1 03 00
        E 62 b1 03 00
        E 62 b1 03 00
        E 62 b1 03 00
        E 62 b1 03 00
        E 62 b1 03 00
        E 62 b1 03 00
        E 62 b1 03 00
        E 62 b1 03 00
        E 62 b1 03 00
        E 62 b1 03 00
        E 62 b1 03 00
        E 62 b1 03 00
        E 62 b1 03 00
        E 62 b1 03 00
        E 62 b1 03 00
        E 62 b1 03 00
        E 62 b1 03 00
        E 62 b1 03 00
        E 62 b1 03 00
        E 62 b1 03 00
        E 62 b1 03 00
        E 62 b1 03 00
        E 62 b1 03 00
        E 62 b1 03 00
        E 62 b1 03 00
        E 62 b1 03 00
        E 62 b1 03 00
        E 62 b1 03 00
        E 62 b1 03 00
        E 62 b1 03 00
        E 62 b1 03 00
        E 62 b1 03 00
        E 62 b1 03 00
        E 62 b1 03 00
        E 62 b1 03 00
        E 62 b1 03 00
        E 62 b1 03 00
        E 62 b1 03 00
        E 62 b1 03 00
        E 62 b1 03 00
        E 62 b1 03 00
        E 7 b1 03 32
        E 7 b1 03 32
        E 7 b1 03 32
        E 7 b1 03 32
        E 7 b1 03 32
        E 7 b1 03 32
        E 7 b1 03 32
        E 7 b1 03 32
        E 7 b1 03 32
        E 7 b1 03 32
        E 7 b1 03 32
        E 7 b1 03 32
        E 7 b1 03 32
        E 7 b1 03 32
        E 7 b1 03 32
        E 7 b1 03 32
        E 7 b1 03 32
        E 7 b1 03 32
        E 7 b1 03 32
        E 7 b1 03 32
        E 7 b1 03 32
        E 7 b1 03 32
        E 7 b1 03 32
        E 7 b1 03 32
        E 7 b1 03 32
        E 7 b1 03 32
        E 7 b1 03 32
        E 7 b1 03 32
        E 7 b1 03 32
        E 7 b1 03 32
        E 7 b1 03 32
        E 7 b1 03 32
        E 7 b1 03 32
        E 7 b1 03 32
        E 7 b1 03 32
        E 7 b1 03 32
        E 7 b1 03 32
        E 7 b1 03 32
        E 7 b1 03 32
        E 7 b1 03 32
        E 7 b1 03 32
        E 7 b1 03 32
        E 7 b1 03 32
        E 7 b1 03 32
        E 7 b1 03 32
        E 7 b1 03 32
        E 7 b1 03 32
        E 7 b1 03 32
        E 7 b1 03 32
        E 7 b1 03 32
        E 7 b1 03 32
        E 7 b1 03 32
        E 7 b1 03 32
        E 7 b1 03 32
        E 7 b1 03 32
        E 7 b1 03 32
        E 7 b1 03 32
        E 7 b1 03 32
        E 7 b1 03 32
        E 7 b1 03 32
        E 7 b1 03 32
        E 7 b1 03 32
        E 7 b1 03 32
        E 7 b1 03 00
        E 7 b1 03 00
        E 7 b1 03 00
        E 7 b1 03 00
        E 7 b1 03 00
        E 7 b1 03 00
        E 7 b1 03 00
        E 7 b1 03 00
        E 7 b1 03 00
        E 7 b1 03 00
        E 7 b1 03 00
        E 7 b1 03 00
        E 7 b1 03 00
        E 7 b1 03 00
        E 7 b1 03 00
        E 7 b1 03 00
        E 7 b1 03 00
        E 7 b1 03 00
        E 7 b1 03 00
        E 7 b1 03 00
        E 7 b1 03 00
        E 7 b1 03 00
        E 7 b1 03 00
        E 7 b1 03 00
        E 7 b1 03 00
        E 7 b1 03 00
        E 7 b1 03 00
        E 7 b1 03 00
        E 7 b1 03 00
        E 7 b1 03 00
        E 7 b1 03 00
        E 7 b1 03 00
        E 7 b1 03 00
        E 7 b1 03 00
        E 7 b1 03 00
        E 7 b1 03 00
        E 7 b1 03 00
        E 7 b1 03 00
        E 7 b1 03 00
        E 7 b1 03 00
        E 7 b1 03 00
        E 7 b1 03 00
        E 7 b1 03 00
        E 7 b1 03 00
        E 7 b1 03 00
        E 7 b1 03 00
        E 7 b1 03 00
        E 7 b1 03 00
        E 7 b1 03 00
        E 7 b1 03 00
        E 7 b1 03 00
        E 7 b1 03 00
        E 7 b1 03 00
        E 7 b1 03 00
        E 7 b1 03 00
        E 7 b1 03 00
        E 7 b1 03 00
        E 7 b1 03 00
        E 7 b1 03 00
        E 7 b1 03 00
        E 7 b1 03 00
        E 7 b1 03 00
        E 7 b1 03 00
        E 7 b1 03 00
        E 70 b1 03 0c
        E 70 b1 03 0c
        E 70 b1 03 0c
        E 70 b1 03 0c
        E 70 b1 03 0c
        E 70 b1 03 0c
        E 70 b1 03 0c
        E 70 b1 03 0c
        E 70 b1 03 0c
        E 70 b1 03 0c
        E 70 b1 03 0c
        E 70 b1 03 0c
        E 70 b1 03 0c
        E 70 b1 03 0c
        E 70 b1 03 0c
        E 70 b1 03 0c
        E 70 b1 03 0c
        E 70 b1 03 0c
        E 70 b1 03 0c
        E 70 b1 03 0c
        E 70 b1 03 0c
        E 70 b1 03 0c
        E 70 b1 03 0c
        E 70 b1 03 0c
        E 70 b1 03 0c
        E 70 b1 03 0c
        E 70 b1 03 0c
        E 70 b1 03 0c
        E 70 b1 03 0c
        E 70 b1 03 0c
        E 70 b1 03 0c
        E 70 b1 03 0c
        E 70 b1 03 0c
        E 70 b1 03 0c
        E 70 b1 03 0c
        E 70 b1 03 0c
        E 70 b1 03 0c
        E 70 b1 03 0c
        E 70 b1 03 0c
        E 70 b1 03 0c
        E 70 b1 03 0c
        E 70 b1 03 0c
        E 70 b1 03 0c
        E 70 b1 03 0c
        E 70 b1 03 0c
        E 70 b1 03 0c
        E 70 b1 03 0c
        E 70 b1 03 0c
        E 70 b1 03 0c
        E 70 b1 03 0c
        E 70 b1 03 0c
        E 70 b1 03 0c
        E 70 b1 03 0c
        E 70 b1 03 0c
        E 70 b1 03 0c
        E 70 b1 03 0c
        E 70 b1 03 0c
        E 70 b1 03 0c
        E 70 b1 03 0c
        E 70 b1 03 0c
        E 70 b1 03 0c
        E 70 b1 03 0c
        E 70 b1 03 0c
        E 70 b1 03 00
        E 70 b1 03 00
        E 70 b1 03 00
        E 70 b1 03 00
        E 70 b1 03 00
        E 70 b1 03 00
        E 70 b1 03 00
        E 70 b1 03 00
        E 70 b1 03 00
        E 70 b1 03 00
        E 70 b1 03 00
        E 70 b1 03 00
        E 70 b1 03 00
        E 70 b1 03 00
        E 70 b1 03 00
        E 70 b1 03 00
        E 70 b1 03 00
        E 70 b1 03 00
        E 70 b1 03 00
        E 70 b1 03 00
        E 70 b1 03 00
        E 70 b1 03 00
        E 70 b1 03 00
        E 70 b1 03 00
        E 70 b1 03 00
        E 70 b1 03 00
        E 70 b1 03 00
        E 70 b1 03 00
        E 70 b1 03 00
        E 70 b1 03 00
        E 70 b1 03 00
        E 70 b1 03 00
        E 70 b1 03 00
        E 70 b1 03 00
        E 70 b1 03 00
        E 70 b1 03 00
        E 70 b1 03 00
        E 70 b1 03 00
        E 70 b1 03 00
        E 70 b1 03 00
        E 70 b1 03 00
        E 70 b1 03 00
        E 70 b1 03 00
        E 70 b1 03 00
        E 70 b1 03 00
        E 70 b1 03 00
        E 70 b1 03 00
        E 70 b1 03 00
        E 70 b1 03 00
        E 70 b1 03 00
        E 70 b1 03 00
        E 70 b1 03 00
        E 70 b1 03 00
        E 70 b1 03 00
        E 70 b1 03 00
        E 70 b1 03 00
        E 70 b1 03 00
        E 70 b1 03 00
        E 70 b1 03 00
        E 70 b1 03 00
        E 70 b1 03 00
        E 70 b1 03 00
        E 70 b1 03 00
        E 70 b1 03 00
        E 62 b1 03 58
        E 62 b1 03 58
        E 62 b1 03 58
        E 62 b1 03 58
        E 62 b1 03 58
        E 62 b1 03 58
        E 62 b1 03 58
        E 62 b1 03 58
        E 62 b1 03 58
        E 62 b1 03 58
        E 62 b1 03 58
        E 62 b1 03 58
        E 62 b1 03 58
        E 62 b1 03 58
        E 62 b1 03 58
        E 62 b1 03 58
        E 62 b1 03 58
        E 62 b1 03 58
        E 62 b1 03 58
        E 62 b1 03 58
        E 62 b1 03 58
        E 62 b1 03 58
        E 62 b1 03 58
        E 62 b1 03 58
        E 62 b1 03 58
        E 62 b1 03 58
        E 62 b1 03 58
        E 62 b1 03 58
        E 62 b1 03 58
        E 62 b1 03 58
        E 62 b1 03 58
        E 62 b1 03 58
        E 62 b1 03 58
        E 62 b1 03 58
        E 62 b1 03 58
        E 62 b1 03 58
        E 62 b1 03 58
        E 62 b1 03 58
        E 62 b1 03 58
        E 62 b1 03 58
        E 62 b1 03 58
        E 62 b1 03 58
        E 62 b1 03 58
        E 62 b1 03 58
        E 62 b1 03 58
        E 62 b1 03 58
        E 62 b1 03 58
        E 62 b1 03 58
        E 62 b1 03 58
        E 62 b1 03 58
        E 62 b1 03 58
        E 62 b1 03 58
        E 62 b1 03 58
        E 62 b1 03 58
        E 62 b1 03 58
        E 62 b1 03 58
        E 62 b1 03 58
        E 62 b1 03 58
        E 62 b1 03 58
        E 62 b1 03 58
        E 62 b1 03 58
        E 62 b1 03 58
        E 62 b1 03 58
        E 62 b1 03 00
        E 62 b1 03 00
        E 62 b1 03 00
        E 62 b1 03 00
        E 62 b1 03 00
        E 62 b1 03 00
        E 62 b1 03 00
        E 62 b1 03 00
        E 62 b1 03 00
        E 62 b1 03 00
        E 62 b1 03 00
        E 62 b1 03 00
        E 62 b1 03 00
        E 62 b1 03 00
        E 62 b1 03 00
        E 62 b1 03 00
        E 62 b1 03 00
        E 62 b1 03 00
        E 62 b1 03 00
        E 62 b1 03 00
        E 62 b1 03 00
        E 62 b1 03 00
        E 62 b1 03 00
        E 62 b1 03 00
        E 62 b1 03 00
        E 62 b1 03 00
        E 62 b1 03 00
        E 62 b1 03 00
        E 62 b1 03 00
        E 62 b1 03 00
        E 62 b1 03 00
        E 62 b1 03 00
        E 62 b1 03 00
        E 62 b1 03 00
        E 62 b1 03 00
        E 62 b1 03 00
        E 62 b1 03 00
        E 62 b1 03 00
        E 62 b1 03 00
        E 62 b1 03 00
        E 62 b1 03 00
        E 62 b1 03 00
        E 62 b1 03 00
        E 62 b1 03 00
        E 62 b1 03 00
        E 62 b1 03 00
        E 62 b1 03 00
        E 62 b1 03 00
        E 62 b1 03 00
        E 62 b1 03 00
        E 62 b1 03 00
        E 62 b1 03 00
        E 62 b1 03 00
        E 62 b1 03 00
        E 62 b1 03 00
        E 62 b1 03 00
        E 62 b1 03 00
        E 62 b1 03 00
        E 62 b1 03 00
        E 62 b1 03 00
        E 62 b1 03 00
        E 62 b1 03 00
        E 62 b1 03 00
        E 62 b1 03 00
        E 70 b1 03 26
        E 70 b1 03 26
        E 70 b1 03 26
        E 70 b1 03 26
        E 70 b1 03 26
        E 70 b1 03 26
        E 70 b1 03 26
        E 70 b1 03 26
        E 70 b1 03 26
        E 70 b1 03 26
        E 70 b1 03 26
        E 70 b1 03 26
        E 70 b1 03 26
        E 70 b1 03 26
        E 70 b1 03 26
        E 70 b1 03 26
        E 70 b1 03 26
        E 70 b1 03 26
        E 70 b1 03 26
        E 70 b1 03 26
        E 70 b1 03 26
        E 70 b1 03 26
        E 70 b1 03 26
        E 70 b1 03 26
        E 70 b1 03 26
        E 70 b1 03 26
        E 70 b1 03 26
        E 70 b1 03 26
        E 70 b1 03 26
        E 70 b1 03 26
        E 70 b1 03 26
        E 70 b1 03 26
        E 70 b1 03 26
        E 70 b1 03 26
        E 70 b1 03 26
        E 70 b1 03 26
        E 70 b1 03 26
        E 70 b1 03 26
        E 70 b1 03 26
        E 70 b1 03 26
        E 70 b1 03 26
        E 70 b1 03 26
        E 70 b1 03 26
        E 70 b1 03 26
        E 70 b1 03 26
        E 70 b1 03 26
        E 70 b1 03 26
        E 70 b1 03 26
        E 70 b1 03 26
        E 70 b1 03 26
        E 70 b1 03 26
        E 70 b1 03 26
        E 70 b1 03 26
        E 70 b1 03 26
        E 70 b1 03 26
        E 70 b1 03 26
        E 70 b1 03 26
        E 70 b1 03 26
        E 70 b1 03 26
        E 70 b1 03 26
        E 70 b1 03 26
        E 70 b1 03 26
        E 70 b1 03 26
        E 70 b1 03 00
        E 70 b1 03 00
        E 70 b1 03 00
        E 70 b1 03 00
        E 70 b1 03 00
        E 70 b1 03 00
        E 70 b1 03 00
        E 70 b1 03 00
        E 70 b1 03 00
        E 70 b1 03 00
        E 70 b1 03 00
        E 70 b1 03 00
        E 70 b1 03 00
        E 70 b1 03 00
        E 70 b1 03 00
        E 70 b1 03 00
        E 70 b1 03 00
        E 70 b1 03 00
        E 70 b1 03 00
        E 70 b1 03 00
        E 70 b1 03 00
        E 70 b1 03 00
        E 70 b1 03 00
        E 70 b1 03 00
        E 70 b1 03 00
        E 70 b1 03 00
        E 70 b1 03 00
        E 70 b1 03 00
        E 70 b1 03 00
        E 70 b1 03 00
        E 70 b1 03 00
        E 70 b1 03 00
        E 70 b1 03 00
        E 70 b1 03 00
        E 70 b1 03 00
        E 70 b1 03 00
        E 70 b1 03 00
        E 70 b1 03 00
        E 70 b1 03 00
        E 70 b1 03 00
        E 70 b1 03 00
        E 70 b1 03 00
        E 70 b1 03 00
        E 70 b1 03 00
        E 70 b1 03 00
        E 70 b1 03 00
        E 70 b1 03 00
        E 70 b1 03 00
        E 70 b1 03 00
        E 70 b1 03 00
        E 70 b1 03 00
        E 70 b1 03 00
        E 70 b1 03 00
        E 70 b1 03 00
        E 70 b1 03 00
        E 70 b1 03 00
        E 70 b1 03 00
        E 70 b1 03 00
        E 70 b1 03 00
        E 70 b1 03 00
        E 70 b1 03 00
        E 70 b1 03 00
        E 70 b1 03 00
        E 70 b1 03 00
        E 23 b1 03 4c
        E 23 b1 03 4c
        E 23 b1 03 4c
        E 23 b1 03 4c
        E 23 b1 03 4c
        E 23 b1 03 4c
        E 23 b1 03 4c
        E 23 b1 03 4c
        E 23 b1 03 4c
        E 23 b1 03 4c
        E 23 b1 03 4c
        E 23 b1 03 4c
        E 23 b1 03 4c
        E 23 b1 03 4c
        E 23 b1 03 4c
        E 23 b1 03 4c
        E 23 b1 03 4c
        E 23 b1 03 4c
        E 23 b1 03 4c
        E 23 b1 03 4c
        E 23 b1 03 4c
        E 23 b1 03 4c
        E 23 b1 03 4c
        E 23 b1 03 4c
        E 23 b1 03 4c
        E 23 b1 03 4c
        E 23 b1 03 4c
        E 23 b1 03 4c
        E 23 b1 03 4c
        E 23 b1 03 4c
        E 23 b1 03 4c
        E 23 b1 03 4c
        E 23 b1 03 4c
        E 23 b1 03 4c
        E 23 b1 03 4c
        E 23 b1 03 4c
        E 23 b1 03 4c
        E 23 b1 03 4c
        E 23 b1 03 4c
        E 23 b1 03 4c
        E 23 b1 03 4c
        E 23 b1 03 4c
        E 23 b1 03 4c
        E 23 b1 03 4c
        E 23 b1 03 4c
        E 23 b1 03 4c
        E 23 b1 03 4c
        E 23 b1 03 4c
        E 23 b1 03 4c
        E 23 b1 03 4c
        E 23 b1 03 4c
        E 23 b1 03 4c
        E 23 b1 03 4c
        E 23 b1 03 4c
        E 23 b1 03 4c
        E 23 b1 03 4c
        E 23 b1 03 4c
        E 23 b1 03 4c
        E 23 b1 03 4c
        E 23 b1 03 4c
        E 23 b1 03 4c
        E 23 b1 03 4c
        E 23 b1 03 4c
        E 23 b1 03 00
        E 23 b1 03 00
        E 23 b1 03 00
        E 23 b1 03 00
        E 23 b1 03 00
        E 23 b1 03 00
        E 23 b1 03 00
        E 23 b1 03 00
        E 23 b1 03 00
        E 23 b1 03 00
        E 23 b1 03 00
        E 23 b1 03 00
        E 23 b1 03 00
        E 23 b1 03 00
        E 23 b1 03 00
        E 23 b1 03 00
        E 23 b1 03 00
        E 23 b1 03 00
        E 23 b1 03 00
        E 23 b1 03 00
        E 23 b1 03 00
        E 23 b1 03 00
        E 23 b1 03 00
        E 23 b1 03 00
        E 23 b1 03 00
        E 23 b1 03 00
        E 23 b1 03 00
        E 23 b1 03 00
        E 23 b1 03 00
        E 23 b1 03 00
        E 23 b1 03 00
        E 23 b1 03 00
        E 23 b1 03 00
        E 23 b1 03 00
        E 23 b1 03 00
        E 23 b1 03 00
        E 23 b1 03 00
        E 23 b1 03 00
        E 23 b1 03 00
        E 23 b1 03 00
        E 23 b1 03 00
        E 23 b1 03 00
        E 23 b1 03 00
        E 23 b1 03 00
        E 23 b1 03 00
        E 23 b1 03 00
        E 23 b1 03 00
        E 23 b1 03 00
        E 23 b1 03 00
        E 23 b1 03 00
        E 23 b1 03 00
        E 23 b1 03 00
        E 23 b1 03 00
        E 23 b1 03 00
        E 23 b1 03 00
        E 23 b1 03 00
        E 23 b1 03 00
        E 23 b1 03 00
        E 23 b1 03 00
        E 23 b1 03 00
        E 23 b1 03 00
        E 23 b1 03 00
        E 23 b1 03 00
        E 23 b1 03 00
        E 62 b1 03 72
        E 62 b1 03 72
        E 62 b1 03 72
        E 62 b1 03 72
        E 62 b1 03 72
        E 62 b1 03 72
        E 62 b1 03 72
        E 62 b1 03 72
        E 62 b1 03 72
        E 62 b1 03 72
        E 62 b1 03 72
        E 62 b1 03 72
        E 62 b1 03 72
        E 62 b1 03 72
        E 62 b1 03 72
        E 62 b1 03 72
        E 62 b1 03 72
        E 62 b1 03 72
        E 62 b1 03 72
        E 62 b1 03 72
        E 62 b1 03 72
        E 62 b1 03 72
        E 62 b1 03 72
        E 62 b1 03 72
        E 62 b1 03 72
        E 62 b1 03 72
        E 62 b1 03 72
        E 62 b1 03 72
        E 62 b1 03 72
        E 62 b1 03 72
        E 62 b1 03 72
        E 62 b1 03 72
        E 62 b1 03 72
        E 62 b1 03 72
        E 62 b1 03 72
        E 62 b1 03 72
        E 62 b1 03 72
        E 62 b1 03 72
        E 62 b1 03 72
        E 62 b1 03 72
        E 62 b1 03 72
        E 62 b1 03 72
        E 62 b1 03 72
        E 62 b1 03 72
        E 62 b1 03 72
        E 62 b1 03 72
        E 62 b1 03 72
        E 62 b1 03 72
        E 62 b1 03 72
        E 62 b1 03 72
        E 62 b1 03 72
        E 62 b1 03 72
        E 62 b1 03 72
        E 62 b1 03 72
        E 62 b1 03 72
        E 62 b1 03 72
        E 62 b1 03 72
        E 62 b1 03 72
        E 62 b1 03 72
        E 62 b1 03 72
        E 62 b1 03 72
        E 62 b1 03 72
        E 62 b1 03 72
        E 62 b1 03 00
        E 62 b1 03 00
        E 62 b1 03 00
        E 62 b1 03 00
        E 62 b1 03 00
        E 62 b1 03 00
        E 62 b1 03 00
        E 62 b1 03 00
        E 62 b1 03 00
        E 62 b1 03 00
        E 62 b1 03 00
        E 62 b1 03 00
        E 62 b1 03 00
        E 62 b1 03 00
        E 62 b1 03 00
        E 62 b1 03 00
        E 62 b1 03 00
        E 62 b1 03 00
        E 62 b1 03 00
        E 62 b1 03 00
        E 62 b1 03 00
        E 62 b1 03 00
        E 62 b1 03 00
        E 62 b1 03 00
        E 62 b1 03 00
        E 62 b1 03 00
        E 62 b1 03 00
        E 62 b1 03 00
        E 62 b1 03 00
        E 62 b1 03 00
        E 62 b1 03 00
        E 62 b1 03 00
        E 62 b1 03 00
        E 62 b1 03 00
        E 62 b1 03 00
        E 62 b1 03 00
        E 62 b1 03 00
        E 62 b1 03 00
        E 62 b1 03 00
        E 62 b1 03 00
        E 62 b1 03 00
        E 62 b1 03 00
        E 62 b1 03 00
        E 62 b1 03 00
        E 62 b1 03 00
        E 62 b1 03 00
        E 62 b1 03 00
        E 62 b1 03 00
        E 62 b1 03 00
        E 62 b1 03 00
        E 62 b1 03 00
        E 62 b1 03 00
        E 62 b1 03 00
        E 62 b1 03 00
        E 62 b1 03 00
        E 62 b1 03 00
        E 62 b1 03 00
        E 62 b1 03 00
        E 62 b1 03 00
        E 62 b1 03 00
        E 62 b1 03 00
        E 62 b1 03 00
        E 62 b1 03 00
        E 62 b1 03 00
        E 7 b1 03 32
        E 7 b1 03 32
        E 7 b1 03 32
        E 7 b1 03 32
        E 7 b1 03 32
        E 7 b1 03 32
        E 7 b1 03 32
        E 7 b1 03 32
        E 7 b1 03 32
        E 7 b1 03 32
        E 7 b1 03 32
        E 7 b1 03 32
        E 7 b1 03 32
        E 7 b1 03 32
        E 7 b1 03 32
        E 7 b1 03 32
        E 7 b1 03 32
        E 7 b1 03 32
        E 7 b1 03 32
        E 7 b1 03 32
        E 7 b1 03 32
        E 7 b1 03 32
        E 7 b1 03 32
        E 7 b1 03 32
        E 7 b1 03 32
        E 7 b1 03 32
        E 7 b1 03 32
        E 7 b1 03 32
        E 7 b1 03 32
        E 7 b1 03 32
        E 7 b1 03 32
        E 7 b1 03 32
        E 7 b1 03 32
        E 7 b1 03 32
        E 7 b1 03 32
        E 7 b1 03 32
        E 7 b1 03 32
        E 7 b1 03 32
        E 7 b1 03 32
        E 7 b1 03 32
        E 7 b1 03 32
        E 7 b1 03 32
        E 7 b1 03 32
        E 7 b1 03 32
        E 7 b1 03 32
        E 7 b1 03 32
        E 7 b1 03 32
        E 7 b1 03 32
        E 7 b1 03 32
        E 7 b1 03 32
        E 7 b1 03 32
        E 7 b1 03 32
        E 7 b1 03 32
        E 7 b1 03 32
        E 7 b1 03 32
        E 7 b1 03 32
        E 7 b1 03 32
        E 7 b1 03 32
        E 7 b1 03 32
        E 7 b1 03 32
        E 7 b1 03 32
        E 7 b1 03 32
        E 7 b1 03 32
        E 7 b1 03 00
        E 7 b1 03 00
        E 7 b1 03 00
        E 7 b1 03 00
        E 7 b1 03 00
        E 7 b1 03 00
        E 7 b1 03 00
        E 7 b1 03 00
        E 7 b1 03 00
        E 7 b1 03 00
        E 7 b1 03 00
        E 7 b1 03 00
        E 7 b1 03 00
        E 7 b1 03 00
        E 7 b1 03 00
        E 7 b1 03 00
        E 7 b1 03 00
        E 7 b1 03 00
        E 7 b1 03 00
        E 7 b1 03 00
        E 7 b1 03 00
        E 7 b1 03 00
        E 7 b1 03 00
        E 7 b1 03 00
        E 7 b1 03 00
        E 7 b1 03 00
        E 7 b1 03 00
        E 7 b1 03 00
        E 7 b1 03 00
        E 7 b1 03 00
        E 7 b1 03 00
        E 7 b1 03 00
        E 7 b1 03 00
        E 7 b1 03 00
        E 7 b1 03 00
        E 7 b1 03 00
        E 7 b1 03 00
        E 7 b1 03 00
        E 7 b1 03 00
        E 7 b1 03 00
        E 7 b1 03 00
        E 7 b1 03 00
        E 7 b1 03 00
        E 7 b1 03 00
        E 7 b1 03 00
        E 7 b1 03 00
        E 7 b1 03 00
        E 7 b1 03 00
        E 7 b1 03 00
        E 7 b1 03 00
        E 7 b1 03 00
        E 7 b1 03 00
        E 7 b1 03 00
        E 7 b1 03 00
        E 7 b1 03 00
        E 7 b1 03 00
        E 7 b1 03 00
        E 7 b1 03 00
        E 7 b1 03 00
        E 7 b1 03 00
        E 7 b1 03 00
        E 7 b1 03 00
        E 7 b1 03 00
        E 7 b1 03 00
        E 70 b1 03 0c
        E 70 b1 03 0c
        E 70 b1 03 0c
        E 70 b1 03 0c
        E 70 b1 03 0c
        E 70 b1 03 0c
        E 70 b1 03 0c
        E 70 b1 03 0c
        E 70 b1 03 0c
        E 70 b1 03 0c
        E 70 b1 03 0c
        E 70 b1 03 0c
        E 70 b1 03 0c
        E 70 b1 03 0c
        E 70 b1 03 0c
        E 70 b1 03 0c
        E 70 b1 03 0c
        E 70 b1 03 0c
        E 70 b1 03 0c
        E 70 b1 03 0c
        E 70 b1 03 0c
        E 70 b1 03 0c
        E 70 b1 03 0c
        E 70 b1 03 0c
        E 70 b1 03 0c
        E 70 b1 03 0c
        E 70 b1 03 0c
        E 70 b1 03 0c
        E 70 b1 03 0c
        E 70 b1 03 0c
        E 70 b1 03 0c
        E 70 b1 03 0c
        E 70 b1 03 0c
        E 70 b1 03 0c
        E 70 b1 03 0c
        E 70 b1 03 0c
        E 70 b1 03 0c
        E 70 b1 03 0c
        E 70 b1 03 0c
        E 70 b1 03 0c
        E 70 b1 03 0c
        E 70 b1 03 0c
        E 70 b1 03 0c
        E 70 b1 03 0c
        E 70 b1 03 0c
        E 70 b1 03 0c
        E 70 b1 03 0c
        E 70 b1 03 0c
        E 70 b1 03 0c
        E 70 b1 03 0c
        E 70 b1 03 0c
        E 70 b1 03 0c
        E 70 b1 03 0c
        E 70 b1 03 0c
        E 70 b1 03 0c
        E 70 b1 03 0c
        E 70 b1 03 0c
        E 70 b1 03 0c
        E 70 b1 03 0c
        E 70 b1 03 0c
        E 70 b1 03 0c
        E 70 b1 03 0c
        E 70 b1 03 0c
        E 70 b1 03 00
        E 70 b1 03 00
        E 70 b1 03 00
        E 70 b1 03 00
        E 70 b1 03 00
        E 70 b1 03 00
        E 70 b1 03 00
        E 70 b1 03 00
        E 70 b1 03 00
        E 70 b1 03 00
        E 70 b1 03 00
        E 70 b1 03 00
        E 70 b1 03 00
        E 70 b1 03 00
        E 70 b1 03 00
        E 70 b1 03 00
        E 70 b1 03 00
        E 70 b1 03 00
        E 70 b1 03 00
        E 70 b1 03 00
        E 70 b1 03 00
        E 70 b1 03 00
        E 70 b1 03 00
        E 70 b1 03 00
        E 70 b1 03 00
        E 70 b1 03 00
        E 70 b1 03 00
        E 70 b1 03 00
        E 70 b1 03 00
        E 70 b1 03 00
        E 70 b1 03 00
        E 70 b1 03 00
        E 70 b1 03 00
        E 70 b1 03 00
        E 70 b1 03 00
        E 70 b1 03 00
        E 70 b1 03 00
        E 70 b1 03 00
        E 70 b1 03 00
        E 70 b1 03 00
        E 70 b1 03 00
        E 70 b1 03 00
        E 70 b1 03 00
        E 70 b1 03 00
        E 70 b1 03 00
        E 70 b1 03 00
        E 70 b1 03 00
        E 70 b1 03 00
        E 70 b1 03 00
        E 70 b1 03 00
        E 70 b1 03 00
        E 70 b1 03 00
        E 70 b1 03 00
        E 70 b1 03 00
        E 70 b1 03 00
        E 70 b1 03 00
        E 70 b1 03 00
        E 70 b1 03 00
        E 70 b1 03 00
        E 70 b1 03 00
        E 70 b1 03 00
        E 70 b1 03 00
        E 70 b1 03 00
        E 70 b1 03 00
        E 62 b1 03 58
        E 62 b1 03 58
        E 62 b1 03 58
        E 62 b1 03 58
        E 62 b1 03 58
        E 62 b1 03 58
        E 62 b1 03 58
        E 62 b1 03 58
        E 62 b1 03 58
        E 62 b1 03 58
        E 62 b1 03 58
        E 62 b1 03 58
        E 62 b1 03 58
        E 62 b1 03 58
        E 62 b1 03 58
        E 62 b1 03 58
        E 62 b1 03 58
        E 62 b1 03 58
        E 62 b1 03 58
        E 62 b1 03 58
        E 62 b1 03 58
        E 62 b1 03 58
        E 62 b1 03 58
        E 62 b1 03 58
        E 62 b1 03 58
        E 62 b1 03 58
        E 62 b1 03 58
        E 62 b1 03 58
        E 62 b1 03 58
        E 62 b1 03 58
        E 62 b1 03 58
        E 62 b1 03 58
        E 62 b1 03 58
        E 62 b1 03 58
        E 62 b1 03 58
        E 62 b1 03 58
        E 62 b1 03 58
        E 62 b1 03 58
        E 62 b1 03 58
        E 62 b1 03 58
        E 62 b1 03 58
        E 62 b1 03 58
        E 62 b1 03 58
        E 62 b1 03 58
        E 62 b1 03 58
        E 62 b1 03 58
        E 62 b1 03 58
        E 62 b1 03 58
        E 62 b1 03 58
        E 62 b1 03 58
        E 62 b1 03 58
        E 62 b1 03 58
        E 62 b1 03 58
        E 62 b1 03 58
        E 62 b1 03 58
        E 62 b1 03 58
        E 62 b1 03 58
        E 62 b1 03 58
        E 62 b1 03 58
        E 62 b1 03 58
        E 62 b1 03 58
        E 62 b1 03 58
        E 62 b1 03 58
        E 62 b1 03 00
        E 62 b1 03 00
        E 62 b1 03 00
        E 62 b1 03 00
        E 62 b1 03 00
        E 62 b1 03 00
        E 62 b1 03 00
        E 62 b1 03 00
        E 62 b1 03 00
        E 62 b1 03 00
        E 62 b1 03 00
        E 62 b1 03 00
        E 62 b1 03 00
        E 62 b1 03 00
        E 62 b1 03 00
        E 62 b1 03 00
        E 62 b1 03 00
        E 62 b1 03 00
        E 62 b1 03 00
        E 62 b1 03 00
        E 62 b1 03 00
        E 62 b1 03 00
        E 62 b1 03 00
        E 62 b1 03 00
        E 62 b1 03 00
        E 62 b1 03 00
        E 62 b1 03 00
        E 62 b1 03 00
        E 62 b1 03 00
        E 62 b1 03 00
        E 62 b1 03 00
        E 62 b1 03 00
        E 62 b1 03 00
        E 62 b1 03 00
        E 62 b1 03 00
        E 62 b1 03 00
        E 62 b1 03 00
        E 62 b1 03 00
        E 62 b1 03 00
        E 62 b1 03 00
        E 62 b1 03 00
        E 62 b1 03 00
        E 62 b1 03 00
        E 62 b1 03 00
        E 62 b1 03 00
        E 62 b1 03 00
        E 62 b1 03 00
        E 62 b1 03 00
        E 62 b1 03 00
        E 62 b1 03 00
        E 62 b1 03 00
        E 62 b1 03 00
        E 62 b1 03 00
        E 62 b1 03 00
        E 62 b1 03 00
        E 62 b1 03 00
        E 62 b1 03 00
        E 62 b1 03 00
        E 62 b1 03 00
        E 62 b1 03 00
        E 62 b1 03 00
        E 62 b1 03 00
        E 62 b1 03 00
        E 62 b1 03 00
        E 70 b1 03 26
        E 70 b1 03 26
        E 70 b1 03 26
        E 70 b1 03 26
        E 70 b1 03 26
        E 70 b1 03 26
        E 70 b1 03 26
        E 70 b1 03 26
        E 70 b1 03 26
        E 70 b1 03 26
        E 70 b1 03 26
        E 70 b1 03 26
        E 70 b1 03 26
        E 70 b1 03 26
        E 70 b1 03 26
        E 70 b1 03 26
        E 70 b1 03 26
        E 70 b1 03 26
        E 70 b1 03 26
        E 70 b1 03 26
        E 70 b1 03 26
        E 70 b1 03 26
        E 70 b1 03 26
        E 70 b1 03 26
        E 70 b1 03 26
        E 70 b1 03 26
        E 70 b1 03 26
        E 70 b1 03 26
        E 70 b1 03 26
        E 70 b1 03 26
        E 70 b1 03 26
        E 70 b1 03 26
        E 70 b1 03 26
        E 70 b1 03 26
        E 70 b1 03 26
        E 70 b1 03 26
        E 70 b1 03 26
        E 70 b1 03 26
        E 70 b1 03 26
        E 70 b1 03 26
        E 70 b1 03 26
        E 70 b1 03 26
        E 70 b1 03 26
        E 70 b1 03 26
        E 70 b1 03 26
        E 70 b1 03 26
        E 70 b1 03 26
        E 70 b1 03 26
        E 70 b1 03 26
        E 70 b1 03 26
        E 70 b1 03 26
        E 70 b1 03 26
        E 70 b1 03 26
        E 70 b1 03 26
        E 70 b1 03 26
        E 70 b1 03 26
        E 70 b1 03 26
        E 70 b1 03 26
        E 70 b1 03 26
        E 70 b1 03 26
        E 70 b1 03 26
        E 70 b1 03 26
        E 70 b1 03 26
        E 70 b1 03 00
        E 70 b1 03 00
        E 70 b1 03 00
        E 70 b1 03 00
        E 70 b1 03 00
        E 70 b1 03 00
        E 70 b1 03 00
        E 70 b1 03 00
        E 70 b1 03 00
        E 70 b1 03 00
        E 70 b1 03 00
        E 70 b1 03 00
        E 70 b1 03 00
        E 70 b1 03 00
        E 70 b1 03 00
        E 70 b1 03 00
        E 70 b1 03 00
        E 70 b1 03 00
        E 70 b1 03 00
        E 70 b1 03 00
        E 70 b1 03 00
        E 70 b1 03 00
        E 70 b1 03 00
        E 70 b1 03 00
        E 70 b1 03 00
        E 70 b1 03 00
        E 70 b1 03 00
        E 70 b1 03 00
        E 70 b1 03 00
        E 70 b1 03 00
        E 70 b1 03 00
        E 70 b1 03 00
        E 70 b1 03 00
        E 70 b1 03 00
        E 70 b1 03 00
        E 70 b1 03 00
        E 70 b1 03 00
        E 70 b1 03 00
        E 70 b1 03 00
        E 70 b1 03 00
        E 70 b1 03 00
        E 70 b1 03 00
        E 70 b1 03 00
        E 70 b1 03 00
        E 70 b1 03 00
        E 70 b1 03 00
        E 70 b1 03 00
        E 70 b1 03 00
        E 70 b1 03 00
        E 70 b1 03 00
        E 70 b1 03 00
        E 70 b1 03 00
        E 70 b1 03 00
        E 70 b1 03 00
        E 70 b1 03 00
        E 70 b1 03 00
        E 70 b1 03 00
        E 70 b1 03 00
        E 70 b1 03 00
        E 70 b1 03 00
        E 70 b1 03 00
        E 70 b1 03 00
        E 70 b1 03 00
        E 70 b1 03 00
        E 23 b1 03 4c
        E 23 b1 03 4c
        E 23 b1 03 4c
        E 23 b1 03 4c
        E 23 b1 03 4c
        E 23 b1 03 4c
        E 23 b1 03 4c
        E 23 b1 03 4c
        E 23 b1 03 4c
        E 23 b1 03 4c
        E 23 b1 03 4c
        E 23 b1 03 4c
        E 23 b1 03 4c
        E 23 b1 03 4c
        E 23 b1 03 4c
        E 23 b1 03 4c
        E 23 b1 03 4c
        E 23 b1 03 4c
        E 23 b1 03 4c
        E 23 b1 03 4c
        E 23 b1 03 4c
        E 23 b1 03 4c
        E 23 b1 03 4c
        E 23 b1 03 4c
        E 23 b1 03 4c
        E 23 b1 03 4c
        E 23 b1 03 4c
        E 23 b1 03 4c
        E 23 b1 03 4c
        E 23 b1 03 4c
        E 23 b1 03 4c
        E 23 b1 03 4c
        E 23 b1 03 4c
        E 23 b1 03 4c
        E 23 b1 03 4c
        E 23 b1 03 4c
        E 23 b1 03 4c
        E 23 b1 03 4c
        E 23 b1 03 4c
        E 23 b1 03 4c
        E 23 b1 03 4c
        E 23 b1 03 4c
        E 23 b1 03 4c
        E 23 b1 03 4c
        E 23 b1 03 4c
        E 23 b1 03 4c
        E 23 b1 03 4c
        E 23 b1 03 4c
        E 23 b1 03 4c
        E 23 b1 03 4c
        E 23 b1 03 4c
        E 23 b1 03 4c
        E 23 b1 03 4c
        E 23 b1 03 4c
        E 23 b1 03 4c
        E 23 b1 03 4c
        E 23 b1 03 4c
        E 23 b1 03 4c
        E 23 b1 03 4c
        E 23 b1 03 4c
        E 23 b1 03 4c
        E 23 b1 03 4c
        E 23 b1 03 4c
        E 23 b1 03 00
        E 23 b1 03 00
        E 23 b1 03 00
        E 23 b1 03 00
        E 23 b1 03 00
        E 23 b1 03 00
        E 23 b1 03 00
        E 23 b1 03 00
        E 23 b1 03 00
        E 23 b1 03 00
        E 23 b1 03 00
        E 23 b1 03 00
        E 23 b1 03 00
        E 23 b1 03 00
        E 23 b1 03 00
        E 23 b1 03 00
        E 23 b1 03 00
        E 23 b1 03 00
        E 23 b1 03 00
        E 23 b1 03 00
        E 23 b1 03 00
        E 23 b1 03 00
        E 23 b1 03 00
        E 23 b1 03 00
        E 23 b1 03 00
        E 23 b1 03 00
        E 23 b1 03 00
        E 23 b1 03 00
        E 23 b1 03 00
        E 23 b1 03 00
        E 23 b1 03 00
        E 23 b1 03 00
        E 23 b1 03 00
        E 23 b1 03 00
        E 23 b1 03 00
        E 23 b1 03 00
        E 23 b1 03 00
        E 23 b1 03 00
        E 23 b1 03 00
        E 23 b1 03 00
        E 23 b1 03 00
        E 23 b1 03 00
        E 23 b1 03 00
        E 23 b1 03 00
        E 23 b1 03 00
        E 23 b1 03 00
        E 23 b1 03 00
        E 23 b1 03 00
        E 23 b1 03 00
        E 23 b1 03 00
        E 23 b1 03 00
        E 23 b1 03 00
        E 23 b1 03 00
        E 23 b1 03 00
        E 23 b1 03 00
        E 23 b1 03 00
        E 23 b1 03 00
        E 23 b1 03 00
        E 23 b1 03 00
        E 23 b1 03 00
        E 23 b1 03 00
        E 23 b1 03 00
        E 23 b1 03 00
        E 23 b1 03 00
        E 62 b1 03 72
        E 62 b1 03 72
        E 62 b1 03 72
        E 62 b1 03 72
        E 62 b1 03 72
        E 62 b1 03 72
        E 62 b1 03 72
        E 62 b1 03 72
        E 62 b1 03 72
        E 62 b1 03 72
        E 62 b1 03 72
        E 62 b1 03 72
        E 62 b1 03 72
        E 62 b1 03 72
        E 62 b1 03 72
        E 62 b1 03 72
        E 62 b1 03 72
        E 62 b1 03 72
        E 62 b1 03 72
        E 62 b1 03 72
        E 62 b1 03 72
        E 62 b1 03 72
        E 62 b1 03 72
        E 62 b1 03 72
        E 62 b1 03 72
        E 62 b1 03 72
        E 62 b1 03 72
        E 62 b1 03 72
        E 62 b1 03 72
        E 62 b1 03 72
        E 62 b1 03 72
        E 62 b1 03 72
        E 62 b1 03 72
        E 62 b1 03 72
        E 62 b1 03 72
        E 62 b1 03 72
        E 62 b1 03 72
        E 62 b1 03 72
        E 62 b1 03 72
        E 62 b1 03 72
        E 62 b1 03 72
        E 62 b1 03 72
        E 62 b1 03 72
        E 62 b1 03 72
        E 62 b1 03 72
        E 62 b1 03 72
        E 62 b1 03 72
        E 62 b1 03 72
        E 62 b1 03 72
        E 62 b1 03 72
        E 62 b1 03 72
        E 62 b1 03 72
        E 62 b1 03 72
        E 62 b1 03 72
        E 62 b1 03 72
        E 62 b1 03 72
        E 62 b1 03 72
        E 62 b1 03 72
        E 62 b1 03 72
        E 62 b1 03 72
        E 62 b1 03 72
        E 62 b1 03 72
        E 62 b1 03 72
        E 62 b1 03 00
        E 62 b1 03 00
        E 62 b1 03 00
        E 62 b1 03 00
        E 62 b1 03 00
        E 62 b1 03 00
        E 62 b1 03 00
        E 62 b1 03 00
        E 62 b1 03 00
        E 62 b1 03 00
        E 62 b1 03 00
        E 62 b1 03 00
        E 62 b1 03 00
        E 62 b1 03 00
        E 62 b1 03 00
        E 62 b1 03 00
        E 62 b1 03 00
        E 62 b1 03 00
        E 62 b1 03 00
        E 62 b1 03 00
        E 62 b1 03 00
        E 62 b1 03 00
        E 62 b1 03 00
        E 62 b1 03 00
        E 62 b1 03 00
        E 62 b1 03 00
        E 62 b1 03 00
        E 62 b1 03 00
        E 62 b1 03 00
        E 62 b1 03 00
        E 62 b1 03 00
        E 62 b1 03 00
        E 62 b1 03 00
        E 62 b1 03 00
        E 62 b1 03 00
        E 62 b1 03 00
        E 62 b1 03 00
        E 62 b1 03 00
        E 62 b1 03 00
        E 62 b1 03 00
        E 62 b1 03 00
        E 62 b1 03 00
        E 62 b1 03 00
        E 62 b1 03 00
        E 62 b1 03 00
        E 62 b1 03 00
        E 62 b1 03 00
        E 62 b1 03 00
        E 62 b1 03 00
        E 62 b1 03 00
        E 62 b1 03 00
        E 62 b1 03 00
        E 62 b1 03 00
        E 62 b1 03 00
        E 62 b1 03 00
        E 62 b1 03 00
        E 62 b1 03 00
        E 62 b1 03 00
        E 62 b1 03 00
        E 62 b1 03 00
        E 62 b1 03 00
        E 62 b1 03 00
        E 62 b1 03 00
        E 62 b1 03 00
        E 7 b1 03 32
        E 7 b1 03 32
        E 7 b1 03 32
        E 7 b1 03 32
        E 7 b1 03 32
        E 7 b1 03 32
        E 7 b1 03 32
        E 7 b1 03 32
        E 7 b1 03 32
        E 7 b1 03 32
        E 7 b1 03 32
        E 7 b1 03 32
        E 7 b1 03 32
        E 7 b1 03 32
        E 7 b1 03 32
        E 7 b1 03 32
        E 7 b1 03 32
        E 7 b1 03 32
        E 7 b1 03 32
        E 7 b1 03 32
        E 7 b1 03 32
        E 7 b1 03 32
        E 7 b1 03 32
        E 7 b1 03 32
        E 7 b1 03 32
        E 7 b1 03 32
        E 7 b1 03 32
        E 7 b1 03 32
        E 7 b1 03 32
        E 7 b1 03 32
        E 7 b1 03 32
        E 7 b1 03 32
        E 7 b1 03 32
        E 7 b1 03 32
        E 7 b1 03 32
        E 7 b1 03 32
        E 7 b1 03 32
        E 7 b1 03 32
        E 7 b1 03 32
        E 7 b1 03 32
        E 7 b1 03 32
        E 7 b1 03 32
        E 7 b1 03 32
        E 7 b1 03 32
        E 7 b1 03 32
        E 7 b1 03 32
        E 7 b1 03 32
        E 7 b1 03 32
        E 7 b1 03 32
        E 7 b1 03 32
        E 7 b1 03 32
        E 7 b1 03 32
        E 7 b1 03 32
        E 7 b1 03 32
        E 7 b1 03 32
        E 7 b1 03 32
        E 7 b1 03 32
        E 7 b1 03 32
        E 7 b1 03 32
        E 7 b1 03 32
        E 7 b1 03 32
        E 7 b1 03 32
        E 7 b1 03 32
        E 7 b1 03 00
        E 7 b1 03 00
        E 7 b1 03 00
        E 7 b1 03 00
        E 7 b1 03 00
        E 7 b1 03 00
        E 7 b1 03 00
        E 7 b1 03 00
        E 7 b1 03 00
        E 7 b1 03 00
        E 7 b1 03 00
        E 7 b1 03 00
        E 7 b1 03 00
        E 7 b1 03 00
        E 7 b1 03 00
        E 7 b1 03 00
        E 7 b1 03 00
        E 7 b1 03 00
        E 7 b1 03 00
        E 7 b1 03 00
        E 7 b1 03 00
        E 7 b1 03 00
        E 7 b1 03 00
        E 7 b1 03 00
        E 7 b1 03 00
        E 7 b1 03 00
        E 7 b1 03 00
        E 7 b1 03 00
        E 7 b1 03 00
        E 7 b1 03 00
        E 7 b1 03 00
        E 7 b1 03 00
        E 7 b1 03 00
        E 7 b1 03 00
        E 7 b1 03 00
        E 7 b1 03 00
        E 7 b1 03 00
        E 7 b1 03 00
        E 7 b1 03 00
        E 7 b1 03 00
        E 7 b1 03 00
        E 7 b1 03 00
        E 7 b1 03 00
        E 7 b1 03 00
        E 7 b1 03 00
        E 7 b1 03 00
        E 7 b1 03 00
        E 7 b1 03 00
        E 7 b1 03 00
        E 7 b1 03 00
        E 7 b1 03 00
        E 7 b1 03 00
        E 7 b1 03 00
        E 7 b1 03 00
        E 7 b1 03 00
        E 7 b1 03 00
        E 7 b1 03 00
        E 7 b1 03 00
        E 7 b1 03 00
        E 7 b1 03 00
        E 7 b1 03 00
        E 7 b1 03 00
        E 7 b1 03 00
        E 7 b1 03 00
        E 71 b1 03 13
        E 71 b1 03 14
        E 71 b1 03 15
        E 71 b1 03 15
        E 71 b1 03 16
        E 71 b1 03 17
        E 71 b1 03 18
        E 71 b1 03 19
        E 71 b1 03 1a
        E 71 b1 03 1b
        E 71 b1 03 1c
        E 71 b1 03 1c
        E 71 b1 03 1d
        E 71 b1 03 1e
        E 71 b1 03 1f
        E 71 b1 03 1f
        E 71 b1 03 20
        E 71 b1 03 21
        E 71 b1 03 21
        E 71 b1 03 22
        E 71 b1 03 23
        E 71 b1 03 23
        E 71 b1 03 24
        E 71 b1 03 24
        E 71 b1 03 24
        E 71 b1 03 24
        E 71 b1 03 25
        E 71 b1 03 25
        E 71 b1 03 25
        E 71 b1 03 25
        E 71 b1 03 26
        E 71 b1 03 26
        E 71 b1 03 26
        E 71 b1 03 26
        E 71 b1 03 26
        E 71 b1 03 25
        E 71 b1 03 25
        E 71 b1 03 25
        E 71 b1 03 25
        E 71 b1 03 24
        E 71 b1 03 24
        E 71 b1 03 24
        E 71 b1 03 23
        E 71 b1 03 23
        E 71 b1 03 22
        E 71 b1 03 22
        E 71 b1 03 21
        E 71 b1 03 21
        E 71 b1 03 20
        E 71 b1 03 1f
        E 71 b1 03 1e
        E 71 b1 03 1e
        E 71 b1 03 1d
        E 71 b1 03 1c
        E 71 b1 03 1b
        E 71 b1 03 1a
        E 71 b1 03 1a
        E 71 b1 03 19
        E 71 b1 03 18
        E 71 b1 03 17
        E 71 b1 03 16
        E 71 b1 03 15
        E 71 b1 03 14
        E 71 b1 03 13
        E 71 b1 03 12
        E 71 b1 03 11
        E 71 b1 03 10
        E 71 b1 03 0f
        E 71 b1 03 0e
        E 71 b1 03 0d
        E 71 b1 03 0c
        E 71 b1 03 0c
        E 71 b1 03 0b
        E 71 b1 03 0a
        E 71 b1 03 09
        E 71 b1 03 08
        E 71 b1 03 08
        E 71 b1 03 07
        E 71 b1 03 06
        E 71 b1 03 05
        E 71 b1 03 05
        E 71 b1 03 04
        E 71 b1 03 03
        E 71 b1 03 03
        E 71 b1 03 03
        E 71 b1 03 02
        E 71 b1 03 02
        E 71 b1 03 01
        E 71 b1 03 01
        E 71 b1 03 00
        E 71 b1 03 00
        E 71 b1 03 00
        E 71 b1 03 00
        E 71 b1 03 00
        E 71 b1 03 00
        E 71 b1 03 00
        E 71 b1 03 00
        E 71 b1 03 00
        E 71 b1 03 00
        E 71 b1 03 00
        E 71 b1 03 00
        E 71 b1 03 00
        E 71 b1 03 01
        E 71 b1 03 01
        E 71 b1 03 01
        E 71 b1 03 02
        E 71 b1 03 02
        E 71 b1 03 03
        E 71 b1 03 03
        E 71 b1 03 04
        E 71 b1 03 04
        E 71 b1 03 05
        E 71 b1 03 06
        E 71 b1 03 06
        E 71 b1 03 07
        E 71 b1 03 08
        E 71 b1 03 09
        E 71 b1 03 09
        E 71 b1 03 0a
        E 71 b1 03 0b
        E 71 b1 03 0c
        E 71 b1 03 0d
        E 71 b1 03 0e
        E 71 b1 03 0f
        E 71 b1 03 10
        E 71 b1 03 11
        E 71 b1 03 12
        E 71 b1 03 13
        E 23 b1 03 26
        E 23 b1 03 28
        E 23 b1 03 2a
        E 23 b1 03 2b
        E 23 b1 03 2d
        E 23 b1 03 2f
        E 23 b1 03 31
        E 23 b1 03 33
        E 23 b1 03 34
        E 23 b1 03 36
        E 23 b1 03 38
        E 23 b1 03 39
        E 23 b1 03 3b
        E 23 b1 03 3d
        E 23 b1 03 3e
        E 23 b1 03 3f
        E 23 b1 03 41
        E 23 b1 03 42
        E 23 b1 03 43
        E 23 b1 03 45
        E 23 b1 03 46
        E 23 b1 03 46
        E 23 b1 03 48
        E 23 b1 03 48
        E 23 b1 03 49
        E 23 b1 03 49
        E 23 b1 03 4a
        E 23 b1 03 4b
        E 23 b1 03 4b
        E 23 b1 03 4b
        E 23 b1 03 4c
        E 23 b1 03 4c
        E 23 b1 03 4c
        E 23 b1 03 4c
        E 23 b1 03 4c
        E 23 b1 03 4b
        E 23 b1 03 4b
        E 23 b1 03 4b
        E 23 b1 03 4a
        E 23 b1 03 49
        E 23 b1 03 49
        E 23 b1 03 48
        E 23 b1 03 47
        E 23 b1 03 46
        E 23 b1 03 45
        E 23 b1 03 44
        E 23 b1 03 43
        E 23 b1 03 42
        E 23 b1 03 40
        E 23 b1 03 3f
        E 23 b1 03 3d
        E 23 b1 03 3c
        E 23 b1 03 3a
        E 23 b1 03 39
        E 23 b1 03 37
        E 23 b1 03 35
        E 23 b1 03 34
        E 23 b1 03 32
        E 23 b1 03 30
        E 23 b1 03 2e
        E 23 b1 03 2c
        E 23 b1 03 2a
        E 23 b1 03 28
        E 23 b1 03 27
        E 23 b1 03 25
        E 23 b1 03 23
        E 23 b1 03 21
        E 23 b1 03 1f
        E 23 b1 03 1d
        E 23 b1 03 1b
        E 23 b1 03 19
        E 23 b1 03 18
        E 23 b1 03 16
        E 23 b1 03 15
        E 23 b1 03 13
        E 23 b1 03 11
        E 23 b1 03 10
        E 23 b1 03 0e
        E 23 b1 03 0d
        E 23 b1 03 0b
        E 23 b1 03 0a
        E 23 b1 03 09
        E 23 b1 03 07
        E 23 b1 03 06
        E 23 b1 03 06
        E 23 b1 03 04
        E 23 b1 03 04
        E 23 b1 03 03
        E 23 b1 03 02
        E 23 b1 03 01
        E 23 b1 03 01
        E 23 b1 03 00
        E 23 b1 03 00
        E 23 b1 03 00
        E 23 b1 03 00
        E 23 b1 03 00
        E 23 b1 03 00
        E 23 b1 03 00
        E 23 b1 03 00
        E 23 b1 03 00
        E 23 b1 03 01
        E 23 b1 03 01
        E 23 b1 03 02
        E 23 b1 03 03
        E 23 b1 03 03
        E 23 b1 03 04
        E 23 b1 03 05
        E 23 b1 03 06
        E 23 b1 03 07
        E 23 b1 03 08
        E 23 b1 03 09
        E 23 b1 03 0a
        E 23 b1 03 0c
        E 23 b1 03 0d
        E 23 b1 03 0f
        E 23 b1 03 10
        E 23 b1 03 12
        E 23 b1 03 13
        E 23 b1 03 15
        E 23 b1 03 17
        E 23 b1 03 19
        E 23 b1 03 1b
        E 23 b1 03 1c
        E 23 b1 03 1e
        E 23 b1 03 20
        E 23 b1 03 22
        E 23 b1 03 24
        E 23 b1 03 26
        E 63 b1 03 39
        E 63 b1 03 3c
        E 63 b1 03 3f
        E 63 b1 03 41
        E 63 b1 03 44
        E 63 b1 03 47
        E 63 b1 03 49
        E 63 b1 03 4c
        E 63 b1 03 4f
        E 63 b1 03 51
        E 63 b1 03 54
        E 63 b1 03 56
        E 63 b1 03 59
        E 63 b1 03 5b
        E 63 b1 03 5d
        E 63 b1 03 5f
        E 63 b1 03 62
        E 63 b1 03 63
        E 63 b1 03 65
        E 63 b1 03 67
        E 63 b1 03 69
        E 63 b1 03 6a
        E 63 b1 03 6c
        E 63 b1 03 6c
        E 63 b1 03 6d
        E 63 b1 03 6e
        E 63 b1 03 6f
        E 63 b1 03 70
        E 63 b1 03 71
        E 63 b1 03 71
        E 63 b1 03 72
        E 63 b1 03 72
        E 63 b1 03 72
        E 63 b1 03 72
        E 63 b1 03 72
        E 63 b1 03 71
        E 63 b1 03 71
        E 63 b1 03 70
        E 63 b1 03 6f
        E 63 b1 03 6e
        E 63 b1 03 6d
        E 63 b1 03 6c
        E 63 b1 03 6b
        E 63 b1 03 69
        E 63 b1 03 68
        E 63 b1 03 66
        E 63 b1 03 64
        E 63 b1 03 63
        E 63 b1 03 61
        E 63 b1 03 5e
        E 63 b1 03 5c
        E 63 b1 03 5a
        E 63 b1 03 58
        E 63 b1 03 55
        E 63 b1 03 52
        E 63 b1 03 50
        E 63 b1 03 4e
        E 63 b1 03 4b
        E 63 b1 03 48
        E 63 b1 03 46
        E 63 b1 03 42
        E 63 b1 03 3f
        E 63 b1 03 3d
        E 63 b1 03 3a
        E 63 b1 03 37
        E 63 b1 03 35
        E 63 b1 03 32
        E 63 b1 03 2f
        E 63 b1 03 2c
        E 63 b1 03 29
        E 63 b1 03 26
        E 63 b1 03 24
        E 63 b1 03 22
        E 63 b1 03 1f
        E 63 b1 03 1c
        E 63 b1 03 1a
        E 63 b1 03 18
        E 63 b1 03 15
        E 63 b1 03 13
        E 63 b1 03 11
        E 63 b1 03 0f
        E 63 b1 03 0d
        E 63 b1 03 0b
        E 63 b1 03 09
        E 63 b1 03 09
        E 63 b1 03 07
        E 63 b1 03 06
        E 63 b1 03 04
        E 63 b1 03 03
        E 63 b1 03 02
        E 63 b1 03 01
        E 63 b1 03 00
        E 63 b1 03 00
        E 63 b1 03 00
        E 63 b1 03 00
        E 63 b1 03 00
        E 63 b1 03 00
        E 63 b1 03 00
        E 63 b1 03 00
        E 63 b1 03 00
        E 63 b1 03 01
        E 63 b1 03 02
        E 63 b1 03 03
        E 63 b1 03 04
        E 63 b1 03 05
        E 63 b1 03 06
        E 63 b1 03 08
        E 63 b1 03 09
        E 63 b1 03 0a
        E 63 b1 03 0c
        E 63 b1 03 0e
        E 63 b1 03 10
        E 63 b1 03 12
        E 63 b1 03 14
        E 63 b1 03 16
        E 63 b1 03 19
        E 63 b1 03 1b
        E 63 b1 03 1d
        E 63 b1 03 20
        E 63 b1 03 23
        E 63 b1 03 25
        E 63 b1 03 28
        E 63 b1 03 2b
        E 63 b1 03 2d
        E 63 b1 03 30
        E 63 b1 03 33
        E 63 b1 03 36
        E 63 b1 03 39
        E 7 b1 03 19
        E 7 b1 03 1a
        E 7 b1 03 1c
        E 7 b1 03 1d
        E 7 b1 03 1e
        E 7 b1 03 1f
        E 7 b1 03 20
        E 7 b1 03 22
        E 7 b1 03 23
        E 7 b1 03 24
        E 7 b1 03 25
        E 7 b1 03 26
        E 7 b1 03 27
        E 7 b1 03 28
        E 7 b1 03 29
        E 7 b1 03 2a
        E 7 b1 03 2b
        E 7 b1 03 2c
        E 7 b1 03 2d
        E 7 b1 03 2e
        E 7 b1 03 2e
        E 7 b1 03 2f
        E 7 b1 03 30
        E 7 b1 03 30
        E 7 b1 03 30
        E 7 b1 03 31
        E 7 b1 03 31
        E 7 b1 03 32
        E 7 b1 03 32
        E 7 b1 03 32
        E 7 b1 03 32
        E 7 b1 03 32
        E 7 b1 03 32
        E 7 b1 03 32
        E 7 b1 03 32
        E 7 b1 03 32
        E 7 b1 03 32
        E 7 b1 03 32
        E 7 b1 03 31
        E 7 b1 03 31
        E 7 b1 03 30
        E 7 b1 03 30
        E 7 b1 03 2f
        E 7 b1 03 2e
        E 7 b1 03 2e
        E 7 b1 03 2d
        E 7 b1 03 2c
        E 7 b1 03 2c
        E 7 b1 03 2b
        E 7 b1 03 2a
        E 7 b1 03 29
        E 7 b1 03 28
        E 7 b1 03 27
        E 7 b1 03 26
        E 7 b1 03 24
        E 7 b1 03 23
        E 7 b1 03 22
        E 7 b1 03 21
        E 7 b1 03 20
        E 7 b1 03 1f
        E 7 b1 03 1d
        E 7 b1 03 1c
        E 7 b1 03 1b
        E 7 b1 03 1a
        E 7 b1 03 18
        E 7 b1 03 17
        E 7 b1 03 16
        E 7 b1 03 15
        E 7 b1 03 13
        E 7 b1 03 12
        E 7 b1 03 11
        E 7 b1 03 10
        E 7 b1 03 0f
        E 7 b1 03 0e
        E 7 b1 03 0c
        E 7 b1 03 0b
        E 7 b1 03 0a
        E 7 b1 03 09
        E 7 b1 03 08
        E 7 b1 03 07
        E 7 b1 03 06
        E 7 b1 03 06
        E 7 b1 03 05
        E 7 b1 03 04
        E 7 b1 03 04
        E 7 b1 03 03
        E 7 b1 03 02
        E 7 b1 03 02
        E 7 b1 03 01
        E 7 b1 03 01
        E 7 b1 03 00
        E 7 b1 03 00
        E 7 b1 03 00
        E 7 b1 03 00
        E 7 b1 03 00
        E 7 b1 03 00
        E 7 b1 03 00
        E 7 b1 03 00
        E 7 b1 03 00
        E 7 b1 03 00
        E 7 b1 03 00
        E 7 b1 03 01
        E 7 b1 03 01
        E 7 b1 03 02
        E 7 b1 03 02
        E 7 b1 03 02
        E 7 b1 03 03
        E 7 b1 03 04
        E 7 b1 03 04
        E 7 b1 03 05
        E 7 b1 03 06
        E 7 b1 03 07
        E 7 b1 03 08
        E 7 b1 03 09
        E 7 b1 03 0a
        E 7 b1 03 0b
        E 7 b1 03 0c
        E 7 b1 03 0d
        E 7 b1 03 0e
        E 7 b1 03 0f
        E 7 b1 03 10
        E 7 b1 03 12
        E 7 b1 03 13
        E 7 b1 03 14
        E 7 b1 03 15
        E 7 b1 03 16
        E 7 b1 03 18
        E 7 b1 03 19
        E 71 b1 03 06
        E 71 b1 03 06
        E 71 b1 03 07
        E 71 b1 03 07
        E 71 b1 03 07
        E 71 b1 03 07
        E 71 b1 03 08
        E 71 b1 03 08
        E 71 b1 03 08
        E 71 b1 03 09
        E 71 b1 03 09
        E 71 b1 03 09
        E 71 b1 03 09
        E 71 b1 03 0a
        E 71 b1 03 0a
        E 71 b1 03 0a
        E 71 b1 03 0a
        E 71 b1 03 0b
        E 71 b1 03 0b
        E 71 b1 03 0b
        E 71 b1 03 0b
        E 71 b1 03 0b
        E 71 b1 03 0c
        E 71 b1 03 0c
        E 71 b1 03 0c
        E 71 b1 03 0c
        E 71 b1 03 0c
        E 71 b1 03 0c
        E 71 b1 03 0c
        E 71 b1 03 0c
        E 71 b1 03 0c
        E 71 b1 03 0c
        E 71 b1 03 0c
        E 71 b1 03 0c
        E 71 b1 03 0c
        E 71 b1 03 0c
        E 71 b1 03 0c
        E 71 b1 03 0c
        E 71 b1 03 0c
        E 71 b1 03 0c
        E 71 b1 03 0c
        E 71 b1 03 0c
        E 71 b1 03 0b
        E 71 b1 03 0b
        E 71 b1 03 0b
        E 71 b1 03 0b
        E 71 b1 03 0b
        E 71 b1 03 0b
        E 71 b1 03 0a
        E 71 b1 03 0a
        E 71 b1 03 0a
        E 71 b1 03 0a
        E 71 b1 03 09
        E 71 b1 03 09
        E 71 b1 03 09
        E 71 b1 03 08
        E 71 b1 03 08
        E 71 b1 03 08
        E 71 b1 03 08
        E 71 b1 03 07
        E 71 b1 03 07
        E 71 b1 03 07
        E 71 b1 03 06
        E 71 b1 03 06
        E 71 b1 03 06
        E 71 b1 03 05
        E 71 b1 03 05
        E 71 b1 03 05
        E 71 b1 03 04
        E 71 b1 03 04
        E 71 b1 03 04
        E 71 b1 03 04
        E 71 b1 03 03
        E 71 b1 03 03
        E 71 b1 03 03
        E 71 b1 03 02
        E 71 b1 03 02
        E 71 b1 03 02
        E 71 b1 03 02
        E 71 b1 03 01
        E 71 b1 03 01
        E 71 b1 03 01
        E 71 b1 03 01
        E 71 b1 03 01
        E 71 b1 03 01
        E 71 b1 03 00
        E 71 b1 03 00
        E 71 b1 03 00
        E 71 b1 03 00
        E 71 b1 03 00
        E 71 b1 03 00
        E 71 b1 03 00
        E 71 b1 03 00
        E 71 b1 03 00
        E 71 b1 03 00
        E 71 b1 03 00
        E 71 b1 03 00
        E 71 b1 03 00
        E 71 b1 03 00
        E 71 b1 03 00
        E 71 b1 03 00
        E 71 b1 03 00
        E 71 b1 03 00
        E 71 b1 03 00
        E 71 b1 03 00
        E 71 b1 03 00
        E 71 b1 03 00
        E 71 b1 03 01
        E 71 b1 03 01
        E 71 b1 03 01
        E 71 b1 03 01
        E 71 b1 03 01
        E 71 b1 03 02
        E 71 b1 03 02
        E 71 b1 03 02
        E 71 b1 03 02
        E 71 b1 03 03
        E 71 b1 03 03
        E 71 b1 03 03
        E 71 b1 03 03
        E 71 b1 03 04
        E 71 b1 03 04
        E 71 b1 03 04
        E 71 b1 03 05
        E 71 b1 03 05
        E 71 b1 03 05
        E 71 b1 03 06
        E 71 b1 03 06
        E 63 b1 03 2c
        E 63 b1 03 2e
        E 63 b1 03 31
        E 63 b1 03 33
        E 63 b1 03 35
        E 63 b1 03 37
        E 63 b1 03 39
        E 63 b1 03 3b
        E 63 b1 03 3d
        E 63 b1 03 3f
        E 63 b1 03 41
        E 63 b1 03 43
        E 63 b1 03 45
        E 63 b1 03 47
        E 63 b1 03 48
        E 63 b1 03 4a
        E 63 b1 03 4c
        E 63 b1 03 4d
        E 63 b1 03 4f
        E 63 b1 03 50
        E 63 b1 03 51
        E 63 b1 03 52
        E 63 b1 03 54
        E 63 b1 03 54
        E 63 b1 03 55
        E 63 b1 03 56
        E 63 b1 03 56
        E 63 b1 03 57
        E 63 b1 03 58
        E 63 b1 03 58
        E 63 b1 03 58
        E 63 b1 03 58
        E 63 b1 03 58
        E 63 b1 03 58
        E 63 b1 03 58
        E 63 b1 03 58
        E 63 b1 03 58
        E 63 b1 03 57
        E 63 b1 03 56
        E 63 b1 03 56
        E 63 b1 03 55
        E 63 b1 03 54
        E 63 b1 03 53
        E 63 b1 03 51
        E 63 b1 03 51
        E 63 b1 03 4f
        E 63 b1 03 4e
        E 63 b1 03 4d
        E 63 b1 03 4b
        E 63 b1 03 49
        E 63 b1 03 48
        E 63 b1 03 46
        E 63 b1 03 44
        E 63 b1 03 42
        E 63 b1 03 40
        E 63 b1 03 3e
        E 63 b1 03 3c
        E 63 b1 03 3a
        E 63 b1 03 38
        E 63 b1 03 36
        E 63 b1 03 33
        E 63 b1 03 31
        E 63 b1 03 2f
        E 63 b1 03 2d
        E 63 b1 03 2b
        E 63 b1 03 29
        E 63 b1 03 27
        E 63 b1 03 25
        E 63 b1 03 22
        E 63 b1 03 20
        E 63 b1 03 1e
        E 63 b1 03 1c
        E 63 b1 03 1a
        E 63 b1 03 18
        E 63 b1 03 16
        E 63 b1 03 14
        E 63 b1 03 12
        E 63 b1 03 10
        E 63 b1 03 0f
        E 63 b1 03 0d
        E 63 b1 03 0b
        E 63 b1 03 0a
        E 63 b1 03 09
        E 63 b1 03 07
        E 63 b1 03 07
        E 63 b1 03 05
        E 63 b1 03 04
        E 63 b1 03 03
        E 63 b1 03 02
        E 63 b1 03 02
        E 63 b1 03 01
        E 63 b1 03 00
        E 63 b1 03 00
        E 63 b1 03 00
        E 63 b1 03 00
        E 63 b1 03 00
        E 63 b1 03 00
        E 63 b1 03 00
        E 63 b1 03 00
        E 63 b1 03 00
        E 63 b1 03 01
        E 63 b1 03 02
        E 63 b1 03 02
        E 63 b1 03 03
        E 63 b1 03 04
        E 63 b1 03 04
        E 63 b1 03 06
        E 63 b1 03 07
        E 63 b1 03 08
        E 63 b1 03 09
        E 63 b1 03 0b
        E 63 b1 03 0c
        E 63 b1 03 0e
        E 63 b1 03 10
        E 63 b1 03 11
        E 63 b1 03 13
        E 63 b1 03 15
        E 63 b1 03 17
        E 63 b1 03 19
        E 63 b1 03 1b
        E 63 b1 03 1d
        E 63 b1 03 1f
        E 63 b1 03 21
        E 63 b1 03 23
        E 63 b1 03 25
        E 63 b1 03 27
        E 63 b1 03 2a
        E 63 b1 03 2c
        E 71 b1 03 13
        E 71 b1 03 14
        E 71 b1 03 15
        E 71 b1 03 15
        E 71 b1 03 16
        E 71 b1 03 17
        E 71 b1 03 18
        E 71 b1 03 19
        E 71 b1 03 1a
        E 71 b1 03 1b
        E 71 b1 03 1c
        E 71 b1 03 1c
        E 71 b1 03 1d
        E 71 b1 03 1e
        E 71 b1 03 1f
        E 71 b1 03 1f
        E 71 b1 03 20
        E 71 b1 03 21
        E 71 b1 03 21
        E 71 b1 03 22
        E 71 b1 03 23
        E 71 b1 03 23
        E 71 b1 03 24
        E 71 b1 03 24
        E 71 b1 03 24
        E 71 b1 03 24
        E 71 b1 03 25
        E 71 b1 03 25
        E 71 b1 03 25
        E 71 b1 03 25
        E 71 b1 03 26
        E 71 b1 03 26
        E 71 b1 03 26
        E 71 b1 03 26
        E 71 b1 03 26
        E 71 b1 03 25
        E 71 b1 03 25
        E 71 b1 03 25
        E 71 b1 03 25
        E 71 b1 03 24
        E 71 b1 03 24
        E 71 b1 03 24
        E 71 b1 03 23
        E 71 b1 03 23
        E 71 b1 03 22
        E 71 b1 03 22
        E 71 b1 03 21
        E 71 b1 03 21
        E 71 b1 03 20
        E 71 b1 03 1f
        E 71 b1 03 1e
        E 71 b1 03 1e
        E 71 b1 03 1d
        E 71 b1 03 1c
        E 71 b1 03 1b
        E 71 b1 03 1a
        E 71 b1 03 1a
        E 71 b1 03 19
        E 71 b1 03 18
        E 71 b1 03 17
        E 71 b1 03 16
        E 71 b1 03 15
        E 71 b1 03 14
        E 71 b1 03 13
        E 71 b1 03 12
        E 71 b1 03 11
        E 71 b1 03 10
        E 71 b1 03 0f
        E 71 b1 03 0e
        E 71 b1 03 0d
        E 71 b1 03 0c
        E 71 b1 03 0c
        E 71 b1 03 0b
        E 71 b1 03 0a
        E 71 b1 03 09
        E 71 b1 03 08
        E 71 b1 03 08
        E 71 b1 03 07
        E 71 b1 03 06
        E 71 b1 03 05
        E 71 b1 03 05
        E 71 b1 03 04
        E 71 b1 03 03
        E 71 b1 03 03
        E 71 b1 03 03
        E 71 b1 03 02
        E 71 b1 03 02
        E 71 b1 03 01
        E 71 b1 03 01
        E 71 b1 03 00
        E 71 b1 03 00
        E 71 b1 03 00
        E 71 b1 03 00
        E 71 b1 03 00
        E 71 b1 03 00
        E 71 b1 03 00
        E 71 b1 03 00
        E 71 b1 03 00
        E 71 b1 03 00
        E 71 b1 03 00
        E 71 b1 03 00
        E 71 b1 03 00
        E 71 b1 03 01
        E 71 b1 03 01
        E 71 b1 03 01
        E 71 b1 03 02
        E 71 b1 03 02
        E 71 b1 03 03
        E 71 b1 03 03
        E 71 b1 03 04
        E 71 b1 03 04
        E 71 b1 03 05
        E 71 b1 03 06
        E 71 b1 03 06
        E 71 b1 03 07
        E 71 b1 03 08
        E 71 b1 03 09
        E 71 b1 03 09
        E 71 b1 03 0a
        E 71 b1 03 0b
        E 71 b1 03 0c
        E 71 b1 03 0d
        E 71 b1 03 0e
        E 71 b1 03 0f
        E 71 b1 03 10
        E 71 b1 03 11
        E 71 b1 03 12
        E 71 b1 03 13
        E 23 b1 03 26
        E 23 b1 03 28
        E 23 b1 03 2a
        E 23 b1 03 2b
        E 23 b1 03 2d
        E 23 b1 03 2f
        E 23 b1 03 31
        E 23 b1 03 33
        E 23 b1 03 34
        E 23 b1 03 36
        E 23 b1 03 38
        E 23 b1 03 39
        E 23 b1 03 3b
        E 23 b1 03 3d
        E 23 b1 03 3e
        E 23 b1 03 3f
        E 23 b1 03 41
        E 23 b1 03 42
        E 23 b1 03 43
        E 23 b1 03 45
        E 23 b1 03 46
        E 23 b1 03 46
        E 23 b1 03 48
        E 23 b1 03 48
        E 23 b1 03 49
        E 23 b1 03 49
        E 23 b1 03 4a
        E 23 b1 03 4b
        E 23 b1 03 4b
        E 23 b1 03 4b
        E 23 b1 03 4c
        E 23 b1 03 4c
        E 23 b1 03 4c
        E 23 b1 03 4c
        E 23 b1 03 4c
        E 23 b1 03 4b
        E 23 b1 03 4b
        E 23 b1 03 4b
        E 23 b1 03 4a
        E 23 b1 03 49
        E 23 b1 03 49
        E 23 b1 03 48
        E 23 b1 03 47
        E 23 b1 03 46
        E 23 b1 03 45
        E 23 b1 03 44
        E 23 b1 03 43
        E 23 b1 03 42
        E 23 b1 03 40
        E 23 b1 03 3f
        E 23 b1 03 3d
        E 23 b1 03 3c
        E 23 b1 03 3a
        E 23 b1 03 39
        E 23 b1 03 37
        E 23 b1 03 35
        E 23 b1 03 34
        E 23 b1 03 32
        E 23 b1 03 30
        E 23 b1 03 2e
        E 23 b1 03 2c
        E 23 b1 03 2a
        E 23 b1 03 28
        E 23 b1 03 27
        E 23 b1 03 25
        E 23 b1 03 23
        E 23 b1 03 21
        E 23 b1 03 1f
        E 23 b1 03 1d
        E 23 b1 03 1b
        E 23 b1 03 19
        E 23 b1 03 18
        E 23 b1 03 16
        E 23 b1 03 15
        E 23 b1 03 13
        E 23 b1 03 11
        E 23 b1 03 10
        E 23 b1 03 0e
        E 23 b1 03 0d
        E 23 b1 03 0b
        E 23 b1 03 0a
        E 23 b1 03 09
        E 23 b1 03 07
        E 23 b1 03 06
        E 23 b1 03 06
        E 23 b1 03 04
        E 23 b1 03 04
        E 23 b1 03 03
        E 23 b1 03 02
        E 23 b1 03 01
        E 23 b1 03 01
        E 23 b1 03 00
        E 23 b1 03 00
        E 23 b1 03 00
        E 23 b1 03 00
        E 23 b1 03 00
        E 23 b1 03 00
        E 23 b1 03 00
        E 23 b1 03 00
        E 23 b1 03 00
        E 23 b1 03 01
        E 23 b1 03 01
        E 23 b1 03 02
        E 23 b1 03 03
        E 23 b1 03 03
        E 23 b1 03 04
        E 23 b1 03 05
        E 23 b1 03 06
        E 23 b1 03 07
        E 23 b1 03 08
        E 23 b1 03 09
        E 23 b1 03 0a
        E 23 b1 03 0c
        E 23 b1 03 0d
        E 23 b1 03 0f
        E 23 b1 03 10
        E 23 b1 03 12
        E 23 b1 03 13
        E 23 b1 03 15
        E 23 b1 03 17
        E 23 b1 03 19
        E 23 b1 03 1b
        E 23 b1 03 1c
        E 23 b1 03 1e
        E 23 b1 03 20
        E 23 b1 03 22
        E 23 b1 03 24
        E 23 b1 03 26
        E 63 b1 03 39
        E 63 b1 03 3c
        E 63 b1 03 3f
        E 63 b1 03 41
        E 63 b1 03 44
        E 63 b1 03 47
        E 63 b1 03 49
        E 63 b1 03 4c
        E 63 b1 03 4f
        E 63 b1 03 51
        E 63 b1 03 54
        E 63 b1 03 56
        E 63 b1 03 59
        E 63 b1 03 5b
        E 63 b1 03 5d
        E 63 b1 03 5f
        E 63 b1 03 62
        E 63 b1 03 63
        E 63 b1 03 65
        E 63 b1 03 67
        E 63 b1 03 69
        E 63 b1 03 6a
        E 63 b1 03 6c
        E 63 b1 03 6c
        E 63 b1 03 6d
        E 63 b1 03 6e
        E 63 b1 03 6f
        E 63 b1 03 70
        E 63 b1 03 71
        E 63 b1 03 71
        E 63 b1 03 72
        E 63 b1 03 72
        E 63 b1 03 72
        E 63 b1 03 72
        E 63 b1 03 72
        E 63 b1 03 71
        E 63 b1 03 71
        E 63 b1 03 70
        E 63 b1 03 6f
        E 63 b1 03 6e
        E 63 b1 03 6d
        E 63 b1 03 6c
        E 63 b1 03 6b
        E 63 b1 03 69
        E 63 b1 03 68
        E 63 b1 03 66
        E 63 b1 03 64
        E 63 b1 03 63
        E 63 b1 03 61
        E 63 b1 03 5e
        E 63 b1 03 5c
        E 63 b1 03 5a
        E 63 b1 03 58
        E 63 b1 03 55
        E 63 b1 03 52
        E 63 b1 03 50
        E 63 b1 03 4e
        E 63 b1 03 4b
        E 63 b1 03 48
        E 63 b1 03 46
        E 63 b1 03 42
        E 63 b1 03 3f
        E 63 b1 03 3d
        E 63 b1 03 3a
        E 63 b1 03 37
        E 63 b1 03 35
        E 63 b1 03 32
        E 63 b1 03 2f
        E 63 b1 03 2c
        E 63 b1 03 29
        E 63 b1 03 26
        E 63 b1 03 24
        E 63 b1 03 22
        E 63 b1 03 1f
        E 63 b1 03 1c
        E 63 b1 03 1a
        E 63 b1 03 18
        E 63 b1 03 15
        E 63 b1 03 13
        E 63 b1 03 11
        E 63 b1 03 0f
        E 63 b1 03 0d
        E 63 b1 03 0b
        E 63 b1 03 09
        E 63 b1 03 09
        E 63 b1 03 07
        E 63 b1 03 06
        E 63 b1 03 04
        E 63 b1 03 03
        E 63 b1 03 02
        E 63 b1 03 01
        E 63 b1 03 00
        E 63 b1 03 00
        E 63 b1 03 00
        E 63 b1 03 00
        E 63 b1 03 00
        E 63 b1 03 00
        E 63 b1 03 00
        E 63 b1 03 00
        E 63 b1 03 00
        E 63 b1 03 01
        E 63 b1 03 02
        E 63 b1 03 03
        E 63 b1 03 04
        E 63 b1 03 05
        E 63 b1 03 06
        E 63 b1 03 08
        E 63 b1 03 09
        E 63 b1 03 0a
        E 63 b1 03 0c
        E 63 b1 03 0e
        E 63 b1 03 10
        E 63 b1 03 12
        E 63 b1 03 14
        E 63 b1 03 16
        E 63 b1 03 19
        E 63 b1 03 1b
        E 63 b1 03 1d
        E 63 b1 03 20
        E 63 b1 03 23
        E 63 b1 03 25
        E 63 b1 03 28
        E 63 b1 03 2b
        E 63 b1 03 2d
        E 63 b1 03 30
        E 63 b1 03 33
        E 63 b1 03 36
        E 63 b1 03 39
        E 7 b1 03 19
        E 7 b1 03 1a
        E 7 b1 03 1c
        E 7 b1 03 1d
        E 7 b1 03 1e
        E 7 b1 03 1f
        E 7 b1 03 20
        E 7 b1 03 22
        E 7 b1 03 23
        E 7 b1 03 24
        E 7 b1 03 25
        E 7 b1 03 26
        E 7 b1 03 27
        E 7 b1 03 28
        E 7 b1 03 29
        E 7 b1 03 2a
        E 7 b1 03 2b
        E 7 b1 03 2c
        E 7 b1 03 2d
        E 7 b1 03 2e
        E 7 b1 03 2e
        E 7 b1 03 2f
        E 7 b1 03 30
        E 7 b1 03 30
        E 7 b1 03 30
        E 7 b1 03 31
        E 7 b1 03 31
        E 7 b1 03 32
        E 7 b1 03 32
        E 7 b1 03 32
        E 7 b1 03 32
        E 7 b1 03 32
        E 7 b1 03 32
        E 7 b1 03 32
        E 7 b1 03 32
        E 7 b1 03 32
        E 7 b1 03 32
        E 7 b1 03 32
        E 7 b1 03 31
        E 7 b1 03 31
        E 7 b1 03 30
        E 7 b1 03 30
        E 7 b1 03 2f
        E 7 b1 03 2e
        E 7 b1 03 2e
        E 7 b1 03 2d
        E 7 b1 03 2c
        E 7 b1 03 2c
        E 7 b1 03 2b
        E 7 b1 03 2a
        E 7 b1 03 29
        E 7 b1 03 28
        E 7 b1 03 27
        E 7 b1 03 26
        E 7 b1 03 24
        E 7 b1 03 23
        E 7 b1 03 22
        E 7 b1 03 21
        E 7 b1 03 20
        E 7 b1 03 1f
        E 7 b1 03 1d
        E 7 b1 03 1c
        E 7 b1 03 1b
        E 7 b1 03 1a
        E 7 b1 03 18
        E 7 b1 03 17
        E 7 b1 03 16
        E 7 b1 03 15
        E 7 b1 03 13
        E 7 b1 03 12
        E 7 b1 03 11
        E 7 b1 03 10
        E 7 b1 03 0f
        E 7 b1 03 0e
        E 7 b1 03 0c
        E 7 b1 03 0b
        E 7 b1 03 0a
        E 7 b1 03 09
        E 7 b1 03 08
        E 7 b1 03 07
        E 7 b1 03 06
        E 7 b1 03 06
        E 7 b1 03 05
        E 7 b1 03 04
        E 7 b1 03 04
        E 7 b1 03 03
        E 7 b1 03 02
        E 7 b1 03 02
        E 7 b1 03 01
        E 7 b1 03 01
        E 7 b1 03 00
        E 7 b1 03 00
        E 7 b1 03 00
        E 7 b1 03 00
        E 7 b1 03 00
        E 7 b1 03 00
        E 7 b1 03 00
        E 7 b1 03 00
        E 7 b1 03 00
        E 7 b1 03 00
        E 7 b1 03 00
        E 7 b1 03 01
        E 7 b1 03 01
        E 7 b1 03 02
        E 7 b1 03 02
        E 7 b1 03 02
        E 7 b1 03 03
        E 7 b1 03 04
        E 7 b1 03 04
        E 7 b1 03 05
        E 7 b1 03 06
        E 7 b1 03 07
        E 7 b1 03 08
        E 7 b1 03 09
        E 7 b1 03 0a
        E 7 b1 03 0b
        E 7 b1 03 0c
        E 7 b1 03 0d
        E 7 b1 03 0e
        E 7 b1 03 0f
        E 7 b1 03 10
        E 7 b1 03 12
        E 7 b1 03 13
        E 7 b1 03 14
        E 7 b1 03 15
        E 7 b1 03 16
        E 7 b1 03 18
        E 7 b1 03 19
        E 71 b1 03 06
        E 71 b1 03 06
        E 71 b1 03 07
        E 71 b1 03 07
        E 71 b1 03 07
        E 71 b1 03 07
        E 71 b1 03 08
        E 71 b1 03 08
        E 71 b1 03 08
        E 71 b1 03 09
        E 71 b1 03 09
        E 71 b1 03 09
        E 71 b1 03 09
        E 71 b1 03 0a
        E 71 b1 03 0a
        E 71 b1 03 0a
        E 71 b1 03 0a
        E 71 b1 03 0b
        E 71 b1 03 0b
        E 71 b1 03 0b
        E 71 b1 03 0b
        E 71 b1 03 0b
        E 71 b1 03 0c
        E 71 b1 03 0c
        E 71 b1 03 0c
        E 71 b1 03 0c
        E 71 b1 03 0c
        E 71 b1 03 0c
        E 71 b1 03 0c
        E 71 b1 03 0c
        E 71 b1 03 0c
        E 71 b1 03 0c
        E 71 b1 03 0c
        E 71 b1 03 0c
        E 71 b1 03 0c
        E 71 b1 03 0c
        E 71 b1 03 0c
        E 71 b1 03 0c
        E 71 b1 03 0c
        E 71 b1 03 0c
        E 71 b1 03 0c
        E 71 b1 03 0c
        E 71 b1 03 0b
        E 71 b1 03 0b
        E 71 b1 03 0b
        E 71 b1 03 0b
        E 71 b1 03 0b
        E 71 b1 03 0b
        E 71 b1 03 0a
        E 71 b1 03 0a
        E 71 b1 03 0a
        E 71 b1 03 0a
        E 71 b1 03 09
        E 71 b1 03 09
        E 71 b1 03 09
        E 71 b1 03 08
        E 71 b1 03 08
        E 71 b1 03 08
        E 71 b1 03 08
        E 71 b1 03 07
        E 71 b1 03 07
        E 71 b1 03 07
        E 71 b1 03 06
        E 71 b1 03 06
        E 71 b1 03 06
        E 71 b1 03 05
        E 71 b1 03 05
        E 71 b1 03 05
        E 71 b1 03 04
        E 71 b1 03 04
        E 71 b1 03 04
        E 71 b1 03 04
        E 71 b1 03 03
        E 71 b1 03 03
        E 71 b1 03 03
        E 71 b1 03 02
        E 71 b1 03 02
        E 71 b1 03 02
        E 71 b1 03 02
        E 71 b1 03 01
        E 71 b1 03 01
        E 71 b1 03 01
        E 71 b1 03 01
        E 71 b1 03 01
        E 71 b1 03 01
        E 71 b1 03 00
        E 71 b1 03 00
        E 71 b1 03 00
        E 71 b1 03 00
        E 71 b1 03 00
        E 71 b1 03 00
        E 71 b1 03 00
        E 71 b1 03 00
        E 71 b1 03 00
        E 71 b1 03 00
        E 71 b1 03 00
        E 71 b1 03 00
        E 71 b1 03 00
        E 71 b1 03 00
        E 71 b1 03 00
        E 71 b1 03 00
        E 71 b1 03 00
        E 71 b1 03 00
        E 71 b1 03 00
        E 71 b1 03 00
        E 71 b1 03 00
        E 71 b1 03 00
        E 71 b1 03 01
        E 71 b1 03 01
        E 71 b1 03 01
        E 71 b1 03 01
        E 71 b1 03 01
        E 71 b1 03 02
        E 71 b1 03 02
        E 71 b1 03 02
        E 71 b1 03 02
        E 71 b1 03 03
        E 71 b1 03 03
        E 71 b1 03 03
        E 71 b1 03 03
        E 71 b1 03 04
        E 71 b1 03 04
        E 71 b1 03 04
        E 71 b1 03 05
        E 71 b1 03 05
        E 71 b1 03 05
        E 71 b1 03 06
        E 71 b1 03 06
        E 63 b1 03 2c
        E 63 b1 03 2e
        E 63 b1 03 31
        E 63 b1 03 33
        E 63 b1 03 35
        E 63 b1 03 37
        E 63 b1 03 39
        E 63 b1 03 3b
        E 63 b1 03 3d
        E 63 b1 03 3f
        E 63 b1 03 41
        E 63 b1 03 43
        E 63 b1 03 45
        E 63 b1 03 47
        E 63 b1 03 48
        E 63 b1 03 4a
        E 63 b1 03 4c
        E 63 b1 03 4d
        E 63 b1 03 4f
        E 63 b1 03 50
        E 63 b1 03 51
        E 63 b1 03 52
        E 63 b1 03 54
        E 63 b1 03 54
        E 63 b1 03 55
        E 63 b1 03 56
        E 63 b1 03 56
        E 63 b1 03 57
        E 63 b1 03 58
        E 63 b1 03 58
        E 63 b1 03 58
        E 63 b1 03 58
        E 63 b1 03 58
        E 63 b1 03 58
        E 63 b1 03 58
        E 63 b1 03 58
        E 63 b1 03 58
        E 63 b1 03 57
        E 63 b1 03 56
        E 63 b1 03 56
        E 63 b1 03 55
        E 63 b1 03 54
        E 63 b1 03 53
        E 63 b1 03 51
        E 63 b1 03 51
        E 63 b1 03 4f
        E 63 b1 03 4e
        E 63 b1 03 4d
        E 63 b1 03 4b
        E 63 b1 03 49
        E 63 b1 03 48
        E 63 b1 03 46
        E 63 b1 03 44
        E 63 b1 03 42
        E 63 b1 03 40
        E 63 b1 03 3e
        E 63 b1 03 3c
        E 63 b1 03 3a
        E 63 b1 03 38
        E 63 b1 03 36
        E 63 b1 03 33
        E 63 b1 03 31
        E 63 b1 03 2f
        E 63 b1 03 2d
        E 63 b1 03 2b
        E 63 b1 03 29
        E 63 b1 03 27
        E 63 b1 03 25
        E 63 b1 03 22
        E 63 b1 03 20
        E 63 b1 03 1e
        E 63 b1 03 1c
        E 63 b1 03 1a
        E 63 b1 03 18
        E 63 b1 03 16
        E 63 b1 03 14
        E 63 b1 03 12
        E 63 b1 03 10
        E 63 b1 03 0f
        E 63 b1 03 0d
        E 63 b1 03 0b
        E 63 b1 03 0a
        E 63 b1 03 09
        E 63 b1 03 07
        E 63 b1 03 07
        E 63 b1 03 05
        E 63 b1 03 04
        E 63 b1 03 03
        E 63 b1 03 02
        E 63 b1 03 02
        E 63 b1 03 01
        E 63 b1 03 00
        E 63 b1 03 00
        E 63 b1 03 00
        E 63 b1 03 00
        E 63 b1 03 00
        E 63 b1 03 00
        E 63 b1 03 00
        E 63 b1 03 00
        E 63 b1 03 00
        E 63 b1 03 01
        E 63 b1 03 02
        E 63 b1 03 02
        E 63 b1 03 03
        E 63 b1 03 04
        E 63 b1 03 04
        E 63 b1 03 06
        E 63 b1 03 07
        E 63 b1 03 08
        E 63 b1 03 09
        E 63 b1 03 0b
        E 63 b1 03 0c
        E 63 b1 03 0e
        E 63 b1 03 10
        E 63 b1 03 11
        E 63 b1 03 13
        E 63 b1 03 15
        E 63 b1 03 17
        E 63 b1 03 19
        E 63 b1 03 1b
        E 63 b1 03 1d
        E 63 b1 03 1f
        E 63 b1 03 21
        E 63 b1 03 23
        E 63 b1 03 25
        E 63 b1 03 27
        E 63 b1 03 2a
        E 63 b1 03 2c
        E 71 b1 03 13
        E 71 b1 03 14
        E 71 b1 03 15
        E 71 b1 03 15
        E 71 b1 03 16
        E 71 b1 03 17
        E 71 b1 03 18
        E 71 b1 03 19
        E 71 b1 03 1a
        E 71 b1 03 1b
        E 71 b1 03 1c
        E 71 b1 03 1c
        E 71 b1 03 1d
        E 71 b1 03 1e
        E 71 b1 03 1f
        E 71 b1 03 1f
        E 71 b1 03 20
        E 71 b1 03 21
        E 71 b1 03 21
        E 71 b1 03 22
        E 71 b1 03 23
        E 71 b1 03 23
        E 71 b1 03 24
        E 71 b1 03 24
        E 71 b1 03 24
        E 71 b1 03 24
        E 71 b1 03 25
        E 71 b1 03 25
        E 71 b1 03 25
        E 71 b1 03 25
        E 71 b1 03 26
        E 71 b1 03 26
        E 71 b1 03 26
        E 71 b1 03 26
        E 71 b1 03 26
        E 71 b1 03 25
        E 71 b1 03 25
        E 71 b1 03 25
        E 71 b1 03 25
        E 71 b1 03 24
        E 71 b1 03 24
        E 71 b1 03 24
        E 71 b1 03 23
        E 71 b1 03 23
        E 71 b1 03 22
        E 71 b1 03 22
        E 71 b1 03 21
        E 71 b1 03 21
        E 71 b1 03 20
        E 71 b1 03 1f
        E 71 b1 03 1e
        E 71 b1 03 1e
        E 71 b1 03 1d
        E 71 b1 03 1c
        E 71 b1 03 1b
        E 71 b1 03 1a
        E 71 b1 03 1a
        E 71 b1 03 19
        E 71 b1 03 18
        E 71 b1 03 17
        E 71 b1 03 16
        E 71 b1 03 15
        E 71 b1 03 14
        E 71 b1 03 13
        E 71 b1 03 12
        E 71 b1 03 11
        E 71 b1 03 10
        E 71 b1 03 0f
        E 71 b1 03 0e
        E 71 b1 03 0d
        E 71 b1 03 0c
        E 71 b1 03 0c
        E 71 b1 03 0b
        E 71 b1 03 0a
        E 71 b1 03 09
        E 71 b1 03 08
        E 71 b1 03 08
        E 71 b1 03 07
        E 71 b1 03 06
        E 71 b1 03 05
        E 71 b1 03 05
        E 71 b1 03 04
        E 71 b1 03 03
        E 71 b1 03 03
        E 71 b1 03 03
        E 71 b1 03 02
        E 71 b1 03 02
        E 71 b1 03 01
        E 71 b1 03 01
        E 71 b1 03 00
        E 71 b1 03 00
        E 71 b1 03 00
        E 71 b1 03 00
        E 71 b1 03 00
        E 71 b1 03 00
        E 71 b1 03 00
        E 71 b1 03 00
        E 71 b1 03 00
        E 71 b1 03 00
        E 71 b1 03 00
        E 71 b1 03 00
        E 71 b1 03 00
        E 71 b1 03 01
        E 71 b1 03 01
        E 71 b1 03 01
        E 71 b1 03 02
        E 71 b1 03 02
        E 71 b1 03 03
        E 71 b1 03 03
        E 71 b1 03 04
        E 71 b1 03 04
        E 71 b1 03 05
        E 71 b1 03 06
        E 71 b1 03 06
        E 71 b1 03 07
        E 71 b1 03 08
        E 71 b1 03 09
        E 71 b1 03 09
        E 71 b1 03 0a
        E 71 b1 03 0b
        E 71 b1 03 0c
        E 71 b1 03 0d
        E 71 b1 03 0e
        E 71 b1 03 0f
        E 71 b1 03 10
        E 71 b1 03 11
        E 71 b1 03 12
        E 71 b1 03 13
        E 23 b1 03 26
        E 23 b1 03 28
        E 23 b1 03 2a
        E 23 b1 03 2b
        E 23 b1 03 2d
        E 23 b1 03 2f
        E 23 b1 03 31
        E 23 b1 03 33
        E 23 b1 03 34
        E 23 b1 03 36
        E 23 b1 03 38
        E 23 b1 03 39
        E 23 b1 03 3b
        E 23 b1 03 3d
        E 23 b1 03 3e
        E 23 b1 03 3f
        E 23 b1 03 41
        E 23 b1 03 42
        E 23 b1 03 43
        E 23 b1 03 45
        E 23 b1 03 46
        E 23 b1 03 46
        E 23 b1 03 48
        E 23 b1 03 48
        E 23 b1 03 49
        E 23 b1 03 49
        E 23 b1 03 4a
        E 23 b1 03 4b
        E 23 b1 03 4b
        E 23 b1 03 4b
        E 23 b1 03 4c
        E 23 b1 03 4c
        E 23 b1 03 4c
        E 23 b1 03 4c
        E 23 b1 03 4c
        E 23 b1 03 4b
        E 23 b1 03 4b
        E 23 b1 03 4b
        E 23 b1 03 4a
        E 23 b1 03 49
        E 23 b1 03 49
        E 23 b1 03 48
        E 23 b1 03 47
        E 23 b1 03 46
        E 23 b1 03 45
        E 23 b1 03 44
        E 23 b1 03 43
        E 23 b1 03 42
        E 23 b1 03 40
        E 23 b1 03 3f
        E 23 b1 03 3d
        E 23 b1 03 3c
        E 23 b1 03 3a
        E 23 b1 03 39
        E 23 b1 03 37
        E 23 b1 03 35
        E 23 b1 03 34
        E 23 b1 03 32
        E 23 b1 03 30
        E 23 b1 03 2e
        E 23 b1 03 2c
        E 23 b1 03 2a
        E 23 b1 03 28
        E 23 b1 03 27
        E 23 b1 03 25
        E 23 b1 03 23
        E 23 b1 03 21
        E 23 b1 03 1f
        E 23 b1 03 1d
        E 23 b1 03 1b
        E 23 b1 03 19
        E 23 b1 03 18
        E 23 b1 03 16
        E 23 b1 03 15
        E 23 b1 03 13
        E 23 b1 03 11
        E 23 b1 03 10
        E 23 b1 03 0e
        E 23 b1 03 0d
        E 23 b1 03 0b
        E 23 b1 03 0a
        E 23 b1 03 09
        E 23 b1 03 07
        E 23 b1 03 06
        E 23 b1 03 06
        E 23 b1 03 04
        E 23 b1 03 04
        E 23 b1 03 03
        E 23 b1 03 02
        E 23 b1 03 01
        E 23 b1 03 01
        E 23 b1 03 00
        E 23 b1 03 00
        E 23 b1 03 00
        E 23 b1 03 00
        E 23 b1 03 00
        E 23 b1 03 00
        E 23 b1 03 00
        E 23 b1 03 00
        E 23 b1 03 00
        E 23 b1 03 01
        E 23 b1 03 01
        E 23 b1 03 02
        E 23 b1 03 03
        E 23 b1 03 03
        E 23 b1 03 04
        E 23 b1 03 05
        E 23 b1 03 06
        E 23 b1 03 07
        E 23 b1 03 08
        E 23 b1 03 09
        E 23 b1 03 0a
        E 23 b1 03 0c
        E 23 b1 03 0d
        E 23 b1 03 0f
        E 23 b1 03 10
        E 23 b1 03 12
        E 23 b1 03 13
        E 23 b1 03 15
        E 23 b1 03 17
        E 23 b1 03 19
        E 23 b1 03 1b
        E 23 b1 03 1c
        E 23 b1 03 1e
        E 23 b1 03 20
        E 23 b1 03 22
        E 23 b1 03 24
        E 23 b1 03 26
        E 63 b1 03 39
        E 63 b1 03 3c
        E 63 b1 03 3f
        E 63 b1 03 41
        E 63 b1 03 44
        E 63 b1 03 47
        E 63 b1 03 49
        E 63 b1 03 4c
        E 63 b1 03 4f
        E 63 b1 03 51
        E 63 b1 03 54
        E 63 b1 03 56
        E 63 b1 03 59
        E 63 b1 03 5b
        E 63 b1 03 5d
        E 63 b1 03 5f
        E 63 b1 03 62
        E 63 b1 03 63
        E 63 b1 03 65
        E 63 b1 03 67
        E 63 b1 03 69
        E 63 b1 03 6a
        E 63 b1 03 6c
        E 63 b1 03 6c
        E 63 b1 03 6d
        E 63 b1 03 6e
        E 63 b1 03 6f
        E 63 b1 03 70
        E 63 b1 03 71
        E 63 b1 03 71
        E 63 b1 03 72
        E 63 b1 03 72
        E 63 b1 03 72
        E 63 b1 03 72
        E 63 b1 03 72
        E 63 b1 03 71
        E 63 b1 03 71
        E 63 b1 03 70
        E 63 b1 03 6f
        E 63 b1 03 6e
        E 63 b1 03 6d
        E 63 b1 03 6c
        E 63 b1 03 6b
        E 63 b1 03 69
        E 63 b1 03 68
        E 63 b1 03 66
        E 63 b1 03 64
        E 63 b1 03 63
        E 63 b1 03 61
        E 63 b1 03 5e
        E 63 b1 03 5c
        E 63 b1 03 5a
        E 63 b1 03 58
        E 63 b1 03 55
        E 63 b1 03 52
        E 63 b1 03 50
        E 63 b1 03 4e
        E 63 b1 03 4b
        E 63 b1 03 48
        E 63 b1 03 46
        E 63 b1 03 42
        E 63 b1 03 3f
        E 63 b1 03 3d
        E 63 b1 03 3a
        E 63 b1 03 37
        E 63 b1 03 35
        E 63 b1 03 32
        E 63 b1 03 2f
        E 63 b1 03 2c
        E 63 b1 03 29
        E 63 b1 03 26
        E 63 b1 03 24
        E 63 b1 03 22
        E 63 b1 03 1f
        E 63 b1 03 1c
        E 63 b1 03 1a
        E 63 b1 03 18
        E 63 b1 03 15
        E 63 b1 03 13
        E 63 b1 03 11
        E 63 b1 03 0f
        E 63 b1 03 0d
        E 63 b1 03 0b
        E 63 b1 03 09
        E 63 b1 03 09
        E 63 b1 03 07
        E 63 b1 03 06
        E 63 b1 03 04
        E 63 b1 03 03
        E 63 b1 03 02
        E 63 b1 03 01
        E 63 b1 03 00
        E 63 b1 03 00
        E 63 b1 03 00
        E 63 b1 03 00
        E 63 b1 03 00
        E 63 b1 03 00
        E 63 b1 03 00
        E 63 b1 03 00
        E 63 b1 03 00
        E 63 b1 03 01
        E 63 b1 03 02
        E 63 b1 03 03
        E 63 b1 03 04
        E 63 b1 03 05
        E 63 b1 03 06
        E 63 b1 03 08
        E 63 b1 03 09
        E 63 b1 03 0a
        E 63 b1 03 0c
        E 63 b1 03 0e
        E 63 b1 03 10
        E 63 b1 03 12
        E 63 b1 03 14
        E 63 b1 03 16
        E 63 b1 03 19
        E 63 b1 03 1b
        E 63 b1 03 1d
        E 63 b1 03 20
        E 63 b1 03 23
        E 63 b1 03 25
        E 63 b1 03 28
        E 63 b1 03 2b
        E 63 b1 03 2d
        E 63 b1 03 30
        E 63 b1 03 33
        E 63 b1 03 36
        E 63 b1 03 39
        E 7 b1 03 19
        E 7 b1 03 1a
        E 7 b1 03 1c
        E 7 b1 03 1d
        E 7 b1 03 1e
        E 7 b1 03 1f
        E 7 b1 03 20
        E 7 b1 03 22
        E 7 b1 03 23
        E 7 b1 03 24
        E 7 b1 03 25
        E 7 b1 03 26
        E 7 b1 03 27
        E 7 b1 03 28
        E 7 b1 03 29
        E 7 b1 03 2a
        E 7 b1 03 2b
        E 7 b1 03 2c
        E 7 b1 03 2d
        E 7 b1 03 2e
        E 7 b1 03 2e
        E 7 b1 03 2f
        E 7 b1 03 30
        E 7 b1 03 30
        E 7 b1 03 30
        E 7 b1 03 31
        E 7 b1 03 31
        E 7 b1 03 32
        E 7 b1 03 32
        E 7 b1 03 32
        E 7 b1 03 32
        E 7 b1 03 32
        E 7 b1 03 32
        E 7 b1 03 32
        E 7 b1 03 32
        E 7 b1 03 32
        E 7 b1 03 32
        E 7 b1 03 32
        E 7 b1 03 31
        E 7 b1 03 31
        E 7 b1 03 30
        E 7 b1 03 30
        E 7 b1 03 2f
        E 7 b1 03 2e
        E 7 b1 03 2e
        E 7 b1 03 2d
        E 7 b1 03 2c
        E 7 b1 03 2c
        E 7 b1 03 2b
        E 7 b1 03 2a
        E 7 b1 03 29
        E 7 b1 03 28
        E 7 b1 03 27
        E 7 b1 03 26
        E 7 b1 03 24
        E 7 b1 03 23
        E 7 b1 03 22
        E 7 b1 03 21
        E 7 b1 03 20
        E 7 b1 03 1f
        E 7 b1 03 1d
        E 7 b1 03 1c
        E 7 b1 03 1b
        E 7 b1 03 1a
        E 7 b1 03 18
        E 7 b1 03 17
        E 7 b1 03 16
        E 7 b1 03 15
        E 7 b1 03 13
        E 7 b1 03 12
        E 7 b1 03 11
        E 7 b1 03 10
        E 7 b1 03 0f
        E 7 b1 03 0e
        E 7 b1 03 0c
        E 7 b1 03 0b
        E 7 b1 03 0a
        E 7 b1 03 09
        E 7 b1 03 08
        E 7 b1 03 07
        E 7 b1 03 06
        E 7 b1 03 06
        E 7 b1 03 05
        E 7 b1 03 04
        E 7 b1 03 04
        E 7 b1 03 03
        E 7 b1 03 02
        E 7 b1 03 02
        E 7 b1 03 01
        E 7 b1 03 01
        E 7 b1 03 00
        E 7 b1 03 00
        E 7 b1 03 00
        E 7 b1 03 00
        E 7 b1 03 00
        E 7 b1 03 00
        E 7 b1 03 00
        E 7 b1 03 00
        E 7 b1 03 00
        E 7 b1 03 00
        E 7 b1 03 00
        E 7 b1 03 01
        E 7 b1 03 01
        E 7 b1 03 02
        E 7 b1 03 02
        E 7 b1 03 02
        E 7 b1 03 03
        E 7 b1 03 04
        E 7 b1 03 04
        E 7 b1 03 05
        E 7 b1 03 06
        E 7 b1 03 07
        E 7 b1 03 08
        E 7 b1 03 09
        E 7 b1 03 0a
        E 7 b1 03 0b
        E 7 b1 03 0c
        E 7 b1 03 0d
        E 7 b1 03 0e
        E 7 b1 03 0f
        E 7 b1 03 10
        E 7 b1 03 12
        E 7 b1 03 13
        E 7 b1 03 14
        E 7 b1 03 15
        E 7 b1 03 16
        E 7 b1 03 18
        E 7 b1 03 19
        E 71 b1 03 13
        E 71 b1 03 14
        E 71 b1 03 15
        E 71 b1 03 15
        E 71 b1 03 16
        E 71 b1 03 17
        E 71 b1 03 18
        E 71 b1 03 19
        E 71 b1 03 1a
        E 71 b1 03 1b
        E 71 b1 03 1c
        E 71 b1 03 1c
        E 71 b1 03 1d
        E 71 b1 03 1e
        E 71 b1 03 1f
        E 71 b1 03 1f
        E 71 b1 03 20
        E 71 b1 03 21
        E 71 b1 03 21
        E 71 b1 03 22
        E 71 b1 03 23
        E 71 b1 03 23
        E 71 b1 03 24
        E 71 b1 03 24
        E 71 b1 03 24
        E 71 b1 03 24
        E 71 b1 03 25
        E 71 b1 03 25
        E 71 b1 03 25
        E 71 b1 03 25
        E 71 b1 03 26
        E 71 b1 03 26
        E 71 b1 03 26
        E 71 b1 03 26
        E 71 b1 03 26
        E 71 b1 03 25
        E 71 b1 03 25
        E 71 b1 03 25
        E 71 b1 03 25
        E 71 b1 03 24
        E 71 b1 03 24
        E 71 b1 03 24
        E 71 b1 03 23
        E 71 b1 03 23
        E 71 b1 03 22
        E 71 b1 03 22
        E 71 b1 03 21
        E 71 b1 03 21
        E 71 b1 03 20
        E 71 b1 03 1f
        E 71 b1 03 1e
        E 71 b1 03 1e
        E 71 b1 03 1d
        E 71 b1 03 1c
        E 71 b1 03 1b
        E 71 b1 03 1a
        E 71 b1 03 1a
        E 71 b1 03 19
        E 71 b1 03 18
        E 71 b1 03 17
        E 71 b1 03 16
        E 71 b1 03 15
        E 71 b1 03 14
        E 71 b1 03 13
        E 71 b1 03 12
        E 71 b1 03 11
        E 71 b1 03 10
        E 71 b1 03 0f
        E 71 b1 03 0e
        E 71 b1 03 0d
        E 71 b1 03 0c
        E 71 b1 03 0c
        E 71 b1 03 0b
        E 71 b1 03 0a
        E 71 b1 03 09
        E 71 b1 03 08
        E 71 b1 03 08
        E 71 b1 03 07
        E 71 b1 03 06
        E 71 b1 03 05
        E 71 b1 03 05
        E 71 b1 03 04
        E 71 b1 03 03
        E 71 b1 03 03
        E 71 b1 03 03
        E 71 b1 03 02
        E 71 b1 03 02
        E 71 b1 03 01
        E 71 b1 03 01
        E 71 b1 03 00
        E 71 b1 03 00
        E 71 b1 03 00
        E 71 b1 03 00
        E 71 b1 03 00
        E 71 b1 03 00
        E 71 b1 03 00
        E 71 b1 03 00
        E 71 b1 03 00
        E 71 b1 03 00
        E 71 b1 03 00
        E 71 b1 03 00
        E 71 b1 03 00
        E 71 b1 03 01
        E 71 b1 03 01
        E 71 b1 03 01
        E 71 b1 03 02
        E 71 b1 03 02
        E 71 b1 03 03
        E 71 b1 03 03
        E 71 b1 03 04
        E 71 b1 03 04
        E 71 b1 03 05
        E 71 b1 03 06
        E 71 b1 03 06
        E 71 b1 03 07
        E 71 b1 03 08
        E 71 b1 03 09
        E 71 b1 03 09
        E 71 b1 03 0a
        E 71 b1 03 0b
        E 71 b1 03 0c
        E 71 b1 03 0d
        E 71 b1 03 0e
        E 71 b1 03 0f
        E 71 b1 03 10
        E 71 b1 03 11
        E 71 b1 03 12
        E 71 b1 03 13
        E 23 b1 03 26
        E 23 b1 03 28
        E 23 b1 03 2a
        E 23 b1 03 2b
        E 23 b1 03 2d
        E 23 b1 03 2f
        E 23 b1 03 31
        E 23 b1 03 33
        E 23 b1 03 34
        E 23 b1 03 36
        E 23 b1 03 38
        E 23 b1 03 39
        E 23 b1 03 3b
        E 23 b1 03 3d
        E 23 b1 03 3e
        E 23 b1 03 3f
        E 23 b1 03 41
        E 23 b1 03 42
        E 23 b1 03 43
        E 23 b1 03 45
        E 23 b1 03 46
        E 23 b1 03 46
        E 23 b1 03 48
        E 23 b1 03 48
        E 23 b1 03 49
        E 23 b1 03 49
        E 23 b1 03 4a
        E 23 b1 03 4b
        E 23 b1 03 4b
        E 23 b1 03 4b
        E 23 b1 03 4c
        E 23 b1 03 4c
        E 23 b1 03 4c
        E 23 b1 03 4c
        E 23 b1 03 4c
        E 23 b1 03 4b
        E 23 b1 03 4b
        E 23 b1 03 4b
        E 23 b1 03 4a
        E 23 b1 03 49
        E 23 b1 03 49
        E 23 b1 03 48
        E 23 b1 03 47
        E 23 b1 03 46
        E 23 b1 03 45
        E 23 b1 03 44
        E 23 b1 03 43
        E 23 b1 03 42
        E 23 b1 03 40
        E 23 b1 03 3f
        E 23 b1 03 3d
        E 23 b1 03 3c
        E 23 b1 03 3a
        E 23 b1 03 39
        E 23 b1 03 37
        E 23 b1 03 35
        E 23 b1 03 34
        E 23 b1 03 32
        E 23 b1 03 30
        E 23 b1 03 2e
        E 23 b1 03 2c
        E 23 b1 03 2a
        E 23 b1 03 28
        E 23 b1 03 27
        E 23 b1 03 25
        E 23 b1 03 23
        E 23 b1 03 21
        E 23 b1 03 1f
        E 23 b1 03 1d
        E 23 b1 03 1b
        E 23 b1 03 19
        E 23 b1 03 18
        E 23 b1 03 16
        E 23 b1 03 15
        E 23 b1 03 13
        E 23 b1 03 11
        E 23 b1 03 10
        E 23 b1 03 0e
        E 23 b1 03 0d
        E 23 b1 03 0b
        E 23 b1 03 0a
        E 23 b1 03 09
        E 23 b1 03 07
        E 23 b1 03 06
        E 23 b1 03 06
        E 23 b1 03 04
        E 23 b1 03 04
        E 23 b1 03 03
        E 23 b1 03 02
        E 23 b1 03 01
        E 23 b1 03 01
        E 23 b1 03 00
        E 23 b1 03 00
        E 23 b1 03 00
        E 23 b1 03 00
        E 23 b1 03 00
        E 23 b1 03 00
        E 23 b1 03 00
        E 23 b1 03 00
        E 23 b1 03 00
        E 23 b1 03 01
        E 23 b1 03 01
        E 23 b1 03 02
        E 23 b1 03 03
        E 23 b1 03 03
        E 23 b1 03 04
        E 23 b1 03 05
        E 23 b1 03 06
        E 23 b1 03 07
        E 23 b1 03 08
        E 23 b1 03 09
        E 23 b1 03 0a
        E 23 b1 03 0c
        E 23 b1 03 0d
        E 23 b1 03 0f
        E 23 b1 03 10
        E 23 b1 03 12
        E 23 b1 03 13
        E 23 b1 03 15
        E 23 b1 03 17
        E 23 b1 03 19
        E 23 b1 03 1b
        E 23 b1 03 1c
        E 23 b1 03 1e
        E 23 b1 03 20
        E 23 b1 03 22
        E 23 b1 03 24
        E 23 b1 03 26
        E 63 b1 03 39
        E 63 b1 03 3c
        E 63 b1 03 3f
        E 63 b1 03 41
        E 63 b1 03 44
        E 63 b1 03 47
        E 63 b1 03 49
        E 63 b1 03 4c
        E 63 b1 03 4f
        E 63 b1 03 51
        E 63 b1 03 54
        E 63 b1 03 56
        E 63 b1 03 59
        E 63 b1 03 5b
        E 63 b1 03 5d
        E 63 b1 03 5f
        E 63 b1 03 62
        E 63 b1 03 63
        E 63 b1 03 65
        E 63 b1 03 67
        E 63 b1 03 69
        E 63 b1 03 6a
        E 63 b1 03 6c
        E 63 b1 03 6c
        E 63 b1 03 6d
        E 63 b1 03 6e
        E 63 b1 03 6f
        E 63 b1 03 70
        E 63 b1 03 71
        E 63 b1 03 71
        E 63 b1 03 72
        E 63 b1 03 72
        E 63 b1 03 72
        E 63 b1 03 72
        E 63 b1 03 72
        E 63 b1 03 71
        E 63 b1 03 71
        E 63 b1 03 70
        E 63 b1 03 6f
        E 63 b1 03 6e
        E 63 b1 03 6d
        E 63 b1 03 6c
        E 63 b1 03 6b
        E 63 b1 03 69
        E 63 b1 03 68
        E 63 b1 03 66
        E 63 b1 03 64
        E 63 b1 03 63
        E 63 b1 03 61
        E 63 b1 03 5e
        E 63 b1 03 5c
        E 63 b1 03 5a
        E 63 b1 03 58
        E 63 b1 03 55
        E 63 b1 03 52
        E 63 b1 03 50
        E 63 b1 03 4e
        E 63 b1 03 4b
        E 63 b1 03 48
        E 63 b1 03 46
        E 63 b1 03 42
        E 63 b1 03 3f
        E 63 b1 03 3d
        E 63 b1 03 3a
        E 63 b1 03 37
        E 63 b1 03 35
        E 63 b1 03 32
        E 63 b1 03 2f
        E 63 b1 03 2c
        E 63 b1 03 29
        E 63 b1 03 26
        E 63 b1 03 24
        E 63 b1 03 22
        E 63 b1 03 1f
        E 63 b1 03 1c
        E 63 b1 03 1a
        E 63 b1 03 18
        E 63 b1 03 15
        E 63 b1 03 13
        E 63 b1 03 11
        E 63 b1 03 0f
        E 63 b1 03 0d
        E 63 b1 03 0b
        E 63 b1 03 09
        E 63 b1 03 09
        E 63 b1 03 07
        E 63 b1 03 06
        E 63 b1 03 04
        E 63 b1 03 03
        E 63 b1 03 02
        E 63 b1 03 01
        E 63 b1 03 00
        E 63 b1 03 00
        E 63 b1 03 00
        E 63 b1 03 00
        E 63 b1 03 00
        E 63 b1 03 00
        E 63 b1 03 00
        E 63 b1 03 00
        E 63 b1 03 00
        E 63 b1 03 01
        E 63 b1 03 02
        E 63 b1 03 03
        E 63 b1 03 04
        E 63 b1 03 05
        E 63 b1 03 06
        E 63 b1 03 08
        E 63 b1 03 09
        E 63 b1 03 0a
        E 63 b1 03 0c
        E 63 b1 03 0e
        E 63 b1 03 10
        E 63 b1 03 12
        E 63 b1 03 14
        E 63 b1 03 16
        E 63 b1 03 19
        E 63 b1 03 1b
        E 63 b1 03 1d
        E 63 b1 03 20
        E 63 b1 03 23
        E 63 b1 03 25
        E 63 b1 03 28
        E 63 b1 03 2b
        E 63 b1 03 2d
        E 63 b1 03 30
        E 63 b1 03 33
        E 63 b1 03 36
        E 63 b1 03 39
        E 7 b1 03 19
        E 7 b1 03 1a
        E 7 b1 03 1c
        E 7 b1 03 1d
        E 7 b1 03 1e
        E 7 b1 03 1f
        E 7 b1 03 20
        E 7 b1 03 22
        E 7 b1 03 23
        E 7 b1 03 24
        E 7 b1 03 25
        E 7 b1 03 26
        E 7 b1 03 27
        E 7 b1 03 28
        E 7 b1 03 29
        E 7 b1 03 2a
        E 7 b1 03 2b
        E 7 b1 03 2c
        E 7 b1 03 2d
        E 7 b1 03 2e
        E 7 b1 03 2e
        E 7 b1 03 2f
        E 7 b1 03 30
        E 7 b1 03 30
        E 7 b1 03 30
        E 7 b1 03 31
        E 7 b1 03 31
        E 7 b1 03 32
        E 7 b1 03 32
        E 7 b1 03 32
        E 7 b1 03 32
        E 7 b1 03 32
        E 7 b1 03 32
        E 7 b1 03 32
        E 7 b1 03 32
        E 7 b1 03 32
        E 7 b1 03 32
        E 7 b1 03 32
        E 7 b1 03 31
        E 7 b1 03 31
        E 7 b1 03 30
        E 7 b1 03 30
        E 7 b1 03 2f
        E 7 b1 03 2e
        E 7 b1 03 2e
        E 7 b1 03 2d
        E 7 b1 03 2c
        E 7 b1 03 2c
        E 7 b1 03 2b
        E 7 b1 03 2a
        E 7 b1 03 29
        E 7 b1 03 28
        E 7 b1 03 27
        E 7 b1 03 26
        E 7 b1 03 24
        E 7 b1 03 23
        E 7 b1 03 22
        E 7 b1 03 21
        E 7 b1 03 20
        E 7 b1 03 1f
        E 7 b1 03 1d
        E 7 b1 03 1c
        E 7 b1 03 1b
        E 7 b1 03 1a
        E 7 b1 03 18
        E 7 b1 03 17
        E 7 b1 03 16
        E 7 b1 03 15
        E 7 b1 03 13
        E 7 b1 03 12
        E 7 b1 03 11
        E 7 b1 03 10
        E 7 b1 03 0f
        E 7 b1 03 0e
        E 7 b1 03 0c
        E 7 b1 03 0b
        E 7 b1 03 0a
        E 7 b1 03 09
        E 7 b1 03 08
        E 7 b1 03 07
        E 7 b1 03 06
        E 7 b1 03 06
        E 7 b1 03 05
        E 7 b1 03 04
        E 7 b1 03 04
        E 7 b1 03 03
        E 7 b1 03 02
        E 7 b1 03 02
        E 7 b1 03 01
        E 7 b1 03 01
        E 7 b1 03 00
        E 7 b1 03 00
        E 7 b1 03 00
        E 7 b1 03 00
        E 7 b1 03 00
        E 7 b1 03 00
        E 7 b1 03 00
        E 7 b1 03 00
        E 7 b1 03 00
        E 7 b1 03 00
        E 7 b1 03 00
        E 7 b1 03 01
        E 7 b1 03 01
        E 7 b1 03 02
        E 7 b1 03 02
        E 7 b1 03 02
        E 7 b1 03 03
        E 7 b1 03 04
        E 7 b1 03 04
        E 7 b1 03 05
        E 7 b1 03 06
        E 7 b1 03 07
        E 7 b1 03 08
        E 7 b1 03 09
        E 7 b1 03 0a
        E 7 b1 03 0b
        E 7 b1 03 0c
        E 7 b1 03 0d
        E 7 b1 03 0e
        E 7 b1 03 0f
        E 7 b1 03 10
        E 7 b1 03 12
        E 7 b1 03 13
        E 7 b1 03 14
        E 7 b1 03 15
        E 7 b1 03 16
        E 7 b1 03 18
        E 7 b1 03 19
        E 71 b1 03 06
        E 71 b1 03 06
        E 71 b1 03 07
        E 71 b1 03 07
        E 71 b1 03 07
        E 71 b1 03 07
        E 71 b1 03 08
        E 71 b1 03 08
        E 71 b1 03 08
        E 71 b1 03 09
        E 71 b1 03 09
        E 71 b1 03 09
        E 71 b1 03 09
        E 71 b1 03 0a
        E 71 b1 03 0a
        E 71 b1 03 0a
        E 71 b1 03 0a
        E 71 b1 03 0b
        E 71 b1 03 0b
        E 71 b1 03 0b
        E 71 b1 03 0b
        E 71 b1 03 0b
        E 71 b1 03 0c
        E 71 b1 03 0c
        E 71 b1 03 0c
        E 71 b1 03 0c
        E 71 b1 03 0c
        E 71 b1 03 0c
        E 71 b1 03 0c
        E 71 b1 03 0c
        E 71 b1 03 0c
        E 71 b1 03 0c
        E 71 b1 03 0c
        E 71 b1 03 0c
        E 71 b1 03 0c
        E 71 b1 03 0c
        E 71 b1 03 0c
        E 71 b1 03 0c
        E 71 b1 03 0c
        E 71 b1 03 0c
        E 71 b1 03 0c
        E 71 b1 03 0c
        E 71 b1 03 0b
        E 71 b1 03 0b
        E 71 b1 03 0b
        E 71 b1 03 0b
        E 71 b1 03 0b
        E 71 b1 03 0b
        E 71 b1 03 0a
        E 71 b1 03 0a
        E 71 b1 03 0a
        E 71 b1 03 0a
        E 71 b1 03 09
        E 71 b1 03 09
        E 71 b1 03 09
        E 71 b1 03 08
        E 71 b1 03 08
        E 71 b1 03 08
        E 71 b1 03 08
        E 71 b1 03 07
        E 71 b1 03 07
        E 71 b1 03 07
        E 71 b1 03 06
        E 71 b1 03 06
        E 71 b1 03 06
        E 71 b1 03 05
        E 71 b1 03 05
        E 71 b1 03 05
        E 71 b1 03 04
        E 71 b1 03 04
        E 71 b1 03 04
        E 71 b1 03 04
        E 71 b1 03 03
        E 71 b1 03 03
        E 71 b1 03 03
        E 71 b1 03 02
        E 71 b1 03 02
        E 71 b1 03 02
        E 71 b1 03 02
        E 71 b1 03 01
        E 71 b1 03 01
        E 71 b1 03 01
        E 71 b1 03 01
        E 71 b1 03 01
        E 71 b1 03 01
        E 71 b1 03 00
        E 71 b1 03 00
        E 71 b1 03 00
        E 71 b1 03 00
        E 71 b1 03 00
        E 71 b1 03 00
        E 71 b1 03 00
        E 71 b1 03 00
        E 71 b1 03 00
        E 71 b1 03 00
        E 71 b1 03 00
        E 71 b1 03 00
        E 71 b1 03 00
        E 71 b1 03 00
        E 71 b1 03 00
        E 71 b1 03 00
        E 71 b1 03 00
        E 71 b1 03 00
        E 71 b1 03 00
        E 71 b1 03 00
        E 71 b1 03 00
        E 71 b1 03 00
        E 71 b1 03 01
        E 71 b1 03 01
        E 71 b1 03 01
        E 71 b1 03 01
        E 71 b1 03 01
        E 71 b1 03 02
        E 71 b1 03 02
        E 71 b1 03 02
        E 71 b1 03 02
        E 71 b1 03 03
        E 71 b1 03 03
        E 71 b1 03 03
        E 71 b1 03 03
        E 71 b1 03 04
        E 71 b1 03 04
        E 71 b1 03 04
        E 71 b1 03 05
        E 71 b1 03 05
        E 71 b1 03 05
        E 71 b1 03 06
        E 71 b1 03 06
        E 63 b1 03 2c
        E 63 b1 03 2e
        E 63 b1 03 31
        E 63 b1 03 33
        E 63 b1 03 35
        E 63 b1 03 37
        E 63 b1 03 39
        E 63 b1 03 3b
        E 63 b1 03 3d
        E 63 b1 03 3f
        E 63 b1 03 41
        E 63 b1 03 43
        E 63 b1 03 45
        E 63 b1 03 47
        E 63 b1 03 48
        E 63 b1 03 4a
        E 63 b1 03 4c
        E 63 b1 03 4d
        E 63 b1 03 4f
        E 63 b1 03 50
        E 63 b1 03 51
        E 63 b1 03 52
        E 63 b1 03 54
        E 63 b1 03 54
        E 63 b1 03 55
        E 63 b1 03 56
        E 63 b1 03 56
        E 63 b1 03 57
        E 63 b1 03 58
        E 63 b1 03 58
        E 63 b1 03 58
        E 63 b1 03 58
        E 63 b1 03 58
        E 63 b1 03 58
        E 63 b1 03 58
        E 63 b1 03 58
        E 63 b1 03 58
        E 63 b1 03 57
        E 63 b1 03 56
        E 63 b1 03 56
        E 63 b1 03 55
        E 63 b1 03 54
        E 63 b1 03 53
        E 63 b1 03 51
        E 63 b1 03 51
        E 63 b1 03 4f
        E 63 b1 03 4e
        E 63 b1 03 4d
        E 63 b1 03 4b
        E 63 b1 03 49
        E 63 b1 03 48
        E 63 b1 03 46
        E 63 b1 03 44
        E 63 b1 03 42
        E 63 b1 03 40
        E 63 b1 03 3e
        E 63 b1 03 3c
        E 63 b1 03 3a
        E 63 b1 03 38
        E 63 b1 03 36
        E 63 b1 03 33
        E 63 b1 03 31
        E 63 b1 03 2f
        E 63 b1 03 2d
        E 63 b1 03 2b
        E 63 b1 03 29
        E 63 b1 03 27
        E 63 b1 03 25
        E 63 b1 03 22
        E 63 b1 03 20
        E 63 b1 03 1e
        E 63 b1 03 1c
        E 63 b1 03 1a
        E 63 b1 03 18
        E 63 b1 03 16
        E 63 b1 03 14
        E 63 b1 03 12
        E 63 b1 03 10
        E 63 b1 03 0f
        E 63 b1 03 0d
        E 63 b1 03 0b
        E 63 b1 03 0a
        E 63 b1 03 09
        E 63 b1 03 07
        E 63 b1 03 07
        E 63 b1 03 05
        E 63 b1 03 04
        E 63 b1 03 03
        E 63 b1 03 02
        E 63 b1 03 02
        E 63 b1 03 01
        E 63 b1 03 00
        E 63 b1 03 00
        E 63 b1 03 00
        E 63 b1 03 00
        E 63 b1 03 00
        E 63 b1 03 00
        E 63 b1 03 00
        E 63 b1 03 00
        E 63 b1 03 00
        E 63 b1 03 01
        E 63 b1 03 02
        E 63 b1 03 02
        E 63 b1 03 03
        E 63 b1 03 04
        E 63 b1 03 04
        E 63 b1 03 06
        E 63 b1 03 07
        E 63 b1 03 08
        E 63 b1 03 09
        E 63 b1 03 0b
        E 63 b1 03 0c
        E 63 b1 03 0e
        E 63 b1 03 10
        E 63 b1 03 11
        E 63 b1 03 13
        E 63 b1 03 15
        E 63 b1 03 17
        E 63 b1 03 19
        E 63 b1 03 1b
        E 63 b1 03 1d
        E 63 b1 03 1f
        E 63 b1 03 21
        E 63 b1 03 23
        E 63 b1 03 25
        E 63 b1 03 27
        E 63 b1 03 2a
        E 63 b1 03 2c
        E 71 b1 03 13
        E 71 b1 03 14
        E 71 b1 03 15
        E 71 b1 03 15
        E 71 b1 03 16
        E 71 b1 03 17
        E 71 b1 03 18
        E 71 b1 03 19
        E 71 b1 03 1a
        E 71 b1 03 1b
        E 71 b1 03 1c
        E 71 b1 03 1c
        E 71 b1 03 1d
        E 71 b1 03 1e
        E 71 b1 03 1f
        E 71 b1 03 1f
        E 71 b1 03 20
        E 71 b1 03 21
        E 71 b1 03 21
        E 71 b1 03 22
        E 71 b1 03 23
        E 71 b1 03 23
        E 71 b1 03 24
        E 71 b1 03 24
        E 71 b1 03 24
        E 71 b1 03 24
        E 71 b1 03 25
        E 71 b1 03 25
        E 71 b1 03 25
        E 71 b1 03 25
        E 71 b1 03 26
        E 71 b1 03 26
        E 71 b1 03 26
        E 71 b1 03 26
        E 71 b1 03 26
        E 71 b1 03 25
        E 71 b1 03 25
        E 71 b1 03 25
        E 71 b1 03 25
        E 71 b1 03 24
        E 71 b1 03 24
        E 71 b1 03 24
        E 71 b1 03 23
        E 71 b1 03 23
        E 71 b1 03 22
        E 71 b1 03 22
        E 71 b1 03 21
        E 71 b1 03 21
        E 71 b1 03 20
        E 71 b1 03 1f
        E 71 b1 03 1e
        E 71 b1 03 1e
        E 71 b1 03 1d
        E 71 b1 03 1c
        E 71 b1 03 1b
        E 71 b1 03 1a
        E 71 b1 03 1a
        E 71 b1 03 19
        E 71 b1 03 18
        E 71 b1 03 17
        E 71 b1 03 16
        E 71 b1 03 15
        E 71 b1 03 14
        E 71 b1 03 13
        E 71 b1 03 12
        E 71 b1 03 11
        E 71 b1 03 10
        E 71 b1 03 0f
        E 71 b1 03 0e
        E 71 b1 03 0d
        E 71 b1 03 0c
        E 71 b1 03 0c
        E 71 b1 03 0b
        E 71 b1 03 0a
        E 71 b1 03 09
        E 71 b1 03 08
        E 71 b1 03 08
        E 71 b1 03 07
        E 71 b1 03 06
        E 71 b1 03 05
        E 71 b1 03 05
        E 71 b1 03 04
        E 71 b1 03 03
        E 71 b1 03 03
        E 71 b1 03 03
        E 71 b1 03 02
        E 71 b1 03 02
        E 71 b1 03 01
        E 71 b1 03 01
        E 71 b1 03 00
        E 71 b1 03 00
        E 71 b1 03 00
        E 71 b1 03 00
        E 71 b1 03 00
        E 71 b1 03 00
        E 71 b1 03 00
        E 71 b1 03 00
        E 71 b1 03 00
        E 71 b1 03 00
        E 71 b1 03 00
        E 71 b1 03 00
        E 71 b1 03 00
        E 71 b1 03 01
        E 71 b1 03 01
        E 71 b1 03 01
        E 71 b1 03 02
        E 71 b1 03 02
        E 71 b1 03 03
        E 71 b1 03 03
        E 71 b1 03 04
        E 71 b1 03 04
        E 71 b1 03 05
        E 71 b1 03 06
        E 71 b1 03 06
        E 71 b1 03 07
        E 71 b1 03 08
        E 71 b1 03 09
        E 71 b1 03 09
        E 71 b1 03 0a
        E 71 b1 03 0b
        E 71 b1 03 0c
        E 71 b1 03 0d
        E 71 b1 03 0e
        E 71 b1 03 0f
        E 71 b1 03 10
        E 71 b1 03 11
        E 71 b1 03 12
        E 71 b1 03 13
        E 23 b1 03 26
        E 23 b1 03 28
        E 23 b1 03 2a
        E 23 b1 03 2b
        E 23 b1 03 2d
        E 23 b1 03 2f
        E 23 b1 03 31
        E 23 b1 03 33
        E 23 b1 03 34
        E 23 b1 03 36
        E 23 b1 03 38
        E 23 b1 03 39
        E 23 b1 03 3b
        E 23 b1 03 3d
        E 23 b1 03 3e
        E 23 b1 03 3f
        E 23 b1 03 41
        E 23 b1 03 42
        E 23 b1 03 43
        E 23 b1 03 45
        E 23 b1 03 46
        E 23 b1 03 46
        E 23 b1 03 48
        E 23 b1 03 48
        E 23 b1 03 49
        E 23 b1 03 49
        E 23 b1 03 4a
        E 23 b1 03 4b
        E 23 b1 03 4b
        E 23 b1 03 4b
        E 23 b1 03 4c
        E 23 b1 03 4c
        E 23 b1 03 4c
        E 23 b1 03 4c
        E 23 b1 03 4c
        E 23 b1 03 4b
        E 23 b1 03 4b
        E 23 b1 03 4b
        E 23 b1 03 4a
        E 23 b1 03 49
        E 23 b1 03 49
        E 23 b1 03 48
        E 23 b1 03 47
        E 23 b1 03 46
        E 23 b1 03 45
        E 23 b1 03 44
        E 23 b1 03 43
        E 23 b1 03 42
        E 23 b1 03 40
        E 23 b1 03 3f
        E 23 b1 03 3d
        E 23 b1 03 3c
        E 23 b1 03 3a
        E 23 b1 03 39
        E 23 b1 03 37
        E 23 b1 03 35
        E 23 b1 03 34
        E 23 b1 03 32
        E 23 b1 03 30
        E 23 b1 03 2e
        E 23 b1 03 2c
        E 23 b1 03 2a
        E 23 b1 03 28
        E 23 b1 03 27
        E 23 b1 03 25
        E 23 b1 03 23
        E 23 b1 03 21
        E 23 b1 03 1f
        E 23 b1 03 1d
        E 23 b1 03 1b
        E 23 b1 03 19
        E 23 b1 03 18
        E 23 b1 03 16
        E 23 b1 03 15
        E 23 b1 03 13
        E 23 b1 03 11
        E 23 b1 03 10
        E 23 b1 03 0e
        E 23 b1 03 0d
        E 23 b1 03 0b
        E 23 b1 03 0a
        E 23 b1 03 09
        E 23 b1 03 07
        E 23 b1 03 06
        E 23 b1 03 06
        E 23 b1 03 04
        E 23 b1 03 04
        E 23 b1 03 03
        E 23 b1 03 02
        E 23 b1 03 01
        E 23 b1 03 01
        E 23 b1 03 00
        E 23 b1 03 00
        E 23 b1 03 00
        E 23 b1 03 00
        E 23 b1 03 00
        E 23 b1 03 00
        E 23 b1 03 00
        E 23 b1 03 00
        E 23 b1 03 00
        E 23 b1 03 01
        E 23 b1 03 01
        E 23 b1 03 02
        E 23 b1 03 03
        E 23 b1 03 03
        E 23 b1 03 04
        E 23 b1 03 05
        E 23 b1 03 06
        E 23 b1 03 07
        E 23 b1 03 08
        E 23 b1 03 09
        E 23 b1 03 0a
        E 23 b1 03 0c
        E 23 b1 03 0d
        E 23 b1 03 0f
        E 23 b1 03 10
        E 23 b1 03 12
        E 23 b1 03 13
        E 23 b1 03 15
        E 23 b1 03 17
        E 23 b1 03 19
        E 23 b1 03 1b
        E 23 b1 03 1c
        E 23 b1 03 1e
        E 23 b1 03 20
        E 23 b1 03 22
        E 23 b1 03 24
        E 23 b1 03 26
        E 63 b1 03 39
        E 63 b1 03 3c
        E 63 b1 03 3f
        E 63 b1 03 41
        E 63 b1 03 44
        E 63 b1 03 47
        E 63 b1 03 49
        E 63 b1 03 4c
        E 63 b1 03 4f
        E 63 b1 03 51
        E 63 b1 03 54
        E 63 b1 03 56
        E 63 b1 03 59
        E 63 b1 03 5b
        E 63 b1 03 5d
        E 63 b1 03 5f
        E 63 b1 03 62
        E 63 b1 03 63
        E 63 b1 03 65
        E 63 b1 03 67
        E 63 b1 03 69
        E 63 b1 03 6a
        E 63 b1 03 6c
        E 63 b1 03 6c
        E 63 b1 03 6d
        E 63 b1 03 6e
        E 63 b1 03 6f
        E 63 b1 03 70
        E 63 b1 03 71
        E 63 b1 03 71
        E 63 b1 03 72
        E 63 b1 03 72
        E 63 b1 03 72
        E 63 b1 03 72
        E 63 b1 03 72
        E 63 b1 03 71
        E 63 b1 03 71
        E 63 b1 03 70
        E 63 b1 03 6f
        E 63 b1 03 6e
        E 63 b1 03 6d
        E 63 b1 03 6c
        E 63 b1 03 6b
        E 63 b1 03 69
        E 63 b1 03 68
        E 63 b1 03 66
        E 63 b1 03 64
        E 63 b1 03 63
        E 63 b1 03 61
        E 63 b1 03 5e
        E 63 b1 03 5c
        E 63 b1 03 5a
        E 63 b1 03 58
        E 63 b1 03 55
        E 63 b1 03 52
        E 63 b1 03 50
        E 63 b1 03 4e
        E 63 b1 03 4b
        E 63 b1 03 48
        E 63 b1 03 46
        E 63 b1 03 42
        E 63 b1 03 3f
        E 63 b1 03 3d
        E 63 b1 03 3a
        E 63 b1 03 37
        E 63 b1 03 35
        E 63 b1 03 32
        E 63 b1 03 2f
        E 63 b1 03 2c
        E 63 b1 03 29
        E 63 b1 03 26
        E 63 b1 03 24
        E 63 b1 03 22
        E 63 b1 03 1f
        E 63 b1 03 1c
        E 63 b1 03 1a
        E 63 b1 03 18
        E 63 b1 03 15
        E 63 b1 03 13
        E 63 b1 03 11
        E 63 b1 03 0f
        E 63 b1 03 0d
        E 63 b1 03 0b
        E 63 b1 03 09
        E 63 b1 03 09
        E 63 b1 03 07
        E 63 b1 03 06
        E 63 b1 03 04
        E 63 b1 03 03
        E 63 b1 03 02
        E 63 b1 03 01
        E 63 b1 03 00
        E 63 b1 03 00
        E 63 b1 03 00
        E 63 b1 03 00
        E 63 b1 03 00
        E 63 b1 03 00
        E 63 b1 03 00
        E 63 b1 03 00
        E 63 b1 03 00
        E 63 b1 03 01
        E 63 b1 03 02
        E 63 b1 03 03
        E 63 b1 03 04
        E 63 b1 03 05
        E 63 b1 03 06
        E 63 b1 03 08
        E 63 b1 03 09
        E 63 b1 03 0a
        E 63 b1 03 0c
        E 63 b1 03 0e
        E 63 b1 03 10
        E 63 b1 03 12
        E 63 b1 03 14
        E 63 b1 03 16
        E 63 b1 03 19
        E 63 b1 03 1b
        E 63 b1 03 1d
        E 63 b1 03 20
        E 63 b1 03 23
        E 63 b1 03 25
        E 63 b1 03 28
        E 63 b1 03 2b
        E 63 b1 03 2d
        E 63 b1 03 30
        E 63 b1 03 33
        E 63 b1 03 36
        E 63 b1 03 39
        E 7 b1 03 19
        E 7 b1 03 1a
        E 7 b1 03 1c
        E 7 b1 03 1d
        E 7 b1 03 1e
        E 7 b1 03 1f
        E 7 b1 03 20
        E 7 b1 03 22
        E 7 b1 03 23
        E 7 b1 03 24
        E 7 b1 03 25
        E 7 b1 03 26
        E 7 b1 03 27
        E 7 b1 03 28
        E 7 b1 03 29
        E 7 b1 03 2a
        E 7 b1 03 2b
        E 7 b1 03 2c
        E 7 b1 03 2d
        E 7 b1 03 2e
        E 7 b1 03 2e
        E 7 b1 03 2f
        E 7 b1 03 30
        E 7 b1 03 30
        E 7 b1 03 30
        E 7 b1 03 31
        E 7 b1 03 31
        E 7 b1 03 32
        E 7 b1 03 32
        E 7 b1 03 32
        E 7 b1 03 32
        E 7 b1 03 32
        E 7 b1 03 32
        E 7 b1 03 32
        E 7 b1 03 32
        E 7 b1 03 32
        E 7 b1 03 32
        E 7 b1 03 32
        E 7 b1 03 31
        E 7 b1 03 31
        E 7 b1 03 30
        E 7 b1 03 30
        E 7 b1 03 2f
        E 7 b1 03 2e
        E 7 b1 03 2e
        E 7 b1 03 2d
        E 7 b1 03 2c
        E 7 b1 03 2c
        E 7 b1 03 2b
        E 7 b1 03 2a
        E 7 b1 03 29
        E 7 b1 03 28
        E 7 b1 03 27
        E 7 b1 03 26
        E 7 b1 03 24
        E 7 b1 03 23
        E 7 b1 03 22
        E 7 b1 03 21
        E 7 b1 03 20
        E 7 b1 03 1f
        E 7 b1 03 1d
        E 7 b1 03 1c
        E 7 b1 03 1b
        E 7 b1 03 1a
        E 7 b1 03 18
        E 7 b1 03 17
        E 7 b1 03 16
        E 7 b1 03 15
        E 7 b1 03 13
        E 7 b1 03 12
        E 7 b1 03 11
        E 7 b1 03 10
        E 7 b1 03 0f
        E 7 b1 03 0e
        E 7 b1 03 0c
        E 7 b1 03 0b
        E 7 b1 03 0a
        E 7 b1 03 09
        E 7 b1 03 08
        E 7 b1 03 07
        E 7 b1 03 06
        E 7 b1 03 06
        E 7 b1 03 05
        E 7 b1 03 04
        E 7 b1 03 04
        E 7 b1 03 03
        E 7 b1 03 02
        E 7 b1 03 02
        E 7 b1 03 01
        E 7 b1 03 01
        E 7 b1 03 00
        E 7 b1 03 00
        E 7 b1 03 00
        E 7 b1 03 00
        E 7 b1 03 00
        E 7 b1 03 00
        E 7 b1 03 00
        E 7 b1 03 00
        E 7 b1 03 00
        E 7 b1 03 00
        E 7 b1 03 00
        E 7 b1 03 01
        E 7 b1 03 01
        E 7 b1 03 02
        E 7 b1 03 02
        E 7 b1 03 02
        E 7 b1 03 03
        E 7 b1 03 04
        E 7 b1 03 04
        E 7 b1 03 05
        E 7 b1 03 06
        E 7 b1 03 07
        E 7 b1 03 08
        E 7 b1 03 09
        E 7 b1 03 0a
        E 7 b1 03 0b
        E 7 b1 03 0c
        E 7 b1 03 0d
        E 7 b1 03 0e
        E 7 b1 03 0f
        E 7 b1 03 10
        E 7 b1 03 12
        E 7 b1 03 13
        E 7 b1 03 14
        E 7 b1 03 15
        E 7 b1 03 16
        E 7 b1 03 18
        E 7 b1 03 19
        E 71 b1 03 06
        E 71 b1 03 06
        E 71 b1 03 07
        E 71 b1 03 07
        E 71 b1 03 07
        E 71 b1 03 07
        E 71 b1 03 08
        E 71 b1 03 08
        E 71 b1 03 08
        E 71 b1 03 09
        E 71 b1 03 09
        E 71 b1 03 09
        E 71 b1 03 09
        E 71 b1 03 0a
        E 71 b1 03 0a
        E 71 b1 03 0a
        E 71 b1 03 0a
        E 71 b1 03 0b
        E 71 b1 03 0b
        E 71 b1 03 0b
        E 71 b1 03 0b
        E 71 b1 03 0b
        E 71 b1 03 0c
        E 71 b1 03 0c
        E 71 b1 03 0c
        E 71 b1 03 0c
        E 71 b1 03 0c
        E 71 b1 03 0c
        E 71 b1 03 0c
        E 71 b1 03 0c
        E 71 b1 03 0c
        E 71 b1 03 0c
        E 71 b1 03 0c
        E 71 b1 03 0c
        E 71 b1 03 0c
        E 71 b1 03 0c
        E 71 b1 03 0c
        E 71 b1 03 0c
        E 71 b1 03 0c
        E 71 b1 03 0c
        E 71 b1 03 0c
        E 71 b1 03 0c
        E 71 b1 03 0b
        E 71 b1 03 0b
        E 71 b1 03 0b
        E 71 b1 03 0b
        E 71 b1 03 0b
        E 71 b1 03 0b
        E 71 b1 03 0a
        E 71 b1 03 0a
        E 71 b1 03 0a
        E 71 b1 03 0a
        E 71 b1 03 09
        E 71 b1 03 09
        E 71 b1 03 09
        E 71 b1 03 08
        E 71 b1 03 08
        E 71 b1 03 08
        E 71 b1 03 08
        E 71 b1 03 07
        E 71 b1 03 07
        E 71 b1 03 07
        E 71 b1 03 06
        E 71 b1 03 06
        E 71 b1 03 06
        E 71 b1 03 05
        E 71 b1 03 05
        E 71 b1 03 05
        E 71 b1 03 04
        E 71 b1 03 04
        E 71 b1 03 04
        E 71 b1 03 04
        E 71 b1 03 03
        E 71 b1 03 03
        E 71 b1 03 03
        E 71 b1 03 02
        E 71 b1 03 02
        E 71 b1 03 02
        E 71 b1 03 02
        E 71 b1 03 01
        E 71 b1 03 01
        E 71 b1 03 01
        E 71 b1 03 01
        E 71 b1 03 01
        E 71 b1 03 01
        E 71 b1 03 00
        E 71 b1 03 00
        E 71 b1 03 00
        E 71 b1 03 00
        E 71 b1 03 00
        E 71 b1 03 00
        E 71 b1 03 00
        E 71 b1 03 00
        E 71 b1 03 00
        E 71 b1 03 00
        E 71 b1 03 00
        E 71 b1 03 00
        E 71 b1 03 00
        E 71 b1 03 00
        E 71 b1 03 00
        E 71 b1 03 00
        E 71 b1 03 00
        E 71 b1 03 00
        E 71 b1 03 00
        E 71 b1 03 00
        E 71 b1 03 00
        E 71 b1 03 00
        E 71 b1 03 01
        E 71 b1 03 01
        E 71 b1 03 01
        E 71 b1 03 01
        E 71 b1 03 01
        E 71 b1 03 02
        E 71 b1 03 02
        E 71 b1 03 02
        E 71 b1 03 02
        E 71 b1 03 03
        E 71 b1 03 03
        E 71 b1 03 03
        E 71 b1 03 03
        E 71 b1 03 04
        E 71 b1 03 04
        E 71 b1 03 04
        E 71 b1 03 05
        E 71 b1 03 05
        E 71 b1 03 05
        E 71 b1 03 06
        E 71 b1 03 06
        E 63 b1 03 2c
        E 63 b1 03 2e
        E 63 b1 03 31
        E 63 b1 03 33
        E 63 b1 03 35
        E 63 b1 03 37
        E 63 b1 03 39
        E 63 b1 03 3b
        E 63 b1 03 3d
        E 63 b1 03 3f
        E 63 b1 03 41
        E 63 b1 03 43
        E 63 b1 03 45
        E 63 b1 03 47
        E 63 b1 03 48
        E 63 b1 03 4a
        E 63 b1 03 4c
        E 63 b1 03 4d
        E 63 b1 03 4f
        E 63 b1 03 50
        E 63 b1 03 51
        E 63 b1 03 52
        E 63 b1 03 54
        E 63 b1 03 54
        E 63 b1 03 55
        E 63 b1 03 56
        E 63 b1 03 56
        E 63 b1 03 57
        E 63 b1 03 58
        E 63 b1 03 58
        E 63 b1 03 58
        E 63 b1 03 58
        E 63 b1 03 58
        E 63 b1 03 58
        E 63 b1 03 58
        E 63 b1 03 58
        E 63 b1 03 58
        E 63 b1 03 57
        E 63 b1 03 56
        E 63 b1 03 56
        E 63 b1 03 55
        E 63 b1 03 54
        E 63 b1 03 53
        E 63 b1 03 51
        E 63 b1 03 51
        E 63 b1 03 4f
        E 63 b1 03 4e
        E 63 b1 03 4d
        E 63 b1 03 4b
        E 63 b1 03 49
        E 63 b1 03 48
        E 63 b1 03 46
        E 63 b1 03 44
        E 63 b1 03 42
        E 63 b1 03 40
        E 63 b1 03 3e
        E 63 b1 03 3c
        E 63 b1 03 3a
        E 63 b1 03 38
        E 63 b1 03 36
        E 63 b1 03 33
        E 63 b1 03 31
        E 63 b1 03 2f
        E 63 b1 03 2d
        E 63 b1 03 2b
        E 63 b1 03 29
        E 63 b1 03 27
        E 63 b1 03 25
        E 63 b1 03 22
        E 63 b1 03 20
        E 63 b1 03 1e
        E 63 b1 03 1c
        E 63 b1 03 1a
        E 63 b1 03 18
        E 63 b1 03 16
        E 63 b1 03 14
        E 63 b1 03 12
        E 63 b1 03 10
        E 63 b1 03 0f
        E 63 b1 03 0d
        E 63 b1 03 0b
        E 63 b1 03 0a
        E 63 b1 03 09
        E 63 b1 03 07
        E 63 b1 03 07
        E 63 b1 03 05
        E 63 b1 03 04
        E 63 b1 03 03
        E 63 b1 03 02
        E 63 b1 03 02
        E 63 b1 03 01
        E 63 b1 03 00
        E 63 b1 03 00
        E 63 b1 03 00
        E 63 b1 03 00
        E 63 b1 03 00
        E 63 b1 03 00
        E 63 b1 03 00
        E 63 b1 03 00
        E 63 b1 03 00
        E 63 b1 03 01
        E 63 b1 03 02
        E 63 b1 03 02
        E 63 b1 03 03
        E 63 b1 03 04
        E 63 b1 03 04
        E 63 b1 03 06
        E 63 b1 03 07
        E 63 b1 03 08
        E 63 b1 03 09
        E 63 b1 03 0b
        E 63 b1 03 0c
        E 63 b1 03 0e
        E 63 b1 03 10
        E 63 b1 03 11
        E 63 b1 03 13
        E 63 b1 03 15
        E 63 b1 03 17
        E 63 b1 03 19
        E 63 b1 03 1b
        E 63 b1 03 1d
        E 63 b1 03 1f
        E 63 b1 03 21
        E 63 b1 03 23
        E 63 b1 03 25
        E 63 b1 03 27
        E 63 b1 03 2a
        E 63 b1 03 2c
        E 71 b1 03 13
        E 71 b1 03 14
        E 71 b1 03 15
        E 71 b1 03 15
        E 71 b1 03 16
        E 71 b1 03 17
        E 71 b1 03 18
        E 71 b1 03 19
        E 71 b1 03 1a
        E 71 b1 03 1b
        E 71 b1 03 1c
        E 71 b1 03 1c
        E 71 b1 03 1d
        E 71 b1 03 1e
        E 71 b1 03 1f
        E 71 b1 03 1f
        E 71 b1 03 20
        E 71 b1 03 21
        E 71 b1 03 21
        E 71 b1 03 22
        E 71 b1 03 23
        E 71 b1 03 23
        E 71 b1 03 24
        E 71 b1 03 24
        E 71 b1 03 24
        E 71 b1 03 24
        E 71 b1 03 25
        E 71 b1 03 25
        E 71 b1 03 25
        E 71 b1 03 25
        E 71 b1 03 26
        E 71 b1 03 26
        E 71 b1 03 26
        E 71 b1 03 26
        E 71 b1 03 26
        E 71 b1 03 25
        E 71 b1 03 25
        E 71 b1 03 25
        E 71 b1 03 25
        E 71 b1 03 24
        E 71 b1 03 24
        E 71 b1 03 24
        E 71 b1 03 23
        E 71 b1 03 23
        E 71 b1 03 22
        E 71 b1 03 22
        E 71 b1 03 21
        E 71 b1 03 21
        E 71 b1 03 20
        E 71 b1 03 1f
        E 71 b1 03 1e
        E 71 b1 03 1e
        E 71 b1 03 1d
        E 71 b1 03 1c
        E 71 b1 03 1b
        E 71 b1 03 1a
        E 71 b1 03 1a
        E 71 b1 03 19
        E 71 b1 03 18
        E 71 b1 03 17
        E 71 b1 03 16
        E 71 b1 03 15
        E 71 b1 03 14
        E 71 b1 03 13
        E 71 b1 03 12
        E 71 b1 03 11
        E 71 b1 03 10
        E 71 b1 03 0f
        E 71 b1 03 0e
        E 71 b1 03 0d
        E 71 b1 03 0c
        E 71 b1 03 0c
        E 71 b1 03 0b
        E 71 b1 03 0a
        E 71 b1 03 09
        E 71 b1 03 08
        E 71 b1 03 08
        E 71 b1 03 07
        E 71 b1 03 06
        E 71 b1 03 05
        E 71 b1 03 05
        E 71 b1 03 04
        E 71 b1 03 03
        E 71 b1 03 03
        E 71 b1 03 03
        E 71 b1 03 02
        E 71 b1 03 02
        E 71 b1 03 01
        E 71 b1 03 01
        E 71 b1 03 00
        E 71 b1 03 00
        E 71 b1 03 00
        E 71 b1 03 00
        E 71 b1 03 00
        E 71 b1 03 00
        E 71 b1 03 00
        E 71 b1 03 00
        E 71 b1 03 00
        E 71 b1 03 00
        E 71 b1 03 00
        E 71 b1 03 00
        E 71 b1 03 00
        E 71 b1 03 01
        E 71 b1 03 01
        E 71 b1 03 01
        E 71 b1 03 02
        E 71 b1 03 02
        E 71 b1 03 03
        E 71 b1 03 03
        E 71 b1 03 04
        E 71 b1 03 04
        E 71 b1 03 05
        E 71 b1 03 06
        E 71 b1 03 06
        E 71 b1 03 07
        E 71 b1 03 08
        E 71 b1 03 09
        E 71 b1 03 09
        E 71 b1 03 0a
        E 71 b1 03 0b
        E 71 b1 03 0c
        E 71 b1 03 0d
        E 71 b1 03 0e
        E 71 b1 03 0f
        E 71 b1 03 10
        E 71 b1 03 11
        E 71 b1 03 12
        E 71 b1 03 13
        E 23 b1 03 26
        E 23 b1 03 28
        E 23 b1 03 2a
        E 23 b1 03 2b
        E 23 b1 03 2d
        E 23 b1 03 2f
        E 23 b1 03 31
        E 23 b1 03 33
        E 23 b1 03 34
        E 23 b1 03 36
        E 23 b1 03 38
        E 23 b1 03 39
        E 23 b1 03 3b
        E 23 b1 03 3d
        E 23 b1 03 3e
        E 23 b1 03 3f
        E 23 b1 03 41
        E 23 b1 03 42
        E 23 b1 03 43
        E 23 b1 03 45
        E 23 b1 03 46
        E 23 b1 03 46
        E 23 b1 03 48
        E 23 b1 03 48
        E 23 b1 03 49
        E 23 b1 03 49
        E 23 b1 03 4a
        E 23 b1 03 4b
        E 23 b1 03 4b
        E 23 b1 03 4b
        E 23 b1 03 4c
        E 23 b1 03 4c
        E 23 b1 03 4c
        E 23 b1 03 4c
        E 23 b1 03 4c
        E 23 b1 03 4b
        E 23 b1 03 4b
        E 23 b1 03 4b
        E 23 b1 03 4a
        E 23 b1 03 49
        E 23 b1 03 49
        E 23 b1 03 48
        E 23 b1 03 47
        E 23 b1 03 46
        E 23 b1 03 45
        E 23 b1 03 44
        E 23 b1 03 43
        E 23 b1 03 42
        E 23 b1 03 40
        E 23 b1 03 3f
        E 23 b1 03 3d
        E 23 b1 03 3c
        E 23 b1 03 3a
        E 23 b1 03 39
        E 23 b1 03 37
        E 23 b1 03 35
        E 23 b1 03 34
        E 23 b1 03 32
        E 23 b1 03 30
        E 23 b1 03 2e
        E 23 b1 03 2c
        E 23 b1 03 2a
        E 23 b1 03 28
        E 23 b1 03 27
        E 23 b1 03 25
        E 23 b1 03 23
        E 23 b1 03 21
        E 23 b1 03 1f
        E 23 b1 03 1d
        E 23 b1 03 1b
        E 23 b1 03 19
        E 23 b1 03 18
        E 23 b1 03 16
        E 23 b1 03 15
        E 23 b1 03 13
        E 23 b1 03 11
        E 23 b1 03 10
        E 23 b1 03 0e
        E 23 b1 03 0d
        E 23 b1 03 0b
        E 23 b1 03 0a
        E 23 b1 03 09
        E 23 b1 03 07
        E 23 b1 03 06
        E 23 b1 03 06
        E 23 b1 03 04
        E 23 b1 03 04
        E 23 b1 03 03
        E 23 b1 03 02
        E 23 b1 03 01
        E 23 b1 03 01
        E 23 b1 03 00
        E 23 b1 03 00
        E 23 b1 03 00
        E 23 b1 03 00
        E 23 b1 03 00
        E 23 b1 03 00
        E 23 b1 03 00
        E 23 b1 03 00
        E 23 b1 03 00
        E 23 b1 03 01
        E 23 b1 03 01
        E 23 b1 03 02
        E 23 b1 03 03
        E 23 b1 03 03
        E 23 b1 03 04
        E 23 b1 03 05
        E 23 b1 03 06
        E 23 b1 03 07
        E 23 b1 03 08
        E 23 b1 03 09
        E 23 b1 03 0a
        E 23 b1 03 0c
        E 23 b1 03 0d
        E 23 b1 03 0f
        E 23 b1 03 10
        E 23 b1 03 12
        E 23 b1 03 13
        E 23 b1 03 15
        E 23 b1 03 17
        E 23 b1 03 19
        E 23 b1 03 1b
        E 23 b1 03 1c
        E 23 b1 03 1e
        E 23 b1 03 20
        E 23 b1 03 22
        E 23 b1 03 24
        E 23 b1 03 26
        E 63 b1 03 39
        E 63 b1 03 3c
        E 63 b1 03 3f
        E 63 b1 03 41
        E 63 b1 03 44
        E 63 b1 03 47
        E 63 b1 03 49
        E 63 b1 03 4c
        E 63 b1 03 4f
        E 63 b1 03 51
        E 63 b1 03 54
        E 63 b1 03 56
        E 63 b1 03 59
        E 63 b1 03 5b
        E 63 b1 03 5d
        E 63 b1 03 5f
        E 63 b1 03 62
        E 63 b1 03 63
        E 63 b1 03 65
        E 63 b1 03 67
        E 63 b1 03 69
        E 63 b1 03 6a
        E 63 b1 03 6c
        E 63 b1 03 6c
        E 63 b1 03 6d
        E 63 b1 03 6e
        E 63 b1 03 6f
        E 63 b1 03 70
        E 63 b1 03 71
        E 63 b1 03 71
        E 63 b1 03 72
        E 63 b1 03 72
        E 63 b1 03 72
        E 63 b1 03 72
        E 63 b1 03 72
        E 63 b1 03 71
        E 63 b1 03 71
        E 63 b1 03 70
        E 63 b1 03 6f
        E 63 b1 03 6e
        E 63 b1 03 6d
        E 63 b1 03 6c
        E 63 b1 03 6b
        E 63 b1 03 69
        E 63 b1 03 68
        E 63 b1 03 66
        E 63 b1 03 64
        E 63 b1 03 63
        E 63 b1 03 61
        E 63 b1 03 5e
        E 63 b1 03 5c
        E 63 b1 03 5a
        E 63 b1 03 58
        E 63 b1 03 55
        E 63 b1 03 52
        E 63 b1 03 50
        E 63 b1 03 4e
        E 63 b1 03 4b
        E 63 b1 03 48
        E 63 b1 03 46
        E 63 b1 03 42
        E 63 b1 03 3f
        E 63 b1 03 3d
        E 63 b1 03 3a
        E 63 b1 03 37
        E 63 b1 03 35
        E 63 b1 03 32
        E 63 b1 03 2f
        E 63 b1 03 2c
        E 63 b1 03 29
        E 63 b1 03 26
        E 63 b1 03 24
        E 63 b1 03 22
        E 63 b1 03 1f
        E 63 b1 03 1c
        E 63 b1 03 1a
        E 63 b1 03 18
        E 63 b1 03 15
        E 63 b1 03 13
        E 63 b1 03 11
        E 63 b1 03 0f
        E 63 b1 03 0d
        E 63 b1 03 0b
        E 63 b1 03 09
        E 63 b1 03 09
        E 63 b1 03 07
        E 63 b1 03 06
        E 63 b1 03 04
        E 63 b1 03 03
        E 63 b1 03 02
        E 63 b1 03 01
        E 63 b1 03 00
        E 63 b1 03 00
        E 63 b1 03 00
        E 63 b1 03 00
        E 63 b1 03 00
        E 63 b1 03 00
        E 63 b1 03 00
        E 63 b1 03 00
        E 63 b1 03 00
        E 63 b1 03 01
        E 63 b1 03 02
        E 63 b1 03 03
        E 63 b1 03 04
        E 63 b1 03 05
        E 63 b1 03 06
        E 63 b1 03 08
        E 63 b1 03 09
        E 63 b1 03 0a
        E 63 b1 03 0c
        E 63 b1 03 0e
        E 63 b1 03 10
        E 63 b1 03 12
        E 63 b1 03 14
        E 63 b1 03 16
        E 63 b1 03 19
        E 63 b1 03 1b
        E 63 b1 03 1d
        E 63 b1 03 20
        E 63 b1 03 23
        E 63 b1 03 25
        E 63 b1 03 28
        E 63 b1 03 2b
        E 63 b1 03 2d
        E 63 b1 03 30
        E 63 b1 03 33
        E 63 b1 03 36
        E 63 b1 03 39
        E 7 b1 03 19
        E 7 b1 03 1a
        E 7 b1 03 1c
        E 7 b1 03 1d
        E 7 b1 03 1e
        E 7 b1 03 1f
        E 7 b1 03 20
        E 7 b1 03 22
        E 7 b1 03 23
        E 7 b1 03 24
        E 7 b1 03 25
        E 7 b1 03 26
        E 7 b1 03 27
        E 7 b1 03 28
        E 7 b1 03 29
        E 7 b1 03 2a
        E 7 b1 03 2b
        E 7 b1 03 2c
        E 7 b1 03 2d
        E 7 b1 03 2e
        E 7 b1 03 2e
        E 7 b1 03 2f
        E 7 b1 03 30
        E 7 b1 03 30
        E 7 b1 03 30
        E 7 b1 03 31
        E 7 b1 03 31
        E 7 b1 03 32
        E 7 b1 03 32
        E 7 b1 03 32
        E 7 b1 03 32
        E 7 b1 03 32
        E 7 b1 03 32
        E 7 b1 03 32
        E 7 b1 03 32
        E 7 b1 03 32
        E 7 b1 03 32
        E 7 b1 03 32
        E 7 b1 03 31
        E 7 b1 03 31
        E 7 b1 03 30
        E 7 b1 03 30
        E 7 b1 03 2f
        E 7 b1 03 2e
        E 7 b1 03 2e
        E 7 b1 03 2d
        E 7 b1 03 2c
        E 7 b1 03 2c
        E 7 b1 03 2b
        E 7 b1 03 2a
        E 7 b1 03 29
        E 7 b1 03 28
        E 7 b1 03 27
        E 7 b1 03 26
        E 7 b1 03 24
        E 7 b1 03 23
        E 7 b1 03 22
        E 7 b1 03 21
        E 7 b1 03 20
        E 7 b1 03 1f
        E 7 b1 03 1d
        E 7 b1 03 1c
        E 7 b1 03 1b
        E 7 b1 03 1a
        E 7 b1 03 18
        E 7 b1 03 17
        E 7 b1 03 16
        E 7 b1 03 15
        E 7 b1 03 13
        E 7 b1 03 12
        E 7 b1 03 11
        E 7 b1 03 10
        E 7 b1 03 0f
        E 7 b1 03 0e
        E 7 b1 03 0c
        E 7 b1 03 0b
        E 7 b1 03 0a
        E 7 b1 03 09
        E 7 b1 03 08
        E 7 b1 03 07
        E 7 b1 03 06
        E 7 b1 03 06
        E 7 b1 03 05
        E 7 b1 03 04
        E 7 b1 03 04
        E 7 b1 03 03
        E 7 b1 03 02
        E 7 b1 03 02
        E 7 b1 03 01
        E 7 b1 03 01
        E 7 b1 03 00
        E 7 b1 03 00
        E 7 b1 03 00
        E 7 b1 03 00
        E 7 b1 03 00
        E 7 b1 03 00
        E 7 b1 03 00
        E 7 b1 03 00
        E 7 b1 03 00
        E 7 b1 03 00
        E 7 b1 03 00
        E 7 b1 03 01
        E 7 b1 03 01
        E 7 b1 03 02
        E 7 b1 03 02
        E 7 b1 03 02
        E 7 b1 03 03
        E 7 b1 03 04
        E 7 b1 03 04
        E 7 b1 03 05
        E 7 b1 03 06
        E 7 b1 03 07
        E 7 b1 03 08
        E 7 b1 03 09
        E 7 b1 03 0a
        E 7 b1 03 0b
        E 7 b1 03 0c
        E 7 b1 03 0d
        E 7 b1 03 0e
        E 7 b1 03 0f
        E 7 b1 03 10
        E 7 b1 03 12
        E 7 b1 03 13
        E 7 b1 03 14
        E 7 b1 03 15
        E 7 b1 03 16
        E 7 b1 03 18
        E 7 b1 03 19
        E 17 b0 7b 00
        CCINTERP 32
        CHASE_CC_TAKEOFFS 1
        GUID {C92F24DA-CCF2-FD4A-B467-8049582BCB12}
        IGNTEMPO 0 120 4 4
        SRCCOLOR 70
        VELLANE 3 601 0
        VELLANE -1 196 0
      >
    >
  >
  <TRACK {9D22E47E-6BE5-6E49-BB9E-965408152702}
    NAME "cannabis-infused gummies"
    PEAKCOL 16576
    BEAT -1
    AUTOMODE 0
    VOLPAN 1 0 -1 -1 1
    MUTESOLO 0 0 0
    IPHASE 0
    PLAYOFFS 0 1
    ISBUS 0 0
    BUSCOMP 0 0 0 0 0
    SHOWINMIX 1 0.6667 0.5 1 0.5 0 -1 0
    FREEMODE 0
    SEL 0
    REC 0 0 1 0 0 0 0
    VU 2
    TRACKHEIGHT 0 0 0 0 -1 0
    INQ 0 0 0 0.5 100 0 0 100
    NCHAN 2
    FX 1
    TRACKID {9D22E47E-6BE5-6E49-BB9E-965408152702}
    PERF 0
    MIDIOUT -1
    MAINSEND 1 0
    <ITEM
      POSITION 0
      SNAPOFFS 0
      LENGTH 113.877384
      LOOP 1
      ALLTAKES 0
      FADEIN 1 0 0 1 0 0
      FADEOUT 1 0 0 1 0 0
      MUTE 0 0
      SEL 0
      IGUID {67CB6F9F-483F-8148-ACB8-FED19C869974}
      IID 15
      NAME "cannabis-infused gummies.mid"
      VOLPAN 1 0 1 -1
      SOFFS 0 0
      PLAYRATE 1 1 0 -1 0 0.0025
      CHANMODE 0
      GUID {561DB03F-84AE-5B4A-9328-FD3711BC30A4}
      <SOURCE MIDI
        HASDATA 1 128 QN
        CCINTERP 32
        POOLEDEVTS {3F203F0B-3FD1-B94D-BA60-2CCF94164A80}
        E 23 b2 09 19
        E 23 b2 09 56
        E 23 b2 09 38
        E 23 b2 09 09
        E 23 b2 09 51
        E 23 b2 09 48
        E 23 b2 09 0a
        E 23 b2 09 09
        E 23 b2 09 36
        E 23 b2 09 6c
        E 23 b2 09 5a
        E 23 b2 09 63
        E 23 b2 09 47
        E 23 b2 09 0c
        E 23 b2 09 15
        E 23 b2 09 4d
        E 23 b2 09 3f
        E 23 b2 09 20
        E 23 b2 09 16
        E 23 b2 09 1e
        E 23 b2 09 59
        E 23 b2 09 35
        E 23 b2 09 1b
        E 23 b2 09 41
        E 23 b2 09 71
        E 23 b2 09 00
        E 23 b2 09 0e
        E 23 b2 09 2e
        E 23 b2 09 26
        E 23 b2 09 5d
        E 23 b2 09 18
        E 23 b2 09 07
        E 23 b2 09 12
        E 23 b2 09 13
        E 23 b2 09 67
        E 23 b2 09 1c
        E 23 b2 09 00
        E 23 b2 09 54
        E 23 b2 09 27
        E 23 b2 09 17
        E 23 b2 09 2d
        E 23 b2 09 1d
        E 23 b2 09 61
        E 23 b2 09 60
        E 23 b2 09 72
        E 23 b2 09 5f
        E 23 b2 09 31
        E 23 b2 09 6a
        E 23 b2 09 51
        E 23 b2 09 0d
        E 23 b2 09 32
        E 23 b2 09 3d
        E 23 b2 09 6c
        E 23 b2 09 57
        E 23 b2 09 3e
        E 23 b2 09 3f
        E 23 b2 09 05
        E 23 b2 09 0b
        E 23 b2 09 69
        E 23 b2 09 5b
        E 23 b2 09 30
        E 23 b2 09 24
        E 23 b2 09 0f
        E 23 b2 09 33
        E 23 b2 09 22
        E 23 b2 09 1b
        E 23 b2 09 2b
        E 23 b2 09 3b
        E 23 b2 09 45
        E 23 b2 09 49
        E 23 b2 09 12
        E 23 b2 09 44
        E 23 b2 09 65
        E 23 b2 09 3a
        E 23 b2 09 42
        E 23 b2 09 02
        E 23 b2 09 08
        E 23 b2 09 70
        E 23 b2 09 4a
        E 23 b2 09 14
        E 23 b2 09 68
        E 23 b2 09 24
        E 23 b2 09 2c
        E 23 b2 09 37
        E 23 b2 09 2d
        E 23 b2 09 4c
        E 23 b2 09 5c
        E 23 b2 09 21
        E 23 b2 09 40
        E 23 b2 09 1a
        E 23 b2 09 66
        E 23 b2 09 5e
        E 23 b2 09 34
        E 23 b2 09 29
        E 23 b2 09 5a
        E 23 b2 09 2a
        E 23 b2 09 50
        E 23 b2 09 10
        E 23 b2 09 01
        E 23 b2 09 25
        E 23 b2 09 39
        E 23 b2 09 62
        E 23 b2 09 58
        E 23 b2 09 03
        E 23 b2 09 63
        E 23 b2 09 53
        E 23 b2 09 06
        E 23 b2 09 23
        E 23 b2 09 43
        E 23 b2 09 55
        E 23 b2 09 6d
        E 23 b2 09 46
        E 23 b2 09 2f
        E 23 b2 09 1f
        E 23 b2 09 4f
        E 23 b2 09 52
        E 23 b2 09 64
        E 23 b2 09 6f
        E 23 b2 09 36
        E 23 b2 09 48
        E 23 b2 09 4e
        E 23 b2 09 3c
        E 23 b2 09 6b
        E 23 b2 09 11
        E 23 b2 09 28
        E 23 b2 09 4b
        E 10 b2 09 16
        E 10 b2 09 4c
        E 10 b2 09 32
        E 10 b2 09 07
        E 10 b2 09 48
        E 10 b2 09 3f
        E 10 b2 09 09
        E 10 b2 09 08
        E 10 b2 09 30
        E 10 b2 09 5f
        E 10 b2 09 50
        E 10 b2 09 58
        E 10 b2 09 3f
        E 10 b2 09 0b
        E 10 b2 09 13
        E 10 b2 09 44
        E 10 b2 09 37
        E 10 b2 09 1c
        E 10 b2 09 14
        E 10 b2 09 1b
        E 10 b2 09 4f
        E 10 b2 09 2f
        E 10 b2 09 17
        E 10 b2 09 3a
        E 10 b2 09 64
        E 10 b2 09 00
        E 10 b2 09 0c
        E 10 b2 09 29
        E 10 b2 09 22
        E 10 b2 09 53
        E 10 b2 09 15
        E 10 b2 09 06
        E 10 b2 09 0f
        E 10 b2 09 11
        E 10 b2 09 5b
        E 10 b2 09 19
        E 10 b2 09 00
        E 10 b2 09 4b
        E 10 b2 09 23
        E 10 b2 09 14
        E 10 b2 09 28
        E 10 b2 09 1a
        E 10 b2 09 56
        E 10 b2 09 55
        E 10 b2 09 65
        E 10 b2 09 54
        E 10 b2 09 2b
        E 10 b2 09 5e
        E 10 b2 09 48
        E 10 b2 09 0b
        E 10 b2 09 2c
        E 10 b2 09 36
        E 10 b2 09 60
        E 10 b2 09 4d
        E 10 b2 09 37
        E 10 b2 09 38
        E 10 b2 09 04
        E 10 b2 09 0a
        E 10 b2 09 5d
        E 10 b2 09 51
        E 10 b2 09 2b
        E 10 b2 09 1f
        E 10 b2 09 0d
        E 10 b2 09 2d
        E 10 b2 09 1e
        E 10 b2 09 18
        E 10 b2 09 26
        E 10 b2 09 34
        E 10 b2 09 3d
        E 10 b2 09 41
        E 10 b2 09 10
        E 10 b2 09 3c
        E 10 b2 09 5a
        E 10 b2 09 33
        E 10 b2 09 3b
        E 10 b2 09 02
        E 10 b2 09 07
        E 10 b2 09 63
        E 10 b2 09 42
        E 10 b2 09 12
        E 10 b2 09 5c
        E 10 b2 09 20
        E 10 b2 09 27
        E 10 b2 09 31
        E 10 b2 09 28
        E 10 b2 09 44
        E 10 b2 09 52
        E 10 b2 09 1d
        E 10 b2 09 39
        E 10 b2 09 17
        E 10 b2 09 5b
        E 10 b2 09 54
        E 10 b2 09 2e
        E 10 b2 09 24
        E 10 b2 09 50
        E 10 b2 09 25
        E 10 b2 09 47
        E 10 b2 09 0e
        E 10 b2 09 01
        E 10 b2 09 21
        E 10 b2 09 33
        E 10 b2 09 57
        E 10 b2 09 4e
        E 10 b2 09 03
        E 10 b2 09 57
        E 10 b2 09 4a
        E 10 b2 09 05
        E 10 b2 09 1f
        E 10 b2 09 3b
        E 10 b2 09 4c
        E 10 b2 09 61
        E 10 b2 09 3e
        E 10 b2 09 2a
        E 10 b2 09 1b
        E 10 b2 09 46
        E 10 b2 09 49
        E 10 b2 09 59
        E 10 b2 09 63
        E 10 b2 09 2f
        E 10 b2 09 40
        E 10 b2 09 45
        E 10 b2 09 35
        E 10 b2 09 5f
        E 10 b2 09 0f
        E 10 b2 09 24
        E 10 b2 09 43
        E 20 b2 09 33
        E 20 b2 09 35
        E 20 b2 09 37
        E 20 b2 09 3a
        E 20 b2 09 3c
        E 20 b2 09 3f
        E 20 b2 09 41
        E 20 b2 09 44
        E 20 b2 09 46
        E 20 b2 09 48
        E 20 b2 09 4b
        E 20 b2 09 4c
        E 20 b2 09 4f
        E 20 b2 09 51
        E 20 b2 09 53
        E 20 b2 09 54
        E 20 b2 09 57
        E 20 b2 09 58
        E 20 b2 09 5a
        E 20 b2 09 5b
        E 20 b2 09 5d
        E 20 b2 09 5e
        E 20 b2 09 5f
        E 20 b2 09 60
        E 20 b2 09 61
        E 20 b2 09 62
        E 20 b2 09 63
        E 20 b2 09 63
        E 20 b2 09 64
        E 20 b2 09 64
        E 20 b2 09 65
        E 20 b2 09 65
        E 20 b2 09 65
        E 20 b2 09 65
        E 20 b2 09 65
        E 20 b2 09 64
        E 20 b2 09 64
        E 20 b2 09 63
        E 20 b2 09 63
        E 20 b2 09 62
        E 20 b2 09 61
        E 20 b2 09 5f
        E 20 b2 09 5f
        E 20 b2 09 5d
        E 20 b2 09 5c
        E 20 b2 09 5b
        E 20 b2 09 59
        E 20 b2 09 57
        E 20 b2 09 56
        E 20 b2 09 54
        E 20 b2 09 52
        E 20 b2 09 50
        E 20 b2 09 4e
        E 20 b2 09 4c
        E 20 b2 09 49
        E 20 b2 09 47
        E 20 b2 09 45
        E 20 b2 09 43
        E 20 b2 09 40
        E 20 b2 09 3e
        E 20 b2 09 3b
        E 20 b2 09 38
        E 20 b2 09 36
        E 20 b2 09 33
        E 20 b2 09 31
        E 20 b2 09 2f
        E 20 b2 09 2c
        E 20 b2 09 2a
        E 20 b2 09 27
        E 20 b2 09 24
        E 20 b2 09 22
        E 20 b2 09 1f
        E 20 b2 09 1e
        E 20 b2 09 1b
        E 20 b2 09 19
        E 20 b2 09 17
        E 20 b2 09 15
        E 20 b2 09 13
        E 20 b2 09 11
        E 20 b2 09 0f
        E 20 b2 09 0d
        E 20 b2 09 0b
        E 20 b2 09 0a
        E 20 b2 09 08
        E 20 b2 09 07
        E 20 b2 09 06
        E 20 b2 09 05
        E 20 b2 09 03
        E 20 b2 09 03
        E 20 b2 09 02
        E 20 b2 09 01
        E 20 b2 09 00
        E 20 b2 09 00
        E 20 b2 09 00
        E 20 b2 09 00
        E 20 b2 09 00
        E 20 b2 09 00
        E 20 b2 09 00
        E 20 b2 09 00
        E 20 b2 09 00
        E 20 b2 09 01
        E 20 b2 09 02
        E 20 b2 09 03
        E 20 b2 09 03
        E 20 b2 09 04
        E 20 b2 09 05
        E 20 b2 09 07
        E 20 b2 09 07
        E 20 b2 09 09
        E 20 b2 09 0b
        E 20 b2 09 0c
        E 20 b2 09 0e
        E 20 b2 09 10
        E 20 b2 09 12
        E 20 b2 09 14
        E 20 b2 09 16
        E 20 b2 09 18
        E 20 b2 09 1a
        E 20 b2 09 1c
        E 20 b2 09 1f
        E 20 b2 09 21
        E 20 b2 09 24
        E 20 b2 09 26
        E 20 b2 09 28
        E 20 b2 09 2b
        E 20 b2 09 2d
        E 20 b2 09 2f
        E 20 b2 09 33
        E 5 b2 09 06
        E 5 b2 09 06
        E 5 b2 09 07
        E 5 b2 09 07
        E 5 b2 09 07
        E 5 b2 09 07
        E 5 b2 09 08
        E 5 b2 09 08
        E 5 b2 09 08
        E 5 b2 09 09
        E 5 b2 09 09
        E 5 b2 09 09
        E 5 b2 09 09
        E 5 b2 09 0a
        E 5 b2 09 0a
        E 5 b2 09 0a
        E 5 b2 09 0a
        E 5 b2 09 0b
        E 5 b2 09 0b
        E 5 b2 09 0b
        E 5 b2 09 0b
        E 5 b2 09 0b
        E 5 b2 09 0c
        E 5 b2 09 0c
        E 5 b2 09 0c
        E 5 b2 09 0c
        E 5 b2 09 0c
        E 5 b2 09 0c
        E 5 b2 09 0c
        E 5 b2 09 0c
        E 5 b2 09 0c
        E 5 b2 09 0c
        E 5 b2 09 0c
        E 5 b2 09 0c
        E 5 b2 09 0c
        E 5 b2 09 0c
        E 5 b2 09 0c
        E 5 b2 09 0c
        E 5 b2 09 0c
        E 5 b2 09 0c
        E 5 b2 09 0c
        E 5 b2 09 0c
        E 5 b2 09 0b
        E 5 b2 09 0b
        E 5 b2 09 0b
        E 5 b2 09 0b
        E 5 b2 09 0b
        E 5 b2 09 0b
        E 5 b2 09 0a
        E 5 b2 09 0a
        E 5 b2 09 0a
        E 5 b2 09 0a
        E 5 b2 09 09
        E 5 b2 09 09
        E 5 b2 09 09
        E 5 b2 09 08
        E 5 b2 09 08
        E 5 b2 09 08
        E 5 b2 09 08
        E 5 b2 09 07
        E 5 b2 09 07
        E 5 b2 09 07
        E 5 b2 09 06
        E 5 b2 09 06
        E 5 b2 09 06
        E 5 b2 09 05
        E 5 b2 09 05
        E 5 b2 09 05
        E 5 b2 09 04
        E 5 b2 09 04
        E 5 b2 09 04
        E 5 b2 09 04
        E 5 b2 09 03
        E 5 b2 09 03
        E 5 b2 09 03
        E 5 b2 09 02
        E 5 b2 09 02
        E 5 b2 09 02
        E 5 b2 09 02
        E 5 b2 09 01
        E 5 b2 09 01
        E 5 b2 09 01
        E 5 b2 09 01
        E 5 b2 09 01
        E 5 b2 09 01
        E 5 b2 09 00
        E 5 b2 09 00
        E 5 b2 09 00
        E 5 b2 09 00
        E 5 b2 09 00
        E 5 b2 09 00
        E 5 b2 09 00
        E 5 b2 09 00
        E 5 b2 09 00
        E 5 b2 09 00
        E 5 b2 09 00
        E 5 b2 09 00
        E 5 b2 09 00
        E 5 b2 09 00
        E 5 b2 09 00
        E 5 b2 09 00
        E 5 b2 09 00
        E 5 b2 09 00
        E 5 b2 09 00
        E 5 b2 09 00
        E 5 b2 09 00
        E 5 b2 09 00
        E 5 b2 09 01
        E 5 b2 09 01
        E 5 b2 09 01
        E 5 b2 09 01
        E 5 b2 09 01
        E 5 b2 09 02
        E 5 b2 09 02
        E 5 b2 09 02
        E 5 b2 09 02
        E 5 b2 09 03
        E 5 b2 09 03
        E 5 b2 09 03
        E 5 b2 09 03
        E 5 b2 09 04
        E 5 b2 09 04
        E 5 b2 09 04
        E 5 b2 09 05
        E 5 b2 09 05
        E 5 b2 09 05
        E 5 b2 09 06
        E 5 b2 09 06
        E 36 b2 09 39
        E 36 b2 09 3c
        E 36 b2 09 3f
        E 36 b2 09 41
        E 36 b2 09 44
        E 36 b2 09 47
        E 36 b2 09 49
        E 36 b2 09 4c
        E 36 b2 09 4f
        E 36 b2 09 51
        E 36 b2 09 54
        E 36 b2 09 56
        E 36 b2 09 59
        E 36 b2 09 5b
        E 36 b2 09 5d
        E 36 b2 09 5f
        E 36 b2 09 62
        E 36 b2 09 63
        E 36 b2 09 65
        E 36 b2 09 67
        E 36 b2 09 69
        E 36 b2 09 6a
        E 36 b2 09 6c
        E 36 b2 09 6c
        E 36 b2 09 6d
        E 36 b2 09 6e
        E 36 b2 09 6f
        E 36 b2 09 70
        E 36 b2 09 71
        E 36 b2 09 71
        E 36 b2 09 72
        E 36 b2 09 72
        E 36 b2 09 72
        E 36 b2 09 72
        E 36 b2 09 72
        E 36 b2 09 71
        E 36 b2 09 71
        E 36 b2 09 70
        E 36 b2 09 6f
        E 36 b2 09 6e
        E 36 b2 09 6d
        E 36 b2 09 6c
        E 36 b2 09 6b
        E 36 b2 09 69
        E 36 b2 09 68
        E 36 b2 09 66
        E 36 b2 09 64
        E 36 b2 09 63
        E 36 b2 09 61
        E 36 b2 09 5e
        E 36 b2 09 5c
        E 36 b2 09 5a
        E 36 b2 09 58
        E 36 b2 09 55
        E 36 b2 09 52
        E 36 b2 09 50
        E 36 b2 09 4e
        E 36 b2 09 4b
        E 36 b2 09 48
        E 36 b2 09 46
        E 36 b2 09 42
        E 36 b2 09 3f
        E 36 b2 09 3d
        E 36 b2 09 3a
        E 36 b2 09 37
        E 36 b2 09 35
        E 36 b2 09 32
        E 36 b2 09 2f
        E 36 b2 09 2c
        E 36 b2 09 29
        E 36 b2 09 26
        E 36 b2 09 24
        E 36 b2 09 22
        E 36 b2 09 1f
        E 36 b2 09 1c
        E 36 b2 09 1a
        E 36 b2 09 18
        E 36 b2 09 15
        E 36 b2 09 13
        E 36 b2 09 11
        E 36 b2 09 0f
        E 36 b2 09 0d
        E 36 b2 09 0b
        E 36 b2 09 09
        E 36 b2 09 09
        E 36 b2 09 07
        E 36 b2 09 06
        E 36 b2 09 04
        E 36 b2 09 03
        E 36 b2 09 02
        E 36 b2 09 01
        E 36 b2 09 00
        E 36 b2 09 00
        E 36 b2 09 00
        E 36 b2 09 00
        E 36 b2 09 00
        E 36 b2 09 00
        E 36 b2 09 00
        E 36 b2 09 00
        E 36 b2 09 00
        E 36 b2 09 01
        E 36 b2 09 02
        E 36 b2 09 03
        E 36 b2 09 04
        E 36 b2 09 05
        E 36 b2 09 06
        E 36 b2 09 08
        E 36 b2 09 09
        E 36 b2 09 0a
        E 36 b2 09 0c
        E 36 b2 09 0e
        E 36 b2 09 10
        E 36 b2 09 12
        E 36 b2 09 14
        E 36 b2 09 16
        E 36 b2 09 19
        E 36 b2 09 1b
        E 36 b2 09 1d
        E 36 b2 09 20
        E 36 b2 09 23
        E 36 b2 09 25
        E 36 b2 09 28
        E 36 b2 09 2b
        E 36 b2 09 2d
        E 36 b2 09 30
        E 36 b2 09 33
        E 36 b2 09 36
        E 36 b2 09 39
        E 15 b2 09 33
        E 15 b2 09 35
        E 15 b2 09 37
        E 15 b2 09 3a
        E 15 b2 09 3c
        E 15 b2 09 3f
        E 15 b2 09 41
        E 15 b2 09 44
        E 15 b2 09 46
        E 15 b2 09 48
        E 15 b2 09 4b
        E 15 b2 09 4c
        E 15 b2 09 4f
        E 15 b2 09 51
        E 15 b2 09 53
        E 15 b2 09 54
        E 15 b2 09 57
        E 15 b2 09 58
        E 15 b2 09 5a
        E 15 b2 09 5b
        E 15 b2 09 5d
        E 15 b2 09 5e
        E 15 b2 09 5f
        E 15 b2 09 60
        E 15 b2 09 61
        E 15 b2 09 62
        E 15 b2 09 63
        E 15 b2 09 63
        E 15 b2 09 64
        E 15 b2 09 64
        E 15 b2 09 65
        E 15 b2 09 65
        E 15 b2 09 65
        E 15 b2 09 65
        E 15 b2 09 65
        E 15 b2 09 64
        E 15 b2 09 64
        E 15 b2 09 63
        E 15 b2 09 63
        E 15 b2 09 62
        E 15 b2 09 61
        E 15 b2 09 5f
        E 15 b2 09 5f
        E 15 b2 09 5d
        E 15 b2 09 5c
        E 15 b2 09 5b
        E 15 b2 09 59
        E 15 b2 09 57
        E 15 b2 09 56
        E 15 b2 09 54
        E 15 b2 09 52
        E 15 b2 09 50
        E 15 b2 09 4e
        E 15 b2 09 4c
        E 15 b2 09 49
        E 15 b2 09 47
        E 15 b2 09 45
        E 15 b2 09 43
        E 15 b2 09 40
        E 15 b2 09 3e
        E 15 b2 09 3b
        E 15 b2 09 38
        E 15 b2 09 36
        E 15 b2 09 33
        E 15 b2 09 31
        E 15 b2 09 2f
        E 15 b2 09 2c
        E 15 b2 09 2a
        E 15 b2 09 27
        E 15 b2 09 24
        E 15 b2 09 22
        E 15 b2 09 1f
        E 15 b2 09 1e
        E 15 b2 09 1b
        E 15 b2 09 19
        E 15 b2 09 17
        E 15 b2 09 15
        E 15 b2 09 13
        E 15 b2 09 11
        E 15 b2 09 0f
        E 15 b2 09 0d
        E 15 b2 09 0b
        E 15 b2 09 0a
        E 15 b2 09 08
        E 15 b2 09 07
        E 15 b2 09 06
        E 15 b2 09 05
        E 15 b2 09 03
        E 15 b2 09 03
        E 15 b2 09 02
        E 15 b2 09 01
        E 15 b2 09 00
        E 15 b2 09 00
        E 15 b2 09 00
        E 15 b2 09 00
        E 15 b2 09 00
        E 15 b2 09 00
        E 15 b2 09 00
        E 15 b2 09 00
        E 15 b2 09 00
        E 15 b2 09 01
        E 15 b2 09 02
        E 15 b2 09 03
        E 15 b2 09 03
        E 15 b2 09 04
        E 15 b2 09 05
        E 15 b2 09 07
        E 15 b2 09 07
        E 15 b2 09 09
        E 15 b2 09 0b
        E 15 b2 09 0c
        E 15 b2 09 0e
        E 15 b2 09 10
        E 15 b2 09 12
        E 15 b2 09 14
        E 15 b2 09 16
        E 15 b2 09 18
        E 15 b2 09 1a
        E 15 b2 09 1c
        E 15 b2 09 1f
        E 15 b2 09 21
        E 15 b2 09 24
        E 15 b2 09 26
        E 15 b2 09 28
        E 15 b2 09 2b
        E 15 b2 09 2d
        E 15 b2 09 2f
        E 15 b2 09 33
        E 31 b2 09 39
        E 31 b2 09 3c
        E 31 b2 09 3f
        E 31 b2 09 41
        E 31 b2 09 44
        E 31 b2 09 47
        E 31 b2 09 49
        E 31 b2 09 4c
        E 31 b2 09 4f
        E 31 b2 09 51
        E 31 b2 09 54
        E 31 b2 09 56
        E 31 b2 09 59
        E 31 b2 09 5b
        E 31 b2 09 5d
        E 31 b2 09 5f
        E 31 b2 09 62
        E 31 b2 09 63
        E 31 b2 09 65
        E 31 b2 09 67
        E 31 b2 09 69
        E 31 b2 09 6a
        E 31 b2 09 6c
        E 31 b2 09 6c
        E 31 b2 09 6d
        E 31 b2 09 6e
        E 31 b2 09 6f
        E 31 b2 09 70
        E 31 b2 09 71
        E 31 b2 09 71
        E 31 b2 09 72
        E 31 b2 09 72
        E 31 b2 09 72
        E 31 b2 09 72
        E 31 b2 09 72
        E 31 b2 09 71
        E 31 b2 09 71
        E 31 b2 09 70
        E 31 b2 09 6f
        E 31 b2 09 6e
        E 31 b2 09 6d
        E 31 b2 09 6c
        E 31 b2 09 6b
        E 31 b2 09 69
        E 31 b2 09 68
        E 31 b2 09 66
        E 31 b2 09 64
        E 31 b2 09 63
        E 31 b2 09 61
        E 31 b2 09 5e
        E 31 b2 09 5c
        E 31 b2 09 5a
        E 31 b2 09 58
        E 31 b2 09 55
        E 31 b2 09 52
        E 31 b2 09 50
        E 31 b2 09 4e
        E 31 b2 09 4b
        E 31 b2 09 48
        E 31 b2 09 46
        E 31 b2 09 42
        E 31 b2 09 3f
        E 31 b2 09 3d
        E 31 b2 09 3a
        E 31 b2 09 37
        E 31 b2 09 35
        E 31 b2 09 32
        E 31 b2 09 2f
        E 31 b2 09 2c
        E 31 b2 09 29
        E 31 b2 09 26
        E 31 b2 09 24
        E 31 b2 09 22
        E 31 b2 09 1f
        E 31 b2 09 1c
        E 31 b2 09 1a
        E 31 b2 09 18
        E 31 b2 09 15
        E 31 b2 09 13
        E 31 b2 09 11
        E 31 b2 09 0f
        E 31 b2 09 0d
        E 31 b2 09 0b
        E 31 b2 09 09
        E 31 b2 09 09
        E 31 b2 09 07
        E 31 b2 09 06
        E 31 b2 09 04
        E 31 b2 09 03
        E 31 b2 09 02
        E 31 b2 09 01
        E 31 b2 09 00
        E 31 b2 09 00
        E 31 b2 09 00
        E 31 b2 09 00
        E 31 b2 09 00
        E 31 b2 09 00
        E 31 b2 09 00
        E 31 b2 09 00
        E 31 b2 09 00
        E 31 b2 09 01
        E 31 b2 09 02
        E 31 b2 09 03
        E 31 b2 09 04
        E 31 b2 09 05
        E 31 b2 09 06
        E 31 b2 09 08
        E 31 b2 09 09
        E 31 b2 09 0a
        E 31 b2 09 0c
        E 31 b2 09 0e
        E 31 b2 09 10
        E 31 b2 09 12
        E 31 b2 09 14
        E 31 b2 09 16
        E 31 b2 09 19
        E 31 b2 09 1b
        E 31 b2 09 1d
        E 31 b2 09 20
        E 31 b2 09 23
        E 31 b2 09 25
        E 31 b2 09 28
        E 31 b2 09 2b
        E 31 b2 09 2d
        E 31 b2 09 30
        E 31 b2 09 33
        E 31 b2 09 36
        E 31 b2 09 39
        E 46 b2 09 13
        E 46 b2 09 14
        E 46 b2 09 15
        E 46 b2 09 15
        E 46 b2 09 16
        E 46 b2 09 17
        E 46 b2 09 18
        E 46 b2 09 19
        E 46 b2 09 1a
        E 46 b2 09 1b
        E 46 b2 09 1c
        E 46 b2 09 1c
        E 46 b2 09 1d
        E 46 b2 09 1e
        E 46 b2 09 1f
        E 46 b2 09 1f
        E 46 b2 09 20
        E 46 b2 09 21
        E 46 b2 09 21
        E 46 b2 09 22
        E 46 b2 09 23
        E 46 b2 09 23
        E 46 b2 09 24
        E 46 b2 09 24
        E 46 b2 09 24
        E 46 b2 09 24
        E 46 b2 09 25
        E 46 b2 09 25
        E 46 b2 09 25
        E 46 b2 09 25
        E 46 b2 09 26
        E 46 b2 09 26
        E 46 b2 09 26
        E 46 b2 09 26
        E 46 b2 09 26
        E 46 b2 09 25
        E 46 b2 09 25
        E 46 b2 09 25
        E 46 b2 09 25
        E 46 b2 09 24
        E 46 b2 09 24
        E 46 b2 09 24
        E 46 b2 09 23
        E 46 b2 09 23
        E 46 b2 09 22
        E 46 b2 09 22
        E 46 b2 09 21
        E 46 b2 09 21
        E 46 b2 09 20
        E 46 b2 09 1f
        E 46 b2 09 1e
        E 46 b2 09 1e
        E 46 b2 09 1d
        E 46 b2 09 1c
        E 46 b2 09 1b
        E 46 b2 09 1a
        E 46 b2 09 1a
        E 46 b2 09 19
        E 46 b2 09 18
        E 46 b2 09 17
        E 46 b2 09 16
        E 46 b2 09 15
        E 46 b2 09 14
        E 46 b2 09 13
        E 46 b2 09 12
        E 46 b2 09 11
        E 46 b2 09 10
        E 46 b2 09 0f
        E 46 b2 09 0e
        E 46 b2 09 0d
        E 46 b2 09 0c
        E 46 b2 09 0c
        E 46 b2 09 0b
        E 46 b2 09 0a
        E 46 b2 09 09
        E 46 b2 09 08
        E 46 b2 09 08
        E 46 b2 09 07
        E 46 b2 09 06
        E 46 b2 09 05
        E 46 b2 09 05
        E 46 b2 09 04
        E 46 b2 09 03
        E 46 b2 09 03
        E 46 b2 09 03
        E 46 b2 09 02
        E 46 b2 09 02
        E 46 b2 09 01
        E 46 b2 09 01
        E 46 b2 09 00
        E 46 b2 09 00
        E 46 b2 09 00
        E 46 b2 09 00
        E 46 b2 09 00
        E 46 b2 09 00
        E 46 b2 09 00
        E 46 b2 09 00
        E 46 b2 09 00
        E 46 b2 09 00
        E 46 b2 09 00
        E 46 b2 09 00
        E 46 b2 09 00
        E 46 b2 09 01
        E 46 b2 09 01
        E 46 b2 09 01
        E 46 b2 09 02
        E 46 b2 09 02
        E 46 b2 09 03
        E 46 b2 09 03
        E 46 b2 09 04
        E 46 b2 09 04
        E 46 b2 09 05
        E 46 b2 09 06
        E 46 b2 09 06
        E 46 b2 09 07
        E 46 b2 09 08
        E 46 b2 09 09
        E 46 b2 09 09
        E 46 b2 09 0a
        E 46 b2 09 0b
        E 46 b2 09 0c
        E 46 b2 09 0d
        E 46 b2 09 0e
        E 46 b2 09 0f
        E 46 b2 09 10
        E 46 b2 09 11
        E 46 b2 09 12
        E 46 b2 09 13
        E 66 b0 7b 00
        CCINTERP 32
        CHASE_CC_TAKEOFFS 1
        GUID {A1D524C4-2CEC-064A-9F36-7E127715B5A9}
        IGNTEMPO 0 120 4 4
        SRCCOLOR 71
        VELLANE 3 601 0
        VELLANE -1 196 0
      >
    >
  >
  <TRACK {04DD0BAE-9131-F140-AE96-340B62861FEF}
    NAME "cannabis-infused gummies"
    PEAKCOL 16576
    BEAT -1
    AUTOMODE 0
    VOLPAN 1 0 -1 -1 1
    MUTESOLO 0 0 0
    IPHASE 0
    PLAYOFFS 0 1
    ISBUS 0 0
    BUSCOMP 0 0 0 0 0
    SHOWINMIX 1 0.6667 0.5 1 0.5 0 -1 0
    FREEMODE 0
    SEL 0
    REC 0 0 1 0 0 0 0
    VU 2
    TRACKHEIGHT 0 0 0 0 -1 0
    INQ 0 0 0 0.5 100 0 0 100
    NCHAN 2
    FX 1
    TRACKID {04DD0BAE-9131-F140-AE96-340B62861FEF}
    PERF 0
    MIDIOUT -1
    MAINSEND 1 0
    <ITEM
      POSITION 0
      SNAPOFFS 0
      LENGTH 2113.466288
      LOOP 1
      ALLTAKES 0
      FADEIN 1 0 0 1 0 0
      FADEOUT 1 0 0 1 0 0
      MUTE 0 0
      SEL 0
      IGUID {BE42B882-B163-B64E-A292-2777B0F39E41}
      IID 16
      NAME "cannabis-infused gummies.mid"
      VOLPAN 1 0 1 -1
      SOFFS 0 0
      PLAYRATE 1 1 0 -1 0 0.0025
      CHANMODE 0
      GUID {CFBB05F5-1076-3E41-950F-EE67F82DA376}
      <SOURCE MIDI
        HASDATA 1 128 QN
        CCINTERP 32
        POOLEDEVTS {5170EA55-E2E9-C241-95D6-17C5388DC21F}
        E 7 b3 08 13
        E 7 b3 08 43
        E 7 b3 08 2c
        E 7 b3 08 07
        E 7 b3 08 3e
        E 7 b3 08 38
        E 7 b3 08 08
        E 7 b3 08 07
        E 7 b3 08 2a
        E 7 b3 08 54
        E 7 b3 08 46
        E 7 b3 08 4d
        E 7 b3 08 37
        E 7 b3 08 09
        E 7 b3 08 10
        E 7 b3 08 3c
        E 7 b3 08 31
        E 7 b3 08 19
        E 7 b3 08 11
        E 7 b3 08 17
        E 7 b3 08 45
        E 7 b3 08 29
        E 7 b3 08 15
        E 7 b3 08 33
        E 7 b3 08 58
        E 7 b3 08 00
        E 7 b3 08 0b
        E 7 b3 08 24
        E 7 b3 08 1e
        E 7 b3 08 48
        E 7 b3 08 12
        E 7 b3 08 05
        E 7 b3 08 0e
        E 7 b3 08 0f
        E 7 b3 08 50
        E 7 b3 08 16
        E 7 b3 08 00
        E 7 b3 08 41
        E 7 b3 08 1e
        E 7 b3 08 12
        E 7 b3 08 23
        E 7 b3 08 17
        E 7 b3 08 4b
        E 7 b3 08 4a
        E 7 b3 08 58
        E 7 b3 08 4a
        E 7 b3 08 26
        E 7 b3 08 52
        E 7 b3 08 3f
        E 7 b3 08 0a
        E 7 b3 08 27
        E 7 b3 08 2f
        E 7 b3 08 54
        E 7 b3 08 43
        E 7 b3 08 30
        E 7 b3 08 31
        E 7 b3 08 04
        E 7 b3 08 09
        E 7 b3 08 51
        E 7 b3 08 47
        E 7 b3 08 25
        E 7 b3 08 1c
        E 7 b3 08 0b
        E 7 b3 08 27
        E 7 b3 08 1a
        E 7 b3 08 15
        E 7 b3 08 21
        E 7 b3 08 2e
        E 7 b3 08 35
        E 7 b3 08 39
        E 7 b3 08 0e
        E 7 b3 08 35
        E 7 b3 08 4f
        E 7 b3 08 2d
        E 7 b3 08 33
        E 7 b3 08 02
        E 7 b3 08 06
        E 7 b3 08 57
        E 7 b3 08 3a
        E 7 b3 08 10
        E 7 b3 08 51
        E 7 b3 08 1c
        E 7 b3 08 22
        E 7 b3 08 2b
        E 7 b3 08 23
        E 7 b3 08 3b
        E 7 b3 08 48
        E 7 b3 08 19
        E 7 b3 08 32
        E 7 b3 08 14
        E 7 b3 08 4f
        E 7 b3 08 49
        E 7 b3 08 28
        E 7 b3 08 20
        E 7 b3 08 46
        E 7 b3 08 20
        E 7 b3 08 3e
        E 7 b3 08 0c
        E 7 b3 08 01
        E 7 b3 08 1d
        E 7 b3 08 2c
        E 7 b3 08 4c
        E 7 b3 08 44
        E 7 b3 08 02
        E 7 b3 08 4d
        E 7 b3 08 41
        E 7 b3 08 04
        E 7 b3 08 1b
        E 7 b3 08 34
        E 7 b3 08 42
        E 7 b3 08 55
        E 7 b3 08 36
        E 7 b3 08 25
        E 7 b3 08 18
        E 7 b3 08 3d
        E 7 b3 08 40
        E 7 b3 08 4e
        E 7 b3 08 56
        E 7 b3 08 2a
        E 7 b3 08 38
        E 7 b3 08 3c
        E 7 b3 08 2e
        E 7 b3 08 53
        E 7 b3 08 0d
        E 7 b3 08 1f
        E 7 b3 08 3a
        E 9 b3 08 08
        E 9 b3 08 1c
        E 9 b3 08 12
        E 9 b3 08 03
        E 9 b3 08 1b
        E 9 b3 08 18
        E 9 b3 08 03
        E 9 b3 08 03
        E 9 b3 08 12
        E 9 b3 08 24
        E 9 b3 08 1e
        E 9 b3 08 21
        E 9 b3 08 17
        E 9 b3 08 04
        E 9 b3 08 07
        E 9 b3 08 19
        E 9 b3 08 15
        E 9 b3 08 0a
        E 9 b3 08 07
        E 9 b3 08 0a
        E 9 b3 08 1d
        E 9 b3 08 11
        E 9 b3 08 09
        E 9 b3 08 15
        E 9 b3 08 25
        E 9 b3 08 00
        E 9 b3 08 04
        E 9 b3 08 0f
        E 9 b3 08 0c
        E 9 b3 08 1f
        E 9 b3 08 08
        E 9 b3 08 02
        E 9 b3 08 06
        E 9 b3 08 06
        E 9 b3 08 22
        E 9 b3 08 09
        E 9 b3 08 00
        E 9 b3 08 1c
        E 9 b3 08 0d
        E 9 b3 08 07
        E 9 b3 08 0f
        E 9 b3 08 09
        E 9 b3 08 20
        E 9 b3 08 20
        E 9 b3 08 26
        E 9 b3 08 1f
        E 9 b3 08 10
        E 9 b3 08 23
        E 9 b3 08 1b
        E 9 b3 08 04
        E 9 b3 08 10
        E 9 b3 08 14
        E 9 b3 08 24
        E 9 b3 08 1d
        E 9 b3 08 14
        E 9 b3 08 15
        E 9 b3 08 01
        E 9 b3 08 03
        E 9 b3 08 23
        E 9 b3 08 1e
        E 9 b3 08 10
        E 9 b3 08 0c
        E 9 b3 08 05
        E 9 b3 08 11
        E 9 b3 08 0b
        E 9 b3 08 09
        E 9 b3 08 0e
        E 9 b3 08 13
        E 9 b3 08 17
        E 9 b3 08 18
        E 9 b3 08 06
        E 9 b3 08 16
        E 9 b3 08 21
        E 9 b3 08 13
        E 9 b3 08 16
        E 9 b3 08 00
        E 9 b3 08 02
        E 9 b3 08 25
        E 9 b3 08 18
        E 9 b3 08 06
        E 9 b3 08 22
        E 9 b3 08 0c
        E 9 b3 08 0e
        E 9 b3 08 12
        E 9 b3 08 0f
        E 9 b3 08 19
        E 9 b3 08 1e
        E 9 b3 08 0b
        E 9 b3 08 15
        E 9 b3 08 08
        E 9 b3 08 22
        E 9 b3 08 1f
        E 9 b3 08 11
        E 9 b3 08 0d
        E 9 b3 08 1e
        E 9 b3 08 0e
        E 9 b3 08 1a
        E 9 b3 08 05
        E 9 b3 08 00
        E 9 b3 08 0c
        E 9 b3 08 13
        E 9 b3 08 20
        E 9 b3 08 1d
        E 9 b3 08 01
        E 9 b3 08 21
        E 9 b3 08 1b
        E 9 b3 08 02
        E 9 b3 08 0b
        E 9 b3 08 16
        E 9 b3 08 1c
        E 9 b3 08 24
        E 9 b3 08 17
        E 9 b3 08 0f
        E 9 b3 08 0a
        E 9 b3 08 1a
        E 9 b3 08 1b
        E 9 b3 08 21
        E 9 b3 08 25
        E 9 b3 08 12
        E 9 b3 08 18
        E 9 b3 08 1a
        E 9 b3 08 14
        E 9 b3 08 23
        E 9 b3 08 05
        E 9 b3 08 0d
        E 9 b3 08 19
        E 3 b3 08 00
        E 3 b3 08 01
        E 3 b3 08 02
        E 3 b3 08 03
        E 3 b3 08 04
        E 3 b3 08 04
        E 3 b3 08 05
        E 3 b3 08 06
        E 3 b3 08 07
        E 3 b3 08 08
        E 3 b3 08 08
        E 3 b3 08 09
        E 3 b3 08 0a
        E 3 b3 08 0b
        E 3 b3 08 0c
        E 3 b3 08 0c
        E 3 b3 08 0d
        E 3 b3 08 0e
        E 3 b3 08 0f
        E 3 b3 08 10
        E 3 b3 08 10
        E 3 b3 08 11
        E 3 b3 08 12
        E 3 b3 08 13
        E 3 b3 08 14
        E 3 b3 08 14
        E 3 b3 08 15
        E 3 b3 08 16
        E 3 b3 08 17
        E 3 b3 08 18
        E 3 b3 08 18
        E 3 b3 08 19
        E 3 b3 08 1a
        E 3 b3 08 1b
        E 3 b3 08 1c
        E 3 b3 08 1c
        E 3 b3 08 1d
        E 3 b3 08 1e
        E 3 b3 08 1f
        E 3 b3 08 20
        E 3 b3 08 20
        E 3 b3 08 21
        E 3 b3 08 22
        E 3 b3 08 23
        E 3 b3 08 24
        E 3 b3 08 24
        E 3 b3 08 25
        E 3 b3 08 26
        E 3 b3 08 27
        E 3 b3 08 28
        E 3 b3 08 28
        E 3 b3 08 29
        E 3 b3 08 2a
        E 3 b3 08 2b
        E 3 b3 08 2c
        E 3 b3 08 2c
        E 3 b3 08 2d
        E 3 b3 08 2e
        E 3 b3 08 2f
        E 3 b3 08 30
        E 3 b3 08 30
        E 3 b3 08 31
        E 3 b3 08 32
        E 3 b3 08 32
        E 3 b3 08 32
        E 3 b3 08 31
        E 3 b3 08 30
        E 3 b3 08 30
        E 3 b3 08 2f
        E 3 b3 08 2e
        E 3 b3 08 2d
        E 3 b3 08 2c
        E 3 b3 08 2c
        E 3 b3 08 2b
        E 3 b3 08 2a
        E 3 b3 08 29
        E 3 b3 08 28
        E 3 b3 08 28
        E 3 b3 08 27
        E 3 b3 08 26
        E 3 b3 08 25
        E 3 b3 08 24
        E 3 b3 08 24
        E 3 b3 08 23
        E 3 b3 08 22
        E 3 b3 08 21
        E 3 b3 08 20
        E 3 b3 08 20
        E 3 b3 08 1f
        E 3 b3 08 1e
        E 3 b3 08 1d
        E 3 b3 08 1c
        E 3 b3 08 1c
        E 3 b3 08 1b
        E 3 b3 08 1a
        E 3 b3 08 19
        E 3 b3 08 18
        E 3 b3 08 18
        E 3 b3 08 17
        E 3 b3 08 16
        E 3 b3 08 15
        E 3 b3 08 14
        E 3 b3 08 14
        E 3 b3 08 13
        E 3 b3 08 12
        E 3 b3 08 11
        E 3 b3 08 10
        E 3 b3 08 10
        E 3 b3 08 0f
        E 3 b3 08 0e
        E 3 b3 08 0d
        E 3 b3 08 0c
        E 3 b3 08 0c
        E 3 b3 08 0b
        E 3 b3 08 0a
        E 3 b3 08 09
        E 3 b3 08 08
        E 3 b3 08 08
        E 3 b3 08 07
        E 3 b3 08 06
        E 3 b3 08 05
        E 3 b3 08 04
        E 3 b3 08 04
        E 3 b3 08 03
        E 3 b3 08 02
        E 3 b3 08 01
        E 3 b3 08 00
        E 3 b3 08 00
        E 28 b3 08 00
        E 28 b3 08 00
        E 28 b3 08 00
        E 28 b3 08 00
        E 28 b3 08 01
        E 28 b3 08 01
        E 28 b3 08 01
        E 28 b3 08 01
        E 28 b3 08 01
        E 28 b3 08 02
        E 28 b3 08 02
        E 28 b3 08 02
        E 28 b3 08 02
        E 28 b3 08 02
        E 28 b3 08 03
        E 28 b3 08 03
        E 28 b3 08 03
        E 28 b3 08 03
        E 28 b3 08 03
        E 28 b3 08 04
        E 28 b3 08 04
        E 28 b3 08 04
        E 28 b3 08 04
        E 28 b3 08 04
        E 28 b3 08 05
        E 28 b3 08 05
        E 28 b3 08 05
        E 28 b3 08 05
        E 28 b3 08 05
        E 28 b3 08 06
        E 28 b3 08 06
        E 28 b3 08 06
        E 28 b3 08 06
        E 28 b3 08 06
        E 28 b3 08 07
        E 28 b3 08 07
        E 28 b3 08 07
        E 28 b3 08 07
        E 28 b3 08 07
        E 28 b3 08 08
        E 28 b3 08 08
        E 28 b3 08 08
        E 28 b3 08 08
        E 28 b3 08 08
        E 28 b3 08 09
        E 28 b3 08 09
        E 28 b3 08 09
        E 28 b3 08 09
        E 28 b3 08 09
        E 28 b3 08 0a
        E 28 b3 08 0a
        E 28 b3 08 0a
        E 28 b3 08 0a
        E 28 b3 08 0a
        E 28 b3 08 0b
        E 28 b3 08 0b
        E 28 b3 08 0b
        E 28 b3 08 0b
        E 28 b3 08 0b
        E 28 b3 08 0c
        E 28 b3 08 0c
        E 28 b3 08 0c
        E 28 b3 08 0c
        E 28 b3 08 0c
        E 28 b3 08 0c
        E 28 b3 08 0c
        E 28 b3 08 0c
        E 28 b3 08 0c
        E 28 b3 08 0b
        E 28 b3 08 0b
        E 28 b3 08 0b
        E 28 b3 08 0b
        E 28 b3 08 0b
        E 28 b3 08 0a
        E 28 b3 08 0a
        E 28 b3 08 0a
        E 28 b3 08 0a
        E 28 b3 08 0a
        E 28 b3 08 09
        E 28 b3 08 09
        E 28 b3 08 09
        E 28 b3 08 09
        E 28 b3 08 09
        E 28 b3 08 08
        E 28 b3 08 08
        E 28 b3 08 08
        E 28 b3 08 08
        E 28 b3 08 08
        E 28 b3 08 07
        E 28 b3 08 07
        E 28 b3 08 07
        E 28 b3 08 07
        E 28 b3 08 07
        E 28 b3 08 06
        E 28 b3 08 06
        E 28 b3 08 06
        E 28 b3 08 06
        E 28 b3 08 06
        E 28 b3 08 05
        E 28 b3 08 05
        E 28 b3 08 05
        E 28 b3 08 05
        E 28 b3 08 05
        E 28 b3 08 04
        E 28 b3 08 04
        E 28 b3 08 04
        E 28 b3 08 04
        E 28 b3 08 04
        E 28 b3 08 03
        E 28 b3 08 03
        E 28 b3 08 03
        E 28 b3 08 03
        E 28 b3 08 03
        E 28 b3 08 02
        E 28 b3 08 02
        E 28 b3 08 02
        E 28 b3 08 02
        E 28 b3 08 02
        E 28 b3 08 01
        E 28 b3 08 01
        E 28 b3 08 01
        E 28 b3 08 01
        E 28 b3 08 01
        E 28 b3 08 00
        E 28 b3 08 00
        E 28 b3 08 00
        E 28 b3 08 00
        E 28 b3 08 00
        E 25 b3 08 01
        E 25 b3 08 02
        E 25 b3 08 04
        E 25 b3 08 05
        E 25 b3 08 07
        E 25 b3 08 08
        E 25 b3 08 09
        E 25 b3 08 0b
        E 25 b3 08 0c
        E 25 b3 08 0e
        E 25 b3 08 0f
        E 25 b3 08 10
        E 25 b3 08 12
        E 25 b3 08 13
        E 25 b3 08 15
        E 25 b3 08 16
        E 25 b3 08 17
        E 25 b3 08 19
        E 25 b3 08 1a
        E 25 b3 08 1c
        E 25 b3 08 1d
        E 25 b3 08 1e
        E 25 b3 08 20
        E 25 b3 08 21
        E 25 b3 08 23
        E 25 b3 08 24
        E 25 b3 08 25
        E 25 b3 08 27
        E 25 b3 08 28
        E 25 b3 08 2a
        E 25 b3 08 2b
        E 25 b3 08 2c
        E 25 b3 08 2e
        E 25 b3 08 2f
        E 25 b3 08 31
        E 25 b3 08 32
        E 25 b3 08 33
        E 25 b3 08 35
        E 25 b3 08 36
        E 25 b3 08 38
        E 25 b3 08 39
        E 25 b3 08 3a
        E 25 b3 08 3c
        E 25 b3 08 3d
        E 25 b3 08 3e
        E 25 b3 08 40
        E 25 b3 08 41
        E 25 b3 08 43
        E 25 b3 08 44
        E 25 b3 08 46
        E 25 b3 08 47
        E 25 b3 08 48
        E 25 b3 08 4a
        E 25 b3 08 4b
        E 25 b3 08 4d
        E 25 b3 08 4e
        E 25 b3 08 4f
        E 25 b3 08 51
        E 25 b3 08 52
        E 25 b3 08 54
        E 25 b3 08 55
        E 25 b3 08 56
        E 25 b3 08 58
        E 25 b3 08 58
        E 25 b3 08 58
        E 25 b3 08 56
        E 25 b3 08 55
        E 25 b3 08 54
        E 25 b3 08 52
        E 25 b3 08 51
        E 25 b3 08 4f
        E 25 b3 08 4e
        E 25 b3 08 4d
        E 25 b3 08 4b
        E 25 b3 08 4a
        E 25 b3 08 48
        E 25 b3 08 47
        E 25 b3 08 46
        E 25 b3 08 44
        E 25 b3 08 43
        E 25 b3 08 41
        E 25 b3 08 40
        E 25 b3 08 3e
        E 25 b3 08 3d
        E 25 b3 08 3c
        E 25 b3 08 3a
        E 25 b3 08 39
        E 25 b3 08 38
        E 25 b3 08 36
        E 25 b3 08 35
        E 25 b3 08 33
        E 25 b3 08 32
        E 25 b3 08 31
        E 25 b3 08 2f
        E 25 b3 08 2e
        E 25 b3 08 2c
        E 25 b3 08 2b
        E 25 b3 08 2a
        E 25 b3 08 28
        E 25 b3 08 27
        E 25 b3 08 25
        E 25 b3 08 24
        E 25 b3 08 23
        E 25 b3 08 21
        E 25 b3 08 20
        E 25 b3 08 1e
        E 25 b3 08 1d
        E 25 b3 08 1c
        E 25 b3 08 1a
        E 25 b3 08 19
        E 25 b3 08 17
        E 25 b3 08 16
        E 25 b3 08 15
        E 25 b3 08 13
        E 25 b3 08 12
        E 25 b3 08 10
        E 25 b3 08 0f
        E 25 b3 08 0e
        E 25 b3 08 0c
        E 25 b3 08 0b
        E 25 b3 08 09
        E 25 b3 08 08
        E 25 b3 08 07
        E 25 b3 08 05
        E 25 b3 08 04
        E 25 b3 08 02
        E 25 b3 08 01
        E 25 b3 08 00
        E 28 b3 08 00
        E 28 b3 08 01
        E 28 b3 08 01
        E 28 b3 08 02
        E 28 b3 08 03
        E 28 b3 08 03
        E 28 b3 08 04
        E 28 b3 08 04
        E 28 b3 08 05
        E 28 b3 08 06
        E 28 b3 08 06
        E 28 b3 08 07
        E 28 b3 08 07
        E 28 b3 08 08
        E 28 b3 08 09
        E 28 b3 08 09
        E 28 b3 08 0a
        E 28 b3 08 0a
        E 28 b3 08 0b
        E 28 b3 08 0c
        E 28 b3 08 0c
        E 28 b3 08 0d
        E 28 b3 08 0d
        E 28 b3 08 0e
        E 28 b3 08 0f
        E 28 b3 08 0f
        E 28 b3 08 10
        E 28 b3 08 10
        E 28 b3 08 11
        E 28 b3 08 12
        E 28 b3 08 12
        E 28 b3 08 13
        E 28 b3 08 13
        E 28 b3 08 14
        E 28 b3 08 15
        E 28 b3 08 15
        E 28 b3 08 16
        E 28 b3 08 16
        E 28 b3 08 17
        E 28 b3 08 18
        E 28 b3 08 18
        E 28 b3 08 19
        E 28 b3 08 19
        E 28 b3 08 1a
        E 28 b3 08 1b
        E 28 b3 08 1b
        E 28 b3 08 1c
        E 28 b3 08 1c
        E 28 b3 08 1d
        E 28 b3 08 1e
        E 28 b3 08 1e
        E 28 b3 08 1f
        E 28 b3 08 1f
        E 28 b3 08 20
        E 28 b3 08 21
        E 28 b3 08 21
        E 28 b3 08 22
        E 28 b3 08 22
        E 28 b3 08 23
        E 28 b3 08 24
        E 28 b3 08 24
        E 28 b3 08 25
        E 28 b3 08 25
        E 28 b3 08 26
        E 28 b3 08 25
        E 28 b3 08 25
        E 28 b3 08 24
        E 28 b3 08 24
        E 28 b3 08 23
        E 28 b3 08 22
        E 28 b3 08 22
        E 28 b3 08 21
        E 28 b3 08 21
        E 28 b3 08 20
        E 28 b3 08 1f
        E 28 b3 08 1f
        E 28 b3 08 1e
        E 28 b3 08 1e
        E 28 b3 08 1d
        E 28 b3 08 1c
        E 28 b3 08 1c
        E 28 b3 08 1b
        E 28 b3 08 1b
        E 28 b3 08 1a
        E 28 b3 08 19
        E 28 b3 08 19
        E 28 b3 08 18
        E 28 b3 08 18
        E 28 b3 08 17
        E 28 b3 08 16
        E 28 b3 08 16
        E 28 b3 08 15
        E 28 b3 08 15
        E 28 b3 08 14
        E 28 b3 08 13
        E 28 b3 08 13
        E 28 b3 08 12
        E 28 b3 08 12
        E 28 b3 08 11
        E 28 b3 08 10
        E 28 b3 08 10
        E 28 b3 08 0f
        E 28 b3 08 0f
        E 28 b3 08 0e
        E 28 b3 08 0d
        E 28 b3 08 0d
        E 28 b3 08 0c
        E 28 b3 08 0c
        E 28 b3 08 0b
        E 28 b3 08 0a
        E 28 b3 08 0a
        E 28 b3 08 09
        E 28 b3 08 09
        E 28 b3 08 08
        E 28 b3 08 07
        E 28 b3 08 07
        E 28 b3 08 06
        E 28 b3 08 06
        E 28 b3 08 05
        E 28 b3 08 04
        E 28 b3 08 04
        E 28 b3 08 03
        E 28 b3 08 03
        E 28 b3 08 02
        E 28 b3 08 01
        E 28 b3 08 01
        E 28 b3 08 00
        E 28 b3 08 00
        E 9 b3 08 01
        E 9 b3 08 02
        E 9 b3 08 03
        E 9 b3 08 04
        E 9 b3 08 06
        E 9 b3 08 07
        E 9 b3 08 08
        E 9 b3 08 09
        E 9 b3 08 0a
        E 9 b3 08 0c
        E 9 b3 08 0d
        E 9 b3 08 0e
        E 9 b3 08 0f
        E 9 b3 08 10
        E 9 b3 08 12
        E 9 b3 08 13
        E 9 b3 08 14
        E 9 b3 08 15
        E 9 b3 08 16
        E 9 b3 08 18
        E 9 b3 08 19
        E 9 b3 08 1a
        E 9 b3 08 1b
        E 9 b3 08 1c
        E 9 b3 08 1e
        E 9 b3 08 1f
        E 9 b3 08 20
        E 9 b3 08 21
        E 9 b3 08 22
        E 9 b3 08 24
        E 9 b3 08 25
        E 9 b3 08 26
        E 9 b3 08 27
        E 9 b3 08 28
        E 9 b3 08 2a
        E 9 b3 08 2b
        E 9 b3 08 2c
        E 9 b3 08 2d
        E 9 b3 08 2e
        E 9 b3 08 30
        E 9 b3 08 31
        E 9 b3 08 32
        E 9 b3 08 33
        E 9 b3 08 34
        E 9 b3 08 36
        E 9 b3 08 37
        E 9 b3 08 38
        E 9 b3 08 39
        E 9 b3 08 3a
        E 9 b3 08 3c
        E 9 b3 08 3d
        E 9 b3 08 3e
        E 9 b3 08 3f
        E 9 b3 08 40
        E 9 b3 08 42
        E 9 b3 08 43
        E 9 b3 08 44
        E 9 b3 08 45
        E 9 b3 08 46
        E 9 b3 08 48
        E 9 b3 08 49
        E 9 b3 08 4a
        E 9 b3 08 4b
        E 9 b3 08 4c
        E 9 b3 08 4b
        E 9 b3 08 4a
        E 9 b3 08 49
        E 9 b3 08 48
        E 9 b3 08 46
        E 9 b3 08 45
        E 9 b3 08 44
        E 9 b3 08 43
        E 9 b3 08 42
        E 9 b3 08 40
        E 9 b3 08 3f
        E 9 b3 08 3e
        E 9 b3 08 3d
        E 9 b3 08 3c
        E 9 b3 08 3a
        E 9 b3 08 39
        E 9 b3 08 38
        E 9 b3 08 37
        E 9 b3 08 36
        E 9 b3 08 34
        E 9 b3 08 33
        E 9 b3 08 32
        E 9 b3 08 31
        E 9 b3 08 30
        E 9 b3 08 2e
        E 9 b3 08 2d
        E 9 b3 08 2c
        E 9 b3 08 2b
        E 9 b3 08 2a
        E 9 b3 08 28
        E 9 b3 08 27
        E 9 b3 08 26
        E 9 b3 08 25
        E 9 b3 08 24
        E 9 b3 08 22
        E 9 b3 08 21
        E 9 b3 08 20
        E 9 b3 08 1f
        E 9 b3 08 1e
        E 9 b3 08 1c
        E 9 b3 08 1b
        E 9 b3 08 1a
        E 9 b3 08 19
        E 9 b3 08 18
        E 9 b3 08 16
        E 9 b3 08 15
        E 9 b3 08 14
        E 9 b3 08 13
        E 9 b3 08 12
        E 9 b3 08 10
        E 9 b3 08 0f
        E 9 b3 08 0e
        E 9 b3 08 0d
        E 9 b3 08 0c
        E 9 b3 08 0a
        E 9 b3 08 09
        E 9 b3 08 08
        E 9 b3 08 07
        E 9 b3 08 06
        E 9 b3 08 04
        E 9 b3 08 03
        E 9 b3 08 02
        E 9 b3 08 01
        E 9 b3 08 00
        E 25 b3 08 01
        E 25 b3 08 03
        E 25 b3 08 05
        E 25 b3 08 07
        E 25 b3 08 09
        E 25 b3 08 0a
        E 25 b3 08 0c
        E 25 b3 08 0e
        E 25 b3 08 10
        E 25 b3 08 12
        E 25 b3 08 13
        E 25 b3 08 15
        E 25 b3 08 17
        E 25 b3 08 19
        E 25 b3 08 1b
        E 25 b3 08 1c
        E 25 b3 08 1e
        E 25 b3 08 20
        E 25 b3 08 22
        E 25 b3 08 24
        E 25 b3 08 25
        E 25 b3 08 27
        E 25 b3 08 29
        E 25 b3 08 2b
        E 25 b3 08 2d
        E 25 b3 08 2e
        E 25 b3 08 30
        E 25 b3 08 32
        E 25 b3 08 34
        E 25 b3 08 36
        E 25 b3 08 37
        E 25 b3 08 39
        E 25 b3 08 3b
        E 25 b3 08 3d
        E 25 b3 08 3f
        E 25 b3 08 40
        E 25 b3 08 42
        E 25 b3 08 44
        E 25 b3 08 46
        E 25 b3 08 48
        E 25 b3 08 49
        E 25 b3 08 4b
        E 25 b3 08 4d
        E 25 b3 08 4f
        E 25 b3 08 51
        E 25 b3 08 52
        E 25 b3 08 54
        E 25 b3 08 56
        E 25 b3 08 58
        E 25 b3 08 5a
        E 25 b3 08 5b
        E 25 b3 08 5d
        E 25 b3 08 5f
        E 25 b3 08 61
        E 25 b3 08 63
        E 25 b3 08 64
        E 25 b3 08 66
        E 25 b3 08 68
        E 25 b3 08 6a
        E 25 b3 08 6c
        E 25 b3 08 6d
        E 25 b3 08 6f
        E 25 b3 08 71
        E 25 b3 08 72
        E 25 b3 08 71
        E 25 b3 08 6f
        E 25 b3 08 6d
        E 25 b3 08 6c
        E 25 b3 08 6a
        E 25 b3 08 68
        E 25 b3 08 66
        E 25 b3 08 64
        E 25 b3 08 63
        E 25 b3 08 61
        E 25 b3 08 5f
        E 25 b3 08 5d
        E 25 b3 08 5b
        E 25 b3 08 5a
        E 25 b3 08 58
        E 25 b3 08 56
        E 25 b3 08 54
        E 25 b3 08 52
        E 25 b3 08 51
        E 25 b3 08 4f
        E 25 b3 08 4d
        E 25 b3 08 4b
        E 25 b3 08 49
        E 25 b3 08 48
        E 25 b3 08 46
        E 25 b3 08 44
        E 25 b3 08 42
        E 25 b3 08 40
        E 25 b3 08 3f
        E 25 b3 08 3d
        E 25 b3 08 3b
        E 25 b3 08 39
        E 25 b3 08 37
        E 25 b3 08 36
        E 25 b3 08 34
        E 25 b3 08 32
        E 25 b3 08 30
        E 25 b3 08 2e
        E 25 b3 08 2d
        E 25 b3 08 2b
        E 25 b3 08 29
        E 25 b3 08 27
        E 25 b3 08 25
        E 25 b3 08 24
        E 25 b3 08 22
        E 25 b3 08 20
        E 25 b3 08 1e
        E 25 b3 08 1c
        E 25 b3 08 1b
        E 25 b3 08 19
        E 25 b3 08 17
        E 25 b3 08 15
        E 25 b3 08 13
        E 25 b3 08 12
        E 25 b3 08 10
        E 25 b3 08 0e
        E 25 b3 08 0c
        E 25 b3 08 0a
        E 25 b3 08 09
        E 25 b3 08 07
        E 25 b3 08 05
        E 25 b3 08 03
        E 25 b3 08 01
        E 25 b3 08 00
        E 3 b3 08 00
        E 3 b3 08 01
        E 3 b3 08 02
        E 3 b3 08 03
        E 3 b3 08 04
        E 3 b3 08 04
        E 3 b3 08 05
        E 3 b3 08 06
        E 3 b3 08 07
        E 3 b3 08 08
        E 3 b3 08 08
        E 3 b3 08 09
        E 3 b3 08 0a
        E 3 b3 08 0b
        E 3 b3 08 0c
        E 3 b3 08 0c
        E 3 b3 08 0d
        E 3 b3 08 0e
        E 3 b3 08 0f
        E 3 b3 08 10
        E 3 b3 08 10
        E 3 b3 08 11
        E 3 b3 08 12
        E 3 b3 08 13
        E 3 b3 08 14
        E 3 b3 08 14
        E 3 b3 08 15
        E 3 b3 08 16
        E 3 b3 08 17
        E 3 b3 08 18
        E 3 b3 08 18
        E 3 b3 08 19
        E 3 b3 08 1a
        E 3 b3 08 1b
        E 3 b3 08 1c
        E 3 b3 08 1c
        E 3 b3 08 1d
        E 3 b3 08 1e
        E 3 b3 08 1f
        E 3 b3 08 20
        E 3 b3 08 20
        E 3 b3 08 21
        E 3 b3 08 22
        E 3 b3 08 23
        E 3 b3 08 24
        E 3 b3 08 24
        E 3 b3 08 25
        E 3 b3 08 26
        E 3 b3 08 27
        E 3 b3 08 28
        E 3 b3 08 28
        E 3 b3 08 29
        E 3 b3 08 2a
        E 3 b3 08 2b
        E 3 b3 08 2c
        E 3 b3 08 2c
        E 3 b3 08 2d
        E 3 b3 08 2e
        E 3 b3 08 2f
        E 3 b3 08 30
        E 3 b3 08 30
        E 3 b3 08 31
        E 3 b3 08 32
        E 3 b3 08 32
        E 3 b3 08 32
        E 3 b3 08 31
        E 3 b3 08 30
        E 3 b3 08 30
        E 3 b3 08 2f
        E 3 b3 08 2e
        E 3 b3 08 2d
        E 3 b3 08 2c
        E 3 b3 08 2c
        E 3 b3 08 2b
        E 3 b3 08 2a
        E 3 b3 08 29
        E 3 b3 08 28
        E 3 b3 08 28
        E 3 b3 08 27
        E 3 b3 08 26
        E 3 b3 08 25
        E 3 b3 08 24
        E 3 b3 08 24
        E 3 b3 08 23
        E 3 b3 08 22
        E 3 b3 08 21
        E 3 b3 08 20
        E 3 b3 08 20
        E 3 b3 08 1f
        E 3 b3 08 1e
        E 3 b3 08 1d
        E 3 b3 08 1c
        E 3 b3 08 1c
        E 3 b3 08 1b
        E 3 b3 08 1a
        E 3 b3 08 19
        E 3 b3 08 18
        E 3 b3 08 18
        E 3 b3 08 17
        E 3 b3 08 16
        E 3 b3 08 15
        E 3 b3 08 14
        E 3 b3 08 14
        E 3 b3 08 13
        E 3 b3 08 12
        E 3 b3 08 11
        E 3 b3 08 10
        E 3 b3 08 10
        E 3 b3 08 0f
        E 3 b3 08 0e
        E 3 b3 08 0d
        E 3 b3 08 0c
        E 3 b3 08 0c
        E 3 b3 08 0b
        E 3 b3 08 0a
        E 3 b3 08 09
        E 3 b3 08 08
        E 3 b3 08 08
        E 3 b3 08 07
        E 3 b3 08 06
        E 3 b3 08 05
        E 3 b3 08 04
        E 3 b3 08 04
        E 3 b3 08 03
        E 3 b3 08 02
        E 3 b3 08 01
        E 3 b3 08 00
        E 3 b3 08 00
        E 28 b3 08 00
        E 28 b3 08 00
        E 28 b3 08 00
        E 28 b3 08 00
        E 28 b3 08 01
        E 28 b3 08 01
        E 28 b3 08 01
        E 28 b3 08 01
        E 28 b3 08 01
        E 28 b3 08 02
        E 28 b3 08 02
        E 28 b3 08 02
        E 28 b3 08 02
        E 28 b3 08 02
        E 28 b3 08 03
        E 28 b3 08 03
        E 28 b3 08 03
        E 28 b3 08 03
        E 28 b3 08 03
        E 28 b3 08 04
        E 28 b3 08 04
        E 28 b3 08 04
        E 28 b3 08 04
        E 28 b3 08 04
        E 28 b3 08 05
        E 28 b3 08 05
        E 28 b3 08 05
        E 28 b3 08 05
        E 28 b3 08 05
        E 28 b3 08 06
        E 28 b3 08 06
        E 28 b3 08 06
        E 28 b3 08 06
        E 28 b3 08 06
        E 28 b3 08 07
        E 28 b3 08 07
        E 28 b3 08 07
        E 28 b3 08 07
        E 28 b3 08 07
        E 28 b3 08 08
        E 28 b3 08 08
        E 28 b3 08 08
        E 28 b3 08 08
        E 28 b3 08 08
        E 28 b3 08 09
        E 28 b3 08 09
        E 28 b3 08 09
        E 28 b3 08 09
        E 28 b3 08 09
        E 28 b3 08 0a
        E 28 b3 08 0a
        E 28 b3 08 0a
        E 28 b3 08 0a
        E 28 b3 08 0a
        E 28 b3 08 0b
        E 28 b3 08 0b
        E 28 b3 08 0b
        E 28 b3 08 0b
        E 28 b3 08 0b
        E 28 b3 08 0c
        E 28 b3 08 0c
        E 28 b3 08 0c
        E 28 b3 08 0c
        E 28 b3 08 0c
        E 28 b3 08 0c
        E 28 b3 08 0c
        E 28 b3 08 0c
        E 28 b3 08 0c
        E 28 b3 08 0b
        E 28 b3 08 0b
        E 28 b3 08 0b
        E 28 b3 08 0b
        E 28 b3 08 0b
        E 28 b3 08 0a
        E 28 b3 08 0a
        E 28 b3 08 0a
        E 28 b3 08 0a
        E 28 b3 08 0a
        E 28 b3 08 09
        E 28 b3 08 09
        E 28 b3 08 09
        E 28 b3 08 09
        E 28 b3 08 09
        E 28 b3 08 08
        E 28 b3 08 08
        E 28 b3 08 08
        E 28 b3 08 08
        E 28 b3 08 08
        E 28 b3 08 07
        E 28 b3 08 07
        E 28 b3 08 07
        E 28 b3 08 07
        E 28 b3 08 07
        E 28 b3 08 06
        E 28 b3 08 06
        E 28 b3 08 06
        E 28 b3 08 06
        E 28 b3 08 06
        E 28 b3 08 05
        E 28 b3 08 05
        E 28 b3 08 05
        E 28 b3 08 05
        E 28 b3 08 05
        E 28 b3 08 04
        E 28 b3 08 04
        E 28 b3 08 04
        E 28 b3 08 04
        E 28 b3 08 04
        E 28 b3 08 03
        E 28 b3 08 03
        E 28 b3 08 03
        E 28 b3 08 03
        E 28 b3 08 03
        E 28 b3 08 02
        E 28 b3 08 02
        E 28 b3 08 02
        E 28 b3 08 02
        E 28 b3 08 02
        E 28 b3 08 01
        E 28 b3 08 01
        E 28 b3 08 01
        E 28 b3 08 01
        E 28 b3 08 01
        E 28 b3 08 00
        E 28 b3 08 00
        E 28 b3 08 00
        E 28 b3 08 00
        E 28 b3 08 00
        E 25 b3 08 01
        E 25 b3 08 02
        E 25 b3 08 04
        E 25 b3 08 05
        E 25 b3 08 07
        E 25 b3 08 08
        E 25 b3 08 09
        E 25 b3 08 0b
        E 25 b3 08 0c
        E 25 b3 08 0e
        E 25 b3 08 0f
        E 25 b3 08 10
        E 25 b3 08 12
        E 25 b3 08 13
        E 25 b3 08 15
        E 25 b3 08 16
        E 25 b3 08 17
        E 25 b3 08 19
        E 25 b3 08 1a
        E 25 b3 08 1c
        E 25 b3 08 1d
        E 25 b3 08 1e
        E 25 b3 08 20
        E 25 b3 08 21
        E 25 b3 08 23
        E 25 b3 08 24
        E 25 b3 08 25
        E 25 b3 08 27
        E 25 b3 08 28
        E 25 b3 08 2a
        E 25 b3 08 2b
        E 25 b3 08 2c
        E 25 b3 08 2e
        E 25 b3 08 2f
        E 25 b3 08 31
        E 25 b3 08 32
        E 25 b3 08 33
        E 25 b3 08 35
        E 25 b3 08 36
        E 25 b3 08 38
        E 25 b3 08 39
        E 25 b3 08 3a
        E 25 b3 08 3c
        E 25 b3 08 3d
        E 25 b3 08 3e
        E 25 b3 08 40
        E 25 b3 08 41
        E 25 b3 08 43
        E 25 b3 08 44
        E 25 b3 08 46
        E 25 b3 08 47
        E 25 b3 08 48
        E 25 b3 08 4a
        E 25 b3 08 4b
        E 25 b3 08 4d
        E 25 b3 08 4e
        E 25 b3 08 4f
        E 25 b3 08 51
        E 25 b3 08 52
        E 25 b3 08 54
        E 25 b3 08 55
        E 25 b3 08 56
        E 25 b3 08 58
        E 25 b3 08 58
        E 25 b3 08 58
        E 25 b3 08 56
        E 25 b3 08 55
        E 25 b3 08 54
        E 25 b3 08 52
        E 25 b3 08 51
        E 25 b3 08 4f
        E 25 b3 08 4e
        E 25 b3 08 4d
        E 25 b3 08 4b
        E 25 b3 08 4a
        E 25 b3 08 48
        E 25 b3 08 47
        E 25 b3 08 46
        E 25 b3 08 44
        E 25 b3 08 43
        E 25 b3 08 41
        E 25 b3 08 40
        E 25 b3 08 3e
        E 25 b3 08 3d
        E 25 b3 08 3c
        E 25 b3 08 3a
        E 25 b3 08 39
        E 25 b3 08 38
        E 25 b3 08 36
        E 25 b3 08 35
        E 25 b3 08 33
        E 25 b3 08 32
        E 25 b3 08 31
        E 25 b3 08 2f
        E 25 b3 08 2e
        E 25 b3 08 2c
        E 25 b3 08 2b
        E 25 b3 08 2a
        E 25 b3 08 28
        E 25 b3 08 27
        E 25 b3 08 25
        E 25 b3 08 24
        E 25 b3 08 23
        E 25 b3 08 21
        E 25 b3 08 20
        E 25 b3 08 1e
        E 25 b3 08 1d
        E 25 b3 08 1c
        E 25 b3 08 1a
        E 25 b3 08 19
        E 25 b3 08 17
        E 25 b3 08 16
        E 25 b3 08 15
        E 25 b3 08 13
        E 25 b3 08 12
        E 25 b3 08 10
        E 25 b3 08 0f
        E 25 b3 08 0e
        E 25 b3 08 0c
        E 25 b3 08 0b
        E 25 b3 08 09
        E 25 b3 08 08
        E 25 b3 08 07
        E 25 b3 08 05
        E 25 b3 08 04
        E 25 b3 08 02
        E 25 b3 08 01
        E 25 b3 08 00
        E 28 b3 08 00
        E 28 b3 08 01
        E 28 b3 08 01
        E 28 b3 08 02
        E 28 b3 08 03
        E 28 b3 08 03
        E 28 b3 08 04
        E 28 b3 08 04
        E 28 b3 08 05
        E 28 b3 08 06
        E 28 b3 08 06
        E 28 b3 08 07
        E 28 b3 08 07
        E 28 b3 08 08
        E 28 b3 08 09
        E 28 b3 08 09
        E 28 b3 08 0a
        E 28 b3 08 0a
        E 28 b3 08 0b
        E 28 b3 08 0c
        E 28 b3 08 0c
        E 28 b3 08 0d
        E 28 b3 08 0d
        E 28 b3 08 0e
        E 28 b3 08 0f
        E 28 b3 08 0f
        E 28 b3 08 10
        E 28 b3 08 10
        E 28 b3 08 11
        E 28 b3 08 12
        E 28 b3 08 12
        E 28 b3 08 13
        E 28 b3 08 13
        E 28 b3 08 14
        E 28 b3 08 15
        E 28 b3 08 15
        E 28 b3 08 16
        E 28 b3 08 16
        E 28 b3 08 17
        E 28 b3 08 18
        E 28 b3 08 18
        E 28 b3 08 19
        E 28 b3 08 19
        E 28 b3 08 1a
        E 28 b3 08 1b
        E 28 b3 08 1b
        E 28 b3 08 1c
        E 28 b3 08 1c
        E 28 b3 08 1d
        E 28 b3 08 1e
        E 28 b3 08 1e
        E 28 b3 08 1f
        E 28 b3 08 1f
        E 28 b3 08 20
        E 28 b3 08 21
        E 28 b3 08 21
        E 28 b3 08 22
        E 28 b3 08 22
        E 28 b3 08 23
        E 28 b3 08 24
        E 28 b3 08 24
        E 28 b3 08 25
        E 28 b3 08 25
        E 28 b3 08 26
        E 28 b3 08 25
        E 28 b3 08 25
        E 28 b3 08 24
        E 28 b3 08 24
        E 28 b3 08 23
        E 28 b3 08 22
        E 28 b3 08 22
        E 28 b3 08 21
        E 28 b3 08 21
        E 28 b3 08 20
        E 28 b3 08 1f
        E 28 b3 08 1f
        E 28 b3 08 1e
        E 28 b3 08 1e
        E 28 b3 08 1d
        E 28 b3 08 1c
        E 28 b3 08 1c
        E 28 b3 08 1b
        E 28 b3 08 1b
        E 28 b3 08 1a
        E 28 b3 08 19
        E 28 b3 08 19
        E 28 b3 08 18
        E 28 b3 08 18
        E 28 b3 08 17
        E 28 b3 08 16
        E 28 b3 08 16
        E 28 b3 08 15
        E 28 b3 08 15
        E 28 b3 08 14
        E 28 b3 08 13
        E 28 b3 08 13
        E 28 b3 08 12
        E 28 b3 08 12
        E 28 b3 08 11
        E 28 b3 08 10
        E 28 b3 08 10
        E 28 b3 08 0f
        E 28 b3 08 0f
        E 28 b3 08 0e
        E 28 b3 08 0d
        E 28 b3 08 0d
        E 28 b3 08 0c
        E 28 b3 08 0c
        E 28 b3 08 0b
        E 28 b3 08 0a
        E 28 b3 08 0a
        E 28 b3 08 09
        E 28 b3 08 09
        E 28 b3 08 08
        E 28 b3 08 07
        E 28 b3 08 07
        E 28 b3 08 06
        E 28 b3 08 06
        E 28 b3 08 05
        E 28 b3 08 04
        E 28 b3 08 04
        E 28 b3 08 03
        E 28 b3 08 03
        E 28 b3 08 02
        E 28 b3 08 01
        E 28 b3 08 01
        E 28 b3 08 00
        E 28 b3 08 00
        E 9 b3 08 01
        E 9 b3 08 02
        E 9 b3 08 03
        E 9 b3 08 04
        E 9 b3 08 06
        E 9 b3 08 07
        E 9 b3 08 08
        E 9 b3 08 09
        E 9 b3 08 0a
        E 9 b3 08 0c
        E 9 b3 08 0d
        E 9 b3 08 0e
        E 9 b3 08 0f
        E 9 b3 08 10
        E 9 b3 08 12
        E 9 b3 08 13
        E 9 b3 08 14
        E 9 b3 08 15
        E 9 b3 08 16
        E 9 b3 08 18
        E 9 b3 08 19
        E 9 b3 08 1a
        E 9 b3 08 1b
        E 9 b3 08 1c
        E 9 b3 08 1e
        E 9 b3 08 1f
        E 9 b3 08 20
        E 9 b3 08 21
        E 9 b3 08 22
        E 9 b3 08 24
        E 9 b3 08 25
        E 9 b3 08 26
        E 9 b3 08 27
        E 9 b3 08 28
        E 9 b3 08 2a
        E 9 b3 08 2b
        E 9 b3 08 2c
        E 9 b3 08 2d
        E 9 b3 08 2e
        E 9 b3 08 30
        E 9 b3 08 31
        E 9 b3 08 32
        E 9 b3 08 33
        E 9 b3 08 34
        E 9 b3 08 36
        E 9 b3 08 37
        E 9 b3 08 38
        E 9 b3 08 39
        E 9 b3 08 3a
        E 9 b3 08 3c
        E 9 b3 08 3d
        E 9 b3 08 3e
        E 9 b3 08 3f
        E 9 b3 08 40
        E 9 b3 08 42
        E 9 b3 08 43
        E 9 b3 08 44
        E 9 b3 08 45
        E 9 b3 08 46
        E 9 b3 08 48
        E 9 b3 08 49
        E 9 b3 08 4a
        E 9 b3 08 4b
        E 9 b3 08 4c
        E 9 b3 08 4b
        E 9 b3 08 4a
        E 9 b3 08 49
        E 9 b3 08 48
        E 9 b3 08 46
        E 9 b3 08 45
        E 9 b3 08 44
        E 9 b3 08 43
        E 9 b3 08 42
        E 9 b3 08 40
        E 9 b3 08 3f
        E 9 b3 08 3e
        E 9 b3 08 3d
        E 9 b3 08 3c
        E 9 b3 08 3a
        E 9 b3 08 39
        E 9 b3 08 38
        E 9 b3 08 37
        E 9 b3 08 36
        E 9 b3 08 34
        E 9 b3 08 33
        E 9 b3 08 32
        E 9 b3 08 31
        E 9 b3 08 30
        E 9 b3 08 2e
        E 9 b3 08 2d
        E 9 b3 08 2c
        E 9 b3 08 2b
        E 9 b3 08 2a
        E 9 b3 08 28
        E 9 b3 08 27
        E 9 b3 08 26
        E 9 b3 08 25
        E 9 b3 08 24
        E 9 b3 08 22
        E 9 b3 08 21
        E 9 b3 08 20
        E 9 b3 08 1f
        E 9 b3 08 1e
        E 9 b3 08 1c
        E 9 b3 08 1b
        E 9 b3 08 1a
        E 9 b3 08 19
        E 9 b3 08 18
        E 9 b3 08 16
        E 9 b3 08 15
        E 9 b3 08 14
        E 9 b3 08 13
        E 9 b3 08 12
        E 9 b3 08 10
        E 9 b3 08 0f
        E 9 b3 08 0e
        E 9 b3 08 0d
        E 9 b3 08 0c
        E 9 b3 08 0a
        E 9 b3 08 09
        E 9 b3 08 08
        E 9 b3 08 07
        E 9 b3 08 06
        E 9 b3 08 04
        E 9 b3 08 03
        E 9 b3 08 02
        E 9 b3 08 01
        E 9 b3 08 00
        E 25 b3 08 01
        E 25 b3 08 03
        E 25 b3 08 05
        E 25 b3 08 07
        E 25 b3 08 09
        E 25 b3 08 0a
        E 25 b3 08 0c
        E 25 b3 08 0e
        E 25 b3 08 10
        E 25 b3 08 12
        E 25 b3 08 13
        E 25 b3 08 15
        E 25 b3 08 17
        E 25 b3 08 19
        E 25 b3 08 1b
        E 25 b3 08 1c
        E 25 b3 08 1e
        E 25 b3 08 20
        E 25 b3 08 22
        E 25 b3 08 24
        E 25 b3 08 25
        E 25 b3 08 27
        E 25 b3 08 29
        E 25 b3 08 2b
        E 25 b3 08 2d
        E 25 b3 08 2e
        E 25 b3 08 30
        E 25 b3 08 32
        E 25 b3 08 34
        E 25 b3 08 36
        E 25 b3 08 37
        E 25 b3 08 39
        E 25 b3 08 3b
        E 25 b3 08 3d
        E 25 b3 08 3f
        E 25 b3 08 40
        E 25 b3 08 42
        E 25 b3 08 44
        E 25 b3 08 46
        E 25 b3 08 48
        E 25 b3 08 49
        E 25 b3 08 4b
        E 25 b3 08 4d
        E 25 b3 08 4f
        E 25 b3 08 51
        E 25 b3 08 52
        E 25 b3 08 54
        E 25 b3 08 56
        E 25 b3 08 58
        E 25 b3 08 5a
        E 25 b3 08 5b
        E 25 b3 08 5d
        E 25 b3 08 5f
        E 25 b3 08 61
        E 25 b3 08 63
        E 25 b3 08 64
        E 25 b3 08 66
        E 25 b3 08 68
        E 25 b3 08 6a
        E 25 b3 08 6c
        E 25 b3 08 6d
        E 25 b3 08 6f
        E 25 b3 08 71
        E 25 b3 08 72
        E 25 b3 08 71
        E 25 b3 08 6f
        E 25 b3 08 6d
        E 25 b3 08 6c
        E 25 b3 08 6a
        E 25 b3 08 68
        E 25 b3 08 66
        E 25 b3 08 64
        E 25 b3 08 63
        E 25 b3 08 61
        E 25 b3 08 5f
        E 25 b3 08 5d
        E 25 b3 08 5b
        E 25 b3 08 5a
        E 25 b3 08 58
        E 25 b3 08 56
        E 25 b3 08 54
        E 25 b3 08 52
        E 25 b3 08 51
        E 25 b3 08 4f
        E 25 b3 08 4d
        E 25 b3 08 4b
        E 25 b3 08 49
        E 25 b3 08 48
        E 25 b3 08 46
        E 25 b3 08 44
        E 25 b3 08 42
        E 25 b3 08 40
        E 25 b3 08 3f
        E 25 b3 08 3d
        E 25 b3 08 3b
        E 25 b3 08 39
        E 25 b3 08 37
        E 25 b3 08 36
        E 25 b3 08 34
        E 25 b3 08 32
        E 25 b3 08 30
        E 25 b3 08 2e
        E 25 b3 08 2d
        E 25 b3 08 2b
        E 25 b3 08 29
        E 25 b3 08 27
        E 25 b3 08 25
        E 25 b3 08 24
        E 25 b3 08 22
        E 25 b3 08 20
        E 25 b3 08 1e
        E 25 b3 08 1c
        E 25 b3 08 1b
        E 25 b3 08 19
        E 25 b3 08 17
        E 25 b3 08 15
        E 25 b3 08 13
        E 25 b3 08 12
        E 25 b3 08 10
        E 25 b3 08 0e
        E 25 b3 08 0c
        E 25 b3 08 0a
        E 25 b3 08 09
        E 25 b3 08 07
        E 25 b3 08 05
        E 25 b3 08 03
        E 25 b3 08 01
        E 25 b3 08 00
        E 3 b3 08 00
        E 3 b3 08 01
        E 3 b3 08 02
        E 3 b3 08 03
        E 3 b3 08 04
        E 3 b3 08 04
        E 3 b3 08 05
        E 3 b3 08 06
        E 3 b3 08 07
        E 3 b3 08 08
        E 3 b3 08 08
        E 3 b3 08 09
        E 3 b3 08 0a
        E 3 b3 08 0b
        E 3 b3 08 0c
        E 3 b3 08 0c
        E 3 b3 08 0d
        E 3 b3 08 0e
        E 3 b3 08 0f
        E 3 b3 08 10
        E 3 b3 08 10
        E 3 b3 08 11
        E 3 b3 08 12
        E 3 b3 08 13
        E 3 b3 08 14
        E 3 b3 08 14
        E 3 b3 08 15
        E 3 b3 08 16
        E 3 b3 08 17
        E 3 b3 08 18
        E 3 b3 08 18
        E 3 b3 08 19
        E 3 b3 08 1a
        E 3 b3 08 1b
        E 3 b3 08 1c
        E 3 b3 08 1c
        E 3 b3 08 1d
        E 3 b3 08 1e
        E 3 b3 08 1f
        E 3 b3 08 20
        E 3 b3 08 20
        E 3 b3 08 21
        E 3 b3 08 22
        E 3 b3 08 23
        E 3 b3 08 24
        E 3 b3 08 24
        E 3 b3 08 25
        E 3 b3 08 26
        E 3 b3 08 27
        E 3 b3 08 28
        E 3 b3 08 28
        E 3 b3 08 29
        E 3 b3 08 2a
        E 3 b3 08 2b
        E 3 b3 08 2c
        E 3 b3 08 2c
        E 3 b3 08 2d
        E 3 b3 08 2e
        E 3 b3 08 2f
        E 3 b3 08 30
        E 3 b3 08 30
        E 3 b3 08 31
        E 3 b3 08 32
        E 3 b3 08 32
        E 3 b3 08 32
        E 3 b3 08 31
        E 3 b3 08 30
        E 3 b3 08 30
        E 3 b3 08 2f
        E 3 b3 08 2e
        E 3 b3 08 2d
        E 3 b3 08 2c
        E 3 b3 08 2c
        E 3 b3 08 2b
        E 3 b3 08 2a
        E 3 b3 08 29
        E 3 b3 08 28
        E 3 b3 08 28
        E 3 b3 08 27
        E 3 b3 08 26
        E 3 b3 08 25
        E 3 b3 08 24
        E 3 b3 08 24
        E 3 b3 08 23
        E 3 b3 08 22
        E 3 b3 08 21
        E 3 b3 08 20
        E 3 b3 08 20
        E 3 b3 08 1f
        E 3 b3 08 1e
        E 3 b3 08 1d
        E 3 b3 08 1c
        E 3 b3 08 1c
        E 3 b3 08 1b
        E 3 b3 08 1a
        E 3 b3 08 19
        E 3 b3 08 18
        E 3 b3 08 18
        E 3 b3 08 17
        E 3 b3 08 16
        E 3 b3 08 15
        E 3 b3 08 14
        E 3 b3 08 14
        E 3 b3 08 13
        E 3 b3 08 12
        E 3 b3 08 11
        E 3 b3 08 10
        E 3 b3 08 10
        E 3 b3 08 0f
        E 3 b3 08 0e
        E 3 b3 08 0d
        E 3 b3 08 0c
        E 3 b3 08 0c
        E 3 b3 08 0b
        E 3 b3 08 0a
        E 3 b3 08 09
        E 3 b3 08 08
        E 3 b3 08 08
        E 3 b3 08 07
        E 3 b3 08 06
        E 3 b3 08 05
        E 3 b3 08 04
        E 3 b3 08 04
        E 3 b3 08 03
        E 3 b3 08 02
        E 3 b3 08 01
        E 3 b3 08 00
        E 3 b3 08 00
        E 28 b3 08 00
        E 28 b3 08 00
        E 28 b3 08 00
        E 28 b3 08 00
        E 28 b3 08 01
        E 28 b3 08 01
        E 28 b3 08 01
        E 28 b3 08 01
        E 28 b3 08 01
        E 28 b3 08 02
        E 28 b3 08 02
        E 28 b3 08 02
        E 28 b3 08 02
        E 28 b3 08 02
        E 28 b3 08 03
        E 28 b3 08 03
        E 28 b3 08 03
        E 28 b3 08 03
        E 28 b3 08 03
        E 28 b3 08 04
        E 28 b3 08 04
        E 28 b3 08 04
        E 28 b3 08 04
        E 28 b3 08 04
        E 28 b3 08 05
        E 28 b3 08 05
        E 28 b3 08 05
        E 28 b3 08 05
        E 28 b3 08 05
        E 28 b3 08 06
        E 28 b3 08 06
        E 28 b3 08 06
        E 28 b3 08 06
        E 28 b3 08 06
        E 28 b3 08 07
        E 28 b3 08 07
        E 28 b3 08 07
        E 28 b3 08 07
        E 28 b3 08 07
        E 28 b3 08 08
        E 28 b3 08 08
        E 28 b3 08 08
        E 28 b3 08 08
        E 28 b3 08 08
        E 28 b3 08 09
        E 28 b3 08 09
        E 28 b3 08 09
        E 28 b3 08 09
        E 28 b3 08 09
        E 28 b3 08 0a
        E 28 b3 08 0a
        E 28 b3 08 0a
        E 28 b3 08 0a
        E 28 b3 08 0a
        E 28 b3 08 0b
        E 28 b3 08 0b
        E 28 b3 08 0b
        E 28 b3 08 0b
        E 28 b3 08 0b
        E 28 b3 08 0c
        E 28 b3 08 0c
        E 28 b3 08 0c
        E 28 b3 08 0c
        E 28 b3 08 0c
        E 28 b3 08 0c
        E 28 b3 08 0c
        E 28 b3 08 0c
        E 28 b3 08 0c
        E 28 b3 08 0b
        E 28 b3 08 0b
        E 28 b3 08 0b
        E 28 b3 08 0b
        E 28 b3 08 0b
        E 28 b3 08 0a
        E 28 b3 08 0a
        E 28 b3 08 0a
        E 28 b3 08 0a
        E 28 b3 08 0a
        E 28 b3 08 09
        E 28 b3 08 09
        E 28 b3 08 09
        E 28 b3 08 09
        E 28 b3 08 09
        E 28 b3 08 08
        E 28 b3 08 08
        E 28 b3 08 08
        E 28 b3 08 08
        E 28 b3 08 08
        E 28 b3 08 07
        E 28 b3 08 07
        E 28 b3 08 07
        E 28 b3 08 07
        E 28 b3 08 07
        E 28 b3 08 06
        E 28 b3 08 06
        E 28 b3 08 06
        E 28 b3 08 06
        E 28 b3 08 06
        E 28 b3 08 05
        E 28 b3 08 05
        E 28 b3 08 05
        E 28 b3 08 05
        E 28 b3 08 05
        E 28 b3 08 04
        E 28 b3 08 04
        E 28 b3 08 04
        E 28 b3 08 04
        E 28 b3 08 04
        E 28 b3 08 03
        E 28 b3 08 03
        E 28 b3 08 03
        E 28 b3 08 03
        E 28 b3 08 03
        E 28 b3 08 02
        E 28 b3 08 02
        E 28 b3 08 02
        E 28 b3 08 02
        E 28 b3 08 02
        E 28 b3 08 01
        E 28 b3 08 01
        E 28 b3 08 01
        E 28 b3 08 01
        E 28 b3 08 01
        E 28 b3 08 00
        E 28 b3 08 00
        E 28 b3 08 00
        E 28 b3 08 00
        E 28 b3 08 00
        E 25 b3 08 01
        E 25 b3 08 02
        E 25 b3 08 04
        E 25 b3 08 05
        E 25 b3 08 07
        E 25 b3 08 08
        E 25 b3 08 09
        E 25 b3 08 0b
        E 25 b3 08 0c
        E 25 b3 08 0e
        E 25 b3 08 0f
        E 25 b3 08 10
        E 25 b3 08 12
        E 25 b3 08 13
        E 25 b3 08 15
        E 25 b3 08 16
        E 25 b3 08 17
        E 25 b3 08 19
        E 25 b3 08 1a
        E 25 b3 08 1c
        E 25 b3 08 1d
        E 25 b3 08 1e
        E 25 b3 08 20
        E 25 b3 08 21
        E 25 b3 08 23
        E 25 b3 08 24
        E 25 b3 08 25
        E 25 b3 08 27
        E 25 b3 08 28
        E 25 b3 08 2a
        E 25 b3 08 2b
        E 25 b3 08 2c
        E 25 b3 08 2e
        E 25 b3 08 2f
        E 25 b3 08 31
        E 25 b3 08 32
        E 25 b3 08 33
        E 25 b3 08 35
        E 25 b3 08 36
        E 25 b3 08 38
        E 25 b3 08 39
        E 25 b3 08 3a
        E 25 b3 08 3c
        E 25 b3 08 3d
        E 25 b3 08 3e
        E 25 b3 08 40
        E 25 b3 08 41
        E 25 b3 08 43
        E 25 b3 08 44
        E 25 b3 08 46
        E 25 b3 08 47
        E 25 b3 08 48
        E 25 b3 08 4a
        E 25 b3 08 4b
        E 25 b3 08 4d
        E 25 b3 08 4e
        E 25 b3 08 4f
        E 25 b3 08 51
        E 25 b3 08 52
        E 25 b3 08 54
        E 25 b3 08 55
        E 25 b3 08 56
        E 25 b3 08 58
        E 25 b3 08 58
        E 25 b3 08 58
        E 25 b3 08 56
        E 25 b3 08 55
        E 25 b3 08 54
        E 25 b3 08 52
        E 25 b3 08 51
        E 25 b3 08 4f
        E 25 b3 08 4e
        E 25 b3 08 4d
        E 25 b3 08 4b
        E 25 b3 08 4a
        E 25 b3 08 48
        E 25 b3 08 47
        E 25 b3 08 46
        E 25 b3 08 44
        E 25 b3 08 43
        E 25 b3 08 41
        E 25 b3 08 40
        E 25 b3 08 3e
        E 25 b3 08 3d
        E 25 b3 08 3c
        E 25 b3 08 3a
        E 25 b3 08 39
        E 25 b3 08 38
        E 25 b3 08 36
        E 25 b3 08 35
        E 25 b3 08 33
        E 25 b3 08 32
        E 25 b3 08 31
        E 25 b3 08 2f
        E 25 b3 08 2e
        E 25 b3 08 2c
        E 25 b3 08 2b
        E 25 b3 08 2a
        E 25 b3 08 28
        E 25 b3 08 27
        E 25 b3 08 25
        E 25 b3 08 24
        E 25 b3 08 23
        E 25 b3 08 21
        E 25 b3 08 20
        E 25 b3 08 1e
        E 25 b3 08 1d
        E 25 b3 08 1c
        E 25 b3 08 1a
        E 25 b3 08 19
        E 25 b3 08 17
        E 25 b3 08 16
        E 25 b3 08 15
        E 25 b3 08 13
        E 25 b3 08 12
        E 25 b3 08 10
        E 25 b3 08 0f
        E 25 b3 08 0e
        E 25 b3 08 0c
        E 25 b3 08 0b
        E 25 b3 08 09
        E 25 b3 08 08
        E 25 b3 08 07
        E 25 b3 08 05
        E 25 b3 08 04
        E 25 b3 08 02
        E 25 b3 08 01
        E 25 b3 08 00
        E 28 b3 08 00
        E 28 b3 08 01
        E 28 b3 08 01
        E 28 b3 08 02
        E 28 b3 08 03
        E 28 b3 08 03
        E 28 b3 08 04
        E 28 b3 08 04
        E 28 b3 08 05
        E 28 b3 08 06
        E 28 b3 08 06
        E 28 b3 08 07
        E 28 b3 08 07
        E 28 b3 08 08
        E 28 b3 08 09
        E 28 b3 08 09
        E 28 b3 08 0a
        E 28 b3 08 0a
        E 28 b3 08 0b
        E 28 b3 08 0c
        E 28 b3 08 0c
        E 28 b3 08 0d
        E 28 b3 08 0d
        E 28 b3 08 0e
        E 28 b3 08 0f
        E 28 b3 08 0f
        E 28 b3 08 10
        E 28 b3 08 10
        E 28 b3 08 11
        E 28 b3 08 12
        E 28 b3 08 12
        E 28 b3 08 13
        E 28 b3 08 13
        E 28 b3 08 14
        E 28 b3 08 15
        E 28 b3 08 15
        E 28 b3 08 16
        E 28 b3 08 16
        E 28 b3 08 17
        E 28 b3 08 18
        E 28 b3 08 18
        E 28 b3 08 19
        E 28 b3 08 19
        E 28 b3 08 1a
        E 28 b3 08 1b
        E 28 b3 08 1b
        E 28 b3 08 1c
        E 28 b3 08 1c
        E 28 b3 08 1d
        E 28 b3 08 1e
        E 28 b3 08 1e
        E 28 b3 08 1f
        E 28 b3 08 1f
        E 28 b3 08 20
        E 28 b3 08 21
        E 28 b3 08 21
        E 28 b3 08 22
        E 28 b3 08 22
        E 28 b3 08 23
        E 28 b3 08 24
        E 28 b3 08 24
        E 28 b3 08 25
        E 28 b3 08 25
        E 28 b3 08 26
        E 28 b3 08 25
        E 28 b3 08 25
        E 28 b3 08 24
        E 28 b3 08 24
        E 28 b3 08 23
        E 28 b3 08 22
        E 28 b3 08 22
        E 28 b3 08 21
        E 28 b3 08 21
        E 28 b3 08 20
        E 28 b3 08 1f
        E 28 b3 08 1f
        E 28 b3 08 1e
        E 28 b3 08 1e
        E 28 b3 08 1d
        E 28 b3 08 1c
        E 28 b3 08 1c
        E 28 b3 08 1b
        E 28 b3 08 1b
        E 28 b3 08 1a
        E 28 b3 08 19
        E 28 b3 08 19
        E 28 b3 08 18
        E 28 b3 08 18
        E 28 b3 08 17
        E 28 b3 08 16
        E 28 b3 08 16
        E 28 b3 08 15
        E 28 b3 08 15
        E 28 b3 08 14
        E 28 b3 08 13
        E 28 b3 08 13
        E 28 b3 08 12
        E 28 b3 08 12
        E 28 b3 08 11
        E 28 b3 08 10
        E 28 b3 08 10
        E 28 b3 08 0f
        E 28 b3 08 0f
        E 28 b3 08 0e
        E 28 b3 08 0d
        E 28 b3 08 0d
        E 28 b3 08 0c
        E 28 b3 08 0c
        E 28 b3 08 0b
        E 28 b3 08 0a
        E 28 b3 08 0a
        E 28 b3 08 09
        E 28 b3 08 09
        E 28 b3 08 08
        E 28 b3 08 07
        E 28 b3 08 07
        E 28 b3 08 06
        E 28 b3 08 06
        E 28 b3 08 05
        E 28 b3 08 04
        E 28 b3 08 04
        E 28 b3 08 03
        E 28 b3 08 03
        E 28 b3 08 02
        E 28 b3 08 01
        E 28 b3 08 01
        E 28 b3 08 00
        E 28 b3 08 00
        E 9 b3 08 01
        E 9 b3 08 02
        E 9 b3 08 03
        E 9 b3 08 04
        E 9 b3 08 06
        E 9 b3 08 07
        E 9 b3 08 08
        E 9 b3 08 09
        E 9 b3 08 0a
        E 9 b3 08 0c
        E 9 b3 08 0d
        E 9 b3 08 0e
        E 9 b3 08 0f
        E 9 b3 08 10
        E 9 b3 08 12
        E 9 b3 08 13
        E 9 b3 08 14
        E 9 b3 08 15
        E 9 b3 08 16
        E 9 b3 08 18
        E 9 b3 08 19
        E 9 b3 08 1a
        E 9 b3 08 1b
        E 9 b3 08 1c
        E 9 b3 08 1e
        E 9 b3 08 1f
        E 9 b3 08 20
        E 9 b3 08 21
        E 9 b3 08 22
        E 9 b3 08 24
        E 9 b3 08 25
        E 9 b3 08 26
        E 9 b3 08 27
        E 9 b3 08 28
        E 9 b3 08 2a
        E 9 b3 08 2b
        E 9 b3 08 2c
        E 9 b3 08 2d
        E 9 b3 08 2e
        E 9 b3 08 30
        E 9 b3 08 31
        E 9 b3 08 32
        E 9 b3 08 33
        E 9 b3 08 34
        E 9 b3 08 36
        E 9 b3 08 37
        E 9 b3 08 38
        E 9 b3 08 39
        E 9 b3 08 3a
        E 9 b3 08 3c
        E 9 b3 08 3d
        E 9 b3 08 3e
        E 9 b3 08 3f
        E 9 b3 08 40
        E 9 b3 08 42
        E 9 b3 08 43
        E 9 b3 08 44
        E 9 b3 08 45
        E 9 b3 08 46
        E 9 b3 08 48
        E 9 b3 08 49
        E 9 b3 08 4a
        E 9 b3 08 4b
        E 9 b3 08 4c
        E 9 b3 08 4b
        E 9 b3 08 4a
        E 9 b3 08 49
        E 9 b3 08 48
        E 9 b3 08 46
        E 9 b3 08 45
        E 9 b3 08 44
        E 9 b3 08 43
        E 9 b3 08 42
        E 9 b3 08 40
        E 9 b3 08 3f
        E 9 b3 08 3e
        E 9 b3 08 3d
        E 9 b3 08 3c
        E 9 b3 08 3a
        E 9 b3 08 39
        E 9 b3 08 38
        E 9 b3 08 37
        E 9 b3 08 36
        E 9 b3 08 34
        E 9 b3 08 33
        E 9 b3 08 32
        E 9 b3 08 31
        E 9 b3 08 30
        E 9 b3 08 2e
        E 9 b3 08 2d
        E 9 b3 08 2c
        E 9 b3 08 2b
        E 9 b3 08 2a
        E 9 b3 08 28
        E 9 b3 08 27
        E 9 b3 08 26
        E 9 b3 08 25
        E 9 b3 08 24
        E 9 b3 08 22
        E 9 b3 08 21
        E 9 b3 08 20
        E 9 b3 08 1f
        E 9 b3 08 1e
        E 9 b3 08 1c
        E 9 b3 08 1b
        E 9 b3 08 1a
        E 9 b3 08 19
        E 9 b3 08 18
        E 9 b3 08 16
        E 9 b3 08 15
        E 9 b3 08 14
        E 9 b3 08 13
        E 9 b3 08 12
        E 9 b3 08 10
        E 9 b3 08 0f
        E 9 b3 08 0e
        E 9 b3 08 0d
        E 9 b3 08 0c
        E 9 b3 08 0a
        E 9 b3 08 09
        E 9 b3 08 08
        E 9 b3 08 07
        E 9 b3 08 06
        E 9 b3 08 04
        E 9 b3 08 03
        E 9 b3 08 02
        E 9 b3 08 01
        E 9 b3 08 00
        E 25 b3 08 01
        E 25 b3 08 03
        E 25 b3 08 05
        E 25 b3 08 07
        E 25 b3 08 09
        E 25 b3 08 0a
        E 25 b3 08 0c
        E 25 b3 08 0e
        E 25 b3 08 10
        E 25 b3 08 12
        E 25 b3 08 13
        E 25 b3 08 15
        E 25 b3 08 17
        E 25 b3 08 19
        E 25 b3 08 1b
        E 25 b3 08 1c
        E 25 b3 08 1e
        E 25 b3 08 20
        E 25 b3 08 22
        E 25 b3 08 24
        E 25 b3 08 25
        E 25 b3 08 27
        E 25 b3 08 29
        E 25 b3 08 2b
        E 25 b3 08 2d
        E 25 b3 08 2e
        E 25 b3 08 30
        E 25 b3 08 32
        E 25 b3 08 34
        E 25 b3 08 36
        E 25 b3 08 37
        E 25 b3 08 39
        E 25 b3 08 3b
        E 25 b3 08 3d
        E 25 b3 08 3f
        E 25 b3 08 40
        E 25 b3 08 42
        E 25 b3 08 44
        E 25 b3 08 46
        E 25 b3 08 48
        E 25 b3 08 49
        E 25 b3 08 4b
        E 25 b3 08 4d
        E 25 b3 08 4f
        E 25 b3 08 51
        E 25 b3 08 52
        E 25 b3 08 54
        E 25 b3 08 56
        E 25 b3 08 58
        E 25 b3 08 5a
        E 25 b3 08 5b
        E 25 b3 08 5d
        E 25 b3 08 5f
        E 25 b3 08 61
        E 25 b3 08 63
        E 25 b3 08 64
        E 25 b3 08 66
        E 25 b3 08 68
        E 25 b3 08 6a
        E 25 b3 08 6c
        E 25 b3 08 6d
        E 25 b3 08 6f
        E 25 b3 08 71
        E 25 b3 08 72
        E 25 b3 08 71
        E 25 b3 08 6f
        E 25 b3 08 6d
        E 25 b3 08 6c
        E 25 b3 08 6a
        E 25 b3 08 68
        E 25 b3 08 66
        E 25 b3 08 64
        E 25 b3 08 63
        E 25 b3 08 61
        E 25 b3 08 5f
        E 25 b3 08 5d
        E 25 b3 08 5b
        E 25 b3 08 5a
        E 25 b3 08 58
        E 25 b3 08 56
        E 25 b3 08 54
        E 25 b3 08 52
        E 25 b3 08 51
        E 25 b3 08 4f
        E 25 b3 08 4d
        E 25 b3 08 4b
        E 25 b3 08 49
        E 25 b3 08 48
        E 25 b3 08 46
        E 25 b3 08 44
        E 25 b3 08 42
        E 25 b3 08 40
        E 25 b3 08 3f
        E 25 b3 08 3d
        E 25 b3 08 3b
        E 25 b3 08 39
        E 25 b3 08 37
        E 25 b3 08 36
        E 25 b3 08 34
        E 25 b3 08 32
        E 25 b3 08 30
        E 25 b3 08 2e
        E 25 b3 08 2d
        E 25 b3 08 2b
        E 25 b3 08 29
        E 25 b3 08 27
        E 25 b3 08 25
        E 25 b3 08 24
        E 25 b3 08 22
        E 25 b3 08 20
        E 25 b3 08 1e
        E 25 b3 08 1c
        E 25 b3 08 1b
        E 25 b3 08 19
        E 25 b3 08 17
        E 25 b3 08 15
        E 25 b3 08 13
        E 25 b3 08 12
        E 25 b3 08 10
        E 25 b3 08 0e
        E 25 b3 08 0c
        E 25 b3 08 0a
        E 25 b3 08 09
        E 25 b3 08 07
        E 25 b3 08 05
        E 25 b3 08 03
        E 25 b3 08 01
        E 25 b3 08 00
        E 3 b3 08 00
        E 3 b3 08 01
        E 3 b3 08 02
        E 3 b3 08 03
        E 3 b3 08 04
        E 3 b3 08 04
        E 3 b3 08 05
        E 3 b3 08 06
        E 3 b3 08 07
        E 3 b3 08 08
        E 3 b3 08 08
        E 3 b3 08 09
        E 3 b3 08 0a
        E 3 b3 08 0b
        E 3 b3 08 0c
        E 3 b3 08 0c
        E 3 b3 08 0d
        E 3 b3 08 0e
        E 3 b3 08 0f
        E 3 b3 08 10
        E 3 b3 08 10
        E 3 b3 08 11
        E 3 b3 08 12
        E 3 b3 08 13
        E 3 b3 08 14
        E 3 b3 08 14
        E 3 b3 08 15
        E 3 b3 08 16
        E 3 b3 08 17
        E 3 b3 08 18
        E 3 b3 08 18
        E 3 b3 08 19
        E 3 b3 08 1a
        E 3 b3 08 1b
        E 3 b3 08 1c
        E 3 b3 08 1c
        E 3 b3 08 1d
        E 3 b3 08 1e
        E 3 b3 08 1f
        E 3 b3 08 20
        E 3 b3 08 20
        E 3 b3 08 21
        E 3 b3 08 22
        E 3 b3 08 23
        E 3 b3 08 24
        E 3 b3 08 24
        E 3 b3 08 25
        E 3 b3 08 26
        E 3 b3 08 27
        E 3 b3 08 28
        E 3 b3 08 28
        E 3 b3 08 29
        E 3 b3 08 2a
        E 3 b3 08 2b
        E 3 b3 08 2c
        E 3 b3 08 2c
        E 3 b3 08 2d
        E 3 b3 08 2e
        E 3 b3 08 2f
        E 3 b3 08 30
        E 3 b3 08 30
        E 3 b3 08 31
        E 3 b3 08 32
        E 3 b3 08 32
        E 3 b3 08 32
        E 3 b3 08 31
        E 3 b3 08 30
        E 3 b3 08 30
        E 3 b3 08 2f
        E 3 b3 08 2e
        E 3 b3 08 2d
        E 3 b3 08 2c
        E 3 b3 08 2c
        E 3 b3 08 2b
        E 3 b3 08 2a
        E 3 b3 08 29
        E 3 b3 08 28
        E 3 b3 08 28
        E 3 b3 08 27
        E 3 b3 08 26
        E 3 b3 08 25
        E 3 b3 08 24
        E 3 b3 08 24
        E 3 b3 08 23
        E 3 b3 08 22
        E 3 b3 08 21
        E 3 b3 08 20
        E 3 b3 08 20
        E 3 b3 08 1f
        E 3 b3 08 1e
        E 3 b3 08 1d
        E 3 b3 08 1c
        E 3 b3 08 1c
        E 3 b3 08 1b
        E 3 b3 08 1a
        E 3 b3 08 19
        E 3 b3 08 18
        E 3 b3 08 18
        E 3 b3 08 17
        E 3 b3 08 16
        E 3 b3 08 15
        E 3 b3 08 14
        E 3 b3 08 14
        E 3 b3 08 13
        E 3 b3 08 12
        E 3 b3 08 11
        E 3 b3 08 10
        E 3 b3 08 10
        E 3 b3 08 0f
        E 3 b3 08 0e
        E 3 b3 08 0d
        E 3 b3 08 0c
        E 3 b3 08 0c
        E 3 b3 08 0b
        E 3 b3 08 0a
        E 3 b3 08 09
        E 3 b3 08 08
        E 3 b3 08 08
        E 3 b3 08 07
        E 3 b3 08 06
        E 3 b3 08 05
        E 3 b3 08 04
        E 3 b3 08 04
        E 3 b3 08 03
        E 3 b3 08 02
        E 3 b3 08 01
        E 3 b3 08 00
        E 3 b3 08 00
        E 28 b3 08 00
        E 28 b3 08 00
        E 28 b3 08 00
        E 28 b3 08 00
        E 28 b3 08 01
        E 28 b3 08 01
        E 28 b3 08 01
        E 28 b3 08 01
        E 28 b3 08 01
        E 28 b3 08 02
        E 28 b3 08 02
        E 28 b3 08 02
        E 28 b3 08 02
        E 28 b3 08 02
        E 28 b3 08 03
        E 28 b3 08 03
        E 28 b3 08 03
        E 28 b3 08 03
        E 28 b3 08 03
        E 28 b3 08 04
        E 28 b3 08 04
        E 28 b3 08 04
        E 28 b3 08 04
        E 28 b3 08 04
        E 28 b3 08 05
        E 28 b3 08 05
        E 28 b3 08 05
        E 28 b3 08 05
        E 28 b3 08 05
        E 28 b3 08 06
        E 28 b3 08 06
        E 28 b3 08 06
        E 28 b3 08 06
        E 28 b3 08 06
        E 28 b3 08 07
        E 28 b3 08 07
        E 28 b3 08 07
        E 28 b3 08 07
        E 28 b3 08 07
        E 28 b3 08 08
        E 28 b3 08 08
        E 28 b3 08 08
        E 28 b3 08 08
        E 28 b3 08 08
        E 28 b3 08 09
        E 28 b3 08 09
        E 28 b3 08 09
        E 28 b3 08 09
        E 28 b3 08 09
        E 28 b3 08 0a
        E 28 b3 08 0a
        E 28 b3 08 0a
        E 28 b3 08 0a
        E 28 b3 08 0a
        E 28 b3 08 0b
        E 28 b3 08 0b
        E 28 b3 08 0b
        E 28 b3 08 0b
        E 28 b3 08 0b
        E 28 b3 08 0c
        E 28 b3 08 0c
        E 28 b3 08 0c
        E 28 b3 08 0c
        E 28 b3 08 0c
        E 28 b3 08 0c
        E 28 b3 08 0c
        E 28 b3 08 0c
        E 28 b3 08 0c
        E 28 b3 08 0b
        E 28 b3 08 0b
        E 28 b3 08 0b
        E 28 b3 08 0b
        E 28 b3 08 0b
        E 28 b3 08 0a
        E 28 b3 08 0a
        E 28 b3 08 0a
        E 28 b3 08 0a
        E 28 b3 08 0a
        E 28 b3 08 09
        E 28 b3 08 09
        E 28 b3 08 09
        E 28 b3 08 09
        E 28 b3 08 09
        E 28 b3 08 08
        E 28 b3 08 08
        E 28 b3 08 08
        E 28 b3 08 08
        E 28 b3 08 08
        E 28 b3 08 07
        E 28 b3 08 07
        E 28 b3 08 07
        E 28 b3 08 07
        E 28 b3 08 07
        E 28 b3 08 06
        E 28 b3 08 06
        E 28 b3 08 06
        E 28 b3 08 06
        E 28 b3 08 06
        E 28 b3 08 05
        E 28 b3 08 05
        E 28 b3 08 05
        E 28 b3 08 05
        E 28 b3 08 05
        E 28 b3 08 04
        E 28 b3 08 04
        E 28 b3 08 04
        E 28 b3 08 04
        E 28 b3 08 04
        E 28 b3 08 03
        E 28 b3 08 03
        E 28 b3 08 03
        E 28 b3 08 03
        E 28 b3 08 03
        E 28 b3 08 02
        E 28 b3 08 02
        E 28 b3 08 02
        E 28 b3 08 02
        E 28 b3 08 02
        E 28 b3 08 01
        E 28 b3 08 01
        E 28 b3 08 01
        E 28 b3 08 01
        E 28 b3 08 01
        E 28 b3 08 00
        E 28 b3 08 00
        E 28 b3 08 00
        E 28 b3 08 00
        E 28 b3 08 00
        E 25 b3 08 01
        E 25 b3 08 02
        E 25 b3 08 04
        E 25 b3 08 05
        E 25 b3 08 07
        E 25 b3 08 08
        E 25 b3 08 09
        E 25 b3 08 0b
        E 25 b3 08 0c
        E 25 b3 08 0e
        E 25 b3 08 0f
        E 25 b3 08 10
        E 25 b3 08 12
        E 25 b3 08 13
        E 25 b3 08 15
        E 25 b3 08 16
        E 25 b3 08 17
        E 25 b3 08 19
        E 25 b3 08 1a
        E 25 b3 08 1c
        E 25 b3 08 1d
        E 25 b3 08 1e
        E 25 b3 08 20
        E 25 b3 08 21
        E 25 b3 08 23
        E 25 b3 08 24
        E 25 b3 08 25
        E 25 b3 08 27
        E 25 b3 08 28
        E 25 b3 08 2a
        E 25 b3 08 2b
        E 25 b3 08 2c
        E 25 b3 08 2e
        E 25 b3 08 2f
        E 25 b3 08 31
        E 25 b3 08 32
        E 25 b3 08 33
        E 25 b3 08 35
        E 25 b3 08 36
        E 25 b3 08 38
        E 25 b3 08 39
        E 25 b3 08 3a
        E 25 b3 08 3c
        E 25 b3 08 3d
        E 25 b3 08 3e
        E 25 b3 08 40
        E 25 b3 08 41
        E 25 b3 08 43
        E 25 b3 08 44
        E 25 b3 08 46
        E 25 b3 08 47
        E 25 b3 08 48
        E 25 b3 08 4a
        E 25 b3 08 4b
        E 25 b3 08 4d
        E 25 b3 08 4e
        E 25 b3 08 4f
        E 25 b3 08 51
        E 25 b3 08 52
        E 25 b3 08 54
        E 25 b3 08 55
        E 25 b3 08 56
        E 25 b3 08 58
        E 25 b3 08 58
        E 25 b3 08 58
        E 25 b3 08 56
        E 25 b3 08 55
        E 25 b3 08 54
        E 25 b3 08 52
        E 25 b3 08 51
        E 25 b3 08 4f
        E 25 b3 08 4e
        E 25 b3 08 4d
        E 25 b3 08 4b
        E 25 b3 08 4a
        E 25 b3 08 48
        E 25 b3 08 47
        E 25 b3 08 46
        E 25 b3 08 44
        E 25 b3 08 43
        E 25 b3 08 41
        E 25 b3 08 40
        E 25 b3 08 3e
        E 25 b3 08 3d
        E 25 b3 08 3c
        E 25 b3 08 3a
        E 25 b3 08 39
        E 25 b3 08 38
        E 25 b3 08 36
        E 25 b3 08 35
        E 25 b3 08 33
        E 25 b3 08 32
        E 25 b3 08 31
        E 25 b3 08 2f
        E 25 b3 08 2e
        E 25 b3 08 2c
        E 25 b3 08 2b
        E 25 b3 08 2a
        E 25 b3 08 28
        E 25 b3 08 27
        E 25 b3 08 25
        E 25 b3 08 24
        E 25 b3 08 23
        E 25 b3 08 21
        E 25 b3 08 20
        E 25 b3 08 1e
        E 25 b3 08 1d
        E 25 b3 08 1c
        E 25 b3 08 1a
        E 25 b3 08 19
        E 25 b3 08 17
        E 25 b3 08 16
        E 25 b3 08 15
        E 25 b3 08 13
        E 25 b3 08 12
        E 25 b3 08 10
        E 25 b3 08 0f
        E 25 b3 08 0e
        E 25 b3 08 0c
        E 25 b3 08 0b
        E 25 b3 08 09
        E 25 b3 08 08
        E 25 b3 08 07
        E 25 b3 08 05
        E 25 b3 08 04
        E 25 b3 08 02
        E 25 b3 08 01
        E 25 b3 08 00
        E 62 b3 08 72
        E 62 b3 08 72
        E 62 b3 08 72
        E 62 b3 08 72
        E 62 b3 08 72
        E 62 b3 08 72
        E 62 b3 08 72
        E 62 b3 08 72
        E 62 b3 08 72
        E 62 b3 08 72
        E 62 b3 08 72
        E 62 b3 08 72
        E 62 b3 08 72
        E 62 b3 08 72
        E 62 b3 08 72
        E 62 b3 08 72
        E 62 b3 08 72
        E 62 b3 08 72
        E 62 b3 08 72
        E 62 b3 08 72
        E 62 b3 08 72
        E 62 b3 08 72
        E 62 b3 08 72
        E 62 b3 08 72
        E 62 b3 08 72
        E 62 b3 08 72
        E 62 b3 08 72
        E 62 b3 08 72
        E 62 b3 08 72
        E 62 b3 08 72
        E 62 b3 08 72
        E 62 b3 08 72
        E 62 b3 08 72
        E 62 b3 08 72
        E 62 b3 08 72
        E 62 b3 08 72
        E 62 b3 08 72
        E 62 b3 08 72
        E 62 b3 08 72
        E 62 b3 08 72
        E 62 b3 08 72
        E 62 b3 08 72
        E 62 b3 08 72
        E 62 b3 08 72
        E 62 b3 08 72
        E 62 b3 08 72
        E 62 b3 08 72
        E 62 b3 08 72
        E 62 b3 08 72
        E 62 b3 08 72
        E 62 b3 08 72
        E 62 b3 08 72
        E 62 b3 08 72
        E 62 b3 08 72
        E 62 b3 08 72
        E 62 b3 08 72
        E 62 b3 08 72
        E 62 b3 08 72
        E 62 b3 08 72
        E 62 b3 08 72
        E 62 b3 08 72
        E 62 b3 08 72
        E 62 b3 08 72
        E 62 b3 08 00
        E 62 b3 08 00
        E 62 b3 08 00
        E 62 b3 08 00
        E 62 b3 08 00
        E 62 b3 08 00
        E 62 b3 08 00
        E 62 b3 08 00
        E 62 b3 08 00
        E 62 b3 08 00
        E 62 b3 08 00
        E 62 b3 08 00
        E 62 b3 08 00
        E 62 b3 08 00
        E 62 b3 08 00
        E 62 b3 08 00
        E 62 b3 08 00
        E 62 b3 08 00
        E 62 b3 08 00
        E 62 b3 08 00
        E 62 b3 08 00
        E 62 b3 08 00
        E 62 b3 08 00
        E 62 b3 08 00
        E 62 b3 08 00
        E 62 b3 08 00
        E 62 b3 08 00
        E 62 b3 08 00
        E 62 b3 08 00
        E 62 b3 08 00
        E 62 b3 08 00
        E 62 b3 08 00
        E 62 b3 08 00
        E 62 b3 08 00
        E 62 b3 08 00
        E 62 b3 08 00
        E 62 b3 08 00
        E 62 b3 08 00
        E 62 b3 08 00
        E 62 b3 08 00
        E 62 b3 08 00
        E 62 b3 08 00
        E 62 b3 08 00
        E 62 b3 08 00
        E 62 b3 08 00
        E 62 b3 08 00
        E 62 b3 08 00
        E 62 b3 08 00
        E 62 b3 08 00
        E 62 b3 08 00
        E 62 b3 08 00
        E 62 b3 08 00
        E 62 b3 08 00
        E 62 b3 08 00
        E 62 b3 08 00
        E 62 b3 08 00
        E 62 b3 08 00
        E 62 b3 08 00
        E 62 b3 08 00
        E 62 b3 08 00
        E 62 b3 08 00
        E 62 b3 08 00
        E 62 b3 08 00
        E 62 b3 08 00
        E 7 b3 08 32
        E 7 b3 08 32
        E 7 b3 08 32
        E 7 b3 08 32
        E 7 b3 08 32
        E 7 b3 08 32
        E 7 b3 08 32
        E 7 b3 08 32
        E 7 b3 08 32
        E 7 b3 08 32
        E 7 b3 08 32
        E 7 b3 08 32
        E 7 b3 08 32
        E 7 b3 08 32
        E 7 b3 08 32
        E 7 b3 08 32
        E 7 b3 08 32
        E 7 b3 08 32
        E 7 b3 08 32
        E 7 b3 08 32
        E 7 b3 08 32
        E 7 b3 08 32
        E 7 b3 08 32
        E 7 b3 08 32
        E 7 b3 08 32
        E 7 b3 08 32
        E 7 b3 08 32
        E 7 b3 08 32
        E 7 b3 08 32
        E 7 b3 08 32
        E 7 b3 08 32
        E 7 b3 08 32
        E 7 b3 08 32
        E 7 b3 08 32
        E 7 b3 08 32
        E 7 b3 08 32
        E 7 b3 08 32
        E 7 b3 08 32
        E 7 b3 08 32
        E 7 b3 08 32
        E 7 b3 08 32
        E 7 b3 08 32
        E 7 b3 08 32
        E 7 b3 08 32
        E 7 b3 08 32
        E 7 b3 08 32
        E 7 b3 08 32
        E 7 b3 08 32
        E 7 b3 08 32
        E 7 b3 08 32
        E 7 b3 08 32
        E 7 b3 08 32
        E 7 b3 08 32
        E 7 b3 08 32
        E 7 b3 08 32
        E 7 b3 08 32
        E 7 b3 08 32
        E 7 b3 08 32
        E 7 b3 08 32
        E 7 b3 08 32
        E 7 b3 08 32
        E 7 b3 08 32
        E 7 b3 08 32
        E 7 b3 08 00
        E 7 b3 08 00
        E 7 b3 08 00
        E 7 b3 08 00
        E 7 b3 08 00
        E 7 b3 08 00
        E 7 b3 08 00
        E 7 b3 08 00
        E 7 b3 08 00
        E 7 b3 08 00
        E 7 b3 08 00
        E 7 b3 08 00
        E 7 b3 08 00
        E 7 b3 08 00
        E 7 b3 08 00
        E 7 b3 08 00
        E 7 b3 08 00
        E 7 b3 08 00
        E 7 b3 08 00
        E 7 b3 08 00
        E 7 b3 08 00
        E 7 b3 08 00
        E 7 b3 08 00
        E 7 b3 08 00
        E 7 b3 08 00
        E 7 b3 08 00
        E 7 b3 08 00
        E 7 b3 08 00
        E 7 b3 08 00
        E 7 b3 08 00
        E 7 b3 08 00
        E 7 b3 08 00
        E 7 b3 08 00
        E 7 b3 08 00
        E 7 b3 08 00
        E 7 b3 08 00
        E 7 b3 08 00
        E 7 b3 08 00
        E 7 b3 08 00
        E 7 b3 08 00
        E 7 b3 08 00
        E 7 b3 08 00
        E 7 b3 08 00
        E 7 b3 08 00
        E 7 b3 08 00
        E 7 b3 08 00
        E 7 b3 08 00
        E 7 b3 08 00
        E 7 b3 08 00
        E 7 b3 08 00
        E 7 b3 08 00
        E 7 b3 08 00
        E 7 b3 08 00
        E 7 b3 08 00
        E 7 b3 08 00
        E 7 b3 08 00
        E 7 b3 08 00
        E 7 b3 08 00
        E 7 b3 08 00
        E 7 b3 08 00
        E 7 b3 08 00
        E 7 b3 08 00
        E 7 b3 08 00
        E 7 b3 08 00
        E 70 b3 08 0c
        E 70 b3 08 0c
        E 70 b3 08 0c
        E 70 b3 08 0c
        E 70 b3 08 0c
        E 70 b3 08 0c
        E 70 b3 08 0c
        E 70 b3 08 0c
        E 70 b3 08 0c
        E 70 b3 08 0c
        E 70 b3 08 0c
        E 70 b3 08 0c
        E 70 b3 08 0c
        E 70 b3 08 0c
        E 70 b3 08 0c
        E 70 b3 08 0c
        E 70 b3 08 0c
        E 70 b3 08 0c
        E 70 b3 08 0c
        E 70 b3 08 0c
        E 70 b3 08 0c
        E 70 b3 08 0c
        E 70 b3 08 0c
        E 70 b3 08 0c
        E 70 b3 08 0c
        E 70 b3 08 0c
        E 70 b3 08 0c
        E 70 b3 08 0c
        E 70 b3 08 0c
        E 70 b3 08 0c
        E 70 b3 08 0c
        E 70 b3 08 0c
        E 70 b3 08 0c
        E 70 b3 08 0c
        E 70 b3 08 0c
        E 70 b3 08 0c
        E 70 b3 08 0c
        E 70 b3 08 0c
        E 70 b3 08 0c
        E 70 b3 08 0c
        E 70 b3 08 0c
        E 70 b3 08 0c
        E 70 b3 08 0c
        E 70 b3 08 0c
        E 70 b3 08 0c
        E 70 b3 08 0c
        E 70 b3 08 0c
        E 70 b3 08 0c
        E 70 b3 08 0c
        E 70 b3 08 0c
        E 70 b3 08 0c
        E 70 b3 08 0c
        E 70 b3 08 0c
        E 70 b3 08 0c
        E 70 b3 08 0c
        E 70 b3 08 0c
        E 70 b3 08 0c
        E 70 b3 08 0c
        E 70 b3 08 0c
        E 70 b3 08 0c
        E 70 b3 08 0c
        E 70 b3 08 0c
        E 70 b3 08 0c
        E 70 b3 08 00
        E 70 b3 08 00
        E 70 b3 08 00
        E 70 b3 08 00
        E 70 b3 08 00
        E 70 b3 08 00
        E 70 b3 08 00
        E 70 b3 08 00
        E 70 b3 08 00
        E 70 b3 08 00
        E 70 b3 08 00
        E 70 b3 08 00
        E 70 b3 08 00
        E 70 b3 08 00
        E 70 b3 08 00
        E 70 b3 08 00
        E 70 b3 08 00
        E 70 b3 08 00
        E 70 b3 08 00
        E 70 b3 08 00
        E 70 b3 08 00
        E 70 b3 08 00
        E 70 b3 08 00
        E 70 b3 08 00
        E 70 b3 08 00
        E 70 b3 08 00
        E 70 b3 08 00
        E 70 b3 08 00
        E 70 b3 08 00
        E 70 b3 08 00
        E 70 b3 08 00
        E 70 b3 08 00
        E 70 b3 08 00
        E 70 b3 08 00
        E 70 b3 08 00
        E 70 b3 08 00
        E 70 b3 08 00
        E 70 b3 08 00
        E 70 b3 08 00
        E 70 b3 08 00
        E 70 b3 08 00
        E 70 b3 08 00
        E 70 b3 08 00
        E 70 b3 08 00
        E 70 b3 08 00
        E 70 b3 08 00
        E 70 b3 08 00
        E 70 b3 08 00
        E 70 b3 08 00
        E 70 b3 08 00
        E 70 b3 08 00
        E 70 b3 08 00
        E 70 b3 08 00
        E 70 b3 08 00
        E 70 b3 08 00
        E 70 b3 08 00
        E 70 b3 08 00
        E 70 b3 08 00
        E 70 b3 08 00
        E 70 b3 08 00
        E 70 b3 08 00
        E 70 b3 08 00
        E 70 b3 08 00
        E 70 b3 08 00
        E 62 b3 08 58
        E 62 b3 08 58
        E 62 b3 08 58
        E 62 b3 08 58
        E 62 b3 08 58
        E 62 b3 08 58
        E 62 b3 08 58
        E 62 b3 08 58
        E 62 b3 08 58
        E 62 b3 08 58
        E 62 b3 08 58
        E 62 b3 08 58
        E 62 b3 08 58
        E 62 b3 08 58
        E 62 b3 08 58
        E 62 b3 08 58
        E 62 b3 08 58
        E 62 b3 08 58
        E 62 b3 08 58
        E 62 b3 08 58
        E 62 b3 08 58
        E 62 b3 08 58
        E 62 b3 08 58
        E 62 b3 08 58
        E 62 b3 08 58
        E 62 b3 08 58
        E 62 b3 08 58
        E 62 b3 08 58
        E 62 b3 08 58
        E 62 b3 08 58
        E 62 b3 08 58
        E 62 b3 08 58
        E 62 b3 08 58
        E 62 b3 08 58
        E 62 b3 08 58
        E 62 b3 08 58
        E 62 b3 08 58
        E 62 b3 08 58
        E 62 b3 08 58
        E 62 b3 08 58
        E 62 b3 08 58
        E 62 b3 08 58
        E 62 b3 08 58
        E 62 b3 08 58
        E 62 b3 08 58
        E 62 b3 08 58
        E 62 b3 08 58
        E 62 b3 08 58
        E 62 b3 08 58
        E 62 b3 08 58
        E 62 b3 08 58
        E 62 b3 08 58
        E 62 b3 08 58
        E 62 b3 08 58
        E 62 b3 08 58
        E 62 b3 08 58
        E 62 b3 08 58
        E 62 b3 08 58
        E 62 b3 08 58
        E 62 b3 08 58
        E 62 b3 08 58
        E 62 b3 08 58
        E 62 b3 08 58
        E 62 b3 08 00
        E 62 b3 08 00
        E 62 b3 08 00
        E 62 b3 08 00
        E 62 b3 08 00
        E 62 b3 08 00
        E 62 b3 08 00
        E 62 b3 08 00
        E 62 b3 08 00
        E 62 b3 08 00
        E 62 b3 08 00
        E 62 b3 08 00
        E 62 b3 08 00
        E 62 b3 08 00
        E 62 b3 08 00
        E 62 b3 08 00
        E 62 b3 08 00
        E 62 b3 08 00
        E 62 b3 08 00
        E 62 b3 08 00
        E 62 b3 08 00
        E 62 b3 08 00
        E 62 b3 08 00
        E 62 b3 08 00
        E 62 b3 08 00
        E 62 b3 08 00
        E 62 b3 08 00
        E 62 b3 08 00
        E 62 b3 08 00
        E 62 b3 08 00
        E 62 b3 08 00
        E 62 b3 08 00
        E 62 b3 08 00
        E 62 b3 08 00
        E 62 b3 08 00
        E 62 b3 08 00
        E 62 b3 08 00
        E 62 b3 08 00
        E 62 b3 08 00
        E 62 b3 08 00
        E 62 b3 08 00
        E 62 b3 08 00
        E 62 b3 08 00
        E 62 b3 08 00
        E 62 b3 08 00
        E 62 b3 08 00
        E 62 b3 08 00
        E 62 b3 08 00
        E 62 b3 08 00
        E 62 b3 08 00
        E 62 b3 08 00
        E 62 b3 08 00
        E 62 b3 08 00
        E 62 b3 08 00
        E 62 b3 08 00
        E 62 b3 08 00
        E 62 b3 08 00
        E 62 b3 08 00
        E 62 b3 08 00
        E 62 b3 08 00
        E 62 b3 08 00
        E 62 b3 08 00
        E 62 b3 08 00
        E 62 b3 08 00
        E 70 b3 08 26
        E 70 b3 08 26
        E 70 b3 08 26
        E 70 b3 08 26
        E 70 b3 08 26
        E 70 b3 08 26
        E 70 b3 08 26
        E 70 b3 08 26
        E 70 b3 08 26
        E 70 b3 08 26
        E 70 b3 08 26
        E 70 b3 08 26
        E 70 b3 08 26
        E 70 b3 08 26
        E 70 b3 08 26
        E 70 b3 08 26
        E 70 b3 08 26
        E 70 b3 08 26
        E 70 b3 08 26
        E 70 b3 08 26
        E 70 b3 08 26
        E 70 b3 08 26
        E 70 b3 08 26
        E 70 b3 08 26
        E 70 b3 08 26
        E 70 b3 08 26
        E 70 b3 08 26
        E 70 b3 08 26
        E 70 b3 08 26
        E 70 b3 08 26
        E 70 b3 08 26
        E 70 b3 08 26
        E 70 b3 08 26
        E 70 b3 08 26
        E 70 b3 08 26
        E 70 b3 08 26
        E 70 b3 08 26
        E 70 b3 08 26
        E 70 b3 08 26
        E 70 b3 08 26
        E 70 b3 08 26
        E 70 b3 08 26
        E 70 b3 08 26
        E 70 b3 08 26
        E 70 b3 08 26
        E 70 b3 08 26
        E 70 b3 08 26
        E 70 b3 08 26
        E 70 b3 08 26
        E 70 b3 08 26
        E 70 b3 08 26
        E 70 b3 08 26
        E 70 b3 08 26
        E 70 b3 08 26
        E 70 b3 08 26
        E 70 b3 08 26
        E 70 b3 08 26
        E 70 b3 08 26
        E 70 b3 08 26
        E 70 b3 08 26
        E 70 b3 08 26
        E 70 b3 08 26
        E 70 b3 08 26
        E 70 b3 08 00
        E 70 b3 08 00
        E 70 b3 08 00
        E 70 b3 08 00
        E 70 b3 08 00
        E 70 b3 08 00
        E 70 b3 08 00
        E 70 b3 08 00
        E 70 b3 08 00
        E 70 b3 08 00
        E 70 b3 08 00
        E 70 b3 08 00
        E 70 b3 08 00
        E 70 b3 08 00
        E 70 b3 08 00
        E 70 b3 08 00
        E 70 b3 08 00
        E 70 b3 08 00
        E 70 b3 08 00
        E 70 b3 08 00
        E 70 b3 08 00
        E 70 b3 08 00
        E 70 b3 08 00
        E 70 b3 08 00
        E 70 b3 08 00
        E 70 b3 08 00
        E 70 b3 08 00
        E 70 b3 08 00
        E 70 b3 08 00
        E 70 b3 08 00
        E 70 b3 08 00
        E 70 b3 08 00
        E 70 b3 08 00
        E 70 b3 08 00
        E 70 b3 08 00
        E 70 b3 08 00
        E 70 b3 08 00
        E 70 b3 08 00
        E 70 b3 08 00
        E 70 b3 08 00
        E 70 b3 08 00
        E 70 b3 08 00
        E 70 b3 08 00
        E 70 b3 08 00
        E 70 b3 08 00
        E 70 b3 08 00
        E 70 b3 08 00
        E 70 b3 08 00
        E 70 b3 08 00
        E 70 b3 08 00
        E 70 b3 08 00
        E 70 b3 08 00
        E 70 b3 08 00
        E 70 b3 08 00
        E 70 b3 08 00
        E 70 b3 08 00
        E 70 b3 08 00
        E 70 b3 08 00
        E 70 b3 08 00
        E 70 b3 08 00
        E 70 b3 08 00
        E 70 b3 08 00
        E 70 b3 08 00
        E 70 b3 08 00
        E 23 b3 08 4c
        E 23 b3 08 4c
        E 23 b3 08 4c
        E 23 b3 08 4c
        E 23 b3 08 4c
        E 23 b3 08 4c
        E 23 b3 08 4c
        E 23 b3 08 4c
        E 23 b3 08 4c
        E 23 b3 08 4c
        E 23 b3 08 4c
        E 23 b3 08 4c
        E 23 b3 08 4c
        E 23 b3 08 4c
        E 23 b3 08 4c
        E 23 b3 08 4c
        E 23 b3 08 4c
        E 23 b3 08 4c
        E 23 b3 08 4c
        E 23 b3 08 4c
        E 23 b3 08 4c
        E 23 b3 08 4c
        E 23 b3 08 4c
        E 23 b3 08 4c
        E 23 b3 08 4c
        E 23 b3 08 4c
        E 23 b3 08 4c
        E 23 b3 08 4c
        E 23 b3 08 4c
        E 23 b3 08 4c
        E 23 b3 08 4c
        E 23 b3 08 4c
        E 23 b3 08 4c
        E 23 b3 08 4c
        E 23 b3 08 4c
        E 23 b3 08 4c
        E 23 b3 08 4c
        E 23 b3 08 4c
        E 23 b3 08 4c
        E 23 b3 08 4c
        E 23 b3 08 4c
        E 23 b3 08 4c
        E 23 b3 08 4c
        E 23 b3 08 4c
        E 23 b3 08 4c
        E 23 b3 08 4c
        E 23 b3 08 4c
        E 23 b3 08 4c
        E 23 b3 08 4c
        E 23 b3 08 4c
        E 23 b3 08 4c
        E 23 b3 08 4c
        E 23 b3 08 4c
        E 23 b3 08 4c
        E 23 b3 08 4c
        E 23 b3 08 4c
        E 23 b3 08 4c
        E 23 b3 08 4c
        E 23 b3 08 4c
        E 23 b3 08 4c
        E 23 b3 08 4c
        E 23 b3 08 4c
        E 23 b3 08 4c
        E 23 b3 08 00
        E 23 b3 08 00
        E 23 b3 08 00
        E 23 b3 08 00
        E 23 b3 08 00
        E 23 b3 08 00
        E 23 b3 08 00
        E 23 b3 08 00
        E 23 b3 08 00
        E 23 b3 08 00
        E 23 b3 08 00
        E 23 b3 08 00
        E 23 b3 08 00
        E 23 b3 08 00
        E 23 b3 08 00
        E 23 b3 08 00
        E 23 b3 08 00
        E 23 b3 08 00
        E 23 b3 08 00
        E 23 b3 08 00
        E 23 b3 08 00
        E 23 b3 08 00
        E 23 b3 08 00
        E 23 b3 08 00
        E 23 b3 08 00
        E 23 b3 08 00
        E 23 b3 08 00
        E 23 b3 08 00
        E 23 b3 08 00
        E 23 b3 08 00
        E 23 b3 08 00
        E 23 b3 08 00
        E 23 b3 08 00
        E 23 b3 08 00
        E 23 b3 08 00
        E 23 b3 08 00
        E 23 b3 08 00
        E 23 b3 08 00
        E 23 b3 08 00
        E 23 b3 08 00
        E 23 b3 08 00
        E 23 b3 08 00
        E 23 b3 08 00
        E 23 b3 08 00
        E 23 b3 08 00
        E 23 b3 08 00
        E 23 b3 08 00
        E 23 b3 08 00
        E 23 b3 08 00
        E 23 b3 08 00
        E 23 b3 08 00
        E 23 b3 08 00
        E 23 b3 08 00
        E 23 b3 08 00
        E 23 b3 08 00
        E 23 b3 08 00
        E 23 b3 08 00
        E 23 b3 08 00
        E 23 b3 08 00
        E 23 b3 08 00
        E 23 b3 08 00
        E 23 b3 08 00
        E 23 b3 08 00
        E 23 b3 08 00
        E 62 b3 08 72
        E 62 b3 08 72
        E 62 b3 08 72
        E 62 b3 08 72
        E 62 b3 08 72
        E 62 b3 08 72
        E 62 b3 08 72
        E 62 b3 08 72
        E 62 b3 08 72
        E 62 b3 08 72
        E 62 b3 08 72
        E 62 b3 08 72
        E 62 b3 08 72
        E 62 b3 08 72
        E 62 b3 08 72
        E 62 b3 08 72
        E 62 b3 08 72
        E 62 b3 08 72
        E 62 b3 08 72
        E 62 b3 08 72
        E 62 b3 08 72
        E 62 b3 08 72
        E 62 b3 08 72
        E 62 b3 08 72
        E 62 b3 08 72
        E 62 b3 08 72
        E 62 b3 08 72
        E 62 b3 08 72
        E 62 b3 08 72
        E 62 b3 08 72
        E 62 b3 08 72
        E 62 b3 08 72
        E 62 b3 08 72
        E 62 b3 08 72
        E 62 b3 08 72
        E 62 b3 08 72
        E 62 b3 08 72
        E 62 b3 08 72
        E 62 b3 08 72
        E 62 b3 08 72
        E 62 b3 08 72
        E 62 b3 08 72
        E 62 b3 08 72
        E 62 b3 08 72
        E 62 b3 08 72
        E 62 b3 08 72
        E 62 b3 08 72
        E 62 b3 08 72
        E 62 b3 08 72
        E 62 b3 08 72
        E 62 b3 08 72
        E 62 b3 08 72
        E 62 b3 08 72
        E 62 b3 08 72
        E 62 b3 08 72
        E 62 b3 08 72
        E 62 b3 08 72
        E 62 b3 08 72
        E 62 b3 08 72
        E 62 b3 08 72
        E 62 b3 08 72
        E 62 b3 08 72
        E 62 b3 08 72
        E 62 b3 08 00
        E 62 b3 08 00
        E 62 b3 08 00
        E 62 b3 08 00
        E 62 b3 08 00
        E 62 b3 08 00
        E 62 b3 08 00
        E 62 b3 08 00
        E 62 b3 08 00
        E 62 b3 08 00
        E 62 b3 08 00
        E 62 b3 08 00
        E 62 b3 08 00
        E 62 b3 08 00
        E 62 b3 08 00
        E 62 b3 08 00
        E 62 b3 08 00
        E 62 b3 08 00
        E 62 b3 08 00
        E 62 b3 08 00
        E 62 b3 08 00
        E 62 b3 08 00
        E 62 b3 08 00
        E 62 b3 08 00
        E 62 b3 08 00
        E 62 b3 08 00
        E 62 b3 08 00
        E 62 b3 08 00
        E 62 b3 08 00
        E 62 b3 08 00
        E 62 b3 08 00
        E 62 b3 08 00
        E 62 b3 08 00
        E 62 b3 08 00
        E 62 b3 08 00
        E 62 b3 08 00
        E 62 b3 08 00
        E 62 b3 08 00
        E 62 b3 08 00
        E 62 b3 08 00
        E 62 b3 08 00
        E 62 b3 08 00
        E 62 b3 08 00
        E 62 b3 08 00
        E 62 b3 08 00
        E 62 b3 08 00
        E 62 b3 08 00
        E 62 b3 08 00
        E 62 b3 08 00
        E 62 b3 08 00
        E 62 b3 08 00
        E 62 b3 08 00
        E 62 b3 08 00
        E 62 b3 08 00
        E 62 b3 08 00
        E 62 b3 08 00
        E 62 b3 08 00
        E 62 b3 08 00
        E 62 b3 08 00
        E 62 b3 08 00
        E 62 b3 08 00
        E 62 b3 08 00
        E 62 b3 08 00
        E 62 b3 08 00
        E 7 b3 08 32
        E 7 b3 08 32
        E 7 b3 08 32
        E 7 b3 08 32
        E 7 b3 08 32
        E 7 b3 08 32
        E 7 b3 08 32
        E 7 b3 08 32
        E 7 b3 08 32
        E 7 b3 08 32
        E 7 b3 08 32
        E 7 b3 08 32
        E 7 b3 08 32
        E 7 b3 08 32
        E 7 b3 08 32
        E 7 b3 08 32
        E 7 b3 08 32
        E 7 b3 08 32
        E 7 b3 08 32
        E 7 b3 08 32
        E 7 b3 08 32
        E 7 b3 08 32
        E 7 b3 08 32
        E 7 b3 08 32
        E 7 b3 08 32
        E 7 b3 08 32
        E 7 b3 08 32
        E 7 b3 08 32
        E 7 b3 08 32
        E 7 b3 08 32
        E 7 b3 08 32
        E 7 b3 08 32
        E 7 b3 08 32
        E 7 b3 08 32
        E 7 b3 08 32
        E 7 b3 08 32
        E 7 b3 08 32
        E 7 b3 08 32
        E 7 b3 08 32
        E 7 b3 08 32
        E 7 b3 08 32
        E 7 b3 08 32
        E 7 b3 08 32
        E 7 b3 08 32
        E 7 b3 08 32
        E 7 b3 08 32
        E 7 b3 08 32
        E 7 b3 08 32
        E 7 b3 08 32
        E 7 b3 08 32
        E 7 b3 08 32
        E 7 b3 08 32
        E 7 b3 08 32
        E 7 b3 08 32
        E 7 b3 08 32
        E 7 b3 08 32
        E 7 b3 08 32
        E 7 b3 08 32
        E 7 b3 08 32
        E 7 b3 08 32
        E 7 b3 08 32
        E 7 b3 08 32
        E 7 b3 08 32
        E 7 b3 08 00
        E 7 b3 08 00
        E 7 b3 08 00
        E 7 b3 08 00
        E 7 b3 08 00
        E 7 b3 08 00
        E 7 b3 08 00
        E 7 b3 08 00
        E 7 b3 08 00
        E 7 b3 08 00
        E 7 b3 08 00
        E 7 b3 08 00
        E 7 b3 08 00
        E 7 b3 08 00
        E 7 b3 08 00
        E 7 b3 08 00
        E 7 b3 08 00
        E 7 b3 08 00
        E 7 b3 08 00
        E 7 b3 08 00
        E 7 b3 08 00
        E 7 b3 08 00
        E 7 b3 08 00
        E 7 b3 08 00
        E 7 b3 08 00
        E 7 b3 08 00
        E 7 b3 08 00
        E 7 b3 08 00
        E 7 b3 08 00
        E 7 b3 08 00
        E 7 b3 08 00
        E 7 b3 08 00
        E 7 b3 08 00
        E 7 b3 08 00
        E 7 b3 08 00
        E 7 b3 08 00
        E 7 b3 08 00
        E 7 b3 08 00
        E 7 b3 08 00
        E 7 b3 08 00
        E 7 b3 08 00
        E 7 b3 08 00
        E 7 b3 08 00
        E 7 b3 08 00
        E 7 b3 08 00
        E 7 b3 08 00
        E 7 b3 08 00
        E 7 b3 08 00
        E 7 b3 08 00
        E 7 b3 08 00
        E 7 b3 08 00
        E 7 b3 08 00
        E 7 b3 08 00
        E 7 b3 08 00
        E 7 b3 08 00
        E 7 b3 08 00
        E 7 b3 08 00
        E 7 b3 08 00
        E 7 b3 08 00
        E 7 b3 08 00
        E 7 b3 08 00
        E 7 b3 08 00
        E 7 b3 08 00
        E 7 b3 08 00
        E 70 b3 08 0c
        E 70 b3 08 0c
        E 70 b3 08 0c
        E 70 b3 08 0c
        E 70 b3 08 0c
        E 70 b3 08 0c
        E 70 b3 08 0c
        E 70 b3 08 0c
        E 70 b3 08 0c
        E 70 b3 08 0c
        E 70 b3 08 0c
        E 70 b3 08 0c
        E 70 b3 08 0c
        E 70 b3 08 0c
        E 70 b3 08 0c
        E 70 b3 08 0c
        E 70 b3 08 0c
        E 70 b3 08 0c
        E 70 b3 08 0c
        E 70 b3 08 0c
        E 70 b3 08 0c
        E 70 b3 08 0c
        E 70 b3 08 0c
        E 70 b3 08 0c
        E 70 b3 08 0c
        E 70 b3 08 0c
        E 70 b3 08 0c
        E 70 b3 08 0c
        E 70 b3 08 0c
        E 70 b3 08 0c
        E 70 b3 08 0c
        E 70 b3 08 0c
        E 70 b3 08 0c
        E 70 b3 08 0c
        E 70 b3 08 0c
        E 70 b3 08 0c
        E 70 b3 08 0c
        E 70 b3 08 0c
        E 70 b3 08 0c
        E 70 b3 08 0c
        E 70 b3 08 0c
        E 70 b3 08 0c
        E 70 b3 08 0c
        E 70 b3 08 0c
        E 70 b3 08 0c
        E 70 b3 08 0c
        E 70 b3 08 0c
        E 70 b3 08 0c
        E 70 b3 08 0c
        E 70 b3 08 0c
        E 70 b3 08 0c
        E 70 b3 08 0c
        E 70 b3 08 0c
        E 70 b3 08 0c
        E 70 b3 08 0c
        E 70 b3 08 0c
        E 70 b3 08 0c
        E 70 b3 08 0c
        E 70 b3 08 0c
        E 70 b3 08 0c
        E 70 b3 08 0c
        E 70 b3 08 0c
        E 70 b3 08 0c
        E 70 b3 08 00
        E 70 b3 08 00
        E 70 b3 08 00
        E 70 b3 08 00
        E 70 b3 08 00
        E 70 b3 08 00
        E 70 b3 08 00
        E 70 b3 08 00
        E 70 b3 08 00
        E 70 b3 08 00
        E 70 b3 08 00
        E 70 b3 08 00
        E 70 b3 08 00
        E 70 b3 08 00
        E 70 b3 08 00
        E 70 b3 08 00
        E 70 b3 08 00
        E 70 b3 08 00
        E 70 b3 08 00
        E 70 b3 08 00
        E 70 b3 08 00
        E 70 b3 08 00
        E 70 b3 08 00
        E 70 b3 08 00
        E 70 b3 08 00
        E 70 b3 08 00
        E 70 b3 08 00
        E 70 b3 08 00
        E 70 b3 08 00
        E 70 b3 08 00
        E 70 b3 08 00
        E 70 b3 08 00
        E 70 b3 08 00
        E 70 b3 08 00
        E 70 b3 08 00
        E 70 b3 08 00
        E 70 b3 08 00
        E 70 b3 08 00
        E 70 b3 08 00
        E 70 b3 08 00
        E 70 b3 08 00
        E 70 b3 08 00
        E 70 b3 08 00
        E 70 b3 08 00
        E 70 b3 08 00
        E 70 b3 08 00
        E 70 b3 08 00
        E 70 b3 08 00
        E 70 b3 08 00
        E 70 b3 08 00
        E 70 b3 08 00
        E 70 b3 08 00
        E 70 b3 08 00
        E 70 b3 08 00
        E 70 b3 08 00
        E 70 b3 08 00
        E 70 b3 08 00
        E 70 b3 08 00
        E 70 b3 08 00
        E 70 b3 08 00
        E 70 b3 08 00
        E 70 b3 08 00
        E 70 b3 08 00
        E 70 b3 08 00
        E 62 b3 08 58
        E 62 b3 08 58
        E 62 b3 08 58
        E 62 b3 08 58
        E 62 b3 08 58
        E 62 b3 08 58
        E 62 b3 08 58
        E 62 b3 08 58
        E 62 b3 08 58
        E 62 b3 08 58
        E 62 b3 08 58
        E 62 b3 08 58
        E 62 b3 08 58
        E 62 b3 08 58
        E 62 b3 08 58
        E 62 b3 08 58
        E 62 b3 08 58
        E 62 b3 08 58
        E 62 b3 08 58
        E 62 b3 08 58
        E 62 b3 08 58
        E 62 b3 08 58
        E 62 b3 08 58
        E 62 b3 08 58
        E 62 b3 08 58
        E 62 b3 08 58
        E 62 b3 08 58
        E 62 b3 08 58
        E 62 b3 08 58
        E 62 b3 08 58
        E 62 b3 08 58
        E 62 b3 08 58
        E 62 b3 08 58
        E 62 b3 08 58
        E 62 b3 08 58
        E 62 b3 08 58
        E 62 b3 08 58
        E 62 b3 08 58
        E 62 b3 08 58
        E 62 b3 08 58
        E 62 b3 08 58
        E 62 b3 08 58
        E 62 b3 08 58
        E 62 b3 08 58
        E 62 b3 08 58
        E 62 b3 08 58
        E 62 b3 08 58
        E 62 b3 08 58
        E 62 b3 08 58
        E 62 b3 08 58
        E 62 b3 08 58
        E 62 b3 08 58
        E 62 b3 08 58
        E 62 b3 08 58
        E 62 b3 08 58
        E 62 b3 08 58
        E 62 b3 08 58
        E 62 b3 08 58
        E 62 b3 08 58
        E 62 b3 08 58
        E 62 b3 08 58
        E 62 b3 08 58
        E 62 b3 08 58
        E 62 b3 08 00
        E 62 b3 08 00
        E 62 b3 08 00
        E 62 b3 08 00
        E 62 b3 08 00
        E 62 b3 08 00
        E 62 b3 08 00
        E 62 b3 08 00
        E 62 b3 08 00
        E 62 b3 08 00
        E 62 b3 08 00
        E 62 b3 08 00
        E 62 b3 08 00
        E 62 b3 08 00
        E 62 b3 08 00
        E 62 b3 08 00
        E 62 b3 08 00
        E 62 b3 08 00
        E 62 b3 08 00
        E 62 b3 08 00
        E 62 b3 08 00
        E 62 b3 08 00
        E 62 b3 08 00
        E 62 b3 08 00
        E 62 b3 08 00
        E 62 b3 08 00
        E 62 b3 08 00
        E 62 b3 08 00
        E 62 b3 08 00
        E 62 b3 08 00
        E 62 b3 08 00
        E 62 b3 08 00
        E 62 b3 08 00
        E 62 b3 08 00
        E 62 b3 08 00
        E 62 b3 08 00
        E 62 b3 08 00
        E 62 b3 08 00
        E 62 b3 08 00
        E 62 b3 08 00
        E 62 b3 08 00
        E 62 b3 08 00
        E 62 b3 08 00
        E 62 b3 08 00
        E 62 b3 08 00
        E 62 b3 08 00
        E 62 b3 08 00
        E 62 b3 08 00
        E 62 b3 08 00
        E 62 b3 08 00
        E 62 b3 08 00
        E 62 b3 08 00
        E 62 b3 08 00
        E 62 b3 08 00
        E 62 b3 08 00
        E 62 b3 08 00
        E 62 b3 08 00
        E 62 b3 08 00
        E 62 b3 08 00
        E 62 b3 08 00
        E 62 b3 08 00
        E 62 b3 08 00
        E 62 b3 08 00
        E 62 b3 08 00
        E 70 b3 08 26
        E 70 b3 08 26
        E 70 b3 08 26
        E 70 b3 08 26
        E 70 b3 08 26
        E 70 b3 08 26
        E 70 b3 08 26
        E 70 b3 08 26
        E 70 b3 08 26
        E 70 b3 08 26
        E 70 b3 08 26
        E 70 b3 08 26
        E 70 b3 08 26
        E 70 b3 08 26
        E 70 b3 08 26
        E 70 b3 08 26
        E 70 b3 08 26
        E 70 b3 08 26
        E 70 b3 08 26
        E 70 b3 08 26
        E 70 b3 08 26
        E 70 b3 08 26
        E 70 b3 08 26
        E 70 b3 08 26
        E 70 b3 08 26
        E 70 b3 08 26
        E 70 b3 08 26
        E 70 b3 08 26
        E 70 b3 08 26
        E 70 b3 08 26
        E 70 b3 08 26
        E 70 b3 08 26
        E 70 b3 08 26
        E 70 b3 08 26
        E 70 b3 08 26
        E 70 b3 08 26
        E 70 b3 08 26
        E 70 b3 08 26
        E 70 b3 08 26
        E 70 b3 08 26
        E 70 b3 08 26
        E 70 b3 08 26
        E 70 b3 08 26
        E 70 b3 08 26
        E 70 b3 08 26
        E 70 b3 08 26
        E 70 b3 08 26
        E 70 b3 08 26
        E 70 b3 08 26
        E 70 b3 08 26
        E 70 b3 08 26
        E 70 b3 08 26
        E 70 b3 08 26
        E 70 b3 08 26
        E 70 b3 08 26
        E 70 b3 08 26
        E 70 b3 08 26
        E 70 b3 08 26
        E 70 b3 08 26
        E 70 b3 08 26
        E 70 b3 08 26
        E 70 b3 08 26
        E 70 b3 08 26
        E 70 b3 08 00
        E 70 b3 08 00
        E 70 b3 08 00
        E 70 b3 08 00
        E 70 b3 08 00
        E 70 b3 08 00
        E 70 b3 08 00
        E 70 b3 08 00
        E 70 b3 08 00
        E 70 b3 08 00
        E 70 b3 08 00
        E 70 b3 08 00
        E 70 b3 08 00
        E 70 b3 08 00
        E 70 b3 08 00
        E 70 b3 08 00
        E 70 b3 08 00
        E 70 b3 08 00
        E 70 b3 08 00
        E 70 b3 08 00
        E 70 b3 08 00
        E 70 b3 08 00
        E 70 b3 08 00
        E 70 b3 08 00
        E 70 b3 08 00
        E 70 b3 08 00
        E 70 b3 08 00
        E 70 b3 08 00
        E 70 b3 08 00
        E 70 b3 08 00
        E 70 b3 08 00
        E 70 b3 08 00
        E 70 b3 08 00
        E 70 b3 08 00
        E 70 b3 08 00
        E 70 b3 08 00
        E 70 b3 08 00
        E 70 b3 08 00
        E 70 b3 08 00
        E 70 b3 08 00
        E 70 b3 08 00
        E 70 b3 08 00
        E 70 b3 08 00
        E 70 b3 08 00
        E 70 b3 08 00
        E 70 b3 08 00
        E 70 b3 08 00
        E 70 b3 08 00
        E 70 b3 08 00
        E 70 b3 08 00
        E 70 b3 08 00
        E 70 b3 08 00
        E 70 b3 08 00
        E 70 b3 08 00
        E 70 b3 08 00
        E 70 b3 08 00
        E 70 b3 08 00
        E 70 b3 08 00
        E 70 b3 08 00
        E 70 b3 08 00
        E 70 b3 08 00
        E 70 b3 08 00
        E 70 b3 08 00
        E 70 b3 08 00
        E 23 b3 08 4c
        E 23 b3 08 4c
        E 23 b3 08 4c
        E 23 b3 08 4c
        E 23 b3 08 4c
        E 23 b3 08 4c
        E 23 b3 08 4c
        E 23 b3 08 4c
        E 23 b3 08 4c
        E 23 b3 08 4c
        E 23 b3 08 4c
        E 23 b3 08 4c
        E 23 b3 08 4c
        E 23 b3 08 4c
        E 23 b3 08 4c
        E 23 b3 08 4c
        E 23 b3 08 4c
        E 23 b3 08 4c
        E 23 b3 08 4c
        E 23 b3 08 4c
        E 23 b3 08 4c
        E 23 b3 08 4c
        E 23 b3 08 4c
        E 23 b3 08 4c
        E 23 b3 08 4c
        E 23 b3 08 4c
        E 23 b3 08 4c
        E 23 b3 08 4c
        E 23 b3 08 4c
        E 23 b3 08 4c
        E 23 b3 08 4c
        E 23 b3 08 4c
        E 23 b3 08 4c
        E 23 b3 08 4c
        E 23 b3 08 4c
        E 23 b3 08 4c
        E 23 b3 08 4c
        E 23 b3 08 4c
        E 23 b3 08 4c
        E 23 b3 08 4c
        E 23 b3 08 4c
        E 23 b3 08 4c
        E 23 b3 08 4c
        E 23 b3 08 4c
        E 23 b3 08 4c
        E 23 b3 08 4c
        E 23 b3 08 4c
        E 23 b3 08 4c
        E 23 b3 08 4c
        E 23 b3 08 4c
        E 23 b3 08 4c
        E 23 b3 08 4c
        E 23 b3 08 4c
        E 23 b3 08 4c
        E 23 b3 08 4c
        E 23 b3 08 4c
        E 23 b3 08 4c
        E 23 b3 08 4c
        E 23 b3 08 4c
        E 23 b3 08 4c
        E 23 b3 08 4c
        E 23 b3 08 4c
        E 23 b3 08 4c
        E 23 b3 08 00
        E 23 b3 08 00
        E 23 b3 08 00
        E 23 b3 08 00
        E 23 b3 08 00
        E 23 b3 08 00
        E 23 b3 08 00
        E 23 b3 08 00
        E 23 b3 08 00
        E 23 b3 08 00
        E 23 b3 08 00
        E 23 b3 08 00
        E 23 b3 08 00
        E 23 b3 08 00
        E 23 b3 08 00
        E 23 b3 08 00
        E 23 b3 08 00
        E 23 b3 08 00
        E 23 b3 08 00
        E 23 b3 08 00
        E 23 b3 08 00
        E 23 b3 08 00
        E 23 b3 08 00
        E 23 b3 08 00
        E 23 b3 08 00
        E 23 b3 08 00
        E 23 b3 08 00
        E 23 b3 08 00
        E 23 b3 08 00
        E 23 b3 08 00
        E 23 b3 08 00
        E 23 b3 08 00
        E 23 b3 08 00
        E 23 b3 08 00
        E 23 b3 08 00
        E 23 b3 08 00
        E 23 b3 08 00
        E 23 b3 08 00
        E 23 b3 08 00
        E 23 b3 08 00
        E 23 b3 08 00
        E 23 b3 08 00
        E 23 b3 08 00
        E 23 b3 08 00
        E 23 b3 08 00
        E 23 b3 08 00
        E 23 b3 08 00
        E 23 b3 08 00
        E 23 b3 08 00
        E 23 b3 08 00
        E 23 b3 08 00
        E 23 b3 08 00
        E 23 b3 08 00
        E 23 b3 08 00
        E 23 b3 08 00
        E 23 b3 08 00
        E 23 b3 08 00
        E 23 b3 08 00
        E 23 b3 08 00
        E 23 b3 08 00
        E 23 b3 08 00
        E 23 b3 08 00
        E 23 b3 08 00
        E 23 b3 08 00
        E 62 b3 08 72
        E 62 b3 08 72
        E 62 b3 08 72
        E 62 b3 08 72
        E 62 b3 08 72
        E 62 b3 08 72
        E 62 b3 08 72
        E 62 b3 08 72
        E 62 b3 08 72
        E 62 b3 08 72
        E 62 b3 08 72
        E 62 b3 08 72
        E 62 b3 08 72
        E 62 b3 08 72
        E 62 b3 08 72
        E 62 b3 08 72
        E 62 b3 08 72
        E 62 b3 08 72
        E 62 b3 08 72
        E 62 b3 08 72
        E 62 b3 08 72
        E 62 b3 08 72
        E 62 b3 08 72
        E 62 b3 08 72
        E 62 b3 08 72
        E 62 b3 08 72
        E 62 b3 08 72
        E 62 b3 08 72
        E 62 b3 08 72
        E 62 b3 08 72
        E 62 b3 08 72
        E 62 b3 08 72
        E 62 b3 08 72
        E 62 b3 08 72
        E 62 b3 08 72
        E 62 b3 08 72
        E 62 b3 08 72
        E 62 b3 08 72
        E 62 b3 08 72
        E 62 b3 08 72
        E 62 b3 08 72
        E 62 b3 08 72
        E 62 b3 08 72
        E 62 b3 08 72
        E 62 b3 08 72
        E 62 b3 08 72
        E 62 b3 08 72
        E 62 b3 08 72
        E 62 b3 08 72
        E 62 b3 08 72
        E 62 b3 08 72
        E 62 b3 08 72
        E 62 b3 08 72
        E 62 b3 08 72
        E 62 b3 08 72
        E 62 b3 08 72
        E 62 b3 08 72
        E 62 b3 08 72
        E 62 b3 08 72
        E 62 b3 08 72
        E 62 b3 08 72
        E 62 b3 08 72
        E 62 b3 08 72
        E 62 b3 08 00
        E 62 b3 08 00
        E 62 b3 08 00
        E 62 b3 08 00
        E 62 b3 08 00
        E 62 b3 08 00
        E 62 b3 08 00
        E 62 b3 08 00
        E 62 b3 08 00
        E 62 b3 08 00
        E 62 b3 08 00
        E 62 b3 08 00
        E 62 b3 08 00
        E 62 b3 08 00
        E 62 b3 08 00
        E 62 b3 08 00
        E 62 b3 08 00
        E 62 b3 08 00
        E 62 b3 08 00
        E 62 b3 08 00
        E 62 b3 08 00
        E 62 b3 08 00
        E 62 b3 08 00
        E 62 b3 08 00
        E 62 b3 08 00
        E 62 b3 08 00
        E 62 b3 08 00
        E 62 b3 08 00
        E 62 b3 08 00
        E 62 b3 08 00
        E 62 b3 08 00
        E 62 b3 08 00
        E 62 b3 08 00
        E 62 b3 08 00
        E 62 b3 08 00
        E 62 b3 08 00
        E 62 b3 08 00
        E 62 b3 08 00
        E 62 b3 08 00
        E 62 b3 08 00
        E 62 b3 08 00
        E 62 b3 08 00
        E 62 b3 08 00
        E 62 b3 08 00
        E 62 b3 08 00
        E 62 b3 08 00
        E 62 b3 08 00
        E 62 b3 08 00
        E 62 b3 08 00
        E 62 b3 08 00
        E 62 b3 08 00
        E 62 b3 08 00
        E 62 b3 08 00
        E 62 b3 08 00
        E 62 b3 08 00
        E 62 b3 08 00
        E 62 b3 08 00
        E 62 b3 08 00
        E 62 b3 08 00
        E 62 b3 08 00
        E 62 b3 08 00
        E 62 b3 08 00
        E 62 b3 08 00
        E 62 b3 08 00
        E 7 b3 08 32
        E 7 b3 08 32
        E 7 b3 08 32
        E 7 b3 08 32
        E 7 b3 08 32
        E 7 b3 08 32
        E 7 b3 08 32
        E 7 b3 08 32
        E 7 b3 08 32
        E 7 b3 08 32
        E 7 b3 08 32
        E 7 b3 08 32
        E 7 b3 08 32
        E 7 b3 08 32
        E 7 b3 08 32
        E 7 b3 08 32
        E 7 b3 08 32
        E 7 b3 08 32
        E 7 b3 08 32
        E 7 b3 08 32
        E 7 b3 08 32
        E 7 b3 08 32
        E 7 b3 08 32
        E 7 b3 08 32
        E 7 b3 08 32
        E 7 b3 08 32
        E 7 b3 08 32
        E 7 b3 08 32
        E 7 b3 08 32
        E 7 b3 08 32
        E 7 b3 08 32
        E 7 b3 08 32
        E 7 b3 08 32
        E 7 b3 08 32
        E 7 b3 08 32
        E 7 b3 08 32
        E 7 b3 08 32
        E 7 b3 08 32
        E 7 b3 08 32
        E 7 b3 08 32
        E 7 b3 08 32
        E 7 b3 08 32
        E 7 b3 08 32
        E 7 b3 08 32
        E 7 b3 08 32
        E 7 b3 08 32
        E 7 b3 08 32
        E 7 b3 08 32
        E 7 b3 08 32
        E 7 b3 08 32
        E 7 b3 08 32
        E 7 b3 08 32
        E 7 b3 08 32
        E 7 b3 08 32
        E 7 b3 08 32
        E 7 b3 08 32
        E 7 b3 08 32
        E 7 b3 08 32
        E 7 b3 08 32
        E 7 b3 08 32
        E 7 b3 08 32
        E 7 b3 08 32
        E 7 b3 08 32
        E 7 b3 08 00
        E 7 b3 08 00
        E 7 b3 08 00
        E 7 b3 08 00
        E 7 b3 08 00
        E 7 b3 08 00
        E 7 b3 08 00
        E 7 b3 08 00
        E 7 b3 08 00
        E 7 b3 08 00
        E 7 b3 08 00
        E 7 b3 08 00
        E 7 b3 08 00
        E 7 b3 08 00
        E 7 b3 08 00
        E 7 b3 08 00
        E 7 b3 08 00
        E 7 b3 08 00
        E 7 b3 08 00
        E 7 b3 08 00
        E 7 b3 08 00
        E 7 b3 08 00
        E 7 b3 08 00
        E 7 b3 08 00
        E 7 b3 08 00
        E 7 b3 08 00
        E 7 b3 08 00
        E 7 b3 08 00
        E 7 b3 08 00
        E 7 b3 08 00
        E 7 b3 08 00
        E 7 b3 08 00
        E 7 b3 08 00
        E 7 b3 08 00
        E 7 b3 08 00
        E 7 b3 08 00
        E 7 b3 08 00
        E 7 b3 08 00
        E 7 b3 08 00
        E 7 b3 08 00
        E 7 b3 08 00
        E 7 b3 08 00
        E 7 b3 08 00
        E 7 b3 08 00
        E 7 b3 08 00
        E 7 b3 08 00
        E 7 b3 08 00
        E 7 b3 08 00
        E 7 b3 08 00
        E 7 b3 08 00
        E 7 b3 08 00
        E 7 b3 08 00
        E 7 b3 08 00
        E 7 b3 08 00
        E 7 b3 08 00
        E 7 b3 08 00
        E 7 b3 08 00
        E 7 b3 08 00
        E 7 b3 08 00
        E 7 b3 08 00
        E 7 b3 08 00
        E 7 b3 08 00
        E 7 b3 08 00
        E 7 b3 08 00
        E 71 b3 08 13
        E 71 b3 08 14
        E 71 b3 08 15
        E 71 b3 08 15
        E 71 b3 08 16
        E 71 b3 08 17
        E 71 b3 08 18
        E 71 b3 08 19
        E 71 b3 08 1a
        E 71 b3 08 1b
        E 71 b3 08 1c
        E 71 b3 08 1c
        E 71 b3 08 1d
        E 71 b3 08 1e
        E 71 b3 08 1f
        E 71 b3 08 1f
        E 71 b3 08 20
        E 71 b3 08 21
        E 71 b3 08 21
        E 71 b3 08 22
        E 71 b3 08 23
        E 71 b3 08 23
        E 71 b3 08 24
        E 71 b3 08 24
        E 71 b3 08 24
        E 71 b3 08 24
        E 71 b3 08 25
        E 71 b3 08 25
        E 71 b3 08 25
        E 71 b3 08 25
        E 71 b3 08 26
        E 71 b3 08 26
        E 71 b3 08 26
        E 71 b3 08 26
        E 71 b3 08 26
        E 71 b3 08 25
        E 71 b3 08 25
        E 71 b3 08 25
        E 71 b3 08 25
        E 71 b3 08 24
        E 71 b3 08 24
        E 71 b3 08 24
        E 71 b3 08 23
        E 71 b3 08 23
        E 71 b3 08 22
        E 71 b3 08 22
        E 71 b3 08 21
        E 71 b3 08 21
        E 71 b3 08 20
        E 71 b3 08 1f
        E 71 b3 08 1e
        E 71 b3 08 1e
        E 71 b3 08 1d
        E 71 b3 08 1c
        E 71 b3 08 1b
        E 71 b3 08 1a
        E 71 b3 08 1a
        E 71 b3 08 19
        E 71 b3 08 18
        E 71 b3 08 17
        E 71 b3 08 16
        E 71 b3 08 15
        E 71 b3 08 14
        E 71 b3 08 13
        E 71 b3 08 12
        E 71 b3 08 11
        E 71 b3 08 10
        E 71 b3 08 0f
        E 71 b3 08 0e
        E 71 b3 08 0d
        E 71 b3 08 0c
        E 71 b3 08 0c
        E 71 b3 08 0b
        E 71 b3 08 0a
        E 71 b3 08 09
        E 71 b3 08 08
        E 71 b3 08 08
        E 71 b3 08 07
        E 71 b3 08 06
        E 71 b3 08 05
        E 71 b3 08 05
        E 71 b3 08 04
        E 71 b3 08 03
        E 71 b3 08 03
        E 71 b3 08 03
        E 71 b3 08 02
        E 71 b3 08 02
        E 71 b3 08 01
        E 71 b3 08 01
        E 71 b3 08 00
        E 71 b3 08 00
        E 71 b3 08 00
        E 71 b3 08 00
        E 71 b3 08 00
        E 71 b3 08 00
        E 71 b3 08 00
        E 71 b3 08 00
        E 71 b3 08 00
        E 71 b3 08 00
        E 71 b3 08 00
        E 71 b3 08 00
        E 71 b3 08 00
        E 71 b3 08 01
        E 71 b3 08 01
        E 71 b3 08 01
        E 71 b3 08 02
        E 71 b3 08 02
        E 71 b3 08 03
        E 71 b3 08 03
        E 71 b3 08 04
        E 71 b3 08 04
        E 71 b3 08 05
        E 71 b3 08 06
        E 71 b3 08 06
        E 71 b3 08 07
        E 71 b3 08 08
        E 71 b3 08 09
        E 71 b3 08 09
        E 71 b3 08 0a
        E 71 b3 08 0b
        E 71 b3 08 0c
        E 71 b3 08 0d
        E 71 b3 08 0e
        E 71 b3 08 0f
        E 71 b3 08 10
        E 71 b3 08 11
        E 71 b3 08 12
        E 71 b3 08 13
        E 23 b3 08 26
        E 23 b3 08 28
        E 23 b3 08 2a
        E 23 b3 08 2b
        E 23 b3 08 2d
        E 23 b3 08 2f
        E 23 b3 08 31
        E 23 b3 08 33
        E 23 b3 08 34
        E 23 b3 08 36
        E 23 b3 08 38
        E 23 b3 08 39
        E 23 b3 08 3b
        E 23 b3 08 3d
        E 23 b3 08 3e
        E 23 b3 08 3f
        E 23 b3 08 41
        E 23 b3 08 42
        E 23 b3 08 43
        E 23 b3 08 45
        E 23 b3 08 46
        E 23 b3 08 46
        E 23 b3 08 48
        E 23 b3 08 48
        E 23 b3 08 49
        E 23 b3 08 49
        E 23 b3 08 4a
        E 23 b3 08 4b
        E 23 b3 08 4b
        E 23 b3 08 4b
        E 23 b3 08 4c
        E 23 b3 08 4c
        E 23 b3 08 4c
        E 23 b3 08 4c
        E 23 b3 08 4c
        E 23 b3 08 4b
        E 23 b3 08 4b
        E 23 b3 08 4b
        E 23 b3 08 4a
        E 23 b3 08 49
        E 23 b3 08 49
        E 23 b3 08 48
        E 23 b3 08 47
        E 23 b3 08 46
        E 23 b3 08 45
        E 23 b3 08 44
        E 23 b3 08 43
        E 23 b3 08 42
        E 23 b3 08 40
        E 23 b3 08 3f
        E 23 b3 08 3d
        E 23 b3 08 3c
        E 23 b3 08 3a
        E 23 b3 08 39
        E 23 b3 08 37
        E 23 b3 08 35
        E 23 b3 08 34
        E 23 b3 08 32
        E 23 b3 08 30
        E 23 b3 08 2e
        E 23 b3 08 2c
        E 23 b3 08 2a
        E 23 b3 08 28
        E 23 b3 08 27
        E 23 b3 08 25
        E 23 b3 08 23
        E 23 b3 08 21
        E 23 b3 08 1f
        E 23 b3 08 1d
        E 23 b3 08 1b
        E 23 b3 08 19
        E 23 b3 08 18
        E 23 b3 08 16
        E 23 b3 08 15
        E 23 b3 08 13
        E 23 b3 08 11
        E 23 b3 08 10
        E 23 b3 08 0e
        E 23 b3 08 0d
        E 23 b3 08 0b
        E 23 b3 08 0a
        E 23 b3 08 09
        E 23 b3 08 07
        E 23 b3 08 06
        E 23 b3 08 06
        E 23 b3 08 04
        E 23 b3 08 04
        E 23 b3 08 03
        E 23 b3 08 02
        E 23 b3 08 01
        E 23 b3 08 01
        E 23 b3 08 00
        E 23 b3 08 00
        E 23 b3 08 00
        E 23 b3 08 00
        E 23 b3 08 00
        E 23 b3 08 00
        E 23 b3 08 00
        E 23 b3 08 00
        E 23 b3 08 00
        E 23 b3 08 01
        E 23 b3 08 01
        E 23 b3 08 02
        E 23 b3 08 03
        E 23 b3 08 03
        E 23 b3 08 04
        E 23 b3 08 05
        E 23 b3 08 06
        E 23 b3 08 07
        E 23 b3 08 08
        E 23 b3 08 09
        E 23 b3 08 0a
        E 23 b3 08 0c
        E 23 b3 08 0d
        E 23 b3 08 0f
        E 23 b3 08 10
        E 23 b3 08 12
        E 23 b3 08 13
        E 23 b3 08 15
        E 23 b3 08 17
        E 23 b3 08 19
        E 23 b3 08 1b
        E 23 b3 08 1c
        E 23 b3 08 1e
        E 23 b3 08 20
        E 23 b3 08 22
        E 23 b3 08 24
        E 23 b3 08 26
        E 63 b3 08 39
        E 63 b3 08 3c
        E 63 b3 08 3f
        E 63 b3 08 41
        E 63 b3 08 44
        E 63 b3 08 47
        E 63 b3 08 49
        E 63 b3 08 4c
        E 63 b3 08 4f
        E 63 b3 08 51
        E 63 b3 08 54
        E 63 b3 08 56
        E 63 b3 08 59
        E 63 b3 08 5b
        E 63 b3 08 5d
        E 63 b3 08 5f
        E 63 b3 08 62
        E 63 b3 08 63
        E 63 b3 08 65
        E 63 b3 08 67
        E 63 b3 08 69
        E 63 b3 08 6a
        E 63 b3 08 6c
        E 63 b3 08 6c
        E 63 b3 08 6d
        E 63 b3 08 6e
        E 63 b3 08 6f
        E 63 b3 08 70
        E 63 b3 08 71
        E 63 b3 08 71
        E 63 b3 08 72
        E 63 b3 08 72
        E 63 b3 08 72
        E 63 b3 08 72
        E 63 b3 08 72
        E 63 b3 08 71
        E 63 b3 08 71
        E 63 b3 08 70
        E 63 b3 08 6f
        E 63 b3 08 6e
        E 63 b3 08 6d
        E 63 b3 08 6c
        E 63 b3 08 6b
        E 63 b3 08 69
        E 63 b3 08 68
        E 63 b3 08 66
        E 63 b3 08 64
        E 63 b3 08 63
        E 63 b3 08 61
        E 63 b3 08 5e
        E 63 b3 08 5c
        E 63 b3 08 5a
        E 63 b3 08 58
        E 63 b3 08 55
        E 63 b3 08 52
        E 63 b3 08 50
        E 63 b3 08 4e
        E 63 b3 08 4b
        E 63 b3 08 48
        E 63 b3 08 46
        E 63 b3 08 42
        E 63 b3 08 3f
        E 63 b3 08 3d
        E 63 b3 08 3a
        E 63 b3 08 37
        E 63 b3 08 35
        E 63 b3 08 32
        E 63 b3 08 2f
        E 63 b3 08 2c
        E 63 b3 08 29
        E 63 b3 08 26
        E 63 b3 08 24
        E 63 b3 08 22
        E 63 b3 08 1f
        E 63 b3 08 1c
        E 63 b3 08 1a
        E 63 b3 08 18
        E 63 b3 08 15
        E 63 b3 08 13
        E 63 b3 08 11
        E 63 b3 08 0f
        E 63 b3 08 0d
        E 63 b3 08 0b
        E 63 b3 08 09
        E 63 b3 08 09
        E 63 b3 08 07
        E 63 b3 08 06
        E 63 b3 08 04
        E 63 b3 08 03
        E 63 b3 08 02
        E 63 b3 08 01
        E 63 b3 08 00
        E 63 b3 08 00
        E 63 b3 08 00
        E 63 b3 08 00
        E 63 b3 08 00
        E 63 b3 08 00
        E 63 b3 08 00
        E 63 b3 08 00
        E 63 b3 08 00
        E 63 b3 08 01
        E 63 b3 08 02
        E 63 b3 08 03
        E 63 b3 08 04
        E 63 b3 08 05
        E 63 b3 08 06
        E 63 b3 08 08
        E 63 b3 08 09
        E 63 b3 08 0a
        E 63 b3 08 0c
        E 63 b3 08 0e
        E 63 b3 08 10
        E 63 b3 08 12
        E 63 b3 08 14
        E 63 b3 08 16
        E 63 b3 08 19
        E 63 b3 08 1b
        E 63 b3 08 1d
        E 63 b3 08 20
        E 63 b3 08 23
        E 63 b3 08 25
        E 63 b3 08 28
        E 63 b3 08 2b
        E 63 b3 08 2d
        E 63 b3 08 30
        E 63 b3 08 33
        E 63 b3 08 36
        E 63 b3 08 39
        E 7 b3 08 19
        E 7 b3 08 1a
        E 7 b3 08 1c
        E 7 b3 08 1d
        E 7 b3 08 1e
        E 7 b3 08 1f
        E 7 b3 08 20
        E 7 b3 08 22
        E 7 b3 08 23
        E 7 b3 08 24
        E 7 b3 08 25
        E 7 b3 08 26
        E 7 b3 08 27
        E 7 b3 08 28
        E 7 b3 08 29
        E 7 b3 08 2a
        E 7 b3 08 2b
        E 7 b3 08 2c
        E 7 b3 08 2d
        E 7 b3 08 2e
        E 7 b3 08 2e
        E 7 b3 08 2f
        E 7 b3 08 30
        E 7 b3 08 30
        E 7 b3 08 30
        E 7 b3 08 31
        E 7 b3 08 31
        E 7 b3 08 32
        E 7 b3 08 32
        E 7 b3 08 32
        E 7 b3 08 32
        E 7 b3 08 32
        E 7 b3 08 32
        E 7 b3 08 32
        E 7 b3 08 32
        E 7 b3 08 32
        E 7 b3 08 32
        E 7 b3 08 32
        E 7 b3 08 31
        E 7 b3 08 31
        E 7 b3 08 30
        E 7 b3 08 30
        E 7 b3 08 2f
        E 7 b3 08 2e
        E 7 b3 08 2e
        E 7 b3 08 2d
        E 7 b3 08 2c
        E 7 b3 08 2c
        E 7 b3 08 2b
        E 7 b3 08 2a
        E 7 b3 08 29
        E 7 b3 08 28
        E 7 b3 08 27
        E 7 b3 08 26
        E 7 b3 08 24
        E 7 b3 08 23
        E 7 b3 08 22
        E 7 b3 08 21
        E 7 b3 08 20
        E 7 b3 08 1f
        E 7 b3 08 1d
        E 7 b3 08 1c
        E 7 b3 08 1b
        E 7 b3 08 1a
        E 7 b3 08 18
        E 7 b3 08 17
        E 7 b3 08 16
        E 7 b3 08 15
        E 7 b3 08 13
        E 7 b3 08 12
        E 7 b3 08 11
        E 7 b3 08 10
        E 7 b3 08 0f
        E 7 b3 08 0e
        E 7 b3 08 0c
        E 7 b3 08 0b
        E 7 b3 08 0a
        E 7 b3 08 09
        E 7 b3 08 08
        E 7 b3 08 07
        E 7 b3 08 06
        E 7 b3 08 06
        E 7 b3 08 05
        E 7 b3 08 04
        E 7 b3 08 04
        E 7 b3 08 03
        E 7 b3 08 02
        E 7 b3 08 02
        E 7 b3 08 01
        E 7 b3 08 01
        E 7 b3 08 00
        E 7 b3 08 00
        E 7 b3 08 00
        E 7 b3 08 00
        E 7 b3 08 00
        E 7 b3 08 00
        E 7 b3 08 00
        E 7 b3 08 00
        E 7 b3 08 00
        E 7 b3 08 00
        E 7 b3 08 00
        E 7 b3 08 01
        E 7 b3 08 01
        E 7 b3 08 02
        E 7 b3 08 02
        E 7 b3 08 02
        E 7 b3 08 03
        E 7 b3 08 04
        E 7 b3 08 04
        E 7 b3 08 05
        E 7 b3 08 06
        E 7 b3 08 07
        E 7 b3 08 08
        E 7 b3 08 09
        E 7 b3 08 0a
        E 7 b3 08 0b
        E 7 b3 08 0c
        E 7 b3 08 0d
        E 7 b3 08 0e
        E 7 b3 08 0f
        E 7 b3 08 10
        E 7 b3 08 12
        E 7 b3 08 13
        E 7 b3 08 14
        E 7 b3 08 15
        E 7 b3 08 16
        E 7 b3 08 18
        E 7 b3 08 19
        E 71 b3 08 06
        E 71 b3 08 06
        E 71 b3 08 07
        E 71 b3 08 07
        E 71 b3 08 07
        E 71 b3 08 07
        E 71 b3 08 08
        E 71 b3 08 08
        E 71 b3 08 08
        E 71 b3 08 09
        E 71 b3 08 09
        E 71 b3 08 09
        E 71 b3 08 09
        E 71 b3 08 0a
        E 71 b3 08 0a
        E 71 b3 08 0a
        E 71 b3 08 0a
        E 71 b3 08 0b
        E 71 b3 08 0b
        E 71 b3 08 0b
        E 71 b3 08 0b
        E 71 b3 08 0b
        E 71 b3 08 0c
        E 71 b3 08 0c
        E 71 b3 08 0c
        E 71 b3 08 0c
        E 71 b3 08 0c
        E 71 b3 08 0c
        E 71 b3 08 0c
        E 71 b3 08 0c
        E 71 b3 08 0c
        E 71 b3 08 0c
        E 71 b3 08 0c
        E 71 b3 08 0c
        E 71 b3 08 0c
        E 71 b3 08 0c
        E 71 b3 08 0c
        E 71 b3 08 0c
        E 71 b3 08 0c
        E 71 b3 08 0c
        E 71 b3 08 0c
        E 71 b3 08 0c
        E 71 b3 08 0b
        E 71 b3 08 0b
        E 71 b3 08 0b
        E 71 b3 08 0b
        E 71 b3 08 0b
        E 71 b3 08 0b
        E 71 b3 08 0a
        E 71 b3 08 0a
        E 71 b3 08 0a
        E 71 b3 08 0a
        E 71 b3 08 09
        E 71 b3 08 09
        E 71 b3 08 09
        E 71 b3 08 08
        E 71 b3 08 08
        E 71 b3 08 08
        E 71 b3 08 08
        E 71 b3 08 07
        E 71 b3 08 07
        E 71 b3 08 07
        E 71 b3 08 06
        E 71 b3 08 06
        E 71 b3 08 06
        E 71 b3 08 05
        E 71 b3 08 05
        E 71 b3 08 05
        E 71 b3 08 04
        E 71 b3 08 04
        E 71 b3 08 04
        E 71 b3 08 04
        E 71 b3 08 03
        E 71 b3 08 03
        E 71 b3 08 03
        E 71 b3 08 02
        E 71 b3 08 02
        E 71 b3 08 02
        E 71 b3 08 02
        E 71 b3 08 01
        E 71 b3 08 01
        E 71 b3 08 01
        E 71 b3 08 01
        E 71 b3 08 01
        E 71 b3 08 01
        E 71 b3 08 00
        E 71 b3 08 00
        E 71 b3 08 00
        E 71 b3 08 00
        E 71 b3 08 00
        E 71 b3 08 00
        E 71 b3 08 00
        E 71 b3 08 00
        E 71 b3 08 00
        E 71 b3 08 00
        E 71 b3 08 00
        E 71 b3 08 00
        E 71 b3 08 00
        E 71 b3 08 00
        E 71 b3 08 00
        E 71 b3 08 00
        E 71 b3 08 00
        E 71 b3 08 00
        E 71 b3 08 00
        E 71 b3 08 00
        E 71 b3 08 00
        E 71 b3 08 00
        E 71 b3 08 01
        E 71 b3 08 01
        E 71 b3 08 01
        E 71 b3 08 01
        E 71 b3 08 01
        E 71 b3 08 02
        E 71 b3 08 02
        E 71 b3 08 02
        E 71 b3 08 02
        E 71 b3 08 03
        E 71 b3 08 03
        E 71 b3 08 03
        E 71 b3 08 03
        E 71 b3 08 04
        E 71 b3 08 04
        E 71 b3 08 04
        E 71 b3 08 05
        E 71 b3 08 05
        E 71 b3 08 05
        E 71 b3 08 06
        E 71 b3 08 06
        E 63 b3 08 2c
        E 63 b3 08 2e
        E 63 b3 08 31
        E 63 b3 08 33
        E 63 b3 08 35
        E 63 b3 08 37
        E 63 b3 08 39
        E 63 b3 08 3b
        E 63 b3 08 3d
        E 63 b3 08 3f
        E 63 b3 08 41
        E 63 b3 08 43
        E 63 b3 08 45
        E 63 b3 08 47
        E 63 b3 08 48
        E 63 b3 08 4a
        E 63 b3 08 4c
        E 63 b3 08 4d
        E 63 b3 08 4f
        E 63 b3 08 50
        E 63 b3 08 51
        E 63 b3 08 52
        E 63 b3 08 54
        E 63 b3 08 54
        E 63 b3 08 55
        E 63 b3 08 56
        E 63 b3 08 56
        E 63 b3 08 57
        E 63 b3 08 58
        E 63 b3 08 58
        E 63 b3 08 58
        E 63 b3 08 58
        E 63 b3 08 58
        E 63 b3 08 58
        E 63 b3 08 58
        E 63 b3 08 58
        E 63 b3 08 58
        E 63 b3 08 57
        E 63 b3 08 56
        E 63 b3 08 56
        E 63 b3 08 55
        E 63 b3 08 54
        E 63 b3 08 53
        E 63 b3 08 51
        E 63 b3 08 51
        E 63 b3 08 4f
        E 63 b3 08 4e
        E 63 b3 08 4d
        E 63 b3 08 4b
        E 63 b3 08 49
        E 63 b3 08 48
        E 63 b3 08 46
        E 63 b3 08 44
        E 63 b3 08 42
        E 63 b3 08 40
        E 63 b3 08 3e
        E 63 b3 08 3c
        E 63 b3 08 3a
        E 63 b3 08 38
        E 63 b3 08 36
        E 63 b3 08 33
        E 63 b3 08 31
        E 63 b3 08 2f
        E 63 b3 08 2d
        E 63 b3 08 2b
        E 63 b3 08 29
        E 63 b3 08 27
        E 63 b3 08 25
        E 63 b3 08 22
        E 63 b3 08 20
        E 63 b3 08 1e
        E 63 b3 08 1c
        E 63 b3 08 1a
        E 63 b3 08 18
        E 63 b3 08 16
        E 63 b3 08 14
        E 63 b3 08 12
        E 63 b3 08 10
        E 63 b3 08 0f
        E 63 b3 08 0d
        E 63 b3 08 0b
        E 63 b3 08 0a
        E 63 b3 08 09
        E 63 b3 08 07
        E 63 b3 08 07
        E 63 b3 08 05
        E 63 b3 08 04
        E 63 b3 08 03
        E 63 b3 08 02
        E 63 b3 08 02
        E 63 b3 08 01
        E 63 b3 08 00
        E 63 b3 08 00
        E 63 b3 08 00
        E 63 b3 08 00
        E 63 b3 08 00
        E 63 b3 08 00
        E 63 b3 08 00
        E 63 b3 08 00
        E 63 b3 08 00
        E 63 b3 08 01
        E 63 b3 08 02
        E 63 b3 08 02
        E 63 b3 08 03
        E 63 b3 08 04
        E 63 b3 08 04
        E 63 b3 08 06
        E 63 b3 08 07
        E 63 b3 08 08
        E 63 b3 08 09
        E 63 b3 08 0b
        E 63 b3 08 0c
        E 63 b3 08 0e
        E 63 b3 08 10
        E 63 b3 08 11
        E 63 b3 08 13
        E 63 b3 08 15
        E 63 b3 08 17
        E 63 b3 08 19
        E 63 b3 08 1b
        E 63 b3 08 1d
        E 63 b3 08 1f
        E 63 b3 08 21
        E 63 b3 08 23
        E 63 b3 08 25
        E 63 b3 08 27
        E 63 b3 08 2a
        E 63 b3 08 2c
        E 71 b3 08 13
        E 71 b3 08 14
        E 71 b3 08 15
        E 71 b3 08 15
        E 71 b3 08 16
        E 71 b3 08 17
        E 71 b3 08 18
        E 71 b3 08 19
        E 71 b3 08 1a
        E 71 b3 08 1b
        E 71 b3 08 1c
        E 71 b3 08 1c
        E 71 b3 08 1d
        E 71 b3 08 1e
        E 71 b3 08 1f
        E 71 b3 08 1f
        E 71 b3 08 20
        E 71 b3 08 21
        E 71 b3 08 21
        E 71 b3 08 22
        E 71 b3 08 23
        E 71 b3 08 23
        E 71 b3 08 24
        E 71 b3 08 24
        E 71 b3 08 24
        E 71 b3 08 24
        E 71 b3 08 25
        E 71 b3 08 25
        E 71 b3 08 25
        E 71 b3 08 25
        E 71 b3 08 26
        E 71 b3 08 26
        E 71 b3 08 26
        E 71 b3 08 26
        E 71 b3 08 26
        E 71 b3 08 25
        E 71 b3 08 25
        E 71 b3 08 25
        E 71 b3 08 25
        E 71 b3 08 24
        E 71 b3 08 24
        E 71 b3 08 24
        E 71 b3 08 23
        E 71 b3 08 23
        E 71 b3 08 22
        E 71 b3 08 22
        E 71 b3 08 21
        E 71 b3 08 21
        E 71 b3 08 20
        E 71 b3 08 1f
        E 71 b3 08 1e
        E 71 b3 08 1e
        E 71 b3 08 1d
        E 71 b3 08 1c
        E 71 b3 08 1b
        E 71 b3 08 1a
        E 71 b3 08 1a
        E 71 b3 08 19
        E 71 b3 08 18
        E 71 b3 08 17
        E 71 b3 08 16
        E 71 b3 08 15
        E 71 b3 08 14
        E 71 b3 08 13
        E 71 b3 08 12
        E 71 b3 08 11
        E 71 b3 08 10
        E 71 b3 08 0f
        E 71 b3 08 0e
        E 71 b3 08 0d
        E 71 b3 08 0c
        E 71 b3 08 0c
        E 71 b3 08 0b
        E 71 b3 08 0a
        E 71 b3 08 09
        E 71 b3 08 08
        E 71 b3 08 08
        E 71 b3 08 07
        E 71 b3 08 06
        E 71 b3 08 05
        E 71 b3 08 05
        E 71 b3 08 04
        E 71 b3 08 03
        E 71 b3 08 03
        E 71 b3 08 03
        E 71 b3 08 02
        E 71 b3 08 02
        E 71 b3 08 01
        E 71 b3 08 01
        E 71 b3 08 00
        E 71 b3 08 00
        E 71 b3 08 00
        E 71 b3 08 00
        E 71 b3 08 00
        E 71 b3 08 00
        E 71 b3 08 00
        E 71 b3 08 00
        E 71 b3 08 00
        E 71 b3 08 00
        E 71 b3 08 00
        E 71 b3 08 00
        E 71 b3 08 00
        E 71 b3 08 01
        E 71 b3 08 01
        E 71 b3 08 01
        E 71 b3 08 02
        E 71 b3 08 02
        E 71 b3 08 03
        E 71 b3 08 03
        E 71 b3 08 04
        E 71 b3 08 04
        E 71 b3 08 05
        E 71 b3 08 06
        E 71 b3 08 06
        E 71 b3 08 07
        E 71 b3 08 08
        E 71 b3 08 09
        E 71 b3 08 09
        E 71 b3 08 0a
        E 71 b3 08 0b
        E 71 b3 08 0c
        E 71 b3 08 0d
        E 71 b3 08 0e
        E 71 b3 08 0f
        E 71 b3 08 10
        E 71 b3 08 11
        E 71 b3 08 12
        E 71 b3 08 13
        E 23 b3 08 26
        E 23 b3 08 28
        E 23 b3 08 2a
        E 23 b3 08 2b
        E 23 b3 08 2d
        E 23 b3 08 2f
        E 23 b3 08 31
        E 23 b3 08 33
        E 23 b3 08 34
        E 23 b3 08 36
        E 23 b3 08 38
        E 23 b3 08 39
        E 23 b3 08 3b
        E 23 b3 08 3d
        E 23 b3 08 3e
        E 23 b3 08 3f
        E 23 b3 08 41
        E 23 b3 08 42
        E 23 b3 08 43
        E 23 b3 08 45
        E 23 b3 08 46
        E 23 b3 08 46
        E 23 b3 08 48
        E 23 b3 08 48
        E 23 b3 08 49
        E 23 b3 08 49
        E 23 b3 08 4a
        E 23 b3 08 4b
        E 23 b3 08 4b
        E 23 b3 08 4b
        E 23 b3 08 4c
        E 23 b3 08 4c
        E 23 b3 08 4c
        E 23 b3 08 4c
        E 23 b3 08 4c
        E 23 b3 08 4b
        E 23 b3 08 4b
        E 23 b3 08 4b
        E 23 b3 08 4a
        E 23 b3 08 49
        E 23 b3 08 49
        E 23 b3 08 48
        E 23 b3 08 47
        E 23 b3 08 46
        E 23 b3 08 45
        E 23 b3 08 44
        E 23 b3 08 43
        E 23 b3 08 42
        E 23 b3 08 40
        E 23 b3 08 3f
        E 23 b3 08 3d
        E 23 b3 08 3c
        E 23 b3 08 3a
        E 23 b3 08 39
        E 23 b3 08 37
        E 23 b3 08 35
        E 23 b3 08 34
        E 23 b3 08 32
        E 23 b3 08 30
        E 23 b3 08 2e
        E 23 b3 08 2c
        E 23 b3 08 2a
        E 23 b3 08 28
        E 23 b3 08 27
        E 23 b3 08 25
        E 23 b3 08 23
        E 23 b3 08 21
        E 23 b3 08 1f
        E 23 b3 08 1d
        E 23 b3 08 1b
        E 23 b3 08 19
        E 23 b3 08 18
        E 23 b3 08 16
        E 23 b3 08 15
        E 23 b3 08 13
        E 23 b3 08 11
        E 23 b3 08 10
        E 23 b3 08 0e
        E 23 b3 08 0d
        E 23 b3 08 0b
        E 23 b3 08 0a
        E 23 b3 08 09
        E 23 b3 08 07
        E 23 b3 08 06
        E 23 b3 08 06
        E 23 b3 08 04
        E 23 b3 08 04
        E 23 b3 08 03
        E 23 b3 08 02
        E 23 b3 08 01
        E 23 b3 08 01
        E 23 b3 08 00
        E 23 b3 08 00
        E 23 b3 08 00
        E 23 b3 08 00
        E 23 b3 08 00
        E 23 b3 08 00
        E 23 b3 08 00
        E 23 b3 08 00
        E 23 b3 08 00
        E 23 b3 08 01
        E 23 b3 08 01
        E 23 b3 08 02
        E 23 b3 08 03
        E 23 b3 08 03
        E 23 b3 08 04
        E 23 b3 08 05
        E 23 b3 08 06
        E 23 b3 08 07
        E 23 b3 08 08
        E 23 b3 08 09
        E 23 b3 08 0a
        E 23 b3 08 0c
        E 23 b3 08 0d
        E 23 b3 08 0f
        E 23 b3 08 10
        E 23 b3 08 12
        E 23 b3 08 13
        E 23 b3 08 15
        E 23 b3 08 17
        E 23 b3 08 19
        E 23 b3 08 1b
        E 23 b3 08 1c
        E 23 b3 08 1e
        E 23 b3 08 20
        E 23 b3 08 22
        E 23 b3 08 24
        E 23 b3 08 26
        E 63 b3 08 39
        E 63 b3 08 3c
        E 63 b3 08 3f
        E 63 b3 08 41
        E 63 b3 08 44
        E 63 b3 08 47
        E 63 b3 08 49
        E 63 b3 08 4c
        E 63 b3 08 4f
        E 63 b3 08 51
        E 63 b3 08 54
        E 63 b3 08 56
        E 63 b3 08 59
        E 63 b3 08 5b
        E 63 b3 08 5d
        E 63 b3 08 5f
        E 63 b3 08 62
        E 63 b3 08 63
        E 63 b3 08 65
        E 63 b3 08 67
        E 63 b3 08 69
        E 63 b3 08 6a
        E 63 b3 08 6c
        E 63 b3 08 6c
        E 63 b3 08 6d
        E 63 b3 08 6e
        E 63 b3 08 6f
        E 63 b3 08 70
        E 63 b3 08 71
        E 63 b3 08 71
        E 63 b3 08 72
        E 63 b3 08 72
        E 63 b3 08 72
        E 63 b3 08 72
        E 63 b3 08 72
        E 63 b3 08 71
        E 63 b3 08 71
        E 63 b3 08 70
        E 63 b3 08 6f
        E 63 b3 08 6e
        E 63 b3 08 6d
        E 63 b3 08 6c
        E 63 b3 08 6b
        E 63 b3 08 69
        E 63 b3 08 68
        E 63 b3 08 66
        E 63 b3 08 64
        E 63 b3 08 63
        E 63 b3 08 61
        E 63 b3 08 5e
        E 63 b3 08 5c
        E 63 b3 08 5a
        E 63 b3 08 58
        E 63 b3 08 55
        E 63 b3 08 52
        E 63 b3 08 50
        E 63 b3 08 4e
        E 63 b3 08 4b
        E 63 b3 08 48
        E 63 b3 08 46
        E 63 b3 08 42
        E 63 b3 08 3f
        E 63 b3 08 3d
        E 63 b3 08 3a
        E 63 b3 08 37
        E 63 b3 08 35
        E 63 b3 08 32
        E 63 b3 08 2f
        E 63 b3 08 2c
        E 63 b3 08 29
        E 63 b3 08 26
        E 63 b3 08 24
        E 63 b3 08 22
        E 63 b3 08 1f
        E 63 b3 08 1c
        E 63 b3 08 1a
        E 63 b3 08 18
        E 63 b3 08 15
        E 63 b3 08 13
        E 63 b3 08 11
        E 63 b3 08 0f
        E 63 b3 08 0d
        E 63 b3 08 0b
        E 63 b3 08 09
        E 63 b3 08 09
        E 63 b3 08 07
        E 63 b3 08 06
        E 63 b3 08 04
        E 63 b3 08 03
        E 63 b3 08 02
        E 63 b3 08 01
        E 63 b3 08 00
        E 63 b3 08 00
        E 63 b3 08 00
        E 63 b3 08 00
        E 63 b3 08 00
        E 63 b3 08 00
        E 63 b3 08 00
        E 63 b3 08 00
        E 63 b3 08 00
        E 63 b3 08 01
        E 63 b3 08 02
        E 63 b3 08 03
        E 63 b3 08 04
        E 63 b3 08 05
        E 63 b3 08 06
        E 63 b3 08 08
        E 63 b3 08 09
        E 63 b3 08 0a
        E 63 b3 08 0c
        E 63 b3 08 0e
        E 63 b3 08 10
        E 63 b3 08 12
        E 63 b3 08 14
        E 63 b3 08 16
        E 63 b3 08 19
        E 63 b3 08 1b
        E 63 b3 08 1d
        E 63 b3 08 20
        E 63 b3 08 23
        E 63 b3 08 25
        E 63 b3 08 28
        E 63 b3 08 2b
        E 63 b3 08 2d
        E 63 b3 08 30
        E 63 b3 08 33
        E 63 b3 08 36
        E 63 b3 08 39
        E 7 b3 08 19
        E 7 b3 08 1a
        E 7 b3 08 1c
        E 7 b3 08 1d
        E 7 b3 08 1e
        E 7 b3 08 1f
        E 7 b3 08 20
        E 7 b3 08 22
        E 7 b3 08 23
        E 7 b3 08 24
        E 7 b3 08 25
        E 7 b3 08 26
        E 7 b3 08 27
        E 7 b3 08 28
        E 7 b3 08 29
        E 7 b3 08 2a
        E 7 b3 08 2b
        E 7 b3 08 2c
        E 7 b3 08 2d
        E 7 b3 08 2e
        E 7 b3 08 2e
        E 7 b3 08 2f
        E 7 b3 08 30
        E 7 b3 08 30
        E 7 b3 08 30
        E 7 b3 08 31
        E 7 b3 08 31
        E 7 b3 08 32
        E 7 b3 08 32
        E 7 b3 08 32
        E 7 b3 08 32
        E 7 b3 08 32
        E 7 b3 08 32
        E 7 b3 08 32
        E 7 b3 08 32
        E 7 b3 08 32
        E 7 b3 08 32
        E 7 b3 08 32
        E 7 b3 08 31
        E 7 b3 08 31
        E 7 b3 08 30
        E 7 b3 08 30
        E 7 b3 08 2f
        E 7 b3 08 2e
        E 7 b3 08 2e
        E 7 b3 08 2d
        E 7 b3 08 2c
        E 7 b3 08 2c
        E 7 b3 08 2b
        E 7 b3 08 2a
        E 7 b3 08 29
        E 7 b3 08 28
        E 7 b3 08 27
        E 7 b3 08 26
        E 7 b3 08 24
        E 7 b3 08 23
        E 7 b3 08 22
        E 7 b3 08 21
        E 7 b3 08 20
        E 7 b3 08 1f
        E 7 b3 08 1d
        E 7 b3 08 1c
        E 7 b3 08 1b
        E 7 b3 08 1a
        E 7 b3 08 18
        E 7 b3 08 17
        E 7 b3 08 16
        E 7 b3 08 15
        E 7 b3 08 13
        E 7 b3 08 12
        E 7 b3 08 11
        E 7 b3 08 10
        E 7 b3 08 0f
        E 7 b3 08 0e
        E 7 b3 08 0c
        E 7 b3 08 0b
        E 7 b3 08 0a
        E 7 b3 08 09
        E 7 b3 08 08
        E 7 b3 08 07
        E 7 b3 08 06
        E 7 b3 08 06
        E 7 b3 08 05
        E 7 b3 08 04
        E 7 b3 08 04
        E 7 b3 08 03
        E 7 b3 08 02
        E 7 b3 08 02
        E 7 b3 08 01
        E 7 b3 08 01
        E 7 b3 08 00
        E 7 b3 08 00
        E 7 b3 08 00
        E 7 b3 08 00
        E 7 b3 08 00
        E 7 b3 08 00
        E 7 b3 08 00
        E 7 b3 08 00
        E 7 b3 08 00
        E 7 b3 08 00
        E 7 b3 08 00
        E 7 b3 08 01
        E 7 b3 08 01
        E 7 b3 08 02
        E 7 b3 08 02
        E 7 b3 08 02
        E 7 b3 08 03
        E 7 b3 08 04
        E 7 b3 08 04
        E 7 b3 08 05
        E 7 b3 08 06
        E 7 b3 08 07
        E 7 b3 08 08
        E 7 b3 08 09
        E 7 b3 08 0a
        E 7 b3 08 0b
        E 7 b3 08 0c
        E 7 b3 08 0d
        E 7 b3 08 0e
        E 7 b3 08 0f
        E 7 b3 08 10
        E 7 b3 08 12
        E 7 b3 08 13
        E 7 b3 08 14
        E 7 b3 08 15
        E 7 b3 08 16
        E 7 b3 08 18
        E 7 b3 08 19
        E 71 b3 08 06
        E 71 b3 08 06
        E 71 b3 08 07
        E 71 b3 08 07
        E 71 b3 08 07
        E 71 b3 08 07
        E 71 b3 08 08
        E 71 b3 08 08
        E 71 b3 08 08
        E 71 b3 08 09
        E 71 b3 08 09
        E 71 b3 08 09
        E 71 b3 08 09
        E 71 b3 08 0a
        E 71 b3 08 0a
        E 71 b3 08 0a
        E 71 b3 08 0a
        E 71 b3 08 0b
        E 71 b3 08 0b
        E 71 b3 08 0b
        E 71 b3 08 0b
        E 71 b3 08 0b
        E 71 b3 08 0c
        E 71 b3 08 0c
        E 71 b3 08 0c
        E 71 b3 08 0c
        E 71 b3 08 0c
        E 71 b3 08 0c
        E 71 b3 08 0c
        E 71 b3 08 0c
        E 71 b3 08 0c
        E 71 b3 08 0c
        E 71 b3 08 0c
        E 71 b3 08 0c
        E 71 b3 08 0c
        E 71 b3 08 0c
        E 71 b3 08 0c
        E 71 b3 08 0c
        E 71 b3 08 0c
        E 71 b3 08 0c
        E 71 b3 08 0c
        E 71 b3 08 0c
        E 71 b3 08 0b
        E 71 b3 08 0b
        E 71 b3 08 0b
        E 71 b3 08 0b
        E 71 b3 08 0b
        E 71 b3 08 0b
        E 71 b3 08 0a
        E 71 b3 08 0a
        E 71 b3 08 0a
        E 71 b3 08 0a
        E 71 b3 08 09
        E 71 b3 08 09
        E 71 b3 08 09
        E 71 b3 08 08
        E 71 b3 08 08
        E 71 b3 08 08
        E 71 b3 08 08
        E 71 b3 08 07
        E 71 b3 08 07
        E 71 b3 08 07
        E 71 b3 08 06
        E 71 b3 08 06
        E 71 b3 08 06
        E 71 b3 08 05
        E 71 b3 08 05
        E 71 b3 08 05
        E 71 b3 08 04
        E 71 b3 08 04
        E 71 b3 08 04
        E 71 b3 08 04
        E 71 b3 08 03
        E 71 b3 08 03
        E 71 b3 08 03
        E 71 b3 08 02
        E 71 b3 08 02
        E 71 b3 08 02
        E 71 b3 08 02
        E 71 b3 08 01
        E 71 b3 08 01
        E 71 b3 08 01
        E 71 b3 08 01
        E 71 b3 08 01
        E 71 b3 08 01
        E 71 b3 08 00
        E 71 b3 08 00
        E 71 b3 08 00
        E 71 b3 08 00
        E 71 b3 08 00
        E 71 b3 08 00
        E 71 b3 08 00
        E 71 b3 08 00
        E 71 b3 08 00
        E 71 b3 08 00
        E 71 b3 08 00
        E 71 b3 08 00
        E 71 b3 08 00
        E 71 b3 08 00
        E 71 b3 08 00
        E 71 b3 08 00
        E 71 b3 08 00
        E 71 b3 08 00
        E 71 b3 08 00
        E 71 b3 08 00
        E 71 b3 08 00
        E 71 b3 08 00
        E 71 b3 08 01
        E 71 b3 08 01
        E 71 b3 08 01
        E 71 b3 08 01
        E 71 b3 08 01
        E 71 b3 08 02
        E 71 b3 08 02
        E 71 b3 08 02
        E 71 b3 08 02
        E 71 b3 08 03
        E 71 b3 08 03
        E 71 b3 08 03
        E 71 b3 08 03
        E 71 b3 08 04
        E 71 b3 08 04
        E 71 b3 08 04
        E 71 b3 08 05
        E 71 b3 08 05
        E 71 b3 08 05
        E 71 b3 08 06
        E 71 b3 08 06
        E 63 b3 08 2c
        E 63 b3 08 2e
        E 63 b3 08 31
        E 63 b3 08 33
        E 63 b3 08 35
        E 63 b3 08 37
        E 63 b3 08 39
        E 63 b3 08 3b
        E 63 b3 08 3d
        E 63 b3 08 3f
        E 63 b3 08 41
        E 63 b3 08 43
        E 63 b3 08 45
        E 63 b3 08 47
        E 63 b3 08 48
        E 63 b3 08 4a
        E 63 b3 08 4c
        E 63 b3 08 4d
        E 63 b3 08 4f
        E 63 b3 08 50
        E 63 b3 08 51
        E 63 b3 08 52
        E 63 b3 08 54
        E 63 b3 08 54
        E 63 b3 08 55
        E 63 b3 08 56
        E 63 b3 08 56
        E 63 b3 08 57
        E 63 b3 08 58
        E 63 b3 08 58
        E 63 b3 08 58
        E 63 b3 08 58
        E 63 b3 08 58
        E 63 b3 08 58
        E 63 b3 08 58
        E 63 b3 08 58
        E 63 b3 08 58
        E 63 b3 08 57
        E 63 b3 08 56
        E 63 b3 08 56
        E 63 b3 08 55
        E 63 b3 08 54
        E 63 b3 08 53
        E 63 b3 08 51
        E 63 b3 08 51
        E 63 b3 08 4f
        E 63 b3 08 4e
        E 63 b3 08 4d
        E 63 b3 08 4b
        E 63 b3 08 49
        E 63 b3 08 48
        E 63 b3 08 46
        E 63 b3 08 44
        E 63 b3 08 42
        E 63 b3 08 40
        E 63 b3 08 3e
        E 63 b3 08 3c
        E 63 b3 08 3a
        E 63 b3 08 38
        E 63 b3 08 36
        E 63 b3 08 33
        E 63 b3 08 31
        E 63 b3 08 2f
        E 63 b3 08 2d
        E 63 b3 08 2b
        E 63 b3 08 29
        E 63 b3 08 27
        E 63 b3 08 25
        E 63 b3 08 22
        E 63 b3 08 20
        E 63 b3 08 1e
        E 63 b3 08 1c
        E 63 b3 08 1a
        E 63 b3 08 18
        E 63 b3 08 16
        E 63 b3 08 14
        E 63 b3 08 12
        E 63 b3 08 10
        E 63 b3 08 0f
        E 63 b3 08 0d
        E 63 b3 08 0b
        E 63 b3 08 0a
        E 63 b3 08 09
        E 63 b3 08 07
        E 63 b3 08 07
        E 63 b3 08 05
        E 63 b3 08 04
        E 63 b3 08 03
        E 63 b3 08 02
        E 63 b3 08 02
        E 63 b3 08 01
        E 63 b3 08 00
        E 63 b3 08 00
        E 63 b3 08 00
        E 63 b3 08 00
        E 63 b3 08 00
        E 63 b3 08 00
        E 63 b3 08 00
        E 63 b3 08 00
        E 63 b3 08 00
        E 63 b3 08 01
        E 63 b3 08 02
        E 63 b3 08 02
        E 63 b3 08 03
        E 63 b3 08 04
        E 63 b3 08 04
        E 63 b3 08 06
        E 63 b3 08 07
        E 63 b3 08 08
        E 63 b3 08 09
        E 63 b3 08 0b
        E 63 b3 08 0c
        E 63 b3 08 0e
        E 63 b3 08 10
        E 63 b3 08 11
        E 63 b3 08 13
        E 63 b3 08 15
        E 63 b3 08 17
        E 63 b3 08 19
        E 63 b3 08 1b
        E 63 b3 08 1d
        E 63 b3 08 1f
        E 63 b3 08 21
        E 63 b3 08 23
        E 63 b3 08 25
        E 63 b3 08 27
        E 63 b3 08 2a
        E 63 b3 08 2c
        E 71 b3 08 13
        E 71 b3 08 14
        E 71 b3 08 15
        E 71 b3 08 15
        E 71 b3 08 16
        E 71 b3 08 17
        E 71 b3 08 18
        E 71 b3 08 19
        E 71 b3 08 1a
        E 71 b3 08 1b
        E 71 b3 08 1c
        E 71 b3 08 1c
        E 71 b3 08 1d
        E 71 b3 08 1e
        E 71 b3 08 1f
        E 71 b3 08 1f
        E 71 b3 08 20
        E 71 b3 08 21
        E 71 b3 08 21
        E 71 b3 08 22
        E 71 b3 08 23
        E 71 b3 08 23
        E 71 b3 08 24
        E 71 b3 08 24
        E 71 b3 08 24
        E 71 b3 08 24
        E 71 b3 08 25
        E 71 b3 08 25
        E 71 b3 08 25
        E 71 b3 08 25
        E 71 b3 08 26
        E 71 b3 08 26
        E 71 b3 08 26
        E 71 b3 08 26
        E 71 b3 08 26
        E 71 b3 08 25
        E 71 b3 08 25
        E 71 b3 08 25
        E 71 b3 08 25
        E 71 b3 08 24
        E 71 b3 08 24
        E 71 b3 08 24
        E 71 b3 08 23
        E 71 b3 08 23
        E 71 b3 08 22
        E 71 b3 08 22
        E 71 b3 08 21
        E 71 b3 08 21
        E 71 b3 08 20
        E 71 b3 08 1f
        E 71 b3 08 1e
        E 71 b3 08 1e
        E 71 b3 08 1d
        E 71 b3 08 1c
        E 71 b3 08 1b
        E 71 b3 08 1a
        E 71 b3 08 1a
        E 71 b3 08 19
        E 71 b3 08 18
        E 71 b3 08 17
        E 71 b3 08 16
        E 71 b3 08 15
        E 71 b3 08 14
        E 71 b3 08 13
        E 71 b3 08 12
        E 71 b3 08 11
        E 71 b3 08 10
        E 71 b3 08 0f
        E 71 b3 08 0e
        E 71 b3 08 0d
        E 71 b3 08 0c
        E 71 b3 08 0c
        E 71 b3 08 0b
        E 71 b3 08 0a
        E 71 b3 08 09
        E 71 b3 08 08
        E 71 b3 08 08
        E 71 b3 08 07
        E 71 b3 08 06
        E 71 b3 08 05
        E 71 b3 08 05
        E 71 b3 08 04
        E 71 b3 08 03
        E 71 b3 08 03
        E 71 b3 08 03
        E 71 b3 08 02
        E 71 b3 08 02
        E 71 b3 08 01
        E 71 b3 08 01
        E 71 b3 08 00
        E 71 b3 08 00
        E 71 b3 08 00
        E 71 b3 08 00
        E 71 b3 08 00
        E 71 b3 08 00
        E 71 b3 08 00
        E 71 b3 08 00
        E 71 b3 08 00
        E 71 b3 08 00
        E 71 b3 08 00
        E 71 b3 08 00
        E 71 b3 08 00
        E 71 b3 08 01
        E 71 b3 08 01
        E 71 b3 08 01
        E 71 b3 08 02
        E 71 b3 08 02
        E 71 b3 08 03
        E 71 b3 08 03
        E 71 b3 08 04
        E 71 b3 08 04
        E 71 b3 08 05
        E 71 b3 08 06
        E 71 b3 08 06
        E 71 b3 08 07
        E 71 b3 08 08
        E 71 b3 08 09
        E 71 b3 08 09
        E 71 b3 08 0a
        E 71 b3 08 0b
        E 71 b3 08 0c
        E 71 b3 08 0d
        E 71 b3 08 0e
        E 71 b3 08 0f
        E 71 b3 08 10
        E 71 b3 08 11
        E 71 b3 08 12
        E 71 b3 08 13
        E 23 b3 08 26
        E 23 b3 08 28
        E 23 b3 08 2a
        E 23 b3 08 2b
        E 23 b3 08 2d
        E 23 b3 08 2f
        E 23 b3 08 31
        E 23 b3 08 33
        E 23 b3 08 34
        E 23 b3 08 36
        E 23 b3 08 38
        E 23 b3 08 39
        E 23 b3 08 3b
        E 23 b3 08 3d
        E 23 b3 08 3e
        E 23 b3 08 3f
        E 23 b3 08 41
        E 23 b3 08 42
        E 23 b3 08 43
        E 23 b3 08 45
        E 23 b3 08 46
        E 23 b3 08 46
        E 23 b3 08 48
        E 23 b3 08 48
        E 23 b3 08 49
        E 23 b3 08 49
        E 23 b3 08 4a
        E 23 b3 08 4b
        E 23 b3 08 4b
        E 23 b3 08 4b
        E 23 b3 08 4c
        E 23 b3 08 4c
        E 23 b3 08 4c
        E 23 b3 08 4c
        E 23 b3 08 4c
        E 23 b3 08 4b
        E 23 b3 08 4b
        E 23 b3 08 4b
        E 23 b3 08 4a
        E 23 b3 08 49
        E 23 b3 08 49
        E 23 b3 08 48
        E 23 b3 08 47
        E 23 b3 08 46
        E 23 b3 08 45
        E 23 b3 08 44
        E 23 b3 08 43
        E 23 b3 08 42
        E 23 b3 08 40
        E 23 b3 08 3f
        E 23 b3 08 3d
        E 23 b3 08 3c
        E 23 b3 08 3a
        E 23 b3 08 39
        E 23 b3 08 37
        E 23 b3 08 35
        E 23 b3 08 34
        E 23 b3 08 32
        E 23 b3 08 30
        E 23 b3 08 2e
        E 23 b3 08 2c
        E 23 b3 08 2a
        E 23 b3 08 28
        E 23 b3 08 27
        E 23 b3 08 25
        E 23 b3 08 23
        E 23 b3 08 21
        E 23 b3 08 1f
        E 23 b3 08 1d
        E 23 b3 08 1b
        E 23 b3 08 19
        E 23 b3 08 18
        E 23 b3 08 16
        E 23 b3 08 15
        E 23 b3 08 13
        E 23 b3 08 11
        E 23 b3 08 10
        E 23 b3 08 0e
        E 23 b3 08 0d
        E 23 b3 08 0b
        E 23 b3 08 0a
        E 23 b3 08 09
        E 23 b3 08 07
        E 23 b3 08 06
        E 23 b3 08 06
        E 23 b3 08 04
        E 23 b3 08 04
        E 23 b3 08 03
        E 23 b3 08 02
        E 23 b3 08 01
        E 23 b3 08 01
        E 23 b3 08 00
        E 23 b3 08 00
        E 23 b3 08 00
        E 23 b3 08 00
        E 23 b3 08 00
        E 23 b3 08 00
        E 23 b3 08 00
        E 23 b3 08 00
        E 23 b3 08 00
        E 23 b3 08 01
        E 23 b3 08 01
        E 23 b3 08 02
        E 23 b3 08 03
        E 23 b3 08 03
        E 23 b3 08 04
        E 23 b3 08 05
        E 23 b3 08 06
        E 23 b3 08 07
        E 23 b3 08 08
        E 23 b3 08 09
        E 23 b3 08 0a
        E 23 b3 08 0c
        E 23 b3 08 0d
        E 23 b3 08 0f
        E 23 b3 08 10
        E 23 b3 08 12
        E 23 b3 08 13
        E 23 b3 08 15
        E 23 b3 08 17
        E 23 b3 08 19
        E 23 b3 08 1b
        E 23 b3 08 1c
        E 23 b3 08 1e
        E 23 b3 08 20
        E 23 b3 08 22
        E 23 b3 08 24
        E 23 b3 08 26
        E 63 b3 08 39
        E 63 b3 08 3c
        E 63 b3 08 3f
        E 63 b3 08 41
        E 63 b3 08 44
        E 63 b3 08 47
        E 63 b3 08 49
        E 63 b3 08 4c
        E 63 b3 08 4f
        E 63 b3 08 51
        E 63 b3 08 54
        E 63 b3 08 56
        E 63 b3 08 59
        E 63 b3 08 5b
        E 63 b3 08 5d
        E 63 b3 08 5f
        E 63 b3 08 62
        E 63 b3 08 63
        E 63 b3 08 65
        E 63 b3 08 67
        E 63 b3 08 69
        E 63 b3 08 6a
        E 63 b3 08 6c
        E 63 b3 08 6c
        E 63 b3 08 6d
        E 63 b3 08 6e
        E 63 b3 08 6f
        E 63 b3 08 70
        E 63 b3 08 71
        E 63 b3 08 71
        E 63 b3 08 72
        E 63 b3 08 72
        E 63 b3 08 72
        E 63 b3 08 72
        E 63 b3 08 72
        E 63 b3 08 71
        E 63 b3 08 71
        E 63 b3 08 70
        E 63 b3 08 6f
        E 63 b3 08 6e
        E 63 b3 08 6d
        E 63 b3 08 6c
        E 63 b3 08 6b
        E 63 b3 08 69
        E 63 b3 08 68
        E 63 b3 08 66
        E 63 b3 08 64
        E 63 b3 08 63
        E 63 b3 08 61
        E 63 b3 08 5e
        E 63 b3 08 5c
        E 63 b3 08 5a
        E 63 b3 08 58
        E 63 b3 08 55
        E 63 b3 08 52
        E 63 b3 08 50
        E 63 b3 08 4e
        E 63 b3 08 4b
        E 63 b3 08 48
        E 63 b3 08 46
        E 63 b3 08 42
        E 63 b3 08 3f
        E 63 b3 08 3d
        E 63 b3 08 3a
        E 63 b3 08 37
        E 63 b3 08 35
        E 63 b3 08 32
        E 63 b3 08 2f
        E 63 b3 08 2c
        E 63 b3 08 29
        E 63 b3 08 26
        E 63 b3 08 24
        E 63 b3 08 22
        E 63 b3 08 1f
        E 63 b3 08 1c
        E 63 b3 08 1a
        E 63 b3 08 18
        E 63 b3 08 15
        E 63 b3 08 13
        E 63 b3 08 11
        E 63 b3 08 0f
        E 63 b3 08 0d
        E 63 b3 08 0b
        E 63 b3 08 09
        E 63 b3 08 09
        E 63 b3 08 07
        E 63 b3 08 06
        E 63 b3 08 04
        E 63 b3 08 03
        E 63 b3 08 02
        E 63 b3 08 01
        E 63 b3 08 00
        E 63 b3 08 00
        E 63 b3 08 00
        E 63 b3 08 00
        E 63 b3 08 00
        E 63 b3 08 00
        E 63 b3 08 00
        E 63 b3 08 00
        E 63 b3 08 00
        E 63 b3 08 01
        E 63 b3 08 02
        E 63 b3 08 03
        E 63 b3 08 04
        E 63 b3 08 05
        E 63 b3 08 06
        E 63 b3 08 08
        E 63 b3 08 09
        E 63 b3 08 0a
        E 63 b3 08 0c
        E 63 b3 08 0e
        E 63 b3 08 10
        E 63 b3 08 12
        E 63 b3 08 14
        E 63 b3 08 16
        E 63 b3 08 19
        E 63 b3 08 1b
        E 63 b3 08 1d
        E 63 b3 08 20
        E 63 b3 08 23
        E 63 b3 08 25
        E 63 b3 08 28
        E 63 b3 08 2b
        E 63 b3 08 2d
        E 63 b3 08 30
        E 63 b3 08 33
        E 63 b3 08 36
        E 63 b3 08 39
        E 7 b3 08 19
        E 7 b3 08 1a
        E 7 b3 08 1c
        E 7 b3 08 1d
        E 7 b3 08 1e
        E 7 b3 08 1f
        E 7 b3 08 20
        E 7 b3 08 22
        E 7 b3 08 23
        E 7 b3 08 24
        E 7 b3 08 25
        E 7 b3 08 26
        E 7 b3 08 27
        E 7 b3 08 28
        E 7 b3 08 29
        E 7 b3 08 2a
        E 7 b3 08 2b
        E 7 b3 08 2c
        E 7 b3 08 2d
        E 7 b3 08 2e
        E 7 b3 08 2e
        E 7 b3 08 2f
        E 7 b3 08 30
        E 7 b3 08 30
        E 7 b3 08 30
        E 7 b3 08 31
        E 7 b3 08 31
        E 7 b3 08 32
        E 7 b3 08 32
        E 7 b3 08 32
        E 7 b3 08 32
        E 7 b3 08 32
        E 7 b3 08 32
        E 7 b3 08 32
        E 7 b3 08 32
        E 7 b3 08 32
        E 7 b3 08 32
        E 7 b3 08 32
        E 7 b3 08 31
        E 7 b3 08 31
        E 7 b3 08 30
        E 7 b3 08 30
        E 7 b3 08 2f
        E 7 b3 08 2e
        E 7 b3 08 2e
        E 7 b3 08 2d
        E 7 b3 08 2c
        E 7 b3 08 2c
        E 7 b3 08 2b
        E 7 b3 08 2a
        E 7 b3 08 29
        E 7 b3 08 28
        E 7 b3 08 27
        E 7 b3 08 26
        E 7 b3 08 24
        E 7 b3 08 23
        E 7 b3 08 22
        E 7 b3 08 21
        E 7 b3 08 20
        E 7 b3 08 1f
        E 7 b3 08 1d
        E 7 b3 08 1c
        E 7 b3 08 1b
        E 7 b3 08 1a
        E 7 b3 08 18
        E 7 b3 08 17
        E 7 b3 08 16
        E 7 b3 08 15
        E 7 b3 08 13
        E 7 b3 08 12
        E 7 b3 08 11
        E 7 b3 08 10
        E 7 b3 08 0f
        E 7 b3 08 0e
        E 7 b3 08 0c
        E 7 b3 08 0b
        E 7 b3 08 0a
        E 7 b3 08 09
        E 7 b3 08 08
        E 7 b3 08 07
        E 7 b3 08 06
        E 7 b3 08 06
        E 7 b3 08 05
        E 7 b3 08 04
        E 7 b3 08 04
        E 7 b3 08 03
        E 7 b3 08 02
        E 7 b3 08 02
        E 7 b3 08 01
        E 7 b3 08 01
        E 7 b3 08 00
        E 7 b3 08 00
        E 7 b3 08 00
        E 7 b3 08 00
        E 7 b3 08 00
        E 7 b3 08 00
        E 7 b3 08 00
        E 7 b3 08 00
        E 7 b3 08 00
        E 7 b3 08 00
        E 7 b3 08 00
        E 7 b3 08 01
        E 7 b3 08 01
        E 7 b3 08 02
        E 7 b3 08 02
        E 7 b3 08 02
        E 7 b3 08 03
        E 7 b3 08 04
        E 7 b3 08 04
        E 7 b3 08 05
        E 7 b3 08 06
        E 7 b3 08 07
        E 7 b3 08 08
        E 7 b3 08 09
        E 7 b3 08 0a
        E 7 b3 08 0b
        E 7 b3 08 0c
        E 7 b3 08 0d
        E 7 b3 08 0e
        E 7 b3 08 0f
        E 7 b3 08 10
        E 7 b3 08 12
        E 7 b3 08 13
        E 7 b3 08 14
        E 7 b3 08 15
        E 7 b3 08 16
        E 7 b3 08 18
        E 7 b3 08 19
        E 71 b3 08 13
        E 71 b3 08 14
        E 71 b3 08 15
        E 71 b3 08 15
        E 71 b3 08 16
        E 71 b3 08 17
        E 71 b3 08 18
        E 71 b3 08 19
        E 71 b3 08 1a
        E 71 b3 08 1b
        E 71 b3 08 1c
        E 71 b3 08 1c
        E 71 b3 08 1d
        E 71 b3 08 1e
        E 71 b3 08 1f
        E 71 b3 08 1f
        E 71 b3 08 20
        E 71 b3 08 21
        E 71 b3 08 21
        E 71 b3 08 22
        E 71 b3 08 23
        E 71 b3 08 23
        E 71 b3 08 24
        E 71 b3 08 24
        E 71 b3 08 24
        E 71 b3 08 24
        E 71 b3 08 25
        E 71 b3 08 25
        E 71 b3 08 25
        E 71 b3 08 25
        E 71 b3 08 26
        E 71 b3 08 26
        E 71 b3 08 26
        E 71 b3 08 26
        E 71 b3 08 26
        E 71 b3 08 25
        E 71 b3 08 25
        E 71 b3 08 25
        E 71 b3 08 25
        E 71 b3 08 24
        E 71 b3 08 24
        E 71 b3 08 24
        E 71 b3 08 23
        E 71 b3 08 23
        E 71 b3 08 22
        E 71 b3 08 22
        E 71 b3 08 21
        E 71 b3 08 21
        E 71 b3 08 20
        E 71 b3 08 1f
        E 71 b3 08 1e
        E 71 b3 08 1e
        E 71 b3 08 1d
        E 71 b3 08 1c
        E 71 b3 08 1b
        E 71 b3 08 1a
        E 71 b3 08 1a
        E 71 b3 08 19
        E 71 b3 08 18
        E 71 b3 08 17
        E 71 b3 08 16
        E 71 b3 08 15
        E 71 b3 08 14
        E 71 b3 08 13
        E 71 b3 08 12
        E 71 b3 08 11
        E 71 b3 08 10
        E 71 b3 08 0f
        E 71 b3 08 0e
        E 71 b3 08 0d
        E 71 b3 08 0c
        E 71 b3 08 0c
        E 71 b3 08 0b
        E 71 b3 08 0a
        E 71 b3 08 09
        E 71 b3 08 08
        E 71 b3 08 08
        E 71 b3 08 07
        E 71 b3 08 06
        E 71 b3 08 05
        E 71 b3 08 05
        E 71 b3 08 04
        E 71 b3 08 03
        E 71 b3 08 03
        E 71 b3 08 03
        E 71 b3 08 02
        E 71 b3 08 02
        E 71 b3 08 01
        E 71 b3 08 01
        E 71 b3 08 00
        E 71 b3 08 00
        E 71 b3 08 00
        E 71 b3 08 00
        E 71 b3 08 00
        E 71 b3 08 00
        E 71 b3 08 00
        E 71 b3 08 00
        E 71 b3 08 00
        E 71 b3 08 00
        E 71 b3 08 00
        E 71 b3 08 00
        E 71 b3 08 00
        E 71 b3 08 01
        E 71 b3 08 01
        E 71 b3 08 01
        E 71 b3 08 02
        E 71 b3 08 02
        E 71 b3 08 03
        E 71 b3 08 03
        E 71 b3 08 04
        E 71 b3 08 04
        E 71 b3 08 05
        E 71 b3 08 06
        E 71 b3 08 06
        E 71 b3 08 07
        E 71 b3 08 08
        E 71 b3 08 09
        E 71 b3 08 09
        E 71 b3 08 0a
        E 71 b3 08 0b
        E 71 b3 08 0c
        E 71 b3 08 0d
        E 71 b3 08 0e
        E 71 b3 08 0f
        E 71 b3 08 10
        E 71 b3 08 11
        E 71 b3 08 12
        E 71 b3 08 13
        E 23 b3 08 26
        E 23 b3 08 28
        E 23 b3 08 2a
        E 23 b3 08 2b
        E 23 b3 08 2d
        E 23 b3 08 2f
        E 23 b3 08 31
        E 23 b3 08 33
        E 23 b3 08 34
        E 23 b3 08 36
        E 23 b3 08 38
        E 23 b3 08 39
        E 23 b3 08 3b
        E 23 b3 08 3d
        E 23 b3 08 3e
        E 23 b3 08 3f
        E 23 b3 08 41
        E 23 b3 08 42
        E 23 b3 08 43
        E 23 b3 08 45
        E 23 b3 08 46
        E 23 b3 08 46
        E 23 b3 08 48
        E 23 b3 08 48
        E 23 b3 08 49
        E 23 b3 08 49
        E 23 b3 08 4a
        E 23 b3 08 4b
        E 23 b3 08 4b
        E 23 b3 08 4b
        E 23 b3 08 4c
        E 23 b3 08 4c
        E 23 b3 08 4c
        E 23 b3 08 4c
        E 23 b3 08 4c
        E 23 b3 08 4b
        E 23 b3 08 4b
        E 23 b3 08 4b
        E 23 b3 08 4a
        E 23 b3 08 49
        E 23 b3 08 49
        E 23 b3 08 48
        E 23 b3 08 47
        E 23 b3 08 46
        E 23 b3 08 45
        E 23 b3 08 44
        E 23 b3 08 43
        E 23 b3 08 42
        E 23 b3 08 40
        E 23 b3 08 3f
        E 23 b3 08 3d
        E 23 b3 08 3c
        E 23 b3 08 3a
        E 23 b3 08 39
        E 23 b3 08 37
        E 23 b3 08 35
        E 23 b3 08 34
        E 23 b3 08 32
        E 23 b3 08 30
        E 23 b3 08 2e
        E 23 b3 08 2c
        E 23 b3 08 2a
        E 23 b3 08 28
        E 23 b3 08 27
        E 23 b3 08 25
        E 23 b3 08 23
        E 23 b3 08 21
        E 23 b3 08 1f
        E 23 b3 08 1d
        E 23 b3 08 1b
        E 23 b3 08 19
        E 23 b3 08 18
        E 23 b3 08 16
        E 23 b3 08 15
        E 23 b3 08 13
        E 23 b3 08 11
        E 23 b3 08 10
        E 23 b3 08 0e
        E 23 b3 08 0d
        E 23 b3 08 0b
        E 23 b3 08 0a
        E 23 b3 08 09
        E 23 b3 08 07
        E 23 b3 08 06
        E 23 b3 08 06
        E 23 b3 08 04
        E 23 b3 08 04
        E 23 b3 08 03
        E 23 b3 08 02
        E 23 b3 08 01
        E 23 b3 08 01
        E 23 b3 08 00
        E 23 b3 08 00
        E 23 b3 08 00
        E 23 b3 08 00
        E 23 b3 08 00
        E 23 b3 08 00
        E 23 b3 08 00
        E 23 b3 08 00
        E 23 b3 08 00
        E 23 b3 08 01
        E 23 b3 08 01
        E 23 b3 08 02
        E 23 b3 08 03
        E 23 b3 08 03
        E 23 b3 08 04
        E 23 b3 08 05
        E 23 b3 08 06
        E 23 b3 08 07
        E 23 b3 08 08
        E 23 b3 08 09
        E 23 b3 08 0a
        E 23 b3 08 0c
        E 23 b3 08 0d
        E 23 b3 08 0f
        E 23 b3 08 10
        E 23 b3 08 12
        E 23 b3 08 13
        E 23 b3 08 15
        E 23 b3 08 17
        E 23 b3 08 19
        E 23 b3 08 1b
        E 23 b3 08 1c
        E 23 b3 08 1e
        E 23 b3 08 20
        E 23 b3 08 22
        E 23 b3 08 24
        E 23 b3 08 26
        E 63 b3 08 39
        E 63 b3 08 3c
        E 63 b3 08 3f
        E 63 b3 08 41
        E 63 b3 08 44
        E 63 b3 08 47
        E 63 b3 08 49
        E 63 b3 08 4c
        E 63 b3 08 4f
        E 63 b3 08 51
        E 63 b3 08 54
        E 63 b3 08 56
        E 63 b3 08 59
        E 63 b3 08 5b
        E 63 b3 08 5d
        E 63 b3 08 5f
        E 63 b3 08 62
        E 63 b3 08 63
        E 63 b3 08 65
        E 63 b3 08 67
        E 63 b3 08 69
        E 63 b3 08 6a
        E 63 b3 08 6c
        E 63 b3 08 6c
        E 63 b3 08 6d
        E 63 b3 08 6e
        E 63 b3 08 6f
        E 63 b3 08 70
        E 63 b3 08 71
        E 63 b3 08 71
        E 63 b3 08 72
        E 63 b3 08 72
        E 63 b3 08 72
        E 63 b3 08 72
        E 63 b3 08 72
        E 63 b3 08 71
        E 63 b3 08 71
        E 63 b3 08 70
        E 63 b3 08 6f
        E 63 b3 08 6e
        E 63 b3 08 6d
        E 63 b3 08 6c
        E 63 b3 08 6b
        E 63 b3 08 69
        E 63 b3 08 68
        E 63 b3 08 66
        E 63 b3 08 64
        E 63 b3 08 63
        E 63 b3 08 61
        E 63 b3 08 5e
        E 63 b3 08 5c
        E 63 b3 08 5a
        E 63 b3 08 58
        E 63 b3 08 55
        E 63 b3 08 52
        E 63 b3 08 50
        E 63 b3 08 4e
        E 63 b3 08 4b
        E 63 b3 08 48
        E 63 b3 08 46
        E 63 b3 08 42
        E 63 b3 08 3f
        E 63 b3 08 3d
        E 63 b3 08 3a
        E 63 b3 08 37
        E 63 b3 08 35
        E 63 b3 08 32
        E 63 b3 08 2f
        E 63 b3 08 2c
        E 63 b3 08 29
        E 63 b3 08 26
        E 63 b3 08 24
        E 63 b3 08 22
        E 63 b3 08 1f
        E 63 b3 08 1c
        E 63 b3 08 1a
        E 63 b3 08 18
        E 63 b3 08 15
        E 63 b3 08 13
        E 63 b3 08 11
        E 63 b3 08 0f
        E 63 b3 08 0d
        E 63 b3 08 0b
        E 63 b3 08 09
        E 63 b3 08 09
        E 63 b3 08 07
        E 63 b3 08 06
        E 63 b3 08 04
        E 63 b3 08 03
        E 63 b3 08 02
        E 63 b3 08 01
        E 63 b3 08 00
        E 63 b3 08 00
        E 63 b3 08 00
        E 63 b3 08 00
        E 63 b3 08 00
        E 63 b3 08 00
        E 63 b3 08 00
        E 63 b3 08 00
        E 63 b3 08 00
        E 63 b3 08 01
        E 63 b3 08 02
        E 63 b3 08 03
        E 63 b3 08 04
        E 63 b3 08 05
        E 63 b3 08 06
        E 63 b3 08 08
        E 63 b3 08 09
        E 63 b3 08 0a
        E 63 b3 08 0c
        E 63 b3 08 0e
        E 63 b3 08 10
        E 63 b3 08 12
        E 63 b3 08 14
        E 63 b3 08 16
        E 63 b3 08 19
        E 63 b3 08 1b
        E 63 b3 08 1d
        E 63 b3 08 20
        E 63 b3 08 23
        E 63 b3 08 25
        E 63 b3 08 28
        E 63 b3 08 2b
        E 63 b3 08 2d
        E 63 b3 08 30
        E 63 b3 08 33
        E 63 b3 08 36
        E 63 b3 08 39
        E 7 b3 08 19
        E 7 b3 08 1a
        E 7 b3 08 1c
        E 7 b3 08 1d
        E 7 b3 08 1e
        E 7 b3 08 1f
        E 7 b3 08 20
        E 7 b3 08 22
        E 7 b3 08 23
        E 7 b3 08 24
        E 7 b3 08 25
        E 7 b3 08 26
        E 7 b3 08 27
        E 7 b3 08 28
        E 7 b3 08 29
        E 7 b3 08 2a
        E 7 b3 08 2b
        E 7 b3 08 2c
        E 7 b3 08 2d
        E 7 b3 08 2e
        E 7 b3 08 2e
        E 7 b3 08 2f
        E 7 b3 08 30
        E 7 b3 08 30
        E 7 b3 08 30
        E 7 b3 08 31
        E 7 b3 08 31
        E 7 b3 08 32
        E 7 b3 08 32
        E 7 b3 08 32
        E 7 b3 08 32
        E 7 b3 08 32
        E 7 b3 08 32
        E 7 b3 08 32
        E 7 b3 08 32
        E 7 b3 08 32
        E 7 b3 08 32
        E 7 b3 08 32
        E 7 b3 08 31
        E 7 b3 08 31
        E 7 b3 08 30
        E 7 b3 08 30
        E 7 b3 08 2f
        E 7 b3 08 2e
        E 7 b3 08 2e
        E 7 b3 08 2d
        E 7 b3 08 2c
        E 7 b3 08 2c
        E 7 b3 08 2b
        E 7 b3 08 2a
        E 7 b3 08 29
        E 7 b3 08 28
        E 7 b3 08 27
        E 7 b3 08 26
        E 7 b3 08 24
        E 7 b3 08 23
        E 7 b3 08 22
        E 7 b3 08 21
        E 7 b3 08 20
        E 7 b3 08 1f
        E 7 b3 08 1d
        E 7 b3 08 1c
        E 7 b3 08 1b
        E 7 b3 08 1a
        E 7 b3 08 18
        E 7 b3 08 17
        E 7 b3 08 16
        E 7 b3 08 15
        E 7 b3 08 13
        E 7 b3 08 12
        E 7 b3 08 11
        E 7 b3 08 10
        E 7 b3 08 0f
        E 7 b3 08 0e
        E 7 b3 08 0c
        E 7 b3 08 0b
        E 7 b3 08 0a
        E 7 b3 08 09
        E 7 b3 08 08
        E 7 b3 08 07
        E 7 b3 08 06
        E 7 b3 08 06
        E 7 b3 08 05
        E 7 b3 08 04
        E 7 b3 08 04
        E 7 b3 08 03
        E 7 b3 08 02
        E 7 b3 08 02
        E 7 b3 08 01
        E 7 b3 08 01
        E 7 b3 08 00
        E 7 b3 08 00
        E 7 b3 08 00
        E 7 b3 08 00
        E 7 b3 08 00
        E 7 b3 08 00
        E 7 b3 08 00
        E 7 b3 08 00
        E 7 b3 08 00
        E 7 b3 08 00
        E 7 b3 08 00
        E 7 b3 08 01
        E 7 b3 08 01
        E 7 b3 08 02
        E 7 b3 08 02
        E 7 b3 08 02
        E 7 b3 08 03
        E 7 b3 08 04
        E 7 b3 08 04
        E 7 b3 08 05
        E 7 b3 08 06
        E 7 b3 08 07
        E 7 b3 08 08
        E 7 b3 08 09
        E 7 b3 08 0a
        E 7 b3 08 0b
        E 7 b3 08 0c
        E 7 b3 08 0d
        E 7 b3 08 0e
        E 7 b3 08 0f
        E 7 b3 08 10
        E 7 b3 08 12
        E 7 b3 08 13
        E 7 b3 08 14
        E 7 b3 08 15
        E 7 b3 08 16
        E 7 b3 08 18
        E 7 b3 08 19
        E 71 b3 08 06
        E 71 b3 08 06
        E 71 b3 08 07
        E 71 b3 08 07
        E 71 b3 08 07
        E 71 b3 08 07
        E 71 b3 08 08
        E 71 b3 08 08
        E 71 b3 08 08
        E 71 b3 08 09
        E 71 b3 08 09
        E 71 b3 08 09
        E 71 b3 08 09
        E 71 b3 08 0a
        E 71 b3 08 0a
        E 71 b3 08 0a
        E 71 b3 08 0a
        E 71 b3 08 0b
        E 71 b3 08 0b
        E 71 b3 08 0b
        E 71 b3 08 0b
        E 71 b3 08 0b
        E 71 b3 08 0c
        E 71 b3 08 0c
        E 71 b3 08 0c
        E 71 b3 08 0c
        E 71 b3 08 0c
        E 71 b3 08 0c
        E 71 b3 08 0c
        E 71 b3 08 0c
        E 71 b3 08 0c
        E 71 b3 08 0c
        E 71 b3 08 0c
        E 71 b3 08 0c
        E 71 b3 08 0c
        E 71 b3 08 0c
        E 71 b3 08 0c
        E 71 b3 08 0c
        E 71 b3 08 0c
        E 71 b3 08 0c
        E 71 b3 08 0c
        E 71 b3 08 0c
        E 71 b3 08 0b
        E 71 b3 08 0b
        E 71 b3 08 0b
        E 71 b3 08 0b
        E 71 b3 08 0b
        E 71 b3 08 0b
        E 71 b3 08 0a
        E 71 b3 08 0a
        E 71 b3 08 0a
        E 71 b3 08 0a
        E 71 b3 08 09
        E 71 b3 08 09
        E 71 b3 08 09
        E 71 b3 08 08
        E 71 b3 08 08
        E 71 b3 08 08
        E 71 b3 08 08
        E 71 b3 08 07
        E 71 b3 08 07
        E 71 b3 08 07
        E 71 b3 08 06
        E 71 b3 08 06
        E 71 b3 08 06
        E 71 b3 08 05
        E 71 b3 08 05
        E 71 b3 08 05
        E 71 b3 08 04
        E 71 b3 08 04
        E 71 b3 08 04
        E 71 b3 08 04
        E 71 b3 08 03
        E 71 b3 08 03
        E 71 b3 08 03
        E 71 b3 08 02
        E 71 b3 08 02
        E 71 b3 08 02
        E 71 b3 08 02
        E 71 b3 08 01
        E 71 b3 08 01
        E 71 b3 08 01
        E 71 b3 08 01
        E 71 b3 08 01
        E 71 b3 08 01
        E 71 b3 08 00
        E 71 b3 08 00
        E 71 b3 08 00
        E 71 b3 08 00
        E 71 b3 08 00
        E 71 b3 08 00
        E 71 b3 08 00
        E 71 b3 08 00
        E 71 b3 08 00
        E 71 b3 08 00
        E 71 b3 08 00
        E 71 b3 08 00
        E 71 b3 08 00
        E 71 b3 08 00
        E 71 b3 08 00
        E 71 b3 08 00
        E 71 b3 08 00
        E 71 b3 08 00
        E 71 b3 08 00
        E 71 b3 08 00
        E 71 b3 08 00
        E 71 b3 08 00
        E 71 b3 08 01
        E 71 b3 08 01
        E 71 b3 08 01
        E 71 b3 08 01
        E 71 b3 08 01
        E 71 b3 08 02
        E 71 b3 08 02
        E 71 b3 08 02
        E 71 b3 08 02
        E 71 b3 08 03
        E 71 b3 08 03
        E 71 b3 08 03
        E 71 b3 08 03
        E 71 b3 08 04
        E 71 b3 08 04
        E 71 b3 08 04
        E 71 b3 08 05
        E 71 b3 08 05
        E 71 b3 08 05
        E 71 b3 08 06
        E 71 b3 08 06
        E 63 b3 08 2c
        E 63 b3 08 2e
        E 63 b3 08 31
        E 63 b3 08 33
        E 63 b3 08 35
        E 63 b3 08 37
        E 63 b3 08 39
        E 63 b3 08 3b
        E 63 b3 08 3d
        E 63 b3 08 3f
        E 63 b3 08 41
        E 63 b3 08 43
        E 63 b3 08 45
        E 63 b3 08 47
        E 63 b3 08 48
        E 63 b3 08 4a
        E 63 b3 08 4c
        E 63 b3 08 4d
        E 63 b3 08 4f
        E 63 b3 08 50
        E 63 b3 08 51
        E 63 b3 08 52
        E 63 b3 08 54
        E 63 b3 08 54
        E 63 b3 08 55
        E 63 b3 08 56
        E 63 b3 08 56
        E 63 b3 08 57
        E 63 b3 08 58
        E 63 b3 08 58
        E 63 b3 08 58
        E 63 b3 08 58
        E 63 b3 08 58
        E 63 b3 08 58
        E 63 b3 08 58
        E 63 b3 08 58
        E 63 b3 08 58
        E 63 b3 08 57
        E 63 b3 08 56
        E 63 b3 08 56
        E 63 b3 08 55
        E 63 b3 08 54
        E 63 b3 08 53
        E 63 b3 08 51
        E 63 b3 08 51
        E 63 b3 08 4f
        E 63 b3 08 4e
        E 63 b3 08 4d
        E 63 b3 08 4b
        E 63 b3 08 49
        E 63 b3 08 48
        E 63 b3 08 46
        E 63 b3 08 44
        E 63 b3 08 42
        E 63 b3 08 40
        E 63 b3 08 3e
        E 63 b3 08 3c
        E 63 b3 08 3a
        E 63 b3 08 38
        E 63 b3 08 36
        E 63 b3 08 33
        E 63 b3 08 31
        E 63 b3 08 2f
        E 63 b3 08 2d
        E 63 b3 08 2b
        E 63 b3 08 29
        E 63 b3 08 27
        E 63 b3 08 25
        E 63 b3 08 22
        E 63 b3 08 20
        E 63 b3 08 1e
        E 63 b3 08 1c
        E 63 b3 08 1a
        E 63 b3 08 18
        E 63 b3 08 16
        E 63 b3 08 14
        E 63 b3 08 12
        E 63 b3 08 10
        E 63 b3 08 0f
        E 63 b3 08 0d
        E 63 b3 08 0b
        E 63 b3 08 0a
        E 63 b3 08 09
        E 63 b3 08 07
        E 63 b3 08 07
        E 63 b3 08 05
        E 63 b3 08 04
        E 63 b3 08 03
        E 63 b3 08 02
        E 63 b3 08 02
        E 63 b3 08 01
        E 63 b3 08 00
        E 63 b3 08 00
        E 63 b3 08 00
        E 63 b3 08 00
        E 63 b3 08 00
        E 63 b3 08 00
        E 63 b3 08 00
        E 63 b3 08 00
        E 63 b3 08 00
        E 63 b3 08 01
        E 63 b3 08 02
        E 63 b3 08 02
        E 63 b3 08 03
        E 63 b3 08 04
        E 63 b3 08 04
        E 63 b3 08 06
        E 63 b3 08 07
        E 63 b3 08 08
        E 63 b3 08 09
        E 63 b3 08 0b
        E 63 b3 08 0c
        E 63 b3 08 0e
        E 63 b3 08 10
        E 63 b3 08 11
        E 63 b3 08 13
        E 63 b3 08 15
        E 63 b3 08 17
        E 63 b3 08 19
        E 63 b3 08 1b
        E 63 b3 08 1d
        E 63 b3 08 1f
        E 63 b3 08 21
        E 63 b3 08 23
        E 63 b3 08 25
        E 63 b3 08 27
        E 63 b3 08 2a
        E 63 b3 08 2c
        E 71 b3 08 13
        E 71 b3 08 14
        E 71 b3 08 15
        E 71 b3 08 15
        E 71 b3 08 16
        E 71 b3 08 17
        E 71 b3 08 18
        E 71 b3 08 19
        E 71 b3 08 1a
        E 71 b3 08 1b
        E 71 b3 08 1c
        E 71 b3 08 1c
        E 71 b3 08 1d
        E 71 b3 08 1e
        E 71 b3 08 1f
        E 71 b3 08 1f
        E 71 b3 08 20
        E 71 b3 08 21
        E 71 b3 08 21
        E 71 b3 08 22
        E 71 b3 08 23
        E 71 b3 08 23
        E 71 b3 08 24
        E 71 b3 08 24
        E 71 b3 08 24
        E 71 b3 08 24
        E 71 b3 08 25
        E 71 b3 08 25
        E 71 b3 08 25
        E 71 b3 08 25
        E 71 b3 08 26
        E 71 b3 08 26
        E 71 b3 08 26
        E 71 b3 08 26
        E 71 b3 08 26
        E 71 b3 08 25
        E 71 b3 08 25
        E 71 b3 08 25
        E 71 b3 08 25
        E 71 b3 08 24
        E 71 b3 08 24
        E 71 b3 08 24
        E 71 b3 08 23
        E 71 b3 08 23
        E 71 b3 08 22
        E 71 b3 08 22
        E 71 b3 08 21
        E 71 b3 08 21
        E 71 b3 08 20
        E 71 b3 08 1f
        E 71 b3 08 1e
        E 71 b3 08 1e
        E 71 b3 08 1d
        E 71 b3 08 1c
        E 71 b3 08 1b
        E 71 b3 08 1a
        E 71 b3 08 1a
        E 71 b3 08 19
        E 71 b3 08 18
        E 71 b3 08 17
        E 71 b3 08 16
        E 71 b3 08 15
        E 71 b3 08 14
        E 71 b3 08 13
        E 71 b3 08 12
        E 71 b3 08 11
        E 71 b3 08 10
        E 71 b3 08 0f
        E 71 b3 08 0e
        E 71 b3 08 0d
        E 71 b3 08 0c
        E 71 b3 08 0c
        E 71 b3 08 0b
        E 71 b3 08 0a
        E 71 b3 08 09
        E 71 b3 08 08
        E 71 b3 08 08
        E 71 b3 08 07
        E 71 b3 08 06
        E 71 b3 08 05
        E 71 b3 08 05
        E 71 b3 08 04
        E 71 b3 08 03
        E 71 b3 08 03
        E 71 b3 08 03
        E 71 b3 08 02
        E 71 b3 08 02
        E 71 b3 08 01
        E 71 b3 08 01
        E 71 b3 08 00
        E 71 b3 08 00
        E 71 b3 08 00
        E 71 b3 08 00
        E 71 b3 08 00
        E 71 b3 08 00
        E 71 b3 08 00
        E 71 b3 08 00
        E 71 b3 08 00
        E 71 b3 08 00
        E 71 b3 08 00
        E 71 b3 08 00
        E 71 b3 08 00
        E 71 b3 08 01
        E 71 b3 08 01
        E 71 b3 08 01
        E 71 b3 08 02
        E 71 b3 08 02
        E 71 b3 08 03
        E 71 b3 08 03
        E 71 b3 08 04
        E 71 b3 08 04
        E 71 b3 08 05
        E 71 b3 08 06
        E 71 b3 08 06
        E 71 b3 08 07
        E 71 b3 08 08
        E 71 b3 08 09
        E 71 b3 08 09
        E 71 b3 08 0a
        E 71 b3 08 0b
        E 71 b3 08 0c
        E 71 b3 08 0d
        E 71 b3 08 0e
        E 71 b3 08 0f
        E 71 b3 08 10
        E 71 b3 08 11
        E 71 b3 08 12
        E 71 b3 08 13
        E 23 b3 08 26
        E 23 b3 08 28
        E 23 b3 08 2a
        E 23 b3 08 2b
        E 23 b3 08 2d
        E 23 b3 08 2f
        E 23 b3 08 31
        E 23 b3 08 33
        E 23 b3 08 34
        E 23 b3 08 36
        E 23 b3 08 38
        E 23 b3 08 39
        E 23 b3 08 3b
        E 23 b3 08 3d
        E 23 b3 08 3e
        E 23 b3 08 3f
        E 23 b3 08 41
        E 23 b3 08 42
        E 23 b3 08 43
        E 23 b3 08 45
        E 23 b3 08 46
        E 23 b3 08 46
        E 23 b3 08 48
        E 23 b3 08 48
        E 23 b3 08 49
        E 23 b3 08 49
        E 23 b3 08 4a
        E 23 b3 08 4b
        E 23 b3 08 4b
        E 23 b3 08 4b
        E 23 b3 08 4c
        E 23 b3 08 4c
        E 23 b3 08 4c
        E 23 b3 08 4c
        E 23 b3 08 4c
        E 23 b3 08 4b
        E 23 b3 08 4b
        E 23 b3 08 4b
        E 23 b3 08 4a
        E 23 b3 08 49
        E 23 b3 08 49
        E 23 b3 08 48
        E 23 b3 08 47
        E 23 b3 08 46
        E 23 b3 08 45
        E 23 b3 08 44
        E 23 b3 08 43
        E 23 b3 08 42
        E 23 b3 08 40
        E 23 b3 08 3f
        E 23 b3 08 3d
        E 23 b3 08 3c
        E 23 b3 08 3a
        E 23 b3 08 39
        E 23 b3 08 37
        E 23 b3 08 35
        E 23 b3 08 34
        E 23 b3 08 32
        E 23 b3 08 30
        E 23 b3 08 2e
        E 23 b3 08 2c
        E 23 b3 08 2a
        E 23 b3 08 28
        E 23 b3 08 27
        E 23 b3 08 25
        E 23 b3 08 23
        E 23 b3 08 21
        E 23 b3 08 1f
        E 23 b3 08 1d
        E 23 b3 08 1b
        E 23 b3 08 19
        E 23 b3 08 18
        E 23 b3 08 16
        E 23 b3 08 15
        E 23 b3 08 13
        E 23 b3 08 11
        E 23 b3 08 10
        E 23 b3 08 0e
        E 23 b3 08 0d
        E 23 b3 08 0b
        E 23 b3 08 0a
        E 23 b3 08 09
        E 23 b3 08 07
        E 23 b3 08 06
        E 23 b3 08 06
        E 23 b3 08 04
        E 23 b3 08 04
        E 23 b3 08 03
        E 23 b3 08 02
        E 23 b3 08 01
        E 23 b3 08 01
        E 23 b3 08 00
        E 23 b3 08 00
        E 23 b3 08 00
        E 23 b3 08 00
        E 23 b3 08 00
        E 23 b3 08 00
        E 23 b3 08 00
        E 23 b3 08 00
        E 23 b3 08 00
        E 23 b3 08 01
        E 23 b3 08 01
        E 23 b3 08 02
        E 23 b3 08 03
        E 23 b3 08 03
        E 23 b3 08 04
        E 23 b3 08 05
        E 23 b3 08 06
        E 23 b3 08 07
        E 23 b3 08 08
        E 23 b3 08 09
        E 23 b3 08 0a
        E 23 b3 08 0c
        E 23 b3 08 0d
        E 23 b3 08 0f
        E 23 b3 08 10
        E 23 b3 08 12
        E 23 b3 08 13
        E 23 b3 08 15
        E 23 b3 08 17
        E 23 b3 08 19
        E 23 b3 08 1b
        E 23 b3 08 1c
        E 23 b3 08 1e
        E 23 b3 08 20
        E 23 b3 08 22
        E 23 b3 08 24
        E 23 b3 08 26
        E 63 b3 08 39
        E 63 b3 08 3c
        E 63 b3 08 3f
        E 63 b3 08 41
        E 63 b3 08 44
        E 63 b3 08 47
        E 63 b3 08 49
        E 63 b3 08 4c
        E 63 b3 08 4f
        E 63 b3 08 51
        E 63 b3 08 54
        E 63 b3 08 56
        E 63 b3 08 59
        E 63 b3 08 5b
        E 63 b3 08 5d
        E 63 b3 08 5f
        E 63 b3 08 62
        E 63 b3 08 63
        E 63 b3 08 65
        E 63 b3 08 67
        E 63 b3 08 69
        E 63 b3 08 6a
        E 63 b3 08 6c
        E 63 b3 08 6c
        E 63 b3 08 6d
        E 63 b3 08 6e
        E 63 b3 08 6f
        E 63 b3 08 70
        E 63 b3 08 71
        E 63 b3 08 71
        E 63 b3 08 72
        E 63 b3 08 72
        E 63 b3 08 72
        E 63 b3 08 72
        E 63 b3 08 72
        E 63 b3 08 71
        E 63 b3 08 71
        E 63 b3 08 70
        E 63 b3 08 6f
        E 63 b3 08 6e
        E 63 b3 08 6d
        E 63 b3 08 6c
        E 63 b3 08 6b
        E 63 b3 08 69
        E 63 b3 08 68
        E 63 b3 08 66
        E 63 b3 08 64
        E 63 b3 08 63
        E 63 b3 08 61
        E 63 b3 08 5e
        E 63 b3 08 5c
        E 63 b3 08 5a
        E 63 b3 08 58
        E 63 b3 08 55
        E 63 b3 08 52
        E 63 b3 08 50
        E 63 b3 08 4e
        E 63 b3 08 4b
        E 63 b3 08 48
        E 63 b3 08 46
        E 63 b3 08 42
        E 63 b3 08 3f
        E 63 b3 08 3d
        E 63 b3 08 3a
        E 63 b3 08 37
        E 63 b3 08 35
        E 63 b3 08 32
        E 63 b3 08 2f
        E 63 b3 08 2c
        E 63 b3 08 29
        E 63 b3 08 26
        E 63 b3 08 24
        E 63 b3 08 22
        E 63 b3 08 1f
        E 63 b3 08 1c
        E 63 b3 08 1a
        E 63 b3 08 18
        E 63 b3 08 15
        E 63 b3 08 13
        E 63 b3 08 11
        E 63 b3 08 0f
        E 63 b3 08 0d
        E 63 b3 08 0b
        E 63 b3 08 09
        E 63 b3 08 09
        E 63 b3 08 07
        E 63 b3 08 06
        E 63 b3 08 04
        E 63 b3 08 03
        E 63 b3 08 02
        E 63 b3 08 01
        E 63 b3 08 00
        E 63 b3 08 00
        E 63 b3 08 00
        E 63 b3 08 00
        E 63 b3 08 00
        E 63 b3 08 00
        E 63 b3 08 00
        E 63 b3 08 00
        E 63 b3 08 00
        E 63 b3 08 01
        E 63 b3 08 02
        E 63 b3 08 03
        E 63 b3 08 04
        E 63 b3 08 05
        E 63 b3 08 06
        E 63 b3 08 08
        E 63 b3 08 09
        E 63 b3 08 0a
        E 63 b3 08 0c
        E 63 b3 08 0e
        E 63 b3 08 10
        E 63 b3 08 12
        E 63 b3 08 14
        E 63 b3 08 16
        E 63 b3 08 19
        E 63 b3 08 1b
        E 63 b3 08 1d
        E 63 b3 08 20
        E 63 b3 08 23
        E 63 b3 08 25
        E 63 b3 08 28
        E 63 b3 08 2b
        E 63 b3 08 2d
        E 63 b3 08 30
        E 63 b3 08 33
        E 63 b3 08 36
        E 63 b3 08 39
        E 7 b3 08 19
        E 7 b3 08 1a
        E 7 b3 08 1c
        E 7 b3 08 1d
        E 7 b3 08 1e
        E 7 b3 08 1f
        E 7 b3 08 20
        E 7 b3 08 22
        E 7 b3 08 23
        E 7 b3 08 24
        E 7 b3 08 25
        E 7 b3 08 26
        E 7 b3 08 27
        E 7 b3 08 28
        E 7 b3 08 29
        E 7 b3 08 2a
        E 7 b3 08 2b
        E 7 b3 08 2c
        E 7 b3 08 2d
        E 7 b3 08 2e
        E 7 b3 08 2e
        E 7 b3 08 2f
        E 7 b3 08 30
        E 7 b3 08 30
        E 7 b3 08 30
        E 7 b3 08 31
        E 7 b3 08 31
        E 7 b3 08 32
        E 7 b3 08 32
        E 7 b3 08 32
        E 7 b3 08 32
        E 7 b3 08 32
        E 7 b3 08 32
        E 7 b3 08 32
        E 7 b3 08 32
        E 7 b3 08 32
        E 7 b3 08 32
        E 7 b3 08 32
        E 7 b3 08 31
        E 7 b3 08 31
        E 7 b3 08 30
        E 7 b3 08 30
        E 7 b3 08 2f
        E 7 b3 08 2e
        E 7 b3 08 2e
        E 7 b3 08 2d
        E 7 b3 08 2c
        E 7 b3 08 2c
        E 7 b3 08 2b
        E 7 b3 08 2a
        E 7 b3 08 29
        E 7 b3 08 28
        E 7 b3 08 27
        E 7 b3 08 26
        E 7 b3 08 24
        E 7 b3 08 23
        E 7 b3 08 22
        E 7 b3 08 21
        E 7 b3 08 20
        E 7 b3 08 1f
        E 7 b3 08 1d
        E 7 b3 08 1c
        E 7 b3 08 1b
        E 7 b3 08 1a
        E 7 b3 08 18
        E 7 b3 08 17
        E 7 b3 08 16
        E 7 b3 08 15
        E 7 b3 08 13
        E 7 b3 08 12
        E 7 b3 08 11
        E 7 b3 08 10
        E 7 b3 08 0f
        E 7 b3 08 0e
        E 7 b3 08 0c
        E 7 b3 08 0b
        E 7 b3 08 0a
        E 7 b3 08 09
        E 7 b3 08 08
        E 7 b3 08 07
        E 7 b3 08 06
        E 7 b3 08 06
        E 7 b3 08 05
        E 7 b3 08 04
        E 7 b3 08 04
        E 7 b3 08 03
        E 7 b3 08 02
        E 7 b3 08 02
        E 7 b3 08 01
        E 7 b3 08 01
        E 7 b3 08 00
        E 7 b3 08 00
        E 7 b3 08 00
        E 7 b3 08 00
        E 7 b3 08 00
        E 7 b3 08 00
        E 7 b3 08 00
        E 7 b3 08 00
        E 7 b3 08 00
        E 7 b3 08 00
        E 7 b3 08 00
        E 7 b3 08 01
        E 7 b3 08 01
        E 7 b3 08 02
        E 7 b3 08 02
        E 7 b3 08 02
        E 7 b3 08 03
        E 7 b3 08 04
        E 7 b3 08 04
        E 7 b3 08 05
        E 7 b3 08 06
        E 7 b3 08 07
        E 7 b3 08 08
        E 7 b3 08 09
        E 7 b3 08 0a
        E 7 b3 08 0b
        E 7 b3 08 0c
        E 7 b3 08 0d
        E 7 b3 08 0e
        E 7 b3 08 0f
        E 7 b3 08 10
        E 7 b3 08 12
        E 7 b3 08 13
        E 7 b3 08 14
        E 7 b3 08 15
        E 7 b3 08 16
        E 7 b3 08 18
        E 7 b3 08 19
        E 71 b3 08 06
        E 71 b3 08 06
        E 71 b3 08 07
        E 71 b3 08 07
        E 71 b3 08 07
        E 71 b3 08 07
        E 71 b3 08 08
        E 71 b3 08 08
        E 71 b3 08 08
        E 71 b3 08 09
        E 71 b3 08 09
        E 71 b3 08 09
        E 71 b3 08 09
        E 71 b3 08 0a
        E 71 b3 08 0a
        E 71 b3 08 0a
        E 71 b3 08 0a
        E 71 b3 08 0b
        E 71 b3 08 0b
        E 71 b3 08 0b
        E 71 b3 08 0b
        E 71 b3 08 0b
        E 71 b3 08 0c
        E 71 b3 08 0c
        E 71 b3 08 0c
        E 71 b3 08 0c
        E 71 b3 08 0c
        E 71 b3 08 0c
        E 71 b3 08 0c
        E 71 b3 08 0c
        E 71 b3 08 0c
        E 71 b3 08 0c
        E 71 b3 08 0c
        E 71 b3 08 0c
        E 71 b3 08 0c
        E 71 b3 08 0c
        E 71 b3 08 0c
        E 71 b3 08 0c
        E 71 b3 08 0c
        E 71 b3 08 0c
        E 71 b3 08 0c
        E 71 b3 08 0c
        E 71 b3 08 0b
        E 71 b3 08 0b
        E 71 b3 08 0b
        E 71 b3 08 0b
        E 71 b3 08 0b
        E 71 b3 08 0b
        E 71 b3 08 0a
        E 71 b3 08 0a
        E 71 b3 08 0a
        E 71 b3 08 0a
        E 71 b3 08 09
        E 71 b3 08 09
        E 71 b3 08 09
        E 71 b3 08 08
        E 71 b3 08 08
        E 71 b3 08 08
        E 71 b3 08 08
        E 71 b3 08 07
        E 71 b3 08 07
        E 71 b3 08 07
        E 71 b3 08 06
        E 71 b3 08 06
        E 71 b3 08 06
        E 71 b3 08 05
        E 71 b3 08 05
        E 71 b3 08 05
        E 71 b3 08 04
        E 71 b3 08 04
        E 71 b3 08 04
        E 71 b3 08 04
        E 71 b3 08 03
        E 71 b3 08 03
        E 71 b3 08 03
        E 71 b3 08 02
        E 71 b3 08 02
        E 71 b3 08 02
        E 71 b3 08 02
        E 71 b3 08 01
        E 71 b3 08 01
        E 71 b3 08 01
        E 71 b3 08 01
        E 71 b3 08 01
        E 71 b3 08 01
        E 71 b3 08 00
        E 71 b3 08 00
        E 71 b3 08 00
        E 71 b3 08 00
        E 71 b3 08 00
        E 71 b3 08 00
        E 71 b3 08 00
        E 71 b3 08 00
        E 71 b3 08 00
        E 71 b3 08 00
        E 71 b3 08 00
        E 71 b3 08 00
        E 71 b3 08 00
        E 71 b3 08 00
        E 71 b3 08 00
        E 71 b3 08 00
        E 71 b3 08 00
        E 71 b3 08 00
        E 71 b3 08 00
        E 71 b3 08 00
        E 71 b3 08 00
        E 71 b3 08 00
        E 71 b3 08 01
        E 71 b3 08 01
        E 71 b3 08 01
        E 71 b3 08 01
        E 71 b3 08 01
        E 71 b3 08 02
        E 71 b3 08 02
        E 71 b3 08 02
        E 71 b3 08 02
        E 71 b3 08 03
        E 71 b3 08 03
        E 71 b3 08 03
        E 71 b3 08 03
        E 71 b3 08 04
        E 71 b3 08 04
        E 71 b3 08 04
        E 71 b3 08 05
        E 71 b3 08 05
        E 71 b3 08 05
        E 71 b3 08 06
        E 71 b3 08 06
        E 63 b3 08 2c
        E 63 b3 08 2e
        E 63 b3 08 31
        E 63 b3 08 33
        E 63 b3 08 35
        E 63 b3 08 37
        E 63 b3 08 39
        E 63 b3 08 3b
        E 63 b3 08 3d
        E 63 b3 08 3f
        E 63 b3 08 41
        E 63 b3 08 43
        E 63 b3 08 45
        E 63 b3 08 47
        E 63 b3 08 48
        E 63 b3 08 4a
        E 63 b3 08 4c
        E 63 b3 08 4d
        E 63 b3 08 4f
        E 63 b3 08 50
        E 63 b3 08 51
        E 63 b3 08 52
        E 63 b3 08 54
        E 63 b3 08 54
        E 63 b3 08 55
        E 63 b3 08 56
        E 63 b3 08 56
        E 63 b3 08 57
        E 63 b3 08 58
        E 63 b3 08 58
        E 63 b3 08 58
        E 63 b3 08 58
        E 63 b3 08 58
        E 63 b3 08 58
        E 63 b3 08 58
        E 63 b3 08 58
        E 63 b3 08 58
        E 63 b3 08 57
        E 63 b3 08 56
        E 63 b3 08 56
        E 63 b3 08 55
        E 63 b3 08 54
        E 63 b3 08 53
        E 63 b3 08 51
        E 63 b3 08 51
        E 63 b3 08 4f
        E 63 b3 08 4e
        E 63 b3 08 4d
        E 63 b3 08 4b
        E 63 b3 08 49
        E 63 b3 08 48
        E 63 b3 08 46
        E 63 b3 08 44
        E 63 b3 08 42
        E 63 b3 08 40
        E 63 b3 08 3e
        E 63 b3 08 3c
        E 63 b3 08 3a
        E 63 b3 08 38
        E 63 b3 08 36
        E 63 b3 08 33
        E 63 b3 08 31
        E 63 b3 08 2f
        E 63 b3 08 2d
        E 63 b3 08 2b
        E 63 b3 08 29
        E 63 b3 08 27
        E 63 b3 08 25
        E 63 b3 08 22
        E 63 b3 08 20
        E 63 b3 08 1e
        E 63 b3 08 1c
        E 63 b3 08 1a
        E 63 b3 08 18
        E 63 b3 08 16
        E 63 b3 08 14
        E 63 b3 08 12
        E 63 b3 08 10
        E 63 b3 08 0f
        E 63 b3 08 0d
        E 63 b3 08 0b
        E 63 b3 08 0a
        E 63 b3 08 09
        E 63 b3 08 07
        E 63 b3 08 07
        E 63 b3 08 05
        E 63 b3 08 04
        E 63 b3 08 03
        E 63 b3 08 02
        E 63 b3 08 02
        E 63 b3 08 01
        E 63 b3 08 00
        E 63 b3 08 00
        E 63 b3 08 00
        E 63 b3 08 00
        E 63 b3 08 00
        E 63 b3 08 00
        E 63 b3 08 00
        E 63 b3 08 00
        E 63 b3 08 00
        E 63 b3 08 01
        E 63 b3 08 02
        E 63 b3 08 02
        E 63 b3 08 03
        E 63 b3 08 04
        E 63 b3 08 04
        E 63 b3 08 06
        E 63 b3 08 07
        E 63 b3 08 08
        E 63 b3 08 09
        E 63 b3 08 0b
        E 63 b3 08 0c
        E 63 b3 08 0e
        E 63 b3 08 10
        E 63 b3 08 11
        E 63 b3 08 13
        E 63 b3 08 15
        E 63 b3 08 17
        E 63 b3 08 19
        E 63 b3 08 1b
        E 63 b3 08 1d
        E 63 b3 08 1f
        E 63 b3 08 21
        E 63 b3 08 23
        E 63 b3 08 25
        E 63 b3 08 27
        E 63 b3 08 2a
        E 63 b3 08 2c
        E 71 b3 08 13
        E 71 b3 08 14
        E 71 b3 08 15
        E 71 b3 08 15
        E 71 b3 08 16
        E 71 b3 08 17
        E 71 b3 08 18
        E 71 b3 08 19
        E 71 b3 08 1a
        E 71 b3 08 1b
        E 71 b3 08 1c
        E 71 b3 08 1c
        E 71 b3 08 1d
        E 71 b3 08 1e
        E 71 b3 08 1f
        E 71 b3 08 1f
        E 71 b3 08 20
        E 71 b3 08 21
        E 71 b3 08 21
        E 71 b3 08 22
        E 71 b3 08 23
        E 71 b3 08 23
        E 71 b3 08 24
        E 71 b3 08 24
        E 71 b3 08 24
        E 71 b3 08 24
        E 71 b3 08 25
        E 71 b3 08 25
        E 71 b3 08 25
        E 71 b3 08 25
        E 71 b3 08 26
        E 71 b3 08 26
        E 71 b3 08 26
        E 71 b3 08 26
        E 71 b3 08 26
        E 71 b3 08 25
        E 71 b3 08 25
        E 71 b3 08 25
        E 71 b3 08 25
        E 71 b3 08 24
        E 71 b3 08 24
        E 71 b3 08 24
        E 71 b3 08 23
        E 71 b3 08 23
        E 71 b3 08 22
        E 71 b3 08 22
        E 71 b3 08 21
        E 71 b3 08 21
        E 71 b3 08 20
        E 71 b3 08 1f
        E 71 b3 08 1e
        E 71 b3 08 1e
        E 71 b3 08 1d
        E 71 b3 08 1c
        E 71 b3 08 1b
        E 71 b3 08 1a
        E 71 b3 08 1a
        E 71 b3 08 19
        E 71 b3 08 18
        E 71 b3 08 17
        E 71 b3 08 16
        E 71 b3 08 15
        E 71 b3 08 14
        E 71 b3 08 13
        E 71 b3 08 12
        E 71 b3 08 11
        E 71 b3 08 10
        E 71 b3 08 0f
        E 71 b3 08 0e
        E 71 b3 08 0d
        E 71 b3 08 0c
        E 71 b3 08 0c
        E 71 b3 08 0b
        E 71 b3 08 0a
        E 71 b3 08 09
        E 71 b3 08 08
        E 71 b3 08 08
        E 71 b3 08 07
        E 71 b3 08 06
        E 71 b3 08 05
        E 71 b3 08 05
        E 71 b3 08 04
        E 71 b3 08 03
        E 71 b3 08 03
        E 71 b3 08 03
        E 71 b3 08 02
        E 71 b3 08 02
        E 71 b3 08 01
        E 71 b3 08 01
        E 71 b3 08 00
        E 71 b3 08 00
        E 71 b3 08 00
        E 71 b3 08 00
        E 71 b3 08 00
        E 71 b3 08 00
        E 71 b3 08 00
        E 71 b3 08 00
        E 71 b3 08 00
        E 71 b3 08 00
        E 71 b3 08 00
        E 71 b3 08 00
        E 71 b3 08 00
        E 71 b3 08 01
        E 71 b3 08 01
        E 71 b3 08 01
        E 71 b3 08 02
        E 71 b3 08 02
        E 71 b3 08 03
        E 71 b3 08 03
        E 71 b3 08 04
        E 71 b3 08 04
        E 71 b3 08 05
        E 71 b3 08 06
        E 71 b3 08 06
        E 71 b3 08 07
        E 71 b3 08 08
        E 71 b3 08 09
        E 71 b3 08 09
        E 71 b3 08 0a
        E 71 b3 08 0b
        E 71 b3 08 0c
        E 71 b3 08 0d
        E 71 b3 08 0e
        E 71 b3 08 0f
        E 71 b3 08 10
        E 71 b3 08 11
        E 71 b3 08 12
        E 71 b3 08 13
        E 23 b3 08 26
        E 23 b3 08 28
        E 23 b3 08 2a
        E 23 b3 08 2b
        E 23 b3 08 2d
        E 23 b3 08 2f
        E 23 b3 08 31
        E 23 b3 08 33
        E 23 b3 08 34
        E 23 b3 08 36
        E 23 b3 08 38
        E 23 b3 08 39
        E 23 b3 08 3b
        E 23 b3 08 3d
        E 23 b3 08 3e
        E 23 b3 08 3f
        E 23 b3 08 41
        E 23 b3 08 42
        E 23 b3 08 43
        E 23 b3 08 45
        E 23 b3 08 46
        E 23 b3 08 46
        E 23 b3 08 48
        E 23 b3 08 48
        E 23 b3 08 49
        E 23 b3 08 49
        E 23 b3 08 4a
        E 23 b3 08 4b
        E 23 b3 08 4b
        E 23 b3 08 4b
        E 23 b3 08 4c
        E 23 b3 08 4c
        E 23 b3 08 4c
        E 23 b3 08 4c
        E 23 b3 08 4c
        E 23 b3 08 4b
        E 23 b3 08 4b
        E 23 b3 08 4b
        E 23 b3 08 4a
        E 23 b3 08 49
        E 23 b3 08 49
        E 23 b3 08 48
        E 23 b3 08 47
        E 23 b3 08 46
        E 23 b3 08 45
        E 23 b3 08 44
        E 23 b3 08 43
        E 23 b3 08 42
        E 23 b3 08 40
        E 23 b3 08 3f
        E 23 b3 08 3d
        E 23 b3 08 3c
        E 23 b3 08 3a
        E 23 b3 08 39
        E 23 b3 08 37
        E 23 b3 08 35
        E 23 b3 08 34
        E 23 b3 08 32
        E 23 b3 08 30
        E 23 b3 08 2e
        E 23 b3 08 2c
        E 23 b3 08 2a
        E 23 b3 08 28
        E 23 b3 08 27
        E 23 b3 08 25
        E 23 b3 08 23
        E 23 b3 08 21
        E 23 b3 08 1f
        E 23 b3 08 1d
        E 23 b3 08 1b
        E 23 b3 08 19
        E 23 b3 08 18
        E 23 b3 08 16
        E 23 b3 08 15
        E 23 b3 08 13
        E 23 b3 08 11
        E 23 b3 08 10
        E 23 b3 08 0e
        E 23 b3 08 0d
        E 23 b3 08 0b
        E 23 b3 08 0a
        E 23 b3 08 09
        E 23 b3 08 07
        E 23 b3 08 06
        E 23 b3 08 06
        E 23 b3 08 04
        E 23 b3 08 04
        E 23 b3 08 03
        E 23 b3 08 02
        E 23 b3 08 01
        E 23 b3 08 01
        E 23 b3 08 00
        E 23 b3 08 00
        E 23 b3 08 00
        E 23 b3 08 00
        E 23 b3 08 00
        E 23 b3 08 00
        E 23 b3 08 00
        E 23 b3 08 00
        E 23 b3 08 00
        E 23 b3 08 01
        E 23 b3 08 01
        E 23 b3 08 02
        E 23 b3 08 03
        E 23 b3 08 03
        E 23 b3 08 04
        E 23 b3 08 05
        E 23 b3 08 06
        E 23 b3 08 07
        E 23 b3 08 08
        E 23 b3 08 09
        E 23 b3 08 0a
        E 23 b3 08 0c
        E 23 b3 08 0d
        E 23 b3 08 0f
        E 23 b3 08 10
        E 23 b3 08 12
        E 23 b3 08 13
        E 23 b3 08 15
        E 23 b3 08 17
        E 23 b3 08 19
        E 23 b3 08 1b
        E 23 b3 08 1c
        E 23 b3 08 1e
        E 23 b3 08 20
        E 23 b3 08 22
        E 23 b3 08 24
        E 23 b3 08 26
        E 63 b3 08 39
        E 63 b3 08 3c
        E 63 b3 08 3f
        E 63 b3 08 41
        E 63 b3 08 44
        E 63 b3 08 47
        E 63 b3 08 49
        E 63 b3 08 4c
        E 63 b3 08 4f
        E 63 b3 08 51
        E 63 b3 08 54
        E 63 b3 08 56
        E 63 b3 08 59
        E 63 b3 08 5b
        E 63 b3 08 5d
        E 63 b3 08 5f
        E 63 b3 08 62
        E 63 b3 08 63
        E 63 b3 08 65
        E 63 b3 08 67
        E 63 b3 08 69
        E 63 b3 08 6a
        E 63 b3 08 6c
        E 63 b3 08 6c
        E 63 b3 08 6d
        E 63 b3 08 6e
        E 63 b3 08 6f
        E 63 b3 08 70
        E 63 b3 08 71
        E 63 b3 08 71
        E 63 b3 08 72
        E 63 b3 08 72
        E 63 b3 08 72
        E 63 b3 08 72
        E 63 b3 08 72
        E 63 b3 08 71
        E 63 b3 08 71
        E 63 b3 08 70
        E 63 b3 08 6f
        E 63 b3 08 6e
        E 63 b3 08 6d
        E 63 b3 08 6c
        E 63 b3 08 6b
        E 63 b3 08 69
        E 63 b3 08 68
        E 63 b3 08 66
        E 63 b3 08 64
        E 63 b3 08 63
        E 63 b3 08 61
        E 63 b3 08 5e
        E 63 b3 08 5c
        E 63 b3 08 5a
        E 63 b3 08 58
        E 63 b3 08 55
        E 63 b3 08 52
        E 63 b3 08 50
        E 63 b3 08 4e
        E 63 b3 08 4b
        E 63 b3 08 48
        E 63 b3 08 46
        E 63 b3 08 42
        E 63 b3 08 3f
        E 63 b3 08 3d
        E 63 b3 08 3a
        E 63 b3 08 37
        E 63 b3 08 35
        E 63 b3 08 32
        E 63 b3 08 2f
        E 63 b3 08 2c
        E 63 b3 08 29
        E 63 b3 08 26
        E 63 b3 08 24
        E 63 b3 08 22
        E 63 b3 08 1f
        E 63 b3 08 1c
        E 63 b3 08 1a
        E 63 b3 08 18
        E 63 b3 08 15
        E 63 b3 08 13
        E 63 b3 08 11
        E 63 b3 08 0f
        E 63 b3 08 0d
        E 63 b3 08 0b
        E 63 b3 08 09
        E 63 b3 08 09
        E 63 b3 08 07
        E 63 b3 08 06
        E 63 b3 08 04
        E 63 b3 08 03
        E 63 b3 08 02
        E 63 b3 08 01
        E 63 b3 08 00
        E 63 b3 08 00
        E 63 b3 08 00
        E 63 b3 08 00
        E 63 b3 08 00
        E 63 b3 08 00
        E 63 b3 08 00
        E 63 b3 08 00
        E 63 b3 08 00
        E 63 b3 08 01
        E 63 b3 08 02
        E 63 b3 08 03
        E 63 b3 08 04
        E 63 b3 08 05
        E 63 b3 08 06
        E 63 b3 08 08
        E 63 b3 08 09
        E 63 b3 08 0a
        E 63 b3 08 0c
        E 63 b3 08 0e
        E 63 b3 08 10
        E 63 b3 08 12
        E 63 b3 08 14
        E 63 b3 08 16
        E 63 b3 08 19
        E 63 b3 08 1b
        E 63 b3 08 1d
        E 63 b3 08 20
        E 63 b3 08 23
        E 63 b3 08 25
        E 63 b3 08 28
        E 63 b3 08 2b
        E 63 b3 08 2d
        E 63 b3 08 30
        E 63 b3 08 33
        E 63 b3 08 36
        E 63 b3 08 39
        E 7 b3 08 19
        E 7 b3 08 1a
        E 7 b3 08 1c
        E 7 b3 08 1d
        E 7 b3 08 1e
        E 7 b3 08 1f
        E 7 b3 08 20
        E 7 b3 08 22
        E 7 b3 08 23
        E 7 b3 08 24
        E 7 b3 08 25
        E 7 b3 08 26
        E 7 b3 08 27
        E 7 b3 08 28
        E 7 b3 08 29
        E 7 b3 08 2a
        E 7 b3 08 2b
        E 7 b3 08 2c
        E 7 b3 08 2d
        E 7 b3 08 2e
        E 7 b3 08 2e
        E 7 b3 08 2f
        E 7 b3 08 30
        E 7 b3 08 30
        E 7 b3 08 30
        E 7 b3 08 31
        E 7 b3 08 31
        E 7 b3 08 32
        E 7 b3 08 32
        E 7 b3 08 32
        E 7 b3 08 32
        E 7 b3 08 32
        E 7 b3 08 32
        E 7 b3 08 32
        E 7 b3 08 32
        E 7 b3 08 32
        E 7 b3 08 32
        E 7 b3 08 32
        E 7 b3 08 31
        E 7 b3 08 31
        E 7 b3 08 30
        E 7 b3 08 30
        E 7 b3 08 2f
        E 7 b3 08 2e
        E 7 b3 08 2e
        E 7 b3 08 2d
        E 7 b3 08 2c
        E 7 b3 08 2c
        E 7 b3 08 2b
        E 7 b3 08 2a
        E 7 b3 08 29
        E 7 b3 08 28
        E 7 b3 08 27
        E 7 b3 08 26
        E 7 b3 08 24
        E 7 b3 08 23
        E 7 b3 08 22
        E 7 b3 08 21
        E 7 b3 08 20
        E 7 b3 08 1f
        E 7 b3 08 1d
        E 7 b3 08 1c
        E 7 b3 08 1b
        E 7 b3 08 1a
        E 7 b3 08 18
        E 7 b3 08 17
        E 7 b3 08 16
        E 7 b3 08 15
        E 7 b3 08 13
        E 7 b3 08 12
        E 7 b3 08 11
        E 7 b3 08 10
        E 7 b3 08 0f
        E 7 b3 08 0e
        E 7 b3 08 0c
        E 7 b3 08 0b
        E 7 b3 08 0a
        E 7 b3 08 09
        E 7 b3 08 08
        E 7 b3 08 07
        E 7 b3 08 06
        E 7 b3 08 06
        E 7 b3 08 05
        E 7 b3 08 04
        E 7 b3 08 04
        E 7 b3 08 03
        E 7 b3 08 02
        E 7 b3 08 02
        E 7 b3 08 01
        E 7 b3 08 01
        E 7 b3 08 00
        E 7 b3 08 00
        E 7 b3 08 00
        E 7 b3 08 00
        E 7 b3 08 00
        E 7 b3 08 00
        E 7 b3 08 00
        E 7 b3 08 00
        E 7 b3 08 00
        E 7 b3 08 00
        E 7 b3 08 00
        E 7 b3 08 01
        E 7 b3 08 01
        E 7 b3 08 02
        E 7 b3 08 02
        E 7 b3 08 02
        E 7 b3 08 03
        E 7 b3 08 04
        E 7 b3 08 04
        E 7 b3 08 05
        E 7 b3 08 06
        E 7 b3 08 07
        E 7 b3 08 08
        E 7 b3 08 09
        E 7 b3 08 0a
        E 7 b3 08 0b
        E 7 b3 08 0c
        E 7 b3 08 0d
        E 7 b3 08 0e
        E 7 b3 08 0f
        E 7 b3 08 10
        E 7 b3 08 12
        E 7 b3 08 13
        E 7 b3 08 14
        E 7 b3 08 15
        E 7 b3 08 16
        E 7 b3 08 18
        E 7 b3 08 19
        E 71 b3 08 13
        E 71 b3 08 14
        E 71 b3 08 15
        E 71 b3 08 15
        E 71 b3 08 16
        E 71 b3 08 17
        E 71 b3 08 18
        E 71 b3 08 19
        E 71 b3 08 1a
        E 71 b3 08 1b
        E 71 b3 08 1c
        E 71 b3 08 1c
        E 71 b3 08 1d
        E 71 b3 08 1e
        E 71 b3 08 1f
        E 71 b3 08 1f
        E 71 b3 08 20
        E 71 b3 08 21
        E 71 b3 08 21
        E 71 b3 08 22
        E 71 b3 08 23
        E 71 b3 08 23
        E 71 b3 08 24
        E 71 b3 08 24
        E 71 b3 08 24
        E 71 b3 08 24
        E 71 b3 08 25
        E 71 b3 08 25
        E 71 b3 08 25
        E 71 b3 08 25
        E 71 b3 08 26
        E 71 b3 08 26
        E 71 b3 08 26
        E 71 b3 08 26
        E 71 b3 08 26
        E 71 b3 08 25
        E 71 b3 08 25
        E 71 b3 08 25
        E 71 b3 08 25
        E 71 b3 08 24
        E 71 b3 08 24
        E 71 b3 08 24
        E 71 b3 08 23
        E 71 b3 08 23
        E 71 b3 08 22
        E 71 b3 08 22
        E 71 b3 08 21
        E 71 b3 08 21
        E 71 b3 08 20
        E 71 b3 08 1f
        E 71 b3 08 1e
        E 71 b3 08 1e
        E 71 b3 08 1d
        E 71 b3 08 1c
        E 71 b3 08 1b
        E 71 b3 08 1a
        E 71 b3 08 1a
        E 71 b3 08 19
        E 71 b3 08 18
        E 71 b3 08 17
        E 71 b3 08 16
        E 71 b3 08 15
        E 71 b3 08 14
        E 71 b3 08 13
        E 71 b3 08 12
        E 71 b3 08 11
        E 71 b3 08 10
        E 71 b3 08 0f
        E 71 b3 08 0e
        E 71 b3 08 0d
        E 71 b3 08 0c
        E 71 b3 08 0c
        E 71 b3 08 0b
        E 71 b3 08 0a
        E 71 b3 08 09
        E 71 b3 08 08
        E 71 b3 08 08
        E 71 b3 08 07
        E 71 b3 08 06
        E 71 b3 08 05
        E 71 b3 08 05
        E 71 b3 08 04
        E 71 b3 08 03
        E 71 b3 08 03
        E 71 b3 08 03
        E 71 b3 08 02
        E 71 b3 08 02
        E 71 b3 08 01
        E 71 b3 08 01
        E 71 b3 08 00
        E 71 b3 08 00
        E 71 b3 08 00
        E 71 b3 08 00
        E 71 b3 08 00
        E 71 b3 08 00
        E 71 b3 08 00
        E 71 b3 08 00
        E 71 b3 08 00
        E 71 b3 08 00
        E 71 b3 08 00
        E 71 b3 08 00
        E 71 b3 08 00
        E 71 b3 08 01
        E 71 b3 08 01
        E 71 b3 08 01
        E 71 b3 08 02
        E 71 b3 08 02
        E 71 b3 08 03
        E 71 b3 08 03
        E 71 b3 08 04
        E 71 b3 08 04
        E 71 b3 08 05
        E 71 b3 08 06
        E 71 b3 08 06
        E 71 b3 08 07
        E 71 b3 08 08
        E 71 b3 08 09
        E 71 b3 08 09
        E 71 b3 08 0a
        E 71 b3 08 0b
        E 71 b3 08 0c
        E 71 b3 08 0d
        E 71 b3 08 0e
        E 71 b3 08 0f
        E 71 b3 08 10
        E 71 b3 08 11
        E 71 b3 08 12
        E 71 b3 08 13
        E 23 b3 08 26
        E 23 b3 08 28
        E 23 b3 08 2a
        E 23 b3 08 2b
        E 23 b3 08 2d
        E 23 b3 08 2f
        E 23 b3 08 31
        E 23 b3 08 33
        E 23 b3 08 34
        E 23 b3 08 36
        E 23 b3 08 38
        E 23 b3 08 39
        E 23 b3 08 3b
        E 23 b3 08 3d
        E 23 b3 08 3e
        E 23 b3 08 3f
        E 23 b3 08 41
        E 23 b3 08 42
        E 23 b3 08 43
        E 23 b3 08 45
        E 23 b3 08 46
        E 23 b3 08 46
        E 23 b3 08 48
        E 23 b3 08 48
        E 23 b3 08 49
        E 23 b3 08 49
        E 23 b3 08 4a
        E 23 b3 08 4b
        E 23 b3 08 4b
        E 23 b3 08 4b
        E 23 b3 08 4c
        E 23 b3 08 4c
        E 23 b3 08 4c
        E 23 b3 08 4c
        E 23 b3 08 4c
        E 23 b3 08 4b
        E 23 b3 08 4b
        E 23 b3 08 4b
        E 23 b3 08 4a
        E 23 b3 08 49
        E 23 b3 08 49
        E 23 b3 08 48
        E 23 b3 08 47
        E 23 b3 08 46
        E 23 b3 08 45
        E 23 b3 08 44
        E 23 b3 08 43
        E 23 b3 08 42
        E 23 b3 08 40
        E 23 b3 08 3f
        E 23 b3 08 3d
        E 23 b3 08 3c
        E 23 b3 08 3a
        E 23 b3 08 39
        E 23 b3 08 37
        E 23 b3 08 35
        E 23 b3 08 34
        E 23 b3 08 32
        E 23 b3 08 30
        E 23 b3 08 2e
        E 23 b3 08 2c
        E 23 b3 08 2a
        E 23 b3 08 28
        E 23 b3 08 27
        E 23 b3 08 25
        E 23 b3 08 23
        E 23 b3 08 21
        E 23 b3 08 1f
        E 23 b3 08 1d
        E 23 b3 08 1b
        E 23 b3 08 19
        E 23 b3 08 18
        E 23 b3 08 16
        E 23 b3 08 15
        E 23 b3 08 13
        E 23 b3 08 11
        E 23 b3 08 10
        E 23 b3 08 0e
        E 23 b3 08 0d
        E 23 b3 08 0b
        E 23 b3 08 0a
        E 23 b3 08 09
        E 23 b3 08 07
        E 23 b3 08 06
        E 23 b3 08 06
        E 23 b3 08 04
        E 23 b3 08 04
        E 23 b3 08 03
        E 23 b3 08 02
        E 23 b3 08 01
        E 23 b3 08 01
        E 23 b3 08 00
        E 23 b3 08 00
        E 23 b3 08 00
        E 23 b3 08 00
        E 23 b3 08 00
        E 23 b3 08 00
        E 23 b3 08 00
        E 23 b3 08 00
        E 23 b3 08 00
        E 23 b3 08 01
        E 23 b3 08 01
        E 23 b3 08 02
        E 23 b3 08 03
        E 23 b3 08 03
        E 23 b3 08 04
        E 23 b3 08 05
        E 23 b3 08 06
        E 23 b3 08 07
        E 23 b3 08 08
        E 23 b3 08 09
        E 23 b3 08 0a
        E 23 b3 08 0c
        E 23 b3 08 0d
        E 23 b3 08 0f
        E 23 b3 08 10
        E 23 b3 08 12
        E 23 b3 08 13
        E 23 b3 08 15
        E 23 b3 08 17
        E 23 b3 08 19
        E 23 b3 08 1b
        E 23 b3 08 1c
        E 23 b3 08 1e
        E 23 b3 08 20
        E 23 b3 08 22
        E 23 b3 08 24
        E 23 b3 08 26
        E 63 b3 08 39
        E 63 b3 08 3c
        E 63 b3 08 3f
        E 63 b3 08 41
        E 63 b3 08 44
        E 63 b3 08 47
        E 63 b3 08 49
        E 63 b3 08 4c
        E 63 b3 08 4f
        E 63 b3 08 51
        E 63 b3 08 54
        E 63 b3 08 56
        E 63 b3 08 59
        E 63 b3 08 5b
        E 63 b3 08 5d
        E 63 b3 08 5f
        E 63 b3 08 62
        E 63 b3 08 63
        E 63 b3 08 65
        E 63 b3 08 67
        E 63 b3 08 69
        E 63 b3 08 6a
        E 63 b3 08 6c
        E 63 b3 08 6c
        E 63 b3 08 6d
        E 63 b3 08 6e
        E 63 b3 08 6f
        E 63 b3 08 70
        E 63 b3 08 71
        E 63 b3 08 71
        E 63 b3 08 72
        E 63 b3 08 72
        E 63 b3 08 72
        E 63 b3 08 72
        E 63 b3 08 72
        E 63 b3 08 71
        E 63 b3 08 71
        E 63 b3 08 70
        E 63 b3 08 6f
        E 63 b3 08 6e
        E 63 b3 08 6d
        E 63 b3 08 6c
        E 63 b3 08 6b
        E 63 b3 08 69
        E 63 b3 08 68
        E 63 b3 08 66
        E 63 b3 08 64
        E 63 b3 08 63
        E 63 b3 08 61
        E 63 b3 08 5e
        E 63 b3 08 5c
        E 63 b3 08 5a
        E 63 b3 08 58
        E 63 b3 08 55
        E 63 b3 08 52
        E 63 b3 08 50
        E 63 b3 08 4e
        E 63 b3 08 4b
        E 63 b3 08 48
        E 63 b3 08 46
        E 63 b3 08 42
        E 63 b3 08 3f
        E 63 b3 08 3d
        E 63 b3 08 3a
        E 63 b3 08 37
        E 63 b3 08 35
        E 63 b3 08 32
        E 63 b3 08 2f
        E 63 b3 08 2c
        E 63 b3 08 29
        E 63 b3 08 26
        E 63 b3 08 24
        E 63 b3 08 22
        E 63 b3 08 1f
        E 63 b3 08 1c
        E 63 b3 08 1a
        E 63 b3 08 18
        E 63 b3 08 15
        E 63 b3 08 13
        E 63 b3 08 11
        E 63 b3 08 0f
        E 63 b3 08 0d
        E 63 b3 08 0b
        E 63 b3 08 09
        E 63 b3 08 09
        E 63 b3 08 07
        E 63 b3 08 06
        E 63 b3 08 04
        E 63 b3 08 03
        E 63 b3 08 02
        E 63 b3 08 01
        E 63 b3 08 00
        E 63 b3 08 00
        E 63 b3 08 00
        E 63 b3 08 00
        E 63 b3 08 00
        E 63 b3 08 00
        E 63 b3 08 00
        E 63 b3 08 00
        E 63 b3 08 00
        E 63 b3 08 01
        E 63 b3 08 02
        E 63 b3 08 03
        E 63 b3 08 04
        E 63 b3 08 05
        E 63 b3 08 06
        E 63 b3 08 08
        E 63 b3 08 09
        E 63 b3 08 0a
        E 63 b3 08 0c
        E 63 b3 08 0e
        E 63 b3 08 10
        E 63 b3 08 12
        E 63 b3 08 14
        E 63 b3 08 16
        E 63 b3 08 19
        E 63 b3 08 1b
        E 63 b3 08 1d
        E 63 b3 08 20
        E 63 b3 08 23
        E 63 b3 08 25
        E 63 b3 08 28
        E 63 b3 08 2b
        E 63 b3 08 2d
        E 63 b3 08 30
        E 63 b3 08 33
        E 63 b3 08 36
        E 63 b3 08 39
        E 7 b3 08 19
        E 7 b3 08 1a
        E 7 b3 08 1c
        E 7 b3 08 1d
        E 7 b3 08 1e
        E 7 b3 08 1f
        E 7 b3 08 20
        E 7 b3 08 22
        E 7 b3 08 23
        E 7 b3 08 24
        E 7 b3 08 25
        E 7 b3 08 26
        E 7 b3 08 27
        E 7 b3 08 28
        E 7 b3 08 29
        E 7 b3 08 2a
        E 7 b3 08 2b
        E 7 b3 08 2c
        E 7 b3 08 2d
        E 7 b3 08 2e
        E 7 b3 08 2e
        E 7 b3 08 2f
        E 7 b3 08 30
        E 7 b3 08 30
        E 7 b3 08 30
        E 7 b3 08 31
        E 7 b3 08 31
        E 7 b3 08 32
        E 7 b3 08 32
        E 7 b3 08 32
        E 7 b3 08 32
        E 7 b3 08 32
        E 7 b3 08 32
        E 7 b3 08 32
        E 7 b3 08 32
        E 7 b3 08 32
        E 7 b3 08 32
        E 7 b3 08 32
        E 7 b3 08 31
        E 7 b3 08 31
        E 7 b3 08 30
        E 7 b3 08 30
        E 7 b3 08 2f
        E 7 b3 08 2e
        E 7 b3 08 2e
        E 7 b3 08 2d
        E 7 b3 08 2c
        E 7 b3 08 2c
        E 7 b3 08 2b
        E 7 b3 08 2a
        E 7 b3 08 29
        E 7 b3 08 28
        E 7 b3 08 27
        E 7 b3 08 26
        E 7 b3 08 24
        E 7 b3 08 23
        E 7 b3 08 22
        E 7 b3 08 21
        E 7 b3 08 20
        E 7 b3 08 1f
        E 7 b3 08 1d
        E 7 b3 08 1c
        E 7 b3 08 1b
        E 7 b3 08 1a
        E 7 b3 08 18
        E 7 b3 08 17
        E 7 b3 08 16
        E 7 b3 08 15
        E 7 b3 08 13
        E 7 b3 08 12
        E 7 b3 08 11
        E 7 b3 08 10
        E 7 b3 08 0f
        E 7 b3 08 0e
        E 7 b3 08 0c
        E 7 b3 08 0b
        E 7 b3 08 0a
        E 7 b3 08 09
        E 7 b3 08 08
        E 7 b3 08 07
        E 7 b3 08 06
        E 7 b3 08 06
        E 7 b3 08 05
        E 7 b3 08 04
        E 7 b3 08 04
        E 7 b3 08 03
        E 7 b3 08 02
        E 7 b3 08 02
        E 7 b3 08 01
        E 7 b3 08 01
        E 7 b3 08 00
        E 7 b3 08 00
        E 7 b3 08 00
        E 7 b3 08 00
        E 7 b3 08 00
        E 7 b3 08 00
        E 7 b3 08 00
        E 7 b3 08 00
        E 7 b3 08 00
        E 7 b3 08 00
        E 7 b3 08 00
        E 7 b3 08 01
        E 7 b3 08 01
        E 7 b3 08 02
        E 7 b3 08 02
        E 7 b3 08 02
        E 7 b3 08 03
        E 7 b3 08 04
        E 7 b3 08 04
        E 7 b3 08 05
        E 7 b3 08 06
        E 7 b3 08 07
        E 7 b3 08 08
        E 7 b3 08 09
        E 7 b3 08 0a
        E 7 b3 08 0b
        E 7 b3 08 0c
        E 7 b3 08 0d
        E 7 b3 08 0e
        E 7 b3 08 0f
        E 7 b3 08 10
        E 7 b3 08 12
        E 7 b3 08 13
        E 7 b3 08 14
        E 7 b3 08 15
        E 7 b3 08 16
        E 7 b3 08 18
        E 7 b3 08 19
        E 71 b3 08 06
        E 71 b3 08 06
        E 71 b3 08 07
        E 71 b3 08 07
        E 71 b3 08 07
        E 71 b3 08 07
        E 71 b3 08 08
        E 71 b3 08 08
        E 71 b3 08 08
        E 71 b3 08 09
        E 71 b3 08 09
        E 71 b3 08 09
        E 71 b3 08 09
        E 71 b3 08 0a
        E 71 b3 08 0a
        E 71 b3 08 0a
        E 71 b3 08 0a
        E 71 b3 08 0b
        E 71 b3 08 0b
        E 71 b3 08 0b
        E 71 b3 08 0b
        E 71 b3 08 0b
        E 71 b3 08 0c
        E 71 b3 08 0c
        E 71 b3 08 0c
        E 71 b3 08 0c
        E 71 b3 08 0c
        E 71 b3 08 0c
        E 71 b3 08 0c
        E 71 b3 08 0c
        E 71 b3 08 0c
        E 71 b3 08 0c
        E 71 b3 08 0c
        E 71 b3 08 0c
        E 71 b3 08 0c
        E 71 b3 08 0c
        E 71 b3 08 0c
        E 71 b3 08 0c
        E 71 b3 08 0c
        E 71 b3 08 0c
        E 71 b3 08 0c
        E 71 b3 08 0c
        E 71 b3 08 0b
        E 71 b3 08 0b
        E 71 b3 08 0b
        E 71 b3 08 0b
        E 71 b3 08 0b
        E 71 b3 08 0b
        E 71 b3 08 0a
        E 71 b3 08 0a
        E 71 b3 08 0a
        E 71 b3 08 0a
        E 71 b3 08 09
        E 71 b3 08 09
        E 71 b3 08 09
        E 71 b3 08 08
        E 71 b3 08 08
        E 71 b3 08 08
        E 71 b3 08 08
        E 71 b3 08 07
        E 71 b3 08 07
        E 71 b3 08 07
        E 71 b3 08 06
        E 71 b3 08 06
        E 71 b3 08 06
        E 71 b3 08 05
        E 71 b3 08 05
        E 71 b3 08 05
        E 71 b3 08 04
        E 71 b3 08 04
        E 71 b3 08 04
        E 71 b3 08 04
        E 71 b3 08 03
        E 71 b3 08 03
        E 71 b3 08 03
        E 71 b3 08 02
        E 71 b3 08 02
        E 71 b3 08 02
        E 71 b3 08 02
        E 71 b3 08 01
        E 71 b3 08 01
        E 71 b3 08 01
        E 71 b3 08 01
        E 71 b3 08 01
        E 71 b3 08 01
        E 71 b3 08 00
        E 71 b3 08 00
        E 71 b3 08 00
        E 71 b3 08 00
        E 71 b3 08 00
        E 71 b3 08 00
        E 71 b3 08 00
        E 71 b3 08 00
        E 71 b3 08 00
        E 71 b3 08 00
        E 71 b3 08 00
        E 71 b3 08 00
        E 71 b3 08 00
        E 71 b3 08 00
        E 71 b3 08 00
        E 71 b3 08 00
        E 71 b3 08 00
        E 71 b3 08 00
        E 71 b3 08 00
        E 71 b3 08 00
        E 71 b3 08 00
        E 71 b3 08 00
        E 71 b3 08 01
        E 71 b3 08 01
        E 71 b3 08 01
        E 71 b3 08 01
        E 71 b3 08 01
        E 71 b3 08 02
        E 71 b3 08 02
        E 71 b3 08 02
        E 71 b3 08 02
        E 71 b3 08 03
        E 71 b3 08 03
        E 71 b3 08 03
        E 71 b3 08 03
        E 71 b3 08 04
        E 71 b3 08 04
        E 71 b3 08 04
        E 71 b3 08 05
        E 71 b3 08 05
        E 71 b3 08 05
        E 71 b3 08 06
        E 71 b3 08 06
        E 63 b3 08 2c
        E 63 b3 08 2e
        E 63 b3 08 31
        E 63 b3 08 33
        E 63 b3 08 35
        E 63 b3 08 37
        E 63 b3 08 39
        E 63 b3 08 3b
        E 63 b3 08 3d
        E 63 b3 08 3f
        E 63 b3 08 41
        E 63 b3 08 43
        E 63 b3 08 45
        E 63 b3 08 47
        E 63 b3 08 48
        E 63 b3 08 4a
        E 63 b3 08 4c
        E 63 b3 08 4d
        E 63 b3 08 4f
        E 63 b3 08 50
        E 63 b3 08 51
        E 63 b3 08 52
        E 63 b3 08 54
        E 63 b3 08 54
        E 63 b3 08 55
        E 63 b3 08 56
        E 63 b3 08 56
        E 63 b3 08 57
        E 63 b3 08 58
        E 63 b3 08 58
        E 63 b3 08 58
        E 63 b3 08 58
        E 63 b3 08 58
        E 63 b3 08 58
        E 63 b3 08 58
        E 63 b3 08 58
        E 63 b3 08 58
        E 63 b3 08 57
        E 63 b3 08 56
        E 63 b3 08 56
        E 63 b3 08 55
        E 63 b3 08 54
        E 63 b3 08 53
        E 63 b3 08 51
        E 63 b3 08 51
        E 63 b3 08 4f
        E 63 b3 08 4e
        E 63 b3 08 4d
        E 63 b3 08 4b
        E 63 b3 08 49
        E 63 b3 08 48
        E 63 b3 08 46
        E 63 b3 08 44
        E 63 b3 08 42
        E 63 b3 08 40
        E 63 b3 08 3e
        E 63 b3 08 3c
        E 63 b3 08 3a
        E 63 b3 08 38
        E 63 b3 08 36
        E 63 b3 08 33
        E 63 b3 08 31
        E 63 b3 08 2f
        E 63 b3 08 2d
        E 63 b3 08 2b
        E 63 b3 08 29
        E 63 b3 08 27
        E 63 b3 08 25
        E 63 b3 08 22
        E 63 b3 08 20
        E 63 b3 08 1e
        E 63 b3 08 1c
        E 63 b3 08 1a
        E 63 b3 08 18
        E 63 b3 08 16
        E 63 b3 08 14
        E 63 b3 08 12
        E 63 b3 08 10
        E 63 b3 08 0f
        E 63 b3 08 0d
        E 63 b3 08 0b
        E 63 b3 08 0a
        E 63 b3 08 09
        E 63 b3 08 07
        E 63 b3 08 07
        E 63 b3 08 05
        E 63 b3 08 04
        E 63 b3 08 03
        E 63 b3 08 02
        E 63 b3 08 02
        E 63 b3 08 01
        E 63 b3 08 00
        E 63 b3 08 00
        E 63 b3 08 00
        E 63 b3 08 00
        E 63 b3 08 00
        E 63 b3 08 00
        E 63 b3 08 00
        E 63 b3 08 00
        E 63 b3 08 00
        E 63 b3 08 01
        E 63 b3 08 02
        E 63 b3 08 02
        E 63 b3 08 03
        E 63 b3 08 04
        E 63 b3 08 04
        E 63 b3 08 06
        E 63 b3 08 07
        E 63 b3 08 08
        E 63 b3 08 09
        E 63 b3 08 0b
        E 63 b3 08 0c
        E 63 b3 08 0e
        E 63 b3 08 10
        E 63 b3 08 11
        E 63 b3 08 13
        E 63 b3 08 15
        E 63 b3 08 17
        E 63 b3 08 19
        E 63 b3 08 1b
        E 63 b3 08 1d
        E 63 b3 08 1f
        E 63 b3 08 21
        E 63 b3 08 23
        E 63 b3 08 25
        E 63 b3 08 27
        E 63 b3 08 2a
        E 63 b3 08 2c
        E 71 b3 08 13
        E 71 b3 08 14
        E 71 b3 08 15
        E 71 b3 08 15
        E 71 b3 08 16
        E 71 b3 08 17
        E 71 b3 08 18
        E 71 b3 08 19
        E 71 b3 08 1a
        E 71 b3 08 1b
        E 71 b3 08 1c
        E 71 b3 08 1c
        E 71 b3 08 1d
        E 71 b3 08 1e
        E 71 b3 08 1f
        E 71 b3 08 1f
        E 71 b3 08 20
        E 71 b3 08 21
        E 71 b3 08 21
        E 71 b3 08 22
        E 71 b3 08 23
        E 71 b3 08 23
        E 71 b3 08 24
        E 71 b3 08 24
        E 71 b3 08 24
        E 71 b3 08 24
        E 71 b3 08 25
        E 71 b3 08 25
        E 71 b3 08 25
        E 71 b3 08 25
        E 71 b3 08 26
        E 71 b3 08 26
        E 71 b3 08 26
        E 71 b3 08 26
        E 71 b3 08 26
        E 71 b3 08 25
        E 71 b3 08 25
        E 71 b3 08 25
        E 71 b3 08 25
        E 71 b3 08 24
        E 71 b3 08 24
        E 71 b3 08 24
        E 71 b3 08 23
        E 71 b3 08 23
        E 71 b3 08 22
        E 71 b3 08 22
        E 71 b3 08 21
        E 71 b3 08 21
        E 71 b3 08 20
        E 71 b3 08 1f
        E 71 b3 08 1e
        E 71 b3 08 1e
        E 71 b3 08 1d
        E 71 b3 08 1c
        E 71 b3 08 1b
        E 71 b3 08 1a
        E 71 b3 08 1a
        E 71 b3 08 19
        E 71 b3 08 18
        E 71 b3 08 17
        E 71 b3 08 16
        E 71 b3 08 15
        E 71 b3 08 14
        E 71 b3 08 13
        E 71 b3 08 12
        E 71 b3 08 11
        E 71 b3 08 10
        E 71 b3 08 0f
        E 71 b3 08 0e
        E 71 b3 08 0d
        E 71 b3 08 0c
        E 71 b3 08 0c
        E 71 b3 08 0b
        E 71 b3 08 0a
        E 71 b3 08 09
        E 71 b3 08 08
        E 71 b3 08 08
        E 71 b3 08 07
        E 71 b3 08 06
        E 71 b3 08 05
        E 71 b3 08 05
        E 71 b3 08 04
        E 71 b3 08 03
        E 71 b3 08 03
        E 71 b3 08 03
        E 71 b3 08 02
        E 71 b3 08 02
        E 71 b3 08 01
        E 71 b3 08 01
        E 71 b3 08 00
        E 71 b3 08 00
        E 71 b3 08 00
        E 71 b3 08 00
        E 71 b3 08 00
        E 71 b3 08 00
        E 71 b3 08 00
        E 71 b3 08 00
        E 71 b3 08 00
        E 71 b3 08 00
        E 71 b3 08 00
        E 71 b3 08 00
        E 71 b3 08 00
        E 71 b3 08 01
        E 71 b3 08 01
        E 71 b3 08 01
        E 71 b3 08 02
        E 71 b3 08 02
        E 71 b3 08 03
        E 71 b3 08 03
        E 71 b3 08 04
        E 71 b3 08 04
        E 71 b3 08 05
        E 71 b3 08 06
        E 71 b3 08 06
        E 71 b3 08 07
        E 71 b3 08 08
        E 71 b3 08 09
        E 71 b3 08 09
        E 71 b3 08 0a
        E 71 b3 08 0b
        E 71 b3 08 0c
        E 71 b3 08 0d
        E 71 b3 08 0e
        E 71 b3 08 0f
        E 71 b3 08 10
        E 71 b3 08 11
        E 71 b3 08 12
        E 71 b3 08 13
        E 23 b3 08 26
        E 23 b3 08 28
        E 23 b3 08 2a
        E 23 b3 08 2b
        E 23 b3 08 2d
        E 23 b3 08 2f
        E 23 b3 08 31
        E 23 b3 08 33
        E 23 b3 08 34
        E 23 b3 08 36
        E 23 b3 08 38
        E 23 b3 08 39
        E 23 b3 08 3b
        E 23 b3 08 3d
        E 23 b3 08 3e
        E 23 b3 08 3f
        E 23 b3 08 41
        E 23 b3 08 42
        E 23 b3 08 43
        E 23 b3 08 45
        E 23 b3 08 46
        E 23 b3 08 46
        E 23 b3 08 48
        E 23 b3 08 48
        E 23 b3 08 49
        E 23 b3 08 49
        E 23 b3 08 4a
        E 23 b3 08 4b
        E 23 b3 08 4b
        E 23 b3 08 4b
        E 23 b3 08 4c
        E 23 b3 08 4c
        E 23 b3 08 4c
        E 23 b3 08 4c
        E 23 b3 08 4c
        E 23 b3 08 4b
        E 23 b3 08 4b
        E 23 b3 08 4b
        E 23 b3 08 4a
        E 23 b3 08 49
        E 23 b3 08 49
        E 23 b3 08 48
        E 23 b3 08 47
        E 23 b3 08 46
        E 23 b3 08 45
        E 23 b3 08 44
        E 23 b3 08 43
        E 23 b3 08 42
        E 23 b3 08 40
        E 23 b3 08 3f
        E 23 b3 08 3d
        E 23 b3 08 3c
        E 23 b3 08 3a
        E 23 b3 08 39
        E 23 b3 08 37
        E 23 b3 08 35
        E 23 b3 08 34
        E 23 b3 08 32
        E 23 b3 08 30
        E 23 b3 08 2e
        E 23 b3 08 2c
        E 23 b3 08 2a
        E 23 b3 08 28
        E 23 b3 08 27
        E 23 b3 08 25
        E 23 b3 08 23
        E 23 b3 08 21
        E 23 b3 08 1f
        E 23 b3 08 1d
        E 23 b3 08 1b
        E 23 b3 08 19
        E 23 b3 08 18
        E 23 b3 08 16
        E 23 b3 08 15
        E 23 b3 08 13
        E 23 b3 08 11
        E 23 b3 08 10
        E 23 b3 08 0e
        E 23 b3 08 0d
        E 23 b3 08 0b
        E 23 b3 08 0a
        E 23 b3 08 09
        E 23 b3 08 07
        E 23 b3 08 06
        E 23 b3 08 06
        E 23 b3 08 04
        E 23 b3 08 04
        E 23 b3 08 03
        E 23 b3 08 02
        E 23 b3 08 01
        E 23 b3 08 01
        E 23 b3 08 00
        E 23 b3 08 00
        E 23 b3 08 00
        E 23 b3 08 00
        E 23 b3 08 00
        E 23 b3 08 00
        E 23 b3 08 00
        E 23 b3 08 00
        E 23 b3 08 00
        E 23 b3 08 01
        E 23 b3 08 01
        E 23 b3 08 02
        E 23 b3 08 03
        E 23 b3 08 03
        E 23 b3 08 04
        E 23 b3 08 05
        E 23 b3 08 06
        E 23 b3 08 07
        E 23 b3 08 08
        E 23 b3 08 09
        E 23 b3 08 0a
        E 23 b3 08 0c
        E 23 b3 08 0d
        E 23 b3 08 0f
        E 23 b3 08 10
        E 23 b3 08 12
        E 23 b3 08 13
        E 23 b3 08 15
        E 23 b3 08 17
        E 23 b3 08 19
        E 23 b3 08 1b
        E 23 b3 08 1c
        E 23 b3 08 1e
        E 23 b3 08 20
        E 23 b3 08 22
        E 23 b3 08 24
        E 23 b3 08 26
        E 63 b3 08 39
        E 63 b3 08 3c
        E 63 b3 08 3f
        E 63 b3 08 41
        E 63 b3 08 44
        E 63 b3 08 47
        E 63 b3 08 49
        E 63 b3 08 4c
        E 63 b3 08 4f
        E 63 b3 08 51
        E 63 b3 08 54
        E 63 b3 08 56
        E 63 b3 08 59
        E 63 b3 08 5b
        E 63 b3 08 5d
        E 63 b3 08 5f
        E 63 b3 08 62
        E 63 b3 08 63
        E 63 b3 08 65
        E 63 b3 08 67
        E 63 b3 08 69
        E 63 b3 08 6a
        E 63 b3 08 6c
        E 63 b3 08 6c
        E 63 b3 08 6d
        E 63 b3 08 6e
        E 63 b3 08 6f
        E 63 b3 08 70
        E 63 b3 08 71
        E 63 b3 08 71
        E 63 b3 08 72
        E 63 b3 08 72
        E 63 b3 08 72
        E 63 b3 08 72
        E 63 b3 08 72
        E 63 b3 08 71
        E 63 b3 08 71
        E 63 b3 08 70
        E 63 b3 08 6f
        E 63 b3 08 6e
        E 63 b3 08 6d
        E 63 b3 08 6c
        E 63 b3 08 6b
        E 63 b3 08 69
        E 63 b3 08 68
        E 63 b3 08 66
        E 63 b3 08 64
        E 63 b3 08 63
        E 63 b3 08 61
        E 63 b3 08 5e
        E 63 b3 08 5c
        E 63 b3 08 5a
        E 63 b3 08 58
        E 63 b3 08 55
        E 63 b3 08 52
        E 63 b3 08 50
        E 63 b3 08 4e
        E 63 b3 08 4b
        E 63 b3 08 48
        E 63 b3 08 46
        E 63 b3 08 42
        E 63 b3 08 3f
        E 63 b3 08 3d
        E 63 b3 08 3a
        E 63 b3 08 37
        E 63 b3 08 35
        E 63 b3 08 32
        E 63 b3 08 2f
        E 63 b3 08 2c
        E 63 b3 08 29
        E 63 b3 08 26
        E 63 b3 08 24
        E 63 b3 08 22
        E 63 b3 08 1f
        E 63 b3 08 1c
        E 63 b3 08 1a
        E 63 b3 08 18
        E 63 b3 08 15
        E 63 b3 08 13
        E 63 b3 08 11
        E 63 b3 08 0f
        E 63 b3 08 0d
        E 63 b3 08 0b
        E 63 b3 08 09
        E 63 b3 08 09
        E 63 b3 08 07
        E 63 b3 08 06
        E 63 b3 08 04
        E 63 b3 08 03
        E 63 b3 08 02
        E 63 b3 08 01
        E 63 b3 08 00
        E 63 b3 08 00
        E 63 b3 08 00
        E 63 b3 08 00
        E 63 b3 08 00
        E 63 b3 08 00
        E 63 b3 08 00
        E 63 b3 08 00
        E 63 b3 08 00
        E 63 b3 08 01
        E 63 b3 08 02
        E 63 b3 08 03
        E 63 b3 08 04
        E 63 b3 08 05
        E 63 b3 08 06
        E 63 b3 08 08
        E 63 b3 08 09
        E 63 b3 08 0a
        E 63 b3 08 0c
        E 63 b3 08 0e
        E 63 b3 08 10
        E 63 b3 08 12
        E 63 b3 08 14
        E 63 b3 08 16
        E 63 b3 08 19
        E 63 b3 08 1b
        E 63 b3 08 1d
        E 63 b3 08 20
        E 63 b3 08 23
        E 63 b3 08 25
        E 63 b3 08 28
        E 63 b3 08 2b
        E 63 b3 08 2d
        E 63 b3 08 30
        E 63 b3 08 33
        E 63 b3 08 36
        E 63 b3 08 39
        E 7 b3 08 19
        E 7 b3 08 1a
        E 7 b3 08 1c
        E 7 b3 08 1d
        E 7 b3 08 1e
        E 7 b3 08 1f
        E 7 b3 08 20
        E 7 b3 08 22
        E 7 b3 08 23
        E 7 b3 08 24
        E 7 b3 08 25
        E 7 b3 08 26
        E 7 b3 08 27
        E 7 b3 08 28
        E 7 b3 08 29
        E 7 b3 08 2a
        E 7 b3 08 2b
        E 7 b3 08 2c
        E 7 b3 08 2d
        E 7 b3 08 2e
        E 7 b3 08 2e
        E 7 b3 08 2f
        E 7 b3 08 30
        E 7 b3 08 30
        E 7 b3 08 30
        E 7 b3 08 31
        E 7 b3 08 31
        E 7 b3 08 32
        E 7 b3 08 32
        E 7 b3 08 32
        E 7 b3 08 32
        E 7 b3 08 32
        E 7 b3 08 32
        E 7 b3 08 32
        E 7 b3 08 32
        E 7 b3 08 32
        E 7 b3 08 32
        E 7 b3 08 32
        E 7 b3 08 31
        E 7 b3 08 31
        E 7 b3 08 30
        E 7 b3 08 30
        E 7 b3 08 2f
        E 7 b3 08 2e
        E 7 b3 08 2e
        E 7 b3 08 2d
        E 7 b3 08 2c
        E 7 b3 08 2c
        E 7 b3 08 2b
        E 7 b3 08 2a
        E 7 b3 08 29
        E 7 b3 08 28
        E 7 b3 08 27
        E 7 b3 08 26
        E 7 b3 08 24
        E 7 b3 08 23
        E 7 b3 08 22
        E 7 b3 08 21
        E 7 b3 08 20
        E 7 b3 08 1f
        E 7 b3 08 1d
        E 7 b3 08 1c
        E 7 b3 08 1b
        E 7 b3 08 1a
        E 7 b3 08 18
        E 7 b3 08 17
        E 7 b3 08 16
        E 7 b3 08 15
        E 7 b3 08 13
        E 7 b3 08 12
        E 7 b3 08 11
        E 7 b3 08 10
        E 7 b3 08 0f
        E 7 b3 08 0e
        E 7 b3 08 0c
        E 7 b3 08 0b
        E 7 b3 08 0a
        E 7 b3 08 09
        E 7 b3 08 08
        E 7 b3 08 07
        E 7 b3 08 06
        E 7 b3 08 06
        E 7 b3 08 05
        E 7 b3 08 04
        E 7 b3 08 04
        E 7 b3 08 03
        E 7 b3 08 02
        E 7 b3 08 02
        E 7 b3 08 01
        E 7 b3 08 01
        E 7 b3 08 00
        E 7 b3 08 00
        E 7 b3 08 00
        E 7 b3 08 00
        E 7 b3 08 00
        E 7 b3 08 00
        E 7 b3 08 00
        E 7 b3 08 00
        E 7 b3 08 00
        E 7 b3 08 00
        E 7 b3 08 00
        E 7 b3 08 01
        E 7 b3 08 01
        E 7 b3 08 02
        E 7 b3 08 02
        E 7 b3 08 02
        E 7 b3 08 03
        E 7 b3 08 04
        E 7 b3 08 04
        E 7 b3 08 05
        E 7 b3 08 06
        E 7 b3 08 07
        E 7 b3 08 08
        E 7 b3 08 09
        E 7 b3 08 0a
        E 7 b3 08 0b
        E 7 b3 08 0c
        E 7 b3 08 0d
        E 7 b3 08 0e
        E 7 b3 08 0f
        E 7 b3 08 10
        E 7 b3 08 12
        E 7 b3 08 13
        E 7 b3 08 14
        E 7 b3 08 15
        E 7 b3 08 16
        E 7 b3 08 18
        E 7 b3 08 19
        E 71 b3 08 06
        E 71 b3 08 06
        E 71 b3 08 07
        E 71 b3 08 07
        E 71 b3 08 07
        E 71 b3 08 07
        E 71 b3 08 08
        E 71 b3 08 08
        E 71 b3 08 08
        E 71 b3 08 09
        E 71 b3 08 09
        E 71 b3 08 09
        E 71 b3 08 09
        E 71 b3 08 0a
        E 71 b3 08 0a
        E 71 b3 08 0a
        E 71 b3 08 0a
        E 71 b3 08 0b
        E 71 b3 08 0b
        E 71 b3 08 0b
        E 71 b3 08 0b
        E 71 b3 08 0b
        E 71 b3 08 0c
        E 71 b3 08 0c
        E 71 b3 08 0c
        E 71 b3 08 0c
        E 71 b3 08 0c
        E 71 b3 08 0c
        E 71 b3 08 0c
        E 71 b3 08 0c
        E 71 b3 08 0c
        E 71 b3 08 0c
        E 71 b3 08 0c
        E 71 b3 08 0c
        E 71 b3 08 0c
        E 71 b3 08 0c
        E 71 b3 08 0c
        E 71 b3 08 0c
        E 71 b3 08 0c
        E 71 b3 08 0c
        E 71 b3 08 0c
        E 71 b3 08 0c
        E 71 b3 08 0b
        E 71 b3 08 0b
        E 71 b3 08 0b
        E 71 b3 08 0b
        E 71 b3 08 0b
        E 71 b3 08 0b
        E 71 b3 08 0a
        E 71 b3 08 0a
        E 71 b3 08 0a
        E 71 b3 08 0a
        E 71 b3 08 09
        E 71 b3 08 09
        E 71 b3 08 09
        E 71 b3 08 08
        E 71 b3 08 08
        E 71 b3 08 08
        E 71 b3 08 08
        E 71 b3 08 07
        E 71 b3 08 07
        E 71 b3 08 07
        E 71 b3 08 06
        E 71 b3 08 06
        E 71 b3 08 06
        E 71 b3 08 05
        E 71 b3 08 05
        E 71 b3 08 05
        E 71 b3 08 04
        E 71 b3 08 04
        E 71 b3 08 04
        E 71 b3 08 04
        E 71 b3 08 03
        E 71 b3 08 03
        E 71 b3 08 03
        E 71 b3 08 02
        E 71 b3 08 02
        E 71 b3 08 02
        E 71 b3 08 02
        E 71 b3 08 01
        E 71 b3 08 01
        E 71 b3 08 01
        E 71 b3 08 01
        E 71 b3 08 01
        E 71 b3 08 01
        E 71 b3 08 00
        E 71 b3 08 00
        E 71 b3 08 00
        E 71 b3 08 00
        E 71 b3 08 00
        E 71 b3 08 00
        E 71 b3 08 00
        E 71 b3 08 00
        E 71 b3 08 00
        E 71 b3 08 00
        E 71 b3 08 00
        E 71 b3 08 00
        E 71 b3 08 00
        E 71 b3 08 00
        E 71 b3 08 00
        E 71 b3 08 00
        E 71 b3 08 00
        E 71 b3 08 00
        E 71 b3 08 00
        E 71 b3 08 00
        E 71 b3 08 00
        E 71 b3 08 00
        E 71 b3 08 01
        E 71 b3 08 01
        E 71 b3 08 01
        E 71 b3 08 01
        E 71 b3 08 01
        E 71 b3 08 02
        E 71 b3 08 02
        E 71 b3 08 02
        E 71 b3 08 02
        E 71 b3 08 03
        E 71 b3 08 03
        E 71 b3 08 03
        E 71 b3 08 03
        E 71 b3 08 04
        E 71 b3 08 04
        E 71 b3 08 04
        E 71 b3 08 05
        E 71 b3 08 05
        E 71 b3 08 05
        E 71 b3 08 06
        E 71 b3 08 06
        E 63 b3 08 2c
        E 63 b3 08 2e
        E 63 b3 08 31
        E 63 b3 08 33
        E 63 b3 08 35
        E 63 b3 08 37
        E 63 b3 08 39
        E 63 b3 08 3b
        E 63 b3 08 3d
        E 63 b3 08 3f
        E 63 b3 08 41
        E 63 b3 08 43
        E 63 b3 08 45
        E 63 b3 08 47
        E 63 b3 08 48
        E 63 b3 08 4a
        E 63 b3 08 4c
        E 63 b3 08 4d
        E 63 b3 08 4f
        E 63 b3 08 50
        E 63 b3 08 51
        E 63 b3 08 52
        E 63 b3 08 54
        E 63 b3 08 54
        E 63 b3 08 55
        E 63 b3 08 56
        E 63 b3 08 56
        E 63 b3 08 57
        E 63 b3 08 58
        E 63 b3 08 58
        E 63 b3 08 58
        E 63 b3 08 58
        E 63 b3 08 58
        E 63 b3 08 58
        E 63 b3 08 58
        E 63 b3 08 58
        E 63 b3 08 58
        E 63 b3 08 57
        E 63 b3 08 56
        E 63 b3 08 56
        E 63 b3 08 55
        E 63 b3 08 54
        E 63 b3 08 53
        E 63 b3 08 51
        E 63 b3 08 51
        E 63 b3 08 4f
        E 63 b3 08 4e
        E 63 b3 08 4d
        E 63 b3 08 4b
        E 63 b3 08 49
        E 63 b3 08 48
        E 63 b3 08 46
        E 63 b3 08 44
        E 63 b3 08 42
        E 63 b3 08 40
        E 63 b3 08 3e
        E 63 b3 08 3c
        E 63 b3 08 3a
        E 63 b3 08 38
        E 63 b3 08 36
        E 63 b3 08 33
        E 63 b3 08 31
        E 63 b3 08 2f
        E 63 b3 08 2d
        E 63 b3 08 2b
        E 63 b3 08 29
        E 63 b3 08 27
        E 63 b3 08 25
        E 63 b3 08 22
        E 63 b3 08 20
        E 63 b3 08 1e
        E 63 b3 08 1c
        E 63 b3 08 1a
        E 63 b3 08 18
        E 63 b3 08 16
        E 63 b3 08 14
        E 63 b3 08 12
        E 63 b3 08 10
        E 63 b3 08 0f
        E 63 b3 08 0d
        E 63 b3 08 0b
        E 63 b3 08 0a
        E 63 b3 08 09
        E 63 b3 08 07
        E 63 b3 08 07
        E 63 b3 08 05
        E 63 b3 08 04
        E 63 b3 08 03
        E 63 b3 08 02
        E 63 b3 08 02
        E 63 b3 08 01
        E 63 b3 08 00
        E 63 b3 08 00
        E 63 b3 08 00
        E 63 b3 08 00
        E 63 b3 08 00
        E 63 b3 08 00
        E 63 b3 08 00
        E 63 b3 08 00
        E 63 b3 08 00
        E 63 b3 08 01
        E 63 b3 08 02
        E 63 b3 08 02
        E 63 b3 08 03
        E 63 b3 08 04
        E 63 b3 08 04
        E 63 b3 08 06
        E 63 b3 08 07
        E 63 b3 08 08
        E 63 b3 08 09
        E 63 b3 08 0b
        E 63 b3 08 0c
        E 63 b3 08 0e
        E 63 b3 08 10
        E 63 b3 08 11
        E 63 b3 08 13
        E 63 b3 08 15
        E 63 b3 08 17
        E 63 b3 08 19
        E 63 b3 08 1b
        E 63 b3 08 1d
        E 63 b3 08 1f
        E 63 b3 08 21
        E 63 b3 08 23
        E 63 b3 08 25
        E 63 b3 08 27
        E 63 b3 08 2a
        E 63 b3 08 2c
        E 71 b3 08 13
        E 71 b3 08 14
        E 71 b3 08 15
        E 71 b3 08 15
        E 71 b3 08 16
        E 71 b3 08 17
        E 71 b3 08 18
        E 71 b3 08 19
        E 71 b3 08 1a
        E 71 b3 08 1b
        E 71 b3 08 1c
        E 71 b3 08 1c
        E 71 b3 08 1d
        E 71 b3 08 1e
        E 71 b3 08 1f
        E 71 b3 08 1f
        E 71 b3 08 20
        E 71 b3 08 21
        E 71 b3 08 21
        E 71 b3 08 22
        E 71 b3 08 23
        E 71 b3 08 23
        E 71 b3 08 24
        E 71 b3 08 24
        E 71 b3 08 24
        E 71 b3 08 24
        E 71 b3 08 25
        E 71 b3 08 25
        E 71 b3 08 25
        E 71 b3 08 25
        E 71 b3 08 26
        E 71 b3 08 26
        E 71 b3 08 26
        E 71 b3 08 26
        E 71 b3 08 26
        E 71 b3 08 25
        E 71 b3 08 25
        E 71 b3 08 25
        E 71 b3 08 25
        E 71 b3 08 24
        E 71 b3 08 24
        E 71 b3 08 24
        E 71 b3 08 23
        E 71 b3 08 23
        E 71 b3 08 22
        E 71 b3 08 22
        E 71 b3 08 21
        E 71 b3 08 21
        E 71 b3 08 20
        E 71 b3 08 1f
        E 71 b3 08 1e
        E 71 b3 08 1e
        E 71 b3 08 1d
        E 71 b3 08 1c
        E 71 b3 08 1b
        E 71 b3 08 1a
        E 71 b3 08 1a
        E 71 b3 08 19
        E 71 b3 08 18
        E 71 b3 08 17
        E 71 b3 08 16
        E 71 b3 08 15
        E 71 b3 08 14
        E 71 b3 08 13
        E 71 b3 08 12
        E 71 b3 08 11
        E 71 b3 08 10
        E 71 b3 08 0f
        E 71 b3 08 0e
        E 71 b3 08 0d
        E 71 b3 08 0c
        E 71 b3 08 0c
        E 71 b3 08 0b
        E 71 b3 08 0a
        E 71 b3 08 09
        E 71 b3 08 08
        E 71 b3 08 08
        E 71 b3 08 07
        E 71 b3 08 06
        E 71 b3 08 05
        E 71 b3 08 05
        E 71 b3 08 04
        E 71 b3 08 03
        E 71 b3 08 03
        E 71 b3 08 03
        E 71 b3 08 02
        E 71 b3 08 02
        E 71 b3 08 01
        E 71 b3 08 01
        E 71 b3 08 00
        E 71 b3 08 00
        E 71 b3 08 00
        E 71 b3 08 00
        E 71 b3 08 00
        E 71 b3 08 00
        E 71 b3 08 00
        E 71 b3 08 00
        E 71 b3 08 00
        E 71 b3 08 00
        E 71 b3 08 00
        E 71 b3 08 00
        E 71 b3 08 00
        E 71 b3 08 01
        E 71 b3 08 01
        E 71 b3 08 01
        E 71 b3 08 02
        E 71 b3 08 02
        E 71 b3 08 03
        E 71 b3 08 03
        E 71 b3 08 04
        E 71 b3 08 04
        E 71 b3 08 05
        E 71 b3 08 06
        E 71 b3 08 06
        E 71 b3 08 07
        E 71 b3 08 08
        E 71 b3 08 09
        E 71 b3 08 09
        E 71 b3 08 0a
        E 71 b3 08 0b
        E 71 b3 08 0c
        E 71 b3 08 0d
        E 71 b3 08 0e
        E 71 b3 08 0f
        E 71 b3 08 10
        E 71 b3 08 11
        E 71 b3 08 12
        E 71 b3 08 13
        E 23 b3 08 26
        E 23 b3 08 28
        E 23 b3 08 2a
        E 23 b3 08 2b
        E 23 b3 08 2d
        E 23 b3 08 2f
        E 23 b3 08 31
        E 23 b3 08 33
        E 23 b3 08 34
        E 23 b3 08 36
        E 23 b3 08 38
        E 23 b3 08 39
        E 23 b3 08 3b
        E 23 b3 08 3d
        E 23 b3 08 3e
        E 23 b3 08 3f
        E 23 b3 08 41
        E 23 b3 08 42
        E 23 b3 08 43
        E 23 b3 08 45
        E 23 b3 08 46
        E 23 b3 08 46
        E 23 b3 08 48
        E 23 b3 08 48
        E 23 b3 08 49
        E 23 b3 08 49
        E 23 b3 08 4a
        E 23 b3 08 4b
        E 23 b3 08 4b
        E 23 b3 08 4b
        E 23 b3 08 4c
        E 23 b3 08 4c
        E 23 b3 08 4c
        E 23 b3 08 4c
        E 23 b3 08 4c
        E 23 b3 08 4b
        E 23 b3 08 4b
        E 23 b3 08 4b
        E 23 b3 08 4a
        E 23 b3 08 49
        E 23 b3 08 49
        E 23 b3 08 48
        E 23 b3 08 47
        E 23 b3 08 46
        E 23 b3 08 45
        E 23 b3 08 44
        E 23 b3 08 43
        E 23 b3 08 42
        E 23 b3 08 40
        E 23 b3 08 3f
        E 23 b3 08 3d
        E 23 b3 08 3c
        E 23 b3 08 3a
        E 23 b3 08 39
        E 23 b3 08 37
        E 23 b3 08 35
        E 23 b3 08 34
        E 23 b3 08 32
        E 23 b3 08 30
        E 23 b3 08 2e
        E 23 b3 08 2c
        E 23 b3 08 2a
        E 23 b3 08 28
        E 23 b3 08 27
        E 23 b3 08 25
        E 23 b3 08 23
        E 23 b3 08 21
        E 23 b3 08 1f
        E 23 b3 08 1d
        E 23 b3 08 1b
        E 23 b3 08 19
        E 23 b3 08 18
        E 23 b3 08 16
        E 23 b3 08 15
        E 23 b3 08 13
        E 23 b3 08 11
        E 23 b3 08 10
        E 23 b3 08 0e
        E 23 b3 08 0d
        E 23 b3 08 0b
        E 23 b3 08 0a
        E 23 b3 08 09
        E 23 b3 08 07
        E 23 b3 08 06
        E 23 b3 08 06
        E 23 b3 08 04
        E 23 b3 08 04
        E 23 b3 08 03
        E 23 b3 08 02
        E 23 b3 08 01
        E 23 b3 08 01
        E 23 b3 08 00
        E 23 b3 08 00
        E 23 b3 08 00
        E 23 b3 08 00
        E 23 b3 08 00
        E 23 b3 08 00
        E 23 b3 08 00
        E 23 b3 08 00
        E 23 b3 08 00
        E 23 b3 08 01
        E 23 b3 08 01
        E 23 b3 08 02
        E 23 b3 08 03
        E 23 b3 08 03
        E 23 b3 08 04
        E 23 b3 08 05
        E 23 b3 08 06
        E 23 b3 08 07
        E 23 b3 08 08
        E 23 b3 08 09
        E 23 b3 08 0a
        E 23 b3 08 0c
        E 23 b3 08 0d
        E 23 b3 08 0f
        E 23 b3 08 10
        E 23 b3 08 12
        E 23 b3 08 13
        E 23 b3 08 15
        E 23 b3 08 17
        E 23 b3 08 19
        E 23 b3 08 1b
        E 23 b3 08 1c
        E 23 b3 08 1e
        E 23 b3 08 20
        E 23 b3 08 22
        E 23 b3 08 24
        E 23 b3 08 26
        E 63 b3 08 39
        E 63 b3 08 3c
        E 63 b3 08 3f
        E 63 b3 08 41
        E 63 b3 08 44
        E 63 b3 08 47
        E 63 b3 08 49
        E 63 b3 08 4c
        E 63 b3 08 4f
        E 63 b3 08 51
        E 63 b3 08 54
        E 63 b3 08 56
        E 63 b3 08 59
        E 63 b3 08 5b
        E 63 b3 08 5d
        E 63 b3 08 5f
        E 63 b3 08 62
        E 63 b3 08 63
        E 63 b3 08 65
        E 63 b3 08 67
        E 63 b3 08 69
        E 63 b3 08 6a
        E 63 b3 08 6c
        E 63 b3 08 6c
        E 63 b3 08 6d
        E 63 b3 08 6e
        E 63 b3 08 6f
        E 63 b3 08 70
        E 63 b3 08 71
        E 63 b3 08 71
        E 63 b3 08 72
        E 63 b3 08 72
        E 63 b3 08 72
        E 63 b3 08 72
        E 63 b3 08 72
        E 63 b3 08 71
        E 63 b3 08 71
        E 63 b3 08 70
        E 63 b3 08 6f
        E 63 b3 08 6e
        E 63 b3 08 6d
        E 63 b3 08 6c
        E 63 b3 08 6b
        E 63 b3 08 69
        E 63 b3 08 68
        E 63 b3 08 66
        E 63 b3 08 64
        E 63 b3 08 63
        E 63 b3 08 61
        E 63 b3 08 5e
        E 63 b3 08 5c
        E 63 b3 08 5a
        E 63 b3 08 58
        E 63 b3 08 55
        E 63 b3 08 52
        E 63 b3 08 50
        E 63 b3 08 4e
        E 63 b3 08 4b
        E 63 b3 08 48
        E 63 b3 08 46
        E 63 b3 08 42
        E 63 b3 08 3f
        E 63 b3 08 3d
        E 63 b3 08 3a
        E 63 b3 08 37
        E 63 b3 08 35
        E 63 b3 08 32
        E 63 b3 08 2f
        E 63 b3 08 2c
        E 63 b3 08 29
        E 63 b3 08 26
        E 63 b3 08 24
        E 63 b3 08 22
        E 63 b3 08 1f
        E 63 b3 08 1c
        E 63 b3 08 1a
        E 63 b3 08 18
        E 63 b3 08 15
        E 63 b3 08 13
        E 63 b3 08 11
        E 63 b3 08 0f
        E 63 b3 08 0d
        E 63 b3 08 0b
        E 63 b3 08 09
        E 63 b3 08 09
        E 63 b3 08 07
        E 63 b3 08 06
        E 63 b3 08 04
        E 63 b3 08 03
        E 63 b3 08 02
        E 63 b3 08 01
        E 63 b3 08 00
        E 63 b3 08 00
        E 63 b3 08 00
        E 63 b3 08 00
        E 63 b3 08 00
        E 63 b3 08 00
        E 63 b3 08 00
        E 63 b3 08 00
        E 63 b3 08 00
        E 63 b3 08 01
        E 63 b3 08 02
        E 63 b3 08 03
        E 63 b3 08 04
        E 63 b3 08 05
        E 63 b3 08 06
        E 63 b3 08 08
        E 63 b3 08 09
        E 63 b3 08 0a
        E 63 b3 08 0c
        E 63 b3 08 0e
        E 63 b3 08 10
        E 63 b3 08 12
        E 63 b3 08 14
        E 63 b3 08 16
        E 63 b3 08 19
        E 63 b3 08 1b
        E 63 b3 08 1d
        E 63 b3 08 20
        E 63 b3 08 23
        E 63 b3 08 25
        E 63 b3 08 28
        E 63 b3 08 2b
        E 63 b3 08 2d
        E 63 b3 08 30
        E 63 b3 08 33
        E 63 b3 08 36
        E 63 b3 08 39
        E 7 b3 08 19
        E 7 b3 08 1a
        E 7 b3 08 1c
        E 7 b3 08 1d
        E 7 b3 08 1e
        E 7 b3 08 1f
        E 7 b3 08 20
        E 7 b3 08 22
        E 7 b3 08 23
        E 7 b3 08 24
        E 7 b3 08 25
        E 7 b3 08 26
        E 7 b3 08 27
        E 7 b3 08 28
        E 7 b3 08 29
        E 7 b3 08 2a
        E 7 b3 08 2b
        E 7 b3 08 2c
        E 7 b3 08 2d
        E 7 b3 08 2e
        E 7 b3 08 2e
        E 7 b3 08 2f
        E 7 b3 08 30
        E 7 b3 08 30
        E 7 b3 08 30
        E 7 b3 08 31
        E 7 b3 08 31
        E 7 b3 08 32
        E 7 b3 08 32
        E 7 b3 08 32
        E 7 b3 08 32
        E 7 b3 08 32
        E 7 b3 08 32
        E 7 b3 08 32
        E 7 b3 08 32
        E 7 b3 08 32
        E 7 b3 08 32
        E 7 b3 08 32
        E 7 b3 08 31
        E 7 b3 08 31
        E 7 b3 08 30
        E 7 b3 08 30
        E 7 b3 08 2f
        E 7 b3 08 2e
        E 7 b3 08 2e
        E 7 b3 08 2d
        E 7 b3 08 2c
        E 7 b3 08 2c
        E 7 b3 08 2b
        E 7 b3 08 2a
        E 7 b3 08 29
        E 7 b3 08 28
        E 7 b3 08 27
        E 7 b3 08 26
        E 7 b3 08 24
        E 7 b3 08 23
        E 7 b3 08 22
        E 7 b3 08 21
        E 7 b3 08 20
        E 7 b3 08 1f
        E 7 b3 08 1d
        E 7 b3 08 1c
        E 7 b3 08 1b
        E 7 b3 08 1a
        E 7 b3 08 18
        E 7 b3 08 17
        E 7 b3 08 16
        E 7 b3 08 15
        E 7 b3 08 13
        E 7 b3 08 12
        E 7 b3 08 11
        E 7 b3 08 10
        E 7 b3 08 0f
        E 7 b3 08 0e
        E 7 b3 08 0c
        E 7 b3 08 0b
        E 7 b3 08 0a
        E 7 b3 08 09
        E 7 b3 08 08
        E 7 b3 08 07
        E 7 b3 08 06
        E 7 b3 08 06
        E 7 b3 08 05
        E 7 b3 08 04
        E 7 b3 08 04
        E 7 b3 08 03
        E 7 b3 08 02
        E 7 b3 08 02
        E 7 b3 08 01
        E 7 b3 08 01
        E 7 b3 08 00
        E 7 b3 08 00
        E 7 b3 08 00
        E 7 b3 08 00
        E 7 b3 08 00
        E 7 b3 08 00
        E 7 b3 08 00
        E 7 b3 08 00
        E 7 b3 08 00
        E 7 b3 08 00
        E 7 b3 08 00
        E 7 b3 08 01
        E 7 b3 08 01
        E 7 b3 08 02
        E 7 b3 08 02
        E 7 b3 08 02
        E 7 b3 08 03
        E 7 b3 08 04
        E 7 b3 08 04
        E 7 b3 08 05
        E 7 b3 08 06
        E 7 b3 08 07
        E 7 b3 08 08
        E 7 b3 08 09
        E 7 b3 08 0a
        E 7 b3 08 0b
        E 7 b3 08 0c
        E 7 b3 08 0d
        E 7 b3 08 0e
        E 7 b3 08 0f
        E 7 b3 08 10
        E 7 b3 08 12
        E 7 b3 08 13
        E 7 b3 08 14
        E 7 b3 08 15
        E 7 b3 08 16
        E 7 b3 08 18
        E 7 b3 08 19
        E 71 b3 08 13
        E 71 b3 08 14
        E 71 b3 08 15
        E 71 b3 08 15
        E 71 b3 08 16
        E 71 b3 08 17
        E 71 b3 08 18
        E 71 b3 08 19
        E 71 b3 08 1a
        E 71 b3 08 1b
        E 71 b3 08 1c
        E 71 b3 08 1c
        E 71 b3 08 1d
        E 71 b3 08 1e
        E 71 b3 08 1f
        E 71 b3 08 1f
        E 71 b3 08 20
        E 71 b3 08 21
        E 71 b3 08 21
        E 71 b3 08 22
        E 71 b3 08 23
        E 71 b3 08 23
        E 71 b3 08 24
        E 71 b3 08 24
        E 71 b3 08 24
        E 71 b3 08 24
        E 71 b3 08 25
        E 71 b3 08 25
        E 71 b3 08 25
        E 71 b3 08 25
        E 71 b3 08 26
        E 71 b3 08 26
        E 71 b3 08 26
        E 71 b3 08 26
        E 71 b3 08 26
        E 71 b3 08 25
        E 71 b3 08 25
        E 71 b3 08 25
        E 71 b3 08 25
        E 71 b3 08 24
        E 71 b3 08 24
        E 71 b3 08 24
        E 71 b3 08 23
        E 71 b3 08 23
        E 71 b3 08 22
        E 71 b3 08 22
        E 71 b3 08 21
        E 71 b3 08 21
        E 71 b3 08 20
        E 71 b3 08 1f
        E 71 b3 08 1e
        E 71 b3 08 1e
        E 71 b3 08 1d
        E 71 b3 08 1c
        E 71 b3 08 1b
        E 71 b3 08 1a
        E 71 b3 08 1a
        E 71 b3 08 19
        E 71 b3 08 18
        E 71 b3 08 17
        E 71 b3 08 16
        E 71 b3 08 15
        E 71 b3 08 14
        E 71 b3 08 13
        E 71 b3 08 12
        E 71 b3 08 11
        E 71 b3 08 10
        E 71 b3 08 0f
        E 71 b3 08 0e
        E 71 b3 08 0d
        E 71 b3 08 0c
        E 71 b3 08 0c
        E 71 b3 08 0b
        E 71 b3 08 0a
        E 71 b3 08 09
        E 71 b3 08 08
        E 71 b3 08 08
        E 71 b3 08 07
        E 71 b3 08 06
        E 71 b3 08 05
        E 71 b3 08 05
        E 71 b3 08 04
        E 71 b3 08 03
        E 71 b3 08 03
        E 71 b3 08 03
        E 71 b3 08 02
        E 71 b3 08 02
        E 71 b3 08 01
        E 71 b3 08 01
        E 71 b3 08 00
        E 71 b3 08 00
        E 71 b3 08 00
        E 71 b3 08 00
        E 71 b3 08 00
        E 71 b3 08 00
        E 71 b3 08 00
        E 71 b3 08 00
        E 71 b3 08 00
        E 71 b3 08 00
        E 71 b3 08 00
        E 71 b3 08 00
        E 71 b3 08 00
        E 71 b3 08 01
        E 71 b3 08 01
        E 71 b3 08 01
        E 71 b3 08 02
        E 71 b3 08 02
        E 71 b3 08 03
        E 71 b3 08 03
        E 71 b3 08 04
        E 71 b3 08 04
        E 71 b3 08 05
        E 71 b3 08 06
        E 71 b3 08 06
        E 71 b3 08 07
        E 71 b3 08 08
        E 71 b3 08 09
        E 71 b3 08 09
        E 71 b3 08 0a
        E 71 b3 08 0b
        E 71 b3 08 0c
        E 71 b3 08 0d
        E 71 b3 08 0e
        E 71 b3 08 0f
        E 71 b3 08 10
        E 71 b3 08 11
        E 71 b3 08 12
        E 71 b3 08 13
        E 23 b3 08 26
        E 23 b3 08 28
        E 23 b3 08 2a
        E 23 b3 08 2b
        E 23 b3 08 2d
        E 23 b3 08 2f
        E 23 b3 08 31
        E 23 b3 08 33
        E 23 b3 08 34
        E 23 b3 08 36
        E 23 b3 08 38
        E 23 b3 08 39
        E 23 b3 08 3b
        E 23 b3 08 3d
        E 23 b3 08 3e
        E 23 b3 08 3f
        E 23 b3 08 41
        E 23 b3 08 42
        E 23 b3 08 43
        E 23 b3 08 45
        E 23 b3 08 46
        E 23 b3 08 46
        E 23 b3 08 48
        E 23 b3 08 48
        E 23 b3 08 49
        E 23 b3 08 49
        E 23 b3 08 4a
        E 23 b3 08 4b
        E 23 b3 08 4b
        E 23 b3 08 4b
        E 23 b3 08 4c
        E 23 b3 08 4c
        E 23 b3 08 4c
        E 23 b3 08 4c
        E 23 b3 08 4c
        E 23 b3 08 4b
        E 23 b3 08 4b
        E 23 b3 08 4b
        E 23 b3 08 4a
        E 23 b3 08 49
        E 23 b3 08 49
        E 23 b3 08 48
        E 23 b3 08 47
        E 23 b3 08 46
        E 23 b3 08 45
        E 23 b3 08 44
        E 23 b3 08 43
        E 23 b3 08 42
        E 23 b3 08 40
        E 23 b3 08 3f
        E 23 b3 08 3d
        E 23 b3 08 3c
        E 23 b3 08 3a
        E 23 b3 08 39
        E 23 b3 08 37
        E 23 b3 08 35
        E 23 b3 08 34
        E 23 b3 08 32
        E 23 b3 08 30
        E 23 b3 08 2e
        E 23 b3 08 2c
        E 23 b3 08 2a
        E 23 b3 08 28
        E 23 b3 08 27
        E 23 b3 08 25
        E 23 b3 08 23
        E 23 b3 08 21
        E 23 b3 08 1f
        E 23 b3 08 1d
        E 23 b3 08 1b
        E 23 b3 08 19
        E 23 b3 08 18
        E 23 b3 08 16
        E 23 b3 08 15
        E 23 b3 08 13
        E 23 b3 08 11
        E 23 b3 08 10
        E 23 b3 08 0e
        E 23 b3 08 0d
        E 23 b3 08 0b
        E 23 b3 08 0a
        E 23 b3 08 09
        E 23 b3 08 07
        E 23 b3 08 06
        E 23 b3 08 06
        E 23 b3 08 04
        E 23 b3 08 04
        E 23 b3 08 03
        E 23 b3 08 02
        E 23 b3 08 01
        E 23 b3 08 01
        E 23 b3 08 00
        E 23 b3 08 00
        E 23 b3 08 00
        E 23 b3 08 00
        E 23 b3 08 00
        E 23 b3 08 00
        E 23 b3 08 00
        E 23 b3 08 00
        E 23 b3 08 00
        E 23 b3 08 01
        E 23 b3 08 01
        E 23 b3 08 02
        E 23 b3 08 03
        E 23 b3 08 03
        E 23 b3 08 04
        E 23 b3 08 05
        E 23 b3 08 06
        E 23 b3 08 07
        E 23 b3 08 08
        E 23 b3 08 09
        E 23 b3 08 0a
        E 23 b3 08 0c
        E 23 b3 08 0d
        E 23 b3 08 0f
        E 23 b3 08 10
        E 23 b3 08 12
        E 23 b3 08 13
        E 23 b3 08 15
        E 23 b3 08 17
        E 23 b3 08 19
        E 23 b3 08 1b
        E 23 b3 08 1c
        E 23 b3 08 1e
        E 23 b3 08 20
        E 23 b3 08 22
        E 23 b3 08 24
        E 23 b3 08 26
        E 49 b0 7b 00
        CCINTERP 32
        CHASE_CC_TAKEOFFS 1
        GUID {93D20A21-E5E7-9548-9791-8B24102FE3CD}
        IGNTEMPO 0 120 4 4
        SRCCOLOR 72
        VELLANE 3 601 0
        VELLANE -1 196 0
      >
    >
  >
  <TRACK {8B45EF23-BA4D-0341-8DD9-1615B8056254}
    NAME "cannabis-infused gummies"
    PEAKCOL 16576
    BEAT -1
    AUTOMODE 0
    VOLPAN 1 0 -1 -1 1
    MUTESOLO 0 0 0
    IPHASE 0
    PLAYOFFS 0 1
    ISBUS 0 0
    BUSCOMP 0 0 0 0 0
    SHOWINMIX 1 0.6667 0.5 1 0.5 0 -1 0
    FREEMODE 0
    SEL 0
    REC 0 0 1 0 0 0 0
    VU 2
    TRACKHEIGHT 0 0 0 0 -1 0
    INQ 0 0 0 0.5 100 0 0 100
    NCHAN 2
    FX 1
    TRACKID {8B45EF23-BA4D-0341-8DD9-1615B8056254}
    PERF 0
    MIDIOUT -1
    MAINSEND 1 0
    <ITEM
      POSITION 0
      SNAPOFFS 0
      LENGTH 440.203436
      LOOP 1
      ALLTAKES 0
      FADEIN 1 0 0 1 0 0
      FADEOUT 1 0 0 1 0 0
      MUTE 0 0
      SEL 0
      IGUID {F2A21B9B-211F-AB47-B58D-69EC018FB330}
      IID 17
      NAME "cannabis-infused gummies.mid"
      VOLPAN 1 0 1 -1
      SOFFS 0 0
      PLAYRATE 1 1 0 -1 0 0.0025
      CHANMODE 0
      GUID {6286AE8C-D36A-D343-934E-9F121AEDF0FC}
      <SOURCE MIDI
        HASDATA 1 128 QN
        CCINTERP 32
        POOLEDEVTS {9E680D16-4BE6-544C-88F2-B4A370A8F9F1}
        E 4 b4 04 33
        E 4 b4 04 35
        E 4 b4 04 37
        E 4 b4 04 3a
        E 4 b4 04 3c
        E 4 b4 04 3f
        E 4 b4 04 41
        E 4 b4 04 44
        E 4 b4 04 46
        E 4 b4 04 48
        E 4 b4 04 4b
        E 4 b4 04 4c
        E 4 b4 04 4f
        E 4 b4 04 51
        E 4 b4 04 53
        E 4 b4 04 54
        E 4 b4 04 57
        E 4 b4 04 58
        E 4 b4 04 5a
        E 4 b4 04 5b
        E 4 b4 04 5d
        E 4 b4 04 5e
        E 4 b4 04 5f
        E 4 b4 04 60
        E 4 b4 04 61
        E 4 b4 04 62
        E 4 b4 04 63
        E 4 b4 04 63
        E 4 b4 04 64
        E 4 b4 04 64
        E 4 b4 04 65
        E 4 b4 04 65
        E 4 b4 04 65
        E 4 b4 04 65
        E 4 b4 04 65
        E 4 b4 04 64
        E 4 b4 04 64
        E 4 b4 04 63
        E 4 b4 04 63
        E 4 b4 04 62
        E 4 b4 04 61
        E 4 b4 04 5f
        E 4 b4 04 5f
        E 4 b4 04 5d
        E 4 b4 04 5c
        E 4 b4 04 5b
        E 4 b4 04 59
        E 4 b4 04 57
        E 4 b4 04 56
        E 4 b4 04 54
        E 4 b4 04 52
        E 4 b4 04 50
        E 4 b4 04 4e
        E 4 b4 04 4c
        E 4 b4 04 49
        E 4 b4 04 47
        E 4 b4 04 45
        E 4 b4 04 43
        E 4 b4 04 40
        E 4 b4 04 3e
        E 4 b4 04 3b
        E 4 b4 04 38
        E 4 b4 04 36
        E 4 b4 04 33
        E 4 b4 04 31
        E 4 b4 04 2f
        E 4 b4 04 2c
        E 4 b4 04 2a
        E 4 b4 04 27
        E 4 b4 04 24
        E 4 b4 04 22
        E 4 b4 04 1f
        E 4 b4 04 1e
        E 4 b4 04 1b
        E 4 b4 04 19
        E 4 b4 04 17
        E 4 b4 04 15
        E 4 b4 04 13
        E 4 b4 04 11
        E 4 b4 04 0f
        E 4 b4 04 0d
        E 4 b4 04 0b
        E 4 b4 04 0a
        E 4 b4 04 08
        E 4 b4 04 07
        E 4 b4 04 06
        E 4 b4 04 05
        E 4 b4 04 03
        E 4 b4 04 03
        E 4 b4 04 02
        E 4 b4 04 01
        E 4 b4 04 00
        E 4 b4 04 00
        E 4 b4 04 00
        E 4 b4 04 00
        E 4 b4 04 00
        E 4 b4 04 00
        E 4 b4 04 00
        E 4 b4 04 00
        E 4 b4 04 00
        E 4 b4 04 01
        E 4 b4 04 02
        E 4 b4 04 03
        E 4 b4 04 03
        E 4 b4 04 04
        E 4 b4 04 05
        E 4 b4 04 07
        E 4 b4 04 07
        E 4 b4 04 09
        E 4 b4 04 0b
        E 4 b4 04 0c
        E 4 b4 04 0e
        E 4 b4 04 10
        E 4 b4 04 12
        E 4 b4 04 14
        E 4 b4 04 16
        E 4 b4 04 18
        E 4 b4 04 1a
        E 4 b4 04 1c
        E 4 b4 04 1f
        E 4 b4 04 21
        E 4 b4 04 24
        E 4 b4 04 26
        E 4 b4 04 28
        E 4 b4 04 2b
        E 4 b4 04 2d
        E 4 b4 04 2f
        E 4 b4 04 33
        E 9 b4 04 39
        E 9 b4 04 3c
        E 9 b4 04 3f
        E 9 b4 04 41
        E 9 b4 04 44
        E 9 b4 04 47
        E 9 b4 04 49
        E 9 b4 04 4c
        E 9 b4 04 4f
        E 9 b4 04 51
        E 9 b4 04 54
        E 9 b4 04 56
        E 9 b4 04 59
        E 9 b4 04 5b
        E 9 b4 04 5d
        E 9 b4 04 5f
        E 9 b4 04 62
        E 9 b4 04 63
        E 9 b4 04 65
        E 9 b4 04 67
        E 9 b4 04 69
        E 9 b4 04 6a
        E 9 b4 04 6c
        E 9 b4 04 6c
        E 9 b4 04 6d
        E 9 b4 04 6e
        E 9 b4 04 6f
        E 9 b4 04 70
        E 9 b4 04 71
        E 9 b4 04 71
        E 9 b4 04 72
        E 9 b4 04 72
        E 9 b4 04 72
        E 9 b4 04 72
        E 9 b4 04 72
        E 9 b4 04 71
        E 9 b4 04 71
        E 9 b4 04 70
        E 9 b4 04 6f
        E 9 b4 04 6e
        E 9 b4 04 6d
        E 9 b4 04 6c
        E 9 b4 04 6b
        E 9 b4 04 69
        E 9 b4 04 68
        E 9 b4 04 66
        E 9 b4 04 64
        E 9 b4 04 63
        E 9 b4 04 61
        E 9 b4 04 5e
        E 9 b4 04 5c
        E 9 b4 04 5a
        E 9 b4 04 58
        E 9 b4 04 55
        E 9 b4 04 52
        E 9 b4 04 50
        E 9 b4 04 4e
        E 9 b4 04 4b
        E 9 b4 04 48
        E 9 b4 04 46
        E 9 b4 04 42
        E 9 b4 04 3f
        E 9 b4 04 3d
        E 9 b4 04 3a
        E 9 b4 04 37
        E 9 b4 04 35
        E 9 b4 04 32
        E 9 b4 04 2f
        E 9 b4 04 2c
        E 9 b4 04 29
        E 9 b4 04 26
        E 9 b4 04 24
        E 9 b4 04 22
        E 9 b4 04 1f
        E 9 b4 04 1c
        E 9 b4 04 1a
        E 9 b4 04 18
        E 9 b4 04 15
        E 9 b4 04 13
        E 9 b4 04 11
        E 9 b4 04 0f
        E 9 b4 04 0d
        E 9 b4 04 0b
        E 9 b4 04 09
        E 9 b4 04 09
        E 9 b4 04 07
        E 9 b4 04 06
        E 9 b4 04 04
        E 9 b4 04 03
        E 9 b4 04 02
        E 9 b4 04 01
        E 9 b4 04 00
        E 9 b4 04 00
        E 9 b4 04 00
        E 9 b4 04 00
        E 9 b4 04 00
        E 9 b4 04 00
        E 9 b4 04 00
        E 9 b4 04 00
        E 9 b4 04 00
        E 9 b4 04 01
        E 9 b4 04 02
        E 9 b4 04 03
        E 9 b4 04 04
        E 9 b4 04 05
        E 9 b4 04 06
        E 9 b4 04 08
        E 9 b4 04 09
        E 9 b4 04 0a
        E 9 b4 04 0c
        E 9 b4 04 0e
        E 9 b4 04 10
        E 9 b4 04 12
        E 9 b4 04 14
        E 9 b4 04 16
        E 9 b4 04 19
        E 9 b4 04 1b
        E 9 b4 04 1d
        E 9 b4 04 20
        E 9 b4 04 23
        E 9 b4 04 25
        E 9 b4 04 28
        E 9 b4 04 2b
        E 9 b4 04 2d
        E 9 b4 04 30
        E 9 b4 04 33
        E 9 b4 04 36
        E 9 b4 04 39
        E 14 b4 04 13
        E 14 b4 04 14
        E 14 b4 04 15
        E 14 b4 04 15
        E 14 b4 04 16
        E 14 b4 04 17
        E 14 b4 04 18
        E 14 b4 04 19
        E 14 b4 04 1a
        E 14 b4 04 1b
        E 14 b4 04 1c
        E 14 b4 04 1c
        E 14 b4 04 1d
        E 14 b4 04 1e
        E 14 b4 04 1f
        E 14 b4 04 1f
        E 14 b4 04 20
        E 14 b4 04 21
        E 14 b4 04 21
        E 14 b4 04 22
        E 14 b4 04 23
        E 14 b4 04 23
        E 14 b4 04 24
        E 14 b4 04 24
        E 14 b4 04 24
        E 14 b4 04 24
        E 14 b4 04 25
        E 14 b4 04 25
        E 14 b4 04 25
        E 14 b4 04 25
        E 14 b4 04 26
        E 14 b4 04 26
        E 14 b4 04 26
        E 14 b4 04 26
        E 14 b4 04 26
        E 14 b4 04 25
        E 14 b4 04 25
        E 14 b4 04 25
        E 14 b4 04 25
        E 14 b4 04 24
        E 14 b4 04 24
        E 14 b4 04 24
        E 14 b4 04 23
        E 14 b4 04 23
        E 14 b4 04 22
        E 14 b4 04 22
        E 14 b4 04 21
        E 14 b4 04 21
        E 14 b4 04 20
        E 14 b4 04 1f
        E 14 b4 04 1e
        E 14 b4 04 1e
        E 14 b4 04 1d
        E 14 b4 04 1c
        E 14 b4 04 1b
        E 14 b4 04 1a
        E 14 b4 04 1a
        E 14 b4 04 19
        E 14 b4 04 18
        E 14 b4 04 17
        E 14 b4 04 16
        E 14 b4 04 15
        E 14 b4 04 14
        E 14 b4 04 13
        E 14 b4 04 12
        E 14 b4 04 11
        E 14 b4 04 10
        E 14 b4 04 0f
        E 14 b4 04 0e
        E 14 b4 04 0d
        E 14 b4 04 0c
        E 14 b4 04 0c
        E 14 b4 04 0b
        E 14 b4 04 0a
        E 14 b4 04 09
        E 14 b4 04 08
        E 14 b4 04 08
        E 14 b4 04 07
        E 14 b4 04 06
        E 14 b4 04 05
        E 14 b4 04 05
        E 14 b4 04 04
        E 14 b4 04 03
        E 14 b4 04 03
        E 14 b4 04 03
        E 14 b4 04 02
        E 14 b4 04 02
        E 14 b4 04 01
        E 14 b4 04 01
        E 14 b4 04 00
        E 14 b4 04 00
        E 14 b4 04 00
        E 14 b4 04 00
        E 14 b4 04 00
        E 14 b4 04 00
        E 14 b4 04 00
        E 14 b4 04 00
        E 14 b4 04 00
        E 14 b4 04 00
        E 14 b4 04 00
        E 14 b4 04 00
        E 14 b4 04 00
        E 14 b4 04 01
        E 14 b4 04 01
        E 14 b4 04 01
        E 14 b4 04 02
        E 14 b4 04 02
        E 14 b4 04 03
        E 14 b4 04 03
        E 14 b4 04 04
        E 14 b4 04 04
        E 14 b4 04 05
        E 14 b4 04 06
        E 14 b4 04 06
        E 14 b4 04 07
        E 14 b4 04 08
        E 14 b4 04 09
        E 14 b4 04 09
        E 14 b4 04 0a
        E 14 b4 04 0b
        E 14 b4 04 0c
        E 14 b4 04 0d
        E 14 b4 04 0e
        E 14 b4 04 0f
        E 14 b4 04 10
        E 14 b4 04 11
        E 14 b4 04 12
        E 14 b4 04 13
        E 6 b4 04 33
        E 6 b4 04 35
        E 6 b4 04 37
        E 6 b4 04 3a
        E 6 b4 04 3c
        E 6 b4 04 3f
        E 6 b4 04 41
        E 6 b4 04 44
        E 6 b4 04 46
        E 6 b4 04 48
        E 6 b4 04 4b
        E 6 b4 04 4c
        E 6 b4 04 4f
        E 6 b4 04 51
        E 6 b4 04 53
        E 6 b4 04 54
        E 6 b4 04 57
        E 6 b4 04 58
        E 6 b4 04 5a
        E 6 b4 04 5b
        E 6 b4 04 5d
        E 6 b4 04 5e
        E 6 b4 04 5f
        E 6 b4 04 60
        E 6 b4 04 61
        E 6 b4 04 62
        E 6 b4 04 63
        E 6 b4 04 63
        E 6 b4 04 64
        E 6 b4 04 64
        E 6 b4 04 65
        E 6 b4 04 65
        E 6 b4 04 65
        E 6 b4 04 65
        E 6 b4 04 65
        E 6 b4 04 64
        E 6 b4 04 64
        E 6 b4 04 63
        E 6 b4 04 63
        E 6 b4 04 62
        E 6 b4 04 61
        E 6 b4 04 5f
        E 6 b4 04 5f
        E 6 b4 04 5d
        E 6 b4 04 5c
        E 6 b4 04 5b
        E 6 b4 04 59
        E 6 b4 04 57
        E 6 b4 04 56
        E 6 b4 04 54
        E 6 b4 04 52
        E 6 b4 04 50
        E 6 b4 04 4e
        E 6 b4 04 4c
        E 6 b4 04 49
        E 6 b4 04 47
        E 6 b4 04 45
        E 6 b4 04 43
        E 6 b4 04 40
        E 6 b4 04 3e
        E 6 b4 04 3b
        E 6 b4 04 38
        E 6 b4 04 36
        E 6 b4 04 33
        E 6 b4 04 31
        E 6 b4 04 2f
        E 6 b4 04 2c
        E 6 b4 04 2a
        E 6 b4 04 27
        E 6 b4 04 24
        E 6 b4 04 22
        E 6 b4 04 1f
        E 6 b4 04 1e
        E 6 b4 04 1b
        E 6 b4 04 19
        E 6 b4 04 17
        E 6 b4 04 15
        E 6 b4 04 13
        E 6 b4 04 11
        E 6 b4 04 0f
        E 6 b4 04 0d
        E 6 b4 04 0b
        E 6 b4 04 0a
        E 6 b4 04 08
        E 6 b4 04 07
        E 6 b4 04 06
        E 6 b4 04 05
        E 6 b4 04 03
        E 6 b4 04 03
        E 6 b4 04 02
        E 6 b4 04 01
        E 6 b4 04 00
        E 6 b4 04 00
        E 6 b4 04 00
        E 6 b4 04 00
        E 6 b4 04 00
        E 6 b4 04 00
        E 6 b4 04 00
        E 6 b4 04 00
        E 6 b4 04 00
        E 6 b4 04 01
        E 6 b4 04 02
        E 6 b4 04 03
        E 6 b4 04 03
        E 6 b4 04 04
        E 6 b4 04 05
        E 6 b4 04 07
        E 6 b4 04 07
        E 6 b4 04 09
        E 6 b4 04 0b
        E 6 b4 04 0c
        E 6 b4 04 0e
        E 6 b4 04 10
        E 6 b4 04 12
        E 6 b4 04 14
        E 6 b4 04 16
        E 6 b4 04 18
        E 6 b4 04 1a
        E 6 b4 04 1c
        E 6 b4 04 1f
        E 6 b4 04 21
        E 6 b4 04 24
        E 6 b4 04 26
        E 6 b4 04 28
        E 6 b4 04 2b
        E 6 b4 04 2d
        E 6 b4 04 2f
        E 6 b4 04 33
        E 1 b4 04 06
        E 1 b4 04 06
        E 1 b4 04 07
        E 1 b4 04 07
        E 1 b4 04 07
        E 1 b4 04 07
        E 1 b4 04 08
        E 1 b4 04 08
        E 1 b4 04 08
        E 1 b4 04 09
        E 1 b4 04 09
        E 1 b4 04 09
        E 1 b4 04 09
        E 1 b4 04 0a
        E 1 b4 04 0a
        E 1 b4 04 0a
        E 1 b4 04 0a
        E 1 b4 04 0b
        E 1 b4 04 0b
        E 1 b4 04 0b
        E 1 b4 04 0b
        E 1 b4 04 0b
        E 1 b4 04 0c
        E 1 b4 04 0c
        E 1 b4 04 0c
        E 1 b4 04 0c
        E 1 b4 04 0c
        E 1 b4 04 0c
        E 1 b4 04 0c
        E 1 b4 04 0c
        E 1 b4 04 0c
        E 1 b4 04 0c
        E 1 b4 04 0c
        E 1 b4 04 0c
        E 1 b4 04 0c
        E 1 b4 04 0c
        E 1 b4 04 0c
        E 1 b4 04 0c
        E 1 b4 04 0c
        E 1 b4 04 0c
        E 1 b4 04 0c
        E 1 b4 04 0c
        E 1 b4 04 0b
        E 1 b4 04 0b
        E 1 b4 04 0b
        E 1 b4 04 0b
        E 1 b4 04 0b
        E 1 b4 04 0b
        E 1 b4 04 0a
        E 1 b4 04 0a
        E 1 b4 04 0a
        E 1 b4 04 0a
        E 1 b4 04 09
        E 1 b4 04 09
        E 1 b4 04 09
        E 1 b4 04 08
        E 1 b4 04 08
        E 1 b4 04 08
        E 1 b4 04 08
        E 1 b4 04 07
        E 1 b4 04 07
        E 1 b4 04 07
        E 1 b4 04 06
        E 1 b4 04 06
        E 1 b4 04 06
        E 1 b4 04 05
        E 1 b4 04 05
        E 1 b4 04 05
        E 1 b4 04 04
        E 1 b4 04 04
        E 1 b4 04 04
        E 1 b4 04 04
        E 1 b4 04 03
        E 1 b4 04 03
        E 1 b4 04 03
        E 1 b4 04 02
        E 1 b4 04 02
        E 1 b4 04 02
        E 1 b4 04 02
        E 1 b4 04 01
        E 1 b4 04 01
        E 1 b4 04 01
        E 1 b4 04 01
        E 1 b4 04 01
        E 1 b4 04 01
        E 1 b4 04 00
        E 1 b4 04 00
        E 1 b4 04 00
        E 1 b4 04 00
        E 1 b4 04 00
        E 1 b4 04 00
        E 1 b4 04 00
        E 1 b4 04 00
        E 1 b4 04 00
        E 1 b4 04 00
        E 1 b4 04 00
        E 1 b4 04 00
        E 1 b4 04 00
        E 1 b4 04 00
        E 1 b4 04 00
        E 1 b4 04 00
        E 1 b4 04 00
        E 1 b4 04 00
        E 1 b4 04 00
        E 1 b4 04 00
        E 1 b4 04 00
        E 1 b4 04 00
        E 1 b4 04 01
        E 1 b4 04 01
        E 1 b4 04 01
        E 1 b4 04 01
        E 1 b4 04 01
        E 1 b4 04 02
        E 1 b4 04 02
        E 1 b4 04 02
        E 1 b4 04 02
        E 1 b4 04 03
        E 1 b4 04 03
        E 1 b4 04 03
        E 1 b4 04 03
        E 1 b4 04 04
        E 1 b4 04 04
        E 1 b4 04 04
        E 1 b4 04 05
        E 1 b4 04 05
        E 1 b4 04 05
        E 1 b4 04 06
        E 1 b4 04 06
        E 11 b4 04 39
        E 11 b4 04 3c
        E 11 b4 04 3f
        E 11 b4 04 41
        E 11 b4 04 44
        E 11 b4 04 47
        E 11 b4 04 49
        E 11 b4 04 4c
        E 11 b4 04 4f
        E 11 b4 04 51
        E 11 b4 04 54
        E 11 b4 04 56
        E 11 b4 04 59
        E 11 b4 04 5b
        E 11 b4 04 5d
        E 11 b4 04 5f
        E 11 b4 04 62
        E 11 b4 04 63
        E 11 b4 04 65
        E 11 b4 04 67
        E 11 b4 04 69
        E 11 b4 04 6a
        E 11 b4 04 6c
        E 11 b4 04 6c
        E 11 b4 04 6d
        E 11 b4 04 6e
        E 11 b4 04 6f
        E 11 b4 04 70
        E 11 b4 04 71
        E 11 b4 04 71
        E 11 b4 04 72
        E 11 b4 04 72
        E 11 b4 04 72
        E 11 b4 04 72
        E 11 b4 04 72
        E 11 b4 04 71
        E 11 b4 04 71
        E 11 b4 04 70
        E 11 b4 04 6f
        E 11 b4 04 6e
        E 11 b4 04 6d
        E 11 b4 04 6c
        E 11 b4 04 6b
        E 11 b4 04 69
        E 11 b4 04 68
        E 11 b4 04 66
        E 11 b4 04 64
        E 11 b4 04 63
        E 11 b4 04 61
        E 11 b4 04 5e
        E 11 b4 04 5c
        E 11 b4 04 5a
        E 11 b4 04 58
        E 11 b4 04 55
        E 11 b4 04 52
        E 11 b4 04 50
        E 11 b4 04 4e
        E 11 b4 04 4b
        E 11 b4 04 48
        E 11 b4 04 46
        E 11 b4 04 42
        E 11 b4 04 3f
        E 11 b4 04 3d
        E 11 b4 04 3a
        E 11 b4 04 37
        E 11 b4 04 35
        E 11 b4 04 32
        E 11 b4 04 2f
        E 11 b4 04 2c
        E 11 b4 04 29
        E 11 b4 04 26
        E 11 b4 04 24
        E 11 b4 04 22
        E 11 b4 04 1f
        E 11 b4 04 1c
        E 11 b4 04 1a
        E 11 b4 04 18
        E 11 b4 04 15
        E 11 b4 04 13
        E 11 b4 04 11
        E 11 b4 04 0f
        E 11 b4 04 0d
        E 11 b4 04 0b
        E 11 b4 04 09
        E 11 b4 04 09
        E 11 b4 04 07
        E 11 b4 04 06
        E 11 b4 04 04
        E 11 b4 04 03
        E 11 b4 04 02
        E 11 b4 04 01
        E 11 b4 04 00
        E 11 b4 04 00
        E 11 b4 04 00
        E 11 b4 04 00
        E 11 b4 04 00
        E 11 b4 04 00
        E 11 b4 04 00
        E 11 b4 04 00
        E 11 b4 04 00
        E 11 b4 04 01
        E 11 b4 04 02
        E 11 b4 04 03
        E 11 b4 04 04
        E 11 b4 04 05
        E 11 b4 04 06
        E 11 b4 04 08
        E 11 b4 04 09
        E 11 b4 04 0a
        E 11 b4 04 0c
        E 11 b4 04 0e
        E 11 b4 04 10
        E 11 b4 04 12
        E 11 b4 04 14
        E 11 b4 04 16
        E 11 b4 04 19
        E 11 b4 04 1b
        E 11 b4 04 1d
        E 11 b4 04 20
        E 11 b4 04 23
        E 11 b4 04 25
        E 11 b4 04 28
        E 11 b4 04 2b
        E 11 b4 04 2d
        E 11 b4 04 30
        E 11 b4 04 33
        E 11 b4 04 36
        E 11 b4 04 39
        E 4 b4 04 33
        E 4 b4 04 35
        E 4 b4 04 37
        E 4 b4 04 3a
        E 4 b4 04 3c
        E 4 b4 04 3f
        E 4 b4 04 41
        E 4 b4 04 44
        E 4 b4 04 46
        E 4 b4 04 48
        E 4 b4 04 4b
        E 4 b4 04 4c
        E 4 b4 04 4f
        E 4 b4 04 51
        E 4 b4 04 53
        E 4 b4 04 54
        E 4 b4 04 57
        E 4 b4 04 58
        E 4 b4 04 5a
        E 4 b4 04 5b
        E 4 b4 04 5d
        E 4 b4 04 5e
        E 4 b4 04 5f
        E 4 b4 04 60
        E 4 b4 04 61
        E 4 b4 04 62
        E 4 b4 04 63
        E 4 b4 04 63
        E 4 b4 04 64
        E 4 b4 04 64
        E 4 b4 04 65
        E 4 b4 04 65
        E 4 b4 04 65
        E 4 b4 04 65
        E 4 b4 04 65
        E 4 b4 04 64
        E 4 b4 04 64
        E 4 b4 04 63
        E 4 b4 04 63
        E 4 b4 04 62
        E 4 b4 04 61
        E 4 b4 04 5f
        E 4 b4 04 5f
        E 4 b4 04 5d
        E 4 b4 04 5c
        E 4 b4 04 5b
        E 4 b4 04 59
        E 4 b4 04 57
        E 4 b4 04 56
        E 4 b4 04 54
        E 4 b4 04 52
        E 4 b4 04 50
        E 4 b4 04 4e
        E 4 b4 04 4c
        E 4 b4 04 49
        E 4 b4 04 47
        E 4 b4 04 45
        E 4 b4 04 43
        E 4 b4 04 40
        E 4 b4 04 3e
        E 4 b4 04 3b
        E 4 b4 04 38
        E 4 b4 04 36
        E 4 b4 04 33
        E 4 b4 04 31
        E 4 b4 04 2f
        E 4 b4 04 2c
        E 4 b4 04 2a
        E 4 b4 04 27
        E 4 b4 04 24
        E 4 b4 04 22
        E 4 b4 04 1f
        E 4 b4 04 1e
        E 4 b4 04 1b
        E 4 b4 04 19
        E 4 b4 04 17
        E 4 b4 04 15
        E 4 b4 04 13
        E 4 b4 04 11
        E 4 b4 04 0f
        E 4 b4 04 0d
        E 4 b4 04 0b
        E 4 b4 04 0a
        E 4 b4 04 08
        E 4 b4 04 07
        E 4 b4 04 06
        E 4 b4 04 05
        E 4 b4 04 03
        E 4 b4 04 03
        E 4 b4 04 02
        E 4 b4 04 01
        E 4 b4 04 00
        E 4 b4 04 00
        E 4 b4 04 00
        E 4 b4 04 00
        E 4 b4 04 00
        E 4 b4 04 00
        E 4 b4 04 00
        E 4 b4 04 00
        E 4 b4 04 00
        E 4 b4 04 01
        E 4 b4 04 02
        E 4 b4 04 03
        E 4 b4 04 03
        E 4 b4 04 04
        E 4 b4 04 05
        E 4 b4 04 07
        E 4 b4 04 07
        E 4 b4 04 09
        E 4 b4 04 0b
        E 4 b4 04 0c
        E 4 b4 04 0e
        E 4 b4 04 10
        E 4 b4 04 12
        E 4 b4 04 14
        E 4 b4 04 16
        E 4 b4 04 18
        E 4 b4 04 1a
        E 4 b4 04 1c
        E 4 b4 04 1f
        E 4 b4 04 21
        E 4 b4 04 24
        E 4 b4 04 26
        E 4 b4 04 28
        E 4 b4 04 2b
        E 4 b4 04 2d
        E 4 b4 04 2f
        E 4 b4 04 33
        E 9 b4 04 39
        E 9 b4 04 3c
        E 9 b4 04 3f
        E 9 b4 04 41
        E 9 b4 04 44
        E 9 b4 04 47
        E 9 b4 04 49
        E 9 b4 04 4c
        E 9 b4 04 4f
        E 9 b4 04 51
        E 9 b4 04 54
        E 9 b4 04 56
        E 9 b4 04 59
        E 9 b4 04 5b
        E 9 b4 04 5d
        E 9 b4 04 5f
        E 9 b4 04 62
        E 9 b4 04 63
        E 9 b4 04 65
        E 9 b4 04 67
        E 9 b4 04 69
        E 9 b4 04 6a
        E 9 b4 04 6c
        E 9 b4 04 6c
        E 9 b4 04 6d
        E 9 b4 04 6e
        E 9 b4 04 6f
        E 9 b4 04 70
        E 9 b4 04 71
        E 9 b4 04 71
        E 9 b4 04 72
        E 9 b4 04 72
        E 9 b4 04 72
        E 9 b4 04 72
        E 9 b4 04 72
        E 9 b4 04 71
        E 9 b4 04 71
        E 9 b4 04 70
        E 9 b4 04 6f
        E 9 b4 04 6e
        E 9 b4 04 6d
        E 9 b4 04 6c
        E 9 b4 04 6b
        E 9 b4 04 69
        E 9 b4 04 68
        E 9 b4 04 66
        E 9 b4 04 64
        E 9 b4 04 63
        E 9 b4 04 61
        E 9 b4 04 5e
        E 9 b4 04 5c
        E 9 b4 04 5a
        E 9 b4 04 58
        E 9 b4 04 55
        E 9 b4 04 52
        E 9 b4 04 50
        E 9 b4 04 4e
        E 9 b4 04 4b
        E 9 b4 04 48
        E 9 b4 04 46
        E 9 b4 04 42
        E 9 b4 04 3f
        E 9 b4 04 3d
        E 9 b4 04 3a
        E 9 b4 04 37
        E 9 b4 04 35
        E 9 b4 04 32
        E 9 b4 04 2f
        E 9 b4 04 2c
        E 9 b4 04 29
        E 9 b4 04 26
        E 9 b4 04 24
        E 9 b4 04 22
        E 9 b4 04 1f
        E 9 b4 04 1c
        E 9 b4 04 1a
        E 9 b4 04 18
        E 9 b4 04 15
        E 9 b4 04 13
        E 9 b4 04 11
        E 9 b4 04 0f
        E 9 b4 04 0d
        E 9 b4 04 0b
        E 9 b4 04 09
        E 9 b4 04 09
        E 9 b4 04 07
        E 9 b4 04 06
        E 9 b4 04 04
        E 9 b4 04 03
        E 9 b4 04 02
        E 9 b4 04 01
        E 9 b4 04 00
        E 9 b4 04 00
        E 9 b4 04 00
        E 9 b4 04 00
        E 9 b4 04 00
        E 9 b4 04 00
        E 9 b4 04 00
        E 9 b4 04 00
        E 9 b4 04 00
        E 9 b4 04 01
        E 9 b4 04 02
        E 9 b4 04 03
        E 9 b4 04 04
        E 9 b4 04 05
        E 9 b4 04 06
        E 9 b4 04 08
        E 9 b4 04 09
        E 9 b4 04 0a
        E 9 b4 04 0c
        E 9 b4 04 0e
        E 9 b4 04 10
        E 9 b4 04 12
        E 9 b4 04 14
        E 9 b4 04 16
        E 9 b4 04 19
        E 9 b4 04 1b
        E 9 b4 04 1d
        E 9 b4 04 20
        E 9 b4 04 23
        E 9 b4 04 25
        E 9 b4 04 28
        E 9 b4 04 2b
        E 9 b4 04 2d
        E 9 b4 04 30
        E 9 b4 04 33
        E 9 b4 04 36
        E 9 b4 04 39
        E 14 b4 04 13
        E 14 b4 04 14
        E 14 b4 04 15
        E 14 b4 04 15
        E 14 b4 04 16
        E 14 b4 04 17
        E 14 b4 04 18
        E 14 b4 04 19
        E 14 b4 04 1a
        E 14 b4 04 1b
        E 14 b4 04 1c
        E 14 b4 04 1c
        E 14 b4 04 1d
        E 14 b4 04 1e
        E 14 b4 04 1f
        E 14 b4 04 1f
        E 14 b4 04 20
        E 14 b4 04 21
        E 14 b4 04 21
        E 14 b4 04 22
        E 14 b4 04 23
        E 14 b4 04 23
        E 14 b4 04 24
        E 14 b4 04 24
        E 14 b4 04 24
        E 14 b4 04 24
        E 14 b4 04 25
        E 14 b4 04 25
        E 14 b4 04 25
        E 14 b4 04 25
        E 14 b4 04 26
        E 14 b4 04 26
        E 14 b4 04 26
        E 14 b4 04 26
        E 14 b4 04 26
        E 14 b4 04 25
        E 14 b4 04 25
        E 14 b4 04 25
        E 14 b4 04 25
        E 14 b4 04 24
        E 14 b4 04 24
        E 14 b4 04 24
        E 14 b4 04 23
        E 14 b4 04 23
        E 14 b4 04 22
        E 14 b4 04 22
        E 14 b4 04 21
        E 14 b4 04 21
        E 14 b4 04 20
        E 14 b4 04 1f
        E 14 b4 04 1e
        E 14 b4 04 1e
        E 14 b4 04 1d
        E 14 b4 04 1c
        E 14 b4 04 1b
        E 14 b4 04 1a
        E 14 b4 04 1a
        E 14 b4 04 19
        E 14 b4 04 18
        E 14 b4 04 17
        E 14 b4 04 16
        E 14 b4 04 15
        E 14 b4 04 14
        E 14 b4 04 13
        E 14 b4 04 12
        E 14 b4 04 11
        E 14 b4 04 10
        E 14 b4 04 0f
        E 14 b4 04 0e
        E 14 b4 04 0d
        E 14 b4 04 0c
        E 14 b4 04 0c
        E 14 b4 04 0b
        E 14 b4 04 0a
        E 14 b4 04 09
        E 14 b4 04 08
        E 14 b4 04 08
        E 14 b4 04 07
        E 14 b4 04 06
        E 14 b4 04 05
        E 14 b4 04 05
        E 14 b4 04 04
        E 14 b4 04 03
        E 14 b4 04 03
        E 14 b4 04 03
        E 14 b4 04 02
        E 14 b4 04 02
        E 14 b4 04 01
        E 14 b4 04 01
        E 14 b4 04 00
        E 14 b4 04 00
        E 14 b4 04 00
        E 14 b4 04 00
        E 14 b4 04 00
        E 14 b4 04 00
        E 14 b4 04 00
        E 14 b4 04 00
        E 14 b4 04 00
        E 14 b4 04 00
        E 14 b4 04 00
        E 14 b4 04 00
        E 14 b4 04 00
        E 14 b4 04 01
        E 14 b4 04 01
        E 14 b4 04 01
        E 14 b4 04 02
        E 14 b4 04 02
        E 14 b4 04 03
        E 14 b4 04 03
        E 14 b4 04 04
        E 14 b4 04 04
        E 14 b4 04 05
        E 14 b4 04 06
        E 14 b4 04 06
        E 14 b4 04 07
        E 14 b4 04 08
        E 14 b4 04 09
        E 14 b4 04 09
        E 14 b4 04 0a
        E 14 b4 04 0b
        E 14 b4 04 0c
        E 14 b4 04 0d
        E 14 b4 04 0e
        E 14 b4 04 0f
        E 14 b4 04 10
        E 14 b4 04 11
        E 14 b4 04 12
        E 14 b4 04 13
        E 6 b4 04 33
        E 6 b4 04 35
        E 6 b4 04 37
        E 6 b4 04 3a
        E 6 b4 04 3c
        E 6 b4 04 3f
        E 6 b4 04 41
        E 6 b4 04 44
        E 6 b4 04 46
        E 6 b4 04 48
        E 6 b4 04 4b
        E 6 b4 04 4c
        E 6 b4 04 4f
        E 6 b4 04 51
        E 6 b4 04 53
        E 6 b4 04 54
        E 6 b4 04 57
        E 6 b4 04 58
        E 6 b4 04 5a
        E 6 b4 04 5b
        E 6 b4 04 5d
        E 6 b4 04 5e
        E 6 b4 04 5f
        E 6 b4 04 60
        E 6 b4 04 61
        E 6 b4 04 62
        E 6 b4 04 63
        E 6 b4 04 63
        E 6 b4 04 64
        E 6 b4 04 64
        E 6 b4 04 65
        E 6 b4 04 65
        E 6 b4 04 65
        E 6 b4 04 65
        E 6 b4 04 65
        E 6 b4 04 64
        E 6 b4 04 64
        E 6 b4 04 63
        E 6 b4 04 63
        E 6 b4 04 62
        E 6 b4 04 61
        E 6 b4 04 5f
        E 6 b4 04 5f
        E 6 b4 04 5d
        E 6 b4 04 5c
        E 6 b4 04 5b
        E 6 b4 04 59
        E 6 b4 04 57
        E 6 b4 04 56
        E 6 b4 04 54
        E 6 b4 04 52
        E 6 b4 04 50
        E 6 b4 04 4e
        E 6 b4 04 4c
        E 6 b4 04 49
        E 6 b4 04 47
        E 6 b4 04 45
        E 6 b4 04 43
        E 6 b4 04 40
        E 6 b4 04 3e
        E 6 b4 04 3b
        E 6 b4 04 38
        E 6 b4 04 36
        E 6 b4 04 33
        E 6 b4 04 31
        E 6 b4 04 2f
        E 6 b4 04 2c
        E 6 b4 04 2a
        E 6 b4 04 27
        E 6 b4 04 24
        E 6 b4 04 22
        E 6 b4 04 1f
        E 6 b4 04 1e
        E 6 b4 04 1b
        E 6 b4 04 19
        E 6 b4 04 17
        E 6 b4 04 15
        E 6 b4 04 13
        E 6 b4 04 11
        E 6 b4 04 0f
        E 6 b4 04 0d
        E 6 b4 04 0b
        E 6 b4 04 0a
        E 6 b4 04 08
        E 6 b4 04 07
        E 6 b4 04 06
        E 6 b4 04 05
        E 6 b4 04 03
        E 6 b4 04 03
        E 6 b4 04 02
        E 6 b4 04 01
        E 6 b4 04 00
        E 6 b4 04 00
        E 6 b4 04 00
        E 6 b4 04 00
        E 6 b4 04 00
        E 6 b4 04 00
        E 6 b4 04 00
        E 6 b4 04 00
        E 6 b4 04 00
        E 6 b4 04 01
        E 6 b4 04 02
        E 6 b4 04 03
        E 6 b4 04 03
        E 6 b4 04 04
        E 6 b4 04 05
        E 6 b4 04 07
        E 6 b4 04 07
        E 6 b4 04 09
        E 6 b4 04 0b
        E 6 b4 04 0c
        E 6 b4 04 0e
        E 6 b4 04 10
        E 6 b4 04 12
        E 6 b4 04 14
        E 6 b4 04 16
        E 6 b4 04 18
        E 6 b4 04 1a
        E 6 b4 04 1c
        E 6 b4 04 1f
        E 6 b4 04 21
        E 6 b4 04 24
        E 6 b4 04 26
        E 6 b4 04 28
        E 6 b4 04 2b
        E 6 b4 04 2d
        E 6 b4 04 2f
        E 6 b4 04 33
        E 1 b4 04 06
        E 1 b4 04 06
        E 1 b4 04 07
        E 1 b4 04 07
        E 1 b4 04 07
        E 1 b4 04 07
        E 1 b4 04 08
        E 1 b4 04 08
        E 1 b4 04 08
        E 1 b4 04 09
        E 1 b4 04 09
        E 1 b4 04 09
        E 1 b4 04 09
        E 1 b4 04 0a
        E 1 b4 04 0a
        E 1 b4 04 0a
        E 1 b4 04 0a
        E 1 b4 04 0b
        E 1 b4 04 0b
        E 1 b4 04 0b
        E 1 b4 04 0b
        E 1 b4 04 0b
        E 1 b4 04 0c
        E 1 b4 04 0c
        E 1 b4 04 0c
        E 1 b4 04 0c
        E 1 b4 04 0c
        E 1 b4 04 0c
        E 1 b4 04 0c
        E 1 b4 04 0c
        E 1 b4 04 0c
        E 1 b4 04 0c
        E 1 b4 04 0c
        E 1 b4 04 0c
        E 1 b4 04 0c
        E 1 b4 04 0c
        E 1 b4 04 0c
        E 1 b4 04 0c
        E 1 b4 04 0c
        E 1 b4 04 0c
        E 1 b4 04 0c
        E 1 b4 04 0c
        E 1 b4 04 0b
        E 1 b4 04 0b
        E 1 b4 04 0b
        E 1 b4 04 0b
        E 1 b4 04 0b
        E 1 b4 04 0b
        E 1 b4 04 0a
        E 1 b4 04 0a
        E 1 b4 04 0a
        E 1 b4 04 0a
        E 1 b4 04 09
        E 1 b4 04 09
        E 1 b4 04 09
        E 1 b4 04 08
        E 1 b4 04 08
        E 1 b4 04 08
        E 1 b4 04 08
        E 1 b4 04 07
        E 1 b4 04 07
        E 1 b4 04 07
        E 1 b4 04 06
        E 1 b4 04 06
        E 1 b4 04 06
        E 1 b4 04 05
        E 1 b4 04 05
        E 1 b4 04 05
        E 1 b4 04 04
        E 1 b4 04 04
        E 1 b4 04 04
        E 1 b4 04 04
        E 1 b4 04 03
        E 1 b4 04 03
        E 1 b4 04 03
        E 1 b4 04 02
        E 1 b4 04 02
        E 1 b4 04 02
        E 1 b4 04 02
        E 1 b4 04 01
        E 1 b4 04 01
        E 1 b4 04 01
        E 1 b4 04 01
        E 1 b4 04 01
        E 1 b4 04 01
        E 1 b4 04 00
        E 1 b4 04 00
        E 1 b4 04 00
        E 1 b4 04 00
        E 1 b4 04 00
        E 1 b4 04 00
        E 1 b4 04 00
        E 1 b4 04 00
        E 1 b4 04 00
        E 1 b4 04 00
        E 1 b4 04 00
        E 1 b4 04 00
        E 1 b4 04 00
        E 1 b4 04 00
        E 1 b4 04 00
        E 1 b4 04 00
        E 1 b4 04 00
        E 1 b4 04 00
        E 1 b4 04 00
        E 1 b4 04 00
        E 1 b4 04 00
        E 1 b4 04 00
        E 1 b4 04 01
        E 1 b4 04 01
        E 1 b4 04 01
        E 1 b4 04 01
        E 1 b4 04 01
        E 1 b4 04 02
        E 1 b4 04 02
        E 1 b4 04 02
        E 1 b4 04 02
        E 1 b4 04 03
        E 1 b4 04 03
        E 1 b4 04 03
        E 1 b4 04 03
        E 1 b4 04 04
        E 1 b4 04 04
        E 1 b4 04 04
        E 1 b4 04 05
        E 1 b4 04 05
        E 1 b4 04 05
        E 1 b4 04 06
        E 1 b4 04 06
        E 11 b4 04 39
        E 11 b4 04 3c
        E 11 b4 04 3f
        E 11 b4 04 41
        E 11 b4 04 44
        E 11 b4 04 47
        E 11 b4 04 49
        E 11 b4 04 4c
        E 11 b4 04 4f
        E 11 b4 04 51
        E 11 b4 04 54
        E 11 b4 04 56
        E 11 b4 04 59
        E 11 b4 04 5b
        E 11 b4 04 5d
        E 11 b4 04 5f
        E 11 b4 04 62
        E 11 b4 04 63
        E 11 b4 04 65
        E 11 b4 04 67
        E 11 b4 04 69
        E 11 b4 04 6a
        E 11 b4 04 6c
        E 11 b4 04 6c
        E 11 b4 04 6d
        E 11 b4 04 6e
        E 11 b4 04 6f
        E 11 b4 04 70
        E 11 b4 04 71
        E 11 b4 04 71
        E 11 b4 04 72
        E 11 b4 04 72
        E 11 b4 04 72
        E 11 b4 04 72
        E 11 b4 04 72
        E 11 b4 04 71
        E 11 b4 04 71
        E 11 b4 04 70
        E 11 b4 04 6f
        E 11 b4 04 6e
        E 11 b4 04 6d
        E 11 b4 04 6c
        E 11 b4 04 6b
        E 11 b4 04 69
        E 11 b4 04 68
        E 11 b4 04 66
        E 11 b4 04 64
        E 11 b4 04 63
        E 11 b4 04 61
        E 11 b4 04 5e
        E 11 b4 04 5c
        E 11 b4 04 5a
        E 11 b4 04 58
        E 11 b4 04 55
        E 11 b4 04 52
        E 11 b4 04 50
        E 11 b4 04 4e
        E 11 b4 04 4b
        E 11 b4 04 48
        E 11 b4 04 46
        E 11 b4 04 42
        E 11 b4 04 3f
        E 11 b4 04 3d
        E 11 b4 04 3a
        E 11 b4 04 37
        E 11 b4 04 35
        E 11 b4 04 32
        E 11 b4 04 2f
        E 11 b4 04 2c
        E 11 b4 04 29
        E 11 b4 04 26
        E 11 b4 04 24
        E 11 b4 04 22
        E 11 b4 04 1f
        E 11 b4 04 1c
        E 11 b4 04 1a
        E 11 b4 04 18
        E 11 b4 04 15
        E 11 b4 04 13
        E 11 b4 04 11
        E 11 b4 04 0f
        E 11 b4 04 0d
        E 11 b4 04 0b
        E 11 b4 04 09
        E 11 b4 04 09
        E 11 b4 04 07
        E 11 b4 04 06
        E 11 b4 04 04
        E 11 b4 04 03
        E 11 b4 04 02
        E 11 b4 04 01
        E 11 b4 04 00
        E 11 b4 04 00
        E 11 b4 04 00
        E 11 b4 04 00
        E 11 b4 04 00
        E 11 b4 04 00
        E 11 b4 04 00
        E 11 b4 04 00
        E 11 b4 04 00
        E 11 b4 04 01
        E 11 b4 04 02
        E 11 b4 04 03
        E 11 b4 04 04
        E 11 b4 04 05
        E 11 b4 04 06
        E 11 b4 04 08
        E 11 b4 04 09
        E 11 b4 04 0a
        E 11 b4 04 0c
        E 11 b4 04 0e
        E 11 b4 04 10
        E 11 b4 04 12
        E 11 b4 04 14
        E 11 b4 04 16
        E 11 b4 04 19
        E 11 b4 04 1b
        E 11 b4 04 1d
        E 11 b4 04 20
        E 11 b4 04 23
        E 11 b4 04 25
        E 11 b4 04 28
        E 11 b4 04 2b
        E 11 b4 04 2d
        E 11 b4 04 30
        E 11 b4 04 33
        E 11 b4 04 36
        E 11 b4 04 39
        E 4 b4 04 33
        E 4 b4 04 35
        E 4 b4 04 37
        E 4 b4 04 3a
        E 4 b4 04 3c
        E 4 b4 04 3f
        E 4 b4 04 41
        E 4 b4 04 44
        E 4 b4 04 46
        E 4 b4 04 48
        E 4 b4 04 4b
        E 4 b4 04 4c
        E 4 b4 04 4f
        E 4 b4 04 51
        E 4 b4 04 53
        E 4 b4 04 54
        E 4 b4 04 57
        E 4 b4 04 58
        E 4 b4 04 5a
        E 4 b4 04 5b
        E 4 b4 04 5d
        E 4 b4 04 5e
        E 4 b4 04 5f
        E 4 b4 04 60
        E 4 b4 04 61
        E 4 b4 04 62
        E 4 b4 04 63
        E 4 b4 04 63
        E 4 b4 04 64
        E 4 b4 04 64
        E 4 b4 04 65
        E 4 b4 04 65
        E 4 b4 04 65
        E 4 b4 04 65
        E 4 b4 04 65
        E 4 b4 04 64
        E 4 b4 04 64
        E 4 b4 04 63
        E 4 b4 04 63
        E 4 b4 04 62
        E 4 b4 04 61
        E 4 b4 04 5f
        E 4 b4 04 5f
        E 4 b4 04 5d
        E 4 b4 04 5c
        E 4 b4 04 5b
        E 4 b4 04 59
        E 4 b4 04 57
        E 4 b4 04 56
        E 4 b4 04 54
        E 4 b4 04 52
        E 4 b4 04 50
        E 4 b4 04 4e
        E 4 b4 04 4c
        E 4 b4 04 49
        E 4 b4 04 47
        E 4 b4 04 45
        E 4 b4 04 43
        E 4 b4 04 40
        E 4 b4 04 3e
        E 4 b4 04 3b
        E 4 b4 04 38
        E 4 b4 04 36
        E 4 b4 04 33
        E 4 b4 04 31
        E 4 b4 04 2f
        E 4 b4 04 2c
        E 4 b4 04 2a
        E 4 b4 04 27
        E 4 b4 04 24
        E 4 b4 04 22
        E 4 b4 04 1f
        E 4 b4 04 1e
        E 4 b4 04 1b
        E 4 b4 04 19
        E 4 b4 04 17
        E 4 b4 04 15
        E 4 b4 04 13
        E 4 b4 04 11
        E 4 b4 04 0f
        E 4 b4 04 0d
        E 4 b4 04 0b
        E 4 b4 04 0a
        E 4 b4 04 08
        E 4 b4 04 07
        E 4 b4 04 06
        E 4 b4 04 05
        E 4 b4 04 03
        E 4 b4 04 03
        E 4 b4 04 02
        E 4 b4 04 01
        E 4 b4 04 00
        E 4 b4 04 00
        E 4 b4 04 00
        E 4 b4 04 00
        E 4 b4 04 00
        E 4 b4 04 00
        E 4 b4 04 00
        E 4 b4 04 00
        E 4 b4 04 00
        E 4 b4 04 01
        E 4 b4 04 02
        E 4 b4 04 03
        E 4 b4 04 03
        E 4 b4 04 04
        E 4 b4 04 05
        E 4 b4 04 07
        E 4 b4 04 07
        E 4 b4 04 09
        E 4 b4 04 0b
        E 4 b4 04 0c
        E 4 b4 04 0e
        E 4 b4 04 10
        E 4 b4 04 12
        E 4 b4 04 14
        E 4 b4 04 16
        E 4 b4 04 18
        E 4 b4 04 1a
        E 4 b4 04 1c
        E 4 b4 04 1f
        E 4 b4 04 21
        E 4 b4 04 24
        E 4 b4 04 26
        E 4 b4 04 28
        E 4 b4 04 2b
        E 4 b4 04 2d
        E 4 b4 04 2f
        E 4 b4 04 33
        E 9 b4 04 39
        E 9 b4 04 3c
        E 9 b4 04 3f
        E 9 b4 04 41
        E 9 b4 04 44
        E 9 b4 04 47
        E 9 b4 04 49
        E 9 b4 04 4c
        E 9 b4 04 4f
        E 9 b4 04 51
        E 9 b4 04 54
        E 9 b4 04 56
        E 9 b4 04 59
        E 9 b4 04 5b
        E 9 b4 04 5d
        E 9 b4 04 5f
        E 9 b4 04 62
        E 9 b4 04 63
        E 9 b4 04 65
        E 9 b4 04 67
        E 9 b4 04 69
        E 9 b4 04 6a
        E 9 b4 04 6c
        E 9 b4 04 6c
        E 9 b4 04 6d
        E 9 b4 04 6e
        E 9 b4 04 6f
        E 9 b4 04 70
        E 9 b4 04 71
        E 9 b4 04 71
        E 9 b4 04 72
        E 9 b4 04 72
        E 9 b4 04 72
        E 9 b4 04 72
        E 9 b4 04 72
        E 9 b4 04 71
        E 9 b4 04 71
        E 9 b4 04 70
        E 9 b4 04 6f
        E 9 b4 04 6e
        E 9 b4 04 6d
        E 9 b4 04 6c
        E 9 b4 04 6b
        E 9 b4 04 69
        E 9 b4 04 68
        E 9 b4 04 66
        E 9 b4 04 64
        E 9 b4 04 63
        E 9 b4 04 61
        E 9 b4 04 5e
        E 9 b4 04 5c
        E 9 b4 04 5a
        E 9 b4 04 58
        E 9 b4 04 55
        E 9 b4 04 52
        E 9 b4 04 50
        E 9 b4 04 4e
        E 9 b4 04 4b
        E 9 b4 04 48
        E 9 b4 04 46
        E 9 b4 04 42
        E 9 b4 04 3f
        E 9 b4 04 3d
        E 9 b4 04 3a
        E 9 b4 04 37
        E 9 b4 04 35
        E 9 b4 04 32
        E 9 b4 04 2f
        E 9 b4 04 2c
        E 9 b4 04 29
        E 9 b4 04 26
        E 9 b4 04 24
        E 9 b4 04 22
        E 9 b4 04 1f
        E 9 b4 04 1c
        E 9 b4 04 1a
        E 9 b4 04 18
        E 9 b4 04 15
        E 9 b4 04 13
        E 9 b4 04 11
        E 9 b4 04 0f
        E 9 b4 04 0d
        E 9 b4 04 0b
        E 9 b4 04 09
        E 9 b4 04 09
        E 9 b4 04 07
        E 9 b4 04 06
        E 9 b4 04 04
        E 9 b4 04 03
        E 9 b4 04 02
        E 9 b4 04 01
        E 9 b4 04 00
        E 9 b4 04 00
        E 9 b4 04 00
        E 9 b4 04 00
        E 9 b4 04 00
        E 9 b4 04 00
        E 9 b4 04 00
        E 9 b4 04 00
        E 9 b4 04 00
        E 9 b4 04 01
        E 9 b4 04 02
        E 9 b4 04 03
        E 9 b4 04 04
        E 9 b4 04 05
        E 9 b4 04 06
        E 9 b4 04 08
        E 9 b4 04 09
        E 9 b4 04 0a
        E 9 b4 04 0c
        E 9 b4 04 0e
        E 9 b4 04 10
        E 9 b4 04 12
        E 9 b4 04 14
        E 9 b4 04 16
        E 9 b4 04 19
        E 9 b4 04 1b
        E 9 b4 04 1d
        E 9 b4 04 20
        E 9 b4 04 23
        E 9 b4 04 25
        E 9 b4 04 28
        E 9 b4 04 2b
        E 9 b4 04 2d
        E 9 b4 04 30
        E 9 b4 04 33
        E 9 b4 04 36
        E 9 b4 04 39
        E 14 b4 04 13
        E 14 b4 04 14
        E 14 b4 04 15
        E 14 b4 04 15
        E 14 b4 04 16
        E 14 b4 04 17
        E 14 b4 04 18
        E 14 b4 04 19
        E 14 b4 04 1a
        E 14 b4 04 1b
        E 14 b4 04 1c
        E 14 b4 04 1c
        E 14 b4 04 1d
        E 14 b4 04 1e
        E 14 b4 04 1f
        E 14 b4 04 1f
        E 14 b4 04 20
        E 14 b4 04 21
        E 14 b4 04 21
        E 14 b4 04 22
        E 14 b4 04 23
        E 14 b4 04 23
        E 14 b4 04 24
        E 14 b4 04 24
        E 14 b4 04 24
        E 14 b4 04 24
        E 14 b4 04 25
        E 14 b4 04 25
        E 14 b4 04 25
        E 14 b4 04 25
        E 14 b4 04 26
        E 14 b4 04 26
        E 14 b4 04 26
        E 14 b4 04 26
        E 14 b4 04 26
        E 14 b4 04 25
        E 14 b4 04 25
        E 14 b4 04 25
        E 14 b4 04 25
        E 14 b4 04 24
        E 14 b4 04 24
        E 14 b4 04 24
        E 14 b4 04 23
        E 14 b4 04 23
        E 14 b4 04 22
        E 14 b4 04 22
        E 14 b4 04 21
        E 14 b4 04 21
        E 14 b4 04 20
        E 14 b4 04 1f
        E 14 b4 04 1e
        E 14 b4 04 1e
        E 14 b4 04 1d
        E 14 b4 04 1c
        E 14 b4 04 1b
        E 14 b4 04 1a
        E 14 b4 04 1a
        E 14 b4 04 19
        E 14 b4 04 18
        E 14 b4 04 17
        E 14 b4 04 16
        E 14 b4 04 15
        E 14 b4 04 14
        E 14 b4 04 13
        E 14 b4 04 12
        E 14 b4 04 11
        E 14 b4 04 10
        E 14 b4 04 0f
        E 14 b4 04 0e
        E 14 b4 04 0d
        E 14 b4 04 0c
        E 14 b4 04 0c
        E 14 b4 04 0b
        E 14 b4 04 0a
        E 14 b4 04 09
        E 14 b4 04 08
        E 14 b4 04 08
        E 14 b4 04 07
        E 14 b4 04 06
        E 14 b4 04 05
        E 14 b4 04 05
        E 14 b4 04 04
        E 14 b4 04 03
        E 14 b4 04 03
        E 14 b4 04 03
        E 14 b4 04 02
        E 14 b4 04 02
        E 14 b4 04 01
        E 14 b4 04 01
        E 14 b4 04 00
        E 14 b4 04 00
        E 14 b4 04 00
        E 14 b4 04 00
        E 14 b4 04 00
        E 14 b4 04 00
        E 14 b4 04 00
        E 14 b4 04 00
        E 14 b4 04 00
        E 14 b4 04 00
        E 14 b4 04 00
        E 14 b4 04 00
        E 14 b4 04 00
        E 14 b4 04 01
        E 14 b4 04 01
        E 14 b4 04 01
        E 14 b4 04 02
        E 14 b4 04 02
        E 14 b4 04 03
        E 14 b4 04 03
        E 14 b4 04 04
        E 14 b4 04 04
        E 14 b4 04 05
        E 14 b4 04 06
        E 14 b4 04 06
        E 14 b4 04 07
        E 14 b4 04 08
        E 14 b4 04 09
        E 14 b4 04 09
        E 14 b4 04 0a
        E 14 b4 04 0b
        E 14 b4 04 0c
        E 14 b4 04 0d
        E 14 b4 04 0e
        E 14 b4 04 0f
        E 14 b4 04 10
        E 14 b4 04 11
        E 14 b4 04 12
        E 14 b4 04 13
        E 6 b4 04 33
        E 6 b4 04 35
        E 6 b4 04 37
        E 6 b4 04 3a
        E 6 b4 04 3c
        E 6 b4 04 3f
        E 6 b4 04 41
        E 6 b4 04 44
        E 6 b4 04 46
        E 6 b4 04 48
        E 6 b4 04 4b
        E 6 b4 04 4c
        E 6 b4 04 4f
        E 6 b4 04 51
        E 6 b4 04 53
        E 6 b4 04 54
        E 6 b4 04 57
        E 6 b4 04 58
        E 6 b4 04 5a
        E 6 b4 04 5b
        E 6 b4 04 5d
        E 6 b4 04 5e
        E 6 b4 04 5f
        E 6 b4 04 60
        E 6 b4 04 61
        E 6 b4 04 62
        E 6 b4 04 63
        E 6 b4 04 63
        E 6 b4 04 64
        E 6 b4 04 64
        E 6 b4 04 65
        E 6 b4 04 65
        E 6 b4 04 65
        E 6 b4 04 65
        E 6 b4 04 65
        E 6 b4 04 64
        E 6 b4 04 64
        E 6 b4 04 63
        E 6 b4 04 63
        E 6 b4 04 62
        E 6 b4 04 61
        E 6 b4 04 5f
        E 6 b4 04 5f
        E 6 b4 04 5d
        E 6 b4 04 5c
        E 6 b4 04 5b
        E 6 b4 04 59
        E 6 b4 04 57
        E 6 b4 04 56
        E 6 b4 04 54
        E 6 b4 04 52
        E 6 b4 04 50
        E 6 b4 04 4e
        E 6 b4 04 4c
        E 6 b4 04 49
        E 6 b4 04 47
        E 6 b4 04 45
        E 6 b4 04 43
        E 6 b4 04 40
        E 6 b4 04 3e
        E 6 b4 04 3b
        E 6 b4 04 38
        E 6 b4 04 36
        E 6 b4 04 33
        E 6 b4 04 31
        E 6 b4 04 2f
        E 6 b4 04 2c
        E 6 b4 04 2a
        E 6 b4 04 27
        E 6 b4 04 24
        E 6 b4 04 22
        E 6 b4 04 1f
        E 6 b4 04 1e
        E 6 b4 04 1b
        E 6 b4 04 19
        E 6 b4 04 17
        E 6 b4 04 15
        E 6 b4 04 13
        E 6 b4 04 11
        E 6 b4 04 0f
        E 6 b4 04 0d
        E 6 b4 04 0b
        E 6 b4 04 0a
        E 6 b4 04 08
        E 6 b4 04 07
        E 6 b4 04 06
        E 6 b4 04 05
        E 6 b4 04 03
        E 6 b4 04 03
        E 6 b4 04 02
        E 6 b4 04 01
        E 6 b4 04 00
        E 6 b4 04 00
        E 6 b4 04 00
        E 6 b4 04 00
        E 6 b4 04 00
        E 6 b4 04 00
        E 6 b4 04 00
        E 6 b4 04 00
        E 6 b4 04 00
        E 6 b4 04 01
        E 6 b4 04 02
        E 6 b4 04 03
        E 6 b4 04 03
        E 6 b4 04 04
        E 6 b4 04 05
        E 6 b4 04 07
        E 6 b4 04 07
        E 6 b4 04 09
        E 6 b4 04 0b
        E 6 b4 04 0c
        E 6 b4 04 0e
        E 6 b4 04 10
        E 6 b4 04 12
        E 6 b4 04 14
        E 6 b4 04 16
        E 6 b4 04 18
        E 6 b4 04 1a
        E 6 b4 04 1c
        E 6 b4 04 1f
        E 6 b4 04 21
        E 6 b4 04 24
        E 6 b4 04 26
        E 6 b4 04 28
        E 6 b4 04 2b
        E 6 b4 04 2d
        E 6 b4 04 2f
        E 6 b4 04 33
        E 1 b4 04 06
        E 1 b4 04 06
        E 1 b4 04 07
        E 1 b4 04 07
        E 1 b4 04 07
        E 1 b4 04 07
        E 1 b4 04 08
        E 1 b4 04 08
        E 1 b4 04 08
        E 1 b4 04 09
        E 1 b4 04 09
        E 1 b4 04 09
        E 1 b4 04 09
        E 1 b4 04 0a
        E 1 b4 04 0a
        E 1 b4 04 0a
        E 1 b4 04 0a
        E 1 b4 04 0b
        E 1 b4 04 0b
        E 1 b4 04 0b
        E 1 b4 04 0b
        E 1 b4 04 0b
        E 1 b4 04 0c
        E 1 b4 04 0c
        E 1 b4 04 0c
        E 1 b4 04 0c
        E 1 b4 04 0c
        E 1 b4 04 0c
        E 1 b4 04 0c
        E 1 b4 04 0c
        E 1 b4 04 0c
        E 1 b4 04 0c
        E 1 b4 04 0c
        E 1 b4 04 0c
        E 1 b4 04 0c
        E 1 b4 04 0c
        E 1 b4 04 0c
        E 1 b4 04 0c
        E 1 b4 04 0c
        E 1 b4 04 0c
        E 1 b4 04 0c
        E 1 b4 04 0c
        E 1 b4 04 0b
        E 1 b4 04 0b
        E 1 b4 04 0b
        E 1 b4 04 0b
        E 1 b4 04 0b
        E 1 b4 04 0b
        E 1 b4 04 0a
        E 1 b4 04 0a
        E 1 b4 04 0a
        E 1 b4 04 0a
        E 1 b4 04 09
        E 1 b4 04 09
        E 1 b4 04 09
        E 1 b4 04 08
        E 1 b4 04 08
        E 1 b4 04 08
        E 1 b4 04 08
        E 1 b4 04 07
        E 1 b4 04 07
        E 1 b4 04 07
        E 1 b4 04 06
        E 1 b4 04 06
        E 1 b4 04 06
        E 1 b4 04 05
        E 1 b4 04 05
        E 1 b4 04 05
        E 1 b4 04 04
        E 1 b4 04 04
        E 1 b4 04 04
        E 1 b4 04 04
        E 1 b4 04 03
        E 1 b4 04 03
        E 1 b4 04 03
        E 1 b4 04 02
        E 1 b4 04 02
        E 1 b4 04 02
        E 1 b4 04 02
        E 1 b4 04 01
        E 1 b4 04 01
        E 1 b4 04 01
        E 1 b4 04 01
        E 1 b4 04 01
        E 1 b4 04 01
        E 1 b4 04 00
        E 1 b4 04 00
        E 1 b4 04 00
        E 1 b4 04 00
        E 1 b4 04 00
        E 1 b4 04 00
        E 1 b4 04 00
        E 1 b4 04 00
        E 1 b4 04 00
        E 1 b4 04 00
        E 1 b4 04 00
        E 1 b4 04 00
        E 1 b4 04 00
        E 1 b4 04 00
        E 1 b4 04 00
        E 1 b4 04 00
        E 1 b4 04 00
        E 1 b4 04 00
        E 1 b4 04 00
        E 1 b4 04 00
        E 1 b4 04 00
        E 1 b4 04 00
        E 1 b4 04 01
        E 1 b4 04 01
        E 1 b4 04 01
        E 1 b4 04 01
        E 1 b4 04 01
        E 1 b4 04 02
        E 1 b4 04 02
        E 1 b4 04 02
        E 1 b4 04 02
        E 1 b4 04 03
        E 1 b4 04 03
        E 1 b4 04 03
        E 1 b4 04 03
        E 1 b4 04 04
        E 1 b4 04 04
        E 1 b4 04 04
        E 1 b4 04 05
        E 1 b4 04 05
        E 1 b4 04 05
        E 1 b4 04 06
        E 1 b4 04 06
        E 11 b4 04 39
        E 11 b4 04 3c
        E 11 b4 04 3f
        E 11 b4 04 41
        E 11 b4 04 44
        E 11 b4 04 47
        E 11 b4 04 49
        E 11 b4 04 4c
        E 11 b4 04 4f
        E 11 b4 04 51
        E 11 b4 04 54
        E 11 b4 04 56
        E 11 b4 04 59
        E 11 b4 04 5b
        E 11 b4 04 5d
        E 11 b4 04 5f
        E 11 b4 04 62
        E 11 b4 04 63
        E 11 b4 04 65
        E 11 b4 04 67
        E 11 b4 04 69
        E 11 b4 04 6a
        E 11 b4 04 6c
        E 11 b4 04 6c
        E 11 b4 04 6d
        E 11 b4 04 6e
        E 11 b4 04 6f
        E 11 b4 04 70
        E 11 b4 04 71
        E 11 b4 04 71
        E 11 b4 04 72
        E 11 b4 04 72
        E 11 b4 04 72
        E 11 b4 04 72
        E 11 b4 04 72
        E 11 b4 04 71
        E 11 b4 04 71
        E 11 b4 04 70
        E 11 b4 04 6f
        E 11 b4 04 6e
        E 11 b4 04 6d
        E 11 b4 04 6c
        E 11 b4 04 6b
        E 11 b4 04 69
        E 11 b4 04 68
        E 11 b4 04 66
        E 11 b4 04 64
        E 11 b4 04 63
        E 11 b4 04 61
        E 11 b4 04 5e
        E 11 b4 04 5c
        E 11 b4 04 5a
        E 11 b4 04 58
        E 11 b4 04 55
        E 11 b4 04 52
        E 11 b4 04 50
        E 11 b4 04 4e
        E 11 b4 04 4b
        E 11 b4 04 48
        E 11 b4 04 46
        E 11 b4 04 42
        E 11 b4 04 3f
        E 11 b4 04 3d
        E 11 b4 04 3a
        E 11 b4 04 37
        E 11 b4 04 35
        E 11 b4 04 32
        E 11 b4 04 2f
        E 11 b4 04 2c
        E 11 b4 04 29
        E 11 b4 04 26
        E 11 b4 04 24
        E 11 b4 04 22
        E 11 b4 04 1f
        E 11 b4 04 1c
        E 11 b4 04 1a
        E 11 b4 04 18
        E 11 b4 04 15
        E 11 b4 04 13
        E 11 b4 04 11
        E 11 b4 04 0f
        E 11 b4 04 0d
        E 11 b4 04 0b
        E 11 b4 04 09
        E 11 b4 04 09
        E 11 b4 04 07
        E 11 b4 04 06
        E 11 b4 04 04
        E 11 b4 04 03
        E 11 b4 04 02
        E 11 b4 04 01
        E 11 b4 04 00
        E 11 b4 04 00
        E 11 b4 04 00
        E 11 b4 04 00
        E 11 b4 04 00
        E 11 b4 04 00
        E 11 b4 04 00
        E 11 b4 04 00
        E 11 b4 04 00
        E 11 b4 04 01
        E 11 b4 04 02
        E 11 b4 04 03
        E 11 b4 04 04
        E 11 b4 04 05
        E 11 b4 04 06
        E 11 b4 04 08
        E 11 b4 04 09
        E 11 b4 04 0a
        E 11 b4 04 0c
        E 11 b4 04 0e
        E 11 b4 04 10
        E 11 b4 04 12
        E 11 b4 04 14
        E 11 b4 04 16
        E 11 b4 04 19
        E 11 b4 04 1b
        E 11 b4 04 1d
        E 11 b4 04 20
        E 11 b4 04 23
        E 11 b4 04 25
        E 11 b4 04 28
        E 11 b4 04 2b
        E 11 b4 04 2d
        E 11 b4 04 30
        E 11 b4 04 33
        E 11 b4 04 36
        E 11 b4 04 39
        E 4 b4 04 33
        E 4 b4 04 35
        E 4 b4 04 37
        E 4 b4 04 3a
        E 4 b4 04 3c
        E 4 b4 04 3f
        E 4 b4 04 41
        E 4 b4 04 44
        E 4 b4 04 46
        E 4 b4 04 48
        E 4 b4 04 4b
        E 4 b4 04 4c
        E 4 b4 04 4f
        E 4 b4 04 51
        E 4 b4 04 53
        E 4 b4 04 54
        E 4 b4 04 57
        E 4 b4 04 58
        E 4 b4 04 5a
        E 4 b4 04 5b
        E 4 b4 04 5d
        E 4 b4 04 5e
        E 4 b4 04 5f
        E 4 b4 04 60
        E 4 b4 04 61
        E 4 b4 04 62
        E 4 b4 04 63
        E 4 b4 04 63
        E 4 b4 04 64
        E 4 b4 04 64
        E 4 b4 04 65
        E 4 b4 04 65
        E 4 b4 04 65
        E 4 b4 04 65
        E 4 b4 04 65
        E 4 b4 04 64
        E 4 b4 04 64
        E 4 b4 04 63
        E 4 b4 04 63
        E 4 b4 04 62
        E 4 b4 04 61
        E 4 b4 04 5f
        E 4 b4 04 5f
        E 4 b4 04 5d
        E 4 b4 04 5c
        E 4 b4 04 5b
        E 4 b4 04 59
        E 4 b4 04 57
        E 4 b4 04 56
        E 4 b4 04 54
        E 4 b4 04 52
        E 4 b4 04 50
        E 4 b4 04 4e
        E 4 b4 04 4c
        E 4 b4 04 49
        E 4 b4 04 47
        E 4 b4 04 45
        E 4 b4 04 43
        E 4 b4 04 40
        E 4 b4 04 3e
        E 4 b4 04 3b
        E 4 b4 04 38
        E 4 b4 04 36
        E 4 b4 04 33
        E 4 b4 04 31
        E 4 b4 04 2f
        E 4 b4 04 2c
        E 4 b4 04 2a
        E 4 b4 04 27
        E 4 b4 04 24
        E 4 b4 04 22
        E 4 b4 04 1f
        E 4 b4 04 1e
        E 4 b4 04 1b
        E 4 b4 04 19
        E 4 b4 04 17
        E 4 b4 04 15
        E 4 b4 04 13
        E 4 b4 04 11
        E 4 b4 04 0f
        E 4 b4 04 0d
        E 4 b4 04 0b
        E 4 b4 04 0a
        E 4 b4 04 08
        E 4 b4 04 07
        E 4 b4 04 06
        E 4 b4 04 05
        E 4 b4 04 03
        E 4 b4 04 03
        E 4 b4 04 02
        E 4 b4 04 01
        E 4 b4 04 00
        E 4 b4 04 00
        E 4 b4 04 00
        E 4 b4 04 00
        E 4 b4 04 00
        E 4 b4 04 00
        E 4 b4 04 00
        E 4 b4 04 00
        E 4 b4 04 00
        E 4 b4 04 01
        E 4 b4 04 02
        E 4 b4 04 03
        E 4 b4 04 03
        E 4 b4 04 04
        E 4 b4 04 05
        E 4 b4 04 07
        E 4 b4 04 07
        E 4 b4 04 09
        E 4 b4 04 0b
        E 4 b4 04 0c
        E 4 b4 04 0e
        E 4 b4 04 10
        E 4 b4 04 12
        E 4 b4 04 14
        E 4 b4 04 16
        E 4 b4 04 18
        E 4 b4 04 1a
        E 4 b4 04 1c
        E 4 b4 04 1f
        E 4 b4 04 21
        E 4 b4 04 24
        E 4 b4 04 26
        E 4 b4 04 28
        E 4 b4 04 2b
        E 4 b4 04 2d
        E 4 b4 04 2f
        E 4 b4 04 33
        E 9 b4 04 39
        E 9 b4 04 3c
        E 9 b4 04 3f
        E 9 b4 04 41
        E 9 b4 04 44
        E 9 b4 04 47
        E 9 b4 04 49
        E 9 b4 04 4c
        E 9 b4 04 4f
        E 9 b4 04 51
        E 9 b4 04 54
        E 9 b4 04 56
        E 9 b4 04 59
        E 9 b4 04 5b
        E 9 b4 04 5d
        E 9 b4 04 5f
        E 9 b4 04 62
        E 9 b4 04 63
        E 9 b4 04 65
        E 9 b4 04 67
        E 9 b4 04 69
        E 9 b4 04 6a
        E 9 b4 04 6c
        E 9 b4 04 6c
        E 9 b4 04 6d
        E 9 b4 04 6e
        E 9 b4 04 6f
        E 9 b4 04 70
        E 9 b4 04 71
        E 9 b4 04 71
        E 9 b4 04 72
        E 9 b4 04 72
        E 9 b4 04 72
        E 9 b4 04 72
        E 9 b4 04 72
        E 9 b4 04 71
        E 9 b4 04 71
        E 9 b4 04 70
        E 9 b4 04 6f
        E 9 b4 04 6e
        E 9 b4 04 6d
        E 9 b4 04 6c
        E 9 b4 04 6b
        E 9 b4 04 69
        E 9 b4 04 68
        E 9 b4 04 66
        E 9 b4 04 64
        E 9 b4 04 63
        E 9 b4 04 61
        E 9 b4 04 5e
        E 9 b4 04 5c
        E 9 b4 04 5a
        E 9 b4 04 58
        E 9 b4 04 55
        E 9 b4 04 52
        E 9 b4 04 50
        E 9 b4 04 4e
        E 9 b4 04 4b
        E 9 b4 04 48
        E 9 b4 04 46
        E 9 b4 04 42
        E 9 b4 04 3f
        E 9 b4 04 3d
        E 9 b4 04 3a
        E 9 b4 04 37
        E 9 b4 04 35
        E 9 b4 04 32
        E 9 b4 04 2f
        E 9 b4 04 2c
        E 9 b4 04 29
        E 9 b4 04 26
        E 9 b4 04 24
        E 9 b4 04 22
        E 9 b4 04 1f
        E 9 b4 04 1c
        E 9 b4 04 1a
        E 9 b4 04 18
        E 9 b4 04 15
        E 9 b4 04 13
        E 9 b4 04 11
        E 9 b4 04 0f
        E 9 b4 04 0d
        E 9 b4 04 0b
        E 9 b4 04 09
        E 9 b4 04 09
        E 9 b4 04 07
        E 9 b4 04 06
        E 9 b4 04 04
        E 9 b4 04 03
        E 9 b4 04 02
        E 9 b4 04 01
        E 9 b4 04 00
        E 9 b4 04 00
        E 9 b4 04 00
        E 9 b4 04 00
        E 9 b4 04 00
        E 9 b4 04 00
        E 9 b4 04 00
        E 9 b4 04 00
        E 9 b4 04 00
        E 9 b4 04 01
        E 9 b4 04 02
        E 9 b4 04 03
        E 9 b4 04 04
        E 9 b4 04 05
        E 9 b4 04 06
        E 9 b4 04 08
        E 9 b4 04 09
        E 9 b4 04 0a
        E 9 b4 04 0c
        E 9 b4 04 0e
        E 9 b4 04 10
        E 9 b4 04 12
        E 9 b4 04 14
        E 9 b4 04 16
        E 9 b4 04 19
        E 9 b4 04 1b
        E 9 b4 04 1d
        E 9 b4 04 20
        E 9 b4 04 23
        E 9 b4 04 25
        E 9 b4 04 28
        E 9 b4 04 2b
        E 9 b4 04 2d
        E 9 b4 04 30
        E 9 b4 04 33
        E 9 b4 04 36
        E 9 b4 04 39
        E 14 b4 04 13
        E 14 b4 04 14
        E 14 b4 04 15
        E 14 b4 04 15
        E 14 b4 04 16
        E 14 b4 04 17
        E 14 b4 04 18
        E 14 b4 04 19
        E 14 b4 04 1a
        E 14 b4 04 1b
        E 14 b4 04 1c
        E 14 b4 04 1c
        E 14 b4 04 1d
        E 14 b4 04 1e
        E 14 b4 04 1f
        E 14 b4 04 1f
        E 14 b4 04 20
        E 14 b4 04 21
        E 14 b4 04 21
        E 14 b4 04 22
        E 14 b4 04 23
        E 14 b4 04 23
        E 14 b4 04 24
        E 14 b4 04 24
        E 14 b4 04 24
        E 14 b4 04 24
        E 14 b4 04 25
        E 14 b4 04 25
        E 14 b4 04 25
        E 14 b4 04 25
        E 14 b4 04 26
        E 14 b4 04 26
        E 14 b4 04 26
        E 14 b4 04 26
        E 14 b4 04 26
        E 14 b4 04 25
        E 14 b4 04 25
        E 14 b4 04 25
        E 14 b4 04 25
        E 14 b4 04 24
        E 14 b4 04 24
        E 14 b4 04 24
        E 14 b4 04 23
        E 14 b4 04 23
        E 14 b4 04 22
        E 14 b4 04 22
        E 14 b4 04 21
        E 14 b4 04 21
        E 14 b4 04 20
        E 14 b4 04 1f
        E 14 b4 04 1e
        E 14 b4 04 1e
        E 14 b4 04 1d
        E 14 b4 04 1c
        E 14 b4 04 1b
        E 14 b4 04 1a
        E 14 b4 04 1a
        E 14 b4 04 19
        E 14 b4 04 18
        E 14 b4 04 17
        E 14 b4 04 16
        E 14 b4 04 15
        E 14 b4 04 14
        E 14 b4 04 13
        E 14 b4 04 12
        E 14 b4 04 11
        E 14 b4 04 10
        E 14 b4 04 0f
        E 14 b4 04 0e
        E 14 b4 04 0d
        E 14 b4 04 0c
        E 14 b4 04 0c
        E 14 b4 04 0b
        E 14 b4 04 0a
        E 14 b4 04 09
        E 14 b4 04 08
        E 14 b4 04 08
        E 14 b4 04 07
        E 14 b4 04 06
        E 14 b4 04 05
        E 14 b4 04 05
        E 14 b4 04 04
        E 14 b4 04 03
        E 14 b4 04 03
        E 14 b4 04 03
        E 14 b4 04 02
        E 14 b4 04 02
        E 14 b4 04 01
        E 14 b4 04 01
        E 14 b4 04 00
        E 14 b4 04 00
        E 14 b4 04 00
        E 14 b4 04 00
        E 14 b4 04 00
        E 14 b4 04 00
        E 14 b4 04 00
        E 14 b4 04 00
        E 14 b4 04 00
        E 14 b4 04 00
        E 14 b4 04 00
        E 14 b4 04 00
        E 14 b4 04 00
        E 14 b4 04 01
        E 14 b4 04 01
        E 14 b4 04 01
        E 14 b4 04 02
        E 14 b4 04 02
        E 14 b4 04 03
        E 14 b4 04 03
        E 14 b4 04 04
        E 14 b4 04 04
        E 14 b4 04 05
        E 14 b4 04 06
        E 14 b4 04 06
        E 14 b4 04 07
        E 14 b4 04 08
        E 14 b4 04 09
        E 14 b4 04 09
        E 14 b4 04 0a
        E 14 b4 04 0b
        E 14 b4 04 0c
        E 14 b4 04 0d
        E 14 b4 04 0e
        E 14 b4 04 0f
        E 14 b4 04 10
        E 14 b4 04 11
        E 14 b4 04 12
        E 14 b4 04 13
        E 23 b4 04 19
        E 23 b4 04 56
        E 23 b4 04 38
        E 23 b4 04 09
        E 23 b4 04 51
        E 23 b4 04 48
        E 23 b4 04 0a
        E 23 b4 04 09
        E 23 b4 04 36
        E 23 b4 04 6c
        E 23 b4 04 5a
        E 23 b4 04 63
        E 23 b4 04 47
        E 23 b4 04 0c
        E 23 b4 04 15
        E 23 b4 04 4d
        E 23 b4 04 3f
        E 23 b4 04 20
        E 23 b4 04 16
        E 23 b4 04 1e
        E 23 b4 04 59
        E 23 b4 04 35
        E 23 b4 04 1b
        E 23 b4 04 41
        E 23 b4 04 71
        E 23 b4 04 00
        E 23 b4 04 0e
        E 23 b4 04 2e
        E 23 b4 04 26
        E 23 b4 04 5d
        E 23 b4 04 18
        E 23 b4 04 07
        E 23 b4 04 12
        E 23 b4 04 13
        E 23 b4 04 67
        E 23 b4 04 1c
        E 23 b4 04 00
        E 23 b4 04 54
        E 23 b4 04 27
        E 23 b4 04 17
        E 23 b4 04 2d
        E 23 b4 04 1d
        E 23 b4 04 61
        E 23 b4 04 60
        E 23 b4 04 72
        E 23 b4 04 5f
        E 23 b4 04 31
        E 23 b4 04 6a
        E 23 b4 04 51
        E 23 b4 04 0d
        E 23 b4 04 32
        E 23 b4 04 3d
        E 23 b4 04 6c
        E 23 b4 04 57
        E 23 b4 04 3e
        E 23 b4 04 3f
        E 23 b4 04 05
        E 23 b4 04 0b
        E 23 b4 04 69
        E 23 b4 04 5b
        E 23 b4 04 30
        E 23 b4 04 24
        E 23 b4 04 0f
        E 23 b4 04 33
        E 23 b4 04 22
        E 23 b4 04 1b
        E 23 b4 04 2b
        E 23 b4 04 3b
        E 23 b4 04 45
        E 23 b4 04 49
        E 23 b4 04 12
        E 23 b4 04 44
        E 23 b4 04 65
        E 23 b4 04 3a
        E 23 b4 04 42
        E 23 b4 04 02
        E 23 b4 04 08
        E 23 b4 04 70
        E 23 b4 04 4a
        E 23 b4 04 14
        E 23 b4 04 68
        E 23 b4 04 24
        E 23 b4 04 2c
        E 23 b4 04 37
        E 23 b4 04 2d
        E 23 b4 04 4c
        E 23 b4 04 5c
        E 23 b4 04 21
        E 23 b4 04 40
        E 23 b4 04 1a
        E 23 b4 04 66
        E 23 b4 04 5e
        E 23 b4 04 34
        E 23 b4 04 29
        E 23 b4 04 5a
        E 23 b4 04 2a
        E 23 b4 04 50
        E 23 b4 04 10
        E 23 b4 04 01
        E 23 b4 04 25
        E 23 b4 04 39
        E 23 b4 04 62
        E 23 b4 04 58
        E 23 b4 04 03
        E 23 b4 04 63
        E 23 b4 04 53
        E 23 b4 04 06
        E 23 b4 04 23
        E 23 b4 04 43
        E 23 b4 04 55
        E 23 b4 04 6d
        E 23 b4 04 46
        E 23 b4 04 2f
        E 23 b4 04 1f
        E 23 b4 04 4f
        E 23 b4 04 52
        E 23 b4 04 64
        E 23 b4 04 6f
        E 23 b4 04 36
        E 23 b4 04 48
        E 23 b4 04 4e
        E 23 b4 04 3c
        E 23 b4 04 6b
        E 23 b4 04 11
        E 23 b4 04 28
        E 23 b4 04 4b
        E 10 b4 04 16
        E 10 b4 04 4c
        E 10 b4 04 32
        E 10 b4 04 07
        E 10 b4 04 48
        E 10 b4 04 3f
        E 10 b4 04 09
        E 10 b4 04 08
        E 10 b4 04 30
        E 10 b4 04 5f
        E 10 b4 04 50
        E 10 b4 04 58
        E 10 b4 04 3f
        E 10 b4 04 0b
        E 10 b4 04 13
        E 10 b4 04 44
        E 10 b4 04 37
        E 10 b4 04 1c
        E 10 b4 04 14
        E 10 b4 04 1b
        E 10 b4 04 4f
        E 10 b4 04 2f
        E 10 b4 04 17
        E 10 b4 04 3a
        E 10 b4 04 64
        E 10 b4 04 00
        E 10 b4 04 0c
        E 10 b4 04 29
        E 10 b4 04 22
        E 10 b4 04 53
        E 10 b4 04 15
        E 10 b4 04 06
        E 10 b4 04 0f
        E 10 b4 04 11
        E 10 b4 04 5b
        E 10 b4 04 19
        E 10 b4 04 00
        E 10 b4 04 4b
        E 10 b4 04 23
        E 10 b4 04 14
        E 10 b4 04 28
        E 10 b4 04 1a
        E 10 b4 04 56
        E 10 b4 04 55
        E 10 b4 04 65
        E 10 b4 04 54
        E 10 b4 04 2b
        E 10 b4 04 5e
        E 10 b4 04 48
        E 10 b4 04 0b
        E 10 b4 04 2c
        E 10 b4 04 36
        E 10 b4 04 60
        E 10 b4 04 4d
        E 10 b4 04 37
        E 10 b4 04 38
        E 10 b4 04 04
        E 10 b4 04 0a
        E 10 b4 04 5d
        E 10 b4 04 51
        E 10 b4 04 2b
        E 10 b4 04 1f
        E 10 b4 04 0d
        E 10 b4 04 2d
        E 10 b4 04 1e
        E 10 b4 04 18
        E 10 b4 04 26
        E 10 b4 04 34
        E 10 b4 04 3d
        E 10 b4 04 41
        E 10 b4 04 10
        E 10 b4 04 3c
        E 10 b4 04 5a
        E 10 b4 04 33
        E 10 b4 04 3b
        E 10 b4 04 02
        E 10 b4 04 07
        E 10 b4 04 63
        E 10 b4 04 42
        E 10 b4 04 12
        E 10 b4 04 5c
        E 10 b4 04 20
        E 10 b4 04 27
        E 10 b4 04 31
        E 10 b4 04 28
        E 10 b4 04 44
        E 10 b4 04 52
        E 10 b4 04 1d
        E 10 b4 04 39
        E 10 b4 04 17
        E 10 b4 04 5b
        E 10 b4 04 54
        E 10 b4 04 2e
        E 10 b4 04 24
        E 10 b4 04 50
        E 10 b4 04 25
        E 10 b4 04 47
        E 10 b4 04 0e
        E 10 b4 04 01
        E 10 b4 04 21
        E 10 b4 04 33
        E 10 b4 04 57
        E 10 b4 04 4e
        E 10 b4 04 03
        E 10 b4 04 57
        E 10 b4 04 4a
        E 10 b4 04 05
        E 10 b4 04 1f
        E 10 b4 04 3b
        E 10 b4 04 4c
        E 10 b4 04 61
        E 10 b4 04 3e
        E 10 b4 04 2a
        E 10 b4 04 1b
        E 10 b4 04 46
        E 10 b4 04 49
        E 10 b4 04 59
        E 10 b4 04 63
        E 10 b4 04 2f
        E 10 b4 04 40
        E 10 b4 04 45
        E 10 b4 04 35
        E 10 b4 04 5f
        E 10 b4 04 0f
        E 10 b4 04 24
        E 10 b4 04 43
        E 20 b4 04 33
        E 20 b4 04 35
        E 20 b4 04 37
        E 20 b4 04 3a
        E 20 b4 04 3c
        E 20 b4 04 3f
        E 20 b4 04 41
        E 20 b4 04 44
        E 20 b4 04 46
        E 20 b4 04 48
        E 20 b4 04 4b
        E 20 b4 04 4c
        E 20 b4 04 4f
        E 20 b4 04 51
        E 20 b4 04 53
        E 20 b4 04 54
        E 20 b4 04 57
        E 20 b4 04 58
        E 20 b4 04 5a
        E 20 b4 04 5b
        E 20 b4 04 5d
        E 20 b4 04 5e
        E 20 b4 04 5f
        E 20 b4 04 60
        E 20 b4 04 61
        E 20 b4 04 62
        E 20 b4 04 63
        E 20 b4 04 63
        E 20 b4 04 64
        E 20 b4 04 64
        E 20 b4 04 65
        E 20 b4 04 65
        E 20 b4 04 65
        E 20 b4 04 65
        E 20 b4 04 65
        E 20 b4 04 64
        E 20 b4 04 64
        E 20 b4 04 63
        E 20 b4 04 63
        E 20 b4 04 62
        E 20 b4 04 61
        E 20 b4 04 5f
        E 20 b4 04 5f
        E 20 b4 04 5d
        E 20 b4 04 5c
        E 20 b4 04 5b
        E 20 b4 04 59
        E 20 b4 04 57
        E 20 b4 04 56
        E 20 b4 04 54
        E 20 b4 04 52
        E 20 b4 04 50
        E 20 b4 04 4e
        E 20 b4 04 4c
        E 20 b4 04 49
        E 20 b4 04 47
        E 20 b4 04 45
        E 20 b4 04 43
        E 20 b4 04 40
        E 20 b4 04 3e
        E 20 b4 04 3b
        E 20 b4 04 38
        E 20 b4 04 36
        E 20 b4 04 33
        E 20 b4 04 31
        E 20 b4 04 2f
        E 20 b4 04 2c
        E 20 b4 04 2a
        E 20 b4 04 27
        E 20 b4 04 24
        E 20 b4 04 22
        E 20 b4 04 1f
        E 20 b4 04 1e
        E 20 b4 04 1b
        E 20 b4 04 19
        E 20 b4 04 17
        E 20 b4 04 15
        E 20 b4 04 13
        E 20 b4 04 11
        E 20 b4 04 0f
        E 20 b4 04 0d
        E 20 b4 04 0b
        E 20 b4 04 0a
        E 20 b4 04 08
        E 20 b4 04 07
        E 20 b4 04 06
        E 20 b4 04 05
        E 20 b4 04 03
        E 20 b4 04 03
        E 20 b4 04 02
        E 20 b4 04 01
        E 20 b4 04 00
        E 20 b4 04 00
        E 20 b4 04 00
        E 20 b4 04 00
        E 20 b4 04 00
        E 20 b4 04 00
        E 20 b4 04 00
        E 20 b4 04 00
        E 20 b4 04 00
        E 20 b4 04 01
        E 20 b4 04 02
        E 20 b4 04 03
        E 20 b4 04 03
        E 20 b4 04 04
        E 20 b4 04 05
        E 20 b4 04 07
        E 20 b4 04 07
        E 20 b4 04 09
        E 20 b4 04 0b
        E 20 b4 04 0c
        E 20 b4 04 0e
        E 20 b4 04 10
        E 20 b4 04 12
        E 20 b4 04 14
        E 20 b4 04 16
        E 20 b4 04 18
        E 20 b4 04 1a
        E 20 b4 04 1c
        E 20 b4 04 1f
        E 20 b4 04 21
        E 20 b4 04 24
        E 20 b4 04 26
        E 20 b4 04 28
        E 20 b4 04 2b
        E 20 b4 04 2d
        E 20 b4 04 2f
        E 20 b4 04 33
        E 5 b4 04 06
        E 5 b4 04 06
        E 5 b4 04 07
        E 5 b4 04 07
        E 5 b4 04 07
        E 5 b4 04 07
        E 5 b4 04 08
        E 5 b4 04 08
        E 5 b4 04 08
        E 5 b4 04 09
        E 5 b4 04 09
        E 5 b4 04 09
        E 5 b4 04 09
        E 5 b4 04 0a
        E 5 b4 04 0a
        E 5 b4 04 0a
        E 5 b4 04 0a
        E 5 b4 04 0b
        E 5 b4 04 0b
        E 5 b4 04 0b
        E 5 b4 04 0b
        E 5 b4 04 0b
        E 5 b4 04 0c
        E 5 b4 04 0c
        E 5 b4 04 0c
        E 5 b4 04 0c
        E 5 b4 04 0c
        E 5 b4 04 0c
        E 5 b4 04 0c
        E 5 b4 04 0c
        E 5 b4 04 0c
        E 5 b4 04 0c
        E 5 b4 04 0c
        E 5 b4 04 0c
        E 5 b4 04 0c
        E 5 b4 04 0c
        E 5 b4 04 0c
        E 5 b4 04 0c
        E 5 b4 04 0c
        E 5 b4 04 0c
        E 5 b4 04 0c
        E 5 b4 04 0c
        E 5 b4 04 0b
        E 5 b4 04 0b
        E 5 b4 04 0b
        E 5 b4 04 0b
        E 5 b4 04 0b
        E 5 b4 04 0b
        E 5 b4 04 0a
        E 5 b4 04 0a
        E 5 b4 04 0a
        E 5 b4 04 0a
        E 5 b4 04 09
        E 5 b4 04 09
        E 5 b4 04 09
        E 5 b4 04 08
        E 5 b4 04 08
        E 5 b4 04 08
        E 5 b4 04 08
        E 5 b4 04 07
        E 5 b4 04 07
        E 5 b4 04 07
        E 5 b4 04 06
        E 5 b4 04 06
        E 5 b4 04 06
        E 5 b4 04 05
        E 5 b4 04 05
        E 5 b4 04 05
        E 5 b4 04 04
        E 5 b4 04 04
        E 5 b4 04 04
        E 5 b4 04 04
        E 5 b4 04 03
        E 5 b4 04 03
        E 5 b4 04 03
        E 5 b4 04 02
        E 5 b4 04 02
        E 5 b4 04 02
        E 5 b4 04 02
        E 5 b4 04 01
        E 5 b4 04 01
        E 5 b4 04 01
        E 5 b4 04 01
        E 5 b4 04 01
        E 5 b4 04 01
        E 5 b4 04 00
        E 5 b4 04 00
        E 5 b4 04 00
        E 5 b4 04 00
        E 5 b4 04 00
        E 5 b4 04 00
        E 5 b4 04 00
        E 5 b4 04 00
        E 5 b4 04 00
        E 5 b4 04 00
        E 5 b4 04 00
        E 5 b4 04 00
        E 5 b4 04 00
        E 5 b4 04 00
        E 5 b4 04 00
        E 5 b4 04 00
        E 5 b4 04 00
        E 5 b4 04 00
        E 5 b4 04 00
        E 5 b4 04 00
        E 5 b4 04 00
        E 5 b4 04 00
        E 5 b4 04 01
        E 5 b4 04 01
        E 5 b4 04 01
        E 5 b4 04 01
        E 5 b4 04 01
        E 5 b4 04 02
        E 5 b4 04 02
        E 5 b4 04 02
        E 5 b4 04 02
        E 5 b4 04 03
        E 5 b4 04 03
        E 5 b4 04 03
        E 5 b4 04 03
        E 5 b4 04 04
        E 5 b4 04 04
        E 5 b4 04 04
        E 5 b4 04 05
        E 5 b4 04 05
        E 5 b4 04 05
        E 5 b4 04 06
        E 5 b4 04 06
        E 36 b4 04 39
        E 36 b4 04 3c
        E 36 b4 04 3f
        E 36 b4 04 41
        E 36 b4 04 44
        E 36 b4 04 47
        E 36 b4 04 49
        E 36 b4 04 4c
        E 36 b4 04 4f
        E 36 b4 04 51
        E 36 b4 04 54
        E 36 b4 04 56
        E 36 b4 04 59
        E 36 b4 04 5b
        E 36 b4 04 5d
        E 36 b4 04 5f
        E 36 b4 04 62
        E 36 b4 04 63
        E 36 b4 04 65
        E 36 b4 04 67
        E 36 b4 04 69
        E 36 b4 04 6a
        E 36 b4 04 6c
        E 36 b4 04 6c
        E 36 b4 04 6d
        E 36 b4 04 6e
        E 36 b4 04 6f
        E 36 b4 04 70
        E 36 b4 04 71
        E 36 b4 04 71
        E 36 b4 04 72
        E 36 b4 04 72
        E 36 b4 04 72
        E 36 b4 04 72
        E 36 b4 04 72
        E 36 b4 04 71
        E 36 b4 04 71
        E 36 b4 04 70
        E 36 b4 04 6f
        E 36 b4 04 6e
        E 36 b4 04 6d
        E 36 b4 04 6c
        E 36 b4 04 6b
        E 36 b4 04 69
        E 36 b4 04 68
        E 36 b4 04 66
        E 36 b4 04 64
        E 36 b4 04 63
        E 36 b4 04 61
        E 36 b4 04 5e
        E 36 b4 04 5c
        E 36 b4 04 5a
        E 36 b4 04 58
        E 36 b4 04 55
        E 36 b4 04 52
        E 36 b4 04 50
        E 36 b4 04 4e
        E 36 b4 04 4b
        E 36 b4 04 48
        E 36 b4 04 46
        E 36 b4 04 42
        E 36 b4 04 3f
        E 36 b4 04 3d
        E 36 b4 04 3a
        E 36 b4 04 37
        E 36 b4 04 35
        E 36 b4 04 32
        E 36 b4 04 2f
        E 36 b4 04 2c
        E 36 b4 04 29
        E 36 b4 04 26
        E 36 b4 04 24
        E 36 b4 04 22
        E 36 b4 04 1f
        E 36 b4 04 1c
        E 36 b4 04 1a
        E 36 b4 04 18
        E 36 b4 04 15
        E 36 b4 04 13
        E 36 b4 04 11
        E 36 b4 04 0f
        E 36 b4 04 0d
        E 36 b4 04 0b
        E 36 b4 04 09
        E 36 b4 04 09
        E 36 b4 04 07
        E 36 b4 04 06
        E 36 b4 04 04
        E 36 b4 04 03
        E 36 b4 04 02
        E 36 b4 04 01
        E 36 b4 04 00
        E 36 b4 04 00
        E 36 b4 04 00
        E 36 b4 04 00
        E 36 b4 04 00
        E 36 b4 04 00
        E 36 b4 04 00
        E 36 b4 04 00
        E 36 b4 04 00
        E 36 b4 04 01
        E 36 b4 04 02
        E 36 b4 04 03
        E 36 b4 04 04
        E 36 b4 04 05
        E 36 b4 04 06
        E 36 b4 04 08
        E 36 b4 04 09
        E 36 b4 04 0a
        E 36 b4 04 0c
        E 36 b4 04 0e
        E 36 b4 04 10
        E 36 b4 04 12
        E 36 b4 04 14
        E 36 b4 04 16
        E 36 b4 04 19
        E 36 b4 04 1b
        E 36 b4 04 1d
        E 36 b4 04 20
        E 36 b4 04 23
        E 36 b4 04 25
        E 36 b4 04 28
        E 36 b4 04 2b
        E 36 b4 04 2d
        E 36 b4 04 30
        E 36 b4 04 33
        E 36 b4 04 36
        E 36 b4 04 39
        E 15 b4 04 33
        E 15 b4 04 35
        E 15 b4 04 37
        E 15 b4 04 3a
        E 15 b4 04 3c
        E 15 b4 04 3f
        E 15 b4 04 41
        E 15 b4 04 44
        E 15 b4 04 46
        E 15 b4 04 48
        E 15 b4 04 4b
        E 15 b4 04 4c
        E 15 b4 04 4f
        E 15 b4 04 51
        E 15 b4 04 53
        E 15 b4 04 54
        E 15 b4 04 57
        E 15 b4 04 58
        E 15 b4 04 5a
        E 15 b4 04 5b
        E 15 b4 04 5d
        E 15 b4 04 5e
        E 15 b4 04 5f
        E 15 b4 04 60
        E 15 b4 04 61
        E 15 b4 04 62
        E 15 b4 04 63
        E 15 b4 04 63
        E 15 b4 04 64
        E 15 b4 04 64
        E 15 b4 04 65
        E 15 b4 04 65
        E 15 b4 04 65
        E 15 b4 04 65
        E 15 b4 04 65
        E 15 b4 04 64
        E 15 b4 04 64
        E 15 b4 04 63
        E 15 b4 04 63
        E 15 b4 04 62
        E 15 b4 04 61
        E 15 b4 04 5f
        E 15 b4 04 5f
        E 15 b4 04 5d
        E 15 b4 04 5c
        E 15 b4 04 5b
        E 15 b4 04 59
        E 15 b4 04 57
        E 15 b4 04 56
        E 15 b4 04 54
        E 15 b4 04 52
        E 15 b4 04 50
        E 15 b4 04 4e
        E 15 b4 04 4c
        E 15 b4 04 49
        E 15 b4 04 47
        E 15 b4 04 45
        E 15 b4 04 43
        E 15 b4 04 40
        E 15 b4 04 3e
        E 15 b4 04 3b
        E 15 b4 04 38
        E 15 b4 04 36
        E 15 b4 04 33
        E 15 b4 04 31
        E 15 b4 04 2f
        E 15 b4 04 2c
        E 15 b4 04 2a
        E 15 b4 04 27
        E 15 b4 04 24
        E 15 b4 04 22
        E 15 b4 04 1f
        E 15 b4 04 1e
        E 15 b4 04 1b
        E 15 b4 04 19
        E 15 b4 04 17
        E 15 b4 04 15
        E 15 b4 04 13
        E 15 b4 04 11
        E 15 b4 04 0f
        E 15 b4 04 0d
        E 15 b4 04 0b
        E 15 b4 04 0a
        E 15 b4 04 08
        E 15 b4 04 07
        E 15 b4 04 06
        E 15 b4 04 05
        E 15 b4 04 03
        E 15 b4 04 03
        E 15 b4 04 02
        E 15 b4 04 01
        E 15 b4 04 00
        E 15 b4 04 00
        E 15 b4 04 00
        E 15 b4 04 00
        E 15 b4 04 00
        E 15 b4 04 00
        E 15 b4 04 00
        E 15 b4 04 00
        E 15 b4 04 00
        E 15 b4 04 01
        E 15 b4 04 02
        E 15 b4 04 03
        E 15 b4 04 03
        E 15 b4 04 04
        E 15 b4 04 05
        E 15 b4 04 07
        E 15 b4 04 07
        E 15 b4 04 09
        E 15 b4 04 0b
        E 15 b4 04 0c
        E 15 b4 04 0e
        E 15 b4 04 10
        E 15 b4 04 12
        E 15 b4 04 14
        E 15 b4 04 16
        E 15 b4 04 18
        E 15 b4 04 1a
        E 15 b4 04 1c
        E 15 b4 04 1f
        E 15 b4 04 21
        E 15 b4 04 24
        E 15 b4 04 26
        E 15 b4 04 28
        E 15 b4 04 2b
        E 15 b4 04 2d
        E 15 b4 04 2f
        E 15 b4 04 33
        E 31 b4 04 39
        E 31 b4 04 3c
        E 31 b4 04 3f
        E 31 b4 04 41
        E 31 b4 04 44
        E 31 b4 04 47
        E 31 b4 04 49
        E 31 b4 04 4c
        E 31 b4 04 4f
        E 31 b4 04 51
        E 31 b4 04 54
        E 31 b4 04 56
        E 31 b4 04 59
        E 31 b4 04 5b
        E 31 b4 04 5d
        E 31 b4 04 5f
        E 31 b4 04 62
        E 31 b4 04 63
        E 31 b4 04 65
        E 31 b4 04 67
        E 31 b4 04 69
        E 31 b4 04 6a
        E 31 b4 04 6c
        E 31 b4 04 6c
        E 31 b4 04 6d
        E 31 b4 04 6e
        E 31 b4 04 6f
        E 31 b4 04 70
        E 31 b4 04 71
        E 31 b4 04 71
        E 31 b4 04 72
        E 31 b4 04 72
        E 31 b4 04 72
        E 31 b4 04 72
        E 31 b4 04 72
        E 31 b4 04 71
        E 31 b4 04 71
        E 31 b4 04 70
        E 31 b4 04 6f
        E 31 b4 04 6e
        E 31 b4 04 6d
        E 31 b4 04 6c
        E 31 b4 04 6b
        E 31 b4 04 69
        E 31 b4 04 68
        E 31 b4 04 66
        E 31 b4 04 64
        E 31 b4 04 63
        E 31 b4 04 61
        E 31 b4 04 5e
        E 31 b4 04 5c
        E 31 b4 04 5a
        E 31 b4 04 58
        E 31 b4 04 55
        E 31 b4 04 52
        E 31 b4 04 50
        E 31 b4 04 4e
        E 31 b4 04 4b
        E 31 b4 04 48
        E 31 b4 04 46
        E 31 b4 04 42
        E 31 b4 04 3f
        E 31 b4 04 3d
        E 31 b4 04 3a
        E 31 b4 04 37
        E 31 b4 04 35
        E 31 b4 04 32
        E 31 b4 04 2f
        E 31 b4 04 2c
        E 31 b4 04 29
        E 31 b4 04 26
        E 31 b4 04 24
        E 31 b4 04 22
        E 31 b4 04 1f
        E 31 b4 04 1c
        E 31 b4 04 1a
        E 31 b4 04 18
        E 31 b4 04 15
        E 31 b4 04 13
        E 31 b4 04 11
        E 31 b4 04 0f
        E 31 b4 04 0d
        E 31 b4 04 0b
        E 31 b4 04 09
        E 31 b4 04 09
        E 31 b4 04 07
        E 31 b4 04 06
        E 31 b4 04 04
        E 31 b4 04 03
        E 31 b4 04 02
        E 31 b4 04 01
        E 31 b4 04 00
        E 31 b4 04 00
        E 31 b4 04 00
        E 31 b4 04 00
        E 31 b4 04 00
        E 31 b4 04 00
        E 31 b4 04 00
        E 31 b4 04 00
        E 31 b4 04 00
        E 31 b4 04 01
        E 31 b4 04 02
        E 31 b4 04 03
        E 31 b4 04 04
        E 31 b4 04 05
        E 31 b4 04 06
        E 31 b4 04 08
        E 31 b4 04 09
        E 31 b4 04 0a
        E 31 b4 04 0c
        E 31 b4 04 0e
        E 31 b4 04 10
        E 31 b4 04 12
        E 31 b4 04 14
        E 31 b4 04 16
        E 31 b4 04 19
        E 31 b4 04 1b
        E 31 b4 04 1d
        E 31 b4 04 20
        E 31 b4 04 23
        E 31 b4 04 25
        E 31 b4 04 28
        E 31 b4 04 2b
        E 31 b4 04 2d
        E 31 b4 04 30
        E 31 b4 04 33
        E 31 b4 04 36
        E 31 b4 04 39
        E 46 b4 04 13
        E 46 b4 04 14
        E 46 b4 04 15
        E 46 b4 04 15
        E 46 b4 04 16
        E 46 b4 04 17
        E 46 b4 04 18
        E 46 b4 04 19
        E 46 b4 04 1a
        E 46 b4 04 1b
        E 46 b4 04 1c
        E 46 b4 04 1c
        E 46 b4 04 1d
        E 46 b4 04 1e
        E 46 b4 04 1f
        E 46 b4 04 1f
        E 46 b4 04 20
        E 46 b4 04 21
        E 46 b4 04 21
        E 46 b4 04 22
        E 46 b4 04 23
        E 46 b4 04 23
        E 46 b4 04 24
        E 46 b4 04 24
        E 46 b4 04 24
        E 46 b4 04 24
        E 46 b4 04 25
        E 46 b4 04 25
        E 46 b4 04 25
        E 46 b4 04 25
        E 46 b4 04 26
        E 46 b4 04 26
        E 46 b4 04 26
        E 46 b4 04 26
        E 46 b4 04 26
        E 46 b4 04 25
        E 46 b4 04 25
        E 46 b4 04 25
        E 46 b4 04 25
        E 46 b4 04 24
        E 46 b4 04 24
        E 46 b4 04 24
        E 46 b4 04 23
        E 46 b4 04 23
        E 46 b4 04 22
        E 46 b4 04 22
        E 46 b4 04 21
        E 46 b4 04 21
        E 46 b4 04 20
        E 46 b4 04 1f
        E 46 b4 04 1e
        E 46 b4 04 1e
        E 46 b4 04 1d
        E 46 b4 04 1c
        E 46 b4 04 1b
        E 46 b4 04 1a
        E 46 b4 04 1a
        E 46 b4 04 19
        E 46 b4 04 18
        E 46 b4 04 17
        E 46 b4 04 16
        E 46 b4 04 15
        E 46 b4 04 14
        E 46 b4 04 13
        E 46 b4 04 12
        E 46 b4 04 11
        E 46 b4 04 10
        E 46 b4 04 0f
        E 46 b4 04 0e
        E 46 b4 04 0d
        E 46 b4 04 0c
        E 46 b4 04 0c
        E 46 b4 04 0b
        E 46 b4 04 0a
        E 46 b4 04 09
        E 46 b4 04 08
        E 46 b4 04 08
        E 46 b4 04 07
        E 46 b4 04 06
        E 46 b4 04 05
        E 46 b4 04 05
        E 46 b4 04 04
        E 46 b4 04 03
        E 46 b4 04 03
        E 46 b4 04 03
        E 46 b4 04 02
        E 46 b4 04 02
        E 46 b4 04 01
        E 46 b4 04 01
        E 46 b4 04 00
        E 46 b4 04 00
        E 46 b4 04 00
        E 46 b4 04 00
        E 46 b4 04 00
        E 46 b4 04 00
        E 46 b4 04 00
        E 46 b4 04 00
        E 46 b4 04 00
        E 46 b4 04 00
        E 46 b4 04 00
        E 46 b4 04 00
        E 46 b4 04 00
        E 46 b4 04 01
        E 46 b4 04 01
        E 46 b4 04 01
        E 46 b4 04 02
        E 46 b4 04 02
        E 46 b4 04 03
        E 46 b4 04 03
        E 46 b4 04 04
        E 46 b4 04 04
        E 46 b4 04 05
        E 46 b4 04 06
        E 46 b4 04 06
        E 46 b4 04 07
        E 46 b4 04 08
        E 46 b4 04 09
        E 46 b4 04 09
        E 46 b4 04 0a
        E 46 b4 04 0b
        E 46 b4 04 0c
        E 46 b4 04 0d
        E 46 b4 04 0e
        E 46 b4 04 0f
        E 46 b4 04 10
        E 46 b4 04 11
        E 46 b4 04 12
        E 46 b4 04 13
        E 23 b4 04 19
        E 23 b4 04 56
        E 23 b4 04 38
        E 23 b4 04 09
        E 23 b4 04 51
        E 23 b4 04 48
        E 23 b4 04 0a
        E 23 b4 04 09
        E 23 b4 04 36
        E 23 b4 04 6c
        E 23 b4 04 5a
        E 23 b4 04 63
        E 23 b4 04 47
        E 23 b4 04 0c
        E 23 b4 04 15
        E 23 b4 04 4d
        E 23 b4 04 3f
        E 23 b4 04 20
        E 23 b4 04 16
        E 23 b4 04 1e
        E 23 b4 04 59
        E 23 b4 04 35
        E 23 b4 04 1b
        E 23 b4 04 41
        E 23 b4 04 71
        E 23 b4 04 00
        E 23 b4 04 0e
        E 23 b4 04 2e
        E 23 b4 04 26
        E 23 b4 04 5d
        E 23 b4 04 18
        E 23 b4 04 07
        E 23 b4 04 12
        E 23 b4 04 13
        E 23 b4 04 67
        E 23 b4 04 1c
        E 23 b4 04 00
        E 23 b4 04 54
        E 23 b4 04 27
        E 23 b4 04 17
        E 23 b4 04 2d
        E 23 b4 04 1d
        E 23 b4 04 61
        E 23 b4 04 60
        E 23 b4 04 72
        E 23 b4 04 5f
        E 23 b4 04 31
        E 23 b4 04 6a
        E 23 b4 04 51
        E 23 b4 04 0d
        E 23 b4 04 32
        E 23 b4 04 3d
        E 23 b4 04 6c
        E 23 b4 04 57
        E 23 b4 04 3e
        E 23 b4 04 3f
        E 23 b4 04 05
        E 23 b4 04 0b
        E 23 b4 04 69
        E 23 b4 04 5b
        E 23 b4 04 30
        E 23 b4 04 24
        E 23 b4 04 0f
        E 23 b4 04 33
        E 23 b4 04 22
        E 23 b4 04 1b
        E 23 b4 04 2b
        E 23 b4 04 3b
        E 23 b4 04 45
        E 23 b4 04 49
        E 23 b4 04 12
        E 23 b4 04 44
        E 23 b4 04 65
        E 23 b4 04 3a
        E 23 b4 04 42
        E 23 b4 04 02
        E 23 b4 04 08
        E 23 b4 04 70
        E 23 b4 04 4a
        E 23 b4 04 14
        E 23 b4 04 68
        E 23 b4 04 24
        E 23 b4 04 2c
        E 23 b4 04 37
        E 23 b4 04 2d
        E 23 b4 04 4c
        E 23 b4 04 5c
        E 23 b4 04 21
        E 23 b4 04 40
        E 23 b4 04 1a
        E 23 b4 04 66
        E 23 b4 04 5e
        E 23 b4 04 34
        E 23 b4 04 29
        E 23 b4 04 5a
        E 23 b4 04 2a
        E 23 b4 04 50
        E 23 b4 04 10
        E 23 b4 04 01
        E 23 b4 04 25
        E 23 b4 04 39
        E 23 b4 04 62
        E 23 b4 04 58
        E 23 b4 04 03
        E 23 b4 04 63
        E 23 b4 04 53
        E 23 b4 04 06
        E 23 b4 04 23
        E 23 b4 04 43
        E 23 b4 04 55
        E 23 b4 04 6d
        E 23 b4 04 46
        E 23 b4 04 2f
        E 23 b4 04 1f
        E 23 b4 04 4f
        E 23 b4 04 52
        E 23 b4 04 64
        E 23 b4 04 6f
        E 23 b4 04 36
        E 23 b4 04 48
        E 23 b4 04 4e
        E 23 b4 04 3c
        E 23 b4 04 6b
        E 23 b4 04 11
        E 23 b4 04 28
        E 23 b4 04 4b
        E 10 b4 04 16
        E 10 b4 04 4c
        E 10 b4 04 32
        E 10 b4 04 07
        E 10 b4 04 48
        E 10 b4 04 3f
        E 10 b4 04 09
        E 10 b4 04 08
        E 10 b4 04 30
        E 10 b4 04 5f
        E 10 b4 04 50
        E 10 b4 04 58
        E 10 b4 04 3f
        E 10 b4 04 0b
        E 10 b4 04 13
        E 10 b4 04 44
        E 10 b4 04 37
        E 10 b4 04 1c
        E 10 b4 04 14
        E 10 b4 04 1b
        E 10 b4 04 4f
        E 10 b4 04 2f
        E 10 b4 04 17
        E 10 b4 04 3a
        E 10 b4 04 64
        E 10 b4 04 00
        E 10 b4 04 0c
        E 10 b4 04 29
        E 10 b4 04 22
        E 10 b4 04 53
        E 10 b4 04 15
        E 10 b4 04 06
        E 10 b4 04 0f
        E 10 b4 04 11
        E 10 b4 04 5b
        E 10 b4 04 19
        E 10 b4 04 00
        E 10 b4 04 4b
        E 10 b4 04 23
        E 10 b4 04 14
        E 10 b4 04 28
        E 10 b4 04 1a
        E 10 b4 04 56
        E 10 b4 04 55
        E 10 b4 04 65
        E 10 b4 04 54
        E 10 b4 04 2b
        E 10 b4 04 5e
        E 10 b4 04 48
        E 10 b4 04 0b
        E 10 b4 04 2c
        E 10 b4 04 36
        E 10 b4 04 60
        E 10 b4 04 4d
        E 10 b4 04 37
        E 10 b4 04 38
        E 10 b4 04 04
        E 10 b4 04 0a
        E 10 b4 04 5d
        E 10 b4 04 51
        E 10 b4 04 2b
        E 10 b4 04 1f
        E 10 b4 04 0d
        E 10 b4 04 2d
        E 10 b4 04 1e
        E 10 b4 04 18
        E 10 b4 04 26
        E 10 b4 04 34
        E 10 b4 04 3d
        E 10 b4 04 41
        E 10 b4 04 10
        E 10 b4 04 3c
        E 10 b4 04 5a
        E 10 b4 04 33
        E 10 b4 04 3b
        E 10 b4 04 02
        E 10 b4 04 07
        E 10 b4 04 63
        E 10 b4 04 42
        E 10 b4 04 12
        E 10 b4 04 5c
        E 10 b4 04 20
        E 10 b4 04 27
        E 10 b4 04 31
        E 10 b4 04 28
        E 10 b4 04 44
        E 10 b4 04 52
        E 10 b4 04 1d
        E 10 b4 04 39
        E 10 b4 04 17
        E 10 b4 04 5b
        E 10 b4 04 54
        E 10 b4 04 2e
        E 10 b4 04 24
        E 10 b4 04 50
        E 10 b4 04 25
        E 10 b4 04 47
        E 10 b4 04 0e
        E 10 b4 04 01
        E 10 b4 04 21
        E 10 b4 04 33
        E 10 b4 04 57
        E 10 b4 04 4e
        E 10 b4 04 03
        E 10 b4 04 57
        E 10 b4 04 4a
        E 10 b4 04 05
        E 10 b4 04 1f
        E 10 b4 04 3b
        E 10 b4 04 4c
        E 10 b4 04 61
        E 10 b4 04 3e
        E 10 b4 04 2a
        E 10 b4 04 1b
        E 10 b4 04 46
        E 10 b4 04 49
        E 10 b4 04 59
        E 10 b4 04 63
        E 10 b4 04 2f
        E 10 b4 04 40
        E 10 b4 04 45
        E 10 b4 04 35
        E 10 b4 04 5f
        E 10 b4 04 0f
        E 10 b4 04 24
        E 10 b4 04 43
        E 20 b4 04 33
        E 20 b4 04 35
        E 20 b4 04 37
        E 20 b4 04 3a
        E 20 b4 04 3c
        E 20 b4 04 3f
        E 20 b4 04 41
        E 20 b4 04 44
        E 20 b4 04 46
        E 20 b4 04 48
        E 20 b4 04 4b
        E 20 b4 04 4c
        E 20 b4 04 4f
        E 20 b4 04 51
        E 20 b4 04 53
        E 20 b4 04 54
        E 20 b4 04 57
        E 20 b4 04 58
        E 20 b4 04 5a
        E 20 b4 04 5b
        E 20 b4 04 5d
        E 20 b4 04 5e
        E 20 b4 04 5f
        E 20 b4 04 60
        E 20 b4 04 61
        E 20 b4 04 62
        E 20 b4 04 63
        E 20 b4 04 63
        E 20 b4 04 64
        E 20 b4 04 64
        E 20 b4 04 65
        E 20 b4 04 65
        E 20 b4 04 65
        E 20 b4 04 65
        E 20 b4 04 65
        E 20 b4 04 64
        E 20 b4 04 64
        E 20 b4 04 63
        E 20 b4 04 63
        E 20 b4 04 62
        E 20 b4 04 61
        E 20 b4 04 5f
        E 20 b4 04 5f
        E 20 b4 04 5d
        E 20 b4 04 5c
        E 20 b4 04 5b
        E 20 b4 04 59
        E 20 b4 04 57
        E 20 b4 04 56
        E 20 b4 04 54
        E 20 b4 04 52
        E 20 b4 04 50
        E 20 b4 04 4e
        E 20 b4 04 4c
        E 20 b4 04 49
        E 20 b4 04 47
        E 20 b4 04 45
        E 20 b4 04 43
        E 20 b4 04 40
        E 20 b4 04 3e
        E 20 b4 04 3b
        E 20 b4 04 38
        E 20 b4 04 36
        E 20 b4 04 33
        E 20 b4 04 31
        E 20 b4 04 2f
        E 20 b4 04 2c
        E 20 b4 04 2a
        E 20 b4 04 27
        E 20 b4 04 24
        E 20 b4 04 22
        E 20 b4 04 1f
        E 20 b4 04 1e
        E 20 b4 04 1b
        E 20 b4 04 19
        E 20 b4 04 17
        E 20 b4 04 15
        E 20 b4 04 13
        E 20 b4 04 11
        E 20 b4 04 0f
        E 20 b4 04 0d
        E 20 b4 04 0b
        E 20 b4 04 0a
        E 20 b4 04 08
        E 20 b4 04 07
        E 20 b4 04 06
        E 20 b4 04 05
        E 20 b4 04 03
        E 20 b4 04 03
        E 20 b4 04 02
        E 20 b4 04 01
        E 20 b4 04 00
        E 20 b4 04 00
        E 20 b4 04 00
        E 20 b4 04 00
        E 20 b4 04 00
        E 20 b4 04 00
        E 20 b4 04 00
        E 20 b4 04 00
        E 20 b4 04 00
        E 20 b4 04 01
        E 20 b4 04 02
        E 20 b4 04 03
        E 20 b4 04 03
        E 20 b4 04 04
        E 20 b4 04 05
        E 20 b4 04 07
        E 20 b4 04 07
        E 20 b4 04 09
        E 20 b4 04 0b
        E 20 b4 04 0c
        E 20 b4 04 0e
        E 20 b4 04 10
        E 20 b4 04 12
        E 20 b4 04 14
        E 20 b4 04 16
        E 20 b4 04 18
        E 20 b4 04 1a
        E 20 b4 04 1c
        E 20 b4 04 1f
        E 20 b4 04 21
        E 20 b4 04 24
        E 20 b4 04 26
        E 20 b4 04 28
        E 20 b4 04 2b
        E 20 b4 04 2d
        E 20 b4 04 2f
        E 20 b4 04 33
        E 5 b4 04 06
        E 5 b4 04 06
        E 5 b4 04 07
        E 5 b4 04 07
        E 5 b4 04 07
        E 5 b4 04 07
        E 5 b4 04 08
        E 5 b4 04 08
        E 5 b4 04 08
        E 5 b4 04 09
        E 5 b4 04 09
        E 5 b4 04 09
        E 5 b4 04 09
        E 5 b4 04 0a
        E 5 b4 04 0a
        E 5 b4 04 0a
        E 5 b4 04 0a
        E 5 b4 04 0b
        E 5 b4 04 0b
        E 5 b4 04 0b
        E 5 b4 04 0b
        E 5 b4 04 0b
        E 5 b4 04 0c
        E 5 b4 04 0c
        E 5 b4 04 0c
        E 5 b4 04 0c
        E 5 b4 04 0c
        E 5 b4 04 0c
        E 5 b4 04 0c
        E 5 b4 04 0c
        E 5 b4 04 0c
        E 5 b4 04 0c
        E 5 b4 04 0c
        E 5 b4 04 0c
        E 5 b4 04 0c
        E 5 b4 04 0c
        E 5 b4 04 0c
        E 5 b4 04 0c
        E 5 b4 04 0c
        E 5 b4 04 0c
        E 5 b4 04 0c
        E 5 b4 04 0c
        E 5 b4 04 0b
        E 5 b4 04 0b
        E 5 b4 04 0b
        E 5 b4 04 0b
        E 5 b4 04 0b
        E 5 b4 04 0b
        E 5 b4 04 0a
        E 5 b4 04 0a
        E 5 b4 04 0a
        E 5 b4 04 0a
        E 5 b4 04 09
        E 5 b4 04 09
        E 5 b4 04 09
        E 5 b4 04 08
        E 5 b4 04 08
        E 5 b4 04 08
        E 5 b4 04 08
        E 5 b4 04 07
        E 5 b4 04 07
        E 5 b4 04 07
        E 5 b4 04 06
        E 5 b4 04 06
        E 5 b4 04 06
        E 5 b4 04 05
        E 5 b4 04 05
        E 5 b4 04 05
        E 5 b4 04 04
        E 5 b4 04 04
        E 5 b4 04 04
        E 5 b4 04 04
        E 5 b4 04 03
        E 5 b4 04 03
        E 5 b4 04 03
        E 5 b4 04 02
        E 5 b4 04 02
        E 5 b4 04 02
        E 5 b4 04 02
        E 5 b4 04 01
        E 5 b4 04 01
        E 5 b4 04 01
        E 5 b4 04 01
        E 5 b4 04 01
        E 5 b4 04 01
        E 5 b4 04 00
        E 5 b4 04 00
        E 5 b4 04 00
        E 5 b4 04 00
        E 5 b4 04 00
        E 5 b4 04 00
        E 5 b4 04 00
        E 5 b4 04 00
        E 5 b4 04 00
        E 5 b4 04 00
        E 5 b4 04 00
        E 5 b4 04 00
        E 5 b4 04 00
        E 5 b4 04 00
        E 5 b4 04 00
        E 5 b4 04 00
        E 5 b4 04 00
        E 5 b4 04 00
        E 5 b4 04 00
        E 5 b4 04 00
        E 5 b4 04 00
        E 5 b4 04 00
        E 5 b4 04 01
        E 5 b4 04 01
        E 5 b4 04 01
        E 5 b4 04 01
        E 5 b4 04 01
        E 5 b4 04 02
        E 5 b4 04 02
        E 5 b4 04 02
        E 5 b4 04 02
        E 5 b4 04 03
        E 5 b4 04 03
        E 5 b4 04 03
        E 5 b4 04 03
        E 5 b4 04 04
        E 5 b4 04 04
        E 5 b4 04 04
        E 5 b4 04 05
        E 5 b4 04 05
        E 5 b4 04 05
        E 5 b4 04 06
        E 5 b4 04 06
        E 36 b4 04 39
        E 36 b4 04 3c
        E 36 b4 04 3f
        E 36 b4 04 41
        E 36 b4 04 44
        E 36 b4 04 47
        E 36 b4 04 49
        E 36 b4 04 4c
        E 36 b4 04 4f
        E 36 b4 04 51
        E 36 b4 04 54
        E 36 b4 04 56
        E 36 b4 04 59
        E 36 b4 04 5b
        E 36 b4 04 5d
        E 36 b4 04 5f
        E 36 b4 04 62
        E 36 b4 04 63
        E 36 b4 04 65
        E 36 b4 04 67
        E 36 b4 04 69
        E 36 b4 04 6a
        E 36 b4 04 6c
        E 36 b4 04 6c
        E 36 b4 04 6d
        E 36 b4 04 6e
        E 36 b4 04 6f
        E 36 b4 04 70
        E 36 b4 04 71
        E 36 b4 04 71
        E 36 b4 04 72
        E 36 b4 04 72
        E 36 b4 04 72
        E 36 b4 04 72
        E 36 b4 04 72
        E 36 b4 04 71
        E 36 b4 04 71
        E 36 b4 04 70
        E 36 b4 04 6f
        E 36 b4 04 6e
        E 36 b4 04 6d
        E 36 b4 04 6c
        E 36 b4 04 6b
        E 36 b4 04 69
        E 36 b4 04 68
        E 36 b4 04 66
        E 36 b4 04 64
        E 36 b4 04 63
        E 36 b4 04 61
        E 36 b4 04 5e
        E 36 b4 04 5c
        E 36 b4 04 5a
        E 36 b4 04 58
        E 36 b4 04 55
        E 36 b4 04 52
        E 36 b4 04 50
        E 36 b4 04 4e
        E 36 b4 04 4b
        E 36 b4 04 48
        E 36 b4 04 46
        E 36 b4 04 42
        E 36 b4 04 3f
        E 36 b4 04 3d
        E 36 b4 04 3a
        E 36 b4 04 37
        E 36 b4 04 35
        E 36 b4 04 32
        E 36 b4 04 2f
        E 36 b4 04 2c
        E 36 b4 04 29
        E 36 b4 04 26
        E 36 b4 04 24
        E 36 b4 04 22
        E 36 b4 04 1f
        E 36 b4 04 1c
        E 36 b4 04 1a
        E 36 b4 04 18
        E 36 b4 04 15
        E 36 b4 04 13
        E 36 b4 04 11
        E 36 b4 04 0f
        E 36 b4 04 0d
        E 36 b4 04 0b
        E 36 b4 04 09
        E 36 b4 04 09
        E 36 b4 04 07
        E 36 b4 04 06
        E 36 b4 04 04
        E 36 b4 04 03
        E 36 b4 04 02
        E 36 b4 04 01
        E 36 b4 04 00
        E 36 b4 04 00
        E 36 b4 04 00
        E 36 b4 04 00
        E 36 b4 04 00
        E 36 b4 04 00
        E 36 b4 04 00
        E 36 b4 04 00
        E 36 b4 04 00
        E 36 b4 04 01
        E 36 b4 04 02
        E 36 b4 04 03
        E 36 b4 04 04
        E 36 b4 04 05
        E 36 b4 04 06
        E 36 b4 04 08
        E 36 b4 04 09
        E 36 b4 04 0a
        E 36 b4 04 0c
        E 36 b4 04 0e
        E 36 b4 04 10
        E 36 b4 04 12
        E 36 b4 04 14
        E 36 b4 04 16
        E 36 b4 04 19
        E 36 b4 04 1b
        E 36 b4 04 1d
        E 36 b4 04 20
        E 36 b4 04 23
        E 36 b4 04 25
        E 36 b4 04 28
        E 36 b4 04 2b
        E 36 b4 04 2d
        E 36 b4 04 30
        E 36 b4 04 33
        E 36 b4 04 36
        E 36 b4 04 39
        E 15 b4 04 33
        E 15 b4 04 35
        E 15 b4 04 37
        E 15 b4 04 3a
        E 15 b4 04 3c
        E 15 b4 04 3f
        E 15 b4 04 41
        E 15 b4 04 44
        E 15 b4 04 46
        E 15 b4 04 48
        E 15 b4 04 4b
        E 15 b4 04 4c
        E 15 b4 04 4f
        E 15 b4 04 51
        E 15 b4 04 53
        E 15 b4 04 54
        E 15 b4 04 57
        E 15 b4 04 58
        E 15 b4 04 5a
        E 15 b4 04 5b
        E 15 b4 04 5d
        E 15 b4 04 5e
        E 15 b4 04 5f
        E 15 b4 04 60
        E 15 b4 04 61
        E 15 b4 04 62
        E 15 b4 04 63
        E 15 b4 04 63
        E 15 b4 04 64
        E 15 b4 04 64
        E 15 b4 04 65
        E 15 b4 04 65
        E 15 b4 04 65
        E 15 b4 04 65
        E 15 b4 04 65
        E 15 b4 04 64
        E 15 b4 04 64
        E 15 b4 04 63
        E 15 b4 04 63
        E 15 b4 04 62
        E 15 b4 04 61
        E 15 b4 04 5f
        E 15 b4 04 5f
        E 15 b4 04 5d
        E 15 b4 04 5c
        E 15 b4 04 5b
        E 15 b4 04 59
        E 15 b4 04 57
        E 15 b4 04 56
        E 15 b4 04 54
        E 15 b4 04 52
        E 15 b4 04 50
        E 15 b4 04 4e
        E 15 b4 04 4c
        E 15 b4 04 49
        E 15 b4 04 47
        E 15 b4 04 45
        E 15 b4 04 43
        E 15 b4 04 40
        E 15 b4 04 3e
        E 15 b4 04 3b
        E 15 b4 04 38
        E 15 b4 04 36
        E 15 b4 04 33
        E 15 b4 04 31
        E 15 b4 04 2f
        E 15 b4 04 2c
        E 15 b4 04 2a
        E 15 b4 04 27
        E 15 b4 04 24
        E 15 b4 04 22
        E 15 b4 04 1f
        E 15 b4 04 1e
        E 15 b4 04 1b
        E 15 b4 04 19
        E 15 b4 04 17
        E 15 b4 04 15
        E 15 b4 04 13
        E 15 b4 04 11
        E 15 b4 04 0f
        E 15 b4 04 0d
        E 15 b4 04 0b
        E 15 b4 04 0a
        E 15 b4 04 08
        E 15 b4 04 07
        E 15 b4 04 06
        E 15 b4 04 05
        E 15 b4 04 03
        E 15 b4 04 03
        E 15 b4 04 02
        E 15 b4 04 01
        E 15 b4 04 00
        E 15 b4 04 00
        E 15 b4 04 00
        E 15 b4 04 00
        E 15 b4 04 00
        E 15 b4 04 00
        E 15 b4 04 00
        E 15 b4 04 00
        E 15 b4 04 00
        E 15 b4 04 01
        E 15 b4 04 02
        E 15 b4 04 03
        E 15 b4 04 03
        E 15 b4 04 04
        E 15 b4 04 05
        E 15 b4 04 07
        E 15 b4 04 07
        E 15 b4 04 09
        E 15 b4 04 0b
        E 15 b4 04 0c
        E 15 b4 04 0e
        E 15 b4 04 10
        E 15 b4 04 12
        E 15 b4 04 14
        E 15 b4 04 16
        E 15 b4 04 18
        E 15 b4 04 1a
        E 15 b4 04 1c
        E 15 b4 04 1f
        E 15 b4 04 21
        E 15 b4 04 24
        E 15 b4 04 26
        E 15 b4 04 28
        E 15 b4 04 2b
        E 15 b4 04 2d
        E 15 b4 04 2f
        E 15 b4 04 33
        E 31 b4 04 39
        E 31 b4 04 3c
        E 31 b4 04 3f
        E 31 b4 04 41
        E 31 b4 04 44
        E 31 b4 04 47
        E 31 b4 04 49
        E 31 b4 04 4c
        E 31 b4 04 4f
        E 31 b4 04 51
        E 31 b4 04 54
        E 31 b4 04 56
        E 31 b4 04 59
        E 31 b4 04 5b
        E 31 b4 04 5d
        E 31 b4 04 5f
        E 31 b4 04 62
        E 31 b4 04 63
        E 31 b4 04 65
        E 31 b4 04 67
        E 31 b4 04 69
        E 31 b4 04 6a
        E 31 b4 04 6c
        E 31 b4 04 6c
        E 31 b4 04 6d
        E 31 b4 04 6e
        E 31 b4 04 6f
        E 31 b4 04 70
        E 31 b4 04 71
        E 31 b4 04 71
        E 31 b4 04 72
        E 31 b4 04 72
        E 31 b4 04 72
        E 31 b4 04 72
        E 31 b4 04 72
        E 31 b4 04 71
        E 31 b4 04 71
        E 31 b4 04 70
        E 31 b4 04 6f
        E 31 b4 04 6e
        E 31 b4 04 6d
        E 31 b4 04 6c
        E 31 b4 04 6b
        E 31 b4 04 69
        E 31 b4 04 68
        E 31 b4 04 66
        E 31 b4 04 64
        E 31 b4 04 63
        E 31 b4 04 61
        E 31 b4 04 5e
        E 31 b4 04 5c
        E 31 b4 04 5a
        E 31 b4 04 58
        E 31 b4 04 55
        E 31 b4 04 52
        E 31 b4 04 50
        E 31 b4 04 4e
        E 31 b4 04 4b
        E 31 b4 04 48
        E 31 b4 04 46
        E 31 b4 04 42
        E 31 b4 04 3f
        E 31 b4 04 3d
        E 31 b4 04 3a
        E 31 b4 04 37
        E 31 b4 04 35
        E 31 b4 04 32
        E 31 b4 04 2f
        E 31 b4 04 2c
        E 31 b4 04 29
        E 31 b4 04 26
        E 31 b4 04 24
        E 31 b4 04 22
        E 31 b4 04 1f
        E 31 b4 04 1c
        E 31 b4 04 1a
        E 31 b4 04 18
        E 31 b4 04 15
        E 31 b4 04 13
        E 31 b4 04 11
        E 31 b4 04 0f
        E 31 b4 04 0d
        E 31 b4 04 0b
        E 31 b4 04 09
        E 31 b4 04 09
        E 31 b4 04 07
        E 31 b4 04 06
        E 31 b4 04 04
        E 31 b4 04 03
        E 31 b4 04 02
        E 31 b4 04 01
        E 31 b4 04 00
        E 31 b4 04 00
        E 31 b4 04 00
        E 31 b4 04 00
        E 31 b4 04 00
        E 31 b4 04 00
        E 31 b4 04 00
        E 31 b4 04 00
        E 31 b4 04 00
        E 31 b4 04 01
        E 31 b4 04 02
        E 31 b4 04 03
        E 31 b4 04 04
        E 31 b4 04 05
        E 31 b4 04 06
        E 31 b4 04 08
        E 31 b4 04 09
        E 31 b4 04 0a
        E 31 b4 04 0c
        E 31 b4 04 0e
        E 31 b4 04 10
        E 31 b4 04 12
        E 31 b4 04 14
        E 31 b4 04 16
        E 31 b4 04 19
        E 31 b4 04 1b
        E 31 b4 04 1d
        E 31 b4 04 20
        E 31 b4 04 23
        E 31 b4 04 25
        E 31 b4 04 28
        E 31 b4 04 2b
        E 31 b4 04 2d
        E 31 b4 04 30
        E 31 b4 04 33
        E 31 b4 04 36
        E 31 b4 04 39
        E 46 b4 04 13
        E 46 b4 04 14
        E 46 b4 04 15
        E 46 b4 04 15
        E 46 b4 04 16
        E 46 b4 04 17
        E 46 b4 04 18
        E 46 b4 04 19
        E 46 b4 04 1a
        E 46 b4 04 1b
        E 46 b4 04 1c
        E 46 b4 04 1c
        E 46 b4 04 1d
        E 46 b4 04 1e
        E 46 b4 04 1f
        E 46 b4 04 1f
        E 46 b4 04 20
        E 46 b4 04 21
        E 46 b4 04 21
        E 46 b4 04 22
        E 46 b4 04 23
        E 46 b4 04 23
        E 46 b4 04 24
        E 46 b4 04 24
        E 46 b4 04 24
        E 46 b4 04 24
        E 46 b4 04 25
        E 46 b4 04 25
        E 46 b4 04 25
        E 46 b4 04 25
        E 46 b4 04 26
        E 46 b4 04 26
        E 46 b4 04 26
        E 46 b4 04 26
        E 46 b4 04 26
        E 46 b4 04 25
        E 46 b4 04 25
        E 46 b4 04 25
        E 46 b4 04 25
        E 46 b4 04 24
        E 46 b4 04 24
        E 46 b4 04 24
        E 46 b4 04 23
        E 46 b4 04 23
        E 46 b4 04 22
        E 46 b4 04 22
        E 46 b4 04 21
        E 46 b4 04 21
        E 46 b4 04 20
        E 46 b4 04 1f
        E 46 b4 04 1e
        E 46 b4 04 1e
        E 46 b4 04 1d
        E 46 b4 04 1c
        E 46 b4 04 1b
        E 46 b4 04 1a
        E 46 b4 04 1a
        E 46 b4 04 19
        E 46 b4 04 18
        E 46 b4 04 17
        E 46 b4 04 16
        E 46 b4 04 15
        E 46 b4 04 14
        E 46 b4 04 13
        E 46 b4 04 12
        E 46 b4 04 11
        E 46 b4 04 10
        E 46 b4 04 0f
        E 46 b4 04 0e
        E 46 b4 04 0d
        E 46 b4 04 0c
        E 46 b4 04 0c
        E 46 b4 04 0b
        E 46 b4 04 0a
        E 46 b4 04 09
        E 46 b4 04 08
        E 46 b4 04 08
        E 46 b4 04 07
        E 46 b4 04 06
        E 46 b4 04 05
        E 46 b4 04 05
        E 46 b4 04 04
        E 46 b4 04 03
        E 46 b4 04 03
        E 46 b4 04 03
        E 46 b4 04 02
        E 46 b4 04 02
        E 46 b4 04 01
        E 46 b4 04 01
        E 46 b4 04 00
        E 46 b4 04 00
        E 46 b4 04 00
        E 46 b4 04 00
        E 46 b4 04 00
        E 46 b4 04 00
        E 46 b4 04 00
        E 46 b4 04 00
        E 46 b4 04 00
        E 46 b4 04 00
        E 46 b4 04 00
        E 46 b4 04 00
        E 46 b4 04 00
        E 46 b4 04 01
        E 46 b4 04 01
        E 46 b4 04 01
        E 46 b4 04 02
        E 46 b4 04 02
        E 46 b4 04 03
        E 46 b4 04 03
        E 46 b4 04 04
        E 46 b4 04 04
        E 46 b4 04 05
        E 46 b4 04 06
        E 46 b4 04 06
        E 46 b4 04 07
        E 46 b4 04 08
        E 46 b4 04 09
        E 46 b4 04 09
        E 46 b4 04 0a
        E 46 b4 04 0b
        E 46 b4 04 0c
        E 46 b4 04 0d
        E 46 b4 04 0e
        E 46 b4 04 0f
        E 46 b4 04 10
        E 46 b4 04 11
        E 46 b4 04 12
        E 46 b4 04 13
        E 23 b4 04 19
        E 23 b4 04 56
        E 23 b4 04 38
        E 23 b4 04 09
        E 23 b4 04 51
        E 23 b4 04 48
        E 23 b4 04 0a
        E 23 b4 04 09
        E 23 b4 04 36
        E 23 b4 04 6c
        E 23 b4 04 5a
        E 23 b4 04 63
        E 23 b4 04 47
        E 23 b4 04 0c
        E 23 b4 04 15
        E 23 b4 04 4d
        E 23 b4 04 3f
        E 23 b4 04 20
        E 23 b4 04 16
        E 23 b4 04 1e
        E 23 b4 04 59
        E 23 b4 04 35
        E 23 b4 04 1b
        E 23 b4 04 41
        E 23 b4 04 71
        E 23 b4 04 00
        E 23 b4 04 0e
        E 23 b4 04 2e
        E 23 b4 04 26
        E 23 b4 04 5d
        E 23 b4 04 18
        E 23 b4 04 07
        E 23 b4 04 12
        E 23 b4 04 13
        E 23 b4 04 67
        E 23 b4 04 1c
        E 23 b4 04 00
        E 23 b4 04 54
        E 23 b4 04 27
        E 23 b4 04 17
        E 23 b4 04 2d
        E 23 b4 04 1d
        E 23 b4 04 61
        E 23 b4 04 60
        E 23 b4 04 72
        E 23 b4 04 5f
        E 23 b4 04 31
        E 23 b4 04 6a
        E 23 b4 04 51
        E 23 b4 04 0d
        E 23 b4 04 32
        E 23 b4 04 3d
        E 23 b4 04 6c
        E 23 b4 04 57
        E 23 b4 04 3e
        E 23 b4 04 3f
        E 23 b4 04 05
        E 23 b4 04 0b
        E 23 b4 04 69
        E 23 b4 04 5b
        E 23 b4 04 30
        E 23 b4 04 24
        E 23 b4 04 0f
        E 23 b4 04 33
        E 23 b4 04 22
        E 23 b4 04 1b
        E 23 b4 04 2b
        E 23 b4 04 3b
        E 23 b4 04 45
        E 23 b4 04 49
        E 23 b4 04 12
        E 23 b4 04 44
        E 23 b4 04 65
        E 23 b4 04 3a
        E 23 b4 04 42
        E 23 b4 04 02
        E 23 b4 04 08
        E 23 b4 04 70
        E 23 b4 04 4a
        E 23 b4 04 14
        E 23 b4 04 68
        E 23 b4 04 24
        E 23 b4 04 2c
        E 23 b4 04 37
        E 23 b4 04 2d
        E 23 b4 04 4c
        E 23 b4 04 5c
        E 23 b4 04 21
        E 23 b4 04 40
        E 23 b4 04 1a
        E 23 b4 04 66
        E 23 b4 04 5e
        E 23 b4 04 34
        E 23 b4 04 29
        E 23 b4 04 5a
        E 23 b4 04 2a
        E 23 b4 04 50
        E 23 b4 04 10
        E 23 b4 04 01
        E 23 b4 04 25
        E 23 b4 04 39
        E 23 b4 04 62
        E 23 b4 04 58
        E 23 b4 04 03
        E 23 b4 04 63
        E 23 b4 04 53
        E 23 b4 04 06
        E 23 b4 04 23
        E 23 b4 04 43
        E 23 b4 04 55
        E 23 b4 04 6d
        E 23 b4 04 46
        E 23 b4 04 2f
        E 23 b4 04 1f
        E 23 b4 04 4f
        E 23 b4 04 52
        E 23 b4 04 64
        E 23 b4 04 6f
        E 23 b4 04 36
        E 23 b4 04 48
        E 23 b4 04 4e
        E 23 b4 04 3c
        E 23 b4 04 6b
        E 23 b4 04 11
        E 23 b4 04 28
        E 23 b4 04 4b
        E 10 b4 04 16
        E 10 b4 04 4c
        E 10 b4 04 32
        E 10 b4 04 07
        E 10 b4 04 48
        E 10 b4 04 3f
        E 10 b4 04 09
        E 10 b4 04 08
        E 10 b4 04 30
        E 10 b4 04 5f
        E 10 b4 04 50
        E 10 b4 04 58
        E 10 b4 04 3f
        E 10 b4 04 0b
        E 10 b4 04 13
        E 10 b4 04 44
        E 10 b4 04 37
        E 10 b4 04 1c
        E 10 b4 04 14
        E 10 b4 04 1b
        E 10 b4 04 4f
        E 10 b4 04 2f
        E 10 b4 04 17
        E 10 b4 04 3a
        E 10 b4 04 64
        E 10 b4 04 00
        E 10 b4 04 0c
        E 10 b4 04 29
        E 10 b4 04 22
        E 10 b4 04 53
        E 10 b4 04 15
        E 10 b4 04 06
        E 10 b4 04 0f
        E 10 b4 04 11
        E 10 b4 04 5b
        E 10 b4 04 19
        E 10 b4 04 00
        E 10 b4 04 4b
        E 10 b4 04 23
        E 10 b4 04 14
        E 10 b4 04 28
        E 10 b4 04 1a
        E 10 b4 04 56
        E 10 b4 04 55
        E 10 b4 04 65
        E 10 b4 04 54
        E 10 b4 04 2b
        E 10 b4 04 5e
        E 10 b4 04 48
        E 10 b4 04 0b
        E 10 b4 04 2c
        E 10 b4 04 36
        E 10 b4 04 60
        E 10 b4 04 4d
        E 10 b4 04 37
        E 10 b4 04 38
        E 10 b4 04 04
        E 10 b4 04 0a
        E 10 b4 04 5d
        E 10 b4 04 51
        E 10 b4 04 2b
        E 10 b4 04 1f
        E 10 b4 04 0d
        E 10 b4 04 2d
        E 10 b4 04 1e
        E 10 b4 04 18
        E 10 b4 04 26
        E 10 b4 04 34
        E 10 b4 04 3d
        E 10 b4 04 41
        E 10 b4 04 10
        E 10 b4 04 3c
        E 10 b4 04 5a
        E 10 b4 04 33
        E 10 b4 04 3b
        E 10 b4 04 02
        E 10 b4 04 07
        E 10 b4 04 63
        E 10 b4 04 42
        E 10 b4 04 12
        E 10 b4 04 5c
        E 10 b4 04 20
        E 10 b4 04 27
        E 10 b4 04 31
        E 10 b4 04 28
        E 10 b4 04 44
        E 10 b4 04 52
        E 10 b4 04 1d
        E 10 b4 04 39
        E 10 b4 04 17
        E 10 b4 04 5b
        E 10 b4 04 54
        E 10 b4 04 2e
        E 10 b4 04 24
        E 10 b4 04 50
        E 10 b4 04 25
        E 10 b4 04 47
        E 10 b4 04 0e
        E 10 b4 04 01
        E 10 b4 04 21
        E 10 b4 04 33
        E 10 b4 04 57
        E 10 b4 04 4e
        E 10 b4 04 03
        E 10 b4 04 57
        E 10 b4 04 4a
        E 10 b4 04 05
        E 10 b4 04 1f
        E 10 b4 04 3b
        E 10 b4 04 4c
        E 10 b4 04 61
        E 10 b4 04 3e
        E 10 b4 04 2a
        E 10 b4 04 1b
        E 10 b4 04 46
        E 10 b4 04 49
        E 10 b4 04 59
        E 10 b4 04 63
        E 10 b4 04 2f
        E 10 b4 04 40
        E 10 b4 04 45
        E 10 b4 04 35
        E 10 b4 04 5f
        E 10 b4 04 0f
        E 10 b4 04 24
        E 10 b4 04 43
        E 20 b4 04 33
        E 20 b4 04 35
        E 20 b4 04 37
        E 20 b4 04 3a
        E 20 b4 04 3c
        E 20 b4 04 3f
        E 20 b4 04 41
        E 20 b4 04 44
        E 20 b4 04 46
        E 20 b4 04 48
        E 20 b4 04 4b
        E 20 b4 04 4c
        E 20 b4 04 4f
        E 20 b4 04 51
        E 20 b4 04 53
        E 20 b4 04 54
        E 20 b4 04 57
        E 20 b4 04 58
        E 20 b4 04 5a
        E 20 b4 04 5b
        E 20 b4 04 5d
        E 20 b4 04 5e
        E 20 b4 04 5f
        E 20 b4 04 60
        E 20 b4 04 61
        E 20 b4 04 62
        E 20 b4 04 63
        E 20 b4 04 63
        E 20 b4 04 64
        E 20 b4 04 64
        E 20 b4 04 65
        E 20 b4 04 65
        E 20 b4 04 65
        E 20 b4 04 65
        E 20 b4 04 65
        E 20 b4 04 64
        E 20 b4 04 64
        E 20 b4 04 63
        E 20 b4 04 63
        E 20 b4 04 62
        E 20 b4 04 61
        E 20 b4 04 5f
        E 20 b4 04 5f
        E 20 b4 04 5d
        E 20 b4 04 5c
        E 20 b4 04 5b
        E 20 b4 04 59
        E 20 b4 04 57
        E 20 b4 04 56
        E 20 b4 04 54
        E 20 b4 04 52
        E 20 b4 04 50
        E 20 b4 04 4e
        E 20 b4 04 4c
        E 20 b4 04 49
        E 20 b4 04 47
        E 20 b4 04 45
        E 20 b4 04 43
        E 20 b4 04 40
        E 20 b4 04 3e
        E 20 b4 04 3b
        E 20 b4 04 38
        E 20 b4 04 36
        E 20 b4 04 33
        E 20 b4 04 31
        E 20 b4 04 2f
        E 20 b4 04 2c
        E 20 b4 04 2a
        E 20 b4 04 27
        E 20 b4 04 24
        E 20 b4 04 22
        E 20 b4 04 1f
        E 20 b4 04 1e
        E 20 b4 04 1b
        E 20 b4 04 19
        E 20 b4 04 17
        E 20 b4 04 15
        E 20 b4 04 13
        E 20 b4 04 11
        E 20 b4 04 0f
        E 20 b4 04 0d
        E 20 b4 04 0b
        E 20 b4 04 0a
        E 20 b4 04 08
        E 20 b4 04 07
        E 20 b4 04 06
        E 20 b4 04 05
        E 20 b4 04 03
        E 20 b4 04 03
        E 20 b4 04 02
        E 20 b4 04 01
        E 20 b4 04 00
        E 20 b4 04 00
        E 20 b4 04 00
        E 20 b4 04 00
        E 20 b4 04 00
        E 20 b4 04 00
        E 20 b4 04 00
        E 20 b4 04 00
        E 20 b4 04 00
        E 20 b4 04 01
        E 20 b4 04 02
        E 20 b4 04 03
        E 20 b4 04 03
        E 20 b4 04 04
        E 20 b4 04 05
        E 20 b4 04 07
        E 20 b4 04 07
        E 20 b4 04 09
        E 20 b4 04 0b
        E 20 b4 04 0c
        E 20 b4 04 0e
        E 20 b4 04 10
        E 20 b4 04 12
        E 20 b4 04 14
        E 20 b4 04 16
        E 20 b4 04 18
        E 20 b4 04 1a
        E 20 b4 04 1c
        E 20 b4 04 1f
        E 20 b4 04 21
        E 20 b4 04 24
        E 20 b4 04 26
        E 20 b4 04 28
        E 20 b4 04 2b
        E 20 b4 04 2d
        E 20 b4 04 2f
        E 20 b4 04 33
        E 5 b4 04 06
        E 5 b4 04 06
        E 5 b4 04 07
        E 5 b4 04 07
        E 5 b4 04 07
        E 5 b4 04 07
        E 5 b4 04 08
        E 5 b4 04 08
        E 5 b4 04 08
        E 5 b4 04 09
        E 5 b4 04 09
        E 5 b4 04 09
        E 5 b4 04 09
        E 5 b4 04 0a
        E 5 b4 04 0a
        E 5 b4 04 0a
        E 5 b4 04 0a
        E 5 b4 04 0b
        E 5 b4 04 0b
        E 5 b4 04 0b
        E 5 b4 04 0b
        E 5 b4 04 0b
        E 5 b4 04 0c
        E 5 b4 04 0c
        E 5 b4 04 0c
        E 5 b4 04 0c
        E 5 b4 04 0c
        E 5 b4 04 0c
        E 5 b4 04 0c
        E 5 b4 04 0c
        E 5 b4 04 0c
        E 5 b4 04 0c
        E 5 b4 04 0c
        E 5 b4 04 0c
        E 5 b4 04 0c
        E 5 b4 04 0c
        E 5 b4 04 0c
        E 5 b4 04 0c
        E 5 b4 04 0c
        E 5 b4 04 0c
        E 5 b4 04 0c
        E 5 b4 04 0c
        E 5 b4 04 0b
        E 5 b4 04 0b
        E 5 b4 04 0b
        E 5 b4 04 0b
        E 5 b4 04 0b
        E 5 b4 04 0b
        E 5 b4 04 0a
        E 5 b4 04 0a
        E 5 b4 04 0a
        E 5 b4 04 0a
        E 5 b4 04 09
        E 5 b4 04 09
        E 5 b4 04 09
        E 5 b4 04 08
        E 5 b4 04 08
        E 5 b4 04 08
        E 5 b4 04 08
        E 5 b4 04 07
        E 5 b4 04 07
        E 5 b4 04 07
        E 5 b4 04 06
        E 5 b4 04 06
        E 5 b4 04 06
        E 5 b4 04 05
        E 5 b4 04 05
        E 5 b4 04 05
        E 5 b4 04 04
        E 5 b4 04 04
        E 5 b4 04 04
        E 5 b4 04 04
        E 5 b4 04 03
        E 5 b4 04 03
        E 5 b4 04 03
        E 5 b4 04 02
        E 5 b4 04 02
        E 5 b4 04 02
        E 5 b4 04 02
        E 5 b4 04 01
        E 5 b4 04 01
        E 5 b4 04 01
        E 5 b4 04 01
        E 5 b4 04 01
        E 5 b4 04 01
        E 5 b4 04 00
        E 5 b4 04 00
        E 5 b4 04 00
        E 5 b4 04 00
        E 5 b4 04 00
        E 5 b4 04 00
        E 5 b4 04 00
        E 5 b4 04 00
        E 5 b4 04 00
        E 5 b4 04 00
        E 5 b4 04 00
        E 5 b4 04 00
        E 5 b4 04 00
        E 5 b4 04 00
        E 5 b4 04 00
        E 5 b4 04 00
        E 5 b4 04 00
        E 5 b4 04 00
        E 5 b4 04 00
        E 5 b4 04 00
        E 5 b4 04 00
        E 5 b4 04 00
        E 5 b4 04 01
        E 5 b4 04 01
        E 5 b4 04 01
        E 5 b4 04 01
        E 5 b4 04 01
        E 5 b4 04 02
        E 5 b4 04 02
        E 5 b4 04 02
        E 5 b4 04 02
        E 5 b4 04 03
        E 5 b4 04 03
        E 5 b4 04 03
        E 5 b4 04 03
        E 5 b4 04 04
        E 5 b4 04 04
        E 5 b4 04 04
        E 5 b4 04 05
        E 5 b4 04 05
        E 5 b4 04 05
        E 5 b4 04 06
        E 5 b4 04 06
        E 36 b4 04 39
        E 36 b4 04 3c
        E 36 b4 04 3f
        E 36 b4 04 41
        E 36 b4 04 44
        E 36 b4 04 47
        E 36 b4 04 49
        E 36 b4 04 4c
        E 36 b4 04 4f
        E 36 b4 04 51
        E 36 b4 04 54
        E 36 b4 04 56
        E 36 b4 04 59
        E 36 b4 04 5b
        E 36 b4 04 5d
        E 36 b4 04 5f
        E 36 b4 04 62
        E 36 b4 04 63
        E 36 b4 04 65
        E 36 b4 04 67
        E 36 b4 04 69
        E 36 b4 04 6a
        E 36 b4 04 6c
        E 36 b4 04 6c
        E 36 b4 04 6d
        E 36 b4 04 6e
        E 36 b4 04 6f
        E 36 b4 04 70
        E 36 b4 04 71
        E 36 b4 04 71
        E 36 b4 04 72
        E 36 b4 04 72
        E 36 b4 04 72
        E 36 b4 04 72
        E 36 b4 04 72
        E 36 b4 04 71
        E 36 b4 04 71
        E 36 b4 04 70
        E 36 b4 04 6f
        E 36 b4 04 6e
        E 36 b4 04 6d
        E 36 b4 04 6c
        E 36 b4 04 6b
        E 36 b4 04 69
        E 36 b4 04 68
        E 36 b4 04 66
        E 36 b4 04 64
        E 36 b4 04 63
        E 36 b4 04 61
        E 36 b4 04 5e
        E 36 b4 04 5c
        E 36 b4 04 5a
        E 36 b4 04 58
        E 36 b4 04 55
        E 36 b4 04 52
        E 36 b4 04 50
        E 36 b4 04 4e
        E 36 b4 04 4b
        E 36 b4 04 48
        E 36 b4 04 46
        E 36 b4 04 42
        E 36 b4 04 3f
        E 36 b4 04 3d
        E 36 b4 04 3a
        E 36 b4 04 37
        E 36 b4 04 35
        E 36 b4 04 32
        E 36 b4 04 2f
        E 36 b4 04 2c
        E 36 b4 04 29
        E 36 b4 04 26
        E 36 b4 04 24
        E 36 b4 04 22
        E 36 b4 04 1f
        E 36 b4 04 1c
        E 36 b4 04 1a
        E 36 b4 04 18
        E 36 b4 04 15
        E 36 b4 04 13
        E 36 b4 04 11
        E 36 b4 04 0f
        E 36 b4 04 0d
        E 36 b4 04 0b
        E 36 b4 04 09
        E 36 b4 04 09
        E 36 b4 04 07
        E 36 b4 04 06
        E 36 b4 04 04
        E 36 b4 04 03
        E 36 b4 04 02
        E 36 b4 04 01
        E 36 b4 04 00
        E 36 b4 04 00
        E 36 b4 04 00
        E 36 b4 04 00
        E 36 b4 04 00
        E 36 b4 04 00
        E 36 b4 04 00
        E 36 b4 04 00
        E 36 b4 04 00
        E 36 b4 04 01
        E 36 b4 04 02
        E 36 b4 04 03
        E 36 b4 04 04
        E 36 b4 04 05
        E 36 b4 04 06
        E 36 b4 04 08
        E 36 b4 04 09
        E 36 b4 04 0a
        E 36 b4 04 0c
        E 36 b4 04 0e
        E 36 b4 04 10
        E 36 b4 04 12
        E 36 b4 04 14
        E 36 b4 04 16
        E 36 b4 04 19
        E 36 b4 04 1b
        E 36 b4 04 1d
        E 36 b4 04 20
        E 36 b4 04 23
        E 36 b4 04 25
        E 36 b4 04 28
        E 36 b4 04 2b
        E 36 b4 04 2d
        E 36 b4 04 30
        E 36 b4 04 33
        E 36 b4 04 36
        E 36 b4 04 39
        E 15 b4 04 33
        E 15 b4 04 35
        E 15 b4 04 37
        E 15 b4 04 3a
        E 15 b4 04 3c
        E 15 b4 04 3f
        E 15 b4 04 41
        E 15 b4 04 44
        E 15 b4 04 46
        E 15 b4 04 48
        E 15 b4 04 4b
        E 15 b4 04 4c
        E 15 b4 04 4f
        E 15 b4 04 51
        E 15 b4 04 53
        E 15 b4 04 54
        E 15 b4 04 57
        E 15 b4 04 58
        E 15 b4 04 5a
        E 15 b4 04 5b
        E 15 b4 04 5d
        E 15 b4 04 5e
        E 15 b4 04 5f
        E 15 b4 04 60
        E 15 b4 04 61
        E 15 b4 04 62
        E 15 b4 04 63
        E 15 b4 04 63
        E 15 b4 04 64
        E 15 b4 04 64
        E 15 b4 04 65
        E 15 b4 04 65
        E 15 b4 04 65
        E 15 b4 04 65
        E 15 b4 04 65
        E 15 b4 04 64
        E 15 b4 04 64
        E 15 b4 04 63
        E 15 b4 04 63
        E 15 b4 04 62
        E 15 b4 04 61
        E 15 b4 04 5f
        E 15 b4 04 5f
        E 15 b4 04 5d
        E 15 b4 04 5c
        E 15 b4 04 5b
        E 15 b4 04 59
        E 15 b4 04 57
        E 15 b4 04 56
        E 15 b4 04 54
        E 15 b4 04 52
        E 15 b4 04 50
        E 15 b4 04 4e
        E 15 b4 04 4c
        E 15 b4 04 49
        E 15 b4 04 47
        E 15 b4 04 45
        E 15 b4 04 43
        E 15 b4 04 40
        E 15 b4 04 3e
        E 15 b4 04 3b
        E 15 b4 04 38
        E 15 b4 04 36
        E 15 b4 04 33
        E 15 b4 04 31
        E 15 b4 04 2f
        E 15 b4 04 2c
        E 15 b4 04 2a
        E 15 b4 04 27
        E 15 b4 04 24
        E 15 b4 04 22
        E 15 b4 04 1f
        E 15 b4 04 1e
        E 15 b4 04 1b
        E 15 b4 04 19
        E 15 b4 04 17
        E 15 b4 04 15
        E 15 b4 04 13
        E 15 b4 04 11
        E 15 b4 04 0f
        E 15 b4 04 0d
        E 15 b4 04 0b
        E 15 b4 04 0a
        E 15 b4 04 08
        E 15 b4 04 07
        E 15 b4 04 06
        E 15 b4 04 05
        E 15 b4 04 03
        E 15 b4 04 03
        E 15 b4 04 02
        E 15 b4 04 01
        E 15 b4 04 00
        E 15 b4 04 00
        E 15 b4 04 00
        E 15 b4 04 00
        E 15 b4 04 00
        E 15 b4 04 00
        E 15 b4 04 00
        E 15 b4 04 00
        E 15 b4 04 00
        E 15 b4 04 01
        E 15 b4 04 02
        E 15 b4 04 03
        E 15 b4 04 03
        E 15 b4 04 04
        E 15 b4 04 05
        E 15 b4 04 07
        E 15 b4 04 07
        E 15 b4 04 09
        E 15 b4 04 0b
        E 15 b4 04 0c
        E 15 b4 04 0e
        E 15 b4 04 10
        E 15 b4 04 12
        E 15 b4 04 14
        E 15 b4 04 16
        E 15 b4 04 18
        E 15 b4 04 1a
        E 15 b4 04 1c
        E 15 b4 04 1f
        E 15 b4 04 21
        E 15 b4 04 24
        E 15 b4 04 26
        E 15 b4 04 28
        E 15 b4 04 2b
        E 15 b4 04 2d
        E 15 b4 04 2f
        E 15 b4 04 33
        E 31 b4 04 39
        E 31 b4 04 3c
        E 31 b4 04 3f
        E 31 b4 04 41
        E 31 b4 04 44
        E 31 b4 04 47
        E 31 b4 04 49
        E 31 b4 04 4c
        E 31 b4 04 4f
        E 31 b4 04 51
        E 31 b4 04 54
        E 31 b4 04 56
        E 31 b4 04 59
        E 31 b4 04 5b
        E 31 b4 04 5d
        E 31 b4 04 5f
        E 31 b4 04 62
        E 31 b4 04 63
        E 31 b4 04 65
        E 31 b4 04 67
        E 31 b4 04 69
        E 31 b4 04 6a
        E 31 b4 04 6c
        E 31 b4 04 6c
        E 31 b4 04 6d
        E 31 b4 04 6e
        E 31 b4 04 6f
        E 31 b4 04 70
        E 31 b4 04 71
        E 31 b4 04 71
        E 31 b4 04 72
        E 31 b4 04 72
        E 31 b4 04 72
        E 31 b4 04 72
        E 31 b4 04 72
        E 31 b4 04 71
        E 31 b4 04 71
        E 31 b4 04 70
        E 31 b4 04 6f
        E 31 b4 04 6e
        E 31 b4 04 6d
        E 31 b4 04 6c
        E 31 b4 04 6b
        E 31 b4 04 69
        E 31 b4 04 68
        E 31 b4 04 66
        E 31 b4 04 64
        E 31 b4 04 63
        E 31 b4 04 61
        E 31 b4 04 5e
        E 31 b4 04 5c
        E 31 b4 04 5a
        E 31 b4 04 58
        E 31 b4 04 55
        E 31 b4 04 52
        E 31 b4 04 50
        E 31 b4 04 4e
        E 31 b4 04 4b
        E 31 b4 04 48
        E 31 b4 04 46
        E 31 b4 04 42
        E 31 b4 04 3f
        E 31 b4 04 3d
        E 31 b4 04 3a
        E 31 b4 04 37
        E 31 b4 04 35
        E 31 b4 04 32
        E 31 b4 04 2f
        E 31 b4 04 2c
        E 31 b4 04 29
        E 31 b4 04 26
        E 31 b4 04 24
        E 31 b4 04 22
        E 31 b4 04 1f
        E 31 b4 04 1c
        E 31 b4 04 1a
        E 31 b4 04 18
        E 31 b4 04 15
        E 31 b4 04 13
        E 31 b4 04 11
        E 31 b4 04 0f
        E 31 b4 04 0d
        E 31 b4 04 0b
        E 31 b4 04 09
        E 31 b4 04 09
        E 31 b4 04 07
        E 31 b4 04 06
        E 31 b4 04 04
        E 31 b4 04 03
        E 31 b4 04 02
        E 31 b4 04 01
        E 31 b4 04 00
        E 31 b4 04 00
        E 31 b4 04 00
        E 31 b4 04 00
        E 31 b4 04 00
        E 31 b4 04 00
        E 31 b4 04 00
        E 31 b4 04 00
        E 31 b4 04 00
        E 31 b4 04 01
        E 31 b4 04 02
        E 31 b4 04 03
        E 31 b4 04 04
        E 31 b4 04 05
        E 31 b4 04 06
        E 31 b4 04 08
        E 31 b4 04 09
        E 31 b4 04 0a
        E 31 b4 04 0c
        E 31 b4 04 0e
        E 31 b4 04 10
        E 31 b4 04 12
        E 31 b4 04 14
        E 31 b4 04 16
        E 31 b4 04 19
        E 31 b4 04 1b
        E 31 b4 04 1d
        E 31 b4 04 20
        E 31 b4 04 23
        E 31 b4 04 25
        E 31 b4 04 28
        E 31 b4 04 2b
        E 31 b4 04 2d
        E 31 b4 04 30
        E 31 b4 04 33
        E 31 b4 04 36
        E 31 b4 04 39
        E 46 b4 04 13
        E 46 b4 04 14
        E 46 b4 04 15
        E 46 b4 04 15
        E 46 b4 04 16
        E 46 b4 04 17
        E 46 b4 04 18
        E 46 b4 04 19
        E 46 b4 04 1a
        E 46 b4 04 1b
        E 46 b4 04 1c
        E 46 b4 04 1c
        E 46 b4 04 1d
        E 46 b4 04 1e
        E 46 b4 04 1f
        E 46 b4 04 1f
        E 46 b4 04 20
        E 46 b4 04 21
        E 46 b4 04 21
        E 46 b4 04 22
        E 46 b4 04 23
        E 46 b4 04 23
        E 46 b4 04 24
        E 46 b4 04 24
        E 46 b4 04 24
        E 46 b4 04 24
        E 46 b4 04 25
        E 46 b4 04 25
        E 46 b4 04 25
        E 46 b4 04 25
        E 46 b4 04 26
        E 46 b4 04 26
        E 46 b4 04 26
        E 46 b4 04 26
        E 46 b4 04 26
        E 46 b4 04 25
        E 46 b4 04 25
        E 46 b4 04 25
        E 46 b4 04 25
        E 46 b4 04 24
        E 46 b4 04 24
        E 46 b4 04 24
        E 46 b4 04 23
        E 46 b4 04 23
        E 46 b4 04 22
        E 46 b4 04 22
        E 46 b4 04 21
        E 46 b4 04 21
        E 46 b4 04 20
        E 46 b4 04 1f
        E 46 b4 04 1e
        E 46 b4 04 1e
        E 46 b4 04 1d
        E 46 b4 04 1c
        E 46 b4 04 1b
        E 46 b4 04 1a
        E 46 b4 04 1a
        E 46 b4 04 19
        E 46 b4 04 18
        E 46 b4 04 17
        E 46 b4 04 16
        E 46 b4 04 15
        E 46 b4 04 14
        E 46 b4 04 13
        E 46 b4 04 12
        E 46 b4 04 11
        E 46 b4 04 10
        E 46 b4 04 0f
        E 46 b4 04 0e
        E 46 b4 04 0d
        E 46 b4 04 0c
        E 46 b4 04 0c
        E 46 b4 04 0b
        E 46 b4 04 0a
        E 46 b4 04 09
        E 46 b4 04 08
        E 46 b4 04 08
        E 46 b4 04 07
        E 46 b4 04 06
        E 46 b4 04 05
        E 46 b4 04 05
        E 46 b4 04 04
        E 46 b4 04 03
        E 46 b4 04 03
        E 46 b4 04 03
        E 46 b4 04 02
        E 46 b4 04 02
        E 46 b4 04 01
        E 46 b4 04 01
        E 46 b4 04 00
        E 46 b4 04 00
        E 46 b4 04 00
        E 46 b4 04 00
        E 46 b4 04 00
        E 46 b4 04 00
        E 46 b4 04 00
        E 46 b4 04 00
        E 46 b4 04 00
        E 46 b4 04 00
        E 46 b4 04 00
        E 46 b4 04 00
        E 46 b4 04 00
        E 46 b4 04 01
        E 46 b4 04 01
        E 46 b4 04 01
        E 46 b4 04 02
        E 46 b4 04 02
        E 46 b4 04 03
        E 46 b4 04 03
        E 46 b4 04 04
        E 46 b4 04 04
        E 46 b4 04 05
        E 46 b4 04 06
        E 46 b4 04 06
        E 46 b4 04 07
        E 46 b4 04 08
        E 46 b4 04 09
        E 46 b4 04 09
        E 46 b4 04 0a
        E 46 b4 04 0b
        E 46 b4 04 0c
        E 46 b4 04 0d
        E 46 b4 04 0e
        E 46 b4 04 0f
        E 46 b4 04 10
        E 46 b4 04 11
        E 46 b4 04 12
        E 46 b4 04 13
        E 70 b0 7b 00
        CCINTERP 32
        CHASE_CC_TAKEOFFS 1
        GUID {02612476-C8CD-FD49-B403-CFC31B935A6A}
        IGNTEMPO 0 120 4 4
        SRCCOLOR 73
        VELLANE 3 601 0
        VELLANE -1 196 0
      >
    >
  >
  <TRACK {CED0A8A9-F9D0-4A42-9AF5-A24BEA4E7D43}
    NAME "cannabis-infused gummies"
    PEAKCOL 16576
    BEAT -1
    AUTOMODE 0
    VOLPAN 1 0 -1 -1 1
    MUTESOLO 0 0 0
    IPHASE 0
    PLAYOFFS 0 1
    ISBUS 0 0
    BUSCOMP 0 0 0 0 0
    SHOWINMIX 1 0.6667 0.5 1 0.5 0 -1 0
    FREEMODE 0
    SEL 0
    REC 0 0 1 0 0 0 0
    VU 2
    TRACKHEIGHT 0 0 0 0 -1 0
    INQ 0 0 0 0.5 100 0 0 100
    NCHAN 2
    FX 1
    TRACKID {CED0A8A9-F9D0-4A42-9AF5-A24BEA4E7D43}
    PERF 0
    MIDIOUT -1
    MAINSEND 1 0
    <ITEM
      POSITION 0
      SNAPOFFS 0
      LENGTH 1395.91632
      LOOP 1
      ALLTAKES 0
      FADEIN 1 0 0 1 0 0
      FADEOUT 1 0 0 1 0 0
      MUTE 0 0
      SEL 0
      IGUID {151A24B4-3236-1942-B627-F9BC3FE1F8E4}
      IID 18
      NAME "cannabis-infused gummies.mid"
      VOLPAN 1 0 1 -1
      SOFFS 0 0
      PLAYRATE 1 1 0 -1 0 0.0025
      CHANMODE 0
      GUID {2EBE04BC-DF82-A24B-A4E5-70965A3A97A0}
      <SOURCE MIDI
        HASDATA 1 128 QN
        CCINTERP 32
        POOLEDEVTS {533A3DD6-F9E8-A148-95ED-627F9A47A0F3}
        E 71 b5 01 13
        E 71 b5 01 14
        E 71 b5 01 15
        E 71 b5 01 15
        E 71 b5 01 16
        E 71 b5 01 17
        E 71 b5 01 18
        E 71 b5 01 19
        E 71 b5 01 1a
        E 71 b5 01 1b
        E 71 b5 01 1c
        E 71 b5 01 1c
        E 71 b5 01 1d
        E 71 b5 01 1e
        E 71 b5 01 1f
        E 71 b5 01 1f
        E 71 b5 01 20
        E 71 b5 01 21
        E 71 b5 01 21
        E 71 b5 01 22
        E 71 b5 01 23
        E 71 b5 01 23
        E 71 b5 01 24
        E 71 b5 01 24
        E 71 b5 01 24
        E 71 b5 01 24
        E 71 b5 01 25
        E 71 b5 01 25
        E 71 b5 01 25
        E 71 b5 01 25
        E 71 b5 01 26
        E 71 b5 01 26
        E 71 b5 01 26
        E 71 b5 01 26
        E 71 b5 01 26
        E 71 b5 01 25
        E 71 b5 01 25
        E 71 b5 01 25
        E 71 b5 01 25
        E 71 b5 01 24
        E 71 b5 01 24
        E 71 b5 01 24
        E 71 b5 01 23
        E 71 b5 01 23
        E 71 b5 01 22
        E 71 b5 01 22
        E 71 b5 01 21
        E 71 b5 01 21
        E 71 b5 01 20
        E 71 b5 01 1f
        E 71 b5 01 1e
        E 71 b5 01 1e
        E 71 b5 01 1d
        E 71 b5 01 1c
        E 71 b5 01 1b
        E 71 b5 01 1a
        E 71 b5 01 1a
        E 71 b5 01 19
        E 71 b5 01 18
        E 71 b5 01 17
        E 71 b5 01 16
        E 71 b5 01 15
        E 71 b5 01 14
        E 71 b5 01 13
        E 71 b5 01 12
        E 71 b5 01 11
        E 71 b5 01 10
        E 71 b5 01 0f
        E 71 b5 01 0e
        E 71 b5 01 0d
        E 71 b5 01 0c
        E 71 b5 01 0c
        E 71 b5 01 0b
        E 71 b5 01 0a
        E 71 b5 01 09
        E 71 b5 01 08
        E 71 b5 01 08
        E 71 b5 01 07
        E 71 b5 01 06
        E 71 b5 01 05
        E 71 b5 01 05
        E 71 b5 01 04
        E 71 b5 01 03
        E 71 b5 01 03
        E 71 b5 01 03
        E 71 b5 01 02
        E 71 b5 01 02
        E 71 b5 01 01
        E 71 b5 01 01
        E 71 b5 01 00
        E 71 b5 01 00
        E 71 b5 01 00
        E 71 b5 01 00
        E 71 b5 01 00
        E 71 b5 01 00
        E 71 b5 01 00
        E 71 b5 01 00
        E 71 b5 01 00
        E 71 b5 01 00
        E 71 b5 01 00
        E 71 b5 01 00
        E 71 b5 01 00
        E 71 b5 01 01
        E 71 b5 01 01
        E 71 b5 01 01
        E 71 b5 01 02
        E 71 b5 01 02
        E 71 b5 01 03
        E 71 b5 01 03
        E 71 b5 01 04
        E 71 b5 01 04
        E 71 b5 01 05
        E 71 b5 01 06
        E 71 b5 01 06
        E 71 b5 01 07
        E 71 b5 01 08
        E 71 b5 01 09
        E 71 b5 01 09
        E 71 b5 01 0a
        E 71 b5 01 0b
        E 71 b5 01 0c
        E 71 b5 01 0d
        E 71 b5 01 0e
        E 71 b5 01 0f
        E 71 b5 01 10
        E 71 b5 01 11
        E 71 b5 01 12
        E 71 b5 01 13
        E 23 b5 01 26
        E 23 b5 01 28
        E 23 b5 01 2a
        E 23 b5 01 2b
        E 23 b5 01 2d
        E 23 b5 01 2f
        E 23 b5 01 31
        E 23 b5 01 33
        E 23 b5 01 34
        E 23 b5 01 36
        E 23 b5 01 38
        E 23 b5 01 39
        E 23 b5 01 3b
        E 23 b5 01 3d
        E 23 b5 01 3e
        E 23 b5 01 3f
        E 23 b5 01 41
        E 23 b5 01 42
        E 23 b5 01 43
        E 23 b5 01 45
        E 23 b5 01 46
        E 23 b5 01 46
        E 23 b5 01 48
        E 23 b5 01 48
        E 23 b5 01 49
        E 23 b5 01 49
        E 23 b5 01 4a
        E 23 b5 01 4b
        E 23 b5 01 4b
        E 23 b5 01 4b
        E 23 b5 01 4c
        E 23 b5 01 4c
        E 23 b5 01 4c
        E 23 b5 01 4c
        E 23 b5 01 4c
        E 23 b5 01 4b
        E 23 b5 01 4b
        E 23 b5 01 4b
        E 23 b5 01 4a
        E 23 b5 01 49
        E 23 b5 01 49
        E 23 b5 01 48
        E 23 b5 01 47
        E 23 b5 01 46
        E 23 b5 01 45
        E 23 b5 01 44
        E 23 b5 01 43
        E 23 b5 01 42
        E 23 b5 01 40
        E 23 b5 01 3f
        E 23 b5 01 3d
        E 23 b5 01 3c
        E 23 b5 01 3a
        E 23 b5 01 39
        E 23 b5 01 37
        E 23 b5 01 35
        E 23 b5 01 34
        E 23 b5 01 32
        E 23 b5 01 30
        E 23 b5 01 2e
        E 23 b5 01 2c
        E 23 b5 01 2a
        E 23 b5 01 28
        E 23 b5 01 27
        E 23 b5 01 25
        E 23 b5 01 23
        E 23 b5 01 21
        E 23 b5 01 1f
        E 23 b5 01 1d
        E 23 b5 01 1b
        E 23 b5 01 19
        E 23 b5 01 18
        E 23 b5 01 16
        E 23 b5 01 15
        E 23 b5 01 13
        E 23 b5 01 11
        E 23 b5 01 10
        E 23 b5 01 0e
        E 23 b5 01 0d
        E 23 b5 01 0b
        E 23 b5 01 0a
        E 23 b5 01 09
        E 23 b5 01 07
        E 23 b5 01 06
        E 23 b5 01 06
        E 23 b5 01 04
        E 23 b5 01 04
        E 23 b5 01 03
        E 23 b5 01 02
        E 23 b5 01 01
        E 23 b5 01 01
        E 23 b5 01 00
        E 23 b5 01 00
        E 23 b5 01 00
        E 23 b5 01 00
        E 23 b5 01 00
        E 23 b5 01 00
        E 23 b5 01 00
        E 23 b5 01 00
        E 23 b5 01 00
        E 23 b5 01 01
        E 23 b5 01 01
        E 23 b5 01 02
        E 23 b5 01 03
        E 23 b5 01 03
        E 23 b5 01 04
        E 23 b5 01 05
        E 23 b5 01 06
        E 23 b5 01 07
        E 23 b5 01 08
        E 23 b5 01 09
        E 23 b5 01 0a
        E 23 b5 01 0c
        E 23 b5 01 0d
        E 23 b5 01 0f
        E 23 b5 01 10
        E 23 b5 01 12
        E 23 b5 01 13
        E 23 b5 01 15
        E 23 b5 01 17
        E 23 b5 01 19
        E 23 b5 01 1b
        E 23 b5 01 1c
        E 23 b5 01 1e
        E 23 b5 01 20
        E 23 b5 01 22
        E 23 b5 01 24
        E 23 b5 01 26
        E 63 b5 01 39
        E 63 b5 01 3c
        E 63 b5 01 3f
        E 63 b5 01 41
        E 63 b5 01 44
        E 63 b5 01 47
        E 63 b5 01 49
        E 63 b5 01 4c
        E 63 b5 01 4f
        E 63 b5 01 51
        E 63 b5 01 54
        E 63 b5 01 56
        E 63 b5 01 59
        E 63 b5 01 5b
        E 63 b5 01 5d
        E 63 b5 01 5f
        E 63 b5 01 62
        E 63 b5 01 63
        E 63 b5 01 65
        E 63 b5 01 67
        E 63 b5 01 69
        E 63 b5 01 6a
        E 63 b5 01 6c
        E 63 b5 01 6c
        E 63 b5 01 6d
        E 63 b5 01 6e
        E 63 b5 01 6f
        E 63 b5 01 70
        E 63 b5 01 71
        E 63 b5 01 71
        E 63 b5 01 72
        E 63 b5 01 72
        E 63 b5 01 72
        E 63 b5 01 72
        E 63 b5 01 72
        E 63 b5 01 71
        E 63 b5 01 71
        E 63 b5 01 70
        E 63 b5 01 6f
        E 63 b5 01 6e
        E 63 b5 01 6d
        E 63 b5 01 6c
        E 63 b5 01 6b
        E 63 b5 01 69
        E 63 b5 01 68
        E 63 b5 01 66
        E 63 b5 01 64
        E 63 b5 01 63
        E 63 b5 01 61
        E 63 b5 01 5e
        E 63 b5 01 5c
        E 63 b5 01 5a
        E 63 b5 01 58
        E 63 b5 01 55
        E 63 b5 01 52
        E 63 b5 01 50
        E 63 b5 01 4e
        E 63 b5 01 4b
        E 63 b5 01 48
        E 63 b5 01 46
        E 63 b5 01 42
        E 63 b5 01 3f
        E 63 b5 01 3d
        E 63 b5 01 3a
        E 63 b5 01 37
        E 63 b5 01 35
        E 63 b5 01 32
        E 63 b5 01 2f
        E 63 b5 01 2c
        E 63 b5 01 29
        E 63 b5 01 26
        E 63 b5 01 24
        E 63 b5 01 22
        E 63 b5 01 1f
        E 63 b5 01 1c
        E 63 b5 01 1a
        E 63 b5 01 18
        E 63 b5 01 15
        E 63 b5 01 13
        E 63 b5 01 11
        E 63 b5 01 0f
        E 63 b5 01 0d
        E 63 b5 01 0b
        E 63 b5 01 09
        E 63 b5 01 09
        E 63 b5 01 07
        E 63 b5 01 06
        E 63 b5 01 04
        E 63 b5 01 03
        E 63 b5 01 02
        E 63 b5 01 01
        E 63 b5 01 00
        E 63 b5 01 00
        E 63 b5 01 00
        E 63 b5 01 00
        E 63 b5 01 00
        E 63 b5 01 00
        E 63 b5 01 00
        E 63 b5 01 00
        E 63 b5 01 00
        E 63 b5 01 01
        E 63 b5 01 02
        E 63 b5 01 03
        E 63 b5 01 04
        E 63 b5 01 05
        E 63 b5 01 06
        E 63 b5 01 08
        E 63 b5 01 09
        E 63 b5 01 0a
        E 63 b5 01 0c
        E 63 b5 01 0e
        E 63 b5 01 10
        E 63 b5 01 12
        E 63 b5 01 14
        E 63 b5 01 16
        E 63 b5 01 19
        E 63 b5 01 1b
        E 63 b5 01 1d
        E 63 b5 01 20
        E 63 b5 01 23
        E 63 b5 01 25
        E 63 b5 01 28
        E 63 b5 01 2b
        E 63 b5 01 2d
        E 63 b5 01 30
        E 63 b5 01 33
        E 63 b5 01 36
        E 63 b5 01 39
        E 7 b5 01 19
        E 7 b5 01 1a
        E 7 b5 01 1c
        E 7 b5 01 1d
        E 7 b5 01 1e
        E 7 b5 01 1f
        E 7 b5 01 20
        E 7 b5 01 22
        E 7 b5 01 23
        E 7 b5 01 24
        E 7 b5 01 25
        E 7 b5 01 26
        E 7 b5 01 27
        E 7 b5 01 28
        E 7 b5 01 29
        E 7 b5 01 2a
        E 7 b5 01 2b
        E 7 b5 01 2c
        E 7 b5 01 2d
        E 7 b5 01 2e
        E 7 b5 01 2e
        E 7 b5 01 2f
        E 7 b5 01 30
        E 7 b5 01 30
        E 7 b5 01 30
        E 7 b5 01 31
        E 7 b5 01 31
        E 7 b5 01 32
        E 7 b5 01 32
        E 7 b5 01 32
        E 7 b5 01 32
        E 7 b5 01 32
        E 7 b5 01 32
        E 7 b5 01 32
        E 7 b5 01 32
        E 7 b5 01 32
        E 7 b5 01 32
        E 7 b5 01 32
        E 7 b5 01 31
        E 7 b5 01 31
        E 7 b5 01 30
        E 7 b5 01 30
        E 7 b5 01 2f
        E 7 b5 01 2e
        E 7 b5 01 2e
        E 7 b5 01 2d
        E 7 b5 01 2c
        E 7 b5 01 2c
        E 7 b5 01 2b
        E 7 b5 01 2a
        E 7 b5 01 29
        E 7 b5 01 28
        E 7 b5 01 27
        E 7 b5 01 26
        E 7 b5 01 24
        E 7 b5 01 23
        E 7 b5 01 22
        E 7 b5 01 21
        E 7 b5 01 20
        E 7 b5 01 1f
        E 7 b5 01 1d
        E 7 b5 01 1c
        E 7 b5 01 1b
        E 7 b5 01 1a
        E 7 b5 01 18
        E 7 b5 01 17
        E 7 b5 01 16
        E 7 b5 01 15
        E 7 b5 01 13
        E 7 b5 01 12
        E 7 b5 01 11
        E 7 b5 01 10
        E 7 b5 01 0f
        E 7 b5 01 0e
        E 7 b5 01 0c
        E 7 b5 01 0b
        E 7 b5 01 0a
        E 7 b5 01 09
        E 7 b5 01 08
        E 7 b5 01 07
        E 7 b5 01 06
        E 7 b5 01 06
        E 7 b5 01 05
        E 7 b5 01 04
        E 7 b5 01 04
        E 7 b5 01 03
        E 7 b5 01 02
        E 7 b5 01 02
        E 7 b5 01 01
        E 7 b5 01 01
        E 7 b5 01 00
        E 7 b5 01 00
        E 7 b5 01 00
        E 7 b5 01 00
        E 7 b5 01 00
        E 7 b5 01 00
        E 7 b5 01 00
        E 7 b5 01 00
        E 7 b5 01 00
        E 7 b5 01 00
        E 7 b5 01 00
        E 7 b5 01 01
        E 7 b5 01 01
        E 7 b5 01 02
        E 7 b5 01 02
        E 7 b5 01 02
        E 7 b5 01 03
        E 7 b5 01 04
        E 7 b5 01 04
        E 7 b5 01 05
        E 7 b5 01 06
        E 7 b5 01 07
        E 7 b5 01 08
        E 7 b5 01 09
        E 7 b5 01 0a
        E 7 b5 01 0b
        E 7 b5 01 0c
        E 7 b5 01 0d
        E 7 b5 01 0e
        E 7 b5 01 0f
        E 7 b5 01 10
        E 7 b5 01 12
        E 7 b5 01 13
        E 7 b5 01 14
        E 7 b5 01 15
        E 7 b5 01 16
        E 7 b5 01 18
        E 7 b5 01 19
        E 71 b5 01 06
        E 71 b5 01 06
        E 71 b5 01 07
        E 71 b5 01 07
        E 71 b5 01 07
        E 71 b5 01 07
        E 71 b5 01 08
        E 71 b5 01 08
        E 71 b5 01 08
        E 71 b5 01 09
        E 71 b5 01 09
        E 71 b5 01 09
        E 71 b5 01 09
        E 71 b5 01 0a
        E 71 b5 01 0a
        E 71 b5 01 0a
        E 71 b5 01 0a
        E 71 b5 01 0b
        E 71 b5 01 0b
        E 71 b5 01 0b
        E 71 b5 01 0b
        E 71 b5 01 0b
        E 71 b5 01 0c
        E 71 b5 01 0c
        E 71 b5 01 0c
        E 71 b5 01 0c
        E 71 b5 01 0c
        E 71 b5 01 0c
        E 71 b5 01 0c
        E 71 b5 01 0c
        E 71 b5 01 0c
        E 71 b5 01 0c
        E 71 b5 01 0c
        E 71 b5 01 0c
        E 71 b5 01 0c
        E 71 b5 01 0c
        E 71 b5 01 0c
        E 71 b5 01 0c
        E 71 b5 01 0c
        E 71 b5 01 0c
        E 71 b5 01 0c
        E 71 b5 01 0c
        E 71 b5 01 0b
        E 71 b5 01 0b
        E 71 b5 01 0b
        E 71 b5 01 0b
        E 71 b5 01 0b
        E 71 b5 01 0b
        E 71 b5 01 0a
        E 71 b5 01 0a
        E 71 b5 01 0a
        E 71 b5 01 0a
        E 71 b5 01 09
        E 71 b5 01 09
        E 71 b5 01 09
        E 71 b5 01 08
        E 71 b5 01 08
        E 71 b5 01 08
        E 71 b5 01 08
        E 71 b5 01 07
        E 71 b5 01 07
        E 71 b5 01 07
        E 71 b5 01 06
        E 71 b5 01 06
        E 71 b5 01 06
        E 71 b5 01 05
        E 71 b5 01 05
        E 71 b5 01 05
        E 71 b5 01 04
        E 71 b5 01 04
        E 71 b5 01 04
        E 71 b5 01 04
        E 71 b5 01 03
        E 71 b5 01 03
        E 71 b5 01 03
        E 71 b5 01 02
        E 71 b5 01 02
        E 71 b5 01 02
        E 71 b5 01 02
        E 71 b5 01 01
        E 71 b5 01 01
        E 71 b5 01 01
        E 71 b5 01 01
        E 71 b5 01 01
        E 71 b5 01 01
        E 71 b5 01 00
        E 71 b5 01 00
        E 71 b5 01 00
        E 71 b5 01 00
        E 71 b5 01 00
        E 71 b5 01 00
        E 71 b5 01 00
        E 71 b5 01 00
        E 71 b5 01 00
        E 71 b5 01 00
        E 71 b5 01 00
        E 71 b5 01 00
        E 71 b5 01 00
        E 71 b5 01 00
        E 71 b5 01 00
        E 71 b5 01 00
        E 71 b5 01 00
        E 71 b5 01 00
        E 71 b5 01 00
        E 71 b5 01 00
        E 71 b5 01 00
        E 71 b5 01 00
        E 71 b5 01 01
        E 71 b5 01 01
        E 71 b5 01 01
        E 71 b5 01 01
        E 71 b5 01 01
        E 71 b5 01 02
        E 71 b5 01 02
        E 71 b5 01 02
        E 71 b5 01 02
        E 71 b5 01 03
        E 71 b5 01 03
        E 71 b5 01 03
        E 71 b5 01 03
        E 71 b5 01 04
        E 71 b5 01 04
        E 71 b5 01 04
        E 71 b5 01 05
        E 71 b5 01 05
        E 71 b5 01 05
        E 71 b5 01 06
        E 71 b5 01 06
        E 63 b5 01 2c
        E 63 b5 01 2e
        E 63 b5 01 31
        E 63 b5 01 33
        E 63 b5 01 35
        E 63 b5 01 37
        E 63 b5 01 39
        E 63 b5 01 3b
        E 63 b5 01 3d
        E 63 b5 01 3f
        E 63 b5 01 41
        E 63 b5 01 43
        E 63 b5 01 45
        E 63 b5 01 47
        E 63 b5 01 48
        E 63 b5 01 4a
        E 63 b5 01 4c
        E 63 b5 01 4d
        E 63 b5 01 4f
        E 63 b5 01 50
        E 63 b5 01 51
        E 63 b5 01 52
        E 63 b5 01 54
        E 63 b5 01 54
        E 63 b5 01 55
        E 63 b5 01 56
        E 63 b5 01 56
        E 63 b5 01 57
        E 63 b5 01 58
        E 63 b5 01 58
        E 63 b5 01 58
        E 63 b5 01 58
        E 63 b5 01 58
        E 63 b5 01 58
        E 63 b5 01 58
        E 63 b5 01 58
        E 63 b5 01 58
        E 63 b5 01 57
        E 63 b5 01 56
        E 63 b5 01 56
        E 63 b5 01 55
        E 63 b5 01 54
        E 63 b5 01 53
        E 63 b5 01 51
        E 63 b5 01 51
        E 63 b5 01 4f
        E 63 b5 01 4e
        E 63 b5 01 4d
        E 63 b5 01 4b
        E 63 b5 01 49
        E 63 b5 01 48
        E 63 b5 01 46
        E 63 b5 01 44
        E 63 b5 01 42
        E 63 b5 01 40
        E 63 b5 01 3e
        E 63 b5 01 3c
        E 63 b5 01 3a
        E 63 b5 01 38
        E 63 b5 01 36
        E 63 b5 01 33
        E 63 b5 01 31
        E 63 b5 01 2f
        E 63 b5 01 2d
        E 63 b5 01 2b
        E 63 b5 01 29
        E 63 b5 01 27
        E 63 b5 01 25
        E 63 b5 01 22
        E 63 b5 01 20
        E 63 b5 01 1e
        E 63 b5 01 1c
        E 63 b5 01 1a
        E 63 b5 01 18
        E 63 b5 01 16
        E 63 b5 01 14
        E 63 b5 01 12
        E 63 b5 01 10
        E 63 b5 01 0f
        E 63 b5 01 0d
        E 63 b5 01 0b
        E 63 b5 01 0a
        E 63 b5 01 09
        E 63 b5 01 07
        E 63 b5 01 07
        E 63 b5 01 05
        E 63 b5 01 04
        E 63 b5 01 03
        E 63 b5 01 02
        E 63 b5 01 02
        E 63 b5 01 01
        E 63 b5 01 00
        E 63 b5 01 00
        E 63 b5 01 00
        E 63 b5 01 00
        E 63 b5 01 00
        E 63 b5 01 00
        E 63 b5 01 00
        E 63 b5 01 00
        E 63 b5 01 00
        E 63 b5 01 01
        E 63 b5 01 02
        E 63 b5 01 02
        E 63 b5 01 03
        E 63 b5 01 04
        E 63 b5 01 04
        E 63 b5 01 06
        E 63 b5 01 07
        E 63 b5 01 08
        E 63 b5 01 09
        E 63 b5 01 0b
        E 63 b5 01 0c
        E 63 b5 01 0e
        E 63 b5 01 10
        E 63 b5 01 11
        E 63 b5 01 13
        E 63 b5 01 15
        E 63 b5 01 17
        E 63 b5 01 19
        E 63 b5 01 1b
        E 63 b5 01 1d
        E 63 b5 01 1f
        E 63 b5 01 21
        E 63 b5 01 23
        E 63 b5 01 25
        E 63 b5 01 27
        E 63 b5 01 2a
        E 63 b5 01 2c
        E 71 b5 01 13
        E 71 b5 01 14
        E 71 b5 01 15
        E 71 b5 01 15
        E 71 b5 01 16
        E 71 b5 01 17
        E 71 b5 01 18
        E 71 b5 01 19
        E 71 b5 01 1a
        E 71 b5 01 1b
        E 71 b5 01 1c
        E 71 b5 01 1c
        E 71 b5 01 1d
        E 71 b5 01 1e
        E 71 b5 01 1f
        E 71 b5 01 1f
        E 71 b5 01 20
        E 71 b5 01 21
        E 71 b5 01 21
        E 71 b5 01 22
        E 71 b5 01 23
        E 71 b5 01 23
        E 71 b5 01 24
        E 71 b5 01 24
        E 71 b5 01 24
        E 71 b5 01 24
        E 71 b5 01 25
        E 71 b5 01 25
        E 71 b5 01 25
        E 71 b5 01 25
        E 71 b5 01 26
        E 71 b5 01 26
        E 71 b5 01 26
        E 71 b5 01 26
        E 71 b5 01 26
        E 71 b5 01 25
        E 71 b5 01 25
        E 71 b5 01 25
        E 71 b5 01 25
        E 71 b5 01 24
        E 71 b5 01 24
        E 71 b5 01 24
        E 71 b5 01 23
        E 71 b5 01 23
        E 71 b5 01 22
        E 71 b5 01 22
        E 71 b5 01 21
        E 71 b5 01 21
        E 71 b5 01 20
        E 71 b5 01 1f
        E 71 b5 01 1e
        E 71 b5 01 1e
        E 71 b5 01 1d
        E 71 b5 01 1c
        E 71 b5 01 1b
        E 71 b5 01 1a
        E 71 b5 01 1a
        E 71 b5 01 19
        E 71 b5 01 18
        E 71 b5 01 17
        E 71 b5 01 16
        E 71 b5 01 15
        E 71 b5 01 14
        E 71 b5 01 13
        E 71 b5 01 12
        E 71 b5 01 11
        E 71 b5 01 10
        E 71 b5 01 0f
        E 71 b5 01 0e
        E 71 b5 01 0d
        E 71 b5 01 0c
        E 71 b5 01 0c
        E 71 b5 01 0b
        E 71 b5 01 0a
        E 71 b5 01 09
        E 71 b5 01 08
        E 71 b5 01 08
        E 71 b5 01 07
        E 71 b5 01 06
        E 71 b5 01 05
        E 71 b5 01 05
        E 71 b5 01 04
        E 71 b5 01 03
        E 71 b5 01 03
        E 71 b5 01 03
        E 71 b5 01 02
        E 71 b5 01 02
        E 71 b5 01 01
        E 71 b5 01 01
        E 71 b5 01 00
        E 71 b5 01 00
        E 71 b5 01 00
        E 71 b5 01 00
        E 71 b5 01 00
        E 71 b5 01 00
        E 71 b5 01 00
        E 71 b5 01 00
        E 71 b5 01 00
        E 71 b5 01 00
        E 71 b5 01 00
        E 71 b5 01 00
        E 71 b5 01 00
        E 71 b5 01 01
        E 71 b5 01 01
        E 71 b5 01 01
        E 71 b5 01 02
        E 71 b5 01 02
        E 71 b5 01 03
        E 71 b5 01 03
        E 71 b5 01 04
        E 71 b5 01 04
        E 71 b5 01 05
        E 71 b5 01 06
        E 71 b5 01 06
        E 71 b5 01 07
        E 71 b5 01 08
        E 71 b5 01 09
        E 71 b5 01 09
        E 71 b5 01 0a
        E 71 b5 01 0b
        E 71 b5 01 0c
        E 71 b5 01 0d
        E 71 b5 01 0e
        E 71 b5 01 0f
        E 71 b5 01 10
        E 71 b5 01 11
        E 71 b5 01 12
        E 71 b5 01 13
        E 23 b5 01 26
        E 23 b5 01 28
        E 23 b5 01 2a
        E 23 b5 01 2b
        E 23 b5 01 2d
        E 23 b5 01 2f
        E 23 b5 01 31
        E 23 b5 01 33
        E 23 b5 01 34
        E 23 b5 01 36
        E 23 b5 01 38
        E 23 b5 01 39
        E 23 b5 01 3b
        E 23 b5 01 3d
        E 23 b5 01 3e
        E 23 b5 01 3f
        E 23 b5 01 41
        E 23 b5 01 42
        E 23 b5 01 43
        E 23 b5 01 45
        E 23 b5 01 46
        E 23 b5 01 46
        E 23 b5 01 48
        E 23 b5 01 48
        E 23 b5 01 49
        E 23 b5 01 49
        E 23 b5 01 4a
        E 23 b5 01 4b
        E 23 b5 01 4b
        E 23 b5 01 4b
        E 23 b5 01 4c
        E 23 b5 01 4c
        E 23 b5 01 4c
        E 23 b5 01 4c
        E 23 b5 01 4c
        E 23 b5 01 4b
        E 23 b5 01 4b
        E 23 b5 01 4b
        E 23 b5 01 4a
        E 23 b5 01 49
        E 23 b5 01 49
        E 23 b5 01 48
        E 23 b5 01 47
        E 23 b5 01 46
        E 23 b5 01 45
        E 23 b5 01 44
        E 23 b5 01 43
        E 23 b5 01 42
        E 23 b5 01 40
        E 23 b5 01 3f
        E 23 b5 01 3d
        E 23 b5 01 3c
        E 23 b5 01 3a
        E 23 b5 01 39
        E 23 b5 01 37
        E 23 b5 01 35
        E 23 b5 01 34
        E 23 b5 01 32
        E 23 b5 01 30
        E 23 b5 01 2e
        E 23 b5 01 2c
        E 23 b5 01 2a
        E 23 b5 01 28
        E 23 b5 01 27
        E 23 b5 01 25
        E 23 b5 01 23
        E 23 b5 01 21
        E 23 b5 01 1f
        E 23 b5 01 1d
        E 23 b5 01 1b
        E 23 b5 01 19
        E 23 b5 01 18
        E 23 b5 01 16
        E 23 b5 01 15
        E 23 b5 01 13
        E 23 b5 01 11
        E 23 b5 01 10
        E 23 b5 01 0e
        E 23 b5 01 0d
        E 23 b5 01 0b
        E 23 b5 01 0a
        E 23 b5 01 09
        E 23 b5 01 07
        E 23 b5 01 06
        E 23 b5 01 06
        E 23 b5 01 04
        E 23 b5 01 04
        E 23 b5 01 03
        E 23 b5 01 02
        E 23 b5 01 01
        E 23 b5 01 01
        E 23 b5 01 00
        E 23 b5 01 00
        E 23 b5 01 00
        E 23 b5 01 00
        E 23 b5 01 00
        E 23 b5 01 00
        E 23 b5 01 00
        E 23 b5 01 00
        E 23 b5 01 00
        E 23 b5 01 01
        E 23 b5 01 01
        E 23 b5 01 02
        E 23 b5 01 03
        E 23 b5 01 03
        E 23 b5 01 04
        E 23 b5 01 05
        E 23 b5 01 06
        E 23 b5 01 07
        E 23 b5 01 08
        E 23 b5 01 09
        E 23 b5 01 0a
        E 23 b5 01 0c
        E 23 b5 01 0d
        E 23 b5 01 0f
        E 23 b5 01 10
        E 23 b5 01 12
        E 23 b5 01 13
        E 23 b5 01 15
        E 23 b5 01 17
        E 23 b5 01 19
        E 23 b5 01 1b
        E 23 b5 01 1c
        E 23 b5 01 1e
        E 23 b5 01 20
        E 23 b5 01 22
        E 23 b5 01 24
        E 23 b5 01 26
        E 63 b5 01 39
        E 63 b5 01 3c
        E 63 b5 01 3f
        E 63 b5 01 41
        E 63 b5 01 44
        E 63 b5 01 47
        E 63 b5 01 49
        E 63 b5 01 4c
        E 63 b5 01 4f
        E 63 b5 01 51
        E 63 b5 01 54
        E 63 b5 01 56
        E 63 b5 01 59
        E 63 b5 01 5b
        E 63 b5 01 5d
        E 63 b5 01 5f
        E 63 b5 01 62
        E 63 b5 01 63
        E 63 b5 01 65
        E 63 b5 01 67
        E 63 b5 01 69
        E 63 b5 01 6a
        E 63 b5 01 6c
        E 63 b5 01 6c
        E 63 b5 01 6d
        E 63 b5 01 6e
        E 63 b5 01 6f
        E 63 b5 01 70
        E 63 b5 01 71
        E 63 b5 01 71
        E 63 b5 01 72
        E 63 b5 01 72
        E 63 b5 01 72
        E 63 b5 01 72
        E 63 b5 01 72
        E 63 b5 01 71
        E 63 b5 01 71
        E 63 b5 01 70
        E 63 b5 01 6f
        E 63 b5 01 6e
        E 63 b5 01 6d
        E 63 b5 01 6c
        E 63 b5 01 6b
        E 63 b5 01 69
        E 63 b5 01 68
        E 63 b5 01 66
        E 63 b5 01 64
        E 63 b5 01 63
        E 63 b5 01 61
        E 63 b5 01 5e
        E 63 b5 01 5c
        E 63 b5 01 5a
        E 63 b5 01 58
        E 63 b5 01 55
        E 63 b5 01 52
        E 63 b5 01 50
        E 63 b5 01 4e
        E 63 b5 01 4b
        E 63 b5 01 48
        E 63 b5 01 46
        E 63 b5 01 42
        E 63 b5 01 3f
        E 63 b5 01 3d
        E 63 b5 01 3a
        E 63 b5 01 37
        E 63 b5 01 35
        E 63 b5 01 32
        E 63 b5 01 2f
        E 63 b5 01 2c
        E 63 b5 01 29
        E 63 b5 01 26
        E 63 b5 01 24
        E 63 b5 01 22
        E 63 b5 01 1f
        E 63 b5 01 1c
        E 63 b5 01 1a
        E 63 b5 01 18
        E 63 b5 01 15
        E 63 b5 01 13
        E 63 b5 01 11
        E 63 b5 01 0f
        E 63 b5 01 0d
        E 63 b5 01 0b
        E 63 b5 01 09
        E 63 b5 01 09
        E 63 b5 01 07
        E 63 b5 01 06
        E 63 b5 01 04
        E 63 b5 01 03
        E 63 b5 01 02
        E 63 b5 01 01
        E 63 b5 01 00
        E 63 b5 01 00
        E 63 b5 01 00
        E 63 b5 01 00
        E 63 b5 01 00
        E 63 b5 01 00
        E 63 b5 01 00
        E 63 b5 01 00
        E 63 b5 01 00
        E 63 b5 01 01
        E 63 b5 01 02
        E 63 b5 01 03
        E 63 b5 01 04
        E 63 b5 01 05
        E 63 b5 01 06
        E 63 b5 01 08
        E 63 b5 01 09
        E 63 b5 01 0a
        E 63 b5 01 0c
        E 63 b5 01 0e
        E 63 b5 01 10
        E 63 b5 01 12
        E 63 b5 01 14
        E 63 b5 01 16
        E 63 b5 01 19
        E 63 b5 01 1b
        E 63 b5 01 1d
        E 63 b5 01 20
        E 63 b5 01 23
        E 63 b5 01 25
        E 63 b5 01 28
        E 63 b5 01 2b
        E 63 b5 01 2d
        E 63 b5 01 30
        E 63 b5 01 33
        E 63 b5 01 36
        E 63 b5 01 39
        E 7 b5 01 19
        E 7 b5 01 1a
        E 7 b5 01 1c
        E 7 b5 01 1d
        E 7 b5 01 1e
        E 7 b5 01 1f
        E 7 b5 01 20
        E 7 b5 01 22
        E 7 b5 01 23
        E 7 b5 01 24
        E 7 b5 01 25
        E 7 b5 01 26
        E 7 b5 01 27
        E 7 b5 01 28
        E 7 b5 01 29
        E 7 b5 01 2a
        E 7 b5 01 2b
        E 7 b5 01 2c
        E 7 b5 01 2d
        E 7 b5 01 2e
        E 7 b5 01 2e
        E 7 b5 01 2f
        E 7 b5 01 30
        E 7 b5 01 30
        E 7 b5 01 30
        E 7 b5 01 31
        E 7 b5 01 31
        E 7 b5 01 32
        E 7 b5 01 32
        E 7 b5 01 32
        E 7 b5 01 32
        E 7 b5 01 32
        E 7 b5 01 32
        E 7 b5 01 32
        E 7 b5 01 32
        E 7 b5 01 32
        E 7 b5 01 32
        E 7 b5 01 32
        E 7 b5 01 31
        E 7 b5 01 31
        E 7 b5 01 30
        E 7 b5 01 30
        E 7 b5 01 2f
        E 7 b5 01 2e
        E 7 b5 01 2e
        E 7 b5 01 2d
        E 7 b5 01 2c
        E 7 b5 01 2c
        E 7 b5 01 2b
        E 7 b5 01 2a
        E 7 b5 01 29
        E 7 b5 01 28
        E 7 b5 01 27
        E 7 b5 01 26
        E 7 b5 01 24
        E 7 b5 01 23
        E 7 b5 01 22
        E 7 b5 01 21
        E 7 b5 01 20
        E 7 b5 01 1f
        E 7 b5 01 1d
        E 7 b5 01 1c
        E 7 b5 01 1b
        E 7 b5 01 1a
        E 7 b5 01 18
        E 7 b5 01 17
        E 7 b5 01 16
        E 7 b5 01 15
        E 7 b5 01 13
        E 7 b5 01 12
        E 7 b5 01 11
        E 7 b5 01 10
        E 7 b5 01 0f
        E 7 b5 01 0e
        E 7 b5 01 0c
        E 7 b5 01 0b
        E 7 b5 01 0a
        E 7 b5 01 09
        E 7 b5 01 08
        E 7 b5 01 07
        E 7 b5 01 06
        E 7 b5 01 06
        E 7 b5 01 05
        E 7 b5 01 04
        E 7 b5 01 04
        E 7 b5 01 03
        E 7 b5 01 02
        E 7 b5 01 02
        E 7 b5 01 01
        E 7 b5 01 01
        E 7 b5 01 00
        E 7 b5 01 00
        E 7 b5 01 00
        E 7 b5 01 00
        E 7 b5 01 00
        E 7 b5 01 00
        E 7 b5 01 00
        E 7 b5 01 00
        E 7 b5 01 00
        E 7 b5 01 00
        E 7 b5 01 00
        E 7 b5 01 01
        E 7 b5 01 01
        E 7 b5 01 02
        E 7 b5 01 02
        E 7 b5 01 02
        E 7 b5 01 03
        E 7 b5 01 04
        E 7 b5 01 04
        E 7 b5 01 05
        E 7 b5 01 06
        E 7 b5 01 07
        E 7 b5 01 08
        E 7 b5 01 09
        E 7 b5 01 0a
        E 7 b5 01 0b
        E 7 b5 01 0c
        E 7 b5 01 0d
        E 7 b5 01 0e
        E 7 b5 01 0f
        E 7 b5 01 10
        E 7 b5 01 12
        E 7 b5 01 13
        E 7 b5 01 14
        E 7 b5 01 15
        E 7 b5 01 16
        E 7 b5 01 18
        E 7 b5 01 19
        E 71 b5 01 06
        E 71 b5 01 06
        E 71 b5 01 07
        E 71 b5 01 07
        E 71 b5 01 07
        E 71 b5 01 07
        E 71 b5 01 08
        E 71 b5 01 08
        E 71 b5 01 08
        E 71 b5 01 09
        E 71 b5 01 09
        E 71 b5 01 09
        E 71 b5 01 09
        E 71 b5 01 0a
        E 71 b5 01 0a
        E 71 b5 01 0a
        E 71 b5 01 0a
        E 71 b5 01 0b
        E 71 b5 01 0b
        E 71 b5 01 0b
        E 71 b5 01 0b
        E 71 b5 01 0b
        E 71 b5 01 0c
        E 71 b5 01 0c
        E 71 b5 01 0c
        E 71 b5 01 0c
        E 71 b5 01 0c
        E 71 b5 01 0c
        E 71 b5 01 0c
        E 71 b5 01 0c
        E 71 b5 01 0c
        E 71 b5 01 0c
        E 71 b5 01 0c
        E 71 b5 01 0c
        E 71 b5 01 0c
        E 71 b5 01 0c
        E 71 b5 01 0c
        E 71 b5 01 0c
        E 71 b5 01 0c
        E 71 b5 01 0c
        E 71 b5 01 0c
        E 71 b5 01 0c
        E 71 b5 01 0b
        E 71 b5 01 0b
        E 71 b5 01 0b
        E 71 b5 01 0b
        E 71 b5 01 0b
        E 71 b5 01 0b
        E 71 b5 01 0a
        E 71 b5 01 0a
        E 71 b5 01 0a
        E 71 b5 01 0a
        E 71 b5 01 09
        E 71 b5 01 09
        E 71 b5 01 09
        E 71 b5 01 08
        E 71 b5 01 08
        E 71 b5 01 08
        E 71 b5 01 08
        E 71 b5 01 07
        E 71 b5 01 07
        E 71 b5 01 07
        E 71 b5 01 06
        E 71 b5 01 06
        E 71 b5 01 06
        E 71 b5 01 05
        E 71 b5 01 05
        E 71 b5 01 05
        E 71 b5 01 04
        E 71 b5 01 04
        E 71 b5 01 04
        E 71 b5 01 04
        E 71 b5 01 03
        E 71 b5 01 03
        E 71 b5 01 03
        E 71 b5 01 02
        E 71 b5 01 02
        E 71 b5 01 02
        E 71 b5 01 02
        E 71 b5 01 01
        E 71 b5 01 01
        E 71 b5 01 01
        E 71 b5 01 01
        E 71 b5 01 01
        E 71 b5 01 01
        E 71 b5 01 00
        E 71 b5 01 00
        E 71 b5 01 00
        E 71 b5 01 00
        E 71 b5 01 00
        E 71 b5 01 00
        E 71 b5 01 00
        E 71 b5 01 00
        E 71 b5 01 00
        E 71 b5 01 00
        E 71 b5 01 00
        E 71 b5 01 00
        E 71 b5 01 00
        E 71 b5 01 00
        E 71 b5 01 00
        E 71 b5 01 00
        E 71 b5 01 00
        E 71 b5 01 00
        E 71 b5 01 00
        E 71 b5 01 00
        E 71 b5 01 00
        E 71 b5 01 00
        E 71 b5 01 01
        E 71 b5 01 01
        E 71 b5 01 01
        E 71 b5 01 01
        E 71 b5 01 01
        E 71 b5 01 02
        E 71 b5 01 02
        E 71 b5 01 02
        E 71 b5 01 02
        E 71 b5 01 03
        E 71 b5 01 03
        E 71 b5 01 03
        E 71 b5 01 03
        E 71 b5 01 04
        E 71 b5 01 04
        E 71 b5 01 04
        E 71 b5 01 05
        E 71 b5 01 05
        E 71 b5 01 05
        E 71 b5 01 06
        E 71 b5 01 06
        E 63 b5 01 2c
        E 63 b5 01 2e
        E 63 b5 01 31
        E 63 b5 01 33
        E 63 b5 01 35
        E 63 b5 01 37
        E 63 b5 01 39
        E 63 b5 01 3b
        E 63 b5 01 3d
        E 63 b5 01 3f
        E 63 b5 01 41
        E 63 b5 01 43
        E 63 b5 01 45
        E 63 b5 01 47
        E 63 b5 01 48
        E 63 b5 01 4a
        E 63 b5 01 4c
        E 63 b5 01 4d
        E 63 b5 01 4f
        E 63 b5 01 50
        E 63 b5 01 51
        E 63 b5 01 52
        E 63 b5 01 54
        E 63 b5 01 54
        E 63 b5 01 55
        E 63 b5 01 56
        E 63 b5 01 56
        E 63 b5 01 57
        E 63 b5 01 58
        E 63 b5 01 58
        E 63 b5 01 58
        E 63 b5 01 58
        E 63 b5 01 58
        E 63 b5 01 58
        E 63 b5 01 58
        E 63 b5 01 58
        E 63 b5 01 58
        E 63 b5 01 57
        E 63 b5 01 56
        E 63 b5 01 56
        E 63 b5 01 55
        E 63 b5 01 54
        E 63 b5 01 53
        E 63 b5 01 51
        E 63 b5 01 51
        E 63 b5 01 4f
        E 63 b5 01 4e
        E 63 b5 01 4d
        E 63 b5 01 4b
        E 63 b5 01 49
        E 63 b5 01 48
        E 63 b5 01 46
        E 63 b5 01 44
        E 63 b5 01 42
        E 63 b5 01 40
        E 63 b5 01 3e
        E 63 b5 01 3c
        E 63 b5 01 3a
        E 63 b5 01 38
        E 63 b5 01 36
        E 63 b5 01 33
        E 63 b5 01 31
        E 63 b5 01 2f
        E 63 b5 01 2d
        E 63 b5 01 2b
        E 63 b5 01 29
        E 63 b5 01 27
        E 63 b5 01 25
        E 63 b5 01 22
        E 63 b5 01 20
        E 63 b5 01 1e
        E 63 b5 01 1c
        E 63 b5 01 1a
        E 63 b5 01 18
        E 63 b5 01 16
        E 63 b5 01 14
        E 63 b5 01 12
        E 63 b5 01 10
        E 63 b5 01 0f
        E 63 b5 01 0d
        E 63 b5 01 0b
        E 63 b5 01 0a
        E 63 b5 01 09
        E 63 b5 01 07
        E 63 b5 01 07
        E 63 b5 01 05
        E 63 b5 01 04
        E 63 b5 01 03
        E 63 b5 01 02
        E 63 b5 01 02
        E 63 b5 01 01
        E 63 b5 01 00
        E 63 b5 01 00
        E 63 b5 01 00
        E 63 b5 01 00
        E 63 b5 01 00
        E 63 b5 01 00
        E 63 b5 01 00
        E 63 b5 01 00
        E 63 b5 01 00
        E 63 b5 01 01
        E 63 b5 01 02
        E 63 b5 01 02
        E 63 b5 01 03
        E 63 b5 01 04
        E 63 b5 01 04
        E 63 b5 01 06
        E 63 b5 01 07
        E 63 b5 01 08
        E 63 b5 01 09
        E 63 b5 01 0b
        E 63 b5 01 0c
        E 63 b5 01 0e
        E 63 b5 01 10
        E 63 b5 01 11
        E 63 b5 01 13
        E 63 b5 01 15
        E 63 b5 01 17
        E 63 b5 01 19
        E 63 b5 01 1b
        E 63 b5 01 1d
        E 63 b5 01 1f
        E 63 b5 01 21
        E 63 b5 01 23
        E 63 b5 01 25
        E 63 b5 01 27
        E 63 b5 01 2a
        E 63 b5 01 2c
        E 71 b5 01 13
        E 71 b5 01 14
        E 71 b5 01 15
        E 71 b5 01 15
        E 71 b5 01 16
        E 71 b5 01 17
        E 71 b5 01 18
        E 71 b5 01 19
        E 71 b5 01 1a
        E 71 b5 01 1b
        E 71 b5 01 1c
        E 71 b5 01 1c
        E 71 b5 01 1d
        E 71 b5 01 1e
        E 71 b5 01 1f
        E 71 b5 01 1f
        E 71 b5 01 20
        E 71 b5 01 21
        E 71 b5 01 21
        E 71 b5 01 22
        E 71 b5 01 23
        E 71 b5 01 23
        E 71 b5 01 24
        E 71 b5 01 24
        E 71 b5 01 24
        E 71 b5 01 24
        E 71 b5 01 25
        E 71 b5 01 25
        E 71 b5 01 25
        E 71 b5 01 25
        E 71 b5 01 26
        E 71 b5 01 26
        E 71 b5 01 26
        E 71 b5 01 26
        E 71 b5 01 26
        E 71 b5 01 25
        E 71 b5 01 25
        E 71 b5 01 25
        E 71 b5 01 25
        E 71 b5 01 24
        E 71 b5 01 24
        E 71 b5 01 24
        E 71 b5 01 23
        E 71 b5 01 23
        E 71 b5 01 22
        E 71 b5 01 22
        E 71 b5 01 21
        E 71 b5 01 21
        E 71 b5 01 20
        E 71 b5 01 1f
        E 71 b5 01 1e
        E 71 b5 01 1e
        E 71 b5 01 1d
        E 71 b5 01 1c
        E 71 b5 01 1b
        E 71 b5 01 1a
        E 71 b5 01 1a
        E 71 b5 01 19
        E 71 b5 01 18
        E 71 b5 01 17
        E 71 b5 01 16
        E 71 b5 01 15
        E 71 b5 01 14
        E 71 b5 01 13
        E 71 b5 01 12
        E 71 b5 01 11
        E 71 b5 01 10
        E 71 b5 01 0f
        E 71 b5 01 0e
        E 71 b5 01 0d
        E 71 b5 01 0c
        E 71 b5 01 0c
        E 71 b5 01 0b
        E 71 b5 01 0a
        E 71 b5 01 09
        E 71 b5 01 08
        E 71 b5 01 08
        E 71 b5 01 07
        E 71 b5 01 06
        E 71 b5 01 05
        E 71 b5 01 05
        E 71 b5 01 04
        E 71 b5 01 03
        E 71 b5 01 03
        E 71 b5 01 03
        E 71 b5 01 02
        E 71 b5 01 02
        E 71 b5 01 01
        E 71 b5 01 01
        E 71 b5 01 00
        E 71 b5 01 00
        E 71 b5 01 00
        E 71 b5 01 00
        E 71 b5 01 00
        E 71 b5 01 00
        E 71 b5 01 00
        E 71 b5 01 00
        E 71 b5 01 00
        E 71 b5 01 00
        E 71 b5 01 00
        E 71 b5 01 00
        E 71 b5 01 00
        E 71 b5 01 01
        E 71 b5 01 01
        E 71 b5 01 01
        E 71 b5 01 02
        E 71 b5 01 02
        E 71 b5 01 03
        E 71 b5 01 03
        E 71 b5 01 04
        E 71 b5 01 04
        E 71 b5 01 05
        E 71 b5 01 06
        E 71 b5 01 06
        E 71 b5 01 07
        E 71 b5 01 08
        E 71 b5 01 09
        E 71 b5 01 09
        E 71 b5 01 0a
        E 71 b5 01 0b
        E 71 b5 01 0c
        E 71 b5 01 0d
        E 71 b5 01 0e
        E 71 b5 01 0f
        E 71 b5 01 10
        E 71 b5 01 11
        E 71 b5 01 12
        E 71 b5 01 13
        E 23 b5 01 26
        E 23 b5 01 28
        E 23 b5 01 2a
        E 23 b5 01 2b
        E 23 b5 01 2d
        E 23 b5 01 2f
        E 23 b5 01 31
        E 23 b5 01 33
        E 23 b5 01 34
        E 23 b5 01 36
        E 23 b5 01 38
        E 23 b5 01 39
        E 23 b5 01 3b
        E 23 b5 01 3d
        E 23 b5 01 3e
        E 23 b5 01 3f
        E 23 b5 01 41
        E 23 b5 01 42
        E 23 b5 01 43
        E 23 b5 01 45
        E 23 b5 01 46
        E 23 b5 01 46
        E 23 b5 01 48
        E 23 b5 01 48
        E 23 b5 01 49
        E 23 b5 01 49
        E 23 b5 01 4a
        E 23 b5 01 4b
        E 23 b5 01 4b
        E 23 b5 01 4b
        E 23 b5 01 4c
        E 23 b5 01 4c
        E 23 b5 01 4c
        E 23 b5 01 4c
        E 23 b5 01 4c
        E 23 b5 01 4b
        E 23 b5 01 4b
        E 23 b5 01 4b
        E 23 b5 01 4a
        E 23 b5 01 49
        E 23 b5 01 49
        E 23 b5 01 48
        E 23 b5 01 47
        E 23 b5 01 46
        E 23 b5 01 45
        E 23 b5 01 44
        E 23 b5 01 43
        E 23 b5 01 42
        E 23 b5 01 40
        E 23 b5 01 3f
        E 23 b5 01 3d
        E 23 b5 01 3c
        E 23 b5 01 3a
        E 23 b5 01 39
        E 23 b5 01 37
        E 23 b5 01 35
        E 23 b5 01 34
        E 23 b5 01 32
        E 23 b5 01 30
        E 23 b5 01 2e
        E 23 b5 01 2c
        E 23 b5 01 2a
        E 23 b5 01 28
        E 23 b5 01 27
        E 23 b5 01 25
        E 23 b5 01 23
        E 23 b5 01 21
        E 23 b5 01 1f
        E 23 b5 01 1d
        E 23 b5 01 1b
        E 23 b5 01 19
        E 23 b5 01 18
        E 23 b5 01 16
        E 23 b5 01 15
        E 23 b5 01 13
        E 23 b5 01 11
        E 23 b5 01 10
        E 23 b5 01 0e
        E 23 b5 01 0d
        E 23 b5 01 0b
        E 23 b5 01 0a
        E 23 b5 01 09
        E 23 b5 01 07
        E 23 b5 01 06
        E 23 b5 01 06
        E 23 b5 01 04
        E 23 b5 01 04
        E 23 b5 01 03
        E 23 b5 01 02
        E 23 b5 01 01
        E 23 b5 01 01
        E 23 b5 01 00
        E 23 b5 01 00
        E 23 b5 01 00
        E 23 b5 01 00
        E 23 b5 01 00
        E 23 b5 01 00
        E 23 b5 01 00
        E 23 b5 01 00
        E 23 b5 01 00
        E 23 b5 01 01
        E 23 b5 01 01
        E 23 b5 01 02
        E 23 b5 01 03
        E 23 b5 01 03
        E 23 b5 01 04
        E 23 b5 01 05
        E 23 b5 01 06
        E 23 b5 01 07
        E 23 b5 01 08
        E 23 b5 01 09
        E 23 b5 01 0a
        E 23 b5 01 0c
        E 23 b5 01 0d
        E 23 b5 01 0f
        E 23 b5 01 10
        E 23 b5 01 12
        E 23 b5 01 13
        E 23 b5 01 15
        E 23 b5 01 17
        E 23 b5 01 19
        E 23 b5 01 1b
        E 23 b5 01 1c
        E 23 b5 01 1e
        E 23 b5 01 20
        E 23 b5 01 22
        E 23 b5 01 24
        E 23 b5 01 26
        E 63 b5 01 39
        E 63 b5 01 3c
        E 63 b5 01 3f
        E 63 b5 01 41
        E 63 b5 01 44
        E 63 b5 01 47
        E 63 b5 01 49
        E 63 b5 01 4c
        E 63 b5 01 4f
        E 63 b5 01 51
        E 63 b5 01 54
        E 63 b5 01 56
        E 63 b5 01 59
        E 63 b5 01 5b
        E 63 b5 01 5d
        E 63 b5 01 5f
        E 63 b5 01 62
        E 63 b5 01 63
        E 63 b5 01 65
        E 63 b5 01 67
        E 63 b5 01 69
        E 63 b5 01 6a
        E 63 b5 01 6c
        E 63 b5 01 6c
        E 63 b5 01 6d
        E 63 b5 01 6e
        E 63 b5 01 6f
        E 63 b5 01 70
        E 63 b5 01 71
        E 63 b5 01 71
        E 63 b5 01 72
        E 63 b5 01 72
        E 63 b5 01 72
        E 63 b5 01 72
        E 63 b5 01 72
        E 63 b5 01 71
        E 63 b5 01 71
        E 63 b5 01 70
        E 63 b5 01 6f
        E 63 b5 01 6e
        E 63 b5 01 6d
        E 63 b5 01 6c
        E 63 b5 01 6b
        E 63 b5 01 69
        E 63 b5 01 68
        E 63 b5 01 66
        E 63 b5 01 64
        E 63 b5 01 63
        E 63 b5 01 61
        E 63 b5 01 5e
        E 63 b5 01 5c
        E 63 b5 01 5a
        E 63 b5 01 58
        E 63 b5 01 55
        E 63 b5 01 52
        E 63 b5 01 50
        E 63 b5 01 4e
        E 63 b5 01 4b
        E 63 b5 01 48
        E 63 b5 01 46
        E 63 b5 01 42
        E 63 b5 01 3f
        E 63 b5 01 3d
        E 63 b5 01 3a
        E 63 b5 01 37
        E 63 b5 01 35
        E 63 b5 01 32
        E 63 b5 01 2f
        E 63 b5 01 2c
        E 63 b5 01 29
        E 63 b5 01 26
        E 63 b5 01 24
        E 63 b5 01 22
        E 63 b5 01 1f
        E 63 b5 01 1c
        E 63 b5 01 1a
        E 63 b5 01 18
        E 63 b5 01 15
        E 63 b5 01 13
        E 63 b5 01 11
        E 63 b5 01 0f
        E 63 b5 01 0d
        E 63 b5 01 0b
        E 63 b5 01 09
        E 63 b5 01 09
        E 63 b5 01 07
        E 63 b5 01 06
        E 63 b5 01 04
        E 63 b5 01 03
        E 63 b5 01 02
        E 63 b5 01 01
        E 63 b5 01 00
        E 63 b5 01 00
        E 63 b5 01 00
        E 63 b5 01 00
        E 63 b5 01 00
        E 63 b5 01 00
        E 63 b5 01 00
        E 63 b5 01 00
        E 63 b5 01 00
        E 63 b5 01 01
        E 63 b5 01 02
        E 63 b5 01 03
        E 63 b5 01 04
        E 63 b5 01 05
        E 63 b5 01 06
        E 63 b5 01 08
        E 63 b5 01 09
        E 63 b5 01 0a
        E 63 b5 01 0c
        E 63 b5 01 0e
        E 63 b5 01 10
        E 63 b5 01 12
        E 63 b5 01 14
        E 63 b5 01 16
        E 63 b5 01 19
        E 63 b5 01 1b
        E 63 b5 01 1d
        E 63 b5 01 20
        E 63 b5 01 23
        E 63 b5 01 25
        E 63 b5 01 28
        E 63 b5 01 2b
        E 63 b5 01 2d
        E 63 b5 01 30
        E 63 b5 01 33
        E 63 b5 01 36
        E 63 b5 01 39
        E 7 b5 01 19
        E 7 b5 01 1a
        E 7 b5 01 1c
        E 7 b5 01 1d
        E 7 b5 01 1e
        E 7 b5 01 1f
        E 7 b5 01 20
        E 7 b5 01 22
        E 7 b5 01 23
        E 7 b5 01 24
        E 7 b5 01 25
        E 7 b5 01 26
        E 7 b5 01 27
        E 7 b5 01 28
        E 7 b5 01 29
        E 7 b5 01 2a
        E 7 b5 01 2b
        E 7 b5 01 2c
        E 7 b5 01 2d
        E 7 b5 01 2e
        E 7 b5 01 2e
        E 7 b5 01 2f
        E 7 b5 01 30
        E 7 b5 01 30
        E 7 b5 01 30
        E 7 b5 01 31
        E 7 b5 01 31
        E 7 b5 01 32
        E 7 b5 01 32
        E 7 b5 01 32
        E 7 b5 01 32
        E 7 b5 01 32
        E 7 b5 01 32
        E 7 b5 01 32
        E 7 b5 01 32
        E 7 b5 01 32
        E 7 b5 01 32
        E 7 b5 01 32
        E 7 b5 01 31
        E 7 b5 01 31
        E 7 b5 01 30
        E 7 b5 01 30
        E 7 b5 01 2f
        E 7 b5 01 2e
        E 7 b5 01 2e
        E 7 b5 01 2d
        E 7 b5 01 2c
        E 7 b5 01 2c
        E 7 b5 01 2b
        E 7 b5 01 2a
        E 7 b5 01 29
        E 7 b5 01 28
        E 7 b5 01 27
        E 7 b5 01 26
        E 7 b5 01 24
        E 7 b5 01 23
        E 7 b5 01 22
        E 7 b5 01 21
        E 7 b5 01 20
        E 7 b5 01 1f
        E 7 b5 01 1d
        E 7 b5 01 1c
        E 7 b5 01 1b
        E 7 b5 01 1a
        E 7 b5 01 18
        E 7 b5 01 17
        E 7 b5 01 16
        E 7 b5 01 15
        E 7 b5 01 13
        E 7 b5 01 12
        E 7 b5 01 11
        E 7 b5 01 10
        E 7 b5 01 0f
        E 7 b5 01 0e
        E 7 b5 01 0c
        E 7 b5 01 0b
        E 7 b5 01 0a
        E 7 b5 01 09
        E 7 b5 01 08
        E 7 b5 01 07
        E 7 b5 01 06
        E 7 b5 01 06
        E 7 b5 01 05
        E 7 b5 01 04
        E 7 b5 01 04
        E 7 b5 01 03
        E 7 b5 01 02
        E 7 b5 01 02
        E 7 b5 01 01
        E 7 b5 01 01
        E 7 b5 01 00
        E 7 b5 01 00
        E 7 b5 01 00
        E 7 b5 01 00
        E 7 b5 01 00
        E 7 b5 01 00
        E 7 b5 01 00
        E 7 b5 01 00
        E 7 b5 01 00
        E 7 b5 01 00
        E 7 b5 01 00
        E 7 b5 01 01
        E 7 b5 01 01
        E 7 b5 01 02
        E 7 b5 01 02
        E 7 b5 01 02
        E 7 b5 01 03
        E 7 b5 01 04
        E 7 b5 01 04
        E 7 b5 01 05
        E 7 b5 01 06
        E 7 b5 01 07
        E 7 b5 01 08
        E 7 b5 01 09
        E 7 b5 01 0a
        E 7 b5 01 0b
        E 7 b5 01 0c
        E 7 b5 01 0d
        E 7 b5 01 0e
        E 7 b5 01 0f
        E 7 b5 01 10
        E 7 b5 01 12
        E 7 b5 01 13
        E 7 b5 01 14
        E 7 b5 01 15
        E 7 b5 01 16
        E 7 b5 01 18
        E 7 b5 01 19
        E 71 b5 01 13
        E 71 b5 01 14
        E 71 b5 01 15
        E 71 b5 01 15
        E 71 b5 01 16
        E 71 b5 01 17
        E 71 b5 01 18
        E 71 b5 01 19
        E 71 b5 01 1a
        E 71 b5 01 1b
        E 71 b5 01 1c
        E 71 b5 01 1c
        E 71 b5 01 1d
        E 71 b5 01 1e
        E 71 b5 01 1f
        E 71 b5 01 1f
        E 71 b5 01 20
        E 71 b5 01 21
        E 71 b5 01 21
        E 71 b5 01 22
        E 71 b5 01 23
        E 71 b5 01 23
        E 71 b5 01 24
        E 71 b5 01 24
        E 71 b5 01 24
        E 71 b5 01 24
        E 71 b5 01 25
        E 71 b5 01 25
        E 71 b5 01 25
        E 71 b5 01 25
        E 71 b5 01 26
        E 71 b5 01 26
        E 71 b5 01 26
        E 71 b5 01 26
        E 71 b5 01 26
        E 71 b5 01 25
        E 71 b5 01 25
        E 71 b5 01 25
        E 71 b5 01 25
        E 71 b5 01 24
        E 71 b5 01 24
        E 71 b5 01 24
        E 71 b5 01 23
        E 71 b5 01 23
        E 71 b5 01 22
        E 71 b5 01 22
        E 71 b5 01 21
        E 71 b5 01 21
        E 71 b5 01 20
        E 71 b5 01 1f
        E 71 b5 01 1e
        E 71 b5 01 1e
        E 71 b5 01 1d
        E 71 b5 01 1c
        E 71 b5 01 1b
        E 71 b5 01 1a
        E 71 b5 01 1a
        E 71 b5 01 19
        E 71 b5 01 18
        E 71 b5 01 17
        E 71 b5 01 16
        E 71 b5 01 15
        E 71 b5 01 14
        E 71 b5 01 13
        E 71 b5 01 12
        E 71 b5 01 11
        E 71 b5 01 10
        E 71 b5 01 0f
        E 71 b5 01 0e
        E 71 b5 01 0d
        E 71 b5 01 0c
        E 71 b5 01 0c
        E 71 b5 01 0b
        E 71 b5 01 0a
        E 71 b5 01 09
        E 71 b5 01 08
        E 71 b5 01 08
        E 71 b5 01 07
        E 71 b5 01 06
        E 71 b5 01 05
        E 71 b5 01 05
        E 71 b5 01 04
        E 71 b5 01 03
        E 71 b5 01 03
        E 71 b5 01 03
        E 71 b5 01 02
        E 71 b5 01 02
        E 71 b5 01 01
        E 71 b5 01 01
        E 71 b5 01 00
        E 71 b5 01 00
        E 71 b5 01 00
        E 71 b5 01 00
        E 71 b5 01 00
        E 71 b5 01 00
        E 71 b5 01 00
        E 71 b5 01 00
        E 71 b5 01 00
        E 71 b5 01 00
        E 71 b5 01 00
        E 71 b5 01 00
        E 71 b5 01 00
        E 71 b5 01 01
        E 71 b5 01 01
        E 71 b5 01 01
        E 71 b5 01 02
        E 71 b5 01 02
        E 71 b5 01 03
        E 71 b5 01 03
        E 71 b5 01 04
        E 71 b5 01 04
        E 71 b5 01 05
        E 71 b5 01 06
        E 71 b5 01 06
        E 71 b5 01 07
        E 71 b5 01 08
        E 71 b5 01 09
        E 71 b5 01 09
        E 71 b5 01 0a
        E 71 b5 01 0b
        E 71 b5 01 0c
        E 71 b5 01 0d
        E 71 b5 01 0e
        E 71 b5 01 0f
        E 71 b5 01 10
        E 71 b5 01 11
        E 71 b5 01 12
        E 71 b5 01 13
        E 23 b5 01 26
        E 23 b5 01 28
        E 23 b5 01 2a
        E 23 b5 01 2b
        E 23 b5 01 2d
        E 23 b5 01 2f
        E 23 b5 01 31
        E 23 b5 01 33
        E 23 b5 01 34
        E 23 b5 01 36
        E 23 b5 01 38
        E 23 b5 01 39
        E 23 b5 01 3b
        E 23 b5 01 3d
        E 23 b5 01 3e
        E 23 b5 01 3f
        E 23 b5 01 41
        E 23 b5 01 42
        E 23 b5 01 43
        E 23 b5 01 45
        E 23 b5 01 46
        E 23 b5 01 46
        E 23 b5 01 48
        E 23 b5 01 48
        E 23 b5 01 49
        E 23 b5 01 49
        E 23 b5 01 4a
        E 23 b5 01 4b
        E 23 b5 01 4b
        E 23 b5 01 4b
        E 23 b5 01 4c
        E 23 b5 01 4c
        E 23 b5 01 4c
        E 23 b5 01 4c
        E 23 b5 01 4c
        E 23 b5 01 4b
        E 23 b5 01 4b
        E 23 b5 01 4b
        E 23 b5 01 4a
        E 23 b5 01 49
        E 23 b5 01 49
        E 23 b5 01 48
        E 23 b5 01 47
        E 23 b5 01 46
        E 23 b5 01 45
        E 23 b5 01 44
        E 23 b5 01 43
        E 23 b5 01 42
        E 23 b5 01 40
        E 23 b5 01 3f
        E 23 b5 01 3d
        E 23 b5 01 3c
        E 23 b5 01 3a
        E 23 b5 01 39
        E 23 b5 01 37
        E 23 b5 01 35
        E 23 b5 01 34
        E 23 b5 01 32
        E 23 b5 01 30
        E 23 b5 01 2e
        E 23 b5 01 2c
        E 23 b5 01 2a
        E 23 b5 01 28
        E 23 b5 01 27
        E 23 b5 01 25
        E 23 b5 01 23
        E 23 b5 01 21
        E 23 b5 01 1f
        E 23 b5 01 1d
        E 23 b5 01 1b
        E 23 b5 01 19
        E 23 b5 01 18
        E 23 b5 01 16
        E 23 b5 01 15
        E 23 b5 01 13
        E 23 b5 01 11
        E 23 b5 01 10
        E 23 b5 01 0e
        E 23 b5 01 0d
        E 23 b5 01 0b
        E 23 b5 01 0a
        E 23 b5 01 09
        E 23 b5 01 07
        E 23 b5 01 06
        E 23 b5 01 06
        E 23 b5 01 04
        E 23 b5 01 04
        E 23 b5 01 03
        E 23 b5 01 02
        E 23 b5 01 01
        E 23 b5 01 01
        E 23 b5 01 00
        E 23 b5 01 00
        E 23 b5 01 00
        E 23 b5 01 00
        E 23 b5 01 00
        E 23 b5 01 00
        E 23 b5 01 00
        E 23 b5 01 00
        E 23 b5 01 00
        E 23 b5 01 01
        E 23 b5 01 01
        E 23 b5 01 02
        E 23 b5 01 03
        E 23 b5 01 03
        E 23 b5 01 04
        E 23 b5 01 05
        E 23 b5 01 06
        E 23 b5 01 07
        E 23 b5 01 08
        E 23 b5 01 09
        E 23 b5 01 0a
        E 23 b5 01 0c
        E 23 b5 01 0d
        E 23 b5 01 0f
        E 23 b5 01 10
        E 23 b5 01 12
        E 23 b5 01 13
        E 23 b5 01 15
        E 23 b5 01 17
        E 23 b5 01 19
        E 23 b5 01 1b
        E 23 b5 01 1c
        E 23 b5 01 1e
        E 23 b5 01 20
        E 23 b5 01 22
        E 23 b5 01 24
        E 23 b5 01 26
        E 63 b5 01 39
        E 63 b5 01 3c
        E 63 b5 01 3f
        E 63 b5 01 41
        E 63 b5 01 44
        E 63 b5 01 47
        E 63 b5 01 49
        E 63 b5 01 4c
        E 63 b5 01 4f
        E 63 b5 01 51
        E 63 b5 01 54
        E 63 b5 01 56
        E 63 b5 01 59
        E 63 b5 01 5b
        E 63 b5 01 5d
        E 63 b5 01 5f
        E 63 b5 01 62
        E 63 b5 01 63
        E 63 b5 01 65
        E 63 b5 01 67
        E 63 b5 01 69
        E 63 b5 01 6a
        E 63 b5 01 6c
        E 63 b5 01 6c
        E 63 b5 01 6d
        E 63 b5 01 6e
        E 63 b5 01 6f
        E 63 b5 01 70
        E 63 b5 01 71
        E 63 b5 01 71
        E 63 b5 01 72
        E 63 b5 01 72
        E 63 b5 01 72
        E 63 b5 01 72
        E 63 b5 01 72
        E 63 b5 01 71
        E 63 b5 01 71
        E 63 b5 01 70
        E 63 b5 01 6f
        E 63 b5 01 6e
        E 63 b5 01 6d
        E 63 b5 01 6c
        E 63 b5 01 6b
        E 63 b5 01 69
        E 63 b5 01 68
        E 63 b5 01 66
        E 63 b5 01 64
        E 63 b5 01 63
        E 63 b5 01 61
        E 63 b5 01 5e
        E 63 b5 01 5c
        E 63 b5 01 5a
        E 63 b5 01 58
        E 63 b5 01 55
        E 63 b5 01 52
        E 63 b5 01 50
        E 63 b5 01 4e
        E 63 b5 01 4b
        E 63 b5 01 48
        E 63 b5 01 46
        E 63 b5 01 42
        E 63 b5 01 3f
        E 63 b5 01 3d
        E 63 b5 01 3a
        E 63 b5 01 37
        E 63 b5 01 35
        E 63 b5 01 32
        E 63 b5 01 2f
        E 63 b5 01 2c
        E 63 b5 01 29
        E 63 b5 01 26
        E 63 b5 01 24
        E 63 b5 01 22
        E 63 b5 01 1f
        E 63 b5 01 1c
        E 63 b5 01 1a
        E 63 b5 01 18
        E 63 b5 01 15
        E 63 b5 01 13
        E 63 b5 01 11
        E 63 b5 01 0f
        E 63 b5 01 0d
        E 63 b5 01 0b
        E 63 b5 01 09
        E 63 b5 01 09
        E 63 b5 01 07
        E 63 b5 01 06
        E 63 b5 01 04
        E 63 b5 01 03
        E 63 b5 01 02
        E 63 b5 01 01
        E 63 b5 01 00
        E 63 b5 01 00
        E 63 b5 01 00
        E 63 b5 01 00
        E 63 b5 01 00
        E 63 b5 01 00
        E 63 b5 01 00
        E 63 b5 01 00
        E 63 b5 01 00
        E 63 b5 01 01
        E 63 b5 01 02
        E 63 b5 01 03
        E 63 b5 01 04
        E 63 b5 01 05
        E 63 b5 01 06
        E 63 b5 01 08
        E 63 b5 01 09
        E 63 b5 01 0a
        E 63 b5 01 0c
        E 63 b5 01 0e
        E 63 b5 01 10
        E 63 b5 01 12
        E 63 b5 01 14
        E 63 b5 01 16
        E 63 b5 01 19
        E 63 b5 01 1b
        E 63 b5 01 1d
        E 63 b5 01 20
        E 63 b5 01 23
        E 63 b5 01 25
        E 63 b5 01 28
        E 63 b5 01 2b
        E 63 b5 01 2d
        E 63 b5 01 30
        E 63 b5 01 33
        E 63 b5 01 36
        E 63 b5 01 39
        E 7 b5 01 19
        E 7 b5 01 1a
        E 7 b5 01 1c
        E 7 b5 01 1d
        E 7 b5 01 1e
        E 7 b5 01 1f
        E 7 b5 01 20
        E 7 b5 01 22
        E 7 b5 01 23
        E 7 b5 01 24
        E 7 b5 01 25
        E 7 b5 01 26
        E 7 b5 01 27
        E 7 b5 01 28
        E 7 b5 01 29
        E 7 b5 01 2a
        E 7 b5 01 2b
        E 7 b5 01 2c
        E 7 b5 01 2d
        E 7 b5 01 2e
        E 7 b5 01 2e
        E 7 b5 01 2f
        E 7 b5 01 30
        E 7 b5 01 30
        E 7 b5 01 30
        E 7 b5 01 31
        E 7 b5 01 31
        E 7 b5 01 32
        E 7 b5 01 32
        E 7 b5 01 32
        E 7 b5 01 32
        E 7 b5 01 32
        E 7 b5 01 32
        E 7 b5 01 32
        E 7 b5 01 32
        E 7 b5 01 32
        E 7 b5 01 32
        E 7 b5 01 32
        E 7 b5 01 31
        E 7 b5 01 31
        E 7 b5 01 30
        E 7 b5 01 30
        E 7 b5 01 2f
        E 7 b5 01 2e
        E 7 b5 01 2e
        E 7 b5 01 2d
        E 7 b5 01 2c
        E 7 b5 01 2c
        E 7 b5 01 2b
        E 7 b5 01 2a
        E 7 b5 01 29
        E 7 b5 01 28
        E 7 b5 01 27
        E 7 b5 01 26
        E 7 b5 01 24
        E 7 b5 01 23
        E 7 b5 01 22
        E 7 b5 01 21
        E 7 b5 01 20
        E 7 b5 01 1f
        E 7 b5 01 1d
        E 7 b5 01 1c
        E 7 b5 01 1b
        E 7 b5 01 1a
        E 7 b5 01 18
        E 7 b5 01 17
        E 7 b5 01 16
        E 7 b5 01 15
        E 7 b5 01 13
        E 7 b5 01 12
        E 7 b5 01 11
        E 7 b5 01 10
        E 7 b5 01 0f
        E 7 b5 01 0e
        E 7 b5 01 0c
        E 7 b5 01 0b
        E 7 b5 01 0a
        E 7 b5 01 09
        E 7 b5 01 08
        E 7 b5 01 07
        E 7 b5 01 06
        E 7 b5 01 06
        E 7 b5 01 05
        E 7 b5 01 04
        E 7 b5 01 04
        E 7 b5 01 03
        E 7 b5 01 02
        E 7 b5 01 02
        E 7 b5 01 01
        E 7 b5 01 01
        E 7 b5 01 00
        E 7 b5 01 00
        E 7 b5 01 00
        E 7 b5 01 00
        E 7 b5 01 00
        E 7 b5 01 00
        E 7 b5 01 00
        E 7 b5 01 00
        E 7 b5 01 00
        E 7 b5 01 00
        E 7 b5 01 00
        E 7 b5 01 01
        E 7 b5 01 01
        E 7 b5 01 02
        E 7 b5 01 02
        E 7 b5 01 02
        E 7 b5 01 03
        E 7 b5 01 04
        E 7 b5 01 04
        E 7 b5 01 05
        E 7 b5 01 06
        E 7 b5 01 07
        E 7 b5 01 08
        E 7 b5 01 09
        E 7 b5 01 0a
        E 7 b5 01 0b
        E 7 b5 01 0c
        E 7 b5 01 0d
        E 7 b5 01 0e
        E 7 b5 01 0f
        E 7 b5 01 10
        E 7 b5 01 12
        E 7 b5 01 13
        E 7 b5 01 14
        E 7 b5 01 15
        E 7 b5 01 16
        E 7 b5 01 18
        E 7 b5 01 19
        E 71 b5 01 06
        E 71 b5 01 06
        E 71 b5 01 07
        E 71 b5 01 07
        E 71 b5 01 07
        E 71 b5 01 07
        E 71 b5 01 08
        E 71 b5 01 08
        E 71 b5 01 08
        E 71 b5 01 09
        E 71 b5 01 09
        E 71 b5 01 09
        E 71 b5 01 09
        E 71 b5 01 0a
        E 71 b5 01 0a
        E 71 b5 01 0a
        E 71 b5 01 0a
        E 71 b5 01 0b
        E 71 b5 01 0b
        E 71 b5 01 0b
        E 71 b5 01 0b
        E 71 b5 01 0b
        E 71 b5 01 0c
        E 71 b5 01 0c
        E 71 b5 01 0c
        E 71 b5 01 0c
        E 71 b5 01 0c
        E 71 b5 01 0c
        E 71 b5 01 0c
        E 71 b5 01 0c
        E 71 b5 01 0c
        E 71 b5 01 0c
        E 71 b5 01 0c
        E 71 b5 01 0c
        E 71 b5 01 0c
        E 71 b5 01 0c
        E 71 b5 01 0c
        E 71 b5 01 0c
        E 71 b5 01 0c
        E 71 b5 01 0c
        E 71 b5 01 0c
        E 71 b5 01 0c
        E 71 b5 01 0b
        E 71 b5 01 0b
        E 71 b5 01 0b
        E 71 b5 01 0b
        E 71 b5 01 0b
        E 71 b5 01 0b
        E 71 b5 01 0a
        E 71 b5 01 0a
        E 71 b5 01 0a
        E 71 b5 01 0a
        E 71 b5 01 09
        E 71 b5 01 09
        E 71 b5 01 09
        E 71 b5 01 08
        E 71 b5 01 08
        E 71 b5 01 08
        E 71 b5 01 08
        E 71 b5 01 07
        E 71 b5 01 07
        E 71 b5 01 07
        E 71 b5 01 06
        E 71 b5 01 06
        E 71 b5 01 06
        E 71 b5 01 05
        E 71 b5 01 05
        E 71 b5 01 05
        E 71 b5 01 04
        E 71 b5 01 04
        E 71 b5 01 04
        E 71 b5 01 04
        E 71 b5 01 03
        E 71 b5 01 03
        E 71 b5 01 03
        E 71 b5 01 02
        E 71 b5 01 02
        E 71 b5 01 02
        E 71 b5 01 02
        E 71 b5 01 01
        E 71 b5 01 01
        E 71 b5 01 01
        E 71 b5 01 01
        E 71 b5 01 01
        E 71 b5 01 01
        E 71 b5 01 00
        E 71 b5 01 00
        E 71 b5 01 00
        E 71 b5 01 00
        E 71 b5 01 00
        E 71 b5 01 00
        E 71 b5 01 00
        E 71 b5 01 00
        E 71 b5 01 00
        E 71 b5 01 00
        E 71 b5 01 00
        E 71 b5 01 00
        E 71 b5 01 00
        E 71 b5 01 00
        E 71 b5 01 00
        E 71 b5 01 00
        E 71 b5 01 00
        E 71 b5 01 00
        E 71 b5 01 00
        E 71 b5 01 00
        E 71 b5 01 00
        E 71 b5 01 00
        E 71 b5 01 01
        E 71 b5 01 01
        E 71 b5 01 01
        E 71 b5 01 01
        E 71 b5 01 01
        E 71 b5 01 02
        E 71 b5 01 02
        E 71 b5 01 02
        E 71 b5 01 02
        E 71 b5 01 03
        E 71 b5 01 03
        E 71 b5 01 03
        E 71 b5 01 03
        E 71 b5 01 04
        E 71 b5 01 04
        E 71 b5 01 04
        E 71 b5 01 05
        E 71 b5 01 05
        E 71 b5 01 05
        E 71 b5 01 06
        E 71 b5 01 06
        E 63 b5 01 2c
        E 63 b5 01 2e
        E 63 b5 01 31
        E 63 b5 01 33
        E 63 b5 01 35
        E 63 b5 01 37
        E 63 b5 01 39
        E 63 b5 01 3b
        E 63 b5 01 3d
        E 63 b5 01 3f
        E 63 b5 01 41
        E 63 b5 01 43
        E 63 b5 01 45
        E 63 b5 01 47
        E 63 b5 01 48
        E 63 b5 01 4a
        E 63 b5 01 4c
        E 63 b5 01 4d
        E 63 b5 01 4f
        E 63 b5 01 50
        E 63 b5 01 51
        E 63 b5 01 52
        E 63 b5 01 54
        E 63 b5 01 54
        E 63 b5 01 55
        E 63 b5 01 56
        E 63 b5 01 56
        E 63 b5 01 57
        E 63 b5 01 58
        E 63 b5 01 58
        E 63 b5 01 58
        E 63 b5 01 58
        E 63 b5 01 58
        E 63 b5 01 58
        E 63 b5 01 58
        E 63 b5 01 58
        E 63 b5 01 58
        E 63 b5 01 57
        E 63 b5 01 56
        E 63 b5 01 56
        E 63 b5 01 55
        E 63 b5 01 54
        E 63 b5 01 53
        E 63 b5 01 51
        E 63 b5 01 51
        E 63 b5 01 4f
        E 63 b5 01 4e
        E 63 b5 01 4d
        E 63 b5 01 4b
        E 63 b5 01 49
        E 63 b5 01 48
        E 63 b5 01 46
        E 63 b5 01 44
        E 63 b5 01 42
        E 63 b5 01 40
        E 63 b5 01 3e
        E 63 b5 01 3c
        E 63 b5 01 3a
        E 63 b5 01 38
        E 63 b5 01 36
        E 63 b5 01 33
        E 63 b5 01 31
        E 63 b5 01 2f
        E 63 b5 01 2d
        E 63 b5 01 2b
        E 63 b5 01 29
        E 63 b5 01 27
        E 63 b5 01 25
        E 63 b5 01 22
        E 63 b5 01 20
        E 63 b5 01 1e
        E 63 b5 01 1c
        E 63 b5 01 1a
        E 63 b5 01 18
        E 63 b5 01 16
        E 63 b5 01 14
        E 63 b5 01 12
        E 63 b5 01 10
        E 63 b5 01 0f
        E 63 b5 01 0d
        E 63 b5 01 0b
        E 63 b5 01 0a
        E 63 b5 01 09
        E 63 b5 01 07
        E 63 b5 01 07
        E 63 b5 01 05
        E 63 b5 01 04
        E 63 b5 01 03
        E 63 b5 01 02
        E 63 b5 01 02
        E 63 b5 01 01
        E 63 b5 01 00
        E 63 b5 01 00
        E 63 b5 01 00
        E 63 b5 01 00
        E 63 b5 01 00
        E 63 b5 01 00
        E 63 b5 01 00
        E 63 b5 01 00
        E 63 b5 01 00
        E 63 b5 01 01
        E 63 b5 01 02
        E 63 b5 01 02
        E 63 b5 01 03
        E 63 b5 01 04
        E 63 b5 01 04
        E 63 b5 01 06
        E 63 b5 01 07
        E 63 b5 01 08
        E 63 b5 01 09
        E 63 b5 01 0b
        E 63 b5 01 0c
        E 63 b5 01 0e
        E 63 b5 01 10
        E 63 b5 01 11
        E 63 b5 01 13
        E 63 b5 01 15
        E 63 b5 01 17
        E 63 b5 01 19
        E 63 b5 01 1b
        E 63 b5 01 1d
        E 63 b5 01 1f
        E 63 b5 01 21
        E 63 b5 01 23
        E 63 b5 01 25
        E 63 b5 01 27
        E 63 b5 01 2a
        E 63 b5 01 2c
        E 71 b5 01 13
        E 71 b5 01 14
        E 71 b5 01 15
        E 71 b5 01 15
        E 71 b5 01 16
        E 71 b5 01 17
        E 71 b5 01 18
        E 71 b5 01 19
        E 71 b5 01 1a
        E 71 b5 01 1b
        E 71 b5 01 1c
        E 71 b5 01 1c
        E 71 b5 01 1d
        E 71 b5 01 1e
        E 71 b5 01 1f
        E 71 b5 01 1f
        E 71 b5 01 20
        E 71 b5 01 21
        E 71 b5 01 21
        E 71 b5 01 22
        E 71 b5 01 23
        E 71 b5 01 23
        E 71 b5 01 24
        E 71 b5 01 24
        E 71 b5 01 24
        E 71 b5 01 24
        E 71 b5 01 25
        E 71 b5 01 25
        E 71 b5 01 25
        E 71 b5 01 25
        E 71 b5 01 26
        E 71 b5 01 26
        E 71 b5 01 26
        E 71 b5 01 26
        E 71 b5 01 26
        E 71 b5 01 25
        E 71 b5 01 25
        E 71 b5 01 25
        E 71 b5 01 25
        E 71 b5 01 24
        E 71 b5 01 24
        E 71 b5 01 24
        E 71 b5 01 23
        E 71 b5 01 23
        E 71 b5 01 22
        E 71 b5 01 22
        E 71 b5 01 21
        E 71 b5 01 21
        E 71 b5 01 20
        E 71 b5 01 1f
        E 71 b5 01 1e
        E 71 b5 01 1e
        E 71 b5 01 1d
        E 71 b5 01 1c
        E 71 b5 01 1b
        E 71 b5 01 1a
        E 71 b5 01 1a
        E 71 b5 01 19
        E 71 b5 01 18
        E 71 b5 01 17
        E 71 b5 01 16
        E 71 b5 01 15
        E 71 b5 01 14
        E 71 b5 01 13
        E 71 b5 01 12
        E 71 b5 01 11
        E 71 b5 01 10
        E 71 b5 01 0f
        E 71 b5 01 0e
        E 71 b5 01 0d
        E 71 b5 01 0c
        E 71 b5 01 0c
        E 71 b5 01 0b
        E 71 b5 01 0a
        E 71 b5 01 09
        E 71 b5 01 08
        E 71 b5 01 08
        E 71 b5 01 07
        E 71 b5 01 06
        E 71 b5 01 05
        E 71 b5 01 05
        E 71 b5 01 04
        E 71 b5 01 03
        E 71 b5 01 03
        E 71 b5 01 03
        E 71 b5 01 02
        E 71 b5 01 02
        E 71 b5 01 01
        E 71 b5 01 01
        E 71 b5 01 00
        E 71 b5 01 00
        E 71 b5 01 00
        E 71 b5 01 00
        E 71 b5 01 00
        E 71 b5 01 00
        E 71 b5 01 00
        E 71 b5 01 00
        E 71 b5 01 00
        E 71 b5 01 00
        E 71 b5 01 00
        E 71 b5 01 00
        E 71 b5 01 00
        E 71 b5 01 01
        E 71 b5 01 01
        E 71 b5 01 01
        E 71 b5 01 02
        E 71 b5 01 02
        E 71 b5 01 03
        E 71 b5 01 03
        E 71 b5 01 04
        E 71 b5 01 04
        E 71 b5 01 05
        E 71 b5 01 06
        E 71 b5 01 06
        E 71 b5 01 07
        E 71 b5 01 08
        E 71 b5 01 09
        E 71 b5 01 09
        E 71 b5 01 0a
        E 71 b5 01 0b
        E 71 b5 01 0c
        E 71 b5 01 0d
        E 71 b5 01 0e
        E 71 b5 01 0f
        E 71 b5 01 10
        E 71 b5 01 11
        E 71 b5 01 12
        E 71 b5 01 13
        E 23 b5 01 26
        E 23 b5 01 28
        E 23 b5 01 2a
        E 23 b5 01 2b
        E 23 b5 01 2d
        E 23 b5 01 2f
        E 23 b5 01 31
        E 23 b5 01 33
        E 23 b5 01 34
        E 23 b5 01 36
        E 23 b5 01 38
        E 23 b5 01 39
        E 23 b5 01 3b
        E 23 b5 01 3d
        E 23 b5 01 3e
        E 23 b5 01 3f
        E 23 b5 01 41
        E 23 b5 01 42
        E 23 b5 01 43
        E 23 b5 01 45
        E 23 b5 01 46
        E 23 b5 01 46
        E 23 b5 01 48
        E 23 b5 01 48
        E 23 b5 01 49
        E 23 b5 01 49
        E 23 b5 01 4a
        E 23 b5 01 4b
        E 23 b5 01 4b
        E 23 b5 01 4b
        E 23 b5 01 4c
        E 23 b5 01 4c
        E 23 b5 01 4c
        E 23 b5 01 4c
        E 23 b5 01 4c
        E 23 b5 01 4b
        E 23 b5 01 4b
        E 23 b5 01 4b
        E 23 b5 01 4a
        E 23 b5 01 49
        E 23 b5 01 49
        E 23 b5 01 48
        E 23 b5 01 47
        E 23 b5 01 46
        E 23 b5 01 45
        E 23 b5 01 44
        E 23 b5 01 43
        E 23 b5 01 42
        E 23 b5 01 40
        E 23 b5 01 3f
        E 23 b5 01 3d
        E 23 b5 01 3c
        E 23 b5 01 3a
        E 23 b5 01 39
        E 23 b5 01 37
        E 23 b5 01 35
        E 23 b5 01 34
        E 23 b5 01 32
        E 23 b5 01 30
        E 23 b5 01 2e
        E 23 b5 01 2c
        E 23 b5 01 2a
        E 23 b5 01 28
        E 23 b5 01 27
        E 23 b5 01 25
        E 23 b5 01 23
        E 23 b5 01 21
        E 23 b5 01 1f
        E 23 b5 01 1d
        E 23 b5 01 1b
        E 23 b5 01 19
        E 23 b5 01 18
        E 23 b5 01 16
        E 23 b5 01 15
        E 23 b5 01 13
        E 23 b5 01 11
        E 23 b5 01 10
        E 23 b5 01 0e
        E 23 b5 01 0d
        E 23 b5 01 0b
        E 23 b5 01 0a
        E 23 b5 01 09
        E 23 b5 01 07
        E 23 b5 01 06
        E 23 b5 01 06
        E 23 b5 01 04
        E 23 b5 01 04
        E 23 b5 01 03
        E 23 b5 01 02
        E 23 b5 01 01
        E 23 b5 01 01
        E 23 b5 01 00
        E 23 b5 01 00
        E 23 b5 01 00
        E 23 b5 01 00
        E 23 b5 01 00
        E 23 b5 01 00
        E 23 b5 01 00
        E 23 b5 01 00
        E 23 b5 01 00
        E 23 b5 01 01
        E 23 b5 01 01
        E 23 b5 01 02
        E 23 b5 01 03
        E 23 b5 01 03
        E 23 b5 01 04
        E 23 b5 01 05
        E 23 b5 01 06
        E 23 b5 01 07
        E 23 b5 01 08
        E 23 b5 01 09
        E 23 b5 01 0a
        E 23 b5 01 0c
        E 23 b5 01 0d
        E 23 b5 01 0f
        E 23 b5 01 10
        E 23 b5 01 12
        E 23 b5 01 13
        E 23 b5 01 15
        E 23 b5 01 17
        E 23 b5 01 19
        E 23 b5 01 1b
        E 23 b5 01 1c
        E 23 b5 01 1e
        E 23 b5 01 20
        E 23 b5 01 22
        E 23 b5 01 24
        E 23 b5 01 26
        E 63 b5 01 39
        E 63 b5 01 3c
        E 63 b5 01 3f
        E 63 b5 01 41
        E 63 b5 01 44
        E 63 b5 01 47
        E 63 b5 01 49
        E 63 b5 01 4c
        E 63 b5 01 4f
        E 63 b5 01 51
        E 63 b5 01 54
        E 63 b5 01 56
        E 63 b5 01 59
        E 63 b5 01 5b
        E 63 b5 01 5d
        E 63 b5 01 5f
        E 63 b5 01 62
        E 63 b5 01 63
        E 63 b5 01 65
        E 63 b5 01 67
        E 63 b5 01 69
        E 63 b5 01 6a
        E 63 b5 01 6c
        E 63 b5 01 6c
        E 63 b5 01 6d
        E 63 b5 01 6e
        E 63 b5 01 6f
        E 63 b5 01 70
        E 63 b5 01 71
        E 63 b5 01 71
        E 63 b5 01 72
        E 63 b5 01 72
        E 63 b5 01 72
        E 63 b5 01 72
        E 63 b5 01 72
        E 63 b5 01 71
        E 63 b5 01 71
        E 63 b5 01 70
        E 63 b5 01 6f
        E 63 b5 01 6e
        E 63 b5 01 6d
        E 63 b5 01 6c
        E 63 b5 01 6b
        E 63 b5 01 69
        E 63 b5 01 68
        E 63 b5 01 66
        E 63 b5 01 64
        E 63 b5 01 63
        E 63 b5 01 61
        E 63 b5 01 5e
        E 63 b5 01 5c
        E 63 b5 01 5a
        E 63 b5 01 58
        E 63 b5 01 55
        E 63 b5 01 52
        E 63 b5 01 50
        E 63 b5 01 4e
        E 63 b5 01 4b
        E 63 b5 01 48
        E 63 b5 01 46
        E 63 b5 01 42
        E 63 b5 01 3f
        E 63 b5 01 3d
        E 63 b5 01 3a
        E 63 b5 01 37
        E 63 b5 01 35
        E 63 b5 01 32
        E 63 b5 01 2f
        E 63 b5 01 2c
        E 63 b5 01 29
        E 63 b5 01 26
        E 63 b5 01 24
        E 63 b5 01 22
        E 63 b5 01 1f
        E 63 b5 01 1c
        E 63 b5 01 1a
        E 63 b5 01 18
        E 63 b5 01 15
        E 63 b5 01 13
        E 63 b5 01 11
        E 63 b5 01 0f
        E 63 b5 01 0d
        E 63 b5 01 0b
        E 63 b5 01 09
        E 63 b5 01 09
        E 63 b5 01 07
        E 63 b5 01 06
        E 63 b5 01 04
        E 63 b5 01 03
        E 63 b5 01 02
        E 63 b5 01 01
        E 63 b5 01 00
        E 63 b5 01 00
        E 63 b5 01 00
        E 63 b5 01 00
        E 63 b5 01 00
        E 63 b5 01 00
        E 63 b5 01 00
        E 63 b5 01 00
        E 63 b5 01 00
        E 63 b5 01 01
        E 63 b5 01 02
        E 63 b5 01 03
        E 63 b5 01 04
        E 63 b5 01 05
        E 63 b5 01 06
        E 63 b5 01 08
        E 63 b5 01 09
        E 63 b5 01 0a
        E 63 b5 01 0c
        E 63 b5 01 0e
        E 63 b5 01 10
        E 63 b5 01 12
        E 63 b5 01 14
        E 63 b5 01 16
        E 63 b5 01 19
        E 63 b5 01 1b
        E 63 b5 01 1d
        E 63 b5 01 20
        E 63 b5 01 23
        E 63 b5 01 25
        E 63 b5 01 28
        E 63 b5 01 2b
        E 63 b5 01 2d
        E 63 b5 01 30
        E 63 b5 01 33
        E 63 b5 01 36
        E 63 b5 01 39
        E 7 b5 01 19
        E 7 b5 01 1a
        E 7 b5 01 1c
        E 7 b5 01 1d
        E 7 b5 01 1e
        E 7 b5 01 1f
        E 7 b5 01 20
        E 7 b5 01 22
        E 7 b5 01 23
        E 7 b5 01 24
        E 7 b5 01 25
        E 7 b5 01 26
        E 7 b5 01 27
        E 7 b5 01 28
        E 7 b5 01 29
        E 7 b5 01 2a
        E 7 b5 01 2b
        E 7 b5 01 2c
        E 7 b5 01 2d
        E 7 b5 01 2e
        E 7 b5 01 2e
        E 7 b5 01 2f
        E 7 b5 01 30
        E 7 b5 01 30
        E 7 b5 01 30
        E 7 b5 01 31
        E 7 b5 01 31
        E 7 b5 01 32
        E 7 b5 01 32
        E 7 b5 01 32
        E 7 b5 01 32
        E 7 b5 01 32
        E 7 b5 01 32
        E 7 b5 01 32
        E 7 b5 01 32
        E 7 b5 01 32
        E 7 b5 01 32
        E 7 b5 01 32
        E 7 b5 01 31
        E 7 b5 01 31
        E 7 b5 01 30
        E 7 b5 01 30
        E 7 b5 01 2f
        E 7 b5 01 2e
        E 7 b5 01 2e
        E 7 b5 01 2d
        E 7 b5 01 2c
        E 7 b5 01 2c
        E 7 b5 01 2b
        E 7 b5 01 2a
        E 7 b5 01 29
        E 7 b5 01 28
        E 7 b5 01 27
        E 7 b5 01 26
        E 7 b5 01 24
        E 7 b5 01 23
        E 7 b5 01 22
        E 7 b5 01 21
        E 7 b5 01 20
        E 7 b5 01 1f
        E 7 b5 01 1d
        E 7 b5 01 1c
        E 7 b5 01 1b
        E 7 b5 01 1a
        E 7 b5 01 18
        E 7 b5 01 17
        E 7 b5 01 16
        E 7 b5 01 15
        E 7 b5 01 13
        E 7 b5 01 12
        E 7 b5 01 11
        E 7 b5 01 10
        E 7 b5 01 0f
        E 7 b5 01 0e
        E 7 b5 01 0c
        E 7 b5 01 0b
        E 7 b5 01 0a
        E 7 b5 01 09
        E 7 b5 01 08
        E 7 b5 01 07
        E 7 b5 01 06
        E 7 b5 01 06
        E 7 b5 01 05
        E 7 b5 01 04
        E 7 b5 01 04
        E 7 b5 01 03
        E 7 b5 01 02
        E 7 b5 01 02
        E 7 b5 01 01
        E 7 b5 01 01
        E 7 b5 01 00
        E 7 b5 01 00
        E 7 b5 01 00
        E 7 b5 01 00
        E 7 b5 01 00
        E 7 b5 01 00
        E 7 b5 01 00
        E 7 b5 01 00
        E 7 b5 01 00
        E 7 b5 01 00
        E 7 b5 01 00
        E 7 b5 01 01
        E 7 b5 01 01
        E 7 b5 01 02
        E 7 b5 01 02
        E 7 b5 01 02
        E 7 b5 01 03
        E 7 b5 01 04
        E 7 b5 01 04
        E 7 b5 01 05
        E 7 b5 01 06
        E 7 b5 01 07
        E 7 b5 01 08
        E 7 b5 01 09
        E 7 b5 01 0a
        E 7 b5 01 0b
        E 7 b5 01 0c
        E 7 b5 01 0d
        E 7 b5 01 0e
        E 7 b5 01 0f
        E 7 b5 01 10
        E 7 b5 01 12
        E 7 b5 01 13
        E 7 b5 01 14
        E 7 b5 01 15
        E 7 b5 01 16
        E 7 b5 01 18
        E 7 b5 01 19
        E 71 b5 01 06
        E 71 b5 01 06
        E 71 b5 01 07
        E 71 b5 01 07
        E 71 b5 01 07
        E 71 b5 01 07
        E 71 b5 01 08
        E 71 b5 01 08
        E 71 b5 01 08
        E 71 b5 01 09
        E 71 b5 01 09
        E 71 b5 01 09
        E 71 b5 01 09
        E 71 b5 01 0a
        E 71 b5 01 0a
        E 71 b5 01 0a
        E 71 b5 01 0a
        E 71 b5 01 0b
        E 71 b5 01 0b
        E 71 b5 01 0b
        E 71 b5 01 0b
        E 71 b5 01 0b
        E 71 b5 01 0c
        E 71 b5 01 0c
        E 71 b5 01 0c
        E 71 b5 01 0c
        E 71 b5 01 0c
        E 71 b5 01 0c
        E 71 b5 01 0c
        E 71 b5 01 0c
        E 71 b5 01 0c
        E 71 b5 01 0c
        E 71 b5 01 0c
        E 71 b5 01 0c
        E 71 b5 01 0c
        E 71 b5 01 0c
        E 71 b5 01 0c
        E 71 b5 01 0c
        E 71 b5 01 0c
        E 71 b5 01 0c
        E 71 b5 01 0c
        E 71 b5 01 0c
        E 71 b5 01 0b
        E 71 b5 01 0b
        E 71 b5 01 0b
        E 71 b5 01 0b
        E 71 b5 01 0b
        E 71 b5 01 0b
        E 71 b5 01 0a
        E 71 b5 01 0a
        E 71 b5 01 0a
        E 71 b5 01 0a
        E 71 b5 01 09
        E 71 b5 01 09
        E 71 b5 01 09
        E 71 b5 01 08
        E 71 b5 01 08
        E 71 b5 01 08
        E 71 b5 01 08
        E 71 b5 01 07
        E 71 b5 01 07
        E 71 b5 01 07
        E 71 b5 01 06
        E 71 b5 01 06
        E 71 b5 01 06
        E 71 b5 01 05
        E 71 b5 01 05
        E 71 b5 01 05
        E 71 b5 01 04
        E 71 b5 01 04
        E 71 b5 01 04
        E 71 b5 01 04
        E 71 b5 01 03
        E 71 b5 01 03
        E 71 b5 01 03
        E 71 b5 01 02
        E 71 b5 01 02
        E 71 b5 01 02
        E 71 b5 01 02
        E 71 b5 01 01
        E 71 b5 01 01
        E 71 b5 01 01
        E 71 b5 01 01
        E 71 b5 01 01
        E 71 b5 01 01
        E 71 b5 01 00
        E 71 b5 01 00
        E 71 b5 01 00
        E 71 b5 01 00
        E 71 b5 01 00
        E 71 b5 01 00
        E 71 b5 01 00
        E 71 b5 01 00
        E 71 b5 01 00
        E 71 b5 01 00
        E 71 b5 01 00
        E 71 b5 01 00
        E 71 b5 01 00
        E 71 b5 01 00
        E 71 b5 01 00
        E 71 b5 01 00
        E 71 b5 01 00
        E 71 b5 01 00
        E 71 b5 01 00
        E 71 b5 01 00
        E 71 b5 01 00
        E 71 b5 01 00
        E 71 b5 01 01
        E 71 b5 01 01
        E 71 b5 01 01
        E 71 b5 01 01
        E 71 b5 01 01
        E 71 b5 01 02
        E 71 b5 01 02
        E 71 b5 01 02
        E 71 b5 01 02
        E 71 b5 01 03
        E 71 b5 01 03
        E 71 b5 01 03
        E 71 b5 01 03
        E 71 b5 01 04
        E 71 b5 01 04
        E 71 b5 01 04
        E 71 b5 01 05
        E 71 b5 01 05
        E 71 b5 01 05
        E 71 b5 01 06
        E 71 b5 01 06
        E 63 b5 01 2c
        E 63 b5 01 2e
        E 63 b5 01 31
        E 63 b5 01 33
        E 63 b5 01 35
        E 63 b5 01 37
        E 63 b5 01 39
        E 63 b5 01 3b
        E 63 b5 01 3d
        E 63 b5 01 3f
        E 63 b5 01 41
        E 63 b5 01 43
        E 63 b5 01 45
        E 63 b5 01 47
        E 63 b5 01 48
        E 63 b5 01 4a
        E 63 b5 01 4c
        E 63 b5 01 4d
        E 63 b5 01 4f
        E 63 b5 01 50
        E 63 b5 01 51
        E 63 b5 01 52
        E 63 b5 01 54
        E 63 b5 01 54
        E 63 b5 01 55
        E 63 b5 01 56
        E 63 b5 01 56
        E 63 b5 01 57
        E 63 b5 01 58
        E 63 b5 01 58
        E 63 b5 01 58
        E 63 b5 01 58
        E 63 b5 01 58
        E 63 b5 01 58
        E 63 b5 01 58
        E 63 b5 01 58
        E 63 b5 01 58
        E 63 b5 01 57
        E 63 b5 01 56
        E 63 b5 01 56
        E 63 b5 01 55
        E 63 b5 01 54
        E 63 b5 01 53
        E 63 b5 01 51
        E 63 b5 01 51
        E 63 b5 01 4f
        E 63 b5 01 4e
        E 63 b5 01 4d
        E 63 b5 01 4b
        E 63 b5 01 49
        E 63 b5 01 48
        E 63 b5 01 46
        E 63 b5 01 44
        E 63 b5 01 42
        E 63 b5 01 40
        E 63 b5 01 3e
        E 63 b5 01 3c
        E 63 b5 01 3a
        E 63 b5 01 38
        E 63 b5 01 36
        E 63 b5 01 33
        E 63 b5 01 31
        E 63 b5 01 2f
        E 63 b5 01 2d
        E 63 b5 01 2b
        E 63 b5 01 29
        E 63 b5 01 27
        E 63 b5 01 25
        E 63 b5 01 22
        E 63 b5 01 20
        E 63 b5 01 1e
        E 63 b5 01 1c
        E 63 b5 01 1a
        E 63 b5 01 18
        E 63 b5 01 16
        E 63 b5 01 14
        E 63 b5 01 12
        E 63 b5 01 10
        E 63 b5 01 0f
        E 63 b5 01 0d
        E 63 b5 01 0b
        E 63 b5 01 0a
        E 63 b5 01 09
        E 63 b5 01 07
        E 63 b5 01 07
        E 63 b5 01 05
        E 63 b5 01 04
        E 63 b5 01 03
        E 63 b5 01 02
        E 63 b5 01 02
        E 63 b5 01 01
        E 63 b5 01 00
        E 63 b5 01 00
        E 63 b5 01 00
        E 63 b5 01 00
        E 63 b5 01 00
        E 63 b5 01 00
        E 63 b5 01 00
        E 63 b5 01 00
        E 63 b5 01 00
        E 63 b5 01 01
        E 63 b5 01 02
        E 63 b5 01 02
        E 63 b5 01 03
        E 63 b5 01 04
        E 63 b5 01 04
        E 63 b5 01 06
        E 63 b5 01 07
        E 63 b5 01 08
        E 63 b5 01 09
        E 63 b5 01 0b
        E 63 b5 01 0c
        E 63 b5 01 0e
        E 63 b5 01 10
        E 63 b5 01 11
        E 63 b5 01 13
        E 63 b5 01 15
        E 63 b5 01 17
        E 63 b5 01 19
        E 63 b5 01 1b
        E 63 b5 01 1d
        E 63 b5 01 1f
        E 63 b5 01 21
        E 63 b5 01 23
        E 63 b5 01 25
        E 63 b5 01 27
        E 63 b5 01 2a
        E 63 b5 01 2c
        E 71 b5 01 13
        E 71 b5 01 14
        E 71 b5 01 15
        E 71 b5 01 15
        E 71 b5 01 16
        E 71 b5 01 17
        E 71 b5 01 18
        E 71 b5 01 19
        E 71 b5 01 1a
        E 71 b5 01 1b
        E 71 b5 01 1c
        E 71 b5 01 1c
        E 71 b5 01 1d
        E 71 b5 01 1e
        E 71 b5 01 1f
        E 71 b5 01 1f
        E 71 b5 01 20
        E 71 b5 01 21
        E 71 b5 01 21
        E 71 b5 01 22
        E 71 b5 01 23
        E 71 b5 01 23
        E 71 b5 01 24
        E 71 b5 01 24
        E 71 b5 01 24
        E 71 b5 01 24
        E 71 b5 01 25
        E 71 b5 01 25
        E 71 b5 01 25
        E 71 b5 01 25
        E 71 b5 01 26
        E 71 b5 01 26
        E 71 b5 01 26
        E 71 b5 01 26
        E 71 b5 01 26
        E 71 b5 01 25
        E 71 b5 01 25
        E 71 b5 01 25
        E 71 b5 01 25
        E 71 b5 01 24
        E 71 b5 01 24
        E 71 b5 01 24
        E 71 b5 01 23
        E 71 b5 01 23
        E 71 b5 01 22
        E 71 b5 01 22
        E 71 b5 01 21
        E 71 b5 01 21
        E 71 b5 01 20
        E 71 b5 01 1f
        E 71 b5 01 1e
        E 71 b5 01 1e
        E 71 b5 01 1d
        E 71 b5 01 1c
        E 71 b5 01 1b
        E 71 b5 01 1a
        E 71 b5 01 1a
        E 71 b5 01 19
        E 71 b5 01 18
        E 71 b5 01 17
        E 71 b5 01 16
        E 71 b5 01 15
        E 71 b5 01 14
        E 71 b5 01 13
        E 71 b5 01 12
        E 71 b5 01 11
        E 71 b5 01 10
        E 71 b5 01 0f
        E 71 b5 01 0e
        E 71 b5 01 0d
        E 71 b5 01 0c
        E 71 b5 01 0c
        E 71 b5 01 0b
        E 71 b5 01 0a
        E 71 b5 01 09
        E 71 b5 01 08
        E 71 b5 01 08
        E 71 b5 01 07
        E 71 b5 01 06
        E 71 b5 01 05
        E 71 b5 01 05
        E 71 b5 01 04
        E 71 b5 01 03
        E 71 b5 01 03
        E 71 b5 01 03
        E 71 b5 01 02
        E 71 b5 01 02
        E 71 b5 01 01
        E 71 b5 01 01
        E 71 b5 01 00
        E 71 b5 01 00
        E 71 b5 01 00
        E 71 b5 01 00
        E 71 b5 01 00
        E 71 b5 01 00
        E 71 b5 01 00
        E 71 b5 01 00
        E 71 b5 01 00
        E 71 b5 01 00
        E 71 b5 01 00
        E 71 b5 01 00
        E 71 b5 01 00
        E 71 b5 01 01
        E 71 b5 01 01
        E 71 b5 01 01
        E 71 b5 01 02
        E 71 b5 01 02
        E 71 b5 01 03
        E 71 b5 01 03
        E 71 b5 01 04
        E 71 b5 01 04
        E 71 b5 01 05
        E 71 b5 01 06
        E 71 b5 01 06
        E 71 b5 01 07
        E 71 b5 01 08
        E 71 b5 01 09
        E 71 b5 01 09
        E 71 b5 01 0a
        E 71 b5 01 0b
        E 71 b5 01 0c
        E 71 b5 01 0d
        E 71 b5 01 0e
        E 71 b5 01 0f
        E 71 b5 01 10
        E 71 b5 01 11
        E 71 b5 01 12
        E 71 b5 01 13
        E 23 b5 01 26
        E 23 b5 01 28
        E 23 b5 01 2a
        E 23 b5 01 2b
        E 23 b5 01 2d
        E 23 b5 01 2f
        E 23 b5 01 31
        E 23 b5 01 33
        E 23 b5 01 34
        E 23 b5 01 36
        E 23 b5 01 38
        E 23 b5 01 39
        E 23 b5 01 3b
        E 23 b5 01 3d
        E 23 b5 01 3e
        E 23 b5 01 3f
        E 23 b5 01 41
        E 23 b5 01 42
        E 23 b5 01 43
        E 23 b5 01 45
        E 23 b5 01 46
        E 23 b5 01 46
        E 23 b5 01 48
        E 23 b5 01 48
        E 23 b5 01 49
        E 23 b5 01 49
        E 23 b5 01 4a
        E 23 b5 01 4b
        E 23 b5 01 4b
        E 23 b5 01 4b
        E 23 b5 01 4c
        E 23 b5 01 4c
        E 23 b5 01 4c
        E 23 b5 01 4c
        E 23 b5 01 4c
        E 23 b5 01 4b
        E 23 b5 01 4b
        E 23 b5 01 4b
        E 23 b5 01 4a
        E 23 b5 01 49
        E 23 b5 01 49
        E 23 b5 01 48
        E 23 b5 01 47
        E 23 b5 01 46
        E 23 b5 01 45
        E 23 b5 01 44
        E 23 b5 01 43
        E 23 b5 01 42
        E 23 b5 01 40
        E 23 b5 01 3f
        E 23 b5 01 3d
        E 23 b5 01 3c
        E 23 b5 01 3a
        E 23 b5 01 39
        E 23 b5 01 37
        E 23 b5 01 35
        E 23 b5 01 34
        E 23 b5 01 32
        E 23 b5 01 30
        E 23 b5 01 2e
        E 23 b5 01 2c
        E 23 b5 01 2a
        E 23 b5 01 28
        E 23 b5 01 27
        E 23 b5 01 25
        E 23 b5 01 23
        E 23 b5 01 21
        E 23 b5 01 1f
        E 23 b5 01 1d
        E 23 b5 01 1b
        E 23 b5 01 19
        E 23 b5 01 18
        E 23 b5 01 16
        E 23 b5 01 15
        E 23 b5 01 13
        E 23 b5 01 11
        E 23 b5 01 10
        E 23 b5 01 0e
        E 23 b5 01 0d
        E 23 b5 01 0b
        E 23 b5 01 0a
        E 23 b5 01 09
        E 23 b5 01 07
        E 23 b5 01 06
        E 23 b5 01 06
        E 23 b5 01 04
        E 23 b5 01 04
        E 23 b5 01 03
        E 23 b5 01 02
        E 23 b5 01 01
        E 23 b5 01 01
        E 23 b5 01 00
        E 23 b5 01 00
        E 23 b5 01 00
        E 23 b5 01 00
        E 23 b5 01 00
        E 23 b5 01 00
        E 23 b5 01 00
        E 23 b5 01 00
        E 23 b5 01 00
        E 23 b5 01 01
        E 23 b5 01 01
        E 23 b5 01 02
        E 23 b5 01 03
        E 23 b5 01 03
        E 23 b5 01 04
        E 23 b5 01 05
        E 23 b5 01 06
        E 23 b5 01 07
        E 23 b5 01 08
        E 23 b5 01 09
        E 23 b5 01 0a
        E 23 b5 01 0c
        E 23 b5 01 0d
        E 23 b5 01 0f
        E 23 b5 01 10
        E 23 b5 01 12
        E 23 b5 01 13
        E 23 b5 01 15
        E 23 b5 01 17
        E 23 b5 01 19
        E 23 b5 01 1b
        E 23 b5 01 1c
        E 23 b5 01 1e
        E 23 b5 01 20
        E 23 b5 01 22
        E 23 b5 01 24
        E 23 b5 01 26
        E 63 b5 01 39
        E 63 b5 01 3c
        E 63 b5 01 3f
        E 63 b5 01 41
        E 63 b5 01 44
        E 63 b5 01 47
        E 63 b5 01 49
        E 63 b5 01 4c
        E 63 b5 01 4f
        E 63 b5 01 51
        E 63 b5 01 54
        E 63 b5 01 56
        E 63 b5 01 59
        E 63 b5 01 5b
        E 63 b5 01 5d
        E 63 b5 01 5f
        E 63 b5 01 62
        E 63 b5 01 63
        E 63 b5 01 65
        E 63 b5 01 67
        E 63 b5 01 69
        E 63 b5 01 6a
        E 63 b5 01 6c
        E 63 b5 01 6c
        E 63 b5 01 6d
        E 63 b5 01 6e
        E 63 b5 01 6f
        E 63 b5 01 70
        E 63 b5 01 71
        E 63 b5 01 71
        E 63 b5 01 72
        E 63 b5 01 72
        E 63 b5 01 72
        E 63 b5 01 72
        E 63 b5 01 72
        E 63 b5 01 71
        E 63 b5 01 71
        E 63 b5 01 70
        E 63 b5 01 6f
        E 63 b5 01 6e
        E 63 b5 01 6d
        E 63 b5 01 6c
        E 63 b5 01 6b
        E 63 b5 01 69
        E 63 b5 01 68
        E 63 b5 01 66
        E 63 b5 01 64
        E 63 b5 01 63
        E 63 b5 01 61
        E 63 b5 01 5e
        E 63 b5 01 5c
        E 63 b5 01 5a
        E 63 b5 01 58
        E 63 b5 01 55
        E 63 b5 01 52
        E 63 b5 01 50
        E 63 b5 01 4e
        E 63 b5 01 4b
        E 63 b5 01 48
        E 63 b5 01 46
        E 63 b5 01 42
        E 63 b5 01 3f
        E 63 b5 01 3d
        E 63 b5 01 3a
        E 63 b5 01 37
        E 63 b5 01 35
        E 63 b5 01 32
        E 63 b5 01 2f
        E 63 b5 01 2c
        E 63 b5 01 29
        E 63 b5 01 26
        E 63 b5 01 24
        E 63 b5 01 22
        E 63 b5 01 1f
        E 63 b5 01 1c
        E 63 b5 01 1a
        E 63 b5 01 18
        E 63 b5 01 15
        E 63 b5 01 13
        E 63 b5 01 11
        E 63 b5 01 0f
        E 63 b5 01 0d
        E 63 b5 01 0b
        E 63 b5 01 09
        E 63 b5 01 09
        E 63 b5 01 07
        E 63 b5 01 06
        E 63 b5 01 04
        E 63 b5 01 03
        E 63 b5 01 02
        E 63 b5 01 01
        E 63 b5 01 00
        E 63 b5 01 00
        E 63 b5 01 00
        E 63 b5 01 00
        E 63 b5 01 00
        E 63 b5 01 00
        E 63 b5 01 00
        E 63 b5 01 00
        E 63 b5 01 00
        E 63 b5 01 01
        E 63 b5 01 02
        E 63 b5 01 03
        E 63 b5 01 04
        E 63 b5 01 05
        E 63 b5 01 06
        E 63 b5 01 08
        E 63 b5 01 09
        E 63 b5 01 0a
        E 63 b5 01 0c
        E 63 b5 01 0e
        E 63 b5 01 10
        E 63 b5 01 12
        E 63 b5 01 14
        E 63 b5 01 16
        E 63 b5 01 19
        E 63 b5 01 1b
        E 63 b5 01 1d
        E 63 b5 01 20
        E 63 b5 01 23
        E 63 b5 01 25
        E 63 b5 01 28
        E 63 b5 01 2b
        E 63 b5 01 2d
        E 63 b5 01 30
        E 63 b5 01 33
        E 63 b5 01 36
        E 63 b5 01 39
        E 7 b5 01 19
        E 7 b5 01 1a
        E 7 b5 01 1c
        E 7 b5 01 1d
        E 7 b5 01 1e
        E 7 b5 01 1f
        E 7 b5 01 20
        E 7 b5 01 22
        E 7 b5 01 23
        E 7 b5 01 24
        E 7 b5 01 25
        E 7 b5 01 26
        E 7 b5 01 27
        E 7 b5 01 28
        E 7 b5 01 29
        E 7 b5 01 2a
        E 7 b5 01 2b
        E 7 b5 01 2c
        E 7 b5 01 2d
        E 7 b5 01 2e
        E 7 b5 01 2e
        E 7 b5 01 2f
        E 7 b5 01 30
        E 7 b5 01 30
        E 7 b5 01 30
        E 7 b5 01 31
        E 7 b5 01 31
        E 7 b5 01 32
        E 7 b5 01 32
        E 7 b5 01 32
        E 7 b5 01 32
        E 7 b5 01 32
        E 7 b5 01 32
        E 7 b5 01 32
        E 7 b5 01 32
        E 7 b5 01 32
        E 7 b5 01 32
        E 7 b5 01 32
        E 7 b5 01 31
        E 7 b5 01 31
        E 7 b5 01 30
        E 7 b5 01 30
        E 7 b5 01 2f
        E 7 b5 01 2e
        E 7 b5 01 2e
        E 7 b5 01 2d
        E 7 b5 01 2c
        E 7 b5 01 2c
        E 7 b5 01 2b
        E 7 b5 01 2a
        E 7 b5 01 29
        E 7 b5 01 28
        E 7 b5 01 27
        E 7 b5 01 26
        E 7 b5 01 24
        E 7 b5 01 23
        E 7 b5 01 22
        E 7 b5 01 21
        E 7 b5 01 20
        E 7 b5 01 1f
        E 7 b5 01 1d
        E 7 b5 01 1c
        E 7 b5 01 1b
        E 7 b5 01 1a
        E 7 b5 01 18
        E 7 b5 01 17
        E 7 b5 01 16
        E 7 b5 01 15
        E 7 b5 01 13
        E 7 b5 01 12
        E 7 b5 01 11
        E 7 b5 01 10
        E 7 b5 01 0f
        E 7 b5 01 0e
        E 7 b5 01 0c
        E 7 b5 01 0b
        E 7 b5 01 0a
        E 7 b5 01 09
        E 7 b5 01 08
        E 7 b5 01 07
        E 7 b5 01 06
        E 7 b5 01 06
        E 7 b5 01 05
        E 7 b5 01 04
        E 7 b5 01 04
        E 7 b5 01 03
        E 7 b5 01 02
        E 7 b5 01 02
        E 7 b5 01 01
        E 7 b5 01 01
        E 7 b5 01 00
        E 7 b5 01 00
        E 7 b5 01 00
        E 7 b5 01 00
        E 7 b5 01 00
        E 7 b5 01 00
        E 7 b5 01 00
        E 7 b5 01 00
        E 7 b5 01 00
        E 7 b5 01 00
        E 7 b5 01 00
        E 7 b5 01 01
        E 7 b5 01 01
        E 7 b5 01 02
        E 7 b5 01 02
        E 7 b5 01 02
        E 7 b5 01 03
        E 7 b5 01 04
        E 7 b5 01 04
        E 7 b5 01 05
        E 7 b5 01 06
        E 7 b5 01 07
        E 7 b5 01 08
        E 7 b5 01 09
        E 7 b5 01 0a
        E 7 b5 01 0b
        E 7 b5 01 0c
        E 7 b5 01 0d
        E 7 b5 01 0e
        E 7 b5 01 0f
        E 7 b5 01 10
        E 7 b5 01 12
        E 7 b5 01 13
        E 7 b5 01 14
        E 7 b5 01 15
        E 7 b5 01 16
        E 7 b5 01 18
        E 7 b5 01 19
        E 71 b5 01 13
        E 71 b5 01 14
        E 71 b5 01 15
        E 71 b5 01 15
        E 71 b5 01 16
        E 71 b5 01 17
        E 71 b5 01 18
        E 71 b5 01 19
        E 71 b5 01 1a
        E 71 b5 01 1b
        E 71 b5 01 1c
        E 71 b5 01 1c
        E 71 b5 01 1d
        E 71 b5 01 1e
        E 71 b5 01 1f
        E 71 b5 01 1f
        E 71 b5 01 20
        E 71 b5 01 21
        E 71 b5 01 21
        E 71 b5 01 22
        E 71 b5 01 23
        E 71 b5 01 23
        E 71 b5 01 24
        E 71 b5 01 24
        E 71 b5 01 24
        E 71 b5 01 24
        E 71 b5 01 25
        E 71 b5 01 25
        E 71 b5 01 25
        E 71 b5 01 25
        E 71 b5 01 26
        E 71 b5 01 26
        E 71 b5 01 26
        E 71 b5 01 26
        E 71 b5 01 26
        E 71 b5 01 25
        E 71 b5 01 25
        E 71 b5 01 25
        E 71 b5 01 25
        E 71 b5 01 24
        E 71 b5 01 24
        E 71 b5 01 24
        E 71 b5 01 23
        E 71 b5 01 23
        E 71 b5 01 22
        E 71 b5 01 22
        E 71 b5 01 21
        E 71 b5 01 21
        E 71 b5 01 20
        E 71 b5 01 1f
        E 71 b5 01 1e
        E 71 b5 01 1e
        E 71 b5 01 1d
        E 71 b5 01 1c
        E 71 b5 01 1b
        E 71 b5 01 1a
        E 71 b5 01 1a
        E 71 b5 01 19
        E 71 b5 01 18
        E 71 b5 01 17
        E 71 b5 01 16
        E 71 b5 01 15
        E 71 b5 01 14
        E 71 b5 01 13
        E 71 b5 01 12
        E 71 b5 01 11
        E 71 b5 01 10
        E 71 b5 01 0f
        E 71 b5 01 0e
        E 71 b5 01 0d
        E 71 b5 01 0c
        E 71 b5 01 0c
        E 71 b5 01 0b
        E 71 b5 01 0a
        E 71 b5 01 09
        E 71 b5 01 08
        E 71 b5 01 08
        E 71 b5 01 07
        E 71 b5 01 06
        E 71 b5 01 05
        E 71 b5 01 05
        E 71 b5 01 04
        E 71 b5 01 03
        E 71 b5 01 03
        E 71 b5 01 03
        E 71 b5 01 02
        E 71 b5 01 02
        E 71 b5 01 01
        E 71 b5 01 01
        E 71 b5 01 00
        E 71 b5 01 00
        E 71 b5 01 00
        E 71 b5 01 00
        E 71 b5 01 00
        E 71 b5 01 00
        E 71 b5 01 00
        E 71 b5 01 00
        E 71 b5 01 00
        E 71 b5 01 00
        E 71 b5 01 00
        E 71 b5 01 00
        E 71 b5 01 00
        E 71 b5 01 01
        E 71 b5 01 01
        E 71 b5 01 01
        E 71 b5 01 02
        E 71 b5 01 02
        E 71 b5 01 03
        E 71 b5 01 03
        E 71 b5 01 04
        E 71 b5 01 04
        E 71 b5 01 05
        E 71 b5 01 06
        E 71 b5 01 06
        E 71 b5 01 07
        E 71 b5 01 08
        E 71 b5 01 09
        E 71 b5 01 09
        E 71 b5 01 0a
        E 71 b5 01 0b
        E 71 b5 01 0c
        E 71 b5 01 0d
        E 71 b5 01 0e
        E 71 b5 01 0f
        E 71 b5 01 10
        E 71 b5 01 11
        E 71 b5 01 12
        E 71 b5 01 13
        E 23 b5 01 26
        E 23 b5 01 28
        E 23 b5 01 2a
        E 23 b5 01 2b
        E 23 b5 01 2d
        E 23 b5 01 2f
        E 23 b5 01 31
        E 23 b5 01 33
        E 23 b5 01 34
        E 23 b5 01 36
        E 23 b5 01 38
        E 23 b5 01 39
        E 23 b5 01 3b
        E 23 b5 01 3d
        E 23 b5 01 3e
        E 23 b5 01 3f
        E 23 b5 01 41
        E 23 b5 01 42
        E 23 b5 01 43
        E 23 b5 01 45
        E 23 b5 01 46
        E 23 b5 01 46
        E 23 b5 01 48
        E 23 b5 01 48
        E 23 b5 01 49
        E 23 b5 01 49
        E 23 b5 01 4a
        E 23 b5 01 4b
        E 23 b5 01 4b
        E 23 b5 01 4b
        E 23 b5 01 4c
        E 23 b5 01 4c
        E 23 b5 01 4c
        E 23 b5 01 4c
        E 23 b5 01 4c
        E 23 b5 01 4b
        E 23 b5 01 4b
        E 23 b5 01 4b
        E 23 b5 01 4a
        E 23 b5 01 49
        E 23 b5 01 49
        E 23 b5 01 48
        E 23 b5 01 47
        E 23 b5 01 46
        E 23 b5 01 45
        E 23 b5 01 44
        E 23 b5 01 43
        E 23 b5 01 42
        E 23 b5 01 40
        E 23 b5 01 3f
        E 23 b5 01 3d
        E 23 b5 01 3c
        E 23 b5 01 3a
        E 23 b5 01 39
        E 23 b5 01 37
        E 23 b5 01 35
        E 23 b5 01 34
        E 23 b5 01 32
        E 23 b5 01 30
        E 23 b5 01 2e
        E 23 b5 01 2c
        E 23 b5 01 2a
        E 23 b5 01 28
        E 23 b5 01 27
        E 23 b5 01 25
        E 23 b5 01 23
        E 23 b5 01 21
        E 23 b5 01 1f
        E 23 b5 01 1d
        E 23 b5 01 1b
        E 23 b5 01 19
        E 23 b5 01 18
        E 23 b5 01 16
        E 23 b5 01 15
        E 23 b5 01 13
        E 23 b5 01 11
        E 23 b5 01 10
        E 23 b5 01 0e
        E 23 b5 01 0d
        E 23 b5 01 0b
        E 23 b5 01 0a
        E 23 b5 01 09
        E 23 b5 01 07
        E 23 b5 01 06
        E 23 b5 01 06
        E 23 b5 01 04
        E 23 b5 01 04
        E 23 b5 01 03
        E 23 b5 01 02
        E 23 b5 01 01
        E 23 b5 01 01
        E 23 b5 01 00
        E 23 b5 01 00
        E 23 b5 01 00
        E 23 b5 01 00
        E 23 b5 01 00
        E 23 b5 01 00
        E 23 b5 01 00
        E 23 b5 01 00
        E 23 b5 01 00
        E 23 b5 01 01
        E 23 b5 01 01
        E 23 b5 01 02
        E 23 b5 01 03
        E 23 b5 01 03
        E 23 b5 01 04
        E 23 b5 01 05
        E 23 b5 01 06
        E 23 b5 01 07
        E 23 b5 01 08
        E 23 b5 01 09
        E 23 b5 01 0a
        E 23 b5 01 0c
        E 23 b5 01 0d
        E 23 b5 01 0f
        E 23 b5 01 10
        E 23 b5 01 12
        E 23 b5 01 13
        E 23 b5 01 15
        E 23 b5 01 17
        E 23 b5 01 19
        E 23 b5 01 1b
        E 23 b5 01 1c
        E 23 b5 01 1e
        E 23 b5 01 20
        E 23 b5 01 22
        E 23 b5 01 24
        E 23 b5 01 26
        E 63 b5 01 39
        E 63 b5 01 3c
        E 63 b5 01 3f
        E 63 b5 01 41
        E 63 b5 01 44
        E 63 b5 01 47
        E 63 b5 01 49
        E 63 b5 01 4c
        E 63 b5 01 4f
        E 63 b5 01 51
        E 63 b5 01 54
        E 63 b5 01 56
        E 63 b5 01 59
        E 63 b5 01 5b
        E 63 b5 01 5d
        E 63 b5 01 5f
        E 63 b5 01 62
        E 63 b5 01 63
        E 63 b5 01 65
        E 63 b5 01 67
        E 63 b5 01 69
        E 63 b5 01 6a
        E 63 b5 01 6c
        E 63 b5 01 6c
        E 63 b5 01 6d
        E 63 b5 01 6e
        E 63 b5 01 6f
        E 63 b5 01 70
        E 63 b5 01 71
        E 63 b5 01 71
        E 63 b5 01 72
        E 63 b5 01 72
        E 63 b5 01 72
        E 63 b5 01 72
        E 63 b5 01 72
        E 63 b5 01 71
        E 63 b5 01 71
        E 63 b5 01 70
        E 63 b5 01 6f
        E 63 b5 01 6e
        E 63 b5 01 6d
        E 63 b5 01 6c
        E 63 b5 01 6b
        E 63 b5 01 69
        E 63 b5 01 68
        E 63 b5 01 66
        E 63 b5 01 64
        E 63 b5 01 63
        E 63 b5 01 61
        E 63 b5 01 5e
        E 63 b5 01 5c
        E 63 b5 01 5a
        E 63 b5 01 58
        E 63 b5 01 55
        E 63 b5 01 52
        E 63 b5 01 50
        E 63 b5 01 4e
        E 63 b5 01 4b
        E 63 b5 01 48
        E 63 b5 01 46
        E 63 b5 01 42
        E 63 b5 01 3f
        E 63 b5 01 3d
        E 63 b5 01 3a
        E 63 b5 01 37
        E 63 b5 01 35
        E 63 b5 01 32
        E 63 b5 01 2f
        E 63 b5 01 2c
        E 63 b5 01 29
        E 63 b5 01 26
        E 63 b5 01 24
        E 63 b5 01 22
        E 63 b5 01 1f
        E 63 b5 01 1c
        E 63 b5 01 1a
        E 63 b5 01 18
        E 63 b5 01 15
        E 63 b5 01 13
        E 63 b5 01 11
        E 63 b5 01 0f
        E 63 b5 01 0d
        E 63 b5 01 0b
        E 63 b5 01 09
        E 63 b5 01 09
        E 63 b5 01 07
        E 63 b5 01 06
        E 63 b5 01 04
        E 63 b5 01 03
        E 63 b5 01 02
        E 63 b5 01 01
        E 63 b5 01 00
        E 63 b5 01 00
        E 63 b5 01 00
        E 63 b5 01 00
        E 63 b5 01 00
        E 63 b5 01 00
        E 63 b5 01 00
        E 63 b5 01 00
        E 63 b5 01 00
        E 63 b5 01 01
        E 63 b5 01 02
        E 63 b5 01 03
        E 63 b5 01 04
        E 63 b5 01 05
        E 63 b5 01 06
        E 63 b5 01 08
        E 63 b5 01 09
        E 63 b5 01 0a
        E 63 b5 01 0c
        E 63 b5 01 0e
        E 63 b5 01 10
        E 63 b5 01 12
        E 63 b5 01 14
        E 63 b5 01 16
        E 63 b5 01 19
        E 63 b5 01 1b
        E 63 b5 01 1d
        E 63 b5 01 20
        E 63 b5 01 23
        E 63 b5 01 25
        E 63 b5 01 28
        E 63 b5 01 2b
        E 63 b5 01 2d
        E 63 b5 01 30
        E 63 b5 01 33
        E 63 b5 01 36
        E 63 b5 01 39
        E 7 b5 01 19
        E 7 b5 01 1a
        E 7 b5 01 1c
        E 7 b5 01 1d
        E 7 b5 01 1e
        E 7 b5 01 1f
        E 7 b5 01 20
        E 7 b5 01 22
        E 7 b5 01 23
        E 7 b5 01 24
        E 7 b5 01 25
        E 7 b5 01 26
        E 7 b5 01 27
        E 7 b5 01 28
        E 7 b5 01 29
        E 7 b5 01 2a
        E 7 b5 01 2b
        E 7 b5 01 2c
        E 7 b5 01 2d
        E 7 b5 01 2e
        E 7 b5 01 2e
        E 7 b5 01 2f
        E 7 b5 01 30
        E 7 b5 01 30
        E 7 b5 01 30
        E 7 b5 01 31
        E 7 b5 01 31
        E 7 b5 01 32
        E 7 b5 01 32
        E 7 b5 01 32
        E 7 b5 01 32
        E 7 b5 01 32
        E 7 b5 01 32
        E 7 b5 01 32
        E 7 b5 01 32
        E 7 b5 01 32
        E 7 b5 01 32
        E 7 b5 01 32
        E 7 b5 01 31
        E 7 b5 01 31
        E 7 b5 01 30
        E 7 b5 01 30
        E 7 b5 01 2f
        E 7 b5 01 2e
        E 7 b5 01 2e
        E 7 b5 01 2d
        E 7 b5 01 2c
        E 7 b5 01 2c
        E 7 b5 01 2b
        E 7 b5 01 2a
        E 7 b5 01 29
        E 7 b5 01 28
        E 7 b5 01 27
        E 7 b5 01 26
        E 7 b5 01 24
        E 7 b5 01 23
        E 7 b5 01 22
        E 7 b5 01 21
        E 7 b5 01 20
        E 7 b5 01 1f
        E 7 b5 01 1d
        E 7 b5 01 1c
        E 7 b5 01 1b
        E 7 b5 01 1a
        E 7 b5 01 18
        E 7 b5 01 17
        E 7 b5 01 16
        E 7 b5 01 15
        E 7 b5 01 13
        E 7 b5 01 12
        E 7 b5 01 11
        E 7 b5 01 10
        E 7 b5 01 0f
        E 7 b5 01 0e
        E 7 b5 01 0c
        E 7 b5 01 0b
        E 7 b5 01 0a
        E 7 b5 01 09
        E 7 b5 01 08
        E 7 b5 01 07
        E 7 b5 01 06
        E 7 b5 01 06
        E 7 b5 01 05
        E 7 b5 01 04
        E 7 b5 01 04
        E 7 b5 01 03
        E 7 b5 01 02
        E 7 b5 01 02
        E 7 b5 01 01
        E 7 b5 01 01
        E 7 b5 01 00
        E 7 b5 01 00
        E 7 b5 01 00
        E 7 b5 01 00
        E 7 b5 01 00
        E 7 b5 01 00
        E 7 b5 01 00
        E 7 b5 01 00
        E 7 b5 01 00
        E 7 b5 01 00
        E 7 b5 01 00
        E 7 b5 01 01
        E 7 b5 01 01
        E 7 b5 01 02
        E 7 b5 01 02
        E 7 b5 01 02
        E 7 b5 01 03
        E 7 b5 01 04
        E 7 b5 01 04
        E 7 b5 01 05
        E 7 b5 01 06
        E 7 b5 01 07
        E 7 b5 01 08
        E 7 b5 01 09
        E 7 b5 01 0a
        E 7 b5 01 0b
        E 7 b5 01 0c
        E 7 b5 01 0d
        E 7 b5 01 0e
        E 7 b5 01 0f
        E 7 b5 01 10
        E 7 b5 01 12
        E 7 b5 01 13
        E 7 b5 01 14
        E 7 b5 01 15
        E 7 b5 01 16
        E 7 b5 01 18
        E 7 b5 01 19
        E 71 b5 01 06
        E 71 b5 01 06
        E 71 b5 01 07
        E 71 b5 01 07
        E 71 b5 01 07
        E 71 b5 01 07
        E 71 b5 01 08
        E 71 b5 01 08
        E 71 b5 01 08
        E 71 b5 01 09
        E 71 b5 01 09
        E 71 b5 01 09
        E 71 b5 01 09
        E 71 b5 01 0a
        E 71 b5 01 0a
        E 71 b5 01 0a
        E 71 b5 01 0a
        E 71 b5 01 0b
        E 71 b5 01 0b
        E 71 b5 01 0b
        E 71 b5 01 0b
        E 71 b5 01 0b
        E 71 b5 01 0c
        E 71 b5 01 0c
        E 71 b5 01 0c
        E 71 b5 01 0c
        E 71 b5 01 0c
        E 71 b5 01 0c
        E 71 b5 01 0c
        E 71 b5 01 0c
        E 71 b5 01 0c
        E 71 b5 01 0c
        E 71 b5 01 0c
        E 71 b5 01 0c
        E 71 b5 01 0c
        E 71 b5 01 0c
        E 71 b5 01 0c
        E 71 b5 01 0c
        E 71 b5 01 0c
        E 71 b5 01 0c
        E 71 b5 01 0c
        E 71 b5 01 0c
        E 71 b5 01 0b
        E 71 b5 01 0b
        E 71 b5 01 0b
        E 71 b5 01 0b
        E 71 b5 01 0b
        E 71 b5 01 0b
        E 71 b5 01 0a
        E 71 b5 01 0a
        E 71 b5 01 0a
        E 71 b5 01 0a
        E 71 b5 01 09
        E 71 b5 01 09
        E 71 b5 01 09
        E 71 b5 01 08
        E 71 b5 01 08
        E 71 b5 01 08
        E 71 b5 01 08
        E 71 b5 01 07
        E 71 b5 01 07
        E 71 b5 01 07
        E 71 b5 01 06
        E 71 b5 01 06
        E 71 b5 01 06
        E 71 b5 01 05
        E 71 b5 01 05
        E 71 b5 01 05
        E 71 b5 01 04
        E 71 b5 01 04
        E 71 b5 01 04
        E 71 b5 01 04
        E 71 b5 01 03
        E 71 b5 01 03
        E 71 b5 01 03
        E 71 b5 01 02
        E 71 b5 01 02
        E 71 b5 01 02
        E 71 b5 01 02
        E 71 b5 01 01
        E 71 b5 01 01
        E 71 b5 01 01
        E 71 b5 01 01
        E 71 b5 01 01
        E 71 b5 01 01
        E 71 b5 01 00
        E 71 b5 01 00
        E 71 b5 01 00
        E 71 b5 01 00
        E 71 b5 01 00
        E 71 b5 01 00
        E 71 b5 01 00
        E 71 b5 01 00
        E 71 b5 01 00
        E 71 b5 01 00
        E 71 b5 01 00
        E 71 b5 01 00
        E 71 b5 01 00
        E 71 b5 01 00
        E 71 b5 01 00
        E 71 b5 01 00
        E 71 b5 01 00
        E 71 b5 01 00
        E 71 b5 01 00
        E 71 b5 01 00
        E 71 b5 01 00
        E 71 b5 01 00
        E 71 b5 01 01
        E 71 b5 01 01
        E 71 b5 01 01
        E 71 b5 01 01
        E 71 b5 01 01
        E 71 b5 01 02
        E 71 b5 01 02
        E 71 b5 01 02
        E 71 b5 01 02
        E 71 b5 01 03
        E 71 b5 01 03
        E 71 b5 01 03
        E 71 b5 01 03
        E 71 b5 01 04
        E 71 b5 01 04
        E 71 b5 01 04
        E 71 b5 01 05
        E 71 b5 01 05
        E 71 b5 01 05
        E 71 b5 01 06
        E 71 b5 01 06
        E 63 b5 01 2c
        E 63 b5 01 2e
        E 63 b5 01 31
        E 63 b5 01 33
        E 63 b5 01 35
        E 63 b5 01 37
        E 63 b5 01 39
        E 63 b5 01 3b
        E 63 b5 01 3d
        E 63 b5 01 3f
        E 63 b5 01 41
        E 63 b5 01 43
        E 63 b5 01 45
        E 63 b5 01 47
        E 63 b5 01 48
        E 63 b5 01 4a
        E 63 b5 01 4c
        E 63 b5 01 4d
        E 63 b5 01 4f
        E 63 b5 01 50
        E 63 b5 01 51
        E 63 b5 01 52
        E 63 b5 01 54
        E 63 b5 01 54
        E 63 b5 01 55
        E 63 b5 01 56
        E 63 b5 01 56
        E 63 b5 01 57
        E 63 b5 01 58
        E 63 b5 01 58
        E 63 b5 01 58
        E 63 b5 01 58
        E 63 b5 01 58
        E 63 b5 01 58
        E 63 b5 01 58
        E 63 b5 01 58
        E 63 b5 01 58
        E 63 b5 01 57
        E 63 b5 01 56
        E 63 b5 01 56
        E 63 b5 01 55
        E 63 b5 01 54
        E 63 b5 01 53
        E 63 b5 01 51
        E 63 b5 01 51
        E 63 b5 01 4f
        E 63 b5 01 4e
        E 63 b5 01 4d
        E 63 b5 01 4b
        E 63 b5 01 49
        E 63 b5 01 48
        E 63 b5 01 46
        E 63 b5 01 44
        E 63 b5 01 42
        E 63 b5 01 40
        E 63 b5 01 3e
        E 63 b5 01 3c
        E 63 b5 01 3a
        E 63 b5 01 38
        E 63 b5 01 36
        E 63 b5 01 33
        E 63 b5 01 31
        E 63 b5 01 2f
        E 63 b5 01 2d
        E 63 b5 01 2b
        E 63 b5 01 29
        E 63 b5 01 27
        E 63 b5 01 25
        E 63 b5 01 22
        E 63 b5 01 20
        E 63 b5 01 1e
        E 63 b5 01 1c
        E 63 b5 01 1a
        E 63 b5 01 18
        E 63 b5 01 16
        E 63 b5 01 14
        E 63 b5 01 12
        E 63 b5 01 10
        E 63 b5 01 0f
        E 63 b5 01 0d
        E 63 b5 01 0b
        E 63 b5 01 0a
        E 63 b5 01 09
        E 63 b5 01 07
        E 63 b5 01 07
        E 63 b5 01 05
        E 63 b5 01 04
        E 63 b5 01 03
        E 63 b5 01 02
        E 63 b5 01 02
        E 63 b5 01 01
        E 63 b5 01 00
        E 63 b5 01 00
        E 63 b5 01 00
        E 63 b5 01 00
        E 63 b5 01 00
        E 63 b5 01 00
        E 63 b5 01 00
        E 63 b5 01 00
        E 63 b5 01 00
        E 63 b5 01 01
        E 63 b5 01 02
        E 63 b5 01 02
        E 63 b5 01 03
        E 63 b5 01 04
        E 63 b5 01 04
        E 63 b5 01 06
        E 63 b5 01 07
        E 63 b5 01 08
        E 63 b5 01 09
        E 63 b5 01 0b
        E 63 b5 01 0c
        E 63 b5 01 0e
        E 63 b5 01 10
        E 63 b5 01 11
        E 63 b5 01 13
        E 63 b5 01 15
        E 63 b5 01 17
        E 63 b5 01 19
        E 63 b5 01 1b
        E 63 b5 01 1d
        E 63 b5 01 1f
        E 63 b5 01 21
        E 63 b5 01 23
        E 63 b5 01 25
        E 63 b5 01 27
        E 63 b5 01 2a
        E 63 b5 01 2c
        E 71 b5 01 13
        E 71 b5 01 14
        E 71 b5 01 15
        E 71 b5 01 15
        E 71 b5 01 16
        E 71 b5 01 17
        E 71 b5 01 18
        E 71 b5 01 19
        E 71 b5 01 1a
        E 71 b5 01 1b
        E 71 b5 01 1c
        E 71 b5 01 1c
        E 71 b5 01 1d
        E 71 b5 01 1e
        E 71 b5 01 1f
        E 71 b5 01 1f
        E 71 b5 01 20
        E 71 b5 01 21
        E 71 b5 01 21
        E 71 b5 01 22
        E 71 b5 01 23
        E 71 b5 01 23
        E 71 b5 01 24
        E 71 b5 01 24
        E 71 b5 01 24
        E 71 b5 01 24
        E 71 b5 01 25
        E 71 b5 01 25
        E 71 b5 01 25
        E 71 b5 01 25
        E 71 b5 01 26
        E 71 b5 01 26
        E 71 b5 01 26
        E 71 b5 01 26
        E 71 b5 01 26
        E 71 b5 01 25
        E 71 b5 01 25
        E 71 b5 01 25
        E 71 b5 01 25
        E 71 b5 01 24
        E 71 b5 01 24
        E 71 b5 01 24
        E 71 b5 01 23
        E 71 b5 01 23
        E 71 b5 01 22
        E 71 b5 01 22
        E 71 b5 01 21
        E 71 b5 01 21
        E 71 b5 01 20
        E 71 b5 01 1f
        E 71 b5 01 1e
        E 71 b5 01 1e
        E 71 b5 01 1d
        E 71 b5 01 1c
        E 71 b5 01 1b
        E 71 b5 01 1a
        E 71 b5 01 1a
        E 71 b5 01 19
        E 71 b5 01 18
        E 71 b5 01 17
        E 71 b5 01 16
        E 71 b5 01 15
        E 71 b5 01 14
        E 71 b5 01 13
        E 71 b5 01 12
        E 71 b5 01 11
        E 71 b5 01 10
        E 71 b5 01 0f
        E 71 b5 01 0e
        E 71 b5 01 0d
        E 71 b5 01 0c
        E 71 b5 01 0c
        E 71 b5 01 0b
        E 71 b5 01 0a
        E 71 b5 01 09
        E 71 b5 01 08
        E 71 b5 01 08
        E 71 b5 01 07
        E 71 b5 01 06
        E 71 b5 01 05
        E 71 b5 01 05
        E 71 b5 01 04
        E 71 b5 01 03
        E 71 b5 01 03
        E 71 b5 01 03
        E 71 b5 01 02
        E 71 b5 01 02
        E 71 b5 01 01
        E 71 b5 01 01
        E 71 b5 01 00
        E 71 b5 01 00
        E 71 b5 01 00
        E 71 b5 01 00
        E 71 b5 01 00
        E 71 b5 01 00
        E 71 b5 01 00
        E 71 b5 01 00
        E 71 b5 01 00
        E 71 b5 01 00
        E 71 b5 01 00
        E 71 b5 01 00
        E 71 b5 01 00
        E 71 b5 01 01
        E 71 b5 01 01
        E 71 b5 01 01
        E 71 b5 01 02
        E 71 b5 01 02
        E 71 b5 01 03
        E 71 b5 01 03
        E 71 b5 01 04
        E 71 b5 01 04
        E 71 b5 01 05
        E 71 b5 01 06
        E 71 b5 01 06
        E 71 b5 01 07
        E 71 b5 01 08
        E 71 b5 01 09
        E 71 b5 01 09
        E 71 b5 01 0a
        E 71 b5 01 0b
        E 71 b5 01 0c
        E 71 b5 01 0d
        E 71 b5 01 0e
        E 71 b5 01 0f
        E 71 b5 01 10
        E 71 b5 01 11
        E 71 b5 01 12
        E 71 b5 01 13
        E 23 b5 01 26
        E 23 b5 01 28
        E 23 b5 01 2a
        E 23 b5 01 2b
        E 23 b5 01 2d
        E 23 b5 01 2f
        E 23 b5 01 31
        E 23 b5 01 33
        E 23 b5 01 34
        E 23 b5 01 36
        E 23 b5 01 38
        E 23 b5 01 39
        E 23 b5 01 3b
        E 23 b5 01 3d
        E 23 b5 01 3e
        E 23 b5 01 3f
        E 23 b5 01 41
        E 23 b5 01 42
        E 23 b5 01 43
        E 23 b5 01 45
        E 23 b5 01 46
        E 23 b5 01 46
        E 23 b5 01 48
        E 23 b5 01 48
        E 23 b5 01 49
        E 23 b5 01 49
        E 23 b5 01 4a
        E 23 b5 01 4b
        E 23 b5 01 4b
        E 23 b5 01 4b
        E 23 b5 01 4c
        E 23 b5 01 4c
        E 23 b5 01 4c
        E 23 b5 01 4c
        E 23 b5 01 4c
        E 23 b5 01 4b
        E 23 b5 01 4b
        E 23 b5 01 4b
        E 23 b5 01 4a
        E 23 b5 01 49
        E 23 b5 01 49
        E 23 b5 01 48
        E 23 b5 01 47
        E 23 b5 01 46
        E 23 b5 01 45
        E 23 b5 01 44
        E 23 b5 01 43
        E 23 b5 01 42
        E 23 b5 01 40
        E 23 b5 01 3f
        E 23 b5 01 3d
        E 23 b5 01 3c
        E 23 b5 01 3a
        E 23 b5 01 39
        E 23 b5 01 37
        E 23 b5 01 35
        E 23 b5 01 34
        E 23 b5 01 32
        E 23 b5 01 30
        E 23 b5 01 2e
        E 23 b5 01 2c
        E 23 b5 01 2a
        E 23 b5 01 28
        E 23 b5 01 27
        E 23 b5 01 25
        E 23 b5 01 23
        E 23 b5 01 21
        E 23 b5 01 1f
        E 23 b5 01 1d
        E 23 b5 01 1b
        E 23 b5 01 19
        E 23 b5 01 18
        E 23 b5 01 16
        E 23 b5 01 15
        E 23 b5 01 13
        E 23 b5 01 11
        E 23 b5 01 10
        E 23 b5 01 0e
        E 23 b5 01 0d
        E 23 b5 01 0b
        E 23 b5 01 0a
        E 23 b5 01 09
        E 23 b5 01 07
        E 23 b5 01 06
        E 23 b5 01 06
        E 23 b5 01 04
        E 23 b5 01 04
        E 23 b5 01 03
        E 23 b5 01 02
        E 23 b5 01 01
        E 23 b5 01 01
        E 23 b5 01 00
        E 23 b5 01 00
        E 23 b5 01 00
        E 23 b5 01 00
        E 23 b5 01 00
        E 23 b5 01 00
        E 23 b5 01 00
        E 23 b5 01 00
        E 23 b5 01 00
        E 23 b5 01 01
        E 23 b5 01 01
        E 23 b5 01 02
        E 23 b5 01 03
        E 23 b5 01 03
        E 23 b5 01 04
        E 23 b5 01 05
        E 23 b5 01 06
        E 23 b5 01 07
        E 23 b5 01 08
        E 23 b5 01 09
        E 23 b5 01 0a
        E 23 b5 01 0c
        E 23 b5 01 0d
        E 23 b5 01 0f
        E 23 b5 01 10
        E 23 b5 01 12
        E 23 b5 01 13
        E 23 b5 01 15
        E 23 b5 01 17
        E 23 b5 01 19
        E 23 b5 01 1b
        E 23 b5 01 1c
        E 23 b5 01 1e
        E 23 b5 01 20
        E 23 b5 01 22
        E 23 b5 01 24
        E 23 b5 01 26
        E 63 b5 01 39
        E 63 b5 01 3c
        E 63 b5 01 3f
        E 63 b5 01 41
        E 63 b5 01 44
        E 63 b5 01 47
        E 63 b5 01 49
        E 63 b5 01 4c
        E 63 b5 01 4f
        E 63 b5 01 51
        E 63 b5 01 54
        E 63 b5 01 56
        E 63 b5 01 59
        E 63 b5 01 5b
        E 63 b5 01 5d
        E 63 b5 01 5f
        E 63 b5 01 62
        E 63 b5 01 63
        E 63 b5 01 65
        E 63 b5 01 67
        E 63 b5 01 69
        E 63 b5 01 6a
        E 63 b5 01 6c
        E 63 b5 01 6c
        E 63 b5 01 6d
        E 63 b5 01 6e
        E 63 b5 01 6f
        E 63 b5 01 70
        E 63 b5 01 71
        E 63 b5 01 71
        E 63 b5 01 72
        E 63 b5 01 72
        E 63 b5 01 72
        E 63 b5 01 72
        E 63 b5 01 72
        E 63 b5 01 71
        E 63 b5 01 71
        E 63 b5 01 70
        E 63 b5 01 6f
        E 63 b5 01 6e
        E 63 b5 01 6d
        E 63 b5 01 6c
        E 63 b5 01 6b
        E 63 b5 01 69
        E 63 b5 01 68
        E 63 b5 01 66
        E 63 b5 01 64
        E 63 b5 01 63
        E 63 b5 01 61
        E 63 b5 01 5e
        E 63 b5 01 5c
        E 63 b5 01 5a
        E 63 b5 01 58
        E 63 b5 01 55
        E 63 b5 01 52
        E 63 b5 01 50
        E 63 b5 01 4e
        E 63 b5 01 4b
        E 63 b5 01 48
        E 63 b5 01 46
        E 63 b5 01 42
        E 63 b5 01 3f
        E 63 b5 01 3d
        E 63 b5 01 3a
        E 63 b5 01 37
        E 63 b5 01 35
        E 63 b5 01 32
        E 63 b5 01 2f
        E 63 b5 01 2c
        E 63 b5 01 29
        E 63 b5 01 26
        E 63 b5 01 24
        E 63 b5 01 22
        E 63 b5 01 1f
        E 63 b5 01 1c
        E 63 b5 01 1a
        E 63 b5 01 18
        E 63 b5 01 15
        E 63 b5 01 13
        E 63 b5 01 11
        E 63 b5 01 0f
        E 63 b5 01 0d
        E 63 b5 01 0b
        E 63 b5 01 09
        E 63 b5 01 09
        E 63 b5 01 07
        E 63 b5 01 06
        E 63 b5 01 04
        E 63 b5 01 03
        E 63 b5 01 02
        E 63 b5 01 01
        E 63 b5 01 00
        E 63 b5 01 00
        E 63 b5 01 00
        E 63 b5 01 00
        E 63 b5 01 00
        E 63 b5 01 00
        E 63 b5 01 00
        E 63 b5 01 00
        E 63 b5 01 00
        E 63 b5 01 01
        E 63 b5 01 02
        E 63 b5 01 03
        E 63 b5 01 04
        E 63 b5 01 05
        E 63 b5 01 06
        E 63 b5 01 08
        E 63 b5 01 09
        E 63 b5 01 0a
        E 63 b5 01 0c
        E 63 b5 01 0e
        E 63 b5 01 10
        E 63 b5 01 12
        E 63 b5 01 14
        E 63 b5 01 16
        E 63 b5 01 19
        E 63 b5 01 1b
        E 63 b5 01 1d
        E 63 b5 01 20
        E 63 b5 01 23
        E 63 b5 01 25
        E 63 b5 01 28
        E 63 b5 01 2b
        E 63 b5 01 2d
        E 63 b5 01 30
        E 63 b5 01 33
        E 63 b5 01 36
        E 63 b5 01 39
        E 7 b5 01 19
        E 7 b5 01 1a
        E 7 b5 01 1c
        E 7 b5 01 1d
        E 7 b5 01 1e
        E 7 b5 01 1f
        E 7 b5 01 20
        E 7 b5 01 22
        E 7 b5 01 23
        E 7 b5 01 24
        E 7 b5 01 25
        E 7 b5 01 26
        E 7 b5 01 27
        E 7 b5 01 28
        E 7 b5 01 29
        E 7 b5 01 2a
        E 7 b5 01 2b
        E 7 b5 01 2c
        E 7 b5 01 2d
        E 7 b5 01 2e
        E 7 b5 01 2e
        E 7 b5 01 2f
        E 7 b5 01 30
        E 7 b5 01 30
        E 7 b5 01 30
        E 7 b5 01 31
        E 7 b5 01 31
        E 7 b5 01 32
        E 7 b5 01 32
        E 7 b5 01 32
        E 7 b5 01 32
        E 7 b5 01 32
        E 7 b5 01 32
        E 7 b5 01 32
        E 7 b5 01 32
        E 7 b5 01 32
        E 7 b5 01 32
        E 7 b5 01 32
        E 7 b5 01 31
        E 7 b5 01 31
        E 7 b5 01 30
        E 7 b5 01 30
        E 7 b5 01 2f
        E 7 b5 01 2e
        E 7 b5 01 2e
        E 7 b5 01 2d
        E 7 b5 01 2c
        E 7 b5 01 2c
        E 7 b5 01 2b
        E 7 b5 01 2a
        E 7 b5 01 29
        E 7 b5 01 28
        E 7 b5 01 27
        E 7 b5 01 26
        E 7 b5 01 24
        E 7 b5 01 23
        E 7 b5 01 22
        E 7 b5 01 21
        E 7 b5 01 20
        E 7 b5 01 1f
        E 7 b5 01 1d
        E 7 b5 01 1c
        E 7 b5 01 1b
        E 7 b5 01 1a
        E 7 b5 01 18
        E 7 b5 01 17
        E 7 b5 01 16
        E 7 b5 01 15
        E 7 b5 01 13
        E 7 b5 01 12
        E 7 b5 01 11
        E 7 b5 01 10
        E 7 b5 01 0f
        E 7 b5 01 0e
        E 7 b5 01 0c
        E 7 b5 01 0b
        E 7 b5 01 0a
        E 7 b5 01 09
        E 7 b5 01 08
        E 7 b5 01 07
        E 7 b5 01 06
        E 7 b5 01 06
        E 7 b5 01 05
        E 7 b5 01 04
        E 7 b5 01 04
        E 7 b5 01 03
        E 7 b5 01 02
        E 7 b5 01 02
        E 7 b5 01 01
        E 7 b5 01 01
        E 7 b5 01 00
        E 7 b5 01 00
        E 7 b5 01 00
        E 7 b5 01 00
        E 7 b5 01 00
        E 7 b5 01 00
        E 7 b5 01 00
        E 7 b5 01 00
        E 7 b5 01 00
        E 7 b5 01 00
        E 7 b5 01 00
        E 7 b5 01 01
        E 7 b5 01 01
        E 7 b5 01 02
        E 7 b5 01 02
        E 7 b5 01 02
        E 7 b5 01 03
        E 7 b5 01 04
        E 7 b5 01 04
        E 7 b5 01 05
        E 7 b5 01 06
        E 7 b5 01 07
        E 7 b5 01 08
        E 7 b5 01 09
        E 7 b5 01 0a
        E 7 b5 01 0b
        E 7 b5 01 0c
        E 7 b5 01 0d
        E 7 b5 01 0e
        E 7 b5 01 0f
        E 7 b5 01 10
        E 7 b5 01 12
        E 7 b5 01 13
        E 7 b5 01 14
        E 7 b5 01 15
        E 7 b5 01 16
        E 7 b5 01 18
        E 7 b5 01 19
        E 71 b5 01 06
        E 71 b5 01 06
        E 71 b5 01 07
        E 71 b5 01 07
        E 71 b5 01 07
        E 71 b5 01 07
        E 71 b5 01 08
        E 71 b5 01 08
        E 71 b5 01 08
        E 71 b5 01 09
        E 71 b5 01 09
        E 71 b5 01 09
        E 71 b5 01 09
        E 71 b5 01 0a
        E 71 b5 01 0a
        E 71 b5 01 0a
        E 71 b5 01 0a
        E 71 b5 01 0b
        E 71 b5 01 0b
        E 71 b5 01 0b
        E 71 b5 01 0b
        E 71 b5 01 0b
        E 71 b5 01 0c
        E 71 b5 01 0c
        E 71 b5 01 0c
        E 71 b5 01 0c
        E 71 b5 01 0c
        E 71 b5 01 0c
        E 71 b5 01 0c
        E 71 b5 01 0c
        E 71 b5 01 0c
        E 71 b5 01 0c
        E 71 b5 01 0c
        E 71 b5 01 0c
        E 71 b5 01 0c
        E 71 b5 01 0c
        E 71 b5 01 0c
        E 71 b5 01 0c
        E 71 b5 01 0c
        E 71 b5 01 0c
        E 71 b5 01 0c
        E 71 b5 01 0c
        E 71 b5 01 0b
        E 71 b5 01 0b
        E 71 b5 01 0b
        E 71 b5 01 0b
        E 71 b5 01 0b
        E 71 b5 01 0b
        E 71 b5 01 0a
        E 71 b5 01 0a
        E 71 b5 01 0a
        E 71 b5 01 0a
        E 71 b5 01 09
        E 71 b5 01 09
        E 71 b5 01 09
        E 71 b5 01 08
        E 71 b5 01 08
        E 71 b5 01 08
        E 71 b5 01 08
        E 71 b5 01 07
        E 71 b5 01 07
        E 71 b5 01 07
        E 71 b5 01 06
        E 71 b5 01 06
        E 71 b5 01 06
        E 71 b5 01 05
        E 71 b5 01 05
        E 71 b5 01 05
        E 71 b5 01 04
        E 71 b5 01 04
        E 71 b5 01 04
        E 71 b5 01 04
        E 71 b5 01 03
        E 71 b5 01 03
        E 71 b5 01 03
        E 71 b5 01 02
        E 71 b5 01 02
        E 71 b5 01 02
        E 71 b5 01 02
        E 71 b5 01 01
        E 71 b5 01 01
        E 71 b5 01 01
        E 71 b5 01 01
        E 71 b5 01 01
        E 71 b5 01 01
        E 71 b5 01 00
        E 71 b5 01 00
        E 71 b5 01 00
        E 71 b5 01 00
        E 71 b5 01 00
        E 71 b5 01 00
        E 71 b5 01 00
        E 71 b5 01 00
        E 71 b5 01 00
        E 71 b5 01 00
        E 71 b5 01 00
        E 71 b5 01 00
        E 71 b5 01 00
        E 71 b5 01 00
        E 71 b5 01 00
        E 71 b5 01 00
        E 71 b5 01 00
        E 71 b5 01 00
        E 71 b5 01 00
        E 71 b5 01 00
        E 71 b5 01 00
        E 71 b5 01 00
        E 71 b5 01 01
        E 71 b5 01 01
        E 71 b5 01 01
        E 71 b5 01 01
        E 71 b5 01 01
        E 71 b5 01 02
        E 71 b5 01 02
        E 71 b5 01 02
        E 71 b5 01 02
        E 71 b5 01 03
        E 71 b5 01 03
        E 71 b5 01 03
        E 71 b5 01 03
        E 71 b5 01 04
        E 71 b5 01 04
        E 71 b5 01 04
        E 71 b5 01 05
        E 71 b5 01 05
        E 71 b5 01 05
        E 71 b5 01 06
        E 71 b5 01 06
        E 63 b5 01 2c
        E 63 b5 01 2e
        E 63 b5 01 31
        E 63 b5 01 33
        E 63 b5 01 35
        E 63 b5 01 37
        E 63 b5 01 39
        E 63 b5 01 3b
        E 63 b5 01 3d
        E 63 b5 01 3f
        E 63 b5 01 41
        E 63 b5 01 43
        E 63 b5 01 45
        E 63 b5 01 47
        E 63 b5 01 48
        E 63 b5 01 4a
        E 63 b5 01 4c
        E 63 b5 01 4d
        E 63 b5 01 4f
        E 63 b5 01 50
        E 63 b5 01 51
        E 63 b5 01 52
        E 63 b5 01 54
        E 63 b5 01 54
        E 63 b5 01 55
        E 63 b5 01 56
        E 63 b5 01 56
        E 63 b5 01 57
        E 63 b5 01 58
        E 63 b5 01 58
        E 63 b5 01 58
        E 63 b5 01 58
        E 63 b5 01 58
        E 63 b5 01 58
        E 63 b5 01 58
        E 63 b5 01 58
        E 63 b5 01 58
        E 63 b5 01 57
        E 63 b5 01 56
        E 63 b5 01 56
        E 63 b5 01 55
        E 63 b5 01 54
        E 63 b5 01 53
        E 63 b5 01 51
        E 63 b5 01 51
        E 63 b5 01 4f
        E 63 b5 01 4e
        E 63 b5 01 4d
        E 63 b5 01 4b
        E 63 b5 01 49
        E 63 b5 01 48
        E 63 b5 01 46
        E 63 b5 01 44
        E 63 b5 01 42
        E 63 b5 01 40
        E 63 b5 01 3e
        E 63 b5 01 3c
        E 63 b5 01 3a
        E 63 b5 01 38
        E 63 b5 01 36
        E 63 b5 01 33
        E 63 b5 01 31
        E 63 b5 01 2f
        E 63 b5 01 2d
        E 63 b5 01 2b
        E 63 b5 01 29
        E 63 b5 01 27
        E 63 b5 01 25
        E 63 b5 01 22
        E 63 b5 01 20
        E 63 b5 01 1e
        E 63 b5 01 1c
        E 63 b5 01 1a
        E 63 b5 01 18
        E 63 b5 01 16
        E 63 b5 01 14
        E 63 b5 01 12
        E 63 b5 01 10
        E 63 b5 01 0f
        E 63 b5 01 0d
        E 63 b5 01 0b
        E 63 b5 01 0a
        E 63 b5 01 09
        E 63 b5 01 07
        E 63 b5 01 07
        E 63 b5 01 05
        E 63 b5 01 04
        E 63 b5 01 03
        E 63 b5 01 02
        E 63 b5 01 02
        E 63 b5 01 01
        E 63 b5 01 00
        E 63 b5 01 00
        E 63 b5 01 00
        E 63 b5 01 00
        E 63 b5 01 00
        E 63 b5 01 00
        E 63 b5 01 00
        E 63 b5 01 00
        E 63 b5 01 00
        E 63 b5 01 01
        E 63 b5 01 02
        E 63 b5 01 02
        E 63 b5 01 03
        E 63 b5 01 04
        E 63 b5 01 04
        E 63 b5 01 06
        E 63 b5 01 07
        E 63 b5 01 08
        E 63 b5 01 09
        E 63 b5 01 0b
        E 63 b5 01 0c
        E 63 b5 01 0e
        E 63 b5 01 10
        E 63 b5 01 11
        E 63 b5 01 13
        E 63 b5 01 15
        E 63 b5 01 17
        E 63 b5 01 19
        E 63 b5 01 1b
        E 63 b5 01 1d
        E 63 b5 01 1f
        E 63 b5 01 21
        E 63 b5 01 23
        E 63 b5 01 25
        E 63 b5 01 27
        E 63 b5 01 2a
        E 63 b5 01 2c
        E 71 b5 01 13
        E 71 b5 01 14
        E 71 b5 01 15
        E 71 b5 01 15
        E 71 b5 01 16
        E 71 b5 01 17
        E 71 b5 01 18
        E 71 b5 01 19
        E 71 b5 01 1a
        E 71 b5 01 1b
        E 71 b5 01 1c
        E 71 b5 01 1c
        E 71 b5 01 1d
        E 71 b5 01 1e
        E 71 b5 01 1f
        E 71 b5 01 1f
        E 71 b5 01 20
        E 71 b5 01 21
        E 71 b5 01 21
        E 71 b5 01 22
        E 71 b5 01 23
        E 71 b5 01 23
        E 71 b5 01 24
        E 71 b5 01 24
        E 71 b5 01 24
        E 71 b5 01 24
        E 71 b5 01 25
        E 71 b5 01 25
        E 71 b5 01 25
        E 71 b5 01 25
        E 71 b5 01 26
        E 71 b5 01 26
        E 71 b5 01 26
        E 71 b5 01 26
        E 71 b5 01 26
        E 71 b5 01 25
        E 71 b5 01 25
        E 71 b5 01 25
        E 71 b5 01 25
        E 71 b5 01 24
        E 71 b5 01 24
        E 71 b5 01 24
        E 71 b5 01 23
        E 71 b5 01 23
        E 71 b5 01 22
        E 71 b5 01 22
        E 71 b5 01 21
        E 71 b5 01 21
        E 71 b5 01 20
        E 71 b5 01 1f
        E 71 b5 01 1e
        E 71 b5 01 1e
        E 71 b5 01 1d
        E 71 b5 01 1c
        E 71 b5 01 1b
        E 71 b5 01 1a
        E 71 b5 01 1a
        E 71 b5 01 19
        E 71 b5 01 18
        E 71 b5 01 17
        E 71 b5 01 16
        E 71 b5 01 15
        E 71 b5 01 14
        E 71 b5 01 13
        E 71 b5 01 12
        E 71 b5 01 11
        E 71 b5 01 10
        E 71 b5 01 0f
        E 71 b5 01 0e
        E 71 b5 01 0d
        E 71 b5 01 0c
        E 71 b5 01 0c
        E 71 b5 01 0b
        E 71 b5 01 0a
        E 71 b5 01 09
        E 71 b5 01 08
        E 71 b5 01 08
        E 71 b5 01 07
        E 71 b5 01 06
        E 71 b5 01 05
        E 71 b5 01 05
        E 71 b5 01 04
        E 71 b5 01 03
        E 71 b5 01 03
        E 71 b5 01 03
        E 71 b5 01 02
        E 71 b5 01 02
        E 71 b5 01 01
        E 71 b5 01 01
        E 71 b5 01 00
        E 71 b5 01 00
        E 71 b5 01 00
        E 71 b5 01 00
        E 71 b5 01 00
        E 71 b5 01 00
        E 71 b5 01 00
        E 71 b5 01 00
        E 71 b5 01 00
        E 71 b5 01 00
        E 71 b5 01 00
        E 71 b5 01 00
        E 71 b5 01 00
        E 71 b5 01 01
        E 71 b5 01 01
        E 71 b5 01 01
        E 71 b5 01 02
        E 71 b5 01 02
        E 71 b5 01 03
        E 71 b5 01 03
        E 71 b5 01 04
        E 71 b5 01 04
        E 71 b5 01 05
        E 71 b5 01 06
        E 71 b5 01 06
        E 71 b5 01 07
        E 71 b5 01 08
        E 71 b5 01 09
        E 71 b5 01 09
        E 71 b5 01 0a
        E 71 b5 01 0b
        E 71 b5 01 0c
        E 71 b5 01 0d
        E 71 b5 01 0e
        E 71 b5 01 0f
        E 71 b5 01 10
        E 71 b5 01 11
        E 71 b5 01 12
        E 71 b5 01 13
        E 23 b5 01 26
        E 23 b5 01 28
        E 23 b5 01 2a
        E 23 b5 01 2b
        E 23 b5 01 2d
        E 23 b5 01 2f
        E 23 b5 01 31
        E 23 b5 01 33
        E 23 b5 01 34
        E 23 b5 01 36
        E 23 b5 01 38
        E 23 b5 01 39
        E 23 b5 01 3b
        E 23 b5 01 3d
        E 23 b5 01 3e
        E 23 b5 01 3f
        E 23 b5 01 41
        E 23 b5 01 42
        E 23 b5 01 43
        E 23 b5 01 45
        E 23 b5 01 46
        E 23 b5 01 46
        E 23 b5 01 48
        E 23 b5 01 48
        E 23 b5 01 49
        E 23 b5 01 49
        E 23 b5 01 4a
        E 23 b5 01 4b
        E 23 b5 01 4b
        E 23 b5 01 4b
        E 23 b5 01 4c
        E 23 b5 01 4c
        E 23 b5 01 4c
        E 23 b5 01 4c
        E 23 b5 01 4c
        E 23 b5 01 4b
        E 23 b5 01 4b
        E 23 b5 01 4b
        E 23 b5 01 4a
        E 23 b5 01 49
        E 23 b5 01 49
        E 23 b5 01 48
        E 23 b5 01 47
        E 23 b5 01 46
        E 23 b5 01 45
        E 23 b5 01 44
        E 23 b5 01 43
        E 23 b5 01 42
        E 23 b5 01 40
        E 23 b5 01 3f
        E 23 b5 01 3d
        E 23 b5 01 3c
        E 23 b5 01 3a
        E 23 b5 01 39
        E 23 b5 01 37
        E 23 b5 01 35
        E 23 b5 01 34
        E 23 b5 01 32
        E 23 b5 01 30
        E 23 b5 01 2e
        E 23 b5 01 2c
        E 23 b5 01 2a
        E 23 b5 01 28
        E 23 b5 01 27
        E 23 b5 01 25
        E 23 b5 01 23
        E 23 b5 01 21
        E 23 b5 01 1f
        E 23 b5 01 1d
        E 23 b5 01 1b
        E 23 b5 01 19
        E 23 b5 01 18
        E 23 b5 01 16
        E 23 b5 01 15
        E 23 b5 01 13
        E 23 b5 01 11
        E 23 b5 01 10
        E 23 b5 01 0e
        E 23 b5 01 0d
        E 23 b5 01 0b
        E 23 b5 01 0a
        E 23 b5 01 09
        E 23 b5 01 07
        E 23 b5 01 06
        E 23 b5 01 06
        E 23 b5 01 04
        E 23 b5 01 04
        E 23 b5 01 03
        E 23 b5 01 02
        E 23 b5 01 01
        E 23 b5 01 01
        E 23 b5 01 00
        E 23 b5 01 00
        E 23 b5 01 00
        E 23 b5 01 00
        E 23 b5 01 00
        E 23 b5 01 00
        E 23 b5 01 00
        E 23 b5 01 00
        E 23 b5 01 00
        E 23 b5 01 01
        E 23 b5 01 01
        E 23 b5 01 02
        E 23 b5 01 03
        E 23 b5 01 03
        E 23 b5 01 04
        E 23 b5 01 05
        E 23 b5 01 06
        E 23 b5 01 07
        E 23 b5 01 08
        E 23 b5 01 09
        E 23 b5 01 0a
        E 23 b5 01 0c
        E 23 b5 01 0d
        E 23 b5 01 0f
        E 23 b5 01 10
        E 23 b5 01 12
        E 23 b5 01 13
        E 23 b5 01 15
        E 23 b5 01 17
        E 23 b5 01 19
        E 23 b5 01 1b
        E 23 b5 01 1c
        E 23 b5 01 1e
        E 23 b5 01 20
        E 23 b5 01 22
        E 23 b5 01 24
        E 23 b5 01 26
        E 63 b5 01 39
        E 63 b5 01 3c
        E 63 b5 01 3f
        E 63 b5 01 41
        E 63 b5 01 44
        E 63 b5 01 47
        E 63 b5 01 49
        E 63 b5 01 4c
        E 63 b5 01 4f
        E 63 b5 01 51
        E 63 b5 01 54
        E 63 b5 01 56
        E 63 b5 01 59
        E 63 b5 01 5b
        E 63 b5 01 5d
        E 63 b5 01 5f
        E 63 b5 01 62
        E 63 b5 01 63
        E 63 b5 01 65
        E 63 b5 01 67
        E 63 b5 01 69
        E 63 b5 01 6a
        E 63 b5 01 6c
        E 63 b5 01 6c
        E 63 b5 01 6d
        E 63 b5 01 6e
        E 63 b5 01 6f
        E 63 b5 01 70
        E 63 b5 01 71
        E 63 b5 01 71
        E 63 b5 01 72
        E 63 b5 01 72
        E 63 b5 01 72
        E 63 b5 01 72
        E 63 b5 01 72
        E 63 b5 01 71
        E 63 b5 01 71
        E 63 b5 01 70
        E 63 b5 01 6f
        E 63 b5 01 6e
        E 63 b5 01 6d
        E 63 b5 01 6c
        E 63 b5 01 6b
        E 63 b5 01 69
        E 63 b5 01 68
        E 63 b5 01 66
        E 63 b5 01 64
        E 63 b5 01 63
        E 63 b5 01 61
        E 63 b5 01 5e
        E 63 b5 01 5c
        E 63 b5 01 5a
        E 63 b5 01 58
        E 63 b5 01 55
        E 63 b5 01 52
        E 63 b5 01 50
        E 63 b5 01 4e
        E 63 b5 01 4b
        E 63 b5 01 48
        E 63 b5 01 46
        E 63 b5 01 42
        E 63 b5 01 3f
        E 63 b5 01 3d
        E 63 b5 01 3a
        E 63 b5 01 37
        E 63 b5 01 35
        E 63 b5 01 32
        E 63 b5 01 2f
        E 63 b5 01 2c
        E 63 b5 01 29
        E 63 b5 01 26
        E 63 b5 01 24
        E 63 b5 01 22
        E 63 b5 01 1f
        E 63 b5 01 1c
        E 63 b5 01 1a
        E 63 b5 01 18
        E 63 b5 01 15
        E 63 b5 01 13
        E 63 b5 01 11
        E 63 b5 01 0f
        E 63 b5 01 0d
        E 63 b5 01 0b
        E 63 b5 01 09
        E 63 b5 01 09
        E 63 b5 01 07
        E 63 b5 01 06
        E 63 b5 01 04
        E 63 b5 01 03
        E 63 b5 01 02
        E 63 b5 01 01
        E 63 b5 01 00
        E 63 b5 01 00
        E 63 b5 01 00
        E 63 b5 01 00
        E 63 b5 01 00
        E 63 b5 01 00
        E 63 b5 01 00
        E 63 b5 01 00
        E 63 b5 01 00
        E 63 b5 01 01
        E 63 b5 01 02
        E 63 b5 01 03
        E 63 b5 01 04
        E 63 b5 01 05
        E 63 b5 01 06
        E 63 b5 01 08
        E 63 b5 01 09
        E 63 b5 01 0a
        E 63 b5 01 0c
        E 63 b5 01 0e
        E 63 b5 01 10
        E 63 b5 01 12
        E 63 b5 01 14
        E 63 b5 01 16
        E 63 b5 01 19
        E 63 b5 01 1b
        E 63 b5 01 1d
        E 63 b5 01 20
        E 63 b5 01 23
        E 63 b5 01 25
        E 63 b5 01 28
        E 63 b5 01 2b
        E 63 b5 01 2d
        E 63 b5 01 30
        E 63 b5 01 33
        E 63 b5 01 36
        E 63 b5 01 39
        E 7 b5 01 19
        E 7 b5 01 1a
        E 7 b5 01 1c
        E 7 b5 01 1d
        E 7 b5 01 1e
        E 7 b5 01 1f
        E 7 b5 01 20
        E 7 b5 01 22
        E 7 b5 01 23
        E 7 b5 01 24
        E 7 b5 01 25
        E 7 b5 01 26
        E 7 b5 01 27
        E 7 b5 01 28
        E 7 b5 01 29
        E 7 b5 01 2a
        E 7 b5 01 2b
        E 7 b5 01 2c
        E 7 b5 01 2d
        E 7 b5 01 2e
        E 7 b5 01 2e
        E 7 b5 01 2f
        E 7 b5 01 30
        E 7 b5 01 30
        E 7 b5 01 30
        E 7 b5 01 31
        E 7 b5 01 31
        E 7 b5 01 32
        E 7 b5 01 32
        E 7 b5 01 32
        E 7 b5 01 32
        E 7 b5 01 32
        E 7 b5 01 32
        E 7 b5 01 32
        E 7 b5 01 32
        E 7 b5 01 32
        E 7 b5 01 32
        E 7 b5 01 32
        E 7 b5 01 31
        E 7 b5 01 31
        E 7 b5 01 30
        E 7 b5 01 30
        E 7 b5 01 2f
        E 7 b5 01 2e
        E 7 b5 01 2e
        E 7 b5 01 2d
        E 7 b5 01 2c
        E 7 b5 01 2c
        E 7 b5 01 2b
        E 7 b5 01 2a
        E 7 b5 01 29
        E 7 b5 01 28
        E 7 b5 01 27
        E 7 b5 01 26
        E 7 b5 01 24
        E 7 b5 01 23
        E 7 b5 01 22
        E 7 b5 01 21
        E 7 b5 01 20
        E 7 b5 01 1f
        E 7 b5 01 1d
        E 7 b5 01 1c
        E 7 b5 01 1b
        E 7 b5 01 1a
        E 7 b5 01 18
        E 7 b5 01 17
        E 7 b5 01 16
        E 7 b5 01 15
        E 7 b5 01 13
        E 7 b5 01 12
        E 7 b5 01 11
        E 7 b5 01 10
        E 7 b5 01 0f
        E 7 b5 01 0e
        E 7 b5 01 0c
        E 7 b5 01 0b
        E 7 b5 01 0a
        E 7 b5 01 09
        E 7 b5 01 08
        E 7 b5 01 07
        E 7 b5 01 06
        E 7 b5 01 06
        E 7 b5 01 05
        E 7 b5 01 04
        E 7 b5 01 04
        E 7 b5 01 03
        E 7 b5 01 02
        E 7 b5 01 02
        E 7 b5 01 01
        E 7 b5 01 01
        E 7 b5 01 00
        E 7 b5 01 00
        E 7 b5 01 00
        E 7 b5 01 00
        E 7 b5 01 00
        E 7 b5 01 00
        E 7 b5 01 00
        E 7 b5 01 00
        E 7 b5 01 00
        E 7 b5 01 00
        E 7 b5 01 00
        E 7 b5 01 01
        E 7 b5 01 01
        E 7 b5 01 02
        E 7 b5 01 02
        E 7 b5 01 02
        E 7 b5 01 03
        E 7 b5 01 04
        E 7 b5 01 04
        E 7 b5 01 05
        E 7 b5 01 06
        E 7 b5 01 07
        E 7 b5 01 08
        E 7 b5 01 09
        E 7 b5 01 0a
        E 7 b5 01 0b
        E 7 b5 01 0c
        E 7 b5 01 0d
        E 7 b5 01 0e
        E 7 b5 01 0f
        E 7 b5 01 10
        E 7 b5 01 12
        E 7 b5 01 13
        E 7 b5 01 14
        E 7 b5 01 15
        E 7 b5 01 16
        E 7 b5 01 18
        E 6 b5 01 19
        E 1 b0 7b 00
        CCINTERP 32
        CHASE_CC_TAKEOFFS 1
        GUID {9CF91B87-A09E-8540-A437-B4C4E7D03C45}
        IGNTEMPO 0 120 4 4
        SRCCOLOR 74
        VELLANE 3 601 0
        VELLANE -1 196 0
      >
    >
  >
  <TRACK {F177B338-CA55-4140-ABB1-A6A9D6136B8D}
    NAME "cannabis-infused gummies"
    PEAKCOL 16576
    BEAT -1
    AUTOMODE 0
    VOLPAN 1 0 -1 -1 1
    MUTESOLO 0 0 0
    IPHASE 0
    PLAYOFFS 0 1
    ISBUS 0 0
    BUSCOMP 0 0 0 0 0
    SHOWINMIX 1 0.6667 0.5 1 0.5 0 -1 0
    FREEMODE 0
    SEL 0
    REC 0 0 1 0 0 0 0
    VU 2
    TRACKHEIGHT 0 0 0 0 -1 0
    INQ 0 0 0 0.5 100 0 0 100
    NCHAN 2
    FX 1
    TRACKID {F177B338-CA55-4140-ABB1-A6A9D6136B8D}
    PERF 0
    MIDIOUT -1
    MAINSEND 1 0
    <ITEM
      POSITION 0
      SNAPOFFS 0
      LENGTH 0.612244
      LOOP 1
      ALLTAKES 0
      FADEIN 1 0 0 1 0 0
      FADEOUT 1 0 0 1 0 0
      MUTE 0 0
      SEL 0
      IGUID {46CCD413-6103-964A-8E38-A481057C5294}
      IID 19
      NAME "cannabis-infused gummies.mid"
      VOLPAN 1 0 1 -1
      SOFFS 0 0
      PLAYRATE 1 1 0 -1 0 0.0025
      CHANMODE 0
      GUID {7D49CE10-E3C8-2647-A284-AE5AC1069C10}
      <SOURCE MIDI
        HASDATA 1 128 QN
        CCINTERP 32
        POOLEDEVTS {D09F9EB9-B21E-EF4E-903A-AA5BBD9628CB}
        E 128 b0 7b 00
        CCINTERP 32
        CHASE_CC_TAKEOFFS 1
        GUID {2FFB8FF0-45F1-FC49-AE88-0EF0CF65709F}
        IGNTEMPO 0 120 4 4
        SRCCOLOR 75
        VELLANE 3 601 0
        VELLANE -1 196 0
      >
    >
  >
  <TRACK {8DAF2247-65C8-D148-93A9-E7B46CAB0D13}
    NAME "cannabis-infused gummies"
    PEAKCOL 16576
    BEAT -1
    AUTOMODE 0
    VOLPAN 1 0 -1 -1 1
    MUTESOLO 0 0 0
    IPHASE 0
    PLAYOFFS 0 1
    ISBUS 0 0
    BUSCOMP 0 0 0 0 0
    SHOWINMIX 1 0.6667 0.5 1 0.5 0 -1 0
    FREEMODE 0
    SEL 0
    REC 0 0 1 0 0 0 0
    VU 2
    TRACKHEIGHT 0 0 0 0 -1 0
    INQ 0 0 0 0.5 100 0 0 100
    NCHAN 2
    FX 1
    TRACKID {8DAF2247-65C8-D148-93A9-E7B46CAB0D13}
    PERF 0
    MIDIOUT -1
    MAINSEND 1 0
    <ITEM
      POSITION 0
      SNAPOFFS 0
      LENGTH 0.612244
      LOOP 1
      ALLTAKES 0
      FADEIN 1 0 0 1 0 0
      FADEOUT 1 0 0 1 0 0
      MUTE 0 0
      SEL 0
      IGUID {ADA731D9-A0BC-AD4F-AC57-21F194F2031D}
      IID 20
      NAME "cannabis-infused gummies.mid"
      VOLPAN 1 0 1 -1
      SOFFS 0 0
      PLAYRATE 1 1 0 -1 0 0.0025
      CHANMODE 0
      GUID {E4F81E4C-BB2C-1640-8109-212923A1CBE1}
      <SOURCE MIDI
        HASDATA 1 128 QN
        CCINTERP 32
        POOLEDEVTS {127C1C6E-B31E-0D46-97FD-31A7EFE9A6BB}
        E 128 b0 7b 00
        CCINTERP 32
        CHASE_CC_TAKEOFFS 1
        GUID {859969DD-439E-2343-940D-90074855CC65}
        IGNTEMPO 0 120 4 4
        SRCCOLOR 76
        VELLANE 3 601 0
        VELLANE -1 196 0
      >
    >
  >
  <TRACK {4061DA85-16EA-B249-9AAF-E2D60BF9F598}
    NAME "cannabis-infused gummies"
    PEAKCOL 16576
    BEAT -1
    AUTOMODE 0
    VOLPAN 1 0 -1 -1 1
    MUTESOLO 0 0 0
    IPHASE 0
    PLAYOFFS 0 1
    ISBUS 0 0
    BUSCOMP 0 0 0 0 0
    SHOWINMIX 1 0.6667 0.5 1 0.5 0 -1 0
    FREEMODE 0
    SEL 0
    REC 0 0 1 0 0 0 0
    VU 2
    TRACKHEIGHT 0 0 0 0 -1 0
    INQ 0 0 0 0.5 100 0 0 100
    NCHAN 2
    FX 1
    TRACKID {4061DA85-16EA-B249-9AAF-E2D60BF9F598}
    PERF 0
    MIDIOUT -1
    MAINSEND 1 0
    <ITEM
      POSITION 0
      SNAPOFFS 0
      LENGTH 1711.22198
      LOOP 1
      ALLTAKES 0
      FADEIN 1 0 0 1 0 0
      FADEOUT 1 0 0 1 0 0
      MUTE 0 0
      SEL 0
      IGUID {0CD59F00-3305-8341-8E7E-6D4237D7EA1A}
      IID 21
      NAME "cannabis-infused gummies.mid"
      VOLPAN 1 0 1 -1
      SOFFS 0 0
      PLAYRATE 1 1 0 -1 0 0.0025
      CHANMODE 0
      GUID {DC2CC81E-EAF4-5E4F-84E8-A64269CB5177}
      <SOURCE MIDI
        HASDATA 1 128 QN
        CCINTERP 32
        POOLEDEVTS {4CD139FF-8A46-8645-A04F-80D64979051E}
        E 9 b8 07 08
        E 9 b8 07 1c
        E 9 b8 07 12
        E 9 b8 07 03
        E 9 b8 07 1b
        E 9 b8 07 18
        E 9 b8 07 03
        E 9 b8 07 03
        E 9 b8 07 12
        E 9 b8 07 24
        E 9 b8 07 1e
        E 9 b8 07 21
        E 9 b8 07 17
        E 9 b8 07 04
        E 9 b8 07 07
        E 9 b8 07 19
        E 9 b8 07 15
        E 9 b8 07 0a
        E 9 b8 07 07
        E 9 b8 07 0a
        E 9 b8 07 1d
        E 9 b8 07 11
        E 9 b8 07 09
        E 9 b8 07 15
        E 9 b8 07 25
        E 9 b8 07 00
        E 9 b8 07 04
        E 9 b8 07 0f
        E 9 b8 07 0c
        E 9 b8 07 1f
        E 9 b8 07 08
        E 9 b8 07 02
        E 9 b8 07 06
        E 9 b8 07 06
        E 9 b8 07 22
        E 9 b8 07 09
        E 9 b8 07 00
        E 9 b8 07 1c
        E 9 b8 07 0d
        E 9 b8 07 07
        E 9 b8 07 0f
        E 9 b8 07 09
        E 9 b8 07 20
        E 9 b8 07 20
        E 9 b8 07 26
        E 9 b8 07 1f
        E 9 b8 07 10
        E 9 b8 07 23
        E 9 b8 07 1b
        E 9 b8 07 04
        E 9 b8 07 10
        E 9 b8 07 14
        E 9 b8 07 24
        E 9 b8 07 1d
        E 9 b8 07 14
        E 9 b8 07 15
        E 9 b8 07 01
        E 9 b8 07 03
        E 9 b8 07 23
        E 9 b8 07 1e
        E 9 b8 07 10
        E 9 b8 07 0c
        E 9 b8 07 05
        E 9 b8 07 11
        E 9 b8 07 0b
        E 9 b8 07 09
        E 9 b8 07 0e
        E 9 b8 07 13
        E 9 b8 07 17
        E 9 b8 07 18
        E 9 b8 07 06
        E 9 b8 07 16
        E 9 b8 07 21
        E 9 b8 07 13
        E 9 b8 07 16
        E 9 b8 07 00
        E 9 b8 07 02
        E 9 b8 07 25
        E 9 b8 07 18
        E 9 b8 07 06
        E 9 b8 07 22
        E 9 b8 07 0c
        E 9 b8 07 0e
        E 9 b8 07 12
        E 9 b8 07 0f
        E 9 b8 07 19
        E 9 b8 07 1e
        E 9 b8 07 0b
        E 9 b8 07 15
        E 9 b8 07 08
        E 9 b8 07 22
        E 9 b8 07 1f
        E 9 b8 07 11
        E 9 b8 07 0d
        E 9 b8 07 1e
        E 9 b8 07 0e
        E 9 b8 07 1a
        E 9 b8 07 05
        E 9 b8 07 00
        E 9 b8 07 0c
        E 9 b8 07 13
        E 9 b8 07 20
        E 9 b8 07 1d
        E 9 b8 07 01
        E 9 b8 07 21
        E 9 b8 07 1b
        E 9 b8 07 02
        E 9 b8 07 0b
        E 9 b8 07 16
        E 9 b8 07 1c
        E 9 b8 07 24
        E 9 b8 07 17
        E 9 b8 07 0f
        E 9 b8 07 0a
        E 9 b8 07 1a
        E 9 b8 07 1b
        E 9 b8 07 21
        E 9 b8 07 25
        E 9 b8 07 12
        E 9 b8 07 18
        E 9 b8 07 1a
        E 9 b8 07 14
        E 9 b8 07 23
        E 9 b8 07 05
        E 9 b8 07 0d
        E 9 b8 07 19
        E 4 b8 07 16
        E 4 b8 07 4c
        E 4 b8 07 32
        E 4 b8 07 07
        E 4 b8 07 48
        E 4 b8 07 3f
        E 4 b8 07 09
        E 4 b8 07 08
        E 4 b8 07 30
        E 4 b8 07 5f
        E 4 b8 07 50
        E 4 b8 07 58
        E 4 b8 07 3f
        E 4 b8 07 0b
        E 4 b8 07 13
        E 4 b8 07 44
        E 4 b8 07 37
        E 4 b8 07 1c
        E 4 b8 07 14
        E 4 b8 07 1b
        E 4 b8 07 4f
        E 4 b8 07 2f
        E 4 b8 07 17
        E 4 b8 07 3a
        E 4 b8 07 64
        E 4 b8 07 00
        E 4 b8 07 0c
        E 4 b8 07 29
        E 4 b8 07 22
        E 4 b8 07 53
        E 4 b8 07 15
        E 4 b8 07 06
        E 4 b8 07 0f
        E 4 b8 07 11
        E 4 b8 07 5b
        E 4 b8 07 19
        E 4 b8 07 00
        E 4 b8 07 4b
        E 4 b8 07 23
        E 4 b8 07 14
        E 4 b8 07 28
        E 4 b8 07 1a
        E 4 b8 07 56
        E 4 b8 07 55
        E 4 b8 07 65
        E 4 b8 07 54
        E 4 b8 07 2b
        E 4 b8 07 5e
        E 4 b8 07 48
        E 4 b8 07 0b
        E 4 b8 07 2c
        E 4 b8 07 36
        E 4 b8 07 60
        E 4 b8 07 4d
        E 4 b8 07 37
        E 4 b8 07 38
        E 4 b8 07 04
        E 4 b8 07 0a
        E 4 b8 07 5d
        E 4 b8 07 51
        E 4 b8 07 2b
        E 4 b8 07 1f
        E 4 b8 07 0d
        E 4 b8 07 2d
        E 4 b8 07 1e
        E 4 b8 07 18
        E 4 b8 07 26
        E 4 b8 07 34
        E 4 b8 07 3d
        E 4 b8 07 41
        E 4 b8 07 10
        E 4 b8 07 3c
        E 4 b8 07 5a
        E 4 b8 07 33
        E 4 b8 07 3b
        E 4 b8 07 02
        E 4 b8 07 07
        E 4 b8 07 63
        E 4 b8 07 42
        E 4 b8 07 12
        E 4 b8 07 5c
        E 4 b8 07 20
        E 4 b8 07 27
        E 4 b8 07 31
        E 4 b8 07 28
        E 4 b8 07 44
        E 4 b8 07 52
        E 4 b8 07 1d
        E 4 b8 07 39
        E 4 b8 07 17
        E 4 b8 07 5b
        E 4 b8 07 54
        E 4 b8 07 2e
        E 4 b8 07 24
        E 4 b8 07 50
        E 4 b8 07 25
        E 4 b8 07 47
        E 4 b8 07 0e
        E 4 b8 07 01
        E 4 b8 07 21
        E 4 b8 07 33
        E 4 b8 07 57
        E 4 b8 07 4e
        E 4 b8 07 03
        E 4 b8 07 57
        E 4 b8 07 4a
        E 4 b8 07 05
        E 4 b8 07 1f
        E 4 b8 07 3b
        E 4 b8 07 4c
        E 4 b8 07 61
        E 4 b8 07 3e
        E 4 b8 07 2a
        E 4 b8 07 1b
        E 4 b8 07 46
        E 4 b8 07 49
        E 4 b8 07 59
        E 4 b8 07 63
        E 4 b8 07 2f
        E 4 b8 07 40
        E 4 b8 07 45
        E 4 b8 07 35
        E 4 b8 07 5f
        E 4 b8 07 0f
        E 4 b8 07 24
        E 4 b8 07 43
        E 1 b8 07 02
        E 1 b8 07 09
        E 1 b8 07 06
        E 1 b8 07 01
        E 1 b8 07 09
        E 1 b8 07 08
        E 1 b8 07 01
        E 1 b8 07 01
        E 1 b8 07 06
        E 1 b8 07 0c
        E 1 b8 07 0a
        E 1 b8 07 0b
        E 1 b8 07 07
        E 1 b8 07 01
        E 1 b8 07 02
        E 1 b8 07 08
        E 1 b8 07 07
        E 1 b8 07 03
        E 1 b8 07 02
        E 1 b8 07 03
        E 1 b8 07 09
        E 1 b8 07 05
        E 1 b8 07 03
        E 1 b8 07 07
        E 1 b8 07 0c
        E 1 b8 07 00
        E 1 b8 07 01
        E 1 b8 07 05
        E 1 b8 07 04
        E 1 b8 07 0a
        E 1 b8 07 02
        E 1 b8 07 00
        E 1 b8 07 02
        E 1 b8 07 02
        E 1 b8 07 0b
        E 1 b8 07 03
        E 1 b8 07 00
        E 1 b8 07 09
        E 1 b8 07 04
        E 1 b8 07 02
        E 1 b8 07 05
        E 1 b8 07 03
        E 1 b8 07 0a
        E 1 b8 07 0a
        E 1 b8 07 0c
        E 1 b8 07 0a
        E 1 b8 07 05
        E 1 b8 07 0b
        E 1 b8 07 09
        E 1 b8 07 01
        E 1 b8 07 05
        E 1 b8 07 06
        E 1 b8 07 0c
        E 1 b8 07 09
        E 1 b8 07 06
        E 1 b8 07 07
        E 1 b8 07 00
        E 1 b8 07 01
        E 1 b8 07 0b
        E 1 b8 07 0a
        E 1 b8 07 05
        E 1 b8 07 04
        E 1 b8 07 01
        E 1 b8 07 05
        E 1 b8 07 03
        E 1 b8 07 03
        E 1 b8 07 04
        E 1 b8 07 06
        E 1 b8 07 07
        E 1 b8 07 08
        E 1 b8 07 02
        E 1 b8 07 07
        E 1 b8 07 0b
        E 1 b8 07 06
        E 1 b8 07 07
        E 1 b8 07 00
        E 1 b8 07 00
        E 1 b8 07 0c
        E 1 b8 07 08
        E 1 b8 07 02
        E 1 b8 07 0b
        E 1 b8 07 04
        E 1 b8 07 04
        E 1 b8 07 06
        E 1 b8 07 05
        E 1 b8 07 08
        E 1 b8 07 0a
        E 1 b8 07 03
        E 1 b8 07 07
        E 1 b8 07 02
        E 1 b8 07 0b
        E 1 b8 07 0a
        E 1 b8 07 05
        E 1 b8 07 04
        E 1 b8 07 0a
        E 1 b8 07 04
        E 1 b8 07 08
        E 1 b8 07 01
        E 1 b8 07 00
        E 1 b8 07 04
        E 1 b8 07 06
        E 1 b8 07 0a
        E 1 b8 07 09
        E 1 b8 07 00
        E 1 b8 07 0b
        E 1 b8 07 09
        E 1 b8 07 00
        E 1 b8 07 03
        E 1 b8 07 07
        E 1 b8 07 09
        E 1 b8 07 0c
        E 1 b8 07 07
        E 1 b8 07 05
        E 1 b8 07 03
        E 1 b8 07 08
        E 1 b8 07 09
        E 1 b8 07 0b
        E 1 b8 07 0c
        E 1 b8 07 06
        E 1 b8 07 08
        E 1 b8 07 08
        E 1 b8 07 06
        E 1 b8 07 0b
        E 1 b8 07 01
        E 1 b8 07 04
        E 1 b8 07 08
        E 7 b8 07 19
        E 7 b8 07 56
        E 7 b8 07 38
        E 7 b8 07 09
        E 7 b8 07 51
        E 7 b8 07 48
        E 7 b8 07 0a
        E 7 b8 07 09
        E 7 b8 07 36
        E 7 b8 07 6c
        E 7 b8 07 5a
        E 7 b8 07 63
        E 7 b8 07 47
        E 7 b8 07 0c
        E 7 b8 07 15
        E 7 b8 07 4d
        E 7 b8 07 3f
        E 7 b8 07 20
        E 7 b8 07 16
        E 7 b8 07 1e
        E 7 b8 07 59
        E 7 b8 07 35
        E 7 b8 07 1b
        E 7 b8 07 41
        E 7 b8 07 71
        E 7 b8 07 00
        E 7 b8 07 0e
        E 7 b8 07 2e
        E 7 b8 07 26
        E 7 b8 07 5d
        E 7 b8 07 18
        E 7 b8 07 07
        E 7 b8 07 12
        E 7 b8 07 13
        E 7 b8 07 67
        E 7 b8 07 1c
        E 7 b8 07 00
        E 7 b8 07 54
        E 7 b8 07 27
        E 7 b8 07 17
        E 7 b8 07 2d
        E 7 b8 07 1d
        E 7 b8 07 61
        E 7 b8 07 60
        E 7 b8 07 72
        E 7 b8 07 5f
        E 7 b8 07 31
        E 7 b8 07 6a
        E 7 b8 07 51
        E 7 b8 07 0d
        E 7 b8 07 32
        E 7 b8 07 3d
        E 7 b8 07 6c
        E 7 b8 07 57
        E 7 b8 07 3e
        E 7 b8 07 3f
        E 7 b8 07 05
        E 7 b8 07 0b
        E 7 b8 07 69
        E 7 b8 07 5b
        E 7 b8 07 30
        E 7 b8 07 24
        E 7 b8 07 0f
        E 7 b8 07 33
        E 7 b8 07 22
        E 7 b8 07 1b
        E 7 b8 07 2b
        E 7 b8 07 3b
        E 7 b8 07 45
        E 7 b8 07 49
        E 7 b8 07 12
        E 7 b8 07 44
        E 7 b8 07 65
        E 7 b8 07 3a
        E 7 b8 07 42
        E 7 b8 07 02
        E 7 b8 07 08
        E 7 b8 07 70
        E 7 b8 07 4a
        E 7 b8 07 14
        E 7 b8 07 68
        E 7 b8 07 24
        E 7 b8 07 2c
        E 7 b8 07 37
        E 7 b8 07 2d
        E 7 b8 07 4c
        E 7 b8 07 5c
        E 7 b8 07 21
        E 7 b8 07 40
        E 7 b8 07 1a
        E 7 b8 07 66
        E 7 b8 07 5e
        E 7 b8 07 34
        E 7 b8 07 29
        E 7 b8 07 5a
        E 7 b8 07 2a
        E 7 b8 07 50
        E 7 b8 07 10
        E 7 b8 07 01
        E 7 b8 07 25
        E 7 b8 07 39
        E 7 b8 07 62
        E 7 b8 07 58
        E 7 b8 07 03
        E 7 b8 07 63
        E 7 b8 07 53
        E 7 b8 07 06
        E 7 b8 07 23
        E 7 b8 07 43
        E 7 b8 07 55
        E 7 b8 07 6d
        E 7 b8 07 46
        E 7 b8 07 2f
        E 7 b8 07 1f
        E 7 b8 07 4f
        E 7 b8 07 52
        E 7 b8 07 64
        E 7 b8 07 6f
        E 7 b8 07 36
        E 7 b8 07 48
        E 7 b8 07 4e
        E 7 b8 07 3c
        E 7 b8 07 6b
        E 7 b8 07 11
        E 7 b8 07 28
        E 7 b8 07 4b
        E 3 b8 07 16
        E 3 b8 07 4c
        E 3 b8 07 32
        E 3 b8 07 07
        E 3 b8 07 48
        E 3 b8 07 3f
        E 3 b8 07 09
        E 3 b8 07 08
        E 3 b8 07 30
        E 3 b8 07 5f
        E 3 b8 07 50
        E 3 b8 07 58
        E 3 b8 07 3f
        E 3 b8 07 0b
        E 3 b8 07 13
        E 3 b8 07 44
        E 3 b8 07 37
        E 3 b8 07 1c
        E 3 b8 07 14
        E 3 b8 07 1b
        E 3 b8 07 4f
        E 3 b8 07 2f
        E 3 b8 07 17
        E 3 b8 07 3a
        E 3 b8 07 64
        E 3 b8 07 00
        E 3 b8 07 0c
        E 3 b8 07 29
        E 3 b8 07 22
        E 3 b8 07 53
        E 3 b8 07 15
        E 3 b8 07 06
        E 3 b8 07 0f
        E 3 b8 07 11
        E 3 b8 07 5b
        E 3 b8 07 19
        E 3 b8 07 00
        E 3 b8 07 4b
        E 3 b8 07 23
        E 3 b8 07 14
        E 3 b8 07 28
        E 3 b8 07 1a
        E 3 b8 07 56
        E 3 b8 07 55
        E 3 b8 07 65
        E 3 b8 07 54
        E 3 b8 07 2b
        E 3 b8 07 5e
        E 3 b8 07 48
        E 3 b8 07 0b
        E 3 b8 07 2c
        E 3 b8 07 36
        E 3 b8 07 60
        E 3 b8 07 4d
        E 3 b8 07 37
        E 3 b8 07 38
        E 3 b8 07 04
        E 3 b8 07 0a
        E 3 b8 07 5d
        E 3 b8 07 51
        E 3 b8 07 2b
        E 3 b8 07 1f
        E 3 b8 07 0d
        E 3 b8 07 2d
        E 3 b8 07 1e
        E 3 b8 07 18
        E 3 b8 07 26
        E 3 b8 07 34
        E 3 b8 07 3d
        E 3 b8 07 41
        E 3 b8 07 10
        E 3 b8 07 3c
        E 3 b8 07 5a
        E 3 b8 07 33
        E 3 b8 07 3b
        E 3 b8 07 02
        E 3 b8 07 07
        E 3 b8 07 63
        E 3 b8 07 42
        E 3 b8 07 12
        E 3 b8 07 5c
        E 3 b8 07 20
        E 3 b8 07 27
        E 3 b8 07 31
        E 3 b8 07 28
        E 3 b8 07 44
        E 3 b8 07 52
        E 3 b8 07 1d
        E 3 b8 07 39
        E 3 b8 07 17
        E 3 b8 07 5b
        E 3 b8 07 54
        E 3 b8 07 2e
        E 3 b8 07 24
        E 3 b8 07 50
        E 3 b8 07 25
        E 3 b8 07 47
        E 3 b8 07 0e
        E 3 b8 07 01
        E 3 b8 07 21
        E 3 b8 07 33
        E 3 b8 07 57
        E 3 b8 07 4e
        E 3 b8 07 03
        E 3 b8 07 57
        E 3 b8 07 4a
        E 3 b8 07 05
        E 3 b8 07 1f
        E 3 b8 07 3b
        E 3 b8 07 4c
        E 3 b8 07 61
        E 3 b8 07 3e
        E 3 b8 07 2a
        E 3 b8 07 1b
        E 3 b8 07 46
        E 3 b8 07 49
        E 3 b8 07 59
        E 3 b8 07 63
        E 3 b8 07 2f
        E 3 b8 07 40
        E 3 b8 07 45
        E 3 b8 07 35
        E 3 b8 07 5f
        E 3 b8 07 0f
        E 3 b8 07 24
        E 3 b8 07 43
        E 6 b8 07 19
        E 6 b8 07 56
        E 6 b8 07 38
        E 6 b8 07 09
        E 6 b8 07 51
        E 6 b8 07 48
        E 6 b8 07 0a
        E 6 b8 07 09
        E 6 b8 07 36
        E 6 b8 07 6c
        E 6 b8 07 5a
        E 6 b8 07 63
        E 6 b8 07 47
        E 6 b8 07 0c
        E 6 b8 07 15
        E 6 b8 07 4d
        E 6 b8 07 3f
        E 6 b8 07 20
        E 6 b8 07 16
        E 6 b8 07 1e
        E 6 b8 07 59
        E 6 b8 07 35
        E 6 b8 07 1b
        E 6 b8 07 41
        E 6 b8 07 71
        E 6 b8 07 00
        E 6 b8 07 0e
        E 6 b8 07 2e
        E 6 b8 07 26
        E 6 b8 07 5d
        E 6 b8 07 18
        E 6 b8 07 07
        E 6 b8 07 12
        E 6 b8 07 13
        E 6 b8 07 67
        E 6 b8 07 1c
        E 6 b8 07 00
        E 6 b8 07 54
        E 6 b8 07 27
        E 6 b8 07 17
        E 6 b8 07 2d
        E 6 b8 07 1d
        E 6 b8 07 61
        E 6 b8 07 60
        E 6 b8 07 72
        E 6 b8 07 5f
        E 6 b8 07 31
        E 6 b8 07 6a
        E 6 b8 07 51
        E 6 b8 07 0d
        E 6 b8 07 32
        E 6 b8 07 3d
        E 6 b8 07 6c
        E 6 b8 07 57
        E 6 b8 07 3e
        E 6 b8 07 3f
        E 6 b8 07 05
        E 6 b8 07 0b
        E 6 b8 07 69
        E 6 b8 07 5b
        E 6 b8 07 30
        E 6 b8 07 24
        E 6 b8 07 0f
        E 6 b8 07 33
        E 6 b8 07 22
        E 6 b8 07 1b
        E 6 b8 07 2b
        E 6 b8 07 3b
        E 6 b8 07 45
        E 6 b8 07 49
        E 6 b8 07 12
        E 6 b8 07 44
        E 6 b8 07 65
        E 6 b8 07 3a
        E 6 b8 07 42
        E 6 b8 07 02
        E 6 b8 07 08
        E 6 b8 07 70
        E 6 b8 07 4a
        E 6 b8 07 14
        E 6 b8 07 68
        E 6 b8 07 24
        E 6 b8 07 2c
        E 6 b8 07 37
        E 6 b8 07 2d
        E 6 b8 07 4c
        E 6 b8 07 5c
        E 6 b8 07 21
        E 6 b8 07 40
        E 6 b8 07 1a
        E 6 b8 07 66
        E 6 b8 07 5e
        E 6 b8 07 34
        E 6 b8 07 29
        E 6 b8 07 5a
        E 6 b8 07 2a
        E 6 b8 07 50
        E 6 b8 07 10
        E 6 b8 07 01
        E 6 b8 07 25
        E 6 b8 07 39
        E 6 b8 07 62
        E 6 b8 07 58
        E 6 b8 07 03
        E 6 b8 07 63
        E 6 b8 07 53
        E 6 b8 07 06
        E 6 b8 07 23
        E 6 b8 07 43
        E 6 b8 07 55
        E 6 b8 07 6d
        E 6 b8 07 46
        E 6 b8 07 2f
        E 6 b8 07 1f
        E 6 b8 07 4f
        E 6 b8 07 52
        E 6 b8 07 64
        E 6 b8 07 6f
        E 6 b8 07 36
        E 6 b8 07 48
        E 6 b8 07 4e
        E 6 b8 07 3c
        E 6 b8 07 6b
        E 6 b8 07 11
        E 6 b8 07 28
        E 6 b8 07 4b
        E 9 b8 07 08
        E 9 b8 07 1c
        E 9 b8 07 12
        E 9 b8 07 03
        E 9 b8 07 1b
        E 9 b8 07 18
        E 9 b8 07 03
        E 9 b8 07 03
        E 9 b8 07 12
        E 9 b8 07 24
        E 9 b8 07 1e
        E 9 b8 07 21
        E 9 b8 07 17
        E 9 b8 07 04
        E 9 b8 07 07
        E 9 b8 07 19
        E 9 b8 07 15
        E 9 b8 07 0a
        E 9 b8 07 07
        E 9 b8 07 0a
        E 9 b8 07 1d
        E 9 b8 07 11
        E 9 b8 07 09
        E 9 b8 07 15
        E 9 b8 07 25
        E 9 b8 07 00
        E 9 b8 07 04
        E 9 b8 07 0f
        E 9 b8 07 0c
        E 9 b8 07 1f
        E 9 b8 07 08
        E 9 b8 07 02
        E 9 b8 07 06
        E 9 b8 07 06
        E 9 b8 07 22
        E 9 b8 07 09
        E 9 b8 07 00
        E 9 b8 07 1c
        E 9 b8 07 0d
        E 9 b8 07 07
        E 9 b8 07 0f
        E 9 b8 07 09
        E 9 b8 07 20
        E 9 b8 07 20
        E 9 b8 07 26
        E 9 b8 07 1f
        E 9 b8 07 10
        E 9 b8 07 23
        E 9 b8 07 1b
        E 9 b8 07 04
        E 9 b8 07 10
        E 9 b8 07 14
        E 9 b8 07 24
        E 9 b8 07 1d
        E 9 b8 07 14
        E 9 b8 07 15
        E 9 b8 07 01
        E 9 b8 07 03
        E 9 b8 07 23
        E 9 b8 07 1e
        E 9 b8 07 10
        E 9 b8 07 0c
        E 9 b8 07 05
        E 9 b8 07 11
        E 9 b8 07 0b
        E 9 b8 07 09
        E 9 b8 07 0e
        E 9 b8 07 13
        E 9 b8 07 17
        E 9 b8 07 18
        E 9 b8 07 06
        E 9 b8 07 16
        E 9 b8 07 21
        E 9 b8 07 13
        E 9 b8 07 16
        E 9 b8 07 00
        E 9 b8 07 02
        E 9 b8 07 25
        E 9 b8 07 18
        E 9 b8 07 06
        E 9 b8 07 22
        E 9 b8 07 0c
        E 9 b8 07 0e
        E 9 b8 07 12
        E 9 b8 07 0f
        E 9 b8 07 19
        E 9 b8 07 1e
        E 9 b8 07 0b
        E 9 b8 07 15
        E 9 b8 07 08
        E 9 b8 07 22
        E 9 b8 07 1f
        E 9 b8 07 11
        E 9 b8 07 0d
        E 9 b8 07 1e
        E 9 b8 07 0e
        E 9 b8 07 1a
        E 9 b8 07 05
        E 9 b8 07 00
        E 9 b8 07 0c
        E 9 b8 07 13
        E 9 b8 07 20
        E 9 b8 07 1d
        E 9 b8 07 01
        E 9 b8 07 21
        E 9 b8 07 1b
        E 9 b8 07 02
        E 9 b8 07 0b
        E 9 b8 07 16
        E 9 b8 07 1c
        E 9 b8 07 24
        E 9 b8 07 17
        E 9 b8 07 0f
        E 9 b8 07 0a
        E 9 b8 07 1a
        E 9 b8 07 1b
        E 9 b8 07 21
        E 9 b8 07 25
        E 9 b8 07 12
        E 9 b8 07 18
        E 9 b8 07 1a
        E 9 b8 07 14
        E 9 b8 07 23
        E 9 b8 07 05
        E 9 b8 07 0d
        E 9 b8 07 19
        E 4 b8 07 16
        E 4 b8 07 4c
        E 4 b8 07 32
        E 4 b8 07 07
        E 4 b8 07 48
        E 4 b8 07 3f
        E 4 b8 07 09
        E 4 b8 07 08
        E 4 b8 07 30
        E 4 b8 07 5f
        E 4 b8 07 50
        E 4 b8 07 58
        E 4 b8 07 3f
        E 4 b8 07 0b
        E 4 b8 07 13
        E 4 b8 07 44
        E 4 b8 07 37
        E 4 b8 07 1c
        E 4 b8 07 14
        E 4 b8 07 1b
        E 4 b8 07 4f
        E 4 b8 07 2f
        E 4 b8 07 17
        E 4 b8 07 3a
        E 4 b8 07 64
        E 4 b8 07 00
        E 4 b8 07 0c
        E 4 b8 07 29
        E 4 b8 07 22
        E 4 b8 07 53
        E 4 b8 07 15
        E 4 b8 07 06
        E 4 b8 07 0f
        E 4 b8 07 11
        E 4 b8 07 5b
        E 4 b8 07 19
        E 4 b8 07 00
        E 4 b8 07 4b
        E 4 b8 07 23
        E 4 b8 07 14
        E 4 b8 07 28
        E 4 b8 07 1a
        E 4 b8 07 56
        E 4 b8 07 55
        E 4 b8 07 65
        E 4 b8 07 54
        E 4 b8 07 2b
        E 4 b8 07 5e
        E 4 b8 07 48
        E 4 b8 07 0b
        E 4 b8 07 2c
        E 4 b8 07 36
        E 4 b8 07 60
        E 4 b8 07 4d
        E 4 b8 07 37
        E 4 b8 07 38
        E 4 b8 07 04
        E 4 b8 07 0a
        E 4 b8 07 5d
        E 4 b8 07 51
        E 4 b8 07 2b
        E 4 b8 07 1f
        E 4 b8 07 0d
        E 4 b8 07 2d
        E 4 b8 07 1e
        E 4 b8 07 18
        E 4 b8 07 26
        E 4 b8 07 34
        E 4 b8 07 3d
        E 4 b8 07 41
        E 4 b8 07 10
        E 4 b8 07 3c
        E 4 b8 07 5a
        E 4 b8 07 33
        E 4 b8 07 3b
        E 4 b8 07 02
        E 4 b8 07 07
        E 4 b8 07 63
        E 4 b8 07 42
        E 4 b8 07 12
        E 4 b8 07 5c
        E 4 b8 07 20
        E 4 b8 07 27
        E 4 b8 07 31
        E 4 b8 07 28
        E 4 b8 07 44
        E 4 b8 07 52
        E 4 b8 07 1d
        E 4 b8 07 39
        E 4 b8 07 17
        E 4 b8 07 5b
        E 4 b8 07 54
        E 4 b8 07 2e
        E 4 b8 07 24
        E 4 b8 07 50
        E 4 b8 07 25
        E 4 b8 07 47
        E 4 b8 07 0e
        E 4 b8 07 01
        E 4 b8 07 21
        E 4 b8 07 33
        E 4 b8 07 57
        E 4 b8 07 4e
        E 4 b8 07 03
        E 4 b8 07 57
        E 4 b8 07 4a
        E 4 b8 07 05
        E 4 b8 07 1f
        E 4 b8 07 3b
        E 4 b8 07 4c
        E 4 b8 07 61
        E 4 b8 07 3e
        E 4 b8 07 2a
        E 4 b8 07 1b
        E 4 b8 07 46
        E 4 b8 07 49
        E 4 b8 07 59
        E 4 b8 07 63
        E 4 b8 07 2f
        E 4 b8 07 40
        E 4 b8 07 45
        E 4 b8 07 35
        E 4 b8 07 5f
        E 4 b8 07 0f
        E 4 b8 07 24
        E 4 b8 07 43
        E 1 b8 07 02
        E 1 b8 07 09
        E 1 b8 07 06
        E 1 b8 07 01
        E 1 b8 07 09
        E 1 b8 07 08
        E 1 b8 07 01
        E 1 b8 07 01
        E 1 b8 07 06
        E 1 b8 07 0c
        E 1 b8 07 0a
        E 1 b8 07 0b
        E 1 b8 07 07
        E 1 b8 07 01
        E 1 b8 07 02
        E 1 b8 07 08
        E 1 b8 07 07
        E 1 b8 07 03
        E 1 b8 07 02
        E 1 b8 07 03
        E 1 b8 07 09
        E 1 b8 07 05
        E 1 b8 07 03
        E 1 b8 07 07
        E 1 b8 07 0c
        E 1 b8 07 00
        E 1 b8 07 01
        E 1 b8 07 05
        E 1 b8 07 04
        E 1 b8 07 0a
        E 1 b8 07 02
        E 1 b8 07 00
        E 1 b8 07 02
        E 1 b8 07 02
        E 1 b8 07 0b
        E 1 b8 07 03
        E 1 b8 07 00
        E 1 b8 07 09
        E 1 b8 07 04
        E 1 b8 07 02
        E 1 b8 07 05
        E 1 b8 07 03
        E 1 b8 07 0a
        E 1 b8 07 0a
        E 1 b8 07 0c
        E 1 b8 07 0a
        E 1 b8 07 05
        E 1 b8 07 0b
        E 1 b8 07 09
        E 1 b8 07 01
        E 1 b8 07 05
        E 1 b8 07 06
        E 1 b8 07 0c
        E 1 b8 07 09
        E 1 b8 07 06
        E 1 b8 07 07
        E 1 b8 07 00
        E 1 b8 07 01
        E 1 b8 07 0b
        E 1 b8 07 0a
        E 1 b8 07 05
        E 1 b8 07 04
        E 1 b8 07 01
        E 1 b8 07 05
        E 1 b8 07 03
        E 1 b8 07 03
        E 1 b8 07 04
        E 1 b8 07 06
        E 1 b8 07 07
        E 1 b8 07 08
        E 1 b8 07 02
        E 1 b8 07 07
        E 1 b8 07 0b
        E 1 b8 07 06
        E 1 b8 07 07
        E 1 b8 07 00
        E 1 b8 07 00
        E 1 b8 07 0c
        E 1 b8 07 08
        E 1 b8 07 02
        E 1 b8 07 0b
        E 1 b8 07 04
        E 1 b8 07 04
        E 1 b8 07 06
        E 1 b8 07 05
        E 1 b8 07 08
        E 1 b8 07 0a
        E 1 b8 07 03
        E 1 b8 07 07
        E 1 b8 07 02
        E 1 b8 07 0b
        E 1 b8 07 0a
        E 1 b8 07 05
        E 1 b8 07 04
        E 1 b8 07 0a
        E 1 b8 07 04
        E 1 b8 07 08
        E 1 b8 07 01
        E 1 b8 07 00
        E 1 b8 07 04
        E 1 b8 07 06
        E 1 b8 07 0a
        E 1 b8 07 09
        E 1 b8 07 00
        E 1 b8 07 0b
        E 1 b8 07 09
        E 1 b8 07 00
        E 1 b8 07 03
        E 1 b8 07 07
        E 1 b8 07 09
        E 1 b8 07 0c
        E 1 b8 07 07
        E 1 b8 07 05
        E 1 b8 07 03
        E 1 b8 07 08
        E 1 b8 07 09
        E 1 b8 07 0b
        E 1 b8 07 0c
        E 1 b8 07 06
        E 1 b8 07 08
        E 1 b8 07 08
        E 1 b8 07 06
        E 1 b8 07 0b
        E 1 b8 07 01
        E 1 b8 07 04
        E 1 b8 07 08
        E 7 b8 07 19
        E 7 b8 07 56
        E 7 b8 07 38
        E 7 b8 07 09
        E 7 b8 07 51
        E 7 b8 07 48
        E 7 b8 07 0a
        E 7 b8 07 09
        E 7 b8 07 36
        E 7 b8 07 6c
        E 7 b8 07 5a
        E 7 b8 07 63
        E 7 b8 07 47
        E 7 b8 07 0c
        E 7 b8 07 15
        E 7 b8 07 4d
        E 7 b8 07 3f
        E 7 b8 07 20
        E 7 b8 07 16
        E 7 b8 07 1e
        E 7 b8 07 59
        E 7 b8 07 35
        E 7 b8 07 1b
        E 7 b8 07 41
        E 7 b8 07 71
        E 7 b8 07 00
        E 7 b8 07 0e
        E 7 b8 07 2e
        E 7 b8 07 26
        E 7 b8 07 5d
        E 7 b8 07 18
        E 7 b8 07 07
        E 7 b8 07 12
        E 7 b8 07 13
        E 7 b8 07 67
        E 7 b8 07 1c
        E 7 b8 07 00
        E 7 b8 07 54
        E 7 b8 07 27
        E 7 b8 07 17
        E 7 b8 07 2d
        E 7 b8 07 1d
        E 7 b8 07 61
        E 7 b8 07 60
        E 7 b8 07 72
        E 7 b8 07 5f
        E 7 b8 07 31
        E 7 b8 07 6a
        E 7 b8 07 51
        E 7 b8 07 0d
        E 7 b8 07 32
        E 7 b8 07 3d
        E 7 b8 07 6c
        E 7 b8 07 57
        E 7 b8 07 3e
        E 7 b8 07 3f
        E 7 b8 07 05
        E 7 b8 07 0b
        E 7 b8 07 69
        E 7 b8 07 5b
        E 7 b8 07 30
        E 7 b8 07 24
        E 7 b8 07 0f
        E 7 b8 07 33
        E 7 b8 07 22
        E 7 b8 07 1b
        E 7 b8 07 2b
        E 7 b8 07 3b
        E 7 b8 07 45
        E 7 b8 07 49
        E 7 b8 07 12
        E 7 b8 07 44
        E 7 b8 07 65
        E 7 b8 07 3a
        E 7 b8 07 42
        E 7 b8 07 02
        E 7 b8 07 08
        E 7 b8 07 70
        E 7 b8 07 4a
        E 7 b8 07 14
        E 7 b8 07 68
        E 7 b8 07 24
        E 7 b8 07 2c
        E 7 b8 07 37
        E 7 b8 07 2d
        E 7 b8 07 4c
        E 7 b8 07 5c
        E 7 b8 07 21
        E 7 b8 07 40
        E 7 b8 07 1a
        E 7 b8 07 66
        E 7 b8 07 5e
        E 7 b8 07 34
        E 7 b8 07 29
        E 7 b8 07 5a
        E 7 b8 07 2a
        E 7 b8 07 50
        E 7 b8 07 10
        E 7 b8 07 01
        E 7 b8 07 25
        E 7 b8 07 39
        E 7 b8 07 62
        E 7 b8 07 58
        E 7 b8 07 03
        E 7 b8 07 63
        E 7 b8 07 53
        E 7 b8 07 06
        E 7 b8 07 23
        E 7 b8 07 43
        E 7 b8 07 55
        E 7 b8 07 6d
        E 7 b8 07 46
        E 7 b8 07 2f
        E 7 b8 07 1f
        E 7 b8 07 4f
        E 7 b8 07 52
        E 7 b8 07 64
        E 7 b8 07 6f
        E 7 b8 07 36
        E 7 b8 07 48
        E 7 b8 07 4e
        E 7 b8 07 3c
        E 7 b8 07 6b
        E 7 b8 07 11
        E 7 b8 07 28
        E 7 b8 07 4b
        E 3 b8 07 16
        E 3 b8 07 4c
        E 3 b8 07 32
        E 3 b8 07 07
        E 3 b8 07 48
        E 3 b8 07 3f
        E 3 b8 07 09
        E 3 b8 07 08
        E 3 b8 07 30
        E 3 b8 07 5f
        E 3 b8 07 50
        E 3 b8 07 58
        E 3 b8 07 3f
        E 3 b8 07 0b
        E 3 b8 07 13
        E 3 b8 07 44
        E 3 b8 07 37
        E 3 b8 07 1c
        E 3 b8 07 14
        E 3 b8 07 1b
        E 3 b8 07 4f
        E 3 b8 07 2f
        E 3 b8 07 17
        E 3 b8 07 3a
        E 3 b8 07 64
        E 3 b8 07 00
        E 3 b8 07 0c
        E 3 b8 07 29
        E 3 b8 07 22
        E 3 b8 07 53
        E 3 b8 07 15
        E 3 b8 07 06
        E 3 b8 07 0f
        E 3 b8 07 11
        E 3 b8 07 5b
        E 3 b8 07 19
        E 3 b8 07 00
        E 3 b8 07 4b
        E 3 b8 07 23
        E 3 b8 07 14
        E 3 b8 07 28
        E 3 b8 07 1a
        E 3 b8 07 56
        E 3 b8 07 55
        E 3 b8 07 65
        E 3 b8 07 54
        E 3 b8 07 2b
        E 3 b8 07 5e
        E 3 b8 07 48
        E 3 b8 07 0b
        E 3 b8 07 2c
        E 3 b8 07 36
        E 3 b8 07 60
        E 3 b8 07 4d
        E 3 b8 07 37
        E 3 b8 07 38
        E 3 b8 07 04
        E 3 b8 07 0a
        E 3 b8 07 5d
        E 3 b8 07 51
        E 3 b8 07 2b
        E 3 b8 07 1f
        E 3 b8 07 0d
        E 3 b8 07 2d
        E 3 b8 07 1e
        E 3 b8 07 18
        E 3 b8 07 26
        E 3 b8 07 34
        E 3 b8 07 3d
        E 3 b8 07 41
        E 3 b8 07 10
        E 3 b8 07 3c
        E 3 b8 07 5a
        E 3 b8 07 33
        E 3 b8 07 3b
        E 3 b8 07 02
        E 3 b8 07 07
        E 3 b8 07 63
        E 3 b8 07 42
        E 3 b8 07 12
        E 3 b8 07 5c
        E 3 b8 07 20
        E 3 b8 07 27
        E 3 b8 07 31
        E 3 b8 07 28
        E 3 b8 07 44
        E 3 b8 07 52
        E 3 b8 07 1d
        E 3 b8 07 39
        E 3 b8 07 17
        E 3 b8 07 5b
        E 3 b8 07 54
        E 3 b8 07 2e
        E 3 b8 07 24
        E 3 b8 07 50
        E 3 b8 07 25
        E 3 b8 07 47
        E 3 b8 07 0e
        E 3 b8 07 01
        E 3 b8 07 21
        E 3 b8 07 33
        E 3 b8 07 57
        E 3 b8 07 4e
        E 3 b8 07 03
        E 3 b8 07 57
        E 3 b8 07 4a
        E 3 b8 07 05
        E 3 b8 07 1f
        E 3 b8 07 3b
        E 3 b8 07 4c
        E 3 b8 07 61
        E 3 b8 07 3e
        E 3 b8 07 2a
        E 3 b8 07 1b
        E 3 b8 07 46
        E 3 b8 07 49
        E 3 b8 07 59
        E 3 b8 07 63
        E 3 b8 07 2f
        E 3 b8 07 40
        E 3 b8 07 45
        E 3 b8 07 35
        E 3 b8 07 5f
        E 3 b8 07 0f
        E 3 b8 07 24
        E 3 b8 07 43
        E 6 b8 07 19
        E 6 b8 07 56
        E 6 b8 07 38
        E 6 b8 07 09
        E 6 b8 07 51
        E 6 b8 07 48
        E 6 b8 07 0a
        E 6 b8 07 09
        E 6 b8 07 36
        E 6 b8 07 6c
        E 6 b8 07 5a
        E 6 b8 07 63
        E 6 b8 07 47
        E 6 b8 07 0c
        E 6 b8 07 15
        E 6 b8 07 4d
        E 6 b8 07 3f
        E 6 b8 07 20
        E 6 b8 07 16
        E 6 b8 07 1e
        E 6 b8 07 59
        E 6 b8 07 35
        E 6 b8 07 1b
        E 6 b8 07 41
        E 6 b8 07 71
        E 6 b8 07 00
        E 6 b8 07 0e
        E 6 b8 07 2e
        E 6 b8 07 26
        E 6 b8 07 5d
        E 6 b8 07 18
        E 6 b8 07 07
        E 6 b8 07 12
        E 6 b8 07 13
        E 6 b8 07 67
        E 6 b8 07 1c
        E 6 b8 07 00
        E 6 b8 07 54
        E 6 b8 07 27
        E 6 b8 07 17
        E 6 b8 07 2d
        E 6 b8 07 1d
        E 6 b8 07 61
        E 6 b8 07 60
        E 6 b8 07 72
        E 6 b8 07 5f
        E 6 b8 07 31
        E 6 b8 07 6a
        E 6 b8 07 51
        E 6 b8 07 0d
        E 6 b8 07 32
        E 6 b8 07 3d
        E 6 b8 07 6c
        E 6 b8 07 57
        E 6 b8 07 3e
        E 6 b8 07 3f
        E 6 b8 07 05
        E 6 b8 07 0b
        E 6 b8 07 69
        E 6 b8 07 5b
        E 6 b8 07 30
        E 6 b8 07 24
        E 6 b8 07 0f
        E 6 b8 07 33
        E 6 b8 07 22
        E 6 b8 07 1b
        E 6 b8 07 2b
        E 6 b8 07 3b
        E 6 b8 07 45
        E 6 b8 07 49
        E 6 b8 07 12
        E 6 b8 07 44
        E 6 b8 07 65
        E 6 b8 07 3a
        E 6 b8 07 42
        E 6 b8 07 02
        E 6 b8 07 08
        E 6 b8 07 70
        E 6 b8 07 4a
        E 6 b8 07 14
        E 6 b8 07 68
        E 6 b8 07 24
        E 6 b8 07 2c
        E 6 b8 07 37
        E 6 b8 07 2d
        E 6 b8 07 4c
        E 6 b8 07 5c
        E 6 b8 07 21
        E 6 b8 07 40
        E 6 b8 07 1a
        E 6 b8 07 66
        E 6 b8 07 5e
        E 6 b8 07 34
        E 6 b8 07 29
        E 6 b8 07 5a
        E 6 b8 07 2a
        E 6 b8 07 50
        E 6 b8 07 10
        E 6 b8 07 01
        E 6 b8 07 25
        E 6 b8 07 39
        E 6 b8 07 62
        E 6 b8 07 58
        E 6 b8 07 03
        E 6 b8 07 63
        E 6 b8 07 53
        E 6 b8 07 06
        E 6 b8 07 23
        E 6 b8 07 43
        E 6 b8 07 55
        E 6 b8 07 6d
        E 6 b8 07 46
        E 6 b8 07 2f
        E 6 b8 07 1f
        E 6 b8 07 4f
        E 6 b8 07 52
        E 6 b8 07 64
        E 6 b8 07 6f
        E 6 b8 07 36
        E 6 b8 07 48
        E 6 b8 07 4e
        E 6 b8 07 3c
        E 6 b8 07 6b
        E 6 b8 07 11
        E 6 b8 07 28
        E 6 b8 07 4b
        E 9 b8 07 08
        E 9 b8 07 1c
        E 9 b8 07 12
        E 9 b8 07 03
        E 9 b8 07 1b
        E 9 b8 07 18
        E 9 b8 07 03
        E 9 b8 07 03
        E 9 b8 07 12
        E 9 b8 07 24
        E 9 b8 07 1e
        E 9 b8 07 21
        E 9 b8 07 17
        E 9 b8 07 04
        E 9 b8 07 07
        E 9 b8 07 19
        E 9 b8 07 15
        E 9 b8 07 0a
        E 9 b8 07 07
        E 9 b8 07 0a
        E 9 b8 07 1d
        E 9 b8 07 11
        E 9 b8 07 09
        E 9 b8 07 15
        E 9 b8 07 25
        E 9 b8 07 00
        E 9 b8 07 04
        E 9 b8 07 0f
        E 9 b8 07 0c
        E 9 b8 07 1f
        E 9 b8 07 08
        E 9 b8 07 02
        E 9 b8 07 06
        E 9 b8 07 06
        E 9 b8 07 22
        E 9 b8 07 09
        E 9 b8 07 00
        E 9 b8 07 1c
        E 9 b8 07 0d
        E 9 b8 07 07
        E 9 b8 07 0f
        E 9 b8 07 09
        E 9 b8 07 20
        E 9 b8 07 20
        E 9 b8 07 26
        E 9 b8 07 1f
        E 9 b8 07 10
        E 9 b8 07 23
        E 9 b8 07 1b
        E 9 b8 07 04
        E 9 b8 07 10
        E 9 b8 07 14
        E 9 b8 07 24
        E 9 b8 07 1d
        E 9 b8 07 14
        E 9 b8 07 15
        E 9 b8 07 01
        E 9 b8 07 03
        E 9 b8 07 23
        E 9 b8 07 1e
        E 9 b8 07 10
        E 9 b8 07 0c
        E 9 b8 07 05
        E 9 b8 07 11
        E 9 b8 07 0b
        E 9 b8 07 09
        E 9 b8 07 0e
        E 9 b8 07 13
        E 9 b8 07 17
        E 9 b8 07 18
        E 9 b8 07 06
        E 9 b8 07 16
        E 9 b8 07 21
        E 9 b8 07 13
        E 9 b8 07 16
        E 9 b8 07 00
        E 9 b8 07 02
        E 9 b8 07 25
        E 9 b8 07 18
        E 9 b8 07 06
        E 9 b8 07 22
        E 9 b8 07 0c
        E 9 b8 07 0e
        E 9 b8 07 12
        E 9 b8 07 0f
        E 9 b8 07 19
        E 9 b8 07 1e
        E 9 b8 07 0b
        E 9 b8 07 15
        E 9 b8 07 08
        E 9 b8 07 22
        E 9 b8 07 1f
        E 9 b8 07 11
        E 9 b8 07 0d
        E 9 b8 07 1e
        E 9 b8 07 0e
        E 9 b8 07 1a
        E 9 b8 07 05
        E 9 b8 07 00
        E 9 b8 07 0c
        E 9 b8 07 13
        E 9 b8 07 20
        E 9 b8 07 1d
        E 9 b8 07 01
        E 9 b8 07 21
        E 9 b8 07 1b
        E 9 b8 07 02
        E 9 b8 07 0b
        E 9 b8 07 16
        E 9 b8 07 1c
        E 9 b8 07 24
        E 9 b8 07 17
        E 9 b8 07 0f
        E 9 b8 07 0a
        E 9 b8 07 1a
        E 9 b8 07 1b
        E 9 b8 07 21
        E 9 b8 07 25
        E 9 b8 07 12
        E 9 b8 07 18
        E 9 b8 07 1a
        E 9 b8 07 14
        E 9 b8 07 23
        E 9 b8 07 05
        E 9 b8 07 0d
        E 9 b8 07 19
        E 4 b8 07 16
        E 4 b8 07 4c
        E 4 b8 07 32
        E 4 b8 07 07
        E 4 b8 07 48
        E 4 b8 07 3f
        E 4 b8 07 09
        E 4 b8 07 08
        E 4 b8 07 30
        E 4 b8 07 5f
        E 4 b8 07 50
        E 4 b8 07 58
        E 4 b8 07 3f
        E 4 b8 07 0b
        E 4 b8 07 13
        E 4 b8 07 44
        E 4 b8 07 37
        E 4 b8 07 1c
        E 4 b8 07 14
        E 4 b8 07 1b
        E 4 b8 07 4f
        E 4 b8 07 2f
        E 4 b8 07 17
        E 4 b8 07 3a
        E 4 b8 07 64
        E 4 b8 07 00
        E 4 b8 07 0c
        E 4 b8 07 29
        E 4 b8 07 22
        E 4 b8 07 53
        E 4 b8 07 15
        E 4 b8 07 06
        E 4 b8 07 0f
        E 4 b8 07 11
        E 4 b8 07 5b
        E 4 b8 07 19
        E 4 b8 07 00
        E 4 b8 07 4b
        E 4 b8 07 23
        E 4 b8 07 14
        E 4 b8 07 28
        E 4 b8 07 1a
        E 4 b8 07 56
        E 4 b8 07 55
        E 4 b8 07 65
        E 4 b8 07 54
        E 4 b8 07 2b
        E 4 b8 07 5e
        E 4 b8 07 48
        E 4 b8 07 0b
        E 4 b8 07 2c
        E 4 b8 07 36
        E 4 b8 07 60
        E 4 b8 07 4d
        E 4 b8 07 37
        E 4 b8 07 38
        E 4 b8 07 04
        E 4 b8 07 0a
        E 4 b8 07 5d
        E 4 b8 07 51
        E 4 b8 07 2b
        E 4 b8 07 1f
        E 4 b8 07 0d
        E 4 b8 07 2d
        E 4 b8 07 1e
        E 4 b8 07 18
        E 4 b8 07 26
        E 4 b8 07 34
        E 4 b8 07 3d
        E 4 b8 07 41
        E 4 b8 07 10
        E 4 b8 07 3c
        E 4 b8 07 5a
        E 4 b8 07 33
        E 4 b8 07 3b
        E 4 b8 07 02
        E 4 b8 07 07
        E 4 b8 07 63
        E 4 b8 07 42
        E 4 b8 07 12
        E 4 b8 07 5c
        E 4 b8 07 20
        E 4 b8 07 27
        E 4 b8 07 31
        E 4 b8 07 28
        E 4 b8 07 44
        E 4 b8 07 52
        E 4 b8 07 1d
        E 4 b8 07 39
        E 4 b8 07 17
        E 4 b8 07 5b
        E 4 b8 07 54
        E 4 b8 07 2e
        E 4 b8 07 24
        E 4 b8 07 50
        E 4 b8 07 25
        E 4 b8 07 47
        E 4 b8 07 0e
        E 4 b8 07 01
        E 4 b8 07 21
        E 4 b8 07 33
        E 4 b8 07 57
        E 4 b8 07 4e
        E 4 b8 07 03
        E 4 b8 07 57
        E 4 b8 07 4a
        E 4 b8 07 05
        E 4 b8 07 1f
        E 4 b8 07 3b
        E 4 b8 07 4c
        E 4 b8 07 61
        E 4 b8 07 3e
        E 4 b8 07 2a
        E 4 b8 07 1b
        E 4 b8 07 46
        E 4 b8 07 49
        E 4 b8 07 59
        E 4 b8 07 63
        E 4 b8 07 2f
        E 4 b8 07 40
        E 4 b8 07 45
        E 4 b8 07 35
        E 4 b8 07 5f
        E 4 b8 07 0f
        E 4 b8 07 24
        E 4 b8 07 43
        E 1 b8 07 02
        E 1 b8 07 09
        E 1 b8 07 06
        E 1 b8 07 01
        E 1 b8 07 09
        E 1 b8 07 08
        E 1 b8 07 01
        E 1 b8 07 01
        E 1 b8 07 06
        E 1 b8 07 0c
        E 1 b8 07 0a
        E 1 b8 07 0b
        E 1 b8 07 07
        E 1 b8 07 01
        E 1 b8 07 02
        E 1 b8 07 08
        E 1 b8 07 07
        E 1 b8 07 03
        E 1 b8 07 02
        E 1 b8 07 03
        E 1 b8 07 09
        E 1 b8 07 05
        E 1 b8 07 03
        E 1 b8 07 07
        E 1 b8 07 0c
        E 1 b8 07 00
        E 1 b8 07 01
        E 1 b8 07 05
        E 1 b8 07 04
        E 1 b8 07 0a
        E 1 b8 07 02
        E 1 b8 07 00
        E 1 b8 07 02
        E 1 b8 07 02
        E 1 b8 07 0b
        E 1 b8 07 03
        E 1 b8 07 00
        E 1 b8 07 09
        E 1 b8 07 04
        E 1 b8 07 02
        E 1 b8 07 05
        E 1 b8 07 03
        E 1 b8 07 0a
        E 1 b8 07 0a
        E 1 b8 07 0c
        E 1 b8 07 0a
        E 1 b8 07 05
        E 1 b8 07 0b
        E 1 b8 07 09
        E 1 b8 07 01
        E 1 b8 07 05
        E 1 b8 07 06
        E 1 b8 07 0c
        E 1 b8 07 09
        E 1 b8 07 06
        E 1 b8 07 07
        E 1 b8 07 00
        E 1 b8 07 01
        E 1 b8 07 0b
        E 1 b8 07 0a
        E 1 b8 07 05
        E 1 b8 07 04
        E 1 b8 07 01
        E 1 b8 07 05
        E 1 b8 07 03
        E 1 b8 07 03
        E 1 b8 07 04
        E 1 b8 07 06
        E 1 b8 07 07
        E 1 b8 07 08
        E 1 b8 07 02
        E 1 b8 07 07
        E 1 b8 07 0b
        E 1 b8 07 06
        E 1 b8 07 07
        E 1 b8 07 00
        E 1 b8 07 00
        E 1 b8 07 0c
        E 1 b8 07 08
        E 1 b8 07 02
        E 1 b8 07 0b
        E 1 b8 07 04
        E 1 b8 07 04
        E 1 b8 07 06
        E 1 b8 07 05
        E 1 b8 07 08
        E 1 b8 07 0a
        E 1 b8 07 03
        E 1 b8 07 07
        E 1 b8 07 02
        E 1 b8 07 0b
        E 1 b8 07 0a
        E 1 b8 07 05
        E 1 b8 07 04
        E 1 b8 07 0a
        E 1 b8 07 04
        E 1 b8 07 08
        E 1 b8 07 01
        E 1 b8 07 00
        E 1 b8 07 04
        E 1 b8 07 06
        E 1 b8 07 0a
        E 1 b8 07 09
        E 1 b8 07 00
        E 1 b8 07 0b
        E 1 b8 07 09
        E 1 b8 07 00
        E 1 b8 07 03
        E 1 b8 07 07
        E 1 b8 07 09
        E 1 b8 07 0c
        E 1 b8 07 07
        E 1 b8 07 05
        E 1 b8 07 03
        E 1 b8 07 08
        E 1 b8 07 09
        E 1 b8 07 0b
        E 1 b8 07 0c
        E 1 b8 07 06
        E 1 b8 07 08
        E 1 b8 07 08
        E 1 b8 07 06
        E 1 b8 07 0b
        E 1 b8 07 01
        E 1 b8 07 04
        E 1 b8 07 08
        E 7 b8 07 19
        E 7 b8 07 56
        E 7 b8 07 38
        E 7 b8 07 09
        E 7 b8 07 51
        E 7 b8 07 48
        E 7 b8 07 0a
        E 7 b8 07 09
        E 7 b8 07 36
        E 7 b8 07 6c
        E 7 b8 07 5a
        E 7 b8 07 63
        E 7 b8 07 47
        E 7 b8 07 0c
        E 7 b8 07 15
        E 7 b8 07 4d
        E 7 b8 07 3f
        E 7 b8 07 20
        E 7 b8 07 16
        E 7 b8 07 1e
        E 7 b8 07 59
        E 7 b8 07 35
        E 7 b8 07 1b
        E 7 b8 07 41
        E 7 b8 07 71
        E 7 b8 07 00
        E 7 b8 07 0e
        E 7 b8 07 2e
        E 7 b8 07 26
        E 7 b8 07 5d
        E 7 b8 07 18
        E 7 b8 07 07
        E 7 b8 07 12
        E 7 b8 07 13
        E 7 b8 07 67
        E 7 b8 07 1c
        E 7 b8 07 00
        E 7 b8 07 54
        E 7 b8 07 27
        E 7 b8 07 17
        E 7 b8 07 2d
        E 7 b8 07 1d
        E 7 b8 07 61
        E 7 b8 07 60
        E 7 b8 07 72
        E 7 b8 07 5f
        E 7 b8 07 31
        E 7 b8 07 6a
        E 7 b8 07 51
        E 7 b8 07 0d
        E 7 b8 07 32
        E 7 b8 07 3d
        E 7 b8 07 6c
        E 7 b8 07 57
        E 7 b8 07 3e
        E 7 b8 07 3f
        E 7 b8 07 05
        E 7 b8 07 0b
        E 7 b8 07 69
        E 7 b8 07 5b
        E 7 b8 07 30
        E 7 b8 07 24
        E 7 b8 07 0f
        E 7 b8 07 33
        E 7 b8 07 22
        E 7 b8 07 1b
        E 7 b8 07 2b
        E 7 b8 07 3b
        E 7 b8 07 45
        E 7 b8 07 49
        E 7 b8 07 12
        E 7 b8 07 44
        E 7 b8 07 65
        E 7 b8 07 3a
        E 7 b8 07 42
        E 7 b8 07 02
        E 7 b8 07 08
        E 7 b8 07 70
        E 7 b8 07 4a
        E 7 b8 07 14
        E 7 b8 07 68
        E 7 b8 07 24
        E 7 b8 07 2c
        E 7 b8 07 37
        E 7 b8 07 2d
        E 7 b8 07 4c
        E 7 b8 07 5c
        E 7 b8 07 21
        E 7 b8 07 40
        E 7 b8 07 1a
        E 7 b8 07 66
        E 7 b8 07 5e
        E 7 b8 07 34
        E 7 b8 07 29
        E 7 b8 07 5a
        E 7 b8 07 2a
        E 7 b8 07 50
        E 7 b8 07 10
        E 7 b8 07 01
        E 7 b8 07 25
        E 7 b8 07 39
        E 7 b8 07 62
        E 7 b8 07 58
        E 7 b8 07 03
        E 7 b8 07 63
        E 7 b8 07 53
        E 7 b8 07 06
        E 7 b8 07 23
        E 7 b8 07 43
        E 7 b8 07 55
        E 7 b8 07 6d
        E 7 b8 07 46
        E 7 b8 07 2f
        E 7 b8 07 1f
        E 7 b8 07 4f
        E 7 b8 07 52
        E 7 b8 07 64
        E 7 b8 07 6f
        E 7 b8 07 36
        E 7 b8 07 48
        E 7 b8 07 4e
        E 7 b8 07 3c
        E 7 b8 07 6b
        E 7 b8 07 11
        E 7 b8 07 28
        E 7 b8 07 4b
        E 3 b8 07 16
        E 3 b8 07 4c
        E 3 b8 07 32
        E 3 b8 07 07
        E 3 b8 07 48
        E 3 b8 07 3f
        E 3 b8 07 09
        E 3 b8 07 08
        E 3 b8 07 30
        E 3 b8 07 5f
        E 3 b8 07 50
        E 3 b8 07 58
        E 3 b8 07 3f
        E 3 b8 07 0b
        E 3 b8 07 13
        E 3 b8 07 44
        E 3 b8 07 37
        E 3 b8 07 1c
        E 3 b8 07 14
        E 3 b8 07 1b
        E 3 b8 07 4f
        E 3 b8 07 2f
        E 3 b8 07 17
        E 3 b8 07 3a
        E 3 b8 07 64
        E 3 b8 07 00
        E 3 b8 07 0c
        E 3 b8 07 29
        E 3 b8 07 22
        E 3 b8 07 53
        E 3 b8 07 15
        E 3 b8 07 06
        E 3 b8 07 0f
        E 3 b8 07 11
        E 3 b8 07 5b
        E 3 b8 07 19
        E 3 b8 07 00
        E 3 b8 07 4b
        E 3 b8 07 23
        E 3 b8 07 14
        E 3 b8 07 28
        E 3 b8 07 1a
        E 3 b8 07 56
        E 3 b8 07 55
        E 3 b8 07 65
        E 3 b8 07 54
        E 3 b8 07 2b
        E 3 b8 07 5e
        E 3 b8 07 48
        E 3 b8 07 0b
        E 3 b8 07 2c
        E 3 b8 07 36
        E 3 b8 07 60
        E 3 b8 07 4d
        E 3 b8 07 37
        E 3 b8 07 38
        E 3 b8 07 04
        E 3 b8 07 0a
        E 3 b8 07 5d
        E 3 b8 07 51
        E 3 b8 07 2b
        E 3 b8 07 1f
        E 3 b8 07 0d
        E 3 b8 07 2d
        E 3 b8 07 1e
        E 3 b8 07 18
        E 3 b8 07 26
        E 3 b8 07 34
        E 3 b8 07 3d
        E 3 b8 07 41
        E 3 b8 07 10
        E 3 b8 07 3c
        E 3 b8 07 5a
        E 3 b8 07 33
        E 3 b8 07 3b
        E 3 b8 07 02
        E 3 b8 07 07
        E 3 b8 07 63
        E 3 b8 07 42
        E 3 b8 07 12
        E 3 b8 07 5c
        E 3 b8 07 20
        E 3 b8 07 27
        E 3 b8 07 31
        E 3 b8 07 28
        E 3 b8 07 44
        E 3 b8 07 52
        E 3 b8 07 1d
        E 3 b8 07 39
        E 3 b8 07 17
        E 3 b8 07 5b
        E 3 b8 07 54
        E 3 b8 07 2e
        E 3 b8 07 24
        E 3 b8 07 50
        E 3 b8 07 25
        E 3 b8 07 47
        E 3 b8 07 0e
        E 3 b8 07 01
        E 3 b8 07 21
        E 3 b8 07 33
        E 3 b8 07 57
        E 3 b8 07 4e
        E 3 b8 07 03
        E 3 b8 07 57
        E 3 b8 07 4a
        E 3 b8 07 05
        E 3 b8 07 1f
        E 3 b8 07 3b
        E 3 b8 07 4c
        E 3 b8 07 61
        E 3 b8 07 3e
        E 3 b8 07 2a
        E 3 b8 07 1b
        E 3 b8 07 46
        E 3 b8 07 49
        E 3 b8 07 59
        E 3 b8 07 63
        E 3 b8 07 2f
        E 3 b8 07 40
        E 3 b8 07 45
        E 3 b8 07 35
        E 3 b8 07 5f
        E 3 b8 07 0f
        E 3 b8 07 24
        E 3 b8 07 43
        E 6 b8 07 19
        E 6 b8 07 56
        E 6 b8 07 38
        E 6 b8 07 09
        E 6 b8 07 51
        E 6 b8 07 48
        E 6 b8 07 0a
        E 6 b8 07 09
        E 6 b8 07 36
        E 6 b8 07 6c
        E 6 b8 07 5a
        E 6 b8 07 63
        E 6 b8 07 47
        E 6 b8 07 0c
        E 6 b8 07 15
        E 6 b8 07 4d
        E 6 b8 07 3f
        E 6 b8 07 20
        E 6 b8 07 16
        E 6 b8 07 1e
        E 6 b8 07 59
        E 6 b8 07 35
        E 6 b8 07 1b
        E 6 b8 07 41
        E 6 b8 07 71
        E 6 b8 07 00
        E 6 b8 07 0e
        E 6 b8 07 2e
        E 6 b8 07 26
        E 6 b8 07 5d
        E 6 b8 07 18
        E 6 b8 07 07
        E 6 b8 07 12
        E 6 b8 07 13
        E 6 b8 07 67
        E 6 b8 07 1c
        E 6 b8 07 00
        E 6 b8 07 54
        E 6 b8 07 27
        E 6 b8 07 17
        E 6 b8 07 2d
        E 6 b8 07 1d
        E 6 b8 07 61
        E 6 b8 07 60
        E 6 b8 07 72
        E 6 b8 07 5f
        E 6 b8 07 31
        E 6 b8 07 6a
        E 6 b8 07 51
        E 6 b8 07 0d
        E 6 b8 07 32
        E 6 b8 07 3d
        E 6 b8 07 6c
        E 6 b8 07 57
        E 6 b8 07 3e
        E 6 b8 07 3f
        E 6 b8 07 05
        E 6 b8 07 0b
        E 6 b8 07 69
        E 6 b8 07 5b
        E 6 b8 07 30
        E 6 b8 07 24
        E 6 b8 07 0f
        E 6 b8 07 33
        E 6 b8 07 22
        E 6 b8 07 1b
        E 6 b8 07 2b
        E 6 b8 07 3b
        E 6 b8 07 45
        E 6 b8 07 49
        E 6 b8 07 12
        E 6 b8 07 44
        E 6 b8 07 65
        E 6 b8 07 3a
        E 6 b8 07 42
        E 6 b8 07 02
        E 6 b8 07 08
        E 6 b8 07 70
        E 6 b8 07 4a
        E 6 b8 07 14
        E 6 b8 07 68
        E 6 b8 07 24
        E 6 b8 07 2c
        E 6 b8 07 37
        E 6 b8 07 2d
        E 6 b8 07 4c
        E 6 b8 07 5c
        E 6 b8 07 21
        E 6 b8 07 40
        E 6 b8 07 1a
        E 6 b8 07 66
        E 6 b8 07 5e
        E 6 b8 07 34
        E 6 b8 07 29
        E 6 b8 07 5a
        E 6 b8 07 2a
        E 6 b8 07 50
        E 6 b8 07 10
        E 6 b8 07 01
        E 6 b8 07 25
        E 6 b8 07 39
        E 6 b8 07 62
        E 6 b8 07 58
        E 6 b8 07 03
        E 6 b8 07 63
        E 6 b8 07 53
        E 6 b8 07 06
        E 6 b8 07 23
        E 6 b8 07 43
        E 6 b8 07 55
        E 6 b8 07 6d
        E 6 b8 07 46
        E 6 b8 07 2f
        E 6 b8 07 1f
        E 6 b8 07 4f
        E 6 b8 07 52
        E 6 b8 07 64
        E 6 b8 07 6f
        E 6 b8 07 36
        E 6 b8 07 48
        E 6 b8 07 4e
        E 6 b8 07 3c
        E 6 b8 07 6b
        E 6 b8 07 11
        E 6 b8 07 28
        E 6 b8 07 4b
        E 9 b8 07 08
        E 9 b8 07 1c
        E 9 b8 07 12
        E 9 b8 07 03
        E 9 b8 07 1b
        E 9 b8 07 18
        E 9 b8 07 03
        E 9 b8 07 03
        E 9 b8 07 12
        E 9 b8 07 24
        E 9 b8 07 1e
        E 9 b8 07 21
        E 9 b8 07 17
        E 9 b8 07 04
        E 9 b8 07 07
        E 9 b8 07 19
        E 9 b8 07 15
        E 9 b8 07 0a
        E 9 b8 07 07
        E 9 b8 07 0a
        E 9 b8 07 1d
        E 9 b8 07 11
        E 9 b8 07 09
        E 9 b8 07 15
        E 9 b8 07 25
        E 9 b8 07 00
        E 9 b8 07 04
        E 9 b8 07 0f
        E 9 b8 07 0c
        E 9 b8 07 1f
        E 9 b8 07 08
        E 9 b8 07 02
        E 9 b8 07 06
        E 9 b8 07 06
        E 9 b8 07 22
        E 9 b8 07 09
        E 9 b8 07 00
        E 9 b8 07 1c
        E 9 b8 07 0d
        E 9 b8 07 07
        E 9 b8 07 0f
        E 9 b8 07 09
        E 9 b8 07 20
        E 9 b8 07 20
        E 9 b8 07 26
        E 9 b8 07 1f
        E 9 b8 07 10
        E 9 b8 07 23
        E 9 b8 07 1b
        E 9 b8 07 04
        E 9 b8 07 10
        E 9 b8 07 14
        E 9 b8 07 24
        E 9 b8 07 1d
        E 9 b8 07 14
        E 9 b8 07 15
        E 9 b8 07 01
        E 9 b8 07 03
        E 9 b8 07 23
        E 9 b8 07 1e
        E 9 b8 07 10
        E 9 b8 07 0c
        E 9 b8 07 05
        E 9 b8 07 11
        E 9 b8 07 0b
        E 9 b8 07 09
        E 9 b8 07 0e
        E 9 b8 07 13
        E 9 b8 07 17
        E 9 b8 07 18
        E 9 b8 07 06
        E 9 b8 07 16
        E 9 b8 07 21
        E 9 b8 07 13
        E 9 b8 07 16
        E 9 b8 07 00
        E 9 b8 07 02
        E 9 b8 07 25
        E 9 b8 07 18
        E 9 b8 07 06
        E 9 b8 07 22
        E 9 b8 07 0c
        E 9 b8 07 0e
        E 9 b8 07 12
        E 9 b8 07 0f
        E 9 b8 07 19
        E 9 b8 07 1e
        E 9 b8 07 0b
        E 9 b8 07 15
        E 9 b8 07 08
        E 9 b8 07 22
        E 9 b8 07 1f
        E 9 b8 07 11
        E 9 b8 07 0d
        E 9 b8 07 1e
        E 9 b8 07 0e
        E 9 b8 07 1a
        E 9 b8 07 05
        E 9 b8 07 00
        E 9 b8 07 0c
        E 9 b8 07 13
        E 9 b8 07 20
        E 9 b8 07 1d
        E 9 b8 07 01
        E 9 b8 07 21
        E 9 b8 07 1b
        E 9 b8 07 02
        E 9 b8 07 0b
        E 9 b8 07 16
        E 9 b8 07 1c
        E 9 b8 07 24
        E 9 b8 07 17
        E 9 b8 07 0f
        E 9 b8 07 0a
        E 9 b8 07 1a
        E 9 b8 07 1b
        E 9 b8 07 21
        E 9 b8 07 25
        E 9 b8 07 12
        E 9 b8 07 18
        E 9 b8 07 1a
        E 9 b8 07 14
        E 9 b8 07 23
        E 9 b8 07 05
        E 9 b8 07 0d
        E 9 b8 07 19
        E 4 b8 07 16
        E 4 b8 07 4c
        E 4 b8 07 32
        E 4 b8 07 07
        E 4 b8 07 48
        E 4 b8 07 3f
        E 4 b8 07 09
        E 4 b8 07 08
        E 4 b8 07 30
        E 4 b8 07 5f
        E 4 b8 07 50
        E 4 b8 07 58
        E 4 b8 07 3f
        E 4 b8 07 0b
        E 4 b8 07 13
        E 4 b8 07 44
        E 4 b8 07 37
        E 4 b8 07 1c
        E 4 b8 07 14
        E 4 b8 07 1b
        E 4 b8 07 4f
        E 4 b8 07 2f
        E 4 b8 07 17
        E 4 b8 07 3a
        E 4 b8 07 64
        E 4 b8 07 00
        E 4 b8 07 0c
        E 4 b8 07 29
        E 4 b8 07 22
        E 4 b8 07 53
        E 4 b8 07 15
        E 4 b8 07 06
        E 4 b8 07 0f
        E 4 b8 07 11
        E 4 b8 07 5b
        E 4 b8 07 19
        E 4 b8 07 00
        E 4 b8 07 4b
        E 4 b8 07 23
        E 4 b8 07 14
        E 4 b8 07 28
        E 4 b8 07 1a
        E 4 b8 07 56
        E 4 b8 07 55
        E 4 b8 07 65
        E 4 b8 07 54
        E 4 b8 07 2b
        E 4 b8 07 5e
        E 4 b8 07 48
        E 4 b8 07 0b
        E 4 b8 07 2c
        E 4 b8 07 36
        E 4 b8 07 60
        E 4 b8 07 4d
        E 4 b8 07 37
        E 4 b8 07 38
        E 4 b8 07 04
        E 4 b8 07 0a
        E 4 b8 07 5d
        E 4 b8 07 51
        E 4 b8 07 2b
        E 4 b8 07 1f
        E 4 b8 07 0d
        E 4 b8 07 2d
        E 4 b8 07 1e
        E 4 b8 07 18
        E 4 b8 07 26
        E 4 b8 07 34
        E 4 b8 07 3d
        E 4 b8 07 41
        E 4 b8 07 10
        E 4 b8 07 3c
        E 4 b8 07 5a
        E 4 b8 07 33
        E 4 b8 07 3b
        E 4 b8 07 02
        E 4 b8 07 07
        E 4 b8 07 63
        E 4 b8 07 42
        E 4 b8 07 12
        E 4 b8 07 5c
        E 4 b8 07 20
        E 4 b8 07 27
        E 4 b8 07 31
        E 4 b8 07 28
        E 4 b8 07 44
        E 4 b8 07 52
        E 4 b8 07 1d
        E 4 b8 07 39
        E 4 b8 07 17
        E 4 b8 07 5b
        E 4 b8 07 54
        E 4 b8 07 2e
        E 4 b8 07 24
        E 4 b8 07 50
        E 4 b8 07 25
        E 4 b8 07 47
        E 4 b8 07 0e
        E 4 b8 07 01
        E 4 b8 07 21
        E 4 b8 07 33
        E 4 b8 07 57
        E 4 b8 07 4e
        E 4 b8 07 03
        E 4 b8 07 57
        E 4 b8 07 4a
        E 4 b8 07 05
        E 4 b8 07 1f
        E 4 b8 07 3b
        E 4 b8 07 4c
        E 4 b8 07 61
        E 4 b8 07 3e
        E 4 b8 07 2a
        E 4 b8 07 1b
        E 4 b8 07 46
        E 4 b8 07 49
        E 4 b8 07 59
        E 4 b8 07 63
        E 4 b8 07 2f
        E 4 b8 07 40
        E 4 b8 07 45
        E 4 b8 07 35
        E 4 b8 07 5f
        E 4 b8 07 0f
        E 4 b8 07 24
        E 4 b8 07 43
        E 1 b8 07 02
        E 1 b8 07 09
        E 1 b8 07 06
        E 1 b8 07 01
        E 1 b8 07 09
        E 1 b8 07 08
        E 1 b8 07 01
        E 1 b8 07 01
        E 1 b8 07 06
        E 1 b8 07 0c
        E 1 b8 07 0a
        E 1 b8 07 0b
        E 1 b8 07 07
        E 1 b8 07 01
        E 1 b8 07 02
        E 1 b8 07 08
        E 1 b8 07 07
        E 1 b8 07 03
        E 1 b8 07 02
        E 1 b8 07 03
        E 1 b8 07 09
        E 1 b8 07 05
        E 1 b8 07 03
        E 1 b8 07 07
        E 1 b8 07 0c
        E 1 b8 07 00
        E 1 b8 07 01
        E 1 b8 07 05
        E 1 b8 07 04
        E 1 b8 07 0a
        E 1 b8 07 02
        E 1 b8 07 00
        E 1 b8 07 02
        E 1 b8 07 02
        E 1 b8 07 0b
        E 1 b8 07 03
        E 1 b8 07 00
        E 1 b8 07 09
        E 1 b8 07 04
        E 1 b8 07 02
        E 1 b8 07 05
        E 1 b8 07 03
        E 1 b8 07 0a
        E 1 b8 07 0a
        E 1 b8 07 0c
        E 1 b8 07 0a
        E 1 b8 07 05
        E 1 b8 07 0b
        E 1 b8 07 09
        E 1 b8 07 01
        E 1 b8 07 05
        E 1 b8 07 06
        E 1 b8 07 0c
        E 1 b8 07 09
        E 1 b8 07 06
        E 1 b8 07 07
        E 1 b8 07 00
        E 1 b8 07 01
        E 1 b8 07 0b
        E 1 b8 07 0a
        E 1 b8 07 05
        E 1 b8 07 04
        E 1 b8 07 01
        E 1 b8 07 05
        E 1 b8 07 03
        E 1 b8 07 03
        E 1 b8 07 04
        E 1 b8 07 06
        E 1 b8 07 07
        E 1 b8 07 08
        E 1 b8 07 02
        E 1 b8 07 07
        E 1 b8 07 0b
        E 1 b8 07 06
        E 1 b8 07 07
        E 1 b8 07 00
        E 1 b8 07 00
        E 1 b8 07 0c
        E 1 b8 07 08
        E 1 b8 07 02
        E 1 b8 07 0b
        E 1 b8 07 04
        E 1 b8 07 04
        E 1 b8 07 06
        E 1 b8 07 05
        E 1 b8 07 08
        E 1 b8 07 0a
        E 1 b8 07 03
        E 1 b8 07 07
        E 1 b8 07 02
        E 1 b8 07 0b
        E 1 b8 07 0a
        E 1 b8 07 05
        E 1 b8 07 04
        E 1 b8 07 0a
        E 1 b8 07 04
        E 1 b8 07 08
        E 1 b8 07 01
        E 1 b8 07 00
        E 1 b8 07 04
        E 1 b8 07 06
        E 1 b8 07 0a
        E 1 b8 07 09
        E 1 b8 07 00
        E 1 b8 07 0b
        E 1 b8 07 09
        E 1 b8 07 00
        E 1 b8 07 03
        E 1 b8 07 07
        E 1 b8 07 09
        E 1 b8 07 0c
        E 1 b8 07 07
        E 1 b8 07 05
        E 1 b8 07 03
        E 1 b8 07 08
        E 1 b8 07 09
        E 1 b8 07 0b
        E 1 b8 07 0c
        E 1 b8 07 06
        E 1 b8 07 08
        E 1 b8 07 08
        E 1 b8 07 06
        E 1 b8 07 0b
        E 1 b8 07 01
        E 1 b8 07 04
        E 1 b8 07 08
        E 38 b8 07 39
        E 38 b8 07 3c
        E 38 b8 07 3f
        E 38 b8 07 41
        E 38 b8 07 44
        E 38 b8 07 47
        E 38 b8 07 49
        E 38 b8 07 4c
        E 38 b8 07 4f
        E 38 b8 07 51
        E 38 b8 07 54
        E 38 b8 07 56
        E 38 b8 07 59
        E 38 b8 07 5b
        E 38 b8 07 5d
        E 38 b8 07 5f
        E 38 b8 07 62
        E 38 b8 07 63
        E 38 b8 07 65
        E 38 b8 07 67
        E 38 b8 07 69
        E 38 b8 07 6a
        E 38 b8 07 6c
        E 38 b8 07 6c
        E 38 b8 07 6d
        E 38 b8 07 6e
        E 38 b8 07 6f
        E 38 b8 07 70
        E 38 b8 07 71
        E 38 b8 07 71
        E 38 b8 07 72
        E 38 b8 07 72
        E 38 b8 07 72
        E 38 b8 07 72
        E 38 b8 07 72
        E 38 b8 07 71
        E 38 b8 07 71
        E 38 b8 07 70
        E 38 b8 07 6f
        E 38 b8 07 6e
        E 38 b8 07 6d
        E 38 b8 07 6c
        E 38 b8 07 6b
        E 38 b8 07 69
        E 38 b8 07 68
        E 38 b8 07 66
        E 38 b8 07 64
        E 38 b8 07 63
        E 38 b8 07 61
        E 38 b8 07 5e
        E 38 b8 07 5c
        E 38 b8 07 5a
        E 38 b8 07 58
        E 38 b8 07 55
        E 38 b8 07 52
        E 38 b8 07 50
        E 38 b8 07 4e
        E 38 b8 07 4b
        E 38 b8 07 48
        E 38 b8 07 46
        E 38 b8 07 42
        E 38 b8 07 3f
        E 38 b8 07 3d
        E 38 b8 07 3a
        E 38 b8 07 37
        E 38 b8 07 35
        E 38 b8 07 32
        E 38 b8 07 2f
        E 38 b8 07 2c
        E 38 b8 07 29
        E 38 b8 07 26
        E 38 b8 07 24
        E 38 b8 07 22
        E 38 b8 07 1f
        E 38 b8 07 1c
        E 38 b8 07 1a
        E 38 b8 07 18
        E 38 b8 07 15
        E 38 b8 07 13
        E 38 b8 07 11
        E 38 b8 07 0f
        E 38 b8 07 0d
        E 38 b8 07 0b
        E 38 b8 07 09
        E 38 b8 07 09
        E 38 b8 07 07
        E 38 b8 07 06
        E 38 b8 07 04
        E 38 b8 07 03
        E 38 b8 07 02
        E 38 b8 07 01
        E 38 b8 07 00
        E 38 b8 07 00
        E 38 b8 07 00
        E 38 b8 07 00
        E 38 b8 07 00
        E 38 b8 07 00
        E 38 b8 07 00
        E 38 b8 07 00
        E 38 b8 07 00
        E 38 b8 07 01
        E 38 b8 07 02
        E 38 b8 07 03
        E 38 b8 07 04
        E 38 b8 07 05
        E 38 b8 07 06
        E 38 b8 07 08
        E 38 b8 07 09
        E 38 b8 07 0a
        E 38 b8 07 0c
        E 38 b8 07 0e
        E 38 b8 07 10
        E 38 b8 07 12
        E 38 b8 07 14
        E 38 b8 07 16
        E 38 b8 07 19
        E 38 b8 07 1b
        E 38 b8 07 1d
        E 38 b8 07 20
        E 38 b8 07 23
        E 38 b8 07 25
        E 38 b8 07 28
        E 38 b8 07 2b
        E 38 b8 07 2d
        E 38 b8 07 30
        E 38 b8 07 33
        E 38 b8 07 36
        E 38 b8 07 39
        E 57 b8 07 13
        E 57 b8 07 14
        E 57 b8 07 15
        E 57 b8 07 15
        E 57 b8 07 16
        E 57 b8 07 17
        E 57 b8 07 18
        E 57 b8 07 19
        E 57 b8 07 1a
        E 57 b8 07 1b
        E 57 b8 07 1c
        E 57 b8 07 1c
        E 57 b8 07 1d
        E 57 b8 07 1e
        E 57 b8 07 1f
        E 57 b8 07 1f
        E 57 b8 07 20
        E 57 b8 07 21
        E 57 b8 07 21
        E 57 b8 07 22
        E 57 b8 07 23
        E 57 b8 07 23
        E 57 b8 07 24
        E 57 b8 07 24
        E 57 b8 07 24
        E 57 b8 07 24
        E 57 b8 07 25
        E 57 b8 07 25
        E 57 b8 07 25
        E 57 b8 07 25
        E 57 b8 07 26
        E 57 b8 07 26
        E 57 b8 07 26
        E 57 b8 07 26
        E 57 b8 07 26
        E 57 b8 07 25
        E 57 b8 07 25
        E 57 b8 07 25
        E 57 b8 07 25
        E 57 b8 07 24
        E 57 b8 07 24
        E 57 b8 07 24
        E 57 b8 07 23
        E 57 b8 07 23
        E 57 b8 07 22
        E 57 b8 07 22
        E 57 b8 07 21
        E 57 b8 07 21
        E 57 b8 07 20
        E 57 b8 07 1f
        E 57 b8 07 1e
        E 57 b8 07 1e
        E 57 b8 07 1d
        E 57 b8 07 1c
        E 57 b8 07 1b
        E 57 b8 07 1a
        E 57 b8 07 1a
        E 57 b8 07 19
        E 57 b8 07 18
        E 57 b8 07 17
        E 57 b8 07 16
        E 57 b8 07 15
        E 57 b8 07 14
        E 57 b8 07 13
        E 57 b8 07 12
        E 57 b8 07 11
        E 57 b8 07 10
        E 57 b8 07 0f
        E 57 b8 07 0e
        E 57 b8 07 0d
        E 57 b8 07 0c
        E 57 b8 07 0c
        E 57 b8 07 0b
        E 57 b8 07 0a
        E 57 b8 07 09
        E 57 b8 07 08
        E 57 b8 07 08
        E 57 b8 07 07
        E 57 b8 07 06
        E 57 b8 07 05
        E 57 b8 07 05
        E 57 b8 07 04
        E 57 b8 07 03
        E 57 b8 07 03
        E 57 b8 07 03
        E 57 b8 07 02
        E 57 b8 07 02
        E 57 b8 07 01
        E 57 b8 07 01
        E 57 b8 07 00
        E 57 b8 07 00
        E 57 b8 07 00
        E 57 b8 07 00
        E 57 b8 07 00
        E 57 b8 07 00
        E 57 b8 07 00
        E 57 b8 07 00
        E 57 b8 07 00
        E 57 b8 07 00
        E 57 b8 07 00
        E 57 b8 07 00
        E 57 b8 07 00
        E 57 b8 07 01
        E 57 b8 07 01
        E 57 b8 07 01
        E 57 b8 07 02
        E 57 b8 07 02
        E 57 b8 07 03
        E 57 b8 07 03
        E 57 b8 07 04
        E 57 b8 07 04
        E 57 b8 07 05
        E 57 b8 07 06
        E 57 b8 07 06
        E 57 b8 07 07
        E 57 b8 07 08
        E 57 b8 07 09
        E 57 b8 07 09
        E 57 b8 07 0a
        E 57 b8 07 0b
        E 57 b8 07 0c
        E 57 b8 07 0d
        E 57 b8 07 0e
        E 57 b8 07 0f
        E 57 b8 07 10
        E 57 b8 07 11
        E 57 b8 07 12
        E 57 b8 07 13
        E 25 b8 07 33
        E 25 b8 07 35
        E 25 b8 07 37
        E 25 b8 07 3a
        E 25 b8 07 3c
        E 25 b8 07 3f
        E 25 b8 07 41
        E 25 b8 07 44
        E 25 b8 07 46
        E 25 b8 07 48
        E 25 b8 07 4b
        E 25 b8 07 4c
        E 25 b8 07 4f
        E 25 b8 07 51
        E 25 b8 07 53
        E 25 b8 07 54
        E 25 b8 07 57
        E 25 b8 07 58
        E 25 b8 07 5a
        E 25 b8 07 5b
        E 25 b8 07 5d
        E 25 b8 07 5e
        E 25 b8 07 5f
        E 25 b8 07 60
        E 25 b8 07 61
        E 25 b8 07 62
        E 25 b8 07 63
        E 25 b8 07 63
        E 25 b8 07 64
        E 25 b8 07 64
        E 25 b8 07 65
        E 25 b8 07 65
        E 25 b8 07 65
        E 25 b8 07 65
        E 25 b8 07 65
        E 25 b8 07 64
        E 25 b8 07 64
        E 25 b8 07 63
        E 25 b8 07 63
        E 25 b8 07 62
        E 25 b8 07 61
        E 25 b8 07 5f
        E 25 b8 07 5f
        E 25 b8 07 5d
        E 25 b8 07 5c
        E 25 b8 07 5b
        E 25 b8 07 59
        E 25 b8 07 57
        E 25 b8 07 56
        E 25 b8 07 54
        E 25 b8 07 52
        E 25 b8 07 50
        E 25 b8 07 4e
        E 25 b8 07 4c
        E 25 b8 07 49
        E 25 b8 07 47
        E 25 b8 07 45
        E 25 b8 07 43
        E 25 b8 07 40
        E 25 b8 07 3e
        E 25 b8 07 3b
        E 25 b8 07 38
        E 25 b8 07 36
        E 25 b8 07 33
        E 25 b8 07 31
        E 25 b8 07 2f
        E 25 b8 07 2c
        E 25 b8 07 2a
        E 25 b8 07 27
        E 25 b8 07 24
        E 25 b8 07 22
        E 25 b8 07 1f
        E 25 b8 07 1e
        E 25 b8 07 1b
        E 25 b8 07 19
        E 25 b8 07 17
        E 25 b8 07 15
        E 25 b8 07 13
        E 25 b8 07 11
        E 25 b8 07 0f
        E 25 b8 07 0d
        E 25 b8 07 0b
        E 25 b8 07 0a
        E 25 b8 07 08
        E 25 b8 07 07
        E 25 b8 07 06
        E 25 b8 07 05
        E 25 b8 07 03
        E 25 b8 07 03
        E 25 b8 07 02
        E 25 b8 07 01
        E 25 b8 07 00
        E 25 b8 07 00
        E 25 b8 07 00
        E 25 b8 07 00
        E 25 b8 07 00
        E 25 b8 07 00
        E 25 b8 07 00
        E 25 b8 07 00
        E 25 b8 07 00
        E 25 b8 07 01
        E 25 b8 07 02
        E 25 b8 07 03
        E 25 b8 07 03
        E 25 b8 07 04
        E 25 b8 07 05
        E 25 b8 07 07
        E 25 b8 07 07
        E 25 b8 07 09
        E 25 b8 07 0b
        E 25 b8 07 0c
        E 25 b8 07 0e
        E 25 b8 07 10
        E 25 b8 07 12
        E 25 b8 07 14
        E 25 b8 07 16
        E 25 b8 07 18
        E 25 b8 07 1a
        E 25 b8 07 1c
        E 25 b8 07 1f
        E 25 b8 07 21
        E 25 b8 07 24
        E 25 b8 07 26
        E 25 b8 07 28
        E 25 b8 07 2b
        E 25 b8 07 2d
        E 25 b8 07 2f
        E 25 b8 07 33
        E 6 b8 07 06
        E 6 b8 07 06
        E 6 b8 07 07
        E 6 b8 07 07
        E 6 b8 07 07
        E 6 b8 07 07
        E 6 b8 07 08
        E 6 b8 07 08
        E 6 b8 07 08
        E 6 b8 07 09
        E 6 b8 07 09
        E 6 b8 07 09
        E 6 b8 07 09
        E 6 b8 07 0a
        E 6 b8 07 0a
        E 6 b8 07 0a
        E 6 b8 07 0a
        E 6 b8 07 0b
        E 6 b8 07 0b
        E 6 b8 07 0b
        E 6 b8 07 0b
        E 6 b8 07 0b
        E 6 b8 07 0c
        E 6 b8 07 0c
        E 6 b8 07 0c
        E 6 b8 07 0c
        E 6 b8 07 0c
        E 6 b8 07 0c
        E 6 b8 07 0c
        E 6 b8 07 0c
        E 6 b8 07 0c
        E 6 b8 07 0c
        E 6 b8 07 0c
        E 6 b8 07 0c
        E 6 b8 07 0c
        E 6 b8 07 0c
        E 6 b8 07 0c
        E 6 b8 07 0c
        E 6 b8 07 0c
        E 6 b8 07 0c
        E 6 b8 07 0c
        E 6 b8 07 0c
        E 6 b8 07 0b
        E 6 b8 07 0b
        E 6 b8 07 0b
        E 6 b8 07 0b
        E 6 b8 07 0b
        E 6 b8 07 0b
        E 6 b8 07 0a
        E 6 b8 07 0a
        E 6 b8 07 0a
        E 6 b8 07 0a
        E 6 b8 07 09
        E 6 b8 07 09
        E 6 b8 07 09
        E 6 b8 07 08
        E 6 b8 07 08
        E 6 b8 07 08
        E 6 b8 07 08
        E 6 b8 07 07
        E 6 b8 07 07
        E 6 b8 07 07
        E 6 b8 07 06
        E 6 b8 07 06
        E 6 b8 07 06
        E 6 b8 07 05
        E 6 b8 07 05
        E 6 b8 07 05
        E 6 b8 07 04
        E 6 b8 07 04
        E 6 b8 07 04
        E 6 b8 07 04
        E 6 b8 07 03
        E 6 b8 07 03
        E 6 b8 07 03
        E 6 b8 07 02
        E 6 b8 07 02
        E 6 b8 07 02
        E 6 b8 07 02
        E 6 b8 07 01
        E 6 b8 07 01
        E 6 b8 07 01
        E 6 b8 07 01
        E 6 b8 07 01
        E 6 b8 07 01
        E 6 b8 07 00
        E 6 b8 07 00
        E 6 b8 07 00
        E 6 b8 07 00
        E 6 b8 07 00
        E 6 b8 07 00
        E 6 b8 07 00
        E 6 b8 07 00
        E 6 b8 07 00
        E 6 b8 07 00
        E 6 b8 07 00
        E 6 b8 07 00
        E 6 b8 07 00
        E 6 b8 07 00
        E 6 b8 07 00
        E 6 b8 07 00
        E 6 b8 07 00
        E 6 b8 07 00
        E 6 b8 07 00
        E 6 b8 07 00
        E 6 b8 07 00
        E 6 b8 07 00
        E 6 b8 07 01
        E 6 b8 07 01
        E 6 b8 07 01
        E 6 b8 07 01
        E 6 b8 07 01
        E 6 b8 07 02
        E 6 b8 07 02
        E 6 b8 07 02
        E 6 b8 07 02
        E 6 b8 07 03
        E 6 b8 07 03
        E 6 b8 07 03
        E 6 b8 07 03
        E 6 b8 07 04
        E 6 b8 07 04
        E 6 b8 07 04
        E 6 b8 07 05
        E 6 b8 07 05
        E 6 b8 07 05
        E 6 b8 07 06
        E 6 b8 07 06
        E 44 b8 07 39
        E 44 b8 07 3c
        E 44 b8 07 3f
        E 44 b8 07 41
        E 44 b8 07 44
        E 44 b8 07 47
        E 44 b8 07 49
        E 44 b8 07 4c
        E 44 b8 07 4f
        E 44 b8 07 51
        E 44 b8 07 54
        E 44 b8 07 56
        E 44 b8 07 59
        E 44 b8 07 5b
        E 44 b8 07 5d
        E 44 b8 07 5f
        E 44 b8 07 62
        E 44 b8 07 63
        E 44 b8 07 65
        E 44 b8 07 67
        E 44 b8 07 69
        E 44 b8 07 6a
        E 44 b8 07 6c
        E 44 b8 07 6c
        E 44 b8 07 6d
        E 44 b8 07 6e
        E 44 b8 07 6f
        E 44 b8 07 70
        E 44 b8 07 71
        E 44 b8 07 71
        E 44 b8 07 72
        E 44 b8 07 72
        E 44 b8 07 72
        E 44 b8 07 72
        E 44 b8 07 72
        E 44 b8 07 71
        E 44 b8 07 71
        E 44 b8 07 70
        E 44 b8 07 6f
        E 44 b8 07 6e
        E 44 b8 07 6d
        E 44 b8 07 6c
        E 44 b8 07 6b
        E 44 b8 07 69
        E 44 b8 07 68
        E 44 b8 07 66
        E 44 b8 07 64
        E 44 b8 07 63
        E 44 b8 07 61
        E 44 b8 07 5e
        E 44 b8 07 5c
        E 44 b8 07 5a
        E 44 b8 07 58
        E 44 b8 07 55
        E 44 b8 07 52
        E 44 b8 07 50
        E 44 b8 07 4e
        E 44 b8 07 4b
        E 44 b8 07 48
        E 44 b8 07 46
        E 44 b8 07 42
        E 44 b8 07 3f
        E 44 b8 07 3d
        E 44 b8 07 3a
        E 44 b8 07 37
        E 44 b8 07 35
        E 44 b8 07 32
        E 44 b8 07 2f
        E 44 b8 07 2c
        E 44 b8 07 29
        E 44 b8 07 26
        E 44 b8 07 24
        E 44 b8 07 22
        E 44 b8 07 1f
        E 44 b8 07 1c
        E 44 b8 07 1a
        E 44 b8 07 18
        E 44 b8 07 15
        E 44 b8 07 13
        E 44 b8 07 11
        E 44 b8 07 0f
        E 44 b8 07 0d
        E 44 b8 07 0b
        E 44 b8 07 09
        E 44 b8 07 09
        E 44 b8 07 07
        E 44 b8 07 06
        E 44 b8 07 04
        E 44 b8 07 03
        E 44 b8 07 02
        E 44 b8 07 01
        E 44 b8 07 00
        E 44 b8 07 00
        E 44 b8 07 00
        E 44 b8 07 00
        E 44 b8 07 00
        E 44 b8 07 00
        E 44 b8 07 00
        E 44 b8 07 00
        E 44 b8 07 00
        E 44 b8 07 01
        E 44 b8 07 02
        E 44 b8 07 03
        E 44 b8 07 04
        E 44 b8 07 05
        E 44 b8 07 06
        E 44 b8 07 08
        E 44 b8 07 09
        E 44 b8 07 0a
        E 44 b8 07 0c
        E 44 b8 07 0e
        E 44 b8 07 10
        E 44 b8 07 12
        E 44 b8 07 14
        E 44 b8 07 16
        E 44 b8 07 19
        E 44 b8 07 1b
        E 44 b8 07 1d
        E 44 b8 07 20
        E 44 b8 07 23
        E 44 b8 07 25
        E 44 b8 07 28
        E 44 b8 07 2b
        E 44 b8 07 2d
        E 44 b8 07 30
        E 44 b8 07 33
        E 44 b8 07 36
        E 44 b8 07 39
        E 19 b8 07 33
        E 19 b8 07 35
        E 19 b8 07 37
        E 19 b8 07 3a
        E 19 b8 07 3c
        E 19 b8 07 3f
        E 19 b8 07 41
        E 19 b8 07 44
        E 19 b8 07 46
        E 19 b8 07 48
        E 19 b8 07 4b
        E 19 b8 07 4c
        E 19 b8 07 4f
        E 19 b8 07 51
        E 19 b8 07 53
        E 19 b8 07 54
        E 19 b8 07 57
        E 19 b8 07 58
        E 19 b8 07 5a
        E 19 b8 07 5b
        E 19 b8 07 5d
        E 19 b8 07 5e
        E 19 b8 07 5f
        E 19 b8 07 60
        E 19 b8 07 61
        E 19 b8 07 62
        E 19 b8 07 63
        E 19 b8 07 63
        E 19 b8 07 64
        E 19 b8 07 64
        E 19 b8 07 65
        E 19 b8 07 65
        E 19 b8 07 65
        E 19 b8 07 65
        E 19 b8 07 65
        E 19 b8 07 64
        E 19 b8 07 64
        E 19 b8 07 63
        E 19 b8 07 63
        E 19 b8 07 62
        E 19 b8 07 61
        E 19 b8 07 5f
        E 19 b8 07 5f
        E 19 b8 07 5d
        E 19 b8 07 5c
        E 19 b8 07 5b
        E 19 b8 07 59
        E 19 b8 07 57
        E 19 b8 07 56
        E 19 b8 07 54
        E 19 b8 07 52
        E 19 b8 07 50
        E 19 b8 07 4e
        E 19 b8 07 4c
        E 19 b8 07 49
        E 19 b8 07 47
        E 19 b8 07 45
        E 19 b8 07 43
        E 19 b8 07 40
        E 19 b8 07 3e
        E 19 b8 07 3b
        E 19 b8 07 38
        E 19 b8 07 36
        E 19 b8 07 33
        E 19 b8 07 31
        E 19 b8 07 2f
        E 19 b8 07 2c
        E 19 b8 07 2a
        E 19 b8 07 27
        E 19 b8 07 24
        E 19 b8 07 22
        E 19 b8 07 1f
        E 19 b8 07 1e
        E 19 b8 07 1b
        E 19 b8 07 19
        E 19 b8 07 17
        E 19 b8 07 15
        E 19 b8 07 13
        E 19 b8 07 11
        E 19 b8 07 0f
        E 19 b8 07 0d
        E 19 b8 07 0b
        E 19 b8 07 0a
        E 19 b8 07 08
        E 19 b8 07 07
        E 19 b8 07 06
        E 19 b8 07 05
        E 19 b8 07 03
        E 19 b8 07 03
        E 19 b8 07 02
        E 19 b8 07 01
        E 19 b8 07 00
        E 19 b8 07 00
        E 19 b8 07 00
        E 19 b8 07 00
        E 19 b8 07 00
        E 19 b8 07 00
        E 19 b8 07 00
        E 19 b8 07 00
        E 19 b8 07 00
        E 19 b8 07 01
        E 19 b8 07 02
        E 19 b8 07 03
        E 19 b8 07 03
        E 19 b8 07 04
        E 19 b8 07 05
        E 19 b8 07 07
        E 19 b8 07 07
        E 19 b8 07 09
        E 19 b8 07 0b
        E 19 b8 07 0c
        E 19 b8 07 0e
        E 19 b8 07 10
        E 19 b8 07 12
        E 19 b8 07 14
        E 19 b8 07 16
        E 19 b8 07 18
        E 19 b8 07 1a
        E 19 b8 07 1c
        E 19 b8 07 1f
        E 19 b8 07 21
        E 19 b8 07 24
        E 19 b8 07 26
        E 19 b8 07 28
        E 19 b8 07 2b
        E 19 b8 07 2d
        E 19 b8 07 2f
        E 19 b8 07 33
        E 38 b8 07 39
        E 38 b8 07 3c
        E 38 b8 07 3f
        E 38 b8 07 41
        E 38 b8 07 44
        E 38 b8 07 47
        E 38 b8 07 49
        E 38 b8 07 4c
        E 38 b8 07 4f
        E 38 b8 07 51
        E 38 b8 07 54
        E 38 b8 07 56
        E 38 b8 07 59
        E 38 b8 07 5b
        E 38 b8 07 5d
        E 38 b8 07 5f
        E 38 b8 07 62
        E 38 b8 07 63
        E 38 b8 07 65
        E 38 b8 07 67
        E 38 b8 07 69
        E 38 b8 07 6a
        E 38 b8 07 6c
        E 38 b8 07 6c
        E 38 b8 07 6d
        E 38 b8 07 6e
        E 38 b8 07 6f
        E 38 b8 07 70
        E 38 b8 07 71
        E 38 b8 07 71
        E 38 b8 07 72
        E 38 b8 07 72
        E 38 b8 07 72
        E 38 b8 07 72
        E 38 b8 07 72
        E 38 b8 07 71
        E 38 b8 07 71
        E 38 b8 07 70
        E 38 b8 07 6f
        E 38 b8 07 6e
        E 38 b8 07 6d
        E 38 b8 07 6c
        E 38 b8 07 6b
        E 38 b8 07 69
        E 38 b8 07 68
        E 38 b8 07 66
        E 38 b8 07 64
        E 38 b8 07 63
        E 38 b8 07 61
        E 38 b8 07 5e
        E 38 b8 07 5c
        E 38 b8 07 5a
        E 38 b8 07 58
        E 38 b8 07 55
        E 38 b8 07 52
        E 38 b8 07 50
        E 38 b8 07 4e
        E 38 b8 07 4b
        E 38 b8 07 48
        E 38 b8 07 46
        E 38 b8 07 42
        E 38 b8 07 3f
        E 38 b8 07 3d
        E 38 b8 07 3a
        E 38 b8 07 37
        E 38 b8 07 35
        E 38 b8 07 32
        E 38 b8 07 2f
        E 38 b8 07 2c
        E 38 b8 07 29
        E 38 b8 07 26
        E 38 b8 07 24
        E 38 b8 07 22
        E 38 b8 07 1f
        E 38 b8 07 1c
        E 38 b8 07 1a
        E 38 b8 07 18
        E 38 b8 07 15
        E 38 b8 07 13
        E 38 b8 07 11
        E 38 b8 07 0f
        E 38 b8 07 0d
        E 38 b8 07 0b
        E 38 b8 07 09
        E 38 b8 07 09
        E 38 b8 07 07
        E 38 b8 07 06
        E 38 b8 07 04
        E 38 b8 07 03
        E 38 b8 07 02
        E 38 b8 07 01
        E 38 b8 07 00
        E 38 b8 07 00
        E 38 b8 07 00
        E 38 b8 07 00
        E 38 b8 07 00
        E 38 b8 07 00
        E 38 b8 07 00
        E 38 b8 07 00
        E 38 b8 07 00
        E 38 b8 07 01
        E 38 b8 07 02
        E 38 b8 07 03
        E 38 b8 07 04
        E 38 b8 07 05
        E 38 b8 07 06
        E 38 b8 07 08
        E 38 b8 07 09
        E 38 b8 07 0a
        E 38 b8 07 0c
        E 38 b8 07 0e
        E 38 b8 07 10
        E 38 b8 07 12
        E 38 b8 07 14
        E 38 b8 07 16
        E 38 b8 07 19
        E 38 b8 07 1b
        E 38 b8 07 1d
        E 38 b8 07 20
        E 38 b8 07 23
        E 38 b8 07 25
        E 38 b8 07 28
        E 38 b8 07 2b
        E 38 b8 07 2d
        E 38 b8 07 30
        E 38 b8 07 33
        E 38 b8 07 36
        E 38 b8 07 39
        E 57 b8 07 13
        E 57 b8 07 14
        E 57 b8 07 15
        E 57 b8 07 15
        E 57 b8 07 16
        E 57 b8 07 17
        E 57 b8 07 18
        E 57 b8 07 19
        E 57 b8 07 1a
        E 57 b8 07 1b
        E 57 b8 07 1c
        E 57 b8 07 1c
        E 57 b8 07 1d
        E 57 b8 07 1e
        E 57 b8 07 1f
        E 57 b8 07 1f
        E 57 b8 07 20
        E 57 b8 07 21
        E 57 b8 07 21
        E 57 b8 07 22
        E 57 b8 07 23
        E 57 b8 07 23
        E 57 b8 07 24
        E 57 b8 07 24
        E 57 b8 07 24
        E 57 b8 07 24
        E 57 b8 07 25
        E 57 b8 07 25
        E 57 b8 07 25
        E 57 b8 07 25
        E 57 b8 07 26
        E 57 b8 07 26
        E 57 b8 07 26
        E 57 b8 07 26
        E 57 b8 07 26
        E 57 b8 07 25
        E 57 b8 07 25
        E 57 b8 07 25
        E 57 b8 07 25
        E 57 b8 07 24
        E 57 b8 07 24
        E 57 b8 07 24
        E 57 b8 07 23
        E 57 b8 07 23
        E 57 b8 07 22
        E 57 b8 07 22
        E 57 b8 07 21
        E 57 b8 07 21
        E 57 b8 07 20
        E 57 b8 07 1f
        E 57 b8 07 1e
        E 57 b8 07 1e
        E 57 b8 07 1d
        E 57 b8 07 1c
        E 57 b8 07 1b
        E 57 b8 07 1a
        E 57 b8 07 1a
        E 57 b8 07 19
        E 57 b8 07 18
        E 57 b8 07 17
        E 57 b8 07 16
        E 57 b8 07 15
        E 57 b8 07 14
        E 57 b8 07 13
        E 57 b8 07 12
        E 57 b8 07 11
        E 57 b8 07 10
        E 57 b8 07 0f
        E 57 b8 07 0e
        E 57 b8 07 0d
        E 57 b8 07 0c
        E 57 b8 07 0c
        E 57 b8 07 0b
        E 57 b8 07 0a
        E 57 b8 07 09
        E 57 b8 07 08
        E 57 b8 07 08
        E 57 b8 07 07
        E 57 b8 07 06
        E 57 b8 07 05
        E 57 b8 07 05
        E 57 b8 07 04
        E 57 b8 07 03
        E 57 b8 07 03
        E 57 b8 07 03
        E 57 b8 07 02
        E 57 b8 07 02
        E 57 b8 07 01
        E 57 b8 07 01
        E 57 b8 07 00
        E 57 b8 07 00
        E 57 b8 07 00
        E 57 b8 07 00
        E 57 b8 07 00
        E 57 b8 07 00
        E 57 b8 07 00
        E 57 b8 07 00
        E 57 b8 07 00
        E 57 b8 07 00
        E 57 b8 07 00
        E 57 b8 07 00
        E 57 b8 07 00
        E 57 b8 07 01
        E 57 b8 07 01
        E 57 b8 07 01
        E 57 b8 07 02
        E 57 b8 07 02
        E 57 b8 07 03
        E 57 b8 07 03
        E 57 b8 07 04
        E 57 b8 07 04
        E 57 b8 07 05
        E 57 b8 07 06
        E 57 b8 07 06
        E 57 b8 07 07
        E 57 b8 07 08
        E 57 b8 07 09
        E 57 b8 07 09
        E 57 b8 07 0a
        E 57 b8 07 0b
        E 57 b8 07 0c
        E 57 b8 07 0d
        E 57 b8 07 0e
        E 57 b8 07 0f
        E 57 b8 07 10
        E 57 b8 07 11
        E 57 b8 07 12
        E 57 b8 07 13
        E 25 b8 07 33
        E 25 b8 07 35
        E 25 b8 07 37
        E 25 b8 07 3a
        E 25 b8 07 3c
        E 25 b8 07 3f
        E 25 b8 07 41
        E 25 b8 07 44
        E 25 b8 07 46
        E 25 b8 07 48
        E 25 b8 07 4b
        E 25 b8 07 4c
        E 25 b8 07 4f
        E 25 b8 07 51
        E 25 b8 07 53
        E 25 b8 07 54
        E 25 b8 07 57
        E 25 b8 07 58
        E 25 b8 07 5a
        E 25 b8 07 5b
        E 25 b8 07 5d
        E 25 b8 07 5e
        E 25 b8 07 5f
        E 25 b8 07 60
        E 25 b8 07 61
        E 25 b8 07 62
        E 25 b8 07 63
        E 25 b8 07 63
        E 25 b8 07 64
        E 25 b8 07 64
        E 25 b8 07 65
        E 25 b8 07 65
        E 25 b8 07 65
        E 25 b8 07 65
        E 25 b8 07 65
        E 25 b8 07 64
        E 25 b8 07 64
        E 25 b8 07 63
        E 25 b8 07 63
        E 25 b8 07 62
        E 25 b8 07 61
        E 25 b8 07 5f
        E 25 b8 07 5f
        E 25 b8 07 5d
        E 25 b8 07 5c
        E 25 b8 07 5b
        E 25 b8 07 59
        E 25 b8 07 57
        E 25 b8 07 56
        E 25 b8 07 54
        E 25 b8 07 52
        E 25 b8 07 50
        E 25 b8 07 4e
        E 25 b8 07 4c
        E 25 b8 07 49
        E 25 b8 07 47
        E 25 b8 07 45
        E 25 b8 07 43
        E 25 b8 07 40
        E 25 b8 07 3e
        E 25 b8 07 3b
        E 25 b8 07 38
        E 25 b8 07 36
        E 25 b8 07 33
        E 25 b8 07 31
        E 25 b8 07 2f
        E 25 b8 07 2c
        E 25 b8 07 2a
        E 25 b8 07 27
        E 25 b8 07 24
        E 25 b8 07 22
        E 25 b8 07 1f
        E 25 b8 07 1e
        E 25 b8 07 1b
        E 25 b8 07 19
        E 25 b8 07 17
        E 25 b8 07 15
        E 25 b8 07 13
        E 25 b8 07 11
        E 25 b8 07 0f
        E 25 b8 07 0d
        E 25 b8 07 0b
        E 25 b8 07 0a
        E 25 b8 07 08
        E 25 b8 07 07
        E 25 b8 07 06
        E 25 b8 07 05
        E 25 b8 07 03
        E 25 b8 07 03
        E 25 b8 07 02
        E 25 b8 07 01
        E 25 b8 07 00
        E 25 b8 07 00
        E 25 b8 07 00
        E 25 b8 07 00
        E 25 b8 07 00
        E 25 b8 07 00
        E 25 b8 07 00
        E 25 b8 07 00
        E 25 b8 07 00
        E 25 b8 07 01
        E 25 b8 07 02
        E 25 b8 07 03
        E 25 b8 07 03
        E 25 b8 07 04
        E 25 b8 07 05
        E 25 b8 07 07
        E 25 b8 07 07
        E 25 b8 07 09
        E 25 b8 07 0b
        E 25 b8 07 0c
        E 25 b8 07 0e
        E 25 b8 07 10
        E 25 b8 07 12
        E 25 b8 07 14
        E 25 b8 07 16
        E 25 b8 07 18
        E 25 b8 07 1a
        E 25 b8 07 1c
        E 25 b8 07 1f
        E 25 b8 07 21
        E 25 b8 07 24
        E 25 b8 07 26
        E 25 b8 07 28
        E 25 b8 07 2b
        E 25 b8 07 2d
        E 25 b8 07 2f
        E 25 b8 07 33
        E 6 b8 07 06
        E 6 b8 07 06
        E 6 b8 07 07
        E 6 b8 07 07
        E 6 b8 07 07
        E 6 b8 07 07
        E 6 b8 07 08
        E 6 b8 07 08
        E 6 b8 07 08
        E 6 b8 07 09
        E 6 b8 07 09
        E 6 b8 07 09
        E 6 b8 07 09
        E 6 b8 07 0a
        E 6 b8 07 0a
        E 6 b8 07 0a
        E 6 b8 07 0a
        E 6 b8 07 0b
        E 6 b8 07 0b
        E 6 b8 07 0b
        E 6 b8 07 0b
        E 6 b8 07 0b
        E 6 b8 07 0c
        E 6 b8 07 0c
        E 6 b8 07 0c
        E 6 b8 07 0c
        E 6 b8 07 0c
        E 6 b8 07 0c
        E 6 b8 07 0c
        E 6 b8 07 0c
        E 6 b8 07 0c
        E 6 b8 07 0c
        E 6 b8 07 0c
        E 6 b8 07 0c
        E 6 b8 07 0c
        E 6 b8 07 0c
        E 6 b8 07 0c
        E 6 b8 07 0c
        E 6 b8 07 0c
        E 6 b8 07 0c
        E 6 b8 07 0c
        E 6 b8 07 0c
        E 6 b8 07 0b
        E 6 b8 07 0b
        E 6 b8 07 0b
        E 6 b8 07 0b
        E 6 b8 07 0b
        E 6 b8 07 0b
        E 6 b8 07 0a
        E 6 b8 07 0a
        E 6 b8 07 0a
        E 6 b8 07 0a
        E 6 b8 07 09
        E 6 b8 07 09
        E 6 b8 07 09
        E 6 b8 07 08
        E 6 b8 07 08
        E 6 b8 07 08
        E 6 b8 07 08
        E 6 b8 07 07
        E 6 b8 07 07
        E 6 b8 07 07
        E 6 b8 07 06
        E 6 b8 07 06
        E 6 b8 07 06
        E 6 b8 07 05
        E 6 b8 07 05
        E 6 b8 07 05
        E 6 b8 07 04
        E 6 b8 07 04
        E 6 b8 07 04
        E 6 b8 07 04
        E 6 b8 07 03
        E 6 b8 07 03
        E 6 b8 07 03
        E 6 b8 07 02
        E 6 b8 07 02
        E 6 b8 07 02
        E 6 b8 07 02
        E 6 b8 07 01
        E 6 b8 07 01
        E 6 b8 07 01
        E 6 b8 07 01
        E 6 b8 07 01
        E 6 b8 07 01
        E 6 b8 07 00
        E 6 b8 07 00
        E 6 b8 07 00
        E 6 b8 07 00
        E 6 b8 07 00
        E 6 b8 07 00
        E 6 b8 07 00
        E 6 b8 07 00
        E 6 b8 07 00
        E 6 b8 07 00
        E 6 b8 07 00
        E 6 b8 07 00
        E 6 b8 07 00
        E 6 b8 07 00
        E 6 b8 07 00
        E 6 b8 07 00
        E 6 b8 07 00
        E 6 b8 07 00
        E 6 b8 07 00
        E 6 b8 07 00
        E 6 b8 07 00
        E 6 b8 07 00
        E 6 b8 07 01
        E 6 b8 07 01
        E 6 b8 07 01
        E 6 b8 07 01
        E 6 b8 07 01
        E 6 b8 07 02
        E 6 b8 07 02
        E 6 b8 07 02
        E 6 b8 07 02
        E 6 b8 07 03
        E 6 b8 07 03
        E 6 b8 07 03
        E 6 b8 07 03
        E 6 b8 07 04
        E 6 b8 07 04
        E 6 b8 07 04
        E 6 b8 07 05
        E 6 b8 07 05
        E 6 b8 07 05
        E 6 b8 07 06
        E 6 b8 07 06
        E 44 b8 07 39
        E 44 b8 07 3c
        E 44 b8 07 3f
        E 44 b8 07 41
        E 44 b8 07 44
        E 44 b8 07 47
        E 44 b8 07 49
        E 44 b8 07 4c
        E 44 b8 07 4f
        E 44 b8 07 51
        E 44 b8 07 54
        E 44 b8 07 56
        E 44 b8 07 59
        E 44 b8 07 5b
        E 44 b8 07 5d
        E 44 b8 07 5f
        E 44 b8 07 62
        E 44 b8 07 63
        E 44 b8 07 65
        E 44 b8 07 67
        E 44 b8 07 69
        E 44 b8 07 6a
        E 44 b8 07 6c
        E 44 b8 07 6c
        E 44 b8 07 6d
        E 44 b8 07 6e
        E 44 b8 07 6f
        E 44 b8 07 70
        E 44 b8 07 71
        E 44 b8 07 71
        E 44 b8 07 72
        E 44 b8 07 72
        E 44 b8 07 72
        E 44 b8 07 72
        E 44 b8 07 72
        E 44 b8 07 71
        E 44 b8 07 71
        E 44 b8 07 70
        E 44 b8 07 6f
        E 44 b8 07 6e
        E 44 b8 07 6d
        E 44 b8 07 6c
        E 44 b8 07 6b
        E 44 b8 07 69
        E 44 b8 07 68
        E 44 b8 07 66
        E 44 b8 07 64
        E 44 b8 07 63
        E 44 b8 07 61
        E 44 b8 07 5e
        E 44 b8 07 5c
        E 44 b8 07 5a
        E 44 b8 07 58
        E 44 b8 07 55
        E 44 b8 07 52
        E 44 b8 07 50
        E 44 b8 07 4e
        E 44 b8 07 4b
        E 44 b8 07 48
        E 44 b8 07 46
        E 44 b8 07 42
        E 44 b8 07 3f
        E 44 b8 07 3d
        E 44 b8 07 3a
        E 44 b8 07 37
        E 44 b8 07 35
        E 44 b8 07 32
        E 44 b8 07 2f
        E 44 b8 07 2c
        E 44 b8 07 29
        E 44 b8 07 26
        E 44 b8 07 24
        E 44 b8 07 22
        E 44 b8 07 1f
        E 44 b8 07 1c
        E 44 b8 07 1a
        E 44 b8 07 18
        E 44 b8 07 15
        E 44 b8 07 13
        E 44 b8 07 11
        E 44 b8 07 0f
        E 44 b8 07 0d
        E 44 b8 07 0b
        E 44 b8 07 09
        E 44 b8 07 09
        E 44 b8 07 07
        E 44 b8 07 06
        E 44 b8 07 04
        E 44 b8 07 03
        E 44 b8 07 02
        E 44 b8 07 01
        E 44 b8 07 00
        E 44 b8 07 00
        E 44 b8 07 00
        E 44 b8 07 00
        E 44 b8 07 00
        E 44 b8 07 00
        E 44 b8 07 00
        E 44 b8 07 00
        E 44 b8 07 00
        E 44 b8 07 01
        E 44 b8 07 02
        E 44 b8 07 03
        E 44 b8 07 04
        E 44 b8 07 05
        E 44 b8 07 06
        E 44 b8 07 08
        E 44 b8 07 09
        E 44 b8 07 0a
        E 44 b8 07 0c
        E 44 b8 07 0e
        E 44 b8 07 10
        E 44 b8 07 12
        E 44 b8 07 14
        E 44 b8 07 16
        E 44 b8 07 19
        E 44 b8 07 1b
        E 44 b8 07 1d
        E 44 b8 07 20
        E 44 b8 07 23
        E 44 b8 07 25
        E 44 b8 07 28
        E 44 b8 07 2b
        E 44 b8 07 2d
        E 44 b8 07 30
        E 44 b8 07 33
        E 44 b8 07 36
        E 44 b8 07 39
        E 19 b8 07 33
        E 19 b8 07 35
        E 19 b8 07 37
        E 19 b8 07 3a
        E 19 b8 07 3c
        E 19 b8 07 3f
        E 19 b8 07 41
        E 19 b8 07 44
        E 19 b8 07 46
        E 19 b8 07 48
        E 19 b8 07 4b
        E 19 b8 07 4c
        E 19 b8 07 4f
        E 19 b8 07 51
        E 19 b8 07 53
        E 19 b8 07 54
        E 19 b8 07 57
        E 19 b8 07 58
        E 19 b8 07 5a
        E 19 b8 07 5b
        E 19 b8 07 5d
        E 19 b8 07 5e
        E 19 b8 07 5f
        E 19 b8 07 60
        E 19 b8 07 61
        E 19 b8 07 62
        E 19 b8 07 63
        E 19 b8 07 63
        E 19 b8 07 64
        E 19 b8 07 64
        E 19 b8 07 65
        E 19 b8 07 65
        E 19 b8 07 65
        E 19 b8 07 65
        E 19 b8 07 65
        E 19 b8 07 64
        E 19 b8 07 64
        E 19 b8 07 63
        E 19 b8 07 63
        E 19 b8 07 62
        E 19 b8 07 61
        E 19 b8 07 5f
        E 19 b8 07 5f
        E 19 b8 07 5d
        E 19 b8 07 5c
        E 19 b8 07 5b
        E 19 b8 07 59
        E 19 b8 07 57
        E 19 b8 07 56
        E 19 b8 07 54
        E 19 b8 07 52
        E 19 b8 07 50
        E 19 b8 07 4e
        E 19 b8 07 4c
        E 19 b8 07 49
        E 19 b8 07 47
        E 19 b8 07 45
        E 19 b8 07 43
        E 19 b8 07 40
        E 19 b8 07 3e
        E 19 b8 07 3b
        E 19 b8 07 38
        E 19 b8 07 36
        E 19 b8 07 33
        E 19 b8 07 31
        E 19 b8 07 2f
        E 19 b8 07 2c
        E 19 b8 07 2a
        E 19 b8 07 27
        E 19 b8 07 24
        E 19 b8 07 22
        E 19 b8 07 1f
        E 19 b8 07 1e
        E 19 b8 07 1b
        E 19 b8 07 19
        E 19 b8 07 17
        E 19 b8 07 15
        E 19 b8 07 13
        E 19 b8 07 11
        E 19 b8 07 0f
        E 19 b8 07 0d
        E 19 b8 07 0b
        E 19 b8 07 0a
        E 19 b8 07 08
        E 19 b8 07 07
        E 19 b8 07 06
        E 19 b8 07 05
        E 19 b8 07 03
        E 19 b8 07 03
        E 19 b8 07 02
        E 19 b8 07 01
        E 19 b8 07 00
        E 19 b8 07 00
        E 19 b8 07 00
        E 19 b8 07 00
        E 19 b8 07 00
        E 19 b8 07 00
        E 19 b8 07 00
        E 19 b8 07 00
        E 19 b8 07 00
        E 19 b8 07 01
        E 19 b8 07 02
        E 19 b8 07 03
        E 19 b8 07 03
        E 19 b8 07 04
        E 19 b8 07 05
        E 19 b8 07 07
        E 19 b8 07 07
        E 19 b8 07 09
        E 19 b8 07 0b
        E 19 b8 07 0c
        E 19 b8 07 0e
        E 19 b8 07 10
        E 19 b8 07 12
        E 19 b8 07 14
        E 19 b8 07 16
        E 19 b8 07 18
        E 19 b8 07 1a
        E 19 b8 07 1c
        E 19 b8 07 1f
        E 19 b8 07 21
        E 19 b8 07 24
        E 19 b8 07 26
        E 19 b8 07 28
        E 19 b8 07 2b
        E 19 b8 07 2d
        E 19 b8 07 2f
        E 19 b8 07 33
        E 38 b8 07 39
        E 38 b8 07 3c
        E 38 b8 07 3f
        E 38 b8 07 41
        E 38 b8 07 44
        E 38 b8 07 47
        E 38 b8 07 49
        E 38 b8 07 4c
        E 38 b8 07 4f
        E 38 b8 07 51
        E 38 b8 07 54
        E 38 b8 07 56
        E 38 b8 07 59
        E 38 b8 07 5b
        E 38 b8 07 5d
        E 38 b8 07 5f
        E 38 b8 07 62
        E 38 b8 07 63
        E 38 b8 07 65
        E 38 b8 07 67
        E 38 b8 07 69
        E 38 b8 07 6a
        E 38 b8 07 6c
        E 38 b8 07 6c
        E 38 b8 07 6d
        E 38 b8 07 6e
        E 38 b8 07 6f
        E 38 b8 07 70
        E 38 b8 07 71
        E 38 b8 07 71
        E 38 b8 07 72
        E 38 b8 07 72
        E 38 b8 07 72
        E 38 b8 07 72
        E 38 b8 07 72
        E 38 b8 07 71
        E 38 b8 07 71
        E 38 b8 07 70
        E 38 b8 07 6f
        E 38 b8 07 6e
        E 38 b8 07 6d
        E 38 b8 07 6c
        E 38 b8 07 6b
        E 38 b8 07 69
        E 38 b8 07 68
        E 38 b8 07 66
        E 38 b8 07 64
        E 38 b8 07 63
        E 38 b8 07 61
        E 38 b8 07 5e
        E 38 b8 07 5c
        E 38 b8 07 5a
        E 38 b8 07 58
        E 38 b8 07 55
        E 38 b8 07 52
        E 38 b8 07 50
        E 38 b8 07 4e
        E 38 b8 07 4b
        E 38 b8 07 48
        E 38 b8 07 46
        E 38 b8 07 42
        E 38 b8 07 3f
        E 38 b8 07 3d
        E 38 b8 07 3a
        E 38 b8 07 37
        E 38 b8 07 35
        E 38 b8 07 32
        E 38 b8 07 2f
        E 38 b8 07 2c
        E 38 b8 07 29
        E 38 b8 07 26
        E 38 b8 07 24
        E 38 b8 07 22
        E 38 b8 07 1f
        E 38 b8 07 1c
        E 38 b8 07 1a
        E 38 b8 07 18
        E 38 b8 07 15
        E 38 b8 07 13
        E 38 b8 07 11
        E 38 b8 07 0f
        E 38 b8 07 0d
        E 38 b8 07 0b
        E 38 b8 07 09
        E 38 b8 07 09
        E 38 b8 07 07
        E 38 b8 07 06
        E 38 b8 07 04
        E 38 b8 07 03
        E 38 b8 07 02
        E 38 b8 07 01
        E 38 b8 07 00
        E 38 b8 07 00
        E 38 b8 07 00
        E 38 b8 07 00
        E 38 b8 07 00
        E 38 b8 07 00
        E 38 b8 07 00
        E 38 b8 07 00
        E 38 b8 07 00
        E 38 b8 07 01
        E 38 b8 07 02
        E 38 b8 07 03
        E 38 b8 07 04
        E 38 b8 07 05
        E 38 b8 07 06
        E 38 b8 07 08
        E 38 b8 07 09
        E 38 b8 07 0a
        E 38 b8 07 0c
        E 38 b8 07 0e
        E 38 b8 07 10
        E 38 b8 07 12
        E 38 b8 07 14
        E 38 b8 07 16
        E 38 b8 07 19
        E 38 b8 07 1b
        E 38 b8 07 1d
        E 38 b8 07 20
        E 38 b8 07 23
        E 38 b8 07 25
        E 38 b8 07 28
        E 38 b8 07 2b
        E 38 b8 07 2d
        E 38 b8 07 30
        E 38 b8 07 33
        E 38 b8 07 36
        E 38 b8 07 39
        E 57 b8 07 13
        E 57 b8 07 14
        E 57 b8 07 15
        E 57 b8 07 15
        E 57 b8 07 16
        E 57 b8 07 17
        E 57 b8 07 18
        E 57 b8 07 19
        E 57 b8 07 1a
        E 57 b8 07 1b
        E 57 b8 07 1c
        E 57 b8 07 1c
        E 57 b8 07 1d
        E 57 b8 07 1e
        E 57 b8 07 1f
        E 57 b8 07 1f
        E 57 b8 07 20
        E 57 b8 07 21
        E 57 b8 07 21
        E 57 b8 07 22
        E 57 b8 07 23
        E 57 b8 07 23
        E 57 b8 07 24
        E 57 b8 07 24
        E 57 b8 07 24
        E 57 b8 07 24
        E 57 b8 07 25
        E 57 b8 07 25
        E 57 b8 07 25
        E 57 b8 07 25
        E 57 b8 07 26
        E 57 b8 07 26
        E 57 b8 07 26
        E 57 b8 07 26
        E 57 b8 07 26
        E 57 b8 07 25
        E 57 b8 07 25
        E 57 b8 07 25
        E 57 b8 07 25
        E 57 b8 07 24
        E 57 b8 07 24
        E 57 b8 07 24
        E 57 b8 07 23
        E 57 b8 07 23
        E 57 b8 07 22
        E 57 b8 07 22
        E 57 b8 07 21
        E 57 b8 07 21
        E 57 b8 07 20
        E 57 b8 07 1f
        E 57 b8 07 1e
        E 57 b8 07 1e
        E 57 b8 07 1d
        E 57 b8 07 1c
        E 57 b8 07 1b
        E 57 b8 07 1a
        E 57 b8 07 1a
        E 57 b8 07 19
        E 57 b8 07 18
        E 57 b8 07 17
        E 57 b8 07 16
        E 57 b8 07 15
        E 57 b8 07 14
        E 57 b8 07 13
        E 57 b8 07 12
        E 57 b8 07 11
        E 57 b8 07 10
        E 57 b8 07 0f
        E 57 b8 07 0e
        E 57 b8 07 0d
        E 57 b8 07 0c
        E 57 b8 07 0c
        E 57 b8 07 0b
        E 57 b8 07 0a
        E 57 b8 07 09
        E 57 b8 07 08
        E 57 b8 07 08
        E 57 b8 07 07
        E 57 b8 07 06
        E 57 b8 07 05
        E 57 b8 07 05
        E 57 b8 07 04
        E 57 b8 07 03
        E 57 b8 07 03
        E 57 b8 07 03
        E 57 b8 07 02
        E 57 b8 07 02
        E 57 b8 07 01
        E 57 b8 07 01
        E 57 b8 07 00
        E 57 b8 07 00
        E 57 b8 07 00
        E 57 b8 07 00
        E 57 b8 07 00
        E 57 b8 07 00
        E 57 b8 07 00
        E 57 b8 07 00
        E 57 b8 07 00
        E 57 b8 07 00
        E 57 b8 07 00
        E 57 b8 07 00
        E 57 b8 07 00
        E 57 b8 07 01
        E 57 b8 07 01
        E 57 b8 07 01
        E 57 b8 07 02
        E 57 b8 07 02
        E 57 b8 07 03
        E 57 b8 07 03
        E 57 b8 07 04
        E 57 b8 07 04
        E 57 b8 07 05
        E 57 b8 07 06
        E 57 b8 07 06
        E 57 b8 07 07
        E 57 b8 07 08
        E 57 b8 07 09
        E 57 b8 07 09
        E 57 b8 07 0a
        E 57 b8 07 0b
        E 57 b8 07 0c
        E 57 b8 07 0d
        E 57 b8 07 0e
        E 57 b8 07 0f
        E 57 b8 07 10
        E 57 b8 07 11
        E 57 b8 07 12
        E 57 b8 07 13
        E 25 b8 07 33
        E 25 b8 07 35
        E 25 b8 07 37
        E 25 b8 07 3a
        E 25 b8 07 3c
        E 25 b8 07 3f
        E 25 b8 07 41
        E 25 b8 07 44
        E 25 b8 07 46
        E 25 b8 07 48
        E 25 b8 07 4b
        E 25 b8 07 4c
        E 25 b8 07 4f
        E 25 b8 07 51
        E 25 b8 07 53
        E 25 b8 07 54
        E 25 b8 07 57
        E 25 b8 07 58
        E 25 b8 07 5a
        E 25 b8 07 5b
        E 25 b8 07 5d
        E 25 b8 07 5e
        E 25 b8 07 5f
        E 25 b8 07 60
        E 25 b8 07 61
        E 25 b8 07 62
        E 25 b8 07 63
        E 25 b8 07 63
        E 25 b8 07 64
        E 25 b8 07 64
        E 25 b8 07 65
        E 25 b8 07 65
        E 25 b8 07 65
        E 25 b8 07 65
        E 25 b8 07 65
        E 25 b8 07 64
        E 25 b8 07 64
        E 25 b8 07 63
        E 25 b8 07 63
        E 25 b8 07 62
        E 25 b8 07 61
        E 25 b8 07 5f
        E 25 b8 07 5f
        E 25 b8 07 5d
        E 25 b8 07 5c
        E 25 b8 07 5b
        E 25 b8 07 59
        E 25 b8 07 57
        E 25 b8 07 56
        E 25 b8 07 54
        E 25 b8 07 52
        E 25 b8 07 50
        E 25 b8 07 4e
        E 25 b8 07 4c
        E 25 b8 07 49
        E 25 b8 07 47
        E 25 b8 07 45
        E 25 b8 07 43
        E 25 b8 07 40
        E 25 b8 07 3e
        E 25 b8 07 3b
        E 25 b8 07 38
        E 25 b8 07 36
        E 25 b8 07 33
        E 25 b8 07 31
        E 25 b8 07 2f
        E 25 b8 07 2c
        E 25 b8 07 2a
        E 25 b8 07 27
        E 25 b8 07 24
        E 25 b8 07 22
        E 25 b8 07 1f
        E 25 b8 07 1e
        E 25 b8 07 1b
        E 25 b8 07 19
        E 25 b8 07 17
        E 25 b8 07 15
        E 25 b8 07 13
        E 25 b8 07 11
        E 25 b8 07 0f
        E 25 b8 07 0d
        E 25 b8 07 0b
        E 25 b8 07 0a
        E 25 b8 07 08
        E 25 b8 07 07
        E 25 b8 07 06
        E 25 b8 07 05
        E 25 b8 07 03
        E 25 b8 07 03
        E 25 b8 07 02
        E 25 b8 07 01
        E 25 b8 07 00
        E 25 b8 07 00
        E 25 b8 07 00
        E 25 b8 07 00
        E 25 b8 07 00
        E 25 b8 07 00
        E 25 b8 07 00
        E 25 b8 07 00
        E 25 b8 07 00
        E 25 b8 07 01
        E 25 b8 07 02
        E 25 b8 07 03
        E 25 b8 07 03
        E 25 b8 07 04
        E 25 b8 07 05
        E 25 b8 07 07
        E 25 b8 07 07
        E 25 b8 07 09
        E 25 b8 07 0b
        E 25 b8 07 0c
        E 25 b8 07 0e
        E 25 b8 07 10
        E 25 b8 07 12
        E 25 b8 07 14
        E 25 b8 07 16
        E 25 b8 07 18
        E 25 b8 07 1a
        E 25 b8 07 1c
        E 25 b8 07 1f
        E 25 b8 07 21
        E 25 b8 07 24
        E 25 b8 07 26
        E 25 b8 07 28
        E 25 b8 07 2b
        E 25 b8 07 2d
        E 25 b8 07 2f
        E 25 b8 07 33
        E 6 b8 07 06
        E 6 b8 07 06
        E 6 b8 07 07
        E 6 b8 07 07
        E 6 b8 07 07
        E 6 b8 07 07
        E 6 b8 07 08
        E 6 b8 07 08
        E 6 b8 07 08
        E 6 b8 07 09
        E 6 b8 07 09
        E 6 b8 07 09
        E 6 b8 07 09
        E 6 b8 07 0a
        E 6 b8 07 0a
        E 6 b8 07 0a
        E 6 b8 07 0a
        E 6 b8 07 0b
        E 6 b8 07 0b
        E 6 b8 07 0b
        E 6 b8 07 0b
        E 6 b8 07 0b
        E 6 b8 07 0c
        E 6 b8 07 0c
        E 6 b8 07 0c
        E 6 b8 07 0c
        E 6 b8 07 0c
        E 6 b8 07 0c
        E 6 b8 07 0c
        E 6 b8 07 0c
        E 6 b8 07 0c
        E 6 b8 07 0c
        E 6 b8 07 0c
        E 6 b8 07 0c
        E 6 b8 07 0c
        E 6 b8 07 0c
        E 6 b8 07 0c
        E 6 b8 07 0c
        E 6 b8 07 0c
        E 6 b8 07 0c
        E 6 b8 07 0c
        E 6 b8 07 0c
        E 6 b8 07 0b
        E 6 b8 07 0b
        E 6 b8 07 0b
        E 6 b8 07 0b
        E 6 b8 07 0b
        E 6 b8 07 0b
        E 6 b8 07 0a
        E 6 b8 07 0a
        E 6 b8 07 0a
        E 6 b8 07 0a
        E 6 b8 07 09
        E 6 b8 07 09
        E 6 b8 07 09
        E 6 b8 07 08
        E 6 b8 07 08
        E 6 b8 07 08
        E 6 b8 07 08
        E 6 b8 07 07
        E 6 b8 07 07
        E 6 b8 07 07
        E 6 b8 07 06
        E 6 b8 07 06
        E 6 b8 07 06
        E 6 b8 07 05
        E 6 b8 07 05
        E 6 b8 07 05
        E 6 b8 07 04
        E 6 b8 07 04
        E 6 b8 07 04
        E 6 b8 07 04
        E 6 b8 07 03
        E 6 b8 07 03
        E 6 b8 07 03
        E 6 b8 07 02
        E 6 b8 07 02
        E 6 b8 07 02
        E 6 b8 07 02
        E 6 b8 07 01
        E 6 b8 07 01
        E 6 b8 07 01
        E 6 b8 07 01
        E 6 b8 07 01
        E 6 b8 07 01
        E 6 b8 07 00
        E 6 b8 07 00
        E 6 b8 07 00
        E 6 b8 07 00
        E 6 b8 07 00
        E 6 b8 07 00
        E 6 b8 07 00
        E 6 b8 07 00
        E 6 b8 07 00
        E 6 b8 07 00
        E 6 b8 07 00
        E 6 b8 07 00
        E 6 b8 07 00
        E 6 b8 07 00
        E 6 b8 07 00
        E 6 b8 07 00
        E 6 b8 07 00
        E 6 b8 07 00
        E 6 b8 07 00
        E 6 b8 07 00
        E 6 b8 07 00
        E 6 b8 07 00
        E 6 b8 07 01
        E 6 b8 07 01
        E 6 b8 07 01
        E 6 b8 07 01
        E 6 b8 07 01
        E 6 b8 07 02
        E 6 b8 07 02
        E 6 b8 07 02
        E 6 b8 07 02
        E 6 b8 07 03
        E 6 b8 07 03
        E 6 b8 07 03
        E 6 b8 07 03
        E 6 b8 07 04
        E 6 b8 07 04
        E 6 b8 07 04
        E 6 b8 07 05
        E 6 b8 07 05
        E 6 b8 07 05
        E 6 b8 07 06
        E 6 b8 07 06
        E 44 b8 07 39
        E 44 b8 07 3c
        E 44 b8 07 3f
        E 44 b8 07 41
        E 44 b8 07 44
        E 44 b8 07 47
        E 44 b8 07 49
        E 44 b8 07 4c
        E 44 b8 07 4f
        E 44 b8 07 51
        E 44 b8 07 54
        E 44 b8 07 56
        E 44 b8 07 59
        E 44 b8 07 5b
        E 44 b8 07 5d
        E 44 b8 07 5f
        E 44 b8 07 62
        E 44 b8 07 63
        E 44 b8 07 65
        E 44 b8 07 67
        E 44 b8 07 69
        E 44 b8 07 6a
        E 44 b8 07 6c
        E 44 b8 07 6c
        E 44 b8 07 6d
        E 44 b8 07 6e
        E 44 b8 07 6f
        E 44 b8 07 70
        E 44 b8 07 71
        E 44 b8 07 71
        E 44 b8 07 72
        E 44 b8 07 72
        E 44 b8 07 72
        E 44 b8 07 72
        E 44 b8 07 72
        E 44 b8 07 71
        E 44 b8 07 71
        E 44 b8 07 70
        E 44 b8 07 6f
        E 44 b8 07 6e
        E 44 b8 07 6d
        E 44 b8 07 6c
        E 44 b8 07 6b
        E 44 b8 07 69
        E 44 b8 07 68
        E 44 b8 07 66
        E 44 b8 07 64
        E 44 b8 07 63
        E 44 b8 07 61
        E 44 b8 07 5e
        E 44 b8 07 5c
        E 44 b8 07 5a
        E 44 b8 07 58
        E 44 b8 07 55
        E 44 b8 07 52
        E 44 b8 07 50
        E 44 b8 07 4e
        E 44 b8 07 4b
        E 44 b8 07 48
        E 44 b8 07 46
        E 44 b8 07 42
        E 44 b8 07 3f
        E 44 b8 07 3d
        E 44 b8 07 3a
        E 44 b8 07 37
        E 44 b8 07 35
        E 44 b8 07 32
        E 44 b8 07 2f
        E 44 b8 07 2c
        E 44 b8 07 29
        E 44 b8 07 26
        E 44 b8 07 24
        E 44 b8 07 22
        E 44 b8 07 1f
        E 44 b8 07 1c
        E 44 b8 07 1a
        E 44 b8 07 18
        E 44 b8 07 15
        E 44 b8 07 13
        E 44 b8 07 11
        E 44 b8 07 0f
        E 44 b8 07 0d
        E 44 b8 07 0b
        E 44 b8 07 09
        E 44 b8 07 09
        E 44 b8 07 07
        E 44 b8 07 06
        E 44 b8 07 04
        E 44 b8 07 03
        E 44 b8 07 02
        E 44 b8 07 01
        E 44 b8 07 00
        E 44 b8 07 00
        E 44 b8 07 00
        E 44 b8 07 00
        E 44 b8 07 00
        E 44 b8 07 00
        E 44 b8 07 00
        E 44 b8 07 00
        E 44 b8 07 00
        E 44 b8 07 01
        E 44 b8 07 02
        E 44 b8 07 03
        E 44 b8 07 04
        E 44 b8 07 05
        E 44 b8 07 06
        E 44 b8 07 08
        E 44 b8 07 09
        E 44 b8 07 0a
        E 44 b8 07 0c
        E 44 b8 07 0e
        E 44 b8 07 10
        E 44 b8 07 12
        E 44 b8 07 14
        E 44 b8 07 16
        E 44 b8 07 19
        E 44 b8 07 1b
        E 44 b8 07 1d
        E 44 b8 07 20
        E 44 b8 07 23
        E 44 b8 07 25
        E 44 b8 07 28
        E 44 b8 07 2b
        E 44 b8 07 2d
        E 44 b8 07 30
        E 44 b8 07 33
        E 44 b8 07 36
        E 44 b8 07 39
        E 19 b8 07 33
        E 19 b8 07 35
        E 19 b8 07 37
        E 19 b8 07 3a
        E 19 b8 07 3c
        E 19 b8 07 3f
        E 19 b8 07 41
        E 19 b8 07 44
        E 19 b8 07 46
        E 19 b8 07 48
        E 19 b8 07 4b
        E 19 b8 07 4c
        E 19 b8 07 4f
        E 19 b8 07 51
        E 19 b8 07 53
        E 19 b8 07 54
        E 19 b8 07 57
        E 19 b8 07 58
        E 19 b8 07 5a
        E 19 b8 07 5b
        E 19 b8 07 5d
        E 19 b8 07 5e
        E 19 b8 07 5f
        E 19 b8 07 60
        E 19 b8 07 61
        E 19 b8 07 62
        E 19 b8 07 63
        E 19 b8 07 63
        E 19 b8 07 64
        E 19 b8 07 64
        E 19 b8 07 65
        E 19 b8 07 65
        E 19 b8 07 65
        E 19 b8 07 65
        E 19 b8 07 65
        E 19 b8 07 64
        E 19 b8 07 64
        E 19 b8 07 63
        E 19 b8 07 63
        E 19 b8 07 62
        E 19 b8 07 61
        E 19 b8 07 5f
        E 19 b8 07 5f
        E 19 b8 07 5d
        E 19 b8 07 5c
        E 19 b8 07 5b
        E 19 b8 07 59
        E 19 b8 07 57
        E 19 b8 07 56
        E 19 b8 07 54
        E 19 b8 07 52
        E 19 b8 07 50
        E 19 b8 07 4e
        E 19 b8 07 4c
        E 19 b8 07 49
        E 19 b8 07 47
        E 19 b8 07 45
        E 19 b8 07 43
        E 19 b8 07 40
        E 19 b8 07 3e
        E 19 b8 07 3b
        E 19 b8 07 38
        E 19 b8 07 36
        E 19 b8 07 33
        E 19 b8 07 31
        E 19 b8 07 2f
        E 19 b8 07 2c
        E 19 b8 07 2a
        E 19 b8 07 27
        E 19 b8 07 24
        E 19 b8 07 22
        E 19 b8 07 1f
        E 19 b8 07 1e
        E 19 b8 07 1b
        E 19 b8 07 19
        E 19 b8 07 17
        E 19 b8 07 15
        E 19 b8 07 13
        E 19 b8 07 11
        E 19 b8 07 0f
        E 19 b8 07 0d
        E 19 b8 07 0b
        E 19 b8 07 0a
        E 19 b8 07 08
        E 19 b8 07 07
        E 19 b8 07 06
        E 19 b8 07 05
        E 19 b8 07 03
        E 19 b8 07 03
        E 19 b8 07 02
        E 19 b8 07 01
        E 19 b8 07 00
        E 19 b8 07 00
        E 19 b8 07 00
        E 19 b8 07 00
        E 19 b8 07 00
        E 19 b8 07 00
        E 19 b8 07 00
        E 19 b8 07 00
        E 19 b8 07 00
        E 19 b8 07 01
        E 19 b8 07 02
        E 19 b8 07 03
        E 19 b8 07 03
        E 19 b8 07 04
        E 19 b8 07 05
        E 19 b8 07 07
        E 19 b8 07 07
        E 19 b8 07 09
        E 19 b8 07 0b
        E 19 b8 07 0c
        E 19 b8 07 0e
        E 19 b8 07 10
        E 19 b8 07 12
        E 19 b8 07 14
        E 19 b8 07 16
        E 19 b8 07 18
        E 19 b8 07 1a
        E 19 b8 07 1c
        E 19 b8 07 1f
        E 19 b8 07 21
        E 19 b8 07 24
        E 19 b8 07 26
        E 19 b8 07 28
        E 19 b8 07 2b
        E 19 b8 07 2d
        E 19 b8 07 2f
        E 19 b8 07 33
        E 38 b8 07 39
        E 38 b8 07 3c
        E 38 b8 07 3f
        E 38 b8 07 41
        E 38 b8 07 44
        E 38 b8 07 47
        E 38 b8 07 49
        E 38 b8 07 4c
        E 38 b8 07 4f
        E 38 b8 07 51
        E 38 b8 07 54
        E 38 b8 07 56
        E 38 b8 07 59
        E 38 b8 07 5b
        E 38 b8 07 5d
        E 38 b8 07 5f
        E 38 b8 07 62
        E 38 b8 07 63
        E 38 b8 07 65
        E 38 b8 07 67
        E 38 b8 07 69
        E 38 b8 07 6a
        E 38 b8 07 6c
        E 38 b8 07 6c
        E 38 b8 07 6d
        E 38 b8 07 6e
        E 38 b8 07 6f
        E 38 b8 07 70
        E 38 b8 07 71
        E 38 b8 07 71
        E 38 b8 07 72
        E 38 b8 07 72
        E 38 b8 07 72
        E 38 b8 07 72
        E 38 b8 07 72
        E 38 b8 07 71
        E 38 b8 07 71
        E 38 b8 07 70
        E 38 b8 07 6f
        E 38 b8 07 6e
        E 38 b8 07 6d
        E 38 b8 07 6c
        E 38 b8 07 6b
        E 38 b8 07 69
        E 38 b8 07 68
        E 38 b8 07 66
        E 38 b8 07 64
        E 38 b8 07 63
        E 38 b8 07 61
        E 38 b8 07 5e
        E 38 b8 07 5c
        E 38 b8 07 5a
        E 38 b8 07 58
        E 38 b8 07 55
        E 38 b8 07 52
        E 38 b8 07 50
        E 38 b8 07 4e
        E 38 b8 07 4b
        E 38 b8 07 48
        E 38 b8 07 46
        E 38 b8 07 42
        E 38 b8 07 3f
        E 38 b8 07 3d
        E 38 b8 07 3a
        E 38 b8 07 37
        E 38 b8 07 35
        E 38 b8 07 32
        E 38 b8 07 2f
        E 38 b8 07 2c
        E 38 b8 07 29
        E 38 b8 07 26
        E 38 b8 07 24
        E 38 b8 07 22
        E 38 b8 07 1f
        E 38 b8 07 1c
        E 38 b8 07 1a
        E 38 b8 07 18
        E 38 b8 07 15
        E 38 b8 07 13
        E 38 b8 07 11
        E 38 b8 07 0f
        E 38 b8 07 0d
        E 38 b8 07 0b
        E 38 b8 07 09
        E 38 b8 07 09
        E 38 b8 07 07
        E 38 b8 07 06
        E 38 b8 07 04
        E 38 b8 07 03
        E 38 b8 07 02
        E 38 b8 07 01
        E 38 b8 07 00
        E 38 b8 07 00
        E 38 b8 07 00
        E 38 b8 07 00
        E 38 b8 07 00
        E 38 b8 07 00
        E 38 b8 07 00
        E 38 b8 07 00
        E 38 b8 07 00
        E 38 b8 07 01
        E 38 b8 07 02
        E 38 b8 07 03
        E 38 b8 07 04
        E 38 b8 07 05
        E 38 b8 07 06
        E 38 b8 07 08
        E 38 b8 07 09
        E 38 b8 07 0a
        E 38 b8 07 0c
        E 38 b8 07 0e
        E 38 b8 07 10
        E 38 b8 07 12
        E 38 b8 07 14
        E 38 b8 07 16
        E 38 b8 07 19
        E 38 b8 07 1b
        E 38 b8 07 1d
        E 38 b8 07 20
        E 38 b8 07 23
        E 38 b8 07 25
        E 38 b8 07 28
        E 38 b8 07 2b
        E 38 b8 07 2d
        E 38 b8 07 30
        E 38 b8 07 33
        E 38 b8 07 36
        E 38 b8 07 39
        E 8 b8 07 0c
        E 8 b8 07 0c
        E 8 b8 07 0c
        E 8 b8 07 0c
        E 8 b8 07 0c
        E 8 b8 07 0c
        E 8 b8 07 0c
        E 8 b8 07 0c
        E 8 b8 07 0c
        E 8 b8 07 0c
        E 8 b8 07 0c
        E 8 b8 07 0c
        E 8 b8 07 0c
        E 8 b8 07 0c
        E 8 b8 07 0c
        E 8 b8 07 0c
        E 8 b8 07 0c
        E 8 b8 07 0c
        E 8 b8 07 0c
        E 8 b8 07 0c
        E 8 b8 07 0c
        E 8 b8 07 0c
        E 8 b8 07 0c
        E 8 b8 07 0c
        E 8 b8 07 0c
        E 8 b8 07 0c
        E 8 b8 07 0c
        E 8 b8 07 0c
        E 8 b8 07 0c
        E 8 b8 07 0c
        E 8 b8 07 0c
        E 8 b8 07 0c
        E 8 b8 07 0c
        E 8 b8 07 0c
        E 8 b8 07 0c
        E 8 b8 07 0c
        E 8 b8 07 0c
        E 8 b8 07 0c
        E 8 b8 07 0c
        E 8 b8 07 0c
        E 8 b8 07 0c
        E 8 b8 07 0c
        E 8 b8 07 0c
        E 8 b8 07 0c
        E 8 b8 07 0c
        E 8 b8 07 0c
        E 8 b8 07 0c
        E 8 b8 07 0c
        E 8 b8 07 0c
        E 8 b8 07 0c
        E 8 b8 07 0c
        E 8 b8 07 0c
        E 8 b8 07 0c
        E 8 b8 07 0c
        E 8 b8 07 0c
        E 8 b8 07 0c
        E 8 b8 07 0c
        E 8 b8 07 0c
        E 8 b8 07 0c
        E 8 b8 07 0c
        E 8 b8 07 0c
        E 8 b8 07 0c
        E 8 b8 07 0c
        E 8 b8 07 00
        E 8 b8 07 00
        E 8 b8 07 00
        E 8 b8 07 00
        E 8 b8 07 00
        E 8 b8 07 00
        E 8 b8 07 00
        E 8 b8 07 00
        E 8 b8 07 00
        E 8 b8 07 00
        E 8 b8 07 00
        E 8 b8 07 00
        E 8 b8 07 00
        E 8 b8 07 00
        E 8 b8 07 00
        E 8 b8 07 00
        E 8 b8 07 00
        E 8 b8 07 00
        E 8 b8 07 00
        E 8 b8 07 00
        E 8 b8 07 00
        E 8 b8 07 00
        E 8 b8 07 00
        E 8 b8 07 00
        E 8 b8 07 00
        E 8 b8 07 00
        E 8 b8 07 00
        E 8 b8 07 00
        E 8 b8 07 00
        E 8 b8 07 00
        E 8 b8 07 00
        E 8 b8 07 00
        E 8 b8 07 00
        E 8 b8 07 00
        E 8 b8 07 00
        E 8 b8 07 00
        E 8 b8 07 00
        E 8 b8 07 00
        E 8 b8 07 00
        E 8 b8 07 00
        E 8 b8 07 00
        E 8 b8 07 00
        E 8 b8 07 00
        E 8 b8 07 00
        E 8 b8 07 00
        E 8 b8 07 00
        E 8 b8 07 00
        E 8 b8 07 00
        E 8 b8 07 00
        E 8 b8 07 00
        E 8 b8 07 00
        E 8 b8 07 00
        E 8 b8 07 00
        E 8 b8 07 00
        E 8 b8 07 00
        E 8 b8 07 00
        E 8 b8 07 00
        E 8 b8 07 00
        E 8 b8 07 00
        E 8 b8 07 00
        E 8 b8 07 00
        E 8 b8 07 00
        E 8 b8 07 00
        E 8 b8 07 00
        E 56 b8 07 72
        E 56 b8 07 72
        E 56 b8 07 72
        E 56 b8 07 72
        E 56 b8 07 72
        E 56 b8 07 72
        E 56 b8 07 72
        E 56 b8 07 72
        E 56 b8 07 72
        E 56 b8 07 72
        E 56 b8 07 72
        E 56 b8 07 72
        E 56 b8 07 72
        E 56 b8 07 72
        E 56 b8 07 72
        E 56 b8 07 72
        E 56 b8 07 72
        E 56 b8 07 72
        E 56 b8 07 72
        E 56 b8 07 72
        E 56 b8 07 72
        E 56 b8 07 72
        E 56 b8 07 72
        E 56 b8 07 72
        E 56 b8 07 72
        E 56 b8 07 72
        E 56 b8 07 72
        E 56 b8 07 72
        E 56 b8 07 72
        E 56 b8 07 72
        E 56 b8 07 72
        E 56 b8 07 72
        E 56 b8 07 72
        E 56 b8 07 72
        E 56 b8 07 72
        E 56 b8 07 72
        E 56 b8 07 72
        E 56 b8 07 72
        E 56 b8 07 72
        E 56 b8 07 72
        E 56 b8 07 72
        E 56 b8 07 72
        E 56 b8 07 72
        E 56 b8 07 72
        E 56 b8 07 72
        E 56 b8 07 72
        E 56 b8 07 72
        E 56 b8 07 72
        E 56 b8 07 72
        E 56 b8 07 72
        E 56 b8 07 72
        E 56 b8 07 72
        E 56 b8 07 72
        E 56 b8 07 72
        E 56 b8 07 72
        E 56 b8 07 72
        E 56 b8 07 72
        E 56 b8 07 72
        E 56 b8 07 72
        E 56 b8 07 72
        E 56 b8 07 72
        E 56 b8 07 72
        E 56 b8 07 72
        E 56 b8 07 00
        E 56 b8 07 00
        E 56 b8 07 00
        E 56 b8 07 00
        E 56 b8 07 00
        E 56 b8 07 00
        E 56 b8 07 00
        E 56 b8 07 00
        E 56 b8 07 00
        E 56 b8 07 00
        E 56 b8 07 00
        E 56 b8 07 00
        E 56 b8 07 00
        E 56 b8 07 00
        E 56 b8 07 00
        E 56 b8 07 00
        E 56 b8 07 00
        E 56 b8 07 00
        E 56 b8 07 00
        E 56 b8 07 00
        E 56 b8 07 00
        E 56 b8 07 00
        E 56 b8 07 00
        E 56 b8 07 00
        E 56 b8 07 00
        E 56 b8 07 00
        E 56 b8 07 00
        E 56 b8 07 00
        E 56 b8 07 00
        E 56 b8 07 00
        E 56 b8 07 00
        E 56 b8 07 00
        E 56 b8 07 00
        E 56 b8 07 00
        E 56 b8 07 00
        E 56 b8 07 00
        E 56 b8 07 00
        E 56 b8 07 00
        E 56 b8 07 00
        E 56 b8 07 00
        E 56 b8 07 00
        E 56 b8 07 00
        E 56 b8 07 00
        E 56 b8 07 00
        E 56 b8 07 00
        E 56 b8 07 00
        E 56 b8 07 00
        E 56 b8 07 00
        E 56 b8 07 00
        E 56 b8 07 00
        E 56 b8 07 00
        E 56 b8 07 00
        E 56 b8 07 00
        E 56 b8 07 00
        E 56 b8 07 00
        E 56 b8 07 00
        E 56 b8 07 00
        E 56 b8 07 00
        E 56 b8 07 00
        E 56 b8 07 00
        E 56 b8 07 00
        E 56 b8 07 00
        E 56 b8 07 00
        E 56 b8 07 00
        E 24 b8 07 65
        E 24 b8 07 65
        E 24 b8 07 65
        E 24 b8 07 65
        E 24 b8 07 65
        E 24 b8 07 65
        E 24 b8 07 65
        E 24 b8 07 65
        E 24 b8 07 65
        E 24 b8 07 65
        E 24 b8 07 65
        E 24 b8 07 65
        E 24 b8 07 65
        E 24 b8 07 65
        E 24 b8 07 65
        E 24 b8 07 65
        E 24 b8 07 65
        E 24 b8 07 65
        E 24 b8 07 65
        E 24 b8 07 65
        E 24 b8 07 65
        E 24 b8 07 65
        E 24 b8 07 65
        E 24 b8 07 65
        E 24 b8 07 65
        E 24 b8 07 65
        E 24 b8 07 65
        E 24 b8 07 65
        E 24 b8 07 65
        E 24 b8 07 65
        E 24 b8 07 65
        E 24 b8 07 65
        E 24 b8 07 65
        E 24 b8 07 65
        E 24 b8 07 65
        E 24 b8 07 65
        E 24 b8 07 65
        E 24 b8 07 65
        E 24 b8 07 65
        E 24 b8 07 65
        E 24 b8 07 65
        E 24 b8 07 65
        E 24 b8 07 65
        E 24 b8 07 65
        E 24 b8 07 65
        E 24 b8 07 65
        E 24 b8 07 65
        E 24 b8 07 65
        E 24 b8 07 65
        E 24 b8 07 65
        E 24 b8 07 65
        E 24 b8 07 65
        E 24 b8 07 65
        E 24 b8 07 65
        E 24 b8 07 65
        E 24 b8 07 65
        E 24 b8 07 65
        E 24 b8 07 65
        E 24 b8 07 65
        E 24 b8 07 65
        E 24 b8 07 65
        E 24 b8 07 65
        E 24 b8 07 65
        E 24 b8 07 00
        E 24 b8 07 00
        E 24 b8 07 00
        E 24 b8 07 00
        E 24 b8 07 00
        E 24 b8 07 00
        E 24 b8 07 00
        E 24 b8 07 00
        E 24 b8 07 00
        E 24 b8 07 00
        E 24 b8 07 00
        E 24 b8 07 00
        E 24 b8 07 00
        E 24 b8 07 00
        E 24 b8 07 00
        E 24 b8 07 00
        E 24 b8 07 00
        E 24 b8 07 00
        E 24 b8 07 00
        E 24 b8 07 00
        E 24 b8 07 00
        E 24 b8 07 00
        E 24 b8 07 00
        E 24 b8 07 00
        E 24 b8 07 00
        E 24 b8 07 00
        E 24 b8 07 00
        E 24 b8 07 00
        E 24 b8 07 00
        E 24 b8 07 00
        E 24 b8 07 00
        E 24 b8 07 00
        E 24 b8 07 00
        E 24 b8 07 00
        E 24 b8 07 00
        E 24 b8 07 00
        E 24 b8 07 00
        E 24 b8 07 00
        E 24 b8 07 00
        E 24 b8 07 00
        E 24 b8 07 00
        E 24 b8 07 00
        E 24 b8 07 00
        E 24 b8 07 00
        E 24 b8 07 00
        E 24 b8 07 00
        E 24 b8 07 00
        E 24 b8 07 00
        E 24 b8 07 00
        E 24 b8 07 00
        E 24 b8 07 00
        E 24 b8 07 00
        E 24 b8 07 00
        E 24 b8 07 00
        E 24 b8 07 00
        E 24 b8 07 00
        E 24 b8 07 00
        E 24 b8 07 00
        E 24 b8 07 00
        E 24 b8 07 00
        E 24 b8 07 00
        E 24 b8 07 00
        E 24 b8 07 00
        E 24 b8 07 00
        E 48 b8 07 72
        E 48 b8 07 72
        E 48 b8 07 72
        E 48 b8 07 72
        E 48 b8 07 72
        E 48 b8 07 72
        E 48 b8 07 72
        E 48 b8 07 72
        E 48 b8 07 72
        E 48 b8 07 72
        E 48 b8 07 72
        E 48 b8 07 72
        E 48 b8 07 72
        E 48 b8 07 72
        E 48 b8 07 72
        E 48 b8 07 72
        E 48 b8 07 72
        E 48 b8 07 72
        E 48 b8 07 72
        E 48 b8 07 72
        E 48 b8 07 72
        E 48 b8 07 72
        E 48 b8 07 72
        E 48 b8 07 72
        E 48 b8 07 72
        E 48 b8 07 72
        E 48 b8 07 72
        E 48 b8 07 72
        E 48 b8 07 72
        E 48 b8 07 72
        E 48 b8 07 72
        E 48 b8 07 72
        E 48 b8 07 72
        E 48 b8 07 72
        E 48 b8 07 72
        E 48 b8 07 72
        E 48 b8 07 72
        E 48 b8 07 72
        E 48 b8 07 72
        E 48 b8 07 72
        E 48 b8 07 72
        E 48 b8 07 72
        E 48 b8 07 72
        E 48 b8 07 72
        E 48 b8 07 72
        E 48 b8 07 72
        E 48 b8 07 72
        E 48 b8 07 72
        E 48 b8 07 72
        E 48 b8 07 72
        E 48 b8 07 72
        E 48 b8 07 72
        E 48 b8 07 72
        E 48 b8 07 72
        E 48 b8 07 72
        E 48 b8 07 72
        E 48 b8 07 72
        E 48 b8 07 72
        E 48 b8 07 72
        E 48 b8 07 72
        E 48 b8 07 72
        E 48 b8 07 72
        E 48 b8 07 72
        E 48 b8 07 00
        E 48 b8 07 00
        E 48 b8 07 00
        E 48 b8 07 00
        E 48 b8 07 00
        E 48 b8 07 00
        E 48 b8 07 00
        E 48 b8 07 00
        E 48 b8 07 00
        E 48 b8 07 00
        E 48 b8 07 00
        E 48 b8 07 00
        E 48 b8 07 00
        E 48 b8 07 00
        E 48 b8 07 00
        E 48 b8 07 00
        E 48 b8 07 00
        E 48 b8 07 00
        E 48 b8 07 00
        E 48 b8 07 00
        E 48 b8 07 00
        E 48 b8 07 00
        E 48 b8 07 00
        E 48 b8 07 00
        E 48 b8 07 00
        E 48 b8 07 00
        E 48 b8 07 00
        E 48 b8 07 00
        E 48 b8 07 00
        E 48 b8 07 00
        E 48 b8 07 00
        E 48 b8 07 00
        E 48 b8 07 00
        E 48 b8 07 00
        E 48 b8 07 00
        E 48 b8 07 00
        E 48 b8 07 00
        E 48 b8 07 00
        E 48 b8 07 00
        E 48 b8 07 00
        E 48 b8 07 00
        E 48 b8 07 00
        E 48 b8 07 00
        E 48 b8 07 00
        E 48 b8 07 00
        E 48 b8 07 00
        E 48 b8 07 00
        E 48 b8 07 00
        E 48 b8 07 00
        E 48 b8 07 00
        E 48 b8 07 00
        E 48 b8 07 00
        E 48 b8 07 00
        E 48 b8 07 00
        E 48 b8 07 00
        E 48 b8 07 00
        E 48 b8 07 00
        E 48 b8 07 00
        E 48 b8 07 00
        E 48 b8 07 00
        E 48 b8 07 00
        E 48 b8 07 00
        E 48 b8 07 00
        E 48 b8 07 00
        E 72 b8 07 26
        E 72 b8 07 26
        E 72 b8 07 26
        E 72 b8 07 26
        E 72 b8 07 26
        E 72 b8 07 26
        E 72 b8 07 26
        E 72 b8 07 26
        E 72 b8 07 26
        E 72 b8 07 26
        E 72 b8 07 26
        E 72 b8 07 26
        E 72 b8 07 26
        E 72 b8 07 26
        E 72 b8 07 26
        E 72 b8 07 26
        E 72 b8 07 26
        E 72 b8 07 26
        E 72 b8 07 26
        E 72 b8 07 26
        E 72 b8 07 26
        E 72 b8 07 26
        E 72 b8 07 26
        E 72 b8 07 26
        E 72 b8 07 26
        E 72 b8 07 26
        E 72 b8 07 26
        E 72 b8 07 26
        E 72 b8 07 26
        E 72 b8 07 26
        E 72 b8 07 26
        E 72 b8 07 26
        E 72 b8 07 26
        E 72 b8 07 26
        E 72 b8 07 26
        E 72 b8 07 26
        E 72 b8 07 26
        E 72 b8 07 26
        E 72 b8 07 26
        E 72 b8 07 26
        E 72 b8 07 26
        E 72 b8 07 26
        E 72 b8 07 26
        E 72 b8 07 26
        E 72 b8 07 26
        E 72 b8 07 26
        E 72 b8 07 26
        E 72 b8 07 26
        E 72 b8 07 26
        E 72 b8 07 26
        E 72 b8 07 26
        E 72 b8 07 26
        E 72 b8 07 26
        E 72 b8 07 26
        E 72 b8 07 26
        E 72 b8 07 26
        E 72 b8 07 26
        E 72 b8 07 26
        E 72 b8 07 26
        E 72 b8 07 26
        E 72 b8 07 26
        E 72 b8 07 26
        E 72 b8 07 26
        E 72 b8 07 00
        E 72 b8 07 00
        E 72 b8 07 00
        E 72 b8 07 00
        E 72 b8 07 00
        E 72 b8 07 00
        E 72 b8 07 00
        E 72 b8 07 00
        E 72 b8 07 00
        E 72 b8 07 00
        E 72 b8 07 00
        E 72 b8 07 00
        E 72 b8 07 00
        E 72 b8 07 00
        E 72 b8 07 00
        E 72 b8 07 00
        E 72 b8 07 00
        E 72 b8 07 00
        E 72 b8 07 00
        E 72 b8 07 00
        E 72 b8 07 00
        E 72 b8 07 00
        E 72 b8 07 00
        E 72 b8 07 00
        E 72 b8 07 00
        E 72 b8 07 00
        E 72 b8 07 00
        E 72 b8 07 00
        E 72 b8 07 00
        E 72 b8 07 00
        E 72 b8 07 00
        E 72 b8 07 00
        E 72 b8 07 00
        E 72 b8 07 00
        E 72 b8 07 00
        E 72 b8 07 00
        E 72 b8 07 00
        E 72 b8 07 00
        E 72 b8 07 00
        E 72 b8 07 00
        E 72 b8 07 00
        E 72 b8 07 00
        E 72 b8 07 00
        E 72 b8 07 00
        E 72 b8 07 00
        E 72 b8 07 00
        E 72 b8 07 00
        E 72 b8 07 00
        E 72 b8 07 00
        E 72 b8 07 00
        E 72 b8 07 00
        E 72 b8 07 00
        E 72 b8 07 00
        E 72 b8 07 00
        E 72 b8 07 00
        E 72 b8 07 00
        E 72 b8 07 00
        E 72 b8 07 00
        E 72 b8 07 00
        E 72 b8 07 00
        E 72 b8 07 00
        E 72 b8 07 00
        E 72 b8 07 00
        E 72 b8 07 00
        E 32 b8 07 65
        E 32 b8 07 65
        E 32 b8 07 65
        E 32 b8 07 65
        E 32 b8 07 65
        E 32 b8 07 65
        E 32 b8 07 65
        E 32 b8 07 65
        E 32 b8 07 65
        E 32 b8 07 65
        E 32 b8 07 65
        E 32 b8 07 65
        E 32 b8 07 65
        E 32 b8 07 65
        E 32 b8 07 65
        E 32 b8 07 65
        E 32 b8 07 65
        E 32 b8 07 65
        E 32 b8 07 65
        E 32 b8 07 65
        E 32 b8 07 65
        E 32 b8 07 65
        E 32 b8 07 65
        E 32 b8 07 65
        E 32 b8 07 65
        E 32 b8 07 65
        E 32 b8 07 65
        E 32 b8 07 65
        E 32 b8 07 65
        E 32 b8 07 65
        E 32 b8 07 65
        E 32 b8 07 65
        E 32 b8 07 65
        E 32 b8 07 65
        E 32 b8 07 65
        E 32 b8 07 65
        E 32 b8 07 65
        E 32 b8 07 65
        E 32 b8 07 65
        E 32 b8 07 65
        E 32 b8 07 65
        E 32 b8 07 65
        E 32 b8 07 65
        E 32 b8 07 65
        E 32 b8 07 65
        E 32 b8 07 65
        E 32 b8 07 65
        E 32 b8 07 65
        E 32 b8 07 65
        E 32 b8 07 65
        E 32 b8 07 65
        E 32 b8 07 65
        E 32 b8 07 65
        E 32 b8 07 65
        E 32 b8 07 65
        E 32 b8 07 65
        E 32 b8 07 65
        E 32 b8 07 65
        E 32 b8 07 65
        E 32 b8 07 65
        E 32 b8 07 65
        E 32 b8 07 65
        E 32 b8 07 65
        E 32 b8 07 00
        E 32 b8 07 00
        E 32 b8 07 00
        E 32 b8 07 00
        E 32 b8 07 00
        E 32 b8 07 00
        E 32 b8 07 00
        E 32 b8 07 00
        E 32 b8 07 00
        E 32 b8 07 00
        E 32 b8 07 00
        E 32 b8 07 00
        E 32 b8 07 00
        E 32 b8 07 00
        E 32 b8 07 00
        E 32 b8 07 00
        E 32 b8 07 00
        E 32 b8 07 00
        E 32 b8 07 00
        E 32 b8 07 00
        E 32 b8 07 00
        E 32 b8 07 00
        E 32 b8 07 00
        E 32 b8 07 00
        E 32 b8 07 00
        E 32 b8 07 00
        E 32 b8 07 00
        E 32 b8 07 00
        E 32 b8 07 00
        E 32 b8 07 00
        E 32 b8 07 00
        E 32 b8 07 00
        E 32 b8 07 00
        E 32 b8 07 00
        E 32 b8 07 00
        E 32 b8 07 00
        E 32 b8 07 00
        E 32 b8 07 00
        E 32 b8 07 00
        E 32 b8 07 00
        E 32 b8 07 00
        E 32 b8 07 00
        E 32 b8 07 00
        E 32 b8 07 00
        E 32 b8 07 00
        E 32 b8 07 00
        E 32 b8 07 00
        E 32 b8 07 00
        E 32 b8 07 00
        E 32 b8 07 00
        E 32 b8 07 00
        E 32 b8 07 00
        E 32 b8 07 00
        E 32 b8 07 00
        E 32 b8 07 00
        E 32 b8 07 00
        E 32 b8 07 00
        E 32 b8 07 00
        E 32 b8 07 00
        E 32 b8 07 00
        E 32 b8 07 00
        E 32 b8 07 00
        E 32 b8 07 00
        E 32 b8 07 00
        E 8 b8 07 0c
        E 8 b8 07 0c
        E 8 b8 07 0c
        E 8 b8 07 0c
        E 8 b8 07 0c
        E 8 b8 07 0c
        E 8 b8 07 0c
        E 8 b8 07 0c
        E 8 b8 07 0c
        E 8 b8 07 0c
        E 8 b8 07 0c
        E 8 b8 07 0c
        E 8 b8 07 0c
        E 8 b8 07 0c
        E 8 b8 07 0c
        E 8 b8 07 0c
        E 8 b8 07 0c
        E 8 b8 07 0c
        E 8 b8 07 0c
        E 8 b8 07 0c
        E 8 b8 07 0c
        E 8 b8 07 0c
        E 8 b8 07 0c
        E 8 b8 07 0c
        E 8 b8 07 0c
        E 8 b8 07 0c
        E 8 b8 07 0c
        E 8 b8 07 0c
        E 8 b8 07 0c
        E 8 b8 07 0c
        E 8 b8 07 0c
        E 8 b8 07 0c
        E 8 b8 07 0c
        E 8 b8 07 0c
        E 8 b8 07 0c
        E 8 b8 07 0c
        E 8 b8 07 0c
        E 8 b8 07 0c
        E 8 b8 07 0c
        E 8 b8 07 0c
        E 8 b8 07 0c
        E 8 b8 07 0c
        E 8 b8 07 0c
        E 8 b8 07 0c
        E 8 b8 07 0c
        E 8 b8 07 0c
        E 8 b8 07 0c
        E 8 b8 07 0c
        E 8 b8 07 0c
        E 8 b8 07 0c
        E 8 b8 07 0c
        E 8 b8 07 0c
        E 8 b8 07 0c
        E 8 b8 07 0c
        E 8 b8 07 0c
        E 8 b8 07 0c
        E 8 b8 07 0c
        E 8 b8 07 0c
        E 8 b8 07 0c
        E 8 b8 07 0c
        E 8 b8 07 0c
        E 8 b8 07 0c
        E 8 b8 07 0c
        E 8 b8 07 00
        E 8 b8 07 00
        E 8 b8 07 00
        E 8 b8 07 00
        E 8 b8 07 00
        E 8 b8 07 00
        E 8 b8 07 00
        E 8 b8 07 00
        E 8 b8 07 00
        E 8 b8 07 00
        E 8 b8 07 00
        E 8 b8 07 00
        E 8 b8 07 00
        E 8 b8 07 00
        E 8 b8 07 00
        E 8 b8 07 00
        E 8 b8 07 00
        E 8 b8 07 00
        E 8 b8 07 00
        E 8 b8 07 00
        E 8 b8 07 00
        E 8 b8 07 00
        E 8 b8 07 00
        E 8 b8 07 00
        E 8 b8 07 00
        E 8 b8 07 00
        E 8 b8 07 00
        E 8 b8 07 00
        E 8 b8 07 00
        E 8 b8 07 00
        E 8 b8 07 00
        E 8 b8 07 00
        E 8 b8 07 00
        E 8 b8 07 00
        E 8 b8 07 00
        E 8 b8 07 00
        E 8 b8 07 00
        E 8 b8 07 00
        E 8 b8 07 00
        E 8 b8 07 00
        E 8 b8 07 00
        E 8 b8 07 00
        E 8 b8 07 00
        E 8 b8 07 00
        E 8 b8 07 00
        E 8 b8 07 00
        E 8 b8 07 00
        E 8 b8 07 00
        E 8 b8 07 00
        E 8 b8 07 00
        E 8 b8 07 00
        E 8 b8 07 00
        E 8 b8 07 00
        E 8 b8 07 00
        E 8 b8 07 00
        E 8 b8 07 00
        E 8 b8 07 00
        E 8 b8 07 00
        E 8 b8 07 00
        E 8 b8 07 00
        E 8 b8 07 00
        E 8 b8 07 00
        E 8 b8 07 00
        E 8 b8 07 00
        E 56 b8 07 72
        E 56 b8 07 72
        E 56 b8 07 72
        E 56 b8 07 72
        E 56 b8 07 72
        E 56 b8 07 72
        E 56 b8 07 72
        E 56 b8 07 72
        E 56 b8 07 72
        E 56 b8 07 72
        E 56 b8 07 72
        E 56 b8 07 72
        E 56 b8 07 72
        E 56 b8 07 72
        E 56 b8 07 72
        E 56 b8 07 72
        E 56 b8 07 72
        E 56 b8 07 72
        E 56 b8 07 72
        E 56 b8 07 72
        E 56 b8 07 72
        E 56 b8 07 72
        E 56 b8 07 72
        E 56 b8 07 72
        E 56 b8 07 72
        E 56 b8 07 72
        E 56 b8 07 72
        E 56 b8 07 72
        E 56 b8 07 72
        E 56 b8 07 72
        E 56 b8 07 72
        E 56 b8 07 72
        E 56 b8 07 72
        E 56 b8 07 72
        E 56 b8 07 72
        E 56 b8 07 72
        E 56 b8 07 72
        E 56 b8 07 72
        E 56 b8 07 72
        E 56 b8 07 72
        E 56 b8 07 72
        E 56 b8 07 72
        E 56 b8 07 72
        E 56 b8 07 72
        E 56 b8 07 72
        E 56 b8 07 72
        E 56 b8 07 72
        E 56 b8 07 72
        E 56 b8 07 72
        E 56 b8 07 72
        E 56 b8 07 72
        E 56 b8 07 72
        E 56 b8 07 72
        E 56 b8 07 72
        E 56 b8 07 72
        E 56 b8 07 72
        E 56 b8 07 72
        E 56 b8 07 72
        E 56 b8 07 72
        E 56 b8 07 72
        E 56 b8 07 72
        E 56 b8 07 72
        E 56 b8 07 72
        E 56 b8 07 00
        E 56 b8 07 00
        E 56 b8 07 00
        E 56 b8 07 00
        E 56 b8 07 00
        E 56 b8 07 00
        E 56 b8 07 00
        E 56 b8 07 00
        E 56 b8 07 00
        E 56 b8 07 00
        E 56 b8 07 00
        E 56 b8 07 00
        E 56 b8 07 00
        E 56 b8 07 00
        E 56 b8 07 00
        E 56 b8 07 00
        E 56 b8 07 00
        E 56 b8 07 00
        E 56 b8 07 00
        E 56 b8 07 00
        E 56 b8 07 00
        E 56 b8 07 00
        E 56 b8 07 00
        E 56 b8 07 00
        E 56 b8 07 00
        E 56 b8 07 00
        E 56 b8 07 00
        E 56 b8 07 00
        E 56 b8 07 00
        E 56 b8 07 00
        E 56 b8 07 00
        E 56 b8 07 00
        E 56 b8 07 00
        E 56 b8 07 00
        E 56 b8 07 00
        E 56 b8 07 00
        E 56 b8 07 00
        E 56 b8 07 00
        E 56 b8 07 00
        E 56 b8 07 00
        E 56 b8 07 00
        E 56 b8 07 00
        E 56 b8 07 00
        E 56 b8 07 00
        E 56 b8 07 00
        E 56 b8 07 00
        E 56 b8 07 00
        E 56 b8 07 00
        E 56 b8 07 00
        E 56 b8 07 00
        E 56 b8 07 00
        E 56 b8 07 00
        E 56 b8 07 00
        E 56 b8 07 00
        E 56 b8 07 00
        E 56 b8 07 00
        E 56 b8 07 00
        E 56 b8 07 00
        E 56 b8 07 00
        E 56 b8 07 00
        E 56 b8 07 00
        E 56 b8 07 00
        E 56 b8 07 00
        E 56 b8 07 00
        E 24 b8 07 65
        E 24 b8 07 65
        E 24 b8 07 65
        E 24 b8 07 65
        E 24 b8 07 65
        E 24 b8 07 65
        E 24 b8 07 65
        E 24 b8 07 65
        E 24 b8 07 65
        E 24 b8 07 65
        E 24 b8 07 65
        E 24 b8 07 65
        E 24 b8 07 65
        E 24 b8 07 65
        E 24 b8 07 65
        E 24 b8 07 65
        E 24 b8 07 65
        E 24 b8 07 65
        E 24 b8 07 65
        E 24 b8 07 65
        E 24 b8 07 65
        E 24 b8 07 65
        E 24 b8 07 65
        E 24 b8 07 65
        E 24 b8 07 65
        E 24 b8 07 65
        E 24 b8 07 65
        E 24 b8 07 65
        E 24 b8 07 65
        E 24 b8 07 65
        E 24 b8 07 65
        E 24 b8 07 65
        E 24 b8 07 65
        E 24 b8 07 65
        E 24 b8 07 65
        E 24 b8 07 65
        E 24 b8 07 65
        E 24 b8 07 65
        E 24 b8 07 65
        E 24 b8 07 65
        E 24 b8 07 65
        E 24 b8 07 65
        E 24 b8 07 65
        E 24 b8 07 65
        E 24 b8 07 65
        E 24 b8 07 65
        E 24 b8 07 65
        E 24 b8 07 65
        E 24 b8 07 65
        E 24 b8 07 65
        E 24 b8 07 65
        E 24 b8 07 65
        E 24 b8 07 65
        E 24 b8 07 65
        E 24 b8 07 65
        E 24 b8 07 65
        E 24 b8 07 65
        E 24 b8 07 65
        E 24 b8 07 65
        E 24 b8 07 65
        E 24 b8 07 65
        E 24 b8 07 65
        E 24 b8 07 65
        E 24 b8 07 00
        E 24 b8 07 00
        E 24 b8 07 00
        E 24 b8 07 00
        E 24 b8 07 00
        E 24 b8 07 00
        E 24 b8 07 00
        E 24 b8 07 00
        E 24 b8 07 00
        E 24 b8 07 00
        E 24 b8 07 00
        E 24 b8 07 00
        E 24 b8 07 00
        E 24 b8 07 00
        E 24 b8 07 00
        E 24 b8 07 00
        E 24 b8 07 00
        E 24 b8 07 00
        E 24 b8 07 00
        E 24 b8 07 00
        E 24 b8 07 00
        E 24 b8 07 00
        E 24 b8 07 00
        E 24 b8 07 00
        E 24 b8 07 00
        E 24 b8 07 00
        E 24 b8 07 00
        E 24 b8 07 00
        E 24 b8 07 00
        E 24 b8 07 00
        E 24 b8 07 00
        E 24 b8 07 00
        E 24 b8 07 00
        E 24 b8 07 00
        E 24 b8 07 00
        E 24 b8 07 00
        E 24 b8 07 00
        E 24 b8 07 00
        E 24 b8 07 00
        E 24 b8 07 00
        E 24 b8 07 00
        E 24 b8 07 00
        E 24 b8 07 00
        E 24 b8 07 00
        E 24 b8 07 00
        E 24 b8 07 00
        E 24 b8 07 00
        E 24 b8 07 00
        E 24 b8 07 00
        E 24 b8 07 00
        E 24 b8 07 00
        E 24 b8 07 00
        E 24 b8 07 00
        E 24 b8 07 00
        E 24 b8 07 00
        E 24 b8 07 00
        E 24 b8 07 00
        E 24 b8 07 00
        E 24 b8 07 00
        E 24 b8 07 00
        E 24 b8 07 00
        E 24 b8 07 00
        E 24 b8 07 00
        E 24 b8 07 00
        E 48 b8 07 72
        E 48 b8 07 72
        E 48 b8 07 72
        E 48 b8 07 72
        E 48 b8 07 72
        E 48 b8 07 72
        E 48 b8 07 72
        E 48 b8 07 72
        E 48 b8 07 72
        E 48 b8 07 72
        E 48 b8 07 72
        E 48 b8 07 72
        E 48 b8 07 72
        E 48 b8 07 72
        E 48 b8 07 72
        E 48 b8 07 72
        E 48 b8 07 72
        E 48 b8 07 72
        E 48 b8 07 72
        E 48 b8 07 72
        E 48 b8 07 72
        E 48 b8 07 72
        E 48 b8 07 72
        E 48 b8 07 72
        E 48 b8 07 72
        E 48 b8 07 72
        E 48 b8 07 72
        E 48 b8 07 72
        E 48 b8 07 72
        E 48 b8 07 72
        E 48 b8 07 72
        E 48 b8 07 72
        E 48 b8 07 72
        E 48 b8 07 72
        E 48 b8 07 72
        E 48 b8 07 72
        E 48 b8 07 72
        E 48 b8 07 72
        E 48 b8 07 72
        E 48 b8 07 72
        E 48 b8 07 72
        E 48 b8 07 72
        E 48 b8 07 72
        E 48 b8 07 72
        E 48 b8 07 72
        E 48 b8 07 72
        E 48 b8 07 72
        E 48 b8 07 72
        E 48 b8 07 72
        E 48 b8 07 72
        E 48 b8 07 72
        E 48 b8 07 72
        E 48 b8 07 72
        E 48 b8 07 72
        E 48 b8 07 72
        E 48 b8 07 72
        E 48 b8 07 72
        E 48 b8 07 72
        E 48 b8 07 72
        E 48 b8 07 72
        E 48 b8 07 72
        E 48 b8 07 72
        E 48 b8 07 72
        E 48 b8 07 00
        E 48 b8 07 00
        E 48 b8 07 00
        E 48 b8 07 00
        E 48 b8 07 00
        E 48 b8 07 00
        E 48 b8 07 00
        E 48 b8 07 00
        E 48 b8 07 00
        E 48 b8 07 00
        E 48 b8 07 00
        E 48 b8 07 00
        E 48 b8 07 00
        E 48 b8 07 00
        E 48 b8 07 00
        E 48 b8 07 00
        E 48 b8 07 00
        E 48 b8 07 00
        E 48 b8 07 00
        E 48 b8 07 00
        E 48 b8 07 00
        E 48 b8 07 00
        E 48 b8 07 00
        E 48 b8 07 00
        E 48 b8 07 00
        E 48 b8 07 00
        E 48 b8 07 00
        E 48 b8 07 00
        E 48 b8 07 00
        E 48 b8 07 00
        E 48 b8 07 00
        E 48 b8 07 00
        E 48 b8 07 00
        E 48 b8 07 00
        E 48 b8 07 00
        E 48 b8 07 00
        E 48 b8 07 00
        E 48 b8 07 00
        E 48 b8 07 00
        E 48 b8 07 00
        E 48 b8 07 00
        E 48 b8 07 00
        E 48 b8 07 00
        E 48 b8 07 00
        E 48 b8 07 00
        E 48 b8 07 00
        E 48 b8 07 00
        E 48 b8 07 00
        E 48 b8 07 00
        E 48 b8 07 00
        E 48 b8 07 00
        E 48 b8 07 00
        E 48 b8 07 00
        E 48 b8 07 00
        E 48 b8 07 00
        E 48 b8 07 00
        E 48 b8 07 00
        E 48 b8 07 00
        E 48 b8 07 00
        E 48 b8 07 00
        E 48 b8 07 00
        E 48 b8 07 00
        E 48 b8 07 00
        E 48 b8 07 00
        E 72 b8 07 26
        E 72 b8 07 26
        E 72 b8 07 26
        E 72 b8 07 26
        E 72 b8 07 26
        E 72 b8 07 26
        E 72 b8 07 26
        E 72 b8 07 26
        E 72 b8 07 26
        E 72 b8 07 26
        E 72 b8 07 26
        E 72 b8 07 26
        E 72 b8 07 26
        E 72 b8 07 26
        E 72 b8 07 26
        E 72 b8 07 26
        E 72 b8 07 26
        E 72 b8 07 26
        E 72 b8 07 26
        E 72 b8 07 26
        E 72 b8 07 26
        E 72 b8 07 26
        E 72 b8 07 26
        E 72 b8 07 26
        E 72 b8 07 26
        E 72 b8 07 26
        E 72 b8 07 26
        E 72 b8 07 26
        E 72 b8 07 26
        E 72 b8 07 26
        E 72 b8 07 26
        E 72 b8 07 26
        E 72 b8 07 26
        E 72 b8 07 26
        E 72 b8 07 26
        E 72 b8 07 26
        E 72 b8 07 26
        E 72 b8 07 26
        E 72 b8 07 26
        E 72 b8 07 26
        E 72 b8 07 26
        E 72 b8 07 26
        E 72 b8 07 26
        E 72 b8 07 26
        E 72 b8 07 26
        E 72 b8 07 26
        E 72 b8 07 26
        E 72 b8 07 26
        E 72 b8 07 26
        E 72 b8 07 26
        E 72 b8 07 26
        E 72 b8 07 26
        E 72 b8 07 26
        E 72 b8 07 26
        E 72 b8 07 26
        E 72 b8 07 26
        E 72 b8 07 26
        E 72 b8 07 26
        E 72 b8 07 26
        E 72 b8 07 26
        E 72 b8 07 26
        E 72 b8 07 26
        E 72 b8 07 26
        E 72 b8 07 00
        E 72 b8 07 00
        E 72 b8 07 00
        E 72 b8 07 00
        E 72 b8 07 00
        E 72 b8 07 00
        E 72 b8 07 00
        E 72 b8 07 00
        E 72 b8 07 00
        E 72 b8 07 00
        E 72 b8 07 00
        E 72 b8 07 00
        E 72 b8 07 00
        E 72 b8 07 00
        E 72 b8 07 00
        E 72 b8 07 00
        E 72 b8 07 00
        E 72 b8 07 00
        E 72 b8 07 00
        E 72 b8 07 00
        E 72 b8 07 00
        E 72 b8 07 00
        E 72 b8 07 00
        E 72 b8 07 00
        E 72 b8 07 00
        E 72 b8 07 00
        E 72 b8 07 00
        E 72 b8 07 00
        E 72 b8 07 00
        E 72 b8 07 00
        E 72 b8 07 00
        E 72 b8 07 00
        E 72 b8 07 00
        E 72 b8 07 00
        E 72 b8 07 00
        E 72 b8 07 00
        E 72 b8 07 00
        E 72 b8 07 00
        E 72 b8 07 00
        E 72 b8 07 00
        E 72 b8 07 00
        E 72 b8 07 00
        E 72 b8 07 00
        E 72 b8 07 00
        E 72 b8 07 00
        E 72 b8 07 00
        E 72 b8 07 00
        E 72 b8 07 00
        E 72 b8 07 00
        E 72 b8 07 00
        E 72 b8 07 00
        E 72 b8 07 00
        E 72 b8 07 00
        E 72 b8 07 00
        E 72 b8 07 00
        E 72 b8 07 00
        E 72 b8 07 00
        E 72 b8 07 00
        E 72 b8 07 00
        E 72 b8 07 00
        E 72 b8 07 00
        E 72 b8 07 00
        E 72 b8 07 00
        E 72 b8 07 00
        E 32 b8 07 65
        E 32 b8 07 65
        E 32 b8 07 65
        E 32 b8 07 65
        E 32 b8 07 65
        E 32 b8 07 65
        E 32 b8 07 65
        E 32 b8 07 65
        E 32 b8 07 65
        E 32 b8 07 65
        E 32 b8 07 65
        E 32 b8 07 65
        E 32 b8 07 65
        E 32 b8 07 65
        E 32 b8 07 65
        E 32 b8 07 65
        E 32 b8 07 65
        E 32 b8 07 65
        E 32 b8 07 65
        E 32 b8 07 65
        E 32 b8 07 65
        E 32 b8 07 65
        E 32 b8 07 65
        E 32 b8 07 65
        E 32 b8 07 65
        E 32 b8 07 65
        E 32 b8 07 65
        E 32 b8 07 65
        E 32 b8 07 65
        E 32 b8 07 65
        E 32 b8 07 65
        E 32 b8 07 65
        E 32 b8 07 65
        E 32 b8 07 65
        E 32 b8 07 65
        E 32 b8 07 65
        E 32 b8 07 65
        E 32 b8 07 65
        E 32 b8 07 65
        E 32 b8 07 65
        E 32 b8 07 65
        E 32 b8 07 65
        E 32 b8 07 65
        E 32 b8 07 65
        E 32 b8 07 65
        E 32 b8 07 65
        E 32 b8 07 65
        E 32 b8 07 65
        E 32 b8 07 65
        E 32 b8 07 65
        E 32 b8 07 65
        E 32 b8 07 65
        E 32 b8 07 65
        E 32 b8 07 65
        E 32 b8 07 65
        E 32 b8 07 65
        E 32 b8 07 65
        E 32 b8 07 65
        E 32 b8 07 65
        E 32 b8 07 65
        E 32 b8 07 65
        E 32 b8 07 65
        E 32 b8 07 65
        E 32 b8 07 00
        E 32 b8 07 00
        E 32 b8 07 00
        E 32 b8 07 00
        E 32 b8 07 00
        E 32 b8 07 00
        E 32 b8 07 00
        E 32 b8 07 00
        E 32 b8 07 00
        E 32 b8 07 00
        E 32 b8 07 00
        E 32 b8 07 00
        E 32 b8 07 00
        E 32 b8 07 00
        E 32 b8 07 00
        E 32 b8 07 00
        E 32 b8 07 00
        E 32 b8 07 00
        E 32 b8 07 00
        E 32 b8 07 00
        E 32 b8 07 00
        E 32 b8 07 00
        E 32 b8 07 00
        E 32 b8 07 00
        E 32 b8 07 00
        E 32 b8 07 00
        E 32 b8 07 00
        E 32 b8 07 00
        E 32 b8 07 00
        E 32 b8 07 00
        E 32 b8 07 00
        E 32 b8 07 00
        E 32 b8 07 00
        E 32 b8 07 00
        E 32 b8 07 00
        E 32 b8 07 00
        E 32 b8 07 00
        E 32 b8 07 00
        E 32 b8 07 00
        E 32 b8 07 00
        E 32 b8 07 00
        E 32 b8 07 00
        E 32 b8 07 00
        E 32 b8 07 00
        E 32 b8 07 00
        E 32 b8 07 00
        E 32 b8 07 00
        E 32 b8 07 00
        E 32 b8 07 00
        E 32 b8 07 00
        E 32 b8 07 00
        E 32 b8 07 00
        E 32 b8 07 00
        E 32 b8 07 00
        E 32 b8 07 00
        E 32 b8 07 00
        E 32 b8 07 00
        E 32 b8 07 00
        E 32 b8 07 00
        E 32 b8 07 00
        E 32 b8 07 00
        E 32 b8 07 00
        E 32 b8 07 00
        E 32 b8 07 00
        E 8 b8 07 0c
        E 8 b8 07 0c
        E 8 b8 07 0c
        E 8 b8 07 0c
        E 8 b8 07 0c
        E 8 b8 07 0c
        E 8 b8 07 0c
        E 8 b8 07 0c
        E 8 b8 07 0c
        E 8 b8 07 0c
        E 8 b8 07 0c
        E 8 b8 07 0c
        E 8 b8 07 0c
        E 8 b8 07 0c
        E 8 b8 07 0c
        E 8 b8 07 0c
        E 8 b8 07 0c
        E 8 b8 07 0c
        E 8 b8 07 0c
        E 8 b8 07 0c
        E 8 b8 07 0c
        E 8 b8 07 0c
        E 8 b8 07 0c
        E 8 b8 07 0c
        E 8 b8 07 0c
        E 8 b8 07 0c
        E 8 b8 07 0c
        E 8 b8 07 0c
        E 8 b8 07 0c
        E 8 b8 07 0c
        E 8 b8 07 0c
        E 8 b8 07 0c
        E 8 b8 07 0c
        E 8 b8 07 0c
        E 8 b8 07 0c
        E 8 b8 07 0c
        E 8 b8 07 0c
        E 8 b8 07 0c
        E 8 b8 07 0c
        E 8 b8 07 0c
        E 8 b8 07 0c
        E 8 b8 07 0c
        E 8 b8 07 0c
        E 8 b8 07 0c
        E 8 b8 07 0c
        E 8 b8 07 0c
        E 8 b8 07 0c
        E 8 b8 07 0c
        E 8 b8 07 0c
        E 8 b8 07 0c
        E 8 b8 07 0c
        E 8 b8 07 0c
        E 8 b8 07 0c
        E 8 b8 07 0c
        E 8 b8 07 0c
        E 8 b8 07 0c
        E 8 b8 07 0c
        E 8 b8 07 0c
        E 8 b8 07 0c
        E 8 b8 07 0c
        E 8 b8 07 0c
        E 8 b8 07 0c
        E 8 b8 07 0c
        E 8 b8 07 00
        E 8 b8 07 00
        E 8 b8 07 00
        E 8 b8 07 00
        E 8 b8 07 00
        E 8 b8 07 00
        E 8 b8 07 00
        E 8 b8 07 00
        E 8 b8 07 00
        E 8 b8 07 00
        E 8 b8 07 00
        E 8 b8 07 00
        E 8 b8 07 00
        E 8 b8 07 00
        E 8 b8 07 00
        E 8 b8 07 00
        E 8 b8 07 00
        E 8 b8 07 00
        E 8 b8 07 00
        E 8 b8 07 00
        E 8 b8 07 00
        E 8 b8 07 00
        E 8 b8 07 00
        E 8 b8 07 00
        E 8 b8 07 00
        E 8 b8 07 00
        E 8 b8 07 00
        E 8 b8 07 00
        E 8 b8 07 00
        E 8 b8 07 00
        E 8 b8 07 00
        E 8 b8 07 00
        E 8 b8 07 00
        E 8 b8 07 00
        E 8 b8 07 00
        E 8 b8 07 00
        E 8 b8 07 00
        E 8 b8 07 00
        E 8 b8 07 00
        E 8 b8 07 00
        E 8 b8 07 00
        E 8 b8 07 00
        E 8 b8 07 00
        E 8 b8 07 00
        E 8 b8 07 00
        E 8 b8 07 00
        E 8 b8 07 00
        E 8 b8 07 00
        E 8 b8 07 00
        E 8 b8 07 00
        E 8 b8 07 00
        E 8 b8 07 00
        E 8 b8 07 00
        E 8 b8 07 00
        E 8 b8 07 00
        E 8 b8 07 00
        E 8 b8 07 00
        E 8 b8 07 00
        E 8 b8 07 00
        E 8 b8 07 00
        E 8 b8 07 00
        E 8 b8 07 00
        E 8 b8 07 00
        E 8 b8 07 00
        E 56 b8 07 72
        E 56 b8 07 72
        E 56 b8 07 72
        E 56 b8 07 72
        E 56 b8 07 72
        E 56 b8 07 72
        E 56 b8 07 72
        E 56 b8 07 72
        E 56 b8 07 72
        E 56 b8 07 72
        E 56 b8 07 72
        E 56 b8 07 72
        E 56 b8 07 72
        E 56 b8 07 72
        E 56 b8 07 72
        E 56 b8 07 72
        E 56 b8 07 72
        E 56 b8 07 72
        E 56 b8 07 72
        E 56 b8 07 72
        E 56 b8 07 72
        E 56 b8 07 72
        E 56 b8 07 72
        E 56 b8 07 72
        E 56 b8 07 72
        E 56 b8 07 72
        E 56 b8 07 72
        E 56 b8 07 72
        E 56 b8 07 72
        E 56 b8 07 72
        E 56 b8 07 72
        E 56 b8 07 72
        E 56 b8 07 72
        E 56 b8 07 72
        E 56 b8 07 72
        E 56 b8 07 72
        E 56 b8 07 72
        E 56 b8 07 72
        E 56 b8 07 72
        E 56 b8 07 72
        E 56 b8 07 72
        E 56 b8 07 72
        E 56 b8 07 72
        E 56 b8 07 72
        E 56 b8 07 72
        E 56 b8 07 72
        E 56 b8 07 72
        E 56 b8 07 72
        E 56 b8 07 72
        E 56 b8 07 72
        E 56 b8 07 72
        E 56 b8 07 72
        E 56 b8 07 72
        E 56 b8 07 72
        E 56 b8 07 72
        E 56 b8 07 72
        E 56 b8 07 72
        E 56 b8 07 72
        E 56 b8 07 72
        E 56 b8 07 72
        E 56 b8 07 72
        E 56 b8 07 72
        E 56 b8 07 72
        E 56 b8 07 00
        E 56 b8 07 00
        E 56 b8 07 00
        E 56 b8 07 00
        E 56 b8 07 00
        E 56 b8 07 00
        E 56 b8 07 00
        E 56 b8 07 00
        E 56 b8 07 00
        E 56 b8 07 00
        E 56 b8 07 00
        E 56 b8 07 00
        E 56 b8 07 00
        E 56 b8 07 00
        E 56 b8 07 00
        E 56 b8 07 00
        E 56 b8 07 00
        E 56 b8 07 00
        E 56 b8 07 00
        E 56 b8 07 00
        E 56 b8 07 00
        E 56 b8 07 00
        E 56 b8 07 00
        E 56 b8 07 00
        E 56 b8 07 00
        E 56 b8 07 00
        E 56 b8 07 00
        E 56 b8 07 00
        E 56 b8 07 00
        E 56 b8 07 00
        E 56 b8 07 00
        E 56 b8 07 00
        E 56 b8 07 00
        E 56 b8 07 00
        E 56 b8 07 00
        E 56 b8 07 00
        E 56 b8 07 00
        E 56 b8 07 00
        E 56 b8 07 00
        E 56 b8 07 00
        E 56 b8 07 00
        E 56 b8 07 00
        E 56 b8 07 00
        E 56 b8 07 00
        E 56 b8 07 00
        E 56 b8 07 00
        E 56 b8 07 00
        E 56 b8 07 00
        E 56 b8 07 00
        E 56 b8 07 00
        E 56 b8 07 00
        E 56 b8 07 00
        E 56 b8 07 00
        E 56 b8 07 00
        E 56 b8 07 00
        E 56 b8 07 00
        E 56 b8 07 00
        E 56 b8 07 00
        E 56 b8 07 00
        E 56 b8 07 00
        E 56 b8 07 00
        E 56 b8 07 00
        E 56 b8 07 00
        E 56 b8 07 00
        E 24 b8 07 65
        E 24 b8 07 65
        E 24 b8 07 65
        E 24 b8 07 65
        E 24 b8 07 65
        E 24 b8 07 65
        E 24 b8 07 65
        E 24 b8 07 65
        E 24 b8 07 65
        E 24 b8 07 65
        E 24 b8 07 65
        E 24 b8 07 65
        E 24 b8 07 65
        E 24 b8 07 65
        E 24 b8 07 65
        E 24 b8 07 65
        E 24 b8 07 65
        E 24 b8 07 65
        E 24 b8 07 65
        E 24 b8 07 65
        E 24 b8 07 65
        E 24 b8 07 65
        E 24 b8 07 65
        E 24 b8 07 65
        E 24 b8 07 65
        E 24 b8 07 65
        E 24 b8 07 65
        E 24 b8 07 65
        E 24 b8 07 65
        E 24 b8 07 65
        E 24 b8 07 65
        E 24 b8 07 65
        E 24 b8 07 65
        E 24 b8 07 65
        E 24 b8 07 65
        E 24 b8 07 65
        E 24 b8 07 65
        E 24 b8 07 65
        E 24 b8 07 65
        E 24 b8 07 65
        E 24 b8 07 65
        E 24 b8 07 65
        E 24 b8 07 65
        E 24 b8 07 65
        E 24 b8 07 65
        E 24 b8 07 65
        E 24 b8 07 65
        E 24 b8 07 65
        E 24 b8 07 65
        E 24 b8 07 65
        E 24 b8 07 65
        E 24 b8 07 65
        E 24 b8 07 65
        E 24 b8 07 65
        E 24 b8 07 65
        E 24 b8 07 65
        E 24 b8 07 65
        E 24 b8 07 65
        E 24 b8 07 65
        E 24 b8 07 65
        E 24 b8 07 65
        E 24 b8 07 65
        E 24 b8 07 65
        E 24 b8 07 00
        E 24 b8 07 00
        E 24 b8 07 00
        E 24 b8 07 00
        E 24 b8 07 00
        E 24 b8 07 00
        E 24 b8 07 00
        E 24 b8 07 00
        E 24 b8 07 00
        E 24 b8 07 00
        E 24 b8 07 00
        E 24 b8 07 00
        E 24 b8 07 00
        E 24 b8 07 00
        E 24 b8 07 00
        E 24 b8 07 00
        E 24 b8 07 00
        E 24 b8 07 00
        E 24 b8 07 00
        E 24 b8 07 00
        E 24 b8 07 00
        E 24 b8 07 00
        E 24 b8 07 00
        E 24 b8 07 00
        E 24 b8 07 00
        E 24 b8 07 00
        E 24 b8 07 00
        E 24 b8 07 00
        E 24 b8 07 00
        E 24 b8 07 00
        E 24 b8 07 00
        E 24 b8 07 00
        E 24 b8 07 00
        E 24 b8 07 00
        E 24 b8 07 00
        E 24 b8 07 00
        E 24 b8 07 00
        E 24 b8 07 00
        E 24 b8 07 00
        E 24 b8 07 00
        E 24 b8 07 00
        E 24 b8 07 00
        E 24 b8 07 00
        E 24 b8 07 00
        E 24 b8 07 00
        E 24 b8 07 00
        E 24 b8 07 00
        E 24 b8 07 00
        E 24 b8 07 00
        E 24 b8 07 00
        E 24 b8 07 00
        E 24 b8 07 00
        E 24 b8 07 00
        E 24 b8 07 00
        E 24 b8 07 00
        E 24 b8 07 00
        E 24 b8 07 00
        E 24 b8 07 00
        E 24 b8 07 00
        E 24 b8 07 00
        E 24 b8 07 00
        E 24 b8 07 00
        E 24 b8 07 00
        E 24 b8 07 00
        E 48 b8 07 72
        E 48 b8 07 72
        E 48 b8 07 72
        E 48 b8 07 72
        E 48 b8 07 72
        E 48 b8 07 72
        E 48 b8 07 72
        E 48 b8 07 72
        E 48 b8 07 72
        E 48 b8 07 72
        E 48 b8 07 72
        E 48 b8 07 72
        E 48 b8 07 72
        E 48 b8 07 72
        E 48 b8 07 72
        E 48 b8 07 72
        E 48 b8 07 72
        E 48 b8 07 72
        E 48 b8 07 72
        E 48 b8 07 72
        E 48 b8 07 72
        E 48 b8 07 72
        E 48 b8 07 72
        E 48 b8 07 72
        E 48 b8 07 72
        E 48 b8 07 72
        E 48 b8 07 72
        E 48 b8 07 72
        E 48 b8 07 72
        E 48 b8 07 72
        E 48 b8 07 72
        E 48 b8 07 72
        E 48 b8 07 72
        E 48 b8 07 72
        E 48 b8 07 72
        E 48 b8 07 72
        E 48 b8 07 72
        E 48 b8 07 72
        E 48 b8 07 72
        E 48 b8 07 72
        E 48 b8 07 72
        E 48 b8 07 72
        E 48 b8 07 72
        E 48 b8 07 72
        E 48 b8 07 72
        E 48 b8 07 72
        E 48 b8 07 72
        E 48 b8 07 72
        E 48 b8 07 72
        E 48 b8 07 72
        E 48 b8 07 72
        E 48 b8 07 72
        E 48 b8 07 72
        E 48 b8 07 72
        E 48 b8 07 72
        E 48 b8 07 72
        E 48 b8 07 72
        E 48 b8 07 72
        E 48 b8 07 72
        E 48 b8 07 72
        E 48 b8 07 72
        E 48 b8 07 72
        E 48 b8 07 72
        E 48 b8 07 00
        E 48 b8 07 00
        E 48 b8 07 00
        E 48 b8 07 00
        E 48 b8 07 00
        E 48 b8 07 00
        E 48 b8 07 00
        E 48 b8 07 00
        E 48 b8 07 00
        E 48 b8 07 00
        E 48 b8 07 00
        E 48 b8 07 00
        E 48 b8 07 00
        E 48 b8 07 00
        E 48 b8 07 00
        E 48 b8 07 00
        E 48 b8 07 00
        E 48 b8 07 00
        E 48 b8 07 00
        E 48 b8 07 00
        E 48 b8 07 00
        E 48 b8 07 00
        E 48 b8 07 00
        E 48 b8 07 00
        E 48 b8 07 00
        E 48 b8 07 00
        E 48 b8 07 00
        E 48 b8 07 00
        E 48 b8 07 00
        E 48 b8 07 00
        E 48 b8 07 00
        E 48 b8 07 00
        E 48 b8 07 00
        E 48 b8 07 00
        E 48 b8 07 00
        E 48 b8 07 00
        E 48 b8 07 00
        E 48 b8 07 00
        E 48 b8 07 00
        E 48 b8 07 00
        E 48 b8 07 00
        E 48 b8 07 00
        E 48 b8 07 00
        E 48 b8 07 00
        E 48 b8 07 00
        E 48 b8 07 00
        E 48 b8 07 00
        E 48 b8 07 00
        E 48 b8 07 00
        E 48 b8 07 00
        E 48 b8 07 00
        E 48 b8 07 00
        E 48 b8 07 00
        E 48 b8 07 00
        E 48 b8 07 00
        E 48 b8 07 00
        E 48 b8 07 00
        E 48 b8 07 00
        E 48 b8 07 00
        E 48 b8 07 00
        E 48 b8 07 00
        E 48 b8 07 00
        E 48 b8 07 00
        E 48 b8 07 00
        E 72 b8 07 26
        E 72 b8 07 26
        E 72 b8 07 26
        E 72 b8 07 26
        E 72 b8 07 26
        E 72 b8 07 26
        E 72 b8 07 26
        E 72 b8 07 26
        E 72 b8 07 26
        E 72 b8 07 26
        E 72 b8 07 26
        E 72 b8 07 26
        E 72 b8 07 26
        E 72 b8 07 26
        E 72 b8 07 26
        E 72 b8 07 26
        E 72 b8 07 26
        E 72 b8 07 26
        E 72 b8 07 26
        E 72 b8 07 26
        E 72 b8 07 26
        E 72 b8 07 26
        E 72 b8 07 26
        E 72 b8 07 26
        E 72 b8 07 26
        E 72 b8 07 26
        E 72 b8 07 26
        E 72 b8 07 26
        E 72 b8 07 26
        E 72 b8 07 26
        E 72 b8 07 26
        E 72 b8 07 26
        E 72 b8 07 26
        E 72 b8 07 26
        E 72 b8 07 26
        E 72 b8 07 26
        E 72 b8 07 26
        E 72 b8 07 26
        E 72 b8 07 26
        E 72 b8 07 26
        E 72 b8 07 26
        E 72 b8 07 26
        E 72 b8 07 26
        E 72 b8 07 26
        E 72 b8 07 26
        E 72 b8 07 26
        E 72 b8 07 26
        E 72 b8 07 26
        E 72 b8 07 26
        E 72 b8 07 26
        E 72 b8 07 26
        E 72 b8 07 26
        E 72 b8 07 26
        E 72 b8 07 26
        E 72 b8 07 26
        E 72 b8 07 26
        E 72 b8 07 26
        E 72 b8 07 26
        E 72 b8 07 26
        E 72 b8 07 26
        E 72 b8 07 26
        E 72 b8 07 26
        E 72 b8 07 26
        E 72 b8 07 00
        E 72 b8 07 00
        E 72 b8 07 00
        E 72 b8 07 00
        E 72 b8 07 00
        E 72 b8 07 00
        E 72 b8 07 00
        E 72 b8 07 00
        E 72 b8 07 00
        E 72 b8 07 00
        E 72 b8 07 00
        E 72 b8 07 00
        E 72 b8 07 00
        E 72 b8 07 00
        E 72 b8 07 00
        E 72 b8 07 00
        E 72 b8 07 00
        E 72 b8 07 00
        E 72 b8 07 00
        E 72 b8 07 00
        E 72 b8 07 00
        E 72 b8 07 00
        E 72 b8 07 00
        E 72 b8 07 00
        E 72 b8 07 00
        E 72 b8 07 00
        E 72 b8 07 00
        E 72 b8 07 00
        E 72 b8 07 00
        E 72 b8 07 00
        E 72 b8 07 00
        E 72 b8 07 00
        E 72 b8 07 00
        E 72 b8 07 00
        E 72 b8 07 00
        E 72 b8 07 00
        E 72 b8 07 00
        E 72 b8 07 00
        E 72 b8 07 00
        E 72 b8 07 00
        E 72 b8 07 00
        E 72 b8 07 00
        E 72 b8 07 00
        E 72 b8 07 00
        E 72 b8 07 00
        E 72 b8 07 00
        E 72 b8 07 00
        E 72 b8 07 00
        E 72 b8 07 00
        E 72 b8 07 00
        E 72 b8 07 00
        E 72 b8 07 00
        E 72 b8 07 00
        E 72 b8 07 00
        E 72 b8 07 00
        E 72 b8 07 00
        E 72 b8 07 00
        E 72 b8 07 00
        E 72 b8 07 00
        E 72 b8 07 00
        E 72 b8 07 00
        E 72 b8 07 00
        E 72 b8 07 00
        E 72 b8 07 00
        E 32 b8 07 65
        E 32 b8 07 65
        E 32 b8 07 65
        E 32 b8 07 65
        E 32 b8 07 65
        E 32 b8 07 65
        E 32 b8 07 65
        E 32 b8 07 65
        E 32 b8 07 65
        E 32 b8 07 65
        E 32 b8 07 65
        E 32 b8 07 65
        E 32 b8 07 65
        E 32 b8 07 65
        E 32 b8 07 65
        E 32 b8 07 65
        E 32 b8 07 65
        E 32 b8 07 65
        E 32 b8 07 65
        E 32 b8 07 65
        E 32 b8 07 65
        E 32 b8 07 65
        E 32 b8 07 65
        E 32 b8 07 65
        E 32 b8 07 65
        E 32 b8 07 65
        E 32 b8 07 65
        E 32 b8 07 65
        E 32 b8 07 65
        E 32 b8 07 65
        E 32 b8 07 65
        E 32 b8 07 65
        E 32 b8 07 65
        E 32 b8 07 65
        E 32 b8 07 65
        E 32 b8 07 65
        E 32 b8 07 65
        E 32 b8 07 65
        E 32 b8 07 65
        E 32 b8 07 65
        E 32 b8 07 65
        E 32 b8 07 65
        E 32 b8 07 65
        E 32 b8 07 65
        E 32 b8 07 65
        E 32 b8 07 65
        E 32 b8 07 65
        E 32 b8 07 65
        E 32 b8 07 65
        E 32 b8 07 65
        E 32 b8 07 65
        E 32 b8 07 65
        E 32 b8 07 65
        E 32 b8 07 65
        E 32 b8 07 65
        E 32 b8 07 65
        E 32 b8 07 65
        E 32 b8 07 65
        E 32 b8 07 65
        E 32 b8 07 65
        E 32 b8 07 65
        E 32 b8 07 65
        E 32 b8 07 65
        E 32 b8 07 00
        E 32 b8 07 00
        E 32 b8 07 00
        E 32 b8 07 00
        E 32 b8 07 00
        E 32 b8 07 00
        E 32 b8 07 00
        E 32 b8 07 00
        E 32 b8 07 00
        E 32 b8 07 00
        E 32 b8 07 00
        E 32 b8 07 00
        E 32 b8 07 00
        E 32 b8 07 00
        E 32 b8 07 00
        E 32 b8 07 00
        E 32 b8 07 00
        E 32 b8 07 00
        E 32 b8 07 00
        E 32 b8 07 00
        E 32 b8 07 00
        E 32 b8 07 00
        E 32 b8 07 00
        E 32 b8 07 00
        E 32 b8 07 00
        E 32 b8 07 00
        E 32 b8 07 00
        E 32 b8 07 00
        E 32 b8 07 00
        E 32 b8 07 00
        E 32 b8 07 00
        E 32 b8 07 00
        E 32 b8 07 00
        E 32 b8 07 00
        E 32 b8 07 00
        E 32 b8 07 00
        E 32 b8 07 00
        E 32 b8 07 00
        E 32 b8 07 00
        E 32 b8 07 00
        E 32 b8 07 00
        E 32 b8 07 00
        E 32 b8 07 00
        E 32 b8 07 00
        E 32 b8 07 00
        E 32 b8 07 00
        E 32 b8 07 00
        E 32 b8 07 00
        E 32 b8 07 00
        E 32 b8 07 00
        E 32 b8 07 00
        E 32 b8 07 00
        E 32 b8 07 00
        E 32 b8 07 00
        E 32 b8 07 00
        E 32 b8 07 00
        E 32 b8 07 00
        E 32 b8 07 00
        E 32 b8 07 00
        E 32 b8 07 00
        E 32 b8 07 00
        E 32 b8 07 00
        E 32 b8 07 00
        E 32 b8 07 00
        E 8 b8 07 0c
        E 8 b8 07 0c
        E 8 b8 07 0c
        E 8 b8 07 0c
        E 8 b8 07 0c
        E 8 b8 07 0c
        E 8 b8 07 0c
        E 8 b8 07 0c
        E 8 b8 07 0c
        E 8 b8 07 0c
        E 8 b8 07 0c
        E 8 b8 07 0c
        E 8 b8 07 0c
        E 8 b8 07 0c
        E 8 b8 07 0c
        E 8 b8 07 0c
        E 8 b8 07 0c
        E 8 b8 07 0c
        E 8 b8 07 0c
        E 8 b8 07 0c
        E 8 b8 07 0c
        E 8 b8 07 0c
        E 8 b8 07 0c
        E 8 b8 07 0c
        E 8 b8 07 0c
        E 8 b8 07 0c
        E 8 b8 07 0c
        E 8 b8 07 0c
        E 8 b8 07 0c
        E 8 b8 07 0c
        E 8 b8 07 0c
        E 8 b8 07 0c
        E 8 b8 07 0c
        E 8 b8 07 0c
        E 8 b8 07 0c
        E 8 b8 07 0c
        E 8 b8 07 0c
        E 8 b8 07 0c
        E 8 b8 07 0c
        E 8 b8 07 0c
        E 8 b8 07 0c
        E 8 b8 07 0c
        E 8 b8 07 0c
        E 8 b8 07 0c
        E 8 b8 07 0c
        E 8 b8 07 0c
        E 8 b8 07 0c
        E 8 b8 07 0c
        E 8 b8 07 0c
        E 8 b8 07 0c
        E 8 b8 07 0c
        E 8 b8 07 0c
        E 8 b8 07 0c
        E 8 b8 07 0c
        E 8 b8 07 0c
        E 8 b8 07 0c
        E 8 b8 07 0c
        E 8 b8 07 0c
        E 8 b8 07 0c
        E 8 b8 07 0c
        E 8 b8 07 0c
        E 8 b8 07 0c
        E 8 b8 07 0c
        E 8 b8 07 00
        E 8 b8 07 00
        E 8 b8 07 00
        E 8 b8 07 00
        E 8 b8 07 00
        E 8 b8 07 00
        E 8 b8 07 00
        E 8 b8 07 00
        E 8 b8 07 00
        E 8 b8 07 00
        E 8 b8 07 00
        E 8 b8 07 00
        E 8 b8 07 00
        E 8 b8 07 00
        E 8 b8 07 00
        E 8 b8 07 00
        E 8 b8 07 00
        E 8 b8 07 00
        E 8 b8 07 00
        E 8 b8 07 00
        E 8 b8 07 00
        E 8 b8 07 00
        E 8 b8 07 00
        E 8 b8 07 00
        E 8 b8 07 00
        E 8 b8 07 00
        E 8 b8 07 00
        E 8 b8 07 00
        E 8 b8 07 00
        E 8 b8 07 00
        E 8 b8 07 00
        E 8 b8 07 00
        E 8 b8 07 00
        E 8 b8 07 00
        E 8 b8 07 00
        E 8 b8 07 00
        E 8 b8 07 00
        E 8 b8 07 00
        E 8 b8 07 00
        E 8 b8 07 00
        E 8 b8 07 00
        E 8 b8 07 00
        E 8 b8 07 00
        E 8 b8 07 00
        E 8 b8 07 00
        E 8 b8 07 00
        E 8 b8 07 00
        E 8 b8 07 00
        E 8 b8 07 00
        E 8 b8 07 00
        E 8 b8 07 00
        E 8 b8 07 00
        E 8 b8 07 00
        E 8 b8 07 00
        E 8 b8 07 00
        E 8 b8 07 00
        E 8 b8 07 00
        E 8 b8 07 00
        E 8 b8 07 00
        E 8 b8 07 00
        E 8 b8 07 00
        E 8 b8 07 00
        E 8 b8 07 00
        E 8 b8 07 00
        E 38 b8 07 39
        E 38 b8 07 3c
        E 38 b8 07 3f
        E 38 b8 07 41
        E 38 b8 07 44
        E 38 b8 07 47
        E 38 b8 07 49
        E 38 b8 07 4c
        E 38 b8 07 4f
        E 38 b8 07 51
        E 38 b8 07 54
        E 38 b8 07 56
        E 38 b8 07 59
        E 38 b8 07 5b
        E 38 b8 07 5d
        E 38 b8 07 5f
        E 38 b8 07 62
        E 38 b8 07 63
        E 38 b8 07 65
        E 38 b8 07 67
        E 38 b8 07 69
        E 38 b8 07 6a
        E 38 b8 07 6c
        E 38 b8 07 6c
        E 38 b8 07 6d
        E 38 b8 07 6e
        E 38 b8 07 6f
        E 38 b8 07 70
        E 38 b8 07 71
        E 38 b8 07 71
        E 38 b8 07 72
        E 38 b8 07 72
        E 38 b8 07 72
        E 38 b8 07 72
        E 38 b8 07 72
        E 38 b8 07 71
        E 38 b8 07 71
        E 38 b8 07 70
        E 38 b8 07 6f
        E 38 b8 07 6e
        E 38 b8 07 6d
        E 38 b8 07 6c
        E 38 b8 07 6b
        E 38 b8 07 69
        E 38 b8 07 68
        E 38 b8 07 66
        E 38 b8 07 64
        E 38 b8 07 63
        E 38 b8 07 61
        E 38 b8 07 5e
        E 38 b8 07 5c
        E 38 b8 07 5a
        E 38 b8 07 58
        E 38 b8 07 55
        E 38 b8 07 52
        E 38 b8 07 50
        E 38 b8 07 4e
        E 38 b8 07 4b
        E 38 b8 07 48
        E 38 b8 07 46
        E 38 b8 07 42
        E 38 b8 07 3f
        E 38 b8 07 3d
        E 38 b8 07 3a
        E 38 b8 07 37
        E 38 b8 07 35
        E 38 b8 07 32
        E 38 b8 07 2f
        E 38 b8 07 2c
        E 38 b8 07 29
        E 38 b8 07 26
        E 38 b8 07 24
        E 38 b8 07 22
        E 38 b8 07 1f
        E 38 b8 07 1c
        E 38 b8 07 1a
        E 38 b8 07 18
        E 38 b8 07 15
        E 38 b8 07 13
        E 38 b8 07 11
        E 38 b8 07 0f
        E 38 b8 07 0d
        E 38 b8 07 0b
        E 38 b8 07 09
        E 38 b8 07 09
        E 38 b8 07 07
        E 38 b8 07 06
        E 38 b8 07 04
        E 38 b8 07 03
        E 38 b8 07 02
        E 38 b8 07 01
        E 38 b8 07 00
        E 38 b8 07 00
        E 38 b8 07 00
        E 38 b8 07 00
        E 38 b8 07 00
        E 38 b8 07 00
        E 38 b8 07 00
        E 38 b8 07 00
        E 38 b8 07 00
        E 38 b8 07 01
        E 38 b8 07 02
        E 38 b8 07 03
        E 38 b8 07 04
        E 38 b8 07 05
        E 38 b8 07 06
        E 38 b8 07 08
        E 38 b8 07 09
        E 38 b8 07 0a
        E 38 b8 07 0c
        E 38 b8 07 0e
        E 38 b8 07 10
        E 38 b8 07 12
        E 38 b8 07 14
        E 38 b8 07 16
        E 38 b8 07 19
        E 38 b8 07 1b
        E 38 b8 07 1d
        E 38 b8 07 20
        E 38 b8 07 23
        E 38 b8 07 25
        E 38 b8 07 28
        E 38 b8 07 2b
        E 38 b8 07 2d
        E 38 b8 07 30
        E 38 b8 07 33
        E 38 b8 07 36
        E 38 b8 07 39
        E 57 b8 07 13
        E 57 b8 07 14
        E 57 b8 07 15
        E 57 b8 07 15
        E 57 b8 07 16
        E 57 b8 07 17
        E 57 b8 07 18
        E 57 b8 07 19
        E 57 b8 07 1a
        E 57 b8 07 1b
        E 57 b8 07 1c
        E 57 b8 07 1c
        E 57 b8 07 1d
        E 57 b8 07 1e
        E 57 b8 07 1f
        E 57 b8 07 1f
        E 57 b8 07 20
        E 57 b8 07 21
        E 57 b8 07 21
        E 57 b8 07 22
        E 57 b8 07 23
        E 57 b8 07 23
        E 57 b8 07 24
        E 57 b8 07 24
        E 57 b8 07 24
        E 57 b8 07 24
        E 57 b8 07 25
        E 57 b8 07 25
        E 57 b8 07 25
        E 57 b8 07 25
        E 57 b8 07 26
        E 57 b8 07 26
        E 57 b8 07 26
        E 57 b8 07 26
        E 57 b8 07 26
        E 57 b8 07 25
        E 57 b8 07 25
        E 57 b8 07 25
        E 57 b8 07 25
        E 57 b8 07 24
        E 57 b8 07 24
        E 57 b8 07 24
        E 57 b8 07 23
        E 57 b8 07 23
        E 57 b8 07 22
        E 57 b8 07 22
        E 57 b8 07 21
        E 57 b8 07 21
        E 57 b8 07 20
        E 57 b8 07 1f
        E 57 b8 07 1e
        E 57 b8 07 1e
        E 57 b8 07 1d
        E 57 b8 07 1c
        E 57 b8 07 1b
        E 57 b8 07 1a
        E 57 b8 07 1a
        E 57 b8 07 19
        E 57 b8 07 18
        E 57 b8 07 17
        E 57 b8 07 16
        E 57 b8 07 15
        E 57 b8 07 14
        E 57 b8 07 13
        E 57 b8 07 12
        E 57 b8 07 11
        E 57 b8 07 10
        E 57 b8 07 0f
        E 57 b8 07 0e
        E 57 b8 07 0d
        E 57 b8 07 0c
        E 57 b8 07 0c
        E 57 b8 07 0b
        E 57 b8 07 0a
        E 57 b8 07 09
        E 57 b8 07 08
        E 57 b8 07 08
        E 57 b8 07 07
        E 57 b8 07 06
        E 57 b8 07 05
        E 57 b8 07 05
        E 57 b8 07 04
        E 57 b8 07 03
        E 57 b8 07 03
        E 57 b8 07 03
        E 57 b8 07 02
        E 57 b8 07 02
        E 57 b8 07 01
        E 57 b8 07 01
        E 57 b8 07 00
        E 57 b8 07 00
        E 57 b8 07 00
        E 57 b8 07 00
        E 57 b8 07 00
        E 57 b8 07 00
        E 57 b8 07 00
        E 57 b8 07 00
        E 57 b8 07 00
        E 57 b8 07 00
        E 57 b8 07 00
        E 57 b8 07 00
        E 57 b8 07 00
        E 57 b8 07 01
        E 57 b8 07 01
        E 57 b8 07 01
        E 57 b8 07 02
        E 57 b8 07 02
        E 57 b8 07 03
        E 57 b8 07 03
        E 57 b8 07 04
        E 57 b8 07 04
        E 57 b8 07 05
        E 57 b8 07 06
        E 57 b8 07 06
        E 57 b8 07 07
        E 57 b8 07 08
        E 57 b8 07 09
        E 57 b8 07 09
        E 57 b8 07 0a
        E 57 b8 07 0b
        E 57 b8 07 0c
        E 57 b8 07 0d
        E 57 b8 07 0e
        E 57 b8 07 0f
        E 57 b8 07 10
        E 57 b8 07 11
        E 57 b8 07 12
        E 57 b8 07 13
        E 25 b8 07 33
        E 25 b8 07 35
        E 25 b8 07 37
        E 25 b8 07 3a
        E 25 b8 07 3c
        E 25 b8 07 3f
        E 25 b8 07 41
        E 25 b8 07 44
        E 25 b8 07 46
        E 25 b8 07 48
        E 25 b8 07 4b
        E 25 b8 07 4c
        E 25 b8 07 4f
        E 25 b8 07 51
        E 25 b8 07 53
        E 25 b8 07 54
        E 25 b8 07 57
        E 25 b8 07 58
        E 25 b8 07 5a
        E 25 b8 07 5b
        E 25 b8 07 5d
        E 25 b8 07 5e
        E 25 b8 07 5f
        E 25 b8 07 60
        E 25 b8 07 61
        E 25 b8 07 62
        E 25 b8 07 63
        E 25 b8 07 63
        E 25 b8 07 64
        E 25 b8 07 64
        E 25 b8 07 65
        E 25 b8 07 65
        E 25 b8 07 65
        E 25 b8 07 65
        E 25 b8 07 65
        E 25 b8 07 64
        E 25 b8 07 64
        E 25 b8 07 63
        E 25 b8 07 63
        E 25 b8 07 62
        E 25 b8 07 61
        E 25 b8 07 5f
        E 25 b8 07 5f
        E 25 b8 07 5d
        E 25 b8 07 5c
        E 25 b8 07 5b
        E 25 b8 07 59
        E 25 b8 07 57
        E 25 b8 07 56
        E 25 b8 07 54
        E 25 b8 07 52
        E 25 b8 07 50
        E 25 b8 07 4e
        E 25 b8 07 4c
        E 25 b8 07 49
        E 25 b8 07 47
        E 25 b8 07 45
        E 25 b8 07 43
        E 25 b8 07 40
        E 25 b8 07 3e
        E 25 b8 07 3b
        E 25 b8 07 38
        E 25 b8 07 36
        E 25 b8 07 33
        E 25 b8 07 31
        E 25 b8 07 2f
        E 25 b8 07 2c
        E 25 b8 07 2a
        E 25 b8 07 27
        E 25 b8 07 24
        E 25 b8 07 22
        E 25 b8 07 1f
        E 25 b8 07 1e
        E 25 b8 07 1b
        E 25 b8 07 19
        E 25 b8 07 17
        E 25 b8 07 15
        E 25 b8 07 13
        E 25 b8 07 11
        E 25 b8 07 0f
        E 25 b8 07 0d
        E 25 b8 07 0b
        E 25 b8 07 0a
        E 25 b8 07 08
        E 25 b8 07 07
        E 25 b8 07 06
        E 25 b8 07 05
        E 25 b8 07 03
        E 25 b8 07 03
        E 25 b8 07 02
        E 25 b8 07 01
        E 25 b8 07 00
        E 25 b8 07 00
        E 25 b8 07 00
        E 25 b8 07 00
        E 25 b8 07 00
        E 25 b8 07 00
        E 25 b8 07 00
        E 25 b8 07 00
        E 25 b8 07 00
        E 25 b8 07 01
        E 25 b8 07 02
        E 25 b8 07 03
        E 25 b8 07 03
        E 25 b8 07 04
        E 25 b8 07 05
        E 25 b8 07 07
        E 25 b8 07 07
        E 25 b8 07 09
        E 25 b8 07 0b
        E 25 b8 07 0c
        E 25 b8 07 0e
        E 25 b8 07 10
        E 25 b8 07 12
        E 25 b8 07 14
        E 25 b8 07 16
        E 25 b8 07 18
        E 25 b8 07 1a
        E 25 b8 07 1c
        E 25 b8 07 1f
        E 25 b8 07 21
        E 25 b8 07 24
        E 25 b8 07 26
        E 25 b8 07 28
        E 25 b8 07 2b
        E 25 b8 07 2d
        E 25 b8 07 2f
        E 25 b8 07 33
        E 6 b8 07 06
        E 6 b8 07 06
        E 6 b8 07 07
        E 6 b8 07 07
        E 6 b8 07 07
        E 6 b8 07 07
        E 6 b8 07 08
        E 6 b8 07 08
        E 6 b8 07 08
        E 6 b8 07 09
        E 6 b8 07 09
        E 6 b8 07 09
        E 6 b8 07 09
        E 6 b8 07 0a
        E 6 b8 07 0a
        E 6 b8 07 0a
        E 6 b8 07 0a
        E 6 b8 07 0b
        E 6 b8 07 0b
        E 6 b8 07 0b
        E 6 b8 07 0b
        E 6 b8 07 0b
        E 6 b8 07 0c
        E 6 b8 07 0c
        E 6 b8 07 0c
        E 6 b8 07 0c
        E 6 b8 07 0c
        E 6 b8 07 0c
        E 6 b8 07 0c
        E 6 b8 07 0c
        E 6 b8 07 0c
        E 6 b8 07 0c
        E 6 b8 07 0c
        E 6 b8 07 0c
        E 6 b8 07 0c
        E 6 b8 07 0c
        E 6 b8 07 0c
        E 6 b8 07 0c
        E 6 b8 07 0c
        E 6 b8 07 0c
        E 6 b8 07 0c
        E 6 b8 07 0c
        E 6 b8 07 0b
        E 6 b8 07 0b
        E 6 b8 07 0b
        E 6 b8 07 0b
        E 6 b8 07 0b
        E 6 b8 07 0b
        E 6 b8 07 0a
        E 6 b8 07 0a
        E 6 b8 07 0a
        E 6 b8 07 0a
        E 6 b8 07 09
        E 6 b8 07 09
        E 6 b8 07 09
        E 6 b8 07 08
        E 6 b8 07 08
        E 6 b8 07 08
        E 6 b8 07 08
        E 6 b8 07 07
        E 6 b8 07 07
        E 6 b8 07 07
        E 6 b8 07 06
        E 6 b8 07 06
        E 6 b8 07 06
        E 6 b8 07 05
        E 6 b8 07 05
        E 6 b8 07 05
        E 6 b8 07 04
        E 6 b8 07 04
        E 6 b8 07 04
        E 6 b8 07 04
        E 6 b8 07 03
        E 6 b8 07 03
        E 6 b8 07 03
        E 6 b8 07 02
        E 6 b8 07 02
        E 6 b8 07 02
        E 6 b8 07 02
        E 6 b8 07 01
        E 6 b8 07 01
        E 6 b8 07 01
        E 6 b8 07 01
        E 6 b8 07 01
        E 6 b8 07 01
        E 6 b8 07 00
        E 6 b8 07 00
        E 6 b8 07 00
        E 6 b8 07 00
        E 6 b8 07 00
        E 6 b8 07 00
        E 6 b8 07 00
        E 6 b8 07 00
        E 6 b8 07 00
        E 6 b8 07 00
        E 6 b8 07 00
        E 6 b8 07 00
        E 6 b8 07 00
        E 6 b8 07 00
        E 6 b8 07 00
        E 6 b8 07 00
        E 6 b8 07 00
        E 6 b8 07 00
        E 6 b8 07 00
        E 6 b8 07 00
        E 6 b8 07 00
        E 6 b8 07 00
        E 6 b8 07 01
        E 6 b8 07 01
        E 6 b8 07 01
        E 6 b8 07 01
        E 6 b8 07 01
        E 6 b8 07 02
        E 6 b8 07 02
        E 6 b8 07 02
        E 6 b8 07 02
        E 6 b8 07 03
        E 6 b8 07 03
        E 6 b8 07 03
        E 6 b8 07 03
        E 6 b8 07 04
        E 6 b8 07 04
        E 6 b8 07 04
        E 6 b8 07 05
        E 6 b8 07 05
        E 6 b8 07 05
        E 6 b8 07 06
        E 6 b8 07 06
        E 44 b8 07 39
        E 44 b8 07 3c
        E 44 b8 07 3f
        E 44 b8 07 41
        E 44 b8 07 44
        E 44 b8 07 47
        E 44 b8 07 49
        E 44 b8 07 4c
        E 44 b8 07 4f
        E 44 b8 07 51
        E 44 b8 07 54
        E 44 b8 07 56
        E 44 b8 07 59
        E 44 b8 07 5b
        E 44 b8 07 5d
        E 44 b8 07 5f
        E 44 b8 07 62
        E 44 b8 07 63
        E 44 b8 07 65
        E 44 b8 07 67
        E 44 b8 07 69
        E 44 b8 07 6a
        E 44 b8 07 6c
        E 44 b8 07 6c
        E 44 b8 07 6d
        E 44 b8 07 6e
        E 44 b8 07 6f
        E 44 b8 07 70
        E 44 b8 07 71
        E 44 b8 07 71
        E 44 b8 07 72
        E 44 b8 07 72
        E 44 b8 07 72
        E 44 b8 07 72
        E 44 b8 07 72
        E 44 b8 07 71
        E 44 b8 07 71
        E 44 b8 07 70
        E 44 b8 07 6f
        E 44 b8 07 6e
        E 44 b8 07 6d
        E 44 b8 07 6c
        E 44 b8 07 6b
        E 44 b8 07 69
        E 44 b8 07 68
        E 44 b8 07 66
        E 44 b8 07 64
        E 44 b8 07 63
        E 44 b8 07 61
        E 44 b8 07 5e
        E 44 b8 07 5c
        E 44 b8 07 5a
        E 44 b8 07 58
        E 44 b8 07 55
        E 44 b8 07 52
        E 44 b8 07 50
        E 44 b8 07 4e
        E 44 b8 07 4b
        E 44 b8 07 48
        E 44 b8 07 46
        E 44 b8 07 42
        E 44 b8 07 3f
        E 44 b8 07 3d
        E 44 b8 07 3a
        E 44 b8 07 37
        E 44 b8 07 35
        E 44 b8 07 32
        E 44 b8 07 2f
        E 44 b8 07 2c
        E 44 b8 07 29
        E 44 b8 07 26
        E 44 b8 07 24
        E 44 b8 07 22
        E 44 b8 07 1f
        E 44 b8 07 1c
        E 44 b8 07 1a
        E 44 b8 07 18
        E 44 b8 07 15
        E 44 b8 07 13
        E 44 b8 07 11
        E 44 b8 07 0f
        E 44 b8 07 0d
        E 44 b8 07 0b
        E 44 b8 07 09
        E 44 b8 07 09
        E 44 b8 07 07
        E 44 b8 07 06
        E 44 b8 07 04
        E 44 b8 07 03
        E 44 b8 07 02
        E 44 b8 07 01
        E 44 b8 07 00
        E 44 b8 07 00
        E 44 b8 07 00
        E 44 b8 07 00
        E 44 b8 07 00
        E 44 b8 07 00
        E 44 b8 07 00
        E 44 b8 07 00
        E 44 b8 07 00
        E 44 b8 07 01
        E 44 b8 07 02
        E 44 b8 07 03
        E 44 b8 07 04
        E 44 b8 07 05
        E 44 b8 07 06
        E 44 b8 07 08
        E 44 b8 07 09
        E 44 b8 07 0a
        E 44 b8 07 0c
        E 44 b8 07 0e
        E 44 b8 07 10
        E 44 b8 07 12
        E 44 b8 07 14
        E 44 b8 07 16
        E 44 b8 07 19
        E 44 b8 07 1b
        E 44 b8 07 1d
        E 44 b8 07 20
        E 44 b8 07 23
        E 44 b8 07 25
        E 44 b8 07 28
        E 44 b8 07 2b
        E 44 b8 07 2d
        E 44 b8 07 30
        E 44 b8 07 33
        E 44 b8 07 36
        E 44 b8 07 39
        E 19 b8 07 33
        E 19 b8 07 35
        E 19 b8 07 37
        E 19 b8 07 3a
        E 19 b8 07 3c
        E 19 b8 07 3f
        E 19 b8 07 41
        E 19 b8 07 44
        E 19 b8 07 46
        E 19 b8 07 48
        E 19 b8 07 4b
        E 19 b8 07 4c
        E 19 b8 07 4f
        E 19 b8 07 51
        E 19 b8 07 53
        E 19 b8 07 54
        E 19 b8 07 57
        E 19 b8 07 58
        E 19 b8 07 5a
        E 19 b8 07 5b
        E 19 b8 07 5d
        E 19 b8 07 5e
        E 19 b8 07 5f
        E 19 b8 07 60
        E 19 b8 07 61
        E 19 b8 07 62
        E 19 b8 07 63
        E 19 b8 07 63
        E 19 b8 07 64
        E 19 b8 07 64
        E 19 b8 07 65
        E 19 b8 07 65
        E 19 b8 07 65
        E 19 b8 07 65
        E 19 b8 07 65
        E 19 b8 07 64
        E 19 b8 07 64
        E 19 b8 07 63
        E 19 b8 07 63
        E 19 b8 07 62
        E 19 b8 07 61
        E 19 b8 07 5f
        E 19 b8 07 5f
        E 19 b8 07 5d
        E 19 b8 07 5c
        E 19 b8 07 5b
        E 19 b8 07 59
        E 19 b8 07 57
        E 19 b8 07 56
        E 19 b8 07 54
        E 19 b8 07 52
        E 19 b8 07 50
        E 19 b8 07 4e
        E 19 b8 07 4c
        E 19 b8 07 49
        E 19 b8 07 47
        E 19 b8 07 45
        E 19 b8 07 43
        E 19 b8 07 40
        E 19 b8 07 3e
        E 19 b8 07 3b
        E 19 b8 07 38
        E 19 b8 07 36
        E 19 b8 07 33
        E 19 b8 07 31
        E 19 b8 07 2f
        E 19 b8 07 2c
        E 19 b8 07 2a
        E 19 b8 07 27
        E 19 b8 07 24
        E 19 b8 07 22
        E 19 b8 07 1f
        E 19 b8 07 1e
        E 19 b8 07 1b
        E 19 b8 07 19
        E 19 b8 07 17
        E 19 b8 07 15
        E 19 b8 07 13
        E 19 b8 07 11
        E 19 b8 07 0f
        E 19 b8 07 0d
        E 19 b8 07 0b
        E 19 b8 07 0a
        E 19 b8 07 08
        E 19 b8 07 07
        E 19 b8 07 06
        E 19 b8 07 05
        E 19 b8 07 03
        E 19 b8 07 03
        E 19 b8 07 02
        E 19 b8 07 01
        E 19 b8 07 00
        E 19 b8 07 00
        E 19 b8 07 00
        E 19 b8 07 00
        E 19 b8 07 00
        E 19 b8 07 00
        E 19 b8 07 00
        E 19 b8 07 00
        E 19 b8 07 00
        E 19 b8 07 01
        E 19 b8 07 02
        E 19 b8 07 03
        E 19 b8 07 03
        E 19 b8 07 04
        E 19 b8 07 05
        E 19 b8 07 07
        E 19 b8 07 07
        E 19 b8 07 09
        E 19 b8 07 0b
        E 19 b8 07 0c
        E 19 b8 07 0e
        E 19 b8 07 10
        E 19 b8 07 12
        E 19 b8 07 14
        E 19 b8 07 16
        E 19 b8 07 18
        E 19 b8 07 1a
        E 19 b8 07 1c
        E 19 b8 07 1f
        E 19 b8 07 21
        E 19 b8 07 24
        E 19 b8 07 26
        E 19 b8 07 28
        E 19 b8 07 2b
        E 19 b8 07 2d
        E 19 b8 07 2f
        E 19 b8 07 33
        E 38 b8 07 39
        E 38 b8 07 3c
        E 38 b8 07 3f
        E 38 b8 07 41
        E 38 b8 07 44
        E 38 b8 07 47
        E 38 b8 07 49
        E 38 b8 07 4c
        E 38 b8 07 4f
        E 38 b8 07 51
        E 38 b8 07 54
        E 38 b8 07 56
        E 38 b8 07 59
        E 38 b8 07 5b
        E 38 b8 07 5d
        E 38 b8 07 5f
        E 38 b8 07 62
        E 38 b8 07 63
        E 38 b8 07 65
        E 38 b8 07 67
        E 38 b8 07 69
        E 38 b8 07 6a
        E 38 b8 07 6c
        E 38 b8 07 6c
        E 38 b8 07 6d
        E 38 b8 07 6e
        E 38 b8 07 6f
        E 38 b8 07 70
        E 38 b8 07 71
        E 38 b8 07 71
        E 38 b8 07 72
        E 38 b8 07 72
        E 38 b8 07 72
        E 38 b8 07 72
        E 38 b8 07 72
        E 38 b8 07 71
        E 38 b8 07 71
        E 38 b8 07 70
        E 38 b8 07 6f
        E 38 b8 07 6e
        E 38 b8 07 6d
        E 38 b8 07 6c
        E 38 b8 07 6b
        E 38 b8 07 69
        E 38 b8 07 68
        E 38 b8 07 66
        E 38 b8 07 64
        E 38 b8 07 63
        E 38 b8 07 61
        E 38 b8 07 5e
        E 38 b8 07 5c
        E 38 b8 07 5a
        E 38 b8 07 58
        E 38 b8 07 55
        E 38 b8 07 52
        E 38 b8 07 50
        E 38 b8 07 4e
        E 38 b8 07 4b
        E 38 b8 07 48
        E 38 b8 07 46
        E 38 b8 07 42
        E 38 b8 07 3f
        E 38 b8 07 3d
        E 38 b8 07 3a
        E 38 b8 07 37
        E 38 b8 07 35
        E 38 b8 07 32
        E 38 b8 07 2f
        E 38 b8 07 2c
        E 38 b8 07 29
        E 38 b8 07 26
        E 38 b8 07 24
        E 38 b8 07 22
        E 38 b8 07 1f
        E 38 b8 07 1c
        E 38 b8 07 1a
        E 38 b8 07 18
        E 38 b8 07 15
        E 38 b8 07 13
        E 38 b8 07 11
        E 38 b8 07 0f
        E 38 b8 07 0d
        E 38 b8 07 0b
        E 38 b8 07 09
        E 38 b8 07 09
        E 38 b8 07 07
        E 38 b8 07 06
        E 38 b8 07 04
        E 38 b8 07 03
        E 38 b8 07 02
        E 38 b8 07 01
        E 38 b8 07 00
        E 38 b8 07 00
        E 38 b8 07 00
        E 38 b8 07 00
        E 38 b8 07 00
        E 38 b8 07 00
        E 38 b8 07 00
        E 38 b8 07 00
        E 38 b8 07 00
        E 38 b8 07 01
        E 38 b8 07 02
        E 38 b8 07 03
        E 38 b8 07 04
        E 38 b8 07 05
        E 38 b8 07 06
        E 38 b8 07 08
        E 38 b8 07 09
        E 38 b8 07 0a
        E 38 b8 07 0c
        E 38 b8 07 0e
        E 38 b8 07 10
        E 38 b8 07 12
        E 38 b8 07 14
        E 38 b8 07 16
        E 38 b8 07 19
        E 38 b8 07 1b
        E 38 b8 07 1d
        E 38 b8 07 20
        E 38 b8 07 23
        E 38 b8 07 25
        E 38 b8 07 28
        E 38 b8 07 2b
        E 38 b8 07 2d
        E 38 b8 07 30
        E 38 b8 07 33
        E 38 b8 07 36
        E 38 b8 07 39
        E 57 b8 07 13
        E 57 b8 07 14
        E 57 b8 07 15
        E 57 b8 07 15
        E 57 b8 07 16
        E 57 b8 07 17
        E 57 b8 07 18
        E 57 b8 07 19
        E 57 b8 07 1a
        E 57 b8 07 1b
        E 57 b8 07 1c
        E 57 b8 07 1c
        E 57 b8 07 1d
        E 57 b8 07 1e
        E 57 b8 07 1f
        E 57 b8 07 1f
        E 57 b8 07 20
        E 57 b8 07 21
        E 57 b8 07 21
        E 57 b8 07 22
        E 57 b8 07 23
        E 57 b8 07 23
        E 57 b8 07 24
        E 57 b8 07 24
        E 57 b8 07 24
        E 57 b8 07 24
        E 57 b8 07 25
        E 57 b8 07 25
        E 57 b8 07 25
        E 57 b8 07 25
        E 57 b8 07 26
        E 57 b8 07 26
        E 57 b8 07 26
        E 57 b8 07 26
        E 57 b8 07 26
        E 57 b8 07 25
        E 57 b8 07 25
        E 57 b8 07 25
        E 57 b8 07 25
        E 57 b8 07 24
        E 57 b8 07 24
        E 57 b8 07 24
        E 57 b8 07 23
        E 57 b8 07 23
        E 57 b8 07 22
        E 57 b8 07 22
        E 57 b8 07 21
        E 57 b8 07 21
        E 57 b8 07 20
        E 57 b8 07 1f
        E 57 b8 07 1e
        E 57 b8 07 1e
        E 57 b8 07 1d
        E 57 b8 07 1c
        E 57 b8 07 1b
        E 57 b8 07 1a
        E 57 b8 07 1a
        E 57 b8 07 19
        E 57 b8 07 18
        E 57 b8 07 17
        E 57 b8 07 16
        E 57 b8 07 15
        E 57 b8 07 14
        E 57 b8 07 13
        E 57 b8 07 12
        E 57 b8 07 11
        E 57 b8 07 10
        E 57 b8 07 0f
        E 57 b8 07 0e
        E 57 b8 07 0d
        E 57 b8 07 0c
        E 57 b8 07 0c
        E 57 b8 07 0b
        E 57 b8 07 0a
        E 57 b8 07 09
        E 57 b8 07 08
        E 57 b8 07 08
        E 57 b8 07 07
        E 57 b8 07 06
        E 57 b8 07 05
        E 57 b8 07 05
        E 57 b8 07 04
        E 57 b8 07 03
        E 57 b8 07 03
        E 57 b8 07 03
        E 57 b8 07 02
        E 57 b8 07 02
        E 57 b8 07 01
        E 57 b8 07 01
        E 57 b8 07 00
        E 57 b8 07 00
        E 57 b8 07 00
        E 57 b8 07 00
        E 57 b8 07 00
        E 57 b8 07 00
        E 57 b8 07 00
        E 57 b8 07 00
        E 57 b8 07 00
        E 57 b8 07 00
        E 57 b8 07 00
        E 57 b8 07 00
        E 57 b8 07 00
        E 57 b8 07 01
        E 57 b8 07 01
        E 57 b8 07 01
        E 57 b8 07 02
        E 57 b8 07 02
        E 57 b8 07 03
        E 57 b8 07 03
        E 57 b8 07 04
        E 57 b8 07 04
        E 57 b8 07 05
        E 57 b8 07 06
        E 57 b8 07 06
        E 57 b8 07 07
        E 57 b8 07 08
        E 57 b8 07 09
        E 57 b8 07 09
        E 57 b8 07 0a
        E 57 b8 07 0b
        E 57 b8 07 0c
        E 57 b8 07 0d
        E 57 b8 07 0e
        E 57 b8 07 0f
        E 57 b8 07 10
        E 57 b8 07 11
        E 57 b8 07 12
        E 57 b8 07 13
        E 25 b8 07 33
        E 25 b8 07 35
        E 25 b8 07 37
        E 25 b8 07 3a
        E 25 b8 07 3c
        E 25 b8 07 3f
        E 25 b8 07 41
        E 25 b8 07 44
        E 25 b8 07 46
        E 25 b8 07 48
        E 25 b8 07 4b
        E 25 b8 07 4c
        E 25 b8 07 4f
        E 25 b8 07 51
        E 25 b8 07 53
        E 25 b8 07 54
        E 25 b8 07 57
        E 25 b8 07 58
        E 25 b8 07 5a
        E 25 b8 07 5b
        E 25 b8 07 5d
        E 25 b8 07 5e
        E 25 b8 07 5f
        E 25 b8 07 60
        E 25 b8 07 61
        E 25 b8 07 62
        E 25 b8 07 63
        E 25 b8 07 63
        E 25 b8 07 64
        E 25 b8 07 64
        E 25 b8 07 65
        E 25 b8 07 65
        E 25 b8 07 65
        E 25 b8 07 65
        E 25 b8 07 65
        E 25 b8 07 64
        E 25 b8 07 64
        E 25 b8 07 63
        E 25 b8 07 63
        E 25 b8 07 62
        E 25 b8 07 61
        E 25 b8 07 5f
        E 25 b8 07 5f
        E 25 b8 07 5d
        E 25 b8 07 5c
        E 25 b8 07 5b
        E 25 b8 07 59
        E 25 b8 07 57
        E 25 b8 07 56
        E 25 b8 07 54
        E 25 b8 07 52
        E 25 b8 07 50
        E 25 b8 07 4e
        E 25 b8 07 4c
        E 25 b8 07 49
        E 25 b8 07 47
        E 25 b8 07 45
        E 25 b8 07 43
        E 25 b8 07 40
        E 25 b8 07 3e
        E 25 b8 07 3b
        E 25 b8 07 38
        E 25 b8 07 36
        E 25 b8 07 33
        E 25 b8 07 31
        E 25 b8 07 2f
        E 25 b8 07 2c
        E 25 b8 07 2a
        E 25 b8 07 27
        E 25 b8 07 24
        E 25 b8 07 22
        E 25 b8 07 1f
        E 25 b8 07 1e
        E 25 b8 07 1b
        E 25 b8 07 19
        E 25 b8 07 17
        E 25 b8 07 15
        E 25 b8 07 13
        E 25 b8 07 11
        E 25 b8 07 0f
        E 25 b8 07 0d
        E 25 b8 07 0b
        E 25 b8 07 0a
        E 25 b8 07 08
        E 25 b8 07 07
        E 25 b8 07 06
        E 25 b8 07 05
        E 25 b8 07 03
        E 25 b8 07 03
        E 25 b8 07 02
        E 25 b8 07 01
        E 25 b8 07 00
        E 25 b8 07 00
        E 25 b8 07 00
        E 25 b8 07 00
        E 25 b8 07 00
        E 25 b8 07 00
        E 25 b8 07 00
        E 25 b8 07 00
        E 25 b8 07 00
        E 25 b8 07 01
        E 25 b8 07 02
        E 25 b8 07 03
        E 25 b8 07 03
        E 25 b8 07 04
        E 25 b8 07 05
        E 25 b8 07 07
        E 25 b8 07 07
        E 25 b8 07 09
        E 25 b8 07 0b
        E 25 b8 07 0c
        E 25 b8 07 0e
        E 25 b8 07 10
        E 25 b8 07 12
        E 25 b8 07 14
        E 25 b8 07 16
        E 25 b8 07 18
        E 25 b8 07 1a
        E 25 b8 07 1c
        E 25 b8 07 1f
        E 25 b8 07 21
        E 25 b8 07 24
        E 25 b8 07 26
        E 25 b8 07 28
        E 25 b8 07 2b
        E 25 b8 07 2d
        E 25 b8 07 2f
        E 25 b8 07 33
        E 6 b8 07 06
        E 6 b8 07 06
        E 6 b8 07 07
        E 6 b8 07 07
        E 6 b8 07 07
        E 6 b8 07 07
        E 6 b8 07 08
        E 6 b8 07 08
        E 6 b8 07 08
        E 6 b8 07 09
        E 6 b8 07 09
        E 6 b8 07 09
        E 6 b8 07 09
        E 6 b8 07 0a
        E 6 b8 07 0a
        E 6 b8 07 0a
        E 6 b8 07 0a
        E 6 b8 07 0b
        E 6 b8 07 0b
        E 6 b8 07 0b
        E 6 b8 07 0b
        E 6 b8 07 0b
        E 6 b8 07 0c
        E 6 b8 07 0c
        E 6 b8 07 0c
        E 6 b8 07 0c
        E 6 b8 07 0c
        E 6 b8 07 0c
        E 6 b8 07 0c
        E 6 b8 07 0c
        E 6 b8 07 0c
        E 6 b8 07 0c
        E 6 b8 07 0c
        E 6 b8 07 0c
        E 6 b8 07 0c
        E 6 b8 07 0c
        E 6 b8 07 0c
        E 6 b8 07 0c
        E 6 b8 07 0c
        E 6 b8 07 0c
        E 6 b8 07 0c
        E 6 b8 07 0c
        E 6 b8 07 0b
        E 6 b8 07 0b
        E 6 b8 07 0b
        E 6 b8 07 0b
        E 6 b8 07 0b
        E 6 b8 07 0b
        E 6 b8 07 0a
        E 6 b8 07 0a
        E 6 b8 07 0a
        E 6 b8 07 0a
        E 6 b8 07 09
        E 6 b8 07 09
        E 6 b8 07 09
        E 6 b8 07 08
        E 6 b8 07 08
        E 6 b8 07 08
        E 6 b8 07 08
        E 6 b8 07 07
        E 6 b8 07 07
        E 6 b8 07 07
        E 6 b8 07 06
        E 6 b8 07 06
        E 6 b8 07 06
        E 6 b8 07 05
        E 6 b8 07 05
        E 6 b8 07 05
        E 6 b8 07 04
        E 6 b8 07 04
        E 6 b8 07 04
        E 6 b8 07 04
        E 6 b8 07 03
        E 6 b8 07 03
        E 6 b8 07 03
        E 6 b8 07 02
        E 6 b8 07 02
        E 6 b8 07 02
        E 6 b8 07 02
        E 6 b8 07 01
        E 6 b8 07 01
        E 6 b8 07 01
        E 6 b8 07 01
        E 6 b8 07 01
        E 6 b8 07 01
        E 6 b8 07 00
        E 6 b8 07 00
        E 6 b8 07 00
        E 6 b8 07 00
        E 6 b8 07 00
        E 6 b8 07 00
        E 6 b8 07 00
        E 6 b8 07 00
        E 6 b8 07 00
        E 6 b8 07 00
        E 6 b8 07 00
        E 6 b8 07 00
        E 6 b8 07 00
        E 6 b8 07 00
        E 6 b8 07 00
        E 6 b8 07 00
        E 6 b8 07 00
        E 6 b8 07 00
        E 6 b8 07 00
        E 6 b8 07 00
        E 6 b8 07 00
        E 6 b8 07 00
        E 6 b8 07 01
        E 6 b8 07 01
        E 6 b8 07 01
        E 6 b8 07 01
        E 6 b8 07 01
        E 6 b8 07 02
        E 6 b8 07 02
        E 6 b8 07 02
        E 6 b8 07 02
        E 6 b8 07 03
        E 6 b8 07 03
        E 6 b8 07 03
        E 6 b8 07 03
        E 6 b8 07 04
        E 6 b8 07 04
        E 6 b8 07 04
        E 6 b8 07 05
        E 6 b8 07 05
        E 6 b8 07 05
        E 6 b8 07 06
        E 6 b8 07 06
        E 44 b8 07 39
        E 44 b8 07 3c
        E 44 b8 07 3f
        E 44 b8 07 41
        E 44 b8 07 44
        E 44 b8 07 47
        E 44 b8 07 49
        E 44 b8 07 4c
        E 44 b8 07 4f
        E 44 b8 07 51
        E 44 b8 07 54
        E 44 b8 07 56
        E 44 b8 07 59
        E 44 b8 07 5b
        E 44 b8 07 5d
        E 44 b8 07 5f
        E 44 b8 07 62
        E 44 b8 07 63
        E 44 b8 07 65
        E 44 b8 07 67
        E 44 b8 07 69
        E 44 b8 07 6a
        E 44 b8 07 6c
        E 44 b8 07 6c
        E 44 b8 07 6d
        E 44 b8 07 6e
        E 44 b8 07 6f
        E 44 b8 07 70
        E 44 b8 07 71
        E 44 b8 07 71
        E 44 b8 07 72
        E 44 b8 07 72
        E 44 b8 07 72
        E 44 b8 07 72
        E 44 b8 07 72
        E 44 b8 07 71
        E 44 b8 07 71
        E 44 b8 07 70
        E 44 b8 07 6f
        E 44 b8 07 6e
        E 44 b8 07 6d
        E 44 b8 07 6c
        E 44 b8 07 6b
        E 44 b8 07 69
        E 44 b8 07 68
        E 44 b8 07 66
        E 44 b8 07 64
        E 44 b8 07 63
        E 44 b8 07 61
        E 44 b8 07 5e
        E 44 b8 07 5c
        E 44 b8 07 5a
        E 44 b8 07 58
        E 44 b8 07 55
        E 44 b8 07 52
        E 44 b8 07 50
        E 44 b8 07 4e
        E 44 b8 07 4b
        E 44 b8 07 48
        E 44 b8 07 46
        E 44 b8 07 42
        E 44 b8 07 3f
        E 44 b8 07 3d
        E 44 b8 07 3a
        E 44 b8 07 37
        E 44 b8 07 35
        E 44 b8 07 32
        E 44 b8 07 2f
        E 44 b8 07 2c
        E 44 b8 07 29
        E 44 b8 07 26
        E 44 b8 07 24
        E 44 b8 07 22
        E 44 b8 07 1f
        E 44 b8 07 1c
        E 44 b8 07 1a
        E 44 b8 07 18
        E 44 b8 07 15
        E 44 b8 07 13
        E 44 b8 07 11
        E 44 b8 07 0f
        E 44 b8 07 0d
        E 44 b8 07 0b
        E 44 b8 07 09
        E 44 b8 07 09
        E 44 b8 07 07
        E 44 b8 07 06
        E 44 b8 07 04
        E 44 b8 07 03
        E 44 b8 07 02
        E 44 b8 07 01
        E 44 b8 07 00
        E 44 b8 07 00
        E 44 b8 07 00
        E 44 b8 07 00
        E 44 b8 07 00
        E 44 b8 07 00
        E 44 b8 07 00
        E 44 b8 07 00
        E 44 b8 07 00
        E 44 b8 07 01
        E 44 b8 07 02
        E 44 b8 07 03
        E 44 b8 07 04
        E 44 b8 07 05
        E 44 b8 07 06
        E 44 b8 07 08
        E 44 b8 07 09
        E 44 b8 07 0a
        E 44 b8 07 0c
        E 44 b8 07 0e
        E 44 b8 07 10
        E 44 b8 07 12
        E 44 b8 07 14
        E 44 b8 07 16
        E 44 b8 07 19
        E 44 b8 07 1b
        E 44 b8 07 1d
        E 44 b8 07 20
        E 44 b8 07 23
        E 44 b8 07 25
        E 44 b8 07 28
        E 44 b8 07 2b
        E 44 b8 07 2d
        E 44 b8 07 30
        E 44 b8 07 33
        E 44 b8 07 36
        E 44 b8 07 39
        E 19 b8 07 33
        E 19 b8 07 35
        E 19 b8 07 37
        E 19 b8 07 3a
        E 19 b8 07 3c
        E 19 b8 07 3f
        E 19 b8 07 41
        E 19 b8 07 44
        E 19 b8 07 46
        E 19 b8 07 48
        E 19 b8 07 4b
        E 19 b8 07 4c
        E 19 b8 07 4f
        E 19 b8 07 51
        E 19 b8 07 53
        E 19 b8 07 54
        E 19 b8 07 57
        E 19 b8 07 58
        E 19 b8 07 5a
        E 19 b8 07 5b
        E 19 b8 07 5d
        E 19 b8 07 5e
        E 19 b8 07 5f
        E 19 b8 07 60
        E 19 b8 07 61
        E 19 b8 07 62
        E 19 b8 07 63
        E 19 b8 07 63
        E 19 b8 07 64
        E 19 b8 07 64
        E 19 b8 07 65
        E 19 b8 07 65
        E 19 b8 07 65
        E 19 b8 07 65
        E 19 b8 07 65
        E 19 b8 07 64
        E 19 b8 07 64
        E 19 b8 07 63
        E 19 b8 07 63
        E 19 b8 07 62
        E 19 b8 07 61
        E 19 b8 07 5f
        E 19 b8 07 5f
        E 19 b8 07 5d
        E 19 b8 07 5c
        E 19 b8 07 5b
        E 19 b8 07 59
        E 19 b8 07 57
        E 19 b8 07 56
        E 19 b8 07 54
        E 19 b8 07 52
        E 19 b8 07 50
        E 19 b8 07 4e
        E 19 b8 07 4c
        E 19 b8 07 49
        E 19 b8 07 47
        E 19 b8 07 45
        E 19 b8 07 43
        E 19 b8 07 40
        E 19 b8 07 3e
        E 19 b8 07 3b
        E 19 b8 07 38
        E 19 b8 07 36
        E 19 b8 07 33
        E 19 b8 07 31
        E 19 b8 07 2f
        E 19 b8 07 2c
        E 19 b8 07 2a
        E 19 b8 07 27
        E 19 b8 07 24
        E 19 b8 07 22
        E 19 b8 07 1f
        E 19 b8 07 1e
        E 19 b8 07 1b
        E 19 b8 07 19
        E 19 b8 07 17
        E 19 b8 07 15
        E 19 b8 07 13
        E 19 b8 07 11
        E 19 b8 07 0f
        E 19 b8 07 0d
        E 19 b8 07 0b
        E 19 b8 07 0a
        E 19 b8 07 08
        E 19 b8 07 07
        E 19 b8 07 06
        E 19 b8 07 05
        E 19 b8 07 03
        E 19 b8 07 03
        E 19 b8 07 02
        E 19 b8 07 01
        E 19 b8 07 00
        E 19 b8 07 00
        E 19 b8 07 00
        E 19 b8 07 00
        E 19 b8 07 00
        E 19 b8 07 00
        E 19 b8 07 00
        E 19 b8 07 00
        E 19 b8 07 00
        E 19 b8 07 01
        E 19 b8 07 02
        E 19 b8 07 03
        E 19 b8 07 03
        E 19 b8 07 04
        E 19 b8 07 05
        E 19 b8 07 07
        E 19 b8 07 07
        E 19 b8 07 09
        E 19 b8 07 0b
        E 19 b8 07 0c
        E 19 b8 07 0e
        E 19 b8 07 10
        E 19 b8 07 12
        E 19 b8 07 14
        E 19 b8 07 16
        E 19 b8 07 18
        E 19 b8 07 1a
        E 19 b8 07 1c
        E 19 b8 07 1f
        E 19 b8 07 21
        E 19 b8 07 24
        E 19 b8 07 26
        E 19 b8 07 28
        E 19 b8 07 2b
        E 19 b8 07 2d
        E 19 b8 07 2f
        E 19 b8 07 33
        E 38 b8 07 39
        E 38 b8 07 3c
        E 38 b8 07 3f
        E 38 b8 07 41
        E 38 b8 07 44
        E 38 b8 07 47
        E 38 b8 07 49
        E 38 b8 07 4c
        E 38 b8 07 4f
        E 38 b8 07 51
        E 38 b8 07 54
        E 38 b8 07 56
        E 38 b8 07 59
        E 38 b8 07 5b
        E 38 b8 07 5d
        E 38 b8 07 5f
        E 38 b8 07 62
        E 38 b8 07 63
        E 38 b8 07 65
        E 38 b8 07 67
        E 38 b8 07 69
        E 38 b8 07 6a
        E 38 b8 07 6c
        E 38 b8 07 6c
        E 38 b8 07 6d
        E 38 b8 07 6e
        E 38 b8 07 6f
        E 38 b8 07 70
        E 38 b8 07 71
        E 38 b8 07 71
        E 38 b8 07 72
        E 38 b8 07 72
        E 38 b8 07 72
        E 38 b8 07 72
        E 38 b8 07 72
        E 38 b8 07 71
        E 38 b8 07 71
        E 38 b8 07 70
        E 38 b8 07 6f
        E 38 b8 07 6e
        E 38 b8 07 6d
        E 38 b8 07 6c
        E 38 b8 07 6b
        E 38 b8 07 69
        E 38 b8 07 68
        E 38 b8 07 66
        E 38 b8 07 64
        E 38 b8 07 63
        E 38 b8 07 61
        E 38 b8 07 5e
        E 38 b8 07 5c
        E 38 b8 07 5a
        E 38 b8 07 58
        E 38 b8 07 55
        E 38 b8 07 52
        E 38 b8 07 50
        E 38 b8 07 4e
        E 38 b8 07 4b
        E 38 b8 07 48
        E 38 b8 07 46
        E 38 b8 07 42
        E 38 b8 07 3f
        E 38 b8 07 3d
        E 38 b8 07 3a
        E 38 b8 07 37
        E 38 b8 07 35
        E 38 b8 07 32
        E 38 b8 07 2f
        E 38 b8 07 2c
        E 38 b8 07 29
        E 38 b8 07 26
        E 38 b8 07 24
        E 38 b8 07 22
        E 38 b8 07 1f
        E 38 b8 07 1c
        E 38 b8 07 1a
        E 38 b8 07 18
        E 38 b8 07 15
        E 38 b8 07 13
        E 38 b8 07 11
        E 38 b8 07 0f
        E 38 b8 07 0d
        E 38 b8 07 0b
        E 38 b8 07 09
        E 38 b8 07 09
        E 38 b8 07 07
        E 38 b8 07 06
        E 38 b8 07 04
        E 38 b8 07 03
        E 38 b8 07 02
        E 38 b8 07 01
        E 38 b8 07 00
        E 38 b8 07 00
        E 38 b8 07 00
        E 38 b8 07 00
        E 38 b8 07 00
        E 38 b8 07 00
        E 38 b8 07 00
        E 38 b8 07 00
        E 38 b8 07 00
        E 38 b8 07 01
        E 38 b8 07 02
        E 38 b8 07 03
        E 38 b8 07 04
        E 38 b8 07 05
        E 38 b8 07 06
        E 38 b8 07 08
        E 38 b8 07 09
        E 38 b8 07 0a
        E 38 b8 07 0c
        E 38 b8 07 0e
        E 38 b8 07 10
        E 38 b8 07 12
        E 38 b8 07 14
        E 38 b8 07 16
        E 38 b8 07 19
        E 38 b8 07 1b
        E 38 b8 07 1d
        E 38 b8 07 20
        E 38 b8 07 23
        E 38 b8 07 25
        E 38 b8 07 28
        E 38 b8 07 2b
        E 38 b8 07 2d
        E 38 b8 07 30
        E 38 b8 07 33
        E 38 b8 07 36
        E 38 b8 07 39
        E 57 b8 07 13
        E 57 b8 07 14
        E 57 b8 07 15
        E 57 b8 07 15
        E 57 b8 07 16
        E 57 b8 07 17
        E 57 b8 07 18
        E 57 b8 07 19
        E 57 b8 07 1a
        E 57 b8 07 1b
        E 57 b8 07 1c
        E 57 b8 07 1c
        E 57 b8 07 1d
        E 57 b8 07 1e
        E 57 b8 07 1f
        E 57 b8 07 1f
        E 57 b8 07 20
        E 57 b8 07 21
        E 57 b8 07 21
        E 57 b8 07 22
        E 57 b8 07 23
        E 57 b8 07 23
        E 57 b8 07 24
        E 57 b8 07 24
        E 57 b8 07 24
        E 57 b8 07 24
        E 57 b8 07 25
        E 57 b8 07 25
        E 57 b8 07 25
        E 57 b8 07 25
        E 57 b8 07 26
        E 57 b8 07 26
        E 57 b8 07 26
        E 57 b8 07 26
        E 57 b8 07 26
        E 57 b8 07 25
        E 57 b8 07 25
        E 57 b8 07 25
        E 57 b8 07 25
        E 57 b8 07 24
        E 57 b8 07 24
        E 57 b8 07 24
        E 57 b8 07 23
        E 57 b8 07 23
        E 57 b8 07 22
        E 57 b8 07 22
        E 57 b8 07 21
        E 57 b8 07 21
        E 57 b8 07 20
        E 57 b8 07 1f
        E 57 b8 07 1e
        E 57 b8 07 1e
        E 57 b8 07 1d
        E 57 b8 07 1c
        E 57 b8 07 1b
        E 57 b8 07 1a
        E 57 b8 07 1a
        E 57 b8 07 19
        E 57 b8 07 18
        E 57 b8 07 17
        E 57 b8 07 16
        E 57 b8 07 15
        E 57 b8 07 14
        E 57 b8 07 13
        E 57 b8 07 12
        E 57 b8 07 11
        E 57 b8 07 10
        E 57 b8 07 0f
        E 57 b8 07 0e
        E 57 b8 07 0d
        E 57 b8 07 0c
        E 57 b8 07 0c
        E 57 b8 07 0b
        E 57 b8 07 0a
        E 57 b8 07 09
        E 57 b8 07 08
        E 57 b8 07 08
        E 57 b8 07 07
        E 57 b8 07 06
        E 57 b8 07 05
        E 57 b8 07 05
        E 57 b8 07 04
        E 57 b8 07 03
        E 57 b8 07 03
        E 57 b8 07 03
        E 57 b8 07 02
        E 57 b8 07 02
        E 57 b8 07 01
        E 57 b8 07 01
        E 57 b8 07 00
        E 57 b8 07 00
        E 57 b8 07 00
        E 57 b8 07 00
        E 57 b8 07 00
        E 57 b8 07 00
        E 57 b8 07 00
        E 57 b8 07 00
        E 57 b8 07 00
        E 57 b8 07 00
        E 57 b8 07 00
        E 57 b8 07 00
        E 57 b8 07 00
        E 57 b8 07 01
        E 57 b8 07 01
        E 57 b8 07 01
        E 57 b8 07 02
        E 57 b8 07 02
        E 57 b8 07 03
        E 57 b8 07 03
        E 57 b8 07 04
        E 57 b8 07 04
        E 57 b8 07 05
        E 57 b8 07 06
        E 57 b8 07 06
        E 57 b8 07 07
        E 57 b8 07 08
        E 57 b8 07 09
        E 57 b8 07 09
        E 57 b8 07 0a
        E 57 b8 07 0b
        E 57 b8 07 0c
        E 57 b8 07 0d
        E 57 b8 07 0e
        E 57 b8 07 0f
        E 57 b8 07 10
        E 57 b8 07 11
        E 57 b8 07 12
        E 57 b8 07 13
        E 25 b8 07 33
        E 25 b8 07 35
        E 25 b8 07 37
        E 25 b8 07 3a
        E 25 b8 07 3c
        E 25 b8 07 3f
        E 25 b8 07 41
        E 25 b8 07 44
        E 25 b8 07 46
        E 25 b8 07 48
        E 25 b8 07 4b
        E 25 b8 07 4c
        E 25 b8 07 4f
        E 25 b8 07 51
        E 25 b8 07 53
        E 25 b8 07 54
        E 25 b8 07 57
        E 25 b8 07 58
        E 25 b8 07 5a
        E 25 b8 07 5b
        E 25 b8 07 5d
        E 25 b8 07 5e
        E 25 b8 07 5f
        E 25 b8 07 60
        E 25 b8 07 61
        E 25 b8 07 62
        E 25 b8 07 63
        E 25 b8 07 63
        E 25 b8 07 64
        E 25 b8 07 64
        E 25 b8 07 65
        E 25 b8 07 65
        E 25 b8 07 65
        E 25 b8 07 65
        E 25 b8 07 65
        E 25 b8 07 64
        E 25 b8 07 64
        E 25 b8 07 63
        E 25 b8 07 63
        E 25 b8 07 62
        E 25 b8 07 61
        E 25 b8 07 5f
        E 25 b8 07 5f
        E 25 b8 07 5d
        E 25 b8 07 5c
        E 25 b8 07 5b
        E 25 b8 07 59
        E 25 b8 07 57
        E 25 b8 07 56
        E 25 b8 07 54
        E 25 b8 07 52
        E 25 b8 07 50
        E 25 b8 07 4e
        E 25 b8 07 4c
        E 25 b8 07 49
        E 25 b8 07 47
        E 25 b8 07 45
        E 25 b8 07 43
        E 25 b8 07 40
        E 25 b8 07 3e
        E 25 b8 07 3b
        E 25 b8 07 38
        E 25 b8 07 36
        E 25 b8 07 33
        E 25 b8 07 31
        E 25 b8 07 2f
        E 25 b8 07 2c
        E 25 b8 07 2a
        E 25 b8 07 27
        E 25 b8 07 24
        E 25 b8 07 22
        E 25 b8 07 1f
        E 25 b8 07 1e
        E 25 b8 07 1b
        E 25 b8 07 19
        E 25 b8 07 17
        E 25 b8 07 15
        E 25 b8 07 13
        E 25 b8 07 11
        E 25 b8 07 0f
        E 25 b8 07 0d
        E 25 b8 07 0b
        E 25 b8 07 0a
        E 25 b8 07 08
        E 25 b8 07 07
        E 25 b8 07 06
        E 25 b8 07 05
        E 25 b8 07 03
        E 25 b8 07 03
        E 25 b8 07 02
        E 25 b8 07 01
        E 25 b8 07 00
        E 25 b8 07 00
        E 25 b8 07 00
        E 25 b8 07 00
        E 25 b8 07 00
        E 25 b8 07 00
        E 25 b8 07 00
        E 25 b8 07 00
        E 25 b8 07 00
        E 25 b8 07 01
        E 25 b8 07 02
        E 25 b8 07 03
        E 25 b8 07 03
        E 25 b8 07 04
        E 25 b8 07 05
        E 25 b8 07 07
        E 25 b8 07 07
        E 25 b8 07 09
        E 25 b8 07 0b
        E 25 b8 07 0c
        E 25 b8 07 0e
        E 25 b8 07 10
        E 25 b8 07 12
        E 25 b8 07 14
        E 25 b8 07 16
        E 25 b8 07 18
        E 25 b8 07 1a
        E 25 b8 07 1c
        E 25 b8 07 1f
        E 25 b8 07 21
        E 25 b8 07 24
        E 25 b8 07 26
        E 25 b8 07 28
        E 25 b8 07 2b
        E 25 b8 07 2d
        E 25 b8 07 2f
        E 25 b8 07 33
        E 6 b8 07 06
        E 6 b8 07 06
        E 6 b8 07 07
        E 6 b8 07 07
        E 6 b8 07 07
        E 6 b8 07 07
        E 6 b8 07 08
        E 6 b8 07 08
        E 6 b8 07 08
        E 6 b8 07 09
        E 6 b8 07 09
        E 6 b8 07 09
        E 6 b8 07 09
        E 6 b8 07 0a
        E 6 b8 07 0a
        E 6 b8 07 0a
        E 6 b8 07 0a
        E 6 b8 07 0b
        E 6 b8 07 0b
        E 6 b8 07 0b
        E 6 b8 07 0b
        E 6 b8 07 0b
        E 6 b8 07 0c
        E 6 b8 07 0c
        E 6 b8 07 0c
        E 6 b8 07 0c
        E 6 b8 07 0c
        E 6 b8 07 0c
        E 6 b8 07 0c
        E 6 b8 07 0c
        E 6 b8 07 0c
        E 6 b8 07 0c
        E 6 b8 07 0c
        E 6 b8 07 0c
        E 6 b8 07 0c
        E 6 b8 07 0c
        E 6 b8 07 0c
        E 6 b8 07 0c
        E 6 b8 07 0c
        E 6 b8 07 0c
        E 6 b8 07 0c
        E 6 b8 07 0c
        E 6 b8 07 0b
        E 6 b8 07 0b
        E 6 b8 07 0b
        E 6 b8 07 0b
        E 6 b8 07 0b
        E 6 b8 07 0b
        E 6 b8 07 0a
        E 6 b8 07 0a
        E 6 b8 07 0a
        E 6 b8 07 0a
        E 6 b8 07 09
        E 6 b8 07 09
        E 6 b8 07 09
        E 6 b8 07 08
        E 6 b8 07 08
        E 6 b8 07 08
        E 6 b8 07 08
        E 6 b8 07 07
        E 6 b8 07 07
        E 6 b8 07 07
        E 6 b8 07 06
        E 6 b8 07 06
        E 6 b8 07 06
        E 6 b8 07 05
        E 6 b8 07 05
        E 6 b8 07 05
        E 6 b8 07 04
        E 6 b8 07 04
        E 6 b8 07 04
        E 6 b8 07 04
        E 6 b8 07 03
        E 6 b8 07 03
        E 6 b8 07 03
        E 6 b8 07 02
        E 6 b8 07 02
        E 6 b8 07 02
        E 6 b8 07 02
        E 6 b8 07 01
        E 6 b8 07 01
        E 6 b8 07 01
        E 6 b8 07 01
        E 6 b8 07 01
        E 6 b8 07 01
        E 6 b8 07 00
        E 6 b8 07 00
        E 6 b8 07 00
        E 6 b8 07 00
        E 6 b8 07 00
        E 6 b8 07 00
        E 6 b8 07 00
        E 6 b8 07 00
        E 6 b8 07 00
        E 6 b8 07 00
        E 6 b8 07 00
        E 6 b8 07 00
        E 6 b8 07 00
        E 6 b8 07 00
        E 6 b8 07 00
        E 6 b8 07 00
        E 6 b8 07 00
        E 6 b8 07 00
        E 6 b8 07 00
        E 6 b8 07 00
        E 6 b8 07 00
        E 6 b8 07 00
        E 6 b8 07 01
        E 6 b8 07 01
        E 6 b8 07 01
        E 6 b8 07 01
        E 6 b8 07 01
        E 6 b8 07 02
        E 6 b8 07 02
        E 6 b8 07 02
        E 6 b8 07 02
        E 6 b8 07 03
        E 6 b8 07 03
        E 6 b8 07 03
        E 6 b8 07 03
        E 6 b8 07 04
        E 6 b8 07 04
        E 6 b8 07 04
        E 6 b8 07 05
        E 6 b8 07 05
        E 6 b8 07 05
        E 6 b8 07 06
        E 6 b8 07 06
        E 44 b8 07 39
        E 44 b8 07 3c
        E 44 b8 07 3f
        E 44 b8 07 41
        E 44 b8 07 44
        E 44 b8 07 47
        E 44 b8 07 49
        E 44 b8 07 4c
        E 44 b8 07 4f
        E 44 b8 07 51
        E 44 b8 07 54
        E 44 b8 07 56
        E 44 b8 07 59
        E 44 b8 07 5b
        E 44 b8 07 5d
        E 44 b8 07 5f
        E 44 b8 07 62
        E 44 b8 07 63
        E 44 b8 07 65
        E 44 b8 07 67
        E 44 b8 07 69
        E 44 b8 07 6a
        E 44 b8 07 6c
        E 44 b8 07 6c
        E 44 b8 07 6d
        E 44 b8 07 6e
        E 44 b8 07 6f
        E 44 b8 07 70
        E 44 b8 07 71
        E 44 b8 07 71
        E 44 b8 07 72
        E 44 b8 07 72
        E 44 b8 07 72
        E 44 b8 07 72
        E 44 b8 07 72
        E 44 b8 07 71
        E 44 b8 07 71
        E 44 b8 07 70
        E 44 b8 07 6f
        E 44 b8 07 6e
        E 44 b8 07 6d
        E 44 b8 07 6c
        E 44 b8 07 6b
        E 44 b8 07 69
        E 44 b8 07 68
        E 44 b8 07 66
        E 44 b8 07 64
        E 44 b8 07 63
        E 44 b8 07 61
        E 44 b8 07 5e
        E 44 b8 07 5c
        E 44 b8 07 5a
        E 44 b8 07 58
        E 44 b8 07 55
        E 44 b8 07 52
        E 44 b8 07 50
        E 44 b8 07 4e
        E 44 b8 07 4b
        E 44 b8 07 48
        E 44 b8 07 46
        E 44 b8 07 42
        E 44 b8 07 3f
        E 44 b8 07 3d
        E 44 b8 07 3a
        E 44 b8 07 37
        E 44 b8 07 35
        E 44 b8 07 32
        E 44 b8 07 2f
        E 44 b8 07 2c
        E 44 b8 07 29
        E 44 b8 07 26
        E 44 b8 07 24
        E 44 b8 07 22
        E 44 b8 07 1f
        E 44 b8 07 1c
        E 44 b8 07 1a
        E 44 b8 07 18
        E 44 b8 07 15
        E 44 b8 07 13
        E 44 b8 07 11
        E 44 b8 07 0f
        E 44 b8 07 0d
        E 44 b8 07 0b
        E 44 b8 07 09
        E 44 b8 07 09
        E 44 b8 07 07
        E 44 b8 07 06
        E 44 b8 07 04
        E 44 b8 07 03
        E 44 b8 07 02
        E 44 b8 07 01
        E 44 b8 07 00
        E 44 b8 07 00
        E 44 b8 07 00
        E 44 b8 07 00
        E 44 b8 07 00
        E 44 b8 07 00
        E 44 b8 07 00
        E 44 b8 07 00
        E 44 b8 07 00
        E 44 b8 07 01
        E 44 b8 07 02
        E 44 b8 07 03
        E 44 b8 07 04
        E 44 b8 07 05
        E 44 b8 07 06
        E 44 b8 07 08
        E 44 b8 07 09
        E 44 b8 07 0a
        E 44 b8 07 0c
        E 44 b8 07 0e
        E 44 b8 07 10
        E 44 b8 07 12
        E 44 b8 07 14
        E 44 b8 07 16
        E 44 b8 07 19
        E 44 b8 07 1b
        E 44 b8 07 1d
        E 44 b8 07 20
        E 44 b8 07 23
        E 44 b8 07 25
        E 44 b8 07 28
        E 44 b8 07 2b
        E 44 b8 07 2d
        E 44 b8 07 30
        E 44 b8 07 33
        E 44 b8 07 36
        E 44 b8 07 39
        E 19 b8 07 33
        E 19 b8 07 35
        E 19 b8 07 37
        E 19 b8 07 3a
        E 19 b8 07 3c
        E 19 b8 07 3f
        E 19 b8 07 41
        E 19 b8 07 44
        E 19 b8 07 46
        E 19 b8 07 48
        E 19 b8 07 4b
        E 19 b8 07 4c
        E 19 b8 07 4f
        E 19 b8 07 51
        E 19 b8 07 53
        E 19 b8 07 54
        E 19 b8 07 57
        E 19 b8 07 58
        E 19 b8 07 5a
        E 19 b8 07 5b
        E 19 b8 07 5d
        E 19 b8 07 5e
        E 19 b8 07 5f
        E 19 b8 07 60
        E 19 b8 07 61
        E 19 b8 07 62
        E 19 b8 07 63
        E 19 b8 07 63
        E 19 b8 07 64
        E 19 b8 07 64
        E 19 b8 07 65
        E 19 b8 07 65
        E 19 b8 07 65
        E 19 b8 07 65
        E 19 b8 07 65
        E 19 b8 07 64
        E 19 b8 07 64
        E 19 b8 07 63
        E 19 b8 07 63
        E 19 b8 07 62
        E 19 b8 07 61
        E 19 b8 07 5f
        E 19 b8 07 5f
        E 19 b8 07 5d
        E 19 b8 07 5c
        E 19 b8 07 5b
        E 19 b8 07 59
        E 19 b8 07 57
        E 19 b8 07 56
        E 19 b8 07 54
        E 19 b8 07 52
        E 19 b8 07 50
        E 19 b8 07 4e
        E 19 b8 07 4c
        E 19 b8 07 49
        E 19 b8 07 47
        E 19 b8 07 45
        E 19 b8 07 43
        E 19 b8 07 40
        E 19 b8 07 3e
        E 19 b8 07 3b
        E 19 b8 07 38
        E 19 b8 07 36
        E 19 b8 07 33
        E 19 b8 07 31
        E 19 b8 07 2f
        E 19 b8 07 2c
        E 19 b8 07 2a
        E 19 b8 07 27
        E 19 b8 07 24
        E 19 b8 07 22
        E 19 b8 07 1f
        E 19 b8 07 1e
        E 19 b8 07 1b
        E 19 b8 07 19
        E 19 b8 07 17
        E 19 b8 07 15
        E 19 b8 07 13
        E 19 b8 07 11
        E 19 b8 07 0f
        E 19 b8 07 0d
        E 19 b8 07 0b
        E 19 b8 07 0a
        E 19 b8 07 08
        E 19 b8 07 07
        E 19 b8 07 06
        E 19 b8 07 05
        E 19 b8 07 03
        E 19 b8 07 03
        E 19 b8 07 02
        E 19 b8 07 01
        E 19 b8 07 00
        E 19 b8 07 00
        E 19 b8 07 00
        E 19 b8 07 00
        E 19 b8 07 00
        E 19 b8 07 00
        E 19 b8 07 00
        E 19 b8 07 00
        E 19 b8 07 00
        E 19 b8 07 01
        E 19 b8 07 02
        E 19 b8 07 03
        E 19 b8 07 03
        E 19 b8 07 04
        E 19 b8 07 05
        E 19 b8 07 07
        E 19 b8 07 07
        E 19 b8 07 09
        E 19 b8 07 0b
        E 19 b8 07 0c
        E 19 b8 07 0e
        E 19 b8 07 10
        E 19 b8 07 12
        E 19 b8 07 14
        E 19 b8 07 16
        E 19 b8 07 18
        E 19 b8 07 1a
        E 19 b8 07 1c
        E 19 b8 07 1f
        E 19 b8 07 21
        E 19 b8 07 24
        E 19 b8 07 26
        E 19 b8 07 28
        E 19 b8 07 2b
        E 19 b8 07 2d
        E 19 b8 07 2f
        E 19 b8 07 33
        E 38 b8 07 39
        E 38 b8 07 3c
        E 38 b8 07 3f
        E 38 b8 07 41
        E 38 b8 07 44
        E 38 b8 07 47
        E 38 b8 07 49
        E 38 b8 07 4c
        E 38 b8 07 4f
        E 38 b8 07 51
        E 38 b8 07 54
        E 38 b8 07 56
        E 38 b8 07 59
        E 38 b8 07 5b
        E 38 b8 07 5d
        E 38 b8 07 5f
        E 38 b8 07 62
        E 38 b8 07 63
        E 38 b8 07 65
        E 38 b8 07 67
        E 38 b8 07 69
        E 38 b8 07 6a
        E 38 b8 07 6c
        E 38 b8 07 6c
        E 38 b8 07 6d
        E 38 b8 07 6e
        E 38 b8 07 6f
        E 38 b8 07 70
        E 38 b8 07 71
        E 38 b8 07 71
        E 38 b8 07 72
        E 38 b8 07 72
        E 38 b8 07 72
        E 38 b8 07 72
        E 38 b8 07 72
        E 38 b8 07 71
        E 38 b8 07 71
        E 38 b8 07 70
        E 38 b8 07 6f
        E 38 b8 07 6e
        E 38 b8 07 6d
        E 38 b8 07 6c
        E 38 b8 07 6b
        E 38 b8 07 69
        E 38 b8 07 68
        E 38 b8 07 66
        E 38 b8 07 64
        E 38 b8 07 63
        E 38 b8 07 61
        E 38 b8 07 5e
        E 38 b8 07 5c
        E 38 b8 07 5a
        E 38 b8 07 58
        E 38 b8 07 55
        E 38 b8 07 52
        E 38 b8 07 50
        E 38 b8 07 4e
        E 38 b8 07 4b
        E 38 b8 07 48
        E 38 b8 07 46
        E 38 b8 07 42
        E 38 b8 07 3f
        E 38 b8 07 3d
        E 38 b8 07 3a
        E 38 b8 07 37
        E 38 b8 07 35
        E 38 b8 07 32
        E 38 b8 07 2f
        E 38 b8 07 2c
        E 38 b8 07 29
        E 38 b8 07 26
        E 38 b8 07 24
        E 38 b8 07 22
        E 38 b8 07 1f
        E 38 b8 07 1c
        E 38 b8 07 1a
        E 38 b8 07 18
        E 38 b8 07 15
        E 38 b8 07 13
        E 38 b8 07 11
        E 38 b8 07 0f
        E 38 b8 07 0d
        E 38 b8 07 0b
        E 38 b8 07 09
        E 38 b8 07 09
        E 38 b8 07 07
        E 38 b8 07 06
        E 38 b8 07 04
        E 38 b8 07 03
        E 38 b8 07 02
        E 38 b8 07 01
        E 38 b8 07 00
        E 38 b8 07 00
        E 38 b8 07 00
        E 38 b8 07 00
        E 38 b8 07 00
        E 38 b8 07 00
        E 38 b8 07 00
        E 38 b8 07 00
        E 38 b8 07 00
        E 38 b8 07 01
        E 38 b8 07 02
        E 38 b8 07 03
        E 38 b8 07 04
        E 38 b8 07 05
        E 38 b8 07 06
        E 38 b8 07 08
        E 38 b8 07 09
        E 38 b8 07 0a
        E 38 b8 07 0c
        E 38 b8 07 0e
        E 38 b8 07 10
        E 38 b8 07 12
        E 38 b8 07 14
        E 38 b8 07 16
        E 38 b8 07 19
        E 38 b8 07 1b
        E 38 b8 07 1d
        E 38 b8 07 20
        E 38 b8 07 23
        E 38 b8 07 25
        E 38 b8 07 28
        E 38 b8 07 2b
        E 38 b8 07 2d
        E 38 b8 07 30
        E 38 b8 07 33
        E 38 b8 07 36
        E 38 b8 07 39
        E 8 b8 07 0c
        E 8 b8 07 0c
        E 8 b8 07 0c
        E 8 b8 07 0c
        E 8 b8 07 0c
        E 8 b8 07 0c
        E 8 b8 07 0c
        E 8 b8 07 0c
        E 8 b8 07 0c
        E 8 b8 07 0c
        E 8 b8 07 0c
        E 8 b8 07 0c
        E 8 b8 07 0c
        E 8 b8 07 0c
        E 8 b8 07 0c
        E 8 b8 07 0c
        E 8 b8 07 0c
        E 8 b8 07 0c
        E 8 b8 07 0c
        E 8 b8 07 0c
        E 8 b8 07 0c
        E 8 b8 07 0c
        E 8 b8 07 0c
        E 8 b8 07 0c
        E 8 b8 07 0c
        E 8 b8 07 0c
        E 8 b8 07 0c
        E 8 b8 07 0c
        E 8 b8 07 0c
        E 8 b8 07 0c
        E 8 b8 07 0c
        E 8 b8 07 0c
        E 8 b8 07 0c
        E 8 b8 07 0c
        E 8 b8 07 0c
        E 8 b8 07 0c
        E 8 b8 07 0c
        E 8 b8 07 0c
        E 8 b8 07 0c
        E 8 b8 07 0c
        E 8 b8 07 0c
        E 8 b8 07 0c
        E 8 b8 07 0c
        E 8 b8 07 0c
        E 8 b8 07 0c
        E 8 b8 07 0c
        E 8 b8 07 0c
        E 8 b8 07 0c
        E 8 b8 07 0c
        E 8 b8 07 0c
        E 8 b8 07 0c
        E 8 b8 07 0c
        E 8 b8 07 0c
        E 8 b8 07 0c
        E 8 b8 07 0c
        E 8 b8 07 0c
        E 8 b8 07 0c
        E 8 b8 07 0c
        E 8 b8 07 0c
        E 8 b8 07 0c
        E 8 b8 07 0c
        E 8 b8 07 0c
        E 8 b8 07 0c
        E 8 b8 07 00
        E 8 b8 07 00
        E 8 b8 07 00
        E 8 b8 07 00
        E 8 b8 07 00
        E 8 b8 07 00
        E 8 b8 07 00
        E 8 b8 07 00
        E 8 b8 07 00
        E 8 b8 07 00
        E 8 b8 07 00
        E 8 b8 07 00
        E 8 b8 07 00
        E 8 b8 07 00
        E 8 b8 07 00
        E 8 b8 07 00
        E 8 b8 07 00
        E 8 b8 07 00
        E 8 b8 07 00
        E 8 b8 07 00
        E 8 b8 07 00
        E 8 b8 07 00
        E 8 b8 07 00
        E 8 b8 07 00
        E 8 b8 07 00
        E 8 b8 07 00
        E 8 b8 07 00
        E 8 b8 07 00
        E 8 b8 07 00
        E 8 b8 07 00
        E 8 b8 07 00
        E 8 b8 07 00
        E 8 b8 07 00
        E 8 b8 07 00
        E 8 b8 07 00
        E 8 b8 07 00
        E 8 b8 07 00
        E 8 b8 07 00
        E 8 b8 07 00
        E 8 b8 07 00
        E 8 b8 07 00
        E 8 b8 07 00
        E 8 b8 07 00
        E 8 b8 07 00
        E 8 b8 07 00
        E 8 b8 07 00
        E 8 b8 07 00
        E 8 b8 07 00
        E 8 b8 07 00
        E 8 b8 07 00
        E 8 b8 07 00
        E 8 b8 07 00
        E 8 b8 07 00
        E 8 b8 07 00
        E 8 b8 07 00
        E 8 b8 07 00
        E 8 b8 07 00
        E 8 b8 07 00
        E 8 b8 07 00
        E 8 b8 07 00
        E 8 b8 07 00
        E 8 b8 07 00
        E 8 b8 07 00
        E 8 b8 07 00
        E 56 b8 07 72
        E 56 b8 07 72
        E 56 b8 07 72
        E 56 b8 07 72
        E 56 b8 07 72
        E 56 b8 07 72
        E 56 b8 07 72
        E 56 b8 07 72
        E 56 b8 07 72
        E 56 b8 07 72
        E 56 b8 07 72
        E 56 b8 07 72
        E 56 b8 07 72
        E 56 b8 07 72
        E 56 b8 07 72
        E 56 b8 07 72
        E 56 b8 07 72
        E 56 b8 07 72
        E 56 b8 07 72
        E 56 b8 07 72
        E 56 b8 07 72
        E 56 b8 07 72
        E 56 b8 07 72
        E 56 b8 07 72
        E 56 b8 07 72
        E 56 b8 07 72
        E 56 b8 07 72
        E 56 b8 07 72
        E 56 b8 07 72
        E 56 b8 07 72
        E 56 b8 07 72
        E 56 b8 07 72
        E 56 b8 07 72
        E 56 b8 07 72
        E 56 b8 07 72
        E 56 b8 07 72
        E 56 b8 07 72
        E 56 b8 07 72
        E 56 b8 07 72
        E 56 b8 07 72
        E 56 b8 07 72
        E 56 b8 07 72
        E 56 b8 07 72
        E 56 b8 07 72
        E 56 b8 07 72
        E 56 b8 07 72
        E 56 b8 07 72
        E 56 b8 07 72
        E 56 b8 07 72
        E 56 b8 07 72
        E 56 b8 07 72
        E 56 b8 07 72
        E 56 b8 07 72
        E 56 b8 07 72
        E 56 b8 07 72
        E 56 b8 07 72
        E 56 b8 07 72
        E 56 b8 07 72
        E 56 b8 07 72
        E 56 b8 07 72
        E 56 b8 07 72
        E 56 b8 07 72
        E 56 b8 07 72
        E 56 b8 07 00
        E 56 b8 07 00
        E 56 b8 07 00
        E 56 b8 07 00
        E 56 b8 07 00
        E 56 b8 07 00
        E 56 b8 07 00
        E 56 b8 07 00
        E 56 b8 07 00
        E 56 b8 07 00
        E 56 b8 07 00
        E 56 b8 07 00
        E 56 b8 07 00
        E 56 b8 07 00
        E 56 b8 07 00
        E 56 b8 07 00
        E 56 b8 07 00
        E 56 b8 07 00
        E 56 b8 07 00
        E 56 b8 07 00
        E 56 b8 07 00
        E 56 b8 07 00
        E 56 b8 07 00
        E 56 b8 07 00
        E 56 b8 07 00
        E 56 b8 07 00
        E 56 b8 07 00
        E 56 b8 07 00
        E 56 b8 07 00
        E 56 b8 07 00
        E 56 b8 07 00
        E 56 b8 07 00
        E 56 b8 07 00
        E 56 b8 07 00
        E 56 b8 07 00
        E 56 b8 07 00
        E 56 b8 07 00
        E 56 b8 07 00
        E 56 b8 07 00
        E 56 b8 07 00
        E 56 b8 07 00
        E 56 b8 07 00
        E 56 b8 07 00
        E 56 b8 07 00
        E 56 b8 07 00
        E 56 b8 07 00
        E 56 b8 07 00
        E 56 b8 07 00
        E 56 b8 07 00
        E 56 b8 07 00
        E 56 b8 07 00
        E 56 b8 07 00
        E 56 b8 07 00
        E 56 b8 07 00
        E 56 b8 07 00
        E 56 b8 07 00
        E 56 b8 07 00
        E 56 b8 07 00
        E 56 b8 07 00
        E 56 b8 07 00
        E 56 b8 07 00
        E 56 b8 07 00
        E 56 b8 07 00
        E 56 b8 07 00
        E 24 b8 07 65
        E 24 b8 07 65
        E 24 b8 07 65
        E 24 b8 07 65
        E 24 b8 07 65
        E 24 b8 07 65
        E 24 b8 07 65
        E 24 b8 07 65
        E 24 b8 07 65
        E 24 b8 07 65
        E 24 b8 07 65
        E 24 b8 07 65
        E 24 b8 07 65
        E 24 b8 07 65
        E 24 b8 07 65
        E 24 b8 07 65
        E 24 b8 07 65
        E 24 b8 07 65
        E 24 b8 07 65
        E 24 b8 07 65
        E 24 b8 07 65
        E 24 b8 07 65
        E 24 b8 07 65
        E 24 b8 07 65
        E 24 b8 07 65
        E 24 b8 07 65
        E 24 b8 07 65
        E 24 b8 07 65
        E 24 b8 07 65
        E 24 b8 07 65
        E 24 b8 07 65
        E 24 b8 07 65
        E 24 b8 07 65
        E 24 b8 07 65
        E 24 b8 07 65
        E 24 b8 07 65
        E 24 b8 07 65
        E 24 b8 07 65
        E 24 b8 07 65
        E 24 b8 07 65
        E 24 b8 07 65
        E 24 b8 07 65
        E 24 b8 07 65
        E 24 b8 07 65
        E 24 b8 07 65
        E 24 b8 07 65
        E 24 b8 07 65
        E 24 b8 07 65
        E 24 b8 07 65
        E 24 b8 07 65
        E 24 b8 07 65
        E 24 b8 07 65
        E 24 b8 07 65
        E 24 b8 07 65
        E 24 b8 07 65
        E 24 b8 07 65
        E 24 b8 07 65
        E 24 b8 07 65
        E 24 b8 07 65
        E 24 b8 07 65
        E 24 b8 07 65
        E 24 b8 07 65
        E 24 b8 07 65
        E 24 b8 07 00
        E 24 b8 07 00
        E 24 b8 07 00
        E 24 b8 07 00
        E 24 b8 07 00
        E 24 b8 07 00
        E 24 b8 07 00
        E 24 b8 07 00
        E 24 b8 07 00
        E 24 b8 07 00
        E 24 b8 07 00
        E 24 b8 07 00
        E 24 b8 07 00
        E 24 b8 07 00
        E 24 b8 07 00
        E 24 b8 07 00
        E 24 b8 07 00
        E 24 b8 07 00
        E 24 b8 07 00
        E 24 b8 07 00
        E 24 b8 07 00
        E 24 b8 07 00
        E 24 b8 07 00
        E 24 b8 07 00
        E 24 b8 07 00
        E 24 b8 07 00
        E 24 b8 07 00
        E 24 b8 07 00
        E 24 b8 07 00
        E 24 b8 07 00
        E 24 b8 07 00
        E 24 b8 07 00
        E 24 b8 07 00
        E 24 b8 07 00
        E 24 b8 07 00
        E 24 b8 07 00
        E 24 b8 07 00
        E 24 b8 07 00
        E 24 b8 07 00
        E 24 b8 07 00
        E 24 b8 07 00
        E 24 b8 07 00
        E 24 b8 07 00
        E 24 b8 07 00
        E 24 b8 07 00
        E 24 b8 07 00
        E 24 b8 07 00
        E 24 b8 07 00
        E 24 b8 07 00
        E 24 b8 07 00
        E 24 b8 07 00
        E 24 b8 07 00
        E 24 b8 07 00
        E 24 b8 07 00
        E 24 b8 07 00
        E 24 b8 07 00
        E 24 b8 07 00
        E 24 b8 07 00
        E 24 b8 07 00
        E 24 b8 07 00
        E 24 b8 07 00
        E 24 b8 07 00
        E 24 b8 07 00
        E 24 b8 07 00
        E 48 b8 07 72
        E 48 b8 07 72
        E 48 b8 07 72
        E 48 b8 07 72
        E 48 b8 07 72
        E 48 b8 07 72
        E 48 b8 07 72
        E 48 b8 07 72
        E 48 b8 07 72
        E 48 b8 07 72
        E 48 b8 07 72
        E 48 b8 07 72
        E 48 b8 07 72
        E 48 b8 07 72
        E 48 b8 07 72
        E 48 b8 07 72
        E 48 b8 07 72
        E 48 b8 07 72
        E 48 b8 07 72
        E 48 b8 07 72
        E 48 b8 07 72
        E 48 b8 07 72
        E 48 b8 07 72
        E 48 b8 07 72
        E 48 b8 07 72
        E 48 b8 07 72
        E 48 b8 07 72
        E 48 b8 07 72
        E 48 b8 07 72
        E 48 b8 07 72
        E 48 b8 07 72
        E 48 b8 07 72
        E 48 b8 07 72
        E 48 b8 07 72
        E 48 b8 07 72
        E 48 b8 07 72
        E 48 b8 07 72
        E 48 b8 07 72
        E 48 b8 07 72
        E 48 b8 07 72
        E 48 b8 07 72
        E 48 b8 07 72
        E 48 b8 07 72
        E 48 b8 07 72
        E 48 b8 07 72
        E 48 b8 07 72
        E 48 b8 07 72
        E 48 b8 07 72
        E 48 b8 07 72
        E 48 b8 07 72
        E 48 b8 07 72
        E 48 b8 07 72
        E 48 b8 07 72
        E 48 b8 07 72
        E 48 b8 07 72
        E 48 b8 07 72
        E 48 b8 07 72
        E 48 b8 07 72
        E 48 b8 07 72
        E 48 b8 07 72
        E 48 b8 07 72
        E 48 b8 07 72
        E 48 b8 07 72
        E 48 b8 07 00
        E 48 b8 07 00
        E 48 b8 07 00
        E 48 b8 07 00
        E 48 b8 07 00
        E 48 b8 07 00
        E 48 b8 07 00
        E 48 b8 07 00
        E 48 b8 07 00
        E 48 b8 07 00
        E 48 b8 07 00
        E 48 b8 07 00
        E 48 b8 07 00
        E 48 b8 07 00
        E 48 b8 07 00
        E 48 b8 07 00
        E 48 b8 07 00
        E 48 b8 07 00
        E 48 b8 07 00
        E 48 b8 07 00
        E 48 b8 07 00
        E 48 b8 07 00
        E 48 b8 07 00
        E 48 b8 07 00
        E 48 b8 07 00
        E 48 b8 07 00
        E 48 b8 07 00
        E 48 b8 07 00
        E 48 b8 07 00
        E 48 b8 07 00
        E 48 b8 07 00
        E 48 b8 07 00
        E 48 b8 07 00
        E 48 b8 07 00
        E 48 b8 07 00
        E 48 b8 07 00
        E 48 b8 07 00
        E 48 b8 07 00
        E 48 b8 07 00
        E 48 b8 07 00
        E 48 b8 07 00
        E 48 b8 07 00
        E 48 b8 07 00
        E 48 b8 07 00
        E 48 b8 07 00
        E 48 b8 07 00
        E 48 b8 07 00
        E 48 b8 07 00
        E 48 b8 07 00
        E 48 b8 07 00
        E 48 b8 07 00
        E 48 b8 07 00
        E 48 b8 07 00
        E 48 b8 07 00
        E 48 b8 07 00
        E 48 b8 07 00
        E 48 b8 07 00
        E 48 b8 07 00
        E 48 b8 07 00
        E 48 b8 07 00
        E 48 b8 07 00
        E 48 b8 07 00
        E 48 b8 07 00
        E 48 b8 07 00
        E 72 b8 07 26
        E 72 b8 07 26
        E 72 b8 07 26
        E 72 b8 07 26
        E 72 b8 07 26
        E 72 b8 07 26
        E 72 b8 07 26
        E 72 b8 07 26
        E 72 b8 07 26
        E 72 b8 07 26
        E 72 b8 07 26
        E 72 b8 07 26
        E 72 b8 07 26
        E 72 b8 07 26
        E 72 b8 07 26
        E 72 b8 07 26
        E 72 b8 07 26
        E 72 b8 07 26
        E 72 b8 07 26
        E 72 b8 07 26
        E 72 b8 07 26
        E 72 b8 07 26
        E 72 b8 07 26
        E 72 b8 07 26
        E 72 b8 07 26
        E 72 b8 07 26
        E 72 b8 07 26
        E 72 b8 07 26
        E 72 b8 07 26
        E 72 b8 07 26
        E 72 b8 07 26
        E 72 b8 07 26
        E 72 b8 07 26
        E 72 b8 07 26
        E 72 b8 07 26
        E 72 b8 07 26
        E 72 b8 07 26
        E 72 b8 07 26
        E 72 b8 07 26
        E 72 b8 07 26
        E 72 b8 07 26
        E 72 b8 07 26
        E 72 b8 07 26
        E 72 b8 07 26
        E 72 b8 07 26
        E 72 b8 07 26
        E 72 b8 07 26
        E 72 b8 07 26
        E 72 b8 07 26
        E 72 b8 07 26
        E 72 b8 07 26
        E 72 b8 07 26
        E 72 b8 07 26
        E 72 b8 07 26
        E 72 b8 07 26
        E 72 b8 07 26
        E 72 b8 07 26
        E 72 b8 07 26
        E 72 b8 07 26
        E 72 b8 07 26
        E 72 b8 07 26
        E 72 b8 07 26
        E 72 b8 07 26
        E 72 b8 07 00
        E 72 b8 07 00
        E 72 b8 07 00
        E 72 b8 07 00
        E 72 b8 07 00
        E 72 b8 07 00
        E 72 b8 07 00
        E 72 b8 07 00
        E 72 b8 07 00
        E 72 b8 07 00
        E 72 b8 07 00
        E 72 b8 07 00
        E 72 b8 07 00
        E 72 b8 07 00
        E 72 b8 07 00
        E 72 b8 07 00
        E 72 b8 07 00
        E 72 b8 07 00
        E 72 b8 07 00
        E 72 b8 07 00
        E 72 b8 07 00
        E 72 b8 07 00
        E 72 b8 07 00
        E 72 b8 07 00
        E 72 b8 07 00
        E 72 b8 07 00
        E 72 b8 07 00
        E 72 b8 07 00
        E 72 b8 07 00
        E 72 b8 07 00
        E 72 b8 07 00
        E 72 b8 07 00
        E 72 b8 07 00
        E 72 b8 07 00
        E 72 b8 07 00
        E 72 b8 07 00
        E 72 b8 07 00
        E 72 b8 07 00
        E 72 b8 07 00
        E 72 b8 07 00
        E 72 b8 07 00
        E 72 b8 07 00
        E 72 b8 07 00
        E 72 b8 07 00
        E 72 b8 07 00
        E 72 b8 07 00
        E 72 b8 07 00
        E 72 b8 07 00
        E 72 b8 07 00
        E 72 b8 07 00
        E 72 b8 07 00
        E 72 b8 07 00
        E 72 b8 07 00
        E 72 b8 07 00
        E 72 b8 07 00
        E 72 b8 07 00
        E 72 b8 07 00
        E 72 b8 07 00
        E 72 b8 07 00
        E 72 b8 07 00
        E 72 b8 07 00
        E 72 b8 07 00
        E 72 b8 07 00
        E 72 b8 07 00
        E 32 b8 07 65
        E 32 b8 07 65
        E 32 b8 07 65
        E 32 b8 07 65
        E 32 b8 07 65
        E 32 b8 07 65
        E 32 b8 07 65
        E 32 b8 07 65
        E 32 b8 07 65
        E 32 b8 07 65
        E 32 b8 07 65
        E 32 b8 07 65
        E 32 b8 07 65
        E 32 b8 07 65
        E 32 b8 07 65
        E 32 b8 07 65
        E 32 b8 07 65
        E 32 b8 07 65
        E 32 b8 07 65
        E 32 b8 07 65
        E 32 b8 07 65
        E 32 b8 07 65
        E 32 b8 07 65
        E 32 b8 07 65
        E 32 b8 07 65
        E 32 b8 07 65
        E 32 b8 07 65
        E 32 b8 07 65
        E 32 b8 07 65
        E 32 b8 07 65
        E 32 b8 07 65
        E 32 b8 07 65
        E 32 b8 07 65
        E 32 b8 07 65
        E 32 b8 07 65
        E 32 b8 07 65
        E 32 b8 07 65
        E 32 b8 07 65
        E 32 b8 07 65
        E 32 b8 07 65
        E 32 b8 07 65
        E 32 b8 07 65
        E 32 b8 07 65
        E 32 b8 07 65
        E 32 b8 07 65
        E 32 b8 07 65
        E 32 b8 07 65
        E 32 b8 07 65
        E 32 b8 07 65
        E 32 b8 07 65
        E 32 b8 07 65
        E 32 b8 07 65
        E 32 b8 07 65
        E 32 b8 07 65
        E 32 b8 07 65
        E 32 b8 07 65
        E 32 b8 07 65
        E 32 b8 07 65
        E 32 b8 07 65
        E 32 b8 07 65
        E 32 b8 07 65
        E 32 b8 07 65
        E 32 b8 07 65
        E 32 b8 07 00
        E 32 b8 07 00
        E 32 b8 07 00
        E 32 b8 07 00
        E 32 b8 07 00
        E 32 b8 07 00
        E 32 b8 07 00
        E 32 b8 07 00
        E 32 b8 07 00
        E 32 b8 07 00
        E 32 b8 07 00
        E 32 b8 07 00
        E 32 b8 07 00
        E 32 b8 07 00
        E 32 b8 07 00
        E 32 b8 07 00
        E 32 b8 07 00
        E 32 b8 07 00
        E 32 b8 07 00
        E 32 b8 07 00
        E 32 b8 07 00
        E 32 b8 07 00
        E 32 b8 07 00
        E 32 b8 07 00
        E 32 b8 07 00
        E 32 b8 07 00
        E 32 b8 07 00
        E 32 b8 07 00
        E 32 b8 07 00
        E 32 b8 07 00
        E 32 b8 07 00
        E 32 b8 07 00
        E 32 b8 07 00
        E 32 b8 07 00
        E 32 b8 07 00
        E 32 b8 07 00
        E 32 b8 07 00
        E 32 b8 07 00
        E 32 b8 07 00
        E 32 b8 07 00
        E 32 b8 07 00
        E 32 b8 07 00
        E 32 b8 07 00
        E 32 b8 07 00
        E 32 b8 07 00
        E 32 b8 07 00
        E 32 b8 07 00
        E 32 b8 07 00
        E 32 b8 07 00
        E 32 b8 07 00
        E 32 b8 07 00
        E 32 b8 07 00
        E 32 b8 07 00
        E 32 b8 07 00
        E 32 b8 07 00
        E 32 b8 07 00
        E 32 b8 07 00
        E 32 b8 07 00
        E 32 b8 07 00
        E 32 b8 07 00
        E 32 b8 07 00
        E 32 b8 07 00
        E 32 b8 07 00
        E 32 b8 07 00
        E 8 b8 07 0c
        E 8 b8 07 0c
        E 8 b8 07 0c
        E 8 b8 07 0c
        E 8 b8 07 0c
        E 8 b8 07 0c
        E 8 b8 07 0c
        E 8 b8 07 0c
        E 8 b8 07 0c
        E 8 b8 07 0c
        E 8 b8 07 0c
        E 8 b8 07 0c
        E 8 b8 07 0c
        E 8 b8 07 0c
        E 8 b8 07 0c
        E 8 b8 07 0c
        E 8 b8 07 0c
        E 8 b8 07 0c
        E 8 b8 07 0c
        E 8 b8 07 0c
        E 8 b8 07 0c
        E 8 b8 07 0c
        E 8 b8 07 0c
        E 8 b8 07 0c
        E 8 b8 07 0c
        E 8 b8 07 0c
        E 8 b8 07 0c
        E 8 b8 07 0c
        E 8 b8 07 0c
        E 8 b8 07 0c
        E 8 b8 07 0c
        E 8 b8 07 0c
        E 8 b8 07 0c
        E 8 b8 07 0c
        E 8 b8 07 0c
        E 8 b8 07 0c
        E 8 b8 07 0c
        E 8 b8 07 0c
        E 8 b8 07 0c
        E 8 b8 07 0c
        E 8 b8 07 0c
        E 8 b8 07 0c
        E 8 b8 07 0c
        E 8 b8 07 0c
        E 8 b8 07 0c
        E 8 b8 07 0c
        E 8 b8 07 0c
        E 8 b8 07 0c
        E 8 b8 07 0c
        E 8 b8 07 0c
        E 8 b8 07 0c
        E 8 b8 07 0c
        E 8 b8 07 0c
        E 8 b8 07 0c
        E 8 b8 07 0c
        E 8 b8 07 0c
        E 8 b8 07 0c
        E 8 b8 07 0c
        E 8 b8 07 0c
        E 8 b8 07 0c
        E 8 b8 07 0c
        E 8 b8 07 0c
        E 8 b8 07 0c
        E 8 b8 07 00
        E 8 b8 07 00
        E 8 b8 07 00
        E 8 b8 07 00
        E 8 b8 07 00
        E 8 b8 07 00
        E 8 b8 07 00
        E 8 b8 07 00
        E 8 b8 07 00
        E 8 b8 07 00
        E 8 b8 07 00
        E 8 b8 07 00
        E 8 b8 07 00
        E 8 b8 07 00
        E 8 b8 07 00
        E 8 b8 07 00
        E 8 b8 07 00
        E 8 b8 07 00
        E 8 b8 07 00
        E 8 b8 07 00
        E 8 b8 07 00
        E 8 b8 07 00
        E 8 b8 07 00
        E 8 b8 07 00
        E 8 b8 07 00
        E 8 b8 07 00
        E 8 b8 07 00
        E 8 b8 07 00
        E 8 b8 07 00
        E 8 b8 07 00
        E 8 b8 07 00
        E 8 b8 07 00
        E 8 b8 07 00
        E 8 b8 07 00
        E 8 b8 07 00
        E 8 b8 07 00
        E 8 b8 07 00
        E 8 b8 07 00
        E 8 b8 07 00
        E 8 b8 07 00
        E 8 b8 07 00
        E 8 b8 07 00
        E 8 b8 07 00
        E 8 b8 07 00
        E 8 b8 07 00
        E 8 b8 07 00
        E 8 b8 07 00
        E 8 b8 07 00
        E 8 b8 07 00
        E 8 b8 07 00
        E 8 b8 07 00
        E 8 b8 07 00
        E 8 b8 07 00
        E 8 b8 07 00
        E 8 b8 07 00
        E 8 b8 07 00
        E 8 b8 07 00
        E 8 b8 07 00
        E 8 b8 07 00
        E 8 b8 07 00
        E 8 b8 07 00
        E 8 b8 07 00
        E 8 b8 07 00
        E 8 b8 07 00
        E 56 b8 07 72
        E 56 b8 07 72
        E 56 b8 07 72
        E 56 b8 07 72
        E 56 b8 07 72
        E 56 b8 07 72
        E 56 b8 07 72
        E 56 b8 07 72
        E 56 b8 07 72
        E 56 b8 07 72
        E 56 b8 07 72
        E 56 b8 07 72
        E 56 b8 07 72
        E 56 b8 07 72
        E 56 b8 07 72
        E 56 b8 07 72
        E 56 b8 07 72
        E 56 b8 07 72
        E 56 b8 07 72
        E 56 b8 07 72
        E 56 b8 07 72
        E 56 b8 07 72
        E 56 b8 07 72
        E 56 b8 07 72
        E 56 b8 07 72
        E 56 b8 07 72
        E 56 b8 07 72
        E 56 b8 07 72
        E 56 b8 07 72
        E 56 b8 07 72
        E 56 b8 07 72
        E 56 b8 07 72
        E 56 b8 07 72
        E 56 b8 07 72
        E 56 b8 07 72
        E 56 b8 07 72
        E 56 b8 07 72
        E 56 b8 07 72
        E 56 b8 07 72
        E 56 b8 07 72
        E 56 b8 07 72
        E 56 b8 07 72
        E 56 b8 07 72
        E 56 b8 07 72
        E 56 b8 07 72
        E 56 b8 07 72
        E 56 b8 07 72
        E 56 b8 07 72
        E 56 b8 07 72
        E 56 b8 07 72
        E 56 b8 07 72
        E 56 b8 07 72
        E 56 b8 07 72
        E 56 b8 07 72
        E 56 b8 07 72
        E 56 b8 07 72
        E 56 b8 07 72
        E 56 b8 07 72
        E 56 b8 07 72
        E 56 b8 07 72
        E 56 b8 07 72
        E 56 b8 07 72
        E 56 b8 07 72
        E 56 b8 07 00
        E 56 b8 07 00
        E 56 b8 07 00
        E 56 b8 07 00
        E 56 b8 07 00
        E 56 b8 07 00
        E 56 b8 07 00
        E 56 b8 07 00
        E 56 b8 07 00
        E 56 b8 07 00
        E 56 b8 07 00
        E 56 b8 07 00
        E 56 b8 07 00
        E 56 b8 07 00
        E 56 b8 07 00
        E 56 b8 07 00
        E 56 b8 07 00
        E 56 b8 07 00
        E 56 b8 07 00
        E 56 b8 07 00
        E 56 b8 07 00
        E 56 b8 07 00
        E 56 b8 07 00
        E 56 b8 07 00
        E 56 b8 07 00
        E 56 b8 07 00
        E 56 b8 07 00
        E 56 b8 07 00
        E 56 b8 07 00
        E 56 b8 07 00
        E 56 b8 07 00
        E 56 b8 07 00
        E 56 b8 07 00
        E 56 b8 07 00
        E 56 b8 07 00
        E 56 b8 07 00
        E 56 b8 07 00
        E 56 b8 07 00
        E 56 b8 07 00
        E 56 b8 07 00
        E 56 b8 07 00
        E 56 b8 07 00
        E 56 b8 07 00
        E 56 b8 07 00
        E 56 b8 07 00
        E 56 b8 07 00
        E 56 b8 07 00
        E 56 b8 07 00
        E 56 b8 07 00
        E 56 b8 07 00
        E 56 b8 07 00
        E 56 b8 07 00
        E 56 b8 07 00
        E 56 b8 07 00
        E 56 b8 07 00
        E 56 b8 07 00
        E 56 b8 07 00
        E 56 b8 07 00
        E 56 b8 07 00
        E 56 b8 07 00
        E 56 b8 07 00
        E 56 b8 07 00
        E 56 b8 07 00
        E 56 b8 07 00
        E 24 b8 07 65
        E 24 b8 07 65
        E 24 b8 07 65
        E 24 b8 07 65
        E 24 b8 07 65
        E 24 b8 07 65
        E 24 b8 07 65
        E 24 b8 07 65
        E 24 b8 07 65
        E 24 b8 07 65
        E 24 b8 07 65
        E 24 b8 07 65
        E 24 b8 07 65
        E 24 b8 07 65
        E 24 b8 07 65
        E 24 b8 07 65
        E 24 b8 07 65
        E 24 b8 07 65
        E 24 b8 07 65
        E 24 b8 07 65
        E 24 b8 07 65
        E 24 b8 07 65
        E 24 b8 07 65
        E 24 b8 07 65
        E 24 b8 07 65
        E 24 b8 07 65
        E 24 b8 07 65
        E 24 b8 07 65
        E 24 b8 07 65
        E 24 b8 07 65
        E 24 b8 07 65
        E 24 b8 07 65
        E 24 b8 07 65
        E 24 b8 07 65
        E 24 b8 07 65
        E 24 b8 07 65
        E 24 b8 07 65
        E 24 b8 07 65
        E 24 b8 07 65
        E 24 b8 07 65
        E 24 b8 07 65
        E 24 b8 07 65
        E 24 b8 07 65
        E 24 b8 07 65
        E 24 b8 07 65
        E 24 b8 07 65
        E 24 b8 07 65
        E 24 b8 07 65
        E 24 b8 07 65
        E 24 b8 07 65
        E 24 b8 07 65
        E 24 b8 07 65
        E 24 b8 07 65
        E 24 b8 07 65
        E 24 b8 07 65
        E 24 b8 07 65
        E 24 b8 07 65
        E 24 b8 07 65
        E 24 b8 07 65
        E 24 b8 07 65
        E 24 b8 07 65
        E 24 b8 07 65
        E 24 b8 07 65
        E 24 b8 07 00
        E 24 b8 07 00
        E 24 b8 07 00
        E 24 b8 07 00
        E 24 b8 07 00
        E 24 b8 07 00
        E 24 b8 07 00
        E 24 b8 07 00
        E 24 b8 07 00
        E 24 b8 07 00
        E 24 b8 07 00
        E 24 b8 07 00
        E 24 b8 07 00
        E 24 b8 07 00
        E 24 b8 07 00
        E 24 b8 07 00
        E 24 b8 07 00
        E 24 b8 07 00
        E 24 b8 07 00
        E 24 b8 07 00
        E 24 b8 07 00
        E 24 b8 07 00
        E 24 b8 07 00
        E 24 b8 07 00
        E 24 b8 07 00
        E 24 b8 07 00
        E 24 b8 07 00
        E 24 b8 07 00
        E 24 b8 07 00
        E 24 b8 07 00
        E 24 b8 07 00
        E 24 b8 07 00
        E 24 b8 07 00
        E 24 b8 07 00
        E 24 b8 07 00
        E 24 b8 07 00
        E 24 b8 07 00
        E 24 b8 07 00
        E 24 b8 07 00
        E 24 b8 07 00
        E 24 b8 07 00
        E 24 b8 07 00
        E 24 b8 07 00
        E 24 b8 07 00
        E 24 b8 07 00
        E 24 b8 07 00
        E 24 b8 07 00
        E 24 b8 07 00
        E 24 b8 07 00
        E 24 b8 07 00
        E 24 b8 07 00
        E 24 b8 07 00
        E 24 b8 07 00
        E 24 b8 07 00
        E 24 b8 07 00
        E 24 b8 07 00
        E 24 b8 07 00
        E 24 b8 07 00
        E 24 b8 07 00
        E 24 b8 07 00
        E 24 b8 07 00
        E 24 b8 07 00
        E 24 b8 07 00
        E 24 b8 07 00
        E 48 b8 07 72
        E 48 b8 07 72
        E 48 b8 07 72
        E 48 b8 07 72
        E 48 b8 07 72
        E 48 b8 07 72
        E 48 b8 07 72
        E 48 b8 07 72
        E 48 b8 07 72
        E 48 b8 07 72
        E 48 b8 07 72
        E 48 b8 07 72
        E 48 b8 07 72
        E 48 b8 07 72
        E 48 b8 07 72
        E 48 b8 07 72
        E 48 b8 07 72
        E 48 b8 07 72
        E 48 b8 07 72
        E 48 b8 07 72
        E 48 b8 07 72
        E 48 b8 07 72
        E 48 b8 07 72
        E 48 b8 07 72
        E 48 b8 07 72
        E 48 b8 07 72
        E 48 b8 07 72
        E 48 b8 07 72
        E 48 b8 07 72
        E 48 b8 07 72
        E 48 b8 07 72
        E 48 b8 07 72
        E 48 b8 07 72
        E 48 b8 07 72
        E 48 b8 07 72
        E 48 b8 07 72
        E 48 b8 07 72
        E 48 b8 07 72
        E 48 b8 07 72
        E 48 b8 07 72
        E 48 b8 07 72
        E 48 b8 07 72
        E 48 b8 07 72
        E 48 b8 07 72
        E 48 b8 07 72
        E 48 b8 07 72
        E 48 b8 07 72
        E 48 b8 07 72
        E 48 b8 07 72
        E 48 b8 07 72
        E 48 b8 07 72
        E 48 b8 07 72
        E 48 b8 07 72
        E 48 b8 07 72
        E 48 b8 07 72
        E 48 b8 07 72
        E 48 b8 07 72
        E 48 b8 07 72
        E 48 b8 07 72
        E 48 b8 07 72
        E 48 b8 07 72
        E 48 b8 07 72
        E 48 b8 07 72
        E 48 b8 07 00
        E 48 b8 07 00
        E 48 b8 07 00
        E 48 b8 07 00
        E 48 b8 07 00
        E 48 b8 07 00
        E 48 b8 07 00
        E 48 b8 07 00
        E 48 b8 07 00
        E 48 b8 07 00
        E 48 b8 07 00
        E 48 b8 07 00
        E 48 b8 07 00
        E 48 b8 07 00
        E 48 b8 07 00
        E 48 b8 07 00
        E 48 b8 07 00
        E 48 b8 07 00
        E 48 b8 07 00
        E 48 b8 07 00
        E 48 b8 07 00
        E 48 b8 07 00
        E 48 b8 07 00
        E 48 b8 07 00
        E 48 b8 07 00
        E 48 b8 07 00
        E 48 b8 07 00
        E 48 b8 07 00
        E 48 b8 07 00
        E 48 b8 07 00
        E 48 b8 07 00
        E 48 b8 07 00
        E 48 b8 07 00
        E 48 b8 07 00
        E 48 b8 07 00
        E 48 b8 07 00
        E 48 b8 07 00
        E 48 b8 07 00
        E 48 b8 07 00
        E 48 b8 07 00
        E 48 b8 07 00
        E 48 b8 07 00
        E 48 b8 07 00
        E 48 b8 07 00
        E 48 b8 07 00
        E 48 b8 07 00
        E 48 b8 07 00
        E 48 b8 07 00
        E 48 b8 07 00
        E 48 b8 07 00
        E 48 b8 07 00
        E 48 b8 07 00
        E 48 b8 07 00
        E 48 b8 07 00
        E 48 b8 07 00
        E 48 b8 07 00
        E 48 b8 07 00
        E 48 b8 07 00
        E 48 b8 07 00
        E 48 b8 07 00
        E 48 b8 07 00
        E 48 b8 07 00
        E 48 b8 07 00
        E 48 b8 07 00
        E 72 b8 07 26
        E 72 b8 07 26
        E 72 b8 07 26
        E 72 b8 07 26
        E 72 b8 07 26
        E 72 b8 07 26
        E 72 b8 07 26
        E 72 b8 07 26
        E 72 b8 07 26
        E 72 b8 07 26
        E 72 b8 07 26
        E 72 b8 07 26
        E 72 b8 07 26
        E 72 b8 07 26
        E 72 b8 07 26
        E 72 b8 07 26
        E 72 b8 07 26
        E 72 b8 07 26
        E 72 b8 07 26
        E 72 b8 07 26
        E 72 b8 07 26
        E 72 b8 07 26
        E 72 b8 07 26
        E 72 b8 07 26
        E 72 b8 07 26
        E 72 b8 07 26
        E 72 b8 07 26
        E 72 b8 07 26
        E 72 b8 07 26
        E 72 b8 07 26
        E 72 b8 07 26
        E 72 b8 07 26
        E 72 b8 07 26
        E 72 b8 07 26
        E 72 b8 07 26
        E 72 b8 07 26
        E 72 b8 07 26
        E 72 b8 07 26
        E 72 b8 07 26
        E 72 b8 07 26
        E 72 b8 07 26
        E 72 b8 07 26
        E 72 b8 07 26
        E 72 b8 07 26
        E 72 b8 07 26
        E 72 b8 07 26
        E 72 b8 07 26
        E 72 b8 07 26
        E 72 b8 07 26
        E 72 b8 07 26
        E 72 b8 07 26
        E 72 b8 07 26
        E 72 b8 07 26
        E 72 b8 07 26
        E 72 b8 07 26
        E 72 b8 07 26
        E 72 b8 07 26
        E 72 b8 07 26
        E 72 b8 07 26
        E 72 b8 07 26
        E 72 b8 07 26
        E 72 b8 07 26
        E 72 b8 07 26
        E 72 b8 07 00
        E 72 b8 07 00
        E 72 b8 07 00
        E 72 b8 07 00
        E 72 b8 07 00
        E 72 b8 07 00
        E 72 b8 07 00
        E 72 b8 07 00
        E 72 b8 07 00
        E 72 b8 07 00
        E 72 b8 07 00
        E 72 b8 07 00
        E 72 b8 07 00
        E 72 b8 07 00
        E 72 b8 07 00
        E 72 b8 07 00
        E 72 b8 07 00
        E 72 b8 07 00
        E 72 b8 07 00
        E 72 b8 07 00
        E 72 b8 07 00
        E 72 b8 07 00
        E 72 b8 07 00
        E 72 b8 07 00
        E 72 b8 07 00
        E 72 b8 07 00
        E 72 b8 07 00
        E 72 b8 07 00
        E 72 b8 07 00
        E 72 b8 07 00
        E 72 b8 07 00
        E 72 b8 07 00
        E 72 b8 07 00
        E 72 b8 07 00
        E 72 b8 07 00
        E 72 b8 07 00
        E 72 b8 07 00
        E 72 b8 07 00
        E 72 b8 07 00
        E 72 b8 07 00
        E 72 b8 07 00
        E 72 b8 07 00
        E 72 b8 07 00
        E 72 b8 07 00
        E 72 b8 07 00
        E 72 b8 07 00
        E 72 b8 07 00
        E 72 b8 07 00
        E 72 b8 07 00
        E 72 b8 07 00
        E 72 b8 07 00
        E 72 b8 07 00
        E 72 b8 07 00
        E 72 b8 07 00
        E 72 b8 07 00
        E 72 b8 07 00
        E 72 b8 07 00
        E 72 b8 07 00
        E 72 b8 07 00
        E 72 b8 07 00
        E 72 b8 07 00
        E 72 b8 07 00
        E 72 b8 07 00
        E 72 b8 07 00
        E 32 b8 07 65
        E 32 b8 07 65
        E 32 b8 07 65
        E 32 b8 07 65
        E 32 b8 07 65
        E 32 b8 07 65
        E 32 b8 07 65
        E 32 b8 07 65
        E 32 b8 07 65
        E 32 b8 07 65
        E 32 b8 07 65
        E 32 b8 07 65
        E 32 b8 07 65
        E 32 b8 07 65
        E 32 b8 07 65
        E 32 b8 07 65
        E 32 b8 07 65
        E 32 b8 07 65
        E 32 b8 07 65
        E 32 b8 07 65
        E 32 b8 07 65
        E 32 b8 07 65
        E 32 b8 07 65
        E 32 b8 07 65
        E 32 b8 07 65
        E 32 b8 07 65
        E 32 b8 07 65
        E 32 b8 07 65
        E 32 b8 07 65
        E 32 b8 07 65
        E 32 b8 07 65
        E 32 b8 07 65
        E 32 b8 07 65
        E 32 b8 07 65
        E 32 b8 07 65
        E 32 b8 07 65
        E 32 b8 07 65
        E 32 b8 07 65
        E 32 b8 07 65
        E 32 b8 07 65
        E 32 b8 07 65
        E 32 b8 07 65
        E 32 b8 07 65
        E 32 b8 07 65
        E 32 b8 07 65
        E 32 b8 07 65
        E 32 b8 07 65
        E 32 b8 07 65
        E 32 b8 07 65
        E 32 b8 07 65
        E 32 b8 07 65
        E 32 b8 07 65
        E 32 b8 07 65
        E 32 b8 07 65
        E 32 b8 07 65
        E 32 b8 07 65
        E 32 b8 07 65
        E 32 b8 07 65
        E 32 b8 07 65
        E 32 b8 07 65
        E 32 b8 07 65
        E 32 b8 07 65
        E 32 b8 07 65
        E 32 b8 07 00
        E 32 b8 07 00
        E 32 b8 07 00
        E 32 b8 07 00
        E 32 b8 07 00
        E 32 b8 07 00
        E 32 b8 07 00
        E 32 b8 07 00
        E 32 b8 07 00
        E 32 b8 07 00
        E 32 b8 07 00
        E 32 b8 07 00
        E 32 b8 07 00
        E 32 b8 07 00
        E 32 b8 07 00
        E 32 b8 07 00
        E 32 b8 07 00
        E 32 b8 07 00
        E 32 b8 07 00
        E 32 b8 07 00
        E 32 b8 07 00
        E 32 b8 07 00
        E 32 b8 07 00
        E 32 b8 07 00
        E 32 b8 07 00
        E 32 b8 07 00
        E 32 b8 07 00
        E 32 b8 07 00
        E 32 b8 07 00
        E 32 b8 07 00
        E 32 b8 07 00
        E 32 b8 07 00
        E 32 b8 07 00
        E 32 b8 07 00
        E 32 b8 07 00
        E 32 b8 07 00
        E 32 b8 07 00
        E 32 b8 07 00
        E 32 b8 07 00
        E 32 b8 07 00
        E 32 b8 07 00
        E 32 b8 07 00
        E 32 b8 07 00
        E 32 b8 07 00
        E 32 b8 07 00
        E 32 b8 07 00
        E 32 b8 07 00
        E 32 b8 07 00
        E 32 b8 07 00
        E 32 b8 07 00
        E 32 b8 07 00
        E 32 b8 07 00
        E 32 b8 07 00
        E 32 b8 07 00
        E 32 b8 07 00
        E 32 b8 07 00
        E 32 b8 07 00
        E 32 b8 07 00
        E 32 b8 07 00
        E 32 b8 07 00
        E 32 b8 07 00
        E 32 b8 07 00
        E 32 b8 07 00
        E 32 b8 07 00
        E 8 b8 07 0c
        E 8 b8 07 0c
        E 8 b8 07 0c
        E 8 b8 07 0c
        E 8 b8 07 0c
        E 8 b8 07 0c
        E 8 b8 07 0c
        E 8 b8 07 0c
        E 8 b8 07 0c
        E 8 b8 07 0c
        E 8 b8 07 0c
        E 8 b8 07 0c
        E 8 b8 07 0c
        E 8 b8 07 0c
        E 8 b8 07 0c
        E 8 b8 07 0c
        E 8 b8 07 0c
        E 8 b8 07 0c
        E 8 b8 07 0c
        E 8 b8 07 0c
        E 8 b8 07 0c
        E 8 b8 07 0c
        E 8 b8 07 0c
        E 8 b8 07 0c
        E 8 b8 07 0c
        E 8 b8 07 0c
        E 8 b8 07 0c
        E 8 b8 07 0c
        E 8 b8 07 0c
        E 8 b8 07 0c
        E 8 b8 07 0c
        E 8 b8 07 0c
        E 8 b8 07 0c
        E 8 b8 07 0c
        E 8 b8 07 0c
        E 8 b8 07 0c
        E 8 b8 07 0c
        E 8 b8 07 0c
        E 8 b8 07 0c
        E 8 b8 07 0c
        E 8 b8 07 0c
        E 8 b8 07 0c
        E 8 b8 07 0c
        E 8 b8 07 0c
        E 8 b8 07 0c
        E 8 b8 07 0c
        E 8 b8 07 0c
        E 8 b8 07 0c
        E 8 b8 07 0c
        E 8 b8 07 0c
        E 8 b8 07 0c
        E 8 b8 07 0c
        E 8 b8 07 0c
        E 8 b8 07 0c
        E 8 b8 07 0c
        E 8 b8 07 0c
        E 8 b8 07 0c
        E 8 b8 07 0c
        E 8 b8 07 0c
        E 8 b8 07 0c
        E 8 b8 07 0c
        E 8 b8 07 0c
        E 8 b8 07 0c
        E 8 b8 07 00
        E 8 b8 07 00
        E 8 b8 07 00
        E 8 b8 07 00
        E 8 b8 07 00
        E 8 b8 07 00
        E 8 b8 07 00
        E 8 b8 07 00
        E 8 b8 07 00
        E 8 b8 07 00
        E 8 b8 07 00
        E 8 b8 07 00
        E 8 b8 07 00
        E 8 b8 07 00
        E 8 b8 07 00
        E 8 b8 07 00
        E 8 b8 07 00
        E 8 b8 07 00
        E 8 b8 07 00
        E 8 b8 07 00
        E 8 b8 07 00
        E 8 b8 07 00
        E 8 b8 07 00
        E 8 b8 07 00
        E 8 b8 07 00
        E 8 b8 07 00
        E 8 b8 07 00
        E 8 b8 07 00
        E 8 b8 07 00
        E 8 b8 07 00
        E 8 b8 07 00
        E 8 b8 07 00
        E 8 b8 07 00
        E 8 b8 07 00
        E 8 b8 07 00
        E 8 b8 07 00
        E 8 b8 07 00
        E 8 b8 07 00
        E 8 b8 07 00
        E 8 b8 07 00
        E 8 b8 07 00
        E 8 b8 07 00
        E 8 b8 07 00
        E 8 b8 07 00
        E 8 b8 07 00
        E 8 b8 07 00
        E 8 b8 07 00
        E 8 b8 07 00
        E 8 b8 07 00
        E 8 b8 07 00
        E 8 b8 07 00
        E 8 b8 07 00
        E 8 b8 07 00
        E 8 b8 07 00
        E 8 b8 07 00
        E 8 b8 07 00
        E 8 b8 07 00
        E 8 b8 07 00
        E 8 b8 07 00
        E 8 b8 07 00
        E 8 b8 07 00
        E 8 b8 07 00
        E 8 b8 07 00
        E 8 b8 07 00
        E 56 b8 07 72
        E 56 b8 07 72
        E 56 b8 07 72
        E 56 b8 07 72
        E 56 b8 07 72
        E 56 b8 07 72
        E 56 b8 07 72
        E 56 b8 07 72
        E 56 b8 07 72
        E 56 b8 07 72
        E 56 b8 07 72
        E 56 b8 07 72
        E 56 b8 07 72
        E 56 b8 07 72
        E 56 b8 07 72
        E 56 b8 07 72
        E 56 b8 07 72
        E 56 b8 07 72
        E 56 b8 07 72
        E 56 b8 07 72
        E 56 b8 07 72
        E 56 b8 07 72
        E 56 b8 07 72
        E 56 b8 07 72
        E 56 b8 07 72
        E 56 b8 07 72
        E 56 b8 07 72
        E 56 b8 07 72
        E 56 b8 07 72
        E 56 b8 07 72
        E 56 b8 07 72
        E 56 b8 07 72
        E 56 b8 07 72
        E 56 b8 07 72
        E 56 b8 07 72
        E 56 b8 07 72
        E 56 b8 07 72
        E 56 b8 07 72
        E 56 b8 07 72
        E 56 b8 07 72
        E 56 b8 07 72
        E 56 b8 07 72
        E 56 b8 07 72
        E 56 b8 07 72
        E 56 b8 07 72
        E 56 b8 07 72
        E 56 b8 07 72
        E 56 b8 07 72
        E 56 b8 07 72
        E 56 b8 07 72
        E 56 b8 07 72
        E 56 b8 07 72
        E 56 b8 07 72
        E 56 b8 07 72
        E 56 b8 07 72
        E 56 b8 07 72
        E 56 b8 07 72
        E 56 b8 07 72
        E 56 b8 07 72
        E 56 b8 07 72
        E 56 b8 07 72
        E 56 b8 07 72
        E 56 b8 07 72
        E 56 b8 07 00
        E 56 b8 07 00
        E 56 b8 07 00
        E 56 b8 07 00
        E 56 b8 07 00
        E 56 b8 07 00
        E 56 b8 07 00
        E 56 b8 07 00
        E 56 b8 07 00
        E 56 b8 07 00
        E 56 b8 07 00
        E 56 b8 07 00
        E 56 b8 07 00
        E 56 b8 07 00
        E 56 b8 07 00
        E 56 b8 07 00
        E 56 b8 07 00
        E 56 b8 07 00
        E 56 b8 07 00
        E 56 b8 07 00
        E 56 b8 07 00
        E 56 b8 07 00
        E 56 b8 07 00
        E 56 b8 07 00
        E 56 b8 07 00
        E 56 b8 07 00
        E 56 b8 07 00
        E 56 b8 07 00
        E 56 b8 07 00
        E 56 b8 07 00
        E 56 b8 07 00
        E 56 b8 07 00
        E 56 b8 07 00
        E 56 b8 07 00
        E 56 b8 07 00
        E 56 b8 07 00
        E 56 b8 07 00
        E 56 b8 07 00
        E 56 b8 07 00
        E 56 b8 07 00
        E 56 b8 07 00
        E 56 b8 07 00
        E 56 b8 07 00
        E 56 b8 07 00
        E 56 b8 07 00
        E 56 b8 07 00
        E 56 b8 07 00
        E 56 b8 07 00
        E 56 b8 07 00
        E 56 b8 07 00
        E 56 b8 07 00
        E 56 b8 07 00
        E 56 b8 07 00
        E 56 b8 07 00
        E 56 b8 07 00
        E 56 b8 07 00
        E 56 b8 07 00
        E 56 b8 07 00
        E 56 b8 07 00
        E 56 b8 07 00
        E 56 b8 07 00
        E 56 b8 07 00
        E 56 b8 07 00
        E 56 b8 07 00
        E 24 b8 07 65
        E 24 b8 07 65
        E 24 b8 07 65
        E 24 b8 07 65
        E 24 b8 07 65
        E 24 b8 07 65
        E 24 b8 07 65
        E 24 b8 07 65
        E 24 b8 07 65
        E 24 b8 07 65
        E 24 b8 07 65
        E 24 b8 07 65
        E 24 b8 07 65
        E 24 b8 07 65
        E 24 b8 07 65
        E 24 b8 07 65
        E 24 b8 07 65
        E 24 b8 07 65
        E 24 b8 07 65
        E 24 b8 07 65
        E 24 b8 07 65
        E 24 b8 07 65
        E 24 b8 07 65
        E 24 b8 07 65
        E 24 b8 07 65
        E 24 b8 07 65
        E 24 b8 07 65
        E 24 b8 07 65
        E 24 b8 07 65
        E 24 b8 07 65
        E 24 b8 07 65
        E 24 b8 07 65
        E 24 b8 07 65
        E 24 b8 07 65
        E 24 b8 07 65
        E 24 b8 07 65
        E 24 b8 07 65
        E 24 b8 07 65
        E 24 b8 07 65
        E 24 b8 07 65
        E 24 b8 07 65
        E 24 b8 07 65
        E 24 b8 07 65
        E 24 b8 07 65
        E 24 b8 07 65
        E 24 b8 07 65
        E 24 b8 07 65
        E 24 b8 07 65
        E 24 b8 07 65
        E 24 b8 07 65
        E 24 b8 07 65
        E 24 b8 07 65
        E 24 b8 07 65
        E 24 b8 07 65
        E 24 b8 07 65
        E 24 b8 07 65
        E 24 b8 07 65
        E 24 b8 07 65
        E 24 b8 07 65
        E 24 b8 07 65
        E 24 b8 07 65
        E 24 b8 07 65
        E 24 b8 07 65
        E 24 b8 07 00
        E 24 b8 07 00
        E 24 b8 07 00
        E 24 b8 07 00
        E 24 b8 07 00
        E 24 b8 07 00
        E 24 b8 07 00
        E 24 b8 07 00
        E 24 b8 07 00
        E 24 b8 07 00
        E 24 b8 07 00
        E 24 b8 07 00
        E 24 b8 07 00
        E 24 b8 07 00
        E 24 b8 07 00
        E 24 b8 07 00
        E 24 b8 07 00
        E 24 b8 07 00
        E 24 b8 07 00
        E 24 b8 07 00
        E 24 b8 07 00
        E 24 b8 07 00
        E 24 b8 07 00
        E 24 b8 07 00
        E 24 b8 07 00
        E 24 b8 07 00
        E 24 b8 07 00
        E 24 b8 07 00
        E 24 b8 07 00
        E 24 b8 07 00
        E 24 b8 07 00
        E 24 b8 07 00
        E 24 b8 07 00
        E 24 b8 07 00
        E 24 b8 07 00
        E 24 b8 07 00
        E 24 b8 07 00
        E 24 b8 07 00
        E 24 b8 07 00
        E 24 b8 07 00
        E 24 b8 07 00
        E 24 b8 07 00
        E 24 b8 07 00
        E 24 b8 07 00
        E 24 b8 07 00
        E 24 b8 07 00
        E 24 b8 07 00
        E 24 b8 07 00
        E 24 b8 07 00
        E 24 b8 07 00
        E 24 b8 07 00
        E 24 b8 07 00
        E 24 b8 07 00
        E 24 b8 07 00
        E 24 b8 07 00
        E 24 b8 07 00
        E 24 b8 07 00
        E 24 b8 07 00
        E 24 b8 07 00
        E 24 b8 07 00
        E 24 b8 07 00
        E 24 b8 07 00
        E 24 b8 07 00
        E 24 b8 07 00
        E 48 b8 07 72
        E 48 b8 07 72
        E 48 b8 07 72
        E 48 b8 07 72
        E 48 b8 07 72
        E 48 b8 07 72
        E 48 b8 07 72
        E 48 b8 07 72
        E 48 b8 07 72
        E 48 b8 07 72
        E 48 b8 07 72
        E 48 b8 07 72
        E 48 b8 07 72
        E 48 b8 07 72
        E 48 b8 07 72
        E 48 b8 07 72
        E 48 b8 07 72
        E 48 b8 07 72
        E 48 b8 07 72
        E 48 b8 07 72
        E 48 b8 07 72
        E 48 b8 07 72
        E 48 b8 07 72
        E 48 b8 07 72
        E 48 b8 07 72
        E 48 b8 07 72
        E 48 b8 07 72
        E 48 b8 07 72
        E 48 b8 07 72
        E 48 b8 07 72
        E 48 b8 07 72
        E 48 b8 07 72
        E 48 b8 07 72
        E 48 b8 07 72
        E 48 b8 07 72
        E 48 b8 07 72
        E 48 b8 07 72
        E 48 b8 07 72
        E 48 b8 07 72
        E 48 b8 07 72
        E 48 b8 07 72
        E 48 b8 07 72
        E 48 b8 07 72
        E 48 b8 07 72
        E 48 b8 07 72
        E 48 b8 07 72
        E 48 b8 07 72
        E 48 b8 07 72
        E 48 b8 07 72
        E 48 b8 07 72
        E 48 b8 07 72
        E 48 b8 07 72
        E 48 b8 07 72
        E 48 b8 07 72
        E 48 b8 07 72
        E 48 b8 07 72
        E 48 b8 07 72
        E 48 b8 07 72
        E 48 b8 07 72
        E 48 b8 07 72
        E 48 b8 07 72
        E 48 b8 07 72
        E 48 b8 07 72
        E 48 b8 07 00
        E 48 b8 07 00
        E 48 b8 07 00
        E 48 b8 07 00
        E 48 b8 07 00
        E 48 b8 07 00
        E 48 b8 07 00
        E 48 b8 07 00
        E 48 b8 07 00
        E 48 b8 07 00
        E 48 b8 07 00
        E 48 b8 07 00
        E 48 b8 07 00
        E 48 b8 07 00
        E 48 b8 07 00
        E 48 b8 07 00
        E 48 b8 07 00
        E 48 b8 07 00
        E 48 b8 07 00
        E 48 b8 07 00
        E 48 b8 07 00
        E 48 b8 07 00
        E 48 b8 07 00
        E 48 b8 07 00
        E 48 b8 07 00
        E 48 b8 07 00
        E 48 b8 07 00
        E 48 b8 07 00
        E 48 b8 07 00
        E 48 b8 07 00
        E 48 b8 07 00
        E 48 b8 07 00
        E 48 b8 07 00
        E 48 b8 07 00
        E 48 b8 07 00
        E 48 b8 07 00
        E 48 b8 07 00
        E 48 b8 07 00
        E 48 b8 07 00
        E 48 b8 07 00
        E 48 b8 07 00
        E 48 b8 07 00
        E 48 b8 07 00
        E 48 b8 07 00
        E 48 b8 07 00
        E 48 b8 07 00
        E 48 b8 07 00
        E 48 b8 07 00
        E 48 b8 07 00
        E 48 b8 07 00
        E 48 b8 07 00
        E 48 b8 07 00
        E 48 b8 07 00
        E 48 b8 07 00
        E 48 b8 07 00
        E 48 b8 07 00
        E 48 b8 07 00
        E 48 b8 07 00
        E 48 b8 07 00
        E 48 b8 07 00
        E 48 b8 07 00
        E 48 b8 07 00
        E 48 b8 07 00
        E 48 b8 07 00
        E 72 b8 07 26
        E 72 b8 07 26
        E 72 b8 07 26
        E 72 b8 07 26
        E 72 b8 07 26
        E 72 b8 07 26
        E 72 b8 07 26
        E 72 b8 07 26
        E 72 b8 07 26
        E 72 b8 07 26
        E 72 b8 07 26
        E 72 b8 07 26
        E 72 b8 07 26
        E 72 b8 07 26
        E 72 b8 07 26
        E 72 b8 07 26
        E 72 b8 07 26
        E 72 b8 07 26
        E 72 b8 07 26
        E 72 b8 07 26
        E 72 b8 07 26
        E 72 b8 07 26
        E 72 b8 07 26
        E 72 b8 07 26
        E 72 b8 07 26
        E 72 b8 07 26
        E 72 b8 07 26
        E 72 b8 07 26
        E 72 b8 07 26
        E 72 b8 07 26
        E 72 b8 07 26
        E 72 b8 07 26
        E 72 b8 07 26
        E 72 b8 07 26
        E 72 b8 07 26
        E 72 b8 07 26
        E 72 b8 07 26
        E 72 b8 07 26
        E 72 b8 07 26
        E 72 b8 07 26
        E 72 b8 07 26
        E 72 b8 07 26
        E 72 b8 07 26
        E 72 b8 07 26
        E 72 b8 07 26
        E 72 b8 07 26
        E 72 b8 07 26
        E 72 b8 07 26
        E 72 b8 07 26
        E 72 b8 07 26
        E 72 b8 07 26
        E 72 b8 07 26
        E 72 b8 07 26
        E 72 b8 07 26
        E 72 b8 07 26
        E 72 b8 07 26
        E 72 b8 07 26
        E 72 b8 07 26
        E 72 b8 07 26
        E 72 b8 07 26
        E 72 b8 07 26
        E 72 b8 07 26
        E 72 b8 07 26
        E 72 b8 07 00
        E 72 b8 07 00
        E 72 b8 07 00
        E 72 b8 07 00
        E 72 b8 07 00
        E 72 b8 07 00
        E 72 b8 07 00
        E 72 b8 07 00
        E 72 b8 07 00
        E 72 b8 07 00
        E 72 b8 07 00
        E 72 b8 07 00
        E 72 b8 07 00
        E 72 b8 07 00
        E 72 b8 07 00
        E 72 b8 07 00
        E 72 b8 07 00
        E 72 b8 07 00
        E 72 b8 07 00
        E 72 b8 07 00
        E 72 b8 07 00
        E 72 b8 07 00
        E 72 b8 07 00
        E 72 b8 07 00
        E 72 b8 07 00
        E 72 b8 07 00
        E 72 b8 07 00
        E 72 b8 07 00
        E 72 b8 07 00
        E 72 b8 07 00
        E 72 b8 07 00
        E 72 b8 07 00
        E 72 b8 07 00
        E 72 b8 07 00
        E 72 b8 07 00
        E 72 b8 07 00
        E 72 b8 07 00
        E 72 b8 07 00
        E 72 b8 07 00
        E 72 b8 07 00
        E 72 b8 07 00
        E 72 b8 07 00
        E 72 b8 07 00
        E 72 b8 07 00
        E 72 b8 07 00
        E 72 b8 07 00
        E 72 b8 07 00
        E 72 b8 07 00
        E 72 b8 07 00
        E 72 b8 07 00
        E 72 b8 07 00
        E 72 b8 07 00
        E 72 b8 07 00
        E 72 b8 07 00
        E 72 b8 07 00
        E 72 b8 07 00
        E 72 b8 07 00
        E 72 b8 07 00
        E 72 b8 07 00
        E 72 b8 07 00
        E 72 b8 07 00
        E 72 b8 07 00
        E 72 b8 07 00
        E 72 b8 07 00
        E 32 b8 07 65
        E 32 b8 07 65
        E 32 b8 07 65
        E 32 b8 07 65
        E 32 b8 07 65
        E 32 b8 07 65
        E 32 b8 07 65
        E 32 b8 07 65
        E 32 b8 07 65
        E 32 b8 07 65
        E 32 b8 07 65
        E 32 b8 07 65
        E 32 b8 07 65
        E 32 b8 07 65
        E 32 b8 07 65
        E 32 b8 07 65
        E 32 b8 07 65
        E 32 b8 07 65
        E 32 b8 07 65
        E 32 b8 07 65
        E 32 b8 07 65
        E 32 b8 07 65
        E 32 b8 07 65
        E 32 b8 07 65
        E 32 b8 07 65
        E 32 b8 07 65
        E 32 b8 07 65
        E 32 b8 07 65
        E 32 b8 07 65
        E 32 b8 07 65
        E 32 b8 07 65
        E 32 b8 07 65
        E 32 b8 07 65
        E 32 b8 07 65
        E 32 b8 07 65
        E 32 b8 07 65
        E 32 b8 07 65
        E 32 b8 07 65
        E 32 b8 07 65
        E 32 b8 07 65
        E 32 b8 07 65
        E 32 b8 07 65
        E 32 b8 07 65
        E 32 b8 07 65
        E 32 b8 07 65
        E 32 b8 07 65
        E 32 b8 07 65
        E 32 b8 07 65
        E 32 b8 07 65
        E 32 b8 07 65
        E 32 b8 07 65
        E 32 b8 07 65
        E 32 b8 07 65
        E 32 b8 07 65
        E 32 b8 07 65
        E 32 b8 07 65
        E 32 b8 07 65
        E 32 b8 07 65
        E 32 b8 07 65
        E 32 b8 07 65
        E 32 b8 07 65
        E 32 b8 07 65
        E 32 b8 07 65
        E 32 b8 07 00
        E 32 b8 07 00
        E 32 b8 07 00
        E 32 b8 07 00
        E 32 b8 07 00
        E 32 b8 07 00
        E 32 b8 07 00
        E 32 b8 07 00
        E 32 b8 07 00
        E 32 b8 07 00
        E 32 b8 07 00
        E 32 b8 07 00
        E 32 b8 07 00
        E 32 b8 07 00
        E 32 b8 07 00
        E 32 b8 07 00
        E 32 b8 07 00
        E 32 b8 07 00
        E 32 b8 07 00
        E 32 b8 07 00
        E 32 b8 07 00
        E 32 b8 07 00
        E 32 b8 07 00
        E 32 b8 07 00
        E 32 b8 07 00
        E 32 b8 07 00
        E 32 b8 07 00
        E 32 b8 07 00
        E 32 b8 07 00
        E 32 b8 07 00
        E 32 b8 07 00
        E 32 b8 07 00
        E 32 b8 07 00
        E 32 b8 07 00
        E 32 b8 07 00
        E 32 b8 07 00
        E 32 b8 07 00
        E 32 b8 07 00
        E 32 b8 07 00
        E 32 b8 07 00
        E 32 b8 07 00
        E 32 b8 07 00
        E 32 b8 07 00
        E 32 b8 07 00
        E 32 b8 07 00
        E 32 b8 07 00
        E 32 b8 07 00
        E 32 b8 07 00
        E 32 b8 07 00
        E 32 b8 07 00
        E 32 b8 07 00
        E 32 b8 07 00
        E 32 b8 07 00
        E 32 b8 07 00
        E 32 b8 07 00
        E 32 b8 07 00
        E 32 b8 07 00
        E 32 b8 07 00
        E 32 b8 07 00
        E 32 b8 07 00
        E 32 b8 07 00
        E 32 b8 07 00
        E 32 b8 07 00
        E 32 b8 07 00
        E 8 b8 07 0c
        E 8 b8 07 0c
        E 8 b8 07 0c
        E 8 b8 07 0c
        E 8 b8 07 0c
        E 8 b8 07 0c
        E 8 b8 07 0c
        E 8 b8 07 0c
        E 8 b8 07 0c
        E 8 b8 07 0c
        E 8 b8 07 0c
        E 8 b8 07 0c
        E 8 b8 07 0c
        E 8 b8 07 0c
        E 8 b8 07 0c
        E 8 b8 07 0c
        E 8 b8 07 0c
        E 8 b8 07 0c
        E 8 b8 07 0c
        E 8 b8 07 0c
        E 8 b8 07 0c
        E 8 b8 07 0c
        E 8 b8 07 0c
        E 8 b8 07 0c
        E 8 b8 07 0c
        E 8 b8 07 0c
        E 8 b8 07 0c
        E 8 b8 07 0c
        E 8 b8 07 0c
        E 8 b8 07 0c
        E 8 b8 07 0c
        E 8 b8 07 0c
        E 8 b8 07 0c
        E 8 b8 07 0c
        E 8 b8 07 0c
        E 8 b8 07 0c
        E 8 b8 07 0c
        E 8 b8 07 0c
        E 8 b8 07 0c
        E 8 b8 07 0c
        E 8 b8 07 0c
        E 8 b8 07 0c
        E 8 b8 07 0c
        E 8 b8 07 0c
        E 8 b8 07 0c
        E 8 b8 07 0c
        E 8 b8 07 0c
        E 8 b8 07 0c
        E 8 b8 07 0c
        E 8 b8 07 0c
        E 8 b8 07 0c
        E 8 b8 07 0c
        E 8 b8 07 0c
        E 8 b8 07 0c
        E 8 b8 07 0c
        E 8 b8 07 0c
        E 8 b8 07 0c
        E 8 b8 07 0c
        E 8 b8 07 0c
        E 8 b8 07 0c
        E 8 b8 07 0c
        E 8 b8 07 0c
        E 8 b8 07 0c
        E 8 b8 07 00
        E 8 b8 07 00
        E 8 b8 07 00
        E 8 b8 07 00
        E 8 b8 07 00
        E 8 b8 07 00
        E 8 b8 07 00
        E 8 b8 07 00
        E 8 b8 07 00
        E 8 b8 07 00
        E 8 b8 07 00
        E 8 b8 07 00
        E 8 b8 07 00
        E 8 b8 07 00
        E 8 b8 07 00
        E 8 b8 07 00
        E 8 b8 07 00
        E 8 b8 07 00
        E 8 b8 07 00
        E 8 b8 07 00
        E 8 b8 07 00
        E 8 b8 07 00
        E 8 b8 07 00
        E 8 b8 07 00
        E 8 b8 07 00
        E 8 b8 07 00
        E 8 b8 07 00
        E 8 b8 07 00
        E 8 b8 07 00
        E 8 b8 07 00
        E 8 b8 07 00
        E 8 b8 07 00
        E 8 b8 07 00
        E 8 b8 07 00
        E 8 b8 07 00
        E 8 b8 07 00
        E 8 b8 07 00
        E 8 b8 07 00
        E 8 b8 07 00
        E 8 b8 07 00
        E 8 b8 07 00
        E 8 b8 07 00
        E 8 b8 07 00
        E 8 b8 07 00
        E 8 b8 07 00
        E 8 b8 07 00
        E 8 b8 07 00
        E 8 b8 07 00
        E 8 b8 07 00
        E 8 b8 07 00
        E 8 b8 07 00
        E 8 b8 07 00
        E 8 b8 07 00
        E 8 b8 07 00
        E 8 b8 07 00
        E 8 b8 07 00
        E 8 b8 07 00
        E 8 b8 07 00
        E 8 b8 07 00
        E 8 b8 07 00
        E 8 b8 07 00
        E 8 b8 07 00
        E 8 b8 07 00
        E 8 b8 07 00
        E 38 b8 07 39
        E 38 b8 07 3c
        E 38 b8 07 3f
        E 38 b8 07 41
        E 38 b8 07 44
        E 38 b8 07 47
        E 38 b8 07 49
        E 38 b8 07 4c
        E 38 b8 07 4f
        E 38 b8 07 51
        E 38 b8 07 54
        E 38 b8 07 56
        E 38 b8 07 59
        E 38 b8 07 5b
        E 38 b8 07 5d
        E 38 b8 07 5f
        E 38 b8 07 62
        E 38 b8 07 63
        E 38 b8 07 65
        E 38 b8 07 67
        E 38 b8 07 69
        E 38 b8 07 6a
        E 38 b8 07 6c
        E 38 b8 07 6c
        E 38 b8 07 6d
        E 38 b8 07 6e
        E 38 b8 07 6f
        E 38 b8 07 70
        E 38 b8 07 71
        E 38 b8 07 71
        E 38 b8 07 72
        E 38 b8 07 72
        E 38 b8 07 72
        E 38 b8 07 72
        E 38 b8 07 72
        E 38 b8 07 71
        E 38 b8 07 71
        E 38 b8 07 70
        E 38 b8 07 6f
        E 38 b8 07 6e
        E 38 b8 07 6d
        E 38 b8 07 6c
        E 38 b8 07 6b
        E 38 b8 07 69
        E 38 b8 07 68
        E 38 b8 07 66
        E 38 b8 07 64
        E 38 b8 07 63
        E 38 b8 07 61
        E 38 b8 07 5e
        E 38 b8 07 5c
        E 38 b8 07 5a
        E 38 b8 07 58
        E 38 b8 07 55
        E 38 b8 07 52
        E 38 b8 07 50
        E 38 b8 07 4e
        E 38 b8 07 4b
        E 38 b8 07 48
        E 38 b8 07 46
        E 38 b8 07 42
        E 38 b8 07 3f
        E 38 b8 07 3d
        E 38 b8 07 3a
        E 38 b8 07 37
        E 38 b8 07 35
        E 38 b8 07 32
        E 38 b8 07 2f
        E 38 b8 07 2c
        E 38 b8 07 29
        E 38 b8 07 26
        E 38 b8 07 24
        E 38 b8 07 22
        E 38 b8 07 1f
        E 38 b8 07 1c
        E 38 b8 07 1a
        E 38 b8 07 18
        E 38 b8 07 15
        E 38 b8 07 13
        E 38 b8 07 11
        E 38 b8 07 0f
        E 38 b8 07 0d
        E 38 b8 07 0b
        E 38 b8 07 09
        E 38 b8 07 09
        E 38 b8 07 07
        E 38 b8 07 06
        E 38 b8 07 04
        E 38 b8 07 03
        E 38 b8 07 02
        E 38 b8 07 01
        E 38 b8 07 00
        E 38 b8 07 00
        E 38 b8 07 00
        E 38 b8 07 00
        E 38 b8 07 00
        E 38 b8 07 00
        E 38 b8 07 00
        E 38 b8 07 00
        E 38 b8 07 00
        E 38 b8 07 01
        E 38 b8 07 02
        E 38 b8 07 03
        E 38 b8 07 04
        E 38 b8 07 05
        E 38 b8 07 06
        E 38 b8 07 08
        E 38 b8 07 09
        E 38 b8 07 0a
        E 38 b8 07 0c
        E 38 b8 07 0e
        E 38 b8 07 10
        E 38 b8 07 12
        E 38 b8 07 14
        E 38 b8 07 16
        E 38 b8 07 19
        E 38 b8 07 1b
        E 38 b8 07 1d
        E 38 b8 07 20
        E 38 b8 07 23
        E 38 b8 07 25
        E 38 b8 07 28
        E 38 b8 07 2b
        E 38 b8 07 2d
        E 38 b8 07 30
        E 38 b8 07 33
        E 38 b8 07 36
        E 37 b8 07 39
        E 1 b0 7b 00
        CCINTERP 32
        CHASE_CC_TAKEOFFS 1
        GUID {BAEBA226-B8A1-254F-A0DA-13E670D043D1}
        IGNTEMPO 0 120 4 4
        SRCCOLOR 77
        VELLANE 3 601 0
        VELLANE -1 196 0
      >
    >
  >
  <TRACK {069665DF-62F2-1F45-8A61-7EB86336D2B8}
    NAME "cannabis-infused gummies"
    PEAKCOL 16576
    BEAT -1
    AUTOMODE 0
    VOLPAN 1 0 -1 -1 1
    MUTESOLO 0 0 0
    IPHASE 0
    PLAYOFFS 0 1
    ISBUS 0 0
    BUSCOMP 0 0 0 0 0
    SHOWINMIX 1 0.6667 0.5 1 0.5 0 -1 0
    FREEMODE 0
    SEL 0
    REC 0 0 1 0 0 0 0
    VU 2
    TRACKHEIGHT 0 0 0 0 -1 0
    INQ 0 0 0 0.5 100 0 0 100
    NCHAN 2
    FX 1
    TRACKID {069665DF-62F2-1F45-8A61-7EB86336D2B8}
    PERF 0
    MIDIOUT -1
    MAINSEND 1 0
    <ITEM
      POSITION 0
      SNAPOFFS 0
      LENGTH 2121.42546
      LOOP 1
      ALLTAKES 0
      FADEIN 1 0 0 1 0 0
      FADEOUT 1 0 0 1 0 0
      MUTE 0 0
      SEL 0
      IGUID {DCBA8443-19F3-494C-9CD1-3A9C54A8E78E}
      IID 22
      NAME "cannabis-infused gummies.mid"
      VOLPAN 1 0 1 -1
      SOFFS 0 0
      PLAYRATE 1 1 0 -1 0 0.0025
      CHANMODE 0
      GUID {AFDBAD2C-DE92-0343-8066-9A522BE21426}
      <SOURCE MIDI
        HASDATA 1 128 QN
        CCINTERP 32
        POOLEDEVTS {7D1D9FB5-60B0-024D-AD14-8A929B4457F5}
        E 62 b9 08 72
        E 62 b9 08 72
        E 62 b9 08 72
        E 62 b9 08 72
        E 62 b9 08 72
        E 62 b9 08 72
        E 62 b9 08 72
        E 62 b9 08 72
        E 62 b9 08 72
        E 62 b9 08 72
        E 62 b9 08 72
        E 62 b9 08 72
        E 62 b9 08 72
        E 62 b9 08 72
        E 62 b9 08 72
        E 62 b9 08 72
        E 62 b9 08 72
        E 62 b9 08 72
        E 62 b9 08 72
        E 62 b9 08 72
        E 62 b9 08 72
        E 62 b9 08 72
        E 62 b9 08 72
        E 62 b9 08 72
        E 62 b9 08 72
        E 62 b9 08 72
        E 62 b9 08 72
        E 62 b9 08 72
        E 62 b9 08 72
        E 62 b9 08 72
        E 62 b9 08 72
        E 62 b9 08 72
        E 62 b9 08 72
        E 62 b9 08 72
        E 62 b9 08 72
        E 62 b9 08 72
        E 62 b9 08 72
        E 62 b9 08 72
        E 62 b9 08 72
        E 62 b9 08 72
        E 62 b9 08 72
        E 62 b9 08 72
        E 62 b9 08 72
        E 62 b9 08 72
        E 62 b9 08 72
        E 62 b9 08 72
        E 62 b9 08 72
        E 62 b9 08 72
        E 62 b9 08 72
        E 62 b9 08 72
        E 62 b9 08 72
        E 62 b9 08 72
        E 62 b9 08 72
        E 62 b9 08 72
        E 62 b9 08 72
        E 62 b9 08 72
        E 62 b9 08 72
        E 62 b9 08 72
        E 62 b9 08 72
        E 62 b9 08 72
        E 62 b9 08 72
        E 62 b9 08 72
        E 62 b9 08 72
        E 62 b9 08 00
        E 62 b9 08 00
        E 62 b9 08 00
        E 62 b9 08 00
        E 62 b9 08 00
        E 62 b9 08 00
        E 62 b9 08 00
        E 62 b9 08 00
        E 62 b9 08 00
        E 62 b9 08 00
        E 62 b9 08 00
        E 62 b9 08 00
        E 62 b9 08 00
        E 62 b9 08 00
        E 62 b9 08 00
        E 62 b9 08 00
        E 62 b9 08 00
        E 62 b9 08 00
        E 62 b9 08 00
        E 62 b9 08 00
        E 62 b9 08 00
        E 62 b9 08 00
        E 62 b9 08 00
        E 62 b9 08 00
        E 62 b9 08 00
        E 62 b9 08 00
        E 62 b9 08 00
        E 62 b9 08 00
        E 62 b9 08 00
        E 62 b9 08 00
        E 62 b9 08 00
        E 62 b9 08 00
        E 62 b9 08 00
        E 62 b9 08 00
        E 62 b9 08 00
        E 62 b9 08 00
        E 62 b9 08 00
        E 62 b9 08 00
        E 62 b9 08 00
        E 62 b9 08 00
        E 62 b9 08 00
        E 62 b9 08 00
        E 62 b9 08 00
        E 62 b9 08 00
        E 62 b9 08 00
        E 62 b9 08 00
        E 62 b9 08 00
        E 62 b9 08 00
        E 62 b9 08 00
        E 62 b9 08 00
        E 62 b9 08 00
        E 62 b9 08 00
        E 62 b9 08 00
        E 62 b9 08 00
        E 62 b9 08 00
        E 62 b9 08 00
        E 62 b9 08 00
        E 62 b9 08 00
        E 62 b9 08 00
        E 62 b9 08 00
        E 62 b9 08 00
        E 62 b9 08 00
        E 62 b9 08 00
        E 62 b9 08 00
        E 7 b9 08 32
        E 7 b9 08 32
        E 7 b9 08 32
        E 7 b9 08 32
        E 7 b9 08 32
        E 7 b9 08 32
        E 7 b9 08 32
        E 7 b9 08 32
        E 7 b9 08 32
        E 7 b9 08 32
        E 7 b9 08 32
        E 7 b9 08 32
        E 7 b9 08 32
        E 7 b9 08 32
        E 7 b9 08 32
        E 7 b9 08 32
        E 7 b9 08 32
        E 7 b9 08 32
        E 7 b9 08 32
        E 7 b9 08 32
        E 7 b9 08 32
        E 7 b9 08 32
        E 7 b9 08 32
        E 7 b9 08 32
        E 7 b9 08 32
        E 7 b9 08 32
        E 7 b9 08 32
        E 7 b9 08 32
        E 7 b9 08 32
        E 7 b9 08 32
        E 7 b9 08 32
        E 7 b9 08 32
        E 7 b9 08 32
        E 7 b9 08 32
        E 7 b9 08 32
        E 7 b9 08 32
        E 7 b9 08 32
        E 7 b9 08 32
        E 7 b9 08 32
        E 7 b9 08 32
        E 7 b9 08 32
        E 7 b9 08 32
        E 7 b9 08 32
        E 7 b9 08 32
        E 7 b9 08 32
        E 7 b9 08 32
        E 7 b9 08 32
        E 7 b9 08 32
        E 7 b9 08 32
        E 7 b9 08 32
        E 7 b9 08 32
        E 7 b9 08 32
        E 7 b9 08 32
        E 7 b9 08 32
        E 7 b9 08 32
        E 7 b9 08 32
        E 7 b9 08 32
        E 7 b9 08 32
        E 7 b9 08 32
        E 7 b9 08 32
        E 7 b9 08 32
        E 7 b9 08 32
        E 7 b9 08 32
        E 7 b9 08 00
        E 7 b9 08 00
        E 7 b9 08 00
        E 7 b9 08 00
        E 7 b9 08 00
        E 7 b9 08 00
        E 7 b9 08 00
        E 7 b9 08 00
        E 7 b9 08 00
        E 7 b9 08 00
        E 7 b9 08 00
        E 7 b9 08 00
        E 7 b9 08 00
        E 7 b9 08 00
        E 7 b9 08 00
        E 7 b9 08 00
        E 7 b9 08 00
        E 7 b9 08 00
        E 7 b9 08 00
        E 7 b9 08 00
        E 7 b9 08 00
        E 7 b9 08 00
        E 7 b9 08 00
        E 7 b9 08 00
        E 7 b9 08 00
        E 7 b9 08 00
        E 7 b9 08 00
        E 7 b9 08 00
        E 7 b9 08 00
        E 7 b9 08 00
        E 7 b9 08 00
        E 7 b9 08 00
        E 7 b9 08 00
        E 7 b9 08 00
        E 7 b9 08 00
        E 7 b9 08 00
        E 7 b9 08 00
        E 7 b9 08 00
        E 7 b9 08 00
        E 7 b9 08 00
        E 7 b9 08 00
        E 7 b9 08 00
        E 7 b9 08 00
        E 7 b9 08 00
        E 7 b9 08 00
        E 7 b9 08 00
        E 7 b9 08 00
        E 7 b9 08 00
        E 7 b9 08 00
        E 7 b9 08 00
        E 7 b9 08 00
        E 7 b9 08 00
        E 7 b9 08 00
        E 7 b9 08 00
        E 7 b9 08 00
        E 7 b9 08 00
        E 7 b9 08 00
        E 7 b9 08 00
        E 7 b9 08 00
        E 7 b9 08 00
        E 7 b9 08 00
        E 7 b9 08 00
        E 7 b9 08 00
        E 7 b9 08 00
        E 70 b9 08 0c
        E 70 b9 08 0c
        E 70 b9 08 0c
        E 70 b9 08 0c
        E 70 b9 08 0c
        E 70 b9 08 0c
        E 70 b9 08 0c
        E 70 b9 08 0c
        E 70 b9 08 0c
        E 70 b9 08 0c
        E 70 b9 08 0c
        E 70 b9 08 0c
        E 70 b9 08 0c
        E 70 b9 08 0c
        E 70 b9 08 0c
        E 70 b9 08 0c
        E 70 b9 08 0c
        E 70 b9 08 0c
        E 70 b9 08 0c
        E 70 b9 08 0c
        E 70 b9 08 0c
        E 70 b9 08 0c
        E 70 b9 08 0c
        E 70 b9 08 0c
        E 70 b9 08 0c
        E 70 b9 08 0c
        E 70 b9 08 0c
        E 70 b9 08 0c
        E 70 b9 08 0c
        E 70 b9 08 0c
        E 70 b9 08 0c
        E 70 b9 08 0c
        E 70 b9 08 0c
        E 70 b9 08 0c
        E 70 b9 08 0c
        E 70 b9 08 0c
        E 70 b9 08 0c
        E 70 b9 08 0c
        E 70 b9 08 0c
        E 70 b9 08 0c
        E 70 b9 08 0c
        E 70 b9 08 0c
        E 70 b9 08 0c
        E 70 b9 08 0c
        E 70 b9 08 0c
        E 70 b9 08 0c
        E 70 b9 08 0c
        E 70 b9 08 0c
        E 70 b9 08 0c
        E 70 b9 08 0c
        E 70 b9 08 0c
        E 70 b9 08 0c
        E 70 b9 08 0c
        E 70 b9 08 0c
        E 70 b9 08 0c
        E 70 b9 08 0c
        E 70 b9 08 0c
        E 70 b9 08 0c
        E 70 b9 08 0c
        E 70 b9 08 0c
        E 70 b9 08 0c
        E 70 b9 08 0c
        E 70 b9 08 0c
        E 70 b9 08 00
        E 70 b9 08 00
        E 70 b9 08 00
        E 70 b9 08 00
        E 70 b9 08 00
        E 70 b9 08 00
        E 70 b9 08 00
        E 70 b9 08 00
        E 70 b9 08 00
        E 70 b9 08 00
        E 70 b9 08 00
        E 70 b9 08 00
        E 70 b9 08 00
        E 70 b9 08 00
        E 70 b9 08 00
        E 70 b9 08 00
        E 70 b9 08 00
        E 70 b9 08 00
        E 70 b9 08 00
        E 70 b9 08 00
        E 70 b9 08 00
        E 70 b9 08 00
        E 70 b9 08 00
        E 70 b9 08 00
        E 70 b9 08 00
        E 70 b9 08 00
        E 70 b9 08 00
        E 70 b9 08 00
        E 70 b9 08 00
        E 70 b9 08 00
        E 70 b9 08 00
        E 70 b9 08 00
        E 70 b9 08 00
        E 70 b9 08 00
        E 70 b9 08 00
        E 70 b9 08 00
        E 70 b9 08 00
        E 70 b9 08 00
        E 70 b9 08 00
        E 70 b9 08 00
        E 70 b9 08 00
        E 70 b9 08 00
        E 70 b9 08 00
        E 70 b9 08 00
        E 70 b9 08 00
        E 70 b9 08 00
        E 70 b9 08 00
        E 70 b9 08 00
        E 70 b9 08 00
        E 70 b9 08 00
        E 70 b9 08 00
        E 70 b9 08 00
        E 70 b9 08 00
        E 70 b9 08 00
        E 70 b9 08 00
        E 70 b9 08 00
        E 70 b9 08 00
        E 70 b9 08 00
        E 70 b9 08 00
        E 70 b9 08 00
        E 70 b9 08 00
        E 70 b9 08 00
        E 70 b9 08 00
        E 70 b9 08 00
        E 62 b9 08 58
        E 62 b9 08 58
        E 62 b9 08 58
        E 62 b9 08 58
        E 62 b9 08 58
        E 62 b9 08 58
        E 62 b9 08 58
        E 62 b9 08 58
        E 62 b9 08 58
        E 62 b9 08 58
        E 62 b9 08 58
        E 62 b9 08 58
        E 62 b9 08 58
        E 62 b9 08 58
        E 62 b9 08 58
        E 62 b9 08 58
        E 62 b9 08 58
        E 62 b9 08 58
        E 62 b9 08 58
        E 62 b9 08 58
        E 62 b9 08 58
        E 62 b9 08 58
        E 62 b9 08 58
        E 62 b9 08 58
        E 62 b9 08 58
        E 62 b9 08 58
        E 62 b9 08 58
        E 62 b9 08 58
        E 62 b9 08 58
        E 62 b9 08 58
        E 62 b9 08 58
        E 62 b9 08 58
        E 62 b9 08 58
        E 62 b9 08 58
        E 62 b9 08 58
        E 62 b9 08 58
        E 62 b9 08 58
        E 62 b9 08 58
        E 62 b9 08 58
        E 62 b9 08 58
        E 62 b9 08 58
        E 62 b9 08 58
        E 62 b9 08 58
        E 62 b9 08 58
        E 62 b9 08 58
        E 62 b9 08 58
        E 62 b9 08 58
        E 62 b9 08 58
        E 62 b9 08 58
        E 62 b9 08 58
        E 62 b9 08 58
        E 62 b9 08 58
        E 62 b9 08 58
        E 62 b9 08 58
        E 62 b9 08 58
        E 62 b9 08 58
        E 62 b9 08 58
        E 62 b9 08 58
        E 62 b9 08 58
        E 62 b9 08 58
        E 62 b9 08 58
        E 62 b9 08 58
        E 62 b9 08 58
        E 62 b9 08 00
        E 62 b9 08 00
        E 62 b9 08 00
        E 62 b9 08 00
        E 62 b9 08 00
        E 62 b9 08 00
        E 62 b9 08 00
        E 62 b9 08 00
        E 62 b9 08 00
        E 62 b9 08 00
        E 62 b9 08 00
        E 62 b9 08 00
        E 62 b9 08 00
        E 62 b9 08 00
        E 62 b9 08 00
        E 62 b9 08 00
        E 62 b9 08 00
        E 62 b9 08 00
        E 62 b9 08 00
        E 62 b9 08 00
        E 62 b9 08 00
        E 62 b9 08 00
        E 62 b9 08 00
        E 62 b9 08 00
        E 62 b9 08 00
        E 62 b9 08 00
        E 62 b9 08 00
        E 62 b9 08 00
        E 62 b9 08 00
        E 62 b9 08 00
        E 62 b9 08 00
        E 62 b9 08 00
        E 62 b9 08 00
        E 62 b9 08 00
        E 62 b9 08 00
        E 62 b9 08 00
        E 62 b9 08 00
        E 62 b9 08 00
        E 62 b9 08 00
        E 62 b9 08 00
        E 62 b9 08 00
        E 62 b9 08 00
        E 62 b9 08 00
        E 62 b9 08 00
        E 62 b9 08 00
        E 62 b9 08 00
        E 62 b9 08 00
        E 62 b9 08 00
        E 62 b9 08 00
        E 62 b9 08 00
        E 62 b9 08 00
        E 62 b9 08 00
        E 62 b9 08 00
        E 62 b9 08 00
        E 62 b9 08 00
        E 62 b9 08 00
        E 62 b9 08 00
        E 62 b9 08 00
        E 62 b9 08 00
        E 62 b9 08 00
        E 62 b9 08 00
        E 62 b9 08 00
        E 62 b9 08 00
        E 62 b9 08 00
        E 70 b9 08 26
        E 70 b9 08 26
        E 70 b9 08 26
        E 70 b9 08 26
        E 70 b9 08 26
        E 70 b9 08 26
        E 70 b9 08 26
        E 70 b9 08 26
        E 70 b9 08 26
        E 70 b9 08 26
        E 70 b9 08 26
        E 70 b9 08 26
        E 70 b9 08 26
        E 70 b9 08 26
        E 70 b9 08 26
        E 70 b9 08 26
        E 70 b9 08 26
        E 70 b9 08 26
        E 70 b9 08 26
        E 70 b9 08 26
        E 70 b9 08 26
        E 70 b9 08 26
        E 70 b9 08 26
        E 70 b9 08 26
        E 70 b9 08 26
        E 70 b9 08 26
        E 70 b9 08 26
        E 70 b9 08 26
        E 70 b9 08 26
        E 70 b9 08 26
        E 70 b9 08 26
        E 70 b9 08 26
        E 70 b9 08 26
        E 70 b9 08 26
        E 70 b9 08 26
        E 70 b9 08 26
        E 70 b9 08 26
        E 70 b9 08 26
        E 70 b9 08 26
        E 70 b9 08 26
        E 70 b9 08 26
        E 70 b9 08 26
        E 70 b9 08 26
        E 70 b9 08 26
        E 70 b9 08 26
        E 70 b9 08 26
        E 70 b9 08 26
        E 70 b9 08 26
        E 70 b9 08 26
        E 70 b9 08 26
        E 70 b9 08 26
        E 70 b9 08 26
        E 70 b9 08 26
        E 70 b9 08 26
        E 70 b9 08 26
        E 70 b9 08 26
        E 70 b9 08 26
        E 70 b9 08 26
        E 70 b9 08 26
        E 70 b9 08 26
        E 70 b9 08 26
        E 70 b9 08 26
        E 70 b9 08 26
        E 70 b9 08 00
        E 70 b9 08 00
        E 70 b9 08 00
        E 70 b9 08 00
        E 70 b9 08 00
        E 70 b9 08 00
        E 70 b9 08 00
        E 70 b9 08 00
        E 70 b9 08 00
        E 70 b9 08 00
        E 70 b9 08 00
        E 70 b9 08 00
        E 70 b9 08 00
        E 70 b9 08 00
        E 70 b9 08 00
        E 70 b9 08 00
        E 70 b9 08 00
        E 70 b9 08 00
        E 70 b9 08 00
        E 70 b9 08 00
        E 70 b9 08 00
        E 70 b9 08 00
        E 70 b9 08 00
        E 70 b9 08 00
        E 70 b9 08 00
        E 70 b9 08 00
        E 70 b9 08 00
        E 70 b9 08 00
        E 70 b9 08 00
        E 70 b9 08 00
        E 70 b9 08 00
        E 70 b9 08 00
        E 70 b9 08 00
        E 70 b9 08 00
        E 70 b9 08 00
        E 70 b9 08 00
        E 70 b9 08 00
        E 70 b9 08 00
        E 70 b9 08 00
        E 70 b9 08 00
        E 70 b9 08 00
        E 70 b9 08 00
        E 70 b9 08 00
        E 70 b9 08 00
        E 70 b9 08 00
        E 70 b9 08 00
        E 70 b9 08 00
        E 70 b9 08 00
        E 70 b9 08 00
        E 70 b9 08 00
        E 70 b9 08 00
        E 70 b9 08 00
        E 70 b9 08 00
        E 70 b9 08 00
        E 70 b9 08 00
        E 70 b9 08 00
        E 70 b9 08 00
        E 70 b9 08 00
        E 70 b9 08 00
        E 70 b9 08 00
        E 70 b9 08 00
        E 70 b9 08 00
        E 70 b9 08 00
        E 70 b9 08 00
        E 23 b9 08 4c
        E 23 b9 08 4c
        E 23 b9 08 4c
        E 23 b9 08 4c
        E 23 b9 08 4c
        E 23 b9 08 4c
        E 23 b9 08 4c
        E 23 b9 08 4c
        E 23 b9 08 4c
        E 23 b9 08 4c
        E 23 b9 08 4c
        E 23 b9 08 4c
        E 23 b9 08 4c
        E 23 b9 08 4c
        E 23 b9 08 4c
        E 23 b9 08 4c
        E 23 b9 08 4c
        E 23 b9 08 4c
        E 23 b9 08 4c
        E 23 b9 08 4c
        E 23 b9 08 4c
        E 23 b9 08 4c
        E 23 b9 08 4c
        E 23 b9 08 4c
        E 23 b9 08 4c
        E 23 b9 08 4c
        E 23 b9 08 4c
        E 23 b9 08 4c
        E 23 b9 08 4c
        E 23 b9 08 4c
        E 23 b9 08 4c
        E 23 b9 08 4c
        E 23 b9 08 4c
        E 23 b9 08 4c
        E 23 b9 08 4c
        E 23 b9 08 4c
        E 23 b9 08 4c
        E 23 b9 08 4c
        E 23 b9 08 4c
        E 23 b9 08 4c
        E 23 b9 08 4c
        E 23 b9 08 4c
        E 23 b9 08 4c
        E 23 b9 08 4c
        E 23 b9 08 4c
        E 23 b9 08 4c
        E 23 b9 08 4c
        E 23 b9 08 4c
        E 23 b9 08 4c
        E 23 b9 08 4c
        E 23 b9 08 4c
        E 23 b9 08 4c
        E 23 b9 08 4c
        E 23 b9 08 4c
        E 23 b9 08 4c
        E 23 b9 08 4c
        E 23 b9 08 4c
        E 23 b9 08 4c
        E 23 b9 08 4c
        E 23 b9 08 4c
        E 23 b9 08 4c
        E 23 b9 08 4c
        E 23 b9 08 4c
        E 23 b9 08 00
        E 23 b9 08 00
        E 23 b9 08 00
        E 23 b9 08 00
        E 23 b9 08 00
        E 23 b9 08 00
        E 23 b9 08 00
        E 23 b9 08 00
        E 23 b9 08 00
        E 23 b9 08 00
        E 23 b9 08 00
        E 23 b9 08 00
        E 23 b9 08 00
        E 23 b9 08 00
        E 23 b9 08 00
        E 23 b9 08 00
        E 23 b9 08 00
        E 23 b9 08 00
        E 23 b9 08 00
        E 23 b9 08 00
        E 23 b9 08 00
        E 23 b9 08 00
        E 23 b9 08 00
        E 23 b9 08 00
        E 23 b9 08 00
        E 23 b9 08 00
        E 23 b9 08 00
        E 23 b9 08 00
        E 23 b9 08 00
        E 23 b9 08 00
        E 23 b9 08 00
        E 23 b9 08 00
        E 23 b9 08 00
        E 23 b9 08 00
        E 23 b9 08 00
        E 23 b9 08 00
        E 23 b9 08 00
        E 23 b9 08 00
        E 23 b9 08 00
        E 23 b9 08 00
        E 23 b9 08 00
        E 23 b9 08 00
        E 23 b9 08 00
        E 23 b9 08 00
        E 23 b9 08 00
        E 23 b9 08 00
        E 23 b9 08 00
        E 23 b9 08 00
        E 23 b9 08 00
        E 23 b9 08 00
        E 23 b9 08 00
        E 23 b9 08 00
        E 23 b9 08 00
        E 23 b9 08 00
        E 23 b9 08 00
        E 23 b9 08 00
        E 23 b9 08 00
        E 23 b9 08 00
        E 23 b9 08 00
        E 23 b9 08 00
        E 23 b9 08 00
        E 23 b9 08 00
        E 23 b9 08 00
        E 23 b9 08 00
        E 62 b9 08 72
        E 62 b9 08 72
        E 62 b9 08 72
        E 62 b9 08 72
        E 62 b9 08 72
        E 62 b9 08 72
        E 62 b9 08 72
        E 62 b9 08 72
        E 62 b9 08 72
        E 62 b9 08 72
        E 62 b9 08 72
        E 62 b9 08 72
        E 62 b9 08 72
        E 62 b9 08 72
        E 62 b9 08 72
        E 62 b9 08 72
        E 62 b9 08 72
        E 62 b9 08 72
        E 62 b9 08 72
        E 62 b9 08 72
        E 62 b9 08 72
        E 62 b9 08 72
        E 62 b9 08 72
        E 62 b9 08 72
        E 62 b9 08 72
        E 62 b9 08 72
        E 62 b9 08 72
        E 62 b9 08 72
        E 62 b9 08 72
        E 62 b9 08 72
        E 62 b9 08 72
        E 62 b9 08 72
        E 62 b9 08 72
        E 62 b9 08 72
        E 62 b9 08 72
        E 62 b9 08 72
        E 62 b9 08 72
        E 62 b9 08 72
        E 62 b9 08 72
        E 62 b9 08 72
        E 62 b9 08 72
        E 62 b9 08 72
        E 62 b9 08 72
        E 62 b9 08 72
        E 62 b9 08 72
        E 62 b9 08 72
        E 62 b9 08 72
        E 62 b9 08 72
        E 62 b9 08 72
        E 62 b9 08 72
        E 62 b9 08 72
        E 62 b9 08 72
        E 62 b9 08 72
        E 62 b9 08 72
        E 62 b9 08 72
        E 62 b9 08 72
        E 62 b9 08 72
        E 62 b9 08 72
        E 62 b9 08 72
        E 62 b9 08 72
        E 62 b9 08 72
        E 62 b9 08 72
        E 62 b9 08 72
        E 62 b9 08 00
        E 62 b9 08 00
        E 62 b9 08 00
        E 62 b9 08 00
        E 62 b9 08 00
        E 62 b9 08 00
        E 62 b9 08 00
        E 62 b9 08 00
        E 62 b9 08 00
        E 62 b9 08 00
        E 62 b9 08 00
        E 62 b9 08 00
        E 62 b9 08 00
        E 62 b9 08 00
        E 62 b9 08 00
        E 62 b9 08 00
        E 62 b9 08 00
        E 62 b9 08 00
        E 62 b9 08 00
        E 62 b9 08 00
        E 62 b9 08 00
        E 62 b9 08 00
        E 62 b9 08 00
        E 62 b9 08 00
        E 62 b9 08 00
        E 62 b9 08 00
        E 62 b9 08 00
        E 62 b9 08 00
        E 62 b9 08 00
        E 62 b9 08 00
        E 62 b9 08 00
        E 62 b9 08 00
        E 62 b9 08 00
        E 62 b9 08 00
        E 62 b9 08 00
        E 62 b9 08 00
        E 62 b9 08 00
        E 62 b9 08 00
        E 62 b9 08 00
        E 62 b9 08 00
        E 62 b9 08 00
        E 62 b9 08 00
        E 62 b9 08 00
        E 62 b9 08 00
        E 62 b9 08 00
        E 62 b9 08 00
        E 62 b9 08 00
        E 62 b9 08 00
        E 62 b9 08 00
        E 62 b9 08 00
        E 62 b9 08 00
        E 62 b9 08 00
        E 62 b9 08 00
        E 62 b9 08 00
        E 62 b9 08 00
        E 62 b9 08 00
        E 62 b9 08 00
        E 62 b9 08 00
        E 62 b9 08 00
        E 62 b9 08 00
        E 62 b9 08 00
        E 62 b9 08 00
        E 62 b9 08 00
        E 62 b9 08 00
        E 7 b9 08 32
        E 7 b9 08 32
        E 7 b9 08 32
        E 7 b9 08 32
        E 7 b9 08 32
        E 7 b9 08 32
        E 7 b9 08 32
        E 7 b9 08 32
        E 7 b9 08 32
        E 7 b9 08 32
        E 7 b9 08 32
        E 7 b9 08 32
        E 7 b9 08 32
        E 7 b9 08 32
        E 7 b9 08 32
        E 7 b9 08 32
        E 7 b9 08 32
        E 7 b9 08 32
        E 7 b9 08 32
        E 7 b9 08 32
        E 7 b9 08 32
        E 7 b9 08 32
        E 7 b9 08 32
        E 7 b9 08 32
        E 7 b9 08 32
        E 7 b9 08 32
        E 7 b9 08 32
        E 7 b9 08 32
        E 7 b9 08 32
        E 7 b9 08 32
        E 7 b9 08 32
        E 7 b9 08 32
        E 7 b9 08 32
        E 7 b9 08 32
        E 7 b9 08 32
        E 7 b9 08 32
        E 7 b9 08 32
        E 7 b9 08 32
        E 7 b9 08 32
        E 7 b9 08 32
        E 7 b9 08 32
        E 7 b9 08 32
        E 7 b9 08 32
        E 7 b9 08 32
        E 7 b9 08 32
        E 7 b9 08 32
        E 7 b9 08 32
        E 7 b9 08 32
        E 7 b9 08 32
        E 7 b9 08 32
        E 7 b9 08 32
        E 7 b9 08 32
        E 7 b9 08 32
        E 7 b9 08 32
        E 7 b9 08 32
        E 7 b9 08 32
        E 7 b9 08 32
        E 7 b9 08 32
        E 7 b9 08 32
        E 7 b9 08 32
        E 7 b9 08 32
        E 7 b9 08 32
        E 7 b9 08 32
        E 7 b9 08 00
        E 7 b9 08 00
        E 7 b9 08 00
        E 7 b9 08 00
        E 7 b9 08 00
        E 7 b9 08 00
        E 7 b9 08 00
        E 7 b9 08 00
        E 7 b9 08 00
        E 7 b9 08 00
        E 7 b9 08 00
        E 7 b9 08 00
        E 7 b9 08 00
        E 7 b9 08 00
        E 7 b9 08 00
        E 7 b9 08 00
        E 7 b9 08 00
        E 7 b9 08 00
        E 7 b9 08 00
        E 7 b9 08 00
        E 7 b9 08 00
        E 7 b9 08 00
        E 7 b9 08 00
        E 7 b9 08 00
        E 7 b9 08 00
        E 7 b9 08 00
        E 7 b9 08 00
        E 7 b9 08 00
        E 7 b9 08 00
        E 7 b9 08 00
        E 7 b9 08 00
        E 7 b9 08 00
        E 7 b9 08 00
        E 7 b9 08 00
        E 7 b9 08 00
        E 7 b9 08 00
        E 7 b9 08 00
        E 7 b9 08 00
        E 7 b9 08 00
        E 7 b9 08 00
        E 7 b9 08 00
        E 7 b9 08 00
        E 7 b9 08 00
        E 7 b9 08 00
        E 7 b9 08 00
        E 7 b9 08 00
        E 7 b9 08 00
        E 7 b9 08 00
        E 7 b9 08 00
        E 7 b9 08 00
        E 7 b9 08 00
        E 7 b9 08 00
        E 7 b9 08 00
        E 7 b9 08 00
        E 7 b9 08 00
        E 7 b9 08 00
        E 7 b9 08 00
        E 7 b9 08 00
        E 7 b9 08 00
        E 7 b9 08 00
        E 7 b9 08 00
        E 7 b9 08 00
        E 7 b9 08 00
        E 7 b9 08 00
        E 70 b9 08 0c
        E 70 b9 08 0c
        E 70 b9 08 0c
        E 70 b9 08 0c
        E 70 b9 08 0c
        E 70 b9 08 0c
        E 70 b9 08 0c
        E 70 b9 08 0c
        E 70 b9 08 0c
        E 70 b9 08 0c
        E 70 b9 08 0c
        E 70 b9 08 0c
        E 70 b9 08 0c
        E 70 b9 08 0c
        E 70 b9 08 0c
        E 70 b9 08 0c
        E 70 b9 08 0c
        E 70 b9 08 0c
        E 70 b9 08 0c
        E 70 b9 08 0c
        E 70 b9 08 0c
        E 70 b9 08 0c
        E 70 b9 08 0c
        E 70 b9 08 0c
        E 70 b9 08 0c
        E 70 b9 08 0c
        E 70 b9 08 0c
        E 70 b9 08 0c
        E 70 b9 08 0c
        E 70 b9 08 0c
        E 70 b9 08 0c
        E 70 b9 08 0c
        E 70 b9 08 0c
        E 70 b9 08 0c
        E 70 b9 08 0c
        E 70 b9 08 0c
        E 70 b9 08 0c
        E 70 b9 08 0c
        E 70 b9 08 0c
        E 70 b9 08 0c
        E 70 b9 08 0c
        E 70 b9 08 0c
        E 70 b9 08 0c
        E 70 b9 08 0c
        E 70 b9 08 0c
        E 70 b9 08 0c
        E 70 b9 08 0c
        E 70 b9 08 0c
        E 70 b9 08 0c
        E 70 b9 08 0c
        E 70 b9 08 0c
        E 70 b9 08 0c
        E 70 b9 08 0c
        E 70 b9 08 0c
        E 70 b9 08 0c
        E 70 b9 08 0c
        E 70 b9 08 0c
        E 70 b9 08 0c
        E 70 b9 08 0c
        E 70 b9 08 0c
        E 70 b9 08 0c
        E 70 b9 08 0c
        E 70 b9 08 0c
        E 70 b9 08 00
        E 70 b9 08 00
        E 70 b9 08 00
        E 70 b9 08 00
        E 70 b9 08 00
        E 70 b9 08 00
        E 70 b9 08 00
        E 70 b9 08 00
        E 70 b9 08 00
        E 70 b9 08 00
        E 70 b9 08 00
        E 70 b9 08 00
        E 70 b9 08 00
        E 70 b9 08 00
        E 70 b9 08 00
        E 70 b9 08 00
        E 70 b9 08 00
        E 70 b9 08 00
        E 70 b9 08 00
        E 70 b9 08 00
        E 70 b9 08 00
        E 70 b9 08 00
        E 70 b9 08 00
        E 70 b9 08 00
        E 70 b9 08 00
        E 70 b9 08 00
        E 70 b9 08 00
        E 70 b9 08 00
        E 70 b9 08 00
        E 70 b9 08 00
        E 70 b9 08 00
        E 70 b9 08 00
        E 70 b9 08 00
        E 70 b9 08 00
        E 70 b9 08 00
        E 70 b9 08 00
        E 70 b9 08 00
        E 70 b9 08 00
        E 70 b9 08 00
        E 70 b9 08 00
        E 70 b9 08 00
        E 70 b9 08 00
        E 70 b9 08 00
        E 70 b9 08 00
        E 70 b9 08 00
        E 70 b9 08 00
        E 70 b9 08 00
        E 70 b9 08 00
        E 70 b9 08 00
        E 70 b9 08 00
        E 70 b9 08 00
        E 70 b9 08 00
        E 70 b9 08 00
        E 70 b9 08 00
        E 70 b9 08 00
        E 70 b9 08 00
        E 70 b9 08 00
        E 70 b9 08 00
        E 70 b9 08 00
        E 70 b9 08 00
        E 70 b9 08 00
        E 70 b9 08 00
        E 70 b9 08 00
        E 70 b9 08 00
        E 62 b9 08 58
        E 62 b9 08 58
        E 62 b9 08 58
        E 62 b9 08 58
        E 62 b9 08 58
        E 62 b9 08 58
        E 62 b9 08 58
        E 62 b9 08 58
        E 62 b9 08 58
        E 62 b9 08 58
        E 62 b9 08 58
        E 62 b9 08 58
        E 62 b9 08 58
        E 62 b9 08 58
        E 62 b9 08 58
        E 62 b9 08 58
        E 62 b9 08 58
        E 62 b9 08 58
        E 62 b9 08 58
        E 62 b9 08 58
        E 62 b9 08 58
        E 62 b9 08 58
        E 62 b9 08 58
        E 62 b9 08 58
        E 62 b9 08 58
        E 62 b9 08 58
        E 62 b9 08 58
        E 62 b9 08 58
        E 62 b9 08 58
        E 62 b9 08 58
        E 62 b9 08 58
        E 62 b9 08 58
        E 62 b9 08 58
        E 62 b9 08 58
        E 62 b9 08 58
        E 62 b9 08 58
        E 62 b9 08 58
        E 62 b9 08 58
        E 62 b9 08 58
        E 62 b9 08 58
        E 62 b9 08 58
        E 62 b9 08 58
        E 62 b9 08 58
        E 62 b9 08 58
        E 62 b9 08 58
        E 62 b9 08 58
        E 62 b9 08 58
        E 62 b9 08 58
        E 62 b9 08 58
        E 62 b9 08 58
        E 62 b9 08 58
        E 62 b9 08 58
        E 62 b9 08 58
        E 62 b9 08 58
        E 62 b9 08 58
        E 62 b9 08 58
        E 62 b9 08 58
        E 62 b9 08 58
        E 62 b9 08 58
        E 62 b9 08 58
        E 62 b9 08 58
        E 62 b9 08 58
        E 62 b9 08 58
        E 62 b9 08 00
        E 62 b9 08 00
        E 62 b9 08 00
        E 62 b9 08 00
        E 62 b9 08 00
        E 62 b9 08 00
        E 62 b9 08 00
        E 62 b9 08 00
        E 62 b9 08 00
        E 62 b9 08 00
        E 62 b9 08 00
        E 62 b9 08 00
        E 62 b9 08 00
        E 62 b9 08 00
        E 62 b9 08 00
        E 62 b9 08 00
        E 62 b9 08 00
        E 62 b9 08 00
        E 62 b9 08 00
        E 62 b9 08 00
        E 62 b9 08 00
        E 62 b9 08 00
        E 62 b9 08 00
        E 62 b9 08 00
        E 62 b9 08 00
        E 62 b9 08 00
        E 62 b9 08 00
        E 62 b9 08 00
        E 62 b9 08 00
        E 62 b9 08 00
        E 62 b9 08 00
        E 62 b9 08 00
        E 62 b9 08 00
        E 62 b9 08 00
        E 62 b9 08 00
        E 62 b9 08 00
        E 62 b9 08 00
        E 62 b9 08 00
        E 62 b9 08 00
        E 62 b9 08 00
        E 62 b9 08 00
        E 62 b9 08 00
        E 62 b9 08 00
        E 62 b9 08 00
        E 62 b9 08 00
        E 62 b9 08 00
        E 62 b9 08 00
        E 62 b9 08 00
        E 62 b9 08 00
        E 62 b9 08 00
        E 62 b9 08 00
        E 62 b9 08 00
        E 62 b9 08 00
        E 62 b9 08 00
        E 62 b9 08 00
        E 62 b9 08 00
        E 62 b9 08 00
        E 62 b9 08 00
        E 62 b9 08 00
        E 62 b9 08 00
        E 62 b9 08 00
        E 62 b9 08 00
        E 62 b9 08 00
        E 62 b9 08 00
        E 70 b9 08 26
        E 70 b9 08 26
        E 70 b9 08 26
        E 70 b9 08 26
        E 70 b9 08 26
        E 70 b9 08 26
        E 70 b9 08 26
        E 70 b9 08 26
        E 70 b9 08 26
        E 70 b9 08 26
        E 70 b9 08 26
        E 70 b9 08 26
        E 70 b9 08 26
        E 70 b9 08 26
        E 70 b9 08 26
        E 70 b9 08 26
        E 70 b9 08 26
        E 70 b9 08 26
        E 70 b9 08 26
        E 70 b9 08 26
        E 70 b9 08 26
        E 70 b9 08 26
        E 70 b9 08 26
        E 70 b9 08 26
        E 70 b9 08 26
        E 70 b9 08 26
        E 70 b9 08 26
        E 70 b9 08 26
        E 70 b9 08 26
        E 70 b9 08 26
        E 70 b9 08 26
        E 70 b9 08 26
        E 70 b9 08 26
        E 70 b9 08 26
        E 70 b9 08 26
        E 70 b9 08 26
        E 70 b9 08 26
        E 70 b9 08 26
        E 70 b9 08 26
        E 70 b9 08 26
        E 70 b9 08 26
        E 70 b9 08 26
        E 70 b9 08 26
        E 70 b9 08 26
        E 70 b9 08 26
        E 70 b9 08 26
        E 70 b9 08 26
        E 70 b9 08 26
        E 70 b9 08 26
        E 70 b9 08 26
        E 70 b9 08 26
        E 70 b9 08 26
        E 70 b9 08 26
        E 70 b9 08 26
        E 70 b9 08 26
        E 70 b9 08 26
        E 70 b9 08 26
        E 70 b9 08 26
        E 70 b9 08 26
        E 70 b9 08 26
        E 70 b9 08 26
        E 70 b9 08 26
        E 70 b9 08 26
        E 70 b9 08 00
        E 70 b9 08 00
        E 70 b9 08 00
        E 70 b9 08 00
        E 70 b9 08 00
        E 70 b9 08 00
        E 70 b9 08 00
        E 70 b9 08 00
        E 70 b9 08 00
        E 70 b9 08 00
        E 70 b9 08 00
        E 70 b9 08 00
        E 70 b9 08 00
        E 70 b9 08 00
        E 70 b9 08 00
        E 70 b9 08 00
        E 70 b9 08 00
        E 70 b9 08 00
        E 70 b9 08 00
        E 70 b9 08 00
        E 70 b9 08 00
        E 70 b9 08 00
        E 70 b9 08 00
        E 70 b9 08 00
        E 70 b9 08 00
        E 70 b9 08 00
        E 70 b9 08 00
        E 70 b9 08 00
        E 70 b9 08 00
        E 70 b9 08 00
        E 70 b9 08 00
        E 70 b9 08 00
        E 70 b9 08 00
        E 70 b9 08 00
        E 70 b9 08 00
        E 70 b9 08 00
        E 70 b9 08 00
        E 70 b9 08 00
        E 70 b9 08 00
        E 70 b9 08 00
        E 70 b9 08 00
        E 70 b9 08 00
        E 70 b9 08 00
        E 70 b9 08 00
        E 70 b9 08 00
        E 70 b9 08 00
        E 70 b9 08 00
        E 70 b9 08 00
        E 70 b9 08 00
        E 70 b9 08 00
        E 70 b9 08 00
        E 70 b9 08 00
        E 70 b9 08 00
        E 70 b9 08 00
        E 70 b9 08 00
        E 70 b9 08 00
        E 70 b9 08 00
        E 70 b9 08 00
        E 70 b9 08 00
        E 70 b9 08 00
        E 70 b9 08 00
        E 70 b9 08 00
        E 70 b9 08 00
        E 70 b9 08 00
        E 23 b9 08 4c
        E 23 b9 08 4c
        E 23 b9 08 4c
        E 23 b9 08 4c
        E 23 b9 08 4c
        E 23 b9 08 4c
        E 23 b9 08 4c
        E 23 b9 08 4c
        E 23 b9 08 4c
        E 23 b9 08 4c
        E 23 b9 08 4c
        E 23 b9 08 4c
        E 23 b9 08 4c
        E 23 b9 08 4c
        E 23 b9 08 4c
        E 23 b9 08 4c
        E 23 b9 08 4c
        E 23 b9 08 4c
        E 23 b9 08 4c
        E 23 b9 08 4c
        E 23 b9 08 4c
        E 23 b9 08 4c
        E 23 b9 08 4c
        E 23 b9 08 4c
        E 23 b9 08 4c
        E 23 b9 08 4c
        E 23 b9 08 4c
        E 23 b9 08 4c
        E 23 b9 08 4c
        E 23 b9 08 4c
        E 23 b9 08 4c
        E 23 b9 08 4c
        E 23 b9 08 4c
        E 23 b9 08 4c
        E 23 b9 08 4c
        E 23 b9 08 4c
        E 23 b9 08 4c
        E 23 b9 08 4c
        E 23 b9 08 4c
        E 23 b9 08 4c
        E 23 b9 08 4c
        E 23 b9 08 4c
        E 23 b9 08 4c
        E 23 b9 08 4c
        E 23 b9 08 4c
        E 23 b9 08 4c
        E 23 b9 08 4c
        E 23 b9 08 4c
        E 23 b9 08 4c
        E 23 b9 08 4c
        E 23 b9 08 4c
        E 23 b9 08 4c
        E 23 b9 08 4c
        E 23 b9 08 4c
        E 23 b9 08 4c
        E 23 b9 08 4c
        E 23 b9 08 4c
        E 23 b9 08 4c
        E 23 b9 08 4c
        E 23 b9 08 4c
        E 23 b9 08 4c
        E 23 b9 08 4c
        E 23 b9 08 4c
        E 23 b9 08 00
        E 23 b9 08 00
        E 23 b9 08 00
        E 23 b9 08 00
        E 23 b9 08 00
        E 23 b9 08 00
        E 23 b9 08 00
        E 23 b9 08 00
        E 23 b9 08 00
        E 23 b9 08 00
        E 23 b9 08 00
        E 23 b9 08 00
        E 23 b9 08 00
        E 23 b9 08 00
        E 23 b9 08 00
        E 23 b9 08 00
        E 23 b9 08 00
        E 23 b9 08 00
        E 23 b9 08 00
        E 23 b9 08 00
        E 23 b9 08 00
        E 23 b9 08 00
        E 23 b9 08 00
        E 23 b9 08 00
        E 23 b9 08 00
        E 23 b9 08 00
        E 23 b9 08 00
        E 23 b9 08 00
        E 23 b9 08 00
        E 23 b9 08 00
        E 23 b9 08 00
        E 23 b9 08 00
        E 23 b9 08 00
        E 23 b9 08 00
        E 23 b9 08 00
        E 23 b9 08 00
        E 23 b9 08 00
        E 23 b9 08 00
        E 23 b9 08 00
        E 23 b9 08 00
        E 23 b9 08 00
        E 23 b9 08 00
        E 23 b9 08 00
        E 23 b9 08 00
        E 23 b9 08 00
        E 23 b9 08 00
        E 23 b9 08 00
        E 23 b9 08 00
        E 23 b9 08 00
        E 23 b9 08 00
        E 23 b9 08 00
        E 23 b9 08 00
        E 23 b9 08 00
        E 23 b9 08 00
        E 23 b9 08 00
        E 23 b9 08 00
        E 23 b9 08 00
        E 23 b9 08 00
        E 23 b9 08 00
        E 23 b9 08 00
        E 23 b9 08 00
        E 23 b9 08 00
        E 23 b9 08 00
        E 23 b9 08 00
        E 62 b9 08 72
        E 62 b9 08 72
        E 62 b9 08 72
        E 62 b9 08 72
        E 62 b9 08 72
        E 62 b9 08 72
        E 62 b9 08 72
        E 62 b9 08 72
        E 62 b9 08 72
        E 62 b9 08 72
        E 62 b9 08 72
        E 62 b9 08 72
        E 62 b9 08 72
        E 62 b9 08 72
        E 62 b9 08 72
        E 62 b9 08 72
        E 62 b9 08 72
        E 62 b9 08 72
        E 62 b9 08 72
        E 62 b9 08 72
        E 62 b9 08 72
        E 62 b9 08 72
        E 62 b9 08 72
        E 62 b9 08 72
        E 62 b9 08 72
        E 62 b9 08 72
        E 62 b9 08 72
        E 62 b9 08 72
        E 62 b9 08 72
        E 62 b9 08 72
        E 62 b9 08 72
        E 62 b9 08 72
        E 62 b9 08 72
        E 62 b9 08 72
        E 62 b9 08 72
        E 62 b9 08 72
        E 62 b9 08 72
        E 62 b9 08 72
        E 62 b9 08 72
        E 62 b9 08 72
        E 62 b9 08 72
        E 62 b9 08 72
        E 62 b9 08 72
        E 62 b9 08 72
        E 62 b9 08 72
        E 62 b9 08 72
        E 62 b9 08 72
        E 62 b9 08 72
        E 62 b9 08 72
        E 62 b9 08 72
        E 62 b9 08 72
        E 62 b9 08 72
        E 62 b9 08 72
        E 62 b9 08 72
        E 62 b9 08 72
        E 62 b9 08 72
        E 62 b9 08 72
        E 62 b9 08 72
        E 62 b9 08 72
        E 62 b9 08 72
        E 62 b9 08 72
        E 62 b9 08 72
        E 62 b9 08 72
        E 62 b9 08 00
        E 62 b9 08 00
        E 62 b9 08 00
        E 62 b9 08 00
        E 62 b9 08 00
        E 62 b9 08 00
        E 62 b9 08 00
        E 62 b9 08 00
        E 62 b9 08 00
        E 62 b9 08 00
        E 62 b9 08 00
        E 62 b9 08 00
        E 62 b9 08 00
        E 62 b9 08 00
        E 62 b9 08 00
        E 62 b9 08 00
        E 62 b9 08 00
        E 62 b9 08 00
        E 62 b9 08 00
        E 62 b9 08 00
        E 62 b9 08 00
        E 62 b9 08 00
        E 62 b9 08 00
        E 62 b9 08 00
        E 62 b9 08 00
        E 62 b9 08 00
        E 62 b9 08 00
        E 62 b9 08 00
        E 62 b9 08 00
        E 62 b9 08 00
        E 62 b9 08 00
        E 62 b9 08 00
        E 62 b9 08 00
        E 62 b9 08 00
        E 62 b9 08 00
        E 62 b9 08 00
        E 62 b9 08 00
        E 62 b9 08 00
        E 62 b9 08 00
        E 62 b9 08 00
        E 62 b9 08 00
        E 62 b9 08 00
        E 62 b9 08 00
        E 62 b9 08 00
        E 62 b9 08 00
        E 62 b9 08 00
        E 62 b9 08 00
        E 62 b9 08 00
        E 62 b9 08 00
        E 62 b9 08 00
        E 62 b9 08 00
        E 62 b9 08 00
        E 62 b9 08 00
        E 62 b9 08 00
        E 62 b9 08 00
        E 62 b9 08 00
        E 62 b9 08 00
        E 62 b9 08 00
        E 62 b9 08 00
        E 62 b9 08 00
        E 62 b9 08 00
        E 62 b9 08 00
        E 62 b9 08 00
        E 62 b9 08 00
        E 7 b9 08 32
        E 7 b9 08 32
        E 7 b9 08 32
        E 7 b9 08 32
        E 7 b9 08 32
        E 7 b9 08 32
        E 7 b9 08 32
        E 7 b9 08 32
        E 7 b9 08 32
        E 7 b9 08 32
        E 7 b9 08 32
        E 7 b9 08 32
        E 7 b9 08 32
        E 7 b9 08 32
        E 7 b9 08 32
        E 7 b9 08 32
        E 7 b9 08 32
        E 7 b9 08 32
        E 7 b9 08 32
        E 7 b9 08 32
        E 7 b9 08 32
        E 7 b9 08 32
        E 7 b9 08 32
        E 7 b9 08 32
        E 7 b9 08 32
        E 7 b9 08 32
        E 7 b9 08 32
        E 7 b9 08 32
        E 7 b9 08 32
        E 7 b9 08 32
        E 7 b9 08 32
        E 7 b9 08 32
        E 7 b9 08 32
        E 7 b9 08 32
        E 7 b9 08 32
        E 7 b9 08 32
        E 7 b9 08 32
        E 7 b9 08 32
        E 7 b9 08 32
        E 7 b9 08 32
        E 7 b9 08 32
        E 7 b9 08 32
        E 7 b9 08 32
        E 7 b9 08 32
        E 7 b9 08 32
        E 7 b9 08 32
        E 7 b9 08 32
        E 7 b9 08 32
        E 7 b9 08 32
        E 7 b9 08 32
        E 7 b9 08 32
        E 7 b9 08 32
        E 7 b9 08 32
        E 7 b9 08 32
        E 7 b9 08 32
        E 7 b9 08 32
        E 7 b9 08 32
        E 7 b9 08 32
        E 7 b9 08 32
        E 7 b9 08 32
        E 7 b9 08 32
        E 7 b9 08 32
        E 7 b9 08 32
        E 7 b9 08 00
        E 7 b9 08 00
        E 7 b9 08 00
        E 7 b9 08 00
        E 7 b9 08 00
        E 7 b9 08 00
        E 7 b9 08 00
        E 7 b9 08 00
        E 7 b9 08 00
        E 7 b9 08 00
        E 7 b9 08 00
        E 7 b9 08 00
        E 7 b9 08 00
        E 7 b9 08 00
        E 7 b9 08 00
        E 7 b9 08 00
        E 7 b9 08 00
        E 7 b9 08 00
        E 7 b9 08 00
        E 7 b9 08 00
        E 7 b9 08 00
        E 7 b9 08 00
        E 7 b9 08 00
        E 7 b9 08 00
        E 7 b9 08 00
        E 7 b9 08 00
        E 7 b9 08 00
        E 7 b9 08 00
        E 7 b9 08 00
        E 7 b9 08 00
        E 7 b9 08 00
        E 7 b9 08 00
        E 7 b9 08 00
        E 7 b9 08 00
        E 7 b9 08 00
        E 7 b9 08 00
        E 7 b9 08 00
        E 7 b9 08 00
        E 7 b9 08 00
        E 7 b9 08 00
        E 7 b9 08 00
        E 7 b9 08 00
        E 7 b9 08 00
        E 7 b9 08 00
        E 7 b9 08 00
        E 7 b9 08 00
        E 7 b9 08 00
        E 7 b9 08 00
        E 7 b9 08 00
        E 7 b9 08 00
        E 7 b9 08 00
        E 7 b9 08 00
        E 7 b9 08 00
        E 7 b9 08 00
        E 7 b9 08 00
        E 7 b9 08 00
        E 7 b9 08 00
        E 7 b9 08 00
        E 7 b9 08 00
        E 7 b9 08 00
        E 7 b9 08 00
        E 7 b9 08 00
        E 7 b9 08 00
        E 7 b9 08 00
        E 71 b9 08 13
        E 71 b9 08 14
        E 71 b9 08 15
        E 71 b9 08 15
        E 71 b9 08 16
        E 71 b9 08 17
        E 71 b9 08 18
        E 71 b9 08 19
        E 71 b9 08 1a
        E 71 b9 08 1b
        E 71 b9 08 1c
        E 71 b9 08 1c
        E 71 b9 08 1d
        E 71 b9 08 1e
        E 71 b9 08 1f
        E 71 b9 08 1f
        E 71 b9 08 20
        E 71 b9 08 21
        E 71 b9 08 21
        E 71 b9 08 22
        E 71 b9 08 23
        E 71 b9 08 23
        E 71 b9 08 24
        E 71 b9 08 24
        E 71 b9 08 24
        E 71 b9 08 24
        E 71 b9 08 25
        E 71 b9 08 25
        E 71 b9 08 25
        E 71 b9 08 25
        E 71 b9 08 26
        E 71 b9 08 26
        E 71 b9 08 26
        E 71 b9 08 26
        E 71 b9 08 26
        E 71 b9 08 25
        E 71 b9 08 25
        E 71 b9 08 25
        E 71 b9 08 25
        E 71 b9 08 24
        E 71 b9 08 24
        E 71 b9 08 24
        E 71 b9 08 23
        E 71 b9 08 23
        E 71 b9 08 22
        E 71 b9 08 22
        E 71 b9 08 21
        E 71 b9 08 21
        E 71 b9 08 20
        E 71 b9 08 1f
        E 71 b9 08 1e
        E 71 b9 08 1e
        E 71 b9 08 1d
        E 71 b9 08 1c
        E 71 b9 08 1b
        E 71 b9 08 1a
        E 71 b9 08 1a
        E 71 b9 08 19
        E 71 b9 08 18
        E 71 b9 08 17
        E 71 b9 08 16
        E 71 b9 08 15
        E 71 b9 08 14
        E 71 b9 08 13
        E 71 b9 08 12
        E 71 b9 08 11
        E 71 b9 08 10
        E 71 b9 08 0f
        E 71 b9 08 0e
        E 71 b9 08 0d
        E 71 b9 08 0c
        E 71 b9 08 0c
        E 71 b9 08 0b
        E 71 b9 08 0a
        E 71 b9 08 09
        E 71 b9 08 08
        E 71 b9 08 08
        E 71 b9 08 07
        E 71 b9 08 06
        E 71 b9 08 05
        E 71 b9 08 05
        E 71 b9 08 04
        E 71 b9 08 03
        E 71 b9 08 03
        E 71 b9 08 03
        E 71 b9 08 02
        E 71 b9 08 02
        E 71 b9 08 01
        E 71 b9 08 01
        E 71 b9 08 00
        E 71 b9 08 00
        E 71 b9 08 00
        E 71 b9 08 00
        E 71 b9 08 00
        E 71 b9 08 00
        E 71 b9 08 00
        E 71 b9 08 00
        E 71 b9 08 00
        E 71 b9 08 00
        E 71 b9 08 00
        E 71 b9 08 00
        E 71 b9 08 00
        E 71 b9 08 01
        E 71 b9 08 01
        E 71 b9 08 01
        E 71 b9 08 02
        E 71 b9 08 02
        E 71 b9 08 03
        E 71 b9 08 03
        E 71 b9 08 04
        E 71 b9 08 04
        E 71 b9 08 05
        E 71 b9 08 06
        E 71 b9 08 06
        E 71 b9 08 07
        E 71 b9 08 08
        E 71 b9 08 09
        E 71 b9 08 09
        E 71 b9 08 0a
        E 71 b9 08 0b
        E 71 b9 08 0c
        E 71 b9 08 0d
        E 71 b9 08 0e
        E 71 b9 08 0f
        E 71 b9 08 10
        E 71 b9 08 11
        E 71 b9 08 12
        E 71 b9 08 13
        E 23 b9 08 26
        E 23 b9 08 28
        E 23 b9 08 2a
        E 23 b9 08 2b
        E 23 b9 08 2d
        E 23 b9 08 2f
        E 23 b9 08 31
        E 23 b9 08 33
        E 23 b9 08 34
        E 23 b9 08 36
        E 23 b9 08 38
        E 23 b9 08 39
        E 23 b9 08 3b
        E 23 b9 08 3d
        E 23 b9 08 3e
        E 23 b9 08 3f
        E 23 b9 08 41
        E 23 b9 08 42
        E 23 b9 08 43
        E 23 b9 08 45
        E 23 b9 08 46
        E 23 b9 08 46
        E 23 b9 08 48
        E 23 b9 08 48
        E 23 b9 08 49
        E 23 b9 08 49
        E 23 b9 08 4a
        E 23 b9 08 4b
        E 23 b9 08 4b
        E 23 b9 08 4b
        E 23 b9 08 4c
        E 23 b9 08 4c
        E 23 b9 08 4c
        E 23 b9 08 4c
        E 23 b9 08 4c
        E 23 b9 08 4b
        E 23 b9 08 4b
        E 23 b9 08 4b
        E 23 b9 08 4a
        E 23 b9 08 49
        E 23 b9 08 49
        E 23 b9 08 48
        E 23 b9 08 47
        E 23 b9 08 46
        E 23 b9 08 45
        E 23 b9 08 44
        E 23 b9 08 43
        E 23 b9 08 42
        E 23 b9 08 40
        E 23 b9 08 3f
        E 23 b9 08 3d
        E 23 b9 08 3c
        E 23 b9 08 3a
        E 23 b9 08 39
        E 23 b9 08 37
        E 23 b9 08 35
        E 23 b9 08 34
        E 23 b9 08 32
        E 23 b9 08 30
        E 23 b9 08 2e
        E 23 b9 08 2c
        E 23 b9 08 2a
        E 23 b9 08 28
        E 23 b9 08 27
        E 23 b9 08 25
        E 23 b9 08 23
        E 23 b9 08 21
        E 23 b9 08 1f
        E 23 b9 08 1d
        E 23 b9 08 1b
        E 23 b9 08 19
        E 23 b9 08 18
        E 23 b9 08 16
        E 23 b9 08 15
        E 23 b9 08 13
        E 23 b9 08 11
        E 23 b9 08 10
        E 23 b9 08 0e
        E 23 b9 08 0d
        E 23 b9 08 0b
        E 23 b9 08 0a
        E 23 b9 08 09
        E 23 b9 08 07
        E 23 b9 08 06
        E 23 b9 08 06
        E 23 b9 08 04
        E 23 b9 08 04
        E 23 b9 08 03
        E 23 b9 08 02
        E 23 b9 08 01
        E 23 b9 08 01
        E 23 b9 08 00
        E 23 b9 08 00
        E 23 b9 08 00
        E 23 b9 08 00
        E 23 b9 08 00
        E 23 b9 08 00
        E 23 b9 08 00
        E 23 b9 08 00
        E 23 b9 08 00
        E 23 b9 08 01
        E 23 b9 08 01
        E 23 b9 08 02
        E 23 b9 08 03
        E 23 b9 08 03
        E 23 b9 08 04
        E 23 b9 08 05
        E 23 b9 08 06
        E 23 b9 08 07
        E 23 b9 08 08
        E 23 b9 08 09
        E 23 b9 08 0a
        E 23 b9 08 0c
        E 23 b9 08 0d
        E 23 b9 08 0f
        E 23 b9 08 10
        E 23 b9 08 12
        E 23 b9 08 13
        E 23 b9 08 15
        E 23 b9 08 17
        E 23 b9 08 19
        E 23 b9 08 1b
        E 23 b9 08 1c
        E 23 b9 08 1e
        E 23 b9 08 20
        E 23 b9 08 22
        E 23 b9 08 24
        E 23 b9 08 26
        E 63 b9 08 39
        E 63 b9 08 3c
        E 63 b9 08 3f
        E 63 b9 08 41
        E 63 b9 08 44
        E 63 b9 08 47
        E 63 b9 08 49
        E 63 b9 08 4c
        E 63 b9 08 4f
        E 63 b9 08 51
        E 63 b9 08 54
        E 63 b9 08 56
        E 63 b9 08 59
        E 63 b9 08 5b
        E 63 b9 08 5d
        E 63 b9 08 5f
        E 63 b9 08 62
        E 63 b9 08 63
        E 63 b9 08 65
        E 63 b9 08 67
        E 63 b9 08 69
        E 63 b9 08 6a
        E 63 b9 08 6c
        E 63 b9 08 6c
        E 63 b9 08 6d
        E 63 b9 08 6e
        E 63 b9 08 6f
        E 63 b9 08 70
        E 63 b9 08 71
        E 63 b9 08 71
        E 63 b9 08 72
        E 63 b9 08 72
        E 63 b9 08 72
        E 63 b9 08 72
        E 63 b9 08 72
        E 63 b9 08 71
        E 63 b9 08 71
        E 63 b9 08 70
        E 63 b9 08 6f
        E 63 b9 08 6e
        E 63 b9 08 6d
        E 63 b9 08 6c
        E 63 b9 08 6b
        E 63 b9 08 69
        E 63 b9 08 68
        E 63 b9 08 66
        E 63 b9 08 64
        E 63 b9 08 63
        E 63 b9 08 61
        E 63 b9 08 5e
        E 63 b9 08 5c
        E 63 b9 08 5a
        E 63 b9 08 58
        E 63 b9 08 55
        E 63 b9 08 52
        E 63 b9 08 50
        E 63 b9 08 4e
        E 63 b9 08 4b
        E 63 b9 08 48
        E 63 b9 08 46
        E 63 b9 08 42
        E 63 b9 08 3f
        E 63 b9 08 3d
        E 63 b9 08 3a
        E 63 b9 08 37
        E 63 b9 08 35
        E 63 b9 08 32
        E 63 b9 08 2f
        E 63 b9 08 2c
        E 63 b9 08 29
        E 63 b9 08 26
        E 63 b9 08 24
        E 63 b9 08 22
        E 63 b9 08 1f
        E 63 b9 08 1c
        E 63 b9 08 1a
        E 63 b9 08 18
        E 63 b9 08 15
        E 63 b9 08 13
        E 63 b9 08 11
        E 63 b9 08 0f
        E 63 b9 08 0d
        E 63 b9 08 0b
        E 63 b9 08 09
        E 63 b9 08 09
        E 63 b9 08 07
        E 63 b9 08 06
        E 63 b9 08 04
        E 63 b9 08 03
        E 63 b9 08 02
        E 63 b9 08 01
        E 63 b9 08 00
        E 63 b9 08 00
        E 63 b9 08 00
        E 63 b9 08 00
        E 63 b9 08 00
        E 63 b9 08 00
        E 63 b9 08 00
        E 63 b9 08 00
        E 63 b9 08 00
        E 63 b9 08 01
        E 63 b9 08 02
        E 63 b9 08 03
        E 63 b9 08 04
        E 63 b9 08 05
        E 63 b9 08 06
        E 63 b9 08 08
        E 63 b9 08 09
        E 63 b9 08 0a
        E 63 b9 08 0c
        E 63 b9 08 0e
        E 63 b9 08 10
        E 63 b9 08 12
        E 63 b9 08 14
        E 63 b9 08 16
        E 63 b9 08 19
        E 63 b9 08 1b
        E 63 b9 08 1d
        E 63 b9 08 20
        E 63 b9 08 23
        E 63 b9 08 25
        E 63 b9 08 28
        E 63 b9 08 2b
        E 63 b9 08 2d
        E 63 b9 08 30
        E 63 b9 08 33
        E 63 b9 08 36
        E 63 b9 08 39
        E 7 b9 08 19
        E 7 b9 08 1a
        E 7 b9 08 1c
        E 7 b9 08 1d
        E 7 b9 08 1e
        E 7 b9 08 1f
        E 7 b9 08 20
        E 7 b9 08 22
        E 7 b9 08 23
        E 7 b9 08 24
        E 7 b9 08 25
        E 7 b9 08 26
        E 7 b9 08 27
        E 7 b9 08 28
        E 7 b9 08 29
        E 7 b9 08 2a
        E 7 b9 08 2b
        E 7 b9 08 2c
        E 7 b9 08 2d
        E 7 b9 08 2e
        E 7 b9 08 2e
        E 7 b9 08 2f
        E 7 b9 08 30
        E 7 b9 08 30
        E 7 b9 08 30
        E 7 b9 08 31
        E 7 b9 08 31
        E 7 b9 08 32
        E 7 b9 08 32
        E 7 b9 08 32
        E 7 b9 08 32
        E 7 b9 08 32
        E 7 b9 08 32
        E 7 b9 08 32
        E 7 b9 08 32
        E 7 b9 08 32
        E 7 b9 08 32
        E 7 b9 08 32
        E 7 b9 08 31
        E 7 b9 08 31
        E 7 b9 08 30
        E 7 b9 08 30
        E 7 b9 08 2f
        E 7 b9 08 2e
        E 7 b9 08 2e
        E 7 b9 08 2d
        E 7 b9 08 2c
        E 7 b9 08 2c
        E 7 b9 08 2b
        E 7 b9 08 2a
        E 7 b9 08 29
        E 7 b9 08 28
        E 7 b9 08 27
        E 7 b9 08 26
        E 7 b9 08 24
        E 7 b9 08 23
        E 7 b9 08 22
        E 7 b9 08 21
        E 7 b9 08 20
        E 7 b9 08 1f
        E 7 b9 08 1d
        E 7 b9 08 1c
        E 7 b9 08 1b
        E 7 b9 08 1a
        E 7 b9 08 18
        E 7 b9 08 17
        E 7 b9 08 16
        E 7 b9 08 15
        E 7 b9 08 13
        E 7 b9 08 12
        E 7 b9 08 11
        E 7 b9 08 10
        E 7 b9 08 0f
        E 7 b9 08 0e
        E 7 b9 08 0c
        E 7 b9 08 0b
        E 7 b9 08 0a
        E 7 b9 08 09
        E 7 b9 08 08
        E 7 b9 08 07
        E 7 b9 08 06
        E 7 b9 08 06
        E 7 b9 08 05
        E 7 b9 08 04
        E 7 b9 08 04
        E 7 b9 08 03
        E 7 b9 08 02
        E 7 b9 08 02
        E 7 b9 08 01
        E 7 b9 08 01
        E 7 b9 08 00
        E 7 b9 08 00
        E 7 b9 08 00
        E 7 b9 08 00
        E 7 b9 08 00
        E 7 b9 08 00
        E 7 b9 08 00
        E 7 b9 08 00
        E 7 b9 08 00
        E 7 b9 08 00
        E 7 b9 08 00
        E 7 b9 08 01
        E 7 b9 08 01
        E 7 b9 08 02
        E 7 b9 08 02
        E 7 b9 08 02
        E 7 b9 08 03
        E 7 b9 08 04
        E 7 b9 08 04
        E 7 b9 08 05
        E 7 b9 08 06
        E 7 b9 08 07
        E 7 b9 08 08
        E 7 b9 08 09
        E 7 b9 08 0a
        E 7 b9 08 0b
        E 7 b9 08 0c
        E 7 b9 08 0d
        E 7 b9 08 0e
        E 7 b9 08 0f
        E 7 b9 08 10
        E 7 b9 08 12
        E 7 b9 08 13
        E 7 b9 08 14
        E 7 b9 08 15
        E 7 b9 08 16
        E 7 b9 08 18
        E 7 b9 08 19
        E 71 b9 08 06
        E 71 b9 08 06
        E 71 b9 08 07
        E 71 b9 08 07
        E 71 b9 08 07
        E 71 b9 08 07
        E 71 b9 08 08
        E 71 b9 08 08
        E 71 b9 08 08
        E 71 b9 08 09
        E 71 b9 08 09
        E 71 b9 08 09
        E 71 b9 08 09
        E 71 b9 08 0a
        E 71 b9 08 0a
        E 71 b9 08 0a
        E 71 b9 08 0a
        E 71 b9 08 0b
        E 71 b9 08 0b
        E 71 b9 08 0b
        E 71 b9 08 0b
        E 71 b9 08 0b
        E 71 b9 08 0c
        E 71 b9 08 0c
        E 71 b9 08 0c
        E 71 b9 08 0c
        E 71 b9 08 0c
        E 71 b9 08 0c
        E 71 b9 08 0c
        E 71 b9 08 0c
        E 71 b9 08 0c
        E 71 b9 08 0c
        E 71 b9 08 0c
        E 71 b9 08 0c
        E 71 b9 08 0c
        E 71 b9 08 0c
        E 71 b9 08 0c
        E 71 b9 08 0c
        E 71 b9 08 0c
        E 71 b9 08 0c
        E 71 b9 08 0c
        E 71 b9 08 0c
        E 71 b9 08 0b
        E 71 b9 08 0b
        E 71 b9 08 0b
        E 71 b9 08 0b
        E 71 b9 08 0b
        E 71 b9 08 0b
        E 71 b9 08 0a
        E 71 b9 08 0a
        E 71 b9 08 0a
        E 71 b9 08 0a
        E 71 b9 08 09
        E 71 b9 08 09
        E 71 b9 08 09
        E 71 b9 08 08
        E 71 b9 08 08
        E 71 b9 08 08
        E 71 b9 08 08
        E 71 b9 08 07
        E 71 b9 08 07
        E 71 b9 08 07
        E 71 b9 08 06
        E 71 b9 08 06
        E 71 b9 08 06
        E 71 b9 08 05
        E 71 b9 08 05
        E 71 b9 08 05
        E 71 b9 08 04
        E 71 b9 08 04
        E 71 b9 08 04
        E 71 b9 08 04
        E 71 b9 08 03
        E 71 b9 08 03
        E 71 b9 08 03
        E 71 b9 08 02
        E 71 b9 08 02
        E 71 b9 08 02
        E 71 b9 08 02
        E 71 b9 08 01
        E 71 b9 08 01
        E 71 b9 08 01
        E 71 b9 08 01
        E 71 b9 08 01
        E 71 b9 08 01
        E 71 b9 08 00
        E 71 b9 08 00
        E 71 b9 08 00
        E 71 b9 08 00
        E 71 b9 08 00
        E 71 b9 08 00
        E 71 b9 08 00
        E 71 b9 08 00
        E 71 b9 08 00
        E 71 b9 08 00
        E 71 b9 08 00
        E 71 b9 08 00
        E 71 b9 08 00
        E 71 b9 08 00
        E 71 b9 08 00
        E 71 b9 08 00
        E 71 b9 08 00
        E 71 b9 08 00
        E 71 b9 08 00
        E 71 b9 08 00
        E 71 b9 08 00
        E 71 b9 08 00
        E 71 b9 08 01
        E 71 b9 08 01
        E 71 b9 08 01
        E 71 b9 08 01
        E 71 b9 08 01
        E 71 b9 08 02
        E 71 b9 08 02
        E 71 b9 08 02
        E 71 b9 08 02
        E 71 b9 08 03
        E 71 b9 08 03
        E 71 b9 08 03
        E 71 b9 08 03
        E 71 b9 08 04
        E 71 b9 08 04
        E 71 b9 08 04
        E 71 b9 08 05
        E 71 b9 08 05
        E 71 b9 08 05
        E 71 b9 08 06
        E 71 b9 08 06
        E 63 b9 08 2c
        E 63 b9 08 2e
        E 63 b9 08 31
        E 63 b9 08 33
        E 63 b9 08 35
        E 63 b9 08 37
        E 63 b9 08 39
        E 63 b9 08 3b
        E 63 b9 08 3d
        E 63 b9 08 3f
        E 63 b9 08 41
        E 63 b9 08 43
        E 63 b9 08 45
        E 63 b9 08 47
        E 63 b9 08 48
        E 63 b9 08 4a
        E 63 b9 08 4c
        E 63 b9 08 4d
        E 63 b9 08 4f
        E 63 b9 08 50
        E 63 b9 08 51
        E 63 b9 08 52
        E 63 b9 08 54
        E 63 b9 08 54
        E 63 b9 08 55
        E 63 b9 08 56
        E 63 b9 08 56
        E 63 b9 08 57
        E 63 b9 08 58
        E 63 b9 08 58
        E 63 b9 08 58
        E 63 b9 08 58
        E 63 b9 08 58
        E 63 b9 08 58
        E 63 b9 08 58
        E 63 b9 08 58
        E 63 b9 08 58
        E 63 b9 08 57
        E 63 b9 08 56
        E 63 b9 08 56
        E 63 b9 08 55
        E 63 b9 08 54
        E 63 b9 08 53
        E 63 b9 08 51
        E 63 b9 08 51
        E 63 b9 08 4f
        E 63 b9 08 4e
        E 63 b9 08 4d
        E 63 b9 08 4b
        E 63 b9 08 49
        E 63 b9 08 48
        E 63 b9 08 46
        E 63 b9 08 44
        E 63 b9 08 42
        E 63 b9 08 40
        E 63 b9 08 3e
        E 63 b9 08 3c
        E 63 b9 08 3a
        E 63 b9 08 38
        E 63 b9 08 36
        E 63 b9 08 33
        E 63 b9 08 31
        E 63 b9 08 2f
        E 63 b9 08 2d
        E 63 b9 08 2b
        E 63 b9 08 29
        E 63 b9 08 27
        E 63 b9 08 25
        E 63 b9 08 22
        E 63 b9 08 20
        E 63 b9 08 1e
        E 63 b9 08 1c
        E 63 b9 08 1a
        E 63 b9 08 18
        E 63 b9 08 16
        E 63 b9 08 14
        E 63 b9 08 12
        E 63 b9 08 10
        E 63 b9 08 0f
        E 63 b9 08 0d
        E 63 b9 08 0b
        E 63 b9 08 0a
        E 63 b9 08 09
        E 63 b9 08 07
        E 63 b9 08 07
        E 63 b9 08 05
        E 63 b9 08 04
        E 63 b9 08 03
        E 63 b9 08 02
        E 63 b9 08 02
        E 63 b9 08 01
        E 63 b9 08 00
        E 63 b9 08 00
        E 63 b9 08 00
        E 63 b9 08 00
        E 63 b9 08 00
        E 63 b9 08 00
        E 63 b9 08 00
        E 63 b9 08 00
        E 63 b9 08 00
        E 63 b9 08 01
        E 63 b9 08 02
        E 63 b9 08 02
        E 63 b9 08 03
        E 63 b9 08 04
        E 63 b9 08 04
        E 63 b9 08 06
        E 63 b9 08 07
        E 63 b9 08 08
        E 63 b9 08 09
        E 63 b9 08 0b
        E 63 b9 08 0c
        E 63 b9 08 0e
        E 63 b9 08 10
        E 63 b9 08 11
        E 63 b9 08 13
        E 63 b9 08 15
        E 63 b9 08 17
        E 63 b9 08 19
        E 63 b9 08 1b
        E 63 b9 08 1d
        E 63 b9 08 1f
        E 63 b9 08 21
        E 63 b9 08 23
        E 63 b9 08 25
        E 63 b9 08 27
        E 63 b9 08 2a
        E 63 b9 08 2c
        E 71 b9 08 13
        E 71 b9 08 14
        E 71 b9 08 15
        E 71 b9 08 15
        E 71 b9 08 16
        E 71 b9 08 17
        E 71 b9 08 18
        E 71 b9 08 19
        E 71 b9 08 1a
        E 71 b9 08 1b
        E 71 b9 08 1c
        E 71 b9 08 1c
        E 71 b9 08 1d
        E 71 b9 08 1e
        E 71 b9 08 1f
        E 71 b9 08 1f
        E 71 b9 08 20
        E 71 b9 08 21
        E 71 b9 08 21
        E 71 b9 08 22
        E 71 b9 08 23
        E 71 b9 08 23
        E 71 b9 08 24
        E 71 b9 08 24
        E 71 b9 08 24
        E 71 b9 08 24
        E 71 b9 08 25
        E 71 b9 08 25
        E 71 b9 08 25
        E 71 b9 08 25
        E 71 b9 08 26
        E 71 b9 08 26
        E 71 b9 08 26
        E 71 b9 08 26
        E 71 b9 08 26
        E 71 b9 08 25
        E 71 b9 08 25
        E 71 b9 08 25
        E 71 b9 08 25
        E 71 b9 08 24
        E 71 b9 08 24
        E 71 b9 08 24
        E 71 b9 08 23
        E 71 b9 08 23
        E 71 b9 08 22
        E 71 b9 08 22
        E 71 b9 08 21
        E 71 b9 08 21
        E 71 b9 08 20
        E 71 b9 08 1f
        E 71 b9 08 1e
        E 71 b9 08 1e
        E 71 b9 08 1d
        E 71 b9 08 1c
        E 71 b9 08 1b
        E 71 b9 08 1a
        E 71 b9 08 1a
        E 71 b9 08 19
        E 71 b9 08 18
        E 71 b9 08 17
        E 71 b9 08 16
        E 71 b9 08 15
        E 71 b9 08 14
        E 71 b9 08 13
        E 71 b9 08 12
        E 71 b9 08 11
        E 71 b9 08 10
        E 71 b9 08 0f
        E 71 b9 08 0e
        E 71 b9 08 0d
        E 71 b9 08 0c
        E 71 b9 08 0c
        E 71 b9 08 0b
        E 71 b9 08 0a
        E 71 b9 08 09
        E 71 b9 08 08
        E 71 b9 08 08
        E 71 b9 08 07
        E 71 b9 08 06
        E 71 b9 08 05
        E 71 b9 08 05
        E 71 b9 08 04
        E 71 b9 08 03
        E 71 b9 08 03
        E 71 b9 08 03
        E 71 b9 08 02
        E 71 b9 08 02
        E 71 b9 08 01
        E 71 b9 08 01
        E 71 b9 08 00
        E 71 b9 08 00
        E 71 b9 08 00
        E 71 b9 08 00
        E 71 b9 08 00
        E 71 b9 08 00
        E 71 b9 08 00
        E 71 b9 08 00
        E 71 b9 08 00
        E 71 b9 08 00
        E 71 b9 08 00
        E 71 b9 08 00
        E 71 b9 08 00
        E 71 b9 08 01
        E 71 b9 08 01
        E 71 b9 08 01
        E 71 b9 08 02
        E 71 b9 08 02
        E 71 b9 08 03
        E 71 b9 08 03
        E 71 b9 08 04
        E 71 b9 08 04
        E 71 b9 08 05
        E 71 b9 08 06
        E 71 b9 08 06
        E 71 b9 08 07
        E 71 b9 08 08
        E 71 b9 08 09
        E 71 b9 08 09
        E 71 b9 08 0a
        E 71 b9 08 0b
        E 71 b9 08 0c
        E 71 b9 08 0d
        E 71 b9 08 0e
        E 71 b9 08 0f
        E 71 b9 08 10
        E 71 b9 08 11
        E 71 b9 08 12
        E 71 b9 08 13
        E 23 b9 08 26
        E 23 b9 08 28
        E 23 b9 08 2a
        E 23 b9 08 2b
        E 23 b9 08 2d
        E 23 b9 08 2f
        E 23 b9 08 31
        E 23 b9 08 33
        E 23 b9 08 34
        E 23 b9 08 36
        E 23 b9 08 38
        E 23 b9 08 39
        E 23 b9 08 3b
        E 23 b9 08 3d
        E 23 b9 08 3e
        E 23 b9 08 3f
        E 23 b9 08 41
        E 23 b9 08 42
        E 23 b9 08 43
        E 23 b9 08 45
        E 23 b9 08 46
        E 23 b9 08 46
        E 23 b9 08 48
        E 23 b9 08 48
        E 23 b9 08 49
        E 23 b9 08 49
        E 23 b9 08 4a
        E 23 b9 08 4b
        E 23 b9 08 4b
        E 23 b9 08 4b
        E 23 b9 08 4c
        E 23 b9 08 4c
        E 23 b9 08 4c
        E 23 b9 08 4c
        E 23 b9 08 4c
        E 23 b9 08 4b
        E 23 b9 08 4b
        E 23 b9 08 4b
        E 23 b9 08 4a
        E 23 b9 08 49
        E 23 b9 08 49
        E 23 b9 08 48
        E 23 b9 08 47
        E 23 b9 08 46
        E 23 b9 08 45
        E 23 b9 08 44
        E 23 b9 08 43
        E 23 b9 08 42
        E 23 b9 08 40
        E 23 b9 08 3f
        E 23 b9 08 3d
        E 23 b9 08 3c
        E 23 b9 08 3a
        E 23 b9 08 39
        E 23 b9 08 37
        E 23 b9 08 35
        E 23 b9 08 34
        E 23 b9 08 32
        E 23 b9 08 30
        E 23 b9 08 2e
        E 23 b9 08 2c
        E 23 b9 08 2a
        E 23 b9 08 28
        E 23 b9 08 27
        E 23 b9 08 25
        E 23 b9 08 23
        E 23 b9 08 21
        E 23 b9 08 1f
        E 23 b9 08 1d
        E 23 b9 08 1b
        E 23 b9 08 19
        E 23 b9 08 18
        E 23 b9 08 16
        E 23 b9 08 15
        E 23 b9 08 13
        E 23 b9 08 11
        E 23 b9 08 10
        E 23 b9 08 0e
        E 23 b9 08 0d
        E 23 b9 08 0b
        E 23 b9 08 0a
        E 23 b9 08 09
        E 23 b9 08 07
        E 23 b9 08 06
        E 23 b9 08 06
        E 23 b9 08 04
        E 23 b9 08 04
        E 23 b9 08 03
        E 23 b9 08 02
        E 23 b9 08 01
        E 23 b9 08 01
        E 23 b9 08 00
        E 23 b9 08 00
        E 23 b9 08 00
        E 23 b9 08 00
        E 23 b9 08 00
        E 23 b9 08 00
        E 23 b9 08 00
        E 23 b9 08 00
        E 23 b9 08 00
        E 23 b9 08 01
        E 23 b9 08 01
        E 23 b9 08 02
        E 23 b9 08 03
        E 23 b9 08 03
        E 23 b9 08 04
        E 23 b9 08 05
        E 23 b9 08 06
        E 23 b9 08 07
        E 23 b9 08 08
        E 23 b9 08 09
        E 23 b9 08 0a
        E 23 b9 08 0c
        E 23 b9 08 0d
        E 23 b9 08 0f
        E 23 b9 08 10
        E 23 b9 08 12
        E 23 b9 08 13
        E 23 b9 08 15
        E 23 b9 08 17
        E 23 b9 08 19
        E 23 b9 08 1b
        E 23 b9 08 1c
        E 23 b9 08 1e
        E 23 b9 08 20
        E 23 b9 08 22
        E 23 b9 08 24
        E 23 b9 08 26
        E 63 b9 08 39
        E 63 b9 08 3c
        E 63 b9 08 3f
        E 63 b9 08 41
        E 63 b9 08 44
        E 63 b9 08 47
        E 63 b9 08 49
        E 63 b9 08 4c
        E 63 b9 08 4f
        E 63 b9 08 51
        E 63 b9 08 54
        E 63 b9 08 56
        E 63 b9 08 59
        E 63 b9 08 5b
        E 63 b9 08 5d
        E 63 b9 08 5f
        E 63 b9 08 62
        E 63 b9 08 63
        E 63 b9 08 65
        E 63 b9 08 67
        E 63 b9 08 69
        E 63 b9 08 6a
        E 63 b9 08 6c
        E 63 b9 08 6c
        E 63 b9 08 6d
        E 63 b9 08 6e
        E 63 b9 08 6f
        E 63 b9 08 70
        E 63 b9 08 71
        E 63 b9 08 71
        E 63 b9 08 72
        E 63 b9 08 72
        E 63 b9 08 72
        E 63 b9 08 72
        E 63 b9 08 72
        E 63 b9 08 71
        E 63 b9 08 71
        E 63 b9 08 70
        E 63 b9 08 6f
        E 63 b9 08 6e
        E 63 b9 08 6d
        E 63 b9 08 6c
        E 63 b9 08 6b
        E 63 b9 08 69
        E 63 b9 08 68
        E 63 b9 08 66
        E 63 b9 08 64
        E 63 b9 08 63
        E 63 b9 08 61
        E 63 b9 08 5e
        E 63 b9 08 5c
        E 63 b9 08 5a
        E 63 b9 08 58
        E 63 b9 08 55
        E 63 b9 08 52
        E 63 b9 08 50
        E 63 b9 08 4e
        E 63 b9 08 4b
        E 63 b9 08 48
        E 63 b9 08 46
        E 63 b9 08 42
        E 63 b9 08 3f
        E 63 b9 08 3d
        E 63 b9 08 3a
        E 63 b9 08 37
        E 63 b9 08 35
        E 63 b9 08 32
        E 63 b9 08 2f
        E 63 b9 08 2c
        E 63 b9 08 29
        E 63 b9 08 26
        E 63 b9 08 24
        E 63 b9 08 22
        E 63 b9 08 1f
        E 63 b9 08 1c
        E 63 b9 08 1a
        E 63 b9 08 18
        E 63 b9 08 15
        E 63 b9 08 13
        E 63 b9 08 11
        E 63 b9 08 0f
        E 63 b9 08 0d
        E 63 b9 08 0b
        E 63 b9 08 09
        E 63 b9 08 09
        E 63 b9 08 07
        E 63 b9 08 06
        E 63 b9 08 04
        E 63 b9 08 03
        E 63 b9 08 02
        E 63 b9 08 01
        E 63 b9 08 00
        E 63 b9 08 00
        E 63 b9 08 00
        E 63 b9 08 00
        E 63 b9 08 00
        E 63 b9 08 00
        E 63 b9 08 00
        E 63 b9 08 00
        E 63 b9 08 00
        E 63 b9 08 01
        E 63 b9 08 02
        E 63 b9 08 03
        E 63 b9 08 04
        E 63 b9 08 05
        E 63 b9 08 06
        E 63 b9 08 08
        E 63 b9 08 09
        E 63 b9 08 0a
        E 63 b9 08 0c
        E 63 b9 08 0e
        E 63 b9 08 10
        E 63 b9 08 12
        E 63 b9 08 14
        E 63 b9 08 16
        E 63 b9 08 19
        E 63 b9 08 1b
        E 63 b9 08 1d
        E 63 b9 08 20
        E 63 b9 08 23
        E 63 b9 08 25
        E 63 b9 08 28
        E 63 b9 08 2b
        E 63 b9 08 2d
        E 63 b9 08 30
        E 63 b9 08 33
        E 63 b9 08 36
        E 63 b9 08 39
        E 7 b9 08 19
        E 7 b9 08 1a
        E 7 b9 08 1c
        E 7 b9 08 1d
        E 7 b9 08 1e
        E 7 b9 08 1f
        E 7 b9 08 20
        E 7 b9 08 22
        E 7 b9 08 23
        E 7 b9 08 24
        E 7 b9 08 25
        E 7 b9 08 26
        E 7 b9 08 27
        E 7 b9 08 28
        E 7 b9 08 29
        E 7 b9 08 2a
        E 7 b9 08 2b
        E 7 b9 08 2c
        E 7 b9 08 2d
        E 7 b9 08 2e
        E 7 b9 08 2e
        E 7 b9 08 2f
        E 7 b9 08 30
        E 7 b9 08 30
        E 7 b9 08 30
        E 7 b9 08 31
        E 7 b9 08 31
        E 7 b9 08 32
        E 7 b9 08 32
        E 7 b9 08 32
        E 7 b9 08 32
        E 7 b9 08 32
        E 7 b9 08 32
        E 7 b9 08 32
        E 7 b9 08 32
        E 7 b9 08 32
        E 7 b9 08 32
        E 7 b9 08 32
        E 7 b9 08 31
        E 7 b9 08 31
        E 7 b9 08 30
        E 7 b9 08 30
        E 7 b9 08 2f
        E 7 b9 08 2e
        E 7 b9 08 2e
        E 7 b9 08 2d
        E 7 b9 08 2c
        E 7 b9 08 2c
        E 7 b9 08 2b
        E 7 b9 08 2a
        E 7 b9 08 29
        E 7 b9 08 28
        E 7 b9 08 27
        E 7 b9 08 26
        E 7 b9 08 24
        E 7 b9 08 23
        E 7 b9 08 22
        E 7 b9 08 21
        E 7 b9 08 20
        E 7 b9 08 1f
        E 7 b9 08 1d
        E 7 b9 08 1c
        E 7 b9 08 1b
        E 7 b9 08 1a
        E 7 b9 08 18
        E 7 b9 08 17
        E 7 b9 08 16
        E 7 b9 08 15
        E 7 b9 08 13
        E 7 b9 08 12
        E 7 b9 08 11
        E 7 b9 08 10
        E 7 b9 08 0f
        E 7 b9 08 0e
        E 7 b9 08 0c
        E 7 b9 08 0b
        E 7 b9 08 0a
        E 7 b9 08 09
        E 7 b9 08 08
        E 7 b9 08 07
        E 7 b9 08 06
        E 7 b9 08 06
        E 7 b9 08 05
        E 7 b9 08 04
        E 7 b9 08 04
        E 7 b9 08 03
        E 7 b9 08 02
        E 7 b9 08 02
        E 7 b9 08 01
        E 7 b9 08 01
        E 7 b9 08 00
        E 7 b9 08 00
        E 7 b9 08 00
        E 7 b9 08 00
        E 7 b9 08 00
        E 7 b9 08 00
        E 7 b9 08 00
        E 7 b9 08 00
        E 7 b9 08 00
        E 7 b9 08 00
        E 7 b9 08 00
        E 7 b9 08 01
        E 7 b9 08 01
        E 7 b9 08 02
        E 7 b9 08 02
        E 7 b9 08 02
        E 7 b9 08 03
        E 7 b9 08 04
        E 7 b9 08 04
        E 7 b9 08 05
        E 7 b9 08 06
        E 7 b9 08 07
        E 7 b9 08 08
        E 7 b9 08 09
        E 7 b9 08 0a
        E 7 b9 08 0b
        E 7 b9 08 0c
        E 7 b9 08 0d
        E 7 b9 08 0e
        E 7 b9 08 0f
        E 7 b9 08 10
        E 7 b9 08 12
        E 7 b9 08 13
        E 7 b9 08 14
        E 7 b9 08 15
        E 7 b9 08 16
        E 7 b9 08 18
        E 7 b9 08 19
        E 71 b9 08 06
        E 71 b9 08 06
        E 71 b9 08 07
        E 71 b9 08 07
        E 71 b9 08 07
        E 71 b9 08 07
        E 71 b9 08 08
        E 71 b9 08 08
        E 71 b9 08 08
        E 71 b9 08 09
        E 71 b9 08 09
        E 71 b9 08 09
        E 71 b9 08 09
        E 71 b9 08 0a
        E 71 b9 08 0a
        E 71 b9 08 0a
        E 71 b9 08 0a
        E 71 b9 08 0b
        E 71 b9 08 0b
        E 71 b9 08 0b
        E 71 b9 08 0b
        E 71 b9 08 0b
        E 71 b9 08 0c
        E 71 b9 08 0c
        E 71 b9 08 0c
        E 71 b9 08 0c
        E 71 b9 08 0c
        E 71 b9 08 0c
        E 71 b9 08 0c
        E 71 b9 08 0c
        E 71 b9 08 0c
        E 71 b9 08 0c
        E 71 b9 08 0c
        E 71 b9 08 0c
        E 71 b9 08 0c
        E 71 b9 08 0c
        E 71 b9 08 0c
        E 71 b9 08 0c
        E 71 b9 08 0c
        E 71 b9 08 0c
        E 71 b9 08 0c
        E 71 b9 08 0c
        E 71 b9 08 0b
        E 71 b9 08 0b
        E 71 b9 08 0b
        E 71 b9 08 0b
        E 71 b9 08 0b
        E 71 b9 08 0b
        E 71 b9 08 0a
        E 71 b9 08 0a
        E 71 b9 08 0a
        E 71 b9 08 0a
        E 71 b9 08 09
        E 71 b9 08 09
        E 71 b9 08 09
        E 71 b9 08 08
        E 71 b9 08 08
        E 71 b9 08 08
        E 71 b9 08 08
        E 71 b9 08 07
        E 71 b9 08 07
        E 71 b9 08 07
        E 71 b9 08 06
        E 71 b9 08 06
        E 71 b9 08 06
        E 71 b9 08 05
        E 71 b9 08 05
        E 71 b9 08 05
        E 71 b9 08 04
        E 71 b9 08 04
        E 71 b9 08 04
        E 71 b9 08 04
        E 71 b9 08 03
        E 71 b9 08 03
        E 71 b9 08 03
        E 71 b9 08 02
        E 71 b9 08 02
        E 71 b9 08 02
        E 71 b9 08 02
        E 71 b9 08 01
        E 71 b9 08 01
        E 71 b9 08 01
        E 71 b9 08 01
        E 71 b9 08 01
        E 71 b9 08 01
        E 71 b9 08 00
        E 71 b9 08 00
        E 71 b9 08 00
        E 71 b9 08 00
        E 71 b9 08 00
        E 71 b9 08 00
        E 71 b9 08 00
        E 71 b9 08 00
        E 71 b9 08 00
        E 71 b9 08 00
        E 71 b9 08 00
        E 71 b9 08 00
        E 71 b9 08 00
        E 71 b9 08 00
        E 71 b9 08 00
        E 71 b9 08 00
        E 71 b9 08 00
        E 71 b9 08 00
        E 71 b9 08 00
        E 71 b9 08 00
        E 71 b9 08 00
        E 71 b9 08 00
        E 71 b9 08 01
        E 71 b9 08 01
        E 71 b9 08 01
        E 71 b9 08 01
        E 71 b9 08 01
        E 71 b9 08 02
        E 71 b9 08 02
        E 71 b9 08 02
        E 71 b9 08 02
        E 71 b9 08 03
        E 71 b9 08 03
        E 71 b9 08 03
        E 71 b9 08 03
        E 71 b9 08 04
        E 71 b9 08 04
        E 71 b9 08 04
        E 71 b9 08 05
        E 71 b9 08 05
        E 71 b9 08 05
        E 71 b9 08 06
        E 71 b9 08 06
        E 63 b9 08 2c
        E 63 b9 08 2e
        E 63 b9 08 31
        E 63 b9 08 33
        E 63 b9 08 35
        E 63 b9 08 37
        E 63 b9 08 39
        E 63 b9 08 3b
        E 63 b9 08 3d
        E 63 b9 08 3f
        E 63 b9 08 41
        E 63 b9 08 43
        E 63 b9 08 45
        E 63 b9 08 47
        E 63 b9 08 48
        E 63 b9 08 4a
        E 63 b9 08 4c
        E 63 b9 08 4d
        E 63 b9 08 4f
        E 63 b9 08 50
        E 63 b9 08 51
        E 63 b9 08 52
        E 63 b9 08 54
        E 63 b9 08 54
        E 63 b9 08 55
        E 63 b9 08 56
        E 63 b9 08 56
        E 63 b9 08 57
        E 63 b9 08 58
        E 63 b9 08 58
        E 63 b9 08 58
        E 63 b9 08 58
        E 63 b9 08 58
        E 63 b9 08 58
        E 63 b9 08 58
        E 63 b9 08 58
        E 63 b9 08 58
        E 63 b9 08 57
        E 63 b9 08 56
        E 63 b9 08 56
        E 63 b9 08 55
        E 63 b9 08 54
        E 63 b9 08 53
        E 63 b9 08 51
        E 63 b9 08 51
        E 63 b9 08 4f
        E 63 b9 08 4e
        E 63 b9 08 4d
        E 63 b9 08 4b
        E 63 b9 08 49
        E 63 b9 08 48
        E 63 b9 08 46
        E 63 b9 08 44
        E 63 b9 08 42
        E 63 b9 08 40
        E 63 b9 08 3e
        E 63 b9 08 3c
        E 63 b9 08 3a
        E 63 b9 08 38
        E 63 b9 08 36
        E 63 b9 08 33
        E 63 b9 08 31
        E 63 b9 08 2f
        E 63 b9 08 2d
        E 63 b9 08 2b
        E 63 b9 08 29
        E 63 b9 08 27
        E 63 b9 08 25
        E 63 b9 08 22
        E 63 b9 08 20
        E 63 b9 08 1e
        E 63 b9 08 1c
        E 63 b9 08 1a
        E 63 b9 08 18
        E 63 b9 08 16
        E 63 b9 08 14
        E 63 b9 08 12
        E 63 b9 08 10
        E 63 b9 08 0f
        E 63 b9 08 0d
        E 63 b9 08 0b
        E 63 b9 08 0a
        E 63 b9 08 09
        E 63 b9 08 07
        E 63 b9 08 07
        E 63 b9 08 05
        E 63 b9 08 04
        E 63 b9 08 03
        E 63 b9 08 02
        E 63 b9 08 02
        E 63 b9 08 01
        E 63 b9 08 00
        E 63 b9 08 00
        E 63 b9 08 00
        E 63 b9 08 00
        E 63 b9 08 00
        E 63 b9 08 00
        E 63 b9 08 00
        E 63 b9 08 00
        E 63 b9 08 00
        E 63 b9 08 01
        E 63 b9 08 02
        E 63 b9 08 02
        E 63 b9 08 03
        E 63 b9 08 04
        E 63 b9 08 04
        E 63 b9 08 06
        E 63 b9 08 07
        E 63 b9 08 08
        E 63 b9 08 09
        E 63 b9 08 0b
        E 63 b9 08 0c
        E 63 b9 08 0e
        E 63 b9 08 10
        E 63 b9 08 11
        E 63 b9 08 13
        E 63 b9 08 15
        E 63 b9 08 17
        E 63 b9 08 19
        E 63 b9 08 1b
        E 63 b9 08 1d
        E 63 b9 08 1f
        E 63 b9 08 21
        E 63 b9 08 23
        E 63 b9 08 25
        E 63 b9 08 27
        E 63 b9 08 2a
        E 63 b9 08 2c
        E 71 b9 08 13
        E 71 b9 08 14
        E 71 b9 08 15
        E 71 b9 08 15
        E 71 b9 08 16
        E 71 b9 08 17
        E 71 b9 08 18
        E 71 b9 08 19
        E 71 b9 08 1a
        E 71 b9 08 1b
        E 71 b9 08 1c
        E 71 b9 08 1c
        E 71 b9 08 1d
        E 71 b9 08 1e
        E 71 b9 08 1f
        E 71 b9 08 1f
        E 71 b9 08 20
        E 71 b9 08 21
        E 71 b9 08 21
        E 71 b9 08 22
        E 71 b9 08 23
        E 71 b9 08 23
        E 71 b9 08 24
        E 71 b9 08 24
        E 71 b9 08 24
        E 71 b9 08 24
        E 71 b9 08 25
        E 71 b9 08 25
        E 71 b9 08 25
        E 71 b9 08 25
        E 71 b9 08 26
        E 71 b9 08 26
        E 71 b9 08 26
        E 71 b9 08 26
        E 71 b9 08 26
        E 71 b9 08 25
        E 71 b9 08 25
        E 71 b9 08 25
        E 71 b9 08 25
        E 71 b9 08 24
        E 71 b9 08 24
        E 71 b9 08 24
        E 71 b9 08 23
        E 71 b9 08 23
        E 71 b9 08 22
        E 71 b9 08 22
        E 71 b9 08 21
        E 71 b9 08 21
        E 71 b9 08 20
        E 71 b9 08 1f
        E 71 b9 08 1e
        E 71 b9 08 1e
        E 71 b9 08 1d
        E 71 b9 08 1c
        E 71 b9 08 1b
        E 71 b9 08 1a
        E 71 b9 08 1a
        E 71 b9 08 19
        E 71 b9 08 18
        E 71 b9 08 17
        E 71 b9 08 16
        E 71 b9 08 15
        E 71 b9 08 14
        E 71 b9 08 13
        E 71 b9 08 12
        E 71 b9 08 11
        E 71 b9 08 10
        E 71 b9 08 0f
        E 71 b9 08 0e
        E 71 b9 08 0d
        E 71 b9 08 0c
        E 71 b9 08 0c
        E 71 b9 08 0b
        E 71 b9 08 0a
        E 71 b9 08 09
        E 71 b9 08 08
        E 71 b9 08 08
        E 71 b9 08 07
        E 71 b9 08 06
        E 71 b9 08 05
        E 71 b9 08 05
        E 71 b9 08 04
        E 71 b9 08 03
        E 71 b9 08 03
        E 71 b9 08 03
        E 71 b9 08 02
        E 71 b9 08 02
        E 71 b9 08 01
        E 71 b9 08 01
        E 71 b9 08 00
        E 71 b9 08 00
        E 71 b9 08 00
        E 71 b9 08 00
        E 71 b9 08 00
        E 71 b9 08 00
        E 71 b9 08 00
        E 71 b9 08 00
        E 71 b9 08 00
        E 71 b9 08 00
        E 71 b9 08 00
        E 71 b9 08 00
        E 71 b9 08 00
        E 71 b9 08 01
        E 71 b9 08 01
        E 71 b9 08 01
        E 71 b9 08 02
        E 71 b9 08 02
        E 71 b9 08 03
        E 71 b9 08 03
        E 71 b9 08 04
        E 71 b9 08 04
        E 71 b9 08 05
        E 71 b9 08 06
        E 71 b9 08 06
        E 71 b9 08 07
        E 71 b9 08 08
        E 71 b9 08 09
        E 71 b9 08 09
        E 71 b9 08 0a
        E 71 b9 08 0b
        E 71 b9 08 0c
        E 71 b9 08 0d
        E 71 b9 08 0e
        E 71 b9 08 0f
        E 71 b9 08 10
        E 71 b9 08 11
        E 71 b9 08 12
        E 71 b9 08 13
        E 23 b9 08 26
        E 23 b9 08 28
        E 23 b9 08 2a
        E 23 b9 08 2b
        E 23 b9 08 2d
        E 23 b9 08 2f
        E 23 b9 08 31
        E 23 b9 08 33
        E 23 b9 08 34
        E 23 b9 08 36
        E 23 b9 08 38
        E 23 b9 08 39
        E 23 b9 08 3b
        E 23 b9 08 3d
        E 23 b9 08 3e
        E 23 b9 08 3f
        E 23 b9 08 41
        E 23 b9 08 42
        E 23 b9 08 43
        E 23 b9 08 45
        E 23 b9 08 46
        E 23 b9 08 46
        E 23 b9 08 48
        E 23 b9 08 48
        E 23 b9 08 49
        E 23 b9 08 49
        E 23 b9 08 4a
        E 23 b9 08 4b
        E 23 b9 08 4b
        E 23 b9 08 4b
        E 23 b9 08 4c
        E 23 b9 08 4c
        E 23 b9 08 4c
        E 23 b9 08 4c
        E 23 b9 08 4c
        E 23 b9 08 4b
        E 23 b9 08 4b
        E 23 b9 08 4b
        E 23 b9 08 4a
        E 23 b9 08 49
        E 23 b9 08 49
        E 23 b9 08 48
        E 23 b9 08 47
        E 23 b9 08 46
        E 23 b9 08 45
        E 23 b9 08 44
        E 23 b9 08 43
        E 23 b9 08 42
        E 23 b9 08 40
        E 23 b9 08 3f
        E 23 b9 08 3d
        E 23 b9 08 3c
        E 23 b9 08 3a
        E 23 b9 08 39
        E 23 b9 08 37
        E 23 b9 08 35
        E 23 b9 08 34
        E 23 b9 08 32
        E 23 b9 08 30
        E 23 b9 08 2e
        E 23 b9 08 2c
        E 23 b9 08 2a
        E 23 b9 08 28
        E 23 b9 08 27
        E 23 b9 08 25
        E 23 b9 08 23
        E 23 b9 08 21
        E 23 b9 08 1f
        E 23 b9 08 1d
        E 23 b9 08 1b
        E 23 b9 08 19
        E 23 b9 08 18
        E 23 b9 08 16
        E 23 b9 08 15
        E 23 b9 08 13
        E 23 b9 08 11
        E 23 b9 08 10
        E 23 b9 08 0e
        E 23 b9 08 0d
        E 23 b9 08 0b
        E 23 b9 08 0a
        E 23 b9 08 09
        E 23 b9 08 07
        E 23 b9 08 06
        E 23 b9 08 06
        E 23 b9 08 04
        E 23 b9 08 04
        E 23 b9 08 03
        E 23 b9 08 02
        E 23 b9 08 01
        E 23 b9 08 01
        E 23 b9 08 00
        E 23 b9 08 00
        E 23 b9 08 00
        E 23 b9 08 00
        E 23 b9 08 00
        E 23 b9 08 00
        E 23 b9 08 00
        E 23 b9 08 00
        E 23 b9 08 00
        E 23 b9 08 01
        E 23 b9 08 01
        E 23 b9 08 02
        E 23 b9 08 03
        E 23 b9 08 03
        E 23 b9 08 04
        E 23 b9 08 05
        E 23 b9 08 06
        E 23 b9 08 07
        E 23 b9 08 08
        E 23 b9 08 09
        E 23 b9 08 0a
        E 23 b9 08 0c
        E 23 b9 08 0d
        E 23 b9 08 0f
        E 23 b9 08 10
        E 23 b9 08 12
        E 23 b9 08 13
        E 23 b9 08 15
        E 23 b9 08 17
        E 23 b9 08 19
        E 23 b9 08 1b
        E 23 b9 08 1c
        E 23 b9 08 1e
        E 23 b9 08 20
        E 23 b9 08 22
        E 23 b9 08 24
        E 23 b9 08 26
        E 63 b9 08 39
        E 63 b9 08 3c
        E 63 b9 08 3f
        E 63 b9 08 41
        E 63 b9 08 44
        E 63 b9 08 47
        E 63 b9 08 49
        E 63 b9 08 4c
        E 63 b9 08 4f
        E 63 b9 08 51
        E 63 b9 08 54
        E 63 b9 08 56
        E 63 b9 08 59
        E 63 b9 08 5b
        E 63 b9 08 5d
        E 63 b9 08 5f
        E 63 b9 08 62
        E 63 b9 08 63
        E 63 b9 08 65
        E 63 b9 08 67
        E 63 b9 08 69
        E 63 b9 08 6a
        E 63 b9 08 6c
        E 63 b9 08 6c
        E 63 b9 08 6d
        E 63 b9 08 6e
        E 63 b9 08 6f
        E 63 b9 08 70
        E 63 b9 08 71
        E 63 b9 08 71
        E 63 b9 08 72
        E 63 b9 08 72
        E 63 b9 08 72
        E 63 b9 08 72
        E 63 b9 08 72
        E 63 b9 08 71
        E 63 b9 08 71
        E 63 b9 08 70
        E 63 b9 08 6f
        E 63 b9 08 6e
        E 63 b9 08 6d
        E 63 b9 08 6c
        E 63 b9 08 6b
        E 63 b9 08 69
        E 63 b9 08 68
        E 63 b9 08 66
        E 63 b9 08 64
        E 63 b9 08 63
        E 63 b9 08 61
        E 63 b9 08 5e
        E 63 b9 08 5c
        E 63 b9 08 5a
        E 63 b9 08 58
        E 63 b9 08 55
        E 63 b9 08 52
        E 63 b9 08 50
        E 63 b9 08 4e
        E 63 b9 08 4b
        E 63 b9 08 48
        E 63 b9 08 46
        E 63 b9 08 42
        E 63 b9 08 3f
        E 63 b9 08 3d
        E 63 b9 08 3a
        E 63 b9 08 37
        E 63 b9 08 35
        E 63 b9 08 32
        E 63 b9 08 2f
        E 63 b9 08 2c
        E 63 b9 08 29
        E 63 b9 08 26
        E 63 b9 08 24
        E 63 b9 08 22
        E 63 b9 08 1f
        E 63 b9 08 1c
        E 63 b9 08 1a
        E 63 b9 08 18
        E 63 b9 08 15
        E 63 b9 08 13
        E 63 b9 08 11
        E 63 b9 08 0f
        E 63 b9 08 0d
        E 63 b9 08 0b
        E 63 b9 08 09
        E 63 b9 08 09
        E 63 b9 08 07
        E 63 b9 08 06
        E 63 b9 08 04
        E 63 b9 08 03
        E 63 b9 08 02
        E 63 b9 08 01
        E 63 b9 08 00
        E 63 b9 08 00
        E 63 b9 08 00
        E 63 b9 08 00
        E 63 b9 08 00
        E 63 b9 08 00
        E 63 b9 08 00
        E 63 b9 08 00
        E 63 b9 08 00
        E 63 b9 08 01
        E 63 b9 08 02
        E 63 b9 08 03
        E 63 b9 08 04
        E 63 b9 08 05
        E 63 b9 08 06
        E 63 b9 08 08
        E 63 b9 08 09
        E 63 b9 08 0a
        E 63 b9 08 0c
        E 63 b9 08 0e
        E 63 b9 08 10
        E 63 b9 08 12
        E 63 b9 08 14
        E 63 b9 08 16
        E 63 b9 08 19
        E 63 b9 08 1b
        E 63 b9 08 1d
        E 63 b9 08 20
        E 63 b9 08 23
        E 63 b9 08 25
        E 63 b9 08 28
        E 63 b9 08 2b
        E 63 b9 08 2d
        E 63 b9 08 30
        E 63 b9 08 33
        E 63 b9 08 36
        E 63 b9 08 39
        E 7 b9 08 19
        E 7 b9 08 1a
        E 7 b9 08 1c
        E 7 b9 08 1d
        E 7 b9 08 1e
        E 7 b9 08 1f
        E 7 b9 08 20
        E 7 b9 08 22
        E 7 b9 08 23
        E 7 b9 08 24
        E 7 b9 08 25
        E 7 b9 08 26
        E 7 b9 08 27
        E 7 b9 08 28
        E 7 b9 08 29
        E 7 b9 08 2a
        E 7 b9 08 2b
        E 7 b9 08 2c
        E 7 b9 08 2d
        E 7 b9 08 2e
        E 7 b9 08 2e
        E 7 b9 08 2f
        E 7 b9 08 30
        E 7 b9 08 30
        E 7 b9 08 30
        E 7 b9 08 31
        E 7 b9 08 31
        E 7 b9 08 32
        E 7 b9 08 32
        E 7 b9 08 32
        E 7 b9 08 32
        E 7 b9 08 32
        E 7 b9 08 32
        E 7 b9 08 32
        E 7 b9 08 32
        E 7 b9 08 32
        E 7 b9 08 32
        E 7 b9 08 32
        E 7 b9 08 31
        E 7 b9 08 31
        E 7 b9 08 30
        E 7 b9 08 30
        E 7 b9 08 2f
        E 7 b9 08 2e
        E 7 b9 08 2e
        E 7 b9 08 2d
        E 7 b9 08 2c
        E 7 b9 08 2c
        E 7 b9 08 2b
        E 7 b9 08 2a
        E 7 b9 08 29
        E 7 b9 08 28
        E 7 b9 08 27
        E 7 b9 08 26
        E 7 b9 08 24
        E 7 b9 08 23
        E 7 b9 08 22
        E 7 b9 08 21
        E 7 b9 08 20
        E 7 b9 08 1f
        E 7 b9 08 1d
        E 7 b9 08 1c
        E 7 b9 08 1b
        E 7 b9 08 1a
        E 7 b9 08 18
        E 7 b9 08 17
        E 7 b9 08 16
        E 7 b9 08 15
        E 7 b9 08 13
        E 7 b9 08 12
        E 7 b9 08 11
        E 7 b9 08 10
        E 7 b9 08 0f
        E 7 b9 08 0e
        E 7 b9 08 0c
        E 7 b9 08 0b
        E 7 b9 08 0a
        E 7 b9 08 09
        E 7 b9 08 08
        E 7 b9 08 07
        E 7 b9 08 06
        E 7 b9 08 06
        E 7 b9 08 05
        E 7 b9 08 04
        E 7 b9 08 04
        E 7 b9 08 03
        E 7 b9 08 02
        E 7 b9 08 02
        E 7 b9 08 01
        E 7 b9 08 01
        E 7 b9 08 00
        E 7 b9 08 00
        E 7 b9 08 00
        E 7 b9 08 00
        E 7 b9 08 00
        E 7 b9 08 00
        E 7 b9 08 00
        E 7 b9 08 00
        E 7 b9 08 00
        E 7 b9 08 00
        E 7 b9 08 00
        E 7 b9 08 01
        E 7 b9 08 01
        E 7 b9 08 02
        E 7 b9 08 02
        E 7 b9 08 02
        E 7 b9 08 03
        E 7 b9 08 04
        E 7 b9 08 04
        E 7 b9 08 05
        E 7 b9 08 06
        E 7 b9 08 07
        E 7 b9 08 08
        E 7 b9 08 09
        E 7 b9 08 0a
        E 7 b9 08 0b
        E 7 b9 08 0c
        E 7 b9 08 0d
        E 7 b9 08 0e
        E 7 b9 08 0f
        E 7 b9 08 10
        E 7 b9 08 12
        E 7 b9 08 13
        E 7 b9 08 14
        E 7 b9 08 15
        E 7 b9 08 16
        E 7 b9 08 18
        E 7 b9 08 19
        E 71 b9 08 13
        E 71 b9 08 14
        E 71 b9 08 15
        E 71 b9 08 15
        E 71 b9 08 16
        E 71 b9 08 17
        E 71 b9 08 18
        E 71 b9 08 19
        E 71 b9 08 1a
        E 71 b9 08 1b
        E 71 b9 08 1c
        E 71 b9 08 1c
        E 71 b9 08 1d
        E 71 b9 08 1e
        E 71 b9 08 1f
        E 71 b9 08 1f
        E 71 b9 08 20
        E 71 b9 08 21
        E 71 b9 08 21
        E 71 b9 08 22
        E 71 b9 08 23
        E 71 b9 08 23
        E 71 b9 08 24
        E 71 b9 08 24
        E 71 b9 08 24
        E 71 b9 08 24
        E 71 b9 08 25
        E 71 b9 08 25
        E 71 b9 08 25
        E 71 b9 08 25
        E 71 b9 08 26
        E 71 b9 08 26
        E 71 b9 08 26
        E 71 b9 08 26
        E 71 b9 08 26
        E 71 b9 08 25
        E 71 b9 08 25
        E 71 b9 08 25
        E 71 b9 08 25
        E 71 b9 08 24
        E 71 b9 08 24
        E 71 b9 08 24
        E 71 b9 08 23
        E 71 b9 08 23
        E 71 b9 08 22
        E 71 b9 08 22
        E 71 b9 08 21
        E 71 b9 08 21
        E 71 b9 08 20
        E 71 b9 08 1f
        E 71 b9 08 1e
        E 71 b9 08 1e
        E 71 b9 08 1d
        E 71 b9 08 1c
        E 71 b9 08 1b
        E 71 b9 08 1a
        E 71 b9 08 1a
        E 71 b9 08 19
        E 71 b9 08 18
        E 71 b9 08 17
        E 71 b9 08 16
        E 71 b9 08 15
        E 71 b9 08 14
        E 71 b9 08 13
        E 71 b9 08 12
        E 71 b9 08 11
        E 71 b9 08 10
        E 71 b9 08 0f
        E 71 b9 08 0e
        E 71 b9 08 0d
        E 71 b9 08 0c
        E 71 b9 08 0c
        E 71 b9 08 0b
        E 71 b9 08 0a
        E 71 b9 08 09
        E 71 b9 08 08
        E 71 b9 08 08
        E 71 b9 08 07
        E 71 b9 08 06
        E 71 b9 08 05
        E 71 b9 08 05
        E 71 b9 08 04
        E 71 b9 08 03
        E 71 b9 08 03
        E 71 b9 08 03
        E 71 b9 08 02
        E 71 b9 08 02
        E 71 b9 08 01
        E 71 b9 08 01
        E 71 b9 08 00
        E 71 b9 08 00
        E 71 b9 08 00
        E 71 b9 08 00
        E 71 b9 08 00
        E 71 b9 08 00
        E 71 b9 08 00
        E 71 b9 08 00
        E 71 b9 08 00
        E 71 b9 08 00
        E 71 b9 08 00
        E 71 b9 08 00
        E 71 b9 08 00
        E 71 b9 08 01
        E 71 b9 08 01
        E 71 b9 08 01
        E 71 b9 08 02
        E 71 b9 08 02
        E 71 b9 08 03
        E 71 b9 08 03
        E 71 b9 08 04
        E 71 b9 08 04
        E 71 b9 08 05
        E 71 b9 08 06
        E 71 b9 08 06
        E 71 b9 08 07
        E 71 b9 08 08
        E 71 b9 08 09
        E 71 b9 08 09
        E 71 b9 08 0a
        E 71 b9 08 0b
        E 71 b9 08 0c
        E 71 b9 08 0d
        E 71 b9 08 0e
        E 71 b9 08 0f
        E 71 b9 08 10
        E 71 b9 08 11
        E 71 b9 08 12
        E 71 b9 08 13
        E 23 b9 08 26
        E 23 b9 08 28
        E 23 b9 08 2a
        E 23 b9 08 2b
        E 23 b9 08 2d
        E 23 b9 08 2f
        E 23 b9 08 31
        E 23 b9 08 33
        E 23 b9 08 34
        E 23 b9 08 36
        E 23 b9 08 38
        E 23 b9 08 39
        E 23 b9 08 3b
        E 23 b9 08 3d
        E 23 b9 08 3e
        E 23 b9 08 3f
        E 23 b9 08 41
        E 23 b9 08 42
        E 23 b9 08 43
        E 23 b9 08 45
        E 23 b9 08 46
        E 23 b9 08 46
        E 23 b9 08 48
        E 23 b9 08 48
        E 23 b9 08 49
        E 23 b9 08 49
        E 23 b9 08 4a
        E 23 b9 08 4b
        E 23 b9 08 4b
        E 23 b9 08 4b
        E 23 b9 08 4c
        E 23 b9 08 4c
        E 23 b9 08 4c
        E 23 b9 08 4c
        E 23 b9 08 4c
        E 23 b9 08 4b
        E 23 b9 08 4b
        E 23 b9 08 4b
        E 23 b9 08 4a
        E 23 b9 08 49
        E 23 b9 08 49
        E 23 b9 08 48
        E 23 b9 08 47
        E 23 b9 08 46
        E 23 b9 08 45
        E 23 b9 08 44
        E 23 b9 08 43
        E 23 b9 08 42
        E 23 b9 08 40
        E 23 b9 08 3f
        E 23 b9 08 3d
        E 23 b9 08 3c
        E 23 b9 08 3a
        E 23 b9 08 39
        E 23 b9 08 37
        E 23 b9 08 35
        E 23 b9 08 34
        E 23 b9 08 32
        E 23 b9 08 30
        E 23 b9 08 2e
        E 23 b9 08 2c
        E 23 b9 08 2a
        E 23 b9 08 28
        E 23 b9 08 27
        E 23 b9 08 25
        E 23 b9 08 23
        E 23 b9 08 21
        E 23 b9 08 1f
        E 23 b9 08 1d
        E 23 b9 08 1b
        E 23 b9 08 19
        E 23 b9 08 18
        E 23 b9 08 16
        E 23 b9 08 15
        E 23 b9 08 13
        E 23 b9 08 11
        E 23 b9 08 10
        E 23 b9 08 0e
        E 23 b9 08 0d
        E 23 b9 08 0b
        E 23 b9 08 0a
        E 23 b9 08 09
        E 23 b9 08 07
        E 23 b9 08 06
        E 23 b9 08 06
        E 23 b9 08 04
        E 23 b9 08 04
        E 23 b9 08 03
        E 23 b9 08 02
        E 23 b9 08 01
        E 23 b9 08 01
        E 23 b9 08 00
        E 23 b9 08 00
        E 23 b9 08 00
        E 23 b9 08 00
        E 23 b9 08 00
        E 23 b9 08 00
        E 23 b9 08 00
        E 23 b9 08 00
        E 23 b9 08 00
        E 23 b9 08 01
        E 23 b9 08 01
        E 23 b9 08 02
        E 23 b9 08 03
        E 23 b9 08 03
        E 23 b9 08 04
        E 23 b9 08 05
        E 23 b9 08 06
        E 23 b9 08 07
        E 23 b9 08 08
        E 23 b9 08 09
        E 23 b9 08 0a
        E 23 b9 08 0c
        E 23 b9 08 0d
        E 23 b9 08 0f
        E 23 b9 08 10
        E 23 b9 08 12
        E 23 b9 08 13
        E 23 b9 08 15
        E 23 b9 08 17
        E 23 b9 08 19
        E 23 b9 08 1b
        E 23 b9 08 1c
        E 23 b9 08 1e
        E 23 b9 08 20
        E 23 b9 08 22
        E 23 b9 08 24
        E 23 b9 08 26
        E 63 b9 08 39
        E 63 b9 08 3c
        E 63 b9 08 3f
        E 63 b9 08 41
        E 63 b9 08 44
        E 63 b9 08 47
        E 63 b9 08 49
        E 63 b9 08 4c
        E 63 b9 08 4f
        E 63 b9 08 51
        E 63 b9 08 54
        E 63 b9 08 56
        E 63 b9 08 59
        E 63 b9 08 5b
        E 63 b9 08 5d
        E 63 b9 08 5f
        E 63 b9 08 62
        E 63 b9 08 63
        E 63 b9 08 65
        E 63 b9 08 67
        E 63 b9 08 69
        E 63 b9 08 6a
        E 63 b9 08 6c
        E 63 b9 08 6c
        E 63 b9 08 6d
        E 63 b9 08 6e
        E 63 b9 08 6f
        E 63 b9 08 70
        E 63 b9 08 71
        E 63 b9 08 71
        E 63 b9 08 72
        E 63 b9 08 72
        E 63 b9 08 72
        E 63 b9 08 72
        E 63 b9 08 72
        E 63 b9 08 71
        E 63 b9 08 71
        E 63 b9 08 70
        E 63 b9 08 6f
        E 63 b9 08 6e
        E 63 b9 08 6d
        E 63 b9 08 6c
        E 63 b9 08 6b
        E 63 b9 08 69
        E 63 b9 08 68
        E 63 b9 08 66
        E 63 b9 08 64
        E 63 b9 08 63
        E 63 b9 08 61
        E 63 b9 08 5e
        E 63 b9 08 5c
        E 63 b9 08 5a
        E 63 b9 08 58
        E 63 b9 08 55
        E 63 b9 08 52
        E 63 b9 08 50
        E 63 b9 08 4e
        E 63 b9 08 4b
        E 63 b9 08 48
        E 63 b9 08 46
        E 63 b9 08 42
        E 63 b9 08 3f
        E 63 b9 08 3d
        E 63 b9 08 3a
        E 63 b9 08 37
        E 63 b9 08 35
        E 63 b9 08 32
        E 63 b9 08 2f
        E 63 b9 08 2c
        E 63 b9 08 29
        E 63 b9 08 26
        E 63 b9 08 24
        E 63 b9 08 22
        E 63 b9 08 1f
        E 63 b9 08 1c
        E 63 b9 08 1a
        E 63 b9 08 18
        E 63 b9 08 15
        E 63 b9 08 13
        E 63 b9 08 11
        E 63 b9 08 0f
        E 63 b9 08 0d
        E 63 b9 08 0b
        E 63 b9 08 09
        E 63 b9 08 09
        E 63 b9 08 07
        E 63 b9 08 06
        E 63 b9 08 04
        E 63 b9 08 03
        E 63 b9 08 02
        E 63 b9 08 01
        E 63 b9 08 00
        E 63 b9 08 00
        E 63 b9 08 00
        E 63 b9 08 00
        E 63 b9 08 00
        E 63 b9 08 00
        E 63 b9 08 00
        E 63 b9 08 00
        E 63 b9 08 00
        E 63 b9 08 01
        E 63 b9 08 02
        E 63 b9 08 03
        E 63 b9 08 04
        E 63 b9 08 05
        E 63 b9 08 06
        E 63 b9 08 08
        E 63 b9 08 09
        E 63 b9 08 0a
        E 63 b9 08 0c
        E 63 b9 08 0e
        E 63 b9 08 10
        E 63 b9 08 12
        E 63 b9 08 14
        E 63 b9 08 16
        E 63 b9 08 19
        E 63 b9 08 1b
        E 63 b9 08 1d
        E 63 b9 08 20
        E 63 b9 08 23
        E 63 b9 08 25
        E 63 b9 08 28
        E 63 b9 08 2b
        E 63 b9 08 2d
        E 63 b9 08 30
        E 63 b9 08 33
        E 63 b9 08 36
        E 63 b9 08 39
        E 7 b9 08 19
        E 7 b9 08 1a
        E 7 b9 08 1c
        E 7 b9 08 1d
        E 7 b9 08 1e
        E 7 b9 08 1f
        E 7 b9 08 20
        E 7 b9 08 22
        E 7 b9 08 23
        E 7 b9 08 24
        E 7 b9 08 25
        E 7 b9 08 26
        E 7 b9 08 27
        E 7 b9 08 28
        E 7 b9 08 29
        E 7 b9 08 2a
        E 7 b9 08 2b
        E 7 b9 08 2c
        E 7 b9 08 2d
        E 7 b9 08 2e
        E 7 b9 08 2e
        E 7 b9 08 2f
        E 7 b9 08 30
        E 7 b9 08 30
        E 7 b9 08 30
        E 7 b9 08 31
        E 7 b9 08 31
        E 7 b9 08 32
        E 7 b9 08 32
        E 7 b9 08 32
        E 7 b9 08 32
        E 7 b9 08 32
        E 7 b9 08 32
        E 7 b9 08 32
        E 7 b9 08 32
        E 7 b9 08 32
        E 7 b9 08 32
        E 7 b9 08 32
        E 7 b9 08 31
        E 7 b9 08 31
        E 7 b9 08 30
        E 7 b9 08 30
        E 7 b9 08 2f
        E 7 b9 08 2e
        E 7 b9 08 2e
        E 7 b9 08 2d
        E 7 b9 08 2c
        E 7 b9 08 2c
        E 7 b9 08 2b
        E 7 b9 08 2a
        E 7 b9 08 29
        E 7 b9 08 28
        E 7 b9 08 27
        E 7 b9 08 26
        E 7 b9 08 24
        E 7 b9 08 23
        E 7 b9 08 22
        E 7 b9 08 21
        E 7 b9 08 20
        E 7 b9 08 1f
        E 7 b9 08 1d
        E 7 b9 08 1c
        E 7 b9 08 1b
        E 7 b9 08 1a
        E 7 b9 08 18
        E 7 b9 08 17
        E 7 b9 08 16
        E 7 b9 08 15
        E 7 b9 08 13
        E 7 b9 08 12
        E 7 b9 08 11
        E 7 b9 08 10
        E 7 b9 08 0f
        E 7 b9 08 0e
        E 7 b9 08 0c
        E 7 b9 08 0b
        E 7 b9 08 0a
        E 7 b9 08 09
        E 7 b9 08 08
        E 7 b9 08 07
        E 7 b9 08 06
        E 7 b9 08 06
        E 7 b9 08 05
        E 7 b9 08 04
        E 7 b9 08 04
        E 7 b9 08 03
        E 7 b9 08 02
        E 7 b9 08 02
        E 7 b9 08 01
        E 7 b9 08 01
        E 7 b9 08 00
        E 7 b9 08 00
        E 7 b9 08 00
        E 7 b9 08 00
        E 7 b9 08 00
        E 7 b9 08 00
        E 7 b9 08 00
        E 7 b9 08 00
        E 7 b9 08 00
        E 7 b9 08 00
        E 7 b9 08 00
        E 7 b9 08 01
        E 7 b9 08 01
        E 7 b9 08 02
        E 7 b9 08 02
        E 7 b9 08 02
        E 7 b9 08 03
        E 7 b9 08 04
        E 7 b9 08 04
        E 7 b9 08 05
        E 7 b9 08 06
        E 7 b9 08 07
        E 7 b9 08 08
        E 7 b9 08 09
        E 7 b9 08 0a
        E 7 b9 08 0b
        E 7 b9 08 0c
        E 7 b9 08 0d
        E 7 b9 08 0e
        E 7 b9 08 0f
        E 7 b9 08 10
        E 7 b9 08 12
        E 7 b9 08 13
        E 7 b9 08 14
        E 7 b9 08 15
        E 7 b9 08 16
        E 7 b9 08 18
        E 7 b9 08 19
        E 71 b9 08 06
        E 71 b9 08 06
        E 71 b9 08 07
        E 71 b9 08 07
        E 71 b9 08 07
        E 71 b9 08 07
        E 71 b9 08 08
        E 71 b9 08 08
        E 71 b9 08 08
        E 71 b9 08 09
        E 71 b9 08 09
        E 71 b9 08 09
        E 71 b9 08 09
        E 71 b9 08 0a
        E 71 b9 08 0a
        E 71 b9 08 0a
        E 71 b9 08 0a
        E 71 b9 08 0b
        E 71 b9 08 0b
        E 71 b9 08 0b
        E 71 b9 08 0b
        E 71 b9 08 0b
        E 71 b9 08 0c
        E 71 b9 08 0c
        E 71 b9 08 0c
        E 71 b9 08 0c
        E 71 b9 08 0c
        E 71 b9 08 0c
        E 71 b9 08 0c
        E 71 b9 08 0c
        E 71 b9 08 0c
        E 71 b9 08 0c
        E 71 b9 08 0c
        E 71 b9 08 0c
        E 71 b9 08 0c
        E 71 b9 08 0c
        E 71 b9 08 0c
        E 71 b9 08 0c
        E 71 b9 08 0c
        E 71 b9 08 0c
        E 71 b9 08 0c
        E 71 b9 08 0c
        E 71 b9 08 0b
        E 71 b9 08 0b
        E 71 b9 08 0b
        E 71 b9 08 0b
        E 71 b9 08 0b
        E 71 b9 08 0b
        E 71 b9 08 0a
        E 71 b9 08 0a
        E 71 b9 08 0a
        E 71 b9 08 0a
        E 71 b9 08 09
        E 71 b9 08 09
        E 71 b9 08 09
        E 71 b9 08 08
        E 71 b9 08 08
        E 71 b9 08 08
        E 71 b9 08 08
        E 71 b9 08 07
        E 71 b9 08 07
        E 71 b9 08 07
        E 71 b9 08 06
        E 71 b9 08 06
        E 71 b9 08 06
        E 71 b9 08 05
        E 71 b9 08 05
        E 71 b9 08 05
        E 71 b9 08 04
        E 71 b9 08 04
        E 71 b9 08 04
        E 71 b9 08 04
        E 71 b9 08 03
        E 71 b9 08 03
        E 71 b9 08 03
        E 71 b9 08 02
        E 71 b9 08 02
        E 71 b9 08 02
        E 71 b9 08 02
        E 71 b9 08 01
        E 71 b9 08 01
        E 71 b9 08 01
        E 71 b9 08 01
        E 71 b9 08 01
        E 71 b9 08 01
        E 71 b9 08 00
        E 71 b9 08 00
        E 71 b9 08 00
        E 71 b9 08 00
        E 71 b9 08 00
        E 71 b9 08 00
        E 71 b9 08 00
        E 71 b9 08 00
        E 71 b9 08 00
        E 71 b9 08 00
        E 71 b9 08 00
        E 71 b9 08 00
        E 71 b9 08 00
        E 71 b9 08 00
        E 71 b9 08 00
        E 71 b9 08 00
        E 71 b9 08 00
        E 71 b9 08 00
        E 71 b9 08 00
        E 71 b9 08 00
        E 71 b9 08 00
        E 71 b9 08 00
        E 71 b9 08 01
        E 71 b9 08 01
        E 71 b9 08 01
        E 71 b9 08 01
        E 71 b9 08 01
        E 71 b9 08 02
        E 71 b9 08 02
        E 71 b9 08 02
        E 71 b9 08 02
        E 71 b9 08 03
        E 71 b9 08 03
        E 71 b9 08 03
        E 71 b9 08 03
        E 71 b9 08 04
        E 71 b9 08 04
        E 71 b9 08 04
        E 71 b9 08 05
        E 71 b9 08 05
        E 71 b9 08 05
        E 71 b9 08 06
        E 71 b9 08 06
        E 63 b9 08 2c
        E 63 b9 08 2e
        E 63 b9 08 31
        E 63 b9 08 33
        E 63 b9 08 35
        E 63 b9 08 37
        E 63 b9 08 39
        E 63 b9 08 3b
        E 63 b9 08 3d
        E 63 b9 08 3f
        E 63 b9 08 41
        E 63 b9 08 43
        E 63 b9 08 45
        E 63 b9 08 47
        E 63 b9 08 48
        E 63 b9 08 4a
        E 63 b9 08 4c
        E 63 b9 08 4d
        E 63 b9 08 4f
        E 63 b9 08 50
        E 63 b9 08 51
        E 63 b9 08 52
        E 63 b9 08 54
        E 63 b9 08 54
        E 63 b9 08 55
        E 63 b9 08 56
        E 63 b9 08 56
        E 63 b9 08 57
        E 63 b9 08 58
        E 63 b9 08 58
        E 63 b9 08 58
        E 63 b9 08 58
        E 63 b9 08 58
        E 63 b9 08 58
        E 63 b9 08 58
        E 63 b9 08 58
        E 63 b9 08 58
        E 63 b9 08 57
        E 63 b9 08 56
        E 63 b9 08 56
        E 63 b9 08 55
        E 63 b9 08 54
        E 63 b9 08 53
        E 63 b9 08 51
        E 63 b9 08 51
        E 63 b9 08 4f
        E 63 b9 08 4e
        E 63 b9 08 4d
        E 63 b9 08 4b
        E 63 b9 08 49
        E 63 b9 08 48
        E 63 b9 08 46
        E 63 b9 08 44
        E 63 b9 08 42
        E 63 b9 08 40
        E 63 b9 08 3e
        E 63 b9 08 3c
        E 63 b9 08 3a
        E 63 b9 08 38
        E 63 b9 08 36
        E 63 b9 08 33
        E 63 b9 08 31
        E 63 b9 08 2f
        E 63 b9 08 2d
        E 63 b9 08 2b
        E 63 b9 08 29
        E 63 b9 08 27
        E 63 b9 08 25
        E 63 b9 08 22
        E 63 b9 08 20
        E 63 b9 08 1e
        E 63 b9 08 1c
        E 63 b9 08 1a
        E 63 b9 08 18
        E 63 b9 08 16
        E 63 b9 08 14
        E 63 b9 08 12
        E 63 b9 08 10
        E 63 b9 08 0f
        E 63 b9 08 0d
        E 63 b9 08 0b
        E 63 b9 08 0a
        E 63 b9 08 09
        E 63 b9 08 07
        E 63 b9 08 07
        E 63 b9 08 05
        E 63 b9 08 04
        E 63 b9 08 03
        E 63 b9 08 02
        E 63 b9 08 02
        E 63 b9 08 01
        E 63 b9 08 00
        E 63 b9 08 00
        E 63 b9 08 00
        E 63 b9 08 00
        E 63 b9 08 00
        E 63 b9 08 00
        E 63 b9 08 00
        E 63 b9 08 00
        E 63 b9 08 00
        E 63 b9 08 01
        E 63 b9 08 02
        E 63 b9 08 02
        E 63 b9 08 03
        E 63 b9 08 04
        E 63 b9 08 04
        E 63 b9 08 06
        E 63 b9 08 07
        E 63 b9 08 08
        E 63 b9 08 09
        E 63 b9 08 0b
        E 63 b9 08 0c
        E 63 b9 08 0e
        E 63 b9 08 10
        E 63 b9 08 11
        E 63 b9 08 13
        E 63 b9 08 15
        E 63 b9 08 17
        E 63 b9 08 19
        E 63 b9 08 1b
        E 63 b9 08 1d
        E 63 b9 08 1f
        E 63 b9 08 21
        E 63 b9 08 23
        E 63 b9 08 25
        E 63 b9 08 27
        E 63 b9 08 2a
        E 63 b9 08 2c
        E 71 b9 08 13
        E 71 b9 08 14
        E 71 b9 08 15
        E 71 b9 08 15
        E 71 b9 08 16
        E 71 b9 08 17
        E 71 b9 08 18
        E 71 b9 08 19
        E 71 b9 08 1a
        E 71 b9 08 1b
        E 71 b9 08 1c
        E 71 b9 08 1c
        E 71 b9 08 1d
        E 71 b9 08 1e
        E 71 b9 08 1f
        E 71 b9 08 1f
        E 71 b9 08 20
        E 71 b9 08 21
        E 71 b9 08 21
        E 71 b9 08 22
        E 71 b9 08 23
        E 71 b9 08 23
        E 71 b9 08 24
        E 71 b9 08 24
        E 71 b9 08 24
        E 71 b9 08 24
        E 71 b9 08 25
        E 71 b9 08 25
        E 71 b9 08 25
        E 71 b9 08 25
        E 71 b9 08 26
        E 71 b9 08 26
        E 71 b9 08 26
        E 71 b9 08 26
        E 71 b9 08 26
        E 71 b9 08 25
        E 71 b9 08 25
        E 71 b9 08 25
        E 71 b9 08 25
        E 71 b9 08 24
        E 71 b9 08 24
        E 71 b9 08 24
        E 71 b9 08 23
        E 71 b9 08 23
        E 71 b9 08 22
        E 71 b9 08 22
        E 71 b9 08 21
        E 71 b9 08 21
        E 71 b9 08 20
        E 71 b9 08 1f
        E 71 b9 08 1e
        E 71 b9 08 1e
        E 71 b9 08 1d
        E 71 b9 08 1c
        E 71 b9 08 1b
        E 71 b9 08 1a
        E 71 b9 08 1a
        E 71 b9 08 19
        E 71 b9 08 18
        E 71 b9 08 17
        E 71 b9 08 16
        E 71 b9 08 15
        E 71 b9 08 14
        E 71 b9 08 13
        E 71 b9 08 12
        E 71 b9 08 11
        E 71 b9 08 10
        E 71 b9 08 0f
        E 71 b9 08 0e
        E 71 b9 08 0d
        E 71 b9 08 0c
        E 71 b9 08 0c
        E 71 b9 08 0b
        E 71 b9 08 0a
        E 71 b9 08 09
        E 71 b9 08 08
        E 71 b9 08 08
        E 71 b9 08 07
        E 71 b9 08 06
        E 71 b9 08 05
        E 71 b9 08 05
        E 71 b9 08 04
        E 71 b9 08 03
        E 71 b9 08 03
        E 71 b9 08 03
        E 71 b9 08 02
        E 71 b9 08 02
        E 71 b9 08 01
        E 71 b9 08 01
        E 71 b9 08 00
        E 71 b9 08 00
        E 71 b9 08 00
        E 71 b9 08 00
        E 71 b9 08 00
        E 71 b9 08 00
        E 71 b9 08 00
        E 71 b9 08 00
        E 71 b9 08 00
        E 71 b9 08 00
        E 71 b9 08 00
        E 71 b9 08 00
        E 71 b9 08 00
        E 71 b9 08 01
        E 71 b9 08 01
        E 71 b9 08 01
        E 71 b9 08 02
        E 71 b9 08 02
        E 71 b9 08 03
        E 71 b9 08 03
        E 71 b9 08 04
        E 71 b9 08 04
        E 71 b9 08 05
        E 71 b9 08 06
        E 71 b9 08 06
        E 71 b9 08 07
        E 71 b9 08 08
        E 71 b9 08 09
        E 71 b9 08 09
        E 71 b9 08 0a
        E 71 b9 08 0b
        E 71 b9 08 0c
        E 71 b9 08 0d
        E 71 b9 08 0e
        E 71 b9 08 0f
        E 71 b9 08 10
        E 71 b9 08 11
        E 71 b9 08 12
        E 71 b9 08 13
        E 23 b9 08 26
        E 23 b9 08 28
        E 23 b9 08 2a
        E 23 b9 08 2b
        E 23 b9 08 2d
        E 23 b9 08 2f
        E 23 b9 08 31
        E 23 b9 08 33
        E 23 b9 08 34
        E 23 b9 08 36
        E 23 b9 08 38
        E 23 b9 08 39
        E 23 b9 08 3b
        E 23 b9 08 3d
        E 23 b9 08 3e
        E 23 b9 08 3f
        E 23 b9 08 41
        E 23 b9 08 42
        E 23 b9 08 43
        E 23 b9 08 45
        E 23 b9 08 46
        E 23 b9 08 46
        E 23 b9 08 48
        E 23 b9 08 48
        E 23 b9 08 49
        E 23 b9 08 49
        E 23 b9 08 4a
        E 23 b9 08 4b
        E 23 b9 08 4b
        E 23 b9 08 4b
        E 23 b9 08 4c
        E 23 b9 08 4c
        E 23 b9 08 4c
        E 23 b9 08 4c
        E 23 b9 08 4c
        E 23 b9 08 4b
        E 23 b9 08 4b
        E 23 b9 08 4b
        E 23 b9 08 4a
        E 23 b9 08 49
        E 23 b9 08 49
        E 23 b9 08 48
        E 23 b9 08 47
        E 23 b9 08 46
        E 23 b9 08 45
        E 23 b9 08 44
        E 23 b9 08 43
        E 23 b9 08 42
        E 23 b9 08 40
        E 23 b9 08 3f
        E 23 b9 08 3d
        E 23 b9 08 3c
        E 23 b9 08 3a
        E 23 b9 08 39
        E 23 b9 08 37
        E 23 b9 08 35
        E 23 b9 08 34
        E 23 b9 08 32
        E 23 b9 08 30
        E 23 b9 08 2e
        E 23 b9 08 2c
        E 23 b9 08 2a
        E 23 b9 08 28
        E 23 b9 08 27
        E 23 b9 08 25
        E 23 b9 08 23
        E 23 b9 08 21
        E 23 b9 08 1f
        E 23 b9 08 1d
        E 23 b9 08 1b
        E 23 b9 08 19
        E 23 b9 08 18
        E 23 b9 08 16
        E 23 b9 08 15
        E 23 b9 08 13
        E 23 b9 08 11
        E 23 b9 08 10
        E 23 b9 08 0e
        E 23 b9 08 0d
        E 23 b9 08 0b
        E 23 b9 08 0a
        E 23 b9 08 09
        E 23 b9 08 07
        E 23 b9 08 06
        E 23 b9 08 06
        E 23 b9 08 04
        E 23 b9 08 04
        E 23 b9 08 03
        E 23 b9 08 02
        E 23 b9 08 01
        E 23 b9 08 01
        E 23 b9 08 00
        E 23 b9 08 00
        E 23 b9 08 00
        E 23 b9 08 00
        E 23 b9 08 00
        E 23 b9 08 00
        E 23 b9 08 00
        E 23 b9 08 00
        E 23 b9 08 00
        E 23 b9 08 01
        E 23 b9 08 01
        E 23 b9 08 02
        E 23 b9 08 03
        E 23 b9 08 03
        E 23 b9 08 04
        E 23 b9 08 05
        E 23 b9 08 06
        E 23 b9 08 07
        E 23 b9 08 08
        E 23 b9 08 09
        E 23 b9 08 0a
        E 23 b9 08 0c
        E 23 b9 08 0d
        E 23 b9 08 0f
        E 23 b9 08 10
        E 23 b9 08 12
        E 23 b9 08 13
        E 23 b9 08 15
        E 23 b9 08 17
        E 23 b9 08 19
        E 23 b9 08 1b
        E 23 b9 08 1c
        E 23 b9 08 1e
        E 23 b9 08 20
        E 23 b9 08 22
        E 23 b9 08 24
        E 23 b9 08 26
        E 63 b9 08 39
        E 63 b9 08 3c
        E 63 b9 08 3f
        E 63 b9 08 41
        E 63 b9 08 44
        E 63 b9 08 47
        E 63 b9 08 49
        E 63 b9 08 4c
        E 63 b9 08 4f
        E 63 b9 08 51
        E 63 b9 08 54
        E 63 b9 08 56
        E 63 b9 08 59
        E 63 b9 08 5b
        E 63 b9 08 5d
        E 63 b9 08 5f
        E 63 b9 08 62
        E 63 b9 08 63
        E 63 b9 08 65
        E 63 b9 08 67
        E 63 b9 08 69
        E 63 b9 08 6a
        E 63 b9 08 6c
        E 63 b9 08 6c
        E 63 b9 08 6d
        E 63 b9 08 6e
        E 63 b9 08 6f
        E 63 b9 08 70
        E 63 b9 08 71
        E 63 b9 08 71
        E 63 b9 08 72
        E 63 b9 08 72
        E 63 b9 08 72
        E 63 b9 08 72
        E 63 b9 08 72
        E 63 b9 08 71
        E 63 b9 08 71
        E 63 b9 08 70
        E 63 b9 08 6f
        E 63 b9 08 6e
        E 63 b9 08 6d
        E 63 b9 08 6c
        E 63 b9 08 6b
        E 63 b9 08 69
        E 63 b9 08 68
        E 63 b9 08 66
        E 63 b9 08 64
        E 63 b9 08 63
        E 63 b9 08 61
        E 63 b9 08 5e
        E 63 b9 08 5c
        E 63 b9 08 5a
        E 63 b9 08 58
        E 63 b9 08 55
        E 63 b9 08 52
        E 63 b9 08 50
        E 63 b9 08 4e
        E 63 b9 08 4b
        E 63 b9 08 48
        E 63 b9 08 46
        E 63 b9 08 42
        E 63 b9 08 3f
        E 63 b9 08 3d
        E 63 b9 08 3a
        E 63 b9 08 37
        E 63 b9 08 35
        E 63 b9 08 32
        E 63 b9 08 2f
        E 63 b9 08 2c
        E 63 b9 08 29
        E 63 b9 08 26
        E 63 b9 08 24
        E 63 b9 08 22
        E 63 b9 08 1f
        E 63 b9 08 1c
        E 63 b9 08 1a
        E 63 b9 08 18
        E 63 b9 08 15
        E 63 b9 08 13
        E 63 b9 08 11
        E 63 b9 08 0f
        E 63 b9 08 0d
        E 63 b9 08 0b
        E 63 b9 08 09
        E 63 b9 08 09
        E 63 b9 08 07
        E 63 b9 08 06
        E 63 b9 08 04
        E 63 b9 08 03
        E 63 b9 08 02
        E 63 b9 08 01
        E 63 b9 08 00
        E 63 b9 08 00
        E 63 b9 08 00
        E 63 b9 08 00
        E 63 b9 08 00
        E 63 b9 08 00
        E 63 b9 08 00
        E 63 b9 08 00
        E 63 b9 08 00
        E 63 b9 08 01
        E 63 b9 08 02
        E 63 b9 08 03
        E 63 b9 08 04
        E 63 b9 08 05
        E 63 b9 08 06
        E 63 b9 08 08
        E 63 b9 08 09
        E 63 b9 08 0a
        E 63 b9 08 0c
        E 63 b9 08 0e
        E 63 b9 08 10
        E 63 b9 08 12
        E 63 b9 08 14
        E 63 b9 08 16
        E 63 b9 08 19
        E 63 b9 08 1b
        E 63 b9 08 1d
        E 63 b9 08 20
        E 63 b9 08 23
        E 63 b9 08 25
        E 63 b9 08 28
        E 63 b9 08 2b
        E 63 b9 08 2d
        E 63 b9 08 30
        E 63 b9 08 33
        E 63 b9 08 36
        E 63 b9 08 39
        E 7 b9 08 19
        E 7 b9 08 1a
        E 7 b9 08 1c
        E 7 b9 08 1d
        E 7 b9 08 1e
        E 7 b9 08 1f
        E 7 b9 08 20
        E 7 b9 08 22
        E 7 b9 08 23
        E 7 b9 08 24
        E 7 b9 08 25
        E 7 b9 08 26
        E 7 b9 08 27
        E 7 b9 08 28
        E 7 b9 08 29
        E 7 b9 08 2a
        E 7 b9 08 2b
        E 7 b9 08 2c
        E 7 b9 08 2d
        E 7 b9 08 2e
        E 7 b9 08 2e
        E 7 b9 08 2f
        E 7 b9 08 30
        E 7 b9 08 30
        E 7 b9 08 30
        E 7 b9 08 31
        E 7 b9 08 31
        E 7 b9 08 32
        E 7 b9 08 32
        E 7 b9 08 32
        E 7 b9 08 32
        E 7 b9 08 32
        E 7 b9 08 32
        E 7 b9 08 32
        E 7 b9 08 32
        E 7 b9 08 32
        E 7 b9 08 32
        E 7 b9 08 32
        E 7 b9 08 31
        E 7 b9 08 31
        E 7 b9 08 30
        E 7 b9 08 30
        E 7 b9 08 2f
        E 7 b9 08 2e
        E 7 b9 08 2e
        E 7 b9 08 2d
        E 7 b9 08 2c
        E 7 b9 08 2c
        E 7 b9 08 2b
        E 7 b9 08 2a
        E 7 b9 08 29
        E 7 b9 08 28
        E 7 b9 08 27
        E 7 b9 08 26
        E 7 b9 08 24
        E 7 b9 08 23
        E 7 b9 08 22
        E 7 b9 08 21
        E 7 b9 08 20
        E 7 b9 08 1f
        E 7 b9 08 1d
        E 7 b9 08 1c
        E 7 b9 08 1b
        E 7 b9 08 1a
        E 7 b9 08 18
        E 7 b9 08 17
        E 7 b9 08 16
        E 7 b9 08 15
        E 7 b9 08 13
        E 7 b9 08 12
        E 7 b9 08 11
        E 7 b9 08 10
        E 7 b9 08 0f
        E 7 b9 08 0e
        E 7 b9 08 0c
        E 7 b9 08 0b
        E 7 b9 08 0a
        E 7 b9 08 09
        E 7 b9 08 08
        E 7 b9 08 07
        E 7 b9 08 06
        E 7 b9 08 06
        E 7 b9 08 05
        E 7 b9 08 04
        E 7 b9 08 04
        E 7 b9 08 03
        E 7 b9 08 02
        E 7 b9 08 02
        E 7 b9 08 01
        E 7 b9 08 01
        E 7 b9 08 00
        E 7 b9 08 00
        E 7 b9 08 00
        E 7 b9 08 00
        E 7 b9 08 00
        E 7 b9 08 00
        E 7 b9 08 00
        E 7 b9 08 00
        E 7 b9 08 00
        E 7 b9 08 00
        E 7 b9 08 00
        E 7 b9 08 01
        E 7 b9 08 01
        E 7 b9 08 02
        E 7 b9 08 02
        E 7 b9 08 02
        E 7 b9 08 03
        E 7 b9 08 04
        E 7 b9 08 04
        E 7 b9 08 05
        E 7 b9 08 06
        E 7 b9 08 07
        E 7 b9 08 08
        E 7 b9 08 09
        E 7 b9 08 0a
        E 7 b9 08 0b
        E 7 b9 08 0c
        E 7 b9 08 0d
        E 7 b9 08 0e
        E 7 b9 08 0f
        E 7 b9 08 10
        E 7 b9 08 12
        E 7 b9 08 13
        E 7 b9 08 14
        E 7 b9 08 15
        E 7 b9 08 16
        E 7 b9 08 18
        E 7 b9 08 19
        E 71 b9 08 06
        E 71 b9 08 06
        E 71 b9 08 07
        E 71 b9 08 07
        E 71 b9 08 07
        E 71 b9 08 07
        E 71 b9 08 08
        E 71 b9 08 08
        E 71 b9 08 08
        E 71 b9 08 09
        E 71 b9 08 09
        E 71 b9 08 09
        E 71 b9 08 09
        E 71 b9 08 0a
        E 71 b9 08 0a
        E 71 b9 08 0a
        E 71 b9 08 0a
        E 71 b9 08 0b
        E 71 b9 08 0b
        E 71 b9 08 0b
        E 71 b9 08 0b
        E 71 b9 08 0b
        E 71 b9 08 0c
        E 71 b9 08 0c
        E 71 b9 08 0c
        E 71 b9 08 0c
        E 71 b9 08 0c
        E 71 b9 08 0c
        E 71 b9 08 0c
        E 71 b9 08 0c
        E 71 b9 08 0c
        E 71 b9 08 0c
        E 71 b9 08 0c
        E 71 b9 08 0c
        E 71 b9 08 0c
        E 71 b9 08 0c
        E 71 b9 08 0c
        E 71 b9 08 0c
        E 71 b9 08 0c
        E 71 b9 08 0c
        E 71 b9 08 0c
        E 71 b9 08 0c
        E 71 b9 08 0b
        E 71 b9 08 0b
        E 71 b9 08 0b
        E 71 b9 08 0b
        E 71 b9 08 0b
        E 71 b9 08 0b
        E 71 b9 08 0a
        E 71 b9 08 0a
        E 71 b9 08 0a
        E 71 b9 08 0a
        E 71 b9 08 09
        E 71 b9 08 09
        E 71 b9 08 09
        E 71 b9 08 08
        E 71 b9 08 08
        E 71 b9 08 08
        E 71 b9 08 08
        E 71 b9 08 07
        E 71 b9 08 07
        E 71 b9 08 07
        E 71 b9 08 06
        E 71 b9 08 06
        E 71 b9 08 06
        E 71 b9 08 05
        E 71 b9 08 05
        E 71 b9 08 05
        E 71 b9 08 04
        E 71 b9 08 04
        E 71 b9 08 04
        E 71 b9 08 04
        E 71 b9 08 03
        E 71 b9 08 03
        E 71 b9 08 03
        E 71 b9 08 02
        E 71 b9 08 02
        E 71 b9 08 02
        E 71 b9 08 02
        E 71 b9 08 01
        E 71 b9 08 01
        E 71 b9 08 01
        E 71 b9 08 01
        E 71 b9 08 01
        E 71 b9 08 01
        E 71 b9 08 00
        E 71 b9 08 00
        E 71 b9 08 00
        E 71 b9 08 00
        E 71 b9 08 00
        E 71 b9 08 00
        E 71 b9 08 00
        E 71 b9 08 00
        E 71 b9 08 00
        E 71 b9 08 00
        E 71 b9 08 00
        E 71 b9 08 00
        E 71 b9 08 00
        E 71 b9 08 00
        E 71 b9 08 00
        E 71 b9 08 00
        E 71 b9 08 00
        E 71 b9 08 00
        E 71 b9 08 00
        E 71 b9 08 00
        E 71 b9 08 00
        E 71 b9 08 00
        E 71 b9 08 01
        E 71 b9 08 01
        E 71 b9 08 01
        E 71 b9 08 01
        E 71 b9 08 01
        E 71 b9 08 02
        E 71 b9 08 02
        E 71 b9 08 02
        E 71 b9 08 02
        E 71 b9 08 03
        E 71 b9 08 03
        E 71 b9 08 03
        E 71 b9 08 03
        E 71 b9 08 04
        E 71 b9 08 04
        E 71 b9 08 04
        E 71 b9 08 05
        E 71 b9 08 05
        E 71 b9 08 05
        E 71 b9 08 06
        E 71 b9 08 06
        E 63 b9 08 2c
        E 63 b9 08 2e
        E 63 b9 08 31
        E 63 b9 08 33
        E 63 b9 08 35
        E 63 b9 08 37
        E 63 b9 08 39
        E 63 b9 08 3b
        E 63 b9 08 3d
        E 63 b9 08 3f
        E 63 b9 08 41
        E 63 b9 08 43
        E 63 b9 08 45
        E 63 b9 08 47
        E 63 b9 08 48
        E 63 b9 08 4a
        E 63 b9 08 4c
        E 63 b9 08 4d
        E 63 b9 08 4f
        E 63 b9 08 50
        E 63 b9 08 51
        E 63 b9 08 52
        E 63 b9 08 54
        E 63 b9 08 54
        E 63 b9 08 55
        E 63 b9 08 56
        E 63 b9 08 56
        E 63 b9 08 57
        E 63 b9 08 58
        E 63 b9 08 58
        E 63 b9 08 58
        E 63 b9 08 58
        E 63 b9 08 58
        E 63 b9 08 58
        E 63 b9 08 58
        E 63 b9 08 58
        E 63 b9 08 58
        E 63 b9 08 57
        E 63 b9 08 56
        E 63 b9 08 56
        E 63 b9 08 55
        E 63 b9 08 54
        E 63 b9 08 53
        E 63 b9 08 51
        E 63 b9 08 51
        E 63 b9 08 4f
        E 63 b9 08 4e
        E 63 b9 08 4d
        E 63 b9 08 4b
        E 63 b9 08 49
        E 63 b9 08 48
        E 63 b9 08 46
        E 63 b9 08 44
        E 63 b9 08 42
        E 63 b9 08 40
        E 63 b9 08 3e
        E 63 b9 08 3c
        E 63 b9 08 3a
        E 63 b9 08 38
        E 63 b9 08 36
        E 63 b9 08 33
        E 63 b9 08 31
        E 63 b9 08 2f
        E 63 b9 08 2d
        E 63 b9 08 2b
        E 63 b9 08 29
        E 63 b9 08 27
        E 63 b9 08 25
        E 63 b9 08 22
        E 63 b9 08 20
        E 63 b9 08 1e
        E 63 b9 08 1c
        E 63 b9 08 1a
        E 63 b9 08 18
        E 63 b9 08 16
        E 63 b9 08 14
        E 63 b9 08 12
        E 63 b9 08 10
        E 63 b9 08 0f
        E 63 b9 08 0d
        E 63 b9 08 0b
        E 63 b9 08 0a
        E 63 b9 08 09
        E 63 b9 08 07
        E 63 b9 08 07
        E 63 b9 08 05
        E 63 b9 08 04
        E 63 b9 08 03
        E 63 b9 08 02
        E 63 b9 08 02
        E 63 b9 08 01
        E 63 b9 08 00
        E 63 b9 08 00
        E 63 b9 08 00
        E 63 b9 08 00
        E 63 b9 08 00
        E 63 b9 08 00
        E 63 b9 08 00
        E 63 b9 08 00
        E 63 b9 08 00
        E 63 b9 08 01
        E 63 b9 08 02
        E 63 b9 08 02
        E 63 b9 08 03
        E 63 b9 08 04
        E 63 b9 08 04
        E 63 b9 08 06
        E 63 b9 08 07
        E 63 b9 08 08
        E 63 b9 08 09
        E 63 b9 08 0b
        E 63 b9 08 0c
        E 63 b9 08 0e
        E 63 b9 08 10
        E 63 b9 08 11
        E 63 b9 08 13
        E 63 b9 08 15
        E 63 b9 08 17
        E 63 b9 08 19
        E 63 b9 08 1b
        E 63 b9 08 1d
        E 63 b9 08 1f
        E 63 b9 08 21
        E 63 b9 08 23
        E 63 b9 08 25
        E 63 b9 08 27
        E 63 b9 08 2a
        E 63 b9 08 2c
        E 71 b9 08 13
        E 71 b9 08 14
        E 71 b9 08 15
        E 71 b9 08 15
        E 71 b9 08 16
        E 71 b9 08 17
        E 71 b9 08 18
        E 71 b9 08 19
        E 71 b9 08 1a
        E 71 b9 08 1b
        E 71 b9 08 1c
        E 71 b9 08 1c
        E 71 b9 08 1d
        E 71 b9 08 1e
        E 71 b9 08 1f
        E 71 b9 08 1f
        E 71 b9 08 20
        E 71 b9 08 21
        E 71 b9 08 21
        E 71 b9 08 22
        E 71 b9 08 23
        E 71 b9 08 23
        E 71 b9 08 24
        E 71 b9 08 24
        E 71 b9 08 24
        E 71 b9 08 24
        E 71 b9 08 25
        E 71 b9 08 25
        E 71 b9 08 25
        E 71 b9 08 25
        E 71 b9 08 26
        E 71 b9 08 26
        E 71 b9 08 26
        E 71 b9 08 26
        E 71 b9 08 26
        E 71 b9 08 25
        E 71 b9 08 25
        E 71 b9 08 25
        E 71 b9 08 25
        E 71 b9 08 24
        E 71 b9 08 24
        E 71 b9 08 24
        E 71 b9 08 23
        E 71 b9 08 23
        E 71 b9 08 22
        E 71 b9 08 22
        E 71 b9 08 21
        E 71 b9 08 21
        E 71 b9 08 20
        E 71 b9 08 1f
        E 71 b9 08 1e
        E 71 b9 08 1e
        E 71 b9 08 1d
        E 71 b9 08 1c
        E 71 b9 08 1b
        E 71 b9 08 1a
        E 71 b9 08 1a
        E 71 b9 08 19
        E 71 b9 08 18
        E 71 b9 08 17
        E 71 b9 08 16
        E 71 b9 08 15
        E 71 b9 08 14
        E 71 b9 08 13
        E 71 b9 08 12
        E 71 b9 08 11
        E 71 b9 08 10
        E 71 b9 08 0f
        E 71 b9 08 0e
        E 71 b9 08 0d
        E 71 b9 08 0c
        E 71 b9 08 0c
        E 71 b9 08 0b
        E 71 b9 08 0a
        E 71 b9 08 09
        E 71 b9 08 08
        E 71 b9 08 08
        E 71 b9 08 07
        E 71 b9 08 06
        E 71 b9 08 05
        E 71 b9 08 05
        E 71 b9 08 04
        E 71 b9 08 03
        E 71 b9 08 03
        E 71 b9 08 03
        E 71 b9 08 02
        E 71 b9 08 02
        E 71 b9 08 01
        E 71 b9 08 01
        E 71 b9 08 00
        E 71 b9 08 00
        E 71 b9 08 00
        E 71 b9 08 00
        E 71 b9 08 00
        E 71 b9 08 00
        E 71 b9 08 00
        E 71 b9 08 00
        E 71 b9 08 00
        E 71 b9 08 00
        E 71 b9 08 00
        E 71 b9 08 00
        E 71 b9 08 00
        E 71 b9 08 01
        E 71 b9 08 01
        E 71 b9 08 01
        E 71 b9 08 02
        E 71 b9 08 02
        E 71 b9 08 03
        E 71 b9 08 03
        E 71 b9 08 04
        E 71 b9 08 04
        E 71 b9 08 05
        E 71 b9 08 06
        E 71 b9 08 06
        E 71 b9 08 07
        E 71 b9 08 08
        E 71 b9 08 09
        E 71 b9 08 09
        E 71 b9 08 0a
        E 71 b9 08 0b
        E 71 b9 08 0c
        E 71 b9 08 0d
        E 71 b9 08 0e
        E 71 b9 08 0f
        E 71 b9 08 10
        E 71 b9 08 11
        E 71 b9 08 12
        E 71 b9 08 13
        E 23 b9 08 26
        E 23 b9 08 28
        E 23 b9 08 2a
        E 23 b9 08 2b
        E 23 b9 08 2d
        E 23 b9 08 2f
        E 23 b9 08 31
        E 23 b9 08 33
        E 23 b9 08 34
        E 23 b9 08 36
        E 23 b9 08 38
        E 23 b9 08 39
        E 23 b9 08 3b
        E 23 b9 08 3d
        E 23 b9 08 3e
        E 23 b9 08 3f
        E 23 b9 08 41
        E 23 b9 08 42
        E 23 b9 08 43
        E 23 b9 08 45
        E 23 b9 08 46
        E 23 b9 08 46
        E 23 b9 08 48
        E 23 b9 08 48
        E 23 b9 08 49
        E 23 b9 08 49
        E 23 b9 08 4a
        E 23 b9 08 4b
        E 23 b9 08 4b
        E 23 b9 08 4b
        E 23 b9 08 4c
        E 23 b9 08 4c
        E 23 b9 08 4c
        E 23 b9 08 4c
        E 23 b9 08 4c
        E 23 b9 08 4b
        E 23 b9 08 4b
        E 23 b9 08 4b
        E 23 b9 08 4a
        E 23 b9 08 49
        E 23 b9 08 49
        E 23 b9 08 48
        E 23 b9 08 47
        E 23 b9 08 46
        E 23 b9 08 45
        E 23 b9 08 44
        E 23 b9 08 43
        E 23 b9 08 42
        E 23 b9 08 40
        E 23 b9 08 3f
        E 23 b9 08 3d
        E 23 b9 08 3c
        E 23 b9 08 3a
        E 23 b9 08 39
        E 23 b9 08 37
        E 23 b9 08 35
        E 23 b9 08 34
        E 23 b9 08 32
        E 23 b9 08 30
        E 23 b9 08 2e
        E 23 b9 08 2c
        E 23 b9 08 2a
        E 23 b9 08 28
        E 23 b9 08 27
        E 23 b9 08 25
        E 23 b9 08 23
        E 23 b9 08 21
        E 23 b9 08 1f
        E 23 b9 08 1d
        E 23 b9 08 1b
        E 23 b9 08 19
        E 23 b9 08 18
        E 23 b9 08 16
        E 23 b9 08 15
        E 23 b9 08 13
        E 23 b9 08 11
        E 23 b9 08 10
        E 23 b9 08 0e
        E 23 b9 08 0d
        E 23 b9 08 0b
        E 23 b9 08 0a
        E 23 b9 08 09
        E 23 b9 08 07
        E 23 b9 08 06
        E 23 b9 08 06
        E 23 b9 08 04
        E 23 b9 08 04
        E 23 b9 08 03
        E 23 b9 08 02
        E 23 b9 08 01
        E 23 b9 08 01
        E 23 b9 08 00
        E 23 b9 08 00
        E 23 b9 08 00
        E 23 b9 08 00
        E 23 b9 08 00
        E 23 b9 08 00
        E 23 b9 08 00
        E 23 b9 08 00
        E 23 b9 08 00
        E 23 b9 08 01
        E 23 b9 08 01
        E 23 b9 08 02
        E 23 b9 08 03
        E 23 b9 08 03
        E 23 b9 08 04
        E 23 b9 08 05
        E 23 b9 08 06
        E 23 b9 08 07
        E 23 b9 08 08
        E 23 b9 08 09
        E 23 b9 08 0a
        E 23 b9 08 0c
        E 23 b9 08 0d
        E 23 b9 08 0f
        E 23 b9 08 10
        E 23 b9 08 12
        E 23 b9 08 13
        E 23 b9 08 15
        E 23 b9 08 17
        E 23 b9 08 19
        E 23 b9 08 1b
        E 23 b9 08 1c
        E 23 b9 08 1e
        E 23 b9 08 20
        E 23 b9 08 22
        E 23 b9 08 24
        E 23 b9 08 26
        E 63 b9 08 39
        E 63 b9 08 3c
        E 63 b9 08 3f
        E 63 b9 08 41
        E 63 b9 08 44
        E 63 b9 08 47
        E 63 b9 08 49
        E 63 b9 08 4c
        E 63 b9 08 4f
        E 63 b9 08 51
        E 63 b9 08 54
        E 63 b9 08 56
        E 63 b9 08 59
        E 63 b9 08 5b
        E 63 b9 08 5d
        E 63 b9 08 5f
        E 63 b9 08 62
        E 63 b9 08 63
        E 63 b9 08 65
        E 63 b9 08 67
        E 63 b9 08 69
        E 63 b9 08 6a
        E 63 b9 08 6c
        E 63 b9 08 6c
        E 63 b9 08 6d
        E 63 b9 08 6e
        E 63 b9 08 6f
        E 63 b9 08 70
        E 63 b9 08 71
        E 63 b9 08 71
        E 63 b9 08 72
        E 63 b9 08 72
        E 63 b9 08 72
        E 63 b9 08 72
        E 63 b9 08 72
        E 63 b9 08 71
        E 63 b9 08 71
        E 63 b9 08 70
        E 63 b9 08 6f
        E 63 b9 08 6e
        E 63 b9 08 6d
        E 63 b9 08 6c
        E 63 b9 08 6b
        E 63 b9 08 69
        E 63 b9 08 68
        E 63 b9 08 66
        E 63 b9 08 64
        E 63 b9 08 63
        E 63 b9 08 61
        E 63 b9 08 5e
        E 63 b9 08 5c
        E 63 b9 08 5a
        E 63 b9 08 58
        E 63 b9 08 55
        E 63 b9 08 52
        E 63 b9 08 50
        E 63 b9 08 4e
        E 63 b9 08 4b
        E 63 b9 08 48
        E 63 b9 08 46
        E 63 b9 08 42
        E 63 b9 08 3f
        E 63 b9 08 3d
        E 63 b9 08 3a
        E 63 b9 08 37
        E 63 b9 08 35
        E 63 b9 08 32
        E 63 b9 08 2f
        E 63 b9 08 2c
        E 63 b9 08 29
        E 63 b9 08 26
        E 63 b9 08 24
        E 63 b9 08 22
        E 63 b9 08 1f
        E 63 b9 08 1c
        E 63 b9 08 1a
        E 63 b9 08 18
        E 63 b9 08 15
        E 63 b9 08 13
        E 63 b9 08 11
        E 63 b9 08 0f
        E 63 b9 08 0d
        E 63 b9 08 0b
        E 63 b9 08 09
        E 63 b9 08 09
        E 63 b9 08 07
        E 63 b9 08 06
        E 63 b9 08 04
        E 63 b9 08 03
        E 63 b9 08 02
        E 63 b9 08 01
        E 63 b9 08 00
        E 63 b9 08 00
        E 63 b9 08 00
        E 63 b9 08 00
        E 63 b9 08 00
        E 63 b9 08 00
        E 63 b9 08 00
        E 63 b9 08 00
        E 63 b9 08 00
        E 63 b9 08 01
        E 63 b9 08 02
        E 63 b9 08 03
        E 63 b9 08 04
        E 63 b9 08 05
        E 63 b9 08 06
        E 63 b9 08 08
        E 63 b9 08 09
        E 63 b9 08 0a
        E 63 b9 08 0c
        E 63 b9 08 0e
        E 63 b9 08 10
        E 63 b9 08 12
        E 63 b9 08 14
        E 63 b9 08 16
        E 63 b9 08 19
        E 63 b9 08 1b
        E 63 b9 08 1d
        E 63 b9 08 20
        E 63 b9 08 23
        E 63 b9 08 25
        E 63 b9 08 28
        E 63 b9 08 2b
        E 63 b9 08 2d
        E 63 b9 08 30
        E 63 b9 08 33
        E 63 b9 08 36
        E 63 b9 08 39
        E 7 b9 08 19
        E 7 b9 08 1a
        E 7 b9 08 1c
        E 7 b9 08 1d
        E 7 b9 08 1e
        E 7 b9 08 1f
        E 7 b9 08 20
        E 7 b9 08 22
        E 7 b9 08 23
        E 7 b9 08 24
        E 7 b9 08 25
        E 7 b9 08 26
        E 7 b9 08 27
        E 7 b9 08 28
        E 7 b9 08 29
        E 7 b9 08 2a
        E 7 b9 08 2b
        E 7 b9 08 2c
        E 7 b9 08 2d
        E 7 b9 08 2e
        E 7 b9 08 2e
        E 7 b9 08 2f
        E 7 b9 08 30
        E 7 b9 08 30
        E 7 b9 08 30
        E 7 b9 08 31
        E 7 b9 08 31
        E 7 b9 08 32
        E 7 b9 08 32
        E 7 b9 08 32
        E 7 b9 08 32
        E 7 b9 08 32
        E 7 b9 08 32
        E 7 b9 08 32
        E 7 b9 08 32
        E 7 b9 08 32
        E 7 b9 08 32
        E 7 b9 08 32
        E 7 b9 08 31
        E 7 b9 08 31
        E 7 b9 08 30
        E 7 b9 08 30
        E 7 b9 08 2f
        E 7 b9 08 2e
        E 7 b9 08 2e
        E 7 b9 08 2d
        E 7 b9 08 2c
        E 7 b9 08 2c
        E 7 b9 08 2b
        E 7 b9 08 2a
        E 7 b9 08 29
        E 7 b9 08 28
        E 7 b9 08 27
        E 7 b9 08 26
        E 7 b9 08 24
        E 7 b9 08 23
        E 7 b9 08 22
        E 7 b9 08 21
        E 7 b9 08 20
        E 7 b9 08 1f
        E 7 b9 08 1d
        E 7 b9 08 1c
        E 7 b9 08 1b
        E 7 b9 08 1a
        E 7 b9 08 18
        E 7 b9 08 17
        E 7 b9 08 16
        E 7 b9 08 15
        E 7 b9 08 13
        E 7 b9 08 12
        E 7 b9 08 11
        E 7 b9 08 10
        E 7 b9 08 0f
        E 7 b9 08 0e
        E 7 b9 08 0c
        E 7 b9 08 0b
        E 7 b9 08 0a
        E 7 b9 08 09
        E 7 b9 08 08
        E 7 b9 08 07
        E 7 b9 08 06
        E 7 b9 08 06
        E 7 b9 08 05
        E 7 b9 08 04
        E 7 b9 08 04
        E 7 b9 08 03
        E 7 b9 08 02
        E 7 b9 08 02
        E 7 b9 08 01
        E 7 b9 08 01
        E 7 b9 08 00
        E 7 b9 08 00
        E 7 b9 08 00
        E 7 b9 08 00
        E 7 b9 08 00
        E 7 b9 08 00
        E 7 b9 08 00
        E 7 b9 08 00
        E 7 b9 08 00
        E 7 b9 08 00
        E 7 b9 08 00
        E 7 b9 08 01
        E 7 b9 08 01
        E 7 b9 08 02
        E 7 b9 08 02
        E 7 b9 08 02
        E 7 b9 08 03
        E 7 b9 08 04
        E 7 b9 08 04
        E 7 b9 08 05
        E 7 b9 08 06
        E 7 b9 08 07
        E 7 b9 08 08
        E 7 b9 08 09
        E 7 b9 08 0a
        E 7 b9 08 0b
        E 7 b9 08 0c
        E 7 b9 08 0d
        E 7 b9 08 0e
        E 7 b9 08 0f
        E 7 b9 08 10
        E 7 b9 08 12
        E 7 b9 08 13
        E 7 b9 08 14
        E 7 b9 08 15
        E 7 b9 08 16
        E 7 b9 08 18
        E 7 b9 08 19
        E 71 b9 08 13
        E 71 b9 08 14
        E 71 b9 08 15
        E 71 b9 08 15
        E 71 b9 08 16
        E 71 b9 08 17
        E 71 b9 08 18
        E 71 b9 08 19
        E 71 b9 08 1a
        E 71 b9 08 1b
        E 71 b9 08 1c
        E 71 b9 08 1c
        E 71 b9 08 1d
        E 71 b9 08 1e
        E 71 b9 08 1f
        E 71 b9 08 1f
        E 71 b9 08 20
        E 71 b9 08 21
        E 71 b9 08 21
        E 71 b9 08 22
        E 71 b9 08 23
        E 71 b9 08 23
        E 71 b9 08 24
        E 71 b9 08 24
        E 71 b9 08 24
        E 71 b9 08 24
        E 71 b9 08 25
        E 71 b9 08 25
        E 71 b9 08 25
        E 71 b9 08 25
        E 71 b9 08 26
        E 71 b9 08 26
        E 71 b9 08 26
        E 71 b9 08 26
        E 71 b9 08 26
        E 71 b9 08 25
        E 71 b9 08 25
        E 71 b9 08 25
        E 71 b9 08 25
        E 71 b9 08 24
        E 71 b9 08 24
        E 71 b9 08 24
        E 71 b9 08 23
        E 71 b9 08 23
        E 71 b9 08 22
        E 71 b9 08 22
        E 71 b9 08 21
        E 71 b9 08 21
        E 71 b9 08 20
        E 71 b9 08 1f
        E 71 b9 08 1e
        E 71 b9 08 1e
        E 71 b9 08 1d
        E 71 b9 08 1c
        E 71 b9 08 1b
        E 71 b9 08 1a
        E 71 b9 08 1a
        E 71 b9 08 19
        E 71 b9 08 18
        E 71 b9 08 17
        E 71 b9 08 16
        E 71 b9 08 15
        E 71 b9 08 14
        E 71 b9 08 13
        E 71 b9 08 12
        E 71 b9 08 11
        E 71 b9 08 10
        E 71 b9 08 0f
        E 71 b9 08 0e
        E 71 b9 08 0d
        E 71 b9 08 0c
        E 71 b9 08 0c
        E 71 b9 08 0b
        E 71 b9 08 0a
        E 71 b9 08 09
        E 71 b9 08 08
        E 71 b9 08 08
        E 71 b9 08 07
        E 71 b9 08 06
        E 71 b9 08 05
        E 71 b9 08 05
        E 71 b9 08 04
        E 71 b9 08 03
        E 71 b9 08 03
        E 71 b9 08 03
        E 71 b9 08 02
        E 71 b9 08 02
        E 71 b9 08 01
        E 71 b9 08 01
        E 71 b9 08 00
        E 71 b9 08 00
        E 71 b9 08 00
        E 71 b9 08 00
        E 71 b9 08 00
        E 71 b9 08 00
        E 71 b9 08 00
        E 71 b9 08 00
        E 71 b9 08 00
        E 71 b9 08 00
        E 71 b9 08 00
        E 71 b9 08 00
        E 71 b9 08 00
        E 71 b9 08 01
        E 71 b9 08 01
        E 71 b9 08 01
        E 71 b9 08 02
        E 71 b9 08 02
        E 71 b9 08 03
        E 71 b9 08 03
        E 71 b9 08 04
        E 71 b9 08 04
        E 71 b9 08 05
        E 71 b9 08 06
        E 71 b9 08 06
        E 71 b9 08 07
        E 71 b9 08 08
        E 71 b9 08 09
        E 71 b9 08 09
        E 71 b9 08 0a
        E 71 b9 08 0b
        E 71 b9 08 0c
        E 71 b9 08 0d
        E 71 b9 08 0e
        E 71 b9 08 0f
        E 71 b9 08 10
        E 71 b9 08 11
        E 71 b9 08 12
        E 71 b9 08 13
        E 23 b9 08 26
        E 23 b9 08 28
        E 23 b9 08 2a
        E 23 b9 08 2b
        E 23 b9 08 2d
        E 23 b9 08 2f
        E 23 b9 08 31
        E 23 b9 08 33
        E 23 b9 08 34
        E 23 b9 08 36
        E 23 b9 08 38
        E 23 b9 08 39
        E 23 b9 08 3b
        E 23 b9 08 3d
        E 23 b9 08 3e
        E 23 b9 08 3f
        E 23 b9 08 41
        E 23 b9 08 42
        E 23 b9 08 43
        E 23 b9 08 45
        E 23 b9 08 46
        E 23 b9 08 46
        E 23 b9 08 48
        E 23 b9 08 48
        E 23 b9 08 49
        E 23 b9 08 49
        E 23 b9 08 4a
        E 23 b9 08 4b
        E 23 b9 08 4b
        E 23 b9 08 4b
        E 23 b9 08 4c
        E 23 b9 08 4c
        E 23 b9 08 4c
        E 23 b9 08 4c
        E 23 b9 08 4c
        E 23 b9 08 4b
        E 23 b9 08 4b
        E 23 b9 08 4b
        E 23 b9 08 4a
        E 23 b9 08 49
        E 23 b9 08 49
        E 23 b9 08 48
        E 23 b9 08 47
        E 23 b9 08 46
        E 23 b9 08 45
        E 23 b9 08 44
        E 23 b9 08 43
        E 23 b9 08 42
        E 23 b9 08 40
        E 23 b9 08 3f
        E 23 b9 08 3d
        E 23 b9 08 3c
        E 23 b9 08 3a
        E 23 b9 08 39
        E 23 b9 08 37
        E 23 b9 08 35
        E 23 b9 08 34
        E 23 b9 08 32
        E 23 b9 08 30
        E 23 b9 08 2e
        E 23 b9 08 2c
        E 23 b9 08 2a
        E 23 b9 08 28
        E 23 b9 08 27
        E 23 b9 08 25
        E 23 b9 08 23
        E 23 b9 08 21
        E 23 b9 08 1f
        E 23 b9 08 1d
        E 23 b9 08 1b
        E 23 b9 08 19
        E 23 b9 08 18
        E 23 b9 08 16
        E 23 b9 08 15
        E 23 b9 08 13
        E 23 b9 08 11
        E 23 b9 08 10
        E 23 b9 08 0e
        E 23 b9 08 0d
        E 23 b9 08 0b
        E 23 b9 08 0a
        E 23 b9 08 09
        E 23 b9 08 07
        E 23 b9 08 06
        E 23 b9 08 06
        E 23 b9 08 04
        E 23 b9 08 04
        E 23 b9 08 03
        E 23 b9 08 02
        E 23 b9 08 01
        E 23 b9 08 01
        E 23 b9 08 00
        E 23 b9 08 00
        E 23 b9 08 00
        E 23 b9 08 00
        E 23 b9 08 00
        E 23 b9 08 00
        E 23 b9 08 00
        E 23 b9 08 00
        E 23 b9 08 00
        E 23 b9 08 01
        E 23 b9 08 01
        E 23 b9 08 02
        E 23 b9 08 03
        E 23 b9 08 03
        E 23 b9 08 04
        E 23 b9 08 05
        E 23 b9 08 06
        E 23 b9 08 07
        E 23 b9 08 08
        E 23 b9 08 09
        E 23 b9 08 0a
        E 23 b9 08 0c
        E 23 b9 08 0d
        E 23 b9 08 0f
        E 23 b9 08 10
        E 23 b9 08 12
        E 23 b9 08 13
        E 23 b9 08 15
        E 23 b9 08 17
        E 23 b9 08 19
        E 23 b9 08 1b
        E 23 b9 08 1c
        E 23 b9 08 1e
        E 23 b9 08 20
        E 23 b9 08 22
        E 23 b9 08 24
        E 23 b9 08 26
        E 63 b9 08 39
        E 63 b9 08 3c
        E 63 b9 08 3f
        E 63 b9 08 41
        E 63 b9 08 44
        E 63 b9 08 47
        E 63 b9 08 49
        E 63 b9 08 4c
        E 63 b9 08 4f
        E 63 b9 08 51
        E 63 b9 08 54
        E 63 b9 08 56
        E 63 b9 08 59
        E 63 b9 08 5b
        E 63 b9 08 5d
        E 63 b9 08 5f
        E 63 b9 08 62
        E 63 b9 08 63
        E 63 b9 08 65
        E 63 b9 08 67
        E 63 b9 08 69
        E 63 b9 08 6a
        E 63 b9 08 6c
        E 63 b9 08 6c
        E 63 b9 08 6d
        E 63 b9 08 6e
        E 63 b9 08 6f
        E 63 b9 08 70
        E 63 b9 08 71
        E 63 b9 08 71
        E 63 b9 08 72
        E 63 b9 08 72
        E 63 b9 08 72
        E 63 b9 08 72
        E 63 b9 08 72
        E 63 b9 08 71
        E 63 b9 08 71
        E 63 b9 08 70
        E 63 b9 08 6f
        E 63 b9 08 6e
        E 63 b9 08 6d
        E 63 b9 08 6c
        E 63 b9 08 6b
        E 63 b9 08 69
        E 63 b9 08 68
        E 63 b9 08 66
        E 63 b9 08 64
        E 63 b9 08 63
        E 63 b9 08 61
        E 63 b9 08 5e
        E 63 b9 08 5c
        E 63 b9 08 5a
        E 63 b9 08 58
        E 63 b9 08 55
        E 63 b9 08 52
        E 63 b9 08 50
        E 63 b9 08 4e
        E 63 b9 08 4b
        E 63 b9 08 48
        E 63 b9 08 46
        E 63 b9 08 42
        E 63 b9 08 3f
        E 63 b9 08 3d
        E 63 b9 08 3a
        E 63 b9 08 37
        E 63 b9 08 35
        E 63 b9 08 32
        E 63 b9 08 2f
        E 63 b9 08 2c
        E 63 b9 08 29
        E 63 b9 08 26
        E 63 b9 08 24
        E 63 b9 08 22
        E 63 b9 08 1f
        E 63 b9 08 1c
        E 63 b9 08 1a
        E 63 b9 08 18
        E 63 b9 08 15
        E 63 b9 08 13
        E 63 b9 08 11
        E 63 b9 08 0f
        E 63 b9 08 0d
        E 63 b9 08 0b
        E 63 b9 08 09
        E 63 b9 08 09
        E 63 b9 08 07
        E 63 b9 08 06
        E 63 b9 08 04
        E 63 b9 08 03
        E 63 b9 08 02
        E 63 b9 08 01
        E 63 b9 08 00
        E 63 b9 08 00
        E 63 b9 08 00
        E 63 b9 08 00
        E 63 b9 08 00
        E 63 b9 08 00
        E 63 b9 08 00
        E 63 b9 08 00
        E 63 b9 08 00
        E 63 b9 08 01
        E 63 b9 08 02
        E 63 b9 08 03
        E 63 b9 08 04
        E 63 b9 08 05
        E 63 b9 08 06
        E 63 b9 08 08
        E 63 b9 08 09
        E 63 b9 08 0a
        E 63 b9 08 0c
        E 63 b9 08 0e
        E 63 b9 08 10
        E 63 b9 08 12
        E 63 b9 08 14
        E 63 b9 08 16
        E 63 b9 08 19
        E 63 b9 08 1b
        E 63 b9 08 1d
        E 63 b9 08 20
        E 63 b9 08 23
        E 63 b9 08 25
        E 63 b9 08 28
        E 63 b9 08 2b
        E 63 b9 08 2d
        E 63 b9 08 30
        E 63 b9 08 33
        E 63 b9 08 36
        E 63 b9 08 39
        E 7 b9 08 19
        E 7 b9 08 1a
        E 7 b9 08 1c
        E 7 b9 08 1d
        E 7 b9 08 1e
        E 7 b9 08 1f
        E 7 b9 08 20
        E 7 b9 08 22
        E 7 b9 08 23
        E 7 b9 08 24
        E 7 b9 08 25
        E 7 b9 08 26
        E 7 b9 08 27
        E 7 b9 08 28
        E 7 b9 08 29
        E 7 b9 08 2a
        E 7 b9 08 2b
        E 7 b9 08 2c
        E 7 b9 08 2d
        E 7 b9 08 2e
        E 7 b9 08 2e
        E 7 b9 08 2f
        E 7 b9 08 30
        E 7 b9 08 30
        E 7 b9 08 30
        E 7 b9 08 31
        E 7 b9 08 31
        E 7 b9 08 32
        E 7 b9 08 32
        E 7 b9 08 32
        E 7 b9 08 32
        E 7 b9 08 32
        E 7 b9 08 32
        E 7 b9 08 32
        E 7 b9 08 32
        E 7 b9 08 32
        E 7 b9 08 32
        E 7 b9 08 32
        E 7 b9 08 31
        E 7 b9 08 31
        E 7 b9 08 30
        E 7 b9 08 30
        E 7 b9 08 2f
        E 7 b9 08 2e
        E 7 b9 08 2e
        E 7 b9 08 2d
        E 7 b9 08 2c
        E 7 b9 08 2c
        E 7 b9 08 2b
        E 7 b9 08 2a
        E 7 b9 08 29
        E 7 b9 08 28
        E 7 b9 08 27
        E 7 b9 08 26
        E 7 b9 08 24
        E 7 b9 08 23
        E 7 b9 08 22
        E 7 b9 08 21
        E 7 b9 08 20
        E 7 b9 08 1f
        E 7 b9 08 1d
        E 7 b9 08 1c
        E 7 b9 08 1b
        E 7 b9 08 1a
        E 7 b9 08 18
        E 7 b9 08 17
        E 7 b9 08 16
        E 7 b9 08 15
        E 7 b9 08 13
        E 7 b9 08 12
        E 7 b9 08 11
        E 7 b9 08 10
        E 7 b9 08 0f
        E 7 b9 08 0e
        E 7 b9 08 0c
        E 7 b9 08 0b
        E 7 b9 08 0a
        E 7 b9 08 09
        E 7 b9 08 08
        E 7 b9 08 07
        E 7 b9 08 06
        E 7 b9 08 06
        E 7 b9 08 05
        E 7 b9 08 04
        E 7 b9 08 04
        E 7 b9 08 03
        E 7 b9 08 02
        E 7 b9 08 02
        E 7 b9 08 01
        E 7 b9 08 01
        E 7 b9 08 00
        E 7 b9 08 00
        E 7 b9 08 00
        E 7 b9 08 00
        E 7 b9 08 00
        E 7 b9 08 00
        E 7 b9 08 00
        E 7 b9 08 00
        E 7 b9 08 00
        E 7 b9 08 00
        E 7 b9 08 00
        E 7 b9 08 01
        E 7 b9 08 01
        E 7 b9 08 02
        E 7 b9 08 02
        E 7 b9 08 02
        E 7 b9 08 03
        E 7 b9 08 04
        E 7 b9 08 04
        E 7 b9 08 05
        E 7 b9 08 06
        E 7 b9 08 07
        E 7 b9 08 08
        E 7 b9 08 09
        E 7 b9 08 0a
        E 7 b9 08 0b
        E 7 b9 08 0c
        E 7 b9 08 0d
        E 7 b9 08 0e
        E 7 b9 08 0f
        E 7 b9 08 10
        E 7 b9 08 12
        E 7 b9 08 13
        E 7 b9 08 14
        E 7 b9 08 15
        E 7 b9 08 16
        E 7 b9 08 18
        E 7 b9 08 19
        E 71 b9 08 06
        E 71 b9 08 06
        E 71 b9 08 07
        E 71 b9 08 07
        E 71 b9 08 07
        E 71 b9 08 07
        E 71 b9 08 08
        E 71 b9 08 08
        E 71 b9 08 08
        E 71 b9 08 09
        E 71 b9 08 09
        E 71 b9 08 09
        E 71 b9 08 09
        E 71 b9 08 0a
        E 71 b9 08 0a
        E 71 b9 08 0a
        E 71 b9 08 0a
        E 71 b9 08 0b
        E 71 b9 08 0b
        E 71 b9 08 0b
        E 71 b9 08 0b
        E 71 b9 08 0b
        E 71 b9 08 0c
        E 71 b9 08 0c
        E 71 b9 08 0c
        E 71 b9 08 0c
        E 71 b9 08 0c
        E 71 b9 08 0c
        E 71 b9 08 0c
        E 71 b9 08 0c
        E 71 b9 08 0c
        E 71 b9 08 0c
        E 71 b9 08 0c
        E 71 b9 08 0c
        E 71 b9 08 0c
        E 71 b9 08 0c
        E 71 b9 08 0c
        E 71 b9 08 0c
        E 71 b9 08 0c
        E 71 b9 08 0c
        E 71 b9 08 0c
        E 71 b9 08 0c
        E 71 b9 08 0b
        E 71 b9 08 0b
        E 71 b9 08 0b
        E 71 b9 08 0b
        E 71 b9 08 0b
        E 71 b9 08 0b
        E 71 b9 08 0a
        E 71 b9 08 0a
        E 71 b9 08 0a
        E 71 b9 08 0a
        E 71 b9 08 09
        E 71 b9 08 09
        E 71 b9 08 09
        E 71 b9 08 08
        E 71 b9 08 08
        E 71 b9 08 08
        E 71 b9 08 08
        E 71 b9 08 07
        E 71 b9 08 07
        E 71 b9 08 07
        E 71 b9 08 06
        E 71 b9 08 06
        E 71 b9 08 06
        E 71 b9 08 05
        E 71 b9 08 05
        E 71 b9 08 05
        E 71 b9 08 04
        E 71 b9 08 04
        E 71 b9 08 04
        E 71 b9 08 04
        E 71 b9 08 03
        E 71 b9 08 03
        E 71 b9 08 03
        E 71 b9 08 02
        E 71 b9 08 02
        E 71 b9 08 02
        E 71 b9 08 02
        E 71 b9 08 01
        E 71 b9 08 01
        E 71 b9 08 01
        E 71 b9 08 01
        E 71 b9 08 01
        E 71 b9 08 01
        E 71 b9 08 00
        E 71 b9 08 00
        E 71 b9 08 00
        E 71 b9 08 00
        E 71 b9 08 00
        E 71 b9 08 00
        E 71 b9 08 00
        E 71 b9 08 00
        E 71 b9 08 00
        E 71 b9 08 00
        E 71 b9 08 00
        E 71 b9 08 00
        E 71 b9 08 00
        E 71 b9 08 00
        E 71 b9 08 00
        E 71 b9 08 00
        E 71 b9 08 00
        E 71 b9 08 00
        E 71 b9 08 00
        E 71 b9 08 00
        E 71 b9 08 00
        E 71 b9 08 00
        E 71 b9 08 01
        E 71 b9 08 01
        E 71 b9 08 01
        E 71 b9 08 01
        E 71 b9 08 01
        E 71 b9 08 02
        E 71 b9 08 02
        E 71 b9 08 02
        E 71 b9 08 02
        E 71 b9 08 03
        E 71 b9 08 03
        E 71 b9 08 03
        E 71 b9 08 03
        E 71 b9 08 04
        E 71 b9 08 04
        E 71 b9 08 04
        E 71 b9 08 05
        E 71 b9 08 05
        E 71 b9 08 05
        E 71 b9 08 06
        E 71 b9 08 06
        E 63 b9 08 2c
        E 63 b9 08 2e
        E 63 b9 08 31
        E 63 b9 08 33
        E 63 b9 08 35
        E 63 b9 08 37
        E 63 b9 08 39
        E 63 b9 08 3b
        E 63 b9 08 3d
        E 63 b9 08 3f
        E 63 b9 08 41
        E 63 b9 08 43
        E 63 b9 08 45
        E 63 b9 08 47
        E 63 b9 08 48
        E 63 b9 08 4a
        E 63 b9 08 4c
        E 63 b9 08 4d
        E 63 b9 08 4f
        E 63 b9 08 50
        E 63 b9 08 51
        E 63 b9 08 52
        E 63 b9 08 54
        E 63 b9 08 54
        E 63 b9 08 55
        E 63 b9 08 56
        E 63 b9 08 56
        E 63 b9 08 57
        E 63 b9 08 58
        E 63 b9 08 58
        E 63 b9 08 58
        E 63 b9 08 58
        E 63 b9 08 58
        E 63 b9 08 58
        E 63 b9 08 58
        E 63 b9 08 58
        E 63 b9 08 58
        E 63 b9 08 57
        E 63 b9 08 56
        E 63 b9 08 56
        E 63 b9 08 55
        E 63 b9 08 54
        E 63 b9 08 53
        E 63 b9 08 51
        E 63 b9 08 51
        E 63 b9 08 4f
        E 63 b9 08 4e
        E 63 b9 08 4d
        E 63 b9 08 4b
        E 63 b9 08 49
        E 63 b9 08 48
        E 63 b9 08 46
        E 63 b9 08 44
        E 63 b9 08 42
        E 63 b9 08 40
        E 63 b9 08 3e
        E 63 b9 08 3c
        E 63 b9 08 3a
        E 63 b9 08 38
        E 63 b9 08 36
        E 63 b9 08 33
        E 63 b9 08 31
        E 63 b9 08 2f
        E 63 b9 08 2d
        E 63 b9 08 2b
        E 63 b9 08 29
        E 63 b9 08 27
        E 63 b9 08 25
        E 63 b9 08 22
        E 63 b9 08 20
        E 63 b9 08 1e
        E 63 b9 08 1c
        E 63 b9 08 1a
        E 63 b9 08 18
        E 63 b9 08 16
        E 63 b9 08 14
        E 63 b9 08 12
        E 63 b9 08 10
        E 63 b9 08 0f
        E 63 b9 08 0d
        E 63 b9 08 0b
        E 63 b9 08 0a
        E 63 b9 08 09
        E 63 b9 08 07
        E 63 b9 08 07
        E 63 b9 08 05
        E 63 b9 08 04
        E 63 b9 08 03
        E 63 b9 08 02
        E 63 b9 08 02
        E 63 b9 08 01
        E 63 b9 08 00
        E 63 b9 08 00
        E 63 b9 08 00
        E 63 b9 08 00
        E 63 b9 08 00
        E 63 b9 08 00
        E 63 b9 08 00
        E 63 b9 08 00
        E 63 b9 08 00
        E 63 b9 08 01
        E 63 b9 08 02
        E 63 b9 08 02
        E 63 b9 08 03
        E 63 b9 08 04
        E 63 b9 08 04
        E 63 b9 08 06
        E 63 b9 08 07
        E 63 b9 08 08
        E 63 b9 08 09
        E 63 b9 08 0b
        E 63 b9 08 0c
        E 63 b9 08 0e
        E 63 b9 08 10
        E 63 b9 08 11
        E 63 b9 08 13
        E 63 b9 08 15
        E 63 b9 08 17
        E 63 b9 08 19
        E 63 b9 08 1b
        E 63 b9 08 1d
        E 63 b9 08 1f
        E 63 b9 08 21
        E 63 b9 08 23
        E 63 b9 08 25
        E 63 b9 08 27
        E 63 b9 08 2a
        E 63 b9 08 2c
        E 71 b9 08 13
        E 71 b9 08 14
        E 71 b9 08 15
        E 71 b9 08 15
        E 71 b9 08 16
        E 71 b9 08 17
        E 71 b9 08 18
        E 71 b9 08 19
        E 71 b9 08 1a
        E 71 b9 08 1b
        E 71 b9 08 1c
        E 71 b9 08 1c
        E 71 b9 08 1d
        E 71 b9 08 1e
        E 71 b9 08 1f
        E 71 b9 08 1f
        E 71 b9 08 20
        E 71 b9 08 21
        E 71 b9 08 21
        E 71 b9 08 22
        E 71 b9 08 23
        E 71 b9 08 23
        E 71 b9 08 24
        E 71 b9 08 24
        E 71 b9 08 24
        E 71 b9 08 24
        E 71 b9 08 25
        E 71 b9 08 25
        E 71 b9 08 25
        E 71 b9 08 25
        E 71 b9 08 26
        E 71 b9 08 26
        E 71 b9 08 26
        E 71 b9 08 26
        E 71 b9 08 26
        E 71 b9 08 25
        E 71 b9 08 25
        E 71 b9 08 25
        E 71 b9 08 25
        E 71 b9 08 24
        E 71 b9 08 24
        E 71 b9 08 24
        E 71 b9 08 23
        E 71 b9 08 23
        E 71 b9 08 22
        E 71 b9 08 22
        E 71 b9 08 21
        E 71 b9 08 21
        E 71 b9 08 20
        E 71 b9 08 1f
        E 71 b9 08 1e
        E 71 b9 08 1e
        E 71 b9 08 1d
        E 71 b9 08 1c
        E 71 b9 08 1b
        E 71 b9 08 1a
        E 71 b9 08 1a
        E 71 b9 08 19
        E 71 b9 08 18
        E 71 b9 08 17
        E 71 b9 08 16
        E 71 b9 08 15
        E 71 b9 08 14
        E 71 b9 08 13
        E 71 b9 08 12
        E 71 b9 08 11
        E 71 b9 08 10
        E 71 b9 08 0f
        E 71 b9 08 0e
        E 71 b9 08 0d
        E 71 b9 08 0c
        E 71 b9 08 0c
        E 71 b9 08 0b
        E 71 b9 08 0a
        E 71 b9 08 09
        E 71 b9 08 08
        E 71 b9 08 08
        E 71 b9 08 07
        E 71 b9 08 06
        E 71 b9 08 05
        E 71 b9 08 05
        E 71 b9 08 04
        E 71 b9 08 03
        E 71 b9 08 03
        E 71 b9 08 03
        E 71 b9 08 02
        E 71 b9 08 02
        E 71 b9 08 01
        E 71 b9 08 01
        E 71 b9 08 00
        E 71 b9 08 00
        E 71 b9 08 00
        E 71 b9 08 00
        E 71 b9 08 00
        E 71 b9 08 00
        E 71 b9 08 00
        E 71 b9 08 00
        E 71 b9 08 00
        E 71 b9 08 00
        E 71 b9 08 00
        E 71 b9 08 00
        E 71 b9 08 00
        E 71 b9 08 01
        E 71 b9 08 01
        E 71 b9 08 01
        E 71 b9 08 02
        E 71 b9 08 02
        E 71 b9 08 03
        E 71 b9 08 03
        E 71 b9 08 04
        E 71 b9 08 04
        E 71 b9 08 05
        E 71 b9 08 06
        E 71 b9 08 06
        E 71 b9 08 07
        E 71 b9 08 08
        E 71 b9 08 09
        E 71 b9 08 09
        E 71 b9 08 0a
        E 71 b9 08 0b
        E 71 b9 08 0c
        E 71 b9 08 0d
        E 71 b9 08 0e
        E 71 b9 08 0f
        E 71 b9 08 10
        E 71 b9 08 11
        E 71 b9 08 12
        E 71 b9 08 13
        E 23 b9 08 26
        E 23 b9 08 28
        E 23 b9 08 2a
        E 23 b9 08 2b
        E 23 b9 08 2d
        E 23 b9 08 2f
        E 23 b9 08 31
        E 23 b9 08 33
        E 23 b9 08 34
        E 23 b9 08 36
        E 23 b9 08 38
        E 23 b9 08 39
        E 23 b9 08 3b
        E 23 b9 08 3d
        E 23 b9 08 3e
        E 23 b9 08 3f
        E 23 b9 08 41
        E 23 b9 08 42
        E 23 b9 08 43
        E 23 b9 08 45
        E 23 b9 08 46
        E 23 b9 08 46
        E 23 b9 08 48
        E 23 b9 08 48
        E 23 b9 08 49
        E 23 b9 08 49
        E 23 b9 08 4a
        E 23 b9 08 4b
        E 23 b9 08 4b
        E 23 b9 08 4b
        E 23 b9 08 4c
        E 23 b9 08 4c
        E 23 b9 08 4c
        E 23 b9 08 4c
        E 23 b9 08 4c
        E 23 b9 08 4b
        E 23 b9 08 4b
        E 23 b9 08 4b
        E 23 b9 08 4a
        E 23 b9 08 49
        E 23 b9 08 49
        E 23 b9 08 48
        E 23 b9 08 47
        E 23 b9 08 46
        E 23 b9 08 45
        E 23 b9 08 44
        E 23 b9 08 43
        E 23 b9 08 42
        E 23 b9 08 40
        E 23 b9 08 3f
        E 23 b9 08 3d
        E 23 b9 08 3c
        E 23 b9 08 3a
        E 23 b9 08 39
        E 23 b9 08 37
        E 23 b9 08 35
        E 23 b9 08 34
        E 23 b9 08 32
        E 23 b9 08 30
        E 23 b9 08 2e
        E 23 b9 08 2c
        E 23 b9 08 2a
        E 23 b9 08 28
        E 23 b9 08 27
        E 23 b9 08 25
        E 23 b9 08 23
        E 23 b9 08 21
        E 23 b9 08 1f
        E 23 b9 08 1d
        E 23 b9 08 1b
        E 23 b9 08 19
        E 23 b9 08 18
        E 23 b9 08 16
        E 23 b9 08 15
        E 23 b9 08 13
        E 23 b9 08 11
        E 23 b9 08 10
        E 23 b9 08 0e
        E 23 b9 08 0d
        E 23 b9 08 0b
        E 23 b9 08 0a
        E 23 b9 08 09
        E 23 b9 08 07
        E 23 b9 08 06
        E 23 b9 08 06
        E 23 b9 08 04
        E 23 b9 08 04
        E 23 b9 08 03
        E 23 b9 08 02
        E 23 b9 08 01
        E 23 b9 08 01
        E 23 b9 08 00
        E 23 b9 08 00
        E 23 b9 08 00
        E 23 b9 08 00
        E 23 b9 08 00
        E 23 b9 08 00
        E 23 b9 08 00
        E 23 b9 08 00
        E 23 b9 08 00
        E 23 b9 08 01
        E 23 b9 08 01
        E 23 b9 08 02
        E 23 b9 08 03
        E 23 b9 08 03
        E 23 b9 08 04
        E 23 b9 08 05
        E 23 b9 08 06
        E 23 b9 08 07
        E 23 b9 08 08
        E 23 b9 08 09
        E 23 b9 08 0a
        E 23 b9 08 0c
        E 23 b9 08 0d
        E 23 b9 08 0f
        E 23 b9 08 10
        E 23 b9 08 12
        E 23 b9 08 13
        E 23 b9 08 15
        E 23 b9 08 17
        E 23 b9 08 19
        E 23 b9 08 1b
        E 23 b9 08 1c
        E 23 b9 08 1e
        E 23 b9 08 20
        E 23 b9 08 22
        E 23 b9 08 24
        E 23 b9 08 26
        E 63 b9 08 39
        E 63 b9 08 3c
        E 63 b9 08 3f
        E 63 b9 08 41
        E 63 b9 08 44
        E 63 b9 08 47
        E 63 b9 08 49
        E 63 b9 08 4c
        E 63 b9 08 4f
        E 63 b9 08 51
        E 63 b9 08 54
        E 63 b9 08 56
        E 63 b9 08 59
        E 63 b9 08 5b
        E 63 b9 08 5d
        E 63 b9 08 5f
        E 63 b9 08 62
        E 63 b9 08 63
        E 63 b9 08 65
        E 63 b9 08 67
        E 63 b9 08 69
        E 63 b9 08 6a
        E 63 b9 08 6c
        E 63 b9 08 6c
        E 63 b9 08 6d
        E 63 b9 08 6e
        E 63 b9 08 6f
        E 63 b9 08 70
        E 63 b9 08 71
        E 63 b9 08 71
        E 63 b9 08 72
        E 63 b9 08 72
        E 63 b9 08 72
        E 63 b9 08 72
        E 63 b9 08 72
        E 63 b9 08 71
        E 63 b9 08 71
        E 63 b9 08 70
        E 63 b9 08 6f
        E 63 b9 08 6e
        E 63 b9 08 6d
        E 63 b9 08 6c
        E 63 b9 08 6b
        E 63 b9 08 69
        E 63 b9 08 68
        E 63 b9 08 66
        E 63 b9 08 64
        E 63 b9 08 63
        E 63 b9 08 61
        E 63 b9 08 5e
        E 63 b9 08 5c
        E 63 b9 08 5a
        E 63 b9 08 58
        E 63 b9 08 55
        E 63 b9 08 52
        E 63 b9 08 50
        E 63 b9 08 4e
        E 63 b9 08 4b
        E 63 b9 08 48
        E 63 b9 08 46
        E 63 b9 08 42
        E 63 b9 08 3f
        E 63 b9 08 3d
        E 63 b9 08 3a
        E 63 b9 08 37
        E 63 b9 08 35
        E 63 b9 08 32
        E 63 b9 08 2f
        E 63 b9 08 2c
        E 63 b9 08 29
        E 63 b9 08 26
        E 63 b9 08 24
        E 63 b9 08 22
        E 63 b9 08 1f
        E 63 b9 08 1c
        E 63 b9 08 1a
        E 63 b9 08 18
        E 63 b9 08 15
        E 63 b9 08 13
        E 63 b9 08 11
        E 63 b9 08 0f
        E 63 b9 08 0d
        E 63 b9 08 0b
        E 63 b9 08 09
        E 63 b9 08 09
        E 63 b9 08 07
        E 63 b9 08 06
        E 63 b9 08 04
        E 63 b9 08 03
        E 63 b9 08 02
        E 63 b9 08 01
        E 63 b9 08 00
        E 63 b9 08 00
        E 63 b9 08 00
        E 63 b9 08 00
        E 63 b9 08 00
        E 63 b9 08 00
        E 63 b9 08 00
        E 63 b9 08 00
        E 63 b9 08 00
        E 63 b9 08 01
        E 63 b9 08 02
        E 63 b9 08 03
        E 63 b9 08 04
        E 63 b9 08 05
        E 63 b9 08 06
        E 63 b9 08 08
        E 63 b9 08 09
        E 63 b9 08 0a
        E 63 b9 08 0c
        E 63 b9 08 0e
        E 63 b9 08 10
        E 63 b9 08 12
        E 63 b9 08 14
        E 63 b9 08 16
        E 63 b9 08 19
        E 63 b9 08 1b
        E 63 b9 08 1d
        E 63 b9 08 20
        E 63 b9 08 23
        E 63 b9 08 25
        E 63 b9 08 28
        E 63 b9 08 2b
        E 63 b9 08 2d
        E 63 b9 08 30
        E 63 b9 08 33
        E 63 b9 08 36
        E 63 b9 08 39
        E 7 b9 08 19
        E 7 b9 08 1a
        E 7 b9 08 1c
        E 7 b9 08 1d
        E 7 b9 08 1e
        E 7 b9 08 1f
        E 7 b9 08 20
        E 7 b9 08 22
        E 7 b9 08 23
        E 7 b9 08 24
        E 7 b9 08 25
        E 7 b9 08 26
        E 7 b9 08 27
        E 7 b9 08 28
        E 7 b9 08 29
        E 7 b9 08 2a
        E 7 b9 08 2b
        E 7 b9 08 2c
        E 7 b9 08 2d
        E 7 b9 08 2e
        E 7 b9 08 2e
        E 7 b9 08 2f
        E 7 b9 08 30
        E 7 b9 08 30
        E 7 b9 08 30
        E 7 b9 08 31
        E 7 b9 08 31
        E 7 b9 08 32
        E 7 b9 08 32
        E 7 b9 08 32
        E 7 b9 08 32
        E 7 b9 08 32
        E 7 b9 08 32
        E 7 b9 08 32
        E 7 b9 08 32
        E 7 b9 08 32
        E 7 b9 08 32
        E 7 b9 08 32
        E 7 b9 08 31
        E 7 b9 08 31
        E 7 b9 08 30
        E 7 b9 08 30
        E 7 b9 08 2f
        E 7 b9 08 2e
        E 7 b9 08 2e
        E 7 b9 08 2d
        E 7 b9 08 2c
        E 7 b9 08 2c
        E 7 b9 08 2b
        E 7 b9 08 2a
        E 7 b9 08 29
        E 7 b9 08 28
        E 7 b9 08 27
        E 7 b9 08 26
        E 7 b9 08 24
        E 7 b9 08 23
        E 7 b9 08 22
        E 7 b9 08 21
        E 7 b9 08 20
        E 7 b9 08 1f
        E 7 b9 08 1d
        E 7 b9 08 1c
        E 7 b9 08 1b
        E 7 b9 08 1a
        E 7 b9 08 18
        E 7 b9 08 17
        E 7 b9 08 16
        E 7 b9 08 15
        E 7 b9 08 13
        E 7 b9 08 12
        E 7 b9 08 11
        E 7 b9 08 10
        E 7 b9 08 0f
        E 7 b9 08 0e
        E 7 b9 08 0c
        E 7 b9 08 0b
        E 7 b9 08 0a
        E 7 b9 08 09
        E 7 b9 08 08
        E 7 b9 08 07
        E 7 b9 08 06
        E 7 b9 08 06
        E 7 b9 08 05
        E 7 b9 08 04
        E 7 b9 08 04
        E 7 b9 08 03
        E 7 b9 08 02
        E 7 b9 08 02
        E 7 b9 08 01
        E 7 b9 08 01
        E 7 b9 08 00
        E 7 b9 08 00
        E 7 b9 08 00
        E 7 b9 08 00
        E 7 b9 08 00
        E 7 b9 08 00
        E 7 b9 08 00
        E 7 b9 08 00
        E 7 b9 08 00
        E 7 b9 08 00
        E 7 b9 08 00
        E 7 b9 08 01
        E 7 b9 08 01
        E 7 b9 08 02
        E 7 b9 08 02
        E 7 b9 08 02
        E 7 b9 08 03
        E 7 b9 08 04
        E 7 b9 08 04
        E 7 b9 08 05
        E 7 b9 08 06
        E 7 b9 08 07
        E 7 b9 08 08
        E 7 b9 08 09
        E 7 b9 08 0a
        E 7 b9 08 0b
        E 7 b9 08 0c
        E 7 b9 08 0d
        E 7 b9 08 0e
        E 7 b9 08 0f
        E 7 b9 08 10
        E 7 b9 08 12
        E 7 b9 08 13
        E 7 b9 08 14
        E 7 b9 08 15
        E 7 b9 08 16
        E 7 b9 08 18
        E 7 b9 08 19
        E 71 b9 08 06
        E 71 b9 08 06
        E 71 b9 08 07
        E 71 b9 08 07
        E 71 b9 08 07
        E 71 b9 08 07
        E 71 b9 08 08
        E 71 b9 08 08
        E 71 b9 08 08
        E 71 b9 08 09
        E 71 b9 08 09
        E 71 b9 08 09
        E 71 b9 08 09
        E 71 b9 08 0a
        E 71 b9 08 0a
        E 71 b9 08 0a
        E 71 b9 08 0a
        E 71 b9 08 0b
        E 71 b9 08 0b
        E 71 b9 08 0b
        E 71 b9 08 0b
        E 71 b9 08 0b
        E 71 b9 08 0c
        E 71 b9 08 0c
        E 71 b9 08 0c
        E 71 b9 08 0c
        E 71 b9 08 0c
        E 71 b9 08 0c
        E 71 b9 08 0c
        E 71 b9 08 0c
        E 71 b9 08 0c
        E 71 b9 08 0c
        E 71 b9 08 0c
        E 71 b9 08 0c
        E 71 b9 08 0c
        E 71 b9 08 0c
        E 71 b9 08 0c
        E 71 b9 08 0c
        E 71 b9 08 0c
        E 71 b9 08 0c
        E 71 b9 08 0c
        E 71 b9 08 0c
        E 71 b9 08 0b
        E 71 b9 08 0b
        E 71 b9 08 0b
        E 71 b9 08 0b
        E 71 b9 08 0b
        E 71 b9 08 0b
        E 71 b9 08 0a
        E 71 b9 08 0a
        E 71 b9 08 0a
        E 71 b9 08 0a
        E 71 b9 08 09
        E 71 b9 08 09
        E 71 b9 08 09
        E 71 b9 08 08
        E 71 b9 08 08
        E 71 b9 08 08
        E 71 b9 08 08
        E 71 b9 08 07
        E 71 b9 08 07
        E 71 b9 08 07
        E 71 b9 08 06
        E 71 b9 08 06
        E 71 b9 08 06
        E 71 b9 08 05
        E 71 b9 08 05
        E 71 b9 08 05
        E 71 b9 08 04
        E 71 b9 08 04
        E 71 b9 08 04
        E 71 b9 08 04
        E 71 b9 08 03
        E 71 b9 08 03
        E 71 b9 08 03
        E 71 b9 08 02
        E 71 b9 08 02
        E 71 b9 08 02
        E 71 b9 08 02
        E 71 b9 08 01
        E 71 b9 08 01
        E 71 b9 08 01
        E 71 b9 08 01
        E 71 b9 08 01
        E 71 b9 08 01
        E 71 b9 08 00
        E 71 b9 08 00
        E 71 b9 08 00
        E 71 b9 08 00
        E 71 b9 08 00
        E 71 b9 08 00
        E 71 b9 08 00
        E 71 b9 08 00
        E 71 b9 08 00
        E 71 b9 08 00
        E 71 b9 08 00
        E 71 b9 08 00
        E 71 b9 08 00
        E 71 b9 08 00
        E 71 b9 08 00
        E 71 b9 08 00
        E 71 b9 08 00
        E 71 b9 08 00
        E 71 b9 08 00
        E 71 b9 08 00
        E 71 b9 08 00
        E 71 b9 08 00
        E 71 b9 08 01
        E 71 b9 08 01
        E 71 b9 08 01
        E 71 b9 08 01
        E 71 b9 08 01
        E 71 b9 08 02
        E 71 b9 08 02
        E 71 b9 08 02
        E 71 b9 08 02
        E 71 b9 08 03
        E 71 b9 08 03
        E 71 b9 08 03
        E 71 b9 08 03
        E 71 b9 08 04
        E 71 b9 08 04
        E 71 b9 08 04
        E 71 b9 08 05
        E 71 b9 08 05
        E 71 b9 08 05
        E 71 b9 08 06
        E 71 b9 08 06
        E 63 b9 08 2c
        E 63 b9 08 2e
        E 63 b9 08 31
        E 63 b9 08 33
        E 63 b9 08 35
        E 63 b9 08 37
        E 63 b9 08 39
        E 63 b9 08 3b
        E 63 b9 08 3d
        E 63 b9 08 3f
        E 63 b9 08 41
        E 63 b9 08 43
        E 63 b9 08 45
        E 63 b9 08 47
        E 63 b9 08 48
        E 63 b9 08 4a
        E 63 b9 08 4c
        E 63 b9 08 4d
        E 63 b9 08 4f
        E 63 b9 08 50
        E 63 b9 08 51
        E 63 b9 08 52
        E 63 b9 08 54
        E 63 b9 08 54
        E 63 b9 08 55
        E 63 b9 08 56
        E 63 b9 08 56
        E 63 b9 08 57
        E 63 b9 08 58
        E 63 b9 08 58
        E 63 b9 08 58
        E 63 b9 08 58
        E 63 b9 08 58
        E 63 b9 08 58
        E 63 b9 08 58
        E 63 b9 08 58
        E 63 b9 08 58
        E 63 b9 08 57
        E 63 b9 08 56
        E 63 b9 08 56
        E 63 b9 08 55
        E 63 b9 08 54
        E 63 b9 08 53
        E 63 b9 08 51
        E 63 b9 08 51
        E 63 b9 08 4f
        E 63 b9 08 4e
        E 63 b9 08 4d
        E 63 b9 08 4b
        E 63 b9 08 49
        E 63 b9 08 48
        E 63 b9 08 46
        E 63 b9 08 44
        E 63 b9 08 42
        E 63 b9 08 40
        E 63 b9 08 3e
        E 63 b9 08 3c
        E 63 b9 08 3a
        E 63 b9 08 38
        E 63 b9 08 36
        E 63 b9 08 33
        E 63 b9 08 31
        E 63 b9 08 2f
        E 63 b9 08 2d
        E 63 b9 08 2b
        E 63 b9 08 29
        E 63 b9 08 27
        E 63 b9 08 25
        E 63 b9 08 22
        E 63 b9 08 20
        E 63 b9 08 1e
        E 63 b9 08 1c
        E 63 b9 08 1a
        E 63 b9 08 18
        E 63 b9 08 16
        E 63 b9 08 14
        E 63 b9 08 12
        E 63 b9 08 10
        E 63 b9 08 0f
        E 63 b9 08 0d
        E 63 b9 08 0b
        E 63 b9 08 0a
        E 63 b9 08 09
        E 63 b9 08 07
        E 63 b9 08 07
        E 63 b9 08 05
        E 63 b9 08 04
        E 63 b9 08 03
        E 63 b9 08 02
        E 63 b9 08 02
        E 63 b9 08 01
        E 63 b9 08 00
        E 63 b9 08 00
        E 63 b9 08 00
        E 63 b9 08 00
        E 63 b9 08 00
        E 63 b9 08 00
        E 63 b9 08 00
        E 63 b9 08 00
        E 63 b9 08 00
        E 63 b9 08 01
        E 63 b9 08 02
        E 63 b9 08 02
        E 63 b9 08 03
        E 63 b9 08 04
        E 63 b9 08 04
        E 63 b9 08 06
        E 63 b9 08 07
        E 63 b9 08 08
        E 63 b9 08 09
        E 63 b9 08 0b
        E 63 b9 08 0c
        E 63 b9 08 0e
        E 63 b9 08 10
        E 63 b9 08 11
        E 63 b9 08 13
        E 63 b9 08 15
        E 63 b9 08 17
        E 63 b9 08 19
        E 63 b9 08 1b
        E 63 b9 08 1d
        E 63 b9 08 1f
        E 63 b9 08 21
        E 63 b9 08 23
        E 63 b9 08 25
        E 63 b9 08 27
        E 63 b9 08 2a
        E 63 b9 08 2c
        E 71 b9 08 13
        E 71 b9 08 14
        E 71 b9 08 15
        E 71 b9 08 15
        E 71 b9 08 16
        E 71 b9 08 17
        E 71 b9 08 18
        E 71 b9 08 19
        E 71 b9 08 1a
        E 71 b9 08 1b
        E 71 b9 08 1c
        E 71 b9 08 1c
        E 71 b9 08 1d
        E 71 b9 08 1e
        E 71 b9 08 1f
        E 71 b9 08 1f
        E 71 b9 08 20
        E 71 b9 08 21
        E 71 b9 08 21
        E 71 b9 08 22
        E 71 b9 08 23
        E 71 b9 08 23
        E 71 b9 08 24
        E 71 b9 08 24
        E 71 b9 08 24
        E 71 b9 08 24
        E 71 b9 08 25
        E 71 b9 08 25
        E 71 b9 08 25
        E 71 b9 08 25
        E 71 b9 08 26
        E 71 b9 08 26
        E 71 b9 08 26
        E 71 b9 08 26
        E 71 b9 08 26
        E 71 b9 08 25
        E 71 b9 08 25
        E 71 b9 08 25
        E 71 b9 08 25
        E 71 b9 08 24
        E 71 b9 08 24
        E 71 b9 08 24
        E 71 b9 08 23
        E 71 b9 08 23
        E 71 b9 08 22
        E 71 b9 08 22
        E 71 b9 08 21
        E 71 b9 08 21
        E 71 b9 08 20
        E 71 b9 08 1f
        E 71 b9 08 1e
        E 71 b9 08 1e
        E 71 b9 08 1d
        E 71 b9 08 1c
        E 71 b9 08 1b
        E 71 b9 08 1a
        E 71 b9 08 1a
        E 71 b9 08 19
        E 71 b9 08 18
        E 71 b9 08 17
        E 71 b9 08 16
        E 71 b9 08 15
        E 71 b9 08 14
        E 71 b9 08 13
        E 71 b9 08 12
        E 71 b9 08 11
        E 71 b9 08 10
        E 71 b9 08 0f
        E 71 b9 08 0e
        E 71 b9 08 0d
        E 71 b9 08 0c
        E 71 b9 08 0c
        E 71 b9 08 0b
        E 71 b9 08 0a
        E 71 b9 08 09
        E 71 b9 08 08
        E 71 b9 08 08
        E 71 b9 08 07
        E 71 b9 08 06
        E 71 b9 08 05
        E 71 b9 08 05
        E 71 b9 08 04
        E 71 b9 08 03
        E 71 b9 08 03
        E 71 b9 08 03
        E 71 b9 08 02
        E 71 b9 08 02
        E 71 b9 08 01
        E 71 b9 08 01
        E 71 b9 08 00
        E 71 b9 08 00
        E 71 b9 08 00
        E 71 b9 08 00
        E 71 b9 08 00
        E 71 b9 08 00
        E 71 b9 08 00
        E 71 b9 08 00
        E 71 b9 08 00
        E 71 b9 08 00
        E 71 b9 08 00
        E 71 b9 08 00
        E 71 b9 08 00
        E 71 b9 08 01
        E 71 b9 08 01
        E 71 b9 08 01
        E 71 b9 08 02
        E 71 b9 08 02
        E 71 b9 08 03
        E 71 b9 08 03
        E 71 b9 08 04
        E 71 b9 08 04
        E 71 b9 08 05
        E 71 b9 08 06
        E 71 b9 08 06
        E 71 b9 08 07
        E 71 b9 08 08
        E 71 b9 08 09
        E 71 b9 08 09
        E 71 b9 08 0a
        E 71 b9 08 0b
        E 71 b9 08 0c
        E 71 b9 08 0d
        E 71 b9 08 0e
        E 71 b9 08 0f
        E 71 b9 08 10
        E 71 b9 08 11
        E 71 b9 08 12
        E 71 b9 08 13
        E 23 b9 08 26
        E 23 b9 08 28
        E 23 b9 08 2a
        E 23 b9 08 2b
        E 23 b9 08 2d
        E 23 b9 08 2f
        E 23 b9 08 31
        E 23 b9 08 33
        E 23 b9 08 34
        E 23 b9 08 36
        E 23 b9 08 38
        E 23 b9 08 39
        E 23 b9 08 3b
        E 23 b9 08 3d
        E 23 b9 08 3e
        E 23 b9 08 3f
        E 23 b9 08 41
        E 23 b9 08 42
        E 23 b9 08 43
        E 23 b9 08 45
        E 23 b9 08 46
        E 23 b9 08 46
        E 23 b9 08 48
        E 23 b9 08 48
        E 23 b9 08 49
        E 23 b9 08 49
        E 23 b9 08 4a
        E 23 b9 08 4b
        E 23 b9 08 4b
        E 23 b9 08 4b
        E 23 b9 08 4c
        E 23 b9 08 4c
        E 23 b9 08 4c
        E 23 b9 08 4c
        E 23 b9 08 4c
        E 23 b9 08 4b
        E 23 b9 08 4b
        E 23 b9 08 4b
        E 23 b9 08 4a
        E 23 b9 08 49
        E 23 b9 08 49
        E 23 b9 08 48
        E 23 b9 08 47
        E 23 b9 08 46
        E 23 b9 08 45
        E 23 b9 08 44
        E 23 b9 08 43
        E 23 b9 08 42
        E 23 b9 08 40
        E 23 b9 08 3f
        E 23 b9 08 3d
        E 23 b9 08 3c
        E 23 b9 08 3a
        E 23 b9 08 39
        E 23 b9 08 37
        E 23 b9 08 35
        E 23 b9 08 34
        E 23 b9 08 32
        E 23 b9 08 30
        E 23 b9 08 2e
        E 23 b9 08 2c
        E 23 b9 08 2a
        E 23 b9 08 28
        E 23 b9 08 27
        E 23 b9 08 25
        E 23 b9 08 23
        E 23 b9 08 21
        E 23 b9 08 1f
        E 23 b9 08 1d
        E 23 b9 08 1b
        E 23 b9 08 19
        E 23 b9 08 18
        E 23 b9 08 16
        E 23 b9 08 15
        E 23 b9 08 13
        E 23 b9 08 11
        E 23 b9 08 10
        E 23 b9 08 0e
        E 23 b9 08 0d
        E 23 b9 08 0b
        E 23 b9 08 0a
        E 23 b9 08 09
        E 23 b9 08 07
        E 23 b9 08 06
        E 23 b9 08 06
        E 23 b9 08 04
        E 23 b9 08 04
        E 23 b9 08 03
        E 23 b9 08 02
        E 23 b9 08 01
        E 23 b9 08 01
        E 23 b9 08 00
        E 23 b9 08 00
        E 23 b9 08 00
        E 23 b9 08 00
        E 23 b9 08 00
        E 23 b9 08 00
        E 23 b9 08 00
        E 23 b9 08 00
        E 23 b9 08 00
        E 23 b9 08 01
        E 23 b9 08 01
        E 23 b9 08 02
        E 23 b9 08 03
        E 23 b9 08 03
        E 23 b9 08 04
        E 23 b9 08 05
        E 23 b9 08 06
        E 23 b9 08 07
        E 23 b9 08 08
        E 23 b9 08 09
        E 23 b9 08 0a
        E 23 b9 08 0c
        E 23 b9 08 0d
        E 23 b9 08 0f
        E 23 b9 08 10
        E 23 b9 08 12
        E 23 b9 08 13
        E 23 b9 08 15
        E 23 b9 08 17
        E 23 b9 08 19
        E 23 b9 08 1b
        E 23 b9 08 1c
        E 23 b9 08 1e
        E 23 b9 08 20
        E 23 b9 08 22
        E 23 b9 08 24
        E 23 b9 08 26
        E 63 b9 08 39
        E 63 b9 08 3c
        E 63 b9 08 3f
        E 63 b9 08 41
        E 63 b9 08 44
        E 63 b9 08 47
        E 63 b9 08 49
        E 63 b9 08 4c
        E 63 b9 08 4f
        E 63 b9 08 51
        E 63 b9 08 54
        E 63 b9 08 56
        E 63 b9 08 59
        E 63 b9 08 5b
        E 63 b9 08 5d
        E 63 b9 08 5f
        E 63 b9 08 62
        E 63 b9 08 63
        E 63 b9 08 65
        E 63 b9 08 67
        E 63 b9 08 69
        E 63 b9 08 6a
        E 63 b9 08 6c
        E 63 b9 08 6c
        E 63 b9 08 6d
        E 63 b9 08 6e
        E 63 b9 08 6f
        E 63 b9 08 70
        E 63 b9 08 71
        E 63 b9 08 71
        E 63 b9 08 72
        E 63 b9 08 72
        E 63 b9 08 72
        E 63 b9 08 72
        E 63 b9 08 72
        E 63 b9 08 71
        E 63 b9 08 71
        E 63 b9 08 70
        E 63 b9 08 6f
        E 63 b9 08 6e
        E 63 b9 08 6d
        E 63 b9 08 6c
        E 63 b9 08 6b
        E 63 b9 08 69
        E 63 b9 08 68
        E 63 b9 08 66
        E 63 b9 08 64
        E 63 b9 08 63
        E 63 b9 08 61
        E 63 b9 08 5e
        E 63 b9 08 5c
        E 63 b9 08 5a
        E 63 b9 08 58
        E 63 b9 08 55
        E 63 b9 08 52
        E 63 b9 08 50
        E 63 b9 08 4e
        E 63 b9 08 4b
        E 63 b9 08 48
        E 63 b9 08 46
        E 63 b9 08 42
        E 63 b9 08 3f
        E 63 b9 08 3d
        E 63 b9 08 3a
        E 63 b9 08 37
        E 63 b9 08 35
        E 63 b9 08 32
        E 63 b9 08 2f
        E 63 b9 08 2c
        E 63 b9 08 29
        E 63 b9 08 26
        E 63 b9 08 24
        E 63 b9 08 22
        E 63 b9 08 1f
        E 63 b9 08 1c
        E 63 b9 08 1a
        E 63 b9 08 18
        E 63 b9 08 15
        E 63 b9 08 13
        E 63 b9 08 11
        E 63 b9 08 0f
        E 63 b9 08 0d
        E 63 b9 08 0b
        E 63 b9 08 09
        E 63 b9 08 09
        E 63 b9 08 07
        E 63 b9 08 06
        E 63 b9 08 04
        E 63 b9 08 03
        E 63 b9 08 02
        E 63 b9 08 01
        E 63 b9 08 00
        E 63 b9 08 00
        E 63 b9 08 00
        E 63 b9 08 00
        E 63 b9 08 00
        E 63 b9 08 00
        E 63 b9 08 00
        E 63 b9 08 00
        E 63 b9 08 00
        E 63 b9 08 01
        E 63 b9 08 02
        E 63 b9 08 03
        E 63 b9 08 04
        E 63 b9 08 05
        E 63 b9 08 06
        E 63 b9 08 08
        E 63 b9 08 09
        E 63 b9 08 0a
        E 63 b9 08 0c
        E 63 b9 08 0e
        E 63 b9 08 10
        E 63 b9 08 12
        E 63 b9 08 14
        E 63 b9 08 16
        E 63 b9 08 19
        E 63 b9 08 1b
        E 63 b9 08 1d
        E 63 b9 08 20
        E 63 b9 08 23
        E 63 b9 08 25
        E 63 b9 08 28
        E 63 b9 08 2b
        E 63 b9 08 2d
        E 63 b9 08 30
        E 63 b9 08 33
        E 63 b9 08 36
        E 63 b9 08 39
        E 7 b9 08 19
        E 7 b9 08 1a
        E 7 b9 08 1c
        E 7 b9 08 1d
        E 7 b9 08 1e
        E 7 b9 08 1f
        E 7 b9 08 20
        E 7 b9 08 22
        E 7 b9 08 23
        E 7 b9 08 24
        E 7 b9 08 25
        E 7 b9 08 26
        E 7 b9 08 27
        E 7 b9 08 28
        E 7 b9 08 29
        E 7 b9 08 2a
        E 7 b9 08 2b
        E 7 b9 08 2c
        E 7 b9 08 2d
        E 7 b9 08 2e
        E 7 b9 08 2e
        E 7 b9 08 2f
        E 7 b9 08 30
        E 7 b9 08 30
        E 7 b9 08 30
        E 7 b9 08 31
        E 7 b9 08 31
        E 7 b9 08 32
        E 7 b9 08 32
        E 7 b9 08 32
        E 7 b9 08 32
        E 7 b9 08 32
        E 7 b9 08 32
        E 7 b9 08 32
        E 7 b9 08 32
        E 7 b9 08 32
        E 7 b9 08 32
        E 7 b9 08 32
        E 7 b9 08 31
        E 7 b9 08 31
        E 7 b9 08 30
        E 7 b9 08 30
        E 7 b9 08 2f
        E 7 b9 08 2e
        E 7 b9 08 2e
        E 7 b9 08 2d
        E 7 b9 08 2c
        E 7 b9 08 2c
        E 7 b9 08 2b
        E 7 b9 08 2a
        E 7 b9 08 29
        E 7 b9 08 28
        E 7 b9 08 27
        E 7 b9 08 26
        E 7 b9 08 24
        E 7 b9 08 23
        E 7 b9 08 22
        E 7 b9 08 21
        E 7 b9 08 20
        E 7 b9 08 1f
        E 7 b9 08 1d
        E 7 b9 08 1c
        E 7 b9 08 1b
        E 7 b9 08 1a
        E 7 b9 08 18
        E 7 b9 08 17
        E 7 b9 08 16
        E 7 b9 08 15
        E 7 b9 08 13
        E 7 b9 08 12
        E 7 b9 08 11
        E 7 b9 08 10
        E 7 b9 08 0f
        E 7 b9 08 0e
        E 7 b9 08 0c
        E 7 b9 08 0b
        E 7 b9 08 0a
        E 7 b9 08 09
        E 7 b9 08 08
        E 7 b9 08 07
        E 7 b9 08 06
        E 7 b9 08 06
        E 7 b9 08 05
        E 7 b9 08 04
        E 7 b9 08 04
        E 7 b9 08 03
        E 7 b9 08 02
        E 7 b9 08 02
        E 7 b9 08 01
        E 7 b9 08 01
        E 7 b9 08 00
        E 7 b9 08 00
        E 7 b9 08 00
        E 7 b9 08 00
        E 7 b9 08 00
        E 7 b9 08 00
        E 7 b9 08 00
        E 7 b9 08 00
        E 7 b9 08 00
        E 7 b9 08 00
        E 7 b9 08 00
        E 7 b9 08 01
        E 7 b9 08 01
        E 7 b9 08 02
        E 7 b9 08 02
        E 7 b9 08 02
        E 7 b9 08 03
        E 7 b9 08 04
        E 7 b9 08 04
        E 7 b9 08 05
        E 7 b9 08 06
        E 7 b9 08 07
        E 7 b9 08 08
        E 7 b9 08 09
        E 7 b9 08 0a
        E 7 b9 08 0b
        E 7 b9 08 0c
        E 7 b9 08 0d
        E 7 b9 08 0e
        E 7 b9 08 0f
        E 7 b9 08 10
        E 7 b9 08 12
        E 7 b9 08 13
        E 7 b9 08 14
        E 7 b9 08 15
        E 7 b9 08 16
        E 7 b9 08 18
        E 7 b9 08 19
        E 71 b9 08 13
        E 71 b9 08 14
        E 71 b9 08 15
        E 71 b9 08 15
        E 71 b9 08 16
        E 71 b9 08 17
        E 71 b9 08 18
        E 71 b9 08 19
        E 71 b9 08 1a
        E 71 b9 08 1b
        E 71 b9 08 1c
        E 71 b9 08 1c
        E 71 b9 08 1d
        E 71 b9 08 1e
        E 71 b9 08 1f
        E 71 b9 08 1f
        E 71 b9 08 20
        E 71 b9 08 21
        E 71 b9 08 21
        E 71 b9 08 22
        E 71 b9 08 23
        E 71 b9 08 23
        E 71 b9 08 24
        E 71 b9 08 24
        E 71 b9 08 24
        E 71 b9 08 24
        E 71 b9 08 25
        E 71 b9 08 25
        E 71 b9 08 25
        E 71 b9 08 25
        E 71 b9 08 26
        E 71 b9 08 26
        E 71 b9 08 26
        E 71 b9 08 26
        E 71 b9 08 26
        E 71 b9 08 25
        E 71 b9 08 25
        E 71 b9 08 25
        E 71 b9 08 25
        E 71 b9 08 24
        E 71 b9 08 24
        E 71 b9 08 24
        E 71 b9 08 23
        E 71 b9 08 23
        E 71 b9 08 22
        E 71 b9 08 22
        E 71 b9 08 21
        E 71 b9 08 21
        E 71 b9 08 20
        E 71 b9 08 1f
        E 71 b9 08 1e
        E 71 b9 08 1e
        E 71 b9 08 1d
        E 71 b9 08 1c
        E 71 b9 08 1b
        E 71 b9 08 1a
        E 71 b9 08 1a
        E 71 b9 08 19
        E 71 b9 08 18
        E 71 b9 08 17
        E 71 b9 08 16
        E 71 b9 08 15
        E 71 b9 08 14
        E 71 b9 08 13
        E 71 b9 08 12
        E 71 b9 08 11
        E 71 b9 08 10
        E 71 b9 08 0f
        E 71 b9 08 0e
        E 71 b9 08 0d
        E 71 b9 08 0c
        E 71 b9 08 0c
        E 71 b9 08 0b
        E 71 b9 08 0a
        E 71 b9 08 09
        E 71 b9 08 08
        E 71 b9 08 08
        E 71 b9 08 07
        E 71 b9 08 06
        E 71 b9 08 05
        E 71 b9 08 05
        E 71 b9 08 04
        E 71 b9 08 03
        E 71 b9 08 03
        E 71 b9 08 03
        E 71 b9 08 02
        E 71 b9 08 02
        E 71 b9 08 01
        E 71 b9 08 01
        E 71 b9 08 00
        E 71 b9 08 00
        E 71 b9 08 00
        E 71 b9 08 00
        E 71 b9 08 00
        E 71 b9 08 00
        E 71 b9 08 00
        E 71 b9 08 00
        E 71 b9 08 00
        E 71 b9 08 00
        E 71 b9 08 00
        E 71 b9 08 00
        E 71 b9 08 00
        E 71 b9 08 01
        E 71 b9 08 01
        E 71 b9 08 01
        E 71 b9 08 02
        E 71 b9 08 02
        E 71 b9 08 03
        E 71 b9 08 03
        E 71 b9 08 04
        E 71 b9 08 04
        E 71 b9 08 05
        E 71 b9 08 06
        E 71 b9 08 06
        E 71 b9 08 07
        E 71 b9 08 08
        E 71 b9 08 09
        E 71 b9 08 09
        E 71 b9 08 0a
        E 71 b9 08 0b
        E 71 b9 08 0c
        E 71 b9 08 0d
        E 71 b9 08 0e
        E 71 b9 08 0f
        E 71 b9 08 10
        E 71 b9 08 11
        E 71 b9 08 12
        E 71 b9 08 13
        E 23 b9 08 26
        E 23 b9 08 28
        E 23 b9 08 2a
        E 23 b9 08 2b
        E 23 b9 08 2d
        E 23 b9 08 2f
        E 23 b9 08 31
        E 23 b9 08 33
        E 23 b9 08 34
        E 23 b9 08 36
        E 23 b9 08 38
        E 23 b9 08 39
        E 23 b9 08 3b
        E 23 b9 08 3d
        E 23 b9 08 3e
        E 23 b9 08 3f
        E 23 b9 08 41
        E 23 b9 08 42
        E 23 b9 08 43
        E 23 b9 08 45
        E 23 b9 08 46
        E 23 b9 08 46
        E 23 b9 08 48
        E 23 b9 08 48
        E 23 b9 08 49
        E 23 b9 08 49
        E 23 b9 08 4a
        E 23 b9 08 4b
        E 23 b9 08 4b
        E 23 b9 08 4b
        E 23 b9 08 4c
        E 23 b9 08 4c
        E 23 b9 08 4c
        E 23 b9 08 4c
        E 23 b9 08 4c
        E 23 b9 08 4b
        E 23 b9 08 4b
        E 23 b9 08 4b
        E 23 b9 08 4a
        E 23 b9 08 49
        E 23 b9 08 49
        E 23 b9 08 48
        E 23 b9 08 47
        E 23 b9 08 46
        E 23 b9 08 45
        E 23 b9 08 44
        E 23 b9 08 43
        E 23 b9 08 42
        E 23 b9 08 40
        E 23 b9 08 3f
        E 23 b9 08 3d
        E 23 b9 08 3c
        E 23 b9 08 3a
        E 23 b9 08 39
        E 23 b9 08 37
        E 23 b9 08 35
        E 23 b9 08 34
        E 23 b9 08 32
        E 23 b9 08 30
        E 23 b9 08 2e
        E 23 b9 08 2c
        E 23 b9 08 2a
        E 23 b9 08 28
        E 23 b9 08 27
        E 23 b9 08 25
        E 23 b9 08 23
        E 23 b9 08 21
        E 23 b9 08 1f
        E 23 b9 08 1d
        E 23 b9 08 1b
        E 23 b9 08 19
        E 23 b9 08 18
        E 23 b9 08 16
        E 23 b9 08 15
        E 23 b9 08 13
        E 23 b9 08 11
        E 23 b9 08 10
        E 23 b9 08 0e
        E 23 b9 08 0d
        E 23 b9 08 0b
        E 23 b9 08 0a
        E 23 b9 08 09
        E 23 b9 08 07
        E 23 b9 08 06
        E 23 b9 08 06
        E 23 b9 08 04
        E 23 b9 08 04
        E 23 b9 08 03
        E 23 b9 08 02
        E 23 b9 08 01
        E 23 b9 08 01
        E 23 b9 08 00
        E 23 b9 08 00
        E 23 b9 08 00
        E 23 b9 08 00
        E 23 b9 08 00
        E 23 b9 08 00
        E 23 b9 08 00
        E 23 b9 08 00
        E 23 b9 08 00
        E 23 b9 08 01
        E 23 b9 08 01
        E 23 b9 08 02
        E 23 b9 08 03
        E 23 b9 08 03
        E 23 b9 08 04
        E 23 b9 08 05
        E 23 b9 08 06
        E 23 b9 08 07
        E 23 b9 08 08
        E 23 b9 08 09
        E 23 b9 08 0a
        E 23 b9 08 0c
        E 23 b9 08 0d
        E 23 b9 08 0f
        E 23 b9 08 10
        E 23 b9 08 12
        E 23 b9 08 13
        E 23 b9 08 15
        E 23 b9 08 17
        E 23 b9 08 19
        E 23 b9 08 1b
        E 23 b9 08 1c
        E 23 b9 08 1e
        E 23 b9 08 20
        E 23 b9 08 22
        E 23 b9 08 24
        E 23 b9 08 26
        E 63 b9 08 39
        E 63 b9 08 3c
        E 63 b9 08 3f
        E 63 b9 08 41
        E 63 b9 08 44
        E 63 b9 08 47
        E 63 b9 08 49
        E 63 b9 08 4c
        E 63 b9 08 4f
        E 63 b9 08 51
        E 63 b9 08 54
        E 63 b9 08 56
        E 63 b9 08 59
        E 63 b9 08 5b
        E 63 b9 08 5d
        E 63 b9 08 5f
        E 63 b9 08 62
        E 63 b9 08 63
        E 63 b9 08 65
        E 63 b9 08 67
        E 63 b9 08 69
        E 63 b9 08 6a
        E 63 b9 08 6c
        E 63 b9 08 6c
        E 63 b9 08 6d
        E 63 b9 08 6e
        E 63 b9 08 6f
        E 63 b9 08 70
        E 63 b9 08 71
        E 63 b9 08 71
        E 63 b9 08 72
        E 63 b9 08 72
        E 63 b9 08 72
        E 63 b9 08 72
        E 63 b9 08 72
        E 63 b9 08 71
        E 63 b9 08 71
        E 63 b9 08 70
        E 63 b9 08 6f
        E 63 b9 08 6e
        E 63 b9 08 6d
        E 63 b9 08 6c
        E 63 b9 08 6b
        E 63 b9 08 69
        E 63 b9 08 68
        E 63 b9 08 66
        E 63 b9 08 64
        E 63 b9 08 63
        E 63 b9 08 61
        E 63 b9 08 5e
        E 63 b9 08 5c
        E 63 b9 08 5a
        E 63 b9 08 58
        E 63 b9 08 55
        E 63 b9 08 52
        E 63 b9 08 50
        E 63 b9 08 4e
        E 63 b9 08 4b
        E 63 b9 08 48
        E 63 b9 08 46
        E 63 b9 08 42
        E 63 b9 08 3f
        E 63 b9 08 3d
        E 63 b9 08 3a
        E 63 b9 08 37
        E 63 b9 08 35
        E 63 b9 08 32
        E 63 b9 08 2f
        E 63 b9 08 2c
        E 63 b9 08 29
        E 63 b9 08 26
        E 63 b9 08 24
        E 63 b9 08 22
        E 63 b9 08 1f
        E 63 b9 08 1c
        E 63 b9 08 1a
        E 63 b9 08 18
        E 63 b9 08 15
        E 63 b9 08 13
        E 63 b9 08 11
        E 63 b9 08 0f
        E 63 b9 08 0d
        E 63 b9 08 0b
        E 63 b9 08 09
        E 63 b9 08 09
        E 63 b9 08 07
        E 63 b9 08 06
        E 63 b9 08 04
        E 63 b9 08 03
        E 63 b9 08 02
        E 63 b9 08 01
        E 63 b9 08 00
        E 63 b9 08 00
        E 63 b9 08 00
        E 63 b9 08 00
        E 63 b9 08 00
        E 63 b9 08 00
        E 63 b9 08 00
        E 63 b9 08 00
        E 63 b9 08 00
        E 63 b9 08 01
        E 63 b9 08 02
        E 63 b9 08 03
        E 63 b9 08 04
        E 63 b9 08 05
        E 63 b9 08 06
        E 63 b9 08 08
        E 63 b9 08 09
        E 63 b9 08 0a
        E 63 b9 08 0c
        E 63 b9 08 0e
        E 63 b9 08 10
        E 63 b9 08 12
        E 63 b9 08 14
        E 63 b9 08 16
        E 63 b9 08 19
        E 63 b9 08 1b
        E 63 b9 08 1d
        E 63 b9 08 20
        E 63 b9 08 23
        E 63 b9 08 25
        E 63 b9 08 28
        E 63 b9 08 2b
        E 63 b9 08 2d
        E 63 b9 08 30
        E 63 b9 08 33
        E 63 b9 08 36
        E 63 b9 08 39
        E 7 b9 08 19
        E 7 b9 08 1a
        E 7 b9 08 1c
        E 7 b9 08 1d
        E 7 b9 08 1e
        E 7 b9 08 1f
        E 7 b9 08 20
        E 7 b9 08 22
        E 7 b9 08 23
        E 7 b9 08 24
        E 7 b9 08 25
        E 7 b9 08 26
        E 7 b9 08 27
        E 7 b9 08 28
        E 7 b9 08 29
        E 7 b9 08 2a
        E 7 b9 08 2b
        E 7 b9 08 2c
        E 7 b9 08 2d
        E 7 b9 08 2e
        E 7 b9 08 2e
        E 7 b9 08 2f
        E 7 b9 08 30
        E 7 b9 08 30
        E 7 b9 08 30
        E 7 b9 08 31
        E 7 b9 08 31
        E 7 b9 08 32
        E 7 b9 08 32
        E 7 b9 08 32
        E 7 b9 08 32
        E 7 b9 08 32
        E 7 b9 08 32
        E 7 b9 08 32
        E 7 b9 08 32
        E 7 b9 08 32
        E 7 b9 08 32
        E 7 b9 08 32
        E 7 b9 08 31
        E 7 b9 08 31
        E 7 b9 08 30
        E 7 b9 08 30
        E 7 b9 08 2f
        E 7 b9 08 2e
        E 7 b9 08 2e
        E 7 b9 08 2d
        E 7 b9 08 2c
        E 7 b9 08 2c
        E 7 b9 08 2b
        E 7 b9 08 2a
        E 7 b9 08 29
        E 7 b9 08 28
        E 7 b9 08 27
        E 7 b9 08 26
        E 7 b9 08 24
        E 7 b9 08 23
        E 7 b9 08 22
        E 7 b9 08 21
        E 7 b9 08 20
        E 7 b9 08 1f
        E 7 b9 08 1d
        E 7 b9 08 1c
        E 7 b9 08 1b
        E 7 b9 08 1a
        E 7 b9 08 18
        E 7 b9 08 17
        E 7 b9 08 16
        E 7 b9 08 15
        E 7 b9 08 13
        E 7 b9 08 12
        E 7 b9 08 11
        E 7 b9 08 10
        E 7 b9 08 0f
        E 7 b9 08 0e
        E 7 b9 08 0c
        E 7 b9 08 0b
        E 7 b9 08 0a
        E 7 b9 08 09
        E 7 b9 08 08
        E 7 b9 08 07
        E 7 b9 08 06
        E 7 b9 08 06
        E 7 b9 08 05
        E 7 b9 08 04
        E 7 b9 08 04
        E 7 b9 08 03
        E 7 b9 08 02
        E 7 b9 08 02
        E 7 b9 08 01
        E 7 b9 08 01
        E 7 b9 08 00
        E 7 b9 08 00
        E 7 b9 08 00
        E 7 b9 08 00
        E 7 b9 08 00
        E 7 b9 08 00
        E 7 b9 08 00
        E 7 b9 08 00
        E 7 b9 08 00
        E 7 b9 08 00
        E 7 b9 08 00
        E 7 b9 08 01
        E 7 b9 08 01
        E 7 b9 08 02
        E 7 b9 08 02
        E 7 b9 08 02
        E 7 b9 08 03
        E 7 b9 08 04
        E 7 b9 08 04
        E 7 b9 08 05
        E 7 b9 08 06
        E 7 b9 08 07
        E 7 b9 08 08
        E 7 b9 08 09
        E 7 b9 08 0a
        E 7 b9 08 0b
        E 7 b9 08 0c
        E 7 b9 08 0d
        E 7 b9 08 0e
        E 7 b9 08 0f
        E 7 b9 08 10
        E 7 b9 08 12
        E 7 b9 08 13
        E 7 b9 08 14
        E 7 b9 08 15
        E 7 b9 08 16
        E 7 b9 08 18
        E 7 b9 08 19
        E 71 b9 08 06
        E 71 b9 08 06
        E 71 b9 08 07
        E 71 b9 08 07
        E 71 b9 08 07
        E 71 b9 08 07
        E 71 b9 08 08
        E 71 b9 08 08
        E 71 b9 08 08
        E 71 b9 08 09
        E 71 b9 08 09
        E 71 b9 08 09
        E 71 b9 08 09
        E 71 b9 08 0a
        E 71 b9 08 0a
        E 71 b9 08 0a
        E 71 b9 08 0a
        E 71 b9 08 0b
        E 71 b9 08 0b
        E 71 b9 08 0b
        E 71 b9 08 0b
        E 71 b9 08 0b
        E 71 b9 08 0c
        E 71 b9 08 0c
        E 71 b9 08 0c
        E 71 b9 08 0c
        E 71 b9 08 0c
        E 71 b9 08 0c
        E 71 b9 08 0c
        E 71 b9 08 0c
        E 71 b9 08 0c
        E 71 b9 08 0c
        E 71 b9 08 0c
        E 71 b9 08 0c
        E 71 b9 08 0c
        E 71 b9 08 0c
        E 71 b9 08 0c
        E 71 b9 08 0c
        E 71 b9 08 0c
        E 71 b9 08 0c
        E 71 b9 08 0c
        E 71 b9 08 0c
        E 71 b9 08 0b
        E 71 b9 08 0b
        E 71 b9 08 0b
        E 71 b9 08 0b
        E 71 b9 08 0b
        E 71 b9 08 0b
        E 71 b9 08 0a
        E 71 b9 08 0a
        E 71 b9 08 0a
        E 71 b9 08 0a
        E 71 b9 08 09
        E 71 b9 08 09
        E 71 b9 08 09
        E 71 b9 08 08
        E 71 b9 08 08
        E 71 b9 08 08
        E 71 b9 08 08
        E 71 b9 08 07
        E 71 b9 08 07
        E 71 b9 08 07
        E 71 b9 08 06
        E 71 b9 08 06
        E 71 b9 08 06
        E 71 b9 08 05
        E 71 b9 08 05
        E 71 b9 08 05
        E 71 b9 08 04
        E 71 b9 08 04
        E 71 b9 08 04
        E 71 b9 08 04
        E 71 b9 08 03
        E 71 b9 08 03
        E 71 b9 08 03
        E 71 b9 08 02
        E 71 b9 08 02
        E 71 b9 08 02
        E 71 b9 08 02
        E 71 b9 08 01
        E 71 b9 08 01
        E 71 b9 08 01
        E 71 b9 08 01
        E 71 b9 08 01
        E 71 b9 08 01
        E 71 b9 08 00
        E 71 b9 08 00
        E 71 b9 08 00
        E 71 b9 08 00
        E 71 b9 08 00
        E 71 b9 08 00
        E 71 b9 08 00
        E 71 b9 08 00
        E 71 b9 08 00
        E 71 b9 08 00
        E 71 b9 08 00
        E 71 b9 08 00
        E 71 b9 08 00
        E 71 b9 08 00
        E 71 b9 08 00
        E 71 b9 08 00
        E 71 b9 08 00
        E 71 b9 08 00
        E 71 b9 08 00
        E 71 b9 08 00
        E 71 b9 08 00
        E 71 b9 08 00
        E 71 b9 08 01
        E 71 b9 08 01
        E 71 b9 08 01
        E 71 b9 08 01
        E 71 b9 08 01
        E 71 b9 08 02
        E 71 b9 08 02
        E 71 b9 08 02
        E 71 b9 08 02
        E 71 b9 08 03
        E 71 b9 08 03
        E 71 b9 08 03
        E 71 b9 08 03
        E 71 b9 08 04
        E 71 b9 08 04
        E 71 b9 08 04
        E 71 b9 08 05
        E 71 b9 08 05
        E 71 b9 08 05
        E 71 b9 08 06
        E 71 b9 08 06
        E 63 b9 08 2c
        E 63 b9 08 2e
        E 63 b9 08 31
        E 63 b9 08 33
        E 63 b9 08 35
        E 63 b9 08 37
        E 63 b9 08 39
        E 63 b9 08 3b
        E 63 b9 08 3d
        E 63 b9 08 3f
        E 63 b9 08 41
        E 63 b9 08 43
        E 63 b9 08 45
        E 63 b9 08 47
        E 63 b9 08 48
        E 63 b9 08 4a
        E 63 b9 08 4c
        E 63 b9 08 4d
        E 63 b9 08 4f
        E 63 b9 08 50
        E 63 b9 08 51
        E 63 b9 08 52
        E 63 b9 08 54
        E 63 b9 08 54
        E 63 b9 08 55
        E 63 b9 08 56
        E 63 b9 08 56
        E 63 b9 08 57
        E 63 b9 08 58
        E 63 b9 08 58
        E 63 b9 08 58
        E 63 b9 08 58
        E 63 b9 08 58
        E 63 b9 08 58
        E 63 b9 08 58
        E 63 b9 08 58
        E 63 b9 08 58
        E 63 b9 08 57
        E 63 b9 08 56
        E 63 b9 08 56
        E 63 b9 08 55
        E 63 b9 08 54
        E 63 b9 08 53
        E 63 b9 08 51
        E 63 b9 08 51
        E 63 b9 08 4f
        E 63 b9 08 4e
        E 63 b9 08 4d
        E 63 b9 08 4b
        E 63 b9 08 49
        E 63 b9 08 48
        E 63 b9 08 46
        E 63 b9 08 44
        E 63 b9 08 42
        E 63 b9 08 40
        E 63 b9 08 3e
        E 63 b9 08 3c
        E 63 b9 08 3a
        E 63 b9 08 38
        E 63 b9 08 36
        E 63 b9 08 33
        E 63 b9 08 31
        E 63 b9 08 2f
        E 63 b9 08 2d
        E 63 b9 08 2b
        E 63 b9 08 29
        E 63 b9 08 27
        E 63 b9 08 25
        E 63 b9 08 22
        E 63 b9 08 20
        E 63 b9 08 1e
        E 63 b9 08 1c
        E 63 b9 08 1a
        E 63 b9 08 18
        E 63 b9 08 16
        E 63 b9 08 14
        E 63 b9 08 12
        E 63 b9 08 10
        E 63 b9 08 0f
        E 63 b9 08 0d
        E 63 b9 08 0b
        E 63 b9 08 0a
        E 63 b9 08 09
        E 63 b9 08 07
        E 63 b9 08 07
        E 63 b9 08 05
        E 63 b9 08 04
        E 63 b9 08 03
        E 63 b9 08 02
        E 63 b9 08 02
        E 63 b9 08 01
        E 63 b9 08 00
        E 63 b9 08 00
        E 63 b9 08 00
        E 63 b9 08 00
        E 63 b9 08 00
        E 63 b9 08 00
        E 63 b9 08 00
        E 63 b9 08 00
        E 63 b9 08 00
        E 63 b9 08 01
        E 63 b9 08 02
        E 63 b9 08 02
        E 63 b9 08 03
        E 63 b9 08 04
        E 63 b9 08 04
        E 63 b9 08 06
        E 63 b9 08 07
        E 63 b9 08 08
        E 63 b9 08 09
        E 63 b9 08 0b
        E 63 b9 08 0c
        E 63 b9 08 0e
        E 63 b9 08 10
        E 63 b9 08 11
        E 63 b9 08 13
        E 63 b9 08 15
        E 63 b9 08 17
        E 63 b9 08 19
        E 63 b9 08 1b
        E 63 b9 08 1d
        E 63 b9 08 1f
        E 63 b9 08 21
        E 63 b9 08 23
        E 63 b9 08 25
        E 63 b9 08 27
        E 63 b9 08 2a
        E 63 b9 08 2c
        E 71 b9 08 13
        E 71 b9 08 14
        E 71 b9 08 15
        E 71 b9 08 15
        E 71 b9 08 16
        E 71 b9 08 17
        E 71 b9 08 18
        E 71 b9 08 19
        E 71 b9 08 1a
        E 71 b9 08 1b
        E 71 b9 08 1c
        E 71 b9 08 1c
        E 71 b9 08 1d
        E 71 b9 08 1e
        E 71 b9 08 1f
        E 71 b9 08 1f
        E 71 b9 08 20
        E 71 b9 08 21
        E 71 b9 08 21
        E 71 b9 08 22
        E 71 b9 08 23
        E 71 b9 08 23
        E 71 b9 08 24
        E 71 b9 08 24
        E 71 b9 08 24
        E 71 b9 08 24
        E 71 b9 08 25
        E 71 b9 08 25
        E 71 b9 08 25
        E 71 b9 08 25
        E 71 b9 08 26
        E 71 b9 08 26
        E 71 b9 08 26
        E 71 b9 08 26
        E 71 b9 08 26
        E 71 b9 08 25
        E 71 b9 08 25
        E 71 b9 08 25
        E 71 b9 08 25
        E 71 b9 08 24
        E 71 b9 08 24
        E 71 b9 08 24
        E 71 b9 08 23
        E 71 b9 08 23
        E 71 b9 08 22
        E 71 b9 08 22
        E 71 b9 08 21
        E 71 b9 08 21
        E 71 b9 08 20
        E 71 b9 08 1f
        E 71 b9 08 1e
        E 71 b9 08 1e
        E 71 b9 08 1d
        E 71 b9 08 1c
        E 71 b9 08 1b
        E 71 b9 08 1a
        E 71 b9 08 1a
        E 71 b9 08 19
        E 71 b9 08 18
        E 71 b9 08 17
        E 71 b9 08 16
        E 71 b9 08 15
        E 71 b9 08 14
        E 71 b9 08 13
        E 71 b9 08 12
        E 71 b9 08 11
        E 71 b9 08 10
        E 71 b9 08 0f
        E 71 b9 08 0e
        E 71 b9 08 0d
        E 71 b9 08 0c
        E 71 b9 08 0c
        E 71 b9 08 0b
        E 71 b9 08 0a
        E 71 b9 08 09
        E 71 b9 08 08
        E 71 b9 08 08
        E 71 b9 08 07
        E 71 b9 08 06
        E 71 b9 08 05
        E 71 b9 08 05
        E 71 b9 08 04
        E 71 b9 08 03
        E 71 b9 08 03
        E 71 b9 08 03
        E 71 b9 08 02
        E 71 b9 08 02
        E 71 b9 08 01
        E 71 b9 08 01
        E 71 b9 08 00
        E 71 b9 08 00
        E 71 b9 08 00
        E 71 b9 08 00
        E 71 b9 08 00
        E 71 b9 08 00
        E 71 b9 08 00
        E 71 b9 08 00
        E 71 b9 08 00
        E 71 b9 08 00
        E 71 b9 08 00
        E 71 b9 08 00
        E 71 b9 08 00
        E 71 b9 08 01
        E 71 b9 08 01
        E 71 b9 08 01
        E 71 b9 08 02
        E 71 b9 08 02
        E 71 b9 08 03
        E 71 b9 08 03
        E 71 b9 08 04
        E 71 b9 08 04
        E 71 b9 08 05
        E 71 b9 08 06
        E 71 b9 08 06
        E 71 b9 08 07
        E 71 b9 08 08
        E 71 b9 08 09
        E 71 b9 08 09
        E 71 b9 08 0a
        E 71 b9 08 0b
        E 71 b9 08 0c
        E 71 b9 08 0d
        E 71 b9 08 0e
        E 71 b9 08 0f
        E 71 b9 08 10
        E 71 b9 08 11
        E 71 b9 08 12
        E 71 b9 08 13
        E 23 b9 08 26
        E 23 b9 08 28
        E 23 b9 08 2a
        E 23 b9 08 2b
        E 23 b9 08 2d
        E 23 b9 08 2f
        E 23 b9 08 31
        E 23 b9 08 33
        E 23 b9 08 34
        E 23 b9 08 36
        E 23 b9 08 38
        E 23 b9 08 39
        E 23 b9 08 3b
        E 23 b9 08 3d
        E 23 b9 08 3e
        E 23 b9 08 3f
        E 23 b9 08 41
        E 23 b9 08 42
        E 23 b9 08 43
        E 23 b9 08 45
        E 23 b9 08 46
        E 23 b9 08 46
        E 23 b9 08 48
        E 23 b9 08 48
        E 23 b9 08 49
        E 23 b9 08 49
        E 23 b9 08 4a
        E 23 b9 08 4b
        E 23 b9 08 4b
        E 23 b9 08 4b
        E 23 b9 08 4c
        E 23 b9 08 4c
        E 23 b9 08 4c
        E 23 b9 08 4c
        E 23 b9 08 4c
        E 23 b9 08 4b
        E 23 b9 08 4b
        E 23 b9 08 4b
        E 23 b9 08 4a
        E 23 b9 08 49
        E 23 b9 08 49
        E 23 b9 08 48
        E 23 b9 08 47
        E 23 b9 08 46
        E 23 b9 08 45
        E 23 b9 08 44
        E 23 b9 08 43
        E 23 b9 08 42
        E 23 b9 08 40
        E 23 b9 08 3f
        E 23 b9 08 3d
        E 23 b9 08 3c
        E 23 b9 08 3a
        E 23 b9 08 39
        E 23 b9 08 37
        E 23 b9 08 35
        E 23 b9 08 34
        E 23 b9 08 32
        E 23 b9 08 30
        E 23 b9 08 2e
        E 23 b9 08 2c
        E 23 b9 08 2a
        E 23 b9 08 28
        E 23 b9 08 27
        E 23 b9 08 25
        E 23 b9 08 23
        E 23 b9 08 21
        E 23 b9 08 1f
        E 23 b9 08 1d
        E 23 b9 08 1b
        E 23 b9 08 19
        E 23 b9 08 18
        E 23 b9 08 16
        E 23 b9 08 15
        E 23 b9 08 13
        E 23 b9 08 11
        E 23 b9 08 10
        E 23 b9 08 0e
        E 23 b9 08 0d
        E 23 b9 08 0b
        E 23 b9 08 0a
        E 23 b9 08 09
        E 23 b9 08 07
        E 23 b9 08 06
        E 23 b9 08 06
        E 23 b9 08 04
        E 23 b9 08 04
        E 23 b9 08 03
        E 23 b9 08 02
        E 23 b9 08 01
        E 23 b9 08 01
        E 23 b9 08 00
        E 23 b9 08 00
        E 23 b9 08 00
        E 23 b9 08 00
        E 23 b9 08 00
        E 23 b9 08 00
        E 23 b9 08 00
        E 23 b9 08 00
        E 23 b9 08 00
        E 23 b9 08 01
        E 23 b9 08 01
        E 23 b9 08 02
        E 23 b9 08 03
        E 23 b9 08 03
        E 23 b9 08 04
        E 23 b9 08 05
        E 23 b9 08 06
        E 23 b9 08 07
        E 23 b9 08 08
        E 23 b9 08 09
        E 23 b9 08 0a
        E 23 b9 08 0c
        E 23 b9 08 0d
        E 23 b9 08 0f
        E 23 b9 08 10
        E 23 b9 08 12
        E 23 b9 08 13
        E 23 b9 08 15
        E 23 b9 08 17
        E 23 b9 08 19
        E 23 b9 08 1b
        E 23 b9 08 1c
        E 23 b9 08 1e
        E 23 b9 08 20
        E 23 b9 08 22
        E 23 b9 08 24
        E 23 b9 08 26
        E 63 b9 08 39
        E 63 b9 08 3c
        E 63 b9 08 3f
        E 63 b9 08 41
        E 63 b9 08 44
        E 63 b9 08 47
        E 63 b9 08 49
        E 63 b9 08 4c
        E 63 b9 08 4f
        E 63 b9 08 51
        E 63 b9 08 54
        E 63 b9 08 56
        E 63 b9 08 59
        E 63 b9 08 5b
        E 63 b9 08 5d
        E 63 b9 08 5f
        E 63 b9 08 62
        E 63 b9 08 63
        E 63 b9 08 65
        E 63 b9 08 67
        E 63 b9 08 69
        E 63 b9 08 6a
        E 63 b9 08 6c
        E 63 b9 08 6c
        E 63 b9 08 6d
        E 63 b9 08 6e
        E 63 b9 08 6f
        E 63 b9 08 70
        E 63 b9 08 71
        E 63 b9 08 71
        E 63 b9 08 72
        E 63 b9 08 72
        E 63 b9 08 72
        E 63 b9 08 72
        E 63 b9 08 72
        E 63 b9 08 71
        E 63 b9 08 71
        E 63 b9 08 70
        E 63 b9 08 6f
        E 63 b9 08 6e
        E 63 b9 08 6d
        E 63 b9 08 6c
        E 63 b9 08 6b
        E 63 b9 08 69
        E 63 b9 08 68
        E 63 b9 08 66
        E 63 b9 08 64
        E 63 b9 08 63
        E 63 b9 08 61
        E 63 b9 08 5e
        E 63 b9 08 5c
        E 63 b9 08 5a
        E 63 b9 08 58
        E 63 b9 08 55
        E 63 b9 08 52
        E 63 b9 08 50
        E 63 b9 08 4e
        E 63 b9 08 4b
        E 63 b9 08 48
        E 63 b9 08 46
        E 63 b9 08 42
        E 63 b9 08 3f
        E 63 b9 08 3d
        E 63 b9 08 3a
        E 63 b9 08 37
        E 63 b9 08 35
        E 63 b9 08 32
        E 63 b9 08 2f
        E 63 b9 08 2c
        E 63 b9 08 29
        E 63 b9 08 26
        E 63 b9 08 24
        E 63 b9 08 22
        E 63 b9 08 1f
        E 63 b9 08 1c
        E 63 b9 08 1a
        E 63 b9 08 18
        E 63 b9 08 15
        E 63 b9 08 13
        E 63 b9 08 11
        E 63 b9 08 0f
        E 63 b9 08 0d
        E 63 b9 08 0b
        E 63 b9 08 09
        E 63 b9 08 09
        E 63 b9 08 07
        E 63 b9 08 06
        E 63 b9 08 04
        E 63 b9 08 03
        E 63 b9 08 02
        E 63 b9 08 01
        E 63 b9 08 00
        E 63 b9 08 00
        E 63 b9 08 00
        E 63 b9 08 00
        E 63 b9 08 00
        E 63 b9 08 00
        E 63 b9 08 00
        E 63 b9 08 00
        E 63 b9 08 00
        E 63 b9 08 01
        E 63 b9 08 02
        E 63 b9 08 03
        E 63 b9 08 04
        E 63 b9 08 05
        E 63 b9 08 06
        E 63 b9 08 08
        E 63 b9 08 09
        E 63 b9 08 0a
        E 63 b9 08 0c
        E 63 b9 08 0e
        E 63 b9 08 10
        E 63 b9 08 12
        E 63 b9 08 14
        E 63 b9 08 16
        E 63 b9 08 19
        E 63 b9 08 1b
        E 63 b9 08 1d
        E 63 b9 08 20
        E 63 b9 08 23
        E 63 b9 08 25
        E 63 b9 08 28
        E 63 b9 08 2b
        E 63 b9 08 2d
        E 63 b9 08 30
        E 63 b9 08 33
        E 63 b9 08 36
        E 63 b9 08 39
        E 7 b9 08 19
        E 7 b9 08 1a
        E 7 b9 08 1c
        E 7 b9 08 1d
        E 7 b9 08 1e
        E 7 b9 08 1f
        E 7 b9 08 20
        E 7 b9 08 22
        E 7 b9 08 23
        E 7 b9 08 24
        E 7 b9 08 25
        E 7 b9 08 26
        E 7 b9 08 27
        E 7 b9 08 28
        E 7 b9 08 29
        E 7 b9 08 2a
        E 7 b9 08 2b
        E 7 b9 08 2c
        E 7 b9 08 2d
        E 7 b9 08 2e
        E 7 b9 08 2e
        E 7 b9 08 2f
        E 7 b9 08 30
        E 7 b9 08 30
        E 7 b9 08 30
        E 7 b9 08 31
        E 7 b9 08 31
        E 7 b9 08 32
        E 7 b9 08 32
        E 7 b9 08 32
        E 7 b9 08 32
        E 7 b9 08 32
        E 7 b9 08 32
        E 7 b9 08 32
        E 7 b9 08 32
        E 7 b9 08 32
        E 7 b9 08 32
        E 7 b9 08 32
        E 7 b9 08 31
        E 7 b9 08 31
        E 7 b9 08 30
        E 7 b9 08 30
        E 7 b9 08 2f
        E 7 b9 08 2e
        E 7 b9 08 2e
        E 7 b9 08 2d
        E 7 b9 08 2c
        E 7 b9 08 2c
        E 7 b9 08 2b
        E 7 b9 08 2a
        E 7 b9 08 29
        E 7 b9 08 28
        E 7 b9 08 27
        E 7 b9 08 26
        E 7 b9 08 24
        E 7 b9 08 23
        E 7 b9 08 22
        E 7 b9 08 21
        E 7 b9 08 20
        E 7 b9 08 1f
        E 7 b9 08 1d
        E 7 b9 08 1c
        E 7 b9 08 1b
        E 7 b9 08 1a
        E 7 b9 08 18
        E 7 b9 08 17
        E 7 b9 08 16
        E 7 b9 08 15
        E 7 b9 08 13
        E 7 b9 08 12
        E 7 b9 08 11
        E 7 b9 08 10
        E 7 b9 08 0f
        E 7 b9 08 0e
        E 7 b9 08 0c
        E 7 b9 08 0b
        E 7 b9 08 0a
        E 7 b9 08 09
        E 7 b9 08 08
        E 7 b9 08 07
        E 7 b9 08 06
        E 7 b9 08 06
        E 7 b9 08 05
        E 7 b9 08 04
        E 7 b9 08 04
        E 7 b9 08 03
        E 7 b9 08 02
        E 7 b9 08 02
        E 7 b9 08 01
        E 7 b9 08 01
        E 7 b9 08 00
        E 7 b9 08 00
        E 7 b9 08 00
        E 7 b9 08 00
        E 7 b9 08 00
        E 7 b9 08 00
        E 7 b9 08 00
        E 7 b9 08 00
        E 7 b9 08 00
        E 7 b9 08 00
        E 7 b9 08 00
        E 7 b9 08 01
        E 7 b9 08 01
        E 7 b9 08 02
        E 7 b9 08 02
        E 7 b9 08 02
        E 7 b9 08 03
        E 7 b9 08 04
        E 7 b9 08 04
        E 7 b9 08 05
        E 7 b9 08 06
        E 7 b9 08 07
        E 7 b9 08 08
        E 7 b9 08 09
        E 7 b9 08 0a
        E 7 b9 08 0b
        E 7 b9 08 0c
        E 7 b9 08 0d
        E 7 b9 08 0e
        E 7 b9 08 0f
        E 7 b9 08 10
        E 7 b9 08 12
        E 7 b9 08 13
        E 7 b9 08 14
        E 7 b9 08 15
        E 7 b9 08 16
        E 7 b9 08 18
        E 7 b9 08 19
        E 71 b9 08 06
        E 71 b9 08 06
        E 71 b9 08 07
        E 71 b9 08 07
        E 71 b9 08 07
        E 71 b9 08 07
        E 71 b9 08 08
        E 71 b9 08 08
        E 71 b9 08 08
        E 71 b9 08 09
        E 71 b9 08 09
        E 71 b9 08 09
        E 71 b9 08 09
        E 71 b9 08 0a
        E 71 b9 08 0a
        E 71 b9 08 0a
        E 71 b9 08 0a
        E 71 b9 08 0b
        E 71 b9 08 0b
        E 71 b9 08 0b
        E 71 b9 08 0b
        E 71 b9 08 0b
        E 71 b9 08 0c
        E 71 b9 08 0c
        E 71 b9 08 0c
        E 71 b9 08 0c
        E 71 b9 08 0c
        E 71 b9 08 0c
        E 71 b9 08 0c
        E 71 b9 08 0c
        E 71 b9 08 0c
        E 71 b9 08 0c
        E 71 b9 08 0c
        E 71 b9 08 0c
        E 71 b9 08 0c
        E 71 b9 08 0c
        E 71 b9 08 0c
        E 71 b9 08 0c
        E 71 b9 08 0c
        E 71 b9 08 0c
        E 71 b9 08 0c
        E 71 b9 08 0c
        E 71 b9 08 0b
        E 71 b9 08 0b
        E 71 b9 08 0b
        E 71 b9 08 0b
        E 71 b9 08 0b
        E 71 b9 08 0b
        E 71 b9 08 0a
        E 71 b9 08 0a
        E 71 b9 08 0a
        E 71 b9 08 0a
        E 71 b9 08 09
        E 71 b9 08 09
        E 71 b9 08 09
        E 71 b9 08 08
        E 71 b9 08 08
        E 71 b9 08 08
        E 71 b9 08 08
        E 71 b9 08 07
        E 71 b9 08 07
        E 71 b9 08 07
        E 71 b9 08 06
        E 71 b9 08 06
        E 71 b9 08 06
        E 71 b9 08 05
        E 71 b9 08 05
        E 71 b9 08 05
        E 71 b9 08 04
        E 71 b9 08 04
        E 71 b9 08 04
        E 71 b9 08 04
        E 71 b9 08 03
        E 71 b9 08 03
        E 71 b9 08 03
        E 71 b9 08 02
        E 71 b9 08 02
        E 71 b9 08 02
        E 71 b9 08 02
        E 71 b9 08 01
        E 71 b9 08 01
        E 71 b9 08 01
        E 71 b9 08 01
        E 71 b9 08 01
        E 71 b9 08 01
        E 71 b9 08 00
        E 71 b9 08 00
        E 71 b9 08 00
        E 71 b9 08 00
        E 71 b9 08 00
        E 71 b9 08 00
        E 71 b9 08 00
        E 71 b9 08 00
        E 71 b9 08 00
        E 71 b9 08 00
        E 71 b9 08 00
        E 71 b9 08 00
        E 71 b9 08 00
        E 71 b9 08 00
        E 71 b9 08 00
        E 71 b9 08 00
        E 71 b9 08 00
        E 71 b9 08 00
        E 71 b9 08 00
        E 71 b9 08 00
        E 71 b9 08 00
        E 71 b9 08 00
        E 71 b9 08 01
        E 71 b9 08 01
        E 71 b9 08 01
        E 71 b9 08 01
        E 71 b9 08 01
        E 71 b9 08 02
        E 71 b9 08 02
        E 71 b9 08 02
        E 71 b9 08 02
        E 71 b9 08 03
        E 71 b9 08 03
        E 71 b9 08 03
        E 71 b9 08 03
        E 71 b9 08 04
        E 71 b9 08 04
        E 71 b9 08 04
        E 71 b9 08 05
        E 71 b9 08 05
        E 71 b9 08 05
        E 71 b9 08 06
        E 71 b9 08 06
        E 17 b0 7b 00
        CCINTERP 32
        CHASE_CC_TAKEOFFS 1
        GUID {EE4FB6F4-FC50-CD48-B8AF-44559027C8FE}
        IGNTEMPO 0 120 4 4
        SRCCOLOR 78
        VELLANE 3 601 0
        VELLANE -1 196 0
      >
    >
  >
  <TRACK {255B2FC1-946C-324A-B90F-D23B1F66852C}
    NAME "cannabis-infused gummies"
    PEAKCOL 16576
    BEAT -1
    AUTOMODE 0
    VOLPAN 1 0 -1 -1 1
    MUTESOLO 0 0 0
    IPHASE 0
    PLAYOFFS 0 1
    ISBUS 0 0
    BUSCOMP 0 0 0 0 0
    SHOWINMIX 1 0.6667 0.5 1 0.5 0 -1 0
    FREEMODE 0
    SEL 0
    REC 0 0 1 0 0 0 0
    VU 2
    TRACKHEIGHT 0 0 0 0 -1 0
    INQ 0 0 0 0.5 100 0 0 100
    NCHAN 2
    FX 1
    TRACKID {255B2FC1-946C-324A-B90F-D23B1F66852C}
    PERF 0
    MIDIOUT -1
    MAINSEND 1 0
    <ITEM
      POSITION 0
      SNAPOFFS 0
      LENGTH 434.69324
      LOOP 1
      ALLTAKES 0
      FADEIN 1 0 0 1 0 0
      FADEOUT 1 0 0 1 0 0
      MUTE 0 0
      SEL 0
      IGUID {4F471F30-C763-9344-AEEE-86CD2DF2B502}
      IID 23
      NAME "cannabis-infused gummies.mid"
      VOLPAN 1 0 1 -1
      SOFFS 0 0
      PLAYRATE 1 1 0 -1 0 0.0025
      CHANMODE 0
      GUID {EFD860EF-E01A-494B-9B7D-7C8790A262B7}
      <SOURCE MIDI
        HASDATA 1 128 QN
        CCINTERP 32
        POOLEDEVTS {727A00EE-ED7D-5344-9A81-1238547B0DEF}
        E 20 ba 03 33
        E 20 ba 03 35
        E 20 ba 03 37
        E 20 ba 03 3a
        E 20 ba 03 3c
        E 20 ba 03 3f
        E 20 ba 03 41
        E 20 ba 03 44
        E 20 ba 03 46
        E 20 ba 03 48
        E 20 ba 03 4b
        E 20 ba 03 4c
        E 20 ba 03 4f
        E 20 ba 03 51
        E 20 ba 03 53
        E 20 ba 03 54
        E 20 ba 03 57
        E 20 ba 03 58
        E 20 ba 03 5a
        E 20 ba 03 5b
        E 20 ba 03 5d
        E 20 ba 03 5e
        E 20 ba 03 5f
        E 20 ba 03 60
        E 20 ba 03 61
        E 20 ba 03 62
        E 20 ba 03 63
        E 20 ba 03 63
        E 20 ba 03 64
        E 20 ba 03 64
        E 20 ba 03 65
        E 20 ba 03 65
        E 20 ba 03 65
        E 20 ba 03 65
        E 20 ba 03 65
        E 20 ba 03 64
        E 20 ba 03 64
        E 20 ba 03 63
        E 20 ba 03 63
        E 20 ba 03 62
        E 20 ba 03 61
        E 20 ba 03 5f
        E 20 ba 03 5f
        E 20 ba 03 5d
        E 20 ba 03 5c
        E 20 ba 03 5b
        E 20 ba 03 59
        E 20 ba 03 57
        E 20 ba 03 56
        E 20 ba 03 54
        E 20 ba 03 52
        E 20 ba 03 50
        E 20 ba 03 4e
        E 20 ba 03 4c
        E 20 ba 03 49
        E 20 ba 03 47
        E 20 ba 03 45
        E 20 ba 03 43
        E 20 ba 03 40
        E 20 ba 03 3e
        E 20 ba 03 3b
        E 20 ba 03 38
        E 20 ba 03 36
        E 20 ba 03 33
        E 20 ba 03 31
        E 20 ba 03 2f
        E 20 ba 03 2c
        E 20 ba 03 2a
        E 20 ba 03 27
        E 20 ba 03 24
        E 20 ba 03 22
        E 20 ba 03 1f
        E 20 ba 03 1e
        E 20 ba 03 1b
        E 20 ba 03 19
        E 20 ba 03 17
        E 20 ba 03 15
        E 20 ba 03 13
        E 20 ba 03 11
        E 20 ba 03 0f
        E 20 ba 03 0d
        E 20 ba 03 0b
        E 20 ba 03 0a
        E 20 ba 03 08
        E 20 ba 03 07
        E 20 ba 03 06
        E 20 ba 03 05
        E 20 ba 03 03
        E 20 ba 03 03
        E 20 ba 03 02
        E 20 ba 03 01
        E 20 ba 03 00
        E 20 ba 03 00
        E 20 ba 03 00
        E 20 ba 03 00
        E 20 ba 03 00
        E 20 ba 03 00
        E 20 ba 03 00
        E 20 ba 03 00
        E 20 ba 03 00
        E 20 ba 03 01
        E 20 ba 03 02
        E 20 ba 03 03
        E 20 ba 03 03
        E 20 ba 03 04
        E 20 ba 03 05
        E 20 ba 03 07
        E 20 ba 03 07
        E 20 ba 03 09
        E 20 ba 03 0b
        E 20 ba 03 0c
        E 20 ba 03 0e
        E 20 ba 03 10
        E 20 ba 03 12
        E 20 ba 03 14
        E 20 ba 03 16
        E 20 ba 03 18
        E 20 ba 03 1a
        E 20 ba 03 1c
        E 20 ba 03 1f
        E 20 ba 03 21
        E 20 ba 03 24
        E 20 ba 03 26
        E 20 ba 03 28
        E 20 ba 03 2b
        E 20 ba 03 2d
        E 20 ba 03 2f
        E 20 ba 03 33
        E 5 ba 03 06
        E 5 ba 03 06
        E 5 ba 03 07
        E 5 ba 03 07
        E 5 ba 03 07
        E 5 ba 03 07
        E 5 ba 03 08
        E 5 ba 03 08
        E 5 ba 03 08
        E 5 ba 03 09
        E 5 ba 03 09
        E 5 ba 03 09
        E 5 ba 03 09
        E 5 ba 03 0a
        E 5 ba 03 0a
        E 5 ba 03 0a
        E 5 ba 03 0a
        E 5 ba 03 0b
        E 5 ba 03 0b
        E 5 ba 03 0b
        E 5 ba 03 0b
        E 5 ba 03 0b
        E 5 ba 03 0c
        E 5 ba 03 0c
        E 5 ba 03 0c
        E 5 ba 03 0c
        E 5 ba 03 0c
        E 5 ba 03 0c
        E 5 ba 03 0c
        E 5 ba 03 0c
        E 5 ba 03 0c
        E 5 ba 03 0c
        E 5 ba 03 0c
        E 5 ba 03 0c
        E 5 ba 03 0c
        E 5 ba 03 0c
        E 5 ba 03 0c
        E 5 ba 03 0c
        E 5 ba 03 0c
        E 5 ba 03 0c
        E 5 ba 03 0c
        E 5 ba 03 0c
        E 5 ba 03 0b
        E 5 ba 03 0b
        E 5 ba 03 0b
        E 5 ba 03 0b
        E 5 ba 03 0b
        E 5 ba 03 0b
        E 5 ba 03 0a
        E 5 ba 03 0a
        E 5 ba 03 0a
        E 5 ba 03 0a
        E 5 ba 03 09
        E 5 ba 03 09
        E 5 ba 03 09
        E 5 ba 03 08
        E 5 ba 03 08
        E 5 ba 03 08
        E 5 ba 03 08
        E 5 ba 03 07
        E 5 ba 03 07
        E 5 ba 03 07
        E 5 ba 03 06
        E 5 ba 03 06
        E 5 ba 03 06
        E 5 ba 03 05
        E 5 ba 03 05
        E 5 ba 03 05
        E 5 ba 03 04
        E 5 ba 03 04
        E 5 ba 03 04
        E 5 ba 03 04
        E 5 ba 03 03
        E 5 ba 03 03
        E 5 ba 03 03
        E 5 ba 03 02
        E 5 ba 03 02
        E 5 ba 03 02
        E 5 ba 03 02
        E 5 ba 03 01
        E 5 ba 03 01
        E 5 ba 03 01
        E 5 ba 03 01
        E 5 ba 03 01
        E 5 ba 03 01
        E 5 ba 03 00
        E 5 ba 03 00
        E 5 ba 03 00
        E 5 ba 03 00
        E 5 ba 03 00
        E 5 ba 03 00
        E 5 ba 03 00
        E 5 ba 03 00
        E 5 ba 03 00
        E 5 ba 03 00
        E 5 ba 03 00
        E 5 ba 03 00
        E 5 ba 03 00
        E 5 ba 03 00
        E 5 ba 03 00
        E 5 ba 03 00
        E 5 ba 03 00
        E 5 ba 03 00
        E 5 ba 03 00
        E 5 ba 03 00
        E 5 ba 03 00
        E 5 ba 03 00
        E 5 ba 03 01
        E 5 ba 03 01
        E 5 ba 03 01
        E 5 ba 03 01
        E 5 ba 03 01
        E 5 ba 03 02
        E 5 ba 03 02
        E 5 ba 03 02
        E 5 ba 03 02
        E 5 ba 03 03
        E 5 ba 03 03
        E 5 ba 03 03
        E 5 ba 03 03
        E 5 ba 03 04
        E 5 ba 03 04
        E 5 ba 03 04
        E 5 ba 03 05
        E 5 ba 03 05
        E 5 ba 03 05
        E 5 ba 03 06
        E 5 ba 03 06
        E 36 ba 03 39
        E 36 ba 03 3c
        E 36 ba 03 3f
        E 36 ba 03 41
        E 36 ba 03 44
        E 36 ba 03 47
        E 36 ba 03 49
        E 36 ba 03 4c
        E 36 ba 03 4f
        E 36 ba 03 51
        E 36 ba 03 54
        E 36 ba 03 56
        E 36 ba 03 59
        E 36 ba 03 5b
        E 36 ba 03 5d
        E 36 ba 03 5f
        E 36 ba 03 62
        E 36 ba 03 63
        E 36 ba 03 65
        E 36 ba 03 67
        E 36 ba 03 69
        E 36 ba 03 6a
        E 36 ba 03 6c
        E 36 ba 03 6c
        E 36 ba 03 6d
        E 36 ba 03 6e
        E 36 ba 03 6f
        E 36 ba 03 70
        E 36 ba 03 71
        E 36 ba 03 71
        E 36 ba 03 72
        E 36 ba 03 72
        E 36 ba 03 72
        E 36 ba 03 72
        E 36 ba 03 72
        E 36 ba 03 71
        E 36 ba 03 71
        E 36 ba 03 70
        E 36 ba 03 6f
        E 36 ba 03 6e
        E 36 ba 03 6d
        E 36 ba 03 6c
        E 36 ba 03 6b
        E 36 ba 03 69
        E 36 ba 03 68
        E 36 ba 03 66
        E 36 ba 03 64
        E 36 ba 03 63
        E 36 ba 03 61
        E 36 ba 03 5e
        E 36 ba 03 5c
        E 36 ba 03 5a
        E 36 ba 03 58
        E 36 ba 03 55
        E 36 ba 03 52
        E 36 ba 03 50
        E 36 ba 03 4e
        E 36 ba 03 4b
        E 36 ba 03 48
        E 36 ba 03 46
        E 36 ba 03 42
        E 36 ba 03 3f
        E 36 ba 03 3d
        E 36 ba 03 3a
        E 36 ba 03 37
        E 36 ba 03 35
        E 36 ba 03 32
        E 36 ba 03 2f
        E 36 ba 03 2c
        E 36 ba 03 29
        E 36 ba 03 26
        E 36 ba 03 24
        E 36 ba 03 22
        E 36 ba 03 1f
        E 36 ba 03 1c
        E 36 ba 03 1a
        E 36 ba 03 18
        E 36 ba 03 15
        E 36 ba 03 13
        E 36 ba 03 11
        E 36 ba 03 0f
        E 36 ba 03 0d
        E 36 ba 03 0b
        E 36 ba 03 09
        E 36 ba 03 09
        E 36 ba 03 07
        E 36 ba 03 06
        E 36 ba 03 04
        E 36 ba 03 03
        E 36 ba 03 02
        E 36 ba 03 01
        E 36 ba 03 00
        E 36 ba 03 00
        E 36 ba 03 00
        E 36 ba 03 00
        E 36 ba 03 00
        E 36 ba 03 00
        E 36 ba 03 00
        E 36 ba 03 00
        E 36 ba 03 00
        E 36 ba 03 01
        E 36 ba 03 02
        E 36 ba 03 03
        E 36 ba 03 04
        E 36 ba 03 05
        E 36 ba 03 06
        E 36 ba 03 08
        E 36 ba 03 09
        E 36 ba 03 0a
        E 36 ba 03 0c
        E 36 ba 03 0e
        E 36 ba 03 10
        E 36 ba 03 12
        E 36 ba 03 14
        E 36 ba 03 16
        E 36 ba 03 19
        E 36 ba 03 1b
        E 36 ba 03 1d
        E 36 ba 03 20
        E 36 ba 03 23
        E 36 ba 03 25
        E 36 ba 03 28
        E 36 ba 03 2b
        E 36 ba 03 2d
        E 36 ba 03 30
        E 36 ba 03 33
        E 36 ba 03 36
        E 36 ba 03 39
        E 15 ba 03 33
        E 15 ba 03 35
        E 15 ba 03 37
        E 15 ba 03 3a
        E 15 ba 03 3c
        E 15 ba 03 3f
        E 15 ba 03 41
        E 15 ba 03 44
        E 15 ba 03 46
        E 15 ba 03 48
        E 15 ba 03 4b
        E 15 ba 03 4c
        E 15 ba 03 4f
        E 15 ba 03 51
        E 15 ba 03 53
        E 15 ba 03 54
        E 15 ba 03 57
        E 15 ba 03 58
        E 15 ba 03 5a
        E 15 ba 03 5b
        E 15 ba 03 5d
        E 15 ba 03 5e
        E 15 ba 03 5f
        E 15 ba 03 60
        E 15 ba 03 61
        E 15 ba 03 62
        E 15 ba 03 63
        E 15 ba 03 63
        E 15 ba 03 64
        E 15 ba 03 64
        E 15 ba 03 65
        E 15 ba 03 65
        E 15 ba 03 65
        E 15 ba 03 65
        E 15 ba 03 65
        E 15 ba 03 64
        E 15 ba 03 64
        E 15 ba 03 63
        E 15 ba 03 63
        E 15 ba 03 62
        E 15 ba 03 61
        E 15 ba 03 5f
        E 15 ba 03 5f
        E 15 ba 03 5d
        E 15 ba 03 5c
        E 15 ba 03 5b
        E 15 ba 03 59
        E 15 ba 03 57
        E 15 ba 03 56
        E 15 ba 03 54
        E 15 ba 03 52
        E 15 ba 03 50
        E 15 ba 03 4e
        E 15 ba 03 4c
        E 15 ba 03 49
        E 15 ba 03 47
        E 15 ba 03 45
        E 15 ba 03 43
        E 15 ba 03 40
        E 15 ba 03 3e
        E 15 ba 03 3b
        E 15 ba 03 38
        E 15 ba 03 36
        E 15 ba 03 33
        E 15 ba 03 31
        E 15 ba 03 2f
        E 15 ba 03 2c
        E 15 ba 03 2a
        E 15 ba 03 27
        E 15 ba 03 24
        E 15 ba 03 22
        E 15 ba 03 1f
        E 15 ba 03 1e
        E 15 ba 03 1b
        E 15 ba 03 19
        E 15 ba 03 17
        E 15 ba 03 15
        E 15 ba 03 13
        E 15 ba 03 11
        E 15 ba 03 0f
        E 15 ba 03 0d
        E 15 ba 03 0b
        E 15 ba 03 0a
        E 15 ba 03 08
        E 15 ba 03 07
        E 15 ba 03 06
        E 15 ba 03 05
        E 15 ba 03 03
        E 15 ba 03 03
        E 15 ba 03 02
        E 15 ba 03 01
        E 15 ba 03 00
        E 15 ba 03 00
        E 15 ba 03 00
        E 15 ba 03 00
        E 15 ba 03 00
        E 15 ba 03 00
        E 15 ba 03 00
        E 15 ba 03 00
        E 15 ba 03 00
        E 15 ba 03 01
        E 15 ba 03 02
        E 15 ba 03 03
        E 15 ba 03 03
        E 15 ba 03 04
        E 15 ba 03 05
        E 15 ba 03 07
        E 15 ba 03 07
        E 15 ba 03 09
        E 15 ba 03 0b
        E 15 ba 03 0c
        E 15 ba 03 0e
        E 15 ba 03 10
        E 15 ba 03 12
        E 15 ba 03 14
        E 15 ba 03 16
        E 15 ba 03 18
        E 15 ba 03 1a
        E 15 ba 03 1c
        E 15 ba 03 1f
        E 15 ba 03 21
        E 15 ba 03 24
        E 15 ba 03 26
        E 15 ba 03 28
        E 15 ba 03 2b
        E 15 ba 03 2d
        E 15 ba 03 2f
        E 15 ba 03 33
        E 31 ba 03 39
        E 31 ba 03 3c
        E 31 ba 03 3f
        E 31 ba 03 41
        E 31 ba 03 44
        E 31 ba 03 47
        E 31 ba 03 49
        E 31 ba 03 4c
        E 31 ba 03 4f
        E 31 ba 03 51
        E 31 ba 03 54
        E 31 ba 03 56
        E 31 ba 03 59
        E 31 ba 03 5b
        E 31 ba 03 5d
        E 31 ba 03 5f
        E 31 ba 03 62
        E 31 ba 03 63
        E 31 ba 03 65
        E 31 ba 03 67
        E 31 ba 03 69
        E 31 ba 03 6a
        E 31 ba 03 6c
        E 31 ba 03 6c
        E 31 ba 03 6d
        E 31 ba 03 6e
        E 31 ba 03 6f
        E 31 ba 03 70
        E 31 ba 03 71
        E 31 ba 03 71
        E 31 ba 03 72
        E 31 ba 03 72
        E 31 ba 03 72
        E 31 ba 03 72
        E 31 ba 03 72
        E 31 ba 03 71
        E 31 ba 03 71
        E 31 ba 03 70
        E 31 ba 03 6f
        E 31 ba 03 6e
        E 31 ba 03 6d
        E 31 ba 03 6c
        E 31 ba 03 6b
        E 31 ba 03 69
        E 31 ba 03 68
        E 31 ba 03 66
        E 31 ba 03 64
        E 31 ba 03 63
        E 31 ba 03 61
        E 31 ba 03 5e
        E 31 ba 03 5c
        E 31 ba 03 5a
        E 31 ba 03 58
        E 31 ba 03 55
        E 31 ba 03 52
        E 31 ba 03 50
        E 31 ba 03 4e
        E 31 ba 03 4b
        E 31 ba 03 48
        E 31 ba 03 46
        E 31 ba 03 42
        E 31 ba 03 3f
        E 31 ba 03 3d
        E 31 ba 03 3a
        E 31 ba 03 37
        E 31 ba 03 35
        E 31 ba 03 32
        E 31 ba 03 2f
        E 31 ba 03 2c
        E 31 ba 03 29
        E 31 ba 03 26
        E 31 ba 03 24
        E 31 ba 03 22
        E 31 ba 03 1f
        E 31 ba 03 1c
        E 31 ba 03 1a
        E 31 ba 03 18
        E 31 ba 03 15
        E 31 ba 03 13
        E 31 ba 03 11
        E 31 ba 03 0f
        E 31 ba 03 0d
        E 31 ba 03 0b
        E 31 ba 03 09
        E 31 ba 03 09
        E 31 ba 03 07
        E 31 ba 03 06
        E 31 ba 03 04
        E 31 ba 03 03
        E 31 ba 03 02
        E 31 ba 03 01
        E 31 ba 03 00
        E 31 ba 03 00
        E 31 ba 03 00
        E 31 ba 03 00
        E 31 ba 03 00
        E 31 ba 03 00
        E 31 ba 03 00
        E 31 ba 03 00
        E 31 ba 03 00
        E 31 ba 03 01
        E 31 ba 03 02
        E 31 ba 03 03
        E 31 ba 03 04
        E 31 ba 03 05
        E 31 ba 03 06
        E 31 ba 03 08
        E 31 ba 03 09
        E 31 ba 03 0a
        E 31 ba 03 0c
        E 31 ba 03 0e
        E 31 ba 03 10
        E 31 ba 03 12
        E 31 ba 03 14
        E 31 ba 03 16
        E 31 ba 03 19
        E 31 ba 03 1b
        E 31 ba 03 1d
        E 31 ba 03 20
        E 31 ba 03 23
        E 31 ba 03 25
        E 31 ba 03 28
        E 31 ba 03 2b
        E 31 ba 03 2d
        E 31 ba 03 30
        E 31 ba 03 33
        E 31 ba 03 36
        E 31 ba 03 39
        E 46 ba 03 13
        E 46 ba 03 14
        E 46 ba 03 15
        E 46 ba 03 15
        E 46 ba 03 16
        E 46 ba 03 17
        E 46 ba 03 18
        E 46 ba 03 19
        E 46 ba 03 1a
        E 46 ba 03 1b
        E 46 ba 03 1c
        E 46 ba 03 1c
        E 46 ba 03 1d
        E 46 ba 03 1e
        E 46 ba 03 1f
        E 46 ba 03 1f
        E 46 ba 03 20
        E 46 ba 03 21
        E 46 ba 03 21
        E 46 ba 03 22
        E 46 ba 03 23
        E 46 ba 03 23
        E 46 ba 03 24
        E 46 ba 03 24
        E 46 ba 03 24
        E 46 ba 03 24
        E 46 ba 03 25
        E 46 ba 03 25
        E 46 ba 03 25
        E 46 ba 03 25
        E 46 ba 03 26
        E 46 ba 03 26
        E 46 ba 03 26
        E 46 ba 03 26
        E 46 ba 03 26
        E 46 ba 03 25
        E 46 ba 03 25
        E 46 ba 03 25
        E 46 ba 03 25
        E 46 ba 03 24
        E 46 ba 03 24
        E 46 ba 03 24
        E 46 ba 03 23
        E 46 ba 03 23
        E 46 ba 03 22
        E 46 ba 03 22
        E 46 ba 03 21
        E 46 ba 03 21
        E 46 ba 03 20
        E 46 ba 03 1f
        E 46 ba 03 1e
        E 46 ba 03 1e
        E 46 ba 03 1d
        E 46 ba 03 1c
        E 46 ba 03 1b
        E 46 ba 03 1a
        E 46 ba 03 1a
        E 46 ba 03 19
        E 46 ba 03 18
        E 46 ba 03 17
        E 46 ba 03 16
        E 46 ba 03 15
        E 46 ba 03 14
        E 46 ba 03 13
        E 46 ba 03 12
        E 46 ba 03 11
        E 46 ba 03 10
        E 46 ba 03 0f
        E 46 ba 03 0e
        E 46 ba 03 0d
        E 46 ba 03 0c
        E 46 ba 03 0c
        E 46 ba 03 0b
        E 46 ba 03 0a
        E 46 ba 03 09
        E 46 ba 03 08
        E 46 ba 03 08
        E 46 ba 03 07
        E 46 ba 03 06
        E 46 ba 03 05
        E 46 ba 03 05
        E 46 ba 03 04
        E 46 ba 03 03
        E 46 ba 03 03
        E 46 ba 03 03
        E 46 ba 03 02
        E 46 ba 03 02
        E 46 ba 03 01
        E 46 ba 03 01
        E 46 ba 03 00
        E 46 ba 03 00
        E 46 ba 03 00
        E 46 ba 03 00
        E 46 ba 03 00
        E 46 ba 03 00
        E 46 ba 03 00
        E 46 ba 03 00
        E 46 ba 03 00
        E 46 ba 03 00
        E 46 ba 03 00
        E 46 ba 03 00
        E 46 ba 03 00
        E 46 ba 03 01
        E 46 ba 03 01
        E 46 ba 03 01
        E 46 ba 03 02
        E 46 ba 03 02
        E 46 ba 03 03
        E 46 ba 03 03
        E 46 ba 03 04
        E 46 ba 03 04
        E 46 ba 03 05
        E 46 ba 03 06
        E 46 ba 03 06
        E 46 ba 03 07
        E 46 ba 03 08
        E 46 ba 03 09
        E 46 ba 03 09
        E 46 ba 03 0a
        E 46 ba 03 0b
        E 46 ba 03 0c
        E 46 ba 03 0d
        E 46 ba 03 0e
        E 46 ba 03 0f
        E 46 ba 03 10
        E 46 ba 03 11
        E 46 ba 03 12
        E 46 ba 03 13
        E 23 ba 03 19
        E 23 ba 03 56
        E 23 ba 03 38
        E 23 ba 03 09
        E 23 ba 03 51
        E 23 ba 03 48
        E 23 ba 03 0a
        E 23 ba 03 09
        E 23 ba 03 36
        E 23 ba 03 6c
        E 23 ba 03 5a
        E 23 ba 03 63
        E 23 ba 03 47
        E 23 ba 03 0c
        E 23 ba 03 15
        E 23 ba 03 4d
        E 23 ba 03 3f
        E 23 ba 03 20
        E 23 ba 03 16
        E 23 ba 03 1e
        E 23 ba 03 59
        E 23 ba 03 35
        E 23 ba 03 1b
        E 23 ba 03 41
        E 23 ba 03 71
        E 23 ba 03 00
        E 23 ba 03 0e
        E 23 ba 03 2e
        E 23 ba 03 26
        E 23 ba 03 5d
        E 23 ba 03 18
        E 23 ba 03 07
        E 23 ba 03 12
        E 23 ba 03 13
        E 23 ba 03 67
        E 23 ba 03 1c
        E 23 ba 03 00
        E 23 ba 03 54
        E 23 ba 03 27
        E 23 ba 03 17
        E 23 ba 03 2d
        E 23 ba 03 1d
        E 23 ba 03 61
        E 23 ba 03 60
        E 23 ba 03 72
        E 23 ba 03 5f
        E 23 ba 03 31
        E 23 ba 03 6a
        E 23 ba 03 51
        E 23 ba 03 0d
        E 23 ba 03 32
        E 23 ba 03 3d
        E 23 ba 03 6c
        E 23 ba 03 57
        E 23 ba 03 3e
        E 23 ba 03 3f
        E 23 ba 03 05
        E 23 ba 03 0b
        E 23 ba 03 69
        E 23 ba 03 5b
        E 23 ba 03 30
        E 23 ba 03 24
        E 23 ba 03 0f
        E 23 ba 03 33
        E 23 ba 03 22
        E 23 ba 03 1b
        E 23 ba 03 2b
        E 23 ba 03 3b
        E 23 ba 03 45
        E 23 ba 03 49
        E 23 ba 03 12
        E 23 ba 03 44
        E 23 ba 03 65
        E 23 ba 03 3a
        E 23 ba 03 42
        E 23 ba 03 02
        E 23 ba 03 08
        E 23 ba 03 70
        E 23 ba 03 4a
        E 23 ba 03 14
        E 23 ba 03 68
        E 23 ba 03 24
        E 23 ba 03 2c
        E 23 ba 03 37
        E 23 ba 03 2d
        E 23 ba 03 4c
        E 23 ba 03 5c
        E 23 ba 03 21
        E 23 ba 03 40
        E 23 ba 03 1a
        E 23 ba 03 66
        E 23 ba 03 5e
        E 23 ba 03 34
        E 23 ba 03 29
        E 23 ba 03 5a
        E 23 ba 03 2a
        E 23 ba 03 50
        E 23 ba 03 10
        E 23 ba 03 01
        E 23 ba 03 25
        E 23 ba 03 39
        E 23 ba 03 62
        E 23 ba 03 58
        E 23 ba 03 03
        E 23 ba 03 63
        E 23 ba 03 53
        E 23 ba 03 06
        E 23 ba 03 23
        E 23 ba 03 43
        E 23 ba 03 55
        E 23 ba 03 6d
        E 23 ba 03 46
        E 23 ba 03 2f
        E 23 ba 03 1f
        E 23 ba 03 4f
        E 23 ba 03 52
        E 23 ba 03 64
        E 23 ba 03 6f
        E 23 ba 03 36
        E 23 ba 03 48
        E 23 ba 03 4e
        E 23 ba 03 3c
        E 23 ba 03 6b
        E 23 ba 03 11
        E 23 ba 03 28
        E 23 ba 03 4b
        E 10 ba 03 16
        E 10 ba 03 4c
        E 10 ba 03 32
        E 10 ba 03 07
        E 10 ba 03 48
        E 10 ba 03 3f
        E 10 ba 03 09
        E 10 ba 03 08
        E 10 ba 03 30
        E 10 ba 03 5f
        E 10 ba 03 50
        E 10 ba 03 58
        E 10 ba 03 3f
        E 10 ba 03 0b
        E 10 ba 03 13
        E 10 ba 03 44
        E 10 ba 03 37
        E 10 ba 03 1c
        E 10 ba 03 14
        E 10 ba 03 1b
        E 10 ba 03 4f
        E 10 ba 03 2f
        E 10 ba 03 17
        E 10 ba 03 3a
        E 10 ba 03 64
        E 10 ba 03 00
        E 10 ba 03 0c
        E 10 ba 03 29
        E 10 ba 03 22
        E 10 ba 03 53
        E 10 ba 03 15
        E 10 ba 03 06
        E 10 ba 03 0f
        E 10 ba 03 11
        E 10 ba 03 5b
        E 10 ba 03 19
        E 10 ba 03 00
        E 10 ba 03 4b
        E 10 ba 03 23
        E 10 ba 03 14
        E 10 ba 03 28
        E 10 ba 03 1a
        E 10 ba 03 56
        E 10 ba 03 55
        E 10 ba 03 65
        E 10 ba 03 54
        E 10 ba 03 2b
        E 10 ba 03 5e
        E 10 ba 03 48
        E 10 ba 03 0b
        E 10 ba 03 2c
        E 10 ba 03 36
        E 10 ba 03 60
        E 10 ba 03 4d
        E 10 ba 03 37
        E 10 ba 03 38
        E 10 ba 03 04
        E 10 ba 03 0a
        E 10 ba 03 5d
        E 10 ba 03 51
        E 10 ba 03 2b
        E 10 ba 03 1f
        E 10 ba 03 0d
        E 10 ba 03 2d
        E 10 ba 03 1e
        E 10 ba 03 18
        E 10 ba 03 26
        E 10 ba 03 34
        E 10 ba 03 3d
        E 10 ba 03 41
        E 10 ba 03 10
        E 10 ba 03 3c
        E 10 ba 03 5a
        E 10 ba 03 33
        E 10 ba 03 3b
        E 10 ba 03 02
        E 10 ba 03 07
        E 10 ba 03 63
        E 10 ba 03 42
        E 10 ba 03 12
        E 10 ba 03 5c
        E 10 ba 03 20
        E 10 ba 03 27
        E 10 ba 03 31
        E 10 ba 03 28
        E 10 ba 03 44
        E 10 ba 03 52
        E 10 ba 03 1d
        E 10 ba 03 39
        E 10 ba 03 17
        E 10 ba 03 5b
        E 10 ba 03 54
        E 10 ba 03 2e
        E 10 ba 03 24
        E 10 ba 03 50
        E 10 ba 03 25
        E 10 ba 03 47
        E 10 ba 03 0e
        E 10 ba 03 01
        E 10 ba 03 21
        E 10 ba 03 33
        E 10 ba 03 57
        E 10 ba 03 4e
        E 10 ba 03 03
        E 10 ba 03 57
        E 10 ba 03 4a
        E 10 ba 03 05
        E 10 ba 03 1f
        E 10 ba 03 3b
        E 10 ba 03 4c
        E 10 ba 03 61
        E 10 ba 03 3e
        E 10 ba 03 2a
        E 10 ba 03 1b
        E 10 ba 03 46
        E 10 ba 03 49
        E 10 ba 03 59
        E 10 ba 03 63
        E 10 ba 03 2f
        E 10 ba 03 40
        E 10 ba 03 45
        E 10 ba 03 35
        E 10 ba 03 5f
        E 10 ba 03 0f
        E 10 ba 03 24
        E 10 ba 03 43
        E 20 ba 03 33
        E 20 ba 03 35
        E 20 ba 03 37
        E 20 ba 03 3a
        E 20 ba 03 3c
        E 20 ba 03 3f
        E 20 ba 03 41
        E 20 ba 03 44
        E 20 ba 03 46
        E 20 ba 03 48
        E 20 ba 03 4b
        E 20 ba 03 4c
        E 20 ba 03 4f
        E 20 ba 03 51
        E 20 ba 03 53
        E 20 ba 03 54
        E 20 ba 03 57
        E 20 ba 03 58
        E 20 ba 03 5a
        E 20 ba 03 5b
        E 20 ba 03 5d
        E 20 ba 03 5e
        E 20 ba 03 5f
        E 20 ba 03 60
        E 20 ba 03 61
        E 20 ba 03 62
        E 20 ba 03 63
        E 20 ba 03 63
        E 20 ba 03 64
        E 20 ba 03 64
        E 20 ba 03 65
        E 20 ba 03 65
        E 20 ba 03 65
        E 20 ba 03 65
        E 20 ba 03 65
        E 20 ba 03 64
        E 20 ba 03 64
        E 20 ba 03 63
        E 20 ba 03 63
        E 20 ba 03 62
        E 20 ba 03 61
        E 20 ba 03 5f
        E 20 ba 03 5f
        E 20 ba 03 5d
        E 20 ba 03 5c
        E 20 ba 03 5b
        E 20 ba 03 59
        E 20 ba 03 57
        E 20 ba 03 56
        E 20 ba 03 54
        E 20 ba 03 52
        E 20 ba 03 50
        E 20 ba 03 4e
        E 20 ba 03 4c
        E 20 ba 03 49
        E 20 ba 03 47
        E 20 ba 03 45
        E 20 ba 03 43
        E 20 ba 03 40
        E 20 ba 03 3e
        E 20 ba 03 3b
        E 20 ba 03 38
        E 20 ba 03 36
        E 20 ba 03 33
        E 20 ba 03 31
        E 20 ba 03 2f
        E 20 ba 03 2c
        E 20 ba 03 2a
        E 20 ba 03 27
        E 20 ba 03 24
        E 20 ba 03 22
        E 20 ba 03 1f
        E 20 ba 03 1e
        E 20 ba 03 1b
        E 20 ba 03 19
        E 20 ba 03 17
        E 20 ba 03 15
        E 20 ba 03 13
        E 20 ba 03 11
        E 20 ba 03 0f
        E 20 ba 03 0d
        E 20 ba 03 0b
        E 20 ba 03 0a
        E 20 ba 03 08
        E 20 ba 03 07
        E 20 ba 03 06
        E 20 ba 03 05
        E 20 ba 03 03
        E 20 ba 03 03
        E 20 ba 03 02
        E 20 ba 03 01
        E 20 ba 03 00
        E 20 ba 03 00
        E 20 ba 03 00
        E 20 ba 03 00
        E 20 ba 03 00
        E 20 ba 03 00
        E 20 ba 03 00
        E 20 ba 03 00
        E 20 ba 03 00
        E 20 ba 03 01
        E 20 ba 03 02
        E 20 ba 03 03
        E 20 ba 03 03
        E 20 ba 03 04
        E 20 ba 03 05
        E 20 ba 03 07
        E 20 ba 03 07
        E 20 ba 03 09
        E 20 ba 03 0b
        E 20 ba 03 0c
        E 20 ba 03 0e
        E 20 ba 03 10
        E 20 ba 03 12
        E 20 ba 03 14
        E 20 ba 03 16
        E 20 ba 03 18
        E 20 ba 03 1a
        E 20 ba 03 1c
        E 20 ba 03 1f
        E 20 ba 03 21
        E 20 ba 03 24
        E 20 ba 03 26
        E 20 ba 03 28
        E 20 ba 03 2b
        E 20 ba 03 2d
        E 20 ba 03 2f
        E 20 ba 03 33
        E 5 ba 03 06
        E 5 ba 03 06
        E 5 ba 03 07
        E 5 ba 03 07
        E 5 ba 03 07
        E 5 ba 03 07
        E 5 ba 03 08
        E 5 ba 03 08
        E 5 ba 03 08
        E 5 ba 03 09
        E 5 ba 03 09
        E 5 ba 03 09
        E 5 ba 03 09
        E 5 ba 03 0a
        E 5 ba 03 0a
        E 5 ba 03 0a
        E 5 ba 03 0a
        E 5 ba 03 0b
        E 5 ba 03 0b
        E 5 ba 03 0b
        E 5 ba 03 0b
        E 5 ba 03 0b
        E 5 ba 03 0c
        E 5 ba 03 0c
        E 5 ba 03 0c
        E 5 ba 03 0c
        E 5 ba 03 0c
        E 5 ba 03 0c
        E 5 ba 03 0c
        E 5 ba 03 0c
        E 5 ba 03 0c
        E 5 ba 03 0c
        E 5 ba 03 0c
        E 5 ba 03 0c
        E 5 ba 03 0c
        E 5 ba 03 0c
        E 5 ba 03 0c
        E 5 ba 03 0c
        E 5 ba 03 0c
        E 5 ba 03 0c
        E 5 ba 03 0c
        E 5 ba 03 0c
        E 5 ba 03 0b
        E 5 ba 03 0b
        E 5 ba 03 0b
        E 5 ba 03 0b
        E 5 ba 03 0b
        E 5 ba 03 0b
        E 5 ba 03 0a
        E 5 ba 03 0a
        E 5 ba 03 0a
        E 5 ba 03 0a
        E 5 ba 03 09
        E 5 ba 03 09
        E 5 ba 03 09
        E 5 ba 03 08
        E 5 ba 03 08
        E 5 ba 03 08
        E 5 ba 03 08
        E 5 ba 03 07
        E 5 ba 03 07
        E 5 ba 03 07
        E 5 ba 03 06
        E 5 ba 03 06
        E 5 ba 03 06
        E 5 ba 03 05
        E 5 ba 03 05
        E 5 ba 03 05
        E 5 ba 03 04
        E 5 ba 03 04
        E 5 ba 03 04
        E 5 ba 03 04
        E 5 ba 03 03
        E 5 ba 03 03
        E 5 ba 03 03
        E 5 ba 03 02
        E 5 ba 03 02
        E 5 ba 03 02
        E 5 ba 03 02
        E 5 ba 03 01
        E 5 ba 03 01
        E 5 ba 03 01
        E 5 ba 03 01
        E 5 ba 03 01
        E 5 ba 03 01
        E 5 ba 03 00
        E 5 ba 03 00
        E 5 ba 03 00
        E 5 ba 03 00
        E 5 ba 03 00
        E 5 ba 03 00
        E 5 ba 03 00
        E 5 ba 03 00
        E 5 ba 03 00
        E 5 ba 03 00
        E 5 ba 03 00
        E 5 ba 03 00
        E 5 ba 03 00
        E 5 ba 03 00
        E 5 ba 03 00
        E 5 ba 03 00
        E 5 ba 03 00
        E 5 ba 03 00
        E 5 ba 03 00
        E 5 ba 03 00
        E 5 ba 03 00
        E 5 ba 03 00
        E 5 ba 03 01
        E 5 ba 03 01
        E 5 ba 03 01
        E 5 ba 03 01
        E 5 ba 03 01
        E 5 ba 03 02
        E 5 ba 03 02
        E 5 ba 03 02
        E 5 ba 03 02
        E 5 ba 03 03
        E 5 ba 03 03
        E 5 ba 03 03
        E 5 ba 03 03
        E 5 ba 03 04
        E 5 ba 03 04
        E 5 ba 03 04
        E 5 ba 03 05
        E 5 ba 03 05
        E 5 ba 03 05
        E 5 ba 03 06
        E 5 ba 03 06
        E 36 ba 03 39
        E 36 ba 03 3c
        E 36 ba 03 3f
        E 36 ba 03 41
        E 36 ba 03 44
        E 36 ba 03 47
        E 36 ba 03 49
        E 36 ba 03 4c
        E 36 ba 03 4f
        E 36 ba 03 51
        E 36 ba 03 54
        E 36 ba 03 56
        E 36 ba 03 59
        E 36 ba 03 5b
        E 36 ba 03 5d
        E 36 ba 03 5f
        E 36 ba 03 62
        E 36 ba 03 63
        E 36 ba 03 65
        E 36 ba 03 67
        E 36 ba 03 69
        E 36 ba 03 6a
        E 36 ba 03 6c
        E 36 ba 03 6c
        E 36 ba 03 6d
        E 36 ba 03 6e
        E 36 ba 03 6f
        E 36 ba 03 70
        E 36 ba 03 71
        E 36 ba 03 71
        E 36 ba 03 72
        E 36 ba 03 72
        E 36 ba 03 72
        E 36 ba 03 72
        E 36 ba 03 72
        E 36 ba 03 71
        E 36 ba 03 71
        E 36 ba 03 70
        E 36 ba 03 6f
        E 36 ba 03 6e
        E 36 ba 03 6d
        E 36 ba 03 6c
        E 36 ba 03 6b
        E 36 ba 03 69
        E 36 ba 03 68
        E 36 ba 03 66
        E 36 ba 03 64
        E 36 ba 03 63
        E 36 ba 03 61
        E 36 ba 03 5e
        E 36 ba 03 5c
        E 36 ba 03 5a
        E 36 ba 03 58
        E 36 ba 03 55
        E 36 ba 03 52
        E 36 ba 03 50
        E 36 ba 03 4e
        E 36 ba 03 4b
        E 36 ba 03 48
        E 36 ba 03 46
        E 36 ba 03 42
        E 36 ba 03 3f
        E 36 ba 03 3d
        E 36 ba 03 3a
        E 36 ba 03 37
        E 36 ba 03 35
        E 36 ba 03 32
        E 36 ba 03 2f
        E 36 ba 03 2c
        E 36 ba 03 29
        E 36 ba 03 26
        E 36 ba 03 24
        E 36 ba 03 22
        E 36 ba 03 1f
        E 36 ba 03 1c
        E 36 ba 03 1a
        E 36 ba 03 18
        E 36 ba 03 15
        E 36 ba 03 13
        E 36 ba 03 11
        E 36 ba 03 0f
        E 36 ba 03 0d
        E 36 ba 03 0b
        E 36 ba 03 09
        E 36 ba 03 09
        E 36 ba 03 07
        E 36 ba 03 06
        E 36 ba 03 04
        E 36 ba 03 03
        E 36 ba 03 02
        E 36 ba 03 01
        E 36 ba 03 00
        E 36 ba 03 00
        E 36 ba 03 00
        E 36 ba 03 00
        E 36 ba 03 00
        E 36 ba 03 00
        E 36 ba 03 00
        E 36 ba 03 00
        E 36 ba 03 00
        E 36 ba 03 01
        E 36 ba 03 02
        E 36 ba 03 03
        E 36 ba 03 04
        E 36 ba 03 05
        E 36 ba 03 06
        E 36 ba 03 08
        E 36 ba 03 09
        E 36 ba 03 0a
        E 36 ba 03 0c
        E 36 ba 03 0e
        E 36 ba 03 10
        E 36 ba 03 12
        E 36 ba 03 14
        E 36 ba 03 16
        E 36 ba 03 19
        E 36 ba 03 1b
        E 36 ba 03 1d
        E 36 ba 03 20
        E 36 ba 03 23
        E 36 ba 03 25
        E 36 ba 03 28
        E 36 ba 03 2b
        E 36 ba 03 2d
        E 36 ba 03 30
        E 36 ba 03 33
        E 36 ba 03 36
        E 36 ba 03 39
        E 15 ba 03 33
        E 15 ba 03 35
        E 15 ba 03 37
        E 15 ba 03 3a
        E 15 ba 03 3c
        E 15 ba 03 3f
        E 15 ba 03 41
        E 15 ba 03 44
        E 15 ba 03 46
        E 15 ba 03 48
        E 15 ba 03 4b
        E 15 ba 03 4c
        E 15 ba 03 4f
        E 15 ba 03 51
        E 15 ba 03 53
        E 15 ba 03 54
        E 15 ba 03 57
        E 15 ba 03 58
        E 15 ba 03 5a
        E 15 ba 03 5b
        E 15 ba 03 5d
        E 15 ba 03 5e
        E 15 ba 03 5f
        E 15 ba 03 60
        E 15 ba 03 61
        E 15 ba 03 62
        E 15 ba 03 63
        E 15 ba 03 63
        E 15 ba 03 64
        E 15 ba 03 64
        E 15 ba 03 65
        E 15 ba 03 65
        E 15 ba 03 65
        E 15 ba 03 65
        E 15 ba 03 65
        E 15 ba 03 64
        E 15 ba 03 64
        E 15 ba 03 63
        E 15 ba 03 63
        E 15 ba 03 62
        E 15 ba 03 61
        E 15 ba 03 5f
        E 15 ba 03 5f
        E 15 ba 03 5d
        E 15 ba 03 5c
        E 15 ba 03 5b
        E 15 ba 03 59
        E 15 ba 03 57
        E 15 ba 03 56
        E 15 ba 03 54
        E 15 ba 03 52
        E 15 ba 03 50
        E 15 ba 03 4e
        E 15 ba 03 4c
        E 15 ba 03 49
        E 15 ba 03 47
        E 15 ba 03 45
        E 15 ba 03 43
        E 15 ba 03 40
        E 15 ba 03 3e
        E 15 ba 03 3b
        E 15 ba 03 38
        E 15 ba 03 36
        E 15 ba 03 33
        E 15 ba 03 31
        E 15 ba 03 2f
        E 15 ba 03 2c
        E 15 ba 03 2a
        E 15 ba 03 27
        E 15 ba 03 24
        E 15 ba 03 22
        E 15 ba 03 1f
        E 15 ba 03 1e
        E 15 ba 03 1b
        E 15 ba 03 19
        E 15 ba 03 17
        E 15 ba 03 15
        E 15 ba 03 13
        E 15 ba 03 11
        E 15 ba 03 0f
        E 15 ba 03 0d
        E 15 ba 03 0b
        E 15 ba 03 0a
        E 15 ba 03 08
        E 15 ba 03 07
        E 15 ba 03 06
        E 15 ba 03 05
        E 15 ba 03 03
        E 15 ba 03 03
        E 15 ba 03 02
        E 15 ba 03 01
        E 15 ba 03 00
        E 15 ba 03 00
        E 15 ba 03 00
        E 15 ba 03 00
        E 15 ba 03 00
        E 15 ba 03 00
        E 15 ba 03 00
        E 15 ba 03 00
        E 15 ba 03 00
        E 15 ba 03 01
        E 15 ba 03 02
        E 15 ba 03 03
        E 15 ba 03 03
        E 15 ba 03 04
        E 15 ba 03 05
        E 15 ba 03 07
        E 15 ba 03 07
        E 15 ba 03 09
        E 15 ba 03 0b
        E 15 ba 03 0c
        E 15 ba 03 0e
        E 15 ba 03 10
        E 15 ba 03 12
        E 15 ba 03 14
        E 15 ba 03 16
        E 15 ba 03 18
        E 15 ba 03 1a
        E 15 ba 03 1c
        E 15 ba 03 1f
        E 15 ba 03 21
        E 15 ba 03 24
        E 15 ba 03 26
        E 15 ba 03 28
        E 15 ba 03 2b
        E 15 ba 03 2d
        E 15 ba 03 2f
        E 15 ba 03 33
        E 31 ba 03 39
        E 31 ba 03 3c
        E 31 ba 03 3f
        E 31 ba 03 41
        E 31 ba 03 44
        E 31 ba 03 47
        E 31 ba 03 49
        E 31 ba 03 4c
        E 31 ba 03 4f
        E 31 ba 03 51
        E 31 ba 03 54
        E 31 ba 03 56
        E 31 ba 03 59
        E 31 ba 03 5b
        E 31 ba 03 5d
        E 31 ba 03 5f
        E 31 ba 03 62
        E 31 ba 03 63
        E 31 ba 03 65
        E 31 ba 03 67
        E 31 ba 03 69
        E 31 ba 03 6a
        E 31 ba 03 6c
        E 31 ba 03 6c
        E 31 ba 03 6d
        E 31 ba 03 6e
        E 31 ba 03 6f
        E 31 ba 03 70
        E 31 ba 03 71
        E 31 ba 03 71
        E 31 ba 03 72
        E 31 ba 03 72
        E 31 ba 03 72
        E 31 ba 03 72
        E 31 ba 03 72
        E 31 ba 03 71
        E 31 ba 03 71
        E 31 ba 03 70
        E 31 ba 03 6f
        E 31 ba 03 6e
        E 31 ba 03 6d
        E 31 ba 03 6c
        E 31 ba 03 6b
        E 31 ba 03 69
        E 31 ba 03 68
        E 31 ba 03 66
        E 31 ba 03 64
        E 31 ba 03 63
        E 31 ba 03 61
        E 31 ba 03 5e
        E 31 ba 03 5c
        E 31 ba 03 5a
        E 31 ba 03 58
        E 31 ba 03 55
        E 31 ba 03 52
        E 31 ba 03 50
        E 31 ba 03 4e
        E 31 ba 03 4b
        E 31 ba 03 48
        E 31 ba 03 46
        E 31 ba 03 42
        E 31 ba 03 3f
        E 31 ba 03 3d
        E 31 ba 03 3a
        E 31 ba 03 37
        E 31 ba 03 35
        E 31 ba 03 32
        E 31 ba 03 2f
        E 31 ba 03 2c
        E 31 ba 03 29
        E 31 ba 03 26
        E 31 ba 03 24
        E 31 ba 03 22
        E 31 ba 03 1f
        E 31 ba 03 1c
        E 31 ba 03 1a
        E 31 ba 03 18
        E 31 ba 03 15
        E 31 ba 03 13
        E 31 ba 03 11
        E 31 ba 03 0f
        E 31 ba 03 0d
        E 31 ba 03 0b
        E 31 ba 03 09
        E 31 ba 03 09
        E 31 ba 03 07
        E 31 ba 03 06
        E 31 ba 03 04
        E 31 ba 03 03
        E 31 ba 03 02
        E 31 ba 03 01
        E 31 ba 03 00
        E 31 ba 03 00
        E 31 ba 03 00
        E 31 ba 03 00
        E 31 ba 03 00
        E 31 ba 03 00
        E 31 ba 03 00
        E 31 ba 03 00
        E 31 ba 03 00
        E 31 ba 03 01
        E 31 ba 03 02
        E 31 ba 03 03
        E 31 ba 03 04
        E 31 ba 03 05
        E 31 ba 03 06
        E 31 ba 03 08
        E 31 ba 03 09
        E 31 ba 03 0a
        E 31 ba 03 0c
        E 31 ba 03 0e
        E 31 ba 03 10
        E 31 ba 03 12
        E 31 ba 03 14
        E 31 ba 03 16
        E 31 ba 03 19
        E 31 ba 03 1b
        E 31 ba 03 1d
        E 31 ba 03 20
        E 31 ba 03 23
        E 31 ba 03 25
        E 31 ba 03 28
        E 31 ba 03 2b
        E 31 ba 03 2d
        E 31 ba 03 30
        E 31 ba 03 33
        E 31 ba 03 36
        E 31 ba 03 39
        E 46 ba 03 13
        E 46 ba 03 14
        E 46 ba 03 15
        E 46 ba 03 15
        E 46 ba 03 16
        E 46 ba 03 17
        E 46 ba 03 18
        E 46 ba 03 19
        E 46 ba 03 1a
        E 46 ba 03 1b
        E 46 ba 03 1c
        E 46 ba 03 1c
        E 46 ba 03 1d
        E 46 ba 03 1e
        E 46 ba 03 1f
        E 46 ba 03 1f
        E 46 ba 03 20
        E 46 ba 03 21
        E 46 ba 03 21
        E 46 ba 03 22
        E 46 ba 03 23
        E 46 ba 03 23
        E 46 ba 03 24
        E 46 ba 03 24
        E 46 ba 03 24
        E 46 ba 03 24
        E 46 ba 03 25
        E 46 ba 03 25
        E 46 ba 03 25
        E 46 ba 03 25
        E 46 ba 03 26
        E 46 ba 03 26
        E 46 ba 03 26
        E 46 ba 03 26
        E 46 ba 03 26
        E 46 ba 03 25
        E 46 ba 03 25
        E 46 ba 03 25
        E 46 ba 03 25
        E 46 ba 03 24
        E 46 ba 03 24
        E 46 ba 03 24
        E 46 ba 03 23
        E 46 ba 03 23
        E 46 ba 03 22
        E 46 ba 03 22
        E 46 ba 03 21
        E 46 ba 03 21
        E 46 ba 03 20
        E 46 ba 03 1f
        E 46 ba 03 1e
        E 46 ba 03 1e
        E 46 ba 03 1d
        E 46 ba 03 1c
        E 46 ba 03 1b
        E 46 ba 03 1a
        E 46 ba 03 1a
        E 46 ba 03 19
        E 46 ba 03 18
        E 46 ba 03 17
        E 46 ba 03 16
        E 46 ba 03 15
        E 46 ba 03 14
        E 46 ba 03 13
        E 46 ba 03 12
        E 46 ba 03 11
        E 46 ba 03 10
        E 46 ba 03 0f
        E 46 ba 03 0e
        E 46 ba 03 0d
        E 46 ba 03 0c
        E 46 ba 03 0c
        E 46 ba 03 0b
        E 46 ba 03 0a
        E 46 ba 03 09
        E 46 ba 03 08
        E 46 ba 03 08
        E 46 ba 03 07
        E 46 ba 03 06
        E 46 ba 03 05
        E 46 ba 03 05
        E 46 ba 03 04
        E 46 ba 03 03
        E 46 ba 03 03
        E 46 ba 03 03
        E 46 ba 03 02
        E 46 ba 03 02
        E 46 ba 03 01
        E 46 ba 03 01
        E 46 ba 03 00
        E 46 ba 03 00
        E 46 ba 03 00
        E 46 ba 03 00
        E 46 ba 03 00
        E 46 ba 03 00
        E 46 ba 03 00
        E 46 ba 03 00
        E 46 ba 03 00
        E 46 ba 03 00
        E 46 ba 03 00
        E 46 ba 03 00
        E 46 ba 03 00
        E 46 ba 03 01
        E 46 ba 03 01
        E 46 ba 03 01
        E 46 ba 03 02
        E 46 ba 03 02
        E 46 ba 03 03
        E 46 ba 03 03
        E 46 ba 03 04
        E 46 ba 03 04
        E 46 ba 03 05
        E 46 ba 03 06
        E 46 ba 03 06
        E 46 ba 03 07
        E 46 ba 03 08
        E 46 ba 03 09
        E 46 ba 03 09
        E 46 ba 03 0a
        E 46 ba 03 0b
        E 46 ba 03 0c
        E 46 ba 03 0d
        E 46 ba 03 0e
        E 46 ba 03 0f
        E 46 ba 03 10
        E 46 ba 03 11
        E 46 ba 03 12
        E 46 ba 03 13
        E 23 ba 03 19
        E 23 ba 03 56
        E 23 ba 03 38
        E 23 ba 03 09
        E 23 ba 03 51
        E 23 ba 03 48
        E 23 ba 03 0a
        E 23 ba 03 09
        E 23 ba 03 36
        E 23 ba 03 6c
        E 23 ba 03 5a
        E 23 ba 03 63
        E 23 ba 03 47
        E 23 ba 03 0c
        E 23 ba 03 15
        E 23 ba 03 4d
        E 23 ba 03 3f
        E 23 ba 03 20
        E 23 ba 03 16
        E 23 ba 03 1e
        E 23 ba 03 59
        E 23 ba 03 35
        E 23 ba 03 1b
        E 23 ba 03 41
        E 23 ba 03 71
        E 23 ba 03 00
        E 23 ba 03 0e
        E 23 ba 03 2e
        E 23 ba 03 26
        E 23 ba 03 5d
        E 23 ba 03 18
        E 23 ba 03 07
        E 23 ba 03 12
        E 23 ba 03 13
        E 23 ba 03 67
        E 23 ba 03 1c
        E 23 ba 03 00
        E 23 ba 03 54
        E 23 ba 03 27
        E 23 ba 03 17
        E 23 ba 03 2d
        E 23 ba 03 1d
        E 23 ba 03 61
        E 23 ba 03 60
        E 23 ba 03 72
        E 23 ba 03 5f
        E 23 ba 03 31
        E 23 ba 03 6a
        E 23 ba 03 51
        E 23 ba 03 0d
        E 23 ba 03 32
        E 23 ba 03 3d
        E 23 ba 03 6c
        E 23 ba 03 57
        E 23 ba 03 3e
        E 23 ba 03 3f
        E 23 ba 03 05
        E 23 ba 03 0b
        E 23 ba 03 69
        E 23 ba 03 5b
        E 23 ba 03 30
        E 23 ba 03 24
        E 23 ba 03 0f
        E 23 ba 03 33
        E 23 ba 03 22
        E 23 ba 03 1b
        E 23 ba 03 2b
        E 23 ba 03 3b
        E 23 ba 03 45
        E 23 ba 03 49
        E 23 ba 03 12
        E 23 ba 03 44
        E 23 ba 03 65
        E 23 ba 03 3a
        E 23 ba 03 42
        E 23 ba 03 02
        E 23 ba 03 08
        E 23 ba 03 70
        E 23 ba 03 4a
        E 23 ba 03 14
        E 23 ba 03 68
        E 23 ba 03 24
        E 23 ba 03 2c
        E 23 ba 03 37
        E 23 ba 03 2d
        E 23 ba 03 4c
        E 23 ba 03 5c
        E 23 ba 03 21
        E 23 ba 03 40
        E 23 ba 03 1a
        E 23 ba 03 66
        E 23 ba 03 5e
        E 23 ba 03 34
        E 23 ba 03 29
        E 23 ba 03 5a
        E 23 ba 03 2a
        E 23 ba 03 50
        E 23 ba 03 10
        E 23 ba 03 01
        E 23 ba 03 25
        E 23 ba 03 39
        E 23 ba 03 62
        E 23 ba 03 58
        E 23 ba 03 03
        E 23 ba 03 63
        E 23 ba 03 53
        E 23 ba 03 06
        E 23 ba 03 23
        E 23 ba 03 43
        E 23 ba 03 55
        E 23 ba 03 6d
        E 23 ba 03 46
        E 23 ba 03 2f
        E 23 ba 03 1f
        E 23 ba 03 4f
        E 23 ba 03 52
        E 23 ba 03 64
        E 23 ba 03 6f
        E 23 ba 03 36
        E 23 ba 03 48
        E 23 ba 03 4e
        E 23 ba 03 3c
        E 23 ba 03 6b
        E 23 ba 03 11
        E 23 ba 03 28
        E 23 ba 03 4b
        E 10 ba 03 16
        E 10 ba 03 4c
        E 10 ba 03 32
        E 10 ba 03 07
        E 10 ba 03 48
        E 10 ba 03 3f
        E 10 ba 03 09
        E 10 ba 03 08
        E 10 ba 03 30
        E 10 ba 03 5f
        E 10 ba 03 50
        E 10 ba 03 58
        E 10 ba 03 3f
        E 10 ba 03 0b
        E 10 ba 03 13
        E 10 ba 03 44
        E 10 ba 03 37
        E 10 ba 03 1c
        E 10 ba 03 14
        E 10 ba 03 1b
        E 10 ba 03 4f
        E 10 ba 03 2f
        E 10 ba 03 17
        E 10 ba 03 3a
        E 10 ba 03 64
        E 10 ba 03 00
        E 10 ba 03 0c
        E 10 ba 03 29
        E 10 ba 03 22
        E 10 ba 03 53
        E 10 ba 03 15
        E 10 ba 03 06
        E 10 ba 03 0f
        E 10 ba 03 11
        E 10 ba 03 5b
        E 10 ba 03 19
        E 10 ba 03 00
        E 10 ba 03 4b
        E 10 ba 03 23
        E 10 ba 03 14
        E 10 ba 03 28
        E 10 ba 03 1a
        E 10 ba 03 56
        E 10 ba 03 55
        E 10 ba 03 65
        E 10 ba 03 54
        E 10 ba 03 2b
        E 10 ba 03 5e
        E 10 ba 03 48
        E 10 ba 03 0b
        E 10 ba 03 2c
        E 10 ba 03 36
        E 10 ba 03 60
        E 10 ba 03 4d
        E 10 ba 03 37
        E 10 ba 03 38
        E 10 ba 03 04
        E 10 ba 03 0a
        E 10 ba 03 5d
        E 10 ba 03 51
        E 10 ba 03 2b
        E 10 ba 03 1f
        E 10 ba 03 0d
        E 10 ba 03 2d
        E 10 ba 03 1e
        E 10 ba 03 18
        E 10 ba 03 26
        E 10 ba 03 34
        E 10 ba 03 3d
        E 10 ba 03 41
        E 10 ba 03 10
        E 10 ba 03 3c
        E 10 ba 03 5a
        E 10 ba 03 33
        E 10 ba 03 3b
        E 10 ba 03 02
        E 10 ba 03 07
        E 10 ba 03 63
        E 10 ba 03 42
        E 10 ba 03 12
        E 10 ba 03 5c
        E 10 ba 03 20
        E 10 ba 03 27
        E 10 ba 03 31
        E 10 ba 03 28
        E 10 ba 03 44
        E 10 ba 03 52
        E 10 ba 03 1d
        E 10 ba 03 39
        E 10 ba 03 17
        E 10 ba 03 5b
        E 10 ba 03 54
        E 10 ba 03 2e
        E 10 ba 03 24
        E 10 ba 03 50
        E 10 ba 03 25
        E 10 ba 03 47
        E 10 ba 03 0e
        E 10 ba 03 01
        E 10 ba 03 21
        E 10 ba 03 33
        E 10 ba 03 57
        E 10 ba 03 4e
        E 10 ba 03 03
        E 10 ba 03 57
        E 10 ba 03 4a
        E 10 ba 03 05
        E 10 ba 03 1f
        E 10 ba 03 3b
        E 10 ba 03 4c
        E 10 ba 03 61
        E 10 ba 03 3e
        E 10 ba 03 2a
        E 10 ba 03 1b
        E 10 ba 03 46
        E 10 ba 03 49
        E 10 ba 03 59
        E 10 ba 03 63
        E 10 ba 03 2f
        E 10 ba 03 40
        E 10 ba 03 45
        E 10 ba 03 35
        E 10 ba 03 5f
        E 10 ba 03 0f
        E 10 ba 03 24
        E 10 ba 03 43
        E 20 ba 03 33
        E 20 ba 03 35
        E 20 ba 03 37
        E 20 ba 03 3a
        E 20 ba 03 3c
        E 20 ba 03 3f
        E 20 ba 03 41
        E 20 ba 03 44
        E 20 ba 03 46
        E 20 ba 03 48
        E 20 ba 03 4b
        E 20 ba 03 4c
        E 20 ba 03 4f
        E 20 ba 03 51
        E 20 ba 03 53
        E 20 ba 03 54
        E 20 ba 03 57
        E 20 ba 03 58
        E 20 ba 03 5a
        E 20 ba 03 5b
        E 20 ba 03 5d
        E 20 ba 03 5e
        E 20 ba 03 5f
        E 20 ba 03 60
        E 20 ba 03 61
        E 20 ba 03 62
        E 20 ba 03 63
        E 20 ba 03 63
        E 20 ba 03 64
        E 20 ba 03 64
        E 20 ba 03 65
        E 20 ba 03 65
        E 20 ba 03 65
        E 20 ba 03 65
        E 20 ba 03 65
        E 20 ba 03 64
        E 20 ba 03 64
        E 20 ba 03 63
        E 20 ba 03 63
        E 20 ba 03 62
        E 20 ba 03 61
        E 20 ba 03 5f
        E 20 ba 03 5f
        E 20 ba 03 5d
        E 20 ba 03 5c
        E 20 ba 03 5b
        E 20 ba 03 59
        E 20 ba 03 57
        E 20 ba 03 56
        E 20 ba 03 54
        E 20 ba 03 52
        E 20 ba 03 50
        E 20 ba 03 4e
        E 20 ba 03 4c
        E 20 ba 03 49
        E 20 ba 03 47
        E 20 ba 03 45
        E 20 ba 03 43
        E 20 ba 03 40
        E 20 ba 03 3e
        E 20 ba 03 3b
        E 20 ba 03 38
        E 20 ba 03 36
        E 20 ba 03 33
        E 20 ba 03 31
        E 20 ba 03 2f
        E 20 ba 03 2c
        E 20 ba 03 2a
        E 20 ba 03 27
        E 20 ba 03 24
        E 20 ba 03 22
        E 20 ba 03 1f
        E 20 ba 03 1e
        E 20 ba 03 1b
        E 20 ba 03 19
        E 20 ba 03 17
        E 20 ba 03 15
        E 20 ba 03 13
        E 20 ba 03 11
        E 20 ba 03 0f
        E 20 ba 03 0d
        E 20 ba 03 0b
        E 20 ba 03 0a
        E 20 ba 03 08
        E 20 ba 03 07
        E 20 ba 03 06
        E 20 ba 03 05
        E 20 ba 03 03
        E 20 ba 03 03
        E 20 ba 03 02
        E 20 ba 03 01
        E 20 ba 03 00
        E 20 ba 03 00
        E 20 ba 03 00
        E 20 ba 03 00
        E 20 ba 03 00
        E 20 ba 03 00
        E 20 ba 03 00
        E 20 ba 03 00
        E 20 ba 03 00
        E 20 ba 03 01
        E 20 ba 03 02
        E 20 ba 03 03
        E 20 ba 03 03
        E 20 ba 03 04
        E 20 ba 03 05
        E 20 ba 03 07
        E 20 ba 03 07
        E 20 ba 03 09
        E 20 ba 03 0b
        E 20 ba 03 0c
        E 20 ba 03 0e
        E 20 ba 03 10
        E 20 ba 03 12
        E 20 ba 03 14
        E 20 ba 03 16
        E 20 ba 03 18
        E 20 ba 03 1a
        E 20 ba 03 1c
        E 20 ba 03 1f
        E 20 ba 03 21
        E 20 ba 03 24
        E 20 ba 03 26
        E 20 ba 03 28
        E 20 ba 03 2b
        E 20 ba 03 2d
        E 20 ba 03 2f
        E 20 ba 03 33
        E 5 ba 03 06
        E 5 ba 03 06
        E 5 ba 03 07
        E 5 ba 03 07
        E 5 ba 03 07
        E 5 ba 03 07
        E 5 ba 03 08
        E 5 ba 03 08
        E 5 ba 03 08
        E 5 ba 03 09
        E 5 ba 03 09
        E 5 ba 03 09
        E 5 ba 03 09
        E 5 ba 03 0a
        E 5 ba 03 0a
        E 5 ba 03 0a
        E 5 ba 03 0a
        E 5 ba 03 0b
        E 5 ba 03 0b
        E 5 ba 03 0b
        E 5 ba 03 0b
        E 5 ba 03 0b
        E 5 ba 03 0c
        E 5 ba 03 0c
        E 5 ba 03 0c
        E 5 ba 03 0c
        E 5 ba 03 0c
        E 5 ba 03 0c
        E 5 ba 03 0c
        E 5 ba 03 0c
        E 5 ba 03 0c
        E 5 ba 03 0c
        E 5 ba 03 0c
        E 5 ba 03 0c
        E 5 ba 03 0c
        E 5 ba 03 0c
        E 5 ba 03 0c
        E 5 ba 03 0c
        E 5 ba 03 0c
        E 5 ba 03 0c
        E 5 ba 03 0c
        E 5 ba 03 0c
        E 5 ba 03 0b
        E 5 ba 03 0b
        E 5 ba 03 0b
        E 5 ba 03 0b
        E 5 ba 03 0b
        E 5 ba 03 0b
        E 5 ba 03 0a
        E 5 ba 03 0a
        E 5 ba 03 0a
        E 5 ba 03 0a
        E 5 ba 03 09
        E 5 ba 03 09
        E 5 ba 03 09
        E 5 ba 03 08
        E 5 ba 03 08
        E 5 ba 03 08
        E 5 ba 03 08
        E 5 ba 03 07
        E 5 ba 03 07
        E 5 ba 03 07
        E 5 ba 03 06
        E 5 ba 03 06
        E 5 ba 03 06
        E 5 ba 03 05
        E 5 ba 03 05
        E 5 ba 03 05
        E 5 ba 03 04
        E 5 ba 03 04
        E 5 ba 03 04
        E 5 ba 03 04
        E 5 ba 03 03
        E 5 ba 03 03
        E 5 ba 03 03
        E 5 ba 03 02
        E 5 ba 03 02
        E 5 ba 03 02
        E 5 ba 03 02
        E 5 ba 03 01
        E 5 ba 03 01
        E 5 ba 03 01
        E 5 ba 03 01
        E 5 ba 03 01
        E 5 ba 03 01
        E 5 ba 03 00
        E 5 ba 03 00
        E 5 ba 03 00
        E 5 ba 03 00
        E 5 ba 03 00
        E 5 ba 03 00
        E 5 ba 03 00
        E 5 ba 03 00
        E 5 ba 03 00
        E 5 ba 03 00
        E 5 ba 03 00
        E 5 ba 03 00
        E 5 ba 03 00
        E 5 ba 03 00
        E 5 ba 03 00
        E 5 ba 03 00
        E 5 ba 03 00
        E 5 ba 03 00
        E 5 ba 03 00
        E 5 ba 03 00
        E 5 ba 03 00
        E 5 ba 03 00
        E 5 ba 03 01
        E 5 ba 03 01
        E 5 ba 03 01
        E 5 ba 03 01
        E 5 ba 03 01
        E 5 ba 03 02
        E 5 ba 03 02
        E 5 ba 03 02
        E 5 ba 03 02
        E 5 ba 03 03
        E 5 ba 03 03
        E 5 ba 03 03
        E 5 ba 03 03
        E 5 ba 03 04
        E 5 ba 03 04
        E 5 ba 03 04
        E 5 ba 03 05
        E 5 ba 03 05
        E 5 ba 03 05
        E 5 ba 03 06
        E 5 ba 03 06
        E 36 ba 03 39
        E 36 ba 03 3c
        E 36 ba 03 3f
        E 36 ba 03 41
        E 36 ba 03 44
        E 36 ba 03 47
        E 36 ba 03 49
        E 36 ba 03 4c
        E 36 ba 03 4f
        E 36 ba 03 51
        E 36 ba 03 54
        E 36 ba 03 56
        E 36 ba 03 59
        E 36 ba 03 5b
        E 36 ba 03 5d
        E 36 ba 03 5f
        E 36 ba 03 62
        E 36 ba 03 63
        E 36 ba 03 65
        E 36 ba 03 67
        E 36 ba 03 69
        E 36 ba 03 6a
        E 36 ba 03 6c
        E 36 ba 03 6c
        E 36 ba 03 6d
        E 36 ba 03 6e
        E 36 ba 03 6f
        E 36 ba 03 70
        E 36 ba 03 71
        E 36 ba 03 71
        E 36 ba 03 72
        E 36 ba 03 72
        E 36 ba 03 72
        E 36 ba 03 72
        E 36 ba 03 72
        E 36 ba 03 71
        E 36 ba 03 71
        E 36 ba 03 70
        E 36 ba 03 6f
        E 36 ba 03 6e
        E 36 ba 03 6d
        E 36 ba 03 6c
        E 36 ba 03 6b
        E 36 ba 03 69
        E 36 ba 03 68
        E 36 ba 03 66
        E 36 ba 03 64
        E 36 ba 03 63
        E 36 ba 03 61
        E 36 ba 03 5e
        E 36 ba 03 5c
        E 36 ba 03 5a
        E 36 ba 03 58
        E 36 ba 03 55
        E 36 ba 03 52
        E 36 ba 03 50
        E 36 ba 03 4e
        E 36 ba 03 4b
        E 36 ba 03 48
        E 36 ba 03 46
        E 36 ba 03 42
        E 36 ba 03 3f
        E 36 ba 03 3d
        E 36 ba 03 3a
        E 36 ba 03 37
        E 36 ba 03 35
        E 36 ba 03 32
        E 36 ba 03 2f
        E 36 ba 03 2c
        E 36 ba 03 29
        E 36 ba 03 26
        E 36 ba 03 24
        E 36 ba 03 22
        E 36 ba 03 1f
        E 36 ba 03 1c
        E 36 ba 03 1a
        E 36 ba 03 18
        E 36 ba 03 15
        E 36 ba 03 13
        E 36 ba 03 11
        E 36 ba 03 0f
        E 36 ba 03 0d
        E 36 ba 03 0b
        E 36 ba 03 09
        E 36 ba 03 09
        E 36 ba 03 07
        E 36 ba 03 06
        E 36 ba 03 04
        E 36 ba 03 03
        E 36 ba 03 02
        E 36 ba 03 01
        E 36 ba 03 00
        E 36 ba 03 00
        E 36 ba 03 00
        E 36 ba 03 00
        E 36 ba 03 00
        E 36 ba 03 00
        E 36 ba 03 00
        E 36 ba 03 00
        E 36 ba 03 00
        E 36 ba 03 01
        E 36 ba 03 02
        E 36 ba 03 03
        E 36 ba 03 04
        E 36 ba 03 05
        E 36 ba 03 06
        E 36 ba 03 08
        E 36 ba 03 09
        E 36 ba 03 0a
        E 36 ba 03 0c
        E 36 ba 03 0e
        E 36 ba 03 10
        E 36 ba 03 12
        E 36 ba 03 14
        E 36 ba 03 16
        E 36 ba 03 19
        E 36 ba 03 1b
        E 36 ba 03 1d
        E 36 ba 03 20
        E 36 ba 03 23
        E 36 ba 03 25
        E 36 ba 03 28
        E 36 ba 03 2b
        E 36 ba 03 2d
        E 36 ba 03 30
        E 36 ba 03 33
        E 36 ba 03 36
        E 36 ba 03 39
        E 15 ba 03 33
        E 15 ba 03 35
        E 15 ba 03 37
        E 15 ba 03 3a
        E 15 ba 03 3c
        E 15 ba 03 3f
        E 15 ba 03 41
        E 15 ba 03 44
        E 15 ba 03 46
        E 15 ba 03 48
        E 15 ba 03 4b
        E 15 ba 03 4c
        E 15 ba 03 4f
        E 15 ba 03 51
        E 15 ba 03 53
        E 15 ba 03 54
        E 15 ba 03 57
        E 15 ba 03 58
        E 15 ba 03 5a
        E 15 ba 03 5b
        E 15 ba 03 5d
        E 15 ba 03 5e
        E 15 ba 03 5f
        E 15 ba 03 60
        E 15 ba 03 61
        E 15 ba 03 62
        E 15 ba 03 63
        E 15 ba 03 63
        E 15 ba 03 64
        E 15 ba 03 64
        E 15 ba 03 65
        E 15 ba 03 65
        E 15 ba 03 65
        E 15 ba 03 65
        E 15 ba 03 65
        E 15 ba 03 64
        E 15 ba 03 64
        E 15 ba 03 63
        E 15 ba 03 63
        E 15 ba 03 62
        E 15 ba 03 61
        E 15 ba 03 5f
        E 15 ba 03 5f
        E 15 ba 03 5d
        E 15 ba 03 5c
        E 15 ba 03 5b
        E 15 ba 03 59
        E 15 ba 03 57
        E 15 ba 03 56
        E 15 ba 03 54
        E 15 ba 03 52
        E 15 ba 03 50
        E 15 ba 03 4e
        E 15 ba 03 4c
        E 15 ba 03 49
        E 15 ba 03 47
        E 15 ba 03 45
        E 15 ba 03 43
        E 15 ba 03 40
        E 15 ba 03 3e
        E 15 ba 03 3b
        E 15 ba 03 38
        E 15 ba 03 36
        E 15 ba 03 33
        E 15 ba 03 31
        E 15 ba 03 2f
        E 15 ba 03 2c
        E 15 ba 03 2a
        E 15 ba 03 27
        E 15 ba 03 24
        E 15 ba 03 22
        E 15 ba 03 1f
        E 15 ba 03 1e
        E 15 ba 03 1b
        E 15 ba 03 19
        E 15 ba 03 17
        E 15 ba 03 15
        E 15 ba 03 13
        E 15 ba 03 11
        E 15 ba 03 0f
        E 15 ba 03 0d
        E 15 ba 03 0b
        E 15 ba 03 0a
        E 15 ba 03 08
        E 15 ba 03 07
        E 15 ba 03 06
        E 15 ba 03 05
        E 15 ba 03 03
        E 15 ba 03 03
        E 15 ba 03 02
        E 15 ba 03 01
        E 15 ba 03 00
        E 15 ba 03 00
        E 15 ba 03 00
        E 15 ba 03 00
        E 15 ba 03 00
        E 15 ba 03 00
        E 15 ba 03 00
        E 15 ba 03 00
        E 15 ba 03 00
        E 15 ba 03 01
        E 15 ba 03 02
        E 15 ba 03 03
        E 15 ba 03 03
        E 15 ba 03 04
        E 15 ba 03 05
        E 15 ba 03 07
        E 15 ba 03 07
        E 15 ba 03 09
        E 15 ba 03 0b
        E 15 ba 03 0c
        E 15 ba 03 0e
        E 15 ba 03 10
        E 15 ba 03 12
        E 15 ba 03 14
        E 15 ba 03 16
        E 15 ba 03 18
        E 15 ba 03 1a
        E 15 ba 03 1c
        E 15 ba 03 1f
        E 15 ba 03 21
        E 15 ba 03 24
        E 15 ba 03 26
        E 15 ba 03 28
        E 15 ba 03 2b
        E 15 ba 03 2d
        E 15 ba 03 2f
        E 15 ba 03 33
        E 31 ba 03 39
        E 31 ba 03 3c
        E 31 ba 03 3f
        E 31 ba 03 41
        E 31 ba 03 44
        E 31 ba 03 47
        E 31 ba 03 49
        E 31 ba 03 4c
        E 31 ba 03 4f
        E 31 ba 03 51
        E 31 ba 03 54
        E 31 ba 03 56
        E 31 ba 03 59
        E 31 ba 03 5b
        E 31 ba 03 5d
        E 31 ba 03 5f
        E 31 ba 03 62
        E 31 ba 03 63
        E 31 ba 03 65
        E 31 ba 03 67
        E 31 ba 03 69
        E 31 ba 03 6a
        E 31 ba 03 6c
        E 31 ba 03 6c
        E 31 ba 03 6d
        E 31 ba 03 6e
        E 31 ba 03 6f
        E 31 ba 03 70
        E 31 ba 03 71
        E 31 ba 03 71
        E 31 ba 03 72
        E 31 ba 03 72
        E 31 ba 03 72
        E 31 ba 03 72
        E 31 ba 03 72
        E 31 ba 03 71
        E 31 ba 03 71
        E 31 ba 03 70
        E 31 ba 03 6f
        E 31 ba 03 6e
        E 31 ba 03 6d
        E 31 ba 03 6c
        E 31 ba 03 6b
        E 31 ba 03 69
        E 31 ba 03 68
        E 31 ba 03 66
        E 31 ba 03 64
        E 31 ba 03 63
        E 31 ba 03 61
        E 31 ba 03 5e
        E 31 ba 03 5c
        E 31 ba 03 5a
        E 31 ba 03 58
        E 31 ba 03 55
        E 31 ba 03 52
        E 31 ba 03 50
        E 31 ba 03 4e
        E 31 ba 03 4b
        E 31 ba 03 48
        E 31 ba 03 46
        E 31 ba 03 42
        E 31 ba 03 3f
        E 31 ba 03 3d
        E 31 ba 03 3a
        E 31 ba 03 37
        E 31 ba 03 35
        E 31 ba 03 32
        E 31 ba 03 2f
        E 31 ba 03 2c
        E 31 ba 03 29
        E 31 ba 03 26
        E 31 ba 03 24
        E 31 ba 03 22
        E 31 ba 03 1f
        E 31 ba 03 1c
        E 31 ba 03 1a
        E 31 ba 03 18
        E 31 ba 03 15
        E 31 ba 03 13
        E 31 ba 03 11
        E 31 ba 03 0f
        E 31 ba 03 0d
        E 31 ba 03 0b
        E 31 ba 03 09
        E 31 ba 03 09
        E 31 ba 03 07
        E 31 ba 03 06
        E 31 ba 03 04
        E 31 ba 03 03
        E 31 ba 03 02
        E 31 ba 03 01
        E 31 ba 03 00
        E 31 ba 03 00
        E 31 ba 03 00
        E 31 ba 03 00
        E 31 ba 03 00
        E 31 ba 03 00
        E 31 ba 03 00
        E 31 ba 03 00
        E 31 ba 03 00
        E 31 ba 03 01
        E 31 ba 03 02
        E 31 ba 03 03
        E 31 ba 03 04
        E 31 ba 03 05
        E 31 ba 03 06
        E 31 ba 03 08
        E 31 ba 03 09
        E 31 ba 03 0a
        E 31 ba 03 0c
        E 31 ba 03 0e
        E 31 ba 03 10
        E 31 ba 03 12
        E 31 ba 03 14
        E 31 ba 03 16
        E 31 ba 03 19
        E 31 ba 03 1b
        E 31 ba 03 1d
        E 31 ba 03 20
        E 31 ba 03 23
        E 31 ba 03 25
        E 31 ba 03 28
        E 31 ba 03 2b
        E 31 ba 03 2d
        E 31 ba 03 30
        E 31 ba 03 33
        E 31 ba 03 36
        E 31 ba 03 39
        E 46 ba 03 13
        E 46 ba 03 14
        E 46 ba 03 15
        E 46 ba 03 15
        E 46 ba 03 16
        E 46 ba 03 17
        E 46 ba 03 18
        E 46 ba 03 19
        E 46 ba 03 1a
        E 46 ba 03 1b
        E 46 ba 03 1c
        E 46 ba 03 1c
        E 46 ba 03 1d
        E 46 ba 03 1e
        E 46 ba 03 1f
        E 46 ba 03 1f
        E 46 ba 03 20
        E 46 ba 03 21
        E 46 ba 03 21
        E 46 ba 03 22
        E 46 ba 03 23
        E 46 ba 03 23
        E 46 ba 03 24
        E 46 ba 03 24
        E 46 ba 03 24
        E 46 ba 03 24
        E 46 ba 03 25
        E 46 ba 03 25
        E 46 ba 03 25
        E 46 ba 03 25
        E 46 ba 03 26
        E 46 ba 03 26
        E 46 ba 03 26
        E 46 ba 03 26
        E 46 ba 03 26
        E 46 ba 03 25
        E 46 ba 03 25
        E 46 ba 03 25
        E 46 ba 03 25
        E 46 ba 03 24
        E 46 ba 03 24
        E 46 ba 03 24
        E 46 ba 03 23
        E 46 ba 03 23
        E 46 ba 03 22
        E 46 ba 03 22
        E 46 ba 03 21
        E 46 ba 03 21
        E 46 ba 03 20
        E 46 ba 03 1f
        E 46 ba 03 1e
        E 46 ba 03 1e
        E 46 ba 03 1d
        E 46 ba 03 1c
        E 46 ba 03 1b
        E 46 ba 03 1a
        E 46 ba 03 1a
        E 46 ba 03 19
        E 46 ba 03 18
        E 46 ba 03 17
        E 46 ba 03 16
        E 46 ba 03 15
        E 46 ba 03 14
        E 46 ba 03 13
        E 46 ba 03 12
        E 46 ba 03 11
        E 46 ba 03 10
        E 46 ba 03 0f
        E 46 ba 03 0e
        E 46 ba 03 0d
        E 46 ba 03 0c
        E 46 ba 03 0c
        E 46 ba 03 0b
        E 46 ba 03 0a
        E 46 ba 03 09
        E 46 ba 03 08
        E 46 ba 03 08
        E 46 ba 03 07
        E 46 ba 03 06
        E 46 ba 03 05
        E 46 ba 03 05
        E 46 ba 03 04
        E 46 ba 03 03
        E 46 ba 03 03
        E 46 ba 03 03
        E 46 ba 03 02
        E 46 ba 03 02
        E 46 ba 03 01
        E 46 ba 03 01
        E 46 ba 03 00
        E 46 ba 03 00
        E 46 ba 03 00
        E 46 ba 03 00
        E 46 ba 03 00
        E 46 ba 03 00
        E 46 ba 03 00
        E 46 ba 03 00
        E 46 ba 03 00
        E 46 ba 03 00
        E 46 ba 03 00
        E 46 ba 03 00
        E 46 ba 03 00
        E 46 ba 03 01
        E 46 ba 03 01
        E 46 ba 03 01
        E 46 ba 03 02
        E 46 ba 03 02
        E 46 ba 03 03
        E 46 ba 03 03
        E 46 ba 03 04
        E 46 ba 03 04
        E 46 ba 03 05
        E 46 ba 03 06
        E 46 ba 03 06
        E 46 ba 03 07
        E 46 ba 03 08
        E 46 ba 03 09
        E 46 ba 03 09
        E 46 ba 03 0a
        E 46 ba 03 0b
        E 46 ba 03 0c
        E 46 ba 03 0d
        E 46 ba 03 0e
        E 46 ba 03 0f
        E 46 ba 03 10
        E 46 ba 03 11
        E 46 ba 03 12
        E 46 ba 03 13
        E 23 ba 03 19
        E 23 ba 03 56
        E 23 ba 03 38
        E 23 ba 03 09
        E 23 ba 03 51
        E 23 ba 03 48
        E 23 ba 03 0a
        E 23 ba 03 09
        E 23 ba 03 36
        E 23 ba 03 6c
        E 23 ba 03 5a
        E 23 ba 03 63
        E 23 ba 03 47
        E 23 ba 03 0c
        E 23 ba 03 15
        E 23 ba 03 4d
        E 23 ba 03 3f
        E 23 ba 03 20
        E 23 ba 03 16
        E 23 ba 03 1e
        E 23 ba 03 59
        E 23 ba 03 35
        E 23 ba 03 1b
        E 23 ba 03 41
        E 23 ba 03 71
        E 23 ba 03 00
        E 23 ba 03 0e
        E 23 ba 03 2e
        E 23 ba 03 26
        E 23 ba 03 5d
        E 23 ba 03 18
        E 23 ba 03 07
        E 23 ba 03 12
        E 23 ba 03 13
        E 23 ba 03 67
        E 23 ba 03 1c
        E 23 ba 03 00
        E 23 ba 03 54
        E 23 ba 03 27
        E 23 ba 03 17
        E 23 ba 03 2d
        E 23 ba 03 1d
        E 23 ba 03 61
        E 23 ba 03 60
        E 23 ba 03 72
        E 23 ba 03 5f
        E 23 ba 03 31
        E 23 ba 03 6a
        E 23 ba 03 51
        E 23 ba 03 0d
        E 23 ba 03 32
        E 23 ba 03 3d
        E 23 ba 03 6c
        E 23 ba 03 57
        E 23 ba 03 3e
        E 23 ba 03 3f
        E 23 ba 03 05
        E 23 ba 03 0b
        E 23 ba 03 69
        E 23 ba 03 5b
        E 23 ba 03 30
        E 23 ba 03 24
        E 23 ba 03 0f
        E 23 ba 03 33
        E 23 ba 03 22
        E 23 ba 03 1b
        E 23 ba 03 2b
        E 23 ba 03 3b
        E 23 ba 03 45
        E 23 ba 03 49
        E 23 ba 03 12
        E 23 ba 03 44
        E 23 ba 03 65
        E 23 ba 03 3a
        E 23 ba 03 42
        E 23 ba 03 02
        E 23 ba 03 08
        E 23 ba 03 70
        E 23 ba 03 4a
        E 23 ba 03 14
        E 23 ba 03 68
        E 23 ba 03 24
        E 23 ba 03 2c
        E 23 ba 03 37
        E 23 ba 03 2d
        E 23 ba 03 4c
        E 23 ba 03 5c
        E 23 ba 03 21
        E 23 ba 03 40
        E 23 ba 03 1a
        E 23 ba 03 66
        E 23 ba 03 5e
        E 23 ba 03 34
        E 23 ba 03 29
        E 23 ba 03 5a
        E 23 ba 03 2a
        E 23 ba 03 50
        E 23 ba 03 10
        E 23 ba 03 01
        E 23 ba 03 25
        E 23 ba 03 39
        E 23 ba 03 62
        E 23 ba 03 58
        E 23 ba 03 03
        E 23 ba 03 63
        E 23 ba 03 53
        E 23 ba 03 06
        E 23 ba 03 23
        E 23 ba 03 43
        E 23 ba 03 55
        E 23 ba 03 6d
        E 23 ba 03 46
        E 23 ba 03 2f
        E 23 ba 03 1f
        E 23 ba 03 4f
        E 23 ba 03 52
        E 23 ba 03 64
        E 23 ba 03 6f
        E 23 ba 03 36
        E 23 ba 03 48
        E 23 ba 03 4e
        E 23 ba 03 3c
        E 23 ba 03 6b
        E 23 ba 03 11
        E 23 ba 03 28
        E 23 ba 03 4b
        E 10 ba 03 16
        E 10 ba 03 4c
        E 10 ba 03 32
        E 10 ba 03 07
        E 10 ba 03 48
        E 10 ba 03 3f
        E 10 ba 03 09
        E 10 ba 03 08
        E 10 ba 03 30
        E 10 ba 03 5f
        E 10 ba 03 50
        E 10 ba 03 58
        E 10 ba 03 3f
        E 10 ba 03 0b
        E 10 ba 03 13
        E 10 ba 03 44
        E 10 ba 03 37
        E 10 ba 03 1c
        E 10 ba 03 14
        E 10 ba 03 1b
        E 10 ba 03 4f
        E 10 ba 03 2f
        E 10 ba 03 17
        E 10 ba 03 3a
        E 10 ba 03 64
        E 10 ba 03 00
        E 10 ba 03 0c
        E 10 ba 03 29
        E 10 ba 03 22
        E 10 ba 03 53
        E 10 ba 03 15
        E 10 ba 03 06
        E 10 ba 03 0f
        E 10 ba 03 11
        E 10 ba 03 5b
        E 10 ba 03 19
        E 10 ba 03 00
        E 10 ba 03 4b
        E 10 ba 03 23
        E 10 ba 03 14
        E 10 ba 03 28
        E 10 ba 03 1a
        E 10 ba 03 56
        E 10 ba 03 55
        E 10 ba 03 65
        E 10 ba 03 54
        E 10 ba 03 2b
        E 10 ba 03 5e
        E 10 ba 03 48
        E 10 ba 03 0b
        E 10 ba 03 2c
        E 10 ba 03 36
        E 10 ba 03 60
        E 10 ba 03 4d
        E 10 ba 03 37
        E 10 ba 03 38
        E 10 ba 03 04
        E 10 ba 03 0a
        E 10 ba 03 5d
        E 10 ba 03 51
        E 10 ba 03 2b
        E 10 ba 03 1f
        E 10 ba 03 0d
        E 10 ba 03 2d
        E 10 ba 03 1e
        E 10 ba 03 18
        E 10 ba 03 26
        E 10 ba 03 34
        E 10 ba 03 3d
        E 10 ba 03 41
        E 10 ba 03 10
        E 10 ba 03 3c
        E 10 ba 03 5a
        E 10 ba 03 33
        E 10 ba 03 3b
        E 10 ba 03 02
        E 10 ba 03 07
        E 10 ba 03 63
        E 10 ba 03 42
        E 10 ba 03 12
        E 10 ba 03 5c
        E 10 ba 03 20
        E 10 ba 03 27
        E 10 ba 03 31
        E 10 ba 03 28
        E 10 ba 03 44
        E 10 ba 03 52
        E 10 ba 03 1d
        E 10 ba 03 39
        E 10 ba 03 17
        E 10 ba 03 5b
        E 10 ba 03 54
        E 10 ba 03 2e
        E 10 ba 03 24
        E 10 ba 03 50
        E 10 ba 03 25
        E 10 ba 03 47
        E 10 ba 03 0e
        E 10 ba 03 01
        E 10 ba 03 21
        E 10 ba 03 33
        E 10 ba 03 57
        E 10 ba 03 4e
        E 10 ba 03 03
        E 10 ba 03 57
        E 10 ba 03 4a
        E 10 ba 03 05
        E 10 ba 03 1f
        E 10 ba 03 3b
        E 10 ba 03 4c
        E 10 ba 03 61
        E 10 ba 03 3e
        E 10 ba 03 2a
        E 10 ba 03 1b
        E 10 ba 03 46
        E 10 ba 03 49
        E 10 ba 03 59
        E 10 ba 03 63
        E 10 ba 03 2f
        E 10 ba 03 40
        E 10 ba 03 45
        E 10 ba 03 35
        E 10 ba 03 5f
        E 10 ba 03 0f
        E 10 ba 03 24
        E 10 ba 03 43
        E 20 ba 03 33
        E 20 ba 03 35
        E 20 ba 03 37
        E 20 ba 03 3a
        E 20 ba 03 3c
        E 20 ba 03 3f
        E 20 ba 03 41
        E 20 ba 03 44
        E 20 ba 03 46
        E 20 ba 03 48
        E 20 ba 03 4b
        E 20 ba 03 4c
        E 20 ba 03 4f
        E 20 ba 03 51
        E 20 ba 03 53
        E 20 ba 03 54
        E 20 ba 03 57
        E 20 ba 03 58
        E 20 ba 03 5a
        E 20 ba 03 5b
        E 20 ba 03 5d
        E 20 ba 03 5e
        E 20 ba 03 5f
        E 20 ba 03 60
        E 20 ba 03 61
        E 20 ba 03 62
        E 20 ba 03 63
        E 20 ba 03 63
        E 20 ba 03 64
        E 20 ba 03 64
        E 20 ba 03 65
        E 20 ba 03 65
        E 20 ba 03 65
        E 20 ba 03 65
        E 20 ba 03 65
        E 20 ba 03 64
        E 20 ba 03 64
        E 20 ba 03 63
        E 20 ba 03 63
        E 20 ba 03 62
        E 20 ba 03 61
        E 20 ba 03 5f
        E 20 ba 03 5f
        E 20 ba 03 5d
        E 20 ba 03 5c
        E 20 ba 03 5b
        E 20 ba 03 59
        E 20 ba 03 57
        E 20 ba 03 56
        E 20 ba 03 54
        E 20 ba 03 52
        E 20 ba 03 50
        E 20 ba 03 4e
        E 20 ba 03 4c
        E 20 ba 03 49
        E 20 ba 03 47
        E 20 ba 03 45
        E 20 ba 03 43
        E 20 ba 03 40
        E 20 ba 03 3e
        E 20 ba 03 3b
        E 20 ba 03 38
        E 20 ba 03 36
        E 20 ba 03 33
        E 20 ba 03 31
        E 20 ba 03 2f
        E 20 ba 03 2c
        E 20 ba 03 2a
        E 20 ba 03 27
        E 20 ba 03 24
        E 20 ba 03 22
        E 20 ba 03 1f
        E 20 ba 03 1e
        E 20 ba 03 1b
        E 20 ba 03 19
        E 20 ba 03 17
        E 20 ba 03 15
        E 20 ba 03 13
        E 20 ba 03 11
        E 20 ba 03 0f
        E 20 ba 03 0d
        E 20 ba 03 0b
        E 20 ba 03 0a
        E 20 ba 03 08
        E 20 ba 03 07
        E 20 ba 03 06
        E 20 ba 03 05
        E 20 ba 03 03
        E 20 ba 03 03
        E 20 ba 03 02
        E 20 ba 03 01
        E 20 ba 03 00
        E 20 ba 03 00
        E 20 ba 03 00
        E 20 ba 03 00
        E 20 ba 03 00
        E 20 ba 03 00
        E 20 ba 03 00
        E 20 ba 03 00
        E 20 ba 03 00
        E 20 ba 03 01
        E 20 ba 03 02
        E 20 ba 03 03
        E 20 ba 03 03
        E 20 ba 03 04
        E 20 ba 03 05
        E 20 ba 03 07
        E 20 ba 03 07
        E 20 ba 03 09
        E 20 ba 03 0b
        E 20 ba 03 0c
        E 20 ba 03 0e
        E 20 ba 03 10
        E 20 ba 03 12
        E 20 ba 03 14
        E 20 ba 03 16
        E 20 ba 03 18
        E 20 ba 03 1a
        E 20 ba 03 1c
        E 20 ba 03 1f
        E 20 ba 03 21
        E 20 ba 03 24
        E 20 ba 03 26
        E 20 ba 03 28
        E 20 ba 03 2b
        E 20 ba 03 2d
        E 20 ba 03 2f
        E 20 ba 03 33
        E 5 ba 03 06
        E 5 ba 03 06
        E 5 ba 03 07
        E 5 ba 03 07
        E 5 ba 03 07
        E 5 ba 03 07
        E 5 ba 03 08
        E 5 ba 03 08
        E 5 ba 03 08
        E 5 ba 03 09
        E 5 ba 03 09
        E 5 ba 03 09
        E 5 ba 03 09
        E 5 ba 03 0a
        E 5 ba 03 0a
        E 5 ba 03 0a
        E 5 ba 03 0a
        E 5 ba 03 0b
        E 5 ba 03 0b
        E 5 ba 03 0b
        E 5 ba 03 0b
        E 5 ba 03 0b
        E 5 ba 03 0c
        E 5 ba 03 0c
        E 5 ba 03 0c
        E 5 ba 03 0c
        E 5 ba 03 0c
        E 5 ba 03 0c
        E 5 ba 03 0c
        E 5 ba 03 0c
        E 5 ba 03 0c
        E 5 ba 03 0c
        E 5 ba 03 0c
        E 5 ba 03 0c
        E 5 ba 03 0c
        E 5 ba 03 0c
        E 5 ba 03 0c
        E 5 ba 03 0c
        E 5 ba 03 0c
        E 5 ba 03 0c
        E 5 ba 03 0c
        E 5 ba 03 0c
        E 5 ba 03 0b
        E 5 ba 03 0b
        E 5 ba 03 0b
        E 5 ba 03 0b
        E 5 ba 03 0b
        E 5 ba 03 0b
        E 5 ba 03 0a
        E 5 ba 03 0a
        E 5 ba 03 0a
        E 5 ba 03 0a
        E 5 ba 03 09
        E 5 ba 03 09
        E 5 ba 03 09
        E 5 ba 03 08
        E 5 ba 03 08
        E 5 ba 03 08
        E 5 ba 03 08
        E 5 ba 03 07
        E 5 ba 03 07
        E 5 ba 03 07
        E 5 ba 03 06
        E 5 ba 03 06
        E 5 ba 03 06
        E 5 ba 03 05
        E 5 ba 03 05
        E 5 ba 03 05
        E 5 ba 03 04
        E 5 ba 03 04
        E 5 ba 03 04
        E 5 ba 03 04
        E 5 ba 03 03
        E 5 ba 03 03
        E 5 ba 03 03
        E 5 ba 03 02
        E 5 ba 03 02
        E 5 ba 03 02
        E 5 ba 03 02
        E 5 ba 03 01
        E 5 ba 03 01
        E 5 ba 03 01
        E 5 ba 03 01
        E 5 ba 03 01
        E 5 ba 03 01
        E 5 ba 03 00
        E 5 ba 03 00
        E 5 ba 03 00
        E 5 ba 03 00
        E 5 ba 03 00
        E 5 ba 03 00
        E 5 ba 03 00
        E 5 ba 03 00
        E 5 ba 03 00
        E 5 ba 03 00
        E 5 ba 03 00
        E 5 ba 03 00
        E 5 ba 03 00
        E 5 ba 03 00
        E 5 ba 03 00
        E 5 ba 03 00
        E 5 ba 03 00
        E 5 ba 03 00
        E 5 ba 03 00
        E 5 ba 03 00
        E 5 ba 03 00
        E 5 ba 03 00
        E 5 ba 03 01
        E 5 ba 03 01
        E 5 ba 03 01
        E 5 ba 03 01
        E 5 ba 03 01
        E 5 ba 03 02
        E 5 ba 03 02
        E 5 ba 03 02
        E 5 ba 03 02
        E 5 ba 03 03
        E 5 ba 03 03
        E 5 ba 03 03
        E 5 ba 03 03
        E 5 ba 03 04
        E 5 ba 03 04
        E 5 ba 03 04
        E 5 ba 03 05
        E 5 ba 03 05
        E 5 ba 03 05
        E 5 ba 03 06
        E 5 ba 03 06
        E 36 ba 03 39
        E 36 ba 03 3c
        E 36 ba 03 3f
        E 36 ba 03 41
        E 36 ba 03 44
        E 36 ba 03 47
        E 36 ba 03 49
        E 36 ba 03 4c
        E 36 ba 03 4f
        E 36 ba 03 51
        E 36 ba 03 54
        E 36 ba 03 56
        E 36 ba 03 59
        E 36 ba 03 5b
        E 36 ba 03 5d
        E 36 ba 03 5f
        E 36 ba 03 62
        E 36 ba 03 63
        E 36 ba 03 65
        E 36 ba 03 67
        E 36 ba 03 69
        E 36 ba 03 6a
        E 36 ba 03 6c
        E 36 ba 03 6c
        E 36 ba 03 6d
        E 36 ba 03 6e
        E 36 ba 03 6f
        E 36 ba 03 70
        E 36 ba 03 71
        E 36 ba 03 71
        E 36 ba 03 72
        E 36 ba 03 72
        E 36 ba 03 72
        E 36 ba 03 72
        E 36 ba 03 72
        E 36 ba 03 71
        E 36 ba 03 71
        E 36 ba 03 70
        E 36 ba 03 6f
        E 36 ba 03 6e
        E 36 ba 03 6d
        E 36 ba 03 6c
        E 36 ba 03 6b
        E 36 ba 03 69
        E 36 ba 03 68
        E 36 ba 03 66
        E 36 ba 03 64
        E 36 ba 03 63
        E 36 ba 03 61
        E 36 ba 03 5e
        E 36 ba 03 5c
        E 36 ba 03 5a
        E 36 ba 03 58
        E 36 ba 03 55
        E 36 ba 03 52
        E 36 ba 03 50
        E 36 ba 03 4e
        E 36 ba 03 4b
        E 36 ba 03 48
        E 36 ba 03 46
        E 36 ba 03 42
        E 36 ba 03 3f
        E 36 ba 03 3d
        E 36 ba 03 3a
        E 36 ba 03 37
        E 36 ba 03 35
        E 36 ba 03 32
        E 36 ba 03 2f
        E 36 ba 03 2c
        E 36 ba 03 29
        E 36 ba 03 26
        E 36 ba 03 24
        E 36 ba 03 22
        E 36 ba 03 1f
        E 36 ba 03 1c
        E 36 ba 03 1a
        E 36 ba 03 18
        E 36 ba 03 15
        E 36 ba 03 13
        E 36 ba 03 11
        E 36 ba 03 0f
        E 36 ba 03 0d
        E 36 ba 03 0b
        E 36 ba 03 09
        E 36 ba 03 09
        E 36 ba 03 07
        E 36 ba 03 06
        E 36 ba 03 04
        E 36 ba 03 03
        E 36 ba 03 02
        E 36 ba 03 01
        E 36 ba 03 00
        E 36 ba 03 00
        E 36 ba 03 00
        E 36 ba 03 00
        E 36 ba 03 00
        E 36 ba 03 00
        E 36 ba 03 00
        E 36 ba 03 00
        E 36 ba 03 00
        E 36 ba 03 01
        E 36 ba 03 02
        E 36 ba 03 03
        E 36 ba 03 04
        E 36 ba 03 05
        E 36 ba 03 06
        E 36 ba 03 08
        E 36 ba 03 09
        E 36 ba 03 0a
        E 36 ba 03 0c
        E 36 ba 03 0e
        E 36 ba 03 10
        E 36 ba 03 12
        E 36 ba 03 14
        E 36 ba 03 16
        E 36 ba 03 19
        E 36 ba 03 1b
        E 36 ba 03 1d
        E 36 ba 03 20
        E 36 ba 03 23
        E 36 ba 03 25
        E 36 ba 03 28
        E 36 ba 03 2b
        E 36 ba 03 2d
        E 36 ba 03 30
        E 36 ba 03 33
        E 36 ba 03 36
        E 36 ba 03 39
        E 15 ba 03 33
        E 15 ba 03 35
        E 15 ba 03 37
        E 15 ba 03 3a
        E 15 ba 03 3c
        E 15 ba 03 3f
        E 15 ba 03 41
        E 15 ba 03 44
        E 15 ba 03 46
        E 15 ba 03 48
        E 15 ba 03 4b
        E 15 ba 03 4c
        E 15 ba 03 4f
        E 15 ba 03 51
        E 15 ba 03 53
        E 15 ba 03 54
        E 15 ba 03 57
        E 15 ba 03 58
        E 15 ba 03 5a
        E 15 ba 03 5b
        E 15 ba 03 5d
        E 15 ba 03 5e
        E 15 ba 03 5f
        E 15 ba 03 60
        E 15 ba 03 61
        E 15 ba 03 62
        E 15 ba 03 63
        E 15 ba 03 63
        E 15 ba 03 64
        E 15 ba 03 64
        E 15 ba 03 65
        E 15 ba 03 65
        E 15 ba 03 65
        E 15 ba 03 65
        E 15 ba 03 65
        E 15 ba 03 64
        E 15 ba 03 64
        E 15 ba 03 63
        E 15 ba 03 63
        E 15 ba 03 62
        E 15 ba 03 61
        E 15 ba 03 5f
        E 15 ba 03 5f
        E 15 ba 03 5d
        E 15 ba 03 5c
        E 15 ba 03 5b
        E 15 ba 03 59
        E 15 ba 03 57
        E 15 ba 03 56
        E 15 ba 03 54
        E 15 ba 03 52
        E 15 ba 03 50
        E 15 ba 03 4e
        E 15 ba 03 4c
        E 15 ba 03 49
        E 15 ba 03 47
        E 15 ba 03 45
        E 15 ba 03 43
        E 15 ba 03 40
        E 15 ba 03 3e
        E 15 ba 03 3b
        E 15 ba 03 38
        E 15 ba 03 36
        E 15 ba 03 33
        E 15 ba 03 31
        E 15 ba 03 2f
        E 15 ba 03 2c
        E 15 ba 03 2a
        E 15 ba 03 27
        E 15 ba 03 24
        E 15 ba 03 22
        E 15 ba 03 1f
        E 15 ba 03 1e
        E 15 ba 03 1b
        E 15 ba 03 19
        E 15 ba 03 17
        E 15 ba 03 15
        E 15 ba 03 13
        E 15 ba 03 11
        E 15 ba 03 0f
        E 15 ba 03 0d
        E 15 ba 03 0b
        E 15 ba 03 0a
        E 15 ba 03 08
        E 15 ba 03 07
        E 15 ba 03 06
        E 15 ba 03 05
        E 15 ba 03 03
        E 15 ba 03 03
        E 15 ba 03 02
        E 15 ba 03 01
        E 15 ba 03 00
        E 15 ba 03 00
        E 15 ba 03 00
        E 15 ba 03 00
        E 15 ba 03 00
        E 15 ba 03 00
        E 15 ba 03 00
        E 15 ba 03 00
        E 15 ba 03 00
        E 15 ba 03 01
        E 15 ba 03 02
        E 15 ba 03 03
        E 15 ba 03 03
        E 15 ba 03 04
        E 15 ba 03 05
        E 15 ba 03 07
        E 15 ba 03 07
        E 15 ba 03 09
        E 15 ba 03 0b
        E 15 ba 03 0c
        E 15 ba 03 0e
        E 15 ba 03 10
        E 15 ba 03 12
        E 15 ba 03 14
        E 15 ba 03 16
        E 15 ba 03 18
        E 15 ba 03 1a
        E 15 ba 03 1c
        E 15 ba 03 1f
        E 15 ba 03 21
        E 15 ba 03 24
        E 15 ba 03 26
        E 15 ba 03 28
        E 15 ba 03 2b
        E 15 ba 03 2d
        E 15 ba 03 2f
        E 15 ba 03 33
        E 31 ba 03 39
        E 31 ba 03 3c
        E 31 ba 03 3f
        E 31 ba 03 41
        E 31 ba 03 44
        E 31 ba 03 47
        E 31 ba 03 49
        E 31 ba 03 4c
        E 31 ba 03 4f
        E 31 ba 03 51
        E 31 ba 03 54
        E 31 ba 03 56
        E 31 ba 03 59
        E 31 ba 03 5b
        E 31 ba 03 5d
        E 31 ba 03 5f
        E 31 ba 03 62
        E 31 ba 03 63
        E 31 ba 03 65
        E 31 ba 03 67
        E 31 ba 03 69
        E 31 ba 03 6a
        E 31 ba 03 6c
        E 31 ba 03 6c
        E 31 ba 03 6d
        E 31 ba 03 6e
        E 31 ba 03 6f
        E 31 ba 03 70
        E 31 ba 03 71
        E 31 ba 03 71
        E 31 ba 03 72
        E 31 ba 03 72
        E 31 ba 03 72
        E 31 ba 03 72
        E 31 ba 03 72
        E 31 ba 03 71
        E 31 ba 03 71
        E 31 ba 03 70
        E 31 ba 03 6f
        E 31 ba 03 6e
        E 31 ba 03 6d
        E 31 ba 03 6c
        E 31 ba 03 6b
        E 31 ba 03 69
        E 31 ba 03 68
        E 31 ba 03 66
        E 31 ba 03 64
        E 31 ba 03 63
        E 31 ba 03 61
        E 31 ba 03 5e
        E 31 ba 03 5c
        E 31 ba 03 5a
        E 31 ba 03 58
        E 31 ba 03 55
        E 31 ba 03 52
        E 31 ba 03 50
        E 31 ba 03 4e
        E 31 ba 03 4b
        E 31 ba 03 48
        E 31 ba 03 46
        E 31 ba 03 42
        E 31 ba 03 3f
        E 31 ba 03 3d
        E 31 ba 03 3a
        E 31 ba 03 37
        E 31 ba 03 35
        E 31 ba 03 32
        E 31 ba 03 2f
        E 31 ba 03 2c
        E 31 ba 03 29
        E 31 ba 03 26
        E 31 ba 03 24
        E 31 ba 03 22
        E 31 ba 03 1f
        E 31 ba 03 1c
        E 31 ba 03 1a
        E 31 ba 03 18
        E 31 ba 03 15
        E 31 ba 03 13
        E 31 ba 03 11
        E 31 ba 03 0f
        E 31 ba 03 0d
        E 31 ba 03 0b
        E 31 ba 03 09
        E 31 ba 03 09
        E 31 ba 03 07
        E 31 ba 03 06
        E 31 ba 03 04
        E 31 ba 03 03
        E 31 ba 03 02
        E 31 ba 03 01
        E 31 ba 03 00
        E 31 ba 03 00
        E 31 ba 03 00
        E 31 ba 03 00
        E 31 ba 03 00
        E 31 ba 03 00
        E 31 ba 03 00
        E 31 ba 03 00
        E 31 ba 03 00
        E 31 ba 03 01
        E 31 ba 03 02
        E 31 ba 03 03
        E 31 ba 03 04
        E 31 ba 03 05
        E 31 ba 03 06
        E 31 ba 03 08
        E 31 ba 03 09
        E 31 ba 03 0a
        E 31 ba 03 0c
        E 31 ba 03 0e
        E 31 ba 03 10
        E 31 ba 03 12
        E 31 ba 03 14
        E 31 ba 03 16
        E 31 ba 03 19
        E 31 ba 03 1b
        E 31 ba 03 1d
        E 31 ba 03 20
        E 31 ba 03 23
        E 31 ba 03 25
        E 31 ba 03 28
        E 31 ba 03 2b
        E 31 ba 03 2d
        E 31 ba 03 30
        E 31 ba 03 33
        E 31 ba 03 36
        E 31 ba 03 39
        E 46 ba 03 13
        E 46 ba 03 14
        E 46 ba 03 15
        E 46 ba 03 15
        E 46 ba 03 16
        E 46 ba 03 17
        E 46 ba 03 18
        E 46 ba 03 19
        E 46 ba 03 1a
        E 46 ba 03 1b
        E 46 ba 03 1c
        E 46 ba 03 1c
        E 46 ba 03 1d
        E 46 ba 03 1e
        E 46 ba 03 1f
        E 46 ba 03 1f
        E 46 ba 03 20
        E 46 ba 03 21
        E 46 ba 03 21
        E 46 ba 03 22
        E 46 ba 03 23
        E 46 ba 03 23
        E 46 ba 03 24
        E 46 ba 03 24
        E 46 ba 03 24
        E 46 ba 03 24
        E 46 ba 03 25
        E 46 ba 03 25
        E 46 ba 03 25
        E 46 ba 03 25
        E 46 ba 03 26
        E 46 ba 03 26
        E 46 ba 03 26
        E 46 ba 03 26
        E 46 ba 03 26
        E 46 ba 03 25
        E 46 ba 03 25
        E 46 ba 03 25
        E 46 ba 03 25
        E 46 ba 03 24
        E 46 ba 03 24
        E 46 ba 03 24
        E 46 ba 03 23
        E 46 ba 03 23
        E 46 ba 03 22
        E 46 ba 03 22
        E 46 ba 03 21
        E 46 ba 03 21
        E 46 ba 03 20
        E 46 ba 03 1f
        E 46 ba 03 1e
        E 46 ba 03 1e
        E 46 ba 03 1d
        E 46 ba 03 1c
        E 46 ba 03 1b
        E 46 ba 03 1a
        E 46 ba 03 1a
        E 46 ba 03 19
        E 46 ba 03 18
        E 46 ba 03 17
        E 46 ba 03 16
        E 46 ba 03 15
        E 46 ba 03 14
        E 46 ba 03 13
        E 46 ba 03 12
        E 46 ba 03 11
        E 46 ba 03 10
        E 46 ba 03 0f
        E 46 ba 03 0e
        E 46 ba 03 0d
        E 46 ba 03 0c
        E 46 ba 03 0c
        E 46 ba 03 0b
        E 46 ba 03 0a
        E 46 ba 03 09
        E 46 ba 03 08
        E 46 ba 03 08
        E 46 ba 03 07
        E 46 ba 03 06
        E 46 ba 03 05
        E 46 ba 03 05
        E 46 ba 03 04
        E 46 ba 03 03
        E 46 ba 03 03
        E 46 ba 03 03
        E 46 ba 03 02
        E 46 ba 03 02
        E 46 ba 03 01
        E 46 ba 03 01
        E 46 ba 03 00
        E 46 ba 03 00
        E 46 ba 03 00
        E 46 ba 03 00
        E 46 ba 03 00
        E 46 ba 03 00
        E 46 ba 03 00
        E 46 ba 03 00
        E 46 ba 03 00
        E 46 ba 03 00
        E 46 ba 03 00
        E 46 ba 03 00
        E 46 ba 03 00
        E 46 ba 03 01
        E 46 ba 03 01
        E 46 ba 03 01
        E 46 ba 03 02
        E 46 ba 03 02
        E 46 ba 03 03
        E 46 ba 03 03
        E 46 ba 03 04
        E 46 ba 03 04
        E 46 ba 03 05
        E 46 ba 03 06
        E 46 ba 03 06
        E 46 ba 03 07
        E 46 ba 03 08
        E 46 ba 03 09
        E 46 ba 03 09
        E 46 ba 03 0a
        E 46 ba 03 0b
        E 46 ba 03 0c
        E 46 ba 03 0d
        E 46 ba 03 0e
        E 46 ba 03 0f
        E 46 ba 03 10
        E 46 ba 03 11
        E 46 ba 03 12
        E 46 ba 03 13
        E 70 b0 7b 00
        CCINTERP 32
        CHASE_CC_TAKEOFFS 1
        GUID {DD57A518-B817-8E48-AEF5-1F58CC34646C}
        IGNTEMPO 0 120 4 4
        SRCCOLOR 79
        VELLANE 3 601 0
        VELLANE -1 196 0
      >
    >
  >
  <TRACK {A94BF989-6DC3-E845-8EA6-12277EADE551}
    NAME "cannabis-infused gummies"
    PEAKCOL 16576
    BEAT -1
    AUTOMODE 0
    VOLPAN 1 0 -1 -1 1
    MUTESOLO 0 0 0
    IPHASE 0
    PLAYOFFS 0 1
    ISBUS 2 -1
    BUSCOMP 0 0 0 0 0
    SHOWINMIX 1 0.6667 0.5 1 0.5 0 -1 0
    FREEMODE 0
    SEL 0
    REC 0 0 1 0 0 0 0
    VU 2
    TRACKHEIGHT 0 0 0 0 -1 0
    INQ 0 0 0 0.5 100 0 0 100
    NCHAN 2
    FX 1
    TRACKID {A94BF989-6DC3-E845-8EA6-12277EADE551}
    PERF 0
    MIDIOUT -1
    MAINSEND 1 0
    <ITEM
      POSITION 0
      SNAPOFFS 0
      LENGTH 650.203128
      LOOP 1
      ALLTAKES 0
      FADEIN 1 0 0 1 0 0
      FADEOUT 1 0 0 1 0 0
      MUTE 0 0
      SEL 0
      IGUID {97BC49CE-9AF5-D34E-8E6E-F71B27EBF452}
      IID 24
      NAME "cannabis-infused gummies.mid"
      VOLPAN 1 0 1 -1
      SOFFS 0 0
      PLAYRATE 1 1 0 -1 0 0.0025
      CHANMODE 0
      GUID {D8AD625B-2496-844D-9B92-C1BC552F79A1}
      <SOURCE MIDI
        HASDATA 1 128 QN
        CCINTERP 32
        POOLEDEVTS {B5C2ADA0-A224-ED43-A943-053CB0F9F838}
        E 3 bb 09 00
        E 3 bb 09 01
        E 3 bb 09 02
        E 3 bb 09 03
        E 3 bb 09 04
        E 3 bb 09 04
        E 3 bb 09 05
        E 3 bb 09 06
        E 3 bb 09 07
        E 3 bb 09 08
        E 3 bb 09 08
        E 3 bb 09 09
        E 3 bb 09 0a
        E 3 bb 09 0b
        E 3 bb 09 0c
        E 3 bb 09 0c
        E 3 bb 09 0d
        E 3 bb 09 0e
        E 3 bb 09 0f
        E 3 bb 09 10
        E 3 bb 09 10
        E 3 bb 09 11
        E 3 bb 09 12
        E 3 bb 09 13
        E 3 bb 09 14
        E 3 bb 09 14
        E 3 bb 09 15
        E 3 bb 09 16
        E 3 bb 09 17
        E 3 bb 09 18
        E 3 bb 09 18
        E 3 bb 09 19
        E 3 bb 09 1a
        E 3 bb 09 1b
        E 3 bb 09 1c
        E 3 bb 09 1c
        E 3 bb 09 1d
        E 3 bb 09 1e
        E 3 bb 09 1f
        E 3 bb 09 20
        E 3 bb 09 20
        E 3 bb 09 21
        E 3 bb 09 22
        E 3 bb 09 23
        E 3 bb 09 24
        E 3 bb 09 24
        E 3 bb 09 25
        E 3 bb 09 26
        E 3 bb 09 27
        E 3 bb 09 28
        E 3 bb 09 28
        E 3 bb 09 29
        E 3 bb 09 2a
        E 3 bb 09 2b
        E 3 bb 09 2c
        E 3 bb 09 2c
        E 3 bb 09 2d
        E 3 bb 09 2e
        E 3 bb 09 2f
        E 3 bb 09 30
        E 3 bb 09 30
        E 3 bb 09 31
        E 3 bb 09 32
        E 3 bb 09 32
        E 3 bb 09 32
        E 3 bb 09 31
        E 3 bb 09 30
        E 3 bb 09 30
        E 3 bb 09 2f
        E 3 bb 09 2e
        E 3 bb 09 2d
        E 3 bb 09 2c
        E 3 bb 09 2c
        E 3 bb 09 2b
        E 3 bb 09 2a
        E 3 bb 09 29
        E 3 bb 09 28
        E 3 bb 09 28
        E 3 bb 09 27
        E 3 bb 09 26
        E 3 bb 09 25
        E 3 bb 09 24
        E 3 bb 09 24
        E 3 bb 09 23
        E 3 bb 09 22
        E 3 bb 09 21
        E 3 bb 09 20
        E 3 bb 09 20
        E 3 bb 09 1f
        E 3 bb 09 1e
        E 3 bb 09 1d
        E 3 bb 09 1c
        E 3 bb 09 1c
        E 3 bb 09 1b
        E 3 bb 09 1a
        E 3 bb 09 19
        E 3 bb 09 18
        E 3 bb 09 18
        E 3 bb 09 17
        E 3 bb 09 16
        E 3 bb 09 15
        E 3 bb 09 14
        E 3 bb 09 14
        E 3 bb 09 13
        E 3 bb 09 12
        E 3 bb 09 11
        E 3 bb 09 10
        E 3 bb 09 10
        E 3 bb 09 0f
        E 3 bb 09 0e
        E 3 bb 09 0d
        E 3 bb 09 0c
        E 3 bb 09 0c
        E 3 bb 09 0b
        E 3 bb 09 0a
        E 3 bb 09 09
        E 3 bb 09 08
        E 3 bb 09 08
        E 3 bb 09 07
        E 3 bb 09 06
        E 3 bb 09 05
        E 3 bb 09 04
        E 3 bb 09 04
        E 3 bb 09 03
        E 3 bb 09 02
        E 3 bb 09 01
        E 3 bb 09 00
        E 3 bb 09 00
        E 28 bb 09 00
        E 28 bb 09 00
        E 28 bb 09 00
        E 28 bb 09 00
        E 28 bb 09 01
        E 28 bb 09 01
        E 28 bb 09 01
        E 28 bb 09 01
        E 28 bb 09 01
        E 28 bb 09 02
        E 28 bb 09 02
        E 28 bb 09 02
        E 28 bb 09 02
        E 28 bb 09 02
        E 28 bb 09 03
        E 28 bb 09 03
        E 28 bb 09 03
        E 28 bb 09 03
        E 28 bb 09 03
        E 28 bb 09 04
        E 28 bb 09 04
        E 28 bb 09 04
        E 28 bb 09 04
        E 28 bb 09 04
        E 28 bb 09 05
        E 28 bb 09 05
        E 28 bb 09 05
        E 28 bb 09 05
        E 28 bb 09 05
        E 28 bb 09 06
        E 28 bb 09 06
        E 28 bb 09 06
        E 28 bb 09 06
        E 28 bb 09 06
        E 28 bb 09 07
        E 28 bb 09 07
        E 28 bb 09 07
        E 28 bb 09 07
        E 28 bb 09 07
        E 28 bb 09 08
        E 28 bb 09 08
        E 28 bb 09 08
        E 28 bb 09 08
        E 28 bb 09 08
        E 28 bb 09 09
        E 28 bb 09 09
        E 28 bb 09 09
        E 28 bb 09 09
        E 28 bb 09 09
        E 28 bb 09 0a
        E 28 bb 09 0a
        E 28 bb 09 0a
        E 28 bb 09 0a
        E 28 bb 09 0a
        E 28 bb 09 0b
        E 28 bb 09 0b
        E 28 bb 09 0b
        E 28 bb 09 0b
        E 28 bb 09 0b
        E 28 bb 09 0c
        E 28 bb 09 0c
        E 28 bb 09 0c
        E 28 bb 09 0c
        E 28 bb 09 0c
        E 28 bb 09 0c
        E 28 bb 09 0c
        E 28 bb 09 0c
        E 28 bb 09 0c
        E 28 bb 09 0b
        E 28 bb 09 0b
        E 28 bb 09 0b
        E 28 bb 09 0b
        E 28 bb 09 0b
        E 28 bb 09 0a
        E 28 bb 09 0a
        E 28 bb 09 0a
        E 28 bb 09 0a
        E 28 bb 09 0a
        E 28 bb 09 09
        E 28 bb 09 09
        E 28 bb 09 09
        E 28 bb 09 09
        E 28 bb 09 09
        E 28 bb 09 08
        E 28 bb 09 08
        E 28 bb 09 08
        E 28 bb 09 08
        E 28 bb 09 08
        E 28 bb 09 07
        E 28 bb 09 07
        E 28 bb 09 07
        E 28 bb 09 07
        E 28 bb 09 07
        E 28 bb 09 06
        E 28 bb 09 06
        E 28 bb 09 06
        E 28 bb 09 06
        E 28 bb 09 06
        E 28 bb 09 05
        E 28 bb 09 05
        E 28 bb 09 05
        E 28 bb 09 05
        E 28 bb 09 05
        E 28 bb 09 04
        E 28 bb 09 04
        E 28 bb 09 04
        E 28 bb 09 04
        E 28 bb 09 04
        E 28 bb 09 03
        E 28 bb 09 03
        E 28 bb 09 03
        E 28 bb 09 03
        E 28 bb 09 03
        E 28 bb 09 02
        E 28 bb 09 02
        E 28 bb 09 02
        E 28 bb 09 02
        E 28 bb 09 02
        E 28 bb 09 01
        E 28 bb 09 01
        E 28 bb 09 01
        E 28 bb 09 01
        E 28 bb 09 01
        E 28 bb 09 00
        E 28 bb 09 00
        E 28 bb 09 00
        E 28 bb 09 00
        E 28 bb 09 00
        E 25 bb 09 01
        E 25 bb 09 02
        E 25 bb 09 04
        E 25 bb 09 05
        E 25 bb 09 07
        E 25 bb 09 08
        E 25 bb 09 09
        E 25 bb 09 0b
        E 25 bb 09 0c
        E 25 bb 09 0e
        E 25 bb 09 0f
        E 25 bb 09 10
        E 25 bb 09 12
        E 25 bb 09 13
        E 25 bb 09 15
        E 25 bb 09 16
        E 25 bb 09 17
        E 25 bb 09 19
        E 25 bb 09 1a
        E 25 bb 09 1c
        E 25 bb 09 1d
        E 25 bb 09 1e
        E 25 bb 09 20
        E 25 bb 09 21
        E 25 bb 09 23
        E 25 bb 09 24
        E 25 bb 09 25
        E 25 bb 09 27
        E 25 bb 09 28
        E 25 bb 09 2a
        E 25 bb 09 2b
        E 25 bb 09 2c
        E 25 bb 09 2e
        E 25 bb 09 2f
        E 25 bb 09 31
        E 25 bb 09 32
        E 25 bb 09 33
        E 25 bb 09 35
        E 25 bb 09 36
        E 25 bb 09 38
        E 25 bb 09 39
        E 25 bb 09 3a
        E 25 bb 09 3c
        E 25 bb 09 3d
        E 25 bb 09 3e
        E 25 bb 09 40
        E 25 bb 09 41
        E 25 bb 09 43
        E 25 bb 09 44
        E 25 bb 09 46
        E 25 bb 09 47
        E 25 bb 09 48
        E 25 bb 09 4a
        E 25 bb 09 4b
        E 25 bb 09 4d
        E 25 bb 09 4e
        E 25 bb 09 4f
        E 25 bb 09 51
        E 25 bb 09 52
        E 25 bb 09 54
        E 25 bb 09 55
        E 25 bb 09 56
        E 25 bb 09 58
        E 25 bb 09 58
        E 25 bb 09 58
        E 25 bb 09 56
        E 25 bb 09 55
        E 25 bb 09 54
        E 25 bb 09 52
        E 25 bb 09 51
        E 25 bb 09 4f
        E 25 bb 09 4e
        E 25 bb 09 4d
        E 25 bb 09 4b
        E 25 bb 09 4a
        E 25 bb 09 48
        E 25 bb 09 47
        E 25 bb 09 46
        E 25 bb 09 44
        E 25 bb 09 43
        E 25 bb 09 41
        E 25 bb 09 40
        E 25 bb 09 3e
        E 25 bb 09 3d
        E 25 bb 09 3c
        E 25 bb 09 3a
        E 25 bb 09 39
        E 25 bb 09 38
        E 25 bb 09 36
        E 25 bb 09 35
        E 25 bb 09 33
        E 25 bb 09 32
        E 25 bb 09 31
        E 25 bb 09 2f
        E 25 bb 09 2e
        E 25 bb 09 2c
        E 25 bb 09 2b
        E 25 bb 09 2a
        E 25 bb 09 28
        E 25 bb 09 27
        E 25 bb 09 25
        E 25 bb 09 24
        E 25 bb 09 23
        E 25 bb 09 21
        E 25 bb 09 20
        E 25 bb 09 1e
        E 25 bb 09 1d
        E 25 bb 09 1c
        E 25 bb 09 1a
        E 25 bb 09 19
        E 25 bb 09 17
        E 25 bb 09 16
        E 25 bb 09 15
        E 25 bb 09 13
        E 25 bb 09 12
        E 25 bb 09 10
        E 25 bb 09 0f
        E 25 bb 09 0e
        E 25 bb 09 0c
        E 25 bb 09 0b
        E 25 bb 09 09
        E 25 bb 09 08
        E 25 bb 09 07
        E 25 bb 09 05
        E 25 bb 09 04
        E 25 bb 09 02
        E 25 bb 09 01
        E 25 bb 09 00
        E 28 bb 09 00
        E 28 bb 09 01
        E 28 bb 09 01
        E 28 bb 09 02
        E 28 bb 09 03
        E 28 bb 09 03
        E 28 bb 09 04
        E 28 bb 09 04
        E 28 bb 09 05
        E 28 bb 09 06
        E 28 bb 09 06
        E 28 bb 09 07
        E 28 bb 09 07
        E 28 bb 09 08
        E 28 bb 09 09
        E 28 bb 09 09
        E 28 bb 09 0a
        E 28 bb 09 0a
        E 28 bb 09 0b
        E 28 bb 09 0c
        E 28 bb 09 0c
        E 28 bb 09 0d
        E 28 bb 09 0d
        E 28 bb 09 0e
        E 28 bb 09 0f
        E 28 bb 09 0f
        E 28 bb 09 10
        E 28 bb 09 10
        E 28 bb 09 11
        E 28 bb 09 12
        E 28 bb 09 12
        E 28 bb 09 13
        E 28 bb 09 13
        E 28 bb 09 14
        E 28 bb 09 15
        E 28 bb 09 15
        E 28 bb 09 16
        E 28 bb 09 16
        E 28 bb 09 17
        E 28 bb 09 18
        E 28 bb 09 18
        E 28 bb 09 19
        E 28 bb 09 19
        E 28 bb 09 1a
        E 28 bb 09 1b
        E 28 bb 09 1b
        E 28 bb 09 1c
        E 28 bb 09 1c
        E 28 bb 09 1d
        E 28 bb 09 1e
        E 28 bb 09 1e
        E 28 bb 09 1f
        E 28 bb 09 1f
        E 28 bb 09 20
        E 28 bb 09 21
        E 28 bb 09 21
        E 28 bb 09 22
        E 28 bb 09 22
        E 28 bb 09 23
        E 28 bb 09 24
        E 28 bb 09 24
        E 28 bb 09 25
        E 28 bb 09 25
        E 28 bb 09 26
        E 28 bb 09 25
        E 28 bb 09 25
        E 28 bb 09 24
        E 28 bb 09 24
        E 28 bb 09 23
        E 28 bb 09 22
        E 28 bb 09 22
        E 28 bb 09 21
        E 28 bb 09 21
        E 28 bb 09 20
        E 28 bb 09 1f
        E 28 bb 09 1f
        E 28 bb 09 1e
        E 28 bb 09 1e
        E 28 bb 09 1d
        E 28 bb 09 1c
        E 28 bb 09 1c
        E 28 bb 09 1b
        E 28 bb 09 1b
        E 28 bb 09 1a
        E 28 bb 09 19
        E 28 bb 09 19
        E 28 bb 09 18
        E 28 bb 09 18
        E 28 bb 09 17
        E 28 bb 09 16
        E 28 bb 09 16
        E 28 bb 09 15
        E 28 bb 09 15
        E 28 bb 09 14
        E 28 bb 09 13
        E 28 bb 09 13
        E 28 bb 09 12
        E 28 bb 09 12
        E 28 bb 09 11
        E 28 bb 09 10
        E 28 bb 09 10
        E 28 bb 09 0f
        E 28 bb 09 0f
        E 28 bb 09 0e
        E 28 bb 09 0d
        E 28 bb 09 0d
        E 28 bb 09 0c
        E 28 bb 09 0c
        E 28 bb 09 0b
        E 28 bb 09 0a
        E 28 bb 09 0a
        E 28 bb 09 09
        E 28 bb 09 09
        E 28 bb 09 08
        E 28 bb 09 07
        E 28 bb 09 07
        E 28 bb 09 06
        E 28 bb 09 06
        E 28 bb 09 05
        E 28 bb 09 04
        E 28 bb 09 04
        E 28 bb 09 03
        E 28 bb 09 03
        E 28 bb 09 02
        E 28 bb 09 01
        E 28 bb 09 01
        E 28 bb 09 00
        E 28 bb 09 00
        E 9 bb 09 01
        E 9 bb 09 02
        E 9 bb 09 03
        E 9 bb 09 04
        E 9 bb 09 06
        E 9 bb 09 07
        E 9 bb 09 08
        E 9 bb 09 09
        E 9 bb 09 0a
        E 9 bb 09 0c
        E 9 bb 09 0d
        E 9 bb 09 0e
        E 9 bb 09 0f
        E 9 bb 09 10
        E 9 bb 09 12
        E 9 bb 09 13
        E 9 bb 09 14
        E 9 bb 09 15
        E 9 bb 09 16
        E 9 bb 09 18
        E 9 bb 09 19
        E 9 bb 09 1a
        E 9 bb 09 1b
        E 9 bb 09 1c
        E 9 bb 09 1e
        E 9 bb 09 1f
        E 9 bb 09 20
        E 9 bb 09 21
        E 9 bb 09 22
        E 9 bb 09 24
        E 9 bb 09 25
        E 9 bb 09 26
        E 9 bb 09 27
        E 9 bb 09 28
        E 9 bb 09 2a
        E 9 bb 09 2b
        E 9 bb 09 2c
        E 9 bb 09 2d
        E 9 bb 09 2e
        E 9 bb 09 30
        E 9 bb 09 31
        E 9 bb 09 32
        E 9 bb 09 33
        E 9 bb 09 34
        E 9 bb 09 36
        E 9 bb 09 37
        E 9 bb 09 38
        E 9 bb 09 39
        E 9 bb 09 3a
        E 9 bb 09 3c
        E 9 bb 09 3d
        E 9 bb 09 3e
        E 9 bb 09 3f
        E 9 bb 09 40
        E 9 bb 09 42
        E 9 bb 09 43
        E 9 bb 09 44
        E 9 bb 09 45
        E 9 bb 09 46
        E 9 bb 09 48
        E 9 bb 09 49
        E 9 bb 09 4a
        E 9 bb 09 4b
        E 9 bb 09 4c
        E 9 bb 09 4b
        E 9 bb 09 4a
        E 9 bb 09 49
        E 9 bb 09 48
        E 9 bb 09 46
        E 9 bb 09 45
        E 9 bb 09 44
        E 9 bb 09 43
        E 9 bb 09 42
        E 9 bb 09 40
        E 9 bb 09 3f
        E 9 bb 09 3e
        E 9 bb 09 3d
        E 9 bb 09 3c
        E 9 bb 09 3a
        E 9 bb 09 39
        E 9 bb 09 38
        E 9 bb 09 37
        E 9 bb 09 36
        E 9 bb 09 34
        E 9 bb 09 33
        E 9 bb 09 32
        E 9 bb 09 31
        E 9 bb 09 30
        E 9 bb 09 2e
        E 9 bb 09 2d
        E 9 bb 09 2c
        E 9 bb 09 2b
        E 9 bb 09 2a
        E 9 bb 09 28
        E 9 bb 09 27
        E 9 bb 09 26
        E 9 bb 09 25
        E 9 bb 09 24
        E 9 bb 09 22
        E 9 bb 09 21
        E 9 bb 09 20
        E 9 bb 09 1f
        E 9 bb 09 1e
        E 9 bb 09 1c
        E 9 bb 09 1b
        E 9 bb 09 1a
        E 9 bb 09 19
        E 9 bb 09 18
        E 9 bb 09 16
        E 9 bb 09 15
        E 9 bb 09 14
        E 9 bb 09 13
        E 9 bb 09 12
        E 9 bb 09 10
        E 9 bb 09 0f
        E 9 bb 09 0e
        E 9 bb 09 0d
        E 9 bb 09 0c
        E 9 bb 09 0a
        E 9 bb 09 09
        E 9 bb 09 08
        E 9 bb 09 07
        E 9 bb 09 06
        E 9 bb 09 04
        E 9 bb 09 03
        E 9 bb 09 02
        E 9 bb 09 01
        E 9 bb 09 00
        E 25 bb 09 01
        E 25 bb 09 03
        E 25 bb 09 05
        E 25 bb 09 07
        E 25 bb 09 09
        E 25 bb 09 0a
        E 25 bb 09 0c
        E 25 bb 09 0e
        E 25 bb 09 10
        E 25 bb 09 12
        E 25 bb 09 13
        E 25 bb 09 15
        E 25 bb 09 17
        E 25 bb 09 19
        E 25 bb 09 1b
        E 25 bb 09 1c
        E 25 bb 09 1e
        E 25 bb 09 20
        E 25 bb 09 22
        E 25 bb 09 24
        E 25 bb 09 25
        E 25 bb 09 27
        E 25 bb 09 29
        E 25 bb 09 2b
        E 25 bb 09 2d
        E 25 bb 09 2e
        E 25 bb 09 30
        E 25 bb 09 32
        E 25 bb 09 34
        E 25 bb 09 36
        E 25 bb 09 37
        E 25 bb 09 39
        E 25 bb 09 3b
        E 25 bb 09 3d
        E 25 bb 09 3f
        E 25 bb 09 40
        E 25 bb 09 42
        E 25 bb 09 44
        E 25 bb 09 46
        E 25 bb 09 48
        E 25 bb 09 49
        E 25 bb 09 4b
        E 25 bb 09 4d
        E 25 bb 09 4f
        E 25 bb 09 51
        E 25 bb 09 52
        E 25 bb 09 54
        E 25 bb 09 56
        E 25 bb 09 58
        E 25 bb 09 5a
        E 25 bb 09 5b
        E 25 bb 09 5d
        E 25 bb 09 5f
        E 25 bb 09 61
        E 25 bb 09 63
        E 25 bb 09 64
        E 25 bb 09 66
        E 25 bb 09 68
        E 25 bb 09 6a
        E 25 bb 09 6c
        E 25 bb 09 6d
        E 25 bb 09 6f
        E 25 bb 09 71
        E 25 bb 09 72
        E 25 bb 09 71
        E 25 bb 09 6f
        E 25 bb 09 6d
        E 25 bb 09 6c
        E 25 bb 09 6a
        E 25 bb 09 68
        E 25 bb 09 66
        E 25 bb 09 64
        E 25 bb 09 63
        E 25 bb 09 61
        E 25 bb 09 5f
        E 25 bb 09 5d
        E 25 bb 09 5b
        E 25 bb 09 5a
        E 25 bb 09 58
        E 25 bb 09 56
        E 25 bb 09 54
        E 25 bb 09 52
        E 25 bb 09 51
        E 25 bb 09 4f
        E 25 bb 09 4d
        E 25 bb 09 4b
        E 25 bb 09 49
        E 25 bb 09 48
        E 25 bb 09 46
        E 25 bb 09 44
        E 25 bb 09 42
        E 25 bb 09 40
        E 25 bb 09 3f
        E 25 bb 09 3d
        E 25 bb 09 3b
        E 25 bb 09 39
        E 25 bb 09 37
        E 25 bb 09 36
        E 25 bb 09 34
        E 25 bb 09 32
        E 25 bb 09 30
        E 25 bb 09 2e
        E 25 bb 09 2d
        E 25 bb 09 2b
        E 25 bb 09 29
        E 25 bb 09 27
        E 25 bb 09 25
        E 25 bb 09 24
        E 25 bb 09 22
        E 25 bb 09 20
        E 25 bb 09 1e
        E 25 bb 09 1c
        E 25 bb 09 1b
        E 25 bb 09 19
        E 25 bb 09 17
        E 25 bb 09 15
        E 25 bb 09 13
        E 25 bb 09 12
        E 25 bb 09 10
        E 25 bb 09 0e
        E 25 bb 09 0c
        E 25 bb 09 0a
        E 25 bb 09 09
        E 25 bb 09 07
        E 25 bb 09 05
        E 25 bb 09 03
        E 25 bb 09 01
        E 25 bb 09 00
        E 3 bb 09 00
        E 3 bb 09 01
        E 3 bb 09 02
        E 3 bb 09 03
        E 3 bb 09 04
        E 3 bb 09 04
        E 3 bb 09 05
        E 3 bb 09 06
        E 3 bb 09 07
        E 3 bb 09 08
        E 3 bb 09 08
        E 3 bb 09 09
        E 3 bb 09 0a
        E 3 bb 09 0b
        E 3 bb 09 0c
        E 3 bb 09 0c
        E 3 bb 09 0d
        E 3 bb 09 0e
        E 3 bb 09 0f
        E 3 bb 09 10
        E 3 bb 09 10
        E 3 bb 09 11
        E 3 bb 09 12
        E 3 bb 09 13
        E 3 bb 09 14
        E 3 bb 09 14
        E 3 bb 09 15
        E 3 bb 09 16
        E 3 bb 09 17
        E 3 bb 09 18
        E 3 bb 09 18
        E 3 bb 09 19
        E 3 bb 09 1a
        E 3 bb 09 1b
        E 3 bb 09 1c
        E 3 bb 09 1c
        E 3 bb 09 1d
        E 3 bb 09 1e
        E 3 bb 09 1f
        E 3 bb 09 20
        E 3 bb 09 20
        E 3 bb 09 21
        E 3 bb 09 22
        E 3 bb 09 23
        E 3 bb 09 24
        E 3 bb 09 24
        E 3 bb 09 25
        E 3 bb 09 26
        E 3 bb 09 27
        E 3 bb 09 28
        E 3 bb 09 28
        E 3 bb 09 29
        E 3 bb 09 2a
        E 3 bb 09 2b
        E 3 bb 09 2c
        E 3 bb 09 2c
        E 3 bb 09 2d
        E 3 bb 09 2e
        E 3 bb 09 2f
        E 3 bb 09 30
        E 3 bb 09 30
        E 3 bb 09 31
        E 3 bb 09 32
        E 3 bb 09 32
        E 3 bb 09 32
        E 3 bb 09 31
        E 3 bb 09 30
        E 3 bb 09 30
        E 3 bb 09 2f
        E 3 bb 09 2e
        E 3 bb 09 2d
        E 3 bb 09 2c
        E 3 bb 09 2c
        E 3 bb 09 2b
        E 3 bb 09 2a
        E 3 bb 09 29
        E 3 bb 09 28
        E 3 bb 09 28
        E 3 bb 09 27
        E 3 bb 09 26
        E 3 bb 09 25
        E 3 bb 09 24
        E 3 bb 09 24
        E 3 bb 09 23
        E 3 bb 09 22
        E 3 bb 09 21
        E 3 bb 09 20
        E 3 bb 09 20
        E 3 bb 09 1f
        E 3 bb 09 1e
        E 3 bb 09 1d
        E 3 bb 09 1c
        E 3 bb 09 1c
        E 3 bb 09 1b
        E 3 bb 09 1a
        E 3 bb 09 19
        E 3 bb 09 18
        E 3 bb 09 18
        E 3 bb 09 17
        E 3 bb 09 16
        E 3 bb 09 15
        E 3 bb 09 14
        E 3 bb 09 14
        E 3 bb 09 13
        E 3 bb 09 12
        E 3 bb 09 11
        E 3 bb 09 10
        E 3 bb 09 10
        E 3 bb 09 0f
        E 3 bb 09 0e
        E 3 bb 09 0d
        E 3 bb 09 0c
        E 3 bb 09 0c
        E 3 bb 09 0b
        E 3 bb 09 0a
        E 3 bb 09 09
        E 3 bb 09 08
        E 3 bb 09 08
        E 3 bb 09 07
        E 3 bb 09 06
        E 3 bb 09 05
        E 3 bb 09 04
        E 3 bb 09 04
        E 3 bb 09 03
        E 3 bb 09 02
        E 3 bb 09 01
        E 3 bb 09 00
        E 3 bb 09 00
        E 28 bb 09 00
        E 28 bb 09 00
        E 28 bb 09 00
        E 28 bb 09 00
        E 28 bb 09 01
        E 28 bb 09 01
        E 28 bb 09 01
        E 28 bb 09 01
        E 28 bb 09 01
        E 28 bb 09 02
        E 28 bb 09 02
        E 28 bb 09 02
        E 28 bb 09 02
        E 28 bb 09 02
        E 28 bb 09 03
        E 28 bb 09 03
        E 28 bb 09 03
        E 28 bb 09 03
        E 28 bb 09 03
        E 28 bb 09 04
        E 28 bb 09 04
        E 28 bb 09 04
        E 28 bb 09 04
        E 28 bb 09 04
        E 28 bb 09 05
        E 28 bb 09 05
        E 28 bb 09 05
        E 28 bb 09 05
        E 28 bb 09 05
        E 28 bb 09 06
        E 28 bb 09 06
        E 28 bb 09 06
        E 28 bb 09 06
        E 28 bb 09 06
        E 28 bb 09 07
        E 28 bb 09 07
        E 28 bb 09 07
        E 28 bb 09 07
        E 28 bb 09 07
        E 28 bb 09 08
        E 28 bb 09 08
        E 28 bb 09 08
        E 28 bb 09 08
        E 28 bb 09 08
        E 28 bb 09 09
        E 28 bb 09 09
        E 28 bb 09 09
        E 28 bb 09 09
        E 28 bb 09 09
        E 28 bb 09 0a
        E 28 bb 09 0a
        E 28 bb 09 0a
        E 28 bb 09 0a
        E 28 bb 09 0a
        E 28 bb 09 0b
        E 28 bb 09 0b
        E 28 bb 09 0b
        E 28 bb 09 0b
        E 28 bb 09 0b
        E 28 bb 09 0c
        E 28 bb 09 0c
        E 28 bb 09 0c
        E 28 bb 09 0c
        E 28 bb 09 0c
        E 28 bb 09 0c
        E 28 bb 09 0c
        E 28 bb 09 0c
        E 28 bb 09 0c
        E 28 bb 09 0b
        E 28 bb 09 0b
        E 28 bb 09 0b
        E 28 bb 09 0b
        E 28 bb 09 0b
        E 28 bb 09 0a
        E 28 bb 09 0a
        E 28 bb 09 0a
        E 28 bb 09 0a
        E 28 bb 09 0a
        E 28 bb 09 09
        E 28 bb 09 09
        E 28 bb 09 09
        E 28 bb 09 09
        E 28 bb 09 09
        E 28 bb 09 08
        E 28 bb 09 08
        E 28 bb 09 08
        E 28 bb 09 08
        E 28 bb 09 08
        E 28 bb 09 07
        E 28 bb 09 07
        E 28 bb 09 07
        E 28 bb 09 07
        E 28 bb 09 07
        E 28 bb 09 06
        E 28 bb 09 06
        E 28 bb 09 06
        E 28 bb 09 06
        E 28 bb 09 06
        E 28 bb 09 05
        E 28 bb 09 05
        E 28 bb 09 05
        E 28 bb 09 05
        E 28 bb 09 05
        E 28 bb 09 04
        E 28 bb 09 04
        E 28 bb 09 04
        E 28 bb 09 04
        E 28 bb 09 04
        E 28 bb 09 03
        E 28 bb 09 03
        E 28 bb 09 03
        E 28 bb 09 03
        E 28 bb 09 03
        E 28 bb 09 02
        E 28 bb 09 02
        E 28 bb 09 02
        E 28 bb 09 02
        E 28 bb 09 02
        E 28 bb 09 01
        E 28 bb 09 01
        E 28 bb 09 01
        E 28 bb 09 01
        E 28 bb 09 01
        E 28 bb 09 00
        E 28 bb 09 00
        E 28 bb 09 00
        E 28 bb 09 00
        E 28 bb 09 00
        E 25 bb 09 01
        E 25 bb 09 02
        E 25 bb 09 04
        E 25 bb 09 05
        E 25 bb 09 07
        E 25 bb 09 08
        E 25 bb 09 09
        E 25 bb 09 0b
        E 25 bb 09 0c
        E 25 bb 09 0e
        E 25 bb 09 0f
        E 25 bb 09 10
        E 25 bb 09 12
        E 25 bb 09 13
        E 25 bb 09 15
        E 25 bb 09 16
        E 25 bb 09 17
        E 25 bb 09 19
        E 25 bb 09 1a
        E 25 bb 09 1c
        E 25 bb 09 1d
        E 25 bb 09 1e
        E 25 bb 09 20
        E 25 bb 09 21
        E 25 bb 09 23
        E 25 bb 09 24
        E 25 bb 09 25
        E 25 bb 09 27
        E 25 bb 09 28
        E 25 bb 09 2a
        E 25 bb 09 2b
        E 25 bb 09 2c
        E 25 bb 09 2e
        E 25 bb 09 2f
        E 25 bb 09 31
        E 25 bb 09 32
        E 25 bb 09 33
        E 25 bb 09 35
        E 25 bb 09 36
        E 25 bb 09 38
        E 25 bb 09 39
        E 25 bb 09 3a
        E 25 bb 09 3c
        E 25 bb 09 3d
        E 25 bb 09 3e
        E 25 bb 09 40
        E 25 bb 09 41
        E 25 bb 09 43
        E 25 bb 09 44
        E 25 bb 09 46
        E 25 bb 09 47
        E 25 bb 09 48
        E 25 bb 09 4a
        E 25 bb 09 4b
        E 25 bb 09 4d
        E 25 bb 09 4e
        E 25 bb 09 4f
        E 25 bb 09 51
        E 25 bb 09 52
        E 25 bb 09 54
        E 25 bb 09 55
        E 25 bb 09 56
        E 25 bb 09 58
        E 25 bb 09 58
        E 25 bb 09 58
        E 25 bb 09 56
        E 25 bb 09 55
        E 25 bb 09 54
        E 25 bb 09 52
        E 25 bb 09 51
        E 25 bb 09 4f
        E 25 bb 09 4e
        E 25 bb 09 4d
        E 25 bb 09 4b
        E 25 bb 09 4a
        E 25 bb 09 48
        E 25 bb 09 47
        E 25 bb 09 46
        E 25 bb 09 44
        E 25 bb 09 43
        E 25 bb 09 41
        E 25 bb 09 40
        E 25 bb 09 3e
        E 25 bb 09 3d
        E 25 bb 09 3c
        E 25 bb 09 3a
        E 25 bb 09 39
        E 25 bb 09 38
        E 25 bb 09 36
        E 25 bb 09 35
        E 25 bb 09 33
        E 25 bb 09 32
        E 25 bb 09 31
        E 25 bb 09 2f
        E 25 bb 09 2e
        E 25 bb 09 2c
        E 25 bb 09 2b
        E 25 bb 09 2a
        E 25 bb 09 28
        E 25 bb 09 27
        E 25 bb 09 25
        E 25 bb 09 24
        E 25 bb 09 23
        E 25 bb 09 21
        E 25 bb 09 20
        E 25 bb 09 1e
        E 25 bb 09 1d
        E 25 bb 09 1c
        E 25 bb 09 1a
        E 25 bb 09 19
        E 25 bb 09 17
        E 25 bb 09 16
        E 25 bb 09 15
        E 25 bb 09 13
        E 25 bb 09 12
        E 25 bb 09 10
        E 25 bb 09 0f
        E 25 bb 09 0e
        E 25 bb 09 0c
        E 25 bb 09 0b
        E 25 bb 09 09
        E 25 bb 09 08
        E 25 bb 09 07
        E 25 bb 09 05
        E 25 bb 09 04
        E 25 bb 09 02
        E 25 bb 09 01
        E 25 bb 09 00
        E 28 bb 09 00
        E 28 bb 09 01
        E 28 bb 09 01
        E 28 bb 09 02
        E 28 bb 09 03
        E 28 bb 09 03
        E 28 bb 09 04
        E 28 bb 09 04
        E 28 bb 09 05
        E 28 bb 09 06
        E 28 bb 09 06
        E 28 bb 09 07
        E 28 bb 09 07
        E 28 bb 09 08
        E 28 bb 09 09
        E 28 bb 09 09
        E 28 bb 09 0a
        E 28 bb 09 0a
        E 28 bb 09 0b
        E 28 bb 09 0c
        E 28 bb 09 0c
        E 28 bb 09 0d
        E 28 bb 09 0d
        E 28 bb 09 0e
        E 28 bb 09 0f
        E 28 bb 09 0f
        E 28 bb 09 10
        E 28 bb 09 10
        E 28 bb 09 11
        E 28 bb 09 12
        E 28 bb 09 12
        E 28 bb 09 13
        E 28 bb 09 13
        E 28 bb 09 14
        E 28 bb 09 15
        E 28 bb 09 15
        E 28 bb 09 16
        E 28 bb 09 16
        E 28 bb 09 17
        E 28 bb 09 18
        E 28 bb 09 18
        E 28 bb 09 19
        E 28 bb 09 19
        E 28 bb 09 1a
        E 28 bb 09 1b
        E 28 bb 09 1b
        E 28 bb 09 1c
        E 28 bb 09 1c
        E 28 bb 09 1d
        E 28 bb 09 1e
        E 28 bb 09 1e
        E 28 bb 09 1f
        E 28 bb 09 1f
        E 28 bb 09 20
        E 28 bb 09 21
        E 28 bb 09 21
        E 28 bb 09 22
        E 28 bb 09 22
        E 28 bb 09 23
        E 28 bb 09 24
        E 28 bb 09 24
        E 28 bb 09 25
        E 28 bb 09 25
        E 28 bb 09 26
        E 28 bb 09 25
        E 28 bb 09 25
        E 28 bb 09 24
        E 28 bb 09 24
        E 28 bb 09 23
        E 28 bb 09 22
        E 28 bb 09 22
        E 28 bb 09 21
        E 28 bb 09 21
        E 28 bb 09 20
        E 28 bb 09 1f
        E 28 bb 09 1f
        E 28 bb 09 1e
        E 28 bb 09 1e
        E 28 bb 09 1d
        E 28 bb 09 1c
        E 28 bb 09 1c
        E 28 bb 09 1b
        E 28 bb 09 1b
        E 28 bb 09 1a
        E 28 bb 09 19
        E 28 bb 09 19
        E 28 bb 09 18
        E 28 bb 09 18
        E 28 bb 09 17
        E 28 bb 09 16
        E 28 bb 09 16
        E 28 bb 09 15
        E 28 bb 09 15
        E 28 bb 09 14
        E 28 bb 09 13
        E 28 bb 09 13
        E 28 bb 09 12
        E 28 bb 09 12
        E 28 bb 09 11
        E 28 bb 09 10
        E 28 bb 09 10
        E 28 bb 09 0f
        E 28 bb 09 0f
        E 28 bb 09 0e
        E 28 bb 09 0d
        E 28 bb 09 0d
        E 28 bb 09 0c
        E 28 bb 09 0c
        E 28 bb 09 0b
        E 28 bb 09 0a
        E 28 bb 09 0a
        E 28 bb 09 09
        E 28 bb 09 09
        E 28 bb 09 08
        E 28 bb 09 07
        E 28 bb 09 07
        E 28 bb 09 06
        E 28 bb 09 06
        E 28 bb 09 05
        E 28 bb 09 04
        E 28 bb 09 04
        E 28 bb 09 03
        E 28 bb 09 03
        E 28 bb 09 02
        E 28 bb 09 01
        E 28 bb 09 01
        E 28 bb 09 00
        E 28 bb 09 00
        E 9 bb 09 01
        E 9 bb 09 02
        E 9 bb 09 03
        E 9 bb 09 04
        E 9 bb 09 06
        E 9 bb 09 07
        E 9 bb 09 08
        E 9 bb 09 09
        E 9 bb 09 0a
        E 9 bb 09 0c
        E 9 bb 09 0d
        E 9 bb 09 0e
        E 9 bb 09 0f
        E 9 bb 09 10
        E 9 bb 09 12
        E 9 bb 09 13
        E 9 bb 09 14
        E 9 bb 09 15
        E 9 bb 09 16
        E 9 bb 09 18
        E 9 bb 09 19
        E 9 bb 09 1a
        E 9 bb 09 1b
        E 9 bb 09 1c
        E 9 bb 09 1e
        E 9 bb 09 1f
        E 9 bb 09 20
        E 9 bb 09 21
        E 9 bb 09 22
        E 9 bb 09 24
        E 9 bb 09 25
        E 9 bb 09 26
        E 9 bb 09 27
        E 9 bb 09 28
        E 9 bb 09 2a
        E 9 bb 09 2b
        E 9 bb 09 2c
        E 9 bb 09 2d
        E 9 bb 09 2e
        E 9 bb 09 30
        E 9 bb 09 31
        E 9 bb 09 32
        E 9 bb 09 33
        E 9 bb 09 34
        E 9 bb 09 36
        E 9 bb 09 37
        E 9 bb 09 38
        E 9 bb 09 39
        E 9 bb 09 3a
        E 9 bb 09 3c
        E 9 bb 09 3d
        E 9 bb 09 3e
        E 9 bb 09 3f
        E 9 bb 09 40
        E 9 bb 09 42
        E 9 bb 09 43
        E 9 bb 09 44
        E 9 bb 09 45
        E 9 bb 09 46
        E 9 bb 09 48
        E 9 bb 09 49
        E 9 bb 09 4a
        E 9 bb 09 4b
        E 9 bb 09 4c
        E 9 bb 09 4b
        E 9 bb 09 4a
        E 9 bb 09 49
        E 9 bb 09 48
        E 9 bb 09 46
        E 9 bb 09 45
        E 9 bb 09 44
        E 9 bb 09 43
        E 9 bb 09 42
        E 9 bb 09 40
        E 9 bb 09 3f
        E 9 bb 09 3e
        E 9 bb 09 3d
        E 9 bb 09 3c
        E 9 bb 09 3a
        E 9 bb 09 39
        E 9 bb 09 38
        E 9 bb 09 37
        E 9 bb 09 36
        E 9 bb 09 34
        E 9 bb 09 33
        E 9 bb 09 32
        E 9 bb 09 31
        E 9 bb 09 30
        E 9 bb 09 2e
        E 9 bb 09 2d
        E 9 bb 09 2c
        E 9 bb 09 2b
        E 9 bb 09 2a
        E 9 bb 09 28
        E 9 bb 09 27
        E 9 bb 09 26
        E 9 bb 09 25
        E 9 bb 09 24
        E 9 bb 09 22
        E 9 bb 09 21
        E 9 bb 09 20
        E 9 bb 09 1f
        E 9 bb 09 1e
        E 9 bb 09 1c
        E 9 bb 09 1b
        E 9 bb 09 1a
        E 9 bb 09 19
        E 9 bb 09 18
        E 9 bb 09 16
        E 9 bb 09 15
        E 9 bb 09 14
        E 9 bb 09 13
        E 9 bb 09 12
        E 9 bb 09 10
        E 9 bb 09 0f
        E 9 bb 09 0e
        E 9 bb 09 0d
        E 9 bb 09 0c
        E 9 bb 09 0a
        E 9 bb 09 09
        E 9 bb 09 08
        E 9 bb 09 07
        E 9 bb 09 06
        E 9 bb 09 04
        E 9 bb 09 03
        E 9 bb 09 02
        E 9 bb 09 01
        E 9 bb 09 00
        E 25 bb 09 01
        E 25 bb 09 03
        E 25 bb 09 05
        E 25 bb 09 07
        E 25 bb 09 09
        E 25 bb 09 0a
        E 25 bb 09 0c
        E 25 bb 09 0e
        E 25 bb 09 10
        E 25 bb 09 12
        E 25 bb 09 13
        E 25 bb 09 15
        E 25 bb 09 17
        E 25 bb 09 19
        E 25 bb 09 1b
        E 25 bb 09 1c
        E 25 bb 09 1e
        E 25 bb 09 20
        E 25 bb 09 22
        E 25 bb 09 24
        E 25 bb 09 25
        E 25 bb 09 27
        E 25 bb 09 29
        E 25 bb 09 2b
        E 25 bb 09 2d
        E 25 bb 09 2e
        E 25 bb 09 30
        E 25 bb 09 32
        E 25 bb 09 34
        E 25 bb 09 36
        E 25 bb 09 37
        E 25 bb 09 39
        E 25 bb 09 3b
        E 25 bb 09 3d
        E 25 bb 09 3f
        E 25 bb 09 40
        E 25 bb 09 42
        E 25 bb 09 44
        E 25 bb 09 46
        E 25 bb 09 48
        E 25 bb 09 49
        E 25 bb 09 4b
        E 25 bb 09 4d
        E 25 bb 09 4f
        E 25 bb 09 51
        E 25 bb 09 52
        E 25 bb 09 54
        E 25 bb 09 56
        E 25 bb 09 58
        E 25 bb 09 5a
        E 25 bb 09 5b
        E 25 bb 09 5d
        E 25 bb 09 5f
        E 25 bb 09 61
        E 25 bb 09 63
        E 25 bb 09 64
        E 25 bb 09 66
        E 25 bb 09 68
        E 25 bb 09 6a
        E 25 bb 09 6c
        E 25 bb 09 6d
        E 25 bb 09 6f
        E 25 bb 09 71
        E 25 bb 09 72
        E 25 bb 09 71
        E 25 bb 09 6f
        E 25 bb 09 6d
        E 25 bb 09 6c
        E 25 bb 09 6a
        E 25 bb 09 68
        E 25 bb 09 66
        E 25 bb 09 64
        E 25 bb 09 63
        E 25 bb 09 61
        E 25 bb 09 5f
        E 25 bb 09 5d
        E 25 bb 09 5b
        E 25 bb 09 5a
        E 25 bb 09 58
        E 25 bb 09 56
        E 25 bb 09 54
        E 25 bb 09 52
        E 25 bb 09 51
        E 25 bb 09 4f
        E 25 bb 09 4d
        E 25 bb 09 4b
        E 25 bb 09 49
        E 25 bb 09 48
        E 25 bb 09 46
        E 25 bb 09 44
        E 25 bb 09 42
        E 25 bb 09 40
        E 25 bb 09 3f
        E 25 bb 09 3d
        E 25 bb 09 3b
        E 25 bb 09 39
        E 25 bb 09 37
        E 25 bb 09 36
        E 25 bb 09 34
        E 25 bb 09 32
        E 25 bb 09 30
        E 25 bb 09 2e
        E 25 bb 09 2d
        E 25 bb 09 2b
        E 25 bb 09 29
        E 25 bb 09 27
        E 25 bb 09 25
        E 25 bb 09 24
        E 25 bb 09 22
        E 25 bb 09 20
        E 25 bb 09 1e
        E 25 bb 09 1c
        E 25 bb 09 1b
        E 25 bb 09 19
        E 25 bb 09 17
        E 25 bb 09 15
        E 25 bb 09 13
        E 25 bb 09 12
        E 25 bb 09 10
        E 25 bb 09 0e
        E 25 bb 09 0c
        E 25 bb 09 0a
        E 25 bb 09 09
        E 25 bb 09 07
        E 25 bb 09 05
        E 25 bb 09 03
        E 25 bb 09 01
        E 25 bb 09 00
        E 3 bb 09 00
        E 3 bb 09 01
        E 3 bb 09 02
        E 3 bb 09 03
        E 3 bb 09 04
        E 3 bb 09 04
        E 3 bb 09 05
        E 3 bb 09 06
        E 3 bb 09 07
        E 3 bb 09 08
        E 3 bb 09 08
        E 3 bb 09 09
        E 3 bb 09 0a
        E 3 bb 09 0b
        E 3 bb 09 0c
        E 3 bb 09 0c
        E 3 bb 09 0d
        E 3 bb 09 0e
        E 3 bb 09 0f
        E 3 bb 09 10
        E 3 bb 09 10
        E 3 bb 09 11
        E 3 bb 09 12
        E 3 bb 09 13
        E 3 bb 09 14
        E 3 bb 09 14
        E 3 bb 09 15
        E 3 bb 09 16
        E 3 bb 09 17
        E 3 bb 09 18
        E 3 bb 09 18
        E 3 bb 09 19
        E 3 bb 09 1a
        E 3 bb 09 1b
        E 3 bb 09 1c
        E 3 bb 09 1c
        E 3 bb 09 1d
        E 3 bb 09 1e
        E 3 bb 09 1f
        E 3 bb 09 20
        E 3 bb 09 20
        E 3 bb 09 21
        E 3 bb 09 22
        E 3 bb 09 23
        E 3 bb 09 24
        E 3 bb 09 24
        E 3 bb 09 25
        E 3 bb 09 26
        E 3 bb 09 27
        E 3 bb 09 28
        E 3 bb 09 28
        E 3 bb 09 29
        E 3 bb 09 2a
        E 3 bb 09 2b
        E 3 bb 09 2c
        E 3 bb 09 2c
        E 3 bb 09 2d
        E 3 bb 09 2e
        E 3 bb 09 2f
        E 3 bb 09 30
        E 3 bb 09 30
        E 3 bb 09 31
        E 3 bb 09 32
        E 3 bb 09 32
        E 3 bb 09 32
        E 3 bb 09 31
        E 3 bb 09 30
        E 3 bb 09 30
        E 3 bb 09 2f
        E 3 bb 09 2e
        E 3 bb 09 2d
        E 3 bb 09 2c
        E 3 bb 09 2c
        E 3 bb 09 2b
        E 3 bb 09 2a
        E 3 bb 09 29
        E 3 bb 09 28
        E 3 bb 09 28
        E 3 bb 09 27
        E 3 bb 09 26
        E 3 bb 09 25
        E 3 bb 09 24
        E 3 bb 09 24
        E 3 bb 09 23
        E 3 bb 09 22
        E 3 bb 09 21
        E 3 bb 09 20
        E 3 bb 09 20
        E 3 bb 09 1f
        E 3 bb 09 1e
        E 3 bb 09 1d
        E 3 bb 09 1c
        E 3 bb 09 1c
        E 3 bb 09 1b
        E 3 bb 09 1a
        E 3 bb 09 19
        E 3 bb 09 18
        E 3 bb 09 18
        E 3 bb 09 17
        E 3 bb 09 16
        E 3 bb 09 15
        E 3 bb 09 14
        E 3 bb 09 14
        E 3 bb 09 13
        E 3 bb 09 12
        E 3 bb 09 11
        E 3 bb 09 10
        E 3 bb 09 10
        E 3 bb 09 0f
        E 3 bb 09 0e
        E 3 bb 09 0d
        E 3 bb 09 0c
        E 3 bb 09 0c
        E 3 bb 09 0b
        E 3 bb 09 0a
        E 3 bb 09 09
        E 3 bb 09 08
        E 3 bb 09 08
        E 3 bb 09 07
        E 3 bb 09 06
        E 3 bb 09 05
        E 3 bb 09 04
        E 3 bb 09 04
        E 3 bb 09 03
        E 3 bb 09 02
        E 3 bb 09 01
        E 3 bb 09 00
        E 3 bb 09 00
        E 28 bb 09 00
        E 28 bb 09 00
        E 28 bb 09 00
        E 28 bb 09 00
        E 28 bb 09 01
        E 28 bb 09 01
        E 28 bb 09 01
        E 28 bb 09 01
        E 28 bb 09 01
        E 28 bb 09 02
        E 28 bb 09 02
        E 28 bb 09 02
        E 28 bb 09 02
        E 28 bb 09 02
        E 28 bb 09 03
        E 28 bb 09 03
        E 28 bb 09 03
        E 28 bb 09 03
        E 28 bb 09 03
        E 28 bb 09 04
        E 28 bb 09 04
        E 28 bb 09 04
        E 28 bb 09 04
        E 28 bb 09 04
        E 28 bb 09 05
        E 28 bb 09 05
        E 28 bb 09 05
        E 28 bb 09 05
        E 28 bb 09 05
        E 28 bb 09 06
        E 28 bb 09 06
        E 28 bb 09 06
        E 28 bb 09 06
        E 28 bb 09 06
        E 28 bb 09 07
        E 28 bb 09 07
        E 28 bb 09 07
        E 28 bb 09 07
        E 28 bb 09 07
        E 28 bb 09 08
        E 28 bb 09 08
        E 28 bb 09 08
        E 28 bb 09 08
        E 28 bb 09 08
        E 28 bb 09 09
        E 28 bb 09 09
        E 28 bb 09 09
        E 28 bb 09 09
        E 28 bb 09 09
        E 28 bb 09 0a
        E 28 bb 09 0a
        E 28 bb 09 0a
        E 28 bb 09 0a
        E 28 bb 09 0a
        E 28 bb 09 0b
        E 28 bb 09 0b
        E 28 bb 09 0b
        E 28 bb 09 0b
        E 28 bb 09 0b
        E 28 bb 09 0c
        E 28 bb 09 0c
        E 28 bb 09 0c
        E 28 bb 09 0c
        E 28 bb 09 0c
        E 28 bb 09 0c
        E 28 bb 09 0c
        E 28 bb 09 0c
        E 28 bb 09 0c
        E 28 bb 09 0b
        E 28 bb 09 0b
        E 28 bb 09 0b
        E 28 bb 09 0b
        E 28 bb 09 0b
        E 28 bb 09 0a
        E 28 bb 09 0a
        E 28 bb 09 0a
        E 28 bb 09 0a
        E 28 bb 09 0a
        E 28 bb 09 09
        E 28 bb 09 09
        E 28 bb 09 09
        E 28 bb 09 09
        E 28 bb 09 09
        E 28 bb 09 08
        E 28 bb 09 08
        E 28 bb 09 08
        E 28 bb 09 08
        E 28 bb 09 08
        E 28 bb 09 07
        E 28 bb 09 07
        E 28 bb 09 07
        E 28 bb 09 07
        E 28 bb 09 07
        E 28 bb 09 06
        E 28 bb 09 06
        E 28 bb 09 06
        E 28 bb 09 06
        E 28 bb 09 06
        E 28 bb 09 05
        E 28 bb 09 05
        E 28 bb 09 05
        E 28 bb 09 05
        E 28 bb 09 05
        E 28 bb 09 04
        E 28 bb 09 04
        E 28 bb 09 04
        E 28 bb 09 04
        E 28 bb 09 04
        E 28 bb 09 03
        E 28 bb 09 03
        E 28 bb 09 03
        E 28 bb 09 03
        E 28 bb 09 03
        E 28 bb 09 02
        E 28 bb 09 02
        E 28 bb 09 02
        E 28 bb 09 02
        E 28 bb 09 02
        E 28 bb 09 01
        E 28 bb 09 01
        E 28 bb 09 01
        E 28 bb 09 01
        E 28 bb 09 01
        E 28 bb 09 00
        E 28 bb 09 00
        E 28 bb 09 00
        E 28 bb 09 00
        E 28 bb 09 00
        E 25 bb 09 01
        E 25 bb 09 02
        E 25 bb 09 04
        E 25 bb 09 05
        E 25 bb 09 07
        E 25 bb 09 08
        E 25 bb 09 09
        E 25 bb 09 0b
        E 25 bb 09 0c
        E 25 bb 09 0e
        E 25 bb 09 0f
        E 25 bb 09 10
        E 25 bb 09 12
        E 25 bb 09 13
        E 25 bb 09 15
        E 25 bb 09 16
        E 25 bb 09 17
        E 25 bb 09 19
        E 25 bb 09 1a
        E 25 bb 09 1c
        E 25 bb 09 1d
        E 25 bb 09 1e
        E 25 bb 09 20
        E 25 bb 09 21
        E 25 bb 09 23
        E 25 bb 09 24
        E 25 bb 09 25
        E 25 bb 09 27
        E 25 bb 09 28
        E 25 bb 09 2a
        E 25 bb 09 2b
        E 25 bb 09 2c
        E 25 bb 09 2e
        E 25 bb 09 2f
        E 25 bb 09 31
        E 25 bb 09 32
        E 25 bb 09 33
        E 25 bb 09 35
        E 25 bb 09 36
        E 25 bb 09 38
        E 25 bb 09 39
        E 25 bb 09 3a
        E 25 bb 09 3c
        E 25 bb 09 3d
        E 25 bb 09 3e
        E 25 bb 09 40
        E 25 bb 09 41
        E 25 bb 09 43
        E 25 bb 09 44
        E 25 bb 09 46
        E 25 bb 09 47
        E 25 bb 09 48
        E 25 bb 09 4a
        E 25 bb 09 4b
        E 25 bb 09 4d
        E 25 bb 09 4e
        E 25 bb 09 4f
        E 25 bb 09 51
        E 25 bb 09 52
        E 25 bb 09 54
        E 25 bb 09 55
        E 25 bb 09 56
        E 25 bb 09 58
        E 25 bb 09 58
        E 25 bb 09 58
        E 25 bb 09 56
        E 25 bb 09 55
        E 25 bb 09 54
        E 25 bb 09 52
        E 25 bb 09 51
        E 25 bb 09 4f
        E 25 bb 09 4e
        E 25 bb 09 4d
        E 25 bb 09 4b
        E 25 bb 09 4a
        E 25 bb 09 48
        E 25 bb 09 47
        E 25 bb 09 46
        E 25 bb 09 44
        E 25 bb 09 43
        E 25 bb 09 41
        E 25 bb 09 40
        E 25 bb 09 3e
        E 25 bb 09 3d
        E 25 bb 09 3c
        E 25 bb 09 3a
        E 25 bb 09 39
        E 25 bb 09 38
        E 25 bb 09 36
        E 25 bb 09 35
        E 25 bb 09 33
        E 25 bb 09 32
        E 25 bb 09 31
        E 25 bb 09 2f
        E 25 bb 09 2e
        E 25 bb 09 2c
        E 25 bb 09 2b
        E 25 bb 09 2a
        E 25 bb 09 28
        E 25 bb 09 27
        E 25 bb 09 25
        E 25 bb 09 24
        E 25 bb 09 23
        E 25 bb 09 21
        E 25 bb 09 20
        E 25 bb 09 1e
        E 25 bb 09 1d
        E 25 bb 09 1c
        E 25 bb 09 1a
        E 25 bb 09 19
        E 25 bb 09 17
        E 25 bb 09 16
        E 25 bb 09 15
        E 25 bb 09 13
        E 25 bb 09 12
        E 25 bb 09 10
        E 25 bb 09 0f
        E 25 bb 09 0e
        E 25 bb 09 0c
        E 25 bb 09 0b
        E 25 bb 09 09
        E 25 bb 09 08
        E 25 bb 09 07
        E 25 bb 09 05
        E 25 bb 09 04
        E 25 bb 09 02
        E 25 bb 09 01
        E 25 bb 09 00
        E 28 bb 09 00
        E 28 bb 09 01
        E 28 bb 09 01
        E 28 bb 09 02
        E 28 bb 09 03
        E 28 bb 09 03
        E 28 bb 09 04
        E 28 bb 09 04
        E 28 bb 09 05
        E 28 bb 09 06
        E 28 bb 09 06
        E 28 bb 09 07
        E 28 bb 09 07
        E 28 bb 09 08
        E 28 bb 09 09
        E 28 bb 09 09
        E 28 bb 09 0a
        E 28 bb 09 0a
        E 28 bb 09 0b
        E 28 bb 09 0c
        E 28 bb 09 0c
        E 28 bb 09 0d
        E 28 bb 09 0d
        E 28 bb 09 0e
        E 28 bb 09 0f
        E 28 bb 09 0f
        E 28 bb 09 10
        E 28 bb 09 10
        E 28 bb 09 11
        E 28 bb 09 12
        E 28 bb 09 12
        E 28 bb 09 13
        E 28 bb 09 13
        E 28 bb 09 14
        E 28 bb 09 15
        E 28 bb 09 15
        E 28 bb 09 16
        E 28 bb 09 16
        E 28 bb 09 17
        E 28 bb 09 18
        E 28 bb 09 18
        E 28 bb 09 19
        E 28 bb 09 19
        E 28 bb 09 1a
        E 28 bb 09 1b
        E 28 bb 09 1b
        E 28 bb 09 1c
        E 28 bb 09 1c
        E 28 bb 09 1d
        E 28 bb 09 1e
        E 28 bb 09 1e
        E 28 bb 09 1f
        E 28 bb 09 1f
        E 28 bb 09 20
        E 28 bb 09 21
        E 28 bb 09 21
        E 28 bb 09 22
        E 28 bb 09 22
        E 28 bb 09 23
        E 28 bb 09 24
        E 28 bb 09 24
        E 28 bb 09 25
        E 28 bb 09 25
        E 28 bb 09 26
        E 28 bb 09 25
        E 28 bb 09 25
        E 28 bb 09 24
        E 28 bb 09 24
        E 28 bb 09 23
        E 28 bb 09 22
        E 28 bb 09 22
        E 28 bb 09 21
        E 28 bb 09 21
        E 28 bb 09 20
        E 28 bb 09 1f
        E 28 bb 09 1f
        E 28 bb 09 1e
        E 28 bb 09 1e
        E 28 bb 09 1d
        E 28 bb 09 1c
        E 28 bb 09 1c
        E 28 bb 09 1b
        E 28 bb 09 1b
        E 28 bb 09 1a
        E 28 bb 09 19
        E 28 bb 09 19
        E 28 bb 09 18
        E 28 bb 09 18
        E 28 bb 09 17
        E 28 bb 09 16
        E 28 bb 09 16
        E 28 bb 09 15
        E 28 bb 09 15
        E 28 bb 09 14
        E 28 bb 09 13
        E 28 bb 09 13
        E 28 bb 09 12
        E 28 bb 09 12
        E 28 bb 09 11
        E 28 bb 09 10
        E 28 bb 09 10
        E 28 bb 09 0f
        E 28 bb 09 0f
        E 28 bb 09 0e
        E 28 bb 09 0d
        E 28 bb 09 0d
        E 28 bb 09 0c
        E 28 bb 09 0c
        E 28 bb 09 0b
        E 28 bb 09 0a
        E 28 bb 09 0a
        E 28 bb 09 09
        E 28 bb 09 09
        E 28 bb 09 08
        E 28 bb 09 07
        E 28 bb 09 07
        E 28 bb 09 06
        E 28 bb 09 06
        E 28 bb 09 05
        E 28 bb 09 04
        E 28 bb 09 04
        E 28 bb 09 03
        E 28 bb 09 03
        E 28 bb 09 02
        E 28 bb 09 01
        E 28 bb 09 01
        E 28 bb 09 00
        E 28 bb 09 00
        E 9 bb 09 01
        E 9 bb 09 02
        E 9 bb 09 03
        E 9 bb 09 04
        E 9 bb 09 06
        E 9 bb 09 07
        E 9 bb 09 08
        E 9 bb 09 09
        E 9 bb 09 0a
        E 9 bb 09 0c
        E 9 bb 09 0d
        E 9 bb 09 0e
        E 9 bb 09 0f
        E 9 bb 09 10
        E 9 bb 09 12
        E 9 bb 09 13
        E 9 bb 09 14
        E 9 bb 09 15
        E 9 bb 09 16
        E 9 bb 09 18
        E 9 bb 09 19
        E 9 bb 09 1a
        E 9 bb 09 1b
        E 9 bb 09 1c
        E 9 bb 09 1e
        E 9 bb 09 1f
        E 9 bb 09 20
        E 9 bb 09 21
        E 9 bb 09 22
        E 9 bb 09 24
        E 9 bb 09 25
        E 9 bb 09 26
        E 9 bb 09 27
        E 9 bb 09 28
        E 9 bb 09 2a
        E 9 bb 09 2b
        E 9 bb 09 2c
        E 9 bb 09 2d
        E 9 bb 09 2e
        E 9 bb 09 30
        E 9 bb 09 31
        E 9 bb 09 32
        E 9 bb 09 33
        E 9 bb 09 34
        E 9 bb 09 36
        E 9 bb 09 37
        E 9 bb 09 38
        E 9 bb 09 39
        E 9 bb 09 3a
        E 9 bb 09 3c
        E 9 bb 09 3d
        E 9 bb 09 3e
        E 9 bb 09 3f
        E 9 bb 09 40
        E 9 bb 09 42
        E 9 bb 09 43
        E 9 bb 09 44
        E 9 bb 09 45
        E 9 bb 09 46
        E 9 bb 09 48
        E 9 bb 09 49
        E 9 bb 09 4a
        E 9 bb 09 4b
        E 9 bb 09 4c
        E 9 bb 09 4b
        E 9 bb 09 4a
        E 9 bb 09 49
        E 9 bb 09 48
        E 9 bb 09 46
        E 9 bb 09 45
        E 9 bb 09 44
        E 9 bb 09 43
        E 9 bb 09 42
        E 9 bb 09 40
        E 9 bb 09 3f
        E 9 bb 09 3e
        E 9 bb 09 3d
        E 9 bb 09 3c
        E 9 bb 09 3a
        E 9 bb 09 39
        E 9 bb 09 38
        E 9 bb 09 37
        E 9 bb 09 36
        E 9 bb 09 34
        E 9 bb 09 33
        E 9 bb 09 32
        E 9 bb 09 31
        E 9 bb 09 30
        E 9 bb 09 2e
        E 9 bb 09 2d
        E 9 bb 09 2c
        E 9 bb 09 2b
        E 9 bb 09 2a
        E 9 bb 09 28
        E 9 bb 09 27
        E 9 bb 09 26
        E 9 bb 09 25
        E 9 bb 09 24
        E 9 bb 09 22
        E 9 bb 09 21
        E 9 bb 09 20
        E 9 bb 09 1f
        E 9 bb 09 1e
        E 9 bb 09 1c
        E 9 bb 09 1b
        E 9 bb 09 1a
        E 9 bb 09 19
        E 9 bb 09 18
        E 9 bb 09 16
        E 9 bb 09 15
        E 9 bb 09 14
        E 9 bb 09 13
        E 9 bb 09 12
        E 9 bb 09 10
        E 9 bb 09 0f
        E 9 bb 09 0e
        E 9 bb 09 0d
        E 9 bb 09 0c
        E 9 bb 09 0a
        E 9 bb 09 09
        E 9 bb 09 08
        E 9 bb 09 07
        E 9 bb 09 06
        E 9 bb 09 04
        E 9 bb 09 03
        E 9 bb 09 02
        E 9 bb 09 01
        E 9 bb 09 00
        E 25 bb 09 01
        E 25 bb 09 03
        E 25 bb 09 05
        E 25 bb 09 07
        E 25 bb 09 09
        E 25 bb 09 0a
        E 25 bb 09 0c
        E 25 bb 09 0e
        E 25 bb 09 10
        E 25 bb 09 12
        E 25 bb 09 13
        E 25 bb 09 15
        E 25 bb 09 17
        E 25 bb 09 19
        E 25 bb 09 1b
        E 25 bb 09 1c
        E 25 bb 09 1e
        E 25 bb 09 20
        E 25 bb 09 22
        E 25 bb 09 24
        E 25 bb 09 25
        E 25 bb 09 27
        E 25 bb 09 29
        E 25 bb 09 2b
        E 25 bb 09 2d
        E 25 bb 09 2e
        E 25 bb 09 30
        E 25 bb 09 32
        E 25 bb 09 34
        E 25 bb 09 36
        E 25 bb 09 37
        E 25 bb 09 39
        E 25 bb 09 3b
        E 25 bb 09 3d
        E 25 bb 09 3f
        E 25 bb 09 40
        E 25 bb 09 42
        E 25 bb 09 44
        E 25 bb 09 46
        E 25 bb 09 48
        E 25 bb 09 49
        E 25 bb 09 4b
        E 25 bb 09 4d
        E 25 bb 09 4f
        E 25 bb 09 51
        E 25 bb 09 52
        E 25 bb 09 54
        E 25 bb 09 56
        E 25 bb 09 58
        E 25 bb 09 5a
        E 25 bb 09 5b
        E 25 bb 09 5d
        E 25 bb 09 5f
        E 25 bb 09 61
        E 25 bb 09 63
        E 25 bb 09 64
        E 25 bb 09 66
        E 25 bb 09 68
        E 25 bb 09 6a
        E 25 bb 09 6c
        E 25 bb 09 6d
        E 25 bb 09 6f
        E 25 bb 09 71
        E 25 bb 09 72
        E 25 bb 09 71
        E 25 bb 09 6f
        E 25 bb 09 6d
        E 25 bb 09 6c
        E 25 bb 09 6a
        E 25 bb 09 68
        E 25 bb 09 66
        E 25 bb 09 64
        E 25 bb 09 63
        E 25 bb 09 61
        E 25 bb 09 5f
        E 25 bb 09 5d
        E 25 bb 09 5b
        E 25 bb 09 5a
        E 25 bb 09 58
        E 25 bb 09 56
        E 25 bb 09 54
        E 25 bb 09 52
        E 25 bb 09 51
        E 25 bb 09 4f
        E 25 bb 09 4d
        E 25 bb 09 4b
        E 25 bb 09 49
        E 25 bb 09 48
        E 25 bb 09 46
        E 25 bb 09 44
        E 25 bb 09 42
        E 25 bb 09 40
        E 25 bb 09 3f
        E 25 bb 09 3d
        E 25 bb 09 3b
        E 25 bb 09 39
        E 25 bb 09 37
        E 25 bb 09 36
        E 25 bb 09 34
        E 25 bb 09 32
        E 25 bb 09 30
        E 25 bb 09 2e
        E 25 bb 09 2d
        E 25 bb 09 2b
        E 25 bb 09 29
        E 25 bb 09 27
        E 25 bb 09 25
        E 25 bb 09 24
        E 25 bb 09 22
        E 25 bb 09 20
        E 25 bb 09 1e
        E 25 bb 09 1c
        E 25 bb 09 1b
        E 25 bb 09 19
        E 25 bb 09 17
        E 25 bb 09 15
        E 25 bb 09 13
        E 25 bb 09 12
        E 25 bb 09 10
        E 25 bb 09 0e
        E 25 bb 09 0c
        E 25 bb 09 0a
        E 25 bb 09 09
        E 25 bb 09 07
        E 25 bb 09 05
        E 25 bb 09 03
        E 25 bb 09 01
        E 25 bb 09 00
        E 3 bb 09 00
        E 3 bb 09 01
        E 3 bb 09 02
        E 3 bb 09 03
        E 3 bb 09 04
        E 3 bb 09 04
        E 3 bb 09 05
        E 3 bb 09 06
        E 3 bb 09 07
        E 3 bb 09 08
        E 3 bb 09 08
        E 3 bb 09 09
        E 3 bb 09 0a
        E 3 bb 09 0b
        E 3 bb 09 0c
        E 3 bb 09 0c
        E 3 bb 09 0d
        E 3 bb 09 0e
        E 3 bb 09 0f
        E 3 bb 09 10
        E 3 bb 09 10
        E 3 bb 09 11
        E 3 bb 09 12
        E 3 bb 09 13
        E 3 bb 09 14
        E 3 bb 09 14
        E 3 bb 09 15
        E 3 bb 09 16
        E 3 bb 09 17
        E 3 bb 09 18
        E 3 bb 09 18
        E 3 bb 09 19
        E 3 bb 09 1a
        E 3 bb 09 1b
        E 3 bb 09 1c
        E 3 bb 09 1c
        E 3 bb 09 1d
        E 3 bb 09 1e
        E 3 bb 09 1f
        E 3 bb 09 20
        E 3 bb 09 20
        E 3 bb 09 21
        E 3 bb 09 22
        E 3 bb 09 23
        E 3 bb 09 24
        E 3 bb 09 24
        E 3 bb 09 25
        E 3 bb 09 26
        E 3 bb 09 27
        E 3 bb 09 28
        E 3 bb 09 28
        E 3 bb 09 29
        E 3 bb 09 2a
        E 3 bb 09 2b
        E 3 bb 09 2c
        E 3 bb 09 2c
        E 3 bb 09 2d
        E 3 bb 09 2e
        E 3 bb 09 2f
        E 3 bb 09 30
        E 3 bb 09 30
        E 3 bb 09 31
        E 3 bb 09 32
        E 3 bb 09 32
        E 3 bb 09 32
        E 3 bb 09 31
        E 3 bb 09 30
        E 3 bb 09 30
        E 3 bb 09 2f
        E 3 bb 09 2e
        E 3 bb 09 2d
        E 3 bb 09 2c
        E 3 bb 09 2c
        E 3 bb 09 2b
        E 3 bb 09 2a
        E 3 bb 09 29
        E 3 bb 09 28
        E 3 bb 09 28
        E 3 bb 09 27
        E 3 bb 09 26
        E 3 bb 09 25
        E 3 bb 09 24
        E 3 bb 09 24
        E 3 bb 09 23
        E 3 bb 09 22
        E 3 bb 09 21
        E 3 bb 09 20
        E 3 bb 09 20
        E 3 bb 09 1f
        E 3 bb 09 1e
        E 3 bb 09 1d
        E 3 bb 09 1c
        E 3 bb 09 1c
        E 3 bb 09 1b
        E 3 bb 09 1a
        E 3 bb 09 19
        E 3 bb 09 18
        E 3 bb 09 18
        E 3 bb 09 17
        E 3 bb 09 16
        E 3 bb 09 15
        E 3 bb 09 14
        E 3 bb 09 14
        E 3 bb 09 13
        E 3 bb 09 12
        E 3 bb 09 11
        E 3 bb 09 10
        E 3 bb 09 10
        E 3 bb 09 0f
        E 3 bb 09 0e
        E 3 bb 09 0d
        E 3 bb 09 0c
        E 3 bb 09 0c
        E 3 bb 09 0b
        E 3 bb 09 0a
        E 3 bb 09 09
        E 3 bb 09 08
        E 3 bb 09 08
        E 3 bb 09 07
        E 3 bb 09 06
        E 3 bb 09 05
        E 3 bb 09 04
        E 3 bb 09 04
        E 3 bb 09 03
        E 3 bb 09 02
        E 3 bb 09 01
        E 3 bb 09 00
        E 3 bb 09 00
        E 28 bb 09 00
        E 28 bb 09 00
        E 28 bb 09 00
        E 28 bb 09 00
        E 28 bb 09 01
        E 28 bb 09 01
        E 28 bb 09 01
        E 28 bb 09 01
        E 28 bb 09 01
        E 28 bb 09 02
        E 28 bb 09 02
        E 28 bb 09 02
        E 28 bb 09 02
        E 28 bb 09 02
        E 28 bb 09 03
        E 28 bb 09 03
        E 28 bb 09 03
        E 28 bb 09 03
        E 28 bb 09 03
        E 28 bb 09 04
        E 28 bb 09 04
        E 28 bb 09 04
        E 28 bb 09 04
        E 28 bb 09 04
        E 28 bb 09 05
        E 28 bb 09 05
        E 28 bb 09 05
        E 28 bb 09 05
        E 28 bb 09 05
        E 28 bb 09 06
        E 28 bb 09 06
        E 28 bb 09 06
        E 28 bb 09 06
        E 28 bb 09 06
        E 28 bb 09 07
        E 28 bb 09 07
        E 28 bb 09 07
        E 28 bb 09 07
        E 28 bb 09 07
        E 28 bb 09 08
        E 28 bb 09 08
        E 28 bb 09 08
        E 28 bb 09 08
        E 28 bb 09 08
        E 28 bb 09 09
        E 28 bb 09 09
        E 28 bb 09 09
        E 28 bb 09 09
        E 28 bb 09 09
        E 28 bb 09 0a
        E 28 bb 09 0a
        E 28 bb 09 0a
        E 28 bb 09 0a
        E 28 bb 09 0a
        E 28 bb 09 0b
        E 28 bb 09 0b
        E 28 bb 09 0b
        E 28 bb 09 0b
        E 28 bb 09 0b
        E 28 bb 09 0c
        E 28 bb 09 0c
        E 28 bb 09 0c
        E 28 bb 09 0c
        E 28 bb 09 0c
        E 28 bb 09 0c
        E 28 bb 09 0c
        E 28 bb 09 0c
        E 28 bb 09 0c
        E 28 bb 09 0b
        E 28 bb 09 0b
        E 28 bb 09 0b
        E 28 bb 09 0b
        E 28 bb 09 0b
        E 28 bb 09 0a
        E 28 bb 09 0a
        E 28 bb 09 0a
        E 28 bb 09 0a
        E 28 bb 09 0a
        E 28 bb 09 09
        E 28 bb 09 09
        E 28 bb 09 09
        E 28 bb 09 09
        E 28 bb 09 09
        E 28 bb 09 08
        E 28 bb 09 08
        E 28 bb 09 08
        E 28 bb 09 08
        E 28 bb 09 08
        E 28 bb 09 07
        E 28 bb 09 07
        E 28 bb 09 07
        E 28 bb 09 07
        E 28 bb 09 07
        E 28 bb 09 06
        E 28 bb 09 06
        E 28 bb 09 06
        E 28 bb 09 06
        E 28 bb 09 06
        E 28 bb 09 05
        E 28 bb 09 05
        E 28 bb 09 05
        E 28 bb 09 05
        E 28 bb 09 05
        E 28 bb 09 04
        E 28 bb 09 04
        E 28 bb 09 04
        E 28 bb 09 04
        E 28 bb 09 04
        E 28 bb 09 03
        E 28 bb 09 03
        E 28 bb 09 03
        E 28 bb 09 03
        E 28 bb 09 03
        E 28 bb 09 02
        E 28 bb 09 02
        E 28 bb 09 02
        E 28 bb 09 02
        E 28 bb 09 02
        E 28 bb 09 01
        E 28 bb 09 01
        E 28 bb 09 01
        E 28 bb 09 01
        E 28 bb 09 01
        E 28 bb 09 00
        E 28 bb 09 00
        E 28 bb 09 00
        E 28 bb 09 00
        E 28 bb 09 00
        E 25 bb 09 01
        E 25 bb 09 02
        E 25 bb 09 04
        E 25 bb 09 05
        E 25 bb 09 07
        E 25 bb 09 08
        E 25 bb 09 09
        E 25 bb 09 0b
        E 25 bb 09 0c
        E 25 bb 09 0e
        E 25 bb 09 0f
        E 25 bb 09 10
        E 25 bb 09 12
        E 25 bb 09 13
        E 25 bb 09 15
        E 25 bb 09 16
        E 25 bb 09 17
        E 25 bb 09 19
        E 25 bb 09 1a
        E 25 bb 09 1c
        E 25 bb 09 1d
        E 25 bb 09 1e
        E 25 bb 09 20
        E 25 bb 09 21
        E 25 bb 09 23
        E 25 bb 09 24
        E 25 bb 09 25
        E 25 bb 09 27
        E 25 bb 09 28
        E 25 bb 09 2a
        E 25 bb 09 2b
        E 25 bb 09 2c
        E 25 bb 09 2e
        E 25 bb 09 2f
        E 25 bb 09 31
        E 25 bb 09 32
        E 25 bb 09 33
        E 25 bb 09 35
        E 25 bb 09 36
        E 25 bb 09 38
        E 25 bb 09 39
        E 25 bb 09 3a
        E 25 bb 09 3c
        E 25 bb 09 3d
        E 25 bb 09 3e
        E 25 bb 09 40
        E 25 bb 09 41
        E 25 bb 09 43
        E 25 bb 09 44
        E 25 bb 09 46
        E 25 bb 09 47
        E 25 bb 09 48
        E 25 bb 09 4a
        E 25 bb 09 4b
        E 25 bb 09 4d
        E 25 bb 09 4e
        E 25 bb 09 4f
        E 25 bb 09 51
        E 25 bb 09 52
        E 25 bb 09 54
        E 25 bb 09 55
        E 25 bb 09 56
        E 25 bb 09 58
        E 25 bb 09 58
        E 25 bb 09 58
        E 25 bb 09 56
        E 25 bb 09 55
        E 25 bb 09 54
        E 25 bb 09 52
        E 25 bb 09 51
        E 25 bb 09 4f
        E 25 bb 09 4e
        E 25 bb 09 4d
        E 25 bb 09 4b
        E 25 bb 09 4a
        E 25 bb 09 48
        E 25 bb 09 47
        E 25 bb 09 46
        E 25 bb 09 44
        E 25 bb 09 43
        E 25 bb 09 41
        E 25 bb 09 40
        E 25 bb 09 3e
        E 25 bb 09 3d
        E 25 bb 09 3c
        E 25 bb 09 3a
        E 25 bb 09 39
        E 25 bb 09 38
        E 25 bb 09 36
        E 25 bb 09 35
        E 25 bb 09 33
        E 25 bb 09 32
        E 25 bb 09 31
        E 25 bb 09 2f
        E 25 bb 09 2e
        E 25 bb 09 2c
        E 25 bb 09 2b
        E 25 bb 09 2a
        E 25 bb 09 28
        E 25 bb 09 27
        E 25 bb 09 25
        E 25 bb 09 24
        E 25 bb 09 23
        E 25 bb 09 21
        E 25 bb 09 20
        E 25 bb 09 1e
        E 25 bb 09 1d
        E 25 bb 09 1c
        E 25 bb 09 1a
        E 25 bb 09 19
        E 25 bb 09 17
        E 25 bb 09 16
        E 25 bb 09 15
        E 25 bb 09 13
        E 25 bb 09 12
        E 25 bb 09 10
        E 25 bb 09 0f
        E 25 bb 09 0e
        E 25 bb 09 0c
        E 25 bb 09 0b
        E 25 bb 09 09
        E 25 bb 09 08
        E 25 bb 09 07
        E 25 bb 09 05
        E 25 bb 09 04
        E 25 bb 09 02
        E 25 bb 09 01
        E 25 bb 09 00
        E 62 bb 09 72
        E 62 bb 09 72
        E 62 bb 09 72
        E 62 bb 09 72
        E 62 bb 09 72
        E 62 bb 09 72
        E 62 bb 09 72
        E 62 bb 09 72
        E 62 bb 09 72
        E 62 bb 09 72
        E 62 bb 09 72
        E 62 bb 09 72
        E 62 bb 09 72
        E 62 bb 09 72
        E 62 bb 09 72
        E 62 bb 09 72
        E 62 bb 09 72
        E 62 bb 09 72
        E 62 bb 09 72
        E 62 bb 09 72
        E 62 bb 09 72
        E 62 bb 09 72
        E 62 bb 09 72
        E 62 bb 09 72
        E 62 bb 09 72
        E 62 bb 09 72
        E 62 bb 09 72
        E 62 bb 09 72
        E 62 bb 09 72
        E 62 bb 09 72
        E 62 bb 09 72
        E 62 bb 09 72
        E 62 bb 09 72
        E 62 bb 09 72
        E 62 bb 09 72
        E 62 bb 09 72
        E 62 bb 09 72
        E 62 bb 09 72
        E 62 bb 09 72
        E 62 bb 09 72
        E 62 bb 09 72
        E 62 bb 09 72
        E 62 bb 09 72
        E 62 bb 09 72
        E 62 bb 09 72
        E 62 bb 09 72
        E 62 bb 09 72
        E 62 bb 09 72
        E 62 bb 09 72
        E 62 bb 09 72
        E 62 bb 09 72
        E 62 bb 09 72
        E 62 bb 09 72
        E 62 bb 09 72
        E 62 bb 09 72
        E 62 bb 09 72
        E 62 bb 09 72
        E 62 bb 09 72
        E 62 bb 09 72
        E 62 bb 09 72
        E 62 bb 09 72
        E 62 bb 09 72
        E 62 bb 09 72
        E 62 bb 09 00
        E 62 bb 09 00
        E 62 bb 09 00
        E 62 bb 09 00
        E 62 bb 09 00
        E 62 bb 09 00
        E 62 bb 09 00
        E 62 bb 09 00
        E 62 bb 09 00
        E 62 bb 09 00
        E 62 bb 09 00
        E 62 bb 09 00
        E 62 bb 09 00
        E 62 bb 09 00
        E 62 bb 09 00
        E 62 bb 09 00
        E 62 bb 09 00
        E 62 bb 09 00
        E 62 bb 09 00
        E 62 bb 09 00
        E 62 bb 09 00
        E 62 bb 09 00
        E 62 bb 09 00
        E 62 bb 09 00
        E 62 bb 09 00
        E 62 bb 09 00
        E 62 bb 09 00
        E 62 bb 09 00
        E 62 bb 09 00
        E 62 bb 09 00
        E 62 bb 09 00
        E 62 bb 09 00
        E 62 bb 09 00
        E 62 bb 09 00
        E 62 bb 09 00
        E 62 bb 09 00
        E 62 bb 09 00
        E 62 bb 09 00
        E 62 bb 09 00
        E 62 bb 09 00
        E 62 bb 09 00
        E 62 bb 09 00
        E 62 bb 09 00
        E 62 bb 09 00
        E 62 bb 09 00
        E 62 bb 09 00
        E 62 bb 09 00
        E 62 bb 09 00
        E 62 bb 09 00
        E 62 bb 09 00
        E 62 bb 09 00
        E 62 bb 09 00
        E 62 bb 09 00
        E 62 bb 09 00
        E 62 bb 09 00
        E 62 bb 09 00
        E 62 bb 09 00
        E 62 bb 09 00
        E 62 bb 09 00
        E 62 bb 09 00
        E 62 bb 09 00
        E 62 bb 09 00
        E 62 bb 09 00
        E 62 bb 09 00
        E 7 bb 09 32
        E 7 bb 09 32
        E 7 bb 09 32
        E 7 bb 09 32
        E 7 bb 09 32
        E 7 bb 09 32
        E 7 bb 09 32
        E 7 bb 09 32
        E 7 bb 09 32
        E 7 bb 09 32
        E 7 bb 09 32
        E 7 bb 09 32
        E 7 bb 09 32
        E 7 bb 09 32
        E 7 bb 09 32
        E 7 bb 09 32
        E 7 bb 09 32
        E 7 bb 09 32
        E 7 bb 09 32
        E 7 bb 09 32
        E 7 bb 09 32
        E 7 bb 09 32
        E 7 bb 09 32
        E 7 bb 09 32
        E 7 bb 09 32
        E 7 bb 09 32
        E 7 bb 09 32
        E 7 bb 09 32
        E 7 bb 09 32
        E 7 bb 09 32
        E 7 bb 09 32
        E 7 bb 09 32
        E 7 bb 09 32
        E 7 bb 09 32
        E 7 bb 09 32
        E 7 bb 09 32
        E 7 bb 09 32
        E 7 bb 09 32
        E 7 bb 09 32
        E 7 bb 09 32
        E 7 bb 09 32
        E 7 bb 09 32
        E 7 bb 09 32
        E 7 bb 09 32
        E 7 bb 09 32
        E 7 bb 09 32
        E 7 bb 09 32
        E 7 bb 09 32
        E 7 bb 09 32
        E 7 bb 09 32
        E 7 bb 09 32
        E 7 bb 09 32
        E 7 bb 09 32
        E 7 bb 09 32
        E 7 bb 09 32
        E 7 bb 09 32
        E 7 bb 09 32
        E 7 bb 09 32
        E 7 bb 09 32
        E 7 bb 09 32
        E 7 bb 09 32
        E 7 bb 09 32
        E 7 bb 09 32
        E 7 bb 09 00
        E 7 bb 09 00
        E 7 bb 09 00
        E 7 bb 09 00
        E 7 bb 09 00
        E 7 bb 09 00
        E 7 bb 09 00
        E 7 bb 09 00
        E 7 bb 09 00
        E 7 bb 09 00
        E 7 bb 09 00
        E 7 bb 09 00
        E 7 bb 09 00
        E 7 bb 09 00
        E 7 bb 09 00
        E 7 bb 09 00
        E 7 bb 09 00
        E 7 bb 09 00
        E 7 bb 09 00
        E 7 bb 09 00
        E 7 bb 09 00
        E 7 bb 09 00
        E 7 bb 09 00
        E 7 bb 09 00
        E 7 bb 09 00
        E 7 bb 09 00
        E 7 bb 09 00
        E 7 bb 09 00
        E 7 bb 09 00
        E 7 bb 09 00
        E 7 bb 09 00
        E 7 bb 09 00
        E 7 bb 09 00
        E 7 bb 09 00
        E 7 bb 09 00
        E 7 bb 09 00
        E 7 bb 09 00
        E 7 bb 09 00
        E 7 bb 09 00
        E 7 bb 09 00
        E 7 bb 09 00
        E 7 bb 09 00
        E 7 bb 09 00
        E 7 bb 09 00
        E 7 bb 09 00
        E 7 bb 09 00
        E 7 bb 09 00
        E 7 bb 09 00
        E 7 bb 09 00
        E 7 bb 09 00
        E 7 bb 09 00
        E 7 bb 09 00
        E 7 bb 09 00
        E 7 bb 09 00
        E 7 bb 09 00
        E 7 bb 09 00
        E 7 bb 09 00
        E 7 bb 09 00
        E 7 bb 09 00
        E 7 bb 09 00
        E 7 bb 09 00
        E 7 bb 09 00
        E 7 bb 09 00
        E 7 bb 09 00
        E 70 bb 09 0c
        E 70 bb 09 0c
        E 70 bb 09 0c
        E 70 bb 09 0c
        E 70 bb 09 0c
        E 70 bb 09 0c
        E 70 bb 09 0c
        E 70 bb 09 0c
        E 70 bb 09 0c
        E 70 bb 09 0c
        E 70 bb 09 0c
        E 70 bb 09 0c
        E 70 bb 09 0c
        E 70 bb 09 0c
        E 70 bb 09 0c
        E 70 bb 09 0c
        E 70 bb 09 0c
        E 70 bb 09 0c
        E 70 bb 09 0c
        E 70 bb 09 0c
        E 70 bb 09 0c
        E 70 bb 09 0c
        E 70 bb 09 0c
        E 70 bb 09 0c
        E 70 bb 09 0c
        E 70 bb 09 0c
        E 70 bb 09 0c
        E 70 bb 09 0c
        E 70 bb 09 0c
        E 70 bb 09 0c
        E 70 bb 09 0c
        E 70 bb 09 0c
        E 70 bb 09 0c
        E 70 bb 09 0c
        E 70 bb 09 0c
        E 70 bb 09 0c
        E 70 bb 09 0c
        E 70 bb 09 0c
        E 70 bb 09 0c
        E 70 bb 09 0c
        E 70 bb 09 0c
        E 70 bb 09 0c
        E 70 bb 09 0c
        E 70 bb 09 0c
        E 70 bb 09 0c
        E 70 bb 09 0c
        E 70 bb 09 0c
        E 70 bb 09 0c
        E 70 bb 09 0c
        E 70 bb 09 0c
        E 70 bb 09 0c
        E 70 bb 09 0c
        E 70 bb 09 0c
        E 70 bb 09 0c
        E 70 bb 09 0c
        E 70 bb 09 0c
        E 70 bb 09 0c
        E 70 bb 09 0c
        E 70 bb 09 0c
        E 70 bb 09 0c
        E 70 bb 09 0c
        E 70 bb 09 0c
        E 70 bb 09 0c
        E 70 bb 09 00
        E 70 bb 09 00
        E 70 bb 09 00
        E 70 bb 09 00
        E 70 bb 09 00
        E 70 bb 09 00
        E 70 bb 09 00
        E 70 bb 09 00
        E 70 bb 09 00
        E 70 bb 09 00
        E 70 bb 09 00
        E 70 bb 09 00
        E 70 bb 09 00
        E 70 bb 09 00
        E 70 bb 09 00
        E 70 bb 09 00
        E 70 bb 09 00
        E 70 bb 09 00
        E 70 bb 09 00
        E 70 bb 09 00
        E 70 bb 09 00
        E 70 bb 09 00
        E 70 bb 09 00
        E 70 bb 09 00
        E 70 bb 09 00
        E 70 bb 09 00
        E 70 bb 09 00
        E 70 bb 09 00
        E 70 bb 09 00
        E 70 bb 09 00
        E 70 bb 09 00
        E 70 bb 09 00
        E 70 bb 09 00
        E 70 bb 09 00
        E 70 bb 09 00
        E 70 bb 09 00
        E 70 bb 09 00
        E 70 bb 09 00
        E 70 bb 09 00
        E 70 bb 09 00
        E 70 bb 09 00
        E 70 bb 09 00
        E 70 bb 09 00
        E 70 bb 09 00
        E 70 bb 09 00
        E 70 bb 09 00
        E 70 bb 09 00
        E 70 bb 09 00
        E 70 bb 09 00
        E 70 bb 09 00
        E 70 bb 09 00
        E 70 bb 09 00
        E 70 bb 09 00
        E 70 bb 09 00
        E 70 bb 09 00
        E 70 bb 09 00
        E 70 bb 09 00
        E 70 bb 09 00
        E 70 bb 09 00
        E 70 bb 09 00
        E 70 bb 09 00
        E 70 bb 09 00
        E 70 bb 09 00
        E 70 bb 09 00
        E 62 bb 09 58
        E 62 bb 09 58
        E 62 bb 09 58
        E 62 bb 09 58
        E 62 bb 09 58
        E 62 bb 09 58
        E 62 bb 09 58
        E 62 bb 09 58
        E 62 bb 09 58
        E 62 bb 09 58
        E 62 bb 09 58
        E 62 bb 09 58
        E 62 bb 09 58
        E 62 bb 09 58
        E 62 bb 09 58
        E 62 bb 09 58
        E 62 bb 09 58
        E 62 bb 09 58
        E 62 bb 09 58
        E 62 bb 09 58
        E 62 bb 09 58
        E 62 bb 09 58
        E 62 bb 09 58
        E 62 bb 09 58
        E 62 bb 09 58
        E 62 bb 09 58
        E 62 bb 09 58
        E 62 bb 09 58
        E 62 bb 09 58
        E 62 bb 09 58
        E 62 bb 09 58
        E 62 bb 09 58
        E 62 bb 09 58
        E 62 bb 09 58
        E 62 bb 09 58
        E 62 bb 09 58
        E 62 bb 09 58
        E 62 bb 09 58
        E 62 bb 09 58
        E 62 bb 09 58
        E 62 bb 09 58
        E 62 bb 09 58
        E 62 bb 09 58
        E 62 bb 09 58
        E 62 bb 09 58
        E 62 bb 09 58
        E 62 bb 09 58
        E 62 bb 09 58
        E 62 bb 09 58
        E 62 bb 09 58
        E 62 bb 09 58
        E 62 bb 09 58
        E 62 bb 09 58
        E 62 bb 09 58
        E 62 bb 09 58
        E 62 bb 09 58
        E 62 bb 09 58
        E 62 bb 09 58
        E 62 bb 09 58
        E 62 bb 09 58
        E 62 bb 09 58
        E 62 bb 09 58
        E 62 bb 09 58
        E 62 bb 09 00
        E 62 bb 09 00
        E 62 bb 09 00
        E 62 bb 09 00
        E 62 bb 09 00
        E 62 bb 09 00
        E 62 bb 09 00
        E 62 bb 09 00
        E 62 bb 09 00
        E 62 bb 09 00
        E 62 bb 09 00
        E 62 bb 09 00
        E 62 bb 09 00
        E 62 bb 09 00
        E 62 bb 09 00
        E 62 bb 09 00
        E 62 bb 09 00
        E 62 bb 09 00
        E 62 bb 09 00
        E 62 bb 09 00
        E 62 bb 09 00
        E 62 bb 09 00
        E 62 bb 09 00
        E 62 bb 09 00
        E 62 bb 09 00
        E 62 bb 09 00
        E 62 bb 09 00
        E 62 bb 09 00
        E 62 bb 09 00
        E 62 bb 09 00
        E 62 bb 09 00
        E 62 bb 09 00
        E 62 bb 09 00
        E 62 bb 09 00
        E 62 bb 09 00
        E 62 bb 09 00
        E 62 bb 09 00
        E 62 bb 09 00
        E 62 bb 09 00
        E 62 bb 09 00
        E 62 bb 09 00
        E 62 bb 09 00
        E 62 bb 09 00
        E 62 bb 09 00
        E 62 bb 09 00
        E 62 bb 09 00
        E 62 bb 09 00
        E 62 bb 09 00
        E 62 bb 09 00
        E 62 bb 09 00
        E 62 bb 09 00
        E 62 bb 09 00
        E 62 bb 09 00
        E 62 bb 09 00
        E 62 bb 09 00
        E 62 bb 09 00
        E 62 bb 09 00
        E 62 bb 09 00
        E 62 bb 09 00
        E 62 bb 09 00
        E 62 bb 09 00
        E 62 bb 09 00
        E 62 bb 09 00
        E 62 bb 09 00
        E 70 bb 09 26
        E 70 bb 09 26
        E 70 bb 09 26
        E 70 bb 09 26
        E 70 bb 09 26
        E 70 bb 09 26
        E 70 bb 09 26
        E 70 bb 09 26
        E 70 bb 09 26
        E 70 bb 09 26
        E 70 bb 09 26
        E 70 bb 09 26
        E 70 bb 09 26
        E 70 bb 09 26
        E 70 bb 09 26
        E 70 bb 09 26
        E 70 bb 09 26
        E 70 bb 09 26
        E 70 bb 09 26
        E 70 bb 09 26
        E 70 bb 09 26
        E 70 bb 09 26
        E 70 bb 09 26
        E 70 bb 09 26
        E 70 bb 09 26
        E 70 bb 09 26
        E 70 bb 09 26
        E 70 bb 09 26
        E 70 bb 09 26
        E 70 bb 09 26
        E 70 bb 09 26
        E 70 bb 09 26
        E 70 bb 09 26
        E 70 bb 09 26
        E 70 bb 09 26
        E 70 bb 09 26
        E 70 bb 09 26
        E 70 bb 09 26
        E 70 bb 09 26
        E 70 bb 09 26
        E 70 bb 09 26
        E 70 bb 09 26
        E 70 bb 09 26
        E 70 bb 09 26
        E 70 bb 09 26
        E 70 bb 09 26
        E 70 bb 09 26
        E 70 bb 09 26
        E 70 bb 09 26
        E 70 bb 09 26
        E 70 bb 09 26
        E 70 bb 09 26
        E 70 bb 09 26
        E 70 bb 09 26
        E 70 bb 09 26
        E 70 bb 09 26
        E 70 bb 09 26
        E 70 bb 09 26
        E 70 bb 09 26
        E 70 bb 09 26
        E 70 bb 09 26
        E 70 bb 09 26
        E 70 bb 09 26
        E 70 bb 09 00
        E 70 bb 09 00
        E 70 bb 09 00
        E 70 bb 09 00
        E 70 bb 09 00
        E 70 bb 09 00
        E 70 bb 09 00
        E 70 bb 09 00
        E 70 bb 09 00
        E 70 bb 09 00
        E 70 bb 09 00
        E 70 bb 09 00
        E 70 bb 09 00
        E 70 bb 09 00
        E 70 bb 09 00
        E 70 bb 09 00
        E 70 bb 09 00
        E 70 bb 09 00
        E 70 bb 09 00
        E 70 bb 09 00
        E 70 bb 09 00
        E 70 bb 09 00
        E 70 bb 09 00
        E 70 bb 09 00
        E 70 bb 09 00
        E 70 bb 09 00
        E 70 bb 09 00
        E 70 bb 09 00
        E 70 bb 09 00
        E 70 bb 09 00
        E 70 bb 09 00
        E 70 bb 09 00
        E 70 bb 09 00
        E 70 bb 09 00
        E 70 bb 09 00
        E 70 bb 09 00
        E 70 bb 09 00
        E 70 bb 09 00
        E 70 bb 09 00
        E 70 bb 09 00
        E 70 bb 09 00
        E 70 bb 09 00
        E 70 bb 09 00
        E 70 bb 09 00
        E 70 bb 09 00
        E 70 bb 09 00
        E 70 bb 09 00
        E 70 bb 09 00
        E 70 bb 09 00
        E 70 bb 09 00
        E 70 bb 09 00
        E 70 bb 09 00
        E 70 bb 09 00
        E 70 bb 09 00
        E 70 bb 09 00
        E 70 bb 09 00
        E 70 bb 09 00
        E 70 bb 09 00
        E 70 bb 09 00
        E 70 bb 09 00
        E 70 bb 09 00
        E 70 bb 09 00
        E 70 bb 09 00
        E 70 bb 09 00
        E 23 bb 09 4c
        E 23 bb 09 4c
        E 23 bb 09 4c
        E 23 bb 09 4c
        E 23 bb 09 4c
        E 23 bb 09 4c
        E 23 bb 09 4c
        E 23 bb 09 4c
        E 23 bb 09 4c
        E 23 bb 09 4c
        E 23 bb 09 4c
        E 23 bb 09 4c
        E 23 bb 09 4c
        E 23 bb 09 4c
        E 23 bb 09 4c
        E 23 bb 09 4c
        E 23 bb 09 4c
        E 23 bb 09 4c
        E 23 bb 09 4c
        E 23 bb 09 4c
        E 23 bb 09 4c
        E 23 bb 09 4c
        E 23 bb 09 4c
        E 23 bb 09 4c
        E 23 bb 09 4c
        E 23 bb 09 4c
        E 23 bb 09 4c
        E 23 bb 09 4c
        E 23 bb 09 4c
        E 23 bb 09 4c
        E 23 bb 09 4c
        E 23 bb 09 4c
        E 23 bb 09 4c
        E 23 bb 09 4c
        E 23 bb 09 4c
        E 23 bb 09 4c
        E 23 bb 09 4c
        E 23 bb 09 4c
        E 23 bb 09 4c
        E 23 bb 09 4c
        E 23 bb 09 4c
        E 23 bb 09 4c
        E 23 bb 09 4c
        E 23 bb 09 4c
        E 23 bb 09 4c
        E 23 bb 09 4c
        E 23 bb 09 4c
        E 23 bb 09 4c
        E 23 bb 09 4c
        E 23 bb 09 4c
        E 23 bb 09 4c
        E 23 bb 09 4c
        E 23 bb 09 4c
        E 23 bb 09 4c
        E 23 bb 09 4c
        E 23 bb 09 4c
        E 23 bb 09 4c
        E 23 bb 09 4c
        E 23 bb 09 4c
        E 23 bb 09 4c
        E 23 bb 09 4c
        E 23 bb 09 4c
        E 23 bb 09 4c
        E 23 bb 09 00
        E 23 bb 09 00
        E 23 bb 09 00
        E 23 bb 09 00
        E 23 bb 09 00
        E 23 bb 09 00
        E 23 bb 09 00
        E 23 bb 09 00
        E 23 bb 09 00
        E 23 bb 09 00
        E 23 bb 09 00
        E 23 bb 09 00
        E 23 bb 09 00
        E 23 bb 09 00
        E 23 bb 09 00
        E 23 bb 09 00
        E 23 bb 09 00
        E 23 bb 09 00
        E 23 bb 09 00
        E 23 bb 09 00
        E 23 bb 09 00
        E 23 bb 09 00
        E 23 bb 09 00
        E 23 bb 09 00
        E 23 bb 09 00
        E 23 bb 09 00
        E 23 bb 09 00
        E 23 bb 09 00
        E 23 bb 09 00
        E 23 bb 09 00
        E 23 bb 09 00
        E 23 bb 09 00
        E 23 bb 09 00
        E 23 bb 09 00
        E 23 bb 09 00
        E 23 bb 09 00
        E 23 bb 09 00
        E 23 bb 09 00
        E 23 bb 09 00
        E 23 bb 09 00
        E 23 bb 09 00
        E 23 bb 09 00
        E 23 bb 09 00
        E 23 bb 09 00
        E 23 bb 09 00
        E 23 bb 09 00
        E 23 bb 09 00
        E 23 bb 09 00
        E 23 bb 09 00
        E 23 bb 09 00
        E 23 bb 09 00
        E 23 bb 09 00
        E 23 bb 09 00
        E 23 bb 09 00
        E 23 bb 09 00
        E 23 bb 09 00
        E 23 bb 09 00
        E 23 bb 09 00
        E 23 bb 09 00
        E 23 bb 09 00
        E 23 bb 09 00
        E 23 bb 09 00
        E 23 bb 09 00
        E 23 bb 09 00
        E 62 bb 09 72
        E 62 bb 09 72
        E 62 bb 09 72
        E 62 bb 09 72
        E 62 bb 09 72
        E 62 bb 09 72
        E 62 bb 09 72
        E 62 bb 09 72
        E 62 bb 09 72
        E 62 bb 09 72
        E 62 bb 09 72
        E 62 bb 09 72
        E 62 bb 09 72
        E 62 bb 09 72
        E 62 bb 09 72
        E 62 bb 09 72
        E 62 bb 09 72
        E 62 bb 09 72
        E 62 bb 09 72
        E 62 bb 09 72
        E 62 bb 09 72
        E 62 bb 09 72
        E 62 bb 09 72
        E 62 bb 09 72
        E 62 bb 09 72
        E 62 bb 09 72
        E 62 bb 09 72
        E 62 bb 09 72
        E 62 bb 09 72
        E 62 bb 09 72
        E 62 bb 09 72
        E 62 bb 09 72
        E 62 bb 09 72
        E 62 bb 09 72
        E 62 bb 09 72
        E 62 bb 09 72
        E 62 bb 09 72
        E 62 bb 09 72
        E 62 bb 09 72
        E 62 bb 09 72
        E 62 bb 09 72
        E 62 bb 09 72
        E 62 bb 09 72
        E 62 bb 09 72
        E 62 bb 09 72
        E 62 bb 09 72
        E 62 bb 09 72
        E 62 bb 09 72
        E 62 bb 09 72
        E 62 bb 09 72
        E 62 bb 09 72
        E 62 bb 09 72
        E 62 bb 09 72
        E 62 bb 09 72
        E 62 bb 09 72
        E 62 bb 09 72
        E 62 bb 09 72
        E 62 bb 09 72
        E 62 bb 09 72
        E 62 bb 09 72
        E 62 bb 09 72
        E 62 bb 09 72
        E 62 bb 09 72
        E 62 bb 09 00
        E 62 bb 09 00
        E 62 bb 09 00
        E 62 bb 09 00
        E 62 bb 09 00
        E 62 bb 09 00
        E 62 bb 09 00
        E 62 bb 09 00
        E 62 bb 09 00
        E 62 bb 09 00
        E 62 bb 09 00
        E 62 bb 09 00
        E 62 bb 09 00
        E 62 bb 09 00
        E 62 bb 09 00
        E 62 bb 09 00
        E 62 bb 09 00
        E 62 bb 09 00
        E 62 bb 09 00
        E 62 bb 09 00
        E 62 bb 09 00
        E 62 bb 09 00
        E 62 bb 09 00
        E 62 bb 09 00
        E 62 bb 09 00
        E 62 bb 09 00
        E 62 bb 09 00
        E 62 bb 09 00
        E 62 bb 09 00
        E 62 bb 09 00
        E 62 bb 09 00
        E 62 bb 09 00
        E 62 bb 09 00
        E 62 bb 09 00
        E 62 bb 09 00
        E 62 bb 09 00
        E 62 bb 09 00
        E 62 bb 09 00
        E 62 bb 09 00
        E 62 bb 09 00
        E 62 bb 09 00
        E 62 bb 09 00
        E 62 bb 09 00
        E 62 bb 09 00
        E 62 bb 09 00
        E 62 bb 09 00
        E 62 bb 09 00
        E 62 bb 09 00
        E 62 bb 09 00
        E 62 bb 09 00
        E 62 bb 09 00
        E 62 bb 09 00
        E 62 bb 09 00
        E 62 bb 09 00
        E 62 bb 09 00
        E 62 bb 09 00
        E 62 bb 09 00
        E 62 bb 09 00
        E 62 bb 09 00
        E 62 bb 09 00
        E 62 bb 09 00
        E 62 bb 09 00
        E 62 bb 09 00
        E 62 bb 09 00
        E 7 bb 09 32
        E 7 bb 09 32
        E 7 bb 09 32
        E 7 bb 09 32
        E 7 bb 09 32
        E 7 bb 09 32
        E 7 bb 09 32
        E 7 bb 09 32
        E 7 bb 09 32
        E 7 bb 09 32
        E 7 bb 09 32
        E 7 bb 09 32
        E 7 bb 09 32
        E 7 bb 09 32
        E 7 bb 09 32
        E 7 bb 09 32
        E 7 bb 09 32
        E 7 bb 09 32
        E 7 bb 09 32
        E 7 bb 09 32
        E 7 bb 09 32
        E 7 bb 09 32
        E 7 bb 09 32
        E 7 bb 09 32
        E 7 bb 09 32
        E 7 bb 09 32
        E 7 bb 09 32
        E 7 bb 09 32
        E 7 bb 09 32
        E 7 bb 09 32
        E 7 bb 09 32
        E 7 bb 09 32
        E 7 bb 09 32
        E 7 bb 09 32
        E 7 bb 09 32
        E 7 bb 09 32
        E 7 bb 09 32
        E 7 bb 09 32
        E 7 bb 09 32
        E 7 bb 09 32
        E 7 bb 09 32
        E 7 bb 09 32
        E 7 bb 09 32
        E 7 bb 09 32
        E 7 bb 09 32
        E 7 bb 09 32
        E 7 bb 09 32
        E 7 bb 09 32
        E 7 bb 09 32
        E 7 bb 09 32
        E 7 bb 09 32
        E 7 bb 09 32
        E 7 bb 09 32
        E 7 bb 09 32
        E 7 bb 09 32
        E 7 bb 09 32
        E 7 bb 09 32
        E 7 bb 09 32
        E 7 bb 09 32
        E 7 bb 09 32
        E 7 bb 09 32
        E 7 bb 09 32
        E 7 bb 09 32
        E 7 bb 09 00
        E 7 bb 09 00
        E 7 bb 09 00
        E 7 bb 09 00
        E 7 bb 09 00
        E 7 bb 09 00
        E 7 bb 09 00
        E 7 bb 09 00
        E 7 bb 09 00
        E 7 bb 09 00
        E 7 bb 09 00
        E 7 bb 09 00
        E 7 bb 09 00
        E 7 bb 09 00
        E 7 bb 09 00
        E 7 bb 09 00
        E 7 bb 09 00
        E 7 bb 09 00
        E 7 bb 09 00
        E 7 bb 09 00
        E 7 bb 09 00
        E 7 bb 09 00
        E 7 bb 09 00
        E 7 bb 09 00
        E 7 bb 09 00
        E 7 bb 09 00
        E 7 bb 09 00
        E 7 bb 09 00
        E 7 bb 09 00
        E 7 bb 09 00
        E 7 bb 09 00
        E 7 bb 09 00
        E 7 bb 09 00
        E 7 bb 09 00
        E 7 bb 09 00
        E 7 bb 09 00
        E 7 bb 09 00
        E 7 bb 09 00
        E 7 bb 09 00
        E 7 bb 09 00
        E 7 bb 09 00
        E 7 bb 09 00
        E 7 bb 09 00
        E 7 bb 09 00
        E 7 bb 09 00
        E 7 bb 09 00
        E 7 bb 09 00
        E 7 bb 09 00
        E 7 bb 09 00
        E 7 bb 09 00
        E 7 bb 09 00
        E 7 bb 09 00
        E 7 bb 09 00
        E 7 bb 09 00
        E 7 bb 09 00
        E 7 bb 09 00
        E 7 bb 09 00
        E 7 bb 09 00
        E 7 bb 09 00
        E 7 bb 09 00
        E 7 bb 09 00
        E 7 bb 09 00
        E 7 bb 09 00
        E 7 bb 09 00
        E 70 bb 09 0c
        E 70 bb 09 0c
        E 70 bb 09 0c
        E 70 bb 09 0c
        E 70 bb 09 0c
        E 70 bb 09 0c
        E 70 bb 09 0c
        E 70 bb 09 0c
        E 70 bb 09 0c
        E 70 bb 09 0c
        E 70 bb 09 0c
        E 70 bb 09 0c
        E 70 bb 09 0c
        E 70 bb 09 0c
        E 70 bb 09 0c
        E 70 bb 09 0c
        E 70 bb 09 0c
        E 70 bb 09 0c
        E 70 bb 09 0c
        E 70 bb 09 0c
        E 70 bb 09 0c
        E 70 bb 09 0c
        E 70 bb 09 0c
        E 70 bb 09 0c
        E 70 bb 09 0c
        E 70 bb 09 0c
        E 70 bb 09 0c
        E 70 bb 09 0c
        E 70 bb 09 0c
        E 70 bb 09 0c
        E 70 bb 09 0c
        E 70 bb 09 0c
        E 70 bb 09 0c
        E 70 bb 09 0c
        E 70 bb 09 0c
        E 70 bb 09 0c
        E 70 bb 09 0c
        E 70 bb 09 0c
        E 70 bb 09 0c
        E 70 bb 09 0c
        E 70 bb 09 0c
        E 70 bb 09 0c
        E 70 bb 09 0c
        E 70 bb 09 0c
        E 70 bb 09 0c
        E 70 bb 09 0c
        E 70 bb 09 0c
        E 70 bb 09 0c
        E 70 bb 09 0c
        E 70 bb 09 0c
        E 70 bb 09 0c
        E 70 bb 09 0c
        E 70 bb 09 0c
        E 70 bb 09 0c
        E 70 bb 09 0c
        E 70 bb 09 0c
        E 70 bb 09 0c
        E 70 bb 09 0c
        E 70 bb 09 0c
        E 70 bb 09 0c
        E 70 bb 09 0c
        E 70 bb 09 0c
        E 70 bb 09 0c
        E 70 bb 09 00
        E 70 bb 09 00
        E 70 bb 09 00
        E 70 bb 09 00
        E 70 bb 09 00
        E 70 bb 09 00
        E 70 bb 09 00
        E 70 bb 09 00
        E 70 bb 09 00
        E 70 bb 09 00
        E 70 bb 09 00
        E 70 bb 09 00
        E 70 bb 09 00
        E 70 bb 09 00
        E 70 bb 09 00
        E 70 bb 09 00
        E 70 bb 09 00
        E 70 bb 09 00
        E 70 bb 09 00
        E 70 bb 09 00
        E 70 bb 09 00
        E 70 bb 09 00
        E 70 bb 09 00
        E 70 bb 09 00
        E 70 bb 09 00
        E 70 bb 09 00
        E 70 bb 09 00
        E 70 bb 09 00
        E 70 bb 09 00
        E 70 bb 09 00
        E 70 bb 09 00
        E 70 bb 09 00
        E 70 bb 09 00
        E 70 bb 09 00
        E 70 bb 09 00
        E 70 bb 09 00
        E 70 bb 09 00
        E 70 bb 09 00
        E 70 bb 09 00
        E 70 bb 09 00
        E 70 bb 09 00
        E 70 bb 09 00
        E 70 bb 09 00
        E 70 bb 09 00
        E 70 bb 09 00
        E 70 bb 09 00
        E 70 bb 09 00
        E 70 bb 09 00
        E 70 bb 09 00
        E 70 bb 09 00
        E 70 bb 09 00
        E 70 bb 09 00
        E 70 bb 09 00
        E 70 bb 09 00
        E 70 bb 09 00
        E 70 bb 09 00
        E 70 bb 09 00
        E 70 bb 09 00
        E 70 bb 09 00
        E 70 bb 09 00
        E 70 bb 09 00
        E 70 bb 09 00
        E 70 bb 09 00
        E 70 bb 09 00
        E 62 bb 09 58
        E 62 bb 09 58
        E 62 bb 09 58
        E 62 bb 09 58
        E 62 bb 09 58
        E 62 bb 09 58
        E 62 bb 09 58
        E 62 bb 09 58
        E 62 bb 09 58
        E 62 bb 09 58
        E 62 bb 09 58
        E 62 bb 09 58
        E 62 bb 09 58
        E 62 bb 09 58
        E 62 bb 09 58
        E 62 bb 09 58
        E 62 bb 09 58
        E 62 bb 09 58
        E 62 bb 09 58
        E 62 bb 09 58
        E 62 bb 09 58
        E 62 bb 09 58
        E 62 bb 09 58
        E 62 bb 09 58
        E 62 bb 09 58
        E 62 bb 09 58
        E 62 bb 09 58
        E 62 bb 09 58
        E 62 bb 09 58
        E 62 bb 09 58
        E 62 bb 09 58
        E 62 bb 09 58
        E 62 bb 09 58
        E 62 bb 09 58
        E 62 bb 09 58
        E 62 bb 09 58
        E 62 bb 09 58
        E 62 bb 09 58
        E 62 bb 09 58
        E 62 bb 09 58
        E 62 bb 09 58
        E 62 bb 09 58
        E 62 bb 09 58
        E 62 bb 09 58
        E 62 bb 09 58
        E 62 bb 09 58
        E 62 bb 09 58
        E 62 bb 09 58
        E 62 bb 09 58
        E 62 bb 09 58
        E 62 bb 09 58
        E 62 bb 09 58
        E 62 bb 09 58
        E 62 bb 09 58
        E 62 bb 09 58
        E 62 bb 09 58
        E 62 bb 09 58
        E 62 bb 09 58
        E 62 bb 09 58
        E 62 bb 09 58
        E 62 bb 09 58
        E 62 bb 09 58
        E 62 bb 09 58
        E 62 bb 09 00
        E 62 bb 09 00
        E 62 bb 09 00
        E 62 bb 09 00
        E 62 bb 09 00
        E 62 bb 09 00
        E 62 bb 09 00
        E 62 bb 09 00
        E 62 bb 09 00
        E 62 bb 09 00
        E 62 bb 09 00
        E 62 bb 09 00
        E 62 bb 09 00
        E 62 bb 09 00
        E 62 bb 09 00
        E 62 bb 09 00
        E 62 bb 09 00
        E 62 bb 09 00
        E 62 bb 09 00
        E 62 bb 09 00
        E 62 bb 09 00
        E 62 bb 09 00
        E 62 bb 09 00
        E 62 bb 09 00
        E 62 bb 09 00
        E 62 bb 09 00
        E 62 bb 09 00
        E 62 bb 09 00
        E 62 bb 09 00
        E 62 bb 09 00
        E 62 bb 09 00
        E 62 bb 09 00
        E 62 bb 09 00
        E 62 bb 09 00
        E 62 bb 09 00
        E 62 bb 09 00
        E 62 bb 09 00
        E 62 bb 09 00
        E 62 bb 09 00
        E 62 bb 09 00
        E 62 bb 09 00
        E 62 bb 09 00
        E 62 bb 09 00
        E 62 bb 09 00
        E 62 bb 09 00
        E 62 bb 09 00
        E 62 bb 09 00
        E 62 bb 09 00
        E 62 bb 09 00
        E 62 bb 09 00
        E 62 bb 09 00
        E 62 bb 09 00
        E 62 bb 09 00
        E 62 bb 09 00
        E 62 bb 09 00
        E 62 bb 09 00
        E 62 bb 09 00
        E 62 bb 09 00
        E 62 bb 09 00
        E 62 bb 09 00
        E 62 bb 09 00
        E 62 bb 09 00
        E 62 bb 09 00
        E 62 bb 09 00
        E 70 bb 09 26
        E 70 bb 09 26
        E 70 bb 09 26
        E 70 bb 09 26
        E 70 bb 09 26
        E 70 bb 09 26
        E 70 bb 09 26
        E 70 bb 09 26
        E 70 bb 09 26
        E 70 bb 09 26
        E 70 bb 09 26
        E 70 bb 09 26
        E 70 bb 09 26
        E 70 bb 09 26
        E 70 bb 09 26
        E 70 bb 09 26
        E 70 bb 09 26
        E 70 bb 09 26
        E 70 bb 09 26
        E 70 bb 09 26
        E 70 bb 09 26
        E 70 bb 09 26
        E 70 bb 09 26
        E 70 bb 09 26
        E 70 bb 09 26
        E 70 bb 09 26
        E 70 bb 09 26
        E 70 bb 09 26
        E 70 bb 09 26
        E 70 bb 09 26
        E 70 bb 09 26
        E 70 bb 09 26
        E 70 bb 09 26
        E 70 bb 09 26
        E 70 bb 09 26
        E 70 bb 09 26
        E 70 bb 09 26
        E 70 bb 09 26
        E 70 bb 09 26
        E 70 bb 09 26
        E 70 bb 09 26
        E 70 bb 09 26
        E 70 bb 09 26
        E 70 bb 09 26
        E 70 bb 09 26
        E 70 bb 09 26
        E 70 bb 09 26
        E 70 bb 09 26
        E 70 bb 09 26
        E 70 bb 09 26
        E 70 bb 09 26
        E 70 bb 09 26
        E 70 bb 09 26
        E 70 bb 09 26
        E 70 bb 09 26
        E 70 bb 09 26
        E 70 bb 09 26
        E 70 bb 09 26
        E 70 bb 09 26
        E 70 bb 09 26
        E 70 bb 09 26
        E 70 bb 09 26
        E 70 bb 09 26
        E 70 bb 09 00
        E 70 bb 09 00
        E 70 bb 09 00
        E 70 bb 09 00
        E 70 bb 09 00
        E 70 bb 09 00
        E 70 bb 09 00
        E 70 bb 09 00
        E 70 bb 09 00
        E 70 bb 09 00
        E 70 bb 09 00
        E 70 bb 09 00
        E 70 bb 09 00
        E 70 bb 09 00
        E 70 bb 09 00
        E 70 bb 09 00
        E 70 bb 09 00
        E 70 bb 09 00
        E 70 bb 09 00
        E 70 bb 09 00
        E 70 bb 09 00
        E 70 bb 09 00
        E 70 bb 09 00
        E 70 bb 09 00
        E 70 bb 09 00
        E 70 bb 09 00
        E 70 bb 09 00
        E 70 bb 09 00
        E 70 bb 09 00
        E 70 bb 09 00
        E 70 bb 09 00
        E 70 bb 09 00
        E 70 bb 09 00
        E 70 bb 09 00
        E 70 bb 09 00
        E 70 bb 09 00
        E 70 bb 09 00
        E 70 bb 09 00
        E 70 bb 09 00
        E 70 bb 09 00
        E 70 bb 09 00
        E 70 bb 09 00
        E 70 bb 09 00
        E 70 bb 09 00
        E 70 bb 09 00
        E 70 bb 09 00
        E 70 bb 09 00
        E 70 bb 09 00
        E 70 bb 09 00
        E 70 bb 09 00
        E 70 bb 09 00
        E 70 bb 09 00
        E 70 bb 09 00
        E 70 bb 09 00
        E 70 bb 09 00
        E 70 bb 09 00
        E 70 bb 09 00
        E 70 bb 09 00
        E 70 bb 09 00
        E 70 bb 09 00
        E 70 bb 09 00
        E 70 bb 09 00
        E 70 bb 09 00
        E 70 bb 09 00
        E 23 bb 09 4c
        E 23 bb 09 4c
        E 23 bb 09 4c
        E 23 bb 09 4c
        E 23 bb 09 4c
        E 23 bb 09 4c
        E 23 bb 09 4c
        E 23 bb 09 4c
        E 23 bb 09 4c
        E 23 bb 09 4c
        E 23 bb 09 4c
        E 23 bb 09 4c
        E 23 bb 09 4c
        E 23 bb 09 4c
        E 23 bb 09 4c
        E 23 bb 09 4c
        E 23 bb 09 4c
        E 23 bb 09 4c
        E 23 bb 09 4c
        E 23 bb 09 4c
        E 23 bb 09 4c
        E 23 bb 09 4c
        E 23 bb 09 4c
        E 23 bb 09 4c
        E 23 bb 09 4c
        E 23 bb 09 4c
        E 23 bb 09 4c
        E 23 bb 09 4c
        E 23 bb 09 4c
        E 23 bb 09 4c
        E 23 bb 09 4c
        E 23 bb 09 4c
        E 23 bb 09 4c
        E 23 bb 09 4c
        E 23 bb 09 4c
        E 23 bb 09 4c
        E 23 bb 09 4c
        E 23 bb 09 4c
        E 23 bb 09 4c
        E 23 bb 09 4c
        E 23 bb 09 4c
        E 23 bb 09 4c
        E 23 bb 09 4c
        E 23 bb 09 4c
        E 23 bb 09 4c
        E 23 bb 09 4c
        E 23 bb 09 4c
        E 23 bb 09 4c
        E 23 bb 09 4c
        E 23 bb 09 4c
        E 23 bb 09 4c
        E 23 bb 09 4c
        E 23 bb 09 4c
        E 23 bb 09 4c
        E 23 bb 09 4c
        E 23 bb 09 4c
        E 23 bb 09 4c
        E 23 bb 09 4c
        E 23 bb 09 4c
        E 23 bb 09 4c
        E 23 bb 09 4c
        E 23 bb 09 4c
        E 23 bb 09 4c
        E 23 bb 09 00
        E 23 bb 09 00
        E 23 bb 09 00
        E 23 bb 09 00
        E 23 bb 09 00
        E 23 bb 09 00
        E 23 bb 09 00
        E 23 bb 09 00
        E 23 bb 09 00
        E 23 bb 09 00
        E 23 bb 09 00
        E 23 bb 09 00
        E 23 bb 09 00
        E 23 bb 09 00
        E 23 bb 09 00
        E 23 bb 09 00
        E 23 bb 09 00
        E 23 bb 09 00
        E 23 bb 09 00
        E 23 bb 09 00
        E 23 bb 09 00
        E 23 bb 09 00
        E 23 bb 09 00
        E 23 bb 09 00
        E 23 bb 09 00
        E 23 bb 09 00
        E 23 bb 09 00
        E 23 bb 09 00
        E 23 bb 09 00
        E 23 bb 09 00
        E 23 bb 09 00
        E 23 bb 09 00
        E 23 bb 09 00
        E 23 bb 09 00
        E 23 bb 09 00
        E 23 bb 09 00
        E 23 bb 09 00
        E 23 bb 09 00
        E 23 bb 09 00
        E 23 bb 09 00
        E 23 bb 09 00
        E 23 bb 09 00
        E 23 bb 09 00
        E 23 bb 09 00
        E 23 bb 09 00
        E 23 bb 09 00
        E 23 bb 09 00
        E 23 bb 09 00
        E 23 bb 09 00
        E 23 bb 09 00
        E 23 bb 09 00
        E 23 bb 09 00
        E 23 bb 09 00
        E 23 bb 09 00
        E 23 bb 09 00
        E 23 bb 09 00
        E 23 bb 09 00
        E 23 bb 09 00
        E 23 bb 09 00
        E 23 bb 09 00
        E 23 bb 09 00
        E 23 bb 09 00
        E 23 bb 09 00
        E 23 bb 09 00
        E 62 bb 09 72
        E 62 bb 09 72
        E 62 bb 09 72
        E 62 bb 09 72
        E 62 bb 09 72
        E 62 bb 09 72
        E 62 bb 09 72
        E 62 bb 09 72
        E 62 bb 09 72
        E 62 bb 09 72
        E 62 bb 09 72
        E 62 bb 09 72
        E 62 bb 09 72
        E 62 bb 09 72
        E 62 bb 09 72
        E 62 bb 09 72
        E 62 bb 09 72
        E 62 bb 09 72
        E 62 bb 09 72
        E 62 bb 09 72
        E 62 bb 09 72
        E 62 bb 09 72
        E 62 bb 09 72
        E 62 bb 09 72
        E 62 bb 09 72
        E 62 bb 09 72
        E 62 bb 09 72
        E 62 bb 09 72
        E 62 bb 09 72
        E 62 bb 09 72
        E 62 bb 09 72
        E 62 bb 09 72
        E 62 bb 09 72
        E 62 bb 09 72
        E 62 bb 09 72
        E 62 bb 09 72
        E 62 bb 09 72
        E 62 bb 09 72
        E 62 bb 09 72
        E 62 bb 09 72
        E 62 bb 09 72
        E 62 bb 09 72
        E 62 bb 09 72
        E 62 bb 09 72
        E 62 bb 09 72
        E 62 bb 09 72
        E 62 bb 09 72
        E 62 bb 09 72
        E 62 bb 09 72
        E 62 bb 09 72
        E 62 bb 09 72
        E 62 bb 09 72
        E 62 bb 09 72
        E 62 bb 09 72
        E 62 bb 09 72
        E 62 bb 09 72
        E 62 bb 09 72
        E 62 bb 09 72
        E 62 bb 09 72
        E 62 bb 09 72
        E 62 bb 09 72
        E 62 bb 09 72
        E 62 bb 09 72
        E 62 bb 09 00
        E 62 bb 09 00
        E 62 bb 09 00
        E 62 bb 09 00
        E 62 bb 09 00
        E 62 bb 09 00
        E 62 bb 09 00
        E 62 bb 09 00
        E 62 bb 09 00
        E 62 bb 09 00
        E 62 bb 09 00
        E 62 bb 09 00
        E 62 bb 09 00
        E 62 bb 09 00
        E 62 bb 09 00
        E 62 bb 09 00
        E 62 bb 09 00
        E 62 bb 09 00
        E 62 bb 09 00
        E 62 bb 09 00
        E 62 bb 09 00
        E 62 bb 09 00
        E 62 bb 09 00
        E 62 bb 09 00
        E 62 bb 09 00
        E 62 bb 09 00
        E 62 bb 09 00
        E 62 bb 09 00
        E 62 bb 09 00
        E 62 bb 09 00
        E 62 bb 09 00
        E 62 bb 09 00
        E 62 bb 09 00
        E 62 bb 09 00
        E 62 bb 09 00
        E 62 bb 09 00
        E 62 bb 09 00
        E 62 bb 09 00
        E 62 bb 09 00
        E 62 bb 09 00
        E 62 bb 09 00
        E 62 bb 09 00
        E 62 bb 09 00
        E 62 bb 09 00
        E 62 bb 09 00
        E 62 bb 09 00
        E 62 bb 09 00
        E 62 bb 09 00
        E 62 bb 09 00
        E 62 bb 09 00
        E 62 bb 09 00
        E 62 bb 09 00
        E 62 bb 09 00
        E 62 bb 09 00
        E 62 bb 09 00
        E 62 bb 09 00
        E 62 bb 09 00
        E 62 bb 09 00
        E 62 bb 09 00
        E 62 bb 09 00
        E 62 bb 09 00
        E 62 bb 09 00
        E 62 bb 09 00
        E 62 bb 09 00
        E 7 bb 09 32
        E 7 bb 09 32
        E 7 bb 09 32
        E 7 bb 09 32
        E 7 bb 09 32
        E 7 bb 09 32
        E 7 bb 09 32
        E 7 bb 09 32
        E 7 bb 09 32
        E 7 bb 09 32
        E 7 bb 09 32
        E 7 bb 09 32
        E 7 bb 09 32
        E 7 bb 09 32
        E 7 bb 09 32
        E 7 bb 09 32
        E 7 bb 09 32
        E 7 bb 09 32
        E 7 bb 09 32
        E 7 bb 09 32
        E 7 bb 09 32
        E 7 bb 09 32
        E 7 bb 09 32
        E 7 bb 09 32
        E 7 bb 09 32
        E 7 bb 09 32
        E 7 bb 09 32
        E 7 bb 09 32
        E 7 bb 09 32
        E 7 bb 09 32
        E 7 bb 09 32
        E 7 bb 09 32
        E 7 bb 09 32
        E 7 bb 09 32
        E 7 bb 09 32
        E 7 bb 09 32
        E 7 bb 09 32
        E 7 bb 09 32
        E 7 bb 09 32
        E 7 bb 09 32
        E 7 bb 09 32
        E 7 bb 09 32
        E 7 bb 09 32
        E 7 bb 09 32
        E 7 bb 09 32
        E 7 bb 09 32
        E 7 bb 09 32
        E 7 bb 09 32
        E 7 bb 09 32
        E 7 bb 09 32
        E 7 bb 09 32
        E 7 bb 09 32
        E 7 bb 09 32
        E 7 bb 09 32
        E 7 bb 09 32
        E 7 bb 09 32
        E 7 bb 09 32
        E 7 bb 09 32
        E 7 bb 09 32
        E 7 bb 09 32
        E 7 bb 09 32
        E 7 bb 09 32
        E 7 bb 09 32
        E 7 bb 09 00
        E 7 bb 09 00
        E 7 bb 09 00
        E 7 bb 09 00
        E 7 bb 09 00
        E 7 bb 09 00
        E 7 bb 09 00
        E 7 bb 09 00
        E 7 bb 09 00
        E 7 bb 09 00
        E 7 bb 09 00
        E 7 bb 09 00
        E 7 bb 09 00
        E 7 bb 09 00
        E 7 bb 09 00
        E 7 bb 09 00
        E 7 bb 09 00
        E 7 bb 09 00
        E 7 bb 09 00
        E 7 bb 09 00
        E 7 bb 09 00
        E 7 bb 09 00
        E 7 bb 09 00
        E 7 bb 09 00
        E 7 bb 09 00
        E 7 bb 09 00
        E 7 bb 09 00
        E 7 bb 09 00
        E 7 bb 09 00
        E 7 bb 09 00
        E 7 bb 09 00
        E 7 bb 09 00
        E 7 bb 09 00
        E 7 bb 09 00
        E 7 bb 09 00
        E 7 bb 09 00
        E 7 bb 09 00
        E 7 bb 09 00
        E 7 bb 09 00
        E 7 bb 09 00
        E 7 bb 09 00
        E 7 bb 09 00
        E 7 bb 09 00
        E 7 bb 09 00
        E 7 bb 09 00
        E 7 bb 09 00
        E 7 bb 09 00
        E 7 bb 09 00
        E 7 bb 09 00
        E 7 bb 09 00
        E 7 bb 09 00
        E 7 bb 09 00
        E 7 bb 09 00
        E 7 bb 09 00
        E 7 bb 09 00
        E 7 bb 09 00
        E 7 bb 09 00
        E 7 bb 09 00
        E 7 bb 09 00
        E 7 bb 09 00
        E 7 bb 09 00
        E 7 bb 09 00
        E 7 bb 09 00
        E 7 bb 09 00
        E 17 b0 7b 00
        CCINTERP 32
        CHASE_CC_TAKEOFFS 1
        GUID {1ADFE7CC-F2AE-A047-8770-426E81745C50}
        IGNTEMPO 0 120 4 4
        SRCCOLOR 80
        VELLANE 3 601 0
        VELLANE -1 196 0
      >
    >
  >
  <EXTENSIONS
  >
>
