<REAPER_PROJECT 0.1 "6.14/OSX64" 1606766422
  RIPPLE 0
  GROUPOVERRIDE 0 0 0
  AUTOXFADE 1
  ENVATTACH 1
  POOLEDENVATTACH 0
  MIXERUIFLAGS 11 48
  PEAKGAIN 1
  FEEDBACK 0
  PANLAW 1
  PROJOFFS 0 0 0
  MAXPROJLEN 0 600
  GRID 3199 8 1 8 1 0 0 0
  TIMEMODE 1 5 -1 30 0 0 -1
  VIDEO_CONFIG 0 0 256
  PANMODE 3
  CURSOR 0
  ZOOM 2.66853396466101 0 0
  VZOOMEX 4 0
  USE_REC_CFG 0
  RECMODE 1
  SMPTESYNC 0 30 100 40 1000 300 0 0 1 0 0
  LOOP 0
  LOOPGRAN 0 4
  RECORD_PATH "Audio Files" ""
  <RECORD_CFG
    ZXZhdxgAAA==
  >
  <APPLYFX_CFG
  >
  RENDER_FILE ""
  RENDER_PATTERN ""
  RENDER_FMT 0 2 0
  RENDER_1X 0
  RENDER_RANGE 1 0 0 18 1000
  RENDER_RESAMPLE 3 0 1
  RENDER_ADDTOPROJ 0
  RENDER_STEMS 0
  RENDER_DITHER 0
  TIMELOCKMODE 0
  TEMPOENVLOCKMODE 1
  ITEMMIX 0
  DEFPITCHMODE 589824 0
  TAKELANE 1
  SAMPLERATE 44100 0 0
  <RENDER_CFG
  >
  LOCK 1
  <METRONOME 6 2
    VOL 0.25 0.125
    FREQ 800 1600 1
    BEATLEN 4
    SAMPLES "" ""
    PATTERN 2863311530 2863311529
  >
  GLOBAL_AUTO -1
  TEMPO 120 4 4
  PLAYRATE 1 0 0.25 4
  SELECTION 0 0
  SELECTION2 0 0
  MASTERAUTOMODE 0
  MASTERTRACKHEIGHT 0 0
  MASTERPEAKCOL 16576
  MASTERMUTESOLO 0
  MASTERTRACKVIEW 0 0.6667 0.5 0.5 0 -1 0 0 0 0 -1 -1 0
  MASTERHWOUT 0 0 1 0 0 0 0 -1
  MASTER_NCH 2 2
  MASTER_VOLUME 1 0 -1 -1 1
  MASTER_FX 1
  MASTER_SEL 0
  <MASTERFXLIST
    SHOW 0
    LASTSEL 0
    DOCKED 0
    BYPASS 0 0 0
    <VST "VST: ReaEQ (Cockos)" reaeq.vst.dylib 0 "" 1919247729<56535472656571726561657100000000> ""
      cWVlcu5e7f4CAAAAAQAAAAAAAAACAAAAAAAAAAIAAAABAAAAAAAAAAIAAAAAAAAAqAAAAAEAAAAAABAA
      IQAAAAQAAAAAAAAAAQAAAAAAAAAAAFlAAAAAAAAA8D8AAAAAAAAAQAEIAAAAAQAAAAAAAAAAwHJAAAAAAAAA8D8AAAAAAAAAQAEIAAAAAQAAAAAAAAAAQI9AAAAAAAAA
      8D8AAAAAAAAAQAEBAAAAAQAAAAAAAAAAiLNAAAAAAAAA8D8AAAAAAAAAQAEBAAAAAQAAAAAAAAAAAPA/AAAAAFQCAABwAQAA
      AAAQAAAA
    >
    FLOATPOS 32 641 596 422
    FXID {794FA26E-3C43-734C-B601-AFEB7BC33772}
    WAK 0 0
    BYPASS 0 0 0
    <AU "AU: SPAN (Voxengo)" "Voxengo: SPAN" "" 1635083896 880176950 1450733159
      6QMAAAAAAAACAAAAAQAAAAAAAAACAAAAAAAAAAIAAAABAAAAAAAAAAIAAAAAAAAA8AcAADw/eG1sIHZlcnNpb249IjEuMCIgZW5jb2Rpbmc9IlVURi04Ij8+CjwhRE9D
      VFlQRSBwbGlzdCBQVUJMSUMgIi0vL0FwcGxlLy9EVEQgUExJU1QgMS4wLy9FTiIgImh0dHA6Ly93d3cuYXBwbGUuY29tL0RURHMvUHJvcGVydHlMaXN0LTEuMC5kdGQi
      Pgo8cGxpc3QgdmVyc2lvbj0iMS4wIj4KPGRpY3Q+Cgk8a2V5PlZveFBsdWdpblN0YXRlPC9rZXk+Cgk8ZGF0YT4KCVlYQnljd2NaQUFBaEFHc0FlSnpGV010dTFEQVVU
      VXNmdzZOMHFBb0NTaDhVSko0cExTMmx3R0tDaEhoSVVCQjhRVHJqCgltYkZJNGhCbldsbzJJTEZBckZqQkFnSGk4UVA4QWF6WUl2RURmRUkvZ2V0SkhKdzRjUk9rbEVo
      VzdyWFBmZmxlMjNIMgoJYUpxMnNFb1dMMTlEVGJOaitjZUJINEsyc3U2YWxPcklNVmNzZEFVNnhxQ1puUVltTXpacDNER3hNeE9EOU1Bd2ExcjQKCTVqUjdLdEJhSHVt
      NEZGbUxRQitRVlBGUmxSYm1GWGFvYnpwMXBEdW1qVzZtZWhXRDlBaDYwdG9VSi9ZejVVUjNUYyswCglhZUJPVndIOUFRUEhaQ05wMEtUeVNvS2Y2eFdZOHpzRVpyNVBZ
      QmI2QmViQ2dNQXNEZ3JNUlZIOUVtZVlDYWFaS1dSNgoJbVBoZzZNdUlIQ04yV28vWk5Hd1ZJT0NTcWFsb1djOW1MZjdXalBpN0VyMFB4enpDamw1dm00NkRyR0ErMThE
      TVNZVm4KCVNYeHkvcXNKL3JZNC8vZjUvTFAzcmVVb0F3RWI1U0Jnb3l3RWJKU0hnSTB5RWJCTE8yUHNwVjBoMjlkbDUyWjN4L201CglQWEgrL0ZDY245OGI1eGVHNC95
      RmFweGY1THlxRkppTHpDL21DN1BQYkRJN3crRzBqU1lUQTBYZ1F4RnNRUCswT2lVaAoJTXJ0Y3BMTEkvY1FMMktaQVlZOXVWY0FjbDcrQTh6L3hiUU1pNStFLzBkVGJo
      Z0F0WTZiR1luN1JObG5UVGN2aXk0WGUKCWd1RlRDdThrQWRXK3pPckZCbmw5RFRzTmtLTjRBMTJIdmduSlFCS1YxTnJMVmI1NkdVUTgrOHc0eExTVHhvTjdWNWRuCgky
      cmlCZEJ2NXlLTTZiUEkrdlFHREoyUXpXWEJWRlBzRk81Q1hycGp1cjd2b1RXb21VNkdpemtwQ2Z4bTBPRGZVUlhVZAoJMnk3eGZMMU9MT0s5N1ZITmpRUlArdDZ2Slo5
      a05mSnR2R3IwUzVnOFdENldCMXNwZ0swV3dJNFd3QjRzZ0QyeUpaYXQKCTBGZ3lPazREZVphNXJuY1AzSGRhMmdwVkNHeDM3VTBsL1BlOWpzMjNEOVBDTFdlMnNiSU1t
      QmxsRUdsU3FsVjZWR1hWCgk4VEhvTU9sZEFKM0xiNWFMcWV4T3F1eXV0bnhzbzQ4QTBmTmJEWVFVV1RQS29LY1ZjYXhZcFA2d3V5OS9BZFJzN2xEKwoJeW1WSE0ycVVR
      YXV5MHNDVVhVdUtaU1VVMnU2MWRFUVJSeE5iMW5zWVA1MDdDQ2FSSGNGbXJReGF0UzZiSG5xa3QzR3IKCS9Wa3JzaTRqc2N4WVh2d3l5cUNudG9yRkltdWZ0Q0k3RzVm
      S3pzcUNVUWF0eWdyMEIxZmt5WjRpV1luRWVDejhpMVc4CglqYkpiUnZnN29WZnUyaUYzOWNsZC9YTFhnTncxS0hkVjVDN1JWKzRROTRLYjV2WkVJenkyQ2NVOGttYVRJ
      djgySU03bQoJbnNSQTVsL1BHN0xLam4yMzJNNFdDbVZYNE85YUdiVHF2UEZNcDRXNks3elllZk5YTGkyYW44OWY2N1h4YjdVeWFOVjYKCUNyeUNSVjVzbDR2RTBtSVoy
      ZjM5cS9GMHFsWUdyWXFGb25yd1U2OVlMSkhZZHArZnF0VUNUckdyV2JIVkVncGx4MUV4Cgl5cURIVlhGWXhFVWZBSEFtZnhSTUpEdUdFYU1NV2xsWE5pRitHenV0Z25Y
      RnhiYTdybFRmWmF3K2luMlgvWTgvQktxVAoJSy9nUlUremtDbVJVSjljK3dTSklJdDFGNWtOMkM1N01OQkxCc3ZWdTF0aWZTdGREY0c1MlB6K1kyNGNralFKQVBQT1QK
      CUxlWFQ0QStBOFVTSQoJPC9kYXRhPgoJPGtleT5kYXRhPC9rZXk+Cgk8ZGF0YT4KCUFBQUFBQUFBQUFBQUFBQUNBQUFBQUFBQUFBQUFBQUFCQUFBQUFBPT0KCTwvZGF0
      YT4KCTxrZXk+bWFudWZhY3R1cmVyPC9rZXk+Cgk8aW50ZWdlcj4xNDUwNzMzMTU5PC9pbnRlZ2VyPgoJPGtleT5uYW1lPC9rZXk+Cgk8c3RyaW5nPlVudGl0bGVkPC9z
      dHJpbmc+Cgk8a2V5PnN1YnR5cGU8L2tleT4KCTxpbnRlZ2VyPjg4MDE3Njk1MDwvaW50ZWdlcj4KCTxrZXk+dHlwZTwva2V5PgoJPGludGVnZXI+MTYzNTA4Mzg5Njwv
      aW50ZWdlcj4KCTxrZXk+dmVyc2lvbjwva2V5PgoJPGludGVnZXI+MDwvaW50ZWdlcj4KPC9kaWN0Pgo8L3BsaXN0PgoBAAAAAAAAAAAA
    >
    FLOATPOS 64 426 850 605
    FXID {4AAE102F-8B06-9749-80F5-3DD0E7ED5C11}
    WAK 0 0
  >
  <MASTERPLAYSPEEDENV
    EGUID {B5607DCC-1AD0-1248-9A2F-AB9C27EFFF05}
    ACT 0 -1
    VIS 0 1 1
    LANEHEIGHT 0 0
    ARM 0
    DEFSHAPE 0 -1 -1
  >
  <TEMPOENVEX
    EGUID {05919879-AF6E-A145-9033-2F0CC9114640}
    ACT 1 -1
    VIS 1 0 1
    LANEHEIGHT 0 0
    ARM 0
    DEFSHAPE 1 -1 -1
    PT 0.000000000000 72.0000288000 1 262148 0 1
  >
  <PROJBAY
  >
  <TRACK {6F1854DA-78A1-CB4B-8645-881B1054F25E}
    NAME "xbox 360 portal 2 video game disc"
    PEAKCOL 16576
    BEAT -1
    AUTOMODE 0
    VOLPAN 1 0 -1 -1 1
    MUTESOLO 0 0 0
    IPHASE 0
    PLAYOFFS 0 1
    ISBUS 0 0
    BUSCOMP 0 0 0 0 0
    SHOWINMIX 1 0.6667 0.5 1 0.5 0 -1 0
    FREEMODE 0
    SEL 0
    REC 0 0 1 0 0 0 0
    VU 2
    TRACKHEIGHT 0 0 0 0 -1 0
    INQ 0 0 0 0.5 100 0 0 100
    NCHAN 2
    FX 1
    TRACKID {6F1854DA-78A1-CB4B-8645-881B1054F25E}
    PERF 0
    MIDIOUT -1
    MAINSEND 1 0
    <FXCHAIN
      SHOW 0
      LASTSEL 0
      DOCKED 0
      BYPASS 0 0 0
      <VST "VSTi: FM8 (Native Instruments GmbH)" FM8.vst 0 "" 1315530296<5653544E696638666D38000000000000> ""
        OGZpTu5e7f4AAAAAAgAAAAEAAAAAAAAAAgAAAAAAAAAYBwAAAQAAAAAAEAA=
        GAcAAAAAAAABAAAAaHNpbgEAAAAAAAAAN455D8DDx0mHoN4j0l/0WZYAAAAAAAAARFNJTnYAAAABAAAASAAAAAAAAABEU0lOagAAAAEAAAAYAAAAAAAAAERTSU4BAAAA
        AQAAAAEAAAABAAAAAQAAAAEAAAAAAAAAAAAAAAAAAAANYmWFAQAAAAhwEAAAAAAAAQAAAAEAAAAAAAAAAAAAAAAAAAADAAAAMAAwADAAAAAAAAAAAAAAAAAAAAAAAAEA
        AAABAAAAAAAAAERTSU5lAAAARgYAAAAAAAABAAAAaHNpbgEAAAAAAAAAMOH4NwAUwEaoogAOyNUgkW0AAAAAAAAARFNJTmUAAAABAAAANAAAAAAAAABEU0lOagAAAAEA
        AAAYAAAAAAAAAERTSU4BAAAAAQAAAAEAAAABAAAAAgAAAAEAAAAACAAAAAEAAAAKAAAAMQAuADIALgAwAC4AMQAwADEAMAABAAAAAwAAAAAAAABEU0lObAAAAKgBAAAA
        AAAAAQAAAGhzaW4BAAAAAAAAACA7190CLVtKvWPIjKqbw/t4AQAAAAAAAERTSU5sAAAAAQAAABgAAAAAAAAARFNJTgEAAAABAAAAAQAAAAEAAAACAAAAAQAAAAAAAAAI
        AAAATgBlAHcAUwBvAHUAbgBkAAcAAABuAG8AdAAgAHMAZQB0AAAAAAAAAAAAAAAAAAAAAAAAAAAAAAAAAAAAAAAAAAAAAAAAAAEAAAABAAAAAQAAAAMAAABGAE0AOAAA
        AAAAAAAAAAcAAAAHAAAAXABAAGMAbwBsAG8AcgABAAAAMAARAAAAXABAAGQAZQB2AGkAYwBlAHQAeQBwAGUAZgBsAGEAZwBzAAEAAAAxAAsAAABcAEAAcwBvAHUAbgBk
        AHQAeQBwAGUAAQAAADAABwAAAFwAQAB0AGUAbQBwAG8AAQAAADAABgAAAFwAQAB2AGUAcgBsAAUAAAAxAC4ANwAuADgABgAAAFwAQAB2AGUAcgBtAAUAAAAxAC4ANwAu
        ADgABwAAAFwAQAB2AGkAcwBpAGIAAQAAADAAAQAAAAAAAAACAAAARFNJTnkAAABoAAAAAAAAAAEAAABoc2luAQAAAAAAAABG64vCmumHRIQ9Mih2ujahOAAAAAAAAABE
        U0lOeQAAAAEAAAAYAAAAAAAAAERTSU4BAAAAAQAAAAEAAAABAAAAAQAAAAAAAAABAAAAAAAAAAEAAABEU0lOdAAAAHUDAAAAAAAAAQAAAGhzaW4BAAAAAAAAAMPiDYJz
        LJxOuWtBgMMVvqRFAwAAAAAAAERTSU50AAAAAQAAACwDAAAAAAAARFNJTnMAAAABAAAAGAAAAAAAAABEU0lOAQAAAAEAAAABAAAAAQAAAAG9DwAA8wIAAAK9DwBgAAAB
        IAUDaHNpbkAHQAAQHyRrBvAZSEqYrqFXTcEPPBhAFCAAA0RTSU5AI+AHA0AAQBsAbSAIAWkPIAQgAEAj4ANTEEkCYzKs2sVGp2B2wrYRj5w5oCfAN0Av4BdnQCMB8Q4g
        XCAAAAUgAwFjDCAEIAAIdHNycEU4TUbPIAsEvCMAAAcgBwZkZWZhdWx04BgKICoAP+ACAwNBAACAIA8AoCAH4AsAAPAgF0AfwAAAICAPwABgFwVAAABIQgDgBABAD0AD
        4BcfYAAge+AEA0AAwBPgAwBAE+AAAAPNzMw+IAwDP5qZGUAXwAPgABcgCuAHG0ATQADgBwdAACATYKtAACALYANAAEALQAAg42AAwA9AB0AD4AMAwA9AB0ADwABAC8AD
        QADAC8AHQADgAwtAAEAP4AMAIA/Bn8AHAMjhDnPgHwDgAO/gDgBAX0ADwABBz8H7QAtAAwCgIINAB0AAALQgCwCWIAPgAwDAP0AHQAPAAEAz4MdLIAAAAcAAIAuAAAAC
        wACADuAdAOAALAD+4B0v4CEAABTgISrgMADBA+AKAGBTgAXgAABChuAXA+AeAOD9WSBZIkBBUgH6Q0AH4FUMQ9VAZwH6Q6BnBYA/zLyMK+BVDOABACBnBAA/ZmZmYAPg
        YwwgAABwJOwB/kJAdCAA4D4MosLgAFaAAKBjgADgOAwgYwRwwgAAhmC6JliAA0BW4EEMIGPgAE3g8AAAUCAA4Of8AP/gFwAABEERCggyAwAAQDIAAAA8QikgAwHwQmLY
        AAEgAYLiIAcgAkKVgAagCSA3oAkgSKAJKxegCQAG4AAJKwSgEyAAoAmASKAGoBPgwk/gSwAAEaBUA2tuYWJBMcAAAYAAIAAAGaARA2N0bmlMiwERJ2FcTFBAAEocAaBC
        4hMPTInAH00bwAvg/QDgvQABIACAAANzaXVnQiQA6CNxwAAAKiAIABkgAyOYYAAj0mAAB2dwdGNZVE1FQAwLDWJlhQEAAAAAAAAAAQAAAAABAAAAAAAAAA==
        ADxkaXNhYmxlZD4AEAAAAA==
      >
      PRESETNAME <disabled>
      FLOATPOS 32 559 948 504
      FXID {4BE7FE8D-BD21-7341-A259-05B31BAC2FBE}
      WAK 0 0
    >
    <ITEM
      POSITION 0
      SNAPOFFS 0
      LENGTH 124.99995
      LOOP 1
      ALLTAKES 0
      FADEIN 1 0 0 1 0 0
      FADEOUT 1 0 0 1 0 0
      MUTE 0 0
      SEL 0
      IGUID {5CB40D81-9600-174B-A7AE-0A5DFA9BE932}
      IID 1
      NAME "xbox 360 portal 2 video game disc.mid"
      VOLPAN 1 0 1 -1
      SOFFS 0 0
      PLAYRATE 1 1 0 -1 0 0.0025
      CHANMODE 0
      GUID {4407BAE3-9762-DD4F-AC8E-1E173C3206DE}
      <SOURCE MIDI
        HASDATA 1 128 QN
        CCINTERP 32
        POOLEDEVTS {17AE3924-2E81-F34A-9318-5AEF45061D2B}
        E 0 90 35 30
        E 576 80 35 30
        E 0 90 44 30
        E 512 80 44 30
        E 0 90 43 30
        E 512 80 43 30
        E 0 90 35 30
        E 576 80 35 30
        E 0 90 44 30
        E 512 80 44 30
        E 0 90 43 30
        E 512 80 43 30
        E 0 90 35 30
        E 576 80 35 30
        E 0 90 44 30
        E 512 80 44 30
        E 0 90 43 30
        E 512 80 43 30
        E 0 90 35 30
        E 576 80 35 30
        E 0 90 44 30
        E 512 80 44 30
        E 0 90 43 30
        E 512 80 43 30
        E 0 90 35 30
        E 576 80 35 30
        E 0 90 44 30
        E 512 80 44 30
        E 0 90 43 30
        E 512 80 43 30
        E 0 90 35 30
        E 576 80 35 30
        E 0 90 44 30
        E 512 80 44 30
        E 0 90 43 30
        E 512 80 43 30
        E 0 90 35 30
        E 576 80 35 30
        E 0 90 44 30
        E 512 80 44 30
        E 0 90 43 30
        E 512 80 43 30
        E 0 90 35 30
        E 576 80 35 30
        E 0 90 44 30
        E 512 80 44 30
        E 0 90 43 30
        E 512 80 43 30
        E 0 90 35 30
        E 576 80 35 30
        E 0 90 44 30
        E 512 80 44 30
        E 0 90 43 30
        E 512 80 43 30
        E 0 90 35 30
        E 576 80 35 30
        E 0 90 44 30
        E 512 80 44 30
        E 0 90 43 30
        E 512 80 43 30
        E 0 90 35 30
        E 576 80 35 30
        E 0 90 44 30
        E 512 80 44 30
        E 0 90 43 30
        E 512 80 43 30
        E 0 90 35 30
        E 576 80 35 30
        E 0 90 44 30
        E 512 80 44 30
        E 0 90 43 30
        E 511 80 43 30
        E 1 b0 7b 00
        CCINTERP 32
        CHASE_CC_TAKEOFFS 1
        GUID {C0BCBFC5-2E4D-E34A-89C7-60035B821C82}
        IGNTEMPO 0 120 4 4
        SRCCOLOR 398
        VELLANE 3 601 0
        VELLANE -1 196 0
      >
    >
  >
  <TRACK {765CB511-3F85-3D47-AACD-887DBAAADEFE}
    NAME "xbox 360 portal 2 video game disc"
    PEAKCOL 16576
    BEAT -1
    AUTOMODE 0
    VOLPAN 1 0 -1 -1 1
    MUTESOLO 0 0 0
    IPHASE 0
    PLAYOFFS 0 1
    ISBUS 0 0
    BUSCOMP 0 0 0 0 0
    SHOWINMIX 1 0.6667 0.5 1 0.5 0 -1 0
    FREEMODE 0
    SEL 0
    REC 0 0 1 0 0 0 0
    VU 2
    TRACKHEIGHT 0 0 0 0 -1 0
    INQ 0 0 0 0.5 100 0 0 100
    NCHAN 2
    FX 1
    TRACKID {765CB511-3F85-3D47-AACD-887DBAAADEFE}
    PERF 0
    MIDIOUT -1
    MAINSEND 1 0
    <FXCHAIN
      SHOW 0
      LASTSEL 0
      DOCKED 0
      BYPASS 0 0 0
      <VST "VSTi: FM8 (Native Instruments GmbH)" FM8.vst 0 "" 1315530296<5653544E696638666D38000000000000> ""
        OGZpTu5e7f4AAAAAAgAAAAEAAAAAAAAAAgAAAAAAAAAYBwAAAQAAAAAAEAA=
        GAcAAAAAAAABAAAAaHNpbgEAAAAAAAAAN455D8DDx0mHoN4j0l/0WZYAAAAAAAAARFNJTnYAAAABAAAASAAAAAAAAABEU0lOagAAAAEAAAAYAAAAAAAAAERTSU4BAAAA
        AQAAAAEAAAABAAAAAQAAAAEAAAAAAAAAAAAAAAAAAAANYmWFAQAAAAhwEAAAAAAAAQAAAAEAAAAAAAAAAAAAAAAAAAADAAAAMAAwADAAAAAAAAAAAAAAAAAAAAAAAAEA
        AAABAAAAAAAAAERTSU5lAAAARgYAAAAAAAABAAAAaHNpbgEAAAAAAAAAMOH4NwAUwEaoogAOyNUgkW0AAAAAAAAARFNJTmUAAAABAAAANAAAAAAAAABEU0lOagAAAAEA
        AAAYAAAAAAAAAERTSU4BAAAAAQAAAAEAAAABAAAAAgAAAAEAAAAACAAAAAEAAAAKAAAAMQAuADIALgAwAC4AMQAwADEAMAABAAAAAwAAAAAAAABEU0lObAAAAKgBAAAA
        AAAAAQAAAGhzaW4BAAAAAAAAACA7190CLVtKvWPIjKqbw/t4AQAAAAAAAERTSU5sAAAAAQAAABgAAAAAAAAARFNJTgEAAAABAAAAAQAAAAEAAAACAAAAAQAAAAAAAAAI
        AAAATgBlAHcAUwBvAHUAbgBkAAcAAABuAG8AdAAgAHMAZQB0AAAAAAAAAAAAAAAAAAAAAAAAAAAAAAAAAAAAAAAAAAAAAAAAAAEAAAABAAAAAQAAAAMAAABGAE0AOAAA
        AAAAAAAAAAcAAAAHAAAAXABAAGMAbwBsAG8AcgABAAAAMAARAAAAXABAAGQAZQB2AGkAYwBlAHQAeQBwAGUAZgBsAGEAZwBzAAEAAAAxAAsAAABcAEAAcwBvAHUAbgBk
        AHQAeQBwAGUAAQAAADAABwAAAFwAQAB0AGUAbQBwAG8AAQAAADAABgAAAFwAQAB2AGUAcgBsAAUAAAAxAC4ANwAuADgABgAAAFwAQAB2AGUAcgBtAAUAAAAxAC4ANwAu
        ADgABwAAAFwAQAB2AGkAcwBpAGIAAQAAADAAAQAAAAAAAAACAAAARFNJTnkAAABoAAAAAAAAAAEAAABoc2luAQAAAAAAAABG64vCmumHRIQ9Mih2ujahOAAAAAAAAABE
        U0lOeQAAAAEAAAAYAAAAAAAAAERTSU4BAAAAAQAAAAEAAAABAAAAAQAAAAAAAAABAAAAAAAAAAEAAABEU0lOdAAAAHUDAAAAAAAAAQAAAGhzaW4BAAAAAAAAAMPiDYJz
        LJxOuWtBgMMVvqRFAwAAAAAAAERTSU50AAAAAQAAACwDAAAAAAAARFNJTnMAAAABAAAAGAAAAAAAAABEU0lOAQAAAAEAAAABAAAAAQAAAAG9DwAA8wIAAAK9DwBgAAAB
        IAUDaHNpbkAHQAAQHyRrBvAZSEqYrqFXTcEPPBhAFCAAA0RTSU5AI+AHA0AAQBsAbSAIAWkPIAQgAEAj4ANTEEkCYzKs2sVGp2B2wrYRj5w5oCfAN0Av4BdnQCMB8Q4g
        XCAAAAUgAwFjDCAEIAAIdHNycEU4TUbPIAsEvCMAAAcgBwZkZWZhdWx04BgKICoAP+ACAwNBAACAIA8AoCAH4AsAAPAgF0AfwAAAICAPwABgFwVAAABIQgDgBABAD0AD
        4BcfYAAge+AEA0AAwBPgAwBAE+AAAAPNzMw+IAwDP5qZGUAXwAPgABcgCuAHG0ATQADgBwdAACATYKtAACALYANAAEALQAAg42AAwA9AB0AD4AMAwA9AB0ADwABAC8AD
        QADAC8AHQADgAwtAAEAP4AMAIA/Bn8AHAMjhDnPgHwDgAO/gDgBAX0ADwABBz8H7QAtAAwCgIINAB0AAALQgCwCWIAPgAwDAP0AHQAPAAEAz4MdLIAAAAcAAIAuAAAAC
        wACADuAdAOAALAD+4B0v4CEAABTgISrgMADBA+AKAGBTgAXgAABChuAXA+AeAOD9WSBZIkBBUgH6Q0AH4FUMQ9VAZwH6Q6BnBYA/zLyMK+BVDOABACBnBAA/ZmZmYAPg
        YwwgAABwJOwB/kJAdCAA4D4MosLgAFaAAKBjgADgOAwgYwRwwgAAhmC6JliAA0BW4EEMIGPgAE3g8AAAUCAA4Of8AP/gFwAABEERCggyAwAAQDIAAAA8QikgAwHwQmLY
        AAEgAYLiIAcgAkKVgAagCSA3oAkgSKAJKxegCQAG4AAJKwSgEyAAoAmASKAGoBPgwk/gSwAAEaBUA2tuYWJBMcAAAYAAIAAAGaARA2N0bmlMiwERJ2FcTFBAAEocAaBC
        4hMPTInAH00bwAvg/QDgvQABIACAAANzaXVnQiQA6CNxwAAAKiAIABkgAyOYYAAj0mAAB2dwdGNZVE1FQAwLDWJlhQEAAAAAAAAAAQAAAAABAAAAAAAAAA==
        ADxkaXNhYmxlZD4AEAAAAA==
      >
      PRESETNAME <disabled>
      FLOATPOS 0 0 0 0
      FXID {A4C34363-4D20-7E43-98D6-8A8F898394CC}
      WAK 0 0
    >
    <ITEM
      POSITION 26.66665600000427
      SNAPOFFS 0
      LENGTH 99.99995999999574
      LOOP 1
      ALLTAKES 0
      FADEIN 1 0 0 1 0 0
      FADEOUT 1 0 0 1 0 0
      MUTE 0 0
      SEL 0
      IGUID {06A002F6-1465-024F-9AD4-2DDE80B22743}
      IID 99
      NAME "xbox 360 portal 2 video game disc.mid"
      VOLPAN 1 0 1 -1
      SOFFS 0 0
      PLAYRATE 1 1 0 -1 0 0.0025
      CHANMODE 0
      GUID {F5F4E0B4-F054-874A-B646-ED578833E2DC}
      <SOURCE MIDI
        HASDATA 1 128 QN
        CCINTERP 32
        POOLEDEVTS {A49EE4B9-6DA3-0F45-9D84-F47E2279D313}
        E 0 91 43 30
        E 25 81 43 30
        E 0 91 37 30
        E 128 81 37 30
        E 0 91 32 30
        E 0 91 35 30
        E 25 81 35 30
        E 0 91 37 30
        E 102 81 37 30
        E 0 91 30 30
        E 153 81 30 30
        E 0 91 33 30
        E 76 81 33 30
        E 0 91 3a 30
        E 76 81 3a 30
        E 0 91 43 30
        E 25 81 43 30
        E 0 91 37 30
        E 128 81 37 30
        E 0 91 32 30
        E 0 91 35 30
        E 25 81 35 30
        E 0 91 37 30
        E 102 81 37 30
        E 0 91 30 30
        E 153 81 30 30
        E 0 91 33 30
        E 76 81 33 30
        E 0 91 3a 30
        E 76 81 3a 30
        E 0 91 43 30
        E 25 81 43 30
        E 0 91 37 30
        E 128 81 37 30
        E 0 91 32 30
        E 0 91 35 30
        E 25 81 35 30
        E 0 91 37 30
        E 102 81 37 30
        E 0 91 30 30
        E 153 81 30 30
        E 0 91 33 30
        E 76 81 33 30
        E 0 91 3a 30
        E 76 81 3a 30
        E 0 91 43 30
        E 25 81 43 30
        E 0 91 37 30
        E 128 81 37 30
        E 0 91 32 30
        E 0 91 35 30
        E 25 81 35 30
        E 0 91 37 30
        E 102 81 37 30
        E 0 91 30 30
        E 153 81 30 30
        E 0 91 33 30
        E 76 81 33 30
        E 0 91 3a 30
        E 76 81 3a 30
        E 0 91 43 30
        E 25 81 43 30
        E 0 91 37 30
        E 128 81 37 30
        E 0 91 32 30
        E 0 91 35 30
        E 25 81 35 30
        E 0 91 37 30
        E 102 81 37 30
        E 0 91 30 30
        E 153 81 30 30
        E 0 91 33 30
        E 76 81 33 30
        E 0 91 3a 30
        E 76 81 3a 30
        E 0 91 43 30
        E 25 81 43 30
        E 0 91 37 30
        E 128 81 37 30
        E 0 91 32 30
        E 0 91 35 30
        E 25 81 35 30
        E 0 91 37 30
        E 102 81 37 30
        E 0 91 30 30
        E 153 81 30 30
        E 0 91 33 30
        E 76 81 33 30
        E 0 91 3a 30
        E 76 81 3a 30
        E 0 91 43 30
        E 25 81 43 30
        E 0 91 37 30
        E 128 81 37 30
        E 0 91 32 30
        E 0 91 35 30
        E 25 81 35 30
        E 0 91 37 30
        E 102 81 37 30
        E 0 91 30 30
        E 153 81 30 30
        E 0 91 33 30
        E 76 81 33 30
        E 0 91 3a 30
        E 76 81 3a 30
        E 0 91 43 30
        E 25 81 43 30
        E 0 91 37 30
        E 128 81 37 30
        E 0 91 32 30
        E 0 91 35 30
        E 25 81 35 30
        E 0 91 37 30
        E 102 81 37 30
        E 0 91 30 30
        E 153 81 30 30
        E 0 91 33 30
        E 76 81 33 30
        E 0 91 3a 30
        E 76 81 3a 30
        E 0 91 43 30
        E 25 81 43 30
        E 0 91 37 30
        E 128 81 37 30
        E 0 91 32 30
        E 0 91 35 30
        E 25 81 35 30
        E 0 91 37 30
        E 102 81 37 30
        E 0 91 30 30
        E 153 81 30 30
        E 0 91 33 30
        E 76 81 33 30
        E 0 91 3a 30
        E 76 81 3a 30
        E 0 91 43 30
        E 25 81 43 30
        E 0 91 37 30
        E 128 81 37 30
        E 0 91 32 30
        E 0 91 35 30
        E 25 81 35 30
        E 0 91 37 30
        E 102 81 37 30
        E 0 91 30 30
        E 153 81 30 30
        E 0 91 33 30
        E 76 81 33 30
        E 0 91 3a 30
        E 76 81 3a 30
        E 0 91 43 30
        E 25 81 43 30
        E 0 91 37 30
        E 128 81 37 30
        E 0 91 32 30
        E 0 91 35 30
        E 25 81 35 30
        E 0 91 37 30
        E 102 81 37 30
        E 0 91 30 30
        E 153 81 30 30
        E 0 91 33 30
        E 76 81 33 30
        E 0 91 3a 30
        E 76 81 3a 30
        E 0 91 43 30
        E 25 81 43 30
        E 0 91 37 30
        E 128 81 37 30
        E 0 91 32 30
        E 0 91 35 30
        E 25 81 35 30
        E 0 91 37 30
        E 102 81 37 30
        E 0 91 30 30
        E 153 81 30 30
        E 0 91 33 30
        E 76 81 33 30
        E 0 91 3a 30
        E 76 81 3a 30
        E 0 91 43 30
        E 25 81 43 30
        E 0 91 37 30
        E 128 81 37 30
        E 0 91 32 30
        E 0 91 35 30
        E 25 81 35 30
        E 0 91 37 30
        E 102 81 37 30
        E 0 91 30 30
        E 153 81 30 30
        E 0 91 33 30
        E 76 81 33 30
        E 0 91 3a 30
        E 76 81 3a 30
        E 0 91 43 30
        E 25 81 43 30
        E 0 91 37 30
        E 128 81 37 30
        E 0 91 32 30
        E 0 91 35 30
        E 25 81 35 30
        E 0 91 37 30
        E 102 81 37 30
        E 0 91 30 30
        E 153 81 30 30
        E 0 91 33 30
        E 76 81 33 30
        E 0 91 3a 30
        E 76 81 3a 30
        E 0 91 43 30
        E 25 81 43 30
        E 0 91 37 30
        E 128 81 37 30
        E 0 91 32 30
        E 0 91 35 30
        E 25 81 35 30
        E 0 91 37 30
        E 102 81 37 30
        E 0 91 30 30
        E 153 81 30 30
        E 0 91 33 30
        E 76 81 33 30
        E 0 91 3a 30
        E 76 81 3a 30
        E 0 91 3a 30
        E 0 91 35 30
        E 230 81 35 30
        E 0 91 44 30
        E 204 81 44 30
        E 0 91 3a 30
        E 0 91 35 30
        E 230 81 35 30
        E 0 91 44 30
        E 204 81 44 30
        E 0 91 3a 30
        E 0 91 35 30
        E 230 81 35 30
        E 0 91 44 30
        E 204 81 44 30
        E 0 91 3a 30
        E 0 91 35 30
        E 230 81 35 30
        E 0 91 44 30
        E 204 81 44 30
        E 0 91 3a 30
        E 0 91 35 30
        E 230 81 35 30
        E 0 91 44 30
        E 204 81 44 30
        E 0 91 3a 30
        E 0 91 35 30
        E 230 81 35 30
        E 0 91 44 30
        E 204 81 44 30
        E 0 91 3a 30
        E 0 91 35 30
        E 230 81 35 30
        E 0 91 44 30
        E 204 81 44 30
        E 0 91 3a 30
        E 0 91 35 30
        E 230 81 35 30
        E 0 91 44 30
        E 204 81 44 30
        E 0 91 3a 30
        E 0 91 35 30
        E 230 81 35 30
        E 0 91 44 30
        E 204 81 44 30
        E 0 91 3a 30
        E 0 91 35 30
        E 230 81 35 30
        E 0 91 44 30
        E 204 81 44 30
        E 0 91 3a 30
        E 0 91 35 30
        E 230 81 35 30
        E 0 91 44 30
        E 204 81 44 30
        E 0 91 3a 30
        E 0 91 35 30
        E 230 81 35 30
        E 0 91 44 30
        E 204 81 44 30
        E 0 91 3a 30
        E 0 91 35 30
        E 230 81 35 30
        E 0 91 44 30
        E 204 81 44 30
        E 0 91 3a 30
        E 0 91 35 30
        E 230 81 35 30
        E 0 91 44 30
        E 204 81 44 30
        E 0 91 3a 30
        E 0 91 35 30
        E 230 81 35 30
        E 0 91 44 30
        E 204 81 44 30
        E 75 b0 7b 00
        CCINTERP 32
        CHASE_CC_TAKEOFFS 1
        GUID {6C2A30FE-D066-8E4F-8E1C-089C662D91DC}
        IGNTEMPO 0 120 4 4
        SRCCOLOR 957
        VELLANE 3 156 0
        VELLANE -1 196 0
      >
    >
  >
  <TRACK {41563641-5314-6A43-9D09-9933AFDB76FE}
    NAME "xbox 360 portal 2 video game disc"
    PEAKCOL 16576
    BEAT -1
    AUTOMODE 0
    VOLPAN 1 0 -1 -1 1
    MUTESOLO 0 0 0
    IPHASE 0
    PLAYOFFS 0 1
    ISBUS 0 0
    BUSCOMP 0 0 0 0 0
    SHOWINMIX 1 0.6667 0.5 1 0.5 0 -1 0
    FREEMODE 0
    SEL 0
    REC 0 0 1 0 0 0 0
    VU 2
    TRACKHEIGHT 0 0 0 0 -1 0
    INQ 0 0 0 0.5 100 0 0 100
    NCHAN 2
    FX 1
    TRACKID {41563641-5314-6A43-9D09-9933AFDB76FE}
    PERF 0
    MIDIOUT -1
    MAINSEND 1 0
    <FXCHAIN
      SHOW 0
      LASTSEL 0
      DOCKED 0
      BYPASS 0 0 0
      <VST "VSTi: FM8 (Native Instruments GmbH)" FM8.vst 0 "" 1315530296<5653544E696638666D38000000000000> ""
        OGZpTu5e7f4AAAAAAgAAAAEAAAAAAAAAAgAAAAAAAAAYBwAAAQAAAAAAEAA=
        GAcAAAAAAAABAAAAaHNpbgEAAAAAAAAAN455D8DDx0mHoN4j0l/0WZYAAAAAAAAARFNJTnYAAAABAAAASAAAAAAAAABEU0lOagAAAAEAAAAYAAAAAAAAAERTSU4BAAAA
        AQAAAAEAAAABAAAAAQAAAAEAAAAAAAAAAAAAAAAAAAANYmWFAQAAAAhwEAAAAAAAAQAAAAEAAAAAAAAAAAAAAAAAAAADAAAAMAAwADAAAAAAAAAAAAAAAAAAAAAAAAEA
        AAABAAAAAAAAAERTSU5lAAAARgYAAAAAAAABAAAAaHNpbgEAAAAAAAAAMOH4NwAUwEaoogAOyNUgkW0AAAAAAAAARFNJTmUAAAABAAAANAAAAAAAAABEU0lOagAAAAEA
        AAAYAAAAAAAAAERTSU4BAAAAAQAAAAEAAAABAAAAAgAAAAEAAAAACAAAAAEAAAAKAAAAMQAuADIALgAwAC4AMQAwADEAMAABAAAAAwAAAAAAAABEU0lObAAAAKgBAAAA
        AAAAAQAAAGhzaW4BAAAAAAAAACA7190CLVtKvWPIjKqbw/t4AQAAAAAAAERTSU5sAAAAAQAAABgAAAAAAAAARFNJTgEAAAABAAAAAQAAAAEAAAACAAAAAQAAAAAAAAAI
        AAAATgBlAHcAUwBvAHUAbgBkAAcAAABuAG8AdAAgAHMAZQB0AAAAAAAAAAAAAAAAAAAAAAAAAAAAAAAAAAAAAAAAAAAAAAAAAAEAAAABAAAAAQAAAAMAAABGAE0AOAAA
        AAAAAAAAAAcAAAAHAAAAXABAAGMAbwBsAG8AcgABAAAAMAARAAAAXABAAGQAZQB2AGkAYwBlAHQAeQBwAGUAZgBsAGEAZwBzAAEAAAAxAAsAAABcAEAAcwBvAHUAbgBk
        AHQAeQBwAGUAAQAAADAABwAAAFwAQAB0AGUAbQBwAG8AAQAAADAABgAAAFwAQAB2AGUAcgBsAAUAAAAxAC4ANwAuADgABgAAAFwAQAB2AGUAcgBtAAUAAAAxAC4ANwAu
        ADgABwAAAFwAQAB2AGkAcwBpAGIAAQAAADAAAQAAAAAAAAACAAAARFNJTnkAAABoAAAAAAAAAAEAAABoc2luAQAAAAAAAABG64vCmumHRIQ9Mih2ujahOAAAAAAAAABE
        U0lOeQAAAAEAAAAYAAAAAAAAAERTSU4BAAAAAQAAAAEAAAABAAAAAQAAAAAAAAABAAAAAAAAAAEAAABEU0lOdAAAAHUDAAAAAAAAAQAAAGhzaW4BAAAAAAAAAMPiDYJz
        LJxOuWtBgMMVvqRFAwAAAAAAAERTSU50AAAAAQAAACwDAAAAAAAARFNJTnMAAAABAAAAGAAAAAAAAABEU0lOAQAAAAEAAAABAAAAAQAAAAG9DwAA8wIAAAK9DwBgAAAB
        IAUDaHNpbkAHQAAQHyRrBvAZSEqYrqFXTcEPPBhAFCAAA0RTSU5AI+AHA0AAQBsAbSAIAWkPIAQgAEAj4ANTEEkCYzKs2sVGp2B2wrYRj5w5oCfAN0Av4BdnQCMB8Q4g
        XCAAAAUgAwFjDCAEIAAIdHNycEU4TUbPIAsEvCMAAAcgBwZkZWZhdWx04BgKICoAP+ACAwNBAACAIA8AoCAH4AsAAPAgF0AfwAAAICAPwABgFwVAAABIQgDgBABAD0AD
        4BcfYAAge+AEA0AAwBPgAwBAE+AAAAPNzMw+IAwDP5qZGUAXwAPgABcgCuAHG0ATQADgBwdAACATYKtAACALYANAAEALQAAg42AAwA9AB0AD4AMAwA9AB0ADwABAC8AD
        QADAC8AHQADgAwtAAEAP4AMAIA/Bn8AHAMjhDnPgHwDgAO/gDgBAX0ADwABBz8H7QAtAAwCgIINAB0AAALQgCwCWIAPgAwDAP0AHQAPAAEAz4MdLIAAAAcAAIAuAAAAC
        wACADuAdAOAALAD+4B0v4CEAABTgISrgMADBA+AKAGBTgAXgAABChuAXA+AeAOD9WSBZIkBBUgH6Q0AH4FUMQ9VAZwH6Q6BnBYA/zLyMK+BVDOABACBnBAA/ZmZmYAPg
        YwwgAABwJOwB/kJAdCAA4D4MosLgAFaAAKBjgADgOAwgYwRwwgAAhmC6JliAA0BW4EEMIGPgAE3g8AAAUCAA4Of8AP/gFwAABEERCggyAwAAQDIAAAA8QikgAwHwQmLY
        AAEgAYLiIAcgAkKVgAagCSA3oAkgSKAJKxegCQAG4AAJKwSgEyAAoAmASKAGoBPgwk/gSwAAEaBUA2tuYWJBMcAAAYAAIAAAGaARA2N0bmlMiwERJ2FcTFBAAEocAaBC
        4hMPTInAH00bwAvg/QDgvQABIACAAANzaXVnQiQA6CNxwAAAKiAIABkgAyOYYAAj0mAAB2dwdGNZVE1FQAwLDWJlhQEAAAAAAAAAAQAAAAABAAAAAAAAAA==
        ADxkaXNhYmxlZD4AEAAAAA==
      >
      PRESETNAME <disabled>
      FLOATPOS 0 0 0 0
      FXID {9A02D5CE-169D-BD49-91A9-1581DF0D60A8}
      WAK 0 0
    >
    <ITEM
      POSITION 106.66662400001708
      SNAPOFFS 0
      LENGTH 199.99991999998292
      LOOP 1
      ALLTAKES 0
      FADEIN 1 0 0 1 0 0
      FADEOUT 1 0 0 1 0 0
      MUTE 0 0
      SEL 0
      IGUID {422BCFF4-8E81-9445-ADA9-0334C228C43B}
      IID 100
      NAME "xbox 360 portal 2 video game disc.mid"
      VOLPAN 1 0 1 -1
      SOFFS 0 0
      PLAYRATE 1 1 0 -1 0 0.0025
      CHANMODE 0
      GUID {CDEDFB21-FBAF-B146-A450-29CA64AD3846}
      <SOURCE MIDI
        HASDATA 1 128 QN
        CCINTERP 32
        POOLEDEVTS {F2E92831-4896-1840-BC0B-6930A24E116B}
        E 0 92 3a 30
        E 0 92 35 30
        E 164 82 35 30
        E 0 92 44 30
        E 146 82 44 30
        E 0 92 3a 30
        E 0 92 35 30
        E 164 82 35 30
        E 0 92 44 30
        E 146 82 44 30
        E 0 92 3a 30
        E 0 92 35 30
        E 164 82 35 30
        E 0 92 44 30
        E 146 82 44 30
        E 0 92 3a 30
        E 0 92 35 30
        E 164 82 35 30
        E 0 92 44 30
        E 146 82 44 30
        E 0 92 3a 30
        E 0 92 35 30
        E 164 82 35 30
        E 0 92 44 30
        E 146 82 44 30
        E 0 92 3a 30
        E 0 92 35 30
        E 164 82 35 30
        E 0 92 44 30
        E 146 82 44 30
        E 0 92 3a 30
        E 0 92 35 30
        E 164 82 35 30
        E 0 92 44 30
        E 146 82 44 30
        E 0 92 3a 30
        E 0 92 35 30
        E 164 82 35 30
        E 0 92 44 30
        E 146 82 44 30
        E 0 92 3a 30
        E 0 92 35 30
        E 164 82 35 30
        E 0 92 44 30
        E 146 82 44 30
        E 0 92 3a 30
        E 0 92 35 30
        E 164 82 35 30
        E 0 92 44 30
        E 146 82 44 30
        E 0 92 3a 30
        E 0 92 35 30
        E 164 82 35 30
        E 0 92 44 30
        E 146 82 44 30
        E 0 92 3a 30
        E 0 92 35 30
        E 164 82 35 30
        E 0 92 44 30
        E 146 82 44 30
        E 0 92 3a 30
        E 0 92 35 30
        E 164 82 35 30
        E 0 92 44 30
        E 146 82 44 30
        E 0 92 3a 30
        E 0 92 35 30
        E 164 82 35 30
        E 0 92 44 30
        E 146 82 44 30
        E 0 92 3a 30
        E 0 92 35 30
        E 164 82 35 30
        E 0 92 44 30
        E 146 82 44 30
        E 0 92 3a 30
        E 0 92 35 30
        E 164 82 35 30
        E 0 92 44 30
        E 146 82 44 30
        E 0 92 3a 30
        E 0 92 35 30
        E 164 82 35 30
        E 0 92 44 30
        E 146 82 44 30
        E 0 92 3a 30
        E 0 92 35 30
        E 164 82 35 30
        E 0 92 44 30
        E 146 82 44 30
        E 0 92 3a 30
        E 0 92 35 30
        E 164 82 35 30
        E 0 92 44 30
        E 146 82 44 30
        E 0 92 3a 30
        E 0 92 35 30
        E 164 82 35 30
        E 0 92 44 30
        E 146 82 44 30
        E 0 92 3a 30
        E 0 92 35 30
        E 164 82 35 30
        E 0 92 44 30
        E 146 82 44 30
        E 0 92 30 30
        E 109 82 30 30
        E 0 92 30 30
        E 109 82 30 30
        E 0 92 30 30
        E 109 82 30 30
        E 0 92 30 30
        E 109 82 30 30
        E 0 92 30 30
        E 109 82 30 30
        E 0 92 30 30
        E 109 82 30 30
        E 0 92 30 30
        E 109 82 30 30
        E 0 92 30 30
        E 109 82 30 30
        E 0 92 30 30
        E 109 82 30 30
        E 0 92 30 30
        E 109 82 30 30
        E 0 92 30 30
        E 109 82 30 30
        E 0 92 30 30
        E 109 82 30 30
        E 0 92 30 30
        E 109 82 30 30
        E 0 92 30 30
        E 109 82 30 30
        E 0 92 30 30
        E 109 82 30 30
        E 0 92 30 30
        E 109 82 30 30
        E 0 92 30 30
        E 109 82 30 30
        E 0 92 30 30
        E 109 82 30 30
        E 0 92 30 30
        E 109 82 30 30
        E 0 92 30 30
        E 109 82 30 30
        E 0 92 30 30
        E 109 82 30 30
        E 0 92 30 30
        E 109 82 30 30
        E 0 92 30 30
        E 109 82 30 30
        E 0 92 30 30
        E 109 82 30 30
        E 0 92 30 30
        E 109 82 30 30
        E 0 92 30 30
        E 109 82 30 30
        E 0 92 30 30
        E 109 82 30 30
        E 0 92 30 30
        E 109 82 30 30
        E 0 92 30 30
        E 109 82 30 30
        E 0 92 30 30
        E 109 82 30 30
        E 0 92 30 30
        E 109 82 30 30
        E 0 92 30 30
        E 109 82 30 30
        E 0 92 30 30
        E 109 82 30 30
        E 0 92 30 30
        E 109 82 30 30
        E 0 92 30 30
        E 109 82 30 30
        E 0 92 30 30
        E 109 82 30 30
        E 0 92 30 30
        E 109 82 30 30
        E 0 92 30 30
        E 109 82 30 30
        E 0 92 30 30
        E 109 82 30 30
        E 0 92 30 30
        E 109 82 30 30
        E 0 92 30 30
        E 109 82 30 30
        E 0 92 30 30
        E 109 82 30 30
        E 0 92 30 30
        E 109 82 30 30
        E 0 92 30 30
        E 109 82 30 30
        E 0 92 30 30
        E 109 82 30 30
        E 0 92 30 30
        E 109 82 30 30
        E 0 92 30 30
        E 109 82 30 30
        E 0 92 30 30
        E 109 82 30 30
        E 0 92 30 30
        E 109 82 30 30
        E 0 92 30 30
        E 109 82 30 30
        E 0 92 30 30
        E 109 82 30 30
        E 0 92 30 30
        E 109 82 30 30
        E 0 92 30 30
        E 109 82 30 30
        E 0 92 30 30
        E 109 82 30 30
        E 0 92 30 30
        E 109 82 30 30
        E 0 92 30 30
        E 109 82 30 30
        E 0 92 30 30
        E 109 82 30 30
        E 0 92 30 30
        E 109 82 30 30
        E 0 92 30 30
        E 109 82 30 30
        E 0 92 30 30
        E 109 82 30 30
        E 0 92 30 30
        E 109 82 30 30
        E 0 92 30 30
        E 109 82 30 30
        E 0 92 30 30
        E 109 82 30 30
        E 0 92 35 30
        E 18 82 35 30
        E 0 92 37 30
        E 73 82 37 30
        E 0 92 30 30
        E 109 82 30 30
        E 0 92 33 30
        E 54 82 33 30
        E 0 92 3a 30
        E 54 82 3a 30
        E 0 92 35 30
        E 18 82 35 30
        E 0 92 37 30
        E 73 82 37 30
        E 0 92 30 30
        E 109 82 30 30
        E 0 92 33 30
        E 54 82 33 30
        E 0 92 3a 30
        E 54 82 3a 30
        E 0 92 35 30
        E 18 82 35 30
        E 0 92 37 30
        E 73 82 37 30
        E 0 92 30 30
        E 109 82 30 30
        E 0 92 33 30
        E 54 82 33 30
        E 0 92 3a 30
        E 54 82 3a 30
        E 0 92 35 30
        E 18 82 35 30
        E 0 92 37 30
        E 73 82 37 30
        E 0 92 30 30
        E 109 82 30 30
        E 0 92 33 30
        E 54 82 33 30
        E 0 92 3a 30
        E 54 82 3a 30
        E 0 92 35 30
        E 18 82 35 30
        E 0 92 37 30
        E 73 82 37 30
        E 0 92 30 30
        E 109 82 30 30
        E 0 92 33 30
        E 54 82 33 30
        E 0 92 3a 30
        E 54 82 3a 30
        E 0 92 35 30
        E 18 82 35 30
        E 0 92 37 30
        E 73 82 37 30
        E 0 92 30 30
        E 109 82 30 30
        E 0 92 33 30
        E 54 82 33 30
        E 0 92 3a 30
        E 54 82 3a 30
        E 0 92 35 30
        E 18 82 35 30
        E 0 92 37 30
        E 73 82 37 30
        E 0 92 30 30
        E 109 82 30 30
        E 0 92 33 30
        E 54 82 33 30
        E 0 92 3a 30
        E 54 82 3a 30
        E 0 92 35 30
        E 18 82 35 30
        E 0 92 37 30
        E 73 82 37 30
        E 0 92 30 30
        E 109 82 30 30
        E 0 92 33 30
        E 54 82 33 30
        E 0 92 3a 30
        E 54 82 3a 30
        E 0 92 35 30
        E 18 82 35 30
        E 0 92 37 30
        E 73 82 37 30
        E 0 92 30 30
        E 109 82 30 30
        E 0 92 33 30
        E 54 82 33 30
        E 0 92 3a 30
        E 54 82 3a 30
        E 0 92 35 30
        E 18 82 35 30
        E 0 92 37 30
        E 73 82 37 30
        E 0 92 30 30
        E 109 82 30 30
        E 0 92 33 30
        E 54 82 33 30
        E 0 92 3a 30
        E 54 82 3a 30
        E 0 92 35 30
        E 18 82 35 30
        E 0 92 37 30
        E 73 82 37 30
        E 0 92 30 30
        E 109 82 30 30
        E 0 92 33 30
        E 54 82 33 30
        E 0 92 3a 30
        E 54 82 3a 30
        E 0 92 35 30
        E 18 82 35 30
        E 0 92 37 30
        E 73 82 37 30
        E 0 92 30 30
        E 109 82 30 30
        E 0 92 33 30
        E 54 82 33 30
        E 0 92 3a 30
        E 54 82 3a 30
        E 0 92 35 30
        E 18 82 35 30
        E 0 92 37 30
        E 73 82 37 30
        E 0 92 30 30
        E 109 82 30 30
        E 0 92 33 30
        E 54 82 33 30
        E 0 92 3a 30
        E 54 82 3a 30
        E 0 92 35 30
        E 18 82 35 30
        E 0 92 37 30
        E 73 82 37 30
        E 0 92 30 30
        E 109 82 30 30
        E 0 92 33 30
        E 54 82 33 30
        E 0 92 3a 30
        E 54 82 3a 30
        E 0 92 35 30
        E 18 82 35 30
        E 0 92 37 30
        E 73 82 37 30
        E 0 92 30 30
        E 109 82 30 30
        E 0 92 33 30
        E 54 82 33 30
        E 0 92 3a 30
        E 54 82 3a 30
        E 0 92 35 30
        E 18 82 35 30
        E 0 92 37 30
        E 73 82 37 30
        E 0 92 30 30
        E 109 82 30 30
        E 0 92 33 30
        E 54 82 33 30
        E 0 92 3a 30
        E 54 82 3a 30
        E 0 92 35 30
        E 18 82 35 30
        E 0 92 37 30
        E 73 82 37 30
        E 0 92 30 30
        E 109 82 30 30
        E 0 92 33 30
        E 54 82 33 30
        E 0 92 3a 30
        E 54 82 3a 30
        E 0 92 35 30
        E 18 82 35 30
        E 0 92 37 30
        E 73 82 37 30
        E 0 92 30 30
        E 109 82 30 30
        E 0 92 33 30
        E 54 82 33 30
        E 0 92 3a 30
        E 54 82 3a 30
        E 0 92 35 30
        E 18 82 35 30
        E 0 92 37 30
        E 73 82 37 30
        E 0 92 30 30
        E 109 82 30 30
        E 0 92 33 30
        E 54 82 33 30
        E 0 92 3a 30
        E 54 82 3a 30
        E 0 92 35 30
        E 18 82 35 30
        E 0 92 37 30
        E 73 82 37 30
        E 0 92 30 30
        E 109 82 30 30
        E 0 92 33 30
        E 54 82 33 30
        E 0 92 3a 30
        E 54 82 3a 30
        E 0 92 35 30
        E 18 82 35 30
        E 0 92 37 30
        E 73 82 37 30
        E 0 92 30 30
        E 109 82 30 30
        E 0 92 33 30
        E 54 82 33 30
        E 0 92 3a 30
        E 54 82 3a 30
        E 0 92 35 30
        E 18 82 35 30
        E 0 92 37 30
        E 73 82 37 30
        E 0 92 30 30
        E 109 82 30 30
        E 0 92 33 30
        E 54 82 33 30
        E 0 92 3a 30
        E 54 82 3a 30
        E 0 92 35 30
        E 18 82 35 30
        E 0 92 37 30
        E 73 82 37 30
        E 0 92 30 30
        E 109 82 30 30
        E 0 92 33 30
        E 54 82 33 30
        E 0 92 3a 30
        E 54 82 3a 30
        E 0 92 35 30
        E 18 82 35 30
        E 0 92 37 30
        E 73 82 37 30
        E 0 92 30 30
        E 109 82 30 30
        E 0 92 33 30
        E 54 82 33 30
        E 0 92 3a 30
        E 54 82 3a 30
        E 0 92 35 30
        E 18 82 35 30
        E 0 92 37 30
        E 73 82 37 30
        E 0 92 30 30
        E 109 82 30 30
        E 0 92 33 30
        E 54 82 33 30
        E 0 92 3a 30
        E 54 82 3a 30
        E 0 92 35 30
        E 18 82 35 30
        E 0 92 37 30
        E 73 82 37 30
        E 0 92 30 30
        E 109 82 30 30
        E 0 92 33 30
        E 54 82 33 30
        E 0 92 3a 30
        E 54 82 3a 30
        E 0 92 35 30
        E 18 82 35 30
        E 0 92 37 30
        E 73 82 37 30
        E 0 92 30 30
        E 109 82 30 30
        E 0 92 33 30
        E 54 82 33 30
        E 0 92 3a 30
        E 54 82 3a 30
        E 0 92 35 30
        E 18 82 35 30
        E 0 92 37 30
        E 73 82 37 30
        E 0 92 30 30
        E 109 82 30 30
        E 0 92 33 30
        E 54 82 33 30
        E 0 92 3a 30
        E 54 82 3a 30
        E 0 92 35 30
        E 18 82 35 30
        E 0 92 37 30
        E 73 82 37 30
        E 0 92 30 30
        E 109 82 30 30
        E 0 92 33 30
        E 54 82 33 30
        E 0 92 3a 30
        E 54 82 3a 30
        E 0 92 35 30
        E 18 82 35 30
        E 0 92 37 30
        E 73 82 37 30
        E 0 92 30 30
        E 109 82 30 30
        E 0 92 33 30
        E 54 82 33 30
        E 0 92 3a 30
        E 54 82 3a 30
        E 0 92 35 30
        E 18 82 35 30
        E 0 92 37 30
        E 73 82 37 30
        E 0 92 30 30
        E 109 82 30 30
        E 0 92 33 30
        E 54 82 33 30
        E 0 92 3a 30
        E 54 82 3a 30
        E 0 92 35 30
        E 18 82 35 30
        E 0 92 37 30
        E 73 82 37 30
        E 0 92 30 30
        E 109 82 30 30
        E 0 92 33 30
        E 54 82 33 30
        E 0 92 3a 30
        E 54 82 3a 30
        E 0 92 35 30
        E 18 82 35 30
        E 0 92 37 30
        E 73 82 37 30
        E 0 92 30 30
        E 109 82 30 30
        E 0 92 33 30
        E 54 82 33 30
        E 0 92 3a 30
        E 54 82 3a 30
        E 0 92 35 30
        E 18 82 35 30
        E 0 92 37 30
        E 73 82 37 30
        E 0 92 30 30
        E 109 82 30 30
        E 0 92 33 30
        E 54 82 33 30
        E 0 92 3a 30
        E 54 82 3a 30
        E 0 92 35 30
        E 18 82 35 30
        E 0 92 37 30
        E 73 82 37 30
        E 0 92 30 30
        E 109 82 30 30
        E 0 92 33 30
        E 54 82 33 30
        E 0 92 3a 30
        E 54 82 3a 30
        E 0 92 35 30
        E 18 82 35 30
        E 0 92 37 30
        E 73 82 37 30
        E 0 92 30 30
        E 109 82 30 30
        E 0 92 33 30
        E 54 82 33 30
        E 0 92 3a 30
        E 54 82 3a 30
        E 0 92 35 30
        E 18 82 35 30
        E 0 92 37 30
        E 73 82 37 30
        E 0 92 30 30
        E 109 82 30 30
        E 0 92 33 30
        E 54 82 33 30
        E 0 92 3a 30
        E 54 82 3a 30
        E 0 92 35 30
        E 18 82 35 30
        E 0 92 37 30
        E 73 82 37 30
        E 0 92 30 30
        E 109 82 30 30
        E 0 92 33 30
        E 54 82 33 30
        E 0 92 3a 30
        E 54 82 3a 30
        E 0 92 35 30
        E 18 82 35 30
        E 0 92 37 30
        E 73 82 37 30
        E 0 92 30 30
        E 109 82 30 30
        E 0 92 33 30
        E 54 82 33 30
        E 0 92 3a 30
        E 54 82 3a 30
        E 0 92 35 30
        E 18 82 35 30
        E 0 92 37 30
        E 73 82 37 30
        E 0 92 30 30
        E 109 82 30 30
        E 0 92 33 30
        E 54 82 33 30
        E 0 92 3a 30
        E 54 82 3a 30
        E 0 92 35 30
        E 18 82 35 30
        E 0 92 37 30
        E 73 82 37 30
        E 0 92 30 30
        E 109 82 30 30
        E 0 92 33 30
        E 54 82 33 30
        E 0 92 3a 30
        E 54 82 3a 30
        E 0 92 35 30
        E 18 82 35 30
        E 0 92 37 30
        E 73 82 37 30
        E 0 92 30 30
        E 109 82 30 30
        E 0 92 33 30
        E 54 82 33 30
        E 0 92 3a 30
        E 54 82 3a 30
        E 0 92 35 30
        E 18 82 35 30
        E 0 92 37 30
        E 73 82 37 30
        E 0 92 30 30
        E 109 82 30 30
        E 0 92 33 30
        E 54 82 33 30
        E 0 92 3a 30
        E 54 82 3a 30
        E 0 92 35 30
        E 18 82 35 30
        E 0 92 37 30
        E 73 82 37 30
        E 0 92 30 30
        E 109 82 30 30
        E 0 92 33 30
        E 54 82 33 30
        E 0 92 3a 30
        E 54 82 3a 30
        E 0 92 35 30
        E 18 82 35 30
        E 0 92 37 30
        E 73 82 37 30
        E 0 92 30 30
        E 109 82 30 30
        E 0 92 33 30
        E 54 82 33 30
        E 0 92 3a 30
        E 54 82 3a 30
        E 0 92 35 30
        E 18 82 35 30
        E 0 92 37 30
        E 73 82 37 30
        E 0 92 30 30
        E 109 82 30 30
        E 0 92 33 30
        E 54 82 33 30
        E 0 92 3a 30
        E 54 82 3a 30
        E 0 92 35 30
        E 18 82 35 30
        E 0 92 37 30
        E 73 82 37 30
        E 0 92 30 30
        E 109 82 30 30
        E 0 92 33 30
        E 54 82 33 30
        E 0 92 3a 30
        E 54 82 3a 30
        E 0 92 35 30
        E 18 82 35 30
        E 0 92 37 30
        E 73 82 37 30
        E 0 92 30 30
        E 109 82 30 30
        E 0 92 33 30
        E 54 82 33 30
        E 0 92 3a 30
        E 54 82 3a 30
        E 0 92 35 30
        E 18 82 35 30
        E 0 92 37 30
        E 73 82 37 30
        E 0 92 30 30
        E 109 82 30 30
        E 0 92 33 30
        E 54 82 33 30
        E 0 92 3a 30
        E 54 82 3a 30
        E 0 92 35 30
        E 18 82 35 30
        E 0 92 37 30
        E 73 82 37 30
        E 0 92 30 30
        E 109 82 30 30
        E 0 92 33 30
        E 54 82 33 30
        E 0 92 3a 30
        E 54 82 3a 30
        E 0 92 35 30
        E 18 82 35 30
        E 0 92 37 30
        E 73 82 37 30
        E 0 92 30 30
        E 109 82 30 30
        E 0 92 33 30
        E 54 82 33 30
        E 0 92 3a 30
        E 54 82 3a 30
        E 0 92 35 30
        E 18 82 35 30
        E 0 92 37 30
        E 73 82 37 30
        E 0 92 30 30
        E 109 82 30 30
        E 0 92 33 30
        E 54 82 33 30
        E 0 92 3a 30
        E 54 82 3a 30
        E 0 92 35 30
        E 18 82 35 30
        E 0 92 37 30
        E 73 82 37 30
        E 0 92 30 30
        E 109 82 30 30
        E 0 92 33 30
        E 54 82 33 30
        E 0 92 3a 30
        E 54 82 3a 30
        E 0 92 35 30
        E 18 82 35 30
        E 0 92 37 30
        E 73 82 37 30
        E 0 92 30 30
        E 109 82 30 30
        E 0 92 33 30
        E 54 82 33 30
        E 0 92 3a 30
        E 54 82 3a 30
        E 0 92 35 30
        E 18 82 35 30
        E 0 92 37 30
        E 73 82 37 30
        E 0 92 30 30
        E 109 82 30 30
        E 0 92 33 30
        E 54 82 33 30
        E 0 92 3a 30
        E 54 82 3a 30
        E 0 92 35 30
        E 18 82 35 30
        E 0 92 37 30
        E 73 82 37 30
        E 0 92 30 30
        E 109 82 30 30
        E 0 92 33 30
        E 54 82 33 30
        E 0 92 3a 30
        E 54 82 3a 30
        E 95 b0 7b 00
        CCINTERP 32
        CHASE_CC_TAKEOFFS 1
        GUID {4B826E5F-4CDC-7E43-8111-5F7705953A53}
        IGNTEMPO 0 120 4 4
        SRCCOLOR 958
        VELLANE 3 156 0
        VELLANE -1 196 0
      >
    >
  >
  <TRACK {ECBA88A0-2DDC-954A-8B49-6AA1E5944ABA}
    NAME "xbox 360 portal 2 video game disc"
    PEAKCOL 16576
    BEAT -1
    AUTOMODE 0
    VOLPAN 1 0 -1 -1 1
    MUTESOLO 0 0 0
    IPHASE 0
    PLAYOFFS 0 1
    ISBUS 0 0
    BUSCOMP 0 0 0 0 0
    SHOWINMIX 1 0.6667 0.5 1 0.5 0 -1 0
    FREEMODE 0
    SEL 0
    REC 0 0 1 0 0 0 0
    VU 2
    TRACKHEIGHT 0 0 0 0 -1 0
    INQ 0 0 0 0.5 100 0 0 100
    NCHAN 2
    FX 1
    TRACKID {ECBA88A0-2DDC-954A-8B49-6AA1E5944ABA}
    PERF 0
    MIDIOUT -1
    MAINSEND 1 0
    <FXCHAIN
      SHOW 0
      LASTSEL 0
      DOCKED 0
      BYPASS 0 0 0
      <VST "VSTi: FM8 (Native Instruments GmbH)" FM8.vst 0 "" 1315530296<5653544E696638666D38000000000000> ""
        OGZpTu5e7f4AAAAAAgAAAAEAAAAAAAAAAgAAAAAAAAAYBwAAAQAAAAAAEAA=
        GAcAAAAAAAABAAAAaHNpbgEAAAAAAAAAN455D8DDx0mHoN4j0l/0WZYAAAAAAAAARFNJTnYAAAABAAAASAAAAAAAAABEU0lOagAAAAEAAAAYAAAAAAAAAERTSU4BAAAA
        AQAAAAEAAAABAAAAAQAAAAEAAAAAAAAAAAAAAAAAAAANYmWFAQAAAAhwEAAAAAAAAQAAAAEAAAAAAAAAAAAAAAAAAAADAAAAMAAwADAAAAAAAAAAAAAAAAAAAAAAAAEA
        AAABAAAAAAAAAERTSU5lAAAARgYAAAAAAAABAAAAaHNpbgEAAAAAAAAAMOH4NwAUwEaoogAOyNUgkW0AAAAAAAAARFNJTmUAAAABAAAANAAAAAAAAABEU0lOagAAAAEA
        AAAYAAAAAAAAAERTSU4BAAAAAQAAAAEAAAABAAAAAgAAAAEAAAAACAAAAAEAAAAKAAAAMQAuADIALgAwAC4AMQAwADEAMAABAAAAAwAAAAAAAABEU0lObAAAAKgBAAAA
        AAAAAQAAAGhzaW4BAAAAAAAAACA7190CLVtKvWPIjKqbw/t4AQAAAAAAAERTSU5sAAAAAQAAABgAAAAAAAAARFNJTgEAAAABAAAAAQAAAAEAAAACAAAAAQAAAAAAAAAI
        AAAATgBlAHcAUwBvAHUAbgBkAAcAAABuAG8AdAAgAHMAZQB0AAAAAAAAAAAAAAAAAAAAAAAAAAAAAAAAAAAAAAAAAAAAAAAAAAEAAAABAAAAAQAAAAMAAABGAE0AOAAA
        AAAAAAAAAAcAAAAHAAAAXABAAGMAbwBsAG8AcgABAAAAMAARAAAAXABAAGQAZQB2AGkAYwBlAHQAeQBwAGUAZgBsAGEAZwBzAAEAAAAxAAsAAABcAEAAcwBvAHUAbgBk
        AHQAeQBwAGUAAQAAADAABwAAAFwAQAB0AGUAbQBwAG8AAQAAADAABgAAAFwAQAB2AGUAcgBsAAUAAAAxAC4ANwAuADgABgAAAFwAQAB2AGUAcgBtAAUAAAAxAC4ANwAu
        ADgABwAAAFwAQAB2AGkAcwBpAGIAAQAAADAAAQAAAAAAAAACAAAARFNJTnkAAABoAAAAAAAAAAEAAABoc2luAQAAAAAAAABG64vCmumHRIQ9Mih2ujahOAAAAAAAAABE
        U0lOeQAAAAEAAAAYAAAAAAAAAERTSU4BAAAAAQAAAAEAAAABAAAAAQAAAAAAAAABAAAAAAAAAAEAAABEU0lOdAAAAHUDAAAAAAAAAQAAAGhzaW4BAAAAAAAAAMPiDYJz
        LJxOuWtBgMMVvqRFAwAAAAAAAERTSU50AAAAAQAAACwDAAAAAAAARFNJTnMAAAABAAAAGAAAAAAAAABEU0lOAQAAAAEAAAABAAAAAQAAAAG9DwAA8wIAAAK9DwBgAAAB
        IAUDaHNpbkAHQAAQHyRrBvAZSEqYrqFXTcEPPBhAFCAAA0RTSU5AI+AHA0AAQBsAbSAIAWkPIAQgAEAj4ANTEEkCYzKs2sVGp2B2wrYRj5w5oCfAN0Av4BdnQCMB8Q4g
        XCAAAAUgAwFjDCAEIAAIdHNycEU4TUbPIAsEvCMAAAcgBwZkZWZhdWx04BgKICoAP+ACAwNBAACAIA8AoCAH4AsAAPAgF0AfwAAAICAPwABgFwVAAABIQgDgBABAD0AD
        4BcfYAAge+AEA0AAwBPgAwBAE+AAAAPNzMw+IAwDP5qZGUAXwAPgABcgCuAHG0ATQADgBwdAACATYKtAACALYANAAEALQAAg42AAwA9AB0AD4AMAwA9AB0ADwABAC8AD
        QADAC8AHQADgAwtAAEAP4AMAIA/Bn8AHAMjhDnPgHwDgAO/gDgBAX0ADwABBz8H7QAtAAwCgIINAB0AAALQgCwCWIAPgAwDAP0AHQAPAAEAz4MdLIAAAAcAAIAuAAAAC
        wACADuAdAOAALAD+4B0v4CEAABTgISrgMADBA+AKAGBTgAXgAABChuAXA+AeAOD9WSBZIkBBUgH6Q0AH4FUMQ9VAZwH6Q6BnBYA/zLyMK+BVDOABACBnBAA/ZmZmYAPg
        YwwgAABwJOwB/kJAdCAA4D4MosLgAFaAAKBjgADgOAwgYwRwwgAAhmC6JliAA0BW4EEMIGPgAE3g8AAAUCAA4Of8AP/gFwAABEERCggyAwAAQDIAAAA8QikgAwHwQmLY
        AAEgAYLiIAcgAkKVgAagCSA3oAkgSKAJKxegCQAG4AAJKwSgEyAAoAmASKAGoBPgwk/gSwAAEaBUA2tuYWJBMcAAAYAAIAAAGaARA2N0bmlMiwERJ2FcTFBAAEocAaBC
        4hMPTInAH00bwAvg/QDgvQABIACAAANzaXVnQiQA6CNxwAAAKiAIABkgAyOYYAAj0mAAB2dwdGNZVE1FQAwLDWJlhQEAAAAAAAAAAQAAAAABAAAAAAAAAA==
        ADxkaXNhYmxlZD4AEAAAAA==
      >
      PRESETNAME <disabled>
      FLOATPOS 0 0 0 0
      FXID {0D15FA26-66EE-4344-9BF7-B5B49DBBC2A1}
      WAK 0 0
    >
    <ITEM
      POSITION 159.9999360000256
      SNAPOFFS 0
      LENGTH 44.99998199997441
      LOOP 1
      ALLTAKES 0
      FADEIN 1 0 0 1 0 0
      FADEOUT 1 0 0 1 0 0
      MUTE 0 0
      SEL 0
      IGUID {9DBCFB72-5ECA-3243-844B-76B95DE7EB52}
      IID 101
      NAME "xbox 360 portal 2 video game disc.mid"
      VOLPAN 1 0 1 -1
      SOFFS 0 0
      PLAYRATE 1 1 0 -1 0 0.0025
      CHANMODE 0
      GUID {D3D80CF3-66D8-684A-A655-A91423FE8AF8}
      <SOURCE MIDI
        HASDATA 1 128 QN
        CCINTERP 32
        POOLEDEVTS {455210CA-E35E-E94E-9B01-6BD6BFA21F84}
        E 0 93 30 30
        E 192 83 30 30
        E 0 93 30 30
        E 192 83 30 30
        E 0 93 30 30
        E 192 83 30 30
        E 0 93 30 30
        E 192 83 30 30
        E 0 93 30 30
        E 192 83 30 30
        E 0 93 30 30
        E 192 83 30 30
        E 0 93 30 30
        E 192 83 30 30
        E 0 93 30 30
        E 192 83 30 30
        E 0 93 30 30
        E 192 83 30 30
        E 0 93 30 30
        E 192 83 30 30
        E 0 93 30 30
        E 192 83 30 30
        E 0 93 30 30
        E 192 83 30 30
        E 0 93 30 30
        E 192 83 30 30
        E 0 93 30 30
        E 192 83 30 30
        E 0 93 30 30
        E 192 83 30 30
        E 0 93 30 30
        E 192 83 30 30
        E 0 93 30 30
        E 192 83 30 30
        E 0 93 30 30
        E 192 83 30 30
        E 0 93 30 30
        E 192 83 30 30
        E 0 93 30 30
        E 192 83 30 30
        E 0 93 30 30
        E 192 83 30 30
        E 0 93 30 30
        E 192 83 30 30
        E 0 93 30 30
        E 192 83 30 30
        E 0 93 30 30
        E 192 83 30 30
        E 0 93 30 30
        E 192 83 30 30
        E 0 93 30 30
        E 192 83 30 30
        E 0 93 30 30
        E 192 83 30 30
        E 0 93 30 30
        E 192 83 30 30
        E 0 93 30 30
        E 192 83 30 30
        E 0 93 30 30
        E 192 83 30 30
        E 0 93 30 30
        E 192 83 30 30
        E 0 93 30 30
        E 192 83 30 30
        E 0 93 30 30
        E 192 83 30 30
        E 0 93 30 30
        E 192 83 30 30
        E 0 93 30 30
        E 192 83 30 30
        E 0 93 30 30
        E 191 83 30 30
        E 1 b0 7b 00
        CCINTERP 32
        CHASE_CC_TAKEOFFS 1
        GUID {FFC0024C-CC1B-3F46-A939-A7CF5CDA1C88}
        IGNTEMPO 0 120 4 4
        SRCCOLOR 959
        VELLANE 3 156 0
        VELLANE -1 196 0
      >
    >
  >
  <TRACK {30876CAD-29CD-2D4D-AFF0-579883293E4D}
    NAME "xbox 360 portal 2 video game disc"
    PEAKCOL 16576
    BEAT -1
    AUTOMODE 0
    VOLPAN 1 0 -1 -1 1
    MUTESOLO 0 0 0
    IPHASE 0
    PLAYOFFS 0 1
    ISBUS 0 0
    BUSCOMP 0 0 0 0 0
    SHOWINMIX 1 0.6667 0.5 1 0.5 0 -1 0
    FREEMODE 0
    SEL 0
    REC 0 0 1 0 0 0 0
    VU 2
    TRACKHEIGHT 0 0 0 0 -1 0
    INQ 0 0 0 0.5 100 0 0 100
    NCHAN 2
    FX 1
    TRACKID {30876CAD-29CD-2D4D-AFF0-579883293E4D}
    PERF 0
    MIDIOUT -1
    MAINSEND 1 0
    <FXCHAIN
      SHOW 0
      LASTSEL 0
      DOCKED 0
      BYPASS 0 0 0
      <VST "VSTi: FM8 (Native Instruments GmbH)" FM8.vst 0 "" 1315530296<5653544E696638666D38000000000000> ""
        OGZpTu5e7f4AAAAAAgAAAAEAAAAAAAAAAgAAAAAAAAAYBwAAAQAAAAAAEAA=
        GAcAAAAAAAABAAAAaHNpbgEAAAAAAAAAN455D8DDx0mHoN4j0l/0WZYAAAAAAAAARFNJTnYAAAABAAAASAAAAAAAAABEU0lOagAAAAEAAAAYAAAAAAAAAERTSU4BAAAA
        AQAAAAEAAAABAAAAAQAAAAEAAAAAAAAAAAAAAAAAAAANYmWFAQAAAAhwEAAAAAAAAQAAAAEAAAAAAAAAAAAAAAAAAAADAAAAMAAwADAAAAAAAAAAAAAAAAAAAAAAAAEA
        AAABAAAAAAAAAERTSU5lAAAARgYAAAAAAAABAAAAaHNpbgEAAAAAAAAAMOH4NwAUwEaoogAOyNUgkW0AAAAAAAAARFNJTmUAAAABAAAANAAAAAAAAABEU0lOagAAAAEA
        AAAYAAAAAAAAAERTSU4BAAAAAQAAAAEAAAABAAAAAgAAAAEAAAAACAAAAAEAAAAKAAAAMQAuADIALgAwAC4AMQAwADEAMAABAAAAAwAAAAAAAABEU0lObAAAAKgBAAAA
        AAAAAQAAAGhzaW4BAAAAAAAAACA7190CLVtKvWPIjKqbw/t4AQAAAAAAAERTSU5sAAAAAQAAABgAAAAAAAAARFNJTgEAAAABAAAAAQAAAAEAAAACAAAAAQAAAAAAAAAI
        AAAATgBlAHcAUwBvAHUAbgBkAAcAAABuAG8AdAAgAHMAZQB0AAAAAAAAAAAAAAAAAAAAAAAAAAAAAAAAAAAAAAAAAAAAAAAAAAEAAAABAAAAAQAAAAMAAABGAE0AOAAA
        AAAAAAAAAAcAAAAHAAAAXABAAGMAbwBsAG8AcgABAAAAMAARAAAAXABAAGQAZQB2AGkAYwBlAHQAeQBwAGUAZgBsAGEAZwBzAAEAAAAxAAsAAABcAEAAcwBvAHUAbgBk
        AHQAeQBwAGUAAQAAADAABwAAAFwAQAB0AGUAbQBwAG8AAQAAADAABgAAAFwAQAB2AGUAcgBsAAUAAAAxAC4ANwAuADgABgAAAFwAQAB2AGUAcgBtAAUAAAAxAC4ANwAu
        ADgABwAAAFwAQAB2AGkAcwBpAGIAAQAAADAAAQAAAAAAAAACAAAARFNJTnkAAABoAAAAAAAAAAEAAABoc2luAQAAAAAAAABG64vCmumHRIQ9Mih2ujahOAAAAAAAAABE
        U0lOeQAAAAEAAAAYAAAAAAAAAERTSU4BAAAAAQAAAAEAAAABAAAAAQAAAAAAAAABAAAAAAAAAAEAAABEU0lOdAAAAHUDAAAAAAAAAQAAAGhzaW4BAAAAAAAAAMPiDYJz
        LJxOuWtBgMMVvqRFAwAAAAAAAERTSU50AAAAAQAAACwDAAAAAAAARFNJTnMAAAABAAAAGAAAAAAAAABEU0lOAQAAAAEAAAABAAAAAQAAAAG9DwAA8wIAAAK9DwBgAAAB
        IAUDaHNpbkAHQAAQHyRrBvAZSEqYrqFXTcEPPBhAFCAAA0RTSU5AI+AHA0AAQBsAbSAIAWkPIAQgAEAj4ANTEEkCYzKs2sVGp2B2wrYRj5w5oCfAN0Av4BdnQCMB8Q4g
        XCAAAAUgAwFjDCAEIAAIdHNycEU4TUbPIAsEvCMAAAcgBwZkZWZhdWx04BgKICoAP+ACAwNBAACAIA8AoCAH4AsAAPAgF0AfwAAAICAPwABgFwVAAABIQgDgBABAD0AD
        4BcfYAAge+AEA0AAwBPgAwBAE+AAAAPNzMw+IAwDP5qZGUAXwAPgABcgCuAHG0ATQADgBwdAACATYKtAACALYANAAEALQAAg42AAwA9AB0AD4AMAwA9AB0ADwABAC8AD
        QADAC8AHQADgAwtAAEAP4AMAIA/Bn8AHAMjhDnPgHwDgAO/gDgBAX0ADwABBz8H7QAtAAwCgIINAB0AAALQgCwCWIAPgAwDAP0AHQAPAAEAz4MdLIAAAAcAAIAuAAAAC
        wACADuAdAOAALAD+4B0v4CEAABTgISrgMADBA+AKAGBTgAXgAABChuAXA+AeAOD9WSBZIkBBUgH6Q0AH4FUMQ9VAZwH6Q6BnBYA/zLyMK+BVDOABACBnBAA/ZmZmYAPg
        YwwgAABwJOwB/kJAdCAA4D4MosLgAFaAAKBjgADgOAwgYwRwwgAAhmC6JliAA0BW4EEMIGPgAE3g8AAAUCAA4Of8AP/gFwAABEERCggyAwAAQDIAAAA8QikgAwHwQmLY
        AAEgAYLiIAcgAkKVgAagCSA3oAkgSKAJKxegCQAG4AAJKwSgEyAAoAmASKAGoBPgwk/gSwAAEaBUA2tuYWJBMcAAAYAAIAAAGaARA2N0bmlMiwERJ2FcTFBAAEocAaBC
        4hMPTInAH00bwAvg/QDgvQABIACAAANzaXVnQiQA6CNxwAAAKiAIABkgAyOYYAAj0mAAB2dwdGNZVE1FQAwLDWJlhQEAAAAAAAAAAQAAAAABAAAAAAAAAA==
        ADxkaXNhYmxlZD4AEAAAAA==
      >
      PRESETNAME <disabled>
      FLOATPOS 0 0 0 0
      FXID {D0FE9004-5E1F-E44F-8B9B-5DAF4ED17CDC}
      WAK 0 0
    >
    <ITEM
      POSITION 79.9999680000128
      SNAPOFFS 0
      LENGTH 158.33326999998718
      LOOP 1
      ALLTAKES 0
      FADEIN 1 0 0 1 0 0
      FADEOUT 1 0 0 1 0 0
      MUTE 0 0
      SEL 0
      IGUID {96006C4D-7630-E24E-9D73-E0303FD79205}
      IID 102
      NAME "xbox 360 portal 2 video game disc.mid"
      VOLPAN 1 0 1 -1
      SOFFS 0 0
      PLAYRATE 1 1 0 -1 0 0.0025
      CHANMODE 0
      GUID {44F8815C-60C5-9045-812A-C8D2568B57B7}
      <SOURCE MIDI
        HASDATA 1 128 QN
        CCINTERP 32
        POOLEDEVTS {013FF666-AFF7-CD42-8087-1EC70A2F15EF}
        E 0 94 30 30
        E 192 84 30 30
        E 0 94 30 30
        E 192 84 30 30
        E 0 94 30 30
        E 192 84 30 30
        E 0 94 30 30
        E 192 84 30 30
        E 0 94 30 30
        E 192 84 30 30
        E 0 94 30 30
        E 192 84 30 30
        E 0 94 30 30
        E 192 84 30 30
        E 0 94 30 30
        E 192 84 30 30
        E 0 94 30 30
        E 192 84 30 30
        E 0 94 30 30
        E 192 84 30 30
        E 0 94 30 30
        E 192 84 30 30
        E 0 94 30 30
        E 192 84 30 30
        E 0 94 30 30
        E 192 84 30 30
        E 0 94 30 30
        E 192 84 30 30
        E 0 94 30 30
        E 192 84 30 30
        E 0 94 30 30
        E 192 84 30 30
        E 0 94 30 30
        E 192 84 30 30
        E 0 94 30 30
        E 192 84 30 30
        E 0 94 30 30
        E 192 84 30 30
        E 0 94 30 30
        E 192 84 30 30
        E 0 94 30 30
        E 192 84 30 30
        E 0 94 30 30
        E 192 84 30 30
        E 0 94 30 30
        E 192 84 30 30
        E 0 94 30 30
        E 192 84 30 30
        E 0 94 30 30
        E 192 84 30 30
        E 0 94 30 30
        E 192 84 30 30
        E 0 94 30 30
        E 192 84 30 30
        E 0 94 30 30
        E 192 84 30 30
        E 0 94 30 30
        E 192 84 30 30
        E 0 94 30 30
        E 192 84 30 30
        E 0 94 30 30
        E 192 84 30 30
        E 0 94 30 30
        E 192 84 30 30
        E 0 94 30 30
        E 192 84 30 30
        E 0 94 30 30
        E 192 84 30 30
        E 0 94 30 30
        E 192 84 30 30
        E 0 94 30 30
        E 192 84 30 30
        E 0 94 35 30
        E 32 84 35 30
        E 0 94 37 30
        E 128 84 37 30
        E 0 94 30 30
        E 192 84 30 30
        E 0 94 33 30
        E 96 84 33 30
        E 0 94 3a 30
        E 96 84 3a 30
        E 0 94 35 30
        E 32 84 35 30
        E 0 94 37 30
        E 128 84 37 30
        E 0 94 30 30
        E 192 84 30 30
        E 0 94 33 30
        E 96 84 33 30
        E 0 94 3a 30
        E 96 84 3a 30
        E 0 94 35 30
        E 32 84 35 30
        E 0 94 37 30
        E 128 84 37 30
        E 0 94 30 30
        E 192 84 30 30
        E 0 94 33 30
        E 96 84 33 30
        E 0 94 3a 30
        E 96 84 3a 30
        E 0 94 35 30
        E 32 84 35 30
        E 0 94 37 30
        E 128 84 37 30
        E 0 94 30 30
        E 192 84 30 30
        E 0 94 33 30
        E 96 84 33 30
        E 0 94 3a 30
        E 96 84 3a 30
        E 0 94 35 30
        E 32 84 35 30
        E 0 94 37 30
        E 128 84 37 30
        E 0 94 30 30
        E 192 84 30 30
        E 0 94 33 30
        E 96 84 33 30
        E 0 94 3a 30
        E 96 84 3a 30
        E 0 94 35 30
        E 32 84 35 30
        E 0 94 37 30
        E 128 84 37 30
        E 0 94 30 30
        E 192 84 30 30
        E 0 94 33 30
        E 96 84 33 30
        E 0 94 3a 30
        E 96 84 3a 30
        E 0 94 35 30
        E 32 84 35 30
        E 0 94 37 30
        E 128 84 37 30
        E 0 94 30 30
        E 192 84 30 30
        E 0 94 33 30
        E 96 84 33 30
        E 0 94 3a 30
        E 96 84 3a 30
        E 0 94 35 30
        E 32 84 35 30
        E 0 94 37 30
        E 128 84 37 30
        E 0 94 30 30
        E 192 84 30 30
        E 0 94 33 30
        E 96 84 33 30
        E 0 94 3a 30
        E 96 84 3a 30
        E 0 94 35 30
        E 32 84 35 30
        E 0 94 37 30
        E 128 84 37 30
        E 0 94 30 30
        E 192 84 30 30
        E 0 94 33 30
        E 96 84 33 30
        E 0 94 3a 30
        E 96 84 3a 30
        E 0 94 35 30
        E 32 84 35 30
        E 0 94 37 30
        E 128 84 37 30
        E 0 94 30 30
        E 192 84 30 30
        E 0 94 33 30
        E 96 84 33 30
        E 0 94 3a 30
        E 96 84 3a 30
        E 0 94 35 30
        E 32 84 35 30
        E 0 94 37 30
        E 128 84 37 30
        E 0 94 30 30
        E 192 84 30 30
        E 0 94 33 30
        E 96 84 33 30
        E 0 94 3a 30
        E 96 84 3a 30
        E 0 94 35 30
        E 32 84 35 30
        E 0 94 37 30
        E 128 84 37 30
        E 0 94 30 30
        E 192 84 30 30
        E 0 94 33 30
        E 96 84 33 30
        E 0 94 3a 30
        E 96 84 3a 30
        E 0 94 35 30
        E 32 84 35 30
        E 0 94 37 30
        E 128 84 37 30
        E 0 94 30 30
        E 192 84 30 30
        E 0 94 33 30
        E 96 84 33 30
        E 0 94 3a 30
        E 96 84 3a 30
        E 0 94 35 30
        E 32 84 35 30
        E 0 94 37 30
        E 128 84 37 30
        E 0 94 30 30
        E 192 84 30 30
        E 0 94 33 30
        E 96 84 33 30
        E 0 94 3a 30
        E 96 84 3a 30
        E 0 94 35 30
        E 32 84 35 30
        E 0 94 37 30
        E 128 84 37 30
        E 0 94 30 30
        E 192 84 30 30
        E 0 94 33 30
        E 96 84 33 30
        E 0 94 3a 30
        E 96 84 3a 30
        E 0 94 35 30
        E 32 84 35 30
        E 0 94 37 30
        E 128 84 37 30
        E 0 94 30 30
        E 192 84 30 30
        E 0 94 33 30
        E 96 84 33 30
        E 0 94 3a 30
        E 96 84 3a 30
        E 0 94 35 30
        E 32 84 35 30
        E 0 94 37 30
        E 128 84 37 30
        E 0 94 30 30
        E 192 84 30 30
        E 0 94 33 30
        E 96 84 33 30
        E 0 94 3a 30
        E 96 84 3a 30
        E 0 94 35 30
        E 32 84 35 30
        E 0 94 37 30
        E 128 84 37 30
        E 0 94 30 30
        E 192 84 30 30
        E 0 94 33 30
        E 96 84 33 30
        E 0 94 3a 30
        E 96 84 3a 30
        E 0 94 35 30
        E 32 84 35 30
        E 0 94 37 30
        E 128 84 37 30
        E 0 94 30 30
        E 192 84 30 30
        E 0 94 33 30
        E 96 84 33 30
        E 0 94 3a 30
        E 96 84 3a 30
        E 0 94 35 30
        E 32 84 35 30
        E 0 94 37 30
        E 128 84 37 30
        E 0 94 30 30
        E 192 84 30 30
        E 0 94 33 30
        E 96 84 33 30
        E 0 94 3a 30
        E 96 84 3a 30
        E 0 94 35 30
        E 32 84 35 30
        E 0 94 37 30
        E 128 84 37 30
        E 0 94 30 30
        E 192 84 30 30
        E 0 94 33 30
        E 96 84 33 30
        E 0 94 3a 30
        E 96 84 3a 30
        E 0 94 35 30
        E 32 84 35 30
        E 0 94 37 30
        E 128 84 37 30
        E 0 94 30 30
        E 192 84 30 30
        E 0 94 33 30
        E 96 84 33 30
        E 0 94 3a 30
        E 96 84 3a 30
        E 0 94 35 30
        E 32 84 35 30
        E 0 94 37 30
        E 128 84 37 30
        E 0 94 30 30
        E 192 84 30 30
        E 0 94 33 30
        E 96 84 33 30
        E 0 94 3a 30
        E 96 84 3a 30
        E 0 94 35 30
        E 32 84 35 30
        E 0 94 37 30
        E 128 84 37 30
        E 0 94 30 30
        E 192 84 30 30
        E 0 94 33 30
        E 96 84 33 30
        E 0 94 3a 30
        E 96 84 3a 30
        E 0 94 35 30
        E 32 84 35 30
        E 0 94 37 30
        E 128 84 37 30
        E 0 94 30 30
        E 192 84 30 30
        E 0 94 33 30
        E 96 84 33 30
        E 0 94 3a 30
        E 96 84 3a 30
        E 0 94 35 30
        E 32 84 35 30
        E 0 94 37 30
        E 128 84 37 30
        E 0 94 30 30
        E 192 84 30 30
        E 0 94 33 30
        E 96 84 33 30
        E 0 94 3a 30
        E 96 84 3a 30
        E 0 94 35 30
        E 32 84 35 30
        E 0 94 37 30
        E 128 84 37 30
        E 0 94 30 30
        E 192 84 30 30
        E 0 94 33 30
        E 96 84 33 30
        E 0 94 3a 30
        E 96 84 3a 30
        E 0 94 35 30
        E 32 84 35 30
        E 0 94 37 30
        E 128 84 37 30
        E 0 94 30 30
        E 192 84 30 30
        E 0 94 33 30
        E 96 84 33 30
        E 0 94 3a 30
        E 96 84 3a 30
        E 0 94 35 30
        E 32 84 35 30
        E 0 94 37 30
        E 128 84 37 30
        E 0 94 30 30
        E 192 84 30 30
        E 0 94 33 30
        E 96 84 33 30
        E 0 94 3a 30
        E 96 84 3a 30
        E 0 94 35 30
        E 32 84 35 30
        E 0 94 37 30
        E 128 84 37 30
        E 0 94 30 30
        E 192 84 30 30
        E 0 94 33 30
        E 96 84 33 30
        E 0 94 3a 30
        E 96 84 3a 30
        E 0 94 35 30
        E 32 84 35 30
        E 0 94 37 30
        E 128 84 37 30
        E 0 94 30 30
        E 192 84 30 30
        E 0 94 33 30
        E 96 84 33 30
        E 0 94 3a 30
        E 96 84 3a 30
        E 0 94 35 30
        E 32 84 35 30
        E 0 94 37 30
        E 128 84 37 30
        E 0 94 30 30
        E 192 84 30 30
        E 0 94 33 30
        E 96 84 33 30
        E 0 94 3a 30
        E 95 84 3a 30
        E 1 b0 7b 00
        CCINTERP 32
        CHASE_CC_TAKEOFFS 1
        GUID {550DE510-66AD-644F-8DD5-8BD1428FD028}
        IGNTEMPO 0 120 4 4
        SRCCOLOR 960
        VELLANE 3 156 0
        VELLANE -1 196 0
      >
    >
  >
  <TRACK {5DC6B2D9-DB4D-2C4F-87FB-9F7BD8DD63E0}
    NAME "xbox 360 portal 2 video game disc"
    PEAKCOL 16576
    BEAT -1
    AUTOMODE 0
    VOLPAN 1 0 -1 -1 1
    MUTESOLO 0 0 0
    IPHASE 0
    PLAYOFFS 0 1
    ISBUS 0 0
    BUSCOMP 0 0 0 0 0
    SHOWINMIX 1 0.6667 0.5 1 0.5 0 -1 0
    FREEMODE 0
    SEL 0
    REC 0 0 1 0 0 0 0
    VU 2
    TRACKHEIGHT 0 0 0 0 -1 0
    INQ 0 0 0 0.5 100 0 0 100
    NCHAN 2
    FX 1
    TRACKID {5DC6B2D9-DB4D-2C4F-87FB-9F7BD8DD63E0}
    PERF 0
    MIDIOUT -1
    MAINSEND 1 0
    <FXCHAIN
      SHOW 0
      LASTSEL 0
      DOCKED 0
      BYPASS 0 0 0
      <VST "VSTi: FM8 (Native Instruments GmbH)" FM8.vst 0 "" 1315530296<5653544E696638666D38000000000000> ""
        OGZpTu5e7f4AAAAAAgAAAAEAAAAAAAAAAgAAAAAAAAAYBwAAAQAAAAAAEAA=
        GAcAAAAAAAABAAAAaHNpbgEAAAAAAAAAN455D8DDx0mHoN4j0l/0WZYAAAAAAAAARFNJTnYAAAABAAAASAAAAAAAAABEU0lOagAAAAEAAAAYAAAAAAAAAERTSU4BAAAA
        AQAAAAEAAAABAAAAAQAAAAEAAAAAAAAAAAAAAAAAAAANYmWFAQAAAAhwEAAAAAAAAQAAAAEAAAAAAAAAAAAAAAAAAAADAAAAMAAwADAAAAAAAAAAAAAAAAAAAAAAAAEA
        AAABAAAAAAAAAERTSU5lAAAARgYAAAAAAAABAAAAaHNpbgEAAAAAAAAAMOH4NwAUwEaoogAOyNUgkW0AAAAAAAAARFNJTmUAAAABAAAANAAAAAAAAABEU0lOagAAAAEA
        AAAYAAAAAAAAAERTSU4BAAAAAQAAAAEAAAABAAAAAgAAAAEAAAAACAAAAAEAAAAKAAAAMQAuADIALgAwAC4AMQAwADEAMAABAAAAAwAAAAAAAABEU0lObAAAAKgBAAAA
        AAAAAQAAAGhzaW4BAAAAAAAAACA7190CLVtKvWPIjKqbw/t4AQAAAAAAAERTSU5sAAAAAQAAABgAAAAAAAAARFNJTgEAAAABAAAAAQAAAAEAAAACAAAAAQAAAAAAAAAI
        AAAATgBlAHcAUwBvAHUAbgBkAAcAAABuAG8AdAAgAHMAZQB0AAAAAAAAAAAAAAAAAAAAAAAAAAAAAAAAAAAAAAAAAAAAAAAAAAEAAAABAAAAAQAAAAMAAABGAE0AOAAA
        AAAAAAAAAAcAAAAHAAAAXABAAGMAbwBsAG8AcgABAAAAMAARAAAAXABAAGQAZQB2AGkAYwBlAHQAeQBwAGUAZgBsAGEAZwBzAAEAAAAxAAsAAABcAEAAcwBvAHUAbgBk
        AHQAeQBwAGUAAQAAADAABwAAAFwAQAB0AGUAbQBwAG8AAQAAADAABgAAAFwAQAB2AGUAcgBsAAUAAAAxAC4ANwAuADgABgAAAFwAQAB2AGUAcgBtAAUAAAAxAC4ANwAu
        ADgABwAAAFwAQAB2AGkAcwBpAGIAAQAAADAAAQAAAAAAAAACAAAARFNJTnkAAABoAAAAAAAAAAEAAABoc2luAQAAAAAAAABG64vCmumHRIQ9Mih2ujahOAAAAAAAAABE
        U0lOeQAAAAEAAAAYAAAAAAAAAERTSU4BAAAAAQAAAAEAAAABAAAAAQAAAAAAAAABAAAAAAAAAAEAAABEU0lOdAAAAHUDAAAAAAAAAQAAAGhzaW4BAAAAAAAAAMPiDYJz
        LJxOuWtBgMMVvqRFAwAAAAAAAERTSU50AAAAAQAAACwDAAAAAAAARFNJTnMAAAABAAAAGAAAAAAAAABEU0lOAQAAAAEAAAABAAAAAQAAAAG9DwAA8wIAAAK9DwBgAAAB
        IAUDaHNpbkAHQAAQHyRrBvAZSEqYrqFXTcEPPBhAFCAAA0RTSU5AI+AHA0AAQBsAbSAIAWkPIAQgAEAj4ANTEEkCYzKs2sVGp2B2wrYRj5w5oCfAN0Av4BdnQCMB8Q4g
        XCAAAAUgAwFjDCAEIAAIdHNycEU4TUbPIAsEvCMAAAcgBwZkZWZhdWx04BgKICoAP+ACAwNBAACAIA8AoCAH4AsAAPAgF0AfwAAAICAPwABgFwVAAABIQgDgBABAD0AD
        4BcfYAAge+AEA0AAwBPgAwBAE+AAAAPNzMw+IAwDP5qZGUAXwAPgABcgCuAHG0ATQADgBwdAACATYKtAACALYANAAEALQAAg42AAwA9AB0AD4AMAwA9AB0ADwABAC8AD
        QADAC8AHQADgAwtAAEAP4AMAIA/Bn8AHAMjhDnPgHwDgAO/gDgBAX0ADwABBz8H7QAtAAwCgIINAB0AAALQgCwCWIAPgAwDAP0AHQAPAAEAz4MdLIAAAAcAAIAuAAAAC
        wACADuAdAOAALAD+4B0v4CEAABTgISrgMADBA+AKAGBTgAXgAABChuAXA+AeAOD9WSBZIkBBUgH6Q0AH4FUMQ9VAZwH6Q6BnBYA/zLyMK+BVDOABACBnBAA/ZmZmYAPg
        YwwgAABwJOwB/kJAdCAA4D4MosLgAFaAAKBjgADgOAwgYwRwwgAAhmC6JliAA0BW4EEMIGPgAE3g8AAAUCAA4Of8AP/gFwAABEERCggyAwAAQDIAAAA8QikgAwHwQmLY
        AAEgAYLiIAcgAkKVgAagCSA3oAkgSKAJKxegCQAG4AAJKwSgEyAAoAmASKAGoBPgwk/gSwAAEaBUA2tuYWJBMcAAAYAAIAAAGaARA2N0bmlMiwERJ2FcTFBAAEocAaBC
        4hMPTInAH00bwAvg/QDgvQABIACAAANzaXVnQiQA6CNxwAAAKiAIABkgAyOYYAAj0mAAB2dwdGNZVE1FQAwLDWJlhQEAAAAAAAAAAQAAAAABAAAAAAAAAA==
        ADxkaXNhYmxlZD4AEAAAAA==
      >
      PRESETNAME <disabled>
      FLOATPOS 0 0 0 0
      FXID {36A951E7-735E-6840-9837-5BF0D899920E}
      WAK 0 0
    >
    <ITEM
      POSITION 79.9999680000128
      SNAPOFFS 0
      LENGTH 113.33328799998721
      LOOP 1
      ALLTAKES 0
      FADEIN 1 0 0 1 0 0
      FADEOUT 1 0 0 1 0 0
      MUTE 0 0
      SEL 0
      IGUID {73545BCE-26B7-BB4D-9061-921D6D68FD8A}
      IID 103
      NAME "xbox 360 portal 2 video game disc.mid"
      VOLPAN 1 0 1 -1
      SOFFS 0 0
      PLAYRATE 1 1 0 -1 0 0.0025
      CHANMODE 0
      GUID {4B2263BD-37E8-F84B-948C-DD4601A31C9E}
      <SOURCE MIDI
        HASDATA 1 128 QN
        CCINTERP 32
        POOLEDEVTS {F815AB0E-4906-8041-9ECB-99C18515ADF6}
        E 0 95 35 30
        E 128 85 35 30
        E 0 95 37 30
        E 512 85 37 30
        E 0 95 30 30
        E 768 85 30 30
        E 0 95 33 30
        E 384 85 33 30
        E 0 95 3a 30
        E 384 85 3a 30
        E 0 95 35 30
        E 128 85 35 30
        E 0 95 37 30
        E 512 85 37 30
        E 0 95 30 30
        E 768 85 30 30
        E 0 95 33 30
        E 384 85 33 30
        E 0 95 3a 30
        E 384 85 3a 30
        E 0 95 35 30
        E 128 85 35 30
        E 0 95 37 30
        E 512 85 37 30
        E 0 95 30 30
        E 768 85 30 30
        E 0 95 33 30
        E 384 85 33 30
        E 0 95 3a 30
        E 384 85 3a 30
        E 0 95 35 30
        E 128 85 35 30
        E 0 95 37 30
        E 512 85 37 30
        E 0 95 30 30
        E 768 85 30 30
        E 0 95 33 30
        E 384 85 33 30
        E 0 95 3a 30
        E 384 85 3a 30
        E 0 95 35 30
        E 128 85 35 30
        E 0 95 37 30
        E 512 85 37 30
        E 0 95 30 30
        E 768 85 30 30
        E 0 95 33 30
        E 384 85 33 30
        E 0 95 3a 30
        E 384 85 3a 30
        E 0 95 35 30
        E 128 85 35 30
        E 0 95 37 30
        E 512 85 37 30
        E 0 95 30 30
        E 768 85 30 30
        E 0 95 33 30
        E 384 85 33 30
        E 0 95 3a 30
        E 384 85 3a 30
        E 0 95 35 30
        E 128 85 35 30
        E 0 95 37 30
        E 512 85 37 30
        E 0 95 30 30
        E 768 85 30 30
        E 0 95 33 30
        E 384 85 33 30
        E 0 95 3a 30
        E 384 85 3a 30
        E 0 95 35 30
        E 128 85 35 30
        E 0 95 37 30
        E 512 85 37 30
        E 0 95 30 30
        E 768 85 30 30
        E 0 95 33 30
        E 384 85 33 30
        E 0 95 3a 30
        E 383 85 3a 30
        E 1 b0 7b 00
        CCINTERP 32
        CHASE_CC_TAKEOFFS 1
        GUID {0C9D9733-D20E-614D-BCD3-101BC4298364}
        IGNTEMPO 0 120 4 4
        SRCCOLOR 961
        VELLANE 3 156 0
        VELLANE -1 196 0
      >
    >
  >
  <TRACK {27DDC805-42DD-E840-B3CE-43A3FF552F60}
    NAME "xbox 360 portal 2 video game disc"
    PEAKCOL 16576
    BEAT -1
    AUTOMODE 0
    VOLPAN 1 0 -1 -1 1
    MUTESOLO 0 0 0
    IPHASE 0
    PLAYOFFS 0 1
    ISBUS 0 0
    BUSCOMP 0 0 0 0 0
    SHOWINMIX 1 0.6667 0.5 1 0.5 0 -1 0
    FREEMODE 0
    SEL 0
    REC 0 0 1 0 0 0 0
    VU 2
    TRACKHEIGHT 0 0 0 0 -1 0
    INQ 0 0 0 0.5 100 0 0 100
    NCHAN 2
    FX 1
    TRACKID {27DDC805-42DD-E840-B3CE-43A3FF552F60}
    PERF 0
    MIDIOUT -1
    MAINSEND 1 0
    <FXCHAIN
      SHOW 0
      LASTSEL 0
      DOCKED 0
      BYPASS 0 0 0
      <VST "VSTi: FM8 (Native Instruments GmbH)" FM8.vst 0 "" 1315530296<5653544E696638666D38000000000000> ""
        OGZpTu5e7f4AAAAAAgAAAAEAAAAAAAAAAgAAAAAAAAAYBwAAAQAAAAAAEAA=
        GAcAAAAAAAABAAAAaHNpbgEAAAAAAAAAN455D8DDx0mHoN4j0l/0WZYAAAAAAAAARFNJTnYAAAABAAAASAAAAAAAAABEU0lOagAAAAEAAAAYAAAAAAAAAERTSU4BAAAA
        AQAAAAEAAAABAAAAAQAAAAEAAAAAAAAAAAAAAAAAAAANYmWFAQAAAAhwEAAAAAAAAQAAAAEAAAAAAAAAAAAAAAAAAAADAAAAMAAwADAAAAAAAAAAAAAAAAAAAAAAAAEA
        AAABAAAAAAAAAERTSU5lAAAARgYAAAAAAAABAAAAaHNpbgEAAAAAAAAAMOH4NwAUwEaoogAOyNUgkW0AAAAAAAAARFNJTmUAAAABAAAANAAAAAAAAABEU0lOagAAAAEA
        AAAYAAAAAAAAAERTSU4BAAAAAQAAAAEAAAABAAAAAgAAAAEAAAAACAAAAAEAAAAKAAAAMQAuADIALgAwAC4AMQAwADEAMAABAAAAAwAAAAAAAABEU0lObAAAAKgBAAAA
        AAAAAQAAAGhzaW4BAAAAAAAAACA7190CLVtKvWPIjKqbw/t4AQAAAAAAAERTSU5sAAAAAQAAABgAAAAAAAAARFNJTgEAAAABAAAAAQAAAAEAAAACAAAAAQAAAAAAAAAI
        AAAATgBlAHcAUwBvAHUAbgBkAAcAAABuAG8AdAAgAHMAZQB0AAAAAAAAAAAAAAAAAAAAAAAAAAAAAAAAAAAAAAAAAAAAAAAAAAEAAAABAAAAAQAAAAMAAABGAE0AOAAA
        AAAAAAAAAAcAAAAHAAAAXABAAGMAbwBsAG8AcgABAAAAMAARAAAAXABAAGQAZQB2AGkAYwBlAHQAeQBwAGUAZgBsAGEAZwBzAAEAAAAxAAsAAABcAEAAcwBvAHUAbgBk
        AHQAeQBwAGUAAQAAADAABwAAAFwAQAB0AGUAbQBwAG8AAQAAADAABgAAAFwAQAB2AGUAcgBsAAUAAAAxAC4ANwAuADgABgAAAFwAQAB2AGUAcgBtAAUAAAAxAC4ANwAu
        ADgABwAAAFwAQAB2AGkAcwBpAGIAAQAAADAAAQAAAAAAAAACAAAARFNJTnkAAABoAAAAAAAAAAEAAABoc2luAQAAAAAAAABG64vCmumHRIQ9Mih2ujahOAAAAAAAAABE
        U0lOeQAAAAEAAAAYAAAAAAAAAERTSU4BAAAAAQAAAAEAAAABAAAAAQAAAAAAAAABAAAAAAAAAAEAAABEU0lOdAAAAHUDAAAAAAAAAQAAAGhzaW4BAAAAAAAAAMPiDYJz
        LJxOuWtBgMMVvqRFAwAAAAAAAERTSU50AAAAAQAAACwDAAAAAAAARFNJTnMAAAABAAAAGAAAAAAAAABEU0lOAQAAAAEAAAABAAAAAQAAAAG9DwAA8wIAAAK9DwBgAAAB
        IAUDaHNpbkAHQAAQHyRrBvAZSEqYrqFXTcEPPBhAFCAAA0RTSU5AI+AHA0AAQBsAbSAIAWkPIAQgAEAj4ANTEEkCYzKs2sVGp2B2wrYRj5w5oCfAN0Av4BdnQCMB8Q4g
        XCAAAAUgAwFjDCAEIAAIdHNycEU4TUbPIAsEvCMAAAcgBwZkZWZhdWx04BgKICoAP+ACAwNBAACAIA8AoCAH4AsAAPAgF0AfwAAAICAPwABgFwVAAABIQgDgBABAD0AD
        4BcfYAAge+AEA0AAwBPgAwBAE+AAAAPNzMw+IAwDP5qZGUAXwAPgABcgCuAHG0ATQADgBwdAACATYKtAACALYANAAEALQAAg42AAwA9AB0AD4AMAwA9AB0ADwABAC8AD
        QADAC8AHQADgAwtAAEAP4AMAIA/Bn8AHAMjhDnPgHwDgAO/gDgBAX0ADwABBz8H7QAtAAwCgIINAB0AAALQgCwCWIAPgAwDAP0AHQAPAAEAz4MdLIAAAAcAAIAuAAAAC
        wACADuAdAOAALAD+4B0v4CEAABTgISrgMADBA+AKAGBTgAXgAABChuAXA+AeAOD9WSBZIkBBUgH6Q0AH4FUMQ9VAZwH6Q6BnBYA/zLyMK+BVDOABACBnBAA/ZmZmYAPg
        YwwgAABwJOwB/kJAdCAA4D4MosLgAFaAAKBjgADgOAwgYwRwwgAAhmC6JliAA0BW4EEMIGPgAE3g8AAAUCAA4Of8AP/gFwAABEERCggyAwAAQDIAAAA8QikgAwHwQmLY
        AAEgAYLiIAcgAkKVgAagCSA3oAkgSKAJKxegCQAG4AAJKwSgEyAAoAmASKAGoBPgwk/gSwAAEaBUA2tuYWJBMcAAAYAAIAAAGaARA2N0bmlMiwERJ2FcTFBAAEocAaBC
        4hMPTInAH00bwAvg/QDgvQABIACAAANzaXVnQiQA6CNxwAAAKiAIABkgAyOYYAAj0mAAB2dwdGNZVE1FQAwLDWJlhQEAAAAAAAAAAQAAAAABAAAAAAAAAA==
        ADxkaXNhYmxlZD4AEAAAAA==
      >
      PRESETNAME <disabled>
      FLOATPOS 0 0 0 0
      FXID {A79B3EDF-778F-2747-8DC6-EACF01D68BA8}
      WAK 0 0
    >
    <ITEM
      POSITION 0
      SNAPOFFS 0
      LENGTH 117.499953
      LOOP 1
      ALLTAKES 0
      FADEIN 1 0 0 1 0 0
      FADEOUT 1 0 0 1 0 0
      MUTE 0 0
      SEL 0
      IGUID {DC7DBAA4-8811-7D4D-AE17-B7165961D97D}
      IID 7
      NAME "xbox 360 portal 2 video game disc.mid"
      VOLPAN 1 0 1 -1
      SOFFS 0 0
      PLAYRATE 1 1 0 -1 0 0.0025
      CHANMODE 0
      GUID {23A5A796-B157-0241-9583-E00AD5FCAC04}
      <SOURCE MIDI
        HASDATA 1 128 QN
        CCINTERP 32
        POOLEDEVTS {07348E9E-EE66-7E43-91FB-0DBA7AE28A2D}
        E 0 96 32 30
        E 0 96 33 30
        E 38 86 33 30
        E 0 96 3a 30
        E 38 86 3a 30
        E 0 96 3a 30
        E 0 96 35 30
        E 115 86 35 30
        E 0 96 33 30
        E 38 86 33 30
        E 0 96 3a 30
        E 38 86 3a 30
        E 0 96 3a 30
        E 0 96 35 30
        E 115 86 35 30
        E 0 96 33 30
        E 38 86 33 30
        E 0 96 3a 30
        E 38 86 3a 30
        E 0 96 3a 30
        E 0 96 35 30
        E 115 86 35 30
        E 0 96 33 30
        E 38 86 33 30
        E 0 96 3a 30
        E 38 86 3a 30
        E 0 96 3a 30
        E 0 96 35 30
        E 115 86 35 30
        E 0 96 33 30
        E 38 86 33 30
        E 0 96 3a 30
        E 38 86 3a 30
        E 0 96 3a 30
        E 0 96 35 30
        E 115 86 35 30
        E 0 96 33 30
        E 38 86 33 30
        E 0 96 3a 30
        E 38 86 3a 30
        E 0 96 3a 30
        E 0 96 35 30
        E 115 86 35 30
        E 0 96 33 30
        E 38 86 33 30
        E 0 96 3a 30
        E 38 86 3a 30
        E 0 96 3a 30
        E 0 96 35 30
        E 115 86 35 30
        E 0 96 33 30
        E 38 86 33 30
        E 0 96 3a 30
        E 38 86 3a 30
        E 0 96 3a 30
        E 0 96 35 30
        E 115 86 35 30
        E 0 96 33 30
        E 38 86 33 30
        E 0 96 3a 30
        E 38 86 3a 30
        E 0 96 3a 30
        E 0 96 35 30
        E 115 86 35 30
        E 0 96 33 30
        E 38 86 33 30
        E 0 96 3a 30
        E 38 86 3a 30
        E 0 96 3a 30
        E 0 96 35 30
        E 115 86 35 30
        E 0 96 33 30
        E 38 86 33 30
        E 0 96 3a 30
        E 38 86 3a 30
        E 0 96 3a 30
        E 0 96 35 30
        E 115 86 35 30
        E 0 96 33 30
        E 38 86 33 30
        E 0 96 3a 30
        E 38 86 3a 30
        E 0 96 3a 30
        E 0 96 35 30
        E 115 86 35 30
        E 0 96 33 30
        E 38 86 33 30
        E 0 96 3a 30
        E 38 86 3a 30
        E 0 96 3a 30
        E 0 96 35 30
        E 115 86 35 30
        E 0 96 33 30
        E 38 86 33 30
        E 0 96 3a 30
        E 38 86 3a 30
        E 0 96 3a 30
        E 0 96 35 30
        E 115 86 35 30
        E 0 96 33 30
        E 38 86 33 30
        E 0 96 3a 30
        E 38 86 3a 30
        E 0 96 3a 30
        E 0 96 35 30
        E 115 86 35 30
        E 0 96 33 30
        E 38 86 33 30
        E 0 96 3a 30
        E 38 86 3a 30
        E 0 96 3a 30
        E 0 96 35 30
        E 115 86 35 30
        E 0 96 33 30
        E 38 86 33 30
        E 0 96 3a 30
        E 38 86 3a 30
        E 0 96 3a 30
        E 0 96 35 30
        E 115 86 35 30
        E 0 96 33 30
        E 38 86 33 30
        E 0 96 3a 30
        E 38 86 3a 30
        E 0 96 3a 30
        E 0 96 35 30
        E 115 86 35 30
        E 0 96 33 30
        E 38 86 33 30
        E 0 96 3a 30
        E 38 86 3a 30
        E 0 96 3a 30
        E 0 96 35 30
        E 115 86 35 30
        E 0 96 33 30
        E 38 86 33 30
        E 0 96 3a 30
        E 38 86 3a 30
        E 0 96 3a 30
        E 0 96 35 30
        E 115 86 35 30
        E 0 96 33 30
        E 38 86 33 30
        E 0 96 3a 30
        E 38 86 3a 30
        E 0 96 3a 30
        E 0 96 35 30
        E 115 86 35 30
        E 0 96 33 30
        E 38 86 33 30
        E 0 96 3a 30
        E 38 86 3a 30
        E 0 96 3a 30
        E 0 96 35 30
        E 115 86 35 30
        E 0 96 33 30
        E 38 86 33 30
        E 0 96 3a 30
        E 38 86 3a 30
        E 0 96 3a 30
        E 0 96 35 30
        E 115 86 35 30
        E 0 96 33 30
        E 38 86 33 30
        E 0 96 3a 30
        E 38 86 3a 30
        E 0 96 3a 30
        E 0 96 35 30
        E 115 86 35 30
        E 0 96 33 30
        E 38 86 33 30
        E 0 96 3a 30
        E 38 86 3a 30
        E 0 96 3a 30
        E 0 96 35 30
        E 115 86 35 30
        E 0 96 33 30
        E 38 86 33 30
        E 0 96 3a 30
        E 38 86 3a 30
        E 0 96 3a 30
        E 0 96 35 30
        E 115 86 35 30
        E 0 96 33 30
        E 38 86 33 30
        E 0 96 3a 30
        E 38 86 3a 30
        E 0 96 3a 30
        E 0 96 35 30
        E 115 86 35 30
        E 0 96 33 30
        E 38 86 33 30
        E 0 96 3a 30
        E 38 86 3a 30
        E 0 96 3a 30
        E 0 96 35 30
        E 115 86 35 30
        E 0 96 33 30
        E 38 86 33 30
        E 0 96 3a 30
        E 38 86 3a 30
        E 0 96 3a 30
        E 0 96 35 30
        E 115 86 35 30
        E 0 96 33 30
        E 38 86 33 30
        E 0 96 3a 30
        E 38 86 3a 30
        E 0 96 3a 30
        E 0 96 35 30
        E 115 86 35 30
        E 0 96 33 30
        E 38 86 33 30
        E 0 96 3a 30
        E 38 86 3a 30
        E 0 96 3a 30
        E 0 96 35 30
        E 115 86 35 30
        E 0 96 33 30
        E 38 86 33 30
        E 0 96 3a 30
        E 38 86 3a 30
        E 0 96 3a 30
        E 0 96 35 30
        E 115 86 35 30
        E 0 96 33 30
        E 38 86 33 30
        E 0 96 3a 30
        E 38 86 3a 30
        E 0 96 3a 30
        E 0 96 35 30
        E 115 86 35 30
        E 0 96 33 30
        E 38 86 33 30
        E 0 96 3a 30
        E 38 86 3a 30
        E 0 96 3a 30
        E 0 96 35 30
        E 115 86 35 30
        E 0 96 33 30
        E 38 86 33 30
        E 0 96 3a 30
        E 38 86 3a 30
        E 0 96 3a 30
        E 0 96 35 30
        E 115 86 35 30
        E 0 96 33 30
        E 38 86 33 30
        E 0 96 3a 30
        E 38 86 3a 30
        E 0 96 3a 30
        E 0 96 35 30
        E 115 86 35 30
        E 0 96 33 30
        E 38 86 33 30
        E 0 96 3a 30
        E 38 86 3a 30
        E 0 96 3a 30
        E 0 96 35 30
        E 115 86 35 30
        E 0 96 33 30
        E 38 86 33 30
        E 0 96 3a 30
        E 38 86 3a 30
        E 0 96 3a 30
        E 0 96 35 30
        E 115 86 35 30
        E 0 96 33 30
        E 38 86 33 30
        E 0 96 3a 30
        E 38 86 3a 30
        E 0 96 3a 30
        E 0 96 35 30
        E 115 86 35 30
        E 0 96 33 30
        E 38 86 33 30
        E 0 96 3a 30
        E 38 86 3a 30
        E 0 96 3a 30
        E 0 96 35 30
        E 115 86 35 30
        E 0 96 33 30
        E 38 86 33 30
        E 0 96 3a 30
        E 38 86 3a 30
        E 0 96 3a 30
        E 0 96 35 30
        E 115 86 35 30
        E 0 96 33 30
        E 38 86 33 30
        E 0 96 3a 30
        E 38 86 3a 30
        E 0 96 3a 30
        E 0 96 35 30
        E 115 86 35 30
        E 0 96 33 30
        E 38 86 33 30
        E 0 96 3a 30
        E 38 86 3a 30
        E 0 96 3a 30
        E 0 96 35 30
        E 115 86 35 30
        E 0 96 33 30
        E 38 86 33 30
        E 0 96 3a 30
        E 38 86 3a 30
        E 0 96 3a 30
        E 0 96 35 30
        E 115 86 35 30
        E 0 96 33 30
        E 38 86 33 30
        E 0 96 3a 30
        E 38 86 3a 30
        E 0 96 3a 30
        E 0 96 35 30
        E 115 86 35 30
        E 0 96 33 30
        E 38 86 33 30
        E 0 96 3a 30
        E 38 86 3a 30
        E 0 96 3a 30
        E 0 96 35 30
        E 115 86 35 30
        E 0 96 33 30
        E 38 86 33 30
        E 0 96 3a 30
        E 38 86 3a 30
        E 0 96 3a 30
        E 0 96 35 30
        E 115 86 35 30
        E 0 96 33 30
        E 38 86 33 30
        E 0 96 3a 30
        E 38 86 3a 30
        E 0 96 3a 30
        E 0 96 35 30
        E 115 86 35 30
        E 0 96 33 30
        E 38 86 33 30
        E 0 96 3a 30
        E 38 86 3a 30
        E 0 96 3a 30
        E 0 96 35 30
        E 115 86 35 30
        E 0 96 33 30
        E 38 86 33 30
        E 0 96 3a 30
        E 38 86 3a 30
        E 0 96 3a 30
        E 0 96 35 30
        E 115 86 35 30
        E 0 96 30 30
        E 76 86 30 30
        E 0 96 30 30
        E 76 86 30 30
        E 0 96 30 30
        E 76 86 30 30
        E 0 96 30 30
        E 76 86 30 30
        E 0 96 30 30
        E 76 86 30 30
        E 0 96 30 30
        E 76 86 30 30
        E 0 96 30 30
        E 76 86 30 30
        E 0 96 30 30
        E 76 86 30 30
        E 0 96 30 30
        E 76 86 30 30
        E 0 96 30 30
        E 76 86 30 30
        E 0 96 33 30
        E 38 86 33 30
        E 0 96 3a 30
        E 38 86 3a 30
        E 0 96 3a 30
        E 0 96 35 30
        E 115 86 35 30
        E 0 96 33 30
        E 38 86 33 30
        E 0 96 3a 30
        E 38 86 3a 30
        E 0 96 3a 30
        E 0 96 35 30
        E 115 86 35 30
        E 0 96 33 30
        E 38 86 33 30
        E 0 96 3a 30
        E 38 86 3a 30
        E 0 96 3a 30
        E 0 96 35 30
        E 115 86 35 30
        E 0 96 33 30
        E 38 86 33 30
        E 0 96 3a 30
        E 38 86 3a 30
        E 0 96 3a 30
        E 0 96 35 30
        E 115 86 35 30
        E 0 96 33 30
        E 38 86 33 30
        E 0 96 3a 30
        E 38 86 3a 30
        E 0 96 3a 30
        E 0 96 35 30
        E 115 86 35 30
        E 0 96 33 30
        E 38 86 33 30
        E 0 96 3a 30
        E 38 86 3a 30
        E 0 96 3a 30
        E 0 96 35 30
        E 115 86 35 30
        E 0 96 33 30
        E 38 86 33 30
        E 0 96 3a 30
        E 38 86 3a 30
        E 0 96 3a 30
        E 0 96 35 30
        E 115 86 35 30
        E 0 96 33 30
        E 38 86 33 30
        E 0 96 3a 30
        E 38 86 3a 30
        E 0 96 3a 30
        E 0 96 35 30
        E 115 86 35 30
        E 0 96 33 30
        E 38 86 33 30
        E 0 96 3a 30
        E 38 86 3a 30
        E 0 96 3a 30
        E 0 96 35 30
        E 115 86 35 30
        E 0 96 33 30
        E 38 86 33 30
        E 0 96 3a 30
        E 38 86 3a 30
        E 0 96 3a 30
        E 0 96 35 30
        E 115 86 35 30
        E 0 96 33 30
        E 38 86 33 30
        E 0 96 3a 30
        E 38 86 3a 30
        E 0 96 3a 30
        E 0 96 35 30
        E 115 86 35 30
        E 0 96 33 30
        E 38 86 33 30
        E 0 96 3a 30
        E 38 86 3a 30
        E 0 96 3a 30
        E 0 96 35 30
        E 115 86 35 30
        E 0 96 33 30
        E 38 86 33 30
        E 0 96 3a 30
        E 38 86 3a 30
        E 0 96 3a 30
        E 0 96 35 30
        E 115 86 35 30
        E 0 96 33 30
        E 38 86 33 30
        E 0 96 3a 30
        E 38 86 3a 30
        E 0 96 3a 30
        E 0 96 35 30
        E 115 86 35 30
        E 0 96 33 30
        E 38 86 33 30
        E 0 96 3a 30
        E 38 86 3a 30
        E 0 96 3a 30
        E 0 96 35 30
        E 115 86 35 30
        E 0 96 33 30
        E 38 86 33 30
        E 0 96 3a 30
        E 38 86 3a 30
        E 0 96 3a 30
        E 0 96 35 30
        E 115 86 35 30
        E 0 96 33 30
        E 38 86 33 30
        E 0 96 3a 30
        E 38 86 3a 30
        E 0 96 3a 30
        E 0 96 35 30
        E 115 86 35 30
        E 0 96 33 30
        E 38 86 33 30
        E 0 96 3a 30
        E 38 86 3a 30
        E 0 96 3a 30
        E 0 96 35 30
        E 115 86 35 30
        E 0 96 33 30
        E 38 86 33 30
        E 0 96 3a 30
        E 38 86 3a 30
        E 0 96 3a 30
        E 0 96 35 30
        E 115 86 35 30
        E 0 96 33 30
        E 38 86 33 30
        E 0 96 3a 30
        E 38 86 3a 30
        E 0 96 3a 30
        E 0 96 35 30
        E 115 86 35 30
        E 0 96 33 30
        E 38 86 33 30
        E 0 96 3a 30
        E 38 86 3a 30
        E 0 96 3a 30
        E 0 96 35 30
        E 115 86 35 30
        E 0 96 33 30
        E 38 86 33 30
        E 0 96 3a 30
        E 38 86 3a 30
        E 0 96 3a 30
        E 0 96 35 30
        E 115 86 35 30
        E 0 96 33 30
        E 38 86 33 30
        E 0 96 3a 30
        E 38 86 3a 30
        E 0 96 3a 30
        E 0 96 35 30
        E 115 86 35 30
        E 0 96 33 30
        E 38 86 33 30
        E 0 96 3a 30
        E 38 86 3a 30
        E 0 96 3a 30
        E 0 96 35 30
        E 115 86 35 30
        E 0 96 33 30
        E 38 86 33 30
        E 0 96 3a 30
        E 38 86 3a 30
        E 0 96 3a 30
        E 0 96 35 30
        E 115 86 35 30
        E 0 96 33 30
        E 38 86 33 30
        E 0 96 3a 30
        E 38 86 3a 30
        E 0 96 3a 30
        E 0 96 35 30
        E 115 86 35 30
        E 0 96 33 30
        E 38 86 33 30
        E 0 96 3a 30
        E 38 86 3a 30
        E 0 96 3a 30
        E 0 96 35 30
        E 115 86 35 30
        E 0 96 33 30
        E 38 86 33 30
        E 0 96 3a 30
        E 38 86 3a 30
        E 0 96 3a 30
        E 0 96 35 30
        E 115 86 35 30
        E 0 96 33 30
        E 38 86 33 30
        E 0 96 3a 30
        E 38 86 3a 30
        E 0 96 3a 30
        E 0 96 35 30
        E 115 86 35 30
        E 0 96 33 30
        E 38 86 33 30
        E 0 96 3a 30
        E 38 86 3a 30
        E 0 96 3a 30
        E 0 96 35 30
        E 115 86 35 30
        E 0 96 33 30
        E 38 86 33 30
        E 0 96 3a 30
        E 38 86 3a 30
        E 0 96 3a 30
        E 0 96 35 30
        E 115 86 35 30
        E 0 96 33 30
        E 38 86 33 30
        E 0 96 3a 30
        E 38 86 3a 30
        E 0 96 3a 30
        E 0 96 35 30
        E 115 86 35 30
        E 0 96 33 30
        E 38 86 33 30
        E 0 96 3a 30
        E 38 86 3a 30
        E 0 96 3a 30
        E 0 96 35 30
        E 115 86 35 30
        E 0 96 33 30
        E 38 86 33 30
        E 0 96 3a 30
        E 38 86 3a 30
        E 0 96 3a 30
        E 0 96 35 30
        E 115 86 35 30
        E 0 96 33 30
        E 38 86 33 30
        E 0 96 3a 30
        E 38 86 3a 30
        E 0 96 3a 30
        E 0 96 35 30
        E 115 86 35 30
        E 0 96 33 30
        E 38 86 33 30
        E 0 96 3a 30
        E 38 86 3a 30
        E 0 96 3a 30
        E 0 96 35 30
        E 115 86 35 30
        E 0 96 33 30
        E 38 86 33 30
        E 0 96 3a 30
        E 38 86 3a 30
        E 0 96 3a 30
        E 0 96 35 30
        E 115 86 35 30
        E 0 96 33 30
        E 38 86 33 30
        E 0 96 3a 30
        E 38 86 3a 30
        E 0 96 3a 30
        E 0 96 35 30
        E 115 86 35 30
        E 0 96 33 30
        E 38 86 33 30
        E 0 96 3a 30
        E 38 86 3a 30
        E 0 96 3a 30
        E 0 96 35 30
        E 115 86 35 30
        E 0 96 33 30
        E 38 86 33 30
        E 0 96 3a 30
        E 38 86 3a 30
        E 0 96 3a 30
        E 0 96 35 30
        E 115 86 35 30
        E 98 b0 7b 00
        CCINTERP 32
        CHASE_CC_TAKEOFFS 1
        GUID {1CA0C467-23CA-D64D-A053-7A974B64233A}
        IGNTEMPO 0 120 4 4
        SRCCOLOR 404
        VELLANE 3 601 0
        VELLANE -1 196 0
      >
    >
  >
  <TRACK {FA2759FA-D4DD-8C4D-A6C4-8B5D11C6FFA9}
    NAME "xbox 360 portal 2 video game disc"
    PEAKCOL 16576
    BEAT -1
    AUTOMODE 0
    VOLPAN 1 0 -1 -1 1
    MUTESOLO 0 0 0
    IPHASE 0
    PLAYOFFS 0 1
    ISBUS 0 0
    BUSCOMP 0 0 0 0 0
    SHOWINMIX 1 0.6667 0.5 1 0.5 0 -1 0
    FREEMODE 0
    SEL 0
    REC 0 0 1 0 0 0 0
    VU 2
    TRACKHEIGHT 0 0 0 0 -1 0
    INQ 0 0 0 0.5 100 0 0 100
    NCHAN 2
    FX 1
    TRACKID {FA2759FA-D4DD-8C4D-A6C4-8B5D11C6FFA9}
    PERF 0
    MIDIOUT -1
    MAINSEND 1 0
    <FXCHAIN
      SHOW 0
      LASTSEL 0
      DOCKED 0
      BYPASS 0 0 0
      <VST "VSTi: FM8 (Native Instruments GmbH)" FM8.vst 0 "" 1315530296<5653544E696638666D38000000000000> ""
        OGZpTu5e7f4AAAAAAgAAAAEAAAAAAAAAAgAAAAAAAAAYBwAAAQAAAAAAEAA=
        GAcAAAAAAAABAAAAaHNpbgEAAAAAAAAAN455D8DDx0mHoN4j0l/0WZYAAAAAAAAARFNJTnYAAAABAAAASAAAAAAAAABEU0lOagAAAAEAAAAYAAAAAAAAAERTSU4BAAAA
        AQAAAAEAAAABAAAAAQAAAAEAAAAAAAAAAAAAAAAAAAANYmWFAQAAAAhwEAAAAAAAAQAAAAEAAAAAAAAAAAAAAAAAAAADAAAAMAAwADAAAAAAAAAAAAAAAAAAAAAAAAEA
        AAABAAAAAAAAAERTSU5lAAAARgYAAAAAAAABAAAAaHNpbgEAAAAAAAAAMOH4NwAUwEaoogAOyNUgkW0AAAAAAAAARFNJTmUAAAABAAAANAAAAAAAAABEU0lOagAAAAEA
        AAAYAAAAAAAAAERTSU4BAAAAAQAAAAEAAAABAAAAAgAAAAEAAAAACAAAAAEAAAAKAAAAMQAuADIALgAwAC4AMQAwADEAMAABAAAAAwAAAAAAAABEU0lObAAAAKgBAAAA
        AAAAAQAAAGhzaW4BAAAAAAAAACA7190CLVtKvWPIjKqbw/t4AQAAAAAAAERTSU5sAAAAAQAAABgAAAAAAAAARFNJTgEAAAABAAAAAQAAAAEAAAACAAAAAQAAAAAAAAAI
        AAAATgBlAHcAUwBvAHUAbgBkAAcAAABuAG8AdAAgAHMAZQB0AAAAAAAAAAAAAAAAAAAAAAAAAAAAAAAAAAAAAAAAAAAAAAAAAAEAAAABAAAAAQAAAAMAAABGAE0AOAAA
        AAAAAAAAAAcAAAAHAAAAXABAAGMAbwBsAG8AcgABAAAAMAARAAAAXABAAGQAZQB2AGkAYwBlAHQAeQBwAGUAZgBsAGEAZwBzAAEAAAAxAAsAAABcAEAAcwBvAHUAbgBk
        AHQAeQBwAGUAAQAAADAABwAAAFwAQAB0AGUAbQBwAG8AAQAAADAABgAAAFwAQAB2AGUAcgBsAAUAAAAxAC4ANwAuADgABgAAAFwAQAB2AGUAcgBtAAUAAAAxAC4ANwAu
        ADgABwAAAFwAQAB2AGkAcwBpAGIAAQAAADAAAQAAAAAAAAACAAAARFNJTnkAAABoAAAAAAAAAAEAAABoc2luAQAAAAAAAABG64vCmumHRIQ9Mih2ujahOAAAAAAAAABE
        U0lOeQAAAAEAAAAYAAAAAAAAAERTSU4BAAAAAQAAAAEAAAABAAAAAQAAAAAAAAABAAAAAAAAAAEAAABEU0lOdAAAAHUDAAAAAAAAAQAAAGhzaW4BAAAAAAAAAMPiDYJz
        LJxOuWtBgMMVvqRFAwAAAAAAAERTSU50AAAAAQAAACwDAAAAAAAARFNJTnMAAAABAAAAGAAAAAAAAABEU0lOAQAAAAEAAAABAAAAAQAAAAG9DwAA8wIAAAK9DwBgAAAB
        IAUDaHNpbkAHQAAQHyRrBvAZSEqYrqFXTcEPPBhAFCAAA0RTSU5AI+AHA0AAQBsAbSAIAWkPIAQgAEAj4ANTEEkCYzKs2sVGp2B2wrYRj5w5oCfAN0Av4BdnQCMB8Q4g
        XCAAAAUgAwFjDCAEIAAIdHNycEU4TUbPIAsEvCMAAAcgBwZkZWZhdWx04BgKICoAP+ACAwNBAACAIA8AoCAH4AsAAPAgF0AfwAAAICAPwABgFwVAAABIQgDgBABAD0AD
        4BcfYAAge+AEA0AAwBPgAwBAE+AAAAPNzMw+IAwDP5qZGUAXwAPgABcgCuAHG0ATQADgBwdAACATYKtAACALYANAAEALQAAg42AAwA9AB0AD4AMAwA9AB0ADwABAC8AD
        QADAC8AHQADgAwtAAEAP4AMAIA/Bn8AHAMjhDnPgHwDgAO/gDgBAX0ADwABBz8H7QAtAAwCgIINAB0AAALQgCwCWIAPgAwDAP0AHQAPAAEAz4MdLIAAAAcAAIAuAAAAC
        wACADuAdAOAALAD+4B0v4CEAABTgISrgMADBA+AKAGBTgAXgAABChuAXA+AeAOD9WSBZIkBBUgH6Q0AH4FUMQ9VAZwH6Q6BnBYA/zLyMK+BVDOABACBnBAA/ZmZmYAPg
        YwwgAABwJOwB/kJAdCAA4D4MosLgAFaAAKBjgADgOAwgYwRwwgAAhmC6JliAA0BW4EEMIGPgAE3g8AAAUCAA4Of8AP/gFwAABEERCggyAwAAQDIAAAA8QikgAwHwQmLY
        AAEgAYLiIAcgAkKVgAagCSA3oAkgSKAJKxegCQAG4AAJKwSgEyAAoAmASKAGoBPgwk/gSwAAEaBUA2tuYWJBMcAAAYAAIAAAGaARA2N0bmlMiwERJ2FcTFBAAEocAaBC
        4hMPTInAH00bwAvg/QDgvQABIACAAANzaXVnQiQA6CNxwAAAKiAIABkgAyOYYAAj0mAAB2dwdGNZVE1FQAwLDWJlhQEAAAAAAAAAAQAAAAABAAAAAAAAAA==
        ADxkaXNhYmxlZD4AEAAAAA==
      >
      PRESETNAME <disabled>
      FLOATPOS 0 0 0 0
      FXID {90744AB9-0CAD-A346-B860-EFBEDF0A568B}
      WAK 0 0
    >
    <ITEM
      POSITION 239.99990400003841
      SNAPOFFS 0
      LENGTH 117.49995299996161
      LOOP 1
      ALLTAKES 0
      FADEIN 1 0 0 1 0 0
      FADEOUT 1 0 0 1 0 0
      MUTE 0 0
      SEL 0
      IGUID {BE7E5092-98A0-AC41-A5DB-80E960C6C63E}
      IID 104
      NAME "xbox 360 portal 2 video game disc.mid"
      VOLPAN 1 0 1 -1
      SOFFS 0 0
      PLAYRATE 1 1 0 -1 0 0.0025
      CHANMODE 0
      GUID {C9FBB476-C655-AF46-85CC-E4F1EC78CFA1}
      <SOURCE MIDI
        HASDATA 1 128 QN
        CCINTERP 32
        POOLEDEVTS {BF342679-0BB6-DB44-B879-4F7B1C49C32C}
        E 0 97 32 30
        E 0 97 33 30
        E 42 87 33 30
        E 0 97 3a 30
        E 42 87 3a 30
        E 0 97 3a 30
        E 0 97 35 30
        E 128 87 35 30
        E 0 97 33 30
        E 42 87 33 30
        E 0 97 3a 30
        E 42 87 3a 30
        E 0 97 3a 30
        E 0 97 35 30
        E 128 87 35 30
        E 0 97 33 30
        E 42 87 33 30
        E 0 97 3a 30
        E 42 87 3a 30
        E 0 97 3a 30
        E 0 97 35 30
        E 128 87 35 30
        E 0 97 33 30
        E 42 87 33 30
        E 0 97 3a 30
        E 42 87 3a 30
        E 0 97 3a 30
        E 0 97 35 30
        E 128 87 35 30
        E 0 97 33 30
        E 42 87 33 30
        E 0 97 3a 30
        E 42 87 3a 30
        E 0 97 3a 30
        E 0 97 35 30
        E 128 87 35 30
        E 0 97 33 30
        E 42 87 33 30
        E 0 97 3a 30
        E 42 87 3a 30
        E 0 97 3a 30
        E 0 97 35 30
        E 128 87 35 30
        E 0 97 33 30
        E 42 87 33 30
        E 0 97 3a 30
        E 42 87 3a 30
        E 0 97 3a 30
        E 0 97 35 30
        E 128 87 35 30
        E 0 97 33 30
        E 42 87 33 30
        E 0 97 3a 30
        E 42 87 3a 30
        E 0 97 3a 30
        E 0 97 35 30
        E 128 87 35 30
        E 0 97 33 30
        E 42 87 33 30
        E 0 97 3a 30
        E 42 87 3a 30
        E 0 97 3a 30
        E 0 97 35 30
        E 128 87 35 30
        E 0 97 33 30
        E 42 87 33 30
        E 0 97 3a 30
        E 42 87 3a 30
        E 0 97 3a 30
        E 0 97 35 30
        E 128 87 35 30
        E 0 97 33 30
        E 42 87 33 30
        E 0 97 3a 30
        E 42 87 3a 30
        E 0 97 3a 30
        E 0 97 35 30
        E 128 87 35 30
        E 0 97 33 30
        E 42 87 33 30
        E 0 97 3a 30
        E 42 87 3a 30
        E 0 97 3a 30
        E 0 97 35 30
        E 128 87 35 30
        E 0 97 33 30
        E 42 87 33 30
        E 0 97 3a 30
        E 42 87 3a 30
        E 0 97 3a 30
        E 0 97 35 30
        E 128 87 35 30
        E 0 97 33 30
        E 42 87 33 30
        E 0 97 3a 30
        E 42 87 3a 30
        E 0 97 3a 30
        E 0 97 35 30
        E 128 87 35 30
        E 0 97 33 30
        E 42 87 33 30
        E 0 97 3a 30
        E 42 87 3a 30
        E 0 97 3a 30
        E 0 97 35 30
        E 128 87 35 30
        E 0 97 33 30
        E 42 87 33 30
        E 0 97 3a 30
        E 42 87 3a 30
        E 0 97 3a 30
        E 0 97 35 30
        E 128 87 35 30
        E 0 97 33 30
        E 42 87 33 30
        E 0 97 3a 30
        E 42 87 3a 30
        E 0 97 3a 30
        E 0 97 35 30
        E 128 87 35 30
        E 0 97 33 30
        E 42 87 33 30
        E 0 97 3a 30
        E 42 87 3a 30
        E 0 97 3a 30
        E 0 97 35 30
        E 128 87 35 30
        E 0 97 33 30
        E 42 87 33 30
        E 0 97 3a 30
        E 42 87 3a 30
        E 0 97 3a 30
        E 0 97 35 30
        E 128 87 35 30
        E 0 97 33 30
        E 42 87 33 30
        E 0 97 3a 30
        E 42 87 3a 30
        E 0 97 3a 30
        E 0 97 35 30
        E 128 87 35 30
        E 0 97 33 30
        E 42 87 33 30
        E 0 97 3a 30
        E 42 87 3a 30
        E 0 97 3a 30
        E 0 97 35 30
        E 128 87 35 30
        E 0 97 33 30
        E 42 87 33 30
        E 0 97 3a 30
        E 42 87 3a 30
        E 0 97 3a 30
        E 0 97 35 30
        E 128 87 35 30
        E 0 97 33 30
        E 42 87 33 30
        E 0 97 3a 30
        E 42 87 3a 30
        E 0 97 3a 30
        E 0 97 35 30
        E 128 87 35 30
        E 0 97 33 30
        E 42 87 33 30
        E 0 97 3a 30
        E 42 87 3a 30
        E 0 97 3a 30
        E 0 97 35 30
        E 128 87 35 30
        E 0 97 33 30
        E 42 87 33 30
        E 0 97 3a 30
        E 42 87 3a 30
        E 0 97 3a 30
        E 0 97 35 30
        E 128 87 35 30
        E 0 97 33 30
        E 42 87 33 30
        E 0 97 3a 30
        E 42 87 3a 30
        E 0 97 3a 30
        E 0 97 35 30
        E 128 87 35 30
        E 0 97 33 30
        E 42 87 33 30
        E 0 97 3a 30
        E 42 87 3a 30
        E 0 97 3a 30
        E 0 97 35 30
        E 128 87 35 30
        E 0 97 33 30
        E 42 87 33 30
        E 0 97 3a 30
        E 42 87 3a 30
        E 0 97 3a 30
        E 0 97 35 30
        E 128 87 35 30
        E 0 97 33 30
        E 42 87 33 30
        E 0 97 3a 30
        E 42 87 3a 30
        E 0 97 3a 30
        E 0 97 35 30
        E 128 87 35 30
        E 0 97 33 30
        E 42 87 33 30
        E 0 97 3a 30
        E 42 87 3a 30
        E 0 97 3a 30
        E 0 97 35 30
        E 128 87 35 30
        E 0 97 33 30
        E 42 87 33 30
        E 0 97 3a 30
        E 42 87 3a 30
        E 0 97 3a 30
        E 0 97 35 30
        E 128 87 35 30
        E 0 97 33 30
        E 42 87 33 30
        E 0 97 3a 30
        E 42 87 3a 30
        E 0 97 3a 30
        E 0 97 35 30
        E 128 87 35 30
        E 0 97 33 30
        E 42 87 33 30
        E 0 97 3a 30
        E 42 87 3a 30
        E 0 97 3a 30
        E 0 97 35 30
        E 128 87 35 30
        E 0 97 33 30
        E 42 87 33 30
        E 0 97 3a 30
        E 42 87 3a 30
        E 0 97 3a 30
        E 0 97 35 30
        E 128 87 35 30
        E 0 97 33 30
        E 42 87 33 30
        E 0 97 3a 30
        E 42 87 3a 30
        E 0 97 3a 30
        E 0 97 35 30
        E 128 87 35 30
        E 0 97 33 30
        E 42 87 33 30
        E 0 97 3a 30
        E 42 87 3a 30
        E 0 97 3a 30
        E 0 97 35 30
        E 128 87 35 30
        E 0 97 33 30
        E 42 87 33 30
        E 0 97 3a 30
        E 42 87 3a 30
        E 0 97 3a 30
        E 0 97 35 30
        E 128 87 35 30
        E 0 97 33 30
        E 42 87 33 30
        E 0 97 3a 30
        E 42 87 3a 30
        E 0 97 3a 30
        E 0 97 35 30
        E 128 87 35 30
        E 0 97 33 30
        E 42 87 33 30
        E 0 97 3a 30
        E 42 87 3a 30
        E 0 97 3a 30
        E 0 97 35 30
        E 128 87 35 30
        E 0 97 33 30
        E 42 87 33 30
        E 0 97 3a 30
        E 42 87 3a 30
        E 0 97 3a 30
        E 0 97 35 30
        E 128 87 35 30
        E 0 97 33 30
        E 42 87 33 30
        E 0 97 3a 30
        E 42 87 3a 30
        E 0 97 3a 30
        E 0 97 35 30
        E 128 87 35 30
        E 0 97 33 30
        E 42 87 33 30
        E 0 97 3a 30
        E 42 87 3a 30
        E 0 97 3a 30
        E 0 97 35 30
        E 128 87 35 30
        E 0 97 33 30
        E 42 87 33 30
        E 0 97 3a 30
        E 42 87 3a 30
        E 0 97 3a 30
        E 0 97 35 30
        E 128 87 35 30
        E 0 97 33 30
        E 42 87 33 30
        E 0 97 3a 30
        E 42 87 3a 30
        E 0 97 3a 30
        E 0 97 35 30
        E 128 87 35 30
        E 0 97 33 30
        E 42 87 33 30
        E 0 97 3a 30
        E 42 87 3a 30
        E 0 97 3a 30
        E 0 97 35 30
        E 128 87 35 30
        E 0 97 30 30
        E 85 87 30 30
        E 0 97 30 30
        E 85 87 30 30
        E 0 97 30 30
        E 85 87 30 30
        E 0 97 30 30
        E 85 87 30 30
        E 0 97 30 30
        E 85 87 30 30
        E 0 97 30 30
        E 85 87 30 30
        E 0 97 30 30
        E 85 87 30 30
        E 0 97 30 30
        E 85 87 30 30
        E 0 97 30 30
        E 85 87 30 30
        E 0 97 33 30
        E 42 87 33 30
        E 0 97 3a 30
        E 42 87 3a 30
        E 0 97 3a 30
        E 0 97 35 30
        E 128 87 35 30
        E 0 97 33 30
        E 42 87 33 30
        E 0 97 3a 30
        E 42 87 3a 30
        E 0 97 3a 30
        E 0 97 35 30
        E 128 87 35 30
        E 0 97 33 30
        E 42 87 33 30
        E 0 97 3a 30
        E 42 87 3a 30
        E 0 97 3a 30
        E 0 97 35 30
        E 128 87 35 30
        E 0 97 33 30
        E 42 87 33 30
        E 0 97 3a 30
        E 42 87 3a 30
        E 0 97 3a 30
        E 0 97 35 30
        E 128 87 35 30
        E 0 97 33 30
        E 42 87 33 30
        E 0 97 3a 30
        E 42 87 3a 30
        E 0 97 3a 30
        E 0 97 35 30
        E 128 87 35 30
        E 0 97 33 30
        E 42 87 33 30
        E 0 97 3a 30
        E 42 87 3a 30
        E 0 97 3a 30
        E 0 97 35 30
        E 128 87 35 30
        E 0 97 33 30
        E 42 87 33 30
        E 0 97 3a 30
        E 42 87 3a 30
        E 0 97 3a 30
        E 0 97 35 30
        E 128 87 35 30
        E 0 97 33 30
        E 42 87 33 30
        E 0 97 3a 30
        E 42 87 3a 30
        E 0 97 3a 30
        E 0 97 35 30
        E 128 87 35 30
        E 0 97 33 30
        E 42 87 33 30
        E 0 97 3a 30
        E 42 87 3a 30
        E 0 97 3a 30
        E 0 97 35 30
        E 128 87 35 30
        E 0 97 33 30
        E 42 87 33 30
        E 0 97 3a 30
        E 42 87 3a 30
        E 0 97 3a 30
        E 0 97 35 30
        E 128 87 35 30
        E 0 97 33 30
        E 42 87 33 30
        E 0 97 3a 30
        E 42 87 3a 30
        E 0 97 3a 30
        E 0 97 35 30
        E 128 87 35 30
        E 0 97 33 30
        E 42 87 33 30
        E 0 97 3a 30
        E 42 87 3a 30
        E 0 97 3a 30
        E 0 97 35 30
        E 128 87 35 30
        E 0 97 33 30
        E 42 87 33 30
        E 0 97 3a 30
        E 42 87 3a 30
        E 0 97 3a 30
        E 0 97 35 30
        E 128 87 35 30
        E 0 97 33 30
        E 42 87 33 30
        E 0 97 3a 30
        E 42 87 3a 30
        E 0 97 3a 30
        E 0 97 35 30
        E 128 87 35 30
        E 0 97 33 30
        E 42 87 33 30
        E 0 97 3a 30
        E 42 87 3a 30
        E 0 97 3a 30
        E 0 97 35 30
        E 128 87 35 30
        E 0 97 33 30
        E 42 87 33 30
        E 0 97 3a 30
        E 42 87 3a 30
        E 0 97 3a 30
        E 0 97 35 30
        E 128 87 35 30
        E 0 97 33 30
        E 42 87 33 30
        E 0 97 3a 30
        E 42 87 3a 30
        E 0 97 3a 30
        E 0 97 35 30
        E 128 87 35 30
        E 0 97 33 30
        E 42 87 33 30
        E 0 97 3a 30
        E 42 87 3a 30
        E 0 97 3a 30
        E 0 97 35 30
        E 128 87 35 30
        E 0 97 33 30
        E 42 87 33 30
        E 0 97 3a 30
        E 42 87 3a 30
        E 0 97 3a 30
        E 0 97 35 30
        E 128 87 35 30
        E 0 97 33 30
        E 42 87 33 30
        E 0 97 3a 30
        E 42 87 3a 30
        E 0 97 3a 30
        E 0 97 35 30
        E 128 87 35 30
        E 0 97 33 30
        E 42 87 33 30
        E 0 97 3a 30
        E 42 87 3a 30
        E 0 97 3a 30
        E 0 97 35 30
        E 128 87 35 30
        E 0 97 33 30
        E 42 87 33 30
        E 0 97 3a 30
        E 42 87 3a 30
        E 0 97 3a 30
        E 0 97 35 30
        E 128 87 35 30
        E 0 97 33 30
        E 42 87 33 30
        E 0 97 3a 30
        E 42 87 3a 30
        E 0 97 3a 30
        E 0 97 35 30
        E 128 87 35 30
        E 0 97 33 30
        E 42 87 33 30
        E 0 97 3a 30
        E 42 87 3a 30
        E 0 97 3a 30
        E 0 97 35 30
        E 128 87 35 30
        E 0 97 33 30
        E 42 87 33 30
        E 0 97 3a 30
        E 42 87 3a 30
        E 0 97 3a 30
        E 0 97 35 30
        E 128 87 35 30
        E 0 97 33 30
        E 42 87 33 30
        E 0 97 3a 30
        E 42 87 3a 30
        E 0 97 3a 30
        E 0 97 35 30
        E 128 87 35 30
        E 0 97 33 30
        E 42 87 33 30
        E 0 97 3a 30
        E 42 87 3a 30
        E 0 97 3a 30
        E 0 97 35 30
        E 128 87 35 30
        E 0 97 33 30
        E 42 87 33 30
        E 0 97 3a 30
        E 42 87 3a 30
        E 0 97 3a 30
        E 0 97 35 30
        E 128 87 35 30
        E 0 97 33 30
        E 42 87 33 30
        E 0 97 3a 30
        E 42 87 3a 30
        E 0 97 3a 30
        E 0 97 35 30
        E 128 87 35 30
        E 0 97 33 30
        E 42 87 33 30
        E 0 97 3a 30
        E 42 87 3a 30
        E 0 97 3a 30
        E 0 97 35 30
        E 128 87 35 30
        E 0 97 33 30
        E 42 87 33 30
        E 0 97 3a 30
        E 42 87 3a 30
        E 0 97 3a 30
        E 0 97 35 30
        E 128 87 35 30
        E 0 97 33 30
        E 42 87 33 30
        E 0 97 3a 30
        E 42 87 3a 30
        E 0 97 3a 30
        E 0 97 35 30
        E 128 87 35 30
        E 0 97 33 30
        E 42 87 33 30
        E 0 97 3a 30
        E 42 87 3a 30
        E 0 97 3a 30
        E 0 97 35 30
        E 128 87 35 30
        E 0 97 33 30
        E 42 87 33 30
        E 0 97 3a 30
        E 42 87 3a 30
        E 0 97 3a 30
        E 0 97 35 30
        E 128 87 35 30
        E 0 97 33 30
        E 42 87 33 30
        E 0 97 3a 30
        E 42 87 3a 30
        E 0 97 3a 30
        E 0 97 35 30
        E 128 87 35 30
        E 0 97 33 30
        E 42 87 33 30
        E 0 97 3a 30
        E 42 87 3a 30
        E 0 97 3a 30
        E 0 97 35 30
        E 128 87 35 30
        E 111 b0 7b 00
        CCINTERP 32
        CHASE_CC_TAKEOFFS 1
        GUID {ACBFF4AB-71BD-2544-A8D1-40A9EB01B03C}
        IGNTEMPO 0 120 4 4
        SRCCOLOR 962
        VELLANE 3 156 0
        VELLANE -1 196 0
      >
    >
  >
  <TRACK {DC4581A6-11F9-C243-BE87-7F352642E363}
    NAME "xbox 360 portal 2 video game disc"
    PEAKCOL 16576
    BEAT -1
    AUTOMODE 0
    VOLPAN 1 0 -1 -1 1
    MUTESOLO 0 0 0
    IPHASE 0
    PLAYOFFS 0 1
    ISBUS 0 0
    BUSCOMP 0 0 0 0 0
    SHOWINMIX 1 0.6667 0.5 1 0.5 0 -1 0
    FREEMODE 0
    SEL 0
    REC 0 0 1 0 0 0 0
    VU 2
    TRACKHEIGHT 0 0 0 0 -1 0
    INQ 0 0 0 0.5 100 0 0 100
    NCHAN 2
    FX 1
    TRACKID {DC4581A6-11F9-C243-BE87-7F352642E363}
    PERF 0
    MIDIOUT -1
    MAINSEND 1 0
    <FXCHAIN
      SHOW 0
      LASTSEL 0
      DOCKED 0
      BYPASS 0 0 0
      <VST "VSTi: FM8 (Native Instruments GmbH)" FM8.vst 0 "" 1315530296<5653544E696638666D38000000000000> ""
        OGZpTu5e7f4AAAAAAgAAAAEAAAAAAAAAAgAAAAAAAAAYBwAAAQAAAAAAEAA=
        GAcAAAAAAAABAAAAaHNpbgEAAAAAAAAAN455D8DDx0mHoN4j0l/0WZYAAAAAAAAARFNJTnYAAAABAAAASAAAAAAAAABEU0lOagAAAAEAAAAYAAAAAAAAAERTSU4BAAAA
        AQAAAAEAAAABAAAAAQAAAAEAAAAAAAAAAAAAAAAAAAANYmWFAQAAAAhwEAAAAAAAAQAAAAEAAAAAAAAAAAAAAAAAAAADAAAAMAAwADAAAAAAAAAAAAAAAAAAAAAAAAEA
        AAABAAAAAAAAAERTSU5lAAAARgYAAAAAAAABAAAAaHNpbgEAAAAAAAAAMOH4NwAUwEaoogAOyNUgkW0AAAAAAAAARFNJTmUAAAABAAAANAAAAAAAAABEU0lOagAAAAEA
        AAAYAAAAAAAAAERTSU4BAAAAAQAAAAEAAAABAAAAAgAAAAEAAAAACAAAAAEAAAAKAAAAMQAuADIALgAwAC4AMQAwADEAMAABAAAAAwAAAAAAAABEU0lObAAAAKgBAAAA
        AAAAAQAAAGhzaW4BAAAAAAAAACA7190CLVtKvWPIjKqbw/t4AQAAAAAAAERTSU5sAAAAAQAAABgAAAAAAAAARFNJTgEAAAABAAAAAQAAAAEAAAACAAAAAQAAAAAAAAAI
        AAAATgBlAHcAUwBvAHUAbgBkAAcAAABuAG8AdAAgAHMAZQB0AAAAAAAAAAAAAAAAAAAAAAAAAAAAAAAAAAAAAAAAAAAAAAAAAAEAAAABAAAAAQAAAAMAAABGAE0AOAAA
        AAAAAAAAAAcAAAAHAAAAXABAAGMAbwBsAG8AcgABAAAAMAARAAAAXABAAGQAZQB2AGkAYwBlAHQAeQBwAGUAZgBsAGEAZwBzAAEAAAAxAAsAAABcAEAAcwBvAHUAbgBk
        AHQAeQBwAGUAAQAAADAABwAAAFwAQAB0AGUAbQBwAG8AAQAAADAABgAAAFwAQAB2AGUAcgBsAAUAAAAxAC4ANwAuADgABgAAAFwAQAB2AGUAcgBtAAUAAAAxAC4ANwAu
        ADgABwAAAFwAQAB2AGkAcwBpAGIAAQAAADAAAQAAAAAAAAACAAAARFNJTnkAAABoAAAAAAAAAAEAAABoc2luAQAAAAAAAABG64vCmumHRIQ9Mih2ujahOAAAAAAAAABE
        U0lOeQAAAAEAAAAYAAAAAAAAAERTSU4BAAAAAQAAAAEAAAABAAAAAQAAAAAAAAABAAAAAAAAAAEAAABEU0lOdAAAAHUDAAAAAAAAAQAAAGhzaW4BAAAAAAAAAMPiDYJz
        LJxOuWtBgMMVvqRFAwAAAAAAAERTSU50AAAAAQAAACwDAAAAAAAARFNJTnMAAAABAAAAGAAAAAAAAABEU0lOAQAAAAEAAAABAAAAAQAAAAG9DwAA8wIAAAK9DwBgAAAB
        IAUDaHNpbkAHQAAQHyRrBvAZSEqYrqFXTcEPPBhAFCAAA0RTSU5AI+AHA0AAQBsAbSAIAWkPIAQgAEAj4ANTEEkCYzKs2sVGp2B2wrYRj5w5oCfAN0Av4BdnQCMB8Q4g
        XCAAAAUgAwFjDCAEIAAIdHNycEU4TUbPIAsEvCMAAAcgBwZkZWZhdWx04BgKICoAP+ACAwNBAACAIA8AoCAH4AsAAPAgF0AfwAAAICAPwABgFwVAAABIQgDgBABAD0AD
        4BcfYAAge+AEA0AAwBPgAwBAE+AAAAPNzMw+IAwDP5qZGUAXwAPgABcgCuAHG0ATQADgBwdAACATYKtAACALYANAAEALQAAg42AAwA9AB0AD4AMAwA9AB0ADwABAC8AD
        QADAC8AHQADgAwtAAEAP4AMAIA/Bn8AHAMjhDnPgHwDgAO/gDgBAX0ADwABBz8H7QAtAAwCgIINAB0AAALQgCwCWIAPgAwDAP0AHQAPAAEAz4MdLIAAAAcAAIAuAAAAC
        wACADuAdAOAALAD+4B0v4CEAABTgISrgMADBA+AKAGBTgAXgAABChuAXA+AeAOD9WSBZIkBBUgH6Q0AH4FUMQ9VAZwH6Q6BnBYA/zLyMK+BVDOABACBnBAA/ZmZmYAPg
        YwwgAABwJOwB/kJAdCAA4D4MosLgAFaAAKBjgADgOAwgYwRwwgAAhmC6JliAA0BW4EEMIGPgAE3g8AAAUCAA4Of8AP/gFwAABEERCggyAwAAQDIAAAA8QikgAwHwQmLY
        AAEgAYLiIAcgAkKVgAagCSA3oAkgSKAJKxegCQAG4AAJKwSgEyAAoAmASKAGoBPgwk/gSwAAEaBUA2tuYWJBMcAAAYAAIAAAGaARA2N0bmlMiwERJ2FcTFBAAEocAaBC
        4hMPTInAH00bwAvg/QDgvQABIACAAANzaXVnQiQA6CNxwAAAKiAIABkgAyOYYAAj0mAAB2dwdGNZVE1FQAwLDWJlhQEAAAAAAAAAAQAAAAABAAAAAAAAAA==
        ADxkaXNhYmxlZD4AEAAAAA==
      >
      PRESETNAME <disabled>
      FLOATPOS 0 0 0 0
      FXID {7A4486C8-A798-DA4E-8AEC-16B9D313885F}
      WAK 0 0
    >
    <ITEM
      POSITION 213.33324800003416
      SNAPOFFS 0
      LENGTH 241.66656999996584
      LOOP 1
      ALLTAKES 0
      FADEIN 1 0 0 1 0 0
      FADEOUT 1 0 0 1 0 0
      MUTE 0 0
      SEL 0
      IGUID {FB85AB6D-0B1F-2E48-A185-DFE0C5CA556D}
      IID 105
      NAME "xbox 360 portal 2 video game disc.mid"
      VOLPAN 1 0 1 -1
      SOFFS 0 0
      PLAYRATE 1 1 0 -1 0 0.0025
      CHANMODE 0
      GUID {10D8A87E-5F0C-894F-958B-B2C430F91F7D}
      <SOURCE MIDI
        HASDATA 1 128 QN
        CCINTERP 32
        POOLEDEVTS {7A68CA0A-52EF-3345-89FD-B6A7681F3BC1}
        E 0 98 33 30
        E 42 88 33 30
        E 0 98 3a 30
        E 42 88 3a 30
        E 0 98 3a 30
        E 0 98 35 30
        E 128 88 35 30
        E 0 98 33 30
        E 42 88 33 30
        E 0 98 3a 30
        E 42 88 3a 30
        E 0 98 3a 30
        E 0 98 35 30
        E 128 88 35 30
        E 0 98 33 30
        E 42 88 33 30
        E 0 98 3a 30
        E 42 88 3a 30
        E 0 98 3a 30
        E 0 98 35 30
        E 128 88 35 30
        E 0 98 33 30
        E 42 88 33 30
        E 0 98 3a 30
        E 42 88 3a 30
        E 0 98 3a 30
        E 0 98 35 30
        E 128 88 35 30
        E 0 98 33 30
        E 42 88 33 30
        E 0 98 3a 30
        E 42 88 3a 30
        E 0 98 3a 30
        E 0 98 35 30
        E 128 88 35 30
        E 0 98 33 30
        E 42 88 33 30
        E 0 98 3a 30
        E 42 88 3a 30
        E 0 98 3a 30
        E 0 98 35 30
        E 128 88 35 30
        E 0 98 33 30
        E 42 88 33 30
        E 0 98 3a 30
        E 42 88 3a 30
        E 0 98 3a 30
        E 0 98 35 30
        E 128 88 35 30
        E 0 98 33 30
        E 42 88 33 30
        E 0 98 3a 30
        E 42 88 3a 30
        E 0 98 3a 30
        E 0 98 35 30
        E 128 88 35 30
        E 0 98 33 30
        E 42 88 33 30
        E 0 98 3a 30
        E 42 88 3a 30
        E 0 98 3a 30
        E 0 98 35 30
        E 128 88 35 30
        E 0 98 33 30
        E 42 88 33 30
        E 0 98 3a 30
        E 42 88 3a 30
        E 0 98 3a 30
        E 0 98 35 30
        E 128 88 35 30
        E 0 98 33 30
        E 42 88 33 30
        E 0 98 3a 30
        E 42 88 3a 30
        E 0 98 3a 30
        E 0 98 35 30
        E 128 88 35 30
        E 0 98 33 30
        E 42 88 33 30
        E 0 98 3a 30
        E 42 88 3a 30
        E 0 98 3a 30
        E 0 98 35 30
        E 128 88 35 30
        E 0 98 33 30
        E 42 88 33 30
        E 0 98 3a 30
        E 42 88 3a 30
        E 0 98 3a 30
        E 0 98 35 30
        E 128 88 35 30
        E 0 98 33 30
        E 42 88 33 30
        E 0 98 3a 30
        E 42 88 3a 30
        E 0 98 3a 30
        E 0 98 35 30
        E 128 88 35 30
        E 0 98 33 30
        E 42 88 33 30
        E 0 98 3a 30
        E 42 88 3a 30
        E 0 98 3a 30
        E 0 98 35 30
        E 128 88 35 30
        E 0 98 33 30
        E 42 88 33 30
        E 0 98 3a 30
        E 42 88 3a 30
        E 0 98 3a 30
        E 0 98 35 30
        E 128 88 35 30
        E 0 98 33 30
        E 42 88 33 30
        E 0 98 3a 30
        E 42 88 3a 30
        E 0 98 3a 30
        E 0 98 35 30
        E 128 88 35 30
        E 0 98 33 30
        E 42 88 33 30
        E 0 98 3a 30
        E 42 88 3a 30
        E 0 98 3a 30
        E 0 98 35 30
        E 128 88 35 30
        E 0 98 33 30
        E 42 88 33 30
        E 0 98 3a 30
        E 42 88 3a 30
        E 0 98 3a 30
        E 0 98 35 30
        E 128 88 35 30
        E 0 98 33 30
        E 42 88 33 30
        E 0 98 3a 30
        E 42 88 3a 30
        E 0 98 3a 30
        E 0 98 35 30
        E 128 88 35 30
        E 0 98 33 30
        E 42 88 33 30
        E 0 98 3a 30
        E 42 88 3a 30
        E 0 98 3a 30
        E 0 98 35 30
        E 128 88 35 30
        E 0 98 33 30
        E 42 88 33 30
        E 0 98 3a 30
        E 42 88 3a 30
        E 0 98 3a 30
        E 0 98 35 30
        E 128 88 35 30
        E 0 98 33 30
        E 42 88 33 30
        E 0 98 3a 30
        E 42 88 3a 30
        E 0 98 3a 30
        E 0 98 35 30
        E 128 88 35 30
        E 0 98 33 30
        E 42 88 33 30
        E 0 98 3a 30
        E 42 88 3a 30
        E 0 98 3a 30
        E 0 98 35 30
        E 128 88 35 30
        E 0 98 33 30
        E 42 88 33 30
        E 0 98 3a 30
        E 42 88 3a 30
        E 0 98 3a 30
        E 0 98 35 30
        E 128 88 35 30
        E 0 98 33 30
        E 42 88 33 30
        E 0 98 3a 30
        E 42 88 3a 30
        E 0 98 3a 30
        E 0 98 35 30
        E 128 88 35 30
        E 0 98 33 30
        E 42 88 33 30
        E 0 98 3a 30
        E 42 88 3a 30
        E 0 98 3a 30
        E 0 98 35 30
        E 128 88 35 30
        E 0 98 33 30
        E 42 88 33 30
        E 0 98 3a 30
        E 42 88 3a 30
        E 0 98 3a 30
        E 0 98 35 30
        E 128 88 35 30
        E 0 98 33 30
        E 42 88 33 30
        E 0 98 3a 30
        E 42 88 3a 30
        E 0 98 3a 30
        E 0 98 35 30
        E 128 88 35 30
        E 0 98 33 30
        E 42 88 33 30
        E 0 98 3a 30
        E 42 88 3a 30
        E 0 98 3a 30
        E 0 98 35 30
        E 128 88 35 30
        E 0 98 33 30
        E 42 88 33 30
        E 0 98 3a 30
        E 42 88 3a 30
        E 0 98 3a 30
        E 0 98 35 30
        E 128 88 35 30
        E 0 98 33 30
        E 42 88 33 30
        E 0 98 3a 30
        E 42 88 3a 30
        E 0 98 3a 30
        E 0 98 35 30
        E 128 88 35 30
        E 0 98 33 30
        E 42 88 33 30
        E 0 98 3a 30
        E 42 88 3a 30
        E 0 98 3a 30
        E 0 98 35 30
        E 128 88 35 30
        E 0 98 33 30
        E 42 88 33 30
        E 0 98 3a 30
        E 42 88 3a 30
        E 0 98 3a 30
        E 0 98 35 30
        E 128 88 35 30
        E 0 98 33 30
        E 42 88 33 30
        E 0 98 3a 30
        E 42 88 3a 30
        E 0 98 3a 30
        E 0 98 35 30
        E 128 88 35 30
        E 0 98 33 30
        E 42 88 33 30
        E 0 98 3a 30
        E 42 88 3a 30
        E 0 98 3a 30
        E 0 98 35 30
        E 128 88 35 30
        E 0 98 33 30
        E 42 88 33 30
        E 0 98 3a 30
        E 42 88 3a 30
        E 0 98 3a 30
        E 0 98 35 30
        E 128 88 35 30
        E 0 98 33 30
        E 42 88 33 30
        E 0 98 3a 30
        E 42 88 3a 30
        E 0 98 3a 30
        E 0 98 35 30
        E 128 88 35 30
        E 0 98 33 30
        E 42 88 33 30
        E 0 98 3a 30
        E 42 88 3a 30
        E 0 98 3a 30
        E 0 98 35 30
        E 128 88 35 30
        E 0 98 33 30
        E 42 88 33 30
        E 0 98 3a 30
        E 42 88 3a 30
        E 0 98 3a 30
        E 0 98 35 30
        E 128 88 35 30
        E 0 98 33 30
        E 42 88 33 30
        E 0 98 3a 30
        E 42 88 3a 30
        E 0 98 3a 30
        E 0 98 35 30
        E 128 88 35 30
        E 0 98 33 30
        E 42 88 33 30
        E 0 98 3a 30
        E 42 88 3a 30
        E 0 98 3a 30
        E 0 98 35 30
        E 128 88 35 30
        E 0 98 33 30
        E 42 88 33 30
        E 0 98 3a 30
        E 42 88 3a 30
        E 0 98 3a 30
        E 0 98 35 30
        E 128 88 35 30
        E 0 98 33 30
        E 42 88 33 30
        E 0 98 3a 30
        E 42 88 3a 30
        E 0 98 3a 30
        E 0 98 35 30
        E 128 88 35 30
        E 0 98 33 30
        E 42 88 33 30
        E 0 98 3a 30
        E 42 88 3a 30
        E 0 98 3a 30
        E 0 98 35 30
        E 128 88 35 30
        E 0 98 30 30
        E 85 88 30 30
        E 0 98 30 30
        E 85 88 30 30
        E 0 98 30 30
        E 85 88 30 30
        E 0 98 30 30
        E 85 88 30 30
        E 0 98 30 30
        E 85 88 30 30
        E 0 98 30 30
        E 85 88 30 30
        E 0 98 30 30
        E 85 88 30 30
        E 0 98 30 30
        E 85 88 30 30
        E 0 98 30 30
        E 85 88 30 30
        E 0 98 33 30
        E 42 88 33 30
        E 0 98 3a 30
        E 42 88 3a 30
        E 0 98 3a 30
        E 0 98 35 30
        E 128 88 35 30
        E 0 98 33 30
        E 42 88 33 30
        E 0 98 3a 30
        E 42 88 3a 30
        E 0 98 3a 30
        E 0 98 35 30
        E 128 88 35 30
        E 0 98 33 30
        E 42 88 33 30
        E 0 98 3a 30
        E 42 88 3a 30
        E 0 98 3a 30
        E 0 98 35 30
        E 128 88 35 30
        E 0 98 33 30
        E 42 88 33 30
        E 0 98 3a 30
        E 42 88 3a 30
        E 0 98 3a 30
        E 0 98 35 30
        E 128 88 35 30
        E 0 98 33 30
        E 42 88 33 30
        E 0 98 3a 30
        E 42 88 3a 30
        E 0 98 3a 30
        E 0 98 35 30
        E 128 88 35 30
        E 0 98 33 30
        E 42 88 33 30
        E 0 98 3a 30
        E 42 88 3a 30
        E 0 98 3a 30
        E 0 98 35 30
        E 128 88 35 30
        E 0 98 33 30
        E 42 88 33 30
        E 0 98 3a 30
        E 42 88 3a 30
        E 0 98 3a 30
        E 0 98 35 30
        E 128 88 35 30
        E 0 98 33 30
        E 42 88 33 30
        E 0 98 3a 30
        E 42 88 3a 30
        E 0 98 3a 30
        E 0 98 35 30
        E 128 88 35 30
        E 0 98 33 30
        E 42 88 33 30
        E 0 98 3a 30
        E 42 88 3a 30
        E 0 98 3a 30
        E 0 98 35 30
        E 128 88 35 30
        E 0 98 33 30
        E 42 88 33 30
        E 0 98 3a 30
        E 42 88 3a 30
        E 0 98 3a 30
        E 0 98 35 30
        E 128 88 35 30
        E 0 98 33 30
        E 42 88 33 30
        E 0 98 3a 30
        E 42 88 3a 30
        E 0 98 3a 30
        E 0 98 35 30
        E 128 88 35 30
        E 0 98 33 30
        E 42 88 33 30
        E 0 98 3a 30
        E 42 88 3a 30
        E 0 98 3a 30
        E 0 98 35 30
        E 128 88 35 30
        E 0 98 33 30
        E 42 88 33 30
        E 0 98 3a 30
        E 42 88 3a 30
        E 0 98 3a 30
        E 0 98 35 30
        E 128 88 35 30
        E 0 98 33 30
        E 42 88 33 30
        E 0 98 3a 30
        E 42 88 3a 30
        E 0 98 3a 30
        E 0 98 35 30
        E 128 88 35 30
        E 0 98 33 30
        E 42 88 33 30
        E 0 98 3a 30
        E 42 88 3a 30
        E 0 98 3a 30
        E 0 98 35 30
        E 128 88 35 30
        E 0 98 33 30
        E 42 88 33 30
        E 0 98 3a 30
        E 42 88 3a 30
        E 0 98 3a 30
        E 0 98 35 30
        E 128 88 35 30
        E 0 98 33 30
        E 42 88 33 30
        E 0 98 3a 30
        E 42 88 3a 30
        E 0 98 3a 30
        E 0 98 35 30
        E 128 88 35 30
        E 0 98 33 30
        E 42 88 33 30
        E 0 98 3a 30
        E 42 88 3a 30
        E 0 98 3a 30
        E 0 98 35 30
        E 128 88 35 30
        E 0 98 33 30
        E 42 88 33 30
        E 0 98 3a 30
        E 42 88 3a 30
        E 0 98 3a 30
        E 0 98 35 30
        E 128 88 35 30
        E 0 98 33 30
        E 42 88 33 30
        E 0 98 3a 30
        E 42 88 3a 30
        E 0 98 3a 30
        E 0 98 35 30
        E 128 88 35 30
        E 0 98 33 30
        E 42 88 33 30
        E 0 98 3a 30
        E 42 88 3a 30
        E 0 98 3a 30
        E 0 98 35 30
        E 128 88 35 30
        E 0 98 33 30
        E 42 88 33 30
        E 0 98 3a 30
        E 42 88 3a 30
        E 0 98 3a 30
        E 0 98 35 30
        E 128 88 35 30
        E 0 98 33 30
        E 42 88 33 30
        E 0 98 3a 30
        E 42 88 3a 30
        E 0 98 3a 30
        E 0 98 35 30
        E 128 88 35 30
        E 0 98 33 30
        E 42 88 33 30
        E 0 98 3a 30
        E 42 88 3a 30
        E 0 98 3a 30
        E 0 98 35 30
        E 128 88 35 30
        E 0 98 33 30
        E 42 88 33 30
        E 0 98 3a 30
        E 42 88 3a 30
        E 0 98 3a 30
        E 0 98 35 30
        E 128 88 35 30
        E 0 98 33 30
        E 42 88 33 30
        E 0 98 3a 30
        E 42 88 3a 30
        E 0 98 3a 30
        E 0 98 35 30
        E 128 88 35 30
        E 0 98 33 30
        E 42 88 33 30
        E 0 98 3a 30
        E 42 88 3a 30
        E 0 98 3a 30
        E 0 98 35 30
        E 128 88 35 30
        E 0 98 33 30
        E 42 88 33 30
        E 0 98 3a 30
        E 42 88 3a 30
        E 0 98 3a 30
        E 0 98 35 30
        E 128 88 35 30
        E 0 98 33 30
        E 42 88 33 30
        E 0 98 3a 30
        E 42 88 3a 30
        E 0 98 3a 30
        E 0 98 35 30
        E 128 88 35 30
        E 0 98 33 30
        E 42 88 33 30
        E 0 98 3a 30
        E 42 88 3a 30
        E 0 98 3a 30
        E 0 98 35 30
        E 128 88 35 30
        E 0 98 33 30
        E 42 88 33 30
        E 0 98 3a 30
        E 42 88 3a 30
        E 0 98 3a 30
        E 0 98 35 30
        E 128 88 35 30
        E 0 98 33 30
        E 42 88 33 30
        E 0 98 3a 30
        E 42 88 3a 30
        E 0 98 3a 30
        E 0 98 35 30
        E 128 88 35 30
        E 0 98 33 30
        E 42 88 33 30
        E 0 98 3a 30
        E 42 88 3a 30
        E 0 98 3a 30
        E 0 98 35 30
        E 128 88 35 30
        E 0 98 33 30
        E 42 88 33 30
        E 0 98 3a 30
        E 42 88 3a 30
        E 0 98 3a 30
        E 0 98 35 30
        E 128 88 35 30
        E 0 98 33 30
        E 42 88 33 30
        E 0 98 3a 30
        E 42 88 3a 30
        E 0 98 3a 30
        E 0 98 35 30
        E 128 88 35 30
        E 0 98 33 30
        E 42 88 33 30
        E 0 98 3a 30
        E 42 88 3a 30
        E 0 98 3a 30
        E 0 98 35 30
        E 128 88 35 30
        E 0 98 35 30
        E 128 88 35 30
        E 0 98 44 30
        E 113 88 44 30
        E 0 98 43 30
        E 113 88 43 30
        E 0 98 35 30
        E 128 88 35 30
        E 0 98 44 30
        E 113 88 44 30
        E 0 98 43 30
        E 113 88 43 30
        E 0 98 35 30
        E 128 88 35 30
        E 0 98 44 30
        E 113 88 44 30
        E 0 98 43 30
        E 113 88 43 30
        E 0 98 35 30
        E 128 88 35 30
        E 0 98 44 30
        E 113 88 44 30
        E 0 98 43 30
        E 113 88 43 30
        E 0 98 35 30
        E 128 88 35 30
        E 0 98 44 30
        E 113 88 44 30
        E 0 98 43 30
        E 113 88 43 30
        E 0 98 35 30
        E 128 88 35 30
        E 0 98 44 30
        E 113 88 44 30
        E 0 98 43 30
        E 113 88 43 30
        E 0 98 35 30
        E 128 88 35 30
        E 0 98 44 30
        E 113 88 44 30
        E 0 98 43 30
        E 113 88 43 30
        E 0 98 35 30
        E 128 88 35 30
        E 0 98 44 30
        E 113 88 44 30
        E 0 98 43 30
        E 113 88 43 30
        E 0 98 35 30
        E 128 88 35 30
        E 0 98 44 30
        E 113 88 44 30
        E 0 98 43 30
        E 113 88 43 30
        E 0 98 35 30
        E 128 88 35 30
        E 0 98 44 30
        E 113 88 44 30
        E 0 98 43 30
        E 113 88 43 30
        E 0 98 35 30
        E 128 88 35 30
        E 0 98 44 30
        E 113 88 44 30
        E 0 98 43 30
        E 113 88 43 30
        E 0 98 35 30
        E 128 88 35 30
        E 0 98 44 30
        E 113 88 44 30
        E 0 98 43 30
        E 113 88 43 30
        E 0 98 35 30
        E 128 88 35 30
        E 0 98 44 30
        E 113 88 44 30
        E 0 98 43 30
        E 113 88 43 30
        E 0 98 35 30
        E 128 88 35 30
        E 0 98 44 30
        E 113 88 44 30
        E 0 98 43 30
        E 113 88 43 30
        E 0 98 35 30
        E 128 88 35 30
        E 0 98 44 30
        E 113 88 44 30
        E 0 98 43 30
        E 113 88 43 30
        E 0 98 35 30
        E 128 88 35 30
        E 0 98 44 30
        E 113 88 44 30
        E 0 98 43 30
        E 113 88 43 30
        E 0 98 35 30
        E 128 88 35 30
        E 0 98 44 30
        E 113 88 44 30
        E 0 98 43 30
        E 113 88 43 30
        E 0 98 35 30
        E 128 88 35 30
        E 0 98 44 30
        E 113 88 44 30
        E 0 98 43 30
        E 113 88 43 30
        E 0 98 35 30
        E 128 88 35 30
        E 0 98 44 30
        E 113 88 44 30
        E 0 98 43 30
        E 113 88 43 30
        E 0 98 35 30
        E 128 88 35 30
        E 0 98 44 30
        E 113 88 44 30
        E 0 98 43 30
        E 113 88 43 30
        E 0 98 35 30
        E 128 88 35 30
        E 0 98 44 30
        E 113 88 44 30
        E 0 98 43 30
        E 113 88 43 30
        E 0 98 35 30
        E 128 88 35 30
        E 0 98 44 30
        E 113 88 44 30
        E 0 98 43 30
        E 113 88 43 30
        E 0 98 35 30
        E 128 88 35 30
        E 0 98 44 30
        E 113 88 44 30
        E 0 98 43 30
        E 113 88 43 30
        E 0 98 35 30
        E 128 88 35 30
        E 0 98 44 30
        E 113 88 44 30
        E 0 98 43 30
        E 113 88 43 30
        E 0 98 35 30
        E 128 88 35 30
        E 0 98 44 30
        E 113 88 44 30
        E 0 98 43 30
        E 113 88 43 30
        E 0 98 35 30
        E 128 88 35 30
        E 0 98 44 30
        E 113 88 44 30
        E 0 98 43 30
        E 113 88 43 30
        E 0 98 35 30
        E 128 88 35 30
        E 0 98 44 30
        E 113 88 44 30
        E 0 98 43 30
        E 113 88 43 30
        E 0 98 35 30
        E 128 88 35 30
        E 0 98 44 30
        E 113 88 44 30
        E 0 98 43 30
        E 113 88 43 30
        E 0 98 35 30
        E 128 88 35 30
        E 0 98 44 30
        E 113 88 44 30
        E 0 98 43 30
        E 113 88 43 30
        E 0 98 35 30
        E 128 88 35 30
        E 0 98 44 30
        E 113 88 44 30
        E 0 98 43 30
        E 113 88 43 30
        E 0 98 35 30
        E 128 88 35 30
        E 0 98 44 30
        E 113 88 44 30
        E 0 98 43 30
        E 113 88 43 30
        E 0 98 35 30
        E 128 88 35 30
        E 0 98 44 30
        E 113 88 44 30
        E 0 98 43 30
        E 113 88 43 30
        E 0 98 35 30
        E 128 88 35 30
        E 0 98 44 30
        E 113 88 44 30
        E 0 98 43 30
        E 113 88 43 30
        E 0 98 35 30
        E 128 88 35 30
        E 0 98 44 30
        E 113 88 44 30
        E 0 98 43 30
        E 113 88 43 30
        E 0 98 35 30
        E 128 88 35 30
        E 0 98 44 30
        E 113 88 44 30
        E 0 98 43 30
        E 113 88 43 30
        E 0 98 35 30
        E 128 88 35 30
        E 0 98 44 30
        E 113 88 44 30
        E 0 98 43 30
        E 113 88 43 30
        E 0 98 35 30
        E 128 88 35 30
        E 0 98 44 30
        E 113 88 44 30
        E 0 98 43 30
        E 113 88 43 30
        E 0 98 35 30
        E 128 88 35 30
        E 0 98 44 30
        E 113 88 44 30
        E 0 98 43 30
        E 113 88 43 30
        E 0 98 35 30
        E 128 88 35 30
        E 0 98 44 30
        E 113 88 44 30
        E 0 98 43 30
        E 113 88 43 30
        E 0 98 35 30
        E 128 88 35 30
        E 0 98 44 30
        E 113 88 44 30
        E 0 98 43 30
        E 113 88 43 30
        E 0 98 35 30
        E 128 88 35 30
        E 0 98 44 30
        E 113 88 44 30
        E 0 98 43 30
        E 113 88 43 30
        E 0 98 35 30
        E 128 88 35 30
        E 0 98 44 30
        E 113 88 44 30
        E 0 98 43 30
        E 113 88 43 30
        E 0 98 35 30
        E 128 88 35 30
        E 0 98 44 30
        E 113 88 44 30
        E 0 98 43 30
        E 113 88 43 30
        E 0 98 35 30
        E 128 88 35 30
        E 0 98 44 30
        E 113 88 44 30
        E 0 98 43 30
        E 113 88 43 30
        E 0 98 35 30
        E 128 88 35 30
        E 0 98 44 30
        E 113 88 44 30
        E 0 98 43 30
        E 113 88 43 30
        E 0 98 35 30
        E 128 88 35 30
        E 0 98 44 30
        E 113 88 44 30
        E 0 98 43 30
        E 113 88 43 30
        E 0 98 35 30
        E 128 88 35 30
        E 0 98 44 30
        E 113 88 44 30
        E 0 98 43 30
        E 113 88 43 30
        E 0 98 35 30
        E 128 88 35 30
        E 0 98 44 30
        E 113 88 44 30
        E 0 98 43 30
        E 113 88 43 30
        E 0 98 35 30
        E 128 88 35 30
        E 0 98 44 30
        E 113 88 44 30
        E 0 98 43 30
        E 113 88 43 30
        E 0 98 35 30
        E 128 88 35 30
        E 0 98 44 30
        E 113 88 44 30
        E 0 98 43 30
        E 113 88 43 30
        E 0 98 35 30
        E 128 88 35 30
        E 0 98 44 30
        E 113 88 44 30
        E 0 98 43 30
        E 113 88 43 30
        E 0 98 35 30
        E 128 88 35 30
        E 0 98 44 30
        E 113 88 44 30
        E 0 98 43 30
        E 113 88 43 30
        E 0 98 35 30
        E 128 88 35 30
        E 0 98 44 30
        E 113 88 44 30
        E 0 98 43 30
        E 113 88 43 30
        E 0 98 35 30
        E 128 88 35 30
        E 0 98 44 30
        E 113 88 44 30
        E 0 98 43 30
        E 113 88 43 30
        E 67 b0 7b 00
        CCINTERP 32
        CHASE_CC_TAKEOFFS 1
        GUID {7C780E42-73AE-164A-86DF-C1AB53D371B8}
        IGNTEMPO 0 120 4 4
        SRCCOLOR 963
        VELLANE 3 156 0
        VELLANE -1 196 0
      >
    >
  >
  <TRACK {C7B3FE8A-54E3-8846-85BA-B356EFF14549}
    NAME "xbox 360 portal 2 video game disc"
    PEAKCOL 16576
    BEAT -1
    AUTOMODE 0
    VOLPAN 1 0 -1 -1 1
    MUTESOLO 0 0 0
    IPHASE 0
    PLAYOFFS 0 1
    ISBUS 0 0
    BUSCOMP 0 0 0 0 0
    SHOWINMIX 1 0.6667 0.5 1 0.5 0 -1 0
    FREEMODE 0
    SEL 0
    REC 0 0 1 0 0 0 0
    VU 2
    TRACKHEIGHT 0 0 0 0 -1 0
    INQ 0 0 0 0.5 100 0 0 100
    NCHAN 2
    FX 1
    TRACKID {C7B3FE8A-54E3-8846-85BA-B356EFF14549}
    PERF 0
    MIDIOUT -1
    MAINSEND 1 0
    <FXCHAIN
      SHOW 0
      LASTSEL 0
      DOCKED 0
      BYPASS 0 0 0
      <VST "VSTi: FM8 (Native Instruments GmbH)" FM8.vst 0 "" 1315530296<5653544E696638666D38000000000000> ""
        OGZpTu5e7f4AAAAAAgAAAAEAAAAAAAAAAgAAAAAAAAAYBwAAAQAAAAAAEAA=
        GAcAAAAAAAABAAAAaHNpbgEAAAAAAAAAN455D8DDx0mHoN4j0l/0WZYAAAAAAAAARFNJTnYAAAABAAAASAAAAAAAAABEU0lOagAAAAEAAAAYAAAAAAAAAERTSU4BAAAA
        AQAAAAEAAAABAAAAAQAAAAEAAAAAAAAAAAAAAAAAAAANYmWFAQAAAAhwEAAAAAAAAQAAAAEAAAAAAAAAAAAAAAAAAAADAAAAMAAwADAAAAAAAAAAAAAAAAAAAAAAAAEA
        AAABAAAAAAAAAERTSU5lAAAARgYAAAAAAAABAAAAaHNpbgEAAAAAAAAAMOH4NwAUwEaoogAOyNUgkW0AAAAAAAAARFNJTmUAAAABAAAANAAAAAAAAABEU0lOagAAAAEA
        AAAYAAAAAAAAAERTSU4BAAAAAQAAAAEAAAABAAAAAgAAAAEAAAAACAAAAAEAAAAKAAAAMQAuADIALgAwAC4AMQAwADEAMAABAAAAAwAAAAAAAABEU0lObAAAAKgBAAAA
        AAAAAQAAAGhzaW4BAAAAAAAAACA7190CLVtKvWPIjKqbw/t4AQAAAAAAAERTSU5sAAAAAQAAABgAAAAAAAAARFNJTgEAAAABAAAAAQAAAAEAAAACAAAAAQAAAAAAAAAI
        AAAATgBlAHcAUwBvAHUAbgBkAAcAAABuAG8AdAAgAHMAZQB0AAAAAAAAAAAAAAAAAAAAAAAAAAAAAAAAAAAAAAAAAAAAAAAAAAEAAAABAAAAAQAAAAMAAABGAE0AOAAA
        AAAAAAAAAAcAAAAHAAAAXABAAGMAbwBsAG8AcgABAAAAMAARAAAAXABAAGQAZQB2AGkAYwBlAHQAeQBwAGUAZgBsAGEAZwBzAAEAAAAxAAsAAABcAEAAcwBvAHUAbgBk
        AHQAeQBwAGUAAQAAADAABwAAAFwAQAB0AGUAbQBwAG8AAQAAADAABgAAAFwAQAB2AGUAcgBsAAUAAAAxAC4ANwAuADgABgAAAFwAQAB2AGUAcgBtAAUAAAAxAC4ANwAu
        ADgABwAAAFwAQAB2AGkAcwBpAGIAAQAAADAAAQAAAAAAAAACAAAARFNJTnkAAABoAAAAAAAAAAEAAABoc2luAQAAAAAAAABG64vCmumHRIQ9Mih2ujahOAAAAAAAAABE
        U0lOeQAAAAEAAAAYAAAAAAAAAERTSU4BAAAAAQAAAAEAAAABAAAAAQAAAAAAAAABAAAAAAAAAAEAAABEU0lOdAAAAHUDAAAAAAAAAQAAAGhzaW4BAAAAAAAAAMPiDYJz
        LJxOuWtBgMMVvqRFAwAAAAAAAERTSU50AAAAAQAAACwDAAAAAAAARFNJTnMAAAABAAAAGAAAAAAAAABEU0lOAQAAAAEAAAABAAAAAQAAAAG9DwAA8wIAAAK9DwBgAAAB
        IAUDaHNpbkAHQAAQHyRrBvAZSEqYrqFXTcEPPBhAFCAAA0RTSU5AI+AHA0AAQBsAbSAIAWkPIAQgAEAj4ANTEEkCYzKs2sVGp2B2wrYRj5w5oCfAN0Av4BdnQCMB8Q4g
        XCAAAAUgAwFjDCAEIAAIdHNycEU4TUbPIAsEvCMAAAcgBwZkZWZhdWx04BgKICoAP+ACAwNBAACAIA8AoCAH4AsAAPAgF0AfwAAAICAPwABgFwVAAABIQgDgBABAD0AD
        4BcfYAAge+AEA0AAwBPgAwBAE+AAAAPNzMw+IAwDP5qZGUAXwAPgABcgCuAHG0ATQADgBwdAACATYKtAACALYANAAEALQAAg42AAwA9AB0AD4AMAwA9AB0ADwABAC8AD
        QADAC8AHQADgAwtAAEAP4AMAIA/Bn8AHAMjhDnPgHwDgAO/gDgBAX0ADwABBz8H7QAtAAwCgIINAB0AAALQgCwCWIAPgAwDAP0AHQAPAAEAz4MdLIAAAAcAAIAuAAAAC
        wACADuAdAOAALAD+4B0v4CEAABTgISrgMADBA+AKAGBTgAXgAABChuAXA+AeAOD9WSBZIkBBUgH6Q0AH4FUMQ9VAZwH6Q6BnBYA/zLyMK+BVDOABACBnBAA/ZmZmYAPg
        YwwgAABwJOwB/kJAdCAA4D4MosLgAFaAAKBjgADgOAwgYwRwwgAAhmC6JliAA0BW4EEMIGPgAE3g8AAAUCAA4Of8AP/gFwAABEERCggyAwAAQDIAAAA8QikgAwHwQmLY
        AAEgAYLiIAcgAkKVgAagCSA3oAkgSKAJKxegCQAG4AAJKwSgEyAAoAmASKAGoBPgwk/gSwAAEaBUA2tuYWJBMcAAAYAAIAAAGaARA2N0bmlMiwERJ2FcTFBAAEocAaBC
        4hMPTInAH00bwAvg/QDgvQABIACAAANzaXVnQiQA6CNxwAAAKiAIABkgAyOYYAAj0mAAB2dwdGNZVE1FQAwLDWJlhQEAAAAAAAAAAQAAAAABAAAAAAAAAA==
        ADxkaXNhYmxlZD4AEAAAAA==
      >
      PRESETNAME <disabled>
      FLOATPOS 0 0 0 0
      FXID {15F8201F-0141-BB42-A2B3-3CCEAE2EA47A}
      WAK 0 0
    >
    <ITEM
      POSITION 0
      SNAPOFFS 0
      LENGTH 0.833333
      LOOP 1
      ALLTAKES 0
      FADEIN 1 0 0 1 0 0
      FADEOUT 1 0 0 1 0 0
      MUTE 0 0
      SEL 0
      IGUID {697298F4-50E7-6248-A32E-5B8295B164D0}
      IID 10
      NAME "xbox 360 portal 2 video game disc.mid"
      VOLPAN 1 0 1 -1
      SOFFS 0 0
      PLAYRATE 1 1 0 -1 0 0.0025
      CHANMODE 0
      GUID {40BDDE09-7C97-F54B-A899-91126FCCF810}
      <SOURCE MIDI
        HASDATA 1 128 QN
        CCINTERP 32
        POOLEDEVTS {286A51B8-7704-DE42-9A5D-56C48CFF3709}
        E 128 b0 7b 00
        CCINTERP 32
        CHASE_CC_TAKEOFFS 1
        GUID {FC703238-CF62-9D4A-9E07-1045BE2251C2}
        IGNTEMPO 0 120 4 4
        SRCCOLOR 407
        VELLANE 3 601 0
        VELLANE -1 196 0
      >
    >
  >
  <TRACK {053BC041-A464-284F-80B7-00FB449AB872}
    NAME "xbox 360 portal 2 video game disc"
    PEAKCOL 16576
    BEAT -1
    AUTOMODE 0
    VOLPAN 1 0 -1 -1 1
    MUTESOLO 0 0 0
    IPHASE 0
    PLAYOFFS 0 1
    ISBUS 0 0
    BUSCOMP 0 0 0 0 0
    SHOWINMIX 1 0.6667 0.5 1 0.5 0 -1 0
    FREEMODE 0
    SEL 0
    REC 0 0 1 0 0 0 0
    VU 2
    TRACKHEIGHT 0 0 0 0 -1 0
    INQ 0 0 0 0.5 100 0 0 100
    NCHAN 2
    FX 1
    TRACKID {053BC041-A464-284F-80B7-00FB449AB872}
    PERF 0
    MIDIOUT -1
    MAINSEND 1 0
    <FXCHAIN
      SHOW 0
      LASTSEL 0
      DOCKED 0
      BYPASS 0 0 0
      <VST "VSTi: FM8 (Native Instruments GmbH)" FM8.vst 0 "" 1315530296<5653544E696638666D38000000000000> ""
        OGZpTu5e7f4AAAAAAgAAAAEAAAAAAAAAAgAAAAAAAAAYBwAAAQAAAAAAEAA=
        GAcAAAAAAAABAAAAaHNpbgEAAAAAAAAAN455D8DDx0mHoN4j0l/0WZYAAAAAAAAARFNJTnYAAAABAAAASAAAAAAAAABEU0lOagAAAAEAAAAYAAAAAAAAAERTSU4BAAAA
        AQAAAAEAAAABAAAAAQAAAAEAAAAAAAAAAAAAAAAAAAANYmWFAQAAAAhwEAAAAAAAAQAAAAEAAAAAAAAAAAAAAAAAAAADAAAAMAAwADAAAAAAAAAAAAAAAAAAAAAAAAEA
        AAABAAAAAAAAAERTSU5lAAAARgYAAAAAAAABAAAAaHNpbgEAAAAAAAAAMOH4NwAUwEaoogAOyNUgkW0AAAAAAAAARFNJTmUAAAABAAAANAAAAAAAAABEU0lOagAAAAEA
        AAAYAAAAAAAAAERTSU4BAAAAAQAAAAEAAAABAAAAAgAAAAEAAAAACAAAAAEAAAAKAAAAMQAuADIALgAwAC4AMQAwADEAMAABAAAAAwAAAAAAAABEU0lObAAAAKgBAAAA
        AAAAAQAAAGhzaW4BAAAAAAAAACA7190CLVtKvWPIjKqbw/t4AQAAAAAAAERTSU5sAAAAAQAAABgAAAAAAAAARFNJTgEAAAABAAAAAQAAAAEAAAACAAAAAQAAAAAAAAAI
        AAAATgBlAHcAUwBvAHUAbgBkAAcAAABuAG8AdAAgAHMAZQB0AAAAAAAAAAAAAAAAAAAAAAAAAAAAAAAAAAAAAAAAAAAAAAAAAAEAAAABAAAAAQAAAAMAAABGAE0AOAAA
        AAAAAAAAAAcAAAAHAAAAXABAAGMAbwBsAG8AcgABAAAAMAARAAAAXABAAGQAZQB2AGkAYwBlAHQAeQBwAGUAZgBsAGEAZwBzAAEAAAAxAAsAAABcAEAAcwBvAHUAbgBk
        AHQAeQBwAGUAAQAAADAABwAAAFwAQAB0AGUAbQBwAG8AAQAAADAABgAAAFwAQAB2AGUAcgBsAAUAAAAxAC4ANwAuADgABgAAAFwAQAB2AGUAcgBtAAUAAAAxAC4ANwAu
        ADgABwAAAFwAQAB2AGkAcwBpAGIAAQAAADAAAQAAAAAAAAACAAAARFNJTnkAAABoAAAAAAAAAAEAAABoc2luAQAAAAAAAABG64vCmumHRIQ9Mih2ujahOAAAAAAAAABE
        U0lOeQAAAAEAAAAYAAAAAAAAAERTSU4BAAAAAQAAAAEAAAABAAAAAQAAAAAAAAABAAAAAAAAAAEAAABEU0lOdAAAAHUDAAAAAAAAAQAAAGhzaW4BAAAAAAAAAMPiDYJz
        LJxOuWtBgMMVvqRFAwAAAAAAAERTSU50AAAAAQAAACwDAAAAAAAARFNJTnMAAAABAAAAGAAAAAAAAABEU0lOAQAAAAEAAAABAAAAAQAAAAG9DwAA8wIAAAK9DwBgAAAB
        IAUDaHNpbkAHQAAQHyRrBvAZSEqYrqFXTcEPPBhAFCAAA0RTSU5AI+AHA0AAQBsAbSAIAWkPIAQgAEAj4ANTEEkCYzKs2sVGp2B2wrYRj5w5oCfAN0Av4BdnQCMB8Q4g
        XCAAAAUgAwFjDCAEIAAIdHNycEU4TUbPIAsEvCMAAAcgBwZkZWZhdWx04BgKICoAP+ACAwNBAACAIA8AoCAH4AsAAPAgF0AfwAAAICAPwABgFwVAAABIQgDgBABAD0AD
        4BcfYAAge+AEA0AAwBPgAwBAE+AAAAPNzMw+IAwDP5qZGUAXwAPgABcgCuAHG0ATQADgBwdAACATYKtAACALYANAAEALQAAg42AAwA9AB0AD4AMAwA9AB0ADwABAC8AD
        QADAC8AHQADgAwtAAEAP4AMAIA/Bn8AHAMjhDnPgHwDgAO/gDgBAX0ADwABBz8H7QAtAAwCgIINAB0AAALQgCwCWIAPgAwDAP0AHQAPAAEAz4MdLIAAAAcAAIAuAAAAC
        wACADuAdAOAALAD+4B0v4CEAABTgISrgMADBA+AKAGBTgAXgAABChuAXA+AeAOD9WSBZIkBBUgH6Q0AH4FUMQ9VAZwH6Q6BnBYA/zLyMK+BVDOABACBnBAA/ZmZmYAPg
        YwwgAABwJOwB/kJAdCAA4D4MosLgAFaAAKBjgADgOAwgYwRwwgAAhmC6JliAA0BW4EEMIGPgAE3g8AAAUCAA4Of8AP/gFwAABEERCggyAwAAQDIAAAA8QikgAwHwQmLY
        AAEgAYLiIAcgAkKVgAagCSA3oAkgSKAJKxegCQAG4AAJKwSgEyAAoAmASKAGoBPgwk/gSwAAEaBUA2tuYWJBMcAAAYAAIAAAGaARA2N0bmlMiwERJ2FcTFBAAEocAaBC
        4hMPTInAH00bwAvg/QDgvQABIACAAANzaXVnQiQA6CNxwAAAKiAIABkgAyOYYAAj0mAAB2dwdGNZVE1FQAwLDWJlhQEAAAAAAAAAAQAAAAABAAAAAAAAAA==
        ADxkaXNhYmxlZD4AEAAAAA==
      >
      PRESETNAME <disabled>
      FLOATPOS 0 0 0 0
      FXID {5FD017C1-B8A4-6D46-83B4-965B21A09484}
      WAK 0 0
    >
    <ITEM
      POSITION 26.66665600000427
      SNAPOFFS 0
      LENGTH 179.99992799999572
      LOOP 1
      ALLTAKES 0
      FADEIN 1 0 0 1 0 0
      FADEOUT 1 0 0 1 0 0
      MUTE 0 0
      SEL 0
      IGUID {4033EB8C-9DB1-C549-8C49-765B746D04AA}
      IID 106
      NAME "xbox 360 portal 2 video game disc.mid"
      VOLPAN 1 0 1 -1
      SOFFS 0 0
      PLAYRATE 1 1 0 -1 0 0.0025
      CHANMODE 0
      GUID {D94A16C2-5727-B942-86FD-C28CC713EC22}
      <SOURCE MIDI
        HASDATA 1 128 QN
        CCINTERP 32
        POOLEDEVTS {877C0B4D-B4FC-B243-833A-1B7B7BD00A18}
        E 0 9a 30 30
        E 128 8a 30 30
        E 0 9a 30 30
        E 128 8a 30 30
        E 0 9a 30 30
        E 128 8a 30 30
        E 0 9a 30 30
        E 128 8a 30 30
        E 0 9a 30 30
        E 128 8a 30 30
        E 0 9a 30 30
        E 128 8a 30 30
        E 0 9a 33 30
        E 64 8a 33 30
        E 0 9a 3a 30
        E 64 8a 3a 30
        E 0 9a 3a 30
        E 0 9a 35 30
        E 192 8a 35 30
        E 0 9a 33 30
        E 64 8a 33 30
        E 0 9a 3a 30
        E 64 8a 3a 30
        E 0 9a 3a 30
        E 0 9a 35 30
        E 192 8a 35 30
        E 0 9a 33 30
        E 64 8a 33 30
        E 0 9a 3a 30
        E 64 8a 3a 30
        E 0 9a 3a 30
        E 0 9a 35 30
        E 192 8a 35 30
        E 0 9a 33 30
        E 64 8a 33 30
        E 0 9a 3a 30
        E 64 8a 3a 30
        E 0 9a 3a 30
        E 0 9a 35 30
        E 192 8a 35 30
        E 0 9a 33 30
        E 64 8a 33 30
        E 0 9a 3a 30
        E 64 8a 3a 30
        E 0 9a 3a 30
        E 0 9a 35 30
        E 192 8a 35 30
        E 0 9a 33 30
        E 64 8a 33 30
        E 0 9a 3a 30
        E 64 8a 3a 30
        E 0 9a 3a 30
        E 0 9a 35 30
        E 192 8a 35 30
        E 0 9a 33 30
        E 64 8a 33 30
        E 0 9a 3a 30
        E 64 8a 3a 30
        E 0 9a 3a 30
        E 0 9a 35 30
        E 192 8a 35 30
        E 0 9a 33 30
        E 64 8a 33 30
        E 0 9a 3a 30
        E 64 8a 3a 30
        E 0 9a 3a 30
        E 0 9a 35 30
        E 192 8a 35 30
        E 0 9a 33 30
        E 64 8a 33 30
        E 0 9a 3a 30
        E 64 8a 3a 30
        E 0 9a 3a 30
        E 0 9a 35 30
        E 192 8a 35 30
        E 0 9a 33 30
        E 64 8a 33 30
        E 0 9a 3a 30
        E 64 8a 3a 30
        E 0 9a 3a 30
        E 0 9a 35 30
        E 192 8a 35 30
        E 0 9a 33 30
        E 64 8a 33 30
        E 0 9a 3a 30
        E 64 8a 3a 30
        E 0 9a 3a 30
        E 0 9a 35 30
        E 192 8a 35 30
        E 0 9a 33 30
        E 64 8a 33 30
        E 0 9a 3a 30
        E 64 8a 3a 30
        E 0 9a 3a 30
        E 0 9a 35 30
        E 192 8a 35 30
        E 0 9a 33 30
        E 64 8a 33 30
        E 0 9a 3a 30
        E 64 8a 3a 30
        E 0 9a 3a 30
        E 0 9a 35 30
        E 192 8a 35 30
        E 0 9a 33 30
        E 64 8a 33 30
        E 0 9a 3a 30
        E 64 8a 3a 30
        E 0 9a 3a 30
        E 0 9a 35 30
        E 192 8a 35 30
        E 0 9a 33 30
        E 64 8a 33 30
        E 0 9a 3a 30
        E 64 8a 3a 30
        E 0 9a 3a 30
        E 0 9a 35 30
        E 192 8a 35 30
        E 0 9a 33 30
        E 64 8a 33 30
        E 0 9a 3a 30
        E 64 8a 3a 30
        E 0 9a 3a 30
        E 0 9a 35 30
        E 192 8a 35 30
        E 0 9a 33 30
        E 64 8a 33 30
        E 0 9a 3a 30
        E 64 8a 3a 30
        E 0 9a 3a 30
        E 0 9a 35 30
        E 192 8a 35 30
        E 0 9a 33 30
        E 64 8a 33 30
        E 0 9a 3a 30
        E 64 8a 3a 30
        E 0 9a 3a 30
        E 0 9a 35 30
        E 192 8a 35 30
        E 0 9a 33 30
        E 64 8a 33 30
        E 0 9a 3a 30
        E 64 8a 3a 30
        E 0 9a 3a 30
        E 0 9a 35 30
        E 192 8a 35 30
        E 0 9a 33 30
        E 64 8a 33 30
        E 0 9a 3a 30
        E 64 8a 3a 30
        E 0 9a 3a 30
        E 0 9a 35 30
        E 192 8a 35 30
        E 0 9a 33 30
        E 64 8a 33 30
        E 0 9a 3a 30
        E 64 8a 3a 30
        E 0 9a 3a 30
        E 0 9a 35 30
        E 192 8a 35 30
        E 0 9a 33 30
        E 64 8a 33 30
        E 0 9a 3a 30
        E 64 8a 3a 30
        E 0 9a 3a 30
        E 0 9a 35 30
        E 192 8a 35 30
        E 0 9a 33 30
        E 64 8a 33 30
        E 0 9a 3a 30
        E 64 8a 3a 30
        E 0 9a 3a 30
        E 0 9a 35 30
        E 192 8a 35 30
        E 0 9a 33 30
        E 64 8a 33 30
        E 0 9a 3a 30
        E 64 8a 3a 30
        E 0 9a 3a 30
        E 0 9a 35 30
        E 192 8a 35 30
        E 0 9a 35 30
        E 192 8a 35 30
        E 0 9a 44 30
        E 170 8a 44 30
        E 0 9a 43 30
        E 170 8a 43 30
        E 0 9a 35 30
        E 192 8a 35 30
        E 0 9a 44 30
        E 170 8a 44 30
        E 0 9a 43 30
        E 170 8a 43 30
        E 0 9a 35 30
        E 192 8a 35 30
        E 0 9a 44 30
        E 170 8a 44 30
        E 0 9a 43 30
        E 170 8a 43 30
        E 0 9a 35 30
        E 192 8a 35 30
        E 0 9a 44 30
        E 170 8a 44 30
        E 0 9a 43 30
        E 170 8a 43 30
        E 0 9a 35 30
        E 192 8a 35 30
        E 0 9a 44 30
        E 170 8a 44 30
        E 0 9a 43 30
        E 170 8a 43 30
        E 0 9a 35 30
        E 192 8a 35 30
        E 0 9a 44 30
        E 170 8a 44 30
        E 0 9a 43 30
        E 170 8a 43 30
        E 0 9a 35 30
        E 192 8a 35 30
        E 0 9a 44 30
        E 170 8a 44 30
        E 0 9a 43 30
        E 170 8a 43 30
        E 0 9a 35 30
        E 192 8a 35 30
        E 0 9a 44 30
        E 170 8a 44 30
        E 0 9a 43 30
        E 170 8a 43 30
        E 0 9a 35 30
        E 192 8a 35 30
        E 0 9a 44 30
        E 170 8a 44 30
        E 0 9a 43 30
        E 170 8a 43 30
        E 0 9a 35 30
        E 192 8a 35 30
        E 0 9a 44 30
        E 170 8a 44 30
        E 0 9a 43 30
        E 170 8a 43 30
        E 0 9a 35 30
        E 192 8a 35 30
        E 0 9a 44 30
        E 170 8a 44 30
        E 0 9a 43 30
        E 170 8a 43 30
        E 0 9a 35 30
        E 192 8a 35 30
        E 0 9a 44 30
        E 170 8a 44 30
        E 0 9a 43 30
        E 170 8a 43 30
        E 0 9a 35 30
        E 192 8a 35 30
        E 0 9a 44 30
        E 170 8a 44 30
        E 0 9a 43 30
        E 170 8a 43 30
        E 0 9a 35 30
        E 192 8a 35 30
        E 0 9a 44 30
        E 170 8a 44 30
        E 0 9a 43 30
        E 170 8a 43 30
        E 0 9a 35 30
        E 192 8a 35 30
        E 0 9a 44 30
        E 170 8a 44 30
        E 0 9a 43 30
        E 170 8a 43 30
        E 0 9a 35 30
        E 192 8a 35 30
        E 0 9a 44 30
        E 170 8a 44 30
        E 0 9a 43 30
        E 170 8a 43 30
        E 0 9a 35 30
        E 192 8a 35 30
        E 0 9a 44 30
        E 170 8a 44 30
        E 0 9a 43 30
        E 170 8a 43 30
        E 0 9a 35 30
        E 192 8a 35 30
        E 0 9a 44 30
        E 170 8a 44 30
        E 0 9a 43 30
        E 170 8a 43 30
        E 0 9a 35 30
        E 192 8a 35 30
        E 0 9a 44 30
        E 170 8a 44 30
        E 0 9a 43 30
        E 170 8a 43 30
        E 0 9a 35 30
        E 192 8a 35 30
        E 0 9a 44 30
        E 170 8a 44 30
        E 0 9a 43 30
        E 170 8a 43 30
        E 0 9a 35 30
        E 192 8a 35 30
        E 0 9a 44 30
        E 170 8a 44 30
        E 0 9a 43 30
        E 170 8a 43 30
        E 0 9a 35 30
        E 192 8a 35 30
        E 0 9a 44 30
        E 170 8a 44 30
        E 0 9a 43 30
        E 170 8a 43 30
        E 0 9a 35 30
        E 192 8a 35 30
        E 0 9a 44 30
        E 170 8a 44 30
        E 0 9a 43 30
        E 170 8a 43 30
        E 0 9a 35 30
        E 192 8a 35 30
        E 0 9a 44 30
        E 170 8a 44 30
        E 0 9a 43 30
        E 170 8a 43 30
        E 0 9a 35 30
        E 192 8a 35 30
        E 0 9a 44 30
        E 170 8a 44 30
        E 0 9a 43 30
        E 170 8a 43 30
        E 0 9a 35 30
        E 192 8a 35 30
        E 0 9a 44 30
        E 170 8a 44 30
        E 0 9a 43 30
        E 170 8a 43 30
        E 0 9a 35 30
        E 192 8a 35 30
        E 0 9a 44 30
        E 170 8a 44 30
        E 0 9a 43 30
        E 170 8a 43 30
        E 0 9a 35 30
        E 192 8a 35 30
        E 0 9a 44 30
        E 170 8a 44 30
        E 0 9a 43 30
        E 170 8a 43 30
        E 0 9a 35 30
        E 192 8a 35 30
        E 0 9a 44 30
        E 170 8a 44 30
        E 0 9a 43 30
        E 170 8a 43 30
        E 0 9a 35 30
        E 192 8a 35 30
        E 0 9a 44 30
        E 170 8a 44 30
        E 0 9a 43 30
        E 170 8a 43 30
        E 0 9a 35 30
        E 192 8a 35 30
        E 0 9a 44 30
        E 170 8a 44 30
        E 0 9a 43 30
        E 170 8a 43 30
        E 0 9a 35 30
        E 192 8a 35 30
        E 0 9a 44 30
        E 170 8a 44 30
        E 0 9a 43 30
        E 170 8a 43 30
        E 0 9a 35 30
        E 192 8a 35 30
        E 0 9a 44 30
        E 170 8a 44 30
        E 0 9a 43 30
        E 170 8a 43 30
        E 0 9a 35 30
        E 192 8a 35 30
        E 0 9a 44 30
        E 170 8a 44 30
        E 0 9a 43 30
        E 170 8a 43 30
        E 0 9a 35 30
        E 192 8a 35 30
        E 0 9a 44 30
        E 170 8a 44 30
        E 0 9a 43 30
        E 170 8a 43 30
        E 0 9a 35 30
        E 192 8a 35 30
        E 0 9a 44 30
        E 170 8a 44 30
        E 0 9a 43 30
        E 170 8a 43 30
        E 48 b0 7b 00
        CCINTERP 32
        CHASE_CC_TAKEOFFS 1
        GUID {FD7B1D53-A0F9-3448-A115-8DA2DDC8956E}
        IGNTEMPO 0 120 4 4
        SRCCOLOR 964
        VELLANE 3 156 0
        VELLANE -1 196 0
      >
    >
  >
  <TRACK {6A138712-37E1-3440-AC64-265F9C827993}
    NAME "xbox 360 portal 2 video game disc"
    PEAKCOL 16576
    BEAT -1
    AUTOMODE 0
    VOLPAN 1 0 -1 -1 1
    MUTESOLO 0 0 0
    IPHASE 0
    PLAYOFFS 0 1
    ISBUS 0 0
    BUSCOMP 0 0 0 0 0
    SHOWINMIX 1 0.6667 0.5 1 0.5 0 -1 0
    FREEMODE 0
    SEL 0
    REC 0 0 1 0 0 0 0
    VU 2
    TRACKHEIGHT 0 0 0 0 -1 0
    INQ 0 0 0 0.5 100 0 0 100
    NCHAN 2
    FX 1
    TRACKID {6A138712-37E1-3440-AC64-265F9C827993}
    PERF 0
    MIDIOUT -1
    MAINSEND 1 0
    <FXCHAIN
      SHOW 0
      LASTSEL 0
      DOCKED 0
      BYPASS 0 0 0
      <VST "VSTi: FM8 (Native Instruments GmbH)" FM8.vst 0 "" 1315530296<5653544E696638666D38000000000000> ""
        OGZpTu5e7f4AAAAAAgAAAAEAAAAAAAAAAgAAAAAAAAAYBwAAAQAAAAAAEAA=
        GAcAAAAAAAABAAAAaHNpbgEAAAAAAAAAN455D8DDx0mHoN4j0l/0WZYAAAAAAAAARFNJTnYAAAABAAAASAAAAAAAAABEU0lOagAAAAEAAAAYAAAAAAAAAERTSU4BAAAA
        AQAAAAEAAAABAAAAAQAAAAEAAAAAAAAAAAAAAAAAAAANYmWFAQAAAAhwEAAAAAAAAQAAAAEAAAAAAAAAAAAAAAAAAAADAAAAMAAwADAAAAAAAAAAAAAAAAAAAAAAAAEA
        AAABAAAAAAAAAERTSU5lAAAARgYAAAAAAAABAAAAaHNpbgEAAAAAAAAAMOH4NwAUwEaoogAOyNUgkW0AAAAAAAAARFNJTmUAAAABAAAANAAAAAAAAABEU0lOagAAAAEA
        AAAYAAAAAAAAAERTSU4BAAAAAQAAAAEAAAABAAAAAgAAAAEAAAAACAAAAAEAAAAKAAAAMQAuADIALgAwAC4AMQAwADEAMAABAAAAAwAAAAAAAABEU0lObAAAAKgBAAAA
        AAAAAQAAAGhzaW4BAAAAAAAAACA7190CLVtKvWPIjKqbw/t4AQAAAAAAAERTSU5sAAAAAQAAABgAAAAAAAAARFNJTgEAAAABAAAAAQAAAAEAAAACAAAAAQAAAAAAAAAI
        AAAATgBlAHcAUwBvAHUAbgBkAAcAAABuAG8AdAAgAHMAZQB0AAAAAAAAAAAAAAAAAAAAAAAAAAAAAAAAAAAAAAAAAAAAAAAAAAEAAAABAAAAAQAAAAMAAABGAE0AOAAA
        AAAAAAAAAAcAAAAHAAAAXABAAGMAbwBsAG8AcgABAAAAMAARAAAAXABAAGQAZQB2AGkAYwBlAHQAeQBwAGUAZgBsAGEAZwBzAAEAAAAxAAsAAABcAEAAcwBvAHUAbgBk
        AHQAeQBwAGUAAQAAADAABwAAAFwAQAB0AGUAbQBwAG8AAQAAADAABgAAAFwAQAB2AGUAcgBsAAUAAAAxAC4ANwAuADgABgAAAFwAQAB2AGUAcgBtAAUAAAAxAC4ANwAu
        ADgABwAAAFwAQAB2AGkAcwBpAGIAAQAAADAAAQAAAAAAAAACAAAARFNJTnkAAABoAAAAAAAAAAEAAABoc2luAQAAAAAAAABG64vCmumHRIQ9Mih2ujahOAAAAAAAAABE
        U0lOeQAAAAEAAAAYAAAAAAAAAERTSU4BAAAAAQAAAAEAAAABAAAAAQAAAAAAAAABAAAAAAAAAAEAAABEU0lOdAAAAHUDAAAAAAAAAQAAAGhzaW4BAAAAAAAAAMPiDYJz
        LJxOuWtBgMMVvqRFAwAAAAAAAERTSU50AAAAAQAAACwDAAAAAAAARFNJTnMAAAABAAAAGAAAAAAAAABEU0lOAQAAAAEAAAABAAAAAQAAAAG9DwAA8wIAAAK9DwBgAAAB
        IAUDaHNpbkAHQAAQHyRrBvAZSEqYrqFXTcEPPBhAFCAAA0RTSU5AI+AHA0AAQBsAbSAIAWkPIAQgAEAj4ANTEEkCYzKs2sVGp2B2wrYRj5w5oCfAN0Av4BdnQCMB8Q4g
        XCAAAAUgAwFjDCAEIAAIdHNycEU4TUbPIAsEvCMAAAcgBwZkZWZhdWx04BgKICoAP+ACAwNBAACAIA8AoCAH4AsAAPAgF0AfwAAAICAPwABgFwVAAABIQgDgBABAD0AD
        4BcfYAAge+AEA0AAwBPgAwBAE+AAAAPNzMw+IAwDP5qZGUAXwAPgABcgCuAHG0ATQADgBwdAACATYKtAACALYANAAEALQAAg42AAwA9AB0AD4AMAwA9AB0ADwABAC8AD
        QADAC8AHQADgAwtAAEAP4AMAIA/Bn8AHAMjhDnPgHwDgAO/gDgBAX0ADwABBz8H7QAtAAwCgIINAB0AAALQgCwCWIAPgAwDAP0AHQAPAAEAz4MdLIAAAAcAAIAuAAAAC
        wACADuAdAOAALAD+4B0v4CEAABTgISrgMADBA+AKAGBTgAXgAABChuAXA+AeAOD9WSBZIkBBUgH6Q0AH4FUMQ9VAZwH6Q6BnBYA/zLyMK+BVDOABACBnBAA/ZmZmYAPg
        YwwgAABwJOwB/kJAdCAA4D4MosLgAFaAAKBjgADgOAwgYwRwwgAAhmC6JliAA0BW4EEMIGPgAE3g8AAAUCAA4Of8AP/gFwAABEERCggyAwAAQDIAAAA8QikgAwHwQmLY
        AAEgAYLiIAcgAkKVgAagCSA3oAkgSKAJKxegCQAG4AAJKwSgEyAAoAmASKAGoBPgwk/gSwAAEaBUA2tuYWJBMcAAAYAAIAAAGaARA2N0bmlMiwERJ2FcTFBAAEocAaBC
        4hMPTInAH00bwAvg/QDgvQABIACAAANzaXVnQiQA6CNxwAAAKiAIABkgAyOYYAAj0mAAB2dwdGNZVE1FQAwLDWJlhQEAAAAAAAAAAQAAAAABAAAAAAAAAA==
        ADxkaXNhYmxlZD4AEAAAAA==
      >
      PRESETNAME <disabled>
      FLOATPOS 0 0 0 0
      FXID {F1B39E71-259D-5243-B39F-377B76E7663A}
      WAK 0 0
    >
    <ITEM
      POSITION 133.33328000002135
      SNAPOFFS 0
      LENGTH 49.99997999997865
      LOOP 1
      ALLTAKES 0
      FADEIN 1 0 0 1 0 0
      FADEOUT 1 0 0 1 0 0
      MUTE 0 0
      SEL 0
      IGUID {EAE8244E-D699-E84D-8F33-DE99F153E28B}
      IID 107
      NAME "xbox 360 portal 2 video game disc.mid"
      VOLPAN 1 0 1 -1
      SOFFS 0 0
      PLAYRATE 1 1 0 -1 0 0.0025
      CHANMODE 0
      GUID {B07ECBAB-0DC6-2847-B83D-4E76A3F9F8DD}
      <SOURCE MIDI
        HASDATA 1 128 QN
        CCINTERP 32
        POOLEDEVTS {A626C2CA-5B74-1F4F-9F80-414D227990A7}
        E 0 9b 33 30
        E 384 8b 33 30
        E 0 9b 3a 30
        E 384 8b 3a 30
        E 0 9b 3a 30
        E 0 9b 35 30
        E 1152 8b 35 30
        E 0 9b 33 30
        E 384 8b 33 30
        E 0 9b 3a 30
        E 384 8b 3a 30
        E 0 9b 3a 30
        E 0 9b 35 30
        E 1152 8b 35 30
        E 0 9b 33 30
        E 384 8b 33 30
        E 0 9b 3a 30
        E 384 8b 3a 30
        E 0 9b 3a 30
        E 0 9b 35 30
        E 1152 8b 35 30
        E 0 9b 33 30
        E 384 8b 33 30
        E 0 9b 3a 30
        E 384 8b 3a 30
        E 0 9b 3a 30
        E 0 9b 35 30
        E 1151 8b 35 30
        E 1 b0 7b 00
        CCINTERP 32
        CHASE_CC_TAKEOFFS 1
        GUID {2853920F-DECC-1540-BA6E-28C6F2539053}
        IGNTEMPO 0 120 4 4
        SRCCOLOR 965
        VELLANE 3 156 0
        VELLANE -1 196 0
      >
    >
  >
  <TRACK {39B1BA4E-F698-AB44-AA2B-7180040D6DEE}
    NAME CC
    PEAKCOL 16576
    BEAT -1
    AUTOMODE 0
    VOLPAN 1 0 -1 -1 1
    MUTESOLO 0 0 0
    IPHASE 0
    PLAYOFFS 0 1
    ISBUS 1 1
    BUSCOMP 2 0 0 0 0
    SHOWINMIX 1 0.6667 0.5 1 0.5 0 -1 0
    FREEMODE 0
    SEL 1
    REC 0 0 1 0 0 0 0
    VU 2
    TRACKHEIGHT 0 0 0 0 -1 0
    INQ 0 0 0 0.5 100 0 0 100
    NCHAN 2
    FX 1
    TRACKID {39B1BA4E-F698-AB44-AA2B-7180040D6DEE}
    PERF 0
    MIDIOUT -1
    MAINSEND 1 0
  >
  <TRACK {3F08C98D-A622-AC49-9793-F355C3DBDF56}
    NAME "xbox 360 portal 2 video game disc"
    PEAKCOL 16576
    BEAT -1
    AUTOMODE 0
    VOLPAN 1 0 -1 -1 1
    MUTESOLO 0 0 0
    IPHASE 0
    PLAYOFFS 0 1
    ISBUS 0 0
    BUSCOMP 0 0 0 0 0
    SHOWINMIX 1 0.6667 0.5 1 0.5 0 -1 0
    FREEMODE 0
    SEL 0
    REC 0 0 1 0 0 0 0
    VU 2
    TRACKHEIGHT 0 1 0 0 -1 0
    INQ 0 0 0 0.5 100 0 0 100
    NCHAN 2
    FX 1
    TRACKID {3F08C98D-A622-AC49-9793-F355C3DBDF56}
    PERF 0
    MIDIOUT -1
    MAINSEND 1 0
    <ITEM
      POSITION 0
      SNAPOFFS 0
      LENGTH 0.833333
      LOOP 1
      ALLTAKES 0
      FADEIN 1 0 0 1 0 0
      FADEOUT 1 0 0 1 0 0
      MUTE 0 0
      SEL 0
      IGUID {8B5A29E4-17E6-4A42-BBDB-5B120726B7F3}
      IID 13
      NAME "xbox 360 portal 2 video game disc.mid"
      VOLPAN 1 0 1 -1
      SOFFS 0 0
      PLAYRATE 1 1 0 -1 0 0.0025
      CHANMODE 0
      GUID {5DB34D5F-C836-F742-A81F-61B63BC09FAE}
      <SOURCE MIDI
        HASDATA 1 128 QN
        CCINTERP 32
        POOLEDEVTS {196BF4E3-BDB4-1346-B592-3218B87C9031}
        E 128 b0 7b 00
        CCINTERP 32
        CHASE_CC_TAKEOFFS 1
        GUID {A5A21C0E-8DE2-894C-A763-1164E1E8BC3C}
        IGNTEMPO 0 120 4 4
        SRCCOLOR 410
        VELLANE 3 601 0
        VELLANE -1 196 0
      >
    >
  >
  <TRACK {D0497BF3-C44F-6243-9A6F-DE3200494CD9}
    NAME "xbox 360 portal 2 video game disc"
    PEAKCOL 16576
    BEAT -1
    AUTOMODE 0
    VOLPAN 1 0 -1 -1 1
    MUTESOLO 0 0 0
    IPHASE 0
    PLAYOFFS 0 1
    ISBUS 0 0
    BUSCOMP 0 0 0 0 0
    SHOWINMIX 1 0.6667 0.5 1 0.5 0 -1 0
    FREEMODE 0
    SEL 0
    REC 0 0 1 0 0 0 0
    VU 2
    TRACKHEIGHT 0 1 0 0 -1 0
    INQ 0 0 0 0.5 100 0 0 100
    NCHAN 2
    FX 1
    TRACKID {D0497BF3-C44F-6243-9A6F-DE3200494CD9}
    PERF 0
    MIDIOUT -1
    MAINSEND 1 0
    <ITEM
      POSITION 0
      SNAPOFFS 0
      LENGTH 99.166627
      LOOP 1
      ALLTAKES 0
      FADEIN 1 0 0 1 0 0
      FADEOUT 1 0 0 1 0 0
      MUTE 0 0
      SEL 0
      IGUID {E5DC8ACA-B8ED-1549-8352-9D9D94DAA8BF}
      IID 14
      NAME "xbox 360 portal 2 video game disc.mid"
      VOLPAN 1 0 1 -1
      SOFFS 0 0
      PLAYRATE 1 1 0 -1 0 0.0025
      CHANMODE 0
      GUID {6109C978-22DE-BB4D-A5AB-CD86DB9C01BF}
      <SOURCE MIDI
        HASDATA 1 128 QN
        CCINTERP 32
        POOLEDEVTS {F8892E42-6945-3440-B4A3-8AAED2F85526}
        E 32 b1 05 7f
        E 32 b1 05 7f
        E 32 b1 05 7f
        E 32 b1 05 7f
        E 32 b1 05 7f
        E 32 b1 05 7f
        E 32 b1 05 7f
        E 32 b1 05 7f
        E 32 b1 05 7f
        E 32 b1 05 7f
        E 32 b1 05 7f
        E 32 b1 05 7f
        E 32 b1 05 7f
        E 32 b1 05 7f
        E 32 b1 05 7f
        E 32 b1 05 7f
        E 32 b1 05 7f
        E 32 b1 05 7f
        E 32 b1 05 7f
        E 32 b1 05 7f
        E 32 b1 05 7f
        E 32 b1 05 7f
        E 32 b1 05 7f
        E 32 b1 05 7f
        E 32 b1 05 7f
        E 32 b1 05 7f
        E 32 b1 05 7f
        E 32 b1 05 7f
        E 32 b1 05 7f
        E 32 b1 05 7f
        E 32 b1 05 7f
        E 32 b1 05 7f
        E 32 b1 05 7f
        E 32 b1 05 7f
        E 32 b1 05 7f
        E 32 b1 05 7f
        E 32 b1 05 7f
        E 32 b1 05 7f
        E 32 b1 05 7f
        E 32 b1 05 7f
        E 32 b1 05 7f
        E 32 b1 05 7f
        E 32 b1 05 7f
        E 32 b1 05 7f
        E 32 b1 05 7f
        E 32 b1 05 7f
        E 32 b1 05 7f
        E 32 b1 05 7f
        E 32 b1 05 7f
        E 32 b1 05 7f
        E 32 b1 05 7f
        E 32 b1 05 7f
        E 32 b1 05 7f
        E 32 b1 05 7f
        E 32 b1 05 7f
        E 32 b1 05 7f
        E 32 b1 05 7f
        E 32 b1 05 7f
        E 32 b1 05 7f
        E 32 b1 05 7f
        E 32 b1 05 7f
        E 32 b1 05 7f
        E 32 b1 05 7f
        E 32 b1 05 00
        E 32 b1 05 00
        E 32 b1 05 00
        E 32 b1 05 00
        E 32 b1 05 00
        E 32 b1 05 00
        E 32 b1 05 00
        E 32 b1 05 00
        E 32 b1 05 00
        E 32 b1 05 00
        E 32 b1 05 00
        E 32 b1 05 00
        E 32 b1 05 00
        E 32 b1 05 00
        E 32 b1 05 00
        E 32 b1 05 00
        E 32 b1 05 00
        E 32 b1 05 00
        E 32 b1 05 00
        E 32 b1 05 00
        E 32 b1 05 00
        E 32 b1 05 00
        E 32 b1 05 00
        E 32 b1 05 00
        E 32 b1 05 00
        E 32 b1 05 00
        E 32 b1 05 00
        E 32 b1 05 00
        E 32 b1 05 00
        E 32 b1 05 00
        E 32 b1 05 00
        E 32 b1 05 00
        E 32 b1 05 00
        E 32 b1 05 00
        E 32 b1 05 00
        E 32 b1 05 00
        E 32 b1 05 00
        E 32 b1 05 00
        E 32 b1 05 00
        E 32 b1 05 00
        E 32 b1 05 00
        E 32 b1 05 00
        E 32 b1 05 00
        E 32 b1 05 00
        E 32 b1 05 00
        E 32 b1 05 00
        E 32 b1 05 00
        E 32 b1 05 00
        E 32 b1 05 00
        E 32 b1 05 00
        E 32 b1 05 00
        E 32 b1 05 00
        E 32 b1 05 00
        E 32 b1 05 00
        E 32 b1 05 00
        E 32 b1 05 00
        E 32 b1 05 00
        E 32 b1 05 00
        E 32 b1 05 00
        E 32 b1 05 00
        E 32 b1 05 00
        E 32 b1 05 00
        E 32 b1 05 00
        E 32 b1 05 00
        E 7 b1 05 72
        E 7 b1 05 72
        E 7 b1 05 72
        E 7 b1 05 72
        E 7 b1 05 72
        E 7 b1 05 72
        E 7 b1 05 72
        E 7 b1 05 72
        E 7 b1 05 72
        E 7 b1 05 72
        E 7 b1 05 72
        E 7 b1 05 72
        E 7 b1 05 72
        E 7 b1 05 72
        E 7 b1 05 72
        E 7 b1 05 72
        E 7 b1 05 72
        E 7 b1 05 72
        E 7 b1 05 72
        E 7 b1 05 72
        E 7 b1 05 72
        E 7 b1 05 72
        E 7 b1 05 72
        E 7 b1 05 72
        E 7 b1 05 72
        E 7 b1 05 72
        E 7 b1 05 72
        E 7 b1 05 72
        E 7 b1 05 72
        E 7 b1 05 72
        E 7 b1 05 72
        E 7 b1 05 72
        E 7 b1 05 72
        E 7 b1 05 72
        E 7 b1 05 72
        E 7 b1 05 72
        E 7 b1 05 72
        E 7 b1 05 72
        E 7 b1 05 72
        E 7 b1 05 72
        E 7 b1 05 72
        E 7 b1 05 72
        E 7 b1 05 72
        E 7 b1 05 72
        E 7 b1 05 72
        E 7 b1 05 72
        E 7 b1 05 72
        E 7 b1 05 72
        E 7 b1 05 72
        E 7 b1 05 72
        E 7 b1 05 72
        E 7 b1 05 72
        E 7 b1 05 72
        E 7 b1 05 72
        E 7 b1 05 72
        E 7 b1 05 72
        E 7 b1 05 72
        E 7 b1 05 72
        E 7 b1 05 72
        E 7 b1 05 72
        E 7 b1 05 72
        E 7 b1 05 72
        E 7 b1 05 72
        E 7 b1 05 00
        E 7 b1 05 00
        E 7 b1 05 00
        E 7 b1 05 00
        E 7 b1 05 00
        E 7 b1 05 00
        E 7 b1 05 00
        E 7 b1 05 00
        E 7 b1 05 00
        E 7 b1 05 00
        E 7 b1 05 00
        E 7 b1 05 00
        E 7 b1 05 00
        E 7 b1 05 00
        E 7 b1 05 00
        E 7 b1 05 00
        E 7 b1 05 00
        E 7 b1 05 00
        E 7 b1 05 00
        E 7 b1 05 00
        E 7 b1 05 00
        E 7 b1 05 00
        E 7 b1 05 00
        E 7 b1 05 00
        E 7 b1 05 00
        E 7 b1 05 00
        E 7 b1 05 00
        E 7 b1 05 00
        E 7 b1 05 00
        E 7 b1 05 00
        E 7 b1 05 00
        E 7 b1 05 00
        E 7 b1 05 00
        E 7 b1 05 00
        E 7 b1 05 00
        E 7 b1 05 00
        E 7 b1 05 00
        E 7 b1 05 00
        E 7 b1 05 00
        E 7 b1 05 00
        E 7 b1 05 00
        E 7 b1 05 00
        E 7 b1 05 00
        E 7 b1 05 00
        E 7 b1 05 00
        E 7 b1 05 00
        E 7 b1 05 00
        E 7 b1 05 00
        E 7 b1 05 00
        E 7 b1 05 00
        E 7 b1 05 00
        E 7 b1 05 00
        E 7 b1 05 00
        E 7 b1 05 00
        E 7 b1 05 00
        E 7 b1 05 00
        E 7 b1 05 00
        E 7 b1 05 00
        E 7 b1 05 00
        E 7 b1 05 00
        E 7 b1 05 00
        E 7 b1 05 00
        E 7 b1 05 00
        E 7 b1 05 00
        E 3 b1 05 4c
        E 3 b1 05 4c
        E 3 b1 05 4c
        E 3 b1 05 4c
        E 3 b1 05 4c
        E 3 b1 05 4c
        E 3 b1 05 4c
        E 3 b1 05 4c
        E 3 b1 05 4c
        E 3 b1 05 4c
        E 3 b1 05 4c
        E 3 b1 05 4c
        E 3 b1 05 4c
        E 3 b1 05 4c
        E 3 b1 05 4c
        E 3 b1 05 4c
        E 3 b1 05 4c
        E 3 b1 05 4c
        E 3 b1 05 4c
        E 3 b1 05 4c
        E 3 b1 05 4c
        E 3 b1 05 4c
        E 3 b1 05 4c
        E 3 b1 05 4c
        E 3 b1 05 4c
        E 3 b1 05 4c
        E 3 b1 05 4c
        E 3 b1 05 4c
        E 3 b1 05 4c
        E 3 b1 05 4c
        E 3 b1 05 4c
        E 3 b1 05 4c
        E 3 b1 05 4c
        E 3 b1 05 4c
        E 3 b1 05 4c
        E 3 b1 05 4c
        E 3 b1 05 4c
        E 3 b1 05 4c
        E 3 b1 05 4c
        E 3 b1 05 4c
        E 3 b1 05 4c
        E 3 b1 05 4c
        E 3 b1 05 4c
        E 3 b1 05 4c
        E 3 b1 05 4c
        E 3 b1 05 4c
        E 3 b1 05 4c
        E 3 b1 05 4c
        E 3 b1 05 4c
        E 3 b1 05 4c
        E 3 b1 05 4c
        E 3 b1 05 4c
        E 3 b1 05 4c
        E 3 b1 05 4c
        E 3 b1 05 4c
        E 3 b1 05 4c
        E 3 b1 05 4c
        E 3 b1 05 4c
        E 3 b1 05 4c
        E 3 b1 05 4c
        E 3 b1 05 4c
        E 3 b1 05 4c
        E 3 b1 05 4c
        E 3 b1 05 00
        E 3 b1 05 00
        E 3 b1 05 00
        E 3 b1 05 00
        E 3 b1 05 00
        E 3 b1 05 00
        E 3 b1 05 00
        E 3 b1 05 00
        E 3 b1 05 00
        E 3 b1 05 00
        E 3 b1 05 00
        E 3 b1 05 00
        E 3 b1 05 00
        E 3 b1 05 00
        E 3 b1 05 00
        E 3 b1 05 00
        E 3 b1 05 00
        E 3 b1 05 00
        E 3 b1 05 00
        E 3 b1 05 00
        E 3 b1 05 00
        E 3 b1 05 00
        E 3 b1 05 00
        E 3 b1 05 00
        E 3 b1 05 00
        E 3 b1 05 00
        E 3 b1 05 00
        E 3 b1 05 00
        E 3 b1 05 00
        E 3 b1 05 00
        E 3 b1 05 00
        E 3 b1 05 00
        E 3 b1 05 00
        E 3 b1 05 00
        E 3 b1 05 00
        E 3 b1 05 00
        E 3 b1 05 00
        E 3 b1 05 00
        E 3 b1 05 00
        E 3 b1 05 00
        E 3 b1 05 00
        E 3 b1 05 00
        E 3 b1 05 00
        E 3 b1 05 00
        E 3 b1 05 00
        E 3 b1 05 00
        E 3 b1 05 00
        E 3 b1 05 00
        E 3 b1 05 00
        E 3 b1 05 00
        E 3 b1 05 00
        E 3 b1 05 00
        E 3 b1 05 00
        E 3 b1 05 00
        E 3 b1 05 00
        E 3 b1 05 00
        E 3 b1 05 00
        E 3 b1 05 00
        E 3 b1 05 00
        E 3 b1 05 00
        E 3 b1 05 00
        E 3 b1 05 00
        E 3 b1 05 00
        E 3 b1 05 00
        E 18 b1 05 19
        E 18 b1 05 19
        E 18 b1 05 19
        E 18 b1 05 19
        E 18 b1 05 19
        E 18 b1 05 19
        E 18 b1 05 19
        E 18 b1 05 19
        E 18 b1 05 19
        E 18 b1 05 19
        E 18 b1 05 19
        E 18 b1 05 19
        E 18 b1 05 19
        E 18 b1 05 19
        E 18 b1 05 19
        E 18 b1 05 19
        E 18 b1 05 19
        E 18 b1 05 19
        E 18 b1 05 19
        E 18 b1 05 19
        E 18 b1 05 19
        E 18 b1 05 19
        E 18 b1 05 19
        E 18 b1 05 19
        E 18 b1 05 19
        E 18 b1 05 19
        E 18 b1 05 19
        E 18 b1 05 19
        E 18 b1 05 19
        E 18 b1 05 19
        E 18 b1 05 19
        E 18 b1 05 19
        E 18 b1 05 19
        E 18 b1 05 19
        E 18 b1 05 19
        E 18 b1 05 19
        E 18 b1 05 19
        E 18 b1 05 19
        E 18 b1 05 19
        E 18 b1 05 19
        E 18 b1 05 19
        E 18 b1 05 19
        E 18 b1 05 19
        E 18 b1 05 19
        E 18 b1 05 19
        E 18 b1 05 19
        E 18 b1 05 19
        E 18 b1 05 19
        E 18 b1 05 19
        E 18 b1 05 19
        E 18 b1 05 19
        E 18 b1 05 19
        E 18 b1 05 19
        E 18 b1 05 19
        E 18 b1 05 19
        E 18 b1 05 19
        E 18 b1 05 19
        E 18 b1 05 19
        E 18 b1 05 19
        E 18 b1 05 19
        E 18 b1 05 19
        E 18 b1 05 19
        E 18 b1 05 19
        E 18 b1 05 00
        E 18 b1 05 00
        E 18 b1 05 00
        E 18 b1 05 00
        E 18 b1 05 00
        E 18 b1 05 00
        E 18 b1 05 00
        E 18 b1 05 00
        E 18 b1 05 00
        E 18 b1 05 00
        E 18 b1 05 00
        E 18 b1 05 00
        E 18 b1 05 00
        E 18 b1 05 00
        E 18 b1 05 00
        E 18 b1 05 00
        E 18 b1 05 00
        E 18 b1 05 00
        E 18 b1 05 00
        E 18 b1 05 00
        E 18 b1 05 00
        E 18 b1 05 00
        E 18 b1 05 00
        E 18 b1 05 00
        E 18 b1 05 00
        E 18 b1 05 00
        E 18 b1 05 00
        E 18 b1 05 00
        E 18 b1 05 00
        E 18 b1 05 00
        E 18 b1 05 00
        E 18 b1 05 00
        E 18 b1 05 00
        E 18 b1 05 00
        E 18 b1 05 00
        E 18 b1 05 00
        E 18 b1 05 00
        E 18 b1 05 00
        E 18 b1 05 00
        E 18 b1 05 00
        E 18 b1 05 00
        E 18 b1 05 00
        E 18 b1 05 00
        E 18 b1 05 00
        E 18 b1 05 00
        E 18 b1 05 00
        E 18 b1 05 00
        E 18 b1 05 00
        E 18 b1 05 00
        E 18 b1 05 00
        E 18 b1 05 00
        E 18 b1 05 00
        E 18 b1 05 00
        E 18 b1 05 00
        E 18 b1 05 00
        E 18 b1 05 00
        E 18 b1 05 00
        E 18 b1 05 00
        E 18 b1 05 00
        E 18 b1 05 00
        E 18 b1 05 00
        E 18 b1 05 00
        E 18 b1 05 00
        E 18 b1 05 00
        E 14 b1 05 58
        E 14 b1 05 58
        E 14 b1 05 58
        E 14 b1 05 58
        E 14 b1 05 58
        E 14 b1 05 58
        E 14 b1 05 58
        E 14 b1 05 58
        E 14 b1 05 58
        E 14 b1 05 58
        E 14 b1 05 58
        E 14 b1 05 58
        E 14 b1 05 58
        E 14 b1 05 58
        E 14 b1 05 58
        E 14 b1 05 58
        E 14 b1 05 58
        E 14 b1 05 58
        E 14 b1 05 58
        E 14 b1 05 58
        E 14 b1 05 58
        E 14 b1 05 58
        E 14 b1 05 58
        E 14 b1 05 58
        E 14 b1 05 58
        E 14 b1 05 58
        E 14 b1 05 58
        E 14 b1 05 58
        E 14 b1 05 58
        E 14 b1 05 58
        E 14 b1 05 58
        E 14 b1 05 58
        E 14 b1 05 58
        E 14 b1 05 58
        E 14 b1 05 58
        E 14 b1 05 58
        E 14 b1 05 58
        E 14 b1 05 58
        E 14 b1 05 58
        E 14 b1 05 58
        E 14 b1 05 58
        E 14 b1 05 58
        E 14 b1 05 58
        E 14 b1 05 58
        E 14 b1 05 58
        E 14 b1 05 58
        E 14 b1 05 58
        E 14 b1 05 58
        E 14 b1 05 58
        E 14 b1 05 58
        E 14 b1 05 58
        E 14 b1 05 58
        E 14 b1 05 58
        E 14 b1 05 58
        E 14 b1 05 58
        E 14 b1 05 58
        E 14 b1 05 58
        E 14 b1 05 58
        E 14 b1 05 58
        E 14 b1 05 58
        E 14 b1 05 58
        E 14 b1 05 58
        E 14 b1 05 58
        E 14 b1 05 00
        E 14 b1 05 00
        E 14 b1 05 00
        E 14 b1 05 00
        E 14 b1 05 00
        E 14 b1 05 00
        E 14 b1 05 00
        E 14 b1 05 00
        E 14 b1 05 00
        E 14 b1 05 00
        E 14 b1 05 00
        E 14 b1 05 00
        E 14 b1 05 00
        E 14 b1 05 00
        E 14 b1 05 00
        E 14 b1 05 00
        E 14 b1 05 00
        E 14 b1 05 00
        E 14 b1 05 00
        E 14 b1 05 00
        E 14 b1 05 00
        E 14 b1 05 00
        E 14 b1 05 00
        E 14 b1 05 00
        E 14 b1 05 00
        E 14 b1 05 00
        E 14 b1 05 00
        E 14 b1 05 00
        E 14 b1 05 00
        E 14 b1 05 00
        E 14 b1 05 00
        E 14 b1 05 00
        E 14 b1 05 00
        E 14 b1 05 00
        E 14 b1 05 00
        E 14 b1 05 00
        E 14 b1 05 00
        E 14 b1 05 00
        E 14 b1 05 00
        E 14 b1 05 00
        E 14 b1 05 00
        E 14 b1 05 00
        E 14 b1 05 00
        E 14 b1 05 00
        E 14 b1 05 00
        E 14 b1 05 00
        E 14 b1 05 00
        E 14 b1 05 00
        E 14 b1 05 00
        E 14 b1 05 00
        E 14 b1 05 00
        E 14 b1 05 00
        E 14 b1 05 00
        E 14 b1 05 00
        E 14 b1 05 00
        E 14 b1 05 00
        E 14 b1 05 00
        E 14 b1 05 00
        E 14 b1 05 00
        E 14 b1 05 00
        E 14 b1 05 00
        E 14 b1 05 00
        E 14 b1 05 00
        E 14 b1 05 00
        E 3 b1 05 32
        E 3 b1 05 32
        E 3 b1 05 32
        E 3 b1 05 32
        E 3 b1 05 32
        E 3 b1 05 32
        E 3 b1 05 32
        E 3 b1 05 32
        E 3 b1 05 32
        E 3 b1 05 32
        E 3 b1 05 32
        E 3 b1 05 32
        E 3 b1 05 32
        E 3 b1 05 32
        E 3 b1 05 32
        E 3 b1 05 32
        E 3 b1 05 32
        E 3 b1 05 32
        E 3 b1 05 32
        E 3 b1 05 32
        E 3 b1 05 32
        E 3 b1 05 32
        E 3 b1 05 32
        E 3 b1 05 32
        E 3 b1 05 32
        E 3 b1 05 32
        E 3 b1 05 32
        E 3 b1 05 32
        E 3 b1 05 32
        E 3 b1 05 32
        E 3 b1 05 32
        E 3 b1 05 32
        E 3 b1 05 32
        E 3 b1 05 32
        E 3 b1 05 32
        E 3 b1 05 32
        E 3 b1 05 32
        E 3 b1 05 32
        E 3 b1 05 32
        E 3 b1 05 32
        E 3 b1 05 32
        E 3 b1 05 32
        E 3 b1 05 32
        E 3 b1 05 32
        E 3 b1 05 32
        E 3 b1 05 32
        E 3 b1 05 32
        E 3 b1 05 32
        E 3 b1 05 32
        E 3 b1 05 32
        E 3 b1 05 32
        E 3 b1 05 32
        E 3 b1 05 32
        E 3 b1 05 32
        E 3 b1 05 32
        E 3 b1 05 32
        E 3 b1 05 32
        E 3 b1 05 32
        E 3 b1 05 32
        E 3 b1 05 32
        E 3 b1 05 32
        E 3 b1 05 32
        E 3 b1 05 32
        E 3 b1 05 00
        E 3 b1 05 00
        E 3 b1 05 00
        E 3 b1 05 00
        E 3 b1 05 00
        E 3 b1 05 00
        E 3 b1 05 00
        E 3 b1 05 00
        E 3 b1 05 00
        E 3 b1 05 00
        E 3 b1 05 00
        E 3 b1 05 00
        E 3 b1 05 00
        E 3 b1 05 00
        E 3 b1 05 00
        E 3 b1 05 00
        E 3 b1 05 00
        E 3 b1 05 00
        E 3 b1 05 00
        E 3 b1 05 00
        E 3 b1 05 00
        E 3 b1 05 00
        E 3 b1 05 00
        E 3 b1 05 00
        E 3 b1 05 00
        E 3 b1 05 00
        E 3 b1 05 00
        E 3 b1 05 00
        E 3 b1 05 00
        E 3 b1 05 00
        E 3 b1 05 00
        E 3 b1 05 00
        E 3 b1 05 00
        E 3 b1 05 00
        E 3 b1 05 00
        E 3 b1 05 00
        E 3 b1 05 00
        E 3 b1 05 00
        E 3 b1 05 00
        E 3 b1 05 00
        E 3 b1 05 00
        E 3 b1 05 00
        E 3 b1 05 00
        E 3 b1 05 00
        E 3 b1 05 00
        E 3 b1 05 00
        E 3 b1 05 00
        E 3 b1 05 00
        E 3 b1 05 00
        E 3 b1 05 00
        E 3 b1 05 00
        E 3 b1 05 00
        E 3 b1 05 00
        E 3 b1 05 00
        E 3 b1 05 00
        E 3 b1 05 00
        E 3 b1 05 00
        E 3 b1 05 00
        E 3 b1 05 00
        E 3 b1 05 00
        E 3 b1 05 00
        E 3 b1 05 00
        E 3 b1 05 00
        E 3 b1 05 00
        E 32 b1 05 7f
        E 32 b1 05 7f
        E 32 b1 05 7f
        E 32 b1 05 7f
        E 32 b1 05 7f
        E 32 b1 05 7f
        E 32 b1 05 7f
        E 32 b1 05 7f
        E 32 b1 05 7f
        E 32 b1 05 7f
        E 32 b1 05 7f
        E 32 b1 05 7f
        E 32 b1 05 7f
        E 32 b1 05 7f
        E 32 b1 05 7f
        E 32 b1 05 7f
        E 32 b1 05 7f
        E 32 b1 05 7f
        E 32 b1 05 7f
        E 32 b1 05 7f
        E 32 b1 05 7f
        E 32 b1 05 7f
        E 32 b1 05 7f
        E 32 b1 05 7f
        E 32 b1 05 7f
        E 32 b1 05 7f
        E 32 b1 05 7f
        E 32 b1 05 7f
        E 32 b1 05 7f
        E 32 b1 05 7f
        E 32 b1 05 7f
        E 32 b1 05 7f
        E 32 b1 05 7f
        E 32 b1 05 7f
        E 32 b1 05 7f
        E 32 b1 05 7f
        E 32 b1 05 7f
        E 32 b1 05 7f
        E 32 b1 05 7f
        E 32 b1 05 7f
        E 32 b1 05 7f
        E 32 b1 05 7f
        E 32 b1 05 7f
        E 32 b1 05 7f
        E 32 b1 05 7f
        E 32 b1 05 7f
        E 32 b1 05 7f
        E 32 b1 05 7f
        E 32 b1 05 7f
        E 32 b1 05 7f
        E 32 b1 05 7f
        E 32 b1 05 7f
        E 32 b1 05 7f
        E 32 b1 05 7f
        E 32 b1 05 7f
        E 32 b1 05 7f
        E 32 b1 05 7f
        E 32 b1 05 7f
        E 32 b1 05 7f
        E 32 b1 05 7f
        E 32 b1 05 7f
        E 32 b1 05 7f
        E 32 b1 05 7f
        E 32 b1 05 00
        E 32 b1 05 00
        E 32 b1 05 00
        E 32 b1 05 00
        E 32 b1 05 00
        E 32 b1 05 00
        E 32 b1 05 00
        E 32 b1 05 00
        E 32 b1 05 00
        E 32 b1 05 00
        E 32 b1 05 00
        E 32 b1 05 00
        E 32 b1 05 00
        E 32 b1 05 00
        E 32 b1 05 00
        E 32 b1 05 00
        E 32 b1 05 00
        E 32 b1 05 00
        E 32 b1 05 00
        E 32 b1 05 00
        E 32 b1 05 00
        E 32 b1 05 00
        E 32 b1 05 00
        E 32 b1 05 00
        E 32 b1 05 00
        E 32 b1 05 00
        E 32 b1 05 00
        E 32 b1 05 00
        E 32 b1 05 00
        E 32 b1 05 00
        E 32 b1 05 00
        E 32 b1 05 00
        E 32 b1 05 00
        E 32 b1 05 00
        E 32 b1 05 00
        E 32 b1 05 00
        E 32 b1 05 00
        E 32 b1 05 00
        E 32 b1 05 00
        E 32 b1 05 00
        E 32 b1 05 00
        E 32 b1 05 00
        E 32 b1 05 00
        E 32 b1 05 00
        E 32 b1 05 00
        E 32 b1 05 00
        E 32 b1 05 00
        E 32 b1 05 00
        E 32 b1 05 00
        E 32 b1 05 00
        E 32 b1 05 00
        E 32 b1 05 00
        E 32 b1 05 00
        E 32 b1 05 00
        E 32 b1 05 00
        E 32 b1 05 00
        E 32 b1 05 00
        E 32 b1 05 00
        E 32 b1 05 00
        E 32 b1 05 00
        E 32 b1 05 00
        E 32 b1 05 00
        E 32 b1 05 00
        E 32 b1 05 00
        E 7 b1 05 72
        E 7 b1 05 72
        E 7 b1 05 72
        E 7 b1 05 72
        E 7 b1 05 72
        E 7 b1 05 72
        E 7 b1 05 72
        E 7 b1 05 72
        E 7 b1 05 72
        E 7 b1 05 72
        E 7 b1 05 72
        E 7 b1 05 72
        E 7 b1 05 72
        E 7 b1 05 72
        E 7 b1 05 72
        E 7 b1 05 72
        E 7 b1 05 72
        E 7 b1 05 72
        E 7 b1 05 72
        E 7 b1 05 72
        E 7 b1 05 72
        E 7 b1 05 72
        E 7 b1 05 72
        E 7 b1 05 72
        E 7 b1 05 72
        E 7 b1 05 72
        E 7 b1 05 72
        E 7 b1 05 72
        E 7 b1 05 72
        E 7 b1 05 72
        E 7 b1 05 72
        E 7 b1 05 72
        E 7 b1 05 72
        E 7 b1 05 72
        E 7 b1 05 72
        E 7 b1 05 72
        E 7 b1 05 72
        E 7 b1 05 72
        E 7 b1 05 72
        E 7 b1 05 72
        E 7 b1 05 72
        E 7 b1 05 72
        E 7 b1 05 72
        E 7 b1 05 72
        E 7 b1 05 72
        E 7 b1 05 72
        E 7 b1 05 72
        E 7 b1 05 72
        E 7 b1 05 72
        E 7 b1 05 72
        E 7 b1 05 72
        E 7 b1 05 72
        E 7 b1 05 72
        E 7 b1 05 72
        E 7 b1 05 72
        E 7 b1 05 72
        E 7 b1 05 72
        E 7 b1 05 72
        E 7 b1 05 72
        E 7 b1 05 72
        E 7 b1 05 72
        E 7 b1 05 72
        E 7 b1 05 72
        E 7 b1 05 00
        E 7 b1 05 00
        E 7 b1 05 00
        E 7 b1 05 00
        E 7 b1 05 00
        E 7 b1 05 00
        E 7 b1 05 00
        E 7 b1 05 00
        E 7 b1 05 00
        E 7 b1 05 00
        E 7 b1 05 00
        E 7 b1 05 00
        E 7 b1 05 00
        E 7 b1 05 00
        E 7 b1 05 00
        E 7 b1 05 00
        E 7 b1 05 00
        E 7 b1 05 00
        E 7 b1 05 00
        E 7 b1 05 00
        E 7 b1 05 00
        E 7 b1 05 00
        E 7 b1 05 00
        E 7 b1 05 00
        E 7 b1 05 00
        E 7 b1 05 00
        E 7 b1 05 00
        E 7 b1 05 00
        E 7 b1 05 00
        E 7 b1 05 00
        E 7 b1 05 00
        E 7 b1 05 00
        E 7 b1 05 00
        E 7 b1 05 00
        E 7 b1 05 00
        E 7 b1 05 00
        E 7 b1 05 00
        E 7 b1 05 00
        E 7 b1 05 00
        E 7 b1 05 00
        E 7 b1 05 00
        E 7 b1 05 00
        E 7 b1 05 00
        E 7 b1 05 00
        E 7 b1 05 00
        E 7 b1 05 00
        E 7 b1 05 00
        E 7 b1 05 00
        E 7 b1 05 00
        E 7 b1 05 00
        E 7 b1 05 00
        E 7 b1 05 00
        E 7 b1 05 00
        E 7 b1 05 00
        E 7 b1 05 00
        E 7 b1 05 00
        E 7 b1 05 00
        E 7 b1 05 00
        E 7 b1 05 00
        E 7 b1 05 00
        E 7 b1 05 00
        E 7 b1 05 00
        E 7 b1 05 00
        E 7 b1 05 00
        E 3 b1 05 4c
        E 3 b1 05 4c
        E 3 b1 05 4c
        E 3 b1 05 4c
        E 3 b1 05 4c
        E 3 b1 05 4c
        E 3 b1 05 4c
        E 3 b1 05 4c
        E 3 b1 05 4c
        E 3 b1 05 4c
        E 3 b1 05 4c
        E 3 b1 05 4c
        E 3 b1 05 4c
        E 3 b1 05 4c
        E 3 b1 05 4c
        E 3 b1 05 4c
        E 3 b1 05 4c
        E 3 b1 05 4c
        E 3 b1 05 4c
        E 3 b1 05 4c
        E 3 b1 05 4c
        E 3 b1 05 4c
        E 3 b1 05 4c
        E 3 b1 05 4c
        E 3 b1 05 4c
        E 3 b1 05 4c
        E 3 b1 05 4c
        E 3 b1 05 4c
        E 3 b1 05 4c
        E 3 b1 05 4c
        E 3 b1 05 4c
        E 3 b1 05 4c
        E 3 b1 05 4c
        E 3 b1 05 4c
        E 3 b1 05 4c
        E 3 b1 05 4c
        E 3 b1 05 4c
        E 3 b1 05 4c
        E 3 b1 05 4c
        E 3 b1 05 4c
        E 3 b1 05 4c
        E 3 b1 05 4c
        E 3 b1 05 4c
        E 3 b1 05 4c
        E 3 b1 05 4c
        E 3 b1 05 4c
        E 3 b1 05 4c
        E 3 b1 05 4c
        E 3 b1 05 4c
        E 3 b1 05 4c
        E 3 b1 05 4c
        E 3 b1 05 4c
        E 3 b1 05 4c
        E 3 b1 05 4c
        E 3 b1 05 4c
        E 3 b1 05 4c
        E 3 b1 05 4c
        E 3 b1 05 4c
        E 3 b1 05 4c
        E 3 b1 05 4c
        E 3 b1 05 4c
        E 3 b1 05 4c
        E 3 b1 05 4c
        E 3 b1 05 00
        E 3 b1 05 00
        E 3 b1 05 00
        E 3 b1 05 00
        E 3 b1 05 00
        E 3 b1 05 00
        E 3 b1 05 00
        E 3 b1 05 00
        E 3 b1 05 00
        E 3 b1 05 00
        E 3 b1 05 00
        E 3 b1 05 00
        E 3 b1 05 00
        E 3 b1 05 00
        E 3 b1 05 00
        E 3 b1 05 00
        E 3 b1 05 00
        E 3 b1 05 00
        E 3 b1 05 00
        E 3 b1 05 00
        E 3 b1 05 00
        E 3 b1 05 00
        E 3 b1 05 00
        E 3 b1 05 00
        E 3 b1 05 00
        E 3 b1 05 00
        E 3 b1 05 00
        E 3 b1 05 00
        E 3 b1 05 00
        E 3 b1 05 00
        E 3 b1 05 00
        E 3 b1 05 00
        E 3 b1 05 00
        E 3 b1 05 00
        E 3 b1 05 00
        E 3 b1 05 00
        E 3 b1 05 00
        E 3 b1 05 00
        E 3 b1 05 00
        E 3 b1 05 00
        E 3 b1 05 00
        E 3 b1 05 00
        E 3 b1 05 00
        E 3 b1 05 00
        E 3 b1 05 00
        E 3 b1 05 00
        E 3 b1 05 00
        E 3 b1 05 00
        E 3 b1 05 00
        E 3 b1 05 00
        E 3 b1 05 00
        E 3 b1 05 00
        E 3 b1 05 00
        E 3 b1 05 00
        E 3 b1 05 00
        E 3 b1 05 00
        E 3 b1 05 00
        E 3 b1 05 00
        E 3 b1 05 00
        E 3 b1 05 00
        E 3 b1 05 00
        E 3 b1 05 00
        E 3 b1 05 00
        E 3 b1 05 00
        E 119 b0 7b 00
        CCINTERP 32
        CHASE_CC_TAKEOFFS 1
        GUID {CBFB0A0B-37B6-854A-8442-FA3D82EDE9C2}
        IGNTEMPO 0 120 4 4
        SRCCOLOR 411
        VELLANE 3 601 0
        VELLANE -1 196 0
      >
    >
  >
  <TRACK {B4597F33-D753-664B-A21F-C048361E9D77}
    NAME "xbox 360 portal 2 video game disc"
    PEAKCOL 16576
    BEAT -1
    AUTOMODE 0
    VOLPAN 1 0 -1 -1 1
    MUTESOLO 0 0 0
    IPHASE 0
    PLAYOFFS 0 1
    ISBUS 0 0
    BUSCOMP 0 0 0 0 0
    SHOWINMIX 1 0.6667 0.5 1 0.5 0 -1 0
    FREEMODE 0
    SEL 0
    REC 0 0 1 0 0 0 0
    VU 2
    TRACKHEIGHT 0 1 0 0 -1 0
    INQ 0 0 0 0.5 100 0 0 100
    NCHAN 2
    FX 1
    TRACKID {B4597F33-D753-664B-A21F-C048361E9D77}
    PERF 0
    MIDIOUT -1
    MAINSEND 1 0
    <ITEM
      POSITION 0
      SNAPOFFS 0
      LENGTH 589.999764
      LOOP 1
      ALLTAKES 0
      FADEIN 1 0 0 1 0 0
      FADEOUT 1 0 0 1 0 0
      MUTE 0 0
      SEL 0
      IGUID {A386F979-1DD1-D549-860D-392BB0CB28D4}
      IID 15
      NAME "xbox 360 portal 2 video game disc.mid"
      VOLPAN 1 0 1 -1
      SOFFS 0 0
      PLAYRATE 1 1 0 -1 0 0.0025
      CHANMODE 0
      GUID {966B719B-4DBB-AD48-837F-44E0EE0246DB}
      <SOURCE MIDI
        HASDATA 1 128 QN
        CCINTERP 32
        POOLEDEVTS {6903395F-F655-4047-B6C6-1B0871C0E29E}
        E 30 b2 07 19
        E 30 b2 07 56
        E 30 b2 07 38
        E 30 b2 07 09
        E 30 b2 07 51
        E 30 b2 07 48
        E 30 b2 07 0a
        E 30 b2 07 09
        E 30 b2 07 36
        E 30 b2 07 6c
        E 30 b2 07 5a
        E 30 b2 07 63
        E 30 b2 07 47
        E 30 b2 07 0c
        E 30 b2 07 15
        E 30 b2 07 4d
        E 30 b2 07 3f
        E 30 b2 07 20
        E 30 b2 07 16
        E 30 b2 07 1e
        E 30 b2 07 59
        E 30 b2 07 35
        E 30 b2 07 1b
        E 30 b2 07 41
        E 30 b2 07 71
        E 30 b2 07 00
        E 30 b2 07 0e
        E 30 b2 07 2e
        E 30 b2 07 26
        E 30 b2 07 5d
        E 30 b2 07 18
        E 30 b2 07 07
        E 30 b2 07 12
        E 30 b2 07 13
        E 30 b2 07 67
        E 30 b2 07 1c
        E 30 b2 07 00
        E 30 b2 07 54
        E 30 b2 07 27
        E 30 b2 07 17
        E 30 b2 07 2d
        E 30 b2 07 1d
        E 30 b2 07 61
        E 30 b2 07 60
        E 30 b2 07 72
        E 30 b2 07 5f
        E 30 b2 07 31
        E 30 b2 07 6a
        E 30 b2 07 51
        E 30 b2 07 0d
        E 30 b2 07 32
        E 30 b2 07 3d
        E 30 b2 07 6c
        E 30 b2 07 57
        E 30 b2 07 3e
        E 30 b2 07 3f
        E 30 b2 07 05
        E 30 b2 07 0b
        E 30 b2 07 69
        E 30 b2 07 5b
        E 30 b2 07 30
        E 30 b2 07 24
        E 30 b2 07 0f
        E 30 b2 07 33
        E 30 b2 07 22
        E 30 b2 07 1b
        E 30 b2 07 2b
        E 30 b2 07 3b
        E 30 b2 07 45
        E 30 b2 07 49
        E 30 b2 07 12
        E 30 b2 07 44
        E 30 b2 07 65
        E 30 b2 07 3a
        E 30 b2 07 42
        E 30 b2 07 02
        E 30 b2 07 08
        E 30 b2 07 70
        E 30 b2 07 4a
        E 30 b2 07 14
        E 30 b2 07 68
        E 30 b2 07 24
        E 30 b2 07 2c
        E 30 b2 07 37
        E 30 b2 07 2d
        E 30 b2 07 4c
        E 30 b2 07 5c
        E 30 b2 07 21
        E 30 b2 07 40
        E 30 b2 07 1a
        E 30 b2 07 66
        E 30 b2 07 5e
        E 30 b2 07 34
        E 30 b2 07 29
        E 30 b2 07 5a
        E 30 b2 07 2a
        E 30 b2 07 50
        E 30 b2 07 10
        E 30 b2 07 01
        E 30 b2 07 25
        E 30 b2 07 39
        E 30 b2 07 62
        E 30 b2 07 58
        E 30 b2 07 03
        E 30 b2 07 63
        E 30 b2 07 53
        E 30 b2 07 06
        E 30 b2 07 23
        E 30 b2 07 43
        E 30 b2 07 55
        E 30 b2 07 6d
        E 30 b2 07 46
        E 30 b2 07 2f
        E 30 b2 07 1f
        E 30 b2 07 4f
        E 30 b2 07 52
        E 30 b2 07 64
        E 30 b2 07 6f
        E 30 b2 07 36
        E 30 b2 07 48
        E 30 b2 07 4e
        E 30 b2 07 3c
        E 30 b2 07 6b
        E 30 b2 07 11
        E 30 b2 07 28
        E 30 b2 07 4b
        E 20 b2 07 05
        E 20 b2 07 13
        E 20 b2 07 0c
        E 20 b2 07 02
        E 20 b2 07 12
        E 20 b2 07 10
        E 20 b2 07 02
        E 20 b2 07 02
        E 20 b2 07 0c
        E 20 b2 07 18
        E 20 b2 07 14
        E 20 b2 07 16
        E 20 b2 07 0f
        E 20 b2 07 02
        E 20 b2 07 04
        E 20 b2 07 11
        E 20 b2 07 0e
        E 20 b2 07 07
        E 20 b2 07 05
        E 20 b2 07 06
        E 20 b2 07 13
        E 20 b2 07 0b
        E 20 b2 07 06
        E 20 b2 07 0e
        E 20 b2 07 19
        E 20 b2 07 00
        E 20 b2 07 03
        E 20 b2 07 0a
        E 20 b2 07 08
        E 20 b2 07 14
        E 20 b2 07 05
        E 20 b2 07 01
        E 20 b2 07 04
        E 20 b2 07 04
        E 20 b2 07 17
        E 20 b2 07 06
        E 20 b2 07 00
        E 20 b2 07 12
        E 20 b2 07 08
        E 20 b2 07 05
        E 20 b2 07 0a
        E 20 b2 07 06
        E 20 b2 07 15
        E 20 b2 07 15
        E 20 b2 07 19
        E 20 b2 07 15
        E 20 b2 07 0b
        E 20 b2 07 17
        E 20 b2 07 12
        E 20 b2 07 03
        E 20 b2 07 0b
        E 20 b2 07 0d
        E 20 b2 07 18
        E 20 b2 07 13
        E 20 b2 07 0d
        E 20 b2 07 0e
        E 20 b2 07 01
        E 20 b2 07 02
        E 20 b2 07 17
        E 20 b2 07 14
        E 20 b2 07 0a
        E 20 b2 07 08
        E 20 b2 07 03
        E 20 b2 07 0b
        E 20 b2 07 07
        E 20 b2 07 06
        E 20 b2 07 09
        E 20 b2 07 0d
        E 20 b2 07 0f
        E 20 b2 07 10
        E 20 b2 07 04
        E 20 b2 07 0f
        E 20 b2 07 16
        E 20 b2 07 0d
        E 20 b2 07 0e
        E 20 b2 07 00
        E 20 b2 07 01
        E 20 b2 07 19
        E 20 b2 07 10
        E 20 b2 07 04
        E 20 b2 07 17
        E 20 b2 07 08
        E 20 b2 07 09
        E 20 b2 07 0c
        E 20 b2 07 0a
        E 20 b2 07 11
        E 20 b2 07 14
        E 20 b2 07 07
        E 20 b2 07 0e
        E 20 b2 07 05
        E 20 b2 07 16
        E 20 b2 07 15
        E 20 b2 07 0b
        E 20 b2 07 09
        E 20 b2 07 14
        E 20 b2 07 09
        E 20 b2 07 11
        E 20 b2 07 03
        E 20 b2 07 00
        E 20 b2 07 08
        E 20 b2 07 0c
        E 20 b2 07 15
        E 20 b2 07 13
        E 20 b2 07 00
        E 20 b2 07 16
        E 20 b2 07 12
        E 20 b2 07 01
        E 20 b2 07 07
        E 20 b2 07 0f
        E 20 b2 07 13
        E 20 b2 07 18
        E 20 b2 07 0f
        E 20 b2 07 0a
        E 20 b2 07 07
        E 20 b2 07 11
        E 20 b2 07 12
        E 20 b2 07 16
        E 20 b2 07 18
        E 20 b2 07 0c
        E 20 b2 07 10
        E 20 b2 07 11
        E 20 b2 07 0d
        E 20 b2 07 17
        E 20 b2 07 03
        E 20 b2 07 09
        E 20 b2 07 10
        E 8 b2 07 19
        E 8 b2 07 1a
        E 8 b2 07 1c
        E 8 b2 07 1d
        E 8 b2 07 1e
        E 8 b2 07 1f
        E 8 b2 07 20
        E 8 b2 07 22
        E 8 b2 07 23
        E 8 b2 07 24
        E 8 b2 07 25
        E 8 b2 07 26
        E 8 b2 07 27
        E 8 b2 07 28
        E 8 b2 07 29
        E 8 b2 07 2a
        E 8 b2 07 2b
        E 8 b2 07 2c
        E 8 b2 07 2d
        E 8 b2 07 2e
        E 8 b2 07 2e
        E 8 b2 07 2f
        E 8 b2 07 30
        E 8 b2 07 30
        E 8 b2 07 30
        E 8 b2 07 31
        E 8 b2 07 31
        E 8 b2 07 32
        E 8 b2 07 32
        E 8 b2 07 32
        E 8 b2 07 32
        E 8 b2 07 32
        E 8 b2 07 32
        E 8 b2 07 32
        E 8 b2 07 32
        E 8 b2 07 32
        E 8 b2 07 32
        E 8 b2 07 32
        E 8 b2 07 31
        E 8 b2 07 31
        E 8 b2 07 30
        E 8 b2 07 30
        E 8 b2 07 2f
        E 8 b2 07 2e
        E 8 b2 07 2e
        E 8 b2 07 2d
        E 8 b2 07 2c
        E 8 b2 07 2c
        E 8 b2 07 2b
        E 8 b2 07 2a
        E 8 b2 07 29
        E 8 b2 07 28
        E 8 b2 07 27
        E 8 b2 07 26
        E 8 b2 07 24
        E 8 b2 07 23
        E 8 b2 07 22
        E 8 b2 07 21
        E 8 b2 07 20
        E 8 b2 07 1f
        E 8 b2 07 1d
        E 8 b2 07 1c
        E 8 b2 07 1b
        E 8 b2 07 1a
        E 8 b2 07 18
        E 8 b2 07 17
        E 8 b2 07 16
        E 8 b2 07 15
        E 8 b2 07 13
        E 8 b2 07 12
        E 8 b2 07 11
        E 8 b2 07 10
        E 8 b2 07 0f
        E 8 b2 07 0e
        E 8 b2 07 0c
        E 8 b2 07 0b
        E 8 b2 07 0a
        E 8 b2 07 09
        E 8 b2 07 08
        E 8 b2 07 07
        E 8 b2 07 06
        E 8 b2 07 06
        E 8 b2 07 05
        E 8 b2 07 04
        E 8 b2 07 04
        E 8 b2 07 03
        E 8 b2 07 02
        E 8 b2 07 02
        E 8 b2 07 01
        E 8 b2 07 01
        E 8 b2 07 00
        E 8 b2 07 00
        E 8 b2 07 00
        E 8 b2 07 00
        E 8 b2 07 00
        E 8 b2 07 00
        E 8 b2 07 00
        E 8 b2 07 00
        E 8 b2 07 00
        E 8 b2 07 00
        E 8 b2 07 00
        E 8 b2 07 01
        E 8 b2 07 01
        E 8 b2 07 02
        E 8 b2 07 02
        E 8 b2 07 02
        E 8 b2 07 03
        E 8 b2 07 04
        E 8 b2 07 04
        E 8 b2 07 05
        E 8 b2 07 06
        E 8 b2 07 07
        E 8 b2 07 08
        E 8 b2 07 09
        E 8 b2 07 0a
        E 8 b2 07 0b
        E 8 b2 07 0c
        E 8 b2 07 0d
        E 8 b2 07 0e
        E 8 b2 07 0f
        E 8 b2 07 10
        E 8 b2 07 12
        E 8 b2 07 13
        E 8 b2 07 14
        E 8 b2 07 15
        E 8 b2 07 16
        E 8 b2 07 18
        E 8 b2 07 19
        E 21 b2 07 06
        E 21 b2 07 06
        E 21 b2 07 07
        E 21 b2 07 07
        E 21 b2 07 07
        E 21 b2 07 07
        E 21 b2 07 08
        E 21 b2 07 08
        E 21 b2 07 08
        E 21 b2 07 09
        E 21 b2 07 09
        E 21 b2 07 09
        E 21 b2 07 09
        E 21 b2 07 0a
        E 21 b2 07 0a
        E 21 b2 07 0a
        E 21 b2 07 0a
        E 21 b2 07 0b
        E 21 b2 07 0b
        E 21 b2 07 0b
        E 21 b2 07 0b
        E 21 b2 07 0b
        E 21 b2 07 0c
        E 21 b2 07 0c
        E 21 b2 07 0c
        E 21 b2 07 0c
        E 21 b2 07 0c
        E 21 b2 07 0c
        E 21 b2 07 0c
        E 21 b2 07 0c
        E 21 b2 07 0c
        E 21 b2 07 0c
        E 21 b2 07 0c
        E 21 b2 07 0c
        E 21 b2 07 0c
        E 21 b2 07 0c
        E 21 b2 07 0c
        E 21 b2 07 0c
        E 21 b2 07 0c
        E 21 b2 07 0c
        E 21 b2 07 0c
        E 21 b2 07 0c
        E 21 b2 07 0b
        E 21 b2 07 0b
        E 21 b2 07 0b
        E 21 b2 07 0b
        E 21 b2 07 0b
        E 21 b2 07 0b
        E 21 b2 07 0a
        E 21 b2 07 0a
        E 21 b2 07 0a
        E 21 b2 07 0a
        E 21 b2 07 09
        E 21 b2 07 09
        E 21 b2 07 09
        E 21 b2 07 08
        E 21 b2 07 08
        E 21 b2 07 08
        E 21 b2 07 08
        E 21 b2 07 07
        E 21 b2 07 07
        E 21 b2 07 07
        E 21 b2 07 06
        E 21 b2 07 06
        E 21 b2 07 06
        E 21 b2 07 05
        E 21 b2 07 05
        E 21 b2 07 05
        E 21 b2 07 04
        E 21 b2 07 04
        E 21 b2 07 04
        E 21 b2 07 04
        E 21 b2 07 03
        E 21 b2 07 03
        E 21 b2 07 03
        E 21 b2 07 02
        E 21 b2 07 02
        E 21 b2 07 02
        E 21 b2 07 02
        E 21 b2 07 01
        E 21 b2 07 01
        E 21 b2 07 01
        E 21 b2 07 01
        E 21 b2 07 01
        E 21 b2 07 01
        E 21 b2 07 00
        E 21 b2 07 00
        E 21 b2 07 00
        E 21 b2 07 00
        E 21 b2 07 00
        E 21 b2 07 00
        E 21 b2 07 00
        E 21 b2 07 00
        E 21 b2 07 00
        E 21 b2 07 00
        E 21 b2 07 00
        E 21 b2 07 00
        E 21 b2 07 00
        E 21 b2 07 00
        E 21 b2 07 00
        E 21 b2 07 00
        E 21 b2 07 00
        E 21 b2 07 00
        E 21 b2 07 00
        E 21 b2 07 00
        E 21 b2 07 00
        E 21 b2 07 00
        E 21 b2 07 01
        E 21 b2 07 01
        E 21 b2 07 01
        E 21 b2 07 01
        E 21 b2 07 01
        E 21 b2 07 02
        E 21 b2 07 02
        E 21 b2 07 02
        E 21 b2 07 02
        E 21 b2 07 03
        E 21 b2 07 03
        E 21 b2 07 03
        E 21 b2 07 03
        E 21 b2 07 04
        E 21 b2 07 04
        E 21 b2 07 04
        E 21 b2 07 05
        E 21 b2 07 05
        E 21 b2 07 05
        E 21 b2 07 06
        E 21 b2 07 06
        E 18 b2 07 39
        E 18 b2 07 3c
        E 18 b2 07 3f
        E 18 b2 07 41
        E 18 b2 07 44
        E 18 b2 07 47
        E 18 b2 07 49
        E 18 b2 07 4c
        E 18 b2 07 4f
        E 18 b2 07 51
        E 18 b2 07 54
        E 18 b2 07 56
        E 18 b2 07 59
        E 18 b2 07 5b
        E 18 b2 07 5d
        E 18 b2 07 5f
        E 18 b2 07 62
        E 18 b2 07 63
        E 18 b2 07 65
        E 18 b2 07 67
        E 18 b2 07 69
        E 18 b2 07 6a
        E 18 b2 07 6c
        E 18 b2 07 6c
        E 18 b2 07 6d
        E 18 b2 07 6e
        E 18 b2 07 6f
        E 18 b2 07 70
        E 18 b2 07 71
        E 18 b2 07 71
        E 18 b2 07 72
        E 18 b2 07 72
        E 18 b2 07 72
        E 18 b2 07 72
        E 18 b2 07 72
        E 18 b2 07 71
        E 18 b2 07 71
        E 18 b2 07 70
        E 18 b2 07 6f
        E 18 b2 07 6e
        E 18 b2 07 6d
        E 18 b2 07 6c
        E 18 b2 07 6b
        E 18 b2 07 69
        E 18 b2 07 68
        E 18 b2 07 66
        E 18 b2 07 64
        E 18 b2 07 63
        E 18 b2 07 61
        E 18 b2 07 5e
        E 18 b2 07 5c
        E 18 b2 07 5a
        E 18 b2 07 58
        E 18 b2 07 55
        E 18 b2 07 52
        E 18 b2 07 50
        E 18 b2 07 4e
        E 18 b2 07 4b
        E 18 b2 07 48
        E 18 b2 07 46
        E 18 b2 07 42
        E 18 b2 07 3f
        E 18 b2 07 3d
        E 18 b2 07 3a
        E 18 b2 07 37
        E 18 b2 07 35
        E 18 b2 07 32
        E 18 b2 07 2f
        E 18 b2 07 2c
        E 18 b2 07 29
        E 18 b2 07 26
        E 18 b2 07 24
        E 18 b2 07 22
        E 18 b2 07 1f
        E 18 b2 07 1c
        E 18 b2 07 1a
        E 18 b2 07 18
        E 18 b2 07 15
        E 18 b2 07 13
        E 18 b2 07 11
        E 18 b2 07 0f
        E 18 b2 07 0d
        E 18 b2 07 0b
        E 18 b2 07 09
        E 18 b2 07 09
        E 18 b2 07 07
        E 18 b2 07 06
        E 18 b2 07 04
        E 18 b2 07 03
        E 18 b2 07 02
        E 18 b2 07 01
        E 18 b2 07 00
        E 18 b2 07 00
        E 18 b2 07 00
        E 18 b2 07 00
        E 18 b2 07 00
        E 18 b2 07 00
        E 18 b2 07 00
        E 18 b2 07 00
        E 18 b2 07 00
        E 18 b2 07 01
        E 18 b2 07 02
        E 18 b2 07 03
        E 18 b2 07 04
        E 18 b2 07 05
        E 18 b2 07 06
        E 18 b2 07 08
        E 18 b2 07 09
        E 18 b2 07 0a
        E 18 b2 07 0c
        E 18 b2 07 0e
        E 18 b2 07 10
        E 18 b2 07 12
        E 18 b2 07 14
        E 18 b2 07 16
        E 18 b2 07 19
        E 18 b2 07 1b
        E 18 b2 07 1d
        E 18 b2 07 20
        E 18 b2 07 23
        E 18 b2 07 25
        E 18 b2 07 28
        E 18 b2 07 2b
        E 18 b2 07 2d
        E 18 b2 07 30
        E 18 b2 07 33
        E 18 b2 07 36
        E 18 b2 07 39
        E 12 b2 07 0c
        E 12 b2 07 0d
        E 12 b2 07 0e
        E 12 b2 07 0e
        E 12 b2 07 0f
        E 12 b2 07 0f
        E 12 b2 07 10
        E 12 b2 07 11
        E 12 b2 07 11
        E 12 b2 07 12
        E 12 b2 07 12
        E 12 b2 07 13
        E 12 b2 07 13
        E 12 b2 07 14
        E 12 b2 07 14
        E 12 b2 07 15
        E 12 b2 07 15
        E 12 b2 07 16
        E 12 b2 07 16
        E 12 b2 07 17
        E 12 b2 07 17
        E 12 b2 07 17
        E 12 b2 07 18
        E 12 b2 07 18
        E 12 b2 07 18
        E 12 b2 07 18
        E 12 b2 07 18
        E 12 b2 07 19
        E 12 b2 07 19
        E 12 b2 07 19
        E 12 b2 07 19
        E 12 b2 07 19
        E 12 b2 07 19
        E 12 b2 07 19
        E 12 b2 07 19
        E 12 b2 07 19
        E 12 b2 07 19
        E 12 b2 07 19
        E 12 b2 07 18
        E 12 b2 07 18
        E 12 b2 07 18
        E 12 b2 07 18
        E 12 b2 07 17
        E 12 b2 07 17
        E 12 b2 07 17
        E 12 b2 07 16
        E 12 b2 07 16
        E 12 b2 07 16
        E 12 b2 07 15
        E 12 b2 07 15
        E 12 b2 07 14
        E 12 b2 07 14
        E 12 b2 07 13
        E 12 b2 07 13
        E 12 b2 07 12
        E 12 b2 07 11
        E 12 b2 07 11
        E 12 b2 07 10
        E 12 b2 07 10
        E 12 b2 07 0f
        E 12 b2 07 0e
        E 12 b2 07 0e
        E 12 b2 07 0d
        E 12 b2 07 0d
        E 12 b2 07 0c
        E 12 b2 07 0b
        E 12 b2 07 0b
        E 12 b2 07 0a
        E 12 b2 07 09
        E 12 b2 07 09
        E 12 b2 07 08
        E 12 b2 07 08
        E 12 b2 07 07
        E 12 b2 07 07
        E 12 b2 07 06
        E 12 b2 07 05
        E 12 b2 07 05
        E 12 b2 07 04
        E 12 b2 07 04
        E 12 b2 07 03
        E 12 b2 07 03
        E 12 b2 07 03
        E 12 b2 07 02
        E 12 b2 07 02
        E 12 b2 07 02
        E 12 b2 07 01
        E 12 b2 07 01
        E 12 b2 07 01
        E 12 b2 07 00
        E 12 b2 07 00
        E 12 b2 07 00
        E 12 b2 07 00
        E 12 b2 07 00
        E 12 b2 07 00
        E 12 b2 07 00
        E 12 b2 07 00
        E 12 b2 07 00
        E 12 b2 07 00
        E 12 b2 07 00
        E 12 b2 07 00
        E 12 b2 07 00
        E 12 b2 07 00
        E 12 b2 07 00
        E 12 b2 07 01
        E 12 b2 07 01
        E 12 b2 07 01
        E 12 b2 07 01
        E 12 b2 07 02
        E 12 b2 07 02
        E 12 b2 07 02
        E 12 b2 07 03
        E 12 b2 07 03
        E 12 b2 07 04
        E 12 b2 07 04
        E 12 b2 07 05
        E 12 b2 07 05
        E 12 b2 07 06
        E 12 b2 07 06
        E 12 b2 07 07
        E 12 b2 07 07
        E 12 b2 07 08
        E 12 b2 07 09
        E 12 b2 07 09
        E 12 b2 07 0a
        E 12 b2 07 0a
        E 12 b2 07 0b
        E 12 b2 07 0c
        E 12 b2 07 0c
        E 4 b2 07 06
        E 4 b2 07 06
        E 4 b2 07 07
        E 4 b2 07 07
        E 4 b2 07 07
        E 4 b2 07 07
        E 4 b2 07 08
        E 4 b2 07 08
        E 4 b2 07 08
        E 4 b2 07 09
        E 4 b2 07 09
        E 4 b2 07 09
        E 4 b2 07 09
        E 4 b2 07 0a
        E 4 b2 07 0a
        E 4 b2 07 0a
        E 4 b2 07 0a
        E 4 b2 07 0b
        E 4 b2 07 0b
        E 4 b2 07 0b
        E 4 b2 07 0b
        E 4 b2 07 0b
        E 4 b2 07 0c
        E 4 b2 07 0c
        E 4 b2 07 0c
        E 4 b2 07 0c
        E 4 b2 07 0c
        E 4 b2 07 0c
        E 4 b2 07 0c
        E 4 b2 07 0c
        E 4 b2 07 0c
        E 4 b2 07 0c
        E 4 b2 07 0c
        E 4 b2 07 0c
        E 4 b2 07 0c
        E 4 b2 07 0c
        E 4 b2 07 0c
        E 4 b2 07 0c
        E 4 b2 07 0c
        E 4 b2 07 0c
        E 4 b2 07 0c
        E 4 b2 07 0c
        E 4 b2 07 0b
        E 4 b2 07 0b
        E 4 b2 07 0b
        E 4 b2 07 0b
        E 4 b2 07 0b
        E 4 b2 07 0b
        E 4 b2 07 0a
        E 4 b2 07 0a
        E 4 b2 07 0a
        E 4 b2 07 0a
        E 4 b2 07 09
        E 4 b2 07 09
        E 4 b2 07 09
        E 4 b2 07 08
        E 4 b2 07 08
        E 4 b2 07 08
        E 4 b2 07 08
        E 4 b2 07 07
        E 4 b2 07 07
        E 4 b2 07 07
        E 4 b2 07 06
        E 4 b2 07 06
        E 4 b2 07 06
        E 4 b2 07 05
        E 4 b2 07 05
        E 4 b2 07 05
        E 4 b2 07 04
        E 4 b2 07 04
        E 4 b2 07 04
        E 4 b2 07 04
        E 4 b2 07 03
        E 4 b2 07 03
        E 4 b2 07 03
        E 4 b2 07 02
        E 4 b2 07 02
        E 4 b2 07 02
        E 4 b2 07 02
        E 4 b2 07 01
        E 4 b2 07 01
        E 4 b2 07 01
        E 4 b2 07 01
        E 4 b2 07 01
        E 4 b2 07 01
        E 4 b2 07 00
        E 4 b2 07 00
        E 4 b2 07 00
        E 4 b2 07 00
        E 4 b2 07 00
        E 4 b2 07 00
        E 4 b2 07 00
        E 4 b2 07 00
        E 4 b2 07 00
        E 4 b2 07 00
        E 4 b2 07 00
        E 4 b2 07 00
        E 4 b2 07 00
        E 4 b2 07 00
        E 4 b2 07 00
        E 4 b2 07 00
        E 4 b2 07 00
        E 4 b2 07 00
        E 4 b2 07 00
        E 4 b2 07 00
        E 4 b2 07 00
        E 4 b2 07 00
        E 4 b2 07 01
        E 4 b2 07 01
        E 4 b2 07 01
        E 4 b2 07 01
        E 4 b2 07 01
        E 4 b2 07 02
        E 4 b2 07 02
        E 4 b2 07 02
        E 4 b2 07 02
        E 4 b2 07 03
        E 4 b2 07 03
        E 4 b2 07 03
        E 4 b2 07 03
        E 4 b2 07 04
        E 4 b2 07 04
        E 4 b2 07 04
        E 4 b2 07 05
        E 4 b2 07 05
        E 4 b2 07 05
        E 4 b2 07 06
        E 4 b2 07 06
        E 14 b2 07 20
        E 14 b2 07 21
        E 14 b2 07 23
        E 14 b2 07 24
        E 14 b2 07 26
        E 14 b2 07 27
        E 14 b2 07 29
        E 14 b2 07 2a
        E 14 b2 07 2c
        E 14 b2 07 2d
        E 14 b2 07 2f
        E 14 b2 07 30
        E 14 b2 07 31
        E 14 b2 07 33
        E 14 b2 07 34
        E 14 b2 07 35
        E 14 b2 07 36
        E 14 b2 07 37
        E 14 b2 07 38
        E 14 b2 07 39
        E 14 b2 07 3a
        E 14 b2 07 3b
        E 14 b2 07 3c
        E 14 b2 07 3c
        E 14 b2 07 3d
        E 14 b2 07 3d
        E 14 b2 07 3e
        E 14 b2 07 3e
        E 14 b2 07 3f
        E 14 b2 07 3f
        E 14 b2 07 3f
        E 14 b2 07 3f
        E 14 b2 07 3f
        E 14 b2 07 3f
        E 14 b2 07 3f
        E 14 b2 07 3f
        E 14 b2 07 3f
        E 14 b2 07 3e
        E 14 b2 07 3e
        E 14 b2 07 3d
        E 14 b2 07 3d
        E 14 b2 07 3c
        E 14 b2 07 3b
        E 14 b2 07 3a
        E 14 b2 07 3a
        E 14 b2 07 39
        E 14 b2 07 38
        E 14 b2 07 37
        E 14 b2 07 36
        E 14 b2 07 34
        E 14 b2 07 33
        E 14 b2 07 32
        E 14 b2 07 31
        E 14 b2 07 2f
        E 14 b2 07 2e
        E 14 b2 07 2c
        E 14 b2 07 2b
        E 14 b2 07 2a
        E 14 b2 07 28
        E 14 b2 07 27
        E 14 b2 07 25
        E 14 b2 07 23
        E 14 b2 07 22
        E 14 b2 07 20
        E 14 b2 07 1f
        E 14 b2 07 1d
        E 14 b2 07 1c
        E 14 b2 07 1a
        E 14 b2 07 18
        E 14 b2 07 17
        E 14 b2 07 15
        E 14 b2 07 14
        E 14 b2 07 13
        E 14 b2 07 11
        E 14 b2 07 10
        E 14 b2 07 0e
        E 14 b2 07 0d
        E 14 b2 07 0c
        E 14 b2 07 0b
        E 14 b2 07 09
        E 14 b2 07 08
        E 14 b2 07 07
        E 14 b2 07 06
        E 14 b2 07 05
        E 14 b2 07 05
        E 14 b2 07 04
        E 14 b2 07 03
        E 14 b2 07 02
        E 14 b2 07 02
        E 14 b2 07 01
        E 14 b2 07 01
        E 14 b2 07 00
        E 14 b2 07 00
        E 14 b2 07 00
        E 14 b2 07 00
        E 14 b2 07 00
        E 14 b2 07 00
        E 14 b2 07 00
        E 14 b2 07 00
        E 14 b2 07 00
        E 14 b2 07 01
        E 14 b2 07 01
        E 14 b2 07 02
        E 14 b2 07 02
        E 14 b2 07 03
        E 14 b2 07 03
        E 14 b2 07 04
        E 14 b2 07 05
        E 14 b2 07 06
        E 14 b2 07 07
        E 14 b2 07 08
        E 14 b2 07 09
        E 14 b2 07 0a
        E 14 b2 07 0b
        E 14 b2 07 0c
        E 14 b2 07 0e
        E 14 b2 07 0f
        E 14 b2 07 10
        E 14 b2 07 12
        E 14 b2 07 13
        E 14 b2 07 15
        E 14 b2 07 16
        E 14 b2 07 18
        E 14 b2 07 19
        E 14 b2 07 1b
        E 14 b2 07 1c
        E 14 b2 07 1e
        E 14 b2 07 20
        E 8 b2 07 19
        E 8 b2 07 1a
        E 8 b2 07 1c
        E 8 b2 07 1d
        E 8 b2 07 1e
        E 8 b2 07 1f
        E 8 b2 07 20
        E 8 b2 07 22
        E 8 b2 07 23
        E 8 b2 07 24
        E 8 b2 07 25
        E 8 b2 07 26
        E 8 b2 07 27
        E 8 b2 07 28
        E 8 b2 07 29
        E 8 b2 07 2a
        E 8 b2 07 2b
        E 8 b2 07 2c
        E 8 b2 07 2d
        E 8 b2 07 2e
        E 8 b2 07 2e
        E 8 b2 07 2f
        E 8 b2 07 30
        E 8 b2 07 30
        E 8 b2 07 30
        E 8 b2 07 31
        E 8 b2 07 31
        E 8 b2 07 32
        E 8 b2 07 32
        E 8 b2 07 32
        E 8 b2 07 32
        E 8 b2 07 32
        E 8 b2 07 32
        E 8 b2 07 32
        E 8 b2 07 32
        E 8 b2 07 32
        E 8 b2 07 32
        E 8 b2 07 32
        E 8 b2 07 31
        E 8 b2 07 31
        E 8 b2 07 30
        E 8 b2 07 30
        E 8 b2 07 2f
        E 8 b2 07 2e
        E 8 b2 07 2e
        E 8 b2 07 2d
        E 8 b2 07 2c
        E 8 b2 07 2c
        E 8 b2 07 2b
        E 8 b2 07 2a
        E 8 b2 07 29
        E 8 b2 07 28
        E 8 b2 07 27
        E 8 b2 07 26
        E 8 b2 07 24
        E 8 b2 07 23
        E 8 b2 07 22
        E 8 b2 07 21
        E 8 b2 07 20
        E 8 b2 07 1f
        E 8 b2 07 1d
        E 8 b2 07 1c
        E 8 b2 07 1b
        E 8 b2 07 1a
        E 8 b2 07 18
        E 8 b2 07 17
        E 8 b2 07 16
        E 8 b2 07 15
        E 8 b2 07 13
        E 8 b2 07 12
        E 8 b2 07 11
        E 8 b2 07 10
        E 8 b2 07 0f
        E 8 b2 07 0e
        E 8 b2 07 0c
        E 8 b2 07 0b
        E 8 b2 07 0a
        E 8 b2 07 09
        E 8 b2 07 08
        E 8 b2 07 07
        E 8 b2 07 06
        E 8 b2 07 06
        E 8 b2 07 05
        E 8 b2 07 04
        E 8 b2 07 04
        E 8 b2 07 03
        E 8 b2 07 02
        E 8 b2 07 02
        E 8 b2 07 01
        E 8 b2 07 01
        E 8 b2 07 00
        E 8 b2 07 00
        E 8 b2 07 00
        E 8 b2 07 00
        E 8 b2 07 00
        E 8 b2 07 00
        E 8 b2 07 00
        E 8 b2 07 00
        E 8 b2 07 00
        E 8 b2 07 00
        E 8 b2 07 00
        E 8 b2 07 01
        E 8 b2 07 01
        E 8 b2 07 02
        E 8 b2 07 02
        E 8 b2 07 02
        E 8 b2 07 03
        E 8 b2 07 04
        E 8 b2 07 04
        E 8 b2 07 05
        E 8 b2 07 06
        E 8 b2 07 07
        E 8 b2 07 08
        E 8 b2 07 09
        E 8 b2 07 0a
        E 8 b2 07 0b
        E 8 b2 07 0c
        E 8 b2 07 0d
        E 8 b2 07 0e
        E 8 b2 07 0f
        E 8 b2 07 10
        E 8 b2 07 12
        E 8 b2 07 13
        E 8 b2 07 14
        E 8 b2 07 15
        E 8 b2 07 16
        E 8 b2 07 18
        E 8 b2 07 19
        E 21 b2 07 06
        E 21 b2 07 06
        E 21 b2 07 07
        E 21 b2 07 07
        E 21 b2 07 07
        E 21 b2 07 07
        E 21 b2 07 08
        E 21 b2 07 08
        E 21 b2 07 08
        E 21 b2 07 09
        E 21 b2 07 09
        E 21 b2 07 09
        E 21 b2 07 09
        E 21 b2 07 0a
        E 21 b2 07 0a
        E 21 b2 07 0a
        E 21 b2 07 0a
        E 21 b2 07 0b
        E 21 b2 07 0b
        E 21 b2 07 0b
        E 21 b2 07 0b
        E 21 b2 07 0b
        E 21 b2 07 0c
        E 21 b2 07 0c
        E 21 b2 07 0c
        E 21 b2 07 0c
        E 21 b2 07 0c
        E 21 b2 07 0c
        E 21 b2 07 0c
        E 21 b2 07 0c
        E 21 b2 07 0c
        E 21 b2 07 0c
        E 21 b2 07 0c
        E 21 b2 07 0c
        E 21 b2 07 0c
        E 21 b2 07 0c
        E 21 b2 07 0c
        E 21 b2 07 0c
        E 21 b2 07 0c
        E 21 b2 07 0c
        E 21 b2 07 0c
        E 21 b2 07 0c
        E 21 b2 07 0b
        E 21 b2 07 0b
        E 21 b2 07 0b
        E 21 b2 07 0b
        E 21 b2 07 0b
        E 21 b2 07 0b
        E 21 b2 07 0a
        E 21 b2 07 0a
        E 21 b2 07 0a
        E 21 b2 07 0a
        E 21 b2 07 09
        E 21 b2 07 09
        E 21 b2 07 09
        E 21 b2 07 08
        E 21 b2 07 08
        E 21 b2 07 08
        E 21 b2 07 08
        E 21 b2 07 07
        E 21 b2 07 07
        E 21 b2 07 07
        E 21 b2 07 06
        E 21 b2 07 06
        E 21 b2 07 06
        E 21 b2 07 05
        E 21 b2 07 05
        E 21 b2 07 05
        E 21 b2 07 04
        E 21 b2 07 04
        E 21 b2 07 04
        E 21 b2 07 04
        E 21 b2 07 03
        E 21 b2 07 03
        E 21 b2 07 03
        E 21 b2 07 02
        E 21 b2 07 02
        E 21 b2 07 02
        E 21 b2 07 02
        E 21 b2 07 01
        E 21 b2 07 01
        E 21 b2 07 01
        E 21 b2 07 01
        E 21 b2 07 01
        E 21 b2 07 01
        E 21 b2 07 00
        E 21 b2 07 00
        E 21 b2 07 00
        E 21 b2 07 00
        E 21 b2 07 00
        E 21 b2 07 00
        E 21 b2 07 00
        E 21 b2 07 00
        E 21 b2 07 00
        E 21 b2 07 00
        E 21 b2 07 00
        E 21 b2 07 00
        E 21 b2 07 00
        E 21 b2 07 00
        E 21 b2 07 00
        E 21 b2 07 00
        E 21 b2 07 00
        E 21 b2 07 00
        E 21 b2 07 00
        E 21 b2 07 00
        E 21 b2 07 00
        E 21 b2 07 00
        E 21 b2 07 01
        E 21 b2 07 01
        E 21 b2 07 01
        E 21 b2 07 01
        E 21 b2 07 01
        E 21 b2 07 02
        E 21 b2 07 02
        E 21 b2 07 02
        E 21 b2 07 02
        E 21 b2 07 03
        E 21 b2 07 03
        E 21 b2 07 03
        E 21 b2 07 03
        E 21 b2 07 04
        E 21 b2 07 04
        E 21 b2 07 04
        E 21 b2 07 05
        E 21 b2 07 05
        E 21 b2 07 05
        E 21 b2 07 06
        E 21 b2 07 06
        E 18 b2 07 39
        E 18 b2 07 3c
        E 18 b2 07 3f
        E 18 b2 07 41
        E 18 b2 07 44
        E 18 b2 07 47
        E 18 b2 07 49
        E 18 b2 07 4c
        E 18 b2 07 4f
        E 18 b2 07 51
        E 18 b2 07 54
        E 18 b2 07 56
        E 18 b2 07 59
        E 18 b2 07 5b
        E 18 b2 07 5d
        E 18 b2 07 5f
        E 18 b2 07 62
        E 18 b2 07 63
        E 18 b2 07 65
        E 18 b2 07 67
        E 18 b2 07 69
        E 18 b2 07 6a
        E 18 b2 07 6c
        E 18 b2 07 6c
        E 18 b2 07 6d
        E 18 b2 07 6e
        E 18 b2 07 6f
        E 18 b2 07 70
        E 18 b2 07 71
        E 18 b2 07 71
        E 18 b2 07 72
        E 18 b2 07 72
        E 18 b2 07 72
        E 18 b2 07 72
        E 18 b2 07 72
        E 18 b2 07 71
        E 18 b2 07 71
        E 18 b2 07 70
        E 18 b2 07 6f
        E 18 b2 07 6e
        E 18 b2 07 6d
        E 18 b2 07 6c
        E 18 b2 07 6b
        E 18 b2 07 69
        E 18 b2 07 68
        E 18 b2 07 66
        E 18 b2 07 64
        E 18 b2 07 63
        E 18 b2 07 61
        E 18 b2 07 5e
        E 18 b2 07 5c
        E 18 b2 07 5a
        E 18 b2 07 58
        E 18 b2 07 55
        E 18 b2 07 52
        E 18 b2 07 50
        E 18 b2 07 4e
        E 18 b2 07 4b
        E 18 b2 07 48
        E 18 b2 07 46
        E 18 b2 07 42
        E 18 b2 07 3f
        E 18 b2 07 3d
        E 18 b2 07 3a
        E 18 b2 07 37
        E 18 b2 07 35
        E 18 b2 07 32
        E 18 b2 07 2f
        E 18 b2 07 2c
        E 18 b2 07 29
        E 18 b2 07 26
        E 18 b2 07 24
        E 18 b2 07 22
        E 18 b2 07 1f
        E 18 b2 07 1c
        E 18 b2 07 1a
        E 18 b2 07 18
        E 18 b2 07 15
        E 18 b2 07 13
        E 18 b2 07 11
        E 18 b2 07 0f
        E 18 b2 07 0d
        E 18 b2 07 0b
        E 18 b2 07 09
        E 18 b2 07 09
        E 18 b2 07 07
        E 18 b2 07 06
        E 18 b2 07 04
        E 18 b2 07 03
        E 18 b2 07 02
        E 18 b2 07 01
        E 18 b2 07 00
        E 18 b2 07 00
        E 18 b2 07 00
        E 18 b2 07 00
        E 18 b2 07 00
        E 18 b2 07 00
        E 18 b2 07 00
        E 18 b2 07 00
        E 18 b2 07 00
        E 18 b2 07 01
        E 18 b2 07 02
        E 18 b2 07 03
        E 18 b2 07 04
        E 18 b2 07 05
        E 18 b2 07 06
        E 18 b2 07 08
        E 18 b2 07 09
        E 18 b2 07 0a
        E 18 b2 07 0c
        E 18 b2 07 0e
        E 18 b2 07 10
        E 18 b2 07 12
        E 18 b2 07 14
        E 18 b2 07 16
        E 18 b2 07 19
        E 18 b2 07 1b
        E 18 b2 07 1d
        E 18 b2 07 20
        E 18 b2 07 23
        E 18 b2 07 25
        E 18 b2 07 28
        E 18 b2 07 2b
        E 18 b2 07 2d
        E 18 b2 07 30
        E 18 b2 07 33
        E 18 b2 07 36
        E 18 b2 07 39
        E 12 b2 07 0c
        E 12 b2 07 0d
        E 12 b2 07 0e
        E 12 b2 07 0e
        E 12 b2 07 0f
        E 12 b2 07 0f
        E 12 b2 07 10
        E 12 b2 07 11
        E 12 b2 07 11
        E 12 b2 07 12
        E 12 b2 07 12
        E 12 b2 07 13
        E 12 b2 07 13
        E 12 b2 07 14
        E 12 b2 07 14
        E 12 b2 07 15
        E 12 b2 07 15
        E 12 b2 07 16
        E 12 b2 07 16
        E 12 b2 07 17
        E 12 b2 07 17
        E 12 b2 07 17
        E 12 b2 07 18
        E 12 b2 07 18
        E 12 b2 07 18
        E 12 b2 07 18
        E 12 b2 07 18
        E 12 b2 07 19
        E 12 b2 07 19
        E 12 b2 07 19
        E 12 b2 07 19
        E 12 b2 07 19
        E 12 b2 07 19
        E 12 b2 07 19
        E 12 b2 07 19
        E 12 b2 07 19
        E 12 b2 07 19
        E 12 b2 07 19
        E 12 b2 07 18
        E 12 b2 07 18
        E 12 b2 07 18
        E 12 b2 07 18
        E 12 b2 07 17
        E 12 b2 07 17
        E 12 b2 07 17
        E 12 b2 07 16
        E 12 b2 07 16
        E 12 b2 07 16
        E 12 b2 07 15
        E 12 b2 07 15
        E 12 b2 07 14
        E 12 b2 07 14
        E 12 b2 07 13
        E 12 b2 07 13
        E 12 b2 07 12
        E 12 b2 07 11
        E 12 b2 07 11
        E 12 b2 07 10
        E 12 b2 07 10
        E 12 b2 07 0f
        E 12 b2 07 0e
        E 12 b2 07 0e
        E 12 b2 07 0d
        E 12 b2 07 0d
        E 12 b2 07 0c
        E 12 b2 07 0b
        E 12 b2 07 0b
        E 12 b2 07 0a
        E 12 b2 07 09
        E 12 b2 07 09
        E 12 b2 07 08
        E 12 b2 07 08
        E 12 b2 07 07
        E 12 b2 07 07
        E 12 b2 07 06
        E 12 b2 07 05
        E 12 b2 07 05
        E 12 b2 07 04
        E 12 b2 07 04
        E 12 b2 07 03
        E 12 b2 07 03
        E 12 b2 07 03
        E 12 b2 07 02
        E 12 b2 07 02
        E 12 b2 07 02
        E 12 b2 07 01
        E 12 b2 07 01
        E 12 b2 07 01
        E 12 b2 07 00
        E 12 b2 07 00
        E 12 b2 07 00
        E 12 b2 07 00
        E 12 b2 07 00
        E 12 b2 07 00
        E 12 b2 07 00
        E 12 b2 07 00
        E 12 b2 07 00
        E 12 b2 07 00
        E 12 b2 07 00
        E 12 b2 07 00
        E 12 b2 07 00
        E 12 b2 07 00
        E 12 b2 07 00
        E 12 b2 07 01
        E 12 b2 07 01
        E 12 b2 07 01
        E 12 b2 07 01
        E 12 b2 07 02
        E 12 b2 07 02
        E 12 b2 07 02
        E 12 b2 07 03
        E 12 b2 07 03
        E 12 b2 07 04
        E 12 b2 07 04
        E 12 b2 07 05
        E 12 b2 07 05
        E 12 b2 07 06
        E 12 b2 07 06
        E 12 b2 07 07
        E 12 b2 07 07
        E 12 b2 07 08
        E 12 b2 07 09
        E 12 b2 07 09
        E 12 b2 07 0a
        E 12 b2 07 0a
        E 12 b2 07 0b
        E 12 b2 07 0c
        E 12 b2 07 0c
        E 4 b2 07 06
        E 4 b2 07 06
        E 4 b2 07 07
        E 4 b2 07 07
        E 4 b2 07 07
        E 4 b2 07 07
        E 4 b2 07 08
        E 4 b2 07 08
        E 4 b2 07 08
        E 4 b2 07 09
        E 4 b2 07 09
        E 4 b2 07 09
        E 4 b2 07 09
        E 4 b2 07 0a
        E 4 b2 07 0a
        E 4 b2 07 0a
        E 4 b2 07 0a
        E 4 b2 07 0b
        E 4 b2 07 0b
        E 4 b2 07 0b
        E 4 b2 07 0b
        E 4 b2 07 0b
        E 4 b2 07 0c
        E 4 b2 07 0c
        E 4 b2 07 0c
        E 4 b2 07 0c
        E 4 b2 07 0c
        E 4 b2 07 0c
        E 4 b2 07 0c
        E 4 b2 07 0c
        E 4 b2 07 0c
        E 4 b2 07 0c
        E 4 b2 07 0c
        E 4 b2 07 0c
        E 4 b2 07 0c
        E 4 b2 07 0c
        E 4 b2 07 0c
        E 4 b2 07 0c
        E 4 b2 07 0c
        E 4 b2 07 0c
        E 4 b2 07 0c
        E 4 b2 07 0c
        E 4 b2 07 0b
        E 4 b2 07 0b
        E 4 b2 07 0b
        E 4 b2 07 0b
        E 4 b2 07 0b
        E 4 b2 07 0b
        E 4 b2 07 0a
        E 4 b2 07 0a
        E 4 b2 07 0a
        E 4 b2 07 0a
        E 4 b2 07 09
        E 4 b2 07 09
        E 4 b2 07 09
        E 4 b2 07 08
        E 4 b2 07 08
        E 4 b2 07 08
        E 4 b2 07 08
        E 4 b2 07 07
        E 4 b2 07 07
        E 4 b2 07 07
        E 4 b2 07 06
        E 4 b2 07 06
        E 4 b2 07 06
        E 4 b2 07 05
        E 4 b2 07 05
        E 4 b2 07 05
        E 4 b2 07 04
        E 4 b2 07 04
        E 4 b2 07 04
        E 4 b2 07 04
        E 4 b2 07 03
        E 4 b2 07 03
        E 4 b2 07 03
        E 4 b2 07 02
        E 4 b2 07 02
        E 4 b2 07 02
        E 4 b2 07 02
        E 4 b2 07 01
        E 4 b2 07 01
        E 4 b2 07 01
        E 4 b2 07 01
        E 4 b2 07 01
        E 4 b2 07 01
        E 4 b2 07 00
        E 4 b2 07 00
        E 4 b2 07 00
        E 4 b2 07 00
        E 4 b2 07 00
        E 4 b2 07 00
        E 4 b2 07 00
        E 4 b2 07 00
        E 4 b2 07 00
        E 4 b2 07 00
        E 4 b2 07 00
        E 4 b2 07 00
        E 4 b2 07 00
        E 4 b2 07 00
        E 4 b2 07 00
        E 4 b2 07 00
        E 4 b2 07 00
        E 4 b2 07 00
        E 4 b2 07 00
        E 4 b2 07 00
        E 4 b2 07 00
        E 4 b2 07 00
        E 4 b2 07 01
        E 4 b2 07 01
        E 4 b2 07 01
        E 4 b2 07 01
        E 4 b2 07 01
        E 4 b2 07 02
        E 4 b2 07 02
        E 4 b2 07 02
        E 4 b2 07 02
        E 4 b2 07 03
        E 4 b2 07 03
        E 4 b2 07 03
        E 4 b2 07 03
        E 4 b2 07 04
        E 4 b2 07 04
        E 4 b2 07 04
        E 4 b2 07 05
        E 4 b2 07 05
        E 4 b2 07 05
        E 4 b2 07 06
        E 4 b2 07 06
        E 60 b2 07 06
        E 60 b2 07 06
        E 60 b2 07 07
        E 60 b2 07 07
        E 60 b2 07 07
        E 60 b2 07 07
        E 60 b2 07 08
        E 60 b2 07 08
        E 60 b2 07 08
        E 60 b2 07 09
        E 60 b2 07 09
        E 60 b2 07 09
        E 60 b2 07 09
        E 60 b2 07 0a
        E 60 b2 07 0a
        E 60 b2 07 0a
        E 60 b2 07 0a
        E 60 b2 07 0b
        E 60 b2 07 0b
        E 60 b2 07 0b
        E 60 b2 07 0b
        E 60 b2 07 0b
        E 60 b2 07 0c
        E 60 b2 07 0c
        E 60 b2 07 0c
        E 60 b2 07 0c
        E 60 b2 07 0c
        E 60 b2 07 0c
        E 60 b2 07 0c
        E 60 b2 07 0c
        E 60 b2 07 0c
        E 60 b2 07 0c
        E 60 b2 07 0c
        E 60 b2 07 0c
        E 60 b2 07 0c
        E 60 b2 07 0c
        E 60 b2 07 0c
        E 60 b2 07 0c
        E 60 b2 07 0c
        E 60 b2 07 0c
        E 60 b2 07 0c
        E 60 b2 07 0c
        E 60 b2 07 0b
        E 60 b2 07 0b
        E 60 b2 07 0b
        E 60 b2 07 0b
        E 60 b2 07 0b
        E 60 b2 07 0b
        E 60 b2 07 0a
        E 60 b2 07 0a
        E 60 b2 07 0a
        E 60 b2 07 0a
        E 60 b2 07 09
        E 60 b2 07 09
        E 60 b2 07 09
        E 60 b2 07 08
        E 60 b2 07 08
        E 60 b2 07 08
        E 60 b2 07 08
        E 60 b2 07 07
        E 60 b2 07 07
        E 60 b2 07 07
        E 60 b2 07 06
        E 60 b2 07 06
        E 60 b2 07 06
        E 60 b2 07 05
        E 60 b2 07 05
        E 60 b2 07 05
        E 60 b2 07 04
        E 60 b2 07 04
        E 60 b2 07 04
        E 60 b2 07 04
        E 60 b2 07 03
        E 60 b2 07 03
        E 60 b2 07 03
        E 60 b2 07 02
        E 60 b2 07 02
        E 60 b2 07 02
        E 60 b2 07 02
        E 60 b2 07 01
        E 60 b2 07 01
        E 60 b2 07 01
        E 60 b2 07 01
        E 60 b2 07 01
        E 60 b2 07 01
        E 60 b2 07 00
        E 60 b2 07 00
        E 60 b2 07 00
        E 60 b2 07 00
        E 60 b2 07 00
        E 60 b2 07 00
        E 60 b2 07 00
        E 60 b2 07 00
        E 60 b2 07 00
        E 60 b2 07 00
        E 60 b2 07 00
        E 60 b2 07 00
        E 60 b2 07 00
        E 60 b2 07 00
        E 60 b2 07 00
        E 60 b2 07 00
        E 60 b2 07 00
        E 60 b2 07 00
        E 60 b2 07 00
        E 60 b2 07 00
        E 60 b2 07 00
        E 60 b2 07 00
        E 60 b2 07 01
        E 60 b2 07 01
        E 60 b2 07 01
        E 60 b2 07 01
        E 60 b2 07 01
        E 60 b2 07 02
        E 60 b2 07 02
        E 60 b2 07 02
        E 60 b2 07 02
        E 60 b2 07 03
        E 60 b2 07 03
        E 60 b2 07 03
        E 60 b2 07 03
        E 60 b2 07 04
        E 60 b2 07 04
        E 60 b2 07 04
        E 60 b2 07 05
        E 60 b2 07 05
        E 60 b2 07 05
        E 60 b2 07 06
        E 60 b2 07 06
        E 54 b2 07 39
        E 54 b2 07 3c
        E 54 b2 07 3f
        E 54 b2 07 41
        E 54 b2 07 44
        E 54 b2 07 47
        E 54 b2 07 49
        E 54 b2 07 4c
        E 54 b2 07 4f
        E 54 b2 07 51
        E 54 b2 07 54
        E 54 b2 07 56
        E 54 b2 07 59
        E 54 b2 07 5b
        E 54 b2 07 5d
        E 54 b2 07 5f
        E 54 b2 07 62
        E 54 b2 07 63
        E 54 b2 07 65
        E 54 b2 07 67
        E 54 b2 07 69
        E 54 b2 07 6a
        E 54 b2 07 6c
        E 54 b2 07 6c
        E 54 b2 07 6d
        E 54 b2 07 6e
        E 54 b2 07 6f
        E 54 b2 07 70
        E 54 b2 07 71
        E 54 b2 07 71
        E 54 b2 07 72
        E 54 b2 07 72
        E 54 b2 07 72
        E 54 b2 07 72
        E 54 b2 07 72
        E 54 b2 07 71
        E 54 b2 07 71
        E 54 b2 07 70
        E 54 b2 07 6f
        E 54 b2 07 6e
        E 54 b2 07 6d
        E 54 b2 07 6c
        E 54 b2 07 6b
        E 54 b2 07 69
        E 54 b2 07 68
        E 54 b2 07 66
        E 54 b2 07 64
        E 54 b2 07 63
        E 54 b2 07 61
        E 54 b2 07 5e
        E 54 b2 07 5c
        E 54 b2 07 5a
        E 54 b2 07 58
        E 54 b2 07 55
        E 54 b2 07 52
        E 54 b2 07 50
        E 54 b2 07 4e
        E 54 b2 07 4b
        E 54 b2 07 48
        E 54 b2 07 46
        E 54 b2 07 42
        E 54 b2 07 3f
        E 54 b2 07 3d
        E 54 b2 07 3a
        E 54 b2 07 37
        E 54 b2 07 35
        E 54 b2 07 32
        E 54 b2 07 2f
        E 54 b2 07 2c
        E 54 b2 07 29
        E 54 b2 07 26
        E 54 b2 07 24
        E 54 b2 07 22
        E 54 b2 07 1f
        E 54 b2 07 1c
        E 54 b2 07 1a
        E 54 b2 07 18
        E 54 b2 07 15
        E 54 b2 07 13
        E 54 b2 07 11
        E 54 b2 07 0f
        E 54 b2 07 0d
        E 54 b2 07 0b
        E 54 b2 07 09
        E 54 b2 07 09
        E 54 b2 07 07
        E 54 b2 07 06
        E 54 b2 07 04
        E 54 b2 07 03
        E 54 b2 07 02
        E 54 b2 07 01
        E 54 b2 07 00
        E 54 b2 07 00
        E 54 b2 07 00
        E 54 b2 07 00
        E 54 b2 07 00
        E 54 b2 07 00
        E 54 b2 07 00
        E 54 b2 07 00
        E 54 b2 07 00
        E 54 b2 07 01
        E 54 b2 07 02
        E 54 b2 07 03
        E 54 b2 07 04
        E 54 b2 07 05
        E 54 b2 07 06
        E 54 b2 07 08
        E 54 b2 07 09
        E 54 b2 07 0a
        E 54 b2 07 0c
        E 54 b2 07 0e
        E 54 b2 07 10
        E 54 b2 07 12
        E 54 b2 07 14
        E 54 b2 07 16
        E 54 b2 07 19
        E 54 b2 07 1b
        E 54 b2 07 1d
        E 54 b2 07 20
        E 54 b2 07 23
        E 54 b2 07 25
        E 54 b2 07 28
        E 54 b2 07 2b
        E 54 b2 07 2d
        E 54 b2 07 30
        E 54 b2 07 33
        E 54 b2 07 36
        E 54 b2 07 39
        E 36 b2 07 0c
        E 36 b2 07 0d
        E 36 b2 07 0e
        E 36 b2 07 0e
        E 36 b2 07 0f
        E 36 b2 07 0f
        E 36 b2 07 10
        E 36 b2 07 11
        E 36 b2 07 11
        E 36 b2 07 12
        E 36 b2 07 12
        E 36 b2 07 13
        E 36 b2 07 13
        E 36 b2 07 14
        E 36 b2 07 14
        E 36 b2 07 15
        E 36 b2 07 15
        E 36 b2 07 16
        E 36 b2 07 16
        E 36 b2 07 17
        E 36 b2 07 17
        E 36 b2 07 17
        E 36 b2 07 18
        E 36 b2 07 18
        E 36 b2 07 18
        E 36 b2 07 18
        E 36 b2 07 18
        E 36 b2 07 19
        E 36 b2 07 19
        E 36 b2 07 19
        E 36 b2 07 19
        E 36 b2 07 19
        E 36 b2 07 19
        E 36 b2 07 19
        E 36 b2 07 19
        E 36 b2 07 19
        E 36 b2 07 19
        E 36 b2 07 19
        E 36 b2 07 18
        E 36 b2 07 18
        E 36 b2 07 18
        E 36 b2 07 18
        E 36 b2 07 17
        E 36 b2 07 17
        E 36 b2 07 17
        E 36 b2 07 16
        E 36 b2 07 16
        E 36 b2 07 16
        E 36 b2 07 15
        E 36 b2 07 15
        E 36 b2 07 14
        E 36 b2 07 14
        E 36 b2 07 13
        E 36 b2 07 13
        E 36 b2 07 12
        E 36 b2 07 11
        E 36 b2 07 11
        E 36 b2 07 10
        E 36 b2 07 10
        E 36 b2 07 0f
        E 36 b2 07 0e
        E 36 b2 07 0e
        E 36 b2 07 0d
        E 36 b2 07 0d
        E 36 b2 07 0c
        E 36 b2 07 0b
        E 36 b2 07 0b
        E 36 b2 07 0a
        E 36 b2 07 09
        E 36 b2 07 09
        E 36 b2 07 08
        E 36 b2 07 08
        E 36 b2 07 07
        E 36 b2 07 07
        E 36 b2 07 06
        E 36 b2 07 05
        E 36 b2 07 05
        E 36 b2 07 04
        E 36 b2 07 04
        E 36 b2 07 03
        E 36 b2 07 03
        E 36 b2 07 03
        E 36 b2 07 02
        E 36 b2 07 02
        E 36 b2 07 02
        E 36 b2 07 01
        E 36 b2 07 01
        E 36 b2 07 01
        E 36 b2 07 00
        E 36 b2 07 00
        E 36 b2 07 00
        E 36 b2 07 00
        E 36 b2 07 00
        E 36 b2 07 00
        E 36 b2 07 00
        E 36 b2 07 00
        E 36 b2 07 00
        E 36 b2 07 00
        E 36 b2 07 00
        E 36 b2 07 00
        E 36 b2 07 00
        E 36 b2 07 00
        E 36 b2 07 00
        E 36 b2 07 01
        E 36 b2 07 01
        E 36 b2 07 01
        E 36 b2 07 01
        E 36 b2 07 02
        E 36 b2 07 02
        E 36 b2 07 02
        E 36 b2 07 03
        E 36 b2 07 03
        E 36 b2 07 04
        E 36 b2 07 04
        E 36 b2 07 05
        E 36 b2 07 05
        E 36 b2 07 06
        E 36 b2 07 06
        E 36 b2 07 07
        E 36 b2 07 07
        E 36 b2 07 08
        E 36 b2 07 09
        E 36 b2 07 09
        E 36 b2 07 0a
        E 36 b2 07 0a
        E 36 b2 07 0b
        E 36 b2 07 0c
        E 36 b2 07 0c
        E 12 b2 07 06
        E 12 b2 07 06
        E 12 b2 07 07
        E 12 b2 07 07
        E 12 b2 07 07
        E 12 b2 07 07
        E 12 b2 07 08
        E 12 b2 07 08
        E 12 b2 07 08
        E 12 b2 07 09
        E 12 b2 07 09
        E 12 b2 07 09
        E 12 b2 07 09
        E 12 b2 07 0a
        E 12 b2 07 0a
        E 12 b2 07 0a
        E 12 b2 07 0a
        E 12 b2 07 0b
        E 12 b2 07 0b
        E 12 b2 07 0b
        E 12 b2 07 0b
        E 12 b2 07 0b
        E 12 b2 07 0c
        E 12 b2 07 0c
        E 12 b2 07 0c
        E 12 b2 07 0c
        E 12 b2 07 0c
        E 12 b2 07 0c
        E 12 b2 07 0c
        E 12 b2 07 0c
        E 12 b2 07 0c
        E 12 b2 07 0c
        E 12 b2 07 0c
        E 12 b2 07 0c
        E 12 b2 07 0c
        E 12 b2 07 0c
        E 12 b2 07 0c
        E 12 b2 07 0c
        E 12 b2 07 0c
        E 12 b2 07 0c
        E 12 b2 07 0c
        E 12 b2 07 0c
        E 12 b2 07 0b
        E 12 b2 07 0b
        E 12 b2 07 0b
        E 12 b2 07 0b
        E 12 b2 07 0b
        E 12 b2 07 0b
        E 12 b2 07 0a
        E 12 b2 07 0a
        E 12 b2 07 0a
        E 12 b2 07 0a
        E 12 b2 07 09
        E 12 b2 07 09
        E 12 b2 07 09
        E 12 b2 07 08
        E 12 b2 07 08
        E 12 b2 07 08
        E 12 b2 07 08
        E 12 b2 07 07
        E 12 b2 07 07
        E 12 b2 07 07
        E 12 b2 07 06
        E 12 b2 07 06
        E 12 b2 07 06
        E 12 b2 07 05
        E 12 b2 07 05
        E 12 b2 07 05
        E 12 b2 07 04
        E 12 b2 07 04
        E 12 b2 07 04
        E 12 b2 07 04
        E 12 b2 07 03
        E 12 b2 07 03
        E 12 b2 07 03
        E 12 b2 07 02
        E 12 b2 07 02
        E 12 b2 07 02
        E 12 b2 07 02
        E 12 b2 07 01
        E 12 b2 07 01
        E 12 b2 07 01
        E 12 b2 07 01
        E 12 b2 07 01
        E 12 b2 07 01
        E 12 b2 07 00
        E 12 b2 07 00
        E 12 b2 07 00
        E 12 b2 07 00
        E 12 b2 07 00
        E 12 b2 07 00
        E 12 b2 07 00
        E 12 b2 07 00
        E 12 b2 07 00
        E 12 b2 07 00
        E 12 b2 07 00
        E 12 b2 07 00
        E 12 b2 07 00
        E 12 b2 07 00
        E 12 b2 07 00
        E 12 b2 07 00
        E 12 b2 07 00
        E 12 b2 07 00
        E 12 b2 07 00
        E 12 b2 07 00
        E 12 b2 07 00
        E 12 b2 07 00
        E 12 b2 07 01
        E 12 b2 07 01
        E 12 b2 07 01
        E 12 b2 07 01
        E 12 b2 07 01
        E 12 b2 07 02
        E 12 b2 07 02
        E 12 b2 07 02
        E 12 b2 07 02
        E 12 b2 07 03
        E 12 b2 07 03
        E 12 b2 07 03
        E 12 b2 07 03
        E 12 b2 07 04
        E 12 b2 07 04
        E 12 b2 07 04
        E 12 b2 07 05
        E 12 b2 07 05
        E 12 b2 07 05
        E 12 b2 07 06
        E 12 b2 07 06
        E 42 b2 07 20
        E 42 b2 07 21
        E 42 b2 07 23
        E 42 b2 07 24
        E 42 b2 07 26
        E 42 b2 07 27
        E 42 b2 07 29
        E 42 b2 07 2a
        E 42 b2 07 2c
        E 42 b2 07 2d
        E 42 b2 07 2f
        E 42 b2 07 30
        E 42 b2 07 31
        E 42 b2 07 33
        E 42 b2 07 34
        E 42 b2 07 35
        E 42 b2 07 36
        E 42 b2 07 37
        E 42 b2 07 38
        E 42 b2 07 39
        E 42 b2 07 3a
        E 42 b2 07 3b
        E 42 b2 07 3c
        E 42 b2 07 3c
        E 42 b2 07 3d
        E 42 b2 07 3d
        E 42 b2 07 3e
        E 42 b2 07 3e
        E 42 b2 07 3f
        E 42 b2 07 3f
        E 42 b2 07 3f
        E 42 b2 07 3f
        E 42 b2 07 3f
        E 42 b2 07 3f
        E 42 b2 07 3f
        E 42 b2 07 3f
        E 42 b2 07 3f
        E 42 b2 07 3e
        E 42 b2 07 3e
        E 42 b2 07 3d
        E 42 b2 07 3d
        E 42 b2 07 3c
        E 42 b2 07 3b
        E 42 b2 07 3a
        E 42 b2 07 3a
        E 42 b2 07 39
        E 42 b2 07 38
        E 42 b2 07 37
        E 42 b2 07 36
        E 42 b2 07 34
        E 42 b2 07 33
        E 42 b2 07 32
        E 42 b2 07 31
        E 42 b2 07 2f
        E 42 b2 07 2e
        E 42 b2 07 2c
        E 42 b2 07 2b
        E 42 b2 07 2a
        E 42 b2 07 28
        E 42 b2 07 27
        E 42 b2 07 25
        E 42 b2 07 23
        E 42 b2 07 22
        E 42 b2 07 20
        E 42 b2 07 1f
        E 42 b2 07 1d
        E 42 b2 07 1c
        E 42 b2 07 1a
        E 42 b2 07 18
        E 42 b2 07 17
        E 42 b2 07 15
        E 42 b2 07 14
        E 42 b2 07 13
        E 42 b2 07 11
        E 42 b2 07 10
        E 42 b2 07 0e
        E 42 b2 07 0d
        E 42 b2 07 0c
        E 42 b2 07 0b
        E 42 b2 07 09
        E 42 b2 07 08
        E 42 b2 07 07
        E 42 b2 07 06
        E 42 b2 07 05
        E 42 b2 07 05
        E 42 b2 07 04
        E 42 b2 07 03
        E 42 b2 07 02
        E 42 b2 07 02
        E 42 b2 07 01
        E 42 b2 07 01
        E 42 b2 07 00
        E 42 b2 07 00
        E 42 b2 07 00
        E 42 b2 07 00
        E 42 b2 07 00
        E 42 b2 07 00
        E 42 b2 07 00
        E 42 b2 07 00
        E 42 b2 07 00
        E 42 b2 07 01
        E 42 b2 07 01
        E 42 b2 07 02
        E 42 b2 07 02
        E 42 b2 07 03
        E 42 b2 07 03
        E 42 b2 07 04
        E 42 b2 07 05
        E 42 b2 07 06
        E 42 b2 07 07
        E 42 b2 07 08
        E 42 b2 07 09
        E 42 b2 07 0a
        E 42 b2 07 0b
        E 42 b2 07 0c
        E 42 b2 07 0e
        E 42 b2 07 0f
        E 42 b2 07 10
        E 42 b2 07 12
        E 42 b2 07 13
        E 42 b2 07 15
        E 42 b2 07 16
        E 42 b2 07 18
        E 42 b2 07 19
        E 42 b2 07 1b
        E 42 b2 07 1c
        E 42 b2 07 1e
        E 42 b2 07 20
        E 24 b2 07 19
        E 24 b2 07 1a
        E 24 b2 07 1c
        E 24 b2 07 1d
        E 24 b2 07 1e
        E 24 b2 07 1f
        E 24 b2 07 20
        E 24 b2 07 22
        E 24 b2 07 23
        E 24 b2 07 24
        E 24 b2 07 25
        E 24 b2 07 26
        E 24 b2 07 27
        E 24 b2 07 28
        E 24 b2 07 29
        E 24 b2 07 2a
        E 24 b2 07 2b
        E 24 b2 07 2c
        E 24 b2 07 2d
        E 24 b2 07 2e
        E 24 b2 07 2e
        E 24 b2 07 2f
        E 24 b2 07 30
        E 24 b2 07 30
        E 24 b2 07 30
        E 24 b2 07 31
        E 24 b2 07 31
        E 24 b2 07 32
        E 24 b2 07 32
        E 24 b2 07 32
        E 24 b2 07 32
        E 24 b2 07 32
        E 24 b2 07 32
        E 24 b2 07 32
        E 24 b2 07 32
        E 24 b2 07 32
        E 24 b2 07 32
        E 24 b2 07 32
        E 24 b2 07 31
        E 24 b2 07 31
        E 24 b2 07 30
        E 24 b2 07 30
        E 24 b2 07 2f
        E 24 b2 07 2e
        E 24 b2 07 2e
        E 24 b2 07 2d
        E 24 b2 07 2c
        E 24 b2 07 2c
        E 24 b2 07 2b
        E 24 b2 07 2a
        E 24 b2 07 29
        E 24 b2 07 28
        E 24 b2 07 27
        E 24 b2 07 26
        E 24 b2 07 24
        E 24 b2 07 23
        E 24 b2 07 22
        E 24 b2 07 21
        E 24 b2 07 20
        E 24 b2 07 1f
        E 24 b2 07 1d
        E 24 b2 07 1c
        E 24 b2 07 1b
        E 24 b2 07 1a
        E 24 b2 07 18
        E 24 b2 07 17
        E 24 b2 07 16
        E 24 b2 07 15
        E 24 b2 07 13
        E 24 b2 07 12
        E 24 b2 07 11
        E 24 b2 07 10
        E 24 b2 07 0f
        E 24 b2 07 0e
        E 24 b2 07 0c
        E 24 b2 07 0b
        E 24 b2 07 0a
        E 24 b2 07 09
        E 24 b2 07 08
        E 24 b2 07 07
        E 24 b2 07 06
        E 24 b2 07 06
        E 24 b2 07 05
        E 24 b2 07 04
        E 24 b2 07 04
        E 24 b2 07 03
        E 24 b2 07 02
        E 24 b2 07 02
        E 24 b2 07 01
        E 24 b2 07 01
        E 24 b2 07 00
        E 24 b2 07 00
        E 24 b2 07 00
        E 24 b2 07 00
        E 24 b2 07 00
        E 24 b2 07 00
        E 24 b2 07 00
        E 24 b2 07 00
        E 24 b2 07 00
        E 24 b2 07 00
        E 24 b2 07 00
        E 24 b2 07 01
        E 24 b2 07 01
        E 24 b2 07 02
        E 24 b2 07 02
        E 24 b2 07 02
        E 24 b2 07 03
        E 24 b2 07 04
        E 24 b2 07 04
        E 24 b2 07 05
        E 24 b2 07 06
        E 24 b2 07 07
        E 24 b2 07 08
        E 24 b2 07 09
        E 24 b2 07 0a
        E 24 b2 07 0b
        E 24 b2 07 0c
        E 24 b2 07 0d
        E 24 b2 07 0e
        E 24 b2 07 0f
        E 24 b2 07 10
        E 24 b2 07 12
        E 24 b2 07 13
        E 24 b2 07 14
        E 24 b2 07 15
        E 24 b2 07 16
        E 24 b2 07 18
        E 24 b2 07 19
        E 60 b2 07 06
        E 60 b2 07 06
        E 60 b2 07 07
        E 60 b2 07 07
        E 60 b2 07 07
        E 60 b2 07 07
        E 60 b2 07 08
        E 60 b2 07 08
        E 60 b2 07 08
        E 60 b2 07 09
        E 60 b2 07 09
        E 60 b2 07 09
        E 60 b2 07 09
        E 60 b2 07 0a
        E 60 b2 07 0a
        E 60 b2 07 0a
        E 60 b2 07 0a
        E 60 b2 07 0b
        E 60 b2 07 0b
        E 60 b2 07 0b
        E 60 b2 07 0b
        E 60 b2 07 0b
        E 60 b2 07 0c
        E 60 b2 07 0c
        E 60 b2 07 0c
        E 60 b2 07 0c
        E 60 b2 07 0c
        E 60 b2 07 0c
        E 60 b2 07 0c
        E 60 b2 07 0c
        E 60 b2 07 0c
        E 60 b2 07 0c
        E 60 b2 07 0c
        E 60 b2 07 0c
        E 60 b2 07 0c
        E 60 b2 07 0c
        E 60 b2 07 0c
        E 60 b2 07 0c
        E 60 b2 07 0c
        E 60 b2 07 0c
        E 60 b2 07 0c
        E 60 b2 07 0c
        E 60 b2 07 0b
        E 60 b2 07 0b
        E 60 b2 07 0b
        E 60 b2 07 0b
        E 60 b2 07 0b
        E 60 b2 07 0b
        E 60 b2 07 0a
        E 60 b2 07 0a
        E 60 b2 07 0a
        E 60 b2 07 0a
        E 60 b2 07 09
        E 60 b2 07 09
        E 60 b2 07 09
        E 60 b2 07 08
        E 60 b2 07 08
        E 60 b2 07 08
        E 60 b2 07 08
        E 60 b2 07 07
        E 60 b2 07 07
        E 60 b2 07 07
        E 60 b2 07 06
        E 60 b2 07 06
        E 60 b2 07 06
        E 60 b2 07 05
        E 60 b2 07 05
        E 60 b2 07 05
        E 60 b2 07 04
        E 60 b2 07 04
        E 60 b2 07 04
        E 60 b2 07 04
        E 60 b2 07 03
        E 60 b2 07 03
        E 60 b2 07 03
        E 60 b2 07 02
        E 60 b2 07 02
        E 60 b2 07 02
        E 60 b2 07 02
        E 60 b2 07 01
        E 60 b2 07 01
        E 60 b2 07 01
        E 60 b2 07 01
        E 60 b2 07 01
        E 60 b2 07 01
        E 60 b2 07 00
        E 60 b2 07 00
        E 60 b2 07 00
        E 60 b2 07 00
        E 60 b2 07 00
        E 60 b2 07 00
        E 60 b2 07 00
        E 60 b2 07 00
        E 60 b2 07 00
        E 60 b2 07 00
        E 60 b2 07 00
        E 60 b2 07 00
        E 60 b2 07 00
        E 60 b2 07 00
        E 60 b2 07 00
        E 60 b2 07 00
        E 60 b2 07 00
        E 60 b2 07 00
        E 60 b2 07 00
        E 60 b2 07 00
        E 60 b2 07 00
        E 60 b2 07 00
        E 60 b2 07 01
        E 60 b2 07 01
        E 60 b2 07 01
        E 60 b2 07 01
        E 60 b2 07 01
        E 60 b2 07 02
        E 60 b2 07 02
        E 60 b2 07 02
        E 60 b2 07 02
        E 60 b2 07 03
        E 60 b2 07 03
        E 60 b2 07 03
        E 60 b2 07 03
        E 60 b2 07 04
        E 60 b2 07 04
        E 60 b2 07 04
        E 60 b2 07 05
        E 60 b2 07 05
        E 60 b2 07 05
        E 60 b2 07 06
        E 60 b2 07 06
        E 54 b2 07 39
        E 54 b2 07 3c
        E 54 b2 07 3f
        E 54 b2 07 41
        E 54 b2 07 44
        E 54 b2 07 47
        E 54 b2 07 49
        E 54 b2 07 4c
        E 54 b2 07 4f
        E 54 b2 07 51
        E 54 b2 07 54
        E 54 b2 07 56
        E 54 b2 07 59
        E 54 b2 07 5b
        E 54 b2 07 5d
        E 54 b2 07 5f
        E 54 b2 07 62
        E 54 b2 07 63
        E 54 b2 07 65
        E 54 b2 07 67
        E 54 b2 07 69
        E 54 b2 07 6a
        E 54 b2 07 6c
        E 54 b2 07 6c
        E 54 b2 07 6d
        E 54 b2 07 6e
        E 54 b2 07 6f
        E 54 b2 07 70
        E 54 b2 07 71
        E 54 b2 07 71
        E 54 b2 07 72
        E 54 b2 07 72
        E 54 b2 07 72
        E 54 b2 07 72
        E 54 b2 07 72
        E 54 b2 07 71
        E 54 b2 07 71
        E 54 b2 07 70
        E 54 b2 07 6f
        E 54 b2 07 6e
        E 54 b2 07 6d
        E 54 b2 07 6c
        E 54 b2 07 6b
        E 54 b2 07 69
        E 54 b2 07 68
        E 54 b2 07 66
        E 54 b2 07 64
        E 54 b2 07 63
        E 54 b2 07 61
        E 54 b2 07 5e
        E 54 b2 07 5c
        E 54 b2 07 5a
        E 54 b2 07 58
        E 54 b2 07 55
        E 54 b2 07 52
        E 54 b2 07 50
        E 54 b2 07 4e
        E 54 b2 07 4b
        E 54 b2 07 48
        E 54 b2 07 46
        E 54 b2 07 42
        E 54 b2 07 3f
        E 54 b2 07 3d
        E 54 b2 07 3a
        E 54 b2 07 37
        E 54 b2 07 35
        E 54 b2 07 32
        E 54 b2 07 2f
        E 54 b2 07 2c
        E 54 b2 07 29
        E 54 b2 07 26
        E 54 b2 07 24
        E 54 b2 07 22
        E 54 b2 07 1f
        E 54 b2 07 1c
        E 54 b2 07 1a
        E 54 b2 07 18
        E 54 b2 07 15
        E 54 b2 07 13
        E 54 b2 07 11
        E 54 b2 07 0f
        E 54 b2 07 0d
        E 54 b2 07 0b
        E 54 b2 07 09
        E 54 b2 07 09
        E 54 b2 07 07
        E 54 b2 07 06
        E 54 b2 07 04
        E 54 b2 07 03
        E 54 b2 07 02
        E 54 b2 07 01
        E 54 b2 07 00
        E 54 b2 07 00
        E 54 b2 07 00
        E 54 b2 07 00
        E 54 b2 07 00
        E 54 b2 07 00
        E 54 b2 07 00
        E 54 b2 07 00
        E 54 b2 07 00
        E 54 b2 07 01
        E 54 b2 07 02
        E 54 b2 07 03
        E 54 b2 07 04
        E 54 b2 07 05
        E 54 b2 07 06
        E 54 b2 07 08
        E 54 b2 07 09
        E 54 b2 07 0a
        E 54 b2 07 0c
        E 54 b2 07 0e
        E 54 b2 07 10
        E 54 b2 07 12
        E 54 b2 07 14
        E 54 b2 07 16
        E 54 b2 07 19
        E 54 b2 07 1b
        E 54 b2 07 1d
        E 54 b2 07 20
        E 54 b2 07 23
        E 54 b2 07 25
        E 54 b2 07 28
        E 54 b2 07 2b
        E 54 b2 07 2d
        E 54 b2 07 30
        E 54 b2 07 33
        E 54 b2 07 36
        E 54 b2 07 39
        E 36 b2 07 0c
        E 36 b2 07 0d
        E 36 b2 07 0e
        E 36 b2 07 0e
        E 36 b2 07 0f
        E 36 b2 07 0f
        E 36 b2 07 10
        E 36 b2 07 11
        E 36 b2 07 11
        E 36 b2 07 12
        E 36 b2 07 12
        E 36 b2 07 13
        E 36 b2 07 13
        E 36 b2 07 14
        E 36 b2 07 14
        E 36 b2 07 15
        E 36 b2 07 15
        E 36 b2 07 16
        E 36 b2 07 16
        E 36 b2 07 17
        E 36 b2 07 17
        E 36 b2 07 17
        E 36 b2 07 18
        E 36 b2 07 18
        E 36 b2 07 18
        E 36 b2 07 18
        E 36 b2 07 18
        E 36 b2 07 19
        E 36 b2 07 19
        E 36 b2 07 19
        E 36 b2 07 19
        E 36 b2 07 19
        E 36 b2 07 19
        E 36 b2 07 19
        E 36 b2 07 19
        E 36 b2 07 19
        E 36 b2 07 19
        E 36 b2 07 19
        E 36 b2 07 18
        E 36 b2 07 18
        E 36 b2 07 18
        E 36 b2 07 18
        E 36 b2 07 17
        E 36 b2 07 17
        E 36 b2 07 17
        E 36 b2 07 16
        E 36 b2 07 16
        E 36 b2 07 16
        E 36 b2 07 15
        E 36 b2 07 15
        E 36 b2 07 14
        E 36 b2 07 14
        E 36 b2 07 13
        E 36 b2 07 13
        E 36 b2 07 12
        E 36 b2 07 11
        E 36 b2 07 11
        E 36 b2 07 10
        E 36 b2 07 10
        E 36 b2 07 0f
        E 36 b2 07 0e
        E 36 b2 07 0e
        E 36 b2 07 0d
        E 36 b2 07 0d
        E 36 b2 07 0c
        E 36 b2 07 0b
        E 36 b2 07 0b
        E 36 b2 07 0a
        E 36 b2 07 09
        E 36 b2 07 09
        E 36 b2 07 08
        E 36 b2 07 08
        E 36 b2 07 07
        E 36 b2 07 07
        E 36 b2 07 06
        E 36 b2 07 05
        E 36 b2 07 05
        E 36 b2 07 04
        E 36 b2 07 04
        E 36 b2 07 03
        E 36 b2 07 03
        E 36 b2 07 03
        E 36 b2 07 02
        E 36 b2 07 02
        E 36 b2 07 02
        E 36 b2 07 01
        E 36 b2 07 01
        E 36 b2 07 01
        E 36 b2 07 00
        E 36 b2 07 00
        E 36 b2 07 00
        E 36 b2 07 00
        E 36 b2 07 00
        E 36 b2 07 00
        E 36 b2 07 00
        E 36 b2 07 00
        E 36 b2 07 00
        E 36 b2 07 00
        E 36 b2 07 00
        E 36 b2 07 00
        E 36 b2 07 00
        E 36 b2 07 00
        E 36 b2 07 00
        E 36 b2 07 01
        E 36 b2 07 01
        E 36 b2 07 01
        E 36 b2 07 01
        E 36 b2 07 02
        E 36 b2 07 02
        E 36 b2 07 02
        E 36 b2 07 03
        E 36 b2 07 03
        E 36 b2 07 04
        E 36 b2 07 04
        E 36 b2 07 05
        E 36 b2 07 05
        E 36 b2 07 06
        E 36 b2 07 06
        E 36 b2 07 07
        E 36 b2 07 07
        E 36 b2 07 08
        E 36 b2 07 09
        E 36 b2 07 09
        E 36 b2 07 0a
        E 36 b2 07 0a
        E 36 b2 07 0b
        E 36 b2 07 0c
        E 36 b2 07 0c
        E 8 b2 07 19
        E 8 b2 07 1a
        E 8 b2 07 1c
        E 8 b2 07 1d
        E 8 b2 07 1e
        E 8 b2 07 1f
        E 8 b2 07 20
        E 8 b2 07 22
        E 8 b2 07 23
        E 8 b2 07 24
        E 8 b2 07 25
        E 8 b2 07 26
        E 8 b2 07 27
        E 8 b2 07 28
        E 8 b2 07 29
        E 8 b2 07 2a
        E 8 b2 07 2b
        E 8 b2 07 2c
        E 8 b2 07 2d
        E 8 b2 07 2e
        E 8 b2 07 2e
        E 8 b2 07 2f
        E 8 b2 07 30
        E 8 b2 07 30
        E 8 b2 07 30
        E 8 b2 07 31
        E 8 b2 07 31
        E 8 b2 07 32
        E 8 b2 07 32
        E 8 b2 07 32
        E 8 b2 07 32
        E 8 b2 07 32
        E 8 b2 07 32
        E 8 b2 07 32
        E 8 b2 07 32
        E 8 b2 07 32
        E 8 b2 07 32
        E 8 b2 07 32
        E 8 b2 07 31
        E 8 b2 07 31
        E 8 b2 07 30
        E 8 b2 07 30
        E 8 b2 07 2f
        E 8 b2 07 2e
        E 8 b2 07 2e
        E 8 b2 07 2d
        E 8 b2 07 2c
        E 8 b2 07 2c
        E 8 b2 07 2b
        E 8 b2 07 2a
        E 8 b2 07 29
        E 8 b2 07 28
        E 8 b2 07 27
        E 8 b2 07 26
        E 8 b2 07 24
        E 8 b2 07 23
        E 8 b2 07 22
        E 8 b2 07 21
        E 8 b2 07 20
        E 8 b2 07 1f
        E 8 b2 07 1d
        E 8 b2 07 1c
        E 8 b2 07 1b
        E 8 b2 07 1a
        E 8 b2 07 18
        E 8 b2 07 17
        E 8 b2 07 16
        E 8 b2 07 15
        E 8 b2 07 13
        E 8 b2 07 12
        E 8 b2 07 11
        E 8 b2 07 10
        E 8 b2 07 0f
        E 8 b2 07 0e
        E 8 b2 07 0c
        E 8 b2 07 0b
        E 8 b2 07 0a
        E 8 b2 07 09
        E 8 b2 07 08
        E 8 b2 07 07
        E 8 b2 07 06
        E 8 b2 07 06
        E 8 b2 07 05
        E 8 b2 07 04
        E 8 b2 07 04
        E 8 b2 07 03
        E 8 b2 07 02
        E 8 b2 07 02
        E 8 b2 07 01
        E 8 b2 07 01
        E 8 b2 07 00
        E 8 b2 07 00
        E 8 b2 07 00
        E 8 b2 07 00
        E 8 b2 07 00
        E 8 b2 07 00
        E 8 b2 07 00
        E 8 b2 07 00
        E 8 b2 07 00
        E 8 b2 07 00
        E 8 b2 07 00
        E 8 b2 07 01
        E 8 b2 07 01
        E 8 b2 07 02
        E 8 b2 07 02
        E 8 b2 07 02
        E 8 b2 07 03
        E 8 b2 07 04
        E 8 b2 07 04
        E 8 b2 07 05
        E 8 b2 07 06
        E 8 b2 07 07
        E 8 b2 07 08
        E 8 b2 07 09
        E 8 b2 07 0a
        E 8 b2 07 0b
        E 8 b2 07 0c
        E 8 b2 07 0d
        E 8 b2 07 0e
        E 8 b2 07 0f
        E 8 b2 07 10
        E 8 b2 07 12
        E 8 b2 07 13
        E 8 b2 07 14
        E 8 b2 07 15
        E 8 b2 07 16
        E 8 b2 07 18
        E 8 b2 07 19
        E 21 b2 07 06
        E 21 b2 07 06
        E 21 b2 07 07
        E 21 b2 07 07
        E 21 b2 07 07
        E 21 b2 07 07
        E 21 b2 07 08
        E 21 b2 07 08
        E 21 b2 07 08
        E 21 b2 07 09
        E 21 b2 07 09
        E 21 b2 07 09
        E 21 b2 07 09
        E 21 b2 07 0a
        E 21 b2 07 0a
        E 21 b2 07 0a
        E 21 b2 07 0a
        E 21 b2 07 0b
        E 21 b2 07 0b
        E 21 b2 07 0b
        E 21 b2 07 0b
        E 21 b2 07 0b
        E 21 b2 07 0c
        E 21 b2 07 0c
        E 21 b2 07 0c
        E 21 b2 07 0c
        E 21 b2 07 0c
        E 21 b2 07 0c
        E 21 b2 07 0c
        E 21 b2 07 0c
        E 21 b2 07 0c
        E 21 b2 07 0c
        E 21 b2 07 0c
        E 21 b2 07 0c
        E 21 b2 07 0c
        E 21 b2 07 0c
        E 21 b2 07 0c
        E 21 b2 07 0c
        E 21 b2 07 0c
        E 21 b2 07 0c
        E 21 b2 07 0c
        E 21 b2 07 0c
        E 21 b2 07 0b
        E 21 b2 07 0b
        E 21 b2 07 0b
        E 21 b2 07 0b
        E 21 b2 07 0b
        E 21 b2 07 0b
        E 21 b2 07 0a
        E 21 b2 07 0a
        E 21 b2 07 0a
        E 21 b2 07 0a
        E 21 b2 07 09
        E 21 b2 07 09
        E 21 b2 07 09
        E 21 b2 07 08
        E 21 b2 07 08
        E 21 b2 07 08
        E 21 b2 07 08
        E 21 b2 07 07
        E 21 b2 07 07
        E 21 b2 07 07
        E 21 b2 07 06
        E 21 b2 07 06
        E 21 b2 07 06
        E 21 b2 07 05
        E 21 b2 07 05
        E 21 b2 07 05
        E 21 b2 07 04
        E 21 b2 07 04
        E 21 b2 07 04
        E 21 b2 07 04
        E 21 b2 07 03
        E 21 b2 07 03
        E 21 b2 07 03
        E 21 b2 07 02
        E 21 b2 07 02
        E 21 b2 07 02
        E 21 b2 07 02
        E 21 b2 07 01
        E 21 b2 07 01
        E 21 b2 07 01
        E 21 b2 07 01
        E 21 b2 07 01
        E 21 b2 07 01
        E 21 b2 07 00
        E 21 b2 07 00
        E 21 b2 07 00
        E 21 b2 07 00
        E 21 b2 07 00
        E 21 b2 07 00
        E 21 b2 07 00
        E 21 b2 07 00
        E 21 b2 07 00
        E 21 b2 07 00
        E 21 b2 07 00
        E 21 b2 07 00
        E 21 b2 07 00
        E 21 b2 07 00
        E 21 b2 07 00
        E 21 b2 07 00
        E 21 b2 07 00
        E 21 b2 07 00
        E 21 b2 07 00
        E 21 b2 07 00
        E 21 b2 07 00
        E 21 b2 07 00
        E 21 b2 07 01
        E 21 b2 07 01
        E 21 b2 07 01
        E 21 b2 07 01
        E 21 b2 07 01
        E 21 b2 07 02
        E 21 b2 07 02
        E 21 b2 07 02
        E 21 b2 07 02
        E 21 b2 07 03
        E 21 b2 07 03
        E 21 b2 07 03
        E 21 b2 07 03
        E 21 b2 07 04
        E 21 b2 07 04
        E 21 b2 07 04
        E 21 b2 07 05
        E 21 b2 07 05
        E 21 b2 07 05
        E 21 b2 07 06
        E 21 b2 07 06
        E 18 b2 07 39
        E 18 b2 07 3c
        E 18 b2 07 3f
        E 18 b2 07 41
        E 18 b2 07 44
        E 18 b2 07 47
        E 18 b2 07 49
        E 18 b2 07 4c
        E 18 b2 07 4f
        E 18 b2 07 51
        E 18 b2 07 54
        E 18 b2 07 56
        E 18 b2 07 59
        E 18 b2 07 5b
        E 18 b2 07 5d
        E 18 b2 07 5f
        E 18 b2 07 62
        E 18 b2 07 63
        E 18 b2 07 65
        E 18 b2 07 67
        E 18 b2 07 69
        E 18 b2 07 6a
        E 18 b2 07 6c
        E 18 b2 07 6c
        E 18 b2 07 6d
        E 18 b2 07 6e
        E 18 b2 07 6f
        E 18 b2 07 70
        E 18 b2 07 71
        E 18 b2 07 71
        E 18 b2 07 72
        E 18 b2 07 72
        E 18 b2 07 72
        E 18 b2 07 72
        E 18 b2 07 72
        E 18 b2 07 71
        E 18 b2 07 71
        E 18 b2 07 70
        E 18 b2 07 6f
        E 18 b2 07 6e
        E 18 b2 07 6d
        E 18 b2 07 6c
        E 18 b2 07 6b
        E 18 b2 07 69
        E 18 b2 07 68
        E 18 b2 07 66
        E 18 b2 07 64
        E 18 b2 07 63
        E 18 b2 07 61
        E 18 b2 07 5e
        E 18 b2 07 5c
        E 18 b2 07 5a
        E 18 b2 07 58
        E 18 b2 07 55
        E 18 b2 07 52
        E 18 b2 07 50
        E 18 b2 07 4e
        E 18 b2 07 4b
        E 18 b2 07 48
        E 18 b2 07 46
        E 18 b2 07 42
        E 18 b2 07 3f
        E 18 b2 07 3d
        E 18 b2 07 3a
        E 18 b2 07 37
        E 18 b2 07 35
        E 18 b2 07 32
        E 18 b2 07 2f
        E 18 b2 07 2c
        E 18 b2 07 29
        E 18 b2 07 26
        E 18 b2 07 24
        E 18 b2 07 22
        E 18 b2 07 1f
        E 18 b2 07 1c
        E 18 b2 07 1a
        E 18 b2 07 18
        E 18 b2 07 15
        E 18 b2 07 13
        E 18 b2 07 11
        E 18 b2 07 0f
        E 18 b2 07 0d
        E 18 b2 07 0b
        E 18 b2 07 09
        E 18 b2 07 09
        E 18 b2 07 07
        E 18 b2 07 06
        E 18 b2 07 04
        E 18 b2 07 03
        E 18 b2 07 02
        E 18 b2 07 01
        E 18 b2 07 00
        E 18 b2 07 00
        E 18 b2 07 00
        E 18 b2 07 00
        E 18 b2 07 00
        E 18 b2 07 00
        E 18 b2 07 00
        E 18 b2 07 00
        E 18 b2 07 00
        E 18 b2 07 01
        E 18 b2 07 02
        E 18 b2 07 03
        E 18 b2 07 04
        E 18 b2 07 05
        E 18 b2 07 06
        E 18 b2 07 08
        E 18 b2 07 09
        E 18 b2 07 0a
        E 18 b2 07 0c
        E 18 b2 07 0e
        E 18 b2 07 10
        E 18 b2 07 12
        E 18 b2 07 14
        E 18 b2 07 16
        E 18 b2 07 19
        E 18 b2 07 1b
        E 18 b2 07 1d
        E 18 b2 07 20
        E 18 b2 07 23
        E 18 b2 07 25
        E 18 b2 07 28
        E 18 b2 07 2b
        E 18 b2 07 2d
        E 18 b2 07 30
        E 18 b2 07 33
        E 18 b2 07 36
        E 18 b2 07 39
        E 12 b2 07 0c
        E 12 b2 07 0d
        E 12 b2 07 0e
        E 12 b2 07 0e
        E 12 b2 07 0f
        E 12 b2 07 0f
        E 12 b2 07 10
        E 12 b2 07 11
        E 12 b2 07 11
        E 12 b2 07 12
        E 12 b2 07 12
        E 12 b2 07 13
        E 12 b2 07 13
        E 12 b2 07 14
        E 12 b2 07 14
        E 12 b2 07 15
        E 12 b2 07 15
        E 12 b2 07 16
        E 12 b2 07 16
        E 12 b2 07 17
        E 12 b2 07 17
        E 12 b2 07 17
        E 12 b2 07 18
        E 12 b2 07 18
        E 12 b2 07 18
        E 12 b2 07 18
        E 12 b2 07 18
        E 12 b2 07 19
        E 12 b2 07 19
        E 12 b2 07 19
        E 12 b2 07 19
        E 12 b2 07 19
        E 12 b2 07 19
        E 12 b2 07 19
        E 12 b2 07 19
        E 12 b2 07 19
        E 12 b2 07 19
        E 12 b2 07 19
        E 12 b2 07 18
        E 12 b2 07 18
        E 12 b2 07 18
        E 12 b2 07 18
        E 12 b2 07 17
        E 12 b2 07 17
        E 12 b2 07 17
        E 12 b2 07 16
        E 12 b2 07 16
        E 12 b2 07 16
        E 12 b2 07 15
        E 12 b2 07 15
        E 12 b2 07 14
        E 12 b2 07 14
        E 12 b2 07 13
        E 12 b2 07 13
        E 12 b2 07 12
        E 12 b2 07 11
        E 12 b2 07 11
        E 12 b2 07 10
        E 12 b2 07 10
        E 12 b2 07 0f
        E 12 b2 07 0e
        E 12 b2 07 0e
        E 12 b2 07 0d
        E 12 b2 07 0d
        E 12 b2 07 0c
        E 12 b2 07 0b
        E 12 b2 07 0b
        E 12 b2 07 0a
        E 12 b2 07 09
        E 12 b2 07 09
        E 12 b2 07 08
        E 12 b2 07 08
        E 12 b2 07 07
        E 12 b2 07 07
        E 12 b2 07 06
        E 12 b2 07 05
        E 12 b2 07 05
        E 12 b2 07 04
        E 12 b2 07 04
        E 12 b2 07 03
        E 12 b2 07 03
        E 12 b2 07 03
        E 12 b2 07 02
        E 12 b2 07 02
        E 12 b2 07 02
        E 12 b2 07 01
        E 12 b2 07 01
        E 12 b2 07 01
        E 12 b2 07 00
        E 12 b2 07 00
        E 12 b2 07 00
        E 12 b2 07 00
        E 12 b2 07 00
        E 12 b2 07 00
        E 12 b2 07 00
        E 12 b2 07 00
        E 12 b2 07 00
        E 12 b2 07 00
        E 12 b2 07 00
        E 12 b2 07 00
        E 12 b2 07 00
        E 12 b2 07 00
        E 12 b2 07 00
        E 12 b2 07 01
        E 12 b2 07 01
        E 12 b2 07 01
        E 12 b2 07 01
        E 12 b2 07 02
        E 12 b2 07 02
        E 12 b2 07 02
        E 12 b2 07 03
        E 12 b2 07 03
        E 12 b2 07 04
        E 12 b2 07 04
        E 12 b2 07 05
        E 12 b2 07 05
        E 12 b2 07 06
        E 12 b2 07 06
        E 12 b2 07 07
        E 12 b2 07 07
        E 12 b2 07 08
        E 12 b2 07 09
        E 12 b2 07 09
        E 12 b2 07 0a
        E 12 b2 07 0a
        E 12 b2 07 0b
        E 12 b2 07 0c
        E 12 b2 07 0c
        E 4 b2 07 06
        E 4 b2 07 06
        E 4 b2 07 07
        E 4 b2 07 07
        E 4 b2 07 07
        E 4 b2 07 07
        E 4 b2 07 08
        E 4 b2 07 08
        E 4 b2 07 08
        E 4 b2 07 09
        E 4 b2 07 09
        E 4 b2 07 09
        E 4 b2 07 09
        E 4 b2 07 0a
        E 4 b2 07 0a
        E 4 b2 07 0a
        E 4 b2 07 0a
        E 4 b2 07 0b
        E 4 b2 07 0b
        E 4 b2 07 0b
        E 4 b2 07 0b
        E 4 b2 07 0b
        E 4 b2 07 0c
        E 4 b2 07 0c
        E 4 b2 07 0c
        E 4 b2 07 0c
        E 4 b2 07 0c
        E 4 b2 07 0c
        E 4 b2 07 0c
        E 4 b2 07 0c
        E 4 b2 07 0c
        E 4 b2 07 0c
        E 4 b2 07 0c
        E 4 b2 07 0c
        E 4 b2 07 0c
        E 4 b2 07 0c
        E 4 b2 07 0c
        E 4 b2 07 0c
        E 4 b2 07 0c
        E 4 b2 07 0c
        E 4 b2 07 0c
        E 4 b2 07 0c
        E 4 b2 07 0b
        E 4 b2 07 0b
        E 4 b2 07 0b
        E 4 b2 07 0b
        E 4 b2 07 0b
        E 4 b2 07 0b
        E 4 b2 07 0a
        E 4 b2 07 0a
        E 4 b2 07 0a
        E 4 b2 07 0a
        E 4 b2 07 09
        E 4 b2 07 09
        E 4 b2 07 09
        E 4 b2 07 08
        E 4 b2 07 08
        E 4 b2 07 08
        E 4 b2 07 08
        E 4 b2 07 07
        E 4 b2 07 07
        E 4 b2 07 07
        E 4 b2 07 06
        E 4 b2 07 06
        E 4 b2 07 06
        E 4 b2 07 05
        E 4 b2 07 05
        E 4 b2 07 05
        E 4 b2 07 04
        E 4 b2 07 04
        E 4 b2 07 04
        E 4 b2 07 04
        E 4 b2 07 03
        E 4 b2 07 03
        E 4 b2 07 03
        E 4 b2 07 02
        E 4 b2 07 02
        E 4 b2 07 02
        E 4 b2 07 02
        E 4 b2 07 01
        E 4 b2 07 01
        E 4 b2 07 01
        E 4 b2 07 01
        E 4 b2 07 01
        E 4 b2 07 01
        E 4 b2 07 00
        E 4 b2 07 00
        E 4 b2 07 00
        E 4 b2 07 00
        E 4 b2 07 00
        E 4 b2 07 00
        E 4 b2 07 00
        E 4 b2 07 00
        E 4 b2 07 00
        E 4 b2 07 00
        E 4 b2 07 00
        E 4 b2 07 00
        E 4 b2 07 00
        E 4 b2 07 00
        E 4 b2 07 00
        E 4 b2 07 00
        E 4 b2 07 00
        E 4 b2 07 00
        E 4 b2 07 00
        E 4 b2 07 00
        E 4 b2 07 00
        E 4 b2 07 00
        E 4 b2 07 01
        E 4 b2 07 01
        E 4 b2 07 01
        E 4 b2 07 01
        E 4 b2 07 01
        E 4 b2 07 02
        E 4 b2 07 02
        E 4 b2 07 02
        E 4 b2 07 02
        E 4 b2 07 03
        E 4 b2 07 03
        E 4 b2 07 03
        E 4 b2 07 03
        E 4 b2 07 04
        E 4 b2 07 04
        E 4 b2 07 04
        E 4 b2 07 05
        E 4 b2 07 05
        E 4 b2 07 05
        E 4 b2 07 06
        E 4 b2 07 06
        E 14 b2 07 20
        E 14 b2 07 21
        E 14 b2 07 23
        E 14 b2 07 24
        E 14 b2 07 26
        E 14 b2 07 27
        E 14 b2 07 29
        E 14 b2 07 2a
        E 14 b2 07 2c
        E 14 b2 07 2d
        E 14 b2 07 2f
        E 14 b2 07 30
        E 14 b2 07 31
        E 14 b2 07 33
        E 14 b2 07 34
        E 14 b2 07 35
        E 14 b2 07 36
        E 14 b2 07 37
        E 14 b2 07 38
        E 14 b2 07 39
        E 14 b2 07 3a
        E 14 b2 07 3b
        E 14 b2 07 3c
        E 14 b2 07 3c
        E 14 b2 07 3d
        E 14 b2 07 3d
        E 14 b2 07 3e
        E 14 b2 07 3e
        E 14 b2 07 3f
        E 14 b2 07 3f
        E 14 b2 07 3f
        E 14 b2 07 3f
        E 14 b2 07 3f
        E 14 b2 07 3f
        E 14 b2 07 3f
        E 14 b2 07 3f
        E 14 b2 07 3f
        E 14 b2 07 3e
        E 14 b2 07 3e
        E 14 b2 07 3d
        E 14 b2 07 3d
        E 14 b2 07 3c
        E 14 b2 07 3b
        E 14 b2 07 3a
        E 14 b2 07 3a
        E 14 b2 07 39
        E 14 b2 07 38
        E 14 b2 07 37
        E 14 b2 07 36
        E 14 b2 07 34
        E 14 b2 07 33
        E 14 b2 07 32
        E 14 b2 07 31
        E 14 b2 07 2f
        E 14 b2 07 2e
        E 14 b2 07 2c
        E 14 b2 07 2b
        E 14 b2 07 2a
        E 14 b2 07 28
        E 14 b2 07 27
        E 14 b2 07 25
        E 14 b2 07 23
        E 14 b2 07 22
        E 14 b2 07 20
        E 14 b2 07 1f
        E 14 b2 07 1d
        E 14 b2 07 1c
        E 14 b2 07 1a
        E 14 b2 07 18
        E 14 b2 07 17
        E 14 b2 07 15
        E 14 b2 07 14
        E 14 b2 07 13
        E 14 b2 07 11
        E 14 b2 07 10
        E 14 b2 07 0e
        E 14 b2 07 0d
        E 14 b2 07 0c
        E 14 b2 07 0b
        E 14 b2 07 09
        E 14 b2 07 08
        E 14 b2 07 07
        E 14 b2 07 06
        E 14 b2 07 05
        E 14 b2 07 05
        E 14 b2 07 04
        E 14 b2 07 03
        E 14 b2 07 02
        E 14 b2 07 02
        E 14 b2 07 01
        E 14 b2 07 01
        E 14 b2 07 00
        E 14 b2 07 00
        E 14 b2 07 00
        E 14 b2 07 00
        E 14 b2 07 00
        E 14 b2 07 00
        E 14 b2 07 00
        E 14 b2 07 00
        E 14 b2 07 00
        E 14 b2 07 01
        E 14 b2 07 01
        E 14 b2 07 02
        E 14 b2 07 02
        E 14 b2 07 03
        E 14 b2 07 03
        E 14 b2 07 04
        E 14 b2 07 05
        E 14 b2 07 06
        E 14 b2 07 07
        E 14 b2 07 08
        E 14 b2 07 09
        E 14 b2 07 0a
        E 14 b2 07 0b
        E 14 b2 07 0c
        E 14 b2 07 0e
        E 14 b2 07 0f
        E 14 b2 07 10
        E 14 b2 07 12
        E 14 b2 07 13
        E 14 b2 07 15
        E 14 b2 07 16
        E 14 b2 07 18
        E 14 b2 07 19
        E 14 b2 07 1b
        E 14 b2 07 1c
        E 14 b2 07 1e
        E 14 b2 07 20
        E 8 b2 07 19
        E 8 b2 07 1a
        E 8 b2 07 1c
        E 8 b2 07 1d
        E 8 b2 07 1e
        E 8 b2 07 1f
        E 8 b2 07 20
        E 8 b2 07 22
        E 8 b2 07 23
        E 8 b2 07 24
        E 8 b2 07 25
        E 8 b2 07 26
        E 8 b2 07 27
        E 8 b2 07 28
        E 8 b2 07 29
        E 8 b2 07 2a
        E 8 b2 07 2b
        E 8 b2 07 2c
        E 8 b2 07 2d
        E 8 b2 07 2e
        E 8 b2 07 2e
        E 8 b2 07 2f
        E 8 b2 07 30
        E 8 b2 07 30
        E 8 b2 07 30
        E 8 b2 07 31
        E 8 b2 07 31
        E 8 b2 07 32
        E 8 b2 07 32
        E 8 b2 07 32
        E 8 b2 07 32
        E 8 b2 07 32
        E 8 b2 07 32
        E 8 b2 07 32
        E 8 b2 07 32
        E 8 b2 07 32
        E 8 b2 07 32
        E 8 b2 07 32
        E 8 b2 07 31
        E 8 b2 07 31
        E 8 b2 07 30
        E 8 b2 07 30
        E 8 b2 07 2f
        E 8 b2 07 2e
        E 8 b2 07 2e
        E 8 b2 07 2d
        E 8 b2 07 2c
        E 8 b2 07 2c
        E 8 b2 07 2b
        E 8 b2 07 2a
        E 8 b2 07 29
        E 8 b2 07 28
        E 8 b2 07 27
        E 8 b2 07 26
        E 8 b2 07 24
        E 8 b2 07 23
        E 8 b2 07 22
        E 8 b2 07 21
        E 8 b2 07 20
        E 8 b2 07 1f
        E 8 b2 07 1d
        E 8 b2 07 1c
        E 8 b2 07 1b
        E 8 b2 07 1a
        E 8 b2 07 18
        E 8 b2 07 17
        E 8 b2 07 16
        E 8 b2 07 15
        E 8 b2 07 13
        E 8 b2 07 12
        E 8 b2 07 11
        E 8 b2 07 10
        E 8 b2 07 0f
        E 8 b2 07 0e
        E 8 b2 07 0c
        E 8 b2 07 0b
        E 8 b2 07 0a
        E 8 b2 07 09
        E 8 b2 07 08
        E 8 b2 07 07
        E 8 b2 07 06
        E 8 b2 07 06
        E 8 b2 07 05
        E 8 b2 07 04
        E 8 b2 07 04
        E 8 b2 07 03
        E 8 b2 07 02
        E 8 b2 07 02
        E 8 b2 07 01
        E 8 b2 07 01
        E 8 b2 07 00
        E 8 b2 07 00
        E 8 b2 07 00
        E 8 b2 07 00
        E 8 b2 07 00
        E 8 b2 07 00
        E 8 b2 07 00
        E 8 b2 07 00
        E 8 b2 07 00
        E 8 b2 07 00
        E 8 b2 07 00
        E 8 b2 07 01
        E 8 b2 07 01
        E 8 b2 07 02
        E 8 b2 07 02
        E 8 b2 07 02
        E 8 b2 07 03
        E 8 b2 07 04
        E 8 b2 07 04
        E 8 b2 07 05
        E 8 b2 07 06
        E 8 b2 07 07
        E 8 b2 07 08
        E 8 b2 07 09
        E 8 b2 07 0a
        E 8 b2 07 0b
        E 8 b2 07 0c
        E 8 b2 07 0d
        E 8 b2 07 0e
        E 8 b2 07 0f
        E 8 b2 07 10
        E 8 b2 07 12
        E 8 b2 07 13
        E 8 b2 07 14
        E 8 b2 07 15
        E 8 b2 07 16
        E 8 b2 07 18
        E 8 b2 07 19
        E 21 b2 07 06
        E 21 b2 07 06
        E 21 b2 07 07
        E 21 b2 07 07
        E 21 b2 07 07
        E 21 b2 07 07
        E 21 b2 07 08
        E 21 b2 07 08
        E 21 b2 07 08
        E 21 b2 07 09
        E 21 b2 07 09
        E 21 b2 07 09
        E 21 b2 07 09
        E 21 b2 07 0a
        E 21 b2 07 0a
        E 21 b2 07 0a
        E 21 b2 07 0a
        E 21 b2 07 0b
        E 21 b2 07 0b
        E 21 b2 07 0b
        E 21 b2 07 0b
        E 21 b2 07 0b
        E 21 b2 07 0c
        E 21 b2 07 0c
        E 21 b2 07 0c
        E 21 b2 07 0c
        E 21 b2 07 0c
        E 21 b2 07 0c
        E 21 b2 07 0c
        E 21 b2 07 0c
        E 21 b2 07 0c
        E 21 b2 07 0c
        E 21 b2 07 0c
        E 21 b2 07 0c
        E 21 b2 07 0c
        E 21 b2 07 0c
        E 21 b2 07 0c
        E 21 b2 07 0c
        E 21 b2 07 0c
        E 21 b2 07 0c
        E 21 b2 07 0c
        E 21 b2 07 0c
        E 21 b2 07 0b
        E 21 b2 07 0b
        E 21 b2 07 0b
        E 21 b2 07 0b
        E 21 b2 07 0b
        E 21 b2 07 0b
        E 21 b2 07 0a
        E 21 b2 07 0a
        E 21 b2 07 0a
        E 21 b2 07 0a
        E 21 b2 07 09
        E 21 b2 07 09
        E 21 b2 07 09
        E 21 b2 07 08
        E 21 b2 07 08
        E 21 b2 07 08
        E 21 b2 07 08
        E 21 b2 07 07
        E 21 b2 07 07
        E 21 b2 07 07
        E 21 b2 07 06
        E 21 b2 07 06
        E 21 b2 07 06
        E 21 b2 07 05
        E 21 b2 07 05
        E 21 b2 07 05
        E 21 b2 07 04
        E 21 b2 07 04
        E 21 b2 07 04
        E 21 b2 07 04
        E 21 b2 07 03
        E 21 b2 07 03
        E 21 b2 07 03
        E 21 b2 07 02
        E 21 b2 07 02
        E 21 b2 07 02
        E 21 b2 07 02
        E 21 b2 07 01
        E 21 b2 07 01
        E 21 b2 07 01
        E 21 b2 07 01
        E 21 b2 07 01
        E 21 b2 07 01
        E 21 b2 07 00
        E 21 b2 07 00
        E 21 b2 07 00
        E 21 b2 07 00
        E 21 b2 07 00
        E 21 b2 07 00
        E 21 b2 07 00
        E 21 b2 07 00
        E 21 b2 07 00
        E 21 b2 07 00
        E 21 b2 07 00
        E 21 b2 07 00
        E 21 b2 07 00
        E 21 b2 07 00
        E 21 b2 07 00
        E 21 b2 07 00
        E 21 b2 07 00
        E 21 b2 07 00
        E 21 b2 07 00
        E 21 b2 07 00
        E 21 b2 07 00
        E 21 b2 07 00
        E 21 b2 07 01
        E 21 b2 07 01
        E 21 b2 07 01
        E 21 b2 07 01
        E 21 b2 07 01
        E 21 b2 07 02
        E 21 b2 07 02
        E 21 b2 07 02
        E 21 b2 07 02
        E 21 b2 07 03
        E 21 b2 07 03
        E 21 b2 07 03
        E 21 b2 07 03
        E 21 b2 07 04
        E 21 b2 07 04
        E 21 b2 07 04
        E 21 b2 07 05
        E 21 b2 07 05
        E 21 b2 07 05
        E 21 b2 07 06
        E 21 b2 07 06
        E 18 b2 07 39
        E 18 b2 07 3c
        E 18 b2 07 3f
        E 18 b2 07 41
        E 18 b2 07 44
        E 18 b2 07 47
        E 18 b2 07 49
        E 18 b2 07 4c
        E 18 b2 07 4f
        E 18 b2 07 51
        E 18 b2 07 54
        E 18 b2 07 56
        E 18 b2 07 59
        E 18 b2 07 5b
        E 18 b2 07 5d
        E 18 b2 07 5f
        E 18 b2 07 62
        E 18 b2 07 63
        E 18 b2 07 65
        E 18 b2 07 67
        E 18 b2 07 69
        E 18 b2 07 6a
        E 18 b2 07 6c
        E 18 b2 07 6c
        E 18 b2 07 6d
        E 18 b2 07 6e
        E 18 b2 07 6f
        E 18 b2 07 70
        E 18 b2 07 71
        E 18 b2 07 71
        E 18 b2 07 72
        E 18 b2 07 72
        E 18 b2 07 72
        E 18 b2 07 72
        E 18 b2 07 72
        E 18 b2 07 71
        E 18 b2 07 71
        E 18 b2 07 70
        E 18 b2 07 6f
        E 18 b2 07 6e
        E 18 b2 07 6d
        E 18 b2 07 6c
        E 18 b2 07 6b
        E 18 b2 07 69
        E 18 b2 07 68
        E 18 b2 07 66
        E 18 b2 07 64
        E 18 b2 07 63
        E 18 b2 07 61
        E 18 b2 07 5e
        E 18 b2 07 5c
        E 18 b2 07 5a
        E 18 b2 07 58
        E 18 b2 07 55
        E 18 b2 07 52
        E 18 b2 07 50
        E 18 b2 07 4e
        E 18 b2 07 4b
        E 18 b2 07 48
        E 18 b2 07 46
        E 18 b2 07 42
        E 18 b2 07 3f
        E 18 b2 07 3d
        E 18 b2 07 3a
        E 18 b2 07 37
        E 18 b2 07 35
        E 18 b2 07 32
        E 18 b2 07 2f
        E 18 b2 07 2c
        E 18 b2 07 29
        E 18 b2 07 26
        E 18 b2 07 24
        E 18 b2 07 22
        E 18 b2 07 1f
        E 18 b2 07 1c
        E 18 b2 07 1a
        E 18 b2 07 18
        E 18 b2 07 15
        E 18 b2 07 13
        E 18 b2 07 11
        E 18 b2 07 0f
        E 18 b2 07 0d
        E 18 b2 07 0b
        E 18 b2 07 09
        E 18 b2 07 09
        E 18 b2 07 07
        E 18 b2 07 06
        E 18 b2 07 04
        E 18 b2 07 03
        E 18 b2 07 02
        E 18 b2 07 01
        E 18 b2 07 00
        E 18 b2 07 00
        E 18 b2 07 00
        E 18 b2 07 00
        E 18 b2 07 00
        E 18 b2 07 00
        E 18 b2 07 00
        E 18 b2 07 00
        E 18 b2 07 00
        E 18 b2 07 01
        E 18 b2 07 02
        E 18 b2 07 03
        E 18 b2 07 04
        E 18 b2 07 05
        E 18 b2 07 06
        E 18 b2 07 08
        E 18 b2 07 09
        E 18 b2 07 0a
        E 18 b2 07 0c
        E 18 b2 07 0e
        E 18 b2 07 10
        E 18 b2 07 12
        E 18 b2 07 14
        E 18 b2 07 16
        E 18 b2 07 19
        E 18 b2 07 1b
        E 18 b2 07 1d
        E 18 b2 07 20
        E 18 b2 07 23
        E 18 b2 07 25
        E 18 b2 07 28
        E 18 b2 07 2b
        E 18 b2 07 2d
        E 18 b2 07 30
        E 18 b2 07 33
        E 18 b2 07 36
        E 18 b2 07 39
        E 12 b2 07 0c
        E 12 b2 07 0d
        E 12 b2 07 0e
        E 12 b2 07 0e
        E 12 b2 07 0f
        E 12 b2 07 0f
        E 12 b2 07 10
        E 12 b2 07 11
        E 12 b2 07 11
        E 12 b2 07 12
        E 12 b2 07 12
        E 12 b2 07 13
        E 12 b2 07 13
        E 12 b2 07 14
        E 12 b2 07 14
        E 12 b2 07 15
        E 12 b2 07 15
        E 12 b2 07 16
        E 12 b2 07 16
        E 12 b2 07 17
        E 12 b2 07 17
        E 12 b2 07 17
        E 12 b2 07 18
        E 12 b2 07 18
        E 12 b2 07 18
        E 12 b2 07 18
        E 12 b2 07 18
        E 12 b2 07 19
        E 12 b2 07 19
        E 12 b2 07 19
        E 12 b2 07 19
        E 12 b2 07 19
        E 12 b2 07 19
        E 12 b2 07 19
        E 12 b2 07 19
        E 12 b2 07 19
        E 12 b2 07 19
        E 12 b2 07 19
        E 12 b2 07 18
        E 12 b2 07 18
        E 12 b2 07 18
        E 12 b2 07 18
        E 12 b2 07 17
        E 12 b2 07 17
        E 12 b2 07 17
        E 12 b2 07 16
        E 12 b2 07 16
        E 12 b2 07 16
        E 12 b2 07 15
        E 12 b2 07 15
        E 12 b2 07 14
        E 12 b2 07 14
        E 12 b2 07 13
        E 12 b2 07 13
        E 12 b2 07 12
        E 12 b2 07 11
        E 12 b2 07 11
        E 12 b2 07 10
        E 12 b2 07 10
        E 12 b2 07 0f
        E 12 b2 07 0e
        E 12 b2 07 0e
        E 12 b2 07 0d
        E 12 b2 07 0d
        E 12 b2 07 0c
        E 12 b2 07 0b
        E 12 b2 07 0b
        E 12 b2 07 0a
        E 12 b2 07 09
        E 12 b2 07 09
        E 12 b2 07 08
        E 12 b2 07 08
        E 12 b2 07 07
        E 12 b2 07 07
        E 12 b2 07 06
        E 12 b2 07 05
        E 12 b2 07 05
        E 12 b2 07 04
        E 12 b2 07 04
        E 12 b2 07 03
        E 12 b2 07 03
        E 12 b2 07 03
        E 12 b2 07 02
        E 12 b2 07 02
        E 12 b2 07 02
        E 12 b2 07 01
        E 12 b2 07 01
        E 12 b2 07 01
        E 12 b2 07 00
        E 12 b2 07 00
        E 12 b2 07 00
        E 12 b2 07 00
        E 12 b2 07 00
        E 12 b2 07 00
        E 12 b2 07 00
        E 12 b2 07 00
        E 12 b2 07 00
        E 12 b2 07 00
        E 12 b2 07 00
        E 12 b2 07 00
        E 12 b2 07 00
        E 12 b2 07 00
        E 12 b2 07 00
        E 12 b2 07 01
        E 12 b2 07 01
        E 12 b2 07 01
        E 12 b2 07 01
        E 12 b2 07 02
        E 12 b2 07 02
        E 12 b2 07 02
        E 12 b2 07 03
        E 12 b2 07 03
        E 12 b2 07 04
        E 12 b2 07 04
        E 12 b2 07 05
        E 12 b2 07 05
        E 12 b2 07 06
        E 12 b2 07 06
        E 12 b2 07 07
        E 12 b2 07 07
        E 12 b2 07 08
        E 12 b2 07 09
        E 12 b2 07 09
        E 12 b2 07 0a
        E 12 b2 07 0a
        E 12 b2 07 0b
        E 12 b2 07 0c
        E 12 b2 07 0c
        E 4 b2 07 06
        E 4 b2 07 06
        E 4 b2 07 07
        E 4 b2 07 07
        E 4 b2 07 07
        E 4 b2 07 07
        E 4 b2 07 08
        E 4 b2 07 08
        E 4 b2 07 08
        E 4 b2 07 09
        E 4 b2 07 09
        E 4 b2 07 09
        E 4 b2 07 09
        E 4 b2 07 0a
        E 4 b2 07 0a
        E 4 b2 07 0a
        E 4 b2 07 0a
        E 4 b2 07 0b
        E 4 b2 07 0b
        E 4 b2 07 0b
        E 4 b2 07 0b
        E 4 b2 07 0b
        E 4 b2 07 0c
        E 4 b2 07 0c
        E 4 b2 07 0c
        E 4 b2 07 0c
        E 4 b2 07 0c
        E 4 b2 07 0c
        E 4 b2 07 0c
        E 4 b2 07 0c
        E 4 b2 07 0c
        E 4 b2 07 0c
        E 4 b2 07 0c
        E 4 b2 07 0c
        E 4 b2 07 0c
        E 4 b2 07 0c
        E 4 b2 07 0c
        E 4 b2 07 0c
        E 4 b2 07 0c
        E 4 b2 07 0c
        E 4 b2 07 0c
        E 4 b2 07 0c
        E 4 b2 07 0b
        E 4 b2 07 0b
        E 4 b2 07 0b
        E 4 b2 07 0b
        E 4 b2 07 0b
        E 4 b2 07 0b
        E 4 b2 07 0a
        E 4 b2 07 0a
        E 4 b2 07 0a
        E 4 b2 07 0a
        E 4 b2 07 09
        E 4 b2 07 09
        E 4 b2 07 09
        E 4 b2 07 08
        E 4 b2 07 08
        E 4 b2 07 08
        E 4 b2 07 08
        E 4 b2 07 07
        E 4 b2 07 07
        E 4 b2 07 07
        E 4 b2 07 06
        E 4 b2 07 06
        E 4 b2 07 06
        E 4 b2 07 05
        E 4 b2 07 05
        E 4 b2 07 05
        E 4 b2 07 04
        E 4 b2 07 04
        E 4 b2 07 04
        E 4 b2 07 04
        E 4 b2 07 03
        E 4 b2 07 03
        E 4 b2 07 03
        E 4 b2 07 02
        E 4 b2 07 02
        E 4 b2 07 02
        E 4 b2 07 02
        E 4 b2 07 01
        E 4 b2 07 01
        E 4 b2 07 01
        E 4 b2 07 01
        E 4 b2 07 01
        E 4 b2 07 01
        E 4 b2 07 00
        E 4 b2 07 00
        E 4 b2 07 00
        E 4 b2 07 00
        E 4 b2 07 00
        E 4 b2 07 00
        E 4 b2 07 00
        E 4 b2 07 00
        E 4 b2 07 00
        E 4 b2 07 00
        E 4 b2 07 00
        E 4 b2 07 00
        E 4 b2 07 00
        E 4 b2 07 00
        E 4 b2 07 00
        E 4 b2 07 00
        E 4 b2 07 00
        E 4 b2 07 00
        E 4 b2 07 00
        E 4 b2 07 00
        E 4 b2 07 00
        E 4 b2 07 00
        E 4 b2 07 01
        E 4 b2 07 01
        E 4 b2 07 01
        E 4 b2 07 01
        E 4 b2 07 01
        E 4 b2 07 02
        E 4 b2 07 02
        E 4 b2 07 02
        E 4 b2 07 02
        E 4 b2 07 03
        E 4 b2 07 03
        E 4 b2 07 03
        E 4 b2 07 03
        E 4 b2 07 04
        E 4 b2 07 04
        E 4 b2 07 04
        E 4 b2 07 05
        E 4 b2 07 05
        E 4 b2 07 05
        E 4 b2 07 06
        E 4 b2 07 06
        E 100 b0 7b 00
        CCINTERP 32
        CHASE_CC_TAKEOFFS 1
        GUID {6AE190D5-C353-3E46-9E7F-03149B1D8610}
        IGNTEMPO 0 120 4 4
        SRCCOLOR 412
        VELLANE 3 601 0
        VELLANE -1 196 0
      >
    >
  >
  <TRACK {1C3994DF-E009-F14E-8F31-4B211CD60708}
    NAME "xbox 360 portal 2 video game disc"
    PEAKCOL 16576
    BEAT -1
    AUTOMODE 0
    VOLPAN 1 0 -1 -1 1
    MUTESOLO 0 0 0
    IPHASE 0
    PLAYOFFS 0 1
    ISBUS 0 0
    BUSCOMP 0 0 0 0 0
    SHOWINMIX 1 0.6667 0.5 1 0.5 0 -1 0
    FREEMODE 0
    SEL 0
    REC 0 0 1 0 0 0 0
    VU 2
    TRACKHEIGHT 0 1 0 0 -1 0
    INQ 0 0 0 0.5 100 0 0 100
    NCHAN 2
    FX 1
    TRACKID {1C3994DF-E009-F14E-8F31-4B211CD60708}
    PERF 0
    MIDIOUT -1
    MAINSEND 1 0
    <ITEM
      POSITION 0
      SNAPOFFS 0
      LENGTH 612.499755
      LOOP 1
      ALLTAKES 0
      FADEIN 1 0 0 1 0 0
      FADEOUT 1 0 0 1 0 0
      MUTE 0 0
      SEL 0
      IGUID {7E08780B-F284-0E41-864C-EB9AE7C7BEE3}
      IID 16
      NAME "xbox 360 portal 2 video game disc.mid"
      VOLPAN 1 0 1 -1
      SOFFS 0 0
      PLAYRATE 1 1 0 -1 0 0.0025
      CHANMODE 0
      GUID {B570F507-699C-9947-8004-D22380C16026}
      <SOURCE MIDI
        HASDATA 1 128 QN
        CCINTERP 32
        POOLEDEVTS {4AA95341-E881-1047-9531-680A62DB788F}
        E 3 b3 04 19
        E 3 b3 04 56
        E 3 b3 04 38
        E 3 b3 04 09
        E 3 b3 04 51
        E 3 b3 04 48
        E 3 b3 04 0a
        E 3 b3 04 09
        E 3 b3 04 36
        E 3 b3 04 6c
        E 3 b3 04 5a
        E 3 b3 04 63
        E 3 b3 04 47
        E 3 b3 04 0c
        E 3 b3 04 15
        E 3 b3 04 4d
        E 3 b3 04 3f
        E 3 b3 04 20
        E 3 b3 04 16
        E 3 b3 04 1e
        E 3 b3 04 59
        E 3 b3 04 35
        E 3 b3 04 1b
        E 3 b3 04 41
        E 3 b3 04 71
        E 3 b3 04 00
        E 3 b3 04 0e
        E 3 b3 04 2e
        E 3 b3 04 26
        E 3 b3 04 5d
        E 3 b3 04 18
        E 3 b3 04 07
        E 3 b3 04 12
        E 3 b3 04 13
        E 3 b3 04 67
        E 3 b3 04 1c
        E 3 b3 04 00
        E 3 b3 04 54
        E 3 b3 04 27
        E 3 b3 04 17
        E 3 b3 04 2d
        E 3 b3 04 1d
        E 3 b3 04 61
        E 3 b3 04 60
        E 3 b3 04 72
        E 3 b3 04 5f
        E 3 b3 04 31
        E 3 b3 04 6a
        E 3 b3 04 51
        E 3 b3 04 0d
        E 3 b3 04 32
        E 3 b3 04 3d
        E 3 b3 04 6c
        E 3 b3 04 57
        E 3 b3 04 3e
        E 3 b3 04 3f
        E 3 b3 04 05
        E 3 b3 04 0b
        E 3 b3 04 69
        E 3 b3 04 5b
        E 3 b3 04 30
        E 3 b3 04 24
        E 3 b3 04 0f
        E 3 b3 04 33
        E 3 b3 04 22
        E 3 b3 04 1b
        E 3 b3 04 2b
        E 3 b3 04 3b
        E 3 b3 04 45
        E 3 b3 04 49
        E 3 b3 04 12
        E 3 b3 04 44
        E 3 b3 04 65
        E 3 b3 04 3a
        E 3 b3 04 42
        E 3 b3 04 02
        E 3 b3 04 08
        E 3 b3 04 70
        E 3 b3 04 4a
        E 3 b3 04 14
        E 3 b3 04 68
        E 3 b3 04 24
        E 3 b3 04 2c
        E 3 b3 04 37
        E 3 b3 04 2d
        E 3 b3 04 4c
        E 3 b3 04 5c
        E 3 b3 04 21
        E 3 b3 04 40
        E 3 b3 04 1a
        E 3 b3 04 66
        E 3 b3 04 5e
        E 3 b3 04 34
        E 3 b3 04 29
        E 3 b3 04 5a
        E 3 b3 04 2a
        E 3 b3 04 50
        E 3 b3 04 10
        E 3 b3 04 01
        E 3 b3 04 25
        E 3 b3 04 39
        E 3 b3 04 62
        E 3 b3 04 58
        E 3 b3 04 03
        E 3 b3 04 63
        E 3 b3 04 53
        E 3 b3 04 06
        E 3 b3 04 23
        E 3 b3 04 43
        E 3 b3 04 55
        E 3 b3 04 6d
        E 3 b3 04 46
        E 3 b3 04 2f
        E 3 b3 04 1f
        E 3 b3 04 4f
        E 3 b3 04 52
        E 3 b3 04 64
        E 3 b3 04 6f
        E 3 b3 04 36
        E 3 b3 04 48
        E 3 b3 04 4e
        E 3 b3 04 3c
        E 3 b3 04 6b
        E 3 b3 04 11
        E 3 b3 04 28
        E 3 b3 04 4b
        E 1 b3 04 10
        E 1 b3 04 39
        E 1 b3 04 25
        E 1 b3 04 06
        E 1 b3 04 36
        E 1 b3 04 30
        E 1 b3 04 07
        E 1 b3 04 06
        E 1 b3 04 24
        E 1 b3 04 48
        E 1 b3 04 3c
        E 1 b3 04 42
        E 1 b3 04 2f
        E 1 b3 04 08
        E 1 b3 04 0e
        E 1 b3 04 33
        E 1 b3 04 2a
        E 1 b3 04 15
        E 1 b3 04 0f
        E 1 b3 04 14
        E 1 b3 04 3b
        E 1 b3 04 23
        E 1 b3 04 12
        E 1 b3 04 2b
        E 1 b3 04 4b
        E 1 b3 04 00
        E 1 b3 04 09
        E 1 b3 04 1f
        E 1 b3 04 19
        E 1 b3 04 3e
        E 1 b3 04 10
        E 1 b3 04 04
        E 1 b3 04 0c
        E 1 b3 04 0d
        E 1 b3 04 45
        E 1 b3 04 13
        E 1 b3 04 00
        E 1 b3 04 38
        E 1 b3 04 1a
        E 1 b3 04 0f
        E 1 b3 04 1e
        E 1 b3 04 13
        E 1 b3 04 40
        E 1 b3 04 40
        E 1 b3 04 4c
        E 1 b3 04 3f
        E 1 b3 04 21
        E 1 b3 04 46
        E 1 b3 04 36
        E 1 b3 04 09
        E 1 b3 04 21
        E 1 b3 04 28
        E 1 b3 04 48
        E 1 b3 04 3a
        E 1 b3 04 29
        E 1 b3 04 2a
        E 1 b3 04 03
        E 1 b3 04 07
        E 1 b3 04 46
        E 1 b3 04 3d
        E 1 b3 04 20
        E 1 b3 04 18
        E 1 b3 04 0a
        E 1 b3 04 22
        E 1 b3 04 16
        E 1 b3 04 12
        E 1 b3 04 1c
        E 1 b3 04 27
        E 1 b3 04 2e
        E 1 b3 04 31
        E 1 b3 04 0c
        E 1 b3 04 2d
        E 1 b3 04 43
        E 1 b3 04 27
        E 1 b3 04 2c
        E 1 b3 04 01
        E 1 b3 04 05
        E 1 b3 04 4b
        E 1 b3 04 31
        E 1 b3 04 0d
        E 1 b3 04 45
        E 1 b3 04 18
        E 1 b3 04 1d
        E 1 b3 04 25
        E 1 b3 04 1e
        E 1 b3 04 33
        E 1 b3 04 3d
        E 1 b3 04 16
        E 1 b3 04 2b
        E 1 b3 04 11
        E 1 b3 04 44
        E 1 b3 04 3f
        E 1 b3 04 22
        E 1 b3 04 1b
        E 1 b3 04 3c
        E 1 b3 04 1c
        E 1 b3 04 35
        E 1 b3 04 0a
        E 1 b3 04 01
        E 1 b3 04 19
        E 1 b3 04 26
        E 1 b3 04 41
        E 1 b3 04 3a
        E 1 b3 04 02
        E 1 b3 04 42
        E 1 b3 04 37
        E 1 b3 04 04
        E 1 b3 04 17
        E 1 b3 04 2d
        E 1 b3 04 39
        E 1 b3 04 49
        E 1 b3 04 2e
        E 1 b3 04 1f
        E 1 b3 04 15
        E 1 b3 04 34
        E 1 b3 04 37
        E 1 b3 04 43
        E 1 b3 04 4a
        E 1 b3 04 24
        E 1 b3 04 30
        E 1 b3 04 34
        E 1 b3 04 28
        E 1 b3 04 47
        E 1 b3 04 0b
        E 1 b3 04 1b
        E 1 b3 04 32
        E 8 b3 04 05
        E 8 b3 04 13
        E 8 b3 04 0c
        E 8 b3 04 02
        E 8 b3 04 12
        E 8 b3 04 10
        E 8 b3 04 02
        E 8 b3 04 02
        E 8 b3 04 0c
        E 8 b3 04 18
        E 8 b3 04 14
        E 8 b3 04 16
        E 8 b3 04 0f
        E 8 b3 04 02
        E 8 b3 04 04
        E 8 b3 04 11
        E 8 b3 04 0e
        E 8 b3 04 07
        E 8 b3 04 05
        E 8 b3 04 06
        E 8 b3 04 13
        E 8 b3 04 0b
        E 8 b3 04 06
        E 8 b3 04 0e
        E 8 b3 04 19
        E 8 b3 04 00
        E 8 b3 04 03
        E 8 b3 04 0a
        E 8 b3 04 08
        E 8 b3 04 14
        E 8 b3 04 05
        E 8 b3 04 01
        E 8 b3 04 04
        E 8 b3 04 04
        E 8 b3 04 17
        E 8 b3 04 06
        E 8 b3 04 00
        E 8 b3 04 12
        E 8 b3 04 08
        E 8 b3 04 05
        E 8 b3 04 0a
        E 8 b3 04 06
        E 8 b3 04 15
        E 8 b3 04 15
        E 8 b3 04 19
        E 8 b3 04 15
        E 8 b3 04 0b
        E 8 b3 04 17
        E 8 b3 04 12
        E 8 b3 04 03
        E 8 b3 04 0b
        E 8 b3 04 0d
        E 8 b3 04 18
        E 8 b3 04 13
        E 8 b3 04 0d
        E 8 b3 04 0e
        E 8 b3 04 01
        E 8 b3 04 02
        E 8 b3 04 17
        E 8 b3 04 14
        E 8 b3 04 0a
        E 8 b3 04 08
        E 8 b3 04 03
        E 8 b3 04 0b
        E 8 b3 04 07
        E 8 b3 04 06
        E 8 b3 04 09
        E 8 b3 04 0d
        E 8 b3 04 0f
        E 8 b3 04 10
        E 8 b3 04 04
        E 8 b3 04 0f
        E 8 b3 04 16
        E 8 b3 04 0d
        E 8 b3 04 0e
        E 8 b3 04 00
        E 8 b3 04 01
        E 8 b3 04 19
        E 8 b3 04 10
        E 8 b3 04 04
        E 8 b3 04 17
        E 8 b3 04 08
        E 8 b3 04 09
        E 8 b3 04 0c
        E 8 b3 04 0a
        E 8 b3 04 11
        E 8 b3 04 14
        E 8 b3 04 07
        E 8 b3 04 0e
        E 8 b3 04 05
        E 8 b3 04 16
        E 8 b3 04 15
        E 8 b3 04 0b
        E 8 b3 04 09
        E 8 b3 04 14
        E 8 b3 04 09
        E 8 b3 04 11
        E 8 b3 04 03
        E 8 b3 04 00
        E 8 b3 04 08
        E 8 b3 04 0c
        E 8 b3 04 15
        E 8 b3 04 13
        E 8 b3 04 00
        E 8 b3 04 16
        E 8 b3 04 12
        E 8 b3 04 01
        E 8 b3 04 07
        E 8 b3 04 0f
        E 8 b3 04 13
        E 8 b3 04 18
        E 8 b3 04 0f
        E 8 b3 04 0a
        E 8 b3 04 07
        E 8 b3 04 11
        E 8 b3 04 12
        E 8 b3 04 16
        E 8 b3 04 18
        E 8 b3 04 0c
        E 8 b3 04 10
        E 8 b3 04 11
        E 8 b3 04 0d
        E 8 b3 04 17
        E 8 b3 04 03
        E 8 b3 04 09
        E 8 b3 04 10
        E 6 b3 04 13
        E 6 b3 04 43
        E 6 b3 04 2c
        E 6 b3 04 07
        E 6 b3 04 3e
        E 6 b3 04 38
        E 6 b3 04 08
        E 6 b3 04 07
        E 6 b3 04 2a
        E 6 b3 04 54
        E 6 b3 04 46
        E 6 b3 04 4d
        E 6 b3 04 37
        E 6 b3 04 09
        E 6 b3 04 10
        E 6 b3 04 3c
        E 6 b3 04 31
        E 6 b3 04 19
        E 6 b3 04 11
        E 6 b3 04 17
        E 6 b3 04 45
        E 6 b3 04 29
        E 6 b3 04 15
        E 6 b3 04 33
        E 6 b3 04 58
        E 6 b3 04 00
        E 6 b3 04 0b
        E 6 b3 04 24
        E 6 b3 04 1e
        E 6 b3 04 48
        E 6 b3 04 12
        E 6 b3 04 05
        E 6 b3 04 0e
        E 6 b3 04 0f
        E 6 b3 04 50
        E 6 b3 04 16
        E 6 b3 04 00
        E 6 b3 04 41
        E 6 b3 04 1e
        E 6 b3 04 12
        E 6 b3 04 23
        E 6 b3 04 17
        E 6 b3 04 4b
        E 6 b3 04 4a
        E 6 b3 04 58
        E 6 b3 04 4a
        E 6 b3 04 26
        E 6 b3 04 52
        E 6 b3 04 3f
        E 6 b3 04 0a
        E 6 b3 04 27
        E 6 b3 04 2f
        E 6 b3 04 54
        E 6 b3 04 43
        E 6 b3 04 30
        E 6 b3 04 31
        E 6 b3 04 04
        E 6 b3 04 09
        E 6 b3 04 51
        E 6 b3 04 47
        E 6 b3 04 25
        E 6 b3 04 1c
        E 6 b3 04 0b
        E 6 b3 04 27
        E 6 b3 04 1a
        E 6 b3 04 15
        E 6 b3 04 21
        E 6 b3 04 2e
        E 6 b3 04 35
        E 6 b3 04 39
        E 6 b3 04 0e
        E 6 b3 04 35
        E 6 b3 04 4f
        E 6 b3 04 2d
        E 6 b3 04 33
        E 6 b3 04 02
        E 6 b3 04 06
        E 6 b3 04 57
        E 6 b3 04 3a
        E 6 b3 04 10
        E 6 b3 04 51
        E 6 b3 04 1c
        E 6 b3 04 22
        E 6 b3 04 2b
        E 6 b3 04 23
        E 6 b3 04 3b
        E 6 b3 04 48
        E 6 b3 04 19
        E 6 b3 04 32
        E 6 b3 04 14
        E 6 b3 04 4f
        E 6 b3 04 49
        E 6 b3 04 28
        E 6 b3 04 20
        E 6 b3 04 46
        E 6 b3 04 20
        E 6 b3 04 3e
        E 6 b3 04 0c
        E 6 b3 04 01
        E 6 b3 04 1d
        E 6 b3 04 2c
        E 6 b3 04 4c
        E 6 b3 04 44
        E 6 b3 04 02
        E 6 b3 04 4d
        E 6 b3 04 41
        E 6 b3 04 04
        E 6 b3 04 1b
        E 6 b3 04 34
        E 6 b3 04 42
        E 6 b3 04 55
        E 6 b3 04 36
        E 6 b3 04 25
        E 6 b3 04 18
        E 6 b3 04 3d
        E 6 b3 04 40
        E 6 b3 04 4e
        E 6 b3 04 56
        E 6 b3 04 2a
        E 6 b3 04 38
        E 6 b3 04 3c
        E 6 b3 04 2e
        E 6 b3 04 53
        E 6 b3 04 0d
        E 6 b3 04 1f
        E 6 b3 04 3a
        E 1 b3 04 0b
        E 1 b3 04 26
        E 1 b3 04 19
        E 1 b3 04 04
        E 1 b3 04 24
        E 1 b3 04 20
        E 1 b3 04 04
        E 1 b3 04 04
        E 1 b3 04 18
        E 1 b3 04 30
        E 1 b3 04 28
        E 1 b3 04 2c
        E 1 b3 04 1f
        E 1 b3 04 05
        E 1 b3 04 09
        E 1 b3 04 22
        E 1 b3 04 1c
        E 1 b3 04 0e
        E 1 b3 04 0a
        E 1 b3 04 0d
        E 1 b3 04 27
        E 1 b3 04 17
        E 1 b3 04 0c
        E 1 b3 04 1d
        E 1 b3 04 32
        E 1 b3 04 00
        E 1 b3 04 06
        E 1 b3 04 14
        E 1 b3 04 11
        E 1 b3 04 29
        E 1 b3 04 0a
        E 1 b3 04 03
        E 1 b3 04 08
        E 1 b3 04 08
        E 1 b3 04 2e
        E 1 b3 04 0c
        E 1 b3 04 00
        E 1 b3 04 25
        E 1 b3 04 11
        E 1 b3 04 0a
        E 1 b3 04 14
        E 1 b3 04 0d
        E 1 b3 04 2b
        E 1 b3 04 2a
        E 1 b3 04 32
        E 1 b3 04 2a
        E 1 b3 04 16
        E 1 b3 04 2f
        E 1 b3 04 24
        E 1 b3 04 06
        E 1 b3 04 16
        E 1 b3 04 1b
        E 1 b3 04 30
        E 1 b3 04 26
        E 1 b3 04 1b
        E 1 b3 04 1c
        E 1 b3 04 02
        E 1 b3 04 05
        E 1 b3 04 2e
        E 1 b3 04 28
        E 1 b3 04 15
        E 1 b3 04 10
        E 1 b3 04 06
        E 1 b3 04 16
        E 1 b3 04 0f
        E 1 b3 04 0c
        E 1 b3 04 13
        E 1 b3 04 1a
        E 1 b3 04 1e
        E 1 b3 04 20
        E 1 b3 04 08
        E 1 b3 04 1e
        E 1 b3 04 2d
        E 1 b3 04 1a
        E 1 b3 04 1d
        E 1 b3 04 01
        E 1 b3 04 03
        E 1 b3 04 32
        E 1 b3 04 21
        E 1 b3 04 09
        E 1 b3 04 2e
        E 1 b3 04 10
        E 1 b3 04 13
        E 1 b3 04 18
        E 1 b3 04 14
        E 1 b3 04 22
        E 1 b3 04 29
        E 1 b3 04 0e
        E 1 b3 04 1c
        E 1 b3 04 0b
        E 1 b3 04 2d
        E 1 b3 04 2a
        E 1 b3 04 17
        E 1 b3 04 12
        E 1 b3 04 28
        E 1 b3 04 12
        E 1 b3 04 23
        E 1 b3 04 07
        E 1 b3 04 00
        E 1 b3 04 10
        E 1 b3 04 19
        E 1 b3 04 2b
        E 1 b3 04 27
        E 1 b3 04 01
        E 1 b3 04 2c
        E 1 b3 04 25
        E 1 b3 04 02
        E 1 b3 04 0f
        E 1 b3 04 1e
        E 1 b3 04 26
        E 1 b3 04 30
        E 1 b3 04 1f
        E 1 b3 04 15
        E 1 b3 04 0e
        E 1 b3 04 23
        E 1 b3 04 24
        E 1 b3 04 2c
        E 1 b3 04 31
        E 1 b3 04 18
        E 1 b3 04 20
        E 1 b3 04 22
        E 1 b3 04 1a
        E 1 b3 04 2f
        E 1 b3 04 07
        E 1 b3 04 12
        E 1 b3 04 21
        E 15 b3 04 1c
        E 15 b3 04 60
        E 15 b3 04 3f
        E 15 b3 04 0a
        E 15 b3 04 5a
        E 15 b3 04 50
        E 15 b3 04 0c
        E 15 b3 04 0b
        E 15 b3 04 3d
        E 15 b3 04 78
        E 15 b3 04 65
        E 15 b3 04 6f
        E 15 b3 04 4f
        E 15 b3 04 0e
        E 15 b3 04 18
        E 15 b3 04 56
        E 15 b3 04 46
        E 15 b3 04 24
        E 15 b3 04 19
        E 15 b3 04 22
        E 15 b3 04 63
        E 15 b3 04 3b
        E 15 b3 04 1e
        E 15 b3 04 49
        E 15 b3 04 7e
        E 15 b3 04 00
        E 15 b3 04 10
        E 15 b3 04 34
        E 15 b3 04 2b
        E 15 b3 04 68
        E 15 b3 04 1b
        E 15 b3 04 08
        E 15 b3 04 14
        E 15 b3 04 16
        E 15 b3 04 73
        E 15 b3 04 20
        E 15 b3 04 01
        E 15 b3 04 5e
        E 15 b3 04 2c
        E 15 b3 04 1a
        E 15 b3 04 32
        E 15 b3 04 21
        E 15 b3 04 6c
        E 15 b3 04 6b
        E 15 b3 04 7f
        E 15 b3 04 6a
        E 15 b3 04 37
        E 15 b3 04 76
        E 15 b3 04 5b
        E 15 b3 04 0f
        E 15 b3 04 38
        E 15 b3 04 44
        E 15 b3 04 79
        E 15 b3 04 61
        E 15 b3 04 45
        E 15 b3 04 47
        E 15 b3 04 06
        E 15 b3 04 0d
        E 15 b3 04 75
        E 15 b3 04 66
        E 15 b3 04 36
        E 15 b3 04 28
        E 15 b3 04 11
        E 15 b3 04 39
        E 15 b3 04 26
        E 15 b3 04 1f
        E 15 b3 04 30
        E 15 b3 04 42
        E 15 b3 04 4d
        E 15 b3 04 52
        E 15 b3 04 15
        E 15 b3 04 4c
        E 15 b3 04 71
        E 15 b3 04 41
        E 15 b3 04 4a
        E 15 b3 04 03
        E 15 b3 04 09
        E 15 b3 04 7d
        E 15 b3 04 53
        E 15 b3 04 17
        E 15 b3 04 74
        E 15 b3 04 29
        E 15 b3 04 31
        E 15 b3 04 3e
        E 15 b3 04 33
        E 15 b3 04 55
        E 15 b3 04 67
        E 15 b3 04 25
        E 15 b3 04 48
        E 15 b3 04 1d
        E 15 b3 04 72
        E 15 b3 04 69
        E 15 b3 04 3a
        E 15 b3 04 2e
        E 15 b3 04 64
        E 15 b3 04 2f
        E 15 b3 04 59
        E 15 b3 04 12
        E 15 b3 04 02
        E 15 b3 04 2a
        E 15 b3 04 40
        E 15 b3 04 6d
        E 15 b3 04 62
        E 15 b3 04 04
        E 15 b3 04 6e
        E 15 b3 04 5d
        E 15 b3 04 07
        E 15 b3 04 27
        E 15 b3 04 4b
        E 15 b3 04 5f
        E 15 b3 04 7a
        E 15 b3 04 4e
        E 15 b3 04 35
        E 15 b3 04 23
        E 15 b3 04 58
        E 15 b3 04 5c
        E 15 b3 04 70
        E 15 b3 04 7c
        E 15 b3 04 3c
        E 15 b3 04 51
        E 15 b3 04 57
        E 15 b3 04 43
        E 15 b3 04 77
        E 15 b3 04 13
        E 15 b3 04 2d
        E 15 b3 04 54
        E 3 b3 04 19
        E 3 b3 04 56
        E 3 b3 04 38
        E 3 b3 04 09
        E 3 b3 04 51
        E 3 b3 04 48
        E 3 b3 04 0a
        E 3 b3 04 09
        E 3 b3 04 36
        E 3 b3 04 6c
        E 3 b3 04 5a
        E 3 b3 04 63
        E 3 b3 04 47
        E 3 b3 04 0c
        E 3 b3 04 15
        E 3 b3 04 4d
        E 3 b3 04 3f
        E 3 b3 04 20
        E 3 b3 04 16
        E 3 b3 04 1e
        E 3 b3 04 59
        E 3 b3 04 35
        E 3 b3 04 1b
        E 3 b3 04 41
        E 3 b3 04 71
        E 3 b3 04 00
        E 3 b3 04 0e
        E 3 b3 04 2e
        E 3 b3 04 26
        E 3 b3 04 5d
        E 3 b3 04 18
        E 3 b3 04 07
        E 3 b3 04 12
        E 3 b3 04 13
        E 3 b3 04 67
        E 3 b3 04 1c
        E 3 b3 04 00
        E 3 b3 04 54
        E 3 b3 04 27
        E 3 b3 04 17
        E 3 b3 04 2d
        E 3 b3 04 1d
        E 3 b3 04 61
        E 3 b3 04 60
        E 3 b3 04 72
        E 3 b3 04 5f
        E 3 b3 04 31
        E 3 b3 04 6a
        E 3 b3 04 51
        E 3 b3 04 0d
        E 3 b3 04 32
        E 3 b3 04 3d
        E 3 b3 04 6c
        E 3 b3 04 57
        E 3 b3 04 3e
        E 3 b3 04 3f
        E 3 b3 04 05
        E 3 b3 04 0b
        E 3 b3 04 69
        E 3 b3 04 5b
        E 3 b3 04 30
        E 3 b3 04 24
        E 3 b3 04 0f
        E 3 b3 04 33
        E 3 b3 04 22
        E 3 b3 04 1b
        E 3 b3 04 2b
        E 3 b3 04 3b
        E 3 b3 04 45
        E 3 b3 04 49
        E 3 b3 04 12
        E 3 b3 04 44
        E 3 b3 04 65
        E 3 b3 04 3a
        E 3 b3 04 42
        E 3 b3 04 02
        E 3 b3 04 08
        E 3 b3 04 70
        E 3 b3 04 4a
        E 3 b3 04 14
        E 3 b3 04 68
        E 3 b3 04 24
        E 3 b3 04 2c
        E 3 b3 04 37
        E 3 b3 04 2d
        E 3 b3 04 4c
        E 3 b3 04 5c
        E 3 b3 04 21
        E 3 b3 04 40
        E 3 b3 04 1a
        E 3 b3 04 66
        E 3 b3 04 5e
        E 3 b3 04 34
        E 3 b3 04 29
        E 3 b3 04 5a
        E 3 b3 04 2a
        E 3 b3 04 50
        E 3 b3 04 10
        E 3 b3 04 01
        E 3 b3 04 25
        E 3 b3 04 39
        E 3 b3 04 62
        E 3 b3 04 58
        E 3 b3 04 03
        E 3 b3 04 63
        E 3 b3 04 53
        E 3 b3 04 06
        E 3 b3 04 23
        E 3 b3 04 43
        E 3 b3 04 55
        E 3 b3 04 6d
        E 3 b3 04 46
        E 3 b3 04 2f
        E 3 b3 04 1f
        E 3 b3 04 4f
        E 3 b3 04 52
        E 3 b3 04 64
        E 3 b3 04 6f
        E 3 b3 04 36
        E 3 b3 04 48
        E 3 b3 04 4e
        E 3 b3 04 3c
        E 3 b3 04 6b
        E 3 b3 04 11
        E 3 b3 04 28
        E 3 b3 04 4b
        E 1 b3 04 10
        E 1 b3 04 39
        E 1 b3 04 25
        E 1 b3 04 06
        E 1 b3 04 36
        E 1 b3 04 30
        E 1 b3 04 07
        E 1 b3 04 06
        E 1 b3 04 24
        E 1 b3 04 48
        E 1 b3 04 3c
        E 1 b3 04 42
        E 1 b3 04 2f
        E 1 b3 04 08
        E 1 b3 04 0e
        E 1 b3 04 33
        E 1 b3 04 2a
        E 1 b3 04 15
        E 1 b3 04 0f
        E 1 b3 04 14
        E 1 b3 04 3b
        E 1 b3 04 23
        E 1 b3 04 12
        E 1 b3 04 2b
        E 1 b3 04 4b
        E 1 b3 04 00
        E 1 b3 04 09
        E 1 b3 04 1f
        E 1 b3 04 19
        E 1 b3 04 3e
        E 1 b3 04 10
        E 1 b3 04 04
        E 1 b3 04 0c
        E 1 b3 04 0d
        E 1 b3 04 45
        E 1 b3 04 13
        E 1 b3 04 00
        E 1 b3 04 38
        E 1 b3 04 1a
        E 1 b3 04 0f
        E 1 b3 04 1e
        E 1 b3 04 13
        E 1 b3 04 40
        E 1 b3 04 40
        E 1 b3 04 4c
        E 1 b3 04 3f
        E 1 b3 04 21
        E 1 b3 04 46
        E 1 b3 04 36
        E 1 b3 04 09
        E 1 b3 04 21
        E 1 b3 04 28
        E 1 b3 04 48
        E 1 b3 04 3a
        E 1 b3 04 29
        E 1 b3 04 2a
        E 1 b3 04 03
        E 1 b3 04 07
        E 1 b3 04 46
        E 1 b3 04 3d
        E 1 b3 04 20
        E 1 b3 04 18
        E 1 b3 04 0a
        E 1 b3 04 22
        E 1 b3 04 16
        E 1 b3 04 12
        E 1 b3 04 1c
        E 1 b3 04 27
        E 1 b3 04 2e
        E 1 b3 04 31
        E 1 b3 04 0c
        E 1 b3 04 2d
        E 1 b3 04 43
        E 1 b3 04 27
        E 1 b3 04 2c
        E 1 b3 04 01
        E 1 b3 04 05
        E 1 b3 04 4b
        E 1 b3 04 31
        E 1 b3 04 0d
        E 1 b3 04 45
        E 1 b3 04 18
        E 1 b3 04 1d
        E 1 b3 04 25
        E 1 b3 04 1e
        E 1 b3 04 33
        E 1 b3 04 3d
        E 1 b3 04 16
        E 1 b3 04 2b
        E 1 b3 04 11
        E 1 b3 04 44
        E 1 b3 04 3f
        E 1 b3 04 22
        E 1 b3 04 1b
        E 1 b3 04 3c
        E 1 b3 04 1c
        E 1 b3 04 35
        E 1 b3 04 0a
        E 1 b3 04 01
        E 1 b3 04 19
        E 1 b3 04 26
        E 1 b3 04 41
        E 1 b3 04 3a
        E 1 b3 04 02
        E 1 b3 04 42
        E 1 b3 04 37
        E 1 b3 04 04
        E 1 b3 04 17
        E 1 b3 04 2d
        E 1 b3 04 39
        E 1 b3 04 49
        E 1 b3 04 2e
        E 1 b3 04 1f
        E 1 b3 04 15
        E 1 b3 04 34
        E 1 b3 04 37
        E 1 b3 04 43
        E 1 b3 04 4a
        E 1 b3 04 24
        E 1 b3 04 30
        E 1 b3 04 34
        E 1 b3 04 28
        E 1 b3 04 47
        E 1 b3 04 0b
        E 1 b3 04 1b
        E 1 b3 04 32
        E 8 b3 04 05
        E 8 b3 04 13
        E 8 b3 04 0c
        E 8 b3 04 02
        E 8 b3 04 12
        E 8 b3 04 10
        E 8 b3 04 02
        E 8 b3 04 02
        E 8 b3 04 0c
        E 8 b3 04 18
        E 8 b3 04 14
        E 8 b3 04 16
        E 8 b3 04 0f
        E 8 b3 04 02
        E 8 b3 04 04
        E 8 b3 04 11
        E 8 b3 04 0e
        E 8 b3 04 07
        E 8 b3 04 05
        E 8 b3 04 06
        E 8 b3 04 13
        E 8 b3 04 0b
        E 8 b3 04 06
        E 8 b3 04 0e
        E 8 b3 04 19
        E 8 b3 04 00
        E 8 b3 04 03
        E 8 b3 04 0a
        E 8 b3 04 08
        E 8 b3 04 14
        E 8 b3 04 05
        E 8 b3 04 01
        E 8 b3 04 04
        E 8 b3 04 04
        E 8 b3 04 17
        E 8 b3 04 06
        E 8 b3 04 00
        E 8 b3 04 12
        E 8 b3 04 08
        E 8 b3 04 05
        E 8 b3 04 0a
        E 8 b3 04 06
        E 8 b3 04 15
        E 8 b3 04 15
        E 8 b3 04 19
        E 8 b3 04 15
        E 8 b3 04 0b
        E 8 b3 04 17
        E 8 b3 04 12
        E 8 b3 04 03
        E 8 b3 04 0b
        E 8 b3 04 0d
        E 8 b3 04 18
        E 8 b3 04 13
        E 8 b3 04 0d
        E 8 b3 04 0e
        E 8 b3 04 01
        E 8 b3 04 02
        E 8 b3 04 17
        E 8 b3 04 14
        E 8 b3 04 0a
        E 8 b3 04 08
        E 8 b3 04 03
        E 8 b3 04 0b
        E 8 b3 04 07
        E 8 b3 04 06
        E 8 b3 04 09
        E 8 b3 04 0d
        E 8 b3 04 0f
        E 8 b3 04 10
        E 8 b3 04 04
        E 8 b3 04 0f
        E 8 b3 04 16
        E 8 b3 04 0d
        E 8 b3 04 0e
        E 8 b3 04 00
        E 8 b3 04 01
        E 8 b3 04 19
        E 8 b3 04 10
        E 8 b3 04 04
        E 8 b3 04 17
        E 8 b3 04 08
        E 8 b3 04 09
        E 8 b3 04 0c
        E 8 b3 04 0a
        E 8 b3 04 11
        E 8 b3 04 14
        E 8 b3 04 07
        E 8 b3 04 0e
        E 8 b3 04 05
        E 8 b3 04 16
        E 8 b3 04 15
        E 8 b3 04 0b
        E 8 b3 04 09
        E 8 b3 04 14
        E 8 b3 04 09
        E 8 b3 04 11
        E 8 b3 04 03
        E 8 b3 04 00
        E 8 b3 04 08
        E 8 b3 04 0c
        E 8 b3 04 15
        E 8 b3 04 13
        E 8 b3 04 00
        E 8 b3 04 16
        E 8 b3 04 12
        E 8 b3 04 01
        E 8 b3 04 07
        E 8 b3 04 0f
        E 8 b3 04 13
        E 8 b3 04 18
        E 8 b3 04 0f
        E 8 b3 04 0a
        E 8 b3 04 07
        E 8 b3 04 11
        E 8 b3 04 12
        E 8 b3 04 16
        E 8 b3 04 18
        E 8 b3 04 0c
        E 8 b3 04 10
        E 8 b3 04 11
        E 8 b3 04 0d
        E 8 b3 04 17
        E 8 b3 04 03
        E 8 b3 04 09
        E 8 b3 04 10
        E 6 b3 04 13
        E 6 b3 04 43
        E 6 b3 04 2c
        E 6 b3 04 07
        E 6 b3 04 3e
        E 6 b3 04 38
        E 6 b3 04 08
        E 6 b3 04 07
        E 6 b3 04 2a
        E 6 b3 04 54
        E 6 b3 04 46
        E 6 b3 04 4d
        E 6 b3 04 37
        E 6 b3 04 09
        E 6 b3 04 10
        E 6 b3 04 3c
        E 6 b3 04 31
        E 6 b3 04 19
        E 6 b3 04 11
        E 6 b3 04 17
        E 6 b3 04 45
        E 6 b3 04 29
        E 6 b3 04 15
        E 6 b3 04 33
        E 6 b3 04 58
        E 6 b3 04 00
        E 6 b3 04 0b
        E 6 b3 04 24
        E 6 b3 04 1e
        E 6 b3 04 48
        E 6 b3 04 12
        E 6 b3 04 05
        E 6 b3 04 0e
        E 6 b3 04 0f
        E 6 b3 04 50
        E 6 b3 04 16
        E 6 b3 04 00
        E 6 b3 04 41
        E 6 b3 04 1e
        E 6 b3 04 12
        E 6 b3 04 23
        E 6 b3 04 17
        E 6 b3 04 4b
        E 6 b3 04 4a
        E 6 b3 04 58
        E 6 b3 04 4a
        E 6 b3 04 26
        E 6 b3 04 52
        E 6 b3 04 3f
        E 6 b3 04 0a
        E 6 b3 04 27
        E 6 b3 04 2f
        E 6 b3 04 54
        E 6 b3 04 43
        E 6 b3 04 30
        E 6 b3 04 31
        E 6 b3 04 04
        E 6 b3 04 09
        E 6 b3 04 51
        E 6 b3 04 47
        E 6 b3 04 25
        E 6 b3 04 1c
        E 6 b3 04 0b
        E 6 b3 04 27
        E 6 b3 04 1a
        E 6 b3 04 15
        E 6 b3 04 21
        E 6 b3 04 2e
        E 6 b3 04 35
        E 6 b3 04 39
        E 6 b3 04 0e
        E 6 b3 04 35
        E 6 b3 04 4f
        E 6 b3 04 2d
        E 6 b3 04 33
        E 6 b3 04 02
        E 6 b3 04 06
        E 6 b3 04 57
        E 6 b3 04 3a
        E 6 b3 04 10
        E 6 b3 04 51
        E 6 b3 04 1c
        E 6 b3 04 22
        E 6 b3 04 2b
        E 6 b3 04 23
        E 6 b3 04 3b
        E 6 b3 04 48
        E 6 b3 04 19
        E 6 b3 04 32
        E 6 b3 04 14
        E 6 b3 04 4f
        E 6 b3 04 49
        E 6 b3 04 28
        E 6 b3 04 20
        E 6 b3 04 46
        E 6 b3 04 20
        E 6 b3 04 3e
        E 6 b3 04 0c
        E 6 b3 04 01
        E 6 b3 04 1d
        E 6 b3 04 2c
        E 6 b3 04 4c
        E 6 b3 04 44
        E 6 b3 04 02
        E 6 b3 04 4d
        E 6 b3 04 41
        E 6 b3 04 04
        E 6 b3 04 1b
        E 6 b3 04 34
        E 6 b3 04 42
        E 6 b3 04 55
        E 6 b3 04 36
        E 6 b3 04 25
        E 6 b3 04 18
        E 6 b3 04 3d
        E 6 b3 04 40
        E 6 b3 04 4e
        E 6 b3 04 56
        E 6 b3 04 2a
        E 6 b3 04 38
        E 6 b3 04 3c
        E 6 b3 04 2e
        E 6 b3 04 53
        E 6 b3 04 0d
        E 6 b3 04 1f
        E 6 b3 04 3a
        E 1 b3 04 0b
        E 1 b3 04 26
        E 1 b3 04 19
        E 1 b3 04 04
        E 1 b3 04 24
        E 1 b3 04 20
        E 1 b3 04 04
        E 1 b3 04 04
        E 1 b3 04 18
        E 1 b3 04 30
        E 1 b3 04 28
        E 1 b3 04 2c
        E 1 b3 04 1f
        E 1 b3 04 05
        E 1 b3 04 09
        E 1 b3 04 22
        E 1 b3 04 1c
        E 1 b3 04 0e
        E 1 b3 04 0a
        E 1 b3 04 0d
        E 1 b3 04 27
        E 1 b3 04 17
        E 1 b3 04 0c
        E 1 b3 04 1d
        E 1 b3 04 32
        E 1 b3 04 00
        E 1 b3 04 06
        E 1 b3 04 14
        E 1 b3 04 11
        E 1 b3 04 29
        E 1 b3 04 0a
        E 1 b3 04 03
        E 1 b3 04 08
        E 1 b3 04 08
        E 1 b3 04 2e
        E 1 b3 04 0c
        E 1 b3 04 00
        E 1 b3 04 25
        E 1 b3 04 11
        E 1 b3 04 0a
        E 1 b3 04 14
        E 1 b3 04 0d
        E 1 b3 04 2b
        E 1 b3 04 2a
        E 1 b3 04 32
        E 1 b3 04 2a
        E 1 b3 04 16
        E 1 b3 04 2f
        E 1 b3 04 24
        E 1 b3 04 06
        E 1 b3 04 16
        E 1 b3 04 1b
        E 1 b3 04 30
        E 1 b3 04 26
        E 1 b3 04 1b
        E 1 b3 04 1c
        E 1 b3 04 02
        E 1 b3 04 05
        E 1 b3 04 2e
        E 1 b3 04 28
        E 1 b3 04 15
        E 1 b3 04 10
        E 1 b3 04 06
        E 1 b3 04 16
        E 1 b3 04 0f
        E 1 b3 04 0c
        E 1 b3 04 13
        E 1 b3 04 1a
        E 1 b3 04 1e
        E 1 b3 04 20
        E 1 b3 04 08
        E 1 b3 04 1e
        E 1 b3 04 2d
        E 1 b3 04 1a
        E 1 b3 04 1d
        E 1 b3 04 01
        E 1 b3 04 03
        E 1 b3 04 32
        E 1 b3 04 21
        E 1 b3 04 09
        E 1 b3 04 2e
        E 1 b3 04 10
        E 1 b3 04 13
        E 1 b3 04 18
        E 1 b3 04 14
        E 1 b3 04 22
        E 1 b3 04 29
        E 1 b3 04 0e
        E 1 b3 04 1c
        E 1 b3 04 0b
        E 1 b3 04 2d
        E 1 b3 04 2a
        E 1 b3 04 17
        E 1 b3 04 12
        E 1 b3 04 28
        E 1 b3 04 12
        E 1 b3 04 23
        E 1 b3 04 07
        E 1 b3 04 00
        E 1 b3 04 10
        E 1 b3 04 19
        E 1 b3 04 2b
        E 1 b3 04 27
        E 1 b3 04 01
        E 1 b3 04 2c
        E 1 b3 04 25
        E 1 b3 04 02
        E 1 b3 04 0f
        E 1 b3 04 1e
        E 1 b3 04 26
        E 1 b3 04 30
        E 1 b3 04 1f
        E 1 b3 04 15
        E 1 b3 04 0e
        E 1 b3 04 23
        E 1 b3 04 24
        E 1 b3 04 2c
        E 1 b3 04 31
        E 1 b3 04 18
        E 1 b3 04 20
        E 1 b3 04 22
        E 1 b3 04 1a
        E 1 b3 04 2f
        E 1 b3 04 07
        E 1 b3 04 12
        E 1 b3 04 21
        E 15 b3 04 1c
        E 15 b3 04 60
        E 15 b3 04 3f
        E 15 b3 04 0a
        E 15 b3 04 5a
        E 15 b3 04 50
        E 15 b3 04 0c
        E 15 b3 04 0b
        E 15 b3 04 3d
        E 15 b3 04 78
        E 15 b3 04 65
        E 15 b3 04 6f
        E 15 b3 04 4f
        E 15 b3 04 0e
        E 15 b3 04 18
        E 15 b3 04 56
        E 15 b3 04 46
        E 15 b3 04 24
        E 15 b3 04 19
        E 15 b3 04 22
        E 15 b3 04 63
        E 15 b3 04 3b
        E 15 b3 04 1e
        E 15 b3 04 49
        E 15 b3 04 7e
        E 15 b3 04 00
        E 15 b3 04 10
        E 15 b3 04 34
        E 15 b3 04 2b
        E 15 b3 04 68
        E 15 b3 04 1b
        E 15 b3 04 08
        E 15 b3 04 14
        E 15 b3 04 16
        E 15 b3 04 73
        E 15 b3 04 20
        E 15 b3 04 01
        E 15 b3 04 5e
        E 15 b3 04 2c
        E 15 b3 04 1a
        E 15 b3 04 32
        E 15 b3 04 21
        E 15 b3 04 6c
        E 15 b3 04 6b
        E 15 b3 04 7f
        E 15 b3 04 6a
        E 15 b3 04 37
        E 15 b3 04 76
        E 15 b3 04 5b
        E 15 b3 04 0f
        E 15 b3 04 38
        E 15 b3 04 44
        E 15 b3 04 79
        E 15 b3 04 61
        E 15 b3 04 45
        E 15 b3 04 47
        E 15 b3 04 06
        E 15 b3 04 0d
        E 15 b3 04 75
        E 15 b3 04 66
        E 15 b3 04 36
        E 15 b3 04 28
        E 15 b3 04 11
        E 15 b3 04 39
        E 15 b3 04 26
        E 15 b3 04 1f
        E 15 b3 04 30
        E 15 b3 04 42
        E 15 b3 04 4d
        E 15 b3 04 52
        E 15 b3 04 15
        E 15 b3 04 4c
        E 15 b3 04 71
        E 15 b3 04 41
        E 15 b3 04 4a
        E 15 b3 04 03
        E 15 b3 04 09
        E 15 b3 04 7d
        E 15 b3 04 53
        E 15 b3 04 17
        E 15 b3 04 74
        E 15 b3 04 29
        E 15 b3 04 31
        E 15 b3 04 3e
        E 15 b3 04 33
        E 15 b3 04 55
        E 15 b3 04 67
        E 15 b3 04 25
        E 15 b3 04 48
        E 15 b3 04 1d
        E 15 b3 04 72
        E 15 b3 04 69
        E 15 b3 04 3a
        E 15 b3 04 2e
        E 15 b3 04 64
        E 15 b3 04 2f
        E 15 b3 04 59
        E 15 b3 04 12
        E 15 b3 04 02
        E 15 b3 04 2a
        E 15 b3 04 40
        E 15 b3 04 6d
        E 15 b3 04 62
        E 15 b3 04 04
        E 15 b3 04 6e
        E 15 b3 04 5d
        E 15 b3 04 07
        E 15 b3 04 27
        E 15 b3 04 4b
        E 15 b3 04 5f
        E 15 b3 04 7a
        E 15 b3 04 4e
        E 15 b3 04 35
        E 15 b3 04 23
        E 15 b3 04 58
        E 15 b3 04 5c
        E 15 b3 04 70
        E 15 b3 04 7c
        E 15 b3 04 3c
        E 15 b3 04 51
        E 15 b3 04 57
        E 15 b3 04 43
        E 15 b3 04 77
        E 15 b3 04 13
        E 15 b3 04 2d
        E 15 b3 04 54
        E 3 b3 04 19
        E 3 b3 04 56
        E 3 b3 04 38
        E 3 b3 04 09
        E 3 b3 04 51
        E 3 b3 04 48
        E 3 b3 04 0a
        E 3 b3 04 09
        E 3 b3 04 36
        E 3 b3 04 6c
        E 3 b3 04 5a
        E 3 b3 04 63
        E 3 b3 04 47
        E 3 b3 04 0c
        E 3 b3 04 15
        E 3 b3 04 4d
        E 3 b3 04 3f
        E 3 b3 04 20
        E 3 b3 04 16
        E 3 b3 04 1e
        E 3 b3 04 59
        E 3 b3 04 35
        E 3 b3 04 1b
        E 3 b3 04 41
        E 3 b3 04 71
        E 3 b3 04 00
        E 3 b3 04 0e
        E 3 b3 04 2e
        E 3 b3 04 26
        E 3 b3 04 5d
        E 3 b3 04 18
        E 3 b3 04 07
        E 3 b3 04 12
        E 3 b3 04 13
        E 3 b3 04 67
        E 3 b3 04 1c
        E 3 b3 04 00
        E 3 b3 04 54
        E 3 b3 04 27
        E 3 b3 04 17
        E 3 b3 04 2d
        E 3 b3 04 1d
        E 3 b3 04 61
        E 3 b3 04 60
        E 3 b3 04 72
        E 3 b3 04 5f
        E 3 b3 04 31
        E 3 b3 04 6a
        E 3 b3 04 51
        E 3 b3 04 0d
        E 3 b3 04 32
        E 3 b3 04 3d
        E 3 b3 04 6c
        E 3 b3 04 57
        E 3 b3 04 3e
        E 3 b3 04 3f
        E 3 b3 04 05
        E 3 b3 04 0b
        E 3 b3 04 69
        E 3 b3 04 5b
        E 3 b3 04 30
        E 3 b3 04 24
        E 3 b3 04 0f
        E 3 b3 04 33
        E 3 b3 04 22
        E 3 b3 04 1b
        E 3 b3 04 2b
        E 3 b3 04 3b
        E 3 b3 04 45
        E 3 b3 04 49
        E 3 b3 04 12
        E 3 b3 04 44
        E 3 b3 04 65
        E 3 b3 04 3a
        E 3 b3 04 42
        E 3 b3 04 02
        E 3 b3 04 08
        E 3 b3 04 70
        E 3 b3 04 4a
        E 3 b3 04 14
        E 3 b3 04 68
        E 3 b3 04 24
        E 3 b3 04 2c
        E 3 b3 04 37
        E 3 b3 04 2d
        E 3 b3 04 4c
        E 3 b3 04 5c
        E 3 b3 04 21
        E 3 b3 04 40
        E 3 b3 04 1a
        E 3 b3 04 66
        E 3 b3 04 5e
        E 3 b3 04 34
        E 3 b3 04 29
        E 3 b3 04 5a
        E 3 b3 04 2a
        E 3 b3 04 50
        E 3 b3 04 10
        E 3 b3 04 01
        E 3 b3 04 25
        E 3 b3 04 39
        E 3 b3 04 62
        E 3 b3 04 58
        E 3 b3 04 03
        E 3 b3 04 63
        E 3 b3 04 53
        E 3 b3 04 06
        E 3 b3 04 23
        E 3 b3 04 43
        E 3 b3 04 55
        E 3 b3 04 6d
        E 3 b3 04 46
        E 3 b3 04 2f
        E 3 b3 04 1f
        E 3 b3 04 4f
        E 3 b3 04 52
        E 3 b3 04 64
        E 3 b3 04 6f
        E 3 b3 04 36
        E 3 b3 04 48
        E 3 b3 04 4e
        E 3 b3 04 3c
        E 3 b3 04 6b
        E 3 b3 04 11
        E 3 b3 04 28
        E 3 b3 04 4b
        E 1 b3 04 10
        E 1 b3 04 39
        E 1 b3 04 25
        E 1 b3 04 06
        E 1 b3 04 36
        E 1 b3 04 30
        E 1 b3 04 07
        E 1 b3 04 06
        E 1 b3 04 24
        E 1 b3 04 48
        E 1 b3 04 3c
        E 1 b3 04 42
        E 1 b3 04 2f
        E 1 b3 04 08
        E 1 b3 04 0e
        E 1 b3 04 33
        E 1 b3 04 2a
        E 1 b3 04 15
        E 1 b3 04 0f
        E 1 b3 04 14
        E 1 b3 04 3b
        E 1 b3 04 23
        E 1 b3 04 12
        E 1 b3 04 2b
        E 1 b3 04 4b
        E 1 b3 04 00
        E 1 b3 04 09
        E 1 b3 04 1f
        E 1 b3 04 19
        E 1 b3 04 3e
        E 1 b3 04 10
        E 1 b3 04 04
        E 1 b3 04 0c
        E 1 b3 04 0d
        E 1 b3 04 45
        E 1 b3 04 13
        E 1 b3 04 00
        E 1 b3 04 38
        E 1 b3 04 1a
        E 1 b3 04 0f
        E 1 b3 04 1e
        E 1 b3 04 13
        E 1 b3 04 40
        E 1 b3 04 40
        E 1 b3 04 4c
        E 1 b3 04 3f
        E 1 b3 04 21
        E 1 b3 04 46
        E 1 b3 04 36
        E 1 b3 04 09
        E 1 b3 04 21
        E 1 b3 04 28
        E 1 b3 04 48
        E 1 b3 04 3a
        E 1 b3 04 29
        E 1 b3 04 2a
        E 1 b3 04 03
        E 1 b3 04 07
        E 1 b3 04 46
        E 1 b3 04 3d
        E 1 b3 04 20
        E 1 b3 04 18
        E 1 b3 04 0a
        E 1 b3 04 22
        E 1 b3 04 16
        E 1 b3 04 12
        E 1 b3 04 1c
        E 1 b3 04 27
        E 1 b3 04 2e
        E 1 b3 04 31
        E 1 b3 04 0c
        E 1 b3 04 2d
        E 1 b3 04 43
        E 1 b3 04 27
        E 1 b3 04 2c
        E 1 b3 04 01
        E 1 b3 04 05
        E 1 b3 04 4b
        E 1 b3 04 31
        E 1 b3 04 0d
        E 1 b3 04 45
        E 1 b3 04 18
        E 1 b3 04 1d
        E 1 b3 04 25
        E 1 b3 04 1e
        E 1 b3 04 33
        E 1 b3 04 3d
        E 1 b3 04 16
        E 1 b3 04 2b
        E 1 b3 04 11
        E 1 b3 04 44
        E 1 b3 04 3f
        E 1 b3 04 22
        E 1 b3 04 1b
        E 1 b3 04 3c
        E 1 b3 04 1c
        E 1 b3 04 35
        E 1 b3 04 0a
        E 1 b3 04 01
        E 1 b3 04 19
        E 1 b3 04 26
        E 1 b3 04 41
        E 1 b3 04 3a
        E 1 b3 04 02
        E 1 b3 04 42
        E 1 b3 04 37
        E 1 b3 04 04
        E 1 b3 04 17
        E 1 b3 04 2d
        E 1 b3 04 39
        E 1 b3 04 49
        E 1 b3 04 2e
        E 1 b3 04 1f
        E 1 b3 04 15
        E 1 b3 04 34
        E 1 b3 04 37
        E 1 b3 04 43
        E 1 b3 04 4a
        E 1 b3 04 24
        E 1 b3 04 30
        E 1 b3 04 34
        E 1 b3 04 28
        E 1 b3 04 47
        E 1 b3 04 0b
        E 1 b3 04 1b
        E 1 b3 04 32
        E 8 b3 04 05
        E 8 b3 04 13
        E 8 b3 04 0c
        E 8 b3 04 02
        E 8 b3 04 12
        E 8 b3 04 10
        E 8 b3 04 02
        E 8 b3 04 02
        E 8 b3 04 0c
        E 8 b3 04 18
        E 8 b3 04 14
        E 8 b3 04 16
        E 8 b3 04 0f
        E 8 b3 04 02
        E 8 b3 04 04
        E 8 b3 04 11
        E 8 b3 04 0e
        E 8 b3 04 07
        E 8 b3 04 05
        E 8 b3 04 06
        E 8 b3 04 13
        E 8 b3 04 0b
        E 8 b3 04 06
        E 8 b3 04 0e
        E 8 b3 04 19
        E 8 b3 04 00
        E 8 b3 04 03
        E 8 b3 04 0a
        E 8 b3 04 08
        E 8 b3 04 14
        E 8 b3 04 05
        E 8 b3 04 01
        E 8 b3 04 04
        E 8 b3 04 04
        E 8 b3 04 17
        E 8 b3 04 06
        E 8 b3 04 00
        E 8 b3 04 12
        E 8 b3 04 08
        E 8 b3 04 05
        E 8 b3 04 0a
        E 8 b3 04 06
        E 8 b3 04 15
        E 8 b3 04 15
        E 8 b3 04 19
        E 8 b3 04 15
        E 8 b3 04 0b
        E 8 b3 04 17
        E 8 b3 04 12
        E 8 b3 04 03
        E 8 b3 04 0b
        E 8 b3 04 0d
        E 8 b3 04 18
        E 8 b3 04 13
        E 8 b3 04 0d
        E 8 b3 04 0e
        E 8 b3 04 01
        E 8 b3 04 02
        E 8 b3 04 17
        E 8 b3 04 14
        E 8 b3 04 0a
        E 8 b3 04 08
        E 8 b3 04 03
        E 8 b3 04 0b
        E 8 b3 04 07
        E 8 b3 04 06
        E 8 b3 04 09
        E 8 b3 04 0d
        E 8 b3 04 0f
        E 8 b3 04 10
        E 8 b3 04 04
        E 8 b3 04 0f
        E 8 b3 04 16
        E 8 b3 04 0d
        E 8 b3 04 0e
        E 8 b3 04 00
        E 8 b3 04 01
        E 8 b3 04 19
        E 8 b3 04 10
        E 8 b3 04 04
        E 8 b3 04 17
        E 8 b3 04 08
        E 8 b3 04 09
        E 8 b3 04 0c
        E 8 b3 04 0a
        E 8 b3 04 11
        E 8 b3 04 14
        E 8 b3 04 07
        E 8 b3 04 0e
        E 8 b3 04 05
        E 8 b3 04 16
        E 8 b3 04 15
        E 8 b3 04 0b
        E 8 b3 04 09
        E 8 b3 04 14
        E 8 b3 04 09
        E 8 b3 04 11
        E 8 b3 04 03
        E 8 b3 04 00
        E 8 b3 04 08
        E 8 b3 04 0c
        E 8 b3 04 15
        E 8 b3 04 13
        E 8 b3 04 00
        E 8 b3 04 16
        E 8 b3 04 12
        E 8 b3 04 01
        E 8 b3 04 07
        E 8 b3 04 0f
        E 8 b3 04 13
        E 8 b3 04 18
        E 8 b3 04 0f
        E 8 b3 04 0a
        E 8 b3 04 07
        E 8 b3 04 11
        E 8 b3 04 12
        E 8 b3 04 16
        E 8 b3 04 18
        E 8 b3 04 0c
        E 8 b3 04 10
        E 8 b3 04 11
        E 8 b3 04 0d
        E 8 b3 04 17
        E 8 b3 04 03
        E 8 b3 04 09
        E 8 b3 04 10
        E 6 b3 04 13
        E 6 b3 04 43
        E 6 b3 04 2c
        E 6 b3 04 07
        E 6 b3 04 3e
        E 6 b3 04 38
        E 6 b3 04 08
        E 6 b3 04 07
        E 6 b3 04 2a
        E 6 b3 04 54
        E 6 b3 04 46
        E 6 b3 04 4d
        E 6 b3 04 37
        E 6 b3 04 09
        E 6 b3 04 10
        E 6 b3 04 3c
        E 6 b3 04 31
        E 6 b3 04 19
        E 6 b3 04 11
        E 6 b3 04 17
        E 6 b3 04 45
        E 6 b3 04 29
        E 6 b3 04 15
        E 6 b3 04 33
        E 6 b3 04 58
        E 6 b3 04 00
        E 6 b3 04 0b
        E 6 b3 04 24
        E 6 b3 04 1e
        E 6 b3 04 48
        E 6 b3 04 12
        E 6 b3 04 05
        E 6 b3 04 0e
        E 6 b3 04 0f
        E 6 b3 04 50
        E 6 b3 04 16
        E 6 b3 04 00
        E 6 b3 04 41
        E 6 b3 04 1e
        E 6 b3 04 12
        E 6 b3 04 23
        E 6 b3 04 17
        E 6 b3 04 4b
        E 6 b3 04 4a
        E 6 b3 04 58
        E 6 b3 04 4a
        E 6 b3 04 26
        E 6 b3 04 52
        E 6 b3 04 3f
        E 6 b3 04 0a
        E 6 b3 04 27
        E 6 b3 04 2f
        E 6 b3 04 54
        E 6 b3 04 43
        E 6 b3 04 30
        E 6 b3 04 31
        E 6 b3 04 04
        E 6 b3 04 09
        E 6 b3 04 51
        E 6 b3 04 47
        E 6 b3 04 25
        E 6 b3 04 1c
        E 6 b3 04 0b
        E 6 b3 04 27
        E 6 b3 04 1a
        E 6 b3 04 15
        E 6 b3 04 21
        E 6 b3 04 2e
        E 6 b3 04 35
        E 6 b3 04 39
        E 6 b3 04 0e
        E 6 b3 04 35
        E 6 b3 04 4f
        E 6 b3 04 2d
        E 6 b3 04 33
        E 6 b3 04 02
        E 6 b3 04 06
        E 6 b3 04 57
        E 6 b3 04 3a
        E 6 b3 04 10
        E 6 b3 04 51
        E 6 b3 04 1c
        E 6 b3 04 22
        E 6 b3 04 2b
        E 6 b3 04 23
        E 6 b3 04 3b
        E 6 b3 04 48
        E 6 b3 04 19
        E 6 b3 04 32
        E 6 b3 04 14
        E 6 b3 04 4f
        E 6 b3 04 49
        E 6 b3 04 28
        E 6 b3 04 20
        E 6 b3 04 46
        E 6 b3 04 20
        E 6 b3 04 3e
        E 6 b3 04 0c
        E 6 b3 04 01
        E 6 b3 04 1d
        E 6 b3 04 2c
        E 6 b3 04 4c
        E 6 b3 04 44
        E 6 b3 04 02
        E 6 b3 04 4d
        E 6 b3 04 41
        E 6 b3 04 04
        E 6 b3 04 1b
        E 6 b3 04 34
        E 6 b3 04 42
        E 6 b3 04 55
        E 6 b3 04 36
        E 6 b3 04 25
        E 6 b3 04 18
        E 6 b3 04 3d
        E 6 b3 04 40
        E 6 b3 04 4e
        E 6 b3 04 56
        E 6 b3 04 2a
        E 6 b3 04 38
        E 6 b3 04 3c
        E 6 b3 04 2e
        E 6 b3 04 53
        E 6 b3 04 0d
        E 6 b3 04 1f
        E 6 b3 04 3a
        E 1 b3 04 0b
        E 1 b3 04 26
        E 1 b3 04 19
        E 1 b3 04 04
        E 1 b3 04 24
        E 1 b3 04 20
        E 1 b3 04 04
        E 1 b3 04 04
        E 1 b3 04 18
        E 1 b3 04 30
        E 1 b3 04 28
        E 1 b3 04 2c
        E 1 b3 04 1f
        E 1 b3 04 05
        E 1 b3 04 09
        E 1 b3 04 22
        E 1 b3 04 1c
        E 1 b3 04 0e
        E 1 b3 04 0a
        E 1 b3 04 0d
        E 1 b3 04 27
        E 1 b3 04 17
        E 1 b3 04 0c
        E 1 b3 04 1d
        E 1 b3 04 32
        E 1 b3 04 00
        E 1 b3 04 06
        E 1 b3 04 14
        E 1 b3 04 11
        E 1 b3 04 29
        E 1 b3 04 0a
        E 1 b3 04 03
        E 1 b3 04 08
        E 1 b3 04 08
        E 1 b3 04 2e
        E 1 b3 04 0c
        E 1 b3 04 00
        E 1 b3 04 25
        E 1 b3 04 11
        E 1 b3 04 0a
        E 1 b3 04 14
        E 1 b3 04 0d
        E 1 b3 04 2b
        E 1 b3 04 2a
        E 1 b3 04 32
        E 1 b3 04 2a
        E 1 b3 04 16
        E 1 b3 04 2f
        E 1 b3 04 24
        E 1 b3 04 06
        E 1 b3 04 16
        E 1 b3 04 1b
        E 1 b3 04 30
        E 1 b3 04 26
        E 1 b3 04 1b
        E 1 b3 04 1c
        E 1 b3 04 02
        E 1 b3 04 05
        E 1 b3 04 2e
        E 1 b3 04 28
        E 1 b3 04 15
        E 1 b3 04 10
        E 1 b3 04 06
        E 1 b3 04 16
        E 1 b3 04 0f
        E 1 b3 04 0c
        E 1 b3 04 13
        E 1 b3 04 1a
        E 1 b3 04 1e
        E 1 b3 04 20
        E 1 b3 04 08
        E 1 b3 04 1e
        E 1 b3 04 2d
        E 1 b3 04 1a
        E 1 b3 04 1d
        E 1 b3 04 01
        E 1 b3 04 03
        E 1 b3 04 32
        E 1 b3 04 21
        E 1 b3 04 09
        E 1 b3 04 2e
        E 1 b3 04 10
        E 1 b3 04 13
        E 1 b3 04 18
        E 1 b3 04 14
        E 1 b3 04 22
        E 1 b3 04 29
        E 1 b3 04 0e
        E 1 b3 04 1c
        E 1 b3 04 0b
        E 1 b3 04 2d
        E 1 b3 04 2a
        E 1 b3 04 17
        E 1 b3 04 12
        E 1 b3 04 28
        E 1 b3 04 12
        E 1 b3 04 23
        E 1 b3 04 07
        E 1 b3 04 00
        E 1 b3 04 10
        E 1 b3 04 19
        E 1 b3 04 2b
        E 1 b3 04 27
        E 1 b3 04 01
        E 1 b3 04 2c
        E 1 b3 04 25
        E 1 b3 04 02
        E 1 b3 04 0f
        E 1 b3 04 1e
        E 1 b3 04 26
        E 1 b3 04 30
        E 1 b3 04 1f
        E 1 b3 04 15
        E 1 b3 04 0e
        E 1 b3 04 23
        E 1 b3 04 24
        E 1 b3 04 2c
        E 1 b3 04 31
        E 1 b3 04 18
        E 1 b3 04 20
        E 1 b3 04 22
        E 1 b3 04 1a
        E 1 b3 04 2f
        E 1 b3 04 07
        E 1 b3 04 12
        E 1 b3 04 21
        E 15 b3 04 1c
        E 15 b3 04 60
        E 15 b3 04 3f
        E 15 b3 04 0a
        E 15 b3 04 5a
        E 15 b3 04 50
        E 15 b3 04 0c
        E 15 b3 04 0b
        E 15 b3 04 3d
        E 15 b3 04 78
        E 15 b3 04 65
        E 15 b3 04 6f
        E 15 b3 04 4f
        E 15 b3 04 0e
        E 15 b3 04 18
        E 15 b3 04 56
        E 15 b3 04 46
        E 15 b3 04 24
        E 15 b3 04 19
        E 15 b3 04 22
        E 15 b3 04 63
        E 15 b3 04 3b
        E 15 b3 04 1e
        E 15 b3 04 49
        E 15 b3 04 7e
        E 15 b3 04 00
        E 15 b3 04 10
        E 15 b3 04 34
        E 15 b3 04 2b
        E 15 b3 04 68
        E 15 b3 04 1b
        E 15 b3 04 08
        E 15 b3 04 14
        E 15 b3 04 16
        E 15 b3 04 73
        E 15 b3 04 20
        E 15 b3 04 01
        E 15 b3 04 5e
        E 15 b3 04 2c
        E 15 b3 04 1a
        E 15 b3 04 32
        E 15 b3 04 21
        E 15 b3 04 6c
        E 15 b3 04 6b
        E 15 b3 04 7f
        E 15 b3 04 6a
        E 15 b3 04 37
        E 15 b3 04 76
        E 15 b3 04 5b
        E 15 b3 04 0f
        E 15 b3 04 38
        E 15 b3 04 44
        E 15 b3 04 79
        E 15 b3 04 61
        E 15 b3 04 45
        E 15 b3 04 47
        E 15 b3 04 06
        E 15 b3 04 0d
        E 15 b3 04 75
        E 15 b3 04 66
        E 15 b3 04 36
        E 15 b3 04 28
        E 15 b3 04 11
        E 15 b3 04 39
        E 15 b3 04 26
        E 15 b3 04 1f
        E 15 b3 04 30
        E 15 b3 04 42
        E 15 b3 04 4d
        E 15 b3 04 52
        E 15 b3 04 15
        E 15 b3 04 4c
        E 15 b3 04 71
        E 15 b3 04 41
        E 15 b3 04 4a
        E 15 b3 04 03
        E 15 b3 04 09
        E 15 b3 04 7d
        E 15 b3 04 53
        E 15 b3 04 17
        E 15 b3 04 74
        E 15 b3 04 29
        E 15 b3 04 31
        E 15 b3 04 3e
        E 15 b3 04 33
        E 15 b3 04 55
        E 15 b3 04 67
        E 15 b3 04 25
        E 15 b3 04 48
        E 15 b3 04 1d
        E 15 b3 04 72
        E 15 b3 04 69
        E 15 b3 04 3a
        E 15 b3 04 2e
        E 15 b3 04 64
        E 15 b3 04 2f
        E 15 b3 04 59
        E 15 b3 04 12
        E 15 b3 04 02
        E 15 b3 04 2a
        E 15 b3 04 40
        E 15 b3 04 6d
        E 15 b3 04 62
        E 15 b3 04 04
        E 15 b3 04 6e
        E 15 b3 04 5d
        E 15 b3 04 07
        E 15 b3 04 27
        E 15 b3 04 4b
        E 15 b3 04 5f
        E 15 b3 04 7a
        E 15 b3 04 4e
        E 15 b3 04 35
        E 15 b3 04 23
        E 15 b3 04 58
        E 15 b3 04 5c
        E 15 b3 04 70
        E 15 b3 04 7c
        E 15 b3 04 3c
        E 15 b3 04 51
        E 15 b3 04 57
        E 15 b3 04 43
        E 15 b3 04 77
        E 15 b3 04 13
        E 15 b3 04 2d
        E 15 b3 04 54
        E 3 b3 04 19
        E 3 b3 04 56
        E 3 b3 04 38
        E 3 b3 04 09
        E 3 b3 04 51
        E 3 b3 04 48
        E 3 b3 04 0a
        E 3 b3 04 09
        E 3 b3 04 36
        E 3 b3 04 6c
        E 3 b3 04 5a
        E 3 b3 04 63
        E 3 b3 04 47
        E 3 b3 04 0c
        E 3 b3 04 15
        E 3 b3 04 4d
        E 3 b3 04 3f
        E 3 b3 04 20
        E 3 b3 04 16
        E 3 b3 04 1e
        E 3 b3 04 59
        E 3 b3 04 35
        E 3 b3 04 1b
        E 3 b3 04 41
        E 3 b3 04 71
        E 3 b3 04 00
        E 3 b3 04 0e
        E 3 b3 04 2e
        E 3 b3 04 26
        E 3 b3 04 5d
        E 3 b3 04 18
        E 3 b3 04 07
        E 3 b3 04 12
        E 3 b3 04 13
        E 3 b3 04 67
        E 3 b3 04 1c
        E 3 b3 04 00
        E 3 b3 04 54
        E 3 b3 04 27
        E 3 b3 04 17
        E 3 b3 04 2d
        E 3 b3 04 1d
        E 3 b3 04 61
        E 3 b3 04 60
        E 3 b3 04 72
        E 3 b3 04 5f
        E 3 b3 04 31
        E 3 b3 04 6a
        E 3 b3 04 51
        E 3 b3 04 0d
        E 3 b3 04 32
        E 3 b3 04 3d
        E 3 b3 04 6c
        E 3 b3 04 57
        E 3 b3 04 3e
        E 3 b3 04 3f
        E 3 b3 04 05
        E 3 b3 04 0b
        E 3 b3 04 69
        E 3 b3 04 5b
        E 3 b3 04 30
        E 3 b3 04 24
        E 3 b3 04 0f
        E 3 b3 04 33
        E 3 b3 04 22
        E 3 b3 04 1b
        E 3 b3 04 2b
        E 3 b3 04 3b
        E 3 b3 04 45
        E 3 b3 04 49
        E 3 b3 04 12
        E 3 b3 04 44
        E 3 b3 04 65
        E 3 b3 04 3a
        E 3 b3 04 42
        E 3 b3 04 02
        E 3 b3 04 08
        E 3 b3 04 70
        E 3 b3 04 4a
        E 3 b3 04 14
        E 3 b3 04 68
        E 3 b3 04 24
        E 3 b3 04 2c
        E 3 b3 04 37
        E 3 b3 04 2d
        E 3 b3 04 4c
        E 3 b3 04 5c
        E 3 b3 04 21
        E 3 b3 04 40
        E 3 b3 04 1a
        E 3 b3 04 66
        E 3 b3 04 5e
        E 3 b3 04 34
        E 3 b3 04 29
        E 3 b3 04 5a
        E 3 b3 04 2a
        E 3 b3 04 50
        E 3 b3 04 10
        E 3 b3 04 01
        E 3 b3 04 25
        E 3 b3 04 39
        E 3 b3 04 62
        E 3 b3 04 58
        E 3 b3 04 03
        E 3 b3 04 63
        E 3 b3 04 53
        E 3 b3 04 06
        E 3 b3 04 23
        E 3 b3 04 43
        E 3 b3 04 55
        E 3 b3 04 6d
        E 3 b3 04 46
        E 3 b3 04 2f
        E 3 b3 04 1f
        E 3 b3 04 4f
        E 3 b3 04 52
        E 3 b3 04 64
        E 3 b3 04 6f
        E 3 b3 04 36
        E 3 b3 04 48
        E 3 b3 04 4e
        E 3 b3 04 3c
        E 3 b3 04 6b
        E 3 b3 04 11
        E 3 b3 04 28
        E 3 b3 04 4b
        E 1 b3 04 10
        E 1 b3 04 39
        E 1 b3 04 25
        E 1 b3 04 06
        E 1 b3 04 36
        E 1 b3 04 30
        E 1 b3 04 07
        E 1 b3 04 06
        E 1 b3 04 24
        E 1 b3 04 48
        E 1 b3 04 3c
        E 1 b3 04 42
        E 1 b3 04 2f
        E 1 b3 04 08
        E 1 b3 04 0e
        E 1 b3 04 33
        E 1 b3 04 2a
        E 1 b3 04 15
        E 1 b3 04 0f
        E 1 b3 04 14
        E 1 b3 04 3b
        E 1 b3 04 23
        E 1 b3 04 12
        E 1 b3 04 2b
        E 1 b3 04 4b
        E 1 b3 04 00
        E 1 b3 04 09
        E 1 b3 04 1f
        E 1 b3 04 19
        E 1 b3 04 3e
        E 1 b3 04 10
        E 1 b3 04 04
        E 1 b3 04 0c
        E 1 b3 04 0d
        E 1 b3 04 45
        E 1 b3 04 13
        E 1 b3 04 00
        E 1 b3 04 38
        E 1 b3 04 1a
        E 1 b3 04 0f
        E 1 b3 04 1e
        E 1 b3 04 13
        E 1 b3 04 40
        E 1 b3 04 40
        E 1 b3 04 4c
        E 1 b3 04 3f
        E 1 b3 04 21
        E 1 b3 04 46
        E 1 b3 04 36
        E 1 b3 04 09
        E 1 b3 04 21
        E 1 b3 04 28
        E 1 b3 04 48
        E 1 b3 04 3a
        E 1 b3 04 29
        E 1 b3 04 2a
        E 1 b3 04 03
        E 1 b3 04 07
        E 1 b3 04 46
        E 1 b3 04 3d
        E 1 b3 04 20
        E 1 b3 04 18
        E 1 b3 04 0a
        E 1 b3 04 22
        E 1 b3 04 16
        E 1 b3 04 12
        E 1 b3 04 1c
        E 1 b3 04 27
        E 1 b3 04 2e
        E 1 b3 04 31
        E 1 b3 04 0c
        E 1 b3 04 2d
        E 1 b3 04 43
        E 1 b3 04 27
        E 1 b3 04 2c
        E 1 b3 04 01
        E 1 b3 04 05
        E 1 b3 04 4b
        E 1 b3 04 31
        E 1 b3 04 0d
        E 1 b3 04 45
        E 1 b3 04 18
        E 1 b3 04 1d
        E 1 b3 04 25
        E 1 b3 04 1e
        E 1 b3 04 33
        E 1 b3 04 3d
        E 1 b3 04 16
        E 1 b3 04 2b
        E 1 b3 04 11
        E 1 b3 04 44
        E 1 b3 04 3f
        E 1 b3 04 22
        E 1 b3 04 1b
        E 1 b3 04 3c
        E 1 b3 04 1c
        E 1 b3 04 35
        E 1 b3 04 0a
        E 1 b3 04 01
        E 1 b3 04 19
        E 1 b3 04 26
        E 1 b3 04 41
        E 1 b3 04 3a
        E 1 b3 04 02
        E 1 b3 04 42
        E 1 b3 04 37
        E 1 b3 04 04
        E 1 b3 04 17
        E 1 b3 04 2d
        E 1 b3 04 39
        E 1 b3 04 49
        E 1 b3 04 2e
        E 1 b3 04 1f
        E 1 b3 04 15
        E 1 b3 04 34
        E 1 b3 04 37
        E 1 b3 04 43
        E 1 b3 04 4a
        E 1 b3 04 24
        E 1 b3 04 30
        E 1 b3 04 34
        E 1 b3 04 28
        E 1 b3 04 47
        E 1 b3 04 0b
        E 1 b3 04 1b
        E 1 b3 04 32
        E 8 b3 04 05
        E 8 b3 04 13
        E 8 b3 04 0c
        E 8 b3 04 02
        E 8 b3 04 12
        E 8 b3 04 10
        E 8 b3 04 02
        E 8 b3 04 02
        E 8 b3 04 0c
        E 8 b3 04 18
        E 8 b3 04 14
        E 8 b3 04 16
        E 8 b3 04 0f
        E 8 b3 04 02
        E 8 b3 04 04
        E 8 b3 04 11
        E 8 b3 04 0e
        E 8 b3 04 07
        E 8 b3 04 05
        E 8 b3 04 06
        E 8 b3 04 13
        E 8 b3 04 0b
        E 8 b3 04 06
        E 8 b3 04 0e
        E 8 b3 04 19
        E 8 b3 04 00
        E 8 b3 04 03
        E 8 b3 04 0a
        E 8 b3 04 08
        E 8 b3 04 14
        E 8 b3 04 05
        E 8 b3 04 01
        E 8 b3 04 04
        E 8 b3 04 04
        E 8 b3 04 17
        E 8 b3 04 06
        E 8 b3 04 00
        E 8 b3 04 12
        E 8 b3 04 08
        E 8 b3 04 05
        E 8 b3 04 0a
        E 8 b3 04 06
        E 8 b3 04 15
        E 8 b3 04 15
        E 8 b3 04 19
        E 8 b3 04 15
        E 8 b3 04 0b
        E 8 b3 04 17
        E 8 b3 04 12
        E 8 b3 04 03
        E 8 b3 04 0b
        E 8 b3 04 0d
        E 8 b3 04 18
        E 8 b3 04 13
        E 8 b3 04 0d
        E 8 b3 04 0e
        E 8 b3 04 01
        E 8 b3 04 02
        E 8 b3 04 17
        E 8 b3 04 14
        E 8 b3 04 0a
        E 8 b3 04 08
        E 8 b3 04 03
        E 8 b3 04 0b
        E 8 b3 04 07
        E 8 b3 04 06
        E 8 b3 04 09
        E 8 b3 04 0d
        E 8 b3 04 0f
        E 8 b3 04 10
        E 8 b3 04 04
        E 8 b3 04 0f
        E 8 b3 04 16
        E 8 b3 04 0d
        E 8 b3 04 0e
        E 8 b3 04 00
        E 8 b3 04 01
        E 8 b3 04 19
        E 8 b3 04 10
        E 8 b3 04 04
        E 8 b3 04 17
        E 8 b3 04 08
        E 8 b3 04 09
        E 8 b3 04 0c
        E 8 b3 04 0a
        E 8 b3 04 11
        E 8 b3 04 14
        E 8 b3 04 07
        E 8 b3 04 0e
        E 8 b3 04 05
        E 8 b3 04 16
        E 8 b3 04 15
        E 8 b3 04 0b
        E 8 b3 04 09
        E 8 b3 04 14
        E 8 b3 04 09
        E 8 b3 04 11
        E 8 b3 04 03
        E 8 b3 04 00
        E 8 b3 04 08
        E 8 b3 04 0c
        E 8 b3 04 15
        E 8 b3 04 13
        E 8 b3 04 00
        E 8 b3 04 16
        E 8 b3 04 12
        E 8 b3 04 01
        E 8 b3 04 07
        E 8 b3 04 0f
        E 8 b3 04 13
        E 8 b3 04 18
        E 8 b3 04 0f
        E 8 b3 04 0a
        E 8 b3 04 07
        E 8 b3 04 11
        E 8 b3 04 12
        E 8 b3 04 16
        E 8 b3 04 18
        E 8 b3 04 0c
        E 8 b3 04 10
        E 8 b3 04 11
        E 8 b3 04 0d
        E 8 b3 04 17
        E 8 b3 04 03
        E 8 b3 04 09
        E 8 b3 04 10
        E 6 b3 04 13
        E 6 b3 04 43
        E 6 b3 04 2c
        E 6 b3 04 07
        E 6 b3 04 3e
        E 6 b3 04 38
        E 6 b3 04 08
        E 6 b3 04 07
        E 6 b3 04 2a
        E 6 b3 04 54
        E 6 b3 04 46
        E 6 b3 04 4d
        E 6 b3 04 37
        E 6 b3 04 09
        E 6 b3 04 10
        E 6 b3 04 3c
        E 6 b3 04 31
        E 6 b3 04 19
        E 6 b3 04 11
        E 6 b3 04 17
        E 6 b3 04 45
        E 6 b3 04 29
        E 6 b3 04 15
        E 6 b3 04 33
        E 6 b3 04 58
        E 6 b3 04 00
        E 6 b3 04 0b
        E 6 b3 04 24
        E 6 b3 04 1e
        E 6 b3 04 48
        E 6 b3 04 12
        E 6 b3 04 05
        E 6 b3 04 0e
        E 6 b3 04 0f
        E 6 b3 04 50
        E 6 b3 04 16
        E 6 b3 04 00
        E 6 b3 04 41
        E 6 b3 04 1e
        E 6 b3 04 12
        E 6 b3 04 23
        E 6 b3 04 17
        E 6 b3 04 4b
        E 6 b3 04 4a
        E 6 b3 04 58
        E 6 b3 04 4a
        E 6 b3 04 26
        E 6 b3 04 52
        E 6 b3 04 3f
        E 6 b3 04 0a
        E 6 b3 04 27
        E 6 b3 04 2f
        E 6 b3 04 54
        E 6 b3 04 43
        E 6 b3 04 30
        E 6 b3 04 31
        E 6 b3 04 04
        E 6 b3 04 09
        E 6 b3 04 51
        E 6 b3 04 47
        E 6 b3 04 25
        E 6 b3 04 1c
        E 6 b3 04 0b
        E 6 b3 04 27
        E 6 b3 04 1a
        E 6 b3 04 15
        E 6 b3 04 21
        E 6 b3 04 2e
        E 6 b3 04 35
        E 6 b3 04 39
        E 6 b3 04 0e
        E 6 b3 04 35
        E 6 b3 04 4f
        E 6 b3 04 2d
        E 6 b3 04 33
        E 6 b3 04 02
        E 6 b3 04 06
        E 6 b3 04 57
        E 6 b3 04 3a
        E 6 b3 04 10
        E 6 b3 04 51
        E 6 b3 04 1c
        E 6 b3 04 22
        E 6 b3 04 2b
        E 6 b3 04 23
        E 6 b3 04 3b
        E 6 b3 04 48
        E 6 b3 04 19
        E 6 b3 04 32
        E 6 b3 04 14
        E 6 b3 04 4f
        E 6 b3 04 49
        E 6 b3 04 28
        E 6 b3 04 20
        E 6 b3 04 46
        E 6 b3 04 20
        E 6 b3 04 3e
        E 6 b3 04 0c
        E 6 b3 04 01
        E 6 b3 04 1d
        E 6 b3 04 2c
        E 6 b3 04 4c
        E 6 b3 04 44
        E 6 b3 04 02
        E 6 b3 04 4d
        E 6 b3 04 41
        E 6 b3 04 04
        E 6 b3 04 1b
        E 6 b3 04 34
        E 6 b3 04 42
        E 6 b3 04 55
        E 6 b3 04 36
        E 6 b3 04 25
        E 6 b3 04 18
        E 6 b3 04 3d
        E 6 b3 04 40
        E 6 b3 04 4e
        E 6 b3 04 56
        E 6 b3 04 2a
        E 6 b3 04 38
        E 6 b3 04 3c
        E 6 b3 04 2e
        E 6 b3 04 53
        E 6 b3 04 0d
        E 6 b3 04 1f
        E 6 b3 04 3a
        E 1 b3 04 0b
        E 1 b3 04 26
        E 1 b3 04 19
        E 1 b3 04 04
        E 1 b3 04 24
        E 1 b3 04 20
        E 1 b3 04 04
        E 1 b3 04 04
        E 1 b3 04 18
        E 1 b3 04 30
        E 1 b3 04 28
        E 1 b3 04 2c
        E 1 b3 04 1f
        E 1 b3 04 05
        E 1 b3 04 09
        E 1 b3 04 22
        E 1 b3 04 1c
        E 1 b3 04 0e
        E 1 b3 04 0a
        E 1 b3 04 0d
        E 1 b3 04 27
        E 1 b3 04 17
        E 1 b3 04 0c
        E 1 b3 04 1d
        E 1 b3 04 32
        E 1 b3 04 00
        E 1 b3 04 06
        E 1 b3 04 14
        E 1 b3 04 11
        E 1 b3 04 29
        E 1 b3 04 0a
        E 1 b3 04 03
        E 1 b3 04 08
        E 1 b3 04 08
        E 1 b3 04 2e
        E 1 b3 04 0c
        E 1 b3 04 00
        E 1 b3 04 25
        E 1 b3 04 11
        E 1 b3 04 0a
        E 1 b3 04 14
        E 1 b3 04 0d
        E 1 b3 04 2b
        E 1 b3 04 2a
        E 1 b3 04 32
        E 1 b3 04 2a
        E 1 b3 04 16
        E 1 b3 04 2f
        E 1 b3 04 24
        E 1 b3 04 06
        E 1 b3 04 16
        E 1 b3 04 1b
        E 1 b3 04 30
        E 1 b3 04 26
        E 1 b3 04 1b
        E 1 b3 04 1c
        E 1 b3 04 02
        E 1 b3 04 05
        E 1 b3 04 2e
        E 1 b3 04 28
        E 1 b3 04 15
        E 1 b3 04 10
        E 1 b3 04 06
        E 1 b3 04 16
        E 1 b3 04 0f
        E 1 b3 04 0c
        E 1 b3 04 13
        E 1 b3 04 1a
        E 1 b3 04 1e
        E 1 b3 04 20
        E 1 b3 04 08
        E 1 b3 04 1e
        E 1 b3 04 2d
        E 1 b3 04 1a
        E 1 b3 04 1d
        E 1 b3 04 01
        E 1 b3 04 03
        E 1 b3 04 32
        E 1 b3 04 21
        E 1 b3 04 09
        E 1 b3 04 2e
        E 1 b3 04 10
        E 1 b3 04 13
        E 1 b3 04 18
        E 1 b3 04 14
        E 1 b3 04 22
        E 1 b3 04 29
        E 1 b3 04 0e
        E 1 b3 04 1c
        E 1 b3 04 0b
        E 1 b3 04 2d
        E 1 b3 04 2a
        E 1 b3 04 17
        E 1 b3 04 12
        E 1 b3 04 28
        E 1 b3 04 12
        E 1 b3 04 23
        E 1 b3 04 07
        E 1 b3 04 00
        E 1 b3 04 10
        E 1 b3 04 19
        E 1 b3 04 2b
        E 1 b3 04 27
        E 1 b3 04 01
        E 1 b3 04 2c
        E 1 b3 04 25
        E 1 b3 04 02
        E 1 b3 04 0f
        E 1 b3 04 1e
        E 1 b3 04 26
        E 1 b3 04 30
        E 1 b3 04 1f
        E 1 b3 04 15
        E 1 b3 04 0e
        E 1 b3 04 23
        E 1 b3 04 24
        E 1 b3 04 2c
        E 1 b3 04 31
        E 1 b3 04 18
        E 1 b3 04 20
        E 1 b3 04 22
        E 1 b3 04 1a
        E 1 b3 04 2f
        E 1 b3 04 07
        E 1 b3 04 12
        E 1 b3 04 21
        E 15 b3 04 1c
        E 15 b3 04 60
        E 15 b3 04 3f
        E 15 b3 04 0a
        E 15 b3 04 5a
        E 15 b3 04 50
        E 15 b3 04 0c
        E 15 b3 04 0b
        E 15 b3 04 3d
        E 15 b3 04 78
        E 15 b3 04 65
        E 15 b3 04 6f
        E 15 b3 04 4f
        E 15 b3 04 0e
        E 15 b3 04 18
        E 15 b3 04 56
        E 15 b3 04 46
        E 15 b3 04 24
        E 15 b3 04 19
        E 15 b3 04 22
        E 15 b3 04 63
        E 15 b3 04 3b
        E 15 b3 04 1e
        E 15 b3 04 49
        E 15 b3 04 7e
        E 15 b3 04 00
        E 15 b3 04 10
        E 15 b3 04 34
        E 15 b3 04 2b
        E 15 b3 04 68
        E 15 b3 04 1b
        E 15 b3 04 08
        E 15 b3 04 14
        E 15 b3 04 16
        E 15 b3 04 73
        E 15 b3 04 20
        E 15 b3 04 01
        E 15 b3 04 5e
        E 15 b3 04 2c
        E 15 b3 04 1a
        E 15 b3 04 32
        E 15 b3 04 21
        E 15 b3 04 6c
        E 15 b3 04 6b
        E 15 b3 04 7f
        E 15 b3 04 6a
        E 15 b3 04 37
        E 15 b3 04 76
        E 15 b3 04 5b
        E 15 b3 04 0f
        E 15 b3 04 38
        E 15 b3 04 44
        E 15 b3 04 79
        E 15 b3 04 61
        E 15 b3 04 45
        E 15 b3 04 47
        E 15 b3 04 06
        E 15 b3 04 0d
        E 15 b3 04 75
        E 15 b3 04 66
        E 15 b3 04 36
        E 15 b3 04 28
        E 15 b3 04 11
        E 15 b3 04 39
        E 15 b3 04 26
        E 15 b3 04 1f
        E 15 b3 04 30
        E 15 b3 04 42
        E 15 b3 04 4d
        E 15 b3 04 52
        E 15 b3 04 15
        E 15 b3 04 4c
        E 15 b3 04 71
        E 15 b3 04 41
        E 15 b3 04 4a
        E 15 b3 04 03
        E 15 b3 04 09
        E 15 b3 04 7d
        E 15 b3 04 53
        E 15 b3 04 17
        E 15 b3 04 74
        E 15 b3 04 29
        E 15 b3 04 31
        E 15 b3 04 3e
        E 15 b3 04 33
        E 15 b3 04 55
        E 15 b3 04 67
        E 15 b3 04 25
        E 15 b3 04 48
        E 15 b3 04 1d
        E 15 b3 04 72
        E 15 b3 04 69
        E 15 b3 04 3a
        E 15 b3 04 2e
        E 15 b3 04 64
        E 15 b3 04 2f
        E 15 b3 04 59
        E 15 b3 04 12
        E 15 b3 04 02
        E 15 b3 04 2a
        E 15 b3 04 40
        E 15 b3 04 6d
        E 15 b3 04 62
        E 15 b3 04 04
        E 15 b3 04 6e
        E 15 b3 04 5d
        E 15 b3 04 07
        E 15 b3 04 27
        E 15 b3 04 4b
        E 15 b3 04 5f
        E 15 b3 04 7a
        E 15 b3 04 4e
        E 15 b3 04 35
        E 15 b3 04 23
        E 15 b3 04 58
        E 15 b3 04 5c
        E 15 b3 04 70
        E 15 b3 04 7c
        E 15 b3 04 3c
        E 15 b3 04 51
        E 15 b3 04 57
        E 15 b3 04 43
        E 15 b3 04 77
        E 15 b3 04 13
        E 15 b3 04 2d
        E 15 b3 04 54
        E 11 b3 04 0c
        E 11 b3 04 0d
        E 11 b3 04 0e
        E 11 b3 04 0e
        E 11 b3 04 0f
        E 11 b3 04 0f
        E 11 b3 04 10
        E 11 b3 04 11
        E 11 b3 04 11
        E 11 b3 04 12
        E 11 b3 04 12
        E 11 b3 04 13
        E 11 b3 04 13
        E 11 b3 04 14
        E 11 b3 04 14
        E 11 b3 04 15
        E 11 b3 04 15
        E 11 b3 04 16
        E 11 b3 04 16
        E 11 b3 04 17
        E 11 b3 04 17
        E 11 b3 04 17
        E 11 b3 04 18
        E 11 b3 04 18
        E 11 b3 04 18
        E 11 b3 04 18
        E 11 b3 04 18
        E 11 b3 04 19
        E 11 b3 04 19
        E 11 b3 04 19
        E 11 b3 04 19
        E 11 b3 04 19
        E 11 b3 04 19
        E 11 b3 04 19
        E 11 b3 04 19
        E 11 b3 04 19
        E 11 b3 04 19
        E 11 b3 04 19
        E 11 b3 04 18
        E 11 b3 04 18
        E 11 b3 04 18
        E 11 b3 04 18
        E 11 b3 04 17
        E 11 b3 04 17
        E 11 b3 04 17
        E 11 b3 04 16
        E 11 b3 04 16
        E 11 b3 04 16
        E 11 b3 04 15
        E 11 b3 04 15
        E 11 b3 04 14
        E 11 b3 04 14
        E 11 b3 04 13
        E 11 b3 04 13
        E 11 b3 04 12
        E 11 b3 04 11
        E 11 b3 04 11
        E 11 b3 04 10
        E 11 b3 04 10
        E 11 b3 04 0f
        E 11 b3 04 0e
        E 11 b3 04 0e
        E 11 b3 04 0d
        E 11 b3 04 0d
        E 11 b3 04 0c
        E 11 b3 04 0b
        E 11 b3 04 0b
        E 11 b3 04 0a
        E 11 b3 04 09
        E 11 b3 04 09
        E 11 b3 04 08
        E 11 b3 04 08
        E 11 b3 04 07
        E 11 b3 04 07
        E 11 b3 04 06
        E 11 b3 04 05
        E 11 b3 04 05
        E 11 b3 04 04
        E 11 b3 04 04
        E 11 b3 04 03
        E 11 b3 04 03
        E 11 b3 04 03
        E 11 b3 04 02
        E 11 b3 04 02
        E 11 b3 04 02
        E 11 b3 04 01
        E 11 b3 04 01
        E 11 b3 04 01
        E 11 b3 04 00
        E 11 b3 04 00
        E 11 b3 04 00
        E 11 b3 04 00
        E 11 b3 04 00
        E 11 b3 04 00
        E 11 b3 04 00
        E 11 b3 04 00
        E 11 b3 04 00
        E 11 b3 04 00
        E 11 b3 04 00
        E 11 b3 04 00
        E 11 b3 04 00
        E 11 b3 04 00
        E 11 b3 04 00
        E 11 b3 04 01
        E 11 b3 04 01
        E 11 b3 04 01
        E 11 b3 04 01
        E 11 b3 04 02
        E 11 b3 04 02
        E 11 b3 04 02
        E 11 b3 04 03
        E 11 b3 04 03
        E 11 b3 04 04
        E 11 b3 04 04
        E 11 b3 04 05
        E 11 b3 04 05
        E 11 b3 04 06
        E 11 b3 04 06
        E 11 b3 04 07
        E 11 b3 04 07
        E 11 b3 04 08
        E 11 b3 04 09
        E 11 b3 04 09
        E 11 b3 04 0a
        E 11 b3 04 0a
        E 11 b3 04 0b
        E 11 b3 04 0c
        E 11 b3 04 0c
        E 8 b3 04 2c
        E 8 b3 04 2e
        E 8 b3 04 31
        E 8 b3 04 33
        E 8 b3 04 35
        E 8 b3 04 37
        E 8 b3 04 39
        E 8 b3 04 3b
        E 8 b3 04 3d
        E 8 b3 04 3f
        E 8 b3 04 41
        E 8 b3 04 43
        E 8 b3 04 45
        E 8 b3 04 47
        E 8 b3 04 48
        E 8 b3 04 4a
        E 8 b3 04 4c
        E 8 b3 04 4d
        E 8 b3 04 4f
        E 8 b3 04 50
        E 8 b3 04 51
        E 8 b3 04 52
        E 8 b3 04 54
        E 8 b3 04 54
        E 8 b3 04 55
        E 8 b3 04 56
        E 8 b3 04 56
        E 8 b3 04 57
        E 8 b3 04 58
        E 8 b3 04 58
        E 8 b3 04 58
        E 8 b3 04 58
        E 8 b3 04 58
        E 8 b3 04 58
        E 8 b3 04 58
        E 8 b3 04 58
        E 8 b3 04 58
        E 8 b3 04 57
        E 8 b3 04 56
        E 8 b3 04 56
        E 8 b3 04 55
        E 8 b3 04 54
        E 8 b3 04 53
        E 8 b3 04 51
        E 8 b3 04 51
        E 8 b3 04 4f
        E 8 b3 04 4e
        E 8 b3 04 4d
        E 8 b3 04 4b
        E 8 b3 04 49
        E 8 b3 04 48
        E 8 b3 04 46
        E 8 b3 04 44
        E 8 b3 04 42
        E 8 b3 04 40
        E 8 b3 04 3e
        E 8 b3 04 3c
        E 8 b3 04 3a
        E 8 b3 04 38
        E 8 b3 04 36
        E 8 b3 04 33
        E 8 b3 04 31
        E 8 b3 04 2f
        E 8 b3 04 2d
        E 8 b3 04 2b
        E 8 b3 04 29
        E 8 b3 04 27
        E 8 b3 04 25
        E 8 b3 04 22
        E 8 b3 04 20
        E 8 b3 04 1e
        E 8 b3 04 1c
        E 8 b3 04 1a
        E 8 b3 04 18
        E 8 b3 04 16
        E 8 b3 04 14
        E 8 b3 04 12
        E 8 b3 04 10
        E 8 b3 04 0f
        E 8 b3 04 0d
        E 8 b3 04 0b
        E 8 b3 04 0a
        E 8 b3 04 09
        E 8 b3 04 07
        E 8 b3 04 07
        E 8 b3 04 05
        E 8 b3 04 04
        E 8 b3 04 03
        E 8 b3 04 02
        E 8 b3 04 02
        E 8 b3 04 01
        E 8 b3 04 00
        E 8 b3 04 00
        E 8 b3 04 00
        E 8 b3 04 00
        E 8 b3 04 00
        E 8 b3 04 00
        E 8 b3 04 00
        E 8 b3 04 00
        E 8 b3 04 00
        E 8 b3 04 01
        E 8 b3 04 02
        E 8 b3 04 02
        E 8 b3 04 03
        E 8 b3 04 04
        E 8 b3 04 04
        E 8 b3 04 06
        E 8 b3 04 07
        E 8 b3 04 08
        E 8 b3 04 09
        E 8 b3 04 0b
        E 8 b3 04 0c
        E 8 b3 04 0e
        E 8 b3 04 10
        E 8 b3 04 11
        E 8 b3 04 13
        E 8 b3 04 15
        E 8 b3 04 17
        E 8 b3 04 19
        E 8 b3 04 1b
        E 8 b3 04 1d
        E 8 b3 04 1f
        E 8 b3 04 21
        E 8 b3 04 23
        E 8 b3 04 25
        E 8 b3 04 27
        E 8 b3 04 2a
        E 8 b3 04 2c
        E 2 b3 04 19
        E 2 b3 04 1a
        E 2 b3 04 1c
        E 2 b3 04 1d
        E 2 b3 04 1e
        E 2 b3 04 1f
        E 2 b3 04 20
        E 2 b3 04 22
        E 2 b3 04 23
        E 2 b3 04 24
        E 2 b3 04 25
        E 2 b3 04 26
        E 2 b3 04 27
        E 2 b3 04 28
        E 2 b3 04 29
        E 2 b3 04 2a
        E 2 b3 04 2b
        E 2 b3 04 2c
        E 2 b3 04 2d
        E 2 b3 04 2e
        E 2 b3 04 2e
        E 2 b3 04 2f
        E 2 b3 04 30
        E 2 b3 04 30
        E 2 b3 04 30
        E 2 b3 04 31
        E 2 b3 04 31
        E 2 b3 04 32
        E 2 b3 04 32
        E 2 b3 04 32
        E 2 b3 04 32
        E 2 b3 04 32
        E 2 b3 04 32
        E 2 b3 04 32
        E 2 b3 04 32
        E 2 b3 04 32
        E 2 b3 04 32
        E 2 b3 04 32
        E 2 b3 04 31
        E 2 b3 04 31
        E 2 b3 04 30
        E 2 b3 04 30
        E 2 b3 04 2f
        E 2 b3 04 2e
        E 2 b3 04 2e
        E 2 b3 04 2d
        E 2 b3 04 2c
        E 2 b3 04 2c
        E 2 b3 04 2b
        E 2 b3 04 2a
        E 2 b3 04 29
        E 2 b3 04 28
        E 2 b3 04 27
        E 2 b3 04 26
        E 2 b3 04 24
        E 2 b3 04 23
        E 2 b3 04 22
        E 2 b3 04 21
        E 2 b3 04 20
        E 2 b3 04 1f
        E 2 b3 04 1d
        E 2 b3 04 1c
        E 2 b3 04 1b
        E 2 b3 04 1a
        E 2 b3 04 18
        E 2 b3 04 17
        E 2 b3 04 16
        E 2 b3 04 15
        E 2 b3 04 13
        E 2 b3 04 12
        E 2 b3 04 11
        E 2 b3 04 10
        E 2 b3 04 0f
        E 2 b3 04 0e
        E 2 b3 04 0c
        E 2 b3 04 0b
        E 2 b3 04 0a
        E 2 b3 04 09
        E 2 b3 04 08
        E 2 b3 04 07
        E 2 b3 04 06
        E 2 b3 04 06
        E 2 b3 04 05
        E 2 b3 04 04
        E 2 b3 04 04
        E 2 b3 04 03
        E 2 b3 04 02
        E 2 b3 04 02
        E 2 b3 04 01
        E 2 b3 04 01
        E 2 b3 04 00
        E 2 b3 04 00
        E 2 b3 04 00
        E 2 b3 04 00
        E 2 b3 04 00
        E 2 b3 04 00
        E 2 b3 04 00
        E 2 b3 04 00
        E 2 b3 04 00
        E 2 b3 04 00
        E 2 b3 04 00
        E 2 b3 04 01
        E 2 b3 04 01
        E 2 b3 04 02
        E 2 b3 04 02
        E 2 b3 04 02
        E 2 b3 04 03
        E 2 b3 04 04
        E 2 b3 04 04
        E 2 b3 04 05
        E 2 b3 04 06
        E 2 b3 04 07
        E 2 b3 04 08
        E 2 b3 04 09
        E 2 b3 04 0a
        E 2 b3 04 0b
        E 2 b3 04 0c
        E 2 b3 04 0d
        E 2 b3 04 0e
        E 2 b3 04 0f
        E 2 b3 04 10
        E 2 b3 04 12
        E 2 b3 04 13
        E 2 b3 04 14
        E 2 b3 04 15
        E 2 b3 04 16
        E 2 b3 04 18
        E 2 b3 04 19
        E 19 b3 04 40
        E 19 b3 04 43
        E 19 b3 04 46
        E 19 b3 04 49
        E 19 b3 04 4c
        E 19 b3 04 4f
        E 19 b3 04 52
        E 19 b3 04 55
        E 19 b3 04 58
        E 19 b3 04 5b
        E 19 b3 04 5e
        E 19 b3 04 60
        E 19 b3 04 63
        E 19 b3 04 66
        E 19 b3 04 68
        E 19 b3 04 6a
        E 19 b3 04 6d
        E 19 b3 04 6f
        E 19 b3 04 71
        E 19 b3 04 73
        E 19 b3 04 75
        E 19 b3 04 76
        E 19 b3 04 78
        E 19 b3 04 79
        E 19 b3 04 7a
        E 19 b3 04 7b
        E 19 b3 04 7c
        E 19 b3 04 7d
        E 19 b3 04 7e
        E 19 b3 04 7e
        E 19 b3 04 7f
        E 19 b3 04 7f
        E 19 b3 04 7f
        E 19 b3 04 7f
        E 19 b3 04 7f
        E 19 b3 04 7e
        E 19 b3 04 7e
        E 19 b3 04 7d
        E 19 b3 04 7c
        E 19 b3 04 7b
        E 19 b3 04 7a
        E 19 b3 04 78
        E 19 b3 04 77
        E 19 b3 04 75
        E 19 b3 04 74
        E 19 b3 04 72
        E 19 b3 04 70
        E 19 b3 04 6e
        E 19 b3 04 6c
        E 19 b3 04 69
        E 19 b3 04 67
        E 19 b3 04 64
        E 19 b3 04 62
        E 19 b3 04 5f
        E 19 b3 04 5c
        E 19 b3 04 59
        E 19 b3 04 57
        E 19 b3 04 54
        E 19 b3 04 51
        E 19 b3 04 4e
        E 19 b3 04 4a
        E 19 b3 04 47
        E 19 b3 04 44
        E 19 b3 04 41
        E 19 b3 04 3e
        E 19 b3 04 3b
        E 19 b3 04 38
        E 19 b3 04 35
        E 19 b3 04 31
        E 19 b3 04 2e
        E 19 b3 04 2b
        E 19 b3 04 28
        E 19 b3 04 26
        E 19 b3 04 23
        E 19 b3 04 20
        E 19 b3 04 1d
        E 19 b3 04 1b
        E 19 b3 04 18
        E 19 b3 04 16
        E 19 b3 04 13
        E 19 b3 04 11
        E 19 b3 04 0f
        E 19 b3 04 0d
        E 19 b3 04 0b
        E 19 b3 04 0a
        E 19 b3 04 08
        E 19 b3 04 07
        E 19 b3 04 05
        E 19 b3 04 04
        E 19 b3 04 03
        E 19 b3 04 02
        E 19 b3 04 01
        E 19 b3 04 01
        E 19 b3 04 00
        E 19 b3 04 00
        E 19 b3 04 00
        E 19 b3 04 00
        E 19 b3 04 00
        E 19 b3 04 01
        E 19 b3 04 01
        E 19 b3 04 02
        E 19 b3 04 03
        E 19 b3 04 04
        E 19 b3 04 05
        E 19 b3 04 06
        E 19 b3 04 07
        E 19 b3 04 09
        E 19 b3 04 0a
        E 19 b3 04 0c
        E 19 b3 04 0e
        E 19 b3 04 10
        E 19 b3 04 12
        E 19 b3 04 15
        E 19 b3 04 17
        E 19 b3 04 19
        E 19 b3 04 1c
        E 19 b3 04 1f
        E 19 b3 04 21
        E 19 b3 04 24
        E 19 b3 04 27
        E 19 b3 04 2a
        E 19 b3 04 2d
        E 19 b3 04 30
        E 19 b3 04 33
        E 19 b3 04 36
        E 19 b3 04 39
        E 19 b3 04 3c
        E 19 b3 04 40
        E 4 b3 04 39
        E 4 b3 04 3c
        E 4 b3 04 3f
        E 4 b3 04 41
        E 4 b3 04 44
        E 4 b3 04 47
        E 4 b3 04 49
        E 4 b3 04 4c
        E 4 b3 04 4f
        E 4 b3 04 51
        E 4 b3 04 54
        E 4 b3 04 56
        E 4 b3 04 59
        E 4 b3 04 5b
        E 4 b3 04 5d
        E 4 b3 04 5f
        E 4 b3 04 62
        E 4 b3 04 63
        E 4 b3 04 65
        E 4 b3 04 67
        E 4 b3 04 69
        E 4 b3 04 6a
        E 4 b3 04 6c
        E 4 b3 04 6c
        E 4 b3 04 6d
        E 4 b3 04 6e
        E 4 b3 04 6f
        E 4 b3 04 70
        E 4 b3 04 71
        E 4 b3 04 71
        E 4 b3 04 72
        E 4 b3 04 72
        E 4 b3 04 72
        E 4 b3 04 72
        E 4 b3 04 72
        E 4 b3 04 71
        E 4 b3 04 71
        E 4 b3 04 70
        E 4 b3 04 6f
        E 4 b3 04 6e
        E 4 b3 04 6d
        E 4 b3 04 6c
        E 4 b3 04 6b
        E 4 b3 04 69
        E 4 b3 04 68
        E 4 b3 04 66
        E 4 b3 04 64
        E 4 b3 04 63
        E 4 b3 04 61
        E 4 b3 04 5e
        E 4 b3 04 5c
        E 4 b3 04 5a
        E 4 b3 04 58
        E 4 b3 04 55
        E 4 b3 04 52
        E 4 b3 04 50
        E 4 b3 04 4e
        E 4 b3 04 4b
        E 4 b3 04 48
        E 4 b3 04 46
        E 4 b3 04 42
        E 4 b3 04 3f
        E 4 b3 04 3d
        E 4 b3 04 3a
        E 4 b3 04 37
        E 4 b3 04 35
        E 4 b3 04 32
        E 4 b3 04 2f
        E 4 b3 04 2c
        E 4 b3 04 29
        E 4 b3 04 26
        E 4 b3 04 24
        E 4 b3 04 22
        E 4 b3 04 1f
        E 4 b3 04 1c
        E 4 b3 04 1a
        E 4 b3 04 18
        E 4 b3 04 15
        E 4 b3 04 13
        E 4 b3 04 11
        E 4 b3 04 0f
        E 4 b3 04 0d
        E 4 b3 04 0b
        E 4 b3 04 09
        E 4 b3 04 09
        E 4 b3 04 07
        E 4 b3 04 06
        E 4 b3 04 04
        E 4 b3 04 03
        E 4 b3 04 02
        E 4 b3 04 01
        E 4 b3 04 00
        E 4 b3 04 00
        E 4 b3 04 00
        E 4 b3 04 00
        E 4 b3 04 00
        E 4 b3 04 00
        E 4 b3 04 00
        E 4 b3 04 00
        E 4 b3 04 00
        E 4 b3 04 01
        E 4 b3 04 02
        E 4 b3 04 03
        E 4 b3 04 04
        E 4 b3 04 05
        E 4 b3 04 06
        E 4 b3 04 08
        E 4 b3 04 09
        E 4 b3 04 0a
        E 4 b3 04 0c
        E 4 b3 04 0e
        E 4 b3 04 10
        E 4 b3 04 12
        E 4 b3 04 14
        E 4 b3 04 16
        E 4 b3 04 19
        E 4 b3 04 1b
        E 4 b3 04 1d
        E 4 b3 04 20
        E 4 b3 04 23
        E 4 b3 04 25
        E 4 b3 04 28
        E 4 b3 04 2b
        E 4 b3 04 2d
        E 4 b3 04 30
        E 4 b3 04 33
        E 4 b3 04 36
        E 4 b3 04 39
        E 2 b3 04 26
        E 2 b3 04 28
        E 2 b3 04 2a
        E 2 b3 04 2b
        E 2 b3 04 2d
        E 2 b3 04 2f
        E 2 b3 04 31
        E 2 b3 04 33
        E 2 b3 04 34
        E 2 b3 04 36
        E 2 b3 04 38
        E 2 b3 04 39
        E 2 b3 04 3b
        E 2 b3 04 3d
        E 2 b3 04 3e
        E 2 b3 04 3f
        E 2 b3 04 41
        E 2 b3 04 42
        E 2 b3 04 43
        E 2 b3 04 45
        E 2 b3 04 46
        E 2 b3 04 46
        E 2 b3 04 48
        E 2 b3 04 48
        E 2 b3 04 49
        E 2 b3 04 49
        E 2 b3 04 4a
        E 2 b3 04 4b
        E 2 b3 04 4b
        E 2 b3 04 4b
        E 2 b3 04 4c
        E 2 b3 04 4c
        E 2 b3 04 4c
        E 2 b3 04 4c
        E 2 b3 04 4c
        E 2 b3 04 4b
        E 2 b3 04 4b
        E 2 b3 04 4b
        E 2 b3 04 4a
        E 2 b3 04 49
        E 2 b3 04 49
        E 2 b3 04 48
        E 2 b3 04 47
        E 2 b3 04 46
        E 2 b3 04 45
        E 2 b3 04 44
        E 2 b3 04 43
        E 2 b3 04 42
        E 2 b3 04 40
        E 2 b3 04 3f
        E 2 b3 04 3d
        E 2 b3 04 3c
        E 2 b3 04 3a
        E 2 b3 04 39
        E 2 b3 04 37
        E 2 b3 04 35
        E 2 b3 04 34
        E 2 b3 04 32
        E 2 b3 04 30
        E 2 b3 04 2e
        E 2 b3 04 2c
        E 2 b3 04 2a
        E 2 b3 04 28
        E 2 b3 04 27
        E 2 b3 04 25
        E 2 b3 04 23
        E 2 b3 04 21
        E 2 b3 04 1f
        E 2 b3 04 1d
        E 2 b3 04 1b
        E 2 b3 04 19
        E 2 b3 04 18
        E 2 b3 04 16
        E 2 b3 04 15
        E 2 b3 04 13
        E 2 b3 04 11
        E 2 b3 04 10
        E 2 b3 04 0e
        E 2 b3 04 0d
        E 2 b3 04 0b
        E 2 b3 04 0a
        E 2 b3 04 09
        E 2 b3 04 07
        E 2 b3 04 06
        E 2 b3 04 06
        E 2 b3 04 04
        E 2 b3 04 04
        E 2 b3 04 03
        E 2 b3 04 02
        E 2 b3 04 01
        E 2 b3 04 01
        E 2 b3 04 00
        E 2 b3 04 00
        E 2 b3 04 00
        E 2 b3 04 00
        E 2 b3 04 00
        E 2 b3 04 00
        E 2 b3 04 00
        E 2 b3 04 00
        E 2 b3 04 00
        E 2 b3 04 01
        E 2 b3 04 01
        E 2 b3 04 02
        E 2 b3 04 03
        E 2 b3 04 03
        E 2 b3 04 04
        E 2 b3 04 05
        E 2 b3 04 06
        E 2 b3 04 07
        E 2 b3 04 08
        E 2 b3 04 09
        E 2 b3 04 0a
        E 2 b3 04 0c
        E 2 b3 04 0d
        E 2 b3 04 0f
        E 2 b3 04 10
        E 2 b3 04 12
        E 2 b3 04 13
        E 2 b3 04 15
        E 2 b3 04 17
        E 2 b3 04 19
        E 2 b3 04 1b
        E 2 b3 04 1c
        E 2 b3 04 1e
        E 2 b3 04 20
        E 2 b3 04 22
        E 2 b3 04 24
        E 2 b3 04 26
        E 11 b3 04 0c
        E 11 b3 04 0d
        E 11 b3 04 0e
        E 11 b3 04 0e
        E 11 b3 04 0f
        E 11 b3 04 0f
        E 11 b3 04 10
        E 11 b3 04 11
        E 11 b3 04 11
        E 11 b3 04 12
        E 11 b3 04 12
        E 11 b3 04 13
        E 11 b3 04 13
        E 11 b3 04 14
        E 11 b3 04 14
        E 11 b3 04 15
        E 11 b3 04 15
        E 11 b3 04 16
        E 11 b3 04 16
        E 11 b3 04 17
        E 11 b3 04 17
        E 11 b3 04 17
        E 11 b3 04 18
        E 11 b3 04 18
        E 11 b3 04 18
        E 11 b3 04 18
        E 11 b3 04 18
        E 11 b3 04 19
        E 11 b3 04 19
        E 11 b3 04 19
        E 11 b3 04 19
        E 11 b3 04 19
        E 11 b3 04 19
        E 11 b3 04 19
        E 11 b3 04 19
        E 11 b3 04 19
        E 11 b3 04 19
        E 11 b3 04 19
        E 11 b3 04 18
        E 11 b3 04 18
        E 11 b3 04 18
        E 11 b3 04 18
        E 11 b3 04 17
        E 11 b3 04 17
        E 11 b3 04 17
        E 11 b3 04 16
        E 11 b3 04 16
        E 11 b3 04 16
        E 11 b3 04 15
        E 11 b3 04 15
        E 11 b3 04 14
        E 11 b3 04 14
        E 11 b3 04 13
        E 11 b3 04 13
        E 11 b3 04 12
        E 11 b3 04 11
        E 11 b3 04 11
        E 11 b3 04 10
        E 11 b3 04 10
        E 11 b3 04 0f
        E 11 b3 04 0e
        E 11 b3 04 0e
        E 11 b3 04 0d
        E 11 b3 04 0d
        E 11 b3 04 0c
        E 11 b3 04 0b
        E 11 b3 04 0b
        E 11 b3 04 0a
        E 11 b3 04 09
        E 11 b3 04 09
        E 11 b3 04 08
        E 11 b3 04 08
        E 11 b3 04 07
        E 11 b3 04 07
        E 11 b3 04 06
        E 11 b3 04 05
        E 11 b3 04 05
        E 11 b3 04 04
        E 11 b3 04 04
        E 11 b3 04 03
        E 11 b3 04 03
        E 11 b3 04 03
        E 11 b3 04 02
        E 11 b3 04 02
        E 11 b3 04 02
        E 11 b3 04 01
        E 11 b3 04 01
        E 11 b3 04 01
        E 11 b3 04 00
        E 11 b3 04 00
        E 11 b3 04 00
        E 11 b3 04 00
        E 11 b3 04 00
        E 11 b3 04 00
        E 11 b3 04 00
        E 11 b3 04 00
        E 11 b3 04 00
        E 11 b3 04 00
        E 11 b3 04 00
        E 11 b3 04 00
        E 11 b3 04 00
        E 11 b3 04 00
        E 11 b3 04 00
        E 11 b3 04 01
        E 11 b3 04 01
        E 11 b3 04 01
        E 11 b3 04 01
        E 11 b3 04 02
        E 11 b3 04 02
        E 11 b3 04 02
        E 11 b3 04 03
        E 11 b3 04 03
        E 11 b3 04 04
        E 11 b3 04 04
        E 11 b3 04 05
        E 11 b3 04 05
        E 11 b3 04 06
        E 11 b3 04 06
        E 11 b3 04 07
        E 11 b3 04 07
        E 11 b3 04 08
        E 11 b3 04 09
        E 11 b3 04 09
        E 11 b3 04 0a
        E 11 b3 04 0a
        E 11 b3 04 0b
        E 11 b3 04 0c
        E 11 b3 04 0c
        E 8 b3 04 2c
        E 8 b3 04 2e
        E 8 b3 04 31
        E 8 b3 04 33
        E 8 b3 04 35
        E 8 b3 04 37
        E 8 b3 04 39
        E 8 b3 04 3b
        E 8 b3 04 3d
        E 8 b3 04 3f
        E 8 b3 04 41
        E 8 b3 04 43
        E 8 b3 04 45
        E 8 b3 04 47
        E 8 b3 04 48
        E 8 b3 04 4a
        E 8 b3 04 4c
        E 8 b3 04 4d
        E 8 b3 04 4f
        E 8 b3 04 50
        E 8 b3 04 51
        E 8 b3 04 52
        E 8 b3 04 54
        E 8 b3 04 54
        E 8 b3 04 55
        E 8 b3 04 56
        E 8 b3 04 56
        E 8 b3 04 57
        E 8 b3 04 58
        E 8 b3 04 58
        E 8 b3 04 58
        E 8 b3 04 58
        E 8 b3 04 58
        E 8 b3 04 58
        E 8 b3 04 58
        E 8 b3 04 58
        E 8 b3 04 58
        E 8 b3 04 57
        E 8 b3 04 56
        E 8 b3 04 56
        E 8 b3 04 55
        E 8 b3 04 54
        E 8 b3 04 53
        E 8 b3 04 51
        E 8 b3 04 51
        E 8 b3 04 4f
        E 8 b3 04 4e
        E 8 b3 04 4d
        E 8 b3 04 4b
        E 8 b3 04 49
        E 8 b3 04 48
        E 8 b3 04 46
        E 8 b3 04 44
        E 8 b3 04 42
        E 8 b3 04 40
        E 8 b3 04 3e
        E 8 b3 04 3c
        E 8 b3 04 3a
        E 8 b3 04 38
        E 8 b3 04 36
        E 8 b3 04 33
        E 8 b3 04 31
        E 8 b3 04 2f
        E 8 b3 04 2d
        E 8 b3 04 2b
        E 8 b3 04 29
        E 8 b3 04 27
        E 8 b3 04 25
        E 8 b3 04 22
        E 8 b3 04 20
        E 8 b3 04 1e
        E 8 b3 04 1c
        E 8 b3 04 1a
        E 8 b3 04 18
        E 8 b3 04 16
        E 8 b3 04 14
        E 8 b3 04 12
        E 8 b3 04 10
        E 8 b3 04 0f
        E 8 b3 04 0d
        E 8 b3 04 0b
        E 8 b3 04 0a
        E 8 b3 04 09
        E 8 b3 04 07
        E 8 b3 04 07
        E 8 b3 04 05
        E 8 b3 04 04
        E 8 b3 04 03
        E 8 b3 04 02
        E 8 b3 04 02
        E 8 b3 04 01
        E 8 b3 04 00
        E 8 b3 04 00
        E 8 b3 04 00
        E 8 b3 04 00
        E 8 b3 04 00
        E 8 b3 04 00
        E 8 b3 04 00
        E 8 b3 04 00
        E 8 b3 04 00
        E 8 b3 04 01
        E 8 b3 04 02
        E 8 b3 04 02
        E 8 b3 04 03
        E 8 b3 04 04
        E 8 b3 04 04
        E 8 b3 04 06
        E 8 b3 04 07
        E 8 b3 04 08
        E 8 b3 04 09
        E 8 b3 04 0b
        E 8 b3 04 0c
        E 8 b3 04 0e
        E 8 b3 04 10
        E 8 b3 04 11
        E 8 b3 04 13
        E 8 b3 04 15
        E 8 b3 04 17
        E 8 b3 04 19
        E 8 b3 04 1b
        E 8 b3 04 1d
        E 8 b3 04 1f
        E 8 b3 04 21
        E 8 b3 04 23
        E 8 b3 04 25
        E 8 b3 04 27
        E 8 b3 04 2a
        E 8 b3 04 2c
        E 2 b3 04 19
        E 2 b3 04 1a
        E 2 b3 04 1c
        E 2 b3 04 1d
        E 2 b3 04 1e
        E 2 b3 04 1f
        E 2 b3 04 20
        E 2 b3 04 22
        E 2 b3 04 23
        E 2 b3 04 24
        E 2 b3 04 25
        E 2 b3 04 26
        E 2 b3 04 27
        E 2 b3 04 28
        E 2 b3 04 29
        E 2 b3 04 2a
        E 2 b3 04 2b
        E 2 b3 04 2c
        E 2 b3 04 2d
        E 2 b3 04 2e
        E 2 b3 04 2e
        E 2 b3 04 2f
        E 2 b3 04 30
        E 2 b3 04 30
        E 2 b3 04 30
        E 2 b3 04 31
        E 2 b3 04 31
        E 2 b3 04 32
        E 2 b3 04 32
        E 2 b3 04 32
        E 2 b3 04 32
        E 2 b3 04 32
        E 2 b3 04 32
        E 2 b3 04 32
        E 2 b3 04 32
        E 2 b3 04 32
        E 2 b3 04 32
        E 2 b3 04 32
        E 2 b3 04 31
        E 2 b3 04 31
        E 2 b3 04 30
        E 2 b3 04 30
        E 2 b3 04 2f
        E 2 b3 04 2e
        E 2 b3 04 2e
        E 2 b3 04 2d
        E 2 b3 04 2c
        E 2 b3 04 2c
        E 2 b3 04 2b
        E 2 b3 04 2a
        E 2 b3 04 29
        E 2 b3 04 28
        E 2 b3 04 27
        E 2 b3 04 26
        E 2 b3 04 24
        E 2 b3 04 23
        E 2 b3 04 22
        E 2 b3 04 21
        E 2 b3 04 20
        E 2 b3 04 1f
        E 2 b3 04 1d
        E 2 b3 04 1c
        E 2 b3 04 1b
        E 2 b3 04 1a
        E 2 b3 04 18
        E 2 b3 04 17
        E 2 b3 04 16
        E 2 b3 04 15
        E 2 b3 04 13
        E 2 b3 04 12
        E 2 b3 04 11
        E 2 b3 04 10
        E 2 b3 04 0f
        E 2 b3 04 0e
        E 2 b3 04 0c
        E 2 b3 04 0b
        E 2 b3 04 0a
        E 2 b3 04 09
        E 2 b3 04 08
        E 2 b3 04 07
        E 2 b3 04 06
        E 2 b3 04 06
        E 2 b3 04 05
        E 2 b3 04 04
        E 2 b3 04 04
        E 2 b3 04 03
        E 2 b3 04 02
        E 2 b3 04 02
        E 2 b3 04 01
        E 2 b3 04 01
        E 2 b3 04 00
        E 2 b3 04 00
        E 2 b3 04 00
        E 2 b3 04 00
        E 2 b3 04 00
        E 2 b3 04 00
        E 2 b3 04 00
        E 2 b3 04 00
        E 2 b3 04 00
        E 2 b3 04 00
        E 2 b3 04 00
        E 2 b3 04 01
        E 2 b3 04 01
        E 2 b3 04 02
        E 2 b3 04 02
        E 2 b3 04 02
        E 2 b3 04 03
        E 2 b3 04 04
        E 2 b3 04 04
        E 2 b3 04 05
        E 2 b3 04 06
        E 2 b3 04 07
        E 2 b3 04 08
        E 2 b3 04 09
        E 2 b3 04 0a
        E 2 b3 04 0b
        E 2 b3 04 0c
        E 2 b3 04 0d
        E 2 b3 04 0e
        E 2 b3 04 0f
        E 2 b3 04 10
        E 2 b3 04 12
        E 2 b3 04 13
        E 2 b3 04 14
        E 2 b3 04 15
        E 2 b3 04 16
        E 2 b3 04 18
        E 2 b3 04 19
        E 19 b3 04 40
        E 19 b3 04 43
        E 19 b3 04 46
        E 19 b3 04 49
        E 19 b3 04 4c
        E 19 b3 04 4f
        E 19 b3 04 52
        E 19 b3 04 55
        E 19 b3 04 58
        E 19 b3 04 5b
        E 19 b3 04 5e
        E 19 b3 04 60
        E 19 b3 04 63
        E 19 b3 04 66
        E 19 b3 04 68
        E 19 b3 04 6a
        E 19 b3 04 6d
        E 19 b3 04 6f
        E 19 b3 04 71
        E 19 b3 04 73
        E 19 b3 04 75
        E 19 b3 04 76
        E 19 b3 04 78
        E 19 b3 04 79
        E 19 b3 04 7a
        E 19 b3 04 7b
        E 19 b3 04 7c
        E 19 b3 04 7d
        E 19 b3 04 7e
        E 19 b3 04 7e
        E 19 b3 04 7f
        E 19 b3 04 7f
        E 19 b3 04 7f
        E 19 b3 04 7f
        E 19 b3 04 7f
        E 19 b3 04 7e
        E 19 b3 04 7e
        E 19 b3 04 7d
        E 19 b3 04 7c
        E 19 b3 04 7b
        E 19 b3 04 7a
        E 19 b3 04 78
        E 19 b3 04 77
        E 19 b3 04 75
        E 19 b3 04 74
        E 19 b3 04 72
        E 19 b3 04 70
        E 19 b3 04 6e
        E 19 b3 04 6c
        E 19 b3 04 69
        E 19 b3 04 67
        E 19 b3 04 64
        E 19 b3 04 62
        E 19 b3 04 5f
        E 19 b3 04 5c
        E 19 b3 04 59
        E 19 b3 04 57
        E 19 b3 04 54
        E 19 b3 04 51
        E 19 b3 04 4e
        E 19 b3 04 4a
        E 19 b3 04 47
        E 19 b3 04 44
        E 19 b3 04 41
        E 19 b3 04 3e
        E 19 b3 04 3b
        E 19 b3 04 38
        E 19 b3 04 35
        E 19 b3 04 31
        E 19 b3 04 2e
        E 19 b3 04 2b
        E 19 b3 04 28
        E 19 b3 04 26
        E 19 b3 04 23
        E 19 b3 04 20
        E 19 b3 04 1d
        E 19 b3 04 1b
        E 19 b3 04 18
        E 19 b3 04 16
        E 19 b3 04 13
        E 19 b3 04 11
        E 19 b3 04 0f
        E 19 b3 04 0d
        E 19 b3 04 0b
        E 19 b3 04 0a
        E 19 b3 04 08
        E 19 b3 04 07
        E 19 b3 04 05
        E 19 b3 04 04
        E 19 b3 04 03
        E 19 b3 04 02
        E 19 b3 04 01
        E 19 b3 04 01
        E 19 b3 04 00
        E 19 b3 04 00
        E 19 b3 04 00
        E 19 b3 04 00
        E 19 b3 04 00
        E 19 b3 04 01
        E 19 b3 04 01
        E 19 b3 04 02
        E 19 b3 04 03
        E 19 b3 04 04
        E 19 b3 04 05
        E 19 b3 04 06
        E 19 b3 04 07
        E 19 b3 04 09
        E 19 b3 04 0a
        E 19 b3 04 0c
        E 19 b3 04 0e
        E 19 b3 04 10
        E 19 b3 04 12
        E 19 b3 04 15
        E 19 b3 04 17
        E 19 b3 04 19
        E 19 b3 04 1c
        E 19 b3 04 1f
        E 19 b3 04 21
        E 19 b3 04 24
        E 19 b3 04 27
        E 19 b3 04 2a
        E 19 b3 04 2d
        E 19 b3 04 30
        E 19 b3 04 33
        E 19 b3 04 36
        E 19 b3 04 39
        E 19 b3 04 3c
        E 19 b3 04 40
        E 4 b3 04 39
        E 4 b3 04 3c
        E 4 b3 04 3f
        E 4 b3 04 41
        E 4 b3 04 44
        E 4 b3 04 47
        E 4 b3 04 49
        E 4 b3 04 4c
        E 4 b3 04 4f
        E 4 b3 04 51
        E 4 b3 04 54
        E 4 b3 04 56
        E 4 b3 04 59
        E 4 b3 04 5b
        E 4 b3 04 5d
        E 4 b3 04 5f
        E 4 b3 04 62
        E 4 b3 04 63
        E 4 b3 04 65
        E 4 b3 04 67
        E 4 b3 04 69
        E 4 b3 04 6a
        E 4 b3 04 6c
        E 4 b3 04 6c
        E 4 b3 04 6d
        E 4 b3 04 6e
        E 4 b3 04 6f
        E 4 b3 04 70
        E 4 b3 04 71
        E 4 b3 04 71
        E 4 b3 04 72
        E 4 b3 04 72
        E 4 b3 04 72
        E 4 b3 04 72
        E 4 b3 04 72
        E 4 b3 04 71
        E 4 b3 04 71
        E 4 b3 04 70
        E 4 b3 04 6f
        E 4 b3 04 6e
        E 4 b3 04 6d
        E 4 b3 04 6c
        E 4 b3 04 6b
        E 4 b3 04 69
        E 4 b3 04 68
        E 4 b3 04 66
        E 4 b3 04 64
        E 4 b3 04 63
        E 4 b3 04 61
        E 4 b3 04 5e
        E 4 b3 04 5c
        E 4 b3 04 5a
        E 4 b3 04 58
        E 4 b3 04 55
        E 4 b3 04 52
        E 4 b3 04 50
        E 4 b3 04 4e
        E 4 b3 04 4b
        E 4 b3 04 48
        E 4 b3 04 46
        E 4 b3 04 42
        E 4 b3 04 3f
        E 4 b3 04 3d
        E 4 b3 04 3a
        E 4 b3 04 37
        E 4 b3 04 35
        E 4 b3 04 32
        E 4 b3 04 2f
        E 4 b3 04 2c
        E 4 b3 04 29
        E 4 b3 04 26
        E 4 b3 04 24
        E 4 b3 04 22
        E 4 b3 04 1f
        E 4 b3 04 1c
        E 4 b3 04 1a
        E 4 b3 04 18
        E 4 b3 04 15
        E 4 b3 04 13
        E 4 b3 04 11
        E 4 b3 04 0f
        E 4 b3 04 0d
        E 4 b3 04 0b
        E 4 b3 04 09
        E 4 b3 04 09
        E 4 b3 04 07
        E 4 b3 04 06
        E 4 b3 04 04
        E 4 b3 04 03
        E 4 b3 04 02
        E 4 b3 04 01
        E 4 b3 04 00
        E 4 b3 04 00
        E 4 b3 04 00
        E 4 b3 04 00
        E 4 b3 04 00
        E 4 b3 04 00
        E 4 b3 04 00
        E 4 b3 04 00
        E 4 b3 04 00
        E 4 b3 04 01
        E 4 b3 04 02
        E 4 b3 04 03
        E 4 b3 04 04
        E 4 b3 04 05
        E 4 b3 04 06
        E 4 b3 04 08
        E 4 b3 04 09
        E 4 b3 04 0a
        E 4 b3 04 0c
        E 4 b3 04 0e
        E 4 b3 04 10
        E 4 b3 04 12
        E 4 b3 04 14
        E 4 b3 04 16
        E 4 b3 04 19
        E 4 b3 04 1b
        E 4 b3 04 1d
        E 4 b3 04 20
        E 4 b3 04 23
        E 4 b3 04 25
        E 4 b3 04 28
        E 4 b3 04 2b
        E 4 b3 04 2d
        E 4 b3 04 30
        E 4 b3 04 33
        E 4 b3 04 36
        E 4 b3 04 39
        E 2 b3 04 26
        E 2 b3 04 28
        E 2 b3 04 2a
        E 2 b3 04 2b
        E 2 b3 04 2d
        E 2 b3 04 2f
        E 2 b3 04 31
        E 2 b3 04 33
        E 2 b3 04 34
        E 2 b3 04 36
        E 2 b3 04 38
        E 2 b3 04 39
        E 2 b3 04 3b
        E 2 b3 04 3d
        E 2 b3 04 3e
        E 2 b3 04 3f
        E 2 b3 04 41
        E 2 b3 04 42
        E 2 b3 04 43
        E 2 b3 04 45
        E 2 b3 04 46
        E 2 b3 04 46
        E 2 b3 04 48
        E 2 b3 04 48
        E 2 b3 04 49
        E 2 b3 04 49
        E 2 b3 04 4a
        E 2 b3 04 4b
        E 2 b3 04 4b
        E 2 b3 04 4b
        E 2 b3 04 4c
        E 2 b3 04 4c
        E 2 b3 04 4c
        E 2 b3 04 4c
        E 2 b3 04 4c
        E 2 b3 04 4b
        E 2 b3 04 4b
        E 2 b3 04 4b
        E 2 b3 04 4a
        E 2 b3 04 49
        E 2 b3 04 49
        E 2 b3 04 48
        E 2 b3 04 47
        E 2 b3 04 46
        E 2 b3 04 45
        E 2 b3 04 44
        E 2 b3 04 43
        E 2 b3 04 42
        E 2 b3 04 40
        E 2 b3 04 3f
        E 2 b3 04 3d
        E 2 b3 04 3c
        E 2 b3 04 3a
        E 2 b3 04 39
        E 2 b3 04 37
        E 2 b3 04 35
        E 2 b3 04 34
        E 2 b3 04 32
        E 2 b3 04 30
        E 2 b3 04 2e
        E 2 b3 04 2c
        E 2 b3 04 2a
        E 2 b3 04 28
        E 2 b3 04 27
        E 2 b3 04 25
        E 2 b3 04 23
        E 2 b3 04 21
        E 2 b3 04 1f
        E 2 b3 04 1d
        E 2 b3 04 1b
        E 2 b3 04 19
        E 2 b3 04 18
        E 2 b3 04 16
        E 2 b3 04 15
        E 2 b3 04 13
        E 2 b3 04 11
        E 2 b3 04 10
        E 2 b3 04 0e
        E 2 b3 04 0d
        E 2 b3 04 0b
        E 2 b3 04 0a
        E 2 b3 04 09
        E 2 b3 04 07
        E 2 b3 04 06
        E 2 b3 04 06
        E 2 b3 04 04
        E 2 b3 04 04
        E 2 b3 04 03
        E 2 b3 04 02
        E 2 b3 04 01
        E 2 b3 04 01
        E 2 b3 04 00
        E 2 b3 04 00
        E 2 b3 04 00
        E 2 b3 04 00
        E 2 b3 04 00
        E 2 b3 04 00
        E 2 b3 04 00
        E 2 b3 04 00
        E 2 b3 04 00
        E 2 b3 04 01
        E 2 b3 04 01
        E 2 b3 04 02
        E 2 b3 04 03
        E 2 b3 04 03
        E 2 b3 04 04
        E 2 b3 04 05
        E 2 b3 04 06
        E 2 b3 04 07
        E 2 b3 04 08
        E 2 b3 04 09
        E 2 b3 04 0a
        E 2 b3 04 0c
        E 2 b3 04 0d
        E 2 b3 04 0f
        E 2 b3 04 10
        E 2 b3 04 12
        E 2 b3 04 13
        E 2 b3 04 15
        E 2 b3 04 17
        E 2 b3 04 19
        E 2 b3 04 1b
        E 2 b3 04 1c
        E 2 b3 04 1e
        E 2 b3 04 20
        E 2 b3 04 22
        E 2 b3 04 24
        E 2 b3 04 26
        E 11 b3 04 0c
        E 11 b3 04 0d
        E 11 b3 04 0e
        E 11 b3 04 0e
        E 11 b3 04 0f
        E 11 b3 04 0f
        E 11 b3 04 10
        E 11 b3 04 11
        E 11 b3 04 11
        E 11 b3 04 12
        E 11 b3 04 12
        E 11 b3 04 13
        E 11 b3 04 13
        E 11 b3 04 14
        E 11 b3 04 14
        E 11 b3 04 15
        E 11 b3 04 15
        E 11 b3 04 16
        E 11 b3 04 16
        E 11 b3 04 17
        E 11 b3 04 17
        E 11 b3 04 17
        E 11 b3 04 18
        E 11 b3 04 18
        E 11 b3 04 18
        E 11 b3 04 18
        E 11 b3 04 18
        E 11 b3 04 19
        E 11 b3 04 19
        E 11 b3 04 19
        E 11 b3 04 19
        E 11 b3 04 19
        E 11 b3 04 19
        E 11 b3 04 19
        E 11 b3 04 19
        E 11 b3 04 19
        E 11 b3 04 19
        E 11 b3 04 19
        E 11 b3 04 18
        E 11 b3 04 18
        E 11 b3 04 18
        E 11 b3 04 18
        E 11 b3 04 17
        E 11 b3 04 17
        E 11 b3 04 17
        E 11 b3 04 16
        E 11 b3 04 16
        E 11 b3 04 16
        E 11 b3 04 15
        E 11 b3 04 15
        E 11 b3 04 14
        E 11 b3 04 14
        E 11 b3 04 13
        E 11 b3 04 13
        E 11 b3 04 12
        E 11 b3 04 11
        E 11 b3 04 11
        E 11 b3 04 10
        E 11 b3 04 10
        E 11 b3 04 0f
        E 11 b3 04 0e
        E 11 b3 04 0e
        E 11 b3 04 0d
        E 11 b3 04 0d
        E 11 b3 04 0c
        E 11 b3 04 0b
        E 11 b3 04 0b
        E 11 b3 04 0a
        E 11 b3 04 09
        E 11 b3 04 09
        E 11 b3 04 08
        E 11 b3 04 08
        E 11 b3 04 07
        E 11 b3 04 07
        E 11 b3 04 06
        E 11 b3 04 05
        E 11 b3 04 05
        E 11 b3 04 04
        E 11 b3 04 04
        E 11 b3 04 03
        E 11 b3 04 03
        E 11 b3 04 03
        E 11 b3 04 02
        E 11 b3 04 02
        E 11 b3 04 02
        E 11 b3 04 01
        E 11 b3 04 01
        E 11 b3 04 01
        E 11 b3 04 00
        E 11 b3 04 00
        E 11 b3 04 00
        E 11 b3 04 00
        E 11 b3 04 00
        E 11 b3 04 00
        E 11 b3 04 00
        E 11 b3 04 00
        E 11 b3 04 00
        E 11 b3 04 00
        E 11 b3 04 00
        E 11 b3 04 00
        E 11 b3 04 00
        E 11 b3 04 00
        E 11 b3 04 00
        E 11 b3 04 01
        E 11 b3 04 01
        E 11 b3 04 01
        E 11 b3 04 01
        E 11 b3 04 02
        E 11 b3 04 02
        E 11 b3 04 02
        E 11 b3 04 03
        E 11 b3 04 03
        E 11 b3 04 04
        E 11 b3 04 04
        E 11 b3 04 05
        E 11 b3 04 05
        E 11 b3 04 06
        E 11 b3 04 06
        E 11 b3 04 07
        E 11 b3 04 07
        E 11 b3 04 08
        E 11 b3 04 09
        E 11 b3 04 09
        E 11 b3 04 0a
        E 11 b3 04 0a
        E 11 b3 04 0b
        E 11 b3 04 0c
        E 11 b3 04 0c
        E 8 b3 04 2c
        E 8 b3 04 2e
        E 8 b3 04 31
        E 8 b3 04 33
        E 8 b3 04 35
        E 8 b3 04 37
        E 8 b3 04 39
        E 8 b3 04 3b
        E 8 b3 04 3d
        E 8 b3 04 3f
        E 8 b3 04 41
        E 8 b3 04 43
        E 8 b3 04 45
        E 8 b3 04 47
        E 8 b3 04 48
        E 8 b3 04 4a
        E 8 b3 04 4c
        E 8 b3 04 4d
        E 8 b3 04 4f
        E 8 b3 04 50
        E 8 b3 04 51
        E 8 b3 04 52
        E 8 b3 04 54
        E 8 b3 04 54
        E 8 b3 04 55
        E 8 b3 04 56
        E 8 b3 04 56
        E 8 b3 04 57
        E 8 b3 04 58
        E 8 b3 04 58
        E 8 b3 04 58
        E 8 b3 04 58
        E 8 b3 04 58
        E 8 b3 04 58
        E 8 b3 04 58
        E 8 b3 04 58
        E 8 b3 04 58
        E 8 b3 04 57
        E 8 b3 04 56
        E 8 b3 04 56
        E 8 b3 04 55
        E 8 b3 04 54
        E 8 b3 04 53
        E 8 b3 04 51
        E 8 b3 04 51
        E 8 b3 04 4f
        E 8 b3 04 4e
        E 8 b3 04 4d
        E 8 b3 04 4b
        E 8 b3 04 49
        E 8 b3 04 48
        E 8 b3 04 46
        E 8 b3 04 44
        E 8 b3 04 42
        E 8 b3 04 40
        E 8 b3 04 3e
        E 8 b3 04 3c
        E 8 b3 04 3a
        E 8 b3 04 38
        E 8 b3 04 36
        E 8 b3 04 33
        E 8 b3 04 31
        E 8 b3 04 2f
        E 8 b3 04 2d
        E 8 b3 04 2b
        E 8 b3 04 29
        E 8 b3 04 27
        E 8 b3 04 25
        E 8 b3 04 22
        E 8 b3 04 20
        E 8 b3 04 1e
        E 8 b3 04 1c
        E 8 b3 04 1a
        E 8 b3 04 18
        E 8 b3 04 16
        E 8 b3 04 14
        E 8 b3 04 12
        E 8 b3 04 10
        E 8 b3 04 0f
        E 8 b3 04 0d
        E 8 b3 04 0b
        E 8 b3 04 0a
        E 8 b3 04 09
        E 8 b3 04 07
        E 8 b3 04 07
        E 8 b3 04 05
        E 8 b3 04 04
        E 8 b3 04 03
        E 8 b3 04 02
        E 8 b3 04 02
        E 8 b3 04 01
        E 8 b3 04 00
        E 8 b3 04 00
        E 8 b3 04 00
        E 8 b3 04 00
        E 8 b3 04 00
        E 8 b3 04 00
        E 8 b3 04 00
        E 8 b3 04 00
        E 8 b3 04 00
        E 8 b3 04 01
        E 8 b3 04 02
        E 8 b3 04 02
        E 8 b3 04 03
        E 8 b3 04 04
        E 8 b3 04 04
        E 8 b3 04 06
        E 8 b3 04 07
        E 8 b3 04 08
        E 8 b3 04 09
        E 8 b3 04 0b
        E 8 b3 04 0c
        E 8 b3 04 0e
        E 8 b3 04 10
        E 8 b3 04 11
        E 8 b3 04 13
        E 8 b3 04 15
        E 8 b3 04 17
        E 8 b3 04 19
        E 8 b3 04 1b
        E 8 b3 04 1d
        E 8 b3 04 1f
        E 8 b3 04 21
        E 8 b3 04 23
        E 8 b3 04 25
        E 8 b3 04 27
        E 8 b3 04 2a
        E 8 b3 04 2c
        E 3 b3 04 19
        E 3 b3 04 56
        E 3 b3 04 38
        E 3 b3 04 09
        E 3 b3 04 51
        E 3 b3 04 48
        E 3 b3 04 0a
        E 3 b3 04 09
        E 3 b3 04 36
        E 3 b3 04 6c
        E 3 b3 04 5a
        E 3 b3 04 63
        E 3 b3 04 47
        E 3 b3 04 0c
        E 3 b3 04 15
        E 3 b3 04 4d
        E 3 b3 04 3f
        E 3 b3 04 20
        E 3 b3 04 16
        E 3 b3 04 1e
        E 3 b3 04 59
        E 3 b3 04 35
        E 3 b3 04 1b
        E 3 b3 04 41
        E 3 b3 04 71
        E 3 b3 04 00
        E 3 b3 04 0e
        E 3 b3 04 2e
        E 3 b3 04 26
        E 3 b3 04 5d
        E 3 b3 04 18
        E 3 b3 04 07
        E 3 b3 04 12
        E 3 b3 04 13
        E 3 b3 04 67
        E 3 b3 04 1c
        E 3 b3 04 00
        E 3 b3 04 54
        E 3 b3 04 27
        E 3 b3 04 17
        E 3 b3 04 2d
        E 3 b3 04 1d
        E 3 b3 04 61
        E 3 b3 04 60
        E 3 b3 04 72
        E 3 b3 04 5f
        E 3 b3 04 31
        E 3 b3 04 6a
        E 3 b3 04 51
        E 3 b3 04 0d
        E 3 b3 04 32
        E 3 b3 04 3d
        E 3 b3 04 6c
        E 3 b3 04 57
        E 3 b3 04 3e
        E 3 b3 04 3f
        E 3 b3 04 05
        E 3 b3 04 0b
        E 3 b3 04 69
        E 3 b3 04 5b
        E 3 b3 04 30
        E 3 b3 04 24
        E 3 b3 04 0f
        E 3 b3 04 33
        E 3 b3 04 22
        E 3 b3 04 1b
        E 3 b3 04 2b
        E 3 b3 04 3b
        E 3 b3 04 45
        E 3 b3 04 49
        E 3 b3 04 12
        E 3 b3 04 44
        E 3 b3 04 65
        E 3 b3 04 3a
        E 3 b3 04 42
        E 3 b3 04 02
        E 3 b3 04 08
        E 3 b3 04 70
        E 3 b3 04 4a
        E 3 b3 04 14
        E 3 b3 04 68
        E 3 b3 04 24
        E 3 b3 04 2c
        E 3 b3 04 37
        E 3 b3 04 2d
        E 3 b3 04 4c
        E 3 b3 04 5c
        E 3 b3 04 21
        E 3 b3 04 40
        E 3 b3 04 1a
        E 3 b3 04 66
        E 3 b3 04 5e
        E 3 b3 04 34
        E 3 b3 04 29
        E 3 b3 04 5a
        E 3 b3 04 2a
        E 3 b3 04 50
        E 3 b3 04 10
        E 3 b3 04 01
        E 3 b3 04 25
        E 3 b3 04 39
        E 3 b3 04 62
        E 3 b3 04 58
        E 3 b3 04 03
        E 3 b3 04 63
        E 3 b3 04 53
        E 3 b3 04 06
        E 3 b3 04 23
        E 3 b3 04 43
        E 3 b3 04 55
        E 3 b3 04 6d
        E 3 b3 04 46
        E 3 b3 04 2f
        E 3 b3 04 1f
        E 3 b3 04 4f
        E 3 b3 04 52
        E 3 b3 04 64
        E 3 b3 04 6f
        E 3 b3 04 36
        E 3 b3 04 48
        E 3 b3 04 4e
        E 3 b3 04 3c
        E 3 b3 04 6b
        E 3 b3 04 11
        E 3 b3 04 28
        E 3 b3 04 4b
        E 1 b3 04 10
        E 1 b3 04 39
        E 1 b3 04 25
        E 1 b3 04 06
        E 1 b3 04 36
        E 1 b3 04 30
        E 1 b3 04 07
        E 1 b3 04 06
        E 1 b3 04 24
        E 1 b3 04 48
        E 1 b3 04 3c
        E 1 b3 04 42
        E 1 b3 04 2f
        E 1 b3 04 08
        E 1 b3 04 0e
        E 1 b3 04 33
        E 1 b3 04 2a
        E 1 b3 04 15
        E 1 b3 04 0f
        E 1 b3 04 14
        E 1 b3 04 3b
        E 1 b3 04 23
        E 1 b3 04 12
        E 1 b3 04 2b
        E 1 b3 04 4b
        E 1 b3 04 00
        E 1 b3 04 09
        E 1 b3 04 1f
        E 1 b3 04 19
        E 1 b3 04 3e
        E 1 b3 04 10
        E 1 b3 04 04
        E 1 b3 04 0c
        E 1 b3 04 0d
        E 1 b3 04 45
        E 1 b3 04 13
        E 1 b3 04 00
        E 1 b3 04 38
        E 1 b3 04 1a
        E 1 b3 04 0f
        E 1 b3 04 1e
        E 1 b3 04 13
        E 1 b3 04 40
        E 1 b3 04 40
        E 1 b3 04 4c
        E 1 b3 04 3f
        E 1 b3 04 21
        E 1 b3 04 46
        E 1 b3 04 36
        E 1 b3 04 09
        E 1 b3 04 21
        E 1 b3 04 28
        E 1 b3 04 48
        E 1 b3 04 3a
        E 1 b3 04 29
        E 1 b3 04 2a
        E 1 b3 04 03
        E 1 b3 04 07
        E 1 b3 04 46
        E 1 b3 04 3d
        E 1 b3 04 20
        E 1 b3 04 18
        E 1 b3 04 0a
        E 1 b3 04 22
        E 1 b3 04 16
        E 1 b3 04 12
        E 1 b3 04 1c
        E 1 b3 04 27
        E 1 b3 04 2e
        E 1 b3 04 31
        E 1 b3 04 0c
        E 1 b3 04 2d
        E 1 b3 04 43
        E 1 b3 04 27
        E 1 b3 04 2c
        E 1 b3 04 01
        E 1 b3 04 05
        E 1 b3 04 4b
        E 1 b3 04 31
        E 1 b3 04 0d
        E 1 b3 04 45
        E 1 b3 04 18
        E 1 b3 04 1d
        E 1 b3 04 25
        E 1 b3 04 1e
        E 1 b3 04 33
        E 1 b3 04 3d
        E 1 b3 04 16
        E 1 b3 04 2b
        E 1 b3 04 11
        E 1 b3 04 44
        E 1 b3 04 3f
        E 1 b3 04 22
        E 1 b3 04 1b
        E 1 b3 04 3c
        E 1 b3 04 1c
        E 1 b3 04 35
        E 1 b3 04 0a
        E 1 b3 04 01
        E 1 b3 04 19
        E 1 b3 04 26
        E 1 b3 04 41
        E 1 b3 04 3a
        E 1 b3 04 02
        E 1 b3 04 42
        E 1 b3 04 37
        E 1 b3 04 04
        E 1 b3 04 17
        E 1 b3 04 2d
        E 1 b3 04 39
        E 1 b3 04 49
        E 1 b3 04 2e
        E 1 b3 04 1f
        E 1 b3 04 15
        E 1 b3 04 34
        E 1 b3 04 37
        E 1 b3 04 43
        E 1 b3 04 4a
        E 1 b3 04 24
        E 1 b3 04 30
        E 1 b3 04 34
        E 1 b3 04 28
        E 1 b3 04 47
        E 1 b3 04 0b
        E 1 b3 04 1b
        E 1 b3 04 32
        E 8 b3 04 05
        E 8 b3 04 13
        E 8 b3 04 0c
        E 8 b3 04 02
        E 8 b3 04 12
        E 8 b3 04 10
        E 8 b3 04 02
        E 8 b3 04 02
        E 8 b3 04 0c
        E 8 b3 04 18
        E 8 b3 04 14
        E 8 b3 04 16
        E 8 b3 04 0f
        E 8 b3 04 02
        E 8 b3 04 04
        E 8 b3 04 11
        E 8 b3 04 0e
        E 8 b3 04 07
        E 8 b3 04 05
        E 8 b3 04 06
        E 8 b3 04 13
        E 8 b3 04 0b
        E 8 b3 04 06
        E 8 b3 04 0e
        E 8 b3 04 19
        E 8 b3 04 00
        E 8 b3 04 03
        E 8 b3 04 0a
        E 8 b3 04 08
        E 8 b3 04 14
        E 8 b3 04 05
        E 8 b3 04 01
        E 8 b3 04 04
        E 8 b3 04 04
        E 8 b3 04 17
        E 8 b3 04 06
        E 8 b3 04 00
        E 8 b3 04 12
        E 8 b3 04 08
        E 8 b3 04 05
        E 8 b3 04 0a
        E 8 b3 04 06
        E 8 b3 04 15
        E 8 b3 04 15
        E 8 b3 04 19
        E 8 b3 04 15
        E 8 b3 04 0b
        E 8 b3 04 17
        E 8 b3 04 12
        E 8 b3 04 03
        E 8 b3 04 0b
        E 8 b3 04 0d
        E 8 b3 04 18
        E 8 b3 04 13
        E 8 b3 04 0d
        E 8 b3 04 0e
        E 8 b3 04 01
        E 8 b3 04 02
        E 8 b3 04 17
        E 8 b3 04 14
        E 8 b3 04 0a
        E 8 b3 04 08
        E 8 b3 04 03
        E 8 b3 04 0b
        E 8 b3 04 07
        E 8 b3 04 06
        E 8 b3 04 09
        E 8 b3 04 0d
        E 8 b3 04 0f
        E 8 b3 04 10
        E 8 b3 04 04
        E 8 b3 04 0f
        E 8 b3 04 16
        E 8 b3 04 0d
        E 8 b3 04 0e
        E 8 b3 04 00
        E 8 b3 04 01
        E 8 b3 04 19
        E 8 b3 04 10
        E 8 b3 04 04
        E 8 b3 04 17
        E 8 b3 04 08
        E 8 b3 04 09
        E 8 b3 04 0c
        E 8 b3 04 0a
        E 8 b3 04 11
        E 8 b3 04 14
        E 8 b3 04 07
        E 8 b3 04 0e
        E 8 b3 04 05
        E 8 b3 04 16
        E 8 b3 04 15
        E 8 b3 04 0b
        E 8 b3 04 09
        E 8 b3 04 14
        E 8 b3 04 09
        E 8 b3 04 11
        E 8 b3 04 03
        E 8 b3 04 00
        E 8 b3 04 08
        E 8 b3 04 0c
        E 8 b3 04 15
        E 8 b3 04 13
        E 8 b3 04 00
        E 8 b3 04 16
        E 8 b3 04 12
        E 8 b3 04 01
        E 8 b3 04 07
        E 8 b3 04 0f
        E 8 b3 04 13
        E 8 b3 04 18
        E 8 b3 04 0f
        E 8 b3 04 0a
        E 8 b3 04 07
        E 8 b3 04 11
        E 8 b3 04 12
        E 8 b3 04 16
        E 8 b3 04 18
        E 8 b3 04 0c
        E 8 b3 04 10
        E 8 b3 04 11
        E 8 b3 04 0d
        E 8 b3 04 17
        E 8 b3 04 03
        E 8 b3 04 09
        E 8 b3 04 10
        E 6 b3 04 13
        E 6 b3 04 43
        E 6 b3 04 2c
        E 6 b3 04 07
        E 6 b3 04 3e
        E 6 b3 04 38
        E 6 b3 04 08
        E 6 b3 04 07
        E 6 b3 04 2a
        E 6 b3 04 54
        E 6 b3 04 46
        E 6 b3 04 4d
        E 6 b3 04 37
        E 6 b3 04 09
        E 6 b3 04 10
        E 6 b3 04 3c
        E 6 b3 04 31
        E 6 b3 04 19
        E 6 b3 04 11
        E 6 b3 04 17
        E 6 b3 04 45
        E 6 b3 04 29
        E 6 b3 04 15
        E 6 b3 04 33
        E 6 b3 04 58
        E 6 b3 04 00
        E 6 b3 04 0b
        E 6 b3 04 24
        E 6 b3 04 1e
        E 6 b3 04 48
        E 6 b3 04 12
        E 6 b3 04 05
        E 6 b3 04 0e
        E 6 b3 04 0f
        E 6 b3 04 50
        E 6 b3 04 16
        E 6 b3 04 00
        E 6 b3 04 41
        E 6 b3 04 1e
        E 6 b3 04 12
        E 6 b3 04 23
        E 6 b3 04 17
        E 6 b3 04 4b
        E 6 b3 04 4a
        E 6 b3 04 58
        E 6 b3 04 4a
        E 6 b3 04 26
        E 6 b3 04 52
        E 6 b3 04 3f
        E 6 b3 04 0a
        E 6 b3 04 27
        E 6 b3 04 2f
        E 6 b3 04 54
        E 6 b3 04 43
        E 6 b3 04 30
        E 6 b3 04 31
        E 6 b3 04 04
        E 6 b3 04 09
        E 6 b3 04 51
        E 6 b3 04 47
        E 6 b3 04 25
        E 6 b3 04 1c
        E 6 b3 04 0b
        E 6 b3 04 27
        E 6 b3 04 1a
        E 6 b3 04 15
        E 6 b3 04 21
        E 6 b3 04 2e
        E 6 b3 04 35
        E 6 b3 04 39
        E 6 b3 04 0e
        E 6 b3 04 35
        E 6 b3 04 4f
        E 6 b3 04 2d
        E 6 b3 04 33
        E 6 b3 04 02
        E 6 b3 04 06
        E 6 b3 04 57
        E 6 b3 04 3a
        E 6 b3 04 10
        E 6 b3 04 51
        E 6 b3 04 1c
        E 6 b3 04 22
        E 6 b3 04 2b
        E 6 b3 04 23
        E 6 b3 04 3b
        E 6 b3 04 48
        E 6 b3 04 19
        E 6 b3 04 32
        E 6 b3 04 14
        E 6 b3 04 4f
        E 6 b3 04 49
        E 6 b3 04 28
        E 6 b3 04 20
        E 6 b3 04 46
        E 6 b3 04 20
        E 6 b3 04 3e
        E 6 b3 04 0c
        E 6 b3 04 01
        E 6 b3 04 1d
        E 6 b3 04 2c
        E 6 b3 04 4c
        E 6 b3 04 44
        E 6 b3 04 02
        E 6 b3 04 4d
        E 6 b3 04 41
        E 6 b3 04 04
        E 6 b3 04 1b
        E 6 b3 04 34
        E 6 b3 04 42
        E 6 b3 04 55
        E 6 b3 04 36
        E 6 b3 04 25
        E 6 b3 04 18
        E 6 b3 04 3d
        E 6 b3 04 40
        E 6 b3 04 4e
        E 6 b3 04 56
        E 6 b3 04 2a
        E 6 b3 04 38
        E 6 b3 04 3c
        E 6 b3 04 2e
        E 6 b3 04 53
        E 6 b3 04 0d
        E 6 b3 04 1f
        E 6 b3 04 3a
        E 1 b3 04 0b
        E 1 b3 04 26
        E 1 b3 04 19
        E 1 b3 04 04
        E 1 b3 04 24
        E 1 b3 04 20
        E 1 b3 04 04
        E 1 b3 04 04
        E 1 b3 04 18
        E 1 b3 04 30
        E 1 b3 04 28
        E 1 b3 04 2c
        E 1 b3 04 1f
        E 1 b3 04 05
        E 1 b3 04 09
        E 1 b3 04 22
        E 1 b3 04 1c
        E 1 b3 04 0e
        E 1 b3 04 0a
        E 1 b3 04 0d
        E 1 b3 04 27
        E 1 b3 04 17
        E 1 b3 04 0c
        E 1 b3 04 1d
        E 1 b3 04 32
        E 1 b3 04 00
        E 1 b3 04 06
        E 1 b3 04 14
        E 1 b3 04 11
        E 1 b3 04 29
        E 1 b3 04 0a
        E 1 b3 04 03
        E 1 b3 04 08
        E 1 b3 04 08
        E 1 b3 04 2e
        E 1 b3 04 0c
        E 1 b3 04 00
        E 1 b3 04 25
        E 1 b3 04 11
        E 1 b3 04 0a
        E 1 b3 04 14
        E 1 b3 04 0d
        E 1 b3 04 2b
        E 1 b3 04 2a
        E 1 b3 04 32
        E 1 b3 04 2a
        E 1 b3 04 16
        E 1 b3 04 2f
        E 1 b3 04 24
        E 1 b3 04 06
        E 1 b3 04 16
        E 1 b3 04 1b
        E 1 b3 04 30
        E 1 b3 04 26
        E 1 b3 04 1b
        E 1 b3 04 1c
        E 1 b3 04 02
        E 1 b3 04 05
        E 1 b3 04 2e
        E 1 b3 04 28
        E 1 b3 04 15
        E 1 b3 04 10
        E 1 b3 04 06
        E 1 b3 04 16
        E 1 b3 04 0f
        E 1 b3 04 0c
        E 1 b3 04 13
        E 1 b3 04 1a
        E 1 b3 04 1e
        E 1 b3 04 20
        E 1 b3 04 08
        E 1 b3 04 1e
        E 1 b3 04 2d
        E 1 b3 04 1a
        E 1 b3 04 1d
        E 1 b3 04 01
        E 1 b3 04 03
        E 1 b3 04 32
        E 1 b3 04 21
        E 1 b3 04 09
        E 1 b3 04 2e
        E 1 b3 04 10
        E 1 b3 04 13
        E 1 b3 04 18
        E 1 b3 04 14
        E 1 b3 04 22
        E 1 b3 04 29
        E 1 b3 04 0e
        E 1 b3 04 1c
        E 1 b3 04 0b
        E 1 b3 04 2d
        E 1 b3 04 2a
        E 1 b3 04 17
        E 1 b3 04 12
        E 1 b3 04 28
        E 1 b3 04 12
        E 1 b3 04 23
        E 1 b3 04 07
        E 1 b3 04 00
        E 1 b3 04 10
        E 1 b3 04 19
        E 1 b3 04 2b
        E 1 b3 04 27
        E 1 b3 04 01
        E 1 b3 04 2c
        E 1 b3 04 25
        E 1 b3 04 02
        E 1 b3 04 0f
        E 1 b3 04 1e
        E 1 b3 04 26
        E 1 b3 04 30
        E 1 b3 04 1f
        E 1 b3 04 15
        E 1 b3 04 0e
        E 1 b3 04 23
        E 1 b3 04 24
        E 1 b3 04 2c
        E 1 b3 04 31
        E 1 b3 04 18
        E 1 b3 04 20
        E 1 b3 04 22
        E 1 b3 04 1a
        E 1 b3 04 2f
        E 1 b3 04 07
        E 1 b3 04 12
        E 1 b3 04 21
        E 15 b3 04 1c
        E 15 b3 04 60
        E 15 b3 04 3f
        E 15 b3 04 0a
        E 15 b3 04 5a
        E 15 b3 04 50
        E 15 b3 04 0c
        E 15 b3 04 0b
        E 15 b3 04 3d
        E 15 b3 04 78
        E 15 b3 04 65
        E 15 b3 04 6f
        E 15 b3 04 4f
        E 15 b3 04 0e
        E 15 b3 04 18
        E 15 b3 04 56
        E 15 b3 04 46
        E 15 b3 04 24
        E 15 b3 04 19
        E 15 b3 04 22
        E 15 b3 04 63
        E 15 b3 04 3b
        E 15 b3 04 1e
        E 15 b3 04 49
        E 15 b3 04 7e
        E 15 b3 04 00
        E 15 b3 04 10
        E 15 b3 04 34
        E 15 b3 04 2b
        E 15 b3 04 68
        E 15 b3 04 1b
        E 15 b3 04 08
        E 15 b3 04 14
        E 15 b3 04 16
        E 15 b3 04 73
        E 15 b3 04 20
        E 15 b3 04 01
        E 15 b3 04 5e
        E 15 b3 04 2c
        E 15 b3 04 1a
        E 15 b3 04 32
        E 15 b3 04 21
        E 15 b3 04 6c
        E 15 b3 04 6b
        E 15 b3 04 7f
        E 15 b3 04 6a
        E 15 b3 04 37
        E 15 b3 04 76
        E 15 b3 04 5b
        E 15 b3 04 0f
        E 15 b3 04 38
        E 15 b3 04 44
        E 15 b3 04 79
        E 15 b3 04 61
        E 15 b3 04 45
        E 15 b3 04 47
        E 15 b3 04 06
        E 15 b3 04 0d
        E 15 b3 04 75
        E 15 b3 04 66
        E 15 b3 04 36
        E 15 b3 04 28
        E 15 b3 04 11
        E 15 b3 04 39
        E 15 b3 04 26
        E 15 b3 04 1f
        E 15 b3 04 30
        E 15 b3 04 42
        E 15 b3 04 4d
        E 15 b3 04 52
        E 15 b3 04 15
        E 15 b3 04 4c
        E 15 b3 04 71
        E 15 b3 04 41
        E 15 b3 04 4a
        E 15 b3 04 03
        E 15 b3 04 09
        E 15 b3 04 7d
        E 15 b3 04 53
        E 15 b3 04 17
        E 15 b3 04 74
        E 15 b3 04 29
        E 15 b3 04 31
        E 15 b3 04 3e
        E 15 b3 04 33
        E 15 b3 04 55
        E 15 b3 04 67
        E 15 b3 04 25
        E 15 b3 04 48
        E 15 b3 04 1d
        E 15 b3 04 72
        E 15 b3 04 69
        E 15 b3 04 3a
        E 15 b3 04 2e
        E 15 b3 04 64
        E 15 b3 04 2f
        E 15 b3 04 59
        E 15 b3 04 12
        E 15 b3 04 02
        E 15 b3 04 2a
        E 15 b3 04 40
        E 15 b3 04 6d
        E 15 b3 04 62
        E 15 b3 04 04
        E 15 b3 04 6e
        E 15 b3 04 5d
        E 15 b3 04 07
        E 15 b3 04 27
        E 15 b3 04 4b
        E 15 b3 04 5f
        E 15 b3 04 7a
        E 15 b3 04 4e
        E 15 b3 04 35
        E 15 b3 04 23
        E 15 b3 04 58
        E 15 b3 04 5c
        E 15 b3 04 70
        E 15 b3 04 7c
        E 15 b3 04 3c
        E 15 b3 04 51
        E 15 b3 04 57
        E 15 b3 04 43
        E 15 b3 04 77
        E 15 b3 04 13
        E 15 b3 04 2d
        E 15 b3 04 54
        E 3 b3 04 19
        E 3 b3 04 56
        E 3 b3 04 38
        E 3 b3 04 09
        E 3 b3 04 51
        E 3 b3 04 48
        E 3 b3 04 0a
        E 3 b3 04 09
        E 3 b3 04 36
        E 3 b3 04 6c
        E 3 b3 04 5a
        E 3 b3 04 63
        E 3 b3 04 47
        E 3 b3 04 0c
        E 3 b3 04 15
        E 3 b3 04 4d
        E 3 b3 04 3f
        E 3 b3 04 20
        E 3 b3 04 16
        E 3 b3 04 1e
        E 3 b3 04 59
        E 3 b3 04 35
        E 3 b3 04 1b
        E 3 b3 04 41
        E 3 b3 04 71
        E 3 b3 04 00
        E 3 b3 04 0e
        E 3 b3 04 2e
        E 3 b3 04 26
        E 3 b3 04 5d
        E 3 b3 04 18
        E 3 b3 04 07
        E 3 b3 04 12
        E 3 b3 04 13
        E 3 b3 04 67
        E 3 b3 04 1c
        E 3 b3 04 00
        E 3 b3 04 54
        E 3 b3 04 27
        E 3 b3 04 17
        E 3 b3 04 2d
        E 3 b3 04 1d
        E 3 b3 04 61
        E 3 b3 04 60
        E 3 b3 04 72
        E 3 b3 04 5f
        E 3 b3 04 31
        E 3 b3 04 6a
        E 3 b3 04 51
        E 3 b3 04 0d
        E 3 b3 04 32
        E 3 b3 04 3d
        E 3 b3 04 6c
        E 3 b3 04 57
        E 3 b3 04 3e
        E 3 b3 04 3f
        E 3 b3 04 05
        E 3 b3 04 0b
        E 3 b3 04 69
        E 3 b3 04 5b
        E 3 b3 04 30
        E 3 b3 04 24
        E 3 b3 04 0f
        E 3 b3 04 33
        E 3 b3 04 22
        E 3 b3 04 1b
        E 3 b3 04 2b
        E 3 b3 04 3b
        E 3 b3 04 45
        E 3 b3 04 49
        E 3 b3 04 12
        E 3 b3 04 44
        E 3 b3 04 65
        E 3 b3 04 3a
        E 3 b3 04 42
        E 3 b3 04 02
        E 3 b3 04 08
        E 3 b3 04 70
        E 3 b3 04 4a
        E 3 b3 04 14
        E 3 b3 04 68
        E 3 b3 04 24
        E 3 b3 04 2c
        E 3 b3 04 37
        E 3 b3 04 2d
        E 3 b3 04 4c
        E 3 b3 04 5c
        E 3 b3 04 21
        E 3 b3 04 40
        E 3 b3 04 1a
        E 3 b3 04 66
        E 3 b3 04 5e
        E 3 b3 04 34
        E 3 b3 04 29
        E 3 b3 04 5a
        E 3 b3 04 2a
        E 3 b3 04 50
        E 3 b3 04 10
        E 3 b3 04 01
        E 3 b3 04 25
        E 3 b3 04 39
        E 3 b3 04 62
        E 3 b3 04 58
        E 3 b3 04 03
        E 3 b3 04 63
        E 3 b3 04 53
        E 3 b3 04 06
        E 3 b3 04 23
        E 3 b3 04 43
        E 3 b3 04 55
        E 3 b3 04 6d
        E 3 b3 04 46
        E 3 b3 04 2f
        E 3 b3 04 1f
        E 3 b3 04 4f
        E 3 b3 04 52
        E 3 b3 04 64
        E 3 b3 04 6f
        E 3 b3 04 36
        E 3 b3 04 48
        E 3 b3 04 4e
        E 3 b3 04 3c
        E 3 b3 04 6b
        E 3 b3 04 11
        E 3 b3 04 28
        E 3 b3 04 4b
        E 1 b3 04 10
        E 1 b3 04 39
        E 1 b3 04 25
        E 1 b3 04 06
        E 1 b3 04 36
        E 1 b3 04 30
        E 1 b3 04 07
        E 1 b3 04 06
        E 1 b3 04 24
        E 1 b3 04 48
        E 1 b3 04 3c
        E 1 b3 04 42
        E 1 b3 04 2f
        E 1 b3 04 08
        E 1 b3 04 0e
        E 1 b3 04 33
        E 1 b3 04 2a
        E 1 b3 04 15
        E 1 b3 04 0f
        E 1 b3 04 14
        E 1 b3 04 3b
        E 1 b3 04 23
        E 1 b3 04 12
        E 1 b3 04 2b
        E 1 b3 04 4b
        E 1 b3 04 00
        E 1 b3 04 09
        E 1 b3 04 1f
        E 1 b3 04 19
        E 1 b3 04 3e
        E 1 b3 04 10
        E 1 b3 04 04
        E 1 b3 04 0c
        E 1 b3 04 0d
        E 1 b3 04 45
        E 1 b3 04 13
        E 1 b3 04 00
        E 1 b3 04 38
        E 1 b3 04 1a
        E 1 b3 04 0f
        E 1 b3 04 1e
        E 1 b3 04 13
        E 1 b3 04 40
        E 1 b3 04 40
        E 1 b3 04 4c
        E 1 b3 04 3f
        E 1 b3 04 21
        E 1 b3 04 46
        E 1 b3 04 36
        E 1 b3 04 09
        E 1 b3 04 21
        E 1 b3 04 28
        E 1 b3 04 48
        E 1 b3 04 3a
        E 1 b3 04 29
        E 1 b3 04 2a
        E 1 b3 04 03
        E 1 b3 04 07
        E 1 b3 04 46
        E 1 b3 04 3d
        E 1 b3 04 20
        E 1 b3 04 18
        E 1 b3 04 0a
        E 1 b3 04 22
        E 1 b3 04 16
        E 1 b3 04 12
        E 1 b3 04 1c
        E 1 b3 04 27
        E 1 b3 04 2e
        E 1 b3 04 31
        E 1 b3 04 0c
        E 1 b3 04 2d
        E 1 b3 04 43
        E 1 b3 04 27
        E 1 b3 04 2c
        E 1 b3 04 01
        E 1 b3 04 05
        E 1 b3 04 4b
        E 1 b3 04 31
        E 1 b3 04 0d
        E 1 b3 04 45
        E 1 b3 04 18
        E 1 b3 04 1d
        E 1 b3 04 25
        E 1 b3 04 1e
        E 1 b3 04 33
        E 1 b3 04 3d
        E 1 b3 04 16
        E 1 b3 04 2b
        E 1 b3 04 11
        E 1 b3 04 44
        E 1 b3 04 3f
        E 1 b3 04 22
        E 1 b3 04 1b
        E 1 b3 04 3c
        E 1 b3 04 1c
        E 1 b3 04 35
        E 1 b3 04 0a
        E 1 b3 04 01
        E 1 b3 04 19
        E 1 b3 04 26
        E 1 b3 04 41
        E 1 b3 04 3a
        E 1 b3 04 02
        E 1 b3 04 42
        E 1 b3 04 37
        E 1 b3 04 04
        E 1 b3 04 17
        E 1 b3 04 2d
        E 1 b3 04 39
        E 1 b3 04 49
        E 1 b3 04 2e
        E 1 b3 04 1f
        E 1 b3 04 15
        E 1 b3 04 34
        E 1 b3 04 37
        E 1 b3 04 43
        E 1 b3 04 4a
        E 1 b3 04 24
        E 1 b3 04 30
        E 1 b3 04 34
        E 1 b3 04 28
        E 1 b3 04 47
        E 1 b3 04 0b
        E 1 b3 04 1b
        E 1 b3 04 32
        E 8 b3 04 05
        E 8 b3 04 13
        E 8 b3 04 0c
        E 8 b3 04 02
        E 8 b3 04 12
        E 8 b3 04 10
        E 8 b3 04 02
        E 8 b3 04 02
        E 8 b3 04 0c
        E 8 b3 04 18
        E 8 b3 04 14
        E 8 b3 04 16
        E 8 b3 04 0f
        E 8 b3 04 02
        E 8 b3 04 04
        E 8 b3 04 11
        E 8 b3 04 0e
        E 8 b3 04 07
        E 8 b3 04 05
        E 8 b3 04 06
        E 8 b3 04 13
        E 8 b3 04 0b
        E 8 b3 04 06
        E 8 b3 04 0e
        E 8 b3 04 19
        E 8 b3 04 00
        E 8 b3 04 03
        E 8 b3 04 0a
        E 8 b3 04 08
        E 8 b3 04 14
        E 8 b3 04 05
        E 8 b3 04 01
        E 8 b3 04 04
        E 8 b3 04 04
        E 8 b3 04 17
        E 8 b3 04 06
        E 8 b3 04 00
        E 8 b3 04 12
        E 8 b3 04 08
        E 8 b3 04 05
        E 8 b3 04 0a
        E 8 b3 04 06
        E 8 b3 04 15
        E 8 b3 04 15
        E 8 b3 04 19
        E 8 b3 04 15
        E 8 b3 04 0b
        E 8 b3 04 17
        E 8 b3 04 12
        E 8 b3 04 03
        E 8 b3 04 0b
        E 8 b3 04 0d
        E 8 b3 04 18
        E 8 b3 04 13
        E 8 b3 04 0d
        E 8 b3 04 0e
        E 8 b3 04 01
        E 8 b3 04 02
        E 8 b3 04 17
        E 8 b3 04 14
        E 8 b3 04 0a
        E 8 b3 04 08
        E 8 b3 04 03
        E 8 b3 04 0b
        E 8 b3 04 07
        E 8 b3 04 06
        E 8 b3 04 09
        E 8 b3 04 0d
        E 8 b3 04 0f
        E 8 b3 04 10
        E 8 b3 04 04
        E 8 b3 04 0f
        E 8 b3 04 16
        E 8 b3 04 0d
        E 8 b3 04 0e
        E 8 b3 04 00
        E 8 b3 04 01
        E 8 b3 04 19
        E 8 b3 04 10
        E 8 b3 04 04
        E 8 b3 04 17
        E 8 b3 04 08
        E 8 b3 04 09
        E 8 b3 04 0c
        E 8 b3 04 0a
        E 8 b3 04 11
        E 8 b3 04 14
        E 8 b3 04 07
        E 8 b3 04 0e
        E 8 b3 04 05
        E 8 b3 04 16
        E 8 b3 04 15
        E 8 b3 04 0b
        E 8 b3 04 09
        E 8 b3 04 14
        E 8 b3 04 09
        E 8 b3 04 11
        E 8 b3 04 03
        E 8 b3 04 00
        E 8 b3 04 08
        E 8 b3 04 0c
        E 8 b3 04 15
        E 8 b3 04 13
        E 8 b3 04 00
        E 8 b3 04 16
        E 8 b3 04 12
        E 8 b3 04 01
        E 8 b3 04 07
        E 8 b3 04 0f
        E 8 b3 04 13
        E 8 b3 04 18
        E 8 b3 04 0f
        E 8 b3 04 0a
        E 8 b3 04 07
        E 8 b3 04 11
        E 8 b3 04 12
        E 8 b3 04 16
        E 8 b3 04 18
        E 8 b3 04 0c
        E 8 b3 04 10
        E 8 b3 04 11
        E 8 b3 04 0d
        E 8 b3 04 17
        E 8 b3 04 03
        E 8 b3 04 09
        E 8 b3 04 10
        E 6 b3 04 13
        E 6 b3 04 43
        E 6 b3 04 2c
        E 6 b3 04 07
        E 6 b3 04 3e
        E 6 b3 04 38
        E 6 b3 04 08
        E 6 b3 04 07
        E 6 b3 04 2a
        E 6 b3 04 54
        E 6 b3 04 46
        E 6 b3 04 4d
        E 6 b3 04 37
        E 6 b3 04 09
        E 6 b3 04 10
        E 6 b3 04 3c
        E 6 b3 04 31
        E 6 b3 04 19
        E 6 b3 04 11
        E 6 b3 04 17
        E 6 b3 04 45
        E 6 b3 04 29
        E 6 b3 04 15
        E 6 b3 04 33
        E 6 b3 04 58
        E 6 b3 04 00
        E 6 b3 04 0b
        E 6 b3 04 24
        E 6 b3 04 1e
        E 6 b3 04 48
        E 6 b3 04 12
        E 6 b3 04 05
        E 6 b3 04 0e
        E 6 b3 04 0f
        E 6 b3 04 50
        E 6 b3 04 16
        E 6 b3 04 00
        E 6 b3 04 41
        E 6 b3 04 1e
        E 6 b3 04 12
        E 6 b3 04 23
        E 6 b3 04 17
        E 6 b3 04 4b
        E 6 b3 04 4a
        E 6 b3 04 58
        E 6 b3 04 4a
        E 6 b3 04 26
        E 6 b3 04 52
        E 6 b3 04 3f
        E 6 b3 04 0a
        E 6 b3 04 27
        E 6 b3 04 2f
        E 6 b3 04 54
        E 6 b3 04 43
        E 6 b3 04 30
        E 6 b3 04 31
        E 6 b3 04 04
        E 6 b3 04 09
        E 6 b3 04 51
        E 6 b3 04 47
        E 6 b3 04 25
        E 6 b3 04 1c
        E 6 b3 04 0b
        E 6 b3 04 27
        E 6 b3 04 1a
        E 6 b3 04 15
        E 6 b3 04 21
        E 6 b3 04 2e
        E 6 b3 04 35
        E 6 b3 04 39
        E 6 b3 04 0e
        E 6 b3 04 35
        E 6 b3 04 4f
        E 6 b3 04 2d
        E 6 b3 04 33
        E 6 b3 04 02
        E 6 b3 04 06
        E 6 b3 04 57
        E 6 b3 04 3a
        E 6 b3 04 10
        E 6 b3 04 51
        E 6 b3 04 1c
        E 6 b3 04 22
        E 6 b3 04 2b
        E 6 b3 04 23
        E 6 b3 04 3b
        E 6 b3 04 48
        E 6 b3 04 19
        E 6 b3 04 32
        E 6 b3 04 14
        E 6 b3 04 4f
        E 6 b3 04 49
        E 6 b3 04 28
        E 6 b3 04 20
        E 6 b3 04 46
        E 6 b3 04 20
        E 6 b3 04 3e
        E 6 b3 04 0c
        E 6 b3 04 01
        E 6 b3 04 1d
        E 6 b3 04 2c
        E 6 b3 04 4c
        E 6 b3 04 44
        E 6 b3 04 02
        E 6 b3 04 4d
        E 6 b3 04 41
        E 6 b3 04 04
        E 6 b3 04 1b
        E 6 b3 04 34
        E 6 b3 04 42
        E 6 b3 04 55
        E 6 b3 04 36
        E 6 b3 04 25
        E 6 b3 04 18
        E 6 b3 04 3d
        E 6 b3 04 40
        E 6 b3 04 4e
        E 6 b3 04 56
        E 6 b3 04 2a
        E 6 b3 04 38
        E 6 b3 04 3c
        E 6 b3 04 2e
        E 6 b3 04 53
        E 6 b3 04 0d
        E 6 b3 04 1f
        E 6 b3 04 3a
        E 1 b3 04 0b
        E 1 b3 04 26
        E 1 b3 04 19
        E 1 b3 04 04
        E 1 b3 04 24
        E 1 b3 04 20
        E 1 b3 04 04
        E 1 b3 04 04
        E 1 b3 04 18
        E 1 b3 04 30
        E 1 b3 04 28
        E 1 b3 04 2c
        E 1 b3 04 1f
        E 1 b3 04 05
        E 1 b3 04 09
        E 1 b3 04 22
        E 1 b3 04 1c
        E 1 b3 04 0e
        E 1 b3 04 0a
        E 1 b3 04 0d
        E 1 b3 04 27
        E 1 b3 04 17
        E 1 b3 04 0c
        E 1 b3 04 1d
        E 1 b3 04 32
        E 1 b3 04 00
        E 1 b3 04 06
        E 1 b3 04 14
        E 1 b3 04 11
        E 1 b3 04 29
        E 1 b3 04 0a
        E 1 b3 04 03
        E 1 b3 04 08
        E 1 b3 04 08
        E 1 b3 04 2e
        E 1 b3 04 0c
        E 1 b3 04 00
        E 1 b3 04 25
        E 1 b3 04 11
        E 1 b3 04 0a
        E 1 b3 04 14
        E 1 b3 04 0d
        E 1 b3 04 2b
        E 1 b3 04 2a
        E 1 b3 04 32
        E 1 b3 04 2a
        E 1 b3 04 16
        E 1 b3 04 2f
        E 1 b3 04 24
        E 1 b3 04 06
        E 1 b3 04 16
        E 1 b3 04 1b
        E 1 b3 04 30
        E 1 b3 04 26
        E 1 b3 04 1b
        E 1 b3 04 1c
        E 1 b3 04 02
        E 1 b3 04 05
        E 1 b3 04 2e
        E 1 b3 04 28
        E 1 b3 04 15
        E 1 b3 04 10
        E 1 b3 04 06
        E 1 b3 04 16
        E 1 b3 04 0f
        E 1 b3 04 0c
        E 1 b3 04 13
        E 1 b3 04 1a
        E 1 b3 04 1e
        E 1 b3 04 20
        E 1 b3 04 08
        E 1 b3 04 1e
        E 1 b3 04 2d
        E 1 b3 04 1a
        E 1 b3 04 1d
        E 1 b3 04 01
        E 1 b3 04 03
        E 1 b3 04 32
        E 1 b3 04 21
        E 1 b3 04 09
        E 1 b3 04 2e
        E 1 b3 04 10
        E 1 b3 04 13
        E 1 b3 04 18
        E 1 b3 04 14
        E 1 b3 04 22
        E 1 b3 04 29
        E 1 b3 04 0e
        E 1 b3 04 1c
        E 1 b3 04 0b
        E 1 b3 04 2d
        E 1 b3 04 2a
        E 1 b3 04 17
        E 1 b3 04 12
        E 1 b3 04 28
        E 1 b3 04 12
        E 1 b3 04 23
        E 1 b3 04 07
        E 1 b3 04 00
        E 1 b3 04 10
        E 1 b3 04 19
        E 1 b3 04 2b
        E 1 b3 04 27
        E 1 b3 04 01
        E 1 b3 04 2c
        E 1 b3 04 25
        E 1 b3 04 02
        E 1 b3 04 0f
        E 1 b3 04 1e
        E 1 b3 04 26
        E 1 b3 04 30
        E 1 b3 04 1f
        E 1 b3 04 15
        E 1 b3 04 0e
        E 1 b3 04 23
        E 1 b3 04 24
        E 1 b3 04 2c
        E 1 b3 04 31
        E 1 b3 04 18
        E 1 b3 04 20
        E 1 b3 04 22
        E 1 b3 04 1a
        E 1 b3 04 2f
        E 1 b3 04 07
        E 1 b3 04 12
        E 1 b3 04 21
        E 15 b3 04 1c
        E 15 b3 04 60
        E 15 b3 04 3f
        E 15 b3 04 0a
        E 15 b3 04 5a
        E 15 b3 04 50
        E 15 b3 04 0c
        E 15 b3 04 0b
        E 15 b3 04 3d
        E 15 b3 04 78
        E 15 b3 04 65
        E 15 b3 04 6f
        E 15 b3 04 4f
        E 15 b3 04 0e
        E 15 b3 04 18
        E 15 b3 04 56
        E 15 b3 04 46
        E 15 b3 04 24
        E 15 b3 04 19
        E 15 b3 04 22
        E 15 b3 04 63
        E 15 b3 04 3b
        E 15 b3 04 1e
        E 15 b3 04 49
        E 15 b3 04 7e
        E 15 b3 04 00
        E 15 b3 04 10
        E 15 b3 04 34
        E 15 b3 04 2b
        E 15 b3 04 68
        E 15 b3 04 1b
        E 15 b3 04 08
        E 15 b3 04 14
        E 15 b3 04 16
        E 15 b3 04 73
        E 15 b3 04 20
        E 15 b3 04 01
        E 15 b3 04 5e
        E 15 b3 04 2c
        E 15 b3 04 1a
        E 15 b3 04 32
        E 15 b3 04 21
        E 15 b3 04 6c
        E 15 b3 04 6b
        E 15 b3 04 7f
        E 15 b3 04 6a
        E 15 b3 04 37
        E 15 b3 04 76
        E 15 b3 04 5b
        E 15 b3 04 0f
        E 15 b3 04 38
        E 15 b3 04 44
        E 15 b3 04 79
        E 15 b3 04 61
        E 15 b3 04 45
        E 15 b3 04 47
        E 15 b3 04 06
        E 15 b3 04 0d
        E 15 b3 04 75
        E 15 b3 04 66
        E 15 b3 04 36
        E 15 b3 04 28
        E 15 b3 04 11
        E 15 b3 04 39
        E 15 b3 04 26
        E 15 b3 04 1f
        E 15 b3 04 30
        E 15 b3 04 42
        E 15 b3 04 4d
        E 15 b3 04 52
        E 15 b3 04 15
        E 15 b3 04 4c
        E 15 b3 04 71
        E 15 b3 04 41
        E 15 b3 04 4a
        E 15 b3 04 03
        E 15 b3 04 09
        E 15 b3 04 7d
        E 15 b3 04 53
        E 15 b3 04 17
        E 15 b3 04 74
        E 15 b3 04 29
        E 15 b3 04 31
        E 15 b3 04 3e
        E 15 b3 04 33
        E 15 b3 04 55
        E 15 b3 04 67
        E 15 b3 04 25
        E 15 b3 04 48
        E 15 b3 04 1d
        E 15 b3 04 72
        E 15 b3 04 69
        E 15 b3 04 3a
        E 15 b3 04 2e
        E 15 b3 04 64
        E 15 b3 04 2f
        E 15 b3 04 59
        E 15 b3 04 12
        E 15 b3 04 02
        E 15 b3 04 2a
        E 15 b3 04 40
        E 15 b3 04 6d
        E 15 b3 04 62
        E 15 b3 04 04
        E 15 b3 04 6e
        E 15 b3 04 5d
        E 15 b3 04 07
        E 15 b3 04 27
        E 15 b3 04 4b
        E 15 b3 04 5f
        E 15 b3 04 7a
        E 15 b3 04 4e
        E 15 b3 04 35
        E 15 b3 04 23
        E 15 b3 04 58
        E 15 b3 04 5c
        E 15 b3 04 70
        E 15 b3 04 7c
        E 15 b3 04 3c
        E 15 b3 04 51
        E 15 b3 04 57
        E 15 b3 04 43
        E 15 b3 04 77
        E 15 b3 04 13
        E 15 b3 04 2d
        E 15 b3 04 54
        E 3 b3 04 19
        E 3 b3 04 56
        E 3 b3 04 38
        E 3 b3 04 09
        E 3 b3 04 51
        E 3 b3 04 48
        E 3 b3 04 0a
        E 3 b3 04 09
        E 3 b3 04 36
        E 3 b3 04 6c
        E 3 b3 04 5a
        E 3 b3 04 63
        E 3 b3 04 47
        E 3 b3 04 0c
        E 3 b3 04 15
        E 3 b3 04 4d
        E 3 b3 04 3f
        E 3 b3 04 20
        E 3 b3 04 16
        E 3 b3 04 1e
        E 3 b3 04 59
        E 3 b3 04 35
        E 3 b3 04 1b
        E 3 b3 04 41
        E 3 b3 04 71
        E 3 b3 04 00
        E 3 b3 04 0e
        E 3 b3 04 2e
        E 3 b3 04 26
        E 3 b3 04 5d
        E 3 b3 04 18
        E 3 b3 04 07
        E 3 b3 04 12
        E 3 b3 04 13
        E 3 b3 04 67
        E 3 b3 04 1c
        E 3 b3 04 00
        E 3 b3 04 54
        E 3 b3 04 27
        E 3 b3 04 17
        E 3 b3 04 2d
        E 3 b3 04 1d
        E 3 b3 04 61
        E 3 b3 04 60
        E 3 b3 04 72
        E 3 b3 04 5f
        E 3 b3 04 31
        E 3 b3 04 6a
        E 3 b3 04 51
        E 3 b3 04 0d
        E 3 b3 04 32
        E 3 b3 04 3d
        E 3 b3 04 6c
        E 3 b3 04 57
        E 3 b3 04 3e
        E 3 b3 04 3f
        E 3 b3 04 05
        E 3 b3 04 0b
        E 3 b3 04 69
        E 3 b3 04 5b
        E 3 b3 04 30
        E 3 b3 04 24
        E 3 b3 04 0f
        E 3 b3 04 33
        E 3 b3 04 22
        E 3 b3 04 1b
        E 3 b3 04 2b
        E 3 b3 04 3b
        E 3 b3 04 45
        E 3 b3 04 49
        E 3 b3 04 12
        E 3 b3 04 44
        E 3 b3 04 65
        E 3 b3 04 3a
        E 3 b3 04 42
        E 3 b3 04 02
        E 3 b3 04 08
        E 3 b3 04 70
        E 3 b3 04 4a
        E 3 b3 04 14
        E 3 b3 04 68
        E 3 b3 04 24
        E 3 b3 04 2c
        E 3 b3 04 37
        E 3 b3 04 2d
        E 3 b3 04 4c
        E 3 b3 04 5c
        E 3 b3 04 21
        E 3 b3 04 40
        E 3 b3 04 1a
        E 3 b3 04 66
        E 3 b3 04 5e
        E 3 b3 04 34
        E 3 b3 04 29
        E 3 b3 04 5a
        E 3 b3 04 2a
        E 3 b3 04 50
        E 3 b3 04 10
        E 3 b3 04 01
        E 3 b3 04 25
        E 3 b3 04 39
        E 3 b3 04 62
        E 3 b3 04 58
        E 3 b3 04 03
        E 3 b3 04 63
        E 3 b3 04 53
        E 3 b3 04 06
        E 3 b3 04 23
        E 3 b3 04 43
        E 3 b3 04 55
        E 3 b3 04 6d
        E 3 b3 04 46
        E 3 b3 04 2f
        E 3 b3 04 1f
        E 3 b3 04 4f
        E 3 b3 04 52
        E 3 b3 04 64
        E 3 b3 04 6f
        E 3 b3 04 36
        E 3 b3 04 48
        E 3 b3 04 4e
        E 3 b3 04 3c
        E 3 b3 04 6b
        E 3 b3 04 11
        E 3 b3 04 28
        E 3 b3 04 4b
        E 1 b3 04 10
        E 1 b3 04 39
        E 1 b3 04 25
        E 1 b3 04 06
        E 1 b3 04 36
        E 1 b3 04 30
        E 1 b3 04 07
        E 1 b3 04 06
        E 1 b3 04 24
        E 1 b3 04 48
        E 1 b3 04 3c
        E 1 b3 04 42
        E 1 b3 04 2f
        E 1 b3 04 08
        E 1 b3 04 0e
        E 1 b3 04 33
        E 1 b3 04 2a
        E 1 b3 04 15
        E 1 b3 04 0f
        E 1 b3 04 14
        E 1 b3 04 3b
        E 1 b3 04 23
        E 1 b3 04 12
        E 1 b3 04 2b
        E 1 b3 04 4b
        E 1 b3 04 00
        E 1 b3 04 09
        E 1 b3 04 1f
        E 1 b3 04 19
        E 1 b3 04 3e
        E 1 b3 04 10
        E 1 b3 04 04
        E 1 b3 04 0c
        E 1 b3 04 0d
        E 1 b3 04 45
        E 1 b3 04 13
        E 1 b3 04 00
        E 1 b3 04 38
        E 1 b3 04 1a
        E 1 b3 04 0f
        E 1 b3 04 1e
        E 1 b3 04 13
        E 1 b3 04 40
        E 1 b3 04 40
        E 1 b3 04 4c
        E 1 b3 04 3f
        E 1 b3 04 21
        E 1 b3 04 46
        E 1 b3 04 36
        E 1 b3 04 09
        E 1 b3 04 21
        E 1 b3 04 28
        E 1 b3 04 48
        E 1 b3 04 3a
        E 1 b3 04 29
        E 1 b3 04 2a
        E 1 b3 04 03
        E 1 b3 04 07
        E 1 b3 04 46
        E 1 b3 04 3d
        E 1 b3 04 20
        E 1 b3 04 18
        E 1 b3 04 0a
        E 1 b3 04 22
        E 1 b3 04 16
        E 1 b3 04 12
        E 1 b3 04 1c
        E 1 b3 04 27
        E 1 b3 04 2e
        E 1 b3 04 31
        E 1 b3 04 0c
        E 1 b3 04 2d
        E 1 b3 04 43
        E 1 b3 04 27
        E 1 b3 04 2c
        E 1 b3 04 01
        E 1 b3 04 05
        E 1 b3 04 4b
        E 1 b3 04 31
        E 1 b3 04 0d
        E 1 b3 04 45
        E 1 b3 04 18
        E 1 b3 04 1d
        E 1 b3 04 25
        E 1 b3 04 1e
        E 1 b3 04 33
        E 1 b3 04 3d
        E 1 b3 04 16
        E 1 b3 04 2b
        E 1 b3 04 11
        E 1 b3 04 44
        E 1 b3 04 3f
        E 1 b3 04 22
        E 1 b3 04 1b
        E 1 b3 04 3c
        E 1 b3 04 1c
        E 1 b3 04 35
        E 1 b3 04 0a
        E 1 b3 04 01
        E 1 b3 04 19
        E 1 b3 04 26
        E 1 b3 04 41
        E 1 b3 04 3a
        E 1 b3 04 02
        E 1 b3 04 42
        E 1 b3 04 37
        E 1 b3 04 04
        E 1 b3 04 17
        E 1 b3 04 2d
        E 1 b3 04 39
        E 1 b3 04 49
        E 1 b3 04 2e
        E 1 b3 04 1f
        E 1 b3 04 15
        E 1 b3 04 34
        E 1 b3 04 37
        E 1 b3 04 43
        E 1 b3 04 4a
        E 1 b3 04 24
        E 1 b3 04 30
        E 1 b3 04 34
        E 1 b3 04 28
        E 1 b3 04 47
        E 1 b3 04 0b
        E 1 b3 04 1b
        E 1 b3 04 32
        E 8 b3 04 05
        E 8 b3 04 13
        E 8 b3 04 0c
        E 8 b3 04 02
        E 8 b3 04 12
        E 8 b3 04 10
        E 8 b3 04 02
        E 8 b3 04 02
        E 8 b3 04 0c
        E 8 b3 04 18
        E 8 b3 04 14
        E 8 b3 04 16
        E 8 b3 04 0f
        E 8 b3 04 02
        E 8 b3 04 04
        E 8 b3 04 11
        E 8 b3 04 0e
        E 8 b3 04 07
        E 8 b3 04 05
        E 8 b3 04 06
        E 8 b3 04 13
        E 8 b3 04 0b
        E 8 b3 04 06
        E 8 b3 04 0e
        E 8 b3 04 19
        E 8 b3 04 00
        E 8 b3 04 03
        E 8 b3 04 0a
        E 8 b3 04 08
        E 8 b3 04 14
        E 8 b3 04 05
        E 8 b3 04 01
        E 8 b3 04 04
        E 8 b3 04 04
        E 8 b3 04 17
        E 8 b3 04 06
        E 8 b3 04 00
        E 8 b3 04 12
        E 8 b3 04 08
        E 8 b3 04 05
        E 8 b3 04 0a
        E 8 b3 04 06
        E 8 b3 04 15
        E 8 b3 04 15
        E 8 b3 04 19
        E 8 b3 04 15
        E 8 b3 04 0b
        E 8 b3 04 17
        E 8 b3 04 12
        E 8 b3 04 03
        E 8 b3 04 0b
        E 8 b3 04 0d
        E 8 b3 04 18
        E 8 b3 04 13
        E 8 b3 04 0d
        E 8 b3 04 0e
        E 8 b3 04 01
        E 8 b3 04 02
        E 8 b3 04 17
        E 8 b3 04 14
        E 8 b3 04 0a
        E 8 b3 04 08
        E 8 b3 04 03
        E 8 b3 04 0b
        E 8 b3 04 07
        E 8 b3 04 06
        E 8 b3 04 09
        E 8 b3 04 0d
        E 8 b3 04 0f
        E 8 b3 04 10
        E 8 b3 04 04
        E 8 b3 04 0f
        E 8 b3 04 16
        E 8 b3 04 0d
        E 8 b3 04 0e
        E 8 b3 04 00
        E 8 b3 04 01
        E 8 b3 04 19
        E 8 b3 04 10
        E 8 b3 04 04
        E 8 b3 04 17
        E 8 b3 04 08
        E 8 b3 04 09
        E 8 b3 04 0c
        E 8 b3 04 0a
        E 8 b3 04 11
        E 8 b3 04 14
        E 8 b3 04 07
        E 8 b3 04 0e
        E 8 b3 04 05
        E 8 b3 04 16
        E 8 b3 04 15
        E 8 b3 04 0b
        E 8 b3 04 09
        E 8 b3 04 14
        E 8 b3 04 09
        E 8 b3 04 11
        E 8 b3 04 03
        E 8 b3 04 00
        E 8 b3 04 08
        E 8 b3 04 0c
        E 8 b3 04 15
        E 8 b3 04 13
        E 8 b3 04 00
        E 8 b3 04 16
        E 8 b3 04 12
        E 8 b3 04 01
        E 8 b3 04 07
        E 8 b3 04 0f
        E 8 b3 04 13
        E 8 b3 04 18
        E 8 b3 04 0f
        E 8 b3 04 0a
        E 8 b3 04 07
        E 8 b3 04 11
        E 8 b3 04 12
        E 8 b3 04 16
        E 8 b3 04 18
        E 8 b3 04 0c
        E 8 b3 04 10
        E 8 b3 04 11
        E 8 b3 04 0d
        E 8 b3 04 17
        E 8 b3 04 03
        E 8 b3 04 09
        E 8 b3 04 10
        E 6 b3 04 13
        E 6 b3 04 43
        E 6 b3 04 2c
        E 6 b3 04 07
        E 6 b3 04 3e
        E 6 b3 04 38
        E 6 b3 04 08
        E 6 b3 04 07
        E 6 b3 04 2a
        E 6 b3 04 54
        E 6 b3 04 46
        E 6 b3 04 4d
        E 6 b3 04 37
        E 6 b3 04 09
        E 6 b3 04 10
        E 6 b3 04 3c
        E 6 b3 04 31
        E 6 b3 04 19
        E 6 b3 04 11
        E 6 b3 04 17
        E 6 b3 04 45
        E 6 b3 04 29
        E 6 b3 04 15
        E 6 b3 04 33
        E 6 b3 04 58
        E 6 b3 04 00
        E 6 b3 04 0b
        E 6 b3 04 24
        E 6 b3 04 1e
        E 6 b3 04 48
        E 6 b3 04 12
        E 6 b3 04 05
        E 6 b3 04 0e
        E 6 b3 04 0f
        E 6 b3 04 50
        E 6 b3 04 16
        E 6 b3 04 00
        E 6 b3 04 41
        E 6 b3 04 1e
        E 6 b3 04 12
        E 6 b3 04 23
        E 6 b3 04 17
        E 6 b3 04 4b
        E 6 b3 04 4a
        E 6 b3 04 58
        E 6 b3 04 4a
        E 6 b3 04 26
        E 6 b3 04 52
        E 6 b3 04 3f
        E 6 b3 04 0a
        E 6 b3 04 27
        E 6 b3 04 2f
        E 6 b3 04 54
        E 6 b3 04 43
        E 6 b3 04 30
        E 6 b3 04 31
        E 6 b3 04 04
        E 6 b3 04 09
        E 6 b3 04 51
        E 6 b3 04 47
        E 6 b3 04 25
        E 6 b3 04 1c
        E 6 b3 04 0b
        E 6 b3 04 27
        E 6 b3 04 1a
        E 6 b3 04 15
        E 6 b3 04 21
        E 6 b3 04 2e
        E 6 b3 04 35
        E 6 b3 04 39
        E 6 b3 04 0e
        E 6 b3 04 35
        E 6 b3 04 4f
        E 6 b3 04 2d
        E 6 b3 04 33
        E 6 b3 04 02
        E 6 b3 04 06
        E 6 b3 04 57
        E 6 b3 04 3a
        E 6 b3 04 10
        E 6 b3 04 51
        E 6 b3 04 1c
        E 6 b3 04 22
        E 6 b3 04 2b
        E 6 b3 04 23
        E 6 b3 04 3b
        E 6 b3 04 48
        E 6 b3 04 19
        E 6 b3 04 32
        E 6 b3 04 14
        E 6 b3 04 4f
        E 6 b3 04 49
        E 6 b3 04 28
        E 6 b3 04 20
        E 6 b3 04 46
        E 6 b3 04 20
        E 6 b3 04 3e
        E 6 b3 04 0c
        E 6 b3 04 01
        E 6 b3 04 1d
        E 6 b3 04 2c
        E 6 b3 04 4c
        E 6 b3 04 44
        E 6 b3 04 02
        E 6 b3 04 4d
        E 6 b3 04 41
        E 6 b3 04 04
        E 6 b3 04 1b
        E 6 b3 04 34
        E 6 b3 04 42
        E 6 b3 04 55
        E 6 b3 04 36
        E 6 b3 04 25
        E 6 b3 04 18
        E 6 b3 04 3d
        E 6 b3 04 40
        E 6 b3 04 4e
        E 6 b3 04 56
        E 6 b3 04 2a
        E 6 b3 04 38
        E 6 b3 04 3c
        E 6 b3 04 2e
        E 6 b3 04 53
        E 6 b3 04 0d
        E 6 b3 04 1f
        E 6 b3 04 3a
        E 1 b3 04 0b
        E 1 b3 04 26
        E 1 b3 04 19
        E 1 b3 04 04
        E 1 b3 04 24
        E 1 b3 04 20
        E 1 b3 04 04
        E 1 b3 04 04
        E 1 b3 04 18
        E 1 b3 04 30
        E 1 b3 04 28
        E 1 b3 04 2c
        E 1 b3 04 1f
        E 1 b3 04 05
        E 1 b3 04 09
        E 1 b3 04 22
        E 1 b3 04 1c
        E 1 b3 04 0e
        E 1 b3 04 0a
        E 1 b3 04 0d
        E 1 b3 04 27
        E 1 b3 04 17
        E 1 b3 04 0c
        E 1 b3 04 1d
        E 1 b3 04 32
        E 1 b3 04 00
        E 1 b3 04 06
        E 1 b3 04 14
        E 1 b3 04 11
        E 1 b3 04 29
        E 1 b3 04 0a
        E 1 b3 04 03
        E 1 b3 04 08
        E 1 b3 04 08
        E 1 b3 04 2e
        E 1 b3 04 0c
        E 1 b3 04 00
        E 1 b3 04 25
        E 1 b3 04 11
        E 1 b3 04 0a
        E 1 b3 04 14
        E 1 b3 04 0d
        E 1 b3 04 2b
        E 1 b3 04 2a
        E 1 b3 04 32
        E 1 b3 04 2a
        E 1 b3 04 16
        E 1 b3 04 2f
        E 1 b3 04 24
        E 1 b3 04 06
        E 1 b3 04 16
        E 1 b3 04 1b
        E 1 b3 04 30
        E 1 b3 04 26
        E 1 b3 04 1b
        E 1 b3 04 1c
        E 1 b3 04 02
        E 1 b3 04 05
        E 1 b3 04 2e
        E 1 b3 04 28
        E 1 b3 04 15
        E 1 b3 04 10
        E 1 b3 04 06
        E 1 b3 04 16
        E 1 b3 04 0f
        E 1 b3 04 0c
        E 1 b3 04 13
        E 1 b3 04 1a
        E 1 b3 04 1e
        E 1 b3 04 20
        E 1 b3 04 08
        E 1 b3 04 1e
        E 1 b3 04 2d
        E 1 b3 04 1a
        E 1 b3 04 1d
        E 1 b3 04 01
        E 1 b3 04 03
        E 1 b3 04 32
        E 1 b3 04 21
        E 1 b3 04 09
        E 1 b3 04 2e
        E 1 b3 04 10
        E 1 b3 04 13
        E 1 b3 04 18
        E 1 b3 04 14
        E 1 b3 04 22
        E 1 b3 04 29
        E 1 b3 04 0e
        E 1 b3 04 1c
        E 1 b3 04 0b
        E 1 b3 04 2d
        E 1 b3 04 2a
        E 1 b3 04 17
        E 1 b3 04 12
        E 1 b3 04 28
        E 1 b3 04 12
        E 1 b3 04 23
        E 1 b3 04 07
        E 1 b3 04 00
        E 1 b3 04 10
        E 1 b3 04 19
        E 1 b3 04 2b
        E 1 b3 04 27
        E 1 b3 04 01
        E 1 b3 04 2c
        E 1 b3 04 25
        E 1 b3 04 02
        E 1 b3 04 0f
        E 1 b3 04 1e
        E 1 b3 04 26
        E 1 b3 04 30
        E 1 b3 04 1f
        E 1 b3 04 15
        E 1 b3 04 0e
        E 1 b3 04 23
        E 1 b3 04 24
        E 1 b3 04 2c
        E 1 b3 04 31
        E 1 b3 04 18
        E 1 b3 04 20
        E 1 b3 04 22
        E 1 b3 04 1a
        E 1 b3 04 2f
        E 1 b3 04 07
        E 1 b3 04 12
        E 1 b3 04 21
        E 15 b3 04 1c
        E 15 b3 04 60
        E 15 b3 04 3f
        E 15 b3 04 0a
        E 15 b3 04 5a
        E 15 b3 04 50
        E 15 b3 04 0c
        E 15 b3 04 0b
        E 15 b3 04 3d
        E 15 b3 04 78
        E 15 b3 04 65
        E 15 b3 04 6f
        E 15 b3 04 4f
        E 15 b3 04 0e
        E 15 b3 04 18
        E 15 b3 04 56
        E 15 b3 04 46
        E 15 b3 04 24
        E 15 b3 04 19
        E 15 b3 04 22
        E 15 b3 04 63
        E 15 b3 04 3b
        E 15 b3 04 1e
        E 15 b3 04 49
        E 15 b3 04 7e
        E 15 b3 04 00
        E 15 b3 04 10
        E 15 b3 04 34
        E 15 b3 04 2b
        E 15 b3 04 68
        E 15 b3 04 1b
        E 15 b3 04 08
        E 15 b3 04 14
        E 15 b3 04 16
        E 15 b3 04 73
        E 15 b3 04 20
        E 15 b3 04 01
        E 15 b3 04 5e
        E 15 b3 04 2c
        E 15 b3 04 1a
        E 15 b3 04 32
        E 15 b3 04 21
        E 15 b3 04 6c
        E 15 b3 04 6b
        E 15 b3 04 7f
        E 15 b3 04 6a
        E 15 b3 04 37
        E 15 b3 04 76
        E 15 b3 04 5b
        E 15 b3 04 0f
        E 15 b3 04 38
        E 15 b3 04 44
        E 15 b3 04 79
        E 15 b3 04 61
        E 15 b3 04 45
        E 15 b3 04 47
        E 15 b3 04 06
        E 15 b3 04 0d
        E 15 b3 04 75
        E 15 b3 04 66
        E 15 b3 04 36
        E 15 b3 04 28
        E 15 b3 04 11
        E 15 b3 04 39
        E 15 b3 04 26
        E 15 b3 04 1f
        E 15 b3 04 30
        E 15 b3 04 42
        E 15 b3 04 4d
        E 15 b3 04 52
        E 15 b3 04 15
        E 15 b3 04 4c
        E 15 b3 04 71
        E 15 b3 04 41
        E 15 b3 04 4a
        E 15 b3 04 03
        E 15 b3 04 09
        E 15 b3 04 7d
        E 15 b3 04 53
        E 15 b3 04 17
        E 15 b3 04 74
        E 15 b3 04 29
        E 15 b3 04 31
        E 15 b3 04 3e
        E 15 b3 04 33
        E 15 b3 04 55
        E 15 b3 04 67
        E 15 b3 04 25
        E 15 b3 04 48
        E 15 b3 04 1d
        E 15 b3 04 72
        E 15 b3 04 69
        E 15 b3 04 3a
        E 15 b3 04 2e
        E 15 b3 04 64
        E 15 b3 04 2f
        E 15 b3 04 59
        E 15 b3 04 12
        E 15 b3 04 02
        E 15 b3 04 2a
        E 15 b3 04 40
        E 15 b3 04 6d
        E 15 b3 04 62
        E 15 b3 04 04
        E 15 b3 04 6e
        E 15 b3 04 5d
        E 15 b3 04 07
        E 15 b3 04 27
        E 15 b3 04 4b
        E 15 b3 04 5f
        E 15 b3 04 7a
        E 15 b3 04 4e
        E 15 b3 04 35
        E 15 b3 04 23
        E 15 b3 04 58
        E 15 b3 04 5c
        E 15 b3 04 70
        E 15 b3 04 7c
        E 15 b3 04 3c
        E 15 b3 04 51
        E 15 b3 04 57
        E 15 b3 04 43
        E 15 b3 04 77
        E 15 b3 04 13
        E 15 b3 04 2d
        E 15 b3 04 54
        E 3 b3 04 19
        E 3 b3 04 56
        E 3 b3 04 38
        E 3 b3 04 09
        E 3 b3 04 51
        E 3 b3 04 48
        E 3 b3 04 0a
        E 3 b3 04 09
        E 3 b3 04 36
        E 3 b3 04 6c
        E 3 b3 04 5a
        E 3 b3 04 63
        E 3 b3 04 47
        E 3 b3 04 0c
        E 3 b3 04 15
        E 3 b3 04 4d
        E 3 b3 04 3f
        E 3 b3 04 20
        E 3 b3 04 16
        E 3 b3 04 1e
        E 3 b3 04 59
        E 3 b3 04 35
        E 3 b3 04 1b
        E 3 b3 04 41
        E 3 b3 04 71
        E 3 b3 04 00
        E 3 b3 04 0e
        E 3 b3 04 2e
        E 3 b3 04 26
        E 3 b3 04 5d
        E 3 b3 04 18
        E 3 b3 04 07
        E 3 b3 04 12
        E 3 b3 04 13
        E 3 b3 04 67
        E 3 b3 04 1c
        E 3 b3 04 00
        E 3 b3 04 54
        E 3 b3 04 27
        E 3 b3 04 17
        E 3 b3 04 2d
        E 3 b3 04 1d
        E 3 b3 04 61
        E 3 b3 04 60
        E 3 b3 04 72
        E 3 b3 04 5f
        E 3 b3 04 31
        E 3 b3 04 6a
        E 3 b3 04 51
        E 3 b3 04 0d
        E 3 b3 04 32
        E 3 b3 04 3d
        E 3 b3 04 6c
        E 3 b3 04 57
        E 3 b3 04 3e
        E 3 b3 04 3f
        E 3 b3 04 05
        E 3 b3 04 0b
        E 3 b3 04 69
        E 3 b3 04 5b
        E 3 b3 04 30
        E 3 b3 04 24
        E 3 b3 04 0f
        E 3 b3 04 33
        E 3 b3 04 22
        E 3 b3 04 1b
        E 3 b3 04 2b
        E 3 b3 04 3b
        E 3 b3 04 45
        E 3 b3 04 49
        E 3 b3 04 12
        E 3 b3 04 44
        E 3 b3 04 65
        E 3 b3 04 3a
        E 3 b3 04 42
        E 3 b3 04 02
        E 3 b3 04 08
        E 3 b3 04 70
        E 3 b3 04 4a
        E 3 b3 04 14
        E 3 b3 04 68
        E 3 b3 04 24
        E 3 b3 04 2c
        E 3 b3 04 37
        E 3 b3 04 2d
        E 3 b3 04 4c
        E 3 b3 04 5c
        E 3 b3 04 21
        E 3 b3 04 40
        E 3 b3 04 1a
        E 3 b3 04 66
        E 3 b3 04 5e
        E 3 b3 04 34
        E 3 b3 04 29
        E 3 b3 04 5a
        E 3 b3 04 2a
        E 3 b3 04 50
        E 3 b3 04 10
        E 3 b3 04 01
        E 3 b3 04 25
        E 3 b3 04 39
        E 3 b3 04 62
        E 3 b3 04 58
        E 3 b3 04 03
        E 3 b3 04 63
        E 3 b3 04 53
        E 3 b3 04 06
        E 3 b3 04 23
        E 3 b3 04 43
        E 3 b3 04 55
        E 3 b3 04 6d
        E 3 b3 04 46
        E 3 b3 04 2f
        E 3 b3 04 1f
        E 3 b3 04 4f
        E 3 b3 04 52
        E 3 b3 04 64
        E 3 b3 04 6f
        E 3 b3 04 36
        E 3 b3 04 48
        E 3 b3 04 4e
        E 3 b3 04 3c
        E 3 b3 04 6b
        E 3 b3 04 11
        E 3 b3 04 28
        E 3 b3 04 4b
        E 1 b3 04 10
        E 1 b3 04 39
        E 1 b3 04 25
        E 1 b3 04 06
        E 1 b3 04 36
        E 1 b3 04 30
        E 1 b3 04 07
        E 1 b3 04 06
        E 1 b3 04 24
        E 1 b3 04 48
        E 1 b3 04 3c
        E 1 b3 04 42
        E 1 b3 04 2f
        E 1 b3 04 08
        E 1 b3 04 0e
        E 1 b3 04 33
        E 1 b3 04 2a
        E 1 b3 04 15
        E 1 b3 04 0f
        E 1 b3 04 14
        E 1 b3 04 3b
        E 1 b3 04 23
        E 1 b3 04 12
        E 1 b3 04 2b
        E 1 b3 04 4b
        E 1 b3 04 00
        E 1 b3 04 09
        E 1 b3 04 1f
        E 1 b3 04 19
        E 1 b3 04 3e
        E 1 b3 04 10
        E 1 b3 04 04
        E 1 b3 04 0c
        E 1 b3 04 0d
        E 1 b3 04 45
        E 1 b3 04 13
        E 1 b3 04 00
        E 1 b3 04 38
        E 1 b3 04 1a
        E 1 b3 04 0f
        E 1 b3 04 1e
        E 1 b3 04 13
        E 1 b3 04 40
        E 1 b3 04 40
        E 1 b3 04 4c
        E 1 b3 04 3f
        E 1 b3 04 21
        E 1 b3 04 46
        E 1 b3 04 36
        E 1 b3 04 09
        E 1 b3 04 21
        E 1 b3 04 28
        E 1 b3 04 48
        E 1 b3 04 3a
        E 1 b3 04 29
        E 1 b3 04 2a
        E 1 b3 04 03
        E 1 b3 04 07
        E 1 b3 04 46
        E 1 b3 04 3d
        E 1 b3 04 20
        E 1 b3 04 18
        E 1 b3 04 0a
        E 1 b3 04 22
        E 1 b3 04 16
        E 1 b3 04 12
        E 1 b3 04 1c
        E 1 b3 04 27
        E 1 b3 04 2e
        E 1 b3 04 31
        E 1 b3 04 0c
        E 1 b3 04 2d
        E 1 b3 04 43
        E 1 b3 04 27
        E 1 b3 04 2c
        E 1 b3 04 01
        E 1 b3 04 05
        E 1 b3 04 4b
        E 1 b3 04 31
        E 1 b3 04 0d
        E 1 b3 04 45
        E 1 b3 04 18
        E 1 b3 04 1d
        E 1 b3 04 25
        E 1 b3 04 1e
        E 1 b3 04 33
        E 1 b3 04 3d
        E 1 b3 04 16
        E 1 b3 04 2b
        E 1 b3 04 11
        E 1 b3 04 44
        E 1 b3 04 3f
        E 1 b3 04 22
        E 1 b3 04 1b
        E 1 b3 04 3c
        E 1 b3 04 1c
        E 1 b3 04 35
        E 1 b3 04 0a
        E 1 b3 04 01
        E 1 b3 04 19
        E 1 b3 04 26
        E 1 b3 04 41
        E 1 b3 04 3a
        E 1 b3 04 02
        E 1 b3 04 42
        E 1 b3 04 37
        E 1 b3 04 04
        E 1 b3 04 17
        E 1 b3 04 2d
        E 1 b3 04 39
        E 1 b3 04 49
        E 1 b3 04 2e
        E 1 b3 04 1f
        E 1 b3 04 15
        E 1 b3 04 34
        E 1 b3 04 37
        E 1 b3 04 43
        E 1 b3 04 4a
        E 1 b3 04 24
        E 1 b3 04 30
        E 1 b3 04 34
        E 1 b3 04 28
        E 1 b3 04 47
        E 1 b3 04 0b
        E 1 b3 04 1b
        E 1 b3 04 32
        E 8 b3 04 05
        E 8 b3 04 13
        E 8 b3 04 0c
        E 8 b3 04 02
        E 8 b3 04 12
        E 8 b3 04 10
        E 8 b3 04 02
        E 8 b3 04 02
        E 8 b3 04 0c
        E 8 b3 04 18
        E 8 b3 04 14
        E 8 b3 04 16
        E 8 b3 04 0f
        E 8 b3 04 02
        E 8 b3 04 04
        E 8 b3 04 11
        E 8 b3 04 0e
        E 8 b3 04 07
        E 8 b3 04 05
        E 8 b3 04 06
        E 8 b3 04 13
        E 8 b3 04 0b
        E 8 b3 04 06
        E 8 b3 04 0e
        E 8 b3 04 19
        E 8 b3 04 00
        E 8 b3 04 03
        E 8 b3 04 0a
        E 8 b3 04 08
        E 8 b3 04 14
        E 8 b3 04 05
        E 8 b3 04 01
        E 8 b3 04 04
        E 8 b3 04 04
        E 8 b3 04 17
        E 8 b3 04 06
        E 8 b3 04 00
        E 8 b3 04 12
        E 8 b3 04 08
        E 8 b3 04 05
        E 8 b3 04 0a
        E 8 b3 04 06
        E 8 b3 04 15
        E 8 b3 04 15
        E 8 b3 04 19
        E 8 b3 04 15
        E 8 b3 04 0b
        E 8 b3 04 17
        E 8 b3 04 12
        E 8 b3 04 03
        E 8 b3 04 0b
        E 8 b3 04 0d
        E 8 b3 04 18
        E 8 b3 04 13
        E 8 b3 04 0d
        E 8 b3 04 0e
        E 8 b3 04 01
        E 8 b3 04 02
        E 8 b3 04 17
        E 8 b3 04 14
        E 8 b3 04 0a
        E 8 b3 04 08
        E 8 b3 04 03
        E 8 b3 04 0b
        E 8 b3 04 07
        E 8 b3 04 06
        E 8 b3 04 09
        E 8 b3 04 0d
        E 8 b3 04 0f
        E 8 b3 04 10
        E 8 b3 04 04
        E 8 b3 04 0f
        E 8 b3 04 16
        E 8 b3 04 0d
        E 8 b3 04 0e
        E 8 b3 04 00
        E 8 b3 04 01
        E 8 b3 04 19
        E 8 b3 04 10
        E 8 b3 04 04
        E 8 b3 04 17
        E 8 b3 04 08
        E 8 b3 04 09
        E 8 b3 04 0c
        E 8 b3 04 0a
        E 8 b3 04 11
        E 8 b3 04 14
        E 8 b3 04 07
        E 8 b3 04 0e
        E 8 b3 04 05
        E 8 b3 04 16
        E 8 b3 04 15
        E 8 b3 04 0b
        E 8 b3 04 09
        E 8 b3 04 14
        E 8 b3 04 09
        E 8 b3 04 11
        E 8 b3 04 03
        E 8 b3 04 00
        E 8 b3 04 08
        E 8 b3 04 0c
        E 8 b3 04 15
        E 8 b3 04 13
        E 8 b3 04 00
        E 8 b3 04 16
        E 8 b3 04 12
        E 8 b3 04 01
        E 8 b3 04 07
        E 8 b3 04 0f
        E 8 b3 04 13
        E 8 b3 04 18
        E 8 b3 04 0f
        E 8 b3 04 0a
        E 8 b3 04 07
        E 8 b3 04 11
        E 8 b3 04 12
        E 8 b3 04 16
        E 8 b3 04 18
        E 8 b3 04 0c
        E 8 b3 04 10
        E 8 b3 04 11
        E 8 b3 04 0d
        E 8 b3 04 17
        E 8 b3 04 03
        E 8 b3 04 09
        E 8 b3 04 10
        E 6 b3 04 13
        E 6 b3 04 43
        E 6 b3 04 2c
        E 6 b3 04 07
        E 6 b3 04 3e
        E 6 b3 04 38
        E 6 b3 04 08
        E 6 b3 04 07
        E 6 b3 04 2a
        E 6 b3 04 54
        E 6 b3 04 46
        E 6 b3 04 4d
        E 6 b3 04 37
        E 6 b3 04 09
        E 6 b3 04 10
        E 6 b3 04 3c
        E 6 b3 04 31
        E 6 b3 04 19
        E 6 b3 04 11
        E 6 b3 04 17
        E 6 b3 04 45
        E 6 b3 04 29
        E 6 b3 04 15
        E 6 b3 04 33
        E 6 b3 04 58
        E 6 b3 04 00
        E 6 b3 04 0b
        E 6 b3 04 24
        E 6 b3 04 1e
        E 6 b3 04 48
        E 6 b3 04 12
        E 6 b3 04 05
        E 6 b3 04 0e
        E 6 b3 04 0f
        E 6 b3 04 50
        E 6 b3 04 16
        E 6 b3 04 00
        E 6 b3 04 41
        E 6 b3 04 1e
        E 6 b3 04 12
        E 6 b3 04 23
        E 6 b3 04 17
        E 6 b3 04 4b
        E 6 b3 04 4a
        E 6 b3 04 58
        E 6 b3 04 4a
        E 6 b3 04 26
        E 6 b3 04 52
        E 6 b3 04 3f
        E 6 b3 04 0a
        E 6 b3 04 27
        E 6 b3 04 2f
        E 6 b3 04 54
        E 6 b3 04 43
        E 6 b3 04 30
        E 6 b3 04 31
        E 6 b3 04 04
        E 6 b3 04 09
        E 6 b3 04 51
        E 6 b3 04 47
        E 6 b3 04 25
        E 6 b3 04 1c
        E 6 b3 04 0b
        E 6 b3 04 27
        E 6 b3 04 1a
        E 6 b3 04 15
        E 6 b3 04 21
        E 6 b3 04 2e
        E 6 b3 04 35
        E 6 b3 04 39
        E 6 b3 04 0e
        E 6 b3 04 35
        E 6 b3 04 4f
        E 6 b3 04 2d
        E 6 b3 04 33
        E 6 b3 04 02
        E 6 b3 04 06
        E 6 b3 04 57
        E 6 b3 04 3a
        E 6 b3 04 10
        E 6 b3 04 51
        E 6 b3 04 1c
        E 6 b3 04 22
        E 6 b3 04 2b
        E 6 b3 04 23
        E 6 b3 04 3b
        E 6 b3 04 48
        E 6 b3 04 19
        E 6 b3 04 32
        E 6 b3 04 14
        E 6 b3 04 4f
        E 6 b3 04 49
        E 6 b3 04 28
        E 6 b3 04 20
        E 6 b3 04 46
        E 6 b3 04 20
        E 6 b3 04 3e
        E 6 b3 04 0c
        E 6 b3 04 01
        E 6 b3 04 1d
        E 6 b3 04 2c
        E 6 b3 04 4c
        E 6 b3 04 44
        E 6 b3 04 02
        E 6 b3 04 4d
        E 6 b3 04 41
        E 6 b3 04 04
        E 6 b3 04 1b
        E 6 b3 04 34
        E 6 b3 04 42
        E 6 b3 04 55
        E 6 b3 04 36
        E 6 b3 04 25
        E 6 b3 04 18
        E 6 b3 04 3d
        E 6 b3 04 40
        E 6 b3 04 4e
        E 6 b3 04 56
        E 6 b3 04 2a
        E 6 b3 04 38
        E 6 b3 04 3c
        E 6 b3 04 2e
        E 6 b3 04 53
        E 6 b3 04 0d
        E 6 b3 04 1f
        E 6 b3 04 3a
        E 1 b3 04 0b
        E 1 b3 04 26
        E 1 b3 04 19
        E 1 b3 04 04
        E 1 b3 04 24
        E 1 b3 04 20
        E 1 b3 04 04
        E 1 b3 04 04
        E 1 b3 04 18
        E 1 b3 04 30
        E 1 b3 04 28
        E 1 b3 04 2c
        E 1 b3 04 1f
        E 1 b3 04 05
        E 1 b3 04 09
        E 1 b3 04 22
        E 1 b3 04 1c
        E 1 b3 04 0e
        E 1 b3 04 0a
        E 1 b3 04 0d
        E 1 b3 04 27
        E 1 b3 04 17
        E 1 b3 04 0c
        E 1 b3 04 1d
        E 1 b3 04 32
        E 1 b3 04 00
        E 1 b3 04 06
        E 1 b3 04 14
        E 1 b3 04 11
        E 1 b3 04 29
        E 1 b3 04 0a
        E 1 b3 04 03
        E 1 b3 04 08
        E 1 b3 04 08
        E 1 b3 04 2e
        E 1 b3 04 0c
        E 1 b3 04 00
        E 1 b3 04 25
        E 1 b3 04 11
        E 1 b3 04 0a
        E 1 b3 04 14
        E 1 b3 04 0d
        E 1 b3 04 2b
        E 1 b3 04 2a
        E 1 b3 04 32
        E 1 b3 04 2a
        E 1 b3 04 16
        E 1 b3 04 2f
        E 1 b3 04 24
        E 1 b3 04 06
        E 1 b3 04 16
        E 1 b3 04 1b
        E 1 b3 04 30
        E 1 b3 04 26
        E 1 b3 04 1b
        E 1 b3 04 1c
        E 1 b3 04 02
        E 1 b3 04 05
        E 1 b3 04 2e
        E 1 b3 04 28
        E 1 b3 04 15
        E 1 b3 04 10
        E 1 b3 04 06
        E 1 b3 04 16
        E 1 b3 04 0f
        E 1 b3 04 0c
        E 1 b3 04 13
        E 1 b3 04 1a
        E 1 b3 04 1e
        E 1 b3 04 20
        E 1 b3 04 08
        E 1 b3 04 1e
        E 1 b3 04 2d
        E 1 b3 04 1a
        E 1 b3 04 1d
        E 1 b3 04 01
        E 1 b3 04 03
        E 1 b3 04 32
        E 1 b3 04 21
        E 1 b3 04 09
        E 1 b3 04 2e
        E 1 b3 04 10
        E 1 b3 04 13
        E 1 b3 04 18
        E 1 b3 04 14
        E 1 b3 04 22
        E 1 b3 04 29
        E 1 b3 04 0e
        E 1 b3 04 1c
        E 1 b3 04 0b
        E 1 b3 04 2d
        E 1 b3 04 2a
        E 1 b3 04 17
        E 1 b3 04 12
        E 1 b3 04 28
        E 1 b3 04 12
        E 1 b3 04 23
        E 1 b3 04 07
        E 1 b3 04 00
        E 1 b3 04 10
        E 1 b3 04 19
        E 1 b3 04 2b
        E 1 b3 04 27
        E 1 b3 04 01
        E 1 b3 04 2c
        E 1 b3 04 25
        E 1 b3 04 02
        E 1 b3 04 0f
        E 1 b3 04 1e
        E 1 b3 04 26
        E 1 b3 04 30
        E 1 b3 04 1f
        E 1 b3 04 15
        E 1 b3 04 0e
        E 1 b3 04 23
        E 1 b3 04 24
        E 1 b3 04 2c
        E 1 b3 04 31
        E 1 b3 04 18
        E 1 b3 04 20
        E 1 b3 04 22
        E 1 b3 04 1a
        E 1 b3 04 2f
        E 1 b3 04 07
        E 1 b3 04 12
        E 1 b3 04 21
        E 15 b3 04 1c
        E 15 b3 04 60
        E 15 b3 04 3f
        E 15 b3 04 0a
        E 15 b3 04 5a
        E 15 b3 04 50
        E 15 b3 04 0c
        E 15 b3 04 0b
        E 15 b3 04 3d
        E 15 b3 04 78
        E 15 b3 04 65
        E 15 b3 04 6f
        E 15 b3 04 4f
        E 15 b3 04 0e
        E 15 b3 04 18
        E 15 b3 04 56
        E 15 b3 04 46
        E 15 b3 04 24
        E 15 b3 04 19
        E 15 b3 04 22
        E 15 b3 04 63
        E 15 b3 04 3b
        E 15 b3 04 1e
        E 15 b3 04 49
        E 15 b3 04 7e
        E 15 b3 04 00
        E 15 b3 04 10
        E 15 b3 04 34
        E 15 b3 04 2b
        E 15 b3 04 68
        E 15 b3 04 1b
        E 15 b3 04 08
        E 15 b3 04 14
        E 15 b3 04 16
        E 15 b3 04 73
        E 15 b3 04 20
        E 15 b3 04 01
        E 15 b3 04 5e
        E 15 b3 04 2c
        E 15 b3 04 1a
        E 15 b3 04 32
        E 15 b3 04 21
        E 15 b3 04 6c
        E 15 b3 04 6b
        E 15 b3 04 7f
        E 15 b3 04 6a
        E 15 b3 04 37
        E 15 b3 04 76
        E 15 b3 04 5b
        E 15 b3 04 0f
        E 15 b3 04 38
        E 15 b3 04 44
        E 15 b3 04 79
        E 15 b3 04 61
        E 15 b3 04 45
        E 15 b3 04 47
        E 15 b3 04 06
        E 15 b3 04 0d
        E 15 b3 04 75
        E 15 b3 04 66
        E 15 b3 04 36
        E 15 b3 04 28
        E 15 b3 04 11
        E 15 b3 04 39
        E 15 b3 04 26
        E 15 b3 04 1f
        E 15 b3 04 30
        E 15 b3 04 42
        E 15 b3 04 4d
        E 15 b3 04 52
        E 15 b3 04 15
        E 15 b3 04 4c
        E 15 b3 04 71
        E 15 b3 04 41
        E 15 b3 04 4a
        E 15 b3 04 03
        E 15 b3 04 09
        E 15 b3 04 7d
        E 15 b3 04 53
        E 15 b3 04 17
        E 15 b3 04 74
        E 15 b3 04 29
        E 15 b3 04 31
        E 15 b3 04 3e
        E 15 b3 04 33
        E 15 b3 04 55
        E 15 b3 04 67
        E 15 b3 04 25
        E 15 b3 04 48
        E 15 b3 04 1d
        E 15 b3 04 72
        E 15 b3 04 69
        E 15 b3 04 3a
        E 15 b3 04 2e
        E 15 b3 04 64
        E 15 b3 04 2f
        E 15 b3 04 59
        E 15 b3 04 12
        E 15 b3 04 02
        E 15 b3 04 2a
        E 15 b3 04 40
        E 15 b3 04 6d
        E 15 b3 04 62
        E 15 b3 04 04
        E 15 b3 04 6e
        E 15 b3 04 5d
        E 15 b3 04 07
        E 15 b3 04 27
        E 15 b3 04 4b
        E 15 b3 04 5f
        E 15 b3 04 7a
        E 15 b3 04 4e
        E 15 b3 04 35
        E 15 b3 04 23
        E 15 b3 04 58
        E 15 b3 04 5c
        E 15 b3 04 70
        E 15 b3 04 7c
        E 15 b3 04 3c
        E 15 b3 04 51
        E 15 b3 04 57
        E 15 b3 04 43
        E 15 b3 04 77
        E 15 b3 04 13
        E 15 b3 04 2d
        E 15 b3 04 54
        E 11 b3 04 0c
        E 11 b3 04 0d
        E 11 b3 04 0e
        E 11 b3 04 0e
        E 11 b3 04 0f
        E 11 b3 04 0f
        E 11 b3 04 10
        E 11 b3 04 11
        E 11 b3 04 11
        E 11 b3 04 12
        E 11 b3 04 12
        E 11 b3 04 13
        E 11 b3 04 13
        E 11 b3 04 14
        E 11 b3 04 14
        E 11 b3 04 15
        E 11 b3 04 15
        E 11 b3 04 16
        E 11 b3 04 16
        E 11 b3 04 17
        E 11 b3 04 17
        E 11 b3 04 17
        E 11 b3 04 18
        E 11 b3 04 18
        E 11 b3 04 18
        E 11 b3 04 18
        E 11 b3 04 18
        E 11 b3 04 19
        E 11 b3 04 19
        E 11 b3 04 19
        E 11 b3 04 19
        E 11 b3 04 19
        E 11 b3 04 19
        E 11 b3 04 19
        E 11 b3 04 19
        E 11 b3 04 19
        E 11 b3 04 19
        E 11 b3 04 19
        E 11 b3 04 18
        E 11 b3 04 18
        E 11 b3 04 18
        E 11 b3 04 18
        E 11 b3 04 17
        E 11 b3 04 17
        E 11 b3 04 17
        E 11 b3 04 16
        E 11 b3 04 16
        E 11 b3 04 16
        E 11 b3 04 15
        E 11 b3 04 15
        E 11 b3 04 14
        E 11 b3 04 14
        E 11 b3 04 13
        E 11 b3 04 13
        E 11 b3 04 12
        E 11 b3 04 11
        E 11 b3 04 11
        E 11 b3 04 10
        E 11 b3 04 10
        E 11 b3 04 0f
        E 11 b3 04 0e
        E 11 b3 04 0e
        E 11 b3 04 0d
        E 11 b3 04 0d
        E 11 b3 04 0c
        E 11 b3 04 0b
        E 11 b3 04 0b
        E 11 b3 04 0a
        E 11 b3 04 09
        E 11 b3 04 09
        E 11 b3 04 08
        E 11 b3 04 08
        E 11 b3 04 07
        E 11 b3 04 07
        E 11 b3 04 06
        E 11 b3 04 05
        E 11 b3 04 05
        E 11 b3 04 04
        E 11 b3 04 04
        E 11 b3 04 03
        E 11 b3 04 03
        E 11 b3 04 03
        E 11 b3 04 02
        E 11 b3 04 02
        E 11 b3 04 02
        E 11 b3 04 01
        E 11 b3 04 01
        E 11 b3 04 01
        E 11 b3 04 00
        E 11 b3 04 00
        E 11 b3 04 00
        E 11 b3 04 00
        E 11 b3 04 00
        E 11 b3 04 00
        E 11 b3 04 00
        E 11 b3 04 00
        E 11 b3 04 00
        E 11 b3 04 00
        E 11 b3 04 00
        E 11 b3 04 00
        E 11 b3 04 00
        E 11 b3 04 00
        E 11 b3 04 00
        E 11 b3 04 01
        E 11 b3 04 01
        E 11 b3 04 01
        E 11 b3 04 01
        E 11 b3 04 02
        E 11 b3 04 02
        E 11 b3 04 02
        E 11 b3 04 03
        E 11 b3 04 03
        E 11 b3 04 04
        E 11 b3 04 04
        E 11 b3 04 05
        E 11 b3 04 05
        E 11 b3 04 06
        E 11 b3 04 06
        E 11 b3 04 07
        E 11 b3 04 07
        E 11 b3 04 08
        E 11 b3 04 09
        E 11 b3 04 09
        E 11 b3 04 0a
        E 11 b3 04 0a
        E 11 b3 04 0b
        E 11 b3 04 0c
        E 11 b3 04 0c
        E 8 b3 04 2c
        E 8 b3 04 2e
        E 8 b3 04 31
        E 8 b3 04 33
        E 8 b3 04 35
        E 8 b3 04 37
        E 8 b3 04 39
        E 8 b3 04 3b
        E 8 b3 04 3d
        E 8 b3 04 3f
        E 8 b3 04 41
        E 8 b3 04 43
        E 8 b3 04 45
        E 8 b3 04 47
        E 8 b3 04 48
        E 8 b3 04 4a
        E 8 b3 04 4c
        E 8 b3 04 4d
        E 8 b3 04 4f
        E 8 b3 04 50
        E 8 b3 04 51
        E 8 b3 04 52
        E 8 b3 04 54
        E 8 b3 04 54
        E 8 b3 04 55
        E 8 b3 04 56
        E 8 b3 04 56
        E 8 b3 04 57
        E 8 b3 04 58
        E 8 b3 04 58
        E 8 b3 04 58
        E 8 b3 04 58
        E 8 b3 04 58
        E 8 b3 04 58
        E 8 b3 04 58
        E 8 b3 04 58
        E 8 b3 04 58
        E 8 b3 04 57
        E 8 b3 04 56
        E 8 b3 04 56
        E 8 b3 04 55
        E 8 b3 04 54
        E 8 b3 04 53
        E 8 b3 04 51
        E 8 b3 04 51
        E 8 b3 04 4f
        E 8 b3 04 4e
        E 8 b3 04 4d
        E 8 b3 04 4b
        E 8 b3 04 49
        E 8 b3 04 48
        E 8 b3 04 46
        E 8 b3 04 44
        E 8 b3 04 42
        E 8 b3 04 40
        E 8 b3 04 3e
        E 8 b3 04 3c
        E 8 b3 04 3a
        E 8 b3 04 38
        E 8 b3 04 36
        E 8 b3 04 33
        E 8 b3 04 31
        E 8 b3 04 2f
        E 8 b3 04 2d
        E 8 b3 04 2b
        E 8 b3 04 29
        E 8 b3 04 27
        E 8 b3 04 25
        E 8 b3 04 22
        E 8 b3 04 20
        E 8 b3 04 1e
        E 8 b3 04 1c
        E 8 b3 04 1a
        E 8 b3 04 18
        E 8 b3 04 16
        E 8 b3 04 14
        E 8 b3 04 12
        E 8 b3 04 10
        E 8 b3 04 0f
        E 8 b3 04 0d
        E 8 b3 04 0b
        E 8 b3 04 0a
        E 8 b3 04 09
        E 8 b3 04 07
        E 8 b3 04 07
        E 8 b3 04 05
        E 8 b3 04 04
        E 8 b3 04 03
        E 8 b3 04 02
        E 8 b3 04 02
        E 8 b3 04 01
        E 8 b3 04 00
        E 8 b3 04 00
        E 8 b3 04 00
        E 8 b3 04 00
        E 8 b3 04 00
        E 8 b3 04 00
        E 8 b3 04 00
        E 8 b3 04 00
        E 8 b3 04 00
        E 8 b3 04 01
        E 8 b3 04 02
        E 8 b3 04 02
        E 8 b3 04 03
        E 8 b3 04 04
        E 8 b3 04 04
        E 8 b3 04 06
        E 8 b3 04 07
        E 8 b3 04 08
        E 8 b3 04 09
        E 8 b3 04 0b
        E 8 b3 04 0c
        E 8 b3 04 0e
        E 8 b3 04 10
        E 8 b3 04 11
        E 8 b3 04 13
        E 8 b3 04 15
        E 8 b3 04 17
        E 8 b3 04 19
        E 8 b3 04 1b
        E 8 b3 04 1d
        E 8 b3 04 1f
        E 8 b3 04 21
        E 8 b3 04 23
        E 8 b3 04 25
        E 8 b3 04 27
        E 8 b3 04 2a
        E 8 b3 04 2c
        E 2 b3 04 19
        E 2 b3 04 1a
        E 2 b3 04 1c
        E 2 b3 04 1d
        E 2 b3 04 1e
        E 2 b3 04 1f
        E 2 b3 04 20
        E 2 b3 04 22
        E 2 b3 04 23
        E 2 b3 04 24
        E 2 b3 04 25
        E 2 b3 04 26
        E 2 b3 04 27
        E 2 b3 04 28
        E 2 b3 04 29
        E 2 b3 04 2a
        E 2 b3 04 2b
        E 2 b3 04 2c
        E 2 b3 04 2d
        E 2 b3 04 2e
        E 2 b3 04 2e
        E 2 b3 04 2f
        E 2 b3 04 30
        E 2 b3 04 30
        E 2 b3 04 30
        E 2 b3 04 31
        E 2 b3 04 31
        E 2 b3 04 32
        E 2 b3 04 32
        E 2 b3 04 32
        E 2 b3 04 32
        E 2 b3 04 32
        E 2 b3 04 32
        E 2 b3 04 32
        E 2 b3 04 32
        E 2 b3 04 32
        E 2 b3 04 32
        E 2 b3 04 32
        E 2 b3 04 31
        E 2 b3 04 31
        E 2 b3 04 30
        E 2 b3 04 30
        E 2 b3 04 2f
        E 2 b3 04 2e
        E 2 b3 04 2e
        E 2 b3 04 2d
        E 2 b3 04 2c
        E 2 b3 04 2c
        E 2 b3 04 2b
        E 2 b3 04 2a
        E 2 b3 04 29
        E 2 b3 04 28
        E 2 b3 04 27
        E 2 b3 04 26
        E 2 b3 04 24
        E 2 b3 04 23
        E 2 b3 04 22
        E 2 b3 04 21
        E 2 b3 04 20
        E 2 b3 04 1f
        E 2 b3 04 1d
        E 2 b3 04 1c
        E 2 b3 04 1b
        E 2 b3 04 1a
        E 2 b3 04 18
        E 2 b3 04 17
        E 2 b3 04 16
        E 2 b3 04 15
        E 2 b3 04 13
        E 2 b3 04 12
        E 2 b3 04 11
        E 2 b3 04 10
        E 2 b3 04 0f
        E 2 b3 04 0e
        E 2 b3 04 0c
        E 2 b3 04 0b
        E 2 b3 04 0a
        E 2 b3 04 09
        E 2 b3 04 08
        E 2 b3 04 07
        E 2 b3 04 06
        E 2 b3 04 06
        E 2 b3 04 05
        E 2 b3 04 04
        E 2 b3 04 04
        E 2 b3 04 03
        E 2 b3 04 02
        E 2 b3 04 02
        E 2 b3 04 01
        E 2 b3 04 01
        E 2 b3 04 00
        E 2 b3 04 00
        E 2 b3 04 00
        E 2 b3 04 00
        E 2 b3 04 00
        E 2 b3 04 00
        E 2 b3 04 00
        E 2 b3 04 00
        E 2 b3 04 00
        E 2 b3 04 00
        E 2 b3 04 00
        E 2 b3 04 01
        E 2 b3 04 01
        E 2 b3 04 02
        E 2 b3 04 02
        E 2 b3 04 02
        E 2 b3 04 03
        E 2 b3 04 04
        E 2 b3 04 04
        E 2 b3 04 05
        E 2 b3 04 06
        E 2 b3 04 07
        E 2 b3 04 08
        E 2 b3 04 09
        E 2 b3 04 0a
        E 2 b3 04 0b
        E 2 b3 04 0c
        E 2 b3 04 0d
        E 2 b3 04 0e
        E 2 b3 04 0f
        E 2 b3 04 10
        E 2 b3 04 12
        E 2 b3 04 13
        E 2 b3 04 14
        E 2 b3 04 15
        E 2 b3 04 16
        E 2 b3 04 18
        E 2 b3 04 19
        E 19 b3 04 40
        E 19 b3 04 43
        E 19 b3 04 46
        E 19 b3 04 49
        E 19 b3 04 4c
        E 19 b3 04 4f
        E 19 b3 04 52
        E 19 b3 04 55
        E 19 b3 04 58
        E 19 b3 04 5b
        E 19 b3 04 5e
        E 19 b3 04 60
        E 19 b3 04 63
        E 19 b3 04 66
        E 19 b3 04 68
        E 19 b3 04 6a
        E 19 b3 04 6d
        E 19 b3 04 6f
        E 19 b3 04 71
        E 19 b3 04 73
        E 19 b3 04 75
        E 19 b3 04 76
        E 19 b3 04 78
        E 19 b3 04 79
        E 19 b3 04 7a
        E 19 b3 04 7b
        E 19 b3 04 7c
        E 19 b3 04 7d
        E 19 b3 04 7e
        E 19 b3 04 7e
        E 19 b3 04 7f
        E 19 b3 04 7f
        E 19 b3 04 7f
        E 19 b3 04 7f
        E 19 b3 04 7f
        E 19 b3 04 7e
        E 19 b3 04 7e
        E 19 b3 04 7d
        E 19 b3 04 7c
        E 19 b3 04 7b
        E 19 b3 04 7a
        E 19 b3 04 78
        E 19 b3 04 77
        E 19 b3 04 75
        E 19 b3 04 74
        E 19 b3 04 72
        E 19 b3 04 70
        E 19 b3 04 6e
        E 19 b3 04 6c
        E 19 b3 04 69
        E 19 b3 04 67
        E 19 b3 04 64
        E 19 b3 04 62
        E 19 b3 04 5f
        E 19 b3 04 5c
        E 19 b3 04 59
        E 19 b3 04 57
        E 19 b3 04 54
        E 19 b3 04 51
        E 19 b3 04 4e
        E 19 b3 04 4a
        E 19 b3 04 47
        E 19 b3 04 44
        E 19 b3 04 41
        E 19 b3 04 3e
        E 19 b3 04 3b
        E 19 b3 04 38
        E 19 b3 04 35
        E 19 b3 04 31
        E 19 b3 04 2e
        E 19 b3 04 2b
        E 19 b3 04 28
        E 19 b3 04 26
        E 19 b3 04 23
        E 19 b3 04 20
        E 19 b3 04 1d
        E 19 b3 04 1b
        E 19 b3 04 18
        E 19 b3 04 16
        E 19 b3 04 13
        E 19 b3 04 11
        E 19 b3 04 0f
        E 19 b3 04 0d
        E 19 b3 04 0b
        E 19 b3 04 0a
        E 19 b3 04 08
        E 19 b3 04 07
        E 19 b3 04 05
        E 19 b3 04 04
        E 19 b3 04 03
        E 19 b3 04 02
        E 19 b3 04 01
        E 19 b3 04 01
        E 19 b3 04 00
        E 19 b3 04 00
        E 19 b3 04 00
        E 19 b3 04 00
        E 19 b3 04 00
        E 19 b3 04 01
        E 19 b3 04 01
        E 19 b3 04 02
        E 19 b3 04 03
        E 19 b3 04 04
        E 19 b3 04 05
        E 19 b3 04 06
        E 19 b3 04 07
        E 19 b3 04 09
        E 19 b3 04 0a
        E 19 b3 04 0c
        E 19 b3 04 0e
        E 19 b3 04 10
        E 19 b3 04 12
        E 19 b3 04 15
        E 19 b3 04 17
        E 19 b3 04 19
        E 19 b3 04 1c
        E 19 b3 04 1f
        E 19 b3 04 21
        E 19 b3 04 24
        E 19 b3 04 27
        E 19 b3 04 2a
        E 19 b3 04 2d
        E 19 b3 04 30
        E 19 b3 04 33
        E 19 b3 04 36
        E 19 b3 04 39
        E 19 b3 04 3c
        E 19 b3 04 40
        E 4 b3 04 39
        E 4 b3 04 3c
        E 4 b3 04 3f
        E 4 b3 04 41
        E 4 b3 04 44
        E 4 b3 04 47
        E 4 b3 04 49
        E 4 b3 04 4c
        E 4 b3 04 4f
        E 4 b3 04 51
        E 4 b3 04 54
        E 4 b3 04 56
        E 4 b3 04 59
        E 4 b3 04 5b
        E 4 b3 04 5d
        E 4 b3 04 5f
        E 4 b3 04 62
        E 4 b3 04 63
        E 4 b3 04 65
        E 4 b3 04 67
        E 4 b3 04 69
        E 4 b3 04 6a
        E 4 b3 04 6c
        E 4 b3 04 6c
        E 4 b3 04 6d
        E 4 b3 04 6e
        E 4 b3 04 6f
        E 4 b3 04 70
        E 4 b3 04 71
        E 4 b3 04 71
        E 4 b3 04 72
        E 4 b3 04 72
        E 4 b3 04 72
        E 4 b3 04 72
        E 4 b3 04 72
        E 4 b3 04 71
        E 4 b3 04 71
        E 4 b3 04 70
        E 4 b3 04 6f
        E 4 b3 04 6e
        E 4 b3 04 6d
        E 4 b3 04 6c
        E 4 b3 04 6b
        E 4 b3 04 69
        E 4 b3 04 68
        E 4 b3 04 66
        E 4 b3 04 64
        E 4 b3 04 63
        E 4 b3 04 61
        E 4 b3 04 5e
        E 4 b3 04 5c
        E 4 b3 04 5a
        E 4 b3 04 58
        E 4 b3 04 55
        E 4 b3 04 52
        E 4 b3 04 50
        E 4 b3 04 4e
        E 4 b3 04 4b
        E 4 b3 04 48
        E 4 b3 04 46
        E 4 b3 04 42
        E 4 b3 04 3f
        E 4 b3 04 3d
        E 4 b3 04 3a
        E 4 b3 04 37
        E 4 b3 04 35
        E 4 b3 04 32
        E 4 b3 04 2f
        E 4 b3 04 2c
        E 4 b3 04 29
        E 4 b3 04 26
        E 4 b3 04 24
        E 4 b3 04 22
        E 4 b3 04 1f
        E 4 b3 04 1c
        E 4 b3 04 1a
        E 4 b3 04 18
        E 4 b3 04 15
        E 4 b3 04 13
        E 4 b3 04 11
        E 4 b3 04 0f
        E 4 b3 04 0d
        E 4 b3 04 0b
        E 4 b3 04 09
        E 4 b3 04 09
        E 4 b3 04 07
        E 4 b3 04 06
        E 4 b3 04 04
        E 4 b3 04 03
        E 4 b3 04 02
        E 4 b3 04 01
        E 4 b3 04 00
        E 4 b3 04 00
        E 4 b3 04 00
        E 4 b3 04 00
        E 4 b3 04 00
        E 4 b3 04 00
        E 4 b3 04 00
        E 4 b3 04 00
        E 4 b3 04 00
        E 4 b3 04 01
        E 4 b3 04 02
        E 4 b3 04 03
        E 4 b3 04 04
        E 4 b3 04 05
        E 4 b3 04 06
        E 4 b3 04 08
        E 4 b3 04 09
        E 4 b3 04 0a
        E 4 b3 04 0c
        E 4 b3 04 0e
        E 4 b3 04 10
        E 4 b3 04 12
        E 4 b3 04 14
        E 4 b3 04 16
        E 4 b3 04 19
        E 4 b3 04 1b
        E 4 b3 04 1d
        E 4 b3 04 20
        E 4 b3 04 23
        E 4 b3 04 25
        E 4 b3 04 28
        E 4 b3 04 2b
        E 4 b3 04 2d
        E 4 b3 04 30
        E 4 b3 04 33
        E 4 b3 04 36
        E 4 b3 04 39
        E 2 b3 04 26
        E 2 b3 04 28
        E 2 b3 04 2a
        E 2 b3 04 2b
        E 2 b3 04 2d
        E 2 b3 04 2f
        E 2 b3 04 31
        E 2 b3 04 33
        E 2 b3 04 34
        E 2 b3 04 36
        E 2 b3 04 38
        E 2 b3 04 39
        E 2 b3 04 3b
        E 2 b3 04 3d
        E 2 b3 04 3e
        E 2 b3 04 3f
        E 2 b3 04 41
        E 2 b3 04 42
        E 2 b3 04 43
        E 2 b3 04 45
        E 2 b3 04 46
        E 2 b3 04 46
        E 2 b3 04 48
        E 2 b3 04 48
        E 2 b3 04 49
        E 2 b3 04 49
        E 2 b3 04 4a
        E 2 b3 04 4b
        E 2 b3 04 4b
        E 2 b3 04 4b
        E 2 b3 04 4c
        E 2 b3 04 4c
        E 2 b3 04 4c
        E 2 b3 04 4c
        E 2 b3 04 4c
        E 2 b3 04 4b
        E 2 b3 04 4b
        E 2 b3 04 4b
        E 2 b3 04 4a
        E 2 b3 04 49
        E 2 b3 04 49
        E 2 b3 04 48
        E 2 b3 04 47
        E 2 b3 04 46
        E 2 b3 04 45
        E 2 b3 04 44
        E 2 b3 04 43
        E 2 b3 04 42
        E 2 b3 04 40
        E 2 b3 04 3f
        E 2 b3 04 3d
        E 2 b3 04 3c
        E 2 b3 04 3a
        E 2 b3 04 39
        E 2 b3 04 37
        E 2 b3 04 35
        E 2 b3 04 34
        E 2 b3 04 32
        E 2 b3 04 30
        E 2 b3 04 2e
        E 2 b3 04 2c
        E 2 b3 04 2a
        E 2 b3 04 28
        E 2 b3 04 27
        E 2 b3 04 25
        E 2 b3 04 23
        E 2 b3 04 21
        E 2 b3 04 1f
        E 2 b3 04 1d
        E 2 b3 04 1b
        E 2 b3 04 19
        E 2 b3 04 18
        E 2 b3 04 16
        E 2 b3 04 15
        E 2 b3 04 13
        E 2 b3 04 11
        E 2 b3 04 10
        E 2 b3 04 0e
        E 2 b3 04 0d
        E 2 b3 04 0b
        E 2 b3 04 0a
        E 2 b3 04 09
        E 2 b3 04 07
        E 2 b3 04 06
        E 2 b3 04 06
        E 2 b3 04 04
        E 2 b3 04 04
        E 2 b3 04 03
        E 2 b3 04 02
        E 2 b3 04 01
        E 2 b3 04 01
        E 2 b3 04 00
        E 2 b3 04 00
        E 2 b3 04 00
        E 2 b3 04 00
        E 2 b3 04 00
        E 2 b3 04 00
        E 2 b3 04 00
        E 2 b3 04 00
        E 2 b3 04 00
        E 2 b3 04 01
        E 2 b3 04 01
        E 2 b3 04 02
        E 2 b3 04 03
        E 2 b3 04 03
        E 2 b3 04 04
        E 2 b3 04 05
        E 2 b3 04 06
        E 2 b3 04 07
        E 2 b3 04 08
        E 2 b3 04 09
        E 2 b3 04 0a
        E 2 b3 04 0c
        E 2 b3 04 0d
        E 2 b3 04 0f
        E 2 b3 04 10
        E 2 b3 04 12
        E 2 b3 04 13
        E 2 b3 04 15
        E 2 b3 04 17
        E 2 b3 04 19
        E 2 b3 04 1b
        E 2 b3 04 1c
        E 2 b3 04 1e
        E 2 b3 04 20
        E 2 b3 04 22
        E 2 b3 04 24
        E 2 b3 04 26
        E 11 b3 04 0c
        E 11 b3 04 0d
        E 11 b3 04 0e
        E 11 b3 04 0e
        E 11 b3 04 0f
        E 11 b3 04 0f
        E 11 b3 04 10
        E 11 b3 04 11
        E 11 b3 04 11
        E 11 b3 04 12
        E 11 b3 04 12
        E 11 b3 04 13
        E 11 b3 04 13
        E 11 b3 04 14
        E 11 b3 04 14
        E 11 b3 04 15
        E 11 b3 04 15
        E 11 b3 04 16
        E 11 b3 04 16
        E 11 b3 04 17
        E 11 b3 04 17
        E 11 b3 04 17
        E 11 b3 04 18
        E 11 b3 04 18
        E 11 b3 04 18
        E 11 b3 04 18
        E 11 b3 04 18
        E 11 b3 04 19
        E 11 b3 04 19
        E 11 b3 04 19
        E 11 b3 04 19
        E 11 b3 04 19
        E 11 b3 04 19
        E 11 b3 04 19
        E 11 b3 04 19
        E 11 b3 04 19
        E 11 b3 04 19
        E 11 b3 04 19
        E 11 b3 04 18
        E 11 b3 04 18
        E 11 b3 04 18
        E 11 b3 04 18
        E 11 b3 04 17
        E 11 b3 04 17
        E 11 b3 04 17
        E 11 b3 04 16
        E 11 b3 04 16
        E 11 b3 04 16
        E 11 b3 04 15
        E 11 b3 04 15
        E 11 b3 04 14
        E 11 b3 04 14
        E 11 b3 04 13
        E 11 b3 04 13
        E 11 b3 04 12
        E 11 b3 04 11
        E 11 b3 04 11
        E 11 b3 04 10
        E 11 b3 04 10
        E 11 b3 04 0f
        E 11 b3 04 0e
        E 11 b3 04 0e
        E 11 b3 04 0d
        E 11 b3 04 0d
        E 11 b3 04 0c
        E 11 b3 04 0b
        E 11 b3 04 0b
        E 11 b3 04 0a
        E 11 b3 04 09
        E 11 b3 04 09
        E 11 b3 04 08
        E 11 b3 04 08
        E 11 b3 04 07
        E 11 b3 04 07
        E 11 b3 04 06
        E 11 b3 04 05
        E 11 b3 04 05
        E 11 b3 04 04
        E 11 b3 04 04
        E 11 b3 04 03
        E 11 b3 04 03
        E 11 b3 04 03
        E 11 b3 04 02
        E 11 b3 04 02
        E 11 b3 04 02
        E 11 b3 04 01
        E 11 b3 04 01
        E 11 b3 04 01
        E 11 b3 04 00
        E 11 b3 04 00
        E 11 b3 04 00
        E 11 b3 04 00
        E 11 b3 04 00
        E 11 b3 04 00
        E 11 b3 04 00
        E 11 b3 04 00
        E 11 b3 04 00
        E 11 b3 04 00
        E 11 b3 04 00
        E 11 b3 04 00
        E 11 b3 04 00
        E 11 b3 04 00
        E 11 b3 04 00
        E 11 b3 04 01
        E 11 b3 04 01
        E 11 b3 04 01
        E 11 b3 04 01
        E 11 b3 04 02
        E 11 b3 04 02
        E 11 b3 04 02
        E 11 b3 04 03
        E 11 b3 04 03
        E 11 b3 04 04
        E 11 b3 04 04
        E 11 b3 04 05
        E 11 b3 04 05
        E 11 b3 04 06
        E 11 b3 04 06
        E 11 b3 04 07
        E 11 b3 04 07
        E 11 b3 04 08
        E 11 b3 04 09
        E 11 b3 04 09
        E 11 b3 04 0a
        E 11 b3 04 0a
        E 11 b3 04 0b
        E 11 b3 04 0c
        E 11 b3 04 0c
        E 8 b3 04 2c
        E 8 b3 04 2e
        E 8 b3 04 31
        E 8 b3 04 33
        E 8 b3 04 35
        E 8 b3 04 37
        E 8 b3 04 39
        E 8 b3 04 3b
        E 8 b3 04 3d
        E 8 b3 04 3f
        E 8 b3 04 41
        E 8 b3 04 43
        E 8 b3 04 45
        E 8 b3 04 47
        E 8 b3 04 48
        E 8 b3 04 4a
        E 8 b3 04 4c
        E 8 b3 04 4d
        E 8 b3 04 4f
        E 8 b3 04 50
        E 8 b3 04 51
        E 8 b3 04 52
        E 8 b3 04 54
        E 8 b3 04 54
        E 8 b3 04 55
        E 8 b3 04 56
        E 8 b3 04 56
        E 8 b3 04 57
        E 8 b3 04 58
        E 8 b3 04 58
        E 8 b3 04 58
        E 8 b3 04 58
        E 8 b3 04 58
        E 8 b3 04 58
        E 8 b3 04 58
        E 8 b3 04 58
        E 8 b3 04 58
        E 8 b3 04 57
        E 8 b3 04 56
        E 8 b3 04 56
        E 8 b3 04 55
        E 8 b3 04 54
        E 8 b3 04 53
        E 8 b3 04 51
        E 8 b3 04 51
        E 8 b3 04 4f
        E 8 b3 04 4e
        E 8 b3 04 4d
        E 8 b3 04 4b
        E 8 b3 04 49
        E 8 b3 04 48
        E 8 b3 04 46
        E 8 b3 04 44
        E 8 b3 04 42
        E 8 b3 04 40
        E 8 b3 04 3e
        E 8 b3 04 3c
        E 8 b3 04 3a
        E 8 b3 04 38
        E 8 b3 04 36
        E 8 b3 04 33
        E 8 b3 04 31
        E 8 b3 04 2f
        E 8 b3 04 2d
        E 8 b3 04 2b
        E 8 b3 04 29
        E 8 b3 04 27
        E 8 b3 04 25
        E 8 b3 04 22
        E 8 b3 04 20
        E 8 b3 04 1e
        E 8 b3 04 1c
        E 8 b3 04 1a
        E 8 b3 04 18
        E 8 b3 04 16
        E 8 b3 04 14
        E 8 b3 04 12
        E 8 b3 04 10
        E 8 b3 04 0f
        E 8 b3 04 0d
        E 8 b3 04 0b
        E 8 b3 04 0a
        E 8 b3 04 09
        E 8 b3 04 07
        E 8 b3 04 07
        E 8 b3 04 05
        E 8 b3 04 04
        E 8 b3 04 03
        E 8 b3 04 02
        E 8 b3 04 02
        E 8 b3 04 01
        E 8 b3 04 00
        E 8 b3 04 00
        E 8 b3 04 00
        E 8 b3 04 00
        E 8 b3 04 00
        E 8 b3 04 00
        E 8 b3 04 00
        E 8 b3 04 00
        E 8 b3 04 00
        E 8 b3 04 01
        E 8 b3 04 02
        E 8 b3 04 02
        E 8 b3 04 03
        E 8 b3 04 04
        E 8 b3 04 04
        E 8 b3 04 06
        E 8 b3 04 07
        E 8 b3 04 08
        E 8 b3 04 09
        E 8 b3 04 0b
        E 8 b3 04 0c
        E 8 b3 04 0e
        E 8 b3 04 10
        E 8 b3 04 11
        E 8 b3 04 13
        E 8 b3 04 15
        E 8 b3 04 17
        E 8 b3 04 19
        E 8 b3 04 1b
        E 8 b3 04 1d
        E 8 b3 04 1f
        E 8 b3 04 21
        E 8 b3 04 23
        E 8 b3 04 25
        E 8 b3 04 27
        E 8 b3 04 2a
        E 8 b3 04 2c
        E 2 b3 04 19
        E 2 b3 04 1a
        E 2 b3 04 1c
        E 2 b3 04 1d
        E 2 b3 04 1e
        E 2 b3 04 1f
        E 2 b3 04 20
        E 2 b3 04 22
        E 2 b3 04 23
        E 2 b3 04 24
        E 2 b3 04 25
        E 2 b3 04 26
        E 2 b3 04 27
        E 2 b3 04 28
        E 2 b3 04 29
        E 2 b3 04 2a
        E 2 b3 04 2b
        E 2 b3 04 2c
        E 2 b3 04 2d
        E 2 b3 04 2e
        E 2 b3 04 2e
        E 2 b3 04 2f
        E 2 b3 04 30
        E 2 b3 04 30
        E 2 b3 04 30
        E 2 b3 04 31
        E 2 b3 04 31
        E 2 b3 04 32
        E 2 b3 04 32
        E 2 b3 04 32
        E 2 b3 04 32
        E 2 b3 04 32
        E 2 b3 04 32
        E 2 b3 04 32
        E 2 b3 04 32
        E 2 b3 04 32
        E 2 b3 04 32
        E 2 b3 04 32
        E 2 b3 04 31
        E 2 b3 04 31
        E 2 b3 04 30
        E 2 b3 04 30
        E 2 b3 04 2f
        E 2 b3 04 2e
        E 2 b3 04 2e
        E 2 b3 04 2d
        E 2 b3 04 2c
        E 2 b3 04 2c
        E 2 b3 04 2b
        E 2 b3 04 2a
        E 2 b3 04 29
        E 2 b3 04 28
        E 2 b3 04 27
        E 2 b3 04 26
        E 2 b3 04 24
        E 2 b3 04 23
        E 2 b3 04 22
        E 2 b3 04 21
        E 2 b3 04 20
        E 2 b3 04 1f
        E 2 b3 04 1d
        E 2 b3 04 1c
        E 2 b3 04 1b
        E 2 b3 04 1a
        E 2 b3 04 18
        E 2 b3 04 17
        E 2 b3 04 16
        E 2 b3 04 15
        E 2 b3 04 13
        E 2 b3 04 12
        E 2 b3 04 11
        E 2 b3 04 10
        E 2 b3 04 0f
        E 2 b3 04 0e
        E 2 b3 04 0c
        E 2 b3 04 0b
        E 2 b3 04 0a
        E 2 b3 04 09
        E 2 b3 04 08
        E 2 b3 04 07
        E 2 b3 04 06
        E 2 b3 04 06
        E 2 b3 04 05
        E 2 b3 04 04
        E 2 b3 04 04
        E 2 b3 04 03
        E 2 b3 04 02
        E 2 b3 04 02
        E 2 b3 04 01
        E 2 b3 04 01
        E 2 b3 04 00
        E 2 b3 04 00
        E 2 b3 04 00
        E 2 b3 04 00
        E 2 b3 04 00
        E 2 b3 04 00
        E 2 b3 04 00
        E 2 b3 04 00
        E 2 b3 04 00
        E 2 b3 04 00
        E 2 b3 04 00
        E 2 b3 04 01
        E 2 b3 04 01
        E 2 b3 04 02
        E 2 b3 04 02
        E 2 b3 04 02
        E 2 b3 04 03
        E 2 b3 04 04
        E 2 b3 04 04
        E 2 b3 04 05
        E 2 b3 04 06
        E 2 b3 04 07
        E 2 b3 04 08
        E 2 b3 04 09
        E 2 b3 04 0a
        E 2 b3 04 0b
        E 2 b3 04 0c
        E 2 b3 04 0d
        E 2 b3 04 0e
        E 2 b3 04 0f
        E 2 b3 04 10
        E 2 b3 04 12
        E 2 b3 04 13
        E 2 b3 04 14
        E 2 b3 04 15
        E 2 b3 04 16
        E 2 b3 04 18
        E 2 b3 04 19
        E 19 b3 04 40
        E 19 b3 04 43
        E 19 b3 04 46
        E 19 b3 04 49
        E 19 b3 04 4c
        E 19 b3 04 4f
        E 19 b3 04 52
        E 19 b3 04 55
        E 19 b3 04 58
        E 19 b3 04 5b
        E 19 b3 04 5e
        E 19 b3 04 60
        E 19 b3 04 63
        E 19 b3 04 66
        E 19 b3 04 68
        E 19 b3 04 6a
        E 19 b3 04 6d
        E 19 b3 04 6f
        E 19 b3 04 71
        E 19 b3 04 73
        E 19 b3 04 75
        E 19 b3 04 76
        E 19 b3 04 78
        E 19 b3 04 79
        E 19 b3 04 7a
        E 19 b3 04 7b
        E 19 b3 04 7c
        E 19 b3 04 7d
        E 19 b3 04 7e
        E 19 b3 04 7e
        E 19 b3 04 7f
        E 19 b3 04 7f
        E 19 b3 04 7f
        E 19 b3 04 7f
        E 19 b3 04 7f
        E 19 b3 04 7e
        E 19 b3 04 7e
        E 19 b3 04 7d
        E 19 b3 04 7c
        E 19 b3 04 7b
        E 19 b3 04 7a
        E 19 b3 04 78
        E 19 b3 04 77
        E 19 b3 04 75
        E 19 b3 04 74
        E 19 b3 04 72
        E 19 b3 04 70
        E 19 b3 04 6e
        E 19 b3 04 6c
        E 19 b3 04 69
        E 19 b3 04 67
        E 19 b3 04 64
        E 19 b3 04 62
        E 19 b3 04 5f
        E 19 b3 04 5c
        E 19 b3 04 59
        E 19 b3 04 57
        E 19 b3 04 54
        E 19 b3 04 51
        E 19 b3 04 4e
        E 19 b3 04 4a
        E 19 b3 04 47
        E 19 b3 04 44
        E 19 b3 04 41
        E 19 b3 04 3e
        E 19 b3 04 3b
        E 19 b3 04 38
        E 19 b3 04 35
        E 19 b3 04 31
        E 19 b3 04 2e
        E 19 b3 04 2b
        E 19 b3 04 28
        E 19 b3 04 26
        E 19 b3 04 23
        E 19 b3 04 20
        E 19 b3 04 1d
        E 19 b3 04 1b
        E 19 b3 04 18
        E 19 b3 04 16
        E 19 b3 04 13
        E 19 b3 04 11
        E 19 b3 04 0f
        E 19 b3 04 0d
        E 19 b3 04 0b
        E 19 b3 04 0a
        E 19 b3 04 08
        E 19 b3 04 07
        E 19 b3 04 05
        E 19 b3 04 04
        E 19 b3 04 03
        E 19 b3 04 02
        E 19 b3 04 01
        E 19 b3 04 01
        E 19 b3 04 00
        E 19 b3 04 00
        E 19 b3 04 00
        E 19 b3 04 00
        E 19 b3 04 00
        E 19 b3 04 01
        E 19 b3 04 01
        E 19 b3 04 02
        E 19 b3 04 03
        E 19 b3 04 04
        E 19 b3 04 05
        E 19 b3 04 06
        E 19 b3 04 07
        E 19 b3 04 09
        E 19 b3 04 0a
        E 19 b3 04 0c
        E 19 b3 04 0e
        E 19 b3 04 10
        E 19 b3 04 12
        E 19 b3 04 15
        E 19 b3 04 17
        E 19 b3 04 19
        E 19 b3 04 1c
        E 19 b3 04 1f
        E 19 b3 04 21
        E 19 b3 04 24
        E 19 b3 04 27
        E 19 b3 04 2a
        E 19 b3 04 2d
        E 19 b3 04 30
        E 19 b3 04 33
        E 19 b3 04 36
        E 19 b3 04 39
        E 19 b3 04 3c
        E 19 b3 04 40
        E 4 b3 04 39
        E 4 b3 04 3c
        E 4 b3 04 3f
        E 4 b3 04 41
        E 4 b3 04 44
        E 4 b3 04 47
        E 4 b3 04 49
        E 4 b3 04 4c
        E 4 b3 04 4f
        E 4 b3 04 51
        E 4 b3 04 54
        E 4 b3 04 56
        E 4 b3 04 59
        E 4 b3 04 5b
        E 4 b3 04 5d
        E 4 b3 04 5f
        E 4 b3 04 62
        E 4 b3 04 63
        E 4 b3 04 65
        E 4 b3 04 67
        E 4 b3 04 69
        E 4 b3 04 6a
        E 4 b3 04 6c
        E 4 b3 04 6c
        E 4 b3 04 6d
        E 4 b3 04 6e
        E 4 b3 04 6f
        E 4 b3 04 70
        E 4 b3 04 71
        E 4 b3 04 71
        E 4 b3 04 72
        E 4 b3 04 72
        E 4 b3 04 72
        E 4 b3 04 72
        E 4 b3 04 72
        E 4 b3 04 71
        E 4 b3 04 71
        E 4 b3 04 70
        E 4 b3 04 6f
        E 4 b3 04 6e
        E 4 b3 04 6d
        E 4 b3 04 6c
        E 4 b3 04 6b
        E 4 b3 04 69
        E 4 b3 04 68
        E 4 b3 04 66
        E 4 b3 04 64
        E 4 b3 04 63
        E 4 b3 04 61
        E 4 b3 04 5e
        E 4 b3 04 5c
        E 4 b3 04 5a
        E 4 b3 04 58
        E 4 b3 04 55
        E 4 b3 04 52
        E 4 b3 04 50
        E 4 b3 04 4e
        E 4 b3 04 4b
        E 4 b3 04 48
        E 4 b3 04 46
        E 4 b3 04 42
        E 4 b3 04 3f
        E 4 b3 04 3d
        E 4 b3 04 3a
        E 4 b3 04 37
        E 4 b3 04 35
        E 4 b3 04 32
        E 4 b3 04 2f
        E 4 b3 04 2c
        E 4 b3 04 29
        E 4 b3 04 26
        E 4 b3 04 24
        E 4 b3 04 22
        E 4 b3 04 1f
        E 4 b3 04 1c
        E 4 b3 04 1a
        E 4 b3 04 18
        E 4 b3 04 15
        E 4 b3 04 13
        E 4 b3 04 11
        E 4 b3 04 0f
        E 4 b3 04 0d
        E 4 b3 04 0b
        E 4 b3 04 09
        E 4 b3 04 09
        E 4 b3 04 07
        E 4 b3 04 06
        E 4 b3 04 04
        E 4 b3 04 03
        E 4 b3 04 02
        E 4 b3 04 01
        E 4 b3 04 00
        E 4 b3 04 00
        E 4 b3 04 00
        E 4 b3 04 00
        E 4 b3 04 00
        E 4 b3 04 00
        E 4 b3 04 00
        E 4 b3 04 00
        E 4 b3 04 00
        E 4 b3 04 01
        E 4 b3 04 02
        E 4 b3 04 03
        E 4 b3 04 04
        E 4 b3 04 05
        E 4 b3 04 06
        E 4 b3 04 08
        E 4 b3 04 09
        E 4 b3 04 0a
        E 4 b3 04 0c
        E 4 b3 04 0e
        E 4 b3 04 10
        E 4 b3 04 12
        E 4 b3 04 14
        E 4 b3 04 16
        E 4 b3 04 19
        E 4 b3 04 1b
        E 4 b3 04 1d
        E 4 b3 04 20
        E 4 b3 04 23
        E 4 b3 04 25
        E 4 b3 04 28
        E 4 b3 04 2b
        E 4 b3 04 2d
        E 4 b3 04 30
        E 4 b3 04 33
        E 4 b3 04 36
        E 4 b3 04 39
        E 2 b3 04 26
        E 2 b3 04 28
        E 2 b3 04 2a
        E 2 b3 04 2b
        E 2 b3 04 2d
        E 2 b3 04 2f
        E 2 b3 04 31
        E 2 b3 04 33
        E 2 b3 04 34
        E 2 b3 04 36
        E 2 b3 04 38
        E 2 b3 04 39
        E 2 b3 04 3b
        E 2 b3 04 3d
        E 2 b3 04 3e
        E 2 b3 04 3f
        E 2 b3 04 41
        E 2 b3 04 42
        E 2 b3 04 43
        E 2 b3 04 45
        E 2 b3 04 46
        E 2 b3 04 46
        E 2 b3 04 48
        E 2 b3 04 48
        E 2 b3 04 49
        E 2 b3 04 49
        E 2 b3 04 4a
        E 2 b3 04 4b
        E 2 b3 04 4b
        E 2 b3 04 4b
        E 2 b3 04 4c
        E 2 b3 04 4c
        E 2 b3 04 4c
        E 2 b3 04 4c
        E 2 b3 04 4c
        E 2 b3 04 4b
        E 2 b3 04 4b
        E 2 b3 04 4b
        E 2 b3 04 4a
        E 2 b3 04 49
        E 2 b3 04 49
        E 2 b3 04 48
        E 2 b3 04 47
        E 2 b3 04 46
        E 2 b3 04 45
        E 2 b3 04 44
        E 2 b3 04 43
        E 2 b3 04 42
        E 2 b3 04 40
        E 2 b3 04 3f
        E 2 b3 04 3d
        E 2 b3 04 3c
        E 2 b3 04 3a
        E 2 b3 04 39
        E 2 b3 04 37
        E 2 b3 04 35
        E 2 b3 04 34
        E 2 b3 04 32
        E 2 b3 04 30
        E 2 b3 04 2e
        E 2 b3 04 2c
        E 2 b3 04 2a
        E 2 b3 04 28
        E 2 b3 04 27
        E 2 b3 04 25
        E 2 b3 04 23
        E 2 b3 04 21
        E 2 b3 04 1f
        E 2 b3 04 1d
        E 2 b3 04 1b
        E 2 b3 04 19
        E 2 b3 04 18
        E 2 b3 04 16
        E 2 b3 04 15
        E 2 b3 04 13
        E 2 b3 04 11
        E 2 b3 04 10
        E 2 b3 04 0e
        E 2 b3 04 0d
        E 2 b3 04 0b
        E 2 b3 04 0a
        E 2 b3 04 09
        E 2 b3 04 07
        E 2 b3 04 06
        E 2 b3 04 06
        E 2 b3 04 04
        E 2 b3 04 04
        E 2 b3 04 03
        E 2 b3 04 02
        E 2 b3 04 01
        E 2 b3 04 01
        E 2 b3 04 00
        E 2 b3 04 00
        E 2 b3 04 00
        E 2 b3 04 00
        E 2 b3 04 00
        E 2 b3 04 00
        E 2 b3 04 00
        E 2 b3 04 00
        E 2 b3 04 00
        E 2 b3 04 01
        E 2 b3 04 01
        E 2 b3 04 02
        E 2 b3 04 03
        E 2 b3 04 03
        E 2 b3 04 04
        E 2 b3 04 05
        E 2 b3 04 06
        E 2 b3 04 07
        E 2 b3 04 08
        E 2 b3 04 09
        E 2 b3 04 0a
        E 2 b3 04 0c
        E 2 b3 04 0d
        E 2 b3 04 0f
        E 2 b3 04 10
        E 2 b3 04 12
        E 2 b3 04 13
        E 2 b3 04 15
        E 2 b3 04 17
        E 2 b3 04 19
        E 2 b3 04 1b
        E 2 b3 04 1c
        E 2 b3 04 1e
        E 2 b3 04 20
        E 2 b3 04 22
        E 2 b3 04 24
        E 2 b3 04 26
        E 11 b3 04 0c
        E 11 b3 04 0d
        E 11 b3 04 0e
        E 11 b3 04 0e
        E 11 b3 04 0f
        E 11 b3 04 0f
        E 11 b3 04 10
        E 11 b3 04 11
        E 11 b3 04 11
        E 11 b3 04 12
        E 11 b3 04 12
        E 11 b3 04 13
        E 11 b3 04 13
        E 11 b3 04 14
        E 11 b3 04 14
        E 11 b3 04 15
        E 11 b3 04 15
        E 11 b3 04 16
        E 11 b3 04 16
        E 11 b3 04 17
        E 11 b3 04 17
        E 11 b3 04 17
        E 11 b3 04 18
        E 11 b3 04 18
        E 11 b3 04 18
        E 11 b3 04 18
        E 11 b3 04 18
        E 11 b3 04 19
        E 11 b3 04 19
        E 11 b3 04 19
        E 11 b3 04 19
        E 11 b3 04 19
        E 11 b3 04 19
        E 11 b3 04 19
        E 11 b3 04 19
        E 11 b3 04 19
        E 11 b3 04 19
        E 11 b3 04 19
        E 11 b3 04 18
        E 11 b3 04 18
        E 11 b3 04 18
        E 11 b3 04 18
        E 11 b3 04 17
        E 11 b3 04 17
        E 11 b3 04 17
        E 11 b3 04 16
        E 11 b3 04 16
        E 11 b3 04 16
        E 11 b3 04 15
        E 11 b3 04 15
        E 11 b3 04 14
        E 11 b3 04 14
        E 11 b3 04 13
        E 11 b3 04 13
        E 11 b3 04 12
        E 11 b3 04 11
        E 11 b3 04 11
        E 11 b3 04 10
        E 11 b3 04 10
        E 11 b3 04 0f
        E 11 b3 04 0e
        E 11 b3 04 0e
        E 11 b3 04 0d
        E 11 b3 04 0d
        E 11 b3 04 0c
        E 11 b3 04 0b
        E 11 b3 04 0b
        E 11 b3 04 0a
        E 11 b3 04 09
        E 11 b3 04 09
        E 11 b3 04 08
        E 11 b3 04 08
        E 11 b3 04 07
        E 11 b3 04 07
        E 11 b3 04 06
        E 11 b3 04 05
        E 11 b3 04 05
        E 11 b3 04 04
        E 11 b3 04 04
        E 11 b3 04 03
        E 11 b3 04 03
        E 11 b3 04 03
        E 11 b3 04 02
        E 11 b3 04 02
        E 11 b3 04 02
        E 11 b3 04 01
        E 11 b3 04 01
        E 11 b3 04 01
        E 11 b3 04 00
        E 11 b3 04 00
        E 11 b3 04 00
        E 11 b3 04 00
        E 11 b3 04 00
        E 11 b3 04 00
        E 11 b3 04 00
        E 11 b3 04 00
        E 11 b3 04 00
        E 11 b3 04 00
        E 11 b3 04 00
        E 11 b3 04 00
        E 11 b3 04 00
        E 11 b3 04 00
        E 11 b3 04 00
        E 11 b3 04 01
        E 11 b3 04 01
        E 11 b3 04 01
        E 11 b3 04 01
        E 11 b3 04 02
        E 11 b3 04 02
        E 11 b3 04 02
        E 11 b3 04 03
        E 11 b3 04 03
        E 11 b3 04 04
        E 11 b3 04 04
        E 11 b3 04 05
        E 11 b3 04 05
        E 11 b3 04 06
        E 11 b3 04 06
        E 11 b3 04 07
        E 11 b3 04 07
        E 11 b3 04 08
        E 11 b3 04 09
        E 11 b3 04 09
        E 11 b3 04 0a
        E 11 b3 04 0a
        E 11 b3 04 0b
        E 11 b3 04 0c
        E 11 b3 04 0c
        E 8 b3 04 2c
        E 8 b3 04 2e
        E 8 b3 04 31
        E 8 b3 04 33
        E 8 b3 04 35
        E 8 b3 04 37
        E 8 b3 04 39
        E 8 b3 04 3b
        E 8 b3 04 3d
        E 8 b3 04 3f
        E 8 b3 04 41
        E 8 b3 04 43
        E 8 b3 04 45
        E 8 b3 04 47
        E 8 b3 04 48
        E 8 b3 04 4a
        E 8 b3 04 4c
        E 8 b3 04 4d
        E 8 b3 04 4f
        E 8 b3 04 50
        E 8 b3 04 51
        E 8 b3 04 52
        E 8 b3 04 54
        E 8 b3 04 54
        E 8 b3 04 55
        E 8 b3 04 56
        E 8 b3 04 56
        E 8 b3 04 57
        E 8 b3 04 58
        E 8 b3 04 58
        E 8 b3 04 58
        E 8 b3 04 58
        E 8 b3 04 58
        E 8 b3 04 58
        E 8 b3 04 58
        E 8 b3 04 58
        E 8 b3 04 58
        E 8 b3 04 57
        E 8 b3 04 56
        E 8 b3 04 56
        E 8 b3 04 55
        E 8 b3 04 54
        E 8 b3 04 53
        E 8 b3 04 51
        E 8 b3 04 51
        E 8 b3 04 4f
        E 8 b3 04 4e
        E 8 b3 04 4d
        E 8 b3 04 4b
        E 8 b3 04 49
        E 8 b3 04 48
        E 8 b3 04 46
        E 8 b3 04 44
        E 8 b3 04 42
        E 8 b3 04 40
        E 8 b3 04 3e
        E 8 b3 04 3c
        E 8 b3 04 3a
        E 8 b3 04 38
        E 8 b3 04 36
        E 8 b3 04 33
        E 8 b3 04 31
        E 8 b3 04 2f
        E 8 b3 04 2d
        E 8 b3 04 2b
        E 8 b3 04 29
        E 8 b3 04 27
        E 8 b3 04 25
        E 8 b3 04 22
        E 8 b3 04 20
        E 8 b3 04 1e
        E 8 b3 04 1c
        E 8 b3 04 1a
        E 8 b3 04 18
        E 8 b3 04 16
        E 8 b3 04 14
        E 8 b3 04 12
        E 8 b3 04 10
        E 8 b3 04 0f
        E 8 b3 04 0d
        E 8 b3 04 0b
        E 8 b3 04 0a
        E 8 b3 04 09
        E 8 b3 04 07
        E 8 b3 04 07
        E 8 b3 04 05
        E 8 b3 04 04
        E 8 b3 04 03
        E 8 b3 04 02
        E 8 b3 04 02
        E 8 b3 04 01
        E 8 b3 04 00
        E 8 b3 04 00
        E 8 b3 04 00
        E 8 b3 04 00
        E 8 b3 04 00
        E 8 b3 04 00
        E 8 b3 04 00
        E 8 b3 04 00
        E 8 b3 04 00
        E 8 b3 04 01
        E 8 b3 04 02
        E 8 b3 04 02
        E 8 b3 04 03
        E 8 b3 04 04
        E 8 b3 04 04
        E 8 b3 04 06
        E 8 b3 04 07
        E 8 b3 04 08
        E 8 b3 04 09
        E 8 b3 04 0b
        E 8 b3 04 0c
        E 8 b3 04 0e
        E 8 b3 04 10
        E 8 b3 04 11
        E 8 b3 04 13
        E 8 b3 04 15
        E 8 b3 04 17
        E 8 b3 04 19
        E 8 b3 04 1b
        E 8 b3 04 1d
        E 8 b3 04 1f
        E 8 b3 04 21
        E 8 b3 04 23
        E 8 b3 04 25
        E 8 b3 04 27
        E 8 b3 04 2a
        E 8 b3 04 2c
        E 3 b3 04 19
        E 3 b3 04 56
        E 3 b3 04 38
        E 3 b3 04 09
        E 3 b3 04 51
        E 3 b3 04 48
        E 3 b3 04 0a
        E 3 b3 04 09
        E 3 b3 04 36
        E 3 b3 04 6c
        E 3 b3 04 5a
        E 3 b3 04 63
        E 3 b3 04 47
        E 3 b3 04 0c
        E 3 b3 04 15
        E 3 b3 04 4d
        E 3 b3 04 3f
        E 3 b3 04 20
        E 3 b3 04 16
        E 3 b3 04 1e
        E 3 b3 04 59
        E 3 b3 04 35
        E 3 b3 04 1b
        E 3 b3 04 41
        E 3 b3 04 71
        E 3 b3 04 00
        E 3 b3 04 0e
        E 3 b3 04 2e
        E 3 b3 04 26
        E 3 b3 04 5d
        E 3 b3 04 18
        E 3 b3 04 07
        E 3 b3 04 12
        E 3 b3 04 13
        E 3 b3 04 67
        E 3 b3 04 1c
        E 3 b3 04 00
        E 3 b3 04 54
        E 3 b3 04 27
        E 3 b3 04 17
        E 3 b3 04 2d
        E 3 b3 04 1d
        E 3 b3 04 61
        E 3 b3 04 60
        E 3 b3 04 72
        E 3 b3 04 5f
        E 3 b3 04 31
        E 3 b3 04 6a
        E 3 b3 04 51
        E 3 b3 04 0d
        E 3 b3 04 32
        E 3 b3 04 3d
        E 3 b3 04 6c
        E 3 b3 04 57
        E 3 b3 04 3e
        E 3 b3 04 3f
        E 3 b3 04 05
        E 3 b3 04 0b
        E 3 b3 04 69
        E 3 b3 04 5b
        E 3 b3 04 30
        E 3 b3 04 24
        E 3 b3 04 0f
        E 3 b3 04 33
        E 3 b3 04 22
        E 3 b3 04 1b
        E 3 b3 04 2b
        E 3 b3 04 3b
        E 3 b3 04 45
        E 3 b3 04 49
        E 3 b3 04 12
        E 3 b3 04 44
        E 3 b3 04 65
        E 3 b3 04 3a
        E 3 b3 04 42
        E 3 b3 04 02
        E 3 b3 04 08
        E 3 b3 04 70
        E 3 b3 04 4a
        E 3 b3 04 14
        E 3 b3 04 68
        E 3 b3 04 24
        E 3 b3 04 2c
        E 3 b3 04 37
        E 3 b3 04 2d
        E 3 b3 04 4c
        E 3 b3 04 5c
        E 3 b3 04 21
        E 3 b3 04 40
        E 3 b3 04 1a
        E 3 b3 04 66
        E 3 b3 04 5e
        E 3 b3 04 34
        E 3 b3 04 29
        E 3 b3 04 5a
        E 3 b3 04 2a
        E 3 b3 04 50
        E 3 b3 04 10
        E 3 b3 04 01
        E 3 b3 04 25
        E 3 b3 04 39
        E 3 b3 04 62
        E 3 b3 04 58
        E 3 b3 04 03
        E 3 b3 04 63
        E 3 b3 04 53
        E 3 b3 04 06
        E 3 b3 04 23
        E 3 b3 04 43
        E 3 b3 04 55
        E 3 b3 04 6d
        E 3 b3 04 46
        E 3 b3 04 2f
        E 3 b3 04 1f
        E 3 b3 04 4f
        E 3 b3 04 52
        E 3 b3 04 64
        E 3 b3 04 6f
        E 3 b3 04 36
        E 3 b3 04 48
        E 3 b3 04 4e
        E 3 b3 04 3c
        E 3 b3 04 6b
        E 3 b3 04 11
        E 3 b3 04 28
        E 3 b3 04 4b
        E 1 b3 04 10
        E 1 b3 04 39
        E 1 b3 04 25
        E 1 b3 04 06
        E 1 b3 04 36
        E 1 b3 04 30
        E 1 b3 04 07
        E 1 b3 04 06
        E 1 b3 04 24
        E 1 b3 04 48
        E 1 b3 04 3c
        E 1 b3 04 42
        E 1 b3 04 2f
        E 1 b3 04 08
        E 1 b3 04 0e
        E 1 b3 04 33
        E 1 b3 04 2a
        E 1 b3 04 15
        E 1 b3 04 0f
        E 1 b3 04 14
        E 1 b3 04 3b
        E 1 b3 04 23
        E 1 b3 04 12
        E 1 b3 04 2b
        E 1 b3 04 4b
        E 1 b3 04 00
        E 1 b3 04 09
        E 1 b3 04 1f
        E 1 b3 04 19
        E 1 b3 04 3e
        E 1 b3 04 10
        E 1 b3 04 04
        E 1 b3 04 0c
        E 1 b3 04 0d
        E 1 b3 04 45
        E 1 b3 04 13
        E 1 b3 04 00
        E 1 b3 04 38
        E 1 b3 04 1a
        E 1 b3 04 0f
        E 1 b3 04 1e
        E 1 b3 04 13
        E 1 b3 04 40
        E 1 b3 04 40
        E 1 b3 04 4c
        E 1 b3 04 3f
        E 1 b3 04 21
        E 1 b3 04 46
        E 1 b3 04 36
        E 1 b3 04 09
        E 1 b3 04 21
        E 1 b3 04 28
        E 1 b3 04 48
        E 1 b3 04 3a
        E 1 b3 04 29
        E 1 b3 04 2a
        E 1 b3 04 03
        E 1 b3 04 07
        E 1 b3 04 46
        E 1 b3 04 3d
        E 1 b3 04 20
        E 1 b3 04 18
        E 1 b3 04 0a
        E 1 b3 04 22
        E 1 b3 04 16
        E 1 b3 04 12
        E 1 b3 04 1c
        E 1 b3 04 27
        E 1 b3 04 2e
        E 1 b3 04 31
        E 1 b3 04 0c
        E 1 b3 04 2d
        E 1 b3 04 43
        E 1 b3 04 27
        E 1 b3 04 2c
        E 1 b3 04 01
        E 1 b3 04 05
        E 1 b3 04 4b
        E 1 b3 04 31
        E 1 b3 04 0d
        E 1 b3 04 45
        E 1 b3 04 18
        E 1 b3 04 1d
        E 1 b3 04 25
        E 1 b3 04 1e
        E 1 b3 04 33
        E 1 b3 04 3d
        E 1 b3 04 16
        E 1 b3 04 2b
        E 1 b3 04 11
        E 1 b3 04 44
        E 1 b3 04 3f
        E 1 b3 04 22
        E 1 b3 04 1b
        E 1 b3 04 3c
        E 1 b3 04 1c
        E 1 b3 04 35
        E 1 b3 04 0a
        E 1 b3 04 01
        E 1 b3 04 19
        E 1 b3 04 26
        E 1 b3 04 41
        E 1 b3 04 3a
        E 1 b3 04 02
        E 1 b3 04 42
        E 1 b3 04 37
        E 1 b3 04 04
        E 1 b3 04 17
        E 1 b3 04 2d
        E 1 b3 04 39
        E 1 b3 04 49
        E 1 b3 04 2e
        E 1 b3 04 1f
        E 1 b3 04 15
        E 1 b3 04 34
        E 1 b3 04 37
        E 1 b3 04 43
        E 1 b3 04 4a
        E 1 b3 04 24
        E 1 b3 04 30
        E 1 b3 04 34
        E 1 b3 04 28
        E 1 b3 04 47
        E 1 b3 04 0b
        E 1 b3 04 1b
        E 1 b3 04 32
        E 8 b3 04 05
        E 8 b3 04 13
        E 8 b3 04 0c
        E 8 b3 04 02
        E 8 b3 04 12
        E 8 b3 04 10
        E 8 b3 04 02
        E 8 b3 04 02
        E 8 b3 04 0c
        E 8 b3 04 18
        E 8 b3 04 14
        E 8 b3 04 16
        E 8 b3 04 0f
        E 8 b3 04 02
        E 8 b3 04 04
        E 8 b3 04 11
        E 8 b3 04 0e
        E 8 b3 04 07
        E 8 b3 04 05
        E 8 b3 04 06
        E 8 b3 04 13
        E 8 b3 04 0b
        E 8 b3 04 06
        E 8 b3 04 0e
        E 8 b3 04 19
        E 8 b3 04 00
        E 8 b3 04 03
        E 8 b3 04 0a
        E 8 b3 04 08
        E 8 b3 04 14
        E 8 b3 04 05
        E 8 b3 04 01
        E 8 b3 04 04
        E 8 b3 04 04
        E 8 b3 04 17
        E 8 b3 04 06
        E 8 b3 04 00
        E 8 b3 04 12
        E 8 b3 04 08
        E 8 b3 04 05
        E 8 b3 04 0a
        E 8 b3 04 06
        E 8 b3 04 15
        E 8 b3 04 15
        E 8 b3 04 19
        E 8 b3 04 15
        E 8 b3 04 0b
        E 8 b3 04 17
        E 8 b3 04 12
        E 8 b3 04 03
        E 8 b3 04 0b
        E 8 b3 04 0d
        E 8 b3 04 18
        E 8 b3 04 13
        E 8 b3 04 0d
        E 8 b3 04 0e
        E 8 b3 04 01
        E 8 b3 04 02
        E 8 b3 04 17
        E 8 b3 04 14
        E 8 b3 04 0a
        E 8 b3 04 08
        E 8 b3 04 03
        E 8 b3 04 0b
        E 8 b3 04 07
        E 8 b3 04 06
        E 8 b3 04 09
        E 8 b3 04 0d
        E 8 b3 04 0f
        E 8 b3 04 10
        E 8 b3 04 04
        E 8 b3 04 0f
        E 8 b3 04 16
        E 8 b3 04 0d
        E 8 b3 04 0e
        E 8 b3 04 00
        E 8 b3 04 01
        E 8 b3 04 19
        E 8 b3 04 10
        E 8 b3 04 04
        E 8 b3 04 17
        E 8 b3 04 08
        E 8 b3 04 09
        E 8 b3 04 0c
        E 8 b3 04 0a
        E 8 b3 04 11
        E 8 b3 04 14
        E 8 b3 04 07
        E 8 b3 04 0e
        E 8 b3 04 05
        E 8 b3 04 16
        E 8 b3 04 15
        E 8 b3 04 0b
        E 8 b3 04 09
        E 8 b3 04 14
        E 8 b3 04 09
        E 8 b3 04 11
        E 8 b3 04 03
        E 8 b3 04 00
        E 8 b3 04 08
        E 8 b3 04 0c
        E 8 b3 04 15
        E 8 b3 04 13
        E 8 b3 04 00
        E 8 b3 04 16
        E 8 b3 04 12
        E 8 b3 04 01
        E 8 b3 04 07
        E 8 b3 04 0f
        E 8 b3 04 13
        E 8 b3 04 18
        E 8 b3 04 0f
        E 8 b3 04 0a
        E 8 b3 04 07
        E 8 b3 04 11
        E 8 b3 04 12
        E 8 b3 04 16
        E 8 b3 04 18
        E 8 b3 04 0c
        E 8 b3 04 10
        E 8 b3 04 11
        E 8 b3 04 0d
        E 8 b3 04 17
        E 8 b3 04 03
        E 8 b3 04 09
        E 8 b3 04 10
        E 6 b3 04 13
        E 6 b3 04 43
        E 6 b3 04 2c
        E 6 b3 04 07
        E 6 b3 04 3e
        E 6 b3 04 38
        E 6 b3 04 08
        E 6 b3 04 07
        E 6 b3 04 2a
        E 6 b3 04 54
        E 6 b3 04 46
        E 6 b3 04 4d
        E 6 b3 04 37
        E 6 b3 04 09
        E 6 b3 04 10
        E 6 b3 04 3c
        E 6 b3 04 31
        E 6 b3 04 19
        E 6 b3 04 11
        E 6 b3 04 17
        E 6 b3 04 45
        E 6 b3 04 29
        E 6 b3 04 15
        E 6 b3 04 33
        E 6 b3 04 58
        E 6 b3 04 00
        E 6 b3 04 0b
        E 6 b3 04 24
        E 6 b3 04 1e
        E 6 b3 04 48
        E 6 b3 04 12
        E 6 b3 04 05
        E 6 b3 04 0e
        E 6 b3 04 0f
        E 6 b3 04 50
        E 6 b3 04 16
        E 6 b3 04 00
        E 6 b3 04 41
        E 6 b3 04 1e
        E 6 b3 04 12
        E 6 b3 04 23
        E 6 b3 04 17
        E 6 b3 04 4b
        E 6 b3 04 4a
        E 6 b3 04 58
        E 6 b3 04 4a
        E 6 b3 04 26
        E 6 b3 04 52
        E 6 b3 04 3f
        E 6 b3 04 0a
        E 6 b3 04 27
        E 6 b3 04 2f
        E 6 b3 04 54
        E 6 b3 04 43
        E 6 b3 04 30
        E 6 b3 04 31
        E 6 b3 04 04
        E 6 b3 04 09
        E 6 b3 04 51
        E 6 b3 04 47
        E 6 b3 04 25
        E 6 b3 04 1c
        E 6 b3 04 0b
        E 6 b3 04 27
        E 6 b3 04 1a
        E 6 b3 04 15
        E 6 b3 04 21
        E 6 b3 04 2e
        E 6 b3 04 35
        E 6 b3 04 39
        E 6 b3 04 0e
        E 6 b3 04 35
        E 6 b3 04 4f
        E 6 b3 04 2d
        E 6 b3 04 33
        E 6 b3 04 02
        E 6 b3 04 06
        E 6 b3 04 57
        E 6 b3 04 3a
        E 6 b3 04 10
        E 6 b3 04 51
        E 6 b3 04 1c
        E 6 b3 04 22
        E 6 b3 04 2b
        E 6 b3 04 23
        E 6 b3 04 3b
        E 6 b3 04 48
        E 6 b3 04 19
        E 6 b3 04 32
        E 6 b3 04 14
        E 6 b3 04 4f
        E 6 b3 04 49
        E 6 b3 04 28
        E 6 b3 04 20
        E 6 b3 04 46
        E 6 b3 04 20
        E 6 b3 04 3e
        E 6 b3 04 0c
        E 6 b3 04 01
        E 6 b3 04 1d
        E 6 b3 04 2c
        E 6 b3 04 4c
        E 6 b3 04 44
        E 6 b3 04 02
        E 6 b3 04 4d
        E 6 b3 04 41
        E 6 b3 04 04
        E 6 b3 04 1b
        E 6 b3 04 34
        E 6 b3 04 42
        E 6 b3 04 55
        E 6 b3 04 36
        E 6 b3 04 25
        E 6 b3 04 18
        E 6 b3 04 3d
        E 6 b3 04 40
        E 6 b3 04 4e
        E 6 b3 04 56
        E 6 b3 04 2a
        E 6 b3 04 38
        E 6 b3 04 3c
        E 6 b3 04 2e
        E 6 b3 04 53
        E 6 b3 04 0d
        E 6 b3 04 1f
        E 6 b3 04 3a
        E 1 b3 04 0b
        E 1 b3 04 26
        E 1 b3 04 19
        E 1 b3 04 04
        E 1 b3 04 24
        E 1 b3 04 20
        E 1 b3 04 04
        E 1 b3 04 04
        E 1 b3 04 18
        E 1 b3 04 30
        E 1 b3 04 28
        E 1 b3 04 2c
        E 1 b3 04 1f
        E 1 b3 04 05
        E 1 b3 04 09
        E 1 b3 04 22
        E 1 b3 04 1c
        E 1 b3 04 0e
        E 1 b3 04 0a
        E 1 b3 04 0d
        E 1 b3 04 27
        E 1 b3 04 17
        E 1 b3 04 0c
        E 1 b3 04 1d
        E 1 b3 04 32
        E 1 b3 04 00
        E 1 b3 04 06
        E 1 b3 04 14
        E 1 b3 04 11
        E 1 b3 04 29
        E 1 b3 04 0a
        E 1 b3 04 03
        E 1 b3 04 08
        E 1 b3 04 08
        E 1 b3 04 2e
        E 1 b3 04 0c
        E 1 b3 04 00
        E 1 b3 04 25
        E 1 b3 04 11
        E 1 b3 04 0a
        E 1 b3 04 14
        E 1 b3 04 0d
        E 1 b3 04 2b
        E 1 b3 04 2a
        E 1 b3 04 32
        E 1 b3 04 2a
        E 1 b3 04 16
        E 1 b3 04 2f
        E 1 b3 04 24
        E 1 b3 04 06
        E 1 b3 04 16
        E 1 b3 04 1b
        E 1 b3 04 30
        E 1 b3 04 26
        E 1 b3 04 1b
        E 1 b3 04 1c
        E 1 b3 04 02
        E 1 b3 04 05
        E 1 b3 04 2e
        E 1 b3 04 28
        E 1 b3 04 15
        E 1 b3 04 10
        E 1 b3 04 06
        E 1 b3 04 16
        E 1 b3 04 0f
        E 1 b3 04 0c
        E 1 b3 04 13
        E 1 b3 04 1a
        E 1 b3 04 1e
        E 1 b3 04 20
        E 1 b3 04 08
        E 1 b3 04 1e
        E 1 b3 04 2d
        E 1 b3 04 1a
        E 1 b3 04 1d
        E 1 b3 04 01
        E 1 b3 04 03
        E 1 b3 04 32
        E 1 b3 04 21
        E 1 b3 04 09
        E 1 b3 04 2e
        E 1 b3 04 10
        E 1 b3 04 13
        E 1 b3 04 18
        E 1 b3 04 14
        E 1 b3 04 22
        E 1 b3 04 29
        E 1 b3 04 0e
        E 1 b3 04 1c
        E 1 b3 04 0b
        E 1 b3 04 2d
        E 1 b3 04 2a
        E 1 b3 04 17
        E 1 b3 04 12
        E 1 b3 04 28
        E 1 b3 04 12
        E 1 b3 04 23
        E 1 b3 04 07
        E 1 b3 04 00
        E 1 b3 04 10
        E 1 b3 04 19
        E 1 b3 04 2b
        E 1 b3 04 27
        E 1 b3 04 01
        E 1 b3 04 2c
        E 1 b3 04 25
        E 1 b3 04 02
        E 1 b3 04 0f
        E 1 b3 04 1e
        E 1 b3 04 26
        E 1 b3 04 30
        E 1 b3 04 1f
        E 1 b3 04 15
        E 1 b3 04 0e
        E 1 b3 04 23
        E 1 b3 04 24
        E 1 b3 04 2c
        E 1 b3 04 31
        E 1 b3 04 18
        E 1 b3 04 20
        E 1 b3 04 22
        E 1 b3 04 1a
        E 1 b3 04 2f
        E 1 b3 04 07
        E 1 b3 04 12
        E 1 b3 04 21
        E 15 b3 04 1c
        E 15 b3 04 60
        E 15 b3 04 3f
        E 15 b3 04 0a
        E 15 b3 04 5a
        E 15 b3 04 50
        E 15 b3 04 0c
        E 15 b3 04 0b
        E 15 b3 04 3d
        E 15 b3 04 78
        E 15 b3 04 65
        E 15 b3 04 6f
        E 15 b3 04 4f
        E 15 b3 04 0e
        E 15 b3 04 18
        E 15 b3 04 56
        E 15 b3 04 46
        E 15 b3 04 24
        E 15 b3 04 19
        E 15 b3 04 22
        E 15 b3 04 63
        E 15 b3 04 3b
        E 15 b3 04 1e
        E 15 b3 04 49
        E 15 b3 04 7e
        E 15 b3 04 00
        E 15 b3 04 10
        E 15 b3 04 34
        E 15 b3 04 2b
        E 15 b3 04 68
        E 15 b3 04 1b
        E 15 b3 04 08
        E 15 b3 04 14
        E 15 b3 04 16
        E 15 b3 04 73
        E 15 b3 04 20
        E 15 b3 04 01
        E 15 b3 04 5e
        E 15 b3 04 2c
        E 15 b3 04 1a
        E 15 b3 04 32
        E 15 b3 04 21
        E 15 b3 04 6c
        E 15 b3 04 6b
        E 15 b3 04 7f
        E 15 b3 04 6a
        E 15 b3 04 37
        E 15 b3 04 76
        E 15 b3 04 5b
        E 15 b3 04 0f
        E 15 b3 04 38
        E 15 b3 04 44
        E 15 b3 04 79
        E 15 b3 04 61
        E 15 b3 04 45
        E 15 b3 04 47
        E 15 b3 04 06
        E 15 b3 04 0d
        E 15 b3 04 75
        E 15 b3 04 66
        E 15 b3 04 36
        E 15 b3 04 28
        E 15 b3 04 11
        E 15 b3 04 39
        E 15 b3 04 26
        E 15 b3 04 1f
        E 15 b3 04 30
        E 15 b3 04 42
        E 15 b3 04 4d
        E 15 b3 04 52
        E 15 b3 04 15
        E 15 b3 04 4c
        E 15 b3 04 71
        E 15 b3 04 41
        E 15 b3 04 4a
        E 15 b3 04 03
        E 15 b3 04 09
        E 15 b3 04 7d
        E 15 b3 04 53
        E 15 b3 04 17
        E 15 b3 04 74
        E 15 b3 04 29
        E 15 b3 04 31
        E 15 b3 04 3e
        E 15 b3 04 33
        E 15 b3 04 55
        E 15 b3 04 67
        E 15 b3 04 25
        E 15 b3 04 48
        E 15 b3 04 1d
        E 15 b3 04 72
        E 15 b3 04 69
        E 15 b3 04 3a
        E 15 b3 04 2e
        E 15 b3 04 64
        E 15 b3 04 2f
        E 15 b3 04 59
        E 15 b3 04 12
        E 15 b3 04 02
        E 15 b3 04 2a
        E 15 b3 04 40
        E 15 b3 04 6d
        E 15 b3 04 62
        E 15 b3 04 04
        E 15 b3 04 6e
        E 15 b3 04 5d
        E 15 b3 04 07
        E 15 b3 04 27
        E 15 b3 04 4b
        E 15 b3 04 5f
        E 15 b3 04 7a
        E 15 b3 04 4e
        E 15 b3 04 35
        E 15 b3 04 23
        E 15 b3 04 58
        E 15 b3 04 5c
        E 15 b3 04 70
        E 15 b3 04 7c
        E 15 b3 04 3c
        E 15 b3 04 51
        E 15 b3 04 57
        E 15 b3 04 43
        E 15 b3 04 77
        E 15 b3 04 13
        E 15 b3 04 2d
        E 15 b3 04 54
        E 3 b3 04 19
        E 3 b3 04 56
        E 3 b3 04 38
        E 3 b3 04 09
        E 3 b3 04 51
        E 3 b3 04 48
        E 3 b3 04 0a
        E 3 b3 04 09
        E 3 b3 04 36
        E 3 b3 04 6c
        E 3 b3 04 5a
        E 3 b3 04 63
        E 3 b3 04 47
        E 3 b3 04 0c
        E 3 b3 04 15
        E 3 b3 04 4d
        E 3 b3 04 3f
        E 3 b3 04 20
        E 3 b3 04 16
        E 3 b3 04 1e
        E 3 b3 04 59
        E 3 b3 04 35
        E 3 b3 04 1b
        E 3 b3 04 41
        E 3 b3 04 71
        E 3 b3 04 00
        E 3 b3 04 0e
        E 3 b3 04 2e
        E 3 b3 04 26
        E 3 b3 04 5d
        E 3 b3 04 18
        E 3 b3 04 07
        E 3 b3 04 12
        E 3 b3 04 13
        E 3 b3 04 67
        E 3 b3 04 1c
        E 3 b3 04 00
        E 3 b3 04 54
        E 3 b3 04 27
        E 3 b3 04 17
        E 3 b3 04 2d
        E 3 b3 04 1d
        E 3 b3 04 61
        E 3 b3 04 60
        E 3 b3 04 72
        E 3 b3 04 5f
        E 3 b3 04 31
        E 3 b3 04 6a
        E 3 b3 04 51
        E 3 b3 04 0d
        E 3 b3 04 32
        E 3 b3 04 3d
        E 3 b3 04 6c
        E 3 b3 04 57
        E 3 b3 04 3e
        E 3 b3 04 3f
        E 3 b3 04 05
        E 3 b3 04 0b
        E 3 b3 04 69
        E 3 b3 04 5b
        E 3 b3 04 30
        E 3 b3 04 24
        E 3 b3 04 0f
        E 3 b3 04 33
        E 3 b3 04 22
        E 3 b3 04 1b
        E 3 b3 04 2b
        E 3 b3 04 3b
        E 3 b3 04 45
        E 3 b3 04 49
        E 3 b3 04 12
        E 3 b3 04 44
        E 3 b3 04 65
        E 3 b3 04 3a
        E 3 b3 04 42
        E 3 b3 04 02
        E 3 b3 04 08
        E 3 b3 04 70
        E 3 b3 04 4a
        E 3 b3 04 14
        E 3 b3 04 68
        E 3 b3 04 24
        E 3 b3 04 2c
        E 3 b3 04 37
        E 3 b3 04 2d
        E 3 b3 04 4c
        E 3 b3 04 5c
        E 3 b3 04 21
        E 3 b3 04 40
        E 3 b3 04 1a
        E 3 b3 04 66
        E 3 b3 04 5e
        E 3 b3 04 34
        E 3 b3 04 29
        E 3 b3 04 5a
        E 3 b3 04 2a
        E 3 b3 04 50
        E 3 b3 04 10
        E 3 b3 04 01
        E 3 b3 04 25
        E 3 b3 04 39
        E 3 b3 04 62
        E 3 b3 04 58
        E 3 b3 04 03
        E 3 b3 04 63
        E 3 b3 04 53
        E 3 b3 04 06
        E 3 b3 04 23
        E 3 b3 04 43
        E 3 b3 04 55
        E 3 b3 04 6d
        E 3 b3 04 46
        E 3 b3 04 2f
        E 3 b3 04 1f
        E 3 b3 04 4f
        E 3 b3 04 52
        E 3 b3 04 64
        E 3 b3 04 6f
        E 3 b3 04 36
        E 3 b3 04 48
        E 3 b3 04 4e
        E 3 b3 04 3c
        E 3 b3 04 6b
        E 3 b3 04 11
        E 3 b3 04 28
        E 3 b3 04 4b
        E 1 b3 04 10
        E 1 b3 04 39
        E 1 b3 04 25
        E 1 b3 04 06
        E 1 b3 04 36
        E 1 b3 04 30
        E 1 b3 04 07
        E 1 b3 04 06
        E 1 b3 04 24
        E 1 b3 04 48
        E 1 b3 04 3c
        E 1 b3 04 42
        E 1 b3 04 2f
        E 1 b3 04 08
        E 1 b3 04 0e
        E 1 b3 04 33
        E 1 b3 04 2a
        E 1 b3 04 15
        E 1 b3 04 0f
        E 1 b3 04 14
        E 1 b3 04 3b
        E 1 b3 04 23
        E 1 b3 04 12
        E 1 b3 04 2b
        E 1 b3 04 4b
        E 1 b3 04 00
        E 1 b3 04 09
        E 1 b3 04 1f
        E 1 b3 04 19
        E 1 b3 04 3e
        E 1 b3 04 10
        E 1 b3 04 04
        E 1 b3 04 0c
        E 1 b3 04 0d
        E 1 b3 04 45
        E 1 b3 04 13
        E 1 b3 04 00
        E 1 b3 04 38
        E 1 b3 04 1a
        E 1 b3 04 0f
        E 1 b3 04 1e
        E 1 b3 04 13
        E 1 b3 04 40
        E 1 b3 04 40
        E 1 b3 04 4c
        E 1 b3 04 3f
        E 1 b3 04 21
        E 1 b3 04 46
        E 1 b3 04 36
        E 1 b3 04 09
        E 1 b3 04 21
        E 1 b3 04 28
        E 1 b3 04 48
        E 1 b3 04 3a
        E 1 b3 04 29
        E 1 b3 04 2a
        E 1 b3 04 03
        E 1 b3 04 07
        E 1 b3 04 46
        E 1 b3 04 3d
        E 1 b3 04 20
        E 1 b3 04 18
        E 1 b3 04 0a
        E 1 b3 04 22
        E 1 b3 04 16
        E 1 b3 04 12
        E 1 b3 04 1c
        E 1 b3 04 27
        E 1 b3 04 2e
        E 1 b3 04 31
        E 1 b3 04 0c
        E 1 b3 04 2d
        E 1 b3 04 43
        E 1 b3 04 27
        E 1 b3 04 2c
        E 1 b3 04 01
        E 1 b3 04 05
        E 1 b3 04 4b
        E 1 b3 04 31
        E 1 b3 04 0d
        E 1 b3 04 45
        E 1 b3 04 18
        E 1 b3 04 1d
        E 1 b3 04 25
        E 1 b3 04 1e
        E 1 b3 04 33
        E 1 b3 04 3d
        E 1 b3 04 16
        E 1 b3 04 2b
        E 1 b3 04 11
        E 1 b3 04 44
        E 1 b3 04 3f
        E 1 b3 04 22
        E 1 b3 04 1b
        E 1 b3 04 3c
        E 1 b3 04 1c
        E 1 b3 04 35
        E 1 b3 04 0a
        E 1 b3 04 01
        E 1 b3 04 19
        E 1 b3 04 26
        E 1 b3 04 41
        E 1 b3 04 3a
        E 1 b3 04 02
        E 1 b3 04 42
        E 1 b3 04 37
        E 1 b3 04 04
        E 1 b3 04 17
        E 1 b3 04 2d
        E 1 b3 04 39
        E 1 b3 04 49
        E 1 b3 04 2e
        E 1 b3 04 1f
        E 1 b3 04 15
        E 1 b3 04 34
        E 1 b3 04 37
        E 1 b3 04 43
        E 1 b3 04 4a
        E 1 b3 04 24
        E 1 b3 04 30
        E 1 b3 04 34
        E 1 b3 04 28
        E 1 b3 04 47
        E 1 b3 04 0b
        E 1 b3 04 1b
        E 1 b3 04 32
        E 8 b3 04 05
        E 8 b3 04 13
        E 8 b3 04 0c
        E 8 b3 04 02
        E 8 b3 04 12
        E 8 b3 04 10
        E 8 b3 04 02
        E 8 b3 04 02
        E 8 b3 04 0c
        E 8 b3 04 18
        E 8 b3 04 14
        E 8 b3 04 16
        E 8 b3 04 0f
        E 8 b3 04 02
        E 8 b3 04 04
        E 8 b3 04 11
        E 8 b3 04 0e
        E 8 b3 04 07
        E 8 b3 04 05
        E 8 b3 04 06
        E 8 b3 04 13
        E 8 b3 04 0b
        E 8 b3 04 06
        E 8 b3 04 0e
        E 8 b3 04 19
        E 8 b3 04 00
        E 8 b3 04 03
        E 8 b3 04 0a
        E 8 b3 04 08
        E 8 b3 04 14
        E 8 b3 04 05
        E 8 b3 04 01
        E 8 b3 04 04
        E 8 b3 04 04
        E 8 b3 04 17
        E 8 b3 04 06
        E 8 b3 04 00
        E 8 b3 04 12
        E 8 b3 04 08
        E 8 b3 04 05
        E 8 b3 04 0a
        E 8 b3 04 06
        E 8 b3 04 15
        E 8 b3 04 15
        E 8 b3 04 19
        E 8 b3 04 15
        E 8 b3 04 0b
        E 8 b3 04 17
        E 8 b3 04 12
        E 8 b3 04 03
        E 8 b3 04 0b
        E 8 b3 04 0d
        E 8 b3 04 18
        E 8 b3 04 13
        E 8 b3 04 0d
        E 8 b3 04 0e
        E 8 b3 04 01
        E 8 b3 04 02
        E 8 b3 04 17
        E 8 b3 04 14
        E 8 b3 04 0a
        E 8 b3 04 08
        E 8 b3 04 03
        E 8 b3 04 0b
        E 8 b3 04 07
        E 8 b3 04 06
        E 8 b3 04 09
        E 8 b3 04 0d
        E 8 b3 04 0f
        E 8 b3 04 10
        E 8 b3 04 04
        E 8 b3 04 0f
        E 8 b3 04 16
        E 8 b3 04 0d
        E 8 b3 04 0e
        E 8 b3 04 00
        E 8 b3 04 01
        E 8 b3 04 19
        E 8 b3 04 10
        E 8 b3 04 04
        E 8 b3 04 17
        E 8 b3 04 08
        E 8 b3 04 09
        E 8 b3 04 0c
        E 8 b3 04 0a
        E 8 b3 04 11
        E 8 b3 04 14
        E 8 b3 04 07
        E 8 b3 04 0e
        E 8 b3 04 05
        E 8 b3 04 16
        E 8 b3 04 15
        E 8 b3 04 0b
        E 8 b3 04 09
        E 8 b3 04 14
        E 8 b3 04 09
        E 8 b3 04 11
        E 8 b3 04 03
        E 8 b3 04 00
        E 8 b3 04 08
        E 8 b3 04 0c
        E 8 b3 04 15
        E 8 b3 04 13
        E 8 b3 04 00
        E 8 b3 04 16
        E 8 b3 04 12
        E 8 b3 04 01
        E 8 b3 04 07
        E 8 b3 04 0f
        E 8 b3 04 13
        E 8 b3 04 18
        E 8 b3 04 0f
        E 8 b3 04 0a
        E 8 b3 04 07
        E 8 b3 04 11
        E 8 b3 04 12
        E 8 b3 04 16
        E 8 b3 04 18
        E 8 b3 04 0c
        E 8 b3 04 10
        E 8 b3 04 11
        E 8 b3 04 0d
        E 8 b3 04 17
        E 8 b3 04 03
        E 8 b3 04 09
        E 8 b3 04 10
        E 6 b3 04 13
        E 6 b3 04 43
        E 6 b3 04 2c
        E 6 b3 04 07
        E 6 b3 04 3e
        E 6 b3 04 38
        E 6 b3 04 08
        E 6 b3 04 07
        E 6 b3 04 2a
        E 6 b3 04 54
        E 6 b3 04 46
        E 6 b3 04 4d
        E 6 b3 04 37
        E 6 b3 04 09
        E 6 b3 04 10
        E 6 b3 04 3c
        E 6 b3 04 31
        E 6 b3 04 19
        E 6 b3 04 11
        E 6 b3 04 17
        E 6 b3 04 45
        E 6 b3 04 29
        E 6 b3 04 15
        E 6 b3 04 33
        E 6 b3 04 58
        E 6 b3 04 00
        E 6 b3 04 0b
        E 6 b3 04 24
        E 6 b3 04 1e
        E 6 b3 04 48
        E 6 b3 04 12
        E 6 b3 04 05
        E 6 b3 04 0e
        E 6 b3 04 0f
        E 6 b3 04 50
        E 6 b3 04 16
        E 6 b3 04 00
        E 6 b3 04 41
        E 6 b3 04 1e
        E 6 b3 04 12
        E 6 b3 04 23
        E 6 b3 04 17
        E 6 b3 04 4b
        E 6 b3 04 4a
        E 6 b3 04 58
        E 6 b3 04 4a
        E 6 b3 04 26
        E 6 b3 04 52
        E 6 b3 04 3f
        E 6 b3 04 0a
        E 6 b3 04 27
        E 6 b3 04 2f
        E 6 b3 04 54
        E 6 b3 04 43
        E 6 b3 04 30
        E 6 b3 04 31
        E 6 b3 04 04
        E 6 b3 04 09
        E 6 b3 04 51
        E 6 b3 04 47
        E 6 b3 04 25
        E 6 b3 04 1c
        E 6 b3 04 0b
        E 6 b3 04 27
        E 6 b3 04 1a
        E 6 b3 04 15
        E 6 b3 04 21
        E 6 b3 04 2e
        E 6 b3 04 35
        E 6 b3 04 39
        E 6 b3 04 0e
        E 6 b3 04 35
        E 6 b3 04 4f
        E 6 b3 04 2d
        E 6 b3 04 33
        E 6 b3 04 02
        E 6 b3 04 06
        E 6 b3 04 57
        E 6 b3 04 3a
        E 6 b3 04 10
        E 6 b3 04 51
        E 6 b3 04 1c
        E 6 b3 04 22
        E 6 b3 04 2b
        E 6 b3 04 23
        E 6 b3 04 3b
        E 6 b3 04 48
        E 6 b3 04 19
        E 6 b3 04 32
        E 6 b3 04 14
        E 6 b3 04 4f
        E 6 b3 04 49
        E 6 b3 04 28
        E 6 b3 04 20
        E 6 b3 04 46
        E 6 b3 04 20
        E 6 b3 04 3e
        E 6 b3 04 0c
        E 6 b3 04 01
        E 6 b3 04 1d
        E 6 b3 04 2c
        E 6 b3 04 4c
        E 6 b3 04 44
        E 6 b3 04 02
        E 6 b3 04 4d
        E 6 b3 04 41
        E 6 b3 04 04
        E 6 b3 04 1b
        E 6 b3 04 34
        E 6 b3 04 42
        E 6 b3 04 55
        E 6 b3 04 36
        E 6 b3 04 25
        E 6 b3 04 18
        E 6 b3 04 3d
        E 6 b3 04 40
        E 6 b3 04 4e
        E 6 b3 04 56
        E 6 b3 04 2a
        E 6 b3 04 38
        E 6 b3 04 3c
        E 6 b3 04 2e
        E 6 b3 04 53
        E 6 b3 04 0d
        E 6 b3 04 1f
        E 6 b3 04 3a
        E 1 b3 04 0b
        E 1 b3 04 26
        E 1 b3 04 19
        E 1 b3 04 04
        E 1 b3 04 24
        E 1 b3 04 20
        E 1 b3 04 04
        E 1 b3 04 04
        E 1 b3 04 18
        E 1 b3 04 30
        E 1 b3 04 28
        E 1 b3 04 2c
        E 1 b3 04 1f
        E 1 b3 04 05
        E 1 b3 04 09
        E 1 b3 04 22
        E 1 b3 04 1c
        E 1 b3 04 0e
        E 1 b3 04 0a
        E 1 b3 04 0d
        E 1 b3 04 27
        E 1 b3 04 17
        E 1 b3 04 0c
        E 1 b3 04 1d
        E 1 b3 04 32
        E 1 b3 04 00
        E 1 b3 04 06
        E 1 b3 04 14
        E 1 b3 04 11
        E 1 b3 04 29
        E 1 b3 04 0a
        E 1 b3 04 03
        E 1 b3 04 08
        E 1 b3 04 08
        E 1 b3 04 2e
        E 1 b3 04 0c
        E 1 b3 04 00
        E 1 b3 04 25
        E 1 b3 04 11
        E 1 b3 04 0a
        E 1 b3 04 14
        E 1 b3 04 0d
        E 1 b3 04 2b
        E 1 b3 04 2a
        E 1 b3 04 32
        E 1 b3 04 2a
        E 1 b3 04 16
        E 1 b3 04 2f
        E 1 b3 04 24
        E 1 b3 04 06
        E 1 b3 04 16
        E 1 b3 04 1b
        E 1 b3 04 30
        E 1 b3 04 26
        E 1 b3 04 1b
        E 1 b3 04 1c
        E 1 b3 04 02
        E 1 b3 04 05
        E 1 b3 04 2e
        E 1 b3 04 28
        E 1 b3 04 15
        E 1 b3 04 10
        E 1 b3 04 06
        E 1 b3 04 16
        E 1 b3 04 0f
        E 1 b3 04 0c
        E 1 b3 04 13
        E 1 b3 04 1a
        E 1 b3 04 1e
        E 1 b3 04 20
        E 1 b3 04 08
        E 1 b3 04 1e
        E 1 b3 04 2d
        E 1 b3 04 1a
        E 1 b3 04 1d
        E 1 b3 04 01
        E 1 b3 04 03
        E 1 b3 04 32
        E 1 b3 04 21
        E 1 b3 04 09
        E 1 b3 04 2e
        E 1 b3 04 10
        E 1 b3 04 13
        E 1 b3 04 18
        E 1 b3 04 14
        E 1 b3 04 22
        E 1 b3 04 29
        E 1 b3 04 0e
        E 1 b3 04 1c
        E 1 b3 04 0b
        E 1 b3 04 2d
        E 1 b3 04 2a
        E 1 b3 04 17
        E 1 b3 04 12
        E 1 b3 04 28
        E 1 b3 04 12
        E 1 b3 04 23
        E 1 b3 04 07
        E 1 b3 04 00
        E 1 b3 04 10
        E 1 b3 04 19
        E 1 b3 04 2b
        E 1 b3 04 27
        E 1 b3 04 01
        E 1 b3 04 2c
        E 1 b3 04 25
        E 1 b3 04 02
        E 1 b3 04 0f
        E 1 b3 04 1e
        E 1 b3 04 26
        E 1 b3 04 30
        E 1 b3 04 1f
        E 1 b3 04 15
        E 1 b3 04 0e
        E 1 b3 04 23
        E 1 b3 04 24
        E 1 b3 04 2c
        E 1 b3 04 31
        E 1 b3 04 18
        E 1 b3 04 20
        E 1 b3 04 22
        E 1 b3 04 1a
        E 1 b3 04 2f
        E 1 b3 04 07
        E 1 b3 04 12
        E 1 b3 04 21
        E 15 b3 04 1c
        E 15 b3 04 60
        E 15 b3 04 3f
        E 15 b3 04 0a
        E 15 b3 04 5a
        E 15 b3 04 50
        E 15 b3 04 0c
        E 15 b3 04 0b
        E 15 b3 04 3d
        E 15 b3 04 78
        E 15 b3 04 65
        E 15 b3 04 6f
        E 15 b3 04 4f
        E 15 b3 04 0e
        E 15 b3 04 18
        E 15 b3 04 56
        E 15 b3 04 46
        E 15 b3 04 24
        E 15 b3 04 19
        E 15 b3 04 22
        E 15 b3 04 63
        E 15 b3 04 3b
        E 15 b3 04 1e
        E 15 b3 04 49
        E 15 b3 04 7e
        E 15 b3 04 00
        E 15 b3 04 10
        E 15 b3 04 34
        E 15 b3 04 2b
        E 15 b3 04 68
        E 15 b3 04 1b
        E 15 b3 04 08
        E 15 b3 04 14
        E 15 b3 04 16
        E 15 b3 04 73
        E 15 b3 04 20
        E 15 b3 04 01
        E 15 b3 04 5e
        E 15 b3 04 2c
        E 15 b3 04 1a
        E 15 b3 04 32
        E 15 b3 04 21
        E 15 b3 04 6c
        E 15 b3 04 6b
        E 15 b3 04 7f
        E 15 b3 04 6a
        E 15 b3 04 37
        E 15 b3 04 76
        E 15 b3 04 5b
        E 15 b3 04 0f
        E 15 b3 04 38
        E 15 b3 04 44
        E 15 b3 04 79
        E 15 b3 04 61
        E 15 b3 04 45
        E 15 b3 04 47
        E 15 b3 04 06
        E 15 b3 04 0d
        E 15 b3 04 75
        E 15 b3 04 66
        E 15 b3 04 36
        E 15 b3 04 28
        E 15 b3 04 11
        E 15 b3 04 39
        E 15 b3 04 26
        E 15 b3 04 1f
        E 15 b3 04 30
        E 15 b3 04 42
        E 15 b3 04 4d
        E 15 b3 04 52
        E 15 b3 04 15
        E 15 b3 04 4c
        E 15 b3 04 71
        E 15 b3 04 41
        E 15 b3 04 4a
        E 15 b3 04 03
        E 15 b3 04 09
        E 15 b3 04 7d
        E 15 b3 04 53
        E 15 b3 04 17
        E 15 b3 04 74
        E 15 b3 04 29
        E 15 b3 04 31
        E 15 b3 04 3e
        E 15 b3 04 33
        E 15 b3 04 55
        E 15 b3 04 67
        E 15 b3 04 25
        E 15 b3 04 48
        E 15 b3 04 1d
        E 15 b3 04 72
        E 15 b3 04 69
        E 15 b3 04 3a
        E 15 b3 04 2e
        E 15 b3 04 64
        E 15 b3 04 2f
        E 15 b3 04 59
        E 15 b3 04 12
        E 15 b3 04 02
        E 15 b3 04 2a
        E 15 b3 04 40
        E 15 b3 04 6d
        E 15 b3 04 62
        E 15 b3 04 04
        E 15 b3 04 6e
        E 15 b3 04 5d
        E 15 b3 04 07
        E 15 b3 04 27
        E 15 b3 04 4b
        E 15 b3 04 5f
        E 15 b3 04 7a
        E 15 b3 04 4e
        E 15 b3 04 35
        E 15 b3 04 23
        E 15 b3 04 58
        E 15 b3 04 5c
        E 15 b3 04 70
        E 15 b3 04 7c
        E 15 b3 04 3c
        E 15 b3 04 51
        E 15 b3 04 57
        E 15 b3 04 43
        E 15 b3 04 77
        E 15 b3 04 13
        E 15 b3 04 2d
        E 15 b3 04 54
        E 3 b3 04 19
        E 3 b3 04 56
        E 3 b3 04 38
        E 3 b3 04 09
        E 3 b3 04 51
        E 3 b3 04 48
        E 3 b3 04 0a
        E 3 b3 04 09
        E 3 b3 04 36
        E 3 b3 04 6c
        E 3 b3 04 5a
        E 3 b3 04 63
        E 3 b3 04 47
        E 3 b3 04 0c
        E 3 b3 04 15
        E 3 b3 04 4d
        E 3 b3 04 3f
        E 3 b3 04 20
        E 3 b3 04 16
        E 3 b3 04 1e
        E 3 b3 04 59
        E 3 b3 04 35
        E 3 b3 04 1b
        E 3 b3 04 41
        E 3 b3 04 71
        E 3 b3 04 00
        E 3 b3 04 0e
        E 3 b3 04 2e
        E 3 b3 04 26
        E 3 b3 04 5d
        E 3 b3 04 18
        E 3 b3 04 07
        E 3 b3 04 12
        E 3 b3 04 13
        E 3 b3 04 67
        E 3 b3 04 1c
        E 3 b3 04 00
        E 3 b3 04 54
        E 3 b3 04 27
        E 3 b3 04 17
        E 3 b3 04 2d
        E 3 b3 04 1d
        E 3 b3 04 61
        E 3 b3 04 60
        E 3 b3 04 72
        E 3 b3 04 5f
        E 3 b3 04 31
        E 3 b3 04 6a
        E 3 b3 04 51
        E 3 b3 04 0d
        E 3 b3 04 32
        E 3 b3 04 3d
        E 3 b3 04 6c
        E 3 b3 04 57
        E 3 b3 04 3e
        E 3 b3 04 3f
        E 3 b3 04 05
        E 3 b3 04 0b
        E 3 b3 04 69
        E 3 b3 04 5b
        E 3 b3 04 30
        E 3 b3 04 24
        E 3 b3 04 0f
        E 3 b3 04 33
        E 3 b3 04 22
        E 3 b3 04 1b
        E 3 b3 04 2b
        E 3 b3 04 3b
        E 3 b3 04 45
        E 3 b3 04 49
        E 3 b3 04 12
        E 3 b3 04 44
        E 3 b3 04 65
        E 3 b3 04 3a
        E 3 b3 04 42
        E 3 b3 04 02
        E 3 b3 04 08
        E 3 b3 04 70
        E 3 b3 04 4a
        E 3 b3 04 14
        E 3 b3 04 68
        E 3 b3 04 24
        E 3 b3 04 2c
        E 3 b3 04 37
        E 3 b3 04 2d
        E 3 b3 04 4c
        E 3 b3 04 5c
        E 3 b3 04 21
        E 3 b3 04 40
        E 3 b3 04 1a
        E 3 b3 04 66
        E 3 b3 04 5e
        E 3 b3 04 34
        E 3 b3 04 29
        E 3 b3 04 5a
        E 3 b3 04 2a
        E 3 b3 04 50
        E 3 b3 04 10
        E 3 b3 04 01
        E 3 b3 04 25
        E 3 b3 04 39
        E 3 b3 04 62
        E 3 b3 04 58
        E 3 b3 04 03
        E 3 b3 04 63
        E 3 b3 04 53
        E 3 b3 04 06
        E 3 b3 04 23
        E 3 b3 04 43
        E 3 b3 04 55
        E 3 b3 04 6d
        E 3 b3 04 46
        E 3 b3 04 2f
        E 3 b3 04 1f
        E 3 b3 04 4f
        E 3 b3 04 52
        E 3 b3 04 64
        E 3 b3 04 6f
        E 3 b3 04 36
        E 3 b3 04 48
        E 3 b3 04 4e
        E 3 b3 04 3c
        E 3 b3 04 6b
        E 3 b3 04 11
        E 3 b3 04 28
        E 3 b3 04 4b
        E 1 b3 04 10
        E 1 b3 04 39
        E 1 b3 04 25
        E 1 b3 04 06
        E 1 b3 04 36
        E 1 b3 04 30
        E 1 b3 04 07
        E 1 b3 04 06
        E 1 b3 04 24
        E 1 b3 04 48
        E 1 b3 04 3c
        E 1 b3 04 42
        E 1 b3 04 2f
        E 1 b3 04 08
        E 1 b3 04 0e
        E 1 b3 04 33
        E 1 b3 04 2a
        E 1 b3 04 15
        E 1 b3 04 0f
        E 1 b3 04 14
        E 1 b3 04 3b
        E 1 b3 04 23
        E 1 b3 04 12
        E 1 b3 04 2b
        E 1 b3 04 4b
        E 1 b3 04 00
        E 1 b3 04 09
        E 1 b3 04 1f
        E 1 b3 04 19
        E 1 b3 04 3e
        E 1 b3 04 10
        E 1 b3 04 04
        E 1 b3 04 0c
        E 1 b3 04 0d
        E 1 b3 04 45
        E 1 b3 04 13
        E 1 b3 04 00
        E 1 b3 04 38
        E 1 b3 04 1a
        E 1 b3 04 0f
        E 1 b3 04 1e
        E 1 b3 04 13
        E 1 b3 04 40
        E 1 b3 04 40
        E 1 b3 04 4c
        E 1 b3 04 3f
        E 1 b3 04 21
        E 1 b3 04 46
        E 1 b3 04 36
        E 1 b3 04 09
        E 1 b3 04 21
        E 1 b3 04 28
        E 1 b3 04 48
        E 1 b3 04 3a
        E 1 b3 04 29
        E 1 b3 04 2a
        E 1 b3 04 03
        E 1 b3 04 07
        E 1 b3 04 46
        E 1 b3 04 3d
        E 1 b3 04 20
        E 1 b3 04 18
        E 1 b3 04 0a
        E 1 b3 04 22
        E 1 b3 04 16
        E 1 b3 04 12
        E 1 b3 04 1c
        E 1 b3 04 27
        E 1 b3 04 2e
        E 1 b3 04 31
        E 1 b3 04 0c
        E 1 b3 04 2d
        E 1 b3 04 43
        E 1 b3 04 27
        E 1 b3 04 2c
        E 1 b3 04 01
        E 1 b3 04 05
        E 1 b3 04 4b
        E 1 b3 04 31
        E 1 b3 04 0d
        E 1 b3 04 45
        E 1 b3 04 18
        E 1 b3 04 1d
        E 1 b3 04 25
        E 1 b3 04 1e
        E 1 b3 04 33
        E 1 b3 04 3d
        E 1 b3 04 16
        E 1 b3 04 2b
        E 1 b3 04 11
        E 1 b3 04 44
        E 1 b3 04 3f
        E 1 b3 04 22
        E 1 b3 04 1b
        E 1 b3 04 3c
        E 1 b3 04 1c
        E 1 b3 04 35
        E 1 b3 04 0a
        E 1 b3 04 01
        E 1 b3 04 19
        E 1 b3 04 26
        E 1 b3 04 41
        E 1 b3 04 3a
        E 1 b3 04 02
        E 1 b3 04 42
        E 1 b3 04 37
        E 1 b3 04 04
        E 1 b3 04 17
        E 1 b3 04 2d
        E 1 b3 04 39
        E 1 b3 04 49
        E 1 b3 04 2e
        E 1 b3 04 1f
        E 1 b3 04 15
        E 1 b3 04 34
        E 1 b3 04 37
        E 1 b3 04 43
        E 1 b3 04 4a
        E 1 b3 04 24
        E 1 b3 04 30
        E 1 b3 04 34
        E 1 b3 04 28
        E 1 b3 04 47
        E 1 b3 04 0b
        E 1 b3 04 1b
        E 1 b3 04 32
        E 8 b3 04 05
        E 8 b3 04 13
        E 8 b3 04 0c
        E 8 b3 04 02
        E 8 b3 04 12
        E 8 b3 04 10
        E 8 b3 04 02
        E 8 b3 04 02
        E 8 b3 04 0c
        E 8 b3 04 18
        E 8 b3 04 14
        E 8 b3 04 16
        E 8 b3 04 0f
        E 8 b3 04 02
        E 8 b3 04 04
        E 8 b3 04 11
        E 8 b3 04 0e
        E 8 b3 04 07
        E 8 b3 04 05
        E 8 b3 04 06
        E 8 b3 04 13
        E 8 b3 04 0b
        E 8 b3 04 06
        E 8 b3 04 0e
        E 8 b3 04 19
        E 8 b3 04 00
        E 8 b3 04 03
        E 8 b3 04 0a
        E 8 b3 04 08
        E 8 b3 04 14
        E 8 b3 04 05
        E 8 b3 04 01
        E 8 b3 04 04
        E 8 b3 04 04
        E 8 b3 04 17
        E 8 b3 04 06
        E 8 b3 04 00
        E 8 b3 04 12
        E 8 b3 04 08
        E 8 b3 04 05
        E 8 b3 04 0a
        E 8 b3 04 06
        E 8 b3 04 15
        E 8 b3 04 15
        E 8 b3 04 19
        E 8 b3 04 15
        E 8 b3 04 0b
        E 8 b3 04 17
        E 8 b3 04 12
        E 8 b3 04 03
        E 8 b3 04 0b
        E 8 b3 04 0d
        E 8 b3 04 18
        E 8 b3 04 13
        E 8 b3 04 0d
        E 8 b3 04 0e
        E 8 b3 04 01
        E 8 b3 04 02
        E 8 b3 04 17
        E 8 b3 04 14
        E 8 b3 04 0a
        E 8 b3 04 08
        E 8 b3 04 03
        E 8 b3 04 0b
        E 8 b3 04 07
        E 8 b3 04 06
        E 8 b3 04 09
        E 8 b3 04 0d
        E 8 b3 04 0f
        E 8 b3 04 10
        E 8 b3 04 04
        E 8 b3 04 0f
        E 8 b3 04 16
        E 8 b3 04 0d
        E 8 b3 04 0e
        E 8 b3 04 00
        E 8 b3 04 01
        E 8 b3 04 19
        E 8 b3 04 10
        E 8 b3 04 04
        E 8 b3 04 17
        E 8 b3 04 08
        E 8 b3 04 09
        E 8 b3 04 0c
        E 8 b3 04 0a
        E 8 b3 04 11
        E 8 b3 04 14
        E 8 b3 04 07
        E 8 b3 04 0e
        E 8 b3 04 05
        E 8 b3 04 16
        E 8 b3 04 15
        E 8 b3 04 0b
        E 8 b3 04 09
        E 8 b3 04 14
        E 8 b3 04 09
        E 8 b3 04 11
        E 8 b3 04 03
        E 8 b3 04 00
        E 8 b3 04 08
        E 8 b3 04 0c
        E 8 b3 04 15
        E 8 b3 04 13
        E 8 b3 04 00
        E 8 b3 04 16
        E 8 b3 04 12
        E 8 b3 04 01
        E 8 b3 04 07
        E 8 b3 04 0f
        E 8 b3 04 13
        E 8 b3 04 18
        E 8 b3 04 0f
        E 8 b3 04 0a
        E 8 b3 04 07
        E 8 b3 04 11
        E 8 b3 04 12
        E 8 b3 04 16
        E 8 b3 04 18
        E 8 b3 04 0c
        E 8 b3 04 10
        E 8 b3 04 11
        E 8 b3 04 0d
        E 8 b3 04 17
        E 8 b3 04 03
        E 8 b3 04 09
        E 8 b3 04 10
        E 6 b3 04 13
        E 6 b3 04 43
        E 6 b3 04 2c
        E 6 b3 04 07
        E 6 b3 04 3e
        E 6 b3 04 38
        E 6 b3 04 08
        E 6 b3 04 07
        E 6 b3 04 2a
        E 6 b3 04 54
        E 6 b3 04 46
        E 6 b3 04 4d
        E 6 b3 04 37
        E 6 b3 04 09
        E 6 b3 04 10
        E 6 b3 04 3c
        E 6 b3 04 31
        E 6 b3 04 19
        E 6 b3 04 11
        E 6 b3 04 17
        E 6 b3 04 45
        E 6 b3 04 29
        E 6 b3 04 15
        E 6 b3 04 33
        E 6 b3 04 58
        E 6 b3 04 00
        E 6 b3 04 0b
        E 6 b3 04 24
        E 6 b3 04 1e
        E 6 b3 04 48
        E 6 b3 04 12
        E 6 b3 04 05
        E 6 b3 04 0e
        E 6 b3 04 0f
        E 6 b3 04 50
        E 6 b3 04 16
        E 6 b3 04 00
        E 6 b3 04 41
        E 6 b3 04 1e
        E 6 b3 04 12
        E 6 b3 04 23
        E 6 b3 04 17
        E 6 b3 04 4b
        E 6 b3 04 4a
        E 6 b3 04 58
        E 6 b3 04 4a
        E 6 b3 04 26
        E 6 b3 04 52
        E 6 b3 04 3f
        E 6 b3 04 0a
        E 6 b3 04 27
        E 6 b3 04 2f
        E 6 b3 04 54
        E 6 b3 04 43
        E 6 b3 04 30
        E 6 b3 04 31
        E 6 b3 04 04
        E 6 b3 04 09
        E 6 b3 04 51
        E 6 b3 04 47
        E 6 b3 04 25
        E 6 b3 04 1c
        E 6 b3 04 0b
        E 6 b3 04 27
        E 6 b3 04 1a
        E 6 b3 04 15
        E 6 b3 04 21
        E 6 b3 04 2e
        E 6 b3 04 35
        E 6 b3 04 39
        E 6 b3 04 0e
        E 6 b3 04 35
        E 6 b3 04 4f
        E 6 b3 04 2d
        E 6 b3 04 33
        E 6 b3 04 02
        E 6 b3 04 06
        E 6 b3 04 57
        E 6 b3 04 3a
        E 6 b3 04 10
        E 6 b3 04 51
        E 6 b3 04 1c
        E 6 b3 04 22
        E 6 b3 04 2b
        E 6 b3 04 23
        E 6 b3 04 3b
        E 6 b3 04 48
        E 6 b3 04 19
        E 6 b3 04 32
        E 6 b3 04 14
        E 6 b3 04 4f
        E 6 b3 04 49
        E 6 b3 04 28
        E 6 b3 04 20
        E 6 b3 04 46
        E 6 b3 04 20
        E 6 b3 04 3e
        E 6 b3 04 0c
        E 6 b3 04 01
        E 6 b3 04 1d
        E 6 b3 04 2c
        E 6 b3 04 4c
        E 6 b3 04 44
        E 6 b3 04 02
        E 6 b3 04 4d
        E 6 b3 04 41
        E 6 b3 04 04
        E 6 b3 04 1b
        E 6 b3 04 34
        E 6 b3 04 42
        E 6 b3 04 55
        E 6 b3 04 36
        E 6 b3 04 25
        E 6 b3 04 18
        E 6 b3 04 3d
        E 6 b3 04 40
        E 6 b3 04 4e
        E 6 b3 04 56
        E 6 b3 04 2a
        E 6 b3 04 38
        E 6 b3 04 3c
        E 6 b3 04 2e
        E 6 b3 04 53
        E 6 b3 04 0d
        E 6 b3 04 1f
        E 6 b3 04 3a
        E 1 b3 04 0b
        E 1 b3 04 26
        E 1 b3 04 19
        E 1 b3 04 04
        E 1 b3 04 24
        E 1 b3 04 20
        E 1 b3 04 04
        E 1 b3 04 04
        E 1 b3 04 18
        E 1 b3 04 30
        E 1 b3 04 28
        E 1 b3 04 2c
        E 1 b3 04 1f
        E 1 b3 04 05
        E 1 b3 04 09
        E 1 b3 04 22
        E 1 b3 04 1c
        E 1 b3 04 0e
        E 1 b3 04 0a
        E 1 b3 04 0d
        E 1 b3 04 27
        E 1 b3 04 17
        E 1 b3 04 0c
        E 1 b3 04 1d
        E 1 b3 04 32
        E 1 b3 04 00
        E 1 b3 04 06
        E 1 b3 04 14
        E 1 b3 04 11
        E 1 b3 04 29
        E 1 b3 04 0a
        E 1 b3 04 03
        E 1 b3 04 08
        E 1 b3 04 08
        E 1 b3 04 2e
        E 1 b3 04 0c
        E 1 b3 04 00
        E 1 b3 04 25
        E 1 b3 04 11
        E 1 b3 04 0a
        E 1 b3 04 14
        E 1 b3 04 0d
        E 1 b3 04 2b
        E 1 b3 04 2a
        E 1 b3 04 32
        E 1 b3 04 2a
        E 1 b3 04 16
        E 1 b3 04 2f
        E 1 b3 04 24
        E 1 b3 04 06
        E 1 b3 04 16
        E 1 b3 04 1b
        E 1 b3 04 30
        E 1 b3 04 26
        E 1 b3 04 1b
        E 1 b3 04 1c
        E 1 b3 04 02
        E 1 b3 04 05
        E 1 b3 04 2e
        E 1 b3 04 28
        E 1 b3 04 15
        E 1 b3 04 10
        E 1 b3 04 06
        E 1 b3 04 16
        E 1 b3 04 0f
        E 1 b3 04 0c
        E 1 b3 04 13
        E 1 b3 04 1a
        E 1 b3 04 1e
        E 1 b3 04 20
        E 1 b3 04 08
        E 1 b3 04 1e
        E 1 b3 04 2d
        E 1 b3 04 1a
        E 1 b3 04 1d
        E 1 b3 04 01
        E 1 b3 04 03
        E 1 b3 04 32
        E 1 b3 04 21
        E 1 b3 04 09
        E 1 b3 04 2e
        E 1 b3 04 10
        E 1 b3 04 13
        E 1 b3 04 18
        E 1 b3 04 14
        E 1 b3 04 22
        E 1 b3 04 29
        E 1 b3 04 0e
        E 1 b3 04 1c
        E 1 b3 04 0b
        E 1 b3 04 2d
        E 1 b3 04 2a
        E 1 b3 04 17
        E 1 b3 04 12
        E 1 b3 04 28
        E 1 b3 04 12
        E 1 b3 04 23
        E 1 b3 04 07
        E 1 b3 04 00
        E 1 b3 04 10
        E 1 b3 04 19
        E 1 b3 04 2b
        E 1 b3 04 27
        E 1 b3 04 01
        E 1 b3 04 2c
        E 1 b3 04 25
        E 1 b3 04 02
        E 1 b3 04 0f
        E 1 b3 04 1e
        E 1 b3 04 26
        E 1 b3 04 30
        E 1 b3 04 1f
        E 1 b3 04 15
        E 1 b3 04 0e
        E 1 b3 04 23
        E 1 b3 04 24
        E 1 b3 04 2c
        E 1 b3 04 31
        E 1 b3 04 18
        E 1 b3 04 20
        E 1 b3 04 22
        E 1 b3 04 1a
        E 1 b3 04 2f
        E 1 b3 04 07
        E 1 b3 04 12
        E 1 b3 04 21
        E 15 b3 04 1c
        E 15 b3 04 60
        E 15 b3 04 3f
        E 15 b3 04 0a
        E 15 b3 04 5a
        E 15 b3 04 50
        E 15 b3 04 0c
        E 15 b3 04 0b
        E 15 b3 04 3d
        E 15 b3 04 78
        E 15 b3 04 65
        E 15 b3 04 6f
        E 15 b3 04 4f
        E 15 b3 04 0e
        E 15 b3 04 18
        E 15 b3 04 56
        E 15 b3 04 46
        E 15 b3 04 24
        E 15 b3 04 19
        E 15 b3 04 22
        E 15 b3 04 63
        E 15 b3 04 3b
        E 15 b3 04 1e
        E 15 b3 04 49
        E 15 b3 04 7e
        E 15 b3 04 00
        E 15 b3 04 10
        E 15 b3 04 34
        E 15 b3 04 2b
        E 15 b3 04 68
        E 15 b3 04 1b
        E 15 b3 04 08
        E 15 b3 04 14
        E 15 b3 04 16
        E 15 b3 04 73
        E 15 b3 04 20
        E 15 b3 04 01
        E 15 b3 04 5e
        E 15 b3 04 2c
        E 15 b3 04 1a
        E 15 b3 04 32
        E 15 b3 04 21
        E 15 b3 04 6c
        E 15 b3 04 6b
        E 15 b3 04 7f
        E 15 b3 04 6a
        E 15 b3 04 37
        E 15 b3 04 76
        E 15 b3 04 5b
        E 15 b3 04 0f
        E 15 b3 04 38
        E 15 b3 04 44
        E 15 b3 04 79
        E 15 b3 04 61
        E 15 b3 04 45
        E 15 b3 04 47
        E 15 b3 04 06
        E 15 b3 04 0d
        E 15 b3 04 75
        E 15 b3 04 66
        E 15 b3 04 36
        E 15 b3 04 28
        E 15 b3 04 11
        E 15 b3 04 39
        E 15 b3 04 26
        E 15 b3 04 1f
        E 15 b3 04 30
        E 15 b3 04 42
        E 15 b3 04 4d
        E 15 b3 04 52
        E 15 b3 04 15
        E 15 b3 04 4c
        E 15 b3 04 71
        E 15 b3 04 41
        E 15 b3 04 4a
        E 15 b3 04 03
        E 15 b3 04 09
        E 15 b3 04 7d
        E 15 b3 04 53
        E 15 b3 04 17
        E 15 b3 04 74
        E 15 b3 04 29
        E 15 b3 04 31
        E 15 b3 04 3e
        E 15 b3 04 33
        E 15 b3 04 55
        E 15 b3 04 67
        E 15 b3 04 25
        E 15 b3 04 48
        E 15 b3 04 1d
        E 15 b3 04 72
        E 15 b3 04 69
        E 15 b3 04 3a
        E 15 b3 04 2e
        E 15 b3 04 64
        E 15 b3 04 2f
        E 15 b3 04 59
        E 15 b3 04 12
        E 15 b3 04 02
        E 15 b3 04 2a
        E 15 b3 04 40
        E 15 b3 04 6d
        E 15 b3 04 62
        E 15 b3 04 04
        E 15 b3 04 6e
        E 15 b3 04 5d
        E 15 b3 04 07
        E 15 b3 04 27
        E 15 b3 04 4b
        E 15 b3 04 5f
        E 15 b3 04 7a
        E 15 b3 04 4e
        E 15 b3 04 35
        E 15 b3 04 23
        E 15 b3 04 58
        E 15 b3 04 5c
        E 15 b3 04 70
        E 15 b3 04 7c
        E 15 b3 04 3c
        E 15 b3 04 51
        E 15 b3 04 57
        E 15 b3 04 43
        E 15 b3 04 77
        E 15 b3 04 13
        E 15 b3 04 2d
        E 15 b3 04 54
        E 3 b3 04 19
        E 3 b3 04 56
        E 3 b3 04 38
        E 3 b3 04 09
        E 3 b3 04 51
        E 3 b3 04 48
        E 3 b3 04 0a
        E 3 b3 04 09
        E 3 b3 04 36
        E 3 b3 04 6c
        E 3 b3 04 5a
        E 3 b3 04 63
        E 3 b3 04 47
        E 3 b3 04 0c
        E 3 b3 04 15
        E 3 b3 04 4d
        E 3 b3 04 3f
        E 3 b3 04 20
        E 3 b3 04 16
        E 3 b3 04 1e
        E 3 b3 04 59
        E 3 b3 04 35
        E 3 b3 04 1b
        E 3 b3 04 41
        E 3 b3 04 71
        E 3 b3 04 00
        E 3 b3 04 0e
        E 3 b3 04 2e
        E 3 b3 04 26
        E 3 b3 04 5d
        E 3 b3 04 18
        E 3 b3 04 07
        E 3 b3 04 12
        E 3 b3 04 13
        E 3 b3 04 67
        E 3 b3 04 1c
        E 3 b3 04 00
        E 3 b3 04 54
        E 3 b3 04 27
        E 3 b3 04 17
        E 3 b3 04 2d
        E 3 b3 04 1d
        E 3 b3 04 61
        E 3 b3 04 60
        E 3 b3 04 72
        E 3 b3 04 5f
        E 3 b3 04 31
        E 3 b3 04 6a
        E 3 b3 04 51
        E 3 b3 04 0d
        E 3 b3 04 32
        E 3 b3 04 3d
        E 3 b3 04 6c
        E 3 b3 04 57
        E 3 b3 04 3e
        E 3 b3 04 3f
        E 3 b3 04 05
        E 3 b3 04 0b
        E 3 b3 04 69
        E 3 b3 04 5b
        E 3 b3 04 30
        E 3 b3 04 24
        E 3 b3 04 0f
        E 3 b3 04 33
        E 3 b3 04 22
        E 3 b3 04 1b
        E 3 b3 04 2b
        E 3 b3 04 3b
        E 3 b3 04 45
        E 3 b3 04 49
        E 3 b3 04 12
        E 3 b3 04 44
        E 3 b3 04 65
        E 3 b3 04 3a
        E 3 b3 04 42
        E 3 b3 04 02
        E 3 b3 04 08
        E 3 b3 04 70
        E 3 b3 04 4a
        E 3 b3 04 14
        E 3 b3 04 68
        E 3 b3 04 24
        E 3 b3 04 2c
        E 3 b3 04 37
        E 3 b3 04 2d
        E 3 b3 04 4c
        E 3 b3 04 5c
        E 3 b3 04 21
        E 3 b3 04 40
        E 3 b3 04 1a
        E 3 b3 04 66
        E 3 b3 04 5e
        E 3 b3 04 34
        E 3 b3 04 29
        E 3 b3 04 5a
        E 3 b3 04 2a
        E 3 b3 04 50
        E 3 b3 04 10
        E 3 b3 04 01
        E 3 b3 04 25
        E 3 b3 04 39
        E 3 b3 04 62
        E 3 b3 04 58
        E 3 b3 04 03
        E 3 b3 04 63
        E 3 b3 04 53
        E 3 b3 04 06
        E 3 b3 04 23
        E 3 b3 04 43
        E 3 b3 04 55
        E 3 b3 04 6d
        E 3 b3 04 46
        E 3 b3 04 2f
        E 3 b3 04 1f
        E 3 b3 04 4f
        E 3 b3 04 52
        E 3 b3 04 64
        E 3 b3 04 6f
        E 3 b3 04 36
        E 3 b3 04 48
        E 3 b3 04 4e
        E 3 b3 04 3c
        E 3 b3 04 6b
        E 3 b3 04 11
        E 3 b3 04 28
        E 3 b3 04 4b
        E 1 b3 04 10
        E 1 b3 04 39
        E 1 b3 04 25
        E 1 b3 04 06
        E 1 b3 04 36
        E 1 b3 04 30
        E 1 b3 04 07
        E 1 b3 04 06
        E 1 b3 04 24
        E 1 b3 04 48
        E 1 b3 04 3c
        E 1 b3 04 42
        E 1 b3 04 2f
        E 1 b3 04 08
        E 1 b3 04 0e
        E 1 b3 04 33
        E 1 b3 04 2a
        E 1 b3 04 15
        E 1 b3 04 0f
        E 1 b3 04 14
        E 1 b3 04 3b
        E 1 b3 04 23
        E 1 b3 04 12
        E 1 b3 04 2b
        E 1 b3 04 4b
        E 1 b3 04 00
        E 1 b3 04 09
        E 1 b3 04 1f
        E 1 b3 04 19
        E 1 b3 04 3e
        E 1 b3 04 10
        E 1 b3 04 04
        E 1 b3 04 0c
        E 1 b3 04 0d
        E 1 b3 04 45
        E 1 b3 04 13
        E 1 b3 04 00
        E 1 b3 04 38
        E 1 b3 04 1a
        E 1 b3 04 0f
        E 1 b3 04 1e
        E 1 b3 04 13
        E 1 b3 04 40
        E 1 b3 04 40
        E 1 b3 04 4c
        E 1 b3 04 3f
        E 1 b3 04 21
        E 1 b3 04 46
        E 1 b3 04 36
        E 1 b3 04 09
        E 1 b3 04 21
        E 1 b3 04 28
        E 1 b3 04 48
        E 1 b3 04 3a
        E 1 b3 04 29
        E 1 b3 04 2a
        E 1 b3 04 03
        E 1 b3 04 07
        E 1 b3 04 46
        E 1 b3 04 3d
        E 1 b3 04 20
        E 1 b3 04 18
        E 1 b3 04 0a
        E 1 b3 04 22
        E 1 b3 04 16
        E 1 b3 04 12
        E 1 b3 04 1c
        E 1 b3 04 27
        E 1 b3 04 2e
        E 1 b3 04 31
        E 1 b3 04 0c
        E 1 b3 04 2d
        E 1 b3 04 43
        E 1 b3 04 27
        E 1 b3 04 2c
        E 1 b3 04 01
        E 1 b3 04 05
        E 1 b3 04 4b
        E 1 b3 04 31
        E 1 b3 04 0d
        E 1 b3 04 45
        E 1 b3 04 18
        E 1 b3 04 1d
        E 1 b3 04 25
        E 1 b3 04 1e
        E 1 b3 04 33
        E 1 b3 04 3d
        E 1 b3 04 16
        E 1 b3 04 2b
        E 1 b3 04 11
        E 1 b3 04 44
        E 1 b3 04 3f
        E 1 b3 04 22
        E 1 b3 04 1b
        E 1 b3 04 3c
        E 1 b3 04 1c
        E 1 b3 04 35
        E 1 b3 04 0a
        E 1 b3 04 01
        E 1 b3 04 19
        E 1 b3 04 26
        E 1 b3 04 41
        E 1 b3 04 3a
        E 1 b3 04 02
        E 1 b3 04 42
        E 1 b3 04 37
        E 1 b3 04 04
        E 1 b3 04 17
        E 1 b3 04 2d
        E 1 b3 04 39
        E 1 b3 04 49
        E 1 b3 04 2e
        E 1 b3 04 1f
        E 1 b3 04 15
        E 1 b3 04 34
        E 1 b3 04 37
        E 1 b3 04 43
        E 1 b3 04 4a
        E 1 b3 04 24
        E 1 b3 04 30
        E 1 b3 04 34
        E 1 b3 04 28
        E 1 b3 04 47
        E 1 b3 04 0b
        E 1 b3 04 1b
        E 1 b3 04 32
        E 8 b3 04 05
        E 8 b3 04 13
        E 8 b3 04 0c
        E 8 b3 04 02
        E 8 b3 04 12
        E 8 b3 04 10
        E 8 b3 04 02
        E 8 b3 04 02
        E 8 b3 04 0c
        E 8 b3 04 18
        E 8 b3 04 14
        E 8 b3 04 16
        E 8 b3 04 0f
        E 8 b3 04 02
        E 8 b3 04 04
        E 8 b3 04 11
        E 8 b3 04 0e
        E 8 b3 04 07
        E 8 b3 04 05
        E 8 b3 04 06
        E 8 b3 04 13
        E 8 b3 04 0b
        E 8 b3 04 06
        E 8 b3 04 0e
        E 8 b3 04 19
        E 8 b3 04 00
        E 8 b3 04 03
        E 8 b3 04 0a
        E 8 b3 04 08
        E 8 b3 04 14
        E 8 b3 04 05
        E 8 b3 04 01
        E 8 b3 04 04
        E 8 b3 04 04
        E 8 b3 04 17
        E 8 b3 04 06
        E 8 b3 04 00
        E 8 b3 04 12
        E 8 b3 04 08
        E 8 b3 04 05
        E 8 b3 04 0a
        E 8 b3 04 06
        E 8 b3 04 15
        E 8 b3 04 15
        E 8 b3 04 19
        E 8 b3 04 15
        E 8 b3 04 0b
        E 8 b3 04 17
        E 8 b3 04 12
        E 8 b3 04 03
        E 8 b3 04 0b
        E 8 b3 04 0d
        E 8 b3 04 18
        E 8 b3 04 13
        E 8 b3 04 0d
        E 8 b3 04 0e
        E 8 b3 04 01
        E 8 b3 04 02
        E 8 b3 04 17
        E 8 b3 04 14
        E 8 b3 04 0a
        E 8 b3 04 08
        E 8 b3 04 03
        E 8 b3 04 0b
        E 8 b3 04 07
        E 8 b3 04 06
        E 8 b3 04 09
        E 8 b3 04 0d
        E 8 b3 04 0f
        E 8 b3 04 10
        E 8 b3 04 04
        E 8 b3 04 0f
        E 8 b3 04 16
        E 8 b3 04 0d
        E 8 b3 04 0e
        E 8 b3 04 00
        E 8 b3 04 01
        E 8 b3 04 19
        E 8 b3 04 10
        E 8 b3 04 04
        E 8 b3 04 17
        E 8 b3 04 08
        E 8 b3 04 09
        E 8 b3 04 0c
        E 8 b3 04 0a
        E 8 b3 04 11
        E 8 b3 04 14
        E 8 b3 04 07
        E 8 b3 04 0e
        E 8 b3 04 05
        E 8 b3 04 16
        E 8 b3 04 15
        E 8 b3 04 0b
        E 8 b3 04 09
        E 8 b3 04 14
        E 8 b3 04 09
        E 8 b3 04 11
        E 8 b3 04 03
        E 8 b3 04 00
        E 8 b3 04 08
        E 8 b3 04 0c
        E 8 b3 04 15
        E 8 b3 04 13
        E 8 b3 04 00
        E 8 b3 04 16
        E 8 b3 04 12
        E 8 b3 04 01
        E 8 b3 04 07
        E 8 b3 04 0f
        E 8 b3 04 13
        E 8 b3 04 18
        E 8 b3 04 0f
        E 8 b3 04 0a
        E 8 b3 04 07
        E 8 b3 04 11
        E 8 b3 04 12
        E 8 b3 04 16
        E 8 b3 04 18
        E 8 b3 04 0c
        E 8 b3 04 10
        E 8 b3 04 11
        E 8 b3 04 0d
        E 8 b3 04 17
        E 8 b3 04 03
        E 8 b3 04 09
        E 8 b3 04 10
        E 6 b3 04 13
        E 6 b3 04 43
        E 6 b3 04 2c
        E 6 b3 04 07
        E 6 b3 04 3e
        E 6 b3 04 38
        E 6 b3 04 08
        E 6 b3 04 07
        E 6 b3 04 2a
        E 6 b3 04 54
        E 6 b3 04 46
        E 6 b3 04 4d
        E 6 b3 04 37
        E 6 b3 04 09
        E 6 b3 04 10
        E 6 b3 04 3c
        E 6 b3 04 31
        E 6 b3 04 19
        E 6 b3 04 11
        E 6 b3 04 17
        E 6 b3 04 45
        E 6 b3 04 29
        E 6 b3 04 15
        E 6 b3 04 33
        E 6 b3 04 58
        E 6 b3 04 00
        E 6 b3 04 0b
        E 6 b3 04 24
        E 6 b3 04 1e
        E 6 b3 04 48
        E 6 b3 04 12
        E 6 b3 04 05
        E 6 b3 04 0e
        E 6 b3 04 0f
        E 6 b3 04 50
        E 6 b3 04 16
        E 6 b3 04 00
        E 6 b3 04 41
        E 6 b3 04 1e
        E 6 b3 04 12
        E 6 b3 04 23
        E 6 b3 04 17
        E 6 b3 04 4b
        E 6 b3 04 4a
        E 6 b3 04 58
        E 6 b3 04 4a
        E 6 b3 04 26
        E 6 b3 04 52
        E 6 b3 04 3f
        E 6 b3 04 0a
        E 6 b3 04 27
        E 6 b3 04 2f
        E 6 b3 04 54
        E 6 b3 04 43
        E 6 b3 04 30
        E 6 b3 04 31
        E 6 b3 04 04
        E 6 b3 04 09
        E 6 b3 04 51
        E 6 b3 04 47
        E 6 b3 04 25
        E 6 b3 04 1c
        E 6 b3 04 0b
        E 6 b3 04 27
        E 6 b3 04 1a
        E 6 b3 04 15
        E 6 b3 04 21
        E 6 b3 04 2e
        E 6 b3 04 35
        E 6 b3 04 39
        E 6 b3 04 0e
        E 6 b3 04 35
        E 6 b3 04 4f
        E 6 b3 04 2d
        E 6 b3 04 33
        E 6 b3 04 02
        E 6 b3 04 06
        E 6 b3 04 57
        E 6 b3 04 3a
        E 6 b3 04 10
        E 6 b3 04 51
        E 6 b3 04 1c
        E 6 b3 04 22
        E 6 b3 04 2b
        E 6 b3 04 23
        E 6 b3 04 3b
        E 6 b3 04 48
        E 6 b3 04 19
        E 6 b3 04 32
        E 6 b3 04 14
        E 6 b3 04 4f
        E 6 b3 04 49
        E 6 b3 04 28
        E 6 b3 04 20
        E 6 b3 04 46
        E 6 b3 04 20
        E 6 b3 04 3e
        E 6 b3 04 0c
        E 6 b3 04 01
        E 6 b3 04 1d
        E 6 b3 04 2c
        E 6 b3 04 4c
        E 6 b3 04 44
        E 6 b3 04 02
        E 6 b3 04 4d
        E 6 b3 04 41
        E 6 b3 04 04
        E 6 b3 04 1b
        E 6 b3 04 34
        E 6 b3 04 42
        E 6 b3 04 55
        E 6 b3 04 36
        E 6 b3 04 25
        E 6 b3 04 18
        E 6 b3 04 3d
        E 6 b3 04 40
        E 6 b3 04 4e
        E 6 b3 04 56
        E 6 b3 04 2a
        E 6 b3 04 38
        E 6 b3 04 3c
        E 6 b3 04 2e
        E 6 b3 04 53
        E 6 b3 04 0d
        E 6 b3 04 1f
        E 6 b3 04 3a
        E 1 b3 04 0b
        E 1 b3 04 26
        E 1 b3 04 19
        E 1 b3 04 04
        E 1 b3 04 24
        E 1 b3 04 20
        E 1 b3 04 04
        E 1 b3 04 04
        E 1 b3 04 18
        E 1 b3 04 30
        E 1 b3 04 28
        E 1 b3 04 2c
        E 1 b3 04 1f
        E 1 b3 04 05
        E 1 b3 04 09
        E 1 b3 04 22
        E 1 b3 04 1c
        E 1 b3 04 0e
        E 1 b3 04 0a
        E 1 b3 04 0d
        E 1 b3 04 27
        E 1 b3 04 17
        E 1 b3 04 0c
        E 1 b3 04 1d
        E 1 b3 04 32
        E 1 b3 04 00
        E 1 b3 04 06
        E 1 b3 04 14
        E 1 b3 04 11
        E 1 b3 04 29
        E 1 b3 04 0a
        E 1 b3 04 03
        E 1 b3 04 08
        E 1 b3 04 08
        E 1 b3 04 2e
        E 1 b3 04 0c
        E 1 b3 04 00
        E 1 b3 04 25
        E 1 b3 04 11
        E 1 b3 04 0a
        E 1 b3 04 14
        E 1 b3 04 0d
        E 1 b3 04 2b
        E 1 b3 04 2a
        E 1 b3 04 32
        E 1 b3 04 2a
        E 1 b3 04 16
        E 1 b3 04 2f
        E 1 b3 04 24
        E 1 b3 04 06
        E 1 b3 04 16
        E 1 b3 04 1b
        E 1 b3 04 30
        E 1 b3 04 26
        E 1 b3 04 1b
        E 1 b3 04 1c
        E 1 b3 04 02
        E 1 b3 04 05
        E 1 b3 04 2e
        E 1 b3 04 28
        E 1 b3 04 15
        E 1 b3 04 10
        E 1 b3 04 06
        E 1 b3 04 16
        E 1 b3 04 0f
        E 1 b3 04 0c
        E 1 b3 04 13
        E 1 b3 04 1a
        E 1 b3 04 1e
        E 1 b3 04 20
        E 1 b3 04 08
        E 1 b3 04 1e
        E 1 b3 04 2d
        E 1 b3 04 1a
        E 1 b3 04 1d
        E 1 b3 04 01
        E 1 b3 04 03
        E 1 b3 04 32
        E 1 b3 04 21
        E 1 b3 04 09
        E 1 b3 04 2e
        E 1 b3 04 10
        E 1 b3 04 13
        E 1 b3 04 18
        E 1 b3 04 14
        E 1 b3 04 22
        E 1 b3 04 29
        E 1 b3 04 0e
        E 1 b3 04 1c
        E 1 b3 04 0b
        E 1 b3 04 2d
        E 1 b3 04 2a
        E 1 b3 04 17
        E 1 b3 04 12
        E 1 b3 04 28
        E 1 b3 04 12
        E 1 b3 04 23
        E 1 b3 04 07
        E 1 b3 04 00
        E 1 b3 04 10
        E 1 b3 04 19
        E 1 b3 04 2b
        E 1 b3 04 27
        E 1 b3 04 01
        E 1 b3 04 2c
        E 1 b3 04 25
        E 1 b3 04 02
        E 1 b3 04 0f
        E 1 b3 04 1e
        E 1 b3 04 26
        E 1 b3 04 30
        E 1 b3 04 1f
        E 1 b3 04 15
        E 1 b3 04 0e
        E 1 b3 04 23
        E 1 b3 04 24
        E 1 b3 04 2c
        E 1 b3 04 31
        E 1 b3 04 18
        E 1 b3 04 20
        E 1 b3 04 22
        E 1 b3 04 1a
        E 1 b3 04 2f
        E 1 b3 04 07
        E 1 b3 04 12
        E 1 b3 04 21
        E 15 b3 04 1c
        E 15 b3 04 60
        E 15 b3 04 3f
        E 15 b3 04 0a
        E 15 b3 04 5a
        E 15 b3 04 50
        E 15 b3 04 0c
        E 15 b3 04 0b
        E 15 b3 04 3d
        E 15 b3 04 78
        E 15 b3 04 65
        E 15 b3 04 6f
        E 15 b3 04 4f
        E 15 b3 04 0e
        E 15 b3 04 18
        E 15 b3 04 56
        E 15 b3 04 46
        E 15 b3 04 24
        E 15 b3 04 19
        E 15 b3 04 22
        E 15 b3 04 63
        E 15 b3 04 3b
        E 15 b3 04 1e
        E 15 b3 04 49
        E 15 b3 04 7e
        E 15 b3 04 00
        E 15 b3 04 10
        E 15 b3 04 34
        E 15 b3 04 2b
        E 15 b3 04 68
        E 15 b3 04 1b
        E 15 b3 04 08
        E 15 b3 04 14
        E 15 b3 04 16
        E 15 b3 04 73
        E 15 b3 04 20
        E 15 b3 04 01
        E 15 b3 04 5e
        E 15 b3 04 2c
        E 15 b3 04 1a
        E 15 b3 04 32
        E 15 b3 04 21
        E 15 b3 04 6c
        E 15 b3 04 6b
        E 15 b3 04 7f
        E 15 b3 04 6a
        E 15 b3 04 37
        E 15 b3 04 76
        E 15 b3 04 5b
        E 15 b3 04 0f
        E 15 b3 04 38
        E 15 b3 04 44
        E 15 b3 04 79
        E 15 b3 04 61
        E 15 b3 04 45
        E 15 b3 04 47
        E 15 b3 04 06
        E 15 b3 04 0d
        E 15 b3 04 75
        E 15 b3 04 66
        E 15 b3 04 36
        E 15 b3 04 28
        E 15 b3 04 11
        E 15 b3 04 39
        E 15 b3 04 26
        E 15 b3 04 1f
        E 15 b3 04 30
        E 15 b3 04 42
        E 15 b3 04 4d
        E 15 b3 04 52
        E 15 b3 04 15
        E 15 b3 04 4c
        E 15 b3 04 71
        E 15 b3 04 41
        E 15 b3 04 4a
        E 15 b3 04 03
        E 15 b3 04 09
        E 15 b3 04 7d
        E 15 b3 04 53
        E 15 b3 04 17
        E 15 b3 04 74
        E 15 b3 04 29
        E 15 b3 04 31
        E 15 b3 04 3e
        E 15 b3 04 33
        E 15 b3 04 55
        E 15 b3 04 67
        E 15 b3 04 25
        E 15 b3 04 48
        E 15 b3 04 1d
        E 15 b3 04 72
        E 15 b3 04 69
        E 15 b3 04 3a
        E 15 b3 04 2e
        E 15 b3 04 64
        E 15 b3 04 2f
        E 15 b3 04 59
        E 15 b3 04 12
        E 15 b3 04 02
        E 15 b3 04 2a
        E 15 b3 04 40
        E 15 b3 04 6d
        E 15 b3 04 62
        E 15 b3 04 04
        E 15 b3 04 6e
        E 15 b3 04 5d
        E 15 b3 04 07
        E 15 b3 04 27
        E 15 b3 04 4b
        E 15 b3 04 5f
        E 15 b3 04 7a
        E 15 b3 04 4e
        E 15 b3 04 35
        E 15 b3 04 23
        E 15 b3 04 58
        E 15 b3 04 5c
        E 15 b3 04 70
        E 15 b3 04 7c
        E 15 b3 04 3c
        E 15 b3 04 51
        E 15 b3 04 57
        E 15 b3 04 43
        E 15 b3 04 77
        E 15 b3 04 13
        E 15 b3 04 2d
        E 15 b3 04 54
        E 11 b3 04 0c
        E 11 b3 04 0d
        E 11 b3 04 0e
        E 11 b3 04 0e
        E 11 b3 04 0f
        E 11 b3 04 0f
        E 11 b3 04 10
        E 11 b3 04 11
        E 11 b3 04 11
        E 11 b3 04 12
        E 11 b3 04 12
        E 11 b3 04 13
        E 11 b3 04 13
        E 11 b3 04 14
        E 11 b3 04 14
        E 11 b3 04 15
        E 11 b3 04 15
        E 11 b3 04 16
        E 11 b3 04 16
        E 11 b3 04 17
        E 11 b3 04 17
        E 11 b3 04 17
        E 11 b3 04 18
        E 11 b3 04 18
        E 11 b3 04 18
        E 11 b3 04 18
        E 11 b3 04 18
        E 11 b3 04 19
        E 11 b3 04 19
        E 11 b3 04 19
        E 11 b3 04 19
        E 11 b3 04 19
        E 11 b3 04 19
        E 11 b3 04 19
        E 11 b3 04 19
        E 11 b3 04 19
        E 11 b3 04 19
        E 11 b3 04 19
        E 11 b3 04 18
        E 11 b3 04 18
        E 11 b3 04 18
        E 11 b3 04 18
        E 11 b3 04 17
        E 11 b3 04 17
        E 11 b3 04 17
        E 11 b3 04 16
        E 11 b3 04 16
        E 11 b3 04 16
        E 11 b3 04 15
        E 11 b3 04 15
        E 11 b3 04 14
        E 11 b3 04 14
        E 11 b3 04 13
        E 11 b3 04 13
        E 11 b3 04 12
        E 11 b3 04 11
        E 11 b3 04 11
        E 11 b3 04 10
        E 11 b3 04 10
        E 11 b3 04 0f
        E 11 b3 04 0e
        E 11 b3 04 0e
        E 11 b3 04 0d
        E 11 b3 04 0d
        E 11 b3 04 0c
        E 11 b3 04 0b
        E 11 b3 04 0b
        E 11 b3 04 0a
        E 11 b3 04 09
        E 11 b3 04 09
        E 11 b3 04 08
        E 11 b3 04 08
        E 11 b3 04 07
        E 11 b3 04 07
        E 11 b3 04 06
        E 11 b3 04 05
        E 11 b3 04 05
        E 11 b3 04 04
        E 11 b3 04 04
        E 11 b3 04 03
        E 11 b3 04 03
        E 11 b3 04 03
        E 11 b3 04 02
        E 11 b3 04 02
        E 11 b3 04 02
        E 11 b3 04 01
        E 11 b3 04 01
        E 11 b3 04 01
        E 11 b3 04 00
        E 11 b3 04 00
        E 11 b3 04 00
        E 11 b3 04 00
        E 11 b3 04 00
        E 11 b3 04 00
        E 11 b3 04 00
        E 11 b3 04 00
        E 11 b3 04 00
        E 11 b3 04 00
        E 11 b3 04 00
        E 11 b3 04 00
        E 11 b3 04 00
        E 11 b3 04 00
        E 11 b3 04 00
        E 11 b3 04 01
        E 11 b3 04 01
        E 11 b3 04 01
        E 11 b3 04 01
        E 11 b3 04 02
        E 11 b3 04 02
        E 11 b3 04 02
        E 11 b3 04 03
        E 11 b3 04 03
        E 11 b3 04 04
        E 11 b3 04 04
        E 11 b3 04 05
        E 11 b3 04 05
        E 11 b3 04 06
        E 11 b3 04 06
        E 11 b3 04 07
        E 11 b3 04 07
        E 11 b3 04 08
        E 11 b3 04 09
        E 11 b3 04 09
        E 11 b3 04 0a
        E 11 b3 04 0a
        E 11 b3 04 0b
        E 11 b3 04 0c
        E 11 b3 04 0c
        E 8 b3 04 2c
        E 8 b3 04 2e
        E 8 b3 04 31
        E 8 b3 04 33
        E 8 b3 04 35
        E 8 b3 04 37
        E 8 b3 04 39
        E 8 b3 04 3b
        E 8 b3 04 3d
        E 8 b3 04 3f
        E 8 b3 04 41
        E 8 b3 04 43
        E 8 b3 04 45
        E 8 b3 04 47
        E 8 b3 04 48
        E 8 b3 04 4a
        E 8 b3 04 4c
        E 8 b3 04 4d
        E 8 b3 04 4f
        E 8 b3 04 50
        E 8 b3 04 51
        E 8 b3 04 52
        E 8 b3 04 54
        E 8 b3 04 54
        E 8 b3 04 55
        E 8 b3 04 56
        E 8 b3 04 56
        E 8 b3 04 57
        E 8 b3 04 58
        E 8 b3 04 58
        E 8 b3 04 58
        E 8 b3 04 58
        E 8 b3 04 58
        E 8 b3 04 58
        E 8 b3 04 58
        E 8 b3 04 58
        E 8 b3 04 58
        E 8 b3 04 57
        E 8 b3 04 56
        E 8 b3 04 56
        E 8 b3 04 55
        E 8 b3 04 54
        E 8 b3 04 53
        E 8 b3 04 51
        E 8 b3 04 51
        E 8 b3 04 4f
        E 8 b3 04 4e
        E 8 b3 04 4d
        E 8 b3 04 4b
        E 8 b3 04 49
        E 8 b3 04 48
        E 8 b3 04 46
        E 8 b3 04 44
        E 8 b3 04 42
        E 8 b3 04 40
        E 8 b3 04 3e
        E 8 b3 04 3c
        E 8 b3 04 3a
        E 8 b3 04 38
        E 8 b3 04 36
        E 8 b3 04 33
        E 8 b3 04 31
        E 8 b3 04 2f
        E 8 b3 04 2d
        E 8 b3 04 2b
        E 8 b3 04 29
        E 8 b3 04 27
        E 8 b3 04 25
        E 8 b3 04 22
        E 8 b3 04 20
        E 8 b3 04 1e
        E 8 b3 04 1c
        E 8 b3 04 1a
        E 8 b3 04 18
        E 8 b3 04 16
        E 8 b3 04 14
        E 8 b3 04 12
        E 8 b3 04 10
        E 8 b3 04 0f
        E 8 b3 04 0d
        E 8 b3 04 0b
        E 8 b3 04 0a
        E 8 b3 04 09
        E 8 b3 04 07
        E 8 b3 04 07
        E 8 b3 04 05
        E 8 b3 04 04
        E 8 b3 04 03
        E 8 b3 04 02
        E 8 b3 04 02
        E 8 b3 04 01
        E 8 b3 04 00
        E 8 b3 04 00
        E 8 b3 04 00
        E 8 b3 04 00
        E 8 b3 04 00
        E 8 b3 04 00
        E 8 b3 04 00
        E 8 b3 04 00
        E 8 b3 04 00
        E 8 b3 04 01
        E 8 b3 04 02
        E 8 b3 04 02
        E 8 b3 04 03
        E 8 b3 04 04
        E 8 b3 04 04
        E 8 b3 04 06
        E 8 b3 04 07
        E 8 b3 04 08
        E 8 b3 04 09
        E 8 b3 04 0b
        E 8 b3 04 0c
        E 8 b3 04 0e
        E 8 b3 04 10
        E 8 b3 04 11
        E 8 b3 04 13
        E 8 b3 04 15
        E 8 b3 04 17
        E 8 b3 04 19
        E 8 b3 04 1b
        E 8 b3 04 1d
        E 8 b3 04 1f
        E 8 b3 04 21
        E 8 b3 04 23
        E 8 b3 04 25
        E 8 b3 04 27
        E 8 b3 04 2a
        E 8 b3 04 2c
        E 2 b3 04 19
        E 2 b3 04 1a
        E 2 b3 04 1c
        E 2 b3 04 1d
        E 2 b3 04 1e
        E 2 b3 04 1f
        E 2 b3 04 20
        E 2 b3 04 22
        E 2 b3 04 23
        E 2 b3 04 24
        E 2 b3 04 25
        E 2 b3 04 26
        E 2 b3 04 27
        E 2 b3 04 28
        E 2 b3 04 29
        E 2 b3 04 2a
        E 2 b3 04 2b
        E 2 b3 04 2c
        E 2 b3 04 2d
        E 2 b3 04 2e
        E 2 b3 04 2e
        E 2 b3 04 2f
        E 2 b3 04 30
        E 2 b3 04 30
        E 2 b3 04 30
        E 2 b3 04 31
        E 2 b3 04 31
        E 2 b3 04 32
        E 2 b3 04 32
        E 2 b3 04 32
        E 2 b3 04 32
        E 2 b3 04 32
        E 2 b3 04 32
        E 2 b3 04 32
        E 2 b3 04 32
        E 2 b3 04 32
        E 2 b3 04 32
        E 2 b3 04 32
        E 2 b3 04 31
        E 2 b3 04 31
        E 2 b3 04 30
        E 2 b3 04 30
        E 2 b3 04 2f
        E 2 b3 04 2e
        E 2 b3 04 2e
        E 2 b3 04 2d
        E 2 b3 04 2c
        E 2 b3 04 2c
        E 2 b3 04 2b
        E 2 b3 04 2a
        E 2 b3 04 29
        E 2 b3 04 28
        E 2 b3 04 27
        E 2 b3 04 26
        E 2 b3 04 24
        E 2 b3 04 23
        E 2 b3 04 22
        E 2 b3 04 21
        E 2 b3 04 20
        E 2 b3 04 1f
        E 2 b3 04 1d
        E 2 b3 04 1c
        E 2 b3 04 1b
        E 2 b3 04 1a
        E 2 b3 04 18
        E 2 b3 04 17
        E 2 b3 04 16
        E 2 b3 04 15
        E 2 b3 04 13
        E 2 b3 04 12
        E 2 b3 04 11
        E 2 b3 04 10
        E 2 b3 04 0f
        E 2 b3 04 0e
        E 2 b3 04 0c
        E 2 b3 04 0b
        E 2 b3 04 0a
        E 2 b3 04 09
        E 2 b3 04 08
        E 2 b3 04 07
        E 2 b3 04 06
        E 2 b3 04 06
        E 2 b3 04 05
        E 2 b3 04 04
        E 2 b3 04 04
        E 2 b3 04 03
        E 2 b3 04 02
        E 2 b3 04 02
        E 2 b3 04 01
        E 2 b3 04 01
        E 2 b3 04 00
        E 2 b3 04 00
        E 2 b3 04 00
        E 2 b3 04 00
        E 2 b3 04 00
        E 2 b3 04 00
        E 2 b3 04 00
        E 2 b3 04 00
        E 2 b3 04 00
        E 2 b3 04 00
        E 2 b3 04 00
        E 2 b3 04 01
        E 2 b3 04 01
        E 2 b3 04 02
        E 2 b3 04 02
        E 2 b3 04 02
        E 2 b3 04 03
        E 2 b3 04 04
        E 2 b3 04 04
        E 2 b3 04 05
        E 2 b3 04 06
        E 2 b3 04 07
        E 2 b3 04 08
        E 2 b3 04 09
        E 2 b3 04 0a
        E 2 b3 04 0b
        E 2 b3 04 0c
        E 2 b3 04 0d
        E 2 b3 04 0e
        E 2 b3 04 0f
        E 2 b3 04 10
        E 2 b3 04 12
        E 2 b3 04 13
        E 2 b3 04 14
        E 2 b3 04 15
        E 2 b3 04 16
        E 2 b3 04 18
        E 2 b3 04 19
        E 19 b3 04 40
        E 19 b3 04 43
        E 19 b3 04 46
        E 19 b3 04 49
        E 19 b3 04 4c
        E 19 b3 04 4f
        E 19 b3 04 52
        E 19 b3 04 55
        E 19 b3 04 58
        E 19 b3 04 5b
        E 19 b3 04 5e
        E 19 b3 04 60
        E 19 b3 04 63
        E 19 b3 04 66
        E 19 b3 04 68
        E 19 b3 04 6a
        E 19 b3 04 6d
        E 19 b3 04 6f
        E 19 b3 04 71
        E 19 b3 04 73
        E 19 b3 04 75
        E 19 b3 04 76
        E 19 b3 04 78
        E 19 b3 04 79
        E 19 b3 04 7a
        E 19 b3 04 7b
        E 19 b3 04 7c
        E 19 b3 04 7d
        E 19 b3 04 7e
        E 19 b3 04 7e
        E 19 b3 04 7f
        E 19 b3 04 7f
        E 19 b3 04 7f
        E 19 b3 04 7f
        E 19 b3 04 7f
        E 19 b3 04 7e
        E 19 b3 04 7e
        E 19 b3 04 7d
        E 19 b3 04 7c
        E 19 b3 04 7b
        E 19 b3 04 7a
        E 19 b3 04 78
        E 19 b3 04 77
        E 19 b3 04 75
        E 19 b3 04 74
        E 19 b3 04 72
        E 19 b3 04 70
        E 19 b3 04 6e
        E 19 b3 04 6c
        E 19 b3 04 69
        E 19 b3 04 67
        E 19 b3 04 64
        E 19 b3 04 62
        E 19 b3 04 5f
        E 19 b3 04 5c
        E 19 b3 04 59
        E 19 b3 04 57
        E 19 b3 04 54
        E 19 b3 04 51
        E 19 b3 04 4e
        E 19 b3 04 4a
        E 19 b3 04 47
        E 19 b3 04 44
        E 19 b3 04 41
        E 19 b3 04 3e
        E 19 b3 04 3b
        E 19 b3 04 38
        E 19 b3 04 35
        E 19 b3 04 31
        E 19 b3 04 2e
        E 19 b3 04 2b
        E 19 b3 04 28
        E 19 b3 04 26
        E 19 b3 04 23
        E 19 b3 04 20
        E 19 b3 04 1d
        E 19 b3 04 1b
        E 19 b3 04 18
        E 19 b3 04 16
        E 19 b3 04 13
        E 19 b3 04 11
        E 19 b3 04 0f
        E 19 b3 04 0d
        E 19 b3 04 0b
        E 19 b3 04 0a
        E 19 b3 04 08
        E 19 b3 04 07
        E 19 b3 04 05
        E 19 b3 04 04
        E 19 b3 04 03
        E 19 b3 04 02
        E 19 b3 04 01
        E 19 b3 04 01
        E 19 b3 04 00
        E 19 b3 04 00
        E 19 b3 04 00
        E 19 b3 04 00
        E 19 b3 04 00
        E 19 b3 04 01
        E 19 b3 04 01
        E 19 b3 04 02
        E 19 b3 04 03
        E 19 b3 04 04
        E 19 b3 04 05
        E 19 b3 04 06
        E 19 b3 04 07
        E 19 b3 04 09
        E 19 b3 04 0a
        E 19 b3 04 0c
        E 19 b3 04 0e
        E 19 b3 04 10
        E 19 b3 04 12
        E 19 b3 04 15
        E 19 b3 04 17
        E 19 b3 04 19
        E 19 b3 04 1c
        E 19 b3 04 1f
        E 19 b3 04 21
        E 19 b3 04 24
        E 19 b3 04 27
        E 19 b3 04 2a
        E 19 b3 04 2d
        E 19 b3 04 30
        E 19 b3 04 33
        E 19 b3 04 36
        E 19 b3 04 39
        E 19 b3 04 3c
        E 19 b3 04 40
        E 4 b3 04 39
        E 4 b3 04 3c
        E 4 b3 04 3f
        E 4 b3 04 41
        E 4 b3 04 44
        E 4 b3 04 47
        E 4 b3 04 49
        E 4 b3 04 4c
        E 4 b3 04 4f
        E 4 b3 04 51
        E 4 b3 04 54
        E 4 b3 04 56
        E 4 b3 04 59
        E 4 b3 04 5b
        E 4 b3 04 5d
        E 4 b3 04 5f
        E 4 b3 04 62
        E 4 b3 04 63
        E 4 b3 04 65
        E 4 b3 04 67
        E 4 b3 04 69
        E 4 b3 04 6a
        E 4 b3 04 6c
        E 4 b3 04 6c
        E 4 b3 04 6d
        E 4 b3 04 6e
        E 4 b3 04 6f
        E 4 b3 04 70
        E 4 b3 04 71
        E 4 b3 04 71
        E 4 b3 04 72
        E 4 b3 04 72
        E 4 b3 04 72
        E 4 b3 04 72
        E 4 b3 04 72
        E 4 b3 04 71
        E 4 b3 04 71
        E 4 b3 04 70
        E 4 b3 04 6f
        E 4 b3 04 6e
        E 4 b3 04 6d
        E 4 b3 04 6c
        E 4 b3 04 6b
        E 4 b3 04 69
        E 4 b3 04 68
        E 4 b3 04 66
        E 4 b3 04 64
        E 4 b3 04 63
        E 4 b3 04 61
        E 4 b3 04 5e
        E 4 b3 04 5c
        E 4 b3 04 5a
        E 4 b3 04 58
        E 4 b3 04 55
        E 4 b3 04 52
        E 4 b3 04 50
        E 4 b3 04 4e
        E 4 b3 04 4b
        E 4 b3 04 48
        E 4 b3 04 46
        E 4 b3 04 42
        E 4 b3 04 3f
        E 4 b3 04 3d
        E 4 b3 04 3a
        E 4 b3 04 37
        E 4 b3 04 35
        E 4 b3 04 32
        E 4 b3 04 2f
        E 4 b3 04 2c
        E 4 b3 04 29
        E 4 b3 04 26
        E 4 b3 04 24
        E 4 b3 04 22
        E 4 b3 04 1f
        E 4 b3 04 1c
        E 4 b3 04 1a
        E 4 b3 04 18
        E 4 b3 04 15
        E 4 b3 04 13
        E 4 b3 04 11
        E 4 b3 04 0f
        E 4 b3 04 0d
        E 4 b3 04 0b
        E 4 b3 04 09
        E 4 b3 04 09
        E 4 b3 04 07
        E 4 b3 04 06
        E 4 b3 04 04
        E 4 b3 04 03
        E 4 b3 04 02
        E 4 b3 04 01
        E 4 b3 04 00
        E 4 b3 04 00
        E 4 b3 04 00
        E 4 b3 04 00
        E 4 b3 04 00
        E 4 b3 04 00
        E 4 b3 04 00
        E 4 b3 04 00
        E 4 b3 04 00
        E 4 b3 04 01
        E 4 b3 04 02
        E 4 b3 04 03
        E 4 b3 04 04
        E 4 b3 04 05
        E 4 b3 04 06
        E 4 b3 04 08
        E 4 b3 04 09
        E 4 b3 04 0a
        E 4 b3 04 0c
        E 4 b3 04 0e
        E 4 b3 04 10
        E 4 b3 04 12
        E 4 b3 04 14
        E 4 b3 04 16
        E 4 b3 04 19
        E 4 b3 04 1b
        E 4 b3 04 1d
        E 4 b3 04 20
        E 4 b3 04 23
        E 4 b3 04 25
        E 4 b3 04 28
        E 4 b3 04 2b
        E 4 b3 04 2d
        E 4 b3 04 30
        E 4 b3 04 33
        E 4 b3 04 36
        E 4 b3 04 39
        E 2 b3 04 26
        E 2 b3 04 28
        E 2 b3 04 2a
        E 2 b3 04 2b
        E 2 b3 04 2d
        E 2 b3 04 2f
        E 2 b3 04 31
        E 2 b3 04 33
        E 2 b3 04 34
        E 2 b3 04 36
        E 2 b3 04 38
        E 2 b3 04 39
        E 2 b3 04 3b
        E 2 b3 04 3d
        E 2 b3 04 3e
        E 2 b3 04 3f
        E 2 b3 04 41
        E 2 b3 04 42
        E 2 b3 04 43
        E 2 b3 04 45
        E 2 b3 04 46
        E 2 b3 04 46
        E 2 b3 04 48
        E 2 b3 04 48
        E 2 b3 04 49
        E 2 b3 04 49
        E 2 b3 04 4a
        E 2 b3 04 4b
        E 2 b3 04 4b
        E 2 b3 04 4b
        E 2 b3 04 4c
        E 2 b3 04 4c
        E 2 b3 04 4c
        E 2 b3 04 4c
        E 2 b3 04 4c
        E 2 b3 04 4b
        E 2 b3 04 4b
        E 2 b3 04 4b
        E 2 b3 04 4a
        E 2 b3 04 49
        E 2 b3 04 49
        E 2 b3 04 48
        E 2 b3 04 47
        E 2 b3 04 46
        E 2 b3 04 45
        E 2 b3 04 44
        E 2 b3 04 43
        E 2 b3 04 42
        E 2 b3 04 40
        E 2 b3 04 3f
        E 2 b3 04 3d
        E 2 b3 04 3c
        E 2 b3 04 3a
        E 2 b3 04 39
        E 2 b3 04 37
        E 2 b3 04 35
        E 2 b3 04 34
        E 2 b3 04 32
        E 2 b3 04 30
        E 2 b3 04 2e
        E 2 b3 04 2c
        E 2 b3 04 2a
        E 2 b3 04 28
        E 2 b3 04 27
        E 2 b3 04 25
        E 2 b3 04 23
        E 2 b3 04 21
        E 2 b3 04 1f
        E 2 b3 04 1d
        E 2 b3 04 1b
        E 2 b3 04 19
        E 2 b3 04 18
        E 2 b3 04 16
        E 2 b3 04 15
        E 2 b3 04 13
        E 2 b3 04 11
        E 2 b3 04 10
        E 2 b3 04 0e
        E 2 b3 04 0d
        E 2 b3 04 0b
        E 2 b3 04 0a
        E 2 b3 04 09
        E 2 b3 04 07
        E 2 b3 04 06
        E 2 b3 04 06
        E 2 b3 04 04
        E 2 b3 04 04
        E 2 b3 04 03
        E 2 b3 04 02
        E 2 b3 04 01
        E 2 b3 04 01
        E 2 b3 04 00
        E 2 b3 04 00
        E 2 b3 04 00
        E 2 b3 04 00
        E 2 b3 04 00
        E 2 b3 04 00
        E 2 b3 04 00
        E 2 b3 04 00
        E 2 b3 04 00
        E 2 b3 04 01
        E 2 b3 04 01
        E 2 b3 04 02
        E 2 b3 04 03
        E 2 b3 04 03
        E 2 b3 04 04
        E 2 b3 04 05
        E 2 b3 04 06
        E 2 b3 04 07
        E 2 b3 04 08
        E 2 b3 04 09
        E 2 b3 04 0a
        E 2 b3 04 0c
        E 2 b3 04 0d
        E 2 b3 04 0f
        E 2 b3 04 10
        E 2 b3 04 12
        E 2 b3 04 13
        E 2 b3 04 15
        E 2 b3 04 17
        E 2 b3 04 19
        E 2 b3 04 1b
        E 2 b3 04 1c
        E 2 b3 04 1e
        E 2 b3 04 20
        E 2 b3 04 22
        E 2 b3 04 24
        E 2 b3 04 26
        E 11 b3 04 0c
        E 11 b3 04 0d
        E 11 b3 04 0e
        E 11 b3 04 0e
        E 11 b3 04 0f
        E 11 b3 04 0f
        E 11 b3 04 10
        E 11 b3 04 11
        E 11 b3 04 11
        E 11 b3 04 12
        E 11 b3 04 12
        E 11 b3 04 13
        E 11 b3 04 13
        E 11 b3 04 14
        E 11 b3 04 14
        E 11 b3 04 15
        E 11 b3 04 15
        E 11 b3 04 16
        E 11 b3 04 16
        E 11 b3 04 17
        E 11 b3 04 17
        E 11 b3 04 17
        E 11 b3 04 18
        E 11 b3 04 18
        E 11 b3 04 18
        E 11 b3 04 18
        E 11 b3 04 18
        E 11 b3 04 19
        E 11 b3 04 19
        E 11 b3 04 19
        E 11 b3 04 19
        E 11 b3 04 19
        E 11 b3 04 19
        E 11 b3 04 19
        E 11 b3 04 19
        E 11 b3 04 19
        E 11 b3 04 19
        E 11 b3 04 19
        E 11 b3 04 18
        E 11 b3 04 18
        E 11 b3 04 18
        E 11 b3 04 18
        E 11 b3 04 17
        E 11 b3 04 17
        E 11 b3 04 17
        E 11 b3 04 16
        E 11 b3 04 16
        E 11 b3 04 16
        E 11 b3 04 15
        E 11 b3 04 15
        E 11 b3 04 14
        E 11 b3 04 14
        E 11 b3 04 13
        E 11 b3 04 13
        E 11 b3 04 12
        E 11 b3 04 11
        E 11 b3 04 11
        E 11 b3 04 10
        E 11 b3 04 10
        E 11 b3 04 0f
        E 11 b3 04 0e
        E 11 b3 04 0e
        E 11 b3 04 0d
        E 11 b3 04 0d
        E 11 b3 04 0c
        E 11 b3 04 0b
        E 11 b3 04 0b
        E 11 b3 04 0a
        E 11 b3 04 09
        E 11 b3 04 09
        E 11 b3 04 08
        E 11 b3 04 08
        E 11 b3 04 07
        E 11 b3 04 07
        E 11 b3 04 06
        E 11 b3 04 05
        E 11 b3 04 05
        E 11 b3 04 04
        E 11 b3 04 04
        E 11 b3 04 03
        E 11 b3 04 03
        E 11 b3 04 03
        E 11 b3 04 02
        E 11 b3 04 02
        E 11 b3 04 02
        E 11 b3 04 01
        E 11 b3 04 01
        E 11 b3 04 01
        E 11 b3 04 00
        E 11 b3 04 00
        E 11 b3 04 00
        E 11 b3 04 00
        E 11 b3 04 00
        E 11 b3 04 00
        E 11 b3 04 00
        E 11 b3 04 00
        E 11 b3 04 00
        E 11 b3 04 00
        E 11 b3 04 00
        E 11 b3 04 00
        E 11 b3 04 00
        E 11 b3 04 00
        E 11 b3 04 00
        E 11 b3 04 01
        E 11 b3 04 01
        E 11 b3 04 01
        E 11 b3 04 01
        E 11 b3 04 02
        E 11 b3 04 02
        E 11 b3 04 02
        E 11 b3 04 03
        E 11 b3 04 03
        E 11 b3 04 04
        E 11 b3 04 04
        E 11 b3 04 05
        E 11 b3 04 05
        E 11 b3 04 06
        E 11 b3 04 06
        E 11 b3 04 07
        E 11 b3 04 07
        E 11 b3 04 08
        E 11 b3 04 09
        E 11 b3 04 09
        E 11 b3 04 0a
        E 11 b3 04 0a
        E 11 b3 04 0b
        E 11 b3 04 0c
        E 11 b3 04 0c
        E 8 b3 04 2c
        E 8 b3 04 2e
        E 8 b3 04 31
        E 8 b3 04 33
        E 8 b3 04 35
        E 8 b3 04 37
        E 8 b3 04 39
        E 8 b3 04 3b
        E 8 b3 04 3d
        E 8 b3 04 3f
        E 8 b3 04 41
        E 8 b3 04 43
        E 8 b3 04 45
        E 8 b3 04 47
        E 8 b3 04 48
        E 8 b3 04 4a
        E 8 b3 04 4c
        E 8 b3 04 4d
        E 8 b3 04 4f
        E 8 b3 04 50
        E 8 b3 04 51
        E 8 b3 04 52
        E 8 b3 04 54
        E 8 b3 04 54
        E 8 b3 04 55
        E 8 b3 04 56
        E 8 b3 04 56
        E 8 b3 04 57
        E 8 b3 04 58
        E 8 b3 04 58
        E 8 b3 04 58
        E 8 b3 04 58
        E 8 b3 04 58
        E 8 b3 04 58
        E 8 b3 04 58
        E 8 b3 04 58
        E 8 b3 04 58
        E 8 b3 04 57
        E 8 b3 04 56
        E 8 b3 04 56
        E 8 b3 04 55
        E 8 b3 04 54
        E 8 b3 04 53
        E 8 b3 04 51
        E 8 b3 04 51
        E 8 b3 04 4f
        E 8 b3 04 4e
        E 8 b3 04 4d
        E 8 b3 04 4b
        E 8 b3 04 49
        E 8 b3 04 48
        E 8 b3 04 46
        E 8 b3 04 44
        E 8 b3 04 42
        E 8 b3 04 40
        E 8 b3 04 3e
        E 8 b3 04 3c
        E 8 b3 04 3a
        E 8 b3 04 38
        E 8 b3 04 36
        E 8 b3 04 33
        E 8 b3 04 31
        E 8 b3 04 2f
        E 8 b3 04 2d
        E 8 b3 04 2b
        E 8 b3 04 29
        E 8 b3 04 27
        E 8 b3 04 25
        E 8 b3 04 22
        E 8 b3 04 20
        E 8 b3 04 1e
        E 8 b3 04 1c
        E 8 b3 04 1a
        E 8 b3 04 18
        E 8 b3 04 16
        E 8 b3 04 14
        E 8 b3 04 12
        E 8 b3 04 10
        E 8 b3 04 0f
        E 8 b3 04 0d
        E 8 b3 04 0b
        E 8 b3 04 0a
        E 8 b3 04 09
        E 8 b3 04 07
        E 8 b3 04 07
        E 8 b3 04 05
        E 8 b3 04 04
        E 8 b3 04 03
        E 8 b3 04 02
        E 8 b3 04 02
        E 8 b3 04 01
        E 8 b3 04 00
        E 8 b3 04 00
        E 8 b3 04 00
        E 8 b3 04 00
        E 8 b3 04 00
        E 8 b3 04 00
        E 8 b3 04 00
        E 8 b3 04 00
        E 8 b3 04 00
        E 8 b3 04 01
        E 8 b3 04 02
        E 8 b3 04 02
        E 8 b3 04 03
        E 8 b3 04 04
        E 8 b3 04 04
        E 8 b3 04 06
        E 8 b3 04 07
        E 8 b3 04 08
        E 8 b3 04 09
        E 8 b3 04 0b
        E 8 b3 04 0c
        E 8 b3 04 0e
        E 8 b3 04 10
        E 8 b3 04 11
        E 8 b3 04 13
        E 8 b3 04 15
        E 8 b3 04 17
        E 8 b3 04 19
        E 8 b3 04 1b
        E 8 b3 04 1d
        E 8 b3 04 1f
        E 8 b3 04 21
        E 8 b3 04 23
        E 8 b3 04 25
        E 8 b3 04 27
        E 8 b3 04 2a
        E 8 b3 04 2c
        E 2 b3 04 19
        E 2 b3 04 1a
        E 2 b3 04 1c
        E 2 b3 04 1d
        E 2 b3 04 1e
        E 2 b3 04 1f
        E 2 b3 04 20
        E 2 b3 04 22
        E 2 b3 04 23
        E 2 b3 04 24
        E 2 b3 04 25
        E 2 b3 04 26
        E 2 b3 04 27
        E 2 b3 04 28
        E 2 b3 04 29
        E 2 b3 04 2a
        E 2 b3 04 2b
        E 2 b3 04 2c
        E 2 b3 04 2d
        E 2 b3 04 2e
        E 2 b3 04 2e
        E 2 b3 04 2f
        E 2 b3 04 30
        E 2 b3 04 30
        E 2 b3 04 30
        E 2 b3 04 31
        E 2 b3 04 31
        E 2 b3 04 32
        E 2 b3 04 32
        E 2 b3 04 32
        E 2 b3 04 32
        E 2 b3 04 32
        E 2 b3 04 32
        E 2 b3 04 32
        E 2 b3 04 32
        E 2 b3 04 32
        E 2 b3 04 32
        E 2 b3 04 32
        E 2 b3 04 31
        E 2 b3 04 31
        E 2 b3 04 30
        E 2 b3 04 30
        E 2 b3 04 2f
        E 2 b3 04 2e
        E 2 b3 04 2e
        E 2 b3 04 2d
        E 2 b3 04 2c
        E 2 b3 04 2c
        E 2 b3 04 2b
        E 2 b3 04 2a
        E 2 b3 04 29
        E 2 b3 04 28
        E 2 b3 04 27
        E 2 b3 04 26
        E 2 b3 04 24
        E 2 b3 04 23
        E 2 b3 04 22
        E 2 b3 04 21
        E 2 b3 04 20
        E 2 b3 04 1f
        E 2 b3 04 1d
        E 2 b3 04 1c
        E 2 b3 04 1b
        E 2 b3 04 1a
        E 2 b3 04 18
        E 2 b3 04 17
        E 2 b3 04 16
        E 2 b3 04 15
        E 2 b3 04 13
        E 2 b3 04 12
        E 2 b3 04 11
        E 2 b3 04 10
        E 2 b3 04 0f
        E 2 b3 04 0e
        E 2 b3 04 0c
        E 2 b3 04 0b
        E 2 b3 04 0a
        E 2 b3 04 09
        E 2 b3 04 08
        E 2 b3 04 07
        E 2 b3 04 06
        E 2 b3 04 06
        E 2 b3 04 05
        E 2 b3 04 04
        E 2 b3 04 04
        E 2 b3 04 03
        E 2 b3 04 02
        E 2 b3 04 02
        E 2 b3 04 01
        E 2 b3 04 01
        E 2 b3 04 00
        E 2 b3 04 00
        E 2 b3 04 00
        E 2 b3 04 00
        E 2 b3 04 00
        E 2 b3 04 00
        E 2 b3 04 00
        E 2 b3 04 00
        E 2 b3 04 00
        E 2 b3 04 00
        E 2 b3 04 00
        E 2 b3 04 01
        E 2 b3 04 01
        E 2 b3 04 02
        E 2 b3 04 02
        E 2 b3 04 02
        E 2 b3 04 03
        E 2 b3 04 04
        E 2 b3 04 04
        E 2 b3 04 05
        E 2 b3 04 06
        E 2 b3 04 07
        E 2 b3 04 08
        E 2 b3 04 09
        E 2 b3 04 0a
        E 2 b3 04 0b
        E 2 b3 04 0c
        E 2 b3 04 0d
        E 2 b3 04 0e
        E 2 b3 04 0f
        E 2 b3 04 10
        E 2 b3 04 12
        E 2 b3 04 13
        E 2 b3 04 14
        E 2 b3 04 15
        E 2 b3 04 16
        E 2 b3 04 18
        E 2 b3 04 19
        E 19 b3 04 40
        E 19 b3 04 43
        E 19 b3 04 46
        E 19 b3 04 49
        E 19 b3 04 4c
        E 19 b3 04 4f
        E 19 b3 04 52
        E 19 b3 04 55
        E 19 b3 04 58
        E 19 b3 04 5b
        E 19 b3 04 5e
        E 19 b3 04 60
        E 19 b3 04 63
        E 19 b3 04 66
        E 19 b3 04 68
        E 19 b3 04 6a
        E 19 b3 04 6d
        E 19 b3 04 6f
        E 19 b3 04 71
        E 19 b3 04 73
        E 19 b3 04 75
        E 19 b3 04 76
        E 19 b3 04 78
        E 19 b3 04 79
        E 19 b3 04 7a
        E 19 b3 04 7b
        E 19 b3 04 7c
        E 19 b3 04 7d
        E 19 b3 04 7e
        E 19 b3 04 7e
        E 19 b3 04 7f
        E 19 b3 04 7f
        E 19 b3 04 7f
        E 19 b3 04 7f
        E 19 b3 04 7f
        E 19 b3 04 7e
        E 19 b3 04 7e
        E 19 b3 04 7d
        E 19 b3 04 7c
        E 19 b3 04 7b
        E 19 b3 04 7a
        E 19 b3 04 78
        E 19 b3 04 77
        E 19 b3 04 75
        E 19 b3 04 74
        E 19 b3 04 72
        E 19 b3 04 70
        E 19 b3 04 6e
        E 19 b3 04 6c
        E 19 b3 04 69
        E 19 b3 04 67
        E 19 b3 04 64
        E 19 b3 04 62
        E 19 b3 04 5f
        E 19 b3 04 5c
        E 19 b3 04 59
        E 19 b3 04 57
        E 19 b3 04 54
        E 19 b3 04 51
        E 19 b3 04 4e
        E 19 b3 04 4a
        E 19 b3 04 47
        E 19 b3 04 44
        E 19 b3 04 41
        E 19 b3 04 3e
        E 19 b3 04 3b
        E 19 b3 04 38
        E 19 b3 04 35
        E 19 b3 04 31
        E 19 b3 04 2e
        E 19 b3 04 2b
        E 19 b3 04 28
        E 19 b3 04 26
        E 19 b3 04 23
        E 19 b3 04 20
        E 19 b3 04 1d
        E 19 b3 04 1b
        E 19 b3 04 18
        E 19 b3 04 16
        E 19 b3 04 13
        E 19 b3 04 11
        E 19 b3 04 0f
        E 19 b3 04 0d
        E 19 b3 04 0b
        E 19 b3 04 0a
        E 19 b3 04 08
        E 19 b3 04 07
        E 19 b3 04 05
        E 19 b3 04 04
        E 19 b3 04 03
        E 19 b3 04 02
        E 19 b3 04 01
        E 19 b3 04 01
        E 19 b3 04 00
        E 19 b3 04 00
        E 19 b3 04 00
        E 19 b3 04 00
        E 19 b3 04 00
        E 19 b3 04 01
        E 19 b3 04 01
        E 19 b3 04 02
        E 19 b3 04 03
        E 19 b3 04 04
        E 19 b3 04 05
        E 19 b3 04 06
        E 19 b3 04 07
        E 19 b3 04 09
        E 19 b3 04 0a
        E 19 b3 04 0c
        E 19 b3 04 0e
        E 19 b3 04 10
        E 19 b3 04 12
        E 19 b3 04 15
        E 19 b3 04 17
        E 19 b3 04 19
        E 19 b3 04 1c
        E 19 b3 04 1f
        E 19 b3 04 21
        E 19 b3 04 24
        E 19 b3 04 27
        E 19 b3 04 2a
        E 19 b3 04 2d
        E 19 b3 04 30
        E 19 b3 04 33
        E 19 b3 04 36
        E 19 b3 04 39
        E 19 b3 04 3c
        E 19 b3 04 40
        E 4 b3 04 39
        E 4 b3 04 3c
        E 4 b3 04 3f
        E 4 b3 04 41
        E 4 b3 04 44
        E 4 b3 04 47
        E 4 b3 04 49
        E 4 b3 04 4c
        E 4 b3 04 4f
        E 4 b3 04 51
        E 4 b3 04 54
        E 4 b3 04 56
        E 4 b3 04 59
        E 4 b3 04 5b
        E 4 b3 04 5d
        E 4 b3 04 5f
        E 4 b3 04 62
        E 4 b3 04 63
        E 4 b3 04 65
        E 4 b3 04 67
        E 4 b3 04 69
        E 4 b3 04 6a
        E 4 b3 04 6c
        E 4 b3 04 6c
        E 4 b3 04 6d
        E 4 b3 04 6e
        E 4 b3 04 6f
        E 4 b3 04 70
        E 4 b3 04 71
        E 4 b3 04 71
        E 4 b3 04 72
        E 4 b3 04 72
        E 4 b3 04 72
        E 4 b3 04 72
        E 4 b3 04 72
        E 4 b3 04 71
        E 4 b3 04 71
        E 4 b3 04 70
        E 4 b3 04 6f
        E 4 b3 04 6e
        E 4 b3 04 6d
        E 4 b3 04 6c
        E 4 b3 04 6b
        E 4 b3 04 69
        E 4 b3 04 68
        E 4 b3 04 66
        E 4 b3 04 64
        E 4 b3 04 63
        E 4 b3 04 61
        E 4 b3 04 5e
        E 4 b3 04 5c
        E 4 b3 04 5a
        E 4 b3 04 58
        E 4 b3 04 55
        E 4 b3 04 52
        E 4 b3 04 50
        E 4 b3 04 4e
        E 4 b3 04 4b
        E 4 b3 04 48
        E 4 b3 04 46
        E 4 b3 04 42
        E 4 b3 04 3f
        E 4 b3 04 3d
        E 4 b3 04 3a
        E 4 b3 04 37
        E 4 b3 04 35
        E 4 b3 04 32
        E 4 b3 04 2f
        E 4 b3 04 2c
        E 4 b3 04 29
        E 4 b3 04 26
        E 4 b3 04 24
        E 4 b3 04 22
        E 4 b3 04 1f
        E 4 b3 04 1c
        E 4 b3 04 1a
        E 4 b3 04 18
        E 4 b3 04 15
        E 4 b3 04 13
        E 4 b3 04 11
        E 4 b3 04 0f
        E 4 b3 04 0d
        E 4 b3 04 0b
        E 4 b3 04 09
        E 4 b3 04 09
        E 4 b3 04 07
        E 4 b3 04 06
        E 4 b3 04 04
        E 4 b3 04 03
        E 4 b3 04 02
        E 4 b3 04 01
        E 4 b3 04 00
        E 4 b3 04 00
        E 4 b3 04 00
        E 4 b3 04 00
        E 4 b3 04 00
        E 4 b3 04 00
        E 4 b3 04 00
        E 4 b3 04 00
        E 4 b3 04 00
        E 4 b3 04 01
        E 4 b3 04 02
        E 4 b3 04 03
        E 4 b3 04 04
        E 4 b3 04 05
        E 4 b3 04 06
        E 4 b3 04 08
        E 4 b3 04 09
        E 4 b3 04 0a
        E 4 b3 04 0c
        E 4 b3 04 0e
        E 4 b3 04 10
        E 4 b3 04 12
        E 4 b3 04 14
        E 4 b3 04 16
        E 4 b3 04 19
        E 4 b3 04 1b
        E 4 b3 04 1d
        E 4 b3 04 20
        E 4 b3 04 23
        E 4 b3 04 25
        E 4 b3 04 28
        E 4 b3 04 2b
        E 4 b3 04 2d
        E 4 b3 04 30
        E 4 b3 04 33
        E 4 b3 04 36
        E 4 b3 04 39
        E 2 b3 04 26
        E 2 b3 04 28
        E 2 b3 04 2a
        E 2 b3 04 2b
        E 2 b3 04 2d
        E 2 b3 04 2f
        E 2 b3 04 31
        E 2 b3 04 33
        E 2 b3 04 34
        E 2 b3 04 36
        E 2 b3 04 38
        E 2 b3 04 39
        E 2 b3 04 3b
        E 2 b3 04 3d
        E 2 b3 04 3e
        E 2 b3 04 3f
        E 2 b3 04 41
        E 2 b3 04 42
        E 2 b3 04 43
        E 2 b3 04 45
        E 2 b3 04 46
        E 2 b3 04 46
        E 2 b3 04 48
        E 2 b3 04 48
        E 2 b3 04 49
        E 2 b3 04 49
        E 2 b3 04 4a
        E 2 b3 04 4b
        E 2 b3 04 4b
        E 2 b3 04 4b
        E 2 b3 04 4c
        E 2 b3 04 4c
        E 2 b3 04 4c
        E 2 b3 04 4c
        E 2 b3 04 4c
        E 2 b3 04 4b
        E 2 b3 04 4b
        E 2 b3 04 4b
        E 2 b3 04 4a
        E 2 b3 04 49
        E 2 b3 04 49
        E 2 b3 04 48
        E 2 b3 04 47
        E 2 b3 04 46
        E 2 b3 04 45
        E 2 b3 04 44
        E 2 b3 04 43
        E 2 b3 04 42
        E 2 b3 04 40
        E 2 b3 04 3f
        E 2 b3 04 3d
        E 2 b3 04 3c
        E 2 b3 04 3a
        E 2 b3 04 39
        E 2 b3 04 37
        E 2 b3 04 35
        E 2 b3 04 34
        E 2 b3 04 32
        E 2 b3 04 30
        E 2 b3 04 2e
        E 2 b3 04 2c
        E 2 b3 04 2a
        E 2 b3 04 28
        E 2 b3 04 27
        E 2 b3 04 25
        E 2 b3 04 23
        E 2 b3 04 21
        E 2 b3 04 1f
        E 2 b3 04 1d
        E 2 b3 04 1b
        E 2 b3 04 19
        E 2 b3 04 18
        E 2 b3 04 16
        E 2 b3 04 15
        E 2 b3 04 13
        E 2 b3 04 11
        E 2 b3 04 10
        E 2 b3 04 0e
        E 2 b3 04 0d
        E 2 b3 04 0b
        E 2 b3 04 0a
        E 2 b3 04 09
        E 2 b3 04 07
        E 2 b3 04 06
        E 2 b3 04 06
        E 2 b3 04 04
        E 2 b3 04 04
        E 2 b3 04 03
        E 2 b3 04 02
        E 2 b3 04 01
        E 2 b3 04 01
        E 2 b3 04 00
        E 2 b3 04 00
        E 2 b3 04 00
        E 2 b3 04 00
        E 2 b3 04 00
        E 2 b3 04 00
        E 2 b3 04 00
        E 2 b3 04 00
        E 2 b3 04 00
        E 2 b3 04 01
        E 2 b3 04 01
        E 2 b3 04 02
        E 2 b3 04 03
        E 2 b3 04 03
        E 2 b3 04 04
        E 2 b3 04 05
        E 2 b3 04 06
        E 2 b3 04 07
        E 2 b3 04 08
        E 2 b3 04 09
        E 2 b3 04 0a
        E 2 b3 04 0c
        E 2 b3 04 0d
        E 2 b3 04 0f
        E 2 b3 04 10
        E 2 b3 04 12
        E 2 b3 04 13
        E 2 b3 04 15
        E 2 b3 04 17
        E 2 b3 04 19
        E 2 b3 04 1b
        E 2 b3 04 1c
        E 2 b3 04 1e
        E 2 b3 04 20
        E 2 b3 04 22
        E 2 b3 04 24
        E 2 b3 04 26
        E 11 b3 04 0c
        E 11 b3 04 0d
        E 11 b3 04 0e
        E 11 b3 04 0e
        E 11 b3 04 0f
        E 11 b3 04 0f
        E 11 b3 04 10
        E 11 b3 04 11
        E 11 b3 04 11
        E 11 b3 04 12
        E 11 b3 04 12
        E 11 b3 04 13
        E 11 b3 04 13
        E 11 b3 04 14
        E 11 b3 04 14
        E 11 b3 04 15
        E 11 b3 04 15
        E 11 b3 04 16
        E 11 b3 04 16
        E 11 b3 04 17
        E 11 b3 04 17
        E 11 b3 04 17
        E 11 b3 04 18
        E 11 b3 04 18
        E 11 b3 04 18
        E 11 b3 04 18
        E 11 b3 04 18
        E 11 b3 04 19
        E 11 b3 04 19
        E 11 b3 04 19
        E 11 b3 04 19
        E 11 b3 04 19
        E 11 b3 04 19
        E 11 b3 04 19
        E 11 b3 04 19
        E 11 b3 04 19
        E 11 b3 04 19
        E 11 b3 04 19
        E 11 b3 04 18
        E 11 b3 04 18
        E 11 b3 04 18
        E 11 b3 04 18
        E 11 b3 04 17
        E 11 b3 04 17
        E 11 b3 04 17
        E 11 b3 04 16
        E 11 b3 04 16
        E 11 b3 04 16
        E 11 b3 04 15
        E 11 b3 04 15
        E 11 b3 04 14
        E 11 b3 04 14
        E 11 b3 04 13
        E 11 b3 04 13
        E 11 b3 04 12
        E 11 b3 04 11
        E 11 b3 04 11
        E 11 b3 04 10
        E 11 b3 04 10
        E 11 b3 04 0f
        E 11 b3 04 0e
        E 11 b3 04 0e
        E 11 b3 04 0d
        E 11 b3 04 0d
        E 11 b3 04 0c
        E 11 b3 04 0b
        E 11 b3 04 0b
        E 11 b3 04 0a
        E 11 b3 04 09
        E 11 b3 04 09
        E 11 b3 04 08
        E 11 b3 04 08
        E 11 b3 04 07
        E 11 b3 04 07
        E 11 b3 04 06
        E 11 b3 04 05
        E 11 b3 04 05
        E 11 b3 04 04
        E 11 b3 04 04
        E 11 b3 04 03
        E 11 b3 04 03
        E 11 b3 04 03
        E 11 b3 04 02
        E 11 b3 04 02
        E 11 b3 04 02
        E 11 b3 04 01
        E 11 b3 04 01
        E 11 b3 04 01
        E 11 b3 04 00
        E 11 b3 04 00
        E 11 b3 04 00
        E 11 b3 04 00
        E 11 b3 04 00
        E 11 b3 04 00
        E 11 b3 04 00
        E 11 b3 04 00
        E 11 b3 04 00
        E 11 b3 04 00
        E 11 b3 04 00
        E 11 b3 04 00
        E 11 b3 04 00
        E 11 b3 04 00
        E 11 b3 04 00
        E 11 b3 04 01
        E 11 b3 04 01
        E 11 b3 04 01
        E 11 b3 04 01
        E 11 b3 04 02
        E 11 b3 04 02
        E 11 b3 04 02
        E 11 b3 04 03
        E 11 b3 04 03
        E 11 b3 04 04
        E 11 b3 04 04
        E 11 b3 04 05
        E 11 b3 04 05
        E 11 b3 04 06
        E 11 b3 04 06
        E 11 b3 04 07
        E 11 b3 04 07
        E 11 b3 04 08
        E 11 b3 04 09
        E 11 b3 04 09
        E 11 b3 04 0a
        E 11 b3 04 0a
        E 11 b3 04 0b
        E 11 b3 04 0c
        E 11 b3 04 0c
        E 8 b3 04 2c
        E 8 b3 04 2e
        E 8 b3 04 31
        E 8 b3 04 33
        E 8 b3 04 35
        E 8 b3 04 37
        E 8 b3 04 39
        E 8 b3 04 3b
        E 8 b3 04 3d
        E 8 b3 04 3f
        E 8 b3 04 41
        E 8 b3 04 43
        E 8 b3 04 45
        E 8 b3 04 47
        E 8 b3 04 48
        E 8 b3 04 4a
        E 8 b3 04 4c
        E 8 b3 04 4d
        E 8 b3 04 4f
        E 8 b3 04 50
        E 8 b3 04 51
        E 8 b3 04 52
        E 8 b3 04 54
        E 8 b3 04 54
        E 8 b3 04 55
        E 8 b3 04 56
        E 8 b3 04 56
        E 8 b3 04 57
        E 8 b3 04 58
        E 8 b3 04 58
        E 8 b3 04 58
        E 8 b3 04 58
        E 8 b3 04 58
        E 8 b3 04 58
        E 8 b3 04 58
        E 8 b3 04 58
        E 8 b3 04 58
        E 8 b3 04 57
        E 8 b3 04 56
        E 8 b3 04 56
        E 8 b3 04 55
        E 8 b3 04 54
        E 8 b3 04 53
        E 8 b3 04 51
        E 8 b3 04 51
        E 8 b3 04 4f
        E 8 b3 04 4e
        E 8 b3 04 4d
        E 8 b3 04 4b
        E 8 b3 04 49
        E 8 b3 04 48
        E 8 b3 04 46
        E 8 b3 04 44
        E 8 b3 04 42
        E 8 b3 04 40
        E 8 b3 04 3e
        E 8 b3 04 3c
        E 8 b3 04 3a
        E 8 b3 04 38
        E 8 b3 04 36
        E 8 b3 04 33
        E 8 b3 04 31
        E 8 b3 04 2f
        E 8 b3 04 2d
        E 8 b3 04 2b
        E 8 b3 04 29
        E 8 b3 04 27
        E 8 b3 04 25
        E 8 b3 04 22
        E 8 b3 04 20
        E 8 b3 04 1e
        E 8 b3 04 1c
        E 8 b3 04 1a
        E 8 b3 04 18
        E 8 b3 04 16
        E 8 b3 04 14
        E 8 b3 04 12
        E 8 b3 04 10
        E 8 b3 04 0f
        E 8 b3 04 0d
        E 8 b3 04 0b
        E 8 b3 04 0a
        E 8 b3 04 09
        E 8 b3 04 07
        E 8 b3 04 07
        E 8 b3 04 05
        E 8 b3 04 04
        E 8 b3 04 03
        E 8 b3 04 02
        E 8 b3 04 02
        E 8 b3 04 01
        E 8 b3 04 00
        E 8 b3 04 00
        E 8 b3 04 00
        E 8 b3 04 00
        E 8 b3 04 00
        E 8 b3 04 00
        E 8 b3 04 00
        E 8 b3 04 00
        E 8 b3 04 00
        E 8 b3 04 01
        E 8 b3 04 02
        E 8 b3 04 02
        E 8 b3 04 03
        E 8 b3 04 04
        E 8 b3 04 04
        E 8 b3 04 06
        E 8 b3 04 07
        E 8 b3 04 08
        E 8 b3 04 09
        E 8 b3 04 0b
        E 8 b3 04 0c
        E 8 b3 04 0e
        E 8 b3 04 10
        E 8 b3 04 11
        E 8 b3 04 13
        E 8 b3 04 15
        E 8 b3 04 17
        E 8 b3 04 19
        E 8 b3 04 1b
        E 8 b3 04 1d
        E 8 b3 04 1f
        E 8 b3 04 21
        E 8 b3 04 23
        E 8 b3 04 25
        E 8 b3 04 27
        E 8 b3 04 2a
        E 8 b3 04 2c
        E 48 b0 7b 00
        CCINTERP 32
        CHASE_CC_TAKEOFFS 1
        GUID {9AA0EC64-5A97-3044-B5C3-F810383CB7A7}
        IGNTEMPO 0 120 4 4
        SRCCOLOR 413
        VELLANE 3 601 0
        VELLANE -1 196 0
      >
    >
  >
  <TRACK {A30B7C5C-8B60-B240-96FC-9C0F091EEF32}
    NAME "xbox 360 portal 2 video game disc"
    PEAKCOL 16576
    BEAT -1
    AUTOMODE 0
    VOLPAN 1 0 -1 -1 1
    MUTESOLO 0 0 0
    IPHASE 0
    PLAYOFFS 0 1
    ISBUS 0 0
    BUSCOMP 0 0 0 0 0
    SHOWINMIX 1 0.6667 0.5 1 0.5 0 -1 0
    FREEMODE 0
    SEL 0
    REC 0 0 1 0 0 0 0
    VU 2
    TRACKHEIGHT 0 1 0 0 -1 0
    INQ 0 0 0 0.5 100 0 0 100
    NCHAN 2
    FX 1
    TRACKID {A30B7C5C-8B60-B240-96FC-9C0F091EEF32}
    PERF 0
    MIDIOUT -1
    MAINSEND 1 0
    <ITEM
      POSITION 0
      SNAPOFFS 0
      LENGTH 1108.33289
      LOOP 1
      ALLTAKES 0
      FADEIN 1 0 0 1 0 0
      FADEOUT 1 0 0 1 0 0
      MUTE 0 0
      SEL 0
      IGUID {7CE224C0-FF19-AF42-BA03-298B347F4017}
      IID 17
      NAME "xbox 360 portal 2 video game disc.mid"
      VOLPAN 1 0 1 -1
      SOFFS 0 0
      PLAYRATE 1 1 0 -1 0 0.0025
      CHANMODE 0
      GUID {192D4E19-1019-9042-BCE4-0B6C711293A9}
      <SOURCE MIDI
        HASDATA 1 128 QN
        CCINTERP 32
        POOLEDEVTS {55EB553C-4AC6-9547-B634-7BF47F516E11}
        E 53 b4 04 0c
        E 53 b4 04 0d
        E 53 b4 04 0e
        E 53 b4 04 0e
        E 53 b4 04 0f
        E 53 b4 04 0f
        E 53 b4 04 10
        E 53 b4 04 11
        E 53 b4 04 11
        E 53 b4 04 12
        E 53 b4 04 12
        E 53 b4 04 13
        E 53 b4 04 13
        E 53 b4 04 14
        E 53 b4 04 14
        E 53 b4 04 15
        E 53 b4 04 15
        E 53 b4 04 16
        E 53 b4 04 16
        E 53 b4 04 17
        E 53 b4 04 17
        E 53 b4 04 17
        E 53 b4 04 18
        E 53 b4 04 18
        E 53 b4 04 18
        E 53 b4 04 18
        E 53 b4 04 18
        E 53 b4 04 19
        E 53 b4 04 19
        E 53 b4 04 19
        E 53 b4 04 19
        E 53 b4 04 19
        E 53 b4 04 19
        E 53 b4 04 19
        E 53 b4 04 19
        E 53 b4 04 19
        E 53 b4 04 19
        E 53 b4 04 19
        E 53 b4 04 18
        E 53 b4 04 18
        E 53 b4 04 18
        E 53 b4 04 18
        E 53 b4 04 17
        E 53 b4 04 17
        E 53 b4 04 17
        E 53 b4 04 16
        E 53 b4 04 16
        E 53 b4 04 16
        E 53 b4 04 15
        E 53 b4 04 15
        E 53 b4 04 14
        E 53 b4 04 14
        E 53 b4 04 13
        E 53 b4 04 13
        E 53 b4 04 12
        E 53 b4 04 11
        E 53 b4 04 11
        E 53 b4 04 10
        E 53 b4 04 10
        E 53 b4 04 0f
        E 53 b4 04 0e
        E 53 b4 04 0e
        E 53 b4 04 0d
        E 53 b4 04 0d
        E 53 b4 04 0c
        E 53 b4 04 0b
        E 53 b4 04 0b
        E 53 b4 04 0a
        E 53 b4 04 09
        E 53 b4 04 09
        E 53 b4 04 08
        E 53 b4 04 08
        E 53 b4 04 07
        E 53 b4 04 07
        E 53 b4 04 06
        E 53 b4 04 05
        E 53 b4 04 05
        E 53 b4 04 04
        E 53 b4 04 04
        E 53 b4 04 03
        E 53 b4 04 03
        E 53 b4 04 03
        E 53 b4 04 02
        E 53 b4 04 02
        E 53 b4 04 02
        E 53 b4 04 01
        E 53 b4 04 01
        E 53 b4 04 01
        E 53 b4 04 00
        E 53 b4 04 00
        E 53 b4 04 00
        E 53 b4 04 00
        E 53 b4 04 00
        E 53 b4 04 00
        E 53 b4 04 00
        E 53 b4 04 00
        E 53 b4 04 00
        E 53 b4 04 00
        E 53 b4 04 00
        E 53 b4 04 00
        E 53 b4 04 00
        E 53 b4 04 00
        E 53 b4 04 00
        E 53 b4 04 01
        E 53 b4 04 01
        E 53 b4 04 01
        E 53 b4 04 01
        E 53 b4 04 02
        E 53 b4 04 02
        E 53 b4 04 02
        E 53 b4 04 03
        E 53 b4 04 03
        E 53 b4 04 04
        E 53 b4 04 04
        E 53 b4 04 05
        E 53 b4 04 05
        E 53 b4 04 06
        E 53 b4 04 06
        E 53 b4 04 07
        E 53 b4 04 07
        E 53 b4 04 08
        E 53 b4 04 09
        E 53 b4 04 09
        E 53 b4 04 0a
        E 53 b4 04 0a
        E 53 b4 04 0b
        E 53 b4 04 0c
        E 53 b4 04 0c
        E 17 b4 04 06
        E 17 b4 04 06
        E 17 b4 04 07
        E 17 b4 04 07
        E 17 b4 04 07
        E 17 b4 04 07
        E 17 b4 04 08
        E 17 b4 04 08
        E 17 b4 04 08
        E 17 b4 04 09
        E 17 b4 04 09
        E 17 b4 04 09
        E 17 b4 04 09
        E 17 b4 04 0a
        E 17 b4 04 0a
        E 17 b4 04 0a
        E 17 b4 04 0a
        E 17 b4 04 0b
        E 17 b4 04 0b
        E 17 b4 04 0b
        E 17 b4 04 0b
        E 17 b4 04 0b
        E 17 b4 04 0c
        E 17 b4 04 0c
        E 17 b4 04 0c
        E 17 b4 04 0c
        E 17 b4 04 0c
        E 17 b4 04 0c
        E 17 b4 04 0c
        E 17 b4 04 0c
        E 17 b4 04 0c
        E 17 b4 04 0c
        E 17 b4 04 0c
        E 17 b4 04 0c
        E 17 b4 04 0c
        E 17 b4 04 0c
        E 17 b4 04 0c
        E 17 b4 04 0c
        E 17 b4 04 0c
        E 17 b4 04 0c
        E 17 b4 04 0c
        E 17 b4 04 0c
        E 17 b4 04 0b
        E 17 b4 04 0b
        E 17 b4 04 0b
        E 17 b4 04 0b
        E 17 b4 04 0b
        E 17 b4 04 0b
        E 17 b4 04 0a
        E 17 b4 04 0a
        E 17 b4 04 0a
        E 17 b4 04 0a
        E 17 b4 04 09
        E 17 b4 04 09
        E 17 b4 04 09
        E 17 b4 04 08
        E 17 b4 04 08
        E 17 b4 04 08
        E 17 b4 04 08
        E 17 b4 04 07
        E 17 b4 04 07
        E 17 b4 04 07
        E 17 b4 04 06
        E 17 b4 04 06
        E 17 b4 04 06
        E 17 b4 04 05
        E 17 b4 04 05
        E 17 b4 04 05
        E 17 b4 04 04
        E 17 b4 04 04
        E 17 b4 04 04
        E 17 b4 04 04
        E 17 b4 04 03
        E 17 b4 04 03
        E 17 b4 04 03
        E 17 b4 04 02
        E 17 b4 04 02
        E 17 b4 04 02
        E 17 b4 04 02
        E 17 b4 04 01
        E 17 b4 04 01
        E 17 b4 04 01
        E 17 b4 04 01
        E 17 b4 04 01
        E 17 b4 04 01
        E 17 b4 04 00
        E 17 b4 04 00
        E 17 b4 04 00
        E 17 b4 04 00
        E 17 b4 04 00
        E 17 b4 04 00
        E 17 b4 04 00
        E 17 b4 04 00
        E 17 b4 04 00
        E 17 b4 04 00
        E 17 b4 04 00
        E 17 b4 04 00
        E 17 b4 04 00
        E 17 b4 04 00
        E 17 b4 04 00
        E 17 b4 04 00
        E 17 b4 04 00
        E 17 b4 04 00
        E 17 b4 04 00
        E 17 b4 04 00
        E 17 b4 04 00
        E 17 b4 04 00
        E 17 b4 04 01
        E 17 b4 04 01
        E 17 b4 04 01
        E 17 b4 04 01
        E 17 b4 04 01
        E 17 b4 04 02
        E 17 b4 04 02
        E 17 b4 04 02
        E 17 b4 04 02
        E 17 b4 04 03
        E 17 b4 04 03
        E 17 b4 04 03
        E 17 b4 04 03
        E 17 b4 04 04
        E 17 b4 04 04
        E 17 b4 04 04
        E 17 b4 04 05
        E 17 b4 04 05
        E 17 b4 04 05
        E 17 b4 04 06
        E 17 b4 04 06
        E 62 b4 04 20
        E 62 b4 04 21
        E 62 b4 04 23
        E 62 b4 04 24
        E 62 b4 04 26
        E 62 b4 04 27
        E 62 b4 04 29
        E 62 b4 04 2a
        E 62 b4 04 2c
        E 62 b4 04 2d
        E 62 b4 04 2f
        E 62 b4 04 30
        E 62 b4 04 31
        E 62 b4 04 33
        E 62 b4 04 34
        E 62 b4 04 35
        E 62 b4 04 36
        E 62 b4 04 37
        E 62 b4 04 38
        E 62 b4 04 39
        E 62 b4 04 3a
        E 62 b4 04 3b
        E 62 b4 04 3c
        E 62 b4 04 3c
        E 62 b4 04 3d
        E 62 b4 04 3d
        E 62 b4 04 3e
        E 62 b4 04 3e
        E 62 b4 04 3f
        E 62 b4 04 3f
        E 62 b4 04 3f
        E 62 b4 04 3f
        E 62 b4 04 3f
        E 62 b4 04 3f
        E 62 b4 04 3f
        E 62 b4 04 3f
        E 62 b4 04 3f
        E 62 b4 04 3e
        E 62 b4 04 3e
        E 62 b4 04 3d
        E 62 b4 04 3d
        E 62 b4 04 3c
        E 62 b4 04 3b
        E 62 b4 04 3a
        E 62 b4 04 3a
        E 62 b4 04 39
        E 62 b4 04 38
        E 62 b4 04 37
        E 62 b4 04 36
        E 62 b4 04 34
        E 62 b4 04 33
        E 62 b4 04 32
        E 62 b4 04 31
        E 62 b4 04 2f
        E 62 b4 04 2e
        E 62 b4 04 2c
        E 62 b4 04 2b
        E 62 b4 04 2a
        E 62 b4 04 28
        E 62 b4 04 27
        E 62 b4 04 25
        E 62 b4 04 23
        E 62 b4 04 22
        E 62 b4 04 20
        E 62 b4 04 1f
        E 62 b4 04 1d
        E 62 b4 04 1c
        E 62 b4 04 1a
        E 62 b4 04 18
        E 62 b4 04 17
        E 62 b4 04 15
        E 62 b4 04 14
        E 62 b4 04 13
        E 62 b4 04 11
        E 62 b4 04 10
        E 62 b4 04 0e
        E 62 b4 04 0d
        E 62 b4 04 0c
        E 62 b4 04 0b
        E 62 b4 04 09
        E 62 b4 04 08
        E 62 b4 04 07
        E 62 b4 04 06
        E 62 b4 04 05
        E 62 b4 04 05
        E 62 b4 04 04
        E 62 b4 04 03
        E 62 b4 04 02
        E 62 b4 04 02
        E 62 b4 04 01
        E 62 b4 04 01
        E 62 b4 04 00
        E 62 b4 04 00
        E 62 b4 04 00
        E 62 b4 04 00
        E 62 b4 04 00
        E 62 b4 04 00
        E 62 b4 04 00
        E 62 b4 04 00
        E 62 b4 04 00
        E 62 b4 04 01
        E 62 b4 04 01
        E 62 b4 04 02
        E 62 b4 04 02
        E 62 b4 04 03
        E 62 b4 04 03
        E 62 b4 04 04
        E 62 b4 04 05
        E 62 b4 04 06
        E 62 b4 04 07
        E 62 b4 04 08
        E 62 b4 04 09
        E 62 b4 04 0a
        E 62 b4 04 0b
        E 62 b4 04 0c
        E 62 b4 04 0e
        E 62 b4 04 0f
        E 62 b4 04 10
        E 62 b4 04 12
        E 62 b4 04 13
        E 62 b4 04 15
        E 62 b4 04 16
        E 62 b4 04 18
        E 62 b4 04 19
        E 62 b4 04 1b
        E 62 b4 04 1c
        E 62 b4 04 1e
        E 62 b4 04 20
        E 35 b4 04 19
        E 35 b4 04 1a
        E 35 b4 04 1c
        E 35 b4 04 1d
        E 35 b4 04 1e
        E 35 b4 04 1f
        E 35 b4 04 20
        E 35 b4 04 22
        E 35 b4 04 23
        E 35 b4 04 24
        E 35 b4 04 25
        E 35 b4 04 26
        E 35 b4 04 27
        E 35 b4 04 28
        E 35 b4 04 29
        E 35 b4 04 2a
        E 35 b4 04 2b
        E 35 b4 04 2c
        E 35 b4 04 2d
        E 35 b4 04 2e
        E 35 b4 04 2e
        E 35 b4 04 2f
        E 35 b4 04 30
        E 35 b4 04 30
        E 35 b4 04 30
        E 35 b4 04 31
        E 35 b4 04 31
        E 35 b4 04 32
        E 35 b4 04 32
        E 35 b4 04 32
        E 35 b4 04 32
        E 35 b4 04 32
        E 35 b4 04 32
        E 35 b4 04 32
        E 35 b4 04 32
        E 35 b4 04 32
        E 35 b4 04 32
        E 35 b4 04 32
        E 35 b4 04 31
        E 35 b4 04 31
        E 35 b4 04 30
        E 35 b4 04 30
        E 35 b4 04 2f
        E 35 b4 04 2e
        E 35 b4 04 2e
        E 35 b4 04 2d
        E 35 b4 04 2c
        E 35 b4 04 2c
        E 35 b4 04 2b
        E 35 b4 04 2a
        E 35 b4 04 29
        E 35 b4 04 28
        E 35 b4 04 27
        E 35 b4 04 26
        E 35 b4 04 24
        E 35 b4 04 23
        E 35 b4 04 22
        E 35 b4 04 21
        E 35 b4 04 20
        E 35 b4 04 1f
        E 35 b4 04 1d
        E 35 b4 04 1c
        E 35 b4 04 1b
        E 35 b4 04 1a
        E 35 b4 04 18
        E 35 b4 04 17
        E 35 b4 04 16
        E 35 b4 04 15
        E 35 b4 04 13
        E 35 b4 04 12
        E 35 b4 04 11
        E 35 b4 04 10
        E 35 b4 04 0f
        E 35 b4 04 0e
        E 35 b4 04 0c
        E 35 b4 04 0b
        E 35 b4 04 0a
        E 35 b4 04 09
        E 35 b4 04 08
        E 35 b4 04 07
        E 35 b4 04 06
        E 35 b4 04 06
        E 35 b4 04 05
        E 35 b4 04 04
        E 35 b4 04 04
        E 35 b4 04 03
        E 35 b4 04 02
        E 35 b4 04 02
        E 35 b4 04 01
        E 35 b4 04 01
        E 35 b4 04 00
        E 35 b4 04 00
        E 35 b4 04 00
        E 35 b4 04 00
        E 35 b4 04 00
        E 35 b4 04 00
        E 35 b4 04 00
        E 35 b4 04 00
        E 35 b4 04 00
        E 35 b4 04 00
        E 35 b4 04 00
        E 35 b4 04 01
        E 35 b4 04 01
        E 35 b4 04 02
        E 35 b4 04 02
        E 35 b4 04 02
        E 35 b4 04 03
        E 35 b4 04 04
        E 35 b4 04 04
        E 35 b4 04 05
        E 35 b4 04 06
        E 35 b4 04 07
        E 35 b4 04 08
        E 35 b4 04 09
        E 35 b4 04 0a
        E 35 b4 04 0b
        E 35 b4 04 0c
        E 35 b4 04 0d
        E 35 b4 04 0e
        E 35 b4 04 0f
        E 35 b4 04 10
        E 35 b4 04 12
        E 35 b4 04 13
        E 35 b4 04 14
        E 35 b4 04 15
        E 35 b4 04 16
        E 35 b4 04 18
        E 35 b4 04 19
        E 89 b4 04 06
        E 89 b4 04 06
        E 89 b4 04 07
        E 89 b4 04 07
        E 89 b4 04 07
        E 89 b4 04 07
        E 89 b4 04 08
        E 89 b4 04 08
        E 89 b4 04 08
        E 89 b4 04 09
        E 89 b4 04 09
        E 89 b4 04 09
        E 89 b4 04 09
        E 89 b4 04 0a
        E 89 b4 04 0a
        E 89 b4 04 0a
        E 89 b4 04 0a
        E 89 b4 04 0b
        E 89 b4 04 0b
        E 89 b4 04 0b
        E 89 b4 04 0b
        E 89 b4 04 0b
        E 89 b4 04 0c
        E 89 b4 04 0c
        E 89 b4 04 0c
        E 89 b4 04 0c
        E 89 b4 04 0c
        E 89 b4 04 0c
        E 89 b4 04 0c
        E 89 b4 04 0c
        E 89 b4 04 0c
        E 89 b4 04 0c
        E 89 b4 04 0c
        E 89 b4 04 0c
        E 89 b4 04 0c
        E 89 b4 04 0c
        E 89 b4 04 0c
        E 89 b4 04 0c
        E 89 b4 04 0c
        E 89 b4 04 0c
        E 89 b4 04 0c
        E 89 b4 04 0c
        E 89 b4 04 0b
        E 89 b4 04 0b
        E 89 b4 04 0b
        E 89 b4 04 0b
        E 89 b4 04 0b
        E 89 b4 04 0b
        E 89 b4 04 0a
        E 89 b4 04 0a
        E 89 b4 04 0a
        E 89 b4 04 0a
        E 89 b4 04 09
        E 89 b4 04 09
        E 89 b4 04 09
        E 89 b4 04 08
        E 89 b4 04 08
        E 89 b4 04 08
        E 89 b4 04 08
        E 89 b4 04 07
        E 89 b4 04 07
        E 89 b4 04 07
        E 89 b4 04 06
        E 89 b4 04 06
        E 89 b4 04 06
        E 89 b4 04 05
        E 89 b4 04 05
        E 89 b4 04 05
        E 89 b4 04 04
        E 89 b4 04 04
        E 89 b4 04 04
        E 89 b4 04 04
        E 89 b4 04 03
        E 89 b4 04 03
        E 89 b4 04 03
        E 89 b4 04 02
        E 89 b4 04 02
        E 89 b4 04 02
        E 89 b4 04 02
        E 89 b4 04 01
        E 89 b4 04 01
        E 89 b4 04 01
        E 89 b4 04 01
        E 89 b4 04 01
        E 89 b4 04 01
        E 89 b4 04 00
        E 89 b4 04 00
        E 89 b4 04 00
        E 89 b4 04 00
        E 89 b4 04 00
        E 89 b4 04 00
        E 89 b4 04 00
        E 89 b4 04 00
        E 89 b4 04 00
        E 89 b4 04 00
        E 89 b4 04 00
        E 89 b4 04 00
        E 89 b4 04 00
        E 89 b4 04 00
        E 89 b4 04 00
        E 89 b4 04 00
        E 89 b4 04 00
        E 89 b4 04 00
        E 89 b4 04 00
        E 89 b4 04 00
        E 89 b4 04 00
        E 89 b4 04 00
        E 89 b4 04 01
        E 89 b4 04 01
        E 89 b4 04 01
        E 89 b4 04 01
        E 89 b4 04 01
        E 89 b4 04 02
        E 89 b4 04 02
        E 89 b4 04 02
        E 89 b4 04 02
        E 89 b4 04 03
        E 89 b4 04 03
        E 89 b4 04 03
        E 89 b4 04 03
        E 89 b4 04 04
        E 89 b4 04 04
        E 89 b4 04 04
        E 89 b4 04 05
        E 89 b4 04 05
        E 89 b4 04 05
        E 89 b4 04 06
        E 89 b4 04 06
        E 80 b4 04 39
        E 80 b4 04 3c
        E 80 b4 04 3f
        E 80 b4 04 41
        E 80 b4 04 44
        E 80 b4 04 47
        E 80 b4 04 49
        E 80 b4 04 4c
        E 80 b4 04 4f
        E 80 b4 04 51
        E 80 b4 04 54
        E 80 b4 04 56
        E 80 b4 04 59
        E 80 b4 04 5b
        E 80 b4 04 5d
        E 80 b4 04 5f
        E 80 b4 04 62
        E 80 b4 04 63
        E 80 b4 04 65
        E 80 b4 04 67
        E 80 b4 04 69
        E 80 b4 04 6a
        E 80 b4 04 6c
        E 80 b4 04 6c
        E 80 b4 04 6d
        E 80 b4 04 6e
        E 80 b4 04 6f
        E 80 b4 04 70
        E 80 b4 04 71
        E 80 b4 04 71
        E 80 b4 04 72
        E 80 b4 04 72
        E 80 b4 04 72
        E 80 b4 04 72
        E 80 b4 04 72
        E 80 b4 04 71
        E 80 b4 04 71
        E 80 b4 04 70
        E 80 b4 04 6f
        E 80 b4 04 6e
        E 80 b4 04 6d
        E 80 b4 04 6c
        E 80 b4 04 6b
        E 80 b4 04 69
        E 80 b4 04 68
        E 80 b4 04 66
        E 80 b4 04 64
        E 80 b4 04 63
        E 80 b4 04 61
        E 80 b4 04 5e
        E 80 b4 04 5c
        E 80 b4 04 5a
        E 80 b4 04 58
        E 80 b4 04 55
        E 80 b4 04 52
        E 80 b4 04 50
        E 80 b4 04 4e
        E 80 b4 04 4b
        E 80 b4 04 48
        E 80 b4 04 46
        E 80 b4 04 42
        E 80 b4 04 3f
        E 80 b4 04 3d
        E 80 b4 04 3a
        E 80 b4 04 37
        E 80 b4 04 35
        E 80 b4 04 32
        E 80 b4 04 2f
        E 80 b4 04 2c
        E 80 b4 04 29
        E 80 b4 04 26
        E 80 b4 04 24
        E 80 b4 04 22
        E 80 b4 04 1f
        E 80 b4 04 1c
        E 80 b4 04 1a
        E 80 b4 04 18
        E 80 b4 04 15
        E 80 b4 04 13
        E 80 b4 04 11
        E 80 b4 04 0f
        E 80 b4 04 0d
        E 80 b4 04 0b
        E 80 b4 04 09
        E 80 b4 04 09
        E 80 b4 04 07
        E 80 b4 04 06
        E 80 b4 04 04
        E 80 b4 04 03
        E 80 b4 04 02
        E 80 b4 04 01
        E 80 b4 04 00
        E 80 b4 04 00
        E 80 b4 04 00
        E 80 b4 04 00
        E 80 b4 04 00
        E 80 b4 04 00
        E 80 b4 04 00
        E 80 b4 04 00
        E 80 b4 04 00
        E 80 b4 04 01
        E 80 b4 04 02
        E 80 b4 04 03
        E 80 b4 04 04
        E 80 b4 04 05
        E 80 b4 04 06
        E 80 b4 04 08
        E 80 b4 04 09
        E 80 b4 04 0a
        E 80 b4 04 0c
        E 80 b4 04 0e
        E 80 b4 04 10
        E 80 b4 04 12
        E 80 b4 04 14
        E 80 b4 04 16
        E 80 b4 04 19
        E 80 b4 04 1b
        E 80 b4 04 1d
        E 80 b4 04 20
        E 80 b4 04 23
        E 80 b4 04 25
        E 80 b4 04 28
        E 80 b4 04 2b
        E 80 b4 04 2d
        E 80 b4 04 30
        E 80 b4 04 33
        E 80 b4 04 36
        E 80 b4 04 39
        E 53 b4 04 0c
        E 53 b4 04 0d
        E 53 b4 04 0e
        E 53 b4 04 0e
        E 53 b4 04 0f
        E 53 b4 04 0f
        E 53 b4 04 10
        E 53 b4 04 11
        E 53 b4 04 11
        E 53 b4 04 12
        E 53 b4 04 12
        E 53 b4 04 13
        E 53 b4 04 13
        E 53 b4 04 14
        E 53 b4 04 14
        E 53 b4 04 15
        E 53 b4 04 15
        E 53 b4 04 16
        E 53 b4 04 16
        E 53 b4 04 17
        E 53 b4 04 17
        E 53 b4 04 17
        E 53 b4 04 18
        E 53 b4 04 18
        E 53 b4 04 18
        E 53 b4 04 18
        E 53 b4 04 18
        E 53 b4 04 19
        E 53 b4 04 19
        E 53 b4 04 19
        E 53 b4 04 19
        E 53 b4 04 19
        E 53 b4 04 19
        E 53 b4 04 19
        E 53 b4 04 19
        E 53 b4 04 19
        E 53 b4 04 19
        E 53 b4 04 19
        E 53 b4 04 18
        E 53 b4 04 18
        E 53 b4 04 18
        E 53 b4 04 18
        E 53 b4 04 17
        E 53 b4 04 17
        E 53 b4 04 17
        E 53 b4 04 16
        E 53 b4 04 16
        E 53 b4 04 16
        E 53 b4 04 15
        E 53 b4 04 15
        E 53 b4 04 14
        E 53 b4 04 14
        E 53 b4 04 13
        E 53 b4 04 13
        E 53 b4 04 12
        E 53 b4 04 11
        E 53 b4 04 11
        E 53 b4 04 10
        E 53 b4 04 10
        E 53 b4 04 0f
        E 53 b4 04 0e
        E 53 b4 04 0e
        E 53 b4 04 0d
        E 53 b4 04 0d
        E 53 b4 04 0c
        E 53 b4 04 0b
        E 53 b4 04 0b
        E 53 b4 04 0a
        E 53 b4 04 09
        E 53 b4 04 09
        E 53 b4 04 08
        E 53 b4 04 08
        E 53 b4 04 07
        E 53 b4 04 07
        E 53 b4 04 06
        E 53 b4 04 05
        E 53 b4 04 05
        E 53 b4 04 04
        E 53 b4 04 04
        E 53 b4 04 03
        E 53 b4 04 03
        E 53 b4 04 03
        E 53 b4 04 02
        E 53 b4 04 02
        E 53 b4 04 02
        E 53 b4 04 01
        E 53 b4 04 01
        E 53 b4 04 01
        E 53 b4 04 00
        E 53 b4 04 00
        E 53 b4 04 00
        E 53 b4 04 00
        E 53 b4 04 00
        E 53 b4 04 00
        E 53 b4 04 00
        E 53 b4 04 00
        E 53 b4 04 00
        E 53 b4 04 00
        E 53 b4 04 00
        E 53 b4 04 00
        E 53 b4 04 00
        E 53 b4 04 00
        E 53 b4 04 00
        E 53 b4 04 01
        E 53 b4 04 01
        E 53 b4 04 01
        E 53 b4 04 01
        E 53 b4 04 02
        E 53 b4 04 02
        E 53 b4 04 02
        E 53 b4 04 03
        E 53 b4 04 03
        E 53 b4 04 04
        E 53 b4 04 04
        E 53 b4 04 05
        E 53 b4 04 05
        E 53 b4 04 06
        E 53 b4 04 06
        E 53 b4 04 07
        E 53 b4 04 07
        E 53 b4 04 08
        E 53 b4 04 09
        E 53 b4 04 09
        E 53 b4 04 0a
        E 53 b4 04 0a
        E 53 b4 04 0b
        E 53 b4 04 0c
        E 53 b4 04 0c
        E 17 b4 04 06
        E 17 b4 04 06
        E 17 b4 04 07
        E 17 b4 04 07
        E 17 b4 04 07
        E 17 b4 04 07
        E 17 b4 04 08
        E 17 b4 04 08
        E 17 b4 04 08
        E 17 b4 04 09
        E 17 b4 04 09
        E 17 b4 04 09
        E 17 b4 04 09
        E 17 b4 04 0a
        E 17 b4 04 0a
        E 17 b4 04 0a
        E 17 b4 04 0a
        E 17 b4 04 0b
        E 17 b4 04 0b
        E 17 b4 04 0b
        E 17 b4 04 0b
        E 17 b4 04 0b
        E 17 b4 04 0c
        E 17 b4 04 0c
        E 17 b4 04 0c
        E 17 b4 04 0c
        E 17 b4 04 0c
        E 17 b4 04 0c
        E 17 b4 04 0c
        E 17 b4 04 0c
        E 17 b4 04 0c
        E 17 b4 04 0c
        E 17 b4 04 0c
        E 17 b4 04 0c
        E 17 b4 04 0c
        E 17 b4 04 0c
        E 17 b4 04 0c
        E 17 b4 04 0c
        E 17 b4 04 0c
        E 17 b4 04 0c
        E 17 b4 04 0c
        E 17 b4 04 0c
        E 17 b4 04 0b
        E 17 b4 04 0b
        E 17 b4 04 0b
        E 17 b4 04 0b
        E 17 b4 04 0b
        E 17 b4 04 0b
        E 17 b4 04 0a
        E 17 b4 04 0a
        E 17 b4 04 0a
        E 17 b4 04 0a
        E 17 b4 04 09
        E 17 b4 04 09
        E 17 b4 04 09
        E 17 b4 04 08
        E 17 b4 04 08
        E 17 b4 04 08
        E 17 b4 04 08
        E 17 b4 04 07
        E 17 b4 04 07
        E 17 b4 04 07
        E 17 b4 04 06
        E 17 b4 04 06
        E 17 b4 04 06
        E 17 b4 04 05
        E 17 b4 04 05
        E 17 b4 04 05
        E 17 b4 04 04
        E 17 b4 04 04
        E 17 b4 04 04
        E 17 b4 04 04
        E 17 b4 04 03
        E 17 b4 04 03
        E 17 b4 04 03
        E 17 b4 04 02
        E 17 b4 04 02
        E 17 b4 04 02
        E 17 b4 04 02
        E 17 b4 04 01
        E 17 b4 04 01
        E 17 b4 04 01
        E 17 b4 04 01
        E 17 b4 04 01
        E 17 b4 04 01
        E 17 b4 04 00
        E 17 b4 04 00
        E 17 b4 04 00
        E 17 b4 04 00
        E 17 b4 04 00
        E 17 b4 04 00
        E 17 b4 04 00
        E 17 b4 04 00
        E 17 b4 04 00
        E 17 b4 04 00
        E 17 b4 04 00
        E 17 b4 04 00
        E 17 b4 04 00
        E 17 b4 04 00
        E 17 b4 04 00
        E 17 b4 04 00
        E 17 b4 04 00
        E 17 b4 04 00
        E 17 b4 04 00
        E 17 b4 04 00
        E 17 b4 04 00
        E 17 b4 04 00
        E 17 b4 04 01
        E 17 b4 04 01
        E 17 b4 04 01
        E 17 b4 04 01
        E 17 b4 04 01
        E 17 b4 04 02
        E 17 b4 04 02
        E 17 b4 04 02
        E 17 b4 04 02
        E 17 b4 04 03
        E 17 b4 04 03
        E 17 b4 04 03
        E 17 b4 04 03
        E 17 b4 04 04
        E 17 b4 04 04
        E 17 b4 04 04
        E 17 b4 04 05
        E 17 b4 04 05
        E 17 b4 04 05
        E 17 b4 04 06
        E 17 b4 04 06
        E 62 b4 04 20
        E 62 b4 04 21
        E 62 b4 04 23
        E 62 b4 04 24
        E 62 b4 04 26
        E 62 b4 04 27
        E 62 b4 04 29
        E 62 b4 04 2a
        E 62 b4 04 2c
        E 62 b4 04 2d
        E 62 b4 04 2f
        E 62 b4 04 30
        E 62 b4 04 31
        E 62 b4 04 33
        E 62 b4 04 34
        E 62 b4 04 35
        E 62 b4 04 36
        E 62 b4 04 37
        E 62 b4 04 38
        E 62 b4 04 39
        E 62 b4 04 3a
        E 62 b4 04 3b
        E 62 b4 04 3c
        E 62 b4 04 3c
        E 62 b4 04 3d
        E 62 b4 04 3d
        E 62 b4 04 3e
        E 62 b4 04 3e
        E 62 b4 04 3f
        E 62 b4 04 3f
        E 62 b4 04 3f
        E 62 b4 04 3f
        E 62 b4 04 3f
        E 62 b4 04 3f
        E 62 b4 04 3f
        E 62 b4 04 3f
        E 62 b4 04 3f
        E 62 b4 04 3e
        E 62 b4 04 3e
        E 62 b4 04 3d
        E 62 b4 04 3d
        E 62 b4 04 3c
        E 62 b4 04 3b
        E 62 b4 04 3a
        E 62 b4 04 3a
        E 62 b4 04 39
        E 62 b4 04 38
        E 62 b4 04 37
        E 62 b4 04 36
        E 62 b4 04 34
        E 62 b4 04 33
        E 62 b4 04 32
        E 62 b4 04 31
        E 62 b4 04 2f
        E 62 b4 04 2e
        E 62 b4 04 2c
        E 62 b4 04 2b
        E 62 b4 04 2a
        E 62 b4 04 28
        E 62 b4 04 27
        E 62 b4 04 25
        E 62 b4 04 23
        E 62 b4 04 22
        E 62 b4 04 20
        E 62 b4 04 1f
        E 62 b4 04 1d
        E 62 b4 04 1c
        E 62 b4 04 1a
        E 62 b4 04 18
        E 62 b4 04 17
        E 62 b4 04 15
        E 62 b4 04 14
        E 62 b4 04 13
        E 62 b4 04 11
        E 62 b4 04 10
        E 62 b4 04 0e
        E 62 b4 04 0d
        E 62 b4 04 0c
        E 62 b4 04 0b
        E 62 b4 04 09
        E 62 b4 04 08
        E 62 b4 04 07
        E 62 b4 04 06
        E 62 b4 04 05
        E 62 b4 04 05
        E 62 b4 04 04
        E 62 b4 04 03
        E 62 b4 04 02
        E 62 b4 04 02
        E 62 b4 04 01
        E 62 b4 04 01
        E 62 b4 04 00
        E 62 b4 04 00
        E 62 b4 04 00
        E 62 b4 04 00
        E 62 b4 04 00
        E 62 b4 04 00
        E 62 b4 04 00
        E 62 b4 04 00
        E 62 b4 04 00
        E 62 b4 04 01
        E 62 b4 04 01
        E 62 b4 04 02
        E 62 b4 04 02
        E 62 b4 04 03
        E 62 b4 04 03
        E 62 b4 04 04
        E 62 b4 04 05
        E 62 b4 04 06
        E 62 b4 04 07
        E 62 b4 04 08
        E 62 b4 04 09
        E 62 b4 04 0a
        E 62 b4 04 0b
        E 62 b4 04 0c
        E 62 b4 04 0e
        E 62 b4 04 0f
        E 62 b4 04 10
        E 62 b4 04 12
        E 62 b4 04 13
        E 62 b4 04 15
        E 62 b4 04 16
        E 62 b4 04 18
        E 62 b4 04 19
        E 62 b4 04 1b
        E 62 b4 04 1c
        E 62 b4 04 1e
        E 62 b4 04 20
        E 35 b4 04 19
        E 35 b4 04 1a
        E 35 b4 04 1c
        E 35 b4 04 1d
        E 35 b4 04 1e
        E 35 b4 04 1f
        E 35 b4 04 20
        E 35 b4 04 22
        E 35 b4 04 23
        E 35 b4 04 24
        E 35 b4 04 25
        E 35 b4 04 26
        E 35 b4 04 27
        E 35 b4 04 28
        E 35 b4 04 29
        E 35 b4 04 2a
        E 35 b4 04 2b
        E 35 b4 04 2c
        E 35 b4 04 2d
        E 35 b4 04 2e
        E 35 b4 04 2e
        E 35 b4 04 2f
        E 35 b4 04 30
        E 35 b4 04 30
        E 35 b4 04 30
        E 35 b4 04 31
        E 35 b4 04 31
        E 35 b4 04 32
        E 35 b4 04 32
        E 35 b4 04 32
        E 35 b4 04 32
        E 35 b4 04 32
        E 35 b4 04 32
        E 35 b4 04 32
        E 35 b4 04 32
        E 35 b4 04 32
        E 35 b4 04 32
        E 35 b4 04 32
        E 35 b4 04 31
        E 35 b4 04 31
        E 35 b4 04 30
        E 35 b4 04 30
        E 35 b4 04 2f
        E 35 b4 04 2e
        E 35 b4 04 2e
        E 35 b4 04 2d
        E 35 b4 04 2c
        E 35 b4 04 2c
        E 35 b4 04 2b
        E 35 b4 04 2a
        E 35 b4 04 29
        E 35 b4 04 28
        E 35 b4 04 27
        E 35 b4 04 26
        E 35 b4 04 24
        E 35 b4 04 23
        E 35 b4 04 22
        E 35 b4 04 21
        E 35 b4 04 20
        E 35 b4 04 1f
        E 35 b4 04 1d
        E 35 b4 04 1c
        E 35 b4 04 1b
        E 35 b4 04 1a
        E 35 b4 04 18
        E 35 b4 04 17
        E 35 b4 04 16
        E 35 b4 04 15
        E 35 b4 04 13
        E 35 b4 04 12
        E 35 b4 04 11
        E 35 b4 04 10
        E 35 b4 04 0f
        E 35 b4 04 0e
        E 35 b4 04 0c
        E 35 b4 04 0b
        E 35 b4 04 0a
        E 35 b4 04 09
        E 35 b4 04 08
        E 35 b4 04 07
        E 35 b4 04 06
        E 35 b4 04 06
        E 35 b4 04 05
        E 35 b4 04 04
        E 35 b4 04 04
        E 35 b4 04 03
        E 35 b4 04 02
        E 35 b4 04 02
        E 35 b4 04 01
        E 35 b4 04 01
        E 35 b4 04 00
        E 35 b4 04 00
        E 35 b4 04 00
        E 35 b4 04 00
        E 35 b4 04 00
        E 35 b4 04 00
        E 35 b4 04 00
        E 35 b4 04 00
        E 35 b4 04 00
        E 35 b4 04 00
        E 35 b4 04 00
        E 35 b4 04 01
        E 35 b4 04 01
        E 35 b4 04 02
        E 35 b4 04 02
        E 35 b4 04 02
        E 35 b4 04 03
        E 35 b4 04 04
        E 35 b4 04 04
        E 35 b4 04 05
        E 35 b4 04 06
        E 35 b4 04 07
        E 35 b4 04 08
        E 35 b4 04 09
        E 35 b4 04 0a
        E 35 b4 04 0b
        E 35 b4 04 0c
        E 35 b4 04 0d
        E 35 b4 04 0e
        E 35 b4 04 0f
        E 35 b4 04 10
        E 35 b4 04 12
        E 35 b4 04 13
        E 35 b4 04 14
        E 35 b4 04 15
        E 35 b4 04 16
        E 35 b4 04 18
        E 35 b4 04 19
        E 89 b4 04 06
        E 89 b4 04 06
        E 89 b4 04 07
        E 89 b4 04 07
        E 89 b4 04 07
        E 89 b4 04 07
        E 89 b4 04 08
        E 89 b4 04 08
        E 89 b4 04 08
        E 89 b4 04 09
        E 89 b4 04 09
        E 89 b4 04 09
        E 89 b4 04 09
        E 89 b4 04 0a
        E 89 b4 04 0a
        E 89 b4 04 0a
        E 89 b4 04 0a
        E 89 b4 04 0b
        E 89 b4 04 0b
        E 89 b4 04 0b
        E 89 b4 04 0b
        E 89 b4 04 0b
        E 89 b4 04 0c
        E 89 b4 04 0c
        E 89 b4 04 0c
        E 89 b4 04 0c
        E 89 b4 04 0c
        E 89 b4 04 0c
        E 89 b4 04 0c
        E 89 b4 04 0c
        E 89 b4 04 0c
        E 89 b4 04 0c
        E 89 b4 04 0c
        E 89 b4 04 0c
        E 89 b4 04 0c
        E 89 b4 04 0c
        E 89 b4 04 0c
        E 89 b4 04 0c
        E 89 b4 04 0c
        E 89 b4 04 0c
        E 89 b4 04 0c
        E 89 b4 04 0c
        E 89 b4 04 0b
        E 89 b4 04 0b
        E 89 b4 04 0b
        E 89 b4 04 0b
        E 89 b4 04 0b
        E 89 b4 04 0b
        E 89 b4 04 0a
        E 89 b4 04 0a
        E 89 b4 04 0a
        E 89 b4 04 0a
        E 89 b4 04 09
        E 89 b4 04 09
        E 89 b4 04 09
        E 89 b4 04 08
        E 89 b4 04 08
        E 89 b4 04 08
        E 89 b4 04 08
        E 89 b4 04 07
        E 89 b4 04 07
        E 89 b4 04 07
        E 89 b4 04 06
        E 89 b4 04 06
        E 89 b4 04 06
        E 89 b4 04 05
        E 89 b4 04 05
        E 89 b4 04 05
        E 89 b4 04 04
        E 89 b4 04 04
        E 89 b4 04 04
        E 89 b4 04 04
        E 89 b4 04 03
        E 89 b4 04 03
        E 89 b4 04 03
        E 89 b4 04 02
        E 89 b4 04 02
        E 89 b4 04 02
        E 89 b4 04 02
        E 89 b4 04 01
        E 89 b4 04 01
        E 89 b4 04 01
        E 89 b4 04 01
        E 89 b4 04 01
        E 89 b4 04 01
        E 89 b4 04 00
        E 89 b4 04 00
        E 89 b4 04 00
        E 89 b4 04 00
        E 89 b4 04 00
        E 89 b4 04 00
        E 89 b4 04 00
        E 89 b4 04 00
        E 89 b4 04 00
        E 89 b4 04 00
        E 89 b4 04 00
        E 89 b4 04 00
        E 89 b4 04 00
        E 89 b4 04 00
        E 89 b4 04 00
        E 89 b4 04 00
        E 89 b4 04 00
        E 89 b4 04 00
        E 89 b4 04 00
        E 89 b4 04 00
        E 89 b4 04 00
        E 89 b4 04 00
        E 89 b4 04 01
        E 89 b4 04 01
        E 89 b4 04 01
        E 89 b4 04 01
        E 89 b4 04 01
        E 89 b4 04 02
        E 89 b4 04 02
        E 89 b4 04 02
        E 89 b4 04 02
        E 89 b4 04 03
        E 89 b4 04 03
        E 89 b4 04 03
        E 89 b4 04 03
        E 89 b4 04 04
        E 89 b4 04 04
        E 89 b4 04 04
        E 89 b4 04 05
        E 89 b4 04 05
        E 89 b4 04 05
        E 89 b4 04 06
        E 89 b4 04 06
        E 80 b4 04 39
        E 80 b4 04 3c
        E 80 b4 04 3f
        E 80 b4 04 41
        E 80 b4 04 44
        E 80 b4 04 47
        E 80 b4 04 49
        E 80 b4 04 4c
        E 80 b4 04 4f
        E 80 b4 04 51
        E 80 b4 04 54
        E 80 b4 04 56
        E 80 b4 04 59
        E 80 b4 04 5b
        E 80 b4 04 5d
        E 80 b4 04 5f
        E 80 b4 04 62
        E 80 b4 04 63
        E 80 b4 04 65
        E 80 b4 04 67
        E 80 b4 04 69
        E 80 b4 04 6a
        E 80 b4 04 6c
        E 80 b4 04 6c
        E 80 b4 04 6d
        E 80 b4 04 6e
        E 80 b4 04 6f
        E 80 b4 04 70
        E 80 b4 04 71
        E 80 b4 04 71
        E 80 b4 04 72
        E 80 b4 04 72
        E 80 b4 04 72
        E 80 b4 04 72
        E 80 b4 04 72
        E 80 b4 04 71
        E 80 b4 04 71
        E 80 b4 04 70
        E 80 b4 04 6f
        E 80 b4 04 6e
        E 80 b4 04 6d
        E 80 b4 04 6c
        E 80 b4 04 6b
        E 80 b4 04 69
        E 80 b4 04 68
        E 80 b4 04 66
        E 80 b4 04 64
        E 80 b4 04 63
        E 80 b4 04 61
        E 80 b4 04 5e
        E 80 b4 04 5c
        E 80 b4 04 5a
        E 80 b4 04 58
        E 80 b4 04 55
        E 80 b4 04 52
        E 80 b4 04 50
        E 80 b4 04 4e
        E 80 b4 04 4b
        E 80 b4 04 48
        E 80 b4 04 46
        E 80 b4 04 42
        E 80 b4 04 3f
        E 80 b4 04 3d
        E 80 b4 04 3a
        E 80 b4 04 37
        E 80 b4 04 35
        E 80 b4 04 32
        E 80 b4 04 2f
        E 80 b4 04 2c
        E 80 b4 04 29
        E 80 b4 04 26
        E 80 b4 04 24
        E 80 b4 04 22
        E 80 b4 04 1f
        E 80 b4 04 1c
        E 80 b4 04 1a
        E 80 b4 04 18
        E 80 b4 04 15
        E 80 b4 04 13
        E 80 b4 04 11
        E 80 b4 04 0f
        E 80 b4 04 0d
        E 80 b4 04 0b
        E 80 b4 04 09
        E 80 b4 04 09
        E 80 b4 04 07
        E 80 b4 04 06
        E 80 b4 04 04
        E 80 b4 04 03
        E 80 b4 04 02
        E 80 b4 04 01
        E 80 b4 04 00
        E 80 b4 04 00
        E 80 b4 04 00
        E 80 b4 04 00
        E 80 b4 04 00
        E 80 b4 04 00
        E 80 b4 04 00
        E 80 b4 04 00
        E 80 b4 04 00
        E 80 b4 04 01
        E 80 b4 04 02
        E 80 b4 04 03
        E 80 b4 04 04
        E 80 b4 04 05
        E 80 b4 04 06
        E 80 b4 04 08
        E 80 b4 04 09
        E 80 b4 04 0a
        E 80 b4 04 0c
        E 80 b4 04 0e
        E 80 b4 04 10
        E 80 b4 04 12
        E 80 b4 04 14
        E 80 b4 04 16
        E 80 b4 04 19
        E 80 b4 04 1b
        E 80 b4 04 1d
        E 80 b4 04 20
        E 80 b4 04 23
        E 80 b4 04 25
        E 80 b4 04 28
        E 80 b4 04 2b
        E 80 b4 04 2d
        E 80 b4 04 30
        E 80 b4 04 33
        E 80 b4 04 36
        E 80 b4 04 39
        E 53 b4 04 0c
        E 53 b4 04 0d
        E 53 b4 04 0e
        E 53 b4 04 0e
        E 53 b4 04 0f
        E 53 b4 04 0f
        E 53 b4 04 10
        E 53 b4 04 11
        E 53 b4 04 11
        E 53 b4 04 12
        E 53 b4 04 12
        E 53 b4 04 13
        E 53 b4 04 13
        E 53 b4 04 14
        E 53 b4 04 14
        E 53 b4 04 15
        E 53 b4 04 15
        E 53 b4 04 16
        E 53 b4 04 16
        E 53 b4 04 17
        E 53 b4 04 17
        E 53 b4 04 17
        E 53 b4 04 18
        E 53 b4 04 18
        E 53 b4 04 18
        E 53 b4 04 18
        E 53 b4 04 18
        E 53 b4 04 19
        E 53 b4 04 19
        E 53 b4 04 19
        E 53 b4 04 19
        E 53 b4 04 19
        E 53 b4 04 19
        E 53 b4 04 19
        E 53 b4 04 19
        E 53 b4 04 19
        E 53 b4 04 19
        E 53 b4 04 19
        E 53 b4 04 18
        E 53 b4 04 18
        E 53 b4 04 18
        E 53 b4 04 18
        E 53 b4 04 17
        E 53 b4 04 17
        E 53 b4 04 17
        E 53 b4 04 16
        E 53 b4 04 16
        E 53 b4 04 16
        E 53 b4 04 15
        E 53 b4 04 15
        E 53 b4 04 14
        E 53 b4 04 14
        E 53 b4 04 13
        E 53 b4 04 13
        E 53 b4 04 12
        E 53 b4 04 11
        E 53 b4 04 11
        E 53 b4 04 10
        E 53 b4 04 10
        E 53 b4 04 0f
        E 53 b4 04 0e
        E 53 b4 04 0e
        E 53 b4 04 0d
        E 53 b4 04 0d
        E 53 b4 04 0c
        E 53 b4 04 0b
        E 53 b4 04 0b
        E 53 b4 04 0a
        E 53 b4 04 09
        E 53 b4 04 09
        E 53 b4 04 08
        E 53 b4 04 08
        E 53 b4 04 07
        E 53 b4 04 07
        E 53 b4 04 06
        E 53 b4 04 05
        E 53 b4 04 05
        E 53 b4 04 04
        E 53 b4 04 04
        E 53 b4 04 03
        E 53 b4 04 03
        E 53 b4 04 03
        E 53 b4 04 02
        E 53 b4 04 02
        E 53 b4 04 02
        E 53 b4 04 01
        E 53 b4 04 01
        E 53 b4 04 01
        E 53 b4 04 00
        E 53 b4 04 00
        E 53 b4 04 00
        E 53 b4 04 00
        E 53 b4 04 00
        E 53 b4 04 00
        E 53 b4 04 00
        E 53 b4 04 00
        E 53 b4 04 00
        E 53 b4 04 00
        E 53 b4 04 00
        E 53 b4 04 00
        E 53 b4 04 00
        E 53 b4 04 00
        E 53 b4 04 00
        E 53 b4 04 01
        E 53 b4 04 01
        E 53 b4 04 01
        E 53 b4 04 01
        E 53 b4 04 02
        E 53 b4 04 02
        E 53 b4 04 02
        E 53 b4 04 03
        E 53 b4 04 03
        E 53 b4 04 04
        E 53 b4 04 04
        E 53 b4 04 05
        E 53 b4 04 05
        E 53 b4 04 06
        E 53 b4 04 06
        E 53 b4 04 07
        E 53 b4 04 07
        E 53 b4 04 08
        E 53 b4 04 09
        E 53 b4 04 09
        E 53 b4 04 0a
        E 53 b4 04 0a
        E 53 b4 04 0b
        E 53 b4 04 0c
        E 53 b4 04 0c
        E 17 b4 04 06
        E 17 b4 04 06
        E 17 b4 04 07
        E 17 b4 04 07
        E 17 b4 04 07
        E 17 b4 04 07
        E 17 b4 04 08
        E 17 b4 04 08
        E 17 b4 04 08
        E 17 b4 04 09
        E 17 b4 04 09
        E 17 b4 04 09
        E 17 b4 04 09
        E 17 b4 04 0a
        E 17 b4 04 0a
        E 17 b4 04 0a
        E 17 b4 04 0a
        E 17 b4 04 0b
        E 17 b4 04 0b
        E 17 b4 04 0b
        E 17 b4 04 0b
        E 17 b4 04 0b
        E 17 b4 04 0c
        E 17 b4 04 0c
        E 17 b4 04 0c
        E 17 b4 04 0c
        E 17 b4 04 0c
        E 17 b4 04 0c
        E 17 b4 04 0c
        E 17 b4 04 0c
        E 17 b4 04 0c
        E 17 b4 04 0c
        E 17 b4 04 0c
        E 17 b4 04 0c
        E 17 b4 04 0c
        E 17 b4 04 0c
        E 17 b4 04 0c
        E 17 b4 04 0c
        E 17 b4 04 0c
        E 17 b4 04 0c
        E 17 b4 04 0c
        E 17 b4 04 0c
        E 17 b4 04 0b
        E 17 b4 04 0b
        E 17 b4 04 0b
        E 17 b4 04 0b
        E 17 b4 04 0b
        E 17 b4 04 0b
        E 17 b4 04 0a
        E 17 b4 04 0a
        E 17 b4 04 0a
        E 17 b4 04 0a
        E 17 b4 04 09
        E 17 b4 04 09
        E 17 b4 04 09
        E 17 b4 04 08
        E 17 b4 04 08
        E 17 b4 04 08
        E 17 b4 04 08
        E 17 b4 04 07
        E 17 b4 04 07
        E 17 b4 04 07
        E 17 b4 04 06
        E 17 b4 04 06
        E 17 b4 04 06
        E 17 b4 04 05
        E 17 b4 04 05
        E 17 b4 04 05
        E 17 b4 04 04
        E 17 b4 04 04
        E 17 b4 04 04
        E 17 b4 04 04
        E 17 b4 04 03
        E 17 b4 04 03
        E 17 b4 04 03
        E 17 b4 04 02
        E 17 b4 04 02
        E 17 b4 04 02
        E 17 b4 04 02
        E 17 b4 04 01
        E 17 b4 04 01
        E 17 b4 04 01
        E 17 b4 04 01
        E 17 b4 04 01
        E 17 b4 04 01
        E 17 b4 04 00
        E 17 b4 04 00
        E 17 b4 04 00
        E 17 b4 04 00
        E 17 b4 04 00
        E 17 b4 04 00
        E 17 b4 04 00
        E 17 b4 04 00
        E 17 b4 04 00
        E 17 b4 04 00
        E 17 b4 04 00
        E 17 b4 04 00
        E 17 b4 04 00
        E 17 b4 04 00
        E 17 b4 04 00
        E 17 b4 04 00
        E 17 b4 04 00
        E 17 b4 04 00
        E 17 b4 04 00
        E 17 b4 04 00
        E 17 b4 04 00
        E 17 b4 04 00
        E 17 b4 04 01
        E 17 b4 04 01
        E 17 b4 04 01
        E 17 b4 04 01
        E 17 b4 04 01
        E 17 b4 04 02
        E 17 b4 04 02
        E 17 b4 04 02
        E 17 b4 04 02
        E 17 b4 04 03
        E 17 b4 04 03
        E 17 b4 04 03
        E 17 b4 04 03
        E 17 b4 04 04
        E 17 b4 04 04
        E 17 b4 04 04
        E 17 b4 04 05
        E 17 b4 04 05
        E 17 b4 04 05
        E 17 b4 04 06
        E 17 b4 04 06
        E 62 b4 04 20
        E 62 b4 04 21
        E 62 b4 04 23
        E 62 b4 04 24
        E 62 b4 04 26
        E 62 b4 04 27
        E 62 b4 04 29
        E 62 b4 04 2a
        E 62 b4 04 2c
        E 62 b4 04 2d
        E 62 b4 04 2f
        E 62 b4 04 30
        E 62 b4 04 31
        E 62 b4 04 33
        E 62 b4 04 34
        E 62 b4 04 35
        E 62 b4 04 36
        E 62 b4 04 37
        E 62 b4 04 38
        E 62 b4 04 39
        E 62 b4 04 3a
        E 62 b4 04 3b
        E 62 b4 04 3c
        E 62 b4 04 3c
        E 62 b4 04 3d
        E 62 b4 04 3d
        E 62 b4 04 3e
        E 62 b4 04 3e
        E 62 b4 04 3f
        E 62 b4 04 3f
        E 62 b4 04 3f
        E 62 b4 04 3f
        E 62 b4 04 3f
        E 62 b4 04 3f
        E 62 b4 04 3f
        E 62 b4 04 3f
        E 62 b4 04 3f
        E 62 b4 04 3e
        E 62 b4 04 3e
        E 62 b4 04 3d
        E 62 b4 04 3d
        E 62 b4 04 3c
        E 62 b4 04 3b
        E 62 b4 04 3a
        E 62 b4 04 3a
        E 62 b4 04 39
        E 62 b4 04 38
        E 62 b4 04 37
        E 62 b4 04 36
        E 62 b4 04 34
        E 62 b4 04 33
        E 62 b4 04 32
        E 62 b4 04 31
        E 62 b4 04 2f
        E 62 b4 04 2e
        E 62 b4 04 2c
        E 62 b4 04 2b
        E 62 b4 04 2a
        E 62 b4 04 28
        E 62 b4 04 27
        E 62 b4 04 25
        E 62 b4 04 23
        E 62 b4 04 22
        E 62 b4 04 20
        E 62 b4 04 1f
        E 62 b4 04 1d
        E 62 b4 04 1c
        E 62 b4 04 1a
        E 62 b4 04 18
        E 62 b4 04 17
        E 62 b4 04 15
        E 62 b4 04 14
        E 62 b4 04 13
        E 62 b4 04 11
        E 62 b4 04 10
        E 62 b4 04 0e
        E 62 b4 04 0d
        E 62 b4 04 0c
        E 62 b4 04 0b
        E 62 b4 04 09
        E 62 b4 04 08
        E 62 b4 04 07
        E 62 b4 04 06
        E 62 b4 04 05
        E 62 b4 04 05
        E 62 b4 04 04
        E 62 b4 04 03
        E 62 b4 04 02
        E 62 b4 04 02
        E 62 b4 04 01
        E 62 b4 04 01
        E 62 b4 04 00
        E 62 b4 04 00
        E 62 b4 04 00
        E 62 b4 04 00
        E 62 b4 04 00
        E 62 b4 04 00
        E 62 b4 04 00
        E 62 b4 04 00
        E 62 b4 04 00
        E 62 b4 04 01
        E 62 b4 04 01
        E 62 b4 04 02
        E 62 b4 04 02
        E 62 b4 04 03
        E 62 b4 04 03
        E 62 b4 04 04
        E 62 b4 04 05
        E 62 b4 04 06
        E 62 b4 04 07
        E 62 b4 04 08
        E 62 b4 04 09
        E 62 b4 04 0a
        E 62 b4 04 0b
        E 62 b4 04 0c
        E 62 b4 04 0e
        E 62 b4 04 0f
        E 62 b4 04 10
        E 62 b4 04 12
        E 62 b4 04 13
        E 62 b4 04 15
        E 62 b4 04 16
        E 62 b4 04 18
        E 62 b4 04 19
        E 62 b4 04 1b
        E 62 b4 04 1c
        E 62 b4 04 1e
        E 62 b4 04 20
        E 35 b4 04 19
        E 35 b4 04 1a
        E 35 b4 04 1c
        E 35 b4 04 1d
        E 35 b4 04 1e
        E 35 b4 04 1f
        E 35 b4 04 20
        E 35 b4 04 22
        E 35 b4 04 23
        E 35 b4 04 24
        E 35 b4 04 25
        E 35 b4 04 26
        E 35 b4 04 27
        E 35 b4 04 28
        E 35 b4 04 29
        E 35 b4 04 2a
        E 35 b4 04 2b
        E 35 b4 04 2c
        E 35 b4 04 2d
        E 35 b4 04 2e
        E 35 b4 04 2e
        E 35 b4 04 2f
        E 35 b4 04 30
        E 35 b4 04 30
        E 35 b4 04 30
        E 35 b4 04 31
        E 35 b4 04 31
        E 35 b4 04 32
        E 35 b4 04 32
        E 35 b4 04 32
        E 35 b4 04 32
        E 35 b4 04 32
        E 35 b4 04 32
        E 35 b4 04 32
        E 35 b4 04 32
        E 35 b4 04 32
        E 35 b4 04 32
        E 35 b4 04 32
        E 35 b4 04 31
        E 35 b4 04 31
        E 35 b4 04 30
        E 35 b4 04 30
        E 35 b4 04 2f
        E 35 b4 04 2e
        E 35 b4 04 2e
        E 35 b4 04 2d
        E 35 b4 04 2c
        E 35 b4 04 2c
        E 35 b4 04 2b
        E 35 b4 04 2a
        E 35 b4 04 29
        E 35 b4 04 28
        E 35 b4 04 27
        E 35 b4 04 26
        E 35 b4 04 24
        E 35 b4 04 23
        E 35 b4 04 22
        E 35 b4 04 21
        E 35 b4 04 20
        E 35 b4 04 1f
        E 35 b4 04 1d
        E 35 b4 04 1c
        E 35 b4 04 1b
        E 35 b4 04 1a
        E 35 b4 04 18
        E 35 b4 04 17
        E 35 b4 04 16
        E 35 b4 04 15
        E 35 b4 04 13
        E 35 b4 04 12
        E 35 b4 04 11
        E 35 b4 04 10
        E 35 b4 04 0f
        E 35 b4 04 0e
        E 35 b4 04 0c
        E 35 b4 04 0b
        E 35 b4 04 0a
        E 35 b4 04 09
        E 35 b4 04 08
        E 35 b4 04 07
        E 35 b4 04 06
        E 35 b4 04 06
        E 35 b4 04 05
        E 35 b4 04 04
        E 35 b4 04 04
        E 35 b4 04 03
        E 35 b4 04 02
        E 35 b4 04 02
        E 35 b4 04 01
        E 35 b4 04 01
        E 35 b4 04 00
        E 35 b4 04 00
        E 35 b4 04 00
        E 35 b4 04 00
        E 35 b4 04 00
        E 35 b4 04 00
        E 35 b4 04 00
        E 35 b4 04 00
        E 35 b4 04 00
        E 35 b4 04 00
        E 35 b4 04 00
        E 35 b4 04 01
        E 35 b4 04 01
        E 35 b4 04 02
        E 35 b4 04 02
        E 35 b4 04 02
        E 35 b4 04 03
        E 35 b4 04 04
        E 35 b4 04 04
        E 35 b4 04 05
        E 35 b4 04 06
        E 35 b4 04 07
        E 35 b4 04 08
        E 35 b4 04 09
        E 35 b4 04 0a
        E 35 b4 04 0b
        E 35 b4 04 0c
        E 35 b4 04 0d
        E 35 b4 04 0e
        E 35 b4 04 0f
        E 35 b4 04 10
        E 35 b4 04 12
        E 35 b4 04 13
        E 35 b4 04 14
        E 35 b4 04 15
        E 35 b4 04 16
        E 35 b4 04 18
        E 35 b4 04 19
        E 89 b4 04 06
        E 89 b4 04 06
        E 89 b4 04 07
        E 89 b4 04 07
        E 89 b4 04 07
        E 89 b4 04 07
        E 89 b4 04 08
        E 89 b4 04 08
        E 89 b4 04 08
        E 89 b4 04 09
        E 89 b4 04 09
        E 89 b4 04 09
        E 89 b4 04 09
        E 89 b4 04 0a
        E 89 b4 04 0a
        E 89 b4 04 0a
        E 89 b4 04 0a
        E 89 b4 04 0b
        E 89 b4 04 0b
        E 89 b4 04 0b
        E 89 b4 04 0b
        E 89 b4 04 0b
        E 89 b4 04 0c
        E 89 b4 04 0c
        E 89 b4 04 0c
        E 89 b4 04 0c
        E 89 b4 04 0c
        E 89 b4 04 0c
        E 89 b4 04 0c
        E 89 b4 04 0c
        E 89 b4 04 0c
        E 89 b4 04 0c
        E 89 b4 04 0c
        E 89 b4 04 0c
        E 89 b4 04 0c
        E 89 b4 04 0c
        E 89 b4 04 0c
        E 89 b4 04 0c
        E 89 b4 04 0c
        E 89 b4 04 0c
        E 89 b4 04 0c
        E 89 b4 04 0c
        E 89 b4 04 0b
        E 89 b4 04 0b
        E 89 b4 04 0b
        E 89 b4 04 0b
        E 89 b4 04 0b
        E 89 b4 04 0b
        E 89 b4 04 0a
        E 89 b4 04 0a
        E 89 b4 04 0a
        E 89 b4 04 0a
        E 89 b4 04 09
        E 89 b4 04 09
        E 89 b4 04 09
        E 89 b4 04 08
        E 89 b4 04 08
        E 89 b4 04 08
        E 89 b4 04 08
        E 89 b4 04 07
        E 89 b4 04 07
        E 89 b4 04 07
        E 89 b4 04 06
        E 89 b4 04 06
        E 89 b4 04 06
        E 89 b4 04 05
        E 89 b4 04 05
        E 89 b4 04 05
        E 89 b4 04 04
        E 89 b4 04 04
        E 89 b4 04 04
        E 89 b4 04 04
        E 89 b4 04 03
        E 89 b4 04 03
        E 89 b4 04 03
        E 89 b4 04 02
        E 89 b4 04 02
        E 89 b4 04 02
        E 89 b4 04 02
        E 89 b4 04 01
        E 89 b4 04 01
        E 89 b4 04 01
        E 89 b4 04 01
        E 89 b4 04 01
        E 89 b4 04 01
        E 89 b4 04 00
        E 89 b4 04 00
        E 89 b4 04 00
        E 89 b4 04 00
        E 89 b4 04 00
        E 89 b4 04 00
        E 89 b4 04 00
        E 89 b4 04 00
        E 89 b4 04 00
        E 89 b4 04 00
        E 89 b4 04 00
        E 89 b4 04 00
        E 89 b4 04 00
        E 89 b4 04 00
        E 89 b4 04 00
        E 89 b4 04 00
        E 89 b4 04 00
        E 89 b4 04 00
        E 89 b4 04 00
        E 89 b4 04 00
        E 89 b4 04 00
        E 89 b4 04 00
        E 89 b4 04 01
        E 89 b4 04 01
        E 89 b4 04 01
        E 89 b4 04 01
        E 89 b4 04 01
        E 89 b4 04 02
        E 89 b4 04 02
        E 89 b4 04 02
        E 89 b4 04 02
        E 89 b4 04 03
        E 89 b4 04 03
        E 89 b4 04 03
        E 89 b4 04 03
        E 89 b4 04 04
        E 89 b4 04 04
        E 89 b4 04 04
        E 89 b4 04 05
        E 89 b4 04 05
        E 89 b4 04 05
        E 89 b4 04 06
        E 89 b4 04 06
        E 80 b4 04 39
        E 80 b4 04 3c
        E 80 b4 04 3f
        E 80 b4 04 41
        E 80 b4 04 44
        E 80 b4 04 47
        E 80 b4 04 49
        E 80 b4 04 4c
        E 80 b4 04 4f
        E 80 b4 04 51
        E 80 b4 04 54
        E 80 b4 04 56
        E 80 b4 04 59
        E 80 b4 04 5b
        E 80 b4 04 5d
        E 80 b4 04 5f
        E 80 b4 04 62
        E 80 b4 04 63
        E 80 b4 04 65
        E 80 b4 04 67
        E 80 b4 04 69
        E 80 b4 04 6a
        E 80 b4 04 6c
        E 80 b4 04 6c
        E 80 b4 04 6d
        E 80 b4 04 6e
        E 80 b4 04 6f
        E 80 b4 04 70
        E 80 b4 04 71
        E 80 b4 04 71
        E 80 b4 04 72
        E 80 b4 04 72
        E 80 b4 04 72
        E 80 b4 04 72
        E 80 b4 04 72
        E 80 b4 04 71
        E 80 b4 04 71
        E 80 b4 04 70
        E 80 b4 04 6f
        E 80 b4 04 6e
        E 80 b4 04 6d
        E 80 b4 04 6c
        E 80 b4 04 6b
        E 80 b4 04 69
        E 80 b4 04 68
        E 80 b4 04 66
        E 80 b4 04 64
        E 80 b4 04 63
        E 80 b4 04 61
        E 80 b4 04 5e
        E 80 b4 04 5c
        E 80 b4 04 5a
        E 80 b4 04 58
        E 80 b4 04 55
        E 80 b4 04 52
        E 80 b4 04 50
        E 80 b4 04 4e
        E 80 b4 04 4b
        E 80 b4 04 48
        E 80 b4 04 46
        E 80 b4 04 42
        E 80 b4 04 3f
        E 80 b4 04 3d
        E 80 b4 04 3a
        E 80 b4 04 37
        E 80 b4 04 35
        E 80 b4 04 32
        E 80 b4 04 2f
        E 80 b4 04 2c
        E 80 b4 04 29
        E 80 b4 04 26
        E 80 b4 04 24
        E 80 b4 04 22
        E 80 b4 04 1f
        E 80 b4 04 1c
        E 80 b4 04 1a
        E 80 b4 04 18
        E 80 b4 04 15
        E 80 b4 04 13
        E 80 b4 04 11
        E 80 b4 04 0f
        E 80 b4 04 0d
        E 80 b4 04 0b
        E 80 b4 04 09
        E 80 b4 04 09
        E 80 b4 04 07
        E 80 b4 04 06
        E 80 b4 04 04
        E 80 b4 04 03
        E 80 b4 04 02
        E 80 b4 04 01
        E 80 b4 04 00
        E 80 b4 04 00
        E 80 b4 04 00
        E 80 b4 04 00
        E 80 b4 04 00
        E 80 b4 04 00
        E 80 b4 04 00
        E 80 b4 04 00
        E 80 b4 04 00
        E 80 b4 04 01
        E 80 b4 04 02
        E 80 b4 04 03
        E 80 b4 04 04
        E 80 b4 04 05
        E 80 b4 04 06
        E 80 b4 04 08
        E 80 b4 04 09
        E 80 b4 04 0a
        E 80 b4 04 0c
        E 80 b4 04 0e
        E 80 b4 04 10
        E 80 b4 04 12
        E 80 b4 04 14
        E 80 b4 04 16
        E 80 b4 04 19
        E 80 b4 04 1b
        E 80 b4 04 1d
        E 80 b4 04 20
        E 80 b4 04 23
        E 80 b4 04 25
        E 80 b4 04 28
        E 80 b4 04 2b
        E 80 b4 04 2d
        E 80 b4 04 30
        E 80 b4 04 33
        E 80 b4 04 36
        E 80 b4 04 39
        E 53 b4 04 0c
        E 53 b4 04 0d
        E 53 b4 04 0e
        E 53 b4 04 0e
        E 53 b4 04 0f
        E 53 b4 04 0f
        E 53 b4 04 10
        E 53 b4 04 11
        E 53 b4 04 11
        E 53 b4 04 12
        E 53 b4 04 12
        E 53 b4 04 13
        E 53 b4 04 13
        E 53 b4 04 14
        E 53 b4 04 14
        E 53 b4 04 15
        E 53 b4 04 15
        E 53 b4 04 16
        E 53 b4 04 16
        E 53 b4 04 17
        E 53 b4 04 17
        E 53 b4 04 17
        E 53 b4 04 18
        E 53 b4 04 18
        E 53 b4 04 18
        E 53 b4 04 18
        E 53 b4 04 18
        E 53 b4 04 19
        E 53 b4 04 19
        E 53 b4 04 19
        E 53 b4 04 19
        E 53 b4 04 19
        E 53 b4 04 19
        E 53 b4 04 19
        E 53 b4 04 19
        E 53 b4 04 19
        E 53 b4 04 19
        E 53 b4 04 19
        E 53 b4 04 18
        E 53 b4 04 18
        E 53 b4 04 18
        E 53 b4 04 18
        E 53 b4 04 17
        E 53 b4 04 17
        E 53 b4 04 17
        E 53 b4 04 16
        E 53 b4 04 16
        E 53 b4 04 16
        E 53 b4 04 15
        E 53 b4 04 15
        E 53 b4 04 14
        E 53 b4 04 14
        E 53 b4 04 13
        E 53 b4 04 13
        E 53 b4 04 12
        E 53 b4 04 11
        E 53 b4 04 11
        E 53 b4 04 10
        E 53 b4 04 10
        E 53 b4 04 0f
        E 53 b4 04 0e
        E 53 b4 04 0e
        E 53 b4 04 0d
        E 53 b4 04 0d
        E 53 b4 04 0c
        E 53 b4 04 0b
        E 53 b4 04 0b
        E 53 b4 04 0a
        E 53 b4 04 09
        E 53 b4 04 09
        E 53 b4 04 08
        E 53 b4 04 08
        E 53 b4 04 07
        E 53 b4 04 07
        E 53 b4 04 06
        E 53 b4 04 05
        E 53 b4 04 05
        E 53 b4 04 04
        E 53 b4 04 04
        E 53 b4 04 03
        E 53 b4 04 03
        E 53 b4 04 03
        E 53 b4 04 02
        E 53 b4 04 02
        E 53 b4 04 02
        E 53 b4 04 01
        E 53 b4 04 01
        E 53 b4 04 01
        E 53 b4 04 00
        E 53 b4 04 00
        E 53 b4 04 00
        E 53 b4 04 00
        E 53 b4 04 00
        E 53 b4 04 00
        E 53 b4 04 00
        E 53 b4 04 00
        E 53 b4 04 00
        E 53 b4 04 00
        E 53 b4 04 00
        E 53 b4 04 00
        E 53 b4 04 00
        E 53 b4 04 00
        E 53 b4 04 00
        E 53 b4 04 01
        E 53 b4 04 01
        E 53 b4 04 01
        E 53 b4 04 01
        E 53 b4 04 02
        E 53 b4 04 02
        E 53 b4 04 02
        E 53 b4 04 03
        E 53 b4 04 03
        E 53 b4 04 04
        E 53 b4 04 04
        E 53 b4 04 05
        E 53 b4 04 05
        E 53 b4 04 06
        E 53 b4 04 06
        E 53 b4 04 07
        E 53 b4 04 07
        E 53 b4 04 08
        E 53 b4 04 09
        E 53 b4 04 09
        E 53 b4 04 0a
        E 53 b4 04 0a
        E 53 b4 04 0b
        E 53 b4 04 0c
        E 53 b4 04 0c
        E 17 b4 04 06
        E 17 b4 04 06
        E 17 b4 04 07
        E 17 b4 04 07
        E 17 b4 04 07
        E 17 b4 04 07
        E 17 b4 04 08
        E 17 b4 04 08
        E 17 b4 04 08
        E 17 b4 04 09
        E 17 b4 04 09
        E 17 b4 04 09
        E 17 b4 04 09
        E 17 b4 04 0a
        E 17 b4 04 0a
        E 17 b4 04 0a
        E 17 b4 04 0a
        E 17 b4 04 0b
        E 17 b4 04 0b
        E 17 b4 04 0b
        E 17 b4 04 0b
        E 17 b4 04 0b
        E 17 b4 04 0c
        E 17 b4 04 0c
        E 17 b4 04 0c
        E 17 b4 04 0c
        E 17 b4 04 0c
        E 17 b4 04 0c
        E 17 b4 04 0c
        E 17 b4 04 0c
        E 17 b4 04 0c
        E 17 b4 04 0c
        E 17 b4 04 0c
        E 17 b4 04 0c
        E 17 b4 04 0c
        E 17 b4 04 0c
        E 17 b4 04 0c
        E 17 b4 04 0c
        E 17 b4 04 0c
        E 17 b4 04 0c
        E 17 b4 04 0c
        E 17 b4 04 0c
        E 17 b4 04 0b
        E 17 b4 04 0b
        E 17 b4 04 0b
        E 17 b4 04 0b
        E 17 b4 04 0b
        E 17 b4 04 0b
        E 17 b4 04 0a
        E 17 b4 04 0a
        E 17 b4 04 0a
        E 17 b4 04 0a
        E 17 b4 04 09
        E 17 b4 04 09
        E 17 b4 04 09
        E 17 b4 04 08
        E 17 b4 04 08
        E 17 b4 04 08
        E 17 b4 04 08
        E 17 b4 04 07
        E 17 b4 04 07
        E 17 b4 04 07
        E 17 b4 04 06
        E 17 b4 04 06
        E 17 b4 04 06
        E 17 b4 04 05
        E 17 b4 04 05
        E 17 b4 04 05
        E 17 b4 04 04
        E 17 b4 04 04
        E 17 b4 04 04
        E 17 b4 04 04
        E 17 b4 04 03
        E 17 b4 04 03
        E 17 b4 04 03
        E 17 b4 04 02
        E 17 b4 04 02
        E 17 b4 04 02
        E 17 b4 04 02
        E 17 b4 04 01
        E 17 b4 04 01
        E 17 b4 04 01
        E 17 b4 04 01
        E 17 b4 04 01
        E 17 b4 04 01
        E 17 b4 04 00
        E 17 b4 04 00
        E 17 b4 04 00
        E 17 b4 04 00
        E 17 b4 04 00
        E 17 b4 04 00
        E 17 b4 04 00
        E 17 b4 04 00
        E 17 b4 04 00
        E 17 b4 04 00
        E 17 b4 04 00
        E 17 b4 04 00
        E 17 b4 04 00
        E 17 b4 04 00
        E 17 b4 04 00
        E 17 b4 04 00
        E 17 b4 04 00
        E 17 b4 04 00
        E 17 b4 04 00
        E 17 b4 04 00
        E 17 b4 04 00
        E 17 b4 04 00
        E 17 b4 04 01
        E 17 b4 04 01
        E 17 b4 04 01
        E 17 b4 04 01
        E 17 b4 04 01
        E 17 b4 04 02
        E 17 b4 04 02
        E 17 b4 04 02
        E 17 b4 04 02
        E 17 b4 04 03
        E 17 b4 04 03
        E 17 b4 04 03
        E 17 b4 04 03
        E 17 b4 04 04
        E 17 b4 04 04
        E 17 b4 04 04
        E 17 b4 04 05
        E 17 b4 04 05
        E 17 b4 04 05
        E 17 b4 04 06
        E 17 b4 04 06
        E 62 b4 04 20
        E 62 b4 04 21
        E 62 b4 04 23
        E 62 b4 04 24
        E 62 b4 04 26
        E 62 b4 04 27
        E 62 b4 04 29
        E 62 b4 04 2a
        E 62 b4 04 2c
        E 62 b4 04 2d
        E 62 b4 04 2f
        E 62 b4 04 30
        E 62 b4 04 31
        E 62 b4 04 33
        E 62 b4 04 34
        E 62 b4 04 35
        E 62 b4 04 36
        E 62 b4 04 37
        E 62 b4 04 38
        E 62 b4 04 39
        E 62 b4 04 3a
        E 62 b4 04 3b
        E 62 b4 04 3c
        E 62 b4 04 3c
        E 62 b4 04 3d
        E 62 b4 04 3d
        E 62 b4 04 3e
        E 62 b4 04 3e
        E 62 b4 04 3f
        E 62 b4 04 3f
        E 62 b4 04 3f
        E 62 b4 04 3f
        E 62 b4 04 3f
        E 62 b4 04 3f
        E 62 b4 04 3f
        E 62 b4 04 3f
        E 62 b4 04 3f
        E 62 b4 04 3e
        E 62 b4 04 3e
        E 62 b4 04 3d
        E 62 b4 04 3d
        E 62 b4 04 3c
        E 62 b4 04 3b
        E 62 b4 04 3a
        E 62 b4 04 3a
        E 62 b4 04 39
        E 62 b4 04 38
        E 62 b4 04 37
        E 62 b4 04 36
        E 62 b4 04 34
        E 62 b4 04 33
        E 62 b4 04 32
        E 62 b4 04 31
        E 62 b4 04 2f
        E 62 b4 04 2e
        E 62 b4 04 2c
        E 62 b4 04 2b
        E 62 b4 04 2a
        E 62 b4 04 28
        E 62 b4 04 27
        E 62 b4 04 25
        E 62 b4 04 23
        E 62 b4 04 22
        E 62 b4 04 20
        E 62 b4 04 1f
        E 62 b4 04 1d
        E 62 b4 04 1c
        E 62 b4 04 1a
        E 62 b4 04 18
        E 62 b4 04 17
        E 62 b4 04 15
        E 62 b4 04 14
        E 62 b4 04 13
        E 62 b4 04 11
        E 62 b4 04 10
        E 62 b4 04 0e
        E 62 b4 04 0d
        E 62 b4 04 0c
        E 62 b4 04 0b
        E 62 b4 04 09
        E 62 b4 04 08
        E 62 b4 04 07
        E 62 b4 04 06
        E 62 b4 04 05
        E 62 b4 04 05
        E 62 b4 04 04
        E 62 b4 04 03
        E 62 b4 04 02
        E 62 b4 04 02
        E 62 b4 04 01
        E 62 b4 04 01
        E 62 b4 04 00
        E 62 b4 04 00
        E 62 b4 04 00
        E 62 b4 04 00
        E 62 b4 04 00
        E 62 b4 04 00
        E 62 b4 04 00
        E 62 b4 04 00
        E 62 b4 04 00
        E 62 b4 04 01
        E 62 b4 04 01
        E 62 b4 04 02
        E 62 b4 04 02
        E 62 b4 04 03
        E 62 b4 04 03
        E 62 b4 04 04
        E 62 b4 04 05
        E 62 b4 04 06
        E 62 b4 04 07
        E 62 b4 04 08
        E 62 b4 04 09
        E 62 b4 04 0a
        E 62 b4 04 0b
        E 62 b4 04 0c
        E 62 b4 04 0e
        E 62 b4 04 0f
        E 62 b4 04 10
        E 62 b4 04 12
        E 62 b4 04 13
        E 62 b4 04 15
        E 62 b4 04 16
        E 62 b4 04 18
        E 62 b4 04 19
        E 62 b4 04 1b
        E 62 b4 04 1c
        E 62 b4 04 1e
        E 62 b4 04 20
        E 30 b4 04 19
        E 30 b4 04 56
        E 30 b4 04 38
        E 30 b4 04 09
        E 30 b4 04 51
        E 30 b4 04 48
        E 30 b4 04 0a
        E 30 b4 04 09
        E 30 b4 04 36
        E 30 b4 04 6c
        E 30 b4 04 5a
        E 30 b4 04 63
        E 30 b4 04 47
        E 30 b4 04 0c
        E 30 b4 04 15
        E 30 b4 04 4d
        E 30 b4 04 3f
        E 30 b4 04 20
        E 30 b4 04 16
        E 30 b4 04 1e
        E 30 b4 04 59
        E 30 b4 04 35
        E 30 b4 04 1b
        E 30 b4 04 41
        E 30 b4 04 71
        E 30 b4 04 00
        E 30 b4 04 0e
        E 30 b4 04 2e
        E 30 b4 04 26
        E 30 b4 04 5d
        E 30 b4 04 18
        E 30 b4 04 07
        E 30 b4 04 12
        E 30 b4 04 13
        E 30 b4 04 67
        E 30 b4 04 1c
        E 30 b4 04 00
        E 30 b4 04 54
        E 30 b4 04 27
        E 30 b4 04 17
        E 30 b4 04 2d
        E 30 b4 04 1d
        E 30 b4 04 61
        E 30 b4 04 60
        E 30 b4 04 72
        E 30 b4 04 5f
        E 30 b4 04 31
        E 30 b4 04 6a
        E 30 b4 04 51
        E 30 b4 04 0d
        E 30 b4 04 32
        E 30 b4 04 3d
        E 30 b4 04 6c
        E 30 b4 04 57
        E 30 b4 04 3e
        E 30 b4 04 3f
        E 30 b4 04 05
        E 30 b4 04 0b
        E 30 b4 04 69
        E 30 b4 04 5b
        E 30 b4 04 30
        E 30 b4 04 24
        E 30 b4 04 0f
        E 30 b4 04 33
        E 30 b4 04 22
        E 30 b4 04 1b
        E 30 b4 04 2b
        E 30 b4 04 3b
        E 30 b4 04 45
        E 30 b4 04 49
        E 30 b4 04 12
        E 30 b4 04 44
        E 30 b4 04 65
        E 30 b4 04 3a
        E 30 b4 04 42
        E 30 b4 04 02
        E 30 b4 04 08
        E 30 b4 04 70
        E 30 b4 04 4a
        E 30 b4 04 14
        E 30 b4 04 68
        E 30 b4 04 24
        E 30 b4 04 2c
        E 30 b4 04 37
        E 30 b4 04 2d
        E 30 b4 04 4c
        E 30 b4 04 5c
        E 30 b4 04 21
        E 30 b4 04 40
        E 30 b4 04 1a
        E 30 b4 04 66
        E 30 b4 04 5e
        E 30 b4 04 34
        E 30 b4 04 29
        E 30 b4 04 5a
        E 30 b4 04 2a
        E 30 b4 04 50
        E 30 b4 04 10
        E 30 b4 04 01
        E 30 b4 04 25
        E 30 b4 04 39
        E 30 b4 04 62
        E 30 b4 04 58
        E 30 b4 04 03
        E 30 b4 04 63
        E 30 b4 04 53
        E 30 b4 04 06
        E 30 b4 04 23
        E 30 b4 04 43
        E 30 b4 04 55
        E 30 b4 04 6d
        E 30 b4 04 46
        E 30 b4 04 2f
        E 30 b4 04 1f
        E 30 b4 04 4f
        E 30 b4 04 52
        E 30 b4 04 64
        E 30 b4 04 6f
        E 30 b4 04 36
        E 30 b4 04 48
        E 30 b4 04 4e
        E 30 b4 04 3c
        E 30 b4 04 6b
        E 30 b4 04 11
        E 30 b4 04 28
        E 30 b4 04 4b
        E 20 b4 04 05
        E 20 b4 04 13
        E 20 b4 04 0c
        E 20 b4 04 02
        E 20 b4 04 12
        E 20 b4 04 10
        E 20 b4 04 02
        E 20 b4 04 02
        E 20 b4 04 0c
        E 20 b4 04 18
        E 20 b4 04 14
        E 20 b4 04 16
        E 20 b4 04 0f
        E 20 b4 04 02
        E 20 b4 04 04
        E 20 b4 04 11
        E 20 b4 04 0e
        E 20 b4 04 07
        E 20 b4 04 05
        E 20 b4 04 06
        E 20 b4 04 13
        E 20 b4 04 0b
        E 20 b4 04 06
        E 20 b4 04 0e
        E 20 b4 04 19
        E 20 b4 04 00
        E 20 b4 04 03
        E 20 b4 04 0a
        E 20 b4 04 08
        E 20 b4 04 14
        E 20 b4 04 05
        E 20 b4 04 01
        E 20 b4 04 04
        E 20 b4 04 04
        E 20 b4 04 17
        E 20 b4 04 06
        E 20 b4 04 00
        E 20 b4 04 12
        E 20 b4 04 08
        E 20 b4 04 05
        E 20 b4 04 0a
        E 20 b4 04 06
        E 20 b4 04 15
        E 20 b4 04 15
        E 20 b4 04 19
        E 20 b4 04 15
        E 20 b4 04 0b
        E 20 b4 04 17
        E 20 b4 04 12
        E 20 b4 04 03
        E 20 b4 04 0b
        E 20 b4 04 0d
        E 20 b4 04 18
        E 20 b4 04 13
        E 20 b4 04 0d
        E 20 b4 04 0e
        E 20 b4 04 01
        E 20 b4 04 02
        E 20 b4 04 17
        E 20 b4 04 14
        E 20 b4 04 0a
        E 20 b4 04 08
        E 20 b4 04 03
        E 20 b4 04 0b
        E 20 b4 04 07
        E 20 b4 04 06
        E 20 b4 04 09
        E 20 b4 04 0d
        E 20 b4 04 0f
        E 20 b4 04 10
        E 20 b4 04 04
        E 20 b4 04 0f
        E 20 b4 04 16
        E 20 b4 04 0d
        E 20 b4 04 0e
        E 20 b4 04 00
        E 20 b4 04 01
        E 20 b4 04 19
        E 20 b4 04 10
        E 20 b4 04 04
        E 20 b4 04 17
        E 20 b4 04 08
        E 20 b4 04 09
        E 20 b4 04 0c
        E 20 b4 04 0a
        E 20 b4 04 11
        E 20 b4 04 14
        E 20 b4 04 07
        E 20 b4 04 0e
        E 20 b4 04 05
        E 20 b4 04 16
        E 20 b4 04 15
        E 20 b4 04 0b
        E 20 b4 04 09
        E 20 b4 04 14
        E 20 b4 04 09
        E 20 b4 04 11
        E 20 b4 04 03
        E 20 b4 04 00
        E 20 b4 04 08
        E 20 b4 04 0c
        E 20 b4 04 15
        E 20 b4 04 13
        E 20 b4 04 00
        E 20 b4 04 16
        E 20 b4 04 12
        E 20 b4 04 01
        E 20 b4 04 07
        E 20 b4 04 0f
        E 20 b4 04 13
        E 20 b4 04 18
        E 20 b4 04 0f
        E 20 b4 04 0a
        E 20 b4 04 07
        E 20 b4 04 11
        E 20 b4 04 12
        E 20 b4 04 16
        E 20 b4 04 18
        E 20 b4 04 0c
        E 20 b4 04 10
        E 20 b4 04 11
        E 20 b4 04 0d
        E 20 b4 04 17
        E 20 b4 04 03
        E 20 b4 04 09
        E 20 b4 04 10
        E 8 b4 04 19
        E 8 b4 04 1a
        E 8 b4 04 1c
        E 8 b4 04 1d
        E 8 b4 04 1e
        E 8 b4 04 1f
        E 8 b4 04 20
        E 8 b4 04 22
        E 8 b4 04 23
        E 8 b4 04 24
        E 8 b4 04 25
        E 8 b4 04 26
        E 8 b4 04 27
        E 8 b4 04 28
        E 8 b4 04 29
        E 8 b4 04 2a
        E 8 b4 04 2b
        E 8 b4 04 2c
        E 8 b4 04 2d
        E 8 b4 04 2e
        E 8 b4 04 2e
        E 8 b4 04 2f
        E 8 b4 04 30
        E 8 b4 04 30
        E 8 b4 04 30
        E 8 b4 04 31
        E 8 b4 04 31
        E 8 b4 04 32
        E 8 b4 04 32
        E 8 b4 04 32
        E 8 b4 04 32
        E 8 b4 04 32
        E 8 b4 04 32
        E 8 b4 04 32
        E 8 b4 04 32
        E 8 b4 04 32
        E 8 b4 04 32
        E 8 b4 04 32
        E 8 b4 04 31
        E 8 b4 04 31
        E 8 b4 04 30
        E 8 b4 04 30
        E 8 b4 04 2f
        E 8 b4 04 2e
        E 8 b4 04 2e
        E 8 b4 04 2d
        E 8 b4 04 2c
        E 8 b4 04 2c
        E 8 b4 04 2b
        E 8 b4 04 2a
        E 8 b4 04 29
        E 8 b4 04 28
        E 8 b4 04 27
        E 8 b4 04 26
        E 8 b4 04 24
        E 8 b4 04 23
        E 8 b4 04 22
        E 8 b4 04 21
        E 8 b4 04 20
        E 8 b4 04 1f
        E 8 b4 04 1d
        E 8 b4 04 1c
        E 8 b4 04 1b
        E 8 b4 04 1a
        E 8 b4 04 18
        E 8 b4 04 17
        E 8 b4 04 16
        E 8 b4 04 15
        E 8 b4 04 13
        E 8 b4 04 12
        E 8 b4 04 11
        E 8 b4 04 10
        E 8 b4 04 0f
        E 8 b4 04 0e
        E 8 b4 04 0c
        E 8 b4 04 0b
        E 8 b4 04 0a
        E 8 b4 04 09
        E 8 b4 04 08
        E 8 b4 04 07
        E 8 b4 04 06
        E 8 b4 04 06
        E 8 b4 04 05
        E 8 b4 04 04
        E 8 b4 04 04
        E 8 b4 04 03
        E 8 b4 04 02
        E 8 b4 04 02
        E 8 b4 04 01
        E 8 b4 04 01
        E 8 b4 04 00
        E 8 b4 04 00
        E 8 b4 04 00
        E 8 b4 04 00
        E 8 b4 04 00
        E 8 b4 04 00
        E 8 b4 04 00
        E 8 b4 04 00
        E 8 b4 04 00
        E 8 b4 04 00
        E 8 b4 04 00
        E 8 b4 04 01
        E 8 b4 04 01
        E 8 b4 04 02
        E 8 b4 04 02
        E 8 b4 04 02
        E 8 b4 04 03
        E 8 b4 04 04
        E 8 b4 04 04
        E 8 b4 04 05
        E 8 b4 04 06
        E 8 b4 04 07
        E 8 b4 04 08
        E 8 b4 04 09
        E 8 b4 04 0a
        E 8 b4 04 0b
        E 8 b4 04 0c
        E 8 b4 04 0d
        E 8 b4 04 0e
        E 8 b4 04 0f
        E 8 b4 04 10
        E 8 b4 04 12
        E 8 b4 04 13
        E 8 b4 04 14
        E 8 b4 04 15
        E 8 b4 04 16
        E 8 b4 04 18
        E 8 b4 04 19
        E 21 b4 04 06
        E 21 b4 04 06
        E 21 b4 04 07
        E 21 b4 04 07
        E 21 b4 04 07
        E 21 b4 04 07
        E 21 b4 04 08
        E 21 b4 04 08
        E 21 b4 04 08
        E 21 b4 04 09
        E 21 b4 04 09
        E 21 b4 04 09
        E 21 b4 04 09
        E 21 b4 04 0a
        E 21 b4 04 0a
        E 21 b4 04 0a
        E 21 b4 04 0a
        E 21 b4 04 0b
        E 21 b4 04 0b
        E 21 b4 04 0b
        E 21 b4 04 0b
        E 21 b4 04 0b
        E 21 b4 04 0c
        E 21 b4 04 0c
        E 21 b4 04 0c
        E 21 b4 04 0c
        E 21 b4 04 0c
        E 21 b4 04 0c
        E 21 b4 04 0c
        E 21 b4 04 0c
        E 21 b4 04 0c
        E 21 b4 04 0c
        E 21 b4 04 0c
        E 21 b4 04 0c
        E 21 b4 04 0c
        E 21 b4 04 0c
        E 21 b4 04 0c
        E 21 b4 04 0c
        E 21 b4 04 0c
        E 21 b4 04 0c
        E 21 b4 04 0c
        E 21 b4 04 0c
        E 21 b4 04 0b
        E 21 b4 04 0b
        E 21 b4 04 0b
        E 21 b4 04 0b
        E 21 b4 04 0b
        E 21 b4 04 0b
        E 21 b4 04 0a
        E 21 b4 04 0a
        E 21 b4 04 0a
        E 21 b4 04 0a
        E 21 b4 04 09
        E 21 b4 04 09
        E 21 b4 04 09
        E 21 b4 04 08
        E 21 b4 04 08
        E 21 b4 04 08
        E 21 b4 04 08
        E 21 b4 04 07
        E 21 b4 04 07
        E 21 b4 04 07
        E 21 b4 04 06
        E 21 b4 04 06
        E 21 b4 04 06
        E 21 b4 04 05
        E 21 b4 04 05
        E 21 b4 04 05
        E 21 b4 04 04
        E 21 b4 04 04
        E 21 b4 04 04
        E 21 b4 04 04
        E 21 b4 04 03
        E 21 b4 04 03
        E 21 b4 04 03
        E 21 b4 04 02
        E 21 b4 04 02
        E 21 b4 04 02
        E 21 b4 04 02
        E 21 b4 04 01
        E 21 b4 04 01
        E 21 b4 04 01
        E 21 b4 04 01
        E 21 b4 04 01
        E 21 b4 04 01
        E 21 b4 04 00
        E 21 b4 04 00
        E 21 b4 04 00
        E 21 b4 04 00
        E 21 b4 04 00
        E 21 b4 04 00
        E 21 b4 04 00
        E 21 b4 04 00
        E 21 b4 04 00
        E 21 b4 04 00
        E 21 b4 04 00
        E 21 b4 04 00
        E 21 b4 04 00
        E 21 b4 04 00
        E 21 b4 04 00
        E 21 b4 04 00
        E 21 b4 04 00
        E 21 b4 04 00
        E 21 b4 04 00
        E 21 b4 04 00
        E 21 b4 04 00
        E 21 b4 04 00
        E 21 b4 04 01
        E 21 b4 04 01
        E 21 b4 04 01
        E 21 b4 04 01
        E 21 b4 04 01
        E 21 b4 04 02
        E 21 b4 04 02
        E 21 b4 04 02
        E 21 b4 04 02
        E 21 b4 04 03
        E 21 b4 04 03
        E 21 b4 04 03
        E 21 b4 04 03
        E 21 b4 04 04
        E 21 b4 04 04
        E 21 b4 04 04
        E 21 b4 04 05
        E 21 b4 04 05
        E 21 b4 04 05
        E 21 b4 04 06
        E 21 b4 04 06
        E 18 b4 04 39
        E 18 b4 04 3c
        E 18 b4 04 3f
        E 18 b4 04 41
        E 18 b4 04 44
        E 18 b4 04 47
        E 18 b4 04 49
        E 18 b4 04 4c
        E 18 b4 04 4f
        E 18 b4 04 51
        E 18 b4 04 54
        E 18 b4 04 56
        E 18 b4 04 59
        E 18 b4 04 5b
        E 18 b4 04 5d
        E 18 b4 04 5f
        E 18 b4 04 62
        E 18 b4 04 63
        E 18 b4 04 65
        E 18 b4 04 67
        E 18 b4 04 69
        E 18 b4 04 6a
        E 18 b4 04 6c
        E 18 b4 04 6c
        E 18 b4 04 6d
        E 18 b4 04 6e
        E 18 b4 04 6f
        E 18 b4 04 70
        E 18 b4 04 71
        E 18 b4 04 71
        E 18 b4 04 72
        E 18 b4 04 72
        E 18 b4 04 72
        E 18 b4 04 72
        E 18 b4 04 72
        E 18 b4 04 71
        E 18 b4 04 71
        E 18 b4 04 70
        E 18 b4 04 6f
        E 18 b4 04 6e
        E 18 b4 04 6d
        E 18 b4 04 6c
        E 18 b4 04 6b
        E 18 b4 04 69
        E 18 b4 04 68
        E 18 b4 04 66
        E 18 b4 04 64
        E 18 b4 04 63
        E 18 b4 04 61
        E 18 b4 04 5e
        E 18 b4 04 5c
        E 18 b4 04 5a
        E 18 b4 04 58
        E 18 b4 04 55
        E 18 b4 04 52
        E 18 b4 04 50
        E 18 b4 04 4e
        E 18 b4 04 4b
        E 18 b4 04 48
        E 18 b4 04 46
        E 18 b4 04 42
        E 18 b4 04 3f
        E 18 b4 04 3d
        E 18 b4 04 3a
        E 18 b4 04 37
        E 18 b4 04 35
        E 18 b4 04 32
        E 18 b4 04 2f
        E 18 b4 04 2c
        E 18 b4 04 29
        E 18 b4 04 26
        E 18 b4 04 24
        E 18 b4 04 22
        E 18 b4 04 1f
        E 18 b4 04 1c
        E 18 b4 04 1a
        E 18 b4 04 18
        E 18 b4 04 15
        E 18 b4 04 13
        E 18 b4 04 11
        E 18 b4 04 0f
        E 18 b4 04 0d
        E 18 b4 04 0b
        E 18 b4 04 09
        E 18 b4 04 09
        E 18 b4 04 07
        E 18 b4 04 06
        E 18 b4 04 04
        E 18 b4 04 03
        E 18 b4 04 02
        E 18 b4 04 01
        E 18 b4 04 00
        E 18 b4 04 00
        E 18 b4 04 00
        E 18 b4 04 00
        E 18 b4 04 00
        E 18 b4 04 00
        E 18 b4 04 00
        E 18 b4 04 00
        E 18 b4 04 00
        E 18 b4 04 01
        E 18 b4 04 02
        E 18 b4 04 03
        E 18 b4 04 04
        E 18 b4 04 05
        E 18 b4 04 06
        E 18 b4 04 08
        E 18 b4 04 09
        E 18 b4 04 0a
        E 18 b4 04 0c
        E 18 b4 04 0e
        E 18 b4 04 10
        E 18 b4 04 12
        E 18 b4 04 14
        E 18 b4 04 16
        E 18 b4 04 19
        E 18 b4 04 1b
        E 18 b4 04 1d
        E 18 b4 04 20
        E 18 b4 04 23
        E 18 b4 04 25
        E 18 b4 04 28
        E 18 b4 04 2b
        E 18 b4 04 2d
        E 18 b4 04 30
        E 18 b4 04 33
        E 18 b4 04 36
        E 18 b4 04 39
        E 12 b4 04 0c
        E 12 b4 04 0d
        E 12 b4 04 0e
        E 12 b4 04 0e
        E 12 b4 04 0f
        E 12 b4 04 0f
        E 12 b4 04 10
        E 12 b4 04 11
        E 12 b4 04 11
        E 12 b4 04 12
        E 12 b4 04 12
        E 12 b4 04 13
        E 12 b4 04 13
        E 12 b4 04 14
        E 12 b4 04 14
        E 12 b4 04 15
        E 12 b4 04 15
        E 12 b4 04 16
        E 12 b4 04 16
        E 12 b4 04 17
        E 12 b4 04 17
        E 12 b4 04 17
        E 12 b4 04 18
        E 12 b4 04 18
        E 12 b4 04 18
        E 12 b4 04 18
        E 12 b4 04 18
        E 12 b4 04 19
        E 12 b4 04 19
        E 12 b4 04 19
        E 12 b4 04 19
        E 12 b4 04 19
        E 12 b4 04 19
        E 12 b4 04 19
        E 12 b4 04 19
        E 12 b4 04 19
        E 12 b4 04 19
        E 12 b4 04 19
        E 12 b4 04 18
        E 12 b4 04 18
        E 12 b4 04 18
        E 12 b4 04 18
        E 12 b4 04 17
        E 12 b4 04 17
        E 12 b4 04 17
        E 12 b4 04 16
        E 12 b4 04 16
        E 12 b4 04 16
        E 12 b4 04 15
        E 12 b4 04 15
        E 12 b4 04 14
        E 12 b4 04 14
        E 12 b4 04 13
        E 12 b4 04 13
        E 12 b4 04 12
        E 12 b4 04 11
        E 12 b4 04 11
        E 12 b4 04 10
        E 12 b4 04 10
        E 12 b4 04 0f
        E 12 b4 04 0e
        E 12 b4 04 0e
        E 12 b4 04 0d
        E 12 b4 04 0d
        E 12 b4 04 0c
        E 12 b4 04 0b
        E 12 b4 04 0b
        E 12 b4 04 0a
        E 12 b4 04 09
        E 12 b4 04 09
        E 12 b4 04 08
        E 12 b4 04 08
        E 12 b4 04 07
        E 12 b4 04 07
        E 12 b4 04 06
        E 12 b4 04 05
        E 12 b4 04 05
        E 12 b4 04 04
        E 12 b4 04 04
        E 12 b4 04 03
        E 12 b4 04 03
        E 12 b4 04 03
        E 12 b4 04 02
        E 12 b4 04 02
        E 12 b4 04 02
        E 12 b4 04 01
        E 12 b4 04 01
        E 12 b4 04 01
        E 12 b4 04 00
        E 12 b4 04 00
        E 12 b4 04 00
        E 12 b4 04 00
        E 12 b4 04 00
        E 12 b4 04 00
        E 12 b4 04 00
        E 12 b4 04 00
        E 12 b4 04 00
        E 12 b4 04 00
        E 12 b4 04 00
        E 12 b4 04 00
        E 12 b4 04 00
        E 12 b4 04 00
        E 12 b4 04 00
        E 12 b4 04 01
        E 12 b4 04 01
        E 12 b4 04 01
        E 12 b4 04 01
        E 12 b4 04 02
        E 12 b4 04 02
        E 12 b4 04 02
        E 12 b4 04 03
        E 12 b4 04 03
        E 12 b4 04 04
        E 12 b4 04 04
        E 12 b4 04 05
        E 12 b4 04 05
        E 12 b4 04 06
        E 12 b4 04 06
        E 12 b4 04 07
        E 12 b4 04 07
        E 12 b4 04 08
        E 12 b4 04 09
        E 12 b4 04 09
        E 12 b4 04 0a
        E 12 b4 04 0a
        E 12 b4 04 0b
        E 12 b4 04 0c
        E 12 b4 04 0c
        E 4 b4 04 06
        E 4 b4 04 06
        E 4 b4 04 07
        E 4 b4 04 07
        E 4 b4 04 07
        E 4 b4 04 07
        E 4 b4 04 08
        E 4 b4 04 08
        E 4 b4 04 08
        E 4 b4 04 09
        E 4 b4 04 09
        E 4 b4 04 09
        E 4 b4 04 09
        E 4 b4 04 0a
        E 4 b4 04 0a
        E 4 b4 04 0a
        E 4 b4 04 0a
        E 4 b4 04 0b
        E 4 b4 04 0b
        E 4 b4 04 0b
        E 4 b4 04 0b
        E 4 b4 04 0b
        E 4 b4 04 0c
        E 4 b4 04 0c
        E 4 b4 04 0c
        E 4 b4 04 0c
        E 4 b4 04 0c
        E 4 b4 04 0c
        E 4 b4 04 0c
        E 4 b4 04 0c
        E 4 b4 04 0c
        E 4 b4 04 0c
        E 4 b4 04 0c
        E 4 b4 04 0c
        E 4 b4 04 0c
        E 4 b4 04 0c
        E 4 b4 04 0c
        E 4 b4 04 0c
        E 4 b4 04 0c
        E 4 b4 04 0c
        E 4 b4 04 0c
        E 4 b4 04 0c
        E 4 b4 04 0b
        E 4 b4 04 0b
        E 4 b4 04 0b
        E 4 b4 04 0b
        E 4 b4 04 0b
        E 4 b4 04 0b
        E 4 b4 04 0a
        E 4 b4 04 0a
        E 4 b4 04 0a
        E 4 b4 04 0a
        E 4 b4 04 09
        E 4 b4 04 09
        E 4 b4 04 09
        E 4 b4 04 08
        E 4 b4 04 08
        E 4 b4 04 08
        E 4 b4 04 08
        E 4 b4 04 07
        E 4 b4 04 07
        E 4 b4 04 07
        E 4 b4 04 06
        E 4 b4 04 06
        E 4 b4 04 06
        E 4 b4 04 05
        E 4 b4 04 05
        E 4 b4 04 05
        E 4 b4 04 04
        E 4 b4 04 04
        E 4 b4 04 04
        E 4 b4 04 04
        E 4 b4 04 03
        E 4 b4 04 03
        E 4 b4 04 03
        E 4 b4 04 02
        E 4 b4 04 02
        E 4 b4 04 02
        E 4 b4 04 02
        E 4 b4 04 01
        E 4 b4 04 01
        E 4 b4 04 01
        E 4 b4 04 01
        E 4 b4 04 01
        E 4 b4 04 01
        E 4 b4 04 00
        E 4 b4 04 00
        E 4 b4 04 00
        E 4 b4 04 00
        E 4 b4 04 00
        E 4 b4 04 00
        E 4 b4 04 00
        E 4 b4 04 00
        E 4 b4 04 00
        E 4 b4 04 00
        E 4 b4 04 00
        E 4 b4 04 00
        E 4 b4 04 00
        E 4 b4 04 00
        E 4 b4 04 00
        E 4 b4 04 00
        E 4 b4 04 00
        E 4 b4 04 00
        E 4 b4 04 00
        E 4 b4 04 00
        E 4 b4 04 00
        E 4 b4 04 00
        E 4 b4 04 01
        E 4 b4 04 01
        E 4 b4 04 01
        E 4 b4 04 01
        E 4 b4 04 01
        E 4 b4 04 02
        E 4 b4 04 02
        E 4 b4 04 02
        E 4 b4 04 02
        E 4 b4 04 03
        E 4 b4 04 03
        E 4 b4 04 03
        E 4 b4 04 03
        E 4 b4 04 04
        E 4 b4 04 04
        E 4 b4 04 04
        E 4 b4 04 05
        E 4 b4 04 05
        E 4 b4 04 05
        E 4 b4 04 06
        E 4 b4 04 06
        E 14 b4 04 20
        E 14 b4 04 21
        E 14 b4 04 23
        E 14 b4 04 24
        E 14 b4 04 26
        E 14 b4 04 27
        E 14 b4 04 29
        E 14 b4 04 2a
        E 14 b4 04 2c
        E 14 b4 04 2d
        E 14 b4 04 2f
        E 14 b4 04 30
        E 14 b4 04 31
        E 14 b4 04 33
        E 14 b4 04 34
        E 14 b4 04 35
        E 14 b4 04 36
        E 14 b4 04 37
        E 14 b4 04 38
        E 14 b4 04 39
        E 14 b4 04 3a
        E 14 b4 04 3b
        E 14 b4 04 3c
        E 14 b4 04 3c
        E 14 b4 04 3d
        E 14 b4 04 3d
        E 14 b4 04 3e
        E 14 b4 04 3e
        E 14 b4 04 3f
        E 14 b4 04 3f
        E 14 b4 04 3f
        E 14 b4 04 3f
        E 14 b4 04 3f
        E 14 b4 04 3f
        E 14 b4 04 3f
        E 14 b4 04 3f
        E 14 b4 04 3f
        E 14 b4 04 3e
        E 14 b4 04 3e
        E 14 b4 04 3d
        E 14 b4 04 3d
        E 14 b4 04 3c
        E 14 b4 04 3b
        E 14 b4 04 3a
        E 14 b4 04 3a
        E 14 b4 04 39
        E 14 b4 04 38
        E 14 b4 04 37
        E 14 b4 04 36
        E 14 b4 04 34
        E 14 b4 04 33
        E 14 b4 04 32
        E 14 b4 04 31
        E 14 b4 04 2f
        E 14 b4 04 2e
        E 14 b4 04 2c
        E 14 b4 04 2b
        E 14 b4 04 2a
        E 14 b4 04 28
        E 14 b4 04 27
        E 14 b4 04 25
        E 14 b4 04 23
        E 14 b4 04 22
        E 14 b4 04 20
        E 14 b4 04 1f
        E 14 b4 04 1d
        E 14 b4 04 1c
        E 14 b4 04 1a
        E 14 b4 04 18
        E 14 b4 04 17
        E 14 b4 04 15
        E 14 b4 04 14
        E 14 b4 04 13
        E 14 b4 04 11
        E 14 b4 04 10
        E 14 b4 04 0e
        E 14 b4 04 0d
        E 14 b4 04 0c
        E 14 b4 04 0b
        E 14 b4 04 09
        E 14 b4 04 08
        E 14 b4 04 07
        E 14 b4 04 06
        E 14 b4 04 05
        E 14 b4 04 05
        E 14 b4 04 04
        E 14 b4 04 03
        E 14 b4 04 02
        E 14 b4 04 02
        E 14 b4 04 01
        E 14 b4 04 01
        E 14 b4 04 00
        E 14 b4 04 00
        E 14 b4 04 00
        E 14 b4 04 00
        E 14 b4 04 00
        E 14 b4 04 00
        E 14 b4 04 00
        E 14 b4 04 00
        E 14 b4 04 00
        E 14 b4 04 01
        E 14 b4 04 01
        E 14 b4 04 02
        E 14 b4 04 02
        E 14 b4 04 03
        E 14 b4 04 03
        E 14 b4 04 04
        E 14 b4 04 05
        E 14 b4 04 06
        E 14 b4 04 07
        E 14 b4 04 08
        E 14 b4 04 09
        E 14 b4 04 0a
        E 14 b4 04 0b
        E 14 b4 04 0c
        E 14 b4 04 0e
        E 14 b4 04 0f
        E 14 b4 04 10
        E 14 b4 04 12
        E 14 b4 04 13
        E 14 b4 04 15
        E 14 b4 04 16
        E 14 b4 04 18
        E 14 b4 04 19
        E 14 b4 04 1b
        E 14 b4 04 1c
        E 14 b4 04 1e
        E 14 b4 04 20
        E 8 b4 04 19
        E 8 b4 04 1a
        E 8 b4 04 1c
        E 8 b4 04 1d
        E 8 b4 04 1e
        E 8 b4 04 1f
        E 8 b4 04 20
        E 8 b4 04 22
        E 8 b4 04 23
        E 8 b4 04 24
        E 8 b4 04 25
        E 8 b4 04 26
        E 8 b4 04 27
        E 8 b4 04 28
        E 8 b4 04 29
        E 8 b4 04 2a
        E 8 b4 04 2b
        E 8 b4 04 2c
        E 8 b4 04 2d
        E 8 b4 04 2e
        E 8 b4 04 2e
        E 8 b4 04 2f
        E 8 b4 04 30
        E 8 b4 04 30
        E 8 b4 04 30
        E 8 b4 04 31
        E 8 b4 04 31
        E 8 b4 04 32
        E 8 b4 04 32
        E 8 b4 04 32
        E 8 b4 04 32
        E 8 b4 04 32
        E 8 b4 04 32
        E 8 b4 04 32
        E 8 b4 04 32
        E 8 b4 04 32
        E 8 b4 04 32
        E 8 b4 04 32
        E 8 b4 04 31
        E 8 b4 04 31
        E 8 b4 04 30
        E 8 b4 04 30
        E 8 b4 04 2f
        E 8 b4 04 2e
        E 8 b4 04 2e
        E 8 b4 04 2d
        E 8 b4 04 2c
        E 8 b4 04 2c
        E 8 b4 04 2b
        E 8 b4 04 2a
        E 8 b4 04 29
        E 8 b4 04 28
        E 8 b4 04 27
        E 8 b4 04 26
        E 8 b4 04 24
        E 8 b4 04 23
        E 8 b4 04 22
        E 8 b4 04 21
        E 8 b4 04 20
        E 8 b4 04 1f
        E 8 b4 04 1d
        E 8 b4 04 1c
        E 8 b4 04 1b
        E 8 b4 04 1a
        E 8 b4 04 18
        E 8 b4 04 17
        E 8 b4 04 16
        E 8 b4 04 15
        E 8 b4 04 13
        E 8 b4 04 12
        E 8 b4 04 11
        E 8 b4 04 10
        E 8 b4 04 0f
        E 8 b4 04 0e
        E 8 b4 04 0c
        E 8 b4 04 0b
        E 8 b4 04 0a
        E 8 b4 04 09
        E 8 b4 04 08
        E 8 b4 04 07
        E 8 b4 04 06
        E 8 b4 04 06
        E 8 b4 04 05
        E 8 b4 04 04
        E 8 b4 04 04
        E 8 b4 04 03
        E 8 b4 04 02
        E 8 b4 04 02
        E 8 b4 04 01
        E 8 b4 04 01
        E 8 b4 04 00
        E 8 b4 04 00
        E 8 b4 04 00
        E 8 b4 04 00
        E 8 b4 04 00
        E 8 b4 04 00
        E 8 b4 04 00
        E 8 b4 04 00
        E 8 b4 04 00
        E 8 b4 04 00
        E 8 b4 04 00
        E 8 b4 04 01
        E 8 b4 04 01
        E 8 b4 04 02
        E 8 b4 04 02
        E 8 b4 04 02
        E 8 b4 04 03
        E 8 b4 04 04
        E 8 b4 04 04
        E 8 b4 04 05
        E 8 b4 04 06
        E 8 b4 04 07
        E 8 b4 04 08
        E 8 b4 04 09
        E 8 b4 04 0a
        E 8 b4 04 0b
        E 8 b4 04 0c
        E 8 b4 04 0d
        E 8 b4 04 0e
        E 8 b4 04 0f
        E 8 b4 04 10
        E 8 b4 04 12
        E 8 b4 04 13
        E 8 b4 04 14
        E 8 b4 04 15
        E 8 b4 04 16
        E 8 b4 04 18
        E 8 b4 04 19
        E 21 b4 04 06
        E 21 b4 04 06
        E 21 b4 04 07
        E 21 b4 04 07
        E 21 b4 04 07
        E 21 b4 04 07
        E 21 b4 04 08
        E 21 b4 04 08
        E 21 b4 04 08
        E 21 b4 04 09
        E 21 b4 04 09
        E 21 b4 04 09
        E 21 b4 04 09
        E 21 b4 04 0a
        E 21 b4 04 0a
        E 21 b4 04 0a
        E 21 b4 04 0a
        E 21 b4 04 0b
        E 21 b4 04 0b
        E 21 b4 04 0b
        E 21 b4 04 0b
        E 21 b4 04 0b
        E 21 b4 04 0c
        E 21 b4 04 0c
        E 21 b4 04 0c
        E 21 b4 04 0c
        E 21 b4 04 0c
        E 21 b4 04 0c
        E 21 b4 04 0c
        E 21 b4 04 0c
        E 21 b4 04 0c
        E 21 b4 04 0c
        E 21 b4 04 0c
        E 21 b4 04 0c
        E 21 b4 04 0c
        E 21 b4 04 0c
        E 21 b4 04 0c
        E 21 b4 04 0c
        E 21 b4 04 0c
        E 21 b4 04 0c
        E 21 b4 04 0c
        E 21 b4 04 0c
        E 21 b4 04 0b
        E 21 b4 04 0b
        E 21 b4 04 0b
        E 21 b4 04 0b
        E 21 b4 04 0b
        E 21 b4 04 0b
        E 21 b4 04 0a
        E 21 b4 04 0a
        E 21 b4 04 0a
        E 21 b4 04 0a
        E 21 b4 04 09
        E 21 b4 04 09
        E 21 b4 04 09
        E 21 b4 04 08
        E 21 b4 04 08
        E 21 b4 04 08
        E 21 b4 04 08
        E 21 b4 04 07
        E 21 b4 04 07
        E 21 b4 04 07
        E 21 b4 04 06
        E 21 b4 04 06
        E 21 b4 04 06
        E 21 b4 04 05
        E 21 b4 04 05
        E 21 b4 04 05
        E 21 b4 04 04
        E 21 b4 04 04
        E 21 b4 04 04
        E 21 b4 04 04
        E 21 b4 04 03
        E 21 b4 04 03
        E 21 b4 04 03
        E 21 b4 04 02
        E 21 b4 04 02
        E 21 b4 04 02
        E 21 b4 04 02
        E 21 b4 04 01
        E 21 b4 04 01
        E 21 b4 04 01
        E 21 b4 04 01
        E 21 b4 04 01
        E 21 b4 04 01
        E 21 b4 04 00
        E 21 b4 04 00
        E 21 b4 04 00
        E 21 b4 04 00
        E 21 b4 04 00
        E 21 b4 04 00
        E 21 b4 04 00
        E 21 b4 04 00
        E 21 b4 04 00
        E 21 b4 04 00
        E 21 b4 04 00
        E 21 b4 04 00
        E 21 b4 04 00
        E 21 b4 04 00
        E 21 b4 04 00
        E 21 b4 04 00
        E 21 b4 04 00
        E 21 b4 04 00
        E 21 b4 04 00
        E 21 b4 04 00
        E 21 b4 04 00
        E 21 b4 04 00
        E 21 b4 04 01
        E 21 b4 04 01
        E 21 b4 04 01
        E 21 b4 04 01
        E 21 b4 04 01
        E 21 b4 04 02
        E 21 b4 04 02
        E 21 b4 04 02
        E 21 b4 04 02
        E 21 b4 04 03
        E 21 b4 04 03
        E 21 b4 04 03
        E 21 b4 04 03
        E 21 b4 04 04
        E 21 b4 04 04
        E 21 b4 04 04
        E 21 b4 04 05
        E 21 b4 04 05
        E 21 b4 04 05
        E 21 b4 04 06
        E 21 b4 04 06
        E 18 b4 04 39
        E 18 b4 04 3c
        E 18 b4 04 3f
        E 18 b4 04 41
        E 18 b4 04 44
        E 18 b4 04 47
        E 18 b4 04 49
        E 18 b4 04 4c
        E 18 b4 04 4f
        E 18 b4 04 51
        E 18 b4 04 54
        E 18 b4 04 56
        E 18 b4 04 59
        E 18 b4 04 5b
        E 18 b4 04 5d
        E 18 b4 04 5f
        E 18 b4 04 62
        E 18 b4 04 63
        E 18 b4 04 65
        E 18 b4 04 67
        E 18 b4 04 69
        E 18 b4 04 6a
        E 18 b4 04 6c
        E 18 b4 04 6c
        E 18 b4 04 6d
        E 18 b4 04 6e
        E 18 b4 04 6f
        E 18 b4 04 70
        E 18 b4 04 71
        E 18 b4 04 71
        E 18 b4 04 72
        E 18 b4 04 72
        E 18 b4 04 72
        E 18 b4 04 72
        E 18 b4 04 72
        E 18 b4 04 71
        E 18 b4 04 71
        E 18 b4 04 70
        E 18 b4 04 6f
        E 18 b4 04 6e
        E 18 b4 04 6d
        E 18 b4 04 6c
        E 18 b4 04 6b
        E 18 b4 04 69
        E 18 b4 04 68
        E 18 b4 04 66
        E 18 b4 04 64
        E 18 b4 04 63
        E 18 b4 04 61
        E 18 b4 04 5e
        E 18 b4 04 5c
        E 18 b4 04 5a
        E 18 b4 04 58
        E 18 b4 04 55
        E 18 b4 04 52
        E 18 b4 04 50
        E 18 b4 04 4e
        E 18 b4 04 4b
        E 18 b4 04 48
        E 18 b4 04 46
        E 18 b4 04 42
        E 18 b4 04 3f
        E 18 b4 04 3d
        E 18 b4 04 3a
        E 18 b4 04 37
        E 18 b4 04 35
        E 18 b4 04 32
        E 18 b4 04 2f
        E 18 b4 04 2c
        E 18 b4 04 29
        E 18 b4 04 26
        E 18 b4 04 24
        E 18 b4 04 22
        E 18 b4 04 1f
        E 18 b4 04 1c
        E 18 b4 04 1a
        E 18 b4 04 18
        E 18 b4 04 15
        E 18 b4 04 13
        E 18 b4 04 11
        E 18 b4 04 0f
        E 18 b4 04 0d
        E 18 b4 04 0b
        E 18 b4 04 09
        E 18 b4 04 09
        E 18 b4 04 07
        E 18 b4 04 06
        E 18 b4 04 04
        E 18 b4 04 03
        E 18 b4 04 02
        E 18 b4 04 01
        E 18 b4 04 00
        E 18 b4 04 00
        E 18 b4 04 00
        E 18 b4 04 00
        E 18 b4 04 00
        E 18 b4 04 00
        E 18 b4 04 00
        E 18 b4 04 00
        E 18 b4 04 00
        E 18 b4 04 01
        E 18 b4 04 02
        E 18 b4 04 03
        E 18 b4 04 04
        E 18 b4 04 05
        E 18 b4 04 06
        E 18 b4 04 08
        E 18 b4 04 09
        E 18 b4 04 0a
        E 18 b4 04 0c
        E 18 b4 04 0e
        E 18 b4 04 10
        E 18 b4 04 12
        E 18 b4 04 14
        E 18 b4 04 16
        E 18 b4 04 19
        E 18 b4 04 1b
        E 18 b4 04 1d
        E 18 b4 04 20
        E 18 b4 04 23
        E 18 b4 04 25
        E 18 b4 04 28
        E 18 b4 04 2b
        E 18 b4 04 2d
        E 18 b4 04 30
        E 18 b4 04 33
        E 18 b4 04 36
        E 18 b4 04 39
        E 12 b4 04 0c
        E 12 b4 04 0d
        E 12 b4 04 0e
        E 12 b4 04 0e
        E 12 b4 04 0f
        E 12 b4 04 0f
        E 12 b4 04 10
        E 12 b4 04 11
        E 12 b4 04 11
        E 12 b4 04 12
        E 12 b4 04 12
        E 12 b4 04 13
        E 12 b4 04 13
        E 12 b4 04 14
        E 12 b4 04 14
        E 12 b4 04 15
        E 12 b4 04 15
        E 12 b4 04 16
        E 12 b4 04 16
        E 12 b4 04 17
        E 12 b4 04 17
        E 12 b4 04 17
        E 12 b4 04 18
        E 12 b4 04 18
        E 12 b4 04 18
        E 12 b4 04 18
        E 12 b4 04 18
        E 12 b4 04 19
        E 12 b4 04 19
        E 12 b4 04 19
        E 12 b4 04 19
        E 12 b4 04 19
        E 12 b4 04 19
        E 12 b4 04 19
        E 12 b4 04 19
        E 12 b4 04 19
        E 12 b4 04 19
        E 12 b4 04 19
        E 12 b4 04 18
        E 12 b4 04 18
        E 12 b4 04 18
        E 12 b4 04 18
        E 12 b4 04 17
        E 12 b4 04 17
        E 12 b4 04 17
        E 12 b4 04 16
        E 12 b4 04 16
        E 12 b4 04 16
        E 12 b4 04 15
        E 12 b4 04 15
        E 12 b4 04 14
        E 12 b4 04 14
        E 12 b4 04 13
        E 12 b4 04 13
        E 12 b4 04 12
        E 12 b4 04 11
        E 12 b4 04 11
        E 12 b4 04 10
        E 12 b4 04 10
        E 12 b4 04 0f
        E 12 b4 04 0e
        E 12 b4 04 0e
        E 12 b4 04 0d
        E 12 b4 04 0d
        E 12 b4 04 0c
        E 12 b4 04 0b
        E 12 b4 04 0b
        E 12 b4 04 0a
        E 12 b4 04 09
        E 12 b4 04 09
        E 12 b4 04 08
        E 12 b4 04 08
        E 12 b4 04 07
        E 12 b4 04 07
        E 12 b4 04 06
        E 12 b4 04 05
        E 12 b4 04 05
        E 12 b4 04 04
        E 12 b4 04 04
        E 12 b4 04 03
        E 12 b4 04 03
        E 12 b4 04 03
        E 12 b4 04 02
        E 12 b4 04 02
        E 12 b4 04 02
        E 12 b4 04 01
        E 12 b4 04 01
        E 12 b4 04 01
        E 12 b4 04 00
        E 12 b4 04 00
        E 12 b4 04 00
        E 12 b4 04 00
        E 12 b4 04 00
        E 12 b4 04 00
        E 12 b4 04 00
        E 12 b4 04 00
        E 12 b4 04 00
        E 12 b4 04 00
        E 12 b4 04 00
        E 12 b4 04 00
        E 12 b4 04 00
        E 12 b4 04 00
        E 12 b4 04 00
        E 12 b4 04 01
        E 12 b4 04 01
        E 12 b4 04 01
        E 12 b4 04 01
        E 12 b4 04 02
        E 12 b4 04 02
        E 12 b4 04 02
        E 12 b4 04 03
        E 12 b4 04 03
        E 12 b4 04 04
        E 12 b4 04 04
        E 12 b4 04 05
        E 12 b4 04 05
        E 12 b4 04 06
        E 12 b4 04 06
        E 12 b4 04 07
        E 12 b4 04 07
        E 12 b4 04 08
        E 12 b4 04 09
        E 12 b4 04 09
        E 12 b4 04 0a
        E 12 b4 04 0a
        E 12 b4 04 0b
        E 12 b4 04 0c
        E 12 b4 04 0c
        E 4 b4 04 06
        E 4 b4 04 06
        E 4 b4 04 07
        E 4 b4 04 07
        E 4 b4 04 07
        E 4 b4 04 07
        E 4 b4 04 08
        E 4 b4 04 08
        E 4 b4 04 08
        E 4 b4 04 09
        E 4 b4 04 09
        E 4 b4 04 09
        E 4 b4 04 09
        E 4 b4 04 0a
        E 4 b4 04 0a
        E 4 b4 04 0a
        E 4 b4 04 0a
        E 4 b4 04 0b
        E 4 b4 04 0b
        E 4 b4 04 0b
        E 4 b4 04 0b
        E 4 b4 04 0b
        E 4 b4 04 0c
        E 4 b4 04 0c
        E 4 b4 04 0c
        E 4 b4 04 0c
        E 4 b4 04 0c
        E 4 b4 04 0c
        E 4 b4 04 0c
        E 4 b4 04 0c
        E 4 b4 04 0c
        E 4 b4 04 0c
        E 4 b4 04 0c
        E 4 b4 04 0c
        E 4 b4 04 0c
        E 4 b4 04 0c
        E 4 b4 04 0c
        E 4 b4 04 0c
        E 4 b4 04 0c
        E 4 b4 04 0c
        E 4 b4 04 0c
        E 4 b4 04 0c
        E 4 b4 04 0b
        E 4 b4 04 0b
        E 4 b4 04 0b
        E 4 b4 04 0b
        E 4 b4 04 0b
        E 4 b4 04 0b
        E 4 b4 04 0a
        E 4 b4 04 0a
        E 4 b4 04 0a
        E 4 b4 04 0a
        E 4 b4 04 09
        E 4 b4 04 09
        E 4 b4 04 09
        E 4 b4 04 08
        E 4 b4 04 08
        E 4 b4 04 08
        E 4 b4 04 08
        E 4 b4 04 07
        E 4 b4 04 07
        E 4 b4 04 07
        E 4 b4 04 06
        E 4 b4 04 06
        E 4 b4 04 06
        E 4 b4 04 05
        E 4 b4 04 05
        E 4 b4 04 05
        E 4 b4 04 04
        E 4 b4 04 04
        E 4 b4 04 04
        E 4 b4 04 04
        E 4 b4 04 03
        E 4 b4 04 03
        E 4 b4 04 03
        E 4 b4 04 02
        E 4 b4 04 02
        E 4 b4 04 02
        E 4 b4 04 02
        E 4 b4 04 01
        E 4 b4 04 01
        E 4 b4 04 01
        E 4 b4 04 01
        E 4 b4 04 01
        E 4 b4 04 01
        E 4 b4 04 00
        E 4 b4 04 00
        E 4 b4 04 00
        E 4 b4 04 00
        E 4 b4 04 00
        E 4 b4 04 00
        E 4 b4 04 00
        E 4 b4 04 00
        E 4 b4 04 00
        E 4 b4 04 00
        E 4 b4 04 00
        E 4 b4 04 00
        E 4 b4 04 00
        E 4 b4 04 00
        E 4 b4 04 00
        E 4 b4 04 00
        E 4 b4 04 00
        E 4 b4 04 00
        E 4 b4 04 00
        E 4 b4 04 00
        E 4 b4 04 00
        E 4 b4 04 00
        E 4 b4 04 01
        E 4 b4 04 01
        E 4 b4 04 01
        E 4 b4 04 01
        E 4 b4 04 01
        E 4 b4 04 02
        E 4 b4 04 02
        E 4 b4 04 02
        E 4 b4 04 02
        E 4 b4 04 03
        E 4 b4 04 03
        E 4 b4 04 03
        E 4 b4 04 03
        E 4 b4 04 04
        E 4 b4 04 04
        E 4 b4 04 04
        E 4 b4 04 05
        E 4 b4 04 05
        E 4 b4 04 05
        E 4 b4 04 06
        E 4 b4 04 06
        E 100 b0 7b 00
        CCINTERP 32
        CHASE_CC_TAKEOFFS 1
        GUID {35CB0606-EF2C-0440-9B76-3A06589CD32B}
        IGNTEMPO 0 120 4 4
        SRCCOLOR 414
        VELLANE 3 601 0
        VELLANE -1 196 0
      >
    >
  >
  <TRACK {B9641F74-B40F-1845-B625-AA1F6E0E5DAB}
    NAME "xbox 360 portal 2 video game disc"
    PEAKCOL 16576
    BEAT -1
    AUTOMODE 0
    VOLPAN 1 0 -1 -1 1
    MUTESOLO 0 0 0
    IPHASE 0
    PLAYOFFS 0 1
    ISBUS 0 0
    BUSCOMP 0 0 0 0 0
    SHOWINMIX 1 0.6667 0.5 1 0.5 0 -1 0
    FREEMODE 0
    SEL 0
    REC 0 0 1 0 0 0 0
    VU 2
    TRACKHEIGHT 0 1 0 0 -1 0
    INQ 0 0 0 0.5 100 0 0 100
    NCHAN 2
    FX 1
    TRACKID {B9641F74-B40F-1845-B625-AA1F6E0E5DAB}
    PERF 0
    MIDIOUT -1
    MAINSEND 1 0
    <ITEM
      POSITION 0
      SNAPOFFS 0
      LENGTH 710.833049
      LOOP 1
      ALLTAKES 0
      FADEIN 1 0 0 1 0 0
      FADEOUT 1 0 0 1 0 0
      MUTE 0 0
      SEL 0
      IGUID {86D8BC09-A2B1-2C41-8FD8-35EDF23A911C}
      IID 18
      NAME "xbox 360 portal 2 video game disc.mid"
      VOLPAN 1 0 1 -1
      SOFFS 0 0
      PLAYRATE 1 1 0 -1 0 0.0025
      CHANMODE 0
      GUID {6D452308-A24F-BE46-AD5A-4B8AD4B2B43A}
      <SOURCE MIDI
        HASDATA 1 128 QN
        CCINTERP 32
        POOLEDEVTS {E4F173A1-0A8D-1948-8408-363EBC720601}
        E 8 b5 01 01
        E 8 b5 01 02
        E 8 b5 01 03
        E 8 b5 01 04
        E 8 b5 01 06
        E 8 b5 01 07
        E 8 b5 01 08
        E 8 b5 01 09
        E 8 b5 01 0a
        E 8 b5 01 0c
        E 8 b5 01 0d
        E 8 b5 01 0e
        E 8 b5 01 0f
        E 8 b5 01 10
        E 8 b5 01 12
        E 8 b5 01 13
        E 8 b5 01 14
        E 8 b5 01 15
        E 8 b5 01 16
        E 8 b5 01 18
        E 8 b5 01 19
        E 8 b5 01 1a
        E 8 b5 01 1b
        E 8 b5 01 1c
        E 8 b5 01 1e
        E 8 b5 01 1f
        E 8 b5 01 20
        E 8 b5 01 21
        E 8 b5 01 22
        E 8 b5 01 24
        E 8 b5 01 25
        E 8 b5 01 26
        E 8 b5 01 27
        E 8 b5 01 28
        E 8 b5 01 2a
        E 8 b5 01 2b
        E 8 b5 01 2c
        E 8 b5 01 2d
        E 8 b5 01 2e
        E 8 b5 01 30
        E 8 b5 01 31
        E 8 b5 01 32
        E 8 b5 01 33
        E 8 b5 01 34
        E 8 b5 01 36
        E 8 b5 01 37
        E 8 b5 01 38
        E 8 b5 01 39
        E 8 b5 01 3a
        E 8 b5 01 3c
        E 8 b5 01 3d
        E 8 b5 01 3e
        E 8 b5 01 3f
        E 8 b5 01 40
        E 8 b5 01 42
        E 8 b5 01 43
        E 8 b5 01 44
        E 8 b5 01 45
        E 8 b5 01 46
        E 8 b5 01 48
        E 8 b5 01 49
        E 8 b5 01 4a
        E 8 b5 01 4b
        E 8 b5 01 4c
        E 8 b5 01 4b
        E 8 b5 01 4a
        E 8 b5 01 49
        E 8 b5 01 48
        E 8 b5 01 46
        E 8 b5 01 45
        E 8 b5 01 44
        E 8 b5 01 43
        E 8 b5 01 42
        E 8 b5 01 40
        E 8 b5 01 3f
        E 8 b5 01 3e
        E 8 b5 01 3d
        E 8 b5 01 3c
        E 8 b5 01 3a
        E 8 b5 01 39
        E 8 b5 01 38
        E 8 b5 01 37
        E 8 b5 01 36
        E 8 b5 01 34
        E 8 b5 01 33
        E 8 b5 01 32
        E 8 b5 01 31
        E 8 b5 01 30
        E 8 b5 01 2e
        E 8 b5 01 2d
        E 8 b5 01 2c
        E 8 b5 01 2b
        E 8 b5 01 2a
        E 8 b5 01 28
        E 8 b5 01 27
        E 8 b5 01 26
        E 8 b5 01 25
        E 8 b5 01 24
        E 8 b5 01 22
        E 8 b5 01 21
        E 8 b5 01 20
        E 8 b5 01 1f
        E 8 b5 01 1e
        E 8 b5 01 1c
        E 8 b5 01 1b
        E 8 b5 01 1a
        E 8 b5 01 19
        E 8 b5 01 18
        E 8 b5 01 16
        E 8 b5 01 15
        E 8 b5 01 14
        E 8 b5 01 13
        E 8 b5 01 12
        E 8 b5 01 10
        E 8 b5 01 0f
        E 8 b5 01 0e
        E 8 b5 01 0d
        E 8 b5 01 0c
        E 8 b5 01 0a
        E 8 b5 01 09
        E 8 b5 01 08
        E 8 b5 01 07
        E 8 b5 01 06
        E 8 b5 01 04
        E 8 b5 01 03
        E 8 b5 01 02
        E 8 b5 01 01
        E 8 b5 01 00
        E 40 b5 01 00
        E 40 b5 01 00
        E 40 b5 01 01
        E 40 b5 01 01
        E 40 b5 01 02
        E 40 b5 01 02
        E 40 b5 01 02
        E 40 b5 01 03
        E 40 b5 01 03
        E 40 b5 01 04
        E 40 b5 01 04
        E 40 b5 01 04
        E 40 b5 01 05
        E 40 b5 01 05
        E 40 b5 01 06
        E 40 b5 01 06
        E 40 b5 01 06
        E 40 b5 01 07
        E 40 b5 01 07
        E 40 b5 01 08
        E 40 b5 01 08
        E 40 b5 01 08
        E 40 b5 01 09
        E 40 b5 01 09
        E 40 b5 01 0a
        E 40 b5 01 0a
        E 40 b5 01 0a
        E 40 b5 01 0b
        E 40 b5 01 0b
        E 40 b5 01 0c
        E 40 b5 01 0c
        E 40 b5 01 0c
        E 40 b5 01 0d
        E 40 b5 01 0d
        E 40 b5 01 0e
        E 40 b5 01 0e
        E 40 b5 01 0e
        E 40 b5 01 0f
        E 40 b5 01 0f
        E 40 b5 01 10
        E 40 b5 01 10
        E 40 b5 01 10
        E 40 b5 01 11
        E 40 b5 01 11
        E 40 b5 01 12
        E 40 b5 01 12
        E 40 b5 01 12
        E 40 b5 01 13
        E 40 b5 01 13
        E 40 b5 01 14
        E 40 b5 01 14
        E 40 b5 01 14
        E 40 b5 01 15
        E 40 b5 01 15
        E 40 b5 01 16
        E 40 b5 01 16
        E 40 b5 01 16
        E 40 b5 01 17
        E 40 b5 01 17
        E 40 b5 01 18
        E 40 b5 01 18
        E 40 b5 01 18
        E 40 b5 01 19
        E 40 b5 01 19
        E 40 b5 01 19
        E 40 b5 01 18
        E 40 b5 01 18
        E 40 b5 01 18
        E 40 b5 01 17
        E 40 b5 01 17
        E 40 b5 01 16
        E 40 b5 01 16
        E 40 b5 01 16
        E 40 b5 01 15
        E 40 b5 01 15
        E 40 b5 01 14
        E 40 b5 01 14
        E 40 b5 01 14
        E 40 b5 01 13
        E 40 b5 01 13
        E 40 b5 01 12
        E 40 b5 01 12
        E 40 b5 01 12
        E 40 b5 01 11
        E 40 b5 01 11
        E 40 b5 01 10
        E 40 b5 01 10
        E 40 b5 01 10
        E 40 b5 01 0f
        E 40 b5 01 0f
        E 40 b5 01 0e
        E 40 b5 01 0e
        E 40 b5 01 0e
        E 40 b5 01 0d
        E 40 b5 01 0d
        E 40 b5 01 0c
        E 40 b5 01 0c
        E 40 b5 01 0c
        E 40 b5 01 0b
        E 40 b5 01 0b
        E 40 b5 01 0a
        E 40 b5 01 0a
        E 40 b5 01 0a
        E 40 b5 01 09
        E 40 b5 01 09
        E 40 b5 01 08
        E 40 b5 01 08
        E 40 b5 01 08
        E 40 b5 01 07
        E 40 b5 01 07
        E 40 b5 01 06
        E 40 b5 01 06
        E 40 b5 01 06
        E 40 b5 01 05
        E 40 b5 01 05
        E 40 b5 01 04
        E 40 b5 01 04
        E 40 b5 01 04
        E 40 b5 01 03
        E 40 b5 01 03
        E 40 b5 01 02
        E 40 b5 01 02
        E 40 b5 01 02
        E 40 b5 01 01
        E 40 b5 01 01
        E 40 b5 01 00
        E 40 b5 01 00
        E 40 b5 01 00
        E 32 b5 01 01
        E 32 b5 01 02
        E 32 b5 01 04
        E 32 b5 01 05
        E 32 b5 01 07
        E 32 b5 01 08
        E 32 b5 01 09
        E 32 b5 01 0b
        E 32 b5 01 0c
        E 32 b5 01 0e
        E 32 b5 01 0f
        E 32 b5 01 10
        E 32 b5 01 12
        E 32 b5 01 13
        E 32 b5 01 15
        E 32 b5 01 16
        E 32 b5 01 17
        E 32 b5 01 19
        E 32 b5 01 1a
        E 32 b5 01 1c
        E 32 b5 01 1d
        E 32 b5 01 1e
        E 32 b5 01 20
        E 32 b5 01 21
        E 32 b5 01 23
        E 32 b5 01 24
        E 32 b5 01 25
        E 32 b5 01 27
        E 32 b5 01 28
        E 32 b5 01 2a
        E 32 b5 01 2b
        E 32 b5 01 2c
        E 32 b5 01 2e
        E 32 b5 01 2f
        E 32 b5 01 31
        E 32 b5 01 32
        E 32 b5 01 33
        E 32 b5 01 35
        E 32 b5 01 36
        E 32 b5 01 38
        E 32 b5 01 39
        E 32 b5 01 3a
        E 32 b5 01 3c
        E 32 b5 01 3d
        E 32 b5 01 3e
        E 32 b5 01 40
        E 32 b5 01 41
        E 32 b5 01 43
        E 32 b5 01 44
        E 32 b5 01 46
        E 32 b5 01 47
        E 32 b5 01 48
        E 32 b5 01 4a
        E 32 b5 01 4b
        E 32 b5 01 4d
        E 32 b5 01 4e
        E 32 b5 01 4f
        E 32 b5 01 51
        E 32 b5 01 52
        E 32 b5 01 54
        E 32 b5 01 55
        E 32 b5 01 56
        E 32 b5 01 58
        E 32 b5 01 58
        E 32 b5 01 58
        E 32 b5 01 56
        E 32 b5 01 55
        E 32 b5 01 54
        E 32 b5 01 52
        E 32 b5 01 51
        E 32 b5 01 4f
        E 32 b5 01 4e
        E 32 b5 01 4d
        E 32 b5 01 4b
        E 32 b5 01 4a
        E 32 b5 01 48
        E 32 b5 01 47
        E 32 b5 01 46
        E 32 b5 01 44
        E 32 b5 01 43
        E 32 b5 01 41
        E 32 b5 01 40
        E 32 b5 01 3e
        E 32 b5 01 3d
        E 32 b5 01 3c
        E 32 b5 01 3a
        E 32 b5 01 39
        E 32 b5 01 38
        E 32 b5 01 36
        E 32 b5 01 35
        E 32 b5 01 33
        E 32 b5 01 32
        E 32 b5 01 31
        E 32 b5 01 2f
        E 32 b5 01 2e
        E 32 b5 01 2c
        E 32 b5 01 2b
        E 32 b5 01 2a
        E 32 b5 01 28
        E 32 b5 01 27
        E 32 b5 01 25
        E 32 b5 01 24
        E 32 b5 01 23
        E 32 b5 01 21
        E 32 b5 01 20
        E 32 b5 01 1e
        E 32 b5 01 1d
        E 32 b5 01 1c
        E 32 b5 01 1a
        E 32 b5 01 19
        E 32 b5 01 17
        E 32 b5 01 16
        E 32 b5 01 15
        E 32 b5 01 13
        E 32 b5 01 12
        E 32 b5 01 10
        E 32 b5 01 0f
        E 32 b5 01 0e
        E 32 b5 01 0c
        E 32 b5 01 0b
        E 32 b5 01 09
        E 32 b5 01 08
        E 32 b5 01 07
        E 32 b5 01 05
        E 32 b5 01 04
        E 32 b5 01 02
        E 32 b5 01 01
        E 32 b5 01 00
        E 8 b5 01 00
        E 8 b5 01 01
        E 8 b5 01 02
        E 8 b5 01 03
        E 8 b5 01 04
        E 8 b5 01 04
        E 8 b5 01 05
        E 8 b5 01 06
        E 8 b5 01 07
        E 8 b5 01 08
        E 8 b5 01 08
        E 8 b5 01 09
        E 8 b5 01 0a
        E 8 b5 01 0b
        E 8 b5 01 0c
        E 8 b5 01 0c
        E 8 b5 01 0d
        E 8 b5 01 0e
        E 8 b5 01 0f
        E 8 b5 01 10
        E 8 b5 01 10
        E 8 b5 01 11
        E 8 b5 01 12
        E 8 b5 01 13
        E 8 b5 01 14
        E 8 b5 01 14
        E 8 b5 01 15
        E 8 b5 01 16
        E 8 b5 01 17
        E 8 b5 01 18
        E 8 b5 01 18
        E 8 b5 01 19
        E 8 b5 01 1a
        E 8 b5 01 1b
        E 8 b5 01 1c
        E 8 b5 01 1c
        E 8 b5 01 1d
        E 8 b5 01 1e
        E 8 b5 01 1f
        E 8 b5 01 20
        E 8 b5 01 20
        E 8 b5 01 21
        E 8 b5 01 22
        E 8 b5 01 23
        E 8 b5 01 24
        E 8 b5 01 24
        E 8 b5 01 25
        E 8 b5 01 26
        E 8 b5 01 27
        E 8 b5 01 28
        E 8 b5 01 28
        E 8 b5 01 29
        E 8 b5 01 2a
        E 8 b5 01 2b
        E 8 b5 01 2c
        E 8 b5 01 2c
        E 8 b5 01 2d
        E 8 b5 01 2e
        E 8 b5 01 2f
        E 8 b5 01 30
        E 8 b5 01 30
        E 8 b5 01 31
        E 8 b5 01 32
        E 8 b5 01 32
        E 8 b5 01 32
        E 8 b5 01 31
        E 8 b5 01 30
        E 8 b5 01 30
        E 8 b5 01 2f
        E 8 b5 01 2e
        E 8 b5 01 2d
        E 8 b5 01 2c
        E 8 b5 01 2c
        E 8 b5 01 2b
        E 8 b5 01 2a
        E 8 b5 01 29
        E 8 b5 01 28
        E 8 b5 01 28
        E 8 b5 01 27
        E 8 b5 01 26
        E 8 b5 01 25
        E 8 b5 01 24
        E 8 b5 01 24
        E 8 b5 01 23
        E 8 b5 01 22
        E 8 b5 01 21
        E 8 b5 01 20
        E 8 b5 01 20
        E 8 b5 01 1f
        E 8 b5 01 1e
        E 8 b5 01 1d
        E 8 b5 01 1c
        E 8 b5 01 1c
        E 8 b5 01 1b
        E 8 b5 01 1a
        E 8 b5 01 19
        E 8 b5 01 18
        E 8 b5 01 18
        E 8 b5 01 17
        E 8 b5 01 16
        E 8 b5 01 15
        E 8 b5 01 14
        E 8 b5 01 14
        E 8 b5 01 13
        E 8 b5 01 12
        E 8 b5 01 11
        E 8 b5 01 10
        E 8 b5 01 10
        E 8 b5 01 0f
        E 8 b5 01 0e
        E 8 b5 01 0d
        E 8 b5 01 0c
        E 8 b5 01 0c
        E 8 b5 01 0b
        E 8 b5 01 0a
        E 8 b5 01 09
        E 8 b5 01 08
        E 8 b5 01 08
        E 8 b5 01 07
        E 8 b5 01 06
        E 8 b5 01 05
        E 8 b5 01 04
        E 8 b5 01 04
        E 8 b5 01 03
        E 8 b5 01 02
        E 8 b5 01 01
        E 8 b5 01 00
        E 8 b5 01 00
        E 72 b5 01 02
        E 72 b5 01 04
        E 72 b5 01 06
        E 72 b5 01 08
        E 72 b5 01 0a
        E 72 b5 01 0c
        E 72 b5 01 0e
        E 72 b5 01 10
        E 72 b5 01 12
        E 72 b5 01 14
        E 72 b5 01 16
        E 72 b5 01 18
        E 72 b5 01 1a
        E 72 b5 01 1c
        E 72 b5 01 1e
        E 72 b5 01 20
        E 72 b5 01 22
        E 72 b5 01 24
        E 72 b5 01 26
        E 72 b5 01 28
        E 72 b5 01 2a
        E 72 b5 01 2c
        E 72 b5 01 2e
        E 72 b5 01 30
        E 72 b5 01 32
        E 72 b5 01 34
        E 72 b5 01 36
        E 72 b5 01 38
        E 72 b5 01 3a
        E 72 b5 01 3c
        E 72 b5 01 3e
        E 72 b5 01 40
        E 72 b5 01 42
        E 72 b5 01 44
        E 72 b5 01 46
        E 72 b5 01 48
        E 72 b5 01 4a
        E 72 b5 01 4c
        E 72 b5 01 4e
        E 72 b5 01 50
        E 72 b5 01 52
        E 72 b5 01 54
        E 72 b5 01 56
        E 72 b5 01 58
        E 72 b5 01 5a
        E 72 b5 01 5c
        E 72 b5 01 5e
        E 72 b5 01 60
        E 72 b5 01 62
        E 72 b5 01 64
        E 72 b5 01 66
        E 72 b5 01 68
        E 72 b5 01 6a
        E 72 b5 01 6c
        E 72 b5 01 6e
        E 72 b5 01 70
        E 72 b5 01 72
        E 72 b5 01 74
        E 72 b5 01 76
        E 72 b5 01 78
        E 72 b5 01 7a
        E 72 b5 01 7c
        E 72 b5 01 7e
        E 72 b5 01 7f
        E 72 b5 01 7e
        E 72 b5 01 7c
        E 72 b5 01 7a
        E 72 b5 01 78
        E 72 b5 01 76
        E 72 b5 01 74
        E 72 b5 01 72
        E 72 b5 01 70
        E 72 b5 01 6e
        E 72 b5 01 6c
        E 72 b5 01 6a
        E 72 b5 01 68
        E 72 b5 01 66
        E 72 b5 01 64
        E 72 b5 01 62
        E 72 b5 01 60
        E 72 b5 01 5e
        E 72 b5 01 5c
        E 72 b5 01 5a
        E 72 b5 01 58
        E 72 b5 01 56
        E 72 b5 01 54
        E 72 b5 01 52
        E 72 b5 01 50
        E 72 b5 01 4e
        E 72 b5 01 4c
        E 72 b5 01 4a
        E 72 b5 01 48
        E 72 b5 01 46
        E 72 b5 01 44
        E 72 b5 01 42
        E 72 b5 01 40
        E 72 b5 01 3e
        E 72 b5 01 3c
        E 72 b5 01 3a
        E 72 b5 01 38
        E 72 b5 01 36
        E 72 b5 01 34
        E 72 b5 01 32
        E 72 b5 01 30
        E 72 b5 01 2e
        E 72 b5 01 2c
        E 72 b5 01 2a
        E 72 b5 01 28
        E 72 b5 01 26
        E 72 b5 01 24
        E 72 b5 01 22
        E 72 b5 01 20
        E 72 b5 01 1e
        E 72 b5 01 1c
        E 72 b5 01 1a
        E 72 b5 01 18
        E 72 b5 01 16
        E 72 b5 01 14
        E 72 b5 01 12
        E 72 b5 01 10
        E 72 b5 01 0e
        E 72 b5 01 0c
        E 72 b5 01 0a
        E 72 b5 01 08
        E 72 b5 01 06
        E 72 b5 01 04
        E 72 b5 01 02
        E 72 b5 01 00
        E 16 b5 01 01
        E 16 b5 01 03
        E 16 b5 01 05
        E 16 b5 01 07
        E 16 b5 01 09
        E 16 b5 01 0a
        E 16 b5 01 0c
        E 16 b5 01 0e
        E 16 b5 01 10
        E 16 b5 01 12
        E 16 b5 01 13
        E 16 b5 01 15
        E 16 b5 01 17
        E 16 b5 01 19
        E 16 b5 01 1b
        E 16 b5 01 1c
        E 16 b5 01 1e
        E 16 b5 01 20
        E 16 b5 01 22
        E 16 b5 01 24
        E 16 b5 01 25
        E 16 b5 01 27
        E 16 b5 01 29
        E 16 b5 01 2b
        E 16 b5 01 2d
        E 16 b5 01 2e
        E 16 b5 01 30
        E 16 b5 01 32
        E 16 b5 01 34
        E 16 b5 01 36
        E 16 b5 01 37
        E 16 b5 01 39
        E 16 b5 01 3b
        E 16 b5 01 3d
        E 16 b5 01 3f
        E 16 b5 01 40
        E 16 b5 01 42
        E 16 b5 01 44
        E 16 b5 01 46
        E 16 b5 01 48
        E 16 b5 01 49
        E 16 b5 01 4b
        E 16 b5 01 4d
        E 16 b5 01 4f
        E 16 b5 01 51
        E 16 b5 01 52
        E 16 b5 01 54
        E 16 b5 01 56
        E 16 b5 01 58
        E 16 b5 01 5a
        E 16 b5 01 5b
        E 16 b5 01 5d
        E 16 b5 01 5f
        E 16 b5 01 61
        E 16 b5 01 63
        E 16 b5 01 64
        E 16 b5 01 66
        E 16 b5 01 68
        E 16 b5 01 6a
        E 16 b5 01 6c
        E 16 b5 01 6d
        E 16 b5 01 6f
        E 16 b5 01 71
        E 16 b5 01 72
        E 16 b5 01 71
        E 16 b5 01 6f
        E 16 b5 01 6d
        E 16 b5 01 6c
        E 16 b5 01 6a
        E 16 b5 01 68
        E 16 b5 01 66
        E 16 b5 01 64
        E 16 b5 01 63
        E 16 b5 01 61
        E 16 b5 01 5f
        E 16 b5 01 5d
        E 16 b5 01 5b
        E 16 b5 01 5a
        E 16 b5 01 58
        E 16 b5 01 56
        E 16 b5 01 54
        E 16 b5 01 52
        E 16 b5 01 51
        E 16 b5 01 4f
        E 16 b5 01 4d
        E 16 b5 01 4b
        E 16 b5 01 49
        E 16 b5 01 48
        E 16 b5 01 46
        E 16 b5 01 44
        E 16 b5 01 42
        E 16 b5 01 40
        E 16 b5 01 3f
        E 16 b5 01 3d
        E 16 b5 01 3b
        E 16 b5 01 39
        E 16 b5 01 37
        E 16 b5 01 36
        E 16 b5 01 34
        E 16 b5 01 32
        E 16 b5 01 30
        E 16 b5 01 2e
        E 16 b5 01 2d
        E 16 b5 01 2b
        E 16 b5 01 29
        E 16 b5 01 27
        E 16 b5 01 25
        E 16 b5 01 24
        E 16 b5 01 22
        E 16 b5 01 20
        E 16 b5 01 1e
        E 16 b5 01 1c
        E 16 b5 01 1b
        E 16 b5 01 19
        E 16 b5 01 17
        E 16 b5 01 15
        E 16 b5 01 13
        E 16 b5 01 12
        E 16 b5 01 10
        E 16 b5 01 0e
        E 16 b5 01 0c
        E 16 b5 01 0a
        E 16 b5 01 09
        E 16 b5 01 07
        E 16 b5 01 05
        E 16 b5 01 03
        E 16 b5 01 01
        E 16 b5 01 00
        E 8 b5 01 01
        E 8 b5 01 02
        E 8 b5 01 03
        E 8 b5 01 04
        E 8 b5 01 06
        E 8 b5 01 07
        E 8 b5 01 08
        E 8 b5 01 09
        E 8 b5 01 0a
        E 8 b5 01 0c
        E 8 b5 01 0d
        E 8 b5 01 0e
        E 8 b5 01 0f
        E 8 b5 01 10
        E 8 b5 01 12
        E 8 b5 01 13
        E 8 b5 01 14
        E 8 b5 01 15
        E 8 b5 01 16
        E 8 b5 01 18
        E 8 b5 01 19
        E 8 b5 01 1a
        E 8 b5 01 1b
        E 8 b5 01 1c
        E 8 b5 01 1e
        E 8 b5 01 1f
        E 8 b5 01 20
        E 8 b5 01 21
        E 8 b5 01 22
        E 8 b5 01 24
        E 8 b5 01 25
        E 8 b5 01 26
        E 8 b5 01 27
        E 8 b5 01 28
        E 8 b5 01 2a
        E 8 b5 01 2b
        E 8 b5 01 2c
        E 8 b5 01 2d
        E 8 b5 01 2e
        E 8 b5 01 30
        E 8 b5 01 31
        E 8 b5 01 32
        E 8 b5 01 33
        E 8 b5 01 34
        E 8 b5 01 36
        E 8 b5 01 37
        E 8 b5 01 38
        E 8 b5 01 39
        E 8 b5 01 3a
        E 8 b5 01 3c
        E 8 b5 01 3d
        E 8 b5 01 3e
        E 8 b5 01 3f
        E 8 b5 01 40
        E 8 b5 01 42
        E 8 b5 01 43
        E 8 b5 01 44
        E 8 b5 01 45
        E 8 b5 01 46
        E 8 b5 01 48
        E 8 b5 01 49
        E 8 b5 01 4a
        E 8 b5 01 4b
        E 8 b5 01 4c
        E 8 b5 01 4b
        E 8 b5 01 4a
        E 8 b5 01 49
        E 8 b5 01 48
        E 8 b5 01 46
        E 8 b5 01 45
        E 8 b5 01 44
        E 8 b5 01 43
        E 8 b5 01 42
        E 8 b5 01 40
        E 8 b5 01 3f
        E 8 b5 01 3e
        E 8 b5 01 3d
        E 8 b5 01 3c
        E 8 b5 01 3a
        E 8 b5 01 39
        E 8 b5 01 38
        E 8 b5 01 37
        E 8 b5 01 36
        E 8 b5 01 34
        E 8 b5 01 33
        E 8 b5 01 32
        E 8 b5 01 31
        E 8 b5 01 30
        E 8 b5 01 2e
        E 8 b5 01 2d
        E 8 b5 01 2c
        E 8 b5 01 2b
        E 8 b5 01 2a
        E 8 b5 01 28
        E 8 b5 01 27
        E 8 b5 01 26
        E 8 b5 01 25
        E 8 b5 01 24
        E 8 b5 01 22
        E 8 b5 01 21
        E 8 b5 01 20
        E 8 b5 01 1f
        E 8 b5 01 1e
        E 8 b5 01 1c
        E 8 b5 01 1b
        E 8 b5 01 1a
        E 8 b5 01 19
        E 8 b5 01 18
        E 8 b5 01 16
        E 8 b5 01 15
        E 8 b5 01 14
        E 8 b5 01 13
        E 8 b5 01 12
        E 8 b5 01 10
        E 8 b5 01 0f
        E 8 b5 01 0e
        E 8 b5 01 0d
        E 8 b5 01 0c
        E 8 b5 01 0a
        E 8 b5 01 09
        E 8 b5 01 08
        E 8 b5 01 07
        E 8 b5 01 06
        E 8 b5 01 04
        E 8 b5 01 03
        E 8 b5 01 02
        E 8 b5 01 01
        E 8 b5 01 00
        E 40 b5 01 00
        E 40 b5 01 00
        E 40 b5 01 01
        E 40 b5 01 01
        E 40 b5 01 02
        E 40 b5 01 02
        E 40 b5 01 02
        E 40 b5 01 03
        E 40 b5 01 03
        E 40 b5 01 04
        E 40 b5 01 04
        E 40 b5 01 04
        E 40 b5 01 05
        E 40 b5 01 05
        E 40 b5 01 06
        E 40 b5 01 06
        E 40 b5 01 06
        E 40 b5 01 07
        E 40 b5 01 07
        E 40 b5 01 08
        E 40 b5 01 08
        E 40 b5 01 08
        E 40 b5 01 09
        E 40 b5 01 09
        E 40 b5 01 0a
        E 40 b5 01 0a
        E 40 b5 01 0a
        E 40 b5 01 0b
        E 40 b5 01 0b
        E 40 b5 01 0c
        E 40 b5 01 0c
        E 40 b5 01 0c
        E 40 b5 01 0d
        E 40 b5 01 0d
        E 40 b5 01 0e
        E 40 b5 01 0e
        E 40 b5 01 0e
        E 40 b5 01 0f
        E 40 b5 01 0f
        E 40 b5 01 10
        E 40 b5 01 10
        E 40 b5 01 10
        E 40 b5 01 11
        E 40 b5 01 11
        E 40 b5 01 12
        E 40 b5 01 12
        E 40 b5 01 12
        E 40 b5 01 13
        E 40 b5 01 13
        E 40 b5 01 14
        E 40 b5 01 14
        E 40 b5 01 14
        E 40 b5 01 15
        E 40 b5 01 15
        E 40 b5 01 16
        E 40 b5 01 16
        E 40 b5 01 16
        E 40 b5 01 17
        E 40 b5 01 17
        E 40 b5 01 18
        E 40 b5 01 18
        E 40 b5 01 18
        E 40 b5 01 19
        E 40 b5 01 19
        E 40 b5 01 19
        E 40 b5 01 18
        E 40 b5 01 18
        E 40 b5 01 18
        E 40 b5 01 17
        E 40 b5 01 17
        E 40 b5 01 16
        E 40 b5 01 16
        E 40 b5 01 16
        E 40 b5 01 15
        E 40 b5 01 15
        E 40 b5 01 14
        E 40 b5 01 14
        E 40 b5 01 14
        E 40 b5 01 13
        E 40 b5 01 13
        E 40 b5 01 12
        E 40 b5 01 12
        E 40 b5 01 12
        E 40 b5 01 11
        E 40 b5 01 11
        E 40 b5 01 10
        E 40 b5 01 10
        E 40 b5 01 10
        E 40 b5 01 0f
        E 40 b5 01 0f
        E 40 b5 01 0e
        E 40 b5 01 0e
        E 40 b5 01 0e
        E 40 b5 01 0d
        E 40 b5 01 0d
        E 40 b5 01 0c
        E 40 b5 01 0c
        E 40 b5 01 0c
        E 40 b5 01 0b
        E 40 b5 01 0b
        E 40 b5 01 0a
        E 40 b5 01 0a
        E 40 b5 01 0a
        E 40 b5 01 09
        E 40 b5 01 09
        E 40 b5 01 08
        E 40 b5 01 08
        E 40 b5 01 08
        E 40 b5 01 07
        E 40 b5 01 07
        E 40 b5 01 06
        E 40 b5 01 06
        E 40 b5 01 06
        E 40 b5 01 05
        E 40 b5 01 05
        E 40 b5 01 04
        E 40 b5 01 04
        E 40 b5 01 04
        E 40 b5 01 03
        E 40 b5 01 03
        E 40 b5 01 02
        E 40 b5 01 02
        E 40 b5 01 02
        E 40 b5 01 01
        E 40 b5 01 01
        E 40 b5 01 00
        E 40 b5 01 00
        E 40 b5 01 00
        E 32 b5 01 01
        E 32 b5 01 02
        E 32 b5 01 04
        E 32 b5 01 05
        E 32 b5 01 07
        E 32 b5 01 08
        E 32 b5 01 09
        E 32 b5 01 0b
        E 32 b5 01 0c
        E 32 b5 01 0e
        E 32 b5 01 0f
        E 32 b5 01 10
        E 32 b5 01 12
        E 32 b5 01 13
        E 32 b5 01 15
        E 32 b5 01 16
        E 32 b5 01 17
        E 32 b5 01 19
        E 32 b5 01 1a
        E 32 b5 01 1c
        E 32 b5 01 1d
        E 32 b5 01 1e
        E 32 b5 01 20
        E 32 b5 01 21
        E 32 b5 01 23
        E 32 b5 01 24
        E 32 b5 01 25
        E 32 b5 01 27
        E 32 b5 01 28
        E 32 b5 01 2a
        E 32 b5 01 2b
        E 32 b5 01 2c
        E 32 b5 01 2e
        E 32 b5 01 2f
        E 32 b5 01 31
        E 32 b5 01 32
        E 32 b5 01 33
        E 32 b5 01 35
        E 32 b5 01 36
        E 32 b5 01 38
        E 32 b5 01 39
        E 32 b5 01 3a
        E 32 b5 01 3c
        E 32 b5 01 3d
        E 32 b5 01 3e
        E 32 b5 01 40
        E 32 b5 01 41
        E 32 b5 01 43
        E 32 b5 01 44
        E 32 b5 01 46
        E 32 b5 01 47
        E 32 b5 01 48
        E 32 b5 01 4a
        E 32 b5 01 4b
        E 32 b5 01 4d
        E 32 b5 01 4e
        E 32 b5 01 4f
        E 32 b5 01 51
        E 32 b5 01 52
        E 32 b5 01 54
        E 32 b5 01 55
        E 32 b5 01 56
        E 32 b5 01 58
        E 32 b5 01 58
        E 32 b5 01 58
        E 32 b5 01 56
        E 32 b5 01 55
        E 32 b5 01 54
        E 32 b5 01 52
        E 32 b5 01 51
        E 32 b5 01 4f
        E 32 b5 01 4e
        E 32 b5 01 4d
        E 32 b5 01 4b
        E 32 b5 01 4a
        E 32 b5 01 48
        E 32 b5 01 47
        E 32 b5 01 46
        E 32 b5 01 44
        E 32 b5 01 43
        E 32 b5 01 41
        E 32 b5 01 40
        E 32 b5 01 3e
        E 32 b5 01 3d
        E 32 b5 01 3c
        E 32 b5 01 3a
        E 32 b5 01 39
        E 32 b5 01 38
        E 32 b5 01 36
        E 32 b5 01 35
        E 32 b5 01 33
        E 32 b5 01 32
        E 32 b5 01 31
        E 32 b5 01 2f
        E 32 b5 01 2e
        E 32 b5 01 2c
        E 32 b5 01 2b
        E 32 b5 01 2a
        E 32 b5 01 28
        E 32 b5 01 27
        E 32 b5 01 25
        E 32 b5 01 24
        E 32 b5 01 23
        E 32 b5 01 21
        E 32 b5 01 20
        E 32 b5 01 1e
        E 32 b5 01 1d
        E 32 b5 01 1c
        E 32 b5 01 1a
        E 32 b5 01 19
        E 32 b5 01 17
        E 32 b5 01 16
        E 32 b5 01 15
        E 32 b5 01 13
        E 32 b5 01 12
        E 32 b5 01 10
        E 32 b5 01 0f
        E 32 b5 01 0e
        E 32 b5 01 0c
        E 32 b5 01 0b
        E 32 b5 01 09
        E 32 b5 01 08
        E 32 b5 01 07
        E 32 b5 01 05
        E 32 b5 01 04
        E 32 b5 01 02
        E 32 b5 01 01
        E 32 b5 01 00
        E 8 b5 01 00
        E 8 b5 01 01
        E 8 b5 01 02
        E 8 b5 01 03
        E 8 b5 01 04
        E 8 b5 01 04
        E 8 b5 01 05
        E 8 b5 01 06
        E 8 b5 01 07
        E 8 b5 01 08
        E 8 b5 01 08
        E 8 b5 01 09
        E 8 b5 01 0a
        E 8 b5 01 0b
        E 8 b5 01 0c
        E 8 b5 01 0c
        E 8 b5 01 0d
        E 8 b5 01 0e
        E 8 b5 01 0f
        E 8 b5 01 10
        E 8 b5 01 10
        E 8 b5 01 11
        E 8 b5 01 12
        E 8 b5 01 13
        E 8 b5 01 14
        E 8 b5 01 14
        E 8 b5 01 15
        E 8 b5 01 16
        E 8 b5 01 17
        E 8 b5 01 18
        E 8 b5 01 18
        E 8 b5 01 19
        E 8 b5 01 1a
        E 8 b5 01 1b
        E 8 b5 01 1c
        E 8 b5 01 1c
        E 8 b5 01 1d
        E 8 b5 01 1e
        E 8 b5 01 1f
        E 8 b5 01 20
        E 8 b5 01 20
        E 8 b5 01 21
        E 8 b5 01 22
        E 8 b5 01 23
        E 8 b5 01 24
        E 8 b5 01 24
        E 8 b5 01 25
        E 8 b5 01 26
        E 8 b5 01 27
        E 8 b5 01 28
        E 8 b5 01 28
        E 8 b5 01 29
        E 8 b5 01 2a
        E 8 b5 01 2b
        E 8 b5 01 2c
        E 8 b5 01 2c
        E 8 b5 01 2d
        E 8 b5 01 2e
        E 8 b5 01 2f
        E 8 b5 01 30
        E 8 b5 01 30
        E 8 b5 01 31
        E 8 b5 01 32
        E 8 b5 01 32
        E 8 b5 01 32
        E 8 b5 01 31
        E 8 b5 01 30
        E 8 b5 01 30
        E 8 b5 01 2f
        E 8 b5 01 2e
        E 8 b5 01 2d
        E 8 b5 01 2c
        E 8 b5 01 2c
        E 8 b5 01 2b
        E 8 b5 01 2a
        E 8 b5 01 29
        E 8 b5 01 28
        E 8 b5 01 28
        E 8 b5 01 27
        E 8 b5 01 26
        E 8 b5 01 25
        E 8 b5 01 24
        E 8 b5 01 24
        E 8 b5 01 23
        E 8 b5 01 22
        E 8 b5 01 21
        E 8 b5 01 20
        E 8 b5 01 20
        E 8 b5 01 1f
        E 8 b5 01 1e
        E 8 b5 01 1d
        E 8 b5 01 1c
        E 8 b5 01 1c
        E 8 b5 01 1b
        E 8 b5 01 1a
        E 8 b5 01 19
        E 8 b5 01 18
        E 8 b5 01 18
        E 8 b5 01 17
        E 8 b5 01 16
        E 8 b5 01 15
        E 8 b5 01 14
        E 8 b5 01 14
        E 8 b5 01 13
        E 8 b5 01 12
        E 8 b5 01 11
        E 8 b5 01 10
        E 8 b5 01 10
        E 8 b5 01 0f
        E 8 b5 01 0e
        E 8 b5 01 0d
        E 8 b5 01 0c
        E 8 b5 01 0c
        E 8 b5 01 0b
        E 8 b5 01 0a
        E 8 b5 01 09
        E 8 b5 01 08
        E 8 b5 01 08
        E 8 b5 01 07
        E 8 b5 01 06
        E 8 b5 01 05
        E 8 b5 01 04
        E 8 b5 01 04
        E 8 b5 01 03
        E 8 b5 01 02
        E 8 b5 01 01
        E 8 b5 01 00
        E 8 b5 01 00
        E 72 b5 01 02
        E 72 b5 01 04
        E 72 b5 01 06
        E 72 b5 01 08
        E 72 b5 01 0a
        E 72 b5 01 0c
        E 72 b5 01 0e
        E 72 b5 01 10
        E 72 b5 01 12
        E 72 b5 01 14
        E 72 b5 01 16
        E 72 b5 01 18
        E 72 b5 01 1a
        E 72 b5 01 1c
        E 72 b5 01 1e
        E 72 b5 01 20
        E 72 b5 01 22
        E 72 b5 01 24
        E 72 b5 01 26
        E 72 b5 01 28
        E 72 b5 01 2a
        E 72 b5 01 2c
        E 72 b5 01 2e
        E 72 b5 01 30
        E 72 b5 01 32
        E 72 b5 01 34
        E 72 b5 01 36
        E 72 b5 01 38
        E 72 b5 01 3a
        E 72 b5 01 3c
        E 72 b5 01 3e
        E 72 b5 01 40
        E 72 b5 01 42
        E 72 b5 01 44
        E 72 b5 01 46
        E 72 b5 01 48
        E 72 b5 01 4a
        E 72 b5 01 4c
        E 72 b5 01 4e
        E 72 b5 01 50
        E 72 b5 01 52
        E 72 b5 01 54
        E 72 b5 01 56
        E 72 b5 01 58
        E 72 b5 01 5a
        E 72 b5 01 5c
        E 72 b5 01 5e
        E 72 b5 01 60
        E 72 b5 01 62
        E 72 b5 01 64
        E 72 b5 01 66
        E 72 b5 01 68
        E 72 b5 01 6a
        E 72 b5 01 6c
        E 72 b5 01 6e
        E 72 b5 01 70
        E 72 b5 01 72
        E 72 b5 01 74
        E 72 b5 01 76
        E 72 b5 01 78
        E 72 b5 01 7a
        E 72 b5 01 7c
        E 72 b5 01 7e
        E 72 b5 01 7f
        E 72 b5 01 7e
        E 72 b5 01 7c
        E 72 b5 01 7a
        E 72 b5 01 78
        E 72 b5 01 76
        E 72 b5 01 74
        E 72 b5 01 72
        E 72 b5 01 70
        E 72 b5 01 6e
        E 72 b5 01 6c
        E 72 b5 01 6a
        E 72 b5 01 68
        E 72 b5 01 66
        E 72 b5 01 64
        E 72 b5 01 62
        E 72 b5 01 60
        E 72 b5 01 5e
        E 72 b5 01 5c
        E 72 b5 01 5a
        E 72 b5 01 58
        E 72 b5 01 56
        E 72 b5 01 54
        E 72 b5 01 52
        E 72 b5 01 50
        E 72 b5 01 4e
        E 72 b5 01 4c
        E 72 b5 01 4a
        E 72 b5 01 48
        E 72 b5 01 46
        E 72 b5 01 44
        E 72 b5 01 42
        E 72 b5 01 40
        E 72 b5 01 3e
        E 72 b5 01 3c
        E 72 b5 01 3a
        E 72 b5 01 38
        E 72 b5 01 36
        E 72 b5 01 34
        E 72 b5 01 32
        E 72 b5 01 30
        E 72 b5 01 2e
        E 72 b5 01 2c
        E 72 b5 01 2a
        E 72 b5 01 28
        E 72 b5 01 26
        E 72 b5 01 24
        E 72 b5 01 22
        E 72 b5 01 20
        E 72 b5 01 1e
        E 72 b5 01 1c
        E 72 b5 01 1a
        E 72 b5 01 18
        E 72 b5 01 16
        E 72 b5 01 14
        E 72 b5 01 12
        E 72 b5 01 10
        E 72 b5 01 0e
        E 72 b5 01 0c
        E 72 b5 01 0a
        E 72 b5 01 08
        E 72 b5 01 06
        E 72 b5 01 04
        E 72 b5 01 02
        E 72 b5 01 00
        E 16 b5 01 01
        E 16 b5 01 03
        E 16 b5 01 05
        E 16 b5 01 07
        E 16 b5 01 09
        E 16 b5 01 0a
        E 16 b5 01 0c
        E 16 b5 01 0e
        E 16 b5 01 10
        E 16 b5 01 12
        E 16 b5 01 13
        E 16 b5 01 15
        E 16 b5 01 17
        E 16 b5 01 19
        E 16 b5 01 1b
        E 16 b5 01 1c
        E 16 b5 01 1e
        E 16 b5 01 20
        E 16 b5 01 22
        E 16 b5 01 24
        E 16 b5 01 25
        E 16 b5 01 27
        E 16 b5 01 29
        E 16 b5 01 2b
        E 16 b5 01 2d
        E 16 b5 01 2e
        E 16 b5 01 30
        E 16 b5 01 32
        E 16 b5 01 34
        E 16 b5 01 36
        E 16 b5 01 37
        E 16 b5 01 39
        E 16 b5 01 3b
        E 16 b5 01 3d
        E 16 b5 01 3f
        E 16 b5 01 40
        E 16 b5 01 42
        E 16 b5 01 44
        E 16 b5 01 46
        E 16 b5 01 48
        E 16 b5 01 49
        E 16 b5 01 4b
        E 16 b5 01 4d
        E 16 b5 01 4f
        E 16 b5 01 51
        E 16 b5 01 52
        E 16 b5 01 54
        E 16 b5 01 56
        E 16 b5 01 58
        E 16 b5 01 5a
        E 16 b5 01 5b
        E 16 b5 01 5d
        E 16 b5 01 5f
        E 16 b5 01 61
        E 16 b5 01 63
        E 16 b5 01 64
        E 16 b5 01 66
        E 16 b5 01 68
        E 16 b5 01 6a
        E 16 b5 01 6c
        E 16 b5 01 6d
        E 16 b5 01 6f
        E 16 b5 01 71
        E 16 b5 01 72
        E 16 b5 01 71
        E 16 b5 01 6f
        E 16 b5 01 6d
        E 16 b5 01 6c
        E 16 b5 01 6a
        E 16 b5 01 68
        E 16 b5 01 66
        E 16 b5 01 64
        E 16 b5 01 63
        E 16 b5 01 61
        E 16 b5 01 5f
        E 16 b5 01 5d
        E 16 b5 01 5b
        E 16 b5 01 5a
        E 16 b5 01 58
        E 16 b5 01 56
        E 16 b5 01 54
        E 16 b5 01 52
        E 16 b5 01 51
        E 16 b5 01 4f
        E 16 b5 01 4d
        E 16 b5 01 4b
        E 16 b5 01 49
        E 16 b5 01 48
        E 16 b5 01 46
        E 16 b5 01 44
        E 16 b5 01 42
        E 16 b5 01 40
        E 16 b5 01 3f
        E 16 b5 01 3d
        E 16 b5 01 3b
        E 16 b5 01 39
        E 16 b5 01 37
        E 16 b5 01 36
        E 16 b5 01 34
        E 16 b5 01 32
        E 16 b5 01 30
        E 16 b5 01 2e
        E 16 b5 01 2d
        E 16 b5 01 2b
        E 16 b5 01 29
        E 16 b5 01 27
        E 16 b5 01 25
        E 16 b5 01 24
        E 16 b5 01 22
        E 16 b5 01 20
        E 16 b5 01 1e
        E 16 b5 01 1c
        E 16 b5 01 1b
        E 16 b5 01 19
        E 16 b5 01 17
        E 16 b5 01 15
        E 16 b5 01 13
        E 16 b5 01 12
        E 16 b5 01 10
        E 16 b5 01 0e
        E 16 b5 01 0c
        E 16 b5 01 0a
        E 16 b5 01 09
        E 16 b5 01 07
        E 16 b5 01 05
        E 16 b5 01 03
        E 16 b5 01 01
        E 16 b5 01 00
        E 8 b5 01 01
        E 8 b5 01 02
        E 8 b5 01 03
        E 8 b5 01 04
        E 8 b5 01 06
        E 8 b5 01 07
        E 8 b5 01 08
        E 8 b5 01 09
        E 8 b5 01 0a
        E 8 b5 01 0c
        E 8 b5 01 0d
        E 8 b5 01 0e
        E 8 b5 01 0f
        E 8 b5 01 10
        E 8 b5 01 12
        E 8 b5 01 13
        E 8 b5 01 14
        E 8 b5 01 15
        E 8 b5 01 16
        E 8 b5 01 18
        E 8 b5 01 19
        E 8 b5 01 1a
        E 8 b5 01 1b
        E 8 b5 01 1c
        E 8 b5 01 1e
        E 8 b5 01 1f
        E 8 b5 01 20
        E 8 b5 01 21
        E 8 b5 01 22
        E 8 b5 01 24
        E 8 b5 01 25
        E 8 b5 01 26
        E 8 b5 01 27
        E 8 b5 01 28
        E 8 b5 01 2a
        E 8 b5 01 2b
        E 8 b5 01 2c
        E 8 b5 01 2d
        E 8 b5 01 2e
        E 8 b5 01 30
        E 8 b5 01 31
        E 8 b5 01 32
        E 8 b5 01 33
        E 8 b5 01 34
        E 8 b5 01 36
        E 8 b5 01 37
        E 8 b5 01 38
        E 8 b5 01 39
        E 8 b5 01 3a
        E 8 b5 01 3c
        E 8 b5 01 3d
        E 8 b5 01 3e
        E 8 b5 01 3f
        E 8 b5 01 40
        E 8 b5 01 42
        E 8 b5 01 43
        E 8 b5 01 44
        E 8 b5 01 45
        E 8 b5 01 46
        E 8 b5 01 48
        E 8 b5 01 49
        E 8 b5 01 4a
        E 8 b5 01 4b
        E 8 b5 01 4c
        E 8 b5 01 4b
        E 8 b5 01 4a
        E 8 b5 01 49
        E 8 b5 01 48
        E 8 b5 01 46
        E 8 b5 01 45
        E 8 b5 01 44
        E 8 b5 01 43
        E 8 b5 01 42
        E 8 b5 01 40
        E 8 b5 01 3f
        E 8 b5 01 3e
        E 8 b5 01 3d
        E 8 b5 01 3c
        E 8 b5 01 3a
        E 8 b5 01 39
        E 8 b5 01 38
        E 8 b5 01 37
        E 8 b5 01 36
        E 8 b5 01 34
        E 8 b5 01 33
        E 8 b5 01 32
        E 8 b5 01 31
        E 8 b5 01 30
        E 8 b5 01 2e
        E 8 b5 01 2d
        E 8 b5 01 2c
        E 8 b5 01 2b
        E 8 b5 01 2a
        E 8 b5 01 28
        E 8 b5 01 27
        E 8 b5 01 26
        E 8 b5 01 25
        E 8 b5 01 24
        E 8 b5 01 22
        E 8 b5 01 21
        E 8 b5 01 20
        E 8 b5 01 1f
        E 8 b5 01 1e
        E 8 b5 01 1c
        E 8 b5 01 1b
        E 8 b5 01 1a
        E 8 b5 01 19
        E 8 b5 01 18
        E 8 b5 01 16
        E 8 b5 01 15
        E 8 b5 01 14
        E 8 b5 01 13
        E 8 b5 01 12
        E 8 b5 01 10
        E 8 b5 01 0f
        E 8 b5 01 0e
        E 8 b5 01 0d
        E 8 b5 01 0c
        E 8 b5 01 0a
        E 8 b5 01 09
        E 8 b5 01 08
        E 8 b5 01 07
        E 8 b5 01 06
        E 8 b5 01 04
        E 8 b5 01 03
        E 8 b5 01 02
        E 8 b5 01 01
        E 8 b5 01 00
        E 40 b5 01 00
        E 40 b5 01 00
        E 40 b5 01 01
        E 40 b5 01 01
        E 40 b5 01 02
        E 40 b5 01 02
        E 40 b5 01 02
        E 40 b5 01 03
        E 40 b5 01 03
        E 40 b5 01 04
        E 40 b5 01 04
        E 40 b5 01 04
        E 40 b5 01 05
        E 40 b5 01 05
        E 40 b5 01 06
        E 40 b5 01 06
        E 40 b5 01 06
        E 40 b5 01 07
        E 40 b5 01 07
        E 40 b5 01 08
        E 40 b5 01 08
        E 40 b5 01 08
        E 40 b5 01 09
        E 40 b5 01 09
        E 40 b5 01 0a
        E 40 b5 01 0a
        E 40 b5 01 0a
        E 40 b5 01 0b
        E 40 b5 01 0b
        E 40 b5 01 0c
        E 40 b5 01 0c
        E 40 b5 01 0c
        E 40 b5 01 0d
        E 40 b5 01 0d
        E 40 b5 01 0e
        E 40 b5 01 0e
        E 40 b5 01 0e
        E 40 b5 01 0f
        E 40 b5 01 0f
        E 40 b5 01 10
        E 40 b5 01 10
        E 40 b5 01 10
        E 40 b5 01 11
        E 40 b5 01 11
        E 40 b5 01 12
        E 40 b5 01 12
        E 40 b5 01 12
        E 40 b5 01 13
        E 40 b5 01 13
        E 40 b5 01 14
        E 40 b5 01 14
        E 40 b5 01 14
        E 40 b5 01 15
        E 40 b5 01 15
        E 40 b5 01 16
        E 40 b5 01 16
        E 40 b5 01 16
        E 40 b5 01 17
        E 40 b5 01 17
        E 40 b5 01 18
        E 40 b5 01 18
        E 40 b5 01 18
        E 40 b5 01 19
        E 40 b5 01 19
        E 40 b5 01 19
        E 40 b5 01 18
        E 40 b5 01 18
        E 40 b5 01 18
        E 40 b5 01 17
        E 40 b5 01 17
        E 40 b5 01 16
        E 40 b5 01 16
        E 40 b5 01 16
        E 40 b5 01 15
        E 40 b5 01 15
        E 40 b5 01 14
        E 40 b5 01 14
        E 40 b5 01 14
        E 40 b5 01 13
        E 40 b5 01 13
        E 40 b5 01 12
        E 40 b5 01 12
        E 40 b5 01 12
        E 40 b5 01 11
        E 40 b5 01 11
        E 40 b5 01 10
        E 40 b5 01 10
        E 40 b5 01 10
        E 40 b5 01 0f
        E 40 b5 01 0f
        E 40 b5 01 0e
        E 40 b5 01 0e
        E 40 b5 01 0e
        E 40 b5 01 0d
        E 40 b5 01 0d
        E 40 b5 01 0c
        E 40 b5 01 0c
        E 40 b5 01 0c
        E 40 b5 01 0b
        E 40 b5 01 0b
        E 40 b5 01 0a
        E 40 b5 01 0a
        E 40 b5 01 0a
        E 40 b5 01 09
        E 40 b5 01 09
        E 40 b5 01 08
        E 40 b5 01 08
        E 40 b5 01 08
        E 40 b5 01 07
        E 40 b5 01 07
        E 40 b5 01 06
        E 40 b5 01 06
        E 40 b5 01 06
        E 40 b5 01 05
        E 40 b5 01 05
        E 40 b5 01 04
        E 40 b5 01 04
        E 40 b5 01 04
        E 40 b5 01 03
        E 40 b5 01 03
        E 40 b5 01 02
        E 40 b5 01 02
        E 40 b5 01 02
        E 40 b5 01 01
        E 40 b5 01 01
        E 40 b5 01 00
        E 40 b5 01 00
        E 40 b5 01 00
        E 32 b5 01 01
        E 32 b5 01 02
        E 32 b5 01 04
        E 32 b5 01 05
        E 32 b5 01 07
        E 32 b5 01 08
        E 32 b5 01 09
        E 32 b5 01 0b
        E 32 b5 01 0c
        E 32 b5 01 0e
        E 32 b5 01 0f
        E 32 b5 01 10
        E 32 b5 01 12
        E 32 b5 01 13
        E 32 b5 01 15
        E 32 b5 01 16
        E 32 b5 01 17
        E 32 b5 01 19
        E 32 b5 01 1a
        E 32 b5 01 1c
        E 32 b5 01 1d
        E 32 b5 01 1e
        E 32 b5 01 20
        E 32 b5 01 21
        E 32 b5 01 23
        E 32 b5 01 24
        E 32 b5 01 25
        E 32 b5 01 27
        E 32 b5 01 28
        E 32 b5 01 2a
        E 32 b5 01 2b
        E 32 b5 01 2c
        E 32 b5 01 2e
        E 32 b5 01 2f
        E 32 b5 01 31
        E 32 b5 01 32
        E 32 b5 01 33
        E 32 b5 01 35
        E 32 b5 01 36
        E 32 b5 01 38
        E 32 b5 01 39
        E 32 b5 01 3a
        E 32 b5 01 3c
        E 32 b5 01 3d
        E 32 b5 01 3e
        E 32 b5 01 40
        E 32 b5 01 41
        E 32 b5 01 43
        E 32 b5 01 44
        E 32 b5 01 46
        E 32 b5 01 47
        E 32 b5 01 48
        E 32 b5 01 4a
        E 32 b5 01 4b
        E 32 b5 01 4d
        E 32 b5 01 4e
        E 32 b5 01 4f
        E 32 b5 01 51
        E 32 b5 01 52
        E 32 b5 01 54
        E 32 b5 01 55
        E 32 b5 01 56
        E 32 b5 01 58
        E 32 b5 01 58
        E 32 b5 01 58
        E 32 b5 01 56
        E 32 b5 01 55
        E 32 b5 01 54
        E 32 b5 01 52
        E 32 b5 01 51
        E 32 b5 01 4f
        E 32 b5 01 4e
        E 32 b5 01 4d
        E 32 b5 01 4b
        E 32 b5 01 4a
        E 32 b5 01 48
        E 32 b5 01 47
        E 32 b5 01 46
        E 32 b5 01 44
        E 32 b5 01 43
        E 32 b5 01 41
        E 32 b5 01 40
        E 32 b5 01 3e
        E 32 b5 01 3d
        E 32 b5 01 3c
        E 32 b5 01 3a
        E 32 b5 01 39
        E 32 b5 01 38
        E 32 b5 01 36
        E 32 b5 01 35
        E 32 b5 01 33
        E 32 b5 01 32
        E 32 b5 01 31
        E 32 b5 01 2f
        E 32 b5 01 2e
        E 32 b5 01 2c
        E 32 b5 01 2b
        E 32 b5 01 2a
        E 32 b5 01 28
        E 32 b5 01 27
        E 32 b5 01 25
        E 32 b5 01 24
        E 32 b5 01 23
        E 32 b5 01 21
        E 32 b5 01 20
        E 32 b5 01 1e
        E 32 b5 01 1d
        E 32 b5 01 1c
        E 32 b5 01 1a
        E 32 b5 01 19
        E 32 b5 01 17
        E 32 b5 01 16
        E 32 b5 01 15
        E 32 b5 01 13
        E 32 b5 01 12
        E 32 b5 01 10
        E 32 b5 01 0f
        E 32 b5 01 0e
        E 32 b5 01 0c
        E 32 b5 01 0b
        E 32 b5 01 09
        E 32 b5 01 08
        E 32 b5 01 07
        E 32 b5 01 05
        E 32 b5 01 04
        E 32 b5 01 02
        E 32 b5 01 01
        E 32 b5 01 00
        E 8 b5 01 00
        E 8 b5 01 01
        E 8 b5 01 02
        E 8 b5 01 03
        E 8 b5 01 04
        E 8 b5 01 04
        E 8 b5 01 05
        E 8 b5 01 06
        E 8 b5 01 07
        E 8 b5 01 08
        E 8 b5 01 08
        E 8 b5 01 09
        E 8 b5 01 0a
        E 8 b5 01 0b
        E 8 b5 01 0c
        E 8 b5 01 0c
        E 8 b5 01 0d
        E 8 b5 01 0e
        E 8 b5 01 0f
        E 8 b5 01 10
        E 8 b5 01 10
        E 8 b5 01 11
        E 8 b5 01 12
        E 8 b5 01 13
        E 8 b5 01 14
        E 8 b5 01 14
        E 8 b5 01 15
        E 8 b5 01 16
        E 8 b5 01 17
        E 8 b5 01 18
        E 8 b5 01 18
        E 8 b5 01 19
        E 8 b5 01 1a
        E 8 b5 01 1b
        E 8 b5 01 1c
        E 8 b5 01 1c
        E 8 b5 01 1d
        E 8 b5 01 1e
        E 8 b5 01 1f
        E 8 b5 01 20
        E 8 b5 01 20
        E 8 b5 01 21
        E 8 b5 01 22
        E 8 b5 01 23
        E 8 b5 01 24
        E 8 b5 01 24
        E 8 b5 01 25
        E 8 b5 01 26
        E 8 b5 01 27
        E 8 b5 01 28
        E 8 b5 01 28
        E 8 b5 01 29
        E 8 b5 01 2a
        E 8 b5 01 2b
        E 8 b5 01 2c
        E 8 b5 01 2c
        E 8 b5 01 2d
        E 8 b5 01 2e
        E 8 b5 01 2f
        E 8 b5 01 30
        E 8 b5 01 30
        E 8 b5 01 31
        E 8 b5 01 32
        E 8 b5 01 32
        E 8 b5 01 32
        E 8 b5 01 31
        E 8 b5 01 30
        E 8 b5 01 30
        E 8 b5 01 2f
        E 8 b5 01 2e
        E 8 b5 01 2d
        E 8 b5 01 2c
        E 8 b5 01 2c
        E 8 b5 01 2b
        E 8 b5 01 2a
        E 8 b5 01 29
        E 8 b5 01 28
        E 8 b5 01 28
        E 8 b5 01 27
        E 8 b5 01 26
        E 8 b5 01 25
        E 8 b5 01 24
        E 8 b5 01 24
        E 8 b5 01 23
        E 8 b5 01 22
        E 8 b5 01 21
        E 8 b5 01 20
        E 8 b5 01 20
        E 8 b5 01 1f
        E 8 b5 01 1e
        E 8 b5 01 1d
        E 8 b5 01 1c
        E 8 b5 01 1c
        E 8 b5 01 1b
        E 8 b5 01 1a
        E 8 b5 01 19
        E 8 b5 01 18
        E 8 b5 01 18
        E 8 b5 01 17
        E 8 b5 01 16
        E 8 b5 01 15
        E 8 b5 01 14
        E 8 b5 01 14
        E 8 b5 01 13
        E 8 b5 01 12
        E 8 b5 01 11
        E 8 b5 01 10
        E 8 b5 01 10
        E 8 b5 01 0f
        E 8 b5 01 0e
        E 8 b5 01 0d
        E 8 b5 01 0c
        E 8 b5 01 0c
        E 8 b5 01 0b
        E 8 b5 01 0a
        E 8 b5 01 09
        E 8 b5 01 08
        E 8 b5 01 08
        E 8 b5 01 07
        E 8 b5 01 06
        E 8 b5 01 05
        E 8 b5 01 04
        E 8 b5 01 04
        E 8 b5 01 03
        E 8 b5 01 02
        E 8 b5 01 01
        E 8 b5 01 00
        E 8 b5 01 00
        E 72 b5 01 02
        E 72 b5 01 04
        E 72 b5 01 06
        E 72 b5 01 08
        E 72 b5 01 0a
        E 72 b5 01 0c
        E 72 b5 01 0e
        E 72 b5 01 10
        E 72 b5 01 12
        E 72 b5 01 14
        E 72 b5 01 16
        E 72 b5 01 18
        E 72 b5 01 1a
        E 72 b5 01 1c
        E 72 b5 01 1e
        E 72 b5 01 20
        E 72 b5 01 22
        E 72 b5 01 24
        E 72 b5 01 26
        E 72 b5 01 28
        E 72 b5 01 2a
        E 72 b5 01 2c
        E 72 b5 01 2e
        E 72 b5 01 30
        E 72 b5 01 32
        E 72 b5 01 34
        E 72 b5 01 36
        E 72 b5 01 38
        E 72 b5 01 3a
        E 72 b5 01 3c
        E 72 b5 01 3e
        E 72 b5 01 40
        E 72 b5 01 42
        E 72 b5 01 44
        E 72 b5 01 46
        E 72 b5 01 48
        E 72 b5 01 4a
        E 72 b5 01 4c
        E 72 b5 01 4e
        E 72 b5 01 50
        E 72 b5 01 52
        E 72 b5 01 54
        E 72 b5 01 56
        E 72 b5 01 58
        E 72 b5 01 5a
        E 72 b5 01 5c
        E 72 b5 01 5e
        E 72 b5 01 60
        E 72 b5 01 62
        E 72 b5 01 64
        E 72 b5 01 66
        E 72 b5 01 68
        E 72 b5 01 6a
        E 72 b5 01 6c
        E 72 b5 01 6e
        E 72 b5 01 70
        E 72 b5 01 72
        E 72 b5 01 74
        E 72 b5 01 76
        E 72 b5 01 78
        E 72 b5 01 7a
        E 72 b5 01 7c
        E 72 b5 01 7e
        E 72 b5 01 7f
        E 72 b5 01 7e
        E 72 b5 01 7c
        E 72 b5 01 7a
        E 72 b5 01 78
        E 72 b5 01 76
        E 72 b5 01 74
        E 72 b5 01 72
        E 72 b5 01 70
        E 72 b5 01 6e
        E 72 b5 01 6c
        E 72 b5 01 6a
        E 72 b5 01 68
        E 72 b5 01 66
        E 72 b5 01 64
        E 72 b5 01 62
        E 72 b5 01 60
        E 72 b5 01 5e
        E 72 b5 01 5c
        E 72 b5 01 5a
        E 72 b5 01 58
        E 72 b5 01 56
        E 72 b5 01 54
        E 72 b5 01 52
        E 72 b5 01 50
        E 72 b5 01 4e
        E 72 b5 01 4c
        E 72 b5 01 4a
        E 72 b5 01 48
        E 72 b5 01 46
        E 72 b5 01 44
        E 72 b5 01 42
        E 72 b5 01 40
        E 72 b5 01 3e
        E 72 b5 01 3c
        E 72 b5 01 3a
        E 72 b5 01 38
        E 72 b5 01 36
        E 72 b5 01 34
        E 72 b5 01 32
        E 72 b5 01 30
        E 72 b5 01 2e
        E 72 b5 01 2c
        E 72 b5 01 2a
        E 72 b5 01 28
        E 72 b5 01 26
        E 72 b5 01 24
        E 72 b5 01 22
        E 72 b5 01 20
        E 72 b5 01 1e
        E 72 b5 01 1c
        E 72 b5 01 1a
        E 72 b5 01 18
        E 72 b5 01 16
        E 72 b5 01 14
        E 72 b5 01 12
        E 72 b5 01 10
        E 72 b5 01 0e
        E 72 b5 01 0c
        E 72 b5 01 0a
        E 72 b5 01 08
        E 72 b5 01 06
        E 72 b5 01 04
        E 72 b5 01 02
        E 72 b5 01 00
        E 16 b5 01 01
        E 16 b5 01 03
        E 16 b5 01 05
        E 16 b5 01 07
        E 16 b5 01 09
        E 16 b5 01 0a
        E 16 b5 01 0c
        E 16 b5 01 0e
        E 16 b5 01 10
        E 16 b5 01 12
        E 16 b5 01 13
        E 16 b5 01 15
        E 16 b5 01 17
        E 16 b5 01 19
        E 16 b5 01 1b
        E 16 b5 01 1c
        E 16 b5 01 1e
        E 16 b5 01 20
        E 16 b5 01 22
        E 16 b5 01 24
        E 16 b5 01 25
        E 16 b5 01 27
        E 16 b5 01 29
        E 16 b5 01 2b
        E 16 b5 01 2d
        E 16 b5 01 2e
        E 16 b5 01 30
        E 16 b5 01 32
        E 16 b5 01 34
        E 16 b5 01 36
        E 16 b5 01 37
        E 16 b5 01 39
        E 16 b5 01 3b
        E 16 b5 01 3d
        E 16 b5 01 3f
        E 16 b5 01 40
        E 16 b5 01 42
        E 16 b5 01 44
        E 16 b5 01 46
        E 16 b5 01 48
        E 16 b5 01 49
        E 16 b5 01 4b
        E 16 b5 01 4d
        E 16 b5 01 4f
        E 16 b5 01 51
        E 16 b5 01 52
        E 16 b5 01 54
        E 16 b5 01 56
        E 16 b5 01 58
        E 16 b5 01 5a
        E 16 b5 01 5b
        E 16 b5 01 5d
        E 16 b5 01 5f
        E 16 b5 01 61
        E 16 b5 01 63
        E 16 b5 01 64
        E 16 b5 01 66
        E 16 b5 01 68
        E 16 b5 01 6a
        E 16 b5 01 6c
        E 16 b5 01 6d
        E 16 b5 01 6f
        E 16 b5 01 71
        E 16 b5 01 72
        E 16 b5 01 71
        E 16 b5 01 6f
        E 16 b5 01 6d
        E 16 b5 01 6c
        E 16 b5 01 6a
        E 16 b5 01 68
        E 16 b5 01 66
        E 16 b5 01 64
        E 16 b5 01 63
        E 16 b5 01 61
        E 16 b5 01 5f
        E 16 b5 01 5d
        E 16 b5 01 5b
        E 16 b5 01 5a
        E 16 b5 01 58
        E 16 b5 01 56
        E 16 b5 01 54
        E 16 b5 01 52
        E 16 b5 01 51
        E 16 b5 01 4f
        E 16 b5 01 4d
        E 16 b5 01 4b
        E 16 b5 01 49
        E 16 b5 01 48
        E 16 b5 01 46
        E 16 b5 01 44
        E 16 b5 01 42
        E 16 b5 01 40
        E 16 b5 01 3f
        E 16 b5 01 3d
        E 16 b5 01 3b
        E 16 b5 01 39
        E 16 b5 01 37
        E 16 b5 01 36
        E 16 b5 01 34
        E 16 b5 01 32
        E 16 b5 01 30
        E 16 b5 01 2e
        E 16 b5 01 2d
        E 16 b5 01 2b
        E 16 b5 01 29
        E 16 b5 01 27
        E 16 b5 01 25
        E 16 b5 01 24
        E 16 b5 01 22
        E 16 b5 01 20
        E 16 b5 01 1e
        E 16 b5 01 1c
        E 16 b5 01 1b
        E 16 b5 01 19
        E 16 b5 01 17
        E 16 b5 01 15
        E 16 b5 01 13
        E 16 b5 01 12
        E 16 b5 01 10
        E 16 b5 01 0e
        E 16 b5 01 0c
        E 16 b5 01 0a
        E 16 b5 01 09
        E 16 b5 01 07
        E 16 b5 01 05
        E 16 b5 01 03
        E 16 b5 01 01
        E 16 b5 01 00
        E 8 b5 01 01
        E 8 b5 01 02
        E 8 b5 01 03
        E 8 b5 01 04
        E 8 b5 01 06
        E 8 b5 01 07
        E 8 b5 01 08
        E 8 b5 01 09
        E 8 b5 01 0a
        E 8 b5 01 0c
        E 8 b5 01 0d
        E 8 b5 01 0e
        E 8 b5 01 0f
        E 8 b5 01 10
        E 8 b5 01 12
        E 8 b5 01 13
        E 8 b5 01 14
        E 8 b5 01 15
        E 8 b5 01 16
        E 8 b5 01 18
        E 8 b5 01 19
        E 8 b5 01 1a
        E 8 b5 01 1b
        E 8 b5 01 1c
        E 8 b5 01 1e
        E 8 b5 01 1f
        E 8 b5 01 20
        E 8 b5 01 21
        E 8 b5 01 22
        E 8 b5 01 24
        E 8 b5 01 25
        E 8 b5 01 26
        E 8 b5 01 27
        E 8 b5 01 28
        E 8 b5 01 2a
        E 8 b5 01 2b
        E 8 b5 01 2c
        E 8 b5 01 2d
        E 8 b5 01 2e
        E 8 b5 01 30
        E 8 b5 01 31
        E 8 b5 01 32
        E 8 b5 01 33
        E 8 b5 01 34
        E 8 b5 01 36
        E 8 b5 01 37
        E 8 b5 01 38
        E 8 b5 01 39
        E 8 b5 01 3a
        E 8 b5 01 3c
        E 8 b5 01 3d
        E 8 b5 01 3e
        E 8 b5 01 3f
        E 8 b5 01 40
        E 8 b5 01 42
        E 8 b5 01 43
        E 8 b5 01 44
        E 8 b5 01 45
        E 8 b5 01 46
        E 8 b5 01 48
        E 8 b5 01 49
        E 8 b5 01 4a
        E 8 b5 01 4b
        E 8 b5 01 4c
        E 8 b5 01 4b
        E 8 b5 01 4a
        E 8 b5 01 49
        E 8 b5 01 48
        E 8 b5 01 46
        E 8 b5 01 45
        E 8 b5 01 44
        E 8 b5 01 43
        E 8 b5 01 42
        E 8 b5 01 40
        E 8 b5 01 3f
        E 8 b5 01 3e
        E 8 b5 01 3d
        E 8 b5 01 3c
        E 8 b5 01 3a
        E 8 b5 01 39
        E 8 b5 01 38
        E 8 b5 01 37
        E 8 b5 01 36
        E 8 b5 01 34
        E 8 b5 01 33
        E 8 b5 01 32
        E 8 b5 01 31
        E 8 b5 01 30
        E 8 b5 01 2e
        E 8 b5 01 2d
        E 8 b5 01 2c
        E 8 b5 01 2b
        E 8 b5 01 2a
        E 8 b5 01 28
        E 8 b5 01 27
        E 8 b5 01 26
        E 8 b5 01 25
        E 8 b5 01 24
        E 8 b5 01 22
        E 8 b5 01 21
        E 8 b5 01 20
        E 8 b5 01 1f
        E 8 b5 01 1e
        E 8 b5 01 1c
        E 8 b5 01 1b
        E 8 b5 01 1a
        E 8 b5 01 19
        E 8 b5 01 18
        E 8 b5 01 16
        E 8 b5 01 15
        E 8 b5 01 14
        E 8 b5 01 13
        E 8 b5 01 12
        E 8 b5 01 10
        E 8 b5 01 0f
        E 8 b5 01 0e
        E 8 b5 01 0d
        E 8 b5 01 0c
        E 8 b5 01 0a
        E 8 b5 01 09
        E 8 b5 01 08
        E 8 b5 01 07
        E 8 b5 01 06
        E 8 b5 01 04
        E 8 b5 01 03
        E 8 b5 01 02
        E 8 b5 01 01
        E 8 b5 01 00
        E 40 b5 01 00
        E 40 b5 01 00
        E 40 b5 01 01
        E 40 b5 01 01
        E 40 b5 01 02
        E 40 b5 01 02
        E 40 b5 01 02
        E 40 b5 01 03
        E 40 b5 01 03
        E 40 b5 01 04
        E 40 b5 01 04
        E 40 b5 01 04
        E 40 b5 01 05
        E 40 b5 01 05
        E 40 b5 01 06
        E 40 b5 01 06
        E 40 b5 01 06
        E 40 b5 01 07
        E 40 b5 01 07
        E 40 b5 01 08
        E 40 b5 01 08
        E 40 b5 01 08
        E 40 b5 01 09
        E 40 b5 01 09
        E 40 b5 01 0a
        E 40 b5 01 0a
        E 40 b5 01 0a
        E 40 b5 01 0b
        E 40 b5 01 0b
        E 40 b5 01 0c
        E 40 b5 01 0c
        E 40 b5 01 0c
        E 40 b5 01 0d
        E 40 b5 01 0d
        E 40 b5 01 0e
        E 40 b5 01 0e
        E 40 b5 01 0e
        E 40 b5 01 0f
        E 40 b5 01 0f
        E 40 b5 01 10
        E 40 b5 01 10
        E 40 b5 01 10
        E 40 b5 01 11
        E 40 b5 01 11
        E 40 b5 01 12
        E 40 b5 01 12
        E 40 b5 01 12
        E 40 b5 01 13
        E 40 b5 01 13
        E 40 b5 01 14
        E 40 b5 01 14
        E 40 b5 01 14
        E 40 b5 01 15
        E 40 b5 01 15
        E 40 b5 01 16
        E 40 b5 01 16
        E 40 b5 01 16
        E 40 b5 01 17
        E 40 b5 01 17
        E 40 b5 01 18
        E 40 b5 01 18
        E 40 b5 01 18
        E 40 b5 01 19
        E 40 b5 01 19
        E 40 b5 01 19
        E 40 b5 01 18
        E 40 b5 01 18
        E 40 b5 01 18
        E 40 b5 01 17
        E 40 b5 01 17
        E 40 b5 01 16
        E 40 b5 01 16
        E 40 b5 01 16
        E 40 b5 01 15
        E 40 b5 01 15
        E 40 b5 01 14
        E 40 b5 01 14
        E 40 b5 01 14
        E 40 b5 01 13
        E 40 b5 01 13
        E 40 b5 01 12
        E 40 b5 01 12
        E 40 b5 01 12
        E 40 b5 01 11
        E 40 b5 01 11
        E 40 b5 01 10
        E 40 b5 01 10
        E 40 b5 01 10
        E 40 b5 01 0f
        E 40 b5 01 0f
        E 40 b5 01 0e
        E 40 b5 01 0e
        E 40 b5 01 0e
        E 40 b5 01 0d
        E 40 b5 01 0d
        E 40 b5 01 0c
        E 40 b5 01 0c
        E 40 b5 01 0c
        E 40 b5 01 0b
        E 40 b5 01 0b
        E 40 b5 01 0a
        E 40 b5 01 0a
        E 40 b5 01 0a
        E 40 b5 01 09
        E 40 b5 01 09
        E 40 b5 01 08
        E 40 b5 01 08
        E 40 b5 01 08
        E 40 b5 01 07
        E 40 b5 01 07
        E 40 b5 01 06
        E 40 b5 01 06
        E 40 b5 01 06
        E 40 b5 01 05
        E 40 b5 01 05
        E 40 b5 01 04
        E 40 b5 01 04
        E 40 b5 01 04
        E 40 b5 01 03
        E 40 b5 01 03
        E 40 b5 01 02
        E 40 b5 01 02
        E 40 b5 01 02
        E 40 b5 01 01
        E 40 b5 01 01
        E 40 b5 01 00
        E 40 b5 01 00
        E 40 b5 01 00
        E 32 b5 01 01
        E 32 b5 01 02
        E 32 b5 01 04
        E 32 b5 01 05
        E 32 b5 01 07
        E 32 b5 01 08
        E 32 b5 01 09
        E 32 b5 01 0b
        E 32 b5 01 0c
        E 32 b5 01 0e
        E 32 b5 01 0f
        E 32 b5 01 10
        E 32 b5 01 12
        E 32 b5 01 13
        E 32 b5 01 15
        E 32 b5 01 16
        E 32 b5 01 17
        E 32 b5 01 19
        E 32 b5 01 1a
        E 32 b5 01 1c
        E 32 b5 01 1d
        E 32 b5 01 1e
        E 32 b5 01 20
        E 32 b5 01 21
        E 32 b5 01 23
        E 32 b5 01 24
        E 32 b5 01 25
        E 32 b5 01 27
        E 32 b5 01 28
        E 32 b5 01 2a
        E 32 b5 01 2b
        E 32 b5 01 2c
        E 32 b5 01 2e
        E 32 b5 01 2f
        E 32 b5 01 31
        E 32 b5 01 32
        E 32 b5 01 33
        E 32 b5 01 35
        E 32 b5 01 36
        E 32 b5 01 38
        E 32 b5 01 39
        E 32 b5 01 3a
        E 32 b5 01 3c
        E 32 b5 01 3d
        E 32 b5 01 3e
        E 32 b5 01 40
        E 32 b5 01 41
        E 32 b5 01 43
        E 32 b5 01 44
        E 32 b5 01 46
        E 32 b5 01 47
        E 32 b5 01 48
        E 32 b5 01 4a
        E 32 b5 01 4b
        E 32 b5 01 4d
        E 32 b5 01 4e
        E 32 b5 01 4f
        E 32 b5 01 51
        E 32 b5 01 52
        E 32 b5 01 54
        E 32 b5 01 55
        E 32 b5 01 56
        E 32 b5 01 58
        E 32 b5 01 58
        E 32 b5 01 58
        E 32 b5 01 56
        E 32 b5 01 55
        E 32 b5 01 54
        E 32 b5 01 52
        E 32 b5 01 51
        E 32 b5 01 4f
        E 32 b5 01 4e
        E 32 b5 01 4d
        E 32 b5 01 4b
        E 32 b5 01 4a
        E 32 b5 01 48
        E 32 b5 01 47
        E 32 b5 01 46
        E 32 b5 01 44
        E 32 b5 01 43
        E 32 b5 01 41
        E 32 b5 01 40
        E 32 b5 01 3e
        E 32 b5 01 3d
        E 32 b5 01 3c
        E 32 b5 01 3a
        E 32 b5 01 39
        E 32 b5 01 38
        E 32 b5 01 36
        E 32 b5 01 35
        E 32 b5 01 33
        E 32 b5 01 32
        E 32 b5 01 31
        E 32 b5 01 2f
        E 32 b5 01 2e
        E 32 b5 01 2c
        E 32 b5 01 2b
        E 32 b5 01 2a
        E 32 b5 01 28
        E 32 b5 01 27
        E 32 b5 01 25
        E 32 b5 01 24
        E 32 b5 01 23
        E 32 b5 01 21
        E 32 b5 01 20
        E 32 b5 01 1e
        E 32 b5 01 1d
        E 32 b5 01 1c
        E 32 b5 01 1a
        E 32 b5 01 19
        E 32 b5 01 17
        E 32 b5 01 16
        E 32 b5 01 15
        E 32 b5 01 13
        E 32 b5 01 12
        E 32 b5 01 10
        E 32 b5 01 0f
        E 32 b5 01 0e
        E 32 b5 01 0c
        E 32 b5 01 0b
        E 32 b5 01 09
        E 32 b5 01 08
        E 32 b5 01 07
        E 32 b5 01 05
        E 32 b5 01 04
        E 32 b5 01 02
        E 32 b5 01 01
        E 32 b5 01 00
        E 3 b5 01 19
        E 3 b5 01 56
        E 3 b5 01 38
        E 3 b5 01 09
        E 3 b5 01 51
        E 3 b5 01 48
        E 3 b5 01 0a
        E 3 b5 01 09
        E 3 b5 01 36
        E 3 b5 01 6c
        E 3 b5 01 5a
        E 3 b5 01 63
        E 3 b5 01 47
        E 3 b5 01 0c
        E 3 b5 01 15
        E 3 b5 01 4d
        E 3 b5 01 3f
        E 3 b5 01 20
        E 3 b5 01 16
        E 3 b5 01 1e
        E 3 b5 01 59
        E 3 b5 01 35
        E 3 b5 01 1b
        E 3 b5 01 41
        E 3 b5 01 71
        E 3 b5 01 00
        E 3 b5 01 0e
        E 3 b5 01 2e
        E 3 b5 01 26
        E 3 b5 01 5d
        E 3 b5 01 18
        E 3 b5 01 07
        E 3 b5 01 12
        E 3 b5 01 13
        E 3 b5 01 67
        E 3 b5 01 1c
        E 3 b5 01 00
        E 3 b5 01 54
        E 3 b5 01 27
        E 3 b5 01 17
        E 3 b5 01 2d
        E 3 b5 01 1d
        E 3 b5 01 61
        E 3 b5 01 60
        E 3 b5 01 72
        E 3 b5 01 5f
        E 3 b5 01 31
        E 3 b5 01 6a
        E 3 b5 01 51
        E 3 b5 01 0d
        E 3 b5 01 32
        E 3 b5 01 3d
        E 3 b5 01 6c
        E 3 b5 01 57
        E 3 b5 01 3e
        E 3 b5 01 3f
        E 3 b5 01 05
        E 3 b5 01 0b
        E 3 b5 01 69
        E 3 b5 01 5b
        E 3 b5 01 30
        E 3 b5 01 24
        E 3 b5 01 0f
        E 3 b5 01 33
        E 3 b5 01 22
        E 3 b5 01 1b
        E 3 b5 01 2b
        E 3 b5 01 3b
        E 3 b5 01 45
        E 3 b5 01 49
        E 3 b5 01 12
        E 3 b5 01 44
        E 3 b5 01 65
        E 3 b5 01 3a
        E 3 b5 01 42
        E 3 b5 01 02
        E 3 b5 01 08
        E 3 b5 01 70
        E 3 b5 01 4a
        E 3 b5 01 14
        E 3 b5 01 68
        E 3 b5 01 24
        E 3 b5 01 2c
        E 3 b5 01 37
        E 3 b5 01 2d
        E 3 b5 01 4c
        E 3 b5 01 5c
        E 3 b5 01 21
        E 3 b5 01 40
        E 3 b5 01 1a
        E 3 b5 01 66
        E 3 b5 01 5e
        E 3 b5 01 34
        E 3 b5 01 29
        E 3 b5 01 5a
        E 3 b5 01 2a
        E 3 b5 01 50
        E 3 b5 01 10
        E 3 b5 01 01
        E 3 b5 01 25
        E 3 b5 01 39
        E 3 b5 01 62
        E 3 b5 01 58
        E 3 b5 01 03
        E 3 b5 01 63
        E 3 b5 01 53
        E 3 b5 01 06
        E 3 b5 01 23
        E 3 b5 01 43
        E 3 b5 01 55
        E 3 b5 01 6d
        E 3 b5 01 46
        E 3 b5 01 2f
        E 3 b5 01 1f
        E 3 b5 01 4f
        E 3 b5 01 52
        E 3 b5 01 64
        E 3 b5 01 6f
        E 3 b5 01 36
        E 3 b5 01 48
        E 3 b5 01 4e
        E 3 b5 01 3c
        E 3 b5 01 6b
        E 3 b5 01 11
        E 3 b5 01 28
        E 3 b5 01 4b
        E 1 b5 01 10
        E 1 b5 01 39
        E 1 b5 01 25
        E 1 b5 01 06
        E 1 b5 01 36
        E 1 b5 01 30
        E 1 b5 01 07
        E 1 b5 01 06
        E 1 b5 01 24
        E 1 b5 01 48
        E 1 b5 01 3c
        E 1 b5 01 42
        E 1 b5 01 2f
        E 1 b5 01 08
        E 1 b5 01 0e
        E 1 b5 01 33
        E 1 b5 01 2a
        E 1 b5 01 15
        E 1 b5 01 0f
        E 1 b5 01 14
        E 1 b5 01 3b
        E 1 b5 01 23
        E 1 b5 01 12
        E 1 b5 01 2b
        E 1 b5 01 4b
        E 1 b5 01 00
        E 1 b5 01 09
        E 1 b5 01 1f
        E 1 b5 01 19
        E 1 b5 01 3e
        E 1 b5 01 10
        E 1 b5 01 04
        E 1 b5 01 0c
        E 1 b5 01 0d
        E 1 b5 01 45
        E 1 b5 01 13
        E 1 b5 01 00
        E 1 b5 01 38
        E 1 b5 01 1a
        E 1 b5 01 0f
        E 1 b5 01 1e
        E 1 b5 01 13
        E 1 b5 01 40
        E 1 b5 01 40
        E 1 b5 01 4c
        E 1 b5 01 3f
        E 1 b5 01 21
        E 1 b5 01 46
        E 1 b5 01 36
        E 1 b5 01 09
        E 1 b5 01 21
        E 1 b5 01 28
        E 1 b5 01 48
        E 1 b5 01 3a
        E 1 b5 01 29
        E 1 b5 01 2a
        E 1 b5 01 03
        E 1 b5 01 07
        E 1 b5 01 46
        E 1 b5 01 3d
        E 1 b5 01 20
        E 1 b5 01 18
        E 1 b5 01 0a
        E 1 b5 01 22
        E 1 b5 01 16
        E 1 b5 01 12
        E 1 b5 01 1c
        E 1 b5 01 27
        E 1 b5 01 2e
        E 1 b5 01 31
        E 1 b5 01 0c
        E 1 b5 01 2d
        E 1 b5 01 43
        E 1 b5 01 27
        E 1 b5 01 2c
        E 1 b5 01 01
        E 1 b5 01 05
        E 1 b5 01 4b
        E 1 b5 01 31
        E 1 b5 01 0d
        E 1 b5 01 45
        E 1 b5 01 18
        E 1 b5 01 1d
        E 1 b5 01 25
        E 1 b5 01 1e
        E 1 b5 01 33
        E 1 b5 01 3d
        E 1 b5 01 16
        E 1 b5 01 2b
        E 1 b5 01 11
        E 1 b5 01 44
        E 1 b5 01 3f
        E 1 b5 01 22
        E 1 b5 01 1b
        E 1 b5 01 3c
        E 1 b5 01 1c
        E 1 b5 01 35
        E 1 b5 01 0a
        E 1 b5 01 01
        E 1 b5 01 19
        E 1 b5 01 26
        E 1 b5 01 41
        E 1 b5 01 3a
        E 1 b5 01 02
        E 1 b5 01 42
        E 1 b5 01 37
        E 1 b5 01 04
        E 1 b5 01 17
        E 1 b5 01 2d
        E 1 b5 01 39
        E 1 b5 01 49
        E 1 b5 01 2e
        E 1 b5 01 1f
        E 1 b5 01 15
        E 1 b5 01 34
        E 1 b5 01 37
        E 1 b5 01 43
        E 1 b5 01 4a
        E 1 b5 01 24
        E 1 b5 01 30
        E 1 b5 01 34
        E 1 b5 01 28
        E 1 b5 01 47
        E 1 b5 01 0b
        E 1 b5 01 1b
        E 1 b5 01 32
        E 8 b5 01 05
        E 8 b5 01 13
        E 8 b5 01 0c
        E 8 b5 01 02
        E 8 b5 01 12
        E 8 b5 01 10
        E 8 b5 01 02
        E 8 b5 01 02
        E 8 b5 01 0c
        E 8 b5 01 18
        E 8 b5 01 14
        E 8 b5 01 16
        E 8 b5 01 0f
        E 8 b5 01 02
        E 8 b5 01 04
        E 8 b5 01 11
        E 8 b5 01 0e
        E 8 b5 01 07
        E 8 b5 01 05
        E 8 b5 01 06
        E 8 b5 01 13
        E 8 b5 01 0b
        E 8 b5 01 06
        E 8 b5 01 0e
        E 8 b5 01 19
        E 8 b5 01 00
        E 8 b5 01 03
        E 8 b5 01 0a
        E 8 b5 01 08
        E 8 b5 01 14
        E 8 b5 01 05
        E 8 b5 01 01
        E 8 b5 01 04
        E 8 b5 01 04
        E 8 b5 01 17
        E 8 b5 01 06
        E 8 b5 01 00
        E 8 b5 01 12
        E 8 b5 01 08
        E 8 b5 01 05
        E 8 b5 01 0a
        E 8 b5 01 06
        E 8 b5 01 15
        E 8 b5 01 15
        E 8 b5 01 19
        E 8 b5 01 15
        E 8 b5 01 0b
        E 8 b5 01 17
        E 8 b5 01 12
        E 8 b5 01 03
        E 8 b5 01 0b
        E 8 b5 01 0d
        E 8 b5 01 18
        E 8 b5 01 13
        E 8 b5 01 0d
        E 8 b5 01 0e
        E 8 b5 01 01
        E 8 b5 01 02
        E 8 b5 01 17
        E 8 b5 01 14
        E 8 b5 01 0a
        E 8 b5 01 08
        E 8 b5 01 03
        E 8 b5 01 0b
        E 8 b5 01 07
        E 8 b5 01 06
        E 8 b5 01 09
        E 8 b5 01 0d
        E 8 b5 01 0f
        E 8 b5 01 10
        E 8 b5 01 04
        E 8 b5 01 0f
        E 8 b5 01 16
        E 8 b5 01 0d
        E 8 b5 01 0e
        E 8 b5 01 00
        E 8 b5 01 01
        E 8 b5 01 19
        E 8 b5 01 10
        E 8 b5 01 04
        E 8 b5 01 17
        E 8 b5 01 08
        E 8 b5 01 09
        E 8 b5 01 0c
        E 8 b5 01 0a
        E 8 b5 01 11
        E 8 b5 01 14
        E 8 b5 01 07
        E 8 b5 01 0e
        E 8 b5 01 05
        E 8 b5 01 16
        E 8 b5 01 15
        E 8 b5 01 0b
        E 8 b5 01 09
        E 8 b5 01 14
        E 8 b5 01 09
        E 8 b5 01 11
        E 8 b5 01 03
        E 8 b5 01 00
        E 8 b5 01 08
        E 8 b5 01 0c
        E 8 b5 01 15
        E 8 b5 01 13
        E 8 b5 01 00
        E 8 b5 01 16
        E 8 b5 01 12
        E 8 b5 01 01
        E 8 b5 01 07
        E 8 b5 01 0f
        E 8 b5 01 13
        E 8 b5 01 18
        E 8 b5 01 0f
        E 8 b5 01 0a
        E 8 b5 01 07
        E 8 b5 01 11
        E 8 b5 01 12
        E 8 b5 01 16
        E 8 b5 01 18
        E 8 b5 01 0c
        E 8 b5 01 10
        E 8 b5 01 11
        E 8 b5 01 0d
        E 8 b5 01 17
        E 8 b5 01 03
        E 8 b5 01 09
        E 8 b5 01 10
        E 6 b5 01 13
        E 6 b5 01 43
        E 6 b5 01 2c
        E 6 b5 01 07
        E 6 b5 01 3e
        E 6 b5 01 38
        E 6 b5 01 08
        E 6 b5 01 07
        E 6 b5 01 2a
        E 6 b5 01 54
        E 6 b5 01 46
        E 6 b5 01 4d
        E 6 b5 01 37
        E 6 b5 01 09
        E 6 b5 01 10
        E 6 b5 01 3c
        E 6 b5 01 31
        E 6 b5 01 19
        E 6 b5 01 11
        E 6 b5 01 17
        E 6 b5 01 45
        E 6 b5 01 29
        E 6 b5 01 15
        E 6 b5 01 33
        E 6 b5 01 58
        E 6 b5 01 00
        E 6 b5 01 0b
        E 6 b5 01 24
        E 6 b5 01 1e
        E 6 b5 01 48
        E 6 b5 01 12
        E 6 b5 01 05
        E 6 b5 01 0e
        E 6 b5 01 0f
        E 6 b5 01 50
        E 6 b5 01 16
        E 6 b5 01 00
        E 6 b5 01 41
        E 6 b5 01 1e
        E 6 b5 01 12
        E 6 b5 01 23
        E 6 b5 01 17
        E 6 b5 01 4b
        E 6 b5 01 4a
        E 6 b5 01 58
        E 6 b5 01 4a
        E 6 b5 01 26
        E 6 b5 01 52
        E 6 b5 01 3f
        E 6 b5 01 0a
        E 6 b5 01 27
        E 6 b5 01 2f
        E 6 b5 01 54
        E 6 b5 01 43
        E 6 b5 01 30
        E 6 b5 01 31
        E 6 b5 01 04
        E 6 b5 01 09
        E 6 b5 01 51
        E 6 b5 01 47
        E 6 b5 01 25
        E 6 b5 01 1c
        E 6 b5 01 0b
        E 6 b5 01 27
        E 6 b5 01 1a
        E 6 b5 01 15
        E 6 b5 01 21
        E 6 b5 01 2e
        E 6 b5 01 35
        E 6 b5 01 39
        E 6 b5 01 0e
        E 6 b5 01 35
        E 6 b5 01 4f
        E 6 b5 01 2d
        E 6 b5 01 33
        E 6 b5 01 02
        E 6 b5 01 06
        E 6 b5 01 57
        E 6 b5 01 3a
        E 6 b5 01 10
        E 6 b5 01 51
        E 6 b5 01 1c
        E 6 b5 01 22
        E 6 b5 01 2b
        E 6 b5 01 23
        E 6 b5 01 3b
        E 6 b5 01 48
        E 6 b5 01 19
        E 6 b5 01 32
        E 6 b5 01 14
        E 6 b5 01 4f
        E 6 b5 01 49
        E 6 b5 01 28
        E 6 b5 01 20
        E 6 b5 01 46
        E 6 b5 01 20
        E 6 b5 01 3e
        E 6 b5 01 0c
        E 6 b5 01 01
        E 6 b5 01 1d
        E 6 b5 01 2c
        E 6 b5 01 4c
        E 6 b5 01 44
        E 6 b5 01 02
        E 6 b5 01 4d
        E 6 b5 01 41
        E 6 b5 01 04
        E 6 b5 01 1b
        E 6 b5 01 34
        E 6 b5 01 42
        E 6 b5 01 55
        E 6 b5 01 36
        E 6 b5 01 25
        E 6 b5 01 18
        E 6 b5 01 3d
        E 6 b5 01 40
        E 6 b5 01 4e
        E 6 b5 01 56
        E 6 b5 01 2a
        E 6 b5 01 38
        E 6 b5 01 3c
        E 6 b5 01 2e
        E 6 b5 01 53
        E 6 b5 01 0d
        E 6 b5 01 1f
        E 6 b5 01 3a
        E 1 b5 01 0b
        E 1 b5 01 26
        E 1 b5 01 19
        E 1 b5 01 04
        E 1 b5 01 24
        E 1 b5 01 20
        E 1 b5 01 04
        E 1 b5 01 04
        E 1 b5 01 18
        E 1 b5 01 30
        E 1 b5 01 28
        E 1 b5 01 2c
        E 1 b5 01 1f
        E 1 b5 01 05
        E 1 b5 01 09
        E 1 b5 01 22
        E 1 b5 01 1c
        E 1 b5 01 0e
        E 1 b5 01 0a
        E 1 b5 01 0d
        E 1 b5 01 27
        E 1 b5 01 17
        E 1 b5 01 0c
        E 1 b5 01 1d
        E 1 b5 01 32
        E 1 b5 01 00
        E 1 b5 01 06
        E 1 b5 01 14
        E 1 b5 01 11
        E 1 b5 01 29
        E 1 b5 01 0a
        E 1 b5 01 03
        E 1 b5 01 08
        E 1 b5 01 08
        E 1 b5 01 2e
        E 1 b5 01 0c
        E 1 b5 01 00
        E 1 b5 01 25
        E 1 b5 01 11
        E 1 b5 01 0a
        E 1 b5 01 14
        E 1 b5 01 0d
        E 1 b5 01 2b
        E 1 b5 01 2a
        E 1 b5 01 32
        E 1 b5 01 2a
        E 1 b5 01 16
        E 1 b5 01 2f
        E 1 b5 01 24
        E 1 b5 01 06
        E 1 b5 01 16
        E 1 b5 01 1b
        E 1 b5 01 30
        E 1 b5 01 26
        E 1 b5 01 1b
        E 1 b5 01 1c
        E 1 b5 01 02
        E 1 b5 01 05
        E 1 b5 01 2e
        E 1 b5 01 28
        E 1 b5 01 15
        E 1 b5 01 10
        E 1 b5 01 06
        E 1 b5 01 16
        E 1 b5 01 0f
        E 1 b5 01 0c
        E 1 b5 01 13
        E 1 b5 01 1a
        E 1 b5 01 1e
        E 1 b5 01 20
        E 1 b5 01 08
        E 1 b5 01 1e
        E 1 b5 01 2d
        E 1 b5 01 1a
        E 1 b5 01 1d
        E 1 b5 01 01
        E 1 b5 01 03
        E 1 b5 01 32
        E 1 b5 01 21
        E 1 b5 01 09
        E 1 b5 01 2e
        E 1 b5 01 10
        E 1 b5 01 13
        E 1 b5 01 18
        E 1 b5 01 14
        E 1 b5 01 22
        E 1 b5 01 29
        E 1 b5 01 0e
        E 1 b5 01 1c
        E 1 b5 01 0b
        E 1 b5 01 2d
        E 1 b5 01 2a
        E 1 b5 01 17
        E 1 b5 01 12
        E 1 b5 01 28
        E 1 b5 01 12
        E 1 b5 01 23
        E 1 b5 01 07
        E 1 b5 01 00
        E 1 b5 01 10
        E 1 b5 01 19
        E 1 b5 01 2b
        E 1 b5 01 27
        E 1 b5 01 01
        E 1 b5 01 2c
        E 1 b5 01 25
        E 1 b5 01 02
        E 1 b5 01 0f
        E 1 b5 01 1e
        E 1 b5 01 26
        E 1 b5 01 30
        E 1 b5 01 1f
        E 1 b5 01 15
        E 1 b5 01 0e
        E 1 b5 01 23
        E 1 b5 01 24
        E 1 b5 01 2c
        E 1 b5 01 31
        E 1 b5 01 18
        E 1 b5 01 20
        E 1 b5 01 22
        E 1 b5 01 1a
        E 1 b5 01 2f
        E 1 b5 01 07
        E 1 b5 01 12
        E 1 b5 01 21
        E 15 b5 01 1c
        E 15 b5 01 60
        E 15 b5 01 3f
        E 15 b5 01 0a
        E 15 b5 01 5a
        E 15 b5 01 50
        E 15 b5 01 0c
        E 15 b5 01 0b
        E 15 b5 01 3d
        E 15 b5 01 78
        E 15 b5 01 65
        E 15 b5 01 6f
        E 15 b5 01 4f
        E 15 b5 01 0e
        E 15 b5 01 18
        E 15 b5 01 56
        E 15 b5 01 46
        E 15 b5 01 24
        E 15 b5 01 19
        E 15 b5 01 22
        E 15 b5 01 63
        E 15 b5 01 3b
        E 15 b5 01 1e
        E 15 b5 01 49
        E 15 b5 01 7e
        E 15 b5 01 00
        E 15 b5 01 10
        E 15 b5 01 34
        E 15 b5 01 2b
        E 15 b5 01 68
        E 15 b5 01 1b
        E 15 b5 01 08
        E 15 b5 01 14
        E 15 b5 01 16
        E 15 b5 01 73
        E 15 b5 01 20
        E 15 b5 01 01
        E 15 b5 01 5e
        E 15 b5 01 2c
        E 15 b5 01 1a
        E 15 b5 01 32
        E 15 b5 01 21
        E 15 b5 01 6c
        E 15 b5 01 6b
        E 15 b5 01 7f
        E 15 b5 01 6a
        E 15 b5 01 37
        E 15 b5 01 76
        E 15 b5 01 5b
        E 15 b5 01 0f
        E 15 b5 01 38
        E 15 b5 01 44
        E 15 b5 01 79
        E 15 b5 01 61
        E 15 b5 01 45
        E 15 b5 01 47
        E 15 b5 01 06
        E 15 b5 01 0d
        E 15 b5 01 75
        E 15 b5 01 66
        E 15 b5 01 36
        E 15 b5 01 28
        E 15 b5 01 11
        E 15 b5 01 39
        E 15 b5 01 26
        E 15 b5 01 1f
        E 15 b5 01 30
        E 15 b5 01 42
        E 15 b5 01 4d
        E 15 b5 01 52
        E 15 b5 01 15
        E 15 b5 01 4c
        E 15 b5 01 71
        E 15 b5 01 41
        E 15 b5 01 4a
        E 15 b5 01 03
        E 15 b5 01 09
        E 15 b5 01 7d
        E 15 b5 01 53
        E 15 b5 01 17
        E 15 b5 01 74
        E 15 b5 01 29
        E 15 b5 01 31
        E 15 b5 01 3e
        E 15 b5 01 33
        E 15 b5 01 55
        E 15 b5 01 67
        E 15 b5 01 25
        E 15 b5 01 48
        E 15 b5 01 1d
        E 15 b5 01 72
        E 15 b5 01 69
        E 15 b5 01 3a
        E 15 b5 01 2e
        E 15 b5 01 64
        E 15 b5 01 2f
        E 15 b5 01 59
        E 15 b5 01 12
        E 15 b5 01 02
        E 15 b5 01 2a
        E 15 b5 01 40
        E 15 b5 01 6d
        E 15 b5 01 62
        E 15 b5 01 04
        E 15 b5 01 6e
        E 15 b5 01 5d
        E 15 b5 01 07
        E 15 b5 01 27
        E 15 b5 01 4b
        E 15 b5 01 5f
        E 15 b5 01 7a
        E 15 b5 01 4e
        E 15 b5 01 35
        E 15 b5 01 23
        E 15 b5 01 58
        E 15 b5 01 5c
        E 15 b5 01 70
        E 15 b5 01 7c
        E 15 b5 01 3c
        E 15 b5 01 51
        E 15 b5 01 57
        E 15 b5 01 43
        E 15 b5 01 77
        E 15 b5 01 13
        E 15 b5 01 2d
        E 15 b5 01 54
        E 3 b5 01 19
        E 3 b5 01 56
        E 3 b5 01 38
        E 3 b5 01 09
        E 3 b5 01 51
        E 3 b5 01 48
        E 3 b5 01 0a
        E 3 b5 01 09
        E 3 b5 01 36
        E 3 b5 01 6c
        E 3 b5 01 5a
        E 3 b5 01 63
        E 3 b5 01 47
        E 3 b5 01 0c
        E 3 b5 01 15
        E 3 b5 01 4d
        E 3 b5 01 3f
        E 3 b5 01 20
        E 3 b5 01 16
        E 3 b5 01 1e
        E 3 b5 01 59
        E 3 b5 01 35
        E 3 b5 01 1b
        E 3 b5 01 41
        E 3 b5 01 71
        E 3 b5 01 00
        E 3 b5 01 0e
        E 3 b5 01 2e
        E 3 b5 01 26
        E 3 b5 01 5d
        E 3 b5 01 18
        E 3 b5 01 07
        E 3 b5 01 12
        E 3 b5 01 13
        E 3 b5 01 67
        E 3 b5 01 1c
        E 3 b5 01 00
        E 3 b5 01 54
        E 3 b5 01 27
        E 3 b5 01 17
        E 3 b5 01 2d
        E 3 b5 01 1d
        E 3 b5 01 61
        E 3 b5 01 60
        E 3 b5 01 72
        E 3 b5 01 5f
        E 3 b5 01 31
        E 3 b5 01 6a
        E 3 b5 01 51
        E 3 b5 01 0d
        E 3 b5 01 32
        E 3 b5 01 3d
        E 3 b5 01 6c
        E 3 b5 01 57
        E 3 b5 01 3e
        E 3 b5 01 3f
        E 3 b5 01 05
        E 3 b5 01 0b
        E 3 b5 01 69
        E 3 b5 01 5b
        E 3 b5 01 30
        E 3 b5 01 24
        E 3 b5 01 0f
        E 3 b5 01 33
        E 3 b5 01 22
        E 3 b5 01 1b
        E 3 b5 01 2b
        E 3 b5 01 3b
        E 3 b5 01 45
        E 3 b5 01 49
        E 3 b5 01 12
        E 3 b5 01 44
        E 3 b5 01 65
        E 3 b5 01 3a
        E 3 b5 01 42
        E 3 b5 01 02
        E 3 b5 01 08
        E 3 b5 01 70
        E 3 b5 01 4a
        E 3 b5 01 14
        E 3 b5 01 68
        E 3 b5 01 24
        E 3 b5 01 2c
        E 3 b5 01 37
        E 3 b5 01 2d
        E 3 b5 01 4c
        E 3 b5 01 5c
        E 3 b5 01 21
        E 3 b5 01 40
        E 3 b5 01 1a
        E 3 b5 01 66
        E 3 b5 01 5e
        E 3 b5 01 34
        E 3 b5 01 29
        E 3 b5 01 5a
        E 3 b5 01 2a
        E 3 b5 01 50
        E 3 b5 01 10
        E 3 b5 01 01
        E 3 b5 01 25
        E 3 b5 01 39
        E 3 b5 01 62
        E 3 b5 01 58
        E 3 b5 01 03
        E 3 b5 01 63
        E 3 b5 01 53
        E 3 b5 01 06
        E 3 b5 01 23
        E 3 b5 01 43
        E 3 b5 01 55
        E 3 b5 01 6d
        E 3 b5 01 46
        E 3 b5 01 2f
        E 3 b5 01 1f
        E 3 b5 01 4f
        E 3 b5 01 52
        E 3 b5 01 64
        E 3 b5 01 6f
        E 3 b5 01 36
        E 3 b5 01 48
        E 3 b5 01 4e
        E 3 b5 01 3c
        E 3 b5 01 6b
        E 3 b5 01 11
        E 3 b5 01 28
        E 3 b5 01 4b
        E 1 b5 01 10
        E 1 b5 01 39
        E 1 b5 01 25
        E 1 b5 01 06
        E 1 b5 01 36
        E 1 b5 01 30
        E 1 b5 01 07
        E 1 b5 01 06
        E 1 b5 01 24
        E 1 b5 01 48
        E 1 b5 01 3c
        E 1 b5 01 42
        E 1 b5 01 2f
        E 1 b5 01 08
        E 1 b5 01 0e
        E 1 b5 01 33
        E 1 b5 01 2a
        E 1 b5 01 15
        E 1 b5 01 0f
        E 1 b5 01 14
        E 1 b5 01 3b
        E 1 b5 01 23
        E 1 b5 01 12
        E 1 b5 01 2b
        E 1 b5 01 4b
        E 1 b5 01 00
        E 1 b5 01 09
        E 1 b5 01 1f
        E 1 b5 01 19
        E 1 b5 01 3e
        E 1 b5 01 10
        E 1 b5 01 04
        E 1 b5 01 0c
        E 1 b5 01 0d
        E 1 b5 01 45
        E 1 b5 01 13
        E 1 b5 01 00
        E 1 b5 01 38
        E 1 b5 01 1a
        E 1 b5 01 0f
        E 1 b5 01 1e
        E 1 b5 01 13
        E 1 b5 01 40
        E 1 b5 01 40
        E 1 b5 01 4c
        E 1 b5 01 3f
        E 1 b5 01 21
        E 1 b5 01 46
        E 1 b5 01 36
        E 1 b5 01 09
        E 1 b5 01 21
        E 1 b5 01 28
        E 1 b5 01 48
        E 1 b5 01 3a
        E 1 b5 01 29
        E 1 b5 01 2a
        E 1 b5 01 03
        E 1 b5 01 07
        E 1 b5 01 46
        E 1 b5 01 3d
        E 1 b5 01 20
        E 1 b5 01 18
        E 1 b5 01 0a
        E 1 b5 01 22
        E 1 b5 01 16
        E 1 b5 01 12
        E 1 b5 01 1c
        E 1 b5 01 27
        E 1 b5 01 2e
        E 1 b5 01 31
        E 1 b5 01 0c
        E 1 b5 01 2d
        E 1 b5 01 43
        E 1 b5 01 27
        E 1 b5 01 2c
        E 1 b5 01 01
        E 1 b5 01 05
        E 1 b5 01 4b
        E 1 b5 01 31
        E 1 b5 01 0d
        E 1 b5 01 45
        E 1 b5 01 18
        E 1 b5 01 1d
        E 1 b5 01 25
        E 1 b5 01 1e
        E 1 b5 01 33
        E 1 b5 01 3d
        E 1 b5 01 16
        E 1 b5 01 2b
        E 1 b5 01 11
        E 1 b5 01 44
        E 1 b5 01 3f
        E 1 b5 01 22
        E 1 b5 01 1b
        E 1 b5 01 3c
        E 1 b5 01 1c
        E 1 b5 01 35
        E 1 b5 01 0a
        E 1 b5 01 01
        E 1 b5 01 19
        E 1 b5 01 26
        E 1 b5 01 41
        E 1 b5 01 3a
        E 1 b5 01 02
        E 1 b5 01 42
        E 1 b5 01 37
        E 1 b5 01 04
        E 1 b5 01 17
        E 1 b5 01 2d
        E 1 b5 01 39
        E 1 b5 01 49
        E 1 b5 01 2e
        E 1 b5 01 1f
        E 1 b5 01 15
        E 1 b5 01 34
        E 1 b5 01 37
        E 1 b5 01 43
        E 1 b5 01 4a
        E 1 b5 01 24
        E 1 b5 01 30
        E 1 b5 01 34
        E 1 b5 01 28
        E 1 b5 01 47
        E 1 b5 01 0b
        E 1 b5 01 1b
        E 1 b5 01 32
        E 8 b5 01 05
        E 8 b5 01 13
        E 8 b5 01 0c
        E 8 b5 01 02
        E 8 b5 01 12
        E 8 b5 01 10
        E 8 b5 01 02
        E 8 b5 01 02
        E 8 b5 01 0c
        E 8 b5 01 18
        E 8 b5 01 14
        E 8 b5 01 16
        E 8 b5 01 0f
        E 8 b5 01 02
        E 8 b5 01 04
        E 8 b5 01 11
        E 8 b5 01 0e
        E 8 b5 01 07
        E 8 b5 01 05
        E 8 b5 01 06
        E 8 b5 01 13
        E 8 b5 01 0b
        E 8 b5 01 06
        E 8 b5 01 0e
        E 8 b5 01 19
        E 8 b5 01 00
        E 8 b5 01 03
        E 8 b5 01 0a
        E 8 b5 01 08
        E 8 b5 01 14
        E 8 b5 01 05
        E 8 b5 01 01
        E 8 b5 01 04
        E 8 b5 01 04
        E 8 b5 01 17
        E 8 b5 01 06
        E 8 b5 01 00
        E 8 b5 01 12
        E 8 b5 01 08
        E 8 b5 01 05
        E 8 b5 01 0a
        E 8 b5 01 06
        E 8 b5 01 15
        E 8 b5 01 15
        E 8 b5 01 19
        E 8 b5 01 15
        E 8 b5 01 0b
        E 8 b5 01 17
        E 8 b5 01 12
        E 8 b5 01 03
        E 8 b5 01 0b
        E 8 b5 01 0d
        E 8 b5 01 18
        E 8 b5 01 13
        E 8 b5 01 0d
        E 8 b5 01 0e
        E 8 b5 01 01
        E 8 b5 01 02
        E 8 b5 01 17
        E 8 b5 01 14
        E 8 b5 01 0a
        E 8 b5 01 08
        E 8 b5 01 03
        E 8 b5 01 0b
        E 8 b5 01 07
        E 8 b5 01 06
        E 8 b5 01 09
        E 8 b5 01 0d
        E 8 b5 01 0f
        E 8 b5 01 10
        E 8 b5 01 04
        E 8 b5 01 0f
        E 8 b5 01 16
        E 8 b5 01 0d
        E 8 b5 01 0e
        E 8 b5 01 00
        E 8 b5 01 01
        E 8 b5 01 19
        E 8 b5 01 10
        E 8 b5 01 04
        E 8 b5 01 17
        E 8 b5 01 08
        E 8 b5 01 09
        E 8 b5 01 0c
        E 8 b5 01 0a
        E 8 b5 01 11
        E 8 b5 01 14
        E 8 b5 01 07
        E 8 b5 01 0e
        E 8 b5 01 05
        E 8 b5 01 16
        E 8 b5 01 15
        E 8 b5 01 0b
        E 8 b5 01 09
        E 8 b5 01 14
        E 8 b5 01 09
        E 8 b5 01 11
        E 8 b5 01 03
        E 8 b5 01 00
        E 8 b5 01 08
        E 8 b5 01 0c
        E 8 b5 01 15
        E 8 b5 01 13
        E 8 b5 01 00
        E 8 b5 01 16
        E 8 b5 01 12
        E 8 b5 01 01
        E 8 b5 01 07
        E 8 b5 01 0f
        E 8 b5 01 13
        E 8 b5 01 18
        E 8 b5 01 0f
        E 8 b5 01 0a
        E 8 b5 01 07
        E 8 b5 01 11
        E 8 b5 01 12
        E 8 b5 01 16
        E 8 b5 01 18
        E 8 b5 01 0c
        E 8 b5 01 10
        E 8 b5 01 11
        E 8 b5 01 0d
        E 8 b5 01 17
        E 8 b5 01 03
        E 8 b5 01 09
        E 8 b5 01 10
        E 6 b5 01 13
        E 6 b5 01 43
        E 6 b5 01 2c
        E 6 b5 01 07
        E 6 b5 01 3e
        E 6 b5 01 38
        E 6 b5 01 08
        E 6 b5 01 07
        E 6 b5 01 2a
        E 6 b5 01 54
        E 6 b5 01 46
        E 6 b5 01 4d
        E 6 b5 01 37
        E 6 b5 01 09
        E 6 b5 01 10
        E 6 b5 01 3c
        E 6 b5 01 31
        E 6 b5 01 19
        E 6 b5 01 11
        E 6 b5 01 17
        E 6 b5 01 45
        E 6 b5 01 29
        E 6 b5 01 15
        E 6 b5 01 33
        E 6 b5 01 58
        E 6 b5 01 00
        E 6 b5 01 0b
        E 6 b5 01 24
        E 6 b5 01 1e
        E 6 b5 01 48
        E 6 b5 01 12
        E 6 b5 01 05
        E 6 b5 01 0e
        E 6 b5 01 0f
        E 6 b5 01 50
        E 6 b5 01 16
        E 6 b5 01 00
        E 6 b5 01 41
        E 6 b5 01 1e
        E 6 b5 01 12
        E 6 b5 01 23
        E 6 b5 01 17
        E 6 b5 01 4b
        E 6 b5 01 4a
        E 6 b5 01 58
        E 6 b5 01 4a
        E 6 b5 01 26
        E 6 b5 01 52
        E 6 b5 01 3f
        E 6 b5 01 0a
        E 6 b5 01 27
        E 6 b5 01 2f
        E 6 b5 01 54
        E 6 b5 01 43
        E 6 b5 01 30
        E 6 b5 01 31
        E 6 b5 01 04
        E 6 b5 01 09
        E 6 b5 01 51
        E 6 b5 01 47
        E 6 b5 01 25
        E 6 b5 01 1c
        E 6 b5 01 0b
        E 6 b5 01 27
        E 6 b5 01 1a
        E 6 b5 01 15
        E 6 b5 01 21
        E 6 b5 01 2e
        E 6 b5 01 35
        E 6 b5 01 39
        E 6 b5 01 0e
        E 6 b5 01 35
        E 6 b5 01 4f
        E 6 b5 01 2d
        E 6 b5 01 33
        E 6 b5 01 02
        E 6 b5 01 06
        E 6 b5 01 57
        E 6 b5 01 3a
        E 6 b5 01 10
        E 6 b5 01 51
        E 6 b5 01 1c
        E 6 b5 01 22
        E 6 b5 01 2b
        E 6 b5 01 23
        E 6 b5 01 3b
        E 6 b5 01 48
        E 6 b5 01 19
        E 6 b5 01 32
        E 6 b5 01 14
        E 6 b5 01 4f
        E 6 b5 01 49
        E 6 b5 01 28
        E 6 b5 01 20
        E 6 b5 01 46
        E 6 b5 01 20
        E 6 b5 01 3e
        E 6 b5 01 0c
        E 6 b5 01 01
        E 6 b5 01 1d
        E 6 b5 01 2c
        E 6 b5 01 4c
        E 6 b5 01 44
        E 6 b5 01 02
        E 6 b5 01 4d
        E 6 b5 01 41
        E 6 b5 01 04
        E 6 b5 01 1b
        E 6 b5 01 34
        E 6 b5 01 42
        E 6 b5 01 55
        E 6 b5 01 36
        E 6 b5 01 25
        E 6 b5 01 18
        E 6 b5 01 3d
        E 6 b5 01 40
        E 6 b5 01 4e
        E 6 b5 01 56
        E 6 b5 01 2a
        E 6 b5 01 38
        E 6 b5 01 3c
        E 6 b5 01 2e
        E 6 b5 01 53
        E 6 b5 01 0d
        E 6 b5 01 1f
        E 6 b5 01 3a
        E 1 b5 01 0b
        E 1 b5 01 26
        E 1 b5 01 19
        E 1 b5 01 04
        E 1 b5 01 24
        E 1 b5 01 20
        E 1 b5 01 04
        E 1 b5 01 04
        E 1 b5 01 18
        E 1 b5 01 30
        E 1 b5 01 28
        E 1 b5 01 2c
        E 1 b5 01 1f
        E 1 b5 01 05
        E 1 b5 01 09
        E 1 b5 01 22
        E 1 b5 01 1c
        E 1 b5 01 0e
        E 1 b5 01 0a
        E 1 b5 01 0d
        E 1 b5 01 27
        E 1 b5 01 17
        E 1 b5 01 0c
        E 1 b5 01 1d
        E 1 b5 01 32
        E 1 b5 01 00
        E 1 b5 01 06
        E 1 b5 01 14
        E 1 b5 01 11
        E 1 b5 01 29
        E 1 b5 01 0a
        E 1 b5 01 03
        E 1 b5 01 08
        E 1 b5 01 08
        E 1 b5 01 2e
        E 1 b5 01 0c
        E 1 b5 01 00
        E 1 b5 01 25
        E 1 b5 01 11
        E 1 b5 01 0a
        E 1 b5 01 14
        E 1 b5 01 0d
        E 1 b5 01 2b
        E 1 b5 01 2a
        E 1 b5 01 32
        E 1 b5 01 2a
        E 1 b5 01 16
        E 1 b5 01 2f
        E 1 b5 01 24
        E 1 b5 01 06
        E 1 b5 01 16
        E 1 b5 01 1b
        E 1 b5 01 30
        E 1 b5 01 26
        E 1 b5 01 1b
        E 1 b5 01 1c
        E 1 b5 01 02
        E 1 b5 01 05
        E 1 b5 01 2e
        E 1 b5 01 28
        E 1 b5 01 15
        E 1 b5 01 10
        E 1 b5 01 06
        E 1 b5 01 16
        E 1 b5 01 0f
        E 1 b5 01 0c
        E 1 b5 01 13
        E 1 b5 01 1a
        E 1 b5 01 1e
        E 1 b5 01 20
        E 1 b5 01 08
        E 1 b5 01 1e
        E 1 b5 01 2d
        E 1 b5 01 1a
        E 1 b5 01 1d
        E 1 b5 01 01
        E 1 b5 01 03
        E 1 b5 01 32
        E 1 b5 01 21
        E 1 b5 01 09
        E 1 b5 01 2e
        E 1 b5 01 10
        E 1 b5 01 13
        E 1 b5 01 18
        E 1 b5 01 14
        E 1 b5 01 22
        E 1 b5 01 29
        E 1 b5 01 0e
        E 1 b5 01 1c
        E 1 b5 01 0b
        E 1 b5 01 2d
        E 1 b5 01 2a
        E 1 b5 01 17
        E 1 b5 01 12
        E 1 b5 01 28
        E 1 b5 01 12
        E 1 b5 01 23
        E 1 b5 01 07
        E 1 b5 01 00
        E 1 b5 01 10
        E 1 b5 01 19
        E 1 b5 01 2b
        E 1 b5 01 27
        E 1 b5 01 01
        E 1 b5 01 2c
        E 1 b5 01 25
        E 1 b5 01 02
        E 1 b5 01 0f
        E 1 b5 01 1e
        E 1 b5 01 26
        E 1 b5 01 30
        E 1 b5 01 1f
        E 1 b5 01 15
        E 1 b5 01 0e
        E 1 b5 01 23
        E 1 b5 01 24
        E 1 b5 01 2c
        E 1 b5 01 31
        E 1 b5 01 18
        E 1 b5 01 20
        E 1 b5 01 22
        E 1 b5 01 1a
        E 1 b5 01 2f
        E 1 b5 01 07
        E 1 b5 01 12
        E 1 b5 01 21
        E 15 b5 01 1c
        E 15 b5 01 60
        E 15 b5 01 3f
        E 15 b5 01 0a
        E 15 b5 01 5a
        E 15 b5 01 50
        E 15 b5 01 0c
        E 15 b5 01 0b
        E 15 b5 01 3d
        E 15 b5 01 78
        E 15 b5 01 65
        E 15 b5 01 6f
        E 15 b5 01 4f
        E 15 b5 01 0e
        E 15 b5 01 18
        E 15 b5 01 56
        E 15 b5 01 46
        E 15 b5 01 24
        E 15 b5 01 19
        E 15 b5 01 22
        E 15 b5 01 63
        E 15 b5 01 3b
        E 15 b5 01 1e
        E 15 b5 01 49
        E 15 b5 01 7e
        E 15 b5 01 00
        E 15 b5 01 10
        E 15 b5 01 34
        E 15 b5 01 2b
        E 15 b5 01 68
        E 15 b5 01 1b
        E 15 b5 01 08
        E 15 b5 01 14
        E 15 b5 01 16
        E 15 b5 01 73
        E 15 b5 01 20
        E 15 b5 01 01
        E 15 b5 01 5e
        E 15 b5 01 2c
        E 15 b5 01 1a
        E 15 b5 01 32
        E 15 b5 01 21
        E 15 b5 01 6c
        E 15 b5 01 6b
        E 15 b5 01 7f
        E 15 b5 01 6a
        E 15 b5 01 37
        E 15 b5 01 76
        E 15 b5 01 5b
        E 15 b5 01 0f
        E 15 b5 01 38
        E 15 b5 01 44
        E 15 b5 01 79
        E 15 b5 01 61
        E 15 b5 01 45
        E 15 b5 01 47
        E 15 b5 01 06
        E 15 b5 01 0d
        E 15 b5 01 75
        E 15 b5 01 66
        E 15 b5 01 36
        E 15 b5 01 28
        E 15 b5 01 11
        E 15 b5 01 39
        E 15 b5 01 26
        E 15 b5 01 1f
        E 15 b5 01 30
        E 15 b5 01 42
        E 15 b5 01 4d
        E 15 b5 01 52
        E 15 b5 01 15
        E 15 b5 01 4c
        E 15 b5 01 71
        E 15 b5 01 41
        E 15 b5 01 4a
        E 15 b5 01 03
        E 15 b5 01 09
        E 15 b5 01 7d
        E 15 b5 01 53
        E 15 b5 01 17
        E 15 b5 01 74
        E 15 b5 01 29
        E 15 b5 01 31
        E 15 b5 01 3e
        E 15 b5 01 33
        E 15 b5 01 55
        E 15 b5 01 67
        E 15 b5 01 25
        E 15 b5 01 48
        E 15 b5 01 1d
        E 15 b5 01 72
        E 15 b5 01 69
        E 15 b5 01 3a
        E 15 b5 01 2e
        E 15 b5 01 64
        E 15 b5 01 2f
        E 15 b5 01 59
        E 15 b5 01 12
        E 15 b5 01 02
        E 15 b5 01 2a
        E 15 b5 01 40
        E 15 b5 01 6d
        E 15 b5 01 62
        E 15 b5 01 04
        E 15 b5 01 6e
        E 15 b5 01 5d
        E 15 b5 01 07
        E 15 b5 01 27
        E 15 b5 01 4b
        E 15 b5 01 5f
        E 15 b5 01 7a
        E 15 b5 01 4e
        E 15 b5 01 35
        E 15 b5 01 23
        E 15 b5 01 58
        E 15 b5 01 5c
        E 15 b5 01 70
        E 15 b5 01 7c
        E 15 b5 01 3c
        E 15 b5 01 51
        E 15 b5 01 57
        E 15 b5 01 43
        E 15 b5 01 77
        E 15 b5 01 13
        E 15 b5 01 2d
        E 15 b5 01 54
        E 3 b5 01 19
        E 3 b5 01 56
        E 3 b5 01 38
        E 3 b5 01 09
        E 3 b5 01 51
        E 3 b5 01 48
        E 3 b5 01 0a
        E 3 b5 01 09
        E 3 b5 01 36
        E 3 b5 01 6c
        E 3 b5 01 5a
        E 3 b5 01 63
        E 3 b5 01 47
        E 3 b5 01 0c
        E 3 b5 01 15
        E 3 b5 01 4d
        E 3 b5 01 3f
        E 3 b5 01 20
        E 3 b5 01 16
        E 3 b5 01 1e
        E 3 b5 01 59
        E 3 b5 01 35
        E 3 b5 01 1b
        E 3 b5 01 41
        E 3 b5 01 71
        E 3 b5 01 00
        E 3 b5 01 0e
        E 3 b5 01 2e
        E 3 b5 01 26
        E 3 b5 01 5d
        E 3 b5 01 18
        E 3 b5 01 07
        E 3 b5 01 12
        E 3 b5 01 13
        E 3 b5 01 67
        E 3 b5 01 1c
        E 3 b5 01 00
        E 3 b5 01 54
        E 3 b5 01 27
        E 3 b5 01 17
        E 3 b5 01 2d
        E 3 b5 01 1d
        E 3 b5 01 61
        E 3 b5 01 60
        E 3 b5 01 72
        E 3 b5 01 5f
        E 3 b5 01 31
        E 3 b5 01 6a
        E 3 b5 01 51
        E 3 b5 01 0d
        E 3 b5 01 32
        E 3 b5 01 3d
        E 3 b5 01 6c
        E 3 b5 01 57
        E 3 b5 01 3e
        E 3 b5 01 3f
        E 3 b5 01 05
        E 3 b5 01 0b
        E 3 b5 01 69
        E 3 b5 01 5b
        E 3 b5 01 30
        E 3 b5 01 24
        E 3 b5 01 0f
        E 3 b5 01 33
        E 3 b5 01 22
        E 3 b5 01 1b
        E 3 b5 01 2b
        E 3 b5 01 3b
        E 3 b5 01 45
        E 3 b5 01 49
        E 3 b5 01 12
        E 3 b5 01 44
        E 3 b5 01 65
        E 3 b5 01 3a
        E 3 b5 01 42
        E 3 b5 01 02
        E 3 b5 01 08
        E 3 b5 01 70
        E 3 b5 01 4a
        E 3 b5 01 14
        E 3 b5 01 68
        E 3 b5 01 24
        E 3 b5 01 2c
        E 3 b5 01 37
        E 3 b5 01 2d
        E 3 b5 01 4c
        E 3 b5 01 5c
        E 3 b5 01 21
        E 3 b5 01 40
        E 3 b5 01 1a
        E 3 b5 01 66
        E 3 b5 01 5e
        E 3 b5 01 34
        E 3 b5 01 29
        E 3 b5 01 5a
        E 3 b5 01 2a
        E 3 b5 01 50
        E 3 b5 01 10
        E 3 b5 01 01
        E 3 b5 01 25
        E 3 b5 01 39
        E 3 b5 01 62
        E 3 b5 01 58
        E 3 b5 01 03
        E 3 b5 01 63
        E 3 b5 01 53
        E 3 b5 01 06
        E 3 b5 01 23
        E 3 b5 01 43
        E 3 b5 01 55
        E 3 b5 01 6d
        E 3 b5 01 46
        E 3 b5 01 2f
        E 3 b5 01 1f
        E 3 b5 01 4f
        E 3 b5 01 52
        E 3 b5 01 64
        E 3 b5 01 6f
        E 3 b5 01 36
        E 3 b5 01 48
        E 3 b5 01 4e
        E 3 b5 01 3c
        E 3 b5 01 6b
        E 3 b5 01 11
        E 3 b5 01 28
        E 3 b5 01 4b
        E 1 b5 01 10
        E 1 b5 01 39
        E 1 b5 01 25
        E 1 b5 01 06
        E 1 b5 01 36
        E 1 b5 01 30
        E 1 b5 01 07
        E 1 b5 01 06
        E 1 b5 01 24
        E 1 b5 01 48
        E 1 b5 01 3c
        E 1 b5 01 42
        E 1 b5 01 2f
        E 1 b5 01 08
        E 1 b5 01 0e
        E 1 b5 01 33
        E 1 b5 01 2a
        E 1 b5 01 15
        E 1 b5 01 0f
        E 1 b5 01 14
        E 1 b5 01 3b
        E 1 b5 01 23
        E 1 b5 01 12
        E 1 b5 01 2b
        E 1 b5 01 4b
        E 1 b5 01 00
        E 1 b5 01 09
        E 1 b5 01 1f
        E 1 b5 01 19
        E 1 b5 01 3e
        E 1 b5 01 10
        E 1 b5 01 04
        E 1 b5 01 0c
        E 1 b5 01 0d
        E 1 b5 01 45
        E 1 b5 01 13
        E 1 b5 01 00
        E 1 b5 01 38
        E 1 b5 01 1a
        E 1 b5 01 0f
        E 1 b5 01 1e
        E 1 b5 01 13
        E 1 b5 01 40
        E 1 b5 01 40
        E 1 b5 01 4c
        E 1 b5 01 3f
        E 1 b5 01 21
        E 1 b5 01 46
        E 1 b5 01 36
        E 1 b5 01 09
        E 1 b5 01 21
        E 1 b5 01 28
        E 1 b5 01 48
        E 1 b5 01 3a
        E 1 b5 01 29
        E 1 b5 01 2a
        E 1 b5 01 03
        E 1 b5 01 07
        E 1 b5 01 46
        E 1 b5 01 3d
        E 1 b5 01 20
        E 1 b5 01 18
        E 1 b5 01 0a
        E 1 b5 01 22
        E 1 b5 01 16
        E 1 b5 01 12
        E 1 b5 01 1c
        E 1 b5 01 27
        E 1 b5 01 2e
        E 1 b5 01 31
        E 1 b5 01 0c
        E 1 b5 01 2d
        E 1 b5 01 43
        E 1 b5 01 27
        E 1 b5 01 2c
        E 1 b5 01 01
        E 1 b5 01 05
        E 1 b5 01 4b
        E 1 b5 01 31
        E 1 b5 01 0d
        E 1 b5 01 45
        E 1 b5 01 18
        E 1 b5 01 1d
        E 1 b5 01 25
        E 1 b5 01 1e
        E 1 b5 01 33
        E 1 b5 01 3d
        E 1 b5 01 16
        E 1 b5 01 2b
        E 1 b5 01 11
        E 1 b5 01 44
        E 1 b5 01 3f
        E 1 b5 01 22
        E 1 b5 01 1b
        E 1 b5 01 3c
        E 1 b5 01 1c
        E 1 b5 01 35
        E 1 b5 01 0a
        E 1 b5 01 01
        E 1 b5 01 19
        E 1 b5 01 26
        E 1 b5 01 41
        E 1 b5 01 3a
        E 1 b5 01 02
        E 1 b5 01 42
        E 1 b5 01 37
        E 1 b5 01 04
        E 1 b5 01 17
        E 1 b5 01 2d
        E 1 b5 01 39
        E 1 b5 01 49
        E 1 b5 01 2e
        E 1 b5 01 1f
        E 1 b5 01 15
        E 1 b5 01 34
        E 1 b5 01 37
        E 1 b5 01 43
        E 1 b5 01 4a
        E 1 b5 01 24
        E 1 b5 01 30
        E 1 b5 01 34
        E 1 b5 01 28
        E 1 b5 01 47
        E 1 b5 01 0b
        E 1 b5 01 1b
        E 1 b5 01 32
        E 8 b5 01 05
        E 8 b5 01 13
        E 8 b5 01 0c
        E 8 b5 01 02
        E 8 b5 01 12
        E 8 b5 01 10
        E 8 b5 01 02
        E 8 b5 01 02
        E 8 b5 01 0c
        E 8 b5 01 18
        E 8 b5 01 14
        E 8 b5 01 16
        E 8 b5 01 0f
        E 8 b5 01 02
        E 8 b5 01 04
        E 8 b5 01 11
        E 8 b5 01 0e
        E 8 b5 01 07
        E 8 b5 01 05
        E 8 b5 01 06
        E 8 b5 01 13
        E 8 b5 01 0b
        E 8 b5 01 06
        E 8 b5 01 0e
        E 8 b5 01 19
        E 8 b5 01 00
        E 8 b5 01 03
        E 8 b5 01 0a
        E 8 b5 01 08
        E 8 b5 01 14
        E 8 b5 01 05
        E 8 b5 01 01
        E 8 b5 01 04
        E 8 b5 01 04
        E 8 b5 01 17
        E 8 b5 01 06
        E 8 b5 01 00
        E 8 b5 01 12
        E 8 b5 01 08
        E 8 b5 01 05
        E 8 b5 01 0a
        E 8 b5 01 06
        E 8 b5 01 15
        E 8 b5 01 15
        E 8 b5 01 19
        E 8 b5 01 15
        E 8 b5 01 0b
        E 8 b5 01 17
        E 8 b5 01 12
        E 8 b5 01 03
        E 8 b5 01 0b
        E 8 b5 01 0d
        E 8 b5 01 18
        E 8 b5 01 13
        E 8 b5 01 0d
        E 8 b5 01 0e
        E 8 b5 01 01
        E 8 b5 01 02
        E 8 b5 01 17
        E 8 b5 01 14
        E 8 b5 01 0a
        E 8 b5 01 08
        E 8 b5 01 03
        E 8 b5 01 0b
        E 8 b5 01 07
        E 8 b5 01 06
        E 8 b5 01 09
        E 8 b5 01 0d
        E 8 b5 01 0f
        E 8 b5 01 10
        E 8 b5 01 04
        E 8 b5 01 0f
        E 8 b5 01 16
        E 8 b5 01 0d
        E 8 b5 01 0e
        E 8 b5 01 00
        E 8 b5 01 01
        E 8 b5 01 19
        E 8 b5 01 10
        E 8 b5 01 04
        E 8 b5 01 17
        E 8 b5 01 08
        E 8 b5 01 09
        E 8 b5 01 0c
        E 8 b5 01 0a
        E 8 b5 01 11
        E 8 b5 01 14
        E 8 b5 01 07
        E 8 b5 01 0e
        E 8 b5 01 05
        E 8 b5 01 16
        E 8 b5 01 15
        E 8 b5 01 0b
        E 8 b5 01 09
        E 8 b5 01 14
        E 8 b5 01 09
        E 8 b5 01 11
        E 8 b5 01 03
        E 8 b5 01 00
        E 8 b5 01 08
        E 8 b5 01 0c
        E 8 b5 01 15
        E 8 b5 01 13
        E 8 b5 01 00
        E 8 b5 01 16
        E 8 b5 01 12
        E 8 b5 01 01
        E 8 b5 01 07
        E 8 b5 01 0f
        E 8 b5 01 13
        E 8 b5 01 18
        E 8 b5 01 0f
        E 8 b5 01 0a
        E 8 b5 01 07
        E 8 b5 01 11
        E 8 b5 01 12
        E 8 b5 01 16
        E 8 b5 01 18
        E 8 b5 01 0c
        E 8 b5 01 10
        E 8 b5 01 11
        E 8 b5 01 0d
        E 8 b5 01 17
        E 8 b5 01 03
        E 8 b5 01 09
        E 8 b5 01 10
        E 6 b5 01 13
        E 6 b5 01 43
        E 6 b5 01 2c
        E 6 b5 01 07
        E 6 b5 01 3e
        E 6 b5 01 38
        E 6 b5 01 08
        E 6 b5 01 07
        E 6 b5 01 2a
        E 6 b5 01 54
        E 6 b5 01 46
        E 6 b5 01 4d
        E 6 b5 01 37
        E 6 b5 01 09
        E 6 b5 01 10
        E 6 b5 01 3c
        E 6 b5 01 31
        E 6 b5 01 19
        E 6 b5 01 11
        E 6 b5 01 17
        E 6 b5 01 45
        E 6 b5 01 29
        E 6 b5 01 15
        E 6 b5 01 33
        E 6 b5 01 58
        E 6 b5 01 00
        E 6 b5 01 0b
        E 6 b5 01 24
        E 6 b5 01 1e
        E 6 b5 01 48
        E 6 b5 01 12
        E 6 b5 01 05
        E 6 b5 01 0e
        E 6 b5 01 0f
        E 6 b5 01 50
        E 6 b5 01 16
        E 6 b5 01 00
        E 6 b5 01 41
        E 6 b5 01 1e
        E 6 b5 01 12
        E 6 b5 01 23
        E 6 b5 01 17
        E 6 b5 01 4b
        E 6 b5 01 4a
        E 6 b5 01 58
        E 6 b5 01 4a
        E 6 b5 01 26
        E 6 b5 01 52
        E 6 b5 01 3f
        E 6 b5 01 0a
        E 6 b5 01 27
        E 6 b5 01 2f
        E 6 b5 01 54
        E 6 b5 01 43
        E 6 b5 01 30
        E 6 b5 01 31
        E 6 b5 01 04
        E 6 b5 01 09
        E 6 b5 01 51
        E 6 b5 01 47
        E 6 b5 01 25
        E 6 b5 01 1c
        E 6 b5 01 0b
        E 6 b5 01 27
        E 6 b5 01 1a
        E 6 b5 01 15
        E 6 b5 01 21
        E 6 b5 01 2e
        E 6 b5 01 35
        E 6 b5 01 39
        E 6 b5 01 0e
        E 6 b5 01 35
        E 6 b5 01 4f
        E 6 b5 01 2d
        E 6 b5 01 33
        E 6 b5 01 02
        E 6 b5 01 06
        E 6 b5 01 57
        E 6 b5 01 3a
        E 6 b5 01 10
        E 6 b5 01 51
        E 6 b5 01 1c
        E 6 b5 01 22
        E 6 b5 01 2b
        E 6 b5 01 23
        E 6 b5 01 3b
        E 6 b5 01 48
        E 6 b5 01 19
        E 6 b5 01 32
        E 6 b5 01 14
        E 6 b5 01 4f
        E 6 b5 01 49
        E 6 b5 01 28
        E 6 b5 01 20
        E 6 b5 01 46
        E 6 b5 01 20
        E 6 b5 01 3e
        E 6 b5 01 0c
        E 6 b5 01 01
        E 6 b5 01 1d
        E 6 b5 01 2c
        E 6 b5 01 4c
        E 6 b5 01 44
        E 6 b5 01 02
        E 6 b5 01 4d
        E 6 b5 01 41
        E 6 b5 01 04
        E 6 b5 01 1b
        E 6 b5 01 34
        E 6 b5 01 42
        E 6 b5 01 55
        E 6 b5 01 36
        E 6 b5 01 25
        E 6 b5 01 18
        E 6 b5 01 3d
        E 6 b5 01 40
        E 6 b5 01 4e
        E 6 b5 01 56
        E 6 b5 01 2a
        E 6 b5 01 38
        E 6 b5 01 3c
        E 6 b5 01 2e
        E 6 b5 01 53
        E 6 b5 01 0d
        E 6 b5 01 1f
        E 6 b5 01 3a
        E 1 b5 01 0b
        E 1 b5 01 26
        E 1 b5 01 19
        E 1 b5 01 04
        E 1 b5 01 24
        E 1 b5 01 20
        E 1 b5 01 04
        E 1 b5 01 04
        E 1 b5 01 18
        E 1 b5 01 30
        E 1 b5 01 28
        E 1 b5 01 2c
        E 1 b5 01 1f
        E 1 b5 01 05
        E 1 b5 01 09
        E 1 b5 01 22
        E 1 b5 01 1c
        E 1 b5 01 0e
        E 1 b5 01 0a
        E 1 b5 01 0d
        E 1 b5 01 27
        E 1 b5 01 17
        E 1 b5 01 0c
        E 1 b5 01 1d
        E 1 b5 01 32
        E 1 b5 01 00
        E 1 b5 01 06
        E 1 b5 01 14
        E 1 b5 01 11
        E 1 b5 01 29
        E 1 b5 01 0a
        E 1 b5 01 03
        E 1 b5 01 08
        E 1 b5 01 08
        E 1 b5 01 2e
        E 1 b5 01 0c
        E 1 b5 01 00
        E 1 b5 01 25
        E 1 b5 01 11
        E 1 b5 01 0a
        E 1 b5 01 14
        E 1 b5 01 0d
        E 1 b5 01 2b
        E 1 b5 01 2a
        E 1 b5 01 32
        E 1 b5 01 2a
        E 1 b5 01 16
        E 1 b5 01 2f
        E 1 b5 01 24
        E 1 b5 01 06
        E 1 b5 01 16
        E 1 b5 01 1b
        E 1 b5 01 30
        E 1 b5 01 26
        E 1 b5 01 1b
        E 1 b5 01 1c
        E 1 b5 01 02
        E 1 b5 01 05
        E 1 b5 01 2e
        E 1 b5 01 28
        E 1 b5 01 15
        E 1 b5 01 10
        E 1 b5 01 06
        E 1 b5 01 16
        E 1 b5 01 0f
        E 1 b5 01 0c
        E 1 b5 01 13
        E 1 b5 01 1a
        E 1 b5 01 1e
        E 1 b5 01 20
        E 1 b5 01 08
        E 1 b5 01 1e
        E 1 b5 01 2d
        E 1 b5 01 1a
        E 1 b5 01 1d
        E 1 b5 01 01
        E 1 b5 01 03
        E 1 b5 01 32
        E 1 b5 01 21
        E 1 b5 01 09
        E 1 b5 01 2e
        E 1 b5 01 10
        E 1 b5 01 13
        E 1 b5 01 18
        E 1 b5 01 14
        E 1 b5 01 22
        E 1 b5 01 29
        E 1 b5 01 0e
        E 1 b5 01 1c
        E 1 b5 01 0b
        E 1 b5 01 2d
        E 1 b5 01 2a
        E 1 b5 01 17
        E 1 b5 01 12
        E 1 b5 01 28
        E 1 b5 01 12
        E 1 b5 01 23
        E 1 b5 01 07
        E 1 b5 01 00
        E 1 b5 01 10
        E 1 b5 01 19
        E 1 b5 01 2b
        E 1 b5 01 27
        E 1 b5 01 01
        E 1 b5 01 2c
        E 1 b5 01 25
        E 1 b5 01 02
        E 1 b5 01 0f
        E 1 b5 01 1e
        E 1 b5 01 26
        E 1 b5 01 30
        E 1 b5 01 1f
        E 1 b5 01 15
        E 1 b5 01 0e
        E 1 b5 01 23
        E 1 b5 01 24
        E 1 b5 01 2c
        E 1 b5 01 31
        E 1 b5 01 18
        E 1 b5 01 20
        E 1 b5 01 22
        E 1 b5 01 1a
        E 1 b5 01 2f
        E 1 b5 01 07
        E 1 b5 01 12
        E 1 b5 01 21
        E 15 b5 01 1c
        E 15 b5 01 60
        E 15 b5 01 3f
        E 15 b5 01 0a
        E 15 b5 01 5a
        E 15 b5 01 50
        E 15 b5 01 0c
        E 15 b5 01 0b
        E 15 b5 01 3d
        E 15 b5 01 78
        E 15 b5 01 65
        E 15 b5 01 6f
        E 15 b5 01 4f
        E 15 b5 01 0e
        E 15 b5 01 18
        E 15 b5 01 56
        E 15 b5 01 46
        E 15 b5 01 24
        E 15 b5 01 19
        E 15 b5 01 22
        E 15 b5 01 63
        E 15 b5 01 3b
        E 15 b5 01 1e
        E 15 b5 01 49
        E 15 b5 01 7e
        E 15 b5 01 00
        E 15 b5 01 10
        E 15 b5 01 34
        E 15 b5 01 2b
        E 15 b5 01 68
        E 15 b5 01 1b
        E 15 b5 01 08
        E 15 b5 01 14
        E 15 b5 01 16
        E 15 b5 01 73
        E 15 b5 01 20
        E 15 b5 01 01
        E 15 b5 01 5e
        E 15 b5 01 2c
        E 15 b5 01 1a
        E 15 b5 01 32
        E 15 b5 01 21
        E 15 b5 01 6c
        E 15 b5 01 6b
        E 15 b5 01 7f
        E 15 b5 01 6a
        E 15 b5 01 37
        E 15 b5 01 76
        E 15 b5 01 5b
        E 15 b5 01 0f
        E 15 b5 01 38
        E 15 b5 01 44
        E 15 b5 01 79
        E 15 b5 01 61
        E 15 b5 01 45
        E 15 b5 01 47
        E 15 b5 01 06
        E 15 b5 01 0d
        E 15 b5 01 75
        E 15 b5 01 66
        E 15 b5 01 36
        E 15 b5 01 28
        E 15 b5 01 11
        E 15 b5 01 39
        E 15 b5 01 26
        E 15 b5 01 1f
        E 15 b5 01 30
        E 15 b5 01 42
        E 15 b5 01 4d
        E 15 b5 01 52
        E 15 b5 01 15
        E 15 b5 01 4c
        E 15 b5 01 71
        E 15 b5 01 41
        E 15 b5 01 4a
        E 15 b5 01 03
        E 15 b5 01 09
        E 15 b5 01 7d
        E 15 b5 01 53
        E 15 b5 01 17
        E 15 b5 01 74
        E 15 b5 01 29
        E 15 b5 01 31
        E 15 b5 01 3e
        E 15 b5 01 33
        E 15 b5 01 55
        E 15 b5 01 67
        E 15 b5 01 25
        E 15 b5 01 48
        E 15 b5 01 1d
        E 15 b5 01 72
        E 15 b5 01 69
        E 15 b5 01 3a
        E 15 b5 01 2e
        E 15 b5 01 64
        E 15 b5 01 2f
        E 15 b5 01 59
        E 15 b5 01 12
        E 15 b5 01 02
        E 15 b5 01 2a
        E 15 b5 01 40
        E 15 b5 01 6d
        E 15 b5 01 62
        E 15 b5 01 04
        E 15 b5 01 6e
        E 15 b5 01 5d
        E 15 b5 01 07
        E 15 b5 01 27
        E 15 b5 01 4b
        E 15 b5 01 5f
        E 15 b5 01 7a
        E 15 b5 01 4e
        E 15 b5 01 35
        E 15 b5 01 23
        E 15 b5 01 58
        E 15 b5 01 5c
        E 15 b5 01 70
        E 15 b5 01 7c
        E 15 b5 01 3c
        E 15 b5 01 51
        E 15 b5 01 57
        E 15 b5 01 43
        E 15 b5 01 77
        E 15 b5 01 13
        E 15 b5 01 2d
        E 15 b5 01 54
        E 3 b5 01 19
        E 3 b5 01 56
        E 3 b5 01 38
        E 3 b5 01 09
        E 3 b5 01 51
        E 3 b5 01 48
        E 3 b5 01 0a
        E 3 b5 01 09
        E 3 b5 01 36
        E 3 b5 01 6c
        E 3 b5 01 5a
        E 3 b5 01 63
        E 3 b5 01 47
        E 3 b5 01 0c
        E 3 b5 01 15
        E 3 b5 01 4d
        E 3 b5 01 3f
        E 3 b5 01 20
        E 3 b5 01 16
        E 3 b5 01 1e
        E 3 b5 01 59
        E 3 b5 01 35
        E 3 b5 01 1b
        E 3 b5 01 41
        E 3 b5 01 71
        E 3 b5 01 00
        E 3 b5 01 0e
        E 3 b5 01 2e
        E 3 b5 01 26
        E 3 b5 01 5d
        E 3 b5 01 18
        E 3 b5 01 07
        E 3 b5 01 12
        E 3 b5 01 13
        E 3 b5 01 67
        E 3 b5 01 1c
        E 3 b5 01 00
        E 3 b5 01 54
        E 3 b5 01 27
        E 3 b5 01 17
        E 3 b5 01 2d
        E 3 b5 01 1d
        E 3 b5 01 61
        E 3 b5 01 60
        E 3 b5 01 72
        E 3 b5 01 5f
        E 3 b5 01 31
        E 3 b5 01 6a
        E 3 b5 01 51
        E 3 b5 01 0d
        E 3 b5 01 32
        E 3 b5 01 3d
        E 3 b5 01 6c
        E 3 b5 01 57
        E 3 b5 01 3e
        E 3 b5 01 3f
        E 3 b5 01 05
        E 3 b5 01 0b
        E 3 b5 01 69
        E 3 b5 01 5b
        E 3 b5 01 30
        E 3 b5 01 24
        E 3 b5 01 0f
        E 3 b5 01 33
        E 3 b5 01 22
        E 3 b5 01 1b
        E 3 b5 01 2b
        E 3 b5 01 3b
        E 3 b5 01 45
        E 3 b5 01 49
        E 3 b5 01 12
        E 3 b5 01 44
        E 3 b5 01 65
        E 3 b5 01 3a
        E 3 b5 01 42
        E 3 b5 01 02
        E 3 b5 01 08
        E 3 b5 01 70
        E 3 b5 01 4a
        E 3 b5 01 14
        E 3 b5 01 68
        E 3 b5 01 24
        E 3 b5 01 2c
        E 3 b5 01 37
        E 3 b5 01 2d
        E 3 b5 01 4c
        E 3 b5 01 5c
        E 3 b5 01 21
        E 3 b5 01 40
        E 3 b5 01 1a
        E 3 b5 01 66
        E 3 b5 01 5e
        E 3 b5 01 34
        E 3 b5 01 29
        E 3 b5 01 5a
        E 3 b5 01 2a
        E 3 b5 01 50
        E 3 b5 01 10
        E 3 b5 01 01
        E 3 b5 01 25
        E 3 b5 01 39
        E 3 b5 01 62
        E 3 b5 01 58
        E 3 b5 01 03
        E 3 b5 01 63
        E 3 b5 01 53
        E 3 b5 01 06
        E 3 b5 01 23
        E 3 b5 01 43
        E 3 b5 01 55
        E 3 b5 01 6d
        E 3 b5 01 46
        E 3 b5 01 2f
        E 3 b5 01 1f
        E 3 b5 01 4f
        E 3 b5 01 52
        E 3 b5 01 64
        E 3 b5 01 6f
        E 3 b5 01 36
        E 3 b5 01 48
        E 3 b5 01 4e
        E 3 b5 01 3c
        E 3 b5 01 6b
        E 3 b5 01 11
        E 3 b5 01 28
        E 3 b5 01 4b
        E 1 b5 01 10
        E 1 b5 01 39
        E 1 b5 01 25
        E 1 b5 01 06
        E 1 b5 01 36
        E 1 b5 01 30
        E 1 b5 01 07
        E 1 b5 01 06
        E 1 b5 01 24
        E 1 b5 01 48
        E 1 b5 01 3c
        E 1 b5 01 42
        E 1 b5 01 2f
        E 1 b5 01 08
        E 1 b5 01 0e
        E 1 b5 01 33
        E 1 b5 01 2a
        E 1 b5 01 15
        E 1 b5 01 0f
        E 1 b5 01 14
        E 1 b5 01 3b
        E 1 b5 01 23
        E 1 b5 01 12
        E 1 b5 01 2b
        E 1 b5 01 4b
        E 1 b5 01 00
        E 1 b5 01 09
        E 1 b5 01 1f
        E 1 b5 01 19
        E 1 b5 01 3e
        E 1 b5 01 10
        E 1 b5 01 04
        E 1 b5 01 0c
        E 1 b5 01 0d
        E 1 b5 01 45
        E 1 b5 01 13
        E 1 b5 01 00
        E 1 b5 01 38
        E 1 b5 01 1a
        E 1 b5 01 0f
        E 1 b5 01 1e
        E 1 b5 01 13
        E 1 b5 01 40
        E 1 b5 01 40
        E 1 b5 01 4c
        E 1 b5 01 3f
        E 1 b5 01 21
        E 1 b5 01 46
        E 1 b5 01 36
        E 1 b5 01 09
        E 1 b5 01 21
        E 1 b5 01 28
        E 1 b5 01 48
        E 1 b5 01 3a
        E 1 b5 01 29
        E 1 b5 01 2a
        E 1 b5 01 03
        E 1 b5 01 07
        E 1 b5 01 46
        E 1 b5 01 3d
        E 1 b5 01 20
        E 1 b5 01 18
        E 1 b5 01 0a
        E 1 b5 01 22
        E 1 b5 01 16
        E 1 b5 01 12
        E 1 b5 01 1c
        E 1 b5 01 27
        E 1 b5 01 2e
        E 1 b5 01 31
        E 1 b5 01 0c
        E 1 b5 01 2d
        E 1 b5 01 43
        E 1 b5 01 27
        E 1 b5 01 2c
        E 1 b5 01 01
        E 1 b5 01 05
        E 1 b5 01 4b
        E 1 b5 01 31
        E 1 b5 01 0d
        E 1 b5 01 45
        E 1 b5 01 18
        E 1 b5 01 1d
        E 1 b5 01 25
        E 1 b5 01 1e
        E 1 b5 01 33
        E 1 b5 01 3d
        E 1 b5 01 16
        E 1 b5 01 2b
        E 1 b5 01 11
        E 1 b5 01 44
        E 1 b5 01 3f
        E 1 b5 01 22
        E 1 b5 01 1b
        E 1 b5 01 3c
        E 1 b5 01 1c
        E 1 b5 01 35
        E 1 b5 01 0a
        E 1 b5 01 01
        E 1 b5 01 19
        E 1 b5 01 26
        E 1 b5 01 41
        E 1 b5 01 3a
        E 1 b5 01 02
        E 1 b5 01 42
        E 1 b5 01 37
        E 1 b5 01 04
        E 1 b5 01 17
        E 1 b5 01 2d
        E 1 b5 01 39
        E 1 b5 01 49
        E 1 b5 01 2e
        E 1 b5 01 1f
        E 1 b5 01 15
        E 1 b5 01 34
        E 1 b5 01 37
        E 1 b5 01 43
        E 1 b5 01 4a
        E 1 b5 01 24
        E 1 b5 01 30
        E 1 b5 01 34
        E 1 b5 01 28
        E 1 b5 01 47
        E 1 b5 01 0b
        E 1 b5 01 1b
        E 1 b5 01 32
        E 8 b5 01 05
        E 8 b5 01 13
        E 8 b5 01 0c
        E 8 b5 01 02
        E 8 b5 01 12
        E 8 b5 01 10
        E 8 b5 01 02
        E 8 b5 01 02
        E 8 b5 01 0c
        E 8 b5 01 18
        E 8 b5 01 14
        E 8 b5 01 16
        E 8 b5 01 0f
        E 8 b5 01 02
        E 8 b5 01 04
        E 8 b5 01 11
        E 8 b5 01 0e
        E 8 b5 01 07
        E 8 b5 01 05
        E 8 b5 01 06
        E 8 b5 01 13
        E 8 b5 01 0b
        E 8 b5 01 06
        E 8 b5 01 0e
        E 8 b5 01 19
        E 8 b5 01 00
        E 8 b5 01 03
        E 8 b5 01 0a
        E 8 b5 01 08
        E 8 b5 01 14
        E 8 b5 01 05
        E 8 b5 01 01
        E 8 b5 01 04
        E 8 b5 01 04
        E 8 b5 01 17
        E 8 b5 01 06
        E 8 b5 01 00
        E 8 b5 01 12
        E 8 b5 01 08
        E 8 b5 01 05
        E 8 b5 01 0a
        E 8 b5 01 06
        E 8 b5 01 15
        E 8 b5 01 15
        E 8 b5 01 19
        E 8 b5 01 15
        E 8 b5 01 0b
        E 8 b5 01 17
        E 8 b5 01 12
        E 8 b5 01 03
        E 8 b5 01 0b
        E 8 b5 01 0d
        E 8 b5 01 18
        E 8 b5 01 13
        E 8 b5 01 0d
        E 8 b5 01 0e
        E 8 b5 01 01
        E 8 b5 01 02
        E 8 b5 01 17
        E 8 b5 01 14
        E 8 b5 01 0a
        E 8 b5 01 08
        E 8 b5 01 03
        E 8 b5 01 0b
        E 8 b5 01 07
        E 8 b5 01 06
        E 8 b5 01 09
        E 8 b5 01 0d
        E 8 b5 01 0f
        E 8 b5 01 10
        E 8 b5 01 04
        E 8 b5 01 0f
        E 8 b5 01 16
        E 8 b5 01 0d
        E 8 b5 01 0e
        E 8 b5 01 00
        E 8 b5 01 01
        E 8 b5 01 19
        E 8 b5 01 10
        E 8 b5 01 04
        E 8 b5 01 17
        E 8 b5 01 08
        E 8 b5 01 09
        E 8 b5 01 0c
        E 8 b5 01 0a
        E 8 b5 01 11
        E 8 b5 01 14
        E 8 b5 01 07
        E 8 b5 01 0e
        E 8 b5 01 05
        E 8 b5 01 16
        E 8 b5 01 15
        E 8 b5 01 0b
        E 8 b5 01 09
        E 8 b5 01 14
        E 8 b5 01 09
        E 8 b5 01 11
        E 8 b5 01 03
        E 8 b5 01 00
        E 8 b5 01 08
        E 8 b5 01 0c
        E 8 b5 01 15
        E 8 b5 01 13
        E 8 b5 01 00
        E 8 b5 01 16
        E 8 b5 01 12
        E 8 b5 01 01
        E 8 b5 01 07
        E 8 b5 01 0f
        E 8 b5 01 13
        E 8 b5 01 18
        E 8 b5 01 0f
        E 8 b5 01 0a
        E 8 b5 01 07
        E 8 b5 01 11
        E 8 b5 01 12
        E 8 b5 01 16
        E 8 b5 01 18
        E 8 b5 01 0c
        E 8 b5 01 10
        E 8 b5 01 11
        E 8 b5 01 0d
        E 8 b5 01 17
        E 8 b5 01 03
        E 8 b5 01 09
        E 8 b5 01 10
        E 6 b5 01 13
        E 6 b5 01 43
        E 6 b5 01 2c
        E 6 b5 01 07
        E 6 b5 01 3e
        E 6 b5 01 38
        E 6 b5 01 08
        E 6 b5 01 07
        E 6 b5 01 2a
        E 6 b5 01 54
        E 6 b5 01 46
        E 6 b5 01 4d
        E 6 b5 01 37
        E 6 b5 01 09
        E 6 b5 01 10
        E 6 b5 01 3c
        E 6 b5 01 31
        E 6 b5 01 19
        E 6 b5 01 11
        E 6 b5 01 17
        E 6 b5 01 45
        E 6 b5 01 29
        E 6 b5 01 15
        E 6 b5 01 33
        E 6 b5 01 58
        E 6 b5 01 00
        E 6 b5 01 0b
        E 6 b5 01 24
        E 6 b5 01 1e
        E 6 b5 01 48
        E 6 b5 01 12
        E 6 b5 01 05
        E 6 b5 01 0e
        E 6 b5 01 0f
        E 6 b5 01 50
        E 6 b5 01 16
        E 6 b5 01 00
        E 6 b5 01 41
        E 6 b5 01 1e
        E 6 b5 01 12
        E 6 b5 01 23
        E 6 b5 01 17
        E 6 b5 01 4b
        E 6 b5 01 4a
        E 6 b5 01 58
        E 6 b5 01 4a
        E 6 b5 01 26
        E 6 b5 01 52
        E 6 b5 01 3f
        E 6 b5 01 0a
        E 6 b5 01 27
        E 6 b5 01 2f
        E 6 b5 01 54
        E 6 b5 01 43
        E 6 b5 01 30
        E 6 b5 01 31
        E 6 b5 01 04
        E 6 b5 01 09
        E 6 b5 01 51
        E 6 b5 01 47
        E 6 b5 01 25
        E 6 b5 01 1c
        E 6 b5 01 0b
        E 6 b5 01 27
        E 6 b5 01 1a
        E 6 b5 01 15
        E 6 b5 01 21
        E 6 b5 01 2e
        E 6 b5 01 35
        E 6 b5 01 39
        E 6 b5 01 0e
        E 6 b5 01 35
        E 6 b5 01 4f
        E 6 b5 01 2d
        E 6 b5 01 33
        E 6 b5 01 02
        E 6 b5 01 06
        E 6 b5 01 57
        E 6 b5 01 3a
        E 6 b5 01 10
        E 6 b5 01 51
        E 6 b5 01 1c
        E 6 b5 01 22
        E 6 b5 01 2b
        E 6 b5 01 23
        E 6 b5 01 3b
        E 6 b5 01 48
        E 6 b5 01 19
        E 6 b5 01 32
        E 6 b5 01 14
        E 6 b5 01 4f
        E 6 b5 01 49
        E 6 b5 01 28
        E 6 b5 01 20
        E 6 b5 01 46
        E 6 b5 01 20
        E 6 b5 01 3e
        E 6 b5 01 0c
        E 6 b5 01 01
        E 6 b5 01 1d
        E 6 b5 01 2c
        E 6 b5 01 4c
        E 6 b5 01 44
        E 6 b5 01 02
        E 6 b5 01 4d
        E 6 b5 01 41
        E 6 b5 01 04
        E 6 b5 01 1b
        E 6 b5 01 34
        E 6 b5 01 42
        E 6 b5 01 55
        E 6 b5 01 36
        E 6 b5 01 25
        E 6 b5 01 18
        E 6 b5 01 3d
        E 6 b5 01 40
        E 6 b5 01 4e
        E 6 b5 01 56
        E 6 b5 01 2a
        E 6 b5 01 38
        E 6 b5 01 3c
        E 6 b5 01 2e
        E 6 b5 01 53
        E 6 b5 01 0d
        E 6 b5 01 1f
        E 6 b5 01 3a
        E 1 b5 01 0b
        E 1 b5 01 26
        E 1 b5 01 19
        E 1 b5 01 04
        E 1 b5 01 24
        E 1 b5 01 20
        E 1 b5 01 04
        E 1 b5 01 04
        E 1 b5 01 18
        E 1 b5 01 30
        E 1 b5 01 28
        E 1 b5 01 2c
        E 1 b5 01 1f
        E 1 b5 01 05
        E 1 b5 01 09
        E 1 b5 01 22
        E 1 b5 01 1c
        E 1 b5 01 0e
        E 1 b5 01 0a
        E 1 b5 01 0d
        E 1 b5 01 27
        E 1 b5 01 17
        E 1 b5 01 0c
        E 1 b5 01 1d
        E 1 b5 01 32
        E 1 b5 01 00
        E 1 b5 01 06
        E 1 b5 01 14
        E 1 b5 01 11
        E 1 b5 01 29
        E 1 b5 01 0a
        E 1 b5 01 03
        E 1 b5 01 08
        E 1 b5 01 08
        E 1 b5 01 2e
        E 1 b5 01 0c
        E 1 b5 01 00
        E 1 b5 01 25
        E 1 b5 01 11
        E 1 b5 01 0a
        E 1 b5 01 14
        E 1 b5 01 0d
        E 1 b5 01 2b
        E 1 b5 01 2a
        E 1 b5 01 32
        E 1 b5 01 2a
        E 1 b5 01 16
        E 1 b5 01 2f
        E 1 b5 01 24
        E 1 b5 01 06
        E 1 b5 01 16
        E 1 b5 01 1b
        E 1 b5 01 30
        E 1 b5 01 26
        E 1 b5 01 1b
        E 1 b5 01 1c
        E 1 b5 01 02
        E 1 b5 01 05
        E 1 b5 01 2e
        E 1 b5 01 28
        E 1 b5 01 15
        E 1 b5 01 10
        E 1 b5 01 06
        E 1 b5 01 16
        E 1 b5 01 0f
        E 1 b5 01 0c
        E 1 b5 01 13
        E 1 b5 01 1a
        E 1 b5 01 1e
        E 1 b5 01 20
        E 1 b5 01 08
        E 1 b5 01 1e
        E 1 b5 01 2d
        E 1 b5 01 1a
        E 1 b5 01 1d
        E 1 b5 01 01
        E 1 b5 01 03
        E 1 b5 01 32
        E 1 b5 01 21
        E 1 b5 01 09
        E 1 b5 01 2e
        E 1 b5 01 10
        E 1 b5 01 13
        E 1 b5 01 18
        E 1 b5 01 14
        E 1 b5 01 22
        E 1 b5 01 29
        E 1 b5 01 0e
        E 1 b5 01 1c
        E 1 b5 01 0b
        E 1 b5 01 2d
        E 1 b5 01 2a
        E 1 b5 01 17
        E 1 b5 01 12
        E 1 b5 01 28
        E 1 b5 01 12
        E 1 b5 01 23
        E 1 b5 01 07
        E 1 b5 01 00
        E 1 b5 01 10
        E 1 b5 01 19
        E 1 b5 01 2b
        E 1 b5 01 27
        E 1 b5 01 01
        E 1 b5 01 2c
        E 1 b5 01 25
        E 1 b5 01 02
        E 1 b5 01 0f
        E 1 b5 01 1e
        E 1 b5 01 26
        E 1 b5 01 30
        E 1 b5 01 1f
        E 1 b5 01 15
        E 1 b5 01 0e
        E 1 b5 01 23
        E 1 b5 01 24
        E 1 b5 01 2c
        E 1 b5 01 31
        E 1 b5 01 18
        E 1 b5 01 20
        E 1 b5 01 22
        E 1 b5 01 1a
        E 1 b5 01 2f
        E 1 b5 01 07
        E 1 b5 01 12
        E 1 b5 01 21
        E 15 b5 01 1c
        E 15 b5 01 60
        E 15 b5 01 3f
        E 15 b5 01 0a
        E 15 b5 01 5a
        E 15 b5 01 50
        E 15 b5 01 0c
        E 15 b5 01 0b
        E 15 b5 01 3d
        E 15 b5 01 78
        E 15 b5 01 65
        E 15 b5 01 6f
        E 15 b5 01 4f
        E 15 b5 01 0e
        E 15 b5 01 18
        E 15 b5 01 56
        E 15 b5 01 46
        E 15 b5 01 24
        E 15 b5 01 19
        E 15 b5 01 22
        E 15 b5 01 63
        E 15 b5 01 3b
        E 15 b5 01 1e
        E 15 b5 01 49
        E 15 b5 01 7e
        E 15 b5 01 00
        E 15 b5 01 10
        E 15 b5 01 34
        E 15 b5 01 2b
        E 15 b5 01 68
        E 15 b5 01 1b
        E 15 b5 01 08
        E 15 b5 01 14
        E 15 b5 01 16
        E 15 b5 01 73
        E 15 b5 01 20
        E 15 b5 01 01
        E 15 b5 01 5e
        E 15 b5 01 2c
        E 15 b5 01 1a
        E 15 b5 01 32
        E 15 b5 01 21
        E 15 b5 01 6c
        E 15 b5 01 6b
        E 15 b5 01 7f
        E 15 b5 01 6a
        E 15 b5 01 37
        E 15 b5 01 76
        E 15 b5 01 5b
        E 15 b5 01 0f
        E 15 b5 01 38
        E 15 b5 01 44
        E 15 b5 01 79
        E 15 b5 01 61
        E 15 b5 01 45
        E 15 b5 01 47
        E 15 b5 01 06
        E 15 b5 01 0d
        E 15 b5 01 75
        E 15 b5 01 66
        E 15 b5 01 36
        E 15 b5 01 28
        E 15 b5 01 11
        E 15 b5 01 39
        E 15 b5 01 26
        E 15 b5 01 1f
        E 15 b5 01 30
        E 15 b5 01 42
        E 15 b5 01 4d
        E 15 b5 01 52
        E 15 b5 01 15
        E 15 b5 01 4c
        E 15 b5 01 71
        E 15 b5 01 41
        E 15 b5 01 4a
        E 15 b5 01 03
        E 15 b5 01 09
        E 15 b5 01 7d
        E 15 b5 01 53
        E 15 b5 01 17
        E 15 b5 01 74
        E 15 b5 01 29
        E 15 b5 01 31
        E 15 b5 01 3e
        E 15 b5 01 33
        E 15 b5 01 55
        E 15 b5 01 67
        E 15 b5 01 25
        E 15 b5 01 48
        E 15 b5 01 1d
        E 15 b5 01 72
        E 15 b5 01 69
        E 15 b5 01 3a
        E 15 b5 01 2e
        E 15 b5 01 64
        E 15 b5 01 2f
        E 15 b5 01 59
        E 15 b5 01 12
        E 15 b5 01 02
        E 15 b5 01 2a
        E 15 b5 01 40
        E 15 b5 01 6d
        E 15 b5 01 62
        E 15 b5 01 04
        E 15 b5 01 6e
        E 15 b5 01 5d
        E 15 b5 01 07
        E 15 b5 01 27
        E 15 b5 01 4b
        E 15 b5 01 5f
        E 15 b5 01 7a
        E 15 b5 01 4e
        E 15 b5 01 35
        E 15 b5 01 23
        E 15 b5 01 58
        E 15 b5 01 5c
        E 15 b5 01 70
        E 15 b5 01 7c
        E 15 b5 01 3c
        E 15 b5 01 51
        E 15 b5 01 57
        E 15 b5 01 43
        E 15 b5 01 77
        E 15 b5 01 13
        E 15 b5 01 2d
        E 15 b5 01 54
        E 11 b5 01 0c
        E 11 b5 01 0d
        E 11 b5 01 0e
        E 11 b5 01 0e
        E 11 b5 01 0f
        E 11 b5 01 0f
        E 11 b5 01 10
        E 11 b5 01 11
        E 11 b5 01 11
        E 11 b5 01 12
        E 11 b5 01 12
        E 11 b5 01 13
        E 11 b5 01 13
        E 11 b5 01 14
        E 11 b5 01 14
        E 11 b5 01 15
        E 11 b5 01 15
        E 11 b5 01 16
        E 11 b5 01 16
        E 11 b5 01 17
        E 11 b5 01 17
        E 11 b5 01 17
        E 11 b5 01 18
        E 11 b5 01 18
        E 11 b5 01 18
        E 11 b5 01 18
        E 11 b5 01 18
        E 11 b5 01 19
        E 11 b5 01 19
        E 11 b5 01 19
        E 11 b5 01 19
        E 11 b5 01 19
        E 11 b5 01 19
        E 11 b5 01 19
        E 11 b5 01 19
        E 11 b5 01 19
        E 11 b5 01 19
        E 11 b5 01 19
        E 11 b5 01 18
        E 11 b5 01 18
        E 11 b5 01 18
        E 11 b5 01 18
        E 11 b5 01 17
        E 11 b5 01 17
        E 11 b5 01 17
        E 11 b5 01 16
        E 11 b5 01 16
        E 11 b5 01 16
        E 11 b5 01 15
        E 11 b5 01 15
        E 11 b5 01 14
        E 11 b5 01 14
        E 11 b5 01 13
        E 11 b5 01 13
        E 11 b5 01 12
        E 11 b5 01 11
        E 11 b5 01 11
        E 11 b5 01 10
        E 11 b5 01 10
        E 11 b5 01 0f
        E 11 b5 01 0e
        E 11 b5 01 0e
        E 11 b5 01 0d
        E 11 b5 01 0d
        E 11 b5 01 0c
        E 11 b5 01 0b
        E 11 b5 01 0b
        E 11 b5 01 0a
        E 11 b5 01 09
        E 11 b5 01 09
        E 11 b5 01 08
        E 11 b5 01 08
        E 11 b5 01 07
        E 11 b5 01 07
        E 11 b5 01 06
        E 11 b5 01 05
        E 11 b5 01 05
        E 11 b5 01 04
        E 11 b5 01 04
        E 11 b5 01 03
        E 11 b5 01 03
        E 11 b5 01 03
        E 11 b5 01 02
        E 11 b5 01 02
        E 11 b5 01 02
        E 11 b5 01 01
        E 11 b5 01 01
        E 11 b5 01 01
        E 11 b5 01 00
        E 11 b5 01 00
        E 11 b5 01 00
        E 11 b5 01 00
        E 11 b5 01 00
        E 11 b5 01 00
        E 11 b5 01 00
        E 11 b5 01 00
        E 11 b5 01 00
        E 11 b5 01 00
        E 11 b5 01 00
        E 11 b5 01 00
        E 11 b5 01 00
        E 11 b5 01 00
        E 11 b5 01 00
        E 11 b5 01 01
        E 11 b5 01 01
        E 11 b5 01 01
        E 11 b5 01 01
        E 11 b5 01 02
        E 11 b5 01 02
        E 11 b5 01 02
        E 11 b5 01 03
        E 11 b5 01 03
        E 11 b5 01 04
        E 11 b5 01 04
        E 11 b5 01 05
        E 11 b5 01 05
        E 11 b5 01 06
        E 11 b5 01 06
        E 11 b5 01 07
        E 11 b5 01 07
        E 11 b5 01 08
        E 11 b5 01 09
        E 11 b5 01 09
        E 11 b5 01 0a
        E 11 b5 01 0a
        E 11 b5 01 0b
        E 11 b5 01 0c
        E 11 b5 01 0c
        E 8 b5 01 2c
        E 8 b5 01 2e
        E 8 b5 01 31
        E 8 b5 01 33
        E 8 b5 01 35
        E 8 b5 01 37
        E 8 b5 01 39
        E 8 b5 01 3b
        E 8 b5 01 3d
        E 8 b5 01 3f
        E 8 b5 01 41
        E 8 b5 01 43
        E 8 b5 01 45
        E 8 b5 01 47
        E 8 b5 01 48
        E 8 b5 01 4a
        E 8 b5 01 4c
        E 8 b5 01 4d
        E 8 b5 01 4f
        E 8 b5 01 50
        E 8 b5 01 51
        E 8 b5 01 52
        E 8 b5 01 54
        E 8 b5 01 54
        E 8 b5 01 55
        E 8 b5 01 56
        E 8 b5 01 56
        E 8 b5 01 57
        E 8 b5 01 58
        E 8 b5 01 58
        E 8 b5 01 58
        E 8 b5 01 58
        E 8 b5 01 58
        E 8 b5 01 58
        E 8 b5 01 58
        E 8 b5 01 58
        E 8 b5 01 58
        E 8 b5 01 57
        E 8 b5 01 56
        E 8 b5 01 56
        E 8 b5 01 55
        E 8 b5 01 54
        E 8 b5 01 53
        E 8 b5 01 51
        E 8 b5 01 51
        E 8 b5 01 4f
        E 8 b5 01 4e
        E 8 b5 01 4d
        E 8 b5 01 4b
        E 8 b5 01 49
        E 8 b5 01 48
        E 8 b5 01 46
        E 8 b5 01 44
        E 8 b5 01 42
        E 8 b5 01 40
        E 8 b5 01 3e
        E 8 b5 01 3c
        E 8 b5 01 3a
        E 8 b5 01 38
        E 8 b5 01 36
        E 8 b5 01 33
        E 8 b5 01 31
        E 8 b5 01 2f
        E 8 b5 01 2d
        E 8 b5 01 2b
        E 8 b5 01 29
        E 8 b5 01 27
        E 8 b5 01 25
        E 8 b5 01 22
        E 8 b5 01 20
        E 8 b5 01 1e
        E 8 b5 01 1c
        E 8 b5 01 1a
        E 8 b5 01 18
        E 8 b5 01 16
        E 8 b5 01 14
        E 8 b5 01 12
        E 8 b5 01 10
        E 8 b5 01 0f
        E 8 b5 01 0d
        E 8 b5 01 0b
        E 8 b5 01 0a
        E 8 b5 01 09
        E 8 b5 01 07
        E 8 b5 01 07
        E 8 b5 01 05
        E 8 b5 01 04
        E 8 b5 01 03
        E 8 b5 01 02
        E 8 b5 01 02
        E 8 b5 01 01
        E 8 b5 01 00
        E 8 b5 01 00
        E 8 b5 01 00
        E 8 b5 01 00
        E 8 b5 01 00
        E 8 b5 01 00
        E 8 b5 01 00
        E 8 b5 01 00
        E 8 b5 01 00
        E 8 b5 01 01
        E 8 b5 01 02
        E 8 b5 01 02
        E 8 b5 01 03
        E 8 b5 01 04
        E 8 b5 01 04
        E 8 b5 01 06
        E 8 b5 01 07
        E 8 b5 01 08
        E 8 b5 01 09
        E 8 b5 01 0b
        E 8 b5 01 0c
        E 8 b5 01 0e
        E 8 b5 01 10
        E 8 b5 01 11
        E 8 b5 01 13
        E 8 b5 01 15
        E 8 b5 01 17
        E 8 b5 01 19
        E 8 b5 01 1b
        E 8 b5 01 1d
        E 8 b5 01 1f
        E 8 b5 01 21
        E 8 b5 01 23
        E 8 b5 01 25
        E 8 b5 01 27
        E 8 b5 01 2a
        E 8 b5 01 2c
        E 2 b5 01 19
        E 2 b5 01 1a
        E 2 b5 01 1c
        E 2 b5 01 1d
        E 2 b5 01 1e
        E 2 b5 01 1f
        E 2 b5 01 20
        E 2 b5 01 22
        E 2 b5 01 23
        E 2 b5 01 24
        E 2 b5 01 25
        E 2 b5 01 26
        E 2 b5 01 27
        E 2 b5 01 28
        E 2 b5 01 29
        E 2 b5 01 2a
        E 2 b5 01 2b
        E 2 b5 01 2c
        E 2 b5 01 2d
        E 2 b5 01 2e
        E 2 b5 01 2e
        E 2 b5 01 2f
        E 2 b5 01 30
        E 2 b5 01 30
        E 2 b5 01 30
        E 2 b5 01 31
        E 2 b5 01 31
        E 2 b5 01 32
        E 2 b5 01 32
        E 2 b5 01 32
        E 2 b5 01 32
        E 2 b5 01 32
        E 2 b5 01 32
        E 2 b5 01 32
        E 2 b5 01 32
        E 2 b5 01 32
        E 2 b5 01 32
        E 2 b5 01 32
        E 2 b5 01 31
        E 2 b5 01 31
        E 2 b5 01 30
        E 2 b5 01 30
        E 2 b5 01 2f
        E 2 b5 01 2e
        E 2 b5 01 2e
        E 2 b5 01 2d
        E 2 b5 01 2c
        E 2 b5 01 2c
        E 2 b5 01 2b
        E 2 b5 01 2a
        E 2 b5 01 29
        E 2 b5 01 28
        E 2 b5 01 27
        E 2 b5 01 26
        E 2 b5 01 24
        E 2 b5 01 23
        E 2 b5 01 22
        E 2 b5 01 21
        E 2 b5 01 20
        E 2 b5 01 1f
        E 2 b5 01 1d
        E 2 b5 01 1c
        E 2 b5 01 1b
        E 2 b5 01 1a
        E 2 b5 01 18
        E 2 b5 01 17
        E 2 b5 01 16
        E 2 b5 01 15
        E 2 b5 01 13
        E 2 b5 01 12
        E 2 b5 01 11
        E 2 b5 01 10
        E 2 b5 01 0f
        E 2 b5 01 0e
        E 2 b5 01 0c
        E 2 b5 01 0b
        E 2 b5 01 0a
        E 2 b5 01 09
        E 2 b5 01 08
        E 2 b5 01 07
        E 2 b5 01 06
        E 2 b5 01 06
        E 2 b5 01 05
        E 2 b5 01 04
        E 2 b5 01 04
        E 2 b5 01 03
        E 2 b5 01 02
        E 2 b5 01 02
        E 2 b5 01 01
        E 2 b5 01 01
        E 2 b5 01 00
        E 2 b5 01 00
        E 2 b5 01 00
        E 2 b5 01 00
        E 2 b5 01 00
        E 2 b5 01 00
        E 2 b5 01 00
        E 2 b5 01 00
        E 2 b5 01 00
        E 2 b5 01 00
        E 2 b5 01 00
        E 2 b5 01 01
        E 2 b5 01 01
        E 2 b5 01 02
        E 2 b5 01 02
        E 2 b5 01 02
        E 2 b5 01 03
        E 2 b5 01 04
        E 2 b5 01 04
        E 2 b5 01 05
        E 2 b5 01 06
        E 2 b5 01 07
        E 2 b5 01 08
        E 2 b5 01 09
        E 2 b5 01 0a
        E 2 b5 01 0b
        E 2 b5 01 0c
        E 2 b5 01 0d
        E 2 b5 01 0e
        E 2 b5 01 0f
        E 2 b5 01 10
        E 2 b5 01 12
        E 2 b5 01 13
        E 2 b5 01 14
        E 2 b5 01 15
        E 2 b5 01 16
        E 2 b5 01 18
        E 2 b5 01 19
        E 19 b5 01 40
        E 19 b5 01 43
        E 19 b5 01 46
        E 19 b5 01 49
        E 19 b5 01 4c
        E 19 b5 01 4f
        E 19 b5 01 52
        E 19 b5 01 55
        E 19 b5 01 58
        E 19 b5 01 5b
        E 19 b5 01 5e
        E 19 b5 01 60
        E 19 b5 01 63
        E 19 b5 01 66
        E 19 b5 01 68
        E 19 b5 01 6a
        E 19 b5 01 6d
        E 19 b5 01 6f
        E 19 b5 01 71
        E 19 b5 01 73
        E 19 b5 01 75
        E 19 b5 01 76
        E 19 b5 01 78
        E 19 b5 01 79
        E 19 b5 01 7a
        E 19 b5 01 7b
        E 19 b5 01 7c
        E 19 b5 01 7d
        E 19 b5 01 7e
        E 19 b5 01 7e
        E 19 b5 01 7f
        E 19 b5 01 7f
        E 19 b5 01 7f
        E 19 b5 01 7f
        E 19 b5 01 7f
        E 19 b5 01 7e
        E 19 b5 01 7e
        E 19 b5 01 7d
        E 19 b5 01 7c
        E 19 b5 01 7b
        E 19 b5 01 7a
        E 19 b5 01 78
        E 19 b5 01 77
        E 19 b5 01 75
        E 19 b5 01 74
        E 19 b5 01 72
        E 19 b5 01 70
        E 19 b5 01 6e
        E 19 b5 01 6c
        E 19 b5 01 69
        E 19 b5 01 67
        E 19 b5 01 64
        E 19 b5 01 62
        E 19 b5 01 5f
        E 19 b5 01 5c
        E 19 b5 01 59
        E 19 b5 01 57
        E 19 b5 01 54
        E 19 b5 01 51
        E 19 b5 01 4e
        E 19 b5 01 4a
        E 19 b5 01 47
        E 19 b5 01 44
        E 19 b5 01 41
        E 19 b5 01 3e
        E 19 b5 01 3b
        E 19 b5 01 38
        E 19 b5 01 35
        E 19 b5 01 31
        E 19 b5 01 2e
        E 19 b5 01 2b
        E 19 b5 01 28
        E 19 b5 01 26
        E 19 b5 01 23
        E 19 b5 01 20
        E 19 b5 01 1d
        E 19 b5 01 1b
        E 19 b5 01 18
        E 19 b5 01 16
        E 19 b5 01 13
        E 19 b5 01 11
        E 19 b5 01 0f
        E 19 b5 01 0d
        E 19 b5 01 0b
        E 19 b5 01 0a
        E 19 b5 01 08
        E 19 b5 01 07
        E 19 b5 01 05
        E 19 b5 01 04
        E 19 b5 01 03
        E 19 b5 01 02
        E 19 b5 01 01
        E 19 b5 01 01
        E 19 b5 01 00
        E 19 b5 01 00
        E 19 b5 01 00
        E 19 b5 01 00
        E 19 b5 01 00
        E 19 b5 01 01
        E 19 b5 01 01
        E 19 b5 01 02
        E 19 b5 01 03
        E 19 b5 01 04
        E 19 b5 01 05
        E 19 b5 01 06
        E 19 b5 01 07
        E 19 b5 01 09
        E 19 b5 01 0a
        E 19 b5 01 0c
        E 19 b5 01 0e
        E 19 b5 01 10
        E 19 b5 01 12
        E 19 b5 01 15
        E 19 b5 01 17
        E 19 b5 01 19
        E 19 b5 01 1c
        E 19 b5 01 1f
        E 19 b5 01 21
        E 19 b5 01 24
        E 19 b5 01 27
        E 19 b5 01 2a
        E 19 b5 01 2d
        E 19 b5 01 30
        E 19 b5 01 33
        E 19 b5 01 36
        E 19 b5 01 39
        E 19 b5 01 3c
        E 19 b5 01 40
        E 4 b5 01 39
        E 4 b5 01 3c
        E 4 b5 01 3f
        E 4 b5 01 41
        E 4 b5 01 44
        E 4 b5 01 47
        E 4 b5 01 49
        E 4 b5 01 4c
        E 4 b5 01 4f
        E 4 b5 01 51
        E 4 b5 01 54
        E 4 b5 01 56
        E 4 b5 01 59
        E 4 b5 01 5b
        E 4 b5 01 5d
        E 4 b5 01 5f
        E 4 b5 01 62
        E 4 b5 01 63
        E 4 b5 01 65
        E 4 b5 01 67
        E 4 b5 01 69
        E 4 b5 01 6a
        E 4 b5 01 6c
        E 4 b5 01 6c
        E 4 b5 01 6d
        E 4 b5 01 6e
        E 4 b5 01 6f
        E 4 b5 01 70
        E 4 b5 01 71
        E 4 b5 01 71
        E 4 b5 01 72
        E 4 b5 01 72
        E 4 b5 01 72
        E 4 b5 01 72
        E 4 b5 01 72
        E 4 b5 01 71
        E 4 b5 01 71
        E 4 b5 01 70
        E 4 b5 01 6f
        E 4 b5 01 6e
        E 4 b5 01 6d
        E 4 b5 01 6c
        E 4 b5 01 6b
        E 4 b5 01 69
        E 4 b5 01 68
        E 4 b5 01 66
        E 4 b5 01 64
        E 4 b5 01 63
        E 4 b5 01 61
        E 4 b5 01 5e
        E 4 b5 01 5c
        E 4 b5 01 5a
        E 4 b5 01 58
        E 4 b5 01 55
        E 4 b5 01 52
        E 4 b5 01 50
        E 4 b5 01 4e
        E 4 b5 01 4b
        E 4 b5 01 48
        E 4 b5 01 46
        E 4 b5 01 42
        E 4 b5 01 3f
        E 4 b5 01 3d
        E 4 b5 01 3a
        E 4 b5 01 37
        E 4 b5 01 35
        E 4 b5 01 32
        E 4 b5 01 2f
        E 4 b5 01 2c
        E 4 b5 01 29
        E 4 b5 01 26
        E 4 b5 01 24
        E 4 b5 01 22
        E 4 b5 01 1f
        E 4 b5 01 1c
        E 4 b5 01 1a
        E 4 b5 01 18
        E 4 b5 01 15
        E 4 b5 01 13
        E 4 b5 01 11
        E 4 b5 01 0f
        E 4 b5 01 0d
        E 4 b5 01 0b
        E 4 b5 01 09
        E 4 b5 01 09
        E 4 b5 01 07
        E 4 b5 01 06
        E 4 b5 01 04
        E 4 b5 01 03
        E 4 b5 01 02
        E 4 b5 01 01
        E 4 b5 01 00
        E 4 b5 01 00
        E 4 b5 01 00
        E 4 b5 01 00
        E 4 b5 01 00
        E 4 b5 01 00
        E 4 b5 01 00
        E 4 b5 01 00
        E 4 b5 01 00
        E 4 b5 01 01
        E 4 b5 01 02
        E 4 b5 01 03
        E 4 b5 01 04
        E 4 b5 01 05
        E 4 b5 01 06
        E 4 b5 01 08
        E 4 b5 01 09
        E 4 b5 01 0a
        E 4 b5 01 0c
        E 4 b5 01 0e
        E 4 b5 01 10
        E 4 b5 01 12
        E 4 b5 01 14
        E 4 b5 01 16
        E 4 b5 01 19
        E 4 b5 01 1b
        E 4 b5 01 1d
        E 4 b5 01 20
        E 4 b5 01 23
        E 4 b5 01 25
        E 4 b5 01 28
        E 4 b5 01 2b
        E 4 b5 01 2d
        E 4 b5 01 30
        E 4 b5 01 33
        E 4 b5 01 36
        E 4 b5 01 39
        E 2 b5 01 26
        E 2 b5 01 28
        E 2 b5 01 2a
        E 2 b5 01 2b
        E 2 b5 01 2d
        E 2 b5 01 2f
        E 2 b5 01 31
        E 2 b5 01 33
        E 2 b5 01 34
        E 2 b5 01 36
        E 2 b5 01 38
        E 2 b5 01 39
        E 2 b5 01 3b
        E 2 b5 01 3d
        E 2 b5 01 3e
        E 2 b5 01 3f
        E 2 b5 01 41
        E 2 b5 01 42
        E 2 b5 01 43
        E 2 b5 01 45
        E 2 b5 01 46
        E 2 b5 01 46
        E 2 b5 01 48
        E 2 b5 01 48
        E 2 b5 01 49
        E 2 b5 01 49
        E 2 b5 01 4a
        E 2 b5 01 4b
        E 2 b5 01 4b
        E 2 b5 01 4b
        E 2 b5 01 4c
        E 2 b5 01 4c
        E 2 b5 01 4c
        E 2 b5 01 4c
        E 2 b5 01 4c
        E 2 b5 01 4b
        E 2 b5 01 4b
        E 2 b5 01 4b
        E 2 b5 01 4a
        E 2 b5 01 49
        E 2 b5 01 49
        E 2 b5 01 48
        E 2 b5 01 47
        E 2 b5 01 46
        E 2 b5 01 45
        E 2 b5 01 44
        E 2 b5 01 43
        E 2 b5 01 42
        E 2 b5 01 40
        E 2 b5 01 3f
        E 2 b5 01 3d
        E 2 b5 01 3c
        E 2 b5 01 3a
        E 2 b5 01 39
        E 2 b5 01 37
        E 2 b5 01 35
        E 2 b5 01 34
        E 2 b5 01 32
        E 2 b5 01 30
        E 2 b5 01 2e
        E 2 b5 01 2c
        E 2 b5 01 2a
        E 2 b5 01 28
        E 2 b5 01 27
        E 2 b5 01 25
        E 2 b5 01 23
        E 2 b5 01 21
        E 2 b5 01 1f
        E 2 b5 01 1d
        E 2 b5 01 1b
        E 2 b5 01 19
        E 2 b5 01 18
        E 2 b5 01 16
        E 2 b5 01 15
        E 2 b5 01 13
        E 2 b5 01 11
        E 2 b5 01 10
        E 2 b5 01 0e
        E 2 b5 01 0d
        E 2 b5 01 0b
        E 2 b5 01 0a
        E 2 b5 01 09
        E 2 b5 01 07
        E 2 b5 01 06
        E 2 b5 01 06
        E 2 b5 01 04
        E 2 b5 01 04
        E 2 b5 01 03
        E 2 b5 01 02
        E 2 b5 01 01
        E 2 b5 01 01
        E 2 b5 01 00
        E 2 b5 01 00
        E 2 b5 01 00
        E 2 b5 01 00
        E 2 b5 01 00
        E 2 b5 01 00
        E 2 b5 01 00
        E 2 b5 01 00
        E 2 b5 01 00
        E 2 b5 01 01
        E 2 b5 01 01
        E 2 b5 01 02
        E 2 b5 01 03
        E 2 b5 01 03
        E 2 b5 01 04
        E 2 b5 01 05
        E 2 b5 01 06
        E 2 b5 01 07
        E 2 b5 01 08
        E 2 b5 01 09
        E 2 b5 01 0a
        E 2 b5 01 0c
        E 2 b5 01 0d
        E 2 b5 01 0f
        E 2 b5 01 10
        E 2 b5 01 12
        E 2 b5 01 13
        E 2 b5 01 15
        E 2 b5 01 17
        E 2 b5 01 19
        E 2 b5 01 1b
        E 2 b5 01 1c
        E 2 b5 01 1e
        E 2 b5 01 20
        E 2 b5 01 22
        E 2 b5 01 24
        E 2 b5 01 26
        E 11 b5 01 0c
        E 11 b5 01 0d
        E 11 b5 01 0e
        E 11 b5 01 0e
        E 11 b5 01 0f
        E 11 b5 01 0f
        E 11 b5 01 10
        E 11 b5 01 11
        E 11 b5 01 11
        E 11 b5 01 12
        E 11 b5 01 12
        E 11 b5 01 13
        E 11 b5 01 13
        E 11 b5 01 14
        E 11 b5 01 14
        E 11 b5 01 15
        E 11 b5 01 15
        E 11 b5 01 16
        E 11 b5 01 16
        E 11 b5 01 17
        E 11 b5 01 17
        E 11 b5 01 17
        E 11 b5 01 18
        E 11 b5 01 18
        E 11 b5 01 18
        E 11 b5 01 18
        E 11 b5 01 18
        E 11 b5 01 19
        E 11 b5 01 19
        E 11 b5 01 19
        E 11 b5 01 19
        E 11 b5 01 19
        E 11 b5 01 19
        E 11 b5 01 19
        E 11 b5 01 19
        E 11 b5 01 19
        E 11 b5 01 19
        E 11 b5 01 19
        E 11 b5 01 18
        E 11 b5 01 18
        E 11 b5 01 18
        E 11 b5 01 18
        E 11 b5 01 17
        E 11 b5 01 17
        E 11 b5 01 17
        E 11 b5 01 16
        E 11 b5 01 16
        E 11 b5 01 16
        E 11 b5 01 15
        E 11 b5 01 15
        E 11 b5 01 14
        E 11 b5 01 14
        E 11 b5 01 13
        E 11 b5 01 13
        E 11 b5 01 12
        E 11 b5 01 11
        E 11 b5 01 11
        E 11 b5 01 10
        E 11 b5 01 10
        E 11 b5 01 0f
        E 11 b5 01 0e
        E 11 b5 01 0e
        E 11 b5 01 0d
        E 11 b5 01 0d
        E 11 b5 01 0c
        E 11 b5 01 0b
        E 11 b5 01 0b
        E 11 b5 01 0a
        E 11 b5 01 09
        E 11 b5 01 09
        E 11 b5 01 08
        E 11 b5 01 08
        E 11 b5 01 07
        E 11 b5 01 07
        E 11 b5 01 06
        E 11 b5 01 05
        E 11 b5 01 05
        E 11 b5 01 04
        E 11 b5 01 04
        E 11 b5 01 03
        E 11 b5 01 03
        E 11 b5 01 03
        E 11 b5 01 02
        E 11 b5 01 02
        E 11 b5 01 02
        E 11 b5 01 01
        E 11 b5 01 01
        E 11 b5 01 01
        E 11 b5 01 00
        E 11 b5 01 00
        E 11 b5 01 00
        E 11 b5 01 00
        E 11 b5 01 00
        E 11 b5 01 00
        E 11 b5 01 00
        E 11 b5 01 00
        E 11 b5 01 00
        E 11 b5 01 00
        E 11 b5 01 00
        E 11 b5 01 00
        E 11 b5 01 00
        E 11 b5 01 00
        E 11 b5 01 00
        E 11 b5 01 01
        E 11 b5 01 01
        E 11 b5 01 01
        E 11 b5 01 01
        E 11 b5 01 02
        E 11 b5 01 02
        E 11 b5 01 02
        E 11 b5 01 03
        E 11 b5 01 03
        E 11 b5 01 04
        E 11 b5 01 04
        E 11 b5 01 05
        E 11 b5 01 05
        E 11 b5 01 06
        E 11 b5 01 06
        E 11 b5 01 07
        E 11 b5 01 07
        E 11 b5 01 08
        E 11 b5 01 09
        E 11 b5 01 09
        E 11 b5 01 0a
        E 11 b5 01 0a
        E 11 b5 01 0b
        E 11 b5 01 0c
        E 11 b5 01 0c
        E 8 b5 01 2c
        E 8 b5 01 2e
        E 8 b5 01 31
        E 8 b5 01 33
        E 8 b5 01 35
        E 8 b5 01 37
        E 8 b5 01 39
        E 8 b5 01 3b
        E 8 b5 01 3d
        E 8 b5 01 3f
        E 8 b5 01 41
        E 8 b5 01 43
        E 8 b5 01 45
        E 8 b5 01 47
        E 8 b5 01 48
        E 8 b5 01 4a
        E 8 b5 01 4c
        E 8 b5 01 4d
        E 8 b5 01 4f
        E 8 b5 01 50
        E 8 b5 01 51
        E 8 b5 01 52
        E 8 b5 01 54
        E 8 b5 01 54
        E 8 b5 01 55
        E 8 b5 01 56
        E 8 b5 01 56
        E 8 b5 01 57
        E 8 b5 01 58
        E 8 b5 01 58
        E 8 b5 01 58
        E 8 b5 01 58
        E 8 b5 01 58
        E 8 b5 01 58
        E 8 b5 01 58
        E 8 b5 01 58
        E 8 b5 01 58
        E 8 b5 01 57
        E 8 b5 01 56
        E 8 b5 01 56
        E 8 b5 01 55
        E 8 b5 01 54
        E 8 b5 01 53
        E 8 b5 01 51
        E 8 b5 01 51
        E 8 b5 01 4f
        E 8 b5 01 4e
        E 8 b5 01 4d
        E 8 b5 01 4b
        E 8 b5 01 49
        E 8 b5 01 48
        E 8 b5 01 46
        E 8 b5 01 44
        E 8 b5 01 42
        E 8 b5 01 40
        E 8 b5 01 3e
        E 8 b5 01 3c
        E 8 b5 01 3a
        E 8 b5 01 38
        E 8 b5 01 36
        E 8 b5 01 33
        E 8 b5 01 31
        E 8 b5 01 2f
        E 8 b5 01 2d
        E 8 b5 01 2b
        E 8 b5 01 29
        E 8 b5 01 27
        E 8 b5 01 25
        E 8 b5 01 22
        E 8 b5 01 20
        E 8 b5 01 1e
        E 8 b5 01 1c
        E 8 b5 01 1a
        E 8 b5 01 18
        E 8 b5 01 16
        E 8 b5 01 14
        E 8 b5 01 12
        E 8 b5 01 10
        E 8 b5 01 0f
        E 8 b5 01 0d
        E 8 b5 01 0b
        E 8 b5 01 0a
        E 8 b5 01 09
        E 8 b5 01 07
        E 8 b5 01 07
        E 8 b5 01 05
        E 8 b5 01 04
        E 8 b5 01 03
        E 8 b5 01 02
        E 8 b5 01 02
        E 8 b5 01 01
        E 8 b5 01 00
        E 8 b5 01 00
        E 8 b5 01 00
        E 8 b5 01 00
        E 8 b5 01 00
        E 8 b5 01 00
        E 8 b5 01 00
        E 8 b5 01 00
        E 8 b5 01 00
        E 8 b5 01 01
        E 8 b5 01 02
        E 8 b5 01 02
        E 8 b5 01 03
        E 8 b5 01 04
        E 8 b5 01 04
        E 8 b5 01 06
        E 8 b5 01 07
        E 8 b5 01 08
        E 8 b5 01 09
        E 8 b5 01 0b
        E 8 b5 01 0c
        E 8 b5 01 0e
        E 8 b5 01 10
        E 8 b5 01 11
        E 8 b5 01 13
        E 8 b5 01 15
        E 8 b5 01 17
        E 8 b5 01 19
        E 8 b5 01 1b
        E 8 b5 01 1d
        E 8 b5 01 1f
        E 8 b5 01 21
        E 8 b5 01 23
        E 8 b5 01 25
        E 8 b5 01 27
        E 8 b5 01 2a
        E 8 b5 01 2c
        E 2 b5 01 19
        E 2 b5 01 1a
        E 2 b5 01 1c
        E 2 b5 01 1d
        E 2 b5 01 1e
        E 2 b5 01 1f
        E 2 b5 01 20
        E 2 b5 01 22
        E 2 b5 01 23
        E 2 b5 01 24
        E 2 b5 01 25
        E 2 b5 01 26
        E 2 b5 01 27
        E 2 b5 01 28
        E 2 b5 01 29
        E 2 b5 01 2a
        E 2 b5 01 2b
        E 2 b5 01 2c
        E 2 b5 01 2d
        E 2 b5 01 2e
        E 2 b5 01 2e
        E 2 b5 01 2f
        E 2 b5 01 30
        E 2 b5 01 30
        E 2 b5 01 30
        E 2 b5 01 31
        E 2 b5 01 31
        E 2 b5 01 32
        E 2 b5 01 32
        E 2 b5 01 32
        E 2 b5 01 32
        E 2 b5 01 32
        E 2 b5 01 32
        E 2 b5 01 32
        E 2 b5 01 32
        E 2 b5 01 32
        E 2 b5 01 32
        E 2 b5 01 32
        E 2 b5 01 31
        E 2 b5 01 31
        E 2 b5 01 30
        E 2 b5 01 30
        E 2 b5 01 2f
        E 2 b5 01 2e
        E 2 b5 01 2e
        E 2 b5 01 2d
        E 2 b5 01 2c
        E 2 b5 01 2c
        E 2 b5 01 2b
        E 2 b5 01 2a
        E 2 b5 01 29
        E 2 b5 01 28
        E 2 b5 01 27
        E 2 b5 01 26
        E 2 b5 01 24
        E 2 b5 01 23
        E 2 b5 01 22
        E 2 b5 01 21
        E 2 b5 01 20
        E 2 b5 01 1f
        E 2 b5 01 1d
        E 2 b5 01 1c
        E 2 b5 01 1b
        E 2 b5 01 1a
        E 2 b5 01 18
        E 2 b5 01 17
        E 2 b5 01 16
        E 2 b5 01 15
        E 2 b5 01 13
        E 2 b5 01 12
        E 2 b5 01 11
        E 2 b5 01 10
        E 2 b5 01 0f
        E 2 b5 01 0e
        E 2 b5 01 0c
        E 2 b5 01 0b
        E 2 b5 01 0a
        E 2 b5 01 09
        E 2 b5 01 08
        E 2 b5 01 07
        E 2 b5 01 06
        E 2 b5 01 06
        E 2 b5 01 05
        E 2 b5 01 04
        E 2 b5 01 04
        E 2 b5 01 03
        E 2 b5 01 02
        E 2 b5 01 02
        E 2 b5 01 01
        E 2 b5 01 01
        E 2 b5 01 00
        E 2 b5 01 00
        E 2 b5 01 00
        E 2 b5 01 00
        E 2 b5 01 00
        E 2 b5 01 00
        E 2 b5 01 00
        E 2 b5 01 00
        E 2 b5 01 00
        E 2 b5 01 00
        E 2 b5 01 00
        E 2 b5 01 01
        E 2 b5 01 01
        E 2 b5 01 02
        E 2 b5 01 02
        E 2 b5 01 02
        E 2 b5 01 03
        E 2 b5 01 04
        E 2 b5 01 04
        E 2 b5 01 05
        E 2 b5 01 06
        E 2 b5 01 07
        E 2 b5 01 08
        E 2 b5 01 09
        E 2 b5 01 0a
        E 2 b5 01 0b
        E 2 b5 01 0c
        E 2 b5 01 0d
        E 2 b5 01 0e
        E 2 b5 01 0f
        E 2 b5 01 10
        E 2 b5 01 12
        E 2 b5 01 13
        E 2 b5 01 14
        E 2 b5 01 15
        E 2 b5 01 16
        E 2 b5 01 18
        E 2 b5 01 19
        E 19 b5 01 40
        E 19 b5 01 43
        E 19 b5 01 46
        E 19 b5 01 49
        E 19 b5 01 4c
        E 19 b5 01 4f
        E 19 b5 01 52
        E 19 b5 01 55
        E 19 b5 01 58
        E 19 b5 01 5b
        E 19 b5 01 5e
        E 19 b5 01 60
        E 19 b5 01 63
        E 19 b5 01 66
        E 19 b5 01 68
        E 19 b5 01 6a
        E 19 b5 01 6d
        E 19 b5 01 6f
        E 19 b5 01 71
        E 19 b5 01 73
        E 19 b5 01 75
        E 19 b5 01 76
        E 19 b5 01 78
        E 19 b5 01 79
        E 19 b5 01 7a
        E 19 b5 01 7b
        E 19 b5 01 7c
        E 19 b5 01 7d
        E 19 b5 01 7e
        E 19 b5 01 7e
        E 19 b5 01 7f
        E 19 b5 01 7f
        E 19 b5 01 7f
        E 19 b5 01 7f
        E 19 b5 01 7f
        E 19 b5 01 7e
        E 19 b5 01 7e
        E 19 b5 01 7d
        E 19 b5 01 7c
        E 19 b5 01 7b
        E 19 b5 01 7a
        E 19 b5 01 78
        E 19 b5 01 77
        E 19 b5 01 75
        E 19 b5 01 74
        E 19 b5 01 72
        E 19 b5 01 70
        E 19 b5 01 6e
        E 19 b5 01 6c
        E 19 b5 01 69
        E 19 b5 01 67
        E 19 b5 01 64
        E 19 b5 01 62
        E 19 b5 01 5f
        E 19 b5 01 5c
        E 19 b5 01 59
        E 19 b5 01 57
        E 19 b5 01 54
        E 19 b5 01 51
        E 19 b5 01 4e
        E 19 b5 01 4a
        E 19 b5 01 47
        E 19 b5 01 44
        E 19 b5 01 41
        E 19 b5 01 3e
        E 19 b5 01 3b
        E 19 b5 01 38
        E 19 b5 01 35
        E 19 b5 01 31
        E 19 b5 01 2e
        E 19 b5 01 2b
        E 19 b5 01 28
        E 19 b5 01 26
        E 19 b5 01 23
        E 19 b5 01 20
        E 19 b5 01 1d
        E 19 b5 01 1b
        E 19 b5 01 18
        E 19 b5 01 16
        E 19 b5 01 13
        E 19 b5 01 11
        E 19 b5 01 0f
        E 19 b5 01 0d
        E 19 b5 01 0b
        E 19 b5 01 0a
        E 19 b5 01 08
        E 19 b5 01 07
        E 19 b5 01 05
        E 19 b5 01 04
        E 19 b5 01 03
        E 19 b5 01 02
        E 19 b5 01 01
        E 19 b5 01 01
        E 19 b5 01 00
        E 19 b5 01 00
        E 19 b5 01 00
        E 19 b5 01 00
        E 19 b5 01 00
        E 19 b5 01 01
        E 19 b5 01 01
        E 19 b5 01 02
        E 19 b5 01 03
        E 19 b5 01 04
        E 19 b5 01 05
        E 19 b5 01 06
        E 19 b5 01 07
        E 19 b5 01 09
        E 19 b5 01 0a
        E 19 b5 01 0c
        E 19 b5 01 0e
        E 19 b5 01 10
        E 19 b5 01 12
        E 19 b5 01 15
        E 19 b5 01 17
        E 19 b5 01 19
        E 19 b5 01 1c
        E 19 b5 01 1f
        E 19 b5 01 21
        E 19 b5 01 24
        E 19 b5 01 27
        E 19 b5 01 2a
        E 19 b5 01 2d
        E 19 b5 01 30
        E 19 b5 01 33
        E 19 b5 01 36
        E 19 b5 01 39
        E 19 b5 01 3c
        E 19 b5 01 40
        E 4 b5 01 39
        E 4 b5 01 3c
        E 4 b5 01 3f
        E 4 b5 01 41
        E 4 b5 01 44
        E 4 b5 01 47
        E 4 b5 01 49
        E 4 b5 01 4c
        E 4 b5 01 4f
        E 4 b5 01 51
        E 4 b5 01 54
        E 4 b5 01 56
        E 4 b5 01 59
        E 4 b5 01 5b
        E 4 b5 01 5d
        E 4 b5 01 5f
        E 4 b5 01 62
        E 4 b5 01 63
        E 4 b5 01 65
        E 4 b5 01 67
        E 4 b5 01 69
        E 4 b5 01 6a
        E 4 b5 01 6c
        E 4 b5 01 6c
        E 4 b5 01 6d
        E 4 b5 01 6e
        E 4 b5 01 6f
        E 4 b5 01 70
        E 4 b5 01 71
        E 4 b5 01 71
        E 4 b5 01 72
        E 4 b5 01 72
        E 4 b5 01 72
        E 4 b5 01 72
        E 4 b5 01 72
        E 4 b5 01 71
        E 4 b5 01 71
        E 4 b5 01 70
        E 4 b5 01 6f
        E 4 b5 01 6e
        E 4 b5 01 6d
        E 4 b5 01 6c
        E 4 b5 01 6b
        E 4 b5 01 69
        E 4 b5 01 68
        E 4 b5 01 66
        E 4 b5 01 64
        E 4 b5 01 63
        E 4 b5 01 61
        E 4 b5 01 5e
        E 4 b5 01 5c
        E 4 b5 01 5a
        E 4 b5 01 58
        E 4 b5 01 55
        E 4 b5 01 52
        E 4 b5 01 50
        E 4 b5 01 4e
        E 4 b5 01 4b
        E 4 b5 01 48
        E 4 b5 01 46
        E 4 b5 01 42
        E 4 b5 01 3f
        E 4 b5 01 3d
        E 4 b5 01 3a
        E 4 b5 01 37
        E 4 b5 01 35
        E 4 b5 01 32
        E 4 b5 01 2f
        E 4 b5 01 2c
        E 4 b5 01 29
        E 4 b5 01 26
        E 4 b5 01 24
        E 4 b5 01 22
        E 4 b5 01 1f
        E 4 b5 01 1c
        E 4 b5 01 1a
        E 4 b5 01 18
        E 4 b5 01 15
        E 4 b5 01 13
        E 4 b5 01 11
        E 4 b5 01 0f
        E 4 b5 01 0d
        E 4 b5 01 0b
        E 4 b5 01 09
        E 4 b5 01 09
        E 4 b5 01 07
        E 4 b5 01 06
        E 4 b5 01 04
        E 4 b5 01 03
        E 4 b5 01 02
        E 4 b5 01 01
        E 4 b5 01 00
        E 4 b5 01 00
        E 4 b5 01 00
        E 4 b5 01 00
        E 4 b5 01 00
        E 4 b5 01 00
        E 4 b5 01 00
        E 4 b5 01 00
        E 4 b5 01 00
        E 4 b5 01 01
        E 4 b5 01 02
        E 4 b5 01 03
        E 4 b5 01 04
        E 4 b5 01 05
        E 4 b5 01 06
        E 4 b5 01 08
        E 4 b5 01 09
        E 4 b5 01 0a
        E 4 b5 01 0c
        E 4 b5 01 0e
        E 4 b5 01 10
        E 4 b5 01 12
        E 4 b5 01 14
        E 4 b5 01 16
        E 4 b5 01 19
        E 4 b5 01 1b
        E 4 b5 01 1d
        E 4 b5 01 20
        E 4 b5 01 23
        E 4 b5 01 25
        E 4 b5 01 28
        E 4 b5 01 2b
        E 4 b5 01 2d
        E 4 b5 01 30
        E 4 b5 01 33
        E 4 b5 01 36
        E 4 b5 01 39
        E 2 b5 01 26
        E 2 b5 01 28
        E 2 b5 01 2a
        E 2 b5 01 2b
        E 2 b5 01 2d
        E 2 b5 01 2f
        E 2 b5 01 31
        E 2 b5 01 33
        E 2 b5 01 34
        E 2 b5 01 36
        E 2 b5 01 38
        E 2 b5 01 39
        E 2 b5 01 3b
        E 2 b5 01 3d
        E 2 b5 01 3e
        E 2 b5 01 3f
        E 2 b5 01 41
        E 2 b5 01 42
        E 2 b5 01 43
        E 2 b5 01 45
        E 2 b5 01 46
        E 2 b5 01 46
        E 2 b5 01 48
        E 2 b5 01 48
        E 2 b5 01 49
        E 2 b5 01 49
        E 2 b5 01 4a
        E 2 b5 01 4b
        E 2 b5 01 4b
        E 2 b5 01 4b
        E 2 b5 01 4c
        E 2 b5 01 4c
        E 2 b5 01 4c
        E 2 b5 01 4c
        E 2 b5 01 4c
        E 2 b5 01 4b
        E 2 b5 01 4b
        E 2 b5 01 4b
        E 2 b5 01 4a
        E 2 b5 01 49
        E 2 b5 01 49
        E 2 b5 01 48
        E 2 b5 01 47
        E 2 b5 01 46
        E 2 b5 01 45
        E 2 b5 01 44
        E 2 b5 01 43
        E 2 b5 01 42
        E 2 b5 01 40
        E 2 b5 01 3f
        E 2 b5 01 3d
        E 2 b5 01 3c
        E 2 b5 01 3a
        E 2 b5 01 39
        E 2 b5 01 37
        E 2 b5 01 35
        E 2 b5 01 34
        E 2 b5 01 32
        E 2 b5 01 30
        E 2 b5 01 2e
        E 2 b5 01 2c
        E 2 b5 01 2a
        E 2 b5 01 28
        E 2 b5 01 27
        E 2 b5 01 25
        E 2 b5 01 23
        E 2 b5 01 21
        E 2 b5 01 1f
        E 2 b5 01 1d
        E 2 b5 01 1b
        E 2 b5 01 19
        E 2 b5 01 18
        E 2 b5 01 16
        E 2 b5 01 15
        E 2 b5 01 13
        E 2 b5 01 11
        E 2 b5 01 10
        E 2 b5 01 0e
        E 2 b5 01 0d
        E 2 b5 01 0b
        E 2 b5 01 0a
        E 2 b5 01 09
        E 2 b5 01 07
        E 2 b5 01 06
        E 2 b5 01 06
        E 2 b5 01 04
        E 2 b5 01 04
        E 2 b5 01 03
        E 2 b5 01 02
        E 2 b5 01 01
        E 2 b5 01 01
        E 2 b5 01 00
        E 2 b5 01 00
        E 2 b5 01 00
        E 2 b5 01 00
        E 2 b5 01 00
        E 2 b5 01 00
        E 2 b5 01 00
        E 2 b5 01 00
        E 2 b5 01 00
        E 2 b5 01 01
        E 2 b5 01 01
        E 2 b5 01 02
        E 2 b5 01 03
        E 2 b5 01 03
        E 2 b5 01 04
        E 2 b5 01 05
        E 2 b5 01 06
        E 2 b5 01 07
        E 2 b5 01 08
        E 2 b5 01 09
        E 2 b5 01 0a
        E 2 b5 01 0c
        E 2 b5 01 0d
        E 2 b5 01 0f
        E 2 b5 01 10
        E 2 b5 01 12
        E 2 b5 01 13
        E 2 b5 01 15
        E 2 b5 01 17
        E 2 b5 01 19
        E 2 b5 01 1b
        E 2 b5 01 1c
        E 2 b5 01 1e
        E 2 b5 01 20
        E 2 b5 01 22
        E 2 b5 01 24
        E 2 b5 01 26
        E 11 b5 01 0c
        E 11 b5 01 0d
        E 11 b5 01 0e
        E 11 b5 01 0e
        E 11 b5 01 0f
        E 11 b5 01 0f
        E 11 b5 01 10
        E 11 b5 01 11
        E 11 b5 01 11
        E 11 b5 01 12
        E 11 b5 01 12
        E 11 b5 01 13
        E 11 b5 01 13
        E 11 b5 01 14
        E 11 b5 01 14
        E 11 b5 01 15
        E 11 b5 01 15
        E 11 b5 01 16
        E 11 b5 01 16
        E 11 b5 01 17
        E 11 b5 01 17
        E 11 b5 01 17
        E 11 b5 01 18
        E 11 b5 01 18
        E 11 b5 01 18
        E 11 b5 01 18
        E 11 b5 01 18
        E 11 b5 01 19
        E 11 b5 01 19
        E 11 b5 01 19
        E 11 b5 01 19
        E 11 b5 01 19
        E 11 b5 01 19
        E 11 b5 01 19
        E 11 b5 01 19
        E 11 b5 01 19
        E 11 b5 01 19
        E 11 b5 01 19
        E 11 b5 01 18
        E 11 b5 01 18
        E 11 b5 01 18
        E 11 b5 01 18
        E 11 b5 01 17
        E 11 b5 01 17
        E 11 b5 01 17
        E 11 b5 01 16
        E 11 b5 01 16
        E 11 b5 01 16
        E 11 b5 01 15
        E 11 b5 01 15
        E 11 b5 01 14
        E 11 b5 01 14
        E 11 b5 01 13
        E 11 b5 01 13
        E 11 b5 01 12
        E 11 b5 01 11
        E 11 b5 01 11
        E 11 b5 01 10
        E 11 b5 01 10
        E 11 b5 01 0f
        E 11 b5 01 0e
        E 11 b5 01 0e
        E 11 b5 01 0d
        E 11 b5 01 0d
        E 11 b5 01 0c
        E 11 b5 01 0b
        E 11 b5 01 0b
        E 11 b5 01 0a
        E 11 b5 01 09
        E 11 b5 01 09
        E 11 b5 01 08
        E 11 b5 01 08
        E 11 b5 01 07
        E 11 b5 01 07
        E 11 b5 01 06
        E 11 b5 01 05
        E 11 b5 01 05
        E 11 b5 01 04
        E 11 b5 01 04
        E 11 b5 01 03
        E 11 b5 01 03
        E 11 b5 01 03
        E 11 b5 01 02
        E 11 b5 01 02
        E 11 b5 01 02
        E 11 b5 01 01
        E 11 b5 01 01
        E 11 b5 01 01
        E 11 b5 01 00
        E 11 b5 01 00
        E 11 b5 01 00
        E 11 b5 01 00
        E 11 b5 01 00
        E 11 b5 01 00
        E 11 b5 01 00
        E 11 b5 01 00
        E 11 b5 01 00
        E 11 b5 01 00
        E 11 b5 01 00
        E 11 b5 01 00
        E 11 b5 01 00
        E 11 b5 01 00
        E 11 b5 01 00
        E 11 b5 01 01
        E 11 b5 01 01
        E 11 b5 01 01
        E 11 b5 01 01
        E 11 b5 01 02
        E 11 b5 01 02
        E 11 b5 01 02
        E 11 b5 01 03
        E 11 b5 01 03
        E 11 b5 01 04
        E 11 b5 01 04
        E 11 b5 01 05
        E 11 b5 01 05
        E 11 b5 01 06
        E 11 b5 01 06
        E 11 b5 01 07
        E 11 b5 01 07
        E 11 b5 01 08
        E 11 b5 01 09
        E 11 b5 01 09
        E 11 b5 01 0a
        E 11 b5 01 0a
        E 11 b5 01 0b
        E 11 b5 01 0c
        E 11 b5 01 0c
        E 8 b5 01 2c
        E 8 b5 01 2e
        E 8 b5 01 31
        E 8 b5 01 33
        E 8 b5 01 35
        E 8 b5 01 37
        E 8 b5 01 39
        E 8 b5 01 3b
        E 8 b5 01 3d
        E 8 b5 01 3f
        E 8 b5 01 41
        E 8 b5 01 43
        E 8 b5 01 45
        E 8 b5 01 47
        E 8 b5 01 48
        E 8 b5 01 4a
        E 8 b5 01 4c
        E 8 b5 01 4d
        E 8 b5 01 4f
        E 8 b5 01 50
        E 8 b5 01 51
        E 8 b5 01 52
        E 8 b5 01 54
        E 8 b5 01 54
        E 8 b5 01 55
        E 8 b5 01 56
        E 8 b5 01 56
        E 8 b5 01 57
        E 8 b5 01 58
        E 8 b5 01 58
        E 8 b5 01 58
        E 8 b5 01 58
        E 8 b5 01 58
        E 8 b5 01 58
        E 8 b5 01 58
        E 8 b5 01 58
        E 8 b5 01 58
        E 8 b5 01 57
        E 8 b5 01 56
        E 8 b5 01 56
        E 8 b5 01 55
        E 8 b5 01 54
        E 8 b5 01 53
        E 8 b5 01 51
        E 8 b5 01 51
        E 8 b5 01 4f
        E 8 b5 01 4e
        E 8 b5 01 4d
        E 8 b5 01 4b
        E 8 b5 01 49
        E 8 b5 01 48
        E 8 b5 01 46
        E 8 b5 01 44
        E 8 b5 01 42
        E 8 b5 01 40
        E 8 b5 01 3e
        E 8 b5 01 3c
        E 8 b5 01 3a
        E 8 b5 01 38
        E 8 b5 01 36
        E 8 b5 01 33
        E 8 b5 01 31
        E 8 b5 01 2f
        E 8 b5 01 2d
        E 8 b5 01 2b
        E 8 b5 01 29
        E 8 b5 01 27
        E 8 b5 01 25
        E 8 b5 01 22
        E 8 b5 01 20
        E 8 b5 01 1e
        E 8 b5 01 1c
        E 8 b5 01 1a
        E 8 b5 01 18
        E 8 b5 01 16
        E 8 b5 01 14
        E 8 b5 01 12
        E 8 b5 01 10
        E 8 b5 01 0f
        E 8 b5 01 0d
        E 8 b5 01 0b
        E 8 b5 01 0a
        E 8 b5 01 09
        E 8 b5 01 07
        E 8 b5 01 07
        E 8 b5 01 05
        E 8 b5 01 04
        E 8 b5 01 03
        E 8 b5 01 02
        E 8 b5 01 02
        E 8 b5 01 01
        E 8 b5 01 00
        E 8 b5 01 00
        E 8 b5 01 00
        E 8 b5 01 00
        E 8 b5 01 00
        E 8 b5 01 00
        E 8 b5 01 00
        E 8 b5 01 00
        E 8 b5 01 00
        E 8 b5 01 01
        E 8 b5 01 02
        E 8 b5 01 02
        E 8 b5 01 03
        E 8 b5 01 04
        E 8 b5 01 04
        E 8 b5 01 06
        E 8 b5 01 07
        E 8 b5 01 08
        E 8 b5 01 09
        E 8 b5 01 0b
        E 8 b5 01 0c
        E 8 b5 01 0e
        E 8 b5 01 10
        E 8 b5 01 11
        E 8 b5 01 13
        E 8 b5 01 15
        E 8 b5 01 17
        E 8 b5 01 19
        E 8 b5 01 1b
        E 8 b5 01 1d
        E 8 b5 01 1f
        E 8 b5 01 21
        E 8 b5 01 23
        E 8 b5 01 25
        E 8 b5 01 27
        E 8 b5 01 2a
        E 8 b5 01 2c
        E 16 b0 7b 00
        CCINTERP 32
        CHASE_CC_TAKEOFFS 1
        GUID {F6BC91CF-A073-894A-B677-DFE0BDC8AA15}
        IGNTEMPO 0 120 4 4
        SRCCOLOR 415
        VELLANE 3 601 0
        VELLANE -1 196 0
      >
    >
  >
  <TRACK {0FBA1E9B-B61F-CE48-8BF8-44B200D16F8A}
    NAME "xbox 360 portal 2 video game disc"
    PEAKCOL 16576
    BEAT -1
    AUTOMODE 0
    VOLPAN 1 0 -1 -1 1
    MUTESOLO 0 0 0
    IPHASE 0
    PLAYOFFS 0 1
    ISBUS 0 0
    BUSCOMP 0 0 0 0 0
    SHOWINMIX 1 0.6667 0.5 1 0.5 0 -1 0
    FREEMODE 0
    SEL 0
    REC 0 0 1 0 0 0 0
    VU 2
    TRACKHEIGHT 0 1 0 0 -1 0
    INQ 0 0 0 0.5 100 0 0 100
    NCHAN 2
    FX 1
    TRACKID {0FBA1E9B-B61F-CE48-8BF8-44B200D16F8A}
    PERF 0
    MIDIOUT -1
    MAINSEND 1 0
    <ITEM
      POSITION 0
      SNAPOFFS 0
      LENGTH 0.833333
      LOOP 1
      ALLTAKES 0
      FADEIN 1 0 0 1 0 0
      FADEOUT 1 0 0 1 0 0
      MUTE 0 0
      SEL 0
      IGUID {ADD8FD43-5E37-334C-9A3F-267880DBA7FF}
      IID 19
      NAME "xbox 360 portal 2 video game disc.mid"
      VOLPAN 1 0 1 -1
      SOFFS 0 0
      PLAYRATE 1 1 0 -1 0 0.0025
      CHANMODE 0
      GUID {EE711CDA-4E8E-5F45-B955-DFCC8D242ABB}
      <SOURCE MIDI
        HASDATA 1 128 QN
        CCINTERP 32
        POOLEDEVTS {8714D91F-8570-6648-BEF7-6A389FCBB9CC}
        E 128 b0 7b 00
        CCINTERP 32
        CHASE_CC_TAKEOFFS 1
        GUID {EEE0EB0E-B8F2-AE47-AB41-ECBABB44DB2D}
        IGNTEMPO 0 120 4 4
        SRCCOLOR 416
        VELLANE 3 601 0
        VELLANE -1 196 0
      >
    >
  >
  <TRACK {8386B71E-6976-C948-9638-AF05FF6F9C33}
    NAME "xbox 360 portal 2 video game disc"
    PEAKCOL 16576
    BEAT -1
    AUTOMODE 0
    VOLPAN 1 0 -1 -1 1
    MUTESOLO 0 0 0
    IPHASE 0
    PLAYOFFS 0 1
    ISBUS 0 0
    BUSCOMP 0 0 0 0 0
    SHOWINMIX 1 0.6667 0.5 1 0.5 0 -1 0
    FREEMODE 0
    SEL 0
    REC 0 0 1 0 0 0 0
    VU 2
    TRACKHEIGHT 0 1 0 0 -1 0
    INQ 0 0 0 0.5 100 0 0 100
    NCHAN 2
    FX 1
    TRACKID {8386B71E-6976-C948-9638-AF05FF6F9C33}
    PERF 0
    MIDIOUT -1
    MAINSEND 1 0
    <ITEM
      POSITION 0
      SNAPOFFS 0
      LENGTH 832.499667
      LOOP 1
      ALLTAKES 0
      FADEIN 1 0 0 1 0 0
      FADEOUT 1 0 0 1 0 0
      MUTE 0 0
      SEL 0
      IGUID {875732EE-0C1A-3C4E-A7A5-B77C8EEF6E4D}
      IID 20
      NAME "xbox 360 portal 2 video game disc.mid"
      VOLPAN 1 0 1 -1
      SOFFS 0 0
      PLAYRATE 1 1 0 -1 0 0.0025
      CHANMODE 0
      GUID {66C387D0-F44D-7747-8940-1838E4E9AD2B}
      <SOURCE MIDI
        HASDATA 1 128 QN
        CCINTERP 32
        POOLEDEVTS {8FF5C4B3-E9EF-034D-B278-FF4CD5B1C95D}
        E 11 b7 09 0c
        E 11 b7 09 0d
        E 11 b7 09 0e
        E 11 b7 09 0e
        E 11 b7 09 0f
        E 11 b7 09 0f
        E 11 b7 09 10
        E 11 b7 09 11
        E 11 b7 09 11
        E 11 b7 09 12
        E 11 b7 09 12
        E 11 b7 09 13
        E 11 b7 09 13
        E 11 b7 09 14
        E 11 b7 09 14
        E 11 b7 09 15
        E 11 b7 09 15
        E 11 b7 09 16
        E 11 b7 09 16
        E 11 b7 09 17
        E 11 b7 09 17
        E 11 b7 09 17
        E 11 b7 09 18
        E 11 b7 09 18
        E 11 b7 09 18
        E 11 b7 09 18
        E 11 b7 09 18
        E 11 b7 09 19
        E 11 b7 09 19
        E 11 b7 09 19
        E 11 b7 09 19
        E 11 b7 09 19
        E 11 b7 09 19
        E 11 b7 09 19
        E 11 b7 09 19
        E 11 b7 09 19
        E 11 b7 09 19
        E 11 b7 09 19
        E 11 b7 09 18
        E 11 b7 09 18
        E 11 b7 09 18
        E 11 b7 09 18
        E 11 b7 09 17
        E 11 b7 09 17
        E 11 b7 09 17
        E 11 b7 09 16
        E 11 b7 09 16
        E 11 b7 09 16
        E 11 b7 09 15
        E 11 b7 09 15
        E 11 b7 09 14
        E 11 b7 09 14
        E 11 b7 09 13
        E 11 b7 09 13
        E 11 b7 09 12
        E 11 b7 09 11
        E 11 b7 09 11
        E 11 b7 09 10
        E 11 b7 09 10
        E 11 b7 09 0f
        E 11 b7 09 0e
        E 11 b7 09 0e
        E 11 b7 09 0d
        E 11 b7 09 0d
        E 11 b7 09 0c
        E 11 b7 09 0b
        E 11 b7 09 0b
        E 11 b7 09 0a
        E 11 b7 09 09
        E 11 b7 09 09
        E 11 b7 09 08
        E 11 b7 09 08
        E 11 b7 09 07
        E 11 b7 09 07
        E 11 b7 09 06
        E 11 b7 09 05
        E 11 b7 09 05
        E 11 b7 09 04
        E 11 b7 09 04
        E 11 b7 09 03
        E 11 b7 09 03
        E 11 b7 09 03
        E 11 b7 09 02
        E 11 b7 09 02
        E 11 b7 09 02
        E 11 b7 09 01
        E 11 b7 09 01
        E 11 b7 09 01
        E 11 b7 09 00
        E 11 b7 09 00
        E 11 b7 09 00
        E 11 b7 09 00
        E 11 b7 09 00
        E 11 b7 09 00
        E 11 b7 09 00
        E 11 b7 09 00
        E 11 b7 09 00
        E 11 b7 09 00
        E 11 b7 09 00
        E 11 b7 09 00
        E 11 b7 09 00
        E 11 b7 09 00
        E 11 b7 09 00
        E 11 b7 09 01
        E 11 b7 09 01
        E 11 b7 09 01
        E 11 b7 09 01
        E 11 b7 09 02
        E 11 b7 09 02
        E 11 b7 09 02
        E 11 b7 09 03
        E 11 b7 09 03
        E 11 b7 09 04
        E 11 b7 09 04
        E 11 b7 09 05
        E 11 b7 09 05
        E 11 b7 09 06
        E 11 b7 09 06
        E 11 b7 09 07
        E 11 b7 09 07
        E 11 b7 09 08
        E 11 b7 09 09
        E 11 b7 09 09
        E 11 b7 09 0a
        E 11 b7 09 0a
        E 11 b7 09 0b
        E 11 b7 09 0c
        E 11 b7 09 0c
        E 8 b7 09 2c
        E 8 b7 09 2e
        E 8 b7 09 31
        E 8 b7 09 33
        E 8 b7 09 35
        E 8 b7 09 37
        E 8 b7 09 39
        E 8 b7 09 3b
        E 8 b7 09 3d
        E 8 b7 09 3f
        E 8 b7 09 41
        E 8 b7 09 43
        E 8 b7 09 45
        E 8 b7 09 47
        E 8 b7 09 48
        E 8 b7 09 4a
        E 8 b7 09 4c
        E 8 b7 09 4d
        E 8 b7 09 4f
        E 8 b7 09 50
        E 8 b7 09 51
        E 8 b7 09 52
        E 8 b7 09 54
        E 8 b7 09 54
        E 8 b7 09 55
        E 8 b7 09 56
        E 8 b7 09 56
        E 8 b7 09 57
        E 8 b7 09 58
        E 8 b7 09 58
        E 8 b7 09 58
        E 8 b7 09 58
        E 8 b7 09 58
        E 8 b7 09 58
        E 8 b7 09 58
        E 8 b7 09 58
        E 8 b7 09 58
        E 8 b7 09 57
        E 8 b7 09 56
        E 8 b7 09 56
        E 8 b7 09 55
        E 8 b7 09 54
        E 8 b7 09 53
        E 8 b7 09 51
        E 8 b7 09 51
        E 8 b7 09 4f
        E 8 b7 09 4e
        E 8 b7 09 4d
        E 8 b7 09 4b
        E 8 b7 09 49
        E 8 b7 09 48
        E 8 b7 09 46
        E 8 b7 09 44
        E 8 b7 09 42
        E 8 b7 09 40
        E 8 b7 09 3e
        E 8 b7 09 3c
        E 8 b7 09 3a
        E 8 b7 09 38
        E 8 b7 09 36
        E 8 b7 09 33
        E 8 b7 09 31
        E 8 b7 09 2f
        E 8 b7 09 2d
        E 8 b7 09 2b
        E 8 b7 09 29
        E 8 b7 09 27
        E 8 b7 09 25
        E 8 b7 09 22
        E 8 b7 09 20
        E 8 b7 09 1e
        E 8 b7 09 1c
        E 8 b7 09 1a
        E 8 b7 09 18
        E 8 b7 09 16
        E 8 b7 09 14
        E 8 b7 09 12
        E 8 b7 09 10
        E 8 b7 09 0f
        E 8 b7 09 0d
        E 8 b7 09 0b
        E 8 b7 09 0a
        E 8 b7 09 09
        E 8 b7 09 07
        E 8 b7 09 07
        E 8 b7 09 05
        E 8 b7 09 04
        E 8 b7 09 03
        E 8 b7 09 02
        E 8 b7 09 02
        E 8 b7 09 01
        E 8 b7 09 00
        E 8 b7 09 00
        E 8 b7 09 00
        E 8 b7 09 00
        E 8 b7 09 00
        E 8 b7 09 00
        E 8 b7 09 00
        E 8 b7 09 00
        E 8 b7 09 00
        E 8 b7 09 01
        E 8 b7 09 02
        E 8 b7 09 02
        E 8 b7 09 03
        E 8 b7 09 04
        E 8 b7 09 04
        E 8 b7 09 06
        E 8 b7 09 07
        E 8 b7 09 08
        E 8 b7 09 09
        E 8 b7 09 0b
        E 8 b7 09 0c
        E 8 b7 09 0e
        E 8 b7 09 10
        E 8 b7 09 11
        E 8 b7 09 13
        E 8 b7 09 15
        E 8 b7 09 17
        E 8 b7 09 19
        E 8 b7 09 1b
        E 8 b7 09 1d
        E 8 b7 09 1f
        E 8 b7 09 21
        E 8 b7 09 23
        E 8 b7 09 25
        E 8 b7 09 27
        E 8 b7 09 2a
        E 8 b7 09 2c
        E 2 b7 09 19
        E 2 b7 09 1a
        E 2 b7 09 1c
        E 2 b7 09 1d
        E 2 b7 09 1e
        E 2 b7 09 1f
        E 2 b7 09 20
        E 2 b7 09 22
        E 2 b7 09 23
        E 2 b7 09 24
        E 2 b7 09 25
        E 2 b7 09 26
        E 2 b7 09 27
        E 2 b7 09 28
        E 2 b7 09 29
        E 2 b7 09 2a
        E 2 b7 09 2b
        E 2 b7 09 2c
        E 2 b7 09 2d
        E 2 b7 09 2e
        E 2 b7 09 2e
        E 2 b7 09 2f
        E 2 b7 09 30
        E 2 b7 09 30
        E 2 b7 09 30
        E 2 b7 09 31
        E 2 b7 09 31
        E 2 b7 09 32
        E 2 b7 09 32
        E 2 b7 09 32
        E 2 b7 09 32
        E 2 b7 09 32
        E 2 b7 09 32
        E 2 b7 09 32
        E 2 b7 09 32
        E 2 b7 09 32
        E 2 b7 09 32
        E 2 b7 09 32
        E 2 b7 09 31
        E 2 b7 09 31
        E 2 b7 09 30
        E 2 b7 09 30
        E 2 b7 09 2f
        E 2 b7 09 2e
        E 2 b7 09 2e
        E 2 b7 09 2d
        E 2 b7 09 2c
        E 2 b7 09 2c
        E 2 b7 09 2b
        E 2 b7 09 2a
        E 2 b7 09 29
        E 2 b7 09 28
        E 2 b7 09 27
        E 2 b7 09 26
        E 2 b7 09 24
        E 2 b7 09 23
        E 2 b7 09 22
        E 2 b7 09 21
        E 2 b7 09 20
        E 2 b7 09 1f
        E 2 b7 09 1d
        E 2 b7 09 1c
        E 2 b7 09 1b
        E 2 b7 09 1a
        E 2 b7 09 18
        E 2 b7 09 17
        E 2 b7 09 16
        E 2 b7 09 15
        E 2 b7 09 13
        E 2 b7 09 12
        E 2 b7 09 11
        E 2 b7 09 10
        E 2 b7 09 0f
        E 2 b7 09 0e
        E 2 b7 09 0c
        E 2 b7 09 0b
        E 2 b7 09 0a
        E 2 b7 09 09
        E 2 b7 09 08
        E 2 b7 09 07
        E 2 b7 09 06
        E 2 b7 09 06
        E 2 b7 09 05
        E 2 b7 09 04
        E 2 b7 09 04
        E 2 b7 09 03
        E 2 b7 09 02
        E 2 b7 09 02
        E 2 b7 09 01
        E 2 b7 09 01
        E 2 b7 09 00
        E 2 b7 09 00
        E 2 b7 09 00
        E 2 b7 09 00
        E 2 b7 09 00
        E 2 b7 09 00
        E 2 b7 09 00
        E 2 b7 09 00
        E 2 b7 09 00
        E 2 b7 09 00
        E 2 b7 09 00
        E 2 b7 09 01
        E 2 b7 09 01
        E 2 b7 09 02
        E 2 b7 09 02
        E 2 b7 09 02
        E 2 b7 09 03
        E 2 b7 09 04
        E 2 b7 09 04
        E 2 b7 09 05
        E 2 b7 09 06
        E 2 b7 09 07
        E 2 b7 09 08
        E 2 b7 09 09
        E 2 b7 09 0a
        E 2 b7 09 0b
        E 2 b7 09 0c
        E 2 b7 09 0d
        E 2 b7 09 0e
        E 2 b7 09 0f
        E 2 b7 09 10
        E 2 b7 09 12
        E 2 b7 09 13
        E 2 b7 09 14
        E 2 b7 09 15
        E 2 b7 09 16
        E 2 b7 09 18
        E 2 b7 09 19
        E 19 b7 09 40
        E 19 b7 09 43
        E 19 b7 09 46
        E 19 b7 09 49
        E 19 b7 09 4c
        E 19 b7 09 4f
        E 19 b7 09 52
        E 19 b7 09 55
        E 19 b7 09 58
        E 19 b7 09 5b
        E 19 b7 09 5e
        E 19 b7 09 60
        E 19 b7 09 63
        E 19 b7 09 66
        E 19 b7 09 68
        E 19 b7 09 6a
        E 19 b7 09 6d
        E 19 b7 09 6f
        E 19 b7 09 71
        E 19 b7 09 73
        E 19 b7 09 75
        E 19 b7 09 76
        E 19 b7 09 78
        E 19 b7 09 79
        E 19 b7 09 7a
        E 19 b7 09 7b
        E 19 b7 09 7c
        E 19 b7 09 7d
        E 19 b7 09 7e
        E 19 b7 09 7e
        E 19 b7 09 7f
        E 19 b7 09 7f
        E 19 b7 09 7f
        E 19 b7 09 7f
        E 19 b7 09 7f
        E 19 b7 09 7e
        E 19 b7 09 7e
        E 19 b7 09 7d
        E 19 b7 09 7c
        E 19 b7 09 7b
        E 19 b7 09 7a
        E 19 b7 09 78
        E 19 b7 09 77
        E 19 b7 09 75
        E 19 b7 09 74
        E 19 b7 09 72
        E 19 b7 09 70
        E 19 b7 09 6e
        E 19 b7 09 6c
        E 19 b7 09 69
        E 19 b7 09 67
        E 19 b7 09 64
        E 19 b7 09 62
        E 19 b7 09 5f
        E 19 b7 09 5c
        E 19 b7 09 59
        E 19 b7 09 57
        E 19 b7 09 54
        E 19 b7 09 51
        E 19 b7 09 4e
        E 19 b7 09 4a
        E 19 b7 09 47
        E 19 b7 09 44
        E 19 b7 09 41
        E 19 b7 09 3e
        E 19 b7 09 3b
        E 19 b7 09 38
        E 19 b7 09 35
        E 19 b7 09 31
        E 19 b7 09 2e
        E 19 b7 09 2b
        E 19 b7 09 28
        E 19 b7 09 26
        E 19 b7 09 23
        E 19 b7 09 20
        E 19 b7 09 1d
        E 19 b7 09 1b
        E 19 b7 09 18
        E 19 b7 09 16
        E 19 b7 09 13
        E 19 b7 09 11
        E 19 b7 09 0f
        E 19 b7 09 0d
        E 19 b7 09 0b
        E 19 b7 09 0a
        E 19 b7 09 08
        E 19 b7 09 07
        E 19 b7 09 05
        E 19 b7 09 04
        E 19 b7 09 03
        E 19 b7 09 02
        E 19 b7 09 01
        E 19 b7 09 01
        E 19 b7 09 00
        E 19 b7 09 00
        E 19 b7 09 00
        E 19 b7 09 00
        E 19 b7 09 00
        E 19 b7 09 01
        E 19 b7 09 01
        E 19 b7 09 02
        E 19 b7 09 03
        E 19 b7 09 04
        E 19 b7 09 05
        E 19 b7 09 06
        E 19 b7 09 07
        E 19 b7 09 09
        E 19 b7 09 0a
        E 19 b7 09 0c
        E 19 b7 09 0e
        E 19 b7 09 10
        E 19 b7 09 12
        E 19 b7 09 15
        E 19 b7 09 17
        E 19 b7 09 19
        E 19 b7 09 1c
        E 19 b7 09 1f
        E 19 b7 09 21
        E 19 b7 09 24
        E 19 b7 09 27
        E 19 b7 09 2a
        E 19 b7 09 2d
        E 19 b7 09 30
        E 19 b7 09 33
        E 19 b7 09 36
        E 19 b7 09 39
        E 19 b7 09 3c
        E 19 b7 09 40
        E 4 b7 09 39
        E 4 b7 09 3c
        E 4 b7 09 3f
        E 4 b7 09 41
        E 4 b7 09 44
        E 4 b7 09 47
        E 4 b7 09 49
        E 4 b7 09 4c
        E 4 b7 09 4f
        E 4 b7 09 51
        E 4 b7 09 54
        E 4 b7 09 56
        E 4 b7 09 59
        E 4 b7 09 5b
        E 4 b7 09 5d
        E 4 b7 09 5f
        E 4 b7 09 62
        E 4 b7 09 63
        E 4 b7 09 65
        E 4 b7 09 67
        E 4 b7 09 69
        E 4 b7 09 6a
        E 4 b7 09 6c
        E 4 b7 09 6c
        E 4 b7 09 6d
        E 4 b7 09 6e
        E 4 b7 09 6f
        E 4 b7 09 70
        E 4 b7 09 71
        E 4 b7 09 71
        E 4 b7 09 72
        E 4 b7 09 72
        E 4 b7 09 72
        E 4 b7 09 72
        E 4 b7 09 72
        E 4 b7 09 71
        E 4 b7 09 71
        E 4 b7 09 70
        E 4 b7 09 6f
        E 4 b7 09 6e
        E 4 b7 09 6d
        E 4 b7 09 6c
        E 4 b7 09 6b
        E 4 b7 09 69
        E 4 b7 09 68
        E 4 b7 09 66
        E 4 b7 09 64
        E 4 b7 09 63
        E 4 b7 09 61
        E 4 b7 09 5e
        E 4 b7 09 5c
        E 4 b7 09 5a
        E 4 b7 09 58
        E 4 b7 09 55
        E 4 b7 09 52
        E 4 b7 09 50
        E 4 b7 09 4e
        E 4 b7 09 4b
        E 4 b7 09 48
        E 4 b7 09 46
        E 4 b7 09 42
        E 4 b7 09 3f
        E 4 b7 09 3d
        E 4 b7 09 3a
        E 4 b7 09 37
        E 4 b7 09 35
        E 4 b7 09 32
        E 4 b7 09 2f
        E 4 b7 09 2c
        E 4 b7 09 29
        E 4 b7 09 26
        E 4 b7 09 24
        E 4 b7 09 22
        E 4 b7 09 1f
        E 4 b7 09 1c
        E 4 b7 09 1a
        E 4 b7 09 18
        E 4 b7 09 15
        E 4 b7 09 13
        E 4 b7 09 11
        E 4 b7 09 0f
        E 4 b7 09 0d
        E 4 b7 09 0b
        E 4 b7 09 09
        E 4 b7 09 09
        E 4 b7 09 07
        E 4 b7 09 06
        E 4 b7 09 04
        E 4 b7 09 03
        E 4 b7 09 02
        E 4 b7 09 01
        E 4 b7 09 00
        E 4 b7 09 00
        E 4 b7 09 00
        E 4 b7 09 00
        E 4 b7 09 00
        E 4 b7 09 00
        E 4 b7 09 00
        E 4 b7 09 00
        E 4 b7 09 00
        E 4 b7 09 01
        E 4 b7 09 02
        E 4 b7 09 03
        E 4 b7 09 04
        E 4 b7 09 05
        E 4 b7 09 06
        E 4 b7 09 08
        E 4 b7 09 09
        E 4 b7 09 0a
        E 4 b7 09 0c
        E 4 b7 09 0e
        E 4 b7 09 10
        E 4 b7 09 12
        E 4 b7 09 14
        E 4 b7 09 16
        E 4 b7 09 19
        E 4 b7 09 1b
        E 4 b7 09 1d
        E 4 b7 09 20
        E 4 b7 09 23
        E 4 b7 09 25
        E 4 b7 09 28
        E 4 b7 09 2b
        E 4 b7 09 2d
        E 4 b7 09 30
        E 4 b7 09 33
        E 4 b7 09 36
        E 4 b7 09 39
        E 2 b7 09 26
        E 2 b7 09 28
        E 2 b7 09 2a
        E 2 b7 09 2b
        E 2 b7 09 2d
        E 2 b7 09 2f
        E 2 b7 09 31
        E 2 b7 09 33
        E 2 b7 09 34
        E 2 b7 09 36
        E 2 b7 09 38
        E 2 b7 09 39
        E 2 b7 09 3b
        E 2 b7 09 3d
        E 2 b7 09 3e
        E 2 b7 09 3f
        E 2 b7 09 41
        E 2 b7 09 42
        E 2 b7 09 43
        E 2 b7 09 45
        E 2 b7 09 46
        E 2 b7 09 46
        E 2 b7 09 48
        E 2 b7 09 48
        E 2 b7 09 49
        E 2 b7 09 49
        E 2 b7 09 4a
        E 2 b7 09 4b
        E 2 b7 09 4b
        E 2 b7 09 4b
        E 2 b7 09 4c
        E 2 b7 09 4c
        E 2 b7 09 4c
        E 2 b7 09 4c
        E 2 b7 09 4c
        E 2 b7 09 4b
        E 2 b7 09 4b
        E 2 b7 09 4b
        E 2 b7 09 4a
        E 2 b7 09 49
        E 2 b7 09 49
        E 2 b7 09 48
        E 2 b7 09 47
        E 2 b7 09 46
        E 2 b7 09 45
        E 2 b7 09 44
        E 2 b7 09 43
        E 2 b7 09 42
        E 2 b7 09 40
        E 2 b7 09 3f
        E 2 b7 09 3d
        E 2 b7 09 3c
        E 2 b7 09 3a
        E 2 b7 09 39
        E 2 b7 09 37
        E 2 b7 09 35
        E 2 b7 09 34
        E 2 b7 09 32
        E 2 b7 09 30
        E 2 b7 09 2e
        E 2 b7 09 2c
        E 2 b7 09 2a
        E 2 b7 09 28
        E 2 b7 09 27
        E 2 b7 09 25
        E 2 b7 09 23
        E 2 b7 09 21
        E 2 b7 09 1f
        E 2 b7 09 1d
        E 2 b7 09 1b
        E 2 b7 09 19
        E 2 b7 09 18
        E 2 b7 09 16
        E 2 b7 09 15
        E 2 b7 09 13
        E 2 b7 09 11
        E 2 b7 09 10
        E 2 b7 09 0e
        E 2 b7 09 0d
        E 2 b7 09 0b
        E 2 b7 09 0a
        E 2 b7 09 09
        E 2 b7 09 07
        E 2 b7 09 06
        E 2 b7 09 06
        E 2 b7 09 04
        E 2 b7 09 04
        E 2 b7 09 03
        E 2 b7 09 02
        E 2 b7 09 01
        E 2 b7 09 01
        E 2 b7 09 00
        E 2 b7 09 00
        E 2 b7 09 00
        E 2 b7 09 00
        E 2 b7 09 00
        E 2 b7 09 00
        E 2 b7 09 00
        E 2 b7 09 00
        E 2 b7 09 00
        E 2 b7 09 01
        E 2 b7 09 01
        E 2 b7 09 02
        E 2 b7 09 03
        E 2 b7 09 03
        E 2 b7 09 04
        E 2 b7 09 05
        E 2 b7 09 06
        E 2 b7 09 07
        E 2 b7 09 08
        E 2 b7 09 09
        E 2 b7 09 0a
        E 2 b7 09 0c
        E 2 b7 09 0d
        E 2 b7 09 0f
        E 2 b7 09 10
        E 2 b7 09 12
        E 2 b7 09 13
        E 2 b7 09 15
        E 2 b7 09 17
        E 2 b7 09 19
        E 2 b7 09 1b
        E 2 b7 09 1c
        E 2 b7 09 1e
        E 2 b7 09 20
        E 2 b7 09 22
        E 2 b7 09 24
        E 2 b7 09 26
        E 11 b7 09 0c
        E 11 b7 09 0d
        E 11 b7 09 0e
        E 11 b7 09 0e
        E 11 b7 09 0f
        E 11 b7 09 0f
        E 11 b7 09 10
        E 11 b7 09 11
        E 11 b7 09 11
        E 11 b7 09 12
        E 11 b7 09 12
        E 11 b7 09 13
        E 11 b7 09 13
        E 11 b7 09 14
        E 11 b7 09 14
        E 11 b7 09 15
        E 11 b7 09 15
        E 11 b7 09 16
        E 11 b7 09 16
        E 11 b7 09 17
        E 11 b7 09 17
        E 11 b7 09 17
        E 11 b7 09 18
        E 11 b7 09 18
        E 11 b7 09 18
        E 11 b7 09 18
        E 11 b7 09 18
        E 11 b7 09 19
        E 11 b7 09 19
        E 11 b7 09 19
        E 11 b7 09 19
        E 11 b7 09 19
        E 11 b7 09 19
        E 11 b7 09 19
        E 11 b7 09 19
        E 11 b7 09 19
        E 11 b7 09 19
        E 11 b7 09 19
        E 11 b7 09 18
        E 11 b7 09 18
        E 11 b7 09 18
        E 11 b7 09 18
        E 11 b7 09 17
        E 11 b7 09 17
        E 11 b7 09 17
        E 11 b7 09 16
        E 11 b7 09 16
        E 11 b7 09 16
        E 11 b7 09 15
        E 11 b7 09 15
        E 11 b7 09 14
        E 11 b7 09 14
        E 11 b7 09 13
        E 11 b7 09 13
        E 11 b7 09 12
        E 11 b7 09 11
        E 11 b7 09 11
        E 11 b7 09 10
        E 11 b7 09 10
        E 11 b7 09 0f
        E 11 b7 09 0e
        E 11 b7 09 0e
        E 11 b7 09 0d
        E 11 b7 09 0d
        E 11 b7 09 0c
        E 11 b7 09 0b
        E 11 b7 09 0b
        E 11 b7 09 0a
        E 11 b7 09 09
        E 11 b7 09 09
        E 11 b7 09 08
        E 11 b7 09 08
        E 11 b7 09 07
        E 11 b7 09 07
        E 11 b7 09 06
        E 11 b7 09 05
        E 11 b7 09 05
        E 11 b7 09 04
        E 11 b7 09 04
        E 11 b7 09 03
        E 11 b7 09 03
        E 11 b7 09 03
        E 11 b7 09 02
        E 11 b7 09 02
        E 11 b7 09 02
        E 11 b7 09 01
        E 11 b7 09 01
        E 11 b7 09 01
        E 11 b7 09 00
        E 11 b7 09 00
        E 11 b7 09 00
        E 11 b7 09 00
        E 11 b7 09 00
        E 11 b7 09 00
        E 11 b7 09 00
        E 11 b7 09 00
        E 11 b7 09 00
        E 11 b7 09 00
        E 11 b7 09 00
        E 11 b7 09 00
        E 11 b7 09 00
        E 11 b7 09 00
        E 11 b7 09 00
        E 11 b7 09 01
        E 11 b7 09 01
        E 11 b7 09 01
        E 11 b7 09 01
        E 11 b7 09 02
        E 11 b7 09 02
        E 11 b7 09 02
        E 11 b7 09 03
        E 11 b7 09 03
        E 11 b7 09 04
        E 11 b7 09 04
        E 11 b7 09 05
        E 11 b7 09 05
        E 11 b7 09 06
        E 11 b7 09 06
        E 11 b7 09 07
        E 11 b7 09 07
        E 11 b7 09 08
        E 11 b7 09 09
        E 11 b7 09 09
        E 11 b7 09 0a
        E 11 b7 09 0a
        E 11 b7 09 0b
        E 11 b7 09 0c
        E 11 b7 09 0c
        E 8 b7 09 2c
        E 8 b7 09 2e
        E 8 b7 09 31
        E 8 b7 09 33
        E 8 b7 09 35
        E 8 b7 09 37
        E 8 b7 09 39
        E 8 b7 09 3b
        E 8 b7 09 3d
        E 8 b7 09 3f
        E 8 b7 09 41
        E 8 b7 09 43
        E 8 b7 09 45
        E 8 b7 09 47
        E 8 b7 09 48
        E 8 b7 09 4a
        E 8 b7 09 4c
        E 8 b7 09 4d
        E 8 b7 09 4f
        E 8 b7 09 50
        E 8 b7 09 51
        E 8 b7 09 52
        E 8 b7 09 54
        E 8 b7 09 54
        E 8 b7 09 55
        E 8 b7 09 56
        E 8 b7 09 56
        E 8 b7 09 57
        E 8 b7 09 58
        E 8 b7 09 58
        E 8 b7 09 58
        E 8 b7 09 58
        E 8 b7 09 58
        E 8 b7 09 58
        E 8 b7 09 58
        E 8 b7 09 58
        E 8 b7 09 58
        E 8 b7 09 57
        E 8 b7 09 56
        E 8 b7 09 56
        E 8 b7 09 55
        E 8 b7 09 54
        E 8 b7 09 53
        E 8 b7 09 51
        E 8 b7 09 51
        E 8 b7 09 4f
        E 8 b7 09 4e
        E 8 b7 09 4d
        E 8 b7 09 4b
        E 8 b7 09 49
        E 8 b7 09 48
        E 8 b7 09 46
        E 8 b7 09 44
        E 8 b7 09 42
        E 8 b7 09 40
        E 8 b7 09 3e
        E 8 b7 09 3c
        E 8 b7 09 3a
        E 8 b7 09 38
        E 8 b7 09 36
        E 8 b7 09 33
        E 8 b7 09 31
        E 8 b7 09 2f
        E 8 b7 09 2d
        E 8 b7 09 2b
        E 8 b7 09 29
        E 8 b7 09 27
        E 8 b7 09 25
        E 8 b7 09 22
        E 8 b7 09 20
        E 8 b7 09 1e
        E 8 b7 09 1c
        E 8 b7 09 1a
        E 8 b7 09 18
        E 8 b7 09 16
        E 8 b7 09 14
        E 8 b7 09 12
        E 8 b7 09 10
        E 8 b7 09 0f
        E 8 b7 09 0d
        E 8 b7 09 0b
        E 8 b7 09 0a
        E 8 b7 09 09
        E 8 b7 09 07
        E 8 b7 09 07
        E 8 b7 09 05
        E 8 b7 09 04
        E 8 b7 09 03
        E 8 b7 09 02
        E 8 b7 09 02
        E 8 b7 09 01
        E 8 b7 09 00
        E 8 b7 09 00
        E 8 b7 09 00
        E 8 b7 09 00
        E 8 b7 09 00
        E 8 b7 09 00
        E 8 b7 09 00
        E 8 b7 09 00
        E 8 b7 09 00
        E 8 b7 09 01
        E 8 b7 09 02
        E 8 b7 09 02
        E 8 b7 09 03
        E 8 b7 09 04
        E 8 b7 09 04
        E 8 b7 09 06
        E 8 b7 09 07
        E 8 b7 09 08
        E 8 b7 09 09
        E 8 b7 09 0b
        E 8 b7 09 0c
        E 8 b7 09 0e
        E 8 b7 09 10
        E 8 b7 09 11
        E 8 b7 09 13
        E 8 b7 09 15
        E 8 b7 09 17
        E 8 b7 09 19
        E 8 b7 09 1b
        E 8 b7 09 1d
        E 8 b7 09 1f
        E 8 b7 09 21
        E 8 b7 09 23
        E 8 b7 09 25
        E 8 b7 09 27
        E 8 b7 09 2a
        E 8 b7 09 2c
        E 2 b7 09 19
        E 2 b7 09 1a
        E 2 b7 09 1c
        E 2 b7 09 1d
        E 2 b7 09 1e
        E 2 b7 09 1f
        E 2 b7 09 20
        E 2 b7 09 22
        E 2 b7 09 23
        E 2 b7 09 24
        E 2 b7 09 25
        E 2 b7 09 26
        E 2 b7 09 27
        E 2 b7 09 28
        E 2 b7 09 29
        E 2 b7 09 2a
        E 2 b7 09 2b
        E 2 b7 09 2c
        E 2 b7 09 2d
        E 2 b7 09 2e
        E 2 b7 09 2e
        E 2 b7 09 2f
        E 2 b7 09 30
        E 2 b7 09 30
        E 2 b7 09 30
        E 2 b7 09 31
        E 2 b7 09 31
        E 2 b7 09 32
        E 2 b7 09 32
        E 2 b7 09 32
        E 2 b7 09 32
        E 2 b7 09 32
        E 2 b7 09 32
        E 2 b7 09 32
        E 2 b7 09 32
        E 2 b7 09 32
        E 2 b7 09 32
        E 2 b7 09 32
        E 2 b7 09 31
        E 2 b7 09 31
        E 2 b7 09 30
        E 2 b7 09 30
        E 2 b7 09 2f
        E 2 b7 09 2e
        E 2 b7 09 2e
        E 2 b7 09 2d
        E 2 b7 09 2c
        E 2 b7 09 2c
        E 2 b7 09 2b
        E 2 b7 09 2a
        E 2 b7 09 29
        E 2 b7 09 28
        E 2 b7 09 27
        E 2 b7 09 26
        E 2 b7 09 24
        E 2 b7 09 23
        E 2 b7 09 22
        E 2 b7 09 21
        E 2 b7 09 20
        E 2 b7 09 1f
        E 2 b7 09 1d
        E 2 b7 09 1c
        E 2 b7 09 1b
        E 2 b7 09 1a
        E 2 b7 09 18
        E 2 b7 09 17
        E 2 b7 09 16
        E 2 b7 09 15
        E 2 b7 09 13
        E 2 b7 09 12
        E 2 b7 09 11
        E 2 b7 09 10
        E 2 b7 09 0f
        E 2 b7 09 0e
        E 2 b7 09 0c
        E 2 b7 09 0b
        E 2 b7 09 0a
        E 2 b7 09 09
        E 2 b7 09 08
        E 2 b7 09 07
        E 2 b7 09 06
        E 2 b7 09 06
        E 2 b7 09 05
        E 2 b7 09 04
        E 2 b7 09 04
        E 2 b7 09 03
        E 2 b7 09 02
        E 2 b7 09 02
        E 2 b7 09 01
        E 2 b7 09 01
        E 2 b7 09 00
        E 2 b7 09 00
        E 2 b7 09 00
        E 2 b7 09 00
        E 2 b7 09 00
        E 2 b7 09 00
        E 2 b7 09 00
        E 2 b7 09 00
        E 2 b7 09 00
        E 2 b7 09 00
        E 2 b7 09 00
        E 2 b7 09 01
        E 2 b7 09 01
        E 2 b7 09 02
        E 2 b7 09 02
        E 2 b7 09 02
        E 2 b7 09 03
        E 2 b7 09 04
        E 2 b7 09 04
        E 2 b7 09 05
        E 2 b7 09 06
        E 2 b7 09 07
        E 2 b7 09 08
        E 2 b7 09 09
        E 2 b7 09 0a
        E 2 b7 09 0b
        E 2 b7 09 0c
        E 2 b7 09 0d
        E 2 b7 09 0e
        E 2 b7 09 0f
        E 2 b7 09 10
        E 2 b7 09 12
        E 2 b7 09 13
        E 2 b7 09 14
        E 2 b7 09 15
        E 2 b7 09 16
        E 2 b7 09 18
        E 2 b7 09 19
        E 19 b7 09 40
        E 19 b7 09 43
        E 19 b7 09 46
        E 19 b7 09 49
        E 19 b7 09 4c
        E 19 b7 09 4f
        E 19 b7 09 52
        E 19 b7 09 55
        E 19 b7 09 58
        E 19 b7 09 5b
        E 19 b7 09 5e
        E 19 b7 09 60
        E 19 b7 09 63
        E 19 b7 09 66
        E 19 b7 09 68
        E 19 b7 09 6a
        E 19 b7 09 6d
        E 19 b7 09 6f
        E 19 b7 09 71
        E 19 b7 09 73
        E 19 b7 09 75
        E 19 b7 09 76
        E 19 b7 09 78
        E 19 b7 09 79
        E 19 b7 09 7a
        E 19 b7 09 7b
        E 19 b7 09 7c
        E 19 b7 09 7d
        E 19 b7 09 7e
        E 19 b7 09 7e
        E 19 b7 09 7f
        E 19 b7 09 7f
        E 19 b7 09 7f
        E 19 b7 09 7f
        E 19 b7 09 7f
        E 19 b7 09 7e
        E 19 b7 09 7e
        E 19 b7 09 7d
        E 19 b7 09 7c
        E 19 b7 09 7b
        E 19 b7 09 7a
        E 19 b7 09 78
        E 19 b7 09 77
        E 19 b7 09 75
        E 19 b7 09 74
        E 19 b7 09 72
        E 19 b7 09 70
        E 19 b7 09 6e
        E 19 b7 09 6c
        E 19 b7 09 69
        E 19 b7 09 67
        E 19 b7 09 64
        E 19 b7 09 62
        E 19 b7 09 5f
        E 19 b7 09 5c
        E 19 b7 09 59
        E 19 b7 09 57
        E 19 b7 09 54
        E 19 b7 09 51
        E 19 b7 09 4e
        E 19 b7 09 4a
        E 19 b7 09 47
        E 19 b7 09 44
        E 19 b7 09 41
        E 19 b7 09 3e
        E 19 b7 09 3b
        E 19 b7 09 38
        E 19 b7 09 35
        E 19 b7 09 31
        E 19 b7 09 2e
        E 19 b7 09 2b
        E 19 b7 09 28
        E 19 b7 09 26
        E 19 b7 09 23
        E 19 b7 09 20
        E 19 b7 09 1d
        E 19 b7 09 1b
        E 19 b7 09 18
        E 19 b7 09 16
        E 19 b7 09 13
        E 19 b7 09 11
        E 19 b7 09 0f
        E 19 b7 09 0d
        E 19 b7 09 0b
        E 19 b7 09 0a
        E 19 b7 09 08
        E 19 b7 09 07
        E 19 b7 09 05
        E 19 b7 09 04
        E 19 b7 09 03
        E 19 b7 09 02
        E 19 b7 09 01
        E 19 b7 09 01
        E 19 b7 09 00
        E 19 b7 09 00
        E 19 b7 09 00
        E 19 b7 09 00
        E 19 b7 09 00
        E 19 b7 09 01
        E 19 b7 09 01
        E 19 b7 09 02
        E 19 b7 09 03
        E 19 b7 09 04
        E 19 b7 09 05
        E 19 b7 09 06
        E 19 b7 09 07
        E 19 b7 09 09
        E 19 b7 09 0a
        E 19 b7 09 0c
        E 19 b7 09 0e
        E 19 b7 09 10
        E 19 b7 09 12
        E 19 b7 09 15
        E 19 b7 09 17
        E 19 b7 09 19
        E 19 b7 09 1c
        E 19 b7 09 1f
        E 19 b7 09 21
        E 19 b7 09 24
        E 19 b7 09 27
        E 19 b7 09 2a
        E 19 b7 09 2d
        E 19 b7 09 30
        E 19 b7 09 33
        E 19 b7 09 36
        E 19 b7 09 39
        E 19 b7 09 3c
        E 19 b7 09 40
        E 4 b7 09 39
        E 4 b7 09 3c
        E 4 b7 09 3f
        E 4 b7 09 41
        E 4 b7 09 44
        E 4 b7 09 47
        E 4 b7 09 49
        E 4 b7 09 4c
        E 4 b7 09 4f
        E 4 b7 09 51
        E 4 b7 09 54
        E 4 b7 09 56
        E 4 b7 09 59
        E 4 b7 09 5b
        E 4 b7 09 5d
        E 4 b7 09 5f
        E 4 b7 09 62
        E 4 b7 09 63
        E 4 b7 09 65
        E 4 b7 09 67
        E 4 b7 09 69
        E 4 b7 09 6a
        E 4 b7 09 6c
        E 4 b7 09 6c
        E 4 b7 09 6d
        E 4 b7 09 6e
        E 4 b7 09 6f
        E 4 b7 09 70
        E 4 b7 09 71
        E 4 b7 09 71
        E 4 b7 09 72
        E 4 b7 09 72
        E 4 b7 09 72
        E 4 b7 09 72
        E 4 b7 09 72
        E 4 b7 09 71
        E 4 b7 09 71
        E 4 b7 09 70
        E 4 b7 09 6f
        E 4 b7 09 6e
        E 4 b7 09 6d
        E 4 b7 09 6c
        E 4 b7 09 6b
        E 4 b7 09 69
        E 4 b7 09 68
        E 4 b7 09 66
        E 4 b7 09 64
        E 4 b7 09 63
        E 4 b7 09 61
        E 4 b7 09 5e
        E 4 b7 09 5c
        E 4 b7 09 5a
        E 4 b7 09 58
        E 4 b7 09 55
        E 4 b7 09 52
        E 4 b7 09 50
        E 4 b7 09 4e
        E 4 b7 09 4b
        E 4 b7 09 48
        E 4 b7 09 46
        E 4 b7 09 42
        E 4 b7 09 3f
        E 4 b7 09 3d
        E 4 b7 09 3a
        E 4 b7 09 37
        E 4 b7 09 35
        E 4 b7 09 32
        E 4 b7 09 2f
        E 4 b7 09 2c
        E 4 b7 09 29
        E 4 b7 09 26
        E 4 b7 09 24
        E 4 b7 09 22
        E 4 b7 09 1f
        E 4 b7 09 1c
        E 4 b7 09 1a
        E 4 b7 09 18
        E 4 b7 09 15
        E 4 b7 09 13
        E 4 b7 09 11
        E 4 b7 09 0f
        E 4 b7 09 0d
        E 4 b7 09 0b
        E 4 b7 09 09
        E 4 b7 09 09
        E 4 b7 09 07
        E 4 b7 09 06
        E 4 b7 09 04
        E 4 b7 09 03
        E 4 b7 09 02
        E 4 b7 09 01
        E 4 b7 09 00
        E 4 b7 09 00
        E 4 b7 09 00
        E 4 b7 09 00
        E 4 b7 09 00
        E 4 b7 09 00
        E 4 b7 09 00
        E 4 b7 09 00
        E 4 b7 09 00
        E 4 b7 09 01
        E 4 b7 09 02
        E 4 b7 09 03
        E 4 b7 09 04
        E 4 b7 09 05
        E 4 b7 09 06
        E 4 b7 09 08
        E 4 b7 09 09
        E 4 b7 09 0a
        E 4 b7 09 0c
        E 4 b7 09 0e
        E 4 b7 09 10
        E 4 b7 09 12
        E 4 b7 09 14
        E 4 b7 09 16
        E 4 b7 09 19
        E 4 b7 09 1b
        E 4 b7 09 1d
        E 4 b7 09 20
        E 4 b7 09 23
        E 4 b7 09 25
        E 4 b7 09 28
        E 4 b7 09 2b
        E 4 b7 09 2d
        E 4 b7 09 30
        E 4 b7 09 33
        E 4 b7 09 36
        E 4 b7 09 39
        E 2 b7 09 26
        E 2 b7 09 28
        E 2 b7 09 2a
        E 2 b7 09 2b
        E 2 b7 09 2d
        E 2 b7 09 2f
        E 2 b7 09 31
        E 2 b7 09 33
        E 2 b7 09 34
        E 2 b7 09 36
        E 2 b7 09 38
        E 2 b7 09 39
        E 2 b7 09 3b
        E 2 b7 09 3d
        E 2 b7 09 3e
        E 2 b7 09 3f
        E 2 b7 09 41
        E 2 b7 09 42
        E 2 b7 09 43
        E 2 b7 09 45
        E 2 b7 09 46
        E 2 b7 09 46
        E 2 b7 09 48
        E 2 b7 09 48
        E 2 b7 09 49
        E 2 b7 09 49
        E 2 b7 09 4a
        E 2 b7 09 4b
        E 2 b7 09 4b
        E 2 b7 09 4b
        E 2 b7 09 4c
        E 2 b7 09 4c
        E 2 b7 09 4c
        E 2 b7 09 4c
        E 2 b7 09 4c
        E 2 b7 09 4b
        E 2 b7 09 4b
        E 2 b7 09 4b
        E 2 b7 09 4a
        E 2 b7 09 49
        E 2 b7 09 49
        E 2 b7 09 48
        E 2 b7 09 47
        E 2 b7 09 46
        E 2 b7 09 45
        E 2 b7 09 44
        E 2 b7 09 43
        E 2 b7 09 42
        E 2 b7 09 40
        E 2 b7 09 3f
        E 2 b7 09 3d
        E 2 b7 09 3c
        E 2 b7 09 3a
        E 2 b7 09 39
        E 2 b7 09 37
        E 2 b7 09 35
        E 2 b7 09 34
        E 2 b7 09 32
        E 2 b7 09 30
        E 2 b7 09 2e
        E 2 b7 09 2c
        E 2 b7 09 2a
        E 2 b7 09 28
        E 2 b7 09 27
        E 2 b7 09 25
        E 2 b7 09 23
        E 2 b7 09 21
        E 2 b7 09 1f
        E 2 b7 09 1d
        E 2 b7 09 1b
        E 2 b7 09 19
        E 2 b7 09 18
        E 2 b7 09 16
        E 2 b7 09 15
        E 2 b7 09 13
        E 2 b7 09 11
        E 2 b7 09 10
        E 2 b7 09 0e
        E 2 b7 09 0d
        E 2 b7 09 0b
        E 2 b7 09 0a
        E 2 b7 09 09
        E 2 b7 09 07
        E 2 b7 09 06
        E 2 b7 09 06
        E 2 b7 09 04
        E 2 b7 09 04
        E 2 b7 09 03
        E 2 b7 09 02
        E 2 b7 09 01
        E 2 b7 09 01
        E 2 b7 09 00
        E 2 b7 09 00
        E 2 b7 09 00
        E 2 b7 09 00
        E 2 b7 09 00
        E 2 b7 09 00
        E 2 b7 09 00
        E 2 b7 09 00
        E 2 b7 09 00
        E 2 b7 09 01
        E 2 b7 09 01
        E 2 b7 09 02
        E 2 b7 09 03
        E 2 b7 09 03
        E 2 b7 09 04
        E 2 b7 09 05
        E 2 b7 09 06
        E 2 b7 09 07
        E 2 b7 09 08
        E 2 b7 09 09
        E 2 b7 09 0a
        E 2 b7 09 0c
        E 2 b7 09 0d
        E 2 b7 09 0f
        E 2 b7 09 10
        E 2 b7 09 12
        E 2 b7 09 13
        E 2 b7 09 15
        E 2 b7 09 17
        E 2 b7 09 19
        E 2 b7 09 1b
        E 2 b7 09 1c
        E 2 b7 09 1e
        E 2 b7 09 20
        E 2 b7 09 22
        E 2 b7 09 24
        E 2 b7 09 26
        E 11 b7 09 0c
        E 11 b7 09 0d
        E 11 b7 09 0e
        E 11 b7 09 0e
        E 11 b7 09 0f
        E 11 b7 09 0f
        E 11 b7 09 10
        E 11 b7 09 11
        E 11 b7 09 11
        E 11 b7 09 12
        E 11 b7 09 12
        E 11 b7 09 13
        E 11 b7 09 13
        E 11 b7 09 14
        E 11 b7 09 14
        E 11 b7 09 15
        E 11 b7 09 15
        E 11 b7 09 16
        E 11 b7 09 16
        E 11 b7 09 17
        E 11 b7 09 17
        E 11 b7 09 17
        E 11 b7 09 18
        E 11 b7 09 18
        E 11 b7 09 18
        E 11 b7 09 18
        E 11 b7 09 18
        E 11 b7 09 19
        E 11 b7 09 19
        E 11 b7 09 19
        E 11 b7 09 19
        E 11 b7 09 19
        E 11 b7 09 19
        E 11 b7 09 19
        E 11 b7 09 19
        E 11 b7 09 19
        E 11 b7 09 19
        E 11 b7 09 19
        E 11 b7 09 18
        E 11 b7 09 18
        E 11 b7 09 18
        E 11 b7 09 18
        E 11 b7 09 17
        E 11 b7 09 17
        E 11 b7 09 17
        E 11 b7 09 16
        E 11 b7 09 16
        E 11 b7 09 16
        E 11 b7 09 15
        E 11 b7 09 15
        E 11 b7 09 14
        E 11 b7 09 14
        E 11 b7 09 13
        E 11 b7 09 13
        E 11 b7 09 12
        E 11 b7 09 11
        E 11 b7 09 11
        E 11 b7 09 10
        E 11 b7 09 10
        E 11 b7 09 0f
        E 11 b7 09 0e
        E 11 b7 09 0e
        E 11 b7 09 0d
        E 11 b7 09 0d
        E 11 b7 09 0c
        E 11 b7 09 0b
        E 11 b7 09 0b
        E 11 b7 09 0a
        E 11 b7 09 09
        E 11 b7 09 09
        E 11 b7 09 08
        E 11 b7 09 08
        E 11 b7 09 07
        E 11 b7 09 07
        E 11 b7 09 06
        E 11 b7 09 05
        E 11 b7 09 05
        E 11 b7 09 04
        E 11 b7 09 04
        E 11 b7 09 03
        E 11 b7 09 03
        E 11 b7 09 03
        E 11 b7 09 02
        E 11 b7 09 02
        E 11 b7 09 02
        E 11 b7 09 01
        E 11 b7 09 01
        E 11 b7 09 01
        E 11 b7 09 00
        E 11 b7 09 00
        E 11 b7 09 00
        E 11 b7 09 00
        E 11 b7 09 00
        E 11 b7 09 00
        E 11 b7 09 00
        E 11 b7 09 00
        E 11 b7 09 00
        E 11 b7 09 00
        E 11 b7 09 00
        E 11 b7 09 00
        E 11 b7 09 00
        E 11 b7 09 00
        E 11 b7 09 00
        E 11 b7 09 01
        E 11 b7 09 01
        E 11 b7 09 01
        E 11 b7 09 01
        E 11 b7 09 02
        E 11 b7 09 02
        E 11 b7 09 02
        E 11 b7 09 03
        E 11 b7 09 03
        E 11 b7 09 04
        E 11 b7 09 04
        E 11 b7 09 05
        E 11 b7 09 05
        E 11 b7 09 06
        E 11 b7 09 06
        E 11 b7 09 07
        E 11 b7 09 07
        E 11 b7 09 08
        E 11 b7 09 09
        E 11 b7 09 09
        E 11 b7 09 0a
        E 11 b7 09 0a
        E 11 b7 09 0b
        E 11 b7 09 0c
        E 11 b7 09 0c
        E 8 b7 09 2c
        E 8 b7 09 2e
        E 8 b7 09 31
        E 8 b7 09 33
        E 8 b7 09 35
        E 8 b7 09 37
        E 8 b7 09 39
        E 8 b7 09 3b
        E 8 b7 09 3d
        E 8 b7 09 3f
        E 8 b7 09 41
        E 8 b7 09 43
        E 8 b7 09 45
        E 8 b7 09 47
        E 8 b7 09 48
        E 8 b7 09 4a
        E 8 b7 09 4c
        E 8 b7 09 4d
        E 8 b7 09 4f
        E 8 b7 09 50
        E 8 b7 09 51
        E 8 b7 09 52
        E 8 b7 09 54
        E 8 b7 09 54
        E 8 b7 09 55
        E 8 b7 09 56
        E 8 b7 09 56
        E 8 b7 09 57
        E 8 b7 09 58
        E 8 b7 09 58
        E 8 b7 09 58
        E 8 b7 09 58
        E 8 b7 09 58
        E 8 b7 09 58
        E 8 b7 09 58
        E 8 b7 09 58
        E 8 b7 09 58
        E 8 b7 09 57
        E 8 b7 09 56
        E 8 b7 09 56
        E 8 b7 09 55
        E 8 b7 09 54
        E 8 b7 09 53
        E 8 b7 09 51
        E 8 b7 09 51
        E 8 b7 09 4f
        E 8 b7 09 4e
        E 8 b7 09 4d
        E 8 b7 09 4b
        E 8 b7 09 49
        E 8 b7 09 48
        E 8 b7 09 46
        E 8 b7 09 44
        E 8 b7 09 42
        E 8 b7 09 40
        E 8 b7 09 3e
        E 8 b7 09 3c
        E 8 b7 09 3a
        E 8 b7 09 38
        E 8 b7 09 36
        E 8 b7 09 33
        E 8 b7 09 31
        E 8 b7 09 2f
        E 8 b7 09 2d
        E 8 b7 09 2b
        E 8 b7 09 29
        E 8 b7 09 27
        E 8 b7 09 25
        E 8 b7 09 22
        E 8 b7 09 20
        E 8 b7 09 1e
        E 8 b7 09 1c
        E 8 b7 09 1a
        E 8 b7 09 18
        E 8 b7 09 16
        E 8 b7 09 14
        E 8 b7 09 12
        E 8 b7 09 10
        E 8 b7 09 0f
        E 8 b7 09 0d
        E 8 b7 09 0b
        E 8 b7 09 0a
        E 8 b7 09 09
        E 8 b7 09 07
        E 8 b7 09 07
        E 8 b7 09 05
        E 8 b7 09 04
        E 8 b7 09 03
        E 8 b7 09 02
        E 8 b7 09 02
        E 8 b7 09 01
        E 8 b7 09 00
        E 8 b7 09 00
        E 8 b7 09 00
        E 8 b7 09 00
        E 8 b7 09 00
        E 8 b7 09 00
        E 8 b7 09 00
        E 8 b7 09 00
        E 8 b7 09 00
        E 8 b7 09 01
        E 8 b7 09 02
        E 8 b7 09 02
        E 8 b7 09 03
        E 8 b7 09 04
        E 8 b7 09 04
        E 8 b7 09 06
        E 8 b7 09 07
        E 8 b7 09 08
        E 8 b7 09 09
        E 8 b7 09 0b
        E 8 b7 09 0c
        E 8 b7 09 0e
        E 8 b7 09 10
        E 8 b7 09 11
        E 8 b7 09 13
        E 8 b7 09 15
        E 8 b7 09 17
        E 8 b7 09 19
        E 8 b7 09 1b
        E 8 b7 09 1d
        E 8 b7 09 1f
        E 8 b7 09 21
        E 8 b7 09 23
        E 8 b7 09 25
        E 8 b7 09 27
        E 8 b7 09 2a
        E 8 b7 09 2c
        E 3 b7 09 19
        E 3 b7 09 56
        E 3 b7 09 38
        E 3 b7 09 09
        E 3 b7 09 51
        E 3 b7 09 48
        E 3 b7 09 0a
        E 3 b7 09 09
        E 3 b7 09 36
        E 3 b7 09 6c
        E 3 b7 09 5a
        E 3 b7 09 63
        E 3 b7 09 47
        E 3 b7 09 0c
        E 3 b7 09 15
        E 3 b7 09 4d
        E 3 b7 09 3f
        E 3 b7 09 20
        E 3 b7 09 16
        E 3 b7 09 1e
        E 3 b7 09 59
        E 3 b7 09 35
        E 3 b7 09 1b
        E 3 b7 09 41
        E 3 b7 09 71
        E 3 b7 09 00
        E 3 b7 09 0e
        E 3 b7 09 2e
        E 3 b7 09 26
        E 3 b7 09 5d
        E 3 b7 09 18
        E 3 b7 09 07
        E 3 b7 09 12
        E 3 b7 09 13
        E 3 b7 09 67
        E 3 b7 09 1c
        E 3 b7 09 00
        E 3 b7 09 54
        E 3 b7 09 27
        E 3 b7 09 17
        E 3 b7 09 2d
        E 3 b7 09 1d
        E 3 b7 09 61
        E 3 b7 09 60
        E 3 b7 09 72
        E 3 b7 09 5f
        E 3 b7 09 31
        E 3 b7 09 6a
        E 3 b7 09 51
        E 3 b7 09 0d
        E 3 b7 09 32
        E 3 b7 09 3d
        E 3 b7 09 6c
        E 3 b7 09 57
        E 3 b7 09 3e
        E 3 b7 09 3f
        E 3 b7 09 05
        E 3 b7 09 0b
        E 3 b7 09 69
        E 3 b7 09 5b
        E 3 b7 09 30
        E 3 b7 09 24
        E 3 b7 09 0f
        E 3 b7 09 33
        E 3 b7 09 22
        E 3 b7 09 1b
        E 3 b7 09 2b
        E 3 b7 09 3b
        E 3 b7 09 45
        E 3 b7 09 49
        E 3 b7 09 12
        E 3 b7 09 44
        E 3 b7 09 65
        E 3 b7 09 3a
        E 3 b7 09 42
        E 3 b7 09 02
        E 3 b7 09 08
        E 3 b7 09 70
        E 3 b7 09 4a
        E 3 b7 09 14
        E 3 b7 09 68
        E 3 b7 09 24
        E 3 b7 09 2c
        E 3 b7 09 37
        E 3 b7 09 2d
        E 3 b7 09 4c
        E 3 b7 09 5c
        E 3 b7 09 21
        E 3 b7 09 40
        E 3 b7 09 1a
        E 3 b7 09 66
        E 3 b7 09 5e
        E 3 b7 09 34
        E 3 b7 09 29
        E 3 b7 09 5a
        E 3 b7 09 2a
        E 3 b7 09 50
        E 3 b7 09 10
        E 3 b7 09 01
        E 3 b7 09 25
        E 3 b7 09 39
        E 3 b7 09 62
        E 3 b7 09 58
        E 3 b7 09 03
        E 3 b7 09 63
        E 3 b7 09 53
        E 3 b7 09 06
        E 3 b7 09 23
        E 3 b7 09 43
        E 3 b7 09 55
        E 3 b7 09 6d
        E 3 b7 09 46
        E 3 b7 09 2f
        E 3 b7 09 1f
        E 3 b7 09 4f
        E 3 b7 09 52
        E 3 b7 09 64
        E 3 b7 09 6f
        E 3 b7 09 36
        E 3 b7 09 48
        E 3 b7 09 4e
        E 3 b7 09 3c
        E 3 b7 09 6b
        E 3 b7 09 11
        E 3 b7 09 28
        E 3 b7 09 4b
        E 1 b7 09 10
        E 1 b7 09 39
        E 1 b7 09 25
        E 1 b7 09 06
        E 1 b7 09 36
        E 1 b7 09 30
        E 1 b7 09 07
        E 1 b7 09 06
        E 1 b7 09 24
        E 1 b7 09 48
        E 1 b7 09 3c
        E 1 b7 09 42
        E 1 b7 09 2f
        E 1 b7 09 08
        E 1 b7 09 0e
        E 1 b7 09 33
        E 1 b7 09 2a
        E 1 b7 09 15
        E 1 b7 09 0f
        E 1 b7 09 14
        E 1 b7 09 3b
        E 1 b7 09 23
        E 1 b7 09 12
        E 1 b7 09 2b
        E 1 b7 09 4b
        E 1 b7 09 00
        E 1 b7 09 09
        E 1 b7 09 1f
        E 1 b7 09 19
        E 1 b7 09 3e
        E 1 b7 09 10
        E 1 b7 09 04
        E 1 b7 09 0c
        E 1 b7 09 0d
        E 1 b7 09 45
        E 1 b7 09 13
        E 1 b7 09 00
        E 1 b7 09 38
        E 1 b7 09 1a
        E 1 b7 09 0f
        E 1 b7 09 1e
        E 1 b7 09 13
        E 1 b7 09 40
        E 1 b7 09 40
        E 1 b7 09 4c
        E 1 b7 09 3f
        E 1 b7 09 21
        E 1 b7 09 46
        E 1 b7 09 36
        E 1 b7 09 09
        E 1 b7 09 21
        E 1 b7 09 28
        E 1 b7 09 48
        E 1 b7 09 3a
        E 1 b7 09 29
        E 1 b7 09 2a
        E 1 b7 09 03
        E 1 b7 09 07
        E 1 b7 09 46
        E 1 b7 09 3d
        E 1 b7 09 20
        E 1 b7 09 18
        E 1 b7 09 0a
        E 1 b7 09 22
        E 1 b7 09 16
        E 1 b7 09 12
        E 1 b7 09 1c
        E 1 b7 09 27
        E 1 b7 09 2e
        E 1 b7 09 31
        E 1 b7 09 0c
        E 1 b7 09 2d
        E 1 b7 09 43
        E 1 b7 09 27
        E 1 b7 09 2c
        E 1 b7 09 01
        E 1 b7 09 05
        E 1 b7 09 4b
        E 1 b7 09 31
        E 1 b7 09 0d
        E 1 b7 09 45
        E 1 b7 09 18
        E 1 b7 09 1d
        E 1 b7 09 25
        E 1 b7 09 1e
        E 1 b7 09 33
        E 1 b7 09 3d
        E 1 b7 09 16
        E 1 b7 09 2b
        E 1 b7 09 11
        E 1 b7 09 44
        E 1 b7 09 3f
        E 1 b7 09 22
        E 1 b7 09 1b
        E 1 b7 09 3c
        E 1 b7 09 1c
        E 1 b7 09 35
        E 1 b7 09 0a
        E 1 b7 09 01
        E 1 b7 09 19
        E 1 b7 09 26
        E 1 b7 09 41
        E 1 b7 09 3a
        E 1 b7 09 02
        E 1 b7 09 42
        E 1 b7 09 37
        E 1 b7 09 04
        E 1 b7 09 17
        E 1 b7 09 2d
        E 1 b7 09 39
        E 1 b7 09 49
        E 1 b7 09 2e
        E 1 b7 09 1f
        E 1 b7 09 15
        E 1 b7 09 34
        E 1 b7 09 37
        E 1 b7 09 43
        E 1 b7 09 4a
        E 1 b7 09 24
        E 1 b7 09 30
        E 1 b7 09 34
        E 1 b7 09 28
        E 1 b7 09 47
        E 1 b7 09 0b
        E 1 b7 09 1b
        E 1 b7 09 32
        E 8 b7 09 05
        E 8 b7 09 13
        E 8 b7 09 0c
        E 8 b7 09 02
        E 8 b7 09 12
        E 8 b7 09 10
        E 8 b7 09 02
        E 8 b7 09 02
        E 8 b7 09 0c
        E 8 b7 09 18
        E 8 b7 09 14
        E 8 b7 09 16
        E 8 b7 09 0f
        E 8 b7 09 02
        E 8 b7 09 04
        E 8 b7 09 11
        E 8 b7 09 0e
        E 8 b7 09 07
        E 8 b7 09 05
        E 8 b7 09 06
        E 8 b7 09 13
        E 8 b7 09 0b
        E 8 b7 09 06
        E 8 b7 09 0e
        E 8 b7 09 19
        E 8 b7 09 00
        E 8 b7 09 03
        E 8 b7 09 0a
        E 8 b7 09 08
        E 8 b7 09 14
        E 8 b7 09 05
        E 8 b7 09 01
        E 8 b7 09 04
        E 8 b7 09 04
        E 8 b7 09 17
        E 8 b7 09 06
        E 8 b7 09 00
        E 8 b7 09 12
        E 8 b7 09 08
        E 8 b7 09 05
        E 8 b7 09 0a
        E 8 b7 09 06
        E 8 b7 09 15
        E 8 b7 09 15
        E 8 b7 09 19
        E 8 b7 09 15
        E 8 b7 09 0b
        E 8 b7 09 17
        E 8 b7 09 12
        E 8 b7 09 03
        E 8 b7 09 0b
        E 8 b7 09 0d
        E 8 b7 09 18
        E 8 b7 09 13
        E 8 b7 09 0d
        E 8 b7 09 0e
        E 8 b7 09 01
        E 8 b7 09 02
        E 8 b7 09 17
        E 8 b7 09 14
        E 8 b7 09 0a
        E 8 b7 09 08
        E 8 b7 09 03
        E 8 b7 09 0b
        E 8 b7 09 07
        E 8 b7 09 06
        E 8 b7 09 09
        E 8 b7 09 0d
        E 8 b7 09 0f
        E 8 b7 09 10
        E 8 b7 09 04
        E 8 b7 09 0f
        E 8 b7 09 16
        E 8 b7 09 0d
        E 8 b7 09 0e
        E 8 b7 09 00
        E 8 b7 09 01
        E 8 b7 09 19
        E 8 b7 09 10
        E 8 b7 09 04
        E 8 b7 09 17
        E 8 b7 09 08
        E 8 b7 09 09
        E 8 b7 09 0c
        E 8 b7 09 0a
        E 8 b7 09 11
        E 8 b7 09 14
        E 8 b7 09 07
        E 8 b7 09 0e
        E 8 b7 09 05
        E 8 b7 09 16
        E 8 b7 09 15
        E 8 b7 09 0b
        E 8 b7 09 09
        E 8 b7 09 14
        E 8 b7 09 09
        E 8 b7 09 11
        E 8 b7 09 03
        E 8 b7 09 00
        E 8 b7 09 08
        E 8 b7 09 0c
        E 8 b7 09 15
        E 8 b7 09 13
        E 8 b7 09 00
        E 8 b7 09 16
        E 8 b7 09 12
        E 8 b7 09 01
        E 8 b7 09 07
        E 8 b7 09 0f
        E 8 b7 09 13
        E 8 b7 09 18
        E 8 b7 09 0f
        E 8 b7 09 0a
        E 8 b7 09 07
        E 8 b7 09 11
        E 8 b7 09 12
        E 8 b7 09 16
        E 8 b7 09 18
        E 8 b7 09 0c
        E 8 b7 09 10
        E 8 b7 09 11
        E 8 b7 09 0d
        E 8 b7 09 17
        E 8 b7 09 03
        E 8 b7 09 09
        E 8 b7 09 10
        E 6 b7 09 13
        E 6 b7 09 43
        E 6 b7 09 2c
        E 6 b7 09 07
        E 6 b7 09 3e
        E 6 b7 09 38
        E 6 b7 09 08
        E 6 b7 09 07
        E 6 b7 09 2a
        E 6 b7 09 54
        E 6 b7 09 46
        E 6 b7 09 4d
        E 6 b7 09 37
        E 6 b7 09 09
        E 6 b7 09 10
        E 6 b7 09 3c
        E 6 b7 09 31
        E 6 b7 09 19
        E 6 b7 09 11
        E 6 b7 09 17
        E 6 b7 09 45
        E 6 b7 09 29
        E 6 b7 09 15
        E 6 b7 09 33
        E 6 b7 09 58
        E 6 b7 09 00
        E 6 b7 09 0b
        E 6 b7 09 24
        E 6 b7 09 1e
        E 6 b7 09 48
        E 6 b7 09 12
        E 6 b7 09 05
        E 6 b7 09 0e
        E 6 b7 09 0f
        E 6 b7 09 50
        E 6 b7 09 16
        E 6 b7 09 00
        E 6 b7 09 41
        E 6 b7 09 1e
        E 6 b7 09 12
        E 6 b7 09 23
        E 6 b7 09 17
        E 6 b7 09 4b
        E 6 b7 09 4a
        E 6 b7 09 58
        E 6 b7 09 4a
        E 6 b7 09 26
        E 6 b7 09 52
        E 6 b7 09 3f
        E 6 b7 09 0a
        E 6 b7 09 27
        E 6 b7 09 2f
        E 6 b7 09 54
        E 6 b7 09 43
        E 6 b7 09 30
        E 6 b7 09 31
        E 6 b7 09 04
        E 6 b7 09 09
        E 6 b7 09 51
        E 6 b7 09 47
        E 6 b7 09 25
        E 6 b7 09 1c
        E 6 b7 09 0b
        E 6 b7 09 27
        E 6 b7 09 1a
        E 6 b7 09 15
        E 6 b7 09 21
        E 6 b7 09 2e
        E 6 b7 09 35
        E 6 b7 09 39
        E 6 b7 09 0e
        E 6 b7 09 35
        E 6 b7 09 4f
        E 6 b7 09 2d
        E 6 b7 09 33
        E 6 b7 09 02
        E 6 b7 09 06
        E 6 b7 09 57
        E 6 b7 09 3a
        E 6 b7 09 10
        E 6 b7 09 51
        E 6 b7 09 1c
        E 6 b7 09 22
        E 6 b7 09 2b
        E 6 b7 09 23
        E 6 b7 09 3b
        E 6 b7 09 48
        E 6 b7 09 19
        E 6 b7 09 32
        E 6 b7 09 14
        E 6 b7 09 4f
        E 6 b7 09 49
        E 6 b7 09 28
        E 6 b7 09 20
        E 6 b7 09 46
        E 6 b7 09 20
        E 6 b7 09 3e
        E 6 b7 09 0c
        E 6 b7 09 01
        E 6 b7 09 1d
        E 6 b7 09 2c
        E 6 b7 09 4c
        E 6 b7 09 44
        E 6 b7 09 02
        E 6 b7 09 4d
        E 6 b7 09 41
        E 6 b7 09 04
        E 6 b7 09 1b
        E 6 b7 09 34
        E 6 b7 09 42
        E 6 b7 09 55
        E 6 b7 09 36
        E 6 b7 09 25
        E 6 b7 09 18
        E 6 b7 09 3d
        E 6 b7 09 40
        E 6 b7 09 4e
        E 6 b7 09 56
        E 6 b7 09 2a
        E 6 b7 09 38
        E 6 b7 09 3c
        E 6 b7 09 2e
        E 6 b7 09 53
        E 6 b7 09 0d
        E 6 b7 09 1f
        E 6 b7 09 3a
        E 1 b7 09 0b
        E 1 b7 09 26
        E 1 b7 09 19
        E 1 b7 09 04
        E 1 b7 09 24
        E 1 b7 09 20
        E 1 b7 09 04
        E 1 b7 09 04
        E 1 b7 09 18
        E 1 b7 09 30
        E 1 b7 09 28
        E 1 b7 09 2c
        E 1 b7 09 1f
        E 1 b7 09 05
        E 1 b7 09 09
        E 1 b7 09 22
        E 1 b7 09 1c
        E 1 b7 09 0e
        E 1 b7 09 0a
        E 1 b7 09 0d
        E 1 b7 09 27
        E 1 b7 09 17
        E 1 b7 09 0c
        E 1 b7 09 1d
        E 1 b7 09 32
        E 1 b7 09 00
        E 1 b7 09 06
        E 1 b7 09 14
        E 1 b7 09 11
        E 1 b7 09 29
        E 1 b7 09 0a
        E 1 b7 09 03
        E 1 b7 09 08
        E 1 b7 09 08
        E 1 b7 09 2e
        E 1 b7 09 0c
        E 1 b7 09 00
        E 1 b7 09 25
        E 1 b7 09 11
        E 1 b7 09 0a
        E 1 b7 09 14
        E 1 b7 09 0d
        E 1 b7 09 2b
        E 1 b7 09 2a
        E 1 b7 09 32
        E 1 b7 09 2a
        E 1 b7 09 16
        E 1 b7 09 2f
        E 1 b7 09 24
        E 1 b7 09 06
        E 1 b7 09 16
        E 1 b7 09 1b
        E 1 b7 09 30
        E 1 b7 09 26
        E 1 b7 09 1b
        E 1 b7 09 1c
        E 1 b7 09 02
        E 1 b7 09 05
        E 1 b7 09 2e
        E 1 b7 09 28
        E 1 b7 09 15
        E 1 b7 09 10
        E 1 b7 09 06
        E 1 b7 09 16
        E 1 b7 09 0f
        E 1 b7 09 0c
        E 1 b7 09 13
        E 1 b7 09 1a
        E 1 b7 09 1e
        E 1 b7 09 20
        E 1 b7 09 08
        E 1 b7 09 1e
        E 1 b7 09 2d
        E 1 b7 09 1a
        E 1 b7 09 1d
        E 1 b7 09 01
        E 1 b7 09 03
        E 1 b7 09 32
        E 1 b7 09 21
        E 1 b7 09 09
        E 1 b7 09 2e
        E 1 b7 09 10
        E 1 b7 09 13
        E 1 b7 09 18
        E 1 b7 09 14
        E 1 b7 09 22
        E 1 b7 09 29
        E 1 b7 09 0e
        E 1 b7 09 1c
        E 1 b7 09 0b
        E 1 b7 09 2d
        E 1 b7 09 2a
        E 1 b7 09 17
        E 1 b7 09 12
        E 1 b7 09 28
        E 1 b7 09 12
        E 1 b7 09 23
        E 1 b7 09 07
        E 1 b7 09 00
        E 1 b7 09 10
        E 1 b7 09 19
        E 1 b7 09 2b
        E 1 b7 09 27
        E 1 b7 09 01
        E 1 b7 09 2c
        E 1 b7 09 25
        E 1 b7 09 02
        E 1 b7 09 0f
        E 1 b7 09 1e
        E 1 b7 09 26
        E 1 b7 09 30
        E 1 b7 09 1f
        E 1 b7 09 15
        E 1 b7 09 0e
        E 1 b7 09 23
        E 1 b7 09 24
        E 1 b7 09 2c
        E 1 b7 09 31
        E 1 b7 09 18
        E 1 b7 09 20
        E 1 b7 09 22
        E 1 b7 09 1a
        E 1 b7 09 2f
        E 1 b7 09 07
        E 1 b7 09 12
        E 1 b7 09 21
        E 15 b7 09 1c
        E 15 b7 09 60
        E 15 b7 09 3f
        E 15 b7 09 0a
        E 15 b7 09 5a
        E 15 b7 09 50
        E 15 b7 09 0c
        E 15 b7 09 0b
        E 15 b7 09 3d
        E 15 b7 09 78
        E 15 b7 09 65
        E 15 b7 09 6f
        E 15 b7 09 4f
        E 15 b7 09 0e
        E 15 b7 09 18
        E 15 b7 09 56
        E 15 b7 09 46
        E 15 b7 09 24
        E 15 b7 09 19
        E 15 b7 09 22
        E 15 b7 09 63
        E 15 b7 09 3b
        E 15 b7 09 1e
        E 15 b7 09 49
        E 15 b7 09 7e
        E 15 b7 09 00
        E 15 b7 09 10
        E 15 b7 09 34
        E 15 b7 09 2b
        E 15 b7 09 68
        E 15 b7 09 1b
        E 15 b7 09 08
        E 15 b7 09 14
        E 15 b7 09 16
        E 15 b7 09 73
        E 15 b7 09 20
        E 15 b7 09 01
        E 15 b7 09 5e
        E 15 b7 09 2c
        E 15 b7 09 1a
        E 15 b7 09 32
        E 15 b7 09 21
        E 15 b7 09 6c
        E 15 b7 09 6b
        E 15 b7 09 7f
        E 15 b7 09 6a
        E 15 b7 09 37
        E 15 b7 09 76
        E 15 b7 09 5b
        E 15 b7 09 0f
        E 15 b7 09 38
        E 15 b7 09 44
        E 15 b7 09 79
        E 15 b7 09 61
        E 15 b7 09 45
        E 15 b7 09 47
        E 15 b7 09 06
        E 15 b7 09 0d
        E 15 b7 09 75
        E 15 b7 09 66
        E 15 b7 09 36
        E 15 b7 09 28
        E 15 b7 09 11
        E 15 b7 09 39
        E 15 b7 09 26
        E 15 b7 09 1f
        E 15 b7 09 30
        E 15 b7 09 42
        E 15 b7 09 4d
        E 15 b7 09 52
        E 15 b7 09 15
        E 15 b7 09 4c
        E 15 b7 09 71
        E 15 b7 09 41
        E 15 b7 09 4a
        E 15 b7 09 03
        E 15 b7 09 09
        E 15 b7 09 7d
        E 15 b7 09 53
        E 15 b7 09 17
        E 15 b7 09 74
        E 15 b7 09 29
        E 15 b7 09 31
        E 15 b7 09 3e
        E 15 b7 09 33
        E 15 b7 09 55
        E 15 b7 09 67
        E 15 b7 09 25
        E 15 b7 09 48
        E 15 b7 09 1d
        E 15 b7 09 72
        E 15 b7 09 69
        E 15 b7 09 3a
        E 15 b7 09 2e
        E 15 b7 09 64
        E 15 b7 09 2f
        E 15 b7 09 59
        E 15 b7 09 12
        E 15 b7 09 02
        E 15 b7 09 2a
        E 15 b7 09 40
        E 15 b7 09 6d
        E 15 b7 09 62
        E 15 b7 09 04
        E 15 b7 09 6e
        E 15 b7 09 5d
        E 15 b7 09 07
        E 15 b7 09 27
        E 15 b7 09 4b
        E 15 b7 09 5f
        E 15 b7 09 7a
        E 15 b7 09 4e
        E 15 b7 09 35
        E 15 b7 09 23
        E 15 b7 09 58
        E 15 b7 09 5c
        E 15 b7 09 70
        E 15 b7 09 7c
        E 15 b7 09 3c
        E 15 b7 09 51
        E 15 b7 09 57
        E 15 b7 09 43
        E 15 b7 09 77
        E 15 b7 09 13
        E 15 b7 09 2d
        E 15 b7 09 54
        E 3 b7 09 19
        E 3 b7 09 56
        E 3 b7 09 38
        E 3 b7 09 09
        E 3 b7 09 51
        E 3 b7 09 48
        E 3 b7 09 0a
        E 3 b7 09 09
        E 3 b7 09 36
        E 3 b7 09 6c
        E 3 b7 09 5a
        E 3 b7 09 63
        E 3 b7 09 47
        E 3 b7 09 0c
        E 3 b7 09 15
        E 3 b7 09 4d
        E 3 b7 09 3f
        E 3 b7 09 20
        E 3 b7 09 16
        E 3 b7 09 1e
        E 3 b7 09 59
        E 3 b7 09 35
        E 3 b7 09 1b
        E 3 b7 09 41
        E 3 b7 09 71
        E 3 b7 09 00
        E 3 b7 09 0e
        E 3 b7 09 2e
        E 3 b7 09 26
        E 3 b7 09 5d
        E 3 b7 09 18
        E 3 b7 09 07
        E 3 b7 09 12
        E 3 b7 09 13
        E 3 b7 09 67
        E 3 b7 09 1c
        E 3 b7 09 00
        E 3 b7 09 54
        E 3 b7 09 27
        E 3 b7 09 17
        E 3 b7 09 2d
        E 3 b7 09 1d
        E 3 b7 09 61
        E 3 b7 09 60
        E 3 b7 09 72
        E 3 b7 09 5f
        E 3 b7 09 31
        E 3 b7 09 6a
        E 3 b7 09 51
        E 3 b7 09 0d
        E 3 b7 09 32
        E 3 b7 09 3d
        E 3 b7 09 6c
        E 3 b7 09 57
        E 3 b7 09 3e
        E 3 b7 09 3f
        E 3 b7 09 05
        E 3 b7 09 0b
        E 3 b7 09 69
        E 3 b7 09 5b
        E 3 b7 09 30
        E 3 b7 09 24
        E 3 b7 09 0f
        E 3 b7 09 33
        E 3 b7 09 22
        E 3 b7 09 1b
        E 3 b7 09 2b
        E 3 b7 09 3b
        E 3 b7 09 45
        E 3 b7 09 49
        E 3 b7 09 12
        E 3 b7 09 44
        E 3 b7 09 65
        E 3 b7 09 3a
        E 3 b7 09 42
        E 3 b7 09 02
        E 3 b7 09 08
        E 3 b7 09 70
        E 3 b7 09 4a
        E 3 b7 09 14
        E 3 b7 09 68
        E 3 b7 09 24
        E 3 b7 09 2c
        E 3 b7 09 37
        E 3 b7 09 2d
        E 3 b7 09 4c
        E 3 b7 09 5c
        E 3 b7 09 21
        E 3 b7 09 40
        E 3 b7 09 1a
        E 3 b7 09 66
        E 3 b7 09 5e
        E 3 b7 09 34
        E 3 b7 09 29
        E 3 b7 09 5a
        E 3 b7 09 2a
        E 3 b7 09 50
        E 3 b7 09 10
        E 3 b7 09 01
        E 3 b7 09 25
        E 3 b7 09 39
        E 3 b7 09 62
        E 3 b7 09 58
        E 3 b7 09 03
        E 3 b7 09 63
        E 3 b7 09 53
        E 3 b7 09 06
        E 3 b7 09 23
        E 3 b7 09 43
        E 3 b7 09 55
        E 3 b7 09 6d
        E 3 b7 09 46
        E 3 b7 09 2f
        E 3 b7 09 1f
        E 3 b7 09 4f
        E 3 b7 09 52
        E 3 b7 09 64
        E 3 b7 09 6f
        E 3 b7 09 36
        E 3 b7 09 48
        E 3 b7 09 4e
        E 3 b7 09 3c
        E 3 b7 09 6b
        E 3 b7 09 11
        E 3 b7 09 28
        E 3 b7 09 4b
        E 1 b7 09 10
        E 1 b7 09 39
        E 1 b7 09 25
        E 1 b7 09 06
        E 1 b7 09 36
        E 1 b7 09 30
        E 1 b7 09 07
        E 1 b7 09 06
        E 1 b7 09 24
        E 1 b7 09 48
        E 1 b7 09 3c
        E 1 b7 09 42
        E 1 b7 09 2f
        E 1 b7 09 08
        E 1 b7 09 0e
        E 1 b7 09 33
        E 1 b7 09 2a
        E 1 b7 09 15
        E 1 b7 09 0f
        E 1 b7 09 14
        E 1 b7 09 3b
        E 1 b7 09 23
        E 1 b7 09 12
        E 1 b7 09 2b
        E 1 b7 09 4b
        E 1 b7 09 00
        E 1 b7 09 09
        E 1 b7 09 1f
        E 1 b7 09 19
        E 1 b7 09 3e
        E 1 b7 09 10
        E 1 b7 09 04
        E 1 b7 09 0c
        E 1 b7 09 0d
        E 1 b7 09 45
        E 1 b7 09 13
        E 1 b7 09 00
        E 1 b7 09 38
        E 1 b7 09 1a
        E 1 b7 09 0f
        E 1 b7 09 1e
        E 1 b7 09 13
        E 1 b7 09 40
        E 1 b7 09 40
        E 1 b7 09 4c
        E 1 b7 09 3f
        E 1 b7 09 21
        E 1 b7 09 46
        E 1 b7 09 36
        E 1 b7 09 09
        E 1 b7 09 21
        E 1 b7 09 28
        E 1 b7 09 48
        E 1 b7 09 3a
        E 1 b7 09 29
        E 1 b7 09 2a
        E 1 b7 09 03
        E 1 b7 09 07
        E 1 b7 09 46
        E 1 b7 09 3d
        E 1 b7 09 20
        E 1 b7 09 18
        E 1 b7 09 0a
        E 1 b7 09 22
        E 1 b7 09 16
        E 1 b7 09 12
        E 1 b7 09 1c
        E 1 b7 09 27
        E 1 b7 09 2e
        E 1 b7 09 31
        E 1 b7 09 0c
        E 1 b7 09 2d
        E 1 b7 09 43
        E 1 b7 09 27
        E 1 b7 09 2c
        E 1 b7 09 01
        E 1 b7 09 05
        E 1 b7 09 4b
        E 1 b7 09 31
        E 1 b7 09 0d
        E 1 b7 09 45
        E 1 b7 09 18
        E 1 b7 09 1d
        E 1 b7 09 25
        E 1 b7 09 1e
        E 1 b7 09 33
        E 1 b7 09 3d
        E 1 b7 09 16
        E 1 b7 09 2b
        E 1 b7 09 11
        E 1 b7 09 44
        E 1 b7 09 3f
        E 1 b7 09 22
        E 1 b7 09 1b
        E 1 b7 09 3c
        E 1 b7 09 1c
        E 1 b7 09 35
        E 1 b7 09 0a
        E 1 b7 09 01
        E 1 b7 09 19
        E 1 b7 09 26
        E 1 b7 09 41
        E 1 b7 09 3a
        E 1 b7 09 02
        E 1 b7 09 42
        E 1 b7 09 37
        E 1 b7 09 04
        E 1 b7 09 17
        E 1 b7 09 2d
        E 1 b7 09 39
        E 1 b7 09 49
        E 1 b7 09 2e
        E 1 b7 09 1f
        E 1 b7 09 15
        E 1 b7 09 34
        E 1 b7 09 37
        E 1 b7 09 43
        E 1 b7 09 4a
        E 1 b7 09 24
        E 1 b7 09 30
        E 1 b7 09 34
        E 1 b7 09 28
        E 1 b7 09 47
        E 1 b7 09 0b
        E 1 b7 09 1b
        E 1 b7 09 32
        E 8 b7 09 05
        E 8 b7 09 13
        E 8 b7 09 0c
        E 8 b7 09 02
        E 8 b7 09 12
        E 8 b7 09 10
        E 8 b7 09 02
        E 8 b7 09 02
        E 8 b7 09 0c
        E 8 b7 09 18
        E 8 b7 09 14
        E 8 b7 09 16
        E 8 b7 09 0f
        E 8 b7 09 02
        E 8 b7 09 04
        E 8 b7 09 11
        E 8 b7 09 0e
        E 8 b7 09 07
        E 8 b7 09 05
        E 8 b7 09 06
        E 8 b7 09 13
        E 8 b7 09 0b
        E 8 b7 09 06
        E 8 b7 09 0e
        E 8 b7 09 19
        E 8 b7 09 00
        E 8 b7 09 03
        E 8 b7 09 0a
        E 8 b7 09 08
        E 8 b7 09 14
        E 8 b7 09 05
        E 8 b7 09 01
        E 8 b7 09 04
        E 8 b7 09 04
        E 8 b7 09 17
        E 8 b7 09 06
        E 8 b7 09 00
        E 8 b7 09 12
        E 8 b7 09 08
        E 8 b7 09 05
        E 8 b7 09 0a
        E 8 b7 09 06
        E 8 b7 09 15
        E 8 b7 09 15
        E 8 b7 09 19
        E 8 b7 09 15
        E 8 b7 09 0b
        E 8 b7 09 17
        E 8 b7 09 12
        E 8 b7 09 03
        E 8 b7 09 0b
        E 8 b7 09 0d
        E 8 b7 09 18
        E 8 b7 09 13
        E 8 b7 09 0d
        E 8 b7 09 0e
        E 8 b7 09 01
        E 8 b7 09 02
        E 8 b7 09 17
        E 8 b7 09 14
        E 8 b7 09 0a
        E 8 b7 09 08
        E 8 b7 09 03
        E 8 b7 09 0b
        E 8 b7 09 07
        E 8 b7 09 06
        E 8 b7 09 09
        E 8 b7 09 0d
        E 8 b7 09 0f
        E 8 b7 09 10
        E 8 b7 09 04
        E 8 b7 09 0f
        E 8 b7 09 16
        E 8 b7 09 0d
        E 8 b7 09 0e
        E 8 b7 09 00
        E 8 b7 09 01
        E 8 b7 09 19
        E 8 b7 09 10
        E 8 b7 09 04
        E 8 b7 09 17
        E 8 b7 09 08
        E 8 b7 09 09
        E 8 b7 09 0c
        E 8 b7 09 0a
        E 8 b7 09 11
        E 8 b7 09 14
        E 8 b7 09 07
        E 8 b7 09 0e
        E 8 b7 09 05
        E 8 b7 09 16
        E 8 b7 09 15
        E 8 b7 09 0b
        E 8 b7 09 09
        E 8 b7 09 14
        E 8 b7 09 09
        E 8 b7 09 11
        E 8 b7 09 03
        E 8 b7 09 00
        E 8 b7 09 08
        E 8 b7 09 0c
        E 8 b7 09 15
        E 8 b7 09 13
        E 8 b7 09 00
        E 8 b7 09 16
        E 8 b7 09 12
        E 8 b7 09 01
        E 8 b7 09 07
        E 8 b7 09 0f
        E 8 b7 09 13
        E 8 b7 09 18
        E 8 b7 09 0f
        E 8 b7 09 0a
        E 8 b7 09 07
        E 8 b7 09 11
        E 8 b7 09 12
        E 8 b7 09 16
        E 8 b7 09 18
        E 8 b7 09 0c
        E 8 b7 09 10
        E 8 b7 09 11
        E 8 b7 09 0d
        E 8 b7 09 17
        E 8 b7 09 03
        E 8 b7 09 09
        E 8 b7 09 10
        E 6 b7 09 13
        E 6 b7 09 43
        E 6 b7 09 2c
        E 6 b7 09 07
        E 6 b7 09 3e
        E 6 b7 09 38
        E 6 b7 09 08
        E 6 b7 09 07
        E 6 b7 09 2a
        E 6 b7 09 54
        E 6 b7 09 46
        E 6 b7 09 4d
        E 6 b7 09 37
        E 6 b7 09 09
        E 6 b7 09 10
        E 6 b7 09 3c
        E 6 b7 09 31
        E 6 b7 09 19
        E 6 b7 09 11
        E 6 b7 09 17
        E 6 b7 09 45
        E 6 b7 09 29
        E 6 b7 09 15
        E 6 b7 09 33
        E 6 b7 09 58
        E 6 b7 09 00
        E 6 b7 09 0b
        E 6 b7 09 24
        E 6 b7 09 1e
        E 6 b7 09 48
        E 6 b7 09 12
        E 6 b7 09 05
        E 6 b7 09 0e
        E 6 b7 09 0f
        E 6 b7 09 50
        E 6 b7 09 16
        E 6 b7 09 00
        E 6 b7 09 41
        E 6 b7 09 1e
        E 6 b7 09 12
        E 6 b7 09 23
        E 6 b7 09 17
        E 6 b7 09 4b
        E 6 b7 09 4a
        E 6 b7 09 58
        E 6 b7 09 4a
        E 6 b7 09 26
        E 6 b7 09 52
        E 6 b7 09 3f
        E 6 b7 09 0a
        E 6 b7 09 27
        E 6 b7 09 2f
        E 6 b7 09 54
        E 6 b7 09 43
        E 6 b7 09 30
        E 6 b7 09 31
        E 6 b7 09 04
        E 6 b7 09 09
        E 6 b7 09 51
        E 6 b7 09 47
        E 6 b7 09 25
        E 6 b7 09 1c
        E 6 b7 09 0b
        E 6 b7 09 27
        E 6 b7 09 1a
        E 6 b7 09 15
        E 6 b7 09 21
        E 6 b7 09 2e
        E 6 b7 09 35
        E 6 b7 09 39
        E 6 b7 09 0e
        E 6 b7 09 35
        E 6 b7 09 4f
        E 6 b7 09 2d
        E 6 b7 09 33
        E 6 b7 09 02
        E 6 b7 09 06
        E 6 b7 09 57
        E 6 b7 09 3a
        E 6 b7 09 10
        E 6 b7 09 51
        E 6 b7 09 1c
        E 6 b7 09 22
        E 6 b7 09 2b
        E 6 b7 09 23
        E 6 b7 09 3b
        E 6 b7 09 48
        E 6 b7 09 19
        E 6 b7 09 32
        E 6 b7 09 14
        E 6 b7 09 4f
        E 6 b7 09 49
        E 6 b7 09 28
        E 6 b7 09 20
        E 6 b7 09 46
        E 6 b7 09 20
        E 6 b7 09 3e
        E 6 b7 09 0c
        E 6 b7 09 01
        E 6 b7 09 1d
        E 6 b7 09 2c
        E 6 b7 09 4c
        E 6 b7 09 44
        E 6 b7 09 02
        E 6 b7 09 4d
        E 6 b7 09 41
        E 6 b7 09 04
        E 6 b7 09 1b
        E 6 b7 09 34
        E 6 b7 09 42
        E 6 b7 09 55
        E 6 b7 09 36
        E 6 b7 09 25
        E 6 b7 09 18
        E 6 b7 09 3d
        E 6 b7 09 40
        E 6 b7 09 4e
        E 6 b7 09 56
        E 6 b7 09 2a
        E 6 b7 09 38
        E 6 b7 09 3c
        E 6 b7 09 2e
        E 6 b7 09 53
        E 6 b7 09 0d
        E 6 b7 09 1f
        E 6 b7 09 3a
        E 1 b7 09 0b
        E 1 b7 09 26
        E 1 b7 09 19
        E 1 b7 09 04
        E 1 b7 09 24
        E 1 b7 09 20
        E 1 b7 09 04
        E 1 b7 09 04
        E 1 b7 09 18
        E 1 b7 09 30
        E 1 b7 09 28
        E 1 b7 09 2c
        E 1 b7 09 1f
        E 1 b7 09 05
        E 1 b7 09 09
        E 1 b7 09 22
        E 1 b7 09 1c
        E 1 b7 09 0e
        E 1 b7 09 0a
        E 1 b7 09 0d
        E 1 b7 09 27
        E 1 b7 09 17
        E 1 b7 09 0c
        E 1 b7 09 1d
        E 1 b7 09 32
        E 1 b7 09 00
        E 1 b7 09 06
        E 1 b7 09 14
        E 1 b7 09 11
        E 1 b7 09 29
        E 1 b7 09 0a
        E 1 b7 09 03
        E 1 b7 09 08
        E 1 b7 09 08
        E 1 b7 09 2e
        E 1 b7 09 0c
        E 1 b7 09 00
        E 1 b7 09 25
        E 1 b7 09 11
        E 1 b7 09 0a
        E 1 b7 09 14
        E 1 b7 09 0d
        E 1 b7 09 2b
        E 1 b7 09 2a
        E 1 b7 09 32
        E 1 b7 09 2a
        E 1 b7 09 16
        E 1 b7 09 2f
        E 1 b7 09 24
        E 1 b7 09 06
        E 1 b7 09 16
        E 1 b7 09 1b
        E 1 b7 09 30
        E 1 b7 09 26
        E 1 b7 09 1b
        E 1 b7 09 1c
        E 1 b7 09 02
        E 1 b7 09 05
        E 1 b7 09 2e
        E 1 b7 09 28
        E 1 b7 09 15
        E 1 b7 09 10
        E 1 b7 09 06
        E 1 b7 09 16
        E 1 b7 09 0f
        E 1 b7 09 0c
        E 1 b7 09 13
        E 1 b7 09 1a
        E 1 b7 09 1e
        E 1 b7 09 20
        E 1 b7 09 08
        E 1 b7 09 1e
        E 1 b7 09 2d
        E 1 b7 09 1a
        E 1 b7 09 1d
        E 1 b7 09 01
        E 1 b7 09 03
        E 1 b7 09 32
        E 1 b7 09 21
        E 1 b7 09 09
        E 1 b7 09 2e
        E 1 b7 09 10
        E 1 b7 09 13
        E 1 b7 09 18
        E 1 b7 09 14
        E 1 b7 09 22
        E 1 b7 09 29
        E 1 b7 09 0e
        E 1 b7 09 1c
        E 1 b7 09 0b
        E 1 b7 09 2d
        E 1 b7 09 2a
        E 1 b7 09 17
        E 1 b7 09 12
        E 1 b7 09 28
        E 1 b7 09 12
        E 1 b7 09 23
        E 1 b7 09 07
        E 1 b7 09 00
        E 1 b7 09 10
        E 1 b7 09 19
        E 1 b7 09 2b
        E 1 b7 09 27
        E 1 b7 09 01
        E 1 b7 09 2c
        E 1 b7 09 25
        E 1 b7 09 02
        E 1 b7 09 0f
        E 1 b7 09 1e
        E 1 b7 09 26
        E 1 b7 09 30
        E 1 b7 09 1f
        E 1 b7 09 15
        E 1 b7 09 0e
        E 1 b7 09 23
        E 1 b7 09 24
        E 1 b7 09 2c
        E 1 b7 09 31
        E 1 b7 09 18
        E 1 b7 09 20
        E 1 b7 09 22
        E 1 b7 09 1a
        E 1 b7 09 2f
        E 1 b7 09 07
        E 1 b7 09 12
        E 1 b7 09 21
        E 15 b7 09 1c
        E 15 b7 09 60
        E 15 b7 09 3f
        E 15 b7 09 0a
        E 15 b7 09 5a
        E 15 b7 09 50
        E 15 b7 09 0c
        E 15 b7 09 0b
        E 15 b7 09 3d
        E 15 b7 09 78
        E 15 b7 09 65
        E 15 b7 09 6f
        E 15 b7 09 4f
        E 15 b7 09 0e
        E 15 b7 09 18
        E 15 b7 09 56
        E 15 b7 09 46
        E 15 b7 09 24
        E 15 b7 09 19
        E 15 b7 09 22
        E 15 b7 09 63
        E 15 b7 09 3b
        E 15 b7 09 1e
        E 15 b7 09 49
        E 15 b7 09 7e
        E 15 b7 09 00
        E 15 b7 09 10
        E 15 b7 09 34
        E 15 b7 09 2b
        E 15 b7 09 68
        E 15 b7 09 1b
        E 15 b7 09 08
        E 15 b7 09 14
        E 15 b7 09 16
        E 15 b7 09 73
        E 15 b7 09 20
        E 15 b7 09 01
        E 15 b7 09 5e
        E 15 b7 09 2c
        E 15 b7 09 1a
        E 15 b7 09 32
        E 15 b7 09 21
        E 15 b7 09 6c
        E 15 b7 09 6b
        E 15 b7 09 7f
        E 15 b7 09 6a
        E 15 b7 09 37
        E 15 b7 09 76
        E 15 b7 09 5b
        E 15 b7 09 0f
        E 15 b7 09 38
        E 15 b7 09 44
        E 15 b7 09 79
        E 15 b7 09 61
        E 15 b7 09 45
        E 15 b7 09 47
        E 15 b7 09 06
        E 15 b7 09 0d
        E 15 b7 09 75
        E 15 b7 09 66
        E 15 b7 09 36
        E 15 b7 09 28
        E 15 b7 09 11
        E 15 b7 09 39
        E 15 b7 09 26
        E 15 b7 09 1f
        E 15 b7 09 30
        E 15 b7 09 42
        E 15 b7 09 4d
        E 15 b7 09 52
        E 15 b7 09 15
        E 15 b7 09 4c
        E 15 b7 09 71
        E 15 b7 09 41
        E 15 b7 09 4a
        E 15 b7 09 03
        E 15 b7 09 09
        E 15 b7 09 7d
        E 15 b7 09 53
        E 15 b7 09 17
        E 15 b7 09 74
        E 15 b7 09 29
        E 15 b7 09 31
        E 15 b7 09 3e
        E 15 b7 09 33
        E 15 b7 09 55
        E 15 b7 09 67
        E 15 b7 09 25
        E 15 b7 09 48
        E 15 b7 09 1d
        E 15 b7 09 72
        E 15 b7 09 69
        E 15 b7 09 3a
        E 15 b7 09 2e
        E 15 b7 09 64
        E 15 b7 09 2f
        E 15 b7 09 59
        E 15 b7 09 12
        E 15 b7 09 02
        E 15 b7 09 2a
        E 15 b7 09 40
        E 15 b7 09 6d
        E 15 b7 09 62
        E 15 b7 09 04
        E 15 b7 09 6e
        E 15 b7 09 5d
        E 15 b7 09 07
        E 15 b7 09 27
        E 15 b7 09 4b
        E 15 b7 09 5f
        E 15 b7 09 7a
        E 15 b7 09 4e
        E 15 b7 09 35
        E 15 b7 09 23
        E 15 b7 09 58
        E 15 b7 09 5c
        E 15 b7 09 70
        E 15 b7 09 7c
        E 15 b7 09 3c
        E 15 b7 09 51
        E 15 b7 09 57
        E 15 b7 09 43
        E 15 b7 09 77
        E 15 b7 09 13
        E 15 b7 09 2d
        E 15 b7 09 54
        E 3 b7 09 19
        E 3 b7 09 56
        E 3 b7 09 38
        E 3 b7 09 09
        E 3 b7 09 51
        E 3 b7 09 48
        E 3 b7 09 0a
        E 3 b7 09 09
        E 3 b7 09 36
        E 3 b7 09 6c
        E 3 b7 09 5a
        E 3 b7 09 63
        E 3 b7 09 47
        E 3 b7 09 0c
        E 3 b7 09 15
        E 3 b7 09 4d
        E 3 b7 09 3f
        E 3 b7 09 20
        E 3 b7 09 16
        E 3 b7 09 1e
        E 3 b7 09 59
        E 3 b7 09 35
        E 3 b7 09 1b
        E 3 b7 09 41
        E 3 b7 09 71
        E 3 b7 09 00
        E 3 b7 09 0e
        E 3 b7 09 2e
        E 3 b7 09 26
        E 3 b7 09 5d
        E 3 b7 09 18
        E 3 b7 09 07
        E 3 b7 09 12
        E 3 b7 09 13
        E 3 b7 09 67
        E 3 b7 09 1c
        E 3 b7 09 00
        E 3 b7 09 54
        E 3 b7 09 27
        E 3 b7 09 17
        E 3 b7 09 2d
        E 3 b7 09 1d
        E 3 b7 09 61
        E 3 b7 09 60
        E 3 b7 09 72
        E 3 b7 09 5f
        E 3 b7 09 31
        E 3 b7 09 6a
        E 3 b7 09 51
        E 3 b7 09 0d
        E 3 b7 09 32
        E 3 b7 09 3d
        E 3 b7 09 6c
        E 3 b7 09 57
        E 3 b7 09 3e
        E 3 b7 09 3f
        E 3 b7 09 05
        E 3 b7 09 0b
        E 3 b7 09 69
        E 3 b7 09 5b
        E 3 b7 09 30
        E 3 b7 09 24
        E 3 b7 09 0f
        E 3 b7 09 33
        E 3 b7 09 22
        E 3 b7 09 1b
        E 3 b7 09 2b
        E 3 b7 09 3b
        E 3 b7 09 45
        E 3 b7 09 49
        E 3 b7 09 12
        E 3 b7 09 44
        E 3 b7 09 65
        E 3 b7 09 3a
        E 3 b7 09 42
        E 3 b7 09 02
        E 3 b7 09 08
        E 3 b7 09 70
        E 3 b7 09 4a
        E 3 b7 09 14
        E 3 b7 09 68
        E 3 b7 09 24
        E 3 b7 09 2c
        E 3 b7 09 37
        E 3 b7 09 2d
        E 3 b7 09 4c
        E 3 b7 09 5c
        E 3 b7 09 21
        E 3 b7 09 40
        E 3 b7 09 1a
        E 3 b7 09 66
        E 3 b7 09 5e
        E 3 b7 09 34
        E 3 b7 09 29
        E 3 b7 09 5a
        E 3 b7 09 2a
        E 3 b7 09 50
        E 3 b7 09 10
        E 3 b7 09 01
        E 3 b7 09 25
        E 3 b7 09 39
        E 3 b7 09 62
        E 3 b7 09 58
        E 3 b7 09 03
        E 3 b7 09 63
        E 3 b7 09 53
        E 3 b7 09 06
        E 3 b7 09 23
        E 3 b7 09 43
        E 3 b7 09 55
        E 3 b7 09 6d
        E 3 b7 09 46
        E 3 b7 09 2f
        E 3 b7 09 1f
        E 3 b7 09 4f
        E 3 b7 09 52
        E 3 b7 09 64
        E 3 b7 09 6f
        E 3 b7 09 36
        E 3 b7 09 48
        E 3 b7 09 4e
        E 3 b7 09 3c
        E 3 b7 09 6b
        E 3 b7 09 11
        E 3 b7 09 28
        E 3 b7 09 4b
        E 1 b7 09 10
        E 1 b7 09 39
        E 1 b7 09 25
        E 1 b7 09 06
        E 1 b7 09 36
        E 1 b7 09 30
        E 1 b7 09 07
        E 1 b7 09 06
        E 1 b7 09 24
        E 1 b7 09 48
        E 1 b7 09 3c
        E 1 b7 09 42
        E 1 b7 09 2f
        E 1 b7 09 08
        E 1 b7 09 0e
        E 1 b7 09 33
        E 1 b7 09 2a
        E 1 b7 09 15
        E 1 b7 09 0f
        E 1 b7 09 14
        E 1 b7 09 3b
        E 1 b7 09 23
        E 1 b7 09 12
        E 1 b7 09 2b
        E 1 b7 09 4b
        E 1 b7 09 00
        E 1 b7 09 09
        E 1 b7 09 1f
        E 1 b7 09 19
        E 1 b7 09 3e
        E 1 b7 09 10
        E 1 b7 09 04
        E 1 b7 09 0c
        E 1 b7 09 0d
        E 1 b7 09 45
        E 1 b7 09 13
        E 1 b7 09 00
        E 1 b7 09 38
        E 1 b7 09 1a
        E 1 b7 09 0f
        E 1 b7 09 1e
        E 1 b7 09 13
        E 1 b7 09 40
        E 1 b7 09 40
        E 1 b7 09 4c
        E 1 b7 09 3f
        E 1 b7 09 21
        E 1 b7 09 46
        E 1 b7 09 36
        E 1 b7 09 09
        E 1 b7 09 21
        E 1 b7 09 28
        E 1 b7 09 48
        E 1 b7 09 3a
        E 1 b7 09 29
        E 1 b7 09 2a
        E 1 b7 09 03
        E 1 b7 09 07
        E 1 b7 09 46
        E 1 b7 09 3d
        E 1 b7 09 20
        E 1 b7 09 18
        E 1 b7 09 0a
        E 1 b7 09 22
        E 1 b7 09 16
        E 1 b7 09 12
        E 1 b7 09 1c
        E 1 b7 09 27
        E 1 b7 09 2e
        E 1 b7 09 31
        E 1 b7 09 0c
        E 1 b7 09 2d
        E 1 b7 09 43
        E 1 b7 09 27
        E 1 b7 09 2c
        E 1 b7 09 01
        E 1 b7 09 05
        E 1 b7 09 4b
        E 1 b7 09 31
        E 1 b7 09 0d
        E 1 b7 09 45
        E 1 b7 09 18
        E 1 b7 09 1d
        E 1 b7 09 25
        E 1 b7 09 1e
        E 1 b7 09 33
        E 1 b7 09 3d
        E 1 b7 09 16
        E 1 b7 09 2b
        E 1 b7 09 11
        E 1 b7 09 44
        E 1 b7 09 3f
        E 1 b7 09 22
        E 1 b7 09 1b
        E 1 b7 09 3c
        E 1 b7 09 1c
        E 1 b7 09 35
        E 1 b7 09 0a
        E 1 b7 09 01
        E 1 b7 09 19
        E 1 b7 09 26
        E 1 b7 09 41
        E 1 b7 09 3a
        E 1 b7 09 02
        E 1 b7 09 42
        E 1 b7 09 37
        E 1 b7 09 04
        E 1 b7 09 17
        E 1 b7 09 2d
        E 1 b7 09 39
        E 1 b7 09 49
        E 1 b7 09 2e
        E 1 b7 09 1f
        E 1 b7 09 15
        E 1 b7 09 34
        E 1 b7 09 37
        E 1 b7 09 43
        E 1 b7 09 4a
        E 1 b7 09 24
        E 1 b7 09 30
        E 1 b7 09 34
        E 1 b7 09 28
        E 1 b7 09 47
        E 1 b7 09 0b
        E 1 b7 09 1b
        E 1 b7 09 32
        E 8 b7 09 05
        E 8 b7 09 13
        E 8 b7 09 0c
        E 8 b7 09 02
        E 8 b7 09 12
        E 8 b7 09 10
        E 8 b7 09 02
        E 8 b7 09 02
        E 8 b7 09 0c
        E 8 b7 09 18
        E 8 b7 09 14
        E 8 b7 09 16
        E 8 b7 09 0f
        E 8 b7 09 02
        E 8 b7 09 04
        E 8 b7 09 11
        E 8 b7 09 0e
        E 8 b7 09 07
        E 8 b7 09 05
        E 8 b7 09 06
        E 8 b7 09 13
        E 8 b7 09 0b
        E 8 b7 09 06
        E 8 b7 09 0e
        E 8 b7 09 19
        E 8 b7 09 00
        E 8 b7 09 03
        E 8 b7 09 0a
        E 8 b7 09 08
        E 8 b7 09 14
        E 8 b7 09 05
        E 8 b7 09 01
        E 8 b7 09 04
        E 8 b7 09 04
        E 8 b7 09 17
        E 8 b7 09 06
        E 8 b7 09 00
        E 8 b7 09 12
        E 8 b7 09 08
        E 8 b7 09 05
        E 8 b7 09 0a
        E 8 b7 09 06
        E 8 b7 09 15
        E 8 b7 09 15
        E 8 b7 09 19
        E 8 b7 09 15
        E 8 b7 09 0b
        E 8 b7 09 17
        E 8 b7 09 12
        E 8 b7 09 03
        E 8 b7 09 0b
        E 8 b7 09 0d
        E 8 b7 09 18
        E 8 b7 09 13
        E 8 b7 09 0d
        E 8 b7 09 0e
        E 8 b7 09 01
        E 8 b7 09 02
        E 8 b7 09 17
        E 8 b7 09 14
        E 8 b7 09 0a
        E 8 b7 09 08
        E 8 b7 09 03
        E 8 b7 09 0b
        E 8 b7 09 07
        E 8 b7 09 06
        E 8 b7 09 09
        E 8 b7 09 0d
        E 8 b7 09 0f
        E 8 b7 09 10
        E 8 b7 09 04
        E 8 b7 09 0f
        E 8 b7 09 16
        E 8 b7 09 0d
        E 8 b7 09 0e
        E 8 b7 09 00
        E 8 b7 09 01
        E 8 b7 09 19
        E 8 b7 09 10
        E 8 b7 09 04
        E 8 b7 09 17
        E 8 b7 09 08
        E 8 b7 09 09
        E 8 b7 09 0c
        E 8 b7 09 0a
        E 8 b7 09 11
        E 8 b7 09 14
        E 8 b7 09 07
        E 8 b7 09 0e
        E 8 b7 09 05
        E 8 b7 09 16
        E 8 b7 09 15
        E 8 b7 09 0b
        E 8 b7 09 09
        E 8 b7 09 14
        E 8 b7 09 09
        E 8 b7 09 11
        E 8 b7 09 03
        E 8 b7 09 00
        E 8 b7 09 08
        E 8 b7 09 0c
        E 8 b7 09 15
        E 8 b7 09 13
        E 8 b7 09 00
        E 8 b7 09 16
        E 8 b7 09 12
        E 8 b7 09 01
        E 8 b7 09 07
        E 8 b7 09 0f
        E 8 b7 09 13
        E 8 b7 09 18
        E 8 b7 09 0f
        E 8 b7 09 0a
        E 8 b7 09 07
        E 8 b7 09 11
        E 8 b7 09 12
        E 8 b7 09 16
        E 8 b7 09 18
        E 8 b7 09 0c
        E 8 b7 09 10
        E 8 b7 09 11
        E 8 b7 09 0d
        E 8 b7 09 17
        E 8 b7 09 03
        E 8 b7 09 09
        E 8 b7 09 10
        E 6 b7 09 13
        E 6 b7 09 43
        E 6 b7 09 2c
        E 6 b7 09 07
        E 6 b7 09 3e
        E 6 b7 09 38
        E 6 b7 09 08
        E 6 b7 09 07
        E 6 b7 09 2a
        E 6 b7 09 54
        E 6 b7 09 46
        E 6 b7 09 4d
        E 6 b7 09 37
        E 6 b7 09 09
        E 6 b7 09 10
        E 6 b7 09 3c
        E 6 b7 09 31
        E 6 b7 09 19
        E 6 b7 09 11
        E 6 b7 09 17
        E 6 b7 09 45
        E 6 b7 09 29
        E 6 b7 09 15
        E 6 b7 09 33
        E 6 b7 09 58
        E 6 b7 09 00
        E 6 b7 09 0b
        E 6 b7 09 24
        E 6 b7 09 1e
        E 6 b7 09 48
        E 6 b7 09 12
        E 6 b7 09 05
        E 6 b7 09 0e
        E 6 b7 09 0f
        E 6 b7 09 50
        E 6 b7 09 16
        E 6 b7 09 00
        E 6 b7 09 41
        E 6 b7 09 1e
        E 6 b7 09 12
        E 6 b7 09 23
        E 6 b7 09 17
        E 6 b7 09 4b
        E 6 b7 09 4a
        E 6 b7 09 58
        E 6 b7 09 4a
        E 6 b7 09 26
        E 6 b7 09 52
        E 6 b7 09 3f
        E 6 b7 09 0a
        E 6 b7 09 27
        E 6 b7 09 2f
        E 6 b7 09 54
        E 6 b7 09 43
        E 6 b7 09 30
        E 6 b7 09 31
        E 6 b7 09 04
        E 6 b7 09 09
        E 6 b7 09 51
        E 6 b7 09 47
        E 6 b7 09 25
        E 6 b7 09 1c
        E 6 b7 09 0b
        E 6 b7 09 27
        E 6 b7 09 1a
        E 6 b7 09 15
        E 6 b7 09 21
        E 6 b7 09 2e
        E 6 b7 09 35
        E 6 b7 09 39
        E 6 b7 09 0e
        E 6 b7 09 35
        E 6 b7 09 4f
        E 6 b7 09 2d
        E 6 b7 09 33
        E 6 b7 09 02
        E 6 b7 09 06
        E 6 b7 09 57
        E 6 b7 09 3a
        E 6 b7 09 10
        E 6 b7 09 51
        E 6 b7 09 1c
        E 6 b7 09 22
        E 6 b7 09 2b
        E 6 b7 09 23
        E 6 b7 09 3b
        E 6 b7 09 48
        E 6 b7 09 19
        E 6 b7 09 32
        E 6 b7 09 14
        E 6 b7 09 4f
        E 6 b7 09 49
        E 6 b7 09 28
        E 6 b7 09 20
        E 6 b7 09 46
        E 6 b7 09 20
        E 6 b7 09 3e
        E 6 b7 09 0c
        E 6 b7 09 01
        E 6 b7 09 1d
        E 6 b7 09 2c
        E 6 b7 09 4c
        E 6 b7 09 44
        E 6 b7 09 02
        E 6 b7 09 4d
        E 6 b7 09 41
        E 6 b7 09 04
        E 6 b7 09 1b
        E 6 b7 09 34
        E 6 b7 09 42
        E 6 b7 09 55
        E 6 b7 09 36
        E 6 b7 09 25
        E 6 b7 09 18
        E 6 b7 09 3d
        E 6 b7 09 40
        E 6 b7 09 4e
        E 6 b7 09 56
        E 6 b7 09 2a
        E 6 b7 09 38
        E 6 b7 09 3c
        E 6 b7 09 2e
        E 6 b7 09 53
        E 6 b7 09 0d
        E 6 b7 09 1f
        E 6 b7 09 3a
        E 1 b7 09 0b
        E 1 b7 09 26
        E 1 b7 09 19
        E 1 b7 09 04
        E 1 b7 09 24
        E 1 b7 09 20
        E 1 b7 09 04
        E 1 b7 09 04
        E 1 b7 09 18
        E 1 b7 09 30
        E 1 b7 09 28
        E 1 b7 09 2c
        E 1 b7 09 1f
        E 1 b7 09 05
        E 1 b7 09 09
        E 1 b7 09 22
        E 1 b7 09 1c
        E 1 b7 09 0e
        E 1 b7 09 0a
        E 1 b7 09 0d
        E 1 b7 09 27
        E 1 b7 09 17
        E 1 b7 09 0c
        E 1 b7 09 1d
        E 1 b7 09 32
        E 1 b7 09 00
        E 1 b7 09 06
        E 1 b7 09 14
        E 1 b7 09 11
        E 1 b7 09 29
        E 1 b7 09 0a
        E 1 b7 09 03
        E 1 b7 09 08
        E 1 b7 09 08
        E 1 b7 09 2e
        E 1 b7 09 0c
        E 1 b7 09 00
        E 1 b7 09 25
        E 1 b7 09 11
        E 1 b7 09 0a
        E 1 b7 09 14
        E 1 b7 09 0d
        E 1 b7 09 2b
        E 1 b7 09 2a
        E 1 b7 09 32
        E 1 b7 09 2a
        E 1 b7 09 16
        E 1 b7 09 2f
        E 1 b7 09 24
        E 1 b7 09 06
        E 1 b7 09 16
        E 1 b7 09 1b
        E 1 b7 09 30
        E 1 b7 09 26
        E 1 b7 09 1b
        E 1 b7 09 1c
        E 1 b7 09 02
        E 1 b7 09 05
        E 1 b7 09 2e
        E 1 b7 09 28
        E 1 b7 09 15
        E 1 b7 09 10
        E 1 b7 09 06
        E 1 b7 09 16
        E 1 b7 09 0f
        E 1 b7 09 0c
        E 1 b7 09 13
        E 1 b7 09 1a
        E 1 b7 09 1e
        E 1 b7 09 20
        E 1 b7 09 08
        E 1 b7 09 1e
        E 1 b7 09 2d
        E 1 b7 09 1a
        E 1 b7 09 1d
        E 1 b7 09 01
        E 1 b7 09 03
        E 1 b7 09 32
        E 1 b7 09 21
        E 1 b7 09 09
        E 1 b7 09 2e
        E 1 b7 09 10
        E 1 b7 09 13
        E 1 b7 09 18
        E 1 b7 09 14
        E 1 b7 09 22
        E 1 b7 09 29
        E 1 b7 09 0e
        E 1 b7 09 1c
        E 1 b7 09 0b
        E 1 b7 09 2d
        E 1 b7 09 2a
        E 1 b7 09 17
        E 1 b7 09 12
        E 1 b7 09 28
        E 1 b7 09 12
        E 1 b7 09 23
        E 1 b7 09 07
        E 1 b7 09 00
        E 1 b7 09 10
        E 1 b7 09 19
        E 1 b7 09 2b
        E 1 b7 09 27
        E 1 b7 09 01
        E 1 b7 09 2c
        E 1 b7 09 25
        E 1 b7 09 02
        E 1 b7 09 0f
        E 1 b7 09 1e
        E 1 b7 09 26
        E 1 b7 09 30
        E 1 b7 09 1f
        E 1 b7 09 15
        E 1 b7 09 0e
        E 1 b7 09 23
        E 1 b7 09 24
        E 1 b7 09 2c
        E 1 b7 09 31
        E 1 b7 09 18
        E 1 b7 09 20
        E 1 b7 09 22
        E 1 b7 09 1a
        E 1 b7 09 2f
        E 1 b7 09 07
        E 1 b7 09 12
        E 1 b7 09 21
        E 15 b7 09 1c
        E 15 b7 09 60
        E 15 b7 09 3f
        E 15 b7 09 0a
        E 15 b7 09 5a
        E 15 b7 09 50
        E 15 b7 09 0c
        E 15 b7 09 0b
        E 15 b7 09 3d
        E 15 b7 09 78
        E 15 b7 09 65
        E 15 b7 09 6f
        E 15 b7 09 4f
        E 15 b7 09 0e
        E 15 b7 09 18
        E 15 b7 09 56
        E 15 b7 09 46
        E 15 b7 09 24
        E 15 b7 09 19
        E 15 b7 09 22
        E 15 b7 09 63
        E 15 b7 09 3b
        E 15 b7 09 1e
        E 15 b7 09 49
        E 15 b7 09 7e
        E 15 b7 09 00
        E 15 b7 09 10
        E 15 b7 09 34
        E 15 b7 09 2b
        E 15 b7 09 68
        E 15 b7 09 1b
        E 15 b7 09 08
        E 15 b7 09 14
        E 15 b7 09 16
        E 15 b7 09 73
        E 15 b7 09 20
        E 15 b7 09 01
        E 15 b7 09 5e
        E 15 b7 09 2c
        E 15 b7 09 1a
        E 15 b7 09 32
        E 15 b7 09 21
        E 15 b7 09 6c
        E 15 b7 09 6b
        E 15 b7 09 7f
        E 15 b7 09 6a
        E 15 b7 09 37
        E 15 b7 09 76
        E 15 b7 09 5b
        E 15 b7 09 0f
        E 15 b7 09 38
        E 15 b7 09 44
        E 15 b7 09 79
        E 15 b7 09 61
        E 15 b7 09 45
        E 15 b7 09 47
        E 15 b7 09 06
        E 15 b7 09 0d
        E 15 b7 09 75
        E 15 b7 09 66
        E 15 b7 09 36
        E 15 b7 09 28
        E 15 b7 09 11
        E 15 b7 09 39
        E 15 b7 09 26
        E 15 b7 09 1f
        E 15 b7 09 30
        E 15 b7 09 42
        E 15 b7 09 4d
        E 15 b7 09 52
        E 15 b7 09 15
        E 15 b7 09 4c
        E 15 b7 09 71
        E 15 b7 09 41
        E 15 b7 09 4a
        E 15 b7 09 03
        E 15 b7 09 09
        E 15 b7 09 7d
        E 15 b7 09 53
        E 15 b7 09 17
        E 15 b7 09 74
        E 15 b7 09 29
        E 15 b7 09 31
        E 15 b7 09 3e
        E 15 b7 09 33
        E 15 b7 09 55
        E 15 b7 09 67
        E 15 b7 09 25
        E 15 b7 09 48
        E 15 b7 09 1d
        E 15 b7 09 72
        E 15 b7 09 69
        E 15 b7 09 3a
        E 15 b7 09 2e
        E 15 b7 09 64
        E 15 b7 09 2f
        E 15 b7 09 59
        E 15 b7 09 12
        E 15 b7 09 02
        E 15 b7 09 2a
        E 15 b7 09 40
        E 15 b7 09 6d
        E 15 b7 09 62
        E 15 b7 09 04
        E 15 b7 09 6e
        E 15 b7 09 5d
        E 15 b7 09 07
        E 15 b7 09 27
        E 15 b7 09 4b
        E 15 b7 09 5f
        E 15 b7 09 7a
        E 15 b7 09 4e
        E 15 b7 09 35
        E 15 b7 09 23
        E 15 b7 09 58
        E 15 b7 09 5c
        E 15 b7 09 70
        E 15 b7 09 7c
        E 15 b7 09 3c
        E 15 b7 09 51
        E 15 b7 09 57
        E 15 b7 09 43
        E 15 b7 09 77
        E 15 b7 09 13
        E 15 b7 09 2d
        E 15 b7 09 54
        E 3 b7 09 19
        E 3 b7 09 56
        E 3 b7 09 38
        E 3 b7 09 09
        E 3 b7 09 51
        E 3 b7 09 48
        E 3 b7 09 0a
        E 3 b7 09 09
        E 3 b7 09 36
        E 3 b7 09 6c
        E 3 b7 09 5a
        E 3 b7 09 63
        E 3 b7 09 47
        E 3 b7 09 0c
        E 3 b7 09 15
        E 3 b7 09 4d
        E 3 b7 09 3f
        E 3 b7 09 20
        E 3 b7 09 16
        E 3 b7 09 1e
        E 3 b7 09 59
        E 3 b7 09 35
        E 3 b7 09 1b
        E 3 b7 09 41
        E 3 b7 09 71
        E 3 b7 09 00
        E 3 b7 09 0e
        E 3 b7 09 2e
        E 3 b7 09 26
        E 3 b7 09 5d
        E 3 b7 09 18
        E 3 b7 09 07
        E 3 b7 09 12
        E 3 b7 09 13
        E 3 b7 09 67
        E 3 b7 09 1c
        E 3 b7 09 00
        E 3 b7 09 54
        E 3 b7 09 27
        E 3 b7 09 17
        E 3 b7 09 2d
        E 3 b7 09 1d
        E 3 b7 09 61
        E 3 b7 09 60
        E 3 b7 09 72
        E 3 b7 09 5f
        E 3 b7 09 31
        E 3 b7 09 6a
        E 3 b7 09 51
        E 3 b7 09 0d
        E 3 b7 09 32
        E 3 b7 09 3d
        E 3 b7 09 6c
        E 3 b7 09 57
        E 3 b7 09 3e
        E 3 b7 09 3f
        E 3 b7 09 05
        E 3 b7 09 0b
        E 3 b7 09 69
        E 3 b7 09 5b
        E 3 b7 09 30
        E 3 b7 09 24
        E 3 b7 09 0f
        E 3 b7 09 33
        E 3 b7 09 22
        E 3 b7 09 1b
        E 3 b7 09 2b
        E 3 b7 09 3b
        E 3 b7 09 45
        E 3 b7 09 49
        E 3 b7 09 12
        E 3 b7 09 44
        E 3 b7 09 65
        E 3 b7 09 3a
        E 3 b7 09 42
        E 3 b7 09 02
        E 3 b7 09 08
        E 3 b7 09 70
        E 3 b7 09 4a
        E 3 b7 09 14
        E 3 b7 09 68
        E 3 b7 09 24
        E 3 b7 09 2c
        E 3 b7 09 37
        E 3 b7 09 2d
        E 3 b7 09 4c
        E 3 b7 09 5c
        E 3 b7 09 21
        E 3 b7 09 40
        E 3 b7 09 1a
        E 3 b7 09 66
        E 3 b7 09 5e
        E 3 b7 09 34
        E 3 b7 09 29
        E 3 b7 09 5a
        E 3 b7 09 2a
        E 3 b7 09 50
        E 3 b7 09 10
        E 3 b7 09 01
        E 3 b7 09 25
        E 3 b7 09 39
        E 3 b7 09 62
        E 3 b7 09 58
        E 3 b7 09 03
        E 3 b7 09 63
        E 3 b7 09 53
        E 3 b7 09 06
        E 3 b7 09 23
        E 3 b7 09 43
        E 3 b7 09 55
        E 3 b7 09 6d
        E 3 b7 09 46
        E 3 b7 09 2f
        E 3 b7 09 1f
        E 3 b7 09 4f
        E 3 b7 09 52
        E 3 b7 09 64
        E 3 b7 09 6f
        E 3 b7 09 36
        E 3 b7 09 48
        E 3 b7 09 4e
        E 3 b7 09 3c
        E 3 b7 09 6b
        E 3 b7 09 11
        E 3 b7 09 28
        E 3 b7 09 4b
        E 1 b7 09 10
        E 1 b7 09 39
        E 1 b7 09 25
        E 1 b7 09 06
        E 1 b7 09 36
        E 1 b7 09 30
        E 1 b7 09 07
        E 1 b7 09 06
        E 1 b7 09 24
        E 1 b7 09 48
        E 1 b7 09 3c
        E 1 b7 09 42
        E 1 b7 09 2f
        E 1 b7 09 08
        E 1 b7 09 0e
        E 1 b7 09 33
        E 1 b7 09 2a
        E 1 b7 09 15
        E 1 b7 09 0f
        E 1 b7 09 14
        E 1 b7 09 3b
        E 1 b7 09 23
        E 1 b7 09 12
        E 1 b7 09 2b
        E 1 b7 09 4b
        E 1 b7 09 00
        E 1 b7 09 09
        E 1 b7 09 1f
        E 1 b7 09 19
        E 1 b7 09 3e
        E 1 b7 09 10
        E 1 b7 09 04
        E 1 b7 09 0c
        E 1 b7 09 0d
        E 1 b7 09 45
        E 1 b7 09 13
        E 1 b7 09 00
        E 1 b7 09 38
        E 1 b7 09 1a
        E 1 b7 09 0f
        E 1 b7 09 1e
        E 1 b7 09 13
        E 1 b7 09 40
        E 1 b7 09 40
        E 1 b7 09 4c
        E 1 b7 09 3f
        E 1 b7 09 21
        E 1 b7 09 46
        E 1 b7 09 36
        E 1 b7 09 09
        E 1 b7 09 21
        E 1 b7 09 28
        E 1 b7 09 48
        E 1 b7 09 3a
        E 1 b7 09 29
        E 1 b7 09 2a
        E 1 b7 09 03
        E 1 b7 09 07
        E 1 b7 09 46
        E 1 b7 09 3d
        E 1 b7 09 20
        E 1 b7 09 18
        E 1 b7 09 0a
        E 1 b7 09 22
        E 1 b7 09 16
        E 1 b7 09 12
        E 1 b7 09 1c
        E 1 b7 09 27
        E 1 b7 09 2e
        E 1 b7 09 31
        E 1 b7 09 0c
        E 1 b7 09 2d
        E 1 b7 09 43
        E 1 b7 09 27
        E 1 b7 09 2c
        E 1 b7 09 01
        E 1 b7 09 05
        E 1 b7 09 4b
        E 1 b7 09 31
        E 1 b7 09 0d
        E 1 b7 09 45
        E 1 b7 09 18
        E 1 b7 09 1d
        E 1 b7 09 25
        E 1 b7 09 1e
        E 1 b7 09 33
        E 1 b7 09 3d
        E 1 b7 09 16
        E 1 b7 09 2b
        E 1 b7 09 11
        E 1 b7 09 44
        E 1 b7 09 3f
        E 1 b7 09 22
        E 1 b7 09 1b
        E 1 b7 09 3c
        E 1 b7 09 1c
        E 1 b7 09 35
        E 1 b7 09 0a
        E 1 b7 09 01
        E 1 b7 09 19
        E 1 b7 09 26
        E 1 b7 09 41
        E 1 b7 09 3a
        E 1 b7 09 02
        E 1 b7 09 42
        E 1 b7 09 37
        E 1 b7 09 04
        E 1 b7 09 17
        E 1 b7 09 2d
        E 1 b7 09 39
        E 1 b7 09 49
        E 1 b7 09 2e
        E 1 b7 09 1f
        E 1 b7 09 15
        E 1 b7 09 34
        E 1 b7 09 37
        E 1 b7 09 43
        E 1 b7 09 4a
        E 1 b7 09 24
        E 1 b7 09 30
        E 1 b7 09 34
        E 1 b7 09 28
        E 1 b7 09 47
        E 1 b7 09 0b
        E 1 b7 09 1b
        E 1 b7 09 32
        E 8 b7 09 05
        E 8 b7 09 13
        E 8 b7 09 0c
        E 8 b7 09 02
        E 8 b7 09 12
        E 8 b7 09 10
        E 8 b7 09 02
        E 8 b7 09 02
        E 8 b7 09 0c
        E 8 b7 09 18
        E 8 b7 09 14
        E 8 b7 09 16
        E 8 b7 09 0f
        E 8 b7 09 02
        E 8 b7 09 04
        E 8 b7 09 11
        E 8 b7 09 0e
        E 8 b7 09 07
        E 8 b7 09 05
        E 8 b7 09 06
        E 8 b7 09 13
        E 8 b7 09 0b
        E 8 b7 09 06
        E 8 b7 09 0e
        E 8 b7 09 19
        E 8 b7 09 00
        E 8 b7 09 03
        E 8 b7 09 0a
        E 8 b7 09 08
        E 8 b7 09 14
        E 8 b7 09 05
        E 8 b7 09 01
        E 8 b7 09 04
        E 8 b7 09 04
        E 8 b7 09 17
        E 8 b7 09 06
        E 8 b7 09 00
        E 8 b7 09 12
        E 8 b7 09 08
        E 8 b7 09 05
        E 8 b7 09 0a
        E 8 b7 09 06
        E 8 b7 09 15
        E 8 b7 09 15
        E 8 b7 09 19
        E 8 b7 09 15
        E 8 b7 09 0b
        E 8 b7 09 17
        E 8 b7 09 12
        E 8 b7 09 03
        E 8 b7 09 0b
        E 8 b7 09 0d
        E 8 b7 09 18
        E 8 b7 09 13
        E 8 b7 09 0d
        E 8 b7 09 0e
        E 8 b7 09 01
        E 8 b7 09 02
        E 8 b7 09 17
        E 8 b7 09 14
        E 8 b7 09 0a
        E 8 b7 09 08
        E 8 b7 09 03
        E 8 b7 09 0b
        E 8 b7 09 07
        E 8 b7 09 06
        E 8 b7 09 09
        E 8 b7 09 0d
        E 8 b7 09 0f
        E 8 b7 09 10
        E 8 b7 09 04
        E 8 b7 09 0f
        E 8 b7 09 16
        E 8 b7 09 0d
        E 8 b7 09 0e
        E 8 b7 09 00
        E 8 b7 09 01
        E 8 b7 09 19
        E 8 b7 09 10
        E 8 b7 09 04
        E 8 b7 09 17
        E 8 b7 09 08
        E 8 b7 09 09
        E 8 b7 09 0c
        E 8 b7 09 0a
        E 8 b7 09 11
        E 8 b7 09 14
        E 8 b7 09 07
        E 8 b7 09 0e
        E 8 b7 09 05
        E 8 b7 09 16
        E 8 b7 09 15
        E 8 b7 09 0b
        E 8 b7 09 09
        E 8 b7 09 14
        E 8 b7 09 09
        E 8 b7 09 11
        E 8 b7 09 03
        E 8 b7 09 00
        E 8 b7 09 08
        E 8 b7 09 0c
        E 8 b7 09 15
        E 8 b7 09 13
        E 8 b7 09 00
        E 8 b7 09 16
        E 8 b7 09 12
        E 8 b7 09 01
        E 8 b7 09 07
        E 8 b7 09 0f
        E 8 b7 09 13
        E 8 b7 09 18
        E 8 b7 09 0f
        E 8 b7 09 0a
        E 8 b7 09 07
        E 8 b7 09 11
        E 8 b7 09 12
        E 8 b7 09 16
        E 8 b7 09 18
        E 8 b7 09 0c
        E 8 b7 09 10
        E 8 b7 09 11
        E 8 b7 09 0d
        E 8 b7 09 17
        E 8 b7 09 03
        E 8 b7 09 09
        E 8 b7 09 10
        E 6 b7 09 13
        E 6 b7 09 43
        E 6 b7 09 2c
        E 6 b7 09 07
        E 6 b7 09 3e
        E 6 b7 09 38
        E 6 b7 09 08
        E 6 b7 09 07
        E 6 b7 09 2a
        E 6 b7 09 54
        E 6 b7 09 46
        E 6 b7 09 4d
        E 6 b7 09 37
        E 6 b7 09 09
        E 6 b7 09 10
        E 6 b7 09 3c
        E 6 b7 09 31
        E 6 b7 09 19
        E 6 b7 09 11
        E 6 b7 09 17
        E 6 b7 09 45
        E 6 b7 09 29
        E 6 b7 09 15
        E 6 b7 09 33
        E 6 b7 09 58
        E 6 b7 09 00
        E 6 b7 09 0b
        E 6 b7 09 24
        E 6 b7 09 1e
        E 6 b7 09 48
        E 6 b7 09 12
        E 6 b7 09 05
        E 6 b7 09 0e
        E 6 b7 09 0f
        E 6 b7 09 50
        E 6 b7 09 16
        E 6 b7 09 00
        E 6 b7 09 41
        E 6 b7 09 1e
        E 6 b7 09 12
        E 6 b7 09 23
        E 6 b7 09 17
        E 6 b7 09 4b
        E 6 b7 09 4a
        E 6 b7 09 58
        E 6 b7 09 4a
        E 6 b7 09 26
        E 6 b7 09 52
        E 6 b7 09 3f
        E 6 b7 09 0a
        E 6 b7 09 27
        E 6 b7 09 2f
        E 6 b7 09 54
        E 6 b7 09 43
        E 6 b7 09 30
        E 6 b7 09 31
        E 6 b7 09 04
        E 6 b7 09 09
        E 6 b7 09 51
        E 6 b7 09 47
        E 6 b7 09 25
        E 6 b7 09 1c
        E 6 b7 09 0b
        E 6 b7 09 27
        E 6 b7 09 1a
        E 6 b7 09 15
        E 6 b7 09 21
        E 6 b7 09 2e
        E 6 b7 09 35
        E 6 b7 09 39
        E 6 b7 09 0e
        E 6 b7 09 35
        E 6 b7 09 4f
        E 6 b7 09 2d
        E 6 b7 09 33
        E 6 b7 09 02
        E 6 b7 09 06
        E 6 b7 09 57
        E 6 b7 09 3a
        E 6 b7 09 10
        E 6 b7 09 51
        E 6 b7 09 1c
        E 6 b7 09 22
        E 6 b7 09 2b
        E 6 b7 09 23
        E 6 b7 09 3b
        E 6 b7 09 48
        E 6 b7 09 19
        E 6 b7 09 32
        E 6 b7 09 14
        E 6 b7 09 4f
        E 6 b7 09 49
        E 6 b7 09 28
        E 6 b7 09 20
        E 6 b7 09 46
        E 6 b7 09 20
        E 6 b7 09 3e
        E 6 b7 09 0c
        E 6 b7 09 01
        E 6 b7 09 1d
        E 6 b7 09 2c
        E 6 b7 09 4c
        E 6 b7 09 44
        E 6 b7 09 02
        E 6 b7 09 4d
        E 6 b7 09 41
        E 6 b7 09 04
        E 6 b7 09 1b
        E 6 b7 09 34
        E 6 b7 09 42
        E 6 b7 09 55
        E 6 b7 09 36
        E 6 b7 09 25
        E 6 b7 09 18
        E 6 b7 09 3d
        E 6 b7 09 40
        E 6 b7 09 4e
        E 6 b7 09 56
        E 6 b7 09 2a
        E 6 b7 09 38
        E 6 b7 09 3c
        E 6 b7 09 2e
        E 6 b7 09 53
        E 6 b7 09 0d
        E 6 b7 09 1f
        E 6 b7 09 3a
        E 1 b7 09 0b
        E 1 b7 09 26
        E 1 b7 09 19
        E 1 b7 09 04
        E 1 b7 09 24
        E 1 b7 09 20
        E 1 b7 09 04
        E 1 b7 09 04
        E 1 b7 09 18
        E 1 b7 09 30
        E 1 b7 09 28
        E 1 b7 09 2c
        E 1 b7 09 1f
        E 1 b7 09 05
        E 1 b7 09 09
        E 1 b7 09 22
        E 1 b7 09 1c
        E 1 b7 09 0e
        E 1 b7 09 0a
        E 1 b7 09 0d
        E 1 b7 09 27
        E 1 b7 09 17
        E 1 b7 09 0c
        E 1 b7 09 1d
        E 1 b7 09 32
        E 1 b7 09 00
        E 1 b7 09 06
        E 1 b7 09 14
        E 1 b7 09 11
        E 1 b7 09 29
        E 1 b7 09 0a
        E 1 b7 09 03
        E 1 b7 09 08
        E 1 b7 09 08
        E 1 b7 09 2e
        E 1 b7 09 0c
        E 1 b7 09 00
        E 1 b7 09 25
        E 1 b7 09 11
        E 1 b7 09 0a
        E 1 b7 09 14
        E 1 b7 09 0d
        E 1 b7 09 2b
        E 1 b7 09 2a
        E 1 b7 09 32
        E 1 b7 09 2a
        E 1 b7 09 16
        E 1 b7 09 2f
        E 1 b7 09 24
        E 1 b7 09 06
        E 1 b7 09 16
        E 1 b7 09 1b
        E 1 b7 09 30
        E 1 b7 09 26
        E 1 b7 09 1b
        E 1 b7 09 1c
        E 1 b7 09 02
        E 1 b7 09 05
        E 1 b7 09 2e
        E 1 b7 09 28
        E 1 b7 09 15
        E 1 b7 09 10
        E 1 b7 09 06
        E 1 b7 09 16
        E 1 b7 09 0f
        E 1 b7 09 0c
        E 1 b7 09 13
        E 1 b7 09 1a
        E 1 b7 09 1e
        E 1 b7 09 20
        E 1 b7 09 08
        E 1 b7 09 1e
        E 1 b7 09 2d
        E 1 b7 09 1a
        E 1 b7 09 1d
        E 1 b7 09 01
        E 1 b7 09 03
        E 1 b7 09 32
        E 1 b7 09 21
        E 1 b7 09 09
        E 1 b7 09 2e
        E 1 b7 09 10
        E 1 b7 09 13
        E 1 b7 09 18
        E 1 b7 09 14
        E 1 b7 09 22
        E 1 b7 09 29
        E 1 b7 09 0e
        E 1 b7 09 1c
        E 1 b7 09 0b
        E 1 b7 09 2d
        E 1 b7 09 2a
        E 1 b7 09 17
        E 1 b7 09 12
        E 1 b7 09 28
        E 1 b7 09 12
        E 1 b7 09 23
        E 1 b7 09 07
        E 1 b7 09 00
        E 1 b7 09 10
        E 1 b7 09 19
        E 1 b7 09 2b
        E 1 b7 09 27
        E 1 b7 09 01
        E 1 b7 09 2c
        E 1 b7 09 25
        E 1 b7 09 02
        E 1 b7 09 0f
        E 1 b7 09 1e
        E 1 b7 09 26
        E 1 b7 09 30
        E 1 b7 09 1f
        E 1 b7 09 15
        E 1 b7 09 0e
        E 1 b7 09 23
        E 1 b7 09 24
        E 1 b7 09 2c
        E 1 b7 09 31
        E 1 b7 09 18
        E 1 b7 09 20
        E 1 b7 09 22
        E 1 b7 09 1a
        E 1 b7 09 2f
        E 1 b7 09 07
        E 1 b7 09 12
        E 1 b7 09 21
        E 15 b7 09 1c
        E 15 b7 09 60
        E 15 b7 09 3f
        E 15 b7 09 0a
        E 15 b7 09 5a
        E 15 b7 09 50
        E 15 b7 09 0c
        E 15 b7 09 0b
        E 15 b7 09 3d
        E 15 b7 09 78
        E 15 b7 09 65
        E 15 b7 09 6f
        E 15 b7 09 4f
        E 15 b7 09 0e
        E 15 b7 09 18
        E 15 b7 09 56
        E 15 b7 09 46
        E 15 b7 09 24
        E 15 b7 09 19
        E 15 b7 09 22
        E 15 b7 09 63
        E 15 b7 09 3b
        E 15 b7 09 1e
        E 15 b7 09 49
        E 15 b7 09 7e
        E 15 b7 09 00
        E 15 b7 09 10
        E 15 b7 09 34
        E 15 b7 09 2b
        E 15 b7 09 68
        E 15 b7 09 1b
        E 15 b7 09 08
        E 15 b7 09 14
        E 15 b7 09 16
        E 15 b7 09 73
        E 15 b7 09 20
        E 15 b7 09 01
        E 15 b7 09 5e
        E 15 b7 09 2c
        E 15 b7 09 1a
        E 15 b7 09 32
        E 15 b7 09 21
        E 15 b7 09 6c
        E 15 b7 09 6b
        E 15 b7 09 7f
        E 15 b7 09 6a
        E 15 b7 09 37
        E 15 b7 09 76
        E 15 b7 09 5b
        E 15 b7 09 0f
        E 15 b7 09 38
        E 15 b7 09 44
        E 15 b7 09 79
        E 15 b7 09 61
        E 15 b7 09 45
        E 15 b7 09 47
        E 15 b7 09 06
        E 15 b7 09 0d
        E 15 b7 09 75
        E 15 b7 09 66
        E 15 b7 09 36
        E 15 b7 09 28
        E 15 b7 09 11
        E 15 b7 09 39
        E 15 b7 09 26
        E 15 b7 09 1f
        E 15 b7 09 30
        E 15 b7 09 42
        E 15 b7 09 4d
        E 15 b7 09 52
        E 15 b7 09 15
        E 15 b7 09 4c
        E 15 b7 09 71
        E 15 b7 09 41
        E 15 b7 09 4a
        E 15 b7 09 03
        E 15 b7 09 09
        E 15 b7 09 7d
        E 15 b7 09 53
        E 15 b7 09 17
        E 15 b7 09 74
        E 15 b7 09 29
        E 15 b7 09 31
        E 15 b7 09 3e
        E 15 b7 09 33
        E 15 b7 09 55
        E 15 b7 09 67
        E 15 b7 09 25
        E 15 b7 09 48
        E 15 b7 09 1d
        E 15 b7 09 72
        E 15 b7 09 69
        E 15 b7 09 3a
        E 15 b7 09 2e
        E 15 b7 09 64
        E 15 b7 09 2f
        E 15 b7 09 59
        E 15 b7 09 12
        E 15 b7 09 02
        E 15 b7 09 2a
        E 15 b7 09 40
        E 15 b7 09 6d
        E 15 b7 09 62
        E 15 b7 09 04
        E 15 b7 09 6e
        E 15 b7 09 5d
        E 15 b7 09 07
        E 15 b7 09 27
        E 15 b7 09 4b
        E 15 b7 09 5f
        E 15 b7 09 7a
        E 15 b7 09 4e
        E 15 b7 09 35
        E 15 b7 09 23
        E 15 b7 09 58
        E 15 b7 09 5c
        E 15 b7 09 70
        E 15 b7 09 7c
        E 15 b7 09 3c
        E 15 b7 09 51
        E 15 b7 09 57
        E 15 b7 09 43
        E 15 b7 09 77
        E 15 b7 09 13
        E 15 b7 09 2d
        E 15 b7 09 54
        E 11 b7 09 0c
        E 11 b7 09 0d
        E 11 b7 09 0e
        E 11 b7 09 0e
        E 11 b7 09 0f
        E 11 b7 09 0f
        E 11 b7 09 10
        E 11 b7 09 11
        E 11 b7 09 11
        E 11 b7 09 12
        E 11 b7 09 12
        E 11 b7 09 13
        E 11 b7 09 13
        E 11 b7 09 14
        E 11 b7 09 14
        E 11 b7 09 15
        E 11 b7 09 15
        E 11 b7 09 16
        E 11 b7 09 16
        E 11 b7 09 17
        E 11 b7 09 17
        E 11 b7 09 17
        E 11 b7 09 18
        E 11 b7 09 18
        E 11 b7 09 18
        E 11 b7 09 18
        E 11 b7 09 18
        E 11 b7 09 19
        E 11 b7 09 19
        E 11 b7 09 19
        E 11 b7 09 19
        E 11 b7 09 19
        E 11 b7 09 19
        E 11 b7 09 19
        E 11 b7 09 19
        E 11 b7 09 19
        E 11 b7 09 19
        E 11 b7 09 19
        E 11 b7 09 18
        E 11 b7 09 18
        E 11 b7 09 18
        E 11 b7 09 18
        E 11 b7 09 17
        E 11 b7 09 17
        E 11 b7 09 17
        E 11 b7 09 16
        E 11 b7 09 16
        E 11 b7 09 16
        E 11 b7 09 15
        E 11 b7 09 15
        E 11 b7 09 14
        E 11 b7 09 14
        E 11 b7 09 13
        E 11 b7 09 13
        E 11 b7 09 12
        E 11 b7 09 11
        E 11 b7 09 11
        E 11 b7 09 10
        E 11 b7 09 10
        E 11 b7 09 0f
        E 11 b7 09 0e
        E 11 b7 09 0e
        E 11 b7 09 0d
        E 11 b7 09 0d
        E 11 b7 09 0c
        E 11 b7 09 0b
        E 11 b7 09 0b
        E 11 b7 09 0a
        E 11 b7 09 09
        E 11 b7 09 09
        E 11 b7 09 08
        E 11 b7 09 08
        E 11 b7 09 07
        E 11 b7 09 07
        E 11 b7 09 06
        E 11 b7 09 05
        E 11 b7 09 05
        E 11 b7 09 04
        E 11 b7 09 04
        E 11 b7 09 03
        E 11 b7 09 03
        E 11 b7 09 03
        E 11 b7 09 02
        E 11 b7 09 02
        E 11 b7 09 02
        E 11 b7 09 01
        E 11 b7 09 01
        E 11 b7 09 01
        E 11 b7 09 00
        E 11 b7 09 00
        E 11 b7 09 00
        E 11 b7 09 00
        E 11 b7 09 00
        E 11 b7 09 00
        E 11 b7 09 00
        E 11 b7 09 00
        E 11 b7 09 00
        E 11 b7 09 00
        E 11 b7 09 00
        E 11 b7 09 00
        E 11 b7 09 00
        E 11 b7 09 00
        E 11 b7 09 00
        E 11 b7 09 01
        E 11 b7 09 01
        E 11 b7 09 01
        E 11 b7 09 01
        E 11 b7 09 02
        E 11 b7 09 02
        E 11 b7 09 02
        E 11 b7 09 03
        E 11 b7 09 03
        E 11 b7 09 04
        E 11 b7 09 04
        E 11 b7 09 05
        E 11 b7 09 05
        E 11 b7 09 06
        E 11 b7 09 06
        E 11 b7 09 07
        E 11 b7 09 07
        E 11 b7 09 08
        E 11 b7 09 09
        E 11 b7 09 09
        E 11 b7 09 0a
        E 11 b7 09 0a
        E 11 b7 09 0b
        E 11 b7 09 0c
        E 11 b7 09 0c
        E 8 b7 09 2c
        E 8 b7 09 2e
        E 8 b7 09 31
        E 8 b7 09 33
        E 8 b7 09 35
        E 8 b7 09 37
        E 8 b7 09 39
        E 8 b7 09 3b
        E 8 b7 09 3d
        E 8 b7 09 3f
        E 8 b7 09 41
        E 8 b7 09 43
        E 8 b7 09 45
        E 8 b7 09 47
        E 8 b7 09 48
        E 8 b7 09 4a
        E 8 b7 09 4c
        E 8 b7 09 4d
        E 8 b7 09 4f
        E 8 b7 09 50
        E 8 b7 09 51
        E 8 b7 09 52
        E 8 b7 09 54
        E 8 b7 09 54
        E 8 b7 09 55
        E 8 b7 09 56
        E 8 b7 09 56
        E 8 b7 09 57
        E 8 b7 09 58
        E 8 b7 09 58
        E 8 b7 09 58
        E 8 b7 09 58
        E 8 b7 09 58
        E 8 b7 09 58
        E 8 b7 09 58
        E 8 b7 09 58
        E 8 b7 09 58
        E 8 b7 09 57
        E 8 b7 09 56
        E 8 b7 09 56
        E 8 b7 09 55
        E 8 b7 09 54
        E 8 b7 09 53
        E 8 b7 09 51
        E 8 b7 09 51
        E 8 b7 09 4f
        E 8 b7 09 4e
        E 8 b7 09 4d
        E 8 b7 09 4b
        E 8 b7 09 49
        E 8 b7 09 48
        E 8 b7 09 46
        E 8 b7 09 44
        E 8 b7 09 42
        E 8 b7 09 40
        E 8 b7 09 3e
        E 8 b7 09 3c
        E 8 b7 09 3a
        E 8 b7 09 38
        E 8 b7 09 36
        E 8 b7 09 33
        E 8 b7 09 31
        E 8 b7 09 2f
        E 8 b7 09 2d
        E 8 b7 09 2b
        E 8 b7 09 29
        E 8 b7 09 27
        E 8 b7 09 25
        E 8 b7 09 22
        E 8 b7 09 20
        E 8 b7 09 1e
        E 8 b7 09 1c
        E 8 b7 09 1a
        E 8 b7 09 18
        E 8 b7 09 16
        E 8 b7 09 14
        E 8 b7 09 12
        E 8 b7 09 10
        E 8 b7 09 0f
        E 8 b7 09 0d
        E 8 b7 09 0b
        E 8 b7 09 0a
        E 8 b7 09 09
        E 8 b7 09 07
        E 8 b7 09 07
        E 8 b7 09 05
        E 8 b7 09 04
        E 8 b7 09 03
        E 8 b7 09 02
        E 8 b7 09 02
        E 8 b7 09 01
        E 8 b7 09 00
        E 8 b7 09 00
        E 8 b7 09 00
        E 8 b7 09 00
        E 8 b7 09 00
        E 8 b7 09 00
        E 8 b7 09 00
        E 8 b7 09 00
        E 8 b7 09 00
        E 8 b7 09 01
        E 8 b7 09 02
        E 8 b7 09 02
        E 8 b7 09 03
        E 8 b7 09 04
        E 8 b7 09 04
        E 8 b7 09 06
        E 8 b7 09 07
        E 8 b7 09 08
        E 8 b7 09 09
        E 8 b7 09 0b
        E 8 b7 09 0c
        E 8 b7 09 0e
        E 8 b7 09 10
        E 8 b7 09 11
        E 8 b7 09 13
        E 8 b7 09 15
        E 8 b7 09 17
        E 8 b7 09 19
        E 8 b7 09 1b
        E 8 b7 09 1d
        E 8 b7 09 1f
        E 8 b7 09 21
        E 8 b7 09 23
        E 8 b7 09 25
        E 8 b7 09 27
        E 8 b7 09 2a
        E 8 b7 09 2c
        E 2 b7 09 19
        E 2 b7 09 1a
        E 2 b7 09 1c
        E 2 b7 09 1d
        E 2 b7 09 1e
        E 2 b7 09 1f
        E 2 b7 09 20
        E 2 b7 09 22
        E 2 b7 09 23
        E 2 b7 09 24
        E 2 b7 09 25
        E 2 b7 09 26
        E 2 b7 09 27
        E 2 b7 09 28
        E 2 b7 09 29
        E 2 b7 09 2a
        E 2 b7 09 2b
        E 2 b7 09 2c
        E 2 b7 09 2d
        E 2 b7 09 2e
        E 2 b7 09 2e
        E 2 b7 09 2f
        E 2 b7 09 30
        E 2 b7 09 30
        E 2 b7 09 30
        E 2 b7 09 31
        E 2 b7 09 31
        E 2 b7 09 32
        E 2 b7 09 32
        E 2 b7 09 32
        E 2 b7 09 32
        E 2 b7 09 32
        E 2 b7 09 32
        E 2 b7 09 32
        E 2 b7 09 32
        E 2 b7 09 32
        E 2 b7 09 32
        E 2 b7 09 32
        E 2 b7 09 31
        E 2 b7 09 31
        E 2 b7 09 30
        E 2 b7 09 30
        E 2 b7 09 2f
        E 2 b7 09 2e
        E 2 b7 09 2e
        E 2 b7 09 2d
        E 2 b7 09 2c
        E 2 b7 09 2c
        E 2 b7 09 2b
        E 2 b7 09 2a
        E 2 b7 09 29
        E 2 b7 09 28
        E 2 b7 09 27
        E 2 b7 09 26
        E 2 b7 09 24
        E 2 b7 09 23
        E 2 b7 09 22
        E 2 b7 09 21
        E 2 b7 09 20
        E 2 b7 09 1f
        E 2 b7 09 1d
        E 2 b7 09 1c
        E 2 b7 09 1b
        E 2 b7 09 1a
        E 2 b7 09 18
        E 2 b7 09 17
        E 2 b7 09 16
        E 2 b7 09 15
        E 2 b7 09 13
        E 2 b7 09 12
        E 2 b7 09 11
        E 2 b7 09 10
        E 2 b7 09 0f
        E 2 b7 09 0e
        E 2 b7 09 0c
        E 2 b7 09 0b
        E 2 b7 09 0a
        E 2 b7 09 09
        E 2 b7 09 08
        E 2 b7 09 07
        E 2 b7 09 06
        E 2 b7 09 06
        E 2 b7 09 05
        E 2 b7 09 04
        E 2 b7 09 04
        E 2 b7 09 03
        E 2 b7 09 02
        E 2 b7 09 02
        E 2 b7 09 01
        E 2 b7 09 01
        E 2 b7 09 00
        E 2 b7 09 00
        E 2 b7 09 00
        E 2 b7 09 00
        E 2 b7 09 00
        E 2 b7 09 00
        E 2 b7 09 00
        E 2 b7 09 00
        E 2 b7 09 00
        E 2 b7 09 00
        E 2 b7 09 00
        E 2 b7 09 01
        E 2 b7 09 01
        E 2 b7 09 02
        E 2 b7 09 02
        E 2 b7 09 02
        E 2 b7 09 03
        E 2 b7 09 04
        E 2 b7 09 04
        E 2 b7 09 05
        E 2 b7 09 06
        E 2 b7 09 07
        E 2 b7 09 08
        E 2 b7 09 09
        E 2 b7 09 0a
        E 2 b7 09 0b
        E 2 b7 09 0c
        E 2 b7 09 0d
        E 2 b7 09 0e
        E 2 b7 09 0f
        E 2 b7 09 10
        E 2 b7 09 12
        E 2 b7 09 13
        E 2 b7 09 14
        E 2 b7 09 15
        E 2 b7 09 16
        E 2 b7 09 18
        E 2 b7 09 19
        E 19 b7 09 40
        E 19 b7 09 43
        E 19 b7 09 46
        E 19 b7 09 49
        E 19 b7 09 4c
        E 19 b7 09 4f
        E 19 b7 09 52
        E 19 b7 09 55
        E 19 b7 09 58
        E 19 b7 09 5b
        E 19 b7 09 5e
        E 19 b7 09 60
        E 19 b7 09 63
        E 19 b7 09 66
        E 19 b7 09 68
        E 19 b7 09 6a
        E 19 b7 09 6d
        E 19 b7 09 6f
        E 19 b7 09 71
        E 19 b7 09 73
        E 19 b7 09 75
        E 19 b7 09 76
        E 19 b7 09 78
        E 19 b7 09 79
        E 19 b7 09 7a
        E 19 b7 09 7b
        E 19 b7 09 7c
        E 19 b7 09 7d
        E 19 b7 09 7e
        E 19 b7 09 7e
        E 19 b7 09 7f
        E 19 b7 09 7f
        E 19 b7 09 7f
        E 19 b7 09 7f
        E 19 b7 09 7f
        E 19 b7 09 7e
        E 19 b7 09 7e
        E 19 b7 09 7d
        E 19 b7 09 7c
        E 19 b7 09 7b
        E 19 b7 09 7a
        E 19 b7 09 78
        E 19 b7 09 77
        E 19 b7 09 75
        E 19 b7 09 74
        E 19 b7 09 72
        E 19 b7 09 70
        E 19 b7 09 6e
        E 19 b7 09 6c
        E 19 b7 09 69
        E 19 b7 09 67
        E 19 b7 09 64
        E 19 b7 09 62
        E 19 b7 09 5f
        E 19 b7 09 5c
        E 19 b7 09 59
        E 19 b7 09 57
        E 19 b7 09 54
        E 19 b7 09 51
        E 19 b7 09 4e
        E 19 b7 09 4a
        E 19 b7 09 47
        E 19 b7 09 44
        E 19 b7 09 41
        E 19 b7 09 3e
        E 19 b7 09 3b
        E 19 b7 09 38
        E 19 b7 09 35
        E 19 b7 09 31
        E 19 b7 09 2e
        E 19 b7 09 2b
        E 19 b7 09 28
        E 19 b7 09 26
        E 19 b7 09 23
        E 19 b7 09 20
        E 19 b7 09 1d
        E 19 b7 09 1b
        E 19 b7 09 18
        E 19 b7 09 16
        E 19 b7 09 13
        E 19 b7 09 11
        E 19 b7 09 0f
        E 19 b7 09 0d
        E 19 b7 09 0b
        E 19 b7 09 0a
        E 19 b7 09 08
        E 19 b7 09 07
        E 19 b7 09 05
        E 19 b7 09 04
        E 19 b7 09 03
        E 19 b7 09 02
        E 19 b7 09 01
        E 19 b7 09 01
        E 19 b7 09 00
        E 19 b7 09 00
        E 19 b7 09 00
        E 19 b7 09 00
        E 19 b7 09 00
        E 19 b7 09 01
        E 19 b7 09 01
        E 19 b7 09 02
        E 19 b7 09 03
        E 19 b7 09 04
        E 19 b7 09 05
        E 19 b7 09 06
        E 19 b7 09 07
        E 19 b7 09 09
        E 19 b7 09 0a
        E 19 b7 09 0c
        E 19 b7 09 0e
        E 19 b7 09 10
        E 19 b7 09 12
        E 19 b7 09 15
        E 19 b7 09 17
        E 19 b7 09 19
        E 19 b7 09 1c
        E 19 b7 09 1f
        E 19 b7 09 21
        E 19 b7 09 24
        E 19 b7 09 27
        E 19 b7 09 2a
        E 19 b7 09 2d
        E 19 b7 09 30
        E 19 b7 09 33
        E 19 b7 09 36
        E 19 b7 09 39
        E 19 b7 09 3c
        E 19 b7 09 40
        E 4 b7 09 39
        E 4 b7 09 3c
        E 4 b7 09 3f
        E 4 b7 09 41
        E 4 b7 09 44
        E 4 b7 09 47
        E 4 b7 09 49
        E 4 b7 09 4c
        E 4 b7 09 4f
        E 4 b7 09 51
        E 4 b7 09 54
        E 4 b7 09 56
        E 4 b7 09 59
        E 4 b7 09 5b
        E 4 b7 09 5d
        E 4 b7 09 5f
        E 4 b7 09 62
        E 4 b7 09 63
        E 4 b7 09 65
        E 4 b7 09 67
        E 4 b7 09 69
        E 4 b7 09 6a
        E 4 b7 09 6c
        E 4 b7 09 6c
        E 4 b7 09 6d
        E 4 b7 09 6e
        E 4 b7 09 6f
        E 4 b7 09 70
        E 4 b7 09 71
        E 4 b7 09 71
        E 4 b7 09 72
        E 4 b7 09 72
        E 4 b7 09 72
        E 4 b7 09 72
        E 4 b7 09 72
        E 4 b7 09 71
        E 4 b7 09 71
        E 4 b7 09 70
        E 4 b7 09 6f
        E 4 b7 09 6e
        E 4 b7 09 6d
        E 4 b7 09 6c
        E 4 b7 09 6b
        E 4 b7 09 69
        E 4 b7 09 68
        E 4 b7 09 66
        E 4 b7 09 64
        E 4 b7 09 63
        E 4 b7 09 61
        E 4 b7 09 5e
        E 4 b7 09 5c
        E 4 b7 09 5a
        E 4 b7 09 58
        E 4 b7 09 55
        E 4 b7 09 52
        E 4 b7 09 50
        E 4 b7 09 4e
        E 4 b7 09 4b
        E 4 b7 09 48
        E 4 b7 09 46
        E 4 b7 09 42
        E 4 b7 09 3f
        E 4 b7 09 3d
        E 4 b7 09 3a
        E 4 b7 09 37
        E 4 b7 09 35
        E 4 b7 09 32
        E 4 b7 09 2f
        E 4 b7 09 2c
        E 4 b7 09 29
        E 4 b7 09 26
        E 4 b7 09 24
        E 4 b7 09 22
        E 4 b7 09 1f
        E 4 b7 09 1c
        E 4 b7 09 1a
        E 4 b7 09 18
        E 4 b7 09 15
        E 4 b7 09 13
        E 4 b7 09 11
        E 4 b7 09 0f
        E 4 b7 09 0d
        E 4 b7 09 0b
        E 4 b7 09 09
        E 4 b7 09 09
        E 4 b7 09 07
        E 4 b7 09 06
        E 4 b7 09 04
        E 4 b7 09 03
        E 4 b7 09 02
        E 4 b7 09 01
        E 4 b7 09 00
        E 4 b7 09 00
        E 4 b7 09 00
        E 4 b7 09 00
        E 4 b7 09 00
        E 4 b7 09 00
        E 4 b7 09 00
        E 4 b7 09 00
        E 4 b7 09 00
        E 4 b7 09 01
        E 4 b7 09 02
        E 4 b7 09 03
        E 4 b7 09 04
        E 4 b7 09 05
        E 4 b7 09 06
        E 4 b7 09 08
        E 4 b7 09 09
        E 4 b7 09 0a
        E 4 b7 09 0c
        E 4 b7 09 0e
        E 4 b7 09 10
        E 4 b7 09 12
        E 4 b7 09 14
        E 4 b7 09 16
        E 4 b7 09 19
        E 4 b7 09 1b
        E 4 b7 09 1d
        E 4 b7 09 20
        E 4 b7 09 23
        E 4 b7 09 25
        E 4 b7 09 28
        E 4 b7 09 2b
        E 4 b7 09 2d
        E 4 b7 09 30
        E 4 b7 09 33
        E 4 b7 09 36
        E 4 b7 09 39
        E 2 b7 09 26
        E 2 b7 09 28
        E 2 b7 09 2a
        E 2 b7 09 2b
        E 2 b7 09 2d
        E 2 b7 09 2f
        E 2 b7 09 31
        E 2 b7 09 33
        E 2 b7 09 34
        E 2 b7 09 36
        E 2 b7 09 38
        E 2 b7 09 39
        E 2 b7 09 3b
        E 2 b7 09 3d
        E 2 b7 09 3e
        E 2 b7 09 3f
        E 2 b7 09 41
        E 2 b7 09 42
        E 2 b7 09 43
        E 2 b7 09 45
        E 2 b7 09 46
        E 2 b7 09 46
        E 2 b7 09 48
        E 2 b7 09 48
        E 2 b7 09 49
        E 2 b7 09 49
        E 2 b7 09 4a
        E 2 b7 09 4b
        E 2 b7 09 4b
        E 2 b7 09 4b
        E 2 b7 09 4c
        E 2 b7 09 4c
        E 2 b7 09 4c
        E 2 b7 09 4c
        E 2 b7 09 4c
        E 2 b7 09 4b
        E 2 b7 09 4b
        E 2 b7 09 4b
        E 2 b7 09 4a
        E 2 b7 09 49
        E 2 b7 09 49
        E 2 b7 09 48
        E 2 b7 09 47
        E 2 b7 09 46
        E 2 b7 09 45
        E 2 b7 09 44
        E 2 b7 09 43
        E 2 b7 09 42
        E 2 b7 09 40
        E 2 b7 09 3f
        E 2 b7 09 3d
        E 2 b7 09 3c
        E 2 b7 09 3a
        E 2 b7 09 39
        E 2 b7 09 37
        E 2 b7 09 35
        E 2 b7 09 34
        E 2 b7 09 32
        E 2 b7 09 30
        E 2 b7 09 2e
        E 2 b7 09 2c
        E 2 b7 09 2a
        E 2 b7 09 28
        E 2 b7 09 27
        E 2 b7 09 25
        E 2 b7 09 23
        E 2 b7 09 21
        E 2 b7 09 1f
        E 2 b7 09 1d
        E 2 b7 09 1b
        E 2 b7 09 19
        E 2 b7 09 18
        E 2 b7 09 16
        E 2 b7 09 15
        E 2 b7 09 13
        E 2 b7 09 11
        E 2 b7 09 10
        E 2 b7 09 0e
        E 2 b7 09 0d
        E 2 b7 09 0b
        E 2 b7 09 0a
        E 2 b7 09 09
        E 2 b7 09 07
        E 2 b7 09 06
        E 2 b7 09 06
        E 2 b7 09 04
        E 2 b7 09 04
        E 2 b7 09 03
        E 2 b7 09 02
        E 2 b7 09 01
        E 2 b7 09 01
        E 2 b7 09 00
        E 2 b7 09 00
        E 2 b7 09 00
        E 2 b7 09 00
        E 2 b7 09 00
        E 2 b7 09 00
        E 2 b7 09 00
        E 2 b7 09 00
        E 2 b7 09 00
        E 2 b7 09 01
        E 2 b7 09 01
        E 2 b7 09 02
        E 2 b7 09 03
        E 2 b7 09 03
        E 2 b7 09 04
        E 2 b7 09 05
        E 2 b7 09 06
        E 2 b7 09 07
        E 2 b7 09 08
        E 2 b7 09 09
        E 2 b7 09 0a
        E 2 b7 09 0c
        E 2 b7 09 0d
        E 2 b7 09 0f
        E 2 b7 09 10
        E 2 b7 09 12
        E 2 b7 09 13
        E 2 b7 09 15
        E 2 b7 09 17
        E 2 b7 09 19
        E 2 b7 09 1b
        E 2 b7 09 1c
        E 2 b7 09 1e
        E 2 b7 09 20
        E 2 b7 09 22
        E 2 b7 09 24
        E 2 b7 09 26
        E 11 b7 09 0c
        E 11 b7 09 0d
        E 11 b7 09 0e
        E 11 b7 09 0e
        E 11 b7 09 0f
        E 11 b7 09 0f
        E 11 b7 09 10
        E 11 b7 09 11
        E 11 b7 09 11
        E 11 b7 09 12
        E 11 b7 09 12
        E 11 b7 09 13
        E 11 b7 09 13
        E 11 b7 09 14
        E 11 b7 09 14
        E 11 b7 09 15
        E 11 b7 09 15
        E 11 b7 09 16
        E 11 b7 09 16
        E 11 b7 09 17
        E 11 b7 09 17
        E 11 b7 09 17
        E 11 b7 09 18
        E 11 b7 09 18
        E 11 b7 09 18
        E 11 b7 09 18
        E 11 b7 09 18
        E 11 b7 09 19
        E 11 b7 09 19
        E 11 b7 09 19
        E 11 b7 09 19
        E 11 b7 09 19
        E 11 b7 09 19
        E 11 b7 09 19
        E 11 b7 09 19
        E 11 b7 09 19
        E 11 b7 09 19
        E 11 b7 09 19
        E 11 b7 09 18
        E 11 b7 09 18
        E 11 b7 09 18
        E 11 b7 09 18
        E 11 b7 09 17
        E 11 b7 09 17
        E 11 b7 09 17
        E 11 b7 09 16
        E 11 b7 09 16
        E 11 b7 09 16
        E 11 b7 09 15
        E 11 b7 09 15
        E 11 b7 09 14
        E 11 b7 09 14
        E 11 b7 09 13
        E 11 b7 09 13
        E 11 b7 09 12
        E 11 b7 09 11
        E 11 b7 09 11
        E 11 b7 09 10
        E 11 b7 09 10
        E 11 b7 09 0f
        E 11 b7 09 0e
        E 11 b7 09 0e
        E 11 b7 09 0d
        E 11 b7 09 0d
        E 11 b7 09 0c
        E 11 b7 09 0b
        E 11 b7 09 0b
        E 11 b7 09 0a
        E 11 b7 09 09
        E 11 b7 09 09
        E 11 b7 09 08
        E 11 b7 09 08
        E 11 b7 09 07
        E 11 b7 09 07
        E 11 b7 09 06
        E 11 b7 09 05
        E 11 b7 09 05
        E 11 b7 09 04
        E 11 b7 09 04
        E 11 b7 09 03
        E 11 b7 09 03
        E 11 b7 09 03
        E 11 b7 09 02
        E 11 b7 09 02
        E 11 b7 09 02
        E 11 b7 09 01
        E 11 b7 09 01
        E 11 b7 09 01
        E 11 b7 09 00
        E 11 b7 09 00
        E 11 b7 09 00
        E 11 b7 09 00
        E 11 b7 09 00
        E 11 b7 09 00
        E 11 b7 09 00
        E 11 b7 09 00
        E 11 b7 09 00
        E 11 b7 09 00
        E 11 b7 09 00
        E 11 b7 09 00
        E 11 b7 09 00
        E 11 b7 09 00
        E 11 b7 09 00
        E 11 b7 09 01
        E 11 b7 09 01
        E 11 b7 09 01
        E 11 b7 09 01
        E 11 b7 09 02
        E 11 b7 09 02
        E 11 b7 09 02
        E 11 b7 09 03
        E 11 b7 09 03
        E 11 b7 09 04
        E 11 b7 09 04
        E 11 b7 09 05
        E 11 b7 09 05
        E 11 b7 09 06
        E 11 b7 09 06
        E 11 b7 09 07
        E 11 b7 09 07
        E 11 b7 09 08
        E 11 b7 09 09
        E 11 b7 09 09
        E 11 b7 09 0a
        E 11 b7 09 0a
        E 11 b7 09 0b
        E 11 b7 09 0c
        E 11 b7 09 0c
        E 8 b7 09 2c
        E 8 b7 09 2e
        E 8 b7 09 31
        E 8 b7 09 33
        E 8 b7 09 35
        E 8 b7 09 37
        E 8 b7 09 39
        E 8 b7 09 3b
        E 8 b7 09 3d
        E 8 b7 09 3f
        E 8 b7 09 41
        E 8 b7 09 43
        E 8 b7 09 45
        E 8 b7 09 47
        E 8 b7 09 48
        E 8 b7 09 4a
        E 8 b7 09 4c
        E 8 b7 09 4d
        E 8 b7 09 4f
        E 8 b7 09 50
        E 8 b7 09 51
        E 8 b7 09 52
        E 8 b7 09 54
        E 8 b7 09 54
        E 8 b7 09 55
        E 8 b7 09 56
        E 8 b7 09 56
        E 8 b7 09 57
        E 8 b7 09 58
        E 8 b7 09 58
        E 8 b7 09 58
        E 8 b7 09 58
        E 8 b7 09 58
        E 8 b7 09 58
        E 8 b7 09 58
        E 8 b7 09 58
        E 8 b7 09 58
        E 8 b7 09 57
        E 8 b7 09 56
        E 8 b7 09 56
        E 8 b7 09 55
        E 8 b7 09 54
        E 8 b7 09 53
        E 8 b7 09 51
        E 8 b7 09 51
        E 8 b7 09 4f
        E 8 b7 09 4e
        E 8 b7 09 4d
        E 8 b7 09 4b
        E 8 b7 09 49
        E 8 b7 09 48
        E 8 b7 09 46
        E 8 b7 09 44
        E 8 b7 09 42
        E 8 b7 09 40
        E 8 b7 09 3e
        E 8 b7 09 3c
        E 8 b7 09 3a
        E 8 b7 09 38
        E 8 b7 09 36
        E 8 b7 09 33
        E 8 b7 09 31
        E 8 b7 09 2f
        E 8 b7 09 2d
        E 8 b7 09 2b
        E 8 b7 09 29
        E 8 b7 09 27
        E 8 b7 09 25
        E 8 b7 09 22
        E 8 b7 09 20
        E 8 b7 09 1e
        E 8 b7 09 1c
        E 8 b7 09 1a
        E 8 b7 09 18
        E 8 b7 09 16
        E 8 b7 09 14
        E 8 b7 09 12
        E 8 b7 09 10
        E 8 b7 09 0f
        E 8 b7 09 0d
        E 8 b7 09 0b
        E 8 b7 09 0a
        E 8 b7 09 09
        E 8 b7 09 07
        E 8 b7 09 07
        E 8 b7 09 05
        E 8 b7 09 04
        E 8 b7 09 03
        E 8 b7 09 02
        E 8 b7 09 02
        E 8 b7 09 01
        E 8 b7 09 00
        E 8 b7 09 00
        E 8 b7 09 00
        E 8 b7 09 00
        E 8 b7 09 00
        E 8 b7 09 00
        E 8 b7 09 00
        E 8 b7 09 00
        E 8 b7 09 00
        E 8 b7 09 01
        E 8 b7 09 02
        E 8 b7 09 02
        E 8 b7 09 03
        E 8 b7 09 04
        E 8 b7 09 04
        E 8 b7 09 06
        E 8 b7 09 07
        E 8 b7 09 08
        E 8 b7 09 09
        E 8 b7 09 0b
        E 8 b7 09 0c
        E 8 b7 09 0e
        E 8 b7 09 10
        E 8 b7 09 11
        E 8 b7 09 13
        E 8 b7 09 15
        E 8 b7 09 17
        E 8 b7 09 19
        E 8 b7 09 1b
        E 8 b7 09 1d
        E 8 b7 09 1f
        E 8 b7 09 21
        E 8 b7 09 23
        E 8 b7 09 25
        E 8 b7 09 27
        E 8 b7 09 2a
        E 8 b7 09 2c
        E 2 b7 09 19
        E 2 b7 09 1a
        E 2 b7 09 1c
        E 2 b7 09 1d
        E 2 b7 09 1e
        E 2 b7 09 1f
        E 2 b7 09 20
        E 2 b7 09 22
        E 2 b7 09 23
        E 2 b7 09 24
        E 2 b7 09 25
        E 2 b7 09 26
        E 2 b7 09 27
        E 2 b7 09 28
        E 2 b7 09 29
        E 2 b7 09 2a
        E 2 b7 09 2b
        E 2 b7 09 2c
        E 2 b7 09 2d
        E 2 b7 09 2e
        E 2 b7 09 2e
        E 2 b7 09 2f
        E 2 b7 09 30
        E 2 b7 09 30
        E 2 b7 09 30
        E 2 b7 09 31
        E 2 b7 09 31
        E 2 b7 09 32
        E 2 b7 09 32
        E 2 b7 09 32
        E 2 b7 09 32
        E 2 b7 09 32
        E 2 b7 09 32
        E 2 b7 09 32
        E 2 b7 09 32
        E 2 b7 09 32
        E 2 b7 09 32
        E 2 b7 09 32
        E 2 b7 09 31
        E 2 b7 09 31
        E 2 b7 09 30
        E 2 b7 09 30
        E 2 b7 09 2f
        E 2 b7 09 2e
        E 2 b7 09 2e
        E 2 b7 09 2d
        E 2 b7 09 2c
        E 2 b7 09 2c
        E 2 b7 09 2b
        E 2 b7 09 2a
        E 2 b7 09 29
        E 2 b7 09 28
        E 2 b7 09 27
        E 2 b7 09 26
        E 2 b7 09 24
        E 2 b7 09 23
        E 2 b7 09 22
        E 2 b7 09 21
        E 2 b7 09 20
        E 2 b7 09 1f
        E 2 b7 09 1d
        E 2 b7 09 1c
        E 2 b7 09 1b
        E 2 b7 09 1a
        E 2 b7 09 18
        E 2 b7 09 17
        E 2 b7 09 16
        E 2 b7 09 15
        E 2 b7 09 13
        E 2 b7 09 12
        E 2 b7 09 11
        E 2 b7 09 10
        E 2 b7 09 0f
        E 2 b7 09 0e
        E 2 b7 09 0c
        E 2 b7 09 0b
        E 2 b7 09 0a
        E 2 b7 09 09
        E 2 b7 09 08
        E 2 b7 09 07
        E 2 b7 09 06
        E 2 b7 09 06
        E 2 b7 09 05
        E 2 b7 09 04
        E 2 b7 09 04
        E 2 b7 09 03
        E 2 b7 09 02
        E 2 b7 09 02
        E 2 b7 09 01
        E 2 b7 09 01
        E 2 b7 09 00
        E 2 b7 09 00
        E 2 b7 09 00
        E 2 b7 09 00
        E 2 b7 09 00
        E 2 b7 09 00
        E 2 b7 09 00
        E 2 b7 09 00
        E 2 b7 09 00
        E 2 b7 09 00
        E 2 b7 09 00
        E 2 b7 09 01
        E 2 b7 09 01
        E 2 b7 09 02
        E 2 b7 09 02
        E 2 b7 09 02
        E 2 b7 09 03
        E 2 b7 09 04
        E 2 b7 09 04
        E 2 b7 09 05
        E 2 b7 09 06
        E 2 b7 09 07
        E 2 b7 09 08
        E 2 b7 09 09
        E 2 b7 09 0a
        E 2 b7 09 0b
        E 2 b7 09 0c
        E 2 b7 09 0d
        E 2 b7 09 0e
        E 2 b7 09 0f
        E 2 b7 09 10
        E 2 b7 09 12
        E 2 b7 09 13
        E 2 b7 09 14
        E 2 b7 09 15
        E 2 b7 09 16
        E 2 b7 09 18
        E 2 b7 09 19
        E 19 b7 09 40
        E 19 b7 09 43
        E 19 b7 09 46
        E 19 b7 09 49
        E 19 b7 09 4c
        E 19 b7 09 4f
        E 19 b7 09 52
        E 19 b7 09 55
        E 19 b7 09 58
        E 19 b7 09 5b
        E 19 b7 09 5e
        E 19 b7 09 60
        E 19 b7 09 63
        E 19 b7 09 66
        E 19 b7 09 68
        E 19 b7 09 6a
        E 19 b7 09 6d
        E 19 b7 09 6f
        E 19 b7 09 71
        E 19 b7 09 73
        E 19 b7 09 75
        E 19 b7 09 76
        E 19 b7 09 78
        E 19 b7 09 79
        E 19 b7 09 7a
        E 19 b7 09 7b
        E 19 b7 09 7c
        E 19 b7 09 7d
        E 19 b7 09 7e
        E 19 b7 09 7e
        E 19 b7 09 7f
        E 19 b7 09 7f
        E 19 b7 09 7f
        E 19 b7 09 7f
        E 19 b7 09 7f
        E 19 b7 09 7e
        E 19 b7 09 7e
        E 19 b7 09 7d
        E 19 b7 09 7c
        E 19 b7 09 7b
        E 19 b7 09 7a
        E 19 b7 09 78
        E 19 b7 09 77
        E 19 b7 09 75
        E 19 b7 09 74
        E 19 b7 09 72
        E 19 b7 09 70
        E 19 b7 09 6e
        E 19 b7 09 6c
        E 19 b7 09 69
        E 19 b7 09 67
        E 19 b7 09 64
        E 19 b7 09 62
        E 19 b7 09 5f
        E 19 b7 09 5c
        E 19 b7 09 59
        E 19 b7 09 57
        E 19 b7 09 54
        E 19 b7 09 51
        E 19 b7 09 4e
        E 19 b7 09 4a
        E 19 b7 09 47
        E 19 b7 09 44
        E 19 b7 09 41
        E 19 b7 09 3e
        E 19 b7 09 3b
        E 19 b7 09 38
        E 19 b7 09 35
        E 19 b7 09 31
        E 19 b7 09 2e
        E 19 b7 09 2b
        E 19 b7 09 28
        E 19 b7 09 26
        E 19 b7 09 23
        E 19 b7 09 20
        E 19 b7 09 1d
        E 19 b7 09 1b
        E 19 b7 09 18
        E 19 b7 09 16
        E 19 b7 09 13
        E 19 b7 09 11
        E 19 b7 09 0f
        E 19 b7 09 0d
        E 19 b7 09 0b
        E 19 b7 09 0a
        E 19 b7 09 08
        E 19 b7 09 07
        E 19 b7 09 05
        E 19 b7 09 04
        E 19 b7 09 03
        E 19 b7 09 02
        E 19 b7 09 01
        E 19 b7 09 01
        E 19 b7 09 00
        E 19 b7 09 00
        E 19 b7 09 00
        E 19 b7 09 00
        E 19 b7 09 00
        E 19 b7 09 01
        E 19 b7 09 01
        E 19 b7 09 02
        E 19 b7 09 03
        E 19 b7 09 04
        E 19 b7 09 05
        E 19 b7 09 06
        E 19 b7 09 07
        E 19 b7 09 09
        E 19 b7 09 0a
        E 19 b7 09 0c
        E 19 b7 09 0e
        E 19 b7 09 10
        E 19 b7 09 12
        E 19 b7 09 15
        E 19 b7 09 17
        E 19 b7 09 19
        E 19 b7 09 1c
        E 19 b7 09 1f
        E 19 b7 09 21
        E 19 b7 09 24
        E 19 b7 09 27
        E 19 b7 09 2a
        E 19 b7 09 2d
        E 19 b7 09 30
        E 19 b7 09 33
        E 19 b7 09 36
        E 19 b7 09 39
        E 19 b7 09 3c
        E 19 b7 09 40
        E 4 b7 09 39
        E 4 b7 09 3c
        E 4 b7 09 3f
        E 4 b7 09 41
        E 4 b7 09 44
        E 4 b7 09 47
        E 4 b7 09 49
        E 4 b7 09 4c
        E 4 b7 09 4f
        E 4 b7 09 51
        E 4 b7 09 54
        E 4 b7 09 56
        E 4 b7 09 59
        E 4 b7 09 5b
        E 4 b7 09 5d
        E 4 b7 09 5f
        E 4 b7 09 62
        E 4 b7 09 63
        E 4 b7 09 65
        E 4 b7 09 67
        E 4 b7 09 69
        E 4 b7 09 6a
        E 4 b7 09 6c
        E 4 b7 09 6c
        E 4 b7 09 6d
        E 4 b7 09 6e
        E 4 b7 09 6f
        E 4 b7 09 70
        E 4 b7 09 71
        E 4 b7 09 71
        E 4 b7 09 72
        E 4 b7 09 72
        E 4 b7 09 72
        E 4 b7 09 72
        E 4 b7 09 72
        E 4 b7 09 71
        E 4 b7 09 71
        E 4 b7 09 70
        E 4 b7 09 6f
        E 4 b7 09 6e
        E 4 b7 09 6d
        E 4 b7 09 6c
        E 4 b7 09 6b
        E 4 b7 09 69
        E 4 b7 09 68
        E 4 b7 09 66
        E 4 b7 09 64
        E 4 b7 09 63
        E 4 b7 09 61
        E 4 b7 09 5e
        E 4 b7 09 5c
        E 4 b7 09 5a
        E 4 b7 09 58
        E 4 b7 09 55
        E 4 b7 09 52
        E 4 b7 09 50
        E 4 b7 09 4e
        E 4 b7 09 4b
        E 4 b7 09 48
        E 4 b7 09 46
        E 4 b7 09 42
        E 4 b7 09 3f
        E 4 b7 09 3d
        E 4 b7 09 3a
        E 4 b7 09 37
        E 4 b7 09 35
        E 4 b7 09 32
        E 4 b7 09 2f
        E 4 b7 09 2c
        E 4 b7 09 29
        E 4 b7 09 26
        E 4 b7 09 24
        E 4 b7 09 22
        E 4 b7 09 1f
        E 4 b7 09 1c
        E 4 b7 09 1a
        E 4 b7 09 18
        E 4 b7 09 15
        E 4 b7 09 13
        E 4 b7 09 11
        E 4 b7 09 0f
        E 4 b7 09 0d
        E 4 b7 09 0b
        E 4 b7 09 09
        E 4 b7 09 09
        E 4 b7 09 07
        E 4 b7 09 06
        E 4 b7 09 04
        E 4 b7 09 03
        E 4 b7 09 02
        E 4 b7 09 01
        E 4 b7 09 00
        E 4 b7 09 00
        E 4 b7 09 00
        E 4 b7 09 00
        E 4 b7 09 00
        E 4 b7 09 00
        E 4 b7 09 00
        E 4 b7 09 00
        E 4 b7 09 00
        E 4 b7 09 01
        E 4 b7 09 02
        E 4 b7 09 03
        E 4 b7 09 04
        E 4 b7 09 05
        E 4 b7 09 06
        E 4 b7 09 08
        E 4 b7 09 09
        E 4 b7 09 0a
        E 4 b7 09 0c
        E 4 b7 09 0e
        E 4 b7 09 10
        E 4 b7 09 12
        E 4 b7 09 14
        E 4 b7 09 16
        E 4 b7 09 19
        E 4 b7 09 1b
        E 4 b7 09 1d
        E 4 b7 09 20
        E 4 b7 09 23
        E 4 b7 09 25
        E 4 b7 09 28
        E 4 b7 09 2b
        E 4 b7 09 2d
        E 4 b7 09 30
        E 4 b7 09 33
        E 4 b7 09 36
        E 4 b7 09 39
        E 2 b7 09 26
        E 2 b7 09 28
        E 2 b7 09 2a
        E 2 b7 09 2b
        E 2 b7 09 2d
        E 2 b7 09 2f
        E 2 b7 09 31
        E 2 b7 09 33
        E 2 b7 09 34
        E 2 b7 09 36
        E 2 b7 09 38
        E 2 b7 09 39
        E 2 b7 09 3b
        E 2 b7 09 3d
        E 2 b7 09 3e
        E 2 b7 09 3f
        E 2 b7 09 41
        E 2 b7 09 42
        E 2 b7 09 43
        E 2 b7 09 45
        E 2 b7 09 46
        E 2 b7 09 46
        E 2 b7 09 48
        E 2 b7 09 48
        E 2 b7 09 49
        E 2 b7 09 49
        E 2 b7 09 4a
        E 2 b7 09 4b
        E 2 b7 09 4b
        E 2 b7 09 4b
        E 2 b7 09 4c
        E 2 b7 09 4c
        E 2 b7 09 4c
        E 2 b7 09 4c
        E 2 b7 09 4c
        E 2 b7 09 4b
        E 2 b7 09 4b
        E 2 b7 09 4b
        E 2 b7 09 4a
        E 2 b7 09 49
        E 2 b7 09 49
        E 2 b7 09 48
        E 2 b7 09 47
        E 2 b7 09 46
        E 2 b7 09 45
        E 2 b7 09 44
        E 2 b7 09 43
        E 2 b7 09 42
        E 2 b7 09 40
        E 2 b7 09 3f
        E 2 b7 09 3d
        E 2 b7 09 3c
        E 2 b7 09 3a
        E 2 b7 09 39
        E 2 b7 09 37
        E 2 b7 09 35
        E 2 b7 09 34
        E 2 b7 09 32
        E 2 b7 09 30
        E 2 b7 09 2e
        E 2 b7 09 2c
        E 2 b7 09 2a
        E 2 b7 09 28
        E 2 b7 09 27
        E 2 b7 09 25
        E 2 b7 09 23
        E 2 b7 09 21
        E 2 b7 09 1f
        E 2 b7 09 1d
        E 2 b7 09 1b
        E 2 b7 09 19
        E 2 b7 09 18
        E 2 b7 09 16
        E 2 b7 09 15
        E 2 b7 09 13
        E 2 b7 09 11
        E 2 b7 09 10
        E 2 b7 09 0e
        E 2 b7 09 0d
        E 2 b7 09 0b
        E 2 b7 09 0a
        E 2 b7 09 09
        E 2 b7 09 07
        E 2 b7 09 06
        E 2 b7 09 06
        E 2 b7 09 04
        E 2 b7 09 04
        E 2 b7 09 03
        E 2 b7 09 02
        E 2 b7 09 01
        E 2 b7 09 01
        E 2 b7 09 00
        E 2 b7 09 00
        E 2 b7 09 00
        E 2 b7 09 00
        E 2 b7 09 00
        E 2 b7 09 00
        E 2 b7 09 00
        E 2 b7 09 00
        E 2 b7 09 00
        E 2 b7 09 01
        E 2 b7 09 01
        E 2 b7 09 02
        E 2 b7 09 03
        E 2 b7 09 03
        E 2 b7 09 04
        E 2 b7 09 05
        E 2 b7 09 06
        E 2 b7 09 07
        E 2 b7 09 08
        E 2 b7 09 09
        E 2 b7 09 0a
        E 2 b7 09 0c
        E 2 b7 09 0d
        E 2 b7 09 0f
        E 2 b7 09 10
        E 2 b7 09 12
        E 2 b7 09 13
        E 2 b7 09 15
        E 2 b7 09 17
        E 2 b7 09 19
        E 2 b7 09 1b
        E 2 b7 09 1c
        E 2 b7 09 1e
        E 2 b7 09 20
        E 2 b7 09 22
        E 2 b7 09 24
        E 2 b7 09 26
        E 11 b7 09 0c
        E 11 b7 09 0d
        E 11 b7 09 0e
        E 11 b7 09 0e
        E 11 b7 09 0f
        E 11 b7 09 0f
        E 11 b7 09 10
        E 11 b7 09 11
        E 11 b7 09 11
        E 11 b7 09 12
        E 11 b7 09 12
        E 11 b7 09 13
        E 11 b7 09 13
        E 11 b7 09 14
        E 11 b7 09 14
        E 11 b7 09 15
        E 11 b7 09 15
        E 11 b7 09 16
        E 11 b7 09 16
        E 11 b7 09 17
        E 11 b7 09 17
        E 11 b7 09 17
        E 11 b7 09 18
        E 11 b7 09 18
        E 11 b7 09 18
        E 11 b7 09 18
        E 11 b7 09 18
        E 11 b7 09 19
        E 11 b7 09 19
        E 11 b7 09 19
        E 11 b7 09 19
        E 11 b7 09 19
        E 11 b7 09 19
        E 11 b7 09 19
        E 11 b7 09 19
        E 11 b7 09 19
        E 11 b7 09 19
        E 11 b7 09 19
        E 11 b7 09 18
        E 11 b7 09 18
        E 11 b7 09 18
        E 11 b7 09 18
        E 11 b7 09 17
        E 11 b7 09 17
        E 11 b7 09 17
        E 11 b7 09 16
        E 11 b7 09 16
        E 11 b7 09 16
        E 11 b7 09 15
        E 11 b7 09 15
        E 11 b7 09 14
        E 11 b7 09 14
        E 11 b7 09 13
        E 11 b7 09 13
        E 11 b7 09 12
        E 11 b7 09 11
        E 11 b7 09 11
        E 11 b7 09 10
        E 11 b7 09 10
        E 11 b7 09 0f
        E 11 b7 09 0e
        E 11 b7 09 0e
        E 11 b7 09 0d
        E 11 b7 09 0d
        E 11 b7 09 0c
        E 11 b7 09 0b
        E 11 b7 09 0b
        E 11 b7 09 0a
        E 11 b7 09 09
        E 11 b7 09 09
        E 11 b7 09 08
        E 11 b7 09 08
        E 11 b7 09 07
        E 11 b7 09 07
        E 11 b7 09 06
        E 11 b7 09 05
        E 11 b7 09 05
        E 11 b7 09 04
        E 11 b7 09 04
        E 11 b7 09 03
        E 11 b7 09 03
        E 11 b7 09 03
        E 11 b7 09 02
        E 11 b7 09 02
        E 11 b7 09 02
        E 11 b7 09 01
        E 11 b7 09 01
        E 11 b7 09 01
        E 11 b7 09 00
        E 11 b7 09 00
        E 11 b7 09 00
        E 11 b7 09 00
        E 11 b7 09 00
        E 11 b7 09 00
        E 11 b7 09 00
        E 11 b7 09 00
        E 11 b7 09 00
        E 11 b7 09 00
        E 11 b7 09 00
        E 11 b7 09 00
        E 11 b7 09 00
        E 11 b7 09 00
        E 11 b7 09 00
        E 11 b7 09 01
        E 11 b7 09 01
        E 11 b7 09 01
        E 11 b7 09 01
        E 11 b7 09 02
        E 11 b7 09 02
        E 11 b7 09 02
        E 11 b7 09 03
        E 11 b7 09 03
        E 11 b7 09 04
        E 11 b7 09 04
        E 11 b7 09 05
        E 11 b7 09 05
        E 11 b7 09 06
        E 11 b7 09 06
        E 11 b7 09 07
        E 11 b7 09 07
        E 11 b7 09 08
        E 11 b7 09 09
        E 11 b7 09 09
        E 11 b7 09 0a
        E 11 b7 09 0a
        E 11 b7 09 0b
        E 11 b7 09 0c
        E 11 b7 09 0c
        E 8 b7 09 2c
        E 8 b7 09 2e
        E 8 b7 09 31
        E 8 b7 09 33
        E 8 b7 09 35
        E 8 b7 09 37
        E 8 b7 09 39
        E 8 b7 09 3b
        E 8 b7 09 3d
        E 8 b7 09 3f
        E 8 b7 09 41
        E 8 b7 09 43
        E 8 b7 09 45
        E 8 b7 09 47
        E 8 b7 09 48
        E 8 b7 09 4a
        E 8 b7 09 4c
        E 8 b7 09 4d
        E 8 b7 09 4f
        E 8 b7 09 50
        E 8 b7 09 51
        E 8 b7 09 52
        E 8 b7 09 54
        E 8 b7 09 54
        E 8 b7 09 55
        E 8 b7 09 56
        E 8 b7 09 56
        E 8 b7 09 57
        E 8 b7 09 58
        E 8 b7 09 58
        E 8 b7 09 58
        E 8 b7 09 58
        E 8 b7 09 58
        E 8 b7 09 58
        E 8 b7 09 58
        E 8 b7 09 58
        E 8 b7 09 58
        E 8 b7 09 57
        E 8 b7 09 56
        E 8 b7 09 56
        E 8 b7 09 55
        E 8 b7 09 54
        E 8 b7 09 53
        E 8 b7 09 51
        E 8 b7 09 51
        E 8 b7 09 4f
        E 8 b7 09 4e
        E 8 b7 09 4d
        E 8 b7 09 4b
        E 8 b7 09 49
        E 8 b7 09 48
        E 8 b7 09 46
        E 8 b7 09 44
        E 8 b7 09 42
        E 8 b7 09 40
        E 8 b7 09 3e
        E 8 b7 09 3c
        E 8 b7 09 3a
        E 8 b7 09 38
        E 8 b7 09 36
        E 8 b7 09 33
        E 8 b7 09 31
        E 8 b7 09 2f
        E 8 b7 09 2d
        E 8 b7 09 2b
        E 8 b7 09 29
        E 8 b7 09 27
        E 8 b7 09 25
        E 8 b7 09 22
        E 8 b7 09 20
        E 8 b7 09 1e
        E 8 b7 09 1c
        E 8 b7 09 1a
        E 8 b7 09 18
        E 8 b7 09 16
        E 8 b7 09 14
        E 8 b7 09 12
        E 8 b7 09 10
        E 8 b7 09 0f
        E 8 b7 09 0d
        E 8 b7 09 0b
        E 8 b7 09 0a
        E 8 b7 09 09
        E 8 b7 09 07
        E 8 b7 09 07
        E 8 b7 09 05
        E 8 b7 09 04
        E 8 b7 09 03
        E 8 b7 09 02
        E 8 b7 09 02
        E 8 b7 09 01
        E 8 b7 09 00
        E 8 b7 09 00
        E 8 b7 09 00
        E 8 b7 09 00
        E 8 b7 09 00
        E 8 b7 09 00
        E 8 b7 09 00
        E 8 b7 09 00
        E 8 b7 09 00
        E 8 b7 09 01
        E 8 b7 09 02
        E 8 b7 09 02
        E 8 b7 09 03
        E 8 b7 09 04
        E 8 b7 09 04
        E 8 b7 09 06
        E 8 b7 09 07
        E 8 b7 09 08
        E 8 b7 09 09
        E 8 b7 09 0b
        E 8 b7 09 0c
        E 8 b7 09 0e
        E 8 b7 09 10
        E 8 b7 09 11
        E 8 b7 09 13
        E 8 b7 09 15
        E 8 b7 09 17
        E 8 b7 09 19
        E 8 b7 09 1b
        E 8 b7 09 1d
        E 8 b7 09 1f
        E 8 b7 09 21
        E 8 b7 09 23
        E 8 b7 09 25
        E 8 b7 09 27
        E 8 b7 09 2a
        E 8 b7 09 2c
        E 3 b7 09 19
        E 3 b7 09 56
        E 3 b7 09 38
        E 3 b7 09 09
        E 3 b7 09 51
        E 3 b7 09 48
        E 3 b7 09 0a
        E 3 b7 09 09
        E 3 b7 09 36
        E 3 b7 09 6c
        E 3 b7 09 5a
        E 3 b7 09 63
        E 3 b7 09 47
        E 3 b7 09 0c
        E 3 b7 09 15
        E 3 b7 09 4d
        E 3 b7 09 3f
        E 3 b7 09 20
        E 3 b7 09 16
        E 3 b7 09 1e
        E 3 b7 09 59
        E 3 b7 09 35
        E 3 b7 09 1b
        E 3 b7 09 41
        E 3 b7 09 71
        E 3 b7 09 00
        E 3 b7 09 0e
        E 3 b7 09 2e
        E 3 b7 09 26
        E 3 b7 09 5d
        E 3 b7 09 18
        E 3 b7 09 07
        E 3 b7 09 12
        E 3 b7 09 13
        E 3 b7 09 67
        E 3 b7 09 1c
        E 3 b7 09 00
        E 3 b7 09 54
        E 3 b7 09 27
        E 3 b7 09 17
        E 3 b7 09 2d
        E 3 b7 09 1d
        E 3 b7 09 61
        E 3 b7 09 60
        E 3 b7 09 72
        E 3 b7 09 5f
        E 3 b7 09 31
        E 3 b7 09 6a
        E 3 b7 09 51
        E 3 b7 09 0d
        E 3 b7 09 32
        E 3 b7 09 3d
        E 3 b7 09 6c
        E 3 b7 09 57
        E 3 b7 09 3e
        E 3 b7 09 3f
        E 3 b7 09 05
        E 3 b7 09 0b
        E 3 b7 09 69
        E 3 b7 09 5b
        E 3 b7 09 30
        E 3 b7 09 24
        E 3 b7 09 0f
        E 3 b7 09 33
        E 3 b7 09 22
        E 3 b7 09 1b
        E 3 b7 09 2b
        E 3 b7 09 3b
        E 3 b7 09 45
        E 3 b7 09 49
        E 3 b7 09 12
        E 3 b7 09 44
        E 3 b7 09 65
        E 3 b7 09 3a
        E 3 b7 09 42
        E 3 b7 09 02
        E 3 b7 09 08
        E 3 b7 09 70
        E 3 b7 09 4a
        E 3 b7 09 14
        E 3 b7 09 68
        E 3 b7 09 24
        E 3 b7 09 2c
        E 3 b7 09 37
        E 3 b7 09 2d
        E 3 b7 09 4c
        E 3 b7 09 5c
        E 3 b7 09 21
        E 3 b7 09 40
        E 3 b7 09 1a
        E 3 b7 09 66
        E 3 b7 09 5e
        E 3 b7 09 34
        E 3 b7 09 29
        E 3 b7 09 5a
        E 3 b7 09 2a
        E 3 b7 09 50
        E 3 b7 09 10
        E 3 b7 09 01
        E 3 b7 09 25
        E 3 b7 09 39
        E 3 b7 09 62
        E 3 b7 09 58
        E 3 b7 09 03
        E 3 b7 09 63
        E 3 b7 09 53
        E 3 b7 09 06
        E 3 b7 09 23
        E 3 b7 09 43
        E 3 b7 09 55
        E 3 b7 09 6d
        E 3 b7 09 46
        E 3 b7 09 2f
        E 3 b7 09 1f
        E 3 b7 09 4f
        E 3 b7 09 52
        E 3 b7 09 64
        E 3 b7 09 6f
        E 3 b7 09 36
        E 3 b7 09 48
        E 3 b7 09 4e
        E 3 b7 09 3c
        E 3 b7 09 6b
        E 3 b7 09 11
        E 3 b7 09 28
        E 3 b7 09 4b
        E 1 b7 09 10
        E 1 b7 09 39
        E 1 b7 09 25
        E 1 b7 09 06
        E 1 b7 09 36
        E 1 b7 09 30
        E 1 b7 09 07
        E 1 b7 09 06
        E 1 b7 09 24
        E 1 b7 09 48
        E 1 b7 09 3c
        E 1 b7 09 42
        E 1 b7 09 2f
        E 1 b7 09 08
        E 1 b7 09 0e
        E 1 b7 09 33
        E 1 b7 09 2a
        E 1 b7 09 15
        E 1 b7 09 0f
        E 1 b7 09 14
        E 1 b7 09 3b
        E 1 b7 09 23
        E 1 b7 09 12
        E 1 b7 09 2b
        E 1 b7 09 4b
        E 1 b7 09 00
        E 1 b7 09 09
        E 1 b7 09 1f
        E 1 b7 09 19
        E 1 b7 09 3e
        E 1 b7 09 10
        E 1 b7 09 04
        E 1 b7 09 0c
        E 1 b7 09 0d
        E 1 b7 09 45
        E 1 b7 09 13
        E 1 b7 09 00
        E 1 b7 09 38
        E 1 b7 09 1a
        E 1 b7 09 0f
        E 1 b7 09 1e
        E 1 b7 09 13
        E 1 b7 09 40
        E 1 b7 09 40
        E 1 b7 09 4c
        E 1 b7 09 3f
        E 1 b7 09 21
        E 1 b7 09 46
        E 1 b7 09 36
        E 1 b7 09 09
        E 1 b7 09 21
        E 1 b7 09 28
        E 1 b7 09 48
        E 1 b7 09 3a
        E 1 b7 09 29
        E 1 b7 09 2a
        E 1 b7 09 03
        E 1 b7 09 07
        E 1 b7 09 46
        E 1 b7 09 3d
        E 1 b7 09 20
        E 1 b7 09 18
        E 1 b7 09 0a
        E 1 b7 09 22
        E 1 b7 09 16
        E 1 b7 09 12
        E 1 b7 09 1c
        E 1 b7 09 27
        E 1 b7 09 2e
        E 1 b7 09 31
        E 1 b7 09 0c
        E 1 b7 09 2d
        E 1 b7 09 43
        E 1 b7 09 27
        E 1 b7 09 2c
        E 1 b7 09 01
        E 1 b7 09 05
        E 1 b7 09 4b
        E 1 b7 09 31
        E 1 b7 09 0d
        E 1 b7 09 45
        E 1 b7 09 18
        E 1 b7 09 1d
        E 1 b7 09 25
        E 1 b7 09 1e
        E 1 b7 09 33
        E 1 b7 09 3d
        E 1 b7 09 16
        E 1 b7 09 2b
        E 1 b7 09 11
        E 1 b7 09 44
        E 1 b7 09 3f
        E 1 b7 09 22
        E 1 b7 09 1b
        E 1 b7 09 3c
        E 1 b7 09 1c
        E 1 b7 09 35
        E 1 b7 09 0a
        E 1 b7 09 01
        E 1 b7 09 19
        E 1 b7 09 26
        E 1 b7 09 41
        E 1 b7 09 3a
        E 1 b7 09 02
        E 1 b7 09 42
        E 1 b7 09 37
        E 1 b7 09 04
        E 1 b7 09 17
        E 1 b7 09 2d
        E 1 b7 09 39
        E 1 b7 09 49
        E 1 b7 09 2e
        E 1 b7 09 1f
        E 1 b7 09 15
        E 1 b7 09 34
        E 1 b7 09 37
        E 1 b7 09 43
        E 1 b7 09 4a
        E 1 b7 09 24
        E 1 b7 09 30
        E 1 b7 09 34
        E 1 b7 09 28
        E 1 b7 09 47
        E 1 b7 09 0b
        E 1 b7 09 1b
        E 1 b7 09 32
        E 8 b7 09 05
        E 8 b7 09 13
        E 8 b7 09 0c
        E 8 b7 09 02
        E 8 b7 09 12
        E 8 b7 09 10
        E 8 b7 09 02
        E 8 b7 09 02
        E 8 b7 09 0c
        E 8 b7 09 18
        E 8 b7 09 14
        E 8 b7 09 16
        E 8 b7 09 0f
        E 8 b7 09 02
        E 8 b7 09 04
        E 8 b7 09 11
        E 8 b7 09 0e
        E 8 b7 09 07
        E 8 b7 09 05
        E 8 b7 09 06
        E 8 b7 09 13
        E 8 b7 09 0b
        E 8 b7 09 06
        E 8 b7 09 0e
        E 8 b7 09 19
        E 8 b7 09 00
        E 8 b7 09 03
        E 8 b7 09 0a
        E 8 b7 09 08
        E 8 b7 09 14
        E 8 b7 09 05
        E 8 b7 09 01
        E 8 b7 09 04
        E 8 b7 09 04
        E 8 b7 09 17
        E 8 b7 09 06
        E 8 b7 09 00
        E 8 b7 09 12
        E 8 b7 09 08
        E 8 b7 09 05
        E 8 b7 09 0a
        E 8 b7 09 06
        E 8 b7 09 15
        E 8 b7 09 15
        E 8 b7 09 19
        E 8 b7 09 15
        E 8 b7 09 0b
        E 8 b7 09 17
        E 8 b7 09 12
        E 8 b7 09 03
        E 8 b7 09 0b
        E 8 b7 09 0d
        E 8 b7 09 18
        E 8 b7 09 13
        E 8 b7 09 0d
        E 8 b7 09 0e
        E 8 b7 09 01
        E 8 b7 09 02
        E 8 b7 09 17
        E 8 b7 09 14
        E 8 b7 09 0a
        E 8 b7 09 08
        E 8 b7 09 03
        E 8 b7 09 0b
        E 8 b7 09 07
        E 8 b7 09 06
        E 8 b7 09 09
        E 8 b7 09 0d
        E 8 b7 09 0f
        E 8 b7 09 10
        E 8 b7 09 04
        E 8 b7 09 0f
        E 8 b7 09 16
        E 8 b7 09 0d
        E 8 b7 09 0e
        E 8 b7 09 00
        E 8 b7 09 01
        E 8 b7 09 19
        E 8 b7 09 10
        E 8 b7 09 04
        E 8 b7 09 17
        E 8 b7 09 08
        E 8 b7 09 09
        E 8 b7 09 0c
        E 8 b7 09 0a
        E 8 b7 09 11
        E 8 b7 09 14
        E 8 b7 09 07
        E 8 b7 09 0e
        E 8 b7 09 05
        E 8 b7 09 16
        E 8 b7 09 15
        E 8 b7 09 0b
        E 8 b7 09 09
        E 8 b7 09 14
        E 8 b7 09 09
        E 8 b7 09 11
        E 8 b7 09 03
        E 8 b7 09 00
        E 8 b7 09 08
        E 8 b7 09 0c
        E 8 b7 09 15
        E 8 b7 09 13
        E 8 b7 09 00
        E 8 b7 09 16
        E 8 b7 09 12
        E 8 b7 09 01
        E 8 b7 09 07
        E 8 b7 09 0f
        E 8 b7 09 13
        E 8 b7 09 18
        E 8 b7 09 0f
        E 8 b7 09 0a
        E 8 b7 09 07
        E 8 b7 09 11
        E 8 b7 09 12
        E 8 b7 09 16
        E 8 b7 09 18
        E 8 b7 09 0c
        E 8 b7 09 10
        E 8 b7 09 11
        E 8 b7 09 0d
        E 8 b7 09 17
        E 8 b7 09 03
        E 8 b7 09 09
        E 8 b7 09 10
        E 6 b7 09 13
        E 6 b7 09 43
        E 6 b7 09 2c
        E 6 b7 09 07
        E 6 b7 09 3e
        E 6 b7 09 38
        E 6 b7 09 08
        E 6 b7 09 07
        E 6 b7 09 2a
        E 6 b7 09 54
        E 6 b7 09 46
        E 6 b7 09 4d
        E 6 b7 09 37
        E 6 b7 09 09
        E 6 b7 09 10
        E 6 b7 09 3c
        E 6 b7 09 31
        E 6 b7 09 19
        E 6 b7 09 11
        E 6 b7 09 17
        E 6 b7 09 45
        E 6 b7 09 29
        E 6 b7 09 15
        E 6 b7 09 33
        E 6 b7 09 58
        E 6 b7 09 00
        E 6 b7 09 0b
        E 6 b7 09 24
        E 6 b7 09 1e
        E 6 b7 09 48
        E 6 b7 09 12
        E 6 b7 09 05
        E 6 b7 09 0e
        E 6 b7 09 0f
        E 6 b7 09 50
        E 6 b7 09 16
        E 6 b7 09 00
        E 6 b7 09 41
        E 6 b7 09 1e
        E 6 b7 09 12
        E 6 b7 09 23
        E 6 b7 09 17
        E 6 b7 09 4b
        E 6 b7 09 4a
        E 6 b7 09 58
        E 6 b7 09 4a
        E 6 b7 09 26
        E 6 b7 09 52
        E 6 b7 09 3f
        E 6 b7 09 0a
        E 6 b7 09 27
        E 6 b7 09 2f
        E 6 b7 09 54
        E 6 b7 09 43
        E 6 b7 09 30
        E 6 b7 09 31
        E 6 b7 09 04
        E 6 b7 09 09
        E 6 b7 09 51
        E 6 b7 09 47
        E 6 b7 09 25
        E 6 b7 09 1c
        E 6 b7 09 0b
        E 6 b7 09 27
        E 6 b7 09 1a
        E 6 b7 09 15
        E 6 b7 09 21
        E 6 b7 09 2e
        E 6 b7 09 35
        E 6 b7 09 39
        E 6 b7 09 0e
        E 6 b7 09 35
        E 6 b7 09 4f
        E 6 b7 09 2d
        E 6 b7 09 33
        E 6 b7 09 02
        E 6 b7 09 06
        E 6 b7 09 57
        E 6 b7 09 3a
        E 6 b7 09 10
        E 6 b7 09 51
        E 6 b7 09 1c
        E 6 b7 09 22
        E 6 b7 09 2b
        E 6 b7 09 23
        E 6 b7 09 3b
        E 6 b7 09 48
        E 6 b7 09 19
        E 6 b7 09 32
        E 6 b7 09 14
        E 6 b7 09 4f
        E 6 b7 09 49
        E 6 b7 09 28
        E 6 b7 09 20
        E 6 b7 09 46
        E 6 b7 09 20
        E 6 b7 09 3e
        E 6 b7 09 0c
        E 6 b7 09 01
        E 6 b7 09 1d
        E 6 b7 09 2c
        E 6 b7 09 4c
        E 6 b7 09 44
        E 6 b7 09 02
        E 6 b7 09 4d
        E 6 b7 09 41
        E 6 b7 09 04
        E 6 b7 09 1b
        E 6 b7 09 34
        E 6 b7 09 42
        E 6 b7 09 55
        E 6 b7 09 36
        E 6 b7 09 25
        E 6 b7 09 18
        E 6 b7 09 3d
        E 6 b7 09 40
        E 6 b7 09 4e
        E 6 b7 09 56
        E 6 b7 09 2a
        E 6 b7 09 38
        E 6 b7 09 3c
        E 6 b7 09 2e
        E 6 b7 09 53
        E 6 b7 09 0d
        E 6 b7 09 1f
        E 6 b7 09 3a
        E 1 b7 09 0b
        E 1 b7 09 26
        E 1 b7 09 19
        E 1 b7 09 04
        E 1 b7 09 24
        E 1 b7 09 20
        E 1 b7 09 04
        E 1 b7 09 04
        E 1 b7 09 18
        E 1 b7 09 30
        E 1 b7 09 28
        E 1 b7 09 2c
        E 1 b7 09 1f
        E 1 b7 09 05
        E 1 b7 09 09
        E 1 b7 09 22
        E 1 b7 09 1c
        E 1 b7 09 0e
        E 1 b7 09 0a
        E 1 b7 09 0d
        E 1 b7 09 27
        E 1 b7 09 17
        E 1 b7 09 0c
        E 1 b7 09 1d
        E 1 b7 09 32
        E 1 b7 09 00
        E 1 b7 09 06
        E 1 b7 09 14
        E 1 b7 09 11
        E 1 b7 09 29
        E 1 b7 09 0a
        E 1 b7 09 03
        E 1 b7 09 08
        E 1 b7 09 08
        E 1 b7 09 2e
        E 1 b7 09 0c
        E 1 b7 09 00
        E 1 b7 09 25
        E 1 b7 09 11
        E 1 b7 09 0a
        E 1 b7 09 14
        E 1 b7 09 0d
        E 1 b7 09 2b
        E 1 b7 09 2a
        E 1 b7 09 32
        E 1 b7 09 2a
        E 1 b7 09 16
        E 1 b7 09 2f
        E 1 b7 09 24
        E 1 b7 09 06
        E 1 b7 09 16
        E 1 b7 09 1b
        E 1 b7 09 30
        E 1 b7 09 26
        E 1 b7 09 1b
        E 1 b7 09 1c
        E 1 b7 09 02
        E 1 b7 09 05
        E 1 b7 09 2e
        E 1 b7 09 28
        E 1 b7 09 15
        E 1 b7 09 10
        E 1 b7 09 06
        E 1 b7 09 16
        E 1 b7 09 0f
        E 1 b7 09 0c
        E 1 b7 09 13
        E 1 b7 09 1a
        E 1 b7 09 1e
        E 1 b7 09 20
        E 1 b7 09 08
        E 1 b7 09 1e
        E 1 b7 09 2d
        E 1 b7 09 1a
        E 1 b7 09 1d
        E 1 b7 09 01
        E 1 b7 09 03
        E 1 b7 09 32
        E 1 b7 09 21
        E 1 b7 09 09
        E 1 b7 09 2e
        E 1 b7 09 10
        E 1 b7 09 13
        E 1 b7 09 18
        E 1 b7 09 14
        E 1 b7 09 22
        E 1 b7 09 29
        E 1 b7 09 0e
        E 1 b7 09 1c
        E 1 b7 09 0b
        E 1 b7 09 2d
        E 1 b7 09 2a
        E 1 b7 09 17
        E 1 b7 09 12
        E 1 b7 09 28
        E 1 b7 09 12
        E 1 b7 09 23
        E 1 b7 09 07
        E 1 b7 09 00
        E 1 b7 09 10
        E 1 b7 09 19
        E 1 b7 09 2b
        E 1 b7 09 27
        E 1 b7 09 01
        E 1 b7 09 2c
        E 1 b7 09 25
        E 1 b7 09 02
        E 1 b7 09 0f
        E 1 b7 09 1e
        E 1 b7 09 26
        E 1 b7 09 30
        E 1 b7 09 1f
        E 1 b7 09 15
        E 1 b7 09 0e
        E 1 b7 09 23
        E 1 b7 09 24
        E 1 b7 09 2c
        E 1 b7 09 31
        E 1 b7 09 18
        E 1 b7 09 20
        E 1 b7 09 22
        E 1 b7 09 1a
        E 1 b7 09 2f
        E 1 b7 09 07
        E 1 b7 09 12
        E 1 b7 09 21
        E 15 b7 09 1c
        E 15 b7 09 60
        E 15 b7 09 3f
        E 15 b7 09 0a
        E 15 b7 09 5a
        E 15 b7 09 50
        E 15 b7 09 0c
        E 15 b7 09 0b
        E 15 b7 09 3d
        E 15 b7 09 78
        E 15 b7 09 65
        E 15 b7 09 6f
        E 15 b7 09 4f
        E 15 b7 09 0e
        E 15 b7 09 18
        E 15 b7 09 56
        E 15 b7 09 46
        E 15 b7 09 24
        E 15 b7 09 19
        E 15 b7 09 22
        E 15 b7 09 63
        E 15 b7 09 3b
        E 15 b7 09 1e
        E 15 b7 09 49
        E 15 b7 09 7e
        E 15 b7 09 00
        E 15 b7 09 10
        E 15 b7 09 34
        E 15 b7 09 2b
        E 15 b7 09 68
        E 15 b7 09 1b
        E 15 b7 09 08
        E 15 b7 09 14
        E 15 b7 09 16
        E 15 b7 09 73
        E 15 b7 09 20
        E 15 b7 09 01
        E 15 b7 09 5e
        E 15 b7 09 2c
        E 15 b7 09 1a
        E 15 b7 09 32
        E 15 b7 09 21
        E 15 b7 09 6c
        E 15 b7 09 6b
        E 15 b7 09 7f
        E 15 b7 09 6a
        E 15 b7 09 37
        E 15 b7 09 76
        E 15 b7 09 5b
        E 15 b7 09 0f
        E 15 b7 09 38
        E 15 b7 09 44
        E 15 b7 09 79
        E 15 b7 09 61
        E 15 b7 09 45
        E 15 b7 09 47
        E 15 b7 09 06
        E 15 b7 09 0d
        E 15 b7 09 75
        E 15 b7 09 66
        E 15 b7 09 36
        E 15 b7 09 28
        E 15 b7 09 11
        E 15 b7 09 39
        E 15 b7 09 26
        E 15 b7 09 1f
        E 15 b7 09 30
        E 15 b7 09 42
        E 15 b7 09 4d
        E 15 b7 09 52
        E 15 b7 09 15
        E 15 b7 09 4c
        E 15 b7 09 71
        E 15 b7 09 41
        E 15 b7 09 4a
        E 15 b7 09 03
        E 15 b7 09 09
        E 15 b7 09 7d
        E 15 b7 09 53
        E 15 b7 09 17
        E 15 b7 09 74
        E 15 b7 09 29
        E 15 b7 09 31
        E 15 b7 09 3e
        E 15 b7 09 33
        E 15 b7 09 55
        E 15 b7 09 67
        E 15 b7 09 25
        E 15 b7 09 48
        E 15 b7 09 1d
        E 15 b7 09 72
        E 15 b7 09 69
        E 15 b7 09 3a
        E 15 b7 09 2e
        E 15 b7 09 64
        E 15 b7 09 2f
        E 15 b7 09 59
        E 15 b7 09 12
        E 15 b7 09 02
        E 15 b7 09 2a
        E 15 b7 09 40
        E 15 b7 09 6d
        E 15 b7 09 62
        E 15 b7 09 04
        E 15 b7 09 6e
        E 15 b7 09 5d
        E 15 b7 09 07
        E 15 b7 09 27
        E 15 b7 09 4b
        E 15 b7 09 5f
        E 15 b7 09 7a
        E 15 b7 09 4e
        E 15 b7 09 35
        E 15 b7 09 23
        E 15 b7 09 58
        E 15 b7 09 5c
        E 15 b7 09 70
        E 15 b7 09 7c
        E 15 b7 09 3c
        E 15 b7 09 51
        E 15 b7 09 57
        E 15 b7 09 43
        E 15 b7 09 77
        E 15 b7 09 13
        E 15 b7 09 2d
        E 15 b7 09 54
        E 3 b7 09 19
        E 3 b7 09 56
        E 3 b7 09 38
        E 3 b7 09 09
        E 3 b7 09 51
        E 3 b7 09 48
        E 3 b7 09 0a
        E 3 b7 09 09
        E 3 b7 09 36
        E 3 b7 09 6c
        E 3 b7 09 5a
        E 3 b7 09 63
        E 3 b7 09 47
        E 3 b7 09 0c
        E 3 b7 09 15
        E 3 b7 09 4d
        E 3 b7 09 3f
        E 3 b7 09 20
        E 3 b7 09 16
        E 3 b7 09 1e
        E 3 b7 09 59
        E 3 b7 09 35
        E 3 b7 09 1b
        E 3 b7 09 41
        E 3 b7 09 71
        E 3 b7 09 00
        E 3 b7 09 0e
        E 3 b7 09 2e
        E 3 b7 09 26
        E 3 b7 09 5d
        E 3 b7 09 18
        E 3 b7 09 07
        E 3 b7 09 12
        E 3 b7 09 13
        E 3 b7 09 67
        E 3 b7 09 1c
        E 3 b7 09 00
        E 3 b7 09 54
        E 3 b7 09 27
        E 3 b7 09 17
        E 3 b7 09 2d
        E 3 b7 09 1d
        E 3 b7 09 61
        E 3 b7 09 60
        E 3 b7 09 72
        E 3 b7 09 5f
        E 3 b7 09 31
        E 3 b7 09 6a
        E 3 b7 09 51
        E 3 b7 09 0d
        E 3 b7 09 32
        E 3 b7 09 3d
        E 3 b7 09 6c
        E 3 b7 09 57
        E 3 b7 09 3e
        E 3 b7 09 3f
        E 3 b7 09 05
        E 3 b7 09 0b
        E 3 b7 09 69
        E 3 b7 09 5b
        E 3 b7 09 30
        E 3 b7 09 24
        E 3 b7 09 0f
        E 3 b7 09 33
        E 3 b7 09 22
        E 3 b7 09 1b
        E 3 b7 09 2b
        E 3 b7 09 3b
        E 3 b7 09 45
        E 3 b7 09 49
        E 3 b7 09 12
        E 3 b7 09 44
        E 3 b7 09 65
        E 3 b7 09 3a
        E 3 b7 09 42
        E 3 b7 09 02
        E 3 b7 09 08
        E 3 b7 09 70
        E 3 b7 09 4a
        E 3 b7 09 14
        E 3 b7 09 68
        E 3 b7 09 24
        E 3 b7 09 2c
        E 3 b7 09 37
        E 3 b7 09 2d
        E 3 b7 09 4c
        E 3 b7 09 5c
        E 3 b7 09 21
        E 3 b7 09 40
        E 3 b7 09 1a
        E 3 b7 09 66
        E 3 b7 09 5e
        E 3 b7 09 34
        E 3 b7 09 29
        E 3 b7 09 5a
        E 3 b7 09 2a
        E 3 b7 09 50
        E 3 b7 09 10
        E 3 b7 09 01
        E 3 b7 09 25
        E 3 b7 09 39
        E 3 b7 09 62
        E 3 b7 09 58
        E 3 b7 09 03
        E 3 b7 09 63
        E 3 b7 09 53
        E 3 b7 09 06
        E 3 b7 09 23
        E 3 b7 09 43
        E 3 b7 09 55
        E 3 b7 09 6d
        E 3 b7 09 46
        E 3 b7 09 2f
        E 3 b7 09 1f
        E 3 b7 09 4f
        E 3 b7 09 52
        E 3 b7 09 64
        E 3 b7 09 6f
        E 3 b7 09 36
        E 3 b7 09 48
        E 3 b7 09 4e
        E 3 b7 09 3c
        E 3 b7 09 6b
        E 3 b7 09 11
        E 3 b7 09 28
        E 3 b7 09 4b
        E 1 b7 09 10
        E 1 b7 09 39
        E 1 b7 09 25
        E 1 b7 09 06
        E 1 b7 09 36
        E 1 b7 09 30
        E 1 b7 09 07
        E 1 b7 09 06
        E 1 b7 09 24
        E 1 b7 09 48
        E 1 b7 09 3c
        E 1 b7 09 42
        E 1 b7 09 2f
        E 1 b7 09 08
        E 1 b7 09 0e
        E 1 b7 09 33
        E 1 b7 09 2a
        E 1 b7 09 15
        E 1 b7 09 0f
        E 1 b7 09 14
        E 1 b7 09 3b
        E 1 b7 09 23
        E 1 b7 09 12
        E 1 b7 09 2b
        E 1 b7 09 4b
        E 1 b7 09 00
        E 1 b7 09 09
        E 1 b7 09 1f
        E 1 b7 09 19
        E 1 b7 09 3e
        E 1 b7 09 10
        E 1 b7 09 04
        E 1 b7 09 0c
        E 1 b7 09 0d
        E 1 b7 09 45
        E 1 b7 09 13
        E 1 b7 09 00
        E 1 b7 09 38
        E 1 b7 09 1a
        E 1 b7 09 0f
        E 1 b7 09 1e
        E 1 b7 09 13
        E 1 b7 09 40
        E 1 b7 09 40
        E 1 b7 09 4c
        E 1 b7 09 3f
        E 1 b7 09 21
        E 1 b7 09 46
        E 1 b7 09 36
        E 1 b7 09 09
        E 1 b7 09 21
        E 1 b7 09 28
        E 1 b7 09 48
        E 1 b7 09 3a
        E 1 b7 09 29
        E 1 b7 09 2a
        E 1 b7 09 03
        E 1 b7 09 07
        E 1 b7 09 46
        E 1 b7 09 3d
        E 1 b7 09 20
        E 1 b7 09 18
        E 1 b7 09 0a
        E 1 b7 09 22
        E 1 b7 09 16
        E 1 b7 09 12
        E 1 b7 09 1c
        E 1 b7 09 27
        E 1 b7 09 2e
        E 1 b7 09 31
        E 1 b7 09 0c
        E 1 b7 09 2d
        E 1 b7 09 43
        E 1 b7 09 27
        E 1 b7 09 2c
        E 1 b7 09 01
        E 1 b7 09 05
        E 1 b7 09 4b
        E 1 b7 09 31
        E 1 b7 09 0d
        E 1 b7 09 45
        E 1 b7 09 18
        E 1 b7 09 1d
        E 1 b7 09 25
        E 1 b7 09 1e
        E 1 b7 09 33
        E 1 b7 09 3d
        E 1 b7 09 16
        E 1 b7 09 2b
        E 1 b7 09 11
        E 1 b7 09 44
        E 1 b7 09 3f
        E 1 b7 09 22
        E 1 b7 09 1b
        E 1 b7 09 3c
        E 1 b7 09 1c
        E 1 b7 09 35
        E 1 b7 09 0a
        E 1 b7 09 01
        E 1 b7 09 19
        E 1 b7 09 26
        E 1 b7 09 41
        E 1 b7 09 3a
        E 1 b7 09 02
        E 1 b7 09 42
        E 1 b7 09 37
        E 1 b7 09 04
        E 1 b7 09 17
        E 1 b7 09 2d
        E 1 b7 09 39
        E 1 b7 09 49
        E 1 b7 09 2e
        E 1 b7 09 1f
        E 1 b7 09 15
        E 1 b7 09 34
        E 1 b7 09 37
        E 1 b7 09 43
        E 1 b7 09 4a
        E 1 b7 09 24
        E 1 b7 09 30
        E 1 b7 09 34
        E 1 b7 09 28
        E 1 b7 09 47
        E 1 b7 09 0b
        E 1 b7 09 1b
        E 1 b7 09 32
        E 8 b7 09 05
        E 8 b7 09 13
        E 8 b7 09 0c
        E 8 b7 09 02
        E 8 b7 09 12
        E 8 b7 09 10
        E 8 b7 09 02
        E 8 b7 09 02
        E 8 b7 09 0c
        E 8 b7 09 18
        E 8 b7 09 14
        E 8 b7 09 16
        E 8 b7 09 0f
        E 8 b7 09 02
        E 8 b7 09 04
        E 8 b7 09 11
        E 8 b7 09 0e
        E 8 b7 09 07
        E 8 b7 09 05
        E 8 b7 09 06
        E 8 b7 09 13
        E 8 b7 09 0b
        E 8 b7 09 06
        E 8 b7 09 0e
        E 8 b7 09 19
        E 8 b7 09 00
        E 8 b7 09 03
        E 8 b7 09 0a
        E 8 b7 09 08
        E 8 b7 09 14
        E 8 b7 09 05
        E 8 b7 09 01
        E 8 b7 09 04
        E 8 b7 09 04
        E 8 b7 09 17
        E 8 b7 09 06
        E 8 b7 09 00
        E 8 b7 09 12
        E 8 b7 09 08
        E 8 b7 09 05
        E 8 b7 09 0a
        E 8 b7 09 06
        E 8 b7 09 15
        E 8 b7 09 15
        E 8 b7 09 19
        E 8 b7 09 15
        E 8 b7 09 0b
        E 8 b7 09 17
        E 8 b7 09 12
        E 8 b7 09 03
        E 8 b7 09 0b
        E 8 b7 09 0d
        E 8 b7 09 18
        E 8 b7 09 13
        E 8 b7 09 0d
        E 8 b7 09 0e
        E 8 b7 09 01
        E 8 b7 09 02
        E 8 b7 09 17
        E 8 b7 09 14
        E 8 b7 09 0a
        E 8 b7 09 08
        E 8 b7 09 03
        E 8 b7 09 0b
        E 8 b7 09 07
        E 8 b7 09 06
        E 8 b7 09 09
        E 8 b7 09 0d
        E 8 b7 09 0f
        E 8 b7 09 10
        E 8 b7 09 04
        E 8 b7 09 0f
        E 8 b7 09 16
        E 8 b7 09 0d
        E 8 b7 09 0e
        E 8 b7 09 00
        E 8 b7 09 01
        E 8 b7 09 19
        E 8 b7 09 10
        E 8 b7 09 04
        E 8 b7 09 17
        E 8 b7 09 08
        E 8 b7 09 09
        E 8 b7 09 0c
        E 8 b7 09 0a
        E 8 b7 09 11
        E 8 b7 09 14
        E 8 b7 09 07
        E 8 b7 09 0e
        E 8 b7 09 05
        E 8 b7 09 16
        E 8 b7 09 15
        E 8 b7 09 0b
        E 8 b7 09 09
        E 8 b7 09 14
        E 8 b7 09 09
        E 8 b7 09 11
        E 8 b7 09 03
        E 8 b7 09 00
        E 8 b7 09 08
        E 8 b7 09 0c
        E 8 b7 09 15
        E 8 b7 09 13
        E 8 b7 09 00
        E 8 b7 09 16
        E 8 b7 09 12
        E 8 b7 09 01
        E 8 b7 09 07
        E 8 b7 09 0f
        E 8 b7 09 13
        E 8 b7 09 18
        E 8 b7 09 0f
        E 8 b7 09 0a
        E 8 b7 09 07
        E 8 b7 09 11
        E 8 b7 09 12
        E 8 b7 09 16
        E 8 b7 09 18
        E 8 b7 09 0c
        E 8 b7 09 10
        E 8 b7 09 11
        E 8 b7 09 0d
        E 8 b7 09 17
        E 8 b7 09 03
        E 8 b7 09 09
        E 8 b7 09 10
        E 6 b7 09 13
        E 6 b7 09 43
        E 6 b7 09 2c
        E 6 b7 09 07
        E 6 b7 09 3e
        E 6 b7 09 38
        E 6 b7 09 08
        E 6 b7 09 07
        E 6 b7 09 2a
        E 6 b7 09 54
        E 6 b7 09 46
        E 6 b7 09 4d
        E 6 b7 09 37
        E 6 b7 09 09
        E 6 b7 09 10
        E 6 b7 09 3c
        E 6 b7 09 31
        E 6 b7 09 19
        E 6 b7 09 11
        E 6 b7 09 17
        E 6 b7 09 45
        E 6 b7 09 29
        E 6 b7 09 15
        E 6 b7 09 33
        E 6 b7 09 58
        E 6 b7 09 00
        E 6 b7 09 0b
        E 6 b7 09 24
        E 6 b7 09 1e
        E 6 b7 09 48
        E 6 b7 09 12
        E 6 b7 09 05
        E 6 b7 09 0e
        E 6 b7 09 0f
        E 6 b7 09 50
        E 6 b7 09 16
        E 6 b7 09 00
        E 6 b7 09 41
        E 6 b7 09 1e
        E 6 b7 09 12
        E 6 b7 09 23
        E 6 b7 09 17
        E 6 b7 09 4b
        E 6 b7 09 4a
        E 6 b7 09 58
        E 6 b7 09 4a
        E 6 b7 09 26
        E 6 b7 09 52
        E 6 b7 09 3f
        E 6 b7 09 0a
        E 6 b7 09 27
        E 6 b7 09 2f
        E 6 b7 09 54
        E 6 b7 09 43
        E 6 b7 09 30
        E 6 b7 09 31
        E 6 b7 09 04
        E 6 b7 09 09
        E 6 b7 09 51
        E 6 b7 09 47
        E 6 b7 09 25
        E 6 b7 09 1c
        E 6 b7 09 0b
        E 6 b7 09 27
        E 6 b7 09 1a
        E 6 b7 09 15
        E 6 b7 09 21
        E 6 b7 09 2e
        E 6 b7 09 35
        E 6 b7 09 39
        E 6 b7 09 0e
        E 6 b7 09 35
        E 6 b7 09 4f
        E 6 b7 09 2d
        E 6 b7 09 33
        E 6 b7 09 02
        E 6 b7 09 06
        E 6 b7 09 57
        E 6 b7 09 3a
        E 6 b7 09 10
        E 6 b7 09 51
        E 6 b7 09 1c
        E 6 b7 09 22
        E 6 b7 09 2b
        E 6 b7 09 23
        E 6 b7 09 3b
        E 6 b7 09 48
        E 6 b7 09 19
        E 6 b7 09 32
        E 6 b7 09 14
        E 6 b7 09 4f
        E 6 b7 09 49
        E 6 b7 09 28
        E 6 b7 09 20
        E 6 b7 09 46
        E 6 b7 09 20
        E 6 b7 09 3e
        E 6 b7 09 0c
        E 6 b7 09 01
        E 6 b7 09 1d
        E 6 b7 09 2c
        E 6 b7 09 4c
        E 6 b7 09 44
        E 6 b7 09 02
        E 6 b7 09 4d
        E 6 b7 09 41
        E 6 b7 09 04
        E 6 b7 09 1b
        E 6 b7 09 34
        E 6 b7 09 42
        E 6 b7 09 55
        E 6 b7 09 36
        E 6 b7 09 25
        E 6 b7 09 18
        E 6 b7 09 3d
        E 6 b7 09 40
        E 6 b7 09 4e
        E 6 b7 09 56
        E 6 b7 09 2a
        E 6 b7 09 38
        E 6 b7 09 3c
        E 6 b7 09 2e
        E 6 b7 09 53
        E 6 b7 09 0d
        E 6 b7 09 1f
        E 6 b7 09 3a
        E 1 b7 09 0b
        E 1 b7 09 26
        E 1 b7 09 19
        E 1 b7 09 04
        E 1 b7 09 24
        E 1 b7 09 20
        E 1 b7 09 04
        E 1 b7 09 04
        E 1 b7 09 18
        E 1 b7 09 30
        E 1 b7 09 28
        E 1 b7 09 2c
        E 1 b7 09 1f
        E 1 b7 09 05
        E 1 b7 09 09
        E 1 b7 09 22
        E 1 b7 09 1c
        E 1 b7 09 0e
        E 1 b7 09 0a
        E 1 b7 09 0d
        E 1 b7 09 27
        E 1 b7 09 17
        E 1 b7 09 0c
        E 1 b7 09 1d
        E 1 b7 09 32
        E 1 b7 09 00
        E 1 b7 09 06
        E 1 b7 09 14
        E 1 b7 09 11
        E 1 b7 09 29
        E 1 b7 09 0a
        E 1 b7 09 03
        E 1 b7 09 08
        E 1 b7 09 08
        E 1 b7 09 2e
        E 1 b7 09 0c
        E 1 b7 09 00
        E 1 b7 09 25
        E 1 b7 09 11
        E 1 b7 09 0a
        E 1 b7 09 14
        E 1 b7 09 0d
        E 1 b7 09 2b
        E 1 b7 09 2a
        E 1 b7 09 32
        E 1 b7 09 2a
        E 1 b7 09 16
        E 1 b7 09 2f
        E 1 b7 09 24
        E 1 b7 09 06
        E 1 b7 09 16
        E 1 b7 09 1b
        E 1 b7 09 30
        E 1 b7 09 26
        E 1 b7 09 1b
        E 1 b7 09 1c
        E 1 b7 09 02
        E 1 b7 09 05
        E 1 b7 09 2e
        E 1 b7 09 28
        E 1 b7 09 15
        E 1 b7 09 10
        E 1 b7 09 06
        E 1 b7 09 16
        E 1 b7 09 0f
        E 1 b7 09 0c
        E 1 b7 09 13
        E 1 b7 09 1a
        E 1 b7 09 1e
        E 1 b7 09 20
        E 1 b7 09 08
        E 1 b7 09 1e
        E 1 b7 09 2d
        E 1 b7 09 1a
        E 1 b7 09 1d
        E 1 b7 09 01
        E 1 b7 09 03
        E 1 b7 09 32
        E 1 b7 09 21
        E 1 b7 09 09
        E 1 b7 09 2e
        E 1 b7 09 10
        E 1 b7 09 13
        E 1 b7 09 18
        E 1 b7 09 14
        E 1 b7 09 22
        E 1 b7 09 29
        E 1 b7 09 0e
        E 1 b7 09 1c
        E 1 b7 09 0b
        E 1 b7 09 2d
        E 1 b7 09 2a
        E 1 b7 09 17
        E 1 b7 09 12
        E 1 b7 09 28
        E 1 b7 09 12
        E 1 b7 09 23
        E 1 b7 09 07
        E 1 b7 09 00
        E 1 b7 09 10
        E 1 b7 09 19
        E 1 b7 09 2b
        E 1 b7 09 27
        E 1 b7 09 01
        E 1 b7 09 2c
        E 1 b7 09 25
        E 1 b7 09 02
        E 1 b7 09 0f
        E 1 b7 09 1e
        E 1 b7 09 26
        E 1 b7 09 30
        E 1 b7 09 1f
        E 1 b7 09 15
        E 1 b7 09 0e
        E 1 b7 09 23
        E 1 b7 09 24
        E 1 b7 09 2c
        E 1 b7 09 31
        E 1 b7 09 18
        E 1 b7 09 20
        E 1 b7 09 22
        E 1 b7 09 1a
        E 1 b7 09 2f
        E 1 b7 09 07
        E 1 b7 09 12
        E 1 b7 09 21
        E 15 b7 09 1c
        E 15 b7 09 60
        E 15 b7 09 3f
        E 15 b7 09 0a
        E 15 b7 09 5a
        E 15 b7 09 50
        E 15 b7 09 0c
        E 15 b7 09 0b
        E 15 b7 09 3d
        E 15 b7 09 78
        E 15 b7 09 65
        E 15 b7 09 6f
        E 15 b7 09 4f
        E 15 b7 09 0e
        E 15 b7 09 18
        E 15 b7 09 56
        E 15 b7 09 46
        E 15 b7 09 24
        E 15 b7 09 19
        E 15 b7 09 22
        E 15 b7 09 63
        E 15 b7 09 3b
        E 15 b7 09 1e
        E 15 b7 09 49
        E 15 b7 09 7e
        E 15 b7 09 00
        E 15 b7 09 10
        E 15 b7 09 34
        E 15 b7 09 2b
        E 15 b7 09 68
        E 15 b7 09 1b
        E 15 b7 09 08
        E 15 b7 09 14
        E 15 b7 09 16
        E 15 b7 09 73
        E 15 b7 09 20
        E 15 b7 09 01
        E 15 b7 09 5e
        E 15 b7 09 2c
        E 15 b7 09 1a
        E 15 b7 09 32
        E 15 b7 09 21
        E 15 b7 09 6c
        E 15 b7 09 6b
        E 15 b7 09 7f
        E 15 b7 09 6a
        E 15 b7 09 37
        E 15 b7 09 76
        E 15 b7 09 5b
        E 15 b7 09 0f
        E 15 b7 09 38
        E 15 b7 09 44
        E 15 b7 09 79
        E 15 b7 09 61
        E 15 b7 09 45
        E 15 b7 09 47
        E 15 b7 09 06
        E 15 b7 09 0d
        E 15 b7 09 75
        E 15 b7 09 66
        E 15 b7 09 36
        E 15 b7 09 28
        E 15 b7 09 11
        E 15 b7 09 39
        E 15 b7 09 26
        E 15 b7 09 1f
        E 15 b7 09 30
        E 15 b7 09 42
        E 15 b7 09 4d
        E 15 b7 09 52
        E 15 b7 09 15
        E 15 b7 09 4c
        E 15 b7 09 71
        E 15 b7 09 41
        E 15 b7 09 4a
        E 15 b7 09 03
        E 15 b7 09 09
        E 15 b7 09 7d
        E 15 b7 09 53
        E 15 b7 09 17
        E 15 b7 09 74
        E 15 b7 09 29
        E 15 b7 09 31
        E 15 b7 09 3e
        E 15 b7 09 33
        E 15 b7 09 55
        E 15 b7 09 67
        E 15 b7 09 25
        E 15 b7 09 48
        E 15 b7 09 1d
        E 15 b7 09 72
        E 15 b7 09 69
        E 15 b7 09 3a
        E 15 b7 09 2e
        E 15 b7 09 64
        E 15 b7 09 2f
        E 15 b7 09 59
        E 15 b7 09 12
        E 15 b7 09 02
        E 15 b7 09 2a
        E 15 b7 09 40
        E 15 b7 09 6d
        E 15 b7 09 62
        E 15 b7 09 04
        E 15 b7 09 6e
        E 15 b7 09 5d
        E 15 b7 09 07
        E 15 b7 09 27
        E 15 b7 09 4b
        E 15 b7 09 5f
        E 15 b7 09 7a
        E 15 b7 09 4e
        E 15 b7 09 35
        E 15 b7 09 23
        E 15 b7 09 58
        E 15 b7 09 5c
        E 15 b7 09 70
        E 15 b7 09 7c
        E 15 b7 09 3c
        E 15 b7 09 51
        E 15 b7 09 57
        E 15 b7 09 43
        E 15 b7 09 77
        E 15 b7 09 13
        E 15 b7 09 2d
        E 15 b7 09 54
        E 3 b7 09 19
        E 3 b7 09 56
        E 3 b7 09 38
        E 3 b7 09 09
        E 3 b7 09 51
        E 3 b7 09 48
        E 3 b7 09 0a
        E 3 b7 09 09
        E 3 b7 09 36
        E 3 b7 09 6c
        E 3 b7 09 5a
        E 3 b7 09 63
        E 3 b7 09 47
        E 3 b7 09 0c
        E 3 b7 09 15
        E 3 b7 09 4d
        E 3 b7 09 3f
        E 3 b7 09 20
        E 3 b7 09 16
        E 3 b7 09 1e
        E 3 b7 09 59
        E 3 b7 09 35
        E 3 b7 09 1b
        E 3 b7 09 41
        E 3 b7 09 71
        E 3 b7 09 00
        E 3 b7 09 0e
        E 3 b7 09 2e
        E 3 b7 09 26
        E 3 b7 09 5d
        E 3 b7 09 18
        E 3 b7 09 07
        E 3 b7 09 12
        E 3 b7 09 13
        E 3 b7 09 67
        E 3 b7 09 1c
        E 3 b7 09 00
        E 3 b7 09 54
        E 3 b7 09 27
        E 3 b7 09 17
        E 3 b7 09 2d
        E 3 b7 09 1d
        E 3 b7 09 61
        E 3 b7 09 60
        E 3 b7 09 72
        E 3 b7 09 5f
        E 3 b7 09 31
        E 3 b7 09 6a
        E 3 b7 09 51
        E 3 b7 09 0d
        E 3 b7 09 32
        E 3 b7 09 3d
        E 3 b7 09 6c
        E 3 b7 09 57
        E 3 b7 09 3e
        E 3 b7 09 3f
        E 3 b7 09 05
        E 3 b7 09 0b
        E 3 b7 09 69
        E 3 b7 09 5b
        E 3 b7 09 30
        E 3 b7 09 24
        E 3 b7 09 0f
        E 3 b7 09 33
        E 3 b7 09 22
        E 3 b7 09 1b
        E 3 b7 09 2b
        E 3 b7 09 3b
        E 3 b7 09 45
        E 3 b7 09 49
        E 3 b7 09 12
        E 3 b7 09 44
        E 3 b7 09 65
        E 3 b7 09 3a
        E 3 b7 09 42
        E 3 b7 09 02
        E 3 b7 09 08
        E 3 b7 09 70
        E 3 b7 09 4a
        E 3 b7 09 14
        E 3 b7 09 68
        E 3 b7 09 24
        E 3 b7 09 2c
        E 3 b7 09 37
        E 3 b7 09 2d
        E 3 b7 09 4c
        E 3 b7 09 5c
        E 3 b7 09 21
        E 3 b7 09 40
        E 3 b7 09 1a
        E 3 b7 09 66
        E 3 b7 09 5e
        E 3 b7 09 34
        E 3 b7 09 29
        E 3 b7 09 5a
        E 3 b7 09 2a
        E 3 b7 09 50
        E 3 b7 09 10
        E 3 b7 09 01
        E 3 b7 09 25
        E 3 b7 09 39
        E 3 b7 09 62
        E 3 b7 09 58
        E 3 b7 09 03
        E 3 b7 09 63
        E 3 b7 09 53
        E 3 b7 09 06
        E 3 b7 09 23
        E 3 b7 09 43
        E 3 b7 09 55
        E 3 b7 09 6d
        E 3 b7 09 46
        E 3 b7 09 2f
        E 3 b7 09 1f
        E 3 b7 09 4f
        E 3 b7 09 52
        E 3 b7 09 64
        E 3 b7 09 6f
        E 3 b7 09 36
        E 3 b7 09 48
        E 3 b7 09 4e
        E 3 b7 09 3c
        E 3 b7 09 6b
        E 3 b7 09 11
        E 3 b7 09 28
        E 3 b7 09 4b
        E 1 b7 09 10
        E 1 b7 09 39
        E 1 b7 09 25
        E 1 b7 09 06
        E 1 b7 09 36
        E 1 b7 09 30
        E 1 b7 09 07
        E 1 b7 09 06
        E 1 b7 09 24
        E 1 b7 09 48
        E 1 b7 09 3c
        E 1 b7 09 42
        E 1 b7 09 2f
        E 1 b7 09 08
        E 1 b7 09 0e
        E 1 b7 09 33
        E 1 b7 09 2a
        E 1 b7 09 15
        E 1 b7 09 0f
        E 1 b7 09 14
        E 1 b7 09 3b
        E 1 b7 09 23
        E 1 b7 09 12
        E 1 b7 09 2b
        E 1 b7 09 4b
        E 1 b7 09 00
        E 1 b7 09 09
        E 1 b7 09 1f
        E 1 b7 09 19
        E 1 b7 09 3e
        E 1 b7 09 10
        E 1 b7 09 04
        E 1 b7 09 0c
        E 1 b7 09 0d
        E 1 b7 09 45
        E 1 b7 09 13
        E 1 b7 09 00
        E 1 b7 09 38
        E 1 b7 09 1a
        E 1 b7 09 0f
        E 1 b7 09 1e
        E 1 b7 09 13
        E 1 b7 09 40
        E 1 b7 09 40
        E 1 b7 09 4c
        E 1 b7 09 3f
        E 1 b7 09 21
        E 1 b7 09 46
        E 1 b7 09 36
        E 1 b7 09 09
        E 1 b7 09 21
        E 1 b7 09 28
        E 1 b7 09 48
        E 1 b7 09 3a
        E 1 b7 09 29
        E 1 b7 09 2a
        E 1 b7 09 03
        E 1 b7 09 07
        E 1 b7 09 46
        E 1 b7 09 3d
        E 1 b7 09 20
        E 1 b7 09 18
        E 1 b7 09 0a
        E 1 b7 09 22
        E 1 b7 09 16
        E 1 b7 09 12
        E 1 b7 09 1c
        E 1 b7 09 27
        E 1 b7 09 2e
        E 1 b7 09 31
        E 1 b7 09 0c
        E 1 b7 09 2d
        E 1 b7 09 43
        E 1 b7 09 27
        E 1 b7 09 2c
        E 1 b7 09 01
        E 1 b7 09 05
        E 1 b7 09 4b
        E 1 b7 09 31
        E 1 b7 09 0d
        E 1 b7 09 45
        E 1 b7 09 18
        E 1 b7 09 1d
        E 1 b7 09 25
        E 1 b7 09 1e
        E 1 b7 09 33
        E 1 b7 09 3d
        E 1 b7 09 16
        E 1 b7 09 2b
        E 1 b7 09 11
        E 1 b7 09 44
        E 1 b7 09 3f
        E 1 b7 09 22
        E 1 b7 09 1b
        E 1 b7 09 3c
        E 1 b7 09 1c
        E 1 b7 09 35
        E 1 b7 09 0a
        E 1 b7 09 01
        E 1 b7 09 19
        E 1 b7 09 26
        E 1 b7 09 41
        E 1 b7 09 3a
        E 1 b7 09 02
        E 1 b7 09 42
        E 1 b7 09 37
        E 1 b7 09 04
        E 1 b7 09 17
        E 1 b7 09 2d
        E 1 b7 09 39
        E 1 b7 09 49
        E 1 b7 09 2e
        E 1 b7 09 1f
        E 1 b7 09 15
        E 1 b7 09 34
        E 1 b7 09 37
        E 1 b7 09 43
        E 1 b7 09 4a
        E 1 b7 09 24
        E 1 b7 09 30
        E 1 b7 09 34
        E 1 b7 09 28
        E 1 b7 09 47
        E 1 b7 09 0b
        E 1 b7 09 1b
        E 1 b7 09 32
        E 8 b7 09 05
        E 8 b7 09 13
        E 8 b7 09 0c
        E 8 b7 09 02
        E 8 b7 09 12
        E 8 b7 09 10
        E 8 b7 09 02
        E 8 b7 09 02
        E 8 b7 09 0c
        E 8 b7 09 18
        E 8 b7 09 14
        E 8 b7 09 16
        E 8 b7 09 0f
        E 8 b7 09 02
        E 8 b7 09 04
        E 8 b7 09 11
        E 8 b7 09 0e
        E 8 b7 09 07
        E 8 b7 09 05
        E 8 b7 09 06
        E 8 b7 09 13
        E 8 b7 09 0b
        E 8 b7 09 06
        E 8 b7 09 0e
        E 8 b7 09 19
        E 8 b7 09 00
        E 8 b7 09 03
        E 8 b7 09 0a
        E 8 b7 09 08
        E 8 b7 09 14
        E 8 b7 09 05
        E 8 b7 09 01
        E 8 b7 09 04
        E 8 b7 09 04
        E 8 b7 09 17
        E 8 b7 09 06
        E 8 b7 09 00
        E 8 b7 09 12
        E 8 b7 09 08
        E 8 b7 09 05
        E 8 b7 09 0a
        E 8 b7 09 06
        E 8 b7 09 15
        E 8 b7 09 15
        E 8 b7 09 19
        E 8 b7 09 15
        E 8 b7 09 0b
        E 8 b7 09 17
        E 8 b7 09 12
        E 8 b7 09 03
        E 8 b7 09 0b
        E 8 b7 09 0d
        E 8 b7 09 18
        E 8 b7 09 13
        E 8 b7 09 0d
        E 8 b7 09 0e
        E 8 b7 09 01
        E 8 b7 09 02
        E 8 b7 09 17
        E 8 b7 09 14
        E 8 b7 09 0a
        E 8 b7 09 08
        E 8 b7 09 03
        E 8 b7 09 0b
        E 8 b7 09 07
        E 8 b7 09 06
        E 8 b7 09 09
        E 8 b7 09 0d
        E 8 b7 09 0f
        E 8 b7 09 10
        E 8 b7 09 04
        E 8 b7 09 0f
        E 8 b7 09 16
        E 8 b7 09 0d
        E 8 b7 09 0e
        E 8 b7 09 00
        E 8 b7 09 01
        E 8 b7 09 19
        E 8 b7 09 10
        E 8 b7 09 04
        E 8 b7 09 17
        E 8 b7 09 08
        E 8 b7 09 09
        E 8 b7 09 0c
        E 8 b7 09 0a
        E 8 b7 09 11
        E 8 b7 09 14
        E 8 b7 09 07
        E 8 b7 09 0e
        E 8 b7 09 05
        E 8 b7 09 16
        E 8 b7 09 15
        E 8 b7 09 0b
        E 8 b7 09 09
        E 8 b7 09 14
        E 8 b7 09 09
        E 8 b7 09 11
        E 8 b7 09 03
        E 8 b7 09 00
        E 8 b7 09 08
        E 8 b7 09 0c
        E 8 b7 09 15
        E 8 b7 09 13
        E 8 b7 09 00
        E 8 b7 09 16
        E 8 b7 09 12
        E 8 b7 09 01
        E 8 b7 09 07
        E 8 b7 09 0f
        E 8 b7 09 13
        E 8 b7 09 18
        E 8 b7 09 0f
        E 8 b7 09 0a
        E 8 b7 09 07
        E 8 b7 09 11
        E 8 b7 09 12
        E 8 b7 09 16
        E 8 b7 09 18
        E 8 b7 09 0c
        E 8 b7 09 10
        E 8 b7 09 11
        E 8 b7 09 0d
        E 8 b7 09 17
        E 8 b7 09 03
        E 8 b7 09 09
        E 8 b7 09 10
        E 6 b7 09 13
        E 6 b7 09 43
        E 6 b7 09 2c
        E 6 b7 09 07
        E 6 b7 09 3e
        E 6 b7 09 38
        E 6 b7 09 08
        E 6 b7 09 07
        E 6 b7 09 2a
        E 6 b7 09 54
        E 6 b7 09 46
        E 6 b7 09 4d
        E 6 b7 09 37
        E 6 b7 09 09
        E 6 b7 09 10
        E 6 b7 09 3c
        E 6 b7 09 31
        E 6 b7 09 19
        E 6 b7 09 11
        E 6 b7 09 17
        E 6 b7 09 45
        E 6 b7 09 29
        E 6 b7 09 15
        E 6 b7 09 33
        E 6 b7 09 58
        E 6 b7 09 00
        E 6 b7 09 0b
        E 6 b7 09 24
        E 6 b7 09 1e
        E 6 b7 09 48
        E 6 b7 09 12
        E 6 b7 09 05
        E 6 b7 09 0e
        E 6 b7 09 0f
        E 6 b7 09 50
        E 6 b7 09 16
        E 6 b7 09 00
        E 6 b7 09 41
        E 6 b7 09 1e
        E 6 b7 09 12
        E 6 b7 09 23
        E 6 b7 09 17
        E 6 b7 09 4b
        E 6 b7 09 4a
        E 6 b7 09 58
        E 6 b7 09 4a
        E 6 b7 09 26
        E 6 b7 09 52
        E 6 b7 09 3f
        E 6 b7 09 0a
        E 6 b7 09 27
        E 6 b7 09 2f
        E 6 b7 09 54
        E 6 b7 09 43
        E 6 b7 09 30
        E 6 b7 09 31
        E 6 b7 09 04
        E 6 b7 09 09
        E 6 b7 09 51
        E 6 b7 09 47
        E 6 b7 09 25
        E 6 b7 09 1c
        E 6 b7 09 0b
        E 6 b7 09 27
        E 6 b7 09 1a
        E 6 b7 09 15
        E 6 b7 09 21
        E 6 b7 09 2e
        E 6 b7 09 35
        E 6 b7 09 39
        E 6 b7 09 0e
        E 6 b7 09 35
        E 6 b7 09 4f
        E 6 b7 09 2d
        E 6 b7 09 33
        E 6 b7 09 02
        E 6 b7 09 06
        E 6 b7 09 57
        E 6 b7 09 3a
        E 6 b7 09 10
        E 6 b7 09 51
        E 6 b7 09 1c
        E 6 b7 09 22
        E 6 b7 09 2b
        E 6 b7 09 23
        E 6 b7 09 3b
        E 6 b7 09 48
        E 6 b7 09 19
        E 6 b7 09 32
        E 6 b7 09 14
        E 6 b7 09 4f
        E 6 b7 09 49
        E 6 b7 09 28
        E 6 b7 09 20
        E 6 b7 09 46
        E 6 b7 09 20
        E 6 b7 09 3e
        E 6 b7 09 0c
        E 6 b7 09 01
        E 6 b7 09 1d
        E 6 b7 09 2c
        E 6 b7 09 4c
        E 6 b7 09 44
        E 6 b7 09 02
        E 6 b7 09 4d
        E 6 b7 09 41
        E 6 b7 09 04
        E 6 b7 09 1b
        E 6 b7 09 34
        E 6 b7 09 42
        E 6 b7 09 55
        E 6 b7 09 36
        E 6 b7 09 25
        E 6 b7 09 18
        E 6 b7 09 3d
        E 6 b7 09 40
        E 6 b7 09 4e
        E 6 b7 09 56
        E 6 b7 09 2a
        E 6 b7 09 38
        E 6 b7 09 3c
        E 6 b7 09 2e
        E 6 b7 09 53
        E 6 b7 09 0d
        E 6 b7 09 1f
        E 6 b7 09 3a
        E 1 b7 09 0b
        E 1 b7 09 26
        E 1 b7 09 19
        E 1 b7 09 04
        E 1 b7 09 24
        E 1 b7 09 20
        E 1 b7 09 04
        E 1 b7 09 04
        E 1 b7 09 18
        E 1 b7 09 30
        E 1 b7 09 28
        E 1 b7 09 2c
        E 1 b7 09 1f
        E 1 b7 09 05
        E 1 b7 09 09
        E 1 b7 09 22
        E 1 b7 09 1c
        E 1 b7 09 0e
        E 1 b7 09 0a
        E 1 b7 09 0d
        E 1 b7 09 27
        E 1 b7 09 17
        E 1 b7 09 0c
        E 1 b7 09 1d
        E 1 b7 09 32
        E 1 b7 09 00
        E 1 b7 09 06
        E 1 b7 09 14
        E 1 b7 09 11
        E 1 b7 09 29
        E 1 b7 09 0a
        E 1 b7 09 03
        E 1 b7 09 08
        E 1 b7 09 08
        E 1 b7 09 2e
        E 1 b7 09 0c
        E 1 b7 09 00
        E 1 b7 09 25
        E 1 b7 09 11
        E 1 b7 09 0a
        E 1 b7 09 14
        E 1 b7 09 0d
        E 1 b7 09 2b
        E 1 b7 09 2a
        E 1 b7 09 32
        E 1 b7 09 2a
        E 1 b7 09 16
        E 1 b7 09 2f
        E 1 b7 09 24
        E 1 b7 09 06
        E 1 b7 09 16
        E 1 b7 09 1b
        E 1 b7 09 30
        E 1 b7 09 26
        E 1 b7 09 1b
        E 1 b7 09 1c
        E 1 b7 09 02
        E 1 b7 09 05
        E 1 b7 09 2e
        E 1 b7 09 28
        E 1 b7 09 15
        E 1 b7 09 10
        E 1 b7 09 06
        E 1 b7 09 16
        E 1 b7 09 0f
        E 1 b7 09 0c
        E 1 b7 09 13
        E 1 b7 09 1a
        E 1 b7 09 1e
        E 1 b7 09 20
        E 1 b7 09 08
        E 1 b7 09 1e
        E 1 b7 09 2d
        E 1 b7 09 1a
        E 1 b7 09 1d
        E 1 b7 09 01
        E 1 b7 09 03
        E 1 b7 09 32
        E 1 b7 09 21
        E 1 b7 09 09
        E 1 b7 09 2e
        E 1 b7 09 10
        E 1 b7 09 13
        E 1 b7 09 18
        E 1 b7 09 14
        E 1 b7 09 22
        E 1 b7 09 29
        E 1 b7 09 0e
        E 1 b7 09 1c
        E 1 b7 09 0b
        E 1 b7 09 2d
        E 1 b7 09 2a
        E 1 b7 09 17
        E 1 b7 09 12
        E 1 b7 09 28
        E 1 b7 09 12
        E 1 b7 09 23
        E 1 b7 09 07
        E 1 b7 09 00
        E 1 b7 09 10
        E 1 b7 09 19
        E 1 b7 09 2b
        E 1 b7 09 27
        E 1 b7 09 01
        E 1 b7 09 2c
        E 1 b7 09 25
        E 1 b7 09 02
        E 1 b7 09 0f
        E 1 b7 09 1e
        E 1 b7 09 26
        E 1 b7 09 30
        E 1 b7 09 1f
        E 1 b7 09 15
        E 1 b7 09 0e
        E 1 b7 09 23
        E 1 b7 09 24
        E 1 b7 09 2c
        E 1 b7 09 31
        E 1 b7 09 18
        E 1 b7 09 20
        E 1 b7 09 22
        E 1 b7 09 1a
        E 1 b7 09 2f
        E 1 b7 09 07
        E 1 b7 09 12
        E 1 b7 09 21
        E 15 b7 09 1c
        E 15 b7 09 60
        E 15 b7 09 3f
        E 15 b7 09 0a
        E 15 b7 09 5a
        E 15 b7 09 50
        E 15 b7 09 0c
        E 15 b7 09 0b
        E 15 b7 09 3d
        E 15 b7 09 78
        E 15 b7 09 65
        E 15 b7 09 6f
        E 15 b7 09 4f
        E 15 b7 09 0e
        E 15 b7 09 18
        E 15 b7 09 56
        E 15 b7 09 46
        E 15 b7 09 24
        E 15 b7 09 19
        E 15 b7 09 22
        E 15 b7 09 63
        E 15 b7 09 3b
        E 15 b7 09 1e
        E 15 b7 09 49
        E 15 b7 09 7e
        E 15 b7 09 00
        E 15 b7 09 10
        E 15 b7 09 34
        E 15 b7 09 2b
        E 15 b7 09 68
        E 15 b7 09 1b
        E 15 b7 09 08
        E 15 b7 09 14
        E 15 b7 09 16
        E 15 b7 09 73
        E 15 b7 09 20
        E 15 b7 09 01
        E 15 b7 09 5e
        E 15 b7 09 2c
        E 15 b7 09 1a
        E 15 b7 09 32
        E 15 b7 09 21
        E 15 b7 09 6c
        E 15 b7 09 6b
        E 15 b7 09 7f
        E 15 b7 09 6a
        E 15 b7 09 37
        E 15 b7 09 76
        E 15 b7 09 5b
        E 15 b7 09 0f
        E 15 b7 09 38
        E 15 b7 09 44
        E 15 b7 09 79
        E 15 b7 09 61
        E 15 b7 09 45
        E 15 b7 09 47
        E 15 b7 09 06
        E 15 b7 09 0d
        E 15 b7 09 75
        E 15 b7 09 66
        E 15 b7 09 36
        E 15 b7 09 28
        E 15 b7 09 11
        E 15 b7 09 39
        E 15 b7 09 26
        E 15 b7 09 1f
        E 15 b7 09 30
        E 15 b7 09 42
        E 15 b7 09 4d
        E 15 b7 09 52
        E 15 b7 09 15
        E 15 b7 09 4c
        E 15 b7 09 71
        E 15 b7 09 41
        E 15 b7 09 4a
        E 15 b7 09 03
        E 15 b7 09 09
        E 15 b7 09 7d
        E 15 b7 09 53
        E 15 b7 09 17
        E 15 b7 09 74
        E 15 b7 09 29
        E 15 b7 09 31
        E 15 b7 09 3e
        E 15 b7 09 33
        E 15 b7 09 55
        E 15 b7 09 67
        E 15 b7 09 25
        E 15 b7 09 48
        E 15 b7 09 1d
        E 15 b7 09 72
        E 15 b7 09 69
        E 15 b7 09 3a
        E 15 b7 09 2e
        E 15 b7 09 64
        E 15 b7 09 2f
        E 15 b7 09 59
        E 15 b7 09 12
        E 15 b7 09 02
        E 15 b7 09 2a
        E 15 b7 09 40
        E 15 b7 09 6d
        E 15 b7 09 62
        E 15 b7 09 04
        E 15 b7 09 6e
        E 15 b7 09 5d
        E 15 b7 09 07
        E 15 b7 09 27
        E 15 b7 09 4b
        E 15 b7 09 5f
        E 15 b7 09 7a
        E 15 b7 09 4e
        E 15 b7 09 35
        E 15 b7 09 23
        E 15 b7 09 58
        E 15 b7 09 5c
        E 15 b7 09 70
        E 15 b7 09 7c
        E 15 b7 09 3c
        E 15 b7 09 51
        E 15 b7 09 57
        E 15 b7 09 43
        E 15 b7 09 77
        E 15 b7 09 13
        E 15 b7 09 2d
        E 15 b7 09 54
        E 3 b7 09 19
        E 3 b7 09 56
        E 3 b7 09 38
        E 3 b7 09 09
        E 3 b7 09 51
        E 3 b7 09 48
        E 3 b7 09 0a
        E 3 b7 09 09
        E 3 b7 09 36
        E 3 b7 09 6c
        E 3 b7 09 5a
        E 3 b7 09 63
        E 3 b7 09 47
        E 3 b7 09 0c
        E 3 b7 09 15
        E 3 b7 09 4d
        E 3 b7 09 3f
        E 3 b7 09 20
        E 3 b7 09 16
        E 3 b7 09 1e
        E 3 b7 09 59
        E 3 b7 09 35
        E 3 b7 09 1b
        E 3 b7 09 41
        E 3 b7 09 71
        E 3 b7 09 00
        E 3 b7 09 0e
        E 3 b7 09 2e
        E 3 b7 09 26
        E 3 b7 09 5d
        E 3 b7 09 18
        E 3 b7 09 07
        E 3 b7 09 12
        E 3 b7 09 13
        E 3 b7 09 67
        E 3 b7 09 1c
        E 3 b7 09 00
        E 3 b7 09 54
        E 3 b7 09 27
        E 3 b7 09 17
        E 3 b7 09 2d
        E 3 b7 09 1d
        E 3 b7 09 61
        E 3 b7 09 60
        E 3 b7 09 72
        E 3 b7 09 5f
        E 3 b7 09 31
        E 3 b7 09 6a
        E 3 b7 09 51
        E 3 b7 09 0d
        E 3 b7 09 32
        E 3 b7 09 3d
        E 3 b7 09 6c
        E 3 b7 09 57
        E 3 b7 09 3e
        E 3 b7 09 3f
        E 3 b7 09 05
        E 3 b7 09 0b
        E 3 b7 09 69
        E 3 b7 09 5b
        E 3 b7 09 30
        E 3 b7 09 24
        E 3 b7 09 0f
        E 3 b7 09 33
        E 3 b7 09 22
        E 3 b7 09 1b
        E 3 b7 09 2b
        E 3 b7 09 3b
        E 3 b7 09 45
        E 3 b7 09 49
        E 3 b7 09 12
        E 3 b7 09 44
        E 3 b7 09 65
        E 3 b7 09 3a
        E 3 b7 09 42
        E 3 b7 09 02
        E 3 b7 09 08
        E 3 b7 09 70
        E 3 b7 09 4a
        E 3 b7 09 14
        E 3 b7 09 68
        E 3 b7 09 24
        E 3 b7 09 2c
        E 3 b7 09 37
        E 3 b7 09 2d
        E 3 b7 09 4c
        E 3 b7 09 5c
        E 3 b7 09 21
        E 3 b7 09 40
        E 3 b7 09 1a
        E 3 b7 09 66
        E 3 b7 09 5e
        E 3 b7 09 34
        E 3 b7 09 29
        E 3 b7 09 5a
        E 3 b7 09 2a
        E 3 b7 09 50
        E 3 b7 09 10
        E 3 b7 09 01
        E 3 b7 09 25
        E 3 b7 09 39
        E 3 b7 09 62
        E 3 b7 09 58
        E 3 b7 09 03
        E 3 b7 09 63
        E 3 b7 09 53
        E 3 b7 09 06
        E 3 b7 09 23
        E 3 b7 09 43
        E 3 b7 09 55
        E 3 b7 09 6d
        E 3 b7 09 46
        E 3 b7 09 2f
        E 3 b7 09 1f
        E 3 b7 09 4f
        E 3 b7 09 52
        E 3 b7 09 64
        E 3 b7 09 6f
        E 3 b7 09 36
        E 3 b7 09 48
        E 3 b7 09 4e
        E 3 b7 09 3c
        E 3 b7 09 6b
        E 3 b7 09 11
        E 3 b7 09 28
        E 3 b7 09 4b
        E 1 b7 09 10
        E 1 b7 09 39
        E 1 b7 09 25
        E 1 b7 09 06
        E 1 b7 09 36
        E 1 b7 09 30
        E 1 b7 09 07
        E 1 b7 09 06
        E 1 b7 09 24
        E 1 b7 09 48
        E 1 b7 09 3c
        E 1 b7 09 42
        E 1 b7 09 2f
        E 1 b7 09 08
        E 1 b7 09 0e
        E 1 b7 09 33
        E 1 b7 09 2a
        E 1 b7 09 15
        E 1 b7 09 0f
        E 1 b7 09 14
        E 1 b7 09 3b
        E 1 b7 09 23
        E 1 b7 09 12
        E 1 b7 09 2b
        E 1 b7 09 4b
        E 1 b7 09 00
        E 1 b7 09 09
        E 1 b7 09 1f
        E 1 b7 09 19
        E 1 b7 09 3e
        E 1 b7 09 10
        E 1 b7 09 04
        E 1 b7 09 0c
        E 1 b7 09 0d
        E 1 b7 09 45
        E 1 b7 09 13
        E 1 b7 09 00
        E 1 b7 09 38
        E 1 b7 09 1a
        E 1 b7 09 0f
        E 1 b7 09 1e
        E 1 b7 09 13
        E 1 b7 09 40
        E 1 b7 09 40
        E 1 b7 09 4c
        E 1 b7 09 3f
        E 1 b7 09 21
        E 1 b7 09 46
        E 1 b7 09 36
        E 1 b7 09 09
        E 1 b7 09 21
        E 1 b7 09 28
        E 1 b7 09 48
        E 1 b7 09 3a
        E 1 b7 09 29
        E 1 b7 09 2a
        E 1 b7 09 03
        E 1 b7 09 07
        E 1 b7 09 46
        E 1 b7 09 3d
        E 1 b7 09 20
        E 1 b7 09 18
        E 1 b7 09 0a
        E 1 b7 09 22
        E 1 b7 09 16
        E 1 b7 09 12
        E 1 b7 09 1c
        E 1 b7 09 27
        E 1 b7 09 2e
        E 1 b7 09 31
        E 1 b7 09 0c
        E 1 b7 09 2d
        E 1 b7 09 43
        E 1 b7 09 27
        E 1 b7 09 2c
        E 1 b7 09 01
        E 1 b7 09 05
        E 1 b7 09 4b
        E 1 b7 09 31
        E 1 b7 09 0d
        E 1 b7 09 45
        E 1 b7 09 18
        E 1 b7 09 1d
        E 1 b7 09 25
        E 1 b7 09 1e
        E 1 b7 09 33
        E 1 b7 09 3d
        E 1 b7 09 16
        E 1 b7 09 2b
        E 1 b7 09 11
        E 1 b7 09 44
        E 1 b7 09 3f
        E 1 b7 09 22
        E 1 b7 09 1b
        E 1 b7 09 3c
        E 1 b7 09 1c
        E 1 b7 09 35
        E 1 b7 09 0a
        E 1 b7 09 01
        E 1 b7 09 19
        E 1 b7 09 26
        E 1 b7 09 41
        E 1 b7 09 3a
        E 1 b7 09 02
        E 1 b7 09 42
        E 1 b7 09 37
        E 1 b7 09 04
        E 1 b7 09 17
        E 1 b7 09 2d
        E 1 b7 09 39
        E 1 b7 09 49
        E 1 b7 09 2e
        E 1 b7 09 1f
        E 1 b7 09 15
        E 1 b7 09 34
        E 1 b7 09 37
        E 1 b7 09 43
        E 1 b7 09 4a
        E 1 b7 09 24
        E 1 b7 09 30
        E 1 b7 09 34
        E 1 b7 09 28
        E 1 b7 09 47
        E 1 b7 09 0b
        E 1 b7 09 1b
        E 1 b7 09 32
        E 8 b7 09 05
        E 8 b7 09 13
        E 8 b7 09 0c
        E 8 b7 09 02
        E 8 b7 09 12
        E 8 b7 09 10
        E 8 b7 09 02
        E 8 b7 09 02
        E 8 b7 09 0c
        E 8 b7 09 18
        E 8 b7 09 14
        E 8 b7 09 16
        E 8 b7 09 0f
        E 8 b7 09 02
        E 8 b7 09 04
        E 8 b7 09 11
        E 8 b7 09 0e
        E 8 b7 09 07
        E 8 b7 09 05
        E 8 b7 09 06
        E 8 b7 09 13
        E 8 b7 09 0b
        E 8 b7 09 06
        E 8 b7 09 0e
        E 8 b7 09 19
        E 8 b7 09 00
        E 8 b7 09 03
        E 8 b7 09 0a
        E 8 b7 09 08
        E 8 b7 09 14
        E 8 b7 09 05
        E 8 b7 09 01
        E 8 b7 09 04
        E 8 b7 09 04
        E 8 b7 09 17
        E 8 b7 09 06
        E 8 b7 09 00
        E 8 b7 09 12
        E 8 b7 09 08
        E 8 b7 09 05
        E 8 b7 09 0a
        E 8 b7 09 06
        E 8 b7 09 15
        E 8 b7 09 15
        E 8 b7 09 19
        E 8 b7 09 15
        E 8 b7 09 0b
        E 8 b7 09 17
        E 8 b7 09 12
        E 8 b7 09 03
        E 8 b7 09 0b
        E 8 b7 09 0d
        E 8 b7 09 18
        E 8 b7 09 13
        E 8 b7 09 0d
        E 8 b7 09 0e
        E 8 b7 09 01
        E 8 b7 09 02
        E 8 b7 09 17
        E 8 b7 09 14
        E 8 b7 09 0a
        E 8 b7 09 08
        E 8 b7 09 03
        E 8 b7 09 0b
        E 8 b7 09 07
        E 8 b7 09 06
        E 8 b7 09 09
        E 8 b7 09 0d
        E 8 b7 09 0f
        E 8 b7 09 10
        E 8 b7 09 04
        E 8 b7 09 0f
        E 8 b7 09 16
        E 8 b7 09 0d
        E 8 b7 09 0e
        E 8 b7 09 00
        E 8 b7 09 01
        E 8 b7 09 19
        E 8 b7 09 10
        E 8 b7 09 04
        E 8 b7 09 17
        E 8 b7 09 08
        E 8 b7 09 09
        E 8 b7 09 0c
        E 8 b7 09 0a
        E 8 b7 09 11
        E 8 b7 09 14
        E 8 b7 09 07
        E 8 b7 09 0e
        E 8 b7 09 05
        E 8 b7 09 16
        E 8 b7 09 15
        E 8 b7 09 0b
        E 8 b7 09 09
        E 8 b7 09 14
        E 8 b7 09 09
        E 8 b7 09 11
        E 8 b7 09 03
        E 8 b7 09 00
        E 8 b7 09 08
        E 8 b7 09 0c
        E 8 b7 09 15
        E 8 b7 09 13
        E 8 b7 09 00
        E 8 b7 09 16
        E 8 b7 09 12
        E 8 b7 09 01
        E 8 b7 09 07
        E 8 b7 09 0f
        E 8 b7 09 13
        E 8 b7 09 18
        E 8 b7 09 0f
        E 8 b7 09 0a
        E 8 b7 09 07
        E 8 b7 09 11
        E 8 b7 09 12
        E 8 b7 09 16
        E 8 b7 09 18
        E 8 b7 09 0c
        E 8 b7 09 10
        E 8 b7 09 11
        E 8 b7 09 0d
        E 8 b7 09 17
        E 8 b7 09 03
        E 8 b7 09 09
        E 8 b7 09 10
        E 6 b7 09 13
        E 6 b7 09 43
        E 6 b7 09 2c
        E 6 b7 09 07
        E 6 b7 09 3e
        E 6 b7 09 38
        E 6 b7 09 08
        E 6 b7 09 07
        E 6 b7 09 2a
        E 6 b7 09 54
        E 6 b7 09 46
        E 6 b7 09 4d
        E 6 b7 09 37
        E 6 b7 09 09
        E 6 b7 09 10
        E 6 b7 09 3c
        E 6 b7 09 31
        E 6 b7 09 19
        E 6 b7 09 11
        E 6 b7 09 17
        E 6 b7 09 45
        E 6 b7 09 29
        E 6 b7 09 15
        E 6 b7 09 33
        E 6 b7 09 58
        E 6 b7 09 00
        E 6 b7 09 0b
        E 6 b7 09 24
        E 6 b7 09 1e
        E 6 b7 09 48
        E 6 b7 09 12
        E 6 b7 09 05
        E 6 b7 09 0e
        E 6 b7 09 0f
        E 6 b7 09 50
        E 6 b7 09 16
        E 6 b7 09 00
        E 6 b7 09 41
        E 6 b7 09 1e
        E 6 b7 09 12
        E 6 b7 09 23
        E 6 b7 09 17
        E 6 b7 09 4b
        E 6 b7 09 4a
        E 6 b7 09 58
        E 6 b7 09 4a
        E 6 b7 09 26
        E 6 b7 09 52
        E 6 b7 09 3f
        E 6 b7 09 0a
        E 6 b7 09 27
        E 6 b7 09 2f
        E 6 b7 09 54
        E 6 b7 09 43
        E 6 b7 09 30
        E 6 b7 09 31
        E 6 b7 09 04
        E 6 b7 09 09
        E 6 b7 09 51
        E 6 b7 09 47
        E 6 b7 09 25
        E 6 b7 09 1c
        E 6 b7 09 0b
        E 6 b7 09 27
        E 6 b7 09 1a
        E 6 b7 09 15
        E 6 b7 09 21
        E 6 b7 09 2e
        E 6 b7 09 35
        E 6 b7 09 39
        E 6 b7 09 0e
        E 6 b7 09 35
        E 6 b7 09 4f
        E 6 b7 09 2d
        E 6 b7 09 33
        E 6 b7 09 02
        E 6 b7 09 06
        E 6 b7 09 57
        E 6 b7 09 3a
        E 6 b7 09 10
        E 6 b7 09 51
        E 6 b7 09 1c
        E 6 b7 09 22
        E 6 b7 09 2b
        E 6 b7 09 23
        E 6 b7 09 3b
        E 6 b7 09 48
        E 6 b7 09 19
        E 6 b7 09 32
        E 6 b7 09 14
        E 6 b7 09 4f
        E 6 b7 09 49
        E 6 b7 09 28
        E 6 b7 09 20
        E 6 b7 09 46
        E 6 b7 09 20
        E 6 b7 09 3e
        E 6 b7 09 0c
        E 6 b7 09 01
        E 6 b7 09 1d
        E 6 b7 09 2c
        E 6 b7 09 4c
        E 6 b7 09 44
        E 6 b7 09 02
        E 6 b7 09 4d
        E 6 b7 09 41
        E 6 b7 09 04
        E 6 b7 09 1b
        E 6 b7 09 34
        E 6 b7 09 42
        E 6 b7 09 55
        E 6 b7 09 36
        E 6 b7 09 25
        E 6 b7 09 18
        E 6 b7 09 3d
        E 6 b7 09 40
        E 6 b7 09 4e
        E 6 b7 09 56
        E 6 b7 09 2a
        E 6 b7 09 38
        E 6 b7 09 3c
        E 6 b7 09 2e
        E 6 b7 09 53
        E 6 b7 09 0d
        E 6 b7 09 1f
        E 6 b7 09 3a
        E 1 b7 09 0b
        E 1 b7 09 26
        E 1 b7 09 19
        E 1 b7 09 04
        E 1 b7 09 24
        E 1 b7 09 20
        E 1 b7 09 04
        E 1 b7 09 04
        E 1 b7 09 18
        E 1 b7 09 30
        E 1 b7 09 28
        E 1 b7 09 2c
        E 1 b7 09 1f
        E 1 b7 09 05
        E 1 b7 09 09
        E 1 b7 09 22
        E 1 b7 09 1c
        E 1 b7 09 0e
        E 1 b7 09 0a
        E 1 b7 09 0d
        E 1 b7 09 27
        E 1 b7 09 17
        E 1 b7 09 0c
        E 1 b7 09 1d
        E 1 b7 09 32
        E 1 b7 09 00
        E 1 b7 09 06
        E 1 b7 09 14
        E 1 b7 09 11
        E 1 b7 09 29
        E 1 b7 09 0a
        E 1 b7 09 03
        E 1 b7 09 08
        E 1 b7 09 08
        E 1 b7 09 2e
        E 1 b7 09 0c
        E 1 b7 09 00
        E 1 b7 09 25
        E 1 b7 09 11
        E 1 b7 09 0a
        E 1 b7 09 14
        E 1 b7 09 0d
        E 1 b7 09 2b
        E 1 b7 09 2a
        E 1 b7 09 32
        E 1 b7 09 2a
        E 1 b7 09 16
        E 1 b7 09 2f
        E 1 b7 09 24
        E 1 b7 09 06
        E 1 b7 09 16
        E 1 b7 09 1b
        E 1 b7 09 30
        E 1 b7 09 26
        E 1 b7 09 1b
        E 1 b7 09 1c
        E 1 b7 09 02
        E 1 b7 09 05
        E 1 b7 09 2e
        E 1 b7 09 28
        E 1 b7 09 15
        E 1 b7 09 10
        E 1 b7 09 06
        E 1 b7 09 16
        E 1 b7 09 0f
        E 1 b7 09 0c
        E 1 b7 09 13
        E 1 b7 09 1a
        E 1 b7 09 1e
        E 1 b7 09 20
        E 1 b7 09 08
        E 1 b7 09 1e
        E 1 b7 09 2d
        E 1 b7 09 1a
        E 1 b7 09 1d
        E 1 b7 09 01
        E 1 b7 09 03
        E 1 b7 09 32
        E 1 b7 09 21
        E 1 b7 09 09
        E 1 b7 09 2e
        E 1 b7 09 10
        E 1 b7 09 13
        E 1 b7 09 18
        E 1 b7 09 14
        E 1 b7 09 22
        E 1 b7 09 29
        E 1 b7 09 0e
        E 1 b7 09 1c
        E 1 b7 09 0b
        E 1 b7 09 2d
        E 1 b7 09 2a
        E 1 b7 09 17
        E 1 b7 09 12
        E 1 b7 09 28
        E 1 b7 09 12
        E 1 b7 09 23
        E 1 b7 09 07
        E 1 b7 09 00
        E 1 b7 09 10
        E 1 b7 09 19
        E 1 b7 09 2b
        E 1 b7 09 27
        E 1 b7 09 01
        E 1 b7 09 2c
        E 1 b7 09 25
        E 1 b7 09 02
        E 1 b7 09 0f
        E 1 b7 09 1e
        E 1 b7 09 26
        E 1 b7 09 30
        E 1 b7 09 1f
        E 1 b7 09 15
        E 1 b7 09 0e
        E 1 b7 09 23
        E 1 b7 09 24
        E 1 b7 09 2c
        E 1 b7 09 31
        E 1 b7 09 18
        E 1 b7 09 20
        E 1 b7 09 22
        E 1 b7 09 1a
        E 1 b7 09 2f
        E 1 b7 09 07
        E 1 b7 09 12
        E 1 b7 09 21
        E 15 b7 09 1c
        E 15 b7 09 60
        E 15 b7 09 3f
        E 15 b7 09 0a
        E 15 b7 09 5a
        E 15 b7 09 50
        E 15 b7 09 0c
        E 15 b7 09 0b
        E 15 b7 09 3d
        E 15 b7 09 78
        E 15 b7 09 65
        E 15 b7 09 6f
        E 15 b7 09 4f
        E 15 b7 09 0e
        E 15 b7 09 18
        E 15 b7 09 56
        E 15 b7 09 46
        E 15 b7 09 24
        E 15 b7 09 19
        E 15 b7 09 22
        E 15 b7 09 63
        E 15 b7 09 3b
        E 15 b7 09 1e
        E 15 b7 09 49
        E 15 b7 09 7e
        E 15 b7 09 00
        E 15 b7 09 10
        E 15 b7 09 34
        E 15 b7 09 2b
        E 15 b7 09 68
        E 15 b7 09 1b
        E 15 b7 09 08
        E 15 b7 09 14
        E 15 b7 09 16
        E 15 b7 09 73
        E 15 b7 09 20
        E 15 b7 09 01
        E 15 b7 09 5e
        E 15 b7 09 2c
        E 15 b7 09 1a
        E 15 b7 09 32
        E 15 b7 09 21
        E 15 b7 09 6c
        E 15 b7 09 6b
        E 15 b7 09 7f
        E 15 b7 09 6a
        E 15 b7 09 37
        E 15 b7 09 76
        E 15 b7 09 5b
        E 15 b7 09 0f
        E 15 b7 09 38
        E 15 b7 09 44
        E 15 b7 09 79
        E 15 b7 09 61
        E 15 b7 09 45
        E 15 b7 09 47
        E 15 b7 09 06
        E 15 b7 09 0d
        E 15 b7 09 75
        E 15 b7 09 66
        E 15 b7 09 36
        E 15 b7 09 28
        E 15 b7 09 11
        E 15 b7 09 39
        E 15 b7 09 26
        E 15 b7 09 1f
        E 15 b7 09 30
        E 15 b7 09 42
        E 15 b7 09 4d
        E 15 b7 09 52
        E 15 b7 09 15
        E 15 b7 09 4c
        E 15 b7 09 71
        E 15 b7 09 41
        E 15 b7 09 4a
        E 15 b7 09 03
        E 15 b7 09 09
        E 15 b7 09 7d
        E 15 b7 09 53
        E 15 b7 09 17
        E 15 b7 09 74
        E 15 b7 09 29
        E 15 b7 09 31
        E 15 b7 09 3e
        E 15 b7 09 33
        E 15 b7 09 55
        E 15 b7 09 67
        E 15 b7 09 25
        E 15 b7 09 48
        E 15 b7 09 1d
        E 15 b7 09 72
        E 15 b7 09 69
        E 15 b7 09 3a
        E 15 b7 09 2e
        E 15 b7 09 64
        E 15 b7 09 2f
        E 15 b7 09 59
        E 15 b7 09 12
        E 15 b7 09 02
        E 15 b7 09 2a
        E 15 b7 09 40
        E 15 b7 09 6d
        E 15 b7 09 62
        E 15 b7 09 04
        E 15 b7 09 6e
        E 15 b7 09 5d
        E 15 b7 09 07
        E 15 b7 09 27
        E 15 b7 09 4b
        E 15 b7 09 5f
        E 15 b7 09 7a
        E 15 b7 09 4e
        E 15 b7 09 35
        E 15 b7 09 23
        E 15 b7 09 58
        E 15 b7 09 5c
        E 15 b7 09 70
        E 15 b7 09 7c
        E 15 b7 09 3c
        E 15 b7 09 51
        E 15 b7 09 57
        E 15 b7 09 43
        E 15 b7 09 77
        E 15 b7 09 13
        E 15 b7 09 2d
        E 15 b7 09 54
        E 11 b7 09 0c
        E 11 b7 09 0d
        E 11 b7 09 0e
        E 11 b7 09 0e
        E 11 b7 09 0f
        E 11 b7 09 0f
        E 11 b7 09 10
        E 11 b7 09 11
        E 11 b7 09 11
        E 11 b7 09 12
        E 11 b7 09 12
        E 11 b7 09 13
        E 11 b7 09 13
        E 11 b7 09 14
        E 11 b7 09 14
        E 11 b7 09 15
        E 11 b7 09 15
        E 11 b7 09 16
        E 11 b7 09 16
        E 11 b7 09 17
        E 11 b7 09 17
        E 11 b7 09 17
        E 11 b7 09 18
        E 11 b7 09 18
        E 11 b7 09 18
        E 11 b7 09 18
        E 11 b7 09 18
        E 11 b7 09 19
        E 11 b7 09 19
        E 11 b7 09 19
        E 11 b7 09 19
        E 11 b7 09 19
        E 11 b7 09 19
        E 11 b7 09 19
        E 11 b7 09 19
        E 11 b7 09 19
        E 11 b7 09 19
        E 11 b7 09 19
        E 11 b7 09 18
        E 11 b7 09 18
        E 11 b7 09 18
        E 11 b7 09 18
        E 11 b7 09 17
        E 11 b7 09 17
        E 11 b7 09 17
        E 11 b7 09 16
        E 11 b7 09 16
        E 11 b7 09 16
        E 11 b7 09 15
        E 11 b7 09 15
        E 11 b7 09 14
        E 11 b7 09 14
        E 11 b7 09 13
        E 11 b7 09 13
        E 11 b7 09 12
        E 11 b7 09 11
        E 11 b7 09 11
        E 11 b7 09 10
        E 11 b7 09 10
        E 11 b7 09 0f
        E 11 b7 09 0e
        E 11 b7 09 0e
        E 11 b7 09 0d
        E 11 b7 09 0d
        E 11 b7 09 0c
        E 11 b7 09 0b
        E 11 b7 09 0b
        E 11 b7 09 0a
        E 11 b7 09 09
        E 11 b7 09 09
        E 11 b7 09 08
        E 11 b7 09 08
        E 11 b7 09 07
        E 11 b7 09 07
        E 11 b7 09 06
        E 11 b7 09 05
        E 11 b7 09 05
        E 11 b7 09 04
        E 11 b7 09 04
        E 11 b7 09 03
        E 11 b7 09 03
        E 11 b7 09 03
        E 11 b7 09 02
        E 11 b7 09 02
        E 11 b7 09 02
        E 11 b7 09 01
        E 11 b7 09 01
        E 11 b7 09 01
        E 11 b7 09 00
        E 11 b7 09 00
        E 11 b7 09 00
        E 11 b7 09 00
        E 11 b7 09 00
        E 11 b7 09 00
        E 11 b7 09 00
        E 11 b7 09 00
        E 11 b7 09 00
        E 11 b7 09 00
        E 11 b7 09 00
        E 11 b7 09 00
        E 11 b7 09 00
        E 11 b7 09 00
        E 11 b7 09 00
        E 11 b7 09 01
        E 11 b7 09 01
        E 11 b7 09 01
        E 11 b7 09 01
        E 11 b7 09 02
        E 11 b7 09 02
        E 11 b7 09 02
        E 11 b7 09 03
        E 11 b7 09 03
        E 11 b7 09 04
        E 11 b7 09 04
        E 11 b7 09 05
        E 11 b7 09 05
        E 11 b7 09 06
        E 11 b7 09 06
        E 11 b7 09 07
        E 11 b7 09 07
        E 11 b7 09 08
        E 11 b7 09 09
        E 11 b7 09 09
        E 11 b7 09 0a
        E 11 b7 09 0a
        E 11 b7 09 0b
        E 11 b7 09 0c
        E 11 b7 09 0c
        E 8 b7 09 2c
        E 8 b7 09 2e
        E 8 b7 09 31
        E 8 b7 09 33
        E 8 b7 09 35
        E 8 b7 09 37
        E 8 b7 09 39
        E 8 b7 09 3b
        E 8 b7 09 3d
        E 8 b7 09 3f
        E 8 b7 09 41
        E 8 b7 09 43
        E 8 b7 09 45
        E 8 b7 09 47
        E 8 b7 09 48
        E 8 b7 09 4a
        E 8 b7 09 4c
        E 8 b7 09 4d
        E 8 b7 09 4f
        E 8 b7 09 50
        E 8 b7 09 51
        E 8 b7 09 52
        E 8 b7 09 54
        E 8 b7 09 54
        E 8 b7 09 55
        E 8 b7 09 56
        E 8 b7 09 56
        E 8 b7 09 57
        E 8 b7 09 58
        E 8 b7 09 58
        E 8 b7 09 58
        E 8 b7 09 58
        E 8 b7 09 58
        E 8 b7 09 58
        E 8 b7 09 58
        E 8 b7 09 58
        E 8 b7 09 58
        E 8 b7 09 57
        E 8 b7 09 56
        E 8 b7 09 56
        E 8 b7 09 55
        E 8 b7 09 54
        E 8 b7 09 53
        E 8 b7 09 51
        E 8 b7 09 51
        E 8 b7 09 4f
        E 8 b7 09 4e
        E 8 b7 09 4d
        E 8 b7 09 4b
        E 8 b7 09 49
        E 8 b7 09 48
        E 8 b7 09 46
        E 8 b7 09 44
        E 8 b7 09 42
        E 8 b7 09 40
        E 8 b7 09 3e
        E 8 b7 09 3c
        E 8 b7 09 3a
        E 8 b7 09 38
        E 8 b7 09 36
        E 8 b7 09 33
        E 8 b7 09 31
        E 8 b7 09 2f
        E 8 b7 09 2d
        E 8 b7 09 2b
        E 8 b7 09 29
        E 8 b7 09 27
        E 8 b7 09 25
        E 8 b7 09 22
        E 8 b7 09 20
        E 8 b7 09 1e
        E 8 b7 09 1c
        E 8 b7 09 1a
        E 8 b7 09 18
        E 8 b7 09 16
        E 8 b7 09 14
        E 8 b7 09 12
        E 8 b7 09 10
        E 8 b7 09 0f
        E 8 b7 09 0d
        E 8 b7 09 0b
        E 8 b7 09 0a
        E 8 b7 09 09
        E 8 b7 09 07
        E 8 b7 09 07
        E 8 b7 09 05
        E 8 b7 09 04
        E 8 b7 09 03
        E 8 b7 09 02
        E 8 b7 09 02
        E 8 b7 09 01
        E 8 b7 09 00
        E 8 b7 09 00
        E 8 b7 09 00
        E 8 b7 09 00
        E 8 b7 09 00
        E 8 b7 09 00
        E 8 b7 09 00
        E 8 b7 09 00
        E 8 b7 09 00
        E 8 b7 09 01
        E 8 b7 09 02
        E 8 b7 09 02
        E 8 b7 09 03
        E 8 b7 09 04
        E 8 b7 09 04
        E 8 b7 09 06
        E 8 b7 09 07
        E 8 b7 09 08
        E 8 b7 09 09
        E 8 b7 09 0b
        E 8 b7 09 0c
        E 8 b7 09 0e
        E 8 b7 09 10
        E 8 b7 09 11
        E 8 b7 09 13
        E 8 b7 09 15
        E 8 b7 09 17
        E 8 b7 09 19
        E 8 b7 09 1b
        E 8 b7 09 1d
        E 8 b7 09 1f
        E 8 b7 09 21
        E 8 b7 09 23
        E 8 b7 09 25
        E 8 b7 09 27
        E 8 b7 09 2a
        E 8 b7 09 2c
        E 2 b7 09 19
        E 2 b7 09 1a
        E 2 b7 09 1c
        E 2 b7 09 1d
        E 2 b7 09 1e
        E 2 b7 09 1f
        E 2 b7 09 20
        E 2 b7 09 22
        E 2 b7 09 23
        E 2 b7 09 24
        E 2 b7 09 25
        E 2 b7 09 26
        E 2 b7 09 27
        E 2 b7 09 28
        E 2 b7 09 29
        E 2 b7 09 2a
        E 2 b7 09 2b
        E 2 b7 09 2c
        E 2 b7 09 2d
        E 2 b7 09 2e
        E 2 b7 09 2e
        E 2 b7 09 2f
        E 2 b7 09 30
        E 2 b7 09 30
        E 2 b7 09 30
        E 2 b7 09 31
        E 2 b7 09 31
        E 2 b7 09 32
        E 2 b7 09 32
        E 2 b7 09 32
        E 2 b7 09 32
        E 2 b7 09 32
        E 2 b7 09 32
        E 2 b7 09 32
        E 2 b7 09 32
        E 2 b7 09 32
        E 2 b7 09 32
        E 2 b7 09 32
        E 2 b7 09 31
        E 2 b7 09 31
        E 2 b7 09 30
        E 2 b7 09 30
        E 2 b7 09 2f
        E 2 b7 09 2e
        E 2 b7 09 2e
        E 2 b7 09 2d
        E 2 b7 09 2c
        E 2 b7 09 2c
        E 2 b7 09 2b
        E 2 b7 09 2a
        E 2 b7 09 29
        E 2 b7 09 28
        E 2 b7 09 27
        E 2 b7 09 26
        E 2 b7 09 24
        E 2 b7 09 23
        E 2 b7 09 22
        E 2 b7 09 21
        E 2 b7 09 20
        E 2 b7 09 1f
        E 2 b7 09 1d
        E 2 b7 09 1c
        E 2 b7 09 1b
        E 2 b7 09 1a
        E 2 b7 09 18
        E 2 b7 09 17
        E 2 b7 09 16
        E 2 b7 09 15
        E 2 b7 09 13
        E 2 b7 09 12
        E 2 b7 09 11
        E 2 b7 09 10
        E 2 b7 09 0f
        E 2 b7 09 0e
        E 2 b7 09 0c
        E 2 b7 09 0b
        E 2 b7 09 0a
        E 2 b7 09 09
        E 2 b7 09 08
        E 2 b7 09 07
        E 2 b7 09 06
        E 2 b7 09 06
        E 2 b7 09 05
        E 2 b7 09 04
        E 2 b7 09 04
        E 2 b7 09 03
        E 2 b7 09 02
        E 2 b7 09 02
        E 2 b7 09 01
        E 2 b7 09 01
        E 2 b7 09 00
        E 2 b7 09 00
        E 2 b7 09 00
        E 2 b7 09 00
        E 2 b7 09 00
        E 2 b7 09 00
        E 2 b7 09 00
        E 2 b7 09 00
        E 2 b7 09 00
        E 2 b7 09 00
        E 2 b7 09 00
        E 2 b7 09 01
        E 2 b7 09 01
        E 2 b7 09 02
        E 2 b7 09 02
        E 2 b7 09 02
        E 2 b7 09 03
        E 2 b7 09 04
        E 2 b7 09 04
        E 2 b7 09 05
        E 2 b7 09 06
        E 2 b7 09 07
        E 2 b7 09 08
        E 2 b7 09 09
        E 2 b7 09 0a
        E 2 b7 09 0b
        E 2 b7 09 0c
        E 2 b7 09 0d
        E 2 b7 09 0e
        E 2 b7 09 0f
        E 2 b7 09 10
        E 2 b7 09 12
        E 2 b7 09 13
        E 2 b7 09 14
        E 2 b7 09 15
        E 2 b7 09 16
        E 2 b7 09 18
        E 2 b7 09 19
        E 19 b7 09 40
        E 19 b7 09 43
        E 19 b7 09 46
        E 19 b7 09 49
        E 19 b7 09 4c
        E 19 b7 09 4f
        E 19 b7 09 52
        E 19 b7 09 55
        E 19 b7 09 58
        E 19 b7 09 5b
        E 19 b7 09 5e
        E 19 b7 09 60
        E 19 b7 09 63
        E 19 b7 09 66
        E 19 b7 09 68
        E 19 b7 09 6a
        E 19 b7 09 6d
        E 19 b7 09 6f
        E 19 b7 09 71
        E 19 b7 09 73
        E 19 b7 09 75
        E 19 b7 09 76
        E 19 b7 09 78
        E 19 b7 09 79
        E 19 b7 09 7a
        E 19 b7 09 7b
        E 19 b7 09 7c
        E 19 b7 09 7d
        E 19 b7 09 7e
        E 19 b7 09 7e
        E 19 b7 09 7f
        E 19 b7 09 7f
        E 19 b7 09 7f
        E 19 b7 09 7f
        E 19 b7 09 7f
        E 19 b7 09 7e
        E 19 b7 09 7e
        E 19 b7 09 7d
        E 19 b7 09 7c
        E 19 b7 09 7b
        E 19 b7 09 7a
        E 19 b7 09 78
        E 19 b7 09 77
        E 19 b7 09 75
        E 19 b7 09 74
        E 19 b7 09 72
        E 19 b7 09 70
        E 19 b7 09 6e
        E 19 b7 09 6c
        E 19 b7 09 69
        E 19 b7 09 67
        E 19 b7 09 64
        E 19 b7 09 62
        E 19 b7 09 5f
        E 19 b7 09 5c
        E 19 b7 09 59
        E 19 b7 09 57
        E 19 b7 09 54
        E 19 b7 09 51
        E 19 b7 09 4e
        E 19 b7 09 4a
        E 19 b7 09 47
        E 19 b7 09 44
        E 19 b7 09 41
        E 19 b7 09 3e
        E 19 b7 09 3b
        E 19 b7 09 38
        E 19 b7 09 35
        E 19 b7 09 31
        E 19 b7 09 2e
        E 19 b7 09 2b
        E 19 b7 09 28
        E 19 b7 09 26
        E 19 b7 09 23
        E 19 b7 09 20
        E 19 b7 09 1d
        E 19 b7 09 1b
        E 19 b7 09 18
        E 19 b7 09 16
        E 19 b7 09 13
        E 19 b7 09 11
        E 19 b7 09 0f
        E 19 b7 09 0d
        E 19 b7 09 0b
        E 19 b7 09 0a
        E 19 b7 09 08
        E 19 b7 09 07
        E 19 b7 09 05
        E 19 b7 09 04
        E 19 b7 09 03
        E 19 b7 09 02
        E 19 b7 09 01
        E 19 b7 09 01
        E 19 b7 09 00
        E 19 b7 09 00
        E 19 b7 09 00
        E 19 b7 09 00
        E 19 b7 09 00
        E 19 b7 09 01
        E 19 b7 09 01
        E 19 b7 09 02
        E 19 b7 09 03
        E 19 b7 09 04
        E 19 b7 09 05
        E 19 b7 09 06
        E 19 b7 09 07
        E 19 b7 09 09
        E 19 b7 09 0a
        E 19 b7 09 0c
        E 19 b7 09 0e
        E 19 b7 09 10
        E 19 b7 09 12
        E 19 b7 09 15
        E 19 b7 09 17
        E 19 b7 09 19
        E 19 b7 09 1c
        E 19 b7 09 1f
        E 19 b7 09 21
        E 19 b7 09 24
        E 19 b7 09 27
        E 19 b7 09 2a
        E 19 b7 09 2d
        E 19 b7 09 30
        E 19 b7 09 33
        E 19 b7 09 36
        E 19 b7 09 39
        E 19 b7 09 3c
        E 19 b7 09 40
        E 4 b7 09 39
        E 4 b7 09 3c
        E 4 b7 09 3f
        E 4 b7 09 41
        E 4 b7 09 44
        E 4 b7 09 47
        E 4 b7 09 49
        E 4 b7 09 4c
        E 4 b7 09 4f
        E 4 b7 09 51
        E 4 b7 09 54
        E 4 b7 09 56
        E 4 b7 09 59
        E 4 b7 09 5b
        E 4 b7 09 5d
        E 4 b7 09 5f
        E 4 b7 09 62
        E 4 b7 09 63
        E 4 b7 09 65
        E 4 b7 09 67
        E 4 b7 09 69
        E 4 b7 09 6a
        E 4 b7 09 6c
        E 4 b7 09 6c
        E 4 b7 09 6d
        E 4 b7 09 6e
        E 4 b7 09 6f
        E 4 b7 09 70
        E 4 b7 09 71
        E 4 b7 09 71
        E 4 b7 09 72
        E 4 b7 09 72
        E 4 b7 09 72
        E 4 b7 09 72
        E 4 b7 09 72
        E 4 b7 09 71
        E 4 b7 09 71
        E 4 b7 09 70
        E 4 b7 09 6f
        E 4 b7 09 6e
        E 4 b7 09 6d
        E 4 b7 09 6c
        E 4 b7 09 6b
        E 4 b7 09 69
        E 4 b7 09 68
        E 4 b7 09 66
        E 4 b7 09 64
        E 4 b7 09 63
        E 4 b7 09 61
        E 4 b7 09 5e
        E 4 b7 09 5c
        E 4 b7 09 5a
        E 4 b7 09 58
        E 4 b7 09 55
        E 4 b7 09 52
        E 4 b7 09 50
        E 4 b7 09 4e
        E 4 b7 09 4b
        E 4 b7 09 48
        E 4 b7 09 46
        E 4 b7 09 42
        E 4 b7 09 3f
        E 4 b7 09 3d
        E 4 b7 09 3a
        E 4 b7 09 37
        E 4 b7 09 35
        E 4 b7 09 32
        E 4 b7 09 2f
        E 4 b7 09 2c
        E 4 b7 09 29
        E 4 b7 09 26
        E 4 b7 09 24
        E 4 b7 09 22
        E 4 b7 09 1f
        E 4 b7 09 1c
        E 4 b7 09 1a
        E 4 b7 09 18
        E 4 b7 09 15
        E 4 b7 09 13
        E 4 b7 09 11
        E 4 b7 09 0f
        E 4 b7 09 0d
        E 4 b7 09 0b
        E 4 b7 09 09
        E 4 b7 09 09
        E 4 b7 09 07
        E 4 b7 09 06
        E 4 b7 09 04
        E 4 b7 09 03
        E 4 b7 09 02
        E 4 b7 09 01
        E 4 b7 09 00
        E 4 b7 09 00
        E 4 b7 09 00
        E 4 b7 09 00
        E 4 b7 09 00
        E 4 b7 09 00
        E 4 b7 09 00
        E 4 b7 09 00
        E 4 b7 09 00
        E 4 b7 09 01
        E 4 b7 09 02
        E 4 b7 09 03
        E 4 b7 09 04
        E 4 b7 09 05
        E 4 b7 09 06
        E 4 b7 09 08
        E 4 b7 09 09
        E 4 b7 09 0a
        E 4 b7 09 0c
        E 4 b7 09 0e
        E 4 b7 09 10
        E 4 b7 09 12
        E 4 b7 09 14
        E 4 b7 09 16
        E 4 b7 09 19
        E 4 b7 09 1b
        E 4 b7 09 1d
        E 4 b7 09 20
        E 4 b7 09 23
        E 4 b7 09 25
        E 4 b7 09 28
        E 4 b7 09 2b
        E 4 b7 09 2d
        E 4 b7 09 30
        E 4 b7 09 33
        E 4 b7 09 36
        E 4 b7 09 39
        E 2 b7 09 26
        E 2 b7 09 28
        E 2 b7 09 2a
        E 2 b7 09 2b
        E 2 b7 09 2d
        E 2 b7 09 2f
        E 2 b7 09 31
        E 2 b7 09 33
        E 2 b7 09 34
        E 2 b7 09 36
        E 2 b7 09 38
        E 2 b7 09 39
        E 2 b7 09 3b
        E 2 b7 09 3d
        E 2 b7 09 3e
        E 2 b7 09 3f
        E 2 b7 09 41
        E 2 b7 09 42
        E 2 b7 09 43
        E 2 b7 09 45
        E 2 b7 09 46
        E 2 b7 09 46
        E 2 b7 09 48
        E 2 b7 09 48
        E 2 b7 09 49
        E 2 b7 09 49
        E 2 b7 09 4a
        E 2 b7 09 4b
        E 2 b7 09 4b
        E 2 b7 09 4b
        E 2 b7 09 4c
        E 2 b7 09 4c
        E 2 b7 09 4c
        E 2 b7 09 4c
        E 2 b7 09 4c
        E 2 b7 09 4b
        E 2 b7 09 4b
        E 2 b7 09 4b
        E 2 b7 09 4a
        E 2 b7 09 49
        E 2 b7 09 49
        E 2 b7 09 48
        E 2 b7 09 47
        E 2 b7 09 46
        E 2 b7 09 45
        E 2 b7 09 44
        E 2 b7 09 43
        E 2 b7 09 42
        E 2 b7 09 40
        E 2 b7 09 3f
        E 2 b7 09 3d
        E 2 b7 09 3c
        E 2 b7 09 3a
        E 2 b7 09 39
        E 2 b7 09 37
        E 2 b7 09 35
        E 2 b7 09 34
        E 2 b7 09 32
        E 2 b7 09 30
        E 2 b7 09 2e
        E 2 b7 09 2c
        E 2 b7 09 2a
        E 2 b7 09 28
        E 2 b7 09 27
        E 2 b7 09 25
        E 2 b7 09 23
        E 2 b7 09 21
        E 2 b7 09 1f
        E 2 b7 09 1d
        E 2 b7 09 1b
        E 2 b7 09 19
        E 2 b7 09 18
        E 2 b7 09 16
        E 2 b7 09 15
        E 2 b7 09 13
        E 2 b7 09 11
        E 2 b7 09 10
        E 2 b7 09 0e
        E 2 b7 09 0d
        E 2 b7 09 0b
        E 2 b7 09 0a
        E 2 b7 09 09
        E 2 b7 09 07
        E 2 b7 09 06
        E 2 b7 09 06
        E 2 b7 09 04
        E 2 b7 09 04
        E 2 b7 09 03
        E 2 b7 09 02
        E 2 b7 09 01
        E 2 b7 09 01
        E 2 b7 09 00
        E 2 b7 09 00
        E 2 b7 09 00
        E 2 b7 09 00
        E 2 b7 09 00
        E 2 b7 09 00
        E 2 b7 09 00
        E 2 b7 09 00
        E 2 b7 09 00
        E 2 b7 09 01
        E 2 b7 09 01
        E 2 b7 09 02
        E 2 b7 09 03
        E 2 b7 09 03
        E 2 b7 09 04
        E 2 b7 09 05
        E 2 b7 09 06
        E 2 b7 09 07
        E 2 b7 09 08
        E 2 b7 09 09
        E 2 b7 09 0a
        E 2 b7 09 0c
        E 2 b7 09 0d
        E 2 b7 09 0f
        E 2 b7 09 10
        E 2 b7 09 12
        E 2 b7 09 13
        E 2 b7 09 15
        E 2 b7 09 17
        E 2 b7 09 19
        E 2 b7 09 1b
        E 2 b7 09 1c
        E 2 b7 09 1e
        E 2 b7 09 20
        E 2 b7 09 22
        E 2 b7 09 24
        E 2 b7 09 26
        E 11 b7 09 0c
        E 11 b7 09 0d
        E 11 b7 09 0e
        E 11 b7 09 0e
        E 11 b7 09 0f
        E 11 b7 09 0f
        E 11 b7 09 10
        E 11 b7 09 11
        E 11 b7 09 11
        E 11 b7 09 12
        E 11 b7 09 12
        E 11 b7 09 13
        E 11 b7 09 13
        E 11 b7 09 14
        E 11 b7 09 14
        E 11 b7 09 15
        E 11 b7 09 15
        E 11 b7 09 16
        E 11 b7 09 16
        E 11 b7 09 17
        E 11 b7 09 17
        E 11 b7 09 17
        E 11 b7 09 18
        E 11 b7 09 18
        E 11 b7 09 18
        E 11 b7 09 18
        E 11 b7 09 18
        E 11 b7 09 19
        E 11 b7 09 19
        E 11 b7 09 19
        E 11 b7 09 19
        E 11 b7 09 19
        E 11 b7 09 19
        E 11 b7 09 19
        E 11 b7 09 19
        E 11 b7 09 19
        E 11 b7 09 19
        E 11 b7 09 19
        E 11 b7 09 18
        E 11 b7 09 18
        E 11 b7 09 18
        E 11 b7 09 18
        E 11 b7 09 17
        E 11 b7 09 17
        E 11 b7 09 17
        E 11 b7 09 16
        E 11 b7 09 16
        E 11 b7 09 16
        E 11 b7 09 15
        E 11 b7 09 15
        E 11 b7 09 14
        E 11 b7 09 14
        E 11 b7 09 13
        E 11 b7 09 13
        E 11 b7 09 12
        E 11 b7 09 11
        E 11 b7 09 11
        E 11 b7 09 10
        E 11 b7 09 10
        E 11 b7 09 0f
        E 11 b7 09 0e
        E 11 b7 09 0e
        E 11 b7 09 0d
        E 11 b7 09 0d
        E 11 b7 09 0c
        E 11 b7 09 0b
        E 11 b7 09 0b
        E 11 b7 09 0a
        E 11 b7 09 09
        E 11 b7 09 09
        E 11 b7 09 08
        E 11 b7 09 08
        E 11 b7 09 07
        E 11 b7 09 07
        E 11 b7 09 06
        E 11 b7 09 05
        E 11 b7 09 05
        E 11 b7 09 04
        E 11 b7 09 04
        E 11 b7 09 03
        E 11 b7 09 03
        E 11 b7 09 03
        E 11 b7 09 02
        E 11 b7 09 02
        E 11 b7 09 02
        E 11 b7 09 01
        E 11 b7 09 01
        E 11 b7 09 01
        E 11 b7 09 00
        E 11 b7 09 00
        E 11 b7 09 00
        E 11 b7 09 00
        E 11 b7 09 00
        E 11 b7 09 00
        E 11 b7 09 00
        E 11 b7 09 00
        E 11 b7 09 00
        E 11 b7 09 00
        E 11 b7 09 00
        E 11 b7 09 00
        E 11 b7 09 00
        E 11 b7 09 00
        E 11 b7 09 00
        E 11 b7 09 01
        E 11 b7 09 01
        E 11 b7 09 01
        E 11 b7 09 01
        E 11 b7 09 02
        E 11 b7 09 02
        E 11 b7 09 02
        E 11 b7 09 03
        E 11 b7 09 03
        E 11 b7 09 04
        E 11 b7 09 04
        E 11 b7 09 05
        E 11 b7 09 05
        E 11 b7 09 06
        E 11 b7 09 06
        E 11 b7 09 07
        E 11 b7 09 07
        E 11 b7 09 08
        E 11 b7 09 09
        E 11 b7 09 09
        E 11 b7 09 0a
        E 11 b7 09 0a
        E 11 b7 09 0b
        E 11 b7 09 0c
        E 11 b7 09 0c
        E 8 b7 09 2c
        E 8 b7 09 2e
        E 8 b7 09 31
        E 8 b7 09 33
        E 8 b7 09 35
        E 8 b7 09 37
        E 8 b7 09 39
        E 8 b7 09 3b
        E 8 b7 09 3d
        E 8 b7 09 3f
        E 8 b7 09 41
        E 8 b7 09 43
        E 8 b7 09 45
        E 8 b7 09 47
        E 8 b7 09 48
        E 8 b7 09 4a
        E 8 b7 09 4c
        E 8 b7 09 4d
        E 8 b7 09 4f
        E 8 b7 09 50
        E 8 b7 09 51
        E 8 b7 09 52
        E 8 b7 09 54
        E 8 b7 09 54
        E 8 b7 09 55
        E 8 b7 09 56
        E 8 b7 09 56
        E 8 b7 09 57
        E 8 b7 09 58
        E 8 b7 09 58
        E 8 b7 09 58
        E 8 b7 09 58
        E 8 b7 09 58
        E 8 b7 09 58
        E 8 b7 09 58
        E 8 b7 09 58
        E 8 b7 09 58
        E 8 b7 09 57
        E 8 b7 09 56
        E 8 b7 09 56
        E 8 b7 09 55
        E 8 b7 09 54
        E 8 b7 09 53
        E 8 b7 09 51
        E 8 b7 09 51
        E 8 b7 09 4f
        E 8 b7 09 4e
        E 8 b7 09 4d
        E 8 b7 09 4b
        E 8 b7 09 49
        E 8 b7 09 48
        E 8 b7 09 46
        E 8 b7 09 44
        E 8 b7 09 42
        E 8 b7 09 40
        E 8 b7 09 3e
        E 8 b7 09 3c
        E 8 b7 09 3a
        E 8 b7 09 38
        E 8 b7 09 36
        E 8 b7 09 33
        E 8 b7 09 31
        E 8 b7 09 2f
        E 8 b7 09 2d
        E 8 b7 09 2b
        E 8 b7 09 29
        E 8 b7 09 27
        E 8 b7 09 25
        E 8 b7 09 22
        E 8 b7 09 20
        E 8 b7 09 1e
        E 8 b7 09 1c
        E 8 b7 09 1a
        E 8 b7 09 18
        E 8 b7 09 16
        E 8 b7 09 14
        E 8 b7 09 12
        E 8 b7 09 10
        E 8 b7 09 0f
        E 8 b7 09 0d
        E 8 b7 09 0b
        E 8 b7 09 0a
        E 8 b7 09 09
        E 8 b7 09 07
        E 8 b7 09 07
        E 8 b7 09 05
        E 8 b7 09 04
        E 8 b7 09 03
        E 8 b7 09 02
        E 8 b7 09 02
        E 8 b7 09 01
        E 8 b7 09 00
        E 8 b7 09 00
        E 8 b7 09 00
        E 8 b7 09 00
        E 8 b7 09 00
        E 8 b7 09 00
        E 8 b7 09 00
        E 8 b7 09 00
        E 8 b7 09 00
        E 8 b7 09 01
        E 8 b7 09 02
        E 8 b7 09 02
        E 8 b7 09 03
        E 8 b7 09 04
        E 8 b7 09 04
        E 8 b7 09 06
        E 8 b7 09 07
        E 8 b7 09 08
        E 8 b7 09 09
        E 8 b7 09 0b
        E 8 b7 09 0c
        E 8 b7 09 0e
        E 8 b7 09 10
        E 8 b7 09 11
        E 8 b7 09 13
        E 8 b7 09 15
        E 8 b7 09 17
        E 8 b7 09 19
        E 8 b7 09 1b
        E 8 b7 09 1d
        E 8 b7 09 1f
        E 8 b7 09 21
        E 8 b7 09 23
        E 8 b7 09 25
        E 8 b7 09 27
        E 8 b7 09 2a
        E 8 b7 09 2c
        E 2 b7 09 19
        E 2 b7 09 1a
        E 2 b7 09 1c
        E 2 b7 09 1d
        E 2 b7 09 1e
        E 2 b7 09 1f
        E 2 b7 09 20
        E 2 b7 09 22
        E 2 b7 09 23
        E 2 b7 09 24
        E 2 b7 09 25
        E 2 b7 09 26
        E 2 b7 09 27
        E 2 b7 09 28
        E 2 b7 09 29
        E 2 b7 09 2a
        E 2 b7 09 2b
        E 2 b7 09 2c
        E 2 b7 09 2d
        E 2 b7 09 2e
        E 2 b7 09 2e
        E 2 b7 09 2f
        E 2 b7 09 30
        E 2 b7 09 30
        E 2 b7 09 30
        E 2 b7 09 31
        E 2 b7 09 31
        E 2 b7 09 32
        E 2 b7 09 32
        E 2 b7 09 32
        E 2 b7 09 32
        E 2 b7 09 32
        E 2 b7 09 32
        E 2 b7 09 32
        E 2 b7 09 32
        E 2 b7 09 32
        E 2 b7 09 32
        E 2 b7 09 32
        E 2 b7 09 31
        E 2 b7 09 31
        E 2 b7 09 30
        E 2 b7 09 30
        E 2 b7 09 2f
        E 2 b7 09 2e
        E 2 b7 09 2e
        E 2 b7 09 2d
        E 2 b7 09 2c
        E 2 b7 09 2c
        E 2 b7 09 2b
        E 2 b7 09 2a
        E 2 b7 09 29
        E 2 b7 09 28
        E 2 b7 09 27
        E 2 b7 09 26
        E 2 b7 09 24
        E 2 b7 09 23
        E 2 b7 09 22
        E 2 b7 09 21
        E 2 b7 09 20
        E 2 b7 09 1f
        E 2 b7 09 1d
        E 2 b7 09 1c
        E 2 b7 09 1b
        E 2 b7 09 1a
        E 2 b7 09 18
        E 2 b7 09 17
        E 2 b7 09 16
        E 2 b7 09 15
        E 2 b7 09 13
        E 2 b7 09 12
        E 2 b7 09 11
        E 2 b7 09 10
        E 2 b7 09 0f
        E 2 b7 09 0e
        E 2 b7 09 0c
        E 2 b7 09 0b
        E 2 b7 09 0a
        E 2 b7 09 09
        E 2 b7 09 08
        E 2 b7 09 07
        E 2 b7 09 06
        E 2 b7 09 06
        E 2 b7 09 05
        E 2 b7 09 04
        E 2 b7 09 04
        E 2 b7 09 03
        E 2 b7 09 02
        E 2 b7 09 02
        E 2 b7 09 01
        E 2 b7 09 01
        E 2 b7 09 00
        E 2 b7 09 00
        E 2 b7 09 00
        E 2 b7 09 00
        E 2 b7 09 00
        E 2 b7 09 00
        E 2 b7 09 00
        E 2 b7 09 00
        E 2 b7 09 00
        E 2 b7 09 00
        E 2 b7 09 00
        E 2 b7 09 01
        E 2 b7 09 01
        E 2 b7 09 02
        E 2 b7 09 02
        E 2 b7 09 02
        E 2 b7 09 03
        E 2 b7 09 04
        E 2 b7 09 04
        E 2 b7 09 05
        E 2 b7 09 06
        E 2 b7 09 07
        E 2 b7 09 08
        E 2 b7 09 09
        E 2 b7 09 0a
        E 2 b7 09 0b
        E 2 b7 09 0c
        E 2 b7 09 0d
        E 2 b7 09 0e
        E 2 b7 09 0f
        E 2 b7 09 10
        E 2 b7 09 12
        E 2 b7 09 13
        E 2 b7 09 14
        E 2 b7 09 15
        E 2 b7 09 16
        E 2 b7 09 18
        E 2 b7 09 19
        E 19 b7 09 40
        E 19 b7 09 43
        E 19 b7 09 46
        E 19 b7 09 49
        E 19 b7 09 4c
        E 19 b7 09 4f
        E 19 b7 09 52
        E 19 b7 09 55
        E 19 b7 09 58
        E 19 b7 09 5b
        E 19 b7 09 5e
        E 19 b7 09 60
        E 19 b7 09 63
        E 19 b7 09 66
        E 19 b7 09 68
        E 19 b7 09 6a
        E 19 b7 09 6d
        E 19 b7 09 6f
        E 19 b7 09 71
        E 19 b7 09 73
        E 19 b7 09 75
        E 19 b7 09 76
        E 19 b7 09 78
        E 19 b7 09 79
        E 19 b7 09 7a
        E 19 b7 09 7b
        E 19 b7 09 7c
        E 19 b7 09 7d
        E 19 b7 09 7e
        E 19 b7 09 7e
        E 19 b7 09 7f
        E 19 b7 09 7f
        E 19 b7 09 7f
        E 19 b7 09 7f
        E 19 b7 09 7f
        E 19 b7 09 7e
        E 19 b7 09 7e
        E 19 b7 09 7d
        E 19 b7 09 7c
        E 19 b7 09 7b
        E 19 b7 09 7a
        E 19 b7 09 78
        E 19 b7 09 77
        E 19 b7 09 75
        E 19 b7 09 74
        E 19 b7 09 72
        E 19 b7 09 70
        E 19 b7 09 6e
        E 19 b7 09 6c
        E 19 b7 09 69
        E 19 b7 09 67
        E 19 b7 09 64
        E 19 b7 09 62
        E 19 b7 09 5f
        E 19 b7 09 5c
        E 19 b7 09 59
        E 19 b7 09 57
        E 19 b7 09 54
        E 19 b7 09 51
        E 19 b7 09 4e
        E 19 b7 09 4a
        E 19 b7 09 47
        E 19 b7 09 44
        E 19 b7 09 41
        E 19 b7 09 3e
        E 19 b7 09 3b
        E 19 b7 09 38
        E 19 b7 09 35
        E 19 b7 09 31
        E 19 b7 09 2e
        E 19 b7 09 2b
        E 19 b7 09 28
        E 19 b7 09 26
        E 19 b7 09 23
        E 19 b7 09 20
        E 19 b7 09 1d
        E 19 b7 09 1b
        E 19 b7 09 18
        E 19 b7 09 16
        E 19 b7 09 13
        E 19 b7 09 11
        E 19 b7 09 0f
        E 19 b7 09 0d
        E 19 b7 09 0b
        E 19 b7 09 0a
        E 19 b7 09 08
        E 19 b7 09 07
        E 19 b7 09 05
        E 19 b7 09 04
        E 19 b7 09 03
        E 19 b7 09 02
        E 19 b7 09 01
        E 19 b7 09 01
        E 19 b7 09 00
        E 19 b7 09 00
        E 19 b7 09 00
        E 19 b7 09 00
        E 19 b7 09 00
        E 19 b7 09 01
        E 19 b7 09 01
        E 19 b7 09 02
        E 19 b7 09 03
        E 19 b7 09 04
        E 19 b7 09 05
        E 19 b7 09 06
        E 19 b7 09 07
        E 19 b7 09 09
        E 19 b7 09 0a
        E 19 b7 09 0c
        E 19 b7 09 0e
        E 19 b7 09 10
        E 19 b7 09 12
        E 19 b7 09 15
        E 19 b7 09 17
        E 19 b7 09 19
        E 19 b7 09 1c
        E 19 b7 09 1f
        E 19 b7 09 21
        E 19 b7 09 24
        E 19 b7 09 27
        E 19 b7 09 2a
        E 19 b7 09 2d
        E 19 b7 09 30
        E 19 b7 09 33
        E 19 b7 09 36
        E 19 b7 09 39
        E 19 b7 09 3c
        E 19 b7 09 40
        E 4 b7 09 39
        E 4 b7 09 3c
        E 4 b7 09 3f
        E 4 b7 09 41
        E 4 b7 09 44
        E 4 b7 09 47
        E 4 b7 09 49
        E 4 b7 09 4c
        E 4 b7 09 4f
        E 4 b7 09 51
        E 4 b7 09 54
        E 4 b7 09 56
        E 4 b7 09 59
        E 4 b7 09 5b
        E 4 b7 09 5d
        E 4 b7 09 5f
        E 4 b7 09 62
        E 4 b7 09 63
        E 4 b7 09 65
        E 4 b7 09 67
        E 4 b7 09 69
        E 4 b7 09 6a
        E 4 b7 09 6c
        E 4 b7 09 6c
        E 4 b7 09 6d
        E 4 b7 09 6e
        E 4 b7 09 6f
        E 4 b7 09 70
        E 4 b7 09 71
        E 4 b7 09 71
        E 4 b7 09 72
        E 4 b7 09 72
        E 4 b7 09 72
        E 4 b7 09 72
        E 4 b7 09 72
        E 4 b7 09 71
        E 4 b7 09 71
        E 4 b7 09 70
        E 4 b7 09 6f
        E 4 b7 09 6e
        E 4 b7 09 6d
        E 4 b7 09 6c
        E 4 b7 09 6b
        E 4 b7 09 69
        E 4 b7 09 68
        E 4 b7 09 66
        E 4 b7 09 64
        E 4 b7 09 63
        E 4 b7 09 61
        E 4 b7 09 5e
        E 4 b7 09 5c
        E 4 b7 09 5a
        E 4 b7 09 58
        E 4 b7 09 55
        E 4 b7 09 52
        E 4 b7 09 50
        E 4 b7 09 4e
        E 4 b7 09 4b
        E 4 b7 09 48
        E 4 b7 09 46
        E 4 b7 09 42
        E 4 b7 09 3f
        E 4 b7 09 3d
        E 4 b7 09 3a
        E 4 b7 09 37
        E 4 b7 09 35
        E 4 b7 09 32
        E 4 b7 09 2f
        E 4 b7 09 2c
        E 4 b7 09 29
        E 4 b7 09 26
        E 4 b7 09 24
        E 4 b7 09 22
        E 4 b7 09 1f
        E 4 b7 09 1c
        E 4 b7 09 1a
        E 4 b7 09 18
        E 4 b7 09 15
        E 4 b7 09 13
        E 4 b7 09 11
        E 4 b7 09 0f
        E 4 b7 09 0d
        E 4 b7 09 0b
        E 4 b7 09 09
        E 4 b7 09 09
        E 4 b7 09 07
        E 4 b7 09 06
        E 4 b7 09 04
        E 4 b7 09 03
        E 4 b7 09 02
        E 4 b7 09 01
        E 4 b7 09 00
        E 4 b7 09 00
        E 4 b7 09 00
        E 4 b7 09 00
        E 4 b7 09 00
        E 4 b7 09 00
        E 4 b7 09 00
        E 4 b7 09 00
        E 4 b7 09 00
        E 4 b7 09 01
        E 4 b7 09 02
        E 4 b7 09 03
        E 4 b7 09 04
        E 4 b7 09 05
        E 4 b7 09 06
        E 4 b7 09 08
        E 4 b7 09 09
        E 4 b7 09 0a
        E 4 b7 09 0c
        E 4 b7 09 0e
        E 4 b7 09 10
        E 4 b7 09 12
        E 4 b7 09 14
        E 4 b7 09 16
        E 4 b7 09 19
        E 4 b7 09 1b
        E 4 b7 09 1d
        E 4 b7 09 20
        E 4 b7 09 23
        E 4 b7 09 25
        E 4 b7 09 28
        E 4 b7 09 2b
        E 4 b7 09 2d
        E 4 b7 09 30
        E 4 b7 09 33
        E 4 b7 09 36
        E 4 b7 09 39
        E 2 b7 09 26
        E 2 b7 09 28
        E 2 b7 09 2a
        E 2 b7 09 2b
        E 2 b7 09 2d
        E 2 b7 09 2f
        E 2 b7 09 31
        E 2 b7 09 33
        E 2 b7 09 34
        E 2 b7 09 36
        E 2 b7 09 38
        E 2 b7 09 39
        E 2 b7 09 3b
        E 2 b7 09 3d
        E 2 b7 09 3e
        E 2 b7 09 3f
        E 2 b7 09 41
        E 2 b7 09 42
        E 2 b7 09 43
        E 2 b7 09 45
        E 2 b7 09 46
        E 2 b7 09 46
        E 2 b7 09 48
        E 2 b7 09 48
        E 2 b7 09 49
        E 2 b7 09 49
        E 2 b7 09 4a
        E 2 b7 09 4b
        E 2 b7 09 4b
        E 2 b7 09 4b
        E 2 b7 09 4c
        E 2 b7 09 4c
        E 2 b7 09 4c
        E 2 b7 09 4c
        E 2 b7 09 4c
        E 2 b7 09 4b
        E 2 b7 09 4b
        E 2 b7 09 4b
        E 2 b7 09 4a
        E 2 b7 09 49
        E 2 b7 09 49
        E 2 b7 09 48
        E 2 b7 09 47
        E 2 b7 09 46
        E 2 b7 09 45
        E 2 b7 09 44
        E 2 b7 09 43
        E 2 b7 09 42
        E 2 b7 09 40
        E 2 b7 09 3f
        E 2 b7 09 3d
        E 2 b7 09 3c
        E 2 b7 09 3a
        E 2 b7 09 39
        E 2 b7 09 37
        E 2 b7 09 35
        E 2 b7 09 34
        E 2 b7 09 32
        E 2 b7 09 30
        E 2 b7 09 2e
        E 2 b7 09 2c
        E 2 b7 09 2a
        E 2 b7 09 28
        E 2 b7 09 27
        E 2 b7 09 25
        E 2 b7 09 23
        E 2 b7 09 21
        E 2 b7 09 1f
        E 2 b7 09 1d
        E 2 b7 09 1b
        E 2 b7 09 19
        E 2 b7 09 18
        E 2 b7 09 16
        E 2 b7 09 15
        E 2 b7 09 13
        E 2 b7 09 11
        E 2 b7 09 10
        E 2 b7 09 0e
        E 2 b7 09 0d
        E 2 b7 09 0b
        E 2 b7 09 0a
        E 2 b7 09 09
        E 2 b7 09 07
        E 2 b7 09 06
        E 2 b7 09 06
        E 2 b7 09 04
        E 2 b7 09 04
        E 2 b7 09 03
        E 2 b7 09 02
        E 2 b7 09 01
        E 2 b7 09 01
        E 2 b7 09 00
        E 2 b7 09 00
        E 2 b7 09 00
        E 2 b7 09 00
        E 2 b7 09 00
        E 2 b7 09 00
        E 2 b7 09 00
        E 2 b7 09 00
        E 2 b7 09 00
        E 2 b7 09 01
        E 2 b7 09 01
        E 2 b7 09 02
        E 2 b7 09 03
        E 2 b7 09 03
        E 2 b7 09 04
        E 2 b7 09 05
        E 2 b7 09 06
        E 2 b7 09 07
        E 2 b7 09 08
        E 2 b7 09 09
        E 2 b7 09 0a
        E 2 b7 09 0c
        E 2 b7 09 0d
        E 2 b7 09 0f
        E 2 b7 09 10
        E 2 b7 09 12
        E 2 b7 09 13
        E 2 b7 09 15
        E 2 b7 09 17
        E 2 b7 09 19
        E 2 b7 09 1b
        E 2 b7 09 1c
        E 2 b7 09 1e
        E 2 b7 09 20
        E 2 b7 09 22
        E 2 b7 09 24
        E 2 b7 09 26
        E 11 b7 09 0c
        E 11 b7 09 0d
        E 11 b7 09 0e
        E 11 b7 09 0e
        E 11 b7 09 0f
        E 11 b7 09 0f
        E 11 b7 09 10
        E 11 b7 09 11
        E 11 b7 09 11
        E 11 b7 09 12
        E 11 b7 09 12
        E 11 b7 09 13
        E 11 b7 09 13
        E 11 b7 09 14
        E 11 b7 09 14
        E 11 b7 09 15
        E 11 b7 09 15
        E 11 b7 09 16
        E 11 b7 09 16
        E 11 b7 09 17
        E 11 b7 09 17
        E 11 b7 09 17
        E 11 b7 09 18
        E 11 b7 09 18
        E 11 b7 09 18
        E 11 b7 09 18
        E 11 b7 09 18
        E 11 b7 09 19
        E 11 b7 09 19
        E 11 b7 09 19
        E 11 b7 09 19
        E 11 b7 09 19
        E 11 b7 09 19
        E 11 b7 09 19
        E 11 b7 09 19
        E 11 b7 09 19
        E 11 b7 09 19
        E 11 b7 09 19
        E 11 b7 09 18
        E 11 b7 09 18
        E 11 b7 09 18
        E 11 b7 09 18
        E 11 b7 09 17
        E 11 b7 09 17
        E 11 b7 09 17
        E 11 b7 09 16
        E 11 b7 09 16
        E 11 b7 09 16
        E 11 b7 09 15
        E 11 b7 09 15
        E 11 b7 09 14
        E 11 b7 09 14
        E 11 b7 09 13
        E 11 b7 09 13
        E 11 b7 09 12
        E 11 b7 09 11
        E 11 b7 09 11
        E 11 b7 09 10
        E 11 b7 09 10
        E 11 b7 09 0f
        E 11 b7 09 0e
        E 11 b7 09 0e
        E 11 b7 09 0d
        E 11 b7 09 0d
        E 11 b7 09 0c
        E 11 b7 09 0b
        E 11 b7 09 0b
        E 11 b7 09 0a
        E 11 b7 09 09
        E 11 b7 09 09
        E 11 b7 09 08
        E 11 b7 09 08
        E 11 b7 09 07
        E 11 b7 09 07
        E 11 b7 09 06
        E 11 b7 09 05
        E 11 b7 09 05
        E 11 b7 09 04
        E 11 b7 09 04
        E 11 b7 09 03
        E 11 b7 09 03
        E 11 b7 09 03
        E 11 b7 09 02
        E 11 b7 09 02
        E 11 b7 09 02
        E 11 b7 09 01
        E 11 b7 09 01
        E 11 b7 09 01
        E 11 b7 09 00
        E 11 b7 09 00
        E 11 b7 09 00
        E 11 b7 09 00
        E 11 b7 09 00
        E 11 b7 09 00
        E 11 b7 09 00
        E 11 b7 09 00
        E 11 b7 09 00
        E 11 b7 09 00
        E 11 b7 09 00
        E 11 b7 09 00
        E 11 b7 09 00
        E 11 b7 09 00
        E 11 b7 09 00
        E 11 b7 09 01
        E 11 b7 09 01
        E 11 b7 09 01
        E 11 b7 09 01
        E 11 b7 09 02
        E 11 b7 09 02
        E 11 b7 09 02
        E 11 b7 09 03
        E 11 b7 09 03
        E 11 b7 09 04
        E 11 b7 09 04
        E 11 b7 09 05
        E 11 b7 09 05
        E 11 b7 09 06
        E 11 b7 09 06
        E 11 b7 09 07
        E 11 b7 09 07
        E 11 b7 09 08
        E 11 b7 09 09
        E 11 b7 09 09
        E 11 b7 09 0a
        E 11 b7 09 0a
        E 11 b7 09 0b
        E 11 b7 09 0c
        E 11 b7 09 0c
        E 8 b7 09 2c
        E 8 b7 09 2e
        E 8 b7 09 31
        E 8 b7 09 33
        E 8 b7 09 35
        E 8 b7 09 37
        E 8 b7 09 39
        E 8 b7 09 3b
        E 8 b7 09 3d
        E 8 b7 09 3f
        E 8 b7 09 41
        E 8 b7 09 43
        E 8 b7 09 45
        E 8 b7 09 47
        E 8 b7 09 48
        E 8 b7 09 4a
        E 8 b7 09 4c
        E 8 b7 09 4d
        E 8 b7 09 4f
        E 8 b7 09 50
        E 8 b7 09 51
        E 8 b7 09 52
        E 8 b7 09 54
        E 8 b7 09 54
        E 8 b7 09 55
        E 8 b7 09 56
        E 8 b7 09 56
        E 8 b7 09 57
        E 8 b7 09 58
        E 8 b7 09 58
        E 8 b7 09 58
        E 8 b7 09 58
        E 8 b7 09 58
        E 8 b7 09 58
        E 8 b7 09 58
        E 8 b7 09 58
        E 8 b7 09 58
        E 8 b7 09 57
        E 8 b7 09 56
        E 8 b7 09 56
        E 8 b7 09 55
        E 8 b7 09 54
        E 8 b7 09 53
        E 8 b7 09 51
        E 8 b7 09 51
        E 8 b7 09 4f
        E 8 b7 09 4e
        E 8 b7 09 4d
        E 8 b7 09 4b
        E 8 b7 09 49
        E 8 b7 09 48
        E 8 b7 09 46
        E 8 b7 09 44
        E 8 b7 09 42
        E 8 b7 09 40
        E 8 b7 09 3e
        E 8 b7 09 3c
        E 8 b7 09 3a
        E 8 b7 09 38
        E 8 b7 09 36
        E 8 b7 09 33
        E 8 b7 09 31
        E 8 b7 09 2f
        E 8 b7 09 2d
        E 8 b7 09 2b
        E 8 b7 09 29
        E 8 b7 09 27
        E 8 b7 09 25
        E 8 b7 09 22
        E 8 b7 09 20
        E 8 b7 09 1e
        E 8 b7 09 1c
        E 8 b7 09 1a
        E 8 b7 09 18
        E 8 b7 09 16
        E 8 b7 09 14
        E 8 b7 09 12
        E 8 b7 09 10
        E 8 b7 09 0f
        E 8 b7 09 0d
        E 8 b7 09 0b
        E 8 b7 09 0a
        E 8 b7 09 09
        E 8 b7 09 07
        E 8 b7 09 07
        E 8 b7 09 05
        E 8 b7 09 04
        E 8 b7 09 03
        E 8 b7 09 02
        E 8 b7 09 02
        E 8 b7 09 01
        E 8 b7 09 00
        E 8 b7 09 00
        E 8 b7 09 00
        E 8 b7 09 00
        E 8 b7 09 00
        E 8 b7 09 00
        E 8 b7 09 00
        E 8 b7 09 00
        E 8 b7 09 00
        E 8 b7 09 01
        E 8 b7 09 02
        E 8 b7 09 02
        E 8 b7 09 03
        E 8 b7 09 04
        E 8 b7 09 04
        E 8 b7 09 06
        E 8 b7 09 07
        E 8 b7 09 08
        E 8 b7 09 09
        E 8 b7 09 0b
        E 8 b7 09 0c
        E 8 b7 09 0e
        E 8 b7 09 10
        E 8 b7 09 11
        E 8 b7 09 13
        E 8 b7 09 15
        E 8 b7 09 17
        E 8 b7 09 19
        E 8 b7 09 1b
        E 8 b7 09 1d
        E 8 b7 09 1f
        E 8 b7 09 21
        E 8 b7 09 23
        E 8 b7 09 25
        E 8 b7 09 27
        E 8 b7 09 2a
        E 8 b7 09 2c
        E 3 b7 09 19
        E 3 b7 09 56
        E 3 b7 09 38
        E 3 b7 09 09
        E 3 b7 09 51
        E 3 b7 09 48
        E 3 b7 09 0a
        E 3 b7 09 09
        E 3 b7 09 36
        E 3 b7 09 6c
        E 3 b7 09 5a
        E 3 b7 09 63
        E 3 b7 09 47
        E 3 b7 09 0c
        E 3 b7 09 15
        E 3 b7 09 4d
        E 3 b7 09 3f
        E 3 b7 09 20
        E 3 b7 09 16
        E 3 b7 09 1e
        E 3 b7 09 59
        E 3 b7 09 35
        E 3 b7 09 1b
        E 3 b7 09 41
        E 3 b7 09 71
        E 3 b7 09 00
        E 3 b7 09 0e
        E 3 b7 09 2e
        E 3 b7 09 26
        E 3 b7 09 5d
        E 3 b7 09 18
        E 3 b7 09 07
        E 3 b7 09 12
        E 3 b7 09 13
        E 3 b7 09 67
        E 3 b7 09 1c
        E 3 b7 09 00
        E 3 b7 09 54
        E 3 b7 09 27
        E 3 b7 09 17
        E 3 b7 09 2d
        E 3 b7 09 1d
        E 3 b7 09 61
        E 3 b7 09 60
        E 3 b7 09 72
        E 3 b7 09 5f
        E 3 b7 09 31
        E 3 b7 09 6a
        E 3 b7 09 51
        E 3 b7 09 0d
        E 3 b7 09 32
        E 3 b7 09 3d
        E 3 b7 09 6c
        E 3 b7 09 57
        E 3 b7 09 3e
        E 3 b7 09 3f
        E 3 b7 09 05
        E 3 b7 09 0b
        E 3 b7 09 69
        E 3 b7 09 5b
        E 3 b7 09 30
        E 3 b7 09 24
        E 3 b7 09 0f
        E 3 b7 09 33
        E 3 b7 09 22
        E 3 b7 09 1b
        E 3 b7 09 2b
        E 3 b7 09 3b
        E 3 b7 09 45
        E 3 b7 09 49
        E 3 b7 09 12
        E 3 b7 09 44
        E 3 b7 09 65
        E 3 b7 09 3a
        E 3 b7 09 42
        E 3 b7 09 02
        E 3 b7 09 08
        E 3 b7 09 70
        E 3 b7 09 4a
        E 3 b7 09 14
        E 3 b7 09 68
        E 3 b7 09 24
        E 3 b7 09 2c
        E 3 b7 09 37
        E 3 b7 09 2d
        E 3 b7 09 4c
        E 3 b7 09 5c
        E 3 b7 09 21
        E 3 b7 09 40
        E 3 b7 09 1a
        E 3 b7 09 66
        E 3 b7 09 5e
        E 3 b7 09 34
        E 3 b7 09 29
        E 3 b7 09 5a
        E 3 b7 09 2a
        E 3 b7 09 50
        E 3 b7 09 10
        E 3 b7 09 01
        E 3 b7 09 25
        E 3 b7 09 39
        E 3 b7 09 62
        E 3 b7 09 58
        E 3 b7 09 03
        E 3 b7 09 63
        E 3 b7 09 53
        E 3 b7 09 06
        E 3 b7 09 23
        E 3 b7 09 43
        E 3 b7 09 55
        E 3 b7 09 6d
        E 3 b7 09 46
        E 3 b7 09 2f
        E 3 b7 09 1f
        E 3 b7 09 4f
        E 3 b7 09 52
        E 3 b7 09 64
        E 3 b7 09 6f
        E 3 b7 09 36
        E 3 b7 09 48
        E 3 b7 09 4e
        E 3 b7 09 3c
        E 3 b7 09 6b
        E 3 b7 09 11
        E 3 b7 09 28
        E 3 b7 09 4b
        E 1 b7 09 10
        E 1 b7 09 39
        E 1 b7 09 25
        E 1 b7 09 06
        E 1 b7 09 36
        E 1 b7 09 30
        E 1 b7 09 07
        E 1 b7 09 06
        E 1 b7 09 24
        E 1 b7 09 48
        E 1 b7 09 3c
        E 1 b7 09 42
        E 1 b7 09 2f
        E 1 b7 09 08
        E 1 b7 09 0e
        E 1 b7 09 33
        E 1 b7 09 2a
        E 1 b7 09 15
        E 1 b7 09 0f
        E 1 b7 09 14
        E 1 b7 09 3b
        E 1 b7 09 23
        E 1 b7 09 12
        E 1 b7 09 2b
        E 1 b7 09 4b
        E 1 b7 09 00
        E 1 b7 09 09
        E 1 b7 09 1f
        E 1 b7 09 19
        E 1 b7 09 3e
        E 1 b7 09 10
        E 1 b7 09 04
        E 1 b7 09 0c
        E 1 b7 09 0d
        E 1 b7 09 45
        E 1 b7 09 13
        E 1 b7 09 00
        E 1 b7 09 38
        E 1 b7 09 1a
        E 1 b7 09 0f
        E 1 b7 09 1e
        E 1 b7 09 13
        E 1 b7 09 40
        E 1 b7 09 40
        E 1 b7 09 4c
        E 1 b7 09 3f
        E 1 b7 09 21
        E 1 b7 09 46
        E 1 b7 09 36
        E 1 b7 09 09
        E 1 b7 09 21
        E 1 b7 09 28
        E 1 b7 09 48
        E 1 b7 09 3a
        E 1 b7 09 29
        E 1 b7 09 2a
        E 1 b7 09 03
        E 1 b7 09 07
        E 1 b7 09 46
        E 1 b7 09 3d
        E 1 b7 09 20
        E 1 b7 09 18
        E 1 b7 09 0a
        E 1 b7 09 22
        E 1 b7 09 16
        E 1 b7 09 12
        E 1 b7 09 1c
        E 1 b7 09 27
        E 1 b7 09 2e
        E 1 b7 09 31
        E 1 b7 09 0c
        E 1 b7 09 2d
        E 1 b7 09 43
        E 1 b7 09 27
        E 1 b7 09 2c
        E 1 b7 09 01
        E 1 b7 09 05
        E 1 b7 09 4b
        E 1 b7 09 31
        E 1 b7 09 0d
        E 1 b7 09 45
        E 1 b7 09 18
        E 1 b7 09 1d
        E 1 b7 09 25
        E 1 b7 09 1e
        E 1 b7 09 33
        E 1 b7 09 3d
        E 1 b7 09 16
        E 1 b7 09 2b
        E 1 b7 09 11
        E 1 b7 09 44
        E 1 b7 09 3f
        E 1 b7 09 22
        E 1 b7 09 1b
        E 1 b7 09 3c
        E 1 b7 09 1c
        E 1 b7 09 35
        E 1 b7 09 0a
        E 1 b7 09 01
        E 1 b7 09 19
        E 1 b7 09 26
        E 1 b7 09 41
        E 1 b7 09 3a
        E 1 b7 09 02
        E 1 b7 09 42
        E 1 b7 09 37
        E 1 b7 09 04
        E 1 b7 09 17
        E 1 b7 09 2d
        E 1 b7 09 39
        E 1 b7 09 49
        E 1 b7 09 2e
        E 1 b7 09 1f
        E 1 b7 09 15
        E 1 b7 09 34
        E 1 b7 09 37
        E 1 b7 09 43
        E 1 b7 09 4a
        E 1 b7 09 24
        E 1 b7 09 30
        E 1 b7 09 34
        E 1 b7 09 28
        E 1 b7 09 47
        E 1 b7 09 0b
        E 1 b7 09 1b
        E 1 b7 09 32
        E 8 b7 09 05
        E 8 b7 09 13
        E 8 b7 09 0c
        E 8 b7 09 02
        E 8 b7 09 12
        E 8 b7 09 10
        E 8 b7 09 02
        E 8 b7 09 02
        E 8 b7 09 0c
        E 8 b7 09 18
        E 8 b7 09 14
        E 8 b7 09 16
        E 8 b7 09 0f
        E 8 b7 09 02
        E 8 b7 09 04
        E 8 b7 09 11
        E 8 b7 09 0e
        E 8 b7 09 07
        E 8 b7 09 05
        E 8 b7 09 06
        E 8 b7 09 13
        E 8 b7 09 0b
        E 8 b7 09 06
        E 8 b7 09 0e
        E 8 b7 09 19
        E 8 b7 09 00
        E 8 b7 09 03
        E 8 b7 09 0a
        E 8 b7 09 08
        E 8 b7 09 14
        E 8 b7 09 05
        E 8 b7 09 01
        E 8 b7 09 04
        E 8 b7 09 04
        E 8 b7 09 17
        E 8 b7 09 06
        E 8 b7 09 00
        E 8 b7 09 12
        E 8 b7 09 08
        E 8 b7 09 05
        E 8 b7 09 0a
        E 8 b7 09 06
        E 8 b7 09 15
        E 8 b7 09 15
        E 8 b7 09 19
        E 8 b7 09 15
        E 8 b7 09 0b
        E 8 b7 09 17
        E 8 b7 09 12
        E 8 b7 09 03
        E 8 b7 09 0b
        E 8 b7 09 0d
        E 8 b7 09 18
        E 8 b7 09 13
        E 8 b7 09 0d
        E 8 b7 09 0e
        E 8 b7 09 01
        E 8 b7 09 02
        E 8 b7 09 17
        E 8 b7 09 14
        E 8 b7 09 0a
        E 8 b7 09 08
        E 8 b7 09 03
        E 8 b7 09 0b
        E 8 b7 09 07
        E 8 b7 09 06
        E 8 b7 09 09
        E 8 b7 09 0d
        E 8 b7 09 0f
        E 8 b7 09 10
        E 8 b7 09 04
        E 8 b7 09 0f
        E 8 b7 09 16
        E 8 b7 09 0d
        E 8 b7 09 0e
        E 8 b7 09 00
        E 8 b7 09 01
        E 8 b7 09 19
        E 8 b7 09 10
        E 8 b7 09 04
        E 8 b7 09 17
        E 8 b7 09 08
        E 8 b7 09 09
        E 8 b7 09 0c
        E 8 b7 09 0a
        E 8 b7 09 11
        E 8 b7 09 14
        E 8 b7 09 07
        E 8 b7 09 0e
        E 8 b7 09 05
        E 8 b7 09 16
        E 8 b7 09 15
        E 8 b7 09 0b
        E 8 b7 09 09
        E 8 b7 09 14
        E 8 b7 09 09
        E 8 b7 09 11
        E 8 b7 09 03
        E 8 b7 09 00
        E 8 b7 09 08
        E 8 b7 09 0c
        E 8 b7 09 15
        E 8 b7 09 13
        E 8 b7 09 00
        E 8 b7 09 16
        E 8 b7 09 12
        E 8 b7 09 01
        E 8 b7 09 07
        E 8 b7 09 0f
        E 8 b7 09 13
        E 8 b7 09 18
        E 8 b7 09 0f
        E 8 b7 09 0a
        E 8 b7 09 07
        E 8 b7 09 11
        E 8 b7 09 12
        E 8 b7 09 16
        E 8 b7 09 18
        E 8 b7 09 0c
        E 8 b7 09 10
        E 8 b7 09 11
        E 8 b7 09 0d
        E 8 b7 09 17
        E 8 b7 09 03
        E 8 b7 09 09
        E 8 b7 09 10
        E 6 b7 09 13
        E 6 b7 09 43
        E 6 b7 09 2c
        E 6 b7 09 07
        E 6 b7 09 3e
        E 6 b7 09 38
        E 6 b7 09 08
        E 6 b7 09 07
        E 6 b7 09 2a
        E 6 b7 09 54
        E 6 b7 09 46
        E 6 b7 09 4d
        E 6 b7 09 37
        E 6 b7 09 09
        E 6 b7 09 10
        E 6 b7 09 3c
        E 6 b7 09 31
        E 6 b7 09 19
        E 6 b7 09 11
        E 6 b7 09 17
        E 6 b7 09 45
        E 6 b7 09 29
        E 6 b7 09 15
        E 6 b7 09 33
        E 6 b7 09 58
        E 6 b7 09 00
        E 6 b7 09 0b
        E 6 b7 09 24
        E 6 b7 09 1e
        E 6 b7 09 48
        E 6 b7 09 12
        E 6 b7 09 05
        E 6 b7 09 0e
        E 6 b7 09 0f
        E 6 b7 09 50
        E 6 b7 09 16
        E 6 b7 09 00
        E 6 b7 09 41
        E 6 b7 09 1e
        E 6 b7 09 12
        E 6 b7 09 23
        E 6 b7 09 17
        E 6 b7 09 4b
        E 6 b7 09 4a
        E 6 b7 09 58
        E 6 b7 09 4a
        E 6 b7 09 26
        E 6 b7 09 52
        E 6 b7 09 3f
        E 6 b7 09 0a
        E 6 b7 09 27
        E 6 b7 09 2f
        E 6 b7 09 54
        E 6 b7 09 43
        E 6 b7 09 30
        E 6 b7 09 31
        E 6 b7 09 04
        E 6 b7 09 09
        E 6 b7 09 51
        E 6 b7 09 47
        E 6 b7 09 25
        E 6 b7 09 1c
        E 6 b7 09 0b
        E 6 b7 09 27
        E 6 b7 09 1a
        E 6 b7 09 15
        E 6 b7 09 21
        E 6 b7 09 2e
        E 6 b7 09 35
        E 6 b7 09 39
        E 6 b7 09 0e
        E 6 b7 09 35
        E 6 b7 09 4f
        E 6 b7 09 2d
        E 6 b7 09 33
        E 6 b7 09 02
        E 6 b7 09 06
        E 6 b7 09 57
        E 6 b7 09 3a
        E 6 b7 09 10
        E 6 b7 09 51
        E 6 b7 09 1c
        E 6 b7 09 22
        E 6 b7 09 2b
        E 6 b7 09 23
        E 6 b7 09 3b
        E 6 b7 09 48
        E 6 b7 09 19
        E 6 b7 09 32
        E 6 b7 09 14
        E 6 b7 09 4f
        E 6 b7 09 49
        E 6 b7 09 28
        E 6 b7 09 20
        E 6 b7 09 46
        E 6 b7 09 20
        E 6 b7 09 3e
        E 6 b7 09 0c
        E 6 b7 09 01
        E 6 b7 09 1d
        E 6 b7 09 2c
        E 6 b7 09 4c
        E 6 b7 09 44
        E 6 b7 09 02
        E 6 b7 09 4d
        E 6 b7 09 41
        E 6 b7 09 04
        E 6 b7 09 1b
        E 6 b7 09 34
        E 6 b7 09 42
        E 6 b7 09 55
        E 6 b7 09 36
        E 6 b7 09 25
        E 6 b7 09 18
        E 6 b7 09 3d
        E 6 b7 09 40
        E 6 b7 09 4e
        E 6 b7 09 56
        E 6 b7 09 2a
        E 6 b7 09 38
        E 6 b7 09 3c
        E 6 b7 09 2e
        E 6 b7 09 53
        E 6 b7 09 0d
        E 6 b7 09 1f
        E 6 b7 09 3a
        E 1 b7 09 0b
        E 1 b7 09 26
        E 1 b7 09 19
        E 1 b7 09 04
        E 1 b7 09 24
        E 1 b7 09 20
        E 1 b7 09 04
        E 1 b7 09 04
        E 1 b7 09 18
        E 1 b7 09 30
        E 1 b7 09 28
        E 1 b7 09 2c
        E 1 b7 09 1f
        E 1 b7 09 05
        E 1 b7 09 09
        E 1 b7 09 22
        E 1 b7 09 1c
        E 1 b7 09 0e
        E 1 b7 09 0a
        E 1 b7 09 0d
        E 1 b7 09 27
        E 1 b7 09 17
        E 1 b7 09 0c
        E 1 b7 09 1d
        E 1 b7 09 32
        E 1 b7 09 00
        E 1 b7 09 06
        E 1 b7 09 14
        E 1 b7 09 11
        E 1 b7 09 29
        E 1 b7 09 0a
        E 1 b7 09 03
        E 1 b7 09 08
        E 1 b7 09 08
        E 1 b7 09 2e
        E 1 b7 09 0c
        E 1 b7 09 00
        E 1 b7 09 25
        E 1 b7 09 11
        E 1 b7 09 0a
        E 1 b7 09 14
        E 1 b7 09 0d
        E 1 b7 09 2b
        E 1 b7 09 2a
        E 1 b7 09 32
        E 1 b7 09 2a
        E 1 b7 09 16
        E 1 b7 09 2f
        E 1 b7 09 24
        E 1 b7 09 06
        E 1 b7 09 16
        E 1 b7 09 1b
        E 1 b7 09 30
        E 1 b7 09 26
        E 1 b7 09 1b
        E 1 b7 09 1c
        E 1 b7 09 02
        E 1 b7 09 05
        E 1 b7 09 2e
        E 1 b7 09 28
        E 1 b7 09 15
        E 1 b7 09 10
        E 1 b7 09 06
        E 1 b7 09 16
        E 1 b7 09 0f
        E 1 b7 09 0c
        E 1 b7 09 13
        E 1 b7 09 1a
        E 1 b7 09 1e
        E 1 b7 09 20
        E 1 b7 09 08
        E 1 b7 09 1e
        E 1 b7 09 2d
        E 1 b7 09 1a
        E 1 b7 09 1d
        E 1 b7 09 01
        E 1 b7 09 03
        E 1 b7 09 32
        E 1 b7 09 21
        E 1 b7 09 09
        E 1 b7 09 2e
        E 1 b7 09 10
        E 1 b7 09 13
        E 1 b7 09 18
        E 1 b7 09 14
        E 1 b7 09 22
        E 1 b7 09 29
        E 1 b7 09 0e
        E 1 b7 09 1c
        E 1 b7 09 0b
        E 1 b7 09 2d
        E 1 b7 09 2a
        E 1 b7 09 17
        E 1 b7 09 12
        E 1 b7 09 28
        E 1 b7 09 12
        E 1 b7 09 23
        E 1 b7 09 07
        E 1 b7 09 00
        E 1 b7 09 10
        E 1 b7 09 19
        E 1 b7 09 2b
        E 1 b7 09 27
        E 1 b7 09 01
        E 1 b7 09 2c
        E 1 b7 09 25
        E 1 b7 09 02
        E 1 b7 09 0f
        E 1 b7 09 1e
        E 1 b7 09 26
        E 1 b7 09 30
        E 1 b7 09 1f
        E 1 b7 09 15
        E 1 b7 09 0e
        E 1 b7 09 23
        E 1 b7 09 24
        E 1 b7 09 2c
        E 1 b7 09 31
        E 1 b7 09 18
        E 1 b7 09 20
        E 1 b7 09 22
        E 1 b7 09 1a
        E 1 b7 09 2f
        E 1 b7 09 07
        E 1 b7 09 12
        E 1 b7 09 21
        E 15 b7 09 1c
        E 15 b7 09 60
        E 15 b7 09 3f
        E 15 b7 09 0a
        E 15 b7 09 5a
        E 15 b7 09 50
        E 15 b7 09 0c
        E 15 b7 09 0b
        E 15 b7 09 3d
        E 15 b7 09 78
        E 15 b7 09 65
        E 15 b7 09 6f
        E 15 b7 09 4f
        E 15 b7 09 0e
        E 15 b7 09 18
        E 15 b7 09 56
        E 15 b7 09 46
        E 15 b7 09 24
        E 15 b7 09 19
        E 15 b7 09 22
        E 15 b7 09 63
        E 15 b7 09 3b
        E 15 b7 09 1e
        E 15 b7 09 49
        E 15 b7 09 7e
        E 15 b7 09 00
        E 15 b7 09 10
        E 15 b7 09 34
        E 15 b7 09 2b
        E 15 b7 09 68
        E 15 b7 09 1b
        E 15 b7 09 08
        E 15 b7 09 14
        E 15 b7 09 16
        E 15 b7 09 73
        E 15 b7 09 20
        E 15 b7 09 01
        E 15 b7 09 5e
        E 15 b7 09 2c
        E 15 b7 09 1a
        E 15 b7 09 32
        E 15 b7 09 21
        E 15 b7 09 6c
        E 15 b7 09 6b
        E 15 b7 09 7f
        E 15 b7 09 6a
        E 15 b7 09 37
        E 15 b7 09 76
        E 15 b7 09 5b
        E 15 b7 09 0f
        E 15 b7 09 38
        E 15 b7 09 44
        E 15 b7 09 79
        E 15 b7 09 61
        E 15 b7 09 45
        E 15 b7 09 47
        E 15 b7 09 06
        E 15 b7 09 0d
        E 15 b7 09 75
        E 15 b7 09 66
        E 15 b7 09 36
        E 15 b7 09 28
        E 15 b7 09 11
        E 15 b7 09 39
        E 15 b7 09 26
        E 15 b7 09 1f
        E 15 b7 09 30
        E 15 b7 09 42
        E 15 b7 09 4d
        E 15 b7 09 52
        E 15 b7 09 15
        E 15 b7 09 4c
        E 15 b7 09 71
        E 15 b7 09 41
        E 15 b7 09 4a
        E 15 b7 09 03
        E 15 b7 09 09
        E 15 b7 09 7d
        E 15 b7 09 53
        E 15 b7 09 17
        E 15 b7 09 74
        E 15 b7 09 29
        E 15 b7 09 31
        E 15 b7 09 3e
        E 15 b7 09 33
        E 15 b7 09 55
        E 15 b7 09 67
        E 15 b7 09 25
        E 15 b7 09 48
        E 15 b7 09 1d
        E 15 b7 09 72
        E 15 b7 09 69
        E 15 b7 09 3a
        E 15 b7 09 2e
        E 15 b7 09 64
        E 15 b7 09 2f
        E 15 b7 09 59
        E 15 b7 09 12
        E 15 b7 09 02
        E 15 b7 09 2a
        E 15 b7 09 40
        E 15 b7 09 6d
        E 15 b7 09 62
        E 15 b7 09 04
        E 15 b7 09 6e
        E 15 b7 09 5d
        E 15 b7 09 07
        E 15 b7 09 27
        E 15 b7 09 4b
        E 15 b7 09 5f
        E 15 b7 09 7a
        E 15 b7 09 4e
        E 15 b7 09 35
        E 15 b7 09 23
        E 15 b7 09 58
        E 15 b7 09 5c
        E 15 b7 09 70
        E 15 b7 09 7c
        E 15 b7 09 3c
        E 15 b7 09 51
        E 15 b7 09 57
        E 15 b7 09 43
        E 15 b7 09 77
        E 15 b7 09 13
        E 15 b7 09 2d
        E 15 b7 09 54
        E 3 b7 09 19
        E 3 b7 09 56
        E 3 b7 09 38
        E 3 b7 09 09
        E 3 b7 09 51
        E 3 b7 09 48
        E 3 b7 09 0a
        E 3 b7 09 09
        E 3 b7 09 36
        E 3 b7 09 6c
        E 3 b7 09 5a
        E 3 b7 09 63
        E 3 b7 09 47
        E 3 b7 09 0c
        E 3 b7 09 15
        E 3 b7 09 4d
        E 3 b7 09 3f
        E 3 b7 09 20
        E 3 b7 09 16
        E 3 b7 09 1e
        E 3 b7 09 59
        E 3 b7 09 35
        E 3 b7 09 1b
        E 3 b7 09 41
        E 3 b7 09 71
        E 3 b7 09 00
        E 3 b7 09 0e
        E 3 b7 09 2e
        E 3 b7 09 26
        E 3 b7 09 5d
        E 3 b7 09 18
        E 3 b7 09 07
        E 3 b7 09 12
        E 3 b7 09 13
        E 3 b7 09 67
        E 3 b7 09 1c
        E 3 b7 09 00
        E 3 b7 09 54
        E 3 b7 09 27
        E 3 b7 09 17
        E 3 b7 09 2d
        E 3 b7 09 1d
        E 3 b7 09 61
        E 3 b7 09 60
        E 3 b7 09 72
        E 3 b7 09 5f
        E 3 b7 09 31
        E 3 b7 09 6a
        E 3 b7 09 51
        E 3 b7 09 0d
        E 3 b7 09 32
        E 3 b7 09 3d
        E 3 b7 09 6c
        E 3 b7 09 57
        E 3 b7 09 3e
        E 3 b7 09 3f
        E 3 b7 09 05
        E 3 b7 09 0b
        E 3 b7 09 69
        E 3 b7 09 5b
        E 3 b7 09 30
        E 3 b7 09 24
        E 3 b7 09 0f
        E 3 b7 09 33
        E 3 b7 09 22
        E 3 b7 09 1b
        E 3 b7 09 2b
        E 3 b7 09 3b
        E 3 b7 09 45
        E 3 b7 09 49
        E 3 b7 09 12
        E 3 b7 09 44
        E 3 b7 09 65
        E 3 b7 09 3a
        E 3 b7 09 42
        E 3 b7 09 02
        E 3 b7 09 08
        E 3 b7 09 70
        E 3 b7 09 4a
        E 3 b7 09 14
        E 3 b7 09 68
        E 3 b7 09 24
        E 3 b7 09 2c
        E 3 b7 09 37
        E 3 b7 09 2d
        E 3 b7 09 4c
        E 3 b7 09 5c
        E 3 b7 09 21
        E 3 b7 09 40
        E 3 b7 09 1a
        E 3 b7 09 66
        E 3 b7 09 5e
        E 3 b7 09 34
        E 3 b7 09 29
        E 3 b7 09 5a
        E 3 b7 09 2a
        E 3 b7 09 50
        E 3 b7 09 10
        E 3 b7 09 01
        E 3 b7 09 25
        E 3 b7 09 39
        E 3 b7 09 62
        E 3 b7 09 58
        E 3 b7 09 03
        E 3 b7 09 63
        E 3 b7 09 53
        E 3 b7 09 06
        E 3 b7 09 23
        E 3 b7 09 43
        E 3 b7 09 55
        E 3 b7 09 6d
        E 3 b7 09 46
        E 3 b7 09 2f
        E 3 b7 09 1f
        E 3 b7 09 4f
        E 3 b7 09 52
        E 3 b7 09 64
        E 3 b7 09 6f
        E 3 b7 09 36
        E 3 b7 09 48
        E 3 b7 09 4e
        E 3 b7 09 3c
        E 3 b7 09 6b
        E 3 b7 09 11
        E 3 b7 09 28
        E 3 b7 09 4b
        E 1 b7 09 10
        E 1 b7 09 39
        E 1 b7 09 25
        E 1 b7 09 06
        E 1 b7 09 36
        E 1 b7 09 30
        E 1 b7 09 07
        E 1 b7 09 06
        E 1 b7 09 24
        E 1 b7 09 48
        E 1 b7 09 3c
        E 1 b7 09 42
        E 1 b7 09 2f
        E 1 b7 09 08
        E 1 b7 09 0e
        E 1 b7 09 33
        E 1 b7 09 2a
        E 1 b7 09 15
        E 1 b7 09 0f
        E 1 b7 09 14
        E 1 b7 09 3b
        E 1 b7 09 23
        E 1 b7 09 12
        E 1 b7 09 2b
        E 1 b7 09 4b
        E 1 b7 09 00
        E 1 b7 09 09
        E 1 b7 09 1f
        E 1 b7 09 19
        E 1 b7 09 3e
        E 1 b7 09 10
        E 1 b7 09 04
        E 1 b7 09 0c
        E 1 b7 09 0d
        E 1 b7 09 45
        E 1 b7 09 13
        E 1 b7 09 00
        E 1 b7 09 38
        E 1 b7 09 1a
        E 1 b7 09 0f
        E 1 b7 09 1e
        E 1 b7 09 13
        E 1 b7 09 40
        E 1 b7 09 40
        E 1 b7 09 4c
        E 1 b7 09 3f
        E 1 b7 09 21
        E 1 b7 09 46
        E 1 b7 09 36
        E 1 b7 09 09
        E 1 b7 09 21
        E 1 b7 09 28
        E 1 b7 09 48
        E 1 b7 09 3a
        E 1 b7 09 29
        E 1 b7 09 2a
        E 1 b7 09 03
        E 1 b7 09 07
        E 1 b7 09 46
        E 1 b7 09 3d
        E 1 b7 09 20
        E 1 b7 09 18
        E 1 b7 09 0a
        E 1 b7 09 22
        E 1 b7 09 16
        E 1 b7 09 12
        E 1 b7 09 1c
        E 1 b7 09 27
        E 1 b7 09 2e
        E 1 b7 09 31
        E 1 b7 09 0c
        E 1 b7 09 2d
        E 1 b7 09 43
        E 1 b7 09 27
        E 1 b7 09 2c
        E 1 b7 09 01
        E 1 b7 09 05
        E 1 b7 09 4b
        E 1 b7 09 31
        E 1 b7 09 0d
        E 1 b7 09 45
        E 1 b7 09 18
        E 1 b7 09 1d
        E 1 b7 09 25
        E 1 b7 09 1e
        E 1 b7 09 33
        E 1 b7 09 3d
        E 1 b7 09 16
        E 1 b7 09 2b
        E 1 b7 09 11
        E 1 b7 09 44
        E 1 b7 09 3f
        E 1 b7 09 22
        E 1 b7 09 1b
        E 1 b7 09 3c
        E 1 b7 09 1c
        E 1 b7 09 35
        E 1 b7 09 0a
        E 1 b7 09 01
        E 1 b7 09 19
        E 1 b7 09 26
        E 1 b7 09 41
        E 1 b7 09 3a
        E 1 b7 09 02
        E 1 b7 09 42
        E 1 b7 09 37
        E 1 b7 09 04
        E 1 b7 09 17
        E 1 b7 09 2d
        E 1 b7 09 39
        E 1 b7 09 49
        E 1 b7 09 2e
        E 1 b7 09 1f
        E 1 b7 09 15
        E 1 b7 09 34
        E 1 b7 09 37
        E 1 b7 09 43
        E 1 b7 09 4a
        E 1 b7 09 24
        E 1 b7 09 30
        E 1 b7 09 34
        E 1 b7 09 28
        E 1 b7 09 47
        E 1 b7 09 0b
        E 1 b7 09 1b
        E 1 b7 09 32
        E 8 b7 09 05
        E 8 b7 09 13
        E 8 b7 09 0c
        E 8 b7 09 02
        E 8 b7 09 12
        E 8 b7 09 10
        E 8 b7 09 02
        E 8 b7 09 02
        E 8 b7 09 0c
        E 8 b7 09 18
        E 8 b7 09 14
        E 8 b7 09 16
        E 8 b7 09 0f
        E 8 b7 09 02
        E 8 b7 09 04
        E 8 b7 09 11
        E 8 b7 09 0e
        E 8 b7 09 07
        E 8 b7 09 05
        E 8 b7 09 06
        E 8 b7 09 13
        E 8 b7 09 0b
        E 8 b7 09 06
        E 8 b7 09 0e
        E 8 b7 09 19
        E 8 b7 09 00
        E 8 b7 09 03
        E 8 b7 09 0a
        E 8 b7 09 08
        E 8 b7 09 14
        E 8 b7 09 05
        E 8 b7 09 01
        E 8 b7 09 04
        E 8 b7 09 04
        E 8 b7 09 17
        E 8 b7 09 06
        E 8 b7 09 00
        E 8 b7 09 12
        E 8 b7 09 08
        E 8 b7 09 05
        E 8 b7 09 0a
        E 8 b7 09 06
        E 8 b7 09 15
        E 8 b7 09 15
        E 8 b7 09 19
        E 8 b7 09 15
        E 8 b7 09 0b
        E 8 b7 09 17
        E 8 b7 09 12
        E 8 b7 09 03
        E 8 b7 09 0b
        E 8 b7 09 0d
        E 8 b7 09 18
        E 8 b7 09 13
        E 8 b7 09 0d
        E 8 b7 09 0e
        E 8 b7 09 01
        E 8 b7 09 02
        E 8 b7 09 17
        E 8 b7 09 14
        E 8 b7 09 0a
        E 8 b7 09 08
        E 8 b7 09 03
        E 8 b7 09 0b
        E 8 b7 09 07
        E 8 b7 09 06
        E 8 b7 09 09
        E 8 b7 09 0d
        E 8 b7 09 0f
        E 8 b7 09 10
        E 8 b7 09 04
        E 8 b7 09 0f
        E 8 b7 09 16
        E 8 b7 09 0d
        E 8 b7 09 0e
        E 8 b7 09 00
        E 8 b7 09 01
        E 8 b7 09 19
        E 8 b7 09 10
        E 8 b7 09 04
        E 8 b7 09 17
        E 8 b7 09 08
        E 8 b7 09 09
        E 8 b7 09 0c
        E 8 b7 09 0a
        E 8 b7 09 11
        E 8 b7 09 14
        E 8 b7 09 07
        E 8 b7 09 0e
        E 8 b7 09 05
        E 8 b7 09 16
        E 8 b7 09 15
        E 8 b7 09 0b
        E 8 b7 09 09
        E 8 b7 09 14
        E 8 b7 09 09
        E 8 b7 09 11
        E 8 b7 09 03
        E 8 b7 09 00
        E 8 b7 09 08
        E 8 b7 09 0c
        E 8 b7 09 15
        E 8 b7 09 13
        E 8 b7 09 00
        E 8 b7 09 16
        E 8 b7 09 12
        E 8 b7 09 01
        E 8 b7 09 07
        E 8 b7 09 0f
        E 8 b7 09 13
        E 8 b7 09 18
        E 8 b7 09 0f
        E 8 b7 09 0a
        E 8 b7 09 07
        E 8 b7 09 11
        E 8 b7 09 12
        E 8 b7 09 16
        E 8 b7 09 18
        E 8 b7 09 0c
        E 8 b7 09 10
        E 8 b7 09 11
        E 8 b7 09 0d
        E 8 b7 09 17
        E 8 b7 09 03
        E 8 b7 09 09
        E 8 b7 09 10
        E 6 b7 09 13
        E 6 b7 09 43
        E 6 b7 09 2c
        E 6 b7 09 07
        E 6 b7 09 3e
        E 6 b7 09 38
        E 6 b7 09 08
        E 6 b7 09 07
        E 6 b7 09 2a
        E 6 b7 09 54
        E 6 b7 09 46
        E 6 b7 09 4d
        E 6 b7 09 37
        E 6 b7 09 09
        E 6 b7 09 10
        E 6 b7 09 3c
        E 6 b7 09 31
        E 6 b7 09 19
        E 6 b7 09 11
        E 6 b7 09 17
        E 6 b7 09 45
        E 6 b7 09 29
        E 6 b7 09 15
        E 6 b7 09 33
        E 6 b7 09 58
        E 6 b7 09 00
        E 6 b7 09 0b
        E 6 b7 09 24
        E 6 b7 09 1e
        E 6 b7 09 48
        E 6 b7 09 12
        E 6 b7 09 05
        E 6 b7 09 0e
        E 6 b7 09 0f
        E 6 b7 09 50
        E 6 b7 09 16
        E 6 b7 09 00
        E 6 b7 09 41
        E 6 b7 09 1e
        E 6 b7 09 12
        E 6 b7 09 23
        E 6 b7 09 17
        E 6 b7 09 4b
        E 6 b7 09 4a
        E 6 b7 09 58
        E 6 b7 09 4a
        E 6 b7 09 26
        E 6 b7 09 52
        E 6 b7 09 3f
        E 6 b7 09 0a
        E 6 b7 09 27
        E 6 b7 09 2f
        E 6 b7 09 54
        E 6 b7 09 43
        E 6 b7 09 30
        E 6 b7 09 31
        E 6 b7 09 04
        E 6 b7 09 09
        E 6 b7 09 51
        E 6 b7 09 47
        E 6 b7 09 25
        E 6 b7 09 1c
        E 6 b7 09 0b
        E 6 b7 09 27
        E 6 b7 09 1a
        E 6 b7 09 15
        E 6 b7 09 21
        E 6 b7 09 2e
        E 6 b7 09 35
        E 6 b7 09 39
        E 6 b7 09 0e
        E 6 b7 09 35
        E 6 b7 09 4f
        E 6 b7 09 2d
        E 6 b7 09 33
        E 6 b7 09 02
        E 6 b7 09 06
        E 6 b7 09 57
        E 6 b7 09 3a
        E 6 b7 09 10
        E 6 b7 09 51
        E 6 b7 09 1c
        E 6 b7 09 22
        E 6 b7 09 2b
        E 6 b7 09 23
        E 6 b7 09 3b
        E 6 b7 09 48
        E 6 b7 09 19
        E 6 b7 09 32
        E 6 b7 09 14
        E 6 b7 09 4f
        E 6 b7 09 49
        E 6 b7 09 28
        E 6 b7 09 20
        E 6 b7 09 46
        E 6 b7 09 20
        E 6 b7 09 3e
        E 6 b7 09 0c
        E 6 b7 09 01
        E 6 b7 09 1d
        E 6 b7 09 2c
        E 6 b7 09 4c
        E 6 b7 09 44
        E 6 b7 09 02
        E 6 b7 09 4d
        E 6 b7 09 41
        E 6 b7 09 04
        E 6 b7 09 1b
        E 6 b7 09 34
        E 6 b7 09 42
        E 6 b7 09 55
        E 6 b7 09 36
        E 6 b7 09 25
        E 6 b7 09 18
        E 6 b7 09 3d
        E 6 b7 09 40
        E 6 b7 09 4e
        E 6 b7 09 56
        E 6 b7 09 2a
        E 6 b7 09 38
        E 6 b7 09 3c
        E 6 b7 09 2e
        E 6 b7 09 53
        E 6 b7 09 0d
        E 6 b7 09 1f
        E 6 b7 09 3a
        E 1 b7 09 0b
        E 1 b7 09 26
        E 1 b7 09 19
        E 1 b7 09 04
        E 1 b7 09 24
        E 1 b7 09 20
        E 1 b7 09 04
        E 1 b7 09 04
        E 1 b7 09 18
        E 1 b7 09 30
        E 1 b7 09 28
        E 1 b7 09 2c
        E 1 b7 09 1f
        E 1 b7 09 05
        E 1 b7 09 09
        E 1 b7 09 22
        E 1 b7 09 1c
        E 1 b7 09 0e
        E 1 b7 09 0a
        E 1 b7 09 0d
        E 1 b7 09 27
        E 1 b7 09 17
        E 1 b7 09 0c
        E 1 b7 09 1d
        E 1 b7 09 32
        E 1 b7 09 00
        E 1 b7 09 06
        E 1 b7 09 14
        E 1 b7 09 11
        E 1 b7 09 29
        E 1 b7 09 0a
        E 1 b7 09 03
        E 1 b7 09 08
        E 1 b7 09 08
        E 1 b7 09 2e
        E 1 b7 09 0c
        E 1 b7 09 00
        E 1 b7 09 25
        E 1 b7 09 11
        E 1 b7 09 0a
        E 1 b7 09 14
        E 1 b7 09 0d
        E 1 b7 09 2b
        E 1 b7 09 2a
        E 1 b7 09 32
        E 1 b7 09 2a
        E 1 b7 09 16
        E 1 b7 09 2f
        E 1 b7 09 24
        E 1 b7 09 06
        E 1 b7 09 16
        E 1 b7 09 1b
        E 1 b7 09 30
        E 1 b7 09 26
        E 1 b7 09 1b
        E 1 b7 09 1c
        E 1 b7 09 02
        E 1 b7 09 05
        E 1 b7 09 2e
        E 1 b7 09 28
        E 1 b7 09 15
        E 1 b7 09 10
        E 1 b7 09 06
        E 1 b7 09 16
        E 1 b7 09 0f
        E 1 b7 09 0c
        E 1 b7 09 13
        E 1 b7 09 1a
        E 1 b7 09 1e
        E 1 b7 09 20
        E 1 b7 09 08
        E 1 b7 09 1e
        E 1 b7 09 2d
        E 1 b7 09 1a
        E 1 b7 09 1d
        E 1 b7 09 01
        E 1 b7 09 03
        E 1 b7 09 32
        E 1 b7 09 21
        E 1 b7 09 09
        E 1 b7 09 2e
        E 1 b7 09 10
        E 1 b7 09 13
        E 1 b7 09 18
        E 1 b7 09 14
        E 1 b7 09 22
        E 1 b7 09 29
        E 1 b7 09 0e
        E 1 b7 09 1c
        E 1 b7 09 0b
        E 1 b7 09 2d
        E 1 b7 09 2a
        E 1 b7 09 17
        E 1 b7 09 12
        E 1 b7 09 28
        E 1 b7 09 12
        E 1 b7 09 23
        E 1 b7 09 07
        E 1 b7 09 00
        E 1 b7 09 10
        E 1 b7 09 19
        E 1 b7 09 2b
        E 1 b7 09 27
        E 1 b7 09 01
        E 1 b7 09 2c
        E 1 b7 09 25
        E 1 b7 09 02
        E 1 b7 09 0f
        E 1 b7 09 1e
        E 1 b7 09 26
        E 1 b7 09 30
        E 1 b7 09 1f
        E 1 b7 09 15
        E 1 b7 09 0e
        E 1 b7 09 23
        E 1 b7 09 24
        E 1 b7 09 2c
        E 1 b7 09 31
        E 1 b7 09 18
        E 1 b7 09 20
        E 1 b7 09 22
        E 1 b7 09 1a
        E 1 b7 09 2f
        E 1 b7 09 07
        E 1 b7 09 12
        E 1 b7 09 21
        E 15 b7 09 1c
        E 15 b7 09 60
        E 15 b7 09 3f
        E 15 b7 09 0a
        E 15 b7 09 5a
        E 15 b7 09 50
        E 15 b7 09 0c
        E 15 b7 09 0b
        E 15 b7 09 3d
        E 15 b7 09 78
        E 15 b7 09 65
        E 15 b7 09 6f
        E 15 b7 09 4f
        E 15 b7 09 0e
        E 15 b7 09 18
        E 15 b7 09 56
        E 15 b7 09 46
        E 15 b7 09 24
        E 15 b7 09 19
        E 15 b7 09 22
        E 15 b7 09 63
        E 15 b7 09 3b
        E 15 b7 09 1e
        E 15 b7 09 49
        E 15 b7 09 7e
        E 15 b7 09 00
        E 15 b7 09 10
        E 15 b7 09 34
        E 15 b7 09 2b
        E 15 b7 09 68
        E 15 b7 09 1b
        E 15 b7 09 08
        E 15 b7 09 14
        E 15 b7 09 16
        E 15 b7 09 73
        E 15 b7 09 20
        E 15 b7 09 01
        E 15 b7 09 5e
        E 15 b7 09 2c
        E 15 b7 09 1a
        E 15 b7 09 32
        E 15 b7 09 21
        E 15 b7 09 6c
        E 15 b7 09 6b
        E 15 b7 09 7f
        E 15 b7 09 6a
        E 15 b7 09 37
        E 15 b7 09 76
        E 15 b7 09 5b
        E 15 b7 09 0f
        E 15 b7 09 38
        E 15 b7 09 44
        E 15 b7 09 79
        E 15 b7 09 61
        E 15 b7 09 45
        E 15 b7 09 47
        E 15 b7 09 06
        E 15 b7 09 0d
        E 15 b7 09 75
        E 15 b7 09 66
        E 15 b7 09 36
        E 15 b7 09 28
        E 15 b7 09 11
        E 15 b7 09 39
        E 15 b7 09 26
        E 15 b7 09 1f
        E 15 b7 09 30
        E 15 b7 09 42
        E 15 b7 09 4d
        E 15 b7 09 52
        E 15 b7 09 15
        E 15 b7 09 4c
        E 15 b7 09 71
        E 15 b7 09 41
        E 15 b7 09 4a
        E 15 b7 09 03
        E 15 b7 09 09
        E 15 b7 09 7d
        E 15 b7 09 53
        E 15 b7 09 17
        E 15 b7 09 74
        E 15 b7 09 29
        E 15 b7 09 31
        E 15 b7 09 3e
        E 15 b7 09 33
        E 15 b7 09 55
        E 15 b7 09 67
        E 15 b7 09 25
        E 15 b7 09 48
        E 15 b7 09 1d
        E 15 b7 09 72
        E 15 b7 09 69
        E 15 b7 09 3a
        E 15 b7 09 2e
        E 15 b7 09 64
        E 15 b7 09 2f
        E 15 b7 09 59
        E 15 b7 09 12
        E 15 b7 09 02
        E 15 b7 09 2a
        E 15 b7 09 40
        E 15 b7 09 6d
        E 15 b7 09 62
        E 15 b7 09 04
        E 15 b7 09 6e
        E 15 b7 09 5d
        E 15 b7 09 07
        E 15 b7 09 27
        E 15 b7 09 4b
        E 15 b7 09 5f
        E 15 b7 09 7a
        E 15 b7 09 4e
        E 15 b7 09 35
        E 15 b7 09 23
        E 15 b7 09 58
        E 15 b7 09 5c
        E 15 b7 09 70
        E 15 b7 09 7c
        E 15 b7 09 3c
        E 15 b7 09 51
        E 15 b7 09 57
        E 15 b7 09 43
        E 15 b7 09 77
        E 15 b7 09 13
        E 15 b7 09 2d
        E 15 b7 09 54
        E 3 b7 09 19
        E 3 b7 09 56
        E 3 b7 09 38
        E 3 b7 09 09
        E 3 b7 09 51
        E 3 b7 09 48
        E 3 b7 09 0a
        E 3 b7 09 09
        E 3 b7 09 36
        E 3 b7 09 6c
        E 3 b7 09 5a
        E 3 b7 09 63
        E 3 b7 09 47
        E 3 b7 09 0c
        E 3 b7 09 15
        E 3 b7 09 4d
        E 3 b7 09 3f
        E 3 b7 09 20
        E 3 b7 09 16
        E 3 b7 09 1e
        E 3 b7 09 59
        E 3 b7 09 35
        E 3 b7 09 1b
        E 3 b7 09 41
        E 3 b7 09 71
        E 3 b7 09 00
        E 3 b7 09 0e
        E 3 b7 09 2e
        E 3 b7 09 26
        E 3 b7 09 5d
        E 3 b7 09 18
        E 3 b7 09 07
        E 3 b7 09 12
        E 3 b7 09 13
        E 3 b7 09 67
        E 3 b7 09 1c
        E 3 b7 09 00
        E 3 b7 09 54
        E 3 b7 09 27
        E 3 b7 09 17
        E 3 b7 09 2d
        E 3 b7 09 1d
        E 3 b7 09 61
        E 3 b7 09 60
        E 3 b7 09 72
        E 3 b7 09 5f
        E 3 b7 09 31
        E 3 b7 09 6a
        E 3 b7 09 51
        E 3 b7 09 0d
        E 3 b7 09 32
        E 3 b7 09 3d
        E 3 b7 09 6c
        E 3 b7 09 57
        E 3 b7 09 3e
        E 3 b7 09 3f
        E 3 b7 09 05
        E 3 b7 09 0b
        E 3 b7 09 69
        E 3 b7 09 5b
        E 3 b7 09 30
        E 3 b7 09 24
        E 3 b7 09 0f
        E 3 b7 09 33
        E 3 b7 09 22
        E 3 b7 09 1b
        E 3 b7 09 2b
        E 3 b7 09 3b
        E 3 b7 09 45
        E 3 b7 09 49
        E 3 b7 09 12
        E 3 b7 09 44
        E 3 b7 09 65
        E 3 b7 09 3a
        E 3 b7 09 42
        E 3 b7 09 02
        E 3 b7 09 08
        E 3 b7 09 70
        E 3 b7 09 4a
        E 3 b7 09 14
        E 3 b7 09 68
        E 3 b7 09 24
        E 3 b7 09 2c
        E 3 b7 09 37
        E 3 b7 09 2d
        E 3 b7 09 4c
        E 3 b7 09 5c
        E 3 b7 09 21
        E 3 b7 09 40
        E 3 b7 09 1a
        E 3 b7 09 66
        E 3 b7 09 5e
        E 3 b7 09 34
        E 3 b7 09 29
        E 3 b7 09 5a
        E 3 b7 09 2a
        E 3 b7 09 50
        E 3 b7 09 10
        E 3 b7 09 01
        E 3 b7 09 25
        E 3 b7 09 39
        E 3 b7 09 62
        E 3 b7 09 58
        E 3 b7 09 03
        E 3 b7 09 63
        E 3 b7 09 53
        E 3 b7 09 06
        E 3 b7 09 23
        E 3 b7 09 43
        E 3 b7 09 55
        E 3 b7 09 6d
        E 3 b7 09 46
        E 3 b7 09 2f
        E 3 b7 09 1f
        E 3 b7 09 4f
        E 3 b7 09 52
        E 3 b7 09 64
        E 3 b7 09 6f
        E 3 b7 09 36
        E 3 b7 09 48
        E 3 b7 09 4e
        E 3 b7 09 3c
        E 3 b7 09 6b
        E 3 b7 09 11
        E 3 b7 09 28
        E 3 b7 09 4b
        E 1 b7 09 10
        E 1 b7 09 39
        E 1 b7 09 25
        E 1 b7 09 06
        E 1 b7 09 36
        E 1 b7 09 30
        E 1 b7 09 07
        E 1 b7 09 06
        E 1 b7 09 24
        E 1 b7 09 48
        E 1 b7 09 3c
        E 1 b7 09 42
        E 1 b7 09 2f
        E 1 b7 09 08
        E 1 b7 09 0e
        E 1 b7 09 33
        E 1 b7 09 2a
        E 1 b7 09 15
        E 1 b7 09 0f
        E 1 b7 09 14
        E 1 b7 09 3b
        E 1 b7 09 23
        E 1 b7 09 12
        E 1 b7 09 2b
        E 1 b7 09 4b
        E 1 b7 09 00
        E 1 b7 09 09
        E 1 b7 09 1f
        E 1 b7 09 19
        E 1 b7 09 3e
        E 1 b7 09 10
        E 1 b7 09 04
        E 1 b7 09 0c
        E 1 b7 09 0d
        E 1 b7 09 45
        E 1 b7 09 13
        E 1 b7 09 00
        E 1 b7 09 38
        E 1 b7 09 1a
        E 1 b7 09 0f
        E 1 b7 09 1e
        E 1 b7 09 13
        E 1 b7 09 40
        E 1 b7 09 40
        E 1 b7 09 4c
        E 1 b7 09 3f
        E 1 b7 09 21
        E 1 b7 09 46
        E 1 b7 09 36
        E 1 b7 09 09
        E 1 b7 09 21
        E 1 b7 09 28
        E 1 b7 09 48
        E 1 b7 09 3a
        E 1 b7 09 29
        E 1 b7 09 2a
        E 1 b7 09 03
        E 1 b7 09 07
        E 1 b7 09 46
        E 1 b7 09 3d
        E 1 b7 09 20
        E 1 b7 09 18
        E 1 b7 09 0a
        E 1 b7 09 22
        E 1 b7 09 16
        E 1 b7 09 12
        E 1 b7 09 1c
        E 1 b7 09 27
        E 1 b7 09 2e
        E 1 b7 09 31
        E 1 b7 09 0c
        E 1 b7 09 2d
        E 1 b7 09 43
        E 1 b7 09 27
        E 1 b7 09 2c
        E 1 b7 09 01
        E 1 b7 09 05
        E 1 b7 09 4b
        E 1 b7 09 31
        E 1 b7 09 0d
        E 1 b7 09 45
        E 1 b7 09 18
        E 1 b7 09 1d
        E 1 b7 09 25
        E 1 b7 09 1e
        E 1 b7 09 33
        E 1 b7 09 3d
        E 1 b7 09 16
        E 1 b7 09 2b
        E 1 b7 09 11
        E 1 b7 09 44
        E 1 b7 09 3f
        E 1 b7 09 22
        E 1 b7 09 1b
        E 1 b7 09 3c
        E 1 b7 09 1c
        E 1 b7 09 35
        E 1 b7 09 0a
        E 1 b7 09 01
        E 1 b7 09 19
        E 1 b7 09 26
        E 1 b7 09 41
        E 1 b7 09 3a
        E 1 b7 09 02
        E 1 b7 09 42
        E 1 b7 09 37
        E 1 b7 09 04
        E 1 b7 09 17
        E 1 b7 09 2d
        E 1 b7 09 39
        E 1 b7 09 49
        E 1 b7 09 2e
        E 1 b7 09 1f
        E 1 b7 09 15
        E 1 b7 09 34
        E 1 b7 09 37
        E 1 b7 09 43
        E 1 b7 09 4a
        E 1 b7 09 24
        E 1 b7 09 30
        E 1 b7 09 34
        E 1 b7 09 28
        E 1 b7 09 47
        E 1 b7 09 0b
        E 1 b7 09 1b
        E 1 b7 09 32
        E 8 b7 09 05
        E 8 b7 09 13
        E 8 b7 09 0c
        E 8 b7 09 02
        E 8 b7 09 12
        E 8 b7 09 10
        E 8 b7 09 02
        E 8 b7 09 02
        E 8 b7 09 0c
        E 8 b7 09 18
        E 8 b7 09 14
        E 8 b7 09 16
        E 8 b7 09 0f
        E 8 b7 09 02
        E 8 b7 09 04
        E 8 b7 09 11
        E 8 b7 09 0e
        E 8 b7 09 07
        E 8 b7 09 05
        E 8 b7 09 06
        E 8 b7 09 13
        E 8 b7 09 0b
        E 8 b7 09 06
        E 8 b7 09 0e
        E 8 b7 09 19
        E 8 b7 09 00
        E 8 b7 09 03
        E 8 b7 09 0a
        E 8 b7 09 08
        E 8 b7 09 14
        E 8 b7 09 05
        E 8 b7 09 01
        E 8 b7 09 04
        E 8 b7 09 04
        E 8 b7 09 17
        E 8 b7 09 06
        E 8 b7 09 00
        E 8 b7 09 12
        E 8 b7 09 08
        E 8 b7 09 05
        E 8 b7 09 0a
        E 8 b7 09 06
        E 8 b7 09 15
        E 8 b7 09 15
        E 8 b7 09 19
        E 8 b7 09 15
        E 8 b7 09 0b
        E 8 b7 09 17
        E 8 b7 09 12
        E 8 b7 09 03
        E 8 b7 09 0b
        E 8 b7 09 0d
        E 8 b7 09 18
        E 8 b7 09 13
        E 8 b7 09 0d
        E 8 b7 09 0e
        E 8 b7 09 01
        E 8 b7 09 02
        E 8 b7 09 17
        E 8 b7 09 14
        E 8 b7 09 0a
        E 8 b7 09 08
        E 8 b7 09 03
        E 8 b7 09 0b
        E 8 b7 09 07
        E 8 b7 09 06
        E 8 b7 09 09
        E 8 b7 09 0d
        E 8 b7 09 0f
        E 8 b7 09 10
        E 8 b7 09 04
        E 8 b7 09 0f
        E 8 b7 09 16
        E 8 b7 09 0d
        E 8 b7 09 0e
        E 8 b7 09 00
        E 8 b7 09 01
        E 8 b7 09 19
        E 8 b7 09 10
        E 8 b7 09 04
        E 8 b7 09 17
        E 8 b7 09 08
        E 8 b7 09 09
        E 8 b7 09 0c
        E 8 b7 09 0a
        E 8 b7 09 11
        E 8 b7 09 14
        E 8 b7 09 07
        E 8 b7 09 0e
        E 8 b7 09 05
        E 8 b7 09 16
        E 8 b7 09 15
        E 8 b7 09 0b
        E 8 b7 09 09
        E 8 b7 09 14
        E 8 b7 09 09
        E 8 b7 09 11
        E 8 b7 09 03
        E 8 b7 09 00
        E 8 b7 09 08
        E 8 b7 09 0c
        E 8 b7 09 15
        E 8 b7 09 13
        E 8 b7 09 00
        E 8 b7 09 16
        E 8 b7 09 12
        E 8 b7 09 01
        E 8 b7 09 07
        E 8 b7 09 0f
        E 8 b7 09 13
        E 8 b7 09 18
        E 8 b7 09 0f
        E 8 b7 09 0a
        E 8 b7 09 07
        E 8 b7 09 11
        E 8 b7 09 12
        E 8 b7 09 16
        E 8 b7 09 18
        E 8 b7 09 0c
        E 8 b7 09 10
        E 8 b7 09 11
        E 8 b7 09 0d
        E 8 b7 09 17
        E 8 b7 09 03
        E 8 b7 09 09
        E 8 b7 09 10
        E 6 b7 09 13
        E 6 b7 09 43
        E 6 b7 09 2c
        E 6 b7 09 07
        E 6 b7 09 3e
        E 6 b7 09 38
        E 6 b7 09 08
        E 6 b7 09 07
        E 6 b7 09 2a
        E 6 b7 09 54
        E 6 b7 09 46
        E 6 b7 09 4d
        E 6 b7 09 37
        E 6 b7 09 09
        E 6 b7 09 10
        E 6 b7 09 3c
        E 6 b7 09 31
        E 6 b7 09 19
        E 6 b7 09 11
        E 6 b7 09 17
        E 6 b7 09 45
        E 6 b7 09 29
        E 6 b7 09 15
        E 6 b7 09 33
        E 6 b7 09 58
        E 6 b7 09 00
        E 6 b7 09 0b
        E 6 b7 09 24
        E 6 b7 09 1e
        E 6 b7 09 48
        E 6 b7 09 12
        E 6 b7 09 05
        E 6 b7 09 0e
        E 6 b7 09 0f
        E 6 b7 09 50
        E 6 b7 09 16
        E 6 b7 09 00
        E 6 b7 09 41
        E 6 b7 09 1e
        E 6 b7 09 12
        E 6 b7 09 23
        E 6 b7 09 17
        E 6 b7 09 4b
        E 6 b7 09 4a
        E 6 b7 09 58
        E 6 b7 09 4a
        E 6 b7 09 26
        E 6 b7 09 52
        E 6 b7 09 3f
        E 6 b7 09 0a
        E 6 b7 09 27
        E 6 b7 09 2f
        E 6 b7 09 54
        E 6 b7 09 43
        E 6 b7 09 30
        E 6 b7 09 31
        E 6 b7 09 04
        E 6 b7 09 09
        E 6 b7 09 51
        E 6 b7 09 47
        E 6 b7 09 25
        E 6 b7 09 1c
        E 6 b7 09 0b
        E 6 b7 09 27
        E 6 b7 09 1a
        E 6 b7 09 15
        E 6 b7 09 21
        E 6 b7 09 2e
        E 6 b7 09 35
        E 6 b7 09 39
        E 6 b7 09 0e
        E 6 b7 09 35
        E 6 b7 09 4f
        E 6 b7 09 2d
        E 6 b7 09 33
        E 6 b7 09 02
        E 6 b7 09 06
        E 6 b7 09 57
        E 6 b7 09 3a
        E 6 b7 09 10
        E 6 b7 09 51
        E 6 b7 09 1c
        E 6 b7 09 22
        E 6 b7 09 2b
        E 6 b7 09 23
        E 6 b7 09 3b
        E 6 b7 09 48
        E 6 b7 09 19
        E 6 b7 09 32
        E 6 b7 09 14
        E 6 b7 09 4f
        E 6 b7 09 49
        E 6 b7 09 28
        E 6 b7 09 20
        E 6 b7 09 46
        E 6 b7 09 20
        E 6 b7 09 3e
        E 6 b7 09 0c
        E 6 b7 09 01
        E 6 b7 09 1d
        E 6 b7 09 2c
        E 6 b7 09 4c
        E 6 b7 09 44
        E 6 b7 09 02
        E 6 b7 09 4d
        E 6 b7 09 41
        E 6 b7 09 04
        E 6 b7 09 1b
        E 6 b7 09 34
        E 6 b7 09 42
        E 6 b7 09 55
        E 6 b7 09 36
        E 6 b7 09 25
        E 6 b7 09 18
        E 6 b7 09 3d
        E 6 b7 09 40
        E 6 b7 09 4e
        E 6 b7 09 56
        E 6 b7 09 2a
        E 6 b7 09 38
        E 6 b7 09 3c
        E 6 b7 09 2e
        E 6 b7 09 53
        E 6 b7 09 0d
        E 6 b7 09 1f
        E 6 b7 09 3a
        E 1 b7 09 0b
        E 1 b7 09 26
        E 1 b7 09 19
        E 1 b7 09 04
        E 1 b7 09 24
        E 1 b7 09 20
        E 1 b7 09 04
        E 1 b7 09 04
        E 1 b7 09 18
        E 1 b7 09 30
        E 1 b7 09 28
        E 1 b7 09 2c
        E 1 b7 09 1f
        E 1 b7 09 05
        E 1 b7 09 09
        E 1 b7 09 22
        E 1 b7 09 1c
        E 1 b7 09 0e
        E 1 b7 09 0a
        E 1 b7 09 0d
        E 1 b7 09 27
        E 1 b7 09 17
        E 1 b7 09 0c
        E 1 b7 09 1d
        E 1 b7 09 32
        E 1 b7 09 00
        E 1 b7 09 06
        E 1 b7 09 14
        E 1 b7 09 11
        E 1 b7 09 29
        E 1 b7 09 0a
        E 1 b7 09 03
        E 1 b7 09 08
        E 1 b7 09 08
        E 1 b7 09 2e
        E 1 b7 09 0c
        E 1 b7 09 00
        E 1 b7 09 25
        E 1 b7 09 11
        E 1 b7 09 0a
        E 1 b7 09 14
        E 1 b7 09 0d
        E 1 b7 09 2b
        E 1 b7 09 2a
        E 1 b7 09 32
        E 1 b7 09 2a
        E 1 b7 09 16
        E 1 b7 09 2f
        E 1 b7 09 24
        E 1 b7 09 06
        E 1 b7 09 16
        E 1 b7 09 1b
        E 1 b7 09 30
        E 1 b7 09 26
        E 1 b7 09 1b
        E 1 b7 09 1c
        E 1 b7 09 02
        E 1 b7 09 05
        E 1 b7 09 2e
        E 1 b7 09 28
        E 1 b7 09 15
        E 1 b7 09 10
        E 1 b7 09 06
        E 1 b7 09 16
        E 1 b7 09 0f
        E 1 b7 09 0c
        E 1 b7 09 13
        E 1 b7 09 1a
        E 1 b7 09 1e
        E 1 b7 09 20
        E 1 b7 09 08
        E 1 b7 09 1e
        E 1 b7 09 2d
        E 1 b7 09 1a
        E 1 b7 09 1d
        E 1 b7 09 01
        E 1 b7 09 03
        E 1 b7 09 32
        E 1 b7 09 21
        E 1 b7 09 09
        E 1 b7 09 2e
        E 1 b7 09 10
        E 1 b7 09 13
        E 1 b7 09 18
        E 1 b7 09 14
        E 1 b7 09 22
        E 1 b7 09 29
        E 1 b7 09 0e
        E 1 b7 09 1c
        E 1 b7 09 0b
        E 1 b7 09 2d
        E 1 b7 09 2a
        E 1 b7 09 17
        E 1 b7 09 12
        E 1 b7 09 28
        E 1 b7 09 12
        E 1 b7 09 23
        E 1 b7 09 07
        E 1 b7 09 00
        E 1 b7 09 10
        E 1 b7 09 19
        E 1 b7 09 2b
        E 1 b7 09 27
        E 1 b7 09 01
        E 1 b7 09 2c
        E 1 b7 09 25
        E 1 b7 09 02
        E 1 b7 09 0f
        E 1 b7 09 1e
        E 1 b7 09 26
        E 1 b7 09 30
        E 1 b7 09 1f
        E 1 b7 09 15
        E 1 b7 09 0e
        E 1 b7 09 23
        E 1 b7 09 24
        E 1 b7 09 2c
        E 1 b7 09 31
        E 1 b7 09 18
        E 1 b7 09 20
        E 1 b7 09 22
        E 1 b7 09 1a
        E 1 b7 09 2f
        E 1 b7 09 07
        E 1 b7 09 12
        E 1 b7 09 21
        E 15 b7 09 1c
        E 15 b7 09 60
        E 15 b7 09 3f
        E 15 b7 09 0a
        E 15 b7 09 5a
        E 15 b7 09 50
        E 15 b7 09 0c
        E 15 b7 09 0b
        E 15 b7 09 3d
        E 15 b7 09 78
        E 15 b7 09 65
        E 15 b7 09 6f
        E 15 b7 09 4f
        E 15 b7 09 0e
        E 15 b7 09 18
        E 15 b7 09 56
        E 15 b7 09 46
        E 15 b7 09 24
        E 15 b7 09 19
        E 15 b7 09 22
        E 15 b7 09 63
        E 15 b7 09 3b
        E 15 b7 09 1e
        E 15 b7 09 49
        E 15 b7 09 7e
        E 15 b7 09 00
        E 15 b7 09 10
        E 15 b7 09 34
        E 15 b7 09 2b
        E 15 b7 09 68
        E 15 b7 09 1b
        E 15 b7 09 08
        E 15 b7 09 14
        E 15 b7 09 16
        E 15 b7 09 73
        E 15 b7 09 20
        E 15 b7 09 01
        E 15 b7 09 5e
        E 15 b7 09 2c
        E 15 b7 09 1a
        E 15 b7 09 32
        E 15 b7 09 21
        E 15 b7 09 6c
        E 15 b7 09 6b
        E 15 b7 09 7f
        E 15 b7 09 6a
        E 15 b7 09 37
        E 15 b7 09 76
        E 15 b7 09 5b
        E 15 b7 09 0f
        E 15 b7 09 38
        E 15 b7 09 44
        E 15 b7 09 79
        E 15 b7 09 61
        E 15 b7 09 45
        E 15 b7 09 47
        E 15 b7 09 06
        E 15 b7 09 0d
        E 15 b7 09 75
        E 15 b7 09 66
        E 15 b7 09 36
        E 15 b7 09 28
        E 15 b7 09 11
        E 15 b7 09 39
        E 15 b7 09 26
        E 15 b7 09 1f
        E 15 b7 09 30
        E 15 b7 09 42
        E 15 b7 09 4d
        E 15 b7 09 52
        E 15 b7 09 15
        E 15 b7 09 4c
        E 15 b7 09 71
        E 15 b7 09 41
        E 15 b7 09 4a
        E 15 b7 09 03
        E 15 b7 09 09
        E 15 b7 09 7d
        E 15 b7 09 53
        E 15 b7 09 17
        E 15 b7 09 74
        E 15 b7 09 29
        E 15 b7 09 31
        E 15 b7 09 3e
        E 15 b7 09 33
        E 15 b7 09 55
        E 15 b7 09 67
        E 15 b7 09 25
        E 15 b7 09 48
        E 15 b7 09 1d
        E 15 b7 09 72
        E 15 b7 09 69
        E 15 b7 09 3a
        E 15 b7 09 2e
        E 15 b7 09 64
        E 15 b7 09 2f
        E 15 b7 09 59
        E 15 b7 09 12
        E 15 b7 09 02
        E 15 b7 09 2a
        E 15 b7 09 40
        E 15 b7 09 6d
        E 15 b7 09 62
        E 15 b7 09 04
        E 15 b7 09 6e
        E 15 b7 09 5d
        E 15 b7 09 07
        E 15 b7 09 27
        E 15 b7 09 4b
        E 15 b7 09 5f
        E 15 b7 09 7a
        E 15 b7 09 4e
        E 15 b7 09 35
        E 15 b7 09 23
        E 15 b7 09 58
        E 15 b7 09 5c
        E 15 b7 09 70
        E 15 b7 09 7c
        E 15 b7 09 3c
        E 15 b7 09 51
        E 15 b7 09 57
        E 15 b7 09 43
        E 15 b7 09 77
        E 15 b7 09 13
        E 15 b7 09 2d
        E 15 b7 09 54
        E 3 b7 09 19
        E 3 b7 09 56
        E 3 b7 09 38
        E 3 b7 09 09
        E 3 b7 09 51
        E 3 b7 09 48
        E 3 b7 09 0a
        E 3 b7 09 09
        E 3 b7 09 36
        E 3 b7 09 6c
        E 3 b7 09 5a
        E 3 b7 09 63
        E 3 b7 09 47
        E 3 b7 09 0c
        E 3 b7 09 15
        E 3 b7 09 4d
        E 3 b7 09 3f
        E 3 b7 09 20
        E 3 b7 09 16
        E 3 b7 09 1e
        E 3 b7 09 59
        E 3 b7 09 35
        E 3 b7 09 1b
        E 3 b7 09 41
        E 3 b7 09 71
        E 3 b7 09 00
        E 3 b7 09 0e
        E 3 b7 09 2e
        E 3 b7 09 26
        E 3 b7 09 5d
        E 3 b7 09 18
        E 3 b7 09 07
        E 3 b7 09 12
        E 3 b7 09 13
        E 3 b7 09 67
        E 3 b7 09 1c
        E 3 b7 09 00
        E 3 b7 09 54
        E 3 b7 09 27
        E 3 b7 09 17
        E 3 b7 09 2d
        E 3 b7 09 1d
        E 3 b7 09 61
        E 3 b7 09 60
        E 3 b7 09 72
        E 3 b7 09 5f
        E 3 b7 09 31
        E 3 b7 09 6a
        E 3 b7 09 51
        E 3 b7 09 0d
        E 3 b7 09 32
        E 3 b7 09 3d
        E 3 b7 09 6c
        E 3 b7 09 57
        E 3 b7 09 3e
        E 3 b7 09 3f
        E 3 b7 09 05
        E 3 b7 09 0b
        E 3 b7 09 69
        E 3 b7 09 5b
        E 3 b7 09 30
        E 3 b7 09 24
        E 3 b7 09 0f
        E 3 b7 09 33
        E 3 b7 09 22
        E 3 b7 09 1b
        E 3 b7 09 2b
        E 3 b7 09 3b
        E 3 b7 09 45
        E 3 b7 09 49
        E 3 b7 09 12
        E 3 b7 09 44
        E 3 b7 09 65
        E 3 b7 09 3a
        E 3 b7 09 42
        E 3 b7 09 02
        E 3 b7 09 08
        E 3 b7 09 70
        E 3 b7 09 4a
        E 3 b7 09 14
        E 3 b7 09 68
        E 3 b7 09 24
        E 3 b7 09 2c
        E 3 b7 09 37
        E 3 b7 09 2d
        E 3 b7 09 4c
        E 3 b7 09 5c
        E 3 b7 09 21
        E 3 b7 09 40
        E 3 b7 09 1a
        E 3 b7 09 66
        E 3 b7 09 5e
        E 3 b7 09 34
        E 3 b7 09 29
        E 3 b7 09 5a
        E 3 b7 09 2a
        E 3 b7 09 50
        E 3 b7 09 10
        E 3 b7 09 01
        E 3 b7 09 25
        E 3 b7 09 39
        E 3 b7 09 62
        E 3 b7 09 58
        E 3 b7 09 03
        E 3 b7 09 63
        E 3 b7 09 53
        E 3 b7 09 06
        E 3 b7 09 23
        E 3 b7 09 43
        E 3 b7 09 55
        E 3 b7 09 6d
        E 3 b7 09 46
        E 3 b7 09 2f
        E 3 b7 09 1f
        E 3 b7 09 4f
        E 3 b7 09 52
        E 3 b7 09 64
        E 3 b7 09 6f
        E 3 b7 09 36
        E 3 b7 09 48
        E 3 b7 09 4e
        E 3 b7 09 3c
        E 3 b7 09 6b
        E 3 b7 09 11
        E 3 b7 09 28
        E 3 b7 09 4b
        E 1 b7 09 10
        E 1 b7 09 39
        E 1 b7 09 25
        E 1 b7 09 06
        E 1 b7 09 36
        E 1 b7 09 30
        E 1 b7 09 07
        E 1 b7 09 06
        E 1 b7 09 24
        E 1 b7 09 48
        E 1 b7 09 3c
        E 1 b7 09 42
        E 1 b7 09 2f
        E 1 b7 09 08
        E 1 b7 09 0e
        E 1 b7 09 33
        E 1 b7 09 2a
        E 1 b7 09 15
        E 1 b7 09 0f
        E 1 b7 09 14
        E 1 b7 09 3b
        E 1 b7 09 23
        E 1 b7 09 12
        E 1 b7 09 2b
        E 1 b7 09 4b
        E 1 b7 09 00
        E 1 b7 09 09
        E 1 b7 09 1f
        E 1 b7 09 19
        E 1 b7 09 3e
        E 1 b7 09 10
        E 1 b7 09 04
        E 1 b7 09 0c
        E 1 b7 09 0d
        E 1 b7 09 45
        E 1 b7 09 13
        E 1 b7 09 00
        E 1 b7 09 38
        E 1 b7 09 1a
        E 1 b7 09 0f
        E 1 b7 09 1e
        E 1 b7 09 13
        E 1 b7 09 40
        E 1 b7 09 40
        E 1 b7 09 4c
        E 1 b7 09 3f
        E 1 b7 09 21
        E 1 b7 09 46
        E 1 b7 09 36
        E 1 b7 09 09
        E 1 b7 09 21
        E 1 b7 09 28
        E 1 b7 09 48
        E 1 b7 09 3a
        E 1 b7 09 29
        E 1 b7 09 2a
        E 1 b7 09 03
        E 1 b7 09 07
        E 1 b7 09 46
        E 1 b7 09 3d
        E 1 b7 09 20
        E 1 b7 09 18
        E 1 b7 09 0a
        E 1 b7 09 22
        E 1 b7 09 16
        E 1 b7 09 12
        E 1 b7 09 1c
        E 1 b7 09 27
        E 1 b7 09 2e
        E 1 b7 09 31
        E 1 b7 09 0c
        E 1 b7 09 2d
        E 1 b7 09 43
        E 1 b7 09 27
        E 1 b7 09 2c
        E 1 b7 09 01
        E 1 b7 09 05
        E 1 b7 09 4b
        E 1 b7 09 31
        E 1 b7 09 0d
        E 1 b7 09 45
        E 1 b7 09 18
        E 1 b7 09 1d
        E 1 b7 09 25
        E 1 b7 09 1e
        E 1 b7 09 33
        E 1 b7 09 3d
        E 1 b7 09 16
        E 1 b7 09 2b
        E 1 b7 09 11
        E 1 b7 09 44
        E 1 b7 09 3f
        E 1 b7 09 22
        E 1 b7 09 1b
        E 1 b7 09 3c
        E 1 b7 09 1c
        E 1 b7 09 35
        E 1 b7 09 0a
        E 1 b7 09 01
        E 1 b7 09 19
        E 1 b7 09 26
        E 1 b7 09 41
        E 1 b7 09 3a
        E 1 b7 09 02
        E 1 b7 09 42
        E 1 b7 09 37
        E 1 b7 09 04
        E 1 b7 09 17
        E 1 b7 09 2d
        E 1 b7 09 39
        E 1 b7 09 49
        E 1 b7 09 2e
        E 1 b7 09 1f
        E 1 b7 09 15
        E 1 b7 09 34
        E 1 b7 09 37
        E 1 b7 09 43
        E 1 b7 09 4a
        E 1 b7 09 24
        E 1 b7 09 30
        E 1 b7 09 34
        E 1 b7 09 28
        E 1 b7 09 47
        E 1 b7 09 0b
        E 1 b7 09 1b
        E 1 b7 09 32
        E 8 b7 09 05
        E 8 b7 09 13
        E 8 b7 09 0c
        E 8 b7 09 02
        E 8 b7 09 12
        E 8 b7 09 10
        E 8 b7 09 02
        E 8 b7 09 02
        E 8 b7 09 0c
        E 8 b7 09 18
        E 8 b7 09 14
        E 8 b7 09 16
        E 8 b7 09 0f
        E 8 b7 09 02
        E 8 b7 09 04
        E 8 b7 09 11
        E 8 b7 09 0e
        E 8 b7 09 07
        E 8 b7 09 05
        E 8 b7 09 06
        E 8 b7 09 13
        E 8 b7 09 0b
        E 8 b7 09 06
        E 8 b7 09 0e
        E 8 b7 09 19
        E 8 b7 09 00
        E 8 b7 09 03
        E 8 b7 09 0a
        E 8 b7 09 08
        E 8 b7 09 14
        E 8 b7 09 05
        E 8 b7 09 01
        E 8 b7 09 04
        E 8 b7 09 04
        E 8 b7 09 17
        E 8 b7 09 06
        E 8 b7 09 00
        E 8 b7 09 12
        E 8 b7 09 08
        E 8 b7 09 05
        E 8 b7 09 0a
        E 8 b7 09 06
        E 8 b7 09 15
        E 8 b7 09 15
        E 8 b7 09 19
        E 8 b7 09 15
        E 8 b7 09 0b
        E 8 b7 09 17
        E 8 b7 09 12
        E 8 b7 09 03
        E 8 b7 09 0b
        E 8 b7 09 0d
        E 8 b7 09 18
        E 8 b7 09 13
        E 8 b7 09 0d
        E 8 b7 09 0e
        E 8 b7 09 01
        E 8 b7 09 02
        E 8 b7 09 17
        E 8 b7 09 14
        E 8 b7 09 0a
        E 8 b7 09 08
        E 8 b7 09 03
        E 8 b7 09 0b
        E 8 b7 09 07
        E 8 b7 09 06
        E 8 b7 09 09
        E 8 b7 09 0d
        E 8 b7 09 0f
        E 8 b7 09 10
        E 8 b7 09 04
        E 8 b7 09 0f
        E 8 b7 09 16
        E 8 b7 09 0d
        E 8 b7 09 0e
        E 8 b7 09 00
        E 8 b7 09 01
        E 8 b7 09 19
        E 8 b7 09 10
        E 8 b7 09 04
        E 8 b7 09 17
        E 8 b7 09 08
        E 8 b7 09 09
        E 8 b7 09 0c
        E 8 b7 09 0a
        E 8 b7 09 11
        E 8 b7 09 14
        E 8 b7 09 07
        E 8 b7 09 0e
        E 8 b7 09 05
        E 8 b7 09 16
        E 8 b7 09 15
        E 8 b7 09 0b
        E 8 b7 09 09
        E 8 b7 09 14
        E 8 b7 09 09
        E 8 b7 09 11
        E 8 b7 09 03
        E 8 b7 09 00
        E 8 b7 09 08
        E 8 b7 09 0c
        E 8 b7 09 15
        E 8 b7 09 13
        E 8 b7 09 00
        E 8 b7 09 16
        E 8 b7 09 12
        E 8 b7 09 01
        E 8 b7 09 07
        E 8 b7 09 0f
        E 8 b7 09 13
        E 8 b7 09 18
        E 8 b7 09 0f
        E 8 b7 09 0a
        E 8 b7 09 07
        E 8 b7 09 11
        E 8 b7 09 12
        E 8 b7 09 16
        E 8 b7 09 18
        E 8 b7 09 0c
        E 8 b7 09 10
        E 8 b7 09 11
        E 8 b7 09 0d
        E 8 b7 09 17
        E 8 b7 09 03
        E 8 b7 09 09
        E 8 b7 09 10
        E 6 b7 09 13
        E 6 b7 09 43
        E 6 b7 09 2c
        E 6 b7 09 07
        E 6 b7 09 3e
        E 6 b7 09 38
        E 6 b7 09 08
        E 6 b7 09 07
        E 6 b7 09 2a
        E 6 b7 09 54
        E 6 b7 09 46
        E 6 b7 09 4d
        E 6 b7 09 37
        E 6 b7 09 09
        E 6 b7 09 10
        E 6 b7 09 3c
        E 6 b7 09 31
        E 6 b7 09 19
        E 6 b7 09 11
        E 6 b7 09 17
        E 6 b7 09 45
        E 6 b7 09 29
        E 6 b7 09 15
        E 6 b7 09 33
        E 6 b7 09 58
        E 6 b7 09 00
        E 6 b7 09 0b
        E 6 b7 09 24
        E 6 b7 09 1e
        E 6 b7 09 48
        E 6 b7 09 12
        E 6 b7 09 05
        E 6 b7 09 0e
        E 6 b7 09 0f
        E 6 b7 09 50
        E 6 b7 09 16
        E 6 b7 09 00
        E 6 b7 09 41
        E 6 b7 09 1e
        E 6 b7 09 12
        E 6 b7 09 23
        E 6 b7 09 17
        E 6 b7 09 4b
        E 6 b7 09 4a
        E 6 b7 09 58
        E 6 b7 09 4a
        E 6 b7 09 26
        E 6 b7 09 52
        E 6 b7 09 3f
        E 6 b7 09 0a
        E 6 b7 09 27
        E 6 b7 09 2f
        E 6 b7 09 54
        E 6 b7 09 43
        E 6 b7 09 30
        E 6 b7 09 31
        E 6 b7 09 04
        E 6 b7 09 09
        E 6 b7 09 51
        E 6 b7 09 47
        E 6 b7 09 25
        E 6 b7 09 1c
        E 6 b7 09 0b
        E 6 b7 09 27
        E 6 b7 09 1a
        E 6 b7 09 15
        E 6 b7 09 21
        E 6 b7 09 2e
        E 6 b7 09 35
        E 6 b7 09 39
        E 6 b7 09 0e
        E 6 b7 09 35
        E 6 b7 09 4f
        E 6 b7 09 2d
        E 6 b7 09 33
        E 6 b7 09 02
        E 6 b7 09 06
        E 6 b7 09 57
        E 6 b7 09 3a
        E 6 b7 09 10
        E 6 b7 09 51
        E 6 b7 09 1c
        E 6 b7 09 22
        E 6 b7 09 2b
        E 6 b7 09 23
        E 6 b7 09 3b
        E 6 b7 09 48
        E 6 b7 09 19
        E 6 b7 09 32
        E 6 b7 09 14
        E 6 b7 09 4f
        E 6 b7 09 49
        E 6 b7 09 28
        E 6 b7 09 20
        E 6 b7 09 46
        E 6 b7 09 20
        E 6 b7 09 3e
        E 6 b7 09 0c
        E 6 b7 09 01
        E 6 b7 09 1d
        E 6 b7 09 2c
        E 6 b7 09 4c
        E 6 b7 09 44
        E 6 b7 09 02
        E 6 b7 09 4d
        E 6 b7 09 41
        E 6 b7 09 04
        E 6 b7 09 1b
        E 6 b7 09 34
        E 6 b7 09 42
        E 6 b7 09 55
        E 6 b7 09 36
        E 6 b7 09 25
        E 6 b7 09 18
        E 6 b7 09 3d
        E 6 b7 09 40
        E 6 b7 09 4e
        E 6 b7 09 56
        E 6 b7 09 2a
        E 6 b7 09 38
        E 6 b7 09 3c
        E 6 b7 09 2e
        E 6 b7 09 53
        E 6 b7 09 0d
        E 6 b7 09 1f
        E 6 b7 09 3a
        E 1 b7 09 0b
        E 1 b7 09 26
        E 1 b7 09 19
        E 1 b7 09 04
        E 1 b7 09 24
        E 1 b7 09 20
        E 1 b7 09 04
        E 1 b7 09 04
        E 1 b7 09 18
        E 1 b7 09 30
        E 1 b7 09 28
        E 1 b7 09 2c
        E 1 b7 09 1f
        E 1 b7 09 05
        E 1 b7 09 09
        E 1 b7 09 22
        E 1 b7 09 1c
        E 1 b7 09 0e
        E 1 b7 09 0a
        E 1 b7 09 0d
        E 1 b7 09 27
        E 1 b7 09 17
        E 1 b7 09 0c
        E 1 b7 09 1d
        E 1 b7 09 32
        E 1 b7 09 00
        E 1 b7 09 06
        E 1 b7 09 14
        E 1 b7 09 11
        E 1 b7 09 29
        E 1 b7 09 0a
        E 1 b7 09 03
        E 1 b7 09 08
        E 1 b7 09 08
        E 1 b7 09 2e
        E 1 b7 09 0c
        E 1 b7 09 00
        E 1 b7 09 25
        E 1 b7 09 11
        E 1 b7 09 0a
        E 1 b7 09 14
        E 1 b7 09 0d
        E 1 b7 09 2b
        E 1 b7 09 2a
        E 1 b7 09 32
        E 1 b7 09 2a
        E 1 b7 09 16
        E 1 b7 09 2f
        E 1 b7 09 24
        E 1 b7 09 06
        E 1 b7 09 16
        E 1 b7 09 1b
        E 1 b7 09 30
        E 1 b7 09 26
        E 1 b7 09 1b
        E 1 b7 09 1c
        E 1 b7 09 02
        E 1 b7 09 05
        E 1 b7 09 2e
        E 1 b7 09 28
        E 1 b7 09 15
        E 1 b7 09 10
        E 1 b7 09 06
        E 1 b7 09 16
        E 1 b7 09 0f
        E 1 b7 09 0c
        E 1 b7 09 13
        E 1 b7 09 1a
        E 1 b7 09 1e
        E 1 b7 09 20
        E 1 b7 09 08
        E 1 b7 09 1e
        E 1 b7 09 2d
        E 1 b7 09 1a
        E 1 b7 09 1d
        E 1 b7 09 01
        E 1 b7 09 03
        E 1 b7 09 32
        E 1 b7 09 21
        E 1 b7 09 09
        E 1 b7 09 2e
        E 1 b7 09 10
        E 1 b7 09 13
        E 1 b7 09 18
        E 1 b7 09 14
        E 1 b7 09 22
        E 1 b7 09 29
        E 1 b7 09 0e
        E 1 b7 09 1c
        E 1 b7 09 0b
        E 1 b7 09 2d
        E 1 b7 09 2a
        E 1 b7 09 17
        E 1 b7 09 12
        E 1 b7 09 28
        E 1 b7 09 12
        E 1 b7 09 23
        E 1 b7 09 07
        E 1 b7 09 00
        E 1 b7 09 10
        E 1 b7 09 19
        E 1 b7 09 2b
        E 1 b7 09 27
        E 1 b7 09 01
        E 1 b7 09 2c
        E 1 b7 09 25
        E 1 b7 09 02
        E 1 b7 09 0f
        E 1 b7 09 1e
        E 1 b7 09 26
        E 1 b7 09 30
        E 1 b7 09 1f
        E 1 b7 09 15
        E 1 b7 09 0e
        E 1 b7 09 23
        E 1 b7 09 24
        E 1 b7 09 2c
        E 1 b7 09 31
        E 1 b7 09 18
        E 1 b7 09 20
        E 1 b7 09 22
        E 1 b7 09 1a
        E 1 b7 09 2f
        E 1 b7 09 07
        E 1 b7 09 12
        E 1 b7 09 21
        E 15 b7 09 1c
        E 15 b7 09 60
        E 15 b7 09 3f
        E 15 b7 09 0a
        E 15 b7 09 5a
        E 15 b7 09 50
        E 15 b7 09 0c
        E 15 b7 09 0b
        E 15 b7 09 3d
        E 15 b7 09 78
        E 15 b7 09 65
        E 15 b7 09 6f
        E 15 b7 09 4f
        E 15 b7 09 0e
        E 15 b7 09 18
        E 15 b7 09 56
        E 15 b7 09 46
        E 15 b7 09 24
        E 15 b7 09 19
        E 15 b7 09 22
        E 15 b7 09 63
        E 15 b7 09 3b
        E 15 b7 09 1e
        E 15 b7 09 49
        E 15 b7 09 7e
        E 15 b7 09 00
        E 15 b7 09 10
        E 15 b7 09 34
        E 15 b7 09 2b
        E 15 b7 09 68
        E 15 b7 09 1b
        E 15 b7 09 08
        E 15 b7 09 14
        E 15 b7 09 16
        E 15 b7 09 73
        E 15 b7 09 20
        E 15 b7 09 01
        E 15 b7 09 5e
        E 15 b7 09 2c
        E 15 b7 09 1a
        E 15 b7 09 32
        E 15 b7 09 21
        E 15 b7 09 6c
        E 15 b7 09 6b
        E 15 b7 09 7f
        E 15 b7 09 6a
        E 15 b7 09 37
        E 15 b7 09 76
        E 15 b7 09 5b
        E 15 b7 09 0f
        E 15 b7 09 38
        E 15 b7 09 44
        E 15 b7 09 79
        E 15 b7 09 61
        E 15 b7 09 45
        E 15 b7 09 47
        E 15 b7 09 06
        E 15 b7 09 0d
        E 15 b7 09 75
        E 15 b7 09 66
        E 15 b7 09 36
        E 15 b7 09 28
        E 15 b7 09 11
        E 15 b7 09 39
        E 15 b7 09 26
        E 15 b7 09 1f
        E 15 b7 09 30
        E 15 b7 09 42
        E 15 b7 09 4d
        E 15 b7 09 52
        E 15 b7 09 15
        E 15 b7 09 4c
        E 15 b7 09 71
        E 15 b7 09 41
        E 15 b7 09 4a
        E 15 b7 09 03
        E 15 b7 09 09
        E 15 b7 09 7d
        E 15 b7 09 53
        E 15 b7 09 17
        E 15 b7 09 74
        E 15 b7 09 29
        E 15 b7 09 31
        E 15 b7 09 3e
        E 15 b7 09 33
        E 15 b7 09 55
        E 15 b7 09 67
        E 15 b7 09 25
        E 15 b7 09 48
        E 15 b7 09 1d
        E 15 b7 09 72
        E 15 b7 09 69
        E 15 b7 09 3a
        E 15 b7 09 2e
        E 15 b7 09 64
        E 15 b7 09 2f
        E 15 b7 09 59
        E 15 b7 09 12
        E 15 b7 09 02
        E 15 b7 09 2a
        E 15 b7 09 40
        E 15 b7 09 6d
        E 15 b7 09 62
        E 15 b7 09 04
        E 15 b7 09 6e
        E 15 b7 09 5d
        E 15 b7 09 07
        E 15 b7 09 27
        E 15 b7 09 4b
        E 15 b7 09 5f
        E 15 b7 09 7a
        E 15 b7 09 4e
        E 15 b7 09 35
        E 15 b7 09 23
        E 15 b7 09 58
        E 15 b7 09 5c
        E 15 b7 09 70
        E 15 b7 09 7c
        E 15 b7 09 3c
        E 15 b7 09 51
        E 15 b7 09 57
        E 15 b7 09 43
        E 15 b7 09 77
        E 15 b7 09 13
        E 15 b7 09 2d
        E 15 b7 09 54
        E 11 b7 09 0c
        E 11 b7 09 0d
        E 11 b7 09 0e
        E 11 b7 09 0e
        E 11 b7 09 0f
        E 11 b7 09 0f
        E 11 b7 09 10
        E 11 b7 09 11
        E 11 b7 09 11
        E 11 b7 09 12
        E 11 b7 09 12
        E 11 b7 09 13
        E 11 b7 09 13
        E 11 b7 09 14
        E 11 b7 09 14
        E 11 b7 09 15
        E 11 b7 09 15
        E 11 b7 09 16
        E 11 b7 09 16
        E 11 b7 09 17
        E 11 b7 09 17
        E 11 b7 09 17
        E 11 b7 09 18
        E 11 b7 09 18
        E 11 b7 09 18
        E 11 b7 09 18
        E 11 b7 09 18
        E 11 b7 09 19
        E 11 b7 09 19
        E 11 b7 09 19
        E 11 b7 09 19
        E 11 b7 09 19
        E 11 b7 09 19
        E 11 b7 09 19
        E 11 b7 09 19
        E 11 b7 09 19
        E 11 b7 09 19
        E 11 b7 09 19
        E 11 b7 09 18
        E 11 b7 09 18
        E 11 b7 09 18
        E 11 b7 09 18
        E 11 b7 09 17
        E 11 b7 09 17
        E 11 b7 09 17
        E 11 b7 09 16
        E 11 b7 09 16
        E 11 b7 09 16
        E 11 b7 09 15
        E 11 b7 09 15
        E 11 b7 09 14
        E 11 b7 09 14
        E 11 b7 09 13
        E 11 b7 09 13
        E 11 b7 09 12
        E 11 b7 09 11
        E 11 b7 09 11
        E 11 b7 09 10
        E 11 b7 09 10
        E 11 b7 09 0f
        E 11 b7 09 0e
        E 11 b7 09 0e
        E 11 b7 09 0d
        E 11 b7 09 0d
        E 11 b7 09 0c
        E 11 b7 09 0b
        E 11 b7 09 0b
        E 11 b7 09 0a
        E 11 b7 09 09
        E 11 b7 09 09
        E 11 b7 09 08
        E 11 b7 09 08
        E 11 b7 09 07
        E 11 b7 09 07
        E 11 b7 09 06
        E 11 b7 09 05
        E 11 b7 09 05
        E 11 b7 09 04
        E 11 b7 09 04
        E 11 b7 09 03
        E 11 b7 09 03
        E 11 b7 09 03
        E 11 b7 09 02
        E 11 b7 09 02
        E 11 b7 09 02
        E 11 b7 09 01
        E 11 b7 09 01
        E 11 b7 09 01
        E 11 b7 09 00
        E 11 b7 09 00
        E 11 b7 09 00
        E 11 b7 09 00
        E 11 b7 09 00
        E 11 b7 09 00
        E 11 b7 09 00
        E 11 b7 09 00
        E 11 b7 09 00
        E 11 b7 09 00
        E 11 b7 09 00
        E 11 b7 09 00
        E 11 b7 09 00
        E 11 b7 09 00
        E 11 b7 09 00
        E 11 b7 09 01
        E 11 b7 09 01
        E 11 b7 09 01
        E 11 b7 09 01
        E 11 b7 09 02
        E 11 b7 09 02
        E 11 b7 09 02
        E 11 b7 09 03
        E 11 b7 09 03
        E 11 b7 09 04
        E 11 b7 09 04
        E 11 b7 09 05
        E 11 b7 09 05
        E 11 b7 09 06
        E 11 b7 09 06
        E 11 b7 09 07
        E 11 b7 09 07
        E 11 b7 09 08
        E 11 b7 09 09
        E 11 b7 09 09
        E 11 b7 09 0a
        E 11 b7 09 0a
        E 11 b7 09 0b
        E 11 b7 09 0c
        E 11 b7 09 0c
        E 8 b7 09 2c
        E 8 b7 09 2e
        E 8 b7 09 31
        E 8 b7 09 33
        E 8 b7 09 35
        E 8 b7 09 37
        E 8 b7 09 39
        E 8 b7 09 3b
        E 8 b7 09 3d
        E 8 b7 09 3f
        E 8 b7 09 41
        E 8 b7 09 43
        E 8 b7 09 45
        E 8 b7 09 47
        E 8 b7 09 48
        E 8 b7 09 4a
        E 8 b7 09 4c
        E 8 b7 09 4d
        E 8 b7 09 4f
        E 8 b7 09 50
        E 8 b7 09 51
        E 8 b7 09 52
        E 8 b7 09 54
        E 8 b7 09 54
        E 8 b7 09 55
        E 8 b7 09 56
        E 8 b7 09 56
        E 8 b7 09 57
        E 8 b7 09 58
        E 8 b7 09 58
        E 8 b7 09 58
        E 8 b7 09 58
        E 8 b7 09 58
        E 8 b7 09 58
        E 8 b7 09 58
        E 8 b7 09 58
        E 8 b7 09 58
        E 8 b7 09 57
        E 8 b7 09 56
        E 8 b7 09 56
        E 8 b7 09 55
        E 8 b7 09 54
        E 8 b7 09 53
        E 8 b7 09 51
        E 8 b7 09 51
        E 8 b7 09 4f
        E 8 b7 09 4e
        E 8 b7 09 4d
        E 8 b7 09 4b
        E 8 b7 09 49
        E 8 b7 09 48
        E 8 b7 09 46
        E 8 b7 09 44
        E 8 b7 09 42
        E 8 b7 09 40
        E 8 b7 09 3e
        E 8 b7 09 3c
        E 8 b7 09 3a
        E 8 b7 09 38
        E 8 b7 09 36
        E 8 b7 09 33
        E 8 b7 09 31
        E 8 b7 09 2f
        E 8 b7 09 2d
        E 8 b7 09 2b
        E 8 b7 09 29
        E 8 b7 09 27
        E 8 b7 09 25
        E 8 b7 09 22
        E 8 b7 09 20
        E 8 b7 09 1e
        E 8 b7 09 1c
        E 8 b7 09 1a
        E 8 b7 09 18
        E 8 b7 09 16
        E 8 b7 09 14
        E 8 b7 09 12
        E 8 b7 09 10
        E 8 b7 09 0f
        E 8 b7 09 0d
        E 8 b7 09 0b
        E 8 b7 09 0a
        E 8 b7 09 09
        E 8 b7 09 07
        E 8 b7 09 07
        E 8 b7 09 05
        E 8 b7 09 04
        E 8 b7 09 03
        E 8 b7 09 02
        E 8 b7 09 02
        E 8 b7 09 01
        E 8 b7 09 00
        E 8 b7 09 00
        E 8 b7 09 00
        E 8 b7 09 00
        E 8 b7 09 00
        E 8 b7 09 00
        E 8 b7 09 00
        E 8 b7 09 00
        E 8 b7 09 00
        E 8 b7 09 01
        E 8 b7 09 02
        E 8 b7 09 02
        E 8 b7 09 03
        E 8 b7 09 04
        E 8 b7 09 04
        E 8 b7 09 06
        E 8 b7 09 07
        E 8 b7 09 08
        E 8 b7 09 09
        E 8 b7 09 0b
        E 8 b7 09 0c
        E 8 b7 09 0e
        E 8 b7 09 10
        E 8 b7 09 11
        E 8 b7 09 13
        E 8 b7 09 15
        E 8 b7 09 17
        E 8 b7 09 19
        E 8 b7 09 1b
        E 8 b7 09 1d
        E 8 b7 09 1f
        E 8 b7 09 21
        E 8 b7 09 23
        E 8 b7 09 25
        E 8 b7 09 27
        E 8 b7 09 2a
        E 8 b7 09 2c
        E 2 b7 09 19
        E 2 b7 09 1a
        E 2 b7 09 1c
        E 2 b7 09 1d
        E 2 b7 09 1e
        E 2 b7 09 1f
        E 2 b7 09 20
        E 2 b7 09 22
        E 2 b7 09 23
        E 2 b7 09 24
        E 2 b7 09 25
        E 2 b7 09 26
        E 2 b7 09 27
        E 2 b7 09 28
        E 2 b7 09 29
        E 2 b7 09 2a
        E 2 b7 09 2b
        E 2 b7 09 2c
        E 2 b7 09 2d
        E 2 b7 09 2e
        E 2 b7 09 2e
        E 2 b7 09 2f
        E 2 b7 09 30
        E 2 b7 09 30
        E 2 b7 09 30
        E 2 b7 09 31
        E 2 b7 09 31
        E 2 b7 09 32
        E 2 b7 09 32
        E 2 b7 09 32
        E 2 b7 09 32
        E 2 b7 09 32
        E 2 b7 09 32
        E 2 b7 09 32
        E 2 b7 09 32
        E 2 b7 09 32
        E 2 b7 09 32
        E 2 b7 09 32
        E 2 b7 09 31
        E 2 b7 09 31
        E 2 b7 09 30
        E 2 b7 09 30
        E 2 b7 09 2f
        E 2 b7 09 2e
        E 2 b7 09 2e
        E 2 b7 09 2d
        E 2 b7 09 2c
        E 2 b7 09 2c
        E 2 b7 09 2b
        E 2 b7 09 2a
        E 2 b7 09 29
        E 2 b7 09 28
        E 2 b7 09 27
        E 2 b7 09 26
        E 2 b7 09 24
        E 2 b7 09 23
        E 2 b7 09 22
        E 2 b7 09 21
        E 2 b7 09 20
        E 2 b7 09 1f
        E 2 b7 09 1d
        E 2 b7 09 1c
        E 2 b7 09 1b
        E 2 b7 09 1a
        E 2 b7 09 18
        E 2 b7 09 17
        E 2 b7 09 16
        E 2 b7 09 15
        E 2 b7 09 13
        E 2 b7 09 12
        E 2 b7 09 11
        E 2 b7 09 10
        E 2 b7 09 0f
        E 2 b7 09 0e
        E 2 b7 09 0c
        E 2 b7 09 0b
        E 2 b7 09 0a
        E 2 b7 09 09
        E 2 b7 09 08
        E 2 b7 09 07
        E 2 b7 09 06
        E 2 b7 09 06
        E 2 b7 09 05
        E 2 b7 09 04
        E 2 b7 09 04
        E 2 b7 09 03
        E 2 b7 09 02
        E 2 b7 09 02
        E 2 b7 09 01
        E 2 b7 09 01
        E 2 b7 09 00
        E 2 b7 09 00
        E 2 b7 09 00
        E 2 b7 09 00
        E 2 b7 09 00
        E 2 b7 09 00
        E 2 b7 09 00
        E 2 b7 09 00
        E 2 b7 09 00
        E 2 b7 09 00
        E 2 b7 09 00
        E 2 b7 09 01
        E 2 b7 09 01
        E 2 b7 09 02
        E 2 b7 09 02
        E 2 b7 09 02
        E 2 b7 09 03
        E 2 b7 09 04
        E 2 b7 09 04
        E 2 b7 09 05
        E 2 b7 09 06
        E 2 b7 09 07
        E 2 b7 09 08
        E 2 b7 09 09
        E 2 b7 09 0a
        E 2 b7 09 0b
        E 2 b7 09 0c
        E 2 b7 09 0d
        E 2 b7 09 0e
        E 2 b7 09 0f
        E 2 b7 09 10
        E 2 b7 09 12
        E 2 b7 09 13
        E 2 b7 09 14
        E 2 b7 09 15
        E 2 b7 09 16
        E 2 b7 09 18
        E 2 b7 09 19
        E 19 b7 09 40
        E 19 b7 09 43
        E 19 b7 09 46
        E 19 b7 09 49
        E 19 b7 09 4c
        E 19 b7 09 4f
        E 19 b7 09 52
        E 19 b7 09 55
        E 19 b7 09 58
        E 19 b7 09 5b
        E 19 b7 09 5e
        E 19 b7 09 60
        E 19 b7 09 63
        E 19 b7 09 66
        E 19 b7 09 68
        E 19 b7 09 6a
        E 19 b7 09 6d
        E 19 b7 09 6f
        E 19 b7 09 71
        E 19 b7 09 73
        E 19 b7 09 75
        E 19 b7 09 76
        E 19 b7 09 78
        E 19 b7 09 79
        E 19 b7 09 7a
        E 19 b7 09 7b
        E 19 b7 09 7c
        E 19 b7 09 7d
        E 19 b7 09 7e
        E 19 b7 09 7e
        E 19 b7 09 7f
        E 19 b7 09 7f
        E 19 b7 09 7f
        E 19 b7 09 7f
        E 19 b7 09 7f
        E 19 b7 09 7e
        E 19 b7 09 7e
        E 19 b7 09 7d
        E 19 b7 09 7c
        E 19 b7 09 7b
        E 19 b7 09 7a
        E 19 b7 09 78
        E 19 b7 09 77
        E 19 b7 09 75
        E 19 b7 09 74
        E 19 b7 09 72
        E 19 b7 09 70
        E 19 b7 09 6e
        E 19 b7 09 6c
        E 19 b7 09 69
        E 19 b7 09 67
        E 19 b7 09 64
        E 19 b7 09 62
        E 19 b7 09 5f
        E 19 b7 09 5c
        E 19 b7 09 59
        E 19 b7 09 57
        E 19 b7 09 54
        E 19 b7 09 51
        E 19 b7 09 4e
        E 19 b7 09 4a
        E 19 b7 09 47
        E 19 b7 09 44
        E 19 b7 09 41
        E 19 b7 09 3e
        E 19 b7 09 3b
        E 19 b7 09 38
        E 19 b7 09 35
        E 19 b7 09 31
        E 19 b7 09 2e
        E 19 b7 09 2b
        E 19 b7 09 28
        E 19 b7 09 26
        E 19 b7 09 23
        E 19 b7 09 20
        E 19 b7 09 1d
        E 19 b7 09 1b
        E 19 b7 09 18
        E 19 b7 09 16
        E 19 b7 09 13
        E 19 b7 09 11
        E 19 b7 09 0f
        E 19 b7 09 0d
        E 19 b7 09 0b
        E 19 b7 09 0a
        E 19 b7 09 08
        E 19 b7 09 07
        E 19 b7 09 05
        E 19 b7 09 04
        E 19 b7 09 03
        E 19 b7 09 02
        E 19 b7 09 01
        E 19 b7 09 01
        E 19 b7 09 00
        E 19 b7 09 00
        E 19 b7 09 00
        E 19 b7 09 00
        E 19 b7 09 00
        E 19 b7 09 01
        E 19 b7 09 01
        E 19 b7 09 02
        E 19 b7 09 03
        E 19 b7 09 04
        E 19 b7 09 05
        E 19 b7 09 06
        E 19 b7 09 07
        E 19 b7 09 09
        E 19 b7 09 0a
        E 19 b7 09 0c
        E 19 b7 09 0e
        E 19 b7 09 10
        E 19 b7 09 12
        E 19 b7 09 15
        E 19 b7 09 17
        E 19 b7 09 19
        E 19 b7 09 1c
        E 19 b7 09 1f
        E 19 b7 09 21
        E 19 b7 09 24
        E 19 b7 09 27
        E 19 b7 09 2a
        E 19 b7 09 2d
        E 19 b7 09 30
        E 19 b7 09 33
        E 19 b7 09 36
        E 19 b7 09 39
        E 19 b7 09 3c
        E 19 b7 09 40
        E 4 b7 09 39
        E 4 b7 09 3c
        E 4 b7 09 3f
        E 4 b7 09 41
        E 4 b7 09 44
        E 4 b7 09 47
        E 4 b7 09 49
        E 4 b7 09 4c
        E 4 b7 09 4f
        E 4 b7 09 51
        E 4 b7 09 54
        E 4 b7 09 56
        E 4 b7 09 59
        E 4 b7 09 5b
        E 4 b7 09 5d
        E 4 b7 09 5f
        E 4 b7 09 62
        E 4 b7 09 63
        E 4 b7 09 65
        E 4 b7 09 67
        E 4 b7 09 69
        E 4 b7 09 6a
        E 4 b7 09 6c
        E 4 b7 09 6c
        E 4 b7 09 6d
        E 4 b7 09 6e
        E 4 b7 09 6f
        E 4 b7 09 70
        E 4 b7 09 71
        E 4 b7 09 71
        E 4 b7 09 72
        E 4 b7 09 72
        E 4 b7 09 72
        E 4 b7 09 72
        E 4 b7 09 72
        E 4 b7 09 71
        E 4 b7 09 71
        E 4 b7 09 70
        E 4 b7 09 6f
        E 4 b7 09 6e
        E 4 b7 09 6d
        E 4 b7 09 6c
        E 4 b7 09 6b
        E 4 b7 09 69
        E 4 b7 09 68
        E 4 b7 09 66
        E 4 b7 09 64
        E 4 b7 09 63
        E 4 b7 09 61
        E 4 b7 09 5e
        E 4 b7 09 5c
        E 4 b7 09 5a
        E 4 b7 09 58
        E 4 b7 09 55
        E 4 b7 09 52
        E 4 b7 09 50
        E 4 b7 09 4e
        E 4 b7 09 4b
        E 4 b7 09 48
        E 4 b7 09 46
        E 4 b7 09 42
        E 4 b7 09 3f
        E 4 b7 09 3d
        E 4 b7 09 3a
        E 4 b7 09 37
        E 4 b7 09 35
        E 4 b7 09 32
        E 4 b7 09 2f
        E 4 b7 09 2c
        E 4 b7 09 29
        E 4 b7 09 26
        E 4 b7 09 24
        E 4 b7 09 22
        E 4 b7 09 1f
        E 4 b7 09 1c
        E 4 b7 09 1a
        E 4 b7 09 18
        E 4 b7 09 15
        E 4 b7 09 13
        E 4 b7 09 11
        E 4 b7 09 0f
        E 4 b7 09 0d
        E 4 b7 09 0b
        E 4 b7 09 09
        E 4 b7 09 09
        E 4 b7 09 07
        E 4 b7 09 06
        E 4 b7 09 04
        E 4 b7 09 03
        E 4 b7 09 02
        E 4 b7 09 01
        E 4 b7 09 00
        E 4 b7 09 00
        E 4 b7 09 00
        E 4 b7 09 00
        E 4 b7 09 00
        E 4 b7 09 00
        E 4 b7 09 00
        E 4 b7 09 00
        E 4 b7 09 00
        E 4 b7 09 01
        E 4 b7 09 02
        E 4 b7 09 03
        E 4 b7 09 04
        E 4 b7 09 05
        E 4 b7 09 06
        E 4 b7 09 08
        E 4 b7 09 09
        E 4 b7 09 0a
        E 4 b7 09 0c
        E 4 b7 09 0e
        E 4 b7 09 10
        E 4 b7 09 12
        E 4 b7 09 14
        E 4 b7 09 16
        E 4 b7 09 19
        E 4 b7 09 1b
        E 4 b7 09 1d
        E 4 b7 09 20
        E 4 b7 09 23
        E 4 b7 09 25
        E 4 b7 09 28
        E 4 b7 09 2b
        E 4 b7 09 2d
        E 4 b7 09 30
        E 4 b7 09 33
        E 4 b7 09 36
        E 4 b7 09 39
        E 2 b7 09 26
        E 2 b7 09 28
        E 2 b7 09 2a
        E 2 b7 09 2b
        E 2 b7 09 2d
        E 2 b7 09 2f
        E 2 b7 09 31
        E 2 b7 09 33
        E 2 b7 09 34
        E 2 b7 09 36
        E 2 b7 09 38
        E 2 b7 09 39
        E 2 b7 09 3b
        E 2 b7 09 3d
        E 2 b7 09 3e
        E 2 b7 09 3f
        E 2 b7 09 41
        E 2 b7 09 42
        E 2 b7 09 43
        E 2 b7 09 45
        E 2 b7 09 46
        E 2 b7 09 46
        E 2 b7 09 48
        E 2 b7 09 48
        E 2 b7 09 49
        E 2 b7 09 49
        E 2 b7 09 4a
        E 2 b7 09 4b
        E 2 b7 09 4b
        E 2 b7 09 4b
        E 2 b7 09 4c
        E 2 b7 09 4c
        E 2 b7 09 4c
        E 2 b7 09 4c
        E 2 b7 09 4c
        E 2 b7 09 4b
        E 2 b7 09 4b
        E 2 b7 09 4b
        E 2 b7 09 4a
        E 2 b7 09 49
        E 2 b7 09 49
        E 2 b7 09 48
        E 2 b7 09 47
        E 2 b7 09 46
        E 2 b7 09 45
        E 2 b7 09 44
        E 2 b7 09 43
        E 2 b7 09 42
        E 2 b7 09 40
        E 2 b7 09 3f
        E 2 b7 09 3d
        E 2 b7 09 3c
        E 2 b7 09 3a
        E 2 b7 09 39
        E 2 b7 09 37
        E 2 b7 09 35
        E 2 b7 09 34
        E 2 b7 09 32
        E 2 b7 09 30
        E 2 b7 09 2e
        E 2 b7 09 2c
        E 2 b7 09 2a
        E 2 b7 09 28
        E 2 b7 09 27
        E 2 b7 09 25
        E 2 b7 09 23
        E 2 b7 09 21
        E 2 b7 09 1f
        E 2 b7 09 1d
        E 2 b7 09 1b
        E 2 b7 09 19
        E 2 b7 09 18
        E 2 b7 09 16
        E 2 b7 09 15
        E 2 b7 09 13
        E 2 b7 09 11
        E 2 b7 09 10
        E 2 b7 09 0e
        E 2 b7 09 0d
        E 2 b7 09 0b
        E 2 b7 09 0a
        E 2 b7 09 09
        E 2 b7 09 07
        E 2 b7 09 06
        E 2 b7 09 06
        E 2 b7 09 04
        E 2 b7 09 04
        E 2 b7 09 03
        E 2 b7 09 02
        E 2 b7 09 01
        E 2 b7 09 01
        E 2 b7 09 00
        E 2 b7 09 00
        E 2 b7 09 00
        E 2 b7 09 00
        E 2 b7 09 00
        E 2 b7 09 00
        E 2 b7 09 00
        E 2 b7 09 00
        E 2 b7 09 00
        E 2 b7 09 01
        E 2 b7 09 01
        E 2 b7 09 02
        E 2 b7 09 03
        E 2 b7 09 03
        E 2 b7 09 04
        E 2 b7 09 05
        E 2 b7 09 06
        E 2 b7 09 07
        E 2 b7 09 08
        E 2 b7 09 09
        E 2 b7 09 0a
        E 2 b7 09 0c
        E 2 b7 09 0d
        E 2 b7 09 0f
        E 2 b7 09 10
        E 2 b7 09 12
        E 2 b7 09 13
        E 2 b7 09 15
        E 2 b7 09 17
        E 2 b7 09 19
        E 2 b7 09 1b
        E 2 b7 09 1c
        E 2 b7 09 1e
        E 2 b7 09 20
        E 2 b7 09 22
        E 2 b7 09 24
        E 2 b7 09 26
        E 11 b7 09 0c
        E 11 b7 09 0d
        E 11 b7 09 0e
        E 11 b7 09 0e
        E 11 b7 09 0f
        E 11 b7 09 0f
        E 11 b7 09 10
        E 11 b7 09 11
        E 11 b7 09 11
        E 11 b7 09 12
        E 11 b7 09 12
        E 11 b7 09 13
        E 11 b7 09 13
        E 11 b7 09 14
        E 11 b7 09 14
        E 11 b7 09 15
        E 11 b7 09 15
        E 11 b7 09 16
        E 11 b7 09 16
        E 11 b7 09 17
        E 11 b7 09 17
        E 11 b7 09 17
        E 11 b7 09 18
        E 11 b7 09 18
        E 11 b7 09 18
        E 11 b7 09 18
        E 11 b7 09 18
        E 11 b7 09 19
        E 11 b7 09 19
        E 11 b7 09 19
        E 11 b7 09 19
        E 11 b7 09 19
        E 11 b7 09 19
        E 11 b7 09 19
        E 11 b7 09 19
        E 11 b7 09 19
        E 11 b7 09 19
        E 11 b7 09 19
        E 11 b7 09 18
        E 11 b7 09 18
        E 11 b7 09 18
        E 11 b7 09 18
        E 11 b7 09 17
        E 11 b7 09 17
        E 11 b7 09 17
        E 11 b7 09 16
        E 11 b7 09 16
        E 11 b7 09 16
        E 11 b7 09 15
        E 11 b7 09 15
        E 11 b7 09 14
        E 11 b7 09 14
        E 11 b7 09 13
        E 11 b7 09 13
        E 11 b7 09 12
        E 11 b7 09 11
        E 11 b7 09 11
        E 11 b7 09 10
        E 11 b7 09 10
        E 11 b7 09 0f
        E 11 b7 09 0e
        E 11 b7 09 0e
        E 11 b7 09 0d
        E 11 b7 09 0d
        E 11 b7 09 0c
        E 11 b7 09 0b
        E 11 b7 09 0b
        E 11 b7 09 0a
        E 11 b7 09 09
        E 11 b7 09 09
        E 11 b7 09 08
        E 11 b7 09 08
        E 11 b7 09 07
        E 11 b7 09 07
        E 11 b7 09 06
        E 11 b7 09 05
        E 11 b7 09 05
        E 11 b7 09 04
        E 11 b7 09 04
        E 11 b7 09 03
        E 11 b7 09 03
        E 11 b7 09 03
        E 11 b7 09 02
        E 11 b7 09 02
        E 11 b7 09 02
        E 11 b7 09 01
        E 11 b7 09 01
        E 11 b7 09 01
        E 11 b7 09 00
        E 11 b7 09 00
        E 11 b7 09 00
        E 11 b7 09 00
        E 11 b7 09 00
        E 11 b7 09 00
        E 11 b7 09 00
        E 11 b7 09 00
        E 11 b7 09 00
        E 11 b7 09 00
        E 11 b7 09 00
        E 11 b7 09 00
        E 11 b7 09 00
        E 11 b7 09 00
        E 11 b7 09 00
        E 11 b7 09 01
        E 11 b7 09 01
        E 11 b7 09 01
        E 11 b7 09 01
        E 11 b7 09 02
        E 11 b7 09 02
        E 11 b7 09 02
        E 11 b7 09 03
        E 11 b7 09 03
        E 11 b7 09 04
        E 11 b7 09 04
        E 11 b7 09 05
        E 11 b7 09 05
        E 11 b7 09 06
        E 11 b7 09 06
        E 11 b7 09 07
        E 11 b7 09 07
        E 11 b7 09 08
        E 11 b7 09 09
        E 11 b7 09 09
        E 11 b7 09 0a
        E 11 b7 09 0a
        E 11 b7 09 0b
        E 11 b7 09 0c
        E 11 b7 09 0c
        E 8 b7 09 2c
        E 8 b7 09 2e
        E 8 b7 09 31
        E 8 b7 09 33
        E 8 b7 09 35
        E 8 b7 09 37
        E 8 b7 09 39
        E 8 b7 09 3b
        E 8 b7 09 3d
        E 8 b7 09 3f
        E 8 b7 09 41
        E 8 b7 09 43
        E 8 b7 09 45
        E 8 b7 09 47
        E 8 b7 09 48
        E 8 b7 09 4a
        E 8 b7 09 4c
        E 8 b7 09 4d
        E 8 b7 09 4f
        E 8 b7 09 50
        E 8 b7 09 51
        E 8 b7 09 52
        E 8 b7 09 54
        E 8 b7 09 54
        E 8 b7 09 55
        E 8 b7 09 56
        E 8 b7 09 56
        E 8 b7 09 57
        E 8 b7 09 58
        E 8 b7 09 58
        E 8 b7 09 58
        E 8 b7 09 58
        E 8 b7 09 58
        E 8 b7 09 58
        E 8 b7 09 58
        E 8 b7 09 58
        E 8 b7 09 58
        E 8 b7 09 57
        E 8 b7 09 56
        E 8 b7 09 56
        E 8 b7 09 55
        E 8 b7 09 54
        E 8 b7 09 53
        E 8 b7 09 51
        E 8 b7 09 51
        E 8 b7 09 4f
        E 8 b7 09 4e
        E 8 b7 09 4d
        E 8 b7 09 4b
        E 8 b7 09 49
        E 8 b7 09 48
        E 8 b7 09 46
        E 8 b7 09 44
        E 8 b7 09 42
        E 8 b7 09 40
        E 8 b7 09 3e
        E 8 b7 09 3c
        E 8 b7 09 3a
        E 8 b7 09 38
        E 8 b7 09 36
        E 8 b7 09 33
        E 8 b7 09 31
        E 8 b7 09 2f
        E 8 b7 09 2d
        E 8 b7 09 2b
        E 8 b7 09 29
        E 8 b7 09 27
        E 8 b7 09 25
        E 8 b7 09 22
        E 8 b7 09 20
        E 8 b7 09 1e
        E 8 b7 09 1c
        E 8 b7 09 1a
        E 8 b7 09 18
        E 8 b7 09 16
        E 8 b7 09 14
        E 8 b7 09 12
        E 8 b7 09 10
        E 8 b7 09 0f
        E 8 b7 09 0d
        E 8 b7 09 0b
        E 8 b7 09 0a
        E 8 b7 09 09
        E 8 b7 09 07
        E 8 b7 09 07
        E 8 b7 09 05
        E 8 b7 09 04
        E 8 b7 09 03
        E 8 b7 09 02
        E 8 b7 09 02
        E 8 b7 09 01
        E 8 b7 09 00
        E 8 b7 09 00
        E 8 b7 09 00
        E 8 b7 09 00
        E 8 b7 09 00
        E 8 b7 09 00
        E 8 b7 09 00
        E 8 b7 09 00
        E 8 b7 09 00
        E 8 b7 09 01
        E 8 b7 09 02
        E 8 b7 09 02
        E 8 b7 09 03
        E 8 b7 09 04
        E 8 b7 09 04
        E 8 b7 09 06
        E 8 b7 09 07
        E 8 b7 09 08
        E 8 b7 09 09
        E 8 b7 09 0b
        E 8 b7 09 0c
        E 8 b7 09 0e
        E 8 b7 09 10
        E 8 b7 09 11
        E 8 b7 09 13
        E 8 b7 09 15
        E 8 b7 09 17
        E 8 b7 09 19
        E 8 b7 09 1b
        E 8 b7 09 1d
        E 8 b7 09 1f
        E 8 b7 09 21
        E 8 b7 09 23
        E 8 b7 09 25
        E 8 b7 09 27
        E 8 b7 09 2a
        E 8 b7 09 2c
        E 2 b7 09 19
        E 2 b7 09 1a
        E 2 b7 09 1c
        E 2 b7 09 1d
        E 2 b7 09 1e
        E 2 b7 09 1f
        E 2 b7 09 20
        E 2 b7 09 22
        E 2 b7 09 23
        E 2 b7 09 24
        E 2 b7 09 25
        E 2 b7 09 26
        E 2 b7 09 27
        E 2 b7 09 28
        E 2 b7 09 29
        E 2 b7 09 2a
        E 2 b7 09 2b
        E 2 b7 09 2c
        E 2 b7 09 2d
        E 2 b7 09 2e
        E 2 b7 09 2e
        E 2 b7 09 2f
        E 2 b7 09 30
        E 2 b7 09 30
        E 2 b7 09 30
        E 2 b7 09 31
        E 2 b7 09 31
        E 2 b7 09 32
        E 2 b7 09 32
        E 2 b7 09 32
        E 2 b7 09 32
        E 2 b7 09 32
        E 2 b7 09 32
        E 2 b7 09 32
        E 2 b7 09 32
        E 2 b7 09 32
        E 2 b7 09 32
        E 2 b7 09 32
        E 2 b7 09 31
        E 2 b7 09 31
        E 2 b7 09 30
        E 2 b7 09 30
        E 2 b7 09 2f
        E 2 b7 09 2e
        E 2 b7 09 2e
        E 2 b7 09 2d
        E 2 b7 09 2c
        E 2 b7 09 2c
        E 2 b7 09 2b
        E 2 b7 09 2a
        E 2 b7 09 29
        E 2 b7 09 28
        E 2 b7 09 27
        E 2 b7 09 26
        E 2 b7 09 24
        E 2 b7 09 23
        E 2 b7 09 22
        E 2 b7 09 21
        E 2 b7 09 20
        E 2 b7 09 1f
        E 2 b7 09 1d
        E 2 b7 09 1c
        E 2 b7 09 1b
        E 2 b7 09 1a
        E 2 b7 09 18
        E 2 b7 09 17
        E 2 b7 09 16
        E 2 b7 09 15
        E 2 b7 09 13
        E 2 b7 09 12
        E 2 b7 09 11
        E 2 b7 09 10
        E 2 b7 09 0f
        E 2 b7 09 0e
        E 2 b7 09 0c
        E 2 b7 09 0b
        E 2 b7 09 0a
        E 2 b7 09 09
        E 2 b7 09 08
        E 2 b7 09 07
        E 2 b7 09 06
        E 2 b7 09 06
        E 2 b7 09 05
        E 2 b7 09 04
        E 2 b7 09 04
        E 2 b7 09 03
        E 2 b7 09 02
        E 2 b7 09 02
        E 2 b7 09 01
        E 2 b7 09 01
        E 2 b7 09 00
        E 2 b7 09 00
        E 2 b7 09 00
        E 2 b7 09 00
        E 2 b7 09 00
        E 2 b7 09 00
        E 2 b7 09 00
        E 2 b7 09 00
        E 2 b7 09 00
        E 2 b7 09 00
        E 2 b7 09 00
        E 2 b7 09 01
        E 2 b7 09 01
        E 2 b7 09 02
        E 2 b7 09 02
        E 2 b7 09 02
        E 2 b7 09 03
        E 2 b7 09 04
        E 2 b7 09 04
        E 2 b7 09 05
        E 2 b7 09 06
        E 2 b7 09 07
        E 2 b7 09 08
        E 2 b7 09 09
        E 2 b7 09 0a
        E 2 b7 09 0b
        E 2 b7 09 0c
        E 2 b7 09 0d
        E 2 b7 09 0e
        E 2 b7 09 0f
        E 2 b7 09 10
        E 2 b7 09 12
        E 2 b7 09 13
        E 2 b7 09 14
        E 2 b7 09 15
        E 2 b7 09 16
        E 2 b7 09 18
        E 2 b7 09 19
        E 19 b7 09 40
        E 19 b7 09 43
        E 19 b7 09 46
        E 19 b7 09 49
        E 19 b7 09 4c
        E 19 b7 09 4f
        E 19 b7 09 52
        E 19 b7 09 55
        E 19 b7 09 58
        E 19 b7 09 5b
        E 19 b7 09 5e
        E 19 b7 09 60
        E 19 b7 09 63
        E 19 b7 09 66
        E 19 b7 09 68
        E 19 b7 09 6a
        E 19 b7 09 6d
        E 19 b7 09 6f
        E 19 b7 09 71
        E 19 b7 09 73
        E 19 b7 09 75
        E 19 b7 09 76
        E 19 b7 09 78
        E 19 b7 09 79
        E 19 b7 09 7a
        E 19 b7 09 7b
        E 19 b7 09 7c
        E 19 b7 09 7d
        E 19 b7 09 7e
        E 19 b7 09 7e
        E 19 b7 09 7f
        E 19 b7 09 7f
        E 19 b7 09 7f
        E 19 b7 09 7f
        E 19 b7 09 7f
        E 19 b7 09 7e
        E 19 b7 09 7e
        E 19 b7 09 7d
        E 19 b7 09 7c
        E 19 b7 09 7b
        E 19 b7 09 7a
        E 19 b7 09 78
        E 19 b7 09 77
        E 19 b7 09 75
        E 19 b7 09 74
        E 19 b7 09 72
        E 19 b7 09 70
        E 19 b7 09 6e
        E 19 b7 09 6c
        E 19 b7 09 69
        E 19 b7 09 67
        E 19 b7 09 64
        E 19 b7 09 62
        E 19 b7 09 5f
        E 19 b7 09 5c
        E 19 b7 09 59
        E 19 b7 09 57
        E 19 b7 09 54
        E 19 b7 09 51
        E 19 b7 09 4e
        E 19 b7 09 4a
        E 19 b7 09 47
        E 19 b7 09 44
        E 19 b7 09 41
        E 19 b7 09 3e
        E 19 b7 09 3b
        E 19 b7 09 38
        E 19 b7 09 35
        E 19 b7 09 31
        E 19 b7 09 2e
        E 19 b7 09 2b
        E 19 b7 09 28
        E 19 b7 09 26
        E 19 b7 09 23
        E 19 b7 09 20
        E 19 b7 09 1d
        E 19 b7 09 1b
        E 19 b7 09 18
        E 19 b7 09 16
        E 19 b7 09 13
        E 19 b7 09 11
        E 19 b7 09 0f
        E 19 b7 09 0d
        E 19 b7 09 0b
        E 19 b7 09 0a
        E 19 b7 09 08
        E 19 b7 09 07
        E 19 b7 09 05
        E 19 b7 09 04
        E 19 b7 09 03
        E 19 b7 09 02
        E 19 b7 09 01
        E 19 b7 09 01
        E 19 b7 09 00
        E 19 b7 09 00
        E 19 b7 09 00
        E 19 b7 09 00
        E 19 b7 09 00
        E 19 b7 09 01
        E 19 b7 09 01
        E 19 b7 09 02
        E 19 b7 09 03
        E 19 b7 09 04
        E 19 b7 09 05
        E 19 b7 09 06
        E 19 b7 09 07
        E 19 b7 09 09
        E 19 b7 09 0a
        E 19 b7 09 0c
        E 19 b7 09 0e
        E 19 b7 09 10
        E 19 b7 09 12
        E 19 b7 09 15
        E 19 b7 09 17
        E 19 b7 09 19
        E 19 b7 09 1c
        E 19 b7 09 1f
        E 19 b7 09 21
        E 19 b7 09 24
        E 19 b7 09 27
        E 19 b7 09 2a
        E 19 b7 09 2d
        E 19 b7 09 30
        E 19 b7 09 33
        E 19 b7 09 36
        E 19 b7 09 39
        E 19 b7 09 3c
        E 19 b7 09 40
        E 4 b7 09 39
        E 4 b7 09 3c
        E 4 b7 09 3f
        E 4 b7 09 41
        E 4 b7 09 44
        E 4 b7 09 47
        E 4 b7 09 49
        E 4 b7 09 4c
        E 4 b7 09 4f
        E 4 b7 09 51
        E 4 b7 09 54
        E 4 b7 09 56
        E 4 b7 09 59
        E 4 b7 09 5b
        E 4 b7 09 5d
        E 4 b7 09 5f
        E 4 b7 09 62
        E 4 b7 09 63
        E 4 b7 09 65
        E 4 b7 09 67
        E 4 b7 09 69
        E 4 b7 09 6a
        E 4 b7 09 6c
        E 4 b7 09 6c
        E 4 b7 09 6d
        E 4 b7 09 6e
        E 4 b7 09 6f
        E 4 b7 09 70
        E 4 b7 09 71
        E 4 b7 09 71
        E 4 b7 09 72
        E 4 b7 09 72
        E 4 b7 09 72
        E 4 b7 09 72
        E 4 b7 09 72
        E 4 b7 09 71
        E 4 b7 09 71
        E 4 b7 09 70
        E 4 b7 09 6f
        E 4 b7 09 6e
        E 4 b7 09 6d
        E 4 b7 09 6c
        E 4 b7 09 6b
        E 4 b7 09 69
        E 4 b7 09 68
        E 4 b7 09 66
        E 4 b7 09 64
        E 4 b7 09 63
        E 4 b7 09 61
        E 4 b7 09 5e
        E 4 b7 09 5c
        E 4 b7 09 5a
        E 4 b7 09 58
        E 4 b7 09 55
        E 4 b7 09 52
        E 4 b7 09 50
        E 4 b7 09 4e
        E 4 b7 09 4b
        E 4 b7 09 48
        E 4 b7 09 46
        E 4 b7 09 42
        E 4 b7 09 3f
        E 4 b7 09 3d
        E 4 b7 09 3a
        E 4 b7 09 37
        E 4 b7 09 35
        E 4 b7 09 32
        E 4 b7 09 2f
        E 4 b7 09 2c
        E 4 b7 09 29
        E 4 b7 09 26
        E 4 b7 09 24
        E 4 b7 09 22
        E 4 b7 09 1f
        E 4 b7 09 1c
        E 4 b7 09 1a
        E 4 b7 09 18
        E 4 b7 09 15
        E 4 b7 09 13
        E 4 b7 09 11
        E 4 b7 09 0f
        E 4 b7 09 0d
        E 4 b7 09 0b
        E 4 b7 09 09
        E 4 b7 09 09
        E 4 b7 09 07
        E 4 b7 09 06
        E 4 b7 09 04
        E 4 b7 09 03
        E 4 b7 09 02
        E 4 b7 09 01
        E 4 b7 09 00
        E 4 b7 09 00
        E 4 b7 09 00
        E 4 b7 09 00
        E 4 b7 09 00
        E 4 b7 09 00
        E 4 b7 09 00
        E 4 b7 09 00
        E 4 b7 09 00
        E 4 b7 09 01
        E 4 b7 09 02
        E 4 b7 09 03
        E 4 b7 09 04
        E 4 b7 09 05
        E 4 b7 09 06
        E 4 b7 09 08
        E 4 b7 09 09
        E 4 b7 09 0a
        E 4 b7 09 0c
        E 4 b7 09 0e
        E 4 b7 09 10
        E 4 b7 09 12
        E 4 b7 09 14
        E 4 b7 09 16
        E 4 b7 09 19
        E 4 b7 09 1b
        E 4 b7 09 1d
        E 4 b7 09 20
        E 4 b7 09 23
        E 4 b7 09 25
        E 4 b7 09 28
        E 4 b7 09 2b
        E 4 b7 09 2d
        E 4 b7 09 30
        E 4 b7 09 33
        E 4 b7 09 36
        E 4 b7 09 39
        E 2 b7 09 26
        E 2 b7 09 28
        E 2 b7 09 2a
        E 2 b7 09 2b
        E 2 b7 09 2d
        E 2 b7 09 2f
        E 2 b7 09 31
        E 2 b7 09 33
        E 2 b7 09 34
        E 2 b7 09 36
        E 2 b7 09 38
        E 2 b7 09 39
        E 2 b7 09 3b
        E 2 b7 09 3d
        E 2 b7 09 3e
        E 2 b7 09 3f
        E 2 b7 09 41
        E 2 b7 09 42
        E 2 b7 09 43
        E 2 b7 09 45
        E 2 b7 09 46
        E 2 b7 09 46
        E 2 b7 09 48
        E 2 b7 09 48
        E 2 b7 09 49
        E 2 b7 09 49
        E 2 b7 09 4a
        E 2 b7 09 4b
        E 2 b7 09 4b
        E 2 b7 09 4b
        E 2 b7 09 4c
        E 2 b7 09 4c
        E 2 b7 09 4c
        E 2 b7 09 4c
        E 2 b7 09 4c
        E 2 b7 09 4b
        E 2 b7 09 4b
        E 2 b7 09 4b
        E 2 b7 09 4a
        E 2 b7 09 49
        E 2 b7 09 49
        E 2 b7 09 48
        E 2 b7 09 47
        E 2 b7 09 46
        E 2 b7 09 45
        E 2 b7 09 44
        E 2 b7 09 43
        E 2 b7 09 42
        E 2 b7 09 40
        E 2 b7 09 3f
        E 2 b7 09 3d
        E 2 b7 09 3c
        E 2 b7 09 3a
        E 2 b7 09 39
        E 2 b7 09 37
        E 2 b7 09 35
        E 2 b7 09 34
        E 2 b7 09 32
        E 2 b7 09 30
        E 2 b7 09 2e
        E 2 b7 09 2c
        E 2 b7 09 2a
        E 2 b7 09 28
        E 2 b7 09 27
        E 2 b7 09 25
        E 2 b7 09 23
        E 2 b7 09 21
        E 2 b7 09 1f
        E 2 b7 09 1d
        E 2 b7 09 1b
        E 2 b7 09 19
        E 2 b7 09 18
        E 2 b7 09 16
        E 2 b7 09 15
        E 2 b7 09 13
        E 2 b7 09 11
        E 2 b7 09 10
        E 2 b7 09 0e
        E 2 b7 09 0d
        E 2 b7 09 0b
        E 2 b7 09 0a
        E 2 b7 09 09
        E 2 b7 09 07
        E 2 b7 09 06
        E 2 b7 09 06
        E 2 b7 09 04
        E 2 b7 09 04
        E 2 b7 09 03
        E 2 b7 09 02
        E 2 b7 09 01
        E 2 b7 09 01
        E 2 b7 09 00
        E 2 b7 09 00
        E 2 b7 09 00
        E 2 b7 09 00
        E 2 b7 09 00
        E 2 b7 09 00
        E 2 b7 09 00
        E 2 b7 09 00
        E 2 b7 09 00
        E 2 b7 09 01
        E 2 b7 09 01
        E 2 b7 09 02
        E 2 b7 09 03
        E 2 b7 09 03
        E 2 b7 09 04
        E 2 b7 09 05
        E 2 b7 09 06
        E 2 b7 09 07
        E 2 b7 09 08
        E 2 b7 09 09
        E 2 b7 09 0a
        E 2 b7 09 0c
        E 2 b7 09 0d
        E 2 b7 09 0f
        E 2 b7 09 10
        E 2 b7 09 12
        E 2 b7 09 13
        E 2 b7 09 15
        E 2 b7 09 17
        E 2 b7 09 19
        E 2 b7 09 1b
        E 2 b7 09 1c
        E 2 b7 09 1e
        E 2 b7 09 20
        E 2 b7 09 22
        E 2 b7 09 24
        E 2 b7 09 26
        E 11 b7 09 0c
        E 11 b7 09 0d
        E 11 b7 09 0e
        E 11 b7 09 0e
        E 11 b7 09 0f
        E 11 b7 09 0f
        E 11 b7 09 10
        E 11 b7 09 11
        E 11 b7 09 11
        E 11 b7 09 12
        E 11 b7 09 12
        E 11 b7 09 13
        E 11 b7 09 13
        E 11 b7 09 14
        E 11 b7 09 14
        E 11 b7 09 15
        E 11 b7 09 15
        E 11 b7 09 16
        E 11 b7 09 16
        E 11 b7 09 17
        E 11 b7 09 17
        E 11 b7 09 17
        E 11 b7 09 18
        E 11 b7 09 18
        E 11 b7 09 18
        E 11 b7 09 18
        E 11 b7 09 18
        E 11 b7 09 19
        E 11 b7 09 19
        E 11 b7 09 19
        E 11 b7 09 19
        E 11 b7 09 19
        E 11 b7 09 19
        E 11 b7 09 19
        E 11 b7 09 19
        E 11 b7 09 19
        E 11 b7 09 19
        E 11 b7 09 19
        E 11 b7 09 18
        E 11 b7 09 18
        E 11 b7 09 18
        E 11 b7 09 18
        E 11 b7 09 17
        E 11 b7 09 17
        E 11 b7 09 17
        E 11 b7 09 16
        E 11 b7 09 16
        E 11 b7 09 16
        E 11 b7 09 15
        E 11 b7 09 15
        E 11 b7 09 14
        E 11 b7 09 14
        E 11 b7 09 13
        E 11 b7 09 13
        E 11 b7 09 12
        E 11 b7 09 11
        E 11 b7 09 11
        E 11 b7 09 10
        E 11 b7 09 10
        E 11 b7 09 0f
        E 11 b7 09 0e
        E 11 b7 09 0e
        E 11 b7 09 0d
        E 11 b7 09 0d
        E 11 b7 09 0c
        E 11 b7 09 0b
        E 11 b7 09 0b
        E 11 b7 09 0a
        E 11 b7 09 09
        E 11 b7 09 09
        E 11 b7 09 08
        E 11 b7 09 08
        E 11 b7 09 07
        E 11 b7 09 07
        E 11 b7 09 06
        E 11 b7 09 05
        E 11 b7 09 05
        E 11 b7 09 04
        E 11 b7 09 04
        E 11 b7 09 03
        E 11 b7 09 03
        E 11 b7 09 03
        E 11 b7 09 02
        E 11 b7 09 02
        E 11 b7 09 02
        E 11 b7 09 01
        E 11 b7 09 01
        E 11 b7 09 01
        E 11 b7 09 00
        E 11 b7 09 00
        E 11 b7 09 00
        E 11 b7 09 00
        E 11 b7 09 00
        E 11 b7 09 00
        E 11 b7 09 00
        E 11 b7 09 00
        E 11 b7 09 00
        E 11 b7 09 00
        E 11 b7 09 00
        E 11 b7 09 00
        E 11 b7 09 00
        E 11 b7 09 00
        E 11 b7 09 00
        E 11 b7 09 01
        E 11 b7 09 01
        E 11 b7 09 01
        E 11 b7 09 01
        E 11 b7 09 02
        E 11 b7 09 02
        E 11 b7 09 02
        E 11 b7 09 03
        E 11 b7 09 03
        E 11 b7 09 04
        E 11 b7 09 04
        E 11 b7 09 05
        E 11 b7 09 05
        E 11 b7 09 06
        E 11 b7 09 06
        E 11 b7 09 07
        E 11 b7 09 07
        E 11 b7 09 08
        E 11 b7 09 09
        E 11 b7 09 09
        E 11 b7 09 0a
        E 11 b7 09 0a
        E 11 b7 09 0b
        E 11 b7 09 0c
        E 11 b7 09 0c
        E 8 b7 09 2c
        E 8 b7 09 2e
        E 8 b7 09 31
        E 8 b7 09 33
        E 8 b7 09 35
        E 8 b7 09 37
        E 8 b7 09 39
        E 8 b7 09 3b
        E 8 b7 09 3d
        E 8 b7 09 3f
        E 8 b7 09 41
        E 8 b7 09 43
        E 8 b7 09 45
        E 8 b7 09 47
        E 8 b7 09 48
        E 8 b7 09 4a
        E 8 b7 09 4c
        E 8 b7 09 4d
        E 8 b7 09 4f
        E 8 b7 09 50
        E 8 b7 09 51
        E 8 b7 09 52
        E 8 b7 09 54
        E 8 b7 09 54
        E 8 b7 09 55
        E 8 b7 09 56
        E 8 b7 09 56
        E 8 b7 09 57
        E 8 b7 09 58
        E 8 b7 09 58
        E 8 b7 09 58
        E 8 b7 09 58
        E 8 b7 09 58
        E 8 b7 09 58
        E 8 b7 09 58
        E 8 b7 09 58
        E 8 b7 09 58
        E 8 b7 09 57
        E 8 b7 09 56
        E 8 b7 09 56
        E 8 b7 09 55
        E 8 b7 09 54
        E 8 b7 09 53
        E 8 b7 09 51
        E 8 b7 09 51
        E 8 b7 09 4f
        E 8 b7 09 4e
        E 8 b7 09 4d
        E 8 b7 09 4b
        E 8 b7 09 49
        E 8 b7 09 48
        E 8 b7 09 46
        E 8 b7 09 44
        E 8 b7 09 42
        E 8 b7 09 40
        E 8 b7 09 3e
        E 8 b7 09 3c
        E 8 b7 09 3a
        E 8 b7 09 38
        E 8 b7 09 36
        E 8 b7 09 33
        E 8 b7 09 31
        E 8 b7 09 2f
        E 8 b7 09 2d
        E 8 b7 09 2b
        E 8 b7 09 29
        E 8 b7 09 27
        E 8 b7 09 25
        E 8 b7 09 22
        E 8 b7 09 20
        E 8 b7 09 1e
        E 8 b7 09 1c
        E 8 b7 09 1a
        E 8 b7 09 18
        E 8 b7 09 16
        E 8 b7 09 14
        E 8 b7 09 12
        E 8 b7 09 10
        E 8 b7 09 0f
        E 8 b7 09 0d
        E 8 b7 09 0b
        E 8 b7 09 0a
        E 8 b7 09 09
        E 8 b7 09 07
        E 8 b7 09 07
        E 8 b7 09 05
        E 8 b7 09 04
        E 8 b7 09 03
        E 8 b7 09 02
        E 8 b7 09 02
        E 8 b7 09 01
        E 8 b7 09 00
        E 8 b7 09 00
        E 8 b7 09 00
        E 8 b7 09 00
        E 8 b7 09 00
        E 8 b7 09 00
        E 8 b7 09 00
        E 8 b7 09 00
        E 8 b7 09 00
        E 8 b7 09 01
        E 8 b7 09 02
        E 8 b7 09 02
        E 8 b7 09 03
        E 8 b7 09 04
        E 8 b7 09 04
        E 8 b7 09 06
        E 8 b7 09 07
        E 8 b7 09 08
        E 8 b7 09 09
        E 8 b7 09 0b
        E 8 b7 09 0c
        E 8 b7 09 0e
        E 8 b7 09 10
        E 8 b7 09 11
        E 8 b7 09 13
        E 8 b7 09 15
        E 8 b7 09 17
        E 8 b7 09 19
        E 8 b7 09 1b
        E 8 b7 09 1d
        E 8 b7 09 1f
        E 8 b7 09 21
        E 8 b7 09 23
        E 8 b7 09 25
        E 8 b7 09 27
        E 8 b7 09 2a
        E 8 b7 09 2c
        E 3 b7 09 19
        E 3 b7 09 56
        E 3 b7 09 38
        E 3 b7 09 09
        E 3 b7 09 51
        E 3 b7 09 48
        E 3 b7 09 0a
        E 3 b7 09 09
        E 3 b7 09 36
        E 3 b7 09 6c
        E 3 b7 09 5a
        E 3 b7 09 63
        E 3 b7 09 47
        E 3 b7 09 0c
        E 3 b7 09 15
        E 3 b7 09 4d
        E 3 b7 09 3f
        E 3 b7 09 20
        E 3 b7 09 16
        E 3 b7 09 1e
        E 3 b7 09 59
        E 3 b7 09 35
        E 3 b7 09 1b
        E 3 b7 09 41
        E 3 b7 09 71
        E 3 b7 09 00
        E 3 b7 09 0e
        E 3 b7 09 2e
        E 3 b7 09 26
        E 3 b7 09 5d
        E 3 b7 09 18
        E 3 b7 09 07
        E 3 b7 09 12
        E 3 b7 09 13
        E 3 b7 09 67
        E 3 b7 09 1c
        E 3 b7 09 00
        E 3 b7 09 54
        E 3 b7 09 27
        E 3 b7 09 17
        E 3 b7 09 2d
        E 3 b7 09 1d
        E 3 b7 09 61
        E 3 b7 09 60
        E 3 b7 09 72
        E 3 b7 09 5f
        E 3 b7 09 31
        E 3 b7 09 6a
        E 3 b7 09 51
        E 3 b7 09 0d
        E 3 b7 09 32
        E 3 b7 09 3d
        E 3 b7 09 6c
        E 3 b7 09 57
        E 3 b7 09 3e
        E 3 b7 09 3f
        E 3 b7 09 05
        E 3 b7 09 0b
        E 3 b7 09 69
        E 3 b7 09 5b
        E 3 b7 09 30
        E 3 b7 09 24
        E 3 b7 09 0f
        E 3 b7 09 33
        E 3 b7 09 22
        E 3 b7 09 1b
        E 3 b7 09 2b
        E 3 b7 09 3b
        E 3 b7 09 45
        E 3 b7 09 49
        E 3 b7 09 12
        E 3 b7 09 44
        E 3 b7 09 65
        E 3 b7 09 3a
        E 3 b7 09 42
        E 3 b7 09 02
        E 3 b7 09 08
        E 3 b7 09 70
        E 3 b7 09 4a
        E 3 b7 09 14
        E 3 b7 09 68
        E 3 b7 09 24
        E 3 b7 09 2c
        E 3 b7 09 37
        E 3 b7 09 2d
        E 3 b7 09 4c
        E 3 b7 09 5c
        E 3 b7 09 21
        E 3 b7 09 40
        E 3 b7 09 1a
        E 3 b7 09 66
        E 3 b7 09 5e
        E 3 b7 09 34
        E 3 b7 09 29
        E 3 b7 09 5a
        E 3 b7 09 2a
        E 3 b7 09 50
        E 3 b7 09 10
        E 3 b7 09 01
        E 3 b7 09 25
        E 3 b7 09 39
        E 3 b7 09 62
        E 3 b7 09 58
        E 3 b7 09 03
        E 3 b7 09 63
        E 3 b7 09 53
        E 3 b7 09 06
        E 3 b7 09 23
        E 3 b7 09 43
        E 3 b7 09 55
        E 3 b7 09 6d
        E 3 b7 09 46
        E 3 b7 09 2f
        E 3 b7 09 1f
        E 3 b7 09 4f
        E 3 b7 09 52
        E 3 b7 09 64
        E 3 b7 09 6f
        E 3 b7 09 36
        E 3 b7 09 48
        E 3 b7 09 4e
        E 3 b7 09 3c
        E 3 b7 09 6b
        E 3 b7 09 11
        E 3 b7 09 28
        E 3 b7 09 4b
        E 1 b7 09 10
        E 1 b7 09 39
        E 1 b7 09 25
        E 1 b7 09 06
        E 1 b7 09 36
        E 1 b7 09 30
        E 1 b7 09 07
        E 1 b7 09 06
        E 1 b7 09 24
        E 1 b7 09 48
        E 1 b7 09 3c
        E 1 b7 09 42
        E 1 b7 09 2f
        E 1 b7 09 08
        E 1 b7 09 0e
        E 1 b7 09 33
        E 1 b7 09 2a
        E 1 b7 09 15
        E 1 b7 09 0f
        E 1 b7 09 14
        E 1 b7 09 3b
        E 1 b7 09 23
        E 1 b7 09 12
        E 1 b7 09 2b
        E 1 b7 09 4b
        E 1 b7 09 00
        E 1 b7 09 09
        E 1 b7 09 1f
        E 1 b7 09 19
        E 1 b7 09 3e
        E 1 b7 09 10
        E 1 b7 09 04
        E 1 b7 09 0c
        E 1 b7 09 0d
        E 1 b7 09 45
        E 1 b7 09 13
        E 1 b7 09 00
        E 1 b7 09 38
        E 1 b7 09 1a
        E 1 b7 09 0f
        E 1 b7 09 1e
        E 1 b7 09 13
        E 1 b7 09 40
        E 1 b7 09 40
        E 1 b7 09 4c
        E 1 b7 09 3f
        E 1 b7 09 21
        E 1 b7 09 46
        E 1 b7 09 36
        E 1 b7 09 09
        E 1 b7 09 21
        E 1 b7 09 28
        E 1 b7 09 48
        E 1 b7 09 3a
        E 1 b7 09 29
        E 1 b7 09 2a
        E 1 b7 09 03
        E 1 b7 09 07
        E 1 b7 09 46
        E 1 b7 09 3d
        E 1 b7 09 20
        E 1 b7 09 18
        E 1 b7 09 0a
        E 1 b7 09 22
        E 1 b7 09 16
        E 1 b7 09 12
        E 1 b7 09 1c
        E 1 b7 09 27
        E 1 b7 09 2e
        E 1 b7 09 31
        E 1 b7 09 0c
        E 1 b7 09 2d
        E 1 b7 09 43
        E 1 b7 09 27
        E 1 b7 09 2c
        E 1 b7 09 01
        E 1 b7 09 05
        E 1 b7 09 4b
        E 1 b7 09 31
        E 1 b7 09 0d
        E 1 b7 09 45
        E 1 b7 09 18
        E 1 b7 09 1d
        E 1 b7 09 25
        E 1 b7 09 1e
        E 1 b7 09 33
        E 1 b7 09 3d
        E 1 b7 09 16
        E 1 b7 09 2b
        E 1 b7 09 11
        E 1 b7 09 44
        E 1 b7 09 3f
        E 1 b7 09 22
        E 1 b7 09 1b
        E 1 b7 09 3c
        E 1 b7 09 1c
        E 1 b7 09 35
        E 1 b7 09 0a
        E 1 b7 09 01
        E 1 b7 09 19
        E 1 b7 09 26
        E 1 b7 09 41
        E 1 b7 09 3a
        E 1 b7 09 02
        E 1 b7 09 42
        E 1 b7 09 37
        E 1 b7 09 04
        E 1 b7 09 17
        E 1 b7 09 2d
        E 1 b7 09 39
        E 1 b7 09 49
        E 1 b7 09 2e
        E 1 b7 09 1f
        E 1 b7 09 15
        E 1 b7 09 34
        E 1 b7 09 37
        E 1 b7 09 43
        E 1 b7 09 4a
        E 1 b7 09 24
        E 1 b7 09 30
        E 1 b7 09 34
        E 1 b7 09 28
        E 1 b7 09 47
        E 1 b7 09 0b
        E 1 b7 09 1b
        E 1 b7 09 32
        E 8 b7 09 05
        E 8 b7 09 13
        E 8 b7 09 0c
        E 8 b7 09 02
        E 8 b7 09 12
        E 8 b7 09 10
        E 8 b7 09 02
        E 8 b7 09 02
        E 8 b7 09 0c
        E 8 b7 09 18
        E 8 b7 09 14
        E 8 b7 09 16
        E 8 b7 09 0f
        E 8 b7 09 02
        E 8 b7 09 04
        E 8 b7 09 11
        E 8 b7 09 0e
        E 8 b7 09 07
        E 8 b7 09 05
        E 8 b7 09 06
        E 8 b7 09 13
        E 8 b7 09 0b
        E 8 b7 09 06
        E 8 b7 09 0e
        E 8 b7 09 19
        E 8 b7 09 00
        E 8 b7 09 03
        E 8 b7 09 0a
        E 8 b7 09 08
        E 8 b7 09 14
        E 8 b7 09 05
        E 8 b7 09 01
        E 8 b7 09 04
        E 8 b7 09 04
        E 8 b7 09 17
        E 8 b7 09 06
        E 8 b7 09 00
        E 8 b7 09 12
        E 8 b7 09 08
        E 8 b7 09 05
        E 8 b7 09 0a
        E 8 b7 09 06
        E 8 b7 09 15
        E 8 b7 09 15
        E 8 b7 09 19
        E 8 b7 09 15
        E 8 b7 09 0b
        E 8 b7 09 17
        E 8 b7 09 12
        E 8 b7 09 03
        E 8 b7 09 0b
        E 8 b7 09 0d
        E 8 b7 09 18
        E 8 b7 09 13
        E 8 b7 09 0d
        E 8 b7 09 0e
        E 8 b7 09 01
        E 8 b7 09 02
        E 8 b7 09 17
        E 8 b7 09 14
        E 8 b7 09 0a
        E 8 b7 09 08
        E 8 b7 09 03
        E 8 b7 09 0b
        E 8 b7 09 07
        E 8 b7 09 06
        E 8 b7 09 09
        E 8 b7 09 0d
        E 8 b7 09 0f
        E 8 b7 09 10
        E 8 b7 09 04
        E 8 b7 09 0f
        E 8 b7 09 16
        E 8 b7 09 0d
        E 8 b7 09 0e
        E 8 b7 09 00
        E 8 b7 09 01
        E 8 b7 09 19
        E 8 b7 09 10
        E 8 b7 09 04
        E 8 b7 09 17
        E 8 b7 09 08
        E 8 b7 09 09
        E 8 b7 09 0c
        E 8 b7 09 0a
        E 8 b7 09 11
        E 8 b7 09 14
        E 8 b7 09 07
        E 8 b7 09 0e
        E 8 b7 09 05
        E 8 b7 09 16
        E 8 b7 09 15
        E 8 b7 09 0b
        E 8 b7 09 09
        E 8 b7 09 14
        E 8 b7 09 09
        E 8 b7 09 11
        E 8 b7 09 03
        E 8 b7 09 00
        E 8 b7 09 08
        E 8 b7 09 0c
        E 8 b7 09 15
        E 8 b7 09 13
        E 8 b7 09 00
        E 8 b7 09 16
        E 8 b7 09 12
        E 8 b7 09 01
        E 8 b7 09 07
        E 8 b7 09 0f
        E 8 b7 09 13
        E 8 b7 09 18
        E 8 b7 09 0f
        E 8 b7 09 0a
        E 8 b7 09 07
        E 8 b7 09 11
        E 8 b7 09 12
        E 8 b7 09 16
        E 8 b7 09 18
        E 8 b7 09 0c
        E 8 b7 09 10
        E 8 b7 09 11
        E 8 b7 09 0d
        E 8 b7 09 17
        E 8 b7 09 03
        E 8 b7 09 09
        E 8 b7 09 10
        E 6 b7 09 13
        E 6 b7 09 43
        E 6 b7 09 2c
        E 6 b7 09 07
        E 6 b7 09 3e
        E 6 b7 09 38
        E 6 b7 09 08
        E 6 b7 09 07
        E 6 b7 09 2a
        E 6 b7 09 54
        E 6 b7 09 46
        E 6 b7 09 4d
        E 6 b7 09 37
        E 6 b7 09 09
        E 6 b7 09 10
        E 6 b7 09 3c
        E 6 b7 09 31
        E 6 b7 09 19
        E 6 b7 09 11
        E 6 b7 09 17
        E 6 b7 09 45
        E 6 b7 09 29
        E 6 b7 09 15
        E 6 b7 09 33
        E 6 b7 09 58
        E 6 b7 09 00
        E 6 b7 09 0b
        E 6 b7 09 24
        E 6 b7 09 1e
        E 6 b7 09 48
        E 6 b7 09 12
        E 6 b7 09 05
        E 6 b7 09 0e
        E 6 b7 09 0f
        E 6 b7 09 50
        E 6 b7 09 16
        E 6 b7 09 00
        E 6 b7 09 41
        E 6 b7 09 1e
        E 6 b7 09 12
        E 6 b7 09 23
        E 6 b7 09 17
        E 6 b7 09 4b
        E 6 b7 09 4a
        E 6 b7 09 58
        E 6 b7 09 4a
        E 6 b7 09 26
        E 6 b7 09 52
        E 6 b7 09 3f
        E 6 b7 09 0a
        E 6 b7 09 27
        E 6 b7 09 2f
        E 6 b7 09 54
        E 6 b7 09 43
        E 6 b7 09 30
        E 6 b7 09 31
        E 6 b7 09 04
        E 6 b7 09 09
        E 6 b7 09 51
        E 6 b7 09 47
        E 6 b7 09 25
        E 6 b7 09 1c
        E 6 b7 09 0b
        E 6 b7 09 27
        E 6 b7 09 1a
        E 6 b7 09 15
        E 6 b7 09 21
        E 6 b7 09 2e
        E 6 b7 09 35
        E 6 b7 09 39
        E 6 b7 09 0e
        E 6 b7 09 35
        E 6 b7 09 4f
        E 6 b7 09 2d
        E 6 b7 09 33
        E 6 b7 09 02
        E 6 b7 09 06
        E 6 b7 09 57
        E 6 b7 09 3a
        E 6 b7 09 10
        E 6 b7 09 51
        E 6 b7 09 1c
        E 6 b7 09 22
        E 6 b7 09 2b
        E 6 b7 09 23
        E 6 b7 09 3b
        E 6 b7 09 48
        E 6 b7 09 19
        E 6 b7 09 32
        E 6 b7 09 14
        E 6 b7 09 4f
        E 6 b7 09 49
        E 6 b7 09 28
        E 6 b7 09 20
        E 6 b7 09 46
        E 6 b7 09 20
        E 6 b7 09 3e
        E 6 b7 09 0c
        E 6 b7 09 01
        E 6 b7 09 1d
        E 6 b7 09 2c
        E 6 b7 09 4c
        E 6 b7 09 44
        E 6 b7 09 02
        E 6 b7 09 4d
        E 6 b7 09 41
        E 6 b7 09 04
        E 6 b7 09 1b
        E 6 b7 09 34
        E 6 b7 09 42
        E 6 b7 09 55
        E 6 b7 09 36
        E 6 b7 09 25
        E 6 b7 09 18
        E 6 b7 09 3d
        E 6 b7 09 40
        E 6 b7 09 4e
        E 6 b7 09 56
        E 6 b7 09 2a
        E 6 b7 09 38
        E 6 b7 09 3c
        E 6 b7 09 2e
        E 6 b7 09 53
        E 6 b7 09 0d
        E 6 b7 09 1f
        E 6 b7 09 3a
        E 1 b7 09 0b
        E 1 b7 09 26
        E 1 b7 09 19
        E 1 b7 09 04
        E 1 b7 09 24
        E 1 b7 09 20
        E 1 b7 09 04
        E 1 b7 09 04
        E 1 b7 09 18
        E 1 b7 09 30
        E 1 b7 09 28
        E 1 b7 09 2c
        E 1 b7 09 1f
        E 1 b7 09 05
        E 1 b7 09 09
        E 1 b7 09 22
        E 1 b7 09 1c
        E 1 b7 09 0e
        E 1 b7 09 0a
        E 1 b7 09 0d
        E 1 b7 09 27
        E 1 b7 09 17
        E 1 b7 09 0c
        E 1 b7 09 1d
        E 1 b7 09 32
        E 1 b7 09 00
        E 1 b7 09 06
        E 1 b7 09 14
        E 1 b7 09 11
        E 1 b7 09 29
        E 1 b7 09 0a
        E 1 b7 09 03
        E 1 b7 09 08
        E 1 b7 09 08
        E 1 b7 09 2e
        E 1 b7 09 0c
        E 1 b7 09 00
        E 1 b7 09 25
        E 1 b7 09 11
        E 1 b7 09 0a
        E 1 b7 09 14
        E 1 b7 09 0d
        E 1 b7 09 2b
        E 1 b7 09 2a
        E 1 b7 09 32
        E 1 b7 09 2a
        E 1 b7 09 16
        E 1 b7 09 2f
        E 1 b7 09 24
        E 1 b7 09 06
        E 1 b7 09 16
        E 1 b7 09 1b
        E 1 b7 09 30
        E 1 b7 09 26
        E 1 b7 09 1b
        E 1 b7 09 1c
        E 1 b7 09 02
        E 1 b7 09 05
        E 1 b7 09 2e
        E 1 b7 09 28
        E 1 b7 09 15
        E 1 b7 09 10
        E 1 b7 09 06
        E 1 b7 09 16
        E 1 b7 09 0f
        E 1 b7 09 0c
        E 1 b7 09 13
        E 1 b7 09 1a
        E 1 b7 09 1e
        E 1 b7 09 20
        E 1 b7 09 08
        E 1 b7 09 1e
        E 1 b7 09 2d
        E 1 b7 09 1a
        E 1 b7 09 1d
        E 1 b7 09 01
        E 1 b7 09 03
        E 1 b7 09 32
        E 1 b7 09 21
        E 1 b7 09 09
        E 1 b7 09 2e
        E 1 b7 09 10
        E 1 b7 09 13
        E 1 b7 09 18
        E 1 b7 09 14
        E 1 b7 09 22
        E 1 b7 09 29
        E 1 b7 09 0e
        E 1 b7 09 1c
        E 1 b7 09 0b
        E 1 b7 09 2d
        E 1 b7 09 2a
        E 1 b7 09 17
        E 1 b7 09 12
        E 1 b7 09 28
        E 1 b7 09 12
        E 1 b7 09 23
        E 1 b7 09 07
        E 1 b7 09 00
        E 1 b7 09 10
        E 1 b7 09 19
        E 1 b7 09 2b
        E 1 b7 09 27
        E 1 b7 09 01
        E 1 b7 09 2c
        E 1 b7 09 25
        E 1 b7 09 02
        E 1 b7 09 0f
        E 1 b7 09 1e
        E 1 b7 09 26
        E 1 b7 09 30
        E 1 b7 09 1f
        E 1 b7 09 15
        E 1 b7 09 0e
        E 1 b7 09 23
        E 1 b7 09 24
        E 1 b7 09 2c
        E 1 b7 09 31
        E 1 b7 09 18
        E 1 b7 09 20
        E 1 b7 09 22
        E 1 b7 09 1a
        E 1 b7 09 2f
        E 1 b7 09 07
        E 1 b7 09 12
        E 1 b7 09 21
        E 15 b7 09 1c
        E 15 b7 09 60
        E 15 b7 09 3f
        E 15 b7 09 0a
        E 15 b7 09 5a
        E 15 b7 09 50
        E 15 b7 09 0c
        E 15 b7 09 0b
        E 15 b7 09 3d
        E 15 b7 09 78
        E 15 b7 09 65
        E 15 b7 09 6f
        E 15 b7 09 4f
        E 15 b7 09 0e
        E 15 b7 09 18
        E 15 b7 09 56
        E 15 b7 09 46
        E 15 b7 09 24
        E 15 b7 09 19
        E 15 b7 09 22
        E 15 b7 09 63
        E 15 b7 09 3b
        E 15 b7 09 1e
        E 15 b7 09 49
        E 15 b7 09 7e
        E 15 b7 09 00
        E 15 b7 09 10
        E 15 b7 09 34
        E 15 b7 09 2b
        E 15 b7 09 68
        E 15 b7 09 1b
        E 15 b7 09 08
        E 15 b7 09 14
        E 15 b7 09 16
        E 15 b7 09 73
        E 15 b7 09 20
        E 15 b7 09 01
        E 15 b7 09 5e
        E 15 b7 09 2c
        E 15 b7 09 1a
        E 15 b7 09 32
        E 15 b7 09 21
        E 15 b7 09 6c
        E 15 b7 09 6b
        E 15 b7 09 7f
        E 15 b7 09 6a
        E 15 b7 09 37
        E 15 b7 09 76
        E 15 b7 09 5b
        E 15 b7 09 0f
        E 15 b7 09 38
        E 15 b7 09 44
        E 15 b7 09 79
        E 15 b7 09 61
        E 15 b7 09 45
        E 15 b7 09 47
        E 15 b7 09 06
        E 15 b7 09 0d
        E 15 b7 09 75
        E 15 b7 09 66
        E 15 b7 09 36
        E 15 b7 09 28
        E 15 b7 09 11
        E 15 b7 09 39
        E 15 b7 09 26
        E 15 b7 09 1f
        E 15 b7 09 30
        E 15 b7 09 42
        E 15 b7 09 4d
        E 15 b7 09 52
        E 15 b7 09 15
        E 15 b7 09 4c
        E 15 b7 09 71
        E 15 b7 09 41
        E 15 b7 09 4a
        E 15 b7 09 03
        E 15 b7 09 09
        E 15 b7 09 7d
        E 15 b7 09 53
        E 15 b7 09 17
        E 15 b7 09 74
        E 15 b7 09 29
        E 15 b7 09 31
        E 15 b7 09 3e
        E 15 b7 09 33
        E 15 b7 09 55
        E 15 b7 09 67
        E 15 b7 09 25
        E 15 b7 09 48
        E 15 b7 09 1d
        E 15 b7 09 72
        E 15 b7 09 69
        E 15 b7 09 3a
        E 15 b7 09 2e
        E 15 b7 09 64
        E 15 b7 09 2f
        E 15 b7 09 59
        E 15 b7 09 12
        E 15 b7 09 02
        E 15 b7 09 2a
        E 15 b7 09 40
        E 15 b7 09 6d
        E 15 b7 09 62
        E 15 b7 09 04
        E 15 b7 09 6e
        E 15 b7 09 5d
        E 15 b7 09 07
        E 15 b7 09 27
        E 15 b7 09 4b
        E 15 b7 09 5f
        E 15 b7 09 7a
        E 15 b7 09 4e
        E 15 b7 09 35
        E 15 b7 09 23
        E 15 b7 09 58
        E 15 b7 09 5c
        E 15 b7 09 70
        E 15 b7 09 7c
        E 15 b7 09 3c
        E 15 b7 09 51
        E 15 b7 09 57
        E 15 b7 09 43
        E 15 b7 09 77
        E 15 b7 09 13
        E 15 b7 09 2d
        E 15 b7 09 54
        E 3 b7 09 19
        E 3 b7 09 56
        E 3 b7 09 38
        E 3 b7 09 09
        E 3 b7 09 51
        E 3 b7 09 48
        E 3 b7 09 0a
        E 3 b7 09 09
        E 3 b7 09 36
        E 3 b7 09 6c
        E 3 b7 09 5a
        E 3 b7 09 63
        E 3 b7 09 47
        E 3 b7 09 0c
        E 3 b7 09 15
        E 3 b7 09 4d
        E 3 b7 09 3f
        E 3 b7 09 20
        E 3 b7 09 16
        E 3 b7 09 1e
        E 3 b7 09 59
        E 3 b7 09 35
        E 3 b7 09 1b
        E 3 b7 09 41
        E 3 b7 09 71
        E 3 b7 09 00
        E 3 b7 09 0e
        E 3 b7 09 2e
        E 3 b7 09 26
        E 3 b7 09 5d
        E 3 b7 09 18
        E 3 b7 09 07
        E 3 b7 09 12
        E 3 b7 09 13
        E 3 b7 09 67
        E 3 b7 09 1c
        E 3 b7 09 00
        E 3 b7 09 54
        E 3 b7 09 27
        E 3 b7 09 17
        E 3 b7 09 2d
        E 3 b7 09 1d
        E 3 b7 09 61
        E 3 b7 09 60
        E 3 b7 09 72
        E 3 b7 09 5f
        E 3 b7 09 31
        E 3 b7 09 6a
        E 3 b7 09 51
        E 3 b7 09 0d
        E 3 b7 09 32
        E 3 b7 09 3d
        E 3 b7 09 6c
        E 3 b7 09 57
        E 3 b7 09 3e
        E 3 b7 09 3f
        E 3 b7 09 05
        E 3 b7 09 0b
        E 3 b7 09 69
        E 3 b7 09 5b
        E 3 b7 09 30
        E 3 b7 09 24
        E 3 b7 09 0f
        E 3 b7 09 33
        E 3 b7 09 22
        E 3 b7 09 1b
        E 3 b7 09 2b
        E 3 b7 09 3b
        E 3 b7 09 45
        E 3 b7 09 49
        E 3 b7 09 12
        E 3 b7 09 44
        E 3 b7 09 65
        E 3 b7 09 3a
        E 3 b7 09 42
        E 3 b7 09 02
        E 3 b7 09 08
        E 3 b7 09 70
        E 3 b7 09 4a
        E 3 b7 09 14
        E 3 b7 09 68
        E 3 b7 09 24
        E 3 b7 09 2c
        E 3 b7 09 37
        E 3 b7 09 2d
        E 3 b7 09 4c
        E 3 b7 09 5c
        E 3 b7 09 21
        E 3 b7 09 40
        E 3 b7 09 1a
        E 3 b7 09 66
        E 3 b7 09 5e
        E 3 b7 09 34
        E 3 b7 09 29
        E 3 b7 09 5a
        E 3 b7 09 2a
        E 3 b7 09 50
        E 3 b7 09 10
        E 3 b7 09 01
        E 3 b7 09 25
        E 3 b7 09 39
        E 3 b7 09 62
        E 3 b7 09 58
        E 3 b7 09 03
        E 3 b7 09 63
        E 3 b7 09 53
        E 3 b7 09 06
        E 3 b7 09 23
        E 3 b7 09 43
        E 3 b7 09 55
        E 3 b7 09 6d
        E 3 b7 09 46
        E 3 b7 09 2f
        E 3 b7 09 1f
        E 3 b7 09 4f
        E 3 b7 09 52
        E 3 b7 09 64
        E 3 b7 09 6f
        E 3 b7 09 36
        E 3 b7 09 48
        E 3 b7 09 4e
        E 3 b7 09 3c
        E 3 b7 09 6b
        E 3 b7 09 11
        E 3 b7 09 28
        E 3 b7 09 4b
        E 1 b7 09 10
        E 1 b7 09 39
        E 1 b7 09 25
        E 1 b7 09 06
        E 1 b7 09 36
        E 1 b7 09 30
        E 1 b7 09 07
        E 1 b7 09 06
        E 1 b7 09 24
        E 1 b7 09 48
        E 1 b7 09 3c
        E 1 b7 09 42
        E 1 b7 09 2f
        E 1 b7 09 08
        E 1 b7 09 0e
        E 1 b7 09 33
        E 1 b7 09 2a
        E 1 b7 09 15
        E 1 b7 09 0f
        E 1 b7 09 14
        E 1 b7 09 3b
        E 1 b7 09 23
        E 1 b7 09 12
        E 1 b7 09 2b
        E 1 b7 09 4b
        E 1 b7 09 00
        E 1 b7 09 09
        E 1 b7 09 1f
        E 1 b7 09 19
        E 1 b7 09 3e
        E 1 b7 09 10
        E 1 b7 09 04
        E 1 b7 09 0c
        E 1 b7 09 0d
        E 1 b7 09 45
        E 1 b7 09 13
        E 1 b7 09 00
        E 1 b7 09 38
        E 1 b7 09 1a
        E 1 b7 09 0f
        E 1 b7 09 1e
        E 1 b7 09 13
        E 1 b7 09 40
        E 1 b7 09 40
        E 1 b7 09 4c
        E 1 b7 09 3f
        E 1 b7 09 21
        E 1 b7 09 46
        E 1 b7 09 36
        E 1 b7 09 09
        E 1 b7 09 21
        E 1 b7 09 28
        E 1 b7 09 48
        E 1 b7 09 3a
        E 1 b7 09 29
        E 1 b7 09 2a
        E 1 b7 09 03
        E 1 b7 09 07
        E 1 b7 09 46
        E 1 b7 09 3d
        E 1 b7 09 20
        E 1 b7 09 18
        E 1 b7 09 0a
        E 1 b7 09 22
        E 1 b7 09 16
        E 1 b7 09 12
        E 1 b7 09 1c
        E 1 b7 09 27
        E 1 b7 09 2e
        E 1 b7 09 31
        E 1 b7 09 0c
        E 1 b7 09 2d
        E 1 b7 09 43
        E 1 b7 09 27
        E 1 b7 09 2c
        E 1 b7 09 01
        E 1 b7 09 05
        E 1 b7 09 4b
        E 1 b7 09 31
        E 1 b7 09 0d
        E 1 b7 09 45
        E 1 b7 09 18
        E 1 b7 09 1d
        E 1 b7 09 25
        E 1 b7 09 1e
        E 1 b7 09 33
        E 1 b7 09 3d
        E 1 b7 09 16
        E 1 b7 09 2b
        E 1 b7 09 11
        E 1 b7 09 44
        E 1 b7 09 3f
        E 1 b7 09 22
        E 1 b7 09 1b
        E 1 b7 09 3c
        E 1 b7 09 1c
        E 1 b7 09 35
        E 1 b7 09 0a
        E 1 b7 09 01
        E 1 b7 09 19
        E 1 b7 09 26
        E 1 b7 09 41
        E 1 b7 09 3a
        E 1 b7 09 02
        E 1 b7 09 42
        E 1 b7 09 37
        E 1 b7 09 04
        E 1 b7 09 17
        E 1 b7 09 2d
        E 1 b7 09 39
        E 1 b7 09 49
        E 1 b7 09 2e
        E 1 b7 09 1f
        E 1 b7 09 15
        E 1 b7 09 34
        E 1 b7 09 37
        E 1 b7 09 43
        E 1 b7 09 4a
        E 1 b7 09 24
        E 1 b7 09 30
        E 1 b7 09 34
        E 1 b7 09 28
        E 1 b7 09 47
        E 1 b7 09 0b
        E 1 b7 09 1b
        E 1 b7 09 32
        E 8 b7 09 05
        E 8 b7 09 13
        E 8 b7 09 0c
        E 8 b7 09 02
        E 8 b7 09 12
        E 8 b7 09 10
        E 8 b7 09 02
        E 8 b7 09 02
        E 8 b7 09 0c
        E 8 b7 09 18
        E 8 b7 09 14
        E 8 b7 09 16
        E 8 b7 09 0f
        E 8 b7 09 02
        E 8 b7 09 04
        E 8 b7 09 11
        E 8 b7 09 0e
        E 8 b7 09 07
        E 8 b7 09 05
        E 8 b7 09 06
        E 8 b7 09 13
        E 8 b7 09 0b
        E 8 b7 09 06
        E 8 b7 09 0e
        E 8 b7 09 19
        E 8 b7 09 00
        E 8 b7 09 03
        E 8 b7 09 0a
        E 8 b7 09 08
        E 8 b7 09 14
        E 8 b7 09 05
        E 8 b7 09 01
        E 8 b7 09 04
        E 8 b7 09 04
        E 8 b7 09 17
        E 8 b7 09 06
        E 8 b7 09 00
        E 8 b7 09 12
        E 8 b7 09 08
        E 8 b7 09 05
        E 8 b7 09 0a
        E 8 b7 09 06
        E 8 b7 09 15
        E 8 b7 09 15
        E 8 b7 09 19
        E 8 b7 09 15
        E 8 b7 09 0b
        E 8 b7 09 17
        E 8 b7 09 12
        E 8 b7 09 03
        E 8 b7 09 0b
        E 8 b7 09 0d
        E 8 b7 09 18
        E 8 b7 09 13
        E 8 b7 09 0d
        E 8 b7 09 0e
        E 8 b7 09 01
        E 8 b7 09 02
        E 8 b7 09 17
        E 8 b7 09 14
        E 8 b7 09 0a
        E 8 b7 09 08
        E 8 b7 09 03
        E 8 b7 09 0b
        E 8 b7 09 07
        E 8 b7 09 06
        E 8 b7 09 09
        E 8 b7 09 0d
        E 8 b7 09 0f
        E 8 b7 09 10
        E 8 b7 09 04
        E 8 b7 09 0f
        E 8 b7 09 16
        E 8 b7 09 0d
        E 8 b7 09 0e
        E 8 b7 09 00
        E 8 b7 09 01
        E 8 b7 09 19
        E 8 b7 09 10
        E 8 b7 09 04
        E 8 b7 09 17
        E 8 b7 09 08
        E 8 b7 09 09
        E 8 b7 09 0c
        E 8 b7 09 0a
        E 8 b7 09 11
        E 8 b7 09 14
        E 8 b7 09 07
        E 8 b7 09 0e
        E 8 b7 09 05
        E 8 b7 09 16
        E 8 b7 09 15
        E 8 b7 09 0b
        E 8 b7 09 09
        E 8 b7 09 14
        E 8 b7 09 09
        E 8 b7 09 11
        E 8 b7 09 03
        E 8 b7 09 00
        E 8 b7 09 08
        E 8 b7 09 0c
        E 8 b7 09 15
        E 8 b7 09 13
        E 8 b7 09 00
        E 8 b7 09 16
        E 8 b7 09 12
        E 8 b7 09 01
        E 8 b7 09 07
        E 8 b7 09 0f
        E 8 b7 09 13
        E 8 b7 09 18
        E 8 b7 09 0f
        E 8 b7 09 0a
        E 8 b7 09 07
        E 8 b7 09 11
        E 8 b7 09 12
        E 8 b7 09 16
        E 8 b7 09 18
        E 8 b7 09 0c
        E 8 b7 09 10
        E 8 b7 09 11
        E 8 b7 09 0d
        E 8 b7 09 17
        E 8 b7 09 03
        E 8 b7 09 09
        E 8 b7 09 10
        E 6 b7 09 13
        E 6 b7 09 43
        E 6 b7 09 2c
        E 6 b7 09 07
        E 6 b7 09 3e
        E 6 b7 09 38
        E 6 b7 09 08
        E 6 b7 09 07
        E 6 b7 09 2a
        E 6 b7 09 54
        E 6 b7 09 46
        E 6 b7 09 4d
        E 6 b7 09 37
        E 6 b7 09 09
        E 6 b7 09 10
        E 6 b7 09 3c
        E 6 b7 09 31
        E 6 b7 09 19
        E 6 b7 09 11
        E 6 b7 09 17
        E 6 b7 09 45
        E 6 b7 09 29
        E 6 b7 09 15
        E 6 b7 09 33
        E 6 b7 09 58
        E 6 b7 09 00
        E 6 b7 09 0b
        E 6 b7 09 24
        E 6 b7 09 1e
        E 6 b7 09 48
        E 6 b7 09 12
        E 6 b7 09 05
        E 6 b7 09 0e
        E 6 b7 09 0f
        E 6 b7 09 50
        E 6 b7 09 16
        E 6 b7 09 00
        E 6 b7 09 41
        E 6 b7 09 1e
        E 6 b7 09 12
        E 6 b7 09 23
        E 6 b7 09 17
        E 6 b7 09 4b
        E 6 b7 09 4a
        E 6 b7 09 58
        E 6 b7 09 4a
        E 6 b7 09 26
        E 6 b7 09 52
        E 6 b7 09 3f
        E 6 b7 09 0a
        E 6 b7 09 27
        E 6 b7 09 2f
        E 6 b7 09 54
        E 6 b7 09 43
        E 6 b7 09 30
        E 6 b7 09 31
        E 6 b7 09 04
        E 6 b7 09 09
        E 6 b7 09 51
        E 6 b7 09 47
        E 6 b7 09 25
        E 6 b7 09 1c
        E 6 b7 09 0b
        E 6 b7 09 27
        E 6 b7 09 1a
        E 6 b7 09 15
        E 6 b7 09 21
        E 6 b7 09 2e
        E 6 b7 09 35
        E 6 b7 09 39
        E 6 b7 09 0e
        E 6 b7 09 35
        E 6 b7 09 4f
        E 6 b7 09 2d
        E 6 b7 09 33
        E 6 b7 09 02
        E 6 b7 09 06
        E 6 b7 09 57
        E 6 b7 09 3a
        E 6 b7 09 10
        E 6 b7 09 51
        E 6 b7 09 1c
        E 6 b7 09 22
        E 6 b7 09 2b
        E 6 b7 09 23
        E 6 b7 09 3b
        E 6 b7 09 48
        E 6 b7 09 19
        E 6 b7 09 32
        E 6 b7 09 14
        E 6 b7 09 4f
        E 6 b7 09 49
        E 6 b7 09 28
        E 6 b7 09 20
        E 6 b7 09 46
        E 6 b7 09 20
        E 6 b7 09 3e
        E 6 b7 09 0c
        E 6 b7 09 01
        E 6 b7 09 1d
        E 6 b7 09 2c
        E 6 b7 09 4c
        E 6 b7 09 44
        E 6 b7 09 02
        E 6 b7 09 4d
        E 6 b7 09 41
        E 6 b7 09 04
        E 6 b7 09 1b
        E 6 b7 09 34
        E 6 b7 09 42
        E 6 b7 09 55
        E 6 b7 09 36
        E 6 b7 09 25
        E 6 b7 09 18
        E 6 b7 09 3d
        E 6 b7 09 40
        E 6 b7 09 4e
        E 6 b7 09 56
        E 6 b7 09 2a
        E 6 b7 09 38
        E 6 b7 09 3c
        E 6 b7 09 2e
        E 6 b7 09 53
        E 6 b7 09 0d
        E 6 b7 09 1f
        E 6 b7 09 3a
        E 1 b7 09 0b
        E 1 b7 09 26
        E 1 b7 09 19
        E 1 b7 09 04
        E 1 b7 09 24
        E 1 b7 09 20
        E 1 b7 09 04
        E 1 b7 09 04
        E 1 b7 09 18
        E 1 b7 09 30
        E 1 b7 09 28
        E 1 b7 09 2c
        E 1 b7 09 1f
        E 1 b7 09 05
        E 1 b7 09 09
        E 1 b7 09 22
        E 1 b7 09 1c
        E 1 b7 09 0e
        E 1 b7 09 0a
        E 1 b7 09 0d
        E 1 b7 09 27
        E 1 b7 09 17
        E 1 b7 09 0c
        E 1 b7 09 1d
        E 1 b7 09 32
        E 1 b7 09 00
        E 1 b7 09 06
        E 1 b7 09 14
        E 1 b7 09 11
        E 1 b7 09 29
        E 1 b7 09 0a
        E 1 b7 09 03
        E 1 b7 09 08
        E 1 b7 09 08
        E 1 b7 09 2e
        E 1 b7 09 0c
        E 1 b7 09 00
        E 1 b7 09 25
        E 1 b7 09 11
        E 1 b7 09 0a
        E 1 b7 09 14
        E 1 b7 09 0d
        E 1 b7 09 2b
        E 1 b7 09 2a
        E 1 b7 09 32
        E 1 b7 09 2a
        E 1 b7 09 16
        E 1 b7 09 2f
        E 1 b7 09 24
        E 1 b7 09 06
        E 1 b7 09 16
        E 1 b7 09 1b
        E 1 b7 09 30
        E 1 b7 09 26
        E 1 b7 09 1b
        E 1 b7 09 1c
        E 1 b7 09 02
        E 1 b7 09 05
        E 1 b7 09 2e
        E 1 b7 09 28
        E 1 b7 09 15
        E 1 b7 09 10
        E 1 b7 09 06
        E 1 b7 09 16
        E 1 b7 09 0f
        E 1 b7 09 0c
        E 1 b7 09 13
        E 1 b7 09 1a
        E 1 b7 09 1e
        E 1 b7 09 20
        E 1 b7 09 08
        E 1 b7 09 1e
        E 1 b7 09 2d
        E 1 b7 09 1a
        E 1 b7 09 1d
        E 1 b7 09 01
        E 1 b7 09 03
        E 1 b7 09 32
        E 1 b7 09 21
        E 1 b7 09 09
        E 1 b7 09 2e
        E 1 b7 09 10
        E 1 b7 09 13
        E 1 b7 09 18
        E 1 b7 09 14
        E 1 b7 09 22
        E 1 b7 09 29
        E 1 b7 09 0e
        E 1 b7 09 1c
        E 1 b7 09 0b
        E 1 b7 09 2d
        E 1 b7 09 2a
        E 1 b7 09 17
        E 1 b7 09 12
        E 1 b7 09 28
        E 1 b7 09 12
        E 1 b7 09 23
        E 1 b7 09 07
        E 1 b7 09 00
        E 1 b7 09 10
        E 1 b7 09 19
        E 1 b7 09 2b
        E 1 b7 09 27
        E 1 b7 09 01
        E 1 b7 09 2c
        E 1 b7 09 25
        E 1 b7 09 02
        E 1 b7 09 0f
        E 1 b7 09 1e
        E 1 b7 09 26
        E 1 b7 09 30
        E 1 b7 09 1f
        E 1 b7 09 15
        E 1 b7 09 0e
        E 1 b7 09 23
        E 1 b7 09 24
        E 1 b7 09 2c
        E 1 b7 09 31
        E 1 b7 09 18
        E 1 b7 09 20
        E 1 b7 09 22
        E 1 b7 09 1a
        E 1 b7 09 2f
        E 1 b7 09 07
        E 1 b7 09 12
        E 1 b7 09 21
        E 15 b7 09 1c
        E 15 b7 09 60
        E 15 b7 09 3f
        E 15 b7 09 0a
        E 15 b7 09 5a
        E 15 b7 09 50
        E 15 b7 09 0c
        E 15 b7 09 0b
        E 15 b7 09 3d
        E 15 b7 09 78
        E 15 b7 09 65
        E 15 b7 09 6f
        E 15 b7 09 4f
        E 15 b7 09 0e
        E 15 b7 09 18
        E 15 b7 09 56
        E 15 b7 09 46
        E 15 b7 09 24
        E 15 b7 09 19
        E 15 b7 09 22
        E 15 b7 09 63
        E 15 b7 09 3b
        E 15 b7 09 1e
        E 15 b7 09 49
        E 15 b7 09 7e
        E 15 b7 09 00
        E 15 b7 09 10
        E 15 b7 09 34
        E 15 b7 09 2b
        E 15 b7 09 68
        E 15 b7 09 1b
        E 15 b7 09 08
        E 15 b7 09 14
        E 15 b7 09 16
        E 15 b7 09 73
        E 15 b7 09 20
        E 15 b7 09 01
        E 15 b7 09 5e
        E 15 b7 09 2c
        E 15 b7 09 1a
        E 15 b7 09 32
        E 15 b7 09 21
        E 15 b7 09 6c
        E 15 b7 09 6b
        E 15 b7 09 7f
        E 15 b7 09 6a
        E 15 b7 09 37
        E 15 b7 09 76
        E 15 b7 09 5b
        E 15 b7 09 0f
        E 15 b7 09 38
        E 15 b7 09 44
        E 15 b7 09 79
        E 15 b7 09 61
        E 15 b7 09 45
        E 15 b7 09 47
        E 15 b7 09 06
        E 15 b7 09 0d
        E 15 b7 09 75
        E 15 b7 09 66
        E 15 b7 09 36
        E 15 b7 09 28
        E 15 b7 09 11
        E 15 b7 09 39
        E 15 b7 09 26
        E 15 b7 09 1f
        E 15 b7 09 30
        E 15 b7 09 42
        E 15 b7 09 4d
        E 15 b7 09 52
        E 15 b7 09 15
        E 15 b7 09 4c
        E 15 b7 09 71
        E 15 b7 09 41
        E 15 b7 09 4a
        E 15 b7 09 03
        E 15 b7 09 09
        E 15 b7 09 7d
        E 15 b7 09 53
        E 15 b7 09 17
        E 15 b7 09 74
        E 15 b7 09 29
        E 15 b7 09 31
        E 15 b7 09 3e
        E 15 b7 09 33
        E 15 b7 09 55
        E 15 b7 09 67
        E 15 b7 09 25
        E 15 b7 09 48
        E 15 b7 09 1d
        E 15 b7 09 72
        E 15 b7 09 69
        E 15 b7 09 3a
        E 15 b7 09 2e
        E 15 b7 09 64
        E 15 b7 09 2f
        E 15 b7 09 59
        E 15 b7 09 12
        E 15 b7 09 02
        E 15 b7 09 2a
        E 15 b7 09 40
        E 15 b7 09 6d
        E 15 b7 09 62
        E 15 b7 09 04
        E 15 b7 09 6e
        E 15 b7 09 5d
        E 15 b7 09 07
        E 15 b7 09 27
        E 15 b7 09 4b
        E 15 b7 09 5f
        E 15 b7 09 7a
        E 15 b7 09 4e
        E 15 b7 09 35
        E 15 b7 09 23
        E 15 b7 09 58
        E 15 b7 09 5c
        E 15 b7 09 70
        E 15 b7 09 7c
        E 15 b7 09 3c
        E 15 b7 09 51
        E 15 b7 09 57
        E 15 b7 09 43
        E 15 b7 09 77
        E 15 b7 09 13
        E 15 b7 09 2d
        E 15 b7 09 54
        E 3 b7 09 19
        E 3 b7 09 56
        E 3 b7 09 38
        E 3 b7 09 09
        E 3 b7 09 51
        E 3 b7 09 48
        E 3 b7 09 0a
        E 3 b7 09 09
        E 3 b7 09 36
        E 3 b7 09 6c
        E 3 b7 09 5a
        E 3 b7 09 63
        E 3 b7 09 47
        E 3 b7 09 0c
        E 3 b7 09 15
        E 3 b7 09 4d
        E 3 b7 09 3f
        E 3 b7 09 20
        E 3 b7 09 16
        E 3 b7 09 1e
        E 3 b7 09 59
        E 3 b7 09 35
        E 3 b7 09 1b
        E 3 b7 09 41
        E 3 b7 09 71
        E 3 b7 09 00
        E 3 b7 09 0e
        E 3 b7 09 2e
        E 3 b7 09 26
        E 3 b7 09 5d
        E 3 b7 09 18
        E 3 b7 09 07
        E 3 b7 09 12
        E 3 b7 09 13
        E 3 b7 09 67
        E 3 b7 09 1c
        E 3 b7 09 00
        E 3 b7 09 54
        E 3 b7 09 27
        E 3 b7 09 17
        E 3 b7 09 2d
        E 3 b7 09 1d
        E 3 b7 09 61
        E 3 b7 09 60
        E 3 b7 09 72
        E 3 b7 09 5f
        E 3 b7 09 31
        E 3 b7 09 6a
        E 3 b7 09 51
        E 3 b7 09 0d
        E 3 b7 09 32
        E 3 b7 09 3d
        E 3 b7 09 6c
        E 3 b7 09 57
        E 3 b7 09 3e
        E 3 b7 09 3f
        E 3 b7 09 05
        E 3 b7 09 0b
        E 3 b7 09 69
        E 3 b7 09 5b
        E 3 b7 09 30
        E 3 b7 09 24
        E 3 b7 09 0f
        E 3 b7 09 33
        E 3 b7 09 22
        E 3 b7 09 1b
        E 3 b7 09 2b
        E 3 b7 09 3b
        E 3 b7 09 45
        E 3 b7 09 49
        E 3 b7 09 12
        E 3 b7 09 44
        E 3 b7 09 65
        E 3 b7 09 3a
        E 3 b7 09 42
        E 3 b7 09 02
        E 3 b7 09 08
        E 3 b7 09 70
        E 3 b7 09 4a
        E 3 b7 09 14
        E 3 b7 09 68
        E 3 b7 09 24
        E 3 b7 09 2c
        E 3 b7 09 37
        E 3 b7 09 2d
        E 3 b7 09 4c
        E 3 b7 09 5c
        E 3 b7 09 21
        E 3 b7 09 40
        E 3 b7 09 1a
        E 3 b7 09 66
        E 3 b7 09 5e
        E 3 b7 09 34
        E 3 b7 09 29
        E 3 b7 09 5a
        E 3 b7 09 2a
        E 3 b7 09 50
        E 3 b7 09 10
        E 3 b7 09 01
        E 3 b7 09 25
        E 3 b7 09 39
        E 3 b7 09 62
        E 3 b7 09 58
        E 3 b7 09 03
        E 3 b7 09 63
        E 3 b7 09 53
        E 3 b7 09 06
        E 3 b7 09 23
        E 3 b7 09 43
        E 3 b7 09 55
        E 3 b7 09 6d
        E 3 b7 09 46
        E 3 b7 09 2f
        E 3 b7 09 1f
        E 3 b7 09 4f
        E 3 b7 09 52
        E 3 b7 09 64
        E 3 b7 09 6f
        E 3 b7 09 36
        E 3 b7 09 48
        E 3 b7 09 4e
        E 3 b7 09 3c
        E 3 b7 09 6b
        E 3 b7 09 11
        E 3 b7 09 28
        E 3 b7 09 4b
        E 1 b7 09 10
        E 1 b7 09 39
        E 1 b7 09 25
        E 1 b7 09 06
        E 1 b7 09 36
        E 1 b7 09 30
        E 1 b7 09 07
        E 1 b7 09 06
        E 1 b7 09 24
        E 1 b7 09 48
        E 1 b7 09 3c
        E 1 b7 09 42
        E 1 b7 09 2f
        E 1 b7 09 08
        E 1 b7 09 0e
        E 1 b7 09 33
        E 1 b7 09 2a
        E 1 b7 09 15
        E 1 b7 09 0f
        E 1 b7 09 14
        E 1 b7 09 3b
        E 1 b7 09 23
        E 1 b7 09 12
        E 1 b7 09 2b
        E 1 b7 09 4b
        E 1 b7 09 00
        E 1 b7 09 09
        E 1 b7 09 1f
        E 1 b7 09 19
        E 1 b7 09 3e
        E 1 b7 09 10
        E 1 b7 09 04
        E 1 b7 09 0c
        E 1 b7 09 0d
        E 1 b7 09 45
        E 1 b7 09 13
        E 1 b7 09 00
        E 1 b7 09 38
        E 1 b7 09 1a
        E 1 b7 09 0f
        E 1 b7 09 1e
        E 1 b7 09 13
        E 1 b7 09 40
        E 1 b7 09 40
        E 1 b7 09 4c
        E 1 b7 09 3f
        E 1 b7 09 21
        E 1 b7 09 46
        E 1 b7 09 36
        E 1 b7 09 09
        E 1 b7 09 21
        E 1 b7 09 28
        E 1 b7 09 48
        E 1 b7 09 3a
        E 1 b7 09 29
        E 1 b7 09 2a
        E 1 b7 09 03
        E 1 b7 09 07
        E 1 b7 09 46
        E 1 b7 09 3d
        E 1 b7 09 20
        E 1 b7 09 18
        E 1 b7 09 0a
        E 1 b7 09 22
        E 1 b7 09 16
        E 1 b7 09 12
        E 1 b7 09 1c
        E 1 b7 09 27
        E 1 b7 09 2e
        E 1 b7 09 31
        E 1 b7 09 0c
        E 1 b7 09 2d
        E 1 b7 09 43
        E 1 b7 09 27
        E 1 b7 09 2c
        E 1 b7 09 01
        E 1 b7 09 05
        E 1 b7 09 4b
        E 1 b7 09 31
        E 1 b7 09 0d
        E 1 b7 09 45
        E 1 b7 09 18
        E 1 b7 09 1d
        E 1 b7 09 25
        E 1 b7 09 1e
        E 1 b7 09 33
        E 1 b7 09 3d
        E 1 b7 09 16
        E 1 b7 09 2b
        E 1 b7 09 11
        E 1 b7 09 44
        E 1 b7 09 3f
        E 1 b7 09 22
        E 1 b7 09 1b
        E 1 b7 09 3c
        E 1 b7 09 1c
        E 1 b7 09 35
        E 1 b7 09 0a
        E 1 b7 09 01
        E 1 b7 09 19
        E 1 b7 09 26
        E 1 b7 09 41
        E 1 b7 09 3a
        E 1 b7 09 02
        E 1 b7 09 42
        E 1 b7 09 37
        E 1 b7 09 04
        E 1 b7 09 17
        E 1 b7 09 2d
        E 1 b7 09 39
        E 1 b7 09 49
        E 1 b7 09 2e
        E 1 b7 09 1f
        E 1 b7 09 15
        E 1 b7 09 34
        E 1 b7 09 37
        E 1 b7 09 43
        E 1 b7 09 4a
        E 1 b7 09 24
        E 1 b7 09 30
        E 1 b7 09 34
        E 1 b7 09 28
        E 1 b7 09 47
        E 1 b7 09 0b
        E 1 b7 09 1b
        E 1 b7 09 32
        E 8 b7 09 05
        E 8 b7 09 13
        E 8 b7 09 0c
        E 8 b7 09 02
        E 8 b7 09 12
        E 8 b7 09 10
        E 8 b7 09 02
        E 8 b7 09 02
        E 8 b7 09 0c
        E 8 b7 09 18
        E 8 b7 09 14
        E 8 b7 09 16
        E 8 b7 09 0f
        E 8 b7 09 02
        E 8 b7 09 04
        E 8 b7 09 11
        E 8 b7 09 0e
        E 8 b7 09 07
        E 8 b7 09 05
        E 8 b7 09 06
        E 8 b7 09 13
        E 8 b7 09 0b
        E 8 b7 09 06
        E 8 b7 09 0e
        E 8 b7 09 19
        E 8 b7 09 00
        E 8 b7 09 03
        E 8 b7 09 0a
        E 8 b7 09 08
        E 8 b7 09 14
        E 8 b7 09 05
        E 8 b7 09 01
        E 8 b7 09 04
        E 8 b7 09 04
        E 8 b7 09 17
        E 8 b7 09 06
        E 8 b7 09 00
        E 8 b7 09 12
        E 8 b7 09 08
        E 8 b7 09 05
        E 8 b7 09 0a
        E 8 b7 09 06
        E 8 b7 09 15
        E 8 b7 09 15
        E 8 b7 09 19
        E 8 b7 09 15
        E 8 b7 09 0b
        E 8 b7 09 17
        E 8 b7 09 12
        E 8 b7 09 03
        E 8 b7 09 0b
        E 8 b7 09 0d
        E 8 b7 09 18
        E 8 b7 09 13
        E 8 b7 09 0d
        E 8 b7 09 0e
        E 8 b7 09 01
        E 8 b7 09 02
        E 8 b7 09 17
        E 8 b7 09 14
        E 8 b7 09 0a
        E 8 b7 09 08
        E 8 b7 09 03
        E 8 b7 09 0b
        E 8 b7 09 07
        E 8 b7 09 06
        E 8 b7 09 09
        E 8 b7 09 0d
        E 8 b7 09 0f
        E 8 b7 09 10
        E 8 b7 09 04
        E 8 b7 09 0f
        E 8 b7 09 16
        E 8 b7 09 0d
        E 8 b7 09 0e
        E 8 b7 09 00
        E 8 b7 09 01
        E 8 b7 09 19
        E 8 b7 09 10
        E 8 b7 09 04
        E 8 b7 09 17
        E 8 b7 09 08
        E 8 b7 09 09
        E 8 b7 09 0c
        E 8 b7 09 0a
        E 8 b7 09 11
        E 8 b7 09 14
        E 8 b7 09 07
        E 8 b7 09 0e
        E 8 b7 09 05
        E 8 b7 09 16
        E 8 b7 09 15
        E 8 b7 09 0b
        E 8 b7 09 09
        E 8 b7 09 14
        E 8 b7 09 09
        E 8 b7 09 11
        E 8 b7 09 03
        E 8 b7 09 00
        E 8 b7 09 08
        E 8 b7 09 0c
        E 8 b7 09 15
        E 8 b7 09 13
        E 8 b7 09 00
        E 8 b7 09 16
        E 8 b7 09 12
        E 8 b7 09 01
        E 8 b7 09 07
        E 8 b7 09 0f
        E 8 b7 09 13
        E 8 b7 09 18
        E 8 b7 09 0f
        E 8 b7 09 0a
        E 8 b7 09 07
        E 8 b7 09 11
        E 8 b7 09 12
        E 8 b7 09 16
        E 8 b7 09 18
        E 8 b7 09 0c
        E 8 b7 09 10
        E 8 b7 09 11
        E 8 b7 09 0d
        E 8 b7 09 17
        E 8 b7 09 03
        E 8 b7 09 09
        E 8 b7 09 10
        E 6 b7 09 13
        E 6 b7 09 43
        E 6 b7 09 2c
        E 6 b7 09 07
        E 6 b7 09 3e
        E 6 b7 09 38
        E 6 b7 09 08
        E 6 b7 09 07
        E 6 b7 09 2a
        E 6 b7 09 54
        E 6 b7 09 46
        E 6 b7 09 4d
        E 6 b7 09 37
        E 6 b7 09 09
        E 6 b7 09 10
        E 6 b7 09 3c
        E 6 b7 09 31
        E 6 b7 09 19
        E 6 b7 09 11
        E 6 b7 09 17
        E 6 b7 09 45
        E 6 b7 09 29
        E 6 b7 09 15
        E 6 b7 09 33
        E 6 b7 09 58
        E 6 b7 09 00
        E 6 b7 09 0b
        E 6 b7 09 24
        E 6 b7 09 1e
        E 6 b7 09 48
        E 6 b7 09 12
        E 6 b7 09 05
        E 6 b7 09 0e
        E 6 b7 09 0f
        E 6 b7 09 50
        E 6 b7 09 16
        E 6 b7 09 00
        E 6 b7 09 41
        E 6 b7 09 1e
        E 6 b7 09 12
        E 6 b7 09 23
        E 6 b7 09 17
        E 6 b7 09 4b
        E 6 b7 09 4a
        E 6 b7 09 58
        E 6 b7 09 4a
        E 6 b7 09 26
        E 6 b7 09 52
        E 6 b7 09 3f
        E 6 b7 09 0a
        E 6 b7 09 27
        E 6 b7 09 2f
        E 6 b7 09 54
        E 6 b7 09 43
        E 6 b7 09 30
        E 6 b7 09 31
        E 6 b7 09 04
        E 6 b7 09 09
        E 6 b7 09 51
        E 6 b7 09 47
        E 6 b7 09 25
        E 6 b7 09 1c
        E 6 b7 09 0b
        E 6 b7 09 27
        E 6 b7 09 1a
        E 6 b7 09 15
        E 6 b7 09 21
        E 6 b7 09 2e
        E 6 b7 09 35
        E 6 b7 09 39
        E 6 b7 09 0e
        E 6 b7 09 35
        E 6 b7 09 4f
        E 6 b7 09 2d
        E 6 b7 09 33
        E 6 b7 09 02
        E 6 b7 09 06
        E 6 b7 09 57
        E 6 b7 09 3a
        E 6 b7 09 10
        E 6 b7 09 51
        E 6 b7 09 1c
        E 6 b7 09 22
        E 6 b7 09 2b
        E 6 b7 09 23
        E 6 b7 09 3b
        E 6 b7 09 48
        E 6 b7 09 19
        E 6 b7 09 32
        E 6 b7 09 14
        E 6 b7 09 4f
        E 6 b7 09 49
        E 6 b7 09 28
        E 6 b7 09 20
        E 6 b7 09 46
        E 6 b7 09 20
        E 6 b7 09 3e
        E 6 b7 09 0c
        E 6 b7 09 01
        E 6 b7 09 1d
        E 6 b7 09 2c
        E 6 b7 09 4c
        E 6 b7 09 44
        E 6 b7 09 02
        E 6 b7 09 4d
        E 6 b7 09 41
        E 6 b7 09 04
        E 6 b7 09 1b
        E 6 b7 09 34
        E 6 b7 09 42
        E 6 b7 09 55
        E 6 b7 09 36
        E 6 b7 09 25
        E 6 b7 09 18
        E 6 b7 09 3d
        E 6 b7 09 40
        E 6 b7 09 4e
        E 6 b7 09 56
        E 6 b7 09 2a
        E 6 b7 09 38
        E 6 b7 09 3c
        E 6 b7 09 2e
        E 6 b7 09 53
        E 6 b7 09 0d
        E 6 b7 09 1f
        E 6 b7 09 3a
        E 1 b7 09 0b
        E 1 b7 09 26
        E 1 b7 09 19
        E 1 b7 09 04
        E 1 b7 09 24
        E 1 b7 09 20
        E 1 b7 09 04
        E 1 b7 09 04
        E 1 b7 09 18
        E 1 b7 09 30
        E 1 b7 09 28
        E 1 b7 09 2c
        E 1 b7 09 1f
        E 1 b7 09 05
        E 1 b7 09 09
        E 1 b7 09 22
        E 1 b7 09 1c
        E 1 b7 09 0e
        E 1 b7 09 0a
        E 1 b7 09 0d
        E 1 b7 09 27
        E 1 b7 09 17
        E 1 b7 09 0c
        E 1 b7 09 1d
        E 1 b7 09 32
        E 1 b7 09 00
        E 1 b7 09 06
        E 1 b7 09 14
        E 1 b7 09 11
        E 1 b7 09 29
        E 1 b7 09 0a
        E 1 b7 09 03
        E 1 b7 09 08
        E 1 b7 09 08
        E 1 b7 09 2e
        E 1 b7 09 0c
        E 1 b7 09 00
        E 1 b7 09 25
        E 1 b7 09 11
        E 1 b7 09 0a
        E 1 b7 09 14
        E 1 b7 09 0d
        E 1 b7 09 2b
        E 1 b7 09 2a
        E 1 b7 09 32
        E 1 b7 09 2a
        E 1 b7 09 16
        E 1 b7 09 2f
        E 1 b7 09 24
        E 1 b7 09 06
        E 1 b7 09 16
        E 1 b7 09 1b
        E 1 b7 09 30
        E 1 b7 09 26
        E 1 b7 09 1b
        E 1 b7 09 1c
        E 1 b7 09 02
        E 1 b7 09 05
        E 1 b7 09 2e
        E 1 b7 09 28
        E 1 b7 09 15
        E 1 b7 09 10
        E 1 b7 09 06
        E 1 b7 09 16
        E 1 b7 09 0f
        E 1 b7 09 0c
        E 1 b7 09 13
        E 1 b7 09 1a
        E 1 b7 09 1e
        E 1 b7 09 20
        E 1 b7 09 08
        E 1 b7 09 1e
        E 1 b7 09 2d
        E 1 b7 09 1a
        E 1 b7 09 1d
        E 1 b7 09 01
        E 1 b7 09 03
        E 1 b7 09 32
        E 1 b7 09 21
        E 1 b7 09 09
        E 1 b7 09 2e
        E 1 b7 09 10
        E 1 b7 09 13
        E 1 b7 09 18
        E 1 b7 09 14
        E 1 b7 09 22
        E 1 b7 09 29
        E 1 b7 09 0e
        E 1 b7 09 1c
        E 1 b7 09 0b
        E 1 b7 09 2d
        E 1 b7 09 2a
        E 1 b7 09 17
        E 1 b7 09 12
        E 1 b7 09 28
        E 1 b7 09 12
        E 1 b7 09 23
        E 1 b7 09 07
        E 1 b7 09 00
        E 1 b7 09 10
        E 1 b7 09 19
        E 1 b7 09 2b
        E 1 b7 09 27
        E 1 b7 09 01
        E 1 b7 09 2c
        E 1 b7 09 25
        E 1 b7 09 02
        E 1 b7 09 0f
        E 1 b7 09 1e
        E 1 b7 09 26
        E 1 b7 09 30
        E 1 b7 09 1f
        E 1 b7 09 15
        E 1 b7 09 0e
        E 1 b7 09 23
        E 1 b7 09 24
        E 1 b7 09 2c
        E 1 b7 09 31
        E 1 b7 09 18
        E 1 b7 09 20
        E 1 b7 09 22
        E 1 b7 09 1a
        E 1 b7 09 2f
        E 1 b7 09 07
        E 1 b7 09 12
        E 1 b7 09 21
        E 15 b7 09 1c
        E 15 b7 09 60
        E 15 b7 09 3f
        E 15 b7 09 0a
        E 15 b7 09 5a
        E 15 b7 09 50
        E 15 b7 09 0c
        E 15 b7 09 0b
        E 15 b7 09 3d
        E 15 b7 09 78
        E 15 b7 09 65
        E 15 b7 09 6f
        E 15 b7 09 4f
        E 15 b7 09 0e
        E 15 b7 09 18
        E 15 b7 09 56
        E 15 b7 09 46
        E 15 b7 09 24
        E 15 b7 09 19
        E 15 b7 09 22
        E 15 b7 09 63
        E 15 b7 09 3b
        E 15 b7 09 1e
        E 15 b7 09 49
        E 15 b7 09 7e
        E 15 b7 09 00
        E 15 b7 09 10
        E 15 b7 09 34
        E 15 b7 09 2b
        E 15 b7 09 68
        E 15 b7 09 1b
        E 15 b7 09 08
        E 15 b7 09 14
        E 15 b7 09 16
        E 15 b7 09 73
        E 15 b7 09 20
        E 15 b7 09 01
        E 15 b7 09 5e
        E 15 b7 09 2c
        E 15 b7 09 1a
        E 15 b7 09 32
        E 15 b7 09 21
        E 15 b7 09 6c
        E 15 b7 09 6b
        E 15 b7 09 7f
        E 15 b7 09 6a
        E 15 b7 09 37
        E 15 b7 09 76
        E 15 b7 09 5b
        E 15 b7 09 0f
        E 15 b7 09 38
        E 15 b7 09 44
        E 15 b7 09 79
        E 15 b7 09 61
        E 15 b7 09 45
        E 15 b7 09 47
        E 15 b7 09 06
        E 15 b7 09 0d
        E 15 b7 09 75
        E 15 b7 09 66
        E 15 b7 09 36
        E 15 b7 09 28
        E 15 b7 09 11
        E 15 b7 09 39
        E 15 b7 09 26
        E 15 b7 09 1f
        E 15 b7 09 30
        E 15 b7 09 42
        E 15 b7 09 4d
        E 15 b7 09 52
        E 15 b7 09 15
        E 15 b7 09 4c
        E 15 b7 09 71
        E 15 b7 09 41
        E 15 b7 09 4a
        E 15 b7 09 03
        E 15 b7 09 09
        E 15 b7 09 7d
        E 15 b7 09 53
        E 15 b7 09 17
        E 15 b7 09 74
        E 15 b7 09 29
        E 15 b7 09 31
        E 15 b7 09 3e
        E 15 b7 09 33
        E 15 b7 09 55
        E 15 b7 09 67
        E 15 b7 09 25
        E 15 b7 09 48
        E 15 b7 09 1d
        E 15 b7 09 72
        E 15 b7 09 69
        E 15 b7 09 3a
        E 15 b7 09 2e
        E 15 b7 09 64
        E 15 b7 09 2f
        E 15 b7 09 59
        E 15 b7 09 12
        E 15 b7 09 02
        E 15 b7 09 2a
        E 15 b7 09 40
        E 15 b7 09 6d
        E 15 b7 09 62
        E 15 b7 09 04
        E 15 b7 09 6e
        E 15 b7 09 5d
        E 15 b7 09 07
        E 15 b7 09 27
        E 15 b7 09 4b
        E 15 b7 09 5f
        E 15 b7 09 7a
        E 15 b7 09 4e
        E 15 b7 09 35
        E 15 b7 09 23
        E 15 b7 09 58
        E 15 b7 09 5c
        E 15 b7 09 70
        E 15 b7 09 7c
        E 15 b7 09 3c
        E 15 b7 09 51
        E 15 b7 09 57
        E 15 b7 09 43
        E 15 b7 09 77
        E 15 b7 09 13
        E 15 b7 09 2d
        E 15 b7 09 54
        E 3 b7 09 19
        E 3 b7 09 56
        E 3 b7 09 38
        E 3 b7 09 09
        E 3 b7 09 51
        E 3 b7 09 48
        E 3 b7 09 0a
        E 3 b7 09 09
        E 3 b7 09 36
        E 3 b7 09 6c
        E 3 b7 09 5a
        E 3 b7 09 63
        E 3 b7 09 47
        E 3 b7 09 0c
        E 3 b7 09 15
        E 3 b7 09 4d
        E 3 b7 09 3f
        E 3 b7 09 20
        E 3 b7 09 16
        E 3 b7 09 1e
        E 3 b7 09 59
        E 3 b7 09 35
        E 3 b7 09 1b
        E 3 b7 09 41
        E 3 b7 09 71
        E 3 b7 09 00
        E 3 b7 09 0e
        E 3 b7 09 2e
        E 3 b7 09 26
        E 3 b7 09 5d
        E 3 b7 09 18
        E 3 b7 09 07
        E 3 b7 09 12
        E 3 b7 09 13
        E 3 b7 09 67
        E 3 b7 09 1c
        E 3 b7 09 00
        E 3 b7 09 54
        E 3 b7 09 27
        E 3 b7 09 17
        E 3 b7 09 2d
        E 3 b7 09 1d
        E 3 b7 09 61
        E 3 b7 09 60
        E 3 b7 09 72
        E 3 b7 09 5f
        E 3 b7 09 31
        E 3 b7 09 6a
        E 3 b7 09 51
        E 3 b7 09 0d
        E 3 b7 09 32
        E 3 b7 09 3d
        E 3 b7 09 6c
        E 3 b7 09 57
        E 3 b7 09 3e
        E 3 b7 09 3f
        E 3 b7 09 05
        E 3 b7 09 0b
        E 3 b7 09 69
        E 3 b7 09 5b
        E 3 b7 09 30
        E 3 b7 09 24
        E 3 b7 09 0f
        E 3 b7 09 33
        E 3 b7 09 22
        E 3 b7 09 1b
        E 3 b7 09 2b
        E 3 b7 09 3b
        E 3 b7 09 45
        E 3 b7 09 49
        E 3 b7 09 12
        E 3 b7 09 44
        E 3 b7 09 65
        E 3 b7 09 3a
        E 3 b7 09 42
        E 3 b7 09 02
        E 3 b7 09 08
        E 3 b7 09 70
        E 3 b7 09 4a
        E 3 b7 09 14
        E 3 b7 09 68
        E 3 b7 09 24
        E 3 b7 09 2c
        E 3 b7 09 37
        E 3 b7 09 2d
        E 3 b7 09 4c
        E 3 b7 09 5c
        E 3 b7 09 21
        E 3 b7 09 40
        E 3 b7 09 1a
        E 3 b7 09 66
        E 3 b7 09 5e
        E 3 b7 09 34
        E 3 b7 09 29
        E 3 b7 09 5a
        E 3 b7 09 2a
        E 3 b7 09 50
        E 3 b7 09 10
        E 3 b7 09 01
        E 3 b7 09 25
        E 3 b7 09 39
        E 3 b7 09 62
        E 3 b7 09 58
        E 3 b7 09 03
        E 3 b7 09 63
        E 3 b7 09 53
        E 3 b7 09 06
        E 3 b7 09 23
        E 3 b7 09 43
        E 3 b7 09 55
        E 3 b7 09 6d
        E 3 b7 09 46
        E 3 b7 09 2f
        E 3 b7 09 1f
        E 3 b7 09 4f
        E 3 b7 09 52
        E 3 b7 09 64
        E 3 b7 09 6f
        E 3 b7 09 36
        E 3 b7 09 48
        E 3 b7 09 4e
        E 3 b7 09 3c
        E 3 b7 09 6b
        E 3 b7 09 11
        E 3 b7 09 28
        E 3 b7 09 4b
        E 1 b7 09 10
        E 1 b7 09 39
        E 1 b7 09 25
        E 1 b7 09 06
        E 1 b7 09 36
        E 1 b7 09 30
        E 1 b7 09 07
        E 1 b7 09 06
        E 1 b7 09 24
        E 1 b7 09 48
        E 1 b7 09 3c
        E 1 b7 09 42
        E 1 b7 09 2f
        E 1 b7 09 08
        E 1 b7 09 0e
        E 1 b7 09 33
        E 1 b7 09 2a
        E 1 b7 09 15
        E 1 b7 09 0f
        E 1 b7 09 14
        E 1 b7 09 3b
        E 1 b7 09 23
        E 1 b7 09 12
        E 1 b7 09 2b
        E 1 b7 09 4b
        E 1 b7 09 00
        E 1 b7 09 09
        E 1 b7 09 1f
        E 1 b7 09 19
        E 1 b7 09 3e
        E 1 b7 09 10
        E 1 b7 09 04
        E 1 b7 09 0c
        E 1 b7 09 0d
        E 1 b7 09 45
        E 1 b7 09 13
        E 1 b7 09 00
        E 1 b7 09 38
        E 1 b7 09 1a
        E 1 b7 09 0f
        E 1 b7 09 1e
        E 1 b7 09 13
        E 1 b7 09 40
        E 1 b7 09 40
        E 1 b7 09 4c
        E 1 b7 09 3f
        E 1 b7 09 21
        E 1 b7 09 46
        E 1 b7 09 36
        E 1 b7 09 09
        E 1 b7 09 21
        E 1 b7 09 28
        E 1 b7 09 48
        E 1 b7 09 3a
        E 1 b7 09 29
        E 1 b7 09 2a
        E 1 b7 09 03
        E 1 b7 09 07
        E 1 b7 09 46
        E 1 b7 09 3d
        E 1 b7 09 20
        E 1 b7 09 18
        E 1 b7 09 0a
        E 1 b7 09 22
        E 1 b7 09 16
        E 1 b7 09 12
        E 1 b7 09 1c
        E 1 b7 09 27
        E 1 b7 09 2e
        E 1 b7 09 31
        E 1 b7 09 0c
        E 1 b7 09 2d
        E 1 b7 09 43
        E 1 b7 09 27
        E 1 b7 09 2c
        E 1 b7 09 01
        E 1 b7 09 05
        E 1 b7 09 4b
        E 1 b7 09 31
        E 1 b7 09 0d
        E 1 b7 09 45
        E 1 b7 09 18
        E 1 b7 09 1d
        E 1 b7 09 25
        E 1 b7 09 1e
        E 1 b7 09 33
        E 1 b7 09 3d
        E 1 b7 09 16
        E 1 b7 09 2b
        E 1 b7 09 11
        E 1 b7 09 44
        E 1 b7 09 3f
        E 1 b7 09 22
        E 1 b7 09 1b
        E 1 b7 09 3c
        E 1 b7 09 1c
        E 1 b7 09 35
        E 1 b7 09 0a
        E 1 b7 09 01
        E 1 b7 09 19
        E 1 b7 09 26
        E 1 b7 09 41
        E 1 b7 09 3a
        E 1 b7 09 02
        E 1 b7 09 42
        E 1 b7 09 37
        E 1 b7 09 04
        E 1 b7 09 17
        E 1 b7 09 2d
        E 1 b7 09 39
        E 1 b7 09 49
        E 1 b7 09 2e
        E 1 b7 09 1f
        E 1 b7 09 15
        E 1 b7 09 34
        E 1 b7 09 37
        E 1 b7 09 43
        E 1 b7 09 4a
        E 1 b7 09 24
        E 1 b7 09 30
        E 1 b7 09 34
        E 1 b7 09 28
        E 1 b7 09 47
        E 1 b7 09 0b
        E 1 b7 09 1b
        E 1 b7 09 32
        E 8 b7 09 05
        E 8 b7 09 13
        E 8 b7 09 0c
        E 8 b7 09 02
        E 8 b7 09 12
        E 8 b7 09 10
        E 8 b7 09 02
        E 8 b7 09 02
        E 8 b7 09 0c
        E 8 b7 09 18
        E 8 b7 09 14
        E 8 b7 09 16
        E 8 b7 09 0f
        E 8 b7 09 02
        E 8 b7 09 04
        E 8 b7 09 11
        E 8 b7 09 0e
        E 8 b7 09 07
        E 8 b7 09 05
        E 8 b7 09 06
        E 8 b7 09 13
        E 8 b7 09 0b
        E 8 b7 09 06
        E 8 b7 09 0e
        E 8 b7 09 19
        E 8 b7 09 00
        E 8 b7 09 03
        E 8 b7 09 0a
        E 8 b7 09 08
        E 8 b7 09 14
        E 8 b7 09 05
        E 8 b7 09 01
        E 8 b7 09 04
        E 8 b7 09 04
        E 8 b7 09 17
        E 8 b7 09 06
        E 8 b7 09 00
        E 8 b7 09 12
        E 8 b7 09 08
        E 8 b7 09 05
        E 8 b7 09 0a
        E 8 b7 09 06
        E 8 b7 09 15
        E 8 b7 09 15
        E 8 b7 09 19
        E 8 b7 09 15
        E 8 b7 09 0b
        E 8 b7 09 17
        E 8 b7 09 12
        E 8 b7 09 03
        E 8 b7 09 0b
        E 8 b7 09 0d
        E 8 b7 09 18
        E 8 b7 09 13
        E 8 b7 09 0d
        E 8 b7 09 0e
        E 8 b7 09 01
        E 8 b7 09 02
        E 8 b7 09 17
        E 8 b7 09 14
        E 8 b7 09 0a
        E 8 b7 09 08
        E 8 b7 09 03
        E 8 b7 09 0b
        E 8 b7 09 07
        E 8 b7 09 06
        E 8 b7 09 09
        E 8 b7 09 0d
        E 8 b7 09 0f
        E 8 b7 09 10
        E 8 b7 09 04
        E 8 b7 09 0f
        E 8 b7 09 16
        E 8 b7 09 0d
        E 8 b7 09 0e
        E 8 b7 09 00
        E 8 b7 09 01
        E 8 b7 09 19
        E 8 b7 09 10
        E 8 b7 09 04
        E 8 b7 09 17
        E 8 b7 09 08
        E 8 b7 09 09
        E 8 b7 09 0c
        E 8 b7 09 0a
        E 8 b7 09 11
        E 8 b7 09 14
        E 8 b7 09 07
        E 8 b7 09 0e
        E 8 b7 09 05
        E 8 b7 09 16
        E 8 b7 09 15
        E 8 b7 09 0b
        E 8 b7 09 09
        E 8 b7 09 14
        E 8 b7 09 09
        E 8 b7 09 11
        E 8 b7 09 03
        E 8 b7 09 00
        E 8 b7 09 08
        E 8 b7 09 0c
        E 8 b7 09 15
        E 8 b7 09 13
        E 8 b7 09 00
        E 8 b7 09 16
        E 8 b7 09 12
        E 8 b7 09 01
        E 8 b7 09 07
        E 8 b7 09 0f
        E 8 b7 09 13
        E 8 b7 09 18
        E 8 b7 09 0f
        E 8 b7 09 0a
        E 8 b7 09 07
        E 8 b7 09 11
        E 8 b7 09 12
        E 8 b7 09 16
        E 8 b7 09 18
        E 8 b7 09 0c
        E 8 b7 09 10
        E 8 b7 09 11
        E 8 b7 09 0d
        E 8 b7 09 17
        E 8 b7 09 03
        E 8 b7 09 09
        E 8 b7 09 10
        E 6 b7 09 13
        E 6 b7 09 43
        E 6 b7 09 2c
        E 6 b7 09 07
        E 6 b7 09 3e
        E 6 b7 09 38
        E 6 b7 09 08
        E 6 b7 09 07
        E 6 b7 09 2a
        E 6 b7 09 54
        E 6 b7 09 46
        E 6 b7 09 4d
        E 6 b7 09 37
        E 6 b7 09 09
        E 6 b7 09 10
        E 6 b7 09 3c
        E 6 b7 09 31
        E 6 b7 09 19
        E 6 b7 09 11
        E 6 b7 09 17
        E 6 b7 09 45
        E 6 b7 09 29
        E 6 b7 09 15
        E 6 b7 09 33
        E 6 b7 09 58
        E 6 b7 09 00
        E 6 b7 09 0b
        E 6 b7 09 24
        E 6 b7 09 1e
        E 6 b7 09 48
        E 6 b7 09 12
        E 6 b7 09 05
        E 6 b7 09 0e
        E 6 b7 09 0f
        E 6 b7 09 50
        E 6 b7 09 16
        E 6 b7 09 00
        E 6 b7 09 41
        E 6 b7 09 1e
        E 6 b7 09 12
        E 6 b7 09 23
        E 6 b7 09 17
        E 6 b7 09 4b
        E 6 b7 09 4a
        E 6 b7 09 58
        E 6 b7 09 4a
        E 6 b7 09 26
        E 6 b7 09 52
        E 6 b7 09 3f
        E 6 b7 09 0a
        E 6 b7 09 27
        E 6 b7 09 2f
        E 6 b7 09 54
        E 6 b7 09 43
        E 6 b7 09 30
        E 6 b7 09 31
        E 6 b7 09 04
        E 6 b7 09 09
        E 6 b7 09 51
        E 6 b7 09 47
        E 6 b7 09 25
        E 6 b7 09 1c
        E 6 b7 09 0b
        E 6 b7 09 27
        E 6 b7 09 1a
        E 6 b7 09 15
        E 6 b7 09 21
        E 6 b7 09 2e
        E 6 b7 09 35
        E 6 b7 09 39
        E 6 b7 09 0e
        E 6 b7 09 35
        E 6 b7 09 4f
        E 6 b7 09 2d
        E 6 b7 09 33
        E 6 b7 09 02
        E 6 b7 09 06
        E 6 b7 09 57
        E 6 b7 09 3a
        E 6 b7 09 10
        E 6 b7 09 51
        E 6 b7 09 1c
        E 6 b7 09 22
        E 6 b7 09 2b
        E 6 b7 09 23
        E 6 b7 09 3b
        E 6 b7 09 48
        E 6 b7 09 19
        E 6 b7 09 32
        E 6 b7 09 14
        E 6 b7 09 4f
        E 6 b7 09 49
        E 6 b7 09 28
        E 6 b7 09 20
        E 6 b7 09 46
        E 6 b7 09 20
        E 6 b7 09 3e
        E 6 b7 09 0c
        E 6 b7 09 01
        E 6 b7 09 1d
        E 6 b7 09 2c
        E 6 b7 09 4c
        E 6 b7 09 44
        E 6 b7 09 02
        E 6 b7 09 4d
        E 6 b7 09 41
        E 6 b7 09 04
        E 6 b7 09 1b
        E 6 b7 09 34
        E 6 b7 09 42
        E 6 b7 09 55
        E 6 b7 09 36
        E 6 b7 09 25
        E 6 b7 09 18
        E 6 b7 09 3d
        E 6 b7 09 40
        E 6 b7 09 4e
        E 6 b7 09 56
        E 6 b7 09 2a
        E 6 b7 09 38
        E 6 b7 09 3c
        E 6 b7 09 2e
        E 6 b7 09 53
        E 6 b7 09 0d
        E 6 b7 09 1f
        E 6 b7 09 3a
        E 1 b7 09 0b
        E 1 b7 09 26
        E 1 b7 09 19
        E 1 b7 09 04
        E 1 b7 09 24
        E 1 b7 09 20
        E 1 b7 09 04
        E 1 b7 09 04
        E 1 b7 09 18
        E 1 b7 09 30
        E 1 b7 09 28
        E 1 b7 09 2c
        E 1 b7 09 1f
        E 1 b7 09 05
        E 1 b7 09 09
        E 1 b7 09 22
        E 1 b7 09 1c
        E 1 b7 09 0e
        E 1 b7 09 0a
        E 1 b7 09 0d
        E 1 b7 09 27
        E 1 b7 09 17
        E 1 b7 09 0c
        E 1 b7 09 1d
        E 1 b7 09 32
        E 1 b7 09 00
        E 1 b7 09 06
        E 1 b7 09 14
        E 1 b7 09 11
        E 1 b7 09 29
        E 1 b7 09 0a
        E 1 b7 09 03
        E 1 b7 09 08
        E 1 b7 09 08
        E 1 b7 09 2e
        E 1 b7 09 0c
        E 1 b7 09 00
        E 1 b7 09 25
        E 1 b7 09 11
        E 1 b7 09 0a
        E 1 b7 09 14
        E 1 b7 09 0d
        E 1 b7 09 2b
        E 1 b7 09 2a
        E 1 b7 09 32
        E 1 b7 09 2a
        E 1 b7 09 16
        E 1 b7 09 2f
        E 1 b7 09 24
        E 1 b7 09 06
        E 1 b7 09 16
        E 1 b7 09 1b
        E 1 b7 09 30
        E 1 b7 09 26
        E 1 b7 09 1b
        E 1 b7 09 1c
        E 1 b7 09 02
        E 1 b7 09 05
        E 1 b7 09 2e
        E 1 b7 09 28
        E 1 b7 09 15
        E 1 b7 09 10
        E 1 b7 09 06
        E 1 b7 09 16
        E 1 b7 09 0f
        E 1 b7 09 0c
        E 1 b7 09 13
        E 1 b7 09 1a
        E 1 b7 09 1e
        E 1 b7 09 20
        E 1 b7 09 08
        E 1 b7 09 1e
        E 1 b7 09 2d
        E 1 b7 09 1a
        E 1 b7 09 1d
        E 1 b7 09 01
        E 1 b7 09 03
        E 1 b7 09 32
        E 1 b7 09 21
        E 1 b7 09 09
        E 1 b7 09 2e
        E 1 b7 09 10
        E 1 b7 09 13
        E 1 b7 09 18
        E 1 b7 09 14
        E 1 b7 09 22
        E 1 b7 09 29
        E 1 b7 09 0e
        E 1 b7 09 1c
        E 1 b7 09 0b
        E 1 b7 09 2d
        E 1 b7 09 2a
        E 1 b7 09 17
        E 1 b7 09 12
        E 1 b7 09 28
        E 1 b7 09 12
        E 1 b7 09 23
        E 1 b7 09 07
        E 1 b7 09 00
        E 1 b7 09 10
        E 1 b7 09 19
        E 1 b7 09 2b
        E 1 b7 09 27
        E 1 b7 09 01
        E 1 b7 09 2c
        E 1 b7 09 25
        E 1 b7 09 02
        E 1 b7 09 0f
        E 1 b7 09 1e
        E 1 b7 09 26
        E 1 b7 09 30
        E 1 b7 09 1f
        E 1 b7 09 15
        E 1 b7 09 0e
        E 1 b7 09 23
        E 1 b7 09 24
        E 1 b7 09 2c
        E 1 b7 09 31
        E 1 b7 09 18
        E 1 b7 09 20
        E 1 b7 09 22
        E 1 b7 09 1a
        E 1 b7 09 2f
        E 1 b7 09 07
        E 1 b7 09 12
        E 1 b7 09 21
        E 15 b7 09 1c
        E 15 b7 09 60
        E 15 b7 09 3f
        E 15 b7 09 0a
        E 15 b7 09 5a
        E 15 b7 09 50
        E 15 b7 09 0c
        E 15 b7 09 0b
        E 15 b7 09 3d
        E 15 b7 09 78
        E 15 b7 09 65
        E 15 b7 09 6f
        E 15 b7 09 4f
        E 15 b7 09 0e
        E 15 b7 09 18
        E 15 b7 09 56
        E 15 b7 09 46
        E 15 b7 09 24
        E 15 b7 09 19
        E 15 b7 09 22
        E 15 b7 09 63
        E 15 b7 09 3b
        E 15 b7 09 1e
        E 15 b7 09 49
        E 15 b7 09 7e
        E 15 b7 09 00
        E 15 b7 09 10
        E 15 b7 09 34
        E 15 b7 09 2b
        E 15 b7 09 68
        E 15 b7 09 1b
        E 15 b7 09 08
        E 15 b7 09 14
        E 15 b7 09 16
        E 15 b7 09 73
        E 15 b7 09 20
        E 15 b7 09 01
        E 15 b7 09 5e
        E 15 b7 09 2c
        E 15 b7 09 1a
        E 15 b7 09 32
        E 15 b7 09 21
        E 15 b7 09 6c
        E 15 b7 09 6b
        E 15 b7 09 7f
        E 15 b7 09 6a
        E 15 b7 09 37
        E 15 b7 09 76
        E 15 b7 09 5b
        E 15 b7 09 0f
        E 15 b7 09 38
        E 15 b7 09 44
        E 15 b7 09 79
        E 15 b7 09 61
        E 15 b7 09 45
        E 15 b7 09 47
        E 15 b7 09 06
        E 15 b7 09 0d
        E 15 b7 09 75
        E 15 b7 09 66
        E 15 b7 09 36
        E 15 b7 09 28
        E 15 b7 09 11
        E 15 b7 09 39
        E 15 b7 09 26
        E 15 b7 09 1f
        E 15 b7 09 30
        E 15 b7 09 42
        E 15 b7 09 4d
        E 15 b7 09 52
        E 15 b7 09 15
        E 15 b7 09 4c
        E 15 b7 09 71
        E 15 b7 09 41
        E 15 b7 09 4a
        E 15 b7 09 03
        E 15 b7 09 09
        E 15 b7 09 7d
        E 15 b7 09 53
        E 15 b7 09 17
        E 15 b7 09 74
        E 15 b7 09 29
        E 15 b7 09 31
        E 15 b7 09 3e
        E 15 b7 09 33
        E 15 b7 09 55
        E 15 b7 09 67
        E 15 b7 09 25
        E 15 b7 09 48
        E 15 b7 09 1d
        E 15 b7 09 72
        E 15 b7 09 69
        E 15 b7 09 3a
        E 15 b7 09 2e
        E 15 b7 09 64
        E 15 b7 09 2f
        E 15 b7 09 59
        E 15 b7 09 12
        E 15 b7 09 02
        E 15 b7 09 2a
        E 15 b7 09 40
        E 15 b7 09 6d
        E 15 b7 09 62
        E 15 b7 09 04
        E 15 b7 09 6e
        E 15 b7 09 5d
        E 15 b7 09 07
        E 15 b7 09 27
        E 15 b7 09 4b
        E 15 b7 09 5f
        E 15 b7 09 7a
        E 15 b7 09 4e
        E 15 b7 09 35
        E 15 b7 09 23
        E 15 b7 09 58
        E 15 b7 09 5c
        E 15 b7 09 70
        E 15 b7 09 7c
        E 15 b7 09 3c
        E 15 b7 09 51
        E 15 b7 09 57
        E 15 b7 09 43
        E 15 b7 09 77
        E 15 b7 09 13
        E 15 b7 09 2d
        E 15 b7 09 54
        E 11 b7 09 0c
        E 11 b7 09 0d
        E 11 b7 09 0e
        E 11 b7 09 0e
        E 11 b7 09 0f
        E 11 b7 09 0f
        E 11 b7 09 10
        E 11 b7 09 11
        E 11 b7 09 11
        E 11 b7 09 12
        E 11 b7 09 12
        E 11 b7 09 13
        E 11 b7 09 13
        E 11 b7 09 14
        E 11 b7 09 14
        E 11 b7 09 15
        E 11 b7 09 15
        E 11 b7 09 16
        E 11 b7 09 16
        E 11 b7 09 17
        E 11 b7 09 17
        E 11 b7 09 17
        E 11 b7 09 18
        E 11 b7 09 18
        E 11 b7 09 18
        E 11 b7 09 18
        E 11 b7 09 18
        E 11 b7 09 19
        E 11 b7 09 19
        E 11 b7 09 19
        E 11 b7 09 19
        E 11 b7 09 19
        E 11 b7 09 19
        E 11 b7 09 19
        E 11 b7 09 19
        E 11 b7 09 19
        E 11 b7 09 19
        E 11 b7 09 19
        E 11 b7 09 18
        E 11 b7 09 18
        E 11 b7 09 18
        E 11 b7 09 18
        E 11 b7 09 17
        E 11 b7 09 17
        E 11 b7 09 17
        E 11 b7 09 16
        E 11 b7 09 16
        E 11 b7 09 16
        E 11 b7 09 15
        E 11 b7 09 15
        E 11 b7 09 14
        E 11 b7 09 14
        E 11 b7 09 13
        E 11 b7 09 13
        E 11 b7 09 12
        E 11 b7 09 11
        E 11 b7 09 11
        E 11 b7 09 10
        E 11 b7 09 10
        E 11 b7 09 0f
        E 11 b7 09 0e
        E 11 b7 09 0e
        E 11 b7 09 0d
        E 11 b7 09 0d
        E 11 b7 09 0c
        E 11 b7 09 0b
        E 11 b7 09 0b
        E 11 b7 09 0a
        E 11 b7 09 09
        E 11 b7 09 09
        E 11 b7 09 08
        E 11 b7 09 08
        E 11 b7 09 07
        E 11 b7 09 07
        E 11 b7 09 06
        E 11 b7 09 05
        E 11 b7 09 05
        E 11 b7 09 04
        E 11 b7 09 04
        E 11 b7 09 03
        E 11 b7 09 03
        E 11 b7 09 03
        E 11 b7 09 02
        E 11 b7 09 02
        E 11 b7 09 02
        E 11 b7 09 01
        E 11 b7 09 01
        E 11 b7 09 01
        E 11 b7 09 00
        E 11 b7 09 00
        E 11 b7 09 00
        E 11 b7 09 00
        E 11 b7 09 00
        E 11 b7 09 00
        E 11 b7 09 00
        E 11 b7 09 00
        E 11 b7 09 00
        E 11 b7 09 00
        E 11 b7 09 00
        E 11 b7 09 00
        E 11 b7 09 00
        E 11 b7 09 00
        E 11 b7 09 00
        E 11 b7 09 01
        E 11 b7 09 01
        E 11 b7 09 01
        E 11 b7 09 01
        E 11 b7 09 02
        E 11 b7 09 02
        E 11 b7 09 02
        E 11 b7 09 03
        E 11 b7 09 03
        E 11 b7 09 04
        E 11 b7 09 04
        E 11 b7 09 05
        E 11 b7 09 05
        E 11 b7 09 06
        E 11 b7 09 06
        E 11 b7 09 07
        E 11 b7 09 07
        E 11 b7 09 08
        E 11 b7 09 09
        E 11 b7 09 09
        E 11 b7 09 0a
        E 11 b7 09 0a
        E 11 b7 09 0b
        E 11 b7 09 0c
        E 11 b7 09 0c
        E 8 b7 09 2c
        E 8 b7 09 2e
        E 8 b7 09 31
        E 8 b7 09 33
        E 8 b7 09 35
        E 8 b7 09 37
        E 8 b7 09 39
        E 8 b7 09 3b
        E 8 b7 09 3d
        E 8 b7 09 3f
        E 8 b7 09 41
        E 8 b7 09 43
        E 8 b7 09 45
        E 8 b7 09 47
        E 8 b7 09 48
        E 8 b7 09 4a
        E 8 b7 09 4c
        E 8 b7 09 4d
        E 8 b7 09 4f
        E 8 b7 09 50
        E 8 b7 09 51
        E 8 b7 09 52
        E 8 b7 09 54
        E 8 b7 09 54
        E 8 b7 09 55
        E 8 b7 09 56
        E 8 b7 09 56
        E 8 b7 09 57
        E 8 b7 09 58
        E 8 b7 09 58
        E 8 b7 09 58
        E 8 b7 09 58
        E 8 b7 09 58
        E 8 b7 09 58
        E 8 b7 09 58
        E 8 b7 09 58
        E 8 b7 09 58
        E 8 b7 09 57
        E 8 b7 09 56
        E 8 b7 09 56
        E 8 b7 09 55
        E 8 b7 09 54
        E 8 b7 09 53
        E 8 b7 09 51
        E 8 b7 09 51
        E 8 b7 09 4f
        E 8 b7 09 4e
        E 8 b7 09 4d
        E 8 b7 09 4b
        E 8 b7 09 49
        E 8 b7 09 48
        E 8 b7 09 46
        E 8 b7 09 44
        E 8 b7 09 42
        E 8 b7 09 40
        E 8 b7 09 3e
        E 8 b7 09 3c
        E 8 b7 09 3a
        E 8 b7 09 38
        E 8 b7 09 36
        E 8 b7 09 33
        E 8 b7 09 31
        E 8 b7 09 2f
        E 8 b7 09 2d
        E 8 b7 09 2b
        E 8 b7 09 29
        E 8 b7 09 27
        E 8 b7 09 25
        E 8 b7 09 22
        E 8 b7 09 20
        E 8 b7 09 1e
        E 8 b7 09 1c
        E 8 b7 09 1a
        E 8 b7 09 18
        E 8 b7 09 16
        E 8 b7 09 14
        E 8 b7 09 12
        E 8 b7 09 10
        E 8 b7 09 0f
        E 8 b7 09 0d
        E 8 b7 09 0b
        E 8 b7 09 0a
        E 8 b7 09 09
        E 8 b7 09 07
        E 8 b7 09 07
        E 8 b7 09 05
        E 8 b7 09 04
        E 8 b7 09 03
        E 8 b7 09 02
        E 8 b7 09 02
        E 8 b7 09 01
        E 8 b7 09 00
        E 8 b7 09 00
        E 8 b7 09 00
        E 8 b7 09 00
        E 8 b7 09 00
        E 8 b7 09 00
        E 8 b7 09 00
        E 8 b7 09 00
        E 8 b7 09 00
        E 8 b7 09 01
        E 8 b7 09 02
        E 8 b7 09 02
        E 8 b7 09 03
        E 8 b7 09 04
        E 8 b7 09 04
        E 8 b7 09 06
        E 8 b7 09 07
        E 8 b7 09 08
        E 8 b7 09 09
        E 8 b7 09 0b
        E 8 b7 09 0c
        E 8 b7 09 0e
        E 8 b7 09 10
        E 8 b7 09 11
        E 8 b7 09 13
        E 8 b7 09 15
        E 8 b7 09 17
        E 8 b7 09 19
        E 8 b7 09 1b
        E 8 b7 09 1d
        E 8 b7 09 1f
        E 8 b7 09 21
        E 8 b7 09 23
        E 8 b7 09 25
        E 8 b7 09 27
        E 8 b7 09 2a
        E 8 b7 09 2c
        E 64 b0 7b 00
        CCINTERP 32
        CHASE_CC_TAKEOFFS 1
        GUID {BFAB5DAD-6091-DD43-8B99-4C8C65E17DDC}
        IGNTEMPO 0 120 4 4
        SRCCOLOR 417
        VELLANE 3 601 0
        VELLANE -1 196 0
      >
    >
  >
  <TRACK {5F57E557-5745-E34D-92DF-1B39EE256C06}
    NAME "xbox 360 portal 2 video game disc"
    PEAKCOL 16576
    BEAT -1
    AUTOMODE 0
    VOLPAN 1 0 -1 -1 1
    MUTESOLO 0 0 0
    IPHASE 0
    PLAYOFFS 0 1
    ISBUS 0 0
    BUSCOMP 0 0 0 0 0
    SHOWINMIX 1 0.6667 0.5 1 0.5 -1 -1 -1
    FREEMODE 0
    SEL 0
    REC 0 0 1 0 0 0 0
    VU 2
    TRACKHEIGHT 0 1 0 0 -1 0
    INQ 0 0 0 0.5 100 0 0 100
    NCHAN 2
    FX 1
    TRACKID {5F57E557-5745-E34D-92DF-1B39EE256C06}
    PERF 0
    MIDIOUT -1
    MAINSEND 1 0
    <ITEM
      POSITION 0
      SNAPOFFS 0
      LENGTH 1505.832731
      LOOP 1
      ALLTAKES 0
      FADEIN 1 0 0 1 0 0
      FADEOUT 1 0 0 1 0 0
      MUTE 0 0
      SEL 0
      IGUID {106C4EE9-5695-8A43-B3D4-5060AFF03E8C}
      IID 21
      NAME "xbox 360 portal 2 video game disc.mid"
      VOLPAN 1 0 1 -1
      SOFFS 0 0
      PLAYRATE 1 1 0 -1 0 0.0025
      CHANMODE 0
      GUID {39888763-547B-8E4B-84A3-57994A6FBD59}
      <SOURCE MIDI
        HASDATA 1 128 QN
        CCINTERP 32
        POOLEDEVTS {98271DD7-9F02-AF41-AB38-986139E52703}
        E 9 b8 09 01
        E 9 b8 09 02
        E 9 b8 09 03
        E 9 b8 09 04
        E 9 b8 09 05
        E 9 b8 09 06
        E 9 b8 09 07
        E 9 b8 09 08
        E 9 b8 09 09
        E 9 b8 09 0a
        E 9 b8 09 0b
        E 9 b8 09 0c
        E 9 b8 09 0d
        E 9 b8 09 0e
        E 9 b8 09 0f
        E 9 b8 09 10
        E 9 b8 09 11
        E 9 b8 09 12
        E 9 b8 09 13
        E 9 b8 09 14
        E 9 b8 09 15
        E 9 b8 09 16
        E 9 b8 09 17
        E 9 b8 09 18
        E 9 b8 09 19
        E 9 b8 09 1a
        E 9 b8 09 1b
        E 9 b8 09 1c
        E 9 b8 09 1d
        E 9 b8 09 1e
        E 9 b8 09 1f
        E 9 b8 09 20
        E 9 b8 09 21
        E 9 b8 09 22
        E 9 b8 09 23
        E 9 b8 09 24
        E 9 b8 09 25
        E 9 b8 09 26
        E 9 b8 09 27
        E 9 b8 09 28
        E 9 b8 09 29
        E 9 b8 09 2a
        E 9 b8 09 2b
        E 9 b8 09 2c
        E 9 b8 09 2d
        E 9 b8 09 2e
        E 9 b8 09 2f
        E 9 b8 09 30
        E 9 b8 09 31
        E 9 b8 09 32
        E 9 b8 09 33
        E 9 b8 09 34
        E 9 b8 09 35
        E 9 b8 09 36
        E 9 b8 09 37
        E 9 b8 09 38
        E 9 b8 09 39
        E 9 b8 09 3a
        E 9 b8 09 3b
        E 9 b8 09 3c
        E 9 b8 09 3d
        E 9 b8 09 3e
        E 9 b8 09 3f
        E 9 b8 09 3f
        E 9 b8 09 3f
        E 9 b8 09 3e
        E 9 b8 09 3d
        E 9 b8 09 3c
        E 9 b8 09 3b
        E 9 b8 09 3a
        E 9 b8 09 39
        E 9 b8 09 38
        E 9 b8 09 37
        E 9 b8 09 36
        E 9 b8 09 35
        E 9 b8 09 34
        E 9 b8 09 33
        E 9 b8 09 32
        E 9 b8 09 31
        E 9 b8 09 30
        E 9 b8 09 2f
        E 9 b8 09 2e
        E 9 b8 09 2d
        E 9 b8 09 2c
        E 9 b8 09 2b
        E 9 b8 09 2a
        E 9 b8 09 29
        E 9 b8 09 28
        E 9 b8 09 27
        E 9 b8 09 26
        E 9 b8 09 25
        E 9 b8 09 24
        E 9 b8 09 23
        E 9 b8 09 22
        E 9 b8 09 21
        E 9 b8 09 20
        E 9 b8 09 1f
        E 9 b8 09 1e
        E 9 b8 09 1d
        E 9 b8 09 1c
        E 9 b8 09 1b
        E 9 b8 09 1a
        E 9 b8 09 19
        E 9 b8 09 18
        E 9 b8 09 17
        E 9 b8 09 16
        E 9 b8 09 15
        E 9 b8 09 14
        E 9 b8 09 13
        E 9 b8 09 12
        E 9 b8 09 11
        E 9 b8 09 10
        E 9 b8 09 0f
        E 9 b8 09 0e
        E 9 b8 09 0d
        E 9 b8 09 0c
        E 9 b8 09 0b
        E 9 b8 09 0a
        E 9 b8 09 09
        E 9 b8 09 08
        E 9 b8 09 07
        E 9 b8 09 06
        E 9 b8 09 05
        E 9 b8 09 04
        E 9 b8 09 03
        E 9 b8 09 02
        E 9 b8 09 01
        E 9 b8 09 00
        E 5 b8 09 00
        E 5 b8 09 01
        E 5 b8 09 02
        E 5 b8 09 03
        E 5 b8 09 04
        E 5 b8 09 04
        E 5 b8 09 05
        E 5 b8 09 06
        E 5 b8 09 07
        E 5 b8 09 08
        E 5 b8 09 08
        E 5 b8 09 09
        E 5 b8 09 0a
        E 5 b8 09 0b
        E 5 b8 09 0c
        E 5 b8 09 0c
        E 5 b8 09 0d
        E 5 b8 09 0e
        E 5 b8 09 0f
        E 5 b8 09 10
        E 5 b8 09 10
        E 5 b8 09 11
        E 5 b8 09 12
        E 5 b8 09 13
        E 5 b8 09 14
        E 5 b8 09 14
        E 5 b8 09 15
        E 5 b8 09 16
        E 5 b8 09 17
        E 5 b8 09 18
        E 5 b8 09 18
        E 5 b8 09 19
        E 5 b8 09 1a
        E 5 b8 09 1b
        E 5 b8 09 1c
        E 5 b8 09 1c
        E 5 b8 09 1d
        E 5 b8 09 1e
        E 5 b8 09 1f
        E 5 b8 09 20
        E 5 b8 09 20
        E 5 b8 09 21
        E 5 b8 09 22
        E 5 b8 09 23
        E 5 b8 09 24
        E 5 b8 09 24
        E 5 b8 09 25
        E 5 b8 09 26
        E 5 b8 09 27
        E 5 b8 09 28
        E 5 b8 09 28
        E 5 b8 09 29
        E 5 b8 09 2a
        E 5 b8 09 2b
        E 5 b8 09 2c
        E 5 b8 09 2c
        E 5 b8 09 2d
        E 5 b8 09 2e
        E 5 b8 09 2f
        E 5 b8 09 30
        E 5 b8 09 30
        E 5 b8 09 31
        E 5 b8 09 32
        E 5 b8 09 32
        E 5 b8 09 32
        E 5 b8 09 31
        E 5 b8 09 30
        E 5 b8 09 30
        E 5 b8 09 2f
        E 5 b8 09 2e
        E 5 b8 09 2d
        E 5 b8 09 2c
        E 5 b8 09 2c
        E 5 b8 09 2b
        E 5 b8 09 2a
        E 5 b8 09 29
        E 5 b8 09 28
        E 5 b8 09 28
        E 5 b8 09 27
        E 5 b8 09 26
        E 5 b8 09 25
        E 5 b8 09 24
        E 5 b8 09 24
        E 5 b8 09 23
        E 5 b8 09 22
        E 5 b8 09 21
        E 5 b8 09 20
        E 5 b8 09 20
        E 5 b8 09 1f
        E 5 b8 09 1e
        E 5 b8 09 1d
        E 5 b8 09 1c
        E 5 b8 09 1c
        E 5 b8 09 1b
        E 5 b8 09 1a
        E 5 b8 09 19
        E 5 b8 09 18
        E 5 b8 09 18
        E 5 b8 09 17
        E 5 b8 09 16
        E 5 b8 09 15
        E 5 b8 09 14
        E 5 b8 09 14
        E 5 b8 09 13
        E 5 b8 09 12
        E 5 b8 09 11
        E 5 b8 09 10
        E 5 b8 09 10
        E 5 b8 09 0f
        E 5 b8 09 0e
        E 5 b8 09 0d
        E 5 b8 09 0c
        E 5 b8 09 0c
        E 5 b8 09 0b
        E 5 b8 09 0a
        E 5 b8 09 09
        E 5 b8 09 08
        E 5 b8 09 08
        E 5 b8 09 07
        E 5 b8 09 06
        E 5 b8 09 05
        E 5 b8 09 04
        E 5 b8 09 04
        E 5 b8 09 03
        E 5 b8 09 02
        E 5 b8 09 01
        E 5 b8 09 00
        E 5 b8 09 00
        E 53 b8 09 0c
        E 53 b8 09 0d
        E 53 b8 09 0e
        E 53 b8 09 0e
        E 53 b8 09 0f
        E 53 b8 09 0f
        E 53 b8 09 10
        E 53 b8 09 11
        E 53 b8 09 11
        E 53 b8 09 12
        E 53 b8 09 12
        E 53 b8 09 13
        E 53 b8 09 13
        E 53 b8 09 14
        E 53 b8 09 14
        E 53 b8 09 15
        E 53 b8 09 15
        E 53 b8 09 16
        E 53 b8 09 16
        E 53 b8 09 17
        E 53 b8 09 17
        E 53 b8 09 17
        E 53 b8 09 18
        E 53 b8 09 18
        E 53 b8 09 18
        E 53 b8 09 18
        E 53 b8 09 18
        E 53 b8 09 19
        E 53 b8 09 19
        E 53 b8 09 19
        E 53 b8 09 19
        E 53 b8 09 19
        E 53 b8 09 19
        E 53 b8 09 19
        E 53 b8 09 19
        E 53 b8 09 19
        E 53 b8 09 19
        E 53 b8 09 19
        E 53 b8 09 18
        E 53 b8 09 18
        E 53 b8 09 18
        E 53 b8 09 18
        E 53 b8 09 17
        E 53 b8 09 17
        E 53 b8 09 17
        E 53 b8 09 16
        E 53 b8 09 16
        E 53 b8 09 16
        E 53 b8 09 15
        E 53 b8 09 15
        E 53 b8 09 14
        E 53 b8 09 14
        E 53 b8 09 13
        E 53 b8 09 13
        E 53 b8 09 12
        E 53 b8 09 11
        E 53 b8 09 11
        E 53 b8 09 10
        E 53 b8 09 10
        E 53 b8 09 0f
        E 53 b8 09 0e
        E 53 b8 09 0e
        E 53 b8 09 0d
        E 53 b8 09 0d
        E 53 b8 09 0c
        E 53 b8 09 0b
        E 53 b8 09 0b
        E 53 b8 09 0a
        E 53 b8 09 09
        E 53 b8 09 09
        E 53 b8 09 08
        E 53 b8 09 08
        E 53 b8 09 07
        E 53 b8 09 07
        E 53 b8 09 06
        E 53 b8 09 05
        E 53 b8 09 05
        E 53 b8 09 04
        E 53 b8 09 04
        E 53 b8 09 03
        E 53 b8 09 03
        E 53 b8 09 03
        E 53 b8 09 02
        E 53 b8 09 02
        E 53 b8 09 02
        E 53 b8 09 01
        E 53 b8 09 01
        E 53 b8 09 01
        E 53 b8 09 00
        E 53 b8 09 00
        E 53 b8 09 00
        E 53 b8 09 00
        E 53 b8 09 00
        E 53 b8 09 00
        E 53 b8 09 00
        E 53 b8 09 00
        E 53 b8 09 00
        E 53 b8 09 00
        E 53 b8 09 00
        E 53 b8 09 00
        E 53 b8 09 00
        E 53 b8 09 00
        E 53 b8 09 00
        E 53 b8 09 01
        E 53 b8 09 01
        E 53 b8 09 01
        E 53 b8 09 01
        E 53 b8 09 02
        E 53 b8 09 02
        E 53 b8 09 02
        E 53 b8 09 03
        E 53 b8 09 03
        E 53 b8 09 04
        E 53 b8 09 04
        E 53 b8 09 05
        E 53 b8 09 05
        E 53 b8 09 06
        E 53 b8 09 06
        E 53 b8 09 07
        E 53 b8 09 07
        E 53 b8 09 08
        E 53 b8 09 09
        E 53 b8 09 09
        E 53 b8 09 0a
        E 53 b8 09 0a
        E 53 b8 09 0b
        E 53 b8 09 0c
        E 53 b8 09 0c
        E 17 b8 09 06
        E 17 b8 09 06
        E 17 b8 09 07
        E 17 b8 09 07
        E 17 b8 09 07
        E 17 b8 09 07
        E 17 b8 09 08
        E 17 b8 09 08
        E 17 b8 09 08
        E 17 b8 09 09
        E 17 b8 09 09
        E 17 b8 09 09
        E 17 b8 09 09
        E 17 b8 09 0a
        E 17 b8 09 0a
        E 17 b8 09 0a
        E 17 b8 09 0a
        E 17 b8 09 0b
        E 17 b8 09 0b
        E 17 b8 09 0b
        E 17 b8 09 0b
        E 17 b8 09 0b
        E 17 b8 09 0c
        E 17 b8 09 0c
        E 17 b8 09 0c
        E 17 b8 09 0c
        E 17 b8 09 0c
        E 17 b8 09 0c
        E 17 b8 09 0c
        E 17 b8 09 0c
        E 17 b8 09 0c
        E 17 b8 09 0c
        E 17 b8 09 0c
        E 17 b8 09 0c
        E 17 b8 09 0c
        E 17 b8 09 0c
        E 17 b8 09 0c
        E 17 b8 09 0c
        E 17 b8 09 0c
        E 17 b8 09 0c
        E 17 b8 09 0c
        E 17 b8 09 0c
        E 17 b8 09 0b
        E 17 b8 09 0b
        E 17 b8 09 0b
        E 17 b8 09 0b
        E 17 b8 09 0b
        E 17 b8 09 0b
        E 17 b8 09 0a
        E 17 b8 09 0a
        E 17 b8 09 0a
        E 17 b8 09 0a
        E 17 b8 09 09
        E 17 b8 09 09
        E 17 b8 09 09
        E 17 b8 09 08
        E 17 b8 09 08
        E 17 b8 09 08
        E 17 b8 09 08
        E 17 b8 09 07
        E 17 b8 09 07
        E 17 b8 09 07
        E 17 b8 09 06
        E 17 b8 09 06
        E 17 b8 09 06
        E 17 b8 09 05
        E 17 b8 09 05
        E 17 b8 09 05
        E 17 b8 09 04
        E 17 b8 09 04
        E 17 b8 09 04
        E 17 b8 09 04
        E 17 b8 09 03
        E 17 b8 09 03
        E 17 b8 09 03
        E 17 b8 09 02
        E 17 b8 09 02
        E 17 b8 09 02
        E 17 b8 09 02
        E 17 b8 09 01
        E 17 b8 09 01
        E 17 b8 09 01
        E 17 b8 09 01
        E 17 b8 09 01
        E 17 b8 09 01
        E 17 b8 09 00
        E 17 b8 09 00
        E 17 b8 09 00
        E 17 b8 09 00
        E 17 b8 09 00
        E 17 b8 09 00
        E 17 b8 09 00
        E 17 b8 09 00
        E 17 b8 09 00
        E 17 b8 09 00
        E 17 b8 09 00
        E 17 b8 09 00
        E 17 b8 09 00
        E 17 b8 09 00
        E 17 b8 09 00
        E 17 b8 09 00
        E 17 b8 09 00
        E 17 b8 09 00
        E 17 b8 09 00
        E 17 b8 09 00
        E 17 b8 09 00
        E 17 b8 09 00
        E 17 b8 09 01
        E 17 b8 09 01
        E 17 b8 09 01
        E 17 b8 09 01
        E 17 b8 09 01
        E 17 b8 09 02
        E 17 b8 09 02
        E 17 b8 09 02
        E 17 b8 09 02
        E 17 b8 09 03
        E 17 b8 09 03
        E 17 b8 09 03
        E 17 b8 09 03
        E 17 b8 09 04
        E 17 b8 09 04
        E 17 b8 09 04
        E 17 b8 09 05
        E 17 b8 09 05
        E 17 b8 09 05
        E 17 b8 09 06
        E 17 b8 09 06
        E 62 b8 09 20
        E 62 b8 09 21
        E 62 b8 09 23
        E 62 b8 09 24
        E 62 b8 09 26
        E 62 b8 09 27
        E 62 b8 09 29
        E 62 b8 09 2a
        E 62 b8 09 2c
        E 62 b8 09 2d
        E 62 b8 09 2f
        E 62 b8 09 30
        E 62 b8 09 31
        E 62 b8 09 33
        E 62 b8 09 34
        E 62 b8 09 35
        E 62 b8 09 36
        E 62 b8 09 37
        E 62 b8 09 38
        E 62 b8 09 39
        E 62 b8 09 3a
        E 62 b8 09 3b
        E 62 b8 09 3c
        E 62 b8 09 3c
        E 62 b8 09 3d
        E 62 b8 09 3d
        E 62 b8 09 3e
        E 62 b8 09 3e
        E 62 b8 09 3f
        E 62 b8 09 3f
        E 62 b8 09 3f
        E 62 b8 09 3f
        E 62 b8 09 3f
        E 62 b8 09 3f
        E 62 b8 09 3f
        E 62 b8 09 3f
        E 62 b8 09 3f
        E 62 b8 09 3e
        E 62 b8 09 3e
        E 62 b8 09 3d
        E 62 b8 09 3d
        E 62 b8 09 3c
        E 62 b8 09 3b
        E 62 b8 09 3a
        E 62 b8 09 3a
        E 62 b8 09 39
        E 62 b8 09 38
        E 62 b8 09 37
        E 62 b8 09 36
        E 62 b8 09 34
        E 62 b8 09 33
        E 62 b8 09 32
        E 62 b8 09 31
        E 62 b8 09 2f
        E 62 b8 09 2e
        E 62 b8 09 2c
        E 62 b8 09 2b
        E 62 b8 09 2a
        E 62 b8 09 28
        E 62 b8 09 27
        E 62 b8 09 25
        E 62 b8 09 23
        E 62 b8 09 22
        E 62 b8 09 20
        E 62 b8 09 1f
        E 62 b8 09 1d
        E 62 b8 09 1c
        E 62 b8 09 1a
        E 62 b8 09 18
        E 62 b8 09 17
        E 62 b8 09 15
        E 62 b8 09 14
        E 62 b8 09 13
        E 62 b8 09 11
        E 62 b8 09 10
        E 62 b8 09 0e
        E 62 b8 09 0d
        E 62 b8 09 0c
        E 62 b8 09 0b
        E 62 b8 09 09
        E 62 b8 09 08
        E 62 b8 09 07
        E 62 b8 09 06
        E 62 b8 09 05
        E 62 b8 09 05
        E 62 b8 09 04
        E 62 b8 09 03
        E 62 b8 09 02
        E 62 b8 09 02
        E 62 b8 09 01
        E 62 b8 09 01
        E 62 b8 09 00
        E 62 b8 09 00
        E 62 b8 09 00
        E 62 b8 09 00
        E 62 b8 09 00
        E 62 b8 09 00
        E 62 b8 09 00
        E 62 b8 09 00
        E 62 b8 09 00
        E 62 b8 09 01
        E 62 b8 09 01
        E 62 b8 09 02
        E 62 b8 09 02
        E 62 b8 09 03
        E 62 b8 09 03
        E 62 b8 09 04
        E 62 b8 09 05
        E 62 b8 09 06
        E 62 b8 09 07
        E 62 b8 09 08
        E 62 b8 09 09
        E 62 b8 09 0a
        E 62 b8 09 0b
        E 62 b8 09 0c
        E 62 b8 09 0e
        E 62 b8 09 0f
        E 62 b8 09 10
        E 62 b8 09 12
        E 62 b8 09 13
        E 62 b8 09 15
        E 62 b8 09 16
        E 62 b8 09 18
        E 62 b8 09 19
        E 62 b8 09 1b
        E 62 b8 09 1c
        E 62 b8 09 1e
        E 62 b8 09 20
        E 35 b8 09 19
        E 35 b8 09 1a
        E 35 b8 09 1c
        E 35 b8 09 1d
        E 35 b8 09 1e
        E 35 b8 09 1f
        E 35 b8 09 20
        E 35 b8 09 22
        E 35 b8 09 23
        E 35 b8 09 24
        E 35 b8 09 25
        E 35 b8 09 26
        E 35 b8 09 27
        E 35 b8 09 28
        E 35 b8 09 29
        E 35 b8 09 2a
        E 35 b8 09 2b
        E 35 b8 09 2c
        E 35 b8 09 2d
        E 35 b8 09 2e
        E 35 b8 09 2e
        E 35 b8 09 2f
        E 35 b8 09 30
        E 35 b8 09 30
        E 35 b8 09 30
        E 35 b8 09 31
        E 35 b8 09 31
        E 35 b8 09 32
        E 35 b8 09 32
        E 35 b8 09 32
        E 35 b8 09 32
        E 35 b8 09 32
        E 35 b8 09 32
        E 35 b8 09 32
        E 35 b8 09 32
        E 35 b8 09 32
        E 35 b8 09 32
        E 35 b8 09 32
        E 35 b8 09 31
        E 35 b8 09 31
        E 35 b8 09 30
        E 35 b8 09 30
        E 35 b8 09 2f
        E 35 b8 09 2e
        E 35 b8 09 2e
        E 35 b8 09 2d
        E 35 b8 09 2c
        E 35 b8 09 2c
        E 35 b8 09 2b
        E 35 b8 09 2a
        E 35 b8 09 29
        E 35 b8 09 28
        E 35 b8 09 27
        E 35 b8 09 26
        E 35 b8 09 24
        E 35 b8 09 23
        E 35 b8 09 22
        E 35 b8 09 21
        E 35 b8 09 20
        E 35 b8 09 1f
        E 35 b8 09 1d
        E 35 b8 09 1c
        E 35 b8 09 1b
        E 35 b8 09 1a
        E 35 b8 09 18
        E 35 b8 09 17
        E 35 b8 09 16
        E 35 b8 09 15
        E 35 b8 09 13
        E 35 b8 09 12
        E 35 b8 09 11
        E 35 b8 09 10
        E 35 b8 09 0f
        E 35 b8 09 0e
        E 35 b8 09 0c
        E 35 b8 09 0b
        E 35 b8 09 0a
        E 35 b8 09 09
        E 35 b8 09 08
        E 35 b8 09 07
        E 35 b8 09 06
        E 35 b8 09 06
        E 35 b8 09 05
        E 35 b8 09 04
        E 35 b8 09 04
        E 35 b8 09 03
        E 35 b8 09 02
        E 35 b8 09 02
        E 35 b8 09 01
        E 35 b8 09 01
        E 35 b8 09 00
        E 35 b8 09 00
        E 35 b8 09 00
        E 35 b8 09 00
        E 35 b8 09 00
        E 35 b8 09 00
        E 35 b8 09 00
        E 35 b8 09 00
        E 35 b8 09 00
        E 35 b8 09 00
        E 35 b8 09 00
        E 35 b8 09 01
        E 35 b8 09 01
        E 35 b8 09 02
        E 35 b8 09 02
        E 35 b8 09 02
        E 35 b8 09 03
        E 35 b8 09 04
        E 35 b8 09 04
        E 35 b8 09 05
        E 35 b8 09 06
        E 35 b8 09 07
        E 35 b8 09 08
        E 35 b8 09 09
        E 35 b8 09 0a
        E 35 b8 09 0b
        E 35 b8 09 0c
        E 35 b8 09 0d
        E 35 b8 09 0e
        E 35 b8 09 0f
        E 35 b8 09 10
        E 35 b8 09 12
        E 35 b8 09 13
        E 35 b8 09 14
        E 35 b8 09 15
        E 35 b8 09 16
        E 35 b8 09 18
        E 35 b8 09 19
        E 89 b8 09 06
        E 89 b8 09 06
        E 89 b8 09 07
        E 89 b8 09 07
        E 89 b8 09 07
        E 89 b8 09 07
        E 89 b8 09 08
        E 89 b8 09 08
        E 89 b8 09 08
        E 89 b8 09 09
        E 89 b8 09 09
        E 89 b8 09 09
        E 89 b8 09 09
        E 89 b8 09 0a
        E 89 b8 09 0a
        E 89 b8 09 0a
        E 89 b8 09 0a
        E 89 b8 09 0b
        E 89 b8 09 0b
        E 89 b8 09 0b
        E 89 b8 09 0b
        E 89 b8 09 0b
        E 89 b8 09 0c
        E 89 b8 09 0c
        E 89 b8 09 0c
        E 89 b8 09 0c
        E 89 b8 09 0c
        E 89 b8 09 0c
        E 89 b8 09 0c
        E 89 b8 09 0c
        E 89 b8 09 0c
        E 89 b8 09 0c
        E 89 b8 09 0c
        E 89 b8 09 0c
        E 89 b8 09 0c
        E 89 b8 09 0c
        E 89 b8 09 0c
        E 89 b8 09 0c
        E 89 b8 09 0c
        E 89 b8 09 0c
        E 89 b8 09 0c
        E 89 b8 09 0c
        E 89 b8 09 0b
        E 89 b8 09 0b
        E 89 b8 09 0b
        E 89 b8 09 0b
        E 89 b8 09 0b
        E 89 b8 09 0b
        E 89 b8 09 0a
        E 89 b8 09 0a
        E 89 b8 09 0a
        E 89 b8 09 0a
        E 89 b8 09 09
        E 89 b8 09 09
        E 89 b8 09 09
        E 89 b8 09 08
        E 89 b8 09 08
        E 89 b8 09 08
        E 89 b8 09 08
        E 89 b8 09 07
        E 89 b8 09 07
        E 89 b8 09 07
        E 89 b8 09 06
        E 89 b8 09 06
        E 89 b8 09 06
        E 89 b8 09 05
        E 89 b8 09 05
        E 89 b8 09 05
        E 89 b8 09 04
        E 89 b8 09 04
        E 89 b8 09 04
        E 89 b8 09 04
        E 89 b8 09 03
        E 89 b8 09 03
        E 89 b8 09 03
        E 89 b8 09 02
        E 89 b8 09 02
        E 89 b8 09 02
        E 89 b8 09 02
        E 89 b8 09 01
        E 89 b8 09 01
        E 89 b8 09 01
        E 89 b8 09 01
        E 89 b8 09 01
        E 89 b8 09 01
        E 89 b8 09 00
        E 89 b8 09 00
        E 89 b8 09 00
        E 89 b8 09 00
        E 89 b8 09 00
        E 89 b8 09 00
        E 89 b8 09 00
        E 89 b8 09 00
        E 89 b8 09 00
        E 89 b8 09 00
        E 89 b8 09 00
        E 89 b8 09 00
        E 89 b8 09 00
        E 89 b8 09 00
        E 89 b8 09 00
        E 89 b8 09 00
        E 89 b8 09 00
        E 89 b8 09 00
        E 89 b8 09 00
        E 89 b8 09 00
        E 89 b8 09 00
        E 89 b8 09 00
        E 89 b8 09 01
        E 89 b8 09 01
        E 89 b8 09 01
        E 89 b8 09 01
        E 89 b8 09 01
        E 89 b8 09 02
        E 89 b8 09 02
        E 89 b8 09 02
        E 89 b8 09 02
        E 89 b8 09 03
        E 89 b8 09 03
        E 89 b8 09 03
        E 89 b8 09 03
        E 89 b8 09 04
        E 89 b8 09 04
        E 89 b8 09 04
        E 89 b8 09 05
        E 89 b8 09 05
        E 89 b8 09 05
        E 89 b8 09 06
        E 89 b8 09 06
        E 80 b8 09 39
        E 80 b8 09 3c
        E 80 b8 09 3f
        E 80 b8 09 41
        E 80 b8 09 44
        E 80 b8 09 47
        E 80 b8 09 49
        E 80 b8 09 4c
        E 80 b8 09 4f
        E 80 b8 09 51
        E 80 b8 09 54
        E 80 b8 09 56
        E 80 b8 09 59
        E 80 b8 09 5b
        E 80 b8 09 5d
        E 80 b8 09 5f
        E 80 b8 09 62
        E 80 b8 09 63
        E 80 b8 09 65
        E 80 b8 09 67
        E 80 b8 09 69
        E 80 b8 09 6a
        E 80 b8 09 6c
        E 80 b8 09 6c
        E 80 b8 09 6d
        E 80 b8 09 6e
        E 80 b8 09 6f
        E 80 b8 09 70
        E 80 b8 09 71
        E 80 b8 09 71
        E 80 b8 09 72
        E 80 b8 09 72
        E 80 b8 09 72
        E 80 b8 09 72
        E 80 b8 09 72
        E 80 b8 09 71
        E 80 b8 09 71
        E 80 b8 09 70
        E 80 b8 09 6f
        E 80 b8 09 6e
        E 80 b8 09 6d
        E 80 b8 09 6c
        E 80 b8 09 6b
        E 80 b8 09 69
        E 80 b8 09 68
        E 80 b8 09 66
        E 80 b8 09 64
        E 80 b8 09 63
        E 80 b8 09 61
        E 80 b8 09 5e
        E 80 b8 09 5c
        E 80 b8 09 5a
        E 80 b8 09 58
        E 80 b8 09 55
        E 80 b8 09 52
        E 80 b8 09 50
        E 80 b8 09 4e
        E 80 b8 09 4b
        E 80 b8 09 48
        E 80 b8 09 46
        E 80 b8 09 42
        E 80 b8 09 3f
        E 80 b8 09 3d
        E 80 b8 09 3a
        E 80 b8 09 37
        E 80 b8 09 35
        E 80 b8 09 32
        E 80 b8 09 2f
        E 80 b8 09 2c
        E 80 b8 09 29
        E 80 b8 09 26
        E 80 b8 09 24
        E 80 b8 09 22
        E 80 b8 09 1f
        E 80 b8 09 1c
        E 80 b8 09 1a
        E 80 b8 09 18
        E 80 b8 09 15
        E 80 b8 09 13
        E 80 b8 09 11
        E 80 b8 09 0f
        E 80 b8 09 0d
        E 80 b8 09 0b
        E 80 b8 09 09
        E 80 b8 09 09
        E 80 b8 09 07
        E 80 b8 09 06
        E 80 b8 09 04
        E 80 b8 09 03
        E 80 b8 09 02
        E 80 b8 09 01
        E 80 b8 09 00
        E 80 b8 09 00
        E 80 b8 09 00
        E 80 b8 09 00
        E 80 b8 09 00
        E 80 b8 09 00
        E 80 b8 09 00
        E 80 b8 09 00
        E 80 b8 09 00
        E 80 b8 09 01
        E 80 b8 09 02
        E 80 b8 09 03
        E 80 b8 09 04
        E 80 b8 09 05
        E 80 b8 09 06
        E 80 b8 09 08
        E 80 b8 09 09
        E 80 b8 09 0a
        E 80 b8 09 0c
        E 80 b8 09 0e
        E 80 b8 09 10
        E 80 b8 09 12
        E 80 b8 09 14
        E 80 b8 09 16
        E 80 b8 09 19
        E 80 b8 09 1b
        E 80 b8 09 1d
        E 80 b8 09 20
        E 80 b8 09 23
        E 80 b8 09 25
        E 80 b8 09 28
        E 80 b8 09 2b
        E 80 b8 09 2d
        E 80 b8 09 30
        E 80 b8 09 33
        E 80 b8 09 36
        E 80 b8 09 39
        E 53 b8 09 0c
        E 53 b8 09 0d
        E 53 b8 09 0e
        E 53 b8 09 0e
        E 53 b8 09 0f
        E 53 b8 09 0f
        E 53 b8 09 10
        E 53 b8 09 11
        E 53 b8 09 11
        E 53 b8 09 12
        E 53 b8 09 12
        E 53 b8 09 13
        E 53 b8 09 13
        E 53 b8 09 14
        E 53 b8 09 14
        E 53 b8 09 15
        E 53 b8 09 15
        E 53 b8 09 16
        E 53 b8 09 16
        E 53 b8 09 17
        E 53 b8 09 17
        E 53 b8 09 17
        E 53 b8 09 18
        E 53 b8 09 18
        E 53 b8 09 18
        E 53 b8 09 18
        E 53 b8 09 18
        E 53 b8 09 19
        E 53 b8 09 19
        E 53 b8 09 19
        E 53 b8 09 19
        E 53 b8 09 19
        E 53 b8 09 19
        E 53 b8 09 19
        E 53 b8 09 19
        E 53 b8 09 19
        E 53 b8 09 19
        E 53 b8 09 19
        E 53 b8 09 18
        E 53 b8 09 18
        E 53 b8 09 18
        E 53 b8 09 18
        E 53 b8 09 17
        E 53 b8 09 17
        E 53 b8 09 17
        E 53 b8 09 16
        E 53 b8 09 16
        E 53 b8 09 16
        E 53 b8 09 15
        E 53 b8 09 15
        E 53 b8 09 14
        E 53 b8 09 14
        E 53 b8 09 13
        E 53 b8 09 13
        E 53 b8 09 12
        E 53 b8 09 11
        E 53 b8 09 11
        E 53 b8 09 10
        E 53 b8 09 10
        E 53 b8 09 0f
        E 53 b8 09 0e
        E 53 b8 09 0e
        E 53 b8 09 0d
        E 53 b8 09 0d
        E 53 b8 09 0c
        E 53 b8 09 0b
        E 53 b8 09 0b
        E 53 b8 09 0a
        E 53 b8 09 09
        E 53 b8 09 09
        E 53 b8 09 08
        E 53 b8 09 08
        E 53 b8 09 07
        E 53 b8 09 07
        E 53 b8 09 06
        E 53 b8 09 05
        E 53 b8 09 05
        E 53 b8 09 04
        E 53 b8 09 04
        E 53 b8 09 03
        E 53 b8 09 03
        E 53 b8 09 03
        E 53 b8 09 02
        E 53 b8 09 02
        E 53 b8 09 02
        E 53 b8 09 01
        E 53 b8 09 01
        E 53 b8 09 01
        E 53 b8 09 00
        E 53 b8 09 00
        E 53 b8 09 00
        E 53 b8 09 00
        E 53 b8 09 00
        E 53 b8 09 00
        E 53 b8 09 00
        E 53 b8 09 00
        E 53 b8 09 00
        E 53 b8 09 00
        E 53 b8 09 00
        E 53 b8 09 00
        E 53 b8 09 00
        E 53 b8 09 00
        E 53 b8 09 00
        E 53 b8 09 01
        E 53 b8 09 01
        E 53 b8 09 01
        E 53 b8 09 01
        E 53 b8 09 02
        E 53 b8 09 02
        E 53 b8 09 02
        E 53 b8 09 03
        E 53 b8 09 03
        E 53 b8 09 04
        E 53 b8 09 04
        E 53 b8 09 05
        E 53 b8 09 05
        E 53 b8 09 06
        E 53 b8 09 06
        E 53 b8 09 07
        E 53 b8 09 07
        E 53 b8 09 08
        E 53 b8 09 09
        E 53 b8 09 09
        E 53 b8 09 0a
        E 53 b8 09 0a
        E 53 b8 09 0b
        E 53 b8 09 0c
        E 53 b8 09 0c
        E 17 b8 09 06
        E 17 b8 09 06
        E 17 b8 09 07
        E 17 b8 09 07
        E 17 b8 09 07
        E 17 b8 09 07
        E 17 b8 09 08
        E 17 b8 09 08
        E 17 b8 09 08
        E 17 b8 09 09
        E 17 b8 09 09
        E 17 b8 09 09
        E 17 b8 09 09
        E 17 b8 09 0a
        E 17 b8 09 0a
        E 17 b8 09 0a
        E 17 b8 09 0a
        E 17 b8 09 0b
        E 17 b8 09 0b
        E 17 b8 09 0b
        E 17 b8 09 0b
        E 17 b8 09 0b
        E 17 b8 09 0c
        E 17 b8 09 0c
        E 17 b8 09 0c
        E 17 b8 09 0c
        E 17 b8 09 0c
        E 17 b8 09 0c
        E 17 b8 09 0c
        E 17 b8 09 0c
        E 17 b8 09 0c
        E 17 b8 09 0c
        E 17 b8 09 0c
        E 17 b8 09 0c
        E 17 b8 09 0c
        E 17 b8 09 0c
        E 17 b8 09 0c
        E 17 b8 09 0c
        E 17 b8 09 0c
        E 17 b8 09 0c
        E 17 b8 09 0c
        E 17 b8 09 0c
        E 17 b8 09 0b
        E 17 b8 09 0b
        E 17 b8 09 0b
        E 17 b8 09 0b
        E 17 b8 09 0b
        E 17 b8 09 0b
        E 17 b8 09 0a
        E 17 b8 09 0a
        E 17 b8 09 0a
        E 17 b8 09 0a
        E 17 b8 09 09
        E 17 b8 09 09
        E 17 b8 09 09
        E 17 b8 09 08
        E 17 b8 09 08
        E 17 b8 09 08
        E 17 b8 09 08
        E 17 b8 09 07
        E 17 b8 09 07
        E 17 b8 09 07
        E 17 b8 09 06
        E 17 b8 09 06
        E 17 b8 09 06
        E 17 b8 09 05
        E 17 b8 09 05
        E 17 b8 09 05
        E 17 b8 09 04
        E 17 b8 09 04
        E 17 b8 09 04
        E 17 b8 09 04
        E 17 b8 09 03
        E 17 b8 09 03
        E 17 b8 09 03
        E 17 b8 09 02
        E 17 b8 09 02
        E 17 b8 09 02
        E 17 b8 09 02
        E 17 b8 09 01
        E 17 b8 09 01
        E 17 b8 09 01
        E 17 b8 09 01
        E 17 b8 09 01
        E 17 b8 09 01
        E 17 b8 09 00
        E 17 b8 09 00
        E 17 b8 09 00
        E 17 b8 09 00
        E 17 b8 09 00
        E 17 b8 09 00
        E 17 b8 09 00
        E 17 b8 09 00
        E 17 b8 09 00
        E 17 b8 09 00
        E 17 b8 09 00
        E 17 b8 09 00
        E 17 b8 09 00
        E 17 b8 09 00
        E 17 b8 09 00
        E 17 b8 09 00
        E 17 b8 09 00
        E 17 b8 09 00
        E 17 b8 09 00
        E 17 b8 09 00
        E 17 b8 09 00
        E 17 b8 09 00
        E 17 b8 09 01
        E 17 b8 09 01
        E 17 b8 09 01
        E 17 b8 09 01
        E 17 b8 09 01
        E 17 b8 09 02
        E 17 b8 09 02
        E 17 b8 09 02
        E 17 b8 09 02
        E 17 b8 09 03
        E 17 b8 09 03
        E 17 b8 09 03
        E 17 b8 09 03
        E 17 b8 09 04
        E 17 b8 09 04
        E 17 b8 09 04
        E 17 b8 09 05
        E 17 b8 09 05
        E 17 b8 09 05
        E 17 b8 09 06
        E 17 b8 09 06
        E 62 b8 09 20
        E 62 b8 09 21
        E 62 b8 09 23
        E 62 b8 09 24
        E 62 b8 09 26
        E 62 b8 09 27
        E 62 b8 09 29
        E 62 b8 09 2a
        E 62 b8 09 2c
        E 62 b8 09 2d
        E 62 b8 09 2f
        E 62 b8 09 30
        E 62 b8 09 31
        E 62 b8 09 33
        E 62 b8 09 34
        E 62 b8 09 35
        E 62 b8 09 36
        E 62 b8 09 37
        E 62 b8 09 38
        E 62 b8 09 39
        E 62 b8 09 3a
        E 62 b8 09 3b
        E 62 b8 09 3c
        E 62 b8 09 3c
        E 62 b8 09 3d
        E 62 b8 09 3d
        E 62 b8 09 3e
        E 62 b8 09 3e
        E 62 b8 09 3f
        E 62 b8 09 3f
        E 62 b8 09 3f
        E 62 b8 09 3f
        E 62 b8 09 3f
        E 62 b8 09 3f
        E 62 b8 09 3f
        E 62 b8 09 3f
        E 62 b8 09 3f
        E 62 b8 09 3e
        E 62 b8 09 3e
        E 62 b8 09 3d
        E 62 b8 09 3d
        E 62 b8 09 3c
        E 62 b8 09 3b
        E 62 b8 09 3a
        E 62 b8 09 3a
        E 62 b8 09 39
        E 62 b8 09 38
        E 62 b8 09 37
        E 62 b8 09 36
        E 62 b8 09 34
        E 62 b8 09 33
        E 62 b8 09 32
        E 62 b8 09 31
        E 62 b8 09 2f
        E 62 b8 09 2e
        E 62 b8 09 2c
        E 62 b8 09 2b
        E 62 b8 09 2a
        E 62 b8 09 28
        E 62 b8 09 27
        E 62 b8 09 25
        E 62 b8 09 23
        E 62 b8 09 22
        E 62 b8 09 20
        E 62 b8 09 1f
        E 62 b8 09 1d
        E 62 b8 09 1c
        E 62 b8 09 1a
        E 62 b8 09 18
        E 62 b8 09 17
        E 62 b8 09 15
        E 62 b8 09 14
        E 62 b8 09 13
        E 62 b8 09 11
        E 62 b8 09 10
        E 62 b8 09 0e
        E 62 b8 09 0d
        E 62 b8 09 0c
        E 62 b8 09 0b
        E 62 b8 09 09
        E 62 b8 09 08
        E 62 b8 09 07
        E 62 b8 09 06
        E 62 b8 09 05
        E 62 b8 09 05
        E 62 b8 09 04
        E 62 b8 09 03
        E 62 b8 09 02
        E 62 b8 09 02
        E 62 b8 09 01
        E 62 b8 09 01
        E 62 b8 09 00
        E 62 b8 09 00
        E 62 b8 09 00
        E 62 b8 09 00
        E 62 b8 09 00
        E 62 b8 09 00
        E 62 b8 09 00
        E 62 b8 09 00
        E 62 b8 09 00
        E 62 b8 09 01
        E 62 b8 09 01
        E 62 b8 09 02
        E 62 b8 09 02
        E 62 b8 09 03
        E 62 b8 09 03
        E 62 b8 09 04
        E 62 b8 09 05
        E 62 b8 09 06
        E 62 b8 09 07
        E 62 b8 09 08
        E 62 b8 09 09
        E 62 b8 09 0a
        E 62 b8 09 0b
        E 62 b8 09 0c
        E 62 b8 09 0e
        E 62 b8 09 0f
        E 62 b8 09 10
        E 62 b8 09 12
        E 62 b8 09 13
        E 62 b8 09 15
        E 62 b8 09 16
        E 62 b8 09 18
        E 62 b8 09 19
        E 62 b8 09 1b
        E 62 b8 09 1c
        E 62 b8 09 1e
        E 62 b8 09 20
        E 35 b8 09 19
        E 35 b8 09 1a
        E 35 b8 09 1c
        E 35 b8 09 1d
        E 35 b8 09 1e
        E 35 b8 09 1f
        E 35 b8 09 20
        E 35 b8 09 22
        E 35 b8 09 23
        E 35 b8 09 24
        E 35 b8 09 25
        E 35 b8 09 26
        E 35 b8 09 27
        E 35 b8 09 28
        E 35 b8 09 29
        E 35 b8 09 2a
        E 35 b8 09 2b
        E 35 b8 09 2c
        E 35 b8 09 2d
        E 35 b8 09 2e
        E 35 b8 09 2e
        E 35 b8 09 2f
        E 35 b8 09 30
        E 35 b8 09 30
        E 35 b8 09 30
        E 35 b8 09 31
        E 35 b8 09 31
        E 35 b8 09 32
        E 35 b8 09 32
        E 35 b8 09 32
        E 35 b8 09 32
        E 35 b8 09 32
        E 35 b8 09 32
        E 35 b8 09 32
        E 35 b8 09 32
        E 35 b8 09 32
        E 35 b8 09 32
        E 35 b8 09 32
        E 35 b8 09 31
        E 35 b8 09 31
        E 35 b8 09 30
        E 35 b8 09 30
        E 35 b8 09 2f
        E 35 b8 09 2e
        E 35 b8 09 2e
        E 35 b8 09 2d
        E 35 b8 09 2c
        E 35 b8 09 2c
        E 35 b8 09 2b
        E 35 b8 09 2a
        E 35 b8 09 29
        E 35 b8 09 28
        E 35 b8 09 27
        E 35 b8 09 26
        E 35 b8 09 24
        E 35 b8 09 23
        E 35 b8 09 22
        E 35 b8 09 21
        E 35 b8 09 20
        E 35 b8 09 1f
        E 35 b8 09 1d
        E 35 b8 09 1c
        E 35 b8 09 1b
        E 35 b8 09 1a
        E 35 b8 09 18
        E 35 b8 09 17
        E 35 b8 09 16
        E 35 b8 09 15
        E 35 b8 09 13
        E 35 b8 09 12
        E 35 b8 09 11
        E 35 b8 09 10
        E 35 b8 09 0f
        E 35 b8 09 0e
        E 35 b8 09 0c
        E 35 b8 09 0b
        E 35 b8 09 0a
        E 35 b8 09 09
        E 35 b8 09 08
        E 35 b8 09 07
        E 35 b8 09 06
        E 35 b8 09 06
        E 35 b8 09 05
        E 35 b8 09 04
        E 35 b8 09 04
        E 35 b8 09 03
        E 35 b8 09 02
        E 35 b8 09 02
        E 35 b8 09 01
        E 35 b8 09 01
        E 35 b8 09 00
        E 35 b8 09 00
        E 35 b8 09 00
        E 35 b8 09 00
        E 35 b8 09 00
        E 35 b8 09 00
        E 35 b8 09 00
        E 35 b8 09 00
        E 35 b8 09 00
        E 35 b8 09 00
        E 35 b8 09 00
        E 35 b8 09 01
        E 35 b8 09 01
        E 35 b8 09 02
        E 35 b8 09 02
        E 35 b8 09 02
        E 35 b8 09 03
        E 35 b8 09 04
        E 35 b8 09 04
        E 35 b8 09 05
        E 35 b8 09 06
        E 35 b8 09 07
        E 35 b8 09 08
        E 35 b8 09 09
        E 35 b8 09 0a
        E 35 b8 09 0b
        E 35 b8 09 0c
        E 35 b8 09 0d
        E 35 b8 09 0e
        E 35 b8 09 0f
        E 35 b8 09 10
        E 35 b8 09 12
        E 35 b8 09 13
        E 35 b8 09 14
        E 35 b8 09 15
        E 35 b8 09 16
        E 35 b8 09 18
        E 35 b8 09 19
        E 89 b8 09 06
        E 89 b8 09 06
        E 89 b8 09 07
        E 89 b8 09 07
        E 89 b8 09 07
        E 89 b8 09 07
        E 89 b8 09 08
        E 89 b8 09 08
        E 89 b8 09 08
        E 89 b8 09 09
        E 89 b8 09 09
        E 89 b8 09 09
        E 89 b8 09 09
        E 89 b8 09 0a
        E 89 b8 09 0a
        E 89 b8 09 0a
        E 89 b8 09 0a
        E 89 b8 09 0b
        E 89 b8 09 0b
        E 89 b8 09 0b
        E 89 b8 09 0b
        E 89 b8 09 0b
        E 89 b8 09 0c
        E 89 b8 09 0c
        E 89 b8 09 0c
        E 89 b8 09 0c
        E 89 b8 09 0c
        E 89 b8 09 0c
        E 89 b8 09 0c
        E 89 b8 09 0c
        E 89 b8 09 0c
        E 89 b8 09 0c
        E 89 b8 09 0c
        E 89 b8 09 0c
        E 89 b8 09 0c
        E 89 b8 09 0c
        E 89 b8 09 0c
        E 89 b8 09 0c
        E 89 b8 09 0c
        E 89 b8 09 0c
        E 89 b8 09 0c
        E 89 b8 09 0c
        E 89 b8 09 0b
        E 89 b8 09 0b
        E 89 b8 09 0b
        E 89 b8 09 0b
        E 89 b8 09 0b
        E 89 b8 09 0b
        E 89 b8 09 0a
        E 89 b8 09 0a
        E 89 b8 09 0a
        E 89 b8 09 0a
        E 89 b8 09 09
        E 89 b8 09 09
        E 89 b8 09 09
        E 89 b8 09 08
        E 89 b8 09 08
        E 89 b8 09 08
        E 89 b8 09 08
        E 89 b8 09 07
        E 89 b8 09 07
        E 89 b8 09 07
        E 89 b8 09 06
        E 89 b8 09 06
        E 89 b8 09 06
        E 89 b8 09 05
        E 89 b8 09 05
        E 89 b8 09 05
        E 89 b8 09 04
        E 89 b8 09 04
        E 89 b8 09 04
        E 89 b8 09 04
        E 89 b8 09 03
        E 89 b8 09 03
        E 89 b8 09 03
        E 89 b8 09 02
        E 89 b8 09 02
        E 89 b8 09 02
        E 89 b8 09 02
        E 89 b8 09 01
        E 89 b8 09 01
        E 89 b8 09 01
        E 89 b8 09 01
        E 89 b8 09 01
        E 89 b8 09 01
        E 89 b8 09 00
        E 89 b8 09 00
        E 89 b8 09 00
        E 89 b8 09 00
        E 89 b8 09 00
        E 89 b8 09 00
        E 89 b8 09 00
        E 89 b8 09 00
        E 89 b8 09 00
        E 89 b8 09 00
        E 89 b8 09 00
        E 89 b8 09 00
        E 89 b8 09 00
        E 89 b8 09 00
        E 89 b8 09 00
        E 89 b8 09 00
        E 89 b8 09 00
        E 89 b8 09 00
        E 89 b8 09 00
        E 89 b8 09 00
        E 89 b8 09 00
        E 89 b8 09 00
        E 89 b8 09 01
        E 89 b8 09 01
        E 89 b8 09 01
        E 89 b8 09 01
        E 89 b8 09 01
        E 89 b8 09 02
        E 89 b8 09 02
        E 89 b8 09 02
        E 89 b8 09 02
        E 89 b8 09 03
        E 89 b8 09 03
        E 89 b8 09 03
        E 89 b8 09 03
        E 89 b8 09 04
        E 89 b8 09 04
        E 89 b8 09 04
        E 89 b8 09 05
        E 89 b8 09 05
        E 89 b8 09 05
        E 89 b8 09 06
        E 89 b8 09 06
        E 80 b8 09 39
        E 80 b8 09 3c
        E 80 b8 09 3f
        E 80 b8 09 41
        E 80 b8 09 44
        E 80 b8 09 47
        E 80 b8 09 49
        E 80 b8 09 4c
        E 80 b8 09 4f
        E 80 b8 09 51
        E 80 b8 09 54
        E 80 b8 09 56
        E 80 b8 09 59
        E 80 b8 09 5b
        E 80 b8 09 5d
        E 80 b8 09 5f
        E 80 b8 09 62
        E 80 b8 09 63
        E 80 b8 09 65
        E 80 b8 09 67
        E 80 b8 09 69
        E 80 b8 09 6a
        E 80 b8 09 6c
        E 80 b8 09 6c
        E 80 b8 09 6d
        E 80 b8 09 6e
        E 80 b8 09 6f
        E 80 b8 09 70
        E 80 b8 09 71
        E 80 b8 09 71
        E 80 b8 09 72
        E 80 b8 09 72
        E 80 b8 09 72
        E 80 b8 09 72
        E 80 b8 09 72
        E 80 b8 09 71
        E 80 b8 09 71
        E 80 b8 09 70
        E 80 b8 09 6f
        E 80 b8 09 6e
        E 80 b8 09 6d
        E 80 b8 09 6c
        E 80 b8 09 6b
        E 80 b8 09 69
        E 80 b8 09 68
        E 80 b8 09 66
        E 80 b8 09 64
        E 80 b8 09 63
        E 80 b8 09 61
        E 80 b8 09 5e
        E 80 b8 09 5c
        E 80 b8 09 5a
        E 80 b8 09 58
        E 80 b8 09 55
        E 80 b8 09 52
        E 80 b8 09 50
        E 80 b8 09 4e
        E 80 b8 09 4b
        E 80 b8 09 48
        E 80 b8 09 46
        E 80 b8 09 42
        E 80 b8 09 3f
        E 80 b8 09 3d
        E 80 b8 09 3a
        E 80 b8 09 37
        E 80 b8 09 35
        E 80 b8 09 32
        E 80 b8 09 2f
        E 80 b8 09 2c
        E 80 b8 09 29
        E 80 b8 09 26
        E 80 b8 09 24
        E 80 b8 09 22
        E 80 b8 09 1f
        E 80 b8 09 1c
        E 80 b8 09 1a
        E 80 b8 09 18
        E 80 b8 09 15
        E 80 b8 09 13
        E 80 b8 09 11
        E 80 b8 09 0f
        E 80 b8 09 0d
        E 80 b8 09 0b
        E 80 b8 09 09
        E 80 b8 09 09
        E 80 b8 09 07
        E 80 b8 09 06
        E 80 b8 09 04
        E 80 b8 09 03
        E 80 b8 09 02
        E 80 b8 09 01
        E 80 b8 09 00
        E 80 b8 09 00
        E 80 b8 09 00
        E 80 b8 09 00
        E 80 b8 09 00
        E 80 b8 09 00
        E 80 b8 09 00
        E 80 b8 09 00
        E 80 b8 09 00
        E 80 b8 09 01
        E 80 b8 09 02
        E 80 b8 09 03
        E 80 b8 09 04
        E 80 b8 09 05
        E 80 b8 09 06
        E 80 b8 09 08
        E 80 b8 09 09
        E 80 b8 09 0a
        E 80 b8 09 0c
        E 80 b8 09 0e
        E 80 b8 09 10
        E 80 b8 09 12
        E 80 b8 09 14
        E 80 b8 09 16
        E 80 b8 09 19
        E 80 b8 09 1b
        E 80 b8 09 1d
        E 80 b8 09 20
        E 80 b8 09 23
        E 80 b8 09 25
        E 80 b8 09 28
        E 80 b8 09 2b
        E 80 b8 09 2d
        E 80 b8 09 30
        E 80 b8 09 33
        E 80 b8 09 36
        E 80 b8 09 39
        E 53 b8 09 0c
        E 53 b8 09 0d
        E 53 b8 09 0e
        E 53 b8 09 0e
        E 53 b8 09 0f
        E 53 b8 09 0f
        E 53 b8 09 10
        E 53 b8 09 11
        E 53 b8 09 11
        E 53 b8 09 12
        E 53 b8 09 12
        E 53 b8 09 13
        E 53 b8 09 13
        E 53 b8 09 14
        E 53 b8 09 14
        E 53 b8 09 15
        E 53 b8 09 15
        E 53 b8 09 16
        E 53 b8 09 16
        E 53 b8 09 17
        E 53 b8 09 17
        E 53 b8 09 17
        E 53 b8 09 18
        E 53 b8 09 18
        E 53 b8 09 18
        E 53 b8 09 18
        E 53 b8 09 18
        E 53 b8 09 19
        E 53 b8 09 19
        E 53 b8 09 19
        E 53 b8 09 19
        E 53 b8 09 19
        E 53 b8 09 19
        E 53 b8 09 19
        E 53 b8 09 19
        E 53 b8 09 19
        E 53 b8 09 19
        E 53 b8 09 19
        E 53 b8 09 18
        E 53 b8 09 18
        E 53 b8 09 18
        E 53 b8 09 18
        E 53 b8 09 17
        E 53 b8 09 17
        E 53 b8 09 17
        E 53 b8 09 16
        E 53 b8 09 16
        E 53 b8 09 16
        E 53 b8 09 15
        E 53 b8 09 15
        E 53 b8 09 14
        E 53 b8 09 14
        E 53 b8 09 13
        E 53 b8 09 13
        E 53 b8 09 12
        E 53 b8 09 11
        E 53 b8 09 11
        E 53 b8 09 10
        E 53 b8 09 10
        E 53 b8 09 0f
        E 53 b8 09 0e
        E 53 b8 09 0e
        E 53 b8 09 0d
        E 53 b8 09 0d
        E 53 b8 09 0c
        E 53 b8 09 0b
        E 53 b8 09 0b
        E 53 b8 09 0a
        E 53 b8 09 09
        E 53 b8 09 09
        E 53 b8 09 08
        E 53 b8 09 08
        E 53 b8 09 07
        E 53 b8 09 07
        E 53 b8 09 06
        E 53 b8 09 05
        E 53 b8 09 05
        E 53 b8 09 04
        E 53 b8 09 04
        E 53 b8 09 03
        E 53 b8 09 03
        E 53 b8 09 03
        E 53 b8 09 02
        E 53 b8 09 02
        E 53 b8 09 02
        E 53 b8 09 01
        E 53 b8 09 01
        E 53 b8 09 01
        E 53 b8 09 00
        E 53 b8 09 00
        E 53 b8 09 00
        E 53 b8 09 00
        E 53 b8 09 00
        E 53 b8 09 00
        E 53 b8 09 00
        E 53 b8 09 00
        E 53 b8 09 00
        E 53 b8 09 00
        E 53 b8 09 00
        E 53 b8 09 00
        E 53 b8 09 00
        E 53 b8 09 00
        E 53 b8 09 00
        E 53 b8 09 01
        E 53 b8 09 01
        E 53 b8 09 01
        E 53 b8 09 01
        E 53 b8 09 02
        E 53 b8 09 02
        E 53 b8 09 02
        E 53 b8 09 03
        E 53 b8 09 03
        E 53 b8 09 04
        E 53 b8 09 04
        E 53 b8 09 05
        E 53 b8 09 05
        E 53 b8 09 06
        E 53 b8 09 06
        E 53 b8 09 07
        E 53 b8 09 07
        E 53 b8 09 08
        E 53 b8 09 09
        E 53 b8 09 09
        E 53 b8 09 0a
        E 53 b8 09 0a
        E 53 b8 09 0b
        E 53 b8 09 0c
        E 53 b8 09 0c
        E 17 b8 09 06
        E 17 b8 09 06
        E 17 b8 09 07
        E 17 b8 09 07
        E 17 b8 09 07
        E 17 b8 09 07
        E 17 b8 09 08
        E 17 b8 09 08
        E 17 b8 09 08
        E 17 b8 09 09
        E 17 b8 09 09
        E 17 b8 09 09
        E 17 b8 09 09
        E 17 b8 09 0a
        E 17 b8 09 0a
        E 17 b8 09 0a
        E 17 b8 09 0a
        E 17 b8 09 0b
        E 17 b8 09 0b
        E 17 b8 09 0b
        E 17 b8 09 0b
        E 17 b8 09 0b
        E 17 b8 09 0c
        E 17 b8 09 0c
        E 17 b8 09 0c
        E 17 b8 09 0c
        E 17 b8 09 0c
        E 17 b8 09 0c
        E 17 b8 09 0c
        E 17 b8 09 0c
        E 17 b8 09 0c
        E 17 b8 09 0c
        E 17 b8 09 0c
        E 17 b8 09 0c
        E 17 b8 09 0c
        E 17 b8 09 0c
        E 17 b8 09 0c
        E 17 b8 09 0c
        E 17 b8 09 0c
        E 17 b8 09 0c
        E 17 b8 09 0c
        E 17 b8 09 0c
        E 17 b8 09 0b
        E 17 b8 09 0b
        E 17 b8 09 0b
        E 17 b8 09 0b
        E 17 b8 09 0b
        E 17 b8 09 0b
        E 17 b8 09 0a
        E 17 b8 09 0a
        E 17 b8 09 0a
        E 17 b8 09 0a
        E 17 b8 09 09
        E 17 b8 09 09
        E 17 b8 09 09
        E 17 b8 09 08
        E 17 b8 09 08
        E 17 b8 09 08
        E 17 b8 09 08
        E 17 b8 09 07
        E 17 b8 09 07
        E 17 b8 09 07
        E 17 b8 09 06
        E 17 b8 09 06
        E 17 b8 09 06
        E 17 b8 09 05
        E 17 b8 09 05
        E 17 b8 09 05
        E 17 b8 09 04
        E 17 b8 09 04
        E 17 b8 09 04
        E 17 b8 09 04
        E 17 b8 09 03
        E 17 b8 09 03
        E 17 b8 09 03
        E 17 b8 09 02
        E 17 b8 09 02
        E 17 b8 09 02
        E 17 b8 09 02
        E 17 b8 09 01
        E 17 b8 09 01
        E 17 b8 09 01
        E 17 b8 09 01
        E 17 b8 09 01
        E 17 b8 09 01
        E 17 b8 09 00
        E 17 b8 09 00
        E 17 b8 09 00
        E 17 b8 09 00
        E 17 b8 09 00
        E 17 b8 09 00
        E 17 b8 09 00
        E 17 b8 09 00
        E 17 b8 09 00
        E 17 b8 09 00
        E 17 b8 09 00
        E 17 b8 09 00
        E 17 b8 09 00
        E 17 b8 09 00
        E 17 b8 09 00
        E 17 b8 09 00
        E 17 b8 09 00
        E 17 b8 09 00
        E 17 b8 09 00
        E 17 b8 09 00
        E 17 b8 09 00
        E 17 b8 09 00
        E 17 b8 09 01
        E 17 b8 09 01
        E 17 b8 09 01
        E 17 b8 09 01
        E 17 b8 09 01
        E 17 b8 09 02
        E 17 b8 09 02
        E 17 b8 09 02
        E 17 b8 09 02
        E 17 b8 09 03
        E 17 b8 09 03
        E 17 b8 09 03
        E 17 b8 09 03
        E 17 b8 09 04
        E 17 b8 09 04
        E 17 b8 09 04
        E 17 b8 09 05
        E 17 b8 09 05
        E 17 b8 09 05
        E 17 b8 09 06
        E 17 b8 09 06
        E 62 b8 09 20
        E 62 b8 09 21
        E 62 b8 09 23
        E 62 b8 09 24
        E 62 b8 09 26
        E 62 b8 09 27
        E 62 b8 09 29
        E 62 b8 09 2a
        E 62 b8 09 2c
        E 62 b8 09 2d
        E 62 b8 09 2f
        E 62 b8 09 30
        E 62 b8 09 31
        E 62 b8 09 33
        E 62 b8 09 34
        E 62 b8 09 35
        E 62 b8 09 36
        E 62 b8 09 37
        E 62 b8 09 38
        E 62 b8 09 39
        E 62 b8 09 3a
        E 62 b8 09 3b
        E 62 b8 09 3c
        E 62 b8 09 3c
        E 62 b8 09 3d
        E 62 b8 09 3d
        E 62 b8 09 3e
        E 62 b8 09 3e
        E 62 b8 09 3f
        E 62 b8 09 3f
        E 62 b8 09 3f
        E 62 b8 09 3f
        E 62 b8 09 3f
        E 62 b8 09 3f
        E 62 b8 09 3f
        E 62 b8 09 3f
        E 62 b8 09 3f
        E 62 b8 09 3e
        E 62 b8 09 3e
        E 62 b8 09 3d
        E 62 b8 09 3d
        E 62 b8 09 3c
        E 62 b8 09 3b
        E 62 b8 09 3a
        E 62 b8 09 3a
        E 62 b8 09 39
        E 62 b8 09 38
        E 62 b8 09 37
        E 62 b8 09 36
        E 62 b8 09 34
        E 62 b8 09 33
        E 62 b8 09 32
        E 62 b8 09 31
        E 62 b8 09 2f
        E 62 b8 09 2e
        E 62 b8 09 2c
        E 62 b8 09 2b
        E 62 b8 09 2a
        E 62 b8 09 28
        E 62 b8 09 27
        E 62 b8 09 25
        E 62 b8 09 23
        E 62 b8 09 22
        E 62 b8 09 20
        E 62 b8 09 1f
        E 62 b8 09 1d
        E 62 b8 09 1c
        E 62 b8 09 1a
        E 62 b8 09 18
        E 62 b8 09 17
        E 62 b8 09 15
        E 62 b8 09 14
        E 62 b8 09 13
        E 62 b8 09 11
        E 62 b8 09 10
        E 62 b8 09 0e
        E 62 b8 09 0d
        E 62 b8 09 0c
        E 62 b8 09 0b
        E 62 b8 09 09
        E 62 b8 09 08
        E 62 b8 09 07
        E 62 b8 09 06
        E 62 b8 09 05
        E 62 b8 09 05
        E 62 b8 09 04
        E 62 b8 09 03
        E 62 b8 09 02
        E 62 b8 09 02
        E 62 b8 09 01
        E 62 b8 09 01
        E 62 b8 09 00
        E 62 b8 09 00
        E 62 b8 09 00
        E 62 b8 09 00
        E 62 b8 09 00
        E 62 b8 09 00
        E 62 b8 09 00
        E 62 b8 09 00
        E 62 b8 09 00
        E 62 b8 09 01
        E 62 b8 09 01
        E 62 b8 09 02
        E 62 b8 09 02
        E 62 b8 09 03
        E 62 b8 09 03
        E 62 b8 09 04
        E 62 b8 09 05
        E 62 b8 09 06
        E 62 b8 09 07
        E 62 b8 09 08
        E 62 b8 09 09
        E 62 b8 09 0a
        E 62 b8 09 0b
        E 62 b8 09 0c
        E 62 b8 09 0e
        E 62 b8 09 0f
        E 62 b8 09 10
        E 62 b8 09 12
        E 62 b8 09 13
        E 62 b8 09 15
        E 62 b8 09 16
        E 62 b8 09 18
        E 62 b8 09 19
        E 62 b8 09 1b
        E 62 b8 09 1c
        E 62 b8 09 1e
        E 62 b8 09 20
        E 35 b8 09 19
        E 35 b8 09 1a
        E 35 b8 09 1c
        E 35 b8 09 1d
        E 35 b8 09 1e
        E 35 b8 09 1f
        E 35 b8 09 20
        E 35 b8 09 22
        E 35 b8 09 23
        E 35 b8 09 24
        E 35 b8 09 25
        E 35 b8 09 26
        E 35 b8 09 27
        E 35 b8 09 28
        E 35 b8 09 29
        E 35 b8 09 2a
        E 35 b8 09 2b
        E 35 b8 09 2c
        E 35 b8 09 2d
        E 35 b8 09 2e
        E 35 b8 09 2e
        E 35 b8 09 2f
        E 35 b8 09 30
        E 35 b8 09 30
        E 35 b8 09 30
        E 35 b8 09 31
        E 35 b8 09 31
        E 35 b8 09 32
        E 35 b8 09 32
        E 35 b8 09 32
        E 35 b8 09 32
        E 35 b8 09 32
        E 35 b8 09 32
        E 35 b8 09 32
        E 35 b8 09 32
        E 35 b8 09 32
        E 35 b8 09 32
        E 35 b8 09 32
        E 35 b8 09 31
        E 35 b8 09 31
        E 35 b8 09 30
        E 35 b8 09 30
        E 35 b8 09 2f
        E 35 b8 09 2e
        E 35 b8 09 2e
        E 35 b8 09 2d
        E 35 b8 09 2c
        E 35 b8 09 2c
        E 35 b8 09 2b
        E 35 b8 09 2a
        E 35 b8 09 29
        E 35 b8 09 28
        E 35 b8 09 27
        E 35 b8 09 26
        E 35 b8 09 24
        E 35 b8 09 23
        E 35 b8 09 22
        E 35 b8 09 21
        E 35 b8 09 20
        E 35 b8 09 1f
        E 35 b8 09 1d
        E 35 b8 09 1c
        E 35 b8 09 1b
        E 35 b8 09 1a
        E 35 b8 09 18
        E 35 b8 09 17
        E 35 b8 09 16
        E 35 b8 09 15
        E 35 b8 09 13
        E 35 b8 09 12
        E 35 b8 09 11
        E 35 b8 09 10
        E 35 b8 09 0f
        E 35 b8 09 0e
        E 35 b8 09 0c
        E 35 b8 09 0b
        E 35 b8 09 0a
        E 35 b8 09 09
        E 35 b8 09 08
        E 35 b8 09 07
        E 35 b8 09 06
        E 35 b8 09 06
        E 35 b8 09 05
        E 35 b8 09 04
        E 35 b8 09 04
        E 35 b8 09 03
        E 35 b8 09 02
        E 35 b8 09 02
        E 35 b8 09 01
        E 35 b8 09 01
        E 35 b8 09 00
        E 35 b8 09 00
        E 35 b8 09 00
        E 35 b8 09 00
        E 35 b8 09 00
        E 35 b8 09 00
        E 35 b8 09 00
        E 35 b8 09 00
        E 35 b8 09 00
        E 35 b8 09 00
        E 35 b8 09 00
        E 35 b8 09 01
        E 35 b8 09 01
        E 35 b8 09 02
        E 35 b8 09 02
        E 35 b8 09 02
        E 35 b8 09 03
        E 35 b8 09 04
        E 35 b8 09 04
        E 35 b8 09 05
        E 35 b8 09 06
        E 35 b8 09 07
        E 35 b8 09 08
        E 35 b8 09 09
        E 35 b8 09 0a
        E 35 b8 09 0b
        E 35 b8 09 0c
        E 35 b8 09 0d
        E 35 b8 09 0e
        E 35 b8 09 0f
        E 35 b8 09 10
        E 35 b8 09 12
        E 35 b8 09 13
        E 35 b8 09 14
        E 35 b8 09 15
        E 35 b8 09 16
        E 35 b8 09 18
        E 35 b8 09 19
        E 89 b8 09 06
        E 89 b8 09 06
        E 89 b8 09 07
        E 89 b8 09 07
        E 89 b8 09 07
        E 89 b8 09 07
        E 89 b8 09 08
        E 89 b8 09 08
        E 89 b8 09 08
        E 89 b8 09 09
        E 89 b8 09 09
        E 89 b8 09 09
        E 89 b8 09 09
        E 89 b8 09 0a
        E 89 b8 09 0a
        E 89 b8 09 0a
        E 89 b8 09 0a
        E 89 b8 09 0b
        E 89 b8 09 0b
        E 89 b8 09 0b
        E 89 b8 09 0b
        E 89 b8 09 0b
        E 89 b8 09 0c
        E 89 b8 09 0c
        E 89 b8 09 0c
        E 89 b8 09 0c
        E 89 b8 09 0c
        E 89 b8 09 0c
        E 89 b8 09 0c
        E 89 b8 09 0c
        E 89 b8 09 0c
        E 89 b8 09 0c
        E 89 b8 09 0c
        E 89 b8 09 0c
        E 89 b8 09 0c
        E 89 b8 09 0c
        E 89 b8 09 0c
        E 89 b8 09 0c
        E 89 b8 09 0c
        E 89 b8 09 0c
        E 89 b8 09 0c
        E 89 b8 09 0c
        E 89 b8 09 0b
        E 89 b8 09 0b
        E 89 b8 09 0b
        E 89 b8 09 0b
        E 89 b8 09 0b
        E 89 b8 09 0b
        E 89 b8 09 0a
        E 89 b8 09 0a
        E 89 b8 09 0a
        E 89 b8 09 0a
        E 89 b8 09 09
        E 89 b8 09 09
        E 89 b8 09 09
        E 89 b8 09 08
        E 89 b8 09 08
        E 89 b8 09 08
        E 89 b8 09 08
        E 89 b8 09 07
        E 89 b8 09 07
        E 89 b8 09 07
        E 89 b8 09 06
        E 89 b8 09 06
        E 89 b8 09 06
        E 89 b8 09 05
        E 89 b8 09 05
        E 89 b8 09 05
        E 89 b8 09 04
        E 89 b8 09 04
        E 89 b8 09 04
        E 89 b8 09 04
        E 89 b8 09 03
        E 89 b8 09 03
        E 89 b8 09 03
        E 89 b8 09 02
        E 89 b8 09 02
        E 89 b8 09 02
        E 89 b8 09 02
        E 89 b8 09 01
        E 89 b8 09 01
        E 89 b8 09 01
        E 89 b8 09 01
        E 89 b8 09 01
        E 89 b8 09 01
        E 89 b8 09 00
        E 89 b8 09 00
        E 89 b8 09 00
        E 89 b8 09 00
        E 89 b8 09 00
        E 89 b8 09 00
        E 89 b8 09 00
        E 89 b8 09 00
        E 89 b8 09 00
        E 89 b8 09 00
        E 89 b8 09 00
        E 89 b8 09 00
        E 89 b8 09 00
        E 89 b8 09 00
        E 89 b8 09 00
        E 89 b8 09 00
        E 89 b8 09 00
        E 89 b8 09 00
        E 89 b8 09 00
        E 89 b8 09 00
        E 89 b8 09 00
        E 89 b8 09 00
        E 89 b8 09 01
        E 89 b8 09 01
        E 89 b8 09 01
        E 89 b8 09 01
        E 89 b8 09 01
        E 89 b8 09 02
        E 89 b8 09 02
        E 89 b8 09 02
        E 89 b8 09 02
        E 89 b8 09 03
        E 89 b8 09 03
        E 89 b8 09 03
        E 89 b8 09 03
        E 89 b8 09 04
        E 89 b8 09 04
        E 89 b8 09 04
        E 89 b8 09 05
        E 89 b8 09 05
        E 89 b8 09 05
        E 89 b8 09 06
        E 89 b8 09 06
        E 80 b8 09 39
        E 80 b8 09 3c
        E 80 b8 09 3f
        E 80 b8 09 41
        E 80 b8 09 44
        E 80 b8 09 47
        E 80 b8 09 49
        E 80 b8 09 4c
        E 80 b8 09 4f
        E 80 b8 09 51
        E 80 b8 09 54
        E 80 b8 09 56
        E 80 b8 09 59
        E 80 b8 09 5b
        E 80 b8 09 5d
        E 80 b8 09 5f
        E 80 b8 09 62
        E 80 b8 09 63
        E 80 b8 09 65
        E 80 b8 09 67
        E 80 b8 09 69
        E 80 b8 09 6a
        E 80 b8 09 6c
        E 80 b8 09 6c
        E 80 b8 09 6d
        E 80 b8 09 6e
        E 80 b8 09 6f
        E 80 b8 09 70
        E 80 b8 09 71
        E 80 b8 09 71
        E 80 b8 09 72
        E 80 b8 09 72
        E 80 b8 09 72
        E 80 b8 09 72
        E 80 b8 09 72
        E 80 b8 09 71
        E 80 b8 09 71
        E 80 b8 09 70
        E 80 b8 09 6f
        E 80 b8 09 6e
        E 80 b8 09 6d
        E 80 b8 09 6c
        E 80 b8 09 6b
        E 80 b8 09 69
        E 80 b8 09 68
        E 80 b8 09 66
        E 80 b8 09 64
        E 80 b8 09 63
        E 80 b8 09 61
        E 80 b8 09 5e
        E 80 b8 09 5c
        E 80 b8 09 5a
        E 80 b8 09 58
        E 80 b8 09 55
        E 80 b8 09 52
        E 80 b8 09 50
        E 80 b8 09 4e
        E 80 b8 09 4b
        E 80 b8 09 48
        E 80 b8 09 46
        E 80 b8 09 42
        E 80 b8 09 3f
        E 80 b8 09 3d
        E 80 b8 09 3a
        E 80 b8 09 37
        E 80 b8 09 35
        E 80 b8 09 32
        E 80 b8 09 2f
        E 80 b8 09 2c
        E 80 b8 09 29
        E 80 b8 09 26
        E 80 b8 09 24
        E 80 b8 09 22
        E 80 b8 09 1f
        E 80 b8 09 1c
        E 80 b8 09 1a
        E 80 b8 09 18
        E 80 b8 09 15
        E 80 b8 09 13
        E 80 b8 09 11
        E 80 b8 09 0f
        E 80 b8 09 0d
        E 80 b8 09 0b
        E 80 b8 09 09
        E 80 b8 09 09
        E 80 b8 09 07
        E 80 b8 09 06
        E 80 b8 09 04
        E 80 b8 09 03
        E 80 b8 09 02
        E 80 b8 09 01
        E 80 b8 09 00
        E 80 b8 09 00
        E 80 b8 09 00
        E 80 b8 09 00
        E 80 b8 09 00
        E 80 b8 09 00
        E 80 b8 09 00
        E 80 b8 09 00
        E 80 b8 09 00
        E 80 b8 09 01
        E 80 b8 09 02
        E 80 b8 09 03
        E 80 b8 09 04
        E 80 b8 09 05
        E 80 b8 09 06
        E 80 b8 09 08
        E 80 b8 09 09
        E 80 b8 09 0a
        E 80 b8 09 0c
        E 80 b8 09 0e
        E 80 b8 09 10
        E 80 b8 09 12
        E 80 b8 09 14
        E 80 b8 09 16
        E 80 b8 09 19
        E 80 b8 09 1b
        E 80 b8 09 1d
        E 80 b8 09 20
        E 80 b8 09 23
        E 80 b8 09 25
        E 80 b8 09 28
        E 80 b8 09 2b
        E 80 b8 09 2d
        E 80 b8 09 30
        E 80 b8 09 33
        E 80 b8 09 36
        E 80 b8 09 39
        E 53 b8 09 0c
        E 53 b8 09 0d
        E 53 b8 09 0e
        E 53 b8 09 0e
        E 53 b8 09 0f
        E 53 b8 09 0f
        E 53 b8 09 10
        E 53 b8 09 11
        E 53 b8 09 11
        E 53 b8 09 12
        E 53 b8 09 12
        E 53 b8 09 13
        E 53 b8 09 13
        E 53 b8 09 14
        E 53 b8 09 14
        E 53 b8 09 15
        E 53 b8 09 15
        E 53 b8 09 16
        E 53 b8 09 16
        E 53 b8 09 17
        E 53 b8 09 17
        E 53 b8 09 17
        E 53 b8 09 18
        E 53 b8 09 18
        E 53 b8 09 18
        E 53 b8 09 18
        E 53 b8 09 18
        E 53 b8 09 19
        E 53 b8 09 19
        E 53 b8 09 19
        E 53 b8 09 19
        E 53 b8 09 19
        E 53 b8 09 19
        E 53 b8 09 19
        E 53 b8 09 19
        E 53 b8 09 19
        E 53 b8 09 19
        E 53 b8 09 19
        E 53 b8 09 18
        E 53 b8 09 18
        E 53 b8 09 18
        E 53 b8 09 18
        E 53 b8 09 17
        E 53 b8 09 17
        E 53 b8 09 17
        E 53 b8 09 16
        E 53 b8 09 16
        E 53 b8 09 16
        E 53 b8 09 15
        E 53 b8 09 15
        E 53 b8 09 14
        E 53 b8 09 14
        E 53 b8 09 13
        E 53 b8 09 13
        E 53 b8 09 12
        E 53 b8 09 11
        E 53 b8 09 11
        E 53 b8 09 10
        E 53 b8 09 10
        E 53 b8 09 0f
        E 53 b8 09 0e
        E 53 b8 09 0e
        E 53 b8 09 0d
        E 53 b8 09 0d
        E 53 b8 09 0c
        E 53 b8 09 0b
        E 53 b8 09 0b
        E 53 b8 09 0a
        E 53 b8 09 09
        E 53 b8 09 09
        E 53 b8 09 08
        E 53 b8 09 08
        E 53 b8 09 07
        E 53 b8 09 07
        E 53 b8 09 06
        E 53 b8 09 05
        E 53 b8 09 05
        E 53 b8 09 04
        E 53 b8 09 04
        E 53 b8 09 03
        E 53 b8 09 03
        E 53 b8 09 03
        E 53 b8 09 02
        E 53 b8 09 02
        E 53 b8 09 02
        E 53 b8 09 01
        E 53 b8 09 01
        E 53 b8 09 01
        E 53 b8 09 00
        E 53 b8 09 00
        E 53 b8 09 00
        E 53 b8 09 00
        E 53 b8 09 00
        E 53 b8 09 00
        E 53 b8 09 00
        E 53 b8 09 00
        E 53 b8 09 00
        E 53 b8 09 00
        E 53 b8 09 00
        E 53 b8 09 00
        E 53 b8 09 00
        E 53 b8 09 00
        E 53 b8 09 00
        E 53 b8 09 01
        E 53 b8 09 01
        E 53 b8 09 01
        E 53 b8 09 01
        E 53 b8 09 02
        E 53 b8 09 02
        E 53 b8 09 02
        E 53 b8 09 03
        E 53 b8 09 03
        E 53 b8 09 04
        E 53 b8 09 04
        E 53 b8 09 05
        E 53 b8 09 05
        E 53 b8 09 06
        E 53 b8 09 06
        E 53 b8 09 07
        E 53 b8 09 07
        E 53 b8 09 08
        E 53 b8 09 09
        E 53 b8 09 09
        E 53 b8 09 0a
        E 53 b8 09 0a
        E 53 b8 09 0b
        E 53 b8 09 0c
        E 53 b8 09 0c
        E 17 b8 09 06
        E 17 b8 09 06
        E 17 b8 09 07
        E 17 b8 09 07
        E 17 b8 09 07
        E 17 b8 09 07
        E 17 b8 09 08
        E 17 b8 09 08
        E 17 b8 09 08
        E 17 b8 09 09
        E 17 b8 09 09
        E 17 b8 09 09
        E 17 b8 09 09
        E 17 b8 09 0a
        E 17 b8 09 0a
        E 17 b8 09 0a
        E 17 b8 09 0a
        E 17 b8 09 0b
        E 17 b8 09 0b
        E 17 b8 09 0b
        E 17 b8 09 0b
        E 17 b8 09 0b
        E 17 b8 09 0c
        E 17 b8 09 0c
        E 17 b8 09 0c
        E 17 b8 09 0c
        E 17 b8 09 0c
        E 17 b8 09 0c
        E 17 b8 09 0c
        E 17 b8 09 0c
        E 17 b8 09 0c
        E 17 b8 09 0c
        E 17 b8 09 0c
        E 17 b8 09 0c
        E 17 b8 09 0c
        E 17 b8 09 0c
        E 17 b8 09 0c
        E 17 b8 09 0c
        E 17 b8 09 0c
        E 17 b8 09 0c
        E 17 b8 09 0c
        E 17 b8 09 0c
        E 17 b8 09 0b
        E 17 b8 09 0b
        E 17 b8 09 0b
        E 17 b8 09 0b
        E 17 b8 09 0b
        E 17 b8 09 0b
        E 17 b8 09 0a
        E 17 b8 09 0a
        E 17 b8 09 0a
        E 17 b8 09 0a
        E 17 b8 09 09
        E 17 b8 09 09
        E 17 b8 09 09
        E 17 b8 09 08
        E 17 b8 09 08
        E 17 b8 09 08
        E 17 b8 09 08
        E 17 b8 09 07
        E 17 b8 09 07
        E 17 b8 09 07
        E 17 b8 09 06
        E 17 b8 09 06
        E 17 b8 09 06
        E 17 b8 09 05
        E 17 b8 09 05
        E 17 b8 09 05
        E 17 b8 09 04
        E 17 b8 09 04
        E 17 b8 09 04
        E 17 b8 09 04
        E 17 b8 09 03
        E 17 b8 09 03
        E 17 b8 09 03
        E 17 b8 09 02
        E 17 b8 09 02
        E 17 b8 09 02
        E 17 b8 09 02
        E 17 b8 09 01
        E 17 b8 09 01
        E 17 b8 09 01
        E 17 b8 09 01
        E 17 b8 09 01
        E 17 b8 09 01
        E 17 b8 09 00
        E 17 b8 09 00
        E 17 b8 09 00
        E 17 b8 09 00
        E 17 b8 09 00
        E 17 b8 09 00
        E 17 b8 09 00
        E 17 b8 09 00
        E 17 b8 09 00
        E 17 b8 09 00
        E 17 b8 09 00
        E 17 b8 09 00
        E 17 b8 09 00
        E 17 b8 09 00
        E 17 b8 09 00
        E 17 b8 09 00
        E 17 b8 09 00
        E 17 b8 09 00
        E 17 b8 09 00
        E 17 b8 09 00
        E 17 b8 09 00
        E 17 b8 09 00
        E 17 b8 09 01
        E 17 b8 09 01
        E 17 b8 09 01
        E 17 b8 09 01
        E 17 b8 09 01
        E 17 b8 09 02
        E 17 b8 09 02
        E 17 b8 09 02
        E 17 b8 09 02
        E 17 b8 09 03
        E 17 b8 09 03
        E 17 b8 09 03
        E 17 b8 09 03
        E 17 b8 09 04
        E 17 b8 09 04
        E 17 b8 09 04
        E 17 b8 09 05
        E 17 b8 09 05
        E 17 b8 09 05
        E 17 b8 09 06
        E 17 b8 09 06
        E 62 b8 09 20
        E 62 b8 09 21
        E 62 b8 09 23
        E 62 b8 09 24
        E 62 b8 09 26
        E 62 b8 09 27
        E 62 b8 09 29
        E 62 b8 09 2a
        E 62 b8 09 2c
        E 62 b8 09 2d
        E 62 b8 09 2f
        E 62 b8 09 30
        E 62 b8 09 31
        E 62 b8 09 33
        E 62 b8 09 34
        E 62 b8 09 35
        E 62 b8 09 36
        E 62 b8 09 37
        E 62 b8 09 38
        E 62 b8 09 39
        E 62 b8 09 3a
        E 62 b8 09 3b
        E 62 b8 09 3c
        E 62 b8 09 3c
        E 62 b8 09 3d
        E 62 b8 09 3d
        E 62 b8 09 3e
        E 62 b8 09 3e
        E 62 b8 09 3f
        E 62 b8 09 3f
        E 62 b8 09 3f
        E 62 b8 09 3f
        E 62 b8 09 3f
        E 62 b8 09 3f
        E 62 b8 09 3f
        E 62 b8 09 3f
        E 62 b8 09 3f
        E 62 b8 09 3e
        E 62 b8 09 3e
        E 62 b8 09 3d
        E 62 b8 09 3d
        E 62 b8 09 3c
        E 62 b8 09 3b
        E 62 b8 09 3a
        E 62 b8 09 3a
        E 62 b8 09 39
        E 62 b8 09 38
        E 62 b8 09 37
        E 62 b8 09 36
        E 62 b8 09 34
        E 62 b8 09 33
        E 62 b8 09 32
        E 62 b8 09 31
        E 62 b8 09 2f
        E 62 b8 09 2e
        E 62 b8 09 2c
        E 62 b8 09 2b
        E 62 b8 09 2a
        E 62 b8 09 28
        E 62 b8 09 27
        E 62 b8 09 25
        E 62 b8 09 23
        E 62 b8 09 22
        E 62 b8 09 20
        E 62 b8 09 1f
        E 62 b8 09 1d
        E 62 b8 09 1c
        E 62 b8 09 1a
        E 62 b8 09 18
        E 62 b8 09 17
        E 62 b8 09 15
        E 62 b8 09 14
        E 62 b8 09 13
        E 62 b8 09 11
        E 62 b8 09 10
        E 62 b8 09 0e
        E 62 b8 09 0d
        E 62 b8 09 0c
        E 62 b8 09 0b
        E 62 b8 09 09
        E 62 b8 09 08
        E 62 b8 09 07
        E 62 b8 09 06
        E 62 b8 09 05
        E 62 b8 09 05
        E 62 b8 09 04
        E 62 b8 09 03
        E 62 b8 09 02
        E 62 b8 09 02
        E 62 b8 09 01
        E 62 b8 09 01
        E 62 b8 09 00
        E 62 b8 09 00
        E 62 b8 09 00
        E 62 b8 09 00
        E 62 b8 09 00
        E 62 b8 09 00
        E 62 b8 09 00
        E 62 b8 09 00
        E 62 b8 09 00
        E 62 b8 09 01
        E 62 b8 09 01
        E 62 b8 09 02
        E 62 b8 09 02
        E 62 b8 09 03
        E 62 b8 09 03
        E 62 b8 09 04
        E 62 b8 09 05
        E 62 b8 09 06
        E 62 b8 09 07
        E 62 b8 09 08
        E 62 b8 09 09
        E 62 b8 09 0a
        E 62 b8 09 0b
        E 62 b8 09 0c
        E 62 b8 09 0e
        E 62 b8 09 0f
        E 62 b8 09 10
        E 62 b8 09 12
        E 62 b8 09 13
        E 62 b8 09 15
        E 62 b8 09 16
        E 62 b8 09 18
        E 62 b8 09 19
        E 62 b8 09 1b
        E 62 b8 09 1c
        E 62 b8 09 1e
        E 62 b8 09 20
        E 30 b8 09 19
        E 30 b8 09 56
        E 30 b8 09 38
        E 30 b8 09 09
        E 30 b8 09 51
        E 30 b8 09 48
        E 30 b8 09 0a
        E 30 b8 09 09
        E 30 b8 09 36
        E 30 b8 09 6c
        E 30 b8 09 5a
        E 30 b8 09 63
        E 30 b8 09 47
        E 30 b8 09 0c
        E 30 b8 09 15
        E 30 b8 09 4d
        E 30 b8 09 3f
        E 30 b8 09 20
        E 30 b8 09 16
        E 30 b8 09 1e
        E 30 b8 09 59
        E 30 b8 09 35
        E 30 b8 09 1b
        E 30 b8 09 41
        E 30 b8 09 71
        E 30 b8 09 00
        E 30 b8 09 0e
        E 30 b8 09 2e
        E 30 b8 09 26
        E 30 b8 09 5d
        E 30 b8 09 18
        E 30 b8 09 07
        E 30 b8 09 12
        E 30 b8 09 13
        E 30 b8 09 67
        E 30 b8 09 1c
        E 30 b8 09 00
        E 30 b8 09 54
        E 30 b8 09 27
        E 30 b8 09 17
        E 30 b8 09 2d
        E 30 b8 09 1d
        E 30 b8 09 61
        E 30 b8 09 60
        E 30 b8 09 72
        E 30 b8 09 5f
        E 30 b8 09 31
        E 30 b8 09 6a
        E 30 b8 09 51
        E 30 b8 09 0d
        E 30 b8 09 32
        E 30 b8 09 3d
        E 30 b8 09 6c
        E 30 b8 09 57
        E 30 b8 09 3e
        E 30 b8 09 3f
        E 30 b8 09 05
        E 30 b8 09 0b
        E 30 b8 09 69
        E 30 b8 09 5b
        E 30 b8 09 30
        E 30 b8 09 24
        E 30 b8 09 0f
        E 30 b8 09 33
        E 30 b8 09 22
        E 30 b8 09 1b
        E 30 b8 09 2b
        E 30 b8 09 3b
        E 30 b8 09 45
        E 30 b8 09 49
        E 30 b8 09 12
        E 30 b8 09 44
        E 30 b8 09 65
        E 30 b8 09 3a
        E 30 b8 09 42
        E 30 b8 09 02
        E 30 b8 09 08
        E 30 b8 09 70
        E 30 b8 09 4a
        E 30 b8 09 14
        E 30 b8 09 68
        E 30 b8 09 24
        E 30 b8 09 2c
        E 30 b8 09 37
        E 30 b8 09 2d
        E 30 b8 09 4c
        E 30 b8 09 5c
        E 30 b8 09 21
        E 30 b8 09 40
        E 30 b8 09 1a
        E 30 b8 09 66
        E 30 b8 09 5e
        E 30 b8 09 34
        E 30 b8 09 29
        E 30 b8 09 5a
        E 30 b8 09 2a
        E 30 b8 09 50
        E 30 b8 09 10
        E 30 b8 09 01
        E 30 b8 09 25
        E 30 b8 09 39
        E 30 b8 09 62
        E 30 b8 09 58
        E 30 b8 09 03
        E 30 b8 09 63
        E 30 b8 09 53
        E 30 b8 09 06
        E 30 b8 09 23
        E 30 b8 09 43
        E 30 b8 09 55
        E 30 b8 09 6d
        E 30 b8 09 46
        E 30 b8 09 2f
        E 30 b8 09 1f
        E 30 b8 09 4f
        E 30 b8 09 52
        E 30 b8 09 64
        E 30 b8 09 6f
        E 30 b8 09 36
        E 30 b8 09 48
        E 30 b8 09 4e
        E 30 b8 09 3c
        E 30 b8 09 6b
        E 30 b8 09 11
        E 30 b8 09 28
        E 30 b8 09 4b
        E 20 b8 09 05
        E 20 b8 09 13
        E 20 b8 09 0c
        E 20 b8 09 02
        E 20 b8 09 12
        E 20 b8 09 10
        E 20 b8 09 02
        E 20 b8 09 02
        E 20 b8 09 0c
        E 20 b8 09 18
        E 20 b8 09 14
        E 20 b8 09 16
        E 20 b8 09 0f
        E 20 b8 09 02
        E 20 b8 09 04
        E 20 b8 09 11
        E 20 b8 09 0e
        E 20 b8 09 07
        E 20 b8 09 05
        E 20 b8 09 06
        E 20 b8 09 13
        E 20 b8 09 0b
        E 20 b8 09 06
        E 20 b8 09 0e
        E 20 b8 09 19
        E 20 b8 09 00
        E 20 b8 09 03
        E 20 b8 09 0a
        E 20 b8 09 08
        E 20 b8 09 14
        E 20 b8 09 05
        E 20 b8 09 01
        E 20 b8 09 04
        E 20 b8 09 04
        E 20 b8 09 17
        E 20 b8 09 06
        E 20 b8 09 00
        E 20 b8 09 12
        E 20 b8 09 08
        E 20 b8 09 05
        E 20 b8 09 0a
        E 20 b8 09 06
        E 20 b8 09 15
        E 20 b8 09 15
        E 20 b8 09 19
        E 20 b8 09 15
        E 20 b8 09 0b
        E 20 b8 09 17
        E 20 b8 09 12
        E 20 b8 09 03
        E 20 b8 09 0b
        E 20 b8 09 0d
        E 20 b8 09 18
        E 20 b8 09 13
        E 20 b8 09 0d
        E 20 b8 09 0e
        E 20 b8 09 01
        E 20 b8 09 02
        E 20 b8 09 17
        E 20 b8 09 14
        E 20 b8 09 0a
        E 20 b8 09 08
        E 20 b8 09 03
        E 20 b8 09 0b
        E 20 b8 09 07
        E 20 b8 09 06
        E 20 b8 09 09
        E 20 b8 09 0d
        E 20 b8 09 0f
        E 20 b8 09 10
        E 20 b8 09 04
        E 20 b8 09 0f
        E 20 b8 09 16
        E 20 b8 09 0d
        E 20 b8 09 0e
        E 20 b8 09 00
        E 20 b8 09 01
        E 20 b8 09 19
        E 20 b8 09 10
        E 20 b8 09 04
        E 20 b8 09 17
        E 20 b8 09 08
        E 20 b8 09 09
        E 20 b8 09 0c
        E 20 b8 09 0a
        E 20 b8 09 11
        E 20 b8 09 14
        E 20 b8 09 07
        E 20 b8 09 0e
        E 20 b8 09 05
        E 20 b8 09 16
        E 20 b8 09 15
        E 20 b8 09 0b
        E 20 b8 09 09
        E 20 b8 09 14
        E 20 b8 09 09
        E 20 b8 09 11
        E 20 b8 09 03
        E 20 b8 09 00
        E 20 b8 09 08
        E 20 b8 09 0c
        E 20 b8 09 15
        E 20 b8 09 13
        E 20 b8 09 00
        E 20 b8 09 16
        E 20 b8 09 12
        E 20 b8 09 01
        E 20 b8 09 07
        E 20 b8 09 0f
        E 20 b8 09 13
        E 20 b8 09 18
        E 20 b8 09 0f
        E 20 b8 09 0a
        E 20 b8 09 07
        E 20 b8 09 11
        E 20 b8 09 12
        E 20 b8 09 16
        E 20 b8 09 18
        E 20 b8 09 0c
        E 20 b8 09 10
        E 20 b8 09 11
        E 20 b8 09 0d
        E 20 b8 09 17
        E 20 b8 09 03
        E 20 b8 09 09
        E 20 b8 09 10
        E 8 b8 09 19
        E 8 b8 09 1a
        E 8 b8 09 1c
        E 8 b8 09 1d
        E 8 b8 09 1e
        E 8 b8 09 1f
        E 8 b8 09 20
        E 8 b8 09 22
        E 8 b8 09 23
        E 8 b8 09 24
        E 8 b8 09 25
        E 8 b8 09 26
        E 8 b8 09 27
        E 8 b8 09 28
        E 8 b8 09 29
        E 8 b8 09 2a
        E 8 b8 09 2b
        E 8 b8 09 2c
        E 8 b8 09 2d
        E 8 b8 09 2e
        E 8 b8 09 2e
        E 8 b8 09 2f
        E 8 b8 09 30
        E 8 b8 09 30
        E 8 b8 09 30
        E 8 b8 09 31
        E 8 b8 09 31
        E 8 b8 09 32
        E 8 b8 09 32
        E 8 b8 09 32
        E 8 b8 09 32
        E 8 b8 09 32
        E 8 b8 09 32
        E 8 b8 09 32
        E 8 b8 09 32
        E 8 b8 09 32
        E 8 b8 09 32
        E 8 b8 09 32
        E 8 b8 09 31
        E 8 b8 09 31
        E 8 b8 09 30
        E 8 b8 09 30
        E 8 b8 09 2f
        E 8 b8 09 2e
        E 8 b8 09 2e
        E 8 b8 09 2d
        E 8 b8 09 2c
        E 8 b8 09 2c
        E 8 b8 09 2b
        E 8 b8 09 2a
        E 8 b8 09 29
        E 8 b8 09 28
        E 8 b8 09 27
        E 8 b8 09 26
        E 8 b8 09 24
        E 8 b8 09 23
        E 8 b8 09 22
        E 8 b8 09 21
        E 8 b8 09 20
        E 8 b8 09 1f
        E 8 b8 09 1d
        E 8 b8 09 1c
        E 8 b8 09 1b
        E 8 b8 09 1a
        E 8 b8 09 18
        E 8 b8 09 17
        E 8 b8 09 16
        E 8 b8 09 15
        E 8 b8 09 13
        E 8 b8 09 12
        E 8 b8 09 11
        E 8 b8 09 10
        E 8 b8 09 0f
        E 8 b8 09 0e
        E 8 b8 09 0c
        E 8 b8 09 0b
        E 8 b8 09 0a
        E 8 b8 09 09
        E 8 b8 09 08
        E 8 b8 09 07
        E 8 b8 09 06
        E 8 b8 09 06
        E 8 b8 09 05
        E 8 b8 09 04
        E 8 b8 09 04
        E 8 b8 09 03
        E 8 b8 09 02
        E 8 b8 09 02
        E 8 b8 09 01
        E 8 b8 09 01
        E 8 b8 09 00
        E 8 b8 09 00
        E 8 b8 09 00
        E 8 b8 09 00
        E 8 b8 09 00
        E 8 b8 09 00
        E 8 b8 09 00
        E 8 b8 09 00
        E 8 b8 09 00
        E 8 b8 09 00
        E 8 b8 09 00
        E 8 b8 09 01
        E 8 b8 09 01
        E 8 b8 09 02
        E 8 b8 09 02
        E 8 b8 09 02
        E 8 b8 09 03
        E 8 b8 09 04
        E 8 b8 09 04
        E 8 b8 09 05
        E 8 b8 09 06
        E 8 b8 09 07
        E 8 b8 09 08
        E 8 b8 09 09
        E 8 b8 09 0a
        E 8 b8 09 0b
        E 8 b8 09 0c
        E 8 b8 09 0d
        E 8 b8 09 0e
        E 8 b8 09 0f
        E 8 b8 09 10
        E 8 b8 09 12
        E 8 b8 09 13
        E 8 b8 09 14
        E 8 b8 09 15
        E 8 b8 09 16
        E 8 b8 09 18
        E 8 b8 09 19
        E 21 b8 09 06
        E 21 b8 09 06
        E 21 b8 09 07
        E 21 b8 09 07
        E 21 b8 09 07
        E 21 b8 09 07
        E 21 b8 09 08
        E 21 b8 09 08
        E 21 b8 09 08
        E 21 b8 09 09
        E 21 b8 09 09
        E 21 b8 09 09
        E 21 b8 09 09
        E 21 b8 09 0a
        E 21 b8 09 0a
        E 21 b8 09 0a
        E 21 b8 09 0a
        E 21 b8 09 0b
        E 21 b8 09 0b
        E 21 b8 09 0b
        E 21 b8 09 0b
        E 21 b8 09 0b
        E 21 b8 09 0c
        E 21 b8 09 0c
        E 21 b8 09 0c
        E 21 b8 09 0c
        E 21 b8 09 0c
        E 21 b8 09 0c
        E 21 b8 09 0c
        E 21 b8 09 0c
        E 21 b8 09 0c
        E 21 b8 09 0c
        E 21 b8 09 0c
        E 21 b8 09 0c
        E 21 b8 09 0c
        E 21 b8 09 0c
        E 21 b8 09 0c
        E 21 b8 09 0c
        E 21 b8 09 0c
        E 21 b8 09 0c
        E 21 b8 09 0c
        E 21 b8 09 0c
        E 21 b8 09 0b
        E 21 b8 09 0b
        E 21 b8 09 0b
        E 21 b8 09 0b
        E 21 b8 09 0b
        E 21 b8 09 0b
        E 21 b8 09 0a
        E 21 b8 09 0a
        E 21 b8 09 0a
        E 21 b8 09 0a
        E 21 b8 09 09
        E 21 b8 09 09
        E 21 b8 09 09
        E 21 b8 09 08
        E 21 b8 09 08
        E 21 b8 09 08
        E 21 b8 09 08
        E 21 b8 09 07
        E 21 b8 09 07
        E 21 b8 09 07
        E 21 b8 09 06
        E 21 b8 09 06
        E 21 b8 09 06
        E 21 b8 09 05
        E 21 b8 09 05
        E 21 b8 09 05
        E 21 b8 09 04
        E 21 b8 09 04
        E 21 b8 09 04
        E 21 b8 09 04
        E 21 b8 09 03
        E 21 b8 09 03
        E 21 b8 09 03
        E 21 b8 09 02
        E 21 b8 09 02
        E 21 b8 09 02
        E 21 b8 09 02
        E 21 b8 09 01
        E 21 b8 09 01
        E 21 b8 09 01
        E 21 b8 09 01
        E 21 b8 09 01
        E 21 b8 09 01
        E 21 b8 09 00
        E 21 b8 09 00
        E 21 b8 09 00
        E 21 b8 09 00
        E 21 b8 09 00
        E 21 b8 09 00
        E 21 b8 09 00
        E 21 b8 09 00
        E 21 b8 09 00
        E 21 b8 09 00
        E 21 b8 09 00
        E 21 b8 09 00
        E 21 b8 09 00
        E 21 b8 09 00
        E 21 b8 09 00
        E 21 b8 09 00
        E 21 b8 09 00
        E 21 b8 09 00
        E 21 b8 09 00
        E 21 b8 09 00
        E 21 b8 09 00
        E 21 b8 09 00
        E 21 b8 09 01
        E 21 b8 09 01
        E 21 b8 09 01
        E 21 b8 09 01
        E 21 b8 09 01
        E 21 b8 09 02
        E 21 b8 09 02
        E 21 b8 09 02
        E 21 b8 09 02
        E 21 b8 09 03
        E 21 b8 09 03
        E 21 b8 09 03
        E 21 b8 09 03
        E 21 b8 09 04
        E 21 b8 09 04
        E 21 b8 09 04
        E 21 b8 09 05
        E 21 b8 09 05
        E 21 b8 09 05
        E 21 b8 09 06
        E 21 b8 09 06
        E 18 b8 09 39
        E 18 b8 09 3c
        E 18 b8 09 3f
        E 18 b8 09 41
        E 18 b8 09 44
        E 18 b8 09 47
        E 18 b8 09 49
        E 18 b8 09 4c
        E 18 b8 09 4f
        E 18 b8 09 51
        E 18 b8 09 54
        E 18 b8 09 56
        E 18 b8 09 59
        E 18 b8 09 5b
        E 18 b8 09 5d
        E 18 b8 09 5f
        E 18 b8 09 62
        E 18 b8 09 63
        E 18 b8 09 65
        E 18 b8 09 67
        E 18 b8 09 69
        E 18 b8 09 6a
        E 18 b8 09 6c
        E 18 b8 09 6c
        E 18 b8 09 6d
        E 18 b8 09 6e
        E 18 b8 09 6f
        E 18 b8 09 70
        E 18 b8 09 71
        E 18 b8 09 71
        E 18 b8 09 72
        E 18 b8 09 72
        E 18 b8 09 72
        E 18 b8 09 72
        E 18 b8 09 72
        E 18 b8 09 71
        E 18 b8 09 71
        E 18 b8 09 70
        E 18 b8 09 6f
        E 18 b8 09 6e
        E 18 b8 09 6d
        E 18 b8 09 6c
        E 18 b8 09 6b
        E 18 b8 09 69
        E 18 b8 09 68
        E 18 b8 09 66
        E 18 b8 09 64
        E 18 b8 09 63
        E 18 b8 09 61
        E 18 b8 09 5e
        E 18 b8 09 5c
        E 18 b8 09 5a
        E 18 b8 09 58
        E 18 b8 09 55
        E 18 b8 09 52
        E 18 b8 09 50
        E 18 b8 09 4e
        E 18 b8 09 4b
        E 18 b8 09 48
        E 18 b8 09 46
        E 18 b8 09 42
        E 18 b8 09 3f
        E 18 b8 09 3d
        E 18 b8 09 3a
        E 18 b8 09 37
        E 18 b8 09 35
        E 18 b8 09 32
        E 18 b8 09 2f
        E 18 b8 09 2c
        E 18 b8 09 29
        E 18 b8 09 26
        E 18 b8 09 24
        E 18 b8 09 22
        E 18 b8 09 1f
        E 18 b8 09 1c
        E 18 b8 09 1a
        E 18 b8 09 18
        E 18 b8 09 15
        E 18 b8 09 13
        E 18 b8 09 11
        E 18 b8 09 0f
        E 18 b8 09 0d
        E 18 b8 09 0b
        E 18 b8 09 09
        E 18 b8 09 09
        E 18 b8 09 07
        E 18 b8 09 06
        E 18 b8 09 04
        E 18 b8 09 03
        E 18 b8 09 02
        E 18 b8 09 01
        E 18 b8 09 00
        E 18 b8 09 00
        E 18 b8 09 00
        E 18 b8 09 00
        E 18 b8 09 00
        E 18 b8 09 00
        E 18 b8 09 00
        E 18 b8 09 00
        E 18 b8 09 00
        E 18 b8 09 01
        E 18 b8 09 02
        E 18 b8 09 03
        E 18 b8 09 04
        E 18 b8 09 05
        E 18 b8 09 06
        E 18 b8 09 08
        E 18 b8 09 09
        E 18 b8 09 0a
        E 18 b8 09 0c
        E 18 b8 09 0e
        E 18 b8 09 10
        E 18 b8 09 12
        E 18 b8 09 14
        E 18 b8 09 16
        E 18 b8 09 19
        E 18 b8 09 1b
        E 18 b8 09 1d
        E 18 b8 09 20
        E 18 b8 09 23
        E 18 b8 09 25
        E 18 b8 09 28
        E 18 b8 09 2b
        E 18 b8 09 2d
        E 18 b8 09 30
        E 18 b8 09 33
        E 18 b8 09 36
        E 18 b8 09 39
        E 12 b8 09 0c
        E 12 b8 09 0d
        E 12 b8 09 0e
        E 12 b8 09 0e
        E 12 b8 09 0f
        E 12 b8 09 0f
        E 12 b8 09 10
        E 12 b8 09 11
        E 12 b8 09 11
        E 12 b8 09 12
        E 12 b8 09 12
        E 12 b8 09 13
        E 12 b8 09 13
        E 12 b8 09 14
        E 12 b8 09 14
        E 12 b8 09 15
        E 12 b8 09 15
        E 12 b8 09 16
        E 12 b8 09 16
        E 12 b8 09 17
        E 12 b8 09 17
        E 12 b8 09 17
        E 12 b8 09 18
        E 12 b8 09 18
        E 12 b8 09 18
        E 12 b8 09 18
        E 12 b8 09 18
        E 12 b8 09 19
        E 12 b8 09 19
        E 12 b8 09 19
        E 12 b8 09 19
        E 12 b8 09 19
        E 12 b8 09 19
        E 12 b8 09 19
        E 12 b8 09 19
        E 12 b8 09 19
        E 12 b8 09 19
        E 12 b8 09 19
        E 12 b8 09 18
        E 12 b8 09 18
        E 12 b8 09 18
        E 12 b8 09 18
        E 12 b8 09 17
        E 12 b8 09 17
        E 12 b8 09 17
        E 12 b8 09 16
        E 12 b8 09 16
        E 12 b8 09 16
        E 12 b8 09 15
        E 12 b8 09 15
        E 12 b8 09 14
        E 12 b8 09 14
        E 12 b8 09 13
        E 12 b8 09 13
        E 12 b8 09 12
        E 12 b8 09 11
        E 12 b8 09 11
        E 12 b8 09 10
        E 12 b8 09 10
        E 12 b8 09 0f
        E 12 b8 09 0e
        E 12 b8 09 0e
        E 12 b8 09 0d
        E 12 b8 09 0d
        E 12 b8 09 0c
        E 12 b8 09 0b
        E 12 b8 09 0b
        E 12 b8 09 0a
        E 12 b8 09 09
        E 12 b8 09 09
        E 12 b8 09 08
        E 12 b8 09 08
        E 12 b8 09 07
        E 12 b8 09 07
        E 12 b8 09 06
        E 12 b8 09 05
        E 12 b8 09 05
        E 12 b8 09 04
        E 12 b8 09 04
        E 12 b8 09 03
        E 12 b8 09 03
        E 12 b8 09 03
        E 12 b8 09 02
        E 12 b8 09 02
        E 12 b8 09 02
        E 12 b8 09 01
        E 12 b8 09 01
        E 12 b8 09 01
        E 12 b8 09 00
        E 12 b8 09 00
        E 12 b8 09 00
        E 12 b8 09 00
        E 12 b8 09 00
        E 12 b8 09 00
        E 12 b8 09 00
        E 12 b8 09 00
        E 12 b8 09 00
        E 12 b8 09 00
        E 12 b8 09 00
        E 12 b8 09 00
        E 12 b8 09 00
        E 12 b8 09 00
        E 12 b8 09 00
        E 12 b8 09 01
        E 12 b8 09 01
        E 12 b8 09 01
        E 12 b8 09 01
        E 12 b8 09 02
        E 12 b8 09 02
        E 12 b8 09 02
        E 12 b8 09 03
        E 12 b8 09 03
        E 12 b8 09 04
        E 12 b8 09 04
        E 12 b8 09 05
        E 12 b8 09 05
        E 12 b8 09 06
        E 12 b8 09 06
        E 12 b8 09 07
        E 12 b8 09 07
        E 12 b8 09 08
        E 12 b8 09 09
        E 12 b8 09 09
        E 12 b8 09 0a
        E 12 b8 09 0a
        E 12 b8 09 0b
        E 12 b8 09 0c
        E 12 b8 09 0c
        E 4 b8 09 06
        E 4 b8 09 06
        E 4 b8 09 07
        E 4 b8 09 07
        E 4 b8 09 07
        E 4 b8 09 07
        E 4 b8 09 08
        E 4 b8 09 08
        E 4 b8 09 08
        E 4 b8 09 09
        E 4 b8 09 09
        E 4 b8 09 09
        E 4 b8 09 09
        E 4 b8 09 0a
        E 4 b8 09 0a
        E 4 b8 09 0a
        E 4 b8 09 0a
        E 4 b8 09 0b
        E 4 b8 09 0b
        E 4 b8 09 0b
        E 4 b8 09 0b
        E 4 b8 09 0b
        E 4 b8 09 0c
        E 4 b8 09 0c
        E 4 b8 09 0c
        E 4 b8 09 0c
        E 4 b8 09 0c
        E 4 b8 09 0c
        E 4 b8 09 0c
        E 4 b8 09 0c
        E 4 b8 09 0c
        E 4 b8 09 0c
        E 4 b8 09 0c
        E 4 b8 09 0c
        E 4 b8 09 0c
        E 4 b8 09 0c
        E 4 b8 09 0c
        E 4 b8 09 0c
        E 4 b8 09 0c
        E 4 b8 09 0c
        E 4 b8 09 0c
        E 4 b8 09 0c
        E 4 b8 09 0b
        E 4 b8 09 0b
        E 4 b8 09 0b
        E 4 b8 09 0b
        E 4 b8 09 0b
        E 4 b8 09 0b
        E 4 b8 09 0a
        E 4 b8 09 0a
        E 4 b8 09 0a
        E 4 b8 09 0a
        E 4 b8 09 09
        E 4 b8 09 09
        E 4 b8 09 09
        E 4 b8 09 08
        E 4 b8 09 08
        E 4 b8 09 08
        E 4 b8 09 08
        E 4 b8 09 07
        E 4 b8 09 07
        E 4 b8 09 07
        E 4 b8 09 06
        E 4 b8 09 06
        E 4 b8 09 06
        E 4 b8 09 05
        E 4 b8 09 05
        E 4 b8 09 05
        E 4 b8 09 04
        E 4 b8 09 04
        E 4 b8 09 04
        E 4 b8 09 04
        E 4 b8 09 03
        E 4 b8 09 03
        E 4 b8 09 03
        E 4 b8 09 02
        E 4 b8 09 02
        E 4 b8 09 02
        E 4 b8 09 02
        E 4 b8 09 01
        E 4 b8 09 01
        E 4 b8 09 01
        E 4 b8 09 01
        E 4 b8 09 01
        E 4 b8 09 01
        E 4 b8 09 00
        E 4 b8 09 00
        E 4 b8 09 00
        E 4 b8 09 00
        E 4 b8 09 00
        E 4 b8 09 00
        E 4 b8 09 00
        E 4 b8 09 00
        E 4 b8 09 00
        E 4 b8 09 00
        E 4 b8 09 00
        E 4 b8 09 00
        E 4 b8 09 00
        E 4 b8 09 00
        E 4 b8 09 00
        E 4 b8 09 00
        E 4 b8 09 00
        E 4 b8 09 00
        E 4 b8 09 00
        E 4 b8 09 00
        E 4 b8 09 00
        E 4 b8 09 00
        E 4 b8 09 01
        E 4 b8 09 01
        E 4 b8 09 01
        E 4 b8 09 01
        E 4 b8 09 01
        E 4 b8 09 02
        E 4 b8 09 02
        E 4 b8 09 02
        E 4 b8 09 02
        E 4 b8 09 03
        E 4 b8 09 03
        E 4 b8 09 03
        E 4 b8 09 03
        E 4 b8 09 04
        E 4 b8 09 04
        E 4 b8 09 04
        E 4 b8 09 05
        E 4 b8 09 05
        E 4 b8 09 05
        E 4 b8 09 06
        E 4 b8 09 06
        E 14 b8 09 20
        E 14 b8 09 21
        E 14 b8 09 23
        E 14 b8 09 24
        E 14 b8 09 26
        E 14 b8 09 27
        E 14 b8 09 29
        E 14 b8 09 2a
        E 14 b8 09 2c
        E 14 b8 09 2d
        E 14 b8 09 2f
        E 14 b8 09 30
        E 14 b8 09 31
        E 14 b8 09 33
        E 14 b8 09 34
        E 14 b8 09 35
        E 14 b8 09 36
        E 14 b8 09 37
        E 14 b8 09 38
        E 14 b8 09 39
        E 14 b8 09 3a
        E 14 b8 09 3b
        E 14 b8 09 3c
        E 14 b8 09 3c
        E 14 b8 09 3d
        E 14 b8 09 3d
        E 14 b8 09 3e
        E 14 b8 09 3e
        E 14 b8 09 3f
        E 14 b8 09 3f
        E 14 b8 09 3f
        E 14 b8 09 3f
        E 14 b8 09 3f
        E 14 b8 09 3f
        E 14 b8 09 3f
        E 14 b8 09 3f
        E 14 b8 09 3f
        E 14 b8 09 3e
        E 14 b8 09 3e
        E 14 b8 09 3d
        E 14 b8 09 3d
        E 14 b8 09 3c
        E 14 b8 09 3b
        E 14 b8 09 3a
        E 14 b8 09 3a
        E 14 b8 09 39
        E 14 b8 09 38
        E 14 b8 09 37
        E 14 b8 09 36
        E 14 b8 09 34
        E 14 b8 09 33
        E 14 b8 09 32
        E 14 b8 09 31
        E 14 b8 09 2f
        E 14 b8 09 2e
        E 14 b8 09 2c
        E 14 b8 09 2b
        E 14 b8 09 2a
        E 14 b8 09 28
        E 14 b8 09 27
        E 14 b8 09 25
        E 14 b8 09 23
        E 14 b8 09 22
        E 14 b8 09 20
        E 14 b8 09 1f
        E 14 b8 09 1d
        E 14 b8 09 1c
        E 14 b8 09 1a
        E 14 b8 09 18
        E 14 b8 09 17
        E 14 b8 09 15
        E 14 b8 09 14
        E 14 b8 09 13
        E 14 b8 09 11
        E 14 b8 09 10
        E 14 b8 09 0e
        E 14 b8 09 0d
        E 14 b8 09 0c
        E 14 b8 09 0b
        E 14 b8 09 09
        E 14 b8 09 08
        E 14 b8 09 07
        E 14 b8 09 06
        E 14 b8 09 05
        E 14 b8 09 05
        E 14 b8 09 04
        E 14 b8 09 03
        E 14 b8 09 02
        E 14 b8 09 02
        E 14 b8 09 01
        E 14 b8 09 01
        E 14 b8 09 00
        E 14 b8 09 00
        E 14 b8 09 00
        E 14 b8 09 00
        E 14 b8 09 00
        E 14 b8 09 00
        E 14 b8 09 00
        E 14 b8 09 00
        E 14 b8 09 00
        E 14 b8 09 01
        E 14 b8 09 01
        E 14 b8 09 02
        E 14 b8 09 02
        E 14 b8 09 03
        E 14 b8 09 03
        E 14 b8 09 04
        E 14 b8 09 05
        E 14 b8 09 06
        E 14 b8 09 07
        E 14 b8 09 08
        E 14 b8 09 09
        E 14 b8 09 0a
        E 14 b8 09 0b
        E 14 b8 09 0c
        E 14 b8 09 0e
        E 14 b8 09 0f
        E 14 b8 09 10
        E 14 b8 09 12
        E 14 b8 09 13
        E 14 b8 09 15
        E 14 b8 09 16
        E 14 b8 09 18
        E 14 b8 09 19
        E 14 b8 09 1b
        E 14 b8 09 1c
        E 14 b8 09 1e
        E 14 b8 09 20
        E 8 b8 09 19
        E 8 b8 09 1a
        E 8 b8 09 1c
        E 8 b8 09 1d
        E 8 b8 09 1e
        E 8 b8 09 1f
        E 8 b8 09 20
        E 8 b8 09 22
        E 8 b8 09 23
        E 8 b8 09 24
        E 8 b8 09 25
        E 8 b8 09 26
        E 8 b8 09 27
        E 8 b8 09 28
        E 8 b8 09 29
        E 8 b8 09 2a
        E 8 b8 09 2b
        E 8 b8 09 2c
        E 8 b8 09 2d
        E 8 b8 09 2e
        E 8 b8 09 2e
        E 8 b8 09 2f
        E 8 b8 09 30
        E 8 b8 09 30
        E 8 b8 09 30
        E 8 b8 09 31
        E 8 b8 09 31
        E 8 b8 09 32
        E 8 b8 09 32
        E 8 b8 09 32
        E 8 b8 09 32
        E 8 b8 09 32
        E 8 b8 09 32
        E 8 b8 09 32
        E 8 b8 09 32
        E 8 b8 09 32
        E 8 b8 09 32
        E 8 b8 09 32
        E 8 b8 09 31
        E 8 b8 09 31
        E 8 b8 09 30
        E 8 b8 09 30
        E 8 b8 09 2f
        E 8 b8 09 2e
        E 8 b8 09 2e
        E 8 b8 09 2d
        E 8 b8 09 2c
        E 8 b8 09 2c
        E 8 b8 09 2b
        E 8 b8 09 2a
        E 8 b8 09 29
        E 8 b8 09 28
        E 8 b8 09 27
        E 8 b8 09 26
        E 8 b8 09 24
        E 8 b8 09 23
        E 8 b8 09 22
        E 8 b8 09 21
        E 8 b8 09 20
        E 8 b8 09 1f
        E 8 b8 09 1d
        E 8 b8 09 1c
        E 8 b8 09 1b
        E 8 b8 09 1a
        E 8 b8 09 18
        E 8 b8 09 17
        E 8 b8 09 16
        E 8 b8 09 15
        E 8 b8 09 13
        E 8 b8 09 12
        E 8 b8 09 11
        E 8 b8 09 10
        E 8 b8 09 0f
        E 8 b8 09 0e
        E 8 b8 09 0c
        E 8 b8 09 0b
        E 8 b8 09 0a
        E 8 b8 09 09
        E 8 b8 09 08
        E 8 b8 09 07
        E 8 b8 09 06
        E 8 b8 09 06
        E 8 b8 09 05
        E 8 b8 09 04
        E 8 b8 09 04
        E 8 b8 09 03
        E 8 b8 09 02
        E 8 b8 09 02
        E 8 b8 09 01
        E 8 b8 09 01
        E 8 b8 09 00
        E 8 b8 09 00
        E 8 b8 09 00
        E 8 b8 09 00
        E 8 b8 09 00
        E 8 b8 09 00
        E 8 b8 09 00
        E 8 b8 09 00
        E 8 b8 09 00
        E 8 b8 09 00
        E 8 b8 09 00
        E 8 b8 09 01
        E 8 b8 09 01
        E 8 b8 09 02
        E 8 b8 09 02
        E 8 b8 09 02
        E 8 b8 09 03
        E 8 b8 09 04
        E 8 b8 09 04
        E 8 b8 09 05
        E 8 b8 09 06
        E 8 b8 09 07
        E 8 b8 09 08
        E 8 b8 09 09
        E 8 b8 09 0a
        E 8 b8 09 0b
        E 8 b8 09 0c
        E 8 b8 09 0d
        E 8 b8 09 0e
        E 8 b8 09 0f
        E 8 b8 09 10
        E 8 b8 09 12
        E 8 b8 09 13
        E 8 b8 09 14
        E 8 b8 09 15
        E 8 b8 09 16
        E 8 b8 09 18
        E 8 b8 09 19
        E 21 b8 09 06
        E 21 b8 09 06
        E 21 b8 09 07
        E 21 b8 09 07
        E 21 b8 09 07
        E 21 b8 09 07
        E 21 b8 09 08
        E 21 b8 09 08
        E 21 b8 09 08
        E 21 b8 09 09
        E 21 b8 09 09
        E 21 b8 09 09
        E 21 b8 09 09
        E 21 b8 09 0a
        E 21 b8 09 0a
        E 21 b8 09 0a
        E 21 b8 09 0a
        E 21 b8 09 0b
        E 21 b8 09 0b
        E 21 b8 09 0b
        E 21 b8 09 0b
        E 21 b8 09 0b
        E 21 b8 09 0c
        E 21 b8 09 0c
        E 21 b8 09 0c
        E 21 b8 09 0c
        E 21 b8 09 0c
        E 21 b8 09 0c
        E 21 b8 09 0c
        E 21 b8 09 0c
        E 21 b8 09 0c
        E 21 b8 09 0c
        E 21 b8 09 0c
        E 21 b8 09 0c
        E 21 b8 09 0c
        E 21 b8 09 0c
        E 21 b8 09 0c
        E 21 b8 09 0c
        E 21 b8 09 0c
        E 21 b8 09 0c
        E 21 b8 09 0c
        E 21 b8 09 0c
        E 21 b8 09 0b
        E 21 b8 09 0b
        E 21 b8 09 0b
        E 21 b8 09 0b
        E 21 b8 09 0b
        E 21 b8 09 0b
        E 21 b8 09 0a
        E 21 b8 09 0a
        E 21 b8 09 0a
        E 21 b8 09 0a
        E 21 b8 09 09
        E 21 b8 09 09
        E 21 b8 09 09
        E 21 b8 09 08
        E 21 b8 09 08
        E 21 b8 09 08
        E 21 b8 09 08
        E 21 b8 09 07
        E 21 b8 09 07
        E 21 b8 09 07
        E 21 b8 09 06
        E 21 b8 09 06
        E 21 b8 09 06
        E 21 b8 09 05
        E 21 b8 09 05
        E 21 b8 09 05
        E 21 b8 09 04
        E 21 b8 09 04
        E 21 b8 09 04
        E 21 b8 09 04
        E 21 b8 09 03
        E 21 b8 09 03
        E 21 b8 09 03
        E 21 b8 09 02
        E 21 b8 09 02
        E 21 b8 09 02
        E 21 b8 09 02
        E 21 b8 09 01
        E 21 b8 09 01
        E 21 b8 09 01
        E 21 b8 09 01
        E 21 b8 09 01
        E 21 b8 09 01
        E 21 b8 09 00
        E 21 b8 09 00
        E 21 b8 09 00
        E 21 b8 09 00
        E 21 b8 09 00
        E 21 b8 09 00
        E 21 b8 09 00
        E 21 b8 09 00
        E 21 b8 09 00
        E 21 b8 09 00
        E 21 b8 09 00
        E 21 b8 09 00
        E 21 b8 09 00
        E 21 b8 09 00
        E 21 b8 09 00
        E 21 b8 09 00
        E 21 b8 09 00
        E 21 b8 09 00
        E 21 b8 09 00
        E 21 b8 09 00
        E 21 b8 09 00
        E 21 b8 09 00
        E 21 b8 09 01
        E 21 b8 09 01
        E 21 b8 09 01
        E 21 b8 09 01
        E 21 b8 09 01
        E 21 b8 09 02
        E 21 b8 09 02
        E 21 b8 09 02
        E 21 b8 09 02
        E 21 b8 09 03
        E 21 b8 09 03
        E 21 b8 09 03
        E 21 b8 09 03
        E 21 b8 09 04
        E 21 b8 09 04
        E 21 b8 09 04
        E 21 b8 09 05
        E 21 b8 09 05
        E 21 b8 09 05
        E 21 b8 09 06
        E 21 b8 09 06
        E 18 b8 09 39
        E 18 b8 09 3c
        E 18 b8 09 3f
        E 18 b8 09 41
        E 18 b8 09 44
        E 18 b8 09 47
        E 18 b8 09 49
        E 18 b8 09 4c
        E 18 b8 09 4f
        E 18 b8 09 51
        E 18 b8 09 54
        E 18 b8 09 56
        E 18 b8 09 59
        E 18 b8 09 5b
        E 18 b8 09 5d
        E 18 b8 09 5f
        E 18 b8 09 62
        E 18 b8 09 63
        E 18 b8 09 65
        E 18 b8 09 67
        E 18 b8 09 69
        E 18 b8 09 6a
        E 18 b8 09 6c
        E 18 b8 09 6c
        E 18 b8 09 6d
        E 18 b8 09 6e
        E 18 b8 09 6f
        E 18 b8 09 70
        E 18 b8 09 71
        E 18 b8 09 71
        E 18 b8 09 72
        E 18 b8 09 72
        E 18 b8 09 72
        E 18 b8 09 72
        E 18 b8 09 72
        E 18 b8 09 71
        E 18 b8 09 71
        E 18 b8 09 70
        E 18 b8 09 6f
        E 18 b8 09 6e
        E 18 b8 09 6d
        E 18 b8 09 6c
        E 18 b8 09 6b
        E 18 b8 09 69
        E 18 b8 09 68
        E 18 b8 09 66
        E 18 b8 09 64
        E 18 b8 09 63
        E 18 b8 09 61
        E 18 b8 09 5e
        E 18 b8 09 5c
        E 18 b8 09 5a
        E 18 b8 09 58
        E 18 b8 09 55
        E 18 b8 09 52
        E 18 b8 09 50
        E 18 b8 09 4e
        E 18 b8 09 4b
        E 18 b8 09 48
        E 18 b8 09 46
        E 18 b8 09 42
        E 18 b8 09 3f
        E 18 b8 09 3d
        E 18 b8 09 3a
        E 18 b8 09 37
        E 18 b8 09 35
        E 18 b8 09 32
        E 18 b8 09 2f
        E 18 b8 09 2c
        E 18 b8 09 29
        E 18 b8 09 26
        E 18 b8 09 24
        E 18 b8 09 22
        E 18 b8 09 1f
        E 18 b8 09 1c
        E 18 b8 09 1a
        E 18 b8 09 18
        E 18 b8 09 15
        E 18 b8 09 13
        E 18 b8 09 11
        E 18 b8 09 0f
        E 18 b8 09 0d
        E 18 b8 09 0b
        E 18 b8 09 09
        E 18 b8 09 09
        E 18 b8 09 07
        E 18 b8 09 06
        E 18 b8 09 04
        E 18 b8 09 03
        E 18 b8 09 02
        E 18 b8 09 01
        E 18 b8 09 00
        E 18 b8 09 00
        E 18 b8 09 00
        E 18 b8 09 00
        E 18 b8 09 00
        E 18 b8 09 00
        E 18 b8 09 00
        E 18 b8 09 00
        E 18 b8 09 00
        E 18 b8 09 01
        E 18 b8 09 02
        E 18 b8 09 03
        E 18 b8 09 04
        E 18 b8 09 05
        E 18 b8 09 06
        E 18 b8 09 08
        E 18 b8 09 09
        E 18 b8 09 0a
        E 18 b8 09 0c
        E 18 b8 09 0e
        E 18 b8 09 10
        E 18 b8 09 12
        E 18 b8 09 14
        E 18 b8 09 16
        E 18 b8 09 19
        E 18 b8 09 1b
        E 18 b8 09 1d
        E 18 b8 09 20
        E 18 b8 09 23
        E 18 b8 09 25
        E 18 b8 09 28
        E 18 b8 09 2b
        E 18 b8 09 2d
        E 18 b8 09 30
        E 18 b8 09 33
        E 18 b8 09 36
        E 18 b8 09 39
        E 12 b8 09 0c
        E 12 b8 09 0d
        E 12 b8 09 0e
        E 12 b8 09 0e
        E 12 b8 09 0f
        E 12 b8 09 0f
        E 12 b8 09 10
        E 12 b8 09 11
        E 12 b8 09 11
        E 12 b8 09 12
        E 12 b8 09 12
        E 12 b8 09 13
        E 12 b8 09 13
        E 12 b8 09 14
        E 12 b8 09 14
        E 12 b8 09 15
        E 12 b8 09 15
        E 12 b8 09 16
        E 12 b8 09 16
        E 12 b8 09 17
        E 12 b8 09 17
        E 12 b8 09 17
        E 12 b8 09 18
        E 12 b8 09 18
        E 12 b8 09 18
        E 12 b8 09 18
        E 12 b8 09 18
        E 12 b8 09 19
        E 12 b8 09 19
        E 12 b8 09 19
        E 12 b8 09 19
        E 12 b8 09 19
        E 12 b8 09 19
        E 12 b8 09 19
        E 12 b8 09 19
        E 12 b8 09 19
        E 12 b8 09 19
        E 12 b8 09 19
        E 12 b8 09 18
        E 12 b8 09 18
        E 12 b8 09 18
        E 12 b8 09 18
        E 12 b8 09 17
        E 12 b8 09 17
        E 12 b8 09 17
        E 12 b8 09 16
        E 12 b8 09 16
        E 12 b8 09 16
        E 12 b8 09 15
        E 12 b8 09 15
        E 12 b8 09 14
        E 12 b8 09 14
        E 12 b8 09 13
        E 12 b8 09 13
        E 12 b8 09 12
        E 12 b8 09 11
        E 12 b8 09 11
        E 12 b8 09 10
        E 12 b8 09 10
        E 12 b8 09 0f
        E 12 b8 09 0e
        E 12 b8 09 0e
        E 12 b8 09 0d
        E 12 b8 09 0d
        E 12 b8 09 0c
        E 12 b8 09 0b
        E 12 b8 09 0b
        E 12 b8 09 0a
        E 12 b8 09 09
        E 12 b8 09 09
        E 12 b8 09 08
        E 12 b8 09 08
        E 12 b8 09 07
        E 12 b8 09 07
        E 12 b8 09 06
        E 12 b8 09 05
        E 12 b8 09 05
        E 12 b8 09 04
        E 12 b8 09 04
        E 12 b8 09 03
        E 12 b8 09 03
        E 12 b8 09 03
        E 12 b8 09 02
        E 12 b8 09 02
        E 12 b8 09 02
        E 12 b8 09 01
        E 12 b8 09 01
        E 12 b8 09 01
        E 12 b8 09 00
        E 12 b8 09 00
        E 12 b8 09 00
        E 12 b8 09 00
        E 12 b8 09 00
        E 12 b8 09 00
        E 12 b8 09 00
        E 12 b8 09 00
        E 12 b8 09 00
        E 12 b8 09 00
        E 12 b8 09 00
        E 12 b8 09 00
        E 12 b8 09 00
        E 12 b8 09 00
        E 12 b8 09 00
        E 12 b8 09 01
        E 12 b8 09 01
        E 12 b8 09 01
        E 12 b8 09 01
        E 12 b8 09 02
        E 12 b8 09 02
        E 12 b8 09 02
        E 12 b8 09 03
        E 12 b8 09 03
        E 12 b8 09 04
        E 12 b8 09 04
        E 12 b8 09 05
        E 12 b8 09 05
        E 12 b8 09 06
        E 12 b8 09 06
        E 12 b8 09 07
        E 12 b8 09 07
        E 12 b8 09 08
        E 12 b8 09 09
        E 12 b8 09 09
        E 12 b8 09 0a
        E 12 b8 09 0a
        E 12 b8 09 0b
        E 12 b8 09 0c
        E 12 b8 09 0c
        E 4 b8 09 06
        E 4 b8 09 06
        E 4 b8 09 07
        E 4 b8 09 07
        E 4 b8 09 07
        E 4 b8 09 07
        E 4 b8 09 08
        E 4 b8 09 08
        E 4 b8 09 08
        E 4 b8 09 09
        E 4 b8 09 09
        E 4 b8 09 09
        E 4 b8 09 09
        E 4 b8 09 0a
        E 4 b8 09 0a
        E 4 b8 09 0a
        E 4 b8 09 0a
        E 4 b8 09 0b
        E 4 b8 09 0b
        E 4 b8 09 0b
        E 4 b8 09 0b
        E 4 b8 09 0b
        E 4 b8 09 0c
        E 4 b8 09 0c
        E 4 b8 09 0c
        E 4 b8 09 0c
        E 4 b8 09 0c
        E 4 b8 09 0c
        E 4 b8 09 0c
        E 4 b8 09 0c
        E 4 b8 09 0c
        E 4 b8 09 0c
        E 4 b8 09 0c
        E 4 b8 09 0c
        E 4 b8 09 0c
        E 4 b8 09 0c
        E 4 b8 09 0c
        E 4 b8 09 0c
        E 4 b8 09 0c
        E 4 b8 09 0c
        E 4 b8 09 0c
        E 4 b8 09 0c
        E 4 b8 09 0b
        E 4 b8 09 0b
        E 4 b8 09 0b
        E 4 b8 09 0b
        E 4 b8 09 0b
        E 4 b8 09 0b
        E 4 b8 09 0a
        E 4 b8 09 0a
        E 4 b8 09 0a
        E 4 b8 09 0a
        E 4 b8 09 09
        E 4 b8 09 09
        E 4 b8 09 09
        E 4 b8 09 08
        E 4 b8 09 08
        E 4 b8 09 08
        E 4 b8 09 08
        E 4 b8 09 07
        E 4 b8 09 07
        E 4 b8 09 07
        E 4 b8 09 06
        E 4 b8 09 06
        E 4 b8 09 06
        E 4 b8 09 05
        E 4 b8 09 05
        E 4 b8 09 05
        E 4 b8 09 04
        E 4 b8 09 04
        E 4 b8 09 04
        E 4 b8 09 04
        E 4 b8 09 03
        E 4 b8 09 03
        E 4 b8 09 03
        E 4 b8 09 02
        E 4 b8 09 02
        E 4 b8 09 02
        E 4 b8 09 02
        E 4 b8 09 01
        E 4 b8 09 01
        E 4 b8 09 01
        E 4 b8 09 01
        E 4 b8 09 01
        E 4 b8 09 01
        E 4 b8 09 00
        E 4 b8 09 00
        E 4 b8 09 00
        E 4 b8 09 00
        E 4 b8 09 00
        E 4 b8 09 00
        E 4 b8 09 00
        E 4 b8 09 00
        E 4 b8 09 00
        E 4 b8 09 00
        E 4 b8 09 00
        E 4 b8 09 00
        E 4 b8 09 00
        E 4 b8 09 00
        E 4 b8 09 00
        E 4 b8 09 00
        E 4 b8 09 00
        E 4 b8 09 00
        E 4 b8 09 00
        E 4 b8 09 00
        E 4 b8 09 00
        E 4 b8 09 00
        E 4 b8 09 01
        E 4 b8 09 01
        E 4 b8 09 01
        E 4 b8 09 01
        E 4 b8 09 01
        E 4 b8 09 02
        E 4 b8 09 02
        E 4 b8 09 02
        E 4 b8 09 02
        E 4 b8 09 03
        E 4 b8 09 03
        E 4 b8 09 03
        E 4 b8 09 03
        E 4 b8 09 04
        E 4 b8 09 04
        E 4 b8 09 04
        E 4 b8 09 05
        E 4 b8 09 05
        E 4 b8 09 05
        E 4 b8 09 06
        E 4 b8 09 06
        E 60 b8 09 06
        E 60 b8 09 06
        E 60 b8 09 07
        E 60 b8 09 07
        E 60 b8 09 07
        E 60 b8 09 07
        E 60 b8 09 08
        E 60 b8 09 08
        E 60 b8 09 08
        E 60 b8 09 09
        E 60 b8 09 09
        E 60 b8 09 09
        E 60 b8 09 09
        E 60 b8 09 0a
        E 60 b8 09 0a
        E 60 b8 09 0a
        E 60 b8 09 0a
        E 60 b8 09 0b
        E 60 b8 09 0b
        E 60 b8 09 0b
        E 60 b8 09 0b
        E 60 b8 09 0b
        E 60 b8 09 0c
        E 60 b8 09 0c
        E 60 b8 09 0c
        E 60 b8 09 0c
        E 60 b8 09 0c
        E 60 b8 09 0c
        E 60 b8 09 0c
        E 60 b8 09 0c
        E 60 b8 09 0c
        E 60 b8 09 0c
        E 60 b8 09 0c
        E 60 b8 09 0c
        E 60 b8 09 0c
        E 60 b8 09 0c
        E 60 b8 09 0c
        E 60 b8 09 0c
        E 60 b8 09 0c
        E 60 b8 09 0c
        E 60 b8 09 0c
        E 60 b8 09 0c
        E 60 b8 09 0b
        E 60 b8 09 0b
        E 60 b8 09 0b
        E 60 b8 09 0b
        E 60 b8 09 0b
        E 60 b8 09 0b
        E 60 b8 09 0a
        E 60 b8 09 0a
        E 60 b8 09 0a
        E 60 b8 09 0a
        E 60 b8 09 09
        E 60 b8 09 09
        E 60 b8 09 09
        E 60 b8 09 08
        E 60 b8 09 08
        E 60 b8 09 08
        E 60 b8 09 08
        E 60 b8 09 07
        E 60 b8 09 07
        E 60 b8 09 07
        E 60 b8 09 06
        E 60 b8 09 06
        E 60 b8 09 06
        E 60 b8 09 05
        E 60 b8 09 05
        E 60 b8 09 05
        E 60 b8 09 04
        E 60 b8 09 04
        E 60 b8 09 04
        E 60 b8 09 04
        E 60 b8 09 03
        E 60 b8 09 03
        E 60 b8 09 03
        E 60 b8 09 02
        E 60 b8 09 02
        E 60 b8 09 02
        E 60 b8 09 02
        E 60 b8 09 01
        E 60 b8 09 01
        E 60 b8 09 01
        E 60 b8 09 01
        E 60 b8 09 01
        E 60 b8 09 01
        E 60 b8 09 00
        E 60 b8 09 00
        E 60 b8 09 00
        E 60 b8 09 00
        E 60 b8 09 00
        E 60 b8 09 00
        E 60 b8 09 00
        E 60 b8 09 00
        E 60 b8 09 00
        E 60 b8 09 00
        E 60 b8 09 00
        E 60 b8 09 00
        E 60 b8 09 00
        E 60 b8 09 00
        E 60 b8 09 00
        E 60 b8 09 00
        E 60 b8 09 00
        E 60 b8 09 00
        E 60 b8 09 00
        E 60 b8 09 00
        E 60 b8 09 00
        E 60 b8 09 00
        E 60 b8 09 01
        E 60 b8 09 01
        E 60 b8 09 01
        E 60 b8 09 01
        E 60 b8 09 01
        E 60 b8 09 02
        E 60 b8 09 02
        E 60 b8 09 02
        E 60 b8 09 02
        E 60 b8 09 03
        E 60 b8 09 03
        E 60 b8 09 03
        E 60 b8 09 03
        E 60 b8 09 04
        E 60 b8 09 04
        E 60 b8 09 04
        E 60 b8 09 05
        E 60 b8 09 05
        E 60 b8 09 05
        E 60 b8 09 06
        E 60 b8 09 06
        E 54 b8 09 39
        E 54 b8 09 3c
        E 54 b8 09 3f
        E 54 b8 09 41
        E 54 b8 09 44
        E 54 b8 09 47
        E 54 b8 09 49
        E 54 b8 09 4c
        E 54 b8 09 4f
        E 54 b8 09 51
        E 54 b8 09 54
        E 54 b8 09 56
        E 54 b8 09 59
        E 54 b8 09 5b
        E 54 b8 09 5d
        E 54 b8 09 5f
        E 54 b8 09 62
        E 54 b8 09 63
        E 54 b8 09 65
        E 54 b8 09 67
        E 54 b8 09 69
        E 54 b8 09 6a
        E 54 b8 09 6c
        E 54 b8 09 6c
        E 54 b8 09 6d
        E 54 b8 09 6e
        E 54 b8 09 6f
        E 54 b8 09 70
        E 54 b8 09 71
        E 54 b8 09 71
        E 54 b8 09 72
        E 54 b8 09 72
        E 54 b8 09 72
        E 54 b8 09 72
        E 54 b8 09 72
        E 54 b8 09 71
        E 54 b8 09 71
        E 54 b8 09 70
        E 54 b8 09 6f
        E 54 b8 09 6e
        E 54 b8 09 6d
        E 54 b8 09 6c
        E 54 b8 09 6b
        E 54 b8 09 69
        E 54 b8 09 68
        E 54 b8 09 66
        E 54 b8 09 64
        E 54 b8 09 63
        E 54 b8 09 61
        E 54 b8 09 5e
        E 54 b8 09 5c
        E 54 b8 09 5a
        E 54 b8 09 58
        E 54 b8 09 55
        E 54 b8 09 52
        E 54 b8 09 50
        E 54 b8 09 4e
        E 54 b8 09 4b
        E 54 b8 09 48
        E 54 b8 09 46
        E 54 b8 09 42
        E 54 b8 09 3f
        E 54 b8 09 3d
        E 54 b8 09 3a
        E 54 b8 09 37
        E 54 b8 09 35
        E 54 b8 09 32
        E 54 b8 09 2f
        E 54 b8 09 2c
        E 54 b8 09 29
        E 54 b8 09 26
        E 54 b8 09 24
        E 54 b8 09 22
        E 54 b8 09 1f
        E 54 b8 09 1c
        E 54 b8 09 1a
        E 54 b8 09 18
        E 54 b8 09 15
        E 54 b8 09 13
        E 54 b8 09 11
        E 54 b8 09 0f
        E 54 b8 09 0d
        E 54 b8 09 0b
        E 54 b8 09 09
        E 54 b8 09 09
        E 54 b8 09 07
        E 54 b8 09 06
        E 54 b8 09 04
        E 54 b8 09 03
        E 54 b8 09 02
        E 54 b8 09 01
        E 54 b8 09 00
        E 54 b8 09 00
        E 54 b8 09 00
        E 54 b8 09 00
        E 54 b8 09 00
        E 54 b8 09 00
        E 54 b8 09 00
        E 54 b8 09 00
        E 54 b8 09 00
        E 54 b8 09 01
        E 54 b8 09 02
        E 54 b8 09 03
        E 54 b8 09 04
        E 54 b8 09 05
        E 54 b8 09 06
        E 54 b8 09 08
        E 54 b8 09 09
        E 54 b8 09 0a
        E 54 b8 09 0c
        E 54 b8 09 0e
        E 54 b8 09 10
        E 54 b8 09 12
        E 54 b8 09 14
        E 54 b8 09 16
        E 54 b8 09 19
        E 54 b8 09 1b
        E 54 b8 09 1d
        E 54 b8 09 20
        E 54 b8 09 23
        E 54 b8 09 25
        E 54 b8 09 28
        E 54 b8 09 2b
        E 54 b8 09 2d
        E 54 b8 09 30
        E 54 b8 09 33
        E 54 b8 09 36
        E 54 b8 09 39
        E 36 b8 09 0c
        E 36 b8 09 0d
        E 36 b8 09 0e
        E 36 b8 09 0e
        E 36 b8 09 0f
        E 36 b8 09 0f
        E 36 b8 09 10
        E 36 b8 09 11
        E 36 b8 09 11
        E 36 b8 09 12
        E 36 b8 09 12
        E 36 b8 09 13
        E 36 b8 09 13
        E 36 b8 09 14
        E 36 b8 09 14
        E 36 b8 09 15
        E 36 b8 09 15
        E 36 b8 09 16
        E 36 b8 09 16
        E 36 b8 09 17
        E 36 b8 09 17
        E 36 b8 09 17
        E 36 b8 09 18
        E 36 b8 09 18
        E 36 b8 09 18
        E 36 b8 09 18
        E 36 b8 09 18
        E 36 b8 09 19
        E 36 b8 09 19
        E 36 b8 09 19
        E 36 b8 09 19
        E 36 b8 09 19
        E 36 b8 09 19
        E 36 b8 09 19
        E 36 b8 09 19
        E 36 b8 09 19
        E 36 b8 09 19
        E 36 b8 09 19
        E 36 b8 09 18
        E 36 b8 09 18
        E 36 b8 09 18
        E 36 b8 09 18
        E 36 b8 09 17
        E 36 b8 09 17
        E 36 b8 09 17
        E 36 b8 09 16
        E 36 b8 09 16
        E 36 b8 09 16
        E 36 b8 09 15
        E 36 b8 09 15
        E 36 b8 09 14
        E 36 b8 09 14
        E 36 b8 09 13
        E 36 b8 09 13
        E 36 b8 09 12
        E 36 b8 09 11
        E 36 b8 09 11
        E 36 b8 09 10
        E 36 b8 09 10
        E 36 b8 09 0f
        E 36 b8 09 0e
        E 36 b8 09 0e
        E 36 b8 09 0d
        E 36 b8 09 0d
        E 36 b8 09 0c
        E 36 b8 09 0b
        E 36 b8 09 0b
        E 36 b8 09 0a
        E 36 b8 09 09
        E 36 b8 09 09
        E 36 b8 09 08
        E 36 b8 09 08
        E 36 b8 09 07
        E 36 b8 09 07
        E 36 b8 09 06
        E 36 b8 09 05
        E 36 b8 09 05
        E 36 b8 09 04
        E 36 b8 09 04
        E 36 b8 09 03
        E 36 b8 09 03
        E 36 b8 09 03
        E 36 b8 09 02
        E 36 b8 09 02
        E 36 b8 09 02
        E 36 b8 09 01
        E 36 b8 09 01
        E 36 b8 09 01
        E 36 b8 09 00
        E 36 b8 09 00
        E 36 b8 09 00
        E 36 b8 09 00
        E 36 b8 09 00
        E 36 b8 09 00
        E 36 b8 09 00
        E 36 b8 09 00
        E 36 b8 09 00
        E 36 b8 09 00
        E 36 b8 09 00
        E 36 b8 09 00
        E 36 b8 09 00
        E 36 b8 09 00
        E 36 b8 09 00
        E 36 b8 09 01
        E 36 b8 09 01
        E 36 b8 09 01
        E 36 b8 09 01
        E 36 b8 09 02
        E 36 b8 09 02
        E 36 b8 09 02
        E 36 b8 09 03
        E 36 b8 09 03
        E 36 b8 09 04
        E 36 b8 09 04
        E 36 b8 09 05
        E 36 b8 09 05
        E 36 b8 09 06
        E 36 b8 09 06
        E 36 b8 09 07
        E 36 b8 09 07
        E 36 b8 09 08
        E 36 b8 09 09
        E 36 b8 09 09
        E 36 b8 09 0a
        E 36 b8 09 0a
        E 36 b8 09 0b
        E 36 b8 09 0c
        E 36 b8 09 0c
        E 12 b8 09 06
        E 12 b8 09 06
        E 12 b8 09 07
        E 12 b8 09 07
        E 12 b8 09 07
        E 12 b8 09 07
        E 12 b8 09 08
        E 12 b8 09 08
        E 12 b8 09 08
        E 12 b8 09 09
        E 12 b8 09 09
        E 12 b8 09 09
        E 12 b8 09 09
        E 12 b8 09 0a
        E 12 b8 09 0a
        E 12 b8 09 0a
        E 12 b8 09 0a
        E 12 b8 09 0b
        E 12 b8 09 0b
        E 12 b8 09 0b
        E 12 b8 09 0b
        E 12 b8 09 0b
        E 12 b8 09 0c
        E 12 b8 09 0c
        E 12 b8 09 0c
        E 12 b8 09 0c
        E 12 b8 09 0c
        E 12 b8 09 0c
        E 12 b8 09 0c
        E 12 b8 09 0c
        E 12 b8 09 0c
        E 12 b8 09 0c
        E 12 b8 09 0c
        E 12 b8 09 0c
        E 12 b8 09 0c
        E 12 b8 09 0c
        E 12 b8 09 0c
        E 12 b8 09 0c
        E 12 b8 09 0c
        E 12 b8 09 0c
        E 12 b8 09 0c
        E 12 b8 09 0c
        E 12 b8 09 0b
        E 12 b8 09 0b
        E 12 b8 09 0b
        E 12 b8 09 0b
        E 12 b8 09 0b
        E 12 b8 09 0b
        E 12 b8 09 0a
        E 12 b8 09 0a
        E 12 b8 09 0a
        E 12 b8 09 0a
        E 12 b8 09 09
        E 12 b8 09 09
        E 12 b8 09 09
        E 12 b8 09 08
        E 12 b8 09 08
        E 12 b8 09 08
        E 12 b8 09 08
        E 12 b8 09 07
        E 12 b8 09 07
        E 12 b8 09 07
        E 12 b8 09 06
        E 12 b8 09 06
        E 12 b8 09 06
        E 12 b8 09 05
        E 12 b8 09 05
        E 12 b8 09 05
        E 12 b8 09 04
        E 12 b8 09 04
        E 12 b8 09 04
        E 12 b8 09 04
        E 12 b8 09 03
        E 12 b8 09 03
        E 12 b8 09 03
        E 12 b8 09 02
        E 12 b8 09 02
        E 12 b8 09 02
        E 12 b8 09 02
        E 12 b8 09 01
        E 12 b8 09 01
        E 12 b8 09 01
        E 12 b8 09 01
        E 12 b8 09 01
        E 12 b8 09 01
        E 12 b8 09 00
        E 12 b8 09 00
        E 12 b8 09 00
        E 12 b8 09 00
        E 12 b8 09 00
        E 12 b8 09 00
        E 12 b8 09 00
        E 12 b8 09 00
        E 12 b8 09 00
        E 12 b8 09 00
        E 12 b8 09 00
        E 12 b8 09 00
        E 12 b8 09 00
        E 12 b8 09 00
        E 12 b8 09 00
        E 12 b8 09 00
        E 12 b8 09 00
        E 12 b8 09 00
        E 12 b8 09 00
        E 12 b8 09 00
        E 12 b8 09 00
        E 12 b8 09 00
        E 12 b8 09 01
        E 12 b8 09 01
        E 12 b8 09 01
        E 12 b8 09 01
        E 12 b8 09 01
        E 12 b8 09 02
        E 12 b8 09 02
        E 12 b8 09 02
        E 12 b8 09 02
        E 12 b8 09 03
        E 12 b8 09 03
        E 12 b8 09 03
        E 12 b8 09 03
        E 12 b8 09 04
        E 12 b8 09 04
        E 12 b8 09 04
        E 12 b8 09 05
        E 12 b8 09 05
        E 12 b8 09 05
        E 12 b8 09 06
        E 12 b8 09 06
        E 42 b8 09 20
        E 42 b8 09 21
        E 42 b8 09 23
        E 42 b8 09 24
        E 42 b8 09 26
        E 42 b8 09 27
        E 42 b8 09 29
        E 42 b8 09 2a
        E 42 b8 09 2c
        E 42 b8 09 2d
        E 42 b8 09 2f
        E 42 b8 09 30
        E 42 b8 09 31
        E 42 b8 09 33
        E 42 b8 09 34
        E 42 b8 09 35
        E 42 b8 09 36
        E 42 b8 09 37
        E 42 b8 09 38
        E 42 b8 09 39
        E 42 b8 09 3a
        E 42 b8 09 3b
        E 42 b8 09 3c
        E 42 b8 09 3c
        E 42 b8 09 3d
        E 42 b8 09 3d
        E 42 b8 09 3e
        E 42 b8 09 3e
        E 42 b8 09 3f
        E 42 b8 09 3f
        E 42 b8 09 3f
        E 42 b8 09 3f
        E 42 b8 09 3f
        E 42 b8 09 3f
        E 42 b8 09 3f
        E 42 b8 09 3f
        E 42 b8 09 3f
        E 42 b8 09 3e
        E 42 b8 09 3e
        E 42 b8 09 3d
        E 42 b8 09 3d
        E 42 b8 09 3c
        E 42 b8 09 3b
        E 42 b8 09 3a
        E 42 b8 09 3a
        E 42 b8 09 39
        E 42 b8 09 38
        E 42 b8 09 37
        E 42 b8 09 36
        E 42 b8 09 34
        E 42 b8 09 33
        E 42 b8 09 32
        E 42 b8 09 31
        E 42 b8 09 2f
        E 42 b8 09 2e
        E 42 b8 09 2c
        E 42 b8 09 2b
        E 42 b8 09 2a
        E 42 b8 09 28
        E 42 b8 09 27
        E 42 b8 09 25
        E 42 b8 09 23
        E 42 b8 09 22
        E 42 b8 09 20
        E 42 b8 09 1f
        E 42 b8 09 1d
        E 42 b8 09 1c
        E 42 b8 09 1a
        E 42 b8 09 18
        E 42 b8 09 17
        E 42 b8 09 15
        E 42 b8 09 14
        E 42 b8 09 13
        E 42 b8 09 11
        E 42 b8 09 10
        E 42 b8 09 0e
        E 42 b8 09 0d
        E 42 b8 09 0c
        E 42 b8 09 0b
        E 42 b8 09 09
        E 42 b8 09 08
        E 42 b8 09 07
        E 42 b8 09 06
        E 42 b8 09 05
        E 42 b8 09 05
        E 42 b8 09 04
        E 42 b8 09 03
        E 42 b8 09 02
        E 42 b8 09 02
        E 42 b8 09 01
        E 42 b8 09 01
        E 42 b8 09 00
        E 42 b8 09 00
        E 42 b8 09 00
        E 42 b8 09 00
        E 42 b8 09 00
        E 42 b8 09 00
        E 42 b8 09 00
        E 42 b8 09 00
        E 42 b8 09 00
        E 42 b8 09 01
        E 42 b8 09 01
        E 42 b8 09 02
        E 42 b8 09 02
        E 42 b8 09 03
        E 42 b8 09 03
        E 42 b8 09 04
        E 42 b8 09 05
        E 42 b8 09 06
        E 42 b8 09 07
        E 42 b8 09 08
        E 42 b8 09 09
        E 42 b8 09 0a
        E 42 b8 09 0b
        E 42 b8 09 0c
        E 42 b8 09 0e
        E 42 b8 09 0f
        E 42 b8 09 10
        E 42 b8 09 12
        E 42 b8 09 13
        E 42 b8 09 15
        E 42 b8 09 16
        E 42 b8 09 18
        E 42 b8 09 19
        E 42 b8 09 1b
        E 42 b8 09 1c
        E 42 b8 09 1e
        E 42 b8 09 20
        E 24 b8 09 19
        E 24 b8 09 1a
        E 24 b8 09 1c
        E 24 b8 09 1d
        E 24 b8 09 1e
        E 24 b8 09 1f
        E 24 b8 09 20
        E 24 b8 09 22
        E 24 b8 09 23
        E 24 b8 09 24
        E 24 b8 09 25
        E 24 b8 09 26
        E 24 b8 09 27
        E 24 b8 09 28
        E 24 b8 09 29
        E 24 b8 09 2a
        E 24 b8 09 2b
        E 24 b8 09 2c
        E 24 b8 09 2d
        E 24 b8 09 2e
        E 24 b8 09 2e
        E 24 b8 09 2f
        E 24 b8 09 30
        E 24 b8 09 30
        E 24 b8 09 30
        E 24 b8 09 31
        E 24 b8 09 31
        E 24 b8 09 32
        E 24 b8 09 32
        E 24 b8 09 32
        E 24 b8 09 32
        E 24 b8 09 32
        E 24 b8 09 32
        E 24 b8 09 32
        E 24 b8 09 32
        E 24 b8 09 32
        E 24 b8 09 32
        E 24 b8 09 32
        E 24 b8 09 31
        E 24 b8 09 31
        E 24 b8 09 30
        E 24 b8 09 30
        E 24 b8 09 2f
        E 24 b8 09 2e
        E 24 b8 09 2e
        E 24 b8 09 2d
        E 24 b8 09 2c
        E 24 b8 09 2c
        E 24 b8 09 2b
        E 24 b8 09 2a
        E 24 b8 09 29
        E 24 b8 09 28
        E 24 b8 09 27
        E 24 b8 09 26
        E 24 b8 09 24
        E 24 b8 09 23
        E 24 b8 09 22
        E 24 b8 09 21
        E 24 b8 09 20
        E 24 b8 09 1f
        E 24 b8 09 1d
        E 24 b8 09 1c
        E 24 b8 09 1b
        E 24 b8 09 1a
        E 24 b8 09 18
        E 24 b8 09 17
        E 24 b8 09 16
        E 24 b8 09 15
        E 24 b8 09 13
        E 24 b8 09 12
        E 24 b8 09 11
        E 24 b8 09 10
        E 24 b8 09 0f
        E 24 b8 09 0e
        E 24 b8 09 0c
        E 24 b8 09 0b
        E 24 b8 09 0a
        E 24 b8 09 09
        E 24 b8 09 08
        E 24 b8 09 07
        E 24 b8 09 06
        E 24 b8 09 06
        E 24 b8 09 05
        E 24 b8 09 04
        E 24 b8 09 04
        E 24 b8 09 03
        E 24 b8 09 02
        E 24 b8 09 02
        E 24 b8 09 01
        E 24 b8 09 01
        E 24 b8 09 00
        E 24 b8 09 00
        E 24 b8 09 00
        E 24 b8 09 00
        E 24 b8 09 00
        E 24 b8 09 00
        E 24 b8 09 00
        E 24 b8 09 00
        E 24 b8 09 00
        E 24 b8 09 00
        E 24 b8 09 00
        E 24 b8 09 01
        E 24 b8 09 01
        E 24 b8 09 02
        E 24 b8 09 02
        E 24 b8 09 02
        E 24 b8 09 03
        E 24 b8 09 04
        E 24 b8 09 04
        E 24 b8 09 05
        E 24 b8 09 06
        E 24 b8 09 07
        E 24 b8 09 08
        E 24 b8 09 09
        E 24 b8 09 0a
        E 24 b8 09 0b
        E 24 b8 09 0c
        E 24 b8 09 0d
        E 24 b8 09 0e
        E 24 b8 09 0f
        E 24 b8 09 10
        E 24 b8 09 12
        E 24 b8 09 13
        E 24 b8 09 14
        E 24 b8 09 15
        E 24 b8 09 16
        E 24 b8 09 18
        E 24 b8 09 19
        E 60 b8 09 06
        E 60 b8 09 06
        E 60 b8 09 07
        E 60 b8 09 07
        E 60 b8 09 07
        E 60 b8 09 07
        E 60 b8 09 08
        E 60 b8 09 08
        E 60 b8 09 08
        E 60 b8 09 09
        E 60 b8 09 09
        E 60 b8 09 09
        E 60 b8 09 09
        E 60 b8 09 0a
        E 60 b8 09 0a
        E 60 b8 09 0a
        E 60 b8 09 0a
        E 60 b8 09 0b
        E 60 b8 09 0b
        E 60 b8 09 0b
        E 60 b8 09 0b
        E 60 b8 09 0b
        E 60 b8 09 0c
        E 60 b8 09 0c
        E 60 b8 09 0c
        E 60 b8 09 0c
        E 60 b8 09 0c
        E 60 b8 09 0c
        E 60 b8 09 0c
        E 60 b8 09 0c
        E 60 b8 09 0c
        E 60 b8 09 0c
        E 60 b8 09 0c
        E 60 b8 09 0c
        E 60 b8 09 0c
        E 60 b8 09 0c
        E 60 b8 09 0c
        E 60 b8 09 0c
        E 60 b8 09 0c
        E 60 b8 09 0c
        E 60 b8 09 0c
        E 60 b8 09 0c
        E 60 b8 09 0b
        E 60 b8 09 0b
        E 60 b8 09 0b
        E 60 b8 09 0b
        E 60 b8 09 0b
        E 60 b8 09 0b
        E 60 b8 09 0a
        E 60 b8 09 0a
        E 60 b8 09 0a
        E 60 b8 09 0a
        E 60 b8 09 09
        E 60 b8 09 09
        E 60 b8 09 09
        E 60 b8 09 08
        E 60 b8 09 08
        E 60 b8 09 08
        E 60 b8 09 08
        E 60 b8 09 07
        E 60 b8 09 07
        E 60 b8 09 07
        E 60 b8 09 06
        E 60 b8 09 06
        E 60 b8 09 06
        E 60 b8 09 05
        E 60 b8 09 05
        E 60 b8 09 05
        E 60 b8 09 04
        E 60 b8 09 04
        E 60 b8 09 04
        E 60 b8 09 04
        E 60 b8 09 03
        E 60 b8 09 03
        E 60 b8 09 03
        E 60 b8 09 02
        E 60 b8 09 02
        E 60 b8 09 02
        E 60 b8 09 02
        E 60 b8 09 01
        E 60 b8 09 01
        E 60 b8 09 01
        E 60 b8 09 01
        E 60 b8 09 01
        E 60 b8 09 01
        E 60 b8 09 00
        E 60 b8 09 00
        E 60 b8 09 00
        E 60 b8 09 00
        E 60 b8 09 00
        E 60 b8 09 00
        E 60 b8 09 00
        E 60 b8 09 00
        E 60 b8 09 00
        E 60 b8 09 00
        E 60 b8 09 00
        E 60 b8 09 00
        E 60 b8 09 00
        E 60 b8 09 00
        E 60 b8 09 00
        E 60 b8 09 00
        E 60 b8 09 00
        E 60 b8 09 00
        E 60 b8 09 00
        E 60 b8 09 00
        E 60 b8 09 00
        E 60 b8 09 00
        E 60 b8 09 01
        E 60 b8 09 01
        E 60 b8 09 01
        E 60 b8 09 01
        E 60 b8 09 01
        E 60 b8 09 02
        E 60 b8 09 02
        E 60 b8 09 02
        E 60 b8 09 02
        E 60 b8 09 03
        E 60 b8 09 03
        E 60 b8 09 03
        E 60 b8 09 03
        E 60 b8 09 04
        E 60 b8 09 04
        E 60 b8 09 04
        E 60 b8 09 05
        E 60 b8 09 05
        E 60 b8 09 05
        E 60 b8 09 06
        E 60 b8 09 06
        E 54 b8 09 39
        E 54 b8 09 3c
        E 54 b8 09 3f
        E 54 b8 09 41
        E 54 b8 09 44
        E 54 b8 09 47
        E 54 b8 09 49
        E 54 b8 09 4c
        E 54 b8 09 4f
        E 54 b8 09 51
        E 54 b8 09 54
        E 54 b8 09 56
        E 54 b8 09 59
        E 54 b8 09 5b
        E 54 b8 09 5d
        E 54 b8 09 5f
        E 54 b8 09 62
        E 54 b8 09 63
        E 54 b8 09 65
        E 54 b8 09 67
        E 54 b8 09 69
        E 54 b8 09 6a
        E 54 b8 09 6c
        E 54 b8 09 6c
        E 54 b8 09 6d
        E 54 b8 09 6e
        E 54 b8 09 6f
        E 54 b8 09 70
        E 54 b8 09 71
        E 54 b8 09 71
        E 54 b8 09 72
        E 54 b8 09 72
        E 54 b8 09 72
        E 54 b8 09 72
        E 54 b8 09 72
        E 54 b8 09 71
        E 54 b8 09 71
        E 54 b8 09 70
        E 54 b8 09 6f
        E 54 b8 09 6e
        E 54 b8 09 6d
        E 54 b8 09 6c
        E 54 b8 09 6b
        E 54 b8 09 69
        E 54 b8 09 68
        E 54 b8 09 66
        E 54 b8 09 64
        E 54 b8 09 63
        E 54 b8 09 61
        E 54 b8 09 5e
        E 54 b8 09 5c
        E 54 b8 09 5a
        E 54 b8 09 58
        E 54 b8 09 55
        E 54 b8 09 52
        E 54 b8 09 50
        E 54 b8 09 4e
        E 54 b8 09 4b
        E 54 b8 09 48
        E 54 b8 09 46
        E 54 b8 09 42
        E 54 b8 09 3f
        E 54 b8 09 3d
        E 54 b8 09 3a
        E 54 b8 09 37
        E 54 b8 09 35
        E 54 b8 09 32
        E 54 b8 09 2f
        E 54 b8 09 2c
        E 54 b8 09 29
        E 54 b8 09 26
        E 54 b8 09 24
        E 54 b8 09 22
        E 54 b8 09 1f
        E 54 b8 09 1c
        E 54 b8 09 1a
        E 54 b8 09 18
        E 54 b8 09 15
        E 54 b8 09 13
        E 54 b8 09 11
        E 54 b8 09 0f
        E 54 b8 09 0d
        E 54 b8 09 0b
        E 54 b8 09 09
        E 54 b8 09 09
        E 54 b8 09 07
        E 54 b8 09 06
        E 54 b8 09 04
        E 54 b8 09 03
        E 54 b8 09 02
        E 54 b8 09 01
        E 54 b8 09 00
        E 54 b8 09 00
        E 54 b8 09 00
        E 54 b8 09 00
        E 54 b8 09 00
        E 54 b8 09 00
        E 54 b8 09 00
        E 54 b8 09 00
        E 54 b8 09 00
        E 54 b8 09 01
        E 54 b8 09 02
        E 54 b8 09 03
        E 54 b8 09 04
        E 54 b8 09 05
        E 54 b8 09 06
        E 54 b8 09 08
        E 54 b8 09 09
        E 54 b8 09 0a
        E 54 b8 09 0c
        E 54 b8 09 0e
        E 54 b8 09 10
        E 54 b8 09 12
        E 54 b8 09 14
        E 54 b8 09 16
        E 54 b8 09 19
        E 54 b8 09 1b
        E 54 b8 09 1d
        E 54 b8 09 20
        E 54 b8 09 23
        E 54 b8 09 25
        E 54 b8 09 28
        E 54 b8 09 2b
        E 54 b8 09 2d
        E 54 b8 09 30
        E 54 b8 09 33
        E 54 b8 09 36
        E 54 b8 09 39
        E 36 b8 09 0c
        E 36 b8 09 0d
        E 36 b8 09 0e
        E 36 b8 09 0e
        E 36 b8 09 0f
        E 36 b8 09 0f
        E 36 b8 09 10
        E 36 b8 09 11
        E 36 b8 09 11
        E 36 b8 09 12
        E 36 b8 09 12
        E 36 b8 09 13
        E 36 b8 09 13
        E 36 b8 09 14
        E 36 b8 09 14
        E 36 b8 09 15
        E 36 b8 09 15
        E 36 b8 09 16
        E 36 b8 09 16
        E 36 b8 09 17
        E 36 b8 09 17
        E 36 b8 09 17
        E 36 b8 09 18
        E 36 b8 09 18
        E 36 b8 09 18
        E 36 b8 09 18
        E 36 b8 09 18
        E 36 b8 09 19
        E 36 b8 09 19
        E 36 b8 09 19
        E 36 b8 09 19
        E 36 b8 09 19
        E 36 b8 09 19
        E 36 b8 09 19
        E 36 b8 09 19
        E 36 b8 09 19
        E 36 b8 09 19
        E 36 b8 09 19
        E 36 b8 09 18
        E 36 b8 09 18
        E 36 b8 09 18
        E 36 b8 09 18
        E 36 b8 09 17
        E 36 b8 09 17
        E 36 b8 09 17
        E 36 b8 09 16
        E 36 b8 09 16
        E 36 b8 09 16
        E 36 b8 09 15
        E 36 b8 09 15
        E 36 b8 09 14
        E 36 b8 09 14
        E 36 b8 09 13
        E 36 b8 09 13
        E 36 b8 09 12
        E 36 b8 09 11
        E 36 b8 09 11
        E 36 b8 09 10
        E 36 b8 09 10
        E 36 b8 09 0f
        E 36 b8 09 0e
        E 36 b8 09 0e
        E 36 b8 09 0d
        E 36 b8 09 0d
        E 36 b8 09 0c
        E 36 b8 09 0b
        E 36 b8 09 0b
        E 36 b8 09 0a
        E 36 b8 09 09
        E 36 b8 09 09
        E 36 b8 09 08
        E 36 b8 09 08
        E 36 b8 09 07
        E 36 b8 09 07
        E 36 b8 09 06
        E 36 b8 09 05
        E 36 b8 09 05
        E 36 b8 09 04
        E 36 b8 09 04
        E 36 b8 09 03
        E 36 b8 09 03
        E 36 b8 09 03
        E 36 b8 09 02
        E 36 b8 09 02
        E 36 b8 09 02
        E 36 b8 09 01
        E 36 b8 09 01
        E 36 b8 09 01
        E 36 b8 09 00
        E 36 b8 09 00
        E 36 b8 09 00
        E 36 b8 09 00
        E 36 b8 09 00
        E 36 b8 09 00
        E 36 b8 09 00
        E 36 b8 09 00
        E 36 b8 09 00
        E 36 b8 09 00
        E 36 b8 09 00
        E 36 b8 09 00
        E 36 b8 09 00
        E 36 b8 09 00
        E 36 b8 09 00
        E 36 b8 09 01
        E 36 b8 09 01
        E 36 b8 09 01
        E 36 b8 09 01
        E 36 b8 09 02
        E 36 b8 09 02
        E 36 b8 09 02
        E 36 b8 09 03
        E 36 b8 09 03
        E 36 b8 09 04
        E 36 b8 09 04
        E 36 b8 09 05
        E 36 b8 09 05
        E 36 b8 09 06
        E 36 b8 09 06
        E 36 b8 09 07
        E 36 b8 09 07
        E 36 b8 09 08
        E 36 b8 09 09
        E 36 b8 09 09
        E 36 b8 09 0a
        E 36 b8 09 0a
        E 36 b8 09 0b
        E 36 b8 09 0c
        E 36 b8 09 0c
        E 8 b8 09 19
        E 8 b8 09 1a
        E 8 b8 09 1c
        E 8 b8 09 1d
        E 8 b8 09 1e
        E 8 b8 09 1f
        E 8 b8 09 20
        E 8 b8 09 22
        E 8 b8 09 23
        E 8 b8 09 24
        E 8 b8 09 25
        E 8 b8 09 26
        E 8 b8 09 27
        E 8 b8 09 28
        E 8 b8 09 29
        E 8 b8 09 2a
        E 8 b8 09 2b
        E 8 b8 09 2c
        E 8 b8 09 2d
        E 8 b8 09 2e
        E 8 b8 09 2e
        E 8 b8 09 2f
        E 8 b8 09 30
        E 8 b8 09 30
        E 8 b8 09 30
        E 8 b8 09 31
        E 8 b8 09 31
        E 8 b8 09 32
        E 8 b8 09 32
        E 8 b8 09 32
        E 8 b8 09 32
        E 8 b8 09 32
        E 8 b8 09 32
        E 8 b8 09 32
        E 8 b8 09 32
        E 8 b8 09 32
        E 8 b8 09 32
        E 8 b8 09 32
        E 8 b8 09 31
        E 8 b8 09 31
        E 8 b8 09 30
        E 8 b8 09 30
        E 8 b8 09 2f
        E 8 b8 09 2e
        E 8 b8 09 2e
        E 8 b8 09 2d
        E 8 b8 09 2c
        E 8 b8 09 2c
        E 8 b8 09 2b
        E 8 b8 09 2a
        E 8 b8 09 29
        E 8 b8 09 28
        E 8 b8 09 27
        E 8 b8 09 26
        E 8 b8 09 24
        E 8 b8 09 23
        E 8 b8 09 22
        E 8 b8 09 21
        E 8 b8 09 20
        E 8 b8 09 1f
        E 8 b8 09 1d
        E 8 b8 09 1c
        E 8 b8 09 1b
        E 8 b8 09 1a
        E 8 b8 09 18
        E 8 b8 09 17
        E 8 b8 09 16
        E 8 b8 09 15
        E 8 b8 09 13
        E 8 b8 09 12
        E 8 b8 09 11
        E 8 b8 09 10
        E 8 b8 09 0f
        E 8 b8 09 0e
        E 8 b8 09 0c
        E 8 b8 09 0b
        E 8 b8 09 0a
        E 8 b8 09 09
        E 8 b8 09 08
        E 8 b8 09 07
        E 8 b8 09 06
        E 8 b8 09 06
        E 8 b8 09 05
        E 8 b8 09 04
        E 8 b8 09 04
        E 8 b8 09 03
        E 8 b8 09 02
        E 8 b8 09 02
        E 8 b8 09 01
        E 8 b8 09 01
        E 8 b8 09 00
        E 8 b8 09 00
        E 8 b8 09 00
        E 8 b8 09 00
        E 8 b8 09 00
        E 8 b8 09 00
        E 8 b8 09 00
        E 8 b8 09 00
        E 8 b8 09 00
        E 8 b8 09 00
        E 8 b8 09 00
        E 8 b8 09 01
        E 8 b8 09 01
        E 8 b8 09 02
        E 8 b8 09 02
        E 8 b8 09 02
        E 8 b8 09 03
        E 8 b8 09 04
        E 8 b8 09 04
        E 8 b8 09 05
        E 8 b8 09 06
        E 8 b8 09 07
        E 8 b8 09 08
        E 8 b8 09 09
        E 8 b8 09 0a
        E 8 b8 09 0b
        E 8 b8 09 0c
        E 8 b8 09 0d
        E 8 b8 09 0e
        E 8 b8 09 0f
        E 8 b8 09 10
        E 8 b8 09 12
        E 8 b8 09 13
        E 8 b8 09 14
        E 8 b8 09 15
        E 8 b8 09 16
        E 8 b8 09 18
        E 8 b8 09 19
        E 21 b8 09 06
        E 21 b8 09 06
        E 21 b8 09 07
        E 21 b8 09 07
        E 21 b8 09 07
        E 21 b8 09 07
        E 21 b8 09 08
        E 21 b8 09 08
        E 21 b8 09 08
        E 21 b8 09 09
        E 21 b8 09 09
        E 21 b8 09 09
        E 21 b8 09 09
        E 21 b8 09 0a
        E 21 b8 09 0a
        E 21 b8 09 0a
        E 21 b8 09 0a
        E 21 b8 09 0b
        E 21 b8 09 0b
        E 21 b8 09 0b
        E 21 b8 09 0b
        E 21 b8 09 0b
        E 21 b8 09 0c
        E 21 b8 09 0c
        E 21 b8 09 0c
        E 21 b8 09 0c
        E 21 b8 09 0c
        E 21 b8 09 0c
        E 21 b8 09 0c
        E 21 b8 09 0c
        E 21 b8 09 0c
        E 21 b8 09 0c
        E 21 b8 09 0c
        E 21 b8 09 0c
        E 21 b8 09 0c
        E 21 b8 09 0c
        E 21 b8 09 0c
        E 21 b8 09 0c
        E 21 b8 09 0c
        E 21 b8 09 0c
        E 21 b8 09 0c
        E 21 b8 09 0c
        E 21 b8 09 0b
        E 21 b8 09 0b
        E 21 b8 09 0b
        E 21 b8 09 0b
        E 21 b8 09 0b
        E 21 b8 09 0b
        E 21 b8 09 0a
        E 21 b8 09 0a
        E 21 b8 09 0a
        E 21 b8 09 0a
        E 21 b8 09 09
        E 21 b8 09 09
        E 21 b8 09 09
        E 21 b8 09 08
        E 21 b8 09 08
        E 21 b8 09 08
        E 21 b8 09 08
        E 21 b8 09 07
        E 21 b8 09 07
        E 21 b8 09 07
        E 21 b8 09 06
        E 21 b8 09 06
        E 21 b8 09 06
        E 21 b8 09 05
        E 21 b8 09 05
        E 21 b8 09 05
        E 21 b8 09 04
        E 21 b8 09 04
        E 21 b8 09 04
        E 21 b8 09 04
        E 21 b8 09 03
        E 21 b8 09 03
        E 21 b8 09 03
        E 21 b8 09 02
        E 21 b8 09 02
        E 21 b8 09 02
        E 21 b8 09 02
        E 21 b8 09 01
        E 21 b8 09 01
        E 21 b8 09 01
        E 21 b8 09 01
        E 21 b8 09 01
        E 21 b8 09 01
        E 21 b8 09 00
        E 21 b8 09 00
        E 21 b8 09 00
        E 21 b8 09 00
        E 21 b8 09 00
        E 21 b8 09 00
        E 21 b8 09 00
        E 21 b8 09 00
        E 21 b8 09 00
        E 21 b8 09 00
        E 21 b8 09 00
        E 21 b8 09 00
        E 21 b8 09 00
        E 21 b8 09 00
        E 21 b8 09 00
        E 21 b8 09 00
        E 21 b8 09 00
        E 21 b8 09 00
        E 21 b8 09 00
        E 21 b8 09 00
        E 21 b8 09 00
        E 21 b8 09 00
        E 21 b8 09 01
        E 21 b8 09 01
        E 21 b8 09 01
        E 21 b8 09 01
        E 21 b8 09 01
        E 21 b8 09 02
        E 21 b8 09 02
        E 21 b8 09 02
        E 21 b8 09 02
        E 21 b8 09 03
        E 21 b8 09 03
        E 21 b8 09 03
        E 21 b8 09 03
        E 21 b8 09 04
        E 21 b8 09 04
        E 21 b8 09 04
        E 21 b8 09 05
        E 21 b8 09 05
        E 21 b8 09 05
        E 21 b8 09 06
        E 21 b8 09 06
        E 18 b8 09 39
        E 18 b8 09 3c
        E 18 b8 09 3f
        E 18 b8 09 41
        E 18 b8 09 44
        E 18 b8 09 47
        E 18 b8 09 49
        E 18 b8 09 4c
        E 18 b8 09 4f
        E 18 b8 09 51
        E 18 b8 09 54
        E 18 b8 09 56
        E 18 b8 09 59
        E 18 b8 09 5b
        E 18 b8 09 5d
        E 18 b8 09 5f
        E 18 b8 09 62
        E 18 b8 09 63
        E 18 b8 09 65
        E 18 b8 09 67
        E 18 b8 09 69
        E 18 b8 09 6a
        E 18 b8 09 6c
        E 18 b8 09 6c
        E 18 b8 09 6d
        E 18 b8 09 6e
        E 18 b8 09 6f
        E 18 b8 09 70
        E 18 b8 09 71
        E 18 b8 09 71
        E 18 b8 09 72
        E 18 b8 09 72
        E 18 b8 09 72
        E 18 b8 09 72
        E 18 b8 09 72
        E 18 b8 09 71
        E 18 b8 09 71
        E 18 b8 09 70
        E 18 b8 09 6f
        E 18 b8 09 6e
        E 18 b8 09 6d
        E 18 b8 09 6c
        E 18 b8 09 6b
        E 18 b8 09 69
        E 18 b8 09 68
        E 18 b8 09 66
        E 18 b8 09 64
        E 18 b8 09 63
        E 18 b8 09 61
        E 18 b8 09 5e
        E 18 b8 09 5c
        E 18 b8 09 5a
        E 18 b8 09 58
        E 18 b8 09 55
        E 18 b8 09 52
        E 18 b8 09 50
        E 18 b8 09 4e
        E 18 b8 09 4b
        E 18 b8 09 48
        E 18 b8 09 46
        E 18 b8 09 42
        E 18 b8 09 3f
        E 18 b8 09 3d
        E 18 b8 09 3a
        E 18 b8 09 37
        E 18 b8 09 35
        E 18 b8 09 32
        E 18 b8 09 2f
        E 18 b8 09 2c
        E 18 b8 09 29
        E 18 b8 09 26
        E 18 b8 09 24
        E 18 b8 09 22
        E 18 b8 09 1f
        E 18 b8 09 1c
        E 18 b8 09 1a
        E 18 b8 09 18
        E 18 b8 09 15
        E 18 b8 09 13
        E 18 b8 09 11
        E 18 b8 09 0f
        E 18 b8 09 0d
        E 18 b8 09 0b
        E 18 b8 09 09
        E 18 b8 09 09
        E 18 b8 09 07
        E 18 b8 09 06
        E 18 b8 09 04
        E 18 b8 09 03
        E 18 b8 09 02
        E 18 b8 09 01
        E 18 b8 09 00
        E 18 b8 09 00
        E 18 b8 09 00
        E 18 b8 09 00
        E 18 b8 09 00
        E 18 b8 09 00
        E 18 b8 09 00
        E 18 b8 09 00
        E 18 b8 09 00
        E 18 b8 09 01
        E 18 b8 09 02
        E 18 b8 09 03
        E 18 b8 09 04
        E 18 b8 09 05
        E 18 b8 09 06
        E 18 b8 09 08
        E 18 b8 09 09
        E 18 b8 09 0a
        E 18 b8 09 0c
        E 18 b8 09 0e
        E 18 b8 09 10
        E 18 b8 09 12
        E 18 b8 09 14
        E 18 b8 09 16
        E 18 b8 09 19
        E 18 b8 09 1b
        E 18 b8 09 1d
        E 18 b8 09 20
        E 18 b8 09 23
        E 18 b8 09 25
        E 18 b8 09 28
        E 18 b8 09 2b
        E 18 b8 09 2d
        E 18 b8 09 30
        E 18 b8 09 33
        E 18 b8 09 36
        E 18 b8 09 39
        E 12 b8 09 0c
        E 12 b8 09 0d
        E 12 b8 09 0e
        E 12 b8 09 0e
        E 12 b8 09 0f
        E 12 b8 09 0f
        E 12 b8 09 10
        E 12 b8 09 11
        E 12 b8 09 11
        E 12 b8 09 12
        E 12 b8 09 12
        E 12 b8 09 13
        E 12 b8 09 13
        E 12 b8 09 14
        E 12 b8 09 14
        E 12 b8 09 15
        E 12 b8 09 15
        E 12 b8 09 16
        E 12 b8 09 16
        E 12 b8 09 17
        E 12 b8 09 17
        E 12 b8 09 17
        E 12 b8 09 18
        E 12 b8 09 18
        E 12 b8 09 18
        E 12 b8 09 18
        E 12 b8 09 18
        E 12 b8 09 19
        E 12 b8 09 19
        E 12 b8 09 19
        E 12 b8 09 19
        E 12 b8 09 19
        E 12 b8 09 19
        E 12 b8 09 19
        E 12 b8 09 19
        E 12 b8 09 19
        E 12 b8 09 19
        E 12 b8 09 19
        E 12 b8 09 18
        E 12 b8 09 18
        E 12 b8 09 18
        E 12 b8 09 18
        E 12 b8 09 17
        E 12 b8 09 17
        E 12 b8 09 17
        E 12 b8 09 16
        E 12 b8 09 16
        E 12 b8 09 16
        E 12 b8 09 15
        E 12 b8 09 15
        E 12 b8 09 14
        E 12 b8 09 14
        E 12 b8 09 13
        E 12 b8 09 13
        E 12 b8 09 12
        E 12 b8 09 11
        E 12 b8 09 11
        E 12 b8 09 10
        E 12 b8 09 10
        E 12 b8 09 0f
        E 12 b8 09 0e
        E 12 b8 09 0e
        E 12 b8 09 0d
        E 12 b8 09 0d
        E 12 b8 09 0c
        E 12 b8 09 0b
        E 12 b8 09 0b
        E 12 b8 09 0a
        E 12 b8 09 09
        E 12 b8 09 09
        E 12 b8 09 08
        E 12 b8 09 08
        E 12 b8 09 07
        E 12 b8 09 07
        E 12 b8 09 06
        E 12 b8 09 05
        E 12 b8 09 05
        E 12 b8 09 04
        E 12 b8 09 04
        E 12 b8 09 03
        E 12 b8 09 03
        E 12 b8 09 03
        E 12 b8 09 02
        E 12 b8 09 02
        E 12 b8 09 02
        E 12 b8 09 01
        E 12 b8 09 01
        E 12 b8 09 01
        E 12 b8 09 00
        E 12 b8 09 00
        E 12 b8 09 00
        E 12 b8 09 00
        E 12 b8 09 00
        E 12 b8 09 00
        E 12 b8 09 00
        E 12 b8 09 00
        E 12 b8 09 00
        E 12 b8 09 00
        E 12 b8 09 00
        E 12 b8 09 00
        E 12 b8 09 00
        E 12 b8 09 00
        E 12 b8 09 00
        E 12 b8 09 01
        E 12 b8 09 01
        E 12 b8 09 01
        E 12 b8 09 01
        E 12 b8 09 02
        E 12 b8 09 02
        E 12 b8 09 02
        E 12 b8 09 03
        E 12 b8 09 03
        E 12 b8 09 04
        E 12 b8 09 04
        E 12 b8 09 05
        E 12 b8 09 05
        E 12 b8 09 06
        E 12 b8 09 06
        E 12 b8 09 07
        E 12 b8 09 07
        E 12 b8 09 08
        E 12 b8 09 09
        E 12 b8 09 09
        E 12 b8 09 0a
        E 12 b8 09 0a
        E 12 b8 09 0b
        E 12 b8 09 0c
        E 12 b8 09 0c
        E 4 b8 09 06
        E 4 b8 09 06
        E 4 b8 09 07
        E 4 b8 09 07
        E 4 b8 09 07
        E 4 b8 09 07
        E 4 b8 09 08
        E 4 b8 09 08
        E 4 b8 09 08
        E 4 b8 09 09
        E 4 b8 09 09
        E 4 b8 09 09
        E 4 b8 09 09
        E 4 b8 09 0a
        E 4 b8 09 0a
        E 4 b8 09 0a
        E 4 b8 09 0a
        E 4 b8 09 0b
        E 4 b8 09 0b
        E 4 b8 09 0b
        E 4 b8 09 0b
        E 4 b8 09 0b
        E 4 b8 09 0c
        E 4 b8 09 0c
        E 4 b8 09 0c
        E 4 b8 09 0c
        E 4 b8 09 0c
        E 4 b8 09 0c
        E 4 b8 09 0c
        E 4 b8 09 0c
        E 4 b8 09 0c
        E 4 b8 09 0c
        E 4 b8 09 0c
        E 4 b8 09 0c
        E 4 b8 09 0c
        E 4 b8 09 0c
        E 4 b8 09 0c
        E 4 b8 09 0c
        E 4 b8 09 0c
        E 4 b8 09 0c
        E 4 b8 09 0c
        E 4 b8 09 0c
        E 4 b8 09 0b
        E 4 b8 09 0b
        E 4 b8 09 0b
        E 4 b8 09 0b
        E 4 b8 09 0b
        E 4 b8 09 0b
        E 4 b8 09 0a
        E 4 b8 09 0a
        E 4 b8 09 0a
        E 4 b8 09 0a
        E 4 b8 09 09
        E 4 b8 09 09
        E 4 b8 09 09
        E 4 b8 09 08
        E 4 b8 09 08
        E 4 b8 09 08
        E 4 b8 09 08
        E 4 b8 09 07
        E 4 b8 09 07
        E 4 b8 09 07
        E 4 b8 09 06
        E 4 b8 09 06
        E 4 b8 09 06
        E 4 b8 09 05
        E 4 b8 09 05
        E 4 b8 09 05
        E 4 b8 09 04
        E 4 b8 09 04
        E 4 b8 09 04
        E 4 b8 09 04
        E 4 b8 09 03
        E 4 b8 09 03
        E 4 b8 09 03
        E 4 b8 09 02
        E 4 b8 09 02
        E 4 b8 09 02
        E 4 b8 09 02
        E 4 b8 09 01
        E 4 b8 09 01
        E 4 b8 09 01
        E 4 b8 09 01
        E 4 b8 09 01
        E 4 b8 09 01
        E 4 b8 09 00
        E 4 b8 09 00
        E 4 b8 09 00
        E 4 b8 09 00
        E 4 b8 09 00
        E 4 b8 09 00
        E 4 b8 09 00
        E 4 b8 09 00
        E 4 b8 09 00
        E 4 b8 09 00
        E 4 b8 09 00
        E 4 b8 09 00
        E 4 b8 09 00
        E 4 b8 09 00
        E 4 b8 09 00
        E 4 b8 09 00
        E 4 b8 09 00
        E 4 b8 09 00
        E 4 b8 09 00
        E 4 b8 09 00
        E 4 b8 09 00
        E 4 b8 09 00
        E 4 b8 09 01
        E 4 b8 09 01
        E 4 b8 09 01
        E 4 b8 09 01
        E 4 b8 09 01
        E 4 b8 09 02
        E 4 b8 09 02
        E 4 b8 09 02
        E 4 b8 09 02
        E 4 b8 09 03
        E 4 b8 09 03
        E 4 b8 09 03
        E 4 b8 09 03
        E 4 b8 09 04
        E 4 b8 09 04
        E 4 b8 09 04
        E 4 b8 09 05
        E 4 b8 09 05
        E 4 b8 09 05
        E 4 b8 09 06
        E 4 b8 09 06
        E 14 b8 09 20
        E 14 b8 09 21
        E 14 b8 09 23
        E 14 b8 09 24
        E 14 b8 09 26
        E 14 b8 09 27
        E 14 b8 09 29
        E 14 b8 09 2a
        E 14 b8 09 2c
        E 14 b8 09 2d
        E 14 b8 09 2f
        E 14 b8 09 30
        E 14 b8 09 31
        E 14 b8 09 33
        E 14 b8 09 34
        E 14 b8 09 35
        E 14 b8 09 36
        E 14 b8 09 37
        E 14 b8 09 38
        E 14 b8 09 39
        E 14 b8 09 3a
        E 14 b8 09 3b
        E 14 b8 09 3c
        E 14 b8 09 3c
        E 14 b8 09 3d
        E 14 b8 09 3d
        E 14 b8 09 3e
        E 14 b8 09 3e
        E 14 b8 09 3f
        E 14 b8 09 3f
        E 14 b8 09 3f
        E 14 b8 09 3f
        E 14 b8 09 3f
        E 14 b8 09 3f
        E 14 b8 09 3f
        E 14 b8 09 3f
        E 14 b8 09 3f
        E 14 b8 09 3e
        E 14 b8 09 3e
        E 14 b8 09 3d
        E 14 b8 09 3d
        E 14 b8 09 3c
        E 14 b8 09 3b
        E 14 b8 09 3a
        E 14 b8 09 3a
        E 14 b8 09 39
        E 14 b8 09 38
        E 14 b8 09 37
        E 14 b8 09 36
        E 14 b8 09 34
        E 14 b8 09 33
        E 14 b8 09 32
        E 14 b8 09 31
        E 14 b8 09 2f
        E 14 b8 09 2e
        E 14 b8 09 2c
        E 14 b8 09 2b
        E 14 b8 09 2a
        E 14 b8 09 28
        E 14 b8 09 27
        E 14 b8 09 25
        E 14 b8 09 23
        E 14 b8 09 22
        E 14 b8 09 20
        E 14 b8 09 1f
        E 14 b8 09 1d
        E 14 b8 09 1c
        E 14 b8 09 1a
        E 14 b8 09 18
        E 14 b8 09 17
        E 14 b8 09 15
        E 14 b8 09 14
        E 14 b8 09 13
        E 14 b8 09 11
        E 14 b8 09 10
        E 14 b8 09 0e
        E 14 b8 09 0d
        E 14 b8 09 0c
        E 14 b8 09 0b
        E 14 b8 09 09
        E 14 b8 09 08
        E 14 b8 09 07
        E 14 b8 09 06
        E 14 b8 09 05
        E 14 b8 09 05
        E 14 b8 09 04
        E 14 b8 09 03
        E 14 b8 09 02
        E 14 b8 09 02
        E 14 b8 09 01
        E 14 b8 09 01
        E 14 b8 09 00
        E 14 b8 09 00
        E 14 b8 09 00
        E 14 b8 09 00
        E 14 b8 09 00
        E 14 b8 09 00
        E 14 b8 09 00
        E 14 b8 09 00
        E 14 b8 09 00
        E 14 b8 09 01
        E 14 b8 09 01
        E 14 b8 09 02
        E 14 b8 09 02
        E 14 b8 09 03
        E 14 b8 09 03
        E 14 b8 09 04
        E 14 b8 09 05
        E 14 b8 09 06
        E 14 b8 09 07
        E 14 b8 09 08
        E 14 b8 09 09
        E 14 b8 09 0a
        E 14 b8 09 0b
        E 14 b8 09 0c
        E 14 b8 09 0e
        E 14 b8 09 0f
        E 14 b8 09 10
        E 14 b8 09 12
        E 14 b8 09 13
        E 14 b8 09 15
        E 14 b8 09 16
        E 14 b8 09 18
        E 14 b8 09 19
        E 14 b8 09 1b
        E 14 b8 09 1c
        E 14 b8 09 1e
        E 14 b8 09 20
        E 8 b8 09 19
        E 8 b8 09 1a
        E 8 b8 09 1c
        E 8 b8 09 1d
        E 8 b8 09 1e
        E 8 b8 09 1f
        E 8 b8 09 20
        E 8 b8 09 22
        E 8 b8 09 23
        E 8 b8 09 24
        E 8 b8 09 25
        E 8 b8 09 26
        E 8 b8 09 27
        E 8 b8 09 28
        E 8 b8 09 29
        E 8 b8 09 2a
        E 8 b8 09 2b
        E 8 b8 09 2c
        E 8 b8 09 2d
        E 8 b8 09 2e
        E 8 b8 09 2e
        E 8 b8 09 2f
        E 8 b8 09 30
        E 8 b8 09 30
        E 8 b8 09 30
        E 8 b8 09 31
        E 8 b8 09 31
        E 8 b8 09 32
        E 8 b8 09 32
        E 8 b8 09 32
        E 8 b8 09 32
        E 8 b8 09 32
        E 8 b8 09 32
        E 8 b8 09 32
        E 8 b8 09 32
        E 8 b8 09 32
        E 8 b8 09 32
        E 8 b8 09 32
        E 8 b8 09 31
        E 8 b8 09 31
        E 8 b8 09 30
        E 8 b8 09 30
        E 8 b8 09 2f
        E 8 b8 09 2e
        E 8 b8 09 2e
        E 8 b8 09 2d
        E 8 b8 09 2c
        E 8 b8 09 2c
        E 8 b8 09 2b
        E 8 b8 09 2a
        E 8 b8 09 29
        E 8 b8 09 28
        E 8 b8 09 27
        E 8 b8 09 26
        E 8 b8 09 24
        E 8 b8 09 23
        E 8 b8 09 22
        E 8 b8 09 21
        E 8 b8 09 20
        E 8 b8 09 1f
        E 8 b8 09 1d
        E 8 b8 09 1c
        E 8 b8 09 1b
        E 8 b8 09 1a
        E 8 b8 09 18
        E 8 b8 09 17
        E 8 b8 09 16
        E 8 b8 09 15
        E 8 b8 09 13
        E 8 b8 09 12
        E 8 b8 09 11
        E 8 b8 09 10
        E 8 b8 09 0f
        E 8 b8 09 0e
        E 8 b8 09 0c
        E 8 b8 09 0b
        E 8 b8 09 0a
        E 8 b8 09 09
        E 8 b8 09 08
        E 8 b8 09 07
        E 8 b8 09 06
        E 8 b8 09 06
        E 8 b8 09 05
        E 8 b8 09 04
        E 8 b8 09 04
        E 8 b8 09 03
        E 8 b8 09 02
        E 8 b8 09 02
        E 8 b8 09 01
        E 8 b8 09 01
        E 8 b8 09 00
        E 8 b8 09 00
        E 8 b8 09 00
        E 8 b8 09 00
        E 8 b8 09 00
        E 8 b8 09 00
        E 8 b8 09 00
        E 8 b8 09 00
        E 8 b8 09 00
        E 8 b8 09 00
        E 8 b8 09 00
        E 8 b8 09 01
        E 8 b8 09 01
        E 8 b8 09 02
        E 8 b8 09 02
        E 8 b8 09 02
        E 8 b8 09 03
        E 8 b8 09 04
        E 8 b8 09 04
        E 8 b8 09 05
        E 8 b8 09 06
        E 8 b8 09 07
        E 8 b8 09 08
        E 8 b8 09 09
        E 8 b8 09 0a
        E 8 b8 09 0b
        E 8 b8 09 0c
        E 8 b8 09 0d
        E 8 b8 09 0e
        E 8 b8 09 0f
        E 8 b8 09 10
        E 8 b8 09 12
        E 8 b8 09 13
        E 8 b8 09 14
        E 8 b8 09 15
        E 8 b8 09 16
        E 8 b8 09 18
        E 8 b8 09 19
        E 100 b0 7b 00
        CCINTERP 32
        CHASE_CC_TAKEOFFS 1
        GUID {86F1C799-DB4D-3C4D-8B8D-7B0EA8E70903}
        IGNTEMPO 0 120 4 4
        SRCCOLOR 418
        VELLANE 3 601 0
        VELLANE -1 196 0
      >
    >
  >
  <TRACK {5DD29C42-9153-D144-A63E-08BE35AB9A6A}
    NAME "xbox 360 portal 2 video game disc"
    PEAKCOL 16576
    BEAT -1
    AUTOMODE 0
    VOLPAN 1 0 -1 -1 1
    MUTESOLO 0 0 0
    IPHASE 0
    PLAYOFFS 0 1
    ISBUS 0 0
    BUSCOMP 0 0 0 0 0
    SHOWINMIX 1 0.6667 0.5 1 0.5 -1 -1 -1
    FREEMODE 0
    SEL 0
    REC 0 0 1 0 0 0 0
    VU 2
    TRACKHEIGHT 0 1 0 0 -1 0
    INQ 0 0 0 0.5 100 0 0 100
    NCHAN 2
    FX 1
    TRACKID {5DD29C42-9153-D144-A63E-08BE35AB9A6A}
    PERF 0
    MIDIOUT -1
    MAINSEND 1 0
    <ITEM
      POSITION 0
      SNAPOFFS 0
      LENGTH 106.666624
      LOOP 1
      ALLTAKES 0
      FADEIN 1 0 0 1 0 0
      FADEOUT 1 0 0 1 0 0
      MUTE 0 0
      SEL 0
      IGUID {A39243D9-A005-CD4F-8F47-D39CE278C9AD}
      IID 22
      NAME "xbox 360 portal 2 video game disc.mid"
      VOLPAN 1 0 1 -1
      SOFFS 0 0
      PLAYRATE 1 1 0 -1 0 0.0025
      CHANMODE 0
      GUID {DF5551D1-DBDA-844B-9841-ADBB02FEB0D0}
      <SOURCE MIDI
        HASDATA 1 128 QN
        CCINTERP 32
        POOLEDEVTS {2B2F8CDF-F79F-E840-B7ED-A28782FAA99C}
        E 4 b9 02 01
        E 4 b9 02 02
        E 4 b9 02 04
        E 4 b9 02 05
        E 4 b9 02 07
        E 4 b9 02 08
        E 4 b9 02 09
        E 4 b9 02 0b
        E 4 b9 02 0c
        E 4 b9 02 0e
        E 4 b9 02 0f
        E 4 b9 02 10
        E 4 b9 02 12
        E 4 b9 02 13
        E 4 b9 02 15
        E 4 b9 02 16
        E 4 b9 02 17
        E 4 b9 02 19
        E 4 b9 02 1a
        E 4 b9 02 1c
        E 4 b9 02 1d
        E 4 b9 02 1e
        E 4 b9 02 20
        E 4 b9 02 21
        E 4 b9 02 23
        E 4 b9 02 24
        E 4 b9 02 25
        E 4 b9 02 27
        E 4 b9 02 28
        E 4 b9 02 2a
        E 4 b9 02 2b
        E 4 b9 02 2c
        E 4 b9 02 2e
        E 4 b9 02 2f
        E 4 b9 02 31
        E 4 b9 02 32
        E 4 b9 02 33
        E 4 b9 02 35
        E 4 b9 02 36
        E 4 b9 02 38
        E 4 b9 02 39
        E 4 b9 02 3a
        E 4 b9 02 3c
        E 4 b9 02 3d
        E 4 b9 02 3e
        E 4 b9 02 40
        E 4 b9 02 41
        E 4 b9 02 43
        E 4 b9 02 44
        E 4 b9 02 46
        E 4 b9 02 47
        E 4 b9 02 48
        E 4 b9 02 4a
        E 4 b9 02 4b
        E 4 b9 02 4d
        E 4 b9 02 4e
        E 4 b9 02 4f
        E 4 b9 02 51
        E 4 b9 02 52
        E 4 b9 02 54
        E 4 b9 02 55
        E 4 b9 02 56
        E 4 b9 02 58
        E 4 b9 02 58
        E 4 b9 02 58
        E 4 b9 02 56
        E 4 b9 02 55
        E 4 b9 02 54
        E 4 b9 02 52
        E 4 b9 02 51
        E 4 b9 02 4f
        E 4 b9 02 4e
        E 4 b9 02 4d
        E 4 b9 02 4b
        E 4 b9 02 4a
        E 4 b9 02 48
        E 4 b9 02 47
        E 4 b9 02 46
        E 4 b9 02 44
        E 4 b9 02 43
        E 4 b9 02 41
        E 4 b9 02 40
        E 4 b9 02 3e
        E 4 b9 02 3d
        E 4 b9 02 3c
        E 4 b9 02 3a
        E 4 b9 02 39
        E 4 b9 02 38
        E 4 b9 02 36
        E 4 b9 02 35
        E 4 b9 02 33
        E 4 b9 02 32
        E 4 b9 02 31
        E 4 b9 02 2f
        E 4 b9 02 2e
        E 4 b9 02 2c
        E 4 b9 02 2b
        E 4 b9 02 2a
        E 4 b9 02 28
        E 4 b9 02 27
        E 4 b9 02 25
        E 4 b9 02 24
        E 4 b9 02 23
        E 4 b9 02 21
        E 4 b9 02 20
        E 4 b9 02 1e
        E 4 b9 02 1d
        E 4 b9 02 1c
        E 4 b9 02 1a
        E 4 b9 02 19
        E 4 b9 02 17
        E 4 b9 02 16
        E 4 b9 02 15
        E 4 b9 02 13
        E 4 b9 02 12
        E 4 b9 02 10
        E 4 b9 02 0f
        E 4 b9 02 0e
        E 4 b9 02 0c
        E 4 b9 02 0b
        E 4 b9 02 09
        E 4 b9 02 08
        E 4 b9 02 07
        E 4 b9 02 05
        E 4 b9 02 04
        E 4 b9 02 02
        E 4 b9 02 01
        E 4 b9 02 00
        E 1 b9 02 00
        E 1 b9 02 01
        E 1 b9 02 02
        E 1 b9 02 03
        E 1 b9 02 04
        E 1 b9 02 04
        E 1 b9 02 05
        E 1 b9 02 06
        E 1 b9 02 07
        E 1 b9 02 08
        E 1 b9 02 08
        E 1 b9 02 09
        E 1 b9 02 0a
        E 1 b9 02 0b
        E 1 b9 02 0c
        E 1 b9 02 0c
        E 1 b9 02 0d
        E 1 b9 02 0e
        E 1 b9 02 0f
        E 1 b9 02 10
        E 1 b9 02 10
        E 1 b9 02 11
        E 1 b9 02 12
        E 1 b9 02 13
        E 1 b9 02 14
        E 1 b9 02 14
        E 1 b9 02 15
        E 1 b9 02 16
        E 1 b9 02 17
        E 1 b9 02 18
        E 1 b9 02 18
        E 1 b9 02 19
        E 1 b9 02 1a
        E 1 b9 02 1b
        E 1 b9 02 1c
        E 1 b9 02 1c
        E 1 b9 02 1d
        E 1 b9 02 1e
        E 1 b9 02 1f
        E 1 b9 02 20
        E 1 b9 02 20
        E 1 b9 02 21
        E 1 b9 02 22
        E 1 b9 02 23
        E 1 b9 02 24
        E 1 b9 02 24
        E 1 b9 02 25
        E 1 b9 02 26
        E 1 b9 02 27
        E 1 b9 02 28
        E 1 b9 02 28
        E 1 b9 02 29
        E 1 b9 02 2a
        E 1 b9 02 2b
        E 1 b9 02 2c
        E 1 b9 02 2c
        E 1 b9 02 2d
        E 1 b9 02 2e
        E 1 b9 02 2f
        E 1 b9 02 30
        E 1 b9 02 30
        E 1 b9 02 31
        E 1 b9 02 32
        E 1 b9 02 32
        E 1 b9 02 32
        E 1 b9 02 31
        E 1 b9 02 30
        E 1 b9 02 30
        E 1 b9 02 2f
        E 1 b9 02 2e
        E 1 b9 02 2d
        E 1 b9 02 2c
        E 1 b9 02 2c
        E 1 b9 02 2b
        E 1 b9 02 2a
        E 1 b9 02 29
        E 1 b9 02 28
        E 1 b9 02 28
        E 1 b9 02 27
        E 1 b9 02 26
        E 1 b9 02 25
        E 1 b9 02 24
        E 1 b9 02 24
        E 1 b9 02 23
        E 1 b9 02 22
        E 1 b9 02 21
        E 1 b9 02 20
        E 1 b9 02 20
        E 1 b9 02 1f
        E 1 b9 02 1e
        E 1 b9 02 1d
        E 1 b9 02 1c
        E 1 b9 02 1c
        E 1 b9 02 1b
        E 1 b9 02 1a
        E 1 b9 02 19
        E 1 b9 02 18
        E 1 b9 02 18
        E 1 b9 02 17
        E 1 b9 02 16
        E 1 b9 02 15
        E 1 b9 02 14
        E 1 b9 02 14
        E 1 b9 02 13
        E 1 b9 02 12
        E 1 b9 02 11
        E 1 b9 02 10
        E 1 b9 02 10
        E 1 b9 02 0f
        E 1 b9 02 0e
        E 1 b9 02 0d
        E 1 b9 02 0c
        E 1 b9 02 0c
        E 1 b9 02 0b
        E 1 b9 02 0a
        E 1 b9 02 09
        E 1 b9 02 08
        E 1 b9 02 08
        E 1 b9 02 07
        E 1 b9 02 06
        E 1 b9 02 05
        E 1 b9 02 04
        E 1 b9 02 04
        E 1 b9 02 03
        E 1 b9 02 02
        E 1 b9 02 01
        E 1 b9 02 00
        E 1 b9 02 00
        E 9 b9 02 02
        E 9 b9 02 04
        E 9 b9 02 06
        E 9 b9 02 08
        E 9 b9 02 0a
        E 9 b9 02 0c
        E 9 b9 02 0e
        E 9 b9 02 10
        E 9 b9 02 12
        E 9 b9 02 14
        E 9 b9 02 16
        E 9 b9 02 18
        E 9 b9 02 1a
        E 9 b9 02 1c
        E 9 b9 02 1e
        E 9 b9 02 20
        E 9 b9 02 22
        E 9 b9 02 24
        E 9 b9 02 26
        E 9 b9 02 28
        E 9 b9 02 2a
        E 9 b9 02 2c
        E 9 b9 02 2e
        E 9 b9 02 30
        E 9 b9 02 32
        E 9 b9 02 34
        E 9 b9 02 36
        E 9 b9 02 38
        E 9 b9 02 3a
        E 9 b9 02 3c
        E 9 b9 02 3e
        E 9 b9 02 40
        E 9 b9 02 42
        E 9 b9 02 44
        E 9 b9 02 46
        E 9 b9 02 48
        E 9 b9 02 4a
        E 9 b9 02 4c
        E 9 b9 02 4e
        E 9 b9 02 50
        E 9 b9 02 52
        E 9 b9 02 54
        E 9 b9 02 56
        E 9 b9 02 58
        E 9 b9 02 5a
        E 9 b9 02 5c
        E 9 b9 02 5e
        E 9 b9 02 60
        E 9 b9 02 62
        E 9 b9 02 64
        E 9 b9 02 66
        E 9 b9 02 68
        E 9 b9 02 6a
        E 9 b9 02 6c
        E 9 b9 02 6e
        E 9 b9 02 70
        E 9 b9 02 72
        E 9 b9 02 74
        E 9 b9 02 76
        E 9 b9 02 78
        E 9 b9 02 7a
        E 9 b9 02 7c
        E 9 b9 02 7e
        E 9 b9 02 7f
        E 9 b9 02 7e
        E 9 b9 02 7c
        E 9 b9 02 7a
        E 9 b9 02 78
        E 9 b9 02 76
        E 9 b9 02 74
        E 9 b9 02 72
        E 9 b9 02 70
        E 9 b9 02 6e
        E 9 b9 02 6c
        E 9 b9 02 6a
        E 9 b9 02 68
        E 9 b9 02 66
        E 9 b9 02 64
        E 9 b9 02 62
        E 9 b9 02 60
        E 9 b9 02 5e
        E 9 b9 02 5c
        E 9 b9 02 5a
        E 9 b9 02 58
        E 9 b9 02 56
        E 9 b9 02 54
        E 9 b9 02 52
        E 9 b9 02 50
        E 9 b9 02 4e
        E 9 b9 02 4c
        E 9 b9 02 4a
        E 9 b9 02 48
        E 9 b9 02 46
        E 9 b9 02 44
        E 9 b9 02 42
        E 9 b9 02 40
        E 9 b9 02 3e
        E 9 b9 02 3c
        E 9 b9 02 3a
        E 9 b9 02 38
        E 9 b9 02 36
        E 9 b9 02 34
        E 9 b9 02 32
        E 9 b9 02 30
        E 9 b9 02 2e
        E 9 b9 02 2c
        E 9 b9 02 2a
        E 9 b9 02 28
        E 9 b9 02 26
        E 9 b9 02 24
        E 9 b9 02 22
        E 9 b9 02 20
        E 9 b9 02 1e
        E 9 b9 02 1c
        E 9 b9 02 1a
        E 9 b9 02 18
        E 9 b9 02 16
        E 9 b9 02 14
        E 9 b9 02 12
        E 9 b9 02 10
        E 9 b9 02 0e
        E 9 b9 02 0c
        E 9 b9 02 0a
        E 9 b9 02 08
        E 9 b9 02 06
        E 9 b9 02 04
        E 9 b9 02 02
        E 9 b9 02 00
        E 2 b9 02 01
        E 2 b9 02 03
        E 2 b9 02 05
        E 2 b9 02 07
        E 2 b9 02 09
        E 2 b9 02 0a
        E 2 b9 02 0c
        E 2 b9 02 0e
        E 2 b9 02 10
        E 2 b9 02 12
        E 2 b9 02 13
        E 2 b9 02 15
        E 2 b9 02 17
        E 2 b9 02 19
        E 2 b9 02 1b
        E 2 b9 02 1c
        E 2 b9 02 1e
        E 2 b9 02 20
        E 2 b9 02 22
        E 2 b9 02 24
        E 2 b9 02 25
        E 2 b9 02 27
        E 2 b9 02 29
        E 2 b9 02 2b
        E 2 b9 02 2d
        E 2 b9 02 2e
        E 2 b9 02 30
        E 2 b9 02 32
        E 2 b9 02 34
        E 2 b9 02 36
        E 2 b9 02 37
        E 2 b9 02 39
        E 2 b9 02 3b
        E 2 b9 02 3d
        E 2 b9 02 3f
        E 2 b9 02 40
        E 2 b9 02 42
        E 2 b9 02 44
        E 2 b9 02 46
        E 2 b9 02 48
        E 2 b9 02 49
        E 2 b9 02 4b
        E 2 b9 02 4d
        E 2 b9 02 4f
        E 2 b9 02 51
        E 2 b9 02 52
        E 2 b9 02 54
        E 2 b9 02 56
        E 2 b9 02 58
        E 2 b9 02 5a
        E 2 b9 02 5b
        E 2 b9 02 5d
        E 2 b9 02 5f
        E 2 b9 02 61
        E 2 b9 02 63
        E 2 b9 02 64
        E 2 b9 02 66
        E 2 b9 02 68
        E 2 b9 02 6a
        E 2 b9 02 6c
        E 2 b9 02 6d
        E 2 b9 02 6f
        E 2 b9 02 71
        E 2 b9 02 72
        E 2 b9 02 71
        E 2 b9 02 6f
        E 2 b9 02 6d
        E 2 b9 02 6c
        E 2 b9 02 6a
        E 2 b9 02 68
        E 2 b9 02 66
        E 2 b9 02 64
        E 2 b9 02 63
        E 2 b9 02 61
        E 2 b9 02 5f
        E 2 b9 02 5d
        E 2 b9 02 5b
        E 2 b9 02 5a
        E 2 b9 02 58
        E 2 b9 02 56
        E 2 b9 02 54
        E 2 b9 02 52
        E 2 b9 02 51
        E 2 b9 02 4f
        E 2 b9 02 4d
        E 2 b9 02 4b
        E 2 b9 02 49
        E 2 b9 02 48
        E 2 b9 02 46
        E 2 b9 02 44
        E 2 b9 02 42
        E 2 b9 02 40
        E 2 b9 02 3f
        E 2 b9 02 3d
        E 2 b9 02 3b
        E 2 b9 02 39
        E 2 b9 02 37
        E 2 b9 02 36
        E 2 b9 02 34
        E 2 b9 02 32
        E 2 b9 02 30
        E 2 b9 02 2e
        E 2 b9 02 2d
        E 2 b9 02 2b
        E 2 b9 02 29
        E 2 b9 02 27
        E 2 b9 02 25
        E 2 b9 02 24
        E 2 b9 02 22
        E 2 b9 02 20
        E 2 b9 02 1e
        E 2 b9 02 1c
        E 2 b9 02 1b
        E 2 b9 02 19
        E 2 b9 02 17
        E 2 b9 02 15
        E 2 b9 02 13
        E 2 b9 02 12
        E 2 b9 02 10
        E 2 b9 02 0e
        E 2 b9 02 0c
        E 2 b9 02 0a
        E 2 b9 02 09
        E 2 b9 02 07
        E 2 b9 02 05
        E 2 b9 02 03
        E 2 b9 02 01
        E 2 b9 02 00
        E 4 b9 02 01
        E 4 b9 02 02
        E 4 b9 02 04
        E 4 b9 02 05
        E 4 b9 02 07
        E 4 b9 02 08
        E 4 b9 02 09
        E 4 b9 02 0b
        E 4 b9 02 0c
        E 4 b9 02 0e
        E 4 b9 02 0f
        E 4 b9 02 10
        E 4 b9 02 12
        E 4 b9 02 13
        E 4 b9 02 15
        E 4 b9 02 16
        E 4 b9 02 17
        E 4 b9 02 19
        E 4 b9 02 1a
        E 4 b9 02 1c
        E 4 b9 02 1d
        E 4 b9 02 1e
        E 4 b9 02 20
        E 4 b9 02 21
        E 4 b9 02 23
        E 4 b9 02 24
        E 4 b9 02 25
        E 4 b9 02 27
        E 4 b9 02 28
        E 4 b9 02 2a
        E 4 b9 02 2b
        E 4 b9 02 2c
        E 4 b9 02 2e
        E 4 b9 02 2f
        E 4 b9 02 31
        E 4 b9 02 32
        E 4 b9 02 33
        E 4 b9 02 35
        E 4 b9 02 36
        E 4 b9 02 38
        E 4 b9 02 39
        E 4 b9 02 3a
        E 4 b9 02 3c
        E 4 b9 02 3d
        E 4 b9 02 3e
        E 4 b9 02 40
        E 4 b9 02 41
        E 4 b9 02 43
        E 4 b9 02 44
        E 4 b9 02 46
        E 4 b9 02 47
        E 4 b9 02 48
        E 4 b9 02 4a
        E 4 b9 02 4b
        E 4 b9 02 4d
        E 4 b9 02 4e
        E 4 b9 02 4f
        E 4 b9 02 51
        E 4 b9 02 52
        E 4 b9 02 54
        E 4 b9 02 55
        E 4 b9 02 56
        E 4 b9 02 58
        E 4 b9 02 58
        E 4 b9 02 58
        E 4 b9 02 56
        E 4 b9 02 55
        E 4 b9 02 54
        E 4 b9 02 52
        E 4 b9 02 51
        E 4 b9 02 4f
        E 4 b9 02 4e
        E 4 b9 02 4d
        E 4 b9 02 4b
        E 4 b9 02 4a
        E 4 b9 02 48
        E 4 b9 02 47
        E 4 b9 02 46
        E 4 b9 02 44
        E 4 b9 02 43
        E 4 b9 02 41
        E 4 b9 02 40
        E 4 b9 02 3e
        E 4 b9 02 3d
        E 4 b9 02 3c
        E 4 b9 02 3a
        E 4 b9 02 39
        E 4 b9 02 38
        E 4 b9 02 36
        E 4 b9 02 35
        E 4 b9 02 33
        E 4 b9 02 32
        E 4 b9 02 31
        E 4 b9 02 2f
        E 4 b9 02 2e
        E 4 b9 02 2c
        E 4 b9 02 2b
        E 4 b9 02 2a
        E 4 b9 02 28
        E 4 b9 02 27
        E 4 b9 02 25
        E 4 b9 02 24
        E 4 b9 02 23
        E 4 b9 02 21
        E 4 b9 02 20
        E 4 b9 02 1e
        E 4 b9 02 1d
        E 4 b9 02 1c
        E 4 b9 02 1a
        E 4 b9 02 19
        E 4 b9 02 17
        E 4 b9 02 16
        E 4 b9 02 15
        E 4 b9 02 13
        E 4 b9 02 12
        E 4 b9 02 10
        E 4 b9 02 0f
        E 4 b9 02 0e
        E 4 b9 02 0c
        E 4 b9 02 0b
        E 4 b9 02 09
        E 4 b9 02 08
        E 4 b9 02 07
        E 4 b9 02 05
        E 4 b9 02 04
        E 4 b9 02 02
        E 4 b9 02 01
        E 4 b9 02 00
        E 1 b9 02 00
        E 1 b9 02 01
        E 1 b9 02 02
        E 1 b9 02 03
        E 1 b9 02 04
        E 1 b9 02 04
        E 1 b9 02 05
        E 1 b9 02 06
        E 1 b9 02 07
        E 1 b9 02 08
        E 1 b9 02 08
        E 1 b9 02 09
        E 1 b9 02 0a
        E 1 b9 02 0b
        E 1 b9 02 0c
        E 1 b9 02 0c
        E 1 b9 02 0d
        E 1 b9 02 0e
        E 1 b9 02 0f
        E 1 b9 02 10
        E 1 b9 02 10
        E 1 b9 02 11
        E 1 b9 02 12
        E 1 b9 02 13
        E 1 b9 02 14
        E 1 b9 02 14
        E 1 b9 02 15
        E 1 b9 02 16
        E 1 b9 02 17
        E 1 b9 02 18
        E 1 b9 02 18
        E 1 b9 02 19
        E 1 b9 02 1a
        E 1 b9 02 1b
        E 1 b9 02 1c
        E 1 b9 02 1c
        E 1 b9 02 1d
        E 1 b9 02 1e
        E 1 b9 02 1f
        E 1 b9 02 20
        E 1 b9 02 20
        E 1 b9 02 21
        E 1 b9 02 22
        E 1 b9 02 23
        E 1 b9 02 24
        E 1 b9 02 24
        E 1 b9 02 25
        E 1 b9 02 26
        E 1 b9 02 27
        E 1 b9 02 28
        E 1 b9 02 28
        E 1 b9 02 29
        E 1 b9 02 2a
        E 1 b9 02 2b
        E 1 b9 02 2c
        E 1 b9 02 2c
        E 1 b9 02 2d
        E 1 b9 02 2e
        E 1 b9 02 2f
        E 1 b9 02 30
        E 1 b9 02 30
        E 1 b9 02 31
        E 1 b9 02 32
        E 1 b9 02 32
        E 1 b9 02 32
        E 1 b9 02 31
        E 1 b9 02 30
        E 1 b9 02 30
        E 1 b9 02 2f
        E 1 b9 02 2e
        E 1 b9 02 2d
        E 1 b9 02 2c
        E 1 b9 02 2c
        E 1 b9 02 2b
        E 1 b9 02 2a
        E 1 b9 02 29
        E 1 b9 02 28
        E 1 b9 02 28
        E 1 b9 02 27
        E 1 b9 02 26
        E 1 b9 02 25
        E 1 b9 02 24
        E 1 b9 02 24
        E 1 b9 02 23
        E 1 b9 02 22
        E 1 b9 02 21
        E 1 b9 02 20
        E 1 b9 02 20
        E 1 b9 02 1f
        E 1 b9 02 1e
        E 1 b9 02 1d
        E 1 b9 02 1c
        E 1 b9 02 1c
        E 1 b9 02 1b
        E 1 b9 02 1a
        E 1 b9 02 19
        E 1 b9 02 18
        E 1 b9 02 18
        E 1 b9 02 17
        E 1 b9 02 16
        E 1 b9 02 15
        E 1 b9 02 14
        E 1 b9 02 14
        E 1 b9 02 13
        E 1 b9 02 12
        E 1 b9 02 11
        E 1 b9 02 10
        E 1 b9 02 10
        E 1 b9 02 0f
        E 1 b9 02 0e
        E 1 b9 02 0d
        E 1 b9 02 0c
        E 1 b9 02 0c
        E 1 b9 02 0b
        E 1 b9 02 0a
        E 1 b9 02 09
        E 1 b9 02 08
        E 1 b9 02 08
        E 1 b9 02 07
        E 1 b9 02 06
        E 1 b9 02 05
        E 1 b9 02 04
        E 1 b9 02 04
        E 1 b9 02 03
        E 1 b9 02 02
        E 1 b9 02 01
        E 1 b9 02 00
        E 1 b9 02 00
        E 9 b9 02 02
        E 9 b9 02 04
        E 9 b9 02 06
        E 9 b9 02 08
        E 9 b9 02 0a
        E 9 b9 02 0c
        E 9 b9 02 0e
        E 9 b9 02 10
        E 9 b9 02 12
        E 9 b9 02 14
        E 9 b9 02 16
        E 9 b9 02 18
        E 9 b9 02 1a
        E 9 b9 02 1c
        E 9 b9 02 1e
        E 9 b9 02 20
        E 9 b9 02 22
        E 9 b9 02 24
        E 9 b9 02 26
        E 9 b9 02 28
        E 9 b9 02 2a
        E 9 b9 02 2c
        E 9 b9 02 2e
        E 9 b9 02 30
        E 9 b9 02 32
        E 9 b9 02 34
        E 9 b9 02 36
        E 9 b9 02 38
        E 9 b9 02 3a
        E 9 b9 02 3c
        E 9 b9 02 3e
        E 9 b9 02 40
        E 9 b9 02 42
        E 9 b9 02 44
        E 9 b9 02 46
        E 9 b9 02 48
        E 9 b9 02 4a
        E 9 b9 02 4c
        E 9 b9 02 4e
        E 9 b9 02 50
        E 9 b9 02 52
        E 9 b9 02 54
        E 9 b9 02 56
        E 9 b9 02 58
        E 9 b9 02 5a
        E 9 b9 02 5c
        E 9 b9 02 5e
        E 9 b9 02 60
        E 9 b9 02 62
        E 9 b9 02 64
        E 9 b9 02 66
        E 9 b9 02 68
        E 9 b9 02 6a
        E 9 b9 02 6c
        E 9 b9 02 6e
        E 9 b9 02 70
        E 9 b9 02 72
        E 9 b9 02 74
        E 9 b9 02 76
        E 9 b9 02 78
        E 9 b9 02 7a
        E 9 b9 02 7c
        E 9 b9 02 7e
        E 9 b9 02 7f
        E 9 b9 02 7e
        E 9 b9 02 7c
        E 9 b9 02 7a
        E 9 b9 02 78
        E 9 b9 02 76
        E 9 b9 02 74
        E 9 b9 02 72
        E 9 b9 02 70
        E 9 b9 02 6e
        E 9 b9 02 6c
        E 9 b9 02 6a
        E 9 b9 02 68
        E 9 b9 02 66
        E 9 b9 02 64
        E 9 b9 02 62
        E 9 b9 02 60
        E 9 b9 02 5e
        E 9 b9 02 5c
        E 9 b9 02 5a
        E 9 b9 02 58
        E 9 b9 02 56
        E 9 b9 02 54
        E 9 b9 02 52
        E 9 b9 02 50
        E 9 b9 02 4e
        E 9 b9 02 4c
        E 9 b9 02 4a
        E 9 b9 02 48
        E 9 b9 02 46
        E 9 b9 02 44
        E 9 b9 02 42
        E 9 b9 02 40
        E 9 b9 02 3e
        E 9 b9 02 3c
        E 9 b9 02 3a
        E 9 b9 02 38
        E 9 b9 02 36
        E 9 b9 02 34
        E 9 b9 02 32
        E 9 b9 02 30
        E 9 b9 02 2e
        E 9 b9 02 2c
        E 9 b9 02 2a
        E 9 b9 02 28
        E 9 b9 02 26
        E 9 b9 02 24
        E 9 b9 02 22
        E 9 b9 02 20
        E 9 b9 02 1e
        E 9 b9 02 1c
        E 9 b9 02 1a
        E 9 b9 02 18
        E 9 b9 02 16
        E 9 b9 02 14
        E 9 b9 02 12
        E 9 b9 02 10
        E 9 b9 02 0e
        E 9 b9 02 0c
        E 9 b9 02 0a
        E 9 b9 02 08
        E 9 b9 02 06
        E 9 b9 02 04
        E 9 b9 02 02
        E 9 b9 02 00
        E 2 b9 02 01
        E 2 b9 02 03
        E 2 b9 02 05
        E 2 b9 02 07
        E 2 b9 02 09
        E 2 b9 02 0a
        E 2 b9 02 0c
        E 2 b9 02 0e
        E 2 b9 02 10
        E 2 b9 02 12
        E 2 b9 02 13
        E 2 b9 02 15
        E 2 b9 02 17
        E 2 b9 02 19
        E 2 b9 02 1b
        E 2 b9 02 1c
        E 2 b9 02 1e
        E 2 b9 02 20
        E 2 b9 02 22
        E 2 b9 02 24
        E 2 b9 02 25
        E 2 b9 02 27
        E 2 b9 02 29
        E 2 b9 02 2b
        E 2 b9 02 2d
        E 2 b9 02 2e
        E 2 b9 02 30
        E 2 b9 02 32
        E 2 b9 02 34
        E 2 b9 02 36
        E 2 b9 02 37
        E 2 b9 02 39
        E 2 b9 02 3b
        E 2 b9 02 3d
        E 2 b9 02 3f
        E 2 b9 02 40
        E 2 b9 02 42
        E 2 b9 02 44
        E 2 b9 02 46
        E 2 b9 02 48
        E 2 b9 02 49
        E 2 b9 02 4b
        E 2 b9 02 4d
        E 2 b9 02 4f
        E 2 b9 02 51
        E 2 b9 02 52
        E 2 b9 02 54
        E 2 b9 02 56
        E 2 b9 02 58
        E 2 b9 02 5a
        E 2 b9 02 5b
        E 2 b9 02 5d
        E 2 b9 02 5f
        E 2 b9 02 61
        E 2 b9 02 63
        E 2 b9 02 64
        E 2 b9 02 66
        E 2 b9 02 68
        E 2 b9 02 6a
        E 2 b9 02 6c
        E 2 b9 02 6d
        E 2 b9 02 6f
        E 2 b9 02 71
        E 2 b9 02 72
        E 2 b9 02 71
        E 2 b9 02 6f
        E 2 b9 02 6d
        E 2 b9 02 6c
        E 2 b9 02 6a
        E 2 b9 02 68
        E 2 b9 02 66
        E 2 b9 02 64
        E 2 b9 02 63
        E 2 b9 02 61
        E 2 b9 02 5f
        E 2 b9 02 5d
        E 2 b9 02 5b
        E 2 b9 02 5a
        E 2 b9 02 58
        E 2 b9 02 56
        E 2 b9 02 54
        E 2 b9 02 52
        E 2 b9 02 51
        E 2 b9 02 4f
        E 2 b9 02 4d
        E 2 b9 02 4b
        E 2 b9 02 49
        E 2 b9 02 48
        E 2 b9 02 46
        E 2 b9 02 44
        E 2 b9 02 42
        E 2 b9 02 40
        E 2 b9 02 3f
        E 2 b9 02 3d
        E 2 b9 02 3b
        E 2 b9 02 39
        E 2 b9 02 37
        E 2 b9 02 36
        E 2 b9 02 34
        E 2 b9 02 32
        E 2 b9 02 30
        E 2 b9 02 2e
        E 2 b9 02 2d
        E 2 b9 02 2b
        E 2 b9 02 29
        E 2 b9 02 27
        E 2 b9 02 25
        E 2 b9 02 24
        E 2 b9 02 22
        E 2 b9 02 20
        E 2 b9 02 1e
        E 2 b9 02 1c
        E 2 b9 02 1b
        E 2 b9 02 19
        E 2 b9 02 17
        E 2 b9 02 15
        E 2 b9 02 13
        E 2 b9 02 12
        E 2 b9 02 10
        E 2 b9 02 0e
        E 2 b9 02 0c
        E 2 b9 02 0a
        E 2 b9 02 09
        E 2 b9 02 07
        E 2 b9 02 05
        E 2 b9 02 03
        E 2 b9 02 01
        E 2 b9 02 00
        E 4 b9 02 01
        E 4 b9 02 02
        E 4 b9 02 04
        E 4 b9 02 05
        E 4 b9 02 07
        E 4 b9 02 08
        E 4 b9 02 09
        E 4 b9 02 0b
        E 4 b9 02 0c
        E 4 b9 02 0e
        E 4 b9 02 0f
        E 4 b9 02 10
        E 4 b9 02 12
        E 4 b9 02 13
        E 4 b9 02 15
        E 4 b9 02 16
        E 4 b9 02 17
        E 4 b9 02 19
        E 4 b9 02 1a
        E 4 b9 02 1c
        E 4 b9 02 1d
        E 4 b9 02 1e
        E 4 b9 02 20
        E 4 b9 02 21
        E 4 b9 02 23
        E 4 b9 02 24
        E 4 b9 02 25
        E 4 b9 02 27
        E 4 b9 02 28
        E 4 b9 02 2a
        E 4 b9 02 2b
        E 4 b9 02 2c
        E 4 b9 02 2e
        E 4 b9 02 2f
        E 4 b9 02 31
        E 4 b9 02 32
        E 4 b9 02 33
        E 4 b9 02 35
        E 4 b9 02 36
        E 4 b9 02 38
        E 4 b9 02 39
        E 4 b9 02 3a
        E 4 b9 02 3c
        E 4 b9 02 3d
        E 4 b9 02 3e
        E 4 b9 02 40
        E 4 b9 02 41
        E 4 b9 02 43
        E 4 b9 02 44
        E 4 b9 02 46
        E 4 b9 02 47
        E 4 b9 02 48
        E 4 b9 02 4a
        E 4 b9 02 4b
        E 4 b9 02 4d
        E 4 b9 02 4e
        E 4 b9 02 4f
        E 4 b9 02 51
        E 4 b9 02 52
        E 4 b9 02 54
        E 4 b9 02 55
        E 4 b9 02 56
        E 4 b9 02 58
        E 4 b9 02 58
        E 4 b9 02 58
        E 4 b9 02 56
        E 4 b9 02 55
        E 4 b9 02 54
        E 4 b9 02 52
        E 4 b9 02 51
        E 4 b9 02 4f
        E 4 b9 02 4e
        E 4 b9 02 4d
        E 4 b9 02 4b
        E 4 b9 02 4a
        E 4 b9 02 48
        E 4 b9 02 47
        E 4 b9 02 46
        E 4 b9 02 44
        E 4 b9 02 43
        E 4 b9 02 41
        E 4 b9 02 40
        E 4 b9 02 3e
        E 4 b9 02 3d
        E 4 b9 02 3c
        E 4 b9 02 3a
        E 4 b9 02 39
        E 4 b9 02 38
        E 4 b9 02 36
        E 4 b9 02 35
        E 4 b9 02 33
        E 4 b9 02 32
        E 4 b9 02 31
        E 4 b9 02 2f
        E 4 b9 02 2e
        E 4 b9 02 2c
        E 4 b9 02 2b
        E 4 b9 02 2a
        E 4 b9 02 28
        E 4 b9 02 27
        E 4 b9 02 25
        E 4 b9 02 24
        E 4 b9 02 23
        E 4 b9 02 21
        E 4 b9 02 20
        E 4 b9 02 1e
        E 4 b9 02 1d
        E 4 b9 02 1c
        E 4 b9 02 1a
        E 4 b9 02 19
        E 4 b9 02 17
        E 4 b9 02 16
        E 4 b9 02 15
        E 4 b9 02 13
        E 4 b9 02 12
        E 4 b9 02 10
        E 4 b9 02 0f
        E 4 b9 02 0e
        E 4 b9 02 0c
        E 4 b9 02 0b
        E 4 b9 02 09
        E 4 b9 02 08
        E 4 b9 02 07
        E 4 b9 02 05
        E 4 b9 02 04
        E 4 b9 02 02
        E 4 b9 02 01
        E 4 b9 02 00
        E 1 b9 02 00
        E 1 b9 02 01
        E 1 b9 02 02
        E 1 b9 02 03
        E 1 b9 02 04
        E 1 b9 02 04
        E 1 b9 02 05
        E 1 b9 02 06
        E 1 b9 02 07
        E 1 b9 02 08
        E 1 b9 02 08
        E 1 b9 02 09
        E 1 b9 02 0a
        E 1 b9 02 0b
        E 1 b9 02 0c
        E 1 b9 02 0c
        E 1 b9 02 0d
        E 1 b9 02 0e
        E 1 b9 02 0f
        E 1 b9 02 10
        E 1 b9 02 10
        E 1 b9 02 11
        E 1 b9 02 12
        E 1 b9 02 13
        E 1 b9 02 14
        E 1 b9 02 14
        E 1 b9 02 15
        E 1 b9 02 16
        E 1 b9 02 17
        E 1 b9 02 18
        E 1 b9 02 18
        E 1 b9 02 19
        E 1 b9 02 1a
        E 1 b9 02 1b
        E 1 b9 02 1c
        E 1 b9 02 1c
        E 1 b9 02 1d
        E 1 b9 02 1e
        E 1 b9 02 1f
        E 1 b9 02 20
        E 1 b9 02 20
        E 1 b9 02 21
        E 1 b9 02 22
        E 1 b9 02 23
        E 1 b9 02 24
        E 1 b9 02 24
        E 1 b9 02 25
        E 1 b9 02 26
        E 1 b9 02 27
        E 1 b9 02 28
        E 1 b9 02 28
        E 1 b9 02 29
        E 1 b9 02 2a
        E 1 b9 02 2b
        E 1 b9 02 2c
        E 1 b9 02 2c
        E 1 b9 02 2d
        E 1 b9 02 2e
        E 1 b9 02 2f
        E 1 b9 02 30
        E 1 b9 02 30
        E 1 b9 02 31
        E 1 b9 02 32
        E 1 b9 02 32
        E 1 b9 02 32
        E 1 b9 02 31
        E 1 b9 02 30
        E 1 b9 02 30
        E 1 b9 02 2f
        E 1 b9 02 2e
        E 1 b9 02 2d
        E 1 b9 02 2c
        E 1 b9 02 2c
        E 1 b9 02 2b
        E 1 b9 02 2a
        E 1 b9 02 29
        E 1 b9 02 28
        E 1 b9 02 28
        E 1 b9 02 27
        E 1 b9 02 26
        E 1 b9 02 25
        E 1 b9 02 24
        E 1 b9 02 24
        E 1 b9 02 23
        E 1 b9 02 22
        E 1 b9 02 21
        E 1 b9 02 20
        E 1 b9 02 20
        E 1 b9 02 1f
        E 1 b9 02 1e
        E 1 b9 02 1d
        E 1 b9 02 1c
        E 1 b9 02 1c
        E 1 b9 02 1b
        E 1 b9 02 1a
        E 1 b9 02 19
        E 1 b9 02 18
        E 1 b9 02 18
        E 1 b9 02 17
        E 1 b9 02 16
        E 1 b9 02 15
        E 1 b9 02 14
        E 1 b9 02 14
        E 1 b9 02 13
        E 1 b9 02 12
        E 1 b9 02 11
        E 1 b9 02 10
        E 1 b9 02 10
        E 1 b9 02 0f
        E 1 b9 02 0e
        E 1 b9 02 0d
        E 1 b9 02 0c
        E 1 b9 02 0c
        E 1 b9 02 0b
        E 1 b9 02 0a
        E 1 b9 02 09
        E 1 b9 02 08
        E 1 b9 02 08
        E 1 b9 02 07
        E 1 b9 02 06
        E 1 b9 02 05
        E 1 b9 02 04
        E 1 b9 02 04
        E 1 b9 02 03
        E 1 b9 02 02
        E 1 b9 02 01
        E 1 b9 02 00
        E 1 b9 02 00
        E 9 b9 02 02
        E 9 b9 02 04
        E 9 b9 02 06
        E 9 b9 02 08
        E 9 b9 02 0a
        E 9 b9 02 0c
        E 9 b9 02 0e
        E 9 b9 02 10
        E 9 b9 02 12
        E 9 b9 02 14
        E 9 b9 02 16
        E 9 b9 02 18
        E 9 b9 02 1a
        E 9 b9 02 1c
        E 9 b9 02 1e
        E 9 b9 02 20
        E 9 b9 02 22
        E 9 b9 02 24
        E 9 b9 02 26
        E 9 b9 02 28
        E 9 b9 02 2a
        E 9 b9 02 2c
        E 9 b9 02 2e
        E 9 b9 02 30
        E 9 b9 02 32
        E 9 b9 02 34
        E 9 b9 02 36
        E 9 b9 02 38
        E 9 b9 02 3a
        E 9 b9 02 3c
        E 9 b9 02 3e
        E 9 b9 02 40
        E 9 b9 02 42
        E 9 b9 02 44
        E 9 b9 02 46
        E 9 b9 02 48
        E 9 b9 02 4a
        E 9 b9 02 4c
        E 9 b9 02 4e
        E 9 b9 02 50
        E 9 b9 02 52
        E 9 b9 02 54
        E 9 b9 02 56
        E 9 b9 02 58
        E 9 b9 02 5a
        E 9 b9 02 5c
        E 9 b9 02 5e
        E 9 b9 02 60
        E 9 b9 02 62
        E 9 b9 02 64
        E 9 b9 02 66
        E 9 b9 02 68
        E 9 b9 02 6a
        E 9 b9 02 6c
        E 9 b9 02 6e
        E 9 b9 02 70
        E 9 b9 02 72
        E 9 b9 02 74
        E 9 b9 02 76
        E 9 b9 02 78
        E 9 b9 02 7a
        E 9 b9 02 7c
        E 9 b9 02 7e
        E 9 b9 02 7f
        E 9 b9 02 7e
        E 9 b9 02 7c
        E 9 b9 02 7a
        E 9 b9 02 78
        E 9 b9 02 76
        E 9 b9 02 74
        E 9 b9 02 72
        E 9 b9 02 70
        E 9 b9 02 6e
        E 9 b9 02 6c
        E 9 b9 02 6a
        E 9 b9 02 68
        E 9 b9 02 66
        E 9 b9 02 64
        E 9 b9 02 62
        E 9 b9 02 60
        E 9 b9 02 5e
        E 9 b9 02 5c
        E 9 b9 02 5a
        E 9 b9 02 58
        E 9 b9 02 56
        E 9 b9 02 54
        E 9 b9 02 52
        E 9 b9 02 50
        E 9 b9 02 4e
        E 9 b9 02 4c
        E 9 b9 02 4a
        E 9 b9 02 48
        E 9 b9 02 46
        E 9 b9 02 44
        E 9 b9 02 42
        E 9 b9 02 40
        E 9 b9 02 3e
        E 9 b9 02 3c
        E 9 b9 02 3a
        E 9 b9 02 38
        E 9 b9 02 36
        E 9 b9 02 34
        E 9 b9 02 32
        E 9 b9 02 30
        E 9 b9 02 2e
        E 9 b9 02 2c
        E 9 b9 02 2a
        E 9 b9 02 28
        E 9 b9 02 26
        E 9 b9 02 24
        E 9 b9 02 22
        E 9 b9 02 20
        E 9 b9 02 1e
        E 9 b9 02 1c
        E 9 b9 02 1a
        E 9 b9 02 18
        E 9 b9 02 16
        E 9 b9 02 14
        E 9 b9 02 12
        E 9 b9 02 10
        E 9 b9 02 0e
        E 9 b9 02 0c
        E 9 b9 02 0a
        E 9 b9 02 08
        E 9 b9 02 06
        E 9 b9 02 04
        E 9 b9 02 02
        E 9 b9 02 00
        E 2 b9 02 01
        E 2 b9 02 03
        E 2 b9 02 05
        E 2 b9 02 07
        E 2 b9 02 09
        E 2 b9 02 0a
        E 2 b9 02 0c
        E 2 b9 02 0e
        E 2 b9 02 10
        E 2 b9 02 12
        E 2 b9 02 13
        E 2 b9 02 15
        E 2 b9 02 17
        E 2 b9 02 19
        E 2 b9 02 1b
        E 2 b9 02 1c
        E 2 b9 02 1e
        E 2 b9 02 20
        E 2 b9 02 22
        E 2 b9 02 24
        E 2 b9 02 25
        E 2 b9 02 27
        E 2 b9 02 29
        E 2 b9 02 2b
        E 2 b9 02 2d
        E 2 b9 02 2e
        E 2 b9 02 30
        E 2 b9 02 32
        E 2 b9 02 34
        E 2 b9 02 36
        E 2 b9 02 37
        E 2 b9 02 39
        E 2 b9 02 3b
        E 2 b9 02 3d
        E 2 b9 02 3f
        E 2 b9 02 40
        E 2 b9 02 42
        E 2 b9 02 44
        E 2 b9 02 46
        E 2 b9 02 48
        E 2 b9 02 49
        E 2 b9 02 4b
        E 2 b9 02 4d
        E 2 b9 02 4f
        E 2 b9 02 51
        E 2 b9 02 52
        E 2 b9 02 54
        E 2 b9 02 56
        E 2 b9 02 58
        E 2 b9 02 5a
        E 2 b9 02 5b
        E 2 b9 02 5d
        E 2 b9 02 5f
        E 2 b9 02 61
        E 2 b9 02 63
        E 2 b9 02 64
        E 2 b9 02 66
        E 2 b9 02 68
        E 2 b9 02 6a
        E 2 b9 02 6c
        E 2 b9 02 6d
        E 2 b9 02 6f
        E 2 b9 02 71
        E 2 b9 02 72
        E 2 b9 02 71
        E 2 b9 02 6f
        E 2 b9 02 6d
        E 2 b9 02 6c
        E 2 b9 02 6a
        E 2 b9 02 68
        E 2 b9 02 66
        E 2 b9 02 64
        E 2 b9 02 63
        E 2 b9 02 61
        E 2 b9 02 5f
        E 2 b9 02 5d
        E 2 b9 02 5b
        E 2 b9 02 5a
        E 2 b9 02 58
        E 2 b9 02 56
        E 2 b9 02 54
        E 2 b9 02 52
        E 2 b9 02 51
        E 2 b9 02 4f
        E 2 b9 02 4d
        E 2 b9 02 4b
        E 2 b9 02 49
        E 2 b9 02 48
        E 2 b9 02 46
        E 2 b9 02 44
        E 2 b9 02 42
        E 2 b9 02 40
        E 2 b9 02 3f
        E 2 b9 02 3d
        E 2 b9 02 3b
        E 2 b9 02 39
        E 2 b9 02 37
        E 2 b9 02 36
        E 2 b9 02 34
        E 2 b9 02 32
        E 2 b9 02 30
        E 2 b9 02 2e
        E 2 b9 02 2d
        E 2 b9 02 2b
        E 2 b9 02 29
        E 2 b9 02 27
        E 2 b9 02 25
        E 2 b9 02 24
        E 2 b9 02 22
        E 2 b9 02 20
        E 2 b9 02 1e
        E 2 b9 02 1c
        E 2 b9 02 1b
        E 2 b9 02 19
        E 2 b9 02 17
        E 2 b9 02 15
        E 2 b9 02 13
        E 2 b9 02 12
        E 2 b9 02 10
        E 2 b9 02 0e
        E 2 b9 02 0c
        E 2 b9 02 0a
        E 2 b9 02 09
        E 2 b9 02 07
        E 2 b9 02 05
        E 2 b9 02 03
        E 2 b9 02 01
        E 2 b9 02 00
        E 4 b9 02 01
        E 4 b9 02 02
        E 4 b9 02 04
        E 4 b9 02 05
        E 4 b9 02 07
        E 4 b9 02 08
        E 4 b9 02 09
        E 4 b9 02 0b
        E 4 b9 02 0c
        E 4 b9 02 0e
        E 4 b9 02 0f
        E 4 b9 02 10
        E 4 b9 02 12
        E 4 b9 02 13
        E 4 b9 02 15
        E 4 b9 02 16
        E 4 b9 02 17
        E 4 b9 02 19
        E 4 b9 02 1a
        E 4 b9 02 1c
        E 4 b9 02 1d
        E 4 b9 02 1e
        E 4 b9 02 20
        E 4 b9 02 21
        E 4 b9 02 23
        E 4 b9 02 24
        E 4 b9 02 25
        E 4 b9 02 27
        E 4 b9 02 28
        E 4 b9 02 2a
        E 4 b9 02 2b
        E 4 b9 02 2c
        E 4 b9 02 2e
        E 4 b9 02 2f
        E 4 b9 02 31
        E 4 b9 02 32
        E 4 b9 02 33
        E 4 b9 02 35
        E 4 b9 02 36
        E 4 b9 02 38
        E 4 b9 02 39
        E 4 b9 02 3a
        E 4 b9 02 3c
        E 4 b9 02 3d
        E 4 b9 02 3e
        E 4 b9 02 40
        E 4 b9 02 41
        E 4 b9 02 43
        E 4 b9 02 44
        E 4 b9 02 46
        E 4 b9 02 47
        E 4 b9 02 48
        E 4 b9 02 4a
        E 4 b9 02 4b
        E 4 b9 02 4d
        E 4 b9 02 4e
        E 4 b9 02 4f
        E 4 b9 02 51
        E 4 b9 02 52
        E 4 b9 02 54
        E 4 b9 02 55
        E 4 b9 02 56
        E 4 b9 02 58
        E 4 b9 02 58
        E 4 b9 02 58
        E 4 b9 02 56
        E 4 b9 02 55
        E 4 b9 02 54
        E 4 b9 02 52
        E 4 b9 02 51
        E 4 b9 02 4f
        E 4 b9 02 4e
        E 4 b9 02 4d
        E 4 b9 02 4b
        E 4 b9 02 4a
        E 4 b9 02 48
        E 4 b9 02 47
        E 4 b9 02 46
        E 4 b9 02 44
        E 4 b9 02 43
        E 4 b9 02 41
        E 4 b9 02 40
        E 4 b9 02 3e
        E 4 b9 02 3d
        E 4 b9 02 3c
        E 4 b9 02 3a
        E 4 b9 02 39
        E 4 b9 02 38
        E 4 b9 02 36
        E 4 b9 02 35
        E 4 b9 02 33
        E 4 b9 02 32
        E 4 b9 02 31
        E 4 b9 02 2f
        E 4 b9 02 2e
        E 4 b9 02 2c
        E 4 b9 02 2b
        E 4 b9 02 2a
        E 4 b9 02 28
        E 4 b9 02 27
        E 4 b9 02 25
        E 4 b9 02 24
        E 4 b9 02 23
        E 4 b9 02 21
        E 4 b9 02 20
        E 4 b9 02 1e
        E 4 b9 02 1d
        E 4 b9 02 1c
        E 4 b9 02 1a
        E 4 b9 02 19
        E 4 b9 02 17
        E 4 b9 02 16
        E 4 b9 02 15
        E 4 b9 02 13
        E 4 b9 02 12
        E 4 b9 02 10
        E 4 b9 02 0f
        E 4 b9 02 0e
        E 4 b9 02 0c
        E 4 b9 02 0b
        E 4 b9 02 09
        E 4 b9 02 08
        E 4 b9 02 07
        E 4 b9 02 05
        E 4 b9 02 04
        E 4 b9 02 02
        E 4 b9 02 01
        E 4 b9 02 00
        E 1 b9 02 00
        E 1 b9 02 01
        E 1 b9 02 02
        E 1 b9 02 03
        E 1 b9 02 04
        E 1 b9 02 04
        E 1 b9 02 05
        E 1 b9 02 06
        E 1 b9 02 07
        E 1 b9 02 08
        E 1 b9 02 08
        E 1 b9 02 09
        E 1 b9 02 0a
        E 1 b9 02 0b
        E 1 b9 02 0c
        E 1 b9 02 0c
        E 1 b9 02 0d
        E 1 b9 02 0e
        E 1 b9 02 0f
        E 1 b9 02 10
        E 1 b9 02 10
        E 1 b9 02 11
        E 1 b9 02 12
        E 1 b9 02 13
        E 1 b9 02 14
        E 1 b9 02 14
        E 1 b9 02 15
        E 1 b9 02 16
        E 1 b9 02 17
        E 1 b9 02 18
        E 1 b9 02 18
        E 1 b9 02 19
        E 1 b9 02 1a
        E 1 b9 02 1b
        E 1 b9 02 1c
        E 1 b9 02 1c
        E 1 b9 02 1d
        E 1 b9 02 1e
        E 1 b9 02 1f
        E 1 b9 02 20
        E 1 b9 02 20
        E 1 b9 02 21
        E 1 b9 02 22
        E 1 b9 02 23
        E 1 b9 02 24
        E 1 b9 02 24
        E 1 b9 02 25
        E 1 b9 02 26
        E 1 b9 02 27
        E 1 b9 02 28
        E 1 b9 02 28
        E 1 b9 02 29
        E 1 b9 02 2a
        E 1 b9 02 2b
        E 1 b9 02 2c
        E 1 b9 02 2c
        E 1 b9 02 2d
        E 1 b9 02 2e
        E 1 b9 02 2f
        E 1 b9 02 30
        E 1 b9 02 30
        E 1 b9 02 31
        E 1 b9 02 32
        E 1 b9 02 32
        E 1 b9 02 32
        E 1 b9 02 31
        E 1 b9 02 30
        E 1 b9 02 30
        E 1 b9 02 2f
        E 1 b9 02 2e
        E 1 b9 02 2d
        E 1 b9 02 2c
        E 1 b9 02 2c
        E 1 b9 02 2b
        E 1 b9 02 2a
        E 1 b9 02 29
        E 1 b9 02 28
        E 1 b9 02 28
        E 1 b9 02 27
        E 1 b9 02 26
        E 1 b9 02 25
        E 1 b9 02 24
        E 1 b9 02 24
        E 1 b9 02 23
        E 1 b9 02 22
        E 1 b9 02 21
        E 1 b9 02 20
        E 1 b9 02 20
        E 1 b9 02 1f
        E 1 b9 02 1e
        E 1 b9 02 1d
        E 1 b9 02 1c
        E 1 b9 02 1c
        E 1 b9 02 1b
        E 1 b9 02 1a
        E 1 b9 02 19
        E 1 b9 02 18
        E 1 b9 02 18
        E 1 b9 02 17
        E 1 b9 02 16
        E 1 b9 02 15
        E 1 b9 02 14
        E 1 b9 02 14
        E 1 b9 02 13
        E 1 b9 02 12
        E 1 b9 02 11
        E 1 b9 02 10
        E 1 b9 02 10
        E 1 b9 02 0f
        E 1 b9 02 0e
        E 1 b9 02 0d
        E 1 b9 02 0c
        E 1 b9 02 0c
        E 1 b9 02 0b
        E 1 b9 02 0a
        E 1 b9 02 09
        E 1 b9 02 08
        E 1 b9 02 08
        E 1 b9 02 07
        E 1 b9 02 06
        E 1 b9 02 05
        E 1 b9 02 04
        E 1 b9 02 04
        E 1 b9 02 03
        E 1 b9 02 02
        E 1 b9 02 01
        E 1 b9 02 00
        E 1 b9 02 00
        E 9 b9 02 02
        E 9 b9 02 04
        E 9 b9 02 06
        E 9 b9 02 08
        E 9 b9 02 0a
        E 9 b9 02 0c
        E 9 b9 02 0e
        E 9 b9 02 10
        E 9 b9 02 12
        E 9 b9 02 14
        E 9 b9 02 16
        E 9 b9 02 18
        E 9 b9 02 1a
        E 9 b9 02 1c
        E 9 b9 02 1e
        E 9 b9 02 20
        E 9 b9 02 22
        E 9 b9 02 24
        E 9 b9 02 26
        E 9 b9 02 28
        E 9 b9 02 2a
        E 9 b9 02 2c
        E 9 b9 02 2e
        E 9 b9 02 30
        E 9 b9 02 32
        E 9 b9 02 34
        E 9 b9 02 36
        E 9 b9 02 38
        E 9 b9 02 3a
        E 9 b9 02 3c
        E 9 b9 02 3e
        E 9 b9 02 40
        E 9 b9 02 42
        E 9 b9 02 44
        E 9 b9 02 46
        E 9 b9 02 48
        E 9 b9 02 4a
        E 9 b9 02 4c
        E 9 b9 02 4e
        E 9 b9 02 50
        E 9 b9 02 52
        E 9 b9 02 54
        E 9 b9 02 56
        E 9 b9 02 58
        E 9 b9 02 5a
        E 9 b9 02 5c
        E 9 b9 02 5e
        E 9 b9 02 60
        E 9 b9 02 62
        E 9 b9 02 64
        E 9 b9 02 66
        E 9 b9 02 68
        E 9 b9 02 6a
        E 9 b9 02 6c
        E 9 b9 02 6e
        E 9 b9 02 70
        E 9 b9 02 72
        E 9 b9 02 74
        E 9 b9 02 76
        E 9 b9 02 78
        E 9 b9 02 7a
        E 9 b9 02 7c
        E 9 b9 02 7e
        E 9 b9 02 7f
        E 9 b9 02 7e
        E 9 b9 02 7c
        E 9 b9 02 7a
        E 9 b9 02 78
        E 9 b9 02 76
        E 9 b9 02 74
        E 9 b9 02 72
        E 9 b9 02 70
        E 9 b9 02 6e
        E 9 b9 02 6c
        E 9 b9 02 6a
        E 9 b9 02 68
        E 9 b9 02 66
        E 9 b9 02 64
        E 9 b9 02 62
        E 9 b9 02 60
        E 9 b9 02 5e
        E 9 b9 02 5c
        E 9 b9 02 5a
        E 9 b9 02 58
        E 9 b9 02 56
        E 9 b9 02 54
        E 9 b9 02 52
        E 9 b9 02 50
        E 9 b9 02 4e
        E 9 b9 02 4c
        E 9 b9 02 4a
        E 9 b9 02 48
        E 9 b9 02 46
        E 9 b9 02 44
        E 9 b9 02 42
        E 9 b9 02 40
        E 9 b9 02 3e
        E 9 b9 02 3c
        E 9 b9 02 3a
        E 9 b9 02 38
        E 9 b9 02 36
        E 9 b9 02 34
        E 9 b9 02 32
        E 9 b9 02 30
        E 9 b9 02 2e
        E 9 b9 02 2c
        E 9 b9 02 2a
        E 9 b9 02 28
        E 9 b9 02 26
        E 9 b9 02 24
        E 9 b9 02 22
        E 9 b9 02 20
        E 9 b9 02 1e
        E 9 b9 02 1c
        E 9 b9 02 1a
        E 9 b9 02 18
        E 9 b9 02 16
        E 9 b9 02 14
        E 9 b9 02 12
        E 9 b9 02 10
        E 9 b9 02 0e
        E 9 b9 02 0c
        E 9 b9 02 0a
        E 9 b9 02 08
        E 9 b9 02 06
        E 9 b9 02 04
        E 9 b9 02 02
        E 9 b9 02 00
        E 2 b9 02 01
        E 2 b9 02 03
        E 2 b9 02 05
        E 2 b9 02 07
        E 2 b9 02 09
        E 2 b9 02 0a
        E 2 b9 02 0c
        E 2 b9 02 0e
        E 2 b9 02 10
        E 2 b9 02 12
        E 2 b9 02 13
        E 2 b9 02 15
        E 2 b9 02 17
        E 2 b9 02 19
        E 2 b9 02 1b
        E 2 b9 02 1c
        E 2 b9 02 1e
        E 2 b9 02 20
        E 2 b9 02 22
        E 2 b9 02 24
        E 2 b9 02 25
        E 2 b9 02 27
        E 2 b9 02 29
        E 2 b9 02 2b
        E 2 b9 02 2d
        E 2 b9 02 2e
        E 2 b9 02 30
        E 2 b9 02 32
        E 2 b9 02 34
        E 2 b9 02 36
        E 2 b9 02 37
        E 2 b9 02 39
        E 2 b9 02 3b
        E 2 b9 02 3d
        E 2 b9 02 3f
        E 2 b9 02 40
        E 2 b9 02 42
        E 2 b9 02 44
        E 2 b9 02 46
        E 2 b9 02 48
        E 2 b9 02 49
        E 2 b9 02 4b
        E 2 b9 02 4d
        E 2 b9 02 4f
        E 2 b9 02 51
        E 2 b9 02 52
        E 2 b9 02 54
        E 2 b9 02 56
        E 2 b9 02 58
        E 2 b9 02 5a
        E 2 b9 02 5b
        E 2 b9 02 5d
        E 2 b9 02 5f
        E 2 b9 02 61
        E 2 b9 02 63
        E 2 b9 02 64
        E 2 b9 02 66
        E 2 b9 02 68
        E 2 b9 02 6a
        E 2 b9 02 6c
        E 2 b9 02 6d
        E 2 b9 02 6f
        E 2 b9 02 71
        E 2 b9 02 72
        E 2 b9 02 71
        E 2 b9 02 6f
        E 2 b9 02 6d
        E 2 b9 02 6c
        E 2 b9 02 6a
        E 2 b9 02 68
        E 2 b9 02 66
        E 2 b9 02 64
        E 2 b9 02 63
        E 2 b9 02 61
        E 2 b9 02 5f
        E 2 b9 02 5d
        E 2 b9 02 5b
        E 2 b9 02 5a
        E 2 b9 02 58
        E 2 b9 02 56
        E 2 b9 02 54
        E 2 b9 02 52
        E 2 b9 02 51
        E 2 b9 02 4f
        E 2 b9 02 4d
        E 2 b9 02 4b
        E 2 b9 02 49
        E 2 b9 02 48
        E 2 b9 02 46
        E 2 b9 02 44
        E 2 b9 02 42
        E 2 b9 02 40
        E 2 b9 02 3f
        E 2 b9 02 3d
        E 2 b9 02 3b
        E 2 b9 02 39
        E 2 b9 02 37
        E 2 b9 02 36
        E 2 b9 02 34
        E 2 b9 02 32
        E 2 b9 02 30
        E 2 b9 02 2e
        E 2 b9 02 2d
        E 2 b9 02 2b
        E 2 b9 02 29
        E 2 b9 02 27
        E 2 b9 02 25
        E 2 b9 02 24
        E 2 b9 02 22
        E 2 b9 02 20
        E 2 b9 02 1e
        E 2 b9 02 1c
        E 2 b9 02 1b
        E 2 b9 02 19
        E 2 b9 02 17
        E 2 b9 02 15
        E 2 b9 02 13
        E 2 b9 02 12
        E 2 b9 02 10
        E 2 b9 02 0e
        E 2 b9 02 0c
        E 2 b9 02 0a
        E 2 b9 02 09
        E 2 b9 02 07
        E 2 b9 02 05
        E 2 b9 02 03
        E 2 b9 02 01
        E 2 b9 02 00
        E 4 b9 02 01
        E 4 b9 02 02
        E 4 b9 02 04
        E 4 b9 02 05
        E 4 b9 02 07
        E 4 b9 02 08
        E 4 b9 02 09
        E 4 b9 02 0b
        E 4 b9 02 0c
        E 4 b9 02 0e
        E 4 b9 02 0f
        E 4 b9 02 10
        E 4 b9 02 12
        E 4 b9 02 13
        E 4 b9 02 15
        E 4 b9 02 16
        E 4 b9 02 17
        E 4 b9 02 19
        E 4 b9 02 1a
        E 4 b9 02 1c
        E 4 b9 02 1d
        E 4 b9 02 1e
        E 4 b9 02 20
        E 4 b9 02 21
        E 4 b9 02 23
        E 4 b9 02 24
        E 4 b9 02 25
        E 4 b9 02 27
        E 4 b9 02 28
        E 4 b9 02 2a
        E 4 b9 02 2b
        E 4 b9 02 2c
        E 4 b9 02 2e
        E 4 b9 02 2f
        E 4 b9 02 31
        E 4 b9 02 32
        E 4 b9 02 33
        E 4 b9 02 35
        E 4 b9 02 36
        E 4 b9 02 38
        E 4 b9 02 39
        E 4 b9 02 3a
        E 4 b9 02 3c
        E 4 b9 02 3d
        E 4 b9 02 3e
        E 4 b9 02 40
        E 4 b9 02 41
        E 4 b9 02 43
        E 4 b9 02 44
        E 4 b9 02 46
        E 4 b9 02 47
        E 4 b9 02 48
        E 4 b9 02 4a
        E 4 b9 02 4b
        E 4 b9 02 4d
        E 4 b9 02 4e
        E 4 b9 02 4f
        E 4 b9 02 51
        E 4 b9 02 52
        E 4 b9 02 54
        E 4 b9 02 55
        E 4 b9 02 56
        E 4 b9 02 58
        E 4 b9 02 58
        E 4 b9 02 58
        E 4 b9 02 56
        E 4 b9 02 55
        E 4 b9 02 54
        E 4 b9 02 52
        E 4 b9 02 51
        E 4 b9 02 4f
        E 4 b9 02 4e
        E 4 b9 02 4d
        E 4 b9 02 4b
        E 4 b9 02 4a
        E 4 b9 02 48
        E 4 b9 02 47
        E 4 b9 02 46
        E 4 b9 02 44
        E 4 b9 02 43
        E 4 b9 02 41
        E 4 b9 02 40
        E 4 b9 02 3e
        E 4 b9 02 3d
        E 4 b9 02 3c
        E 4 b9 02 3a
        E 4 b9 02 39
        E 4 b9 02 38
        E 4 b9 02 36
        E 4 b9 02 35
        E 4 b9 02 33
        E 4 b9 02 32
        E 4 b9 02 31
        E 4 b9 02 2f
        E 4 b9 02 2e
        E 4 b9 02 2c
        E 4 b9 02 2b
        E 4 b9 02 2a
        E 4 b9 02 28
        E 4 b9 02 27
        E 4 b9 02 25
        E 4 b9 02 24
        E 4 b9 02 23
        E 4 b9 02 21
        E 4 b9 02 20
        E 4 b9 02 1e
        E 4 b9 02 1d
        E 4 b9 02 1c
        E 4 b9 02 1a
        E 4 b9 02 19
        E 4 b9 02 17
        E 4 b9 02 16
        E 4 b9 02 15
        E 4 b9 02 13
        E 4 b9 02 12
        E 4 b9 02 10
        E 4 b9 02 0f
        E 4 b9 02 0e
        E 4 b9 02 0c
        E 4 b9 02 0b
        E 4 b9 02 09
        E 4 b9 02 08
        E 4 b9 02 07
        E 4 b9 02 05
        E 4 b9 02 04
        E 4 b9 02 02
        E 4 b9 02 01
        E 4 b9 02 00
        E 1 b9 02 00
        E 1 b9 02 01
        E 1 b9 02 02
        E 1 b9 02 03
        E 1 b9 02 04
        E 1 b9 02 04
        E 1 b9 02 05
        E 1 b9 02 06
        E 1 b9 02 07
        E 1 b9 02 08
        E 1 b9 02 08
        E 1 b9 02 09
        E 1 b9 02 0a
        E 1 b9 02 0b
        E 1 b9 02 0c
        E 1 b9 02 0c
        E 1 b9 02 0d
        E 1 b9 02 0e
        E 1 b9 02 0f
        E 1 b9 02 10
        E 1 b9 02 10
        E 1 b9 02 11
        E 1 b9 02 12
        E 1 b9 02 13
        E 1 b9 02 14
        E 1 b9 02 14
        E 1 b9 02 15
        E 1 b9 02 16
        E 1 b9 02 17
        E 1 b9 02 18
        E 1 b9 02 18
        E 1 b9 02 19
        E 1 b9 02 1a
        E 1 b9 02 1b
        E 1 b9 02 1c
        E 1 b9 02 1c
        E 1 b9 02 1d
        E 1 b9 02 1e
        E 1 b9 02 1f
        E 1 b9 02 20
        E 1 b9 02 20
        E 1 b9 02 21
        E 1 b9 02 22
        E 1 b9 02 23
        E 1 b9 02 24
        E 1 b9 02 24
        E 1 b9 02 25
        E 1 b9 02 26
        E 1 b9 02 27
        E 1 b9 02 28
        E 1 b9 02 28
        E 1 b9 02 29
        E 1 b9 02 2a
        E 1 b9 02 2b
        E 1 b9 02 2c
        E 1 b9 02 2c
        E 1 b9 02 2d
        E 1 b9 02 2e
        E 1 b9 02 2f
        E 1 b9 02 30
        E 1 b9 02 30
        E 1 b9 02 31
        E 1 b9 02 32
        E 1 b9 02 32
        E 1 b9 02 32
        E 1 b9 02 31
        E 1 b9 02 30
        E 1 b9 02 30
        E 1 b9 02 2f
        E 1 b9 02 2e
        E 1 b9 02 2d
        E 1 b9 02 2c
        E 1 b9 02 2c
        E 1 b9 02 2b
        E 1 b9 02 2a
        E 1 b9 02 29
        E 1 b9 02 28
        E 1 b9 02 28
        E 1 b9 02 27
        E 1 b9 02 26
        E 1 b9 02 25
        E 1 b9 02 24
        E 1 b9 02 24
        E 1 b9 02 23
        E 1 b9 02 22
        E 1 b9 02 21
        E 1 b9 02 20
        E 1 b9 02 20
        E 1 b9 02 1f
        E 1 b9 02 1e
        E 1 b9 02 1d
        E 1 b9 02 1c
        E 1 b9 02 1c
        E 1 b9 02 1b
        E 1 b9 02 1a
        E 1 b9 02 19
        E 1 b9 02 18
        E 1 b9 02 18
        E 1 b9 02 17
        E 1 b9 02 16
        E 1 b9 02 15
        E 1 b9 02 14
        E 1 b9 02 14
        E 1 b9 02 13
        E 1 b9 02 12
        E 1 b9 02 11
        E 1 b9 02 10
        E 1 b9 02 10
        E 1 b9 02 0f
        E 1 b9 02 0e
        E 1 b9 02 0d
        E 1 b9 02 0c
        E 1 b9 02 0c
        E 1 b9 02 0b
        E 1 b9 02 0a
        E 1 b9 02 09
        E 1 b9 02 08
        E 1 b9 02 08
        E 1 b9 02 07
        E 1 b9 02 06
        E 1 b9 02 05
        E 1 b9 02 04
        E 1 b9 02 04
        E 1 b9 02 03
        E 1 b9 02 02
        E 1 b9 02 01
        E 1 b9 02 00
        E 1 b9 02 00
        E 9 b9 02 02
        E 9 b9 02 04
        E 9 b9 02 06
        E 9 b9 02 08
        E 9 b9 02 0a
        E 9 b9 02 0c
        E 9 b9 02 0e
        E 9 b9 02 10
        E 9 b9 02 12
        E 9 b9 02 14
        E 9 b9 02 16
        E 9 b9 02 18
        E 9 b9 02 1a
        E 9 b9 02 1c
        E 9 b9 02 1e
        E 9 b9 02 20
        E 9 b9 02 22
        E 9 b9 02 24
        E 9 b9 02 26
        E 9 b9 02 28
        E 9 b9 02 2a
        E 9 b9 02 2c
        E 9 b9 02 2e
        E 9 b9 02 30
        E 9 b9 02 32
        E 9 b9 02 34
        E 9 b9 02 36
        E 9 b9 02 38
        E 9 b9 02 3a
        E 9 b9 02 3c
        E 9 b9 02 3e
        E 9 b9 02 40
        E 9 b9 02 42
        E 9 b9 02 44
        E 9 b9 02 46
        E 9 b9 02 48
        E 9 b9 02 4a
        E 9 b9 02 4c
        E 9 b9 02 4e
        E 9 b9 02 50
        E 9 b9 02 52
        E 9 b9 02 54
        E 9 b9 02 56
        E 9 b9 02 58
        E 9 b9 02 5a
        E 9 b9 02 5c
        E 9 b9 02 5e
        E 9 b9 02 60
        E 9 b9 02 62
        E 9 b9 02 64
        E 9 b9 02 66
        E 9 b9 02 68
        E 9 b9 02 6a
        E 9 b9 02 6c
        E 9 b9 02 6e
        E 9 b9 02 70
        E 9 b9 02 72
        E 9 b9 02 74
        E 9 b9 02 76
        E 9 b9 02 78
        E 9 b9 02 7a
        E 9 b9 02 7c
        E 9 b9 02 7e
        E 9 b9 02 7f
        E 9 b9 02 7e
        E 9 b9 02 7c
        E 9 b9 02 7a
        E 9 b9 02 78
        E 9 b9 02 76
        E 9 b9 02 74
        E 9 b9 02 72
        E 9 b9 02 70
        E 9 b9 02 6e
        E 9 b9 02 6c
        E 9 b9 02 6a
        E 9 b9 02 68
        E 9 b9 02 66
        E 9 b9 02 64
        E 9 b9 02 62
        E 9 b9 02 60
        E 9 b9 02 5e
        E 9 b9 02 5c
        E 9 b9 02 5a
        E 9 b9 02 58
        E 9 b9 02 56
        E 9 b9 02 54
        E 9 b9 02 52
        E 9 b9 02 50
        E 9 b9 02 4e
        E 9 b9 02 4c
        E 9 b9 02 4a
        E 9 b9 02 48
        E 9 b9 02 46
        E 9 b9 02 44
        E 9 b9 02 42
        E 9 b9 02 40
        E 9 b9 02 3e
        E 9 b9 02 3c
        E 9 b9 02 3a
        E 9 b9 02 38
        E 9 b9 02 36
        E 9 b9 02 34
        E 9 b9 02 32
        E 9 b9 02 30
        E 9 b9 02 2e
        E 9 b9 02 2c
        E 9 b9 02 2a
        E 9 b9 02 28
        E 9 b9 02 26
        E 9 b9 02 24
        E 9 b9 02 22
        E 9 b9 02 20
        E 9 b9 02 1e
        E 9 b9 02 1c
        E 9 b9 02 1a
        E 9 b9 02 18
        E 9 b9 02 16
        E 9 b9 02 14
        E 9 b9 02 12
        E 9 b9 02 10
        E 9 b9 02 0e
        E 9 b9 02 0c
        E 9 b9 02 0a
        E 9 b9 02 08
        E 9 b9 02 06
        E 9 b9 02 04
        E 9 b9 02 02
        E 9 b9 02 00
        E 2 b9 02 01
        E 2 b9 02 03
        E 2 b9 02 05
        E 2 b9 02 07
        E 2 b9 02 09
        E 2 b9 02 0a
        E 2 b9 02 0c
        E 2 b9 02 0e
        E 2 b9 02 10
        E 2 b9 02 12
        E 2 b9 02 13
        E 2 b9 02 15
        E 2 b9 02 17
        E 2 b9 02 19
        E 2 b9 02 1b
        E 2 b9 02 1c
        E 2 b9 02 1e
        E 2 b9 02 20
        E 2 b9 02 22
        E 2 b9 02 24
        E 2 b9 02 25
        E 2 b9 02 27
        E 2 b9 02 29
        E 2 b9 02 2b
        E 2 b9 02 2d
        E 2 b9 02 2e
        E 2 b9 02 30
        E 2 b9 02 32
        E 2 b9 02 34
        E 2 b9 02 36
        E 2 b9 02 37
        E 2 b9 02 39
        E 2 b9 02 3b
        E 2 b9 02 3d
        E 2 b9 02 3f
        E 2 b9 02 40
        E 2 b9 02 42
        E 2 b9 02 44
        E 2 b9 02 46
        E 2 b9 02 48
        E 2 b9 02 49
        E 2 b9 02 4b
        E 2 b9 02 4d
        E 2 b9 02 4f
        E 2 b9 02 51
        E 2 b9 02 52
        E 2 b9 02 54
        E 2 b9 02 56
        E 2 b9 02 58
        E 2 b9 02 5a
        E 2 b9 02 5b
        E 2 b9 02 5d
        E 2 b9 02 5f
        E 2 b9 02 61
        E 2 b9 02 63
        E 2 b9 02 64
        E 2 b9 02 66
        E 2 b9 02 68
        E 2 b9 02 6a
        E 2 b9 02 6c
        E 2 b9 02 6d
        E 2 b9 02 6f
        E 2 b9 02 71
        E 2 b9 02 72
        E 2 b9 02 71
        E 2 b9 02 6f
        E 2 b9 02 6d
        E 2 b9 02 6c
        E 2 b9 02 6a
        E 2 b9 02 68
        E 2 b9 02 66
        E 2 b9 02 64
        E 2 b9 02 63
        E 2 b9 02 61
        E 2 b9 02 5f
        E 2 b9 02 5d
        E 2 b9 02 5b
        E 2 b9 02 5a
        E 2 b9 02 58
        E 2 b9 02 56
        E 2 b9 02 54
        E 2 b9 02 52
        E 2 b9 02 51
        E 2 b9 02 4f
        E 2 b9 02 4d
        E 2 b9 02 4b
        E 2 b9 02 49
        E 2 b9 02 48
        E 2 b9 02 46
        E 2 b9 02 44
        E 2 b9 02 42
        E 2 b9 02 40
        E 2 b9 02 3f
        E 2 b9 02 3d
        E 2 b9 02 3b
        E 2 b9 02 39
        E 2 b9 02 37
        E 2 b9 02 36
        E 2 b9 02 34
        E 2 b9 02 32
        E 2 b9 02 30
        E 2 b9 02 2e
        E 2 b9 02 2d
        E 2 b9 02 2b
        E 2 b9 02 29
        E 2 b9 02 27
        E 2 b9 02 25
        E 2 b9 02 24
        E 2 b9 02 22
        E 2 b9 02 20
        E 2 b9 02 1e
        E 2 b9 02 1c
        E 2 b9 02 1b
        E 2 b9 02 19
        E 2 b9 02 17
        E 2 b9 02 15
        E 2 b9 02 13
        E 2 b9 02 12
        E 2 b9 02 10
        E 2 b9 02 0e
        E 2 b9 02 0c
        E 2 b9 02 0a
        E 2 b9 02 09
        E 2 b9 02 07
        E 2 b9 02 05
        E 2 b9 02 03
        E 2 b9 02 01
        E 2 b9 02 00
        E 4 b9 02 01
        E 4 b9 02 02
        E 4 b9 02 04
        E 4 b9 02 05
        E 4 b9 02 07
        E 4 b9 02 08
        E 4 b9 02 09
        E 4 b9 02 0b
        E 4 b9 02 0c
        E 4 b9 02 0e
        E 4 b9 02 0f
        E 4 b9 02 10
        E 4 b9 02 12
        E 4 b9 02 13
        E 4 b9 02 15
        E 4 b9 02 16
        E 4 b9 02 17
        E 4 b9 02 19
        E 4 b9 02 1a
        E 4 b9 02 1c
        E 4 b9 02 1d
        E 4 b9 02 1e
        E 4 b9 02 20
        E 4 b9 02 21
        E 4 b9 02 23
        E 4 b9 02 24
        E 4 b9 02 25
        E 4 b9 02 27
        E 4 b9 02 28
        E 4 b9 02 2a
        E 4 b9 02 2b
        E 4 b9 02 2c
        E 4 b9 02 2e
        E 4 b9 02 2f
        E 4 b9 02 31
        E 4 b9 02 32
        E 4 b9 02 33
        E 4 b9 02 35
        E 4 b9 02 36
        E 4 b9 02 38
        E 4 b9 02 39
        E 4 b9 02 3a
        E 4 b9 02 3c
        E 4 b9 02 3d
        E 4 b9 02 3e
        E 4 b9 02 40
        E 4 b9 02 41
        E 4 b9 02 43
        E 4 b9 02 44
        E 4 b9 02 46
        E 4 b9 02 47
        E 4 b9 02 48
        E 4 b9 02 4a
        E 4 b9 02 4b
        E 4 b9 02 4d
        E 4 b9 02 4e
        E 4 b9 02 4f
        E 4 b9 02 51
        E 4 b9 02 52
        E 4 b9 02 54
        E 4 b9 02 55
        E 4 b9 02 56
        E 4 b9 02 58
        E 4 b9 02 58
        E 4 b9 02 58
        E 4 b9 02 56
        E 4 b9 02 55
        E 4 b9 02 54
        E 4 b9 02 52
        E 4 b9 02 51
        E 4 b9 02 4f
        E 4 b9 02 4e
        E 4 b9 02 4d
        E 4 b9 02 4b
        E 4 b9 02 4a
        E 4 b9 02 48
        E 4 b9 02 47
        E 4 b9 02 46
        E 4 b9 02 44
        E 4 b9 02 43
        E 4 b9 02 41
        E 4 b9 02 40
        E 4 b9 02 3e
        E 4 b9 02 3d
        E 4 b9 02 3c
        E 4 b9 02 3a
        E 4 b9 02 39
        E 4 b9 02 38
        E 4 b9 02 36
        E 4 b9 02 35
        E 4 b9 02 33
        E 4 b9 02 32
        E 4 b9 02 31
        E 4 b9 02 2f
        E 4 b9 02 2e
        E 4 b9 02 2c
        E 4 b9 02 2b
        E 4 b9 02 2a
        E 4 b9 02 28
        E 4 b9 02 27
        E 4 b9 02 25
        E 4 b9 02 24
        E 4 b9 02 23
        E 4 b9 02 21
        E 4 b9 02 20
        E 4 b9 02 1e
        E 4 b9 02 1d
        E 4 b9 02 1c
        E 4 b9 02 1a
        E 4 b9 02 19
        E 4 b9 02 17
        E 4 b9 02 16
        E 4 b9 02 15
        E 4 b9 02 13
        E 4 b9 02 12
        E 4 b9 02 10
        E 4 b9 02 0f
        E 4 b9 02 0e
        E 4 b9 02 0c
        E 4 b9 02 0b
        E 4 b9 02 09
        E 4 b9 02 08
        E 4 b9 02 07
        E 4 b9 02 05
        E 4 b9 02 04
        E 4 b9 02 02
        E 4 b9 02 01
        E 4 b9 02 00
        E 1 b9 02 00
        E 1 b9 02 01
        E 1 b9 02 02
        E 1 b9 02 03
        E 1 b9 02 04
        E 1 b9 02 04
        E 1 b9 02 05
        E 1 b9 02 06
        E 1 b9 02 07
        E 1 b9 02 08
        E 1 b9 02 08
        E 1 b9 02 09
        E 1 b9 02 0a
        E 1 b9 02 0b
        E 1 b9 02 0c
        E 1 b9 02 0c
        E 1 b9 02 0d
        E 1 b9 02 0e
        E 1 b9 02 0f
        E 1 b9 02 10
        E 1 b9 02 10
        E 1 b9 02 11
        E 1 b9 02 12
        E 1 b9 02 13
        E 1 b9 02 14
        E 1 b9 02 14
        E 1 b9 02 15
        E 1 b9 02 16
        E 1 b9 02 17
        E 1 b9 02 18
        E 1 b9 02 18
        E 1 b9 02 19
        E 1 b9 02 1a
        E 1 b9 02 1b
        E 1 b9 02 1c
        E 1 b9 02 1c
        E 1 b9 02 1d
        E 1 b9 02 1e
        E 1 b9 02 1f
        E 1 b9 02 20
        E 1 b9 02 20
        E 1 b9 02 21
        E 1 b9 02 22
        E 1 b9 02 23
        E 1 b9 02 24
        E 1 b9 02 24
        E 1 b9 02 25
        E 1 b9 02 26
        E 1 b9 02 27
        E 1 b9 02 28
        E 1 b9 02 28
        E 1 b9 02 29
        E 1 b9 02 2a
        E 1 b9 02 2b
        E 1 b9 02 2c
        E 1 b9 02 2c
        E 1 b9 02 2d
        E 1 b9 02 2e
        E 1 b9 02 2f
        E 1 b9 02 30
        E 1 b9 02 30
        E 1 b9 02 31
        E 1 b9 02 32
        E 1 b9 02 32
        E 1 b9 02 32
        E 1 b9 02 31
        E 1 b9 02 30
        E 1 b9 02 30
        E 1 b9 02 2f
        E 1 b9 02 2e
        E 1 b9 02 2d
        E 1 b9 02 2c
        E 1 b9 02 2c
        E 1 b9 02 2b
        E 1 b9 02 2a
        E 1 b9 02 29
        E 1 b9 02 28
        E 1 b9 02 28
        E 1 b9 02 27
        E 1 b9 02 26
        E 1 b9 02 25
        E 1 b9 02 24
        E 1 b9 02 24
        E 1 b9 02 23
        E 1 b9 02 22
        E 1 b9 02 21
        E 1 b9 02 20
        E 1 b9 02 20
        E 1 b9 02 1f
        E 1 b9 02 1e
        E 1 b9 02 1d
        E 1 b9 02 1c
        E 1 b9 02 1c
        E 1 b9 02 1b
        E 1 b9 02 1a
        E 1 b9 02 19
        E 1 b9 02 18
        E 1 b9 02 18
        E 1 b9 02 17
        E 1 b9 02 16
        E 1 b9 02 15
        E 1 b9 02 14
        E 1 b9 02 14
        E 1 b9 02 13
        E 1 b9 02 12
        E 1 b9 02 11
        E 1 b9 02 10
        E 1 b9 02 10
        E 1 b9 02 0f
        E 1 b9 02 0e
        E 1 b9 02 0d
        E 1 b9 02 0c
        E 1 b9 02 0c
        E 1 b9 02 0b
        E 1 b9 02 0a
        E 1 b9 02 09
        E 1 b9 02 08
        E 1 b9 02 08
        E 1 b9 02 07
        E 1 b9 02 06
        E 1 b9 02 05
        E 1 b9 02 04
        E 1 b9 02 04
        E 1 b9 02 03
        E 1 b9 02 02
        E 1 b9 02 01
        E 1 b9 02 00
        E 1 b9 02 00
        E 9 b9 02 02
        E 9 b9 02 04
        E 9 b9 02 06
        E 9 b9 02 08
        E 9 b9 02 0a
        E 9 b9 02 0c
        E 9 b9 02 0e
        E 9 b9 02 10
        E 9 b9 02 12
        E 9 b9 02 14
        E 9 b9 02 16
        E 9 b9 02 18
        E 9 b9 02 1a
        E 9 b9 02 1c
        E 9 b9 02 1e
        E 9 b9 02 20
        E 9 b9 02 22
        E 9 b9 02 24
        E 9 b9 02 26
        E 9 b9 02 28
        E 9 b9 02 2a
        E 9 b9 02 2c
        E 9 b9 02 2e
        E 9 b9 02 30
        E 9 b9 02 32
        E 9 b9 02 34
        E 9 b9 02 36
        E 9 b9 02 38
        E 9 b9 02 3a
        E 9 b9 02 3c
        E 9 b9 02 3e
        E 9 b9 02 40
        E 9 b9 02 42
        E 9 b9 02 44
        E 9 b9 02 46
        E 9 b9 02 48
        E 9 b9 02 4a
        E 9 b9 02 4c
        E 9 b9 02 4e
        E 9 b9 02 50
        E 9 b9 02 52
        E 9 b9 02 54
        E 9 b9 02 56
        E 9 b9 02 58
        E 9 b9 02 5a
        E 9 b9 02 5c
        E 9 b9 02 5e
        E 9 b9 02 60
        E 9 b9 02 62
        E 9 b9 02 64
        E 9 b9 02 66
        E 9 b9 02 68
        E 9 b9 02 6a
        E 9 b9 02 6c
        E 9 b9 02 6e
        E 9 b9 02 70
        E 9 b9 02 72
        E 9 b9 02 74
        E 9 b9 02 76
        E 9 b9 02 78
        E 9 b9 02 7a
        E 9 b9 02 7c
        E 9 b9 02 7e
        E 9 b9 02 7f
        E 9 b9 02 7e
        E 9 b9 02 7c
        E 9 b9 02 7a
        E 9 b9 02 78
        E 9 b9 02 76
        E 9 b9 02 74
        E 9 b9 02 72
        E 9 b9 02 70
        E 9 b9 02 6e
        E 9 b9 02 6c
        E 9 b9 02 6a
        E 9 b9 02 68
        E 9 b9 02 66
        E 9 b9 02 64
        E 9 b9 02 62
        E 9 b9 02 60
        E 9 b9 02 5e
        E 9 b9 02 5c
        E 9 b9 02 5a
        E 9 b9 02 58
        E 9 b9 02 56
        E 9 b9 02 54
        E 9 b9 02 52
        E 9 b9 02 50
        E 9 b9 02 4e
        E 9 b9 02 4c
        E 9 b9 02 4a
        E 9 b9 02 48
        E 9 b9 02 46
        E 9 b9 02 44
        E 9 b9 02 42
        E 9 b9 02 40
        E 9 b9 02 3e
        E 9 b9 02 3c
        E 9 b9 02 3a
        E 9 b9 02 38
        E 9 b9 02 36
        E 9 b9 02 34
        E 9 b9 02 32
        E 9 b9 02 30
        E 9 b9 02 2e
        E 9 b9 02 2c
        E 9 b9 02 2a
        E 9 b9 02 28
        E 9 b9 02 26
        E 9 b9 02 24
        E 9 b9 02 22
        E 9 b9 02 20
        E 9 b9 02 1e
        E 9 b9 02 1c
        E 9 b9 02 1a
        E 9 b9 02 18
        E 9 b9 02 16
        E 9 b9 02 14
        E 9 b9 02 12
        E 9 b9 02 10
        E 9 b9 02 0e
        E 9 b9 02 0c
        E 9 b9 02 0a
        E 9 b9 02 08
        E 9 b9 02 06
        E 9 b9 02 04
        E 9 b9 02 02
        E 9 b9 02 00
        E 2 b9 02 01
        E 2 b9 02 03
        E 2 b9 02 05
        E 2 b9 02 07
        E 2 b9 02 09
        E 2 b9 02 0a
        E 2 b9 02 0c
        E 2 b9 02 0e
        E 2 b9 02 10
        E 2 b9 02 12
        E 2 b9 02 13
        E 2 b9 02 15
        E 2 b9 02 17
        E 2 b9 02 19
        E 2 b9 02 1b
        E 2 b9 02 1c
        E 2 b9 02 1e
        E 2 b9 02 20
        E 2 b9 02 22
        E 2 b9 02 24
        E 2 b9 02 25
        E 2 b9 02 27
        E 2 b9 02 29
        E 2 b9 02 2b
        E 2 b9 02 2d
        E 2 b9 02 2e
        E 2 b9 02 30
        E 2 b9 02 32
        E 2 b9 02 34
        E 2 b9 02 36
        E 2 b9 02 37
        E 2 b9 02 39
        E 2 b9 02 3b
        E 2 b9 02 3d
        E 2 b9 02 3f
        E 2 b9 02 40
        E 2 b9 02 42
        E 2 b9 02 44
        E 2 b9 02 46
        E 2 b9 02 48
        E 2 b9 02 49
        E 2 b9 02 4b
        E 2 b9 02 4d
        E 2 b9 02 4f
        E 2 b9 02 51
        E 2 b9 02 52
        E 2 b9 02 54
        E 2 b9 02 56
        E 2 b9 02 58
        E 2 b9 02 5a
        E 2 b9 02 5b
        E 2 b9 02 5d
        E 2 b9 02 5f
        E 2 b9 02 61
        E 2 b9 02 63
        E 2 b9 02 64
        E 2 b9 02 66
        E 2 b9 02 68
        E 2 b9 02 6a
        E 2 b9 02 6c
        E 2 b9 02 6d
        E 2 b9 02 6f
        E 2 b9 02 71
        E 2 b9 02 72
        E 2 b9 02 71
        E 2 b9 02 6f
        E 2 b9 02 6d
        E 2 b9 02 6c
        E 2 b9 02 6a
        E 2 b9 02 68
        E 2 b9 02 66
        E 2 b9 02 64
        E 2 b9 02 63
        E 2 b9 02 61
        E 2 b9 02 5f
        E 2 b9 02 5d
        E 2 b9 02 5b
        E 2 b9 02 5a
        E 2 b9 02 58
        E 2 b9 02 56
        E 2 b9 02 54
        E 2 b9 02 52
        E 2 b9 02 51
        E 2 b9 02 4f
        E 2 b9 02 4d
        E 2 b9 02 4b
        E 2 b9 02 49
        E 2 b9 02 48
        E 2 b9 02 46
        E 2 b9 02 44
        E 2 b9 02 42
        E 2 b9 02 40
        E 2 b9 02 3f
        E 2 b9 02 3d
        E 2 b9 02 3b
        E 2 b9 02 39
        E 2 b9 02 37
        E 2 b9 02 36
        E 2 b9 02 34
        E 2 b9 02 32
        E 2 b9 02 30
        E 2 b9 02 2e
        E 2 b9 02 2d
        E 2 b9 02 2b
        E 2 b9 02 29
        E 2 b9 02 27
        E 2 b9 02 25
        E 2 b9 02 24
        E 2 b9 02 22
        E 2 b9 02 20
        E 2 b9 02 1e
        E 2 b9 02 1c
        E 2 b9 02 1b
        E 2 b9 02 19
        E 2 b9 02 17
        E 2 b9 02 15
        E 2 b9 02 13
        E 2 b9 02 12
        E 2 b9 02 10
        E 2 b9 02 0e
        E 2 b9 02 0c
        E 2 b9 02 0a
        E 2 b9 02 09
        E 2 b9 02 07
        E 2 b9 02 05
        E 2 b9 02 03
        E 2 b9 02 01
        E 2 b9 02 00
        E 4 b9 02 01
        E 4 b9 02 02
        E 4 b9 02 04
        E 4 b9 02 05
        E 4 b9 02 07
        E 4 b9 02 08
        E 4 b9 02 09
        E 4 b9 02 0b
        E 4 b9 02 0c
        E 4 b9 02 0e
        E 4 b9 02 0f
        E 4 b9 02 10
        E 4 b9 02 12
        E 4 b9 02 13
        E 4 b9 02 15
        E 4 b9 02 16
        E 4 b9 02 17
        E 4 b9 02 19
        E 4 b9 02 1a
        E 4 b9 02 1c
        E 4 b9 02 1d
        E 4 b9 02 1e
        E 4 b9 02 20
        E 4 b9 02 21
        E 4 b9 02 23
        E 4 b9 02 24
        E 4 b9 02 25
        E 4 b9 02 27
        E 4 b9 02 28
        E 4 b9 02 2a
        E 4 b9 02 2b
        E 4 b9 02 2c
        E 4 b9 02 2e
        E 4 b9 02 2f
        E 4 b9 02 31
        E 4 b9 02 32
        E 4 b9 02 33
        E 4 b9 02 35
        E 4 b9 02 36
        E 4 b9 02 38
        E 4 b9 02 39
        E 4 b9 02 3a
        E 4 b9 02 3c
        E 4 b9 02 3d
        E 4 b9 02 3e
        E 4 b9 02 40
        E 4 b9 02 41
        E 4 b9 02 43
        E 4 b9 02 44
        E 4 b9 02 46
        E 4 b9 02 47
        E 4 b9 02 48
        E 4 b9 02 4a
        E 4 b9 02 4b
        E 4 b9 02 4d
        E 4 b9 02 4e
        E 4 b9 02 4f
        E 4 b9 02 51
        E 4 b9 02 52
        E 4 b9 02 54
        E 4 b9 02 55
        E 4 b9 02 56
        E 4 b9 02 58
        E 4 b9 02 58
        E 4 b9 02 58
        E 4 b9 02 56
        E 4 b9 02 55
        E 4 b9 02 54
        E 4 b9 02 52
        E 4 b9 02 51
        E 4 b9 02 4f
        E 4 b9 02 4e
        E 4 b9 02 4d
        E 4 b9 02 4b
        E 4 b9 02 4a
        E 4 b9 02 48
        E 4 b9 02 47
        E 4 b9 02 46
        E 4 b9 02 44
        E 4 b9 02 43
        E 4 b9 02 41
        E 4 b9 02 40
        E 4 b9 02 3e
        E 4 b9 02 3d
        E 4 b9 02 3c
        E 4 b9 02 3a
        E 4 b9 02 39
        E 4 b9 02 38
        E 4 b9 02 36
        E 4 b9 02 35
        E 4 b9 02 33
        E 4 b9 02 32
        E 4 b9 02 31
        E 4 b9 02 2f
        E 4 b9 02 2e
        E 4 b9 02 2c
        E 4 b9 02 2b
        E 4 b9 02 2a
        E 4 b9 02 28
        E 4 b9 02 27
        E 4 b9 02 25
        E 4 b9 02 24
        E 4 b9 02 23
        E 4 b9 02 21
        E 4 b9 02 20
        E 4 b9 02 1e
        E 4 b9 02 1d
        E 4 b9 02 1c
        E 4 b9 02 1a
        E 4 b9 02 19
        E 4 b9 02 17
        E 4 b9 02 16
        E 4 b9 02 15
        E 4 b9 02 13
        E 4 b9 02 12
        E 4 b9 02 10
        E 4 b9 02 0f
        E 4 b9 02 0e
        E 4 b9 02 0c
        E 4 b9 02 0b
        E 4 b9 02 09
        E 4 b9 02 08
        E 4 b9 02 07
        E 4 b9 02 05
        E 4 b9 02 04
        E 4 b9 02 02
        E 4 b9 02 01
        E 4 b9 02 00
        E 1 b9 02 00
        E 1 b9 02 01
        E 1 b9 02 02
        E 1 b9 02 03
        E 1 b9 02 04
        E 1 b9 02 04
        E 1 b9 02 05
        E 1 b9 02 06
        E 1 b9 02 07
        E 1 b9 02 08
        E 1 b9 02 08
        E 1 b9 02 09
        E 1 b9 02 0a
        E 1 b9 02 0b
        E 1 b9 02 0c
        E 1 b9 02 0c
        E 1 b9 02 0d
        E 1 b9 02 0e
        E 1 b9 02 0f
        E 1 b9 02 10
        E 1 b9 02 10
        E 1 b9 02 11
        E 1 b9 02 12
        E 1 b9 02 13
        E 1 b9 02 14
        E 1 b9 02 14
        E 1 b9 02 15
        E 1 b9 02 16
        E 1 b9 02 17
        E 1 b9 02 18
        E 1 b9 02 18
        E 1 b9 02 19
        E 1 b9 02 1a
        E 1 b9 02 1b
        E 1 b9 02 1c
        E 1 b9 02 1c
        E 1 b9 02 1d
        E 1 b9 02 1e
        E 1 b9 02 1f
        E 1 b9 02 20
        E 1 b9 02 20
        E 1 b9 02 21
        E 1 b9 02 22
        E 1 b9 02 23
        E 1 b9 02 24
        E 1 b9 02 24
        E 1 b9 02 25
        E 1 b9 02 26
        E 1 b9 02 27
        E 1 b9 02 28
        E 1 b9 02 28
        E 1 b9 02 29
        E 1 b9 02 2a
        E 1 b9 02 2b
        E 1 b9 02 2c
        E 1 b9 02 2c
        E 1 b9 02 2d
        E 1 b9 02 2e
        E 1 b9 02 2f
        E 1 b9 02 30
        E 1 b9 02 30
        E 1 b9 02 31
        E 1 b9 02 32
        E 1 b9 02 32
        E 1 b9 02 32
        E 1 b9 02 31
        E 1 b9 02 30
        E 1 b9 02 30
        E 1 b9 02 2f
        E 1 b9 02 2e
        E 1 b9 02 2d
        E 1 b9 02 2c
        E 1 b9 02 2c
        E 1 b9 02 2b
        E 1 b9 02 2a
        E 1 b9 02 29
        E 1 b9 02 28
        E 1 b9 02 28
        E 1 b9 02 27
        E 1 b9 02 26
        E 1 b9 02 25
        E 1 b9 02 24
        E 1 b9 02 24
        E 1 b9 02 23
        E 1 b9 02 22
        E 1 b9 02 21
        E 1 b9 02 20
        E 1 b9 02 20
        E 1 b9 02 1f
        E 1 b9 02 1e
        E 1 b9 02 1d
        E 1 b9 02 1c
        E 1 b9 02 1c
        E 1 b9 02 1b
        E 1 b9 02 1a
        E 1 b9 02 19
        E 1 b9 02 18
        E 1 b9 02 18
        E 1 b9 02 17
        E 1 b9 02 16
        E 1 b9 02 15
        E 1 b9 02 14
        E 1 b9 02 14
        E 1 b9 02 13
        E 1 b9 02 12
        E 1 b9 02 11
        E 1 b9 02 10
        E 1 b9 02 10
        E 1 b9 02 0f
        E 1 b9 02 0e
        E 1 b9 02 0d
        E 1 b9 02 0c
        E 1 b9 02 0c
        E 1 b9 02 0b
        E 1 b9 02 0a
        E 1 b9 02 09
        E 1 b9 02 08
        E 1 b9 02 08
        E 1 b9 02 07
        E 1 b9 02 06
        E 1 b9 02 05
        E 1 b9 02 04
        E 1 b9 02 04
        E 1 b9 02 03
        E 1 b9 02 02
        E 1 b9 02 01
        E 1 b9 02 00
        E 1 b9 02 00
        E 9 b9 02 02
        E 9 b9 02 04
        E 9 b9 02 06
        E 9 b9 02 08
        E 9 b9 02 0a
        E 9 b9 02 0c
        E 9 b9 02 0e
        E 9 b9 02 10
        E 9 b9 02 12
        E 9 b9 02 14
        E 9 b9 02 16
        E 9 b9 02 18
        E 9 b9 02 1a
        E 9 b9 02 1c
        E 9 b9 02 1e
        E 9 b9 02 20
        E 9 b9 02 22
        E 9 b9 02 24
        E 9 b9 02 26
        E 9 b9 02 28
        E 9 b9 02 2a
        E 9 b9 02 2c
        E 9 b9 02 2e
        E 9 b9 02 30
        E 9 b9 02 32
        E 9 b9 02 34
        E 9 b9 02 36
        E 9 b9 02 38
        E 9 b9 02 3a
        E 9 b9 02 3c
        E 9 b9 02 3e
        E 9 b9 02 40
        E 9 b9 02 42
        E 9 b9 02 44
        E 9 b9 02 46
        E 9 b9 02 48
        E 9 b9 02 4a
        E 9 b9 02 4c
        E 9 b9 02 4e
        E 9 b9 02 50
        E 9 b9 02 52
        E 9 b9 02 54
        E 9 b9 02 56
        E 9 b9 02 58
        E 9 b9 02 5a
        E 9 b9 02 5c
        E 9 b9 02 5e
        E 9 b9 02 60
        E 9 b9 02 62
        E 9 b9 02 64
        E 9 b9 02 66
        E 9 b9 02 68
        E 9 b9 02 6a
        E 9 b9 02 6c
        E 9 b9 02 6e
        E 9 b9 02 70
        E 9 b9 02 72
        E 9 b9 02 74
        E 9 b9 02 76
        E 9 b9 02 78
        E 9 b9 02 7a
        E 9 b9 02 7c
        E 9 b9 02 7e
        E 9 b9 02 7f
        E 9 b9 02 7e
        E 9 b9 02 7c
        E 9 b9 02 7a
        E 9 b9 02 78
        E 9 b9 02 76
        E 9 b9 02 74
        E 9 b9 02 72
        E 9 b9 02 70
        E 9 b9 02 6e
        E 9 b9 02 6c
        E 9 b9 02 6a
        E 9 b9 02 68
        E 9 b9 02 66
        E 9 b9 02 64
        E 9 b9 02 62
        E 9 b9 02 60
        E 9 b9 02 5e
        E 9 b9 02 5c
        E 9 b9 02 5a
        E 9 b9 02 58
        E 9 b9 02 56
        E 9 b9 02 54
        E 9 b9 02 52
        E 9 b9 02 50
        E 9 b9 02 4e
        E 9 b9 02 4c
        E 9 b9 02 4a
        E 9 b9 02 48
        E 9 b9 02 46
        E 9 b9 02 44
        E 9 b9 02 42
        E 9 b9 02 40
        E 9 b9 02 3e
        E 9 b9 02 3c
        E 9 b9 02 3a
        E 9 b9 02 38
        E 9 b9 02 36
        E 9 b9 02 34
        E 9 b9 02 32
        E 9 b9 02 30
        E 9 b9 02 2e
        E 9 b9 02 2c
        E 9 b9 02 2a
        E 9 b9 02 28
        E 9 b9 02 26
        E 9 b9 02 24
        E 9 b9 02 22
        E 9 b9 02 20
        E 9 b9 02 1e
        E 9 b9 02 1c
        E 9 b9 02 1a
        E 9 b9 02 18
        E 9 b9 02 16
        E 9 b9 02 14
        E 9 b9 02 12
        E 9 b9 02 10
        E 9 b9 02 0e
        E 9 b9 02 0c
        E 9 b9 02 0a
        E 9 b9 02 08
        E 9 b9 02 06
        E 9 b9 02 04
        E 9 b9 02 02
        E 9 b9 02 00
        E 2 b9 02 01
        E 2 b9 02 03
        E 2 b9 02 05
        E 2 b9 02 07
        E 2 b9 02 09
        E 2 b9 02 0a
        E 2 b9 02 0c
        E 2 b9 02 0e
        E 2 b9 02 10
        E 2 b9 02 12
        E 2 b9 02 13
        E 2 b9 02 15
        E 2 b9 02 17
        E 2 b9 02 19
        E 2 b9 02 1b
        E 2 b9 02 1c
        E 2 b9 02 1e
        E 2 b9 02 20
        E 2 b9 02 22
        E 2 b9 02 24
        E 2 b9 02 25
        E 2 b9 02 27
        E 2 b9 02 29
        E 2 b9 02 2b
        E 2 b9 02 2d
        E 2 b9 02 2e
        E 2 b9 02 30
        E 2 b9 02 32
        E 2 b9 02 34
        E 2 b9 02 36
        E 2 b9 02 37
        E 2 b9 02 39
        E 2 b9 02 3b
        E 2 b9 02 3d
        E 2 b9 02 3f
        E 2 b9 02 40
        E 2 b9 02 42
        E 2 b9 02 44
        E 2 b9 02 46
        E 2 b9 02 48
        E 2 b9 02 49
        E 2 b9 02 4b
        E 2 b9 02 4d
        E 2 b9 02 4f
        E 2 b9 02 51
        E 2 b9 02 52
        E 2 b9 02 54
        E 2 b9 02 56
        E 2 b9 02 58
        E 2 b9 02 5a
        E 2 b9 02 5b
        E 2 b9 02 5d
        E 2 b9 02 5f
        E 2 b9 02 61
        E 2 b9 02 63
        E 2 b9 02 64
        E 2 b9 02 66
        E 2 b9 02 68
        E 2 b9 02 6a
        E 2 b9 02 6c
        E 2 b9 02 6d
        E 2 b9 02 6f
        E 2 b9 02 71
        E 2 b9 02 72
        E 2 b9 02 71
        E 2 b9 02 6f
        E 2 b9 02 6d
        E 2 b9 02 6c
        E 2 b9 02 6a
        E 2 b9 02 68
        E 2 b9 02 66
        E 2 b9 02 64
        E 2 b9 02 63
        E 2 b9 02 61
        E 2 b9 02 5f
        E 2 b9 02 5d
        E 2 b9 02 5b
        E 2 b9 02 5a
        E 2 b9 02 58
        E 2 b9 02 56
        E 2 b9 02 54
        E 2 b9 02 52
        E 2 b9 02 51
        E 2 b9 02 4f
        E 2 b9 02 4d
        E 2 b9 02 4b
        E 2 b9 02 49
        E 2 b9 02 48
        E 2 b9 02 46
        E 2 b9 02 44
        E 2 b9 02 42
        E 2 b9 02 40
        E 2 b9 02 3f
        E 2 b9 02 3d
        E 2 b9 02 3b
        E 2 b9 02 39
        E 2 b9 02 37
        E 2 b9 02 36
        E 2 b9 02 34
        E 2 b9 02 32
        E 2 b9 02 30
        E 2 b9 02 2e
        E 2 b9 02 2d
        E 2 b9 02 2b
        E 2 b9 02 29
        E 2 b9 02 27
        E 2 b9 02 25
        E 2 b9 02 24
        E 2 b9 02 22
        E 2 b9 02 20
        E 2 b9 02 1e
        E 2 b9 02 1c
        E 2 b9 02 1b
        E 2 b9 02 19
        E 2 b9 02 17
        E 2 b9 02 15
        E 2 b9 02 13
        E 2 b9 02 12
        E 2 b9 02 10
        E 2 b9 02 0e
        E 2 b9 02 0c
        E 2 b9 02 0a
        E 2 b9 02 09
        E 2 b9 02 07
        E 2 b9 02 05
        E 2 b9 02 03
        E 2 b9 02 01
        E 2 b9 02 00
        E 4 b9 02 01
        E 4 b9 02 02
        E 4 b9 02 04
        E 4 b9 02 05
        E 4 b9 02 07
        E 4 b9 02 08
        E 4 b9 02 09
        E 4 b9 02 0b
        E 4 b9 02 0c
        E 4 b9 02 0e
        E 4 b9 02 0f
        E 4 b9 02 10
        E 4 b9 02 12
        E 4 b9 02 13
        E 4 b9 02 15
        E 4 b9 02 16
        E 4 b9 02 17
        E 4 b9 02 19
        E 4 b9 02 1a
        E 4 b9 02 1c
        E 4 b9 02 1d
        E 4 b9 02 1e
        E 4 b9 02 20
        E 4 b9 02 21
        E 4 b9 02 23
        E 4 b9 02 24
        E 4 b9 02 25
        E 4 b9 02 27
        E 4 b9 02 28
        E 4 b9 02 2a
        E 4 b9 02 2b
        E 4 b9 02 2c
        E 4 b9 02 2e
        E 4 b9 02 2f
        E 4 b9 02 31
        E 4 b9 02 32
        E 4 b9 02 33
        E 4 b9 02 35
        E 4 b9 02 36
        E 4 b9 02 38
        E 4 b9 02 39
        E 4 b9 02 3a
        E 4 b9 02 3c
        E 4 b9 02 3d
        E 4 b9 02 3e
        E 4 b9 02 40
        E 4 b9 02 41
        E 4 b9 02 43
        E 4 b9 02 44
        E 4 b9 02 46
        E 4 b9 02 47
        E 4 b9 02 48
        E 4 b9 02 4a
        E 4 b9 02 4b
        E 4 b9 02 4d
        E 4 b9 02 4e
        E 4 b9 02 4f
        E 4 b9 02 51
        E 4 b9 02 52
        E 4 b9 02 54
        E 4 b9 02 55
        E 4 b9 02 56
        E 4 b9 02 58
        E 4 b9 02 58
        E 4 b9 02 58
        E 4 b9 02 56
        E 4 b9 02 55
        E 4 b9 02 54
        E 4 b9 02 52
        E 4 b9 02 51
        E 4 b9 02 4f
        E 4 b9 02 4e
        E 4 b9 02 4d
        E 4 b9 02 4b
        E 4 b9 02 4a
        E 4 b9 02 48
        E 4 b9 02 47
        E 4 b9 02 46
        E 4 b9 02 44
        E 4 b9 02 43
        E 4 b9 02 41
        E 4 b9 02 40
        E 4 b9 02 3e
        E 4 b9 02 3d
        E 4 b9 02 3c
        E 4 b9 02 3a
        E 4 b9 02 39
        E 4 b9 02 38
        E 4 b9 02 36
        E 4 b9 02 35
        E 4 b9 02 33
        E 4 b9 02 32
        E 4 b9 02 31
        E 4 b9 02 2f
        E 4 b9 02 2e
        E 4 b9 02 2c
        E 4 b9 02 2b
        E 4 b9 02 2a
        E 4 b9 02 28
        E 4 b9 02 27
        E 4 b9 02 25
        E 4 b9 02 24
        E 4 b9 02 23
        E 4 b9 02 21
        E 4 b9 02 20
        E 4 b9 02 1e
        E 4 b9 02 1d
        E 4 b9 02 1c
        E 4 b9 02 1a
        E 4 b9 02 19
        E 4 b9 02 17
        E 4 b9 02 16
        E 4 b9 02 15
        E 4 b9 02 13
        E 4 b9 02 12
        E 4 b9 02 10
        E 4 b9 02 0f
        E 4 b9 02 0e
        E 4 b9 02 0c
        E 4 b9 02 0b
        E 4 b9 02 09
        E 4 b9 02 08
        E 4 b9 02 07
        E 4 b9 02 05
        E 4 b9 02 04
        E 4 b9 02 02
        E 4 b9 02 01
        E 4 b9 02 00
        E 1 b9 02 00
        E 1 b9 02 01
        E 1 b9 02 02
        E 1 b9 02 03
        E 1 b9 02 04
        E 1 b9 02 04
        E 1 b9 02 05
        E 1 b9 02 06
        E 1 b9 02 07
        E 1 b9 02 08
        E 1 b9 02 08
        E 1 b9 02 09
        E 1 b9 02 0a
        E 1 b9 02 0b
        E 1 b9 02 0c
        E 1 b9 02 0c
        E 1 b9 02 0d
        E 1 b9 02 0e
        E 1 b9 02 0f
        E 1 b9 02 10
        E 1 b9 02 10
        E 1 b9 02 11
        E 1 b9 02 12
        E 1 b9 02 13
        E 1 b9 02 14
        E 1 b9 02 14
        E 1 b9 02 15
        E 1 b9 02 16
        E 1 b9 02 17
        E 1 b9 02 18
        E 1 b9 02 18
        E 1 b9 02 19
        E 1 b9 02 1a
        E 1 b9 02 1b
        E 1 b9 02 1c
        E 1 b9 02 1c
        E 1 b9 02 1d
        E 1 b9 02 1e
        E 1 b9 02 1f
        E 1 b9 02 20
        E 1 b9 02 20
        E 1 b9 02 21
        E 1 b9 02 22
        E 1 b9 02 23
        E 1 b9 02 24
        E 1 b9 02 24
        E 1 b9 02 25
        E 1 b9 02 26
        E 1 b9 02 27
        E 1 b9 02 28
        E 1 b9 02 28
        E 1 b9 02 29
        E 1 b9 02 2a
        E 1 b9 02 2b
        E 1 b9 02 2c
        E 1 b9 02 2c
        E 1 b9 02 2d
        E 1 b9 02 2e
        E 1 b9 02 2f
        E 1 b9 02 30
        E 1 b9 02 30
        E 1 b9 02 31
        E 1 b9 02 32
        E 1 b9 02 32
        E 1 b9 02 32
        E 1 b9 02 31
        E 1 b9 02 30
        E 1 b9 02 30
        E 1 b9 02 2f
        E 1 b9 02 2e
        E 1 b9 02 2d
        E 1 b9 02 2c
        E 1 b9 02 2c
        E 1 b9 02 2b
        E 1 b9 02 2a
        E 1 b9 02 29
        E 1 b9 02 28
        E 1 b9 02 28
        E 1 b9 02 27
        E 1 b9 02 26
        E 1 b9 02 25
        E 1 b9 02 24
        E 1 b9 02 24
        E 1 b9 02 23
        E 1 b9 02 22
        E 1 b9 02 21
        E 1 b9 02 20
        E 1 b9 02 20
        E 1 b9 02 1f
        E 1 b9 02 1e
        E 1 b9 02 1d
        E 1 b9 02 1c
        E 1 b9 02 1c
        E 1 b9 02 1b
        E 1 b9 02 1a
        E 1 b9 02 19
        E 1 b9 02 18
        E 1 b9 02 18
        E 1 b9 02 17
        E 1 b9 02 16
        E 1 b9 02 15
        E 1 b9 02 14
        E 1 b9 02 14
        E 1 b9 02 13
        E 1 b9 02 12
        E 1 b9 02 11
        E 1 b9 02 10
        E 1 b9 02 10
        E 1 b9 02 0f
        E 1 b9 02 0e
        E 1 b9 02 0d
        E 1 b9 02 0c
        E 1 b9 02 0c
        E 1 b9 02 0b
        E 1 b9 02 0a
        E 1 b9 02 09
        E 1 b9 02 08
        E 1 b9 02 08
        E 1 b9 02 07
        E 1 b9 02 06
        E 1 b9 02 05
        E 1 b9 02 04
        E 1 b9 02 04
        E 1 b9 02 03
        E 1 b9 02 02
        E 1 b9 02 01
        E 1 b9 02 00
        E 1 b9 02 00
        E 9 b9 02 02
        E 9 b9 02 04
        E 9 b9 02 06
        E 9 b9 02 08
        E 9 b9 02 0a
        E 9 b9 02 0c
        E 9 b9 02 0e
        E 9 b9 02 10
        E 9 b9 02 12
        E 9 b9 02 14
        E 9 b9 02 16
        E 9 b9 02 18
        E 9 b9 02 1a
        E 9 b9 02 1c
        E 9 b9 02 1e
        E 9 b9 02 20
        E 9 b9 02 22
        E 9 b9 02 24
        E 9 b9 02 26
        E 9 b9 02 28
        E 9 b9 02 2a
        E 9 b9 02 2c
        E 9 b9 02 2e
        E 9 b9 02 30
        E 9 b9 02 32
        E 9 b9 02 34
        E 9 b9 02 36
        E 9 b9 02 38
        E 9 b9 02 3a
        E 9 b9 02 3c
        E 9 b9 02 3e
        E 9 b9 02 40
        E 9 b9 02 42
        E 9 b9 02 44
        E 9 b9 02 46
        E 9 b9 02 48
        E 9 b9 02 4a
        E 9 b9 02 4c
        E 9 b9 02 4e
        E 9 b9 02 50
        E 9 b9 02 52
        E 9 b9 02 54
        E 9 b9 02 56
        E 9 b9 02 58
        E 9 b9 02 5a
        E 9 b9 02 5c
        E 9 b9 02 5e
        E 9 b9 02 60
        E 9 b9 02 62
        E 9 b9 02 64
        E 9 b9 02 66
        E 9 b9 02 68
        E 9 b9 02 6a
        E 9 b9 02 6c
        E 9 b9 02 6e
        E 9 b9 02 70
        E 9 b9 02 72
        E 9 b9 02 74
        E 9 b9 02 76
        E 9 b9 02 78
        E 9 b9 02 7a
        E 9 b9 02 7c
        E 9 b9 02 7e
        E 9 b9 02 7f
        E 9 b9 02 7e
        E 9 b9 02 7c
        E 9 b9 02 7a
        E 9 b9 02 78
        E 9 b9 02 76
        E 9 b9 02 74
        E 9 b9 02 72
        E 9 b9 02 70
        E 9 b9 02 6e
        E 9 b9 02 6c
        E 9 b9 02 6a
        E 9 b9 02 68
        E 9 b9 02 66
        E 9 b9 02 64
        E 9 b9 02 62
        E 9 b9 02 60
        E 9 b9 02 5e
        E 9 b9 02 5c
        E 9 b9 02 5a
        E 9 b9 02 58
        E 9 b9 02 56
        E 9 b9 02 54
        E 9 b9 02 52
        E 9 b9 02 50
        E 9 b9 02 4e
        E 9 b9 02 4c
        E 9 b9 02 4a
        E 9 b9 02 48
        E 9 b9 02 46
        E 9 b9 02 44
        E 9 b9 02 42
        E 9 b9 02 40
        E 9 b9 02 3e
        E 9 b9 02 3c
        E 9 b9 02 3a
        E 9 b9 02 38
        E 9 b9 02 36
        E 9 b9 02 34
        E 9 b9 02 32
        E 9 b9 02 30
        E 9 b9 02 2e
        E 9 b9 02 2c
        E 9 b9 02 2a
        E 9 b9 02 28
        E 9 b9 02 26
        E 9 b9 02 24
        E 9 b9 02 22
        E 9 b9 02 20
        E 9 b9 02 1e
        E 9 b9 02 1c
        E 9 b9 02 1a
        E 9 b9 02 18
        E 9 b9 02 16
        E 9 b9 02 14
        E 9 b9 02 12
        E 9 b9 02 10
        E 9 b9 02 0e
        E 9 b9 02 0c
        E 9 b9 02 0a
        E 9 b9 02 08
        E 9 b9 02 06
        E 9 b9 02 04
        E 9 b9 02 02
        E 9 b9 02 00
        E 2 b9 02 01
        E 2 b9 02 03
        E 2 b9 02 05
        E 2 b9 02 07
        E 2 b9 02 09
        E 2 b9 02 0a
        E 2 b9 02 0c
        E 2 b9 02 0e
        E 2 b9 02 10
        E 2 b9 02 12
        E 2 b9 02 13
        E 2 b9 02 15
        E 2 b9 02 17
        E 2 b9 02 19
        E 2 b9 02 1b
        E 2 b9 02 1c
        E 2 b9 02 1e
        E 2 b9 02 20
        E 2 b9 02 22
        E 2 b9 02 24
        E 2 b9 02 25
        E 2 b9 02 27
        E 2 b9 02 29
        E 2 b9 02 2b
        E 2 b9 02 2d
        E 2 b9 02 2e
        E 2 b9 02 30
        E 2 b9 02 32
        E 2 b9 02 34
        E 2 b9 02 36
        E 2 b9 02 37
        E 2 b9 02 39
        E 2 b9 02 3b
        E 2 b9 02 3d
        E 2 b9 02 3f
        E 2 b9 02 40
        E 2 b9 02 42
        E 2 b9 02 44
        E 2 b9 02 46
        E 2 b9 02 48
        E 2 b9 02 49
        E 2 b9 02 4b
        E 2 b9 02 4d
        E 2 b9 02 4f
        E 2 b9 02 51
        E 2 b9 02 52
        E 2 b9 02 54
        E 2 b9 02 56
        E 2 b9 02 58
        E 2 b9 02 5a
        E 2 b9 02 5b
        E 2 b9 02 5d
        E 2 b9 02 5f
        E 2 b9 02 61
        E 2 b9 02 63
        E 2 b9 02 64
        E 2 b9 02 66
        E 2 b9 02 68
        E 2 b9 02 6a
        E 2 b9 02 6c
        E 2 b9 02 6d
        E 2 b9 02 6f
        E 2 b9 02 71
        E 2 b9 02 72
        E 2 b9 02 71
        E 2 b9 02 6f
        E 2 b9 02 6d
        E 2 b9 02 6c
        E 2 b9 02 6a
        E 2 b9 02 68
        E 2 b9 02 66
        E 2 b9 02 64
        E 2 b9 02 63
        E 2 b9 02 61
        E 2 b9 02 5f
        E 2 b9 02 5d
        E 2 b9 02 5b
        E 2 b9 02 5a
        E 2 b9 02 58
        E 2 b9 02 56
        E 2 b9 02 54
        E 2 b9 02 52
        E 2 b9 02 51
        E 2 b9 02 4f
        E 2 b9 02 4d
        E 2 b9 02 4b
        E 2 b9 02 49
        E 2 b9 02 48
        E 2 b9 02 46
        E 2 b9 02 44
        E 2 b9 02 42
        E 2 b9 02 40
        E 2 b9 02 3f
        E 2 b9 02 3d
        E 2 b9 02 3b
        E 2 b9 02 39
        E 2 b9 02 37
        E 2 b9 02 36
        E 2 b9 02 34
        E 2 b9 02 32
        E 2 b9 02 30
        E 2 b9 02 2e
        E 2 b9 02 2d
        E 2 b9 02 2b
        E 2 b9 02 29
        E 2 b9 02 27
        E 2 b9 02 25
        E 2 b9 02 24
        E 2 b9 02 22
        E 2 b9 02 20
        E 2 b9 02 1e
        E 2 b9 02 1c
        E 2 b9 02 1b
        E 2 b9 02 19
        E 2 b9 02 17
        E 2 b9 02 15
        E 2 b9 02 13
        E 2 b9 02 12
        E 2 b9 02 10
        E 2 b9 02 0e
        E 2 b9 02 0c
        E 2 b9 02 0a
        E 2 b9 02 09
        E 2 b9 02 07
        E 2 b9 02 05
        E 2 b9 02 03
        E 2 b9 02 01
        E 1 b9 02 00
        E 1 b0 7b 00
        CCINTERP 32
        CHASE_CC_TAKEOFFS 1
        GUID {20669961-A0D5-814D-818C-6DCD04DAD08A}
        IGNTEMPO 0 120 4 4
        SRCCOLOR 419
        VELLANE 3 601 0
        VELLANE -1 196 0
      >
    >
  >
  <TRACK {B266B176-68A5-7248-B294-90441D31651D}
    NAME "xbox 360 portal 2 video game disc"
    PEAKCOL 16576
    BEAT -1
    AUTOMODE 0
    VOLPAN 1 0 -1 -1 1
    MUTESOLO 0 0 0
    IPHASE 0
    PLAYOFFS 0 1
    ISBUS 0 0
    BUSCOMP 0 0 0 0 0
    SHOWINMIX 1 0.6667 0.5 1 0.5 -1 -1 -1
    FREEMODE 0
    SEL 0
    REC 0 0 1 0 0 0 0
    VU 2
    TRACKHEIGHT 0 1 0 0 -1 0
    INQ 0 0 0 0.5 100 0 0 100
    NCHAN 2
    FX 1
    TRACKID {B266B176-68A5-7248-B294-90441D31651D}
    PERF 0
    MIDIOUT -1
    MAINSEND 1 0
    <ITEM
      POSITION 0
      SNAPOFFS 0
      LENGTH 116.66662
      LOOP 1
      ALLTAKES 0
      FADEIN 1 0 0 1 0 0
      FADEOUT 1 0 0 1 0 0
      MUTE 0 0
      SEL 0
      IGUID {35358E49-5C64-0048-A9E4-C037BC6F49C7}
      IID 23
      NAME "xbox 360 portal 2 video game disc.mid"
      VOLPAN 1 0 1 -1
      SOFFS 0 0
      PLAYRATE 1 1 0 -1 0 0.0025
      CHANMODE 0
      GUID {F581E03F-B4C2-C44F-BE94-C35DDDA6E277}
      <SOURCE MIDI
        HASDATA 1 128 QN
        CCINTERP 32
        POOLEDEVTS {31C54504-D7E6-F14B-8504-A16DD3DCD294}
        E 8 ba 06 19
        E 8 ba 06 1a
        E 8 ba 06 1c
        E 8 ba 06 1d
        E 8 ba 06 1e
        E 8 ba 06 1f
        E 8 ba 06 20
        E 8 ba 06 22
        E 8 ba 06 23
        E 8 ba 06 24
        E 8 ba 06 25
        E 8 ba 06 26
        E 8 ba 06 27
        E 8 ba 06 28
        E 8 ba 06 29
        E 8 ba 06 2a
        E 8 ba 06 2b
        E 8 ba 06 2c
        E 8 ba 06 2d
        E 8 ba 06 2e
        E 8 ba 06 2e
        E 8 ba 06 2f
        E 8 ba 06 30
        E 8 ba 06 30
        E 8 ba 06 30
        E 8 ba 06 31
        E 8 ba 06 31
        E 8 ba 06 32
        E 8 ba 06 32
        E 8 ba 06 32
        E 8 ba 06 32
        E 8 ba 06 32
        E 8 ba 06 32
        E 8 ba 06 32
        E 8 ba 06 32
        E 8 ba 06 32
        E 8 ba 06 32
        E 8 ba 06 32
        E 8 ba 06 31
        E 8 ba 06 31
        E 8 ba 06 30
        E 8 ba 06 30
        E 8 ba 06 2f
        E 8 ba 06 2e
        E 8 ba 06 2e
        E 8 ba 06 2d
        E 8 ba 06 2c
        E 8 ba 06 2c
        E 8 ba 06 2b
        E 8 ba 06 2a
        E 8 ba 06 29
        E 8 ba 06 28
        E 8 ba 06 27
        E 8 ba 06 26
        E 8 ba 06 24
        E 8 ba 06 23
        E 8 ba 06 22
        E 8 ba 06 21
        E 8 ba 06 20
        E 8 ba 06 1f
        E 8 ba 06 1d
        E 8 ba 06 1c
        E 8 ba 06 1b
        E 8 ba 06 1a
        E 8 ba 06 18
        E 8 ba 06 17
        E 8 ba 06 16
        E 8 ba 06 15
        E 8 ba 06 13
        E 8 ba 06 12
        E 8 ba 06 11
        E 8 ba 06 10
        E 8 ba 06 0f
        E 8 ba 06 0e
        E 8 ba 06 0c
        E 8 ba 06 0b
        E 8 ba 06 0a
        E 8 ba 06 09
        E 8 ba 06 08
        E 8 ba 06 07
        E 8 ba 06 06
        E 8 ba 06 06
        E 8 ba 06 05
        E 8 ba 06 04
        E 8 ba 06 04
        E 8 ba 06 03
        E 8 ba 06 02
        E 8 ba 06 02
        E 8 ba 06 01
        E 8 ba 06 01
        E 8 ba 06 00
        E 8 ba 06 00
        E 8 ba 06 00
        E 8 ba 06 00
        E 8 ba 06 00
        E 8 ba 06 00
        E 8 ba 06 00
        E 8 ba 06 00
        E 8 ba 06 00
        E 8 ba 06 00
        E 8 ba 06 00
        E 8 ba 06 01
        E 8 ba 06 01
        E 8 ba 06 02
        E 8 ba 06 02
        E 8 ba 06 02
        E 8 ba 06 03
        E 8 ba 06 04
        E 8 ba 06 04
        E 8 ba 06 05
        E 8 ba 06 06
        E 8 ba 06 07
        E 8 ba 06 08
        E 8 ba 06 09
        E 8 ba 06 0a
        E 8 ba 06 0b
        E 8 ba 06 0c
        E 8 ba 06 0d
        E 8 ba 06 0e
        E 8 ba 06 0f
        E 8 ba 06 10
        E 8 ba 06 12
        E 8 ba 06 13
        E 8 ba 06 14
        E 8 ba 06 15
        E 8 ba 06 16
        E 8 ba 06 18
        E 8 ba 06 19
        E 21 ba 06 06
        E 21 ba 06 06
        E 21 ba 06 07
        E 21 ba 06 07
        E 21 ba 06 07
        E 21 ba 06 07
        E 21 ba 06 08
        E 21 ba 06 08
        E 21 ba 06 08
        E 21 ba 06 09
        E 21 ba 06 09
        E 21 ba 06 09
        E 21 ba 06 09
        E 21 ba 06 0a
        E 21 ba 06 0a
        E 21 ba 06 0a
        E 21 ba 06 0a
        E 21 ba 06 0b
        E 21 ba 06 0b
        E 21 ba 06 0b
        E 21 ba 06 0b
        E 21 ba 06 0b
        E 21 ba 06 0c
        E 21 ba 06 0c
        E 21 ba 06 0c
        E 21 ba 06 0c
        E 21 ba 06 0c
        E 21 ba 06 0c
        E 21 ba 06 0c
        E 21 ba 06 0c
        E 21 ba 06 0c
        E 21 ba 06 0c
        E 21 ba 06 0c
        E 21 ba 06 0c
        E 21 ba 06 0c
        E 21 ba 06 0c
        E 21 ba 06 0c
        E 21 ba 06 0c
        E 21 ba 06 0c
        E 21 ba 06 0c
        E 21 ba 06 0c
        E 21 ba 06 0c
        E 21 ba 06 0b
        E 21 ba 06 0b
        E 21 ba 06 0b
        E 21 ba 06 0b
        E 21 ba 06 0b
        E 21 ba 06 0b
        E 21 ba 06 0a
        E 21 ba 06 0a
        E 21 ba 06 0a
        E 21 ba 06 0a
        E 21 ba 06 09
        E 21 ba 06 09
        E 21 ba 06 09
        E 21 ba 06 08
        E 21 ba 06 08
        E 21 ba 06 08
        E 21 ba 06 08
        E 21 ba 06 07
        E 21 ba 06 07
        E 21 ba 06 07
        E 21 ba 06 06
        E 21 ba 06 06
        E 21 ba 06 06
        E 21 ba 06 05
        E 21 ba 06 05
        E 21 ba 06 05
        E 21 ba 06 04
        E 21 ba 06 04
        E 21 ba 06 04
        E 21 ba 06 04
        E 21 ba 06 03
        E 21 ba 06 03
        E 21 ba 06 03
        E 21 ba 06 02
        E 21 ba 06 02
        E 21 ba 06 02
        E 21 ba 06 02
        E 21 ba 06 01
        E 21 ba 06 01
        E 21 ba 06 01
        E 21 ba 06 01
        E 21 ba 06 01
        E 21 ba 06 01
        E 21 ba 06 00
        E 21 ba 06 00
        E 21 ba 06 00
        E 21 ba 06 00
        E 21 ba 06 00
        E 21 ba 06 00
        E 21 ba 06 00
        E 21 ba 06 00
        E 21 ba 06 00
        E 21 ba 06 00
        E 21 ba 06 00
        E 21 ba 06 00
        E 21 ba 06 00
        E 21 ba 06 00
        E 21 ba 06 00
        E 21 ba 06 00
        E 21 ba 06 00
        E 21 ba 06 00
        E 21 ba 06 00
        E 21 ba 06 00
        E 21 ba 06 00
        E 21 ba 06 00
        E 21 ba 06 01
        E 21 ba 06 01
        E 21 ba 06 01
        E 21 ba 06 01
        E 21 ba 06 01
        E 21 ba 06 02
        E 21 ba 06 02
        E 21 ba 06 02
        E 21 ba 06 02
        E 21 ba 06 03
        E 21 ba 06 03
        E 21 ba 06 03
        E 21 ba 06 03
        E 21 ba 06 04
        E 21 ba 06 04
        E 21 ba 06 04
        E 21 ba 06 05
        E 21 ba 06 05
        E 21 ba 06 05
        E 21 ba 06 06
        E 21 ba 06 06
        E 18 ba 06 39
        E 18 ba 06 3c
        E 18 ba 06 3f
        E 18 ba 06 41
        E 18 ba 06 44
        E 18 ba 06 47
        E 18 ba 06 49
        E 18 ba 06 4c
        E 18 ba 06 4f
        E 18 ba 06 51
        E 18 ba 06 54
        E 18 ba 06 56
        E 18 ba 06 59
        E 18 ba 06 5b
        E 18 ba 06 5d
        E 18 ba 06 5f
        E 18 ba 06 62
        E 18 ba 06 63
        E 18 ba 06 65
        E 18 ba 06 67
        E 18 ba 06 69
        E 18 ba 06 6a
        E 18 ba 06 6c
        E 18 ba 06 6c
        E 18 ba 06 6d
        E 18 ba 06 6e
        E 18 ba 06 6f
        E 18 ba 06 70
        E 18 ba 06 71
        E 18 ba 06 71
        E 18 ba 06 72
        E 18 ba 06 72
        E 18 ba 06 72
        E 18 ba 06 72
        E 18 ba 06 72
        E 18 ba 06 71
        E 18 ba 06 71
        E 18 ba 06 70
        E 18 ba 06 6f
        E 18 ba 06 6e
        E 18 ba 06 6d
        E 18 ba 06 6c
        E 18 ba 06 6b
        E 18 ba 06 69
        E 18 ba 06 68
        E 18 ba 06 66
        E 18 ba 06 64
        E 18 ba 06 63
        E 18 ba 06 61
        E 18 ba 06 5e
        E 18 ba 06 5c
        E 18 ba 06 5a
        E 18 ba 06 58
        E 18 ba 06 55
        E 18 ba 06 52
        E 18 ba 06 50
        E 18 ba 06 4e
        E 18 ba 06 4b
        E 18 ba 06 48
        E 18 ba 06 46
        E 18 ba 06 42
        E 18 ba 06 3f
        E 18 ba 06 3d
        E 18 ba 06 3a
        E 18 ba 06 37
        E 18 ba 06 35
        E 18 ba 06 32
        E 18 ba 06 2f
        E 18 ba 06 2c
        E 18 ba 06 29
        E 18 ba 06 26
        E 18 ba 06 24
        E 18 ba 06 22
        E 18 ba 06 1f
        E 18 ba 06 1c
        E 18 ba 06 1a
        E 18 ba 06 18
        E 18 ba 06 15
        E 18 ba 06 13
        E 18 ba 06 11
        E 18 ba 06 0f
        E 18 ba 06 0d
        E 18 ba 06 0b
        E 18 ba 06 09
        E 18 ba 06 09
        E 18 ba 06 07
        E 18 ba 06 06
        E 18 ba 06 04
        E 18 ba 06 03
        E 18 ba 06 02
        E 18 ba 06 01
        E 18 ba 06 00
        E 18 ba 06 00
        E 18 ba 06 00
        E 18 ba 06 00
        E 18 ba 06 00
        E 18 ba 06 00
        E 18 ba 06 00
        E 18 ba 06 00
        E 18 ba 06 00
        E 18 ba 06 01
        E 18 ba 06 02
        E 18 ba 06 03
        E 18 ba 06 04
        E 18 ba 06 05
        E 18 ba 06 06
        E 18 ba 06 08
        E 18 ba 06 09
        E 18 ba 06 0a
        E 18 ba 06 0c
        E 18 ba 06 0e
        E 18 ba 06 10
        E 18 ba 06 12
        E 18 ba 06 14
        E 18 ba 06 16
        E 18 ba 06 19
        E 18 ba 06 1b
        E 18 ba 06 1d
        E 18 ba 06 20
        E 18 ba 06 23
        E 18 ba 06 25
        E 18 ba 06 28
        E 18 ba 06 2b
        E 18 ba 06 2d
        E 18 ba 06 30
        E 18 ba 06 33
        E 18 ba 06 36
        E 18 ba 06 39
        E 12 ba 06 0c
        E 12 ba 06 0d
        E 12 ba 06 0e
        E 12 ba 06 0e
        E 12 ba 06 0f
        E 12 ba 06 0f
        E 12 ba 06 10
        E 12 ba 06 11
        E 12 ba 06 11
        E 12 ba 06 12
        E 12 ba 06 12
        E 12 ba 06 13
        E 12 ba 06 13
        E 12 ba 06 14
        E 12 ba 06 14
        E 12 ba 06 15
        E 12 ba 06 15
        E 12 ba 06 16
        E 12 ba 06 16
        E 12 ba 06 17
        E 12 ba 06 17
        E 12 ba 06 17
        E 12 ba 06 18
        E 12 ba 06 18
        E 12 ba 06 18
        E 12 ba 06 18
        E 12 ba 06 18
        E 12 ba 06 19
        E 12 ba 06 19
        E 12 ba 06 19
        E 12 ba 06 19
        E 12 ba 06 19
        E 12 ba 06 19
        E 12 ba 06 19
        E 12 ba 06 19
        E 12 ba 06 19
        E 12 ba 06 19
        E 12 ba 06 19
        E 12 ba 06 18
        E 12 ba 06 18
        E 12 ba 06 18
        E 12 ba 06 18
        E 12 ba 06 17
        E 12 ba 06 17
        E 12 ba 06 17
        E 12 ba 06 16
        E 12 ba 06 16
        E 12 ba 06 16
        E 12 ba 06 15
        E 12 ba 06 15
        E 12 ba 06 14
        E 12 ba 06 14
        E 12 ba 06 13
        E 12 ba 06 13
        E 12 ba 06 12
        E 12 ba 06 11
        E 12 ba 06 11
        E 12 ba 06 10
        E 12 ba 06 10
        E 12 ba 06 0f
        E 12 ba 06 0e
        E 12 ba 06 0e
        E 12 ba 06 0d
        E 12 ba 06 0d
        E 12 ba 06 0c
        E 12 ba 06 0b
        E 12 ba 06 0b
        E 12 ba 06 0a
        E 12 ba 06 09
        E 12 ba 06 09
        E 12 ba 06 08
        E 12 ba 06 08
        E 12 ba 06 07
        E 12 ba 06 07
        E 12 ba 06 06
        E 12 ba 06 05
        E 12 ba 06 05
        E 12 ba 06 04
        E 12 ba 06 04
        E 12 ba 06 03
        E 12 ba 06 03
        E 12 ba 06 03
        E 12 ba 06 02
        E 12 ba 06 02
        E 12 ba 06 02
        E 12 ba 06 01
        E 12 ba 06 01
        E 12 ba 06 01
        E 12 ba 06 00
        E 12 ba 06 00
        E 12 ba 06 00
        E 12 ba 06 00
        E 12 ba 06 00
        E 12 ba 06 00
        E 12 ba 06 00
        E 12 ba 06 00
        E 12 ba 06 00
        E 12 ba 06 00
        E 12 ba 06 00
        E 12 ba 06 00
        E 12 ba 06 00
        E 12 ba 06 00
        E 12 ba 06 00
        E 12 ba 06 01
        E 12 ba 06 01
        E 12 ba 06 01
        E 12 ba 06 01
        E 12 ba 06 02
        E 12 ba 06 02
        E 12 ba 06 02
        E 12 ba 06 03
        E 12 ba 06 03
        E 12 ba 06 04
        E 12 ba 06 04
        E 12 ba 06 05
        E 12 ba 06 05
        E 12 ba 06 06
        E 12 ba 06 06
        E 12 ba 06 07
        E 12 ba 06 07
        E 12 ba 06 08
        E 12 ba 06 09
        E 12 ba 06 09
        E 12 ba 06 0a
        E 12 ba 06 0a
        E 12 ba 06 0b
        E 12 ba 06 0c
        E 12 ba 06 0c
        E 4 ba 06 06
        E 4 ba 06 06
        E 4 ba 06 07
        E 4 ba 06 07
        E 4 ba 06 07
        E 4 ba 06 07
        E 4 ba 06 08
        E 4 ba 06 08
        E 4 ba 06 08
        E 4 ba 06 09
        E 4 ba 06 09
        E 4 ba 06 09
        E 4 ba 06 09
        E 4 ba 06 0a
        E 4 ba 06 0a
        E 4 ba 06 0a
        E 4 ba 06 0a
        E 4 ba 06 0b
        E 4 ba 06 0b
        E 4 ba 06 0b
        E 4 ba 06 0b
        E 4 ba 06 0b
        E 4 ba 06 0c
        E 4 ba 06 0c
        E 4 ba 06 0c
        E 4 ba 06 0c
        E 4 ba 06 0c
        E 4 ba 06 0c
        E 4 ba 06 0c
        E 4 ba 06 0c
        E 4 ba 06 0c
        E 4 ba 06 0c
        E 4 ba 06 0c
        E 4 ba 06 0c
        E 4 ba 06 0c
        E 4 ba 06 0c
        E 4 ba 06 0c
        E 4 ba 06 0c
        E 4 ba 06 0c
        E 4 ba 06 0c
        E 4 ba 06 0c
        E 4 ba 06 0c
        E 4 ba 06 0b
        E 4 ba 06 0b
        E 4 ba 06 0b
        E 4 ba 06 0b
        E 4 ba 06 0b
        E 4 ba 06 0b
        E 4 ba 06 0a
        E 4 ba 06 0a
        E 4 ba 06 0a
        E 4 ba 06 0a
        E 4 ba 06 09
        E 4 ba 06 09
        E 4 ba 06 09
        E 4 ba 06 08
        E 4 ba 06 08
        E 4 ba 06 08
        E 4 ba 06 08
        E 4 ba 06 07
        E 4 ba 06 07
        E 4 ba 06 07
        E 4 ba 06 06
        E 4 ba 06 06
        E 4 ba 06 06
        E 4 ba 06 05
        E 4 ba 06 05
        E 4 ba 06 05
        E 4 ba 06 04
        E 4 ba 06 04
        E 4 ba 06 04
        E 4 ba 06 04
        E 4 ba 06 03
        E 4 ba 06 03
        E 4 ba 06 03
        E 4 ba 06 02
        E 4 ba 06 02
        E 4 ba 06 02
        E 4 ba 06 02
        E 4 ba 06 01
        E 4 ba 06 01
        E 4 ba 06 01
        E 4 ba 06 01
        E 4 ba 06 01
        E 4 ba 06 01
        E 4 ba 06 00
        E 4 ba 06 00
        E 4 ba 06 00
        E 4 ba 06 00
        E 4 ba 06 00
        E 4 ba 06 00
        E 4 ba 06 00
        E 4 ba 06 00
        E 4 ba 06 00
        E 4 ba 06 00
        E 4 ba 06 00
        E 4 ba 06 00
        E 4 ba 06 00
        E 4 ba 06 00
        E 4 ba 06 00
        E 4 ba 06 00
        E 4 ba 06 00
        E 4 ba 06 00
        E 4 ba 06 00
        E 4 ba 06 00
        E 4 ba 06 00
        E 4 ba 06 00
        E 4 ba 06 01
        E 4 ba 06 01
        E 4 ba 06 01
        E 4 ba 06 01
        E 4 ba 06 01
        E 4 ba 06 02
        E 4 ba 06 02
        E 4 ba 06 02
        E 4 ba 06 02
        E 4 ba 06 03
        E 4 ba 06 03
        E 4 ba 06 03
        E 4 ba 06 03
        E 4 ba 06 04
        E 4 ba 06 04
        E 4 ba 06 04
        E 4 ba 06 05
        E 4 ba 06 05
        E 4 ba 06 05
        E 4 ba 06 06
        E 4 ba 06 06
        E 14 ba 06 20
        E 14 ba 06 21
        E 14 ba 06 23
        E 14 ba 06 24
        E 14 ba 06 26
        E 14 ba 06 27
        E 14 ba 06 29
        E 14 ba 06 2a
        E 14 ba 06 2c
        E 14 ba 06 2d
        E 14 ba 06 2f
        E 14 ba 06 30
        E 14 ba 06 31
        E 14 ba 06 33
        E 14 ba 06 34
        E 14 ba 06 35
        E 14 ba 06 36
        E 14 ba 06 37
        E 14 ba 06 38
        E 14 ba 06 39
        E 14 ba 06 3a
        E 14 ba 06 3b
        E 14 ba 06 3c
        E 14 ba 06 3c
        E 14 ba 06 3d
        E 14 ba 06 3d
        E 14 ba 06 3e
        E 14 ba 06 3e
        E 14 ba 06 3f
        E 14 ba 06 3f
        E 14 ba 06 3f
        E 14 ba 06 3f
        E 14 ba 06 3f
        E 14 ba 06 3f
        E 14 ba 06 3f
        E 14 ba 06 3f
        E 14 ba 06 3f
        E 14 ba 06 3e
        E 14 ba 06 3e
        E 14 ba 06 3d
        E 14 ba 06 3d
        E 14 ba 06 3c
        E 14 ba 06 3b
        E 14 ba 06 3a
        E 14 ba 06 3a
        E 14 ba 06 39
        E 14 ba 06 38
        E 14 ba 06 37
        E 14 ba 06 36
        E 14 ba 06 34
        E 14 ba 06 33
        E 14 ba 06 32
        E 14 ba 06 31
        E 14 ba 06 2f
        E 14 ba 06 2e
        E 14 ba 06 2c
        E 14 ba 06 2b
        E 14 ba 06 2a
        E 14 ba 06 28
        E 14 ba 06 27
        E 14 ba 06 25
        E 14 ba 06 23
        E 14 ba 06 22
        E 14 ba 06 20
        E 14 ba 06 1f
        E 14 ba 06 1d
        E 14 ba 06 1c
        E 14 ba 06 1a
        E 14 ba 06 18
        E 14 ba 06 17
        E 14 ba 06 15
        E 14 ba 06 14
        E 14 ba 06 13
        E 14 ba 06 11
        E 14 ba 06 10
        E 14 ba 06 0e
        E 14 ba 06 0d
        E 14 ba 06 0c
        E 14 ba 06 0b
        E 14 ba 06 09
        E 14 ba 06 08
        E 14 ba 06 07
        E 14 ba 06 06
        E 14 ba 06 05
        E 14 ba 06 05
        E 14 ba 06 04
        E 14 ba 06 03
        E 14 ba 06 02
        E 14 ba 06 02
        E 14 ba 06 01
        E 14 ba 06 01
        E 14 ba 06 00
        E 14 ba 06 00
        E 14 ba 06 00
        E 14 ba 06 00
        E 14 ba 06 00
        E 14 ba 06 00
        E 14 ba 06 00
        E 14 ba 06 00
        E 14 ba 06 00
        E 14 ba 06 01
        E 14 ba 06 01
        E 14 ba 06 02
        E 14 ba 06 02
        E 14 ba 06 03
        E 14 ba 06 03
        E 14 ba 06 04
        E 14 ba 06 05
        E 14 ba 06 06
        E 14 ba 06 07
        E 14 ba 06 08
        E 14 ba 06 09
        E 14 ba 06 0a
        E 14 ba 06 0b
        E 14 ba 06 0c
        E 14 ba 06 0e
        E 14 ba 06 0f
        E 14 ba 06 10
        E 14 ba 06 12
        E 14 ba 06 13
        E 14 ba 06 15
        E 14 ba 06 16
        E 14 ba 06 18
        E 14 ba 06 19
        E 14 ba 06 1b
        E 14 ba 06 1c
        E 14 ba 06 1e
        E 14 ba 06 20
        E 8 ba 06 19
        E 8 ba 06 1a
        E 8 ba 06 1c
        E 8 ba 06 1d
        E 8 ba 06 1e
        E 8 ba 06 1f
        E 8 ba 06 20
        E 8 ba 06 22
        E 8 ba 06 23
        E 8 ba 06 24
        E 8 ba 06 25
        E 8 ba 06 26
        E 8 ba 06 27
        E 8 ba 06 28
        E 8 ba 06 29
        E 8 ba 06 2a
        E 8 ba 06 2b
        E 8 ba 06 2c
        E 8 ba 06 2d
        E 8 ba 06 2e
        E 8 ba 06 2e
        E 8 ba 06 2f
        E 8 ba 06 30
        E 8 ba 06 30
        E 8 ba 06 30
        E 8 ba 06 31
        E 8 ba 06 31
        E 8 ba 06 32
        E 8 ba 06 32
        E 8 ba 06 32
        E 8 ba 06 32
        E 8 ba 06 32
        E 8 ba 06 32
        E 8 ba 06 32
        E 8 ba 06 32
        E 8 ba 06 32
        E 8 ba 06 32
        E 8 ba 06 32
        E 8 ba 06 31
        E 8 ba 06 31
        E 8 ba 06 30
        E 8 ba 06 30
        E 8 ba 06 2f
        E 8 ba 06 2e
        E 8 ba 06 2e
        E 8 ba 06 2d
        E 8 ba 06 2c
        E 8 ba 06 2c
        E 8 ba 06 2b
        E 8 ba 06 2a
        E 8 ba 06 29
        E 8 ba 06 28
        E 8 ba 06 27
        E 8 ba 06 26
        E 8 ba 06 24
        E 8 ba 06 23
        E 8 ba 06 22
        E 8 ba 06 21
        E 8 ba 06 20
        E 8 ba 06 1f
        E 8 ba 06 1d
        E 8 ba 06 1c
        E 8 ba 06 1b
        E 8 ba 06 1a
        E 8 ba 06 18
        E 8 ba 06 17
        E 8 ba 06 16
        E 8 ba 06 15
        E 8 ba 06 13
        E 8 ba 06 12
        E 8 ba 06 11
        E 8 ba 06 10
        E 8 ba 06 0f
        E 8 ba 06 0e
        E 8 ba 06 0c
        E 8 ba 06 0b
        E 8 ba 06 0a
        E 8 ba 06 09
        E 8 ba 06 08
        E 8 ba 06 07
        E 8 ba 06 06
        E 8 ba 06 06
        E 8 ba 06 05
        E 8 ba 06 04
        E 8 ba 06 04
        E 8 ba 06 03
        E 8 ba 06 02
        E 8 ba 06 02
        E 8 ba 06 01
        E 8 ba 06 01
        E 8 ba 06 00
        E 8 ba 06 00
        E 8 ba 06 00
        E 8 ba 06 00
        E 8 ba 06 00
        E 8 ba 06 00
        E 8 ba 06 00
        E 8 ba 06 00
        E 8 ba 06 00
        E 8 ba 06 00
        E 8 ba 06 00
        E 8 ba 06 01
        E 8 ba 06 01
        E 8 ba 06 02
        E 8 ba 06 02
        E 8 ba 06 02
        E 8 ba 06 03
        E 8 ba 06 04
        E 8 ba 06 04
        E 8 ba 06 05
        E 8 ba 06 06
        E 8 ba 06 07
        E 8 ba 06 08
        E 8 ba 06 09
        E 8 ba 06 0a
        E 8 ba 06 0b
        E 8 ba 06 0c
        E 8 ba 06 0d
        E 8 ba 06 0e
        E 8 ba 06 0f
        E 8 ba 06 10
        E 8 ba 06 12
        E 8 ba 06 13
        E 8 ba 06 14
        E 8 ba 06 15
        E 8 ba 06 16
        E 8 ba 06 18
        E 8 ba 06 19
        E 21 ba 06 06
        E 21 ba 06 06
        E 21 ba 06 07
        E 21 ba 06 07
        E 21 ba 06 07
        E 21 ba 06 07
        E 21 ba 06 08
        E 21 ba 06 08
        E 21 ba 06 08
        E 21 ba 06 09
        E 21 ba 06 09
        E 21 ba 06 09
        E 21 ba 06 09
        E 21 ba 06 0a
        E 21 ba 06 0a
        E 21 ba 06 0a
        E 21 ba 06 0a
        E 21 ba 06 0b
        E 21 ba 06 0b
        E 21 ba 06 0b
        E 21 ba 06 0b
        E 21 ba 06 0b
        E 21 ba 06 0c
        E 21 ba 06 0c
        E 21 ba 06 0c
        E 21 ba 06 0c
        E 21 ba 06 0c
        E 21 ba 06 0c
        E 21 ba 06 0c
        E 21 ba 06 0c
        E 21 ba 06 0c
        E 21 ba 06 0c
        E 21 ba 06 0c
        E 21 ba 06 0c
        E 21 ba 06 0c
        E 21 ba 06 0c
        E 21 ba 06 0c
        E 21 ba 06 0c
        E 21 ba 06 0c
        E 21 ba 06 0c
        E 21 ba 06 0c
        E 21 ba 06 0c
        E 21 ba 06 0b
        E 21 ba 06 0b
        E 21 ba 06 0b
        E 21 ba 06 0b
        E 21 ba 06 0b
        E 21 ba 06 0b
        E 21 ba 06 0a
        E 21 ba 06 0a
        E 21 ba 06 0a
        E 21 ba 06 0a
        E 21 ba 06 09
        E 21 ba 06 09
        E 21 ba 06 09
        E 21 ba 06 08
        E 21 ba 06 08
        E 21 ba 06 08
        E 21 ba 06 08
        E 21 ba 06 07
        E 21 ba 06 07
        E 21 ba 06 07
        E 21 ba 06 06
        E 21 ba 06 06
        E 21 ba 06 06
        E 21 ba 06 05
        E 21 ba 06 05
        E 21 ba 06 05
        E 21 ba 06 04
        E 21 ba 06 04
        E 21 ba 06 04
        E 21 ba 06 04
        E 21 ba 06 03
        E 21 ba 06 03
        E 21 ba 06 03
        E 21 ba 06 02
        E 21 ba 06 02
        E 21 ba 06 02
        E 21 ba 06 02
        E 21 ba 06 01
        E 21 ba 06 01
        E 21 ba 06 01
        E 21 ba 06 01
        E 21 ba 06 01
        E 21 ba 06 01
        E 21 ba 06 00
        E 21 ba 06 00
        E 21 ba 06 00
        E 21 ba 06 00
        E 21 ba 06 00
        E 21 ba 06 00
        E 21 ba 06 00
        E 21 ba 06 00
        E 21 ba 06 00
        E 21 ba 06 00
        E 21 ba 06 00
        E 21 ba 06 00
        E 21 ba 06 00
        E 21 ba 06 00
        E 21 ba 06 00
        E 21 ba 06 00
        E 21 ba 06 00
        E 21 ba 06 00
        E 21 ba 06 00
        E 21 ba 06 00
        E 21 ba 06 00
        E 21 ba 06 00
        E 21 ba 06 01
        E 21 ba 06 01
        E 21 ba 06 01
        E 21 ba 06 01
        E 21 ba 06 01
        E 21 ba 06 02
        E 21 ba 06 02
        E 21 ba 06 02
        E 21 ba 06 02
        E 21 ba 06 03
        E 21 ba 06 03
        E 21 ba 06 03
        E 21 ba 06 03
        E 21 ba 06 04
        E 21 ba 06 04
        E 21 ba 06 04
        E 21 ba 06 05
        E 21 ba 06 05
        E 21 ba 06 05
        E 21 ba 06 06
        E 21 ba 06 06
        E 18 ba 06 39
        E 18 ba 06 3c
        E 18 ba 06 3f
        E 18 ba 06 41
        E 18 ba 06 44
        E 18 ba 06 47
        E 18 ba 06 49
        E 18 ba 06 4c
        E 18 ba 06 4f
        E 18 ba 06 51
        E 18 ba 06 54
        E 18 ba 06 56
        E 18 ba 06 59
        E 18 ba 06 5b
        E 18 ba 06 5d
        E 18 ba 06 5f
        E 18 ba 06 62
        E 18 ba 06 63
        E 18 ba 06 65
        E 18 ba 06 67
        E 18 ba 06 69
        E 18 ba 06 6a
        E 18 ba 06 6c
        E 18 ba 06 6c
        E 18 ba 06 6d
        E 18 ba 06 6e
        E 18 ba 06 6f
        E 18 ba 06 70
        E 18 ba 06 71
        E 18 ba 06 71
        E 18 ba 06 72
        E 18 ba 06 72
        E 18 ba 06 72
        E 18 ba 06 72
        E 18 ba 06 72
        E 18 ba 06 71
        E 18 ba 06 71
        E 18 ba 06 70
        E 18 ba 06 6f
        E 18 ba 06 6e
        E 18 ba 06 6d
        E 18 ba 06 6c
        E 18 ba 06 6b
        E 18 ba 06 69
        E 18 ba 06 68
        E 18 ba 06 66
        E 18 ba 06 64
        E 18 ba 06 63
        E 18 ba 06 61
        E 18 ba 06 5e
        E 18 ba 06 5c
        E 18 ba 06 5a
        E 18 ba 06 58
        E 18 ba 06 55
        E 18 ba 06 52
        E 18 ba 06 50
        E 18 ba 06 4e
        E 18 ba 06 4b
        E 18 ba 06 48
        E 18 ba 06 46
        E 18 ba 06 42
        E 18 ba 06 3f
        E 18 ba 06 3d
        E 18 ba 06 3a
        E 18 ba 06 37
        E 18 ba 06 35
        E 18 ba 06 32
        E 18 ba 06 2f
        E 18 ba 06 2c
        E 18 ba 06 29
        E 18 ba 06 26
        E 18 ba 06 24
        E 18 ba 06 22
        E 18 ba 06 1f
        E 18 ba 06 1c
        E 18 ba 06 1a
        E 18 ba 06 18
        E 18 ba 06 15
        E 18 ba 06 13
        E 18 ba 06 11
        E 18 ba 06 0f
        E 18 ba 06 0d
        E 18 ba 06 0b
        E 18 ba 06 09
        E 18 ba 06 09
        E 18 ba 06 07
        E 18 ba 06 06
        E 18 ba 06 04
        E 18 ba 06 03
        E 18 ba 06 02
        E 18 ba 06 01
        E 18 ba 06 00
        E 18 ba 06 00
        E 18 ba 06 00
        E 18 ba 06 00
        E 18 ba 06 00
        E 18 ba 06 00
        E 18 ba 06 00
        E 18 ba 06 00
        E 18 ba 06 00
        E 18 ba 06 01
        E 18 ba 06 02
        E 18 ba 06 03
        E 18 ba 06 04
        E 18 ba 06 05
        E 18 ba 06 06
        E 18 ba 06 08
        E 18 ba 06 09
        E 18 ba 06 0a
        E 18 ba 06 0c
        E 18 ba 06 0e
        E 18 ba 06 10
        E 18 ba 06 12
        E 18 ba 06 14
        E 18 ba 06 16
        E 18 ba 06 19
        E 18 ba 06 1b
        E 18 ba 06 1d
        E 18 ba 06 20
        E 18 ba 06 23
        E 18 ba 06 25
        E 18 ba 06 28
        E 18 ba 06 2b
        E 18 ba 06 2d
        E 18 ba 06 30
        E 18 ba 06 33
        E 18 ba 06 36
        E 18 ba 06 39
        E 12 ba 06 0c
        E 12 ba 06 0d
        E 12 ba 06 0e
        E 12 ba 06 0e
        E 12 ba 06 0f
        E 12 ba 06 0f
        E 12 ba 06 10
        E 12 ba 06 11
        E 12 ba 06 11
        E 12 ba 06 12
        E 12 ba 06 12
        E 12 ba 06 13
        E 12 ba 06 13
        E 12 ba 06 14
        E 12 ba 06 14
        E 12 ba 06 15
        E 12 ba 06 15
        E 12 ba 06 16
        E 12 ba 06 16
        E 12 ba 06 17
        E 12 ba 06 17
        E 12 ba 06 17
        E 12 ba 06 18
        E 12 ba 06 18
        E 12 ba 06 18
        E 12 ba 06 18
        E 12 ba 06 18
        E 12 ba 06 19
        E 12 ba 06 19
        E 12 ba 06 19
        E 12 ba 06 19
        E 12 ba 06 19
        E 12 ba 06 19
        E 12 ba 06 19
        E 12 ba 06 19
        E 12 ba 06 19
        E 12 ba 06 19
        E 12 ba 06 19
        E 12 ba 06 18
        E 12 ba 06 18
        E 12 ba 06 18
        E 12 ba 06 18
        E 12 ba 06 17
        E 12 ba 06 17
        E 12 ba 06 17
        E 12 ba 06 16
        E 12 ba 06 16
        E 12 ba 06 16
        E 12 ba 06 15
        E 12 ba 06 15
        E 12 ba 06 14
        E 12 ba 06 14
        E 12 ba 06 13
        E 12 ba 06 13
        E 12 ba 06 12
        E 12 ba 06 11
        E 12 ba 06 11
        E 12 ba 06 10
        E 12 ba 06 10
        E 12 ba 06 0f
        E 12 ba 06 0e
        E 12 ba 06 0e
        E 12 ba 06 0d
        E 12 ba 06 0d
        E 12 ba 06 0c
        E 12 ba 06 0b
        E 12 ba 06 0b
        E 12 ba 06 0a
        E 12 ba 06 09
        E 12 ba 06 09
        E 12 ba 06 08
        E 12 ba 06 08
        E 12 ba 06 07
        E 12 ba 06 07
        E 12 ba 06 06
        E 12 ba 06 05
        E 12 ba 06 05
        E 12 ba 06 04
        E 12 ba 06 04
        E 12 ba 06 03
        E 12 ba 06 03
        E 12 ba 06 03
        E 12 ba 06 02
        E 12 ba 06 02
        E 12 ba 06 02
        E 12 ba 06 01
        E 12 ba 06 01
        E 12 ba 06 01
        E 12 ba 06 00
        E 12 ba 06 00
        E 12 ba 06 00
        E 12 ba 06 00
        E 12 ba 06 00
        E 12 ba 06 00
        E 12 ba 06 00
        E 12 ba 06 00
        E 12 ba 06 00
        E 12 ba 06 00
        E 12 ba 06 00
        E 12 ba 06 00
        E 12 ba 06 00
        E 12 ba 06 00
        E 12 ba 06 00
        E 12 ba 06 01
        E 12 ba 06 01
        E 12 ba 06 01
        E 12 ba 06 01
        E 12 ba 06 02
        E 12 ba 06 02
        E 12 ba 06 02
        E 12 ba 06 03
        E 12 ba 06 03
        E 12 ba 06 04
        E 12 ba 06 04
        E 12 ba 06 05
        E 12 ba 06 05
        E 12 ba 06 06
        E 12 ba 06 06
        E 12 ba 06 07
        E 12 ba 06 07
        E 12 ba 06 08
        E 12 ba 06 09
        E 12 ba 06 09
        E 12 ba 06 0a
        E 12 ba 06 0a
        E 12 ba 06 0b
        E 12 ba 06 0c
        E 12 ba 06 0c
        E 4 ba 06 06
        E 4 ba 06 06
        E 4 ba 06 07
        E 4 ba 06 07
        E 4 ba 06 07
        E 4 ba 06 07
        E 4 ba 06 08
        E 4 ba 06 08
        E 4 ba 06 08
        E 4 ba 06 09
        E 4 ba 06 09
        E 4 ba 06 09
        E 4 ba 06 09
        E 4 ba 06 0a
        E 4 ba 06 0a
        E 4 ba 06 0a
        E 4 ba 06 0a
        E 4 ba 06 0b
        E 4 ba 06 0b
        E 4 ba 06 0b
        E 4 ba 06 0b
        E 4 ba 06 0b
        E 4 ba 06 0c
        E 4 ba 06 0c
        E 4 ba 06 0c
        E 4 ba 06 0c
        E 4 ba 06 0c
        E 4 ba 06 0c
        E 4 ba 06 0c
        E 4 ba 06 0c
        E 4 ba 06 0c
        E 4 ba 06 0c
        E 4 ba 06 0c
        E 4 ba 06 0c
        E 4 ba 06 0c
        E 4 ba 06 0c
        E 4 ba 06 0c
        E 4 ba 06 0c
        E 4 ba 06 0c
        E 4 ba 06 0c
        E 4 ba 06 0c
        E 4 ba 06 0c
        E 4 ba 06 0b
        E 4 ba 06 0b
        E 4 ba 06 0b
        E 4 ba 06 0b
        E 4 ba 06 0b
        E 4 ba 06 0b
        E 4 ba 06 0a
        E 4 ba 06 0a
        E 4 ba 06 0a
        E 4 ba 06 0a
        E 4 ba 06 09
        E 4 ba 06 09
        E 4 ba 06 09
        E 4 ba 06 08
        E 4 ba 06 08
        E 4 ba 06 08
        E 4 ba 06 08
        E 4 ba 06 07
        E 4 ba 06 07
        E 4 ba 06 07
        E 4 ba 06 06
        E 4 ba 06 06
        E 4 ba 06 06
        E 4 ba 06 05
        E 4 ba 06 05
        E 4 ba 06 05
        E 4 ba 06 04
        E 4 ba 06 04
        E 4 ba 06 04
        E 4 ba 06 04
        E 4 ba 06 03
        E 4 ba 06 03
        E 4 ba 06 03
        E 4 ba 06 02
        E 4 ba 06 02
        E 4 ba 06 02
        E 4 ba 06 02
        E 4 ba 06 01
        E 4 ba 06 01
        E 4 ba 06 01
        E 4 ba 06 01
        E 4 ba 06 01
        E 4 ba 06 01
        E 4 ba 06 00
        E 4 ba 06 00
        E 4 ba 06 00
        E 4 ba 06 00
        E 4 ba 06 00
        E 4 ba 06 00
        E 4 ba 06 00
        E 4 ba 06 00
        E 4 ba 06 00
        E 4 ba 06 00
        E 4 ba 06 00
        E 4 ba 06 00
        E 4 ba 06 00
        E 4 ba 06 00
        E 4 ba 06 00
        E 4 ba 06 00
        E 4 ba 06 00
        E 4 ba 06 00
        E 4 ba 06 00
        E 4 ba 06 00
        E 4 ba 06 00
        E 4 ba 06 00
        E 4 ba 06 01
        E 4 ba 06 01
        E 4 ba 06 01
        E 4 ba 06 01
        E 4 ba 06 01
        E 4 ba 06 02
        E 4 ba 06 02
        E 4 ba 06 02
        E 4 ba 06 02
        E 4 ba 06 03
        E 4 ba 06 03
        E 4 ba 06 03
        E 4 ba 06 03
        E 4 ba 06 04
        E 4 ba 06 04
        E 4 ba 06 04
        E 4 ba 06 05
        E 4 ba 06 05
        E 4 ba 06 05
        E 4 ba 06 06
        E 3 ba 06 06
        E 1 b0 7b 00
        CCINTERP 32
        CHASE_CC_TAKEOFFS 1
        GUID {8C4A7146-FAD0-454B-9E47-C14DA56EE5E2}
        IGNTEMPO 0 120 4 4
        SRCCOLOR 420
        VELLANE 3 601 0
        VELLANE -1 196 0
      >
    >
  >
  <TRACK {CED9484E-AD28-4F4B-A93D-BB54840FC6E1}
    NAME "xbox 360 portal 2 video game disc"
    PEAKCOL 16576
    BEAT -1
    AUTOMODE 0
    VOLPAN 1 0 -1 -1 1
    MUTESOLO 0 0 0
    IPHASE 0
    PLAYOFFS 0 1
    ISBUS 0 0
    BUSCOMP 0 0 0 0 0
    SHOWINMIX 1 0.6667 0.5 1 0.5 -1 -1 -1
    FREEMODE 0
    SEL 0
    REC 0 0 1 0 0 0 0
    VU 2
    TRACKHEIGHT 0 1 0 0 -1 0
    INQ 0 0 0 0.5 100 0 0 100
    NCHAN 2
    FX 1
    TRACKID {CED9484E-AD28-4F4B-A93D-BB54840FC6E1}
    PERF 0
    MIDIOUT -1
    MAINSEND 1 0
    <ITEM
      POSITION 0
      SNAPOFFS 0
      LENGTH 852.499659
      LOOP 1
      ALLTAKES 0
      FADEIN 1 0 0 1 0 0
      FADEOUT 1 0 0 1 0 0
      MUTE 0 0
      SEL 0
      IGUID {72E79E6D-B0AD-B644-8DE1-998A42B8FCB0}
      IID 24
      NAME "xbox 360 portal 2 video game disc.mid"
      VOLPAN 1 0 1 -1
      SOFFS 0 0
      PLAYRATE 1 1 0 -1 0 0.0025
      CHANMODE 0
      GUID {349574D1-A48C-4541-B91D-9FCD83DFEBA2}
      <SOURCE MIDI
        HASDATA 1 128 QN
        CCINTERP 32
        POOLEDEVTS {5124D5C6-957E-4E48-BAF8-FB9FD6F3C112}
        E 4 bb 01 00
        E 4 bb 01 01
        E 4 bb 01 02
        E 4 bb 01 03
        E 4 bb 01 04
        E 4 bb 01 04
        E 4 bb 01 05
        E 4 bb 01 06
        E 4 bb 01 07
        E 4 bb 01 08
        E 4 bb 01 08
        E 4 bb 01 09
        E 4 bb 01 0a
        E 4 bb 01 0b
        E 4 bb 01 0c
        E 4 bb 01 0c
        E 4 bb 01 0d
        E 4 bb 01 0e
        E 4 bb 01 0f
        E 4 bb 01 10
        E 4 bb 01 10
        E 4 bb 01 11
        E 4 bb 01 12
        E 4 bb 01 13
        E 4 bb 01 14
        E 4 bb 01 14
        E 4 bb 01 15
        E 4 bb 01 16
        E 4 bb 01 17
        E 4 bb 01 18
        E 4 bb 01 18
        E 4 bb 01 19
        E 4 bb 01 1a
        E 4 bb 01 1b
        E 4 bb 01 1c
        E 4 bb 01 1c
        E 4 bb 01 1d
        E 4 bb 01 1e
        E 4 bb 01 1f
        E 4 bb 01 20
        E 4 bb 01 20
        E 4 bb 01 21
        E 4 bb 01 22
        E 4 bb 01 23
        E 4 bb 01 24
        E 4 bb 01 24
        E 4 bb 01 25
        E 4 bb 01 26
        E 4 bb 01 27
        E 4 bb 01 28
        E 4 bb 01 28
        E 4 bb 01 29
        E 4 bb 01 2a
        E 4 bb 01 2b
        E 4 bb 01 2c
        E 4 bb 01 2c
        E 4 bb 01 2d
        E 4 bb 01 2e
        E 4 bb 01 2f
        E 4 bb 01 30
        E 4 bb 01 30
        E 4 bb 01 31
        E 4 bb 01 32
        E 4 bb 01 32
        E 4 bb 01 32
        E 4 bb 01 31
        E 4 bb 01 30
        E 4 bb 01 30
        E 4 bb 01 2f
        E 4 bb 01 2e
        E 4 bb 01 2d
        E 4 bb 01 2c
        E 4 bb 01 2c
        E 4 bb 01 2b
        E 4 bb 01 2a
        E 4 bb 01 29
        E 4 bb 01 28
        E 4 bb 01 28
        E 4 bb 01 27
        E 4 bb 01 26
        E 4 bb 01 25
        E 4 bb 01 24
        E 4 bb 01 24
        E 4 bb 01 23
        E 4 bb 01 22
        E 4 bb 01 21
        E 4 bb 01 20
        E 4 bb 01 20
        E 4 bb 01 1f
        E 4 bb 01 1e
        E 4 bb 01 1d
        E 4 bb 01 1c
        E 4 bb 01 1c
        E 4 bb 01 1b
        E 4 bb 01 1a
        E 4 bb 01 19
        E 4 bb 01 18
        E 4 bb 01 18
        E 4 bb 01 17
        E 4 bb 01 16
        E 4 bb 01 15
        E 4 bb 01 14
        E 4 bb 01 14
        E 4 bb 01 13
        E 4 bb 01 12
        E 4 bb 01 11
        E 4 bb 01 10
        E 4 bb 01 10
        E 4 bb 01 0f
        E 4 bb 01 0e
        E 4 bb 01 0d
        E 4 bb 01 0c
        E 4 bb 01 0c
        E 4 bb 01 0b
        E 4 bb 01 0a
        E 4 bb 01 09
        E 4 bb 01 08
        E 4 bb 01 08
        E 4 bb 01 07
        E 4 bb 01 06
        E 4 bb 01 05
        E 4 bb 01 04
        E 4 bb 01 04
        E 4 bb 01 03
        E 4 bb 01 02
        E 4 bb 01 01
        E 4 bb 01 00
        E 4 bb 01 00
        E 42 bb 01 02
        E 42 bb 01 04
        E 42 bb 01 06
        E 42 bb 01 08
        E 42 bb 01 0a
        E 42 bb 01 0c
        E 42 bb 01 0e
        E 42 bb 01 10
        E 42 bb 01 12
        E 42 bb 01 14
        E 42 bb 01 16
        E 42 bb 01 18
        E 42 bb 01 1a
        E 42 bb 01 1c
        E 42 bb 01 1e
        E 42 bb 01 20
        E 42 bb 01 22
        E 42 bb 01 24
        E 42 bb 01 26
        E 42 bb 01 28
        E 42 bb 01 2a
        E 42 bb 01 2c
        E 42 bb 01 2e
        E 42 bb 01 30
        E 42 bb 01 32
        E 42 bb 01 34
        E 42 bb 01 36
        E 42 bb 01 38
        E 42 bb 01 3a
        E 42 bb 01 3c
        E 42 bb 01 3e
        E 42 bb 01 40
        E 42 bb 01 42
        E 42 bb 01 44
        E 42 bb 01 46
        E 42 bb 01 48
        E 42 bb 01 4a
        E 42 bb 01 4c
        E 42 bb 01 4e
        E 42 bb 01 50
        E 42 bb 01 52
        E 42 bb 01 54
        E 42 bb 01 56
        E 42 bb 01 58
        E 42 bb 01 5a
        E 42 bb 01 5c
        E 42 bb 01 5e
        E 42 bb 01 60
        E 42 bb 01 62
        E 42 bb 01 64
        E 42 bb 01 66
        E 42 bb 01 68
        E 42 bb 01 6a
        E 42 bb 01 6c
        E 42 bb 01 6e
        E 42 bb 01 70
        E 42 bb 01 72
        E 42 bb 01 74
        E 42 bb 01 76
        E 42 bb 01 78
        E 42 bb 01 7a
        E 42 bb 01 7c
        E 42 bb 01 7e
        E 42 bb 01 7f
        E 42 bb 01 7e
        E 42 bb 01 7c
        E 42 bb 01 7a
        E 42 bb 01 78
        E 42 bb 01 76
        E 42 bb 01 74
        E 42 bb 01 72
        E 42 bb 01 70
        E 42 bb 01 6e
        E 42 bb 01 6c
        E 42 bb 01 6a
        E 42 bb 01 68
        E 42 bb 01 66
        E 42 bb 01 64
        E 42 bb 01 62
        E 42 bb 01 60
        E 42 bb 01 5e
        E 42 bb 01 5c
        E 42 bb 01 5a
        E 42 bb 01 58
        E 42 bb 01 56
        E 42 bb 01 54
        E 42 bb 01 52
        E 42 bb 01 50
        E 42 bb 01 4e
        E 42 bb 01 4c
        E 42 bb 01 4a
        E 42 bb 01 48
        E 42 bb 01 46
        E 42 bb 01 44
        E 42 bb 01 42
        E 42 bb 01 40
        E 42 bb 01 3e
        E 42 bb 01 3c
        E 42 bb 01 3a
        E 42 bb 01 38
        E 42 bb 01 36
        E 42 bb 01 34
        E 42 bb 01 32
        E 42 bb 01 30
        E 42 bb 01 2e
        E 42 bb 01 2c
        E 42 bb 01 2a
        E 42 bb 01 28
        E 42 bb 01 26
        E 42 bb 01 24
        E 42 bb 01 22
        E 42 bb 01 20
        E 42 bb 01 1e
        E 42 bb 01 1c
        E 42 bb 01 1a
        E 42 bb 01 18
        E 42 bb 01 16
        E 42 bb 01 14
        E 42 bb 01 12
        E 42 bb 01 10
        E 42 bb 01 0e
        E 42 bb 01 0c
        E 42 bb 01 0a
        E 42 bb 01 08
        E 42 bb 01 06
        E 42 bb 01 04
        E 42 bb 01 02
        E 42 bb 01 00
        E 9 bb 01 01
        E 9 bb 01 03
        E 9 bb 01 05
        E 9 bb 01 07
        E 9 bb 01 09
        E 9 bb 01 0a
        E 9 bb 01 0c
        E 9 bb 01 0e
        E 9 bb 01 10
        E 9 bb 01 12
        E 9 bb 01 13
        E 9 bb 01 15
        E 9 bb 01 17
        E 9 bb 01 19
        E 9 bb 01 1b
        E 9 bb 01 1c
        E 9 bb 01 1e
        E 9 bb 01 20
        E 9 bb 01 22
        E 9 bb 01 24
        E 9 bb 01 25
        E 9 bb 01 27
        E 9 bb 01 29
        E 9 bb 01 2b
        E 9 bb 01 2d
        E 9 bb 01 2e
        E 9 bb 01 30
        E 9 bb 01 32
        E 9 bb 01 34
        E 9 bb 01 36
        E 9 bb 01 37
        E 9 bb 01 39
        E 9 bb 01 3b
        E 9 bb 01 3d
        E 9 bb 01 3f
        E 9 bb 01 40
        E 9 bb 01 42
        E 9 bb 01 44
        E 9 bb 01 46
        E 9 bb 01 48
        E 9 bb 01 49
        E 9 bb 01 4b
        E 9 bb 01 4d
        E 9 bb 01 4f
        E 9 bb 01 51
        E 9 bb 01 52
        E 9 bb 01 54
        E 9 bb 01 56
        E 9 bb 01 58
        E 9 bb 01 5a
        E 9 bb 01 5b
        E 9 bb 01 5d
        E 9 bb 01 5f
        E 9 bb 01 61
        E 9 bb 01 63
        E 9 bb 01 64
        E 9 bb 01 66
        E 9 bb 01 68
        E 9 bb 01 6a
        E 9 bb 01 6c
        E 9 bb 01 6d
        E 9 bb 01 6f
        E 9 bb 01 71
        E 9 bb 01 72
        E 9 bb 01 71
        E 9 bb 01 6f
        E 9 bb 01 6d
        E 9 bb 01 6c
        E 9 bb 01 6a
        E 9 bb 01 68
        E 9 bb 01 66
        E 9 bb 01 64
        E 9 bb 01 63
        E 9 bb 01 61
        E 9 bb 01 5f
        E 9 bb 01 5d
        E 9 bb 01 5b
        E 9 bb 01 5a
        E 9 bb 01 58
        E 9 bb 01 56
        E 9 bb 01 54
        E 9 bb 01 52
        E 9 bb 01 51
        E 9 bb 01 4f
        E 9 bb 01 4d
        E 9 bb 01 4b
        E 9 bb 01 49
        E 9 bb 01 48
        E 9 bb 01 46
        E 9 bb 01 44
        E 9 bb 01 42
        E 9 bb 01 40
        E 9 bb 01 3f
        E 9 bb 01 3d
        E 9 bb 01 3b
        E 9 bb 01 39
        E 9 bb 01 37
        E 9 bb 01 36
        E 9 bb 01 34
        E 9 bb 01 32
        E 9 bb 01 30
        E 9 bb 01 2e
        E 9 bb 01 2d
        E 9 bb 01 2b
        E 9 bb 01 29
        E 9 bb 01 27
        E 9 bb 01 25
        E 9 bb 01 24
        E 9 bb 01 22
        E 9 bb 01 20
        E 9 bb 01 1e
        E 9 bb 01 1c
        E 9 bb 01 1b
        E 9 bb 01 19
        E 9 bb 01 17
        E 9 bb 01 15
        E 9 bb 01 13
        E 9 bb 01 12
        E 9 bb 01 10
        E 9 bb 01 0e
        E 9 bb 01 0c
        E 9 bb 01 0a
        E 9 bb 01 09
        E 9 bb 01 07
        E 9 bb 01 05
        E 9 bb 01 03
        E 9 bb 01 01
        E 9 bb 01 00
        E 4 bb 01 01
        E 4 bb 01 02
        E 4 bb 01 03
        E 4 bb 01 04
        E 4 bb 01 06
        E 4 bb 01 07
        E 4 bb 01 08
        E 4 bb 01 09
        E 4 bb 01 0a
        E 4 bb 01 0c
        E 4 bb 01 0d
        E 4 bb 01 0e
        E 4 bb 01 0f
        E 4 bb 01 10
        E 4 bb 01 12
        E 4 bb 01 13
        E 4 bb 01 14
        E 4 bb 01 15
        E 4 bb 01 16
        E 4 bb 01 18
        E 4 bb 01 19
        E 4 bb 01 1a
        E 4 bb 01 1b
        E 4 bb 01 1c
        E 4 bb 01 1e
        E 4 bb 01 1f
        E 4 bb 01 20
        E 4 bb 01 21
        E 4 bb 01 22
        E 4 bb 01 24
        E 4 bb 01 25
        E 4 bb 01 26
        E 4 bb 01 27
        E 4 bb 01 28
        E 4 bb 01 2a
        E 4 bb 01 2b
        E 4 bb 01 2c
        E 4 bb 01 2d
        E 4 bb 01 2e
        E 4 bb 01 30
        E 4 bb 01 31
        E 4 bb 01 32
        E 4 bb 01 33
        E 4 bb 01 34
        E 4 bb 01 36
        E 4 bb 01 37
        E 4 bb 01 38
        E 4 bb 01 39
        E 4 bb 01 3a
        E 4 bb 01 3c
        E 4 bb 01 3d
        E 4 bb 01 3e
        E 4 bb 01 3f
        E 4 bb 01 40
        E 4 bb 01 42
        E 4 bb 01 43
        E 4 bb 01 44
        E 4 bb 01 45
        E 4 bb 01 46
        E 4 bb 01 48
        E 4 bb 01 49
        E 4 bb 01 4a
        E 4 bb 01 4b
        E 4 bb 01 4c
        E 4 bb 01 4b
        E 4 bb 01 4a
        E 4 bb 01 49
        E 4 bb 01 48
        E 4 bb 01 46
        E 4 bb 01 45
        E 4 bb 01 44
        E 4 bb 01 43
        E 4 bb 01 42
        E 4 bb 01 40
        E 4 bb 01 3f
        E 4 bb 01 3e
        E 4 bb 01 3d
        E 4 bb 01 3c
        E 4 bb 01 3a
        E 4 bb 01 39
        E 4 bb 01 38
        E 4 bb 01 37
        E 4 bb 01 36
        E 4 bb 01 34
        E 4 bb 01 33
        E 4 bb 01 32
        E 4 bb 01 31
        E 4 bb 01 30
        E 4 bb 01 2e
        E 4 bb 01 2d
        E 4 bb 01 2c
        E 4 bb 01 2b
        E 4 bb 01 2a
        E 4 bb 01 28
        E 4 bb 01 27
        E 4 bb 01 26
        E 4 bb 01 25
        E 4 bb 01 24
        E 4 bb 01 22
        E 4 bb 01 21
        E 4 bb 01 20
        E 4 bb 01 1f
        E 4 bb 01 1e
        E 4 bb 01 1c
        E 4 bb 01 1b
        E 4 bb 01 1a
        E 4 bb 01 19
        E 4 bb 01 18
        E 4 bb 01 16
        E 4 bb 01 15
        E 4 bb 01 14
        E 4 bb 01 13
        E 4 bb 01 12
        E 4 bb 01 10
        E 4 bb 01 0f
        E 4 bb 01 0e
        E 4 bb 01 0d
        E 4 bb 01 0c
        E 4 bb 01 0a
        E 4 bb 01 09
        E 4 bb 01 08
        E 4 bb 01 07
        E 4 bb 01 06
        E 4 bb 01 04
        E 4 bb 01 03
        E 4 bb 01 02
        E 4 bb 01 01
        E 4 bb 01 00
        E 23 bb 01 00
        E 23 bb 01 00
        E 23 bb 01 01
        E 23 bb 01 01
        E 23 bb 01 02
        E 23 bb 01 02
        E 23 bb 01 02
        E 23 bb 01 03
        E 23 bb 01 03
        E 23 bb 01 04
        E 23 bb 01 04
        E 23 bb 01 04
        E 23 bb 01 05
        E 23 bb 01 05
        E 23 bb 01 06
        E 23 bb 01 06
        E 23 bb 01 06
        E 23 bb 01 07
        E 23 bb 01 07
        E 23 bb 01 08
        E 23 bb 01 08
        E 23 bb 01 08
        E 23 bb 01 09
        E 23 bb 01 09
        E 23 bb 01 0a
        E 23 bb 01 0a
        E 23 bb 01 0a
        E 23 bb 01 0b
        E 23 bb 01 0b
        E 23 bb 01 0c
        E 23 bb 01 0c
        E 23 bb 01 0c
        E 23 bb 01 0d
        E 23 bb 01 0d
        E 23 bb 01 0e
        E 23 bb 01 0e
        E 23 bb 01 0e
        E 23 bb 01 0f
        E 23 bb 01 0f
        E 23 bb 01 10
        E 23 bb 01 10
        E 23 bb 01 10
        E 23 bb 01 11
        E 23 bb 01 11
        E 23 bb 01 12
        E 23 bb 01 12
        E 23 bb 01 12
        E 23 bb 01 13
        E 23 bb 01 13
        E 23 bb 01 14
        E 23 bb 01 14
        E 23 bb 01 14
        E 23 bb 01 15
        E 23 bb 01 15
        E 23 bb 01 16
        E 23 bb 01 16
        E 23 bb 01 16
        E 23 bb 01 17
        E 23 bb 01 17
        E 23 bb 01 18
        E 23 bb 01 18
        E 23 bb 01 18
        E 23 bb 01 19
        E 23 bb 01 19
        E 23 bb 01 19
        E 23 bb 01 18
        E 23 bb 01 18
        E 23 bb 01 18
        E 23 bb 01 17
        E 23 bb 01 17
        E 23 bb 01 16
        E 23 bb 01 16
        E 23 bb 01 16
        E 23 bb 01 15
        E 23 bb 01 15
        E 23 bb 01 14
        E 23 bb 01 14
        E 23 bb 01 14
        E 23 bb 01 13
        E 23 bb 01 13
        E 23 bb 01 12
        E 23 bb 01 12
        E 23 bb 01 12
        E 23 bb 01 11
        E 23 bb 01 11
        E 23 bb 01 10
        E 23 bb 01 10
        E 23 bb 01 10
        E 23 bb 01 0f
        E 23 bb 01 0f
        E 23 bb 01 0e
        E 23 bb 01 0e
        E 23 bb 01 0e
        E 23 bb 01 0d
        E 23 bb 01 0d
        E 23 bb 01 0c
        E 23 bb 01 0c
        E 23 bb 01 0c
        E 23 bb 01 0b
        E 23 bb 01 0b
        E 23 bb 01 0a
        E 23 bb 01 0a
        E 23 bb 01 0a
        E 23 bb 01 09
        E 23 bb 01 09
        E 23 bb 01 08
        E 23 bb 01 08
        E 23 bb 01 08
        E 23 bb 01 07
        E 23 bb 01 07
        E 23 bb 01 06
        E 23 bb 01 06
        E 23 bb 01 06
        E 23 bb 01 05
        E 23 bb 01 05
        E 23 bb 01 04
        E 23 bb 01 04
        E 23 bb 01 04
        E 23 bb 01 03
        E 23 bb 01 03
        E 23 bb 01 02
        E 23 bb 01 02
        E 23 bb 01 02
        E 23 bb 01 01
        E 23 bb 01 01
        E 23 bb 01 00
        E 23 bb 01 00
        E 23 bb 01 00
        E 18 bb 01 01
        E 18 bb 01 02
        E 18 bb 01 04
        E 18 bb 01 05
        E 18 bb 01 07
        E 18 bb 01 08
        E 18 bb 01 09
        E 18 bb 01 0b
        E 18 bb 01 0c
        E 18 bb 01 0e
        E 18 bb 01 0f
        E 18 bb 01 10
        E 18 bb 01 12
        E 18 bb 01 13
        E 18 bb 01 15
        E 18 bb 01 16
        E 18 bb 01 17
        E 18 bb 01 19
        E 18 bb 01 1a
        E 18 bb 01 1c
        E 18 bb 01 1d
        E 18 bb 01 1e
        E 18 bb 01 20
        E 18 bb 01 21
        E 18 bb 01 23
        E 18 bb 01 24
        E 18 bb 01 25
        E 18 bb 01 27
        E 18 bb 01 28
        E 18 bb 01 2a
        E 18 bb 01 2b
        E 18 bb 01 2c
        E 18 bb 01 2e
        E 18 bb 01 2f
        E 18 bb 01 31
        E 18 bb 01 32
        E 18 bb 01 33
        E 18 bb 01 35
        E 18 bb 01 36
        E 18 bb 01 38
        E 18 bb 01 39
        E 18 bb 01 3a
        E 18 bb 01 3c
        E 18 bb 01 3d
        E 18 bb 01 3e
        E 18 bb 01 40
        E 18 bb 01 41
        E 18 bb 01 43
        E 18 bb 01 44
        E 18 bb 01 46
        E 18 bb 01 47
        E 18 bb 01 48
        E 18 bb 01 4a
        E 18 bb 01 4b
        E 18 bb 01 4d
        E 18 bb 01 4e
        E 18 bb 01 4f
        E 18 bb 01 51
        E 18 bb 01 52
        E 18 bb 01 54
        E 18 bb 01 55
        E 18 bb 01 56
        E 18 bb 01 58
        E 18 bb 01 58
        E 18 bb 01 58
        E 18 bb 01 56
        E 18 bb 01 55
        E 18 bb 01 54
        E 18 bb 01 52
        E 18 bb 01 51
        E 18 bb 01 4f
        E 18 bb 01 4e
        E 18 bb 01 4d
        E 18 bb 01 4b
        E 18 bb 01 4a
        E 18 bb 01 48
        E 18 bb 01 47
        E 18 bb 01 46
        E 18 bb 01 44
        E 18 bb 01 43
        E 18 bb 01 41
        E 18 bb 01 40
        E 18 bb 01 3e
        E 18 bb 01 3d
        E 18 bb 01 3c
        E 18 bb 01 3a
        E 18 bb 01 39
        E 18 bb 01 38
        E 18 bb 01 36
        E 18 bb 01 35
        E 18 bb 01 33
        E 18 bb 01 32
        E 18 bb 01 31
        E 18 bb 01 2f
        E 18 bb 01 2e
        E 18 bb 01 2c
        E 18 bb 01 2b
        E 18 bb 01 2a
        E 18 bb 01 28
        E 18 bb 01 27
        E 18 bb 01 25
        E 18 bb 01 24
        E 18 bb 01 23
        E 18 bb 01 21
        E 18 bb 01 20
        E 18 bb 01 1e
        E 18 bb 01 1d
        E 18 bb 01 1c
        E 18 bb 01 1a
        E 18 bb 01 19
        E 18 bb 01 17
        E 18 bb 01 16
        E 18 bb 01 15
        E 18 bb 01 13
        E 18 bb 01 12
        E 18 bb 01 10
        E 18 bb 01 0f
        E 18 bb 01 0e
        E 18 bb 01 0c
        E 18 bb 01 0b
        E 18 bb 01 09
        E 18 bb 01 08
        E 18 bb 01 07
        E 18 bb 01 05
        E 18 bb 01 04
        E 18 bb 01 02
        E 18 bb 01 01
        E 18 bb 01 00
        E 4 bb 01 00
        E 4 bb 01 01
        E 4 bb 01 02
        E 4 bb 01 03
        E 4 bb 01 04
        E 4 bb 01 04
        E 4 bb 01 05
        E 4 bb 01 06
        E 4 bb 01 07
        E 4 bb 01 08
        E 4 bb 01 08
        E 4 bb 01 09
        E 4 bb 01 0a
        E 4 bb 01 0b
        E 4 bb 01 0c
        E 4 bb 01 0c
        E 4 bb 01 0d
        E 4 bb 01 0e
        E 4 bb 01 0f
        E 4 bb 01 10
        E 4 bb 01 10
        E 4 bb 01 11
        E 4 bb 01 12
        E 4 bb 01 13
        E 4 bb 01 14
        E 4 bb 01 14
        E 4 bb 01 15
        E 4 bb 01 16
        E 4 bb 01 17
        E 4 bb 01 18
        E 4 bb 01 18
        E 4 bb 01 19
        E 4 bb 01 1a
        E 4 bb 01 1b
        E 4 bb 01 1c
        E 4 bb 01 1c
        E 4 bb 01 1d
        E 4 bb 01 1e
        E 4 bb 01 1f
        E 4 bb 01 20
        E 4 bb 01 20
        E 4 bb 01 21
        E 4 bb 01 22
        E 4 bb 01 23
        E 4 bb 01 24
        E 4 bb 01 24
        E 4 bb 01 25
        E 4 bb 01 26
        E 4 bb 01 27
        E 4 bb 01 28
        E 4 bb 01 28
        E 4 bb 01 29
        E 4 bb 01 2a
        E 4 bb 01 2b
        E 4 bb 01 2c
        E 4 bb 01 2c
        E 4 bb 01 2d
        E 4 bb 01 2e
        E 4 bb 01 2f
        E 4 bb 01 30
        E 4 bb 01 30
        E 4 bb 01 31
        E 4 bb 01 32
        E 4 bb 01 32
        E 4 bb 01 32
        E 4 bb 01 31
        E 4 bb 01 30
        E 4 bb 01 30
        E 4 bb 01 2f
        E 4 bb 01 2e
        E 4 bb 01 2d
        E 4 bb 01 2c
        E 4 bb 01 2c
        E 4 bb 01 2b
        E 4 bb 01 2a
        E 4 bb 01 29
        E 4 bb 01 28
        E 4 bb 01 28
        E 4 bb 01 27
        E 4 bb 01 26
        E 4 bb 01 25
        E 4 bb 01 24
        E 4 bb 01 24
        E 4 bb 01 23
        E 4 bb 01 22
        E 4 bb 01 21
        E 4 bb 01 20
        E 4 bb 01 20
        E 4 bb 01 1f
        E 4 bb 01 1e
        E 4 bb 01 1d
        E 4 bb 01 1c
        E 4 bb 01 1c
        E 4 bb 01 1b
        E 4 bb 01 1a
        E 4 bb 01 19
        E 4 bb 01 18
        E 4 bb 01 18
        E 4 bb 01 17
        E 4 bb 01 16
        E 4 bb 01 15
        E 4 bb 01 14
        E 4 bb 01 14
        E 4 bb 01 13
        E 4 bb 01 12
        E 4 bb 01 11
        E 4 bb 01 10
        E 4 bb 01 10
        E 4 bb 01 0f
        E 4 bb 01 0e
        E 4 bb 01 0d
        E 4 bb 01 0c
        E 4 bb 01 0c
        E 4 bb 01 0b
        E 4 bb 01 0a
        E 4 bb 01 09
        E 4 bb 01 08
        E 4 bb 01 08
        E 4 bb 01 07
        E 4 bb 01 06
        E 4 bb 01 05
        E 4 bb 01 04
        E 4 bb 01 04
        E 4 bb 01 03
        E 4 bb 01 02
        E 4 bb 01 01
        E 4 bb 01 00
        E 4 bb 01 00
        E 42 bb 01 02
        E 42 bb 01 04
        E 42 bb 01 06
        E 42 bb 01 08
        E 42 bb 01 0a
        E 42 bb 01 0c
        E 42 bb 01 0e
        E 42 bb 01 10
        E 42 bb 01 12
        E 42 bb 01 14
        E 42 bb 01 16
        E 42 bb 01 18
        E 42 bb 01 1a
        E 42 bb 01 1c
        E 42 bb 01 1e
        E 42 bb 01 20
        E 42 bb 01 22
        E 42 bb 01 24
        E 42 bb 01 26
        E 42 bb 01 28
        E 42 bb 01 2a
        E 42 bb 01 2c
        E 42 bb 01 2e
        E 42 bb 01 30
        E 42 bb 01 32
        E 42 bb 01 34
        E 42 bb 01 36
        E 42 bb 01 38
        E 42 bb 01 3a
        E 42 bb 01 3c
        E 42 bb 01 3e
        E 42 bb 01 40
        E 42 bb 01 42
        E 42 bb 01 44
        E 42 bb 01 46
        E 42 bb 01 48
        E 42 bb 01 4a
        E 42 bb 01 4c
        E 42 bb 01 4e
        E 42 bb 01 50
        E 42 bb 01 52
        E 42 bb 01 54
        E 42 bb 01 56
        E 42 bb 01 58
        E 42 bb 01 5a
        E 42 bb 01 5c
        E 42 bb 01 5e
        E 42 bb 01 60
        E 42 bb 01 62
        E 42 bb 01 64
        E 42 bb 01 66
        E 42 bb 01 68
        E 42 bb 01 6a
        E 42 bb 01 6c
        E 42 bb 01 6e
        E 42 bb 01 70
        E 42 bb 01 72
        E 42 bb 01 74
        E 42 bb 01 76
        E 42 bb 01 78
        E 42 bb 01 7a
        E 42 bb 01 7c
        E 42 bb 01 7e
        E 42 bb 01 7f
        E 42 bb 01 7e
        E 42 bb 01 7c
        E 42 bb 01 7a
        E 42 bb 01 78
        E 42 bb 01 76
        E 42 bb 01 74
        E 42 bb 01 72
        E 42 bb 01 70
        E 42 bb 01 6e
        E 42 bb 01 6c
        E 42 bb 01 6a
        E 42 bb 01 68
        E 42 bb 01 66
        E 42 bb 01 64
        E 42 bb 01 62
        E 42 bb 01 60
        E 42 bb 01 5e
        E 42 bb 01 5c
        E 42 bb 01 5a
        E 42 bb 01 58
        E 42 bb 01 56
        E 42 bb 01 54
        E 42 bb 01 52
        E 42 bb 01 50
        E 42 bb 01 4e
        E 42 bb 01 4c
        E 42 bb 01 4a
        E 42 bb 01 48
        E 42 bb 01 46
        E 42 bb 01 44
        E 42 bb 01 42
        E 42 bb 01 40
        E 42 bb 01 3e
        E 42 bb 01 3c
        E 42 bb 01 3a
        E 42 bb 01 38
        E 42 bb 01 36
        E 42 bb 01 34
        E 42 bb 01 32
        E 42 bb 01 30
        E 42 bb 01 2e
        E 42 bb 01 2c
        E 42 bb 01 2a
        E 42 bb 01 28
        E 42 bb 01 26
        E 42 bb 01 24
        E 42 bb 01 22
        E 42 bb 01 20
        E 42 bb 01 1e
        E 42 bb 01 1c
        E 42 bb 01 1a
        E 42 bb 01 18
        E 42 bb 01 16
        E 42 bb 01 14
        E 42 bb 01 12
        E 42 bb 01 10
        E 42 bb 01 0e
        E 42 bb 01 0c
        E 42 bb 01 0a
        E 42 bb 01 08
        E 42 bb 01 06
        E 42 bb 01 04
        E 42 bb 01 02
        E 42 bb 01 00
        E 9 bb 01 01
        E 9 bb 01 03
        E 9 bb 01 05
        E 9 bb 01 07
        E 9 bb 01 09
        E 9 bb 01 0a
        E 9 bb 01 0c
        E 9 bb 01 0e
        E 9 bb 01 10
        E 9 bb 01 12
        E 9 bb 01 13
        E 9 bb 01 15
        E 9 bb 01 17
        E 9 bb 01 19
        E 9 bb 01 1b
        E 9 bb 01 1c
        E 9 bb 01 1e
        E 9 bb 01 20
        E 9 bb 01 22
        E 9 bb 01 24
        E 9 bb 01 25
        E 9 bb 01 27
        E 9 bb 01 29
        E 9 bb 01 2b
        E 9 bb 01 2d
        E 9 bb 01 2e
        E 9 bb 01 30
        E 9 bb 01 32
        E 9 bb 01 34
        E 9 bb 01 36
        E 9 bb 01 37
        E 9 bb 01 39
        E 9 bb 01 3b
        E 9 bb 01 3d
        E 9 bb 01 3f
        E 9 bb 01 40
        E 9 bb 01 42
        E 9 bb 01 44
        E 9 bb 01 46
        E 9 bb 01 48
        E 9 bb 01 49
        E 9 bb 01 4b
        E 9 bb 01 4d
        E 9 bb 01 4f
        E 9 bb 01 51
        E 9 bb 01 52
        E 9 bb 01 54
        E 9 bb 01 56
        E 9 bb 01 58
        E 9 bb 01 5a
        E 9 bb 01 5b
        E 9 bb 01 5d
        E 9 bb 01 5f
        E 9 bb 01 61
        E 9 bb 01 63
        E 9 bb 01 64
        E 9 bb 01 66
        E 9 bb 01 68
        E 9 bb 01 6a
        E 9 bb 01 6c
        E 9 bb 01 6d
        E 9 bb 01 6f
        E 9 bb 01 71
        E 9 bb 01 72
        E 9 bb 01 71
        E 9 bb 01 6f
        E 9 bb 01 6d
        E 9 bb 01 6c
        E 9 bb 01 6a
        E 9 bb 01 68
        E 9 bb 01 66
        E 9 bb 01 64
        E 9 bb 01 63
        E 9 bb 01 61
        E 9 bb 01 5f
        E 9 bb 01 5d
        E 9 bb 01 5b
        E 9 bb 01 5a
        E 9 bb 01 58
        E 9 bb 01 56
        E 9 bb 01 54
        E 9 bb 01 52
        E 9 bb 01 51
        E 9 bb 01 4f
        E 9 bb 01 4d
        E 9 bb 01 4b
        E 9 bb 01 49
        E 9 bb 01 48
        E 9 bb 01 46
        E 9 bb 01 44
        E 9 bb 01 42
        E 9 bb 01 40
        E 9 bb 01 3f
        E 9 bb 01 3d
        E 9 bb 01 3b
        E 9 bb 01 39
        E 9 bb 01 37
        E 9 bb 01 36
        E 9 bb 01 34
        E 9 bb 01 32
        E 9 bb 01 30
        E 9 bb 01 2e
        E 9 bb 01 2d
        E 9 bb 01 2b
        E 9 bb 01 29
        E 9 bb 01 27
        E 9 bb 01 25
        E 9 bb 01 24
        E 9 bb 01 22
        E 9 bb 01 20
        E 9 bb 01 1e
        E 9 bb 01 1c
        E 9 bb 01 1b
        E 9 bb 01 19
        E 9 bb 01 17
        E 9 bb 01 15
        E 9 bb 01 13
        E 9 bb 01 12
        E 9 bb 01 10
        E 9 bb 01 0e
        E 9 bb 01 0c
        E 9 bb 01 0a
        E 9 bb 01 09
        E 9 bb 01 07
        E 9 bb 01 05
        E 9 bb 01 03
        E 9 bb 01 01
        E 9 bb 01 00
        E 4 bb 01 01
        E 4 bb 01 02
        E 4 bb 01 03
        E 4 bb 01 04
        E 4 bb 01 06
        E 4 bb 01 07
        E 4 bb 01 08
        E 4 bb 01 09
        E 4 bb 01 0a
        E 4 bb 01 0c
        E 4 bb 01 0d
        E 4 bb 01 0e
        E 4 bb 01 0f
        E 4 bb 01 10
        E 4 bb 01 12
        E 4 bb 01 13
        E 4 bb 01 14
        E 4 bb 01 15
        E 4 bb 01 16
        E 4 bb 01 18
        E 4 bb 01 19
        E 4 bb 01 1a
        E 4 bb 01 1b
        E 4 bb 01 1c
        E 4 bb 01 1e
        E 4 bb 01 1f
        E 4 bb 01 20
        E 4 bb 01 21
        E 4 bb 01 22
        E 4 bb 01 24
        E 4 bb 01 25
        E 4 bb 01 26
        E 4 bb 01 27
        E 4 bb 01 28
        E 4 bb 01 2a
        E 4 bb 01 2b
        E 4 bb 01 2c
        E 4 bb 01 2d
        E 4 bb 01 2e
        E 4 bb 01 30
        E 4 bb 01 31
        E 4 bb 01 32
        E 4 bb 01 33
        E 4 bb 01 34
        E 4 bb 01 36
        E 4 bb 01 37
        E 4 bb 01 38
        E 4 bb 01 39
        E 4 bb 01 3a
        E 4 bb 01 3c
        E 4 bb 01 3d
        E 4 bb 01 3e
        E 4 bb 01 3f
        E 4 bb 01 40
        E 4 bb 01 42
        E 4 bb 01 43
        E 4 bb 01 44
        E 4 bb 01 45
        E 4 bb 01 46
        E 4 bb 01 48
        E 4 bb 01 49
        E 4 bb 01 4a
        E 4 bb 01 4b
        E 4 bb 01 4c
        E 4 bb 01 4b
        E 4 bb 01 4a
        E 4 bb 01 49
        E 4 bb 01 48
        E 4 bb 01 46
        E 4 bb 01 45
        E 4 bb 01 44
        E 4 bb 01 43
        E 4 bb 01 42
        E 4 bb 01 40
        E 4 bb 01 3f
        E 4 bb 01 3e
        E 4 bb 01 3d
        E 4 bb 01 3c
        E 4 bb 01 3a
        E 4 bb 01 39
        E 4 bb 01 38
        E 4 bb 01 37
        E 4 bb 01 36
        E 4 bb 01 34
        E 4 bb 01 33
        E 4 bb 01 32
        E 4 bb 01 31
        E 4 bb 01 30
        E 4 bb 01 2e
        E 4 bb 01 2d
        E 4 bb 01 2c
        E 4 bb 01 2b
        E 4 bb 01 2a
        E 4 bb 01 28
        E 4 bb 01 27
        E 4 bb 01 26
        E 4 bb 01 25
        E 4 bb 01 24
        E 4 bb 01 22
        E 4 bb 01 21
        E 4 bb 01 20
        E 4 bb 01 1f
        E 4 bb 01 1e
        E 4 bb 01 1c
        E 4 bb 01 1b
        E 4 bb 01 1a
        E 4 bb 01 19
        E 4 bb 01 18
        E 4 bb 01 16
        E 4 bb 01 15
        E 4 bb 01 14
        E 4 bb 01 13
        E 4 bb 01 12
        E 4 bb 01 10
        E 4 bb 01 0f
        E 4 bb 01 0e
        E 4 bb 01 0d
        E 4 bb 01 0c
        E 4 bb 01 0a
        E 4 bb 01 09
        E 4 bb 01 08
        E 4 bb 01 07
        E 4 bb 01 06
        E 4 bb 01 04
        E 4 bb 01 03
        E 4 bb 01 02
        E 4 bb 01 01
        E 4 bb 01 00
        E 23 bb 01 00
        E 23 bb 01 00
        E 23 bb 01 01
        E 23 bb 01 01
        E 23 bb 01 02
        E 23 bb 01 02
        E 23 bb 01 02
        E 23 bb 01 03
        E 23 bb 01 03
        E 23 bb 01 04
        E 23 bb 01 04
        E 23 bb 01 04
        E 23 bb 01 05
        E 23 bb 01 05
        E 23 bb 01 06
        E 23 bb 01 06
        E 23 bb 01 06
        E 23 bb 01 07
        E 23 bb 01 07
        E 23 bb 01 08
        E 23 bb 01 08
        E 23 bb 01 08
        E 23 bb 01 09
        E 23 bb 01 09
        E 23 bb 01 0a
        E 23 bb 01 0a
        E 23 bb 01 0a
        E 23 bb 01 0b
        E 23 bb 01 0b
        E 23 bb 01 0c
        E 23 bb 01 0c
        E 23 bb 01 0c
        E 23 bb 01 0d
        E 23 bb 01 0d
        E 23 bb 01 0e
        E 23 bb 01 0e
        E 23 bb 01 0e
        E 23 bb 01 0f
        E 23 bb 01 0f
        E 23 bb 01 10
        E 23 bb 01 10
        E 23 bb 01 10
        E 23 bb 01 11
        E 23 bb 01 11
        E 23 bb 01 12
        E 23 bb 01 12
        E 23 bb 01 12
        E 23 bb 01 13
        E 23 bb 01 13
        E 23 bb 01 14
        E 23 bb 01 14
        E 23 bb 01 14
        E 23 bb 01 15
        E 23 bb 01 15
        E 23 bb 01 16
        E 23 bb 01 16
        E 23 bb 01 16
        E 23 bb 01 17
        E 23 bb 01 17
        E 23 bb 01 18
        E 23 bb 01 18
        E 23 bb 01 18
        E 23 bb 01 19
        E 23 bb 01 19
        E 23 bb 01 19
        E 23 bb 01 18
        E 23 bb 01 18
        E 23 bb 01 18
        E 23 bb 01 17
        E 23 bb 01 17
        E 23 bb 01 16
        E 23 bb 01 16
        E 23 bb 01 16
        E 23 bb 01 15
        E 23 bb 01 15
        E 23 bb 01 14
        E 23 bb 01 14
        E 23 bb 01 14
        E 23 bb 01 13
        E 23 bb 01 13
        E 23 bb 01 12
        E 23 bb 01 12
        E 23 bb 01 12
        E 23 bb 01 11
        E 23 bb 01 11
        E 23 bb 01 10
        E 23 bb 01 10
        E 23 bb 01 10
        E 23 bb 01 0f
        E 23 bb 01 0f
        E 23 bb 01 0e
        E 23 bb 01 0e
        E 23 bb 01 0e
        E 23 bb 01 0d
        E 23 bb 01 0d
        E 23 bb 01 0c
        E 23 bb 01 0c
        E 23 bb 01 0c
        E 23 bb 01 0b
        E 23 bb 01 0b
        E 23 bb 01 0a
        E 23 bb 01 0a
        E 23 bb 01 0a
        E 23 bb 01 09
        E 23 bb 01 09
        E 23 bb 01 08
        E 23 bb 01 08
        E 23 bb 01 08
        E 23 bb 01 07
        E 23 bb 01 07
        E 23 bb 01 06
        E 23 bb 01 06
        E 23 bb 01 06
        E 23 bb 01 05
        E 23 bb 01 05
        E 23 bb 01 04
        E 23 bb 01 04
        E 23 bb 01 04
        E 23 bb 01 03
        E 23 bb 01 03
        E 23 bb 01 02
        E 23 bb 01 02
        E 23 bb 01 02
        E 23 bb 01 01
        E 23 bb 01 01
        E 23 bb 01 00
        E 23 bb 01 00
        E 23 bb 01 00
        E 18 bb 01 01
        E 18 bb 01 02
        E 18 bb 01 04
        E 18 bb 01 05
        E 18 bb 01 07
        E 18 bb 01 08
        E 18 bb 01 09
        E 18 bb 01 0b
        E 18 bb 01 0c
        E 18 bb 01 0e
        E 18 bb 01 0f
        E 18 bb 01 10
        E 18 bb 01 12
        E 18 bb 01 13
        E 18 bb 01 15
        E 18 bb 01 16
        E 18 bb 01 17
        E 18 bb 01 19
        E 18 bb 01 1a
        E 18 bb 01 1c
        E 18 bb 01 1d
        E 18 bb 01 1e
        E 18 bb 01 20
        E 18 bb 01 21
        E 18 bb 01 23
        E 18 bb 01 24
        E 18 bb 01 25
        E 18 bb 01 27
        E 18 bb 01 28
        E 18 bb 01 2a
        E 18 bb 01 2b
        E 18 bb 01 2c
        E 18 bb 01 2e
        E 18 bb 01 2f
        E 18 bb 01 31
        E 18 bb 01 32
        E 18 bb 01 33
        E 18 bb 01 35
        E 18 bb 01 36
        E 18 bb 01 38
        E 18 bb 01 39
        E 18 bb 01 3a
        E 18 bb 01 3c
        E 18 bb 01 3d
        E 18 bb 01 3e
        E 18 bb 01 40
        E 18 bb 01 41
        E 18 bb 01 43
        E 18 bb 01 44
        E 18 bb 01 46
        E 18 bb 01 47
        E 18 bb 01 48
        E 18 bb 01 4a
        E 18 bb 01 4b
        E 18 bb 01 4d
        E 18 bb 01 4e
        E 18 bb 01 4f
        E 18 bb 01 51
        E 18 bb 01 52
        E 18 bb 01 54
        E 18 bb 01 55
        E 18 bb 01 56
        E 18 bb 01 58
        E 18 bb 01 58
        E 18 bb 01 58
        E 18 bb 01 56
        E 18 bb 01 55
        E 18 bb 01 54
        E 18 bb 01 52
        E 18 bb 01 51
        E 18 bb 01 4f
        E 18 bb 01 4e
        E 18 bb 01 4d
        E 18 bb 01 4b
        E 18 bb 01 4a
        E 18 bb 01 48
        E 18 bb 01 47
        E 18 bb 01 46
        E 18 bb 01 44
        E 18 bb 01 43
        E 18 bb 01 41
        E 18 bb 01 40
        E 18 bb 01 3e
        E 18 bb 01 3d
        E 18 bb 01 3c
        E 18 bb 01 3a
        E 18 bb 01 39
        E 18 bb 01 38
        E 18 bb 01 36
        E 18 bb 01 35
        E 18 bb 01 33
        E 18 bb 01 32
        E 18 bb 01 31
        E 18 bb 01 2f
        E 18 bb 01 2e
        E 18 bb 01 2c
        E 18 bb 01 2b
        E 18 bb 01 2a
        E 18 bb 01 28
        E 18 bb 01 27
        E 18 bb 01 25
        E 18 bb 01 24
        E 18 bb 01 23
        E 18 bb 01 21
        E 18 bb 01 20
        E 18 bb 01 1e
        E 18 bb 01 1d
        E 18 bb 01 1c
        E 18 bb 01 1a
        E 18 bb 01 19
        E 18 bb 01 17
        E 18 bb 01 16
        E 18 bb 01 15
        E 18 bb 01 13
        E 18 bb 01 12
        E 18 bb 01 10
        E 18 bb 01 0f
        E 18 bb 01 0e
        E 18 bb 01 0c
        E 18 bb 01 0b
        E 18 bb 01 09
        E 18 bb 01 08
        E 18 bb 01 07
        E 18 bb 01 05
        E 18 bb 01 04
        E 18 bb 01 02
        E 18 bb 01 01
        E 18 bb 01 00
        E 4 bb 01 00
        E 4 bb 01 01
        E 4 bb 01 02
        E 4 bb 01 03
        E 4 bb 01 04
        E 4 bb 01 04
        E 4 bb 01 05
        E 4 bb 01 06
        E 4 bb 01 07
        E 4 bb 01 08
        E 4 bb 01 08
        E 4 bb 01 09
        E 4 bb 01 0a
        E 4 bb 01 0b
        E 4 bb 01 0c
        E 4 bb 01 0c
        E 4 bb 01 0d
        E 4 bb 01 0e
        E 4 bb 01 0f
        E 4 bb 01 10
        E 4 bb 01 10
        E 4 bb 01 11
        E 4 bb 01 12
        E 4 bb 01 13
        E 4 bb 01 14
        E 4 bb 01 14
        E 4 bb 01 15
        E 4 bb 01 16
        E 4 bb 01 17
        E 4 bb 01 18
        E 4 bb 01 18
        E 4 bb 01 19
        E 4 bb 01 1a
        E 4 bb 01 1b
        E 4 bb 01 1c
        E 4 bb 01 1c
        E 4 bb 01 1d
        E 4 bb 01 1e
        E 4 bb 01 1f
        E 4 bb 01 20
        E 4 bb 01 20
        E 4 bb 01 21
        E 4 bb 01 22
        E 4 bb 01 23
        E 4 bb 01 24
        E 4 bb 01 24
        E 4 bb 01 25
        E 4 bb 01 26
        E 4 bb 01 27
        E 4 bb 01 28
        E 4 bb 01 28
        E 4 bb 01 29
        E 4 bb 01 2a
        E 4 bb 01 2b
        E 4 bb 01 2c
        E 4 bb 01 2c
        E 4 bb 01 2d
        E 4 bb 01 2e
        E 4 bb 01 2f
        E 4 bb 01 30
        E 4 bb 01 30
        E 4 bb 01 31
        E 4 bb 01 32
        E 4 bb 01 32
        E 4 bb 01 32
        E 4 bb 01 31
        E 4 bb 01 30
        E 4 bb 01 30
        E 4 bb 01 2f
        E 4 bb 01 2e
        E 4 bb 01 2d
        E 4 bb 01 2c
        E 4 bb 01 2c
        E 4 bb 01 2b
        E 4 bb 01 2a
        E 4 bb 01 29
        E 4 bb 01 28
        E 4 bb 01 28
        E 4 bb 01 27
        E 4 bb 01 26
        E 4 bb 01 25
        E 4 bb 01 24
        E 4 bb 01 24
        E 4 bb 01 23
        E 4 bb 01 22
        E 4 bb 01 21
        E 4 bb 01 20
        E 4 bb 01 20
        E 4 bb 01 1f
        E 4 bb 01 1e
        E 4 bb 01 1d
        E 4 bb 01 1c
        E 4 bb 01 1c
        E 4 bb 01 1b
        E 4 bb 01 1a
        E 4 bb 01 19
        E 4 bb 01 18
        E 4 bb 01 18
        E 4 bb 01 17
        E 4 bb 01 16
        E 4 bb 01 15
        E 4 bb 01 14
        E 4 bb 01 14
        E 4 bb 01 13
        E 4 bb 01 12
        E 4 bb 01 11
        E 4 bb 01 10
        E 4 bb 01 10
        E 4 bb 01 0f
        E 4 bb 01 0e
        E 4 bb 01 0d
        E 4 bb 01 0c
        E 4 bb 01 0c
        E 4 bb 01 0b
        E 4 bb 01 0a
        E 4 bb 01 09
        E 4 bb 01 08
        E 4 bb 01 08
        E 4 bb 01 07
        E 4 bb 01 06
        E 4 bb 01 05
        E 4 bb 01 04
        E 4 bb 01 04
        E 4 bb 01 03
        E 4 bb 01 02
        E 4 bb 01 01
        E 4 bb 01 00
        E 4 bb 01 00
        E 42 bb 01 02
        E 42 bb 01 04
        E 42 bb 01 06
        E 42 bb 01 08
        E 42 bb 01 0a
        E 42 bb 01 0c
        E 42 bb 01 0e
        E 42 bb 01 10
        E 42 bb 01 12
        E 42 bb 01 14
        E 42 bb 01 16
        E 42 bb 01 18
        E 42 bb 01 1a
        E 42 bb 01 1c
        E 42 bb 01 1e
        E 42 bb 01 20
        E 42 bb 01 22
        E 42 bb 01 24
        E 42 bb 01 26
        E 42 bb 01 28
        E 42 bb 01 2a
        E 42 bb 01 2c
        E 42 bb 01 2e
        E 42 bb 01 30
        E 42 bb 01 32
        E 42 bb 01 34
        E 42 bb 01 36
        E 42 bb 01 38
        E 42 bb 01 3a
        E 42 bb 01 3c
        E 42 bb 01 3e
        E 42 bb 01 40
        E 42 bb 01 42
        E 42 bb 01 44
        E 42 bb 01 46
        E 42 bb 01 48
        E 42 bb 01 4a
        E 42 bb 01 4c
        E 42 bb 01 4e
        E 42 bb 01 50
        E 42 bb 01 52
        E 42 bb 01 54
        E 42 bb 01 56
        E 42 bb 01 58
        E 42 bb 01 5a
        E 42 bb 01 5c
        E 42 bb 01 5e
        E 42 bb 01 60
        E 42 bb 01 62
        E 42 bb 01 64
        E 42 bb 01 66
        E 42 bb 01 68
        E 42 bb 01 6a
        E 42 bb 01 6c
        E 42 bb 01 6e
        E 42 bb 01 70
        E 42 bb 01 72
        E 42 bb 01 74
        E 42 bb 01 76
        E 42 bb 01 78
        E 42 bb 01 7a
        E 42 bb 01 7c
        E 42 bb 01 7e
        E 42 bb 01 7f
        E 42 bb 01 7e
        E 42 bb 01 7c
        E 42 bb 01 7a
        E 42 bb 01 78
        E 42 bb 01 76
        E 42 bb 01 74
        E 42 bb 01 72
        E 42 bb 01 70
        E 42 bb 01 6e
        E 42 bb 01 6c
        E 42 bb 01 6a
        E 42 bb 01 68
        E 42 bb 01 66
        E 42 bb 01 64
        E 42 bb 01 62
        E 42 bb 01 60
        E 42 bb 01 5e
        E 42 bb 01 5c
        E 42 bb 01 5a
        E 42 bb 01 58
        E 42 bb 01 56
        E 42 bb 01 54
        E 42 bb 01 52
        E 42 bb 01 50
        E 42 bb 01 4e
        E 42 bb 01 4c
        E 42 bb 01 4a
        E 42 bb 01 48
        E 42 bb 01 46
        E 42 bb 01 44
        E 42 bb 01 42
        E 42 bb 01 40
        E 42 bb 01 3e
        E 42 bb 01 3c
        E 42 bb 01 3a
        E 42 bb 01 38
        E 42 bb 01 36
        E 42 bb 01 34
        E 42 bb 01 32
        E 42 bb 01 30
        E 42 bb 01 2e
        E 42 bb 01 2c
        E 42 bb 01 2a
        E 42 bb 01 28
        E 42 bb 01 26
        E 42 bb 01 24
        E 42 bb 01 22
        E 42 bb 01 20
        E 42 bb 01 1e
        E 42 bb 01 1c
        E 42 bb 01 1a
        E 42 bb 01 18
        E 42 bb 01 16
        E 42 bb 01 14
        E 42 bb 01 12
        E 42 bb 01 10
        E 42 bb 01 0e
        E 42 bb 01 0c
        E 42 bb 01 0a
        E 42 bb 01 08
        E 42 bb 01 06
        E 42 bb 01 04
        E 42 bb 01 02
        E 42 bb 01 00
        E 9 bb 01 01
        E 9 bb 01 03
        E 9 bb 01 05
        E 9 bb 01 07
        E 9 bb 01 09
        E 9 bb 01 0a
        E 9 bb 01 0c
        E 9 bb 01 0e
        E 9 bb 01 10
        E 9 bb 01 12
        E 9 bb 01 13
        E 9 bb 01 15
        E 9 bb 01 17
        E 9 bb 01 19
        E 9 bb 01 1b
        E 9 bb 01 1c
        E 9 bb 01 1e
        E 9 bb 01 20
        E 9 bb 01 22
        E 9 bb 01 24
        E 9 bb 01 25
        E 9 bb 01 27
        E 9 bb 01 29
        E 9 bb 01 2b
        E 9 bb 01 2d
        E 9 bb 01 2e
        E 9 bb 01 30
        E 9 bb 01 32
        E 9 bb 01 34
        E 9 bb 01 36
        E 9 bb 01 37
        E 9 bb 01 39
        E 9 bb 01 3b
        E 9 bb 01 3d
        E 9 bb 01 3f
        E 9 bb 01 40
        E 9 bb 01 42
        E 9 bb 01 44
        E 9 bb 01 46
        E 9 bb 01 48
        E 9 bb 01 49
        E 9 bb 01 4b
        E 9 bb 01 4d
        E 9 bb 01 4f
        E 9 bb 01 51
        E 9 bb 01 52
        E 9 bb 01 54
        E 9 bb 01 56
        E 9 bb 01 58
        E 9 bb 01 5a
        E 9 bb 01 5b
        E 9 bb 01 5d
        E 9 bb 01 5f
        E 9 bb 01 61
        E 9 bb 01 63
        E 9 bb 01 64
        E 9 bb 01 66
        E 9 bb 01 68
        E 9 bb 01 6a
        E 9 bb 01 6c
        E 9 bb 01 6d
        E 9 bb 01 6f
        E 9 bb 01 71
        E 9 bb 01 72
        E 9 bb 01 71
        E 9 bb 01 6f
        E 9 bb 01 6d
        E 9 bb 01 6c
        E 9 bb 01 6a
        E 9 bb 01 68
        E 9 bb 01 66
        E 9 bb 01 64
        E 9 bb 01 63
        E 9 bb 01 61
        E 9 bb 01 5f
        E 9 bb 01 5d
        E 9 bb 01 5b
        E 9 bb 01 5a
        E 9 bb 01 58
        E 9 bb 01 56
        E 9 bb 01 54
        E 9 bb 01 52
        E 9 bb 01 51
        E 9 bb 01 4f
        E 9 bb 01 4d
        E 9 bb 01 4b
        E 9 bb 01 49
        E 9 bb 01 48
        E 9 bb 01 46
        E 9 bb 01 44
        E 9 bb 01 42
        E 9 bb 01 40
        E 9 bb 01 3f
        E 9 bb 01 3d
        E 9 bb 01 3b
        E 9 bb 01 39
        E 9 bb 01 37
        E 9 bb 01 36
        E 9 bb 01 34
        E 9 bb 01 32
        E 9 bb 01 30
        E 9 bb 01 2e
        E 9 bb 01 2d
        E 9 bb 01 2b
        E 9 bb 01 29
        E 9 bb 01 27
        E 9 bb 01 25
        E 9 bb 01 24
        E 9 bb 01 22
        E 9 bb 01 20
        E 9 bb 01 1e
        E 9 bb 01 1c
        E 9 bb 01 1b
        E 9 bb 01 19
        E 9 bb 01 17
        E 9 bb 01 15
        E 9 bb 01 13
        E 9 bb 01 12
        E 9 bb 01 10
        E 9 bb 01 0e
        E 9 bb 01 0c
        E 9 bb 01 0a
        E 9 bb 01 09
        E 9 bb 01 07
        E 9 bb 01 05
        E 9 bb 01 03
        E 9 bb 01 01
        E 9 bb 01 00
        E 4 bb 01 01
        E 4 bb 01 02
        E 4 bb 01 03
        E 4 bb 01 04
        E 4 bb 01 06
        E 4 bb 01 07
        E 4 bb 01 08
        E 4 bb 01 09
        E 4 bb 01 0a
        E 4 bb 01 0c
        E 4 bb 01 0d
        E 4 bb 01 0e
        E 4 bb 01 0f
        E 4 bb 01 10
        E 4 bb 01 12
        E 4 bb 01 13
        E 4 bb 01 14
        E 4 bb 01 15
        E 4 bb 01 16
        E 4 bb 01 18
        E 4 bb 01 19
        E 4 bb 01 1a
        E 4 bb 01 1b
        E 4 bb 01 1c
        E 4 bb 01 1e
        E 4 bb 01 1f
        E 4 bb 01 20
        E 4 bb 01 21
        E 4 bb 01 22
        E 4 bb 01 24
        E 4 bb 01 25
        E 4 bb 01 26
        E 4 bb 01 27
        E 4 bb 01 28
        E 4 bb 01 2a
        E 4 bb 01 2b
        E 4 bb 01 2c
        E 4 bb 01 2d
        E 4 bb 01 2e
        E 4 bb 01 30
        E 4 bb 01 31
        E 4 bb 01 32
        E 4 bb 01 33
        E 4 bb 01 34
        E 4 bb 01 36
        E 4 bb 01 37
        E 4 bb 01 38
        E 4 bb 01 39
        E 4 bb 01 3a
        E 4 bb 01 3c
        E 4 bb 01 3d
        E 4 bb 01 3e
        E 4 bb 01 3f
        E 4 bb 01 40
        E 4 bb 01 42
        E 4 bb 01 43
        E 4 bb 01 44
        E 4 bb 01 45
        E 4 bb 01 46
        E 4 bb 01 48
        E 4 bb 01 49
        E 4 bb 01 4a
        E 4 bb 01 4b
        E 4 bb 01 4c
        E 4 bb 01 4b
        E 4 bb 01 4a
        E 4 bb 01 49
        E 4 bb 01 48
        E 4 bb 01 46
        E 4 bb 01 45
        E 4 bb 01 44
        E 4 bb 01 43
        E 4 bb 01 42
        E 4 bb 01 40
        E 4 bb 01 3f
        E 4 bb 01 3e
        E 4 bb 01 3d
        E 4 bb 01 3c
        E 4 bb 01 3a
        E 4 bb 01 39
        E 4 bb 01 38
        E 4 bb 01 37
        E 4 bb 01 36
        E 4 bb 01 34
        E 4 bb 01 33
        E 4 bb 01 32
        E 4 bb 01 31
        E 4 bb 01 30
        E 4 bb 01 2e
        E 4 bb 01 2d
        E 4 bb 01 2c
        E 4 bb 01 2b
        E 4 bb 01 2a
        E 4 bb 01 28
        E 4 bb 01 27
        E 4 bb 01 26
        E 4 bb 01 25
        E 4 bb 01 24
        E 4 bb 01 22
        E 4 bb 01 21
        E 4 bb 01 20
        E 4 bb 01 1f
        E 4 bb 01 1e
        E 4 bb 01 1c
        E 4 bb 01 1b
        E 4 bb 01 1a
        E 4 bb 01 19
        E 4 bb 01 18
        E 4 bb 01 16
        E 4 bb 01 15
        E 4 bb 01 14
        E 4 bb 01 13
        E 4 bb 01 12
        E 4 bb 01 10
        E 4 bb 01 0f
        E 4 bb 01 0e
        E 4 bb 01 0d
        E 4 bb 01 0c
        E 4 bb 01 0a
        E 4 bb 01 09
        E 4 bb 01 08
        E 4 bb 01 07
        E 4 bb 01 06
        E 4 bb 01 04
        E 4 bb 01 03
        E 4 bb 01 02
        E 4 bb 01 01
        E 4 bb 01 00
        E 4 bb 01 00
        E 4 bb 01 01
        E 4 bb 01 02
        E 4 bb 01 03
        E 4 bb 01 04
        E 4 bb 01 04
        E 4 bb 01 05
        E 4 bb 01 06
        E 4 bb 01 07
        E 4 bb 01 08
        E 4 bb 01 08
        E 4 bb 01 09
        E 4 bb 01 0a
        E 4 bb 01 0b
        E 4 bb 01 0c
        E 4 bb 01 0c
        E 4 bb 01 0d
        E 4 bb 01 0e
        E 4 bb 01 0f
        E 4 bb 01 10
        E 4 bb 01 10
        E 4 bb 01 11
        E 4 bb 01 12
        E 4 bb 01 13
        E 4 bb 01 14
        E 4 bb 01 14
        E 4 bb 01 15
        E 4 bb 01 16
        E 4 bb 01 17
        E 4 bb 01 18
        E 4 bb 01 18
        E 4 bb 01 19
        E 4 bb 01 1a
        E 4 bb 01 1b
        E 4 bb 01 1c
        E 4 bb 01 1c
        E 4 bb 01 1d
        E 4 bb 01 1e
        E 4 bb 01 1f
        E 4 bb 01 20
        E 4 bb 01 20
        E 4 bb 01 21
        E 4 bb 01 22
        E 4 bb 01 23
        E 4 bb 01 24
        E 4 bb 01 24
        E 4 bb 01 25
        E 4 bb 01 26
        E 4 bb 01 27
        E 4 bb 01 28
        E 4 bb 01 28
        E 4 bb 01 29
        E 4 bb 01 2a
        E 4 bb 01 2b
        E 4 bb 01 2c
        E 4 bb 01 2c
        E 4 bb 01 2d
        E 4 bb 01 2e
        E 4 bb 01 2f
        E 4 bb 01 30
        E 4 bb 01 30
        E 4 bb 01 31
        E 4 bb 01 32
        E 4 bb 01 32
        E 4 bb 01 32
        E 4 bb 01 31
        E 4 bb 01 30
        E 4 bb 01 30
        E 4 bb 01 2f
        E 4 bb 01 2e
        E 4 bb 01 2d
        E 4 bb 01 2c
        E 4 bb 01 2c
        E 4 bb 01 2b
        E 4 bb 01 2a
        E 4 bb 01 29
        E 4 bb 01 28
        E 4 bb 01 28
        E 4 bb 01 27
        E 4 bb 01 26
        E 4 bb 01 25
        E 4 bb 01 24
        E 4 bb 01 24
        E 4 bb 01 23
        E 4 bb 01 22
        E 4 bb 01 21
        E 4 bb 01 20
        E 4 bb 01 20
        E 4 bb 01 1f
        E 4 bb 01 1e
        E 4 bb 01 1d
        E 4 bb 01 1c
        E 4 bb 01 1c
        E 4 bb 01 1b
        E 4 bb 01 1a
        E 4 bb 01 19
        E 4 bb 01 18
        E 4 bb 01 18
        E 4 bb 01 17
        E 4 bb 01 16
        E 4 bb 01 15
        E 4 bb 01 14
        E 4 bb 01 14
        E 4 bb 01 13
        E 4 bb 01 12
        E 4 bb 01 11
        E 4 bb 01 10
        E 4 bb 01 10
        E 4 bb 01 0f
        E 4 bb 01 0e
        E 4 bb 01 0d
        E 4 bb 01 0c
        E 4 bb 01 0c
        E 4 bb 01 0b
        E 4 bb 01 0a
        E 4 bb 01 09
        E 4 bb 01 08
        E 4 bb 01 08
        E 4 bb 01 07
        E 4 bb 01 06
        E 4 bb 01 05
        E 4 bb 01 04
        E 4 bb 01 04
        E 4 bb 01 03
        E 4 bb 01 02
        E 4 bb 01 01
        E 4 bb 01 00
        E 4 bb 01 00
        E 42 bb 01 02
        E 42 bb 01 04
        E 42 bb 01 06
        E 42 bb 01 08
        E 42 bb 01 0a
        E 42 bb 01 0c
        E 42 bb 01 0e
        E 42 bb 01 10
        E 42 bb 01 12
        E 42 bb 01 14
        E 42 bb 01 16
        E 42 bb 01 18
        E 42 bb 01 1a
        E 42 bb 01 1c
        E 42 bb 01 1e
        E 42 bb 01 20
        E 42 bb 01 22
        E 42 bb 01 24
        E 42 bb 01 26
        E 42 bb 01 28
        E 42 bb 01 2a
        E 42 bb 01 2c
        E 42 bb 01 2e
        E 42 bb 01 30
        E 42 bb 01 32
        E 42 bb 01 34
        E 42 bb 01 36
        E 42 bb 01 38
        E 42 bb 01 3a
        E 42 bb 01 3c
        E 42 bb 01 3e
        E 42 bb 01 40
        E 42 bb 01 42
        E 42 bb 01 44
        E 42 bb 01 46
        E 42 bb 01 48
        E 42 bb 01 4a
        E 42 bb 01 4c
        E 42 bb 01 4e
        E 42 bb 01 50
        E 42 bb 01 52
        E 42 bb 01 54
        E 42 bb 01 56
        E 42 bb 01 58
        E 42 bb 01 5a
        E 42 bb 01 5c
        E 42 bb 01 5e
        E 42 bb 01 60
        E 42 bb 01 62
        E 42 bb 01 64
        E 42 bb 01 66
        E 42 bb 01 68
        E 42 bb 01 6a
        E 42 bb 01 6c
        E 42 bb 01 6e
        E 42 bb 01 70
        E 42 bb 01 72
        E 42 bb 01 74
        E 42 bb 01 76
        E 42 bb 01 78
        E 42 bb 01 7a
        E 42 bb 01 7c
        E 42 bb 01 7e
        E 42 bb 01 7f
        E 42 bb 01 7e
        E 42 bb 01 7c
        E 42 bb 01 7a
        E 42 bb 01 78
        E 42 bb 01 76
        E 42 bb 01 74
        E 42 bb 01 72
        E 42 bb 01 70
        E 42 bb 01 6e
        E 42 bb 01 6c
        E 42 bb 01 6a
        E 42 bb 01 68
        E 42 bb 01 66
        E 42 bb 01 64
        E 42 bb 01 62
        E 42 bb 01 60
        E 42 bb 01 5e
        E 42 bb 01 5c
        E 42 bb 01 5a
        E 42 bb 01 58
        E 42 bb 01 56
        E 42 bb 01 54
        E 42 bb 01 52
        E 42 bb 01 50
        E 42 bb 01 4e
        E 42 bb 01 4c
        E 42 bb 01 4a
        E 42 bb 01 48
        E 42 bb 01 46
        E 42 bb 01 44
        E 42 bb 01 42
        E 42 bb 01 40
        E 42 bb 01 3e
        E 42 bb 01 3c
        E 42 bb 01 3a
        E 42 bb 01 38
        E 42 bb 01 36
        E 42 bb 01 34
        E 42 bb 01 32
        E 42 bb 01 30
        E 42 bb 01 2e
        E 42 bb 01 2c
        E 42 bb 01 2a
        E 42 bb 01 28
        E 42 bb 01 26
        E 42 bb 01 24
        E 42 bb 01 22
        E 42 bb 01 20
        E 42 bb 01 1e
        E 42 bb 01 1c
        E 42 bb 01 1a
        E 42 bb 01 18
        E 42 bb 01 16
        E 42 bb 01 14
        E 42 bb 01 12
        E 42 bb 01 10
        E 42 bb 01 0e
        E 42 bb 01 0c
        E 42 bb 01 0a
        E 42 bb 01 08
        E 42 bb 01 06
        E 42 bb 01 04
        E 42 bb 01 02
        E 42 bb 01 00
        E 9 bb 01 01
        E 9 bb 01 03
        E 9 bb 01 05
        E 9 bb 01 07
        E 9 bb 01 09
        E 9 bb 01 0a
        E 9 bb 01 0c
        E 9 bb 01 0e
        E 9 bb 01 10
        E 9 bb 01 12
        E 9 bb 01 13
        E 9 bb 01 15
        E 9 bb 01 17
        E 9 bb 01 19
        E 9 bb 01 1b
        E 9 bb 01 1c
        E 9 bb 01 1e
        E 9 bb 01 20
        E 9 bb 01 22
        E 9 bb 01 24
        E 9 bb 01 25
        E 9 bb 01 27
        E 9 bb 01 29
        E 9 bb 01 2b
        E 9 bb 01 2d
        E 9 bb 01 2e
        E 9 bb 01 30
        E 9 bb 01 32
        E 9 bb 01 34
        E 9 bb 01 36
        E 9 bb 01 37
        E 9 bb 01 39
        E 9 bb 01 3b
        E 9 bb 01 3d
        E 9 bb 01 3f
        E 9 bb 01 40
        E 9 bb 01 42
        E 9 bb 01 44
        E 9 bb 01 46
        E 9 bb 01 48
        E 9 bb 01 49
        E 9 bb 01 4b
        E 9 bb 01 4d
        E 9 bb 01 4f
        E 9 bb 01 51
        E 9 bb 01 52
        E 9 bb 01 54
        E 9 bb 01 56
        E 9 bb 01 58
        E 9 bb 01 5a
        E 9 bb 01 5b
        E 9 bb 01 5d
        E 9 bb 01 5f
        E 9 bb 01 61
        E 9 bb 01 63
        E 9 bb 01 64
        E 9 bb 01 66
        E 9 bb 01 68
        E 9 bb 01 6a
        E 9 bb 01 6c
        E 9 bb 01 6d
        E 9 bb 01 6f
        E 9 bb 01 71
        E 9 bb 01 72
        E 9 bb 01 71
        E 9 bb 01 6f
        E 9 bb 01 6d
        E 9 bb 01 6c
        E 9 bb 01 6a
        E 9 bb 01 68
        E 9 bb 01 66
        E 9 bb 01 64
        E 9 bb 01 63
        E 9 bb 01 61
        E 9 bb 01 5f
        E 9 bb 01 5d
        E 9 bb 01 5b
        E 9 bb 01 5a
        E 9 bb 01 58
        E 9 bb 01 56
        E 9 bb 01 54
        E 9 bb 01 52
        E 9 bb 01 51
        E 9 bb 01 4f
        E 9 bb 01 4d
        E 9 bb 01 4b
        E 9 bb 01 49
        E 9 bb 01 48
        E 9 bb 01 46
        E 9 bb 01 44
        E 9 bb 01 42
        E 9 bb 01 40
        E 9 bb 01 3f
        E 9 bb 01 3d
        E 9 bb 01 3b
        E 9 bb 01 39
        E 9 bb 01 37
        E 9 bb 01 36
        E 9 bb 01 34
        E 9 bb 01 32
        E 9 bb 01 30
        E 9 bb 01 2e
        E 9 bb 01 2d
        E 9 bb 01 2b
        E 9 bb 01 29
        E 9 bb 01 27
        E 9 bb 01 25
        E 9 bb 01 24
        E 9 bb 01 22
        E 9 bb 01 20
        E 9 bb 01 1e
        E 9 bb 01 1c
        E 9 bb 01 1b
        E 9 bb 01 19
        E 9 bb 01 17
        E 9 bb 01 15
        E 9 bb 01 13
        E 9 bb 01 12
        E 9 bb 01 10
        E 9 bb 01 0e
        E 9 bb 01 0c
        E 9 bb 01 0a
        E 9 bb 01 09
        E 9 bb 01 07
        E 9 bb 01 05
        E 9 bb 01 03
        E 9 bb 01 01
        E 9 bb 01 00
        E 4 bb 01 01
        E 4 bb 01 02
        E 4 bb 01 03
        E 4 bb 01 04
        E 4 bb 01 06
        E 4 bb 01 07
        E 4 bb 01 08
        E 4 bb 01 09
        E 4 bb 01 0a
        E 4 bb 01 0c
        E 4 bb 01 0d
        E 4 bb 01 0e
        E 4 bb 01 0f
        E 4 bb 01 10
        E 4 bb 01 12
        E 4 bb 01 13
        E 4 bb 01 14
        E 4 bb 01 15
        E 4 bb 01 16
        E 4 bb 01 18
        E 4 bb 01 19
        E 4 bb 01 1a
        E 4 bb 01 1b
        E 4 bb 01 1c
        E 4 bb 01 1e
        E 4 bb 01 1f
        E 4 bb 01 20
        E 4 bb 01 21
        E 4 bb 01 22
        E 4 bb 01 24
        E 4 bb 01 25
        E 4 bb 01 26
        E 4 bb 01 27
        E 4 bb 01 28
        E 4 bb 01 2a
        E 4 bb 01 2b
        E 4 bb 01 2c
        E 4 bb 01 2d
        E 4 bb 01 2e
        E 4 bb 01 30
        E 4 bb 01 31
        E 4 bb 01 32
        E 4 bb 01 33
        E 4 bb 01 34
        E 4 bb 01 36
        E 4 bb 01 37
        E 4 bb 01 38
        E 4 bb 01 39
        E 4 bb 01 3a
        E 4 bb 01 3c
        E 4 bb 01 3d
        E 4 bb 01 3e
        E 4 bb 01 3f
        E 4 bb 01 40
        E 4 bb 01 42
        E 4 bb 01 43
        E 4 bb 01 44
        E 4 bb 01 45
        E 4 bb 01 46
        E 4 bb 01 48
        E 4 bb 01 49
        E 4 bb 01 4a
        E 4 bb 01 4b
        E 4 bb 01 4c
        E 4 bb 01 4b
        E 4 bb 01 4a
        E 4 bb 01 49
        E 4 bb 01 48
        E 4 bb 01 46
        E 4 bb 01 45
        E 4 bb 01 44
        E 4 bb 01 43
        E 4 bb 01 42
        E 4 bb 01 40
        E 4 bb 01 3f
        E 4 bb 01 3e
        E 4 bb 01 3d
        E 4 bb 01 3c
        E 4 bb 01 3a
        E 4 bb 01 39
        E 4 bb 01 38
        E 4 bb 01 37
        E 4 bb 01 36
        E 4 bb 01 34
        E 4 bb 01 33
        E 4 bb 01 32
        E 4 bb 01 31
        E 4 bb 01 30
        E 4 bb 01 2e
        E 4 bb 01 2d
        E 4 bb 01 2c
        E 4 bb 01 2b
        E 4 bb 01 2a
        E 4 bb 01 28
        E 4 bb 01 27
        E 4 bb 01 26
        E 4 bb 01 25
        E 4 bb 01 24
        E 4 bb 01 22
        E 4 bb 01 21
        E 4 bb 01 20
        E 4 bb 01 1f
        E 4 bb 01 1e
        E 4 bb 01 1c
        E 4 bb 01 1b
        E 4 bb 01 1a
        E 4 bb 01 19
        E 4 bb 01 18
        E 4 bb 01 16
        E 4 bb 01 15
        E 4 bb 01 14
        E 4 bb 01 13
        E 4 bb 01 12
        E 4 bb 01 10
        E 4 bb 01 0f
        E 4 bb 01 0e
        E 4 bb 01 0d
        E 4 bb 01 0c
        E 4 bb 01 0a
        E 4 bb 01 09
        E 4 bb 01 08
        E 4 bb 01 07
        E 4 bb 01 06
        E 4 bb 01 04
        E 4 bb 01 03
        E 4 bb 01 02
        E 4 bb 01 01
        E 4 bb 01 00
        E 23 bb 01 00
        E 23 bb 01 00
        E 23 bb 01 01
        E 23 bb 01 01
        E 23 bb 01 02
        E 23 bb 01 02
        E 23 bb 01 02
        E 23 bb 01 03
        E 23 bb 01 03
        E 23 bb 01 04
        E 23 bb 01 04
        E 23 bb 01 04
        E 23 bb 01 05
        E 23 bb 01 05
        E 23 bb 01 06
        E 23 bb 01 06
        E 23 bb 01 06
        E 23 bb 01 07
        E 23 bb 01 07
        E 23 bb 01 08
        E 23 bb 01 08
        E 23 bb 01 08
        E 23 bb 01 09
        E 23 bb 01 09
        E 23 bb 01 0a
        E 23 bb 01 0a
        E 23 bb 01 0a
        E 23 bb 01 0b
        E 23 bb 01 0b
        E 23 bb 01 0c
        E 23 bb 01 0c
        E 23 bb 01 0c
        E 23 bb 01 0d
        E 23 bb 01 0d
        E 23 bb 01 0e
        E 23 bb 01 0e
        E 23 bb 01 0e
        E 23 bb 01 0f
        E 23 bb 01 0f
        E 23 bb 01 10
        E 23 bb 01 10
        E 23 bb 01 10
        E 23 bb 01 11
        E 23 bb 01 11
        E 23 bb 01 12
        E 23 bb 01 12
        E 23 bb 01 12
        E 23 bb 01 13
        E 23 bb 01 13
        E 23 bb 01 14
        E 23 bb 01 14
        E 23 bb 01 14
        E 23 bb 01 15
        E 23 bb 01 15
        E 23 bb 01 16
        E 23 bb 01 16
        E 23 bb 01 16
        E 23 bb 01 17
        E 23 bb 01 17
        E 23 bb 01 18
        E 23 bb 01 18
        E 23 bb 01 18
        E 23 bb 01 19
        E 23 bb 01 19
        E 23 bb 01 19
        E 23 bb 01 18
        E 23 bb 01 18
        E 23 bb 01 18
        E 23 bb 01 17
        E 23 bb 01 17
        E 23 bb 01 16
        E 23 bb 01 16
        E 23 bb 01 16
        E 23 bb 01 15
        E 23 bb 01 15
        E 23 bb 01 14
        E 23 bb 01 14
        E 23 bb 01 14
        E 23 bb 01 13
        E 23 bb 01 13
        E 23 bb 01 12
        E 23 bb 01 12
        E 23 bb 01 12
        E 23 bb 01 11
        E 23 bb 01 11
        E 23 bb 01 10
        E 23 bb 01 10
        E 23 bb 01 10
        E 23 bb 01 0f
        E 23 bb 01 0f
        E 23 bb 01 0e
        E 23 bb 01 0e
        E 23 bb 01 0e
        E 23 bb 01 0d
        E 23 bb 01 0d
        E 23 bb 01 0c
        E 23 bb 01 0c
        E 23 bb 01 0c
        E 23 bb 01 0b
        E 23 bb 01 0b
        E 23 bb 01 0a
        E 23 bb 01 0a
        E 23 bb 01 0a
        E 23 bb 01 09
        E 23 bb 01 09
        E 23 bb 01 08
        E 23 bb 01 08
        E 23 bb 01 08
        E 23 bb 01 07
        E 23 bb 01 07
        E 23 bb 01 06
        E 23 bb 01 06
        E 23 bb 01 06
        E 23 bb 01 05
        E 23 bb 01 05
        E 23 bb 01 04
        E 23 bb 01 04
        E 23 bb 01 04
        E 23 bb 01 03
        E 23 bb 01 03
        E 23 bb 01 02
        E 23 bb 01 02
        E 23 bb 01 02
        E 23 bb 01 01
        E 23 bb 01 01
        E 23 bb 01 00
        E 23 bb 01 00
        E 23 bb 01 00
        E 18 bb 01 01
        E 18 bb 01 02
        E 18 bb 01 04
        E 18 bb 01 05
        E 18 bb 01 07
        E 18 bb 01 08
        E 18 bb 01 09
        E 18 bb 01 0b
        E 18 bb 01 0c
        E 18 bb 01 0e
        E 18 bb 01 0f
        E 18 bb 01 10
        E 18 bb 01 12
        E 18 bb 01 13
        E 18 bb 01 15
        E 18 bb 01 16
        E 18 bb 01 17
        E 18 bb 01 19
        E 18 bb 01 1a
        E 18 bb 01 1c
        E 18 bb 01 1d
        E 18 bb 01 1e
        E 18 bb 01 20
        E 18 bb 01 21
        E 18 bb 01 23
        E 18 bb 01 24
        E 18 bb 01 25
        E 18 bb 01 27
        E 18 bb 01 28
        E 18 bb 01 2a
        E 18 bb 01 2b
        E 18 bb 01 2c
        E 18 bb 01 2e
        E 18 bb 01 2f
        E 18 bb 01 31
        E 18 bb 01 32
        E 18 bb 01 33
        E 18 bb 01 35
        E 18 bb 01 36
        E 18 bb 01 38
        E 18 bb 01 39
        E 18 bb 01 3a
        E 18 bb 01 3c
        E 18 bb 01 3d
        E 18 bb 01 3e
        E 18 bb 01 40
        E 18 bb 01 41
        E 18 bb 01 43
        E 18 bb 01 44
        E 18 bb 01 46
        E 18 bb 01 47
        E 18 bb 01 48
        E 18 bb 01 4a
        E 18 bb 01 4b
        E 18 bb 01 4d
        E 18 bb 01 4e
        E 18 bb 01 4f
        E 18 bb 01 51
        E 18 bb 01 52
        E 18 bb 01 54
        E 18 bb 01 55
        E 18 bb 01 56
        E 18 bb 01 58
        E 18 bb 01 58
        E 18 bb 01 58
        E 18 bb 01 56
        E 18 bb 01 55
        E 18 bb 01 54
        E 18 bb 01 52
        E 18 bb 01 51
        E 18 bb 01 4f
        E 18 bb 01 4e
        E 18 bb 01 4d
        E 18 bb 01 4b
        E 18 bb 01 4a
        E 18 bb 01 48
        E 18 bb 01 47
        E 18 bb 01 46
        E 18 bb 01 44
        E 18 bb 01 43
        E 18 bb 01 41
        E 18 bb 01 40
        E 18 bb 01 3e
        E 18 bb 01 3d
        E 18 bb 01 3c
        E 18 bb 01 3a
        E 18 bb 01 39
        E 18 bb 01 38
        E 18 bb 01 36
        E 18 bb 01 35
        E 18 bb 01 33
        E 18 bb 01 32
        E 18 bb 01 31
        E 18 bb 01 2f
        E 18 bb 01 2e
        E 18 bb 01 2c
        E 18 bb 01 2b
        E 18 bb 01 2a
        E 18 bb 01 28
        E 18 bb 01 27
        E 18 bb 01 25
        E 18 bb 01 24
        E 18 bb 01 23
        E 18 bb 01 21
        E 18 bb 01 20
        E 18 bb 01 1e
        E 18 bb 01 1d
        E 18 bb 01 1c
        E 18 bb 01 1a
        E 18 bb 01 19
        E 18 bb 01 17
        E 18 bb 01 16
        E 18 bb 01 15
        E 18 bb 01 13
        E 18 bb 01 12
        E 18 bb 01 10
        E 18 bb 01 0f
        E 18 bb 01 0e
        E 18 bb 01 0c
        E 18 bb 01 0b
        E 18 bb 01 09
        E 18 bb 01 08
        E 18 bb 01 07
        E 18 bb 01 05
        E 18 bb 01 04
        E 18 bb 01 02
        E 18 bb 01 01
        E 18 bb 01 00
        E 4 bb 01 00
        E 4 bb 01 01
        E 4 bb 01 02
        E 4 bb 01 03
        E 4 bb 01 04
        E 4 bb 01 04
        E 4 bb 01 05
        E 4 bb 01 06
        E 4 bb 01 07
        E 4 bb 01 08
        E 4 bb 01 08
        E 4 bb 01 09
        E 4 bb 01 0a
        E 4 bb 01 0b
        E 4 bb 01 0c
        E 4 bb 01 0c
        E 4 bb 01 0d
        E 4 bb 01 0e
        E 4 bb 01 0f
        E 4 bb 01 10
        E 4 bb 01 10
        E 4 bb 01 11
        E 4 bb 01 12
        E 4 bb 01 13
        E 4 bb 01 14
        E 4 bb 01 14
        E 4 bb 01 15
        E 4 bb 01 16
        E 4 bb 01 17
        E 4 bb 01 18
        E 4 bb 01 18
        E 4 bb 01 19
        E 4 bb 01 1a
        E 4 bb 01 1b
        E 4 bb 01 1c
        E 4 bb 01 1c
        E 4 bb 01 1d
        E 4 bb 01 1e
        E 4 bb 01 1f
        E 4 bb 01 20
        E 4 bb 01 20
        E 4 bb 01 21
        E 4 bb 01 22
        E 4 bb 01 23
        E 4 bb 01 24
        E 4 bb 01 24
        E 4 bb 01 25
        E 4 bb 01 26
        E 4 bb 01 27
        E 4 bb 01 28
        E 4 bb 01 28
        E 4 bb 01 29
        E 4 bb 01 2a
        E 4 bb 01 2b
        E 4 bb 01 2c
        E 4 bb 01 2c
        E 4 bb 01 2d
        E 4 bb 01 2e
        E 4 bb 01 2f
        E 4 bb 01 30
        E 4 bb 01 30
        E 4 bb 01 31
        E 4 bb 01 32
        E 4 bb 01 32
        E 4 bb 01 32
        E 4 bb 01 31
        E 4 bb 01 30
        E 4 bb 01 30
        E 4 bb 01 2f
        E 4 bb 01 2e
        E 4 bb 01 2d
        E 4 bb 01 2c
        E 4 bb 01 2c
        E 4 bb 01 2b
        E 4 bb 01 2a
        E 4 bb 01 29
        E 4 bb 01 28
        E 4 bb 01 28
        E 4 bb 01 27
        E 4 bb 01 26
        E 4 bb 01 25
        E 4 bb 01 24
        E 4 bb 01 24
        E 4 bb 01 23
        E 4 bb 01 22
        E 4 bb 01 21
        E 4 bb 01 20
        E 4 bb 01 20
        E 4 bb 01 1f
        E 4 bb 01 1e
        E 4 bb 01 1d
        E 4 bb 01 1c
        E 4 bb 01 1c
        E 4 bb 01 1b
        E 4 bb 01 1a
        E 4 bb 01 19
        E 4 bb 01 18
        E 4 bb 01 18
        E 4 bb 01 17
        E 4 bb 01 16
        E 4 bb 01 15
        E 4 bb 01 14
        E 4 bb 01 14
        E 4 bb 01 13
        E 4 bb 01 12
        E 4 bb 01 11
        E 4 bb 01 10
        E 4 bb 01 10
        E 4 bb 01 0f
        E 4 bb 01 0e
        E 4 bb 01 0d
        E 4 bb 01 0c
        E 4 bb 01 0c
        E 4 bb 01 0b
        E 4 bb 01 0a
        E 4 bb 01 09
        E 4 bb 01 08
        E 4 bb 01 08
        E 4 bb 01 07
        E 4 bb 01 06
        E 4 bb 01 05
        E 4 bb 01 04
        E 4 bb 01 04
        E 4 bb 01 03
        E 4 bb 01 02
        E 4 bb 01 01
        E 4 bb 01 00
        E 4 bb 01 00
        E 42 bb 01 02
        E 42 bb 01 04
        E 42 bb 01 06
        E 42 bb 01 08
        E 42 bb 01 0a
        E 42 bb 01 0c
        E 42 bb 01 0e
        E 42 bb 01 10
        E 42 bb 01 12
        E 42 bb 01 14
        E 42 bb 01 16
        E 42 bb 01 18
        E 42 bb 01 1a
        E 42 bb 01 1c
        E 42 bb 01 1e
        E 42 bb 01 20
        E 42 bb 01 22
        E 42 bb 01 24
        E 42 bb 01 26
        E 42 bb 01 28
        E 42 bb 01 2a
        E 42 bb 01 2c
        E 42 bb 01 2e
        E 42 bb 01 30
        E 42 bb 01 32
        E 42 bb 01 34
        E 42 bb 01 36
        E 42 bb 01 38
        E 42 bb 01 3a
        E 42 bb 01 3c
        E 42 bb 01 3e
        E 42 bb 01 40
        E 42 bb 01 42
        E 42 bb 01 44
        E 42 bb 01 46
        E 42 bb 01 48
        E 42 bb 01 4a
        E 42 bb 01 4c
        E 42 bb 01 4e
        E 42 bb 01 50
        E 42 bb 01 52
        E 42 bb 01 54
        E 42 bb 01 56
        E 42 bb 01 58
        E 42 bb 01 5a
        E 42 bb 01 5c
        E 42 bb 01 5e
        E 42 bb 01 60
        E 42 bb 01 62
        E 42 bb 01 64
        E 42 bb 01 66
        E 42 bb 01 68
        E 42 bb 01 6a
        E 42 bb 01 6c
        E 42 bb 01 6e
        E 42 bb 01 70
        E 42 bb 01 72
        E 42 bb 01 74
        E 42 bb 01 76
        E 42 bb 01 78
        E 42 bb 01 7a
        E 42 bb 01 7c
        E 42 bb 01 7e
        E 42 bb 01 7f
        E 42 bb 01 7e
        E 42 bb 01 7c
        E 42 bb 01 7a
        E 42 bb 01 78
        E 42 bb 01 76
        E 42 bb 01 74
        E 42 bb 01 72
        E 42 bb 01 70
        E 42 bb 01 6e
        E 42 bb 01 6c
        E 42 bb 01 6a
        E 42 bb 01 68
        E 42 bb 01 66
        E 42 bb 01 64
        E 42 bb 01 62
        E 42 bb 01 60
        E 42 bb 01 5e
        E 42 bb 01 5c
        E 42 bb 01 5a
        E 42 bb 01 58
        E 42 bb 01 56
        E 42 bb 01 54
        E 42 bb 01 52
        E 42 bb 01 50
        E 42 bb 01 4e
        E 42 bb 01 4c
        E 42 bb 01 4a
        E 42 bb 01 48
        E 42 bb 01 46
        E 42 bb 01 44
        E 42 bb 01 42
        E 42 bb 01 40
        E 42 bb 01 3e
        E 42 bb 01 3c
        E 42 bb 01 3a
        E 42 bb 01 38
        E 42 bb 01 36
        E 42 bb 01 34
        E 42 bb 01 32
        E 42 bb 01 30
        E 42 bb 01 2e
        E 42 bb 01 2c
        E 42 bb 01 2a
        E 42 bb 01 28
        E 42 bb 01 26
        E 42 bb 01 24
        E 42 bb 01 22
        E 42 bb 01 20
        E 42 bb 01 1e
        E 42 bb 01 1c
        E 42 bb 01 1a
        E 42 bb 01 18
        E 42 bb 01 16
        E 42 bb 01 14
        E 42 bb 01 12
        E 42 bb 01 10
        E 42 bb 01 0e
        E 42 bb 01 0c
        E 42 bb 01 0a
        E 42 bb 01 08
        E 42 bb 01 06
        E 42 bb 01 04
        E 42 bb 01 02
        E 42 bb 01 00
        E 9 bb 01 01
        E 9 bb 01 03
        E 9 bb 01 05
        E 9 bb 01 07
        E 9 bb 01 09
        E 9 bb 01 0a
        E 9 bb 01 0c
        E 9 bb 01 0e
        E 9 bb 01 10
        E 9 bb 01 12
        E 9 bb 01 13
        E 9 bb 01 15
        E 9 bb 01 17
        E 9 bb 01 19
        E 9 bb 01 1b
        E 9 bb 01 1c
        E 9 bb 01 1e
        E 9 bb 01 20
        E 9 bb 01 22
        E 9 bb 01 24
        E 9 bb 01 25
        E 9 bb 01 27
        E 9 bb 01 29
        E 9 bb 01 2b
        E 9 bb 01 2d
        E 9 bb 01 2e
        E 9 bb 01 30
        E 9 bb 01 32
        E 9 bb 01 34
        E 9 bb 01 36
        E 9 bb 01 37
        E 9 bb 01 39
        E 9 bb 01 3b
        E 9 bb 01 3d
        E 9 bb 01 3f
        E 9 bb 01 40
        E 9 bb 01 42
        E 9 bb 01 44
        E 9 bb 01 46
        E 9 bb 01 48
        E 9 bb 01 49
        E 9 bb 01 4b
        E 9 bb 01 4d
        E 9 bb 01 4f
        E 9 bb 01 51
        E 9 bb 01 52
        E 9 bb 01 54
        E 9 bb 01 56
        E 9 bb 01 58
        E 9 bb 01 5a
        E 9 bb 01 5b
        E 9 bb 01 5d
        E 9 bb 01 5f
        E 9 bb 01 61
        E 9 bb 01 63
        E 9 bb 01 64
        E 9 bb 01 66
        E 9 bb 01 68
        E 9 bb 01 6a
        E 9 bb 01 6c
        E 9 bb 01 6d
        E 9 bb 01 6f
        E 9 bb 01 71
        E 9 bb 01 72
        E 9 bb 01 71
        E 9 bb 01 6f
        E 9 bb 01 6d
        E 9 bb 01 6c
        E 9 bb 01 6a
        E 9 bb 01 68
        E 9 bb 01 66
        E 9 bb 01 64
        E 9 bb 01 63
        E 9 bb 01 61
        E 9 bb 01 5f
        E 9 bb 01 5d
        E 9 bb 01 5b
        E 9 bb 01 5a
        E 9 bb 01 58
        E 9 bb 01 56
        E 9 bb 01 54
        E 9 bb 01 52
        E 9 bb 01 51
        E 9 bb 01 4f
        E 9 bb 01 4d
        E 9 bb 01 4b
        E 9 bb 01 49
        E 9 bb 01 48
        E 9 bb 01 46
        E 9 bb 01 44
        E 9 bb 01 42
        E 9 bb 01 40
        E 9 bb 01 3f
        E 9 bb 01 3d
        E 9 bb 01 3b
        E 9 bb 01 39
        E 9 bb 01 37
        E 9 bb 01 36
        E 9 bb 01 34
        E 9 bb 01 32
        E 9 bb 01 30
        E 9 bb 01 2e
        E 9 bb 01 2d
        E 9 bb 01 2b
        E 9 bb 01 29
        E 9 bb 01 27
        E 9 bb 01 25
        E 9 bb 01 24
        E 9 bb 01 22
        E 9 bb 01 20
        E 9 bb 01 1e
        E 9 bb 01 1c
        E 9 bb 01 1b
        E 9 bb 01 19
        E 9 bb 01 17
        E 9 bb 01 15
        E 9 bb 01 13
        E 9 bb 01 12
        E 9 bb 01 10
        E 9 bb 01 0e
        E 9 bb 01 0c
        E 9 bb 01 0a
        E 9 bb 01 09
        E 9 bb 01 07
        E 9 bb 01 05
        E 9 bb 01 03
        E 9 bb 01 01
        E 9 bb 01 00
        E 4 bb 01 01
        E 4 bb 01 02
        E 4 bb 01 03
        E 4 bb 01 04
        E 4 bb 01 06
        E 4 bb 01 07
        E 4 bb 01 08
        E 4 bb 01 09
        E 4 bb 01 0a
        E 4 bb 01 0c
        E 4 bb 01 0d
        E 4 bb 01 0e
        E 4 bb 01 0f
        E 4 bb 01 10
        E 4 bb 01 12
        E 4 bb 01 13
        E 4 bb 01 14
        E 4 bb 01 15
        E 4 bb 01 16
        E 4 bb 01 18
        E 4 bb 01 19
        E 4 bb 01 1a
        E 4 bb 01 1b
        E 4 bb 01 1c
        E 4 bb 01 1e
        E 4 bb 01 1f
        E 4 bb 01 20
        E 4 bb 01 21
        E 4 bb 01 22
        E 4 bb 01 24
        E 4 bb 01 25
        E 4 bb 01 26
        E 4 bb 01 27
        E 4 bb 01 28
        E 4 bb 01 2a
        E 4 bb 01 2b
        E 4 bb 01 2c
        E 4 bb 01 2d
        E 4 bb 01 2e
        E 4 bb 01 30
        E 4 bb 01 31
        E 4 bb 01 32
        E 4 bb 01 33
        E 4 bb 01 34
        E 4 bb 01 36
        E 4 bb 01 37
        E 4 bb 01 38
        E 4 bb 01 39
        E 4 bb 01 3a
        E 4 bb 01 3c
        E 4 bb 01 3d
        E 4 bb 01 3e
        E 4 bb 01 3f
        E 4 bb 01 40
        E 4 bb 01 42
        E 4 bb 01 43
        E 4 bb 01 44
        E 4 bb 01 45
        E 4 bb 01 46
        E 4 bb 01 48
        E 4 bb 01 49
        E 4 bb 01 4a
        E 4 bb 01 4b
        E 4 bb 01 4c
        E 4 bb 01 4b
        E 4 bb 01 4a
        E 4 bb 01 49
        E 4 bb 01 48
        E 4 bb 01 46
        E 4 bb 01 45
        E 4 bb 01 44
        E 4 bb 01 43
        E 4 bb 01 42
        E 4 bb 01 40
        E 4 bb 01 3f
        E 4 bb 01 3e
        E 4 bb 01 3d
        E 4 bb 01 3c
        E 4 bb 01 3a
        E 4 bb 01 39
        E 4 bb 01 38
        E 4 bb 01 37
        E 4 bb 01 36
        E 4 bb 01 34
        E 4 bb 01 33
        E 4 bb 01 32
        E 4 bb 01 31
        E 4 bb 01 30
        E 4 bb 01 2e
        E 4 bb 01 2d
        E 4 bb 01 2c
        E 4 bb 01 2b
        E 4 bb 01 2a
        E 4 bb 01 28
        E 4 bb 01 27
        E 4 bb 01 26
        E 4 bb 01 25
        E 4 bb 01 24
        E 4 bb 01 22
        E 4 bb 01 21
        E 4 bb 01 20
        E 4 bb 01 1f
        E 4 bb 01 1e
        E 4 bb 01 1c
        E 4 bb 01 1b
        E 4 bb 01 1a
        E 4 bb 01 19
        E 4 bb 01 18
        E 4 bb 01 16
        E 4 bb 01 15
        E 4 bb 01 14
        E 4 bb 01 13
        E 4 bb 01 12
        E 4 bb 01 10
        E 4 bb 01 0f
        E 4 bb 01 0e
        E 4 bb 01 0d
        E 4 bb 01 0c
        E 4 bb 01 0a
        E 4 bb 01 09
        E 4 bb 01 08
        E 4 bb 01 07
        E 4 bb 01 06
        E 4 bb 01 04
        E 4 bb 01 03
        E 4 bb 01 02
        E 4 bb 01 01
        E 4 bb 01 00
        E 23 bb 01 00
        E 23 bb 01 00
        E 23 bb 01 01
        E 23 bb 01 01
        E 23 bb 01 02
        E 23 bb 01 02
        E 23 bb 01 02
        E 23 bb 01 03
        E 23 bb 01 03
        E 23 bb 01 04
        E 23 bb 01 04
        E 23 bb 01 04
        E 23 bb 01 05
        E 23 bb 01 05
        E 23 bb 01 06
        E 23 bb 01 06
        E 23 bb 01 06
        E 23 bb 01 07
        E 23 bb 01 07
        E 23 bb 01 08
        E 23 bb 01 08
        E 23 bb 01 08
        E 23 bb 01 09
        E 23 bb 01 09
        E 23 bb 01 0a
        E 23 bb 01 0a
        E 23 bb 01 0a
        E 23 bb 01 0b
        E 23 bb 01 0b
        E 23 bb 01 0c
        E 23 bb 01 0c
        E 23 bb 01 0c
        E 23 bb 01 0d
        E 23 bb 01 0d
        E 23 bb 01 0e
        E 23 bb 01 0e
        E 23 bb 01 0e
        E 23 bb 01 0f
        E 23 bb 01 0f
        E 23 bb 01 10
        E 23 bb 01 10
        E 23 bb 01 10
        E 23 bb 01 11
        E 23 bb 01 11
        E 23 bb 01 12
        E 23 bb 01 12
        E 23 bb 01 12
        E 23 bb 01 13
        E 23 bb 01 13
        E 23 bb 01 14
        E 23 bb 01 14
        E 23 bb 01 14
        E 23 bb 01 15
        E 23 bb 01 15
        E 23 bb 01 16
        E 23 bb 01 16
        E 23 bb 01 16
        E 23 bb 01 17
        E 23 bb 01 17
        E 23 bb 01 18
        E 23 bb 01 18
        E 23 bb 01 18
        E 23 bb 01 19
        E 23 bb 01 19
        E 23 bb 01 19
        E 23 bb 01 18
        E 23 bb 01 18
        E 23 bb 01 18
        E 23 bb 01 17
        E 23 bb 01 17
        E 23 bb 01 16
        E 23 bb 01 16
        E 23 bb 01 16
        E 23 bb 01 15
        E 23 bb 01 15
        E 23 bb 01 14
        E 23 bb 01 14
        E 23 bb 01 14
        E 23 bb 01 13
        E 23 bb 01 13
        E 23 bb 01 12
        E 23 bb 01 12
        E 23 bb 01 12
        E 23 bb 01 11
        E 23 bb 01 11
        E 23 bb 01 10
        E 23 bb 01 10
        E 23 bb 01 10
        E 23 bb 01 0f
        E 23 bb 01 0f
        E 23 bb 01 0e
        E 23 bb 01 0e
        E 23 bb 01 0e
        E 23 bb 01 0d
        E 23 bb 01 0d
        E 23 bb 01 0c
        E 23 bb 01 0c
        E 23 bb 01 0c
        E 23 bb 01 0b
        E 23 bb 01 0b
        E 23 bb 01 0a
        E 23 bb 01 0a
        E 23 bb 01 0a
        E 23 bb 01 09
        E 23 bb 01 09
        E 23 bb 01 08
        E 23 bb 01 08
        E 23 bb 01 08
        E 23 bb 01 07
        E 23 bb 01 07
        E 23 bb 01 06
        E 23 bb 01 06
        E 23 bb 01 06
        E 23 bb 01 05
        E 23 bb 01 05
        E 23 bb 01 04
        E 23 bb 01 04
        E 23 bb 01 04
        E 23 bb 01 03
        E 23 bb 01 03
        E 23 bb 01 02
        E 23 bb 01 02
        E 23 bb 01 02
        E 23 bb 01 01
        E 23 bb 01 01
        E 23 bb 01 00
        E 23 bb 01 00
        E 23 bb 01 00
        E 18 bb 01 01
        E 18 bb 01 02
        E 18 bb 01 04
        E 18 bb 01 05
        E 18 bb 01 07
        E 18 bb 01 08
        E 18 bb 01 09
        E 18 bb 01 0b
        E 18 bb 01 0c
        E 18 bb 01 0e
        E 18 bb 01 0f
        E 18 bb 01 10
        E 18 bb 01 12
        E 18 bb 01 13
        E 18 bb 01 15
        E 18 bb 01 16
        E 18 bb 01 17
        E 18 bb 01 19
        E 18 bb 01 1a
        E 18 bb 01 1c
        E 18 bb 01 1d
        E 18 bb 01 1e
        E 18 bb 01 20
        E 18 bb 01 21
        E 18 bb 01 23
        E 18 bb 01 24
        E 18 bb 01 25
        E 18 bb 01 27
        E 18 bb 01 28
        E 18 bb 01 2a
        E 18 bb 01 2b
        E 18 bb 01 2c
        E 18 bb 01 2e
        E 18 bb 01 2f
        E 18 bb 01 31
        E 18 bb 01 32
        E 18 bb 01 33
        E 18 bb 01 35
        E 18 bb 01 36
        E 18 bb 01 38
        E 18 bb 01 39
        E 18 bb 01 3a
        E 18 bb 01 3c
        E 18 bb 01 3d
        E 18 bb 01 3e
        E 18 bb 01 40
        E 18 bb 01 41
        E 18 bb 01 43
        E 18 bb 01 44
        E 18 bb 01 46
        E 18 bb 01 47
        E 18 bb 01 48
        E 18 bb 01 4a
        E 18 bb 01 4b
        E 18 bb 01 4d
        E 18 bb 01 4e
        E 18 bb 01 4f
        E 18 bb 01 51
        E 18 bb 01 52
        E 18 bb 01 54
        E 18 bb 01 55
        E 18 bb 01 56
        E 18 bb 01 58
        E 18 bb 01 58
        E 18 bb 01 58
        E 18 bb 01 56
        E 18 bb 01 55
        E 18 bb 01 54
        E 18 bb 01 52
        E 18 bb 01 51
        E 18 bb 01 4f
        E 18 bb 01 4e
        E 18 bb 01 4d
        E 18 bb 01 4b
        E 18 bb 01 4a
        E 18 bb 01 48
        E 18 bb 01 47
        E 18 bb 01 46
        E 18 bb 01 44
        E 18 bb 01 43
        E 18 bb 01 41
        E 18 bb 01 40
        E 18 bb 01 3e
        E 18 bb 01 3d
        E 18 bb 01 3c
        E 18 bb 01 3a
        E 18 bb 01 39
        E 18 bb 01 38
        E 18 bb 01 36
        E 18 bb 01 35
        E 18 bb 01 33
        E 18 bb 01 32
        E 18 bb 01 31
        E 18 bb 01 2f
        E 18 bb 01 2e
        E 18 bb 01 2c
        E 18 bb 01 2b
        E 18 bb 01 2a
        E 18 bb 01 28
        E 18 bb 01 27
        E 18 bb 01 25
        E 18 bb 01 24
        E 18 bb 01 23
        E 18 bb 01 21
        E 18 bb 01 20
        E 18 bb 01 1e
        E 18 bb 01 1d
        E 18 bb 01 1c
        E 18 bb 01 1a
        E 18 bb 01 19
        E 18 bb 01 17
        E 18 bb 01 16
        E 18 bb 01 15
        E 18 bb 01 13
        E 18 bb 01 12
        E 18 bb 01 10
        E 18 bb 01 0f
        E 18 bb 01 0e
        E 18 bb 01 0c
        E 18 bb 01 0b
        E 18 bb 01 09
        E 18 bb 01 08
        E 18 bb 01 07
        E 18 bb 01 05
        E 18 bb 01 04
        E 18 bb 01 02
        E 18 bb 01 01
        E 18 bb 01 00
        E 4 bb 01 00
        E 4 bb 01 01
        E 4 bb 01 02
        E 4 bb 01 03
        E 4 bb 01 04
        E 4 bb 01 04
        E 4 bb 01 05
        E 4 bb 01 06
        E 4 bb 01 07
        E 4 bb 01 08
        E 4 bb 01 08
        E 4 bb 01 09
        E 4 bb 01 0a
        E 4 bb 01 0b
        E 4 bb 01 0c
        E 4 bb 01 0c
        E 4 bb 01 0d
        E 4 bb 01 0e
        E 4 bb 01 0f
        E 4 bb 01 10
        E 4 bb 01 10
        E 4 bb 01 11
        E 4 bb 01 12
        E 4 bb 01 13
        E 4 bb 01 14
        E 4 bb 01 14
        E 4 bb 01 15
        E 4 bb 01 16
        E 4 bb 01 17
        E 4 bb 01 18
        E 4 bb 01 18
        E 4 bb 01 19
        E 4 bb 01 1a
        E 4 bb 01 1b
        E 4 bb 01 1c
        E 4 bb 01 1c
        E 4 bb 01 1d
        E 4 bb 01 1e
        E 4 bb 01 1f
        E 4 bb 01 20
        E 4 bb 01 20
        E 4 bb 01 21
        E 4 bb 01 22
        E 4 bb 01 23
        E 4 bb 01 24
        E 4 bb 01 24
        E 4 bb 01 25
        E 4 bb 01 26
        E 4 bb 01 27
        E 4 bb 01 28
        E 4 bb 01 28
        E 4 bb 01 29
        E 4 bb 01 2a
        E 4 bb 01 2b
        E 4 bb 01 2c
        E 4 bb 01 2c
        E 4 bb 01 2d
        E 4 bb 01 2e
        E 4 bb 01 2f
        E 4 bb 01 30
        E 4 bb 01 30
        E 4 bb 01 31
        E 4 bb 01 32
        E 4 bb 01 32
        E 4 bb 01 32
        E 4 bb 01 31
        E 4 bb 01 30
        E 4 bb 01 30
        E 4 bb 01 2f
        E 4 bb 01 2e
        E 4 bb 01 2d
        E 4 bb 01 2c
        E 4 bb 01 2c
        E 4 bb 01 2b
        E 4 bb 01 2a
        E 4 bb 01 29
        E 4 bb 01 28
        E 4 bb 01 28
        E 4 bb 01 27
        E 4 bb 01 26
        E 4 bb 01 25
        E 4 bb 01 24
        E 4 bb 01 24
        E 4 bb 01 23
        E 4 bb 01 22
        E 4 bb 01 21
        E 4 bb 01 20
        E 4 bb 01 20
        E 4 bb 01 1f
        E 4 bb 01 1e
        E 4 bb 01 1d
        E 4 bb 01 1c
        E 4 bb 01 1c
        E 4 bb 01 1b
        E 4 bb 01 1a
        E 4 bb 01 19
        E 4 bb 01 18
        E 4 bb 01 18
        E 4 bb 01 17
        E 4 bb 01 16
        E 4 bb 01 15
        E 4 bb 01 14
        E 4 bb 01 14
        E 4 bb 01 13
        E 4 bb 01 12
        E 4 bb 01 11
        E 4 bb 01 10
        E 4 bb 01 10
        E 4 bb 01 0f
        E 4 bb 01 0e
        E 4 bb 01 0d
        E 4 bb 01 0c
        E 4 bb 01 0c
        E 4 bb 01 0b
        E 4 bb 01 0a
        E 4 bb 01 09
        E 4 bb 01 08
        E 4 bb 01 08
        E 4 bb 01 07
        E 4 bb 01 06
        E 4 bb 01 05
        E 4 bb 01 04
        E 4 bb 01 04
        E 4 bb 01 03
        E 4 bb 01 02
        E 4 bb 01 01
        E 4 bb 01 00
        E 4 bb 01 00
        E 42 bb 01 02
        E 42 bb 01 04
        E 42 bb 01 06
        E 42 bb 01 08
        E 42 bb 01 0a
        E 42 bb 01 0c
        E 42 bb 01 0e
        E 42 bb 01 10
        E 42 bb 01 12
        E 42 bb 01 14
        E 42 bb 01 16
        E 42 bb 01 18
        E 42 bb 01 1a
        E 42 bb 01 1c
        E 42 bb 01 1e
        E 42 bb 01 20
        E 42 bb 01 22
        E 42 bb 01 24
        E 42 bb 01 26
        E 42 bb 01 28
        E 42 bb 01 2a
        E 42 bb 01 2c
        E 42 bb 01 2e
        E 42 bb 01 30
        E 42 bb 01 32
        E 42 bb 01 34
        E 42 bb 01 36
        E 42 bb 01 38
        E 42 bb 01 3a
        E 42 bb 01 3c
        E 42 bb 01 3e
        E 42 bb 01 40
        E 42 bb 01 42
        E 42 bb 01 44
        E 42 bb 01 46
        E 42 bb 01 48
        E 42 bb 01 4a
        E 42 bb 01 4c
        E 42 bb 01 4e
        E 42 bb 01 50
        E 42 bb 01 52
        E 42 bb 01 54
        E 42 bb 01 56
        E 42 bb 01 58
        E 42 bb 01 5a
        E 42 bb 01 5c
        E 42 bb 01 5e
        E 42 bb 01 60
        E 42 bb 01 62
        E 42 bb 01 64
        E 42 bb 01 66
        E 42 bb 01 68
        E 42 bb 01 6a
        E 42 bb 01 6c
        E 42 bb 01 6e
        E 42 bb 01 70
        E 42 bb 01 72
        E 42 bb 01 74
        E 42 bb 01 76
        E 42 bb 01 78
        E 42 bb 01 7a
        E 42 bb 01 7c
        E 42 bb 01 7e
        E 42 bb 01 7f
        E 42 bb 01 7e
        E 42 bb 01 7c
        E 42 bb 01 7a
        E 42 bb 01 78
        E 42 bb 01 76
        E 42 bb 01 74
        E 42 bb 01 72
        E 42 bb 01 70
        E 42 bb 01 6e
        E 42 bb 01 6c
        E 42 bb 01 6a
        E 42 bb 01 68
        E 42 bb 01 66
        E 42 bb 01 64
        E 42 bb 01 62
        E 42 bb 01 60
        E 42 bb 01 5e
        E 42 bb 01 5c
        E 42 bb 01 5a
        E 42 bb 01 58
        E 42 bb 01 56
        E 42 bb 01 54
        E 42 bb 01 52
        E 42 bb 01 50
        E 42 bb 01 4e
        E 42 bb 01 4c
        E 42 bb 01 4a
        E 42 bb 01 48
        E 42 bb 01 46
        E 42 bb 01 44
        E 42 bb 01 42
        E 42 bb 01 40
        E 42 bb 01 3e
        E 42 bb 01 3c
        E 42 bb 01 3a
        E 42 bb 01 38
        E 42 bb 01 36
        E 42 bb 01 34
        E 42 bb 01 32
        E 42 bb 01 30
        E 42 bb 01 2e
        E 42 bb 01 2c
        E 42 bb 01 2a
        E 42 bb 01 28
        E 42 bb 01 26
        E 42 bb 01 24
        E 42 bb 01 22
        E 42 bb 01 20
        E 42 bb 01 1e
        E 42 bb 01 1c
        E 42 bb 01 1a
        E 42 bb 01 18
        E 42 bb 01 16
        E 42 bb 01 14
        E 42 bb 01 12
        E 42 bb 01 10
        E 42 bb 01 0e
        E 42 bb 01 0c
        E 42 bb 01 0a
        E 42 bb 01 08
        E 42 bb 01 06
        E 42 bb 01 04
        E 42 bb 01 02
        E 42 bb 01 00
        E 9 bb 01 01
        E 9 bb 01 03
        E 9 bb 01 05
        E 9 bb 01 07
        E 9 bb 01 09
        E 9 bb 01 0a
        E 9 bb 01 0c
        E 9 bb 01 0e
        E 9 bb 01 10
        E 9 bb 01 12
        E 9 bb 01 13
        E 9 bb 01 15
        E 9 bb 01 17
        E 9 bb 01 19
        E 9 bb 01 1b
        E 9 bb 01 1c
        E 9 bb 01 1e
        E 9 bb 01 20
        E 9 bb 01 22
        E 9 bb 01 24
        E 9 bb 01 25
        E 9 bb 01 27
        E 9 bb 01 29
        E 9 bb 01 2b
        E 9 bb 01 2d
        E 9 bb 01 2e
        E 9 bb 01 30
        E 9 bb 01 32
        E 9 bb 01 34
        E 9 bb 01 36
        E 9 bb 01 37
        E 9 bb 01 39
        E 9 bb 01 3b
        E 9 bb 01 3d
        E 9 bb 01 3f
        E 9 bb 01 40
        E 9 bb 01 42
        E 9 bb 01 44
        E 9 bb 01 46
        E 9 bb 01 48
        E 9 bb 01 49
        E 9 bb 01 4b
        E 9 bb 01 4d
        E 9 bb 01 4f
        E 9 bb 01 51
        E 9 bb 01 52
        E 9 bb 01 54
        E 9 bb 01 56
        E 9 bb 01 58
        E 9 bb 01 5a
        E 9 bb 01 5b
        E 9 bb 01 5d
        E 9 bb 01 5f
        E 9 bb 01 61
        E 9 bb 01 63
        E 9 bb 01 64
        E 9 bb 01 66
        E 9 bb 01 68
        E 9 bb 01 6a
        E 9 bb 01 6c
        E 9 bb 01 6d
        E 9 bb 01 6f
        E 9 bb 01 71
        E 9 bb 01 72
        E 9 bb 01 71
        E 9 bb 01 6f
        E 9 bb 01 6d
        E 9 bb 01 6c
        E 9 bb 01 6a
        E 9 bb 01 68
        E 9 bb 01 66
        E 9 bb 01 64
        E 9 bb 01 63
        E 9 bb 01 61
        E 9 bb 01 5f
        E 9 bb 01 5d
        E 9 bb 01 5b
        E 9 bb 01 5a
        E 9 bb 01 58
        E 9 bb 01 56
        E 9 bb 01 54
        E 9 bb 01 52
        E 9 bb 01 51
        E 9 bb 01 4f
        E 9 bb 01 4d
        E 9 bb 01 4b
        E 9 bb 01 49
        E 9 bb 01 48
        E 9 bb 01 46
        E 9 bb 01 44
        E 9 bb 01 42
        E 9 bb 01 40
        E 9 bb 01 3f
        E 9 bb 01 3d
        E 9 bb 01 3b
        E 9 bb 01 39
        E 9 bb 01 37
        E 9 bb 01 36
        E 9 bb 01 34
        E 9 bb 01 32
        E 9 bb 01 30
        E 9 bb 01 2e
        E 9 bb 01 2d
        E 9 bb 01 2b
        E 9 bb 01 29
        E 9 bb 01 27
        E 9 bb 01 25
        E 9 bb 01 24
        E 9 bb 01 22
        E 9 bb 01 20
        E 9 bb 01 1e
        E 9 bb 01 1c
        E 9 bb 01 1b
        E 9 bb 01 19
        E 9 bb 01 17
        E 9 bb 01 15
        E 9 bb 01 13
        E 9 bb 01 12
        E 9 bb 01 10
        E 9 bb 01 0e
        E 9 bb 01 0c
        E 9 bb 01 0a
        E 9 bb 01 09
        E 9 bb 01 07
        E 9 bb 01 05
        E 9 bb 01 03
        E 9 bb 01 01
        E 9 bb 01 00
        E 4 bb 01 01
        E 4 bb 01 02
        E 4 bb 01 03
        E 4 bb 01 04
        E 4 bb 01 06
        E 4 bb 01 07
        E 4 bb 01 08
        E 4 bb 01 09
        E 4 bb 01 0a
        E 4 bb 01 0c
        E 4 bb 01 0d
        E 4 bb 01 0e
        E 4 bb 01 0f
        E 4 bb 01 10
        E 4 bb 01 12
        E 4 bb 01 13
        E 4 bb 01 14
        E 4 bb 01 15
        E 4 bb 01 16
        E 4 bb 01 18
        E 4 bb 01 19
        E 4 bb 01 1a
        E 4 bb 01 1b
        E 4 bb 01 1c
        E 4 bb 01 1e
        E 4 bb 01 1f
        E 4 bb 01 20
        E 4 bb 01 21
        E 4 bb 01 22
        E 4 bb 01 24
        E 4 bb 01 25
        E 4 bb 01 26
        E 4 bb 01 27
        E 4 bb 01 28
        E 4 bb 01 2a
        E 4 bb 01 2b
        E 4 bb 01 2c
        E 4 bb 01 2d
        E 4 bb 01 2e
        E 4 bb 01 30
        E 4 bb 01 31
        E 4 bb 01 32
        E 4 bb 01 33
        E 4 bb 01 34
        E 4 bb 01 36
        E 4 bb 01 37
        E 4 bb 01 38
        E 4 bb 01 39
        E 4 bb 01 3a
        E 4 bb 01 3c
        E 4 bb 01 3d
        E 4 bb 01 3e
        E 4 bb 01 3f
        E 4 bb 01 40
        E 4 bb 01 42
        E 4 bb 01 43
        E 4 bb 01 44
        E 4 bb 01 45
        E 4 bb 01 46
        E 4 bb 01 48
        E 4 bb 01 49
        E 4 bb 01 4a
        E 4 bb 01 4b
        E 4 bb 01 4c
        E 4 bb 01 4b
        E 4 bb 01 4a
        E 4 bb 01 49
        E 4 bb 01 48
        E 4 bb 01 46
        E 4 bb 01 45
        E 4 bb 01 44
        E 4 bb 01 43
        E 4 bb 01 42
        E 4 bb 01 40
        E 4 bb 01 3f
        E 4 bb 01 3e
        E 4 bb 01 3d
        E 4 bb 01 3c
        E 4 bb 01 3a
        E 4 bb 01 39
        E 4 bb 01 38
        E 4 bb 01 37
        E 4 bb 01 36
        E 4 bb 01 34
        E 4 bb 01 33
        E 4 bb 01 32
        E 4 bb 01 31
        E 4 bb 01 30
        E 4 bb 01 2e
        E 4 bb 01 2d
        E 4 bb 01 2c
        E 4 bb 01 2b
        E 4 bb 01 2a
        E 4 bb 01 28
        E 4 bb 01 27
        E 4 bb 01 26
        E 4 bb 01 25
        E 4 bb 01 24
        E 4 bb 01 22
        E 4 bb 01 21
        E 4 bb 01 20
        E 4 bb 01 1f
        E 4 bb 01 1e
        E 4 bb 01 1c
        E 4 bb 01 1b
        E 4 bb 01 1a
        E 4 bb 01 19
        E 4 bb 01 18
        E 4 bb 01 16
        E 4 bb 01 15
        E 4 bb 01 14
        E 4 bb 01 13
        E 4 bb 01 12
        E 4 bb 01 10
        E 4 bb 01 0f
        E 4 bb 01 0e
        E 4 bb 01 0d
        E 4 bb 01 0c
        E 4 bb 01 0a
        E 4 bb 01 09
        E 4 bb 01 08
        E 4 bb 01 07
        E 4 bb 01 06
        E 4 bb 01 04
        E 4 bb 01 03
        E 4 bb 01 02
        E 4 bb 01 01
        E 4 bb 01 00
        E 4 bb 01 00
        E 4 bb 01 01
        E 4 bb 01 02
        E 4 bb 01 03
        E 4 bb 01 04
        E 4 bb 01 04
        E 4 bb 01 05
        E 4 bb 01 06
        E 4 bb 01 07
        E 4 bb 01 08
        E 4 bb 01 08
        E 4 bb 01 09
        E 4 bb 01 0a
        E 4 bb 01 0b
        E 4 bb 01 0c
        E 4 bb 01 0c
        E 4 bb 01 0d
        E 4 bb 01 0e
        E 4 bb 01 0f
        E 4 bb 01 10
        E 4 bb 01 10
        E 4 bb 01 11
        E 4 bb 01 12
        E 4 bb 01 13
        E 4 bb 01 14
        E 4 bb 01 14
        E 4 bb 01 15
        E 4 bb 01 16
        E 4 bb 01 17
        E 4 bb 01 18
        E 4 bb 01 18
        E 4 bb 01 19
        E 4 bb 01 1a
        E 4 bb 01 1b
        E 4 bb 01 1c
        E 4 bb 01 1c
        E 4 bb 01 1d
        E 4 bb 01 1e
        E 4 bb 01 1f
        E 4 bb 01 20
        E 4 bb 01 20
        E 4 bb 01 21
        E 4 bb 01 22
        E 4 bb 01 23
        E 4 bb 01 24
        E 4 bb 01 24
        E 4 bb 01 25
        E 4 bb 01 26
        E 4 bb 01 27
        E 4 bb 01 28
        E 4 bb 01 28
        E 4 bb 01 29
        E 4 bb 01 2a
        E 4 bb 01 2b
        E 4 bb 01 2c
        E 4 bb 01 2c
        E 4 bb 01 2d
        E 4 bb 01 2e
        E 4 bb 01 2f
        E 4 bb 01 30
        E 4 bb 01 30
        E 4 bb 01 31
        E 4 bb 01 32
        E 4 bb 01 32
        E 4 bb 01 32
        E 4 bb 01 31
        E 4 bb 01 30
        E 4 bb 01 30
        E 4 bb 01 2f
        E 4 bb 01 2e
        E 4 bb 01 2d
        E 4 bb 01 2c
        E 4 bb 01 2c
        E 4 bb 01 2b
        E 4 bb 01 2a
        E 4 bb 01 29
        E 4 bb 01 28
        E 4 bb 01 28
        E 4 bb 01 27
        E 4 bb 01 26
        E 4 bb 01 25
        E 4 bb 01 24
        E 4 bb 01 24
        E 4 bb 01 23
        E 4 bb 01 22
        E 4 bb 01 21
        E 4 bb 01 20
        E 4 bb 01 20
        E 4 bb 01 1f
        E 4 bb 01 1e
        E 4 bb 01 1d
        E 4 bb 01 1c
        E 4 bb 01 1c
        E 4 bb 01 1b
        E 4 bb 01 1a
        E 4 bb 01 19
        E 4 bb 01 18
        E 4 bb 01 18
        E 4 bb 01 17
        E 4 bb 01 16
        E 4 bb 01 15
        E 4 bb 01 14
        E 4 bb 01 14
        E 4 bb 01 13
        E 4 bb 01 12
        E 4 bb 01 11
        E 4 bb 01 10
        E 4 bb 01 10
        E 4 bb 01 0f
        E 4 bb 01 0e
        E 4 bb 01 0d
        E 4 bb 01 0c
        E 4 bb 01 0c
        E 4 bb 01 0b
        E 4 bb 01 0a
        E 4 bb 01 09
        E 4 bb 01 08
        E 4 bb 01 08
        E 4 bb 01 07
        E 4 bb 01 06
        E 4 bb 01 05
        E 4 bb 01 04
        E 4 bb 01 04
        E 4 bb 01 03
        E 4 bb 01 02
        E 4 bb 01 01
        E 4 bb 01 00
        E 4 bb 01 00
        E 42 bb 01 02
        E 42 bb 01 04
        E 42 bb 01 06
        E 42 bb 01 08
        E 42 bb 01 0a
        E 42 bb 01 0c
        E 42 bb 01 0e
        E 42 bb 01 10
        E 42 bb 01 12
        E 42 bb 01 14
        E 42 bb 01 16
        E 42 bb 01 18
        E 42 bb 01 1a
        E 42 bb 01 1c
        E 42 bb 01 1e
        E 42 bb 01 20
        E 42 bb 01 22
        E 42 bb 01 24
        E 42 bb 01 26
        E 42 bb 01 28
        E 42 bb 01 2a
        E 42 bb 01 2c
        E 42 bb 01 2e
        E 42 bb 01 30
        E 42 bb 01 32
        E 42 bb 01 34
        E 42 bb 01 36
        E 42 bb 01 38
        E 42 bb 01 3a
        E 42 bb 01 3c
        E 42 bb 01 3e
        E 42 bb 01 40
        E 42 bb 01 42
        E 42 bb 01 44
        E 42 bb 01 46
        E 42 bb 01 48
        E 42 bb 01 4a
        E 42 bb 01 4c
        E 42 bb 01 4e
        E 42 bb 01 50
        E 42 bb 01 52
        E 42 bb 01 54
        E 42 bb 01 56
        E 42 bb 01 58
        E 42 bb 01 5a
        E 42 bb 01 5c
        E 42 bb 01 5e
        E 42 bb 01 60
        E 42 bb 01 62
        E 42 bb 01 64
        E 42 bb 01 66
        E 42 bb 01 68
        E 42 bb 01 6a
        E 42 bb 01 6c
        E 42 bb 01 6e
        E 42 bb 01 70
        E 42 bb 01 72
        E 42 bb 01 74
        E 42 bb 01 76
        E 42 bb 01 78
        E 42 bb 01 7a
        E 42 bb 01 7c
        E 42 bb 01 7e
        E 42 bb 01 7f
        E 42 bb 01 7e
        E 42 bb 01 7c
        E 42 bb 01 7a
        E 42 bb 01 78
        E 42 bb 01 76
        E 42 bb 01 74
        E 42 bb 01 72
        E 42 bb 01 70
        E 42 bb 01 6e
        E 42 bb 01 6c
        E 42 bb 01 6a
        E 42 bb 01 68
        E 42 bb 01 66
        E 42 bb 01 64
        E 42 bb 01 62
        E 42 bb 01 60
        E 42 bb 01 5e
        E 42 bb 01 5c
        E 42 bb 01 5a
        E 42 bb 01 58
        E 42 bb 01 56
        E 42 bb 01 54
        E 42 bb 01 52
        E 42 bb 01 50
        E 42 bb 01 4e
        E 42 bb 01 4c
        E 42 bb 01 4a
        E 42 bb 01 48
        E 42 bb 01 46
        E 42 bb 01 44
        E 42 bb 01 42
        E 42 bb 01 40
        E 42 bb 01 3e
        E 42 bb 01 3c
        E 42 bb 01 3a
        E 42 bb 01 38
        E 42 bb 01 36
        E 42 bb 01 34
        E 42 bb 01 32
        E 42 bb 01 30
        E 42 bb 01 2e
        E 42 bb 01 2c
        E 42 bb 01 2a
        E 42 bb 01 28
        E 42 bb 01 26
        E 42 bb 01 24
        E 42 bb 01 22
        E 42 bb 01 20
        E 42 bb 01 1e
        E 42 bb 01 1c
        E 42 bb 01 1a
        E 42 bb 01 18
        E 42 bb 01 16
        E 42 bb 01 14
        E 42 bb 01 12
        E 42 bb 01 10
        E 42 bb 01 0e
        E 42 bb 01 0c
        E 42 bb 01 0a
        E 42 bb 01 08
        E 42 bb 01 06
        E 42 bb 01 04
        E 42 bb 01 02
        E 42 bb 01 00
        E 9 bb 01 01
        E 9 bb 01 03
        E 9 bb 01 05
        E 9 bb 01 07
        E 9 bb 01 09
        E 9 bb 01 0a
        E 9 bb 01 0c
        E 9 bb 01 0e
        E 9 bb 01 10
        E 9 bb 01 12
        E 9 bb 01 13
        E 9 bb 01 15
        E 9 bb 01 17
        E 9 bb 01 19
        E 9 bb 01 1b
        E 9 bb 01 1c
        E 9 bb 01 1e
        E 9 bb 01 20
        E 9 bb 01 22
        E 9 bb 01 24
        E 9 bb 01 25
        E 9 bb 01 27
        E 9 bb 01 29
        E 9 bb 01 2b
        E 9 bb 01 2d
        E 9 bb 01 2e
        E 9 bb 01 30
        E 9 bb 01 32
        E 9 bb 01 34
        E 9 bb 01 36
        E 9 bb 01 37
        E 9 bb 01 39
        E 9 bb 01 3b
        E 9 bb 01 3d
        E 9 bb 01 3f
        E 9 bb 01 40
        E 9 bb 01 42
        E 9 bb 01 44
        E 9 bb 01 46
        E 9 bb 01 48
        E 9 bb 01 49
        E 9 bb 01 4b
        E 9 bb 01 4d
        E 9 bb 01 4f
        E 9 bb 01 51
        E 9 bb 01 52
        E 9 bb 01 54
        E 9 bb 01 56
        E 9 bb 01 58
        E 9 bb 01 5a
        E 9 bb 01 5b
        E 9 bb 01 5d
        E 9 bb 01 5f
        E 9 bb 01 61
        E 9 bb 01 63
        E 9 bb 01 64
        E 9 bb 01 66
        E 9 bb 01 68
        E 9 bb 01 6a
        E 9 bb 01 6c
        E 9 bb 01 6d
        E 9 bb 01 6f
        E 9 bb 01 71
        E 9 bb 01 72
        E 9 bb 01 71
        E 9 bb 01 6f
        E 9 bb 01 6d
        E 9 bb 01 6c
        E 9 bb 01 6a
        E 9 bb 01 68
        E 9 bb 01 66
        E 9 bb 01 64
        E 9 bb 01 63
        E 9 bb 01 61
        E 9 bb 01 5f
        E 9 bb 01 5d
        E 9 bb 01 5b
        E 9 bb 01 5a
        E 9 bb 01 58
        E 9 bb 01 56
        E 9 bb 01 54
        E 9 bb 01 52
        E 9 bb 01 51
        E 9 bb 01 4f
        E 9 bb 01 4d
        E 9 bb 01 4b
        E 9 bb 01 49
        E 9 bb 01 48
        E 9 bb 01 46
        E 9 bb 01 44
        E 9 bb 01 42
        E 9 bb 01 40
        E 9 bb 01 3f
        E 9 bb 01 3d
        E 9 bb 01 3b
        E 9 bb 01 39
        E 9 bb 01 37
        E 9 bb 01 36
        E 9 bb 01 34
        E 9 bb 01 32
        E 9 bb 01 30
        E 9 bb 01 2e
        E 9 bb 01 2d
        E 9 bb 01 2b
        E 9 bb 01 29
        E 9 bb 01 27
        E 9 bb 01 25
        E 9 bb 01 24
        E 9 bb 01 22
        E 9 bb 01 20
        E 9 bb 01 1e
        E 9 bb 01 1c
        E 9 bb 01 1b
        E 9 bb 01 19
        E 9 bb 01 17
        E 9 bb 01 15
        E 9 bb 01 13
        E 9 bb 01 12
        E 9 bb 01 10
        E 9 bb 01 0e
        E 9 bb 01 0c
        E 9 bb 01 0a
        E 9 bb 01 09
        E 9 bb 01 07
        E 9 bb 01 05
        E 9 bb 01 03
        E 9 bb 01 01
        E 9 bb 01 00
        E 4 bb 01 01
        E 4 bb 01 02
        E 4 bb 01 03
        E 4 bb 01 04
        E 4 bb 01 06
        E 4 bb 01 07
        E 4 bb 01 08
        E 4 bb 01 09
        E 4 bb 01 0a
        E 4 bb 01 0c
        E 4 bb 01 0d
        E 4 bb 01 0e
        E 4 bb 01 0f
        E 4 bb 01 10
        E 4 bb 01 12
        E 4 bb 01 13
        E 4 bb 01 14
        E 4 bb 01 15
        E 4 bb 01 16
        E 4 bb 01 18
        E 4 bb 01 19
        E 4 bb 01 1a
        E 4 bb 01 1b
        E 4 bb 01 1c
        E 4 bb 01 1e
        E 4 bb 01 1f
        E 4 bb 01 20
        E 4 bb 01 21
        E 4 bb 01 22
        E 4 bb 01 24
        E 4 bb 01 25
        E 4 bb 01 26
        E 4 bb 01 27
        E 4 bb 01 28
        E 4 bb 01 2a
        E 4 bb 01 2b
        E 4 bb 01 2c
        E 4 bb 01 2d
        E 4 bb 01 2e
        E 4 bb 01 30
        E 4 bb 01 31
        E 4 bb 01 32
        E 4 bb 01 33
        E 4 bb 01 34
        E 4 bb 01 36
        E 4 bb 01 37
        E 4 bb 01 38
        E 4 bb 01 39
        E 4 bb 01 3a
        E 4 bb 01 3c
        E 4 bb 01 3d
        E 4 bb 01 3e
        E 4 bb 01 3f
        E 4 bb 01 40
        E 4 bb 01 42
        E 4 bb 01 43
        E 4 bb 01 44
        E 4 bb 01 45
        E 4 bb 01 46
        E 4 bb 01 48
        E 4 bb 01 49
        E 4 bb 01 4a
        E 4 bb 01 4b
        E 4 bb 01 4c
        E 4 bb 01 4b
        E 4 bb 01 4a
        E 4 bb 01 49
        E 4 bb 01 48
        E 4 bb 01 46
        E 4 bb 01 45
        E 4 bb 01 44
        E 4 bb 01 43
        E 4 bb 01 42
        E 4 bb 01 40
        E 4 bb 01 3f
        E 4 bb 01 3e
        E 4 bb 01 3d
        E 4 bb 01 3c
        E 4 bb 01 3a
        E 4 bb 01 39
        E 4 bb 01 38
        E 4 bb 01 37
        E 4 bb 01 36
        E 4 bb 01 34
        E 4 bb 01 33
        E 4 bb 01 32
        E 4 bb 01 31
        E 4 bb 01 30
        E 4 bb 01 2e
        E 4 bb 01 2d
        E 4 bb 01 2c
        E 4 bb 01 2b
        E 4 bb 01 2a
        E 4 bb 01 28
        E 4 bb 01 27
        E 4 bb 01 26
        E 4 bb 01 25
        E 4 bb 01 24
        E 4 bb 01 22
        E 4 bb 01 21
        E 4 bb 01 20
        E 4 bb 01 1f
        E 4 bb 01 1e
        E 4 bb 01 1c
        E 4 bb 01 1b
        E 4 bb 01 1a
        E 4 bb 01 19
        E 4 bb 01 18
        E 4 bb 01 16
        E 4 bb 01 15
        E 4 bb 01 14
        E 4 bb 01 13
        E 4 bb 01 12
        E 4 bb 01 10
        E 4 bb 01 0f
        E 4 bb 01 0e
        E 4 bb 01 0d
        E 4 bb 01 0c
        E 4 bb 01 0a
        E 4 bb 01 09
        E 4 bb 01 08
        E 4 bb 01 07
        E 4 bb 01 06
        E 4 bb 01 04
        E 4 bb 01 03
        E 4 bb 01 02
        E 4 bb 01 01
        E 4 bb 01 00
        E 23 bb 01 00
        E 23 bb 01 00
        E 23 bb 01 01
        E 23 bb 01 01
        E 23 bb 01 02
        E 23 bb 01 02
        E 23 bb 01 02
        E 23 bb 01 03
        E 23 bb 01 03
        E 23 bb 01 04
        E 23 bb 01 04
        E 23 bb 01 04
        E 23 bb 01 05
        E 23 bb 01 05
        E 23 bb 01 06
        E 23 bb 01 06
        E 23 bb 01 06
        E 23 bb 01 07
        E 23 bb 01 07
        E 23 bb 01 08
        E 23 bb 01 08
        E 23 bb 01 08
        E 23 bb 01 09
        E 23 bb 01 09
        E 23 bb 01 0a
        E 23 bb 01 0a
        E 23 bb 01 0a
        E 23 bb 01 0b
        E 23 bb 01 0b
        E 23 bb 01 0c
        E 23 bb 01 0c
        E 23 bb 01 0c
        E 23 bb 01 0d
        E 23 bb 01 0d
        E 23 bb 01 0e
        E 23 bb 01 0e
        E 23 bb 01 0e
        E 23 bb 01 0f
        E 23 bb 01 0f
        E 23 bb 01 10
        E 23 bb 01 10
        E 23 bb 01 10
        E 23 bb 01 11
        E 23 bb 01 11
        E 23 bb 01 12
        E 23 bb 01 12
        E 23 bb 01 12
        E 23 bb 01 13
        E 23 bb 01 13
        E 23 bb 01 14
        E 23 bb 01 14
        E 23 bb 01 14
        E 23 bb 01 15
        E 23 bb 01 15
        E 23 bb 01 16
        E 23 bb 01 16
        E 23 bb 01 16
        E 23 bb 01 17
        E 23 bb 01 17
        E 23 bb 01 18
        E 23 bb 01 18
        E 23 bb 01 18
        E 23 bb 01 19
        E 23 bb 01 19
        E 23 bb 01 19
        E 23 bb 01 18
        E 23 bb 01 18
        E 23 bb 01 18
        E 23 bb 01 17
        E 23 bb 01 17
        E 23 bb 01 16
        E 23 bb 01 16
        E 23 bb 01 16
        E 23 bb 01 15
        E 23 bb 01 15
        E 23 bb 01 14
        E 23 bb 01 14
        E 23 bb 01 14
        E 23 bb 01 13
        E 23 bb 01 13
        E 23 bb 01 12
        E 23 bb 01 12
        E 23 bb 01 12
        E 23 bb 01 11
        E 23 bb 01 11
        E 23 bb 01 10
        E 23 bb 01 10
        E 23 bb 01 10
        E 23 bb 01 0f
        E 23 bb 01 0f
        E 23 bb 01 0e
        E 23 bb 01 0e
        E 23 bb 01 0e
        E 23 bb 01 0d
        E 23 bb 01 0d
        E 23 bb 01 0c
        E 23 bb 01 0c
        E 23 bb 01 0c
        E 23 bb 01 0b
        E 23 bb 01 0b
        E 23 bb 01 0a
        E 23 bb 01 0a
        E 23 bb 01 0a
        E 23 bb 01 09
        E 23 bb 01 09
        E 23 bb 01 08
        E 23 bb 01 08
        E 23 bb 01 08
        E 23 bb 01 07
        E 23 bb 01 07
        E 23 bb 01 06
        E 23 bb 01 06
        E 23 bb 01 06
        E 23 bb 01 05
        E 23 bb 01 05
        E 23 bb 01 04
        E 23 bb 01 04
        E 23 bb 01 04
        E 23 bb 01 03
        E 23 bb 01 03
        E 23 bb 01 02
        E 23 bb 01 02
        E 23 bb 01 02
        E 23 bb 01 01
        E 23 bb 01 01
        E 23 bb 01 00
        E 23 bb 01 00
        E 23 bb 01 00
        E 18 bb 01 01
        E 18 bb 01 02
        E 18 bb 01 04
        E 18 bb 01 05
        E 18 bb 01 07
        E 18 bb 01 08
        E 18 bb 01 09
        E 18 bb 01 0b
        E 18 bb 01 0c
        E 18 bb 01 0e
        E 18 bb 01 0f
        E 18 bb 01 10
        E 18 bb 01 12
        E 18 bb 01 13
        E 18 bb 01 15
        E 18 bb 01 16
        E 18 bb 01 17
        E 18 bb 01 19
        E 18 bb 01 1a
        E 18 bb 01 1c
        E 18 bb 01 1d
        E 18 bb 01 1e
        E 18 bb 01 20
        E 18 bb 01 21
        E 18 bb 01 23
        E 18 bb 01 24
        E 18 bb 01 25
        E 18 bb 01 27
        E 18 bb 01 28
        E 18 bb 01 2a
        E 18 bb 01 2b
        E 18 bb 01 2c
        E 18 bb 01 2e
        E 18 bb 01 2f
        E 18 bb 01 31
        E 18 bb 01 32
        E 18 bb 01 33
        E 18 bb 01 35
        E 18 bb 01 36
        E 18 bb 01 38
        E 18 bb 01 39
        E 18 bb 01 3a
        E 18 bb 01 3c
        E 18 bb 01 3d
        E 18 bb 01 3e
        E 18 bb 01 40
        E 18 bb 01 41
        E 18 bb 01 43
        E 18 bb 01 44
        E 18 bb 01 46
        E 18 bb 01 47
        E 18 bb 01 48
        E 18 bb 01 4a
        E 18 bb 01 4b
        E 18 bb 01 4d
        E 18 bb 01 4e
        E 18 bb 01 4f
        E 18 bb 01 51
        E 18 bb 01 52
        E 18 bb 01 54
        E 18 bb 01 55
        E 18 bb 01 56
        E 18 bb 01 58
        E 18 bb 01 58
        E 18 bb 01 58
        E 18 bb 01 56
        E 18 bb 01 55
        E 18 bb 01 54
        E 18 bb 01 52
        E 18 bb 01 51
        E 18 bb 01 4f
        E 18 bb 01 4e
        E 18 bb 01 4d
        E 18 bb 01 4b
        E 18 bb 01 4a
        E 18 bb 01 48
        E 18 bb 01 47
        E 18 bb 01 46
        E 18 bb 01 44
        E 18 bb 01 43
        E 18 bb 01 41
        E 18 bb 01 40
        E 18 bb 01 3e
        E 18 bb 01 3d
        E 18 bb 01 3c
        E 18 bb 01 3a
        E 18 bb 01 39
        E 18 bb 01 38
        E 18 bb 01 36
        E 18 bb 01 35
        E 18 bb 01 33
        E 18 bb 01 32
        E 18 bb 01 31
        E 18 bb 01 2f
        E 18 bb 01 2e
        E 18 bb 01 2c
        E 18 bb 01 2b
        E 18 bb 01 2a
        E 18 bb 01 28
        E 18 bb 01 27
        E 18 bb 01 25
        E 18 bb 01 24
        E 18 bb 01 23
        E 18 bb 01 21
        E 18 bb 01 20
        E 18 bb 01 1e
        E 18 bb 01 1d
        E 18 bb 01 1c
        E 18 bb 01 1a
        E 18 bb 01 19
        E 18 bb 01 17
        E 18 bb 01 16
        E 18 bb 01 15
        E 18 bb 01 13
        E 18 bb 01 12
        E 18 bb 01 10
        E 18 bb 01 0f
        E 18 bb 01 0e
        E 18 bb 01 0c
        E 18 bb 01 0b
        E 18 bb 01 09
        E 18 bb 01 08
        E 18 bb 01 07
        E 18 bb 01 05
        E 18 bb 01 04
        E 18 bb 01 02
        E 18 bb 01 01
        E 18 bb 01 00
        E 4 bb 01 00
        E 4 bb 01 01
        E 4 bb 01 02
        E 4 bb 01 03
        E 4 bb 01 04
        E 4 bb 01 04
        E 4 bb 01 05
        E 4 bb 01 06
        E 4 bb 01 07
        E 4 bb 01 08
        E 4 bb 01 08
        E 4 bb 01 09
        E 4 bb 01 0a
        E 4 bb 01 0b
        E 4 bb 01 0c
        E 4 bb 01 0c
        E 4 bb 01 0d
        E 4 bb 01 0e
        E 4 bb 01 0f
        E 4 bb 01 10
        E 4 bb 01 10
        E 4 bb 01 11
        E 4 bb 01 12
        E 4 bb 01 13
        E 4 bb 01 14
        E 4 bb 01 14
        E 4 bb 01 15
        E 4 bb 01 16
        E 4 bb 01 17
        E 4 bb 01 18
        E 4 bb 01 18
        E 4 bb 01 19
        E 4 bb 01 1a
        E 4 bb 01 1b
        E 4 bb 01 1c
        E 4 bb 01 1c
        E 4 bb 01 1d
        E 4 bb 01 1e
        E 4 bb 01 1f
        E 4 bb 01 20
        E 4 bb 01 20
        E 4 bb 01 21
        E 4 bb 01 22
        E 4 bb 01 23
        E 4 bb 01 24
        E 4 bb 01 24
        E 4 bb 01 25
        E 4 bb 01 26
        E 4 bb 01 27
        E 4 bb 01 28
        E 4 bb 01 28
        E 4 bb 01 29
        E 4 bb 01 2a
        E 4 bb 01 2b
        E 4 bb 01 2c
        E 4 bb 01 2c
        E 4 bb 01 2d
        E 4 bb 01 2e
        E 4 bb 01 2f
        E 4 bb 01 30
        E 4 bb 01 30
        E 4 bb 01 31
        E 4 bb 01 32
        E 4 bb 01 32
        E 4 bb 01 32
        E 4 bb 01 31
        E 4 bb 01 30
        E 4 bb 01 30
        E 4 bb 01 2f
        E 4 bb 01 2e
        E 4 bb 01 2d
        E 4 bb 01 2c
        E 4 bb 01 2c
        E 4 bb 01 2b
        E 4 bb 01 2a
        E 4 bb 01 29
        E 4 bb 01 28
        E 4 bb 01 28
        E 4 bb 01 27
        E 4 bb 01 26
        E 4 bb 01 25
        E 4 bb 01 24
        E 4 bb 01 24
        E 4 bb 01 23
        E 4 bb 01 22
        E 4 bb 01 21
        E 4 bb 01 20
        E 4 bb 01 20
        E 4 bb 01 1f
        E 4 bb 01 1e
        E 4 bb 01 1d
        E 4 bb 01 1c
        E 4 bb 01 1c
        E 4 bb 01 1b
        E 4 bb 01 1a
        E 4 bb 01 19
        E 4 bb 01 18
        E 4 bb 01 18
        E 4 bb 01 17
        E 4 bb 01 16
        E 4 bb 01 15
        E 4 bb 01 14
        E 4 bb 01 14
        E 4 bb 01 13
        E 4 bb 01 12
        E 4 bb 01 11
        E 4 bb 01 10
        E 4 bb 01 10
        E 4 bb 01 0f
        E 4 bb 01 0e
        E 4 bb 01 0d
        E 4 bb 01 0c
        E 4 bb 01 0c
        E 4 bb 01 0b
        E 4 bb 01 0a
        E 4 bb 01 09
        E 4 bb 01 08
        E 4 bb 01 08
        E 4 bb 01 07
        E 4 bb 01 06
        E 4 bb 01 05
        E 4 bb 01 04
        E 4 bb 01 04
        E 4 bb 01 03
        E 4 bb 01 02
        E 4 bb 01 01
        E 4 bb 01 00
        E 4 bb 01 00
        E 42 bb 01 02
        E 42 bb 01 04
        E 42 bb 01 06
        E 42 bb 01 08
        E 42 bb 01 0a
        E 42 bb 01 0c
        E 42 bb 01 0e
        E 42 bb 01 10
        E 42 bb 01 12
        E 42 bb 01 14
        E 42 bb 01 16
        E 42 bb 01 18
        E 42 bb 01 1a
        E 42 bb 01 1c
        E 42 bb 01 1e
        E 42 bb 01 20
        E 42 bb 01 22
        E 42 bb 01 24
        E 42 bb 01 26
        E 42 bb 01 28
        E 42 bb 01 2a
        E 42 bb 01 2c
        E 42 bb 01 2e
        E 42 bb 01 30
        E 42 bb 01 32
        E 42 bb 01 34
        E 42 bb 01 36
        E 42 bb 01 38
        E 42 bb 01 3a
        E 42 bb 01 3c
        E 42 bb 01 3e
        E 42 bb 01 40
        E 42 bb 01 42
        E 42 bb 01 44
        E 42 bb 01 46
        E 42 bb 01 48
        E 42 bb 01 4a
        E 42 bb 01 4c
        E 42 bb 01 4e
        E 42 bb 01 50
        E 42 bb 01 52
        E 42 bb 01 54
        E 42 bb 01 56
        E 42 bb 01 58
        E 42 bb 01 5a
        E 42 bb 01 5c
        E 42 bb 01 5e
        E 42 bb 01 60
        E 42 bb 01 62
        E 42 bb 01 64
        E 42 bb 01 66
        E 42 bb 01 68
        E 42 bb 01 6a
        E 42 bb 01 6c
        E 42 bb 01 6e
        E 42 bb 01 70
        E 42 bb 01 72
        E 42 bb 01 74
        E 42 bb 01 76
        E 42 bb 01 78
        E 42 bb 01 7a
        E 42 bb 01 7c
        E 42 bb 01 7e
        E 42 bb 01 7f
        E 42 bb 01 7e
        E 42 bb 01 7c
        E 42 bb 01 7a
        E 42 bb 01 78
        E 42 bb 01 76
        E 42 bb 01 74
        E 42 bb 01 72
        E 42 bb 01 70
        E 42 bb 01 6e
        E 42 bb 01 6c
        E 42 bb 01 6a
        E 42 bb 01 68
        E 42 bb 01 66
        E 42 bb 01 64
        E 42 bb 01 62
        E 42 bb 01 60
        E 42 bb 01 5e
        E 42 bb 01 5c
        E 42 bb 01 5a
        E 42 bb 01 58
        E 42 bb 01 56
        E 42 bb 01 54
        E 42 bb 01 52
        E 42 bb 01 50
        E 42 bb 01 4e
        E 42 bb 01 4c
        E 42 bb 01 4a
        E 42 bb 01 48
        E 42 bb 01 46
        E 42 bb 01 44
        E 42 bb 01 42
        E 42 bb 01 40
        E 42 bb 01 3e
        E 42 bb 01 3c
        E 42 bb 01 3a
        E 42 bb 01 38
        E 42 bb 01 36
        E 42 bb 01 34
        E 42 bb 01 32
        E 42 bb 01 30
        E 42 bb 01 2e
        E 42 bb 01 2c
        E 42 bb 01 2a
        E 42 bb 01 28
        E 42 bb 01 26
        E 42 bb 01 24
        E 42 bb 01 22
        E 42 bb 01 20
        E 42 bb 01 1e
        E 42 bb 01 1c
        E 42 bb 01 1a
        E 42 bb 01 18
        E 42 bb 01 16
        E 42 bb 01 14
        E 42 bb 01 12
        E 42 bb 01 10
        E 42 bb 01 0e
        E 42 bb 01 0c
        E 42 bb 01 0a
        E 42 bb 01 08
        E 42 bb 01 06
        E 42 bb 01 04
        E 42 bb 01 02
        E 42 bb 01 00
        E 9 bb 01 01
        E 9 bb 01 03
        E 9 bb 01 05
        E 9 bb 01 07
        E 9 bb 01 09
        E 9 bb 01 0a
        E 9 bb 01 0c
        E 9 bb 01 0e
        E 9 bb 01 10
        E 9 bb 01 12
        E 9 bb 01 13
        E 9 bb 01 15
        E 9 bb 01 17
        E 9 bb 01 19
        E 9 bb 01 1b
        E 9 bb 01 1c
        E 9 bb 01 1e
        E 9 bb 01 20
        E 9 bb 01 22
        E 9 bb 01 24
        E 9 bb 01 25
        E 9 bb 01 27
        E 9 bb 01 29
        E 9 bb 01 2b
        E 9 bb 01 2d
        E 9 bb 01 2e
        E 9 bb 01 30
        E 9 bb 01 32
        E 9 bb 01 34
        E 9 bb 01 36
        E 9 bb 01 37
        E 9 bb 01 39
        E 9 bb 01 3b
        E 9 bb 01 3d
        E 9 bb 01 3f
        E 9 bb 01 40
        E 9 bb 01 42
        E 9 bb 01 44
        E 9 bb 01 46
        E 9 bb 01 48
        E 9 bb 01 49
        E 9 bb 01 4b
        E 9 bb 01 4d
        E 9 bb 01 4f
        E 9 bb 01 51
        E 9 bb 01 52
        E 9 bb 01 54
        E 9 bb 01 56
        E 9 bb 01 58
        E 9 bb 01 5a
        E 9 bb 01 5b
        E 9 bb 01 5d
        E 9 bb 01 5f
        E 9 bb 01 61
        E 9 bb 01 63
        E 9 bb 01 64
        E 9 bb 01 66
        E 9 bb 01 68
        E 9 bb 01 6a
        E 9 bb 01 6c
        E 9 bb 01 6d
        E 9 bb 01 6f
        E 9 bb 01 71
        E 9 bb 01 72
        E 9 bb 01 71
        E 9 bb 01 6f
        E 9 bb 01 6d
        E 9 bb 01 6c
        E 9 bb 01 6a
        E 9 bb 01 68
        E 9 bb 01 66
        E 9 bb 01 64
        E 9 bb 01 63
        E 9 bb 01 61
        E 9 bb 01 5f
        E 9 bb 01 5d
        E 9 bb 01 5b
        E 9 bb 01 5a
        E 9 bb 01 58
        E 9 bb 01 56
        E 9 bb 01 54
        E 9 bb 01 52
        E 9 bb 01 51
        E 9 bb 01 4f
        E 9 bb 01 4d
        E 9 bb 01 4b
        E 9 bb 01 49
        E 9 bb 01 48
        E 9 bb 01 46
        E 9 bb 01 44
        E 9 bb 01 42
        E 9 bb 01 40
        E 9 bb 01 3f
        E 9 bb 01 3d
        E 9 bb 01 3b
        E 9 bb 01 39
        E 9 bb 01 37
        E 9 bb 01 36
        E 9 bb 01 34
        E 9 bb 01 32
        E 9 bb 01 30
        E 9 bb 01 2e
        E 9 bb 01 2d
        E 9 bb 01 2b
        E 9 bb 01 29
        E 9 bb 01 27
        E 9 bb 01 25
        E 9 bb 01 24
        E 9 bb 01 22
        E 9 bb 01 20
        E 9 bb 01 1e
        E 9 bb 01 1c
        E 9 bb 01 1b
        E 9 bb 01 19
        E 9 bb 01 17
        E 9 bb 01 15
        E 9 bb 01 13
        E 9 bb 01 12
        E 9 bb 01 10
        E 9 bb 01 0e
        E 9 bb 01 0c
        E 9 bb 01 0a
        E 9 bb 01 09
        E 9 bb 01 07
        E 9 bb 01 05
        E 9 bb 01 03
        E 9 bb 01 01
        E 9 bb 01 00
        E 4 bb 01 01
        E 4 bb 01 02
        E 4 bb 01 03
        E 4 bb 01 04
        E 4 bb 01 06
        E 4 bb 01 07
        E 4 bb 01 08
        E 4 bb 01 09
        E 4 bb 01 0a
        E 4 bb 01 0c
        E 4 bb 01 0d
        E 4 bb 01 0e
        E 4 bb 01 0f
        E 4 bb 01 10
        E 4 bb 01 12
        E 4 bb 01 13
        E 4 bb 01 14
        E 4 bb 01 15
        E 4 bb 01 16
        E 4 bb 01 18
        E 4 bb 01 19
        E 4 bb 01 1a
        E 4 bb 01 1b
        E 4 bb 01 1c
        E 4 bb 01 1e
        E 4 bb 01 1f
        E 4 bb 01 20
        E 4 bb 01 21
        E 4 bb 01 22
        E 4 bb 01 24
        E 4 bb 01 25
        E 4 bb 01 26
        E 4 bb 01 27
        E 4 bb 01 28
        E 4 bb 01 2a
        E 4 bb 01 2b
        E 4 bb 01 2c
        E 4 bb 01 2d
        E 4 bb 01 2e
        E 4 bb 01 30
        E 4 bb 01 31
        E 4 bb 01 32
        E 4 bb 01 33
        E 4 bb 01 34
        E 4 bb 01 36
        E 4 bb 01 37
        E 4 bb 01 38
        E 4 bb 01 39
        E 4 bb 01 3a
        E 4 bb 01 3c
        E 4 bb 01 3d
        E 4 bb 01 3e
        E 4 bb 01 3f
        E 4 bb 01 40
        E 4 bb 01 42
        E 4 bb 01 43
        E 4 bb 01 44
        E 4 bb 01 45
        E 4 bb 01 46
        E 4 bb 01 48
        E 4 bb 01 49
        E 4 bb 01 4a
        E 4 bb 01 4b
        E 4 bb 01 4c
        E 4 bb 01 4b
        E 4 bb 01 4a
        E 4 bb 01 49
        E 4 bb 01 48
        E 4 bb 01 46
        E 4 bb 01 45
        E 4 bb 01 44
        E 4 bb 01 43
        E 4 bb 01 42
        E 4 bb 01 40
        E 4 bb 01 3f
        E 4 bb 01 3e
        E 4 bb 01 3d
        E 4 bb 01 3c
        E 4 bb 01 3a
        E 4 bb 01 39
        E 4 bb 01 38
        E 4 bb 01 37
        E 4 bb 01 36
        E 4 bb 01 34
        E 4 bb 01 33
        E 4 bb 01 32
        E 4 bb 01 31
        E 4 bb 01 30
        E 4 bb 01 2e
        E 4 bb 01 2d
        E 4 bb 01 2c
        E 4 bb 01 2b
        E 4 bb 01 2a
        E 4 bb 01 28
        E 4 bb 01 27
        E 4 bb 01 26
        E 4 bb 01 25
        E 4 bb 01 24
        E 4 bb 01 22
        E 4 bb 01 21
        E 4 bb 01 20
        E 4 bb 01 1f
        E 4 bb 01 1e
        E 4 bb 01 1c
        E 4 bb 01 1b
        E 4 bb 01 1a
        E 4 bb 01 19
        E 4 bb 01 18
        E 4 bb 01 16
        E 4 bb 01 15
        E 4 bb 01 14
        E 4 bb 01 13
        E 4 bb 01 12
        E 4 bb 01 10
        E 4 bb 01 0f
        E 4 bb 01 0e
        E 4 bb 01 0d
        E 4 bb 01 0c
        E 4 bb 01 0a
        E 4 bb 01 09
        E 4 bb 01 08
        E 4 bb 01 07
        E 4 bb 01 06
        E 4 bb 01 04
        E 4 bb 01 03
        E 4 bb 01 02
        E 4 bb 01 01
        E 4 bb 01 00
        E 23 bb 01 00
        E 23 bb 01 00
        E 23 bb 01 01
        E 23 bb 01 01
        E 23 bb 01 02
        E 23 bb 01 02
        E 23 bb 01 02
        E 23 bb 01 03
        E 23 bb 01 03
        E 23 bb 01 04
        E 23 bb 01 04
        E 23 bb 01 04
        E 23 bb 01 05
        E 23 bb 01 05
        E 23 bb 01 06
        E 23 bb 01 06
        E 23 bb 01 06
        E 23 bb 01 07
        E 23 bb 01 07
        E 23 bb 01 08
        E 23 bb 01 08
        E 23 bb 01 08
        E 23 bb 01 09
        E 23 bb 01 09
        E 23 bb 01 0a
        E 23 bb 01 0a
        E 23 bb 01 0a
        E 23 bb 01 0b
        E 23 bb 01 0b
        E 23 bb 01 0c
        E 23 bb 01 0c
        E 23 bb 01 0c
        E 23 bb 01 0d
        E 23 bb 01 0d
        E 23 bb 01 0e
        E 23 bb 01 0e
        E 23 bb 01 0e
        E 23 bb 01 0f
        E 23 bb 01 0f
        E 23 bb 01 10
        E 23 bb 01 10
        E 23 bb 01 10
        E 23 bb 01 11
        E 23 bb 01 11
        E 23 bb 01 12
        E 23 bb 01 12
        E 23 bb 01 12
        E 23 bb 01 13
        E 23 bb 01 13
        E 23 bb 01 14
        E 23 bb 01 14
        E 23 bb 01 14
        E 23 bb 01 15
        E 23 bb 01 15
        E 23 bb 01 16
        E 23 bb 01 16
        E 23 bb 01 16
        E 23 bb 01 17
        E 23 bb 01 17
        E 23 bb 01 18
        E 23 bb 01 18
        E 23 bb 01 18
        E 23 bb 01 19
        E 23 bb 01 19
        E 23 bb 01 19
        E 23 bb 01 18
        E 23 bb 01 18
        E 23 bb 01 18
        E 23 bb 01 17
        E 23 bb 01 17
        E 23 bb 01 16
        E 23 bb 01 16
        E 23 bb 01 16
        E 23 bb 01 15
        E 23 bb 01 15
        E 23 bb 01 14
        E 23 bb 01 14
        E 23 bb 01 14
        E 23 bb 01 13
        E 23 bb 01 13
        E 23 bb 01 12
        E 23 bb 01 12
        E 23 bb 01 12
        E 23 bb 01 11
        E 23 bb 01 11
        E 23 bb 01 10
        E 23 bb 01 10
        E 23 bb 01 10
        E 23 bb 01 0f
        E 23 bb 01 0f
        E 23 bb 01 0e
        E 23 bb 01 0e
        E 23 bb 01 0e
        E 23 bb 01 0d
        E 23 bb 01 0d
        E 23 bb 01 0c
        E 23 bb 01 0c
        E 23 bb 01 0c
        E 23 bb 01 0b
        E 23 bb 01 0b
        E 23 bb 01 0a
        E 23 bb 01 0a
        E 23 bb 01 0a
        E 23 bb 01 09
        E 23 bb 01 09
        E 23 bb 01 08
        E 23 bb 01 08
        E 23 bb 01 08
        E 23 bb 01 07
        E 23 bb 01 07
        E 23 bb 01 06
        E 23 bb 01 06
        E 23 bb 01 06
        E 23 bb 01 05
        E 23 bb 01 05
        E 23 bb 01 04
        E 23 bb 01 04
        E 23 bb 01 04
        E 23 bb 01 03
        E 23 bb 01 03
        E 23 bb 01 02
        E 23 bb 01 02
        E 23 bb 01 02
        E 23 bb 01 01
        E 23 bb 01 01
        E 23 bb 01 00
        E 23 bb 01 00
        E 23 bb 01 00
        E 18 bb 01 01
        E 18 bb 01 02
        E 18 bb 01 04
        E 18 bb 01 05
        E 18 bb 01 07
        E 18 bb 01 08
        E 18 bb 01 09
        E 18 bb 01 0b
        E 18 bb 01 0c
        E 18 bb 01 0e
        E 18 bb 01 0f
        E 18 bb 01 10
        E 18 bb 01 12
        E 18 bb 01 13
        E 18 bb 01 15
        E 18 bb 01 16
        E 18 bb 01 17
        E 18 bb 01 19
        E 18 bb 01 1a
        E 18 bb 01 1c
        E 18 bb 01 1d
        E 18 bb 01 1e
        E 18 bb 01 20
        E 18 bb 01 21
        E 18 bb 01 23
        E 18 bb 01 24
        E 18 bb 01 25
        E 18 bb 01 27
        E 18 bb 01 28
        E 18 bb 01 2a
        E 18 bb 01 2b
        E 18 bb 01 2c
        E 18 bb 01 2e
        E 18 bb 01 2f
        E 18 bb 01 31
        E 18 bb 01 32
        E 18 bb 01 33
        E 18 bb 01 35
        E 18 bb 01 36
        E 18 bb 01 38
        E 18 bb 01 39
        E 18 bb 01 3a
        E 18 bb 01 3c
        E 18 bb 01 3d
        E 18 bb 01 3e
        E 18 bb 01 40
        E 18 bb 01 41
        E 18 bb 01 43
        E 18 bb 01 44
        E 18 bb 01 46
        E 18 bb 01 47
        E 18 bb 01 48
        E 18 bb 01 4a
        E 18 bb 01 4b
        E 18 bb 01 4d
        E 18 bb 01 4e
        E 18 bb 01 4f
        E 18 bb 01 51
        E 18 bb 01 52
        E 18 bb 01 54
        E 18 bb 01 55
        E 18 bb 01 56
        E 18 bb 01 58
        E 18 bb 01 58
        E 18 bb 01 58
        E 18 bb 01 56
        E 18 bb 01 55
        E 18 bb 01 54
        E 18 bb 01 52
        E 18 bb 01 51
        E 18 bb 01 4f
        E 18 bb 01 4e
        E 18 bb 01 4d
        E 18 bb 01 4b
        E 18 bb 01 4a
        E 18 bb 01 48
        E 18 bb 01 47
        E 18 bb 01 46
        E 18 bb 01 44
        E 18 bb 01 43
        E 18 bb 01 41
        E 18 bb 01 40
        E 18 bb 01 3e
        E 18 bb 01 3d
        E 18 bb 01 3c
        E 18 bb 01 3a
        E 18 bb 01 39
        E 18 bb 01 38
        E 18 bb 01 36
        E 18 bb 01 35
        E 18 bb 01 33
        E 18 bb 01 32
        E 18 bb 01 31
        E 18 bb 01 2f
        E 18 bb 01 2e
        E 18 bb 01 2c
        E 18 bb 01 2b
        E 18 bb 01 2a
        E 18 bb 01 28
        E 18 bb 01 27
        E 18 bb 01 25
        E 18 bb 01 24
        E 18 bb 01 23
        E 18 bb 01 21
        E 18 bb 01 20
        E 18 bb 01 1e
        E 18 bb 01 1d
        E 18 bb 01 1c
        E 18 bb 01 1a
        E 18 bb 01 19
        E 18 bb 01 17
        E 18 bb 01 16
        E 18 bb 01 15
        E 18 bb 01 13
        E 18 bb 01 12
        E 18 bb 01 10
        E 18 bb 01 0f
        E 18 bb 01 0e
        E 18 bb 01 0c
        E 18 bb 01 0b
        E 18 bb 01 09
        E 18 bb 01 08
        E 18 bb 01 07
        E 18 bb 01 05
        E 18 bb 01 04
        E 18 bb 01 02
        E 18 bb 01 01
        E 18 bb 01 00
        E 4 bb 01 00
        E 4 bb 01 01
        E 4 bb 01 02
        E 4 bb 01 03
        E 4 bb 01 04
        E 4 bb 01 04
        E 4 bb 01 05
        E 4 bb 01 06
        E 4 bb 01 07
        E 4 bb 01 08
        E 4 bb 01 08
        E 4 bb 01 09
        E 4 bb 01 0a
        E 4 bb 01 0b
        E 4 bb 01 0c
        E 4 bb 01 0c
        E 4 bb 01 0d
        E 4 bb 01 0e
        E 4 bb 01 0f
        E 4 bb 01 10
        E 4 bb 01 10
        E 4 bb 01 11
        E 4 bb 01 12
        E 4 bb 01 13
        E 4 bb 01 14
        E 4 bb 01 14
        E 4 bb 01 15
        E 4 bb 01 16
        E 4 bb 01 17
        E 4 bb 01 18
        E 4 bb 01 18
        E 4 bb 01 19
        E 4 bb 01 1a
        E 4 bb 01 1b
        E 4 bb 01 1c
        E 4 bb 01 1c
        E 4 bb 01 1d
        E 4 bb 01 1e
        E 4 bb 01 1f
        E 4 bb 01 20
        E 4 bb 01 20
        E 4 bb 01 21
        E 4 bb 01 22
        E 4 bb 01 23
        E 4 bb 01 24
        E 4 bb 01 24
        E 4 bb 01 25
        E 4 bb 01 26
        E 4 bb 01 27
        E 4 bb 01 28
        E 4 bb 01 28
        E 4 bb 01 29
        E 4 bb 01 2a
        E 4 bb 01 2b
        E 4 bb 01 2c
        E 4 bb 01 2c
        E 4 bb 01 2d
        E 4 bb 01 2e
        E 4 bb 01 2f
        E 4 bb 01 30
        E 4 bb 01 30
        E 4 bb 01 31
        E 4 bb 01 32
        E 4 bb 01 32
        E 4 bb 01 32
        E 4 bb 01 31
        E 4 bb 01 30
        E 4 bb 01 30
        E 4 bb 01 2f
        E 4 bb 01 2e
        E 4 bb 01 2d
        E 4 bb 01 2c
        E 4 bb 01 2c
        E 4 bb 01 2b
        E 4 bb 01 2a
        E 4 bb 01 29
        E 4 bb 01 28
        E 4 bb 01 28
        E 4 bb 01 27
        E 4 bb 01 26
        E 4 bb 01 25
        E 4 bb 01 24
        E 4 bb 01 24
        E 4 bb 01 23
        E 4 bb 01 22
        E 4 bb 01 21
        E 4 bb 01 20
        E 4 bb 01 20
        E 4 bb 01 1f
        E 4 bb 01 1e
        E 4 bb 01 1d
        E 4 bb 01 1c
        E 4 bb 01 1c
        E 4 bb 01 1b
        E 4 bb 01 1a
        E 4 bb 01 19
        E 4 bb 01 18
        E 4 bb 01 18
        E 4 bb 01 17
        E 4 bb 01 16
        E 4 bb 01 15
        E 4 bb 01 14
        E 4 bb 01 14
        E 4 bb 01 13
        E 4 bb 01 12
        E 4 bb 01 11
        E 4 bb 01 10
        E 4 bb 01 10
        E 4 bb 01 0f
        E 4 bb 01 0e
        E 4 bb 01 0d
        E 4 bb 01 0c
        E 4 bb 01 0c
        E 4 bb 01 0b
        E 4 bb 01 0a
        E 4 bb 01 09
        E 4 bb 01 08
        E 4 bb 01 08
        E 4 bb 01 07
        E 4 bb 01 06
        E 4 bb 01 05
        E 4 bb 01 04
        E 4 bb 01 04
        E 4 bb 01 03
        E 4 bb 01 02
        E 4 bb 01 01
        E 4 bb 01 00
        E 4 bb 01 00
        E 42 bb 01 02
        E 42 bb 01 04
        E 42 bb 01 06
        E 42 bb 01 08
        E 42 bb 01 0a
        E 42 bb 01 0c
        E 42 bb 01 0e
        E 42 bb 01 10
        E 42 bb 01 12
        E 42 bb 01 14
        E 42 bb 01 16
        E 42 bb 01 18
        E 42 bb 01 1a
        E 42 bb 01 1c
        E 42 bb 01 1e
        E 42 bb 01 20
        E 42 bb 01 22
        E 42 bb 01 24
        E 42 bb 01 26
        E 42 bb 01 28
        E 42 bb 01 2a
        E 42 bb 01 2c
        E 42 bb 01 2e
        E 42 bb 01 30
        E 42 bb 01 32
        E 42 bb 01 34
        E 42 bb 01 36
        E 42 bb 01 38
        E 42 bb 01 3a
        E 42 bb 01 3c
        E 42 bb 01 3e
        E 42 bb 01 40
        E 42 bb 01 42
        E 42 bb 01 44
        E 42 bb 01 46
        E 42 bb 01 48
        E 42 bb 01 4a
        E 42 bb 01 4c
        E 42 bb 01 4e
        E 42 bb 01 50
        E 42 bb 01 52
        E 42 bb 01 54
        E 42 bb 01 56
        E 42 bb 01 58
        E 42 bb 01 5a
        E 42 bb 01 5c
        E 42 bb 01 5e
        E 42 bb 01 60
        E 42 bb 01 62
        E 42 bb 01 64
        E 42 bb 01 66
        E 42 bb 01 68
        E 42 bb 01 6a
        E 42 bb 01 6c
        E 42 bb 01 6e
        E 42 bb 01 70
        E 42 bb 01 72
        E 42 bb 01 74
        E 42 bb 01 76
        E 42 bb 01 78
        E 42 bb 01 7a
        E 42 bb 01 7c
        E 42 bb 01 7e
        E 42 bb 01 7f
        E 42 bb 01 7e
        E 42 bb 01 7c
        E 42 bb 01 7a
        E 42 bb 01 78
        E 42 bb 01 76
        E 42 bb 01 74
        E 42 bb 01 72
        E 42 bb 01 70
        E 42 bb 01 6e
        E 42 bb 01 6c
        E 42 bb 01 6a
        E 42 bb 01 68
        E 42 bb 01 66
        E 42 bb 01 64
        E 42 bb 01 62
        E 42 bb 01 60
        E 42 bb 01 5e
        E 42 bb 01 5c
        E 42 bb 01 5a
        E 42 bb 01 58
        E 42 bb 01 56
        E 42 bb 01 54
        E 42 bb 01 52
        E 42 bb 01 50
        E 42 bb 01 4e
        E 42 bb 01 4c
        E 42 bb 01 4a
        E 42 bb 01 48
        E 42 bb 01 46
        E 42 bb 01 44
        E 42 bb 01 42
        E 42 bb 01 40
        E 42 bb 01 3e
        E 42 bb 01 3c
        E 42 bb 01 3a
        E 42 bb 01 38
        E 42 bb 01 36
        E 42 bb 01 34
        E 42 bb 01 32
        E 42 bb 01 30
        E 42 bb 01 2e
        E 42 bb 01 2c
        E 42 bb 01 2a
        E 42 bb 01 28
        E 42 bb 01 26
        E 42 bb 01 24
        E 42 bb 01 22
        E 42 bb 01 20
        E 42 bb 01 1e
        E 42 bb 01 1c
        E 42 bb 01 1a
        E 42 bb 01 18
        E 42 bb 01 16
        E 42 bb 01 14
        E 42 bb 01 12
        E 42 bb 01 10
        E 42 bb 01 0e
        E 42 bb 01 0c
        E 42 bb 01 0a
        E 42 bb 01 08
        E 42 bb 01 06
        E 42 bb 01 04
        E 42 bb 01 02
        E 42 bb 01 00
        E 9 bb 01 01
        E 9 bb 01 03
        E 9 bb 01 05
        E 9 bb 01 07
        E 9 bb 01 09
        E 9 bb 01 0a
        E 9 bb 01 0c
        E 9 bb 01 0e
        E 9 bb 01 10
        E 9 bb 01 12
        E 9 bb 01 13
        E 9 bb 01 15
        E 9 bb 01 17
        E 9 bb 01 19
        E 9 bb 01 1b
        E 9 bb 01 1c
        E 9 bb 01 1e
        E 9 bb 01 20
        E 9 bb 01 22
        E 9 bb 01 24
        E 9 bb 01 25
        E 9 bb 01 27
        E 9 bb 01 29
        E 9 bb 01 2b
        E 9 bb 01 2d
        E 9 bb 01 2e
        E 9 bb 01 30
        E 9 bb 01 32
        E 9 bb 01 34
        E 9 bb 01 36
        E 9 bb 01 37
        E 9 bb 01 39
        E 9 bb 01 3b
        E 9 bb 01 3d
        E 9 bb 01 3f
        E 9 bb 01 40
        E 9 bb 01 42
        E 9 bb 01 44
        E 9 bb 01 46
        E 9 bb 01 48
        E 9 bb 01 49
        E 9 bb 01 4b
        E 9 bb 01 4d
        E 9 bb 01 4f
        E 9 bb 01 51
        E 9 bb 01 52
        E 9 bb 01 54
        E 9 bb 01 56
        E 9 bb 01 58
        E 9 bb 01 5a
        E 9 bb 01 5b
        E 9 bb 01 5d
        E 9 bb 01 5f
        E 9 bb 01 61
        E 9 bb 01 63
        E 9 bb 01 64
        E 9 bb 01 66
        E 9 bb 01 68
        E 9 bb 01 6a
        E 9 bb 01 6c
        E 9 bb 01 6d
        E 9 bb 01 6f
        E 9 bb 01 71
        E 9 bb 01 72
        E 9 bb 01 71
        E 9 bb 01 6f
        E 9 bb 01 6d
        E 9 bb 01 6c
        E 9 bb 01 6a
        E 9 bb 01 68
        E 9 bb 01 66
        E 9 bb 01 64
        E 9 bb 01 63
        E 9 bb 01 61
        E 9 bb 01 5f
        E 9 bb 01 5d
        E 9 bb 01 5b
        E 9 bb 01 5a
        E 9 bb 01 58
        E 9 bb 01 56
        E 9 bb 01 54
        E 9 bb 01 52
        E 9 bb 01 51
        E 9 bb 01 4f
        E 9 bb 01 4d
        E 9 bb 01 4b
        E 9 bb 01 49
        E 9 bb 01 48
        E 9 bb 01 46
        E 9 bb 01 44
        E 9 bb 01 42
        E 9 bb 01 40
        E 9 bb 01 3f
        E 9 bb 01 3d
        E 9 bb 01 3b
        E 9 bb 01 39
        E 9 bb 01 37
        E 9 bb 01 36
        E 9 bb 01 34
        E 9 bb 01 32
        E 9 bb 01 30
        E 9 bb 01 2e
        E 9 bb 01 2d
        E 9 bb 01 2b
        E 9 bb 01 29
        E 9 bb 01 27
        E 9 bb 01 25
        E 9 bb 01 24
        E 9 bb 01 22
        E 9 bb 01 20
        E 9 bb 01 1e
        E 9 bb 01 1c
        E 9 bb 01 1b
        E 9 bb 01 19
        E 9 bb 01 17
        E 9 bb 01 15
        E 9 bb 01 13
        E 9 bb 01 12
        E 9 bb 01 10
        E 9 bb 01 0e
        E 9 bb 01 0c
        E 9 bb 01 0a
        E 9 bb 01 09
        E 9 bb 01 07
        E 9 bb 01 05
        E 9 bb 01 03
        E 9 bb 01 01
        E 9 bb 01 00
        E 4 bb 01 01
        E 4 bb 01 02
        E 4 bb 01 03
        E 4 bb 01 04
        E 4 bb 01 06
        E 4 bb 01 07
        E 4 bb 01 08
        E 4 bb 01 09
        E 4 bb 01 0a
        E 4 bb 01 0c
        E 4 bb 01 0d
        E 4 bb 01 0e
        E 4 bb 01 0f
        E 4 bb 01 10
        E 4 bb 01 12
        E 4 bb 01 13
        E 4 bb 01 14
        E 4 bb 01 15
        E 4 bb 01 16
        E 4 bb 01 18
        E 4 bb 01 19
        E 4 bb 01 1a
        E 4 bb 01 1b
        E 4 bb 01 1c
        E 4 bb 01 1e
        E 4 bb 01 1f
        E 4 bb 01 20
        E 4 bb 01 21
        E 4 bb 01 22
        E 4 bb 01 24
        E 4 bb 01 25
        E 4 bb 01 26
        E 4 bb 01 27
        E 4 bb 01 28
        E 4 bb 01 2a
        E 4 bb 01 2b
        E 4 bb 01 2c
        E 4 bb 01 2d
        E 4 bb 01 2e
        E 4 bb 01 30
        E 4 bb 01 31
        E 4 bb 01 32
        E 4 bb 01 33
        E 4 bb 01 34
        E 4 bb 01 36
        E 4 bb 01 37
        E 4 bb 01 38
        E 4 bb 01 39
        E 4 bb 01 3a
        E 4 bb 01 3c
        E 4 bb 01 3d
        E 4 bb 01 3e
        E 4 bb 01 3f
        E 4 bb 01 40
        E 4 bb 01 42
        E 4 bb 01 43
        E 4 bb 01 44
        E 4 bb 01 45
        E 4 bb 01 46
        E 4 bb 01 48
        E 4 bb 01 49
        E 4 bb 01 4a
        E 4 bb 01 4b
        E 4 bb 01 4c
        E 4 bb 01 4b
        E 4 bb 01 4a
        E 4 bb 01 49
        E 4 bb 01 48
        E 4 bb 01 46
        E 4 bb 01 45
        E 4 bb 01 44
        E 4 bb 01 43
        E 4 bb 01 42
        E 4 bb 01 40
        E 4 bb 01 3f
        E 4 bb 01 3e
        E 4 bb 01 3d
        E 4 bb 01 3c
        E 4 bb 01 3a
        E 4 bb 01 39
        E 4 bb 01 38
        E 4 bb 01 37
        E 4 bb 01 36
        E 4 bb 01 34
        E 4 bb 01 33
        E 4 bb 01 32
        E 4 bb 01 31
        E 4 bb 01 30
        E 4 bb 01 2e
        E 4 bb 01 2d
        E 4 bb 01 2c
        E 4 bb 01 2b
        E 4 bb 01 2a
        E 4 bb 01 28
        E 4 bb 01 27
        E 4 bb 01 26
        E 4 bb 01 25
        E 4 bb 01 24
        E 4 bb 01 22
        E 4 bb 01 21
        E 4 bb 01 20
        E 4 bb 01 1f
        E 4 bb 01 1e
        E 4 bb 01 1c
        E 4 bb 01 1b
        E 4 bb 01 1a
        E 4 bb 01 19
        E 4 bb 01 18
        E 4 bb 01 16
        E 4 bb 01 15
        E 4 bb 01 14
        E 4 bb 01 13
        E 4 bb 01 12
        E 4 bb 01 10
        E 4 bb 01 0f
        E 4 bb 01 0e
        E 4 bb 01 0d
        E 4 bb 01 0c
        E 4 bb 01 0a
        E 4 bb 01 09
        E 4 bb 01 08
        E 4 bb 01 07
        E 4 bb 01 06
        E 4 bb 01 04
        E 4 bb 01 03
        E 4 bb 01 02
        E 4 bb 01 01
        E 4 bb 01 00
        E 4 bb 01 00
        E 4 bb 01 01
        E 4 bb 01 02
        E 4 bb 01 03
        E 4 bb 01 04
        E 4 bb 01 04
        E 4 bb 01 05
        E 4 bb 01 06
        E 4 bb 01 07
        E 4 bb 01 08
        E 4 bb 01 08
        E 4 bb 01 09
        E 4 bb 01 0a
        E 4 bb 01 0b
        E 4 bb 01 0c
        E 4 bb 01 0c
        E 4 bb 01 0d
        E 4 bb 01 0e
        E 4 bb 01 0f
        E 4 bb 01 10
        E 4 bb 01 10
        E 4 bb 01 11
        E 4 bb 01 12
        E 4 bb 01 13
        E 4 bb 01 14
        E 4 bb 01 14
        E 4 bb 01 15
        E 4 bb 01 16
        E 4 bb 01 17
        E 4 bb 01 18
        E 4 bb 01 18
        E 4 bb 01 19
        E 4 bb 01 1a
        E 4 bb 01 1b
        E 4 bb 01 1c
        E 4 bb 01 1c
        E 4 bb 01 1d
        E 4 bb 01 1e
        E 4 bb 01 1f
        E 4 bb 01 20
        E 4 bb 01 20
        E 4 bb 01 21
        E 4 bb 01 22
        E 4 bb 01 23
        E 4 bb 01 24
        E 4 bb 01 24
        E 4 bb 01 25
        E 4 bb 01 26
        E 4 bb 01 27
        E 4 bb 01 28
        E 4 bb 01 28
        E 4 bb 01 29
        E 4 bb 01 2a
        E 4 bb 01 2b
        E 4 bb 01 2c
        E 4 bb 01 2c
        E 4 bb 01 2d
        E 4 bb 01 2e
        E 4 bb 01 2f
        E 4 bb 01 30
        E 4 bb 01 30
        E 4 bb 01 31
        E 4 bb 01 32
        E 4 bb 01 32
        E 4 bb 01 32
        E 4 bb 01 31
        E 4 bb 01 30
        E 4 bb 01 30
        E 4 bb 01 2f
        E 4 bb 01 2e
        E 4 bb 01 2d
        E 4 bb 01 2c
        E 4 bb 01 2c
        E 4 bb 01 2b
        E 4 bb 01 2a
        E 4 bb 01 29
        E 4 bb 01 28
        E 4 bb 01 28
        E 4 bb 01 27
        E 4 bb 01 26
        E 4 bb 01 25
        E 4 bb 01 24
        E 4 bb 01 24
        E 4 bb 01 23
        E 4 bb 01 22
        E 4 bb 01 21
        E 4 bb 01 20
        E 4 bb 01 20
        E 4 bb 01 1f
        E 4 bb 01 1e
        E 4 bb 01 1d
        E 4 bb 01 1c
        E 4 bb 01 1c
        E 4 bb 01 1b
        E 4 bb 01 1a
        E 4 bb 01 19
        E 4 bb 01 18
        E 4 bb 01 18
        E 4 bb 01 17
        E 4 bb 01 16
        E 4 bb 01 15
        E 4 bb 01 14
        E 4 bb 01 14
        E 4 bb 01 13
        E 4 bb 01 12
        E 4 bb 01 11
        E 4 bb 01 10
        E 4 bb 01 10
        E 4 bb 01 0f
        E 4 bb 01 0e
        E 4 bb 01 0d
        E 4 bb 01 0c
        E 4 bb 01 0c
        E 4 bb 01 0b
        E 4 bb 01 0a
        E 4 bb 01 09
        E 4 bb 01 08
        E 4 bb 01 08
        E 4 bb 01 07
        E 4 bb 01 06
        E 4 bb 01 05
        E 4 bb 01 04
        E 4 bb 01 04
        E 4 bb 01 03
        E 4 bb 01 02
        E 4 bb 01 01
        E 4 bb 01 00
        E 4 bb 01 00
        E 42 bb 01 02
        E 42 bb 01 04
        E 42 bb 01 06
        E 42 bb 01 08
        E 42 bb 01 0a
        E 42 bb 01 0c
        E 42 bb 01 0e
        E 42 bb 01 10
        E 42 bb 01 12
        E 42 bb 01 14
        E 42 bb 01 16
        E 42 bb 01 18
        E 42 bb 01 1a
        E 42 bb 01 1c
        E 42 bb 01 1e
        E 42 bb 01 20
        E 42 bb 01 22
        E 42 bb 01 24
        E 42 bb 01 26
        E 42 bb 01 28
        E 42 bb 01 2a
        E 42 bb 01 2c
        E 42 bb 01 2e
        E 42 bb 01 30
        E 42 bb 01 32
        E 42 bb 01 34
        E 42 bb 01 36
        E 42 bb 01 38
        E 42 bb 01 3a
        E 42 bb 01 3c
        E 42 bb 01 3e
        E 42 bb 01 40
        E 42 bb 01 42
        E 42 bb 01 44
        E 42 bb 01 46
        E 42 bb 01 48
        E 42 bb 01 4a
        E 42 bb 01 4c
        E 42 bb 01 4e
        E 42 bb 01 50
        E 42 bb 01 52
        E 42 bb 01 54
        E 42 bb 01 56
        E 42 bb 01 58
        E 42 bb 01 5a
        E 42 bb 01 5c
        E 42 bb 01 5e
        E 42 bb 01 60
        E 42 bb 01 62
        E 42 bb 01 64
        E 42 bb 01 66
        E 42 bb 01 68
        E 42 bb 01 6a
        E 42 bb 01 6c
        E 42 bb 01 6e
        E 42 bb 01 70
        E 42 bb 01 72
        E 42 bb 01 74
        E 42 bb 01 76
        E 42 bb 01 78
        E 42 bb 01 7a
        E 42 bb 01 7c
        E 42 bb 01 7e
        E 42 bb 01 7f
        E 42 bb 01 7e
        E 42 bb 01 7c
        E 42 bb 01 7a
        E 42 bb 01 78
        E 42 bb 01 76
        E 42 bb 01 74
        E 42 bb 01 72
        E 42 bb 01 70
        E 42 bb 01 6e
        E 42 bb 01 6c
        E 42 bb 01 6a
        E 42 bb 01 68
        E 42 bb 01 66
        E 42 bb 01 64
        E 42 bb 01 62
        E 42 bb 01 60
        E 42 bb 01 5e
        E 42 bb 01 5c
        E 42 bb 01 5a
        E 42 bb 01 58
        E 42 bb 01 56
        E 42 bb 01 54
        E 42 bb 01 52
        E 42 bb 01 50
        E 42 bb 01 4e
        E 42 bb 01 4c
        E 42 bb 01 4a
        E 42 bb 01 48
        E 42 bb 01 46
        E 42 bb 01 44
        E 42 bb 01 42
        E 42 bb 01 40
        E 42 bb 01 3e
        E 42 bb 01 3c
        E 42 bb 01 3a
        E 42 bb 01 38
        E 42 bb 01 36
        E 42 bb 01 34
        E 42 bb 01 32
        E 42 bb 01 30
        E 42 bb 01 2e
        E 42 bb 01 2c
        E 42 bb 01 2a
        E 42 bb 01 28
        E 42 bb 01 26
        E 42 bb 01 24
        E 42 bb 01 22
        E 42 bb 01 20
        E 42 bb 01 1e
        E 42 bb 01 1c
        E 42 bb 01 1a
        E 42 bb 01 18
        E 42 bb 01 16
        E 42 bb 01 14
        E 42 bb 01 12
        E 42 bb 01 10
        E 42 bb 01 0e
        E 42 bb 01 0c
        E 42 bb 01 0a
        E 42 bb 01 08
        E 42 bb 01 06
        E 42 bb 01 04
        E 42 bb 01 02
        E 42 bb 01 00
        E 9 bb 01 01
        E 9 bb 01 03
        E 9 bb 01 05
        E 9 bb 01 07
        E 9 bb 01 09
        E 9 bb 01 0a
        E 9 bb 01 0c
        E 9 bb 01 0e
        E 9 bb 01 10
        E 9 bb 01 12
        E 9 bb 01 13
        E 9 bb 01 15
        E 9 bb 01 17
        E 9 bb 01 19
        E 9 bb 01 1b
        E 9 bb 01 1c
        E 9 bb 01 1e
        E 9 bb 01 20
        E 9 bb 01 22
        E 9 bb 01 24
        E 9 bb 01 25
        E 9 bb 01 27
        E 9 bb 01 29
        E 9 bb 01 2b
        E 9 bb 01 2d
        E 9 bb 01 2e
        E 9 bb 01 30
        E 9 bb 01 32
        E 9 bb 01 34
        E 9 bb 01 36
        E 9 bb 01 37
        E 9 bb 01 39
        E 9 bb 01 3b
        E 9 bb 01 3d
        E 9 bb 01 3f
        E 9 bb 01 40
        E 9 bb 01 42
        E 9 bb 01 44
        E 9 bb 01 46
        E 9 bb 01 48
        E 9 bb 01 49
        E 9 bb 01 4b
        E 9 bb 01 4d
        E 9 bb 01 4f
        E 9 bb 01 51
        E 9 bb 01 52
        E 9 bb 01 54
        E 9 bb 01 56
        E 9 bb 01 58
        E 9 bb 01 5a
        E 9 bb 01 5b
        E 9 bb 01 5d
        E 9 bb 01 5f
        E 9 bb 01 61
        E 9 bb 01 63
        E 9 bb 01 64
        E 9 bb 01 66
        E 9 bb 01 68
        E 9 bb 01 6a
        E 9 bb 01 6c
        E 9 bb 01 6d
        E 9 bb 01 6f
        E 9 bb 01 71
        E 9 bb 01 72
        E 9 bb 01 71
        E 9 bb 01 6f
        E 9 bb 01 6d
        E 9 bb 01 6c
        E 9 bb 01 6a
        E 9 bb 01 68
        E 9 bb 01 66
        E 9 bb 01 64
        E 9 bb 01 63
        E 9 bb 01 61
        E 9 bb 01 5f
        E 9 bb 01 5d
        E 9 bb 01 5b
        E 9 bb 01 5a
        E 9 bb 01 58
        E 9 bb 01 56
        E 9 bb 01 54
        E 9 bb 01 52
        E 9 bb 01 51
        E 9 bb 01 4f
        E 9 bb 01 4d
        E 9 bb 01 4b
        E 9 bb 01 49
        E 9 bb 01 48
        E 9 bb 01 46
        E 9 bb 01 44
        E 9 bb 01 42
        E 9 bb 01 40
        E 9 bb 01 3f
        E 9 bb 01 3d
        E 9 bb 01 3b
        E 9 bb 01 39
        E 9 bb 01 37
        E 9 bb 01 36
        E 9 bb 01 34
        E 9 bb 01 32
        E 9 bb 01 30
        E 9 bb 01 2e
        E 9 bb 01 2d
        E 9 bb 01 2b
        E 9 bb 01 29
        E 9 bb 01 27
        E 9 bb 01 25
        E 9 bb 01 24
        E 9 bb 01 22
        E 9 bb 01 20
        E 9 bb 01 1e
        E 9 bb 01 1c
        E 9 bb 01 1b
        E 9 bb 01 19
        E 9 bb 01 17
        E 9 bb 01 15
        E 9 bb 01 13
        E 9 bb 01 12
        E 9 bb 01 10
        E 9 bb 01 0e
        E 9 bb 01 0c
        E 9 bb 01 0a
        E 9 bb 01 09
        E 9 bb 01 07
        E 9 bb 01 05
        E 9 bb 01 03
        E 9 bb 01 01
        E 9 bb 01 00
        E 4 bb 01 01
        E 4 bb 01 02
        E 4 bb 01 03
        E 4 bb 01 04
        E 4 bb 01 06
        E 4 bb 01 07
        E 4 bb 01 08
        E 4 bb 01 09
        E 4 bb 01 0a
        E 4 bb 01 0c
        E 4 bb 01 0d
        E 4 bb 01 0e
        E 4 bb 01 0f
        E 4 bb 01 10
        E 4 bb 01 12
        E 4 bb 01 13
        E 4 bb 01 14
        E 4 bb 01 15
        E 4 bb 01 16
        E 4 bb 01 18
        E 4 bb 01 19
        E 4 bb 01 1a
        E 4 bb 01 1b
        E 4 bb 01 1c
        E 4 bb 01 1e
        E 4 bb 01 1f
        E 4 bb 01 20
        E 4 bb 01 21
        E 4 bb 01 22
        E 4 bb 01 24
        E 4 bb 01 25
        E 4 bb 01 26
        E 4 bb 01 27
        E 4 bb 01 28
        E 4 bb 01 2a
        E 4 bb 01 2b
        E 4 bb 01 2c
        E 4 bb 01 2d
        E 4 bb 01 2e
        E 4 bb 01 30
        E 4 bb 01 31
        E 4 bb 01 32
        E 4 bb 01 33
        E 4 bb 01 34
        E 4 bb 01 36
        E 4 bb 01 37
        E 4 bb 01 38
        E 4 bb 01 39
        E 4 bb 01 3a
        E 4 bb 01 3c
        E 4 bb 01 3d
        E 4 bb 01 3e
        E 4 bb 01 3f
        E 4 bb 01 40
        E 4 bb 01 42
        E 4 bb 01 43
        E 4 bb 01 44
        E 4 bb 01 45
        E 4 bb 01 46
        E 4 bb 01 48
        E 4 bb 01 49
        E 4 bb 01 4a
        E 4 bb 01 4b
        E 4 bb 01 4c
        E 4 bb 01 4b
        E 4 bb 01 4a
        E 4 bb 01 49
        E 4 bb 01 48
        E 4 bb 01 46
        E 4 bb 01 45
        E 4 bb 01 44
        E 4 bb 01 43
        E 4 bb 01 42
        E 4 bb 01 40
        E 4 bb 01 3f
        E 4 bb 01 3e
        E 4 bb 01 3d
        E 4 bb 01 3c
        E 4 bb 01 3a
        E 4 bb 01 39
        E 4 bb 01 38
        E 4 bb 01 37
        E 4 bb 01 36
        E 4 bb 01 34
        E 4 bb 01 33
        E 4 bb 01 32
        E 4 bb 01 31
        E 4 bb 01 30
        E 4 bb 01 2e
        E 4 bb 01 2d
        E 4 bb 01 2c
        E 4 bb 01 2b
        E 4 bb 01 2a
        E 4 bb 01 28
        E 4 bb 01 27
        E 4 bb 01 26
        E 4 bb 01 25
        E 4 bb 01 24
        E 4 bb 01 22
        E 4 bb 01 21
        E 4 bb 01 20
        E 4 bb 01 1f
        E 4 bb 01 1e
        E 4 bb 01 1c
        E 4 bb 01 1b
        E 4 bb 01 1a
        E 4 bb 01 19
        E 4 bb 01 18
        E 4 bb 01 16
        E 4 bb 01 15
        E 4 bb 01 14
        E 4 bb 01 13
        E 4 bb 01 12
        E 4 bb 01 10
        E 4 bb 01 0f
        E 4 bb 01 0e
        E 4 bb 01 0d
        E 4 bb 01 0c
        E 4 bb 01 0a
        E 4 bb 01 09
        E 4 bb 01 08
        E 4 bb 01 07
        E 4 bb 01 06
        E 4 bb 01 04
        E 4 bb 01 03
        E 4 bb 01 02
        E 4 bb 01 01
        E 4 bb 01 00
        E 23 bb 01 00
        E 23 bb 01 00
        E 23 bb 01 01
        E 23 bb 01 01
        E 23 bb 01 02
        E 23 bb 01 02
        E 23 bb 01 02
        E 23 bb 01 03
        E 23 bb 01 03
        E 23 bb 01 04
        E 23 bb 01 04
        E 23 bb 01 04
        E 23 bb 01 05
        E 23 bb 01 05
        E 23 bb 01 06
        E 23 bb 01 06
        E 23 bb 01 06
        E 23 bb 01 07
        E 23 bb 01 07
        E 23 bb 01 08
        E 23 bb 01 08
        E 23 bb 01 08
        E 23 bb 01 09
        E 23 bb 01 09
        E 23 bb 01 0a
        E 23 bb 01 0a
        E 23 bb 01 0a
        E 23 bb 01 0b
        E 23 bb 01 0b
        E 23 bb 01 0c
        E 23 bb 01 0c
        E 23 bb 01 0c
        E 23 bb 01 0d
        E 23 bb 01 0d
        E 23 bb 01 0e
        E 23 bb 01 0e
        E 23 bb 01 0e
        E 23 bb 01 0f
        E 23 bb 01 0f
        E 23 bb 01 10
        E 23 bb 01 10
        E 23 bb 01 10
        E 23 bb 01 11
        E 23 bb 01 11
        E 23 bb 01 12
        E 23 bb 01 12
        E 23 bb 01 12
        E 23 bb 01 13
        E 23 bb 01 13
        E 23 bb 01 14
        E 23 bb 01 14
        E 23 bb 01 14
        E 23 bb 01 15
        E 23 bb 01 15
        E 23 bb 01 16
        E 23 bb 01 16
        E 23 bb 01 16
        E 23 bb 01 17
        E 23 bb 01 17
        E 23 bb 01 18
        E 23 bb 01 18
        E 23 bb 01 18
        E 23 bb 01 19
        E 23 bb 01 19
        E 23 bb 01 19
        E 23 bb 01 18
        E 23 bb 01 18
        E 23 bb 01 18
        E 23 bb 01 17
        E 23 bb 01 17
        E 23 bb 01 16
        E 23 bb 01 16
        E 23 bb 01 16
        E 23 bb 01 15
        E 23 bb 01 15
        E 23 bb 01 14
        E 23 bb 01 14
        E 23 bb 01 14
        E 23 bb 01 13
        E 23 bb 01 13
        E 23 bb 01 12
        E 23 bb 01 12
        E 23 bb 01 12
        E 23 bb 01 11
        E 23 bb 01 11
        E 23 bb 01 10
        E 23 bb 01 10
        E 23 bb 01 10
        E 23 bb 01 0f
        E 23 bb 01 0f
        E 23 bb 01 0e
        E 23 bb 01 0e
        E 23 bb 01 0e
        E 23 bb 01 0d
        E 23 bb 01 0d
        E 23 bb 01 0c
        E 23 bb 01 0c
        E 23 bb 01 0c
        E 23 bb 01 0b
        E 23 bb 01 0b
        E 23 bb 01 0a
        E 23 bb 01 0a
        E 23 bb 01 0a
        E 23 bb 01 09
        E 23 bb 01 09
        E 23 bb 01 08
        E 23 bb 01 08
        E 23 bb 01 08
        E 23 bb 01 07
        E 23 bb 01 07
        E 23 bb 01 06
        E 23 bb 01 06
        E 23 bb 01 06
        E 23 bb 01 05
        E 23 bb 01 05
        E 23 bb 01 04
        E 23 bb 01 04
        E 23 bb 01 04
        E 23 bb 01 03
        E 23 bb 01 03
        E 23 bb 01 02
        E 23 bb 01 02
        E 23 bb 01 02
        E 23 bb 01 01
        E 23 bb 01 01
        E 23 bb 01 00
        E 23 bb 01 00
        E 23 bb 01 00
        E 18 bb 01 01
        E 18 bb 01 02
        E 18 bb 01 04
        E 18 bb 01 05
        E 18 bb 01 07
        E 18 bb 01 08
        E 18 bb 01 09
        E 18 bb 01 0b
        E 18 bb 01 0c
        E 18 bb 01 0e
        E 18 bb 01 0f
        E 18 bb 01 10
        E 18 bb 01 12
        E 18 bb 01 13
        E 18 bb 01 15
        E 18 bb 01 16
        E 18 bb 01 17
        E 18 bb 01 19
        E 18 bb 01 1a
        E 18 bb 01 1c
        E 18 bb 01 1d
        E 18 bb 01 1e
        E 18 bb 01 20
        E 18 bb 01 21
        E 18 bb 01 23
        E 18 bb 01 24
        E 18 bb 01 25
        E 18 bb 01 27
        E 18 bb 01 28
        E 18 bb 01 2a
        E 18 bb 01 2b
        E 18 bb 01 2c
        E 18 bb 01 2e
        E 18 bb 01 2f
        E 18 bb 01 31
        E 18 bb 01 32
        E 18 bb 01 33
        E 18 bb 01 35
        E 18 bb 01 36
        E 18 bb 01 38
        E 18 bb 01 39
        E 18 bb 01 3a
        E 18 bb 01 3c
        E 18 bb 01 3d
        E 18 bb 01 3e
        E 18 bb 01 40
        E 18 bb 01 41
        E 18 bb 01 43
        E 18 bb 01 44
        E 18 bb 01 46
        E 18 bb 01 47
        E 18 bb 01 48
        E 18 bb 01 4a
        E 18 bb 01 4b
        E 18 bb 01 4d
        E 18 bb 01 4e
        E 18 bb 01 4f
        E 18 bb 01 51
        E 18 bb 01 52
        E 18 bb 01 54
        E 18 bb 01 55
        E 18 bb 01 56
        E 18 bb 01 58
        E 18 bb 01 58
        E 18 bb 01 58
        E 18 bb 01 56
        E 18 bb 01 55
        E 18 bb 01 54
        E 18 bb 01 52
        E 18 bb 01 51
        E 18 bb 01 4f
        E 18 bb 01 4e
        E 18 bb 01 4d
        E 18 bb 01 4b
        E 18 bb 01 4a
        E 18 bb 01 48
        E 18 bb 01 47
        E 18 bb 01 46
        E 18 bb 01 44
        E 18 bb 01 43
        E 18 bb 01 41
        E 18 bb 01 40
        E 18 bb 01 3e
        E 18 bb 01 3d
        E 18 bb 01 3c
        E 18 bb 01 3a
        E 18 bb 01 39
        E 18 bb 01 38
        E 18 bb 01 36
        E 18 bb 01 35
        E 18 bb 01 33
        E 18 bb 01 32
        E 18 bb 01 31
        E 18 bb 01 2f
        E 18 bb 01 2e
        E 18 bb 01 2c
        E 18 bb 01 2b
        E 18 bb 01 2a
        E 18 bb 01 28
        E 18 bb 01 27
        E 18 bb 01 25
        E 18 bb 01 24
        E 18 bb 01 23
        E 18 bb 01 21
        E 18 bb 01 20
        E 18 bb 01 1e
        E 18 bb 01 1d
        E 18 bb 01 1c
        E 18 bb 01 1a
        E 18 bb 01 19
        E 18 bb 01 17
        E 18 bb 01 16
        E 18 bb 01 15
        E 18 bb 01 13
        E 18 bb 01 12
        E 18 bb 01 10
        E 18 bb 01 0f
        E 18 bb 01 0e
        E 18 bb 01 0c
        E 18 bb 01 0b
        E 18 bb 01 09
        E 18 bb 01 08
        E 18 bb 01 07
        E 18 bb 01 05
        E 18 bb 01 04
        E 18 bb 01 02
        E 18 bb 01 01
        E 18 bb 01 00
        E 4 bb 01 00
        E 4 bb 01 01
        E 4 bb 01 02
        E 4 bb 01 03
        E 4 bb 01 04
        E 4 bb 01 04
        E 4 bb 01 05
        E 4 bb 01 06
        E 4 bb 01 07
        E 4 bb 01 08
        E 4 bb 01 08
        E 4 bb 01 09
        E 4 bb 01 0a
        E 4 bb 01 0b
        E 4 bb 01 0c
        E 4 bb 01 0c
        E 4 bb 01 0d
        E 4 bb 01 0e
        E 4 bb 01 0f
        E 4 bb 01 10
        E 4 bb 01 10
        E 4 bb 01 11
        E 4 bb 01 12
        E 4 bb 01 13
        E 4 bb 01 14
        E 4 bb 01 14
        E 4 bb 01 15
        E 4 bb 01 16
        E 4 bb 01 17
        E 4 bb 01 18
        E 4 bb 01 18
        E 4 bb 01 19
        E 4 bb 01 1a
        E 4 bb 01 1b
        E 4 bb 01 1c
        E 4 bb 01 1c
        E 4 bb 01 1d
        E 4 bb 01 1e
        E 4 bb 01 1f
        E 4 bb 01 20
        E 4 bb 01 20
        E 4 bb 01 21
        E 4 bb 01 22
        E 4 bb 01 23
        E 4 bb 01 24
        E 4 bb 01 24
        E 4 bb 01 25
        E 4 bb 01 26
        E 4 bb 01 27
        E 4 bb 01 28
        E 4 bb 01 28
        E 4 bb 01 29
        E 4 bb 01 2a
        E 4 bb 01 2b
        E 4 bb 01 2c
        E 4 bb 01 2c
        E 4 bb 01 2d
        E 4 bb 01 2e
        E 4 bb 01 2f
        E 4 bb 01 30
        E 4 bb 01 30
        E 4 bb 01 31
        E 4 bb 01 32
        E 4 bb 01 32
        E 4 bb 01 32
        E 4 bb 01 31
        E 4 bb 01 30
        E 4 bb 01 30
        E 4 bb 01 2f
        E 4 bb 01 2e
        E 4 bb 01 2d
        E 4 bb 01 2c
        E 4 bb 01 2c
        E 4 bb 01 2b
        E 4 bb 01 2a
        E 4 bb 01 29
        E 4 bb 01 28
        E 4 bb 01 28
        E 4 bb 01 27
        E 4 bb 01 26
        E 4 bb 01 25
        E 4 bb 01 24
        E 4 bb 01 24
        E 4 bb 01 23
        E 4 bb 01 22
        E 4 bb 01 21
        E 4 bb 01 20
        E 4 bb 01 20
        E 4 bb 01 1f
        E 4 bb 01 1e
        E 4 bb 01 1d
        E 4 bb 01 1c
        E 4 bb 01 1c
        E 4 bb 01 1b
        E 4 bb 01 1a
        E 4 bb 01 19
        E 4 bb 01 18
        E 4 bb 01 18
        E 4 bb 01 17
        E 4 bb 01 16
        E 4 bb 01 15
        E 4 bb 01 14
        E 4 bb 01 14
        E 4 bb 01 13
        E 4 bb 01 12
        E 4 bb 01 11
        E 4 bb 01 10
        E 4 bb 01 10
        E 4 bb 01 0f
        E 4 bb 01 0e
        E 4 bb 01 0d
        E 4 bb 01 0c
        E 4 bb 01 0c
        E 4 bb 01 0b
        E 4 bb 01 0a
        E 4 bb 01 09
        E 4 bb 01 08
        E 4 bb 01 08
        E 4 bb 01 07
        E 4 bb 01 06
        E 4 bb 01 05
        E 4 bb 01 04
        E 4 bb 01 04
        E 4 bb 01 03
        E 4 bb 01 02
        E 4 bb 01 01
        E 4 bb 01 00
        E 4 bb 01 00
        E 42 bb 01 02
        E 42 bb 01 04
        E 42 bb 01 06
        E 42 bb 01 08
        E 42 bb 01 0a
        E 42 bb 01 0c
        E 42 bb 01 0e
        E 42 bb 01 10
        E 42 bb 01 12
        E 42 bb 01 14
        E 42 bb 01 16
        E 42 bb 01 18
        E 42 bb 01 1a
        E 42 bb 01 1c
        E 42 bb 01 1e
        E 42 bb 01 20
        E 42 bb 01 22
        E 42 bb 01 24
        E 42 bb 01 26
        E 42 bb 01 28
        E 42 bb 01 2a
        E 42 bb 01 2c
        E 42 bb 01 2e
        E 42 bb 01 30
        E 42 bb 01 32
        E 42 bb 01 34
        E 42 bb 01 36
        E 42 bb 01 38
        E 42 bb 01 3a
        E 42 bb 01 3c
        E 42 bb 01 3e
        E 42 bb 01 40
        E 42 bb 01 42
        E 42 bb 01 44
        E 42 bb 01 46
        E 42 bb 01 48
        E 42 bb 01 4a
        E 42 bb 01 4c
        E 42 bb 01 4e
        E 42 bb 01 50
        E 42 bb 01 52
        E 42 bb 01 54
        E 42 bb 01 56
        E 42 bb 01 58
        E 42 bb 01 5a
        E 42 bb 01 5c
        E 42 bb 01 5e
        E 42 bb 01 60
        E 42 bb 01 62
        E 42 bb 01 64
        E 42 bb 01 66
        E 42 bb 01 68
        E 42 bb 01 6a
        E 42 bb 01 6c
        E 42 bb 01 6e
        E 42 bb 01 70
        E 42 bb 01 72
        E 42 bb 01 74
        E 42 bb 01 76
        E 42 bb 01 78
        E 42 bb 01 7a
        E 42 bb 01 7c
        E 42 bb 01 7e
        E 42 bb 01 7f
        E 42 bb 01 7e
        E 42 bb 01 7c
        E 42 bb 01 7a
        E 42 bb 01 78
        E 42 bb 01 76
        E 42 bb 01 74
        E 42 bb 01 72
        E 42 bb 01 70
        E 42 bb 01 6e
        E 42 bb 01 6c
        E 42 bb 01 6a
        E 42 bb 01 68
        E 42 bb 01 66
        E 42 bb 01 64
        E 42 bb 01 62
        E 42 bb 01 60
        E 42 bb 01 5e
        E 42 bb 01 5c
        E 42 bb 01 5a
        E 42 bb 01 58
        E 42 bb 01 56
        E 42 bb 01 54
        E 42 bb 01 52
        E 42 bb 01 50
        E 42 bb 01 4e
        E 42 bb 01 4c
        E 42 bb 01 4a
        E 42 bb 01 48
        E 42 bb 01 46
        E 42 bb 01 44
        E 42 bb 01 42
        E 42 bb 01 40
        E 42 bb 01 3e
        E 42 bb 01 3c
        E 42 bb 01 3a
        E 42 bb 01 38
        E 42 bb 01 36
        E 42 bb 01 34
        E 42 bb 01 32
        E 42 bb 01 30
        E 42 bb 01 2e
        E 42 bb 01 2c
        E 42 bb 01 2a
        E 42 bb 01 28
        E 42 bb 01 26
        E 42 bb 01 24
        E 42 bb 01 22
        E 42 bb 01 20
        E 42 bb 01 1e
        E 42 bb 01 1c
        E 42 bb 01 1a
        E 42 bb 01 18
        E 42 bb 01 16
        E 42 bb 01 14
        E 42 bb 01 12
        E 42 bb 01 10
        E 42 bb 01 0e
        E 42 bb 01 0c
        E 42 bb 01 0a
        E 42 bb 01 08
        E 42 bb 01 06
        E 42 bb 01 04
        E 42 bb 01 02
        E 42 bb 01 00
        E 9 bb 01 01
        E 9 bb 01 03
        E 9 bb 01 05
        E 9 bb 01 07
        E 9 bb 01 09
        E 9 bb 01 0a
        E 9 bb 01 0c
        E 9 bb 01 0e
        E 9 bb 01 10
        E 9 bb 01 12
        E 9 bb 01 13
        E 9 bb 01 15
        E 9 bb 01 17
        E 9 bb 01 19
        E 9 bb 01 1b
        E 9 bb 01 1c
        E 9 bb 01 1e
        E 9 bb 01 20
        E 9 bb 01 22
        E 9 bb 01 24
        E 9 bb 01 25
        E 9 bb 01 27
        E 9 bb 01 29
        E 9 bb 01 2b
        E 9 bb 01 2d
        E 9 bb 01 2e
        E 9 bb 01 30
        E 9 bb 01 32
        E 9 bb 01 34
        E 9 bb 01 36
        E 9 bb 01 37
        E 9 bb 01 39
        E 9 bb 01 3b
        E 9 bb 01 3d
        E 9 bb 01 3f
        E 9 bb 01 40
        E 9 bb 01 42
        E 9 bb 01 44
        E 9 bb 01 46
        E 9 bb 01 48
        E 9 bb 01 49
        E 9 bb 01 4b
        E 9 bb 01 4d
        E 9 bb 01 4f
        E 9 bb 01 51
        E 9 bb 01 52
        E 9 bb 01 54
        E 9 bb 01 56
        E 9 bb 01 58
        E 9 bb 01 5a
        E 9 bb 01 5b
        E 9 bb 01 5d
        E 9 bb 01 5f
        E 9 bb 01 61
        E 9 bb 01 63
        E 9 bb 01 64
        E 9 bb 01 66
        E 9 bb 01 68
        E 9 bb 01 6a
        E 9 bb 01 6c
        E 9 bb 01 6d
        E 9 bb 01 6f
        E 9 bb 01 71
        E 9 bb 01 72
        E 9 bb 01 71
        E 9 bb 01 6f
        E 9 bb 01 6d
        E 9 bb 01 6c
        E 9 bb 01 6a
        E 9 bb 01 68
        E 9 bb 01 66
        E 9 bb 01 64
        E 9 bb 01 63
        E 9 bb 01 61
        E 9 bb 01 5f
        E 9 bb 01 5d
        E 9 bb 01 5b
        E 9 bb 01 5a
        E 9 bb 01 58
        E 9 bb 01 56
        E 9 bb 01 54
        E 9 bb 01 52
        E 9 bb 01 51
        E 9 bb 01 4f
        E 9 bb 01 4d
        E 9 bb 01 4b
        E 9 bb 01 49
        E 9 bb 01 48
        E 9 bb 01 46
        E 9 bb 01 44
        E 9 bb 01 42
        E 9 bb 01 40
        E 9 bb 01 3f
        E 9 bb 01 3d
        E 9 bb 01 3b
        E 9 bb 01 39
        E 9 bb 01 37
        E 9 bb 01 36
        E 9 bb 01 34
        E 9 bb 01 32
        E 9 bb 01 30
        E 9 bb 01 2e
        E 9 bb 01 2d
        E 9 bb 01 2b
        E 9 bb 01 29
        E 9 bb 01 27
        E 9 bb 01 25
        E 9 bb 01 24
        E 9 bb 01 22
        E 9 bb 01 20
        E 9 bb 01 1e
        E 9 bb 01 1c
        E 9 bb 01 1b
        E 9 bb 01 19
        E 9 bb 01 17
        E 9 bb 01 15
        E 9 bb 01 13
        E 9 bb 01 12
        E 9 bb 01 10
        E 9 bb 01 0e
        E 9 bb 01 0c
        E 9 bb 01 0a
        E 9 bb 01 09
        E 9 bb 01 07
        E 9 bb 01 05
        E 9 bb 01 03
        E 9 bb 01 01
        E 9 bb 01 00
        E 4 bb 01 01
        E 4 bb 01 02
        E 4 bb 01 03
        E 4 bb 01 04
        E 4 bb 01 06
        E 4 bb 01 07
        E 4 bb 01 08
        E 4 bb 01 09
        E 4 bb 01 0a
        E 4 bb 01 0c
        E 4 bb 01 0d
        E 4 bb 01 0e
        E 4 bb 01 0f
        E 4 bb 01 10
        E 4 bb 01 12
        E 4 bb 01 13
        E 4 bb 01 14
        E 4 bb 01 15
        E 4 bb 01 16
        E 4 bb 01 18
        E 4 bb 01 19
        E 4 bb 01 1a
        E 4 bb 01 1b
        E 4 bb 01 1c
        E 4 bb 01 1e
        E 4 bb 01 1f
        E 4 bb 01 20
        E 4 bb 01 21
        E 4 bb 01 22
        E 4 bb 01 24
        E 4 bb 01 25
        E 4 bb 01 26
        E 4 bb 01 27
        E 4 bb 01 28
        E 4 bb 01 2a
        E 4 bb 01 2b
        E 4 bb 01 2c
        E 4 bb 01 2d
        E 4 bb 01 2e
        E 4 bb 01 30
        E 4 bb 01 31
        E 4 bb 01 32
        E 4 bb 01 33
        E 4 bb 01 34
        E 4 bb 01 36
        E 4 bb 01 37
        E 4 bb 01 38
        E 4 bb 01 39
        E 4 bb 01 3a
        E 4 bb 01 3c
        E 4 bb 01 3d
        E 4 bb 01 3e
        E 4 bb 01 3f
        E 4 bb 01 40
        E 4 bb 01 42
        E 4 bb 01 43
        E 4 bb 01 44
        E 4 bb 01 45
        E 4 bb 01 46
        E 4 bb 01 48
        E 4 bb 01 49
        E 4 bb 01 4a
        E 4 bb 01 4b
        E 4 bb 01 4c
        E 4 bb 01 4b
        E 4 bb 01 4a
        E 4 bb 01 49
        E 4 bb 01 48
        E 4 bb 01 46
        E 4 bb 01 45
        E 4 bb 01 44
        E 4 bb 01 43
        E 4 bb 01 42
        E 4 bb 01 40
        E 4 bb 01 3f
        E 4 bb 01 3e
        E 4 bb 01 3d
        E 4 bb 01 3c
        E 4 bb 01 3a
        E 4 bb 01 39
        E 4 bb 01 38
        E 4 bb 01 37
        E 4 bb 01 36
        E 4 bb 01 34
        E 4 bb 01 33
        E 4 bb 01 32
        E 4 bb 01 31
        E 4 bb 01 30
        E 4 bb 01 2e
        E 4 bb 01 2d
        E 4 bb 01 2c
        E 4 bb 01 2b
        E 4 bb 01 2a
        E 4 bb 01 28
        E 4 bb 01 27
        E 4 bb 01 26
        E 4 bb 01 25
        E 4 bb 01 24
        E 4 bb 01 22
        E 4 bb 01 21
        E 4 bb 01 20
        E 4 bb 01 1f
        E 4 bb 01 1e
        E 4 bb 01 1c
        E 4 bb 01 1b
        E 4 bb 01 1a
        E 4 bb 01 19
        E 4 bb 01 18
        E 4 bb 01 16
        E 4 bb 01 15
        E 4 bb 01 14
        E 4 bb 01 13
        E 4 bb 01 12
        E 4 bb 01 10
        E 4 bb 01 0f
        E 4 bb 01 0e
        E 4 bb 01 0d
        E 4 bb 01 0c
        E 4 bb 01 0a
        E 4 bb 01 09
        E 4 bb 01 08
        E 4 bb 01 07
        E 4 bb 01 06
        E 4 bb 01 04
        E 4 bb 01 03
        E 4 bb 01 02
        E 4 bb 01 01
        E 4 bb 01 00
        E 23 bb 01 00
        E 23 bb 01 00
        E 23 bb 01 01
        E 23 bb 01 01
        E 23 bb 01 02
        E 23 bb 01 02
        E 23 bb 01 02
        E 23 bb 01 03
        E 23 bb 01 03
        E 23 bb 01 04
        E 23 bb 01 04
        E 23 bb 01 04
        E 23 bb 01 05
        E 23 bb 01 05
        E 23 bb 01 06
        E 23 bb 01 06
        E 23 bb 01 06
        E 23 bb 01 07
        E 23 bb 01 07
        E 23 bb 01 08
        E 23 bb 01 08
        E 23 bb 01 08
        E 23 bb 01 09
        E 23 bb 01 09
        E 23 bb 01 0a
        E 23 bb 01 0a
        E 23 bb 01 0a
        E 23 bb 01 0b
        E 23 bb 01 0b
        E 23 bb 01 0c
        E 23 bb 01 0c
        E 23 bb 01 0c
        E 23 bb 01 0d
        E 23 bb 01 0d
        E 23 bb 01 0e
        E 23 bb 01 0e
        E 23 bb 01 0e
        E 23 bb 01 0f
        E 23 bb 01 0f
        E 23 bb 01 10
        E 23 bb 01 10
        E 23 bb 01 10
        E 23 bb 01 11
        E 23 bb 01 11
        E 23 bb 01 12
        E 23 bb 01 12
        E 23 bb 01 12
        E 23 bb 01 13
        E 23 bb 01 13
        E 23 bb 01 14
        E 23 bb 01 14
        E 23 bb 01 14
        E 23 bb 01 15
        E 23 bb 01 15
        E 23 bb 01 16
        E 23 bb 01 16
        E 23 bb 01 16
        E 23 bb 01 17
        E 23 bb 01 17
        E 23 bb 01 18
        E 23 bb 01 18
        E 23 bb 01 18
        E 23 bb 01 19
        E 23 bb 01 19
        E 23 bb 01 19
        E 23 bb 01 18
        E 23 bb 01 18
        E 23 bb 01 18
        E 23 bb 01 17
        E 23 bb 01 17
        E 23 bb 01 16
        E 23 bb 01 16
        E 23 bb 01 16
        E 23 bb 01 15
        E 23 bb 01 15
        E 23 bb 01 14
        E 23 bb 01 14
        E 23 bb 01 14
        E 23 bb 01 13
        E 23 bb 01 13
        E 23 bb 01 12
        E 23 bb 01 12
        E 23 bb 01 12
        E 23 bb 01 11
        E 23 bb 01 11
        E 23 bb 01 10
        E 23 bb 01 10
        E 23 bb 01 10
        E 23 bb 01 0f
        E 23 bb 01 0f
        E 23 bb 01 0e
        E 23 bb 01 0e
        E 23 bb 01 0e
        E 23 bb 01 0d
        E 23 bb 01 0d
        E 23 bb 01 0c
        E 23 bb 01 0c
        E 23 bb 01 0c
        E 23 bb 01 0b
        E 23 bb 01 0b
        E 23 bb 01 0a
        E 23 bb 01 0a
        E 23 bb 01 0a
        E 23 bb 01 09
        E 23 bb 01 09
        E 23 bb 01 08
        E 23 bb 01 08
        E 23 bb 01 08
        E 23 bb 01 07
        E 23 bb 01 07
        E 23 bb 01 06
        E 23 bb 01 06
        E 23 bb 01 06
        E 23 bb 01 05
        E 23 bb 01 05
        E 23 bb 01 04
        E 23 bb 01 04
        E 23 bb 01 04
        E 23 bb 01 03
        E 23 bb 01 03
        E 23 bb 01 02
        E 23 bb 01 02
        E 23 bb 01 02
        E 23 bb 01 01
        E 23 bb 01 01
        E 23 bb 01 00
        E 23 bb 01 00
        E 23 bb 01 00
        E 18 bb 01 01
        E 18 bb 01 02
        E 18 bb 01 04
        E 18 bb 01 05
        E 18 bb 01 07
        E 18 bb 01 08
        E 18 bb 01 09
        E 18 bb 01 0b
        E 18 bb 01 0c
        E 18 bb 01 0e
        E 18 bb 01 0f
        E 18 bb 01 10
        E 18 bb 01 12
        E 18 bb 01 13
        E 18 bb 01 15
        E 18 bb 01 16
        E 18 bb 01 17
        E 18 bb 01 19
        E 18 bb 01 1a
        E 18 bb 01 1c
        E 18 bb 01 1d
        E 18 bb 01 1e
        E 18 bb 01 20
        E 18 bb 01 21
        E 18 bb 01 23
        E 18 bb 01 24
        E 18 bb 01 25
        E 18 bb 01 27
        E 18 bb 01 28
        E 18 bb 01 2a
        E 18 bb 01 2b
        E 18 bb 01 2c
        E 18 bb 01 2e
        E 18 bb 01 2f
        E 18 bb 01 31
        E 18 bb 01 32
        E 18 bb 01 33
        E 18 bb 01 35
        E 18 bb 01 36
        E 18 bb 01 38
        E 18 bb 01 39
        E 18 bb 01 3a
        E 18 bb 01 3c
        E 18 bb 01 3d
        E 18 bb 01 3e
        E 18 bb 01 40
        E 18 bb 01 41
        E 18 bb 01 43
        E 18 bb 01 44
        E 18 bb 01 46
        E 18 bb 01 47
        E 18 bb 01 48
        E 18 bb 01 4a
        E 18 bb 01 4b
        E 18 bb 01 4d
        E 18 bb 01 4e
        E 18 bb 01 4f
        E 18 bb 01 51
        E 18 bb 01 52
        E 18 bb 01 54
        E 18 bb 01 55
        E 18 bb 01 56
        E 18 bb 01 58
        E 18 bb 01 58
        E 18 bb 01 58
        E 18 bb 01 56
        E 18 bb 01 55
        E 18 bb 01 54
        E 18 bb 01 52
        E 18 bb 01 51
        E 18 bb 01 4f
        E 18 bb 01 4e
        E 18 bb 01 4d
        E 18 bb 01 4b
        E 18 bb 01 4a
        E 18 bb 01 48
        E 18 bb 01 47
        E 18 bb 01 46
        E 18 bb 01 44
        E 18 bb 01 43
        E 18 bb 01 41
        E 18 bb 01 40
        E 18 bb 01 3e
        E 18 bb 01 3d
        E 18 bb 01 3c
        E 18 bb 01 3a
        E 18 bb 01 39
        E 18 bb 01 38
        E 18 bb 01 36
        E 18 bb 01 35
        E 18 bb 01 33
        E 18 bb 01 32
        E 18 bb 01 31
        E 18 bb 01 2f
        E 18 bb 01 2e
        E 18 bb 01 2c
        E 18 bb 01 2b
        E 18 bb 01 2a
        E 18 bb 01 28
        E 18 bb 01 27
        E 18 bb 01 25
        E 18 bb 01 24
        E 18 bb 01 23
        E 18 bb 01 21
        E 18 bb 01 20
        E 18 bb 01 1e
        E 18 bb 01 1d
        E 18 bb 01 1c
        E 18 bb 01 1a
        E 18 bb 01 19
        E 18 bb 01 17
        E 18 bb 01 16
        E 18 bb 01 15
        E 18 bb 01 13
        E 18 bb 01 12
        E 18 bb 01 10
        E 18 bb 01 0f
        E 18 bb 01 0e
        E 18 bb 01 0c
        E 18 bb 01 0b
        E 18 bb 01 09
        E 18 bb 01 08
        E 18 bb 01 07
        E 18 bb 01 05
        E 18 bb 01 04
        E 18 bb 01 02
        E 18 bb 01 01
        E 18 bb 01 00
        E 4 bb 01 00
        E 4 bb 01 01
        E 4 bb 01 02
        E 4 bb 01 03
        E 4 bb 01 04
        E 4 bb 01 04
        E 4 bb 01 05
        E 4 bb 01 06
        E 4 bb 01 07
        E 4 bb 01 08
        E 4 bb 01 08
        E 4 bb 01 09
        E 4 bb 01 0a
        E 4 bb 01 0b
        E 4 bb 01 0c
        E 4 bb 01 0c
        E 4 bb 01 0d
        E 4 bb 01 0e
        E 4 bb 01 0f
        E 4 bb 01 10
        E 4 bb 01 10
        E 4 bb 01 11
        E 4 bb 01 12
        E 4 bb 01 13
        E 4 bb 01 14
        E 4 bb 01 14
        E 4 bb 01 15
        E 4 bb 01 16
        E 4 bb 01 17
        E 4 bb 01 18
        E 4 bb 01 18
        E 4 bb 01 19
        E 4 bb 01 1a
        E 4 bb 01 1b
        E 4 bb 01 1c
        E 4 bb 01 1c
        E 4 bb 01 1d
        E 4 bb 01 1e
        E 4 bb 01 1f
        E 4 bb 01 20
        E 4 bb 01 20
        E 4 bb 01 21
        E 4 bb 01 22
        E 4 bb 01 23
        E 4 bb 01 24
        E 4 bb 01 24
        E 4 bb 01 25
        E 4 bb 01 26
        E 4 bb 01 27
        E 4 bb 01 28
        E 4 bb 01 28
        E 4 bb 01 29
        E 4 bb 01 2a
        E 4 bb 01 2b
        E 4 bb 01 2c
        E 4 bb 01 2c
        E 4 bb 01 2d
        E 4 bb 01 2e
        E 4 bb 01 2f
        E 4 bb 01 30
        E 4 bb 01 30
        E 4 bb 01 31
        E 4 bb 01 32
        E 4 bb 01 32
        E 4 bb 01 32
        E 4 bb 01 31
        E 4 bb 01 30
        E 4 bb 01 30
        E 4 bb 01 2f
        E 4 bb 01 2e
        E 4 bb 01 2d
        E 4 bb 01 2c
        E 4 bb 01 2c
        E 4 bb 01 2b
        E 4 bb 01 2a
        E 4 bb 01 29
        E 4 bb 01 28
        E 4 bb 01 28
        E 4 bb 01 27
        E 4 bb 01 26
        E 4 bb 01 25
        E 4 bb 01 24
        E 4 bb 01 24
        E 4 bb 01 23
        E 4 bb 01 22
        E 4 bb 01 21
        E 4 bb 01 20
        E 4 bb 01 20
        E 4 bb 01 1f
        E 4 bb 01 1e
        E 4 bb 01 1d
        E 4 bb 01 1c
        E 4 bb 01 1c
        E 4 bb 01 1b
        E 4 bb 01 1a
        E 4 bb 01 19
        E 4 bb 01 18
        E 4 bb 01 18
        E 4 bb 01 17
        E 4 bb 01 16
        E 4 bb 01 15
        E 4 bb 01 14
        E 4 bb 01 14
        E 4 bb 01 13
        E 4 bb 01 12
        E 4 bb 01 11
        E 4 bb 01 10
        E 4 bb 01 10
        E 4 bb 01 0f
        E 4 bb 01 0e
        E 4 bb 01 0d
        E 4 bb 01 0c
        E 4 bb 01 0c
        E 4 bb 01 0b
        E 4 bb 01 0a
        E 4 bb 01 09
        E 4 bb 01 08
        E 4 bb 01 08
        E 4 bb 01 07
        E 4 bb 01 06
        E 4 bb 01 05
        E 4 bb 01 04
        E 4 bb 01 04
        E 4 bb 01 03
        E 4 bb 01 02
        E 4 bb 01 01
        E 4 bb 01 00
        E 4 bb 01 00
        E 42 bb 01 02
        E 42 bb 01 04
        E 42 bb 01 06
        E 42 bb 01 08
        E 42 bb 01 0a
        E 42 bb 01 0c
        E 42 bb 01 0e
        E 42 bb 01 10
        E 42 bb 01 12
        E 42 bb 01 14
        E 42 bb 01 16
        E 42 bb 01 18
        E 42 bb 01 1a
        E 42 bb 01 1c
        E 42 bb 01 1e
        E 42 bb 01 20
        E 42 bb 01 22
        E 42 bb 01 24
        E 42 bb 01 26
        E 42 bb 01 28
        E 42 bb 01 2a
        E 42 bb 01 2c
        E 42 bb 01 2e
        E 42 bb 01 30
        E 42 bb 01 32
        E 42 bb 01 34
        E 42 bb 01 36
        E 42 bb 01 38
        E 42 bb 01 3a
        E 42 bb 01 3c
        E 42 bb 01 3e
        E 42 bb 01 40
        E 42 bb 01 42
        E 42 bb 01 44
        E 42 bb 01 46
        E 42 bb 01 48
        E 42 bb 01 4a
        E 42 bb 01 4c
        E 42 bb 01 4e
        E 42 bb 01 50
        E 42 bb 01 52
        E 42 bb 01 54
        E 42 bb 01 56
        E 42 bb 01 58
        E 42 bb 01 5a
        E 42 bb 01 5c
        E 42 bb 01 5e
        E 42 bb 01 60
        E 42 bb 01 62
        E 42 bb 01 64
        E 42 bb 01 66
        E 42 bb 01 68
        E 42 bb 01 6a
        E 42 bb 01 6c
        E 42 bb 01 6e
        E 42 bb 01 70
        E 42 bb 01 72
        E 42 bb 01 74
        E 42 bb 01 76
        E 42 bb 01 78
        E 42 bb 01 7a
        E 42 bb 01 7c
        E 42 bb 01 7e
        E 42 bb 01 7f
        E 42 bb 01 7e
        E 42 bb 01 7c
        E 42 bb 01 7a
        E 42 bb 01 78
        E 42 bb 01 76
        E 42 bb 01 74
        E 42 bb 01 72
        E 42 bb 01 70
        E 42 bb 01 6e
        E 42 bb 01 6c
        E 42 bb 01 6a
        E 42 bb 01 68
        E 42 bb 01 66
        E 42 bb 01 64
        E 42 bb 01 62
        E 42 bb 01 60
        E 42 bb 01 5e
        E 42 bb 01 5c
        E 42 bb 01 5a
        E 42 bb 01 58
        E 42 bb 01 56
        E 42 bb 01 54
        E 42 bb 01 52
        E 42 bb 01 50
        E 42 bb 01 4e
        E 42 bb 01 4c
        E 42 bb 01 4a
        E 42 bb 01 48
        E 42 bb 01 46
        E 42 bb 01 44
        E 42 bb 01 42
        E 42 bb 01 40
        E 42 bb 01 3e
        E 42 bb 01 3c
        E 42 bb 01 3a
        E 42 bb 01 38
        E 42 bb 01 36
        E 42 bb 01 34
        E 42 bb 01 32
        E 42 bb 01 30
        E 42 bb 01 2e
        E 42 bb 01 2c
        E 42 bb 01 2a
        E 42 bb 01 28
        E 42 bb 01 26
        E 42 bb 01 24
        E 42 bb 01 22
        E 42 bb 01 20
        E 42 bb 01 1e
        E 42 bb 01 1c
        E 42 bb 01 1a
        E 42 bb 01 18
        E 42 bb 01 16
        E 42 bb 01 14
        E 42 bb 01 12
        E 42 bb 01 10
        E 42 bb 01 0e
        E 42 bb 01 0c
        E 42 bb 01 0a
        E 42 bb 01 08
        E 42 bb 01 06
        E 42 bb 01 04
        E 42 bb 01 02
        E 41 bb 01 00
        E 1 b0 7b 00
        CCINTERP 32
        CHASE_CC_TAKEOFFS 1
        GUID {F9B6F29C-6EB8-AA42-9E26-2C9C85873F18}
        IGNTEMPO 0 120 4 4
        SRCCOLOR 421
        VELLANE 3 601 0
        VELLANE -1 196 0
      >
    >
  >
  <EXTENSIONS
  >
>
