<REAPER_PROJECT 0.1 "6.14/OSX64" 1606577344
  RIPPLE 0
  GROUPOVERRIDE 0 0 0
  AUTOXFADE 1
  ENVATTACH 1
  POOLEDENVATTACH 0
  MIXERUIFLAGS 11 48
  PEAKGAIN 1
  FEEDBACK 0
  PANLAW 1
  PROJOFFS 0 0 0
  MAXPROJLEN 0 600
  GRID 3199 8 1 8 1 0 0 0
  TIMEMODE 1 5 -1 30 0 0 -1
  VIDEO_CONFIG 0 0 256
  PANMODE 3
  CURSOR 38.09519999997763
  ZOOM 2.43602707985588 0 0
  VZOOMEX 4 0
  USE_REC_CFG 0
  RECMODE 1
  SMPTESYNC 0 30 100 40 1000 300 0 0 1 0 0
  LOOP 0
  LOOPGRAN 0 4
  RECORD_PATH "Audio Files" ""
  <RECORD_CFG
    ZXZhdxgAAA==
  >
  <APPLYFX_CFG
  >
  RENDER_FILE ""
  RENDER_PATTERN ""
  RENDER_FMT 0 2 0
  RENDER_1X 0
  RENDER_RANGE 1 0 0 18 1000
  RENDER_RESAMPLE 3 0 1
  RENDER_ADDTOPROJ 0
  RENDER_STEMS 0
  RENDER_DITHER 0
  TIMELOCKMODE 0
  TEMPOENVLOCKMODE 1
  ITEMMIX 0
  DEFPITCHMODE 589824 0
  TAKELANE 1
  SAMPLERATE 44100 0 0
  <RENDER_CFG
  >
  LOCK 1
  <METRONOME 6 2
    VOL 0.25 0.125
    FREQ 800 1600 1
    BEATLEN 4
    SAMPLES "" ""
    PATTERN 2863311530 2863311529
  >
  GLOBAL_AUTO -1
  TEMPO 120 4 4
  PLAYRATE 1 0 0.25 4
  SELECTION 0 0
  SELECTION2 0 0
  MASTERAUTOMODE 0
  MASTERTRACKHEIGHT 0 0
  MASTERPEAKCOL 16576
  MASTERMUTESOLO 0
  MASTERTRACKVIEW 0 0.6667 0.5 0.5 0 -1 0 0 0 0 -1 -1 0
  MASTERHWOUT 0 0 1 0 0 0 0 -1
  MASTER_NCH 2 2
  MASTER_VOLUME 1 0 -1 -1 1
  MASTER_FX 1
  MASTER_SEL 0
  <MASTERFXLIST
    SHOW 0
    LASTSEL 0
    DOCKED 0
    BYPASS 0 0 0
    <VST "VST: ReaEQ (Cockos)" reaeq.vst.dylib 0 "" 1919247729<56535472656571726561657100000000> ""
      cWVlcu5e7f4CAAAAAQAAAAAAAAACAAAAAAAAAAIAAAABAAAAAAAAAAIAAAAAAAAAqAAAAAEAAAAAABAA
      IQAAAAQAAAAAAAAAAQAAAAAAAAAAAFlAAAAAAAAA8D8AAAAAAAAAQAEIAAAAAQAAAAAAAAAAwHJAAAAAAAAA8D8AAAAAAAAAQAEIAAAAAQAAAAAAAAAAQI9AAAAAAAAA
      8D8AAAAAAAAAQAEBAAAAAQAAAAAAAAAAiLNAAAAAAAAA8D8AAAAAAAAAQAEBAAAAAQAAAAAAAAAAAPA/AAAAAFQCAABwAQAA
      AAAQAAAA
    >
    FLOATPOS 32 641 596 422
    FXID {788637B0-9EAF-FA4D-BAE8-FF38D9D47992}
    WAK 0 0
    BYPASS 0 0 0
    <AU "AU: SPAN (Voxengo)" "Voxengo: SPAN" "" 1635083896 880176950 1450733159
      6QMAAAAAAAACAAAAAQAAAAAAAAACAAAAAAAAAAIAAAABAAAAAAAAAAIAAAAAAAAA8AcAADw/eG1sIHZlcnNpb249IjEuMCIgZW5jb2Rpbmc9IlVURi04Ij8+CjwhRE9D
      VFlQRSBwbGlzdCBQVUJMSUMgIi0vL0FwcGxlLy9EVEQgUExJU1QgMS4wLy9FTiIgImh0dHA6Ly93d3cuYXBwbGUuY29tL0RURHMvUHJvcGVydHlMaXN0LTEuMC5kdGQi
      Pgo8cGxpc3QgdmVyc2lvbj0iMS4wIj4KPGRpY3Q+Cgk8a2V5PlZveFBsdWdpblN0YXRlPC9rZXk+Cgk8ZGF0YT4KCVlYQnljd2NaQUFBaEFHc0FlSnpGV010dTFEQVVU
      VXNmdzZOMHFBb0NTaDhVSko0cExTMmx3R0tDaEhoSVVCQjhRVHJqCgltYkZJNGhCbldsbzJJTEZBckZqQkFnSGk4UVA4QWF6WUl2RURmRUkvZ2V0SkhKdzRjUk9rbEVo
      VzdyWFBmZmxlMjNIMgoJYUpxMnNFb1dMMTlEVGJOaitjZUJINEsyc3U2YWxPcklNVmNzZEFVNnhxQ1puUVltTXpacDNER3hNeE9EOU1Bd2ExcjQKCTVqUjdLdEJhSHVt
      NEZGbUxRQitRVlBGUmxSYm1GWGFvYnpwMXBEdW1qVzZtZWhXRDlBaDYwdG9VSi9ZejVVUjNUYyswCglhZUJPVndIOUFRUEhaQ05wMEtUeVNvS2Y2eFdZOHpzRVpyNVBZ
      QmI2QmViQ2dNQXNEZ3JNUlZIOUVtZVlDYWFaS1dSNgoJbVBoZzZNdUlIQ04yV28vWk5Hd1ZJT0NTcWFsb1djOW1MZjdXalBpN0VyMFB4enpDamw1dm00NkRyR0ErMThE
      TVNZVm4KCVNYeHkvcXNKL3JZNC8vZjUvTFAzcmVVb0F3RWI1U0Jnb3l3RWJKU0hnSTB5RWJCTE8yUHNwVjBoMjlkbDUyWjN4L201CglQWEgrL0ZDY245OGI1eGVHNC95
      RmFweGY1THlxRkppTHpDL21DN1BQYkRJN3crRzBqU1lUQTBYZ1F4RnNRUCswT2lVaAoJTXJ0Y3BMTEkvY1FMMktaQVlZOXVWY0FjbDcrQTh6L3hiUU1pNStFLzBkVGJo
      Z0F0WTZiR1luN1JObG5UVGN2aXk0WGUKCWd1RlRDdThrQWRXK3pPckZCbmw5RFRzTmtLTjRBMTJIdmduSlFCS1YxTnJMVmI1NkdVUTgrOHc0eExTVHhvTjdWNWRuCgky
      cmlCZEJ2NXlLTTZiUEkrdlFHREoyUXpXWEJWRlBzRk81Q1hycGp1cjd2b1RXb21VNkdpemtwQ2Z4bTBPRGZVUlhVZAoJMnk3eGZMMU9MT0s5N1ZITmpRUlArdDZ2Slo5
      a05mSnR2R3IwUzVnOFdENldCMXNwZ0swV3dJNFd3QjRzZ0QyeUpaYXQKCTBGZ3lPazREZVphNXJuY1AzSGRhMmdwVkNHeDM3VTBsL1BlOWpzMjNEOVBDTFdlMnNiSU1t
      QmxsRUdsU3FsVjZWR1hWCgk4VEhvTU9sZEFKM0xiNWFMcWV4T3F1eXV0bnhzbzQ4QTBmTmJEWVFVV1RQS29LY1ZjYXhZcFA2d3V5OS9BZFJzN2xEKwoJeW1WSE0ycVVR
      YXV5MHNDVVhVdUtaU1VVMnU2MWRFUVJSeE5iMW5zWVA1MDdDQ2FSSGNGbXJReGF0UzZiSG5xa3QzR3IKCS9Wa3JzaTRqc2N4WVh2d3l5cUNudG9yRkltdWZ0Q0k3RzVm
      S3pzcUNVUWF0eWdyMEIxZmt5WjRpV1luRWVDejhpMVc4CglqYkpiUnZnN29WZnUyaUYzOWNsZC9YTFhnTncxS0hkVjVDN1JWKzRROTRLYjV2WkVJenkyQ2NVOGttYVRJ
      djgySU03bQoJbnNSQTVsL1BHN0xLam4yMzJNNFdDbVZYNE85YUdiVHF2UEZNcDRXNks3elllZk5YTGkyYW44OWY2N1h4YjdVeWFOVjYKCUNyeUNSVjVzbDR2RTBtSVoy
      ZjM5cS9GMHFsWUdyWXFGb25yd1U2OVlMSkhZZHArZnF0VUNUckdyV2JIVkVncGx4MUV4Cgl5cURIVlhGWXhFVWZBSEFtZnhSTUpEdUdFYU1NV2xsWE5pRitHenV0Z25Y
      RnhiYTdybFRmWmF3K2luMlgvWTgvQktxVAoJSy9nUlUremtDbVJVSjljK3dTSklJdDFGNWtOMkM1N01OQkxCc3ZWdTF0aWZTdGREY0c1MlB6K1kyNGNralFKQVBQT1QK
      CUxlWFQ0QStBOFVTSQoJPC9kYXRhPgoJPGtleT5kYXRhPC9rZXk+Cgk8ZGF0YT4KCUFBQUFBQUFBQUFBQUFBQUNBQUFBQUFBQUFBQUFBQUFCQUFBQUFBPT0KCTwvZGF0
      YT4KCTxrZXk+bWFudWZhY3R1cmVyPC9rZXk+Cgk8aW50ZWdlcj4xNDUwNzMzMTU5PC9pbnRlZ2VyPgoJPGtleT5uYW1lPC9rZXk+Cgk8c3RyaW5nPlVudGl0bGVkPC9z
      dHJpbmc+Cgk8a2V5PnN1YnR5cGU8L2tleT4KCTxpbnRlZ2VyPjg4MDE3Njk1MDwvaW50ZWdlcj4KCTxrZXk+dHlwZTwva2V5PgoJPGludGVnZXI+MTYzNTA4Mzg5Njwv
      aW50ZWdlcj4KCTxrZXk+dmVyc2lvbjwva2V5PgoJPGludGVnZXI+MDwvaW50ZWdlcj4KPC9kaWN0Pgo8L3BsaXN0PgoBAAAAAAAAAAAA
    >
    FLOATPOS 64 426 850 605
    FXID {158BF5D6-92B1-484A-89DB-8E0414449A2E}
    WAK 0 0
  >
  <MASTERPLAYSPEEDENV
    EGUID {B5607DCC-1AD0-1248-9A2F-AB9C27EFFF05}
    ACT 0 -1
    VIS 0 1 1
    LANEHEIGHT 0 0
    ARM 0
    DEFSHAPE 0 -1 -1
  >
  <TEMPOENVEX
    EGUID {05919879-AF6E-A145-9033-2F0CC9114640}
    ACT 1 -1
    VIS 1 0 1
    LANEHEIGHT 0 0
    ARM 0
    DEFSHAPE 1 -1 -1
    PT 0.000000000000 63.0000630001 1 262148 0 1
  >
  <PROJBAY
  >
  <TRACK {92BA624B-50BB-6644-8BF2-4FA5B059DE10}
    NAME "pepto bismol 4oz bottle"
    PEAKCOL 16576
    BEAT -1
    AUTOMODE 0
    VOLPAN 1 0 -1 -1 1
    MUTESOLO 0 0 0
    IPHASE 0
    PLAYOFFS 0 1
    ISBUS 0 0
    BUSCOMP 0 0 0 0 0
    SHOWINMIX 1 0.6667 0.5 1 0.5 0 -1 0
    FREEMODE 0
    SEL 0
    REC 0 0 1 0 0 0 0
    VU 2
    TRACKHEIGHT 0 0 0 0 -1 0
    INQ 0 0 0 0.5 100 0 0 100
    NCHAN 2
    FX 1
    TRACKID {92BA624B-50BB-6644-8BF2-4FA5B059DE10}
    PERF 0
    MIDIOUT -1
    MAINSEND 1 0
    <FXCHAIN
      SHOW 0
      LASTSEL 0
      DOCKED 0
      BYPASS 0 0 0
      <VST "VSTi: FM8 (Native Instruments GmbH)" FM8.vst 0 "" 1315530296<5653544E696638666D38000000000000> ""
        OGZpTu5e7f4AAAAAAgAAAAEAAAAAAAAAAgAAAAAAAAAYBwAAAQAAAAAAEAA=
        GAcAAAAAAAABAAAAaHNpbgEAAAAAAAAAN455D8DDx0mHoN4j0l/0WZYAAAAAAAAARFNJTnYAAAABAAAASAAAAAAAAABEU0lOagAAAAEAAAAYAAAAAAAAAERTSU4BAAAA
        AQAAAAEAAAABAAAAAQAAAAEAAAAAAAAAAAAAAAAAAAANYmWFAQAAAAhwEAAAAAAAAQAAAAEAAAAAAAAAAAAAAAAAAAADAAAAMAAwADAAAAAAAAAAAAAAAAAAAAAAAAEA
        AAABAAAAAAAAAERTSU5lAAAARgYAAAAAAAABAAAAaHNpbgEAAAAAAAAAMOH4NwAUwEaoogAOyNUgkW0AAAAAAAAARFNJTmUAAAABAAAANAAAAAAAAABEU0lOagAAAAEA
        AAAYAAAAAAAAAERTSU4BAAAAAQAAAAEAAAABAAAAAgAAAAEAAAAACAAAAAEAAAAKAAAAMQAuADIALgAwAC4AMQAwADEAMAABAAAAAwAAAAAAAABEU0lObAAAAKgBAAAA
        AAAAAQAAAGhzaW4BAAAAAAAAACA7190CLVtKvWPIjKqbw/t4AQAAAAAAAERTSU5sAAAAAQAAABgAAAAAAAAARFNJTgEAAAABAAAAAQAAAAEAAAACAAAAAQAAAAAAAAAI
        AAAATgBlAHcAUwBvAHUAbgBkAAcAAABuAG8AdAAgAHMAZQB0AAAAAAAAAAAAAAAAAAAAAAAAAAAAAAAAAAAAAAAAAAAAAAAAAAEAAAABAAAAAQAAAAMAAABGAE0AOAAA
        AAAAAAAAAAcAAAAHAAAAXABAAGMAbwBsAG8AcgABAAAAMAARAAAAXABAAGQAZQB2AGkAYwBlAHQAeQBwAGUAZgBsAGEAZwBzAAEAAAAxAAsAAABcAEAAcwBvAHUAbgBk
        AHQAeQBwAGUAAQAAADAABwAAAFwAQAB0AGUAbQBwAG8AAQAAADAABgAAAFwAQAB2AGUAcgBsAAUAAAAxAC4ANwAuADgABgAAAFwAQAB2AGUAcgBtAAUAAAAxAC4ANwAu
        ADgABwAAAFwAQAB2AGkAcwBpAGIAAQAAADAAAQAAAAAAAAACAAAARFNJTnkAAABoAAAAAAAAAAEAAABoc2luAQAAAAAAAABG64vCmumHRIQ9Mih2ujahOAAAAAAAAABE
        U0lOeQAAAAEAAAAYAAAAAAAAAERTSU4BAAAAAQAAAAEAAAABAAAAAQAAAAAAAAABAAAAAAAAAAEAAABEU0lOdAAAAHUDAAAAAAAAAQAAAGhzaW4BAAAAAAAAAMPiDYJz
        LJxOuWtBgMMVvqRFAwAAAAAAAERTSU50AAAAAQAAACwDAAAAAAAARFNJTnMAAAABAAAAGAAAAAAAAABEU0lOAQAAAAEAAAABAAAAAQAAAAG9DwAA8wIAAAK9DwBgAAAB
        IAUDaHNpbkAHQAAQHyRrBvAZSEqYrqFXTcEPPBhAFCAAA0RTSU5AI+AHA0AAQBsAbSAIAWkPIAQgAEAj4ANTEEkCYzKs2sVGp2B2wrYRj5w5oCfAN0Av4BdnQCMB8Q4g
        XCAAAAUgAwFjDCAEIAAIdHNycEU4TUbPIAsEvCMAAAcgBwZkZWZhdWx04BgKICoAP+ACAwNBAACAIA8AoCAH4AsAAPAgF0AfwAAAICAPwABgFwVAAABIQgDgBABAD0AD
        4BcfYAAge+AEA0AAwBPgAwBAE+AAAAPNzMw+IAwDP5qZGUAXwAPgABcgCuAHG0ATQADgBwdAACATYKtAACALYANAAEALQAAg42AAwA9AB0AD4AMAwA9AB0ADwABAC8AD
        QADAC8AHQADgAwtAAEAP4AMAIA/Bn8AHAMjhDnPgHwDgAO/gDgBAX0ADwABBz8H7QAtAAwCgIINAB0AAALQgCwCWIAPgAwDAP0AHQAPAAEAz4MdLIAAAAcAAIAuAAAAC
        wACADuAdAOAALAD+4B0v4CEAABTgISrgMADBA+AKAGBTgAXgAABChuAXA+AeAOD9WSBZIkBBUgH6Q0AH4FUMQ9VAZwH6Q6BnBYA/zLyMK+BVDOABACBnBAA/ZmZmYAPg
        YwwgAABwJOwB/kJAdCAA4D4MosLgAFaAAKBjgADgOAwgYwRwwgAAhmC6JliAA0BW4EEMIGPgAE3g8AAAUCAA4Of8AP/gFwAABEERCggyAwAAQDIAAAA8QikgAwHwQmLY
        AAEgAYLiIAcgAkKVgAagCSA3oAkgSKAJKxegCQAG4AAJKwSgEyAAoAmASKAGoBPgwk/gSwAAEaBUA2tuYWJBMcAAAYAAIAAAGaARA2N0bmlMiwERJ2FcTFBAAEocAaBC
        4hMPTInAH00bwAvg/QDgvQABIACAAANzaXVnQiQA6CNxwAAAKiAIABkgAyOYYAAj0mAAB2dwdGNZVE1FQAwLDWJlhQEAAAAAAAAAAQAAAAABAAAAAAAAAA==
        ADxkaXNhYmxlZD4AEAAAAA==
      >
      PRESETNAME <disabled>
      FLOATPOS 32 559 948 504
      FXID {3B82A133-3DB6-D54B-8913-1D797DC37BB6}
      WAK 0 0
    >
    <ITEM
      POSITION 0
      SNAPOFFS 0
      LENGTH 53.33328
      LOOP 1
      ALLTAKES 0
      FADEIN 1 0 0 1 0 0
      FADEOUT 1 0 0 1 0 0
      MUTE 0 0
      SEL 0
      IGUID {198F691E-FE15-EE4A-B94E-700251A8DBA8}
      IID 1
      NAME "pepto bismol 4oz bottle.mid"
      VOLPAN 1 0 1 -1
      SOFFS 0 0
      PLAYRATE 1 1 0 -1 0 0.0025
      CHANMODE 0
      GUID {86920444-1BE8-664B-A8E6-6446A0545AD6}
      <SOURCE MIDI
        HASDATA 1 128 QN
        CCINTERP 32
        POOLEDEVTS {1D9B1577-639A-FB45-BD02-DF6C6AC68F5C}
        E 0 90 35 47
        E 128 80 35 47
        E 0 90 38 47
        E 512 80 38 47
        E 0 90 33 47
        E 1152 80 33 47
        E 0 90 35 47
        E 128 80 35 47
        E 0 90 38 47
        E 512 80 38 47
        E 0 90 33 47
        E 1152 80 33 47
        E 0 90 35 47
        E 128 80 35 47
        E 0 90 38 47
        E 512 80 38 47
        E 0 90 33 47
        E 1152 80 33 47
        E 0 90 35 47
        E 128 80 35 47
        E 0 90 38 47
        E 512 80 38 47
        E 0 90 33 47
        E 1151 80 33 47
        E 1 b0 7b 00
        CCINTERP 32
        CHASE_CC_TAKEOFFS 1
        GUID {5E95F302-5D4B-9F42-9B01-727153480C71}
        IGNTEMPO 0 120 4 4
        SRCCOLOR 266
        VELLANE 3 601 0
        VELLANE -1 196 0
      >
    >
  >
  <TRACK {15520AF1-7A32-2D40-BACD-6216A54C97AB}
    NAME "pepto bismol 4oz bottle"
    PEAKCOL 16576
    BEAT -1
    AUTOMODE 0
    VOLPAN 1 0 -1 -1 1
    MUTESOLO 0 0 0
    IPHASE 0
    PLAYOFFS 0 1
    ISBUS 0 0
    BUSCOMP 0 0 0 0 0
    SHOWINMIX 1 0.6667 0.5 1 0.5 0 -1 0
    FREEMODE 0
    SEL 0
    REC 0 0 1 0 0 0 0
    VU 2
    TRACKHEIGHT 0 0 0 0 -1 0
    INQ 0 0 0 0.5 100 0 0 100
    NCHAN 2
    FX 1
    TRACKID {15520AF1-7A32-2D40-BACD-6216A54C97AB}
    PERF 0
    MIDIOUT -1
    MAINSEND 1 0
    <FXCHAIN
      SHOW 0
      LASTSEL 0
      DOCKED 0
      BYPASS 0 0 0
      <VST "VSTi: FM8 (Native Instruments GmbH)" FM8.vst 0 "" 1315530296<5653544E696638666D38000000000000> ""
        OGZpTu5e7f4AAAAAAgAAAAEAAAAAAAAAAgAAAAAAAAAYBwAAAQAAAAAAEAA=
        GAcAAAAAAAABAAAAaHNpbgEAAAAAAAAAN455D8DDx0mHoN4j0l/0WZYAAAAAAAAARFNJTnYAAAABAAAASAAAAAAAAABEU0lOagAAAAEAAAAYAAAAAAAAAERTSU4BAAAA
        AQAAAAEAAAABAAAAAQAAAAEAAAAAAAAAAAAAAAAAAAANYmWFAQAAAAhwEAAAAAAAAQAAAAEAAAAAAAAAAAAAAAAAAAADAAAAMAAwADAAAAAAAAAAAAAAAAAAAAAAAAEA
        AAABAAAAAAAAAERTSU5lAAAARgYAAAAAAAABAAAAaHNpbgEAAAAAAAAAMOH4NwAUwEaoogAOyNUgkW0AAAAAAAAARFNJTmUAAAABAAAANAAAAAAAAABEU0lOagAAAAEA
        AAAYAAAAAAAAAERTSU4BAAAAAQAAAAEAAAABAAAAAgAAAAEAAAAACAAAAAEAAAAKAAAAMQAuADIALgAwAC4AMQAwADEAMAABAAAAAwAAAAAAAABEU0lObAAAAKgBAAAA
        AAAAAQAAAGhzaW4BAAAAAAAAACA7190CLVtKvWPIjKqbw/t4AQAAAAAAAERTSU5sAAAAAQAAABgAAAAAAAAARFNJTgEAAAABAAAAAQAAAAEAAAACAAAAAQAAAAAAAAAI
        AAAATgBlAHcAUwBvAHUAbgBkAAcAAABuAG8AdAAgAHMAZQB0AAAAAAAAAAAAAAAAAAAAAAAAAAAAAAAAAAAAAAAAAAAAAAAAAAEAAAABAAAAAQAAAAMAAABGAE0AOAAA
        AAAAAAAAAAcAAAAHAAAAXABAAGMAbwBsAG8AcgABAAAAMAARAAAAXABAAGQAZQB2AGkAYwBlAHQAeQBwAGUAZgBsAGEAZwBzAAEAAAAxAAsAAABcAEAAcwBvAHUAbgBk
        AHQAeQBwAGUAAQAAADAABwAAAFwAQAB0AGUAbQBwAG8AAQAAADAABgAAAFwAQAB2AGUAcgBsAAUAAAAxAC4ANwAuADgABgAAAFwAQAB2AGUAcgBtAAUAAAAxAC4ANwAu
        ADgABwAAAFwAQAB2AGkAcwBpAGIAAQAAADAAAQAAAAAAAAACAAAARFNJTnkAAABoAAAAAAAAAAEAAABoc2luAQAAAAAAAABG64vCmumHRIQ9Mih2ujahOAAAAAAAAABE
        U0lOeQAAAAEAAAAYAAAAAAAAAERTSU4BAAAAAQAAAAEAAAABAAAAAQAAAAAAAAABAAAAAAAAAAEAAABEU0lOdAAAAHUDAAAAAAAAAQAAAGhzaW4BAAAAAAAAAMPiDYJz
        LJxOuWtBgMMVvqRFAwAAAAAAAERTSU50AAAAAQAAACwDAAAAAAAARFNJTnMAAAABAAAAGAAAAAAAAABEU0lOAQAAAAEAAAABAAAAAQAAAAG9DwAA8wIAAAK9DwBgAAAB
        IAUDaHNpbkAHQAAQHyRrBvAZSEqYrqFXTcEPPBhAFCAAA0RTSU5AI+AHA0AAQBsAbSAIAWkPIAQgAEAj4ANTEEkCYzKs2sVGp2B2wrYRj5w5oCfAN0Av4BdnQCMB8Q4g
        XCAAAAUgAwFjDCAEIAAIdHNycEU4TUbPIAsEvCMAAAcgBwZkZWZhdWx04BgKICoAP+ACAwNBAACAIA8AoCAH4AsAAPAgF0AfwAAAICAPwABgFwVAAABIQgDgBABAD0AD
        4BcfYAAge+AEA0AAwBPgAwBAE+AAAAPNzMw+IAwDP5qZGUAXwAPgABcgCuAHG0ATQADgBwdAACATYKtAACALYANAAEALQAAg42AAwA9AB0AD4AMAwA9AB0ADwABAC8AD
        QADAC8AHQADgAwtAAEAP4AMAIA/Bn8AHAMjhDnPgHwDgAO/gDgBAX0ADwABBz8H7QAtAAwCgIINAB0AAALQgCwCWIAPgAwDAP0AHQAPAAEAz4MdLIAAAAcAAIAuAAAAC
        wACADuAdAOAALAD+4B0v4CEAABTgISrgMADBA+AKAGBTgAXgAABChuAXA+AeAOD9WSBZIkBBUgH6Q0AH4FUMQ9VAZwH6Q6BnBYA/zLyMK+BVDOABACBnBAA/ZmZmYAPg
        YwwgAABwJOwB/kJAdCAA4D4MosLgAFaAAKBjgADgOAwgYwRwwgAAhmC6JliAA0BW4EEMIGPgAE3g8AAAUCAA4Of8AP/gFwAABEERCggyAwAAQDIAAAA8QikgAwHwQmLY
        AAEgAYLiIAcgAkKVgAagCSA3oAkgSKAJKxegCQAG4AAJKwSgEyAAoAmASKAGoBPgwk/gSwAAEaBUA2tuYWJBMcAAAYAAIAAAGaARA2N0bmlMiwERJ2FcTFBAAEocAaBC
        4hMPTInAH00bwAvg/QDgvQABIACAAANzaXVnQiQA6CNxwAAAKiAIABkgAyOYYAAj0mAAB2dwdGNZVE1FQAwLDWJlhQEAAAAAAAAAAQAAAAABAAAAAAAAAA==
        ADxkaXNhYmxlZD4AEAAAAA==
      >
      PRESETNAME <disabled>
      FLOATPOS 0 0 0 0
      FXID {525CB022-A7F9-8C48-89C1-C6A76A3F0D9C}
      WAK 0 0
    >
    <ITEM
      POSITION 0
      SNAPOFFS 0
      LENGTH 197.14266
      LOOP 1
      ALLTAKES 0
      FADEIN 1 0 0 1 0 0
      FADEOUT 1 0 0 1 0 0
      MUTE 0 0
      SEL 0
      IGUID {02DAAB6E-34C2-1E43-AACC-3E2D745D5D8D}
      IID 2
      NAME "pepto bismol 4oz bottle.mid"
      VOLPAN 1 0 1 -1
      SOFFS 0 0
      PLAYRATE 1 1 0 -1 0 0.0025
      CHANMODE 0
      GUID {0CF33689-A921-6F4D-B3A3-3D9114FEF5F9}
      <SOURCE MIDI
        HASDATA 1 128 QN
        CCINTERP 32
        POOLEDEVTS {BCD718FF-C4BD-0948-98FD-ACD9B268E6FE}
        E 0 91 35 47
        E 192 81 35 47
        E 0 91 30 47
        E 576 81 30 47
        E 0 91 3f 47
        E 192 81 3f 47
        E 0 91 30 47
        E 0 91 35 47
        E 256 81 35 47
        E 0 91 33 47
        E 192 81 33 47
        E 0 91 30 47
        E 0 91 35 47
        E 64 81 35 47
        E 0 91 35 47
        E 192 81 35 47
        E 0 91 30 47
        E 576 81 30 47
        E 0 91 3f 47
        E 192 81 3f 47
        E 0 91 30 47
        E 0 91 35 47
        E 256 81 35 47
        E 0 91 33 47
        E 192 81 33 47
        E 0 91 30 47
        E 0 91 35 47
        E 64 81 35 47
        E 0 91 35 47
        E 192 81 35 47
        E 0 91 30 47
        E 576 81 30 47
        E 0 91 3f 47
        E 192 81 3f 47
        E 0 91 30 47
        E 0 91 35 47
        E 256 81 35 47
        E 0 91 33 47
        E 192 81 33 47
        E 0 91 30 47
        E 0 91 35 47
        E 64 81 35 47
        E 0 91 35 47
        E 192 81 35 47
        E 0 91 30 47
        E 576 81 30 47
        E 0 91 3f 47
        E 192 81 3f 47
        E 0 91 30 47
        E 0 91 35 47
        E 256 81 35 47
        E 0 91 33 47
        E 192 81 33 47
        E 0 91 30 47
        E 0 91 35 47
        E 64 81 35 47
        E 0 91 35 47
        E 192 81 35 47
        E 0 91 30 47
        E 576 81 30 47
        E 0 91 3f 47
        E 192 81 3f 47
        E 0 91 30 47
        E 0 91 35 47
        E 256 81 35 47
        E 0 91 33 47
        E 192 81 33 47
        E 0 91 30 47
        E 0 91 35 47
        E 64 81 35 47
        E 0 91 35 47
        E 192 81 35 47
        E 0 91 30 47
        E 576 81 30 47
        E 0 91 3f 47
        E 192 81 3f 47
        E 0 91 30 47
        E 0 91 35 47
        E 256 81 35 47
        E 0 91 33 47
        E 192 81 33 47
        E 0 91 30 47
        E 0 91 35 47
        E 64 81 35 47
        E 0 91 35 47
        E 192 81 35 47
        E 0 91 30 47
        E 576 81 30 47
        E 0 91 3f 47
        E 192 81 3f 47
        E 0 91 30 47
        E 0 91 35 47
        E 256 81 35 47
        E 0 91 33 47
        E 192 81 33 47
        E 0 91 30 47
        E 0 91 35 47
        E 64 81 35 47
        E 0 91 35 47
        E 192 81 35 47
        E 0 91 30 47
        E 576 81 30 47
        E 0 91 3f 47
        E 192 81 3f 47
        E 0 91 30 47
        E 0 91 35 47
        E 256 81 35 47
        E 0 91 33 47
        E 192 81 33 47
        E 0 91 30 47
        E 0 91 35 47
        E 64 81 35 47
        E 0 91 35 47
        E 192 81 35 47
        E 0 91 30 47
        E 576 81 30 47
        E 0 91 3f 47
        E 192 81 3f 47
        E 0 91 30 47
        E 0 91 35 47
        E 256 81 35 47
        E 0 91 33 47
        E 192 81 33 47
        E 0 91 30 47
        E 0 91 35 47
        E 64 81 35 47
        E 0 91 35 47
        E 192 81 35 47
        E 0 91 30 47
        E 576 81 30 47
        E 0 91 3f 47
        E 192 81 3f 47
        E 0 91 30 47
        E 0 91 35 47
        E 256 81 35 47
        E 0 91 33 47
        E 192 81 33 47
        E 0 91 30 47
        E 0 91 35 47
        E 64 81 35 47
        E 0 91 35 47
        E 192 81 35 47
        E 0 91 30 47
        E 576 81 30 47
        E 0 91 3f 47
        E 192 81 3f 47
        E 0 91 30 47
        E 0 91 35 47
        E 256 81 35 47
        E 0 91 33 47
        E 192 81 33 47
        E 0 91 30 47
        E 0 91 35 47
        E 64 81 35 47
        E 0 91 35 47
        E 192 81 35 47
        E 0 91 30 47
        E 576 81 30 47
        E 0 91 3f 47
        E 192 81 3f 47
        E 0 91 30 47
        E 0 91 35 47
        E 256 81 35 47
        E 0 91 33 47
        E 192 81 33 47
        E 0 91 30 47
        E 0 91 35 47
        E 64 81 35 47
        E 0 91 35 47
        E 192 81 35 47
        E 0 91 30 47
        E 576 81 30 47
        E 0 91 3f 47
        E 192 81 3f 47
        E 0 91 30 47
        E 0 91 35 47
        E 256 81 35 47
        E 0 91 33 47
        E 192 81 33 47
        E 0 91 30 47
        E 0 91 35 47
        E 64 81 35 47
        E 0 91 35 47
        E 192 81 35 47
        E 0 91 30 47
        E 576 81 30 47
        E 0 91 3f 47
        E 192 81 3f 47
        E 0 91 30 47
        E 0 91 35 47
        E 256 81 35 47
        E 0 91 33 47
        E 192 81 33 47
        E 0 91 30 47
        E 0 91 35 47
        E 64 81 35 47
        E 0 91 35 47
        E 192 81 35 47
        E 0 91 30 47
        E 576 81 30 47
        E 0 91 3f 47
        E 192 81 3f 47
        E 0 91 30 47
        E 0 91 35 47
        E 256 81 35 47
        E 0 91 33 47
        E 192 81 33 47
        E 0 91 30 47
        E 0 91 35 47
        E 64 81 35 47
        E 0 91 35 47
        E 192 81 35 47
        E 0 91 30 47
        E 576 81 30 47
        E 0 91 3f 47
        E 192 81 3f 47
        E 0 91 30 47
        E 0 91 35 47
        E 256 81 35 47
        E 0 91 33 47
        E 192 81 33 47
        E 0 91 30 47
        E 0 91 35 47
        E 64 81 35 47
        E 0 91 35 47
        E 192 81 35 47
        E 0 91 30 47
        E 576 81 30 47
        E 0 91 3f 47
        E 192 81 3f 47
        E 0 91 30 47
        E 0 91 35 47
        E 256 81 35 47
        E 0 91 33 47
        E 192 81 33 47
        E 0 91 30 47
        E 0 91 35 47
        E 64 81 35 47
        E 0 91 35 47
        E 192 81 35 47
        E 0 91 30 47
        E 576 81 30 47
        E 0 91 3f 47
        E 192 81 3f 47
        E 0 91 30 47
        E 0 91 35 47
        E 256 81 35 47
        E 0 91 33 47
        E 192 81 33 47
        E 0 91 30 47
        E 0 91 35 47
        E 63 81 35 47
        E 1 b0 7b 00
        CCINTERP 32
        CHASE_CC_TAKEOFFS 1
        GUID {D374CE6F-9F58-F44F-A294-356E196CE950}
        IGNTEMPO 0 120 4 4
        SRCCOLOR 267
        VELLANE 3 601 0
        VELLANE -1 196 0
      >
    >
  >
  <TRACK {BFEE6364-B302-8048-86E9-DD45D4231E0D}
    NAME "pepto bismol 4oz bottle"
    PEAKCOL 16576
    BEAT -1
    AUTOMODE 0
    VOLPAN 1 0 -1 -1 1
    MUTESOLO 0 0 0
    IPHASE 0
    PLAYOFFS 0 1
    ISBUS 0 0
    BUSCOMP 0 0 0 0 0
    SHOWINMIX 1 0.6667 0.5 1 0.5 0 -1 0
    FREEMODE 0
    SEL 0
    REC 0 0 1 0 0 0 0
    VU 2
    TRACKHEIGHT 0 0 0 0 -1 0
    INQ 0 0 0 0.5 100 0 0 100
    NCHAN 2
    FX 1
    TRACKID {BFEE6364-B302-8048-86E9-DD45D4231E0D}
    PERF 0
    MIDIOUT -1
    MAINSEND 1 0
    <FXCHAIN
      SHOW 0
      LASTSEL 0
      DOCKED 0
      BYPASS 0 0 0
      <VST "VSTi: FM8 (Native Instruments GmbH)" FM8.vst 0 "" 1315530296<5653544E696638666D38000000000000> ""
        OGZpTu5e7f4AAAAAAgAAAAEAAAAAAAAAAgAAAAAAAAAYBwAAAQAAAAAAEAA=
        GAcAAAAAAAABAAAAaHNpbgEAAAAAAAAAN455D8DDx0mHoN4j0l/0WZYAAAAAAAAARFNJTnYAAAABAAAASAAAAAAAAABEU0lOagAAAAEAAAAYAAAAAAAAAERTSU4BAAAA
        AQAAAAEAAAABAAAAAQAAAAEAAAAAAAAAAAAAAAAAAAANYmWFAQAAAAhwEAAAAAAAAQAAAAEAAAAAAAAAAAAAAAAAAAADAAAAMAAwADAAAAAAAAAAAAAAAAAAAAAAAAEA
        AAABAAAAAAAAAERTSU5lAAAARgYAAAAAAAABAAAAaHNpbgEAAAAAAAAAMOH4NwAUwEaoogAOyNUgkW0AAAAAAAAARFNJTmUAAAABAAAANAAAAAAAAABEU0lOagAAAAEA
        AAAYAAAAAAAAAERTSU4BAAAAAQAAAAEAAAABAAAAAgAAAAEAAAAACAAAAAEAAAAKAAAAMQAuADIALgAwAC4AMQAwADEAMAABAAAAAwAAAAAAAABEU0lObAAAAKgBAAAA
        AAAAAQAAAGhzaW4BAAAAAAAAACA7190CLVtKvWPIjKqbw/t4AQAAAAAAAERTSU5sAAAAAQAAABgAAAAAAAAARFNJTgEAAAABAAAAAQAAAAEAAAACAAAAAQAAAAAAAAAI
        AAAATgBlAHcAUwBvAHUAbgBkAAcAAABuAG8AdAAgAHMAZQB0AAAAAAAAAAAAAAAAAAAAAAAAAAAAAAAAAAAAAAAAAAAAAAAAAAEAAAABAAAAAQAAAAMAAABGAE0AOAAA
        AAAAAAAAAAcAAAAHAAAAXABAAGMAbwBsAG8AcgABAAAAMAARAAAAXABAAGQAZQB2AGkAYwBlAHQAeQBwAGUAZgBsAGEAZwBzAAEAAAAxAAsAAABcAEAAcwBvAHUAbgBk
        AHQAeQBwAGUAAQAAADAABwAAAFwAQAB0AGUAbQBwAG8AAQAAADAABgAAAFwAQAB2AGUAcgBsAAUAAAAxAC4ANwAuADgABgAAAFwAQAB2AGUAcgBtAAUAAAAxAC4ANwAu
        ADgABwAAAFwAQAB2AGkAcwBpAGIAAQAAADAAAQAAAAAAAAACAAAARFNJTnkAAABoAAAAAAAAAAEAAABoc2luAQAAAAAAAABG64vCmumHRIQ9Mih2ujahOAAAAAAAAABE
        U0lOeQAAAAEAAAAYAAAAAAAAAERTSU4BAAAAAQAAAAEAAAABAAAAAQAAAAAAAAABAAAAAAAAAAEAAABEU0lOdAAAAHUDAAAAAAAAAQAAAGhzaW4BAAAAAAAAAMPiDYJz
        LJxOuWtBgMMVvqRFAwAAAAAAAERTSU50AAAAAQAAACwDAAAAAAAARFNJTnMAAAABAAAAGAAAAAAAAABEU0lOAQAAAAEAAAABAAAAAQAAAAG9DwAA8wIAAAK9DwBgAAAB
        IAUDaHNpbkAHQAAQHyRrBvAZSEqYrqFXTcEPPBhAFCAAA0RTSU5AI+AHA0AAQBsAbSAIAWkPIAQgAEAj4ANTEEkCYzKs2sVGp2B2wrYRj5w5oCfAN0Av4BdnQCMB8Q4g
        XCAAAAUgAwFjDCAEIAAIdHNycEU4TUbPIAsEvCMAAAcgBwZkZWZhdWx04BgKICoAP+ACAwNBAACAIA8AoCAH4AsAAPAgF0AfwAAAICAPwABgFwVAAABIQgDgBABAD0AD
        4BcfYAAge+AEA0AAwBPgAwBAE+AAAAPNzMw+IAwDP5qZGUAXwAPgABcgCuAHG0ATQADgBwdAACATYKtAACALYANAAEALQAAg42AAwA9AB0AD4AMAwA9AB0ADwABAC8AD
        QADAC8AHQADgAwtAAEAP4AMAIA/Bn8AHAMjhDnPgHwDgAO/gDgBAX0ADwABBz8H7QAtAAwCgIINAB0AAALQgCwCWIAPgAwDAP0AHQAPAAEAz4MdLIAAAAcAAIAuAAAAC
        wACADuAdAOAALAD+4B0v4CEAABTgISrgMADBA+AKAGBTgAXgAABChuAXA+AeAOD9WSBZIkBBUgH6Q0AH4FUMQ9VAZwH6Q6BnBYA/zLyMK+BVDOABACBnBAA/ZmZmYAPg
        YwwgAABwJOwB/kJAdCAA4D4MosLgAFaAAKBjgADgOAwgYwRwwgAAhmC6JliAA0BW4EEMIGPgAE3g8AAAUCAA4Of8AP/gFwAABEERCggyAwAAQDIAAAA8QikgAwHwQmLY
        AAEgAYLiIAcgAkKVgAagCSA3oAkgSKAJKxegCQAG4AAJKwSgEyAAoAmASKAGoBPgwk/gSwAAEaBUA2tuYWJBMcAAAYAAIAAAGaARA2N0bmlMiwERJ2FcTFBAAEocAaBC
        4hMPTInAH00bwAvg/QDgvQABIACAAANzaXVnQiQA6CNxwAAAKiAIABkgAyOYYAAj0mAAB2dwdGNZVE1FQAwLDWJlhQEAAAAAAAAAAQAAAAABAAAAAAAAAA==
        ADxkaXNhYmxlZD4AEAAAAA==
      >
      PRESETNAME <disabled>
      FLOATPOS 0 0 0 0
      FXID {C82BD773-5EE2-3044-BB55-167011F827B1}
      WAK 0 0
    >
    <ITEM
      POSITION 30.4761599999821
      SNAPOFFS 0
      LENGTH 39.99996000001789
      LOOP 1
      ALLTAKES 0
      FADEIN 1 0 0 1 0 0
      FADEOUT 1 0 0 1 0 0
      MUTE 0 0
      SEL 0
      IGUID {7DC8F199-EB84-C24C-9543-0B18571EE9D6}
      IID 70
      NAME "pepto bismol 4oz bottle.mid"
      VOLPAN 1 0 1 -1
      SOFFS 30.4761599999821 32
      PLAYRATE 1 1 0 -1 0 0.0025
      CHANMODE 0
      GUID {5EBD04FE-83CE-6241-AF84-58E7C4DF50A6}
      <SOURCE MIDI
        HASDATA 1 128 QN
        CCINTERP 32
        POOLEDEVTS {CC6B70FD-17CB-4147-911D-BF221CAA5F10}
        E 4096 92 35 47
        E 25 82 35 47
        E 0 92 38 47
        E 102 82 38 47
        E 0 92 33 47
        E 230 82 33 47
        E 0 92 35 47
        E 25 82 35 47
        E 0 92 38 47
        E 102 82 38 47
        E 0 92 33 47
        E 230 82 33 47
        E 0 92 35 47
        E 25 82 35 47
        E 0 92 38 47
        E 102 82 38 47
        E 0 92 33 47
        E 230 82 33 47
        E 0 92 35 47
        E 25 82 35 47
        E 0 92 38 47
        E 102 82 38 47
        E 0 92 33 47
        E 230 82 33 47
        E 0 92 35 47
        E 25 82 35 47
        E 0 92 38 47
        E 102 82 38 47
        E 0 92 33 47
        E 230 82 33 47
        E 0 92 35 47
        E 25 82 35 47
        E 0 92 38 47
        E 102 82 38 47
        E 0 92 33 47
        E 230 82 33 47
        E 0 92 35 47
        E 25 82 35 47
        E 0 92 38 47
        E 102 82 38 47
        E 0 92 33 47
        E 230 82 33 47
        E 0 92 35 47
        E 25 82 35 47
        E 0 92 38 47
        E 102 82 38 47
        E 0 92 33 47
        E 230 82 33 47
        E 0 92 35 47
        E 25 82 35 47
        E 0 92 38 47
        E 102 82 38 47
        E 0 92 33 47
        E 230 82 33 47
        E 0 92 35 47
        E 25 82 35 47
        E 0 92 38 47
        E 102 82 38 47
        E 0 92 33 47
        E 230 82 33 47
        E 0 92 35 47
        E 25 82 35 47
        E 0 92 38 47
        E 102 82 38 47
        E 0 92 33 47
        E 230 82 33 47
        E 0 92 35 47
        E 25 82 35 47
        E 0 92 38 47
        E 102 82 38 47
        E 0 92 33 47
        E 230 82 33 47
        E 0 92 35 47
        E 25 82 35 47
        E 0 92 38 47
        E 102 82 38 47
        E 0 92 33 47
        E 230 82 33 47
        E 0 92 35 47
        E 25 82 35 47
        E 0 92 38 47
        E 102 82 38 47
        E 0 92 33 47
        E 230 82 33 47
        E 0 92 35 47
        E 25 82 35 47
        E 0 92 38 47
        E 102 82 38 47
        E 0 92 33 47
        E 230 82 33 47
        E 21 b0 7b 00
        CCINTERP 32
        CHASE_CC_TAKEOFFS 1
        GUID {C173B439-8CF8-834C-ACF6-69FF7B601693}
        IGNTEMPO 0 120 4 4
        SRCCOLOR 928
      >
    >
  >
  <TRACK {C1096F5E-CDCD-264C-86B7-A69EECF863EE}
    NAME "pepto bismol 4oz bottle"
    PEAKCOL 16576
    BEAT -1
    AUTOMODE 0
    VOLPAN 1 0 -1 -1 1
    MUTESOLO 0 0 0
    IPHASE 0
    PLAYOFFS 0 1
    ISBUS 0 0
    BUSCOMP 0 0 0 0 0
    SHOWINMIX 1 0.6667 0.5 1 0.5 0 -1 0
    FREEMODE 0
    SEL 0
    REC 0 0 1 0 0 0 0
    VU 2
    TRACKHEIGHT 0 0 0 0 -1 0
    INQ 0 0 0 0.5 100 0 0 100
    NCHAN 2
    FX 1
    TRACKID {C1096F5E-CDCD-264C-86B7-A69EECF863EE}
    PERF 0
    MIDIOUT -1
    MAINSEND 1 0
    <FXCHAIN
      SHOW 0
      LASTSEL 0
      DOCKED 0
      BYPASS 0 0 0
      <VST "VSTi: FM8 (Native Instruments GmbH)" FM8.vst 0 "" 1315530296<5653544E696638666D38000000000000> ""
        OGZpTu5e7f4AAAAAAgAAAAEAAAAAAAAAAgAAAAAAAAAYBwAAAQAAAAAAEAA=
        GAcAAAAAAAABAAAAaHNpbgEAAAAAAAAAN455D8DDx0mHoN4j0l/0WZYAAAAAAAAARFNJTnYAAAABAAAASAAAAAAAAABEU0lOagAAAAEAAAAYAAAAAAAAAERTSU4BAAAA
        AQAAAAEAAAABAAAAAQAAAAEAAAAAAAAAAAAAAAAAAAANYmWFAQAAAAhwEAAAAAAAAQAAAAEAAAAAAAAAAAAAAAAAAAADAAAAMAAwADAAAAAAAAAAAAAAAAAAAAAAAAEA
        AAABAAAAAAAAAERTSU5lAAAARgYAAAAAAAABAAAAaHNpbgEAAAAAAAAAMOH4NwAUwEaoogAOyNUgkW0AAAAAAAAARFNJTmUAAAABAAAANAAAAAAAAABEU0lOagAAAAEA
        AAAYAAAAAAAAAERTSU4BAAAAAQAAAAEAAAABAAAAAgAAAAEAAAAACAAAAAEAAAAKAAAAMQAuADIALgAwAC4AMQAwADEAMAABAAAAAwAAAAAAAABEU0lObAAAAKgBAAAA
        AAAAAQAAAGhzaW4BAAAAAAAAACA7190CLVtKvWPIjKqbw/t4AQAAAAAAAERTSU5sAAAAAQAAABgAAAAAAAAARFNJTgEAAAABAAAAAQAAAAEAAAACAAAAAQAAAAAAAAAI
        AAAATgBlAHcAUwBvAHUAbgBkAAcAAABuAG8AdAAgAHMAZQB0AAAAAAAAAAAAAAAAAAAAAAAAAAAAAAAAAAAAAAAAAAAAAAAAAAEAAAABAAAAAQAAAAMAAABGAE0AOAAA
        AAAAAAAAAAcAAAAHAAAAXABAAGMAbwBsAG8AcgABAAAAMAARAAAAXABAAGQAZQB2AGkAYwBlAHQAeQBwAGUAZgBsAGEAZwBzAAEAAAAxAAsAAABcAEAAcwBvAHUAbgBk
        AHQAeQBwAGUAAQAAADAABwAAAFwAQAB0AGUAbQBwAG8AAQAAADAABgAAAFwAQAB2AGUAcgBsAAUAAAAxAC4ANwAuADgABgAAAFwAQAB2AGUAcgBtAAUAAAAxAC4ANwAu
        ADgABwAAAFwAQAB2AGkAcwBpAGIAAQAAADAAAQAAAAAAAAACAAAARFNJTnkAAABoAAAAAAAAAAEAAABoc2luAQAAAAAAAABG64vCmumHRIQ9Mih2ujahOAAAAAAAAABE
        U0lOeQAAAAEAAAAYAAAAAAAAAERTSU4BAAAAAQAAAAEAAAABAAAAAQAAAAAAAAABAAAAAAAAAAEAAABEU0lOdAAAAHUDAAAAAAAAAQAAAGhzaW4BAAAAAAAAAMPiDYJz
        LJxOuWtBgMMVvqRFAwAAAAAAAERTSU50AAAAAQAAACwDAAAAAAAARFNJTnMAAAABAAAAGAAAAAAAAABEU0lOAQAAAAEAAAABAAAAAQAAAAG9DwAA8wIAAAK9DwBgAAAB
        IAUDaHNpbkAHQAAQHyRrBvAZSEqYrqFXTcEPPBhAFCAAA0RTSU5AI+AHA0AAQBsAbSAIAWkPIAQgAEAj4ANTEEkCYzKs2sVGp2B2wrYRj5w5oCfAN0Av4BdnQCMB8Q4g
        XCAAAAUgAwFjDCAEIAAIdHNycEU4TUbPIAsEvCMAAAcgBwZkZWZhdWx04BgKICoAP+ACAwNBAACAIA8AoCAH4AsAAPAgF0AfwAAAICAPwABgFwVAAABIQgDgBABAD0AD
        4BcfYAAge+AEA0AAwBPgAwBAE+AAAAPNzMw+IAwDP5qZGUAXwAPgABcgCuAHG0ATQADgBwdAACATYKtAACALYANAAEALQAAg42AAwA9AB0AD4AMAwA9AB0ADwABAC8AD
        QADAC8AHQADgAwtAAEAP4AMAIA/Bn8AHAMjhDnPgHwDgAO/gDgBAX0ADwABBz8H7QAtAAwCgIINAB0AAALQgCwCWIAPgAwDAP0AHQAPAAEAz4MdLIAAAAcAAIAuAAAAC
        wACADuAdAOAALAD+4B0v4CEAABTgISrgMADBA+AKAGBTgAXgAABChuAXA+AeAOD9WSBZIkBBUgH6Q0AH4FUMQ9VAZwH6Q6BnBYA/zLyMK+BVDOABACBnBAA/ZmZmYAPg
        YwwgAABwJOwB/kJAdCAA4D4MosLgAFaAAKBjgADgOAwgYwRwwgAAhmC6JliAA0BW4EEMIGPgAE3g8AAAUCAA4Of8AP/gFwAABEERCggyAwAAQDIAAAA8QikgAwHwQmLY
        AAEgAYLiIAcgAkKVgAagCSA3oAkgSKAJKxegCQAG4AAJKwSgEyAAoAmASKAGoBPgwk/gSwAAEaBUA2tuYWJBMcAAAYAAIAAAGaARA2N0bmlMiwERJ2FcTFBAAEocAaBC
        4hMPTInAH00bwAvg/QDgvQABIACAAANzaXVnQiQA6CNxwAAAKiAIABkgAyOYYAAj0mAAB2dwdGNZVE1FQAwLDWJlhQEAAAAAAAAAAQAAAAABAAAAAAAAAA==
        ADxkaXNhYmxlZD4AEAAAAA==
      >
      PRESETNAME <disabled>
      FLOATPOS 0 0 0 0
      FXID {98CB7940-4B41-5740-9C3A-67FF07E7FC7A}
      WAK 0 0
    >
    <ITEM
      POSITION 121.90463999992841
      SNAPOFFS 0
      LENGTH 235.23786000007158
      LOOP 1
      ALLTAKES 0
      FADEIN 1 0 0 1 0 0
      FADEOUT 1 0 0 1 0 0
      MUTE 0 0
      SEL 0
      IGUID {08632153-F58B-8C4C-A79F-16DE02B2A90B}
      IID 71
      NAME "pepto bismol 4oz bottle.mid"
      VOLPAN 1 0 1 -1
      SOFFS 121.90463999992841 128
      PLAYRATE 1 1 0 -1 0 0.0025
      CHANMODE 0
      GUID {1E12D009-37F1-6E45-A2AC-DDDEEBD9A189}
      <SOURCE MIDI
        HASDATA 1 128 QN
        CCINTERP 32
        POOLEDEVTS {26396469-3805-024A-8E59-1E119B13F115}
        E 16384 93 35 47
        E 12 83 35 47
        E 0 93 38 47
        E 51 83 38 47
        E 0 93 33 47
        E 115 83 33 47
        E 0 93 35 47
        E 12 83 35 47
        E 0 93 38 47
        E 51 83 38 47
        E 0 93 33 47
        E 115 83 33 47
        E 0 93 35 47
        E 12 83 35 47
        E 0 93 38 47
        E 51 83 38 47
        E 0 93 33 47
        E 115 83 33 47
        E 0 93 35 47
        E 12 83 35 47
        E 0 93 38 47
        E 51 83 38 47
        E 0 93 33 47
        E 115 83 33 47
        E 0 93 35 47
        E 12 83 35 47
        E 0 93 38 47
        E 51 83 38 47
        E 0 93 33 47
        E 115 83 33 47
        E 0 93 35 47
        E 12 83 35 47
        E 0 93 38 47
        E 51 83 38 47
        E 0 93 33 47
        E 115 83 33 47
        E 0 93 35 47
        E 12 83 35 47
        E 0 93 38 47
        E 51 83 38 47
        E 0 93 33 47
        E 115 83 33 47
        E 0 93 35 47
        E 12 83 35 47
        E 0 93 38 47
        E 51 83 38 47
        E 0 93 33 47
        E 115 83 33 47
        E 0 93 35 47
        E 12 83 35 47
        E 0 93 38 47
        E 51 83 38 47
        E 0 93 33 47
        E 115 83 33 47
        E 0 93 35 47
        E 12 83 35 47
        E 0 93 38 47
        E 51 83 38 47
        E 0 93 33 47
        E 115 83 33 47
        E 0 93 35 47
        E 12 83 35 47
        E 0 93 38 47
        E 51 83 38 47
        E 0 93 33 47
        E 115 83 33 47
        E 0 93 35 47
        E 12 83 35 47
        E 0 93 38 47
        E 51 83 38 47
        E 0 93 33 47
        E 115 83 33 47
        E 0 93 35 47
        E 12 83 35 47
        E 0 93 38 47
        E 51 83 38 47
        E 0 93 33 47
        E 115 83 33 47
        E 0 93 35 47
        E 12 83 35 47
        E 0 93 38 47
        E 51 83 38 47
        E 0 93 33 47
        E 115 83 33 47
        E 0 93 35 47
        E 12 83 35 47
        E 0 93 38 47
        E 51 83 38 47
        E 0 93 33 47
        E 115 83 33 47
        E 0 93 35 47
        E 12 83 35 47
        E 0 93 38 47
        E 51 83 38 47
        E 0 93 33 47
        E 115 83 33 47
        E 0 93 35 47
        E 12 83 35 47
        E 0 93 38 47
        E 51 83 38 47
        E 0 93 33 47
        E 115 83 33 47
        E 0 93 35 47
        E 12 83 35 47
        E 0 93 38 47
        E 51 83 38 47
        E 0 93 33 47
        E 115 83 33 47
        E 0 93 35 47
        E 12 83 35 47
        E 0 93 38 47
        E 51 83 38 47
        E 0 93 33 47
        E 115 83 33 47
        E 0 93 35 47
        E 12 83 35 47
        E 0 93 38 47
        E 51 83 38 47
        E 0 93 33 47
        E 115 83 33 47
        E 0 93 35 47
        E 12 83 35 47
        E 0 93 38 47
        E 51 83 38 47
        E 0 93 33 47
        E 115 83 33 47
        E 0 93 35 47
        E 12 83 35 47
        E 0 93 38 47
        E 51 83 38 47
        E 0 93 33 47
        E 115 83 33 47
        E 0 93 35 47
        E 12 83 35 47
        E 0 93 38 47
        E 51 83 38 47
        E 0 93 33 47
        E 115 83 33 47
        E 0 93 35 47
        E 12 83 35 47
        E 0 93 38 47
        E 51 83 38 47
        E 0 93 33 47
        E 115 83 33 47
        E 0 93 35 47
        E 12 83 35 47
        E 0 93 38 47
        E 51 83 38 47
        E 0 93 33 47
        E 115 83 33 47
        E 0 93 35 47
        E 12 83 35 47
        E 0 93 38 47
        E 51 83 38 47
        E 0 93 33 47
        E 115 83 33 47
        E 0 93 35 47
        E 12 83 35 47
        E 0 93 38 47
        E 51 83 38 47
        E 0 93 33 47
        E 115 83 33 47
        E 0 93 35 47
        E 12 83 35 47
        E 0 93 38 47
        E 51 83 38 47
        E 0 93 33 47
        E 115 83 33 47
        E 0 93 35 47
        E 12 83 35 47
        E 0 93 38 47
        E 51 83 38 47
        E 0 93 33 47
        E 115 83 33 47
        E 0 93 35 47
        E 12 83 35 47
        E 0 93 38 47
        E 51 83 38 47
        E 0 93 33 47
        E 115 83 33 47
        E 0 93 3f 47
        E 0 93 35 47
        E 38 83 35 47
        E 0 93 30 47
        E 115 83 30 47
        E 0 93 3f 47
        E 0 93 35 47
        E 38 83 35 47
        E 0 93 30 47
        E 115 83 30 47
        E 0 93 3f 47
        E 0 93 35 47
        E 38 83 35 47
        E 0 93 30 47
        E 115 83 30 47
        E 0 93 3f 47
        E 0 93 35 47
        E 38 83 35 47
        E 0 93 30 47
        E 115 83 30 47
        E 0 93 3f 47
        E 0 93 35 47
        E 38 83 35 47
        E 0 93 30 47
        E 115 83 30 47
        E 0 93 3f 47
        E 0 93 35 47
        E 38 83 35 47
        E 0 93 30 47
        E 115 83 30 47
        E 0 93 3f 47
        E 0 93 35 47
        E 38 83 35 47
        E 0 93 30 47
        E 115 83 30 47
        E 0 93 3f 47
        E 0 93 35 47
        E 38 83 35 47
        E 0 93 30 47
        E 115 83 30 47
        E 0 93 3f 47
        E 0 93 35 47
        E 38 83 35 47
        E 0 93 30 47
        E 115 83 30 47
        E 0 93 3f 47
        E 0 93 35 47
        E 38 83 35 47
        E 0 93 30 47
        E 115 83 30 47
        E 0 93 3f 47
        E 0 93 35 47
        E 38 83 35 47
        E 0 93 30 47
        E 115 83 30 47
        E 0 93 3f 47
        E 0 93 35 47
        E 38 83 35 47
        E 0 93 30 47
        E 115 83 30 47
        E 0 93 3f 47
        E 0 93 35 47
        E 38 83 35 47
        E 0 93 30 47
        E 115 83 30 47
        E 0 93 3f 47
        E 0 93 35 47
        E 38 83 35 47
        E 0 93 30 47
        E 115 83 30 47
        E 0 93 3f 47
        E 0 93 35 47
        E 38 83 35 47
        E 0 93 30 47
        E 115 83 30 47
        E 0 93 3f 47
        E 0 93 35 47
        E 38 83 35 47
        E 0 93 30 47
        E 115 83 30 47
        E 0 93 3f 47
        E 0 93 35 47
        E 38 83 35 47
        E 0 93 30 47
        E 115 83 30 47
        E 0 93 3f 47
        E 0 93 35 47
        E 38 83 35 47
        E 0 93 30 47
        E 115 83 30 47
        E 0 93 3f 47
        E 0 93 35 47
        E 38 83 35 47
        E 0 93 30 47
        E 115 83 30 47
        E 0 93 3f 47
        E 0 93 35 47
        E 38 83 35 47
        E 0 93 30 47
        E 115 83 30 47
        E 0 93 3f 47
        E 0 93 35 47
        E 38 83 35 47
        E 0 93 30 47
        E 115 83 30 47
        E 0 93 3f 47
        E 0 93 35 47
        E 38 83 35 47
        E 0 93 30 47
        E 115 83 30 47
        E 0 93 3f 47
        E 0 93 35 47
        E 38 83 35 47
        E 0 93 30 47
        E 115 83 30 47
        E 0 93 3f 47
        E 0 93 35 47
        E 38 83 35 47
        E 0 93 30 47
        E 115 83 30 47
        E 0 93 3f 47
        E 0 93 35 47
        E 38 83 35 47
        E 0 93 30 47
        E 115 83 30 47
        E 0 93 3f 47
        E 0 93 35 47
        E 38 83 35 47
        E 0 93 30 47
        E 115 83 30 47
        E 0 93 3f 47
        E 0 93 35 47
        E 38 83 35 47
        E 0 93 30 47
        E 115 83 30 47
        E 0 93 3f 47
        E 0 93 35 47
        E 38 83 35 47
        E 0 93 30 47
        E 115 83 30 47
        E 0 93 3f 47
        E 0 93 35 47
        E 38 83 35 47
        E 0 93 30 47
        E 115 83 30 47
        E 0 93 3f 47
        E 0 93 35 47
        E 38 83 35 47
        E 0 93 30 47
        E 115 83 30 47
        E 0 93 3f 47
        E 0 93 35 47
        E 38 83 35 47
        E 0 93 30 47
        E 115 83 30 47
        E 0 93 3f 47
        E 0 93 35 47
        E 38 83 35 47
        E 0 93 30 47
        E 115 83 30 47
        E 0 93 3f 47
        E 0 93 35 47
        E 38 83 35 47
        E 0 93 30 47
        E 115 83 30 47
        E 0 93 3f 47
        E 0 93 35 47
        E 38 83 35 47
        E 0 93 30 47
        E 115 83 30 47
        E 0 93 3f 47
        E 0 93 35 47
        E 38 83 35 47
        E 0 93 30 47
        E 115 83 30 47
        E 0 93 3f 47
        E 0 93 35 47
        E 38 83 35 47
        E 0 93 30 47
        E 115 83 30 47
        E 0 93 3f 47
        E 0 93 35 47
        E 38 83 35 47
        E 0 93 30 47
        E 115 83 30 47
        E 0 93 3f 47
        E 0 93 35 47
        E 38 83 35 47
        E 0 93 30 47
        E 115 83 30 47
        E 0 93 3f 47
        E 0 93 35 47
        E 38 83 35 47
        E 0 93 30 47
        E 115 83 30 47
        E 0 93 3f 47
        E 0 93 35 47
        E 38 83 35 47
        E 0 93 30 47
        E 115 83 30 47
        E 0 93 3f 47
        E 0 93 35 47
        E 38 83 35 47
        E 0 93 30 47
        E 115 83 30 47
        E 0 93 3f 47
        E 0 93 35 47
        E 38 83 35 47
        E 0 93 30 47
        E 115 83 30 47
        E 0 93 3f 47
        E 0 93 35 47
        E 38 83 35 47
        E 0 93 30 47
        E 115 83 30 47
        E 0 93 3f 47
        E 0 93 35 47
        E 38 83 35 47
        E 0 93 30 47
        E 115 83 30 47
        E 0 93 3f 47
        E 0 93 35 47
        E 38 83 35 47
        E 0 93 30 47
        E 115 83 30 47
        E 0 93 3f 47
        E 0 93 35 47
        E 38 83 35 47
        E 0 93 30 47
        E 115 83 30 47
        E 0 93 3f 47
        E 0 93 35 47
        E 38 83 35 47
        E 0 93 30 47
        E 115 83 30 47
        E 0 93 3f 47
        E 0 93 35 47
        E 38 83 35 47
        E 0 93 30 47
        E 115 83 30 47
        E 0 93 3f 47
        E 0 93 35 47
        E 38 83 35 47
        E 0 93 30 47
        E 115 83 30 47
        E 0 93 3f 47
        E 0 93 35 47
        E 38 83 35 47
        E 0 93 30 47
        E 115 83 30 47
        E 0 93 3f 47
        E 0 93 35 47
        E 38 83 35 47
        E 0 93 30 47
        E 115 83 30 47
        E 0 93 3f 47
        E 0 93 35 47
        E 38 83 35 47
        E 0 93 30 47
        E 115 83 30 47
        E 0 93 3f 47
        E 0 93 35 47
        E 38 83 35 47
        E 0 93 30 47
        E 115 83 30 47
        E 0 93 3f 47
        E 0 93 35 47
        E 38 83 35 47
        E 0 93 30 47
        E 115 83 30 47
        E 0 93 3f 47
        E 0 93 35 47
        E 38 83 35 47
        E 0 93 30 47
        E 115 83 30 47
        E 0 93 3f 47
        E 0 93 35 47
        E 38 83 35 47
        E 0 93 30 47
        E 115 83 30 47
        E 0 93 3f 47
        E 0 93 35 47
        E 38 83 35 47
        E 0 93 30 47
        E 115 83 30 47
        E 0 93 3f 47
        E 0 93 35 47
        E 38 83 35 47
        E 0 93 30 47
        E 115 83 30 47
        E 0 93 3f 47
        E 0 93 35 47
        E 38 83 35 47
        E 0 93 30 47
        E 115 83 30 47
        E 0 93 3f 47
        E 0 93 35 47
        E 38 83 35 47
        E 0 93 30 47
        E 115 83 30 47
        E 0 93 3f 47
        E 0 93 35 47
        E 38 83 35 47
        E 0 93 30 47
        E 115 83 30 47
        E 0 93 3f 47
        E 0 93 35 47
        E 38 83 35 47
        E 0 93 30 47
        E 115 83 30 47
        E 0 93 3f 47
        E 0 93 35 47
        E 38 83 35 47
        E 0 93 30 47
        E 115 83 30 47
        E 0 93 3f 47
        E 0 93 35 47
        E 38 83 35 47
        E 0 93 30 47
        E 115 83 30 47
        E 0 93 3f 47
        E 0 93 35 47
        E 38 83 35 47
        E 0 93 30 47
        E 115 83 30 47
        E 0 93 3f 47
        E 0 93 35 47
        E 38 83 35 47
        E 0 93 30 47
        E 115 83 30 47
        E 0 93 3f 47
        E 0 93 35 47
        E 38 83 35 47
        E 0 93 30 47
        E 115 83 30 47
        E 0 93 3f 47
        E 0 93 35 47
        E 38 83 35 47
        E 0 93 30 47
        E 115 83 30 47
        E 0 93 3f 47
        E 0 93 35 47
        E 38 83 35 47
        E 0 93 30 47
        E 115 83 30 47
        E 0 93 3f 47
        E 0 93 35 47
        E 38 83 35 47
        E 0 93 30 47
        E 115 83 30 47
        E 0 93 3f 47
        E 0 93 35 47
        E 38 83 35 47
        E 0 93 30 47
        E 115 83 30 47
        E 0 93 3f 47
        E 0 93 35 47
        E 38 83 35 47
        E 0 93 30 47
        E 115 83 30 47
        E 0 93 3f 47
        E 0 93 35 47
        E 38 83 35 47
        E 0 93 30 47
        E 115 83 30 47
        E 0 93 3f 47
        E 0 93 35 47
        E 38 83 35 47
        E 0 93 30 47
        E 115 83 30 47
        E 0 93 3f 47
        E 0 93 35 47
        E 38 83 35 47
        E 0 93 30 47
        E 115 83 30 47
        E 0 93 3f 47
        E 0 93 35 47
        E 38 83 35 47
        E 0 93 30 47
        E 115 83 30 47
        E 0 93 3f 47
        E 0 93 35 47
        E 38 83 35 47
        E 0 93 30 47
        E 115 83 30 47
        E 0 93 3f 47
        E 0 93 35 47
        E 38 83 35 47
        E 0 93 30 47
        E 115 83 30 47
        E 0 93 3f 47
        E 0 93 35 47
        E 38 83 35 47
        E 0 93 30 47
        E 115 83 30 47
        E 0 93 3f 47
        E 0 93 35 47
        E 38 83 35 47
        E 0 93 30 47
        E 115 83 30 47
        E 0 93 3f 47
        E 0 93 35 47
        E 38 83 35 47
        E 0 93 30 47
        E 115 83 30 47
        E 0 93 3f 47
        E 0 93 35 47
        E 38 83 35 47
        E 0 93 30 47
        E 115 83 30 47
        E 0 93 3f 47
        E 0 93 35 47
        E 38 83 35 47
        E 0 93 30 47
        E 115 83 30 47
        E 0 93 3f 47
        E 0 93 35 47
        E 38 83 35 47
        E 0 93 30 47
        E 115 83 30 47
        E 0 93 3f 47
        E 0 93 35 47
        E 38 83 35 47
        E 0 93 30 47
        E 115 83 30 47
        E 0 93 3f 47
        E 0 93 35 47
        E 38 83 35 47
        E 0 93 30 47
        E 115 83 30 47
        E 0 93 3f 47
        E 0 93 35 47
        E 38 83 35 47
        E 0 93 30 47
        E 115 83 30 47
        E 0 93 3f 47
        E 0 93 35 47
        E 38 83 35 47
        E 0 93 30 47
        E 115 83 30 47
        E 0 93 3f 47
        E 0 93 35 47
        E 38 83 35 47
        E 0 93 30 47
        E 115 83 30 47
        E 0 93 3f 47
        E 0 93 35 47
        E 38 83 35 47
        E 0 93 30 47
        E 115 83 30 47
        E 0 93 30 47
        E 0 93 35 47
        E 12 83 35 47
        E 0 93 38 47
        E 51 83 38 47
        E 0 93 33 47
        E 115 83 33 47
        E 0 93 30 47
        E 0 93 35 47
        E 12 83 35 47
        E 0 93 38 47
        E 51 83 38 47
        E 0 93 33 47
        E 115 83 33 47
        E 0 93 30 47
        E 0 93 35 47
        E 12 83 35 47
        E 0 93 38 47
        E 51 83 38 47
        E 0 93 33 47
        E 115 83 33 47
        E 0 93 30 47
        E 0 93 35 47
        E 12 83 35 47
        E 0 93 38 47
        E 51 83 38 47
        E 0 93 33 47
        E 115 83 33 47
        E 0 93 30 47
        E 0 93 35 47
        E 12 83 35 47
        E 0 93 38 47
        E 51 83 38 47
        E 0 93 33 47
        E 115 83 33 47
        E 0 93 30 47
        E 0 93 35 47
        E 12 83 35 47
        E 0 93 38 47
        E 51 83 38 47
        E 0 93 33 47
        E 115 83 33 47
        E 0 93 30 47
        E 0 93 35 47
        E 12 83 35 47
        E 0 93 38 47
        E 51 83 38 47
        E 0 93 33 47
        E 115 83 33 47
        E 0 93 30 47
        E 0 93 35 47
        E 12 83 35 47
        E 0 93 38 47
        E 51 83 38 47
        E 0 93 33 47
        E 115 83 33 47
        E 0 93 30 47
        E 0 93 35 47
        E 12 83 35 47
        E 0 93 38 47
        E 51 83 38 47
        E 0 93 33 47
        E 115 83 33 47
        E 0 93 30 47
        E 0 93 35 47
        E 12 83 35 47
        E 0 93 38 47
        E 51 83 38 47
        E 0 93 33 47
        E 115 83 33 47
        E 0 93 30 47
        E 0 93 35 47
        E 12 83 35 47
        E 0 93 38 47
        E 51 83 38 47
        E 0 93 33 47
        E 115 83 33 47
        E 0 93 30 47
        E 0 93 35 47
        E 12 83 35 47
        E 0 93 38 47
        E 51 83 38 47
        E 0 93 33 47
        E 115 83 33 47
        E 0 93 30 47
        E 0 93 35 47
        E 12 83 35 47
        E 0 93 38 47
        E 51 83 38 47
        E 0 93 33 47
        E 115 83 33 47
        E 0 93 30 47
        E 0 93 35 47
        E 12 83 35 47
        E 0 93 38 47
        E 51 83 38 47
        E 0 93 33 47
        E 115 83 33 47
        E 0 93 30 47
        E 0 93 35 47
        E 12 83 35 47
        E 0 93 38 47
        E 51 83 38 47
        E 0 93 33 47
        E 115 83 33 47
        E 0 93 30 47
        E 0 93 35 47
        E 12 83 35 47
        E 0 93 38 47
        E 51 83 38 47
        E 0 93 33 47
        E 115 83 33 47
        E 0 93 30 47
        E 0 93 35 47
        E 12 83 35 47
        E 0 93 38 47
        E 51 83 38 47
        E 0 93 33 47
        E 115 83 33 47
        E 0 93 30 47
        E 0 93 35 47
        E 12 83 35 47
        E 0 93 38 47
        E 51 83 38 47
        E 0 93 33 47
        E 115 83 33 47
        E 0 93 30 47
        E 0 93 35 47
        E 12 83 35 47
        E 0 93 38 47
        E 51 83 38 47
        E 0 93 33 47
        E 115 83 33 47
        E 0 93 30 47
        E 0 93 35 47
        E 12 83 35 47
        E 0 93 38 47
        E 51 83 38 47
        E 0 93 33 47
        E 115 83 33 47
        E 0 93 30 47
        E 0 93 35 47
        E 12 83 35 47
        E 0 93 38 47
        E 51 83 38 47
        E 0 93 33 47
        E 115 83 33 47
        E 0 93 30 47
        E 0 93 35 47
        E 12 83 35 47
        E 0 93 38 47
        E 51 83 38 47
        E 0 93 33 47
        E 115 83 33 47
        E 0 93 30 47
        E 0 93 35 47
        E 12 83 35 47
        E 0 93 38 47
        E 51 83 38 47
        E 0 93 33 47
        E 115 83 33 47
        E 0 93 30 47
        E 0 93 35 47
        E 12 83 35 47
        E 0 93 38 47
        E 51 83 38 47
        E 0 93 33 47
        E 115 83 33 47
        E 0 93 30 47
        E 0 93 35 47
        E 12 83 35 47
        E 0 93 38 47
        E 51 83 38 47
        E 0 93 33 47
        E 115 83 33 47
        E 0 93 30 47
        E 0 93 35 47
        E 12 83 35 47
        E 0 93 38 47
        E 51 83 38 47
        E 0 93 33 47
        E 115 83 33 47
        E 0 93 30 47
        E 0 93 35 47
        E 12 83 35 47
        E 0 93 38 47
        E 51 83 38 47
        E 0 93 33 47
        E 115 83 33 47
        E 0 93 30 47
        E 0 93 35 47
        E 12 83 35 47
        E 0 93 38 47
        E 51 83 38 47
        E 0 93 33 47
        E 115 83 33 47
        E 0 93 30 47
        E 0 93 35 47
        E 12 83 35 47
        E 0 93 38 47
        E 51 83 38 47
        E 0 93 33 47
        E 115 83 33 47
        E 0 93 30 47
        E 0 93 35 47
        E 12 83 35 47
        E 0 93 38 47
        E 51 83 38 47
        E 0 93 33 47
        E 115 83 33 47
        E 0 93 35 47
        E 12 83 35 47
        E 0 93 38 47
        E 51 83 38 47
        E 0 93 33 47
        E 115 83 33 47
        E 0 93 35 47
        E 12 83 35 47
        E 0 93 38 47
        E 51 83 38 47
        E 0 93 33 47
        E 115 83 33 47
        E 0 93 35 47
        E 12 83 35 47
        E 0 93 38 47
        E 51 83 38 47
        E 0 93 33 47
        E 115 83 33 47
        E 0 93 35 47
        E 12 83 35 47
        E 0 93 38 47
        E 51 83 38 47
        E 0 93 33 47
        E 115 83 33 47
        E 0 93 35 47
        E 12 83 35 47
        E 0 93 38 47
        E 51 83 38 47
        E 0 93 33 47
        E 115 83 33 47
        E 0 93 35 47
        E 12 83 35 47
        E 0 93 38 47
        E 51 83 38 47
        E 0 93 33 47
        E 115 83 33 47
        E 0 93 35 47
        E 12 83 35 47
        E 0 93 38 47
        E 51 83 38 47
        E 0 93 33 47
        E 115 83 33 47
        E 0 93 35 47
        E 12 83 35 47
        E 0 93 38 47
        E 51 83 38 47
        E 0 93 33 47
        E 115 83 33 47
        E 0 93 35 47
        E 12 83 35 47
        E 0 93 38 47
        E 51 83 38 47
        E 0 93 33 47
        E 115 83 33 47
        E 0 93 35 47
        E 12 83 35 47
        E 0 93 38 47
        E 51 83 38 47
        E 0 93 33 47
        E 115 83 33 47
        E 0 93 35 47
        E 12 83 35 47
        E 0 93 38 47
        E 51 83 38 47
        E 0 93 33 47
        E 115 83 33 47
        E 0 93 35 47
        E 12 83 35 47
        E 0 93 38 47
        E 51 83 38 47
        E 0 93 33 47
        E 115 83 33 47
        E 0 93 35 47
        E 12 83 35 47
        E 0 93 38 47
        E 51 83 38 47
        E 0 93 33 47
        E 115 83 33 47
        E 0 93 35 47
        E 12 83 35 47
        E 0 93 38 47
        E 51 83 38 47
        E 0 93 33 47
        E 115 83 33 47
        E 0 93 35 47
        E 12 83 35 47
        E 0 93 38 47
        E 51 83 38 47
        E 0 93 33 47
        E 115 83 33 47
        E 0 93 35 47
        E 12 83 35 47
        E 0 93 38 47
        E 51 83 38 47
        E 0 93 33 47
        E 115 83 33 47
        E 0 93 35 47
        E 12 83 35 47
        E 0 93 38 47
        E 51 83 38 47
        E 0 93 33 47
        E 115 83 33 47
        E 0 93 35 47
        E 12 83 35 47
        E 0 93 38 47
        E 51 83 38 47
        E 0 93 33 47
        E 115 83 33 47
        E 0 93 35 47
        E 12 83 35 47
        E 0 93 38 47
        E 51 83 38 47
        E 0 93 33 47
        E 115 83 33 47
        E 0 93 35 47
        E 12 83 35 47
        E 0 93 38 47
        E 51 83 38 47
        E 0 93 33 47
        E 115 83 33 47
        E 0 93 35 47
        E 12 83 35 47
        E 0 93 38 47
        E 51 83 38 47
        E 0 93 33 47
        E 115 83 33 47
        E 0 93 35 47
        E 12 83 35 47
        E 0 93 38 47
        E 51 83 38 47
        E 0 93 33 47
        E 115 83 33 47
        E 0 93 35 47
        E 12 83 35 47
        E 0 93 38 47
        E 51 83 38 47
        E 0 93 33 47
        E 115 83 33 47
        E 0 93 35 47
        E 12 83 35 47
        E 0 93 38 47
        E 51 83 38 47
        E 0 93 33 47
        E 115 83 33 47
        E 0 93 35 47
        E 12 83 35 47
        E 0 93 38 47
        E 51 83 38 47
        E 0 93 33 47
        E 115 83 33 47
        E 0 93 35 47
        E 12 83 35 47
        E 0 93 38 47
        E 51 83 38 47
        E 0 93 33 47
        E 115 83 33 47
        E 0 93 35 47
        E 12 83 35 47
        E 0 93 38 47
        E 51 83 38 47
        E 0 93 33 47
        E 115 83 33 47
        E 0 93 35 47
        E 12 83 35 47
        E 0 93 38 47
        E 51 83 38 47
        E 0 93 33 47
        E 115 83 33 47
        E 0 93 35 47
        E 12 83 35 47
        E 0 93 38 47
        E 51 83 38 47
        E 0 93 33 47
        E 115 83 33 47
        E 0 93 35 47
        E 12 83 35 47
        E 0 93 38 47
        E 51 83 38 47
        E 0 93 33 47
        E 115 83 33 47
        E 0 93 35 47
        E 12 83 35 47
        E 0 93 38 47
        E 51 83 38 47
        E 0 93 33 47
        E 115 83 33 47
        E 0 93 35 47
        E 12 83 35 47
        E 0 93 38 47
        E 51 83 38 47
        E 0 93 33 47
        E 115 83 33 47
        E 0 93 35 47
        E 12 83 35 47
        E 0 93 38 47
        E 51 83 38 47
        E 0 93 33 47
        E 115 83 33 47
        E 0 93 35 47
        E 12 83 35 47
        E 0 93 38 47
        E 51 83 38 47
        E 0 93 33 47
        E 115 83 33 47
        E 0 93 35 47
        E 12 83 35 47
        E 0 93 38 47
        E 51 83 38 47
        E 0 93 33 47
        E 115 83 33 47
        E 0 93 35 47
        E 12 83 35 47
        E 0 93 38 47
        E 51 83 38 47
        E 0 93 33 47
        E 115 83 33 47
        E 0 93 35 47
        E 12 83 35 47
        E 0 93 38 47
        E 51 83 38 47
        E 0 93 33 47
        E 115 83 33 47
        E 0 93 35 47
        E 12 83 35 47
        E 0 93 38 47
        E 51 83 38 47
        E 0 93 33 47
        E 115 83 33 47
        E 0 93 35 47
        E 12 83 35 47
        E 0 93 38 47
        E 51 83 38 47
        E 0 93 33 47
        E 115 83 33 47
        E 0 93 35 47
        E 12 83 35 47
        E 0 93 38 47
        E 51 83 38 47
        E 0 93 33 47
        E 115 83 33 47
        E 46 b0 7b 00
        CCINTERP 32
        CHASE_CC_TAKEOFFS 1
        GUID {E12B6A7B-7CDB-9C42-BF40-223FF378551B}
        IGNTEMPO 0 120 4 4
        SRCCOLOR 929
      >
    >
  >
  <TRACK {398D48D6-A199-BC45-ABA9-0684F61D28D2}
    NAME "pepto bismol 4oz bottle"
    PEAKCOL 16576
    BEAT -1
    AUTOMODE 0
    VOLPAN 1 0 -1 -1 1
    MUTESOLO 0 0 0
    IPHASE 0
    PLAYOFFS 0 1
    ISBUS 0 0
    BUSCOMP 0 0 0 0 0
    SHOWINMIX 1 0.6667 0.5 1 0.5 0 -1 0
    FREEMODE 0
    SEL 0
    REC 0 0 1 0 0 0 0
    VU 2
    TRACKHEIGHT 0 0 0 0 -1 0
    INQ 0 0 0 0.5 100 0 0 100
    NCHAN 2
    FX 1
    TRACKID {398D48D6-A199-BC45-ABA9-0684F61D28D2}
    PERF 0
    MIDIOUT -1
    MAINSEND 1 0
    <FXCHAIN
      SHOW 0
      LASTSEL 0
      DOCKED 0
      BYPASS 0 0 0
      <VST "VSTi: FM8 (Native Instruments GmbH)" FM8.vst 0 "" 1315530296<5653544E696638666D38000000000000> ""
        OGZpTu5e7f4AAAAAAgAAAAEAAAAAAAAAAgAAAAAAAAAYBwAAAQAAAAAAEAA=
        GAcAAAAAAAABAAAAaHNpbgEAAAAAAAAAN455D8DDx0mHoN4j0l/0WZYAAAAAAAAARFNJTnYAAAABAAAASAAAAAAAAABEU0lOagAAAAEAAAAYAAAAAAAAAERTSU4BAAAA
        AQAAAAEAAAABAAAAAQAAAAEAAAAAAAAAAAAAAAAAAAANYmWFAQAAAAhwEAAAAAAAAQAAAAEAAAAAAAAAAAAAAAAAAAADAAAAMAAwADAAAAAAAAAAAAAAAAAAAAAAAAEA
        AAABAAAAAAAAAERTSU5lAAAARgYAAAAAAAABAAAAaHNpbgEAAAAAAAAAMOH4NwAUwEaoogAOyNUgkW0AAAAAAAAARFNJTmUAAAABAAAANAAAAAAAAABEU0lOagAAAAEA
        AAAYAAAAAAAAAERTSU4BAAAAAQAAAAEAAAABAAAAAgAAAAEAAAAACAAAAAEAAAAKAAAAMQAuADIALgAwAC4AMQAwADEAMAABAAAAAwAAAAAAAABEU0lObAAAAKgBAAAA
        AAAAAQAAAGhzaW4BAAAAAAAAACA7190CLVtKvWPIjKqbw/t4AQAAAAAAAERTSU5sAAAAAQAAABgAAAAAAAAARFNJTgEAAAABAAAAAQAAAAEAAAACAAAAAQAAAAAAAAAI
        AAAATgBlAHcAUwBvAHUAbgBkAAcAAABuAG8AdAAgAHMAZQB0AAAAAAAAAAAAAAAAAAAAAAAAAAAAAAAAAAAAAAAAAAAAAAAAAAEAAAABAAAAAQAAAAMAAABGAE0AOAAA
        AAAAAAAAAAcAAAAHAAAAXABAAGMAbwBsAG8AcgABAAAAMAARAAAAXABAAGQAZQB2AGkAYwBlAHQAeQBwAGUAZgBsAGEAZwBzAAEAAAAxAAsAAABcAEAAcwBvAHUAbgBk
        AHQAeQBwAGUAAQAAADAABwAAAFwAQAB0AGUAbQBwAG8AAQAAADAABgAAAFwAQAB2AGUAcgBsAAUAAAAxAC4ANwAuADgABgAAAFwAQAB2AGUAcgBtAAUAAAAxAC4ANwAu
        ADgABwAAAFwAQAB2AGkAcwBpAGIAAQAAADAAAQAAAAAAAAACAAAARFNJTnkAAABoAAAAAAAAAAEAAABoc2luAQAAAAAAAABG64vCmumHRIQ9Mih2ujahOAAAAAAAAABE
        U0lOeQAAAAEAAAAYAAAAAAAAAERTSU4BAAAAAQAAAAEAAAABAAAAAQAAAAAAAAABAAAAAAAAAAEAAABEU0lOdAAAAHUDAAAAAAAAAQAAAGhzaW4BAAAAAAAAAMPiDYJz
        LJxOuWtBgMMVvqRFAwAAAAAAAERTSU50AAAAAQAAACwDAAAAAAAARFNJTnMAAAABAAAAGAAAAAAAAABEU0lOAQAAAAEAAAABAAAAAQAAAAG9DwAA8wIAAAK9DwBgAAAB
        IAUDaHNpbkAHQAAQHyRrBvAZSEqYrqFXTcEPPBhAFCAAA0RTSU5AI+AHA0AAQBsAbSAIAWkPIAQgAEAj4ANTEEkCYzKs2sVGp2B2wrYRj5w5oCfAN0Av4BdnQCMB8Q4g
        XCAAAAUgAwFjDCAEIAAIdHNycEU4TUbPIAsEvCMAAAcgBwZkZWZhdWx04BgKICoAP+ACAwNBAACAIA8AoCAH4AsAAPAgF0AfwAAAICAPwABgFwVAAABIQgDgBABAD0AD
        4BcfYAAge+AEA0AAwBPgAwBAE+AAAAPNzMw+IAwDP5qZGUAXwAPgABcgCuAHG0ATQADgBwdAACATYKtAACALYANAAEALQAAg42AAwA9AB0AD4AMAwA9AB0ADwABAC8AD
        QADAC8AHQADgAwtAAEAP4AMAIA/Bn8AHAMjhDnPgHwDgAO/gDgBAX0ADwABBz8H7QAtAAwCgIINAB0AAALQgCwCWIAPgAwDAP0AHQAPAAEAz4MdLIAAAAcAAIAuAAAAC
        wACADuAdAOAALAD+4B0v4CEAABTgISrgMADBA+AKAGBTgAXgAABChuAXA+AeAOD9WSBZIkBBUgH6Q0AH4FUMQ9VAZwH6Q6BnBYA/zLyMK+BVDOABACBnBAA/ZmZmYAPg
        YwwgAABwJOwB/kJAdCAA4D4MosLgAFaAAKBjgADgOAwgYwRwwgAAhmC6JliAA0BW4EEMIGPgAE3g8AAAUCAA4Of8AP/gFwAABEERCggyAwAAQDIAAAA8QikgAwHwQmLY
        AAEgAYLiIAcgAkKVgAagCSA3oAkgSKAJKxegCQAG4AAJKwSgEyAAoAmASKAGoBPgwk/gSwAAEaBUA2tuYWJBMcAAAYAAIAAAGaARA2N0bmlMiwERJ2FcTFBAAEocAaBC
        4hMPTInAH00bwAvg/QDgvQABIACAAANzaXVnQiQA6CNxwAAAKiAIABkgAyOYYAAj0mAAB2dwdGNZVE1FQAwLDWJlhQEAAAAAAAAAAQAAAAABAAAAAAAAAA==
        ADxkaXNhYmxlZD4AEAAAAA==
      >
      PRESETNAME <disabled>
      FLOATPOS 0 0 0 0
      FXID {A04E0A77-FA8C-4B41-A08F-2D4E6D9E208B}
      WAK 0 0
    >
    <ITEM
      POSITION 274.2854399998389
      SNAPOFFS 0
      LENGTH 39.99996000016108
      LOOP 1
      ALLTAKES 0
      FADEIN 1 0 0 1 0 0
      FADEOUT 1 0 0 1 0 0
      MUTE 0 0
      SEL 0
      IGUID {11DD76C5-8A8A-1C40-844A-72E68BCFC003}
      IID 72
      NAME "pepto bismol 4oz bottle.mid"
      VOLPAN 1 0 1 -1
      SOFFS 274.2854399998389 288
      PLAYRATE 1 1 0 -1 0 0.0025
      CHANMODE 0
      GUID {DF3EA5B3-E34F-E54F-B8EE-59FAC6067995}
      <SOURCE MIDI
        HASDATA 1 128 QN
        CCINTERP 32
        POOLEDEVTS {BA8FA6E0-479E-6A4A-9C6E-FEA18FD6262C}
        E 36864 94 35 47
        E 128 84 35 47
        E 0 94 38 47
        E 512 84 38 47
        E 0 94 33 47
        E 1152 84 33 47
        E 0 94 35 47
        E 128 84 35 47
        E 0 94 38 47
        E 512 84 38 47
        E 0 94 33 47
        E 1152 84 33 47
        E 0 94 35 47
        E 128 84 35 47
        E 0 94 38 47
        E 512 84 38 47
        E 0 94 33 47
        E 1151 84 33 47
        E 1 b0 7b 00
        CCINTERP 32
        CHASE_CC_TAKEOFFS 1
        GUID {FBE12AC5-BB04-474E-85DC-B011DB1C30B7}
        IGNTEMPO 0 120 4 4
        SRCCOLOR 930
      >
    >
  >
  <TRACK {725DDFB4-8A2A-0846-8D05-AFAA50A0CB07}
    NAME "pepto bismol 4oz bottle"
    PEAKCOL 16576
    BEAT -1
    AUTOMODE 0
    VOLPAN 1 0 -1 -1 1
    MUTESOLO 0 0 0
    IPHASE 0
    PLAYOFFS 0 1
    ISBUS 0 0
    BUSCOMP 0 0 0 0 0
    SHOWINMIX 1 0.6667 0.5 1 0.5 0 -1 0
    FREEMODE 0
    SEL 0
    REC 0 0 1 0 0 0 0
    VU 2
    TRACKHEIGHT 0 0 0 0 -1 0
    INQ 0 0 0 0.5 100 0 0 100
    NCHAN 2
    FX 1
    TRACKID {725DDFB4-8A2A-0846-8D05-AFAA50A0CB07}
    PERF 0
    MIDIOUT -1
    MAINSEND 1 0
    <FXCHAIN
      SHOW 0
      LASTSEL 0
      DOCKED 0
      BYPASS 0 0 0
      <VST "VSTi: FM8 (Native Instruments GmbH)" FM8.vst 0 "" 1315530296<5653544E696638666D38000000000000> ""
        OGZpTu5e7f4AAAAAAgAAAAEAAAAAAAAAAgAAAAAAAAAYBwAAAQAAAAAAEAA=
        GAcAAAAAAAABAAAAaHNpbgEAAAAAAAAAN455D8DDx0mHoN4j0l/0WZYAAAAAAAAARFNJTnYAAAABAAAASAAAAAAAAABEU0lOagAAAAEAAAAYAAAAAAAAAERTSU4BAAAA
        AQAAAAEAAAABAAAAAQAAAAEAAAAAAAAAAAAAAAAAAAANYmWFAQAAAAhwEAAAAAAAAQAAAAEAAAAAAAAAAAAAAAAAAAADAAAAMAAwADAAAAAAAAAAAAAAAAAAAAAAAAEA
        AAABAAAAAAAAAERTSU5lAAAARgYAAAAAAAABAAAAaHNpbgEAAAAAAAAAMOH4NwAUwEaoogAOyNUgkW0AAAAAAAAARFNJTmUAAAABAAAANAAAAAAAAABEU0lOagAAAAEA
        AAAYAAAAAAAAAERTSU4BAAAAAQAAAAEAAAABAAAAAgAAAAEAAAAACAAAAAEAAAAKAAAAMQAuADIALgAwAC4AMQAwADEAMAABAAAAAwAAAAAAAABEU0lObAAAAKgBAAAA
        AAAAAQAAAGhzaW4BAAAAAAAAACA7190CLVtKvWPIjKqbw/t4AQAAAAAAAERTSU5sAAAAAQAAABgAAAAAAAAARFNJTgEAAAABAAAAAQAAAAEAAAACAAAAAQAAAAAAAAAI
        AAAATgBlAHcAUwBvAHUAbgBkAAcAAABuAG8AdAAgAHMAZQB0AAAAAAAAAAAAAAAAAAAAAAAAAAAAAAAAAAAAAAAAAAAAAAAAAAEAAAABAAAAAQAAAAMAAABGAE0AOAAA
        AAAAAAAAAAcAAAAHAAAAXABAAGMAbwBsAG8AcgABAAAAMAARAAAAXABAAGQAZQB2AGkAYwBlAHQAeQBwAGUAZgBsAGEAZwBzAAEAAAAxAAsAAABcAEAAcwBvAHUAbgBk
        AHQAeQBwAGUAAQAAADAABwAAAFwAQAB0AGUAbQBwAG8AAQAAADAABgAAAFwAQAB2AGUAcgBsAAUAAAAxAC4ANwAuADgABgAAAFwAQAB2AGUAcgBtAAUAAAAxAC4ANwAu
        ADgABwAAAFwAQAB2AGkAcwBpAGIAAQAAADAAAQAAAAAAAAACAAAARFNJTnkAAABoAAAAAAAAAAEAAABoc2luAQAAAAAAAABG64vCmumHRIQ9Mih2ujahOAAAAAAAAABE
        U0lOeQAAAAEAAAAYAAAAAAAAAERTSU4BAAAAAQAAAAEAAAABAAAAAQAAAAAAAAABAAAAAAAAAAEAAABEU0lOdAAAAHUDAAAAAAAAAQAAAGhzaW4BAAAAAAAAAMPiDYJz
        LJxOuWtBgMMVvqRFAwAAAAAAAERTSU50AAAAAQAAACwDAAAAAAAARFNJTnMAAAABAAAAGAAAAAAAAABEU0lOAQAAAAEAAAABAAAAAQAAAAG9DwAA8wIAAAK9DwBgAAAB
        IAUDaHNpbkAHQAAQHyRrBvAZSEqYrqFXTcEPPBhAFCAAA0RTSU5AI+AHA0AAQBsAbSAIAWkPIAQgAEAj4ANTEEkCYzKs2sVGp2B2wrYRj5w5oCfAN0Av4BdnQCMB8Q4g
        XCAAAAUgAwFjDCAEIAAIdHNycEU4TUbPIAsEvCMAAAcgBwZkZWZhdWx04BgKICoAP+ACAwNBAACAIA8AoCAH4AsAAPAgF0AfwAAAICAPwABgFwVAAABIQgDgBABAD0AD
        4BcfYAAge+AEA0AAwBPgAwBAE+AAAAPNzMw+IAwDP5qZGUAXwAPgABcgCuAHG0ATQADgBwdAACATYKtAACALYANAAEALQAAg42AAwA9AB0AD4AMAwA9AB0ADwABAC8AD
        QADAC8AHQADgAwtAAEAP4AMAIA/Bn8AHAMjhDnPgHwDgAO/gDgBAX0ADwABBz8H7QAtAAwCgIINAB0AAALQgCwCWIAPgAwDAP0AHQAPAAEAz4MdLIAAAAcAAIAuAAAAC
        wACADuAdAOAALAD+4B0v4CEAABTgISrgMADBA+AKAGBTgAXgAABChuAXA+AeAOD9WSBZIkBBUgH6Q0AH4FUMQ9VAZwH6Q6BnBYA/zLyMK+BVDOABACBnBAA/ZmZmYAPg
        YwwgAABwJOwB/kJAdCAA4D4MosLgAFaAAKBjgADgOAwgYwRwwgAAhmC6JliAA0BW4EEMIGPgAE3g8AAAUCAA4Of8AP/gFwAABEERCggyAwAAQDIAAAA8QikgAwHwQmLY
        AAEgAYLiIAcgAkKVgAagCSA3oAkgSKAJKxegCQAG4AAJKwSgEyAAoAmASKAGoBPgwk/gSwAAEaBUA2tuYWJBMcAAAYAAIAAAGaARA2N0bmlMiwERJ2FcTFBAAEocAaBC
        4hMPTInAH00bwAvg/QDgvQABIACAAANzaXVnQiQA6CNxwAAAKiAIABkgAyOYYAAj0mAAB2dwdGNZVE1FQAwLDWJlhQEAAAAAAAAAAQAAAAABAAAAAAAAAA==
        ADxkaXNhYmxlZD4AEAAAAA==
      >
      PRESETNAME <disabled>
      FLOATPOS 0 0 0 0
      FXID {4E464803-786B-2D4E-B858-EBE27C0AD2C4}
      WAK 0 0
    >
    <ITEM
      POSITION 0
      SNAPOFFS 0
      LENGTH 102.85704
      LOOP 1
      ALLTAKES 0
      FADEIN 1 0 0 1 0 0
      FADEOUT 1 0 0 1 0 0
      MUTE 0 0
      SEL 0
      IGUID {A7455C0E-3D26-434E-8FE5-59C1D063D0EB}
      IID 6
      NAME "pepto bismol 4oz bottle.mid"
      VOLPAN 1 0 1 -1
      SOFFS 0 0
      PLAYRATE 1 1 0 -1 0 0.0025
      CHANMODE 0
      GUID {3C8C5A09-3B71-D546-8431-7A1F9B89B9D4}
      <SOURCE MIDI
        HASDATA 1 128 QN
        CCINTERP 32
        POOLEDEVTS {2F019F3D-B188-C044-99F2-E8B1CA52892F}
        E 0 95 3f 47
        E 0 95 35 47
        E 384 85 35 47
        E 0 95 30 47
        E 1152 85 30 47
        E 0 95 3f 47
        E 0 95 35 47
        E 384 85 35 47
        E 0 95 30 47
        E 1152 85 30 47
        E 0 95 3f 47
        E 0 95 35 47
        E 384 85 35 47
        E 0 95 30 47
        E 1152 85 30 47
        E 0 95 3f 47
        E 0 95 35 47
        E 384 85 35 47
        E 0 95 30 47
        E 1152 85 30 47
        E 0 95 3f 47
        E 0 95 35 47
        E 384 85 35 47
        E 0 95 30 47
        E 1152 85 30 47
        E 0 95 3f 47
        E 0 95 35 47
        E 384 85 35 47
        E 0 95 30 47
        E 1152 85 30 47
        E 0 95 3f 47
        E 0 95 35 47
        E 384 85 35 47
        E 0 95 30 47
        E 1152 85 30 47
        E 0 95 3f 47
        E 0 95 35 47
        E 384 85 35 47
        E 0 95 30 47
        E 1152 85 30 47
        E 0 95 3f 47
        E 0 95 35 47
        E 384 85 35 47
        E 0 95 30 47
        E 1151 85 30 47
        E 1 b0 7b 00
        CCINTERP 32
        CHASE_CC_TAKEOFFS 1
        GUID {083EEE85-FC0B-4244-BABB-9B32BCDE50B2}
        IGNTEMPO 0 120 4 4
        SRCCOLOR 271
        VELLANE 3 601 0
        VELLANE -1 196 0
      >
    >
  >
  <TRACK {E3CA31DE-4567-FA4C-B656-E461E65C14E8}
    NAME "pepto bismol 4oz bottle"
    PEAKCOL 16576
    BEAT -1
    AUTOMODE 0
    VOLPAN 1 0 -1 -1 1
    MUTESOLO 0 0 0
    IPHASE 0
    PLAYOFFS 0 1
    ISBUS 0 0
    BUSCOMP 0 0 0 0 0
    SHOWINMIX 1 0.6667 0.5 1 0.5 0 -1 0
    FREEMODE 0
    SEL 0
    REC 0 0 1 0 0 0 0
    VU 2
    TRACKHEIGHT 0 0 0 0 -1 0
    INQ 0 0 0 0.5 100 0 0 100
    NCHAN 2
    FX 1
    TRACKID {E3CA31DE-4567-FA4C-B656-E461E65C14E8}
    PERF 0
    MIDIOUT -1
    MAINSEND 1 0
    <FXCHAIN
      SHOW 0
      LASTSEL 0
      DOCKED 0
      BYPASS 0 0 0
      <VST "VSTi: FM8 (Native Instruments GmbH)" FM8.vst 0 "" 1315530296<5653544E696638666D38000000000000> ""
        OGZpTu5e7f4AAAAAAgAAAAEAAAAAAAAAAgAAAAAAAAAYBwAAAQAAAAAAEAA=
        GAcAAAAAAAABAAAAaHNpbgEAAAAAAAAAN455D8DDx0mHoN4j0l/0WZYAAAAAAAAARFNJTnYAAAABAAAASAAAAAAAAABEU0lOagAAAAEAAAAYAAAAAAAAAERTSU4BAAAA
        AQAAAAEAAAABAAAAAQAAAAEAAAAAAAAAAAAAAAAAAAANYmWFAQAAAAhwEAAAAAAAAQAAAAEAAAAAAAAAAAAAAAAAAAADAAAAMAAwADAAAAAAAAAAAAAAAAAAAAAAAAEA
        AAABAAAAAAAAAERTSU5lAAAARgYAAAAAAAABAAAAaHNpbgEAAAAAAAAAMOH4NwAUwEaoogAOyNUgkW0AAAAAAAAARFNJTmUAAAABAAAANAAAAAAAAABEU0lOagAAAAEA
        AAAYAAAAAAAAAERTSU4BAAAAAQAAAAEAAAABAAAAAgAAAAEAAAAACAAAAAEAAAAKAAAAMQAuADIALgAwAC4AMQAwADEAMAABAAAAAwAAAAAAAABEU0lObAAAAKgBAAAA
        AAAAAQAAAGhzaW4BAAAAAAAAACA7190CLVtKvWPIjKqbw/t4AQAAAAAAAERTSU5sAAAAAQAAABgAAAAAAAAARFNJTgEAAAABAAAAAQAAAAEAAAACAAAAAQAAAAAAAAAI
        AAAATgBlAHcAUwBvAHUAbgBkAAcAAABuAG8AdAAgAHMAZQB0AAAAAAAAAAAAAAAAAAAAAAAAAAAAAAAAAAAAAAAAAAAAAAAAAAEAAAABAAAAAQAAAAMAAABGAE0AOAAA
        AAAAAAAAAAcAAAAHAAAAXABAAGMAbwBsAG8AcgABAAAAMAARAAAAXABAAGQAZQB2AGkAYwBlAHQAeQBwAGUAZgBsAGEAZwBzAAEAAAAxAAsAAABcAEAAcwBvAHUAbgBk
        AHQAeQBwAGUAAQAAADAABwAAAFwAQAB0AGUAbQBwAG8AAQAAADAABgAAAFwAQAB2AGUAcgBsAAUAAAAxAC4ANwAuADgABgAAAFwAQAB2AGUAcgBtAAUAAAAxAC4ANwAu
        ADgABwAAAFwAQAB2AGkAcwBpAGIAAQAAADAAAQAAAAAAAAACAAAARFNJTnkAAABoAAAAAAAAAAEAAABoc2luAQAAAAAAAABG64vCmumHRIQ9Mih2ujahOAAAAAAAAABE
        U0lOeQAAAAEAAAAYAAAAAAAAAERTSU4BAAAAAQAAAAEAAAABAAAAAQAAAAAAAAABAAAAAAAAAAEAAABEU0lOdAAAAHUDAAAAAAAAAQAAAGhzaW4BAAAAAAAAAMPiDYJz
        LJxOuWtBgMMVvqRFAwAAAAAAAERTSU50AAAAAQAAACwDAAAAAAAARFNJTnMAAAABAAAAGAAAAAAAAABEU0lOAQAAAAEAAAABAAAAAQAAAAG9DwAA8wIAAAK9DwBgAAAB
        IAUDaHNpbkAHQAAQHyRrBvAZSEqYrqFXTcEPPBhAFCAAA0RTSU5AI+AHA0AAQBsAbSAIAWkPIAQgAEAj4ANTEEkCYzKs2sVGp2B2wrYRj5w5oCfAN0Av4BdnQCMB8Q4g
        XCAAAAUgAwFjDCAEIAAIdHNycEU4TUbPIAsEvCMAAAcgBwZkZWZhdWx04BgKICoAP+ACAwNBAACAIA8AoCAH4AsAAPAgF0AfwAAAICAPwABgFwVAAABIQgDgBABAD0AD
        4BcfYAAge+AEA0AAwBPgAwBAE+AAAAPNzMw+IAwDP5qZGUAXwAPgABcgCuAHG0ATQADgBwdAACATYKtAACALYANAAEALQAAg42AAwA9AB0AD4AMAwA9AB0ADwABAC8AD
        QADAC8AHQADgAwtAAEAP4AMAIA/Bn8AHAMjhDnPgHwDgAO/gDgBAX0ADwABBz8H7QAtAAwCgIINAB0AAALQgCwCWIAPgAwDAP0AHQAPAAEAz4MdLIAAAAcAAIAuAAAAC
        wACADuAdAOAALAD+4B0v4CEAABTgISrgMADBA+AKAGBTgAXgAABChuAXA+AeAOD9WSBZIkBBUgH6Q0AH4FUMQ9VAZwH6Q6BnBYA/zLyMK+BVDOABACBnBAA/ZmZmYAPg
        YwwgAABwJOwB/kJAdCAA4D4MosLgAFaAAKBjgADgOAwgYwRwwgAAhmC6JliAA0BW4EEMIGPgAE3g8AAAUCAA4Of8AP/gFwAABEERCggyAwAAQDIAAAA8QikgAwHwQmLY
        AAEgAYLiIAcgAkKVgAagCSA3oAkgSKAJKxegCQAG4AAJKwSgEyAAoAmASKAGoBPgwk/gSwAAEaBUA2tuYWJBMcAAAYAAIAAAGaARA2N0bmlMiwERJ2FcTFBAAEocAaBC
        4hMPTInAH00bwAvg/QDgvQABIACAAANzaXVnQiQA6CNxwAAAKiAIABkgAyOYYAAj0mAAB2dwdGNZVE1FQAwLDWJlhQEAAAAAAAAAAQAAAAABAAAAAAAAAA==
        ADxkaXNhYmxlZD4AEAAAAA==
      >
      PRESETNAME <disabled>
      FLOATPOS 0 0 0 0
      FXID {1BA6B58B-50DB-EB43-BAFD-2312DF26ADDE}
      WAK 0 0
    >
    <ITEM
      POSITION 0
      SNAPOFFS 0
      LENGTH 39.99996
      LOOP 1
      ALLTAKES 0
      FADEIN 1 0 0 1 0 0
      FADEOUT 1 0 0 1 0 0
      MUTE 0 0
      SEL 0
      IGUID {52218E6A-82FB-A345-B6DD-0150581CCC06}
      IID 7
      NAME "pepto bismol 4oz bottle.mid"
      VOLPAN 1 0 1 -1
      SOFFS 0 0
      PLAYRATE 1 1 0 -1 0 0.0025
      CHANMODE 0
      GUID {B92C8ED1-2A2D-BC45-ADA8-2EDA555739DC}
      <SOURCE MIDI
        HASDATA 1 128 QN
        CCINTERP 32
        POOLEDEVTS {0934EE94-CA84-FC4E-B6F0-B27CAA1F5C50}
        E 0 96 30 47
        E 0 96 35 47
        E 32 86 35 47
        E 0 96 38 47
        E 128 86 38 47
        E 0 96 33 47
        E 288 86 33 47
        E 0 96 30 47
        E 0 96 35 47
        E 32 86 35 47
        E 0 96 38 47
        E 128 86 38 47
        E 0 96 33 47
        E 288 86 33 47
        E 0 96 30 47
        E 0 96 35 47
        E 32 86 35 47
        E 0 96 38 47
        E 128 86 38 47
        E 0 96 33 47
        E 288 86 33 47
        E 0 96 30 47
        E 0 96 35 47
        E 32 86 35 47
        E 0 96 38 47
        E 128 86 38 47
        E 0 96 33 47
        E 288 86 33 47
        E 0 96 30 47
        E 0 96 35 47
        E 32 86 35 47
        E 0 96 38 47
        E 128 86 38 47
        E 0 96 33 47
        E 288 86 33 47
        E 0 96 30 47
        E 0 96 35 47
        E 32 86 35 47
        E 0 96 38 47
        E 128 86 38 47
        E 0 96 33 47
        E 288 86 33 47
        E 0 96 30 47
        E 0 96 35 47
        E 32 86 35 47
        E 0 96 38 47
        E 128 86 38 47
        E 0 96 33 47
        E 288 86 33 47
        E 0 96 30 47
        E 0 96 35 47
        E 32 86 35 47
        E 0 96 38 47
        E 128 86 38 47
        E 0 96 33 47
        E 288 86 33 47
        E 0 96 30 47
        E 0 96 35 47
        E 32 86 35 47
        E 0 96 38 47
        E 128 86 38 47
        E 0 96 33 47
        E 288 86 33 47
        E 0 96 30 47
        E 0 96 35 47
        E 32 86 35 47
        E 0 96 38 47
        E 128 86 38 47
        E 0 96 33 47
        E 288 86 33 47
        E 0 96 30 47
        E 0 96 35 47
        E 32 86 35 47
        E 0 96 38 47
        E 128 86 38 47
        E 0 96 33 47
        E 288 86 33 47
        E 0 96 30 47
        E 0 96 35 47
        E 32 86 35 47
        E 0 96 38 47
        E 128 86 38 47
        E 0 96 33 47
        E 287 86 33 47
        E 1 b0 7b 00
        CCINTERP 32
        CHASE_CC_TAKEOFFS 1
        GUID {58BC88FA-E0A9-5F44-AECA-7AF072D1F4C7}
        IGNTEMPO 0 120 4 4
        SRCCOLOR 272
        VELLANE 3 601 0
        VELLANE -1 196 0
      >
    >
  >
  <TRACK {1B27201C-FCC0-1B41-AFBA-4503248F2358}
    NAME "pepto bismol 4oz bottle"
    PEAKCOL 16576
    BEAT -1
    AUTOMODE 0
    VOLPAN 1 0 -1 -1 1
    MUTESOLO 0 0 0
    IPHASE 0
    PLAYOFFS 0 1
    ISBUS 0 0
    BUSCOMP 0 0 0 0 0
    SHOWINMIX 1 0.6667 0.5 1 0.5 0 -1 0
    FREEMODE 0
    SEL 0
    REC 0 0 1 0 0 0 0
    VU 2
    TRACKHEIGHT 0 0 0 0 -1 0
    INQ 0 0 0 0.5 100 0 0 100
    NCHAN 2
    FX 1
    TRACKID {1B27201C-FCC0-1B41-AFBA-4503248F2358}
    PERF 0
    MIDIOUT -1
    MAINSEND 1 0
    <FXCHAIN
      SHOW 0
      LASTSEL 0
      DOCKED 0
      BYPASS 0 0 0
      <VST "VSTi: FM8 (Native Instruments GmbH)" FM8.vst 0 "" 1315530296<5653544E696638666D38000000000000> ""
        OGZpTu5e7f4AAAAAAgAAAAEAAAAAAAAAAgAAAAAAAAAYBwAAAQAAAAAAEAA=
        GAcAAAAAAAABAAAAaHNpbgEAAAAAAAAAN455D8DDx0mHoN4j0l/0WZYAAAAAAAAARFNJTnYAAAABAAAASAAAAAAAAABEU0lOagAAAAEAAAAYAAAAAAAAAERTSU4BAAAA
        AQAAAAEAAAABAAAAAQAAAAEAAAAAAAAAAAAAAAAAAAANYmWFAQAAAAhwEAAAAAAAAQAAAAEAAAAAAAAAAAAAAAAAAAADAAAAMAAwADAAAAAAAAAAAAAAAAAAAAAAAAEA
        AAABAAAAAAAAAERTSU5lAAAARgYAAAAAAAABAAAAaHNpbgEAAAAAAAAAMOH4NwAUwEaoogAOyNUgkW0AAAAAAAAARFNJTmUAAAABAAAANAAAAAAAAABEU0lOagAAAAEA
        AAAYAAAAAAAAAERTSU4BAAAAAQAAAAEAAAABAAAAAgAAAAEAAAAACAAAAAEAAAAKAAAAMQAuADIALgAwAC4AMQAwADEAMAABAAAAAwAAAAAAAABEU0lObAAAAKgBAAAA
        AAAAAQAAAGhzaW4BAAAAAAAAACA7190CLVtKvWPIjKqbw/t4AQAAAAAAAERTSU5sAAAAAQAAABgAAAAAAAAARFNJTgEAAAABAAAAAQAAAAEAAAACAAAAAQAAAAAAAAAI
        AAAATgBlAHcAUwBvAHUAbgBkAAcAAABuAG8AdAAgAHMAZQB0AAAAAAAAAAAAAAAAAAAAAAAAAAAAAAAAAAAAAAAAAAAAAAAAAAEAAAABAAAAAQAAAAMAAABGAE0AOAAA
        AAAAAAAAAAcAAAAHAAAAXABAAGMAbwBsAG8AcgABAAAAMAARAAAAXABAAGQAZQB2AGkAYwBlAHQAeQBwAGUAZgBsAGEAZwBzAAEAAAAxAAsAAABcAEAAcwBvAHUAbgBk
        AHQAeQBwAGUAAQAAADAABwAAAFwAQAB0AGUAbQBwAG8AAQAAADAABgAAAFwAQAB2AGUAcgBsAAUAAAAxAC4ANwAuADgABgAAAFwAQAB2AGUAcgBtAAUAAAAxAC4ANwAu
        ADgABwAAAFwAQAB2AGkAcwBpAGIAAQAAADAAAQAAAAAAAAACAAAARFNJTnkAAABoAAAAAAAAAAEAAABoc2luAQAAAAAAAABG64vCmumHRIQ9Mih2ujahOAAAAAAAAABE
        U0lOeQAAAAEAAAAYAAAAAAAAAERTSU4BAAAAAQAAAAEAAAABAAAAAQAAAAAAAAABAAAAAAAAAAEAAABEU0lOdAAAAHUDAAAAAAAAAQAAAGhzaW4BAAAAAAAAAMPiDYJz
        LJxOuWtBgMMVvqRFAwAAAAAAAERTSU50AAAAAQAAACwDAAAAAAAARFNJTnMAAAABAAAAGAAAAAAAAABEU0lOAQAAAAEAAAABAAAAAQAAAAG9DwAA8wIAAAK9DwBgAAAB
        IAUDaHNpbkAHQAAQHyRrBvAZSEqYrqFXTcEPPBhAFCAAA0RTSU5AI+AHA0AAQBsAbSAIAWkPIAQgAEAj4ANTEEkCYzKs2sVGp2B2wrYRj5w5oCfAN0Av4BdnQCMB8Q4g
        XCAAAAUgAwFjDCAEIAAIdHNycEU4TUbPIAsEvCMAAAcgBwZkZWZhdWx04BgKICoAP+ACAwNBAACAIA8AoCAH4AsAAPAgF0AfwAAAICAPwABgFwVAAABIQgDgBABAD0AD
        4BcfYAAge+AEA0AAwBPgAwBAE+AAAAPNzMw+IAwDP5qZGUAXwAPgABcgCuAHG0ATQADgBwdAACATYKtAACALYANAAEALQAAg42AAwA9AB0AD4AMAwA9AB0ADwABAC8AD
        QADAC8AHQADgAwtAAEAP4AMAIA/Bn8AHAMjhDnPgHwDgAO/gDgBAX0ADwABBz8H7QAtAAwCgIINAB0AAALQgCwCWIAPgAwDAP0AHQAPAAEAz4MdLIAAAAcAAIAuAAAAC
        wACADuAdAOAALAD+4B0v4CEAABTgISrgMADBA+AKAGBTgAXgAABChuAXA+AeAOD9WSBZIkBBUgH6Q0AH4FUMQ9VAZwH6Q6BnBYA/zLyMK+BVDOABACBnBAA/ZmZmYAPg
        YwwgAABwJOwB/kJAdCAA4D4MosLgAFaAAKBjgADgOAwgYwRwwgAAhmC6JliAA0BW4EEMIGPgAE3g8AAAUCAA4Of8AP/gFwAABEERCggyAwAAQDIAAAA8QikgAwHwQmLY
        AAEgAYLiIAcgAkKVgAagCSA3oAkgSKAJKxegCQAG4AAJKwSgEyAAoAmASKAGoBPgwk/gSwAAEaBUA2tuYWJBMcAAAYAAIAAAGaARA2N0bmlMiwERJ2FcTFBAAEocAaBC
        4hMPTInAH00bwAvg/QDgvQABIACAAANzaXVnQiQA6CNxwAAAKiAIABkgAyOYYAAj0mAAB2dwdGNZVE1FQAwLDWJlhQEAAAAAAAAAAQAAAAABAAAAAAAAAA==
        ADxkaXNhYmxlZD4AEAAAAA==
      >
      PRESETNAME <disabled>
      FLOATPOS 0 0 0 0
      FXID {663D789A-F2B3-AA48-B4EB-FBF11F839264}
      WAK 0 0
    >
    <ITEM
      POSITION 91.4284799999463
      SNAPOFFS 0
      LENGTH 184.76172000005369
      LOOP 1
      ALLTAKES 0
      FADEIN 1 0 0 1 0 0
      FADEOUT 1 0 0 1 0 0
      MUTE 0 0
      SEL 0
      IGUID {3D15C5B6-9A6B-4443-93A5-D8D196118E3C}
      IID 73
      NAME "pepto bismol 4oz bottle.mid"
      VOLPAN 1 0 1 -1
      SOFFS 91.4284799999463 96
      PLAYRATE 1 1 0 -1 0 0.0025
      CHANMODE 0
      GUID {436B2122-104F-7744-9FAB-D16B86164772}
      <SOURCE MIDI
        HASDATA 1 128 QN
        CCINTERP 32
        POOLEDEVTS {DD5F9141-9EBE-AB43-80BB-827D19C2CD3C}
        E 12288 97 35 47
        E 12 87 35 47
        E 0 97 38 47
        E 51 87 38 47
        E 0 97 33 47
        E 115 87 33 47
        E 0 97 35 47
        E 12 87 35 47
        E 0 97 38 47
        E 51 87 38 47
        E 0 97 33 47
        E 115 87 33 47
        E 0 97 35 47
        E 12 87 35 47
        E 0 97 38 47
        E 51 87 38 47
        E 0 97 33 47
        E 115 87 33 47
        E 0 97 35 47
        E 12 87 35 47
        E 0 97 38 47
        E 51 87 38 47
        E 0 97 33 47
        E 115 87 33 47
        E 0 97 35 47
        E 12 87 35 47
        E 0 97 38 47
        E 51 87 38 47
        E 0 97 33 47
        E 115 87 33 47
        E 0 97 35 47
        E 12 87 35 47
        E 0 97 38 47
        E 51 87 38 47
        E 0 97 33 47
        E 115 87 33 47
        E 0 97 35 47
        E 12 87 35 47
        E 0 97 38 47
        E 51 87 38 47
        E 0 97 33 47
        E 115 87 33 47
        E 0 97 35 47
        E 12 87 35 47
        E 0 97 38 47
        E 51 87 38 47
        E 0 97 33 47
        E 115 87 33 47
        E 0 97 35 47
        E 12 87 35 47
        E 0 97 38 47
        E 51 87 38 47
        E 0 97 33 47
        E 115 87 33 47
        E 0 97 35 47
        E 12 87 35 47
        E 0 97 38 47
        E 51 87 38 47
        E 0 97 33 47
        E 115 87 33 47
        E 0 97 35 47
        E 12 87 35 47
        E 0 97 38 47
        E 51 87 38 47
        E 0 97 33 47
        E 115 87 33 47
        E 0 97 35 47
        E 12 87 35 47
        E 0 97 38 47
        E 51 87 38 47
        E 0 97 33 47
        E 115 87 33 47
        E 0 97 35 47
        E 12 87 35 47
        E 0 97 38 47
        E 51 87 38 47
        E 0 97 33 47
        E 115 87 33 47
        E 0 97 35 47
        E 12 87 35 47
        E 0 97 38 47
        E 51 87 38 47
        E 0 97 33 47
        E 115 87 33 47
        E 0 97 35 47
        E 12 87 35 47
        E 0 97 38 47
        E 51 87 38 47
        E 0 97 33 47
        E 115 87 33 47
        E 0 97 35 47
        E 12 87 35 47
        E 0 97 38 47
        E 51 87 38 47
        E 0 97 33 47
        E 115 87 33 47
        E 0 97 35 47
        E 12 87 35 47
        E 0 97 38 47
        E 51 87 38 47
        E 0 97 33 47
        E 115 87 33 47
        E 0 97 35 47
        E 12 87 35 47
        E 0 97 38 47
        E 51 87 38 47
        E 0 97 33 47
        E 115 87 33 47
        E 0 97 35 47
        E 12 87 35 47
        E 0 97 38 47
        E 51 87 38 47
        E 0 97 33 47
        E 115 87 33 47
        E 0 97 35 47
        E 12 87 35 47
        E 0 97 38 47
        E 51 87 38 47
        E 0 97 33 47
        E 115 87 33 47
        E 0 97 35 47
        E 12 87 35 47
        E 0 97 38 47
        E 51 87 38 47
        E 0 97 33 47
        E 115 87 33 47
        E 0 97 35 47
        E 12 87 35 47
        E 0 97 38 47
        E 51 87 38 47
        E 0 97 33 47
        E 115 87 33 47
        E 0 97 35 47
        E 12 87 35 47
        E 0 97 38 47
        E 51 87 38 47
        E 0 97 33 47
        E 115 87 33 47
        E 0 97 35 47
        E 12 87 35 47
        E 0 97 38 47
        E 51 87 38 47
        E 0 97 33 47
        E 115 87 33 47
        E 0 97 35 47
        E 12 87 35 47
        E 0 97 38 47
        E 51 87 38 47
        E 0 97 33 47
        E 115 87 33 47
        E 0 97 35 47
        E 12 87 35 47
        E 0 97 38 47
        E 51 87 38 47
        E 0 97 33 47
        E 115 87 33 47
        E 0 97 35 47
        E 12 87 35 47
        E 0 97 38 47
        E 51 87 38 47
        E 0 97 33 47
        E 115 87 33 47
        E 0 97 35 47
        E 12 87 35 47
        E 0 97 38 47
        E 51 87 38 47
        E 0 97 33 47
        E 115 87 33 47
        E 0 97 35 47
        E 12 87 35 47
        E 0 97 38 47
        E 51 87 38 47
        E 0 97 33 47
        E 115 87 33 47
        E 0 97 35 47
        E 12 87 35 47
        E 0 97 38 47
        E 51 87 38 47
        E 0 97 33 47
        E 115 87 33 47
        E 0 97 35 47
        E 12 87 35 47
        E 0 97 38 47
        E 51 87 38 47
        E 0 97 33 47
        E 115 87 33 47
        E 0 97 35 47
        E 12 87 35 47
        E 0 97 38 47
        E 51 87 38 47
        E 0 97 33 47
        E 115 87 33 47
        E 0 97 35 47
        E 12 87 35 47
        E 0 97 38 47
        E 51 87 38 47
        E 0 97 33 47
        E 115 87 33 47
        E 0 97 35 47
        E 12 87 35 47
        E 0 97 38 47
        E 51 87 38 47
        E 0 97 33 47
        E 115 87 33 47
        E 0 97 35 47
        E 12 87 35 47
        E 0 97 38 47
        E 51 87 38 47
        E 0 97 33 47
        E 115 87 33 47
        E 0 97 35 47
        E 12 87 35 47
        E 0 97 38 47
        E 51 87 38 47
        E 0 97 33 47
        E 115 87 33 47
        E 0 97 35 47
        E 12 87 35 47
        E 0 97 38 47
        E 51 87 38 47
        E 0 97 33 47
        E 115 87 33 47
        E 0 97 35 47
        E 12 87 35 47
        E 0 97 38 47
        E 51 87 38 47
        E 0 97 33 47
        E 115 87 33 47
        E 0 97 35 47
        E 12 87 35 47
        E 0 97 38 47
        E 51 87 38 47
        E 0 97 33 47
        E 115 87 33 47
        E 0 97 35 47
        E 12 87 35 47
        E 0 97 38 47
        E 51 87 38 47
        E 0 97 33 47
        E 115 87 33 47
        E 0 97 35 47
        E 38 87 35 47
        E 0 97 30 47
        E 115 87 30 47
        E 0 97 3f 47
        E 38 87 3f 47
        E 0 97 30 47
        E 0 97 35 47
        E 51 87 35 47
        E 0 97 33 47
        E 38 87 33 47
        E 0 97 30 47
        E 0 97 35 47
        E 12 87 35 47
        E 0 97 35 47
        E 38 87 35 47
        E 0 97 30 47
        E 115 87 30 47
        E 0 97 3f 47
        E 38 87 3f 47
        E 0 97 30 47
        E 0 97 35 47
        E 51 87 35 47
        E 0 97 33 47
        E 38 87 33 47
        E 0 97 30 47
        E 0 97 35 47
        E 12 87 35 47
        E 0 97 35 47
        E 38 87 35 47
        E 0 97 30 47
        E 115 87 30 47
        E 0 97 3f 47
        E 38 87 3f 47
        E 0 97 30 47
        E 0 97 35 47
        E 51 87 35 47
        E 0 97 33 47
        E 38 87 33 47
        E 0 97 30 47
        E 0 97 35 47
        E 12 87 35 47
        E 0 97 35 47
        E 38 87 35 47
        E 0 97 30 47
        E 115 87 30 47
        E 0 97 3f 47
        E 38 87 3f 47
        E 0 97 30 47
        E 0 97 35 47
        E 51 87 35 47
        E 0 97 33 47
        E 38 87 33 47
        E 0 97 30 47
        E 0 97 35 47
        E 12 87 35 47
        E 0 97 35 47
        E 38 87 35 47
        E 0 97 30 47
        E 115 87 30 47
        E 0 97 3f 47
        E 38 87 3f 47
        E 0 97 30 47
        E 0 97 35 47
        E 51 87 35 47
        E 0 97 33 47
        E 38 87 33 47
        E 0 97 30 47
        E 0 97 35 47
        E 12 87 35 47
        E 0 97 35 47
        E 38 87 35 47
        E 0 97 30 47
        E 115 87 30 47
        E 0 97 3f 47
        E 38 87 3f 47
        E 0 97 30 47
        E 0 97 35 47
        E 51 87 35 47
        E 0 97 33 47
        E 38 87 33 47
        E 0 97 30 47
        E 0 97 35 47
        E 12 87 35 47
        E 0 97 35 47
        E 38 87 35 47
        E 0 97 30 47
        E 115 87 30 47
        E 0 97 3f 47
        E 38 87 3f 47
        E 0 97 30 47
        E 0 97 35 47
        E 51 87 35 47
        E 0 97 33 47
        E 38 87 33 47
        E 0 97 30 47
        E 0 97 35 47
        E 12 87 35 47
        E 0 97 35 47
        E 38 87 35 47
        E 0 97 30 47
        E 115 87 30 47
        E 0 97 3f 47
        E 38 87 3f 47
        E 0 97 30 47
        E 0 97 35 47
        E 51 87 35 47
        E 0 97 33 47
        E 38 87 33 47
        E 0 97 30 47
        E 0 97 35 47
        E 12 87 35 47
        E 0 97 35 47
        E 38 87 35 47
        E 0 97 30 47
        E 115 87 30 47
        E 0 97 3f 47
        E 38 87 3f 47
        E 0 97 30 47
        E 0 97 35 47
        E 51 87 35 47
        E 0 97 33 47
        E 38 87 33 47
        E 0 97 30 47
        E 0 97 35 47
        E 12 87 35 47
        E 0 97 35 47
        E 38 87 35 47
        E 0 97 30 47
        E 115 87 30 47
        E 0 97 3f 47
        E 38 87 3f 47
        E 0 97 30 47
        E 0 97 35 47
        E 51 87 35 47
        E 0 97 33 47
        E 38 87 33 47
        E 0 97 30 47
        E 0 97 35 47
        E 12 87 35 47
        E 0 97 35 47
        E 38 87 35 47
        E 0 97 30 47
        E 115 87 30 47
        E 0 97 3f 47
        E 38 87 3f 47
        E 0 97 30 47
        E 0 97 35 47
        E 51 87 35 47
        E 0 97 33 47
        E 38 87 33 47
        E 0 97 30 47
        E 0 97 35 47
        E 12 87 35 47
        E 0 97 35 47
        E 38 87 35 47
        E 0 97 30 47
        E 115 87 30 47
        E 0 97 3f 47
        E 38 87 3f 47
        E 0 97 30 47
        E 0 97 35 47
        E 51 87 35 47
        E 0 97 33 47
        E 38 87 33 47
        E 0 97 30 47
        E 0 97 35 47
        E 12 87 35 47
        E 0 97 35 47
        E 38 87 35 47
        E 0 97 30 47
        E 115 87 30 47
        E 0 97 3f 47
        E 38 87 3f 47
        E 0 97 30 47
        E 0 97 35 47
        E 51 87 35 47
        E 0 97 33 47
        E 38 87 33 47
        E 0 97 30 47
        E 0 97 35 47
        E 12 87 35 47
        E 0 97 35 47
        E 38 87 35 47
        E 0 97 30 47
        E 115 87 30 47
        E 0 97 3f 47
        E 38 87 3f 47
        E 0 97 30 47
        E 0 97 35 47
        E 51 87 35 47
        E 0 97 33 47
        E 38 87 33 47
        E 0 97 30 47
        E 0 97 35 47
        E 12 87 35 47
        E 0 97 35 47
        E 38 87 35 47
        E 0 97 30 47
        E 115 87 30 47
        E 0 97 3f 47
        E 38 87 3f 47
        E 0 97 30 47
        E 0 97 35 47
        E 51 87 35 47
        E 0 97 33 47
        E 38 87 33 47
        E 0 97 30 47
        E 0 97 35 47
        E 12 87 35 47
        E 0 97 35 47
        E 38 87 35 47
        E 0 97 30 47
        E 115 87 30 47
        E 0 97 3f 47
        E 38 87 3f 47
        E 0 97 30 47
        E 0 97 35 47
        E 51 87 35 47
        E 0 97 33 47
        E 38 87 33 47
        E 0 97 30 47
        E 0 97 35 47
        E 12 87 35 47
        E 0 97 35 47
        E 38 87 35 47
        E 0 97 30 47
        E 115 87 30 47
        E 0 97 3f 47
        E 38 87 3f 47
        E 0 97 30 47
        E 0 97 35 47
        E 51 87 35 47
        E 0 97 33 47
        E 38 87 33 47
        E 0 97 30 47
        E 0 97 35 47
        E 12 87 35 47
        E 0 97 35 47
        E 38 87 35 47
        E 0 97 30 47
        E 115 87 30 47
        E 0 97 3f 47
        E 38 87 3f 47
        E 0 97 30 47
        E 0 97 35 47
        E 51 87 35 47
        E 0 97 33 47
        E 38 87 33 47
        E 0 97 30 47
        E 0 97 35 47
        E 12 87 35 47
        E 0 97 35 47
        E 38 87 35 47
        E 0 97 30 47
        E 115 87 30 47
        E 0 97 3f 47
        E 38 87 3f 47
        E 0 97 30 47
        E 0 97 35 47
        E 51 87 35 47
        E 0 97 33 47
        E 38 87 33 47
        E 0 97 30 47
        E 0 97 35 47
        E 12 87 35 47
        E 0 97 35 47
        E 38 87 35 47
        E 0 97 30 47
        E 115 87 30 47
        E 0 97 3f 47
        E 38 87 3f 47
        E 0 97 30 47
        E 0 97 35 47
        E 51 87 35 47
        E 0 97 33 47
        E 38 87 33 47
        E 0 97 30 47
        E 0 97 35 47
        E 12 87 35 47
        E 0 97 35 47
        E 38 87 35 47
        E 0 97 30 47
        E 115 87 30 47
        E 0 97 3f 47
        E 38 87 3f 47
        E 0 97 30 47
        E 0 97 35 47
        E 51 87 35 47
        E 0 97 33 47
        E 38 87 33 47
        E 0 97 30 47
        E 0 97 35 47
        E 12 87 35 47
        E 0 97 35 47
        E 38 87 35 47
        E 0 97 30 47
        E 115 87 30 47
        E 0 97 3f 47
        E 38 87 3f 47
        E 0 97 30 47
        E 0 97 35 47
        E 51 87 35 47
        E 0 97 33 47
        E 38 87 33 47
        E 0 97 30 47
        E 0 97 35 47
        E 12 87 35 47
        E 0 97 35 47
        E 38 87 35 47
        E 0 97 30 47
        E 115 87 30 47
        E 0 97 3f 47
        E 38 87 3f 47
        E 0 97 30 47
        E 0 97 35 47
        E 51 87 35 47
        E 0 97 33 47
        E 38 87 33 47
        E 0 97 30 47
        E 0 97 35 47
        E 12 87 35 47
        E 0 97 35 47
        E 38 87 35 47
        E 0 97 30 47
        E 115 87 30 47
        E 0 97 3f 47
        E 38 87 3f 47
        E 0 97 30 47
        E 0 97 35 47
        E 51 87 35 47
        E 0 97 33 47
        E 38 87 33 47
        E 0 97 30 47
        E 0 97 35 47
        E 12 87 35 47
        E 0 97 35 47
        E 38 87 35 47
        E 0 97 30 47
        E 115 87 30 47
        E 0 97 3f 47
        E 38 87 3f 47
        E 0 97 30 47
        E 0 97 35 47
        E 51 87 35 47
        E 0 97 33 47
        E 38 87 33 47
        E 0 97 30 47
        E 0 97 35 47
        E 12 87 35 47
        E 0 97 35 47
        E 38 87 35 47
        E 0 97 30 47
        E 115 87 30 47
        E 0 97 3f 47
        E 38 87 3f 47
        E 0 97 30 47
        E 0 97 35 47
        E 51 87 35 47
        E 0 97 33 47
        E 38 87 33 47
        E 0 97 30 47
        E 0 97 35 47
        E 12 87 35 47
        E 0 97 35 47
        E 38 87 35 47
        E 0 97 30 47
        E 115 87 30 47
        E 0 97 3f 47
        E 38 87 3f 47
        E 0 97 30 47
        E 0 97 35 47
        E 51 87 35 47
        E 0 97 33 47
        E 38 87 33 47
        E 0 97 30 47
        E 0 97 35 47
        E 12 87 35 47
        E 0 97 35 47
        E 38 87 35 47
        E 0 97 30 47
        E 115 87 30 47
        E 0 97 3f 47
        E 38 87 3f 47
        E 0 97 30 47
        E 0 97 35 47
        E 51 87 35 47
        E 0 97 33 47
        E 38 87 33 47
        E 0 97 30 47
        E 0 97 35 47
        E 12 87 35 47
        E 0 97 35 47
        E 38 87 35 47
        E 0 97 30 47
        E 115 87 30 47
        E 0 97 3f 47
        E 38 87 3f 47
        E 0 97 30 47
        E 0 97 35 47
        E 51 87 35 47
        E 0 97 33 47
        E 38 87 33 47
        E 0 97 30 47
        E 0 97 35 47
        E 12 87 35 47
        E 0 97 35 47
        E 38 87 35 47
        E 0 97 30 47
        E 115 87 30 47
        E 0 97 3f 47
        E 38 87 3f 47
        E 0 97 30 47
        E 0 97 35 47
        E 51 87 35 47
        E 0 97 33 47
        E 38 87 33 47
        E 0 97 30 47
        E 0 97 35 47
        E 12 87 35 47
        E 0 97 35 47
        E 12 87 35 47
        E 0 97 38 47
        E 51 87 38 47
        E 0 97 33 47
        E 115 87 33 47
        E 0 97 35 47
        E 12 87 35 47
        E 0 97 38 47
        E 51 87 38 47
        E 0 97 33 47
        E 115 87 33 47
        E 0 97 35 47
        E 12 87 35 47
        E 0 97 38 47
        E 51 87 38 47
        E 0 97 33 47
        E 115 87 33 47
        E 0 97 35 47
        E 12 87 35 47
        E 0 97 38 47
        E 51 87 38 47
        E 0 97 33 47
        E 115 87 33 47
        E 0 97 35 47
        E 12 87 35 47
        E 0 97 38 47
        E 51 87 38 47
        E 0 97 33 47
        E 115 87 33 47
        E 0 97 35 47
        E 12 87 35 47
        E 0 97 38 47
        E 51 87 38 47
        E 0 97 33 47
        E 115 87 33 47
        E 0 97 35 47
        E 12 87 35 47
        E 0 97 38 47
        E 51 87 38 47
        E 0 97 33 47
        E 115 87 33 47
        E 0 97 35 47
        E 12 87 35 47
        E 0 97 38 47
        E 51 87 38 47
        E 0 97 33 47
        E 115 87 33 47
        E 0 97 35 47
        E 12 87 35 47
        E 0 97 38 47
        E 51 87 38 47
        E 0 97 33 47
        E 115 87 33 47
        E 0 97 35 47
        E 12 87 35 47
        E 0 97 38 47
        E 51 87 38 47
        E 0 97 33 47
        E 115 87 33 47
        E 0 97 35 47
        E 12 87 35 47
        E 0 97 38 47
        E 51 87 38 47
        E 0 97 33 47
        E 115 87 33 47
        E 0 97 35 47
        E 12 87 35 47
        E 0 97 38 47
        E 51 87 38 47
        E 0 97 33 47
        E 115 87 33 47
        E 0 97 35 47
        E 12 87 35 47
        E 0 97 38 47
        E 51 87 38 47
        E 0 97 33 47
        E 115 87 33 47
        E 0 97 35 47
        E 12 87 35 47
        E 0 97 38 47
        E 51 87 38 47
        E 0 97 33 47
        E 115 87 33 47
        E 0 97 35 47
        E 12 87 35 47
        E 0 97 38 47
        E 51 87 38 47
        E 0 97 33 47
        E 115 87 33 47
        E 0 97 35 47
        E 12 87 35 47
        E 0 97 38 47
        E 51 87 38 47
        E 0 97 33 47
        E 115 87 33 47
        E 0 97 35 47
        E 12 87 35 47
        E 0 97 38 47
        E 51 87 38 47
        E 0 97 33 47
        E 115 87 33 47
        E 0 97 35 47
        E 12 87 35 47
        E 0 97 38 47
        E 51 87 38 47
        E 0 97 33 47
        E 115 87 33 47
        E 0 97 35 47
        E 12 87 35 47
        E 0 97 38 47
        E 51 87 38 47
        E 0 97 33 47
        E 115 87 33 47
        E 0 97 35 47
        E 12 87 35 47
        E 0 97 38 47
        E 51 87 38 47
        E 0 97 33 47
        E 115 87 33 47
        E 0 97 35 47
        E 12 87 35 47
        E 0 97 38 47
        E 51 87 38 47
        E 0 97 33 47
        E 115 87 33 47
        E 0 97 35 47
        E 12 87 35 47
        E 0 97 38 47
        E 51 87 38 47
        E 0 97 33 47
        E 115 87 33 47
        E 0 97 35 47
        E 12 87 35 47
        E 0 97 38 47
        E 51 87 38 47
        E 0 97 33 47
        E 115 87 33 47
        E 0 97 35 47
        E 12 87 35 47
        E 0 97 38 47
        E 51 87 38 47
        E 0 97 33 47
        E 115 87 33 47
        E 0 97 35 47
        E 12 87 35 47
        E 0 97 38 47
        E 51 87 38 47
        E 0 97 33 47
        E 115 87 33 47
        E 0 97 35 47
        E 12 87 35 47
        E 0 97 38 47
        E 51 87 38 47
        E 0 97 33 47
        E 115 87 33 47
        E 0 97 35 47
        E 12 87 35 47
        E 0 97 38 47
        E 51 87 38 47
        E 0 97 33 47
        E 115 87 33 47
        E 0 97 35 47
        E 12 87 35 47
        E 0 97 38 47
        E 51 87 38 47
        E 0 97 33 47
        E 115 87 33 47
        E 0 97 35 47
        E 12 87 35 47
        E 0 97 38 47
        E 51 87 38 47
        E 0 97 33 47
        E 115 87 33 47
        E 0 97 35 47
        E 12 87 35 47
        E 0 97 38 47
        E 51 87 38 47
        E 0 97 33 47
        E 115 87 33 47
        E 0 97 35 47
        E 12 87 35 47
        E 0 97 38 47
        E 51 87 38 47
        E 0 97 33 47
        E 115 87 33 47
        E 0 97 35 47
        E 12 87 35 47
        E 0 97 38 47
        E 51 87 38 47
        E 0 97 33 47
        E 115 87 33 47
        E 0 97 35 47
        E 12 87 35 47
        E 0 97 38 47
        E 51 87 38 47
        E 0 97 33 47
        E 115 87 33 47
        E 0 97 35 47
        E 12 87 35 47
        E 0 97 38 47
        E 51 87 38 47
        E 0 97 33 47
        E 115 87 33 47
        E 0 97 35 47
        E 12 87 35 47
        E 0 97 38 47
        E 51 87 38 47
        E 0 97 33 47
        E 115 87 33 47
        E 0 97 35 47
        E 12 87 35 47
        E 0 97 38 47
        E 51 87 38 47
        E 0 97 33 47
        E 115 87 33 47
        E 0 97 35 47
        E 12 87 35 47
        E 0 97 38 47
        E 51 87 38 47
        E 0 97 33 47
        E 115 87 33 47
        E 0 97 35 47
        E 12 87 35 47
        E 0 97 38 47
        E 51 87 38 47
        E 0 97 33 47
        E 115 87 33 47
        E 0 97 35 47
        E 12 87 35 47
        E 0 97 38 47
        E 51 87 38 47
        E 0 97 33 47
        E 115 87 33 47
        E 0 97 35 47
        E 12 87 35 47
        E 0 97 38 47
        E 51 87 38 47
        E 0 97 33 47
        E 115 87 33 47
        E 0 97 35 47
        E 12 87 35 47
        E 0 97 38 47
        E 51 87 38 47
        E 0 97 33 47
        E 115 87 33 47
        E 0 97 35 47
        E 12 87 35 47
        E 0 97 38 47
        E 51 87 38 47
        E 0 97 33 47
        E 115 87 33 47
        E 0 97 35 47
        E 12 87 35 47
        E 0 97 38 47
        E 51 87 38 47
        E 0 97 33 47
        E 115 87 33 47
        E 0 97 35 47
        E 12 87 35 47
        E 0 97 38 47
        E 51 87 38 47
        E 0 97 33 47
        E 115 87 33 47
        E 0 97 35 47
        E 12 87 35 47
        E 0 97 38 47
        E 51 87 38 47
        E 0 97 33 47
        E 115 87 33 47
        E 0 97 35 47
        E 12 87 35 47
        E 0 97 38 47
        E 51 87 38 47
        E 0 97 33 47
        E 115 87 33 47
        E 0 97 35 47
        E 12 87 35 47
        E 0 97 38 47
        E 51 87 38 47
        E 0 97 33 47
        E 115 87 33 47
        E 0 97 35 47
        E 12 87 35 47
        E 0 97 38 47
        E 51 87 38 47
        E 0 97 33 47
        E 115 87 33 47
        E 0 97 35 47
        E 12 87 35 47
        E 0 97 38 47
        E 51 87 38 47
        E 0 97 33 47
        E 115 87 33 47
        E 0 97 35 47
        E 12 87 35 47
        E 0 97 38 47
        E 51 87 38 47
        E 0 97 33 47
        E 115 87 33 47
        E 52 b0 7b 00
        CCINTERP 32
        CHASE_CC_TAKEOFFS 1
        GUID {7AE581A3-489C-934A-A2AB-2D6617D2FBC4}
        IGNTEMPO 0 120 4 4
        SRCCOLOR 931
      >
    >
  >
  <TRACK {E52A6C46-5359-6C47-95EB-8F1D7E5306D7}
    NAME "pepto bismol 4oz bottle"
    PEAKCOL 16576
    BEAT -1
    AUTOMODE 0
    VOLPAN 1 0 -1 -1 1
    MUTESOLO 0 0 0
    IPHASE 0
    PLAYOFFS 0 1
    ISBUS 0 0
    BUSCOMP 0 0 0 0 0
    SHOWINMIX 1 0.6667 0.5 1 0.5 0 -1 0
    FREEMODE 0
    SEL 0
    REC 0 0 1 0 0 0 0
    VU 2
    TRACKHEIGHT 0 0 0 0 -1 0
    INQ 0 0 0 0.5 100 0 0 100
    NCHAN 2
    FX 1
    TRACKID {E52A6C46-5359-6C47-95EB-8F1D7E5306D7}
    PERF 0
    MIDIOUT -1
    MAINSEND 1 0
    <FXCHAIN
      SHOW 0
      LASTSEL 0
      DOCKED 0
      BYPASS 0 0 0
      <VST "VSTi: FM8 (Native Instruments GmbH)" FM8.vst 0 "" 1315530296<5653544E696638666D38000000000000> ""
        OGZpTu5e7f4AAAAAAgAAAAEAAAAAAAAAAgAAAAAAAAAYBwAAAQAAAAAAEAA=
        GAcAAAAAAAABAAAAaHNpbgEAAAAAAAAAN455D8DDx0mHoN4j0l/0WZYAAAAAAAAARFNJTnYAAAABAAAASAAAAAAAAABEU0lOagAAAAEAAAAYAAAAAAAAAERTSU4BAAAA
        AQAAAAEAAAABAAAAAQAAAAEAAAAAAAAAAAAAAAAAAAANYmWFAQAAAAhwEAAAAAAAAQAAAAEAAAAAAAAAAAAAAAAAAAADAAAAMAAwADAAAAAAAAAAAAAAAAAAAAAAAAEA
        AAABAAAAAAAAAERTSU5lAAAARgYAAAAAAAABAAAAaHNpbgEAAAAAAAAAMOH4NwAUwEaoogAOyNUgkW0AAAAAAAAARFNJTmUAAAABAAAANAAAAAAAAABEU0lOagAAAAEA
        AAAYAAAAAAAAAERTSU4BAAAAAQAAAAEAAAABAAAAAgAAAAEAAAAACAAAAAEAAAAKAAAAMQAuADIALgAwAC4AMQAwADEAMAABAAAAAwAAAAAAAABEU0lObAAAAKgBAAAA
        AAAAAQAAAGhzaW4BAAAAAAAAACA7190CLVtKvWPIjKqbw/t4AQAAAAAAAERTSU5sAAAAAQAAABgAAAAAAAAARFNJTgEAAAABAAAAAQAAAAEAAAACAAAAAQAAAAAAAAAI
        AAAATgBlAHcAUwBvAHUAbgBkAAcAAABuAG8AdAAgAHMAZQB0AAAAAAAAAAAAAAAAAAAAAAAAAAAAAAAAAAAAAAAAAAAAAAAAAAEAAAABAAAAAQAAAAMAAABGAE0AOAAA
        AAAAAAAAAAcAAAAHAAAAXABAAGMAbwBsAG8AcgABAAAAMAARAAAAXABAAGQAZQB2AGkAYwBlAHQAeQBwAGUAZgBsAGEAZwBzAAEAAAAxAAsAAABcAEAAcwBvAHUAbgBk
        AHQAeQBwAGUAAQAAADAABwAAAFwAQAB0AGUAbQBwAG8AAQAAADAABgAAAFwAQAB2AGUAcgBsAAUAAAAxAC4ANwAuADgABgAAAFwAQAB2AGUAcgBtAAUAAAAxAC4ANwAu
        ADgABwAAAFwAQAB2AGkAcwBpAGIAAQAAADAAAQAAAAAAAAACAAAARFNJTnkAAABoAAAAAAAAAAEAAABoc2luAQAAAAAAAABG64vCmumHRIQ9Mih2ujahOAAAAAAAAABE
        U0lOeQAAAAEAAAAYAAAAAAAAAERTSU4BAAAAAQAAAAEAAAABAAAAAQAAAAAAAAABAAAAAAAAAAEAAABEU0lOdAAAAHUDAAAAAAAAAQAAAGhzaW4BAAAAAAAAAMPiDYJz
        LJxOuWtBgMMVvqRFAwAAAAAAAERTSU50AAAAAQAAACwDAAAAAAAARFNJTnMAAAABAAAAGAAAAAAAAABEU0lOAQAAAAEAAAABAAAAAQAAAAG9DwAA8wIAAAK9DwBgAAAB
        IAUDaHNpbkAHQAAQHyRrBvAZSEqYrqFXTcEPPBhAFCAAA0RTSU5AI+AHA0AAQBsAbSAIAWkPIAQgAEAj4ANTEEkCYzKs2sVGp2B2wrYRj5w5oCfAN0Av4BdnQCMB8Q4g
        XCAAAAUgAwFjDCAEIAAIdHNycEU4TUbPIAsEvCMAAAcgBwZkZWZhdWx04BgKICoAP+ACAwNBAACAIA8AoCAH4AsAAPAgF0AfwAAAICAPwABgFwVAAABIQgDgBABAD0AD
        4BcfYAAge+AEA0AAwBPgAwBAE+AAAAPNzMw+IAwDP5qZGUAXwAPgABcgCuAHG0ATQADgBwdAACATYKtAACALYANAAEALQAAg42AAwA9AB0AD4AMAwA9AB0ADwABAC8AD
        QADAC8AHQADgAwtAAEAP4AMAIA/Bn8AHAMjhDnPgHwDgAO/gDgBAX0ADwABBz8H7QAtAAwCgIINAB0AAALQgCwCWIAPgAwDAP0AHQAPAAEAz4MdLIAAAAcAAIAuAAAAC
        wACADuAdAOAALAD+4B0v4CEAABTgISrgMADBA+AKAGBTgAXgAABChuAXA+AeAOD9WSBZIkBBUgH6Q0AH4FUMQ9VAZwH6Q6BnBYA/zLyMK+BVDOABACBnBAA/ZmZmYAPg
        YwwgAABwJOwB/kJAdCAA4D4MosLgAFaAAKBjgADgOAwgYwRwwgAAhmC6JliAA0BW4EEMIGPgAE3g8AAAUCAA4Of8AP/gFwAABEERCggyAwAAQDIAAAA8QikgAwHwQmLY
        AAEgAYLiIAcgAkKVgAagCSA3oAkgSKAJKxegCQAG4AAJKwSgEyAAoAmASKAGoBPgwk/gSwAAEaBUA2tuYWJBMcAAAYAAIAAAGaARA2N0bmlMiwERJ2FcTFBAAEocAaBC
        4hMPTInAH00bwAvg/QDgvQABIACAAANzaXVnQiQA6CNxwAAAKiAIABkgAyOYYAAj0mAAB2dwdGNZVE1FQAwLDWJlhQEAAAAAAAAAAQAAAAABAAAAAAAAAA==
        ADxkaXNhYmxlZD4AEAAAAA==
      >
      PRESETNAME <disabled>
      FLOATPOS 0 0 0 0
      FXID {8533CB56-C9FA-5040-89AE-2ACFDDC184A1}
      WAK 0 0
    >
    <ITEM
      POSITION 274.2854399998389
      SNAPOFFS 0
      LENGTH 119.04750000016111
      LOOP 1
      ALLTAKES 0
      FADEIN 1 0 0 1 0 0
      FADEOUT 1 0 0 1 0 0
      MUTE 0 0
      SEL 0
      IGUID {1C116BFC-6ABD-814A-8730-533096C6E1A4}
      IID 74
      NAME "pepto bismol 4oz bottle.mid"
      VOLPAN 1 0 1 -1
      SOFFS 274.2854399998389 288
      PLAYRATE 1 1 0 -1 0 0.0025
      CHANMODE 0
      GUID {F6714053-90CE-B741-AE84-37B99E36F37A}
      <SOURCE MIDI
        HASDATA 1 128 QN
        CCINTERP 32
        POOLEDEVTS {5B867704-7AD1-0248-85D9-7462F30F3F1E}
        E 36864 98 35 47
        E 32 88 35 47
        E 0 98 38 47
        E 128 88 38 47
        E 0 98 33 47
        E 288 88 33 47
        E 0 98 35 47
        E 32 88 35 47
        E 0 98 38 47
        E 128 88 38 47
        E 0 98 33 47
        E 288 88 33 47
        E 0 98 35 47
        E 32 88 35 47
        E 0 98 38 47
        E 128 88 38 47
        E 0 98 33 47
        E 288 88 33 47
        E 0 98 35 47
        E 32 88 35 47
        E 0 98 38 47
        E 128 88 38 47
        E 0 98 33 47
        E 288 88 33 47
        E 0 98 35 47
        E 32 88 35 47
        E 0 98 38 47
        E 128 88 38 47
        E 0 98 33 47
        E 288 88 33 47
        E 0 98 35 47
        E 32 88 35 47
        E 0 98 38 47
        E 128 88 38 47
        E 0 98 33 47
        E 288 88 33 47
        E 0 98 35 47
        E 32 88 35 47
        E 0 98 38 47
        E 128 88 38 47
        E 0 98 33 47
        E 288 88 33 47
        E 0 98 35 47
        E 32 88 35 47
        E 0 98 38 47
        E 128 88 38 47
        E 0 98 33 47
        E 288 88 33 47
        E 0 98 35 47
        E 32 88 35 47
        E 0 98 38 47
        E 128 88 38 47
        E 0 98 33 47
        E 288 88 33 47
        E 0 98 35 47
        E 32 88 35 47
        E 0 98 38 47
        E 128 88 38 47
        E 0 98 33 47
        E 288 88 33 47
        E 0 98 35 47
        E 32 88 35 47
        E 0 98 38 47
        E 128 88 38 47
        E 0 98 33 47
        E 288 88 33 47
        E 0 98 35 47
        E 32 88 35 47
        E 0 98 38 47
        E 128 88 38 47
        E 0 98 33 47
        E 288 88 33 47
        E 0 98 35 47
        E 32 88 35 47
        E 0 98 38 47
        E 128 88 38 47
        E 0 98 33 47
        E 288 88 33 47
        E 0 98 35 47
        E 32 88 35 47
        E 0 98 38 47
        E 128 88 38 47
        E 0 98 33 47
        E 288 88 33 47
        E 0 98 35 47
        E 32 88 35 47
        E 0 98 38 47
        E 128 88 38 47
        E 0 98 33 47
        E 288 88 33 47
        E 0 98 35 47
        E 32 88 35 47
        E 0 98 38 47
        E 128 88 38 47
        E 0 98 33 47
        E 288 88 33 47
        E 0 98 35 47
        E 96 88 35 47
        E 0 98 30 47
        E 288 88 30 47
        E 0 98 3f 47
        E 96 88 3f 47
        E 0 98 30 47
        E 0 98 35 47
        E 128 88 35 47
        E 0 98 33 47
        E 96 88 33 47
        E 0 98 30 47
        E 0 98 35 47
        E 32 88 35 47
        E 0 98 35 47
        E 96 88 35 47
        E 0 98 30 47
        E 288 88 30 47
        E 0 98 3f 47
        E 96 88 3f 47
        E 0 98 30 47
        E 0 98 35 47
        E 128 88 35 47
        E 0 98 33 47
        E 96 88 33 47
        E 0 98 30 47
        E 0 98 35 47
        E 32 88 35 47
        E 0 98 35 47
        E 96 88 35 47
        E 0 98 30 47
        E 288 88 30 47
        E 0 98 3f 47
        E 96 88 3f 47
        E 0 98 30 47
        E 0 98 35 47
        E 128 88 35 47
        E 0 98 33 47
        E 96 88 33 47
        E 0 98 30 47
        E 0 98 35 47
        E 32 88 35 47
        E 0 98 35 47
        E 96 88 35 47
        E 0 98 30 47
        E 288 88 30 47
        E 0 98 3f 47
        E 96 88 3f 47
        E 0 98 30 47
        E 0 98 35 47
        E 128 88 35 47
        E 0 98 33 47
        E 96 88 33 47
        E 0 98 30 47
        E 0 98 35 47
        E 32 88 35 47
        E 0 98 35 47
        E 96 88 35 47
        E 0 98 30 47
        E 288 88 30 47
        E 0 98 3f 47
        E 96 88 3f 47
        E 0 98 30 47
        E 0 98 35 47
        E 128 88 35 47
        E 0 98 33 47
        E 96 88 33 47
        E 0 98 30 47
        E 0 98 35 47
        E 32 88 35 47
        E 0 98 35 47
        E 96 88 35 47
        E 0 98 30 47
        E 288 88 30 47
        E 0 98 3f 47
        E 96 88 3f 47
        E 0 98 30 47
        E 0 98 35 47
        E 128 88 35 47
        E 0 98 33 47
        E 96 88 33 47
        E 0 98 30 47
        E 0 98 35 47
        E 32 88 35 47
        E 0 98 35 47
        E 96 88 35 47
        E 0 98 30 47
        E 288 88 30 47
        E 0 98 3f 47
        E 96 88 3f 47
        E 0 98 30 47
        E 0 98 35 47
        E 128 88 35 47
        E 0 98 33 47
        E 96 88 33 47
        E 0 98 30 47
        E 0 98 35 47
        E 32 88 35 47
        E 0 98 35 47
        E 96 88 35 47
        E 0 98 30 47
        E 288 88 30 47
        E 0 98 3f 47
        E 96 88 3f 47
        E 0 98 30 47
        E 0 98 35 47
        E 128 88 35 47
        E 0 98 33 47
        E 96 88 33 47
        E 0 98 30 47
        E 0 98 35 47
        E 32 88 35 47
        E 0 98 35 47
        E 96 88 35 47
        E 0 98 30 47
        E 288 88 30 47
        E 0 98 3f 47
        E 96 88 3f 47
        E 0 98 30 47
        E 0 98 35 47
        E 128 88 35 47
        E 0 98 33 47
        E 96 88 33 47
        E 0 98 30 47
        E 0 98 35 47
        E 32 88 35 47
        E 0 98 35 47
        E 96 88 35 47
        E 0 98 30 47
        E 288 88 30 47
        E 0 98 3f 47
        E 96 88 3f 47
        E 0 98 30 47
        E 0 98 35 47
        E 128 88 35 47
        E 0 98 33 47
        E 96 88 33 47
        E 0 98 30 47
        E 0 98 35 47
        E 32 88 35 47
        E 0 98 35 47
        E 96 88 35 47
        E 0 98 30 47
        E 288 88 30 47
        E 0 98 3f 47
        E 96 88 3f 47
        E 0 98 30 47
        E 0 98 35 47
        E 128 88 35 47
        E 0 98 33 47
        E 96 88 33 47
        E 0 98 30 47
        E 0 98 35 47
        E 32 88 35 47
        E 0 98 35 47
        E 96 88 35 47
        E 0 98 30 47
        E 288 88 30 47
        E 0 98 3f 47
        E 96 88 3f 47
        E 0 98 30 47
        E 0 98 35 47
        E 128 88 35 47
        E 0 98 33 47
        E 96 88 33 47
        E 0 98 30 47
        E 0 98 35 47
        E 31 88 35 47
        E 1 b0 7b 00
        CCINTERP 32
        CHASE_CC_TAKEOFFS 1
        GUID {88A7A037-45A5-814A-BE0E-BF30B7E9EB8F}
        IGNTEMPO 0 120 4 4
        SRCCOLOR 932
      >
    >
  >
  <TRACK {13FB60A3-FC29-7943-9B96-C83E9F49E191}
    NAME "pepto bismol 4oz bottle"
    PEAKCOL 16576
    BEAT -1
    AUTOMODE 0
    VOLPAN 1 0 -1 -1 1
    MUTESOLO 0 0 0
    IPHASE 0
    PLAYOFFS 0 1
    ISBUS 0 0
    BUSCOMP 0 0 0 0 0
    SHOWINMIX 1 0.6667 0.5 1 0.5 0 -1 0
    FREEMODE 0
    SEL 0
    REC 0 0 1 0 0 0 0
    VU 2
    TRACKHEIGHT 0 0 0 0 -1 0
    INQ 0 0 0 0.5 100 0 0 100
    NCHAN 2
    FX 1
    TRACKID {13FB60A3-FC29-7943-9B96-C83E9F49E191}
    PERF 0
    MIDIOUT -1
    MAINSEND 1 0
    <FXCHAIN
      SHOW 0
      LASTSEL 0
      DOCKED 0
      BYPASS 0 0 0
      <VST "VSTi: FM8 (Native Instruments GmbH)" FM8.vst 0 "" 1315530296<5653544E696638666D38000000000000> ""
        OGZpTu5e7f4AAAAAAgAAAAEAAAAAAAAAAgAAAAAAAAAYBwAAAQAAAAAAEAA=
        GAcAAAAAAAABAAAAaHNpbgEAAAAAAAAAN455D8DDx0mHoN4j0l/0WZYAAAAAAAAARFNJTnYAAAABAAAASAAAAAAAAABEU0lOagAAAAEAAAAYAAAAAAAAAERTSU4BAAAA
        AQAAAAEAAAABAAAAAQAAAAEAAAAAAAAAAAAAAAAAAAANYmWFAQAAAAhwEAAAAAAAAQAAAAEAAAAAAAAAAAAAAAAAAAADAAAAMAAwADAAAAAAAAAAAAAAAAAAAAAAAAEA
        AAABAAAAAAAAAERTSU5lAAAARgYAAAAAAAABAAAAaHNpbgEAAAAAAAAAMOH4NwAUwEaoogAOyNUgkW0AAAAAAAAARFNJTmUAAAABAAAANAAAAAAAAABEU0lOagAAAAEA
        AAAYAAAAAAAAAERTSU4BAAAAAQAAAAEAAAABAAAAAgAAAAEAAAAACAAAAAEAAAAKAAAAMQAuADIALgAwAC4AMQAwADEAMAABAAAAAwAAAAAAAABEU0lObAAAAKgBAAAA
        AAAAAQAAAGhzaW4BAAAAAAAAACA7190CLVtKvWPIjKqbw/t4AQAAAAAAAERTSU5sAAAAAQAAABgAAAAAAAAARFNJTgEAAAABAAAAAQAAAAEAAAACAAAAAQAAAAAAAAAI
        AAAATgBlAHcAUwBvAHUAbgBkAAcAAABuAG8AdAAgAHMAZQB0AAAAAAAAAAAAAAAAAAAAAAAAAAAAAAAAAAAAAAAAAAAAAAAAAAEAAAABAAAAAQAAAAMAAABGAE0AOAAA
        AAAAAAAAAAcAAAAHAAAAXABAAGMAbwBsAG8AcgABAAAAMAARAAAAXABAAGQAZQB2AGkAYwBlAHQAeQBwAGUAZgBsAGEAZwBzAAEAAAAxAAsAAABcAEAAcwBvAHUAbgBk
        AHQAeQBwAGUAAQAAADAABwAAAFwAQAB0AGUAbQBwAG8AAQAAADAABgAAAFwAQAB2AGUAcgBsAAUAAAAxAC4ANwAuADgABgAAAFwAQAB2AGUAcgBtAAUAAAAxAC4ANwAu
        ADgABwAAAFwAQAB2AGkAcwBpAGIAAQAAADAAAQAAAAAAAAACAAAARFNJTnkAAABoAAAAAAAAAAEAAABoc2luAQAAAAAAAABG64vCmumHRIQ9Mih2ujahOAAAAAAAAABE
        U0lOeQAAAAEAAAAYAAAAAAAAAERTSU4BAAAAAQAAAAEAAAABAAAAAQAAAAAAAAABAAAAAAAAAAEAAABEU0lOdAAAAHUDAAAAAAAAAQAAAGhzaW4BAAAAAAAAAMPiDYJz
        LJxOuWtBgMMVvqRFAwAAAAAAAERTSU50AAAAAQAAACwDAAAAAAAARFNJTnMAAAABAAAAGAAAAAAAAABEU0lOAQAAAAEAAAABAAAAAQAAAAG9DwAA8wIAAAK9DwBgAAAB
        IAUDaHNpbkAHQAAQHyRrBvAZSEqYrqFXTcEPPBhAFCAAA0RTSU5AI+AHA0AAQBsAbSAIAWkPIAQgAEAj4ANTEEkCYzKs2sVGp2B2wrYRj5w5oCfAN0Av4BdnQCMB8Q4g
        XCAAAAUgAwFjDCAEIAAIdHNycEU4TUbPIAsEvCMAAAcgBwZkZWZhdWx04BgKICoAP+ACAwNBAACAIA8AoCAH4AsAAPAgF0AfwAAAICAPwABgFwVAAABIQgDgBABAD0AD
        4BcfYAAge+AEA0AAwBPgAwBAE+AAAAPNzMw+IAwDP5qZGUAXwAPgABcgCuAHG0ATQADgBwdAACATYKtAACALYANAAEALQAAg42AAwA9AB0AD4AMAwA9AB0ADwABAC8AD
        QADAC8AHQADgAwtAAEAP4AMAIA/Bn8AHAMjhDnPgHwDgAO/gDgBAX0ADwABBz8H7QAtAAwCgIINAB0AAALQgCwCWIAPgAwDAP0AHQAPAAEAz4MdLIAAAAcAAIAuAAAAC
        wACADuAdAOAALAD+4B0v4CEAABTgISrgMADBA+AKAGBTgAXgAABChuAXA+AeAOD9WSBZIkBBUgH6Q0AH4FUMQ9VAZwH6Q6BnBYA/zLyMK+BVDOABACBnBAA/ZmZmYAPg
        YwwgAABwJOwB/kJAdCAA4D4MosLgAFaAAKBjgADgOAwgYwRwwgAAhmC6JliAA0BW4EEMIGPgAE3g8AAAUCAA4Of8AP/gFwAABEERCggyAwAAQDIAAAA8QikgAwHwQmLY
        AAEgAYLiIAcgAkKVgAagCSA3oAkgSKAJKxegCQAG4AAJKwSgEyAAoAmASKAGoBPgwk/gSwAAEaBUA2tuYWJBMcAAAYAAIAAAGaARA2N0bmlMiwERJ2FcTFBAAEocAaBC
        4hMPTInAH00bwAvg/QDgvQABIACAAANzaXVnQiQA6CNxwAAAKiAIABkgAyOYYAAj0mAAB2dwdGNZVE1FQAwLDWJlhQEAAAAAAAAAAQAAAAABAAAAAAAAAA==
        ADxkaXNhYmxlZD4AEAAAAA==
      >
      PRESETNAME <disabled>
      FLOATPOS 0 0 0 0
      FXID {D2AF8FBF-ED05-8045-8A43-E7B8FB3A15BF}
      WAK 0 0
    >
    <ITEM
      POSITION 91.4284799999463
      SNAPOFFS 0
      LENGTH 65.71422000005369
      LOOP 1
      ALLTAKES 0
      FADEIN 1 0 0 1 0 0
      FADEOUT 1 0 0 1 0 0
      MUTE 0 0
      SEL 0
      IGUID {5B6269E7-E25B-4949-94A4-1A28CD60D87C}
      IID 75
      NAME "pepto bismol 4oz bottle.mid"
      VOLPAN 1 0 1 -1
      SOFFS 91.4284799999463 96
      PLAYRATE 1 1 0 -1 0 0.0025
      CHANMODE 0
      GUID {527CA891-F4FE-D74F-B36C-53CA1EADF752}
      <SOURCE MIDI
        HASDATA 1 128 QN
        CCINTERP 32
        POOLEDEVTS {8D132C99-2503-0C49-A161-9E7320009F47}
        E 12288 99 35 47
        E 384 89 35 47
        E 0 99 30 47
        E 1152 89 30 47
        E 0 99 3f 47
        E 384 89 3f 47
        E 0 99 30 47
        E 0 99 35 47
        E 512 89 35 47
        E 0 99 33 47
        E 384 89 33 47
        E 0 99 30 47
        E 0 99 35 47
        E 128 89 35 47
        E 0 99 35 47
        E 384 89 35 47
        E 0 99 30 47
        E 1152 89 30 47
        E 0 99 3f 47
        E 384 89 3f 47
        E 0 99 30 47
        E 0 99 35 47
        E 512 89 35 47
        E 0 99 33 47
        E 384 89 33 47
        E 0 99 30 47
        E 0 99 35 47
        E 128 89 35 47
        E 0 99 35 47
        E 384 89 35 47
        E 0 99 30 47
        E 1152 89 30 47
        E 0 99 3f 47
        E 384 89 3f 47
        E 0 99 30 47
        E 0 99 35 47
        E 512 89 35 47
        E 0 99 33 47
        E 384 89 33 47
        E 0 99 30 47
        E 0 99 35 47
        E 127 89 35 47
        E 1 b0 7b 00
        CCINTERP 32
        CHASE_CC_TAKEOFFS 1
        GUID {5846B3EA-F3E4-DF49-B997-C76FBF0A5848}
        IGNTEMPO 0 120 4 4
        SRCCOLOR 933
      >
    >
  >
  <TRACK {AD869568-D961-4247-A609-FC5D2565DD9A}
    NAME "pepto bismol 4oz bottle"
    PEAKCOL 16576
    BEAT -1
    AUTOMODE 0
    VOLPAN 1 0 -1 -1 1
    MUTESOLO 0 0 0
    IPHASE 0
    PLAYOFFS 0 1
    ISBUS 0 0
    BUSCOMP 0 0 0 0 0
    SHOWINMIX 1 0.6667 0.5 1 0.5 0 -1 0
    FREEMODE 0
    SEL 0
    REC 0 0 1 0 0 0 0
    VU 2
    TRACKHEIGHT 0 0 0 0 -1 0
    INQ 0 0 0 0.5 100 0 0 100
    NCHAN 2
    FX 1
    TRACKID {AD869568-D961-4247-A609-FC5D2565DD9A}
    PERF 0
    MIDIOUT -1
    MAINSEND 1 0
    <FXCHAIN
      SHOW 0
      LASTSEL 0
      DOCKED 0
      BYPASS 0 0 0
      <VST "VSTi: FM8 (Native Instruments GmbH)" FM8.vst 0 "" 1315530296<5653544E696638666D38000000000000> ""
        OGZpTu5e7f4AAAAAAgAAAAEAAAAAAAAAAgAAAAAAAAAYBwAAAQAAAAAAEAA=
        GAcAAAAAAAABAAAAaHNpbgEAAAAAAAAAN455D8DDx0mHoN4j0l/0WZYAAAAAAAAARFNJTnYAAAABAAAASAAAAAAAAABEU0lOagAAAAEAAAAYAAAAAAAAAERTSU4BAAAA
        AQAAAAEAAAABAAAAAQAAAAEAAAAAAAAAAAAAAAAAAAANYmWFAQAAAAhwEAAAAAAAAQAAAAEAAAAAAAAAAAAAAAAAAAADAAAAMAAwADAAAAAAAAAAAAAAAAAAAAAAAAEA
        AAABAAAAAAAAAERTSU5lAAAARgYAAAAAAAABAAAAaHNpbgEAAAAAAAAAMOH4NwAUwEaoogAOyNUgkW0AAAAAAAAARFNJTmUAAAABAAAANAAAAAAAAABEU0lOagAAAAEA
        AAAYAAAAAAAAAERTSU4BAAAAAQAAAAEAAAABAAAAAgAAAAEAAAAACAAAAAEAAAAKAAAAMQAuADIALgAwAC4AMQAwADEAMAABAAAAAwAAAAAAAABEU0lObAAAAKgBAAAA
        AAAAAQAAAGhzaW4BAAAAAAAAACA7190CLVtKvWPIjKqbw/t4AQAAAAAAAERTSU5sAAAAAQAAABgAAAAAAAAARFNJTgEAAAABAAAAAQAAAAEAAAACAAAAAQAAAAAAAAAI
        AAAATgBlAHcAUwBvAHUAbgBkAAcAAABuAG8AdAAgAHMAZQB0AAAAAAAAAAAAAAAAAAAAAAAAAAAAAAAAAAAAAAAAAAAAAAAAAAEAAAABAAAAAQAAAAMAAABGAE0AOAAA
        AAAAAAAAAAcAAAAHAAAAXABAAGMAbwBsAG8AcgABAAAAMAARAAAAXABAAGQAZQB2AGkAYwBlAHQAeQBwAGUAZgBsAGEAZwBzAAEAAAAxAAsAAABcAEAAcwBvAHUAbgBk
        AHQAeQBwAGUAAQAAADAABwAAAFwAQAB0AGUAbQBwAG8AAQAAADAABgAAAFwAQAB2AGUAcgBsAAUAAAAxAC4ANwAuADgABgAAAFwAQAB2AGUAcgBtAAUAAAAxAC4ANwAu
        ADgABwAAAFwAQAB2AGkAcwBpAGIAAQAAADAAAQAAAAAAAAACAAAARFNJTnkAAABoAAAAAAAAAAEAAABoc2luAQAAAAAAAABG64vCmumHRIQ9Mih2ujahOAAAAAAAAABE
        U0lOeQAAAAEAAAAYAAAAAAAAAERTSU4BAAAAAQAAAAEAAAABAAAAAQAAAAAAAAABAAAAAAAAAAEAAABEU0lOdAAAAHUDAAAAAAAAAQAAAGhzaW4BAAAAAAAAAMPiDYJz
        LJxOuWtBgMMVvqRFAwAAAAAAAERTSU50AAAAAQAAACwDAAAAAAAARFNJTnMAAAABAAAAGAAAAAAAAABEU0lOAQAAAAEAAAABAAAAAQAAAAG9DwAA8wIAAAK9DwBgAAAB
        IAUDaHNpbkAHQAAQHyRrBvAZSEqYrqFXTcEPPBhAFCAAA0RTSU5AI+AHA0AAQBsAbSAIAWkPIAQgAEAj4ANTEEkCYzKs2sVGp2B2wrYRj5w5oCfAN0Av4BdnQCMB8Q4g
        XCAAAAUgAwFjDCAEIAAIdHNycEU4TUbPIAsEvCMAAAcgBwZkZWZhdWx04BgKICoAP+ACAwNBAACAIA8AoCAH4AsAAPAgF0AfwAAAICAPwABgFwVAAABIQgDgBABAD0AD
        4BcfYAAge+AEA0AAwBPgAwBAE+AAAAPNzMw+IAwDP5qZGUAXwAPgABcgCuAHG0ATQADgBwdAACATYKtAACALYANAAEALQAAg42AAwA9AB0AD4AMAwA9AB0ADwABAC8AD
        QADAC8AHQADgAwtAAEAP4AMAIA/Bn8AHAMjhDnPgHwDgAO/gDgBAX0ADwABBz8H7QAtAAwCgIINAB0AAALQgCwCWIAPgAwDAP0AHQAPAAEAz4MdLIAAAAcAAIAuAAAAC
        wACADuAdAOAALAD+4B0v4CEAABTgISrgMADBA+AKAGBTgAXgAABChuAXA+AeAOD9WSBZIkBBUgH6Q0AH4FUMQ9VAZwH6Q6BnBYA/zLyMK+BVDOABACBnBAA/ZmZmYAPg
        YwwgAABwJOwB/kJAdCAA4D4MosLgAFaAAKBjgADgOAwgYwRwwgAAhmC6JliAA0BW4EEMIGPgAE3g8AAAUCAA4Of8AP/gFwAABEERCggyAwAAQDIAAAA8QikgAwHwQmLY
        AAEgAYLiIAcgAkKVgAagCSA3oAkgSKAJKxegCQAG4AAJKwSgEyAAoAmASKAGoBPgwk/gSwAAEaBUA2tuYWJBMcAAAYAAIAAAGaARA2N0bmlMiwERJ2FcTFBAAEocAaBC
        4hMPTInAH00bwAvg/QDgvQABIACAAANzaXVnQiQA6CNxwAAAKiAIABkgAyOYYAAj0mAAB2dwdGNZVE1FQAwLDWJlhQEAAAAAAAAAAQAAAAABAAAAAAAAAA==
        ADxkaXNhYmxlZD4AEAAAAA==
      >
      PRESETNAME <disabled>
      FLOATPOS 0 0 0 0
      FXID {A64A30F0-F2EA-9B4C-9F5B-367A2EC20DE4}
      WAK 0 0
    >
    <ITEM
      POSITION 0
      SNAPOFFS 0
      LENGTH 66.6666
      LOOP 1
      ALLTAKES 0
      FADEIN 1 0 0 1 0 0
      FADEOUT 1 0 0 1 0 0
      MUTE 0 0
      SEL 0
      IGUID {377362FA-F2B5-C646-B986-D0FD6CCE6F24}
      IID 11
      NAME "pepto bismol 4oz bottle.mid"
      VOLPAN 1 0 1 -1
      SOFFS 0 0
      PLAYRATE 1 1 0 -1 0 0.0025
      CHANMODE 0
      GUID {C097E3DB-16F1-8F40-A550-89C81A90BD3D}
      <SOURCE MIDI
        HASDATA 1 128 QN
        CCINTERP 32
        POOLEDEVTS {0FEB8769-9085-0543-9DF6-AFDCFE2F8373}
        E 0 9a 35 47
        E 25 8a 35 47
        E 0 9a 38 47
        E 102 8a 38 47
        E 0 9a 33 47
        E 230 8a 33 47
        E 0 9a 35 47
        E 25 8a 35 47
        E 0 9a 38 47
        E 102 8a 38 47
        E 0 9a 33 47
        E 230 8a 33 47
        E 0 9a 35 47
        E 25 8a 35 47
        E 0 9a 38 47
        E 102 8a 38 47
        E 0 9a 33 47
        E 230 8a 33 47
        E 0 9a 35 47
        E 25 8a 35 47
        E 0 9a 38 47
        E 102 8a 38 47
        E 0 9a 33 47
        E 230 8a 33 47
        E 0 9a 35 47
        E 25 8a 35 47
        E 0 9a 38 47
        E 102 8a 38 47
        E 0 9a 33 47
        E 230 8a 33 47
        E 0 9a 35 47
        E 25 8a 35 47
        E 0 9a 38 47
        E 102 8a 38 47
        E 0 9a 33 47
        E 230 8a 33 47
        E 0 9a 35 47
        E 25 8a 35 47
        E 0 9a 38 47
        E 102 8a 38 47
        E 0 9a 33 47
        E 230 8a 33 47
        E 0 9a 35 47
        E 25 8a 35 47
        E 0 9a 38 47
        E 102 8a 38 47
        E 0 9a 33 47
        E 230 8a 33 47
        E 0 9a 35 47
        E 25 8a 35 47
        E 0 9a 38 47
        E 102 8a 38 47
        E 0 9a 33 47
        E 230 8a 33 47
        E 0 9a 35 47
        E 25 8a 35 47
        E 0 9a 38 47
        E 102 8a 38 47
        E 0 9a 33 47
        E 230 8a 33 47
        E 0 9a 35 47
        E 25 8a 35 47
        E 0 9a 38 47
        E 102 8a 38 47
        E 0 9a 33 47
        E 230 8a 33 47
        E 0 9a 35 47
        E 25 8a 35 47
        E 0 9a 38 47
        E 102 8a 38 47
        E 0 9a 33 47
        E 230 8a 33 47
        E 0 9a 35 47
        E 25 8a 35 47
        E 0 9a 38 47
        E 102 8a 38 47
        E 0 9a 33 47
        E 230 8a 33 47
        E 0 9a 35 47
        E 25 8a 35 47
        E 0 9a 38 47
        E 102 8a 38 47
        E 0 9a 33 47
        E 230 8a 33 47
        E 0 9a 35 47
        E 25 8a 35 47
        E 0 9a 38 47
        E 102 8a 38 47
        E 0 9a 33 47
        E 230 8a 33 47
        E 0 9a 35 47
        E 25 8a 35 47
        E 0 9a 38 47
        E 102 8a 38 47
        E 0 9a 33 47
        E 230 8a 33 47
        E 0 9a 35 47
        E 25 8a 35 47
        E 0 9a 38 47
        E 102 8a 38 47
        E 0 9a 33 47
        E 230 8a 33 47
        E 0 9a 35 47
        E 25 8a 35 47
        E 0 9a 38 47
        E 102 8a 38 47
        E 0 9a 33 47
        E 230 8a 33 47
        E 0 9a 35 47
        E 25 8a 35 47
        E 0 9a 38 47
        E 102 8a 38 47
        E 0 9a 33 47
        E 230 8a 33 47
        E 0 9a 35 47
        E 25 8a 35 47
        E 0 9a 38 47
        E 102 8a 38 47
        E 0 9a 33 47
        E 230 8a 33 47
        E 0 9a 35 47
        E 25 8a 35 47
        E 0 9a 38 47
        E 102 8a 38 47
        E 0 9a 33 47
        E 230 8a 33 47
        E 0 9a 35 47
        E 25 8a 35 47
        E 0 9a 38 47
        E 102 8a 38 47
        E 0 9a 33 47
        E 230 8a 33 47
        E 0 9a 35 47
        E 25 8a 35 47
        E 0 9a 38 47
        E 102 8a 38 47
        E 0 9a 33 47
        E 230 8a 33 47
        E 0 9a 35 47
        E 25 8a 35 47
        E 0 9a 38 47
        E 102 8a 38 47
        E 0 9a 33 47
        E 230 8a 33 47
        E 0 9a 35 47
        E 25 8a 35 47
        E 0 9a 38 47
        E 102 8a 38 47
        E 0 9a 33 47
        E 230 8a 33 47
        E 35 b0 7b 00
        CCINTERP 32
        CHASE_CC_TAKEOFFS 1
        GUID {2FF064D7-F87C-254F-AD70-0536BC25066C}
        IGNTEMPO 0 120 4 4
        SRCCOLOR 276
        VELLANE 3 601 0
        VELLANE -1 196 0
      >
    >
  >
  <TRACK {9A0CE959-2917-7D47-AF9B-A2DEE44CEE99}
    NAME "pepto bismol 4oz bottle"
    PEAKCOL 16576
    BEAT -1
    AUTOMODE 0
    VOLPAN 1 0 -1 -1 1
    MUTESOLO 0 0 0
    IPHASE 0
    PLAYOFFS 0 1
    ISBUS 0 0
    BUSCOMP 0 0 0 0 0
    SHOWINMIX 1 0.6667 0.5 1 0.5 0 -1 0
    FREEMODE 0
    SEL 0
    REC 0 0 1 0 0 0 0
    VU 2
    TRACKHEIGHT 0 0 0 0 -1 0
    INQ 0 0 0 0.5 100 0 0 100
    NCHAN 2
    FX 1
    TRACKID {9A0CE959-2917-7D47-AF9B-A2DEE44CEE99}
    PERF 0
    MIDIOUT -1
    MAINSEND 1 0
    <FXCHAIN
      SHOW 0
      LASTSEL 0
      DOCKED 0
      BYPASS 0 0 0
      <VST "VSTi: FM8 (Native Instruments GmbH)" FM8.vst 0 "" 1315530296<5653544E696638666D38000000000000> ""
        OGZpTu5e7f4AAAAAAgAAAAEAAAAAAAAAAgAAAAAAAAAYBwAAAQAAAAAAEAA=
        GAcAAAAAAAABAAAAaHNpbgEAAAAAAAAAN455D8DDx0mHoN4j0l/0WZYAAAAAAAAARFNJTnYAAAABAAAASAAAAAAAAABEU0lOagAAAAEAAAAYAAAAAAAAAERTSU4BAAAA
        AQAAAAEAAAABAAAAAQAAAAEAAAAAAAAAAAAAAAAAAAANYmWFAQAAAAhwEAAAAAAAAQAAAAEAAAAAAAAAAAAAAAAAAAADAAAAMAAwADAAAAAAAAAAAAAAAAAAAAAAAAEA
        AAABAAAAAAAAAERTSU5lAAAARgYAAAAAAAABAAAAaHNpbgEAAAAAAAAAMOH4NwAUwEaoogAOyNUgkW0AAAAAAAAARFNJTmUAAAABAAAANAAAAAAAAABEU0lOagAAAAEA
        AAAYAAAAAAAAAERTSU4BAAAAAQAAAAEAAAABAAAAAgAAAAEAAAAACAAAAAEAAAAKAAAAMQAuADIALgAwAC4AMQAwADEAMAABAAAAAwAAAAAAAABEU0lObAAAAKgBAAAA
        AAAAAQAAAGhzaW4BAAAAAAAAACA7190CLVtKvWPIjKqbw/t4AQAAAAAAAERTSU5sAAAAAQAAABgAAAAAAAAARFNJTgEAAAABAAAAAQAAAAEAAAACAAAAAQAAAAAAAAAI
        AAAATgBlAHcAUwBvAHUAbgBkAAcAAABuAG8AdAAgAHMAZQB0AAAAAAAAAAAAAAAAAAAAAAAAAAAAAAAAAAAAAAAAAAAAAAAAAAEAAAABAAAAAQAAAAMAAABGAE0AOAAA
        AAAAAAAAAAcAAAAHAAAAXABAAGMAbwBsAG8AcgABAAAAMAARAAAAXABAAGQAZQB2AGkAYwBlAHQAeQBwAGUAZgBsAGEAZwBzAAEAAAAxAAsAAABcAEAAcwBvAHUAbgBk
        AHQAeQBwAGUAAQAAADAABwAAAFwAQAB0AGUAbQBwAG8AAQAAADAABgAAAFwAQAB2AGUAcgBsAAUAAAAxAC4ANwAuADgABgAAAFwAQAB2AGUAcgBtAAUAAAAxAC4ANwAu
        ADgABwAAAFwAQAB2AGkAcwBpAGIAAQAAADAAAQAAAAAAAAACAAAARFNJTnkAAABoAAAAAAAAAAEAAABoc2luAQAAAAAAAABG64vCmumHRIQ9Mih2ujahOAAAAAAAAABE
        U0lOeQAAAAEAAAAYAAAAAAAAAERTSU4BAAAAAQAAAAEAAAABAAAAAQAAAAAAAAABAAAAAAAAAAEAAABEU0lOdAAAAHUDAAAAAAAAAQAAAGhzaW4BAAAAAAAAAMPiDYJz
        LJxOuWtBgMMVvqRFAwAAAAAAAERTSU50AAAAAQAAACwDAAAAAAAARFNJTnMAAAABAAAAGAAAAAAAAABEU0lOAQAAAAEAAAABAAAAAQAAAAG9DwAA8wIAAAK9DwBgAAAB
        IAUDaHNpbkAHQAAQHyRrBvAZSEqYrqFXTcEPPBhAFCAAA0RTSU5AI+AHA0AAQBsAbSAIAWkPIAQgAEAj4ANTEEkCYzKs2sVGp2B2wrYRj5w5oCfAN0Av4BdnQCMB8Q4g
        XCAAAAUgAwFjDCAEIAAIdHNycEU4TUbPIAsEvCMAAAcgBwZkZWZhdWx04BgKICoAP+ACAwNBAACAIA8AoCAH4AsAAPAgF0AfwAAAICAPwABgFwVAAABIQgDgBABAD0AD
        4BcfYAAge+AEA0AAwBPgAwBAE+AAAAPNzMw+IAwDP5qZGUAXwAPgABcgCuAHG0ATQADgBwdAACATYKtAACALYANAAEALQAAg42AAwA9AB0AD4AMAwA9AB0ADwABAC8AD
        QADAC8AHQADgAwtAAEAP4AMAIA/Bn8AHAMjhDnPgHwDgAO/gDgBAX0ADwABBz8H7QAtAAwCgIINAB0AAALQgCwCWIAPgAwDAP0AHQAPAAEAz4MdLIAAAAcAAIAuAAAAC
        wACADuAdAOAALAD+4B0v4CEAABTgISrgMADBA+AKAGBTgAXgAABChuAXA+AeAOD9WSBZIkBBUgH6Q0AH4FUMQ9VAZwH6Q6BnBYA/zLyMK+BVDOABACBnBAA/ZmZmYAPg
        YwwgAABwJOwB/kJAdCAA4D4MosLgAFaAAKBjgADgOAwgYwRwwgAAhmC6JliAA0BW4EEMIGPgAE3g8AAAUCAA4Of8AP/gFwAABEERCggyAwAAQDIAAAA8QikgAwHwQmLY
        AAEgAYLiIAcgAkKVgAagCSA3oAkgSKAJKxegCQAG4AAJKwSgEyAAoAmASKAGoBPgwk/gSwAAEaBUA2tuYWJBMcAAAYAAIAAAGaARA2N0bmlMiwERJ2FcTFBAAEocAaBC
        4hMPTInAH00bwAvg/QDgvQABIACAAANzaXVnQiQA6CNxwAAAKiAIABkgAyOYYAAj0mAAB2dwdGNZVE1FQAwLDWJlhQEAAAAAAAAAAQAAAAABAAAAAAAAAA==
        ADxkaXNhYmxlZD4AEAAAAA==
      >
      PRESETNAME <disabled>
      FLOATPOS 0 0 0 0
      FXID {4952D024-9C89-8C40-BA85-7849D4BCEAD7}
      WAK 0 0
    >
    <ITEM
      POSITION 121.90463999992841
      SNAPOFFS 0
      LENGTH 66.66660000007158
      LOOP 1
      ALLTAKES 0
      FADEIN 1 0 0 1 0 0
      FADEOUT 1 0 0 1 0 0
      MUTE 0 0
      SEL 0
      IGUID {7C618143-F21F-9849-A3CB-A8E9A70FB88E}
      IID 76
      NAME "pepto bismol 4oz bottle.mid"
      VOLPAN 1 0 1 -1
      SOFFS 121.90463999992841 128
      PLAYRATE 1 1 0 -1 0 0.0025
      CHANMODE 0
      GUID {9C8FC9F2-ACC7-FA4D-A6C9-31CA80D3ED18}
      <SOURCE MIDI
        HASDATA 1 128 QN
        CCINTERP 32
        POOLEDEVTS {1CA8FFDB-CAA0-514A-811C-C1A2AB12D728}
        E 16384 9b 35 47
        E 32 8b 35 47
        E 0 9b 38 47
        E 128 8b 38 47
        E 0 9b 33 47
        E 288 8b 33 47
        E 0 9b 35 47
        E 32 8b 35 47
        E 0 9b 38 47
        E 128 8b 38 47
        E 0 9b 33 47
        E 288 8b 33 47
        E 0 9b 35 47
        E 32 8b 35 47
        E 0 9b 38 47
        E 128 8b 38 47
        E 0 9b 33 47
        E 288 8b 33 47
        E 0 9b 35 47
        E 32 8b 35 47
        E 0 9b 38 47
        E 128 8b 38 47
        E 0 9b 33 47
        E 288 8b 33 47
        E 0 9b 35 47
        E 32 8b 35 47
        E 0 9b 38 47
        E 128 8b 38 47
        E 0 9b 33 47
        E 288 8b 33 47
        E 0 9b 35 47
        E 32 8b 35 47
        E 0 9b 38 47
        E 128 8b 38 47
        E 0 9b 33 47
        E 288 8b 33 47
        E 0 9b 35 47
        E 32 8b 35 47
        E 0 9b 38 47
        E 128 8b 38 47
        E 0 9b 33 47
        E 288 8b 33 47
        E 0 9b 35 47
        E 32 8b 35 47
        E 0 9b 38 47
        E 128 8b 38 47
        E 0 9b 33 47
        E 288 8b 33 47
        E 0 9b 35 47
        E 32 8b 35 47
        E 0 9b 38 47
        E 128 8b 38 47
        E 0 9b 33 47
        E 288 8b 33 47
        E 0 9b 35 47
        E 32 8b 35 47
        E 0 9b 38 47
        E 128 8b 38 47
        E 0 9b 33 47
        E 288 8b 33 47
        E 0 9b 35 47
        E 32 8b 35 47
        E 0 9b 38 47
        E 128 8b 38 47
        E 0 9b 33 47
        E 288 8b 33 47
        E 0 9b 35 47
        E 32 8b 35 47
        E 0 9b 38 47
        E 128 8b 38 47
        E 0 9b 33 47
        E 288 8b 33 47
        E 0 9b 35 47
        E 32 8b 35 47
        E 0 9b 38 47
        E 128 8b 38 47
        E 0 9b 33 47
        E 288 8b 33 47
        E 0 9b 35 47
        E 32 8b 35 47
        E 0 9b 38 47
        E 128 8b 38 47
        E 0 9b 33 47
        E 288 8b 33 47
        E 0 9b 35 47
        E 32 8b 35 47
        E 0 9b 38 47
        E 128 8b 38 47
        E 0 9b 33 47
        E 288 8b 33 47
        E 0 9b 35 47
        E 32 8b 35 47
        E 0 9b 38 47
        E 128 8b 38 47
        E 0 9b 33 47
        E 288 8b 33 47
        E 0 9b 35 47
        E 32 8b 35 47
        E 0 9b 38 47
        E 128 8b 38 47
        E 0 9b 33 47
        E 288 8b 33 47
        E 0 9b 35 47
        E 32 8b 35 47
        E 0 9b 38 47
        E 128 8b 38 47
        E 0 9b 33 47
        E 288 8b 33 47
        E 0 9b 35 47
        E 32 8b 35 47
        E 0 9b 38 47
        E 128 8b 38 47
        E 0 9b 33 47
        E 288 8b 33 47
        E 0 9b 35 47
        E 32 8b 35 47
        E 0 9b 38 47
        E 128 8b 38 47
        E 0 9b 33 47
        E 287 8b 33 47
        E 1 b0 7b 00
        CCINTERP 32
        CHASE_CC_TAKEOFFS 1
        GUID {729EA2C0-3A62-0949-902C-8EE4B23066C8}
        IGNTEMPO 0 120 4 4
        SRCCOLOR 934
      >
    >
  >
  <TRACK {445780F9-D6B7-6640-9984-B7EE2A9E45F7}
    NAME CC
    PEAKCOL 16576
    BEAT -1
    AUTOMODE 0
    VOLPAN 1 0 -1 -1 1
    MUTESOLO 0 0 0
    IPHASE 0
    PLAYOFFS 0 1
    ISBUS 1 1
    BUSCOMP 2 0 0 0 0
    SHOWINMIX 1 0.6667 0.5 1 0.5 0 -1 0
    FREEMODE 0
    SEL 1
    REC 0 0 1 0 0 0 0
    VU 2
    TRACKHEIGHT 0 0 0 0 -1 0
    INQ 0 0 0 0.5 100 0 0 100
    NCHAN 2
    FX 1
    TRACKID {445780F9-D6B7-6640-9984-B7EE2A9E45F7}
    PERF 0
    MIDIOUT -1
    MAINSEND 1 0
  >
  <TRACK {E07F238E-1372-984C-9523-1E04B25F80A4}
    NAME "pepto bismol 4oz bottle"
    PEAKCOL 16576
    BEAT -1
    AUTOMODE 0
    VOLPAN 1 0 -1 -1 1
    MUTESOLO 0 0 0
    IPHASE 0
    PLAYOFFS 0 1
    ISBUS 0 0
    BUSCOMP 0 0 0 0 0
    SHOWINMIX 1 0.6667 0.5 1 0.5 0 -1 0
    FREEMODE 0
    SEL 0
    REC 0 0 1 0 0 0 0
    VU 2
    TRACKHEIGHT 0 1 0 0 -1 0
    INQ 0 0 0 0.5 100 0 0 100
    NCHAN 2
    FX 1
    TRACKID {E07F238E-1372-984C-9523-1E04B25F80A4}
    PERF 0
    MIDIOUT -1
    MAINSEND 1 0
    <ITEM
      POSITION 0
      SNAPOFFS 0
      LENGTH 697.14216
      LOOP 1
      ALLTAKES 0
      FADEIN 1 0 0 1 0 0
      FADEOUT 1 0 0 1 0 0
      MUTE 0 0
      SEL 0
      IGUID {476EFF5C-1740-4246-B95D-13D4AD84E375}
      IID 13
      NAME "pepto bismol 4oz bottle.mid"
      VOLPAN 1 0 1 -1
      SOFFS 0 0
      PLAYRATE 1 1 0 -1 0 0.0025
      CHANMODE 0
      GUID {B7EE49A3-3CA0-C34B-9AF2-D632D7D9D128}
      <SOURCE MIDI
        HASDATA 1 128 QN
        CCINTERP 32
        POOLEDEVTS {F94541EB-1E65-DF41-8334-320D5D0C705F}
        E 19 b0 01 00
        E 19 b0 01 00
        E 19 b0 01 00
        E 19 b0 01 00
        E 19 b0 01 01
        E 19 b0 01 01
        E 19 b0 01 01
        E 19 b0 01 01
        E 19 b0 01 01
        E 19 b0 01 02
        E 19 b0 01 02
        E 19 b0 01 02
        E 19 b0 01 02
        E 19 b0 01 02
        E 19 b0 01 03
        E 19 b0 01 03
        E 19 b0 01 03
        E 19 b0 01 03
        E 19 b0 01 03
        E 19 b0 01 04
        E 19 b0 01 04
        E 19 b0 01 04
        E 19 b0 01 04
        E 19 b0 01 04
        E 19 b0 01 05
        E 19 b0 01 05
        E 19 b0 01 05
        E 19 b0 01 05
        E 19 b0 01 05
        E 19 b0 01 06
        E 19 b0 01 06
        E 19 b0 01 06
        E 19 b0 01 06
        E 19 b0 01 06
        E 19 b0 01 07
        E 19 b0 01 07
        E 19 b0 01 07
        E 19 b0 01 07
        E 19 b0 01 07
        E 19 b0 01 08
        E 19 b0 01 08
        E 19 b0 01 08
        E 19 b0 01 08
        E 19 b0 01 08
        E 19 b0 01 09
        E 19 b0 01 09
        E 19 b0 01 09
        E 19 b0 01 09
        E 19 b0 01 09
        E 19 b0 01 0a
        E 19 b0 01 0a
        E 19 b0 01 0a
        E 19 b0 01 0a
        E 19 b0 01 0a
        E 19 b0 01 0b
        E 19 b0 01 0b
        E 19 b0 01 0b
        E 19 b0 01 0b
        E 19 b0 01 0b
        E 19 b0 01 0c
        E 19 b0 01 0c
        E 19 b0 01 0c
        E 19 b0 01 0c
        E 19 b0 01 0c
        E 19 b0 01 0c
        E 19 b0 01 0c
        E 19 b0 01 0c
        E 19 b0 01 0c
        E 19 b0 01 0b
        E 19 b0 01 0b
        E 19 b0 01 0b
        E 19 b0 01 0b
        E 19 b0 01 0b
        E 19 b0 01 0a
        E 19 b0 01 0a
        E 19 b0 01 0a
        E 19 b0 01 0a
        E 19 b0 01 0a
        E 19 b0 01 09
        E 19 b0 01 09
        E 19 b0 01 09
        E 19 b0 01 09
        E 19 b0 01 09
        E 19 b0 01 08
        E 19 b0 01 08
        E 19 b0 01 08
        E 19 b0 01 08
        E 19 b0 01 08
        E 19 b0 01 07
        E 19 b0 01 07
        E 19 b0 01 07
        E 19 b0 01 07
        E 19 b0 01 07
        E 19 b0 01 06
        E 19 b0 01 06
        E 19 b0 01 06
        E 19 b0 01 06
        E 19 b0 01 06
        E 19 b0 01 05
        E 19 b0 01 05
        E 19 b0 01 05
        E 19 b0 01 05
        E 19 b0 01 05
        E 19 b0 01 04
        E 19 b0 01 04
        E 19 b0 01 04
        E 19 b0 01 04
        E 19 b0 01 04
        E 19 b0 01 03
        E 19 b0 01 03
        E 19 b0 01 03
        E 19 b0 01 03
        E 19 b0 01 03
        E 19 b0 01 02
        E 19 b0 01 02
        E 19 b0 01 02
        E 19 b0 01 02
        E 19 b0 01 02
        E 19 b0 01 01
        E 19 b0 01 01
        E 19 b0 01 01
        E 19 b0 01 01
        E 19 b0 01 01
        E 19 b0 01 00
        E 19 b0 01 00
        E 19 b0 01 00
        E 19 b0 01 00
        E 19 b0 01 00
        E 19 b0 01 02
        E 19 b0 01 04
        E 19 b0 01 06
        E 19 b0 01 08
        E 19 b0 01 0a
        E 19 b0 01 0c
        E 19 b0 01 0e
        E 19 b0 01 10
        E 19 b0 01 12
        E 19 b0 01 14
        E 19 b0 01 16
        E 19 b0 01 18
        E 19 b0 01 1a
        E 19 b0 01 1c
        E 19 b0 01 1e
        E 19 b0 01 20
        E 19 b0 01 22
        E 19 b0 01 24
        E 19 b0 01 26
        E 19 b0 01 28
        E 19 b0 01 2a
        E 19 b0 01 2c
        E 19 b0 01 2e
        E 19 b0 01 30
        E 19 b0 01 32
        E 19 b0 01 34
        E 19 b0 01 36
        E 19 b0 01 38
        E 19 b0 01 3a
        E 19 b0 01 3c
        E 19 b0 01 3e
        E 19 b0 01 40
        E 19 b0 01 42
        E 19 b0 01 44
        E 19 b0 01 46
        E 19 b0 01 48
        E 19 b0 01 4a
        E 19 b0 01 4c
        E 19 b0 01 4e
        E 19 b0 01 50
        E 19 b0 01 52
        E 19 b0 01 54
        E 19 b0 01 56
        E 19 b0 01 58
        E 19 b0 01 5a
        E 19 b0 01 5c
        E 19 b0 01 5e
        E 19 b0 01 60
        E 19 b0 01 62
        E 19 b0 01 64
        E 19 b0 01 66
        E 19 b0 01 68
        E 19 b0 01 6a
        E 19 b0 01 6c
        E 19 b0 01 6e
        E 19 b0 01 70
        E 19 b0 01 72
        E 19 b0 01 74
        E 19 b0 01 76
        E 19 b0 01 78
        E 19 b0 01 7a
        E 19 b0 01 7c
        E 19 b0 01 7e
        E 19 b0 01 7f
        E 19 b0 01 7e
        E 19 b0 01 7c
        E 19 b0 01 7a
        E 19 b0 01 78
        E 19 b0 01 76
        E 19 b0 01 74
        E 19 b0 01 72
        E 19 b0 01 70
        E 19 b0 01 6e
        E 19 b0 01 6c
        E 19 b0 01 6a
        E 19 b0 01 68
        E 19 b0 01 66
        E 19 b0 01 64
        E 19 b0 01 62
        E 19 b0 01 60
        E 19 b0 01 5e
        E 19 b0 01 5c
        E 19 b0 01 5a
        E 19 b0 01 58
        E 19 b0 01 56
        E 19 b0 01 54
        E 19 b0 01 52
        E 19 b0 01 50
        E 19 b0 01 4e
        E 19 b0 01 4c
        E 19 b0 01 4a
        E 19 b0 01 48
        E 19 b0 01 46
        E 19 b0 01 44
        E 19 b0 01 42
        E 19 b0 01 40
        E 19 b0 01 3e
        E 19 b0 01 3c
        E 19 b0 01 3a
        E 19 b0 01 38
        E 19 b0 01 36
        E 19 b0 01 34
        E 19 b0 01 32
        E 19 b0 01 30
        E 19 b0 01 2e
        E 19 b0 01 2c
        E 19 b0 01 2a
        E 19 b0 01 28
        E 19 b0 01 26
        E 19 b0 01 24
        E 19 b0 01 22
        E 19 b0 01 20
        E 19 b0 01 1e
        E 19 b0 01 1c
        E 19 b0 01 1a
        E 19 b0 01 18
        E 19 b0 01 16
        E 19 b0 01 14
        E 19 b0 01 12
        E 19 b0 01 10
        E 19 b0 01 0e
        E 19 b0 01 0c
        E 19 b0 01 0a
        E 19 b0 01 08
        E 19 b0 01 06
        E 19 b0 01 04
        E 19 b0 01 02
        E 19 b0 01 00
        E 24 b0 01 00
        E 24 b0 01 00
        E 24 b0 01 00
        E 24 b0 01 00
        E 24 b0 01 01
        E 24 b0 01 01
        E 24 b0 01 01
        E 24 b0 01 01
        E 24 b0 01 01
        E 24 b0 01 02
        E 24 b0 01 02
        E 24 b0 01 02
        E 24 b0 01 02
        E 24 b0 01 02
        E 24 b0 01 03
        E 24 b0 01 03
        E 24 b0 01 03
        E 24 b0 01 03
        E 24 b0 01 03
        E 24 b0 01 04
        E 24 b0 01 04
        E 24 b0 01 04
        E 24 b0 01 04
        E 24 b0 01 04
        E 24 b0 01 05
        E 24 b0 01 05
        E 24 b0 01 05
        E 24 b0 01 05
        E 24 b0 01 05
        E 24 b0 01 06
        E 24 b0 01 06
        E 24 b0 01 06
        E 24 b0 01 06
        E 24 b0 01 06
        E 24 b0 01 07
        E 24 b0 01 07
        E 24 b0 01 07
        E 24 b0 01 07
        E 24 b0 01 07
        E 24 b0 01 08
        E 24 b0 01 08
        E 24 b0 01 08
        E 24 b0 01 08
        E 24 b0 01 08
        E 24 b0 01 09
        E 24 b0 01 09
        E 24 b0 01 09
        E 24 b0 01 09
        E 24 b0 01 09
        E 24 b0 01 0a
        E 24 b0 01 0a
        E 24 b0 01 0a
        E 24 b0 01 0a
        E 24 b0 01 0a
        E 24 b0 01 0b
        E 24 b0 01 0b
        E 24 b0 01 0b
        E 24 b0 01 0b
        E 24 b0 01 0b
        E 24 b0 01 0c
        E 24 b0 01 0c
        E 24 b0 01 0c
        E 24 b0 01 0c
        E 24 b0 01 0c
        E 24 b0 01 0c
        E 24 b0 01 0c
        E 24 b0 01 0c
        E 24 b0 01 0c
        E 24 b0 01 0b
        E 24 b0 01 0b
        E 24 b0 01 0b
        E 24 b0 01 0b
        E 24 b0 01 0b
        E 24 b0 01 0a
        E 24 b0 01 0a
        E 24 b0 01 0a
        E 24 b0 01 0a
        E 24 b0 01 0a
        E 24 b0 01 09
        E 24 b0 01 09
        E 24 b0 01 09
        E 24 b0 01 09
        E 24 b0 01 09
        E 24 b0 01 08
        E 24 b0 01 08
        E 24 b0 01 08
        E 24 b0 01 08
        E 24 b0 01 08
        E 24 b0 01 07
        E 24 b0 01 07
        E 24 b0 01 07
        E 24 b0 01 07
        E 24 b0 01 07
        E 24 b0 01 06
        E 24 b0 01 06
        E 24 b0 01 06
        E 24 b0 01 06
        E 24 b0 01 06
        E 24 b0 01 05
        E 24 b0 01 05
        E 24 b0 01 05
        E 24 b0 01 05
        E 24 b0 01 05
        E 24 b0 01 04
        E 24 b0 01 04
        E 24 b0 01 04
        E 24 b0 01 04
        E 24 b0 01 04
        E 24 b0 01 03
        E 24 b0 01 03
        E 24 b0 01 03
        E 24 b0 01 03
        E 24 b0 01 03
        E 24 b0 01 02
        E 24 b0 01 02
        E 24 b0 01 02
        E 24 b0 01 02
        E 24 b0 01 02
        E 24 b0 01 01
        E 24 b0 01 01
        E 24 b0 01 01
        E 24 b0 01 01
        E 24 b0 01 01
        E 24 b0 01 00
        E 24 b0 01 00
        E 24 b0 01 00
        E 24 b0 01 00
        E 24 b0 01 00
        E 4 b0 01 00
        E 4 b0 01 01
        E 4 b0 01 02
        E 4 b0 01 03
        E 4 b0 01 04
        E 4 b0 01 04
        E 4 b0 01 05
        E 4 b0 01 06
        E 4 b0 01 07
        E 4 b0 01 08
        E 4 b0 01 08
        E 4 b0 01 09
        E 4 b0 01 0a
        E 4 b0 01 0b
        E 4 b0 01 0c
        E 4 b0 01 0c
        E 4 b0 01 0d
        E 4 b0 01 0e
        E 4 b0 01 0f
        E 4 b0 01 10
        E 4 b0 01 10
        E 4 b0 01 11
        E 4 b0 01 12
        E 4 b0 01 13
        E 4 b0 01 14
        E 4 b0 01 14
        E 4 b0 01 15
        E 4 b0 01 16
        E 4 b0 01 17
        E 4 b0 01 18
        E 4 b0 01 18
        E 4 b0 01 19
        E 4 b0 01 1a
        E 4 b0 01 1b
        E 4 b0 01 1c
        E 4 b0 01 1c
        E 4 b0 01 1d
        E 4 b0 01 1e
        E 4 b0 01 1f
        E 4 b0 01 20
        E 4 b0 01 20
        E 4 b0 01 21
        E 4 b0 01 22
        E 4 b0 01 23
        E 4 b0 01 24
        E 4 b0 01 24
        E 4 b0 01 25
        E 4 b0 01 26
        E 4 b0 01 27
        E 4 b0 01 28
        E 4 b0 01 28
        E 4 b0 01 29
        E 4 b0 01 2a
        E 4 b0 01 2b
        E 4 b0 01 2c
        E 4 b0 01 2c
        E 4 b0 01 2d
        E 4 b0 01 2e
        E 4 b0 01 2f
        E 4 b0 01 30
        E 4 b0 01 30
        E 4 b0 01 31
        E 4 b0 01 32
        E 4 b0 01 32
        E 4 b0 01 32
        E 4 b0 01 31
        E 4 b0 01 30
        E 4 b0 01 30
        E 4 b0 01 2f
        E 4 b0 01 2e
        E 4 b0 01 2d
        E 4 b0 01 2c
        E 4 b0 01 2c
        E 4 b0 01 2b
        E 4 b0 01 2a
        E 4 b0 01 29
        E 4 b0 01 28
        E 4 b0 01 28
        E 4 b0 01 27
        E 4 b0 01 26
        E 4 b0 01 25
        E 4 b0 01 24
        E 4 b0 01 24
        E 4 b0 01 23
        E 4 b0 01 22
        E 4 b0 01 21
        E 4 b0 01 20
        E 4 b0 01 20
        E 4 b0 01 1f
        E 4 b0 01 1e
        E 4 b0 01 1d
        E 4 b0 01 1c
        E 4 b0 01 1c
        E 4 b0 01 1b
        E 4 b0 01 1a
        E 4 b0 01 19
        E 4 b0 01 18
        E 4 b0 01 18
        E 4 b0 01 17
        E 4 b0 01 16
        E 4 b0 01 15
        E 4 b0 01 14
        E 4 b0 01 14
        E 4 b0 01 13
        E 4 b0 01 12
        E 4 b0 01 11
        E 4 b0 01 10
        E 4 b0 01 10
        E 4 b0 01 0f
        E 4 b0 01 0e
        E 4 b0 01 0d
        E 4 b0 01 0c
        E 4 b0 01 0c
        E 4 b0 01 0b
        E 4 b0 01 0a
        E 4 b0 01 09
        E 4 b0 01 08
        E 4 b0 01 08
        E 4 b0 01 07
        E 4 b0 01 06
        E 4 b0 01 05
        E 4 b0 01 04
        E 4 b0 01 04
        E 4 b0 01 03
        E 4 b0 01 02
        E 4 b0 01 01
        E 4 b0 01 00
        E 4 b0 01 00
        E 24 b0 01 00
        E 24 b0 01 00
        E 24 b0 01 01
        E 24 b0 01 01
        E 24 b0 01 02
        E 24 b0 01 02
        E 24 b0 01 02
        E 24 b0 01 03
        E 24 b0 01 03
        E 24 b0 01 04
        E 24 b0 01 04
        E 24 b0 01 04
        E 24 b0 01 05
        E 24 b0 01 05
        E 24 b0 01 06
        E 24 b0 01 06
        E 24 b0 01 06
        E 24 b0 01 07
        E 24 b0 01 07
        E 24 b0 01 08
        E 24 b0 01 08
        E 24 b0 01 08
        E 24 b0 01 09
        E 24 b0 01 09
        E 24 b0 01 0a
        E 24 b0 01 0a
        E 24 b0 01 0a
        E 24 b0 01 0b
        E 24 b0 01 0b
        E 24 b0 01 0c
        E 24 b0 01 0c
        E 24 b0 01 0c
        E 24 b0 01 0d
        E 24 b0 01 0d
        E 24 b0 01 0e
        E 24 b0 01 0e
        E 24 b0 01 0e
        E 24 b0 01 0f
        E 24 b0 01 0f
        E 24 b0 01 10
        E 24 b0 01 10
        E 24 b0 01 10
        E 24 b0 01 11
        E 24 b0 01 11
        E 24 b0 01 12
        E 24 b0 01 12
        E 24 b0 01 12
        E 24 b0 01 13
        E 24 b0 01 13
        E 24 b0 01 14
        E 24 b0 01 14
        E 24 b0 01 14
        E 24 b0 01 15
        E 24 b0 01 15
        E 24 b0 01 16
        E 24 b0 01 16
        E 24 b0 01 16
        E 24 b0 01 17
        E 24 b0 01 17
        E 24 b0 01 18
        E 24 b0 01 18
        E 24 b0 01 18
        E 24 b0 01 19
        E 24 b0 01 19
        E 24 b0 01 19
        E 24 b0 01 18
        E 24 b0 01 18
        E 24 b0 01 18
        E 24 b0 01 17
        E 24 b0 01 17
        E 24 b0 01 16
        E 24 b0 01 16
        E 24 b0 01 16
        E 24 b0 01 15
        E 24 b0 01 15
        E 24 b0 01 14
        E 24 b0 01 14
        E 24 b0 01 14
        E 24 b0 01 13
        E 24 b0 01 13
        E 24 b0 01 12
        E 24 b0 01 12
        E 24 b0 01 12
        E 24 b0 01 11
        E 24 b0 01 11
        E 24 b0 01 10
        E 24 b0 01 10
        E 24 b0 01 10
        E 24 b0 01 0f
        E 24 b0 01 0f
        E 24 b0 01 0e
        E 24 b0 01 0e
        E 24 b0 01 0e
        E 24 b0 01 0d
        E 24 b0 01 0d
        E 24 b0 01 0c
        E 24 b0 01 0c
        E 24 b0 01 0c
        E 24 b0 01 0b
        E 24 b0 01 0b
        E 24 b0 01 0a
        E 24 b0 01 0a
        E 24 b0 01 0a
        E 24 b0 01 09
        E 24 b0 01 09
        E 24 b0 01 08
        E 24 b0 01 08
        E 24 b0 01 08
        E 24 b0 01 07
        E 24 b0 01 07
        E 24 b0 01 06
        E 24 b0 01 06
        E 24 b0 01 06
        E 24 b0 01 05
        E 24 b0 01 05
        E 24 b0 01 04
        E 24 b0 01 04
        E 24 b0 01 04
        E 24 b0 01 03
        E 24 b0 01 03
        E 24 b0 01 02
        E 24 b0 01 02
        E 24 b0 01 02
        E 24 b0 01 01
        E 24 b0 01 01
        E 24 b0 01 00
        E 24 b0 01 00
        E 24 b0 01 00
        E 4 b0 01 02
        E 4 b0 01 04
        E 4 b0 01 06
        E 4 b0 01 08
        E 4 b0 01 0a
        E 4 b0 01 0c
        E 4 b0 01 0e
        E 4 b0 01 10
        E 4 b0 01 12
        E 4 b0 01 14
        E 4 b0 01 16
        E 4 b0 01 18
        E 4 b0 01 1a
        E 4 b0 01 1c
        E 4 b0 01 1e
        E 4 b0 01 20
        E 4 b0 01 22
        E 4 b0 01 24
        E 4 b0 01 26
        E 4 b0 01 28
        E 4 b0 01 2a
        E 4 b0 01 2c
        E 4 b0 01 2e
        E 4 b0 01 30
        E 4 b0 01 32
        E 4 b0 01 34
        E 4 b0 01 36
        E 4 b0 01 38
        E 4 b0 01 3a
        E 4 b0 01 3c
        E 4 b0 01 3e
        E 4 b0 01 40
        E 4 b0 01 42
        E 4 b0 01 44
        E 4 b0 01 46
        E 4 b0 01 48
        E 4 b0 01 4a
        E 4 b0 01 4c
        E 4 b0 01 4e
        E 4 b0 01 50
        E 4 b0 01 52
        E 4 b0 01 54
        E 4 b0 01 56
        E 4 b0 01 58
        E 4 b0 01 5a
        E 4 b0 01 5c
        E 4 b0 01 5e
        E 4 b0 01 60
        E 4 b0 01 62
        E 4 b0 01 64
        E 4 b0 01 66
        E 4 b0 01 68
        E 4 b0 01 6a
        E 4 b0 01 6c
        E 4 b0 01 6e
        E 4 b0 01 70
        E 4 b0 01 72
        E 4 b0 01 74
        E 4 b0 01 76
        E 4 b0 01 78
        E 4 b0 01 7a
        E 4 b0 01 7c
        E 4 b0 01 7e
        E 4 b0 01 7f
        E 4 b0 01 7e
        E 4 b0 01 7c
        E 4 b0 01 7a
        E 4 b0 01 78
        E 4 b0 01 76
        E 4 b0 01 74
        E 4 b0 01 72
        E 4 b0 01 70
        E 4 b0 01 6e
        E 4 b0 01 6c
        E 4 b0 01 6a
        E 4 b0 01 68
        E 4 b0 01 66
        E 4 b0 01 64
        E 4 b0 01 62
        E 4 b0 01 60
        E 4 b0 01 5e
        E 4 b0 01 5c
        E 4 b0 01 5a
        E 4 b0 01 58
        E 4 b0 01 56
        E 4 b0 01 54
        E 4 b0 01 52
        E 4 b0 01 50
        E 4 b0 01 4e
        E 4 b0 01 4c
        E 4 b0 01 4a
        E 4 b0 01 48
        E 4 b0 01 46
        E 4 b0 01 44
        E 4 b0 01 42
        E 4 b0 01 40
        E 4 b0 01 3e
        E 4 b0 01 3c
        E 4 b0 01 3a
        E 4 b0 01 38
        E 4 b0 01 36
        E 4 b0 01 34
        E 4 b0 01 32
        E 4 b0 01 30
        E 4 b0 01 2e
        E 4 b0 01 2c
        E 4 b0 01 2a
        E 4 b0 01 28
        E 4 b0 01 26
        E 4 b0 01 24
        E 4 b0 01 22
        E 4 b0 01 20
        E 4 b0 01 1e
        E 4 b0 01 1c
        E 4 b0 01 1a
        E 4 b0 01 18
        E 4 b0 01 16
        E 4 b0 01 14
        E 4 b0 01 12
        E 4 b0 01 10
        E 4 b0 01 0e
        E 4 b0 01 0c
        E 4 b0 01 0a
        E 4 b0 01 08
        E 4 b0 01 06
        E 4 b0 01 04
        E 4 b0 01 02
        E 4 b0 01 00
        E 19 b0 01 00
        E 19 b0 01 00
        E 19 b0 01 00
        E 19 b0 01 00
        E 19 b0 01 01
        E 19 b0 01 01
        E 19 b0 01 01
        E 19 b0 01 01
        E 19 b0 01 01
        E 19 b0 01 02
        E 19 b0 01 02
        E 19 b0 01 02
        E 19 b0 01 02
        E 19 b0 01 02
        E 19 b0 01 03
        E 19 b0 01 03
        E 19 b0 01 03
        E 19 b0 01 03
        E 19 b0 01 03
        E 19 b0 01 04
        E 19 b0 01 04
        E 19 b0 01 04
        E 19 b0 01 04
        E 19 b0 01 04
        E 19 b0 01 05
        E 19 b0 01 05
        E 19 b0 01 05
        E 19 b0 01 05
        E 19 b0 01 05
        E 19 b0 01 06
        E 19 b0 01 06
        E 19 b0 01 06
        E 19 b0 01 06
        E 19 b0 01 06
        E 19 b0 01 07
        E 19 b0 01 07
        E 19 b0 01 07
        E 19 b0 01 07
        E 19 b0 01 07
        E 19 b0 01 08
        E 19 b0 01 08
        E 19 b0 01 08
        E 19 b0 01 08
        E 19 b0 01 08
        E 19 b0 01 09
        E 19 b0 01 09
        E 19 b0 01 09
        E 19 b0 01 09
        E 19 b0 01 09
        E 19 b0 01 0a
        E 19 b0 01 0a
        E 19 b0 01 0a
        E 19 b0 01 0a
        E 19 b0 01 0a
        E 19 b0 01 0b
        E 19 b0 01 0b
        E 19 b0 01 0b
        E 19 b0 01 0b
        E 19 b0 01 0b
        E 19 b0 01 0c
        E 19 b0 01 0c
        E 19 b0 01 0c
        E 19 b0 01 0c
        E 19 b0 01 0c
        E 19 b0 01 0c
        E 19 b0 01 0c
        E 19 b0 01 0c
        E 19 b0 01 0c
        E 19 b0 01 0b
        E 19 b0 01 0b
        E 19 b0 01 0b
        E 19 b0 01 0b
        E 19 b0 01 0b
        E 19 b0 01 0a
        E 19 b0 01 0a
        E 19 b0 01 0a
        E 19 b0 01 0a
        E 19 b0 01 0a
        E 19 b0 01 09
        E 19 b0 01 09
        E 19 b0 01 09
        E 19 b0 01 09
        E 19 b0 01 09
        E 19 b0 01 08
        E 19 b0 01 08
        E 19 b0 01 08
        E 19 b0 01 08
        E 19 b0 01 08
        E 19 b0 01 07
        E 19 b0 01 07
        E 19 b0 01 07
        E 19 b0 01 07
        E 19 b0 01 07
        E 19 b0 01 06
        E 19 b0 01 06
        E 19 b0 01 06
        E 19 b0 01 06
        E 19 b0 01 06
        E 19 b0 01 05
        E 19 b0 01 05
        E 19 b0 01 05
        E 19 b0 01 05
        E 19 b0 01 05
        E 19 b0 01 04
        E 19 b0 01 04
        E 19 b0 01 04
        E 19 b0 01 04
        E 19 b0 01 04
        E 19 b0 01 03
        E 19 b0 01 03
        E 19 b0 01 03
        E 19 b0 01 03
        E 19 b0 01 03
        E 19 b0 01 02
        E 19 b0 01 02
        E 19 b0 01 02
        E 19 b0 01 02
        E 19 b0 01 02
        E 19 b0 01 01
        E 19 b0 01 01
        E 19 b0 01 01
        E 19 b0 01 01
        E 19 b0 01 01
        E 19 b0 01 00
        E 19 b0 01 00
        E 19 b0 01 00
        E 19 b0 01 00
        E 19 b0 01 00
        E 19 b0 01 02
        E 19 b0 01 04
        E 19 b0 01 06
        E 19 b0 01 08
        E 19 b0 01 0a
        E 19 b0 01 0c
        E 19 b0 01 0e
        E 19 b0 01 10
        E 19 b0 01 12
        E 19 b0 01 14
        E 19 b0 01 16
        E 19 b0 01 18
        E 19 b0 01 1a
        E 19 b0 01 1c
        E 19 b0 01 1e
        E 19 b0 01 20
        E 19 b0 01 22
        E 19 b0 01 24
        E 19 b0 01 26
        E 19 b0 01 28
        E 19 b0 01 2a
        E 19 b0 01 2c
        E 19 b0 01 2e
        E 19 b0 01 30
        E 19 b0 01 32
        E 19 b0 01 34
        E 19 b0 01 36
        E 19 b0 01 38
        E 19 b0 01 3a
        E 19 b0 01 3c
        E 19 b0 01 3e
        E 19 b0 01 40
        E 19 b0 01 42
        E 19 b0 01 44
        E 19 b0 01 46
        E 19 b0 01 48
        E 19 b0 01 4a
        E 19 b0 01 4c
        E 19 b0 01 4e
        E 19 b0 01 50
        E 19 b0 01 52
        E 19 b0 01 54
        E 19 b0 01 56
        E 19 b0 01 58
        E 19 b0 01 5a
        E 19 b0 01 5c
        E 19 b0 01 5e
        E 19 b0 01 60
        E 19 b0 01 62
        E 19 b0 01 64
        E 19 b0 01 66
        E 19 b0 01 68
        E 19 b0 01 6a
        E 19 b0 01 6c
        E 19 b0 01 6e
        E 19 b0 01 70
        E 19 b0 01 72
        E 19 b0 01 74
        E 19 b0 01 76
        E 19 b0 01 78
        E 19 b0 01 7a
        E 19 b0 01 7c
        E 19 b0 01 7e
        E 19 b0 01 7f
        E 19 b0 01 7e
        E 19 b0 01 7c
        E 19 b0 01 7a
        E 19 b0 01 78
        E 19 b0 01 76
        E 19 b0 01 74
        E 19 b0 01 72
        E 19 b0 01 70
        E 19 b0 01 6e
        E 19 b0 01 6c
        E 19 b0 01 6a
        E 19 b0 01 68
        E 19 b0 01 66
        E 19 b0 01 64
        E 19 b0 01 62
        E 19 b0 01 60
        E 19 b0 01 5e
        E 19 b0 01 5c
        E 19 b0 01 5a
        E 19 b0 01 58
        E 19 b0 01 56
        E 19 b0 01 54
        E 19 b0 01 52
        E 19 b0 01 50
        E 19 b0 01 4e
        E 19 b0 01 4c
        E 19 b0 01 4a
        E 19 b0 01 48
        E 19 b0 01 46
        E 19 b0 01 44
        E 19 b0 01 42
        E 19 b0 01 40
        E 19 b0 01 3e
        E 19 b0 01 3c
        E 19 b0 01 3a
        E 19 b0 01 38
        E 19 b0 01 36
        E 19 b0 01 34
        E 19 b0 01 32
        E 19 b0 01 30
        E 19 b0 01 2e
        E 19 b0 01 2c
        E 19 b0 01 2a
        E 19 b0 01 28
        E 19 b0 01 26
        E 19 b0 01 24
        E 19 b0 01 22
        E 19 b0 01 20
        E 19 b0 01 1e
        E 19 b0 01 1c
        E 19 b0 01 1a
        E 19 b0 01 18
        E 19 b0 01 16
        E 19 b0 01 14
        E 19 b0 01 12
        E 19 b0 01 10
        E 19 b0 01 0e
        E 19 b0 01 0c
        E 19 b0 01 0a
        E 19 b0 01 08
        E 19 b0 01 06
        E 19 b0 01 04
        E 19 b0 01 02
        E 19 b0 01 00
        E 24 b0 01 00
        E 24 b0 01 00
        E 24 b0 01 00
        E 24 b0 01 00
        E 24 b0 01 01
        E 24 b0 01 01
        E 24 b0 01 01
        E 24 b0 01 01
        E 24 b0 01 01
        E 24 b0 01 02
        E 24 b0 01 02
        E 24 b0 01 02
        E 24 b0 01 02
        E 24 b0 01 02
        E 24 b0 01 03
        E 24 b0 01 03
        E 24 b0 01 03
        E 24 b0 01 03
        E 24 b0 01 03
        E 24 b0 01 04
        E 24 b0 01 04
        E 24 b0 01 04
        E 24 b0 01 04
        E 24 b0 01 04
        E 24 b0 01 05
        E 24 b0 01 05
        E 24 b0 01 05
        E 24 b0 01 05
        E 24 b0 01 05
        E 24 b0 01 06
        E 24 b0 01 06
        E 24 b0 01 06
        E 24 b0 01 06
        E 24 b0 01 06
        E 24 b0 01 07
        E 24 b0 01 07
        E 24 b0 01 07
        E 24 b0 01 07
        E 24 b0 01 07
        E 24 b0 01 08
        E 24 b0 01 08
        E 24 b0 01 08
        E 24 b0 01 08
        E 24 b0 01 08
        E 24 b0 01 09
        E 24 b0 01 09
        E 24 b0 01 09
        E 24 b0 01 09
        E 24 b0 01 09
        E 24 b0 01 0a
        E 24 b0 01 0a
        E 24 b0 01 0a
        E 24 b0 01 0a
        E 24 b0 01 0a
        E 24 b0 01 0b
        E 24 b0 01 0b
        E 24 b0 01 0b
        E 24 b0 01 0b
        E 24 b0 01 0b
        E 24 b0 01 0c
        E 24 b0 01 0c
        E 24 b0 01 0c
        E 24 b0 01 0c
        E 24 b0 01 0c
        E 24 b0 01 0c
        E 24 b0 01 0c
        E 24 b0 01 0c
        E 24 b0 01 0c
        E 24 b0 01 0b
        E 24 b0 01 0b
        E 24 b0 01 0b
        E 24 b0 01 0b
        E 24 b0 01 0b
        E 24 b0 01 0a
        E 24 b0 01 0a
        E 24 b0 01 0a
        E 24 b0 01 0a
        E 24 b0 01 0a
        E 24 b0 01 09
        E 24 b0 01 09
        E 24 b0 01 09
        E 24 b0 01 09
        E 24 b0 01 09
        E 24 b0 01 08
        E 24 b0 01 08
        E 24 b0 01 08
        E 24 b0 01 08
        E 24 b0 01 08
        E 24 b0 01 07
        E 24 b0 01 07
        E 24 b0 01 07
        E 24 b0 01 07
        E 24 b0 01 07
        E 24 b0 01 06
        E 24 b0 01 06
        E 24 b0 01 06
        E 24 b0 01 06
        E 24 b0 01 06
        E 24 b0 01 05
        E 24 b0 01 05
        E 24 b0 01 05
        E 24 b0 01 05
        E 24 b0 01 05
        E 24 b0 01 04
        E 24 b0 01 04
        E 24 b0 01 04
        E 24 b0 01 04
        E 24 b0 01 04
        E 24 b0 01 03
        E 24 b0 01 03
        E 24 b0 01 03
        E 24 b0 01 03
        E 24 b0 01 03
        E 24 b0 01 02
        E 24 b0 01 02
        E 24 b0 01 02
        E 24 b0 01 02
        E 24 b0 01 02
        E 24 b0 01 01
        E 24 b0 01 01
        E 24 b0 01 01
        E 24 b0 01 01
        E 24 b0 01 01
        E 24 b0 01 00
        E 24 b0 01 00
        E 24 b0 01 00
        E 24 b0 01 00
        E 24 b0 01 00
        E 4 b0 01 00
        E 4 b0 01 01
        E 4 b0 01 02
        E 4 b0 01 03
        E 4 b0 01 04
        E 4 b0 01 04
        E 4 b0 01 05
        E 4 b0 01 06
        E 4 b0 01 07
        E 4 b0 01 08
        E 4 b0 01 08
        E 4 b0 01 09
        E 4 b0 01 0a
        E 4 b0 01 0b
        E 4 b0 01 0c
        E 4 b0 01 0c
        E 4 b0 01 0d
        E 4 b0 01 0e
        E 4 b0 01 0f
        E 4 b0 01 10
        E 4 b0 01 10
        E 4 b0 01 11
        E 4 b0 01 12
        E 4 b0 01 13
        E 4 b0 01 14
        E 4 b0 01 14
        E 4 b0 01 15
        E 4 b0 01 16
        E 4 b0 01 17
        E 4 b0 01 18
        E 4 b0 01 18
        E 4 b0 01 19
        E 4 b0 01 1a
        E 4 b0 01 1b
        E 4 b0 01 1c
        E 4 b0 01 1c
        E 4 b0 01 1d
        E 4 b0 01 1e
        E 4 b0 01 1f
        E 4 b0 01 20
        E 4 b0 01 20
        E 4 b0 01 21
        E 4 b0 01 22
        E 4 b0 01 23
        E 4 b0 01 24
        E 4 b0 01 24
        E 4 b0 01 25
        E 4 b0 01 26
        E 4 b0 01 27
        E 4 b0 01 28
        E 4 b0 01 28
        E 4 b0 01 29
        E 4 b0 01 2a
        E 4 b0 01 2b
        E 4 b0 01 2c
        E 4 b0 01 2c
        E 4 b0 01 2d
        E 4 b0 01 2e
        E 4 b0 01 2f
        E 4 b0 01 30
        E 4 b0 01 30
        E 4 b0 01 31
        E 4 b0 01 32
        E 4 b0 01 32
        E 4 b0 01 32
        E 4 b0 01 31
        E 4 b0 01 30
        E 4 b0 01 30
        E 4 b0 01 2f
        E 4 b0 01 2e
        E 4 b0 01 2d
        E 4 b0 01 2c
        E 4 b0 01 2c
        E 4 b0 01 2b
        E 4 b0 01 2a
        E 4 b0 01 29
        E 4 b0 01 28
        E 4 b0 01 28
        E 4 b0 01 27
        E 4 b0 01 26
        E 4 b0 01 25
        E 4 b0 01 24
        E 4 b0 01 24
        E 4 b0 01 23
        E 4 b0 01 22
        E 4 b0 01 21
        E 4 b0 01 20
        E 4 b0 01 20
        E 4 b0 01 1f
        E 4 b0 01 1e
        E 4 b0 01 1d
        E 4 b0 01 1c
        E 4 b0 01 1c
        E 4 b0 01 1b
        E 4 b0 01 1a
        E 4 b0 01 19
        E 4 b0 01 18
        E 4 b0 01 18
        E 4 b0 01 17
        E 4 b0 01 16
        E 4 b0 01 15
        E 4 b0 01 14
        E 4 b0 01 14
        E 4 b0 01 13
        E 4 b0 01 12
        E 4 b0 01 11
        E 4 b0 01 10
        E 4 b0 01 10
        E 4 b0 01 0f
        E 4 b0 01 0e
        E 4 b0 01 0d
        E 4 b0 01 0c
        E 4 b0 01 0c
        E 4 b0 01 0b
        E 4 b0 01 0a
        E 4 b0 01 09
        E 4 b0 01 08
        E 4 b0 01 08
        E 4 b0 01 07
        E 4 b0 01 06
        E 4 b0 01 05
        E 4 b0 01 04
        E 4 b0 01 04
        E 4 b0 01 03
        E 4 b0 01 02
        E 4 b0 01 01
        E 4 b0 01 00
        E 4 b0 01 00
        E 24 b0 01 00
        E 24 b0 01 00
        E 24 b0 01 01
        E 24 b0 01 01
        E 24 b0 01 02
        E 24 b0 01 02
        E 24 b0 01 02
        E 24 b0 01 03
        E 24 b0 01 03
        E 24 b0 01 04
        E 24 b0 01 04
        E 24 b0 01 04
        E 24 b0 01 05
        E 24 b0 01 05
        E 24 b0 01 06
        E 24 b0 01 06
        E 24 b0 01 06
        E 24 b0 01 07
        E 24 b0 01 07
        E 24 b0 01 08
        E 24 b0 01 08
        E 24 b0 01 08
        E 24 b0 01 09
        E 24 b0 01 09
        E 24 b0 01 0a
        E 24 b0 01 0a
        E 24 b0 01 0a
        E 24 b0 01 0b
        E 24 b0 01 0b
        E 24 b0 01 0c
        E 24 b0 01 0c
        E 24 b0 01 0c
        E 24 b0 01 0d
        E 24 b0 01 0d
        E 24 b0 01 0e
        E 24 b0 01 0e
        E 24 b0 01 0e
        E 24 b0 01 0f
        E 24 b0 01 0f
        E 24 b0 01 10
        E 24 b0 01 10
        E 24 b0 01 10
        E 24 b0 01 11
        E 24 b0 01 11
        E 24 b0 01 12
        E 24 b0 01 12
        E 24 b0 01 12
        E 24 b0 01 13
        E 24 b0 01 13
        E 24 b0 01 14
        E 24 b0 01 14
        E 24 b0 01 14
        E 24 b0 01 15
        E 24 b0 01 15
        E 24 b0 01 16
        E 24 b0 01 16
        E 24 b0 01 16
        E 24 b0 01 17
        E 24 b0 01 17
        E 24 b0 01 18
        E 24 b0 01 18
        E 24 b0 01 18
        E 24 b0 01 19
        E 24 b0 01 19
        E 24 b0 01 19
        E 24 b0 01 18
        E 24 b0 01 18
        E 24 b0 01 18
        E 24 b0 01 17
        E 24 b0 01 17
        E 24 b0 01 16
        E 24 b0 01 16
        E 24 b0 01 16
        E 24 b0 01 15
        E 24 b0 01 15
        E 24 b0 01 14
        E 24 b0 01 14
        E 24 b0 01 14
        E 24 b0 01 13
        E 24 b0 01 13
        E 24 b0 01 12
        E 24 b0 01 12
        E 24 b0 01 12
        E 24 b0 01 11
        E 24 b0 01 11
        E 24 b0 01 10
        E 24 b0 01 10
        E 24 b0 01 10
        E 24 b0 01 0f
        E 24 b0 01 0f
        E 24 b0 01 0e
        E 24 b0 01 0e
        E 24 b0 01 0e
        E 24 b0 01 0d
        E 24 b0 01 0d
        E 24 b0 01 0c
        E 24 b0 01 0c
        E 24 b0 01 0c
        E 24 b0 01 0b
        E 24 b0 01 0b
        E 24 b0 01 0a
        E 24 b0 01 0a
        E 24 b0 01 0a
        E 24 b0 01 09
        E 24 b0 01 09
        E 24 b0 01 08
        E 24 b0 01 08
        E 24 b0 01 08
        E 24 b0 01 07
        E 24 b0 01 07
        E 24 b0 01 06
        E 24 b0 01 06
        E 24 b0 01 06
        E 24 b0 01 05
        E 24 b0 01 05
        E 24 b0 01 04
        E 24 b0 01 04
        E 24 b0 01 04
        E 24 b0 01 03
        E 24 b0 01 03
        E 24 b0 01 02
        E 24 b0 01 02
        E 24 b0 01 02
        E 24 b0 01 01
        E 24 b0 01 01
        E 24 b0 01 00
        E 24 b0 01 00
        E 24 b0 01 00
        E 4 b0 01 02
        E 4 b0 01 04
        E 4 b0 01 06
        E 4 b0 01 08
        E 4 b0 01 0a
        E 4 b0 01 0c
        E 4 b0 01 0e
        E 4 b0 01 10
        E 4 b0 01 12
        E 4 b0 01 14
        E 4 b0 01 16
        E 4 b0 01 18
        E 4 b0 01 1a
        E 4 b0 01 1c
        E 4 b0 01 1e
        E 4 b0 01 20
        E 4 b0 01 22
        E 4 b0 01 24
        E 4 b0 01 26
        E 4 b0 01 28
        E 4 b0 01 2a
        E 4 b0 01 2c
        E 4 b0 01 2e
        E 4 b0 01 30
        E 4 b0 01 32
        E 4 b0 01 34
        E 4 b0 01 36
        E 4 b0 01 38
        E 4 b0 01 3a
        E 4 b0 01 3c
        E 4 b0 01 3e
        E 4 b0 01 40
        E 4 b0 01 42
        E 4 b0 01 44
        E 4 b0 01 46
        E 4 b0 01 48
        E 4 b0 01 4a
        E 4 b0 01 4c
        E 4 b0 01 4e
        E 4 b0 01 50
        E 4 b0 01 52
        E 4 b0 01 54
        E 4 b0 01 56
        E 4 b0 01 58
        E 4 b0 01 5a
        E 4 b0 01 5c
        E 4 b0 01 5e
        E 4 b0 01 60
        E 4 b0 01 62
        E 4 b0 01 64
        E 4 b0 01 66
        E 4 b0 01 68
        E 4 b0 01 6a
        E 4 b0 01 6c
        E 4 b0 01 6e
        E 4 b0 01 70
        E 4 b0 01 72
        E 4 b0 01 74
        E 4 b0 01 76
        E 4 b0 01 78
        E 4 b0 01 7a
        E 4 b0 01 7c
        E 4 b0 01 7e
        E 4 b0 01 7f
        E 4 b0 01 7e
        E 4 b0 01 7c
        E 4 b0 01 7a
        E 4 b0 01 78
        E 4 b0 01 76
        E 4 b0 01 74
        E 4 b0 01 72
        E 4 b0 01 70
        E 4 b0 01 6e
        E 4 b0 01 6c
        E 4 b0 01 6a
        E 4 b0 01 68
        E 4 b0 01 66
        E 4 b0 01 64
        E 4 b0 01 62
        E 4 b0 01 60
        E 4 b0 01 5e
        E 4 b0 01 5c
        E 4 b0 01 5a
        E 4 b0 01 58
        E 4 b0 01 56
        E 4 b0 01 54
        E 4 b0 01 52
        E 4 b0 01 50
        E 4 b0 01 4e
        E 4 b0 01 4c
        E 4 b0 01 4a
        E 4 b0 01 48
        E 4 b0 01 46
        E 4 b0 01 44
        E 4 b0 01 42
        E 4 b0 01 40
        E 4 b0 01 3e
        E 4 b0 01 3c
        E 4 b0 01 3a
        E 4 b0 01 38
        E 4 b0 01 36
        E 4 b0 01 34
        E 4 b0 01 32
        E 4 b0 01 30
        E 4 b0 01 2e
        E 4 b0 01 2c
        E 4 b0 01 2a
        E 4 b0 01 28
        E 4 b0 01 26
        E 4 b0 01 24
        E 4 b0 01 22
        E 4 b0 01 20
        E 4 b0 01 1e
        E 4 b0 01 1c
        E 4 b0 01 1a
        E 4 b0 01 18
        E 4 b0 01 16
        E 4 b0 01 14
        E 4 b0 01 12
        E 4 b0 01 10
        E 4 b0 01 0e
        E 4 b0 01 0c
        E 4 b0 01 0a
        E 4 b0 01 08
        E 4 b0 01 06
        E 4 b0 01 04
        E 4 b0 01 02
        E 4 b0 01 00
        E 19 b0 01 00
        E 19 b0 01 00
        E 19 b0 01 00
        E 19 b0 01 00
        E 19 b0 01 01
        E 19 b0 01 01
        E 19 b0 01 01
        E 19 b0 01 01
        E 19 b0 01 01
        E 19 b0 01 02
        E 19 b0 01 02
        E 19 b0 01 02
        E 19 b0 01 02
        E 19 b0 01 02
        E 19 b0 01 03
        E 19 b0 01 03
        E 19 b0 01 03
        E 19 b0 01 03
        E 19 b0 01 03
        E 19 b0 01 04
        E 19 b0 01 04
        E 19 b0 01 04
        E 19 b0 01 04
        E 19 b0 01 04
        E 19 b0 01 05
        E 19 b0 01 05
        E 19 b0 01 05
        E 19 b0 01 05
        E 19 b0 01 05
        E 19 b0 01 06
        E 19 b0 01 06
        E 19 b0 01 06
        E 19 b0 01 06
        E 19 b0 01 06
        E 19 b0 01 07
        E 19 b0 01 07
        E 19 b0 01 07
        E 19 b0 01 07
        E 19 b0 01 07
        E 19 b0 01 08
        E 19 b0 01 08
        E 19 b0 01 08
        E 19 b0 01 08
        E 19 b0 01 08
        E 19 b0 01 09
        E 19 b0 01 09
        E 19 b0 01 09
        E 19 b0 01 09
        E 19 b0 01 09
        E 19 b0 01 0a
        E 19 b0 01 0a
        E 19 b0 01 0a
        E 19 b0 01 0a
        E 19 b0 01 0a
        E 19 b0 01 0b
        E 19 b0 01 0b
        E 19 b0 01 0b
        E 19 b0 01 0b
        E 19 b0 01 0b
        E 19 b0 01 0c
        E 19 b0 01 0c
        E 19 b0 01 0c
        E 19 b0 01 0c
        E 19 b0 01 0c
        E 19 b0 01 0c
        E 19 b0 01 0c
        E 19 b0 01 0c
        E 19 b0 01 0c
        E 19 b0 01 0b
        E 19 b0 01 0b
        E 19 b0 01 0b
        E 19 b0 01 0b
        E 19 b0 01 0b
        E 19 b0 01 0a
        E 19 b0 01 0a
        E 19 b0 01 0a
        E 19 b0 01 0a
        E 19 b0 01 0a
        E 19 b0 01 09
        E 19 b0 01 09
        E 19 b0 01 09
        E 19 b0 01 09
        E 19 b0 01 09
        E 19 b0 01 08
        E 19 b0 01 08
        E 19 b0 01 08
        E 19 b0 01 08
        E 19 b0 01 08
        E 19 b0 01 07
        E 19 b0 01 07
        E 19 b0 01 07
        E 19 b0 01 07
        E 19 b0 01 07
        E 19 b0 01 06
        E 19 b0 01 06
        E 19 b0 01 06
        E 19 b0 01 06
        E 19 b0 01 06
        E 19 b0 01 05
        E 19 b0 01 05
        E 19 b0 01 05
        E 19 b0 01 05
        E 19 b0 01 05
        E 19 b0 01 04
        E 19 b0 01 04
        E 19 b0 01 04
        E 19 b0 01 04
        E 19 b0 01 04
        E 19 b0 01 03
        E 19 b0 01 03
        E 19 b0 01 03
        E 19 b0 01 03
        E 19 b0 01 03
        E 19 b0 01 02
        E 19 b0 01 02
        E 19 b0 01 02
        E 19 b0 01 02
        E 19 b0 01 02
        E 19 b0 01 01
        E 19 b0 01 01
        E 19 b0 01 01
        E 19 b0 01 01
        E 19 b0 01 01
        E 19 b0 01 00
        E 19 b0 01 00
        E 19 b0 01 00
        E 19 b0 01 00
        E 19 b0 01 00
        E 19 b0 01 02
        E 19 b0 01 04
        E 19 b0 01 06
        E 19 b0 01 08
        E 19 b0 01 0a
        E 19 b0 01 0c
        E 19 b0 01 0e
        E 19 b0 01 10
        E 19 b0 01 12
        E 19 b0 01 14
        E 19 b0 01 16
        E 19 b0 01 18
        E 19 b0 01 1a
        E 19 b0 01 1c
        E 19 b0 01 1e
        E 19 b0 01 20
        E 19 b0 01 22
        E 19 b0 01 24
        E 19 b0 01 26
        E 19 b0 01 28
        E 19 b0 01 2a
        E 19 b0 01 2c
        E 19 b0 01 2e
        E 19 b0 01 30
        E 19 b0 01 32
        E 19 b0 01 34
        E 19 b0 01 36
        E 19 b0 01 38
        E 19 b0 01 3a
        E 19 b0 01 3c
        E 19 b0 01 3e
        E 19 b0 01 40
        E 19 b0 01 42
        E 19 b0 01 44
        E 19 b0 01 46
        E 19 b0 01 48
        E 19 b0 01 4a
        E 19 b0 01 4c
        E 19 b0 01 4e
        E 19 b0 01 50
        E 19 b0 01 52
        E 19 b0 01 54
        E 19 b0 01 56
        E 19 b0 01 58
        E 19 b0 01 5a
        E 19 b0 01 5c
        E 19 b0 01 5e
        E 19 b0 01 60
        E 19 b0 01 62
        E 19 b0 01 64
        E 19 b0 01 66
        E 19 b0 01 68
        E 19 b0 01 6a
        E 19 b0 01 6c
        E 19 b0 01 6e
        E 19 b0 01 70
        E 19 b0 01 72
        E 19 b0 01 74
        E 19 b0 01 76
        E 19 b0 01 78
        E 19 b0 01 7a
        E 19 b0 01 7c
        E 19 b0 01 7e
        E 19 b0 01 7f
        E 19 b0 01 7e
        E 19 b0 01 7c
        E 19 b0 01 7a
        E 19 b0 01 78
        E 19 b0 01 76
        E 19 b0 01 74
        E 19 b0 01 72
        E 19 b0 01 70
        E 19 b0 01 6e
        E 19 b0 01 6c
        E 19 b0 01 6a
        E 19 b0 01 68
        E 19 b0 01 66
        E 19 b0 01 64
        E 19 b0 01 62
        E 19 b0 01 60
        E 19 b0 01 5e
        E 19 b0 01 5c
        E 19 b0 01 5a
        E 19 b0 01 58
        E 19 b0 01 56
        E 19 b0 01 54
        E 19 b0 01 52
        E 19 b0 01 50
        E 19 b0 01 4e
        E 19 b0 01 4c
        E 19 b0 01 4a
        E 19 b0 01 48
        E 19 b0 01 46
        E 19 b0 01 44
        E 19 b0 01 42
        E 19 b0 01 40
        E 19 b0 01 3e
        E 19 b0 01 3c
        E 19 b0 01 3a
        E 19 b0 01 38
        E 19 b0 01 36
        E 19 b0 01 34
        E 19 b0 01 32
        E 19 b0 01 30
        E 19 b0 01 2e
        E 19 b0 01 2c
        E 19 b0 01 2a
        E 19 b0 01 28
        E 19 b0 01 26
        E 19 b0 01 24
        E 19 b0 01 22
        E 19 b0 01 20
        E 19 b0 01 1e
        E 19 b0 01 1c
        E 19 b0 01 1a
        E 19 b0 01 18
        E 19 b0 01 16
        E 19 b0 01 14
        E 19 b0 01 12
        E 19 b0 01 10
        E 19 b0 01 0e
        E 19 b0 01 0c
        E 19 b0 01 0a
        E 19 b0 01 08
        E 19 b0 01 06
        E 19 b0 01 04
        E 19 b0 01 02
        E 19 b0 01 00
        E 24 b0 01 00
        E 24 b0 01 00
        E 24 b0 01 00
        E 24 b0 01 00
        E 24 b0 01 01
        E 24 b0 01 01
        E 24 b0 01 01
        E 24 b0 01 01
        E 24 b0 01 01
        E 24 b0 01 02
        E 24 b0 01 02
        E 24 b0 01 02
        E 24 b0 01 02
        E 24 b0 01 02
        E 24 b0 01 03
        E 24 b0 01 03
        E 24 b0 01 03
        E 24 b0 01 03
        E 24 b0 01 03
        E 24 b0 01 04
        E 24 b0 01 04
        E 24 b0 01 04
        E 24 b0 01 04
        E 24 b0 01 04
        E 24 b0 01 05
        E 24 b0 01 05
        E 24 b0 01 05
        E 24 b0 01 05
        E 24 b0 01 05
        E 24 b0 01 06
        E 24 b0 01 06
        E 24 b0 01 06
        E 24 b0 01 06
        E 24 b0 01 06
        E 24 b0 01 07
        E 24 b0 01 07
        E 24 b0 01 07
        E 24 b0 01 07
        E 24 b0 01 07
        E 24 b0 01 08
        E 24 b0 01 08
        E 24 b0 01 08
        E 24 b0 01 08
        E 24 b0 01 08
        E 24 b0 01 09
        E 24 b0 01 09
        E 24 b0 01 09
        E 24 b0 01 09
        E 24 b0 01 09
        E 24 b0 01 0a
        E 24 b0 01 0a
        E 24 b0 01 0a
        E 24 b0 01 0a
        E 24 b0 01 0a
        E 24 b0 01 0b
        E 24 b0 01 0b
        E 24 b0 01 0b
        E 24 b0 01 0b
        E 24 b0 01 0b
        E 24 b0 01 0c
        E 24 b0 01 0c
        E 24 b0 01 0c
        E 24 b0 01 0c
        E 24 b0 01 0c
        E 24 b0 01 0c
        E 24 b0 01 0c
        E 24 b0 01 0c
        E 24 b0 01 0c
        E 24 b0 01 0b
        E 24 b0 01 0b
        E 24 b0 01 0b
        E 24 b0 01 0b
        E 24 b0 01 0b
        E 24 b0 01 0a
        E 24 b0 01 0a
        E 24 b0 01 0a
        E 24 b0 01 0a
        E 24 b0 01 0a
        E 24 b0 01 09
        E 24 b0 01 09
        E 24 b0 01 09
        E 24 b0 01 09
        E 24 b0 01 09
        E 24 b0 01 08
        E 24 b0 01 08
        E 24 b0 01 08
        E 24 b0 01 08
        E 24 b0 01 08
        E 24 b0 01 07
        E 24 b0 01 07
        E 24 b0 01 07
        E 24 b0 01 07
        E 24 b0 01 07
        E 24 b0 01 06
        E 24 b0 01 06
        E 24 b0 01 06
        E 24 b0 01 06
        E 24 b0 01 06
        E 24 b0 01 05
        E 24 b0 01 05
        E 24 b0 01 05
        E 24 b0 01 05
        E 24 b0 01 05
        E 24 b0 01 04
        E 24 b0 01 04
        E 24 b0 01 04
        E 24 b0 01 04
        E 24 b0 01 04
        E 24 b0 01 03
        E 24 b0 01 03
        E 24 b0 01 03
        E 24 b0 01 03
        E 24 b0 01 03
        E 24 b0 01 02
        E 24 b0 01 02
        E 24 b0 01 02
        E 24 b0 01 02
        E 24 b0 01 02
        E 24 b0 01 01
        E 24 b0 01 01
        E 24 b0 01 01
        E 24 b0 01 01
        E 24 b0 01 01
        E 24 b0 01 00
        E 24 b0 01 00
        E 24 b0 01 00
        E 24 b0 01 00
        E 24 b0 01 00
        E 4 b0 01 00
        E 4 b0 01 01
        E 4 b0 01 02
        E 4 b0 01 03
        E 4 b0 01 04
        E 4 b0 01 04
        E 4 b0 01 05
        E 4 b0 01 06
        E 4 b0 01 07
        E 4 b0 01 08
        E 4 b0 01 08
        E 4 b0 01 09
        E 4 b0 01 0a
        E 4 b0 01 0b
        E 4 b0 01 0c
        E 4 b0 01 0c
        E 4 b0 01 0d
        E 4 b0 01 0e
        E 4 b0 01 0f
        E 4 b0 01 10
        E 4 b0 01 10
        E 4 b0 01 11
        E 4 b0 01 12
        E 4 b0 01 13
        E 4 b0 01 14
        E 4 b0 01 14
        E 4 b0 01 15
        E 4 b0 01 16
        E 4 b0 01 17
        E 4 b0 01 18
        E 4 b0 01 18
        E 4 b0 01 19
        E 4 b0 01 1a
        E 4 b0 01 1b
        E 4 b0 01 1c
        E 4 b0 01 1c
        E 4 b0 01 1d
        E 4 b0 01 1e
        E 4 b0 01 1f
        E 4 b0 01 20
        E 4 b0 01 20
        E 4 b0 01 21
        E 4 b0 01 22
        E 4 b0 01 23
        E 4 b0 01 24
        E 4 b0 01 24
        E 4 b0 01 25
        E 4 b0 01 26
        E 4 b0 01 27
        E 4 b0 01 28
        E 4 b0 01 28
        E 4 b0 01 29
        E 4 b0 01 2a
        E 4 b0 01 2b
        E 4 b0 01 2c
        E 4 b0 01 2c
        E 4 b0 01 2d
        E 4 b0 01 2e
        E 4 b0 01 2f
        E 4 b0 01 30
        E 4 b0 01 30
        E 4 b0 01 31
        E 4 b0 01 32
        E 4 b0 01 32
        E 4 b0 01 32
        E 4 b0 01 31
        E 4 b0 01 30
        E 4 b0 01 30
        E 4 b0 01 2f
        E 4 b0 01 2e
        E 4 b0 01 2d
        E 4 b0 01 2c
        E 4 b0 01 2c
        E 4 b0 01 2b
        E 4 b0 01 2a
        E 4 b0 01 29
        E 4 b0 01 28
        E 4 b0 01 28
        E 4 b0 01 27
        E 4 b0 01 26
        E 4 b0 01 25
        E 4 b0 01 24
        E 4 b0 01 24
        E 4 b0 01 23
        E 4 b0 01 22
        E 4 b0 01 21
        E 4 b0 01 20
        E 4 b0 01 20
        E 4 b0 01 1f
        E 4 b0 01 1e
        E 4 b0 01 1d
        E 4 b0 01 1c
        E 4 b0 01 1c
        E 4 b0 01 1b
        E 4 b0 01 1a
        E 4 b0 01 19
        E 4 b0 01 18
        E 4 b0 01 18
        E 4 b0 01 17
        E 4 b0 01 16
        E 4 b0 01 15
        E 4 b0 01 14
        E 4 b0 01 14
        E 4 b0 01 13
        E 4 b0 01 12
        E 4 b0 01 11
        E 4 b0 01 10
        E 4 b0 01 10
        E 4 b0 01 0f
        E 4 b0 01 0e
        E 4 b0 01 0d
        E 4 b0 01 0c
        E 4 b0 01 0c
        E 4 b0 01 0b
        E 4 b0 01 0a
        E 4 b0 01 09
        E 4 b0 01 08
        E 4 b0 01 08
        E 4 b0 01 07
        E 4 b0 01 06
        E 4 b0 01 05
        E 4 b0 01 04
        E 4 b0 01 04
        E 4 b0 01 03
        E 4 b0 01 02
        E 4 b0 01 01
        E 4 b0 01 00
        E 4 b0 01 00
        E 24 b0 01 00
        E 24 b0 01 00
        E 24 b0 01 01
        E 24 b0 01 01
        E 24 b0 01 02
        E 24 b0 01 02
        E 24 b0 01 02
        E 24 b0 01 03
        E 24 b0 01 03
        E 24 b0 01 04
        E 24 b0 01 04
        E 24 b0 01 04
        E 24 b0 01 05
        E 24 b0 01 05
        E 24 b0 01 06
        E 24 b0 01 06
        E 24 b0 01 06
        E 24 b0 01 07
        E 24 b0 01 07
        E 24 b0 01 08
        E 24 b0 01 08
        E 24 b0 01 08
        E 24 b0 01 09
        E 24 b0 01 09
        E 24 b0 01 0a
        E 24 b0 01 0a
        E 24 b0 01 0a
        E 24 b0 01 0b
        E 24 b0 01 0b
        E 24 b0 01 0c
        E 24 b0 01 0c
        E 24 b0 01 0c
        E 24 b0 01 0d
        E 24 b0 01 0d
        E 24 b0 01 0e
        E 24 b0 01 0e
        E 24 b0 01 0e
        E 24 b0 01 0f
        E 24 b0 01 0f
        E 24 b0 01 10
        E 24 b0 01 10
        E 24 b0 01 10
        E 24 b0 01 11
        E 24 b0 01 11
        E 24 b0 01 12
        E 24 b0 01 12
        E 24 b0 01 12
        E 24 b0 01 13
        E 24 b0 01 13
        E 24 b0 01 14
        E 24 b0 01 14
        E 24 b0 01 14
        E 24 b0 01 15
        E 24 b0 01 15
        E 24 b0 01 16
        E 24 b0 01 16
        E 24 b0 01 16
        E 24 b0 01 17
        E 24 b0 01 17
        E 24 b0 01 18
        E 24 b0 01 18
        E 24 b0 01 18
        E 24 b0 01 19
        E 24 b0 01 19
        E 24 b0 01 19
        E 24 b0 01 18
        E 24 b0 01 18
        E 24 b0 01 18
        E 24 b0 01 17
        E 24 b0 01 17
        E 24 b0 01 16
        E 24 b0 01 16
        E 24 b0 01 16
        E 24 b0 01 15
        E 24 b0 01 15
        E 24 b0 01 14
        E 24 b0 01 14
        E 24 b0 01 14
        E 24 b0 01 13
        E 24 b0 01 13
        E 24 b0 01 12
        E 24 b0 01 12
        E 24 b0 01 12
        E 24 b0 01 11
        E 24 b0 01 11
        E 24 b0 01 10
        E 24 b0 01 10
        E 24 b0 01 10
        E 24 b0 01 0f
        E 24 b0 01 0f
        E 24 b0 01 0e
        E 24 b0 01 0e
        E 24 b0 01 0e
        E 24 b0 01 0d
        E 24 b0 01 0d
        E 24 b0 01 0c
        E 24 b0 01 0c
        E 24 b0 01 0c
        E 24 b0 01 0b
        E 24 b0 01 0b
        E 24 b0 01 0a
        E 24 b0 01 0a
        E 24 b0 01 0a
        E 24 b0 01 09
        E 24 b0 01 09
        E 24 b0 01 08
        E 24 b0 01 08
        E 24 b0 01 08
        E 24 b0 01 07
        E 24 b0 01 07
        E 24 b0 01 06
        E 24 b0 01 06
        E 24 b0 01 06
        E 24 b0 01 05
        E 24 b0 01 05
        E 24 b0 01 04
        E 24 b0 01 04
        E 24 b0 01 04
        E 24 b0 01 03
        E 24 b0 01 03
        E 24 b0 01 02
        E 24 b0 01 02
        E 24 b0 01 02
        E 24 b0 01 01
        E 24 b0 01 01
        E 24 b0 01 00
        E 24 b0 01 00
        E 24 b0 01 00
        E 4 b0 01 02
        E 4 b0 01 04
        E 4 b0 01 06
        E 4 b0 01 08
        E 4 b0 01 0a
        E 4 b0 01 0c
        E 4 b0 01 0e
        E 4 b0 01 10
        E 4 b0 01 12
        E 4 b0 01 14
        E 4 b0 01 16
        E 4 b0 01 18
        E 4 b0 01 1a
        E 4 b0 01 1c
        E 4 b0 01 1e
        E 4 b0 01 20
        E 4 b0 01 22
        E 4 b0 01 24
        E 4 b0 01 26
        E 4 b0 01 28
        E 4 b0 01 2a
        E 4 b0 01 2c
        E 4 b0 01 2e
        E 4 b0 01 30
        E 4 b0 01 32
        E 4 b0 01 34
        E 4 b0 01 36
        E 4 b0 01 38
        E 4 b0 01 3a
        E 4 b0 01 3c
        E 4 b0 01 3e
        E 4 b0 01 40
        E 4 b0 01 42
        E 4 b0 01 44
        E 4 b0 01 46
        E 4 b0 01 48
        E 4 b0 01 4a
        E 4 b0 01 4c
        E 4 b0 01 4e
        E 4 b0 01 50
        E 4 b0 01 52
        E 4 b0 01 54
        E 4 b0 01 56
        E 4 b0 01 58
        E 4 b0 01 5a
        E 4 b0 01 5c
        E 4 b0 01 5e
        E 4 b0 01 60
        E 4 b0 01 62
        E 4 b0 01 64
        E 4 b0 01 66
        E 4 b0 01 68
        E 4 b0 01 6a
        E 4 b0 01 6c
        E 4 b0 01 6e
        E 4 b0 01 70
        E 4 b0 01 72
        E 4 b0 01 74
        E 4 b0 01 76
        E 4 b0 01 78
        E 4 b0 01 7a
        E 4 b0 01 7c
        E 4 b0 01 7e
        E 4 b0 01 7f
        E 4 b0 01 7e
        E 4 b0 01 7c
        E 4 b0 01 7a
        E 4 b0 01 78
        E 4 b0 01 76
        E 4 b0 01 74
        E 4 b0 01 72
        E 4 b0 01 70
        E 4 b0 01 6e
        E 4 b0 01 6c
        E 4 b0 01 6a
        E 4 b0 01 68
        E 4 b0 01 66
        E 4 b0 01 64
        E 4 b0 01 62
        E 4 b0 01 60
        E 4 b0 01 5e
        E 4 b0 01 5c
        E 4 b0 01 5a
        E 4 b0 01 58
        E 4 b0 01 56
        E 4 b0 01 54
        E 4 b0 01 52
        E 4 b0 01 50
        E 4 b0 01 4e
        E 4 b0 01 4c
        E 4 b0 01 4a
        E 4 b0 01 48
        E 4 b0 01 46
        E 4 b0 01 44
        E 4 b0 01 42
        E 4 b0 01 40
        E 4 b0 01 3e
        E 4 b0 01 3c
        E 4 b0 01 3a
        E 4 b0 01 38
        E 4 b0 01 36
        E 4 b0 01 34
        E 4 b0 01 32
        E 4 b0 01 30
        E 4 b0 01 2e
        E 4 b0 01 2c
        E 4 b0 01 2a
        E 4 b0 01 28
        E 4 b0 01 26
        E 4 b0 01 24
        E 4 b0 01 22
        E 4 b0 01 20
        E 4 b0 01 1e
        E 4 b0 01 1c
        E 4 b0 01 1a
        E 4 b0 01 18
        E 4 b0 01 16
        E 4 b0 01 14
        E 4 b0 01 12
        E 4 b0 01 10
        E 4 b0 01 0e
        E 4 b0 01 0c
        E 4 b0 01 0a
        E 4 b0 01 08
        E 4 b0 01 06
        E 4 b0 01 04
        E 4 b0 01 02
        E 4 b0 01 00
        E 19 b0 01 00
        E 19 b0 01 00
        E 19 b0 01 00
        E 19 b0 01 00
        E 19 b0 01 01
        E 19 b0 01 01
        E 19 b0 01 01
        E 19 b0 01 01
        E 19 b0 01 01
        E 19 b0 01 02
        E 19 b0 01 02
        E 19 b0 01 02
        E 19 b0 01 02
        E 19 b0 01 02
        E 19 b0 01 03
        E 19 b0 01 03
        E 19 b0 01 03
        E 19 b0 01 03
        E 19 b0 01 03
        E 19 b0 01 04
        E 19 b0 01 04
        E 19 b0 01 04
        E 19 b0 01 04
        E 19 b0 01 04
        E 19 b0 01 05
        E 19 b0 01 05
        E 19 b0 01 05
        E 19 b0 01 05
        E 19 b0 01 05
        E 19 b0 01 06
        E 19 b0 01 06
        E 19 b0 01 06
        E 19 b0 01 06
        E 19 b0 01 06
        E 19 b0 01 07
        E 19 b0 01 07
        E 19 b0 01 07
        E 19 b0 01 07
        E 19 b0 01 07
        E 19 b0 01 08
        E 19 b0 01 08
        E 19 b0 01 08
        E 19 b0 01 08
        E 19 b0 01 08
        E 19 b0 01 09
        E 19 b0 01 09
        E 19 b0 01 09
        E 19 b0 01 09
        E 19 b0 01 09
        E 19 b0 01 0a
        E 19 b0 01 0a
        E 19 b0 01 0a
        E 19 b0 01 0a
        E 19 b0 01 0a
        E 19 b0 01 0b
        E 19 b0 01 0b
        E 19 b0 01 0b
        E 19 b0 01 0b
        E 19 b0 01 0b
        E 19 b0 01 0c
        E 19 b0 01 0c
        E 19 b0 01 0c
        E 19 b0 01 0c
        E 19 b0 01 0c
        E 19 b0 01 0c
        E 19 b0 01 0c
        E 19 b0 01 0c
        E 19 b0 01 0c
        E 19 b0 01 0b
        E 19 b0 01 0b
        E 19 b0 01 0b
        E 19 b0 01 0b
        E 19 b0 01 0b
        E 19 b0 01 0a
        E 19 b0 01 0a
        E 19 b0 01 0a
        E 19 b0 01 0a
        E 19 b0 01 0a
        E 19 b0 01 09
        E 19 b0 01 09
        E 19 b0 01 09
        E 19 b0 01 09
        E 19 b0 01 09
        E 19 b0 01 08
        E 19 b0 01 08
        E 19 b0 01 08
        E 19 b0 01 08
        E 19 b0 01 08
        E 19 b0 01 07
        E 19 b0 01 07
        E 19 b0 01 07
        E 19 b0 01 07
        E 19 b0 01 07
        E 19 b0 01 06
        E 19 b0 01 06
        E 19 b0 01 06
        E 19 b0 01 06
        E 19 b0 01 06
        E 19 b0 01 05
        E 19 b0 01 05
        E 19 b0 01 05
        E 19 b0 01 05
        E 19 b0 01 05
        E 19 b0 01 04
        E 19 b0 01 04
        E 19 b0 01 04
        E 19 b0 01 04
        E 19 b0 01 04
        E 19 b0 01 03
        E 19 b0 01 03
        E 19 b0 01 03
        E 19 b0 01 03
        E 19 b0 01 03
        E 19 b0 01 02
        E 19 b0 01 02
        E 19 b0 01 02
        E 19 b0 01 02
        E 19 b0 01 02
        E 19 b0 01 01
        E 19 b0 01 01
        E 19 b0 01 01
        E 19 b0 01 01
        E 19 b0 01 01
        E 19 b0 01 00
        E 19 b0 01 00
        E 19 b0 01 00
        E 19 b0 01 00
        E 19 b0 01 00
        E 19 b0 01 02
        E 19 b0 01 04
        E 19 b0 01 06
        E 19 b0 01 08
        E 19 b0 01 0a
        E 19 b0 01 0c
        E 19 b0 01 0e
        E 19 b0 01 10
        E 19 b0 01 12
        E 19 b0 01 14
        E 19 b0 01 16
        E 19 b0 01 18
        E 19 b0 01 1a
        E 19 b0 01 1c
        E 19 b0 01 1e
        E 19 b0 01 20
        E 19 b0 01 22
        E 19 b0 01 24
        E 19 b0 01 26
        E 19 b0 01 28
        E 19 b0 01 2a
        E 19 b0 01 2c
        E 19 b0 01 2e
        E 19 b0 01 30
        E 19 b0 01 32
        E 19 b0 01 34
        E 19 b0 01 36
        E 19 b0 01 38
        E 19 b0 01 3a
        E 19 b0 01 3c
        E 19 b0 01 3e
        E 19 b0 01 40
        E 19 b0 01 42
        E 19 b0 01 44
        E 19 b0 01 46
        E 19 b0 01 48
        E 19 b0 01 4a
        E 19 b0 01 4c
        E 19 b0 01 4e
        E 19 b0 01 50
        E 19 b0 01 52
        E 19 b0 01 54
        E 19 b0 01 56
        E 19 b0 01 58
        E 19 b0 01 5a
        E 19 b0 01 5c
        E 19 b0 01 5e
        E 19 b0 01 60
        E 19 b0 01 62
        E 19 b0 01 64
        E 19 b0 01 66
        E 19 b0 01 68
        E 19 b0 01 6a
        E 19 b0 01 6c
        E 19 b0 01 6e
        E 19 b0 01 70
        E 19 b0 01 72
        E 19 b0 01 74
        E 19 b0 01 76
        E 19 b0 01 78
        E 19 b0 01 7a
        E 19 b0 01 7c
        E 19 b0 01 7e
        E 19 b0 01 7f
        E 19 b0 01 7e
        E 19 b0 01 7c
        E 19 b0 01 7a
        E 19 b0 01 78
        E 19 b0 01 76
        E 19 b0 01 74
        E 19 b0 01 72
        E 19 b0 01 70
        E 19 b0 01 6e
        E 19 b0 01 6c
        E 19 b0 01 6a
        E 19 b0 01 68
        E 19 b0 01 66
        E 19 b0 01 64
        E 19 b0 01 62
        E 19 b0 01 60
        E 19 b0 01 5e
        E 19 b0 01 5c
        E 19 b0 01 5a
        E 19 b0 01 58
        E 19 b0 01 56
        E 19 b0 01 54
        E 19 b0 01 52
        E 19 b0 01 50
        E 19 b0 01 4e
        E 19 b0 01 4c
        E 19 b0 01 4a
        E 19 b0 01 48
        E 19 b0 01 46
        E 19 b0 01 44
        E 19 b0 01 42
        E 19 b0 01 40
        E 19 b0 01 3e
        E 19 b0 01 3c
        E 19 b0 01 3a
        E 19 b0 01 38
        E 19 b0 01 36
        E 19 b0 01 34
        E 19 b0 01 32
        E 19 b0 01 30
        E 19 b0 01 2e
        E 19 b0 01 2c
        E 19 b0 01 2a
        E 19 b0 01 28
        E 19 b0 01 26
        E 19 b0 01 24
        E 19 b0 01 22
        E 19 b0 01 20
        E 19 b0 01 1e
        E 19 b0 01 1c
        E 19 b0 01 1a
        E 19 b0 01 18
        E 19 b0 01 16
        E 19 b0 01 14
        E 19 b0 01 12
        E 19 b0 01 10
        E 19 b0 01 0e
        E 19 b0 01 0c
        E 19 b0 01 0a
        E 19 b0 01 08
        E 19 b0 01 06
        E 19 b0 01 04
        E 19 b0 01 02
        E 19 b0 01 00
        E 24 b0 01 00
        E 24 b0 01 00
        E 24 b0 01 00
        E 24 b0 01 00
        E 24 b0 01 01
        E 24 b0 01 01
        E 24 b0 01 01
        E 24 b0 01 01
        E 24 b0 01 01
        E 24 b0 01 02
        E 24 b0 01 02
        E 24 b0 01 02
        E 24 b0 01 02
        E 24 b0 01 02
        E 24 b0 01 03
        E 24 b0 01 03
        E 24 b0 01 03
        E 24 b0 01 03
        E 24 b0 01 03
        E 24 b0 01 04
        E 24 b0 01 04
        E 24 b0 01 04
        E 24 b0 01 04
        E 24 b0 01 04
        E 24 b0 01 05
        E 24 b0 01 05
        E 24 b0 01 05
        E 24 b0 01 05
        E 24 b0 01 05
        E 24 b0 01 06
        E 24 b0 01 06
        E 24 b0 01 06
        E 24 b0 01 06
        E 24 b0 01 06
        E 24 b0 01 07
        E 24 b0 01 07
        E 24 b0 01 07
        E 24 b0 01 07
        E 24 b0 01 07
        E 24 b0 01 08
        E 24 b0 01 08
        E 24 b0 01 08
        E 24 b0 01 08
        E 24 b0 01 08
        E 24 b0 01 09
        E 24 b0 01 09
        E 24 b0 01 09
        E 24 b0 01 09
        E 24 b0 01 09
        E 24 b0 01 0a
        E 24 b0 01 0a
        E 24 b0 01 0a
        E 24 b0 01 0a
        E 24 b0 01 0a
        E 24 b0 01 0b
        E 24 b0 01 0b
        E 24 b0 01 0b
        E 24 b0 01 0b
        E 24 b0 01 0b
        E 24 b0 01 0c
        E 24 b0 01 0c
        E 24 b0 01 0c
        E 24 b0 01 0c
        E 24 b0 01 0c
        E 24 b0 01 0c
        E 24 b0 01 0c
        E 24 b0 01 0c
        E 24 b0 01 0c
        E 24 b0 01 0b
        E 24 b0 01 0b
        E 24 b0 01 0b
        E 24 b0 01 0b
        E 24 b0 01 0b
        E 24 b0 01 0a
        E 24 b0 01 0a
        E 24 b0 01 0a
        E 24 b0 01 0a
        E 24 b0 01 0a
        E 24 b0 01 09
        E 24 b0 01 09
        E 24 b0 01 09
        E 24 b0 01 09
        E 24 b0 01 09
        E 24 b0 01 08
        E 24 b0 01 08
        E 24 b0 01 08
        E 24 b0 01 08
        E 24 b0 01 08
        E 24 b0 01 07
        E 24 b0 01 07
        E 24 b0 01 07
        E 24 b0 01 07
        E 24 b0 01 07
        E 24 b0 01 06
        E 24 b0 01 06
        E 24 b0 01 06
        E 24 b0 01 06
        E 24 b0 01 06
        E 24 b0 01 05
        E 24 b0 01 05
        E 24 b0 01 05
        E 24 b0 01 05
        E 24 b0 01 05
        E 24 b0 01 04
        E 24 b0 01 04
        E 24 b0 01 04
        E 24 b0 01 04
        E 24 b0 01 04
        E 24 b0 01 03
        E 24 b0 01 03
        E 24 b0 01 03
        E 24 b0 01 03
        E 24 b0 01 03
        E 24 b0 01 02
        E 24 b0 01 02
        E 24 b0 01 02
        E 24 b0 01 02
        E 24 b0 01 02
        E 24 b0 01 01
        E 24 b0 01 01
        E 24 b0 01 01
        E 24 b0 01 01
        E 24 b0 01 01
        E 24 b0 01 00
        E 24 b0 01 00
        E 24 b0 01 00
        E 24 b0 01 00
        E 24 b0 01 00
        E 4 b0 01 00
        E 4 b0 01 01
        E 4 b0 01 02
        E 4 b0 01 03
        E 4 b0 01 04
        E 4 b0 01 04
        E 4 b0 01 05
        E 4 b0 01 06
        E 4 b0 01 07
        E 4 b0 01 08
        E 4 b0 01 08
        E 4 b0 01 09
        E 4 b0 01 0a
        E 4 b0 01 0b
        E 4 b0 01 0c
        E 4 b0 01 0c
        E 4 b0 01 0d
        E 4 b0 01 0e
        E 4 b0 01 0f
        E 4 b0 01 10
        E 4 b0 01 10
        E 4 b0 01 11
        E 4 b0 01 12
        E 4 b0 01 13
        E 4 b0 01 14
        E 4 b0 01 14
        E 4 b0 01 15
        E 4 b0 01 16
        E 4 b0 01 17
        E 4 b0 01 18
        E 4 b0 01 18
        E 4 b0 01 19
        E 4 b0 01 1a
        E 4 b0 01 1b
        E 4 b0 01 1c
        E 4 b0 01 1c
        E 4 b0 01 1d
        E 4 b0 01 1e
        E 4 b0 01 1f
        E 4 b0 01 20
        E 4 b0 01 20
        E 4 b0 01 21
        E 4 b0 01 22
        E 4 b0 01 23
        E 4 b0 01 24
        E 4 b0 01 24
        E 4 b0 01 25
        E 4 b0 01 26
        E 4 b0 01 27
        E 4 b0 01 28
        E 4 b0 01 28
        E 4 b0 01 29
        E 4 b0 01 2a
        E 4 b0 01 2b
        E 4 b0 01 2c
        E 4 b0 01 2c
        E 4 b0 01 2d
        E 4 b0 01 2e
        E 4 b0 01 2f
        E 4 b0 01 30
        E 4 b0 01 30
        E 4 b0 01 31
        E 4 b0 01 32
        E 4 b0 01 32
        E 4 b0 01 32
        E 4 b0 01 31
        E 4 b0 01 30
        E 4 b0 01 30
        E 4 b0 01 2f
        E 4 b0 01 2e
        E 4 b0 01 2d
        E 4 b0 01 2c
        E 4 b0 01 2c
        E 4 b0 01 2b
        E 4 b0 01 2a
        E 4 b0 01 29
        E 4 b0 01 28
        E 4 b0 01 28
        E 4 b0 01 27
        E 4 b0 01 26
        E 4 b0 01 25
        E 4 b0 01 24
        E 4 b0 01 24
        E 4 b0 01 23
        E 4 b0 01 22
        E 4 b0 01 21
        E 4 b0 01 20
        E 4 b0 01 20
        E 4 b0 01 1f
        E 4 b0 01 1e
        E 4 b0 01 1d
        E 4 b0 01 1c
        E 4 b0 01 1c
        E 4 b0 01 1b
        E 4 b0 01 1a
        E 4 b0 01 19
        E 4 b0 01 18
        E 4 b0 01 18
        E 4 b0 01 17
        E 4 b0 01 16
        E 4 b0 01 15
        E 4 b0 01 14
        E 4 b0 01 14
        E 4 b0 01 13
        E 4 b0 01 12
        E 4 b0 01 11
        E 4 b0 01 10
        E 4 b0 01 10
        E 4 b0 01 0f
        E 4 b0 01 0e
        E 4 b0 01 0d
        E 4 b0 01 0c
        E 4 b0 01 0c
        E 4 b0 01 0b
        E 4 b0 01 0a
        E 4 b0 01 09
        E 4 b0 01 08
        E 4 b0 01 08
        E 4 b0 01 07
        E 4 b0 01 06
        E 4 b0 01 05
        E 4 b0 01 04
        E 4 b0 01 04
        E 4 b0 01 03
        E 4 b0 01 02
        E 4 b0 01 01
        E 4 b0 01 00
        E 4 b0 01 00
        E 24 b0 01 00
        E 24 b0 01 00
        E 24 b0 01 01
        E 24 b0 01 01
        E 24 b0 01 02
        E 24 b0 01 02
        E 24 b0 01 02
        E 24 b0 01 03
        E 24 b0 01 03
        E 24 b0 01 04
        E 24 b0 01 04
        E 24 b0 01 04
        E 24 b0 01 05
        E 24 b0 01 05
        E 24 b0 01 06
        E 24 b0 01 06
        E 24 b0 01 06
        E 24 b0 01 07
        E 24 b0 01 07
        E 24 b0 01 08
        E 24 b0 01 08
        E 24 b0 01 08
        E 24 b0 01 09
        E 24 b0 01 09
        E 24 b0 01 0a
        E 24 b0 01 0a
        E 24 b0 01 0a
        E 24 b0 01 0b
        E 24 b0 01 0b
        E 24 b0 01 0c
        E 24 b0 01 0c
        E 24 b0 01 0c
        E 24 b0 01 0d
        E 24 b0 01 0d
        E 24 b0 01 0e
        E 24 b0 01 0e
        E 24 b0 01 0e
        E 24 b0 01 0f
        E 24 b0 01 0f
        E 24 b0 01 10
        E 24 b0 01 10
        E 24 b0 01 10
        E 24 b0 01 11
        E 24 b0 01 11
        E 24 b0 01 12
        E 24 b0 01 12
        E 24 b0 01 12
        E 24 b0 01 13
        E 24 b0 01 13
        E 24 b0 01 14
        E 24 b0 01 14
        E 24 b0 01 14
        E 24 b0 01 15
        E 24 b0 01 15
        E 24 b0 01 16
        E 24 b0 01 16
        E 24 b0 01 16
        E 24 b0 01 17
        E 24 b0 01 17
        E 24 b0 01 18
        E 24 b0 01 18
        E 24 b0 01 18
        E 24 b0 01 19
        E 24 b0 01 19
        E 24 b0 01 19
        E 24 b0 01 18
        E 24 b0 01 18
        E 24 b0 01 18
        E 24 b0 01 17
        E 24 b0 01 17
        E 24 b0 01 16
        E 24 b0 01 16
        E 24 b0 01 16
        E 24 b0 01 15
        E 24 b0 01 15
        E 24 b0 01 14
        E 24 b0 01 14
        E 24 b0 01 14
        E 24 b0 01 13
        E 24 b0 01 13
        E 24 b0 01 12
        E 24 b0 01 12
        E 24 b0 01 12
        E 24 b0 01 11
        E 24 b0 01 11
        E 24 b0 01 10
        E 24 b0 01 10
        E 24 b0 01 10
        E 24 b0 01 0f
        E 24 b0 01 0f
        E 24 b0 01 0e
        E 24 b0 01 0e
        E 24 b0 01 0e
        E 24 b0 01 0d
        E 24 b0 01 0d
        E 24 b0 01 0c
        E 24 b0 01 0c
        E 24 b0 01 0c
        E 24 b0 01 0b
        E 24 b0 01 0b
        E 24 b0 01 0a
        E 24 b0 01 0a
        E 24 b0 01 0a
        E 24 b0 01 09
        E 24 b0 01 09
        E 24 b0 01 08
        E 24 b0 01 08
        E 24 b0 01 08
        E 24 b0 01 07
        E 24 b0 01 07
        E 24 b0 01 06
        E 24 b0 01 06
        E 24 b0 01 06
        E 24 b0 01 05
        E 24 b0 01 05
        E 24 b0 01 04
        E 24 b0 01 04
        E 24 b0 01 04
        E 24 b0 01 03
        E 24 b0 01 03
        E 24 b0 01 02
        E 24 b0 01 02
        E 24 b0 01 02
        E 24 b0 01 01
        E 24 b0 01 01
        E 24 b0 01 00
        E 24 b0 01 00
        E 24 b0 01 00
        E 4 b0 01 02
        E 4 b0 01 04
        E 4 b0 01 06
        E 4 b0 01 08
        E 4 b0 01 0a
        E 4 b0 01 0c
        E 4 b0 01 0e
        E 4 b0 01 10
        E 4 b0 01 12
        E 4 b0 01 14
        E 4 b0 01 16
        E 4 b0 01 18
        E 4 b0 01 1a
        E 4 b0 01 1c
        E 4 b0 01 1e
        E 4 b0 01 20
        E 4 b0 01 22
        E 4 b0 01 24
        E 4 b0 01 26
        E 4 b0 01 28
        E 4 b0 01 2a
        E 4 b0 01 2c
        E 4 b0 01 2e
        E 4 b0 01 30
        E 4 b0 01 32
        E 4 b0 01 34
        E 4 b0 01 36
        E 4 b0 01 38
        E 4 b0 01 3a
        E 4 b0 01 3c
        E 4 b0 01 3e
        E 4 b0 01 40
        E 4 b0 01 42
        E 4 b0 01 44
        E 4 b0 01 46
        E 4 b0 01 48
        E 4 b0 01 4a
        E 4 b0 01 4c
        E 4 b0 01 4e
        E 4 b0 01 50
        E 4 b0 01 52
        E 4 b0 01 54
        E 4 b0 01 56
        E 4 b0 01 58
        E 4 b0 01 5a
        E 4 b0 01 5c
        E 4 b0 01 5e
        E 4 b0 01 60
        E 4 b0 01 62
        E 4 b0 01 64
        E 4 b0 01 66
        E 4 b0 01 68
        E 4 b0 01 6a
        E 4 b0 01 6c
        E 4 b0 01 6e
        E 4 b0 01 70
        E 4 b0 01 72
        E 4 b0 01 74
        E 4 b0 01 76
        E 4 b0 01 78
        E 4 b0 01 7a
        E 4 b0 01 7c
        E 4 b0 01 7e
        E 4 b0 01 7f
        E 4 b0 01 7e
        E 4 b0 01 7c
        E 4 b0 01 7a
        E 4 b0 01 78
        E 4 b0 01 76
        E 4 b0 01 74
        E 4 b0 01 72
        E 4 b0 01 70
        E 4 b0 01 6e
        E 4 b0 01 6c
        E 4 b0 01 6a
        E 4 b0 01 68
        E 4 b0 01 66
        E 4 b0 01 64
        E 4 b0 01 62
        E 4 b0 01 60
        E 4 b0 01 5e
        E 4 b0 01 5c
        E 4 b0 01 5a
        E 4 b0 01 58
        E 4 b0 01 56
        E 4 b0 01 54
        E 4 b0 01 52
        E 4 b0 01 50
        E 4 b0 01 4e
        E 4 b0 01 4c
        E 4 b0 01 4a
        E 4 b0 01 48
        E 4 b0 01 46
        E 4 b0 01 44
        E 4 b0 01 42
        E 4 b0 01 40
        E 4 b0 01 3e
        E 4 b0 01 3c
        E 4 b0 01 3a
        E 4 b0 01 38
        E 4 b0 01 36
        E 4 b0 01 34
        E 4 b0 01 32
        E 4 b0 01 30
        E 4 b0 01 2e
        E 4 b0 01 2c
        E 4 b0 01 2a
        E 4 b0 01 28
        E 4 b0 01 26
        E 4 b0 01 24
        E 4 b0 01 22
        E 4 b0 01 20
        E 4 b0 01 1e
        E 4 b0 01 1c
        E 4 b0 01 1a
        E 4 b0 01 18
        E 4 b0 01 16
        E 4 b0 01 14
        E 4 b0 01 12
        E 4 b0 01 10
        E 4 b0 01 0e
        E 4 b0 01 0c
        E 4 b0 01 0a
        E 4 b0 01 08
        E 4 b0 01 06
        E 4 b0 01 04
        E 4 b0 01 02
        E 4 b0 01 00
        E 20 b0 01 06
        E 20 b0 01 06
        E 20 b0 01 07
        E 20 b0 01 07
        E 20 b0 01 07
        E 20 b0 01 07
        E 20 b0 01 08
        E 20 b0 01 08
        E 20 b0 01 08
        E 20 b0 01 09
        E 20 b0 01 09
        E 20 b0 01 09
        E 20 b0 01 09
        E 20 b0 01 0a
        E 20 b0 01 0a
        E 20 b0 01 0a
        E 20 b0 01 0a
        E 20 b0 01 0b
        E 20 b0 01 0b
        E 20 b0 01 0b
        E 20 b0 01 0b
        E 20 b0 01 0b
        E 20 b0 01 0c
        E 20 b0 01 0c
        E 20 b0 01 0c
        E 20 b0 01 0c
        E 20 b0 01 0c
        E 20 b0 01 0c
        E 20 b0 01 0c
        E 20 b0 01 0c
        E 20 b0 01 0c
        E 20 b0 01 0c
        E 20 b0 01 0c
        E 20 b0 01 0c
        E 20 b0 01 0c
        E 20 b0 01 0c
        E 20 b0 01 0c
        E 20 b0 01 0c
        E 20 b0 01 0c
        E 20 b0 01 0c
        E 20 b0 01 0c
        E 20 b0 01 0c
        E 20 b0 01 0b
        E 20 b0 01 0b
        E 20 b0 01 0b
        E 20 b0 01 0b
        E 20 b0 01 0b
        E 20 b0 01 0b
        E 20 b0 01 0a
        E 20 b0 01 0a
        E 20 b0 01 0a
        E 20 b0 01 0a
        E 20 b0 01 09
        E 20 b0 01 09
        E 20 b0 01 09
        E 20 b0 01 08
        E 20 b0 01 08
        E 20 b0 01 08
        E 20 b0 01 08
        E 20 b0 01 07
        E 20 b0 01 07
        E 20 b0 01 07
        E 20 b0 01 06
        E 20 b0 01 06
        E 20 b0 01 06
        E 20 b0 01 05
        E 20 b0 01 05
        E 20 b0 01 05
        E 20 b0 01 04
        E 20 b0 01 04
        E 20 b0 01 04
        E 20 b0 01 04
        E 20 b0 01 03
        E 20 b0 01 03
        E 20 b0 01 03
        E 20 b0 01 02
        E 20 b0 01 02
        E 20 b0 01 02
        E 20 b0 01 02
        E 20 b0 01 01
        E 20 b0 01 01
        E 20 b0 01 01
        E 20 b0 01 01
        E 20 b0 01 01
        E 20 b0 01 01
        E 20 b0 01 00
        E 20 b0 01 00
        E 20 b0 01 00
        E 20 b0 01 00
        E 20 b0 01 00
        E 20 b0 01 00
        E 20 b0 01 00
        E 20 b0 01 00
        E 20 b0 01 00
        E 20 b0 01 00
        E 20 b0 01 00
        E 20 b0 01 00
        E 20 b0 01 00
        E 20 b0 01 00
        E 20 b0 01 00
        E 20 b0 01 00
        E 20 b0 01 00
        E 20 b0 01 00
        E 20 b0 01 00
        E 20 b0 01 00
        E 20 b0 01 00
        E 20 b0 01 00
        E 20 b0 01 01
        E 20 b0 01 01
        E 20 b0 01 01
        E 20 b0 01 01
        E 20 b0 01 01
        E 20 b0 01 02
        E 20 b0 01 02
        E 20 b0 01 02
        E 20 b0 01 02
        E 20 b0 01 03
        E 20 b0 01 03
        E 20 b0 01 03
        E 20 b0 01 03
        E 20 b0 01 04
        E 20 b0 01 04
        E 20 b0 01 04
        E 20 b0 01 05
        E 20 b0 01 05
        E 20 b0 01 05
        E 20 b0 01 06
        E 20 b0 01 06
        E 4 b0 01 19
        E 4 b0 01 1a
        E 4 b0 01 1c
        E 4 b0 01 1d
        E 4 b0 01 1e
        E 4 b0 01 1f
        E 4 b0 01 20
        E 4 b0 01 22
        E 4 b0 01 23
        E 4 b0 01 24
        E 4 b0 01 25
        E 4 b0 01 26
        E 4 b0 01 27
        E 4 b0 01 28
        E 4 b0 01 29
        E 4 b0 01 2a
        E 4 b0 01 2b
        E 4 b0 01 2c
        E 4 b0 01 2d
        E 4 b0 01 2e
        E 4 b0 01 2e
        E 4 b0 01 2f
        E 4 b0 01 30
        E 4 b0 01 30
        E 4 b0 01 30
        E 4 b0 01 31
        E 4 b0 01 31
        E 4 b0 01 32
        E 4 b0 01 32
        E 4 b0 01 32
        E 4 b0 01 32
        E 4 b0 01 32
        E 4 b0 01 32
        E 4 b0 01 32
        E 4 b0 01 32
        E 4 b0 01 32
        E 4 b0 01 32
        E 4 b0 01 32
        E 4 b0 01 31
        E 4 b0 01 31
        E 4 b0 01 30
        E 4 b0 01 30
        E 4 b0 01 2f
        E 4 b0 01 2e
        E 4 b0 01 2e
        E 4 b0 01 2d
        E 4 b0 01 2c
        E 4 b0 01 2c
        E 4 b0 01 2b
        E 4 b0 01 2a
        E 4 b0 01 29
        E 4 b0 01 28
        E 4 b0 01 27
        E 4 b0 01 26
        E 4 b0 01 24
        E 4 b0 01 23
        E 4 b0 01 22
        E 4 b0 01 21
        E 4 b0 01 20
        E 4 b0 01 1f
        E 4 b0 01 1d
        E 4 b0 01 1c
        E 4 b0 01 1b
        E 4 b0 01 1a
        E 4 b0 01 18
        E 4 b0 01 17
        E 4 b0 01 16
        E 4 b0 01 15
        E 4 b0 01 13
        E 4 b0 01 12
        E 4 b0 01 11
        E 4 b0 01 10
        E 4 b0 01 0f
        E 4 b0 01 0e
        E 4 b0 01 0c
        E 4 b0 01 0b
        E 4 b0 01 0a
        E 4 b0 01 09
        E 4 b0 01 08
        E 4 b0 01 07
        E 4 b0 01 06
        E 4 b0 01 06
        E 4 b0 01 05
        E 4 b0 01 04
        E 4 b0 01 04
        E 4 b0 01 03
        E 4 b0 01 02
        E 4 b0 01 02
        E 4 b0 01 01
        E 4 b0 01 01
        E 4 b0 01 00
        E 4 b0 01 00
        E 4 b0 01 00
        E 4 b0 01 00
        E 4 b0 01 00
        E 4 b0 01 00
        E 4 b0 01 00
        E 4 b0 01 00
        E 4 b0 01 00
        E 4 b0 01 00
        E 4 b0 01 00
        E 4 b0 01 01
        E 4 b0 01 01
        E 4 b0 01 02
        E 4 b0 01 02
        E 4 b0 01 02
        E 4 b0 01 03
        E 4 b0 01 04
        E 4 b0 01 04
        E 4 b0 01 05
        E 4 b0 01 06
        E 4 b0 01 07
        E 4 b0 01 08
        E 4 b0 01 09
        E 4 b0 01 0a
        E 4 b0 01 0b
        E 4 b0 01 0c
        E 4 b0 01 0d
        E 4 b0 01 0e
        E 4 b0 01 0f
        E 4 b0 01 10
        E 4 b0 01 12
        E 4 b0 01 13
        E 4 b0 01 14
        E 4 b0 01 15
        E 4 b0 01 16
        E 4 b0 01 18
        E 4 b0 01 19
        E 20 b0 01 0c
        E 20 b0 01 0d
        E 20 b0 01 0e
        E 20 b0 01 0e
        E 20 b0 01 0f
        E 20 b0 01 0f
        E 20 b0 01 10
        E 20 b0 01 11
        E 20 b0 01 11
        E 20 b0 01 12
        E 20 b0 01 12
        E 20 b0 01 13
        E 20 b0 01 13
        E 20 b0 01 14
        E 20 b0 01 14
        E 20 b0 01 15
        E 20 b0 01 15
        E 20 b0 01 16
        E 20 b0 01 16
        E 20 b0 01 17
        E 20 b0 01 17
        E 20 b0 01 17
        E 20 b0 01 18
        E 20 b0 01 18
        E 20 b0 01 18
        E 20 b0 01 18
        E 20 b0 01 18
        E 20 b0 01 19
        E 20 b0 01 19
        E 20 b0 01 19
        E 20 b0 01 19
        E 20 b0 01 19
        E 20 b0 01 19
        E 20 b0 01 19
        E 20 b0 01 19
        E 20 b0 01 19
        E 20 b0 01 19
        E 20 b0 01 19
        E 20 b0 01 18
        E 20 b0 01 18
        E 20 b0 01 18
        E 20 b0 01 18
        E 20 b0 01 17
        E 20 b0 01 17
        E 20 b0 01 17
        E 20 b0 01 16
        E 20 b0 01 16
        E 20 b0 01 16
        E 20 b0 01 15
        E 20 b0 01 15
        E 20 b0 01 14
        E 20 b0 01 14
        E 20 b0 01 13
        E 20 b0 01 13
        E 20 b0 01 12
        E 20 b0 01 11
        E 20 b0 01 11
        E 20 b0 01 10
        E 20 b0 01 10
        E 20 b0 01 0f
        E 20 b0 01 0e
        E 20 b0 01 0e
        E 20 b0 01 0d
        E 20 b0 01 0d
        E 20 b0 01 0c
        E 20 b0 01 0b
        E 20 b0 01 0b
        E 20 b0 01 0a
        E 20 b0 01 09
        E 20 b0 01 09
        E 20 b0 01 08
        E 20 b0 01 08
        E 20 b0 01 07
        E 20 b0 01 07
        E 20 b0 01 06
        E 20 b0 01 05
        E 20 b0 01 05
        E 20 b0 01 04
        E 20 b0 01 04
        E 20 b0 01 03
        E 20 b0 01 03
        E 20 b0 01 03
        E 20 b0 01 02
        E 20 b0 01 02
        E 20 b0 01 02
        E 20 b0 01 01
        E 20 b0 01 01
        E 20 b0 01 01
        E 20 b0 01 00
        E 20 b0 01 00
        E 20 b0 01 00
        E 20 b0 01 00
        E 20 b0 01 00
        E 20 b0 01 00
        E 20 b0 01 00
        E 20 b0 01 00
        E 20 b0 01 00
        E 20 b0 01 00
        E 20 b0 01 00
        E 20 b0 01 00
        E 20 b0 01 00
        E 20 b0 01 00
        E 20 b0 01 00
        E 20 b0 01 01
        E 20 b0 01 01
        E 20 b0 01 01
        E 20 b0 01 01
        E 20 b0 01 02
        E 20 b0 01 02
        E 20 b0 01 02
        E 20 b0 01 03
        E 20 b0 01 03
        E 20 b0 01 04
        E 20 b0 01 04
        E 20 b0 01 05
        E 20 b0 01 05
        E 20 b0 01 06
        E 20 b0 01 06
        E 20 b0 01 07
        E 20 b0 01 07
        E 20 b0 01 08
        E 20 b0 01 09
        E 20 b0 01 09
        E 20 b0 01 0a
        E 20 b0 01 0a
        E 20 b0 01 0b
        E 20 b0 01 0c
        E 20 b0 01 0c
        E 4 b0 01 40
        E 4 b0 01 43
        E 4 b0 01 46
        E 4 b0 01 49
        E 4 b0 01 4c
        E 4 b0 01 4f
        E 4 b0 01 52
        E 4 b0 01 55
        E 4 b0 01 58
        E 4 b0 01 5b
        E 4 b0 01 5e
        E 4 b0 01 60
        E 4 b0 01 63
        E 4 b0 01 66
        E 4 b0 01 68
        E 4 b0 01 6a
        E 4 b0 01 6d
        E 4 b0 01 6f
        E 4 b0 01 71
        E 4 b0 01 73
        E 4 b0 01 75
        E 4 b0 01 76
        E 4 b0 01 78
        E 4 b0 01 79
        E 4 b0 01 7a
        E 4 b0 01 7b
        E 4 b0 01 7c
        E 4 b0 01 7d
        E 4 b0 01 7e
        E 4 b0 01 7e
        E 4 b0 01 7f
        E 4 b0 01 7f
        E 4 b0 01 7f
        E 4 b0 01 7f
        E 4 b0 01 7f
        E 4 b0 01 7e
        E 4 b0 01 7e
        E 4 b0 01 7d
        E 4 b0 01 7c
        E 4 b0 01 7b
        E 4 b0 01 7a
        E 4 b0 01 78
        E 4 b0 01 77
        E 4 b0 01 75
        E 4 b0 01 74
        E 4 b0 01 72
        E 4 b0 01 70
        E 4 b0 01 6e
        E 4 b0 01 6c
        E 4 b0 01 69
        E 4 b0 01 67
        E 4 b0 01 64
        E 4 b0 01 62
        E 4 b0 01 5f
        E 4 b0 01 5c
        E 4 b0 01 59
        E 4 b0 01 57
        E 4 b0 01 54
        E 4 b0 01 51
        E 4 b0 01 4e
        E 4 b0 01 4a
        E 4 b0 01 47
        E 4 b0 01 44
        E 4 b0 01 41
        E 4 b0 01 3e
        E 4 b0 01 3b
        E 4 b0 01 38
        E 4 b0 01 35
        E 4 b0 01 31
        E 4 b0 01 2e
        E 4 b0 01 2b
        E 4 b0 01 28
        E 4 b0 01 26
        E 4 b0 01 23
        E 4 b0 01 20
        E 4 b0 01 1d
        E 4 b0 01 1b
        E 4 b0 01 18
        E 4 b0 01 16
        E 4 b0 01 13
        E 4 b0 01 11
        E 4 b0 01 0f
        E 4 b0 01 0d
        E 4 b0 01 0b
        E 4 b0 01 0a
        E 4 b0 01 08
        E 4 b0 01 07
        E 4 b0 01 05
        E 4 b0 01 04
        E 4 b0 01 03
        E 4 b0 01 02
        E 4 b0 01 01
        E 4 b0 01 01
        E 4 b0 01 00
        E 4 b0 01 00
        E 4 b0 01 00
        E 4 b0 01 00
        E 4 b0 01 00
        E 4 b0 01 01
        E 4 b0 01 01
        E 4 b0 01 02
        E 4 b0 01 03
        E 4 b0 01 04
        E 4 b0 01 05
        E 4 b0 01 06
        E 4 b0 01 07
        E 4 b0 01 09
        E 4 b0 01 0a
        E 4 b0 01 0c
        E 4 b0 01 0e
        E 4 b0 01 10
        E 4 b0 01 12
        E 4 b0 01 15
        E 4 b0 01 17
        E 4 b0 01 19
        E 4 b0 01 1c
        E 4 b0 01 1f
        E 4 b0 01 21
        E 4 b0 01 24
        E 4 b0 01 27
        E 4 b0 01 2a
        E 4 b0 01 2d
        E 4 b0 01 30
        E 4 b0 01 33
        E 4 b0 01 36
        E 4 b0 01 39
        E 4 b0 01 3c
        E 4 b0 01 40
        E 16 b0 01 06
        E 16 b0 01 06
        E 16 b0 01 07
        E 16 b0 01 07
        E 16 b0 01 07
        E 16 b0 01 07
        E 16 b0 01 08
        E 16 b0 01 08
        E 16 b0 01 08
        E 16 b0 01 09
        E 16 b0 01 09
        E 16 b0 01 09
        E 16 b0 01 09
        E 16 b0 01 0a
        E 16 b0 01 0a
        E 16 b0 01 0a
        E 16 b0 01 0a
        E 16 b0 01 0b
        E 16 b0 01 0b
        E 16 b0 01 0b
        E 16 b0 01 0b
        E 16 b0 01 0b
        E 16 b0 01 0c
        E 16 b0 01 0c
        E 16 b0 01 0c
        E 16 b0 01 0c
        E 16 b0 01 0c
        E 16 b0 01 0c
        E 16 b0 01 0c
        E 16 b0 01 0c
        E 16 b0 01 0c
        E 16 b0 01 0c
        E 16 b0 01 0c
        E 16 b0 01 0c
        E 16 b0 01 0c
        E 16 b0 01 0c
        E 16 b0 01 0c
        E 16 b0 01 0c
        E 16 b0 01 0c
        E 16 b0 01 0c
        E 16 b0 01 0c
        E 16 b0 01 0c
        E 16 b0 01 0b
        E 16 b0 01 0b
        E 16 b0 01 0b
        E 16 b0 01 0b
        E 16 b0 01 0b
        E 16 b0 01 0b
        E 16 b0 01 0a
        E 16 b0 01 0a
        E 16 b0 01 0a
        E 16 b0 01 0a
        E 16 b0 01 09
        E 16 b0 01 09
        E 16 b0 01 09
        E 16 b0 01 08
        E 16 b0 01 08
        E 16 b0 01 08
        E 16 b0 01 08
        E 16 b0 01 07
        E 16 b0 01 07
        E 16 b0 01 07
        E 16 b0 01 06
        E 16 b0 01 06
        E 16 b0 01 06
        E 16 b0 01 05
        E 16 b0 01 05
        E 16 b0 01 05
        E 16 b0 01 04
        E 16 b0 01 04
        E 16 b0 01 04
        E 16 b0 01 04
        E 16 b0 01 03
        E 16 b0 01 03
        E 16 b0 01 03
        E 16 b0 01 02
        E 16 b0 01 02
        E 16 b0 01 02
        E 16 b0 01 02
        E 16 b0 01 01
        E 16 b0 01 01
        E 16 b0 01 01
        E 16 b0 01 01
        E 16 b0 01 01
        E 16 b0 01 01
        E 16 b0 01 00
        E 16 b0 01 00
        E 16 b0 01 00
        E 16 b0 01 00
        E 16 b0 01 00
        E 16 b0 01 00
        E 16 b0 01 00
        E 16 b0 01 00
        E 16 b0 01 00
        E 16 b0 01 00
        E 16 b0 01 00
        E 16 b0 01 00
        E 16 b0 01 00
        E 16 b0 01 00
        E 16 b0 01 00
        E 16 b0 01 00
        E 16 b0 01 00
        E 16 b0 01 00
        E 16 b0 01 00
        E 16 b0 01 00
        E 16 b0 01 00
        E 16 b0 01 00
        E 16 b0 01 01
        E 16 b0 01 01
        E 16 b0 01 01
        E 16 b0 01 01
        E 16 b0 01 01
        E 16 b0 01 02
        E 16 b0 01 02
        E 16 b0 01 02
        E 16 b0 01 02
        E 16 b0 01 03
        E 16 b0 01 03
        E 16 b0 01 03
        E 16 b0 01 03
        E 16 b0 01 04
        E 16 b0 01 04
        E 16 b0 01 04
        E 16 b0 01 05
        E 16 b0 01 05
        E 16 b0 01 05
        E 16 b0 01 06
        E 16 b0 01 06
        E 16 b0 01 40
        E 16 b0 01 43
        E 16 b0 01 46
        E 16 b0 01 49
        E 16 b0 01 4c
        E 16 b0 01 4f
        E 16 b0 01 52
        E 16 b0 01 55
        E 16 b0 01 58
        E 16 b0 01 5b
        E 16 b0 01 5e
        E 16 b0 01 60
        E 16 b0 01 63
        E 16 b0 01 66
        E 16 b0 01 68
        E 16 b0 01 6a
        E 16 b0 01 6d
        E 16 b0 01 6f
        E 16 b0 01 71
        E 16 b0 01 73
        E 16 b0 01 75
        E 16 b0 01 76
        E 16 b0 01 78
        E 16 b0 01 79
        E 16 b0 01 7a
        E 16 b0 01 7b
        E 16 b0 01 7c
        E 16 b0 01 7d
        E 16 b0 01 7e
        E 16 b0 01 7e
        E 16 b0 01 7f
        E 16 b0 01 7f
        E 16 b0 01 7f
        E 16 b0 01 7f
        E 16 b0 01 7f
        E 16 b0 01 7e
        E 16 b0 01 7e
        E 16 b0 01 7d
        E 16 b0 01 7c
        E 16 b0 01 7b
        E 16 b0 01 7a
        E 16 b0 01 78
        E 16 b0 01 77
        E 16 b0 01 75
        E 16 b0 01 74
        E 16 b0 01 72
        E 16 b0 01 70
        E 16 b0 01 6e
        E 16 b0 01 6c
        E 16 b0 01 69
        E 16 b0 01 67
        E 16 b0 01 64
        E 16 b0 01 62
        E 16 b0 01 5f
        E 16 b0 01 5c
        E 16 b0 01 59
        E 16 b0 01 57
        E 16 b0 01 54
        E 16 b0 01 51
        E 16 b0 01 4e
        E 16 b0 01 4a
        E 16 b0 01 47
        E 16 b0 01 44
        E 16 b0 01 41
        E 16 b0 01 3e
        E 16 b0 01 3b
        E 16 b0 01 38
        E 16 b0 01 35
        E 16 b0 01 31
        E 16 b0 01 2e
        E 16 b0 01 2b
        E 16 b0 01 28
        E 16 b0 01 26
        E 16 b0 01 23
        E 16 b0 01 20
        E 16 b0 01 1d
        E 16 b0 01 1b
        E 16 b0 01 18
        E 16 b0 01 16
        E 16 b0 01 13
        E 16 b0 01 11
        E 16 b0 01 0f
        E 16 b0 01 0d
        E 16 b0 01 0b
        E 16 b0 01 0a
        E 16 b0 01 08
        E 16 b0 01 07
        E 16 b0 01 05
        E 16 b0 01 04
        E 16 b0 01 03
        E 16 b0 01 02
        E 16 b0 01 01
        E 16 b0 01 01
        E 16 b0 01 00
        E 16 b0 01 00
        E 16 b0 01 00
        E 16 b0 01 00
        E 16 b0 01 00
        E 16 b0 01 01
        E 16 b0 01 01
        E 16 b0 01 02
        E 16 b0 01 03
        E 16 b0 01 04
        E 16 b0 01 05
        E 16 b0 01 06
        E 16 b0 01 07
        E 16 b0 01 09
        E 16 b0 01 0a
        E 16 b0 01 0c
        E 16 b0 01 0e
        E 16 b0 01 10
        E 16 b0 01 12
        E 16 b0 01 15
        E 16 b0 01 17
        E 16 b0 01 19
        E 16 b0 01 1c
        E 16 b0 01 1f
        E 16 b0 01 21
        E 16 b0 01 24
        E 16 b0 01 27
        E 16 b0 01 2a
        E 16 b0 01 2d
        E 16 b0 01 30
        E 16 b0 01 33
        E 16 b0 01 36
        E 16 b0 01 39
        E 16 b0 01 3c
        E 16 b0 01 40
        E 20 b0 01 06
        E 20 b0 01 06
        E 20 b0 01 07
        E 20 b0 01 07
        E 20 b0 01 07
        E 20 b0 01 07
        E 20 b0 01 08
        E 20 b0 01 08
        E 20 b0 01 08
        E 20 b0 01 09
        E 20 b0 01 09
        E 20 b0 01 09
        E 20 b0 01 09
        E 20 b0 01 0a
        E 20 b0 01 0a
        E 20 b0 01 0a
        E 20 b0 01 0a
        E 20 b0 01 0b
        E 20 b0 01 0b
        E 20 b0 01 0b
        E 20 b0 01 0b
        E 20 b0 01 0b
        E 20 b0 01 0c
        E 20 b0 01 0c
        E 20 b0 01 0c
        E 20 b0 01 0c
        E 20 b0 01 0c
        E 20 b0 01 0c
        E 20 b0 01 0c
        E 20 b0 01 0c
        E 20 b0 01 0c
        E 20 b0 01 0c
        E 20 b0 01 0c
        E 20 b0 01 0c
        E 20 b0 01 0c
        E 20 b0 01 0c
        E 20 b0 01 0c
        E 20 b0 01 0c
        E 20 b0 01 0c
        E 20 b0 01 0c
        E 20 b0 01 0c
        E 20 b0 01 0c
        E 20 b0 01 0b
        E 20 b0 01 0b
        E 20 b0 01 0b
        E 20 b0 01 0b
        E 20 b0 01 0b
        E 20 b0 01 0b
        E 20 b0 01 0a
        E 20 b0 01 0a
        E 20 b0 01 0a
        E 20 b0 01 0a
        E 20 b0 01 09
        E 20 b0 01 09
        E 20 b0 01 09
        E 20 b0 01 08
        E 20 b0 01 08
        E 20 b0 01 08
        E 20 b0 01 08
        E 20 b0 01 07
        E 20 b0 01 07
        E 20 b0 01 07
        E 20 b0 01 06
        E 20 b0 01 06
        E 20 b0 01 06
        E 20 b0 01 05
        E 20 b0 01 05
        E 20 b0 01 05
        E 20 b0 01 04
        E 20 b0 01 04
        E 20 b0 01 04
        E 20 b0 01 04
        E 20 b0 01 03
        E 20 b0 01 03
        E 20 b0 01 03
        E 20 b0 01 02
        E 20 b0 01 02
        E 20 b0 01 02
        E 20 b0 01 02
        E 20 b0 01 01
        E 20 b0 01 01
        E 20 b0 01 01
        E 20 b0 01 01
        E 20 b0 01 01
        E 20 b0 01 01
        E 20 b0 01 00
        E 20 b0 01 00
        E 20 b0 01 00
        E 20 b0 01 00
        E 20 b0 01 00
        E 20 b0 01 00
        E 20 b0 01 00
        E 20 b0 01 00
        E 20 b0 01 00
        E 20 b0 01 00
        E 20 b0 01 00
        E 20 b0 01 00
        E 20 b0 01 00
        E 20 b0 01 00
        E 20 b0 01 00
        E 20 b0 01 00
        E 20 b0 01 00
        E 20 b0 01 00
        E 20 b0 01 00
        E 20 b0 01 00
        E 20 b0 01 00
        E 20 b0 01 00
        E 20 b0 01 01
        E 20 b0 01 01
        E 20 b0 01 01
        E 20 b0 01 01
        E 20 b0 01 01
        E 20 b0 01 02
        E 20 b0 01 02
        E 20 b0 01 02
        E 20 b0 01 02
        E 20 b0 01 03
        E 20 b0 01 03
        E 20 b0 01 03
        E 20 b0 01 03
        E 20 b0 01 04
        E 20 b0 01 04
        E 20 b0 01 04
        E 20 b0 01 05
        E 20 b0 01 05
        E 20 b0 01 05
        E 20 b0 01 06
        E 20 b0 01 06
        E 4 b0 01 19
        E 4 b0 01 1a
        E 4 b0 01 1c
        E 4 b0 01 1d
        E 4 b0 01 1e
        E 4 b0 01 1f
        E 4 b0 01 20
        E 4 b0 01 22
        E 4 b0 01 23
        E 4 b0 01 24
        E 4 b0 01 25
        E 4 b0 01 26
        E 4 b0 01 27
        E 4 b0 01 28
        E 4 b0 01 29
        E 4 b0 01 2a
        E 4 b0 01 2b
        E 4 b0 01 2c
        E 4 b0 01 2d
        E 4 b0 01 2e
        E 4 b0 01 2e
        E 4 b0 01 2f
        E 4 b0 01 30
        E 4 b0 01 30
        E 4 b0 01 30
        E 4 b0 01 31
        E 4 b0 01 31
        E 4 b0 01 32
        E 4 b0 01 32
        E 4 b0 01 32
        E 4 b0 01 32
        E 4 b0 01 32
        E 4 b0 01 32
        E 4 b0 01 32
        E 4 b0 01 32
        E 4 b0 01 32
        E 4 b0 01 32
        E 4 b0 01 32
        E 4 b0 01 31
        E 4 b0 01 31
        E 4 b0 01 30
        E 4 b0 01 30
        E 4 b0 01 2f
        E 4 b0 01 2e
        E 4 b0 01 2e
        E 4 b0 01 2d
        E 4 b0 01 2c
        E 4 b0 01 2c
        E 4 b0 01 2b
        E 4 b0 01 2a
        E 4 b0 01 29
        E 4 b0 01 28
        E 4 b0 01 27
        E 4 b0 01 26
        E 4 b0 01 24
        E 4 b0 01 23
        E 4 b0 01 22
        E 4 b0 01 21
        E 4 b0 01 20
        E 4 b0 01 1f
        E 4 b0 01 1d
        E 4 b0 01 1c
        E 4 b0 01 1b
        E 4 b0 01 1a
        E 4 b0 01 18
        E 4 b0 01 17
        E 4 b0 01 16
        E 4 b0 01 15
        E 4 b0 01 13
        E 4 b0 01 12
        E 4 b0 01 11
        E 4 b0 01 10
        E 4 b0 01 0f
        E 4 b0 01 0e
        E 4 b0 01 0c
        E 4 b0 01 0b
        E 4 b0 01 0a
        E 4 b0 01 09
        E 4 b0 01 08
        E 4 b0 01 07
        E 4 b0 01 06
        E 4 b0 01 06
        E 4 b0 01 05
        E 4 b0 01 04
        E 4 b0 01 04
        E 4 b0 01 03
        E 4 b0 01 02
        E 4 b0 01 02
        E 4 b0 01 01
        E 4 b0 01 01
        E 4 b0 01 00
        E 4 b0 01 00
        E 4 b0 01 00
        E 4 b0 01 00
        E 4 b0 01 00
        E 4 b0 01 00
        E 4 b0 01 00
        E 4 b0 01 00
        E 4 b0 01 00
        E 4 b0 01 00
        E 4 b0 01 00
        E 4 b0 01 01
        E 4 b0 01 01
        E 4 b0 01 02
        E 4 b0 01 02
        E 4 b0 01 02
        E 4 b0 01 03
        E 4 b0 01 04
        E 4 b0 01 04
        E 4 b0 01 05
        E 4 b0 01 06
        E 4 b0 01 07
        E 4 b0 01 08
        E 4 b0 01 09
        E 4 b0 01 0a
        E 4 b0 01 0b
        E 4 b0 01 0c
        E 4 b0 01 0d
        E 4 b0 01 0e
        E 4 b0 01 0f
        E 4 b0 01 10
        E 4 b0 01 12
        E 4 b0 01 13
        E 4 b0 01 14
        E 4 b0 01 15
        E 4 b0 01 16
        E 4 b0 01 18
        E 4 b0 01 19
        E 20 b0 01 0c
        E 20 b0 01 0d
        E 20 b0 01 0e
        E 20 b0 01 0e
        E 20 b0 01 0f
        E 20 b0 01 0f
        E 20 b0 01 10
        E 20 b0 01 11
        E 20 b0 01 11
        E 20 b0 01 12
        E 20 b0 01 12
        E 20 b0 01 13
        E 20 b0 01 13
        E 20 b0 01 14
        E 20 b0 01 14
        E 20 b0 01 15
        E 20 b0 01 15
        E 20 b0 01 16
        E 20 b0 01 16
        E 20 b0 01 17
        E 20 b0 01 17
        E 20 b0 01 17
        E 20 b0 01 18
        E 20 b0 01 18
        E 20 b0 01 18
        E 20 b0 01 18
        E 20 b0 01 18
        E 20 b0 01 19
        E 20 b0 01 19
        E 20 b0 01 19
        E 20 b0 01 19
        E 20 b0 01 19
        E 20 b0 01 19
        E 20 b0 01 19
        E 20 b0 01 19
        E 20 b0 01 19
        E 20 b0 01 19
        E 20 b0 01 19
        E 20 b0 01 18
        E 20 b0 01 18
        E 20 b0 01 18
        E 20 b0 01 18
        E 20 b0 01 17
        E 20 b0 01 17
        E 20 b0 01 17
        E 20 b0 01 16
        E 20 b0 01 16
        E 20 b0 01 16
        E 20 b0 01 15
        E 20 b0 01 15
        E 20 b0 01 14
        E 20 b0 01 14
        E 20 b0 01 13
        E 20 b0 01 13
        E 20 b0 01 12
        E 20 b0 01 11
        E 20 b0 01 11
        E 20 b0 01 10
        E 20 b0 01 10
        E 20 b0 01 0f
        E 20 b0 01 0e
        E 20 b0 01 0e
        E 20 b0 01 0d
        E 20 b0 01 0d
        E 20 b0 01 0c
        E 20 b0 01 0b
        E 20 b0 01 0b
        E 20 b0 01 0a
        E 20 b0 01 09
        E 20 b0 01 09
        E 20 b0 01 08
        E 20 b0 01 08
        E 20 b0 01 07
        E 20 b0 01 07
        E 20 b0 01 06
        E 20 b0 01 05
        E 20 b0 01 05
        E 20 b0 01 04
        E 20 b0 01 04
        E 20 b0 01 03
        E 20 b0 01 03
        E 20 b0 01 03
        E 20 b0 01 02
        E 20 b0 01 02
        E 20 b0 01 02
        E 20 b0 01 01
        E 20 b0 01 01
        E 20 b0 01 01
        E 20 b0 01 00
        E 20 b0 01 00
        E 20 b0 01 00
        E 20 b0 01 00
        E 20 b0 01 00
        E 20 b0 01 00
        E 20 b0 01 00
        E 20 b0 01 00
        E 20 b0 01 00
        E 20 b0 01 00
        E 20 b0 01 00
        E 20 b0 01 00
        E 20 b0 01 00
        E 20 b0 01 00
        E 20 b0 01 00
        E 20 b0 01 01
        E 20 b0 01 01
        E 20 b0 01 01
        E 20 b0 01 01
        E 20 b0 01 02
        E 20 b0 01 02
        E 20 b0 01 02
        E 20 b0 01 03
        E 20 b0 01 03
        E 20 b0 01 04
        E 20 b0 01 04
        E 20 b0 01 05
        E 20 b0 01 05
        E 20 b0 01 06
        E 20 b0 01 06
        E 20 b0 01 07
        E 20 b0 01 07
        E 20 b0 01 08
        E 20 b0 01 09
        E 20 b0 01 09
        E 20 b0 01 0a
        E 20 b0 01 0a
        E 20 b0 01 0b
        E 20 b0 01 0c
        E 20 b0 01 0c
        E 4 b0 01 40
        E 4 b0 01 43
        E 4 b0 01 46
        E 4 b0 01 49
        E 4 b0 01 4c
        E 4 b0 01 4f
        E 4 b0 01 52
        E 4 b0 01 55
        E 4 b0 01 58
        E 4 b0 01 5b
        E 4 b0 01 5e
        E 4 b0 01 60
        E 4 b0 01 63
        E 4 b0 01 66
        E 4 b0 01 68
        E 4 b0 01 6a
        E 4 b0 01 6d
        E 4 b0 01 6f
        E 4 b0 01 71
        E 4 b0 01 73
        E 4 b0 01 75
        E 4 b0 01 76
        E 4 b0 01 78
        E 4 b0 01 79
        E 4 b0 01 7a
        E 4 b0 01 7b
        E 4 b0 01 7c
        E 4 b0 01 7d
        E 4 b0 01 7e
        E 4 b0 01 7e
        E 4 b0 01 7f
        E 4 b0 01 7f
        E 4 b0 01 7f
        E 4 b0 01 7f
        E 4 b0 01 7f
        E 4 b0 01 7e
        E 4 b0 01 7e
        E 4 b0 01 7d
        E 4 b0 01 7c
        E 4 b0 01 7b
        E 4 b0 01 7a
        E 4 b0 01 78
        E 4 b0 01 77
        E 4 b0 01 75
        E 4 b0 01 74
        E 4 b0 01 72
        E 4 b0 01 70
        E 4 b0 01 6e
        E 4 b0 01 6c
        E 4 b0 01 69
        E 4 b0 01 67
        E 4 b0 01 64
        E 4 b0 01 62
        E 4 b0 01 5f
        E 4 b0 01 5c
        E 4 b0 01 59
        E 4 b0 01 57
        E 4 b0 01 54
        E 4 b0 01 51
        E 4 b0 01 4e
        E 4 b0 01 4a
        E 4 b0 01 47
        E 4 b0 01 44
        E 4 b0 01 41
        E 4 b0 01 3e
        E 4 b0 01 3b
        E 4 b0 01 38
        E 4 b0 01 35
        E 4 b0 01 31
        E 4 b0 01 2e
        E 4 b0 01 2b
        E 4 b0 01 28
        E 4 b0 01 26
        E 4 b0 01 23
        E 4 b0 01 20
        E 4 b0 01 1d
        E 4 b0 01 1b
        E 4 b0 01 18
        E 4 b0 01 16
        E 4 b0 01 13
        E 4 b0 01 11
        E 4 b0 01 0f
        E 4 b0 01 0d
        E 4 b0 01 0b
        E 4 b0 01 0a
        E 4 b0 01 08
        E 4 b0 01 07
        E 4 b0 01 05
        E 4 b0 01 04
        E 4 b0 01 03
        E 4 b0 01 02
        E 4 b0 01 01
        E 4 b0 01 01
        E 4 b0 01 00
        E 4 b0 01 00
        E 4 b0 01 00
        E 4 b0 01 00
        E 4 b0 01 00
        E 4 b0 01 01
        E 4 b0 01 01
        E 4 b0 01 02
        E 4 b0 01 03
        E 4 b0 01 04
        E 4 b0 01 05
        E 4 b0 01 06
        E 4 b0 01 07
        E 4 b0 01 09
        E 4 b0 01 0a
        E 4 b0 01 0c
        E 4 b0 01 0e
        E 4 b0 01 10
        E 4 b0 01 12
        E 4 b0 01 15
        E 4 b0 01 17
        E 4 b0 01 19
        E 4 b0 01 1c
        E 4 b0 01 1f
        E 4 b0 01 21
        E 4 b0 01 24
        E 4 b0 01 27
        E 4 b0 01 2a
        E 4 b0 01 2d
        E 4 b0 01 30
        E 4 b0 01 33
        E 4 b0 01 36
        E 4 b0 01 39
        E 4 b0 01 3c
        E 4 b0 01 40
        E 16 b0 01 06
        E 16 b0 01 06
        E 16 b0 01 07
        E 16 b0 01 07
        E 16 b0 01 07
        E 16 b0 01 07
        E 16 b0 01 08
        E 16 b0 01 08
        E 16 b0 01 08
        E 16 b0 01 09
        E 16 b0 01 09
        E 16 b0 01 09
        E 16 b0 01 09
        E 16 b0 01 0a
        E 16 b0 01 0a
        E 16 b0 01 0a
        E 16 b0 01 0a
        E 16 b0 01 0b
        E 16 b0 01 0b
        E 16 b0 01 0b
        E 16 b0 01 0b
        E 16 b0 01 0b
        E 16 b0 01 0c
        E 16 b0 01 0c
        E 16 b0 01 0c
        E 16 b0 01 0c
        E 16 b0 01 0c
        E 16 b0 01 0c
        E 16 b0 01 0c
        E 16 b0 01 0c
        E 16 b0 01 0c
        E 16 b0 01 0c
        E 16 b0 01 0c
        E 16 b0 01 0c
        E 16 b0 01 0c
        E 16 b0 01 0c
        E 16 b0 01 0c
        E 16 b0 01 0c
        E 16 b0 01 0c
        E 16 b0 01 0c
        E 16 b0 01 0c
        E 16 b0 01 0c
        E 16 b0 01 0b
        E 16 b0 01 0b
        E 16 b0 01 0b
        E 16 b0 01 0b
        E 16 b0 01 0b
        E 16 b0 01 0b
        E 16 b0 01 0a
        E 16 b0 01 0a
        E 16 b0 01 0a
        E 16 b0 01 0a
        E 16 b0 01 09
        E 16 b0 01 09
        E 16 b0 01 09
        E 16 b0 01 08
        E 16 b0 01 08
        E 16 b0 01 08
        E 16 b0 01 08
        E 16 b0 01 07
        E 16 b0 01 07
        E 16 b0 01 07
        E 16 b0 01 06
        E 16 b0 01 06
        E 16 b0 01 06
        E 16 b0 01 05
        E 16 b0 01 05
        E 16 b0 01 05
        E 16 b0 01 04
        E 16 b0 01 04
        E 16 b0 01 04
        E 16 b0 01 04
        E 16 b0 01 03
        E 16 b0 01 03
        E 16 b0 01 03
        E 16 b0 01 02
        E 16 b0 01 02
        E 16 b0 01 02
        E 16 b0 01 02
        E 16 b0 01 01
        E 16 b0 01 01
        E 16 b0 01 01
        E 16 b0 01 01
        E 16 b0 01 01
        E 16 b0 01 01
        E 16 b0 01 00
        E 16 b0 01 00
        E 16 b0 01 00
        E 16 b0 01 00
        E 16 b0 01 00
        E 16 b0 01 00
        E 16 b0 01 00
        E 16 b0 01 00
        E 16 b0 01 00
        E 16 b0 01 00
        E 16 b0 01 00
        E 16 b0 01 00
        E 16 b0 01 00
        E 16 b0 01 00
        E 16 b0 01 00
        E 16 b0 01 00
        E 16 b0 01 00
        E 16 b0 01 00
        E 16 b0 01 00
        E 16 b0 01 00
        E 16 b0 01 00
        E 16 b0 01 00
        E 16 b0 01 01
        E 16 b0 01 01
        E 16 b0 01 01
        E 16 b0 01 01
        E 16 b0 01 01
        E 16 b0 01 02
        E 16 b0 01 02
        E 16 b0 01 02
        E 16 b0 01 02
        E 16 b0 01 03
        E 16 b0 01 03
        E 16 b0 01 03
        E 16 b0 01 03
        E 16 b0 01 04
        E 16 b0 01 04
        E 16 b0 01 04
        E 16 b0 01 05
        E 16 b0 01 05
        E 16 b0 01 05
        E 16 b0 01 06
        E 16 b0 01 06
        E 16 b0 01 40
        E 16 b0 01 43
        E 16 b0 01 46
        E 16 b0 01 49
        E 16 b0 01 4c
        E 16 b0 01 4f
        E 16 b0 01 52
        E 16 b0 01 55
        E 16 b0 01 58
        E 16 b0 01 5b
        E 16 b0 01 5e
        E 16 b0 01 60
        E 16 b0 01 63
        E 16 b0 01 66
        E 16 b0 01 68
        E 16 b0 01 6a
        E 16 b0 01 6d
        E 16 b0 01 6f
        E 16 b0 01 71
        E 16 b0 01 73
        E 16 b0 01 75
        E 16 b0 01 76
        E 16 b0 01 78
        E 16 b0 01 79
        E 16 b0 01 7a
        E 16 b0 01 7b
        E 16 b0 01 7c
        E 16 b0 01 7d
        E 16 b0 01 7e
        E 16 b0 01 7e
        E 16 b0 01 7f
        E 16 b0 01 7f
        E 16 b0 01 7f
        E 16 b0 01 7f
        E 16 b0 01 7f
        E 16 b0 01 7e
        E 16 b0 01 7e
        E 16 b0 01 7d
        E 16 b0 01 7c
        E 16 b0 01 7b
        E 16 b0 01 7a
        E 16 b0 01 78
        E 16 b0 01 77
        E 16 b0 01 75
        E 16 b0 01 74
        E 16 b0 01 72
        E 16 b0 01 70
        E 16 b0 01 6e
        E 16 b0 01 6c
        E 16 b0 01 69
        E 16 b0 01 67
        E 16 b0 01 64
        E 16 b0 01 62
        E 16 b0 01 5f
        E 16 b0 01 5c
        E 16 b0 01 59
        E 16 b0 01 57
        E 16 b0 01 54
        E 16 b0 01 51
        E 16 b0 01 4e
        E 16 b0 01 4a
        E 16 b0 01 47
        E 16 b0 01 44
        E 16 b0 01 41
        E 16 b0 01 3e
        E 16 b0 01 3b
        E 16 b0 01 38
        E 16 b0 01 35
        E 16 b0 01 31
        E 16 b0 01 2e
        E 16 b0 01 2b
        E 16 b0 01 28
        E 16 b0 01 26
        E 16 b0 01 23
        E 16 b0 01 20
        E 16 b0 01 1d
        E 16 b0 01 1b
        E 16 b0 01 18
        E 16 b0 01 16
        E 16 b0 01 13
        E 16 b0 01 11
        E 16 b0 01 0f
        E 16 b0 01 0d
        E 16 b0 01 0b
        E 16 b0 01 0a
        E 16 b0 01 08
        E 16 b0 01 07
        E 16 b0 01 05
        E 16 b0 01 04
        E 16 b0 01 03
        E 16 b0 01 02
        E 16 b0 01 01
        E 16 b0 01 01
        E 16 b0 01 00
        E 16 b0 01 00
        E 16 b0 01 00
        E 16 b0 01 00
        E 16 b0 01 00
        E 16 b0 01 01
        E 16 b0 01 01
        E 16 b0 01 02
        E 16 b0 01 03
        E 16 b0 01 04
        E 16 b0 01 05
        E 16 b0 01 06
        E 16 b0 01 07
        E 16 b0 01 09
        E 16 b0 01 0a
        E 16 b0 01 0c
        E 16 b0 01 0e
        E 16 b0 01 10
        E 16 b0 01 12
        E 16 b0 01 15
        E 16 b0 01 17
        E 16 b0 01 19
        E 16 b0 01 1c
        E 16 b0 01 1f
        E 16 b0 01 21
        E 16 b0 01 24
        E 16 b0 01 27
        E 16 b0 01 2a
        E 16 b0 01 2d
        E 16 b0 01 30
        E 16 b0 01 33
        E 16 b0 01 36
        E 16 b0 01 39
        E 16 b0 01 3c
        E 16 b0 01 40
        E 20 b0 01 06
        E 20 b0 01 06
        E 20 b0 01 07
        E 20 b0 01 07
        E 20 b0 01 07
        E 20 b0 01 07
        E 20 b0 01 08
        E 20 b0 01 08
        E 20 b0 01 08
        E 20 b0 01 09
        E 20 b0 01 09
        E 20 b0 01 09
        E 20 b0 01 09
        E 20 b0 01 0a
        E 20 b0 01 0a
        E 20 b0 01 0a
        E 20 b0 01 0a
        E 20 b0 01 0b
        E 20 b0 01 0b
        E 20 b0 01 0b
        E 20 b0 01 0b
        E 20 b0 01 0b
        E 20 b0 01 0c
        E 20 b0 01 0c
        E 20 b0 01 0c
        E 20 b0 01 0c
        E 20 b0 01 0c
        E 20 b0 01 0c
        E 20 b0 01 0c
        E 20 b0 01 0c
        E 20 b0 01 0c
        E 20 b0 01 0c
        E 20 b0 01 0c
        E 20 b0 01 0c
        E 20 b0 01 0c
        E 20 b0 01 0c
        E 20 b0 01 0c
        E 20 b0 01 0c
        E 20 b0 01 0c
        E 20 b0 01 0c
        E 20 b0 01 0c
        E 20 b0 01 0c
        E 20 b0 01 0b
        E 20 b0 01 0b
        E 20 b0 01 0b
        E 20 b0 01 0b
        E 20 b0 01 0b
        E 20 b0 01 0b
        E 20 b0 01 0a
        E 20 b0 01 0a
        E 20 b0 01 0a
        E 20 b0 01 0a
        E 20 b0 01 09
        E 20 b0 01 09
        E 20 b0 01 09
        E 20 b0 01 08
        E 20 b0 01 08
        E 20 b0 01 08
        E 20 b0 01 08
        E 20 b0 01 07
        E 20 b0 01 07
        E 20 b0 01 07
        E 20 b0 01 06
        E 20 b0 01 06
        E 20 b0 01 06
        E 20 b0 01 05
        E 20 b0 01 05
        E 20 b0 01 05
        E 20 b0 01 04
        E 20 b0 01 04
        E 20 b0 01 04
        E 20 b0 01 04
        E 20 b0 01 03
        E 20 b0 01 03
        E 20 b0 01 03
        E 20 b0 01 02
        E 20 b0 01 02
        E 20 b0 01 02
        E 20 b0 01 02
        E 20 b0 01 01
        E 20 b0 01 01
        E 20 b0 01 01
        E 20 b0 01 01
        E 20 b0 01 01
        E 20 b0 01 01
        E 20 b0 01 00
        E 20 b0 01 00
        E 20 b0 01 00
        E 20 b0 01 00
        E 20 b0 01 00
        E 20 b0 01 00
        E 20 b0 01 00
        E 20 b0 01 00
        E 20 b0 01 00
        E 20 b0 01 00
        E 20 b0 01 00
        E 20 b0 01 00
        E 20 b0 01 00
        E 20 b0 01 00
        E 20 b0 01 00
        E 20 b0 01 00
        E 20 b0 01 00
        E 20 b0 01 00
        E 20 b0 01 00
        E 20 b0 01 00
        E 20 b0 01 00
        E 20 b0 01 00
        E 20 b0 01 01
        E 20 b0 01 01
        E 20 b0 01 01
        E 20 b0 01 01
        E 20 b0 01 01
        E 20 b0 01 02
        E 20 b0 01 02
        E 20 b0 01 02
        E 20 b0 01 02
        E 20 b0 01 03
        E 20 b0 01 03
        E 20 b0 01 03
        E 20 b0 01 03
        E 20 b0 01 04
        E 20 b0 01 04
        E 20 b0 01 04
        E 20 b0 01 05
        E 20 b0 01 05
        E 20 b0 01 05
        E 20 b0 01 06
        E 20 b0 01 06
        E 4 b0 01 19
        E 4 b0 01 1a
        E 4 b0 01 1c
        E 4 b0 01 1d
        E 4 b0 01 1e
        E 4 b0 01 1f
        E 4 b0 01 20
        E 4 b0 01 22
        E 4 b0 01 23
        E 4 b0 01 24
        E 4 b0 01 25
        E 4 b0 01 26
        E 4 b0 01 27
        E 4 b0 01 28
        E 4 b0 01 29
        E 4 b0 01 2a
        E 4 b0 01 2b
        E 4 b0 01 2c
        E 4 b0 01 2d
        E 4 b0 01 2e
        E 4 b0 01 2e
        E 4 b0 01 2f
        E 4 b0 01 30
        E 4 b0 01 30
        E 4 b0 01 30
        E 4 b0 01 31
        E 4 b0 01 31
        E 4 b0 01 32
        E 4 b0 01 32
        E 4 b0 01 32
        E 4 b0 01 32
        E 4 b0 01 32
        E 4 b0 01 32
        E 4 b0 01 32
        E 4 b0 01 32
        E 4 b0 01 32
        E 4 b0 01 32
        E 4 b0 01 32
        E 4 b0 01 31
        E 4 b0 01 31
        E 4 b0 01 30
        E 4 b0 01 30
        E 4 b0 01 2f
        E 4 b0 01 2e
        E 4 b0 01 2e
        E 4 b0 01 2d
        E 4 b0 01 2c
        E 4 b0 01 2c
        E 4 b0 01 2b
        E 4 b0 01 2a
        E 4 b0 01 29
        E 4 b0 01 28
        E 4 b0 01 27
        E 4 b0 01 26
        E 4 b0 01 24
        E 4 b0 01 23
        E 4 b0 01 22
        E 4 b0 01 21
        E 4 b0 01 20
        E 4 b0 01 1f
        E 4 b0 01 1d
        E 4 b0 01 1c
        E 4 b0 01 1b
        E 4 b0 01 1a
        E 4 b0 01 18
        E 4 b0 01 17
        E 4 b0 01 16
        E 4 b0 01 15
        E 4 b0 01 13
        E 4 b0 01 12
        E 4 b0 01 11
        E 4 b0 01 10
        E 4 b0 01 0f
        E 4 b0 01 0e
        E 4 b0 01 0c
        E 4 b0 01 0b
        E 4 b0 01 0a
        E 4 b0 01 09
        E 4 b0 01 08
        E 4 b0 01 07
        E 4 b0 01 06
        E 4 b0 01 06
        E 4 b0 01 05
        E 4 b0 01 04
        E 4 b0 01 04
        E 4 b0 01 03
        E 4 b0 01 02
        E 4 b0 01 02
        E 4 b0 01 01
        E 4 b0 01 01
        E 4 b0 01 00
        E 4 b0 01 00
        E 4 b0 01 00
        E 4 b0 01 00
        E 4 b0 01 00
        E 4 b0 01 00
        E 4 b0 01 00
        E 4 b0 01 00
        E 4 b0 01 00
        E 4 b0 01 00
        E 4 b0 01 00
        E 4 b0 01 01
        E 4 b0 01 01
        E 4 b0 01 02
        E 4 b0 01 02
        E 4 b0 01 02
        E 4 b0 01 03
        E 4 b0 01 04
        E 4 b0 01 04
        E 4 b0 01 05
        E 4 b0 01 06
        E 4 b0 01 07
        E 4 b0 01 08
        E 4 b0 01 09
        E 4 b0 01 0a
        E 4 b0 01 0b
        E 4 b0 01 0c
        E 4 b0 01 0d
        E 4 b0 01 0e
        E 4 b0 01 0f
        E 4 b0 01 10
        E 4 b0 01 12
        E 4 b0 01 13
        E 4 b0 01 14
        E 4 b0 01 15
        E 4 b0 01 16
        E 4 b0 01 18
        E 4 b0 01 19
        E 20 b0 01 0c
        E 20 b0 01 0d
        E 20 b0 01 0e
        E 20 b0 01 0e
        E 20 b0 01 0f
        E 20 b0 01 0f
        E 20 b0 01 10
        E 20 b0 01 11
        E 20 b0 01 11
        E 20 b0 01 12
        E 20 b0 01 12
        E 20 b0 01 13
        E 20 b0 01 13
        E 20 b0 01 14
        E 20 b0 01 14
        E 20 b0 01 15
        E 20 b0 01 15
        E 20 b0 01 16
        E 20 b0 01 16
        E 20 b0 01 17
        E 20 b0 01 17
        E 20 b0 01 17
        E 20 b0 01 18
        E 20 b0 01 18
        E 20 b0 01 18
        E 20 b0 01 18
        E 20 b0 01 18
        E 20 b0 01 19
        E 20 b0 01 19
        E 20 b0 01 19
        E 20 b0 01 19
        E 20 b0 01 19
        E 20 b0 01 19
        E 20 b0 01 19
        E 20 b0 01 19
        E 20 b0 01 19
        E 20 b0 01 19
        E 20 b0 01 19
        E 20 b0 01 18
        E 20 b0 01 18
        E 20 b0 01 18
        E 20 b0 01 18
        E 20 b0 01 17
        E 20 b0 01 17
        E 20 b0 01 17
        E 20 b0 01 16
        E 20 b0 01 16
        E 20 b0 01 16
        E 20 b0 01 15
        E 20 b0 01 15
        E 20 b0 01 14
        E 20 b0 01 14
        E 20 b0 01 13
        E 20 b0 01 13
        E 20 b0 01 12
        E 20 b0 01 11
        E 20 b0 01 11
        E 20 b0 01 10
        E 20 b0 01 10
        E 20 b0 01 0f
        E 20 b0 01 0e
        E 20 b0 01 0e
        E 20 b0 01 0d
        E 20 b0 01 0d
        E 20 b0 01 0c
        E 20 b0 01 0b
        E 20 b0 01 0b
        E 20 b0 01 0a
        E 20 b0 01 09
        E 20 b0 01 09
        E 20 b0 01 08
        E 20 b0 01 08
        E 20 b0 01 07
        E 20 b0 01 07
        E 20 b0 01 06
        E 20 b0 01 05
        E 20 b0 01 05
        E 20 b0 01 04
        E 20 b0 01 04
        E 20 b0 01 03
        E 20 b0 01 03
        E 20 b0 01 03
        E 20 b0 01 02
        E 20 b0 01 02
        E 20 b0 01 02
        E 20 b0 01 01
        E 20 b0 01 01
        E 20 b0 01 01
        E 20 b0 01 00
        E 20 b0 01 00
        E 20 b0 01 00
        E 20 b0 01 00
        E 20 b0 01 00
        E 20 b0 01 00
        E 20 b0 01 00
        E 20 b0 01 00
        E 20 b0 01 00
        E 20 b0 01 00
        E 20 b0 01 00
        E 20 b0 01 00
        E 20 b0 01 00
        E 20 b0 01 00
        E 20 b0 01 00
        E 20 b0 01 01
        E 20 b0 01 01
        E 20 b0 01 01
        E 20 b0 01 01
        E 20 b0 01 02
        E 20 b0 01 02
        E 20 b0 01 02
        E 20 b0 01 03
        E 20 b0 01 03
        E 20 b0 01 04
        E 20 b0 01 04
        E 20 b0 01 05
        E 20 b0 01 05
        E 20 b0 01 06
        E 20 b0 01 06
        E 20 b0 01 07
        E 20 b0 01 07
        E 20 b0 01 08
        E 20 b0 01 09
        E 20 b0 01 09
        E 20 b0 01 0a
        E 20 b0 01 0a
        E 20 b0 01 0b
        E 20 b0 01 0c
        E 20 b0 01 0c
        E 4 b0 01 40
        E 4 b0 01 43
        E 4 b0 01 46
        E 4 b0 01 49
        E 4 b0 01 4c
        E 4 b0 01 4f
        E 4 b0 01 52
        E 4 b0 01 55
        E 4 b0 01 58
        E 4 b0 01 5b
        E 4 b0 01 5e
        E 4 b0 01 60
        E 4 b0 01 63
        E 4 b0 01 66
        E 4 b0 01 68
        E 4 b0 01 6a
        E 4 b0 01 6d
        E 4 b0 01 6f
        E 4 b0 01 71
        E 4 b0 01 73
        E 4 b0 01 75
        E 4 b0 01 76
        E 4 b0 01 78
        E 4 b0 01 79
        E 4 b0 01 7a
        E 4 b0 01 7b
        E 4 b0 01 7c
        E 4 b0 01 7d
        E 4 b0 01 7e
        E 4 b0 01 7e
        E 4 b0 01 7f
        E 4 b0 01 7f
        E 4 b0 01 7f
        E 4 b0 01 7f
        E 4 b0 01 7f
        E 4 b0 01 7e
        E 4 b0 01 7e
        E 4 b0 01 7d
        E 4 b0 01 7c
        E 4 b0 01 7b
        E 4 b0 01 7a
        E 4 b0 01 78
        E 4 b0 01 77
        E 4 b0 01 75
        E 4 b0 01 74
        E 4 b0 01 72
        E 4 b0 01 70
        E 4 b0 01 6e
        E 4 b0 01 6c
        E 4 b0 01 69
        E 4 b0 01 67
        E 4 b0 01 64
        E 4 b0 01 62
        E 4 b0 01 5f
        E 4 b0 01 5c
        E 4 b0 01 59
        E 4 b0 01 57
        E 4 b0 01 54
        E 4 b0 01 51
        E 4 b0 01 4e
        E 4 b0 01 4a
        E 4 b0 01 47
        E 4 b0 01 44
        E 4 b0 01 41
        E 4 b0 01 3e
        E 4 b0 01 3b
        E 4 b0 01 38
        E 4 b0 01 35
        E 4 b0 01 31
        E 4 b0 01 2e
        E 4 b0 01 2b
        E 4 b0 01 28
        E 4 b0 01 26
        E 4 b0 01 23
        E 4 b0 01 20
        E 4 b0 01 1d
        E 4 b0 01 1b
        E 4 b0 01 18
        E 4 b0 01 16
        E 4 b0 01 13
        E 4 b0 01 11
        E 4 b0 01 0f
        E 4 b0 01 0d
        E 4 b0 01 0b
        E 4 b0 01 0a
        E 4 b0 01 08
        E 4 b0 01 07
        E 4 b0 01 05
        E 4 b0 01 04
        E 4 b0 01 03
        E 4 b0 01 02
        E 4 b0 01 01
        E 4 b0 01 01
        E 4 b0 01 00
        E 4 b0 01 00
        E 4 b0 01 00
        E 4 b0 01 00
        E 4 b0 01 00
        E 4 b0 01 01
        E 4 b0 01 01
        E 4 b0 01 02
        E 4 b0 01 03
        E 4 b0 01 04
        E 4 b0 01 05
        E 4 b0 01 06
        E 4 b0 01 07
        E 4 b0 01 09
        E 4 b0 01 0a
        E 4 b0 01 0c
        E 4 b0 01 0e
        E 4 b0 01 10
        E 4 b0 01 12
        E 4 b0 01 15
        E 4 b0 01 17
        E 4 b0 01 19
        E 4 b0 01 1c
        E 4 b0 01 1f
        E 4 b0 01 21
        E 4 b0 01 24
        E 4 b0 01 27
        E 4 b0 01 2a
        E 4 b0 01 2d
        E 4 b0 01 30
        E 4 b0 01 33
        E 4 b0 01 36
        E 4 b0 01 39
        E 4 b0 01 3c
        E 4 b0 01 40
        E 16 b0 01 06
        E 16 b0 01 06
        E 16 b0 01 07
        E 16 b0 01 07
        E 16 b0 01 07
        E 16 b0 01 07
        E 16 b0 01 08
        E 16 b0 01 08
        E 16 b0 01 08
        E 16 b0 01 09
        E 16 b0 01 09
        E 16 b0 01 09
        E 16 b0 01 09
        E 16 b0 01 0a
        E 16 b0 01 0a
        E 16 b0 01 0a
        E 16 b0 01 0a
        E 16 b0 01 0b
        E 16 b0 01 0b
        E 16 b0 01 0b
        E 16 b0 01 0b
        E 16 b0 01 0b
        E 16 b0 01 0c
        E 16 b0 01 0c
        E 16 b0 01 0c
        E 16 b0 01 0c
        E 16 b0 01 0c
        E 16 b0 01 0c
        E 16 b0 01 0c
        E 16 b0 01 0c
        E 16 b0 01 0c
        E 16 b0 01 0c
        E 16 b0 01 0c
        E 16 b0 01 0c
        E 16 b0 01 0c
        E 16 b0 01 0c
        E 16 b0 01 0c
        E 16 b0 01 0c
        E 16 b0 01 0c
        E 16 b0 01 0c
        E 16 b0 01 0c
        E 16 b0 01 0c
        E 16 b0 01 0b
        E 16 b0 01 0b
        E 16 b0 01 0b
        E 16 b0 01 0b
        E 16 b0 01 0b
        E 16 b0 01 0b
        E 16 b0 01 0a
        E 16 b0 01 0a
        E 16 b0 01 0a
        E 16 b0 01 0a
        E 16 b0 01 09
        E 16 b0 01 09
        E 16 b0 01 09
        E 16 b0 01 08
        E 16 b0 01 08
        E 16 b0 01 08
        E 16 b0 01 08
        E 16 b0 01 07
        E 16 b0 01 07
        E 16 b0 01 07
        E 16 b0 01 06
        E 16 b0 01 06
        E 16 b0 01 06
        E 16 b0 01 05
        E 16 b0 01 05
        E 16 b0 01 05
        E 16 b0 01 04
        E 16 b0 01 04
        E 16 b0 01 04
        E 16 b0 01 04
        E 16 b0 01 03
        E 16 b0 01 03
        E 16 b0 01 03
        E 16 b0 01 02
        E 16 b0 01 02
        E 16 b0 01 02
        E 16 b0 01 02
        E 16 b0 01 01
        E 16 b0 01 01
        E 16 b0 01 01
        E 16 b0 01 01
        E 16 b0 01 01
        E 16 b0 01 01
        E 16 b0 01 00
        E 16 b0 01 00
        E 16 b0 01 00
        E 16 b0 01 00
        E 16 b0 01 00
        E 16 b0 01 00
        E 16 b0 01 00
        E 16 b0 01 00
        E 16 b0 01 00
        E 16 b0 01 00
        E 16 b0 01 00
        E 16 b0 01 00
        E 16 b0 01 00
        E 16 b0 01 00
        E 16 b0 01 00
        E 16 b0 01 00
        E 16 b0 01 00
        E 16 b0 01 00
        E 16 b0 01 00
        E 16 b0 01 00
        E 16 b0 01 00
        E 16 b0 01 00
        E 16 b0 01 01
        E 16 b0 01 01
        E 16 b0 01 01
        E 16 b0 01 01
        E 16 b0 01 01
        E 16 b0 01 02
        E 16 b0 01 02
        E 16 b0 01 02
        E 16 b0 01 02
        E 16 b0 01 03
        E 16 b0 01 03
        E 16 b0 01 03
        E 16 b0 01 03
        E 16 b0 01 04
        E 16 b0 01 04
        E 16 b0 01 04
        E 16 b0 01 05
        E 16 b0 01 05
        E 16 b0 01 05
        E 16 b0 01 06
        E 16 b0 01 06
        E 16 b0 01 40
        E 16 b0 01 43
        E 16 b0 01 46
        E 16 b0 01 49
        E 16 b0 01 4c
        E 16 b0 01 4f
        E 16 b0 01 52
        E 16 b0 01 55
        E 16 b0 01 58
        E 16 b0 01 5b
        E 16 b0 01 5e
        E 16 b0 01 60
        E 16 b0 01 63
        E 16 b0 01 66
        E 16 b0 01 68
        E 16 b0 01 6a
        E 16 b0 01 6d
        E 16 b0 01 6f
        E 16 b0 01 71
        E 16 b0 01 73
        E 16 b0 01 75
        E 16 b0 01 76
        E 16 b0 01 78
        E 16 b0 01 79
        E 16 b0 01 7a
        E 16 b0 01 7b
        E 16 b0 01 7c
        E 16 b0 01 7d
        E 16 b0 01 7e
        E 16 b0 01 7e
        E 16 b0 01 7f
        E 16 b0 01 7f
        E 16 b0 01 7f
        E 16 b0 01 7f
        E 16 b0 01 7f
        E 16 b0 01 7e
        E 16 b0 01 7e
        E 16 b0 01 7d
        E 16 b0 01 7c
        E 16 b0 01 7b
        E 16 b0 01 7a
        E 16 b0 01 78
        E 16 b0 01 77
        E 16 b0 01 75
        E 16 b0 01 74
        E 16 b0 01 72
        E 16 b0 01 70
        E 16 b0 01 6e
        E 16 b0 01 6c
        E 16 b0 01 69
        E 16 b0 01 67
        E 16 b0 01 64
        E 16 b0 01 62
        E 16 b0 01 5f
        E 16 b0 01 5c
        E 16 b0 01 59
        E 16 b0 01 57
        E 16 b0 01 54
        E 16 b0 01 51
        E 16 b0 01 4e
        E 16 b0 01 4a
        E 16 b0 01 47
        E 16 b0 01 44
        E 16 b0 01 41
        E 16 b0 01 3e
        E 16 b0 01 3b
        E 16 b0 01 38
        E 16 b0 01 35
        E 16 b0 01 31
        E 16 b0 01 2e
        E 16 b0 01 2b
        E 16 b0 01 28
        E 16 b0 01 26
        E 16 b0 01 23
        E 16 b0 01 20
        E 16 b0 01 1d
        E 16 b0 01 1b
        E 16 b0 01 18
        E 16 b0 01 16
        E 16 b0 01 13
        E 16 b0 01 11
        E 16 b0 01 0f
        E 16 b0 01 0d
        E 16 b0 01 0b
        E 16 b0 01 0a
        E 16 b0 01 08
        E 16 b0 01 07
        E 16 b0 01 05
        E 16 b0 01 04
        E 16 b0 01 03
        E 16 b0 01 02
        E 16 b0 01 01
        E 16 b0 01 01
        E 16 b0 01 00
        E 16 b0 01 00
        E 16 b0 01 00
        E 16 b0 01 00
        E 16 b0 01 00
        E 16 b0 01 01
        E 16 b0 01 01
        E 16 b0 01 02
        E 16 b0 01 03
        E 16 b0 01 04
        E 16 b0 01 05
        E 16 b0 01 06
        E 16 b0 01 07
        E 16 b0 01 09
        E 16 b0 01 0a
        E 16 b0 01 0c
        E 16 b0 01 0e
        E 16 b0 01 10
        E 16 b0 01 12
        E 16 b0 01 15
        E 16 b0 01 17
        E 16 b0 01 19
        E 16 b0 01 1c
        E 16 b0 01 1f
        E 16 b0 01 21
        E 16 b0 01 24
        E 16 b0 01 27
        E 16 b0 01 2a
        E 16 b0 01 2d
        E 16 b0 01 30
        E 16 b0 01 33
        E 16 b0 01 36
        E 16 b0 01 39
        E 16 b0 01 3c
        E 16 b0 01 40
        E 20 b0 01 06
        E 20 b0 01 06
        E 20 b0 01 07
        E 20 b0 01 07
        E 20 b0 01 07
        E 20 b0 01 07
        E 20 b0 01 08
        E 20 b0 01 08
        E 20 b0 01 08
        E 20 b0 01 09
        E 20 b0 01 09
        E 20 b0 01 09
        E 20 b0 01 09
        E 20 b0 01 0a
        E 20 b0 01 0a
        E 20 b0 01 0a
        E 20 b0 01 0a
        E 20 b0 01 0b
        E 20 b0 01 0b
        E 20 b0 01 0b
        E 20 b0 01 0b
        E 20 b0 01 0b
        E 20 b0 01 0c
        E 20 b0 01 0c
        E 20 b0 01 0c
        E 20 b0 01 0c
        E 20 b0 01 0c
        E 20 b0 01 0c
        E 20 b0 01 0c
        E 20 b0 01 0c
        E 20 b0 01 0c
        E 20 b0 01 0c
        E 20 b0 01 0c
        E 20 b0 01 0c
        E 20 b0 01 0c
        E 20 b0 01 0c
        E 20 b0 01 0c
        E 20 b0 01 0c
        E 20 b0 01 0c
        E 20 b0 01 0c
        E 20 b0 01 0c
        E 20 b0 01 0c
        E 20 b0 01 0b
        E 20 b0 01 0b
        E 20 b0 01 0b
        E 20 b0 01 0b
        E 20 b0 01 0b
        E 20 b0 01 0b
        E 20 b0 01 0a
        E 20 b0 01 0a
        E 20 b0 01 0a
        E 20 b0 01 0a
        E 20 b0 01 09
        E 20 b0 01 09
        E 20 b0 01 09
        E 20 b0 01 08
        E 20 b0 01 08
        E 20 b0 01 08
        E 20 b0 01 08
        E 20 b0 01 07
        E 20 b0 01 07
        E 20 b0 01 07
        E 20 b0 01 06
        E 20 b0 01 06
        E 20 b0 01 06
        E 20 b0 01 05
        E 20 b0 01 05
        E 20 b0 01 05
        E 20 b0 01 04
        E 20 b0 01 04
        E 20 b0 01 04
        E 20 b0 01 04
        E 20 b0 01 03
        E 20 b0 01 03
        E 20 b0 01 03
        E 20 b0 01 02
        E 20 b0 01 02
        E 20 b0 01 02
        E 20 b0 01 02
        E 20 b0 01 01
        E 20 b0 01 01
        E 20 b0 01 01
        E 20 b0 01 01
        E 20 b0 01 01
        E 20 b0 01 01
        E 20 b0 01 00
        E 20 b0 01 00
        E 20 b0 01 00
        E 20 b0 01 00
        E 20 b0 01 00
        E 20 b0 01 00
        E 20 b0 01 00
        E 20 b0 01 00
        E 20 b0 01 00
        E 20 b0 01 00
        E 20 b0 01 00
        E 20 b0 01 00
        E 20 b0 01 00
        E 20 b0 01 00
        E 20 b0 01 00
        E 20 b0 01 00
        E 20 b0 01 00
        E 20 b0 01 00
        E 20 b0 01 00
        E 20 b0 01 00
        E 20 b0 01 00
        E 20 b0 01 00
        E 20 b0 01 01
        E 20 b0 01 01
        E 20 b0 01 01
        E 20 b0 01 01
        E 20 b0 01 01
        E 20 b0 01 02
        E 20 b0 01 02
        E 20 b0 01 02
        E 20 b0 01 02
        E 20 b0 01 03
        E 20 b0 01 03
        E 20 b0 01 03
        E 20 b0 01 03
        E 20 b0 01 04
        E 20 b0 01 04
        E 20 b0 01 04
        E 20 b0 01 05
        E 20 b0 01 05
        E 20 b0 01 05
        E 20 b0 01 06
        E 20 b0 01 06
        E 4 b0 01 19
        E 4 b0 01 1a
        E 4 b0 01 1c
        E 4 b0 01 1d
        E 4 b0 01 1e
        E 4 b0 01 1f
        E 4 b0 01 20
        E 4 b0 01 22
        E 4 b0 01 23
        E 4 b0 01 24
        E 4 b0 01 25
        E 4 b0 01 26
        E 4 b0 01 27
        E 4 b0 01 28
        E 4 b0 01 29
        E 4 b0 01 2a
        E 4 b0 01 2b
        E 4 b0 01 2c
        E 4 b0 01 2d
        E 4 b0 01 2e
        E 4 b0 01 2e
        E 4 b0 01 2f
        E 4 b0 01 30
        E 4 b0 01 30
        E 4 b0 01 30
        E 4 b0 01 31
        E 4 b0 01 31
        E 4 b0 01 32
        E 4 b0 01 32
        E 4 b0 01 32
        E 4 b0 01 32
        E 4 b0 01 32
        E 4 b0 01 32
        E 4 b0 01 32
        E 4 b0 01 32
        E 4 b0 01 32
        E 4 b0 01 32
        E 4 b0 01 32
        E 4 b0 01 31
        E 4 b0 01 31
        E 4 b0 01 30
        E 4 b0 01 30
        E 4 b0 01 2f
        E 4 b0 01 2e
        E 4 b0 01 2e
        E 4 b0 01 2d
        E 4 b0 01 2c
        E 4 b0 01 2c
        E 4 b0 01 2b
        E 4 b0 01 2a
        E 4 b0 01 29
        E 4 b0 01 28
        E 4 b0 01 27
        E 4 b0 01 26
        E 4 b0 01 24
        E 4 b0 01 23
        E 4 b0 01 22
        E 4 b0 01 21
        E 4 b0 01 20
        E 4 b0 01 1f
        E 4 b0 01 1d
        E 4 b0 01 1c
        E 4 b0 01 1b
        E 4 b0 01 1a
        E 4 b0 01 18
        E 4 b0 01 17
        E 4 b0 01 16
        E 4 b0 01 15
        E 4 b0 01 13
        E 4 b0 01 12
        E 4 b0 01 11
        E 4 b0 01 10
        E 4 b0 01 0f
        E 4 b0 01 0e
        E 4 b0 01 0c
        E 4 b0 01 0b
        E 4 b0 01 0a
        E 4 b0 01 09
        E 4 b0 01 08
        E 4 b0 01 07
        E 4 b0 01 06
        E 4 b0 01 06
        E 4 b0 01 05
        E 4 b0 01 04
        E 4 b0 01 04
        E 4 b0 01 03
        E 4 b0 01 02
        E 4 b0 01 02
        E 4 b0 01 01
        E 4 b0 01 01
        E 4 b0 01 00
        E 4 b0 01 00
        E 4 b0 01 00
        E 4 b0 01 00
        E 4 b0 01 00
        E 4 b0 01 00
        E 4 b0 01 00
        E 4 b0 01 00
        E 4 b0 01 00
        E 4 b0 01 00
        E 4 b0 01 00
        E 4 b0 01 01
        E 4 b0 01 01
        E 4 b0 01 02
        E 4 b0 01 02
        E 4 b0 01 02
        E 4 b0 01 03
        E 4 b0 01 04
        E 4 b0 01 04
        E 4 b0 01 05
        E 4 b0 01 06
        E 4 b0 01 07
        E 4 b0 01 08
        E 4 b0 01 09
        E 4 b0 01 0a
        E 4 b0 01 0b
        E 4 b0 01 0c
        E 4 b0 01 0d
        E 4 b0 01 0e
        E 4 b0 01 0f
        E 4 b0 01 10
        E 4 b0 01 12
        E 4 b0 01 13
        E 4 b0 01 14
        E 4 b0 01 15
        E 4 b0 01 16
        E 4 b0 01 18
        E 4 b0 01 19
        E 20 b0 01 0c
        E 20 b0 01 0d
        E 20 b0 01 0e
        E 20 b0 01 0e
        E 20 b0 01 0f
        E 20 b0 01 0f
        E 20 b0 01 10
        E 20 b0 01 11
        E 20 b0 01 11
        E 20 b0 01 12
        E 20 b0 01 12
        E 20 b0 01 13
        E 20 b0 01 13
        E 20 b0 01 14
        E 20 b0 01 14
        E 20 b0 01 15
        E 20 b0 01 15
        E 20 b0 01 16
        E 20 b0 01 16
        E 20 b0 01 17
        E 20 b0 01 17
        E 20 b0 01 17
        E 20 b0 01 18
        E 20 b0 01 18
        E 20 b0 01 18
        E 20 b0 01 18
        E 20 b0 01 18
        E 20 b0 01 19
        E 20 b0 01 19
        E 20 b0 01 19
        E 20 b0 01 19
        E 20 b0 01 19
        E 20 b0 01 19
        E 20 b0 01 19
        E 20 b0 01 19
        E 20 b0 01 19
        E 20 b0 01 19
        E 20 b0 01 19
        E 20 b0 01 18
        E 20 b0 01 18
        E 20 b0 01 18
        E 20 b0 01 18
        E 20 b0 01 17
        E 20 b0 01 17
        E 20 b0 01 17
        E 20 b0 01 16
        E 20 b0 01 16
        E 20 b0 01 16
        E 20 b0 01 15
        E 20 b0 01 15
        E 20 b0 01 14
        E 20 b0 01 14
        E 20 b0 01 13
        E 20 b0 01 13
        E 20 b0 01 12
        E 20 b0 01 11
        E 20 b0 01 11
        E 20 b0 01 10
        E 20 b0 01 10
        E 20 b0 01 0f
        E 20 b0 01 0e
        E 20 b0 01 0e
        E 20 b0 01 0d
        E 20 b0 01 0d
        E 20 b0 01 0c
        E 20 b0 01 0b
        E 20 b0 01 0b
        E 20 b0 01 0a
        E 20 b0 01 09
        E 20 b0 01 09
        E 20 b0 01 08
        E 20 b0 01 08
        E 20 b0 01 07
        E 20 b0 01 07
        E 20 b0 01 06
        E 20 b0 01 05
        E 20 b0 01 05
        E 20 b0 01 04
        E 20 b0 01 04
        E 20 b0 01 03
        E 20 b0 01 03
        E 20 b0 01 03
        E 20 b0 01 02
        E 20 b0 01 02
        E 20 b0 01 02
        E 20 b0 01 01
        E 20 b0 01 01
        E 20 b0 01 01
        E 20 b0 01 00
        E 20 b0 01 00
        E 20 b0 01 00
        E 20 b0 01 00
        E 20 b0 01 00
        E 20 b0 01 00
        E 20 b0 01 00
        E 20 b0 01 00
        E 20 b0 01 00
        E 20 b0 01 00
        E 20 b0 01 00
        E 20 b0 01 00
        E 20 b0 01 00
        E 20 b0 01 00
        E 20 b0 01 00
        E 20 b0 01 01
        E 20 b0 01 01
        E 20 b0 01 01
        E 20 b0 01 01
        E 20 b0 01 02
        E 20 b0 01 02
        E 20 b0 01 02
        E 20 b0 01 03
        E 20 b0 01 03
        E 20 b0 01 04
        E 20 b0 01 04
        E 20 b0 01 05
        E 20 b0 01 05
        E 20 b0 01 06
        E 20 b0 01 06
        E 20 b0 01 07
        E 20 b0 01 07
        E 20 b0 01 08
        E 20 b0 01 09
        E 20 b0 01 09
        E 20 b0 01 0a
        E 20 b0 01 0a
        E 20 b0 01 0b
        E 20 b0 01 0c
        E 20 b0 01 0c
        E 4 b0 01 40
        E 4 b0 01 43
        E 4 b0 01 46
        E 4 b0 01 49
        E 4 b0 01 4c
        E 4 b0 01 4f
        E 4 b0 01 52
        E 4 b0 01 55
        E 4 b0 01 58
        E 4 b0 01 5b
        E 4 b0 01 5e
        E 4 b0 01 60
        E 4 b0 01 63
        E 4 b0 01 66
        E 4 b0 01 68
        E 4 b0 01 6a
        E 4 b0 01 6d
        E 4 b0 01 6f
        E 4 b0 01 71
        E 4 b0 01 73
        E 4 b0 01 75
        E 4 b0 01 76
        E 4 b0 01 78
        E 4 b0 01 79
        E 4 b0 01 7a
        E 4 b0 01 7b
        E 4 b0 01 7c
        E 4 b0 01 7d
        E 4 b0 01 7e
        E 4 b0 01 7e
        E 4 b0 01 7f
        E 4 b0 01 7f
        E 4 b0 01 7f
        E 4 b0 01 7f
        E 4 b0 01 7f
        E 4 b0 01 7e
        E 4 b0 01 7e
        E 4 b0 01 7d
        E 4 b0 01 7c
        E 4 b0 01 7b
        E 4 b0 01 7a
        E 4 b0 01 78
        E 4 b0 01 77
        E 4 b0 01 75
        E 4 b0 01 74
        E 4 b0 01 72
        E 4 b0 01 70
        E 4 b0 01 6e
        E 4 b0 01 6c
        E 4 b0 01 69
        E 4 b0 01 67
        E 4 b0 01 64
        E 4 b0 01 62
        E 4 b0 01 5f
        E 4 b0 01 5c
        E 4 b0 01 59
        E 4 b0 01 57
        E 4 b0 01 54
        E 4 b0 01 51
        E 4 b0 01 4e
        E 4 b0 01 4a
        E 4 b0 01 47
        E 4 b0 01 44
        E 4 b0 01 41
        E 4 b0 01 3e
        E 4 b0 01 3b
        E 4 b0 01 38
        E 4 b0 01 35
        E 4 b0 01 31
        E 4 b0 01 2e
        E 4 b0 01 2b
        E 4 b0 01 28
        E 4 b0 01 26
        E 4 b0 01 23
        E 4 b0 01 20
        E 4 b0 01 1d
        E 4 b0 01 1b
        E 4 b0 01 18
        E 4 b0 01 16
        E 4 b0 01 13
        E 4 b0 01 11
        E 4 b0 01 0f
        E 4 b0 01 0d
        E 4 b0 01 0b
        E 4 b0 01 0a
        E 4 b0 01 08
        E 4 b0 01 07
        E 4 b0 01 05
        E 4 b0 01 04
        E 4 b0 01 03
        E 4 b0 01 02
        E 4 b0 01 01
        E 4 b0 01 01
        E 4 b0 01 00
        E 4 b0 01 00
        E 4 b0 01 00
        E 4 b0 01 00
        E 4 b0 01 00
        E 4 b0 01 01
        E 4 b0 01 01
        E 4 b0 01 02
        E 4 b0 01 03
        E 4 b0 01 04
        E 4 b0 01 05
        E 4 b0 01 06
        E 4 b0 01 07
        E 4 b0 01 09
        E 4 b0 01 0a
        E 4 b0 01 0c
        E 4 b0 01 0e
        E 4 b0 01 10
        E 4 b0 01 12
        E 4 b0 01 15
        E 4 b0 01 17
        E 4 b0 01 19
        E 4 b0 01 1c
        E 4 b0 01 1f
        E 4 b0 01 21
        E 4 b0 01 24
        E 4 b0 01 27
        E 4 b0 01 2a
        E 4 b0 01 2d
        E 4 b0 01 30
        E 4 b0 01 33
        E 4 b0 01 36
        E 4 b0 01 39
        E 4 b0 01 3c
        E 4 b0 01 40
        E 16 b0 01 06
        E 16 b0 01 06
        E 16 b0 01 07
        E 16 b0 01 07
        E 16 b0 01 07
        E 16 b0 01 07
        E 16 b0 01 08
        E 16 b0 01 08
        E 16 b0 01 08
        E 16 b0 01 09
        E 16 b0 01 09
        E 16 b0 01 09
        E 16 b0 01 09
        E 16 b0 01 0a
        E 16 b0 01 0a
        E 16 b0 01 0a
        E 16 b0 01 0a
        E 16 b0 01 0b
        E 16 b0 01 0b
        E 16 b0 01 0b
        E 16 b0 01 0b
        E 16 b0 01 0b
        E 16 b0 01 0c
        E 16 b0 01 0c
        E 16 b0 01 0c
        E 16 b0 01 0c
        E 16 b0 01 0c
        E 16 b0 01 0c
        E 16 b0 01 0c
        E 16 b0 01 0c
        E 16 b0 01 0c
        E 16 b0 01 0c
        E 16 b0 01 0c
        E 16 b0 01 0c
        E 16 b0 01 0c
        E 16 b0 01 0c
        E 16 b0 01 0c
        E 16 b0 01 0c
        E 16 b0 01 0c
        E 16 b0 01 0c
        E 16 b0 01 0c
        E 16 b0 01 0c
        E 16 b0 01 0b
        E 16 b0 01 0b
        E 16 b0 01 0b
        E 16 b0 01 0b
        E 16 b0 01 0b
        E 16 b0 01 0b
        E 16 b0 01 0a
        E 16 b0 01 0a
        E 16 b0 01 0a
        E 16 b0 01 0a
        E 16 b0 01 09
        E 16 b0 01 09
        E 16 b0 01 09
        E 16 b0 01 08
        E 16 b0 01 08
        E 16 b0 01 08
        E 16 b0 01 08
        E 16 b0 01 07
        E 16 b0 01 07
        E 16 b0 01 07
        E 16 b0 01 06
        E 16 b0 01 06
        E 16 b0 01 06
        E 16 b0 01 05
        E 16 b0 01 05
        E 16 b0 01 05
        E 16 b0 01 04
        E 16 b0 01 04
        E 16 b0 01 04
        E 16 b0 01 04
        E 16 b0 01 03
        E 16 b0 01 03
        E 16 b0 01 03
        E 16 b0 01 02
        E 16 b0 01 02
        E 16 b0 01 02
        E 16 b0 01 02
        E 16 b0 01 01
        E 16 b0 01 01
        E 16 b0 01 01
        E 16 b0 01 01
        E 16 b0 01 01
        E 16 b0 01 01
        E 16 b0 01 00
        E 16 b0 01 00
        E 16 b0 01 00
        E 16 b0 01 00
        E 16 b0 01 00
        E 16 b0 01 00
        E 16 b0 01 00
        E 16 b0 01 00
        E 16 b0 01 00
        E 16 b0 01 00
        E 16 b0 01 00
        E 16 b0 01 00
        E 16 b0 01 00
        E 16 b0 01 00
        E 16 b0 01 00
        E 16 b0 01 00
        E 16 b0 01 00
        E 16 b0 01 00
        E 16 b0 01 00
        E 16 b0 01 00
        E 16 b0 01 00
        E 16 b0 01 00
        E 16 b0 01 01
        E 16 b0 01 01
        E 16 b0 01 01
        E 16 b0 01 01
        E 16 b0 01 01
        E 16 b0 01 02
        E 16 b0 01 02
        E 16 b0 01 02
        E 16 b0 01 02
        E 16 b0 01 03
        E 16 b0 01 03
        E 16 b0 01 03
        E 16 b0 01 03
        E 16 b0 01 04
        E 16 b0 01 04
        E 16 b0 01 04
        E 16 b0 01 05
        E 16 b0 01 05
        E 16 b0 01 05
        E 16 b0 01 06
        E 16 b0 01 06
        E 16 b0 01 40
        E 16 b0 01 43
        E 16 b0 01 46
        E 16 b0 01 49
        E 16 b0 01 4c
        E 16 b0 01 4f
        E 16 b0 01 52
        E 16 b0 01 55
        E 16 b0 01 58
        E 16 b0 01 5b
        E 16 b0 01 5e
        E 16 b0 01 60
        E 16 b0 01 63
        E 16 b0 01 66
        E 16 b0 01 68
        E 16 b0 01 6a
        E 16 b0 01 6d
        E 16 b0 01 6f
        E 16 b0 01 71
        E 16 b0 01 73
        E 16 b0 01 75
        E 16 b0 01 76
        E 16 b0 01 78
        E 16 b0 01 79
        E 16 b0 01 7a
        E 16 b0 01 7b
        E 16 b0 01 7c
        E 16 b0 01 7d
        E 16 b0 01 7e
        E 16 b0 01 7e
        E 16 b0 01 7f
        E 16 b0 01 7f
        E 16 b0 01 7f
        E 16 b0 01 7f
        E 16 b0 01 7f
        E 16 b0 01 7e
        E 16 b0 01 7e
        E 16 b0 01 7d
        E 16 b0 01 7c
        E 16 b0 01 7b
        E 16 b0 01 7a
        E 16 b0 01 78
        E 16 b0 01 77
        E 16 b0 01 75
        E 16 b0 01 74
        E 16 b0 01 72
        E 16 b0 01 70
        E 16 b0 01 6e
        E 16 b0 01 6c
        E 16 b0 01 69
        E 16 b0 01 67
        E 16 b0 01 64
        E 16 b0 01 62
        E 16 b0 01 5f
        E 16 b0 01 5c
        E 16 b0 01 59
        E 16 b0 01 57
        E 16 b0 01 54
        E 16 b0 01 51
        E 16 b0 01 4e
        E 16 b0 01 4a
        E 16 b0 01 47
        E 16 b0 01 44
        E 16 b0 01 41
        E 16 b0 01 3e
        E 16 b0 01 3b
        E 16 b0 01 38
        E 16 b0 01 35
        E 16 b0 01 31
        E 16 b0 01 2e
        E 16 b0 01 2b
        E 16 b0 01 28
        E 16 b0 01 26
        E 16 b0 01 23
        E 16 b0 01 20
        E 16 b0 01 1d
        E 16 b0 01 1b
        E 16 b0 01 18
        E 16 b0 01 16
        E 16 b0 01 13
        E 16 b0 01 11
        E 16 b0 01 0f
        E 16 b0 01 0d
        E 16 b0 01 0b
        E 16 b0 01 0a
        E 16 b0 01 08
        E 16 b0 01 07
        E 16 b0 01 05
        E 16 b0 01 04
        E 16 b0 01 03
        E 16 b0 01 02
        E 16 b0 01 01
        E 16 b0 01 01
        E 16 b0 01 00
        E 16 b0 01 00
        E 16 b0 01 00
        E 16 b0 01 00
        E 16 b0 01 00
        E 16 b0 01 01
        E 16 b0 01 01
        E 16 b0 01 02
        E 16 b0 01 03
        E 16 b0 01 04
        E 16 b0 01 05
        E 16 b0 01 06
        E 16 b0 01 07
        E 16 b0 01 09
        E 16 b0 01 0a
        E 16 b0 01 0c
        E 16 b0 01 0e
        E 16 b0 01 10
        E 16 b0 01 12
        E 16 b0 01 15
        E 16 b0 01 17
        E 16 b0 01 19
        E 16 b0 01 1c
        E 16 b0 01 1f
        E 16 b0 01 21
        E 16 b0 01 24
        E 16 b0 01 27
        E 16 b0 01 2a
        E 16 b0 01 2d
        E 16 b0 01 30
        E 16 b0 01 33
        E 16 b0 01 36
        E 16 b0 01 39
        E 16 b0 01 3c
        E 16 b0 01 40
        E 6 b0 01 0c
        E 6 b0 01 0d
        E 6 b0 01 0e
        E 6 b0 01 0e
        E 6 b0 01 0f
        E 6 b0 01 0f
        E 6 b0 01 10
        E 6 b0 01 11
        E 6 b0 01 11
        E 6 b0 01 12
        E 6 b0 01 12
        E 6 b0 01 13
        E 6 b0 01 13
        E 6 b0 01 14
        E 6 b0 01 14
        E 6 b0 01 15
        E 6 b0 01 15
        E 6 b0 01 16
        E 6 b0 01 16
        E 6 b0 01 17
        E 6 b0 01 17
        E 6 b0 01 17
        E 6 b0 01 18
        E 6 b0 01 18
        E 6 b0 01 18
        E 6 b0 01 18
        E 6 b0 01 18
        E 6 b0 01 19
        E 6 b0 01 19
        E 6 b0 01 19
        E 6 b0 01 19
        E 6 b0 01 19
        E 6 b0 01 19
        E 6 b0 01 19
        E 6 b0 01 19
        E 6 b0 01 19
        E 6 b0 01 19
        E 6 b0 01 19
        E 6 b0 01 18
        E 6 b0 01 18
        E 6 b0 01 18
        E 6 b0 01 18
        E 6 b0 01 17
        E 6 b0 01 17
        E 6 b0 01 17
        E 6 b0 01 16
        E 6 b0 01 16
        E 6 b0 01 16
        E 6 b0 01 15
        E 6 b0 01 15
        E 6 b0 01 14
        E 6 b0 01 14
        E 6 b0 01 13
        E 6 b0 01 13
        E 6 b0 01 12
        E 6 b0 01 11
        E 6 b0 01 11
        E 6 b0 01 10
        E 6 b0 01 10
        E 6 b0 01 0f
        E 6 b0 01 0e
        E 6 b0 01 0e
        E 6 b0 01 0d
        E 6 b0 01 0d
        E 6 b0 01 0c
        E 6 b0 01 0b
        E 6 b0 01 0b
        E 6 b0 01 0a
        E 6 b0 01 09
        E 6 b0 01 09
        E 6 b0 01 08
        E 6 b0 01 08
        E 6 b0 01 07
        E 6 b0 01 07
        E 6 b0 01 06
        E 6 b0 01 05
        E 6 b0 01 05
        E 6 b0 01 04
        E 6 b0 01 04
        E 6 b0 01 03
        E 6 b0 01 03
        E 6 b0 01 03
        E 6 b0 01 02
        E 6 b0 01 02
        E 6 b0 01 02
        E 6 b0 01 01
        E 6 b0 01 01
        E 6 b0 01 01
        E 6 b0 01 00
        E 6 b0 01 00
        E 6 b0 01 00
        E 6 b0 01 00
        E 6 b0 01 00
        E 6 b0 01 00
        E 6 b0 01 00
        E 6 b0 01 00
        E 6 b0 01 00
        E 6 b0 01 00
        E 6 b0 01 00
        E 6 b0 01 00
        E 6 b0 01 00
        E 6 b0 01 00
        E 6 b0 01 00
        E 6 b0 01 01
        E 6 b0 01 01
        E 6 b0 01 01
        E 6 b0 01 01
        E 6 b0 01 02
        E 6 b0 01 02
        E 6 b0 01 02
        E 6 b0 01 03
        E 6 b0 01 03
        E 6 b0 01 04
        E 6 b0 01 04
        E 6 b0 01 05
        E 6 b0 01 05
        E 6 b0 01 06
        E 6 b0 01 06
        E 6 b0 01 07
        E 6 b0 01 07
        E 6 b0 01 08
        E 6 b0 01 09
        E 6 b0 01 09
        E 6 b0 01 0a
        E 6 b0 01 0a
        E 6 b0 01 0b
        E 6 b0 01 0c
        E 6 b0 01 0c
        E 1 b0 01 40
        E 1 b0 01 43
        E 1 b0 01 46
        E 1 b0 01 49
        E 1 b0 01 4c
        E 1 b0 01 4f
        E 1 b0 01 52
        E 1 b0 01 55
        E 1 b0 01 58
        E 1 b0 01 5b
        E 1 b0 01 5e
        E 1 b0 01 60
        E 1 b0 01 63
        E 1 b0 01 66
        E 1 b0 01 68
        E 1 b0 01 6a
        E 1 b0 01 6d
        E 1 b0 01 6f
        E 1 b0 01 71
        E 1 b0 01 73
        E 1 b0 01 75
        E 1 b0 01 76
        E 1 b0 01 78
        E 1 b0 01 79
        E 1 b0 01 7a
        E 1 b0 01 7b
        E 1 b0 01 7c
        E 1 b0 01 7d
        E 1 b0 01 7e
        E 1 b0 01 7e
        E 1 b0 01 7f
        E 1 b0 01 7f
        E 1 b0 01 7f
        E 1 b0 01 7f
        E 1 b0 01 7f
        E 1 b0 01 7e
        E 1 b0 01 7e
        E 1 b0 01 7d
        E 1 b0 01 7c
        E 1 b0 01 7b
        E 1 b0 01 7a
        E 1 b0 01 78
        E 1 b0 01 77
        E 1 b0 01 75
        E 1 b0 01 74
        E 1 b0 01 72
        E 1 b0 01 70
        E 1 b0 01 6e
        E 1 b0 01 6c
        E 1 b0 01 69
        E 1 b0 01 67
        E 1 b0 01 64
        E 1 b0 01 62
        E 1 b0 01 5f
        E 1 b0 01 5c
        E 1 b0 01 59
        E 1 b0 01 57
        E 1 b0 01 54
        E 1 b0 01 51
        E 1 b0 01 4e
        E 1 b0 01 4a
        E 1 b0 01 47
        E 1 b0 01 44
        E 1 b0 01 41
        E 1 b0 01 3e
        E 1 b0 01 3b
        E 1 b0 01 38
        E 1 b0 01 35
        E 1 b0 01 31
        E 1 b0 01 2e
        E 1 b0 01 2b
        E 1 b0 01 28
        E 1 b0 01 26
        E 1 b0 01 23
        E 1 b0 01 20
        E 1 b0 01 1d
        E 1 b0 01 1b
        E 1 b0 01 18
        E 1 b0 01 16
        E 1 b0 01 13
        E 1 b0 01 11
        E 1 b0 01 0f
        E 1 b0 01 0d
        E 1 b0 01 0b
        E 1 b0 01 0a
        E 1 b0 01 08
        E 1 b0 01 07
        E 1 b0 01 05
        E 1 b0 01 04
        E 1 b0 01 03
        E 1 b0 01 02
        E 1 b0 01 01
        E 1 b0 01 01
        E 1 b0 01 00
        E 1 b0 01 00
        E 1 b0 01 00
        E 1 b0 01 00
        E 1 b0 01 00
        E 1 b0 01 01
        E 1 b0 01 01
        E 1 b0 01 02
        E 1 b0 01 03
        E 1 b0 01 04
        E 1 b0 01 05
        E 1 b0 01 06
        E 1 b0 01 07
        E 1 b0 01 09
        E 1 b0 01 0a
        E 1 b0 01 0c
        E 1 b0 01 0e
        E 1 b0 01 10
        E 1 b0 01 12
        E 1 b0 01 15
        E 1 b0 01 17
        E 1 b0 01 19
        E 1 b0 01 1c
        E 1 b0 01 1f
        E 1 b0 01 21
        E 1 b0 01 24
        E 1 b0 01 27
        E 1 b0 01 2a
        E 1 b0 01 2d
        E 1 b0 01 30
        E 1 b0 01 33
        E 1 b0 01 36
        E 1 b0 01 39
        E 1 b0 01 3c
        E 1 b0 01 40
        E 5 b0 01 06
        E 5 b0 01 06
        E 5 b0 01 07
        E 5 b0 01 07
        E 5 b0 01 07
        E 5 b0 01 07
        E 5 b0 01 08
        E 5 b0 01 08
        E 5 b0 01 08
        E 5 b0 01 09
        E 5 b0 01 09
        E 5 b0 01 09
        E 5 b0 01 09
        E 5 b0 01 0a
        E 5 b0 01 0a
        E 5 b0 01 0a
        E 5 b0 01 0a
        E 5 b0 01 0b
        E 5 b0 01 0b
        E 5 b0 01 0b
        E 5 b0 01 0b
        E 5 b0 01 0b
        E 5 b0 01 0c
        E 5 b0 01 0c
        E 5 b0 01 0c
        E 5 b0 01 0c
        E 5 b0 01 0c
        E 5 b0 01 0c
        E 5 b0 01 0c
        E 5 b0 01 0c
        E 5 b0 01 0c
        E 5 b0 01 0c
        E 5 b0 01 0c
        E 5 b0 01 0c
        E 5 b0 01 0c
        E 5 b0 01 0c
        E 5 b0 01 0c
        E 5 b0 01 0c
        E 5 b0 01 0c
        E 5 b0 01 0c
        E 5 b0 01 0c
        E 5 b0 01 0c
        E 5 b0 01 0b
        E 5 b0 01 0b
        E 5 b0 01 0b
        E 5 b0 01 0b
        E 5 b0 01 0b
        E 5 b0 01 0b
        E 5 b0 01 0a
        E 5 b0 01 0a
        E 5 b0 01 0a
        E 5 b0 01 0a
        E 5 b0 01 09
        E 5 b0 01 09
        E 5 b0 01 09
        E 5 b0 01 08
        E 5 b0 01 08
        E 5 b0 01 08
        E 5 b0 01 08
        E 5 b0 01 07
        E 5 b0 01 07
        E 5 b0 01 07
        E 5 b0 01 06
        E 5 b0 01 06
        E 5 b0 01 06
        E 5 b0 01 05
        E 5 b0 01 05
        E 5 b0 01 05
        E 5 b0 01 04
        E 5 b0 01 04
        E 5 b0 01 04
        E 5 b0 01 04
        E 5 b0 01 03
        E 5 b0 01 03
        E 5 b0 01 03
        E 5 b0 01 02
        E 5 b0 01 02
        E 5 b0 01 02
        E 5 b0 01 02
        E 5 b0 01 01
        E 5 b0 01 01
        E 5 b0 01 01
        E 5 b0 01 01
        E 5 b0 01 01
        E 5 b0 01 01
        E 5 b0 01 00
        E 5 b0 01 00
        E 5 b0 01 00
        E 5 b0 01 00
        E 5 b0 01 00
        E 5 b0 01 00
        E 5 b0 01 00
        E 5 b0 01 00
        E 5 b0 01 00
        E 5 b0 01 00
        E 5 b0 01 00
        E 5 b0 01 00
        E 5 b0 01 00
        E 5 b0 01 00
        E 5 b0 01 00
        E 5 b0 01 00
        E 5 b0 01 00
        E 5 b0 01 00
        E 5 b0 01 00
        E 5 b0 01 00
        E 5 b0 01 00
        E 5 b0 01 00
        E 5 b0 01 01
        E 5 b0 01 01
        E 5 b0 01 01
        E 5 b0 01 01
        E 5 b0 01 01
        E 5 b0 01 02
        E 5 b0 01 02
        E 5 b0 01 02
        E 5 b0 01 02
        E 5 b0 01 03
        E 5 b0 01 03
        E 5 b0 01 03
        E 5 b0 01 03
        E 5 b0 01 04
        E 5 b0 01 04
        E 5 b0 01 04
        E 5 b0 01 05
        E 5 b0 01 05
        E 5 b0 01 05
        E 5 b0 01 06
        E 5 b0 01 06
        E 5 b0 01 40
        E 5 b0 01 43
        E 5 b0 01 46
        E 5 b0 01 49
        E 5 b0 01 4c
        E 5 b0 01 4f
        E 5 b0 01 52
        E 5 b0 01 55
        E 5 b0 01 58
        E 5 b0 01 5b
        E 5 b0 01 5e
        E 5 b0 01 60
        E 5 b0 01 63
        E 5 b0 01 66
        E 5 b0 01 68
        E 5 b0 01 6a
        E 5 b0 01 6d
        E 5 b0 01 6f
        E 5 b0 01 71
        E 5 b0 01 73
        E 5 b0 01 75
        E 5 b0 01 76
        E 5 b0 01 78
        E 5 b0 01 79
        E 5 b0 01 7a
        E 5 b0 01 7b
        E 5 b0 01 7c
        E 5 b0 01 7d
        E 5 b0 01 7e
        E 5 b0 01 7e
        E 5 b0 01 7f
        E 5 b0 01 7f
        E 5 b0 01 7f
        E 5 b0 01 7f
        E 5 b0 01 7f
        E 5 b0 01 7e
        E 5 b0 01 7e
        E 5 b0 01 7d
        E 5 b0 01 7c
        E 5 b0 01 7b
        E 5 b0 01 7a
        E 5 b0 01 78
        E 5 b0 01 77
        E 5 b0 01 75
        E 5 b0 01 74
        E 5 b0 01 72
        E 5 b0 01 70
        E 5 b0 01 6e
        E 5 b0 01 6c
        E 5 b0 01 69
        E 5 b0 01 67
        E 5 b0 01 64
        E 5 b0 01 62
        E 5 b0 01 5f
        E 5 b0 01 5c
        E 5 b0 01 59
        E 5 b0 01 57
        E 5 b0 01 54
        E 5 b0 01 51
        E 5 b0 01 4e
        E 5 b0 01 4a
        E 5 b0 01 47
        E 5 b0 01 44
        E 5 b0 01 41
        E 5 b0 01 3e
        E 5 b0 01 3b
        E 5 b0 01 38
        E 5 b0 01 35
        E 5 b0 01 31
        E 5 b0 01 2e
        E 5 b0 01 2b
        E 5 b0 01 28
        E 5 b0 01 26
        E 5 b0 01 23
        E 5 b0 01 20
        E 5 b0 01 1d
        E 5 b0 01 1b
        E 5 b0 01 18
        E 5 b0 01 16
        E 5 b0 01 13
        E 5 b0 01 11
        E 5 b0 01 0f
        E 5 b0 01 0d
        E 5 b0 01 0b
        E 5 b0 01 0a
        E 5 b0 01 08
        E 5 b0 01 07
        E 5 b0 01 05
        E 5 b0 01 04
        E 5 b0 01 03
        E 5 b0 01 02
        E 5 b0 01 01
        E 5 b0 01 01
        E 5 b0 01 00
        E 5 b0 01 00
        E 5 b0 01 00
        E 5 b0 01 00
        E 5 b0 01 00
        E 5 b0 01 01
        E 5 b0 01 01
        E 5 b0 01 02
        E 5 b0 01 03
        E 5 b0 01 04
        E 5 b0 01 05
        E 5 b0 01 06
        E 5 b0 01 07
        E 5 b0 01 09
        E 5 b0 01 0a
        E 5 b0 01 0c
        E 5 b0 01 0e
        E 5 b0 01 10
        E 5 b0 01 12
        E 5 b0 01 15
        E 5 b0 01 17
        E 5 b0 01 19
        E 5 b0 01 1c
        E 5 b0 01 1f
        E 5 b0 01 21
        E 5 b0 01 24
        E 5 b0 01 27
        E 5 b0 01 2a
        E 5 b0 01 2d
        E 5 b0 01 30
        E 5 b0 01 33
        E 5 b0 01 36
        E 5 b0 01 39
        E 5 b0 01 3c
        E 5 b0 01 40
        E 6 b0 01 06
        E 6 b0 01 06
        E 6 b0 01 07
        E 6 b0 01 07
        E 6 b0 01 07
        E 6 b0 01 07
        E 6 b0 01 08
        E 6 b0 01 08
        E 6 b0 01 08
        E 6 b0 01 09
        E 6 b0 01 09
        E 6 b0 01 09
        E 6 b0 01 09
        E 6 b0 01 0a
        E 6 b0 01 0a
        E 6 b0 01 0a
        E 6 b0 01 0a
        E 6 b0 01 0b
        E 6 b0 01 0b
        E 6 b0 01 0b
        E 6 b0 01 0b
        E 6 b0 01 0b
        E 6 b0 01 0c
        E 6 b0 01 0c
        E 6 b0 01 0c
        E 6 b0 01 0c
        E 6 b0 01 0c
        E 6 b0 01 0c
        E 6 b0 01 0c
        E 6 b0 01 0c
        E 6 b0 01 0c
        E 6 b0 01 0c
        E 6 b0 01 0c
        E 6 b0 01 0c
        E 6 b0 01 0c
        E 6 b0 01 0c
        E 6 b0 01 0c
        E 6 b0 01 0c
        E 6 b0 01 0c
        E 6 b0 01 0c
        E 6 b0 01 0c
        E 6 b0 01 0c
        E 6 b0 01 0b
        E 6 b0 01 0b
        E 6 b0 01 0b
        E 6 b0 01 0b
        E 6 b0 01 0b
        E 6 b0 01 0b
        E 6 b0 01 0a
        E 6 b0 01 0a
        E 6 b0 01 0a
        E 6 b0 01 0a
        E 6 b0 01 09
        E 6 b0 01 09
        E 6 b0 01 09
        E 6 b0 01 08
        E 6 b0 01 08
        E 6 b0 01 08
        E 6 b0 01 08
        E 6 b0 01 07
        E 6 b0 01 07
        E 6 b0 01 07
        E 6 b0 01 06
        E 6 b0 01 06
        E 6 b0 01 06
        E 6 b0 01 05
        E 6 b0 01 05
        E 6 b0 01 05
        E 6 b0 01 04
        E 6 b0 01 04
        E 6 b0 01 04
        E 6 b0 01 04
        E 6 b0 01 03
        E 6 b0 01 03
        E 6 b0 01 03
        E 6 b0 01 02
        E 6 b0 01 02
        E 6 b0 01 02
        E 6 b0 01 02
        E 6 b0 01 01
        E 6 b0 01 01
        E 6 b0 01 01
        E 6 b0 01 01
        E 6 b0 01 01
        E 6 b0 01 01
        E 6 b0 01 00
        E 6 b0 01 00
        E 6 b0 01 00
        E 6 b0 01 00
        E 6 b0 01 00
        E 6 b0 01 00
        E 6 b0 01 00
        E 6 b0 01 00
        E 6 b0 01 00
        E 6 b0 01 00
        E 6 b0 01 00
        E 6 b0 01 00
        E 6 b0 01 00
        E 6 b0 01 00
        E 6 b0 01 00
        E 6 b0 01 00
        E 6 b0 01 00
        E 6 b0 01 00
        E 6 b0 01 00
        E 6 b0 01 00
        E 6 b0 01 00
        E 6 b0 01 00
        E 6 b0 01 01
        E 6 b0 01 01
        E 6 b0 01 01
        E 6 b0 01 01
        E 6 b0 01 01
        E 6 b0 01 02
        E 6 b0 01 02
        E 6 b0 01 02
        E 6 b0 01 02
        E 6 b0 01 03
        E 6 b0 01 03
        E 6 b0 01 03
        E 6 b0 01 03
        E 6 b0 01 04
        E 6 b0 01 04
        E 6 b0 01 04
        E 6 b0 01 05
        E 6 b0 01 05
        E 6 b0 01 05
        E 6 b0 01 06
        E 6 b0 01 06
        E 1 b0 01 19
        E 1 b0 01 1a
        E 1 b0 01 1c
        E 1 b0 01 1d
        E 1 b0 01 1e
        E 1 b0 01 1f
        E 1 b0 01 20
        E 1 b0 01 22
        E 1 b0 01 23
        E 1 b0 01 24
        E 1 b0 01 25
        E 1 b0 01 26
        E 1 b0 01 27
        E 1 b0 01 28
        E 1 b0 01 29
        E 1 b0 01 2a
        E 1 b0 01 2b
        E 1 b0 01 2c
        E 1 b0 01 2d
        E 1 b0 01 2e
        E 1 b0 01 2e
        E 1 b0 01 2f
        E 1 b0 01 30
        E 1 b0 01 30
        E 1 b0 01 30
        E 1 b0 01 31
        E 1 b0 01 31
        E 1 b0 01 32
        E 1 b0 01 32
        E 1 b0 01 32
        E 1 b0 01 32
        E 1 b0 01 32
        E 1 b0 01 32
        E 1 b0 01 32
        E 1 b0 01 32
        E 1 b0 01 32
        E 1 b0 01 32
        E 1 b0 01 32
        E 1 b0 01 31
        E 1 b0 01 31
        E 1 b0 01 30
        E 1 b0 01 30
        E 1 b0 01 2f
        E 1 b0 01 2e
        E 1 b0 01 2e
        E 1 b0 01 2d
        E 1 b0 01 2c
        E 1 b0 01 2c
        E 1 b0 01 2b
        E 1 b0 01 2a
        E 1 b0 01 29
        E 1 b0 01 28
        E 1 b0 01 27
        E 1 b0 01 26
        E 1 b0 01 24
        E 1 b0 01 23
        E 1 b0 01 22
        E 1 b0 01 21
        E 1 b0 01 20
        E 1 b0 01 1f
        E 1 b0 01 1d
        E 1 b0 01 1c
        E 1 b0 01 1b
        E 1 b0 01 1a
        E 1 b0 01 18
        E 1 b0 01 17
        E 1 b0 01 16
        E 1 b0 01 15
        E 1 b0 01 13
        E 1 b0 01 12
        E 1 b0 01 11
        E 1 b0 01 10
        E 1 b0 01 0f
        E 1 b0 01 0e
        E 1 b0 01 0c
        E 1 b0 01 0b
        E 1 b0 01 0a
        E 1 b0 01 09
        E 1 b0 01 08
        E 1 b0 01 07
        E 1 b0 01 06
        E 1 b0 01 06
        E 1 b0 01 05
        E 1 b0 01 04
        E 1 b0 01 04
        E 1 b0 01 03
        E 1 b0 01 02
        E 1 b0 01 02
        E 1 b0 01 01
        E 1 b0 01 01
        E 1 b0 01 00
        E 1 b0 01 00
        E 1 b0 01 00
        E 1 b0 01 00
        E 1 b0 01 00
        E 1 b0 01 00
        E 1 b0 01 00
        E 1 b0 01 00
        E 1 b0 01 00
        E 1 b0 01 00
        E 1 b0 01 00
        E 1 b0 01 01
        E 1 b0 01 01
        E 1 b0 01 02
        E 1 b0 01 02
        E 1 b0 01 02
        E 1 b0 01 03
        E 1 b0 01 04
        E 1 b0 01 04
        E 1 b0 01 05
        E 1 b0 01 06
        E 1 b0 01 07
        E 1 b0 01 08
        E 1 b0 01 09
        E 1 b0 01 0a
        E 1 b0 01 0b
        E 1 b0 01 0c
        E 1 b0 01 0d
        E 1 b0 01 0e
        E 1 b0 01 0f
        E 1 b0 01 10
        E 1 b0 01 12
        E 1 b0 01 13
        E 1 b0 01 14
        E 1 b0 01 15
        E 1 b0 01 16
        E 1 b0 01 18
        E 1 b0 01 19
        E 6 b0 01 0c
        E 6 b0 01 0d
        E 6 b0 01 0e
        E 6 b0 01 0e
        E 6 b0 01 0f
        E 6 b0 01 0f
        E 6 b0 01 10
        E 6 b0 01 11
        E 6 b0 01 11
        E 6 b0 01 12
        E 6 b0 01 12
        E 6 b0 01 13
        E 6 b0 01 13
        E 6 b0 01 14
        E 6 b0 01 14
        E 6 b0 01 15
        E 6 b0 01 15
        E 6 b0 01 16
        E 6 b0 01 16
        E 6 b0 01 17
        E 6 b0 01 17
        E 6 b0 01 17
        E 6 b0 01 18
        E 6 b0 01 18
        E 6 b0 01 18
        E 6 b0 01 18
        E 6 b0 01 18
        E 6 b0 01 19
        E 6 b0 01 19
        E 6 b0 01 19
        E 6 b0 01 19
        E 6 b0 01 19
        E 6 b0 01 19
        E 6 b0 01 19
        E 6 b0 01 19
        E 6 b0 01 19
        E 6 b0 01 19
        E 6 b0 01 19
        E 6 b0 01 18
        E 6 b0 01 18
        E 6 b0 01 18
        E 6 b0 01 18
        E 6 b0 01 17
        E 6 b0 01 17
        E 6 b0 01 17
        E 6 b0 01 16
        E 6 b0 01 16
        E 6 b0 01 16
        E 6 b0 01 15
        E 6 b0 01 15
        E 6 b0 01 14
        E 6 b0 01 14
        E 6 b0 01 13
        E 6 b0 01 13
        E 6 b0 01 12
        E 6 b0 01 11
        E 6 b0 01 11
        E 6 b0 01 10
        E 6 b0 01 10
        E 6 b0 01 0f
        E 6 b0 01 0e
        E 6 b0 01 0e
        E 6 b0 01 0d
        E 6 b0 01 0d
        E 6 b0 01 0c
        E 6 b0 01 0b
        E 6 b0 01 0b
        E 6 b0 01 0a
        E 6 b0 01 09
        E 6 b0 01 09
        E 6 b0 01 08
        E 6 b0 01 08
        E 6 b0 01 07
        E 6 b0 01 07
        E 6 b0 01 06
        E 6 b0 01 05
        E 6 b0 01 05
        E 6 b0 01 04
        E 6 b0 01 04
        E 6 b0 01 03
        E 6 b0 01 03
        E 6 b0 01 03
        E 6 b0 01 02
        E 6 b0 01 02
        E 6 b0 01 02
        E 6 b0 01 01
        E 6 b0 01 01
        E 6 b0 01 01
        E 6 b0 01 00
        E 6 b0 01 00
        E 6 b0 01 00
        E 6 b0 01 00
        E 6 b0 01 00
        E 6 b0 01 00
        E 6 b0 01 00
        E 6 b0 01 00
        E 6 b0 01 00
        E 6 b0 01 00
        E 6 b0 01 00
        E 6 b0 01 00
        E 6 b0 01 00
        E 6 b0 01 00
        E 6 b0 01 00
        E 6 b0 01 01
        E 6 b0 01 01
        E 6 b0 01 01
        E 6 b0 01 01
        E 6 b0 01 02
        E 6 b0 01 02
        E 6 b0 01 02
        E 6 b0 01 03
        E 6 b0 01 03
        E 6 b0 01 04
        E 6 b0 01 04
        E 6 b0 01 05
        E 6 b0 01 05
        E 6 b0 01 06
        E 6 b0 01 06
        E 6 b0 01 07
        E 6 b0 01 07
        E 6 b0 01 08
        E 6 b0 01 09
        E 6 b0 01 09
        E 6 b0 01 0a
        E 6 b0 01 0a
        E 6 b0 01 0b
        E 6 b0 01 0c
        E 6 b0 01 0c
        E 1 b0 01 40
        E 1 b0 01 43
        E 1 b0 01 46
        E 1 b0 01 49
        E 1 b0 01 4c
        E 1 b0 01 4f
        E 1 b0 01 52
        E 1 b0 01 55
        E 1 b0 01 58
        E 1 b0 01 5b
        E 1 b0 01 5e
        E 1 b0 01 60
        E 1 b0 01 63
        E 1 b0 01 66
        E 1 b0 01 68
        E 1 b0 01 6a
        E 1 b0 01 6d
        E 1 b0 01 6f
        E 1 b0 01 71
        E 1 b0 01 73
        E 1 b0 01 75
        E 1 b0 01 76
        E 1 b0 01 78
        E 1 b0 01 79
        E 1 b0 01 7a
        E 1 b0 01 7b
        E 1 b0 01 7c
        E 1 b0 01 7d
        E 1 b0 01 7e
        E 1 b0 01 7e
        E 1 b0 01 7f
        E 1 b0 01 7f
        E 1 b0 01 7f
        E 1 b0 01 7f
        E 1 b0 01 7f
        E 1 b0 01 7e
        E 1 b0 01 7e
        E 1 b0 01 7d
        E 1 b0 01 7c
        E 1 b0 01 7b
        E 1 b0 01 7a
        E 1 b0 01 78
        E 1 b0 01 77
        E 1 b0 01 75
        E 1 b0 01 74
        E 1 b0 01 72
        E 1 b0 01 70
        E 1 b0 01 6e
        E 1 b0 01 6c
        E 1 b0 01 69
        E 1 b0 01 67
        E 1 b0 01 64
        E 1 b0 01 62
        E 1 b0 01 5f
        E 1 b0 01 5c
        E 1 b0 01 59
        E 1 b0 01 57
        E 1 b0 01 54
        E 1 b0 01 51
        E 1 b0 01 4e
        E 1 b0 01 4a
        E 1 b0 01 47
        E 1 b0 01 44
        E 1 b0 01 41
        E 1 b0 01 3e
        E 1 b0 01 3b
        E 1 b0 01 38
        E 1 b0 01 35
        E 1 b0 01 31
        E 1 b0 01 2e
        E 1 b0 01 2b
        E 1 b0 01 28
        E 1 b0 01 26
        E 1 b0 01 23
        E 1 b0 01 20
        E 1 b0 01 1d
        E 1 b0 01 1b
        E 1 b0 01 18
        E 1 b0 01 16
        E 1 b0 01 13
        E 1 b0 01 11
        E 1 b0 01 0f
        E 1 b0 01 0d
        E 1 b0 01 0b
        E 1 b0 01 0a
        E 1 b0 01 08
        E 1 b0 01 07
        E 1 b0 01 05
        E 1 b0 01 04
        E 1 b0 01 03
        E 1 b0 01 02
        E 1 b0 01 01
        E 1 b0 01 01
        E 1 b0 01 00
        E 1 b0 01 00
        E 1 b0 01 00
        E 1 b0 01 00
        E 1 b0 01 00
        E 1 b0 01 01
        E 1 b0 01 01
        E 1 b0 01 02
        E 1 b0 01 03
        E 1 b0 01 04
        E 1 b0 01 05
        E 1 b0 01 06
        E 1 b0 01 07
        E 1 b0 01 09
        E 1 b0 01 0a
        E 1 b0 01 0c
        E 1 b0 01 0e
        E 1 b0 01 10
        E 1 b0 01 12
        E 1 b0 01 15
        E 1 b0 01 17
        E 1 b0 01 19
        E 1 b0 01 1c
        E 1 b0 01 1f
        E 1 b0 01 21
        E 1 b0 01 24
        E 1 b0 01 27
        E 1 b0 01 2a
        E 1 b0 01 2d
        E 1 b0 01 30
        E 1 b0 01 33
        E 1 b0 01 36
        E 1 b0 01 39
        E 1 b0 01 3c
        E 1 b0 01 40
        E 5 b0 01 06
        E 5 b0 01 06
        E 5 b0 01 07
        E 5 b0 01 07
        E 5 b0 01 07
        E 5 b0 01 07
        E 5 b0 01 08
        E 5 b0 01 08
        E 5 b0 01 08
        E 5 b0 01 09
        E 5 b0 01 09
        E 5 b0 01 09
        E 5 b0 01 09
        E 5 b0 01 0a
        E 5 b0 01 0a
        E 5 b0 01 0a
        E 5 b0 01 0a
        E 5 b0 01 0b
        E 5 b0 01 0b
        E 5 b0 01 0b
        E 5 b0 01 0b
        E 5 b0 01 0b
        E 5 b0 01 0c
        E 5 b0 01 0c
        E 5 b0 01 0c
        E 5 b0 01 0c
        E 5 b0 01 0c
        E 5 b0 01 0c
        E 5 b0 01 0c
        E 5 b0 01 0c
        E 5 b0 01 0c
        E 5 b0 01 0c
        E 5 b0 01 0c
        E 5 b0 01 0c
        E 5 b0 01 0c
        E 5 b0 01 0c
        E 5 b0 01 0c
        E 5 b0 01 0c
        E 5 b0 01 0c
        E 5 b0 01 0c
        E 5 b0 01 0c
        E 5 b0 01 0c
        E 5 b0 01 0b
        E 5 b0 01 0b
        E 5 b0 01 0b
        E 5 b0 01 0b
        E 5 b0 01 0b
        E 5 b0 01 0b
        E 5 b0 01 0a
        E 5 b0 01 0a
        E 5 b0 01 0a
        E 5 b0 01 0a
        E 5 b0 01 09
        E 5 b0 01 09
        E 5 b0 01 09
        E 5 b0 01 08
        E 5 b0 01 08
        E 5 b0 01 08
        E 5 b0 01 08
        E 5 b0 01 07
        E 5 b0 01 07
        E 5 b0 01 07
        E 5 b0 01 06
        E 5 b0 01 06
        E 5 b0 01 06
        E 5 b0 01 05
        E 5 b0 01 05
        E 5 b0 01 05
        E 5 b0 01 04
        E 5 b0 01 04
        E 5 b0 01 04
        E 5 b0 01 04
        E 5 b0 01 03
        E 5 b0 01 03
        E 5 b0 01 03
        E 5 b0 01 02
        E 5 b0 01 02
        E 5 b0 01 02
        E 5 b0 01 02
        E 5 b0 01 01
        E 5 b0 01 01
        E 5 b0 01 01
        E 5 b0 01 01
        E 5 b0 01 01
        E 5 b0 01 01
        E 5 b0 01 00
        E 5 b0 01 00
        E 5 b0 01 00
        E 5 b0 01 00
        E 5 b0 01 00
        E 5 b0 01 00
        E 5 b0 01 00
        E 5 b0 01 00
        E 5 b0 01 00
        E 5 b0 01 00
        E 5 b0 01 00
        E 5 b0 01 00
        E 5 b0 01 00
        E 5 b0 01 00
        E 5 b0 01 00
        E 5 b0 01 00
        E 5 b0 01 00
        E 5 b0 01 00
        E 5 b0 01 00
        E 5 b0 01 00
        E 5 b0 01 00
        E 5 b0 01 00
        E 5 b0 01 01
        E 5 b0 01 01
        E 5 b0 01 01
        E 5 b0 01 01
        E 5 b0 01 01
        E 5 b0 01 02
        E 5 b0 01 02
        E 5 b0 01 02
        E 5 b0 01 02
        E 5 b0 01 03
        E 5 b0 01 03
        E 5 b0 01 03
        E 5 b0 01 03
        E 5 b0 01 04
        E 5 b0 01 04
        E 5 b0 01 04
        E 5 b0 01 05
        E 5 b0 01 05
        E 5 b0 01 05
        E 5 b0 01 06
        E 4 b0 01 06
        E 1 b0 7b 00
        CCINTERP 32
        CHASE_CC_TAKEOFFS 1
        GUID {09CF2849-C343-AD40-9F46-6E724BDA41EC}
        IGNTEMPO 0 120 4 4
        SRCCOLOR 278
        VELLANE 3 601 0
        VELLANE -1 196 0
      >
    >
  >
  <TRACK {8D700267-9A98-2146-83BB-4CE734F655C4}
    NAME "pepto bismol 4oz bottle"
    PEAKCOL 16576
    BEAT -1
    AUTOMODE 0
    VOLPAN 1 0 -1 -1 1
    MUTESOLO 0 0 0
    IPHASE 0
    PLAYOFFS 0 1
    ISBUS 0 0
    BUSCOMP 0 0 0 0 0
    SHOWINMIX 1 0.6667 0.5 1 0.5 0 -1 0
    FREEMODE 0
    SEL 0
    REC 0 0 1 0 0 0 0
    VU 2
    TRACKHEIGHT 0 1 0 0 -1 0
    INQ 0 0 0 0.5 100 0 0 100
    NCHAN 2
    FX 1
    TRACKID {8D700267-9A98-2146-83BB-4CE734F655C4}
    PERF 0
    MIDIOUT -1
    MAINSEND 1 0
    <ITEM
      POSITION 0
      SNAPOFFS 0
      LENGTH 0.95238
      LOOP 1
      ALLTAKES 0
      FADEIN 1 0 0 1 0 0
      FADEOUT 1 0 0 1 0 0
      MUTE 0 0
      SEL 0
      IGUID {851C8775-67B0-A845-8E33-15F6739A55E6}
      IID 14
      NAME "pepto bismol 4oz bottle.mid"
      VOLPAN 1 0 1 -1
      SOFFS 0 0
      PLAYRATE 1 1 0 -1 0 0.0025
      CHANMODE 0
      GUID {FC376EB5-E9A5-5E4B-92AF-1DC9E5A399C7}
      <SOURCE MIDI
        HASDATA 1 128 QN
        CCINTERP 32
        POOLEDEVTS {5A40D51A-511C-9740-BBF7-0D460FA71022}
        E 128 b0 7b 00
        CCINTERP 32
        CHASE_CC_TAKEOFFS 1
        GUID {895D88AB-3751-9D4E-8D59-4FE5F650805D}
        IGNTEMPO 0 120 4 4
        SRCCOLOR 279
        VELLANE 3 601 0
        VELLANE -1 196 0
      >
    >
  >
  <TRACK {2B60BEB6-D311-5E4F-9BD2-6809A5BE6DD9}
    NAME "pepto bismol 4oz bottle"
    PEAKCOL 16576
    BEAT -1
    AUTOMODE 0
    VOLPAN 1 0 -1 -1 1
    MUTESOLO 0 0 0
    IPHASE 0
    PLAYOFFS 0 1
    ISBUS 0 0
    BUSCOMP 0 0 0 0 0
    SHOWINMIX 1 0.6667 0.5 1 0.5 0 -1 0
    FREEMODE 0
    SEL 0
    REC 0 0 1 0 0 0 0
    VU 2
    TRACKHEIGHT 0 1 0 0 -1 0
    INQ 0 0 0 0.5 100 0 0 100
    NCHAN 2
    FX 1
    TRACKID {2B60BEB6-D311-5E4F-9BD2-6809A5BE6DD9}
    PERF 0
    MIDIOUT -1
    MAINSEND 1 0
    <ITEM
      POSITION 0
      SNAPOFFS 0
      LENGTH 8.57142
      LOOP 1
      ALLTAKES 0
      FADEIN 1 0 0 1 0 0
      FADEOUT 1 0 0 1 0 0
      MUTE 0 0
      SEL 0
      IGUID {97F48F38-C25F-C740-A0EE-11AC087D80F6}
      IID 15
      NAME "pepto bismol 4oz bottle.mid"
      VOLPAN 1 0 1 -1
      SOFFS 0 0
      PLAYRATE 1 1 0 -1 0 0.0025
      CHANMODE 0
      GUID {050DECA7-FB1C-B349-AA6A-EC878217CD4C}
      <SOURCE MIDI
        HASDATA 1 128 QN
        CCINTERP 32
        POOLEDEVTS {063E6471-8869-8346-AE17-2E50BE215C64}
        E 4 b2 05 02
        E 4 b2 05 04
        E 4 b2 05 06
        E 4 b2 05 08
        E 4 b2 05 0a
        E 4 b2 05 0c
        E 4 b2 05 0e
        E 4 b2 05 10
        E 4 b2 05 12
        E 4 b2 05 14
        E 4 b2 05 16
        E 4 b2 05 18
        E 4 b2 05 1a
        E 4 b2 05 1c
        E 4 b2 05 1e
        E 4 b2 05 20
        E 4 b2 05 22
        E 4 b2 05 24
        E 4 b2 05 26
        E 4 b2 05 28
        E 4 b2 05 2a
        E 4 b2 05 2c
        E 4 b2 05 2e
        E 4 b2 05 30
        E 4 b2 05 32
        E 4 b2 05 34
        E 4 b2 05 36
        E 4 b2 05 38
        E 4 b2 05 3a
        E 4 b2 05 3c
        E 4 b2 05 3e
        E 4 b2 05 40
        E 4 b2 05 42
        E 4 b2 05 44
        E 4 b2 05 46
        E 4 b2 05 48
        E 4 b2 05 4a
        E 4 b2 05 4c
        E 4 b2 05 4e
        E 4 b2 05 50
        E 4 b2 05 52
        E 4 b2 05 54
        E 4 b2 05 56
        E 4 b2 05 58
        E 4 b2 05 5a
        E 4 b2 05 5c
        E 4 b2 05 5e
        E 4 b2 05 60
        E 4 b2 05 62
        E 4 b2 05 64
        E 4 b2 05 66
        E 4 b2 05 68
        E 4 b2 05 6a
        E 4 b2 05 6c
        E 4 b2 05 6e
        E 4 b2 05 70
        E 4 b2 05 72
        E 4 b2 05 74
        E 4 b2 05 76
        E 4 b2 05 78
        E 4 b2 05 7a
        E 4 b2 05 7c
        E 4 b2 05 7e
        E 4 b2 05 7f
        E 4 b2 05 7e
        E 4 b2 05 7c
        E 4 b2 05 7a
        E 4 b2 05 78
        E 4 b2 05 76
        E 4 b2 05 74
        E 4 b2 05 72
        E 4 b2 05 70
        E 4 b2 05 6e
        E 4 b2 05 6c
        E 4 b2 05 6a
        E 4 b2 05 68
        E 4 b2 05 66
        E 4 b2 05 64
        E 4 b2 05 62
        E 4 b2 05 60
        E 4 b2 05 5e
        E 4 b2 05 5c
        E 4 b2 05 5a
        E 4 b2 05 58
        E 4 b2 05 56
        E 4 b2 05 54
        E 4 b2 05 52
        E 4 b2 05 50
        E 4 b2 05 4e
        E 4 b2 05 4c
        E 4 b2 05 4a
        E 4 b2 05 48
        E 4 b2 05 46
        E 4 b2 05 44
        E 4 b2 05 42
        E 4 b2 05 40
        E 4 b2 05 3e
        E 4 b2 05 3c
        E 4 b2 05 3a
        E 4 b2 05 38
        E 4 b2 05 36
        E 4 b2 05 34
        E 4 b2 05 32
        E 4 b2 05 30
        E 4 b2 05 2e
        E 4 b2 05 2c
        E 4 b2 05 2a
        E 4 b2 05 28
        E 4 b2 05 26
        E 4 b2 05 24
        E 4 b2 05 22
        E 4 b2 05 20
        E 4 b2 05 1e
        E 4 b2 05 1c
        E 4 b2 05 1a
        E 4 b2 05 18
        E 4 b2 05 16
        E 4 b2 05 14
        E 4 b2 05 12
        E 4 b2 05 10
        E 4 b2 05 0e
        E 4 b2 05 0c
        E 4 b2 05 0a
        E 4 b2 05 08
        E 4 b2 05 06
        E 4 b2 05 04
        E 4 b2 05 02
        E 4 b2 05 00
        E 5 b2 05 00
        E 5 b2 05 00
        E 5 b2 05 00
        E 5 b2 05 00
        E 5 b2 05 01
        E 5 b2 05 01
        E 5 b2 05 01
        E 5 b2 05 01
        E 5 b2 05 01
        E 5 b2 05 02
        E 5 b2 05 02
        E 5 b2 05 02
        E 5 b2 05 02
        E 5 b2 05 02
        E 5 b2 05 03
        E 5 b2 05 03
        E 5 b2 05 03
        E 5 b2 05 03
        E 5 b2 05 03
        E 5 b2 05 04
        E 5 b2 05 04
        E 5 b2 05 04
        E 5 b2 05 04
        E 5 b2 05 04
        E 5 b2 05 05
        E 5 b2 05 05
        E 5 b2 05 05
        E 5 b2 05 05
        E 5 b2 05 05
        E 5 b2 05 06
        E 5 b2 05 06
        E 5 b2 05 06
        E 5 b2 05 06
        E 5 b2 05 06
        E 5 b2 05 07
        E 5 b2 05 07
        E 5 b2 05 07
        E 5 b2 05 07
        E 5 b2 05 07
        E 5 b2 05 08
        E 5 b2 05 08
        E 5 b2 05 08
        E 5 b2 05 08
        E 5 b2 05 08
        E 5 b2 05 09
        E 5 b2 05 09
        E 5 b2 05 09
        E 5 b2 05 09
        E 5 b2 05 09
        E 5 b2 05 0a
        E 5 b2 05 0a
        E 5 b2 05 0a
        E 5 b2 05 0a
        E 5 b2 05 0a
        E 5 b2 05 0b
        E 5 b2 05 0b
        E 5 b2 05 0b
        E 5 b2 05 0b
        E 5 b2 05 0b
        E 5 b2 05 0c
        E 5 b2 05 0c
        E 5 b2 05 0c
        E 5 b2 05 0c
        E 5 b2 05 0c
        E 5 b2 05 0c
        E 5 b2 05 0c
        E 5 b2 05 0c
        E 5 b2 05 0c
        E 5 b2 05 0b
        E 5 b2 05 0b
        E 5 b2 05 0b
        E 5 b2 05 0b
        E 5 b2 05 0b
        E 5 b2 05 0a
        E 5 b2 05 0a
        E 5 b2 05 0a
        E 5 b2 05 0a
        E 5 b2 05 0a
        E 5 b2 05 09
        E 5 b2 05 09
        E 5 b2 05 09
        E 5 b2 05 09
        E 5 b2 05 09
        E 5 b2 05 08
        E 5 b2 05 08
        E 5 b2 05 08
        E 5 b2 05 08
        E 5 b2 05 08
        E 5 b2 05 07
        E 5 b2 05 07
        E 5 b2 05 07
        E 5 b2 05 07
        E 5 b2 05 07
        E 5 b2 05 06
        E 5 b2 05 06
        E 5 b2 05 06
        E 5 b2 05 06
        E 5 b2 05 06
        E 5 b2 05 05
        E 5 b2 05 05
        E 5 b2 05 05
        E 5 b2 05 05
        E 5 b2 05 05
        E 5 b2 05 04
        E 5 b2 05 04
        E 5 b2 05 04
        E 5 b2 05 04
        E 5 b2 05 04
        E 5 b2 05 03
        E 5 b2 05 03
        E 5 b2 05 03
        E 5 b2 05 03
        E 5 b2 05 03
        E 5 b2 05 02
        E 5 b2 05 02
        E 5 b2 05 02
        E 5 b2 05 02
        E 5 b2 05 02
        E 5 b2 05 01
        E 5 b2 05 01
        E 5 b2 05 01
        E 5 b2 05 01
        E 5 b2 05 01
        E 5 b2 05 00
        E 5 b2 05 00
        E 5 b2 05 00
        E 5 b2 05 00
        E 4 b2 05 00
        E 1 b0 7b 00
        CCINTERP 32
        CHASE_CC_TAKEOFFS 1
        GUID {F0EB7D8D-0F3E-A941-A7FF-0FB3130956D6}
        IGNTEMPO 0 120 4 4
        SRCCOLOR 280
        VELLANE 3 601 0
        VELLANE -1 196 0
      >
    >
  >
  <TRACK {F6DA408F-A23D-5741-9B6B-D8C98919BF7D}
    NAME "pepto bismol 4oz bottle"
    PEAKCOL 16576
    BEAT -1
    AUTOMODE 0
    VOLPAN 1 0 -1 -1 1
    MUTESOLO 0 0 0
    IPHASE 0
    PLAYOFFS 0 1
    ISBUS 0 0
    BUSCOMP 0 0 0 0 0
    SHOWINMIX 1 0.6667 0.5 1 0.5 0 -1 0
    FREEMODE 0
    SEL 0
    REC 0 0 1 0 0 0 0
    VU 2
    TRACKHEIGHT 0 1 0 0 -1 0
    INQ 0 0 0 0.5 100 0 0 100
    NCHAN 2
    FX 1
    TRACKID {F6DA408F-A23D-5741-9B6B-D8C98919BF7D}
    PERF 0
    MIDIOUT -1
    MAINSEND 1 0
    <ITEM
      POSITION 0
      SNAPOFFS 0
      LENGTH 508.57092
      LOOP 1
      ALLTAKES 0
      FADEIN 1 0 0 1 0 0
      FADEOUT 1 0 0 1 0 0
      MUTE 0 0
      SEL 0
      IGUID {E004D94B-813E-C943-B3CB-FB033AD484A3}
      IID 16
      NAME "pepto bismol 4oz bottle.mid"
      VOLPAN 1 0 1 -1
      SOFFS 0 0
      PLAYRATE 1 1 0 -1 0 0.0025
      CHANMODE 0
      GUID {A43861CF-3AB6-5344-BAF0-C27B50138870}
      <SOURCE MIDI
        HASDATA 1 128 QN
        CCINTERP 32
        POOLEDEVTS {A1B435F3-7174-5B46-B126-C9C77DA29370}
        E 1 b3 0a 19
        E 1 b3 0a 1a
        E 1 b3 0a 1c
        E 1 b3 0a 1d
        E 1 b3 0a 1e
        E 1 b3 0a 1f
        E 1 b3 0a 20
        E 1 b3 0a 22
        E 1 b3 0a 23
        E 1 b3 0a 24
        E 1 b3 0a 25
        E 1 b3 0a 26
        E 1 b3 0a 27
        E 1 b3 0a 28
        E 1 b3 0a 29
        E 1 b3 0a 2a
        E 1 b3 0a 2b
        E 1 b3 0a 2c
        E 1 b3 0a 2d
        E 1 b3 0a 2e
        E 1 b3 0a 2e
        E 1 b3 0a 2f
        E 1 b3 0a 30
        E 1 b3 0a 30
        E 1 b3 0a 30
        E 1 b3 0a 31
        E 1 b3 0a 31
        E 1 b3 0a 32
        E 1 b3 0a 32
        E 1 b3 0a 32
        E 1 b3 0a 32
        E 1 b3 0a 32
        E 1 b3 0a 32
        E 1 b3 0a 32
        E 1 b3 0a 32
        E 1 b3 0a 32
        E 1 b3 0a 32
        E 1 b3 0a 32
        E 1 b3 0a 31
        E 1 b3 0a 31
        E 1 b3 0a 30
        E 1 b3 0a 30
        E 1 b3 0a 2f
        E 1 b3 0a 2e
        E 1 b3 0a 2e
        E 1 b3 0a 2d
        E 1 b3 0a 2c
        E 1 b3 0a 2c
        E 1 b3 0a 2b
        E 1 b3 0a 2a
        E 1 b3 0a 29
        E 1 b3 0a 28
        E 1 b3 0a 27
        E 1 b3 0a 26
        E 1 b3 0a 24
        E 1 b3 0a 23
        E 1 b3 0a 22
        E 1 b3 0a 21
        E 1 b3 0a 20
        E 1 b3 0a 1f
        E 1 b3 0a 1d
        E 1 b3 0a 1c
        E 1 b3 0a 1b
        E 1 b3 0a 1a
        E 1 b3 0a 18
        E 1 b3 0a 17
        E 1 b3 0a 16
        E 1 b3 0a 15
        E 1 b3 0a 13
        E 1 b3 0a 12
        E 1 b3 0a 11
        E 1 b3 0a 10
        E 1 b3 0a 0f
        E 1 b3 0a 0e
        E 1 b3 0a 0c
        E 1 b3 0a 0b
        E 1 b3 0a 0a
        E 1 b3 0a 09
        E 1 b3 0a 08
        E 1 b3 0a 07
        E 1 b3 0a 06
        E 1 b3 0a 06
        E 1 b3 0a 05
        E 1 b3 0a 04
        E 1 b3 0a 04
        E 1 b3 0a 03
        E 1 b3 0a 02
        E 1 b3 0a 02
        E 1 b3 0a 01
        E 1 b3 0a 01
        E 1 b3 0a 00
        E 1 b3 0a 00
        E 1 b3 0a 00
        E 1 b3 0a 00
        E 1 b3 0a 00
        E 1 b3 0a 00
        E 1 b3 0a 00
        E 1 b3 0a 00
        E 1 b3 0a 00
        E 1 b3 0a 00
        E 1 b3 0a 00
        E 1 b3 0a 01
        E 1 b3 0a 01
        E 1 b3 0a 02
        E 1 b3 0a 02
        E 1 b3 0a 02
        E 1 b3 0a 03
        E 1 b3 0a 04
        E 1 b3 0a 04
        E 1 b3 0a 05
        E 1 b3 0a 06
        E 1 b3 0a 07
        E 1 b3 0a 08
        E 1 b3 0a 09
        E 1 b3 0a 0a
        E 1 b3 0a 0b
        E 1 b3 0a 0c
        E 1 b3 0a 0d
        E 1 b3 0a 0e
        E 1 b3 0a 0f
        E 1 b3 0a 10
        E 1 b3 0a 12
        E 1 b3 0a 13
        E 1 b3 0a 14
        E 1 b3 0a 15
        E 1 b3 0a 16
        E 1 b3 0a 18
        E 1 b3 0a 19
        E 4 b3 0a 20
        E 4 b3 0a 21
        E 4 b3 0a 23
        E 4 b3 0a 24
        E 4 b3 0a 26
        E 4 b3 0a 27
        E 4 b3 0a 29
        E 4 b3 0a 2a
        E 4 b3 0a 2c
        E 4 b3 0a 2d
        E 4 b3 0a 2f
        E 4 b3 0a 30
        E 4 b3 0a 31
        E 4 b3 0a 33
        E 4 b3 0a 34
        E 4 b3 0a 35
        E 4 b3 0a 36
        E 4 b3 0a 37
        E 4 b3 0a 38
        E 4 b3 0a 39
        E 4 b3 0a 3a
        E 4 b3 0a 3b
        E 4 b3 0a 3c
        E 4 b3 0a 3c
        E 4 b3 0a 3d
        E 4 b3 0a 3d
        E 4 b3 0a 3e
        E 4 b3 0a 3e
        E 4 b3 0a 3f
        E 4 b3 0a 3f
        E 4 b3 0a 3f
        E 4 b3 0a 3f
        E 4 b3 0a 3f
        E 4 b3 0a 3f
        E 4 b3 0a 3f
        E 4 b3 0a 3f
        E 4 b3 0a 3f
        E 4 b3 0a 3e
        E 4 b3 0a 3e
        E 4 b3 0a 3d
        E 4 b3 0a 3d
        E 4 b3 0a 3c
        E 4 b3 0a 3b
        E 4 b3 0a 3a
        E 4 b3 0a 3a
        E 4 b3 0a 39
        E 4 b3 0a 38
        E 4 b3 0a 37
        E 4 b3 0a 36
        E 4 b3 0a 34
        E 4 b3 0a 33
        E 4 b3 0a 32
        E 4 b3 0a 31
        E 4 b3 0a 2f
        E 4 b3 0a 2e
        E 4 b3 0a 2c
        E 4 b3 0a 2b
        E 4 b3 0a 2a
        E 4 b3 0a 28
        E 4 b3 0a 27
        E 4 b3 0a 25
        E 4 b3 0a 23
        E 4 b3 0a 22
        E 4 b3 0a 20
        E 4 b3 0a 1f
        E 4 b3 0a 1d
        E 4 b3 0a 1c
        E 4 b3 0a 1a
        E 4 b3 0a 18
        E 4 b3 0a 17
        E 4 b3 0a 15
        E 4 b3 0a 14
        E 4 b3 0a 13
        E 4 b3 0a 11
        E 4 b3 0a 10
        E 4 b3 0a 0e
        E 4 b3 0a 0d
        E 4 b3 0a 0c
        E 4 b3 0a 0b
        E 4 b3 0a 09
        E 4 b3 0a 08
        E 4 b3 0a 07
        E 4 b3 0a 06
        E 4 b3 0a 05
        E 4 b3 0a 05
        E 4 b3 0a 04
        E 4 b3 0a 03
        E 4 b3 0a 02
        E 4 b3 0a 02
        E 4 b3 0a 01
        E 4 b3 0a 01
        E 4 b3 0a 00
        E 4 b3 0a 00
        E 4 b3 0a 00
        E 4 b3 0a 00
        E 4 b3 0a 00
        E 4 b3 0a 00
        E 4 b3 0a 00
        E 4 b3 0a 00
        E 4 b3 0a 00
        E 4 b3 0a 01
        E 4 b3 0a 01
        E 4 b3 0a 02
        E 4 b3 0a 02
        E 4 b3 0a 03
        E 4 b3 0a 03
        E 4 b3 0a 04
        E 4 b3 0a 05
        E 4 b3 0a 06
        E 4 b3 0a 07
        E 4 b3 0a 08
        E 4 b3 0a 09
        E 4 b3 0a 0a
        E 4 b3 0a 0b
        E 4 b3 0a 0c
        E 4 b3 0a 0e
        E 4 b3 0a 0f
        E 4 b3 0a 10
        E 4 b3 0a 12
        E 4 b3 0a 13
        E 4 b3 0a 15
        E 4 b3 0a 16
        E 4 b3 0a 18
        E 4 b3 0a 19
        E 4 b3 0a 1b
        E 4 b3 0a 1c
        E 4 b3 0a 1e
        E 4 b3 0a 20
        E 2 b3 0a 06
        E 2 b3 0a 06
        E 2 b3 0a 07
        E 2 b3 0a 07
        E 2 b3 0a 07
        E 2 b3 0a 07
        E 2 b3 0a 08
        E 2 b3 0a 08
        E 2 b3 0a 08
        E 2 b3 0a 09
        E 2 b3 0a 09
        E 2 b3 0a 09
        E 2 b3 0a 09
        E 2 b3 0a 0a
        E 2 b3 0a 0a
        E 2 b3 0a 0a
        E 2 b3 0a 0a
        E 2 b3 0a 0b
        E 2 b3 0a 0b
        E 2 b3 0a 0b
        E 2 b3 0a 0b
        E 2 b3 0a 0b
        E 2 b3 0a 0c
        E 2 b3 0a 0c
        E 2 b3 0a 0c
        E 2 b3 0a 0c
        E 2 b3 0a 0c
        E 2 b3 0a 0c
        E 2 b3 0a 0c
        E 2 b3 0a 0c
        E 2 b3 0a 0c
        E 2 b3 0a 0c
        E 2 b3 0a 0c
        E 2 b3 0a 0c
        E 2 b3 0a 0c
        E 2 b3 0a 0c
        E 2 b3 0a 0c
        E 2 b3 0a 0c
        E 2 b3 0a 0c
        E 2 b3 0a 0c
        E 2 b3 0a 0c
        E 2 b3 0a 0c
        E 2 b3 0a 0b
        E 2 b3 0a 0b
        E 2 b3 0a 0b
        E 2 b3 0a 0b
        E 2 b3 0a 0b
        E 2 b3 0a 0b
        E 2 b3 0a 0a
        E 2 b3 0a 0a
        E 2 b3 0a 0a
        E 2 b3 0a 0a
        E 2 b3 0a 09
        E 2 b3 0a 09
        E 2 b3 0a 09
        E 2 b3 0a 08
        E 2 b3 0a 08
        E 2 b3 0a 08
        E 2 b3 0a 08
        E 2 b3 0a 07
        E 2 b3 0a 07
        E 2 b3 0a 07
        E 2 b3 0a 06
        E 2 b3 0a 06
        E 2 b3 0a 06
        E 2 b3 0a 05
        E 2 b3 0a 05
        E 2 b3 0a 05
        E 2 b3 0a 04
        E 2 b3 0a 04
        E 2 b3 0a 04
        E 2 b3 0a 04
        E 2 b3 0a 03
        E 2 b3 0a 03
        E 2 b3 0a 03
        E 2 b3 0a 02
        E 2 b3 0a 02
        E 2 b3 0a 02
        E 2 b3 0a 02
        E 2 b3 0a 01
        E 2 b3 0a 01
        E 2 b3 0a 01
        E 2 b3 0a 01
        E 2 b3 0a 01
        E 2 b3 0a 01
        E 2 b3 0a 00
        E 2 b3 0a 00
        E 2 b3 0a 00
        E 2 b3 0a 00
        E 2 b3 0a 00
        E 2 b3 0a 00
        E 2 b3 0a 00
        E 2 b3 0a 00
        E 2 b3 0a 00
        E 2 b3 0a 00
        E 2 b3 0a 00
        E 2 b3 0a 00
        E 2 b3 0a 00
        E 2 b3 0a 00
        E 2 b3 0a 00
        E 2 b3 0a 00
        E 2 b3 0a 00
        E 2 b3 0a 00
        E 2 b3 0a 00
        E 2 b3 0a 00
        E 2 b3 0a 00
        E 2 b3 0a 00
        E 2 b3 0a 01
        E 2 b3 0a 01
        E 2 b3 0a 01
        E 2 b3 0a 01
        E 2 b3 0a 01
        E 2 b3 0a 02
        E 2 b3 0a 02
        E 2 b3 0a 02
        E 2 b3 0a 02
        E 2 b3 0a 03
        E 2 b3 0a 03
        E 2 b3 0a 03
        E 2 b3 0a 03
        E 2 b3 0a 04
        E 2 b3 0a 04
        E 2 b3 0a 04
        E 2 b3 0a 05
        E 2 b3 0a 05
        E 2 b3 0a 05
        E 2 b3 0a 06
        E 2 b3 0a 06
        E 12 b3 0a 20
        E 12 b3 0a 21
        E 12 b3 0a 23
        E 12 b3 0a 24
        E 12 b3 0a 26
        E 12 b3 0a 27
        E 12 b3 0a 29
        E 12 b3 0a 2a
        E 12 b3 0a 2c
        E 12 b3 0a 2d
        E 12 b3 0a 2f
        E 12 b3 0a 30
        E 12 b3 0a 31
        E 12 b3 0a 33
        E 12 b3 0a 34
        E 12 b3 0a 35
        E 12 b3 0a 36
        E 12 b3 0a 37
        E 12 b3 0a 38
        E 12 b3 0a 39
        E 12 b3 0a 3a
        E 12 b3 0a 3b
        E 12 b3 0a 3c
        E 12 b3 0a 3c
        E 12 b3 0a 3d
        E 12 b3 0a 3d
        E 12 b3 0a 3e
        E 12 b3 0a 3e
        E 12 b3 0a 3f
        E 12 b3 0a 3f
        E 12 b3 0a 3f
        E 12 b3 0a 3f
        E 12 b3 0a 3f
        E 12 b3 0a 3f
        E 12 b3 0a 3f
        E 12 b3 0a 3f
        E 12 b3 0a 3f
        E 12 b3 0a 3e
        E 12 b3 0a 3e
        E 12 b3 0a 3d
        E 12 b3 0a 3d
        E 12 b3 0a 3c
        E 12 b3 0a 3b
        E 12 b3 0a 3a
        E 12 b3 0a 3a
        E 12 b3 0a 39
        E 12 b3 0a 38
        E 12 b3 0a 37
        E 12 b3 0a 36
        E 12 b3 0a 34
        E 12 b3 0a 33
        E 12 b3 0a 32
        E 12 b3 0a 31
        E 12 b3 0a 2f
        E 12 b3 0a 2e
        E 12 b3 0a 2c
        E 12 b3 0a 2b
        E 12 b3 0a 2a
        E 12 b3 0a 28
        E 12 b3 0a 27
        E 12 b3 0a 25
        E 12 b3 0a 23
        E 12 b3 0a 22
        E 12 b3 0a 20
        E 12 b3 0a 1f
        E 12 b3 0a 1d
        E 12 b3 0a 1c
        E 12 b3 0a 1a
        E 12 b3 0a 18
        E 12 b3 0a 17
        E 12 b3 0a 15
        E 12 b3 0a 14
        E 12 b3 0a 13
        E 12 b3 0a 11
        E 12 b3 0a 10
        E 12 b3 0a 0e
        E 12 b3 0a 0d
        E 12 b3 0a 0c
        E 12 b3 0a 0b
        E 12 b3 0a 09
        E 12 b3 0a 08
        E 12 b3 0a 07
        E 12 b3 0a 06
        E 12 b3 0a 05
        E 12 b3 0a 05
        E 12 b3 0a 04
        E 12 b3 0a 03
        E 12 b3 0a 02
        E 12 b3 0a 02
        E 12 b3 0a 01
        E 12 b3 0a 01
        E 12 b3 0a 00
        E 12 b3 0a 00
        E 12 b3 0a 00
        E 12 b3 0a 00
        E 12 b3 0a 00
        E 12 b3 0a 00
        E 12 b3 0a 00
        E 12 b3 0a 00
        E 12 b3 0a 00
        E 12 b3 0a 01
        E 12 b3 0a 01
        E 12 b3 0a 02
        E 12 b3 0a 02
        E 12 b3 0a 03
        E 12 b3 0a 03
        E 12 b3 0a 04
        E 12 b3 0a 05
        E 12 b3 0a 06
        E 12 b3 0a 07
        E 12 b3 0a 08
        E 12 b3 0a 09
        E 12 b3 0a 0a
        E 12 b3 0a 0b
        E 12 b3 0a 0c
        E 12 b3 0a 0e
        E 12 b3 0a 0f
        E 12 b3 0a 10
        E 12 b3 0a 12
        E 12 b3 0a 13
        E 12 b3 0a 15
        E 12 b3 0a 16
        E 12 b3 0a 18
        E 12 b3 0a 19
        E 12 b3 0a 1b
        E 12 b3 0a 1c
        E 12 b3 0a 1e
        E 12 b3 0a 20
        E 1 b3 0a 06
        E 1 b3 0a 06
        E 1 b3 0a 07
        E 1 b3 0a 07
        E 1 b3 0a 07
        E 1 b3 0a 07
        E 1 b3 0a 08
        E 1 b3 0a 08
        E 1 b3 0a 08
        E 1 b3 0a 09
        E 1 b3 0a 09
        E 1 b3 0a 09
        E 1 b3 0a 09
        E 1 b3 0a 0a
        E 1 b3 0a 0a
        E 1 b3 0a 0a
        E 1 b3 0a 0a
        E 1 b3 0a 0b
        E 1 b3 0a 0b
        E 1 b3 0a 0b
        E 1 b3 0a 0b
        E 1 b3 0a 0b
        E 1 b3 0a 0c
        E 1 b3 0a 0c
        E 1 b3 0a 0c
        E 1 b3 0a 0c
        E 1 b3 0a 0c
        E 1 b3 0a 0c
        E 1 b3 0a 0c
        E 1 b3 0a 0c
        E 1 b3 0a 0c
        E 1 b3 0a 0c
        E 1 b3 0a 0c
        E 1 b3 0a 0c
        E 1 b3 0a 0c
        E 1 b3 0a 0c
        E 1 b3 0a 0c
        E 1 b3 0a 0c
        E 1 b3 0a 0c
        E 1 b3 0a 0c
        E 1 b3 0a 0c
        E 1 b3 0a 0c
        E 1 b3 0a 0b
        E 1 b3 0a 0b
        E 1 b3 0a 0b
        E 1 b3 0a 0b
        E 1 b3 0a 0b
        E 1 b3 0a 0b
        E 1 b3 0a 0a
        E 1 b3 0a 0a
        E 1 b3 0a 0a
        E 1 b3 0a 0a
        E 1 b3 0a 09
        E 1 b3 0a 09
        E 1 b3 0a 09
        E 1 b3 0a 08
        E 1 b3 0a 08
        E 1 b3 0a 08
        E 1 b3 0a 08
        E 1 b3 0a 07
        E 1 b3 0a 07
        E 1 b3 0a 07
        E 1 b3 0a 06
        E 1 b3 0a 06
        E 1 b3 0a 06
        E 1 b3 0a 05
        E 1 b3 0a 05
        E 1 b3 0a 05
        E 1 b3 0a 04
        E 1 b3 0a 04
        E 1 b3 0a 04
        E 1 b3 0a 04
        E 1 b3 0a 03
        E 1 b3 0a 03
        E 1 b3 0a 03
        E 1 b3 0a 02
        E 1 b3 0a 02
        E 1 b3 0a 02
        E 1 b3 0a 02
        E 1 b3 0a 01
        E 1 b3 0a 01
        E 1 b3 0a 01
        E 1 b3 0a 01
        E 1 b3 0a 01
        E 1 b3 0a 01
        E 1 b3 0a 00
        E 1 b3 0a 00
        E 1 b3 0a 00
        E 1 b3 0a 00
        E 1 b3 0a 00
        E 1 b3 0a 00
        E 1 b3 0a 00
        E 1 b3 0a 00
        E 1 b3 0a 00
        E 1 b3 0a 00
        E 1 b3 0a 00
        E 1 b3 0a 00
        E 1 b3 0a 00
        E 1 b3 0a 00
        E 1 b3 0a 00
        E 1 b3 0a 00
        E 1 b3 0a 00
        E 1 b3 0a 00
        E 1 b3 0a 00
        E 1 b3 0a 00
        E 1 b3 0a 00
        E 1 b3 0a 00
        E 1 b3 0a 01
        E 1 b3 0a 01
        E 1 b3 0a 01
        E 1 b3 0a 01
        E 1 b3 0a 01
        E 1 b3 0a 02
        E 1 b3 0a 02
        E 1 b3 0a 02
        E 1 b3 0a 02
        E 1 b3 0a 03
        E 1 b3 0a 03
        E 1 b3 0a 03
        E 1 b3 0a 03
        E 1 b3 0a 04
        E 1 b3 0a 04
        E 1 b3 0a 04
        E 1 b3 0a 05
        E 1 b3 0a 05
        E 1 b3 0a 05
        E 1 b3 0a 06
        E 1 b3 0a 06
        E 12 b3 0a 19
        E 12 b3 0a 1a
        E 12 b3 0a 1c
        E 12 b3 0a 1d
        E 12 b3 0a 1e
        E 12 b3 0a 1f
        E 12 b3 0a 20
        E 12 b3 0a 22
        E 12 b3 0a 23
        E 12 b3 0a 24
        E 12 b3 0a 25
        E 12 b3 0a 26
        E 12 b3 0a 27
        E 12 b3 0a 28
        E 12 b3 0a 29
        E 12 b3 0a 2a
        E 12 b3 0a 2b
        E 12 b3 0a 2c
        E 12 b3 0a 2d
        E 12 b3 0a 2e
        E 12 b3 0a 2e
        E 12 b3 0a 2f
        E 12 b3 0a 30
        E 12 b3 0a 30
        E 12 b3 0a 30
        E 12 b3 0a 31
        E 12 b3 0a 31
        E 12 b3 0a 32
        E 12 b3 0a 32
        E 12 b3 0a 32
        E 12 b3 0a 32
        E 12 b3 0a 32
        E 12 b3 0a 32
        E 12 b3 0a 32
        E 12 b3 0a 32
        E 12 b3 0a 32
        E 12 b3 0a 32
        E 12 b3 0a 32
        E 12 b3 0a 31
        E 12 b3 0a 31
        E 12 b3 0a 30
        E 12 b3 0a 30
        E 12 b3 0a 2f
        E 12 b3 0a 2e
        E 12 b3 0a 2e
        E 12 b3 0a 2d
        E 12 b3 0a 2c
        E 12 b3 0a 2c
        E 12 b3 0a 2b
        E 12 b3 0a 2a
        E 12 b3 0a 29
        E 12 b3 0a 28
        E 12 b3 0a 27
        E 12 b3 0a 26
        E 12 b3 0a 24
        E 12 b3 0a 23
        E 12 b3 0a 22
        E 12 b3 0a 21
        E 12 b3 0a 20
        E 12 b3 0a 1f
        E 12 b3 0a 1d
        E 12 b3 0a 1c
        E 12 b3 0a 1b
        E 12 b3 0a 1a
        E 12 b3 0a 18
        E 12 b3 0a 17
        E 12 b3 0a 16
        E 12 b3 0a 15
        E 12 b3 0a 13
        E 12 b3 0a 12
        E 12 b3 0a 11
        E 12 b3 0a 10
        E 12 b3 0a 0f
        E 12 b3 0a 0e
        E 12 b3 0a 0c
        E 12 b3 0a 0b
        E 12 b3 0a 0a
        E 12 b3 0a 09
        E 12 b3 0a 08
        E 12 b3 0a 07
        E 12 b3 0a 06
        E 12 b3 0a 06
        E 12 b3 0a 05
        E 12 b3 0a 04
        E 12 b3 0a 04
        E 12 b3 0a 03
        E 12 b3 0a 02
        E 12 b3 0a 02
        E 12 b3 0a 01
        E 12 b3 0a 01
        E 12 b3 0a 00
        E 12 b3 0a 00
        E 12 b3 0a 00
        E 12 b3 0a 00
        E 12 b3 0a 00
        E 12 b3 0a 00
        E 12 b3 0a 00
        E 12 b3 0a 00
        E 12 b3 0a 00
        E 12 b3 0a 00
        E 12 b3 0a 00
        E 12 b3 0a 01
        E 12 b3 0a 01
        E 12 b3 0a 02
        E 12 b3 0a 02
        E 12 b3 0a 02
        E 12 b3 0a 03
        E 12 b3 0a 04
        E 12 b3 0a 04
        E 12 b3 0a 05
        E 12 b3 0a 06
        E 12 b3 0a 07
        E 12 b3 0a 08
        E 12 b3 0a 09
        E 12 b3 0a 0a
        E 12 b3 0a 0b
        E 12 b3 0a 0c
        E 12 b3 0a 0d
        E 12 b3 0a 0e
        E 12 b3 0a 0f
        E 12 b3 0a 10
        E 12 b3 0a 12
        E 12 b3 0a 13
        E 12 b3 0a 14
        E 12 b3 0a 15
        E 12 b3 0a 16
        E 12 b3 0a 18
        E 12 b3 0a 19
        E 1 b3 0a 19
        E 1 b3 0a 1a
        E 1 b3 0a 1c
        E 1 b3 0a 1d
        E 1 b3 0a 1e
        E 1 b3 0a 1f
        E 1 b3 0a 20
        E 1 b3 0a 22
        E 1 b3 0a 23
        E 1 b3 0a 24
        E 1 b3 0a 25
        E 1 b3 0a 26
        E 1 b3 0a 27
        E 1 b3 0a 28
        E 1 b3 0a 29
        E 1 b3 0a 2a
        E 1 b3 0a 2b
        E 1 b3 0a 2c
        E 1 b3 0a 2d
        E 1 b3 0a 2e
        E 1 b3 0a 2e
        E 1 b3 0a 2f
        E 1 b3 0a 30
        E 1 b3 0a 30
        E 1 b3 0a 30
        E 1 b3 0a 31
        E 1 b3 0a 31
        E 1 b3 0a 32
        E 1 b3 0a 32
        E 1 b3 0a 32
        E 1 b3 0a 32
        E 1 b3 0a 32
        E 1 b3 0a 32
        E 1 b3 0a 32
        E 1 b3 0a 32
        E 1 b3 0a 32
        E 1 b3 0a 32
        E 1 b3 0a 32
        E 1 b3 0a 31
        E 1 b3 0a 31
        E 1 b3 0a 30
        E 1 b3 0a 30
        E 1 b3 0a 2f
        E 1 b3 0a 2e
        E 1 b3 0a 2e
        E 1 b3 0a 2d
        E 1 b3 0a 2c
        E 1 b3 0a 2c
        E 1 b3 0a 2b
        E 1 b3 0a 2a
        E 1 b3 0a 29
        E 1 b3 0a 28
        E 1 b3 0a 27
        E 1 b3 0a 26
        E 1 b3 0a 24
        E 1 b3 0a 23
        E 1 b3 0a 22
        E 1 b3 0a 21
        E 1 b3 0a 20
        E 1 b3 0a 1f
        E 1 b3 0a 1d
        E 1 b3 0a 1c
        E 1 b3 0a 1b
        E 1 b3 0a 1a
        E 1 b3 0a 18
        E 1 b3 0a 17
        E 1 b3 0a 16
        E 1 b3 0a 15
        E 1 b3 0a 13
        E 1 b3 0a 12
        E 1 b3 0a 11
        E 1 b3 0a 10
        E 1 b3 0a 0f
        E 1 b3 0a 0e
        E 1 b3 0a 0c
        E 1 b3 0a 0b
        E 1 b3 0a 0a
        E 1 b3 0a 09
        E 1 b3 0a 08
        E 1 b3 0a 07
        E 1 b3 0a 06
        E 1 b3 0a 06
        E 1 b3 0a 05
        E 1 b3 0a 04
        E 1 b3 0a 04
        E 1 b3 0a 03
        E 1 b3 0a 02
        E 1 b3 0a 02
        E 1 b3 0a 01
        E 1 b3 0a 01
        E 1 b3 0a 00
        E 1 b3 0a 00
        E 1 b3 0a 00
        E 1 b3 0a 00
        E 1 b3 0a 00
        E 1 b3 0a 00
        E 1 b3 0a 00
        E 1 b3 0a 00
        E 1 b3 0a 00
        E 1 b3 0a 00
        E 1 b3 0a 00
        E 1 b3 0a 01
        E 1 b3 0a 01
        E 1 b3 0a 02
        E 1 b3 0a 02
        E 1 b3 0a 02
        E 1 b3 0a 03
        E 1 b3 0a 04
        E 1 b3 0a 04
        E 1 b3 0a 05
        E 1 b3 0a 06
        E 1 b3 0a 07
        E 1 b3 0a 08
        E 1 b3 0a 09
        E 1 b3 0a 0a
        E 1 b3 0a 0b
        E 1 b3 0a 0c
        E 1 b3 0a 0d
        E 1 b3 0a 0e
        E 1 b3 0a 0f
        E 1 b3 0a 10
        E 1 b3 0a 12
        E 1 b3 0a 13
        E 1 b3 0a 14
        E 1 b3 0a 15
        E 1 b3 0a 16
        E 1 b3 0a 18
        E 1 b3 0a 19
        E 4 b3 0a 20
        E 4 b3 0a 21
        E 4 b3 0a 23
        E 4 b3 0a 24
        E 4 b3 0a 26
        E 4 b3 0a 27
        E 4 b3 0a 29
        E 4 b3 0a 2a
        E 4 b3 0a 2c
        E 4 b3 0a 2d
        E 4 b3 0a 2f
        E 4 b3 0a 30
        E 4 b3 0a 31
        E 4 b3 0a 33
        E 4 b3 0a 34
        E 4 b3 0a 35
        E 4 b3 0a 36
        E 4 b3 0a 37
        E 4 b3 0a 38
        E 4 b3 0a 39
        E 4 b3 0a 3a
        E 4 b3 0a 3b
        E 4 b3 0a 3c
        E 4 b3 0a 3c
        E 4 b3 0a 3d
        E 4 b3 0a 3d
        E 4 b3 0a 3e
        E 4 b3 0a 3e
        E 4 b3 0a 3f
        E 4 b3 0a 3f
        E 4 b3 0a 3f
        E 4 b3 0a 3f
        E 4 b3 0a 3f
        E 4 b3 0a 3f
        E 4 b3 0a 3f
        E 4 b3 0a 3f
        E 4 b3 0a 3f
        E 4 b3 0a 3e
        E 4 b3 0a 3e
        E 4 b3 0a 3d
        E 4 b3 0a 3d
        E 4 b3 0a 3c
        E 4 b3 0a 3b
        E 4 b3 0a 3a
        E 4 b3 0a 3a
        E 4 b3 0a 39
        E 4 b3 0a 38
        E 4 b3 0a 37
        E 4 b3 0a 36
        E 4 b3 0a 34
        E 4 b3 0a 33
        E 4 b3 0a 32
        E 4 b3 0a 31
        E 4 b3 0a 2f
        E 4 b3 0a 2e
        E 4 b3 0a 2c
        E 4 b3 0a 2b
        E 4 b3 0a 2a
        E 4 b3 0a 28
        E 4 b3 0a 27
        E 4 b3 0a 25
        E 4 b3 0a 23
        E 4 b3 0a 22
        E 4 b3 0a 20
        E 4 b3 0a 1f
        E 4 b3 0a 1d
        E 4 b3 0a 1c
        E 4 b3 0a 1a
        E 4 b3 0a 18
        E 4 b3 0a 17
        E 4 b3 0a 15
        E 4 b3 0a 14
        E 4 b3 0a 13
        E 4 b3 0a 11
        E 4 b3 0a 10
        E 4 b3 0a 0e
        E 4 b3 0a 0d
        E 4 b3 0a 0c
        E 4 b3 0a 0b
        E 4 b3 0a 09
        E 4 b3 0a 08
        E 4 b3 0a 07
        E 4 b3 0a 06
        E 4 b3 0a 05
        E 4 b3 0a 05
        E 4 b3 0a 04
        E 4 b3 0a 03
        E 4 b3 0a 02
        E 4 b3 0a 02
        E 4 b3 0a 01
        E 4 b3 0a 01
        E 4 b3 0a 00
        E 4 b3 0a 00
        E 4 b3 0a 00
        E 4 b3 0a 00
        E 4 b3 0a 00
        E 4 b3 0a 00
        E 4 b3 0a 00
        E 4 b3 0a 00
        E 4 b3 0a 00
        E 4 b3 0a 01
        E 4 b3 0a 01
        E 4 b3 0a 02
        E 4 b3 0a 02
        E 4 b3 0a 03
        E 4 b3 0a 03
        E 4 b3 0a 04
        E 4 b3 0a 05
        E 4 b3 0a 06
        E 4 b3 0a 07
        E 4 b3 0a 08
        E 4 b3 0a 09
        E 4 b3 0a 0a
        E 4 b3 0a 0b
        E 4 b3 0a 0c
        E 4 b3 0a 0e
        E 4 b3 0a 0f
        E 4 b3 0a 10
        E 4 b3 0a 12
        E 4 b3 0a 13
        E 4 b3 0a 15
        E 4 b3 0a 16
        E 4 b3 0a 18
        E 4 b3 0a 19
        E 4 b3 0a 1b
        E 4 b3 0a 1c
        E 4 b3 0a 1e
        E 4 b3 0a 20
        E 2 b3 0a 06
        E 2 b3 0a 06
        E 2 b3 0a 07
        E 2 b3 0a 07
        E 2 b3 0a 07
        E 2 b3 0a 07
        E 2 b3 0a 08
        E 2 b3 0a 08
        E 2 b3 0a 08
        E 2 b3 0a 09
        E 2 b3 0a 09
        E 2 b3 0a 09
        E 2 b3 0a 09
        E 2 b3 0a 0a
        E 2 b3 0a 0a
        E 2 b3 0a 0a
        E 2 b3 0a 0a
        E 2 b3 0a 0b
        E 2 b3 0a 0b
        E 2 b3 0a 0b
        E 2 b3 0a 0b
        E 2 b3 0a 0b
        E 2 b3 0a 0c
        E 2 b3 0a 0c
        E 2 b3 0a 0c
        E 2 b3 0a 0c
        E 2 b3 0a 0c
        E 2 b3 0a 0c
        E 2 b3 0a 0c
        E 2 b3 0a 0c
        E 2 b3 0a 0c
        E 2 b3 0a 0c
        E 2 b3 0a 0c
        E 2 b3 0a 0c
        E 2 b3 0a 0c
        E 2 b3 0a 0c
        E 2 b3 0a 0c
        E 2 b3 0a 0c
        E 2 b3 0a 0c
        E 2 b3 0a 0c
        E 2 b3 0a 0c
        E 2 b3 0a 0c
        E 2 b3 0a 0b
        E 2 b3 0a 0b
        E 2 b3 0a 0b
        E 2 b3 0a 0b
        E 2 b3 0a 0b
        E 2 b3 0a 0b
        E 2 b3 0a 0a
        E 2 b3 0a 0a
        E 2 b3 0a 0a
        E 2 b3 0a 0a
        E 2 b3 0a 09
        E 2 b3 0a 09
        E 2 b3 0a 09
        E 2 b3 0a 08
        E 2 b3 0a 08
        E 2 b3 0a 08
        E 2 b3 0a 08
        E 2 b3 0a 07
        E 2 b3 0a 07
        E 2 b3 0a 07
        E 2 b3 0a 06
        E 2 b3 0a 06
        E 2 b3 0a 06
        E 2 b3 0a 05
        E 2 b3 0a 05
        E 2 b3 0a 05
        E 2 b3 0a 04
        E 2 b3 0a 04
        E 2 b3 0a 04
        E 2 b3 0a 04
        E 2 b3 0a 03
        E 2 b3 0a 03
        E 2 b3 0a 03
        E 2 b3 0a 02
        E 2 b3 0a 02
        E 2 b3 0a 02
        E 2 b3 0a 02
        E 2 b3 0a 01
        E 2 b3 0a 01
        E 2 b3 0a 01
        E 2 b3 0a 01
        E 2 b3 0a 01
        E 2 b3 0a 01
        E 2 b3 0a 00
        E 2 b3 0a 00
        E 2 b3 0a 00
        E 2 b3 0a 00
        E 2 b3 0a 00
        E 2 b3 0a 00
        E 2 b3 0a 00
        E 2 b3 0a 00
        E 2 b3 0a 00
        E 2 b3 0a 00
        E 2 b3 0a 00
        E 2 b3 0a 00
        E 2 b3 0a 00
        E 2 b3 0a 00
        E 2 b3 0a 00
        E 2 b3 0a 00
        E 2 b3 0a 00
        E 2 b3 0a 00
        E 2 b3 0a 00
        E 2 b3 0a 00
        E 2 b3 0a 00
        E 2 b3 0a 00
        E 2 b3 0a 01
        E 2 b3 0a 01
        E 2 b3 0a 01
        E 2 b3 0a 01
        E 2 b3 0a 01
        E 2 b3 0a 02
        E 2 b3 0a 02
        E 2 b3 0a 02
        E 2 b3 0a 02
        E 2 b3 0a 03
        E 2 b3 0a 03
        E 2 b3 0a 03
        E 2 b3 0a 03
        E 2 b3 0a 04
        E 2 b3 0a 04
        E 2 b3 0a 04
        E 2 b3 0a 05
        E 2 b3 0a 05
        E 2 b3 0a 05
        E 2 b3 0a 06
        E 2 b3 0a 06
        E 82 b3 0a 19
        E 82 b3 0a 1a
        E 82 b3 0a 1c
        E 82 b3 0a 1d
        E 82 b3 0a 1e
        E 82 b3 0a 1f
        E 82 b3 0a 20
        E 82 b3 0a 22
        E 82 b3 0a 23
        E 82 b3 0a 24
        E 82 b3 0a 25
        E 82 b3 0a 26
        E 82 b3 0a 27
        E 82 b3 0a 28
        E 82 b3 0a 29
        E 82 b3 0a 2a
        E 82 b3 0a 2b
        E 82 b3 0a 2c
        E 82 b3 0a 2d
        E 82 b3 0a 2e
        E 82 b3 0a 2e
        E 82 b3 0a 2f
        E 82 b3 0a 30
        E 82 b3 0a 30
        E 82 b3 0a 30
        E 82 b3 0a 31
        E 82 b3 0a 31
        E 82 b3 0a 32
        E 82 b3 0a 32
        E 82 b3 0a 32
        E 82 b3 0a 32
        E 82 b3 0a 32
        E 82 b3 0a 32
        E 82 b3 0a 32
        E 82 b3 0a 32
        E 82 b3 0a 32
        E 82 b3 0a 32
        E 82 b3 0a 32
        E 82 b3 0a 31
        E 82 b3 0a 31
        E 82 b3 0a 30
        E 82 b3 0a 30
        E 82 b3 0a 2f
        E 82 b3 0a 2e
        E 82 b3 0a 2e
        E 82 b3 0a 2d
        E 82 b3 0a 2c
        E 82 b3 0a 2c
        E 82 b3 0a 2b
        E 82 b3 0a 2a
        E 82 b3 0a 29
        E 82 b3 0a 28
        E 82 b3 0a 27
        E 82 b3 0a 26
        E 82 b3 0a 24
        E 82 b3 0a 23
        E 82 b3 0a 22
        E 82 b3 0a 21
        E 82 b3 0a 20
        E 82 b3 0a 1f
        E 82 b3 0a 1d
        E 82 b3 0a 1c
        E 82 b3 0a 1b
        E 82 b3 0a 1a
        E 82 b3 0a 18
        E 82 b3 0a 17
        E 82 b3 0a 16
        E 82 b3 0a 15
        E 82 b3 0a 13
        E 82 b3 0a 12
        E 82 b3 0a 11
        E 82 b3 0a 10
        E 82 b3 0a 0f
        E 82 b3 0a 0e
        E 82 b3 0a 0c
        E 82 b3 0a 0b
        E 82 b3 0a 0a
        E 82 b3 0a 09
        E 82 b3 0a 08
        E 82 b3 0a 07
        E 82 b3 0a 06
        E 82 b3 0a 06
        E 82 b3 0a 05
        E 82 b3 0a 04
        E 82 b3 0a 04
        E 82 b3 0a 03
        E 82 b3 0a 02
        E 82 b3 0a 02
        E 82 b3 0a 01
        E 82 b3 0a 01
        E 82 b3 0a 00
        E 82 b3 0a 00
        E 82 b3 0a 00
        E 82 b3 0a 00
        E 82 b3 0a 00
        E 82 b3 0a 00
        E 82 b3 0a 00
        E 82 b3 0a 00
        E 82 b3 0a 00
        E 82 b3 0a 00
        E 82 b3 0a 00
        E 82 b3 0a 01
        E 82 b3 0a 01
        E 82 b3 0a 02
        E 82 b3 0a 02
        E 82 b3 0a 02
        E 82 b3 0a 03
        E 82 b3 0a 04
        E 82 b3 0a 04
        E 82 b3 0a 05
        E 82 b3 0a 06
        E 82 b3 0a 07
        E 82 b3 0a 08
        E 82 b3 0a 09
        E 82 b3 0a 0a
        E 82 b3 0a 0b
        E 82 b3 0a 0c
        E 82 b3 0a 0d
        E 82 b3 0a 0e
        E 82 b3 0a 0f
        E 82 b3 0a 10
        E 82 b3 0a 12
        E 82 b3 0a 13
        E 82 b3 0a 14
        E 82 b3 0a 15
        E 82 b3 0a 16
        E 82 b3 0a 18
        E 82 b3 0a 19
        E 8 b3 0a 19
        E 8 b3 0a 1a
        E 8 b3 0a 1c
        E 8 b3 0a 1d
        E 8 b3 0a 1e
        E 8 b3 0a 1f
        E 8 b3 0a 20
        E 8 b3 0a 22
        E 8 b3 0a 23
        E 8 b3 0a 24
        E 8 b3 0a 25
        E 8 b3 0a 26
        E 8 b3 0a 27
        E 8 b3 0a 28
        E 8 b3 0a 29
        E 8 b3 0a 2a
        E 8 b3 0a 2b
        E 8 b3 0a 2c
        E 8 b3 0a 2d
        E 8 b3 0a 2e
        E 8 b3 0a 2e
        E 8 b3 0a 2f
        E 8 b3 0a 30
        E 8 b3 0a 30
        E 8 b3 0a 30
        E 8 b3 0a 31
        E 8 b3 0a 31
        E 8 b3 0a 32
        E 8 b3 0a 32
        E 8 b3 0a 32
        E 8 b3 0a 32
        E 8 b3 0a 32
        E 8 b3 0a 32
        E 8 b3 0a 32
        E 8 b3 0a 32
        E 8 b3 0a 32
        E 8 b3 0a 32
        E 8 b3 0a 32
        E 8 b3 0a 31
        E 8 b3 0a 31
        E 8 b3 0a 30
        E 8 b3 0a 30
        E 8 b3 0a 2f
        E 8 b3 0a 2e
        E 8 b3 0a 2e
        E 8 b3 0a 2d
        E 8 b3 0a 2c
        E 8 b3 0a 2c
        E 8 b3 0a 2b
        E 8 b3 0a 2a
        E 8 b3 0a 29
        E 8 b3 0a 28
        E 8 b3 0a 27
        E 8 b3 0a 26
        E 8 b3 0a 24
        E 8 b3 0a 23
        E 8 b3 0a 22
        E 8 b3 0a 21
        E 8 b3 0a 20
        E 8 b3 0a 1f
        E 8 b3 0a 1d
        E 8 b3 0a 1c
        E 8 b3 0a 1b
        E 8 b3 0a 1a
        E 8 b3 0a 18
        E 8 b3 0a 17
        E 8 b3 0a 16
        E 8 b3 0a 15
        E 8 b3 0a 13
        E 8 b3 0a 12
        E 8 b3 0a 11
        E 8 b3 0a 10
        E 8 b3 0a 0f
        E 8 b3 0a 0e
        E 8 b3 0a 0c
        E 8 b3 0a 0b
        E 8 b3 0a 0a
        E 8 b3 0a 09
        E 8 b3 0a 08
        E 8 b3 0a 07
        E 8 b3 0a 06
        E 8 b3 0a 06
        E 8 b3 0a 05
        E 8 b3 0a 04
        E 8 b3 0a 04
        E 8 b3 0a 03
        E 8 b3 0a 02
        E 8 b3 0a 02
        E 8 b3 0a 01
        E 8 b3 0a 01
        E 8 b3 0a 00
        E 8 b3 0a 00
        E 8 b3 0a 00
        E 8 b3 0a 00
        E 8 b3 0a 00
        E 8 b3 0a 00
        E 8 b3 0a 00
        E 8 b3 0a 00
        E 8 b3 0a 00
        E 8 b3 0a 00
        E 8 b3 0a 00
        E 8 b3 0a 01
        E 8 b3 0a 01
        E 8 b3 0a 02
        E 8 b3 0a 02
        E 8 b3 0a 02
        E 8 b3 0a 03
        E 8 b3 0a 04
        E 8 b3 0a 04
        E 8 b3 0a 05
        E 8 b3 0a 06
        E 8 b3 0a 07
        E 8 b3 0a 08
        E 8 b3 0a 09
        E 8 b3 0a 0a
        E 8 b3 0a 0b
        E 8 b3 0a 0c
        E 8 b3 0a 0d
        E 8 b3 0a 0e
        E 8 b3 0a 0f
        E 8 b3 0a 10
        E 8 b3 0a 12
        E 8 b3 0a 13
        E 8 b3 0a 14
        E 8 b3 0a 15
        E 8 b3 0a 16
        E 8 b3 0a 18
        E 8 b3 0a 19
        E 34 b3 0a 20
        E 34 b3 0a 21
        E 34 b3 0a 23
        E 34 b3 0a 24
        E 34 b3 0a 26
        E 34 b3 0a 27
        E 34 b3 0a 29
        E 34 b3 0a 2a
        E 34 b3 0a 2c
        E 34 b3 0a 2d
        E 34 b3 0a 2f
        E 34 b3 0a 30
        E 34 b3 0a 31
        E 34 b3 0a 33
        E 34 b3 0a 34
        E 34 b3 0a 35
        E 34 b3 0a 36
        E 34 b3 0a 37
        E 34 b3 0a 38
        E 34 b3 0a 39
        E 34 b3 0a 3a
        E 34 b3 0a 3b
        E 34 b3 0a 3c
        E 34 b3 0a 3c
        E 34 b3 0a 3d
        E 34 b3 0a 3d
        E 34 b3 0a 3e
        E 34 b3 0a 3e
        E 34 b3 0a 3f
        E 34 b3 0a 3f
        E 34 b3 0a 3f
        E 34 b3 0a 3f
        E 34 b3 0a 3f
        E 34 b3 0a 3f
        E 34 b3 0a 3f
        E 34 b3 0a 3f
        E 34 b3 0a 3f
        E 34 b3 0a 3e
        E 34 b3 0a 3e
        E 34 b3 0a 3d
        E 34 b3 0a 3d
        E 34 b3 0a 3c
        E 34 b3 0a 3b
        E 34 b3 0a 3a
        E 34 b3 0a 3a
        E 34 b3 0a 39
        E 34 b3 0a 38
        E 34 b3 0a 37
        E 34 b3 0a 36
        E 34 b3 0a 34
        E 34 b3 0a 33
        E 34 b3 0a 32
        E 34 b3 0a 31
        E 34 b3 0a 2f
        E 34 b3 0a 2e
        E 34 b3 0a 2c
        E 34 b3 0a 2b
        E 34 b3 0a 2a
        E 34 b3 0a 28
        E 34 b3 0a 27
        E 34 b3 0a 25
        E 34 b3 0a 23
        E 34 b3 0a 22
        E 34 b3 0a 20
        E 34 b3 0a 1f
        E 34 b3 0a 1d
        E 34 b3 0a 1c
        E 34 b3 0a 1a
        E 34 b3 0a 18
        E 34 b3 0a 17
        E 34 b3 0a 15
        E 34 b3 0a 14
        E 34 b3 0a 13
        E 34 b3 0a 11
        E 34 b3 0a 10
        E 34 b3 0a 0e
        E 34 b3 0a 0d
        E 34 b3 0a 0c
        E 34 b3 0a 0b
        E 34 b3 0a 09
        E 34 b3 0a 08
        E 34 b3 0a 07
        E 34 b3 0a 06
        E 34 b3 0a 05
        E 34 b3 0a 05
        E 34 b3 0a 04
        E 34 b3 0a 03
        E 34 b3 0a 02
        E 34 b3 0a 02
        E 34 b3 0a 01
        E 34 b3 0a 01
        E 34 b3 0a 00
        E 34 b3 0a 00
        E 34 b3 0a 00
        E 34 b3 0a 00
        E 34 b3 0a 00
        E 34 b3 0a 00
        E 34 b3 0a 00
        E 34 b3 0a 00
        E 34 b3 0a 00
        E 34 b3 0a 01
        E 34 b3 0a 01
        E 34 b3 0a 02
        E 34 b3 0a 02
        E 34 b3 0a 03
        E 34 b3 0a 03
        E 34 b3 0a 04
        E 34 b3 0a 05
        E 34 b3 0a 06
        E 34 b3 0a 07
        E 34 b3 0a 08
        E 34 b3 0a 09
        E 34 b3 0a 0a
        E 34 b3 0a 0b
        E 34 b3 0a 0c
        E 34 b3 0a 0e
        E 34 b3 0a 0f
        E 34 b3 0a 10
        E 34 b3 0a 12
        E 34 b3 0a 13
        E 34 b3 0a 15
        E 34 b3 0a 16
        E 34 b3 0a 18
        E 34 b3 0a 19
        E 34 b3 0a 1b
        E 34 b3 0a 1c
        E 34 b3 0a 1e
        E 34 b3 0a 20
        E 3 b3 0a 06
        E 3 b3 0a 06
        E 3 b3 0a 07
        E 3 b3 0a 07
        E 3 b3 0a 07
        E 3 b3 0a 07
        E 3 b3 0a 08
        E 3 b3 0a 08
        E 3 b3 0a 08
        E 3 b3 0a 09
        E 3 b3 0a 09
        E 3 b3 0a 09
        E 3 b3 0a 09
        E 3 b3 0a 0a
        E 3 b3 0a 0a
        E 3 b3 0a 0a
        E 3 b3 0a 0a
        E 3 b3 0a 0b
        E 3 b3 0a 0b
        E 3 b3 0a 0b
        E 3 b3 0a 0b
        E 3 b3 0a 0b
        E 3 b3 0a 0c
        E 3 b3 0a 0c
        E 3 b3 0a 0c
        E 3 b3 0a 0c
        E 3 b3 0a 0c
        E 3 b3 0a 0c
        E 3 b3 0a 0c
        E 3 b3 0a 0c
        E 3 b3 0a 0c
        E 3 b3 0a 0c
        E 3 b3 0a 0c
        E 3 b3 0a 0c
        E 3 b3 0a 0c
        E 3 b3 0a 0c
        E 3 b3 0a 0c
        E 3 b3 0a 0c
        E 3 b3 0a 0c
        E 3 b3 0a 0c
        E 3 b3 0a 0c
        E 3 b3 0a 0c
        E 3 b3 0a 0b
        E 3 b3 0a 0b
        E 3 b3 0a 0b
        E 3 b3 0a 0b
        E 3 b3 0a 0b
        E 3 b3 0a 0b
        E 3 b3 0a 0a
        E 3 b3 0a 0a
        E 3 b3 0a 0a
        E 3 b3 0a 0a
        E 3 b3 0a 09
        E 3 b3 0a 09
        E 3 b3 0a 09
        E 3 b3 0a 08
        E 3 b3 0a 08
        E 3 b3 0a 08
        E 3 b3 0a 08
        E 3 b3 0a 07
        E 3 b3 0a 07
        E 3 b3 0a 07
        E 3 b3 0a 06
        E 3 b3 0a 06
        E 3 b3 0a 06
        E 3 b3 0a 05
        E 3 b3 0a 05
        E 3 b3 0a 05
        E 3 b3 0a 04
        E 3 b3 0a 04
        E 3 b3 0a 04
        E 3 b3 0a 04
        E 3 b3 0a 03
        E 3 b3 0a 03
        E 3 b3 0a 03
        E 3 b3 0a 02
        E 3 b3 0a 02
        E 3 b3 0a 02
        E 3 b3 0a 02
        E 3 b3 0a 01
        E 3 b3 0a 01
        E 3 b3 0a 01
        E 3 b3 0a 01
        E 3 b3 0a 01
        E 3 b3 0a 01
        E 3 b3 0a 00
        E 3 b3 0a 00
        E 3 b3 0a 00
        E 3 b3 0a 00
        E 3 b3 0a 00
        E 3 b3 0a 00
        E 3 b3 0a 00
        E 3 b3 0a 00
        E 3 b3 0a 00
        E 3 b3 0a 00
        E 3 b3 0a 00
        E 3 b3 0a 00
        E 3 b3 0a 00
        E 3 b3 0a 00
        E 3 b3 0a 00
        E 3 b3 0a 00
        E 3 b3 0a 00
        E 3 b3 0a 00
        E 3 b3 0a 00
        E 3 b3 0a 00
        E 3 b3 0a 00
        E 3 b3 0a 00
        E 3 b3 0a 01
        E 3 b3 0a 01
        E 3 b3 0a 01
        E 3 b3 0a 01
        E 3 b3 0a 01
        E 3 b3 0a 02
        E 3 b3 0a 02
        E 3 b3 0a 02
        E 3 b3 0a 02
        E 3 b3 0a 03
        E 3 b3 0a 03
        E 3 b3 0a 03
        E 3 b3 0a 03
        E 3 b3 0a 04
        E 3 b3 0a 04
        E 3 b3 0a 04
        E 3 b3 0a 05
        E 3 b3 0a 05
        E 3 b3 0a 05
        E 3 b3 0a 06
        E 3 b3 0a 06
        E 34 b3 0a 0e
        E 34 b3 0a 30
        E 34 b3 0a 1f
        E 34 b3 0a 05
        E 34 b3 0a 2d
        E 34 b3 0a 28
        E 34 b3 0a 06
        E 34 b3 0a 05
        E 34 b3 0a 1e
        E 34 b3 0a 3c
        E 34 b3 0a 32
        E 34 b3 0a 37
        E 34 b3 0a 27
        E 34 b3 0a 07
        E 34 b3 0a 0c
        E 34 b3 0a 2b
        E 34 b3 0a 23
        E 34 b3 0a 12
        E 34 b3 0a 0c
        E 34 b3 0a 11
        E 34 b3 0a 31
        E 34 b3 0a 1d
        E 34 b3 0a 0f
        E 34 b3 0a 24
        E 34 b3 0a 3f
        E 34 b3 0a 00
        E 34 b3 0a 08
        E 34 b3 0a 1a
        E 34 b3 0a 15
        E 34 b3 0a 34
        E 34 b3 0a 0d
        E 34 b3 0a 04
        E 34 b3 0a 0a
        E 34 b3 0a 0b
        E 34 b3 0a 39
        E 34 b3 0a 10
        E 34 b3 0a 00
        E 34 b3 0a 2f
        E 34 b3 0a 16
        E 34 b3 0a 0d
        E 34 b3 0a 19
        E 34 b3 0a 10
        E 34 b3 0a 36
        E 34 b3 0a 35
        E 34 b3 0a 3f
        E 34 b3 0a 35
        E 34 b3 0a 1b
        E 34 b3 0a 3b
        E 34 b3 0a 2d
        E 34 b3 0a 07
        E 34 b3 0a 1c
        E 34 b3 0a 22
        E 34 b3 0a 3c
        E 34 b3 0a 30
        E 34 b3 0a 22
        E 34 b3 0a 23
        E 34 b3 0a 03
        E 34 b3 0a 06
        E 34 b3 0a 3a
        E 34 b3 0a 33
        E 34 b3 0a 1b
        E 34 b3 0a 14
        E 34 b3 0a 08
        E 34 b3 0a 1c
        E 34 b3 0a 13
        E 34 b3 0a 0f
        E 34 b3 0a 18
        E 34 b3 0a 21
        E 34 b3 0a 26
        E 34 b3 0a 29
        E 34 b3 0a 0a
        E 34 b3 0a 26
        E 34 b3 0a 38
        E 34 b3 0a 20
        E 34 b3 0a 25
        E 34 b3 0a 01
        E 34 b3 0a 04
        E 34 b3 0a 3e
        E 34 b3 0a 29
        E 34 b3 0a 0b
        E 34 b3 0a 3a
        E 34 b3 0a 14
        E 34 b3 0a 18
        E 34 b3 0a 1f
        E 34 b3 0a 19
        E 34 b3 0a 2a
        E 34 b3 0a 33
        E 34 b3 0a 12
        E 34 b3 0a 24
        E 34 b3 0a 0e
        E 34 b3 0a 39
        E 34 b3 0a 34
        E 34 b3 0a 1d
        E 34 b3 0a 17
        E 34 b3 0a 32
        E 34 b3 0a 17
        E 34 b3 0a 2c
        E 34 b3 0a 09
        E 34 b3 0a 01
        E 34 b3 0a 15
        E 34 b3 0a 20
        E 34 b3 0a 36
        E 34 b3 0a 31
        E 34 b3 0a 02
        E 34 b3 0a 37
        E 34 b3 0a 2e
        E 34 b3 0a 03
        E 34 b3 0a 13
        E 34 b3 0a 25
        E 34 b3 0a 2f
        E 34 b3 0a 3d
        E 34 b3 0a 27
        E 34 b3 0a 1a
        E 34 b3 0a 11
        E 34 b3 0a 2c
        E 34 b3 0a 2e
        E 34 b3 0a 38
        E 34 b3 0a 3e
        E 34 b3 0a 1e
        E 34 b3 0a 28
        E 34 b3 0a 2b
        E 34 b3 0a 21
        E 34 b3 0a 3b
        E 34 b3 0a 09
        E 34 b3 0a 16
        E 34 b3 0a 2a
        E 17 b3 0a 02
        E 17 b3 0a 09
        E 17 b3 0a 06
        E 17 b3 0a 01
        E 17 b3 0a 09
        E 17 b3 0a 08
        E 17 b3 0a 01
        E 17 b3 0a 01
        E 17 b3 0a 06
        E 17 b3 0a 0c
        E 17 b3 0a 0a
        E 17 b3 0a 0b
        E 17 b3 0a 07
        E 17 b3 0a 01
        E 17 b3 0a 02
        E 17 b3 0a 08
        E 17 b3 0a 07
        E 17 b3 0a 03
        E 17 b3 0a 02
        E 17 b3 0a 03
        E 17 b3 0a 09
        E 17 b3 0a 05
        E 17 b3 0a 03
        E 17 b3 0a 07
        E 17 b3 0a 0c
        E 17 b3 0a 00
        E 17 b3 0a 01
        E 17 b3 0a 05
        E 17 b3 0a 04
        E 17 b3 0a 0a
        E 17 b3 0a 02
        E 17 b3 0a 00
        E 17 b3 0a 02
        E 17 b3 0a 02
        E 17 b3 0a 0b
        E 17 b3 0a 03
        E 17 b3 0a 00
        E 17 b3 0a 09
        E 17 b3 0a 04
        E 17 b3 0a 02
        E 17 b3 0a 05
        E 17 b3 0a 03
        E 17 b3 0a 0a
        E 17 b3 0a 0a
        E 17 b3 0a 0c
        E 17 b3 0a 0a
        E 17 b3 0a 05
        E 17 b3 0a 0b
        E 17 b3 0a 09
        E 17 b3 0a 01
        E 17 b3 0a 05
        E 17 b3 0a 06
        E 17 b3 0a 0c
        E 17 b3 0a 09
        E 17 b3 0a 06
        E 17 b3 0a 07
        E 17 b3 0a 00
        E 17 b3 0a 01
        E 17 b3 0a 0b
        E 17 b3 0a 0a
        E 17 b3 0a 05
        E 17 b3 0a 04
        E 17 b3 0a 01
        E 17 b3 0a 05
        E 17 b3 0a 03
        E 17 b3 0a 03
        E 17 b3 0a 04
        E 17 b3 0a 06
        E 17 b3 0a 07
        E 17 b3 0a 08
        E 17 b3 0a 02
        E 17 b3 0a 07
        E 17 b3 0a 0b
        E 17 b3 0a 06
        E 17 b3 0a 07
        E 17 b3 0a 00
        E 17 b3 0a 00
        E 17 b3 0a 0c
        E 17 b3 0a 08
        E 17 b3 0a 02
        E 17 b3 0a 0b
        E 17 b3 0a 04
        E 17 b3 0a 04
        E 17 b3 0a 06
        E 17 b3 0a 05
        E 17 b3 0a 08
        E 17 b3 0a 0a
        E 17 b3 0a 03
        E 17 b3 0a 07
        E 17 b3 0a 02
        E 17 b3 0a 0b
        E 17 b3 0a 0a
        E 17 b3 0a 05
        E 17 b3 0a 04
        E 17 b3 0a 0a
        E 17 b3 0a 04
        E 17 b3 0a 08
        E 17 b3 0a 01
        E 17 b3 0a 00
        E 17 b3 0a 04
        E 17 b3 0a 06
        E 17 b3 0a 0a
        E 17 b3 0a 09
        E 17 b3 0a 00
        E 17 b3 0a 0b
        E 17 b3 0a 09
        E 17 b3 0a 00
        E 17 b3 0a 03
        E 17 b3 0a 07
        E 17 b3 0a 09
        E 17 b3 0a 0c
        E 17 b3 0a 07
        E 17 b3 0a 05
        E 17 b3 0a 03
        E 17 b3 0a 08
        E 17 b3 0a 09
        E 17 b3 0a 0b
        E 17 b3 0a 0c
        E 17 b3 0a 06
        E 17 b3 0a 08
        E 17 b3 0a 08
        E 17 b3 0a 06
        E 17 b3 0a 0b
        E 17 b3 0a 01
        E 17 b3 0a 04
        E 17 b3 0a 08
        E 85 b3 0a 0e
        E 85 b3 0a 30
        E 85 b3 0a 1f
        E 85 b3 0a 05
        E 85 b3 0a 2d
        E 85 b3 0a 28
        E 85 b3 0a 06
        E 85 b3 0a 05
        E 85 b3 0a 1e
        E 85 b3 0a 3c
        E 85 b3 0a 32
        E 85 b3 0a 37
        E 85 b3 0a 27
        E 85 b3 0a 07
        E 85 b3 0a 0c
        E 85 b3 0a 2b
        E 85 b3 0a 23
        E 85 b3 0a 12
        E 85 b3 0a 0c
        E 85 b3 0a 11
        E 85 b3 0a 31
        E 85 b3 0a 1d
        E 85 b3 0a 0f
        E 85 b3 0a 24
        E 85 b3 0a 3f
        E 85 b3 0a 00
        E 85 b3 0a 08
        E 85 b3 0a 1a
        E 85 b3 0a 15
        E 85 b3 0a 34
        E 85 b3 0a 0d
        E 85 b3 0a 04
        E 85 b3 0a 0a
        E 85 b3 0a 0b
        E 85 b3 0a 39
        E 85 b3 0a 10
        E 85 b3 0a 00
        E 85 b3 0a 2f
        E 85 b3 0a 16
        E 85 b3 0a 0d
        E 85 b3 0a 19
        E 85 b3 0a 10
        E 85 b3 0a 36
        E 85 b3 0a 35
        E 85 b3 0a 3f
        E 85 b3 0a 35
        E 85 b3 0a 1b
        E 85 b3 0a 3b
        E 85 b3 0a 2d
        E 85 b3 0a 07
        E 85 b3 0a 1c
        E 85 b3 0a 22
        E 85 b3 0a 3c
        E 85 b3 0a 30
        E 85 b3 0a 22
        E 85 b3 0a 23
        E 85 b3 0a 03
        E 85 b3 0a 06
        E 85 b3 0a 3a
        E 85 b3 0a 33
        E 85 b3 0a 1b
        E 85 b3 0a 14
        E 85 b3 0a 08
        E 85 b3 0a 1c
        E 85 b3 0a 13
        E 85 b3 0a 0f
        E 85 b3 0a 18
        E 85 b3 0a 21
        E 85 b3 0a 26
        E 85 b3 0a 29
        E 85 b3 0a 0a
        E 85 b3 0a 26
        E 85 b3 0a 38
        E 85 b3 0a 20
        E 85 b3 0a 25
        E 85 b3 0a 01
        E 85 b3 0a 04
        E 85 b3 0a 3e
        E 85 b3 0a 29
        E 85 b3 0a 0b
        E 85 b3 0a 3a
        E 85 b3 0a 14
        E 85 b3 0a 18
        E 85 b3 0a 1f
        E 85 b3 0a 19
        E 85 b3 0a 2a
        E 85 b3 0a 33
        E 85 b3 0a 12
        E 85 b3 0a 24
        E 85 b3 0a 0e
        E 85 b3 0a 39
        E 85 b3 0a 34
        E 85 b3 0a 1d
        E 85 b3 0a 17
        E 85 b3 0a 32
        E 85 b3 0a 17
        E 85 b3 0a 2c
        E 85 b3 0a 09
        E 85 b3 0a 01
        E 85 b3 0a 15
        E 85 b3 0a 20
        E 85 b3 0a 36
        E 85 b3 0a 31
        E 85 b3 0a 02
        E 85 b3 0a 37
        E 85 b3 0a 2e
        E 85 b3 0a 03
        E 85 b3 0a 13
        E 85 b3 0a 25
        E 85 b3 0a 2f
        E 85 b3 0a 3d
        E 85 b3 0a 27
        E 85 b3 0a 1a
        E 85 b3 0a 11
        E 85 b3 0a 2c
        E 85 b3 0a 2e
        E 85 b3 0a 38
        E 85 b3 0a 3e
        E 85 b3 0a 1e
        E 85 b3 0a 28
        E 85 b3 0a 2b
        E 85 b3 0a 21
        E 85 b3 0a 3b
        E 85 b3 0a 09
        E 85 b3 0a 16
        E 85 b3 0a 2a
        E 8 b3 0a 02
        E 8 b3 0a 09
        E 8 b3 0a 06
        E 8 b3 0a 01
        E 8 b3 0a 09
        E 8 b3 0a 08
        E 8 b3 0a 01
        E 8 b3 0a 01
        E 8 b3 0a 06
        E 8 b3 0a 0c
        E 8 b3 0a 0a
        E 8 b3 0a 0b
        E 8 b3 0a 07
        E 8 b3 0a 01
        E 8 b3 0a 02
        E 8 b3 0a 08
        E 8 b3 0a 07
        E 8 b3 0a 03
        E 8 b3 0a 02
        E 8 b3 0a 03
        E 8 b3 0a 09
        E 8 b3 0a 05
        E 8 b3 0a 03
        E 8 b3 0a 07
        E 8 b3 0a 0c
        E 8 b3 0a 00
        E 8 b3 0a 01
        E 8 b3 0a 05
        E 8 b3 0a 04
        E 8 b3 0a 0a
        E 8 b3 0a 02
        E 8 b3 0a 00
        E 8 b3 0a 02
        E 8 b3 0a 02
        E 8 b3 0a 0b
        E 8 b3 0a 03
        E 8 b3 0a 00
        E 8 b3 0a 09
        E 8 b3 0a 04
        E 8 b3 0a 02
        E 8 b3 0a 05
        E 8 b3 0a 03
        E 8 b3 0a 0a
        E 8 b3 0a 0a
        E 8 b3 0a 0c
        E 8 b3 0a 0a
        E 8 b3 0a 05
        E 8 b3 0a 0b
        E 8 b3 0a 09
        E 8 b3 0a 01
        E 8 b3 0a 05
        E 8 b3 0a 06
        E 8 b3 0a 0c
        E 8 b3 0a 09
        E 8 b3 0a 06
        E 8 b3 0a 07
        E 8 b3 0a 00
        E 8 b3 0a 01
        E 8 b3 0a 0b
        E 8 b3 0a 0a
        E 8 b3 0a 05
        E 8 b3 0a 04
        E 8 b3 0a 01
        E 8 b3 0a 05
        E 8 b3 0a 03
        E 8 b3 0a 03
        E 8 b3 0a 04
        E 8 b3 0a 06
        E 8 b3 0a 07
        E 8 b3 0a 08
        E 8 b3 0a 02
        E 8 b3 0a 07
        E 8 b3 0a 0b
        E 8 b3 0a 06
        E 8 b3 0a 07
        E 8 b3 0a 00
        E 8 b3 0a 00
        E 8 b3 0a 0c
        E 8 b3 0a 08
        E 8 b3 0a 02
        E 8 b3 0a 0b
        E 8 b3 0a 04
        E 8 b3 0a 04
        E 8 b3 0a 06
        E 8 b3 0a 05
        E 8 b3 0a 08
        E 8 b3 0a 0a
        E 8 b3 0a 03
        E 8 b3 0a 07
        E 8 b3 0a 02
        E 8 b3 0a 0b
        E 8 b3 0a 0a
        E 8 b3 0a 05
        E 8 b3 0a 04
        E 8 b3 0a 0a
        E 8 b3 0a 04
        E 8 b3 0a 08
        E 8 b3 0a 01
        E 8 b3 0a 00
        E 8 b3 0a 04
        E 8 b3 0a 06
        E 8 b3 0a 0a
        E 8 b3 0a 09
        E 8 b3 0a 00
        E 8 b3 0a 0b
        E 8 b3 0a 09
        E 8 b3 0a 00
        E 8 b3 0a 03
        E 8 b3 0a 07
        E 8 b3 0a 09
        E 8 b3 0a 0c
        E 8 b3 0a 07
        E 8 b3 0a 05
        E 8 b3 0a 03
        E 8 b3 0a 08
        E 8 b3 0a 09
        E 8 b3 0a 0b
        E 8 b3 0a 0c
        E 8 b3 0a 06
        E 8 b3 0a 08
        E 8 b3 0a 08
        E 8 b3 0a 06
        E 8 b3 0a 0b
        E 8 b3 0a 01
        E 8 b3 0a 04
        E 8 b3 0a 08
        E 85 b3 0a 0b
        E 85 b3 0a 26
        E 85 b3 0a 19
        E 85 b3 0a 04
        E 85 b3 0a 24
        E 85 b3 0a 20
        E 85 b3 0a 04
        E 85 b3 0a 04
        E 85 b3 0a 18
        E 85 b3 0a 30
        E 85 b3 0a 28
        E 85 b3 0a 2c
        E 85 b3 0a 1f
        E 85 b3 0a 05
        E 85 b3 0a 09
        E 85 b3 0a 22
        E 85 b3 0a 1c
        E 85 b3 0a 0e
        E 85 b3 0a 0a
        E 85 b3 0a 0d
        E 85 b3 0a 27
        E 85 b3 0a 17
        E 85 b3 0a 0c
        E 85 b3 0a 1d
        E 85 b3 0a 32
        E 85 b3 0a 00
        E 85 b3 0a 06
        E 85 b3 0a 14
        E 85 b3 0a 11
        E 85 b3 0a 29
        E 85 b3 0a 0a
        E 85 b3 0a 03
        E 85 b3 0a 08
        E 85 b3 0a 08
        E 85 b3 0a 2e
        E 85 b3 0a 0c
        E 85 b3 0a 00
        E 85 b3 0a 25
        E 85 b3 0a 11
        E 85 b3 0a 0a
        E 85 b3 0a 14
        E 85 b3 0a 0d
        E 85 b3 0a 2b
        E 85 b3 0a 2a
        E 85 b3 0a 32
        E 85 b3 0a 2a
        E 85 b3 0a 16
        E 85 b3 0a 2f
        E 85 b3 0a 24
        E 85 b3 0a 06
        E 85 b3 0a 16
        E 85 b3 0a 1b
        E 85 b3 0a 30
        E 85 b3 0a 26
        E 85 b3 0a 1b
        E 85 b3 0a 1c
        E 85 b3 0a 02
        E 85 b3 0a 05
        E 85 b3 0a 2e
        E 85 b3 0a 28
        E 85 b3 0a 15
        E 85 b3 0a 10
        E 85 b3 0a 06
        E 85 b3 0a 16
        E 85 b3 0a 0f
        E 85 b3 0a 0c
        E 85 b3 0a 13
        E 85 b3 0a 1a
        E 85 b3 0a 1e
        E 85 b3 0a 20
        E 85 b3 0a 08
        E 85 b3 0a 1e
        E 85 b3 0a 2d
        E 85 b3 0a 1a
        E 85 b3 0a 1d
        E 85 b3 0a 01
        E 85 b3 0a 03
        E 85 b3 0a 32
        E 85 b3 0a 21
        E 85 b3 0a 09
        E 85 b3 0a 2e
        E 85 b3 0a 10
        E 85 b3 0a 13
        E 85 b3 0a 18
        E 85 b3 0a 14
        E 85 b3 0a 22
        E 85 b3 0a 29
        E 85 b3 0a 0e
        E 85 b3 0a 1c
        E 85 b3 0a 0b
        E 85 b3 0a 2d
        E 85 b3 0a 2a
        E 85 b3 0a 17
        E 85 b3 0a 12
        E 85 b3 0a 28
        E 85 b3 0a 12
        E 85 b3 0a 23
        E 85 b3 0a 07
        E 85 b3 0a 00
        E 85 b3 0a 10
        E 85 b3 0a 19
        E 85 b3 0a 2b
        E 85 b3 0a 27
        E 85 b3 0a 01
        E 85 b3 0a 2c
        E 85 b3 0a 25
        E 85 b3 0a 02
        E 85 b3 0a 0f
        E 85 b3 0a 1e
        E 85 b3 0a 26
        E 85 b3 0a 30
        E 85 b3 0a 1f
        E 85 b3 0a 15
        E 85 b3 0a 0e
        E 85 b3 0a 23
        E 85 b3 0a 24
        E 85 b3 0a 2c
        E 85 b3 0a 31
        E 85 b3 0a 18
        E 85 b3 0a 20
        E 85 b3 0a 22
        E 85 b3 0a 1a
        E 85 b3 0a 2f
        E 85 b3 0a 07
        E 85 b3 0a 12
        E 85 b3 0a 21
        E 8 b3 0a 0b
        E 8 b3 0a 26
        E 8 b3 0a 19
        E 8 b3 0a 04
        E 8 b3 0a 24
        E 8 b3 0a 20
        E 8 b3 0a 04
        E 8 b3 0a 04
        E 8 b3 0a 18
        E 8 b3 0a 30
        E 8 b3 0a 28
        E 8 b3 0a 2c
        E 8 b3 0a 1f
        E 8 b3 0a 05
        E 8 b3 0a 09
        E 8 b3 0a 22
        E 8 b3 0a 1c
        E 8 b3 0a 0e
        E 8 b3 0a 0a
        E 8 b3 0a 0d
        E 8 b3 0a 27
        E 8 b3 0a 17
        E 8 b3 0a 0c
        E 8 b3 0a 1d
        E 8 b3 0a 32
        E 8 b3 0a 00
        E 8 b3 0a 06
        E 8 b3 0a 14
        E 8 b3 0a 11
        E 8 b3 0a 29
        E 8 b3 0a 0a
        E 8 b3 0a 03
        E 8 b3 0a 08
        E 8 b3 0a 08
        E 8 b3 0a 2e
        E 8 b3 0a 0c
        E 8 b3 0a 00
        E 8 b3 0a 25
        E 8 b3 0a 11
        E 8 b3 0a 0a
        E 8 b3 0a 14
        E 8 b3 0a 0d
        E 8 b3 0a 2b
        E 8 b3 0a 2a
        E 8 b3 0a 32
        E 8 b3 0a 2a
        E 8 b3 0a 16
        E 8 b3 0a 2f
        E 8 b3 0a 24
        E 8 b3 0a 06
        E 8 b3 0a 16
        E 8 b3 0a 1b
        E 8 b3 0a 30
        E 8 b3 0a 26
        E 8 b3 0a 1b
        E 8 b3 0a 1c
        E 8 b3 0a 02
        E 8 b3 0a 05
        E 8 b3 0a 2e
        E 8 b3 0a 28
        E 8 b3 0a 15
        E 8 b3 0a 10
        E 8 b3 0a 06
        E 8 b3 0a 16
        E 8 b3 0a 0f
        E 8 b3 0a 0c
        E 8 b3 0a 13
        E 8 b3 0a 1a
        E 8 b3 0a 1e
        E 8 b3 0a 20
        E 8 b3 0a 08
        E 8 b3 0a 1e
        E 8 b3 0a 2d
        E 8 b3 0a 1a
        E 8 b3 0a 1d
        E 8 b3 0a 01
        E 8 b3 0a 03
        E 8 b3 0a 32
        E 8 b3 0a 21
        E 8 b3 0a 09
        E 8 b3 0a 2e
        E 8 b3 0a 10
        E 8 b3 0a 13
        E 8 b3 0a 18
        E 8 b3 0a 14
        E 8 b3 0a 22
        E 8 b3 0a 29
        E 8 b3 0a 0e
        E 8 b3 0a 1c
        E 8 b3 0a 0b
        E 8 b3 0a 2d
        E 8 b3 0a 2a
        E 8 b3 0a 17
        E 8 b3 0a 12
        E 8 b3 0a 28
        E 8 b3 0a 12
        E 8 b3 0a 23
        E 8 b3 0a 07
        E 8 b3 0a 00
        E 8 b3 0a 10
        E 8 b3 0a 19
        E 8 b3 0a 2b
        E 8 b3 0a 27
        E 8 b3 0a 01
        E 8 b3 0a 2c
        E 8 b3 0a 25
        E 8 b3 0a 02
        E 8 b3 0a 0f
        E 8 b3 0a 1e
        E 8 b3 0a 26
        E 8 b3 0a 30
        E 8 b3 0a 1f
        E 8 b3 0a 15
        E 8 b3 0a 0e
        E 8 b3 0a 23
        E 8 b3 0a 24
        E 8 b3 0a 2c
        E 8 b3 0a 31
        E 8 b3 0a 18
        E 8 b3 0a 20
        E 8 b3 0a 22
        E 8 b3 0a 1a
        E 8 b3 0a 2f
        E 8 b3 0a 07
        E 8 b3 0a 12
        E 8 b3 0a 21
        E 34 b3 0a 0e
        E 34 b3 0a 30
        E 34 b3 0a 1f
        E 34 b3 0a 05
        E 34 b3 0a 2d
        E 34 b3 0a 28
        E 34 b3 0a 06
        E 34 b3 0a 05
        E 34 b3 0a 1e
        E 34 b3 0a 3c
        E 34 b3 0a 32
        E 34 b3 0a 37
        E 34 b3 0a 27
        E 34 b3 0a 07
        E 34 b3 0a 0c
        E 34 b3 0a 2b
        E 34 b3 0a 23
        E 34 b3 0a 12
        E 34 b3 0a 0c
        E 34 b3 0a 11
        E 34 b3 0a 31
        E 34 b3 0a 1d
        E 34 b3 0a 0f
        E 34 b3 0a 24
        E 34 b3 0a 3f
        E 34 b3 0a 00
        E 34 b3 0a 08
        E 34 b3 0a 1a
        E 34 b3 0a 15
        E 34 b3 0a 34
        E 34 b3 0a 0d
        E 34 b3 0a 04
        E 34 b3 0a 0a
        E 34 b3 0a 0b
        E 34 b3 0a 39
        E 34 b3 0a 10
        E 34 b3 0a 00
        E 34 b3 0a 2f
        E 34 b3 0a 16
        E 34 b3 0a 0d
        E 34 b3 0a 19
        E 34 b3 0a 10
        E 34 b3 0a 36
        E 34 b3 0a 35
        E 34 b3 0a 3f
        E 34 b3 0a 35
        E 34 b3 0a 1b
        E 34 b3 0a 3b
        E 34 b3 0a 2d
        E 34 b3 0a 07
        E 34 b3 0a 1c
        E 34 b3 0a 22
        E 34 b3 0a 3c
        E 34 b3 0a 30
        E 34 b3 0a 22
        E 34 b3 0a 23
        E 34 b3 0a 03
        E 34 b3 0a 06
        E 34 b3 0a 3a
        E 34 b3 0a 33
        E 34 b3 0a 1b
        E 34 b3 0a 14
        E 34 b3 0a 08
        E 34 b3 0a 1c
        E 34 b3 0a 13
        E 34 b3 0a 0f
        E 34 b3 0a 18
        E 34 b3 0a 21
        E 34 b3 0a 26
        E 34 b3 0a 29
        E 34 b3 0a 0a
        E 34 b3 0a 26
        E 34 b3 0a 38
        E 34 b3 0a 20
        E 34 b3 0a 25
        E 34 b3 0a 01
        E 34 b3 0a 04
        E 34 b3 0a 3e
        E 34 b3 0a 29
        E 34 b3 0a 0b
        E 34 b3 0a 3a
        E 34 b3 0a 14
        E 34 b3 0a 18
        E 34 b3 0a 1f
        E 34 b3 0a 19
        E 34 b3 0a 2a
        E 34 b3 0a 33
        E 34 b3 0a 12
        E 34 b3 0a 24
        E 34 b3 0a 0e
        E 34 b3 0a 39
        E 34 b3 0a 34
        E 34 b3 0a 1d
        E 34 b3 0a 17
        E 34 b3 0a 32
        E 34 b3 0a 17
        E 34 b3 0a 2c
        E 34 b3 0a 09
        E 34 b3 0a 01
        E 34 b3 0a 15
        E 34 b3 0a 20
        E 34 b3 0a 36
        E 34 b3 0a 31
        E 34 b3 0a 02
        E 34 b3 0a 37
        E 34 b3 0a 2e
        E 34 b3 0a 03
        E 34 b3 0a 13
        E 34 b3 0a 25
        E 34 b3 0a 2f
        E 34 b3 0a 3d
        E 34 b3 0a 27
        E 34 b3 0a 1a
        E 34 b3 0a 11
        E 34 b3 0a 2c
        E 34 b3 0a 2e
        E 34 b3 0a 38
        E 34 b3 0a 3e
        E 34 b3 0a 1e
        E 34 b3 0a 28
        E 34 b3 0a 2b
        E 34 b3 0a 21
        E 34 b3 0a 3b
        E 34 b3 0a 09
        E 34 b3 0a 16
        E 34 b3 0a 2a
        E 17 b3 0a 02
        E 17 b3 0a 09
        E 17 b3 0a 06
        E 17 b3 0a 01
        E 17 b3 0a 09
        E 17 b3 0a 08
        E 17 b3 0a 01
        E 17 b3 0a 01
        E 17 b3 0a 06
        E 17 b3 0a 0c
        E 17 b3 0a 0a
        E 17 b3 0a 0b
        E 17 b3 0a 07
        E 17 b3 0a 01
        E 17 b3 0a 02
        E 17 b3 0a 08
        E 17 b3 0a 07
        E 17 b3 0a 03
        E 17 b3 0a 02
        E 17 b3 0a 03
        E 17 b3 0a 09
        E 17 b3 0a 05
        E 17 b3 0a 03
        E 17 b3 0a 07
        E 17 b3 0a 0c
        E 17 b3 0a 00
        E 17 b3 0a 01
        E 17 b3 0a 05
        E 17 b3 0a 04
        E 17 b3 0a 0a
        E 17 b3 0a 02
        E 17 b3 0a 00
        E 17 b3 0a 02
        E 17 b3 0a 02
        E 17 b3 0a 0b
        E 17 b3 0a 03
        E 17 b3 0a 00
        E 17 b3 0a 09
        E 17 b3 0a 04
        E 17 b3 0a 02
        E 17 b3 0a 05
        E 17 b3 0a 03
        E 17 b3 0a 0a
        E 17 b3 0a 0a
        E 17 b3 0a 0c
        E 17 b3 0a 0a
        E 17 b3 0a 05
        E 17 b3 0a 0b
        E 17 b3 0a 09
        E 17 b3 0a 01
        E 17 b3 0a 05
        E 17 b3 0a 06
        E 17 b3 0a 0c
        E 17 b3 0a 09
        E 17 b3 0a 06
        E 17 b3 0a 07
        E 17 b3 0a 00
        E 17 b3 0a 01
        E 17 b3 0a 0b
        E 17 b3 0a 0a
        E 17 b3 0a 05
        E 17 b3 0a 04
        E 17 b3 0a 01
        E 17 b3 0a 05
        E 17 b3 0a 03
        E 17 b3 0a 03
        E 17 b3 0a 04
        E 17 b3 0a 06
        E 17 b3 0a 07
        E 17 b3 0a 08
        E 17 b3 0a 02
        E 17 b3 0a 07
        E 17 b3 0a 0b
        E 17 b3 0a 06
        E 17 b3 0a 07
        E 17 b3 0a 00
        E 17 b3 0a 00
        E 17 b3 0a 0c
        E 17 b3 0a 08
        E 17 b3 0a 02
        E 17 b3 0a 0b
        E 17 b3 0a 04
        E 17 b3 0a 04
        E 17 b3 0a 06
        E 17 b3 0a 05
        E 17 b3 0a 08
        E 17 b3 0a 0a
        E 17 b3 0a 03
        E 17 b3 0a 07
        E 17 b3 0a 02
        E 17 b3 0a 0b
        E 17 b3 0a 0a
        E 17 b3 0a 05
        E 17 b3 0a 04
        E 17 b3 0a 0a
        E 17 b3 0a 04
        E 17 b3 0a 08
        E 17 b3 0a 01
        E 17 b3 0a 00
        E 17 b3 0a 04
        E 17 b3 0a 06
        E 17 b3 0a 0a
        E 17 b3 0a 09
        E 17 b3 0a 00
        E 17 b3 0a 0b
        E 17 b3 0a 09
        E 17 b3 0a 00
        E 17 b3 0a 03
        E 17 b3 0a 07
        E 17 b3 0a 09
        E 17 b3 0a 0c
        E 17 b3 0a 07
        E 17 b3 0a 05
        E 17 b3 0a 03
        E 17 b3 0a 08
        E 17 b3 0a 09
        E 17 b3 0a 0b
        E 17 b3 0a 0c
        E 17 b3 0a 06
        E 17 b3 0a 08
        E 17 b3 0a 08
        E 17 b3 0a 06
        E 17 b3 0a 0b
        E 17 b3 0a 01
        E 17 b3 0a 04
        E 17 b3 0a 08
        E 85 b3 0a 0e
        E 85 b3 0a 30
        E 85 b3 0a 1f
        E 85 b3 0a 05
        E 85 b3 0a 2d
        E 85 b3 0a 28
        E 85 b3 0a 06
        E 85 b3 0a 05
        E 85 b3 0a 1e
        E 85 b3 0a 3c
        E 85 b3 0a 32
        E 85 b3 0a 37
        E 85 b3 0a 27
        E 85 b3 0a 07
        E 85 b3 0a 0c
        E 85 b3 0a 2b
        E 85 b3 0a 23
        E 85 b3 0a 12
        E 85 b3 0a 0c
        E 85 b3 0a 11
        E 85 b3 0a 31
        E 85 b3 0a 1d
        E 85 b3 0a 0f
        E 85 b3 0a 24
        E 85 b3 0a 3f
        E 85 b3 0a 00
        E 85 b3 0a 08
        E 85 b3 0a 1a
        E 85 b3 0a 15
        E 85 b3 0a 34
        E 85 b3 0a 0d
        E 85 b3 0a 04
        E 85 b3 0a 0a
        E 85 b3 0a 0b
        E 85 b3 0a 39
        E 85 b3 0a 10
        E 85 b3 0a 00
        E 85 b3 0a 2f
        E 85 b3 0a 16
        E 85 b3 0a 0d
        E 85 b3 0a 19
        E 85 b3 0a 10
        E 85 b3 0a 36
        E 85 b3 0a 35
        E 85 b3 0a 3f
        E 85 b3 0a 35
        E 85 b3 0a 1b
        E 85 b3 0a 3b
        E 85 b3 0a 2d
        E 85 b3 0a 07
        E 85 b3 0a 1c
        E 85 b3 0a 22
        E 85 b3 0a 3c
        E 85 b3 0a 30
        E 85 b3 0a 22
        E 85 b3 0a 23
        E 85 b3 0a 03
        E 85 b3 0a 06
        E 85 b3 0a 3a
        E 85 b3 0a 33
        E 85 b3 0a 1b
        E 85 b3 0a 14
        E 85 b3 0a 08
        E 85 b3 0a 1c
        E 85 b3 0a 13
        E 85 b3 0a 0f
        E 85 b3 0a 18
        E 85 b3 0a 21
        E 85 b3 0a 26
        E 85 b3 0a 29
        E 85 b3 0a 0a
        E 85 b3 0a 26
        E 85 b3 0a 38
        E 85 b3 0a 20
        E 85 b3 0a 25
        E 85 b3 0a 01
        E 85 b3 0a 04
        E 85 b3 0a 3e
        E 85 b3 0a 29
        E 85 b3 0a 0b
        E 85 b3 0a 3a
        E 85 b3 0a 14
        E 85 b3 0a 18
        E 85 b3 0a 1f
        E 85 b3 0a 19
        E 85 b3 0a 2a
        E 85 b3 0a 33
        E 85 b3 0a 12
        E 85 b3 0a 24
        E 85 b3 0a 0e
        E 85 b3 0a 39
        E 85 b3 0a 34
        E 85 b3 0a 1d
        E 85 b3 0a 17
        E 85 b3 0a 32
        E 85 b3 0a 17
        E 85 b3 0a 2c
        E 85 b3 0a 09
        E 85 b3 0a 01
        E 85 b3 0a 15
        E 85 b3 0a 20
        E 85 b3 0a 36
        E 85 b3 0a 31
        E 85 b3 0a 02
        E 85 b3 0a 37
        E 85 b3 0a 2e
        E 85 b3 0a 03
        E 85 b3 0a 13
        E 85 b3 0a 25
        E 85 b3 0a 2f
        E 85 b3 0a 3d
        E 85 b3 0a 27
        E 85 b3 0a 1a
        E 85 b3 0a 11
        E 85 b3 0a 2c
        E 85 b3 0a 2e
        E 85 b3 0a 38
        E 85 b3 0a 3e
        E 85 b3 0a 1e
        E 85 b3 0a 28
        E 85 b3 0a 2b
        E 85 b3 0a 21
        E 85 b3 0a 3b
        E 85 b3 0a 09
        E 85 b3 0a 16
        E 85 b3 0a 2a
        E 106 b0 7b 00
        CCINTERP 32
        CHASE_CC_TAKEOFFS 1
        GUID {7133A849-C3C7-9543-A38D-F2F305849264}
        IGNTEMPO 0 120 4 4
        SRCCOLOR 281
        VELLANE 3 601 0
        VELLANE -1 196 0
      >
    >
  >
  <TRACK {7851147D-66B1-E94C-872A-78D52B644B4F}
    NAME "pepto bismol 4oz bottle"
    PEAKCOL 16576
    BEAT -1
    AUTOMODE 0
    VOLPAN 1 0 -1 -1 1
    MUTESOLO 0 0 0
    IPHASE 0
    PLAYOFFS 0 1
    ISBUS 0 0
    BUSCOMP 0 0 0 0 0
    SHOWINMIX 1 0.6667 0.5 1 0.5 0 -1 0
    FREEMODE 0
    SEL 0
    REC 0 0 1 0 0 0 0
    VU 2
    TRACKHEIGHT 0 1 0 0 -1 0
    INQ 0 0 0 0.5 100 0 0 100
    NCHAN 2
    FX 1
    TRACKID {7851147D-66B1-E94C-872A-78D52B644B4F}
    PERF 0
    MIDIOUT -1
    MAINSEND 1 0
    <ITEM
      POSITION 0
      SNAPOFFS 0
      LENGTH 432.38052
      LOOP 1
      ALLTAKES 0
      FADEIN 1 0 0 1 0 0
      FADEOUT 1 0 0 1 0 0
      MUTE 0 0
      SEL 0
      IGUID {A07AF4C6-7BDC-A24C-9FBA-5E7088EEC92B}
      IID 17
      NAME "pepto bismol 4oz bottle.mid"
      VOLPAN 1 0 1 -1
      SOFFS 0 0
      PLAYRATE 1 1 0 -1 0 0.0025
      CHANMODE 0
      GUID {3C516942-0B0B-C447-A0C7-33478D2DE7F6}
      <SOURCE MIDI
        HASDATA 1 128 QN
        CCINTERP 32
        POOLEDEVTS {5CB7652B-8F70-AF47-A3C8-4DC38071B78B}
        E 20 b4 01 06
        E 20 b4 01 06
        E 20 b4 01 07
        E 20 b4 01 07
        E 20 b4 01 07
        E 20 b4 01 07
        E 20 b4 01 08
        E 20 b4 01 08
        E 20 b4 01 08
        E 20 b4 01 09
        E 20 b4 01 09
        E 20 b4 01 09
        E 20 b4 01 09
        E 20 b4 01 0a
        E 20 b4 01 0a
        E 20 b4 01 0a
        E 20 b4 01 0a
        E 20 b4 01 0b
        E 20 b4 01 0b
        E 20 b4 01 0b
        E 20 b4 01 0b
        E 20 b4 01 0b
        E 20 b4 01 0c
        E 20 b4 01 0c
        E 20 b4 01 0c
        E 20 b4 01 0c
        E 20 b4 01 0c
        E 20 b4 01 0c
        E 20 b4 01 0c
        E 20 b4 01 0c
        E 20 b4 01 0c
        E 20 b4 01 0c
        E 20 b4 01 0c
        E 20 b4 01 0c
        E 20 b4 01 0c
        E 20 b4 01 0c
        E 20 b4 01 0c
        E 20 b4 01 0c
        E 20 b4 01 0c
        E 20 b4 01 0c
        E 20 b4 01 0c
        E 20 b4 01 0c
        E 20 b4 01 0b
        E 20 b4 01 0b
        E 20 b4 01 0b
        E 20 b4 01 0b
        E 20 b4 01 0b
        E 20 b4 01 0b
        E 20 b4 01 0a
        E 20 b4 01 0a
        E 20 b4 01 0a
        E 20 b4 01 0a
        E 20 b4 01 09
        E 20 b4 01 09
        E 20 b4 01 09
        E 20 b4 01 08
        E 20 b4 01 08
        E 20 b4 01 08
        E 20 b4 01 08
        E 20 b4 01 07
        E 20 b4 01 07
        E 20 b4 01 07
        E 20 b4 01 06
        E 20 b4 01 06
        E 20 b4 01 06
        E 20 b4 01 05
        E 20 b4 01 05
        E 20 b4 01 05
        E 20 b4 01 04
        E 20 b4 01 04
        E 20 b4 01 04
        E 20 b4 01 04
        E 20 b4 01 03
        E 20 b4 01 03
        E 20 b4 01 03
        E 20 b4 01 02
        E 20 b4 01 02
        E 20 b4 01 02
        E 20 b4 01 02
        E 20 b4 01 01
        E 20 b4 01 01
        E 20 b4 01 01
        E 20 b4 01 01
        E 20 b4 01 01
        E 20 b4 01 01
        E 20 b4 01 00
        E 20 b4 01 00
        E 20 b4 01 00
        E 20 b4 01 00
        E 20 b4 01 00
        E 20 b4 01 00
        E 20 b4 01 00
        E 20 b4 01 00
        E 20 b4 01 00
        E 20 b4 01 00
        E 20 b4 01 00
        E 20 b4 01 00
        E 20 b4 01 00
        E 20 b4 01 00
        E 20 b4 01 00
        E 20 b4 01 00
        E 20 b4 01 00
        E 20 b4 01 00
        E 20 b4 01 00
        E 20 b4 01 00
        E 20 b4 01 00
        E 20 b4 01 00
        E 20 b4 01 01
        E 20 b4 01 01
        E 20 b4 01 01
        E 20 b4 01 01
        E 20 b4 01 01
        E 20 b4 01 02
        E 20 b4 01 02
        E 20 b4 01 02
        E 20 b4 01 02
        E 20 b4 01 03
        E 20 b4 01 03
        E 20 b4 01 03
        E 20 b4 01 03
        E 20 b4 01 04
        E 20 b4 01 04
        E 20 b4 01 04
        E 20 b4 01 05
        E 20 b4 01 05
        E 20 b4 01 05
        E 20 b4 01 06
        E 20 b4 01 06
        E 4 b4 01 19
        E 4 b4 01 1a
        E 4 b4 01 1c
        E 4 b4 01 1d
        E 4 b4 01 1e
        E 4 b4 01 1f
        E 4 b4 01 20
        E 4 b4 01 22
        E 4 b4 01 23
        E 4 b4 01 24
        E 4 b4 01 25
        E 4 b4 01 26
        E 4 b4 01 27
        E 4 b4 01 28
        E 4 b4 01 29
        E 4 b4 01 2a
        E 4 b4 01 2b
        E 4 b4 01 2c
        E 4 b4 01 2d
        E 4 b4 01 2e
        E 4 b4 01 2e
        E 4 b4 01 2f
        E 4 b4 01 30
        E 4 b4 01 30
        E 4 b4 01 30
        E 4 b4 01 31
        E 4 b4 01 31
        E 4 b4 01 32
        E 4 b4 01 32
        E 4 b4 01 32
        E 4 b4 01 32
        E 4 b4 01 32
        E 4 b4 01 32
        E 4 b4 01 32
        E 4 b4 01 32
        E 4 b4 01 32
        E 4 b4 01 32
        E 4 b4 01 32
        E 4 b4 01 31
        E 4 b4 01 31
        E 4 b4 01 30
        E 4 b4 01 30
        E 4 b4 01 2f
        E 4 b4 01 2e
        E 4 b4 01 2e
        E 4 b4 01 2d
        E 4 b4 01 2c
        E 4 b4 01 2c
        E 4 b4 01 2b
        E 4 b4 01 2a
        E 4 b4 01 29
        E 4 b4 01 28
        E 4 b4 01 27
        E 4 b4 01 26
        E 4 b4 01 24
        E 4 b4 01 23
        E 4 b4 01 22
        E 4 b4 01 21
        E 4 b4 01 20
        E 4 b4 01 1f
        E 4 b4 01 1d
        E 4 b4 01 1c
        E 4 b4 01 1b
        E 4 b4 01 1a
        E 4 b4 01 18
        E 4 b4 01 17
        E 4 b4 01 16
        E 4 b4 01 15
        E 4 b4 01 13
        E 4 b4 01 12
        E 4 b4 01 11
        E 4 b4 01 10
        E 4 b4 01 0f
        E 4 b4 01 0e
        E 4 b4 01 0c
        E 4 b4 01 0b
        E 4 b4 01 0a
        E 4 b4 01 09
        E 4 b4 01 08
        E 4 b4 01 07
        E 4 b4 01 06
        E 4 b4 01 06
        E 4 b4 01 05
        E 4 b4 01 04
        E 4 b4 01 04
        E 4 b4 01 03
        E 4 b4 01 02
        E 4 b4 01 02
        E 4 b4 01 01
        E 4 b4 01 01
        E 4 b4 01 00
        E 4 b4 01 00
        E 4 b4 01 00
        E 4 b4 01 00
        E 4 b4 01 00
        E 4 b4 01 00
        E 4 b4 01 00
        E 4 b4 01 00
        E 4 b4 01 00
        E 4 b4 01 00
        E 4 b4 01 00
        E 4 b4 01 01
        E 4 b4 01 01
        E 4 b4 01 02
        E 4 b4 01 02
        E 4 b4 01 02
        E 4 b4 01 03
        E 4 b4 01 04
        E 4 b4 01 04
        E 4 b4 01 05
        E 4 b4 01 06
        E 4 b4 01 07
        E 4 b4 01 08
        E 4 b4 01 09
        E 4 b4 01 0a
        E 4 b4 01 0b
        E 4 b4 01 0c
        E 4 b4 01 0d
        E 4 b4 01 0e
        E 4 b4 01 0f
        E 4 b4 01 10
        E 4 b4 01 12
        E 4 b4 01 13
        E 4 b4 01 14
        E 4 b4 01 15
        E 4 b4 01 16
        E 4 b4 01 18
        E 4 b4 01 19
        E 20 b4 01 0c
        E 20 b4 01 0d
        E 20 b4 01 0e
        E 20 b4 01 0e
        E 20 b4 01 0f
        E 20 b4 01 0f
        E 20 b4 01 10
        E 20 b4 01 11
        E 20 b4 01 11
        E 20 b4 01 12
        E 20 b4 01 12
        E 20 b4 01 13
        E 20 b4 01 13
        E 20 b4 01 14
        E 20 b4 01 14
        E 20 b4 01 15
        E 20 b4 01 15
        E 20 b4 01 16
        E 20 b4 01 16
        E 20 b4 01 17
        E 20 b4 01 17
        E 20 b4 01 17
        E 20 b4 01 18
        E 20 b4 01 18
        E 20 b4 01 18
        E 20 b4 01 18
        E 20 b4 01 18
        E 20 b4 01 19
        E 20 b4 01 19
        E 20 b4 01 19
        E 20 b4 01 19
        E 20 b4 01 19
        E 20 b4 01 19
        E 20 b4 01 19
        E 20 b4 01 19
        E 20 b4 01 19
        E 20 b4 01 19
        E 20 b4 01 19
        E 20 b4 01 18
        E 20 b4 01 18
        E 20 b4 01 18
        E 20 b4 01 18
        E 20 b4 01 17
        E 20 b4 01 17
        E 20 b4 01 17
        E 20 b4 01 16
        E 20 b4 01 16
        E 20 b4 01 16
        E 20 b4 01 15
        E 20 b4 01 15
        E 20 b4 01 14
        E 20 b4 01 14
        E 20 b4 01 13
        E 20 b4 01 13
        E 20 b4 01 12
        E 20 b4 01 11
        E 20 b4 01 11
        E 20 b4 01 10
        E 20 b4 01 10
        E 20 b4 01 0f
        E 20 b4 01 0e
        E 20 b4 01 0e
        E 20 b4 01 0d
        E 20 b4 01 0d
        E 20 b4 01 0c
        E 20 b4 01 0b
        E 20 b4 01 0b
        E 20 b4 01 0a
        E 20 b4 01 09
        E 20 b4 01 09
        E 20 b4 01 08
        E 20 b4 01 08
        E 20 b4 01 07
        E 20 b4 01 07
        E 20 b4 01 06
        E 20 b4 01 05
        E 20 b4 01 05
        E 20 b4 01 04
        E 20 b4 01 04
        E 20 b4 01 03
        E 20 b4 01 03
        E 20 b4 01 03
        E 20 b4 01 02
        E 20 b4 01 02
        E 20 b4 01 02
        E 20 b4 01 01
        E 20 b4 01 01
        E 20 b4 01 01
        E 20 b4 01 00
        E 20 b4 01 00
        E 20 b4 01 00
        E 20 b4 01 00
        E 20 b4 01 00
        E 20 b4 01 00
        E 20 b4 01 00
        E 20 b4 01 00
        E 20 b4 01 00
        E 20 b4 01 00
        E 20 b4 01 00
        E 20 b4 01 00
        E 20 b4 01 00
        E 20 b4 01 00
        E 20 b4 01 00
        E 20 b4 01 01
        E 20 b4 01 01
        E 20 b4 01 01
        E 20 b4 01 01
        E 20 b4 01 02
        E 20 b4 01 02
        E 20 b4 01 02
        E 20 b4 01 03
        E 20 b4 01 03
        E 20 b4 01 04
        E 20 b4 01 04
        E 20 b4 01 05
        E 20 b4 01 05
        E 20 b4 01 06
        E 20 b4 01 06
        E 20 b4 01 07
        E 20 b4 01 07
        E 20 b4 01 08
        E 20 b4 01 09
        E 20 b4 01 09
        E 20 b4 01 0a
        E 20 b4 01 0a
        E 20 b4 01 0b
        E 20 b4 01 0c
        E 20 b4 01 0c
        E 4 b4 01 40
        E 4 b4 01 43
        E 4 b4 01 46
        E 4 b4 01 49
        E 4 b4 01 4c
        E 4 b4 01 4f
        E 4 b4 01 52
        E 4 b4 01 55
        E 4 b4 01 58
        E 4 b4 01 5b
        E 4 b4 01 5e
        E 4 b4 01 60
        E 4 b4 01 63
        E 4 b4 01 66
        E 4 b4 01 68
        E 4 b4 01 6a
        E 4 b4 01 6d
        E 4 b4 01 6f
        E 4 b4 01 71
        E 4 b4 01 73
        E 4 b4 01 75
        E 4 b4 01 76
        E 4 b4 01 78
        E 4 b4 01 79
        E 4 b4 01 7a
        E 4 b4 01 7b
        E 4 b4 01 7c
        E 4 b4 01 7d
        E 4 b4 01 7e
        E 4 b4 01 7e
        E 4 b4 01 7f
        E 4 b4 01 7f
        E 4 b4 01 7f
        E 4 b4 01 7f
        E 4 b4 01 7f
        E 4 b4 01 7e
        E 4 b4 01 7e
        E 4 b4 01 7d
        E 4 b4 01 7c
        E 4 b4 01 7b
        E 4 b4 01 7a
        E 4 b4 01 78
        E 4 b4 01 77
        E 4 b4 01 75
        E 4 b4 01 74
        E 4 b4 01 72
        E 4 b4 01 70
        E 4 b4 01 6e
        E 4 b4 01 6c
        E 4 b4 01 69
        E 4 b4 01 67
        E 4 b4 01 64
        E 4 b4 01 62
        E 4 b4 01 5f
        E 4 b4 01 5c
        E 4 b4 01 59
        E 4 b4 01 57
        E 4 b4 01 54
        E 4 b4 01 51
        E 4 b4 01 4e
        E 4 b4 01 4a
        E 4 b4 01 47
        E 4 b4 01 44
        E 4 b4 01 41
        E 4 b4 01 3e
        E 4 b4 01 3b
        E 4 b4 01 38
        E 4 b4 01 35
        E 4 b4 01 31
        E 4 b4 01 2e
        E 4 b4 01 2b
        E 4 b4 01 28
        E 4 b4 01 26
        E 4 b4 01 23
        E 4 b4 01 20
        E 4 b4 01 1d
        E 4 b4 01 1b
        E 4 b4 01 18
        E 4 b4 01 16
        E 4 b4 01 13
        E 4 b4 01 11
        E 4 b4 01 0f
        E 4 b4 01 0d
        E 4 b4 01 0b
        E 4 b4 01 0a
        E 4 b4 01 08
        E 4 b4 01 07
        E 4 b4 01 05
        E 4 b4 01 04
        E 4 b4 01 03
        E 4 b4 01 02
        E 4 b4 01 01
        E 4 b4 01 01
        E 4 b4 01 00
        E 4 b4 01 00
        E 4 b4 01 00
        E 4 b4 01 00
        E 4 b4 01 00
        E 4 b4 01 01
        E 4 b4 01 01
        E 4 b4 01 02
        E 4 b4 01 03
        E 4 b4 01 04
        E 4 b4 01 05
        E 4 b4 01 06
        E 4 b4 01 07
        E 4 b4 01 09
        E 4 b4 01 0a
        E 4 b4 01 0c
        E 4 b4 01 0e
        E 4 b4 01 10
        E 4 b4 01 12
        E 4 b4 01 15
        E 4 b4 01 17
        E 4 b4 01 19
        E 4 b4 01 1c
        E 4 b4 01 1f
        E 4 b4 01 21
        E 4 b4 01 24
        E 4 b4 01 27
        E 4 b4 01 2a
        E 4 b4 01 2d
        E 4 b4 01 30
        E 4 b4 01 33
        E 4 b4 01 36
        E 4 b4 01 39
        E 4 b4 01 3c
        E 4 b4 01 40
        E 16 b4 01 06
        E 16 b4 01 06
        E 16 b4 01 07
        E 16 b4 01 07
        E 16 b4 01 07
        E 16 b4 01 07
        E 16 b4 01 08
        E 16 b4 01 08
        E 16 b4 01 08
        E 16 b4 01 09
        E 16 b4 01 09
        E 16 b4 01 09
        E 16 b4 01 09
        E 16 b4 01 0a
        E 16 b4 01 0a
        E 16 b4 01 0a
        E 16 b4 01 0a
        E 16 b4 01 0b
        E 16 b4 01 0b
        E 16 b4 01 0b
        E 16 b4 01 0b
        E 16 b4 01 0b
        E 16 b4 01 0c
        E 16 b4 01 0c
        E 16 b4 01 0c
        E 16 b4 01 0c
        E 16 b4 01 0c
        E 16 b4 01 0c
        E 16 b4 01 0c
        E 16 b4 01 0c
        E 16 b4 01 0c
        E 16 b4 01 0c
        E 16 b4 01 0c
        E 16 b4 01 0c
        E 16 b4 01 0c
        E 16 b4 01 0c
        E 16 b4 01 0c
        E 16 b4 01 0c
        E 16 b4 01 0c
        E 16 b4 01 0c
        E 16 b4 01 0c
        E 16 b4 01 0c
        E 16 b4 01 0b
        E 16 b4 01 0b
        E 16 b4 01 0b
        E 16 b4 01 0b
        E 16 b4 01 0b
        E 16 b4 01 0b
        E 16 b4 01 0a
        E 16 b4 01 0a
        E 16 b4 01 0a
        E 16 b4 01 0a
        E 16 b4 01 09
        E 16 b4 01 09
        E 16 b4 01 09
        E 16 b4 01 08
        E 16 b4 01 08
        E 16 b4 01 08
        E 16 b4 01 08
        E 16 b4 01 07
        E 16 b4 01 07
        E 16 b4 01 07
        E 16 b4 01 06
        E 16 b4 01 06
        E 16 b4 01 06
        E 16 b4 01 05
        E 16 b4 01 05
        E 16 b4 01 05
        E 16 b4 01 04
        E 16 b4 01 04
        E 16 b4 01 04
        E 16 b4 01 04
        E 16 b4 01 03
        E 16 b4 01 03
        E 16 b4 01 03
        E 16 b4 01 02
        E 16 b4 01 02
        E 16 b4 01 02
        E 16 b4 01 02
        E 16 b4 01 01
        E 16 b4 01 01
        E 16 b4 01 01
        E 16 b4 01 01
        E 16 b4 01 01
        E 16 b4 01 01
        E 16 b4 01 00
        E 16 b4 01 00
        E 16 b4 01 00
        E 16 b4 01 00
        E 16 b4 01 00
        E 16 b4 01 00
        E 16 b4 01 00
        E 16 b4 01 00
        E 16 b4 01 00
        E 16 b4 01 00
        E 16 b4 01 00
        E 16 b4 01 00
        E 16 b4 01 00
        E 16 b4 01 00
        E 16 b4 01 00
        E 16 b4 01 00
        E 16 b4 01 00
        E 16 b4 01 00
        E 16 b4 01 00
        E 16 b4 01 00
        E 16 b4 01 00
        E 16 b4 01 00
        E 16 b4 01 01
        E 16 b4 01 01
        E 16 b4 01 01
        E 16 b4 01 01
        E 16 b4 01 01
        E 16 b4 01 02
        E 16 b4 01 02
        E 16 b4 01 02
        E 16 b4 01 02
        E 16 b4 01 03
        E 16 b4 01 03
        E 16 b4 01 03
        E 16 b4 01 03
        E 16 b4 01 04
        E 16 b4 01 04
        E 16 b4 01 04
        E 16 b4 01 05
        E 16 b4 01 05
        E 16 b4 01 05
        E 16 b4 01 06
        E 16 b4 01 06
        E 16 b4 01 40
        E 16 b4 01 43
        E 16 b4 01 46
        E 16 b4 01 49
        E 16 b4 01 4c
        E 16 b4 01 4f
        E 16 b4 01 52
        E 16 b4 01 55
        E 16 b4 01 58
        E 16 b4 01 5b
        E 16 b4 01 5e
        E 16 b4 01 60
        E 16 b4 01 63
        E 16 b4 01 66
        E 16 b4 01 68
        E 16 b4 01 6a
        E 16 b4 01 6d
        E 16 b4 01 6f
        E 16 b4 01 71
        E 16 b4 01 73
        E 16 b4 01 75
        E 16 b4 01 76
        E 16 b4 01 78
        E 16 b4 01 79
        E 16 b4 01 7a
        E 16 b4 01 7b
        E 16 b4 01 7c
        E 16 b4 01 7d
        E 16 b4 01 7e
        E 16 b4 01 7e
        E 16 b4 01 7f
        E 16 b4 01 7f
        E 16 b4 01 7f
        E 16 b4 01 7f
        E 16 b4 01 7f
        E 16 b4 01 7e
        E 16 b4 01 7e
        E 16 b4 01 7d
        E 16 b4 01 7c
        E 16 b4 01 7b
        E 16 b4 01 7a
        E 16 b4 01 78
        E 16 b4 01 77
        E 16 b4 01 75
        E 16 b4 01 74
        E 16 b4 01 72
        E 16 b4 01 70
        E 16 b4 01 6e
        E 16 b4 01 6c
        E 16 b4 01 69
        E 16 b4 01 67
        E 16 b4 01 64
        E 16 b4 01 62
        E 16 b4 01 5f
        E 16 b4 01 5c
        E 16 b4 01 59
        E 16 b4 01 57
        E 16 b4 01 54
        E 16 b4 01 51
        E 16 b4 01 4e
        E 16 b4 01 4a
        E 16 b4 01 47
        E 16 b4 01 44
        E 16 b4 01 41
        E 16 b4 01 3e
        E 16 b4 01 3b
        E 16 b4 01 38
        E 16 b4 01 35
        E 16 b4 01 31
        E 16 b4 01 2e
        E 16 b4 01 2b
        E 16 b4 01 28
        E 16 b4 01 26
        E 16 b4 01 23
        E 16 b4 01 20
        E 16 b4 01 1d
        E 16 b4 01 1b
        E 16 b4 01 18
        E 16 b4 01 16
        E 16 b4 01 13
        E 16 b4 01 11
        E 16 b4 01 0f
        E 16 b4 01 0d
        E 16 b4 01 0b
        E 16 b4 01 0a
        E 16 b4 01 08
        E 16 b4 01 07
        E 16 b4 01 05
        E 16 b4 01 04
        E 16 b4 01 03
        E 16 b4 01 02
        E 16 b4 01 01
        E 16 b4 01 01
        E 16 b4 01 00
        E 16 b4 01 00
        E 16 b4 01 00
        E 16 b4 01 00
        E 16 b4 01 00
        E 16 b4 01 01
        E 16 b4 01 01
        E 16 b4 01 02
        E 16 b4 01 03
        E 16 b4 01 04
        E 16 b4 01 05
        E 16 b4 01 06
        E 16 b4 01 07
        E 16 b4 01 09
        E 16 b4 01 0a
        E 16 b4 01 0c
        E 16 b4 01 0e
        E 16 b4 01 10
        E 16 b4 01 12
        E 16 b4 01 15
        E 16 b4 01 17
        E 16 b4 01 19
        E 16 b4 01 1c
        E 16 b4 01 1f
        E 16 b4 01 21
        E 16 b4 01 24
        E 16 b4 01 27
        E 16 b4 01 2a
        E 16 b4 01 2d
        E 16 b4 01 30
        E 16 b4 01 33
        E 16 b4 01 36
        E 16 b4 01 39
        E 16 b4 01 3c
        E 16 b4 01 40
        E 20 b4 01 06
        E 20 b4 01 06
        E 20 b4 01 07
        E 20 b4 01 07
        E 20 b4 01 07
        E 20 b4 01 07
        E 20 b4 01 08
        E 20 b4 01 08
        E 20 b4 01 08
        E 20 b4 01 09
        E 20 b4 01 09
        E 20 b4 01 09
        E 20 b4 01 09
        E 20 b4 01 0a
        E 20 b4 01 0a
        E 20 b4 01 0a
        E 20 b4 01 0a
        E 20 b4 01 0b
        E 20 b4 01 0b
        E 20 b4 01 0b
        E 20 b4 01 0b
        E 20 b4 01 0b
        E 20 b4 01 0c
        E 20 b4 01 0c
        E 20 b4 01 0c
        E 20 b4 01 0c
        E 20 b4 01 0c
        E 20 b4 01 0c
        E 20 b4 01 0c
        E 20 b4 01 0c
        E 20 b4 01 0c
        E 20 b4 01 0c
        E 20 b4 01 0c
        E 20 b4 01 0c
        E 20 b4 01 0c
        E 20 b4 01 0c
        E 20 b4 01 0c
        E 20 b4 01 0c
        E 20 b4 01 0c
        E 20 b4 01 0c
        E 20 b4 01 0c
        E 20 b4 01 0c
        E 20 b4 01 0b
        E 20 b4 01 0b
        E 20 b4 01 0b
        E 20 b4 01 0b
        E 20 b4 01 0b
        E 20 b4 01 0b
        E 20 b4 01 0a
        E 20 b4 01 0a
        E 20 b4 01 0a
        E 20 b4 01 0a
        E 20 b4 01 09
        E 20 b4 01 09
        E 20 b4 01 09
        E 20 b4 01 08
        E 20 b4 01 08
        E 20 b4 01 08
        E 20 b4 01 08
        E 20 b4 01 07
        E 20 b4 01 07
        E 20 b4 01 07
        E 20 b4 01 06
        E 20 b4 01 06
        E 20 b4 01 06
        E 20 b4 01 05
        E 20 b4 01 05
        E 20 b4 01 05
        E 20 b4 01 04
        E 20 b4 01 04
        E 20 b4 01 04
        E 20 b4 01 04
        E 20 b4 01 03
        E 20 b4 01 03
        E 20 b4 01 03
        E 20 b4 01 02
        E 20 b4 01 02
        E 20 b4 01 02
        E 20 b4 01 02
        E 20 b4 01 01
        E 20 b4 01 01
        E 20 b4 01 01
        E 20 b4 01 01
        E 20 b4 01 01
        E 20 b4 01 01
        E 20 b4 01 00
        E 20 b4 01 00
        E 20 b4 01 00
        E 20 b4 01 00
        E 20 b4 01 00
        E 20 b4 01 00
        E 20 b4 01 00
        E 20 b4 01 00
        E 20 b4 01 00
        E 20 b4 01 00
        E 20 b4 01 00
        E 20 b4 01 00
        E 20 b4 01 00
        E 20 b4 01 00
        E 20 b4 01 00
        E 20 b4 01 00
        E 20 b4 01 00
        E 20 b4 01 00
        E 20 b4 01 00
        E 20 b4 01 00
        E 20 b4 01 00
        E 20 b4 01 00
        E 20 b4 01 01
        E 20 b4 01 01
        E 20 b4 01 01
        E 20 b4 01 01
        E 20 b4 01 01
        E 20 b4 01 02
        E 20 b4 01 02
        E 20 b4 01 02
        E 20 b4 01 02
        E 20 b4 01 03
        E 20 b4 01 03
        E 20 b4 01 03
        E 20 b4 01 03
        E 20 b4 01 04
        E 20 b4 01 04
        E 20 b4 01 04
        E 20 b4 01 05
        E 20 b4 01 05
        E 20 b4 01 05
        E 20 b4 01 06
        E 20 b4 01 06
        E 4 b4 01 19
        E 4 b4 01 1a
        E 4 b4 01 1c
        E 4 b4 01 1d
        E 4 b4 01 1e
        E 4 b4 01 1f
        E 4 b4 01 20
        E 4 b4 01 22
        E 4 b4 01 23
        E 4 b4 01 24
        E 4 b4 01 25
        E 4 b4 01 26
        E 4 b4 01 27
        E 4 b4 01 28
        E 4 b4 01 29
        E 4 b4 01 2a
        E 4 b4 01 2b
        E 4 b4 01 2c
        E 4 b4 01 2d
        E 4 b4 01 2e
        E 4 b4 01 2e
        E 4 b4 01 2f
        E 4 b4 01 30
        E 4 b4 01 30
        E 4 b4 01 30
        E 4 b4 01 31
        E 4 b4 01 31
        E 4 b4 01 32
        E 4 b4 01 32
        E 4 b4 01 32
        E 4 b4 01 32
        E 4 b4 01 32
        E 4 b4 01 32
        E 4 b4 01 32
        E 4 b4 01 32
        E 4 b4 01 32
        E 4 b4 01 32
        E 4 b4 01 32
        E 4 b4 01 31
        E 4 b4 01 31
        E 4 b4 01 30
        E 4 b4 01 30
        E 4 b4 01 2f
        E 4 b4 01 2e
        E 4 b4 01 2e
        E 4 b4 01 2d
        E 4 b4 01 2c
        E 4 b4 01 2c
        E 4 b4 01 2b
        E 4 b4 01 2a
        E 4 b4 01 29
        E 4 b4 01 28
        E 4 b4 01 27
        E 4 b4 01 26
        E 4 b4 01 24
        E 4 b4 01 23
        E 4 b4 01 22
        E 4 b4 01 21
        E 4 b4 01 20
        E 4 b4 01 1f
        E 4 b4 01 1d
        E 4 b4 01 1c
        E 4 b4 01 1b
        E 4 b4 01 1a
        E 4 b4 01 18
        E 4 b4 01 17
        E 4 b4 01 16
        E 4 b4 01 15
        E 4 b4 01 13
        E 4 b4 01 12
        E 4 b4 01 11
        E 4 b4 01 10
        E 4 b4 01 0f
        E 4 b4 01 0e
        E 4 b4 01 0c
        E 4 b4 01 0b
        E 4 b4 01 0a
        E 4 b4 01 09
        E 4 b4 01 08
        E 4 b4 01 07
        E 4 b4 01 06
        E 4 b4 01 06
        E 4 b4 01 05
        E 4 b4 01 04
        E 4 b4 01 04
        E 4 b4 01 03
        E 4 b4 01 02
        E 4 b4 01 02
        E 4 b4 01 01
        E 4 b4 01 01
        E 4 b4 01 00
        E 4 b4 01 00
        E 4 b4 01 00
        E 4 b4 01 00
        E 4 b4 01 00
        E 4 b4 01 00
        E 4 b4 01 00
        E 4 b4 01 00
        E 4 b4 01 00
        E 4 b4 01 00
        E 4 b4 01 00
        E 4 b4 01 01
        E 4 b4 01 01
        E 4 b4 01 02
        E 4 b4 01 02
        E 4 b4 01 02
        E 4 b4 01 03
        E 4 b4 01 04
        E 4 b4 01 04
        E 4 b4 01 05
        E 4 b4 01 06
        E 4 b4 01 07
        E 4 b4 01 08
        E 4 b4 01 09
        E 4 b4 01 0a
        E 4 b4 01 0b
        E 4 b4 01 0c
        E 4 b4 01 0d
        E 4 b4 01 0e
        E 4 b4 01 0f
        E 4 b4 01 10
        E 4 b4 01 12
        E 4 b4 01 13
        E 4 b4 01 14
        E 4 b4 01 15
        E 4 b4 01 16
        E 4 b4 01 18
        E 4 b4 01 19
        E 20 b4 01 0c
        E 20 b4 01 0d
        E 20 b4 01 0e
        E 20 b4 01 0e
        E 20 b4 01 0f
        E 20 b4 01 0f
        E 20 b4 01 10
        E 20 b4 01 11
        E 20 b4 01 11
        E 20 b4 01 12
        E 20 b4 01 12
        E 20 b4 01 13
        E 20 b4 01 13
        E 20 b4 01 14
        E 20 b4 01 14
        E 20 b4 01 15
        E 20 b4 01 15
        E 20 b4 01 16
        E 20 b4 01 16
        E 20 b4 01 17
        E 20 b4 01 17
        E 20 b4 01 17
        E 20 b4 01 18
        E 20 b4 01 18
        E 20 b4 01 18
        E 20 b4 01 18
        E 20 b4 01 18
        E 20 b4 01 19
        E 20 b4 01 19
        E 20 b4 01 19
        E 20 b4 01 19
        E 20 b4 01 19
        E 20 b4 01 19
        E 20 b4 01 19
        E 20 b4 01 19
        E 20 b4 01 19
        E 20 b4 01 19
        E 20 b4 01 19
        E 20 b4 01 18
        E 20 b4 01 18
        E 20 b4 01 18
        E 20 b4 01 18
        E 20 b4 01 17
        E 20 b4 01 17
        E 20 b4 01 17
        E 20 b4 01 16
        E 20 b4 01 16
        E 20 b4 01 16
        E 20 b4 01 15
        E 20 b4 01 15
        E 20 b4 01 14
        E 20 b4 01 14
        E 20 b4 01 13
        E 20 b4 01 13
        E 20 b4 01 12
        E 20 b4 01 11
        E 20 b4 01 11
        E 20 b4 01 10
        E 20 b4 01 10
        E 20 b4 01 0f
        E 20 b4 01 0e
        E 20 b4 01 0e
        E 20 b4 01 0d
        E 20 b4 01 0d
        E 20 b4 01 0c
        E 20 b4 01 0b
        E 20 b4 01 0b
        E 20 b4 01 0a
        E 20 b4 01 09
        E 20 b4 01 09
        E 20 b4 01 08
        E 20 b4 01 08
        E 20 b4 01 07
        E 20 b4 01 07
        E 20 b4 01 06
        E 20 b4 01 05
        E 20 b4 01 05
        E 20 b4 01 04
        E 20 b4 01 04
        E 20 b4 01 03
        E 20 b4 01 03
        E 20 b4 01 03
        E 20 b4 01 02
        E 20 b4 01 02
        E 20 b4 01 02
        E 20 b4 01 01
        E 20 b4 01 01
        E 20 b4 01 01
        E 20 b4 01 00
        E 20 b4 01 00
        E 20 b4 01 00
        E 20 b4 01 00
        E 20 b4 01 00
        E 20 b4 01 00
        E 20 b4 01 00
        E 20 b4 01 00
        E 20 b4 01 00
        E 20 b4 01 00
        E 20 b4 01 00
        E 20 b4 01 00
        E 20 b4 01 00
        E 20 b4 01 00
        E 20 b4 01 00
        E 20 b4 01 01
        E 20 b4 01 01
        E 20 b4 01 01
        E 20 b4 01 01
        E 20 b4 01 02
        E 20 b4 01 02
        E 20 b4 01 02
        E 20 b4 01 03
        E 20 b4 01 03
        E 20 b4 01 04
        E 20 b4 01 04
        E 20 b4 01 05
        E 20 b4 01 05
        E 20 b4 01 06
        E 20 b4 01 06
        E 20 b4 01 07
        E 20 b4 01 07
        E 20 b4 01 08
        E 20 b4 01 09
        E 20 b4 01 09
        E 20 b4 01 0a
        E 20 b4 01 0a
        E 20 b4 01 0b
        E 20 b4 01 0c
        E 20 b4 01 0c
        E 4 b4 01 40
        E 4 b4 01 43
        E 4 b4 01 46
        E 4 b4 01 49
        E 4 b4 01 4c
        E 4 b4 01 4f
        E 4 b4 01 52
        E 4 b4 01 55
        E 4 b4 01 58
        E 4 b4 01 5b
        E 4 b4 01 5e
        E 4 b4 01 60
        E 4 b4 01 63
        E 4 b4 01 66
        E 4 b4 01 68
        E 4 b4 01 6a
        E 4 b4 01 6d
        E 4 b4 01 6f
        E 4 b4 01 71
        E 4 b4 01 73
        E 4 b4 01 75
        E 4 b4 01 76
        E 4 b4 01 78
        E 4 b4 01 79
        E 4 b4 01 7a
        E 4 b4 01 7b
        E 4 b4 01 7c
        E 4 b4 01 7d
        E 4 b4 01 7e
        E 4 b4 01 7e
        E 4 b4 01 7f
        E 4 b4 01 7f
        E 4 b4 01 7f
        E 4 b4 01 7f
        E 4 b4 01 7f
        E 4 b4 01 7e
        E 4 b4 01 7e
        E 4 b4 01 7d
        E 4 b4 01 7c
        E 4 b4 01 7b
        E 4 b4 01 7a
        E 4 b4 01 78
        E 4 b4 01 77
        E 4 b4 01 75
        E 4 b4 01 74
        E 4 b4 01 72
        E 4 b4 01 70
        E 4 b4 01 6e
        E 4 b4 01 6c
        E 4 b4 01 69
        E 4 b4 01 67
        E 4 b4 01 64
        E 4 b4 01 62
        E 4 b4 01 5f
        E 4 b4 01 5c
        E 4 b4 01 59
        E 4 b4 01 57
        E 4 b4 01 54
        E 4 b4 01 51
        E 4 b4 01 4e
        E 4 b4 01 4a
        E 4 b4 01 47
        E 4 b4 01 44
        E 4 b4 01 41
        E 4 b4 01 3e
        E 4 b4 01 3b
        E 4 b4 01 38
        E 4 b4 01 35
        E 4 b4 01 31
        E 4 b4 01 2e
        E 4 b4 01 2b
        E 4 b4 01 28
        E 4 b4 01 26
        E 4 b4 01 23
        E 4 b4 01 20
        E 4 b4 01 1d
        E 4 b4 01 1b
        E 4 b4 01 18
        E 4 b4 01 16
        E 4 b4 01 13
        E 4 b4 01 11
        E 4 b4 01 0f
        E 4 b4 01 0d
        E 4 b4 01 0b
        E 4 b4 01 0a
        E 4 b4 01 08
        E 4 b4 01 07
        E 4 b4 01 05
        E 4 b4 01 04
        E 4 b4 01 03
        E 4 b4 01 02
        E 4 b4 01 01
        E 4 b4 01 01
        E 4 b4 01 00
        E 4 b4 01 00
        E 4 b4 01 00
        E 4 b4 01 00
        E 4 b4 01 00
        E 4 b4 01 01
        E 4 b4 01 01
        E 4 b4 01 02
        E 4 b4 01 03
        E 4 b4 01 04
        E 4 b4 01 05
        E 4 b4 01 06
        E 4 b4 01 07
        E 4 b4 01 09
        E 4 b4 01 0a
        E 4 b4 01 0c
        E 4 b4 01 0e
        E 4 b4 01 10
        E 4 b4 01 12
        E 4 b4 01 15
        E 4 b4 01 17
        E 4 b4 01 19
        E 4 b4 01 1c
        E 4 b4 01 1f
        E 4 b4 01 21
        E 4 b4 01 24
        E 4 b4 01 27
        E 4 b4 01 2a
        E 4 b4 01 2d
        E 4 b4 01 30
        E 4 b4 01 33
        E 4 b4 01 36
        E 4 b4 01 39
        E 4 b4 01 3c
        E 4 b4 01 40
        E 16 b4 01 06
        E 16 b4 01 06
        E 16 b4 01 07
        E 16 b4 01 07
        E 16 b4 01 07
        E 16 b4 01 07
        E 16 b4 01 08
        E 16 b4 01 08
        E 16 b4 01 08
        E 16 b4 01 09
        E 16 b4 01 09
        E 16 b4 01 09
        E 16 b4 01 09
        E 16 b4 01 0a
        E 16 b4 01 0a
        E 16 b4 01 0a
        E 16 b4 01 0a
        E 16 b4 01 0b
        E 16 b4 01 0b
        E 16 b4 01 0b
        E 16 b4 01 0b
        E 16 b4 01 0b
        E 16 b4 01 0c
        E 16 b4 01 0c
        E 16 b4 01 0c
        E 16 b4 01 0c
        E 16 b4 01 0c
        E 16 b4 01 0c
        E 16 b4 01 0c
        E 16 b4 01 0c
        E 16 b4 01 0c
        E 16 b4 01 0c
        E 16 b4 01 0c
        E 16 b4 01 0c
        E 16 b4 01 0c
        E 16 b4 01 0c
        E 16 b4 01 0c
        E 16 b4 01 0c
        E 16 b4 01 0c
        E 16 b4 01 0c
        E 16 b4 01 0c
        E 16 b4 01 0c
        E 16 b4 01 0b
        E 16 b4 01 0b
        E 16 b4 01 0b
        E 16 b4 01 0b
        E 16 b4 01 0b
        E 16 b4 01 0b
        E 16 b4 01 0a
        E 16 b4 01 0a
        E 16 b4 01 0a
        E 16 b4 01 0a
        E 16 b4 01 09
        E 16 b4 01 09
        E 16 b4 01 09
        E 16 b4 01 08
        E 16 b4 01 08
        E 16 b4 01 08
        E 16 b4 01 08
        E 16 b4 01 07
        E 16 b4 01 07
        E 16 b4 01 07
        E 16 b4 01 06
        E 16 b4 01 06
        E 16 b4 01 06
        E 16 b4 01 05
        E 16 b4 01 05
        E 16 b4 01 05
        E 16 b4 01 04
        E 16 b4 01 04
        E 16 b4 01 04
        E 16 b4 01 04
        E 16 b4 01 03
        E 16 b4 01 03
        E 16 b4 01 03
        E 16 b4 01 02
        E 16 b4 01 02
        E 16 b4 01 02
        E 16 b4 01 02
        E 16 b4 01 01
        E 16 b4 01 01
        E 16 b4 01 01
        E 16 b4 01 01
        E 16 b4 01 01
        E 16 b4 01 01
        E 16 b4 01 00
        E 16 b4 01 00
        E 16 b4 01 00
        E 16 b4 01 00
        E 16 b4 01 00
        E 16 b4 01 00
        E 16 b4 01 00
        E 16 b4 01 00
        E 16 b4 01 00
        E 16 b4 01 00
        E 16 b4 01 00
        E 16 b4 01 00
        E 16 b4 01 00
        E 16 b4 01 00
        E 16 b4 01 00
        E 16 b4 01 00
        E 16 b4 01 00
        E 16 b4 01 00
        E 16 b4 01 00
        E 16 b4 01 00
        E 16 b4 01 00
        E 16 b4 01 00
        E 16 b4 01 01
        E 16 b4 01 01
        E 16 b4 01 01
        E 16 b4 01 01
        E 16 b4 01 01
        E 16 b4 01 02
        E 16 b4 01 02
        E 16 b4 01 02
        E 16 b4 01 02
        E 16 b4 01 03
        E 16 b4 01 03
        E 16 b4 01 03
        E 16 b4 01 03
        E 16 b4 01 04
        E 16 b4 01 04
        E 16 b4 01 04
        E 16 b4 01 05
        E 16 b4 01 05
        E 16 b4 01 05
        E 16 b4 01 06
        E 16 b4 01 06
        E 16 b4 01 40
        E 16 b4 01 43
        E 16 b4 01 46
        E 16 b4 01 49
        E 16 b4 01 4c
        E 16 b4 01 4f
        E 16 b4 01 52
        E 16 b4 01 55
        E 16 b4 01 58
        E 16 b4 01 5b
        E 16 b4 01 5e
        E 16 b4 01 60
        E 16 b4 01 63
        E 16 b4 01 66
        E 16 b4 01 68
        E 16 b4 01 6a
        E 16 b4 01 6d
        E 16 b4 01 6f
        E 16 b4 01 71
        E 16 b4 01 73
        E 16 b4 01 75
        E 16 b4 01 76
        E 16 b4 01 78
        E 16 b4 01 79
        E 16 b4 01 7a
        E 16 b4 01 7b
        E 16 b4 01 7c
        E 16 b4 01 7d
        E 16 b4 01 7e
        E 16 b4 01 7e
        E 16 b4 01 7f
        E 16 b4 01 7f
        E 16 b4 01 7f
        E 16 b4 01 7f
        E 16 b4 01 7f
        E 16 b4 01 7e
        E 16 b4 01 7e
        E 16 b4 01 7d
        E 16 b4 01 7c
        E 16 b4 01 7b
        E 16 b4 01 7a
        E 16 b4 01 78
        E 16 b4 01 77
        E 16 b4 01 75
        E 16 b4 01 74
        E 16 b4 01 72
        E 16 b4 01 70
        E 16 b4 01 6e
        E 16 b4 01 6c
        E 16 b4 01 69
        E 16 b4 01 67
        E 16 b4 01 64
        E 16 b4 01 62
        E 16 b4 01 5f
        E 16 b4 01 5c
        E 16 b4 01 59
        E 16 b4 01 57
        E 16 b4 01 54
        E 16 b4 01 51
        E 16 b4 01 4e
        E 16 b4 01 4a
        E 16 b4 01 47
        E 16 b4 01 44
        E 16 b4 01 41
        E 16 b4 01 3e
        E 16 b4 01 3b
        E 16 b4 01 38
        E 16 b4 01 35
        E 16 b4 01 31
        E 16 b4 01 2e
        E 16 b4 01 2b
        E 16 b4 01 28
        E 16 b4 01 26
        E 16 b4 01 23
        E 16 b4 01 20
        E 16 b4 01 1d
        E 16 b4 01 1b
        E 16 b4 01 18
        E 16 b4 01 16
        E 16 b4 01 13
        E 16 b4 01 11
        E 16 b4 01 0f
        E 16 b4 01 0d
        E 16 b4 01 0b
        E 16 b4 01 0a
        E 16 b4 01 08
        E 16 b4 01 07
        E 16 b4 01 05
        E 16 b4 01 04
        E 16 b4 01 03
        E 16 b4 01 02
        E 16 b4 01 01
        E 16 b4 01 01
        E 16 b4 01 00
        E 16 b4 01 00
        E 16 b4 01 00
        E 16 b4 01 00
        E 16 b4 01 00
        E 16 b4 01 01
        E 16 b4 01 01
        E 16 b4 01 02
        E 16 b4 01 03
        E 16 b4 01 04
        E 16 b4 01 05
        E 16 b4 01 06
        E 16 b4 01 07
        E 16 b4 01 09
        E 16 b4 01 0a
        E 16 b4 01 0c
        E 16 b4 01 0e
        E 16 b4 01 10
        E 16 b4 01 12
        E 16 b4 01 15
        E 16 b4 01 17
        E 16 b4 01 19
        E 16 b4 01 1c
        E 16 b4 01 1f
        E 16 b4 01 21
        E 16 b4 01 24
        E 16 b4 01 27
        E 16 b4 01 2a
        E 16 b4 01 2d
        E 16 b4 01 30
        E 16 b4 01 33
        E 16 b4 01 36
        E 16 b4 01 39
        E 16 b4 01 3c
        E 16 b4 01 40
        E 20 b4 01 06
        E 20 b4 01 06
        E 20 b4 01 07
        E 20 b4 01 07
        E 20 b4 01 07
        E 20 b4 01 07
        E 20 b4 01 08
        E 20 b4 01 08
        E 20 b4 01 08
        E 20 b4 01 09
        E 20 b4 01 09
        E 20 b4 01 09
        E 20 b4 01 09
        E 20 b4 01 0a
        E 20 b4 01 0a
        E 20 b4 01 0a
        E 20 b4 01 0a
        E 20 b4 01 0b
        E 20 b4 01 0b
        E 20 b4 01 0b
        E 20 b4 01 0b
        E 20 b4 01 0b
        E 20 b4 01 0c
        E 20 b4 01 0c
        E 20 b4 01 0c
        E 20 b4 01 0c
        E 20 b4 01 0c
        E 20 b4 01 0c
        E 20 b4 01 0c
        E 20 b4 01 0c
        E 20 b4 01 0c
        E 20 b4 01 0c
        E 20 b4 01 0c
        E 20 b4 01 0c
        E 20 b4 01 0c
        E 20 b4 01 0c
        E 20 b4 01 0c
        E 20 b4 01 0c
        E 20 b4 01 0c
        E 20 b4 01 0c
        E 20 b4 01 0c
        E 20 b4 01 0c
        E 20 b4 01 0b
        E 20 b4 01 0b
        E 20 b4 01 0b
        E 20 b4 01 0b
        E 20 b4 01 0b
        E 20 b4 01 0b
        E 20 b4 01 0a
        E 20 b4 01 0a
        E 20 b4 01 0a
        E 20 b4 01 0a
        E 20 b4 01 09
        E 20 b4 01 09
        E 20 b4 01 09
        E 20 b4 01 08
        E 20 b4 01 08
        E 20 b4 01 08
        E 20 b4 01 08
        E 20 b4 01 07
        E 20 b4 01 07
        E 20 b4 01 07
        E 20 b4 01 06
        E 20 b4 01 06
        E 20 b4 01 06
        E 20 b4 01 05
        E 20 b4 01 05
        E 20 b4 01 05
        E 20 b4 01 04
        E 20 b4 01 04
        E 20 b4 01 04
        E 20 b4 01 04
        E 20 b4 01 03
        E 20 b4 01 03
        E 20 b4 01 03
        E 20 b4 01 02
        E 20 b4 01 02
        E 20 b4 01 02
        E 20 b4 01 02
        E 20 b4 01 01
        E 20 b4 01 01
        E 20 b4 01 01
        E 20 b4 01 01
        E 20 b4 01 01
        E 20 b4 01 01
        E 20 b4 01 00
        E 20 b4 01 00
        E 20 b4 01 00
        E 20 b4 01 00
        E 20 b4 01 00
        E 20 b4 01 00
        E 20 b4 01 00
        E 20 b4 01 00
        E 20 b4 01 00
        E 20 b4 01 00
        E 20 b4 01 00
        E 20 b4 01 00
        E 20 b4 01 00
        E 20 b4 01 00
        E 20 b4 01 00
        E 20 b4 01 00
        E 20 b4 01 00
        E 20 b4 01 00
        E 20 b4 01 00
        E 20 b4 01 00
        E 20 b4 01 00
        E 20 b4 01 00
        E 20 b4 01 01
        E 20 b4 01 01
        E 20 b4 01 01
        E 20 b4 01 01
        E 20 b4 01 01
        E 20 b4 01 02
        E 20 b4 01 02
        E 20 b4 01 02
        E 20 b4 01 02
        E 20 b4 01 03
        E 20 b4 01 03
        E 20 b4 01 03
        E 20 b4 01 03
        E 20 b4 01 04
        E 20 b4 01 04
        E 20 b4 01 04
        E 20 b4 01 05
        E 20 b4 01 05
        E 20 b4 01 05
        E 20 b4 01 06
        E 20 b4 01 06
        E 4 b4 01 19
        E 4 b4 01 1a
        E 4 b4 01 1c
        E 4 b4 01 1d
        E 4 b4 01 1e
        E 4 b4 01 1f
        E 4 b4 01 20
        E 4 b4 01 22
        E 4 b4 01 23
        E 4 b4 01 24
        E 4 b4 01 25
        E 4 b4 01 26
        E 4 b4 01 27
        E 4 b4 01 28
        E 4 b4 01 29
        E 4 b4 01 2a
        E 4 b4 01 2b
        E 4 b4 01 2c
        E 4 b4 01 2d
        E 4 b4 01 2e
        E 4 b4 01 2e
        E 4 b4 01 2f
        E 4 b4 01 30
        E 4 b4 01 30
        E 4 b4 01 30
        E 4 b4 01 31
        E 4 b4 01 31
        E 4 b4 01 32
        E 4 b4 01 32
        E 4 b4 01 32
        E 4 b4 01 32
        E 4 b4 01 32
        E 4 b4 01 32
        E 4 b4 01 32
        E 4 b4 01 32
        E 4 b4 01 32
        E 4 b4 01 32
        E 4 b4 01 32
        E 4 b4 01 31
        E 4 b4 01 31
        E 4 b4 01 30
        E 4 b4 01 30
        E 4 b4 01 2f
        E 4 b4 01 2e
        E 4 b4 01 2e
        E 4 b4 01 2d
        E 4 b4 01 2c
        E 4 b4 01 2c
        E 4 b4 01 2b
        E 4 b4 01 2a
        E 4 b4 01 29
        E 4 b4 01 28
        E 4 b4 01 27
        E 4 b4 01 26
        E 4 b4 01 24
        E 4 b4 01 23
        E 4 b4 01 22
        E 4 b4 01 21
        E 4 b4 01 20
        E 4 b4 01 1f
        E 4 b4 01 1d
        E 4 b4 01 1c
        E 4 b4 01 1b
        E 4 b4 01 1a
        E 4 b4 01 18
        E 4 b4 01 17
        E 4 b4 01 16
        E 4 b4 01 15
        E 4 b4 01 13
        E 4 b4 01 12
        E 4 b4 01 11
        E 4 b4 01 10
        E 4 b4 01 0f
        E 4 b4 01 0e
        E 4 b4 01 0c
        E 4 b4 01 0b
        E 4 b4 01 0a
        E 4 b4 01 09
        E 4 b4 01 08
        E 4 b4 01 07
        E 4 b4 01 06
        E 4 b4 01 06
        E 4 b4 01 05
        E 4 b4 01 04
        E 4 b4 01 04
        E 4 b4 01 03
        E 4 b4 01 02
        E 4 b4 01 02
        E 4 b4 01 01
        E 4 b4 01 01
        E 4 b4 01 00
        E 4 b4 01 00
        E 4 b4 01 00
        E 4 b4 01 00
        E 4 b4 01 00
        E 4 b4 01 00
        E 4 b4 01 00
        E 4 b4 01 00
        E 4 b4 01 00
        E 4 b4 01 00
        E 4 b4 01 00
        E 4 b4 01 01
        E 4 b4 01 01
        E 4 b4 01 02
        E 4 b4 01 02
        E 4 b4 01 02
        E 4 b4 01 03
        E 4 b4 01 04
        E 4 b4 01 04
        E 4 b4 01 05
        E 4 b4 01 06
        E 4 b4 01 07
        E 4 b4 01 08
        E 4 b4 01 09
        E 4 b4 01 0a
        E 4 b4 01 0b
        E 4 b4 01 0c
        E 4 b4 01 0d
        E 4 b4 01 0e
        E 4 b4 01 0f
        E 4 b4 01 10
        E 4 b4 01 12
        E 4 b4 01 13
        E 4 b4 01 14
        E 4 b4 01 15
        E 4 b4 01 16
        E 4 b4 01 18
        E 4 b4 01 19
        E 20 b4 01 0c
        E 20 b4 01 0d
        E 20 b4 01 0e
        E 20 b4 01 0e
        E 20 b4 01 0f
        E 20 b4 01 0f
        E 20 b4 01 10
        E 20 b4 01 11
        E 20 b4 01 11
        E 20 b4 01 12
        E 20 b4 01 12
        E 20 b4 01 13
        E 20 b4 01 13
        E 20 b4 01 14
        E 20 b4 01 14
        E 20 b4 01 15
        E 20 b4 01 15
        E 20 b4 01 16
        E 20 b4 01 16
        E 20 b4 01 17
        E 20 b4 01 17
        E 20 b4 01 17
        E 20 b4 01 18
        E 20 b4 01 18
        E 20 b4 01 18
        E 20 b4 01 18
        E 20 b4 01 18
        E 20 b4 01 19
        E 20 b4 01 19
        E 20 b4 01 19
        E 20 b4 01 19
        E 20 b4 01 19
        E 20 b4 01 19
        E 20 b4 01 19
        E 20 b4 01 19
        E 20 b4 01 19
        E 20 b4 01 19
        E 20 b4 01 19
        E 20 b4 01 18
        E 20 b4 01 18
        E 20 b4 01 18
        E 20 b4 01 18
        E 20 b4 01 17
        E 20 b4 01 17
        E 20 b4 01 17
        E 20 b4 01 16
        E 20 b4 01 16
        E 20 b4 01 16
        E 20 b4 01 15
        E 20 b4 01 15
        E 20 b4 01 14
        E 20 b4 01 14
        E 20 b4 01 13
        E 20 b4 01 13
        E 20 b4 01 12
        E 20 b4 01 11
        E 20 b4 01 11
        E 20 b4 01 10
        E 20 b4 01 10
        E 20 b4 01 0f
        E 20 b4 01 0e
        E 20 b4 01 0e
        E 20 b4 01 0d
        E 20 b4 01 0d
        E 20 b4 01 0c
        E 20 b4 01 0b
        E 20 b4 01 0b
        E 20 b4 01 0a
        E 20 b4 01 09
        E 20 b4 01 09
        E 20 b4 01 08
        E 20 b4 01 08
        E 20 b4 01 07
        E 20 b4 01 07
        E 20 b4 01 06
        E 20 b4 01 05
        E 20 b4 01 05
        E 20 b4 01 04
        E 20 b4 01 04
        E 20 b4 01 03
        E 20 b4 01 03
        E 20 b4 01 03
        E 20 b4 01 02
        E 20 b4 01 02
        E 20 b4 01 02
        E 20 b4 01 01
        E 20 b4 01 01
        E 20 b4 01 01
        E 20 b4 01 00
        E 20 b4 01 00
        E 20 b4 01 00
        E 20 b4 01 00
        E 20 b4 01 00
        E 20 b4 01 00
        E 20 b4 01 00
        E 20 b4 01 00
        E 20 b4 01 00
        E 20 b4 01 00
        E 20 b4 01 00
        E 20 b4 01 00
        E 20 b4 01 00
        E 20 b4 01 00
        E 20 b4 01 00
        E 20 b4 01 01
        E 20 b4 01 01
        E 20 b4 01 01
        E 20 b4 01 01
        E 20 b4 01 02
        E 20 b4 01 02
        E 20 b4 01 02
        E 20 b4 01 03
        E 20 b4 01 03
        E 20 b4 01 04
        E 20 b4 01 04
        E 20 b4 01 05
        E 20 b4 01 05
        E 20 b4 01 06
        E 20 b4 01 06
        E 20 b4 01 07
        E 20 b4 01 07
        E 20 b4 01 08
        E 20 b4 01 09
        E 20 b4 01 09
        E 20 b4 01 0a
        E 20 b4 01 0a
        E 20 b4 01 0b
        E 20 b4 01 0c
        E 20 b4 01 0c
        E 4 b4 01 40
        E 4 b4 01 43
        E 4 b4 01 46
        E 4 b4 01 49
        E 4 b4 01 4c
        E 4 b4 01 4f
        E 4 b4 01 52
        E 4 b4 01 55
        E 4 b4 01 58
        E 4 b4 01 5b
        E 4 b4 01 5e
        E 4 b4 01 60
        E 4 b4 01 63
        E 4 b4 01 66
        E 4 b4 01 68
        E 4 b4 01 6a
        E 4 b4 01 6d
        E 4 b4 01 6f
        E 4 b4 01 71
        E 4 b4 01 73
        E 4 b4 01 75
        E 4 b4 01 76
        E 4 b4 01 78
        E 4 b4 01 79
        E 4 b4 01 7a
        E 4 b4 01 7b
        E 4 b4 01 7c
        E 4 b4 01 7d
        E 4 b4 01 7e
        E 4 b4 01 7e
        E 4 b4 01 7f
        E 4 b4 01 7f
        E 4 b4 01 7f
        E 4 b4 01 7f
        E 4 b4 01 7f
        E 4 b4 01 7e
        E 4 b4 01 7e
        E 4 b4 01 7d
        E 4 b4 01 7c
        E 4 b4 01 7b
        E 4 b4 01 7a
        E 4 b4 01 78
        E 4 b4 01 77
        E 4 b4 01 75
        E 4 b4 01 74
        E 4 b4 01 72
        E 4 b4 01 70
        E 4 b4 01 6e
        E 4 b4 01 6c
        E 4 b4 01 69
        E 4 b4 01 67
        E 4 b4 01 64
        E 4 b4 01 62
        E 4 b4 01 5f
        E 4 b4 01 5c
        E 4 b4 01 59
        E 4 b4 01 57
        E 4 b4 01 54
        E 4 b4 01 51
        E 4 b4 01 4e
        E 4 b4 01 4a
        E 4 b4 01 47
        E 4 b4 01 44
        E 4 b4 01 41
        E 4 b4 01 3e
        E 4 b4 01 3b
        E 4 b4 01 38
        E 4 b4 01 35
        E 4 b4 01 31
        E 4 b4 01 2e
        E 4 b4 01 2b
        E 4 b4 01 28
        E 4 b4 01 26
        E 4 b4 01 23
        E 4 b4 01 20
        E 4 b4 01 1d
        E 4 b4 01 1b
        E 4 b4 01 18
        E 4 b4 01 16
        E 4 b4 01 13
        E 4 b4 01 11
        E 4 b4 01 0f
        E 4 b4 01 0d
        E 4 b4 01 0b
        E 4 b4 01 0a
        E 4 b4 01 08
        E 4 b4 01 07
        E 4 b4 01 05
        E 4 b4 01 04
        E 4 b4 01 03
        E 4 b4 01 02
        E 4 b4 01 01
        E 4 b4 01 01
        E 4 b4 01 00
        E 4 b4 01 00
        E 4 b4 01 00
        E 4 b4 01 00
        E 4 b4 01 00
        E 4 b4 01 01
        E 4 b4 01 01
        E 4 b4 01 02
        E 4 b4 01 03
        E 4 b4 01 04
        E 4 b4 01 05
        E 4 b4 01 06
        E 4 b4 01 07
        E 4 b4 01 09
        E 4 b4 01 0a
        E 4 b4 01 0c
        E 4 b4 01 0e
        E 4 b4 01 10
        E 4 b4 01 12
        E 4 b4 01 15
        E 4 b4 01 17
        E 4 b4 01 19
        E 4 b4 01 1c
        E 4 b4 01 1f
        E 4 b4 01 21
        E 4 b4 01 24
        E 4 b4 01 27
        E 4 b4 01 2a
        E 4 b4 01 2d
        E 4 b4 01 30
        E 4 b4 01 33
        E 4 b4 01 36
        E 4 b4 01 39
        E 4 b4 01 3c
        E 4 b4 01 40
        E 16 b4 01 06
        E 16 b4 01 06
        E 16 b4 01 07
        E 16 b4 01 07
        E 16 b4 01 07
        E 16 b4 01 07
        E 16 b4 01 08
        E 16 b4 01 08
        E 16 b4 01 08
        E 16 b4 01 09
        E 16 b4 01 09
        E 16 b4 01 09
        E 16 b4 01 09
        E 16 b4 01 0a
        E 16 b4 01 0a
        E 16 b4 01 0a
        E 16 b4 01 0a
        E 16 b4 01 0b
        E 16 b4 01 0b
        E 16 b4 01 0b
        E 16 b4 01 0b
        E 16 b4 01 0b
        E 16 b4 01 0c
        E 16 b4 01 0c
        E 16 b4 01 0c
        E 16 b4 01 0c
        E 16 b4 01 0c
        E 16 b4 01 0c
        E 16 b4 01 0c
        E 16 b4 01 0c
        E 16 b4 01 0c
        E 16 b4 01 0c
        E 16 b4 01 0c
        E 16 b4 01 0c
        E 16 b4 01 0c
        E 16 b4 01 0c
        E 16 b4 01 0c
        E 16 b4 01 0c
        E 16 b4 01 0c
        E 16 b4 01 0c
        E 16 b4 01 0c
        E 16 b4 01 0c
        E 16 b4 01 0b
        E 16 b4 01 0b
        E 16 b4 01 0b
        E 16 b4 01 0b
        E 16 b4 01 0b
        E 16 b4 01 0b
        E 16 b4 01 0a
        E 16 b4 01 0a
        E 16 b4 01 0a
        E 16 b4 01 0a
        E 16 b4 01 09
        E 16 b4 01 09
        E 16 b4 01 09
        E 16 b4 01 08
        E 16 b4 01 08
        E 16 b4 01 08
        E 16 b4 01 08
        E 16 b4 01 07
        E 16 b4 01 07
        E 16 b4 01 07
        E 16 b4 01 06
        E 16 b4 01 06
        E 16 b4 01 06
        E 16 b4 01 05
        E 16 b4 01 05
        E 16 b4 01 05
        E 16 b4 01 04
        E 16 b4 01 04
        E 16 b4 01 04
        E 16 b4 01 04
        E 16 b4 01 03
        E 16 b4 01 03
        E 16 b4 01 03
        E 16 b4 01 02
        E 16 b4 01 02
        E 16 b4 01 02
        E 16 b4 01 02
        E 16 b4 01 01
        E 16 b4 01 01
        E 16 b4 01 01
        E 16 b4 01 01
        E 16 b4 01 01
        E 16 b4 01 01
        E 16 b4 01 00
        E 16 b4 01 00
        E 16 b4 01 00
        E 16 b4 01 00
        E 16 b4 01 00
        E 16 b4 01 00
        E 16 b4 01 00
        E 16 b4 01 00
        E 16 b4 01 00
        E 16 b4 01 00
        E 16 b4 01 00
        E 16 b4 01 00
        E 16 b4 01 00
        E 16 b4 01 00
        E 16 b4 01 00
        E 16 b4 01 00
        E 16 b4 01 00
        E 16 b4 01 00
        E 16 b4 01 00
        E 16 b4 01 00
        E 16 b4 01 00
        E 16 b4 01 00
        E 16 b4 01 01
        E 16 b4 01 01
        E 16 b4 01 01
        E 16 b4 01 01
        E 16 b4 01 01
        E 16 b4 01 02
        E 16 b4 01 02
        E 16 b4 01 02
        E 16 b4 01 02
        E 16 b4 01 03
        E 16 b4 01 03
        E 16 b4 01 03
        E 16 b4 01 03
        E 16 b4 01 04
        E 16 b4 01 04
        E 16 b4 01 04
        E 16 b4 01 05
        E 16 b4 01 05
        E 16 b4 01 05
        E 16 b4 01 06
        E 16 b4 01 06
        E 16 b4 01 40
        E 16 b4 01 43
        E 16 b4 01 46
        E 16 b4 01 49
        E 16 b4 01 4c
        E 16 b4 01 4f
        E 16 b4 01 52
        E 16 b4 01 55
        E 16 b4 01 58
        E 16 b4 01 5b
        E 16 b4 01 5e
        E 16 b4 01 60
        E 16 b4 01 63
        E 16 b4 01 66
        E 16 b4 01 68
        E 16 b4 01 6a
        E 16 b4 01 6d
        E 16 b4 01 6f
        E 16 b4 01 71
        E 16 b4 01 73
        E 16 b4 01 75
        E 16 b4 01 76
        E 16 b4 01 78
        E 16 b4 01 79
        E 16 b4 01 7a
        E 16 b4 01 7b
        E 16 b4 01 7c
        E 16 b4 01 7d
        E 16 b4 01 7e
        E 16 b4 01 7e
        E 16 b4 01 7f
        E 16 b4 01 7f
        E 16 b4 01 7f
        E 16 b4 01 7f
        E 16 b4 01 7f
        E 16 b4 01 7e
        E 16 b4 01 7e
        E 16 b4 01 7d
        E 16 b4 01 7c
        E 16 b4 01 7b
        E 16 b4 01 7a
        E 16 b4 01 78
        E 16 b4 01 77
        E 16 b4 01 75
        E 16 b4 01 74
        E 16 b4 01 72
        E 16 b4 01 70
        E 16 b4 01 6e
        E 16 b4 01 6c
        E 16 b4 01 69
        E 16 b4 01 67
        E 16 b4 01 64
        E 16 b4 01 62
        E 16 b4 01 5f
        E 16 b4 01 5c
        E 16 b4 01 59
        E 16 b4 01 57
        E 16 b4 01 54
        E 16 b4 01 51
        E 16 b4 01 4e
        E 16 b4 01 4a
        E 16 b4 01 47
        E 16 b4 01 44
        E 16 b4 01 41
        E 16 b4 01 3e
        E 16 b4 01 3b
        E 16 b4 01 38
        E 16 b4 01 35
        E 16 b4 01 31
        E 16 b4 01 2e
        E 16 b4 01 2b
        E 16 b4 01 28
        E 16 b4 01 26
        E 16 b4 01 23
        E 16 b4 01 20
        E 16 b4 01 1d
        E 16 b4 01 1b
        E 16 b4 01 18
        E 16 b4 01 16
        E 16 b4 01 13
        E 16 b4 01 11
        E 16 b4 01 0f
        E 16 b4 01 0d
        E 16 b4 01 0b
        E 16 b4 01 0a
        E 16 b4 01 08
        E 16 b4 01 07
        E 16 b4 01 05
        E 16 b4 01 04
        E 16 b4 01 03
        E 16 b4 01 02
        E 16 b4 01 01
        E 16 b4 01 01
        E 16 b4 01 00
        E 16 b4 01 00
        E 16 b4 01 00
        E 16 b4 01 00
        E 16 b4 01 00
        E 16 b4 01 01
        E 16 b4 01 01
        E 16 b4 01 02
        E 16 b4 01 03
        E 16 b4 01 04
        E 16 b4 01 05
        E 16 b4 01 06
        E 16 b4 01 07
        E 16 b4 01 09
        E 16 b4 01 0a
        E 16 b4 01 0c
        E 16 b4 01 0e
        E 16 b4 01 10
        E 16 b4 01 12
        E 16 b4 01 15
        E 16 b4 01 17
        E 16 b4 01 19
        E 16 b4 01 1c
        E 16 b4 01 1f
        E 16 b4 01 21
        E 16 b4 01 24
        E 16 b4 01 27
        E 16 b4 01 2a
        E 16 b4 01 2d
        E 16 b4 01 30
        E 16 b4 01 33
        E 16 b4 01 36
        E 16 b4 01 39
        E 16 b4 01 3c
        E 16 b4 01 40
        E 20 b4 01 06
        E 20 b4 01 06
        E 20 b4 01 07
        E 20 b4 01 07
        E 20 b4 01 07
        E 20 b4 01 07
        E 20 b4 01 08
        E 20 b4 01 08
        E 20 b4 01 08
        E 20 b4 01 09
        E 20 b4 01 09
        E 20 b4 01 09
        E 20 b4 01 09
        E 20 b4 01 0a
        E 20 b4 01 0a
        E 20 b4 01 0a
        E 20 b4 01 0a
        E 20 b4 01 0b
        E 20 b4 01 0b
        E 20 b4 01 0b
        E 20 b4 01 0b
        E 20 b4 01 0b
        E 20 b4 01 0c
        E 20 b4 01 0c
        E 20 b4 01 0c
        E 20 b4 01 0c
        E 20 b4 01 0c
        E 20 b4 01 0c
        E 20 b4 01 0c
        E 20 b4 01 0c
        E 20 b4 01 0c
        E 20 b4 01 0c
        E 20 b4 01 0c
        E 20 b4 01 0c
        E 20 b4 01 0c
        E 20 b4 01 0c
        E 20 b4 01 0c
        E 20 b4 01 0c
        E 20 b4 01 0c
        E 20 b4 01 0c
        E 20 b4 01 0c
        E 20 b4 01 0c
        E 20 b4 01 0b
        E 20 b4 01 0b
        E 20 b4 01 0b
        E 20 b4 01 0b
        E 20 b4 01 0b
        E 20 b4 01 0b
        E 20 b4 01 0a
        E 20 b4 01 0a
        E 20 b4 01 0a
        E 20 b4 01 0a
        E 20 b4 01 09
        E 20 b4 01 09
        E 20 b4 01 09
        E 20 b4 01 08
        E 20 b4 01 08
        E 20 b4 01 08
        E 20 b4 01 08
        E 20 b4 01 07
        E 20 b4 01 07
        E 20 b4 01 07
        E 20 b4 01 06
        E 20 b4 01 06
        E 20 b4 01 06
        E 20 b4 01 05
        E 20 b4 01 05
        E 20 b4 01 05
        E 20 b4 01 04
        E 20 b4 01 04
        E 20 b4 01 04
        E 20 b4 01 04
        E 20 b4 01 03
        E 20 b4 01 03
        E 20 b4 01 03
        E 20 b4 01 02
        E 20 b4 01 02
        E 20 b4 01 02
        E 20 b4 01 02
        E 20 b4 01 01
        E 20 b4 01 01
        E 20 b4 01 01
        E 20 b4 01 01
        E 20 b4 01 01
        E 20 b4 01 01
        E 20 b4 01 00
        E 20 b4 01 00
        E 20 b4 01 00
        E 20 b4 01 00
        E 20 b4 01 00
        E 20 b4 01 00
        E 20 b4 01 00
        E 20 b4 01 00
        E 20 b4 01 00
        E 20 b4 01 00
        E 20 b4 01 00
        E 20 b4 01 00
        E 20 b4 01 00
        E 20 b4 01 00
        E 20 b4 01 00
        E 20 b4 01 00
        E 20 b4 01 00
        E 20 b4 01 00
        E 20 b4 01 00
        E 20 b4 01 00
        E 20 b4 01 00
        E 20 b4 01 00
        E 20 b4 01 01
        E 20 b4 01 01
        E 20 b4 01 01
        E 20 b4 01 01
        E 20 b4 01 01
        E 20 b4 01 02
        E 20 b4 01 02
        E 20 b4 01 02
        E 20 b4 01 02
        E 20 b4 01 03
        E 20 b4 01 03
        E 20 b4 01 03
        E 20 b4 01 03
        E 20 b4 01 04
        E 20 b4 01 04
        E 20 b4 01 04
        E 20 b4 01 05
        E 20 b4 01 05
        E 20 b4 01 05
        E 20 b4 01 06
        E 20 b4 01 06
        E 4 b4 01 19
        E 4 b4 01 1a
        E 4 b4 01 1c
        E 4 b4 01 1d
        E 4 b4 01 1e
        E 4 b4 01 1f
        E 4 b4 01 20
        E 4 b4 01 22
        E 4 b4 01 23
        E 4 b4 01 24
        E 4 b4 01 25
        E 4 b4 01 26
        E 4 b4 01 27
        E 4 b4 01 28
        E 4 b4 01 29
        E 4 b4 01 2a
        E 4 b4 01 2b
        E 4 b4 01 2c
        E 4 b4 01 2d
        E 4 b4 01 2e
        E 4 b4 01 2e
        E 4 b4 01 2f
        E 4 b4 01 30
        E 4 b4 01 30
        E 4 b4 01 30
        E 4 b4 01 31
        E 4 b4 01 31
        E 4 b4 01 32
        E 4 b4 01 32
        E 4 b4 01 32
        E 4 b4 01 32
        E 4 b4 01 32
        E 4 b4 01 32
        E 4 b4 01 32
        E 4 b4 01 32
        E 4 b4 01 32
        E 4 b4 01 32
        E 4 b4 01 32
        E 4 b4 01 31
        E 4 b4 01 31
        E 4 b4 01 30
        E 4 b4 01 30
        E 4 b4 01 2f
        E 4 b4 01 2e
        E 4 b4 01 2e
        E 4 b4 01 2d
        E 4 b4 01 2c
        E 4 b4 01 2c
        E 4 b4 01 2b
        E 4 b4 01 2a
        E 4 b4 01 29
        E 4 b4 01 28
        E 4 b4 01 27
        E 4 b4 01 26
        E 4 b4 01 24
        E 4 b4 01 23
        E 4 b4 01 22
        E 4 b4 01 21
        E 4 b4 01 20
        E 4 b4 01 1f
        E 4 b4 01 1d
        E 4 b4 01 1c
        E 4 b4 01 1b
        E 4 b4 01 1a
        E 4 b4 01 18
        E 4 b4 01 17
        E 4 b4 01 16
        E 4 b4 01 15
        E 4 b4 01 13
        E 4 b4 01 12
        E 4 b4 01 11
        E 4 b4 01 10
        E 4 b4 01 0f
        E 4 b4 01 0e
        E 4 b4 01 0c
        E 4 b4 01 0b
        E 4 b4 01 0a
        E 4 b4 01 09
        E 4 b4 01 08
        E 4 b4 01 07
        E 4 b4 01 06
        E 4 b4 01 06
        E 4 b4 01 05
        E 4 b4 01 04
        E 4 b4 01 04
        E 4 b4 01 03
        E 4 b4 01 02
        E 4 b4 01 02
        E 4 b4 01 01
        E 4 b4 01 01
        E 4 b4 01 00
        E 4 b4 01 00
        E 4 b4 01 00
        E 4 b4 01 00
        E 4 b4 01 00
        E 4 b4 01 00
        E 4 b4 01 00
        E 4 b4 01 00
        E 4 b4 01 00
        E 4 b4 01 00
        E 4 b4 01 00
        E 4 b4 01 01
        E 4 b4 01 01
        E 4 b4 01 02
        E 4 b4 01 02
        E 4 b4 01 02
        E 4 b4 01 03
        E 4 b4 01 04
        E 4 b4 01 04
        E 4 b4 01 05
        E 4 b4 01 06
        E 4 b4 01 07
        E 4 b4 01 08
        E 4 b4 01 09
        E 4 b4 01 0a
        E 4 b4 01 0b
        E 4 b4 01 0c
        E 4 b4 01 0d
        E 4 b4 01 0e
        E 4 b4 01 0f
        E 4 b4 01 10
        E 4 b4 01 12
        E 4 b4 01 13
        E 4 b4 01 14
        E 4 b4 01 15
        E 4 b4 01 16
        E 4 b4 01 18
        E 4 b4 01 19
        E 20 b4 01 0c
        E 20 b4 01 0d
        E 20 b4 01 0e
        E 20 b4 01 0e
        E 20 b4 01 0f
        E 20 b4 01 0f
        E 20 b4 01 10
        E 20 b4 01 11
        E 20 b4 01 11
        E 20 b4 01 12
        E 20 b4 01 12
        E 20 b4 01 13
        E 20 b4 01 13
        E 20 b4 01 14
        E 20 b4 01 14
        E 20 b4 01 15
        E 20 b4 01 15
        E 20 b4 01 16
        E 20 b4 01 16
        E 20 b4 01 17
        E 20 b4 01 17
        E 20 b4 01 17
        E 20 b4 01 18
        E 20 b4 01 18
        E 20 b4 01 18
        E 20 b4 01 18
        E 20 b4 01 18
        E 20 b4 01 19
        E 20 b4 01 19
        E 20 b4 01 19
        E 20 b4 01 19
        E 20 b4 01 19
        E 20 b4 01 19
        E 20 b4 01 19
        E 20 b4 01 19
        E 20 b4 01 19
        E 20 b4 01 19
        E 20 b4 01 19
        E 20 b4 01 18
        E 20 b4 01 18
        E 20 b4 01 18
        E 20 b4 01 18
        E 20 b4 01 17
        E 20 b4 01 17
        E 20 b4 01 17
        E 20 b4 01 16
        E 20 b4 01 16
        E 20 b4 01 16
        E 20 b4 01 15
        E 20 b4 01 15
        E 20 b4 01 14
        E 20 b4 01 14
        E 20 b4 01 13
        E 20 b4 01 13
        E 20 b4 01 12
        E 20 b4 01 11
        E 20 b4 01 11
        E 20 b4 01 10
        E 20 b4 01 10
        E 20 b4 01 0f
        E 20 b4 01 0e
        E 20 b4 01 0e
        E 20 b4 01 0d
        E 20 b4 01 0d
        E 20 b4 01 0c
        E 20 b4 01 0b
        E 20 b4 01 0b
        E 20 b4 01 0a
        E 20 b4 01 09
        E 20 b4 01 09
        E 20 b4 01 08
        E 20 b4 01 08
        E 20 b4 01 07
        E 20 b4 01 07
        E 20 b4 01 06
        E 20 b4 01 05
        E 20 b4 01 05
        E 20 b4 01 04
        E 20 b4 01 04
        E 20 b4 01 03
        E 20 b4 01 03
        E 20 b4 01 03
        E 20 b4 01 02
        E 20 b4 01 02
        E 20 b4 01 02
        E 20 b4 01 01
        E 20 b4 01 01
        E 20 b4 01 01
        E 20 b4 01 00
        E 20 b4 01 00
        E 20 b4 01 00
        E 20 b4 01 00
        E 20 b4 01 00
        E 20 b4 01 00
        E 20 b4 01 00
        E 20 b4 01 00
        E 20 b4 01 00
        E 20 b4 01 00
        E 20 b4 01 00
        E 20 b4 01 00
        E 20 b4 01 00
        E 20 b4 01 00
        E 20 b4 01 00
        E 20 b4 01 01
        E 20 b4 01 01
        E 20 b4 01 01
        E 20 b4 01 01
        E 20 b4 01 02
        E 20 b4 01 02
        E 20 b4 01 02
        E 20 b4 01 03
        E 20 b4 01 03
        E 20 b4 01 04
        E 20 b4 01 04
        E 20 b4 01 05
        E 20 b4 01 05
        E 20 b4 01 06
        E 20 b4 01 06
        E 20 b4 01 07
        E 20 b4 01 07
        E 20 b4 01 08
        E 20 b4 01 09
        E 20 b4 01 09
        E 20 b4 01 0a
        E 20 b4 01 0a
        E 20 b4 01 0b
        E 20 b4 01 0c
        E 20 b4 01 0c
        E 4 b4 01 40
        E 4 b4 01 43
        E 4 b4 01 46
        E 4 b4 01 49
        E 4 b4 01 4c
        E 4 b4 01 4f
        E 4 b4 01 52
        E 4 b4 01 55
        E 4 b4 01 58
        E 4 b4 01 5b
        E 4 b4 01 5e
        E 4 b4 01 60
        E 4 b4 01 63
        E 4 b4 01 66
        E 4 b4 01 68
        E 4 b4 01 6a
        E 4 b4 01 6d
        E 4 b4 01 6f
        E 4 b4 01 71
        E 4 b4 01 73
        E 4 b4 01 75
        E 4 b4 01 76
        E 4 b4 01 78
        E 4 b4 01 79
        E 4 b4 01 7a
        E 4 b4 01 7b
        E 4 b4 01 7c
        E 4 b4 01 7d
        E 4 b4 01 7e
        E 4 b4 01 7e
        E 4 b4 01 7f
        E 4 b4 01 7f
        E 4 b4 01 7f
        E 4 b4 01 7f
        E 4 b4 01 7f
        E 4 b4 01 7e
        E 4 b4 01 7e
        E 4 b4 01 7d
        E 4 b4 01 7c
        E 4 b4 01 7b
        E 4 b4 01 7a
        E 4 b4 01 78
        E 4 b4 01 77
        E 4 b4 01 75
        E 4 b4 01 74
        E 4 b4 01 72
        E 4 b4 01 70
        E 4 b4 01 6e
        E 4 b4 01 6c
        E 4 b4 01 69
        E 4 b4 01 67
        E 4 b4 01 64
        E 4 b4 01 62
        E 4 b4 01 5f
        E 4 b4 01 5c
        E 4 b4 01 59
        E 4 b4 01 57
        E 4 b4 01 54
        E 4 b4 01 51
        E 4 b4 01 4e
        E 4 b4 01 4a
        E 4 b4 01 47
        E 4 b4 01 44
        E 4 b4 01 41
        E 4 b4 01 3e
        E 4 b4 01 3b
        E 4 b4 01 38
        E 4 b4 01 35
        E 4 b4 01 31
        E 4 b4 01 2e
        E 4 b4 01 2b
        E 4 b4 01 28
        E 4 b4 01 26
        E 4 b4 01 23
        E 4 b4 01 20
        E 4 b4 01 1d
        E 4 b4 01 1b
        E 4 b4 01 18
        E 4 b4 01 16
        E 4 b4 01 13
        E 4 b4 01 11
        E 4 b4 01 0f
        E 4 b4 01 0d
        E 4 b4 01 0b
        E 4 b4 01 0a
        E 4 b4 01 08
        E 4 b4 01 07
        E 4 b4 01 05
        E 4 b4 01 04
        E 4 b4 01 03
        E 4 b4 01 02
        E 4 b4 01 01
        E 4 b4 01 01
        E 4 b4 01 00
        E 4 b4 01 00
        E 4 b4 01 00
        E 4 b4 01 00
        E 4 b4 01 00
        E 4 b4 01 01
        E 4 b4 01 01
        E 4 b4 01 02
        E 4 b4 01 03
        E 4 b4 01 04
        E 4 b4 01 05
        E 4 b4 01 06
        E 4 b4 01 07
        E 4 b4 01 09
        E 4 b4 01 0a
        E 4 b4 01 0c
        E 4 b4 01 0e
        E 4 b4 01 10
        E 4 b4 01 12
        E 4 b4 01 15
        E 4 b4 01 17
        E 4 b4 01 19
        E 4 b4 01 1c
        E 4 b4 01 1f
        E 4 b4 01 21
        E 4 b4 01 24
        E 4 b4 01 27
        E 4 b4 01 2a
        E 4 b4 01 2d
        E 4 b4 01 30
        E 4 b4 01 33
        E 4 b4 01 36
        E 4 b4 01 39
        E 4 b4 01 3c
        E 4 b4 01 40
        E 16 b4 01 06
        E 16 b4 01 06
        E 16 b4 01 07
        E 16 b4 01 07
        E 16 b4 01 07
        E 16 b4 01 07
        E 16 b4 01 08
        E 16 b4 01 08
        E 16 b4 01 08
        E 16 b4 01 09
        E 16 b4 01 09
        E 16 b4 01 09
        E 16 b4 01 09
        E 16 b4 01 0a
        E 16 b4 01 0a
        E 16 b4 01 0a
        E 16 b4 01 0a
        E 16 b4 01 0b
        E 16 b4 01 0b
        E 16 b4 01 0b
        E 16 b4 01 0b
        E 16 b4 01 0b
        E 16 b4 01 0c
        E 16 b4 01 0c
        E 16 b4 01 0c
        E 16 b4 01 0c
        E 16 b4 01 0c
        E 16 b4 01 0c
        E 16 b4 01 0c
        E 16 b4 01 0c
        E 16 b4 01 0c
        E 16 b4 01 0c
        E 16 b4 01 0c
        E 16 b4 01 0c
        E 16 b4 01 0c
        E 16 b4 01 0c
        E 16 b4 01 0c
        E 16 b4 01 0c
        E 16 b4 01 0c
        E 16 b4 01 0c
        E 16 b4 01 0c
        E 16 b4 01 0c
        E 16 b4 01 0b
        E 16 b4 01 0b
        E 16 b4 01 0b
        E 16 b4 01 0b
        E 16 b4 01 0b
        E 16 b4 01 0b
        E 16 b4 01 0a
        E 16 b4 01 0a
        E 16 b4 01 0a
        E 16 b4 01 0a
        E 16 b4 01 09
        E 16 b4 01 09
        E 16 b4 01 09
        E 16 b4 01 08
        E 16 b4 01 08
        E 16 b4 01 08
        E 16 b4 01 08
        E 16 b4 01 07
        E 16 b4 01 07
        E 16 b4 01 07
        E 16 b4 01 06
        E 16 b4 01 06
        E 16 b4 01 06
        E 16 b4 01 05
        E 16 b4 01 05
        E 16 b4 01 05
        E 16 b4 01 04
        E 16 b4 01 04
        E 16 b4 01 04
        E 16 b4 01 04
        E 16 b4 01 03
        E 16 b4 01 03
        E 16 b4 01 03
        E 16 b4 01 02
        E 16 b4 01 02
        E 16 b4 01 02
        E 16 b4 01 02
        E 16 b4 01 01
        E 16 b4 01 01
        E 16 b4 01 01
        E 16 b4 01 01
        E 16 b4 01 01
        E 16 b4 01 01
        E 16 b4 01 00
        E 16 b4 01 00
        E 16 b4 01 00
        E 16 b4 01 00
        E 16 b4 01 00
        E 16 b4 01 00
        E 16 b4 01 00
        E 16 b4 01 00
        E 16 b4 01 00
        E 16 b4 01 00
        E 16 b4 01 00
        E 16 b4 01 00
        E 16 b4 01 00
        E 16 b4 01 00
        E 16 b4 01 00
        E 16 b4 01 00
        E 16 b4 01 00
        E 16 b4 01 00
        E 16 b4 01 00
        E 16 b4 01 00
        E 16 b4 01 00
        E 16 b4 01 00
        E 16 b4 01 01
        E 16 b4 01 01
        E 16 b4 01 01
        E 16 b4 01 01
        E 16 b4 01 01
        E 16 b4 01 02
        E 16 b4 01 02
        E 16 b4 01 02
        E 16 b4 01 02
        E 16 b4 01 03
        E 16 b4 01 03
        E 16 b4 01 03
        E 16 b4 01 03
        E 16 b4 01 04
        E 16 b4 01 04
        E 16 b4 01 04
        E 16 b4 01 05
        E 16 b4 01 05
        E 16 b4 01 05
        E 16 b4 01 06
        E 16 b4 01 06
        E 16 b4 01 40
        E 16 b4 01 43
        E 16 b4 01 46
        E 16 b4 01 49
        E 16 b4 01 4c
        E 16 b4 01 4f
        E 16 b4 01 52
        E 16 b4 01 55
        E 16 b4 01 58
        E 16 b4 01 5b
        E 16 b4 01 5e
        E 16 b4 01 60
        E 16 b4 01 63
        E 16 b4 01 66
        E 16 b4 01 68
        E 16 b4 01 6a
        E 16 b4 01 6d
        E 16 b4 01 6f
        E 16 b4 01 71
        E 16 b4 01 73
        E 16 b4 01 75
        E 16 b4 01 76
        E 16 b4 01 78
        E 16 b4 01 79
        E 16 b4 01 7a
        E 16 b4 01 7b
        E 16 b4 01 7c
        E 16 b4 01 7d
        E 16 b4 01 7e
        E 16 b4 01 7e
        E 16 b4 01 7f
        E 16 b4 01 7f
        E 16 b4 01 7f
        E 16 b4 01 7f
        E 16 b4 01 7f
        E 16 b4 01 7e
        E 16 b4 01 7e
        E 16 b4 01 7d
        E 16 b4 01 7c
        E 16 b4 01 7b
        E 16 b4 01 7a
        E 16 b4 01 78
        E 16 b4 01 77
        E 16 b4 01 75
        E 16 b4 01 74
        E 16 b4 01 72
        E 16 b4 01 70
        E 16 b4 01 6e
        E 16 b4 01 6c
        E 16 b4 01 69
        E 16 b4 01 67
        E 16 b4 01 64
        E 16 b4 01 62
        E 16 b4 01 5f
        E 16 b4 01 5c
        E 16 b4 01 59
        E 16 b4 01 57
        E 16 b4 01 54
        E 16 b4 01 51
        E 16 b4 01 4e
        E 16 b4 01 4a
        E 16 b4 01 47
        E 16 b4 01 44
        E 16 b4 01 41
        E 16 b4 01 3e
        E 16 b4 01 3b
        E 16 b4 01 38
        E 16 b4 01 35
        E 16 b4 01 31
        E 16 b4 01 2e
        E 16 b4 01 2b
        E 16 b4 01 28
        E 16 b4 01 26
        E 16 b4 01 23
        E 16 b4 01 20
        E 16 b4 01 1d
        E 16 b4 01 1b
        E 16 b4 01 18
        E 16 b4 01 16
        E 16 b4 01 13
        E 16 b4 01 11
        E 16 b4 01 0f
        E 16 b4 01 0d
        E 16 b4 01 0b
        E 16 b4 01 0a
        E 16 b4 01 08
        E 16 b4 01 07
        E 16 b4 01 05
        E 16 b4 01 04
        E 16 b4 01 03
        E 16 b4 01 02
        E 16 b4 01 01
        E 16 b4 01 01
        E 16 b4 01 00
        E 16 b4 01 00
        E 16 b4 01 00
        E 16 b4 01 00
        E 16 b4 01 00
        E 16 b4 01 01
        E 16 b4 01 01
        E 16 b4 01 02
        E 16 b4 01 03
        E 16 b4 01 04
        E 16 b4 01 05
        E 16 b4 01 06
        E 16 b4 01 07
        E 16 b4 01 09
        E 16 b4 01 0a
        E 16 b4 01 0c
        E 16 b4 01 0e
        E 16 b4 01 10
        E 16 b4 01 12
        E 16 b4 01 15
        E 16 b4 01 17
        E 16 b4 01 19
        E 16 b4 01 1c
        E 16 b4 01 1f
        E 16 b4 01 21
        E 16 b4 01 24
        E 16 b4 01 27
        E 16 b4 01 2a
        E 16 b4 01 2d
        E 16 b4 01 30
        E 16 b4 01 33
        E 16 b4 01 36
        E 16 b4 01 39
        E 16 b4 01 3c
        E 16 b4 01 40
        E 6 b4 01 0c
        E 6 b4 01 0d
        E 6 b4 01 0e
        E 6 b4 01 0e
        E 6 b4 01 0f
        E 6 b4 01 0f
        E 6 b4 01 10
        E 6 b4 01 11
        E 6 b4 01 11
        E 6 b4 01 12
        E 6 b4 01 12
        E 6 b4 01 13
        E 6 b4 01 13
        E 6 b4 01 14
        E 6 b4 01 14
        E 6 b4 01 15
        E 6 b4 01 15
        E 6 b4 01 16
        E 6 b4 01 16
        E 6 b4 01 17
        E 6 b4 01 17
        E 6 b4 01 17
        E 6 b4 01 18
        E 6 b4 01 18
        E 6 b4 01 18
        E 6 b4 01 18
        E 6 b4 01 18
        E 6 b4 01 19
        E 6 b4 01 19
        E 6 b4 01 19
        E 6 b4 01 19
        E 6 b4 01 19
        E 6 b4 01 19
        E 6 b4 01 19
        E 6 b4 01 19
        E 6 b4 01 19
        E 6 b4 01 19
        E 6 b4 01 19
        E 6 b4 01 18
        E 6 b4 01 18
        E 6 b4 01 18
        E 6 b4 01 18
        E 6 b4 01 17
        E 6 b4 01 17
        E 6 b4 01 17
        E 6 b4 01 16
        E 6 b4 01 16
        E 6 b4 01 16
        E 6 b4 01 15
        E 6 b4 01 15
        E 6 b4 01 14
        E 6 b4 01 14
        E 6 b4 01 13
        E 6 b4 01 13
        E 6 b4 01 12
        E 6 b4 01 11
        E 6 b4 01 11
        E 6 b4 01 10
        E 6 b4 01 10
        E 6 b4 01 0f
        E 6 b4 01 0e
        E 6 b4 01 0e
        E 6 b4 01 0d
        E 6 b4 01 0d
        E 6 b4 01 0c
        E 6 b4 01 0b
        E 6 b4 01 0b
        E 6 b4 01 0a
        E 6 b4 01 09
        E 6 b4 01 09
        E 6 b4 01 08
        E 6 b4 01 08
        E 6 b4 01 07
        E 6 b4 01 07
        E 6 b4 01 06
        E 6 b4 01 05
        E 6 b4 01 05
        E 6 b4 01 04
        E 6 b4 01 04
        E 6 b4 01 03
        E 6 b4 01 03
        E 6 b4 01 03
        E 6 b4 01 02
        E 6 b4 01 02
        E 6 b4 01 02
        E 6 b4 01 01
        E 6 b4 01 01
        E 6 b4 01 01
        E 6 b4 01 00
        E 6 b4 01 00
        E 6 b4 01 00
        E 6 b4 01 00
        E 6 b4 01 00
        E 6 b4 01 00
        E 6 b4 01 00
        E 6 b4 01 00
        E 6 b4 01 00
        E 6 b4 01 00
        E 6 b4 01 00
        E 6 b4 01 00
        E 6 b4 01 00
        E 6 b4 01 00
        E 6 b4 01 00
        E 6 b4 01 01
        E 6 b4 01 01
        E 6 b4 01 01
        E 6 b4 01 01
        E 6 b4 01 02
        E 6 b4 01 02
        E 6 b4 01 02
        E 6 b4 01 03
        E 6 b4 01 03
        E 6 b4 01 04
        E 6 b4 01 04
        E 6 b4 01 05
        E 6 b4 01 05
        E 6 b4 01 06
        E 6 b4 01 06
        E 6 b4 01 07
        E 6 b4 01 07
        E 6 b4 01 08
        E 6 b4 01 09
        E 6 b4 01 09
        E 6 b4 01 0a
        E 6 b4 01 0a
        E 6 b4 01 0b
        E 6 b4 01 0c
        E 6 b4 01 0c
        E 1 b4 01 40
        E 1 b4 01 43
        E 1 b4 01 46
        E 1 b4 01 49
        E 1 b4 01 4c
        E 1 b4 01 4f
        E 1 b4 01 52
        E 1 b4 01 55
        E 1 b4 01 58
        E 1 b4 01 5b
        E 1 b4 01 5e
        E 1 b4 01 60
        E 1 b4 01 63
        E 1 b4 01 66
        E 1 b4 01 68
        E 1 b4 01 6a
        E 1 b4 01 6d
        E 1 b4 01 6f
        E 1 b4 01 71
        E 1 b4 01 73
        E 1 b4 01 75
        E 1 b4 01 76
        E 1 b4 01 78
        E 1 b4 01 79
        E 1 b4 01 7a
        E 1 b4 01 7b
        E 1 b4 01 7c
        E 1 b4 01 7d
        E 1 b4 01 7e
        E 1 b4 01 7e
        E 1 b4 01 7f
        E 1 b4 01 7f
        E 1 b4 01 7f
        E 1 b4 01 7f
        E 1 b4 01 7f
        E 1 b4 01 7e
        E 1 b4 01 7e
        E 1 b4 01 7d
        E 1 b4 01 7c
        E 1 b4 01 7b
        E 1 b4 01 7a
        E 1 b4 01 78
        E 1 b4 01 77
        E 1 b4 01 75
        E 1 b4 01 74
        E 1 b4 01 72
        E 1 b4 01 70
        E 1 b4 01 6e
        E 1 b4 01 6c
        E 1 b4 01 69
        E 1 b4 01 67
        E 1 b4 01 64
        E 1 b4 01 62
        E 1 b4 01 5f
        E 1 b4 01 5c
        E 1 b4 01 59
        E 1 b4 01 57
        E 1 b4 01 54
        E 1 b4 01 51
        E 1 b4 01 4e
        E 1 b4 01 4a
        E 1 b4 01 47
        E 1 b4 01 44
        E 1 b4 01 41
        E 1 b4 01 3e
        E 1 b4 01 3b
        E 1 b4 01 38
        E 1 b4 01 35
        E 1 b4 01 31
        E 1 b4 01 2e
        E 1 b4 01 2b
        E 1 b4 01 28
        E 1 b4 01 26
        E 1 b4 01 23
        E 1 b4 01 20
        E 1 b4 01 1d
        E 1 b4 01 1b
        E 1 b4 01 18
        E 1 b4 01 16
        E 1 b4 01 13
        E 1 b4 01 11
        E 1 b4 01 0f
        E 1 b4 01 0d
        E 1 b4 01 0b
        E 1 b4 01 0a
        E 1 b4 01 08
        E 1 b4 01 07
        E 1 b4 01 05
        E 1 b4 01 04
        E 1 b4 01 03
        E 1 b4 01 02
        E 1 b4 01 01
        E 1 b4 01 01
        E 1 b4 01 00
        E 1 b4 01 00
        E 1 b4 01 00
        E 1 b4 01 00
        E 1 b4 01 00
        E 1 b4 01 01
        E 1 b4 01 01
        E 1 b4 01 02
        E 1 b4 01 03
        E 1 b4 01 04
        E 1 b4 01 05
        E 1 b4 01 06
        E 1 b4 01 07
        E 1 b4 01 09
        E 1 b4 01 0a
        E 1 b4 01 0c
        E 1 b4 01 0e
        E 1 b4 01 10
        E 1 b4 01 12
        E 1 b4 01 15
        E 1 b4 01 17
        E 1 b4 01 19
        E 1 b4 01 1c
        E 1 b4 01 1f
        E 1 b4 01 21
        E 1 b4 01 24
        E 1 b4 01 27
        E 1 b4 01 2a
        E 1 b4 01 2d
        E 1 b4 01 30
        E 1 b4 01 33
        E 1 b4 01 36
        E 1 b4 01 39
        E 1 b4 01 3c
        E 1 b4 01 40
        E 5 b4 01 06
        E 5 b4 01 06
        E 5 b4 01 07
        E 5 b4 01 07
        E 5 b4 01 07
        E 5 b4 01 07
        E 5 b4 01 08
        E 5 b4 01 08
        E 5 b4 01 08
        E 5 b4 01 09
        E 5 b4 01 09
        E 5 b4 01 09
        E 5 b4 01 09
        E 5 b4 01 0a
        E 5 b4 01 0a
        E 5 b4 01 0a
        E 5 b4 01 0a
        E 5 b4 01 0b
        E 5 b4 01 0b
        E 5 b4 01 0b
        E 5 b4 01 0b
        E 5 b4 01 0b
        E 5 b4 01 0c
        E 5 b4 01 0c
        E 5 b4 01 0c
        E 5 b4 01 0c
        E 5 b4 01 0c
        E 5 b4 01 0c
        E 5 b4 01 0c
        E 5 b4 01 0c
        E 5 b4 01 0c
        E 5 b4 01 0c
        E 5 b4 01 0c
        E 5 b4 01 0c
        E 5 b4 01 0c
        E 5 b4 01 0c
        E 5 b4 01 0c
        E 5 b4 01 0c
        E 5 b4 01 0c
        E 5 b4 01 0c
        E 5 b4 01 0c
        E 5 b4 01 0c
        E 5 b4 01 0b
        E 5 b4 01 0b
        E 5 b4 01 0b
        E 5 b4 01 0b
        E 5 b4 01 0b
        E 5 b4 01 0b
        E 5 b4 01 0a
        E 5 b4 01 0a
        E 5 b4 01 0a
        E 5 b4 01 0a
        E 5 b4 01 09
        E 5 b4 01 09
        E 5 b4 01 09
        E 5 b4 01 08
        E 5 b4 01 08
        E 5 b4 01 08
        E 5 b4 01 08
        E 5 b4 01 07
        E 5 b4 01 07
        E 5 b4 01 07
        E 5 b4 01 06
        E 5 b4 01 06
        E 5 b4 01 06
        E 5 b4 01 05
        E 5 b4 01 05
        E 5 b4 01 05
        E 5 b4 01 04
        E 5 b4 01 04
        E 5 b4 01 04
        E 5 b4 01 04
        E 5 b4 01 03
        E 5 b4 01 03
        E 5 b4 01 03
        E 5 b4 01 02
        E 5 b4 01 02
        E 5 b4 01 02
        E 5 b4 01 02
        E 5 b4 01 01
        E 5 b4 01 01
        E 5 b4 01 01
        E 5 b4 01 01
        E 5 b4 01 01
        E 5 b4 01 01
        E 5 b4 01 00
        E 5 b4 01 00
        E 5 b4 01 00
        E 5 b4 01 00
        E 5 b4 01 00
        E 5 b4 01 00
        E 5 b4 01 00
        E 5 b4 01 00
        E 5 b4 01 00
        E 5 b4 01 00
        E 5 b4 01 00
        E 5 b4 01 00
        E 5 b4 01 00
        E 5 b4 01 00
        E 5 b4 01 00
        E 5 b4 01 00
        E 5 b4 01 00
        E 5 b4 01 00
        E 5 b4 01 00
        E 5 b4 01 00
        E 5 b4 01 00
        E 5 b4 01 00
        E 5 b4 01 01
        E 5 b4 01 01
        E 5 b4 01 01
        E 5 b4 01 01
        E 5 b4 01 01
        E 5 b4 01 02
        E 5 b4 01 02
        E 5 b4 01 02
        E 5 b4 01 02
        E 5 b4 01 03
        E 5 b4 01 03
        E 5 b4 01 03
        E 5 b4 01 03
        E 5 b4 01 04
        E 5 b4 01 04
        E 5 b4 01 04
        E 5 b4 01 05
        E 5 b4 01 05
        E 5 b4 01 05
        E 5 b4 01 06
        E 5 b4 01 06
        E 5 b4 01 40
        E 5 b4 01 43
        E 5 b4 01 46
        E 5 b4 01 49
        E 5 b4 01 4c
        E 5 b4 01 4f
        E 5 b4 01 52
        E 5 b4 01 55
        E 5 b4 01 58
        E 5 b4 01 5b
        E 5 b4 01 5e
        E 5 b4 01 60
        E 5 b4 01 63
        E 5 b4 01 66
        E 5 b4 01 68
        E 5 b4 01 6a
        E 5 b4 01 6d
        E 5 b4 01 6f
        E 5 b4 01 71
        E 5 b4 01 73
        E 5 b4 01 75
        E 5 b4 01 76
        E 5 b4 01 78
        E 5 b4 01 79
        E 5 b4 01 7a
        E 5 b4 01 7b
        E 5 b4 01 7c
        E 5 b4 01 7d
        E 5 b4 01 7e
        E 5 b4 01 7e
        E 5 b4 01 7f
        E 5 b4 01 7f
        E 5 b4 01 7f
        E 5 b4 01 7f
        E 5 b4 01 7f
        E 5 b4 01 7e
        E 5 b4 01 7e
        E 5 b4 01 7d
        E 5 b4 01 7c
        E 5 b4 01 7b
        E 5 b4 01 7a
        E 5 b4 01 78
        E 5 b4 01 77
        E 5 b4 01 75
        E 5 b4 01 74
        E 5 b4 01 72
        E 5 b4 01 70
        E 5 b4 01 6e
        E 5 b4 01 6c
        E 5 b4 01 69
        E 5 b4 01 67
        E 5 b4 01 64
        E 5 b4 01 62
        E 5 b4 01 5f
        E 5 b4 01 5c
        E 5 b4 01 59
        E 5 b4 01 57
        E 5 b4 01 54
        E 5 b4 01 51
        E 5 b4 01 4e
        E 5 b4 01 4a
        E 5 b4 01 47
        E 5 b4 01 44
        E 5 b4 01 41
        E 5 b4 01 3e
        E 5 b4 01 3b
        E 5 b4 01 38
        E 5 b4 01 35
        E 5 b4 01 31
        E 5 b4 01 2e
        E 5 b4 01 2b
        E 5 b4 01 28
        E 5 b4 01 26
        E 5 b4 01 23
        E 5 b4 01 20
        E 5 b4 01 1d
        E 5 b4 01 1b
        E 5 b4 01 18
        E 5 b4 01 16
        E 5 b4 01 13
        E 5 b4 01 11
        E 5 b4 01 0f
        E 5 b4 01 0d
        E 5 b4 01 0b
        E 5 b4 01 0a
        E 5 b4 01 08
        E 5 b4 01 07
        E 5 b4 01 05
        E 5 b4 01 04
        E 5 b4 01 03
        E 5 b4 01 02
        E 5 b4 01 01
        E 5 b4 01 01
        E 5 b4 01 00
        E 5 b4 01 00
        E 5 b4 01 00
        E 5 b4 01 00
        E 5 b4 01 00
        E 5 b4 01 01
        E 5 b4 01 01
        E 5 b4 01 02
        E 5 b4 01 03
        E 5 b4 01 04
        E 5 b4 01 05
        E 5 b4 01 06
        E 5 b4 01 07
        E 5 b4 01 09
        E 5 b4 01 0a
        E 5 b4 01 0c
        E 5 b4 01 0e
        E 5 b4 01 10
        E 5 b4 01 12
        E 5 b4 01 15
        E 5 b4 01 17
        E 5 b4 01 19
        E 5 b4 01 1c
        E 5 b4 01 1f
        E 5 b4 01 21
        E 5 b4 01 24
        E 5 b4 01 27
        E 5 b4 01 2a
        E 5 b4 01 2d
        E 5 b4 01 30
        E 5 b4 01 33
        E 5 b4 01 36
        E 5 b4 01 39
        E 5 b4 01 3c
        E 5 b4 01 40
        E 6 b4 01 06
        E 6 b4 01 06
        E 6 b4 01 07
        E 6 b4 01 07
        E 6 b4 01 07
        E 6 b4 01 07
        E 6 b4 01 08
        E 6 b4 01 08
        E 6 b4 01 08
        E 6 b4 01 09
        E 6 b4 01 09
        E 6 b4 01 09
        E 6 b4 01 09
        E 6 b4 01 0a
        E 6 b4 01 0a
        E 6 b4 01 0a
        E 6 b4 01 0a
        E 6 b4 01 0b
        E 6 b4 01 0b
        E 6 b4 01 0b
        E 6 b4 01 0b
        E 6 b4 01 0b
        E 6 b4 01 0c
        E 6 b4 01 0c
        E 6 b4 01 0c
        E 6 b4 01 0c
        E 6 b4 01 0c
        E 6 b4 01 0c
        E 6 b4 01 0c
        E 6 b4 01 0c
        E 6 b4 01 0c
        E 6 b4 01 0c
        E 6 b4 01 0c
        E 6 b4 01 0c
        E 6 b4 01 0c
        E 6 b4 01 0c
        E 6 b4 01 0c
        E 6 b4 01 0c
        E 6 b4 01 0c
        E 6 b4 01 0c
        E 6 b4 01 0c
        E 6 b4 01 0c
        E 6 b4 01 0b
        E 6 b4 01 0b
        E 6 b4 01 0b
        E 6 b4 01 0b
        E 6 b4 01 0b
        E 6 b4 01 0b
        E 6 b4 01 0a
        E 6 b4 01 0a
        E 6 b4 01 0a
        E 6 b4 01 0a
        E 6 b4 01 09
        E 6 b4 01 09
        E 6 b4 01 09
        E 6 b4 01 08
        E 6 b4 01 08
        E 6 b4 01 08
        E 6 b4 01 08
        E 6 b4 01 07
        E 6 b4 01 07
        E 6 b4 01 07
        E 6 b4 01 06
        E 6 b4 01 06
        E 6 b4 01 06
        E 6 b4 01 05
        E 6 b4 01 05
        E 6 b4 01 05
        E 6 b4 01 04
        E 6 b4 01 04
        E 6 b4 01 04
        E 6 b4 01 04
        E 6 b4 01 03
        E 6 b4 01 03
        E 6 b4 01 03
        E 6 b4 01 02
        E 6 b4 01 02
        E 6 b4 01 02
        E 6 b4 01 02
        E 6 b4 01 01
        E 6 b4 01 01
        E 6 b4 01 01
        E 6 b4 01 01
        E 6 b4 01 01
        E 6 b4 01 01
        E 6 b4 01 00
        E 6 b4 01 00
        E 6 b4 01 00
        E 6 b4 01 00
        E 6 b4 01 00
        E 6 b4 01 00
        E 6 b4 01 00
        E 6 b4 01 00
        E 6 b4 01 00
        E 6 b4 01 00
        E 6 b4 01 00
        E 6 b4 01 00
        E 6 b4 01 00
        E 6 b4 01 00
        E 6 b4 01 00
        E 6 b4 01 00
        E 6 b4 01 00
        E 6 b4 01 00
        E 6 b4 01 00
        E 6 b4 01 00
        E 6 b4 01 00
        E 6 b4 01 00
        E 6 b4 01 01
        E 6 b4 01 01
        E 6 b4 01 01
        E 6 b4 01 01
        E 6 b4 01 01
        E 6 b4 01 02
        E 6 b4 01 02
        E 6 b4 01 02
        E 6 b4 01 02
        E 6 b4 01 03
        E 6 b4 01 03
        E 6 b4 01 03
        E 6 b4 01 03
        E 6 b4 01 04
        E 6 b4 01 04
        E 6 b4 01 04
        E 6 b4 01 05
        E 6 b4 01 05
        E 6 b4 01 05
        E 6 b4 01 06
        E 6 b4 01 06
        E 1 b4 01 19
        E 1 b4 01 1a
        E 1 b4 01 1c
        E 1 b4 01 1d
        E 1 b4 01 1e
        E 1 b4 01 1f
        E 1 b4 01 20
        E 1 b4 01 22
        E 1 b4 01 23
        E 1 b4 01 24
        E 1 b4 01 25
        E 1 b4 01 26
        E 1 b4 01 27
        E 1 b4 01 28
        E 1 b4 01 29
        E 1 b4 01 2a
        E 1 b4 01 2b
        E 1 b4 01 2c
        E 1 b4 01 2d
        E 1 b4 01 2e
        E 1 b4 01 2e
        E 1 b4 01 2f
        E 1 b4 01 30
        E 1 b4 01 30
        E 1 b4 01 30
        E 1 b4 01 31
        E 1 b4 01 31
        E 1 b4 01 32
        E 1 b4 01 32
        E 1 b4 01 32
        E 1 b4 01 32
        E 1 b4 01 32
        E 1 b4 01 32
        E 1 b4 01 32
        E 1 b4 01 32
        E 1 b4 01 32
        E 1 b4 01 32
        E 1 b4 01 32
        E 1 b4 01 31
        E 1 b4 01 31
        E 1 b4 01 30
        E 1 b4 01 30
        E 1 b4 01 2f
        E 1 b4 01 2e
        E 1 b4 01 2e
        E 1 b4 01 2d
        E 1 b4 01 2c
        E 1 b4 01 2c
        E 1 b4 01 2b
        E 1 b4 01 2a
        E 1 b4 01 29
        E 1 b4 01 28
        E 1 b4 01 27
        E 1 b4 01 26
        E 1 b4 01 24
        E 1 b4 01 23
        E 1 b4 01 22
        E 1 b4 01 21
        E 1 b4 01 20
        E 1 b4 01 1f
        E 1 b4 01 1d
        E 1 b4 01 1c
        E 1 b4 01 1b
        E 1 b4 01 1a
        E 1 b4 01 18
        E 1 b4 01 17
        E 1 b4 01 16
        E 1 b4 01 15
        E 1 b4 01 13
        E 1 b4 01 12
        E 1 b4 01 11
        E 1 b4 01 10
        E 1 b4 01 0f
        E 1 b4 01 0e
        E 1 b4 01 0c
        E 1 b4 01 0b
        E 1 b4 01 0a
        E 1 b4 01 09
        E 1 b4 01 08
        E 1 b4 01 07
        E 1 b4 01 06
        E 1 b4 01 06
        E 1 b4 01 05
        E 1 b4 01 04
        E 1 b4 01 04
        E 1 b4 01 03
        E 1 b4 01 02
        E 1 b4 01 02
        E 1 b4 01 01
        E 1 b4 01 01
        E 1 b4 01 00
        E 1 b4 01 00
        E 1 b4 01 00
        E 1 b4 01 00
        E 1 b4 01 00
        E 1 b4 01 00
        E 1 b4 01 00
        E 1 b4 01 00
        E 1 b4 01 00
        E 1 b4 01 00
        E 1 b4 01 00
        E 1 b4 01 01
        E 1 b4 01 01
        E 1 b4 01 02
        E 1 b4 01 02
        E 1 b4 01 02
        E 1 b4 01 03
        E 1 b4 01 04
        E 1 b4 01 04
        E 1 b4 01 05
        E 1 b4 01 06
        E 1 b4 01 07
        E 1 b4 01 08
        E 1 b4 01 09
        E 1 b4 01 0a
        E 1 b4 01 0b
        E 1 b4 01 0c
        E 1 b4 01 0d
        E 1 b4 01 0e
        E 1 b4 01 0f
        E 1 b4 01 10
        E 1 b4 01 12
        E 1 b4 01 13
        E 1 b4 01 14
        E 1 b4 01 15
        E 1 b4 01 16
        E 1 b4 01 18
        E 1 b4 01 19
        E 6 b4 01 0c
        E 6 b4 01 0d
        E 6 b4 01 0e
        E 6 b4 01 0e
        E 6 b4 01 0f
        E 6 b4 01 0f
        E 6 b4 01 10
        E 6 b4 01 11
        E 6 b4 01 11
        E 6 b4 01 12
        E 6 b4 01 12
        E 6 b4 01 13
        E 6 b4 01 13
        E 6 b4 01 14
        E 6 b4 01 14
        E 6 b4 01 15
        E 6 b4 01 15
        E 6 b4 01 16
        E 6 b4 01 16
        E 6 b4 01 17
        E 6 b4 01 17
        E 6 b4 01 17
        E 6 b4 01 18
        E 6 b4 01 18
        E 6 b4 01 18
        E 6 b4 01 18
        E 6 b4 01 18
        E 6 b4 01 19
        E 6 b4 01 19
        E 6 b4 01 19
        E 6 b4 01 19
        E 6 b4 01 19
        E 6 b4 01 19
        E 6 b4 01 19
        E 6 b4 01 19
        E 6 b4 01 19
        E 6 b4 01 19
        E 6 b4 01 19
        E 6 b4 01 18
        E 6 b4 01 18
        E 6 b4 01 18
        E 6 b4 01 18
        E 6 b4 01 17
        E 6 b4 01 17
        E 6 b4 01 17
        E 6 b4 01 16
        E 6 b4 01 16
        E 6 b4 01 16
        E 6 b4 01 15
        E 6 b4 01 15
        E 6 b4 01 14
        E 6 b4 01 14
        E 6 b4 01 13
        E 6 b4 01 13
        E 6 b4 01 12
        E 6 b4 01 11
        E 6 b4 01 11
        E 6 b4 01 10
        E 6 b4 01 10
        E 6 b4 01 0f
        E 6 b4 01 0e
        E 6 b4 01 0e
        E 6 b4 01 0d
        E 6 b4 01 0d
        E 6 b4 01 0c
        E 6 b4 01 0b
        E 6 b4 01 0b
        E 6 b4 01 0a
        E 6 b4 01 09
        E 6 b4 01 09
        E 6 b4 01 08
        E 6 b4 01 08
        E 6 b4 01 07
        E 6 b4 01 07
        E 6 b4 01 06
        E 6 b4 01 05
        E 6 b4 01 05
        E 6 b4 01 04
        E 6 b4 01 04
        E 6 b4 01 03
        E 6 b4 01 03
        E 6 b4 01 03
        E 6 b4 01 02
        E 6 b4 01 02
        E 6 b4 01 02
        E 6 b4 01 01
        E 6 b4 01 01
        E 6 b4 01 01
        E 6 b4 01 00
        E 6 b4 01 00
        E 6 b4 01 00
        E 6 b4 01 00
        E 6 b4 01 00
        E 6 b4 01 00
        E 6 b4 01 00
        E 6 b4 01 00
        E 6 b4 01 00
        E 6 b4 01 00
        E 6 b4 01 00
        E 6 b4 01 00
        E 6 b4 01 00
        E 6 b4 01 00
        E 6 b4 01 00
        E 6 b4 01 01
        E 6 b4 01 01
        E 6 b4 01 01
        E 6 b4 01 01
        E 6 b4 01 02
        E 6 b4 01 02
        E 6 b4 01 02
        E 6 b4 01 03
        E 6 b4 01 03
        E 6 b4 01 04
        E 6 b4 01 04
        E 6 b4 01 05
        E 6 b4 01 05
        E 6 b4 01 06
        E 6 b4 01 06
        E 6 b4 01 07
        E 6 b4 01 07
        E 6 b4 01 08
        E 6 b4 01 09
        E 6 b4 01 09
        E 6 b4 01 0a
        E 6 b4 01 0a
        E 6 b4 01 0b
        E 6 b4 01 0c
        E 6 b4 01 0c
        E 1 b4 01 40
        E 1 b4 01 43
        E 1 b4 01 46
        E 1 b4 01 49
        E 1 b4 01 4c
        E 1 b4 01 4f
        E 1 b4 01 52
        E 1 b4 01 55
        E 1 b4 01 58
        E 1 b4 01 5b
        E 1 b4 01 5e
        E 1 b4 01 60
        E 1 b4 01 63
        E 1 b4 01 66
        E 1 b4 01 68
        E 1 b4 01 6a
        E 1 b4 01 6d
        E 1 b4 01 6f
        E 1 b4 01 71
        E 1 b4 01 73
        E 1 b4 01 75
        E 1 b4 01 76
        E 1 b4 01 78
        E 1 b4 01 79
        E 1 b4 01 7a
        E 1 b4 01 7b
        E 1 b4 01 7c
        E 1 b4 01 7d
        E 1 b4 01 7e
        E 1 b4 01 7e
        E 1 b4 01 7f
        E 1 b4 01 7f
        E 1 b4 01 7f
        E 1 b4 01 7f
        E 1 b4 01 7f
        E 1 b4 01 7e
        E 1 b4 01 7e
        E 1 b4 01 7d
        E 1 b4 01 7c
        E 1 b4 01 7b
        E 1 b4 01 7a
        E 1 b4 01 78
        E 1 b4 01 77
        E 1 b4 01 75
        E 1 b4 01 74
        E 1 b4 01 72
        E 1 b4 01 70
        E 1 b4 01 6e
        E 1 b4 01 6c
        E 1 b4 01 69
        E 1 b4 01 67
        E 1 b4 01 64
        E 1 b4 01 62
        E 1 b4 01 5f
        E 1 b4 01 5c
        E 1 b4 01 59
        E 1 b4 01 57
        E 1 b4 01 54
        E 1 b4 01 51
        E 1 b4 01 4e
        E 1 b4 01 4a
        E 1 b4 01 47
        E 1 b4 01 44
        E 1 b4 01 41
        E 1 b4 01 3e
        E 1 b4 01 3b
        E 1 b4 01 38
        E 1 b4 01 35
        E 1 b4 01 31
        E 1 b4 01 2e
        E 1 b4 01 2b
        E 1 b4 01 28
        E 1 b4 01 26
        E 1 b4 01 23
        E 1 b4 01 20
        E 1 b4 01 1d
        E 1 b4 01 1b
        E 1 b4 01 18
        E 1 b4 01 16
        E 1 b4 01 13
        E 1 b4 01 11
        E 1 b4 01 0f
        E 1 b4 01 0d
        E 1 b4 01 0b
        E 1 b4 01 0a
        E 1 b4 01 08
        E 1 b4 01 07
        E 1 b4 01 05
        E 1 b4 01 04
        E 1 b4 01 03
        E 1 b4 01 02
        E 1 b4 01 01
        E 1 b4 01 01
        E 1 b4 01 00
        E 1 b4 01 00
        E 1 b4 01 00
        E 1 b4 01 00
        E 1 b4 01 00
        E 1 b4 01 01
        E 1 b4 01 01
        E 1 b4 01 02
        E 1 b4 01 03
        E 1 b4 01 04
        E 1 b4 01 05
        E 1 b4 01 06
        E 1 b4 01 07
        E 1 b4 01 09
        E 1 b4 01 0a
        E 1 b4 01 0c
        E 1 b4 01 0e
        E 1 b4 01 10
        E 1 b4 01 12
        E 1 b4 01 15
        E 1 b4 01 17
        E 1 b4 01 19
        E 1 b4 01 1c
        E 1 b4 01 1f
        E 1 b4 01 21
        E 1 b4 01 24
        E 1 b4 01 27
        E 1 b4 01 2a
        E 1 b4 01 2d
        E 1 b4 01 30
        E 1 b4 01 33
        E 1 b4 01 36
        E 1 b4 01 39
        E 1 b4 01 3c
        E 1 b4 01 40
        E 5 b4 01 06
        E 5 b4 01 06
        E 5 b4 01 07
        E 5 b4 01 07
        E 5 b4 01 07
        E 5 b4 01 07
        E 5 b4 01 08
        E 5 b4 01 08
        E 5 b4 01 08
        E 5 b4 01 09
        E 5 b4 01 09
        E 5 b4 01 09
        E 5 b4 01 09
        E 5 b4 01 0a
        E 5 b4 01 0a
        E 5 b4 01 0a
        E 5 b4 01 0a
        E 5 b4 01 0b
        E 5 b4 01 0b
        E 5 b4 01 0b
        E 5 b4 01 0b
        E 5 b4 01 0b
        E 5 b4 01 0c
        E 5 b4 01 0c
        E 5 b4 01 0c
        E 5 b4 01 0c
        E 5 b4 01 0c
        E 5 b4 01 0c
        E 5 b4 01 0c
        E 5 b4 01 0c
        E 5 b4 01 0c
        E 5 b4 01 0c
        E 5 b4 01 0c
        E 5 b4 01 0c
        E 5 b4 01 0c
        E 5 b4 01 0c
        E 5 b4 01 0c
        E 5 b4 01 0c
        E 5 b4 01 0c
        E 5 b4 01 0c
        E 5 b4 01 0c
        E 5 b4 01 0c
        E 5 b4 01 0b
        E 5 b4 01 0b
        E 5 b4 01 0b
        E 5 b4 01 0b
        E 5 b4 01 0b
        E 5 b4 01 0b
        E 5 b4 01 0a
        E 5 b4 01 0a
        E 5 b4 01 0a
        E 5 b4 01 0a
        E 5 b4 01 09
        E 5 b4 01 09
        E 5 b4 01 09
        E 5 b4 01 08
        E 5 b4 01 08
        E 5 b4 01 08
        E 5 b4 01 08
        E 5 b4 01 07
        E 5 b4 01 07
        E 5 b4 01 07
        E 5 b4 01 06
        E 5 b4 01 06
        E 5 b4 01 06
        E 5 b4 01 05
        E 5 b4 01 05
        E 5 b4 01 05
        E 5 b4 01 04
        E 5 b4 01 04
        E 5 b4 01 04
        E 5 b4 01 04
        E 5 b4 01 03
        E 5 b4 01 03
        E 5 b4 01 03
        E 5 b4 01 02
        E 5 b4 01 02
        E 5 b4 01 02
        E 5 b4 01 02
        E 5 b4 01 01
        E 5 b4 01 01
        E 5 b4 01 01
        E 5 b4 01 01
        E 5 b4 01 01
        E 5 b4 01 01
        E 5 b4 01 00
        E 5 b4 01 00
        E 5 b4 01 00
        E 5 b4 01 00
        E 5 b4 01 00
        E 5 b4 01 00
        E 5 b4 01 00
        E 5 b4 01 00
        E 5 b4 01 00
        E 5 b4 01 00
        E 5 b4 01 00
        E 5 b4 01 00
        E 5 b4 01 00
        E 5 b4 01 00
        E 5 b4 01 00
        E 5 b4 01 00
        E 5 b4 01 00
        E 5 b4 01 00
        E 5 b4 01 00
        E 5 b4 01 00
        E 5 b4 01 00
        E 5 b4 01 00
        E 5 b4 01 01
        E 5 b4 01 01
        E 5 b4 01 01
        E 5 b4 01 01
        E 5 b4 01 01
        E 5 b4 01 02
        E 5 b4 01 02
        E 5 b4 01 02
        E 5 b4 01 02
        E 5 b4 01 03
        E 5 b4 01 03
        E 5 b4 01 03
        E 5 b4 01 03
        E 5 b4 01 04
        E 5 b4 01 04
        E 5 b4 01 04
        E 5 b4 01 05
        E 5 b4 01 05
        E 5 b4 01 05
        E 5 b4 01 06
        E 5 b4 01 06
        E 3 b4 01 00
        E 3 b4 01 01
        E 3 b4 01 02
        E 3 b4 01 03
        E 3 b4 01 04
        E 3 b4 01 04
        E 3 b4 01 05
        E 3 b4 01 06
        E 3 b4 01 07
        E 3 b4 01 08
        E 3 b4 01 08
        E 3 b4 01 09
        E 3 b4 01 0a
        E 3 b4 01 0b
        E 3 b4 01 0c
        E 3 b4 01 0c
        E 3 b4 01 0d
        E 3 b4 01 0e
        E 3 b4 01 0f
        E 3 b4 01 10
        E 3 b4 01 10
        E 3 b4 01 11
        E 3 b4 01 12
        E 3 b4 01 13
        E 3 b4 01 14
        E 3 b4 01 14
        E 3 b4 01 15
        E 3 b4 01 16
        E 3 b4 01 17
        E 3 b4 01 18
        E 3 b4 01 18
        E 3 b4 01 19
        E 3 b4 01 1a
        E 3 b4 01 1b
        E 3 b4 01 1c
        E 3 b4 01 1c
        E 3 b4 01 1d
        E 3 b4 01 1e
        E 3 b4 01 1f
        E 3 b4 01 20
        E 3 b4 01 20
        E 3 b4 01 21
        E 3 b4 01 22
        E 3 b4 01 23
        E 3 b4 01 24
        E 3 b4 01 24
        E 3 b4 01 25
        E 3 b4 01 26
        E 3 b4 01 27
        E 3 b4 01 28
        E 3 b4 01 28
        E 3 b4 01 29
        E 3 b4 01 2a
        E 3 b4 01 2b
        E 3 b4 01 2c
        E 3 b4 01 2c
        E 3 b4 01 2d
        E 3 b4 01 2e
        E 3 b4 01 2f
        E 3 b4 01 30
        E 3 b4 01 30
        E 3 b4 01 31
        E 3 b4 01 32
        E 3 b4 01 32
        E 3 b4 01 32
        E 3 b4 01 31
        E 3 b4 01 30
        E 3 b4 01 30
        E 3 b4 01 2f
        E 3 b4 01 2e
        E 3 b4 01 2d
        E 3 b4 01 2c
        E 3 b4 01 2c
        E 3 b4 01 2b
        E 3 b4 01 2a
        E 3 b4 01 29
        E 3 b4 01 28
        E 3 b4 01 28
        E 3 b4 01 27
        E 3 b4 01 26
        E 3 b4 01 25
        E 3 b4 01 24
        E 3 b4 01 24
        E 3 b4 01 23
        E 3 b4 01 22
        E 3 b4 01 21
        E 3 b4 01 20
        E 3 b4 01 20
        E 3 b4 01 1f
        E 3 b4 01 1e
        E 3 b4 01 1d
        E 3 b4 01 1c
        E 3 b4 01 1c
        E 3 b4 01 1b
        E 3 b4 01 1a
        E 3 b4 01 19
        E 3 b4 01 18
        E 3 b4 01 18
        E 3 b4 01 17
        E 3 b4 01 16
        E 3 b4 01 15
        E 3 b4 01 14
        E 3 b4 01 14
        E 3 b4 01 13
        E 3 b4 01 12
        E 3 b4 01 11
        E 3 b4 01 10
        E 3 b4 01 10
        E 3 b4 01 0f
        E 3 b4 01 0e
        E 3 b4 01 0d
        E 3 b4 01 0c
        E 3 b4 01 0c
        E 3 b4 01 0b
        E 3 b4 01 0a
        E 3 b4 01 09
        E 3 b4 01 08
        E 3 b4 01 08
        E 3 b4 01 07
        E 3 b4 01 06
        E 3 b4 01 05
        E 3 b4 01 04
        E 3 b4 01 04
        E 3 b4 01 03
        E 3 b4 01 02
        E 3 b4 01 01
        E 3 b4 01 00
        E 3 b4 01 00
        E 17 b4 01 00
        E 17 b4 01 00
        E 17 b4 01 01
        E 17 b4 01 01
        E 17 b4 01 02
        E 17 b4 01 02
        E 17 b4 01 02
        E 17 b4 01 03
        E 17 b4 01 03
        E 17 b4 01 04
        E 17 b4 01 04
        E 17 b4 01 04
        E 17 b4 01 05
        E 17 b4 01 05
        E 17 b4 01 06
        E 17 b4 01 06
        E 17 b4 01 06
        E 17 b4 01 07
        E 17 b4 01 07
        E 17 b4 01 08
        E 17 b4 01 08
        E 17 b4 01 08
        E 17 b4 01 09
        E 17 b4 01 09
        E 17 b4 01 0a
        E 17 b4 01 0a
        E 17 b4 01 0a
        E 17 b4 01 0b
        E 17 b4 01 0b
        E 17 b4 01 0c
        E 17 b4 01 0c
        E 17 b4 01 0c
        E 17 b4 01 0d
        E 17 b4 01 0d
        E 17 b4 01 0e
        E 17 b4 01 0e
        E 17 b4 01 0e
        E 17 b4 01 0f
        E 17 b4 01 0f
        E 17 b4 01 10
        E 17 b4 01 10
        E 17 b4 01 10
        E 17 b4 01 11
        E 17 b4 01 11
        E 17 b4 01 12
        E 17 b4 01 12
        E 17 b4 01 12
        E 17 b4 01 13
        E 17 b4 01 13
        E 17 b4 01 14
        E 17 b4 01 14
        E 17 b4 01 14
        E 17 b4 01 15
        E 17 b4 01 15
        E 17 b4 01 16
        E 17 b4 01 16
        E 17 b4 01 16
        E 17 b4 01 17
        E 17 b4 01 17
        E 17 b4 01 18
        E 17 b4 01 18
        E 17 b4 01 18
        E 17 b4 01 19
        E 17 b4 01 19
        E 17 b4 01 19
        E 17 b4 01 18
        E 17 b4 01 18
        E 17 b4 01 18
        E 17 b4 01 17
        E 17 b4 01 17
        E 17 b4 01 16
        E 17 b4 01 16
        E 17 b4 01 16
        E 17 b4 01 15
        E 17 b4 01 15
        E 17 b4 01 14
        E 17 b4 01 14
        E 17 b4 01 14
        E 17 b4 01 13
        E 17 b4 01 13
        E 17 b4 01 12
        E 17 b4 01 12
        E 17 b4 01 12
        E 17 b4 01 11
        E 17 b4 01 11
        E 17 b4 01 10
        E 17 b4 01 10
        E 17 b4 01 10
        E 17 b4 01 0f
        E 17 b4 01 0f
        E 17 b4 01 0e
        E 17 b4 01 0e
        E 17 b4 01 0e
        E 17 b4 01 0d
        E 17 b4 01 0d
        E 17 b4 01 0c
        E 17 b4 01 0c
        E 17 b4 01 0c
        E 17 b4 01 0b
        E 17 b4 01 0b
        E 17 b4 01 0a
        E 17 b4 01 0a
        E 17 b4 01 0a
        E 17 b4 01 09
        E 17 b4 01 09
        E 17 b4 01 08
        E 17 b4 01 08
        E 17 b4 01 08
        E 17 b4 01 07
        E 17 b4 01 07
        E 17 b4 01 06
        E 17 b4 01 06
        E 17 b4 01 06
        E 17 b4 01 05
        E 17 b4 01 05
        E 17 b4 01 04
        E 17 b4 01 04
        E 17 b4 01 04
        E 17 b4 01 03
        E 17 b4 01 03
        E 17 b4 01 02
        E 17 b4 01 02
        E 17 b4 01 02
        E 17 b4 01 01
        E 17 b4 01 01
        E 17 b4 01 00
        E 17 b4 01 00
        E 17 b4 01 00
        E 4 b4 01 02
        E 4 b4 01 04
        E 4 b4 01 06
        E 4 b4 01 08
        E 4 b4 01 0a
        E 4 b4 01 0c
        E 4 b4 01 0e
        E 4 b4 01 10
        E 4 b4 01 12
        E 4 b4 01 14
        E 4 b4 01 16
        E 4 b4 01 18
        E 4 b4 01 1a
        E 4 b4 01 1c
        E 4 b4 01 1e
        E 4 b4 01 20
        E 4 b4 01 22
        E 4 b4 01 24
        E 4 b4 01 26
        E 4 b4 01 28
        E 4 b4 01 2a
        E 4 b4 01 2c
        E 4 b4 01 2e
        E 4 b4 01 30
        E 4 b4 01 32
        E 4 b4 01 34
        E 4 b4 01 36
        E 4 b4 01 38
        E 4 b4 01 3a
        E 4 b4 01 3c
        E 4 b4 01 3e
        E 4 b4 01 40
        E 4 b4 01 42
        E 4 b4 01 44
        E 4 b4 01 46
        E 4 b4 01 48
        E 4 b4 01 4a
        E 4 b4 01 4c
        E 4 b4 01 4e
        E 4 b4 01 50
        E 4 b4 01 52
        E 4 b4 01 54
        E 4 b4 01 56
        E 4 b4 01 58
        E 4 b4 01 5a
        E 4 b4 01 5c
        E 4 b4 01 5e
        E 4 b4 01 60
        E 4 b4 01 62
        E 4 b4 01 64
        E 4 b4 01 66
        E 4 b4 01 68
        E 4 b4 01 6a
        E 4 b4 01 6c
        E 4 b4 01 6e
        E 4 b4 01 70
        E 4 b4 01 72
        E 4 b4 01 74
        E 4 b4 01 76
        E 4 b4 01 78
        E 4 b4 01 7a
        E 4 b4 01 7c
        E 4 b4 01 7e
        E 4 b4 01 7f
        E 4 b4 01 7e
        E 4 b4 01 7c
        E 4 b4 01 7a
        E 4 b4 01 78
        E 4 b4 01 76
        E 4 b4 01 74
        E 4 b4 01 72
        E 4 b4 01 70
        E 4 b4 01 6e
        E 4 b4 01 6c
        E 4 b4 01 6a
        E 4 b4 01 68
        E 4 b4 01 66
        E 4 b4 01 64
        E 4 b4 01 62
        E 4 b4 01 60
        E 4 b4 01 5e
        E 4 b4 01 5c
        E 4 b4 01 5a
        E 4 b4 01 58
        E 4 b4 01 56
        E 4 b4 01 54
        E 4 b4 01 52
        E 4 b4 01 50
        E 4 b4 01 4e
        E 4 b4 01 4c
        E 4 b4 01 4a
        E 4 b4 01 48
        E 4 b4 01 46
        E 4 b4 01 44
        E 4 b4 01 42
        E 4 b4 01 40
        E 4 b4 01 3e
        E 4 b4 01 3c
        E 4 b4 01 3a
        E 4 b4 01 38
        E 4 b4 01 36
        E 4 b4 01 34
        E 4 b4 01 32
        E 4 b4 01 30
        E 4 b4 01 2e
        E 4 b4 01 2c
        E 4 b4 01 2a
        E 4 b4 01 28
        E 4 b4 01 26
        E 4 b4 01 24
        E 4 b4 01 22
        E 4 b4 01 20
        E 4 b4 01 1e
        E 4 b4 01 1c
        E 4 b4 01 1a
        E 4 b4 01 18
        E 4 b4 01 16
        E 4 b4 01 14
        E 4 b4 01 12
        E 4 b4 01 10
        E 4 b4 01 0e
        E 4 b4 01 0c
        E 4 b4 01 0a
        E 4 b4 01 08
        E 4 b4 01 06
        E 4 b4 01 04
        E 4 b4 01 02
        E 4 b4 01 00
        E 5 b4 01 00
        E 5 b4 01 00
        E 5 b4 01 00
        E 5 b4 01 00
        E 5 b4 01 01
        E 5 b4 01 01
        E 5 b4 01 01
        E 5 b4 01 01
        E 5 b4 01 01
        E 5 b4 01 02
        E 5 b4 01 02
        E 5 b4 01 02
        E 5 b4 01 02
        E 5 b4 01 02
        E 5 b4 01 03
        E 5 b4 01 03
        E 5 b4 01 03
        E 5 b4 01 03
        E 5 b4 01 03
        E 5 b4 01 04
        E 5 b4 01 04
        E 5 b4 01 04
        E 5 b4 01 04
        E 5 b4 01 04
        E 5 b4 01 05
        E 5 b4 01 05
        E 5 b4 01 05
        E 5 b4 01 05
        E 5 b4 01 05
        E 5 b4 01 06
        E 5 b4 01 06
        E 5 b4 01 06
        E 5 b4 01 06
        E 5 b4 01 06
        E 5 b4 01 07
        E 5 b4 01 07
        E 5 b4 01 07
        E 5 b4 01 07
        E 5 b4 01 07
        E 5 b4 01 08
        E 5 b4 01 08
        E 5 b4 01 08
        E 5 b4 01 08
        E 5 b4 01 08
        E 5 b4 01 09
        E 5 b4 01 09
        E 5 b4 01 09
        E 5 b4 01 09
        E 5 b4 01 09
        E 5 b4 01 0a
        E 5 b4 01 0a
        E 5 b4 01 0a
        E 5 b4 01 0a
        E 5 b4 01 0a
        E 5 b4 01 0b
        E 5 b4 01 0b
        E 5 b4 01 0b
        E 5 b4 01 0b
        E 5 b4 01 0b
        E 5 b4 01 0c
        E 5 b4 01 0c
        E 5 b4 01 0c
        E 5 b4 01 0c
        E 5 b4 01 0c
        E 5 b4 01 0c
        E 5 b4 01 0c
        E 5 b4 01 0c
        E 5 b4 01 0c
        E 5 b4 01 0b
        E 5 b4 01 0b
        E 5 b4 01 0b
        E 5 b4 01 0b
        E 5 b4 01 0b
        E 5 b4 01 0a
        E 5 b4 01 0a
        E 5 b4 01 0a
        E 5 b4 01 0a
        E 5 b4 01 0a
        E 5 b4 01 09
        E 5 b4 01 09
        E 5 b4 01 09
        E 5 b4 01 09
        E 5 b4 01 09
        E 5 b4 01 08
        E 5 b4 01 08
        E 5 b4 01 08
        E 5 b4 01 08
        E 5 b4 01 08
        E 5 b4 01 07
        E 5 b4 01 07
        E 5 b4 01 07
        E 5 b4 01 07
        E 5 b4 01 07
        E 5 b4 01 06
        E 5 b4 01 06
        E 5 b4 01 06
        E 5 b4 01 06
        E 5 b4 01 06
        E 5 b4 01 05
        E 5 b4 01 05
        E 5 b4 01 05
        E 5 b4 01 05
        E 5 b4 01 05
        E 5 b4 01 04
        E 5 b4 01 04
        E 5 b4 01 04
        E 5 b4 01 04
        E 5 b4 01 04
        E 5 b4 01 03
        E 5 b4 01 03
        E 5 b4 01 03
        E 5 b4 01 03
        E 5 b4 01 03
        E 5 b4 01 02
        E 5 b4 01 02
        E 5 b4 01 02
        E 5 b4 01 02
        E 5 b4 01 02
        E 5 b4 01 01
        E 5 b4 01 01
        E 5 b4 01 01
        E 5 b4 01 01
        E 5 b4 01 01
        E 5 b4 01 00
        E 5 b4 01 00
        E 5 b4 01 00
        E 5 b4 01 00
        E 5 b4 01 00
        E 1 b4 01 1c
        E 1 b4 01 60
        E 1 b4 01 3f
        E 1 b4 01 0a
        E 1 b4 01 5a
        E 1 b4 01 50
        E 1 b4 01 0c
        E 1 b4 01 0b
        E 1 b4 01 3d
        E 1 b4 01 78
        E 1 b4 01 65
        E 1 b4 01 6f
        E 1 b4 01 4f
        E 1 b4 01 0e
        E 1 b4 01 18
        E 1 b4 01 56
        E 1 b4 01 46
        E 1 b4 01 24
        E 1 b4 01 19
        E 1 b4 01 22
        E 1 b4 01 63
        E 1 b4 01 3b
        E 1 b4 01 1e
        E 1 b4 01 49
        E 1 b4 01 7e
        E 1 b4 01 00
        E 1 b4 01 10
        E 1 b4 01 34
        E 1 b4 01 2b
        E 1 b4 01 68
        E 1 b4 01 1b
        E 1 b4 01 08
        E 1 b4 01 14
        E 1 b4 01 16
        E 1 b4 01 73
        E 1 b4 01 20
        E 1 b4 01 01
        E 1 b4 01 5e
        E 1 b4 01 2c
        E 1 b4 01 1a
        E 1 b4 01 32
        E 1 b4 01 21
        E 1 b4 01 6c
        E 1 b4 01 6b
        E 1 b4 01 7f
        E 1 b4 01 6a
        E 1 b4 01 37
        E 1 b4 01 76
        E 1 b4 01 5b
        E 1 b4 01 0f
        E 1 b4 01 38
        E 1 b4 01 44
        E 1 b4 01 79
        E 1 b4 01 61
        E 1 b4 01 45
        E 1 b4 01 47
        E 1 b4 01 06
        E 1 b4 01 0d
        E 1 b4 01 75
        E 1 b4 01 66
        E 1 b4 01 36
        E 1 b4 01 28
        E 1 b4 01 11
        E 1 b4 01 39
        E 1 b4 01 26
        E 1 b4 01 1f
        E 1 b4 01 30
        E 1 b4 01 42
        E 1 b4 01 4d
        E 1 b4 01 52
        E 1 b4 01 15
        E 1 b4 01 4c
        E 1 b4 01 71
        E 1 b4 01 41
        E 1 b4 01 4a
        E 1 b4 01 03
        E 1 b4 01 09
        E 1 b4 01 7d
        E 1 b4 01 53
        E 1 b4 01 17
        E 1 b4 01 74
        E 1 b4 01 29
        E 1 b4 01 31
        E 1 b4 01 3e
        E 1 b4 01 33
        E 1 b4 01 55
        E 1 b4 01 67
        E 1 b4 01 25
        E 1 b4 01 48
        E 1 b4 01 1d
        E 1 b4 01 72
        E 1 b4 01 69
        E 1 b4 01 3a
        E 1 b4 01 2e
        E 1 b4 01 64
        E 1 b4 01 2f
        E 1 b4 01 59
        E 1 b4 01 12
        E 1 b4 01 02
        E 1 b4 01 2a
        E 1 b4 01 40
        E 1 b4 01 6d
        E 1 b4 01 62
        E 1 b4 01 04
        E 1 b4 01 6e
        E 1 b4 01 5d
        E 1 b4 01 07
        E 1 b4 01 27
        E 1 b4 01 4b
        E 1 b4 01 5f
        E 1 b4 01 7a
        E 1 b4 01 4e
        E 1 b4 01 35
        E 1 b4 01 23
        E 1 b4 01 58
        E 1 b4 01 5c
        E 1 b4 01 70
        E 1 b4 01 7c
        E 1 b4 01 3c
        E 1 b4 01 51
        E 1 b4 01 57
        E 1 b4 01 43
        E 1 b4 01 77
        E 1 b4 01 13
        E 1 b4 01 2d
        E 1 b4 01 54
        E 4 b4 01 02
        E 4 b4 01 09
        E 4 b4 01 06
        E 4 b4 01 01
        E 4 b4 01 09
        E 4 b4 01 08
        E 4 b4 01 01
        E 4 b4 01 01
        E 4 b4 01 06
        E 4 b4 01 0c
        E 4 b4 01 0a
        E 4 b4 01 0b
        E 4 b4 01 07
        E 4 b4 01 01
        E 4 b4 01 02
        E 4 b4 01 08
        E 4 b4 01 07
        E 4 b4 01 03
        E 4 b4 01 02
        E 4 b4 01 03
        E 4 b4 01 09
        E 4 b4 01 05
        E 4 b4 01 03
        E 4 b4 01 07
        E 4 b4 01 0c
        E 4 b4 01 00
        E 4 b4 01 01
        E 4 b4 01 05
        E 4 b4 01 04
        E 4 b4 01 0a
        E 4 b4 01 02
        E 4 b4 01 00
        E 4 b4 01 02
        E 4 b4 01 02
        E 4 b4 01 0b
        E 4 b4 01 03
        E 4 b4 01 00
        E 4 b4 01 09
        E 4 b4 01 04
        E 4 b4 01 02
        E 4 b4 01 05
        E 4 b4 01 03
        E 4 b4 01 0a
        E 4 b4 01 0a
        E 4 b4 01 0c
        E 4 b4 01 0a
        E 4 b4 01 05
        E 4 b4 01 0b
        E 4 b4 01 09
        E 4 b4 01 01
        E 4 b4 01 05
        E 4 b4 01 06
        E 4 b4 01 0c
        E 4 b4 01 09
        E 4 b4 01 06
        E 4 b4 01 07
        E 4 b4 01 00
        E 4 b4 01 01
        E 4 b4 01 0b
        E 4 b4 01 0a
        E 4 b4 01 05
        E 4 b4 01 04
        E 4 b4 01 01
        E 4 b4 01 05
        E 4 b4 01 03
        E 4 b4 01 03
        E 4 b4 01 04
        E 4 b4 01 06
        E 4 b4 01 07
        E 4 b4 01 08
        E 4 b4 01 02
        E 4 b4 01 07
        E 4 b4 01 0b
        E 4 b4 01 06
        E 4 b4 01 07
        E 4 b4 01 00
        E 4 b4 01 00
        E 4 b4 01 0c
        E 4 b4 01 08
        E 4 b4 01 02
        E 4 b4 01 0b
        E 4 b4 01 04
        E 4 b4 01 04
        E 4 b4 01 06
        E 4 b4 01 05
        E 4 b4 01 08
        E 4 b4 01 0a
        E 4 b4 01 03
        E 4 b4 01 07
        E 4 b4 01 02
        E 4 b4 01 0b
        E 4 b4 01 0a
        E 4 b4 01 05
        E 4 b4 01 04
        E 4 b4 01 0a
        E 4 b4 01 04
        E 4 b4 01 08
        E 4 b4 01 01
        E 4 b4 01 00
        E 4 b4 01 04
        E 4 b4 01 06
        E 4 b4 01 0a
        E 4 b4 01 09
        E 4 b4 01 00
        E 4 b4 01 0b
        E 4 b4 01 09
        E 4 b4 01 00
        E 4 b4 01 03
        E 4 b4 01 07
        E 4 b4 01 09
        E 4 b4 01 0c
        E 4 b4 01 07
        E 4 b4 01 05
        E 4 b4 01 03
        E 4 b4 01 08
        E 4 b4 01 09
        E 4 b4 01 0b
        E 4 b4 01 0c
        E 4 b4 01 06
        E 4 b4 01 08
        E 4 b4 01 08
        E 4 b4 01 06
        E 4 b4 01 0b
        E 4 b4 01 01
        E 4 b4 01 04
        E 4 b4 01 08
        E 4 b4 01 1c
        E 4 b4 01 60
        E 4 b4 01 3f
        E 4 b4 01 0a
        E 4 b4 01 5a
        E 4 b4 01 50
        E 4 b4 01 0c
        E 4 b4 01 0b
        E 4 b4 01 3d
        E 4 b4 01 78
        E 4 b4 01 65
        E 4 b4 01 6f
        E 4 b4 01 4f
        E 4 b4 01 0e
        E 4 b4 01 18
        E 4 b4 01 56
        E 4 b4 01 46
        E 4 b4 01 24
        E 4 b4 01 19
        E 4 b4 01 22
        E 4 b4 01 63
        E 4 b4 01 3b
        E 4 b4 01 1e
        E 4 b4 01 49
        E 4 b4 01 7e
        E 4 b4 01 00
        E 4 b4 01 10
        E 4 b4 01 34
        E 4 b4 01 2b
        E 4 b4 01 68
        E 4 b4 01 1b
        E 4 b4 01 08
        E 4 b4 01 14
        E 4 b4 01 16
        E 4 b4 01 73
        E 4 b4 01 20
        E 4 b4 01 01
        E 4 b4 01 5e
        E 4 b4 01 2c
        E 4 b4 01 1a
        E 4 b4 01 32
        E 4 b4 01 21
        E 4 b4 01 6c
        E 4 b4 01 6b
        E 4 b4 01 7f
        E 4 b4 01 6a
        E 4 b4 01 37
        E 4 b4 01 76
        E 4 b4 01 5b
        E 4 b4 01 0f
        E 4 b4 01 38
        E 4 b4 01 44
        E 4 b4 01 79
        E 4 b4 01 61
        E 4 b4 01 45
        E 4 b4 01 47
        E 4 b4 01 06
        E 4 b4 01 0d
        E 4 b4 01 75
        E 4 b4 01 66
        E 4 b4 01 36
        E 4 b4 01 28
        E 4 b4 01 11
        E 4 b4 01 39
        E 4 b4 01 26
        E 4 b4 01 1f
        E 4 b4 01 30
        E 4 b4 01 42
        E 4 b4 01 4d
        E 4 b4 01 52
        E 4 b4 01 15
        E 4 b4 01 4c
        E 4 b4 01 71
        E 4 b4 01 41
        E 4 b4 01 4a
        E 4 b4 01 03
        E 4 b4 01 09
        E 4 b4 01 7d
        E 4 b4 01 53
        E 4 b4 01 17
        E 4 b4 01 74
        E 4 b4 01 29
        E 4 b4 01 31
        E 4 b4 01 3e
        E 4 b4 01 33
        E 4 b4 01 55
        E 4 b4 01 67
        E 4 b4 01 25
        E 4 b4 01 48
        E 4 b4 01 1d
        E 4 b4 01 72
        E 4 b4 01 69
        E 4 b4 01 3a
        E 4 b4 01 2e
        E 4 b4 01 64
        E 4 b4 01 2f
        E 4 b4 01 59
        E 4 b4 01 12
        E 4 b4 01 02
        E 4 b4 01 2a
        E 4 b4 01 40
        E 4 b4 01 6d
        E 4 b4 01 62
        E 4 b4 01 04
        E 4 b4 01 6e
        E 4 b4 01 5d
        E 4 b4 01 07
        E 4 b4 01 27
        E 4 b4 01 4b
        E 4 b4 01 5f
        E 4 b4 01 7a
        E 4 b4 01 4e
        E 4 b4 01 35
        E 4 b4 01 23
        E 4 b4 01 58
        E 4 b4 01 5c
        E 4 b4 01 70
        E 4 b4 01 7c
        E 4 b4 01 3c
        E 4 b4 01 51
        E 4 b4 01 57
        E 4 b4 01 43
        E 4 b4 01 77
        E 4 b4 01 13
        E 4 b4 01 2d
        E 4 b4 01 54
        E 5 b4 01 02
        E 5 b4 01 09
        E 5 b4 01 06
        E 5 b4 01 01
        E 5 b4 01 09
        E 5 b4 01 08
        E 5 b4 01 01
        E 5 b4 01 01
        E 5 b4 01 06
        E 5 b4 01 0c
        E 5 b4 01 0a
        E 5 b4 01 0b
        E 5 b4 01 07
        E 5 b4 01 01
        E 5 b4 01 02
        E 5 b4 01 08
        E 5 b4 01 07
        E 5 b4 01 03
        E 5 b4 01 02
        E 5 b4 01 03
        E 5 b4 01 09
        E 5 b4 01 05
        E 5 b4 01 03
        E 5 b4 01 07
        E 5 b4 01 0c
        E 5 b4 01 00
        E 5 b4 01 01
        E 5 b4 01 05
        E 5 b4 01 04
        E 5 b4 01 0a
        E 5 b4 01 02
        E 5 b4 01 00
        E 5 b4 01 02
        E 5 b4 01 02
        E 5 b4 01 0b
        E 5 b4 01 03
        E 5 b4 01 00
        E 5 b4 01 09
        E 5 b4 01 04
        E 5 b4 01 02
        E 5 b4 01 05
        E 5 b4 01 03
        E 5 b4 01 0a
        E 5 b4 01 0a
        E 5 b4 01 0c
        E 5 b4 01 0a
        E 5 b4 01 05
        E 5 b4 01 0b
        E 5 b4 01 09
        E 5 b4 01 01
        E 5 b4 01 05
        E 5 b4 01 06
        E 5 b4 01 0c
        E 5 b4 01 09
        E 5 b4 01 06
        E 5 b4 01 07
        E 5 b4 01 00
        E 5 b4 01 01
        E 5 b4 01 0b
        E 5 b4 01 0a
        E 5 b4 01 05
        E 5 b4 01 04
        E 5 b4 01 01
        E 5 b4 01 05
        E 5 b4 01 03
        E 5 b4 01 03
        E 5 b4 01 04
        E 5 b4 01 06
        E 5 b4 01 07
        E 5 b4 01 08
        E 5 b4 01 02
        E 5 b4 01 07
        E 5 b4 01 0b
        E 5 b4 01 06
        E 5 b4 01 07
        E 5 b4 01 00
        E 5 b4 01 00
        E 5 b4 01 0c
        E 5 b4 01 08
        E 5 b4 01 02
        E 5 b4 01 0b
        E 5 b4 01 04
        E 5 b4 01 04
        E 5 b4 01 06
        E 5 b4 01 05
        E 5 b4 01 08
        E 5 b4 01 0a
        E 5 b4 01 03
        E 5 b4 01 07
        E 5 b4 01 02
        E 5 b4 01 0b
        E 5 b4 01 0a
        E 5 b4 01 05
        E 5 b4 01 04
        E 5 b4 01 0a
        E 5 b4 01 04
        E 5 b4 01 08
        E 5 b4 01 01
        E 5 b4 01 00
        E 5 b4 01 04
        E 5 b4 01 06
        E 5 b4 01 0a
        E 5 b4 01 09
        E 5 b4 01 00
        E 5 b4 01 0b
        E 5 b4 01 09
        E 5 b4 01 00
        E 5 b4 01 03
        E 5 b4 01 07
        E 5 b4 01 09
        E 5 b4 01 0c
        E 5 b4 01 07
        E 5 b4 01 05
        E 5 b4 01 03
        E 5 b4 01 08
        E 5 b4 01 09
        E 5 b4 01 0b
        E 5 b4 01 0c
        E 5 b4 01 06
        E 5 b4 01 08
        E 5 b4 01 08
        E 5 b4 01 06
        E 5 b4 01 0b
        E 5 b4 01 01
        E 5 b4 01 04
        E 5 b4 01 08
        E 1 b4 01 1c
        E 1 b4 01 60
        E 1 b4 01 3f
        E 1 b4 01 0a
        E 1 b4 01 5a
        E 1 b4 01 50
        E 1 b4 01 0c
        E 1 b4 01 0b
        E 1 b4 01 3d
        E 1 b4 01 78
        E 1 b4 01 65
        E 1 b4 01 6f
        E 1 b4 01 4f
        E 1 b4 01 0e
        E 1 b4 01 18
        E 1 b4 01 56
        E 1 b4 01 46
        E 1 b4 01 24
        E 1 b4 01 19
        E 1 b4 01 22
        E 1 b4 01 63
        E 1 b4 01 3b
        E 1 b4 01 1e
        E 1 b4 01 49
        E 1 b4 01 7e
        E 1 b4 01 00
        E 1 b4 01 10
        E 1 b4 01 34
        E 1 b4 01 2b
        E 1 b4 01 68
        E 1 b4 01 1b
        E 1 b4 01 08
        E 1 b4 01 14
        E 1 b4 01 16
        E 1 b4 01 73
        E 1 b4 01 20
        E 1 b4 01 01
        E 1 b4 01 5e
        E 1 b4 01 2c
        E 1 b4 01 1a
        E 1 b4 01 32
        E 1 b4 01 21
        E 1 b4 01 6c
        E 1 b4 01 6b
        E 1 b4 01 7f
        E 1 b4 01 6a
        E 1 b4 01 37
        E 1 b4 01 76
        E 1 b4 01 5b
        E 1 b4 01 0f
        E 1 b4 01 38
        E 1 b4 01 44
        E 1 b4 01 79
        E 1 b4 01 61
        E 1 b4 01 45
        E 1 b4 01 47
        E 1 b4 01 06
        E 1 b4 01 0d
        E 1 b4 01 75
        E 1 b4 01 66
        E 1 b4 01 36
        E 1 b4 01 28
        E 1 b4 01 11
        E 1 b4 01 39
        E 1 b4 01 26
        E 1 b4 01 1f
        E 1 b4 01 30
        E 1 b4 01 42
        E 1 b4 01 4d
        E 1 b4 01 52
        E 1 b4 01 15
        E 1 b4 01 4c
        E 1 b4 01 71
        E 1 b4 01 41
        E 1 b4 01 4a
        E 1 b4 01 03
        E 1 b4 01 09
        E 1 b4 01 7d
        E 1 b4 01 53
        E 1 b4 01 17
        E 1 b4 01 74
        E 1 b4 01 29
        E 1 b4 01 31
        E 1 b4 01 3e
        E 1 b4 01 33
        E 1 b4 01 55
        E 1 b4 01 67
        E 1 b4 01 25
        E 1 b4 01 48
        E 1 b4 01 1d
        E 1 b4 01 72
        E 1 b4 01 69
        E 1 b4 01 3a
        E 1 b4 01 2e
        E 1 b4 01 64
        E 1 b4 01 2f
        E 1 b4 01 59
        E 1 b4 01 12
        E 1 b4 01 02
        E 1 b4 01 2a
        E 1 b4 01 40
        E 1 b4 01 6d
        E 1 b4 01 62
        E 1 b4 01 04
        E 1 b4 01 6e
        E 1 b4 01 5d
        E 1 b4 01 07
        E 1 b4 01 27
        E 1 b4 01 4b
        E 1 b4 01 5f
        E 1 b4 01 7a
        E 1 b4 01 4e
        E 1 b4 01 35
        E 1 b4 01 23
        E 1 b4 01 58
        E 1 b4 01 5c
        E 1 b4 01 70
        E 1 b4 01 7c
        E 1 b4 01 3c
        E 1 b4 01 51
        E 1 b4 01 57
        E 1 b4 01 43
        E 1 b4 01 77
        E 1 b4 01 13
        E 1 b4 01 2d
        E 1 b4 01 54
        E 4 b4 01 02
        E 4 b4 01 09
        E 4 b4 01 06
        E 4 b4 01 01
        E 4 b4 01 09
        E 4 b4 01 08
        E 4 b4 01 01
        E 4 b4 01 01
        E 4 b4 01 06
        E 4 b4 01 0c
        E 4 b4 01 0a
        E 4 b4 01 0b
        E 4 b4 01 07
        E 4 b4 01 01
        E 4 b4 01 02
        E 4 b4 01 08
        E 4 b4 01 07
        E 4 b4 01 03
        E 4 b4 01 02
        E 4 b4 01 03
        E 4 b4 01 09
        E 4 b4 01 05
        E 4 b4 01 03
        E 4 b4 01 07
        E 4 b4 01 0c
        E 4 b4 01 00
        E 4 b4 01 01
        E 4 b4 01 05
        E 4 b4 01 04
        E 4 b4 01 0a
        E 4 b4 01 02
        E 4 b4 01 00
        E 4 b4 01 02
        E 4 b4 01 02
        E 4 b4 01 0b
        E 4 b4 01 03
        E 4 b4 01 00
        E 4 b4 01 09
        E 4 b4 01 04
        E 4 b4 01 02
        E 4 b4 01 05
        E 4 b4 01 03
        E 4 b4 01 0a
        E 4 b4 01 0a
        E 4 b4 01 0c
        E 4 b4 01 0a
        E 4 b4 01 05
        E 4 b4 01 0b
        E 4 b4 01 09
        E 4 b4 01 01
        E 4 b4 01 05
        E 4 b4 01 06
        E 4 b4 01 0c
        E 4 b4 01 09
        E 4 b4 01 06
        E 4 b4 01 07
        E 4 b4 01 00
        E 4 b4 01 01
        E 4 b4 01 0b
        E 4 b4 01 0a
        E 4 b4 01 05
        E 4 b4 01 04
        E 4 b4 01 01
        E 4 b4 01 05
        E 4 b4 01 03
        E 4 b4 01 03
        E 4 b4 01 04
        E 4 b4 01 06
        E 4 b4 01 07
        E 4 b4 01 08
        E 4 b4 01 02
        E 4 b4 01 07
        E 4 b4 01 0b
        E 4 b4 01 06
        E 4 b4 01 07
        E 4 b4 01 00
        E 4 b4 01 00
        E 4 b4 01 0c
        E 4 b4 01 08
        E 4 b4 01 02
        E 4 b4 01 0b
        E 4 b4 01 04
        E 4 b4 01 04
        E 4 b4 01 06
        E 4 b4 01 05
        E 4 b4 01 08
        E 4 b4 01 0a
        E 4 b4 01 03
        E 4 b4 01 07
        E 4 b4 01 02
        E 4 b4 01 0b
        E 4 b4 01 0a
        E 4 b4 01 05
        E 4 b4 01 04
        E 4 b4 01 0a
        E 4 b4 01 04
        E 4 b4 01 08
        E 4 b4 01 01
        E 4 b4 01 00
        E 4 b4 01 04
        E 4 b4 01 06
        E 4 b4 01 0a
        E 4 b4 01 09
        E 4 b4 01 00
        E 4 b4 01 0b
        E 4 b4 01 09
        E 4 b4 01 00
        E 4 b4 01 03
        E 4 b4 01 07
        E 4 b4 01 09
        E 4 b4 01 0c
        E 4 b4 01 07
        E 4 b4 01 05
        E 4 b4 01 03
        E 4 b4 01 08
        E 4 b4 01 09
        E 4 b4 01 0b
        E 4 b4 01 0c
        E 4 b4 01 06
        E 4 b4 01 08
        E 4 b4 01 08
        E 4 b4 01 06
        E 4 b4 01 0b
        E 4 b4 01 01
        E 4 b4 01 04
        E 4 b4 01 08
        E 4 b4 01 1c
        E 4 b4 01 60
        E 4 b4 01 3f
        E 4 b4 01 0a
        E 4 b4 01 5a
        E 4 b4 01 50
        E 4 b4 01 0c
        E 4 b4 01 0b
        E 4 b4 01 3d
        E 4 b4 01 78
        E 4 b4 01 65
        E 4 b4 01 6f
        E 4 b4 01 4f
        E 4 b4 01 0e
        E 4 b4 01 18
        E 4 b4 01 56
        E 4 b4 01 46
        E 4 b4 01 24
        E 4 b4 01 19
        E 4 b4 01 22
        E 4 b4 01 63
        E 4 b4 01 3b
        E 4 b4 01 1e
        E 4 b4 01 49
        E 4 b4 01 7e
        E 4 b4 01 00
        E 4 b4 01 10
        E 4 b4 01 34
        E 4 b4 01 2b
        E 4 b4 01 68
        E 4 b4 01 1b
        E 4 b4 01 08
        E 4 b4 01 14
        E 4 b4 01 16
        E 4 b4 01 73
        E 4 b4 01 20
        E 4 b4 01 01
        E 4 b4 01 5e
        E 4 b4 01 2c
        E 4 b4 01 1a
        E 4 b4 01 32
        E 4 b4 01 21
        E 4 b4 01 6c
        E 4 b4 01 6b
        E 4 b4 01 7f
        E 4 b4 01 6a
        E 4 b4 01 37
        E 4 b4 01 76
        E 4 b4 01 5b
        E 4 b4 01 0f
        E 4 b4 01 38
        E 4 b4 01 44
        E 4 b4 01 79
        E 4 b4 01 61
        E 4 b4 01 45
        E 4 b4 01 47
        E 4 b4 01 06
        E 4 b4 01 0d
        E 4 b4 01 75
        E 4 b4 01 66
        E 4 b4 01 36
        E 4 b4 01 28
        E 4 b4 01 11
        E 4 b4 01 39
        E 4 b4 01 26
        E 4 b4 01 1f
        E 4 b4 01 30
        E 4 b4 01 42
        E 4 b4 01 4d
        E 4 b4 01 52
        E 4 b4 01 15
        E 4 b4 01 4c
        E 4 b4 01 71
        E 4 b4 01 41
        E 4 b4 01 4a
        E 4 b4 01 03
        E 4 b4 01 09
        E 4 b4 01 7d
        E 4 b4 01 53
        E 4 b4 01 17
        E 4 b4 01 74
        E 4 b4 01 29
        E 4 b4 01 31
        E 4 b4 01 3e
        E 4 b4 01 33
        E 4 b4 01 55
        E 4 b4 01 67
        E 4 b4 01 25
        E 4 b4 01 48
        E 4 b4 01 1d
        E 4 b4 01 72
        E 4 b4 01 69
        E 4 b4 01 3a
        E 4 b4 01 2e
        E 4 b4 01 64
        E 4 b4 01 2f
        E 4 b4 01 59
        E 4 b4 01 12
        E 4 b4 01 02
        E 4 b4 01 2a
        E 4 b4 01 40
        E 4 b4 01 6d
        E 4 b4 01 62
        E 4 b4 01 04
        E 4 b4 01 6e
        E 4 b4 01 5d
        E 4 b4 01 07
        E 4 b4 01 27
        E 4 b4 01 4b
        E 4 b4 01 5f
        E 4 b4 01 7a
        E 4 b4 01 4e
        E 4 b4 01 35
        E 4 b4 01 23
        E 4 b4 01 58
        E 4 b4 01 5c
        E 4 b4 01 70
        E 4 b4 01 7c
        E 4 b4 01 3c
        E 4 b4 01 51
        E 4 b4 01 57
        E 4 b4 01 43
        E 4 b4 01 77
        E 4 b4 01 13
        E 4 b4 01 2d
        E 4 b4 01 54
        E 5 b4 01 02
        E 5 b4 01 09
        E 5 b4 01 06
        E 5 b4 01 01
        E 5 b4 01 09
        E 5 b4 01 08
        E 5 b4 01 01
        E 5 b4 01 01
        E 5 b4 01 06
        E 5 b4 01 0c
        E 5 b4 01 0a
        E 5 b4 01 0b
        E 5 b4 01 07
        E 5 b4 01 01
        E 5 b4 01 02
        E 5 b4 01 08
        E 5 b4 01 07
        E 5 b4 01 03
        E 5 b4 01 02
        E 5 b4 01 03
        E 5 b4 01 09
        E 5 b4 01 05
        E 5 b4 01 03
        E 5 b4 01 07
        E 5 b4 01 0c
        E 5 b4 01 00
        E 5 b4 01 01
        E 5 b4 01 05
        E 5 b4 01 04
        E 5 b4 01 0a
        E 5 b4 01 02
        E 5 b4 01 00
        E 5 b4 01 02
        E 5 b4 01 02
        E 5 b4 01 0b
        E 5 b4 01 03
        E 5 b4 01 00
        E 5 b4 01 09
        E 5 b4 01 04
        E 5 b4 01 02
        E 5 b4 01 05
        E 5 b4 01 03
        E 5 b4 01 0a
        E 5 b4 01 0a
        E 5 b4 01 0c
        E 5 b4 01 0a
        E 5 b4 01 05
        E 5 b4 01 0b
        E 5 b4 01 09
        E 5 b4 01 01
        E 5 b4 01 05
        E 5 b4 01 06
        E 5 b4 01 0c
        E 5 b4 01 09
        E 5 b4 01 06
        E 5 b4 01 07
        E 5 b4 01 00
        E 5 b4 01 01
        E 5 b4 01 0b
        E 5 b4 01 0a
        E 5 b4 01 05
        E 5 b4 01 04
        E 5 b4 01 01
        E 5 b4 01 05
        E 5 b4 01 03
        E 5 b4 01 03
        E 5 b4 01 04
        E 5 b4 01 06
        E 5 b4 01 07
        E 5 b4 01 08
        E 5 b4 01 02
        E 5 b4 01 07
        E 5 b4 01 0b
        E 5 b4 01 06
        E 5 b4 01 07
        E 5 b4 01 00
        E 5 b4 01 00
        E 5 b4 01 0c
        E 5 b4 01 08
        E 5 b4 01 02
        E 5 b4 01 0b
        E 5 b4 01 04
        E 5 b4 01 04
        E 5 b4 01 06
        E 5 b4 01 05
        E 5 b4 01 08
        E 5 b4 01 0a
        E 5 b4 01 03
        E 5 b4 01 07
        E 5 b4 01 02
        E 5 b4 01 0b
        E 5 b4 01 0a
        E 5 b4 01 05
        E 5 b4 01 04
        E 5 b4 01 0a
        E 5 b4 01 04
        E 5 b4 01 08
        E 5 b4 01 01
        E 5 b4 01 00
        E 5 b4 01 04
        E 5 b4 01 06
        E 5 b4 01 0a
        E 5 b4 01 09
        E 5 b4 01 00
        E 5 b4 01 0b
        E 5 b4 01 09
        E 5 b4 01 00
        E 5 b4 01 03
        E 5 b4 01 07
        E 5 b4 01 09
        E 5 b4 01 0c
        E 5 b4 01 07
        E 5 b4 01 05
        E 5 b4 01 03
        E 5 b4 01 08
        E 5 b4 01 09
        E 5 b4 01 0b
        E 5 b4 01 0c
        E 5 b4 01 06
        E 5 b4 01 08
        E 5 b4 01 08
        E 5 b4 01 06
        E 5 b4 01 0b
        E 5 b4 01 01
        E 5 b4 01 04
        E 5 b4 01 08
        E 1 b4 01 1c
        E 1 b4 01 60
        E 1 b4 01 3f
        E 1 b4 01 0a
        E 1 b4 01 5a
        E 1 b4 01 50
        E 1 b4 01 0c
        E 1 b4 01 0b
        E 1 b4 01 3d
        E 1 b4 01 78
        E 1 b4 01 65
        E 1 b4 01 6f
        E 1 b4 01 4f
        E 1 b4 01 0e
        E 1 b4 01 18
        E 1 b4 01 56
        E 1 b4 01 46
        E 1 b4 01 24
        E 1 b4 01 19
        E 1 b4 01 22
        E 1 b4 01 63
        E 1 b4 01 3b
        E 1 b4 01 1e
        E 1 b4 01 49
        E 1 b4 01 7e
        E 1 b4 01 00
        E 1 b4 01 10
        E 1 b4 01 34
        E 1 b4 01 2b
        E 1 b4 01 68
        E 1 b4 01 1b
        E 1 b4 01 08
        E 1 b4 01 14
        E 1 b4 01 16
        E 1 b4 01 73
        E 1 b4 01 20
        E 1 b4 01 01
        E 1 b4 01 5e
        E 1 b4 01 2c
        E 1 b4 01 1a
        E 1 b4 01 32
        E 1 b4 01 21
        E 1 b4 01 6c
        E 1 b4 01 6b
        E 1 b4 01 7f
        E 1 b4 01 6a
        E 1 b4 01 37
        E 1 b4 01 76
        E 1 b4 01 5b
        E 1 b4 01 0f
        E 1 b4 01 38
        E 1 b4 01 44
        E 1 b4 01 79
        E 1 b4 01 61
        E 1 b4 01 45
        E 1 b4 01 47
        E 1 b4 01 06
        E 1 b4 01 0d
        E 1 b4 01 75
        E 1 b4 01 66
        E 1 b4 01 36
        E 1 b4 01 28
        E 1 b4 01 11
        E 1 b4 01 39
        E 1 b4 01 26
        E 1 b4 01 1f
        E 1 b4 01 30
        E 1 b4 01 42
        E 1 b4 01 4d
        E 1 b4 01 52
        E 1 b4 01 15
        E 1 b4 01 4c
        E 1 b4 01 71
        E 1 b4 01 41
        E 1 b4 01 4a
        E 1 b4 01 03
        E 1 b4 01 09
        E 1 b4 01 7d
        E 1 b4 01 53
        E 1 b4 01 17
        E 1 b4 01 74
        E 1 b4 01 29
        E 1 b4 01 31
        E 1 b4 01 3e
        E 1 b4 01 33
        E 1 b4 01 55
        E 1 b4 01 67
        E 1 b4 01 25
        E 1 b4 01 48
        E 1 b4 01 1d
        E 1 b4 01 72
        E 1 b4 01 69
        E 1 b4 01 3a
        E 1 b4 01 2e
        E 1 b4 01 64
        E 1 b4 01 2f
        E 1 b4 01 59
        E 1 b4 01 12
        E 1 b4 01 02
        E 1 b4 01 2a
        E 1 b4 01 40
        E 1 b4 01 6d
        E 1 b4 01 62
        E 1 b4 01 04
        E 1 b4 01 6e
        E 1 b4 01 5d
        E 1 b4 01 07
        E 1 b4 01 27
        E 1 b4 01 4b
        E 1 b4 01 5f
        E 1 b4 01 7a
        E 1 b4 01 4e
        E 1 b4 01 35
        E 1 b4 01 23
        E 1 b4 01 58
        E 1 b4 01 5c
        E 1 b4 01 70
        E 1 b4 01 7c
        E 1 b4 01 3c
        E 1 b4 01 51
        E 1 b4 01 57
        E 1 b4 01 43
        E 1 b4 01 77
        E 1 b4 01 13
        E 1 b4 01 2d
        E 1 b4 01 54
        E 4 b4 01 02
        E 4 b4 01 09
        E 4 b4 01 06
        E 4 b4 01 01
        E 4 b4 01 09
        E 4 b4 01 08
        E 4 b4 01 01
        E 4 b4 01 01
        E 4 b4 01 06
        E 4 b4 01 0c
        E 4 b4 01 0a
        E 4 b4 01 0b
        E 4 b4 01 07
        E 4 b4 01 01
        E 4 b4 01 02
        E 4 b4 01 08
        E 4 b4 01 07
        E 4 b4 01 03
        E 4 b4 01 02
        E 4 b4 01 03
        E 4 b4 01 09
        E 4 b4 01 05
        E 4 b4 01 03
        E 4 b4 01 07
        E 4 b4 01 0c
        E 4 b4 01 00
        E 4 b4 01 01
        E 4 b4 01 05
        E 4 b4 01 04
        E 4 b4 01 0a
        E 4 b4 01 02
        E 4 b4 01 00
        E 4 b4 01 02
        E 4 b4 01 02
        E 4 b4 01 0b
        E 4 b4 01 03
        E 4 b4 01 00
        E 4 b4 01 09
        E 4 b4 01 04
        E 4 b4 01 02
        E 4 b4 01 05
        E 4 b4 01 03
        E 4 b4 01 0a
        E 4 b4 01 0a
        E 4 b4 01 0c
        E 4 b4 01 0a
        E 4 b4 01 05
        E 4 b4 01 0b
        E 4 b4 01 09
        E 4 b4 01 01
        E 4 b4 01 05
        E 4 b4 01 06
        E 4 b4 01 0c
        E 4 b4 01 09
        E 4 b4 01 06
        E 4 b4 01 07
        E 4 b4 01 00
        E 4 b4 01 01
        E 4 b4 01 0b
        E 4 b4 01 0a
        E 4 b4 01 05
        E 4 b4 01 04
        E 4 b4 01 01
        E 4 b4 01 05
        E 4 b4 01 03
        E 4 b4 01 03
        E 4 b4 01 04
        E 4 b4 01 06
        E 4 b4 01 07
        E 4 b4 01 08
        E 4 b4 01 02
        E 4 b4 01 07
        E 4 b4 01 0b
        E 4 b4 01 06
        E 4 b4 01 07
        E 4 b4 01 00
        E 4 b4 01 00
        E 4 b4 01 0c
        E 4 b4 01 08
        E 4 b4 01 02
        E 4 b4 01 0b
        E 4 b4 01 04
        E 4 b4 01 04
        E 4 b4 01 06
        E 4 b4 01 05
        E 4 b4 01 08
        E 4 b4 01 0a
        E 4 b4 01 03
        E 4 b4 01 07
        E 4 b4 01 02
        E 4 b4 01 0b
        E 4 b4 01 0a
        E 4 b4 01 05
        E 4 b4 01 04
        E 4 b4 01 0a
        E 4 b4 01 04
        E 4 b4 01 08
        E 4 b4 01 01
        E 4 b4 01 00
        E 4 b4 01 04
        E 4 b4 01 06
        E 4 b4 01 0a
        E 4 b4 01 09
        E 4 b4 01 00
        E 4 b4 01 0b
        E 4 b4 01 09
        E 4 b4 01 00
        E 4 b4 01 03
        E 4 b4 01 07
        E 4 b4 01 09
        E 4 b4 01 0c
        E 4 b4 01 07
        E 4 b4 01 05
        E 4 b4 01 03
        E 4 b4 01 08
        E 4 b4 01 09
        E 4 b4 01 0b
        E 4 b4 01 0c
        E 4 b4 01 06
        E 4 b4 01 08
        E 4 b4 01 08
        E 4 b4 01 06
        E 4 b4 01 0b
        E 4 b4 01 01
        E 4 b4 01 04
        E 4 b4 01 08
        E 4 b4 01 1c
        E 4 b4 01 60
        E 4 b4 01 3f
        E 4 b4 01 0a
        E 4 b4 01 5a
        E 4 b4 01 50
        E 4 b4 01 0c
        E 4 b4 01 0b
        E 4 b4 01 3d
        E 4 b4 01 78
        E 4 b4 01 65
        E 4 b4 01 6f
        E 4 b4 01 4f
        E 4 b4 01 0e
        E 4 b4 01 18
        E 4 b4 01 56
        E 4 b4 01 46
        E 4 b4 01 24
        E 4 b4 01 19
        E 4 b4 01 22
        E 4 b4 01 63
        E 4 b4 01 3b
        E 4 b4 01 1e
        E 4 b4 01 49
        E 4 b4 01 7e
        E 4 b4 01 00
        E 4 b4 01 10
        E 4 b4 01 34
        E 4 b4 01 2b
        E 4 b4 01 68
        E 4 b4 01 1b
        E 4 b4 01 08
        E 4 b4 01 14
        E 4 b4 01 16
        E 4 b4 01 73
        E 4 b4 01 20
        E 4 b4 01 01
        E 4 b4 01 5e
        E 4 b4 01 2c
        E 4 b4 01 1a
        E 4 b4 01 32
        E 4 b4 01 21
        E 4 b4 01 6c
        E 4 b4 01 6b
        E 4 b4 01 7f
        E 4 b4 01 6a
        E 4 b4 01 37
        E 4 b4 01 76
        E 4 b4 01 5b
        E 4 b4 01 0f
        E 4 b4 01 38
        E 4 b4 01 44
        E 4 b4 01 79
        E 4 b4 01 61
        E 4 b4 01 45
        E 4 b4 01 47
        E 4 b4 01 06
        E 4 b4 01 0d
        E 4 b4 01 75
        E 4 b4 01 66
        E 4 b4 01 36
        E 4 b4 01 28
        E 4 b4 01 11
        E 4 b4 01 39
        E 4 b4 01 26
        E 4 b4 01 1f
        E 4 b4 01 30
        E 4 b4 01 42
        E 4 b4 01 4d
        E 4 b4 01 52
        E 4 b4 01 15
        E 4 b4 01 4c
        E 4 b4 01 71
        E 4 b4 01 41
        E 4 b4 01 4a
        E 4 b4 01 03
        E 4 b4 01 09
        E 4 b4 01 7d
        E 4 b4 01 53
        E 4 b4 01 17
        E 4 b4 01 74
        E 4 b4 01 29
        E 4 b4 01 31
        E 4 b4 01 3e
        E 4 b4 01 33
        E 4 b4 01 55
        E 4 b4 01 67
        E 4 b4 01 25
        E 4 b4 01 48
        E 4 b4 01 1d
        E 4 b4 01 72
        E 4 b4 01 69
        E 4 b4 01 3a
        E 4 b4 01 2e
        E 4 b4 01 64
        E 4 b4 01 2f
        E 4 b4 01 59
        E 4 b4 01 12
        E 4 b4 01 02
        E 4 b4 01 2a
        E 4 b4 01 40
        E 4 b4 01 6d
        E 4 b4 01 62
        E 4 b4 01 04
        E 4 b4 01 6e
        E 4 b4 01 5d
        E 4 b4 01 07
        E 4 b4 01 27
        E 4 b4 01 4b
        E 4 b4 01 5f
        E 4 b4 01 7a
        E 4 b4 01 4e
        E 4 b4 01 35
        E 4 b4 01 23
        E 4 b4 01 58
        E 4 b4 01 5c
        E 4 b4 01 70
        E 4 b4 01 7c
        E 4 b4 01 3c
        E 4 b4 01 51
        E 4 b4 01 57
        E 4 b4 01 43
        E 4 b4 01 77
        E 4 b4 01 13
        E 4 b4 01 2d
        E 4 b4 01 54
        E 5 b4 01 02
        E 5 b4 01 09
        E 5 b4 01 06
        E 5 b4 01 01
        E 5 b4 01 09
        E 5 b4 01 08
        E 5 b4 01 01
        E 5 b4 01 01
        E 5 b4 01 06
        E 5 b4 01 0c
        E 5 b4 01 0a
        E 5 b4 01 0b
        E 5 b4 01 07
        E 5 b4 01 01
        E 5 b4 01 02
        E 5 b4 01 08
        E 5 b4 01 07
        E 5 b4 01 03
        E 5 b4 01 02
        E 5 b4 01 03
        E 5 b4 01 09
        E 5 b4 01 05
        E 5 b4 01 03
        E 5 b4 01 07
        E 5 b4 01 0c
        E 5 b4 01 00
        E 5 b4 01 01
        E 5 b4 01 05
        E 5 b4 01 04
        E 5 b4 01 0a
        E 5 b4 01 02
        E 5 b4 01 00
        E 5 b4 01 02
        E 5 b4 01 02
        E 5 b4 01 0b
        E 5 b4 01 03
        E 5 b4 01 00
        E 5 b4 01 09
        E 5 b4 01 04
        E 5 b4 01 02
        E 5 b4 01 05
        E 5 b4 01 03
        E 5 b4 01 0a
        E 5 b4 01 0a
        E 5 b4 01 0c
        E 5 b4 01 0a
        E 5 b4 01 05
        E 5 b4 01 0b
        E 5 b4 01 09
        E 5 b4 01 01
        E 5 b4 01 05
        E 5 b4 01 06
        E 5 b4 01 0c
        E 5 b4 01 09
        E 5 b4 01 06
        E 5 b4 01 07
        E 5 b4 01 00
        E 5 b4 01 01
        E 5 b4 01 0b
        E 5 b4 01 0a
        E 5 b4 01 05
        E 5 b4 01 04
        E 5 b4 01 01
        E 5 b4 01 05
        E 5 b4 01 03
        E 5 b4 01 03
        E 5 b4 01 04
        E 5 b4 01 06
        E 5 b4 01 07
        E 5 b4 01 08
        E 5 b4 01 02
        E 5 b4 01 07
        E 5 b4 01 0b
        E 5 b4 01 06
        E 5 b4 01 07
        E 5 b4 01 00
        E 5 b4 01 00
        E 5 b4 01 0c
        E 5 b4 01 08
        E 5 b4 01 02
        E 5 b4 01 0b
        E 5 b4 01 04
        E 5 b4 01 04
        E 5 b4 01 06
        E 5 b4 01 05
        E 5 b4 01 08
        E 5 b4 01 0a
        E 5 b4 01 03
        E 5 b4 01 07
        E 5 b4 01 02
        E 5 b4 01 0b
        E 5 b4 01 0a
        E 5 b4 01 05
        E 5 b4 01 04
        E 5 b4 01 0a
        E 5 b4 01 04
        E 5 b4 01 08
        E 5 b4 01 01
        E 5 b4 01 00
        E 5 b4 01 04
        E 5 b4 01 06
        E 5 b4 01 0a
        E 5 b4 01 09
        E 5 b4 01 00
        E 5 b4 01 0b
        E 5 b4 01 09
        E 5 b4 01 00
        E 5 b4 01 03
        E 5 b4 01 07
        E 5 b4 01 09
        E 5 b4 01 0c
        E 5 b4 01 07
        E 5 b4 01 05
        E 5 b4 01 03
        E 5 b4 01 08
        E 5 b4 01 09
        E 5 b4 01 0b
        E 5 b4 01 0c
        E 5 b4 01 06
        E 5 b4 01 08
        E 5 b4 01 08
        E 5 b4 01 06
        E 5 b4 01 0b
        E 5 b4 01 01
        E 5 b4 01 04
        E 5 b4 01 08
        E 1 b4 01 1c
        E 1 b4 01 60
        E 1 b4 01 3f
        E 1 b4 01 0a
        E 1 b4 01 5a
        E 1 b4 01 50
        E 1 b4 01 0c
        E 1 b4 01 0b
        E 1 b4 01 3d
        E 1 b4 01 78
        E 1 b4 01 65
        E 1 b4 01 6f
        E 1 b4 01 4f
        E 1 b4 01 0e
        E 1 b4 01 18
        E 1 b4 01 56
        E 1 b4 01 46
        E 1 b4 01 24
        E 1 b4 01 19
        E 1 b4 01 22
        E 1 b4 01 63
        E 1 b4 01 3b
        E 1 b4 01 1e
        E 1 b4 01 49
        E 1 b4 01 7e
        E 1 b4 01 00
        E 1 b4 01 10
        E 1 b4 01 34
        E 1 b4 01 2b
        E 1 b4 01 68
        E 1 b4 01 1b
        E 1 b4 01 08
        E 1 b4 01 14
        E 1 b4 01 16
        E 1 b4 01 73
        E 1 b4 01 20
        E 1 b4 01 01
        E 1 b4 01 5e
        E 1 b4 01 2c
        E 1 b4 01 1a
        E 1 b4 01 32
        E 1 b4 01 21
        E 1 b4 01 6c
        E 1 b4 01 6b
        E 1 b4 01 7f
        E 1 b4 01 6a
        E 1 b4 01 37
        E 1 b4 01 76
        E 1 b4 01 5b
        E 1 b4 01 0f
        E 1 b4 01 38
        E 1 b4 01 44
        E 1 b4 01 79
        E 1 b4 01 61
        E 1 b4 01 45
        E 1 b4 01 47
        E 1 b4 01 06
        E 1 b4 01 0d
        E 1 b4 01 75
        E 1 b4 01 66
        E 1 b4 01 36
        E 1 b4 01 28
        E 1 b4 01 11
        E 1 b4 01 39
        E 1 b4 01 26
        E 1 b4 01 1f
        E 1 b4 01 30
        E 1 b4 01 42
        E 1 b4 01 4d
        E 1 b4 01 52
        E 1 b4 01 15
        E 1 b4 01 4c
        E 1 b4 01 71
        E 1 b4 01 41
        E 1 b4 01 4a
        E 1 b4 01 03
        E 1 b4 01 09
        E 1 b4 01 7d
        E 1 b4 01 53
        E 1 b4 01 17
        E 1 b4 01 74
        E 1 b4 01 29
        E 1 b4 01 31
        E 1 b4 01 3e
        E 1 b4 01 33
        E 1 b4 01 55
        E 1 b4 01 67
        E 1 b4 01 25
        E 1 b4 01 48
        E 1 b4 01 1d
        E 1 b4 01 72
        E 1 b4 01 69
        E 1 b4 01 3a
        E 1 b4 01 2e
        E 1 b4 01 64
        E 1 b4 01 2f
        E 1 b4 01 59
        E 1 b4 01 12
        E 1 b4 01 02
        E 1 b4 01 2a
        E 1 b4 01 40
        E 1 b4 01 6d
        E 1 b4 01 62
        E 1 b4 01 04
        E 1 b4 01 6e
        E 1 b4 01 5d
        E 1 b4 01 07
        E 1 b4 01 27
        E 1 b4 01 4b
        E 1 b4 01 5f
        E 1 b4 01 7a
        E 1 b4 01 4e
        E 1 b4 01 35
        E 1 b4 01 23
        E 1 b4 01 58
        E 1 b4 01 5c
        E 1 b4 01 70
        E 1 b4 01 7c
        E 1 b4 01 3c
        E 1 b4 01 51
        E 1 b4 01 57
        E 1 b4 01 43
        E 1 b4 01 77
        E 1 b4 01 13
        E 1 b4 01 2d
        E 1 b4 01 54
        E 4 b4 01 02
        E 4 b4 01 09
        E 4 b4 01 06
        E 4 b4 01 01
        E 4 b4 01 09
        E 4 b4 01 08
        E 4 b4 01 01
        E 4 b4 01 01
        E 4 b4 01 06
        E 4 b4 01 0c
        E 4 b4 01 0a
        E 4 b4 01 0b
        E 4 b4 01 07
        E 4 b4 01 01
        E 4 b4 01 02
        E 4 b4 01 08
        E 4 b4 01 07
        E 4 b4 01 03
        E 4 b4 01 02
        E 4 b4 01 03
        E 4 b4 01 09
        E 4 b4 01 05
        E 4 b4 01 03
        E 4 b4 01 07
        E 4 b4 01 0c
        E 4 b4 01 00
        E 4 b4 01 01
        E 4 b4 01 05
        E 4 b4 01 04
        E 4 b4 01 0a
        E 4 b4 01 02
        E 4 b4 01 00
        E 4 b4 01 02
        E 4 b4 01 02
        E 4 b4 01 0b
        E 4 b4 01 03
        E 4 b4 01 00
        E 4 b4 01 09
        E 4 b4 01 04
        E 4 b4 01 02
        E 4 b4 01 05
        E 4 b4 01 03
        E 4 b4 01 0a
        E 4 b4 01 0a
        E 4 b4 01 0c
        E 4 b4 01 0a
        E 4 b4 01 05
        E 4 b4 01 0b
        E 4 b4 01 09
        E 4 b4 01 01
        E 4 b4 01 05
        E 4 b4 01 06
        E 4 b4 01 0c
        E 4 b4 01 09
        E 4 b4 01 06
        E 4 b4 01 07
        E 4 b4 01 00
        E 4 b4 01 01
        E 4 b4 01 0b
        E 4 b4 01 0a
        E 4 b4 01 05
        E 4 b4 01 04
        E 4 b4 01 01
        E 4 b4 01 05
        E 4 b4 01 03
        E 4 b4 01 03
        E 4 b4 01 04
        E 4 b4 01 06
        E 4 b4 01 07
        E 4 b4 01 08
        E 4 b4 01 02
        E 4 b4 01 07
        E 4 b4 01 0b
        E 4 b4 01 06
        E 4 b4 01 07
        E 4 b4 01 00
        E 4 b4 01 00
        E 4 b4 01 0c
        E 4 b4 01 08
        E 4 b4 01 02
        E 4 b4 01 0b
        E 4 b4 01 04
        E 4 b4 01 04
        E 4 b4 01 06
        E 4 b4 01 05
        E 4 b4 01 08
        E 4 b4 01 0a
        E 4 b4 01 03
        E 4 b4 01 07
        E 4 b4 01 02
        E 4 b4 01 0b
        E 4 b4 01 0a
        E 4 b4 01 05
        E 4 b4 01 04
        E 4 b4 01 0a
        E 4 b4 01 04
        E 4 b4 01 08
        E 4 b4 01 01
        E 4 b4 01 00
        E 4 b4 01 04
        E 4 b4 01 06
        E 4 b4 01 0a
        E 4 b4 01 09
        E 4 b4 01 00
        E 4 b4 01 0b
        E 4 b4 01 09
        E 4 b4 01 00
        E 4 b4 01 03
        E 4 b4 01 07
        E 4 b4 01 09
        E 4 b4 01 0c
        E 4 b4 01 07
        E 4 b4 01 05
        E 4 b4 01 03
        E 4 b4 01 08
        E 4 b4 01 09
        E 4 b4 01 0b
        E 4 b4 01 0c
        E 4 b4 01 06
        E 4 b4 01 08
        E 4 b4 01 08
        E 4 b4 01 06
        E 4 b4 01 0b
        E 4 b4 01 01
        E 4 b4 01 04
        E 4 b4 01 08
        E 4 b4 01 1c
        E 4 b4 01 60
        E 4 b4 01 3f
        E 4 b4 01 0a
        E 4 b4 01 5a
        E 4 b4 01 50
        E 4 b4 01 0c
        E 4 b4 01 0b
        E 4 b4 01 3d
        E 4 b4 01 78
        E 4 b4 01 65
        E 4 b4 01 6f
        E 4 b4 01 4f
        E 4 b4 01 0e
        E 4 b4 01 18
        E 4 b4 01 56
        E 4 b4 01 46
        E 4 b4 01 24
        E 4 b4 01 19
        E 4 b4 01 22
        E 4 b4 01 63
        E 4 b4 01 3b
        E 4 b4 01 1e
        E 4 b4 01 49
        E 4 b4 01 7e
        E 4 b4 01 00
        E 4 b4 01 10
        E 4 b4 01 34
        E 4 b4 01 2b
        E 4 b4 01 68
        E 4 b4 01 1b
        E 4 b4 01 08
        E 4 b4 01 14
        E 4 b4 01 16
        E 4 b4 01 73
        E 4 b4 01 20
        E 4 b4 01 01
        E 4 b4 01 5e
        E 4 b4 01 2c
        E 4 b4 01 1a
        E 4 b4 01 32
        E 4 b4 01 21
        E 4 b4 01 6c
        E 4 b4 01 6b
        E 4 b4 01 7f
        E 4 b4 01 6a
        E 4 b4 01 37
        E 4 b4 01 76
        E 4 b4 01 5b
        E 4 b4 01 0f
        E 4 b4 01 38
        E 4 b4 01 44
        E 4 b4 01 79
        E 4 b4 01 61
        E 4 b4 01 45
        E 4 b4 01 47
        E 4 b4 01 06
        E 4 b4 01 0d
        E 4 b4 01 75
        E 4 b4 01 66
        E 4 b4 01 36
        E 4 b4 01 28
        E 4 b4 01 11
        E 4 b4 01 39
        E 4 b4 01 26
        E 4 b4 01 1f
        E 4 b4 01 30
        E 4 b4 01 42
        E 4 b4 01 4d
        E 4 b4 01 52
        E 4 b4 01 15
        E 4 b4 01 4c
        E 4 b4 01 71
        E 4 b4 01 41
        E 4 b4 01 4a
        E 4 b4 01 03
        E 4 b4 01 09
        E 4 b4 01 7d
        E 4 b4 01 53
        E 4 b4 01 17
        E 4 b4 01 74
        E 4 b4 01 29
        E 4 b4 01 31
        E 4 b4 01 3e
        E 4 b4 01 33
        E 4 b4 01 55
        E 4 b4 01 67
        E 4 b4 01 25
        E 4 b4 01 48
        E 4 b4 01 1d
        E 4 b4 01 72
        E 4 b4 01 69
        E 4 b4 01 3a
        E 4 b4 01 2e
        E 4 b4 01 64
        E 4 b4 01 2f
        E 4 b4 01 59
        E 4 b4 01 12
        E 4 b4 01 02
        E 4 b4 01 2a
        E 4 b4 01 40
        E 4 b4 01 6d
        E 4 b4 01 62
        E 4 b4 01 04
        E 4 b4 01 6e
        E 4 b4 01 5d
        E 4 b4 01 07
        E 4 b4 01 27
        E 4 b4 01 4b
        E 4 b4 01 5f
        E 4 b4 01 7a
        E 4 b4 01 4e
        E 4 b4 01 35
        E 4 b4 01 23
        E 4 b4 01 58
        E 4 b4 01 5c
        E 4 b4 01 70
        E 4 b4 01 7c
        E 4 b4 01 3c
        E 4 b4 01 51
        E 4 b4 01 57
        E 4 b4 01 43
        E 4 b4 01 77
        E 4 b4 01 13
        E 4 b4 01 2d
        E 4 b4 01 54
        E 5 b4 01 02
        E 5 b4 01 09
        E 5 b4 01 06
        E 5 b4 01 01
        E 5 b4 01 09
        E 5 b4 01 08
        E 5 b4 01 01
        E 5 b4 01 01
        E 5 b4 01 06
        E 5 b4 01 0c
        E 5 b4 01 0a
        E 5 b4 01 0b
        E 5 b4 01 07
        E 5 b4 01 01
        E 5 b4 01 02
        E 5 b4 01 08
        E 5 b4 01 07
        E 5 b4 01 03
        E 5 b4 01 02
        E 5 b4 01 03
        E 5 b4 01 09
        E 5 b4 01 05
        E 5 b4 01 03
        E 5 b4 01 07
        E 5 b4 01 0c
        E 5 b4 01 00
        E 5 b4 01 01
        E 5 b4 01 05
        E 5 b4 01 04
        E 5 b4 01 0a
        E 5 b4 01 02
        E 5 b4 01 00
        E 5 b4 01 02
        E 5 b4 01 02
        E 5 b4 01 0b
        E 5 b4 01 03
        E 5 b4 01 00
        E 5 b4 01 09
        E 5 b4 01 04
        E 5 b4 01 02
        E 5 b4 01 05
        E 5 b4 01 03
        E 5 b4 01 0a
        E 5 b4 01 0a
        E 5 b4 01 0c
        E 5 b4 01 0a
        E 5 b4 01 05
        E 5 b4 01 0b
        E 5 b4 01 09
        E 5 b4 01 01
        E 5 b4 01 05
        E 5 b4 01 06
        E 5 b4 01 0c
        E 5 b4 01 09
        E 5 b4 01 06
        E 5 b4 01 07
        E 5 b4 01 00
        E 5 b4 01 01
        E 5 b4 01 0b
        E 5 b4 01 0a
        E 5 b4 01 05
        E 5 b4 01 04
        E 5 b4 01 01
        E 5 b4 01 05
        E 5 b4 01 03
        E 5 b4 01 03
        E 5 b4 01 04
        E 5 b4 01 06
        E 5 b4 01 07
        E 5 b4 01 08
        E 5 b4 01 02
        E 5 b4 01 07
        E 5 b4 01 0b
        E 5 b4 01 06
        E 5 b4 01 07
        E 5 b4 01 00
        E 5 b4 01 00
        E 5 b4 01 0c
        E 5 b4 01 08
        E 5 b4 01 02
        E 5 b4 01 0b
        E 5 b4 01 04
        E 5 b4 01 04
        E 5 b4 01 06
        E 5 b4 01 05
        E 5 b4 01 08
        E 5 b4 01 0a
        E 5 b4 01 03
        E 5 b4 01 07
        E 5 b4 01 02
        E 5 b4 01 0b
        E 5 b4 01 0a
        E 5 b4 01 05
        E 5 b4 01 04
        E 5 b4 01 0a
        E 5 b4 01 04
        E 5 b4 01 08
        E 5 b4 01 01
        E 5 b4 01 00
        E 5 b4 01 04
        E 5 b4 01 06
        E 5 b4 01 0a
        E 5 b4 01 09
        E 5 b4 01 00
        E 5 b4 01 0b
        E 5 b4 01 09
        E 5 b4 01 00
        E 5 b4 01 03
        E 5 b4 01 07
        E 5 b4 01 09
        E 5 b4 01 0c
        E 5 b4 01 07
        E 5 b4 01 05
        E 5 b4 01 03
        E 5 b4 01 08
        E 5 b4 01 09
        E 5 b4 01 0b
        E 5 b4 01 0c
        E 5 b4 01 06
        E 5 b4 01 08
        E 5 b4 01 08
        E 5 b4 01 06
        E 5 b4 01 0b
        E 5 b4 01 01
        E 5 b4 01 04
        E 5 b4 01 08
        E 1 b4 01 1c
        E 1 b4 01 60
        E 1 b4 01 3f
        E 1 b4 01 0a
        E 1 b4 01 5a
        E 1 b4 01 50
        E 1 b4 01 0c
        E 1 b4 01 0b
        E 1 b4 01 3d
        E 1 b4 01 78
        E 1 b4 01 65
        E 1 b4 01 6f
        E 1 b4 01 4f
        E 1 b4 01 0e
        E 1 b4 01 18
        E 1 b4 01 56
        E 1 b4 01 46
        E 1 b4 01 24
        E 1 b4 01 19
        E 1 b4 01 22
        E 1 b4 01 63
        E 1 b4 01 3b
        E 1 b4 01 1e
        E 1 b4 01 49
        E 1 b4 01 7e
        E 1 b4 01 00
        E 1 b4 01 10
        E 1 b4 01 34
        E 1 b4 01 2b
        E 1 b4 01 68
        E 1 b4 01 1b
        E 1 b4 01 08
        E 1 b4 01 14
        E 1 b4 01 16
        E 1 b4 01 73
        E 1 b4 01 20
        E 1 b4 01 01
        E 1 b4 01 5e
        E 1 b4 01 2c
        E 1 b4 01 1a
        E 1 b4 01 32
        E 1 b4 01 21
        E 1 b4 01 6c
        E 1 b4 01 6b
        E 1 b4 01 7f
        E 1 b4 01 6a
        E 1 b4 01 37
        E 1 b4 01 76
        E 1 b4 01 5b
        E 1 b4 01 0f
        E 1 b4 01 38
        E 1 b4 01 44
        E 1 b4 01 79
        E 1 b4 01 61
        E 1 b4 01 45
        E 1 b4 01 47
        E 1 b4 01 06
        E 1 b4 01 0d
        E 1 b4 01 75
        E 1 b4 01 66
        E 1 b4 01 36
        E 1 b4 01 28
        E 1 b4 01 11
        E 1 b4 01 39
        E 1 b4 01 26
        E 1 b4 01 1f
        E 1 b4 01 30
        E 1 b4 01 42
        E 1 b4 01 4d
        E 1 b4 01 52
        E 1 b4 01 15
        E 1 b4 01 4c
        E 1 b4 01 71
        E 1 b4 01 41
        E 1 b4 01 4a
        E 1 b4 01 03
        E 1 b4 01 09
        E 1 b4 01 7d
        E 1 b4 01 53
        E 1 b4 01 17
        E 1 b4 01 74
        E 1 b4 01 29
        E 1 b4 01 31
        E 1 b4 01 3e
        E 1 b4 01 33
        E 1 b4 01 55
        E 1 b4 01 67
        E 1 b4 01 25
        E 1 b4 01 48
        E 1 b4 01 1d
        E 1 b4 01 72
        E 1 b4 01 69
        E 1 b4 01 3a
        E 1 b4 01 2e
        E 1 b4 01 64
        E 1 b4 01 2f
        E 1 b4 01 59
        E 1 b4 01 12
        E 1 b4 01 02
        E 1 b4 01 2a
        E 1 b4 01 40
        E 1 b4 01 6d
        E 1 b4 01 62
        E 1 b4 01 04
        E 1 b4 01 6e
        E 1 b4 01 5d
        E 1 b4 01 07
        E 1 b4 01 27
        E 1 b4 01 4b
        E 1 b4 01 5f
        E 1 b4 01 7a
        E 1 b4 01 4e
        E 1 b4 01 35
        E 1 b4 01 23
        E 1 b4 01 58
        E 1 b4 01 5c
        E 1 b4 01 70
        E 1 b4 01 7c
        E 1 b4 01 3c
        E 1 b4 01 51
        E 1 b4 01 57
        E 1 b4 01 43
        E 1 b4 01 77
        E 1 b4 01 13
        E 1 b4 01 2d
        E 1 b4 01 54
        E 4 b4 01 02
        E 4 b4 01 09
        E 4 b4 01 06
        E 4 b4 01 01
        E 4 b4 01 09
        E 4 b4 01 08
        E 4 b4 01 01
        E 4 b4 01 01
        E 4 b4 01 06
        E 4 b4 01 0c
        E 4 b4 01 0a
        E 4 b4 01 0b
        E 4 b4 01 07
        E 4 b4 01 01
        E 4 b4 01 02
        E 4 b4 01 08
        E 4 b4 01 07
        E 4 b4 01 03
        E 4 b4 01 02
        E 4 b4 01 03
        E 4 b4 01 09
        E 4 b4 01 05
        E 4 b4 01 03
        E 4 b4 01 07
        E 4 b4 01 0c
        E 4 b4 01 00
        E 4 b4 01 01
        E 4 b4 01 05
        E 4 b4 01 04
        E 4 b4 01 0a
        E 4 b4 01 02
        E 4 b4 01 00
        E 4 b4 01 02
        E 4 b4 01 02
        E 4 b4 01 0b
        E 4 b4 01 03
        E 4 b4 01 00
        E 4 b4 01 09
        E 4 b4 01 04
        E 4 b4 01 02
        E 4 b4 01 05
        E 4 b4 01 03
        E 4 b4 01 0a
        E 4 b4 01 0a
        E 4 b4 01 0c
        E 4 b4 01 0a
        E 4 b4 01 05
        E 4 b4 01 0b
        E 4 b4 01 09
        E 4 b4 01 01
        E 4 b4 01 05
        E 4 b4 01 06
        E 4 b4 01 0c
        E 4 b4 01 09
        E 4 b4 01 06
        E 4 b4 01 07
        E 4 b4 01 00
        E 4 b4 01 01
        E 4 b4 01 0b
        E 4 b4 01 0a
        E 4 b4 01 05
        E 4 b4 01 04
        E 4 b4 01 01
        E 4 b4 01 05
        E 4 b4 01 03
        E 4 b4 01 03
        E 4 b4 01 04
        E 4 b4 01 06
        E 4 b4 01 07
        E 4 b4 01 08
        E 4 b4 01 02
        E 4 b4 01 07
        E 4 b4 01 0b
        E 4 b4 01 06
        E 4 b4 01 07
        E 4 b4 01 00
        E 4 b4 01 00
        E 4 b4 01 0c
        E 4 b4 01 08
        E 4 b4 01 02
        E 4 b4 01 0b
        E 4 b4 01 04
        E 4 b4 01 04
        E 4 b4 01 06
        E 4 b4 01 05
        E 4 b4 01 08
        E 4 b4 01 0a
        E 4 b4 01 03
        E 4 b4 01 07
        E 4 b4 01 02
        E 4 b4 01 0b
        E 4 b4 01 0a
        E 4 b4 01 05
        E 4 b4 01 04
        E 4 b4 01 0a
        E 4 b4 01 04
        E 4 b4 01 08
        E 4 b4 01 01
        E 4 b4 01 00
        E 4 b4 01 04
        E 4 b4 01 06
        E 4 b4 01 0a
        E 4 b4 01 09
        E 4 b4 01 00
        E 4 b4 01 0b
        E 4 b4 01 09
        E 4 b4 01 00
        E 4 b4 01 03
        E 4 b4 01 07
        E 4 b4 01 09
        E 4 b4 01 0c
        E 4 b4 01 07
        E 4 b4 01 05
        E 4 b4 01 03
        E 4 b4 01 08
        E 4 b4 01 09
        E 4 b4 01 0b
        E 4 b4 01 0c
        E 4 b4 01 06
        E 4 b4 01 08
        E 4 b4 01 08
        E 4 b4 01 06
        E 4 b4 01 0b
        E 4 b4 01 01
        E 4 b4 01 04
        E 4 b4 01 08
        E 4 b4 01 1c
        E 4 b4 01 60
        E 4 b4 01 3f
        E 4 b4 01 0a
        E 4 b4 01 5a
        E 4 b4 01 50
        E 4 b4 01 0c
        E 4 b4 01 0b
        E 4 b4 01 3d
        E 4 b4 01 78
        E 4 b4 01 65
        E 4 b4 01 6f
        E 4 b4 01 4f
        E 4 b4 01 0e
        E 4 b4 01 18
        E 4 b4 01 56
        E 4 b4 01 46
        E 4 b4 01 24
        E 4 b4 01 19
        E 4 b4 01 22
        E 4 b4 01 63
        E 4 b4 01 3b
        E 4 b4 01 1e
        E 4 b4 01 49
        E 4 b4 01 7e
        E 4 b4 01 00
        E 4 b4 01 10
        E 4 b4 01 34
        E 4 b4 01 2b
        E 4 b4 01 68
        E 4 b4 01 1b
        E 4 b4 01 08
        E 4 b4 01 14
        E 4 b4 01 16
        E 4 b4 01 73
        E 4 b4 01 20
        E 4 b4 01 01
        E 4 b4 01 5e
        E 4 b4 01 2c
        E 4 b4 01 1a
        E 4 b4 01 32
        E 4 b4 01 21
        E 4 b4 01 6c
        E 4 b4 01 6b
        E 4 b4 01 7f
        E 4 b4 01 6a
        E 4 b4 01 37
        E 4 b4 01 76
        E 4 b4 01 5b
        E 4 b4 01 0f
        E 4 b4 01 38
        E 4 b4 01 44
        E 4 b4 01 79
        E 4 b4 01 61
        E 4 b4 01 45
        E 4 b4 01 47
        E 4 b4 01 06
        E 4 b4 01 0d
        E 4 b4 01 75
        E 4 b4 01 66
        E 4 b4 01 36
        E 4 b4 01 28
        E 4 b4 01 11
        E 4 b4 01 39
        E 4 b4 01 26
        E 4 b4 01 1f
        E 4 b4 01 30
        E 4 b4 01 42
        E 4 b4 01 4d
        E 4 b4 01 52
        E 4 b4 01 15
        E 4 b4 01 4c
        E 4 b4 01 71
        E 4 b4 01 41
        E 4 b4 01 4a
        E 4 b4 01 03
        E 4 b4 01 09
        E 4 b4 01 7d
        E 4 b4 01 53
        E 4 b4 01 17
        E 4 b4 01 74
        E 4 b4 01 29
        E 4 b4 01 31
        E 4 b4 01 3e
        E 4 b4 01 33
        E 4 b4 01 55
        E 4 b4 01 67
        E 4 b4 01 25
        E 4 b4 01 48
        E 4 b4 01 1d
        E 4 b4 01 72
        E 4 b4 01 69
        E 4 b4 01 3a
        E 4 b4 01 2e
        E 4 b4 01 64
        E 4 b4 01 2f
        E 4 b4 01 59
        E 4 b4 01 12
        E 4 b4 01 02
        E 4 b4 01 2a
        E 4 b4 01 40
        E 4 b4 01 6d
        E 4 b4 01 62
        E 4 b4 01 04
        E 4 b4 01 6e
        E 4 b4 01 5d
        E 4 b4 01 07
        E 4 b4 01 27
        E 4 b4 01 4b
        E 4 b4 01 5f
        E 4 b4 01 7a
        E 4 b4 01 4e
        E 4 b4 01 35
        E 4 b4 01 23
        E 4 b4 01 58
        E 4 b4 01 5c
        E 4 b4 01 70
        E 4 b4 01 7c
        E 4 b4 01 3c
        E 4 b4 01 51
        E 4 b4 01 57
        E 4 b4 01 43
        E 4 b4 01 77
        E 4 b4 01 13
        E 4 b4 01 2d
        E 4 b4 01 54
        E 5 b4 01 02
        E 5 b4 01 09
        E 5 b4 01 06
        E 5 b4 01 01
        E 5 b4 01 09
        E 5 b4 01 08
        E 5 b4 01 01
        E 5 b4 01 01
        E 5 b4 01 06
        E 5 b4 01 0c
        E 5 b4 01 0a
        E 5 b4 01 0b
        E 5 b4 01 07
        E 5 b4 01 01
        E 5 b4 01 02
        E 5 b4 01 08
        E 5 b4 01 07
        E 5 b4 01 03
        E 5 b4 01 02
        E 5 b4 01 03
        E 5 b4 01 09
        E 5 b4 01 05
        E 5 b4 01 03
        E 5 b4 01 07
        E 5 b4 01 0c
        E 5 b4 01 00
        E 5 b4 01 01
        E 5 b4 01 05
        E 5 b4 01 04
        E 5 b4 01 0a
        E 5 b4 01 02
        E 5 b4 01 00
        E 5 b4 01 02
        E 5 b4 01 02
        E 5 b4 01 0b
        E 5 b4 01 03
        E 5 b4 01 00
        E 5 b4 01 09
        E 5 b4 01 04
        E 5 b4 01 02
        E 5 b4 01 05
        E 5 b4 01 03
        E 5 b4 01 0a
        E 5 b4 01 0a
        E 5 b4 01 0c
        E 5 b4 01 0a
        E 5 b4 01 05
        E 5 b4 01 0b
        E 5 b4 01 09
        E 5 b4 01 01
        E 5 b4 01 05
        E 5 b4 01 06
        E 5 b4 01 0c
        E 5 b4 01 09
        E 5 b4 01 06
        E 5 b4 01 07
        E 5 b4 01 00
        E 5 b4 01 01
        E 5 b4 01 0b
        E 5 b4 01 0a
        E 5 b4 01 05
        E 5 b4 01 04
        E 5 b4 01 01
        E 5 b4 01 05
        E 5 b4 01 03
        E 5 b4 01 03
        E 5 b4 01 04
        E 5 b4 01 06
        E 5 b4 01 07
        E 5 b4 01 08
        E 5 b4 01 02
        E 5 b4 01 07
        E 5 b4 01 0b
        E 5 b4 01 06
        E 5 b4 01 07
        E 5 b4 01 00
        E 5 b4 01 00
        E 5 b4 01 0c
        E 5 b4 01 08
        E 5 b4 01 02
        E 5 b4 01 0b
        E 5 b4 01 04
        E 5 b4 01 04
        E 5 b4 01 06
        E 5 b4 01 05
        E 5 b4 01 08
        E 5 b4 01 0a
        E 5 b4 01 03
        E 5 b4 01 07
        E 5 b4 01 02
        E 5 b4 01 0b
        E 5 b4 01 0a
        E 5 b4 01 05
        E 5 b4 01 04
        E 5 b4 01 0a
        E 5 b4 01 04
        E 5 b4 01 08
        E 5 b4 01 01
        E 5 b4 01 00
        E 5 b4 01 04
        E 5 b4 01 06
        E 5 b4 01 0a
        E 5 b4 01 09
        E 5 b4 01 00
        E 5 b4 01 0b
        E 5 b4 01 09
        E 5 b4 01 00
        E 5 b4 01 03
        E 5 b4 01 07
        E 5 b4 01 09
        E 5 b4 01 0c
        E 5 b4 01 07
        E 5 b4 01 05
        E 5 b4 01 03
        E 5 b4 01 08
        E 5 b4 01 09
        E 5 b4 01 0b
        E 5 b4 01 0c
        E 5 b4 01 06
        E 5 b4 01 08
        E 5 b4 01 08
        E 5 b4 01 06
        E 5 b4 01 0b
        E 5 b4 01 01
        E 5 b4 01 04
        E 5 b4 01 08
        E 12 b0 7b 00
        CCINTERP 32
        CHASE_CC_TAKEOFFS 1
        GUID {BB41F58E-C085-7348-901D-CB1DEC2D0650}
        IGNTEMPO 0 120 4 4
        SRCCOLOR 282
        VELLANE 3 601 0
        VELLANE -1 196 0
      >
    >
  >
  <TRACK {0C107A1B-C1E3-9A4B-B309-DCA16D95ABD0}
    NAME "pepto bismol 4oz bottle"
    PEAKCOL 16576
    BEAT -1
    AUTOMODE 0
    VOLPAN 1 0 -1 -1 1
    MUTESOLO 0 0 0
    IPHASE 0
    PLAYOFFS 0 1
    ISBUS 0 0
    BUSCOMP 0 0 0 0 0
    SHOWINMIX 1 0.6667 0.5 1 0.5 0 -1 0
    FREEMODE 0
    SEL 0
    REC 0 0 1 0 0 0 0
    VU 2
    TRACKHEIGHT 0 1 0 0 -1 0
    INQ 0 0 0 0.5 100 0 0 100
    NCHAN 2
    FX 1
    TRACKID {0C107A1B-C1E3-9A4B-B309-DCA16D95ABD0}
    PERF 0
    MIDIOUT -1
    MAINSEND 1 0
    <ITEM
      POSITION 0
      SNAPOFFS 0
      LENGTH 0.95238
      LOOP 1
      ALLTAKES 0
      FADEIN 1 0 0 1 0 0
      FADEOUT 1 0 0 1 0 0
      MUTE 0 0
      SEL 0
      IGUID {F3EDCEF0-4AF7-FD49-B7C4-EE154FBFF2C5}
      IID 18
      NAME "pepto bismol 4oz bottle.mid"
      VOLPAN 1 0 1 -1
      SOFFS 0 0
      PLAYRATE 1 1 0 -1 0 0.0025
      CHANMODE 0
      GUID {13C0E07D-7876-504C-806C-9B09FB575E47}
      <SOURCE MIDI
        HASDATA 1 128 QN
        CCINTERP 32
        POOLEDEVTS {D8A9A4F6-6BCA-A747-9BDB-DDC642AA558E}
        E 128 b0 7b 00
        CCINTERP 32
        CHASE_CC_TAKEOFFS 1
        GUID {CDAF95E1-FD57-D84C-A64B-BB903974184B}
        IGNTEMPO 0 120 4 4
        SRCCOLOR 283
        VELLANE 3 601 0
        VELLANE -1 196 0
      >
    >
  >
  <TRACK {150005D9-DA0D-0947-95F2-A3E6CC96C8A4}
    NAME "pepto bismol 4oz bottle"
    PEAKCOL 16576
    BEAT -1
    AUTOMODE 0
    VOLPAN 1 0 -1 -1 1
    MUTESOLO 0 0 0
    IPHASE 0
    PLAYOFFS 0 1
    ISBUS 0 0
    BUSCOMP 0 0 0 0 0
    SHOWINMIX 1 0.6667 0.5 1 0.5 0 -1 0
    FREEMODE 0
    SEL 0
    REC 0 0 1 0 0 0 0
    VU 2
    TRACKHEIGHT 0 1 0 0 -1 0
    INQ 0 0 0 0.5 100 0 0 100
    NCHAN 2
    FX 1
    TRACKID {150005D9-DA0D-0947-95F2-A3E6CC96C8A4}
    PERF 0
    MIDIOUT -1
    MAINSEND 1 0
    <ITEM
      POSITION 0
      SNAPOFFS 0
      LENGTH 0.95238
      LOOP 1
      ALLTAKES 0
      FADEIN 1 0 0 1 0 0
      FADEOUT 1 0 0 1 0 0
      MUTE 0 0
      SEL 0
      IGUID {CB832143-A5ED-5141-A54E-553A04BEDECC}
      IID 19
      NAME "pepto bismol 4oz bottle.mid"
      VOLPAN 1 0 1 -1
      SOFFS 0 0
      PLAYRATE 1 1 0 -1 0 0.0025
      CHANMODE 0
      GUID {E383B2CB-A0DF-6544-A9FE-607394C4321A}
      <SOURCE MIDI
        HASDATA 1 128 QN
        CCINTERP 32
        POOLEDEVTS {5BE7D0A5-CF57-8042-AE2A-B539C55F2A8F}
        E 128 b0 7b 00
        CCINTERP 32
        CHASE_CC_TAKEOFFS 1
        GUID {179BCE6A-AE36-F449-9AAB-CA09D792453E}
        IGNTEMPO 0 120 4 4
        SRCCOLOR 284
        VELLANE 3 601 0
        VELLANE -1 196 0
      >
    >
  >
  <TRACK {B796D19E-B0EF-4A4A-96D9-808A084BB349}
    NAME "pepto bismol 4oz bottle"
    PEAKCOL 16576
    BEAT -1
    AUTOMODE 0
    VOLPAN 1 0 -1 -1 1
    MUTESOLO 0 0 0
    IPHASE 0
    PLAYOFFS 0 1
    ISBUS 0 0
    BUSCOMP 0 0 0 0 0
    SHOWINMIX 1 0.6667 0.5 1 0.5 0 -1 0
    FREEMODE 0
    SEL 0
    REC 0 0 1 0 0 0 0
    VU 2
    TRACKHEIGHT 0 1 0 0 -1 0
    INQ 0 0 0 0.5 100 0 0 100
    NCHAN 2
    FX 1
    TRACKID {B796D19E-B0EF-4A4A-96D9-808A084BB349}
    PERF 0
    MIDIOUT -1
    MAINSEND 1 0
    <ITEM
      POSITION 0
      SNAPOFFS 0
      LENGTH 446.66622
      LOOP 1
      ALLTAKES 0
      FADEIN 1 0 0 1 0 0
      FADEOUT 1 0 0 1 0 0
      MUTE 0 0
      SEL 0
      IGUID {F2E90F05-AEF8-F443-8A30-FF2CF81FB7AE}
      IID 20
      NAME "pepto bismol 4oz bottle.mid"
      VOLPAN 1 0 1 -1
      SOFFS 0 0
      PLAYRATE 1 1 0 -1 0 0.0025
      CHANMODE 0
      GUID {0F88BBFA-D33D-6C40-A554-860BB882B699}
      <SOURCE MIDI
        HASDATA 1 128 QN
        CCINTERP 32
        POOLEDEVTS {BDCC09C1-29E3-7B4E-9455-C46774335717}
        E 2 b7 0a 02
        E 2 b7 0a 09
        E 2 b7 0a 06
        E 2 b7 0a 01
        E 2 b7 0a 09
        E 2 b7 0a 08
        E 2 b7 0a 01
        E 2 b7 0a 01
        E 2 b7 0a 06
        E 2 b7 0a 0c
        E 2 b7 0a 0a
        E 2 b7 0a 0b
        E 2 b7 0a 07
        E 2 b7 0a 01
        E 2 b7 0a 02
        E 2 b7 0a 08
        E 2 b7 0a 07
        E 2 b7 0a 03
        E 2 b7 0a 02
        E 2 b7 0a 03
        E 2 b7 0a 09
        E 2 b7 0a 05
        E 2 b7 0a 03
        E 2 b7 0a 07
        E 2 b7 0a 0c
        E 2 b7 0a 00
        E 2 b7 0a 01
        E 2 b7 0a 05
        E 2 b7 0a 04
        E 2 b7 0a 0a
        E 2 b7 0a 02
        E 2 b7 0a 00
        E 2 b7 0a 02
        E 2 b7 0a 02
        E 2 b7 0a 0b
        E 2 b7 0a 03
        E 2 b7 0a 00
        E 2 b7 0a 09
        E 2 b7 0a 04
        E 2 b7 0a 02
        E 2 b7 0a 05
        E 2 b7 0a 03
        E 2 b7 0a 0a
        E 2 b7 0a 0a
        E 2 b7 0a 0c
        E 2 b7 0a 0a
        E 2 b7 0a 05
        E 2 b7 0a 0b
        E 2 b7 0a 09
        E 2 b7 0a 01
        E 2 b7 0a 05
        E 2 b7 0a 06
        E 2 b7 0a 0c
        E 2 b7 0a 09
        E 2 b7 0a 06
        E 2 b7 0a 07
        E 2 b7 0a 00
        E 2 b7 0a 01
        E 2 b7 0a 0b
        E 2 b7 0a 0a
        E 2 b7 0a 05
        E 2 b7 0a 04
        E 2 b7 0a 01
        E 2 b7 0a 05
        E 2 b7 0a 03
        E 2 b7 0a 03
        E 2 b7 0a 04
        E 2 b7 0a 06
        E 2 b7 0a 07
        E 2 b7 0a 08
        E 2 b7 0a 02
        E 2 b7 0a 07
        E 2 b7 0a 0b
        E 2 b7 0a 06
        E 2 b7 0a 07
        E 2 b7 0a 00
        E 2 b7 0a 00
        E 2 b7 0a 0c
        E 2 b7 0a 08
        E 2 b7 0a 02
        E 2 b7 0a 0b
        E 2 b7 0a 04
        E 2 b7 0a 04
        E 2 b7 0a 06
        E 2 b7 0a 05
        E 2 b7 0a 08
        E 2 b7 0a 0a
        E 2 b7 0a 03
        E 2 b7 0a 07
        E 2 b7 0a 02
        E 2 b7 0a 0b
        E 2 b7 0a 0a
        E 2 b7 0a 05
        E 2 b7 0a 04
        E 2 b7 0a 0a
        E 2 b7 0a 04
        E 2 b7 0a 08
        E 2 b7 0a 01
        E 2 b7 0a 00
        E 2 b7 0a 04
        E 2 b7 0a 06
        E 2 b7 0a 0a
        E 2 b7 0a 09
        E 2 b7 0a 00
        E 2 b7 0a 0b
        E 2 b7 0a 09
        E 2 b7 0a 00
        E 2 b7 0a 03
        E 2 b7 0a 07
        E 2 b7 0a 09
        E 2 b7 0a 0c
        E 2 b7 0a 07
        E 2 b7 0a 05
        E 2 b7 0a 03
        E 2 b7 0a 08
        E 2 b7 0a 09
        E 2 b7 0a 0b
        E 2 b7 0a 0c
        E 2 b7 0a 06
        E 2 b7 0a 08
        E 2 b7 0a 08
        E 2 b7 0a 06
        E 2 b7 0a 0b
        E 2 b7 0a 01
        E 2 b7 0a 04
        E 2 b7 0a 08
        E 13 b7 0a 0e
        E 13 b7 0a 30
        E 13 b7 0a 1f
        E 13 b7 0a 05
        E 13 b7 0a 2d
        E 13 b7 0a 28
        E 13 b7 0a 06
        E 13 b7 0a 05
        E 13 b7 0a 1e
        E 13 b7 0a 3c
        E 13 b7 0a 32
        E 13 b7 0a 37
        E 13 b7 0a 27
        E 13 b7 0a 07
        E 13 b7 0a 0c
        E 13 b7 0a 2b
        E 13 b7 0a 23
        E 13 b7 0a 12
        E 13 b7 0a 0c
        E 13 b7 0a 11
        E 13 b7 0a 31
        E 13 b7 0a 1d
        E 13 b7 0a 0f
        E 13 b7 0a 24
        E 13 b7 0a 3f
        E 13 b7 0a 00
        E 13 b7 0a 08
        E 13 b7 0a 1a
        E 13 b7 0a 15
        E 13 b7 0a 34
        E 13 b7 0a 0d
        E 13 b7 0a 04
        E 13 b7 0a 0a
        E 13 b7 0a 0b
        E 13 b7 0a 39
        E 13 b7 0a 10
        E 13 b7 0a 00
        E 13 b7 0a 2f
        E 13 b7 0a 16
        E 13 b7 0a 0d
        E 13 b7 0a 19
        E 13 b7 0a 10
        E 13 b7 0a 36
        E 13 b7 0a 35
        E 13 b7 0a 3f
        E 13 b7 0a 35
        E 13 b7 0a 1b
        E 13 b7 0a 3b
        E 13 b7 0a 2d
        E 13 b7 0a 07
        E 13 b7 0a 1c
        E 13 b7 0a 22
        E 13 b7 0a 3c
        E 13 b7 0a 30
        E 13 b7 0a 22
        E 13 b7 0a 23
        E 13 b7 0a 03
        E 13 b7 0a 06
        E 13 b7 0a 3a
        E 13 b7 0a 33
        E 13 b7 0a 1b
        E 13 b7 0a 14
        E 13 b7 0a 08
        E 13 b7 0a 1c
        E 13 b7 0a 13
        E 13 b7 0a 0f
        E 13 b7 0a 18
        E 13 b7 0a 21
        E 13 b7 0a 26
        E 13 b7 0a 29
        E 13 b7 0a 0a
        E 13 b7 0a 26
        E 13 b7 0a 38
        E 13 b7 0a 20
        E 13 b7 0a 25
        E 13 b7 0a 01
        E 13 b7 0a 04
        E 13 b7 0a 3e
        E 13 b7 0a 29
        E 13 b7 0a 0b
        E 13 b7 0a 3a
        E 13 b7 0a 14
        E 13 b7 0a 18
        E 13 b7 0a 1f
        E 13 b7 0a 19
        E 13 b7 0a 2a
        E 13 b7 0a 33
        E 13 b7 0a 12
        E 13 b7 0a 24
        E 13 b7 0a 0e
        E 13 b7 0a 39
        E 13 b7 0a 34
        E 13 b7 0a 1d
        E 13 b7 0a 17
        E 13 b7 0a 32
        E 13 b7 0a 17
        E 13 b7 0a 2c
        E 13 b7 0a 09
        E 13 b7 0a 01
        E 13 b7 0a 15
        E 13 b7 0a 20
        E 13 b7 0a 36
        E 13 b7 0a 31
        E 13 b7 0a 02
        E 13 b7 0a 37
        E 13 b7 0a 2e
        E 13 b7 0a 03
        E 13 b7 0a 13
        E 13 b7 0a 25
        E 13 b7 0a 2f
        E 13 b7 0a 3d
        E 13 b7 0a 27
        E 13 b7 0a 1a
        E 13 b7 0a 11
        E 13 b7 0a 2c
        E 13 b7 0a 2e
        E 13 b7 0a 38
        E 13 b7 0a 3e
        E 13 b7 0a 1e
        E 13 b7 0a 28
        E 13 b7 0a 2b
        E 13 b7 0a 21
        E 13 b7 0a 3b
        E 13 b7 0a 09
        E 13 b7 0a 16
        E 13 b7 0a 2a
        E 1 b7 0a 02
        E 1 b7 0a 09
        E 1 b7 0a 06
        E 1 b7 0a 01
        E 1 b7 0a 09
        E 1 b7 0a 08
        E 1 b7 0a 01
        E 1 b7 0a 01
        E 1 b7 0a 06
        E 1 b7 0a 0c
        E 1 b7 0a 0a
        E 1 b7 0a 0b
        E 1 b7 0a 07
        E 1 b7 0a 01
        E 1 b7 0a 02
        E 1 b7 0a 08
        E 1 b7 0a 07
        E 1 b7 0a 03
        E 1 b7 0a 02
        E 1 b7 0a 03
        E 1 b7 0a 09
        E 1 b7 0a 05
        E 1 b7 0a 03
        E 1 b7 0a 07
        E 1 b7 0a 0c
        E 1 b7 0a 00
        E 1 b7 0a 01
        E 1 b7 0a 05
        E 1 b7 0a 04
        E 1 b7 0a 0a
        E 1 b7 0a 02
        E 1 b7 0a 00
        E 1 b7 0a 02
        E 1 b7 0a 02
        E 1 b7 0a 0b
        E 1 b7 0a 03
        E 1 b7 0a 00
        E 1 b7 0a 09
        E 1 b7 0a 04
        E 1 b7 0a 02
        E 1 b7 0a 05
        E 1 b7 0a 03
        E 1 b7 0a 0a
        E 1 b7 0a 0a
        E 1 b7 0a 0c
        E 1 b7 0a 0a
        E 1 b7 0a 05
        E 1 b7 0a 0b
        E 1 b7 0a 09
        E 1 b7 0a 01
        E 1 b7 0a 05
        E 1 b7 0a 06
        E 1 b7 0a 0c
        E 1 b7 0a 09
        E 1 b7 0a 06
        E 1 b7 0a 07
        E 1 b7 0a 00
        E 1 b7 0a 01
        E 1 b7 0a 0b
        E 1 b7 0a 0a
        E 1 b7 0a 05
        E 1 b7 0a 04
        E 1 b7 0a 01
        E 1 b7 0a 05
        E 1 b7 0a 03
        E 1 b7 0a 03
        E 1 b7 0a 04
        E 1 b7 0a 06
        E 1 b7 0a 07
        E 1 b7 0a 08
        E 1 b7 0a 02
        E 1 b7 0a 07
        E 1 b7 0a 0b
        E 1 b7 0a 06
        E 1 b7 0a 07
        E 1 b7 0a 00
        E 1 b7 0a 00
        E 1 b7 0a 0c
        E 1 b7 0a 08
        E 1 b7 0a 02
        E 1 b7 0a 0b
        E 1 b7 0a 04
        E 1 b7 0a 04
        E 1 b7 0a 06
        E 1 b7 0a 05
        E 1 b7 0a 08
        E 1 b7 0a 0a
        E 1 b7 0a 03
        E 1 b7 0a 07
        E 1 b7 0a 02
        E 1 b7 0a 0b
        E 1 b7 0a 0a
        E 1 b7 0a 05
        E 1 b7 0a 04
        E 1 b7 0a 0a
        E 1 b7 0a 04
        E 1 b7 0a 08
        E 1 b7 0a 01
        E 1 b7 0a 00
        E 1 b7 0a 04
        E 1 b7 0a 06
        E 1 b7 0a 0a
        E 1 b7 0a 09
        E 1 b7 0a 00
        E 1 b7 0a 0b
        E 1 b7 0a 09
        E 1 b7 0a 00
        E 1 b7 0a 03
        E 1 b7 0a 07
        E 1 b7 0a 09
        E 1 b7 0a 0c
        E 1 b7 0a 07
        E 1 b7 0a 05
        E 1 b7 0a 03
        E 1 b7 0a 08
        E 1 b7 0a 09
        E 1 b7 0a 0b
        E 1 b7 0a 0c
        E 1 b7 0a 06
        E 1 b7 0a 08
        E 1 b7 0a 08
        E 1 b7 0a 06
        E 1 b7 0a 0b
        E 1 b7 0a 01
        E 1 b7 0a 04
        E 1 b7 0a 08
        E 13 b7 0a 0b
        E 13 b7 0a 26
        E 13 b7 0a 19
        E 13 b7 0a 04
        E 13 b7 0a 24
        E 13 b7 0a 20
        E 13 b7 0a 04
        E 13 b7 0a 04
        E 13 b7 0a 18
        E 13 b7 0a 30
        E 13 b7 0a 28
        E 13 b7 0a 2c
        E 13 b7 0a 1f
        E 13 b7 0a 05
        E 13 b7 0a 09
        E 13 b7 0a 22
        E 13 b7 0a 1c
        E 13 b7 0a 0e
        E 13 b7 0a 0a
        E 13 b7 0a 0d
        E 13 b7 0a 27
        E 13 b7 0a 17
        E 13 b7 0a 0c
        E 13 b7 0a 1d
        E 13 b7 0a 32
        E 13 b7 0a 00
        E 13 b7 0a 06
        E 13 b7 0a 14
        E 13 b7 0a 11
        E 13 b7 0a 29
        E 13 b7 0a 0a
        E 13 b7 0a 03
        E 13 b7 0a 08
        E 13 b7 0a 08
        E 13 b7 0a 2e
        E 13 b7 0a 0c
        E 13 b7 0a 00
        E 13 b7 0a 25
        E 13 b7 0a 11
        E 13 b7 0a 0a
        E 13 b7 0a 14
        E 13 b7 0a 0d
        E 13 b7 0a 2b
        E 13 b7 0a 2a
        E 13 b7 0a 32
        E 13 b7 0a 2a
        E 13 b7 0a 16
        E 13 b7 0a 2f
        E 13 b7 0a 24
        E 13 b7 0a 06
        E 13 b7 0a 16
        E 13 b7 0a 1b
        E 13 b7 0a 30
        E 13 b7 0a 26
        E 13 b7 0a 1b
        E 13 b7 0a 1c
        E 13 b7 0a 02
        E 13 b7 0a 05
        E 13 b7 0a 2e
        E 13 b7 0a 28
        E 13 b7 0a 15
        E 13 b7 0a 10
        E 13 b7 0a 06
        E 13 b7 0a 16
        E 13 b7 0a 0f
        E 13 b7 0a 0c
        E 13 b7 0a 13
        E 13 b7 0a 1a
        E 13 b7 0a 1e
        E 13 b7 0a 20
        E 13 b7 0a 08
        E 13 b7 0a 1e
        E 13 b7 0a 2d
        E 13 b7 0a 1a
        E 13 b7 0a 1d
        E 13 b7 0a 01
        E 13 b7 0a 03
        E 13 b7 0a 32
        E 13 b7 0a 21
        E 13 b7 0a 09
        E 13 b7 0a 2e
        E 13 b7 0a 10
        E 13 b7 0a 13
        E 13 b7 0a 18
        E 13 b7 0a 14
        E 13 b7 0a 22
        E 13 b7 0a 29
        E 13 b7 0a 0e
        E 13 b7 0a 1c
        E 13 b7 0a 0b
        E 13 b7 0a 2d
        E 13 b7 0a 2a
        E 13 b7 0a 17
        E 13 b7 0a 12
        E 13 b7 0a 28
        E 13 b7 0a 12
        E 13 b7 0a 23
        E 13 b7 0a 07
        E 13 b7 0a 00
        E 13 b7 0a 10
        E 13 b7 0a 19
        E 13 b7 0a 2b
        E 13 b7 0a 27
        E 13 b7 0a 01
        E 13 b7 0a 2c
        E 13 b7 0a 25
        E 13 b7 0a 02
        E 13 b7 0a 0f
        E 13 b7 0a 1e
        E 13 b7 0a 26
        E 13 b7 0a 30
        E 13 b7 0a 1f
        E 13 b7 0a 15
        E 13 b7 0a 0e
        E 13 b7 0a 23
        E 13 b7 0a 24
        E 13 b7 0a 2c
        E 13 b7 0a 31
        E 13 b7 0a 18
        E 13 b7 0a 20
        E 13 b7 0a 22
        E 13 b7 0a 1a
        E 13 b7 0a 2f
        E 13 b7 0a 07
        E 13 b7 0a 12
        E 13 b7 0a 21
        E 1 b7 0a 0b
        E 1 b7 0a 26
        E 1 b7 0a 19
        E 1 b7 0a 04
        E 1 b7 0a 24
        E 1 b7 0a 20
        E 1 b7 0a 04
        E 1 b7 0a 04
        E 1 b7 0a 18
        E 1 b7 0a 30
        E 1 b7 0a 28
        E 1 b7 0a 2c
        E 1 b7 0a 1f
        E 1 b7 0a 05
        E 1 b7 0a 09
        E 1 b7 0a 22
        E 1 b7 0a 1c
        E 1 b7 0a 0e
        E 1 b7 0a 0a
        E 1 b7 0a 0d
        E 1 b7 0a 27
        E 1 b7 0a 17
        E 1 b7 0a 0c
        E 1 b7 0a 1d
        E 1 b7 0a 32
        E 1 b7 0a 00
        E 1 b7 0a 06
        E 1 b7 0a 14
        E 1 b7 0a 11
        E 1 b7 0a 29
        E 1 b7 0a 0a
        E 1 b7 0a 03
        E 1 b7 0a 08
        E 1 b7 0a 08
        E 1 b7 0a 2e
        E 1 b7 0a 0c
        E 1 b7 0a 00
        E 1 b7 0a 25
        E 1 b7 0a 11
        E 1 b7 0a 0a
        E 1 b7 0a 14
        E 1 b7 0a 0d
        E 1 b7 0a 2b
        E 1 b7 0a 2a
        E 1 b7 0a 32
        E 1 b7 0a 2a
        E 1 b7 0a 16
        E 1 b7 0a 2f
        E 1 b7 0a 24
        E 1 b7 0a 06
        E 1 b7 0a 16
        E 1 b7 0a 1b
        E 1 b7 0a 30
        E 1 b7 0a 26
        E 1 b7 0a 1b
        E 1 b7 0a 1c
        E 1 b7 0a 02
        E 1 b7 0a 05
        E 1 b7 0a 2e
        E 1 b7 0a 28
        E 1 b7 0a 15
        E 1 b7 0a 10
        E 1 b7 0a 06
        E 1 b7 0a 16
        E 1 b7 0a 0f
        E 1 b7 0a 0c
        E 1 b7 0a 13
        E 1 b7 0a 1a
        E 1 b7 0a 1e
        E 1 b7 0a 20
        E 1 b7 0a 08
        E 1 b7 0a 1e
        E 1 b7 0a 2d
        E 1 b7 0a 1a
        E 1 b7 0a 1d
        E 1 b7 0a 01
        E 1 b7 0a 03
        E 1 b7 0a 32
        E 1 b7 0a 21
        E 1 b7 0a 09
        E 1 b7 0a 2e
        E 1 b7 0a 10
        E 1 b7 0a 13
        E 1 b7 0a 18
        E 1 b7 0a 14
        E 1 b7 0a 22
        E 1 b7 0a 29
        E 1 b7 0a 0e
        E 1 b7 0a 1c
        E 1 b7 0a 0b
        E 1 b7 0a 2d
        E 1 b7 0a 2a
        E 1 b7 0a 17
        E 1 b7 0a 12
        E 1 b7 0a 28
        E 1 b7 0a 12
        E 1 b7 0a 23
        E 1 b7 0a 07
        E 1 b7 0a 00
        E 1 b7 0a 10
        E 1 b7 0a 19
        E 1 b7 0a 2b
        E 1 b7 0a 27
        E 1 b7 0a 01
        E 1 b7 0a 2c
        E 1 b7 0a 25
        E 1 b7 0a 02
        E 1 b7 0a 0f
        E 1 b7 0a 1e
        E 1 b7 0a 26
        E 1 b7 0a 30
        E 1 b7 0a 1f
        E 1 b7 0a 15
        E 1 b7 0a 0e
        E 1 b7 0a 23
        E 1 b7 0a 24
        E 1 b7 0a 2c
        E 1 b7 0a 31
        E 1 b7 0a 18
        E 1 b7 0a 20
        E 1 b7 0a 22
        E 1 b7 0a 1a
        E 1 b7 0a 2f
        E 1 b7 0a 07
        E 1 b7 0a 12
        E 1 b7 0a 21
        E 5 b7 0a 0e
        E 5 b7 0a 30
        E 5 b7 0a 1f
        E 5 b7 0a 05
        E 5 b7 0a 2d
        E 5 b7 0a 28
        E 5 b7 0a 06
        E 5 b7 0a 05
        E 5 b7 0a 1e
        E 5 b7 0a 3c
        E 5 b7 0a 32
        E 5 b7 0a 37
        E 5 b7 0a 27
        E 5 b7 0a 07
        E 5 b7 0a 0c
        E 5 b7 0a 2b
        E 5 b7 0a 23
        E 5 b7 0a 12
        E 5 b7 0a 0c
        E 5 b7 0a 11
        E 5 b7 0a 31
        E 5 b7 0a 1d
        E 5 b7 0a 0f
        E 5 b7 0a 24
        E 5 b7 0a 3f
        E 5 b7 0a 00
        E 5 b7 0a 08
        E 5 b7 0a 1a
        E 5 b7 0a 15
        E 5 b7 0a 34
        E 5 b7 0a 0d
        E 5 b7 0a 04
        E 5 b7 0a 0a
        E 5 b7 0a 0b
        E 5 b7 0a 39
        E 5 b7 0a 10
        E 5 b7 0a 00
        E 5 b7 0a 2f
        E 5 b7 0a 16
        E 5 b7 0a 0d
        E 5 b7 0a 19
        E 5 b7 0a 10
        E 5 b7 0a 36
        E 5 b7 0a 35
        E 5 b7 0a 3f
        E 5 b7 0a 35
        E 5 b7 0a 1b
        E 5 b7 0a 3b
        E 5 b7 0a 2d
        E 5 b7 0a 07
        E 5 b7 0a 1c
        E 5 b7 0a 22
        E 5 b7 0a 3c
        E 5 b7 0a 30
        E 5 b7 0a 22
        E 5 b7 0a 23
        E 5 b7 0a 03
        E 5 b7 0a 06
        E 5 b7 0a 3a
        E 5 b7 0a 33
        E 5 b7 0a 1b
        E 5 b7 0a 14
        E 5 b7 0a 08
        E 5 b7 0a 1c
        E 5 b7 0a 13
        E 5 b7 0a 0f
        E 5 b7 0a 18
        E 5 b7 0a 21
        E 5 b7 0a 26
        E 5 b7 0a 29
        E 5 b7 0a 0a
        E 5 b7 0a 26
        E 5 b7 0a 38
        E 5 b7 0a 20
        E 5 b7 0a 25
        E 5 b7 0a 01
        E 5 b7 0a 04
        E 5 b7 0a 3e
        E 5 b7 0a 29
        E 5 b7 0a 0b
        E 5 b7 0a 3a
        E 5 b7 0a 14
        E 5 b7 0a 18
        E 5 b7 0a 1f
        E 5 b7 0a 19
        E 5 b7 0a 2a
        E 5 b7 0a 33
        E 5 b7 0a 12
        E 5 b7 0a 24
        E 5 b7 0a 0e
        E 5 b7 0a 39
        E 5 b7 0a 34
        E 5 b7 0a 1d
        E 5 b7 0a 17
        E 5 b7 0a 32
        E 5 b7 0a 17
        E 5 b7 0a 2c
        E 5 b7 0a 09
        E 5 b7 0a 01
        E 5 b7 0a 15
        E 5 b7 0a 20
        E 5 b7 0a 36
        E 5 b7 0a 31
        E 5 b7 0a 02
        E 5 b7 0a 37
        E 5 b7 0a 2e
        E 5 b7 0a 03
        E 5 b7 0a 13
        E 5 b7 0a 25
        E 5 b7 0a 2f
        E 5 b7 0a 3d
        E 5 b7 0a 27
        E 5 b7 0a 1a
        E 5 b7 0a 11
        E 5 b7 0a 2c
        E 5 b7 0a 2e
        E 5 b7 0a 38
        E 5 b7 0a 3e
        E 5 b7 0a 1e
        E 5 b7 0a 28
        E 5 b7 0a 2b
        E 5 b7 0a 21
        E 5 b7 0a 3b
        E 5 b7 0a 09
        E 5 b7 0a 16
        E 5 b7 0a 2a
        E 2 b7 0a 02
        E 2 b7 0a 09
        E 2 b7 0a 06
        E 2 b7 0a 01
        E 2 b7 0a 09
        E 2 b7 0a 08
        E 2 b7 0a 01
        E 2 b7 0a 01
        E 2 b7 0a 06
        E 2 b7 0a 0c
        E 2 b7 0a 0a
        E 2 b7 0a 0b
        E 2 b7 0a 07
        E 2 b7 0a 01
        E 2 b7 0a 02
        E 2 b7 0a 08
        E 2 b7 0a 07
        E 2 b7 0a 03
        E 2 b7 0a 02
        E 2 b7 0a 03
        E 2 b7 0a 09
        E 2 b7 0a 05
        E 2 b7 0a 03
        E 2 b7 0a 07
        E 2 b7 0a 0c
        E 2 b7 0a 00
        E 2 b7 0a 01
        E 2 b7 0a 05
        E 2 b7 0a 04
        E 2 b7 0a 0a
        E 2 b7 0a 02
        E 2 b7 0a 00
        E 2 b7 0a 02
        E 2 b7 0a 02
        E 2 b7 0a 0b
        E 2 b7 0a 03
        E 2 b7 0a 00
        E 2 b7 0a 09
        E 2 b7 0a 04
        E 2 b7 0a 02
        E 2 b7 0a 05
        E 2 b7 0a 03
        E 2 b7 0a 0a
        E 2 b7 0a 0a
        E 2 b7 0a 0c
        E 2 b7 0a 0a
        E 2 b7 0a 05
        E 2 b7 0a 0b
        E 2 b7 0a 09
        E 2 b7 0a 01
        E 2 b7 0a 05
        E 2 b7 0a 06
        E 2 b7 0a 0c
        E 2 b7 0a 09
        E 2 b7 0a 06
        E 2 b7 0a 07
        E 2 b7 0a 00
        E 2 b7 0a 01
        E 2 b7 0a 0b
        E 2 b7 0a 0a
        E 2 b7 0a 05
        E 2 b7 0a 04
        E 2 b7 0a 01
        E 2 b7 0a 05
        E 2 b7 0a 03
        E 2 b7 0a 03
        E 2 b7 0a 04
        E 2 b7 0a 06
        E 2 b7 0a 07
        E 2 b7 0a 08
        E 2 b7 0a 02
        E 2 b7 0a 07
        E 2 b7 0a 0b
        E 2 b7 0a 06
        E 2 b7 0a 07
        E 2 b7 0a 00
        E 2 b7 0a 00
        E 2 b7 0a 0c
        E 2 b7 0a 08
        E 2 b7 0a 02
        E 2 b7 0a 0b
        E 2 b7 0a 04
        E 2 b7 0a 04
        E 2 b7 0a 06
        E 2 b7 0a 05
        E 2 b7 0a 08
        E 2 b7 0a 0a
        E 2 b7 0a 03
        E 2 b7 0a 07
        E 2 b7 0a 02
        E 2 b7 0a 0b
        E 2 b7 0a 0a
        E 2 b7 0a 05
        E 2 b7 0a 04
        E 2 b7 0a 0a
        E 2 b7 0a 04
        E 2 b7 0a 08
        E 2 b7 0a 01
        E 2 b7 0a 00
        E 2 b7 0a 04
        E 2 b7 0a 06
        E 2 b7 0a 0a
        E 2 b7 0a 09
        E 2 b7 0a 00
        E 2 b7 0a 0b
        E 2 b7 0a 09
        E 2 b7 0a 00
        E 2 b7 0a 03
        E 2 b7 0a 07
        E 2 b7 0a 09
        E 2 b7 0a 0c
        E 2 b7 0a 07
        E 2 b7 0a 05
        E 2 b7 0a 03
        E 2 b7 0a 08
        E 2 b7 0a 09
        E 2 b7 0a 0b
        E 2 b7 0a 0c
        E 2 b7 0a 06
        E 2 b7 0a 08
        E 2 b7 0a 08
        E 2 b7 0a 06
        E 2 b7 0a 0b
        E 2 b7 0a 01
        E 2 b7 0a 04
        E 2 b7 0a 08
        E 13 b7 0a 0e
        E 13 b7 0a 30
        E 13 b7 0a 1f
        E 13 b7 0a 05
        E 13 b7 0a 2d
        E 13 b7 0a 28
        E 13 b7 0a 06
        E 13 b7 0a 05
        E 13 b7 0a 1e
        E 13 b7 0a 3c
        E 13 b7 0a 32
        E 13 b7 0a 37
        E 13 b7 0a 27
        E 13 b7 0a 07
        E 13 b7 0a 0c
        E 13 b7 0a 2b
        E 13 b7 0a 23
        E 13 b7 0a 12
        E 13 b7 0a 0c
        E 13 b7 0a 11
        E 13 b7 0a 31
        E 13 b7 0a 1d
        E 13 b7 0a 0f
        E 13 b7 0a 24
        E 13 b7 0a 3f
        E 13 b7 0a 00
        E 13 b7 0a 08
        E 13 b7 0a 1a
        E 13 b7 0a 15
        E 13 b7 0a 34
        E 13 b7 0a 0d
        E 13 b7 0a 04
        E 13 b7 0a 0a
        E 13 b7 0a 0b
        E 13 b7 0a 39
        E 13 b7 0a 10
        E 13 b7 0a 00
        E 13 b7 0a 2f
        E 13 b7 0a 16
        E 13 b7 0a 0d
        E 13 b7 0a 19
        E 13 b7 0a 10
        E 13 b7 0a 36
        E 13 b7 0a 35
        E 13 b7 0a 3f
        E 13 b7 0a 35
        E 13 b7 0a 1b
        E 13 b7 0a 3b
        E 13 b7 0a 2d
        E 13 b7 0a 07
        E 13 b7 0a 1c
        E 13 b7 0a 22
        E 13 b7 0a 3c
        E 13 b7 0a 30
        E 13 b7 0a 22
        E 13 b7 0a 23
        E 13 b7 0a 03
        E 13 b7 0a 06
        E 13 b7 0a 3a
        E 13 b7 0a 33
        E 13 b7 0a 1b
        E 13 b7 0a 14
        E 13 b7 0a 08
        E 13 b7 0a 1c
        E 13 b7 0a 13
        E 13 b7 0a 0f
        E 13 b7 0a 18
        E 13 b7 0a 21
        E 13 b7 0a 26
        E 13 b7 0a 29
        E 13 b7 0a 0a
        E 13 b7 0a 26
        E 13 b7 0a 38
        E 13 b7 0a 20
        E 13 b7 0a 25
        E 13 b7 0a 01
        E 13 b7 0a 04
        E 13 b7 0a 3e
        E 13 b7 0a 29
        E 13 b7 0a 0b
        E 13 b7 0a 3a
        E 13 b7 0a 14
        E 13 b7 0a 18
        E 13 b7 0a 1f
        E 13 b7 0a 19
        E 13 b7 0a 2a
        E 13 b7 0a 33
        E 13 b7 0a 12
        E 13 b7 0a 24
        E 13 b7 0a 0e
        E 13 b7 0a 39
        E 13 b7 0a 34
        E 13 b7 0a 1d
        E 13 b7 0a 17
        E 13 b7 0a 32
        E 13 b7 0a 17
        E 13 b7 0a 2c
        E 13 b7 0a 09
        E 13 b7 0a 01
        E 13 b7 0a 15
        E 13 b7 0a 20
        E 13 b7 0a 36
        E 13 b7 0a 31
        E 13 b7 0a 02
        E 13 b7 0a 37
        E 13 b7 0a 2e
        E 13 b7 0a 03
        E 13 b7 0a 13
        E 13 b7 0a 25
        E 13 b7 0a 2f
        E 13 b7 0a 3d
        E 13 b7 0a 27
        E 13 b7 0a 1a
        E 13 b7 0a 11
        E 13 b7 0a 2c
        E 13 b7 0a 2e
        E 13 b7 0a 38
        E 13 b7 0a 3e
        E 13 b7 0a 1e
        E 13 b7 0a 28
        E 13 b7 0a 2b
        E 13 b7 0a 21
        E 13 b7 0a 3b
        E 13 b7 0a 09
        E 13 b7 0a 16
        E 13 b7 0a 2a
        E 1 b7 0a 02
        E 1 b7 0a 09
        E 1 b7 0a 06
        E 1 b7 0a 01
        E 1 b7 0a 09
        E 1 b7 0a 08
        E 1 b7 0a 01
        E 1 b7 0a 01
        E 1 b7 0a 06
        E 1 b7 0a 0c
        E 1 b7 0a 0a
        E 1 b7 0a 0b
        E 1 b7 0a 07
        E 1 b7 0a 01
        E 1 b7 0a 02
        E 1 b7 0a 08
        E 1 b7 0a 07
        E 1 b7 0a 03
        E 1 b7 0a 02
        E 1 b7 0a 03
        E 1 b7 0a 09
        E 1 b7 0a 05
        E 1 b7 0a 03
        E 1 b7 0a 07
        E 1 b7 0a 0c
        E 1 b7 0a 00
        E 1 b7 0a 01
        E 1 b7 0a 05
        E 1 b7 0a 04
        E 1 b7 0a 0a
        E 1 b7 0a 02
        E 1 b7 0a 00
        E 1 b7 0a 02
        E 1 b7 0a 02
        E 1 b7 0a 0b
        E 1 b7 0a 03
        E 1 b7 0a 00
        E 1 b7 0a 09
        E 1 b7 0a 04
        E 1 b7 0a 02
        E 1 b7 0a 05
        E 1 b7 0a 03
        E 1 b7 0a 0a
        E 1 b7 0a 0a
        E 1 b7 0a 0c
        E 1 b7 0a 0a
        E 1 b7 0a 05
        E 1 b7 0a 0b
        E 1 b7 0a 09
        E 1 b7 0a 01
        E 1 b7 0a 05
        E 1 b7 0a 06
        E 1 b7 0a 0c
        E 1 b7 0a 09
        E 1 b7 0a 06
        E 1 b7 0a 07
        E 1 b7 0a 00
        E 1 b7 0a 01
        E 1 b7 0a 0b
        E 1 b7 0a 0a
        E 1 b7 0a 05
        E 1 b7 0a 04
        E 1 b7 0a 01
        E 1 b7 0a 05
        E 1 b7 0a 03
        E 1 b7 0a 03
        E 1 b7 0a 04
        E 1 b7 0a 06
        E 1 b7 0a 07
        E 1 b7 0a 08
        E 1 b7 0a 02
        E 1 b7 0a 07
        E 1 b7 0a 0b
        E 1 b7 0a 06
        E 1 b7 0a 07
        E 1 b7 0a 00
        E 1 b7 0a 00
        E 1 b7 0a 0c
        E 1 b7 0a 08
        E 1 b7 0a 02
        E 1 b7 0a 0b
        E 1 b7 0a 04
        E 1 b7 0a 04
        E 1 b7 0a 06
        E 1 b7 0a 05
        E 1 b7 0a 08
        E 1 b7 0a 0a
        E 1 b7 0a 03
        E 1 b7 0a 07
        E 1 b7 0a 02
        E 1 b7 0a 0b
        E 1 b7 0a 0a
        E 1 b7 0a 05
        E 1 b7 0a 04
        E 1 b7 0a 0a
        E 1 b7 0a 04
        E 1 b7 0a 08
        E 1 b7 0a 01
        E 1 b7 0a 00
        E 1 b7 0a 04
        E 1 b7 0a 06
        E 1 b7 0a 0a
        E 1 b7 0a 09
        E 1 b7 0a 00
        E 1 b7 0a 0b
        E 1 b7 0a 09
        E 1 b7 0a 00
        E 1 b7 0a 03
        E 1 b7 0a 07
        E 1 b7 0a 09
        E 1 b7 0a 0c
        E 1 b7 0a 07
        E 1 b7 0a 05
        E 1 b7 0a 03
        E 1 b7 0a 08
        E 1 b7 0a 09
        E 1 b7 0a 0b
        E 1 b7 0a 0c
        E 1 b7 0a 06
        E 1 b7 0a 08
        E 1 b7 0a 08
        E 1 b7 0a 06
        E 1 b7 0a 0b
        E 1 b7 0a 01
        E 1 b7 0a 04
        E 1 b7 0a 08
        E 13 b7 0a 0b
        E 13 b7 0a 26
        E 13 b7 0a 19
        E 13 b7 0a 04
        E 13 b7 0a 24
        E 13 b7 0a 20
        E 13 b7 0a 04
        E 13 b7 0a 04
        E 13 b7 0a 18
        E 13 b7 0a 30
        E 13 b7 0a 28
        E 13 b7 0a 2c
        E 13 b7 0a 1f
        E 13 b7 0a 05
        E 13 b7 0a 09
        E 13 b7 0a 22
        E 13 b7 0a 1c
        E 13 b7 0a 0e
        E 13 b7 0a 0a
        E 13 b7 0a 0d
        E 13 b7 0a 27
        E 13 b7 0a 17
        E 13 b7 0a 0c
        E 13 b7 0a 1d
        E 13 b7 0a 32
        E 13 b7 0a 00
        E 13 b7 0a 06
        E 13 b7 0a 14
        E 13 b7 0a 11
        E 13 b7 0a 29
        E 13 b7 0a 0a
        E 13 b7 0a 03
        E 13 b7 0a 08
        E 13 b7 0a 08
        E 13 b7 0a 2e
        E 13 b7 0a 0c
        E 13 b7 0a 00
        E 13 b7 0a 25
        E 13 b7 0a 11
        E 13 b7 0a 0a
        E 13 b7 0a 14
        E 13 b7 0a 0d
        E 13 b7 0a 2b
        E 13 b7 0a 2a
        E 13 b7 0a 32
        E 13 b7 0a 2a
        E 13 b7 0a 16
        E 13 b7 0a 2f
        E 13 b7 0a 24
        E 13 b7 0a 06
        E 13 b7 0a 16
        E 13 b7 0a 1b
        E 13 b7 0a 30
        E 13 b7 0a 26
        E 13 b7 0a 1b
        E 13 b7 0a 1c
        E 13 b7 0a 02
        E 13 b7 0a 05
        E 13 b7 0a 2e
        E 13 b7 0a 28
        E 13 b7 0a 15
        E 13 b7 0a 10
        E 13 b7 0a 06
        E 13 b7 0a 16
        E 13 b7 0a 0f
        E 13 b7 0a 0c
        E 13 b7 0a 13
        E 13 b7 0a 1a
        E 13 b7 0a 1e
        E 13 b7 0a 20
        E 13 b7 0a 08
        E 13 b7 0a 1e
        E 13 b7 0a 2d
        E 13 b7 0a 1a
        E 13 b7 0a 1d
        E 13 b7 0a 01
        E 13 b7 0a 03
        E 13 b7 0a 32
        E 13 b7 0a 21
        E 13 b7 0a 09
        E 13 b7 0a 2e
        E 13 b7 0a 10
        E 13 b7 0a 13
        E 13 b7 0a 18
        E 13 b7 0a 14
        E 13 b7 0a 22
        E 13 b7 0a 29
        E 13 b7 0a 0e
        E 13 b7 0a 1c
        E 13 b7 0a 0b
        E 13 b7 0a 2d
        E 13 b7 0a 2a
        E 13 b7 0a 17
        E 13 b7 0a 12
        E 13 b7 0a 28
        E 13 b7 0a 12
        E 13 b7 0a 23
        E 13 b7 0a 07
        E 13 b7 0a 00
        E 13 b7 0a 10
        E 13 b7 0a 19
        E 13 b7 0a 2b
        E 13 b7 0a 27
        E 13 b7 0a 01
        E 13 b7 0a 2c
        E 13 b7 0a 25
        E 13 b7 0a 02
        E 13 b7 0a 0f
        E 13 b7 0a 1e
        E 13 b7 0a 26
        E 13 b7 0a 30
        E 13 b7 0a 1f
        E 13 b7 0a 15
        E 13 b7 0a 0e
        E 13 b7 0a 23
        E 13 b7 0a 24
        E 13 b7 0a 2c
        E 13 b7 0a 31
        E 13 b7 0a 18
        E 13 b7 0a 20
        E 13 b7 0a 22
        E 13 b7 0a 1a
        E 13 b7 0a 2f
        E 13 b7 0a 07
        E 13 b7 0a 12
        E 13 b7 0a 21
        E 1 b7 0a 0b
        E 1 b7 0a 26
        E 1 b7 0a 19
        E 1 b7 0a 04
        E 1 b7 0a 24
        E 1 b7 0a 20
        E 1 b7 0a 04
        E 1 b7 0a 04
        E 1 b7 0a 18
        E 1 b7 0a 30
        E 1 b7 0a 28
        E 1 b7 0a 2c
        E 1 b7 0a 1f
        E 1 b7 0a 05
        E 1 b7 0a 09
        E 1 b7 0a 22
        E 1 b7 0a 1c
        E 1 b7 0a 0e
        E 1 b7 0a 0a
        E 1 b7 0a 0d
        E 1 b7 0a 27
        E 1 b7 0a 17
        E 1 b7 0a 0c
        E 1 b7 0a 1d
        E 1 b7 0a 32
        E 1 b7 0a 00
        E 1 b7 0a 06
        E 1 b7 0a 14
        E 1 b7 0a 11
        E 1 b7 0a 29
        E 1 b7 0a 0a
        E 1 b7 0a 03
        E 1 b7 0a 08
        E 1 b7 0a 08
        E 1 b7 0a 2e
        E 1 b7 0a 0c
        E 1 b7 0a 00
        E 1 b7 0a 25
        E 1 b7 0a 11
        E 1 b7 0a 0a
        E 1 b7 0a 14
        E 1 b7 0a 0d
        E 1 b7 0a 2b
        E 1 b7 0a 2a
        E 1 b7 0a 32
        E 1 b7 0a 2a
        E 1 b7 0a 16
        E 1 b7 0a 2f
        E 1 b7 0a 24
        E 1 b7 0a 06
        E 1 b7 0a 16
        E 1 b7 0a 1b
        E 1 b7 0a 30
        E 1 b7 0a 26
        E 1 b7 0a 1b
        E 1 b7 0a 1c
        E 1 b7 0a 02
        E 1 b7 0a 05
        E 1 b7 0a 2e
        E 1 b7 0a 28
        E 1 b7 0a 15
        E 1 b7 0a 10
        E 1 b7 0a 06
        E 1 b7 0a 16
        E 1 b7 0a 0f
        E 1 b7 0a 0c
        E 1 b7 0a 13
        E 1 b7 0a 1a
        E 1 b7 0a 1e
        E 1 b7 0a 20
        E 1 b7 0a 08
        E 1 b7 0a 1e
        E 1 b7 0a 2d
        E 1 b7 0a 1a
        E 1 b7 0a 1d
        E 1 b7 0a 01
        E 1 b7 0a 03
        E 1 b7 0a 32
        E 1 b7 0a 21
        E 1 b7 0a 09
        E 1 b7 0a 2e
        E 1 b7 0a 10
        E 1 b7 0a 13
        E 1 b7 0a 18
        E 1 b7 0a 14
        E 1 b7 0a 22
        E 1 b7 0a 29
        E 1 b7 0a 0e
        E 1 b7 0a 1c
        E 1 b7 0a 0b
        E 1 b7 0a 2d
        E 1 b7 0a 2a
        E 1 b7 0a 17
        E 1 b7 0a 12
        E 1 b7 0a 28
        E 1 b7 0a 12
        E 1 b7 0a 23
        E 1 b7 0a 07
        E 1 b7 0a 00
        E 1 b7 0a 10
        E 1 b7 0a 19
        E 1 b7 0a 2b
        E 1 b7 0a 27
        E 1 b7 0a 01
        E 1 b7 0a 2c
        E 1 b7 0a 25
        E 1 b7 0a 02
        E 1 b7 0a 0f
        E 1 b7 0a 1e
        E 1 b7 0a 26
        E 1 b7 0a 30
        E 1 b7 0a 1f
        E 1 b7 0a 15
        E 1 b7 0a 0e
        E 1 b7 0a 23
        E 1 b7 0a 24
        E 1 b7 0a 2c
        E 1 b7 0a 31
        E 1 b7 0a 18
        E 1 b7 0a 20
        E 1 b7 0a 22
        E 1 b7 0a 1a
        E 1 b7 0a 2f
        E 1 b7 0a 07
        E 1 b7 0a 12
        E 1 b7 0a 21
        E 34 b7 0a 20
        E 34 b7 0a 21
        E 34 b7 0a 23
        E 34 b7 0a 24
        E 34 b7 0a 26
        E 34 b7 0a 27
        E 34 b7 0a 29
        E 34 b7 0a 2a
        E 34 b7 0a 2c
        E 34 b7 0a 2d
        E 34 b7 0a 2f
        E 34 b7 0a 30
        E 34 b7 0a 31
        E 34 b7 0a 33
        E 34 b7 0a 34
        E 34 b7 0a 35
        E 34 b7 0a 36
        E 34 b7 0a 37
        E 34 b7 0a 38
        E 34 b7 0a 39
        E 34 b7 0a 3a
        E 34 b7 0a 3b
        E 34 b7 0a 3c
        E 34 b7 0a 3c
        E 34 b7 0a 3d
        E 34 b7 0a 3d
        E 34 b7 0a 3e
        E 34 b7 0a 3e
        E 34 b7 0a 3f
        E 34 b7 0a 3f
        E 34 b7 0a 3f
        E 34 b7 0a 3f
        E 34 b7 0a 3f
        E 34 b7 0a 3f
        E 34 b7 0a 3f
        E 34 b7 0a 3f
        E 34 b7 0a 3f
        E 34 b7 0a 3e
        E 34 b7 0a 3e
        E 34 b7 0a 3d
        E 34 b7 0a 3d
        E 34 b7 0a 3c
        E 34 b7 0a 3b
        E 34 b7 0a 3a
        E 34 b7 0a 3a
        E 34 b7 0a 39
        E 34 b7 0a 38
        E 34 b7 0a 37
        E 34 b7 0a 36
        E 34 b7 0a 34
        E 34 b7 0a 33
        E 34 b7 0a 32
        E 34 b7 0a 31
        E 34 b7 0a 2f
        E 34 b7 0a 2e
        E 34 b7 0a 2c
        E 34 b7 0a 2b
        E 34 b7 0a 2a
        E 34 b7 0a 28
        E 34 b7 0a 27
        E 34 b7 0a 25
        E 34 b7 0a 23
        E 34 b7 0a 22
        E 34 b7 0a 20
        E 34 b7 0a 1f
        E 34 b7 0a 1d
        E 34 b7 0a 1c
        E 34 b7 0a 1a
        E 34 b7 0a 18
        E 34 b7 0a 17
        E 34 b7 0a 15
        E 34 b7 0a 14
        E 34 b7 0a 13
        E 34 b7 0a 11
        E 34 b7 0a 10
        E 34 b7 0a 0e
        E 34 b7 0a 0d
        E 34 b7 0a 0c
        E 34 b7 0a 0b
        E 34 b7 0a 09
        E 34 b7 0a 08
        E 34 b7 0a 07
        E 34 b7 0a 06
        E 34 b7 0a 05
        E 34 b7 0a 05
        E 34 b7 0a 04
        E 34 b7 0a 03
        E 34 b7 0a 02
        E 34 b7 0a 02
        E 34 b7 0a 01
        E 34 b7 0a 01
        E 34 b7 0a 00
        E 34 b7 0a 00
        E 34 b7 0a 00
        E 34 b7 0a 00
        E 34 b7 0a 00
        E 34 b7 0a 00
        E 34 b7 0a 00
        E 34 b7 0a 00
        E 34 b7 0a 00
        E 34 b7 0a 01
        E 34 b7 0a 01
        E 34 b7 0a 02
        E 34 b7 0a 02
        E 34 b7 0a 03
        E 34 b7 0a 03
        E 34 b7 0a 04
        E 34 b7 0a 05
        E 34 b7 0a 06
        E 34 b7 0a 07
        E 34 b7 0a 08
        E 34 b7 0a 09
        E 34 b7 0a 0a
        E 34 b7 0a 0b
        E 34 b7 0a 0c
        E 34 b7 0a 0e
        E 34 b7 0a 0f
        E 34 b7 0a 10
        E 34 b7 0a 12
        E 34 b7 0a 13
        E 34 b7 0a 15
        E 34 b7 0a 16
        E 34 b7 0a 18
        E 34 b7 0a 19
        E 34 b7 0a 1b
        E 34 b7 0a 1c
        E 34 b7 0a 1e
        E 34 b7 0a 20
        E 3 b7 0a 06
        E 3 b7 0a 06
        E 3 b7 0a 07
        E 3 b7 0a 07
        E 3 b7 0a 07
        E 3 b7 0a 07
        E 3 b7 0a 08
        E 3 b7 0a 08
        E 3 b7 0a 08
        E 3 b7 0a 09
        E 3 b7 0a 09
        E 3 b7 0a 09
        E 3 b7 0a 09
        E 3 b7 0a 0a
        E 3 b7 0a 0a
        E 3 b7 0a 0a
        E 3 b7 0a 0a
        E 3 b7 0a 0b
        E 3 b7 0a 0b
        E 3 b7 0a 0b
        E 3 b7 0a 0b
        E 3 b7 0a 0b
        E 3 b7 0a 0c
        E 3 b7 0a 0c
        E 3 b7 0a 0c
        E 3 b7 0a 0c
        E 3 b7 0a 0c
        E 3 b7 0a 0c
        E 3 b7 0a 0c
        E 3 b7 0a 0c
        E 3 b7 0a 0c
        E 3 b7 0a 0c
        E 3 b7 0a 0c
        E 3 b7 0a 0c
        E 3 b7 0a 0c
        E 3 b7 0a 0c
        E 3 b7 0a 0c
        E 3 b7 0a 0c
        E 3 b7 0a 0c
        E 3 b7 0a 0c
        E 3 b7 0a 0c
        E 3 b7 0a 0c
        E 3 b7 0a 0b
        E 3 b7 0a 0b
        E 3 b7 0a 0b
        E 3 b7 0a 0b
        E 3 b7 0a 0b
        E 3 b7 0a 0b
        E 3 b7 0a 0a
        E 3 b7 0a 0a
        E 3 b7 0a 0a
        E 3 b7 0a 0a
        E 3 b7 0a 09
        E 3 b7 0a 09
        E 3 b7 0a 09
        E 3 b7 0a 08
        E 3 b7 0a 08
        E 3 b7 0a 08
        E 3 b7 0a 08
        E 3 b7 0a 07
        E 3 b7 0a 07
        E 3 b7 0a 07
        E 3 b7 0a 06
        E 3 b7 0a 06
        E 3 b7 0a 06
        E 3 b7 0a 05
        E 3 b7 0a 05
        E 3 b7 0a 05
        E 3 b7 0a 04
        E 3 b7 0a 04
        E 3 b7 0a 04
        E 3 b7 0a 04
        E 3 b7 0a 03
        E 3 b7 0a 03
        E 3 b7 0a 03
        E 3 b7 0a 02
        E 3 b7 0a 02
        E 3 b7 0a 02
        E 3 b7 0a 02
        E 3 b7 0a 01
        E 3 b7 0a 01
        E 3 b7 0a 01
        E 3 b7 0a 01
        E 3 b7 0a 01
        E 3 b7 0a 01
        E 3 b7 0a 00
        E 3 b7 0a 00
        E 3 b7 0a 00
        E 3 b7 0a 00
        E 3 b7 0a 00
        E 3 b7 0a 00
        E 3 b7 0a 00
        E 3 b7 0a 00
        E 3 b7 0a 00
        E 3 b7 0a 00
        E 3 b7 0a 00
        E 3 b7 0a 00
        E 3 b7 0a 00
        E 3 b7 0a 00
        E 3 b7 0a 00
        E 3 b7 0a 00
        E 3 b7 0a 00
        E 3 b7 0a 00
        E 3 b7 0a 00
        E 3 b7 0a 00
        E 3 b7 0a 00
        E 3 b7 0a 00
        E 3 b7 0a 01
        E 3 b7 0a 01
        E 3 b7 0a 01
        E 3 b7 0a 01
        E 3 b7 0a 01
        E 3 b7 0a 02
        E 3 b7 0a 02
        E 3 b7 0a 02
        E 3 b7 0a 02
        E 3 b7 0a 03
        E 3 b7 0a 03
        E 3 b7 0a 03
        E 3 b7 0a 03
        E 3 b7 0a 04
        E 3 b7 0a 04
        E 3 b7 0a 04
        E 3 b7 0a 05
        E 3 b7 0a 05
        E 3 b7 0a 05
        E 3 b7 0a 06
        E 3 b7 0a 06
        E 34 b7 0a 0e
        E 34 b7 0a 30
        E 34 b7 0a 1f
        E 34 b7 0a 05
        E 34 b7 0a 2d
        E 34 b7 0a 28
        E 34 b7 0a 06
        E 34 b7 0a 05
        E 34 b7 0a 1e
        E 34 b7 0a 3c
        E 34 b7 0a 32
        E 34 b7 0a 37
        E 34 b7 0a 27
        E 34 b7 0a 07
        E 34 b7 0a 0c
        E 34 b7 0a 2b
        E 34 b7 0a 23
        E 34 b7 0a 12
        E 34 b7 0a 0c
        E 34 b7 0a 11
        E 34 b7 0a 31
        E 34 b7 0a 1d
        E 34 b7 0a 0f
        E 34 b7 0a 24
        E 34 b7 0a 3f
        E 34 b7 0a 00
        E 34 b7 0a 08
        E 34 b7 0a 1a
        E 34 b7 0a 15
        E 34 b7 0a 34
        E 34 b7 0a 0d
        E 34 b7 0a 04
        E 34 b7 0a 0a
        E 34 b7 0a 0b
        E 34 b7 0a 39
        E 34 b7 0a 10
        E 34 b7 0a 00
        E 34 b7 0a 2f
        E 34 b7 0a 16
        E 34 b7 0a 0d
        E 34 b7 0a 19
        E 34 b7 0a 10
        E 34 b7 0a 36
        E 34 b7 0a 35
        E 34 b7 0a 3f
        E 34 b7 0a 35
        E 34 b7 0a 1b
        E 34 b7 0a 3b
        E 34 b7 0a 2d
        E 34 b7 0a 07
        E 34 b7 0a 1c
        E 34 b7 0a 22
        E 34 b7 0a 3c
        E 34 b7 0a 30
        E 34 b7 0a 22
        E 34 b7 0a 23
        E 34 b7 0a 03
        E 34 b7 0a 06
        E 34 b7 0a 3a
        E 34 b7 0a 33
        E 34 b7 0a 1b
        E 34 b7 0a 14
        E 34 b7 0a 08
        E 34 b7 0a 1c
        E 34 b7 0a 13
        E 34 b7 0a 0f
        E 34 b7 0a 18
        E 34 b7 0a 21
        E 34 b7 0a 26
        E 34 b7 0a 29
        E 34 b7 0a 0a
        E 34 b7 0a 26
        E 34 b7 0a 38
        E 34 b7 0a 20
        E 34 b7 0a 25
        E 34 b7 0a 01
        E 34 b7 0a 04
        E 34 b7 0a 3e
        E 34 b7 0a 29
        E 34 b7 0a 0b
        E 34 b7 0a 3a
        E 34 b7 0a 14
        E 34 b7 0a 18
        E 34 b7 0a 1f
        E 34 b7 0a 19
        E 34 b7 0a 2a
        E 34 b7 0a 33
        E 34 b7 0a 12
        E 34 b7 0a 24
        E 34 b7 0a 0e
        E 34 b7 0a 39
        E 34 b7 0a 34
        E 34 b7 0a 1d
        E 34 b7 0a 17
        E 34 b7 0a 32
        E 34 b7 0a 17
        E 34 b7 0a 2c
        E 34 b7 0a 09
        E 34 b7 0a 01
        E 34 b7 0a 15
        E 34 b7 0a 20
        E 34 b7 0a 36
        E 34 b7 0a 31
        E 34 b7 0a 02
        E 34 b7 0a 37
        E 34 b7 0a 2e
        E 34 b7 0a 03
        E 34 b7 0a 13
        E 34 b7 0a 25
        E 34 b7 0a 2f
        E 34 b7 0a 3d
        E 34 b7 0a 27
        E 34 b7 0a 1a
        E 34 b7 0a 11
        E 34 b7 0a 2c
        E 34 b7 0a 2e
        E 34 b7 0a 38
        E 34 b7 0a 3e
        E 34 b7 0a 1e
        E 34 b7 0a 28
        E 34 b7 0a 2b
        E 34 b7 0a 21
        E 34 b7 0a 3b
        E 34 b7 0a 09
        E 34 b7 0a 16
        E 34 b7 0a 2a
        E 17 b7 0a 02
        E 17 b7 0a 09
        E 17 b7 0a 06
        E 17 b7 0a 01
        E 17 b7 0a 09
        E 17 b7 0a 08
        E 17 b7 0a 01
        E 17 b7 0a 01
        E 17 b7 0a 06
        E 17 b7 0a 0c
        E 17 b7 0a 0a
        E 17 b7 0a 0b
        E 17 b7 0a 07
        E 17 b7 0a 01
        E 17 b7 0a 02
        E 17 b7 0a 08
        E 17 b7 0a 07
        E 17 b7 0a 03
        E 17 b7 0a 02
        E 17 b7 0a 03
        E 17 b7 0a 09
        E 17 b7 0a 05
        E 17 b7 0a 03
        E 17 b7 0a 07
        E 17 b7 0a 0c
        E 17 b7 0a 00
        E 17 b7 0a 01
        E 17 b7 0a 05
        E 17 b7 0a 04
        E 17 b7 0a 0a
        E 17 b7 0a 02
        E 17 b7 0a 00
        E 17 b7 0a 02
        E 17 b7 0a 02
        E 17 b7 0a 0b
        E 17 b7 0a 03
        E 17 b7 0a 00
        E 17 b7 0a 09
        E 17 b7 0a 04
        E 17 b7 0a 02
        E 17 b7 0a 05
        E 17 b7 0a 03
        E 17 b7 0a 0a
        E 17 b7 0a 0a
        E 17 b7 0a 0c
        E 17 b7 0a 0a
        E 17 b7 0a 05
        E 17 b7 0a 0b
        E 17 b7 0a 09
        E 17 b7 0a 01
        E 17 b7 0a 05
        E 17 b7 0a 06
        E 17 b7 0a 0c
        E 17 b7 0a 09
        E 17 b7 0a 06
        E 17 b7 0a 07
        E 17 b7 0a 00
        E 17 b7 0a 01
        E 17 b7 0a 0b
        E 17 b7 0a 0a
        E 17 b7 0a 05
        E 17 b7 0a 04
        E 17 b7 0a 01
        E 17 b7 0a 05
        E 17 b7 0a 03
        E 17 b7 0a 03
        E 17 b7 0a 04
        E 17 b7 0a 06
        E 17 b7 0a 07
        E 17 b7 0a 08
        E 17 b7 0a 02
        E 17 b7 0a 07
        E 17 b7 0a 0b
        E 17 b7 0a 06
        E 17 b7 0a 07
        E 17 b7 0a 00
        E 17 b7 0a 00
        E 17 b7 0a 0c
        E 17 b7 0a 08
        E 17 b7 0a 02
        E 17 b7 0a 0b
        E 17 b7 0a 04
        E 17 b7 0a 04
        E 17 b7 0a 06
        E 17 b7 0a 05
        E 17 b7 0a 08
        E 17 b7 0a 0a
        E 17 b7 0a 03
        E 17 b7 0a 07
        E 17 b7 0a 02
        E 17 b7 0a 0b
        E 17 b7 0a 0a
        E 17 b7 0a 05
        E 17 b7 0a 04
        E 17 b7 0a 0a
        E 17 b7 0a 04
        E 17 b7 0a 08
        E 17 b7 0a 01
        E 17 b7 0a 00
        E 17 b7 0a 04
        E 17 b7 0a 06
        E 17 b7 0a 0a
        E 17 b7 0a 09
        E 17 b7 0a 00
        E 17 b7 0a 0b
        E 17 b7 0a 09
        E 17 b7 0a 00
        E 17 b7 0a 03
        E 17 b7 0a 07
        E 17 b7 0a 09
        E 17 b7 0a 0c
        E 17 b7 0a 07
        E 17 b7 0a 05
        E 17 b7 0a 03
        E 17 b7 0a 08
        E 17 b7 0a 09
        E 17 b7 0a 0b
        E 17 b7 0a 0c
        E 17 b7 0a 06
        E 17 b7 0a 08
        E 17 b7 0a 08
        E 17 b7 0a 06
        E 17 b7 0a 0b
        E 17 b7 0a 01
        E 17 b7 0a 04
        E 17 b7 0a 08
        E 85 b7 0a 0e
        E 85 b7 0a 30
        E 85 b7 0a 1f
        E 85 b7 0a 05
        E 85 b7 0a 2d
        E 85 b7 0a 28
        E 85 b7 0a 06
        E 85 b7 0a 05
        E 85 b7 0a 1e
        E 85 b7 0a 3c
        E 85 b7 0a 32
        E 85 b7 0a 37
        E 85 b7 0a 27
        E 85 b7 0a 07
        E 85 b7 0a 0c
        E 85 b7 0a 2b
        E 85 b7 0a 23
        E 85 b7 0a 12
        E 85 b7 0a 0c
        E 85 b7 0a 11
        E 85 b7 0a 31
        E 85 b7 0a 1d
        E 85 b7 0a 0f
        E 85 b7 0a 24
        E 85 b7 0a 3f
        E 85 b7 0a 00
        E 85 b7 0a 08
        E 85 b7 0a 1a
        E 85 b7 0a 15
        E 85 b7 0a 34
        E 85 b7 0a 0d
        E 85 b7 0a 04
        E 85 b7 0a 0a
        E 85 b7 0a 0b
        E 85 b7 0a 39
        E 85 b7 0a 10
        E 85 b7 0a 00
        E 85 b7 0a 2f
        E 85 b7 0a 16
        E 85 b7 0a 0d
        E 85 b7 0a 19
        E 85 b7 0a 10
        E 85 b7 0a 36
        E 85 b7 0a 35
        E 85 b7 0a 3f
        E 85 b7 0a 35
        E 85 b7 0a 1b
        E 85 b7 0a 3b
        E 85 b7 0a 2d
        E 85 b7 0a 07
        E 85 b7 0a 1c
        E 85 b7 0a 22
        E 85 b7 0a 3c
        E 85 b7 0a 30
        E 85 b7 0a 22
        E 85 b7 0a 23
        E 85 b7 0a 03
        E 85 b7 0a 06
        E 85 b7 0a 3a
        E 85 b7 0a 33
        E 85 b7 0a 1b
        E 85 b7 0a 14
        E 85 b7 0a 08
        E 85 b7 0a 1c
        E 85 b7 0a 13
        E 85 b7 0a 0f
        E 85 b7 0a 18
        E 85 b7 0a 21
        E 85 b7 0a 26
        E 85 b7 0a 29
        E 85 b7 0a 0a
        E 85 b7 0a 26
        E 85 b7 0a 38
        E 85 b7 0a 20
        E 85 b7 0a 25
        E 85 b7 0a 01
        E 85 b7 0a 04
        E 85 b7 0a 3e
        E 85 b7 0a 29
        E 85 b7 0a 0b
        E 85 b7 0a 3a
        E 85 b7 0a 14
        E 85 b7 0a 18
        E 85 b7 0a 1f
        E 85 b7 0a 19
        E 85 b7 0a 2a
        E 85 b7 0a 33
        E 85 b7 0a 12
        E 85 b7 0a 24
        E 85 b7 0a 0e
        E 85 b7 0a 39
        E 85 b7 0a 34
        E 85 b7 0a 1d
        E 85 b7 0a 17
        E 85 b7 0a 32
        E 85 b7 0a 17
        E 85 b7 0a 2c
        E 85 b7 0a 09
        E 85 b7 0a 01
        E 85 b7 0a 15
        E 85 b7 0a 20
        E 85 b7 0a 36
        E 85 b7 0a 31
        E 85 b7 0a 02
        E 85 b7 0a 37
        E 85 b7 0a 2e
        E 85 b7 0a 03
        E 85 b7 0a 13
        E 85 b7 0a 25
        E 85 b7 0a 2f
        E 85 b7 0a 3d
        E 85 b7 0a 27
        E 85 b7 0a 1a
        E 85 b7 0a 11
        E 85 b7 0a 2c
        E 85 b7 0a 2e
        E 85 b7 0a 38
        E 85 b7 0a 3e
        E 85 b7 0a 1e
        E 85 b7 0a 28
        E 85 b7 0a 2b
        E 85 b7 0a 21
        E 85 b7 0a 3b
        E 85 b7 0a 09
        E 85 b7 0a 16
        E 85 b7 0a 2a
        E 8 b7 0a 02
        E 8 b7 0a 09
        E 8 b7 0a 06
        E 8 b7 0a 01
        E 8 b7 0a 09
        E 8 b7 0a 08
        E 8 b7 0a 01
        E 8 b7 0a 01
        E 8 b7 0a 06
        E 8 b7 0a 0c
        E 8 b7 0a 0a
        E 8 b7 0a 0b
        E 8 b7 0a 07
        E 8 b7 0a 01
        E 8 b7 0a 02
        E 8 b7 0a 08
        E 8 b7 0a 07
        E 8 b7 0a 03
        E 8 b7 0a 02
        E 8 b7 0a 03
        E 8 b7 0a 09
        E 8 b7 0a 05
        E 8 b7 0a 03
        E 8 b7 0a 07
        E 8 b7 0a 0c
        E 8 b7 0a 00
        E 8 b7 0a 01
        E 8 b7 0a 05
        E 8 b7 0a 04
        E 8 b7 0a 0a
        E 8 b7 0a 02
        E 8 b7 0a 00
        E 8 b7 0a 02
        E 8 b7 0a 02
        E 8 b7 0a 0b
        E 8 b7 0a 03
        E 8 b7 0a 00
        E 8 b7 0a 09
        E 8 b7 0a 04
        E 8 b7 0a 02
        E 8 b7 0a 05
        E 8 b7 0a 03
        E 8 b7 0a 0a
        E 8 b7 0a 0a
        E 8 b7 0a 0c
        E 8 b7 0a 0a
        E 8 b7 0a 05
        E 8 b7 0a 0b
        E 8 b7 0a 09
        E 8 b7 0a 01
        E 8 b7 0a 05
        E 8 b7 0a 06
        E 8 b7 0a 0c
        E 8 b7 0a 09
        E 8 b7 0a 06
        E 8 b7 0a 07
        E 8 b7 0a 00
        E 8 b7 0a 01
        E 8 b7 0a 0b
        E 8 b7 0a 0a
        E 8 b7 0a 05
        E 8 b7 0a 04
        E 8 b7 0a 01
        E 8 b7 0a 05
        E 8 b7 0a 03
        E 8 b7 0a 03
        E 8 b7 0a 04
        E 8 b7 0a 06
        E 8 b7 0a 07
        E 8 b7 0a 08
        E 8 b7 0a 02
        E 8 b7 0a 07
        E 8 b7 0a 0b
        E 8 b7 0a 06
        E 8 b7 0a 07
        E 8 b7 0a 00
        E 8 b7 0a 00
        E 8 b7 0a 0c
        E 8 b7 0a 08
        E 8 b7 0a 02
        E 8 b7 0a 0b
        E 8 b7 0a 04
        E 8 b7 0a 04
        E 8 b7 0a 06
        E 8 b7 0a 05
        E 8 b7 0a 08
        E 8 b7 0a 0a
        E 8 b7 0a 03
        E 8 b7 0a 07
        E 8 b7 0a 02
        E 8 b7 0a 0b
        E 8 b7 0a 0a
        E 8 b7 0a 05
        E 8 b7 0a 04
        E 8 b7 0a 0a
        E 8 b7 0a 04
        E 8 b7 0a 08
        E 8 b7 0a 01
        E 8 b7 0a 00
        E 8 b7 0a 04
        E 8 b7 0a 06
        E 8 b7 0a 0a
        E 8 b7 0a 09
        E 8 b7 0a 00
        E 8 b7 0a 0b
        E 8 b7 0a 09
        E 8 b7 0a 00
        E 8 b7 0a 03
        E 8 b7 0a 07
        E 8 b7 0a 09
        E 8 b7 0a 0c
        E 8 b7 0a 07
        E 8 b7 0a 05
        E 8 b7 0a 03
        E 8 b7 0a 08
        E 8 b7 0a 09
        E 8 b7 0a 0b
        E 8 b7 0a 0c
        E 8 b7 0a 06
        E 8 b7 0a 08
        E 8 b7 0a 08
        E 8 b7 0a 06
        E 8 b7 0a 0b
        E 8 b7 0a 01
        E 8 b7 0a 04
        E 8 b7 0a 08
        E 85 b7 0a 0b
        E 85 b7 0a 26
        E 85 b7 0a 19
        E 85 b7 0a 04
        E 85 b7 0a 24
        E 85 b7 0a 20
        E 85 b7 0a 04
        E 85 b7 0a 04
        E 85 b7 0a 18
        E 85 b7 0a 30
        E 85 b7 0a 28
        E 85 b7 0a 2c
        E 85 b7 0a 1f
        E 85 b7 0a 05
        E 85 b7 0a 09
        E 85 b7 0a 22
        E 85 b7 0a 1c
        E 85 b7 0a 0e
        E 85 b7 0a 0a
        E 85 b7 0a 0d
        E 85 b7 0a 27
        E 85 b7 0a 17
        E 85 b7 0a 0c
        E 85 b7 0a 1d
        E 85 b7 0a 32
        E 85 b7 0a 00
        E 85 b7 0a 06
        E 85 b7 0a 14
        E 85 b7 0a 11
        E 85 b7 0a 29
        E 85 b7 0a 0a
        E 85 b7 0a 03
        E 85 b7 0a 08
        E 85 b7 0a 08
        E 85 b7 0a 2e
        E 85 b7 0a 0c
        E 85 b7 0a 00
        E 85 b7 0a 25
        E 85 b7 0a 11
        E 85 b7 0a 0a
        E 85 b7 0a 14
        E 85 b7 0a 0d
        E 85 b7 0a 2b
        E 85 b7 0a 2a
        E 85 b7 0a 32
        E 85 b7 0a 2a
        E 85 b7 0a 16
        E 85 b7 0a 2f
        E 85 b7 0a 24
        E 85 b7 0a 06
        E 85 b7 0a 16
        E 85 b7 0a 1b
        E 85 b7 0a 30
        E 85 b7 0a 26
        E 85 b7 0a 1b
        E 85 b7 0a 1c
        E 85 b7 0a 02
        E 85 b7 0a 05
        E 85 b7 0a 2e
        E 85 b7 0a 28
        E 85 b7 0a 15
        E 85 b7 0a 10
        E 85 b7 0a 06
        E 85 b7 0a 16
        E 85 b7 0a 0f
        E 85 b7 0a 0c
        E 85 b7 0a 13
        E 85 b7 0a 1a
        E 85 b7 0a 1e
        E 85 b7 0a 20
        E 85 b7 0a 08
        E 85 b7 0a 1e
        E 85 b7 0a 2d
        E 85 b7 0a 1a
        E 85 b7 0a 1d
        E 85 b7 0a 01
        E 85 b7 0a 03
        E 85 b7 0a 32
        E 85 b7 0a 21
        E 85 b7 0a 09
        E 85 b7 0a 2e
        E 85 b7 0a 10
        E 85 b7 0a 13
        E 85 b7 0a 18
        E 85 b7 0a 14
        E 85 b7 0a 22
        E 85 b7 0a 29
        E 85 b7 0a 0e
        E 85 b7 0a 1c
        E 85 b7 0a 0b
        E 85 b7 0a 2d
        E 85 b7 0a 2a
        E 85 b7 0a 17
        E 85 b7 0a 12
        E 85 b7 0a 28
        E 85 b7 0a 12
        E 85 b7 0a 23
        E 85 b7 0a 07
        E 85 b7 0a 00
        E 85 b7 0a 10
        E 85 b7 0a 19
        E 85 b7 0a 2b
        E 85 b7 0a 27
        E 85 b7 0a 01
        E 85 b7 0a 2c
        E 85 b7 0a 25
        E 85 b7 0a 02
        E 85 b7 0a 0f
        E 85 b7 0a 1e
        E 85 b7 0a 26
        E 85 b7 0a 30
        E 85 b7 0a 1f
        E 85 b7 0a 15
        E 85 b7 0a 0e
        E 85 b7 0a 23
        E 85 b7 0a 24
        E 85 b7 0a 2c
        E 85 b7 0a 31
        E 85 b7 0a 18
        E 85 b7 0a 20
        E 85 b7 0a 22
        E 85 b7 0a 1a
        E 85 b7 0a 2f
        E 85 b7 0a 07
        E 85 b7 0a 12
        E 85 b7 0a 21
        E 8 b7 0a 0b
        E 8 b7 0a 26
        E 8 b7 0a 19
        E 8 b7 0a 04
        E 8 b7 0a 24
        E 8 b7 0a 20
        E 8 b7 0a 04
        E 8 b7 0a 04
        E 8 b7 0a 18
        E 8 b7 0a 30
        E 8 b7 0a 28
        E 8 b7 0a 2c
        E 8 b7 0a 1f
        E 8 b7 0a 05
        E 8 b7 0a 09
        E 8 b7 0a 22
        E 8 b7 0a 1c
        E 8 b7 0a 0e
        E 8 b7 0a 0a
        E 8 b7 0a 0d
        E 8 b7 0a 27
        E 8 b7 0a 17
        E 8 b7 0a 0c
        E 8 b7 0a 1d
        E 8 b7 0a 32
        E 8 b7 0a 00
        E 8 b7 0a 06
        E 8 b7 0a 14
        E 8 b7 0a 11
        E 8 b7 0a 29
        E 8 b7 0a 0a
        E 8 b7 0a 03
        E 8 b7 0a 08
        E 8 b7 0a 08
        E 8 b7 0a 2e
        E 8 b7 0a 0c
        E 8 b7 0a 00
        E 8 b7 0a 25
        E 8 b7 0a 11
        E 8 b7 0a 0a
        E 8 b7 0a 14
        E 8 b7 0a 0d
        E 8 b7 0a 2b
        E 8 b7 0a 2a
        E 8 b7 0a 32
        E 8 b7 0a 2a
        E 8 b7 0a 16
        E 8 b7 0a 2f
        E 8 b7 0a 24
        E 8 b7 0a 06
        E 8 b7 0a 16
        E 8 b7 0a 1b
        E 8 b7 0a 30
        E 8 b7 0a 26
        E 8 b7 0a 1b
        E 8 b7 0a 1c
        E 8 b7 0a 02
        E 8 b7 0a 05
        E 8 b7 0a 2e
        E 8 b7 0a 28
        E 8 b7 0a 15
        E 8 b7 0a 10
        E 8 b7 0a 06
        E 8 b7 0a 16
        E 8 b7 0a 0f
        E 8 b7 0a 0c
        E 8 b7 0a 13
        E 8 b7 0a 1a
        E 8 b7 0a 1e
        E 8 b7 0a 20
        E 8 b7 0a 08
        E 8 b7 0a 1e
        E 8 b7 0a 2d
        E 8 b7 0a 1a
        E 8 b7 0a 1d
        E 8 b7 0a 01
        E 8 b7 0a 03
        E 8 b7 0a 32
        E 8 b7 0a 21
        E 8 b7 0a 09
        E 8 b7 0a 2e
        E 8 b7 0a 10
        E 8 b7 0a 13
        E 8 b7 0a 18
        E 8 b7 0a 14
        E 8 b7 0a 22
        E 8 b7 0a 29
        E 8 b7 0a 0e
        E 8 b7 0a 1c
        E 8 b7 0a 0b
        E 8 b7 0a 2d
        E 8 b7 0a 2a
        E 8 b7 0a 17
        E 8 b7 0a 12
        E 8 b7 0a 28
        E 8 b7 0a 12
        E 8 b7 0a 23
        E 8 b7 0a 07
        E 8 b7 0a 00
        E 8 b7 0a 10
        E 8 b7 0a 19
        E 8 b7 0a 2b
        E 8 b7 0a 27
        E 8 b7 0a 01
        E 8 b7 0a 2c
        E 8 b7 0a 25
        E 8 b7 0a 02
        E 8 b7 0a 0f
        E 8 b7 0a 1e
        E 8 b7 0a 26
        E 8 b7 0a 30
        E 8 b7 0a 1f
        E 8 b7 0a 15
        E 8 b7 0a 0e
        E 8 b7 0a 23
        E 8 b7 0a 24
        E 8 b7 0a 2c
        E 8 b7 0a 31
        E 8 b7 0a 18
        E 8 b7 0a 20
        E 8 b7 0a 22
        E 8 b7 0a 1a
        E 8 b7 0a 2f
        E 8 b7 0a 07
        E 8 b7 0a 12
        E 8 b7 0a 21
        E 34 b7 0a 0e
        E 34 b7 0a 30
        E 34 b7 0a 1f
        E 34 b7 0a 05
        E 34 b7 0a 2d
        E 34 b7 0a 28
        E 34 b7 0a 06
        E 34 b7 0a 05
        E 34 b7 0a 1e
        E 34 b7 0a 3c
        E 34 b7 0a 32
        E 34 b7 0a 37
        E 34 b7 0a 27
        E 34 b7 0a 07
        E 34 b7 0a 0c
        E 34 b7 0a 2b
        E 34 b7 0a 23
        E 34 b7 0a 12
        E 34 b7 0a 0c
        E 34 b7 0a 11
        E 34 b7 0a 31
        E 34 b7 0a 1d
        E 34 b7 0a 0f
        E 34 b7 0a 24
        E 34 b7 0a 3f
        E 34 b7 0a 00
        E 34 b7 0a 08
        E 34 b7 0a 1a
        E 34 b7 0a 15
        E 34 b7 0a 34
        E 34 b7 0a 0d
        E 34 b7 0a 04
        E 34 b7 0a 0a
        E 34 b7 0a 0b
        E 34 b7 0a 39
        E 34 b7 0a 10
        E 34 b7 0a 00
        E 34 b7 0a 2f
        E 34 b7 0a 16
        E 34 b7 0a 0d
        E 34 b7 0a 19
        E 34 b7 0a 10
        E 34 b7 0a 36
        E 34 b7 0a 35
        E 34 b7 0a 3f
        E 34 b7 0a 35
        E 34 b7 0a 1b
        E 34 b7 0a 3b
        E 34 b7 0a 2d
        E 34 b7 0a 07
        E 34 b7 0a 1c
        E 34 b7 0a 22
        E 34 b7 0a 3c
        E 34 b7 0a 30
        E 34 b7 0a 22
        E 34 b7 0a 23
        E 34 b7 0a 03
        E 34 b7 0a 06
        E 34 b7 0a 3a
        E 34 b7 0a 33
        E 34 b7 0a 1b
        E 34 b7 0a 14
        E 34 b7 0a 08
        E 34 b7 0a 1c
        E 34 b7 0a 13
        E 34 b7 0a 0f
        E 34 b7 0a 18
        E 34 b7 0a 21
        E 34 b7 0a 26
        E 34 b7 0a 29
        E 34 b7 0a 0a
        E 34 b7 0a 26
        E 34 b7 0a 38
        E 34 b7 0a 20
        E 34 b7 0a 25
        E 34 b7 0a 01
        E 34 b7 0a 04
        E 34 b7 0a 3e
        E 34 b7 0a 29
        E 34 b7 0a 0b
        E 34 b7 0a 3a
        E 34 b7 0a 14
        E 34 b7 0a 18
        E 34 b7 0a 1f
        E 34 b7 0a 19
        E 34 b7 0a 2a
        E 34 b7 0a 33
        E 34 b7 0a 12
        E 34 b7 0a 24
        E 34 b7 0a 0e
        E 34 b7 0a 39
        E 34 b7 0a 34
        E 34 b7 0a 1d
        E 34 b7 0a 17
        E 34 b7 0a 32
        E 34 b7 0a 17
        E 34 b7 0a 2c
        E 34 b7 0a 09
        E 34 b7 0a 01
        E 34 b7 0a 15
        E 34 b7 0a 20
        E 34 b7 0a 36
        E 34 b7 0a 31
        E 34 b7 0a 02
        E 34 b7 0a 37
        E 34 b7 0a 2e
        E 34 b7 0a 03
        E 34 b7 0a 13
        E 34 b7 0a 25
        E 34 b7 0a 2f
        E 34 b7 0a 3d
        E 34 b7 0a 27
        E 34 b7 0a 1a
        E 34 b7 0a 11
        E 34 b7 0a 2c
        E 34 b7 0a 2e
        E 34 b7 0a 38
        E 34 b7 0a 3e
        E 34 b7 0a 1e
        E 34 b7 0a 28
        E 34 b7 0a 2b
        E 34 b7 0a 21
        E 34 b7 0a 3b
        E 34 b7 0a 09
        E 34 b7 0a 16
        E 34 b7 0a 2a
        E 17 b7 0a 02
        E 17 b7 0a 09
        E 17 b7 0a 06
        E 17 b7 0a 01
        E 17 b7 0a 09
        E 17 b7 0a 08
        E 17 b7 0a 01
        E 17 b7 0a 01
        E 17 b7 0a 06
        E 17 b7 0a 0c
        E 17 b7 0a 0a
        E 17 b7 0a 0b
        E 17 b7 0a 07
        E 17 b7 0a 01
        E 17 b7 0a 02
        E 17 b7 0a 08
        E 17 b7 0a 07
        E 17 b7 0a 03
        E 17 b7 0a 02
        E 17 b7 0a 03
        E 17 b7 0a 09
        E 17 b7 0a 05
        E 17 b7 0a 03
        E 17 b7 0a 07
        E 17 b7 0a 0c
        E 17 b7 0a 00
        E 17 b7 0a 01
        E 17 b7 0a 05
        E 17 b7 0a 04
        E 17 b7 0a 0a
        E 17 b7 0a 02
        E 17 b7 0a 00
        E 17 b7 0a 02
        E 17 b7 0a 02
        E 17 b7 0a 0b
        E 17 b7 0a 03
        E 17 b7 0a 00
        E 17 b7 0a 09
        E 17 b7 0a 04
        E 17 b7 0a 02
        E 17 b7 0a 05
        E 17 b7 0a 03
        E 17 b7 0a 0a
        E 17 b7 0a 0a
        E 17 b7 0a 0c
        E 17 b7 0a 0a
        E 17 b7 0a 05
        E 17 b7 0a 0b
        E 17 b7 0a 09
        E 17 b7 0a 01
        E 17 b7 0a 05
        E 17 b7 0a 06
        E 17 b7 0a 0c
        E 17 b7 0a 09
        E 17 b7 0a 06
        E 17 b7 0a 07
        E 17 b7 0a 00
        E 17 b7 0a 01
        E 17 b7 0a 0b
        E 17 b7 0a 0a
        E 17 b7 0a 05
        E 17 b7 0a 04
        E 17 b7 0a 01
        E 17 b7 0a 05
        E 17 b7 0a 03
        E 17 b7 0a 03
        E 17 b7 0a 04
        E 17 b7 0a 06
        E 17 b7 0a 07
        E 17 b7 0a 08
        E 17 b7 0a 02
        E 17 b7 0a 07
        E 17 b7 0a 0b
        E 17 b7 0a 06
        E 17 b7 0a 07
        E 17 b7 0a 00
        E 17 b7 0a 00
        E 17 b7 0a 0c
        E 17 b7 0a 08
        E 17 b7 0a 02
        E 17 b7 0a 0b
        E 17 b7 0a 04
        E 17 b7 0a 04
        E 17 b7 0a 06
        E 17 b7 0a 05
        E 17 b7 0a 08
        E 17 b7 0a 0a
        E 17 b7 0a 03
        E 17 b7 0a 07
        E 17 b7 0a 02
        E 17 b7 0a 0b
        E 17 b7 0a 0a
        E 17 b7 0a 05
        E 17 b7 0a 04
        E 17 b7 0a 0a
        E 17 b7 0a 04
        E 17 b7 0a 08
        E 17 b7 0a 01
        E 17 b7 0a 00
        E 17 b7 0a 04
        E 17 b7 0a 06
        E 17 b7 0a 0a
        E 17 b7 0a 09
        E 17 b7 0a 00
        E 17 b7 0a 0b
        E 17 b7 0a 09
        E 17 b7 0a 00
        E 17 b7 0a 03
        E 17 b7 0a 07
        E 17 b7 0a 09
        E 17 b7 0a 0c
        E 17 b7 0a 07
        E 17 b7 0a 05
        E 17 b7 0a 03
        E 17 b7 0a 08
        E 17 b7 0a 09
        E 17 b7 0a 0b
        E 17 b7 0a 0c
        E 17 b7 0a 06
        E 17 b7 0a 08
        E 17 b7 0a 08
        E 17 b7 0a 06
        E 17 b7 0a 0b
        E 17 b7 0a 01
        E 17 b7 0a 04
        E 17 b7 0a 08
        E 85 b7 0a 0e
        E 85 b7 0a 30
        E 85 b7 0a 1f
        E 85 b7 0a 05
        E 85 b7 0a 2d
        E 85 b7 0a 28
        E 85 b7 0a 06
        E 85 b7 0a 05
        E 85 b7 0a 1e
        E 85 b7 0a 3c
        E 85 b7 0a 32
        E 85 b7 0a 37
        E 85 b7 0a 27
        E 85 b7 0a 07
        E 85 b7 0a 0c
        E 85 b7 0a 2b
        E 85 b7 0a 23
        E 85 b7 0a 12
        E 85 b7 0a 0c
        E 85 b7 0a 11
        E 85 b7 0a 31
        E 85 b7 0a 1d
        E 85 b7 0a 0f
        E 85 b7 0a 24
        E 85 b7 0a 3f
        E 85 b7 0a 00
        E 85 b7 0a 08
        E 85 b7 0a 1a
        E 85 b7 0a 15
        E 85 b7 0a 34
        E 85 b7 0a 0d
        E 85 b7 0a 04
        E 85 b7 0a 0a
        E 85 b7 0a 0b
        E 85 b7 0a 39
        E 85 b7 0a 10
        E 85 b7 0a 00
        E 85 b7 0a 2f
        E 85 b7 0a 16
        E 85 b7 0a 0d
        E 85 b7 0a 19
        E 85 b7 0a 10
        E 85 b7 0a 36
        E 85 b7 0a 35
        E 85 b7 0a 3f
        E 85 b7 0a 35
        E 85 b7 0a 1b
        E 85 b7 0a 3b
        E 85 b7 0a 2d
        E 85 b7 0a 07
        E 85 b7 0a 1c
        E 85 b7 0a 22
        E 85 b7 0a 3c
        E 85 b7 0a 30
        E 85 b7 0a 22
        E 85 b7 0a 23
        E 85 b7 0a 03
        E 85 b7 0a 06
        E 85 b7 0a 3a
        E 85 b7 0a 33
        E 85 b7 0a 1b
        E 85 b7 0a 14
        E 85 b7 0a 08
        E 85 b7 0a 1c
        E 85 b7 0a 13
        E 85 b7 0a 0f
        E 85 b7 0a 18
        E 85 b7 0a 21
        E 85 b7 0a 26
        E 85 b7 0a 29
        E 85 b7 0a 0a
        E 85 b7 0a 26
        E 85 b7 0a 38
        E 85 b7 0a 20
        E 85 b7 0a 25
        E 85 b7 0a 01
        E 85 b7 0a 04
        E 85 b7 0a 3e
        E 85 b7 0a 29
        E 85 b7 0a 0b
        E 85 b7 0a 3a
        E 85 b7 0a 14
        E 85 b7 0a 18
        E 85 b7 0a 1f
        E 85 b7 0a 19
        E 85 b7 0a 2a
        E 85 b7 0a 33
        E 85 b7 0a 12
        E 85 b7 0a 24
        E 85 b7 0a 0e
        E 85 b7 0a 39
        E 85 b7 0a 34
        E 85 b7 0a 1d
        E 85 b7 0a 17
        E 85 b7 0a 32
        E 85 b7 0a 17
        E 85 b7 0a 2c
        E 85 b7 0a 09
        E 85 b7 0a 01
        E 85 b7 0a 15
        E 85 b7 0a 20
        E 85 b7 0a 36
        E 85 b7 0a 31
        E 85 b7 0a 02
        E 85 b7 0a 37
        E 85 b7 0a 2e
        E 85 b7 0a 03
        E 85 b7 0a 13
        E 85 b7 0a 25
        E 85 b7 0a 2f
        E 85 b7 0a 3d
        E 85 b7 0a 27
        E 85 b7 0a 1a
        E 85 b7 0a 11
        E 85 b7 0a 2c
        E 85 b7 0a 2e
        E 85 b7 0a 38
        E 85 b7 0a 3e
        E 85 b7 0a 1e
        E 85 b7 0a 28
        E 85 b7 0a 2b
        E 85 b7 0a 21
        E 85 b7 0a 3b
        E 85 b7 0a 09
        E 85 b7 0a 16
        E 85 b7 0a 2a
        E 108 b0 7b 00
        CCINTERP 32
        CHASE_CC_TAKEOFFS 1
        GUID {4140717C-9202-A243-A36A-B590EA1E2AED}
        IGNTEMPO 0 120 4 4
        SRCCOLOR 285
        VELLANE 3 601 0
        VELLANE -1 196 0
      >
    >
  >
  <TRACK {501CE926-3B4C-1349-9C4F-EE49B4339C62}
    NAME "pepto bismol 4oz bottle"
    PEAKCOL 16576
    BEAT -1
    AUTOMODE 0
    VOLPAN 1 0 -1 -1 1
    MUTESOLO 0 0 0
    IPHASE 0
    PLAYOFFS 0 1
    ISBUS 0 0
    BUSCOMP 0 0 0 0 0
    SHOWINMIX 1 0.6667 0.5 1 0.5 -1 -1 -1
    FREEMODE 0
    SEL 0
    REC 0 0 1 0 0 0 0
    VU 2
    TRACKHEIGHT 0 1 0 0 -1 0
    INQ 0 0 0 0.5 100 0 0 100
    NCHAN 2
    FX 1
    TRACKID {501CE926-3B4C-1349-9C4F-EE49B4339C62}
    PERF 0
    MIDIOUT -1
    MAINSEND 1 0
    <ITEM
      POSITION 0
      SNAPOFFS 0
      LENGTH 140.95224
      LOOP 1
      ALLTAKES 0
      FADEIN 1 0 0 1 0 0
      FADEOUT 1 0 0 1 0 0
      MUTE 0 0
      SEL 0
      IGUID {5A4EE91F-96F6-0143-BFBA-9CB14EFF665C}
      IID 21
      NAME "pepto bismol 4oz bottle.mid"
      VOLPAN 1 0 1 -1
      SOFFS 0 0
      PLAYRATE 1 1 0 -1 0 0.0025
      CHANMODE 0
      GUID {EB311136-E3A5-C54E-96FD-3444EA87145B}
      <SOURCE MIDI
        HASDATA 1 128 QN
        CCINTERP 32
        POOLEDEVTS {058C92E6-6BC5-1F40-BA00-9B02FC657F98}
        E 6 b8 04 0c
        E 6 b8 04 0d
        E 6 b8 04 0e
        E 6 b8 04 0e
        E 6 b8 04 0f
        E 6 b8 04 0f
        E 6 b8 04 10
        E 6 b8 04 11
        E 6 b8 04 11
        E 6 b8 04 12
        E 6 b8 04 12
        E 6 b8 04 13
        E 6 b8 04 13
        E 6 b8 04 14
        E 6 b8 04 14
        E 6 b8 04 15
        E 6 b8 04 15
        E 6 b8 04 16
        E 6 b8 04 16
        E 6 b8 04 17
        E 6 b8 04 17
        E 6 b8 04 17
        E 6 b8 04 18
        E 6 b8 04 18
        E 6 b8 04 18
        E 6 b8 04 18
        E 6 b8 04 18
        E 6 b8 04 19
        E 6 b8 04 19
        E 6 b8 04 19
        E 6 b8 04 19
        E 6 b8 04 19
        E 6 b8 04 19
        E 6 b8 04 19
        E 6 b8 04 19
        E 6 b8 04 19
        E 6 b8 04 19
        E 6 b8 04 19
        E 6 b8 04 18
        E 6 b8 04 18
        E 6 b8 04 18
        E 6 b8 04 18
        E 6 b8 04 17
        E 6 b8 04 17
        E 6 b8 04 17
        E 6 b8 04 16
        E 6 b8 04 16
        E 6 b8 04 16
        E 6 b8 04 15
        E 6 b8 04 15
        E 6 b8 04 14
        E 6 b8 04 14
        E 6 b8 04 13
        E 6 b8 04 13
        E 6 b8 04 12
        E 6 b8 04 11
        E 6 b8 04 11
        E 6 b8 04 10
        E 6 b8 04 10
        E 6 b8 04 0f
        E 6 b8 04 0e
        E 6 b8 04 0e
        E 6 b8 04 0d
        E 6 b8 04 0d
        E 6 b8 04 0c
        E 6 b8 04 0b
        E 6 b8 04 0b
        E 6 b8 04 0a
        E 6 b8 04 09
        E 6 b8 04 09
        E 6 b8 04 08
        E 6 b8 04 08
        E 6 b8 04 07
        E 6 b8 04 07
        E 6 b8 04 06
        E 6 b8 04 05
        E 6 b8 04 05
        E 6 b8 04 04
        E 6 b8 04 04
        E 6 b8 04 03
        E 6 b8 04 03
        E 6 b8 04 03
        E 6 b8 04 02
        E 6 b8 04 02
        E 6 b8 04 02
        E 6 b8 04 01
        E 6 b8 04 01
        E 6 b8 04 01
        E 6 b8 04 00
        E 6 b8 04 00
        E 6 b8 04 00
        E 6 b8 04 00
        E 6 b8 04 00
        E 6 b8 04 00
        E 6 b8 04 00
        E 6 b8 04 00
        E 6 b8 04 00
        E 6 b8 04 00
        E 6 b8 04 00
        E 6 b8 04 00
        E 6 b8 04 00
        E 6 b8 04 00
        E 6 b8 04 00
        E 6 b8 04 01
        E 6 b8 04 01
        E 6 b8 04 01
        E 6 b8 04 01
        E 6 b8 04 02
        E 6 b8 04 02
        E 6 b8 04 02
        E 6 b8 04 03
        E 6 b8 04 03
        E 6 b8 04 04
        E 6 b8 04 04
        E 6 b8 04 05
        E 6 b8 04 05
        E 6 b8 04 06
        E 6 b8 04 06
        E 6 b8 04 07
        E 6 b8 04 07
        E 6 b8 04 08
        E 6 b8 04 09
        E 6 b8 04 09
        E 6 b8 04 0a
        E 6 b8 04 0a
        E 6 b8 04 0b
        E 6 b8 04 0c
        E 6 b8 04 0c
        E 1 b8 04 40
        E 1 b8 04 43
        E 1 b8 04 46
        E 1 b8 04 49
        E 1 b8 04 4c
        E 1 b8 04 4f
        E 1 b8 04 52
        E 1 b8 04 55
        E 1 b8 04 58
        E 1 b8 04 5b
        E 1 b8 04 5e
        E 1 b8 04 60
        E 1 b8 04 63
        E 1 b8 04 66
        E 1 b8 04 68
        E 1 b8 04 6a
        E 1 b8 04 6d
        E 1 b8 04 6f
        E 1 b8 04 71
        E 1 b8 04 73
        E 1 b8 04 75
        E 1 b8 04 76
        E 1 b8 04 78
        E 1 b8 04 79
        E 1 b8 04 7a
        E 1 b8 04 7b
        E 1 b8 04 7c
        E 1 b8 04 7d
        E 1 b8 04 7e
        E 1 b8 04 7e
        E 1 b8 04 7f
        E 1 b8 04 7f
        E 1 b8 04 7f
        E 1 b8 04 7f
        E 1 b8 04 7f
        E 1 b8 04 7e
        E 1 b8 04 7e
        E 1 b8 04 7d
        E 1 b8 04 7c
        E 1 b8 04 7b
        E 1 b8 04 7a
        E 1 b8 04 78
        E 1 b8 04 77
        E 1 b8 04 75
        E 1 b8 04 74
        E 1 b8 04 72
        E 1 b8 04 70
        E 1 b8 04 6e
        E 1 b8 04 6c
        E 1 b8 04 69
        E 1 b8 04 67
        E 1 b8 04 64
        E 1 b8 04 62
        E 1 b8 04 5f
        E 1 b8 04 5c
        E 1 b8 04 59
        E 1 b8 04 57
        E 1 b8 04 54
        E 1 b8 04 51
        E 1 b8 04 4e
        E 1 b8 04 4a
        E 1 b8 04 47
        E 1 b8 04 44
        E 1 b8 04 41
        E 1 b8 04 3e
        E 1 b8 04 3b
        E 1 b8 04 38
        E 1 b8 04 35
        E 1 b8 04 31
        E 1 b8 04 2e
        E 1 b8 04 2b
        E 1 b8 04 28
        E 1 b8 04 26
        E 1 b8 04 23
        E 1 b8 04 20
        E 1 b8 04 1d
        E 1 b8 04 1b
        E 1 b8 04 18
        E 1 b8 04 16
        E 1 b8 04 13
        E 1 b8 04 11
        E 1 b8 04 0f
        E 1 b8 04 0d
        E 1 b8 04 0b
        E 1 b8 04 0a
        E 1 b8 04 08
        E 1 b8 04 07
        E 1 b8 04 05
        E 1 b8 04 04
        E 1 b8 04 03
        E 1 b8 04 02
        E 1 b8 04 01
        E 1 b8 04 01
        E 1 b8 04 00
        E 1 b8 04 00
        E 1 b8 04 00
        E 1 b8 04 00
        E 1 b8 04 00
        E 1 b8 04 01
        E 1 b8 04 01
        E 1 b8 04 02
        E 1 b8 04 03
        E 1 b8 04 04
        E 1 b8 04 05
        E 1 b8 04 06
        E 1 b8 04 07
        E 1 b8 04 09
        E 1 b8 04 0a
        E 1 b8 04 0c
        E 1 b8 04 0e
        E 1 b8 04 10
        E 1 b8 04 12
        E 1 b8 04 15
        E 1 b8 04 17
        E 1 b8 04 19
        E 1 b8 04 1c
        E 1 b8 04 1f
        E 1 b8 04 21
        E 1 b8 04 24
        E 1 b8 04 27
        E 1 b8 04 2a
        E 1 b8 04 2d
        E 1 b8 04 30
        E 1 b8 04 33
        E 1 b8 04 36
        E 1 b8 04 39
        E 1 b8 04 3c
        E 1 b8 04 40
        E 5 b8 04 06
        E 5 b8 04 06
        E 5 b8 04 07
        E 5 b8 04 07
        E 5 b8 04 07
        E 5 b8 04 07
        E 5 b8 04 08
        E 5 b8 04 08
        E 5 b8 04 08
        E 5 b8 04 09
        E 5 b8 04 09
        E 5 b8 04 09
        E 5 b8 04 09
        E 5 b8 04 0a
        E 5 b8 04 0a
        E 5 b8 04 0a
        E 5 b8 04 0a
        E 5 b8 04 0b
        E 5 b8 04 0b
        E 5 b8 04 0b
        E 5 b8 04 0b
        E 5 b8 04 0b
        E 5 b8 04 0c
        E 5 b8 04 0c
        E 5 b8 04 0c
        E 5 b8 04 0c
        E 5 b8 04 0c
        E 5 b8 04 0c
        E 5 b8 04 0c
        E 5 b8 04 0c
        E 5 b8 04 0c
        E 5 b8 04 0c
        E 5 b8 04 0c
        E 5 b8 04 0c
        E 5 b8 04 0c
        E 5 b8 04 0c
        E 5 b8 04 0c
        E 5 b8 04 0c
        E 5 b8 04 0c
        E 5 b8 04 0c
        E 5 b8 04 0c
        E 5 b8 04 0c
        E 5 b8 04 0b
        E 5 b8 04 0b
        E 5 b8 04 0b
        E 5 b8 04 0b
        E 5 b8 04 0b
        E 5 b8 04 0b
        E 5 b8 04 0a
        E 5 b8 04 0a
        E 5 b8 04 0a
        E 5 b8 04 0a
        E 5 b8 04 09
        E 5 b8 04 09
        E 5 b8 04 09
        E 5 b8 04 08
        E 5 b8 04 08
        E 5 b8 04 08
        E 5 b8 04 08
        E 5 b8 04 07
        E 5 b8 04 07
        E 5 b8 04 07
        E 5 b8 04 06
        E 5 b8 04 06
        E 5 b8 04 06
        E 5 b8 04 05
        E 5 b8 04 05
        E 5 b8 04 05
        E 5 b8 04 04
        E 5 b8 04 04
        E 5 b8 04 04
        E 5 b8 04 04
        E 5 b8 04 03
        E 5 b8 04 03
        E 5 b8 04 03
        E 5 b8 04 02
        E 5 b8 04 02
        E 5 b8 04 02
        E 5 b8 04 02
        E 5 b8 04 01
        E 5 b8 04 01
        E 5 b8 04 01
        E 5 b8 04 01
        E 5 b8 04 01
        E 5 b8 04 01
        E 5 b8 04 00
        E 5 b8 04 00
        E 5 b8 04 00
        E 5 b8 04 00
        E 5 b8 04 00
        E 5 b8 04 00
        E 5 b8 04 00
        E 5 b8 04 00
        E 5 b8 04 00
        E 5 b8 04 00
        E 5 b8 04 00
        E 5 b8 04 00
        E 5 b8 04 00
        E 5 b8 04 00
        E 5 b8 04 00
        E 5 b8 04 00
        E 5 b8 04 00
        E 5 b8 04 00
        E 5 b8 04 00
        E 5 b8 04 00
        E 5 b8 04 00
        E 5 b8 04 00
        E 5 b8 04 01
        E 5 b8 04 01
        E 5 b8 04 01
        E 5 b8 04 01
        E 5 b8 04 01
        E 5 b8 04 02
        E 5 b8 04 02
        E 5 b8 04 02
        E 5 b8 04 02
        E 5 b8 04 03
        E 5 b8 04 03
        E 5 b8 04 03
        E 5 b8 04 03
        E 5 b8 04 04
        E 5 b8 04 04
        E 5 b8 04 04
        E 5 b8 04 05
        E 5 b8 04 05
        E 5 b8 04 05
        E 5 b8 04 06
        E 5 b8 04 06
        E 5 b8 04 40
        E 5 b8 04 43
        E 5 b8 04 46
        E 5 b8 04 49
        E 5 b8 04 4c
        E 5 b8 04 4f
        E 5 b8 04 52
        E 5 b8 04 55
        E 5 b8 04 58
        E 5 b8 04 5b
        E 5 b8 04 5e
        E 5 b8 04 60
        E 5 b8 04 63
        E 5 b8 04 66
        E 5 b8 04 68
        E 5 b8 04 6a
        E 5 b8 04 6d
        E 5 b8 04 6f
        E 5 b8 04 71
        E 5 b8 04 73
        E 5 b8 04 75
        E 5 b8 04 76
        E 5 b8 04 78
        E 5 b8 04 79
        E 5 b8 04 7a
        E 5 b8 04 7b
        E 5 b8 04 7c
        E 5 b8 04 7d
        E 5 b8 04 7e
        E 5 b8 04 7e
        E 5 b8 04 7f
        E 5 b8 04 7f
        E 5 b8 04 7f
        E 5 b8 04 7f
        E 5 b8 04 7f
        E 5 b8 04 7e
        E 5 b8 04 7e
        E 5 b8 04 7d
        E 5 b8 04 7c
        E 5 b8 04 7b
        E 5 b8 04 7a
        E 5 b8 04 78
        E 5 b8 04 77
        E 5 b8 04 75
        E 5 b8 04 74
        E 5 b8 04 72
        E 5 b8 04 70
        E 5 b8 04 6e
        E 5 b8 04 6c
        E 5 b8 04 69
        E 5 b8 04 67
        E 5 b8 04 64
        E 5 b8 04 62
        E 5 b8 04 5f
        E 5 b8 04 5c
        E 5 b8 04 59
        E 5 b8 04 57
        E 5 b8 04 54
        E 5 b8 04 51
        E 5 b8 04 4e
        E 5 b8 04 4a
        E 5 b8 04 47
        E 5 b8 04 44
        E 5 b8 04 41
        E 5 b8 04 3e
        E 5 b8 04 3b
        E 5 b8 04 38
        E 5 b8 04 35
        E 5 b8 04 31
        E 5 b8 04 2e
        E 5 b8 04 2b
        E 5 b8 04 28
        E 5 b8 04 26
        E 5 b8 04 23
        E 5 b8 04 20
        E 5 b8 04 1d
        E 5 b8 04 1b
        E 5 b8 04 18
        E 5 b8 04 16
        E 5 b8 04 13
        E 5 b8 04 11
        E 5 b8 04 0f
        E 5 b8 04 0d
        E 5 b8 04 0b
        E 5 b8 04 0a
        E 5 b8 04 08
        E 5 b8 04 07
        E 5 b8 04 05
        E 5 b8 04 04
        E 5 b8 04 03
        E 5 b8 04 02
        E 5 b8 04 01
        E 5 b8 04 01
        E 5 b8 04 00
        E 5 b8 04 00
        E 5 b8 04 00
        E 5 b8 04 00
        E 5 b8 04 00
        E 5 b8 04 01
        E 5 b8 04 01
        E 5 b8 04 02
        E 5 b8 04 03
        E 5 b8 04 04
        E 5 b8 04 05
        E 5 b8 04 06
        E 5 b8 04 07
        E 5 b8 04 09
        E 5 b8 04 0a
        E 5 b8 04 0c
        E 5 b8 04 0e
        E 5 b8 04 10
        E 5 b8 04 12
        E 5 b8 04 15
        E 5 b8 04 17
        E 5 b8 04 19
        E 5 b8 04 1c
        E 5 b8 04 1f
        E 5 b8 04 21
        E 5 b8 04 24
        E 5 b8 04 27
        E 5 b8 04 2a
        E 5 b8 04 2d
        E 5 b8 04 30
        E 5 b8 04 33
        E 5 b8 04 36
        E 5 b8 04 39
        E 5 b8 04 3c
        E 5 b8 04 40
        E 6 b8 04 06
        E 6 b8 04 06
        E 6 b8 04 07
        E 6 b8 04 07
        E 6 b8 04 07
        E 6 b8 04 07
        E 6 b8 04 08
        E 6 b8 04 08
        E 6 b8 04 08
        E 6 b8 04 09
        E 6 b8 04 09
        E 6 b8 04 09
        E 6 b8 04 09
        E 6 b8 04 0a
        E 6 b8 04 0a
        E 6 b8 04 0a
        E 6 b8 04 0a
        E 6 b8 04 0b
        E 6 b8 04 0b
        E 6 b8 04 0b
        E 6 b8 04 0b
        E 6 b8 04 0b
        E 6 b8 04 0c
        E 6 b8 04 0c
        E 6 b8 04 0c
        E 6 b8 04 0c
        E 6 b8 04 0c
        E 6 b8 04 0c
        E 6 b8 04 0c
        E 6 b8 04 0c
        E 6 b8 04 0c
        E 6 b8 04 0c
        E 6 b8 04 0c
        E 6 b8 04 0c
        E 6 b8 04 0c
        E 6 b8 04 0c
        E 6 b8 04 0c
        E 6 b8 04 0c
        E 6 b8 04 0c
        E 6 b8 04 0c
        E 6 b8 04 0c
        E 6 b8 04 0c
        E 6 b8 04 0b
        E 6 b8 04 0b
        E 6 b8 04 0b
        E 6 b8 04 0b
        E 6 b8 04 0b
        E 6 b8 04 0b
        E 6 b8 04 0a
        E 6 b8 04 0a
        E 6 b8 04 0a
        E 6 b8 04 0a
        E 6 b8 04 09
        E 6 b8 04 09
        E 6 b8 04 09
        E 6 b8 04 08
        E 6 b8 04 08
        E 6 b8 04 08
        E 6 b8 04 08
        E 6 b8 04 07
        E 6 b8 04 07
        E 6 b8 04 07
        E 6 b8 04 06
        E 6 b8 04 06
        E 6 b8 04 06
        E 6 b8 04 05
        E 6 b8 04 05
        E 6 b8 04 05
        E 6 b8 04 04
        E 6 b8 04 04
        E 6 b8 04 04
        E 6 b8 04 04
        E 6 b8 04 03
        E 6 b8 04 03
        E 6 b8 04 03
        E 6 b8 04 02
        E 6 b8 04 02
        E 6 b8 04 02
        E 6 b8 04 02
        E 6 b8 04 01
        E 6 b8 04 01
        E 6 b8 04 01
        E 6 b8 04 01
        E 6 b8 04 01
        E 6 b8 04 01
        E 6 b8 04 00
        E 6 b8 04 00
        E 6 b8 04 00
        E 6 b8 04 00
        E 6 b8 04 00
        E 6 b8 04 00
        E 6 b8 04 00
        E 6 b8 04 00
        E 6 b8 04 00
        E 6 b8 04 00
        E 6 b8 04 00
        E 6 b8 04 00
        E 6 b8 04 00
        E 6 b8 04 00
        E 6 b8 04 00
        E 6 b8 04 00
        E 6 b8 04 00
        E 6 b8 04 00
        E 6 b8 04 00
        E 6 b8 04 00
        E 6 b8 04 00
        E 6 b8 04 00
        E 6 b8 04 01
        E 6 b8 04 01
        E 6 b8 04 01
        E 6 b8 04 01
        E 6 b8 04 01
        E 6 b8 04 02
        E 6 b8 04 02
        E 6 b8 04 02
        E 6 b8 04 02
        E 6 b8 04 03
        E 6 b8 04 03
        E 6 b8 04 03
        E 6 b8 04 03
        E 6 b8 04 04
        E 6 b8 04 04
        E 6 b8 04 04
        E 6 b8 04 05
        E 6 b8 04 05
        E 6 b8 04 05
        E 6 b8 04 06
        E 6 b8 04 06
        E 1 b8 04 19
        E 1 b8 04 1a
        E 1 b8 04 1c
        E 1 b8 04 1d
        E 1 b8 04 1e
        E 1 b8 04 1f
        E 1 b8 04 20
        E 1 b8 04 22
        E 1 b8 04 23
        E 1 b8 04 24
        E 1 b8 04 25
        E 1 b8 04 26
        E 1 b8 04 27
        E 1 b8 04 28
        E 1 b8 04 29
        E 1 b8 04 2a
        E 1 b8 04 2b
        E 1 b8 04 2c
        E 1 b8 04 2d
        E 1 b8 04 2e
        E 1 b8 04 2e
        E 1 b8 04 2f
        E 1 b8 04 30
        E 1 b8 04 30
        E 1 b8 04 30
        E 1 b8 04 31
        E 1 b8 04 31
        E 1 b8 04 32
        E 1 b8 04 32
        E 1 b8 04 32
        E 1 b8 04 32
        E 1 b8 04 32
        E 1 b8 04 32
        E 1 b8 04 32
        E 1 b8 04 32
        E 1 b8 04 32
        E 1 b8 04 32
        E 1 b8 04 32
        E 1 b8 04 31
        E 1 b8 04 31
        E 1 b8 04 30
        E 1 b8 04 30
        E 1 b8 04 2f
        E 1 b8 04 2e
        E 1 b8 04 2e
        E 1 b8 04 2d
        E 1 b8 04 2c
        E 1 b8 04 2c
        E 1 b8 04 2b
        E 1 b8 04 2a
        E 1 b8 04 29
        E 1 b8 04 28
        E 1 b8 04 27
        E 1 b8 04 26
        E 1 b8 04 24
        E 1 b8 04 23
        E 1 b8 04 22
        E 1 b8 04 21
        E 1 b8 04 20
        E 1 b8 04 1f
        E 1 b8 04 1d
        E 1 b8 04 1c
        E 1 b8 04 1b
        E 1 b8 04 1a
        E 1 b8 04 18
        E 1 b8 04 17
        E 1 b8 04 16
        E 1 b8 04 15
        E 1 b8 04 13
        E 1 b8 04 12
        E 1 b8 04 11
        E 1 b8 04 10
        E 1 b8 04 0f
        E 1 b8 04 0e
        E 1 b8 04 0c
        E 1 b8 04 0b
        E 1 b8 04 0a
        E 1 b8 04 09
        E 1 b8 04 08
        E 1 b8 04 07
        E 1 b8 04 06
        E 1 b8 04 06
        E 1 b8 04 05
        E 1 b8 04 04
        E 1 b8 04 04
        E 1 b8 04 03
        E 1 b8 04 02
        E 1 b8 04 02
        E 1 b8 04 01
        E 1 b8 04 01
        E 1 b8 04 00
        E 1 b8 04 00
        E 1 b8 04 00
        E 1 b8 04 00
        E 1 b8 04 00
        E 1 b8 04 00
        E 1 b8 04 00
        E 1 b8 04 00
        E 1 b8 04 00
        E 1 b8 04 00
        E 1 b8 04 00
        E 1 b8 04 01
        E 1 b8 04 01
        E 1 b8 04 02
        E 1 b8 04 02
        E 1 b8 04 02
        E 1 b8 04 03
        E 1 b8 04 04
        E 1 b8 04 04
        E 1 b8 04 05
        E 1 b8 04 06
        E 1 b8 04 07
        E 1 b8 04 08
        E 1 b8 04 09
        E 1 b8 04 0a
        E 1 b8 04 0b
        E 1 b8 04 0c
        E 1 b8 04 0d
        E 1 b8 04 0e
        E 1 b8 04 0f
        E 1 b8 04 10
        E 1 b8 04 12
        E 1 b8 04 13
        E 1 b8 04 14
        E 1 b8 04 15
        E 1 b8 04 16
        E 1 b8 04 18
        E 1 b8 04 19
        E 6 b8 04 0c
        E 6 b8 04 0d
        E 6 b8 04 0e
        E 6 b8 04 0e
        E 6 b8 04 0f
        E 6 b8 04 0f
        E 6 b8 04 10
        E 6 b8 04 11
        E 6 b8 04 11
        E 6 b8 04 12
        E 6 b8 04 12
        E 6 b8 04 13
        E 6 b8 04 13
        E 6 b8 04 14
        E 6 b8 04 14
        E 6 b8 04 15
        E 6 b8 04 15
        E 6 b8 04 16
        E 6 b8 04 16
        E 6 b8 04 17
        E 6 b8 04 17
        E 6 b8 04 17
        E 6 b8 04 18
        E 6 b8 04 18
        E 6 b8 04 18
        E 6 b8 04 18
        E 6 b8 04 18
        E 6 b8 04 19
        E 6 b8 04 19
        E 6 b8 04 19
        E 6 b8 04 19
        E 6 b8 04 19
        E 6 b8 04 19
        E 6 b8 04 19
        E 6 b8 04 19
        E 6 b8 04 19
        E 6 b8 04 19
        E 6 b8 04 19
        E 6 b8 04 18
        E 6 b8 04 18
        E 6 b8 04 18
        E 6 b8 04 18
        E 6 b8 04 17
        E 6 b8 04 17
        E 6 b8 04 17
        E 6 b8 04 16
        E 6 b8 04 16
        E 6 b8 04 16
        E 6 b8 04 15
        E 6 b8 04 15
        E 6 b8 04 14
        E 6 b8 04 14
        E 6 b8 04 13
        E 6 b8 04 13
        E 6 b8 04 12
        E 6 b8 04 11
        E 6 b8 04 11
        E 6 b8 04 10
        E 6 b8 04 10
        E 6 b8 04 0f
        E 6 b8 04 0e
        E 6 b8 04 0e
        E 6 b8 04 0d
        E 6 b8 04 0d
        E 6 b8 04 0c
        E 6 b8 04 0b
        E 6 b8 04 0b
        E 6 b8 04 0a
        E 6 b8 04 09
        E 6 b8 04 09
        E 6 b8 04 08
        E 6 b8 04 08
        E 6 b8 04 07
        E 6 b8 04 07
        E 6 b8 04 06
        E 6 b8 04 05
        E 6 b8 04 05
        E 6 b8 04 04
        E 6 b8 04 04
        E 6 b8 04 03
        E 6 b8 04 03
        E 6 b8 04 03
        E 6 b8 04 02
        E 6 b8 04 02
        E 6 b8 04 02
        E 6 b8 04 01
        E 6 b8 04 01
        E 6 b8 04 01
        E 6 b8 04 00
        E 6 b8 04 00
        E 6 b8 04 00
        E 6 b8 04 00
        E 6 b8 04 00
        E 6 b8 04 00
        E 6 b8 04 00
        E 6 b8 04 00
        E 6 b8 04 00
        E 6 b8 04 00
        E 6 b8 04 00
        E 6 b8 04 00
        E 6 b8 04 00
        E 6 b8 04 00
        E 6 b8 04 00
        E 6 b8 04 01
        E 6 b8 04 01
        E 6 b8 04 01
        E 6 b8 04 01
        E 6 b8 04 02
        E 6 b8 04 02
        E 6 b8 04 02
        E 6 b8 04 03
        E 6 b8 04 03
        E 6 b8 04 04
        E 6 b8 04 04
        E 6 b8 04 05
        E 6 b8 04 05
        E 6 b8 04 06
        E 6 b8 04 06
        E 6 b8 04 07
        E 6 b8 04 07
        E 6 b8 04 08
        E 6 b8 04 09
        E 6 b8 04 09
        E 6 b8 04 0a
        E 6 b8 04 0a
        E 6 b8 04 0b
        E 6 b8 04 0c
        E 6 b8 04 0c
        E 1 b8 04 40
        E 1 b8 04 43
        E 1 b8 04 46
        E 1 b8 04 49
        E 1 b8 04 4c
        E 1 b8 04 4f
        E 1 b8 04 52
        E 1 b8 04 55
        E 1 b8 04 58
        E 1 b8 04 5b
        E 1 b8 04 5e
        E 1 b8 04 60
        E 1 b8 04 63
        E 1 b8 04 66
        E 1 b8 04 68
        E 1 b8 04 6a
        E 1 b8 04 6d
        E 1 b8 04 6f
        E 1 b8 04 71
        E 1 b8 04 73
        E 1 b8 04 75
        E 1 b8 04 76
        E 1 b8 04 78
        E 1 b8 04 79
        E 1 b8 04 7a
        E 1 b8 04 7b
        E 1 b8 04 7c
        E 1 b8 04 7d
        E 1 b8 04 7e
        E 1 b8 04 7e
        E 1 b8 04 7f
        E 1 b8 04 7f
        E 1 b8 04 7f
        E 1 b8 04 7f
        E 1 b8 04 7f
        E 1 b8 04 7e
        E 1 b8 04 7e
        E 1 b8 04 7d
        E 1 b8 04 7c
        E 1 b8 04 7b
        E 1 b8 04 7a
        E 1 b8 04 78
        E 1 b8 04 77
        E 1 b8 04 75
        E 1 b8 04 74
        E 1 b8 04 72
        E 1 b8 04 70
        E 1 b8 04 6e
        E 1 b8 04 6c
        E 1 b8 04 69
        E 1 b8 04 67
        E 1 b8 04 64
        E 1 b8 04 62
        E 1 b8 04 5f
        E 1 b8 04 5c
        E 1 b8 04 59
        E 1 b8 04 57
        E 1 b8 04 54
        E 1 b8 04 51
        E 1 b8 04 4e
        E 1 b8 04 4a
        E 1 b8 04 47
        E 1 b8 04 44
        E 1 b8 04 41
        E 1 b8 04 3e
        E 1 b8 04 3b
        E 1 b8 04 38
        E 1 b8 04 35
        E 1 b8 04 31
        E 1 b8 04 2e
        E 1 b8 04 2b
        E 1 b8 04 28
        E 1 b8 04 26
        E 1 b8 04 23
        E 1 b8 04 20
        E 1 b8 04 1d
        E 1 b8 04 1b
        E 1 b8 04 18
        E 1 b8 04 16
        E 1 b8 04 13
        E 1 b8 04 11
        E 1 b8 04 0f
        E 1 b8 04 0d
        E 1 b8 04 0b
        E 1 b8 04 0a
        E 1 b8 04 08
        E 1 b8 04 07
        E 1 b8 04 05
        E 1 b8 04 04
        E 1 b8 04 03
        E 1 b8 04 02
        E 1 b8 04 01
        E 1 b8 04 01
        E 1 b8 04 00
        E 1 b8 04 00
        E 1 b8 04 00
        E 1 b8 04 00
        E 1 b8 04 00
        E 1 b8 04 01
        E 1 b8 04 01
        E 1 b8 04 02
        E 1 b8 04 03
        E 1 b8 04 04
        E 1 b8 04 05
        E 1 b8 04 06
        E 1 b8 04 07
        E 1 b8 04 09
        E 1 b8 04 0a
        E 1 b8 04 0c
        E 1 b8 04 0e
        E 1 b8 04 10
        E 1 b8 04 12
        E 1 b8 04 15
        E 1 b8 04 17
        E 1 b8 04 19
        E 1 b8 04 1c
        E 1 b8 04 1f
        E 1 b8 04 21
        E 1 b8 04 24
        E 1 b8 04 27
        E 1 b8 04 2a
        E 1 b8 04 2d
        E 1 b8 04 30
        E 1 b8 04 33
        E 1 b8 04 36
        E 1 b8 04 39
        E 1 b8 04 3c
        E 1 b8 04 40
        E 5 b8 04 06
        E 5 b8 04 06
        E 5 b8 04 07
        E 5 b8 04 07
        E 5 b8 04 07
        E 5 b8 04 07
        E 5 b8 04 08
        E 5 b8 04 08
        E 5 b8 04 08
        E 5 b8 04 09
        E 5 b8 04 09
        E 5 b8 04 09
        E 5 b8 04 09
        E 5 b8 04 0a
        E 5 b8 04 0a
        E 5 b8 04 0a
        E 5 b8 04 0a
        E 5 b8 04 0b
        E 5 b8 04 0b
        E 5 b8 04 0b
        E 5 b8 04 0b
        E 5 b8 04 0b
        E 5 b8 04 0c
        E 5 b8 04 0c
        E 5 b8 04 0c
        E 5 b8 04 0c
        E 5 b8 04 0c
        E 5 b8 04 0c
        E 5 b8 04 0c
        E 5 b8 04 0c
        E 5 b8 04 0c
        E 5 b8 04 0c
        E 5 b8 04 0c
        E 5 b8 04 0c
        E 5 b8 04 0c
        E 5 b8 04 0c
        E 5 b8 04 0c
        E 5 b8 04 0c
        E 5 b8 04 0c
        E 5 b8 04 0c
        E 5 b8 04 0c
        E 5 b8 04 0c
        E 5 b8 04 0b
        E 5 b8 04 0b
        E 5 b8 04 0b
        E 5 b8 04 0b
        E 5 b8 04 0b
        E 5 b8 04 0b
        E 5 b8 04 0a
        E 5 b8 04 0a
        E 5 b8 04 0a
        E 5 b8 04 0a
        E 5 b8 04 09
        E 5 b8 04 09
        E 5 b8 04 09
        E 5 b8 04 08
        E 5 b8 04 08
        E 5 b8 04 08
        E 5 b8 04 08
        E 5 b8 04 07
        E 5 b8 04 07
        E 5 b8 04 07
        E 5 b8 04 06
        E 5 b8 04 06
        E 5 b8 04 06
        E 5 b8 04 05
        E 5 b8 04 05
        E 5 b8 04 05
        E 5 b8 04 04
        E 5 b8 04 04
        E 5 b8 04 04
        E 5 b8 04 04
        E 5 b8 04 03
        E 5 b8 04 03
        E 5 b8 04 03
        E 5 b8 04 02
        E 5 b8 04 02
        E 5 b8 04 02
        E 5 b8 04 02
        E 5 b8 04 01
        E 5 b8 04 01
        E 5 b8 04 01
        E 5 b8 04 01
        E 5 b8 04 01
        E 5 b8 04 01
        E 5 b8 04 00
        E 5 b8 04 00
        E 5 b8 04 00
        E 5 b8 04 00
        E 5 b8 04 00
        E 5 b8 04 00
        E 5 b8 04 00
        E 5 b8 04 00
        E 5 b8 04 00
        E 5 b8 04 00
        E 5 b8 04 00
        E 5 b8 04 00
        E 5 b8 04 00
        E 5 b8 04 00
        E 5 b8 04 00
        E 5 b8 04 00
        E 5 b8 04 00
        E 5 b8 04 00
        E 5 b8 04 00
        E 5 b8 04 00
        E 5 b8 04 00
        E 5 b8 04 00
        E 5 b8 04 01
        E 5 b8 04 01
        E 5 b8 04 01
        E 5 b8 04 01
        E 5 b8 04 01
        E 5 b8 04 02
        E 5 b8 04 02
        E 5 b8 04 02
        E 5 b8 04 02
        E 5 b8 04 03
        E 5 b8 04 03
        E 5 b8 04 03
        E 5 b8 04 03
        E 5 b8 04 04
        E 5 b8 04 04
        E 5 b8 04 04
        E 5 b8 04 05
        E 5 b8 04 05
        E 5 b8 04 05
        E 5 b8 04 06
        E 5 b8 04 06
        E 3 b8 04 00
        E 3 b8 04 01
        E 3 b8 04 02
        E 3 b8 04 03
        E 3 b8 04 04
        E 3 b8 04 04
        E 3 b8 04 05
        E 3 b8 04 06
        E 3 b8 04 07
        E 3 b8 04 08
        E 3 b8 04 08
        E 3 b8 04 09
        E 3 b8 04 0a
        E 3 b8 04 0b
        E 3 b8 04 0c
        E 3 b8 04 0c
        E 3 b8 04 0d
        E 3 b8 04 0e
        E 3 b8 04 0f
        E 3 b8 04 10
        E 3 b8 04 10
        E 3 b8 04 11
        E 3 b8 04 12
        E 3 b8 04 13
        E 3 b8 04 14
        E 3 b8 04 14
        E 3 b8 04 15
        E 3 b8 04 16
        E 3 b8 04 17
        E 3 b8 04 18
        E 3 b8 04 18
        E 3 b8 04 19
        E 3 b8 04 1a
        E 3 b8 04 1b
        E 3 b8 04 1c
        E 3 b8 04 1c
        E 3 b8 04 1d
        E 3 b8 04 1e
        E 3 b8 04 1f
        E 3 b8 04 20
        E 3 b8 04 20
        E 3 b8 04 21
        E 3 b8 04 22
        E 3 b8 04 23
        E 3 b8 04 24
        E 3 b8 04 24
        E 3 b8 04 25
        E 3 b8 04 26
        E 3 b8 04 27
        E 3 b8 04 28
        E 3 b8 04 28
        E 3 b8 04 29
        E 3 b8 04 2a
        E 3 b8 04 2b
        E 3 b8 04 2c
        E 3 b8 04 2c
        E 3 b8 04 2d
        E 3 b8 04 2e
        E 3 b8 04 2f
        E 3 b8 04 30
        E 3 b8 04 30
        E 3 b8 04 31
        E 3 b8 04 32
        E 3 b8 04 32
        E 3 b8 04 32
        E 3 b8 04 31
        E 3 b8 04 30
        E 3 b8 04 30
        E 3 b8 04 2f
        E 3 b8 04 2e
        E 3 b8 04 2d
        E 3 b8 04 2c
        E 3 b8 04 2c
        E 3 b8 04 2b
        E 3 b8 04 2a
        E 3 b8 04 29
        E 3 b8 04 28
        E 3 b8 04 28
        E 3 b8 04 27
        E 3 b8 04 26
        E 3 b8 04 25
        E 3 b8 04 24
        E 3 b8 04 24
        E 3 b8 04 23
        E 3 b8 04 22
        E 3 b8 04 21
        E 3 b8 04 20
        E 3 b8 04 20
        E 3 b8 04 1f
        E 3 b8 04 1e
        E 3 b8 04 1d
        E 3 b8 04 1c
        E 3 b8 04 1c
        E 3 b8 04 1b
        E 3 b8 04 1a
        E 3 b8 04 19
        E 3 b8 04 18
        E 3 b8 04 18
        E 3 b8 04 17
        E 3 b8 04 16
        E 3 b8 04 15
        E 3 b8 04 14
        E 3 b8 04 14
        E 3 b8 04 13
        E 3 b8 04 12
        E 3 b8 04 11
        E 3 b8 04 10
        E 3 b8 04 10
        E 3 b8 04 0f
        E 3 b8 04 0e
        E 3 b8 04 0d
        E 3 b8 04 0c
        E 3 b8 04 0c
        E 3 b8 04 0b
        E 3 b8 04 0a
        E 3 b8 04 09
        E 3 b8 04 08
        E 3 b8 04 08
        E 3 b8 04 07
        E 3 b8 04 06
        E 3 b8 04 05
        E 3 b8 04 04
        E 3 b8 04 04
        E 3 b8 04 03
        E 3 b8 04 02
        E 3 b8 04 01
        E 3 b8 04 00
        E 3 b8 04 00
        E 17 b8 04 00
        E 17 b8 04 00
        E 17 b8 04 01
        E 17 b8 04 01
        E 17 b8 04 02
        E 17 b8 04 02
        E 17 b8 04 02
        E 17 b8 04 03
        E 17 b8 04 03
        E 17 b8 04 04
        E 17 b8 04 04
        E 17 b8 04 04
        E 17 b8 04 05
        E 17 b8 04 05
        E 17 b8 04 06
        E 17 b8 04 06
        E 17 b8 04 06
        E 17 b8 04 07
        E 17 b8 04 07
        E 17 b8 04 08
        E 17 b8 04 08
        E 17 b8 04 08
        E 17 b8 04 09
        E 17 b8 04 09
        E 17 b8 04 0a
        E 17 b8 04 0a
        E 17 b8 04 0a
        E 17 b8 04 0b
        E 17 b8 04 0b
        E 17 b8 04 0c
        E 17 b8 04 0c
        E 17 b8 04 0c
        E 17 b8 04 0d
        E 17 b8 04 0d
        E 17 b8 04 0e
        E 17 b8 04 0e
        E 17 b8 04 0e
        E 17 b8 04 0f
        E 17 b8 04 0f
        E 17 b8 04 10
        E 17 b8 04 10
        E 17 b8 04 10
        E 17 b8 04 11
        E 17 b8 04 11
        E 17 b8 04 12
        E 17 b8 04 12
        E 17 b8 04 12
        E 17 b8 04 13
        E 17 b8 04 13
        E 17 b8 04 14
        E 17 b8 04 14
        E 17 b8 04 14
        E 17 b8 04 15
        E 17 b8 04 15
        E 17 b8 04 16
        E 17 b8 04 16
        E 17 b8 04 16
        E 17 b8 04 17
        E 17 b8 04 17
        E 17 b8 04 18
        E 17 b8 04 18
        E 17 b8 04 18
        E 17 b8 04 19
        E 17 b8 04 19
        E 17 b8 04 19
        E 17 b8 04 18
        E 17 b8 04 18
        E 17 b8 04 18
        E 17 b8 04 17
        E 17 b8 04 17
        E 17 b8 04 16
        E 17 b8 04 16
        E 17 b8 04 16
        E 17 b8 04 15
        E 17 b8 04 15
        E 17 b8 04 14
        E 17 b8 04 14
        E 17 b8 04 14
        E 17 b8 04 13
        E 17 b8 04 13
        E 17 b8 04 12
        E 17 b8 04 12
        E 17 b8 04 12
        E 17 b8 04 11
        E 17 b8 04 11
        E 17 b8 04 10
        E 17 b8 04 10
        E 17 b8 04 10
        E 17 b8 04 0f
        E 17 b8 04 0f
        E 17 b8 04 0e
        E 17 b8 04 0e
        E 17 b8 04 0e
        E 17 b8 04 0d
        E 17 b8 04 0d
        E 17 b8 04 0c
        E 17 b8 04 0c
        E 17 b8 04 0c
        E 17 b8 04 0b
        E 17 b8 04 0b
        E 17 b8 04 0a
        E 17 b8 04 0a
        E 17 b8 04 0a
        E 17 b8 04 09
        E 17 b8 04 09
        E 17 b8 04 08
        E 17 b8 04 08
        E 17 b8 04 08
        E 17 b8 04 07
        E 17 b8 04 07
        E 17 b8 04 06
        E 17 b8 04 06
        E 17 b8 04 06
        E 17 b8 04 05
        E 17 b8 04 05
        E 17 b8 04 04
        E 17 b8 04 04
        E 17 b8 04 04
        E 17 b8 04 03
        E 17 b8 04 03
        E 17 b8 04 02
        E 17 b8 04 02
        E 17 b8 04 02
        E 17 b8 04 01
        E 17 b8 04 01
        E 17 b8 04 00
        E 17 b8 04 00
        E 17 b8 04 00
        E 4 b8 04 02
        E 4 b8 04 04
        E 4 b8 04 06
        E 4 b8 04 08
        E 4 b8 04 0a
        E 4 b8 04 0c
        E 4 b8 04 0e
        E 4 b8 04 10
        E 4 b8 04 12
        E 4 b8 04 14
        E 4 b8 04 16
        E 4 b8 04 18
        E 4 b8 04 1a
        E 4 b8 04 1c
        E 4 b8 04 1e
        E 4 b8 04 20
        E 4 b8 04 22
        E 4 b8 04 24
        E 4 b8 04 26
        E 4 b8 04 28
        E 4 b8 04 2a
        E 4 b8 04 2c
        E 4 b8 04 2e
        E 4 b8 04 30
        E 4 b8 04 32
        E 4 b8 04 34
        E 4 b8 04 36
        E 4 b8 04 38
        E 4 b8 04 3a
        E 4 b8 04 3c
        E 4 b8 04 3e
        E 4 b8 04 40
        E 4 b8 04 42
        E 4 b8 04 44
        E 4 b8 04 46
        E 4 b8 04 48
        E 4 b8 04 4a
        E 4 b8 04 4c
        E 4 b8 04 4e
        E 4 b8 04 50
        E 4 b8 04 52
        E 4 b8 04 54
        E 4 b8 04 56
        E 4 b8 04 58
        E 4 b8 04 5a
        E 4 b8 04 5c
        E 4 b8 04 5e
        E 4 b8 04 60
        E 4 b8 04 62
        E 4 b8 04 64
        E 4 b8 04 66
        E 4 b8 04 68
        E 4 b8 04 6a
        E 4 b8 04 6c
        E 4 b8 04 6e
        E 4 b8 04 70
        E 4 b8 04 72
        E 4 b8 04 74
        E 4 b8 04 76
        E 4 b8 04 78
        E 4 b8 04 7a
        E 4 b8 04 7c
        E 4 b8 04 7e
        E 4 b8 04 7f
        E 4 b8 04 7e
        E 4 b8 04 7c
        E 4 b8 04 7a
        E 4 b8 04 78
        E 4 b8 04 76
        E 4 b8 04 74
        E 4 b8 04 72
        E 4 b8 04 70
        E 4 b8 04 6e
        E 4 b8 04 6c
        E 4 b8 04 6a
        E 4 b8 04 68
        E 4 b8 04 66
        E 4 b8 04 64
        E 4 b8 04 62
        E 4 b8 04 60
        E 4 b8 04 5e
        E 4 b8 04 5c
        E 4 b8 04 5a
        E 4 b8 04 58
        E 4 b8 04 56
        E 4 b8 04 54
        E 4 b8 04 52
        E 4 b8 04 50
        E 4 b8 04 4e
        E 4 b8 04 4c
        E 4 b8 04 4a
        E 4 b8 04 48
        E 4 b8 04 46
        E 4 b8 04 44
        E 4 b8 04 42
        E 4 b8 04 40
        E 4 b8 04 3e
        E 4 b8 04 3c
        E 4 b8 04 3a
        E 4 b8 04 38
        E 4 b8 04 36
        E 4 b8 04 34
        E 4 b8 04 32
        E 4 b8 04 30
        E 4 b8 04 2e
        E 4 b8 04 2c
        E 4 b8 04 2a
        E 4 b8 04 28
        E 4 b8 04 26
        E 4 b8 04 24
        E 4 b8 04 22
        E 4 b8 04 20
        E 4 b8 04 1e
        E 4 b8 04 1c
        E 4 b8 04 1a
        E 4 b8 04 18
        E 4 b8 04 16
        E 4 b8 04 14
        E 4 b8 04 12
        E 4 b8 04 10
        E 4 b8 04 0e
        E 4 b8 04 0c
        E 4 b8 04 0a
        E 4 b8 04 08
        E 4 b8 04 06
        E 4 b8 04 04
        E 4 b8 04 02
        E 4 b8 04 00
        E 5 b8 04 00
        E 5 b8 04 00
        E 5 b8 04 00
        E 5 b8 04 00
        E 5 b8 04 01
        E 5 b8 04 01
        E 5 b8 04 01
        E 5 b8 04 01
        E 5 b8 04 01
        E 5 b8 04 02
        E 5 b8 04 02
        E 5 b8 04 02
        E 5 b8 04 02
        E 5 b8 04 02
        E 5 b8 04 03
        E 5 b8 04 03
        E 5 b8 04 03
        E 5 b8 04 03
        E 5 b8 04 03
        E 5 b8 04 04
        E 5 b8 04 04
        E 5 b8 04 04
        E 5 b8 04 04
        E 5 b8 04 04
        E 5 b8 04 05
        E 5 b8 04 05
        E 5 b8 04 05
        E 5 b8 04 05
        E 5 b8 04 05
        E 5 b8 04 06
        E 5 b8 04 06
        E 5 b8 04 06
        E 5 b8 04 06
        E 5 b8 04 06
        E 5 b8 04 07
        E 5 b8 04 07
        E 5 b8 04 07
        E 5 b8 04 07
        E 5 b8 04 07
        E 5 b8 04 08
        E 5 b8 04 08
        E 5 b8 04 08
        E 5 b8 04 08
        E 5 b8 04 08
        E 5 b8 04 09
        E 5 b8 04 09
        E 5 b8 04 09
        E 5 b8 04 09
        E 5 b8 04 09
        E 5 b8 04 0a
        E 5 b8 04 0a
        E 5 b8 04 0a
        E 5 b8 04 0a
        E 5 b8 04 0a
        E 5 b8 04 0b
        E 5 b8 04 0b
        E 5 b8 04 0b
        E 5 b8 04 0b
        E 5 b8 04 0b
        E 5 b8 04 0c
        E 5 b8 04 0c
        E 5 b8 04 0c
        E 5 b8 04 0c
        E 5 b8 04 0c
        E 5 b8 04 0c
        E 5 b8 04 0c
        E 5 b8 04 0c
        E 5 b8 04 0c
        E 5 b8 04 0b
        E 5 b8 04 0b
        E 5 b8 04 0b
        E 5 b8 04 0b
        E 5 b8 04 0b
        E 5 b8 04 0a
        E 5 b8 04 0a
        E 5 b8 04 0a
        E 5 b8 04 0a
        E 5 b8 04 0a
        E 5 b8 04 09
        E 5 b8 04 09
        E 5 b8 04 09
        E 5 b8 04 09
        E 5 b8 04 09
        E 5 b8 04 08
        E 5 b8 04 08
        E 5 b8 04 08
        E 5 b8 04 08
        E 5 b8 04 08
        E 5 b8 04 07
        E 5 b8 04 07
        E 5 b8 04 07
        E 5 b8 04 07
        E 5 b8 04 07
        E 5 b8 04 06
        E 5 b8 04 06
        E 5 b8 04 06
        E 5 b8 04 06
        E 5 b8 04 06
        E 5 b8 04 05
        E 5 b8 04 05
        E 5 b8 04 05
        E 5 b8 04 05
        E 5 b8 04 05
        E 5 b8 04 04
        E 5 b8 04 04
        E 5 b8 04 04
        E 5 b8 04 04
        E 5 b8 04 04
        E 5 b8 04 03
        E 5 b8 04 03
        E 5 b8 04 03
        E 5 b8 04 03
        E 5 b8 04 03
        E 5 b8 04 02
        E 5 b8 04 02
        E 5 b8 04 02
        E 5 b8 04 02
        E 5 b8 04 02
        E 5 b8 04 01
        E 5 b8 04 01
        E 5 b8 04 01
        E 5 b8 04 01
        E 5 b8 04 01
        E 5 b8 04 00
        E 5 b8 04 00
        E 5 b8 04 00
        E 5 b8 04 00
        E 5 b8 04 00
        E 1 b8 04 1c
        E 1 b8 04 60
        E 1 b8 04 3f
        E 1 b8 04 0a
        E 1 b8 04 5a
        E 1 b8 04 50
        E 1 b8 04 0c
        E 1 b8 04 0b
        E 1 b8 04 3d
        E 1 b8 04 78
        E 1 b8 04 65
        E 1 b8 04 6f
        E 1 b8 04 4f
        E 1 b8 04 0e
        E 1 b8 04 18
        E 1 b8 04 56
        E 1 b8 04 46
        E 1 b8 04 24
        E 1 b8 04 19
        E 1 b8 04 22
        E 1 b8 04 63
        E 1 b8 04 3b
        E 1 b8 04 1e
        E 1 b8 04 49
        E 1 b8 04 7e
        E 1 b8 04 00
        E 1 b8 04 10
        E 1 b8 04 34
        E 1 b8 04 2b
        E 1 b8 04 68
        E 1 b8 04 1b
        E 1 b8 04 08
        E 1 b8 04 14
        E 1 b8 04 16
        E 1 b8 04 73
        E 1 b8 04 20
        E 1 b8 04 01
        E 1 b8 04 5e
        E 1 b8 04 2c
        E 1 b8 04 1a
        E 1 b8 04 32
        E 1 b8 04 21
        E 1 b8 04 6c
        E 1 b8 04 6b
        E 1 b8 04 7f
        E 1 b8 04 6a
        E 1 b8 04 37
        E 1 b8 04 76
        E 1 b8 04 5b
        E 1 b8 04 0f
        E 1 b8 04 38
        E 1 b8 04 44
        E 1 b8 04 79
        E 1 b8 04 61
        E 1 b8 04 45
        E 1 b8 04 47
        E 1 b8 04 06
        E 1 b8 04 0d
        E 1 b8 04 75
        E 1 b8 04 66
        E 1 b8 04 36
        E 1 b8 04 28
        E 1 b8 04 11
        E 1 b8 04 39
        E 1 b8 04 26
        E 1 b8 04 1f
        E 1 b8 04 30
        E 1 b8 04 42
        E 1 b8 04 4d
        E 1 b8 04 52
        E 1 b8 04 15
        E 1 b8 04 4c
        E 1 b8 04 71
        E 1 b8 04 41
        E 1 b8 04 4a
        E 1 b8 04 03
        E 1 b8 04 09
        E 1 b8 04 7d
        E 1 b8 04 53
        E 1 b8 04 17
        E 1 b8 04 74
        E 1 b8 04 29
        E 1 b8 04 31
        E 1 b8 04 3e
        E 1 b8 04 33
        E 1 b8 04 55
        E 1 b8 04 67
        E 1 b8 04 25
        E 1 b8 04 48
        E 1 b8 04 1d
        E 1 b8 04 72
        E 1 b8 04 69
        E 1 b8 04 3a
        E 1 b8 04 2e
        E 1 b8 04 64
        E 1 b8 04 2f
        E 1 b8 04 59
        E 1 b8 04 12
        E 1 b8 04 02
        E 1 b8 04 2a
        E 1 b8 04 40
        E 1 b8 04 6d
        E 1 b8 04 62
        E 1 b8 04 04
        E 1 b8 04 6e
        E 1 b8 04 5d
        E 1 b8 04 07
        E 1 b8 04 27
        E 1 b8 04 4b
        E 1 b8 04 5f
        E 1 b8 04 7a
        E 1 b8 04 4e
        E 1 b8 04 35
        E 1 b8 04 23
        E 1 b8 04 58
        E 1 b8 04 5c
        E 1 b8 04 70
        E 1 b8 04 7c
        E 1 b8 04 3c
        E 1 b8 04 51
        E 1 b8 04 57
        E 1 b8 04 43
        E 1 b8 04 77
        E 1 b8 04 13
        E 1 b8 04 2d
        E 1 b8 04 54
        E 4 b8 04 02
        E 4 b8 04 09
        E 4 b8 04 06
        E 4 b8 04 01
        E 4 b8 04 09
        E 4 b8 04 08
        E 4 b8 04 01
        E 4 b8 04 01
        E 4 b8 04 06
        E 4 b8 04 0c
        E 4 b8 04 0a
        E 4 b8 04 0b
        E 4 b8 04 07
        E 4 b8 04 01
        E 4 b8 04 02
        E 4 b8 04 08
        E 4 b8 04 07
        E 4 b8 04 03
        E 4 b8 04 02
        E 4 b8 04 03
        E 4 b8 04 09
        E 4 b8 04 05
        E 4 b8 04 03
        E 4 b8 04 07
        E 4 b8 04 0c
        E 4 b8 04 00
        E 4 b8 04 01
        E 4 b8 04 05
        E 4 b8 04 04
        E 4 b8 04 0a
        E 4 b8 04 02
        E 4 b8 04 00
        E 4 b8 04 02
        E 4 b8 04 02
        E 4 b8 04 0b
        E 4 b8 04 03
        E 4 b8 04 00
        E 4 b8 04 09
        E 4 b8 04 04
        E 4 b8 04 02
        E 4 b8 04 05
        E 4 b8 04 03
        E 4 b8 04 0a
        E 4 b8 04 0a
        E 4 b8 04 0c
        E 4 b8 04 0a
        E 4 b8 04 05
        E 4 b8 04 0b
        E 4 b8 04 09
        E 4 b8 04 01
        E 4 b8 04 05
        E 4 b8 04 06
        E 4 b8 04 0c
        E 4 b8 04 09
        E 4 b8 04 06
        E 4 b8 04 07
        E 4 b8 04 00
        E 4 b8 04 01
        E 4 b8 04 0b
        E 4 b8 04 0a
        E 4 b8 04 05
        E 4 b8 04 04
        E 4 b8 04 01
        E 4 b8 04 05
        E 4 b8 04 03
        E 4 b8 04 03
        E 4 b8 04 04
        E 4 b8 04 06
        E 4 b8 04 07
        E 4 b8 04 08
        E 4 b8 04 02
        E 4 b8 04 07
        E 4 b8 04 0b
        E 4 b8 04 06
        E 4 b8 04 07
        E 4 b8 04 00
        E 4 b8 04 00
        E 4 b8 04 0c
        E 4 b8 04 08
        E 4 b8 04 02
        E 4 b8 04 0b
        E 4 b8 04 04
        E 4 b8 04 04
        E 4 b8 04 06
        E 4 b8 04 05
        E 4 b8 04 08
        E 4 b8 04 0a
        E 4 b8 04 03
        E 4 b8 04 07
        E 4 b8 04 02
        E 4 b8 04 0b
        E 4 b8 04 0a
        E 4 b8 04 05
        E 4 b8 04 04
        E 4 b8 04 0a
        E 4 b8 04 04
        E 4 b8 04 08
        E 4 b8 04 01
        E 4 b8 04 00
        E 4 b8 04 04
        E 4 b8 04 06
        E 4 b8 04 0a
        E 4 b8 04 09
        E 4 b8 04 00
        E 4 b8 04 0b
        E 4 b8 04 09
        E 4 b8 04 00
        E 4 b8 04 03
        E 4 b8 04 07
        E 4 b8 04 09
        E 4 b8 04 0c
        E 4 b8 04 07
        E 4 b8 04 05
        E 4 b8 04 03
        E 4 b8 04 08
        E 4 b8 04 09
        E 4 b8 04 0b
        E 4 b8 04 0c
        E 4 b8 04 06
        E 4 b8 04 08
        E 4 b8 04 08
        E 4 b8 04 06
        E 4 b8 04 0b
        E 4 b8 04 01
        E 4 b8 04 04
        E 4 b8 04 08
        E 4 b8 04 1c
        E 4 b8 04 60
        E 4 b8 04 3f
        E 4 b8 04 0a
        E 4 b8 04 5a
        E 4 b8 04 50
        E 4 b8 04 0c
        E 4 b8 04 0b
        E 4 b8 04 3d
        E 4 b8 04 78
        E 4 b8 04 65
        E 4 b8 04 6f
        E 4 b8 04 4f
        E 4 b8 04 0e
        E 4 b8 04 18
        E 4 b8 04 56
        E 4 b8 04 46
        E 4 b8 04 24
        E 4 b8 04 19
        E 4 b8 04 22
        E 4 b8 04 63
        E 4 b8 04 3b
        E 4 b8 04 1e
        E 4 b8 04 49
        E 4 b8 04 7e
        E 4 b8 04 00
        E 4 b8 04 10
        E 4 b8 04 34
        E 4 b8 04 2b
        E 4 b8 04 68
        E 4 b8 04 1b
        E 4 b8 04 08
        E 4 b8 04 14
        E 4 b8 04 16
        E 4 b8 04 73
        E 4 b8 04 20
        E 4 b8 04 01
        E 4 b8 04 5e
        E 4 b8 04 2c
        E 4 b8 04 1a
        E 4 b8 04 32
        E 4 b8 04 21
        E 4 b8 04 6c
        E 4 b8 04 6b
        E 4 b8 04 7f
        E 4 b8 04 6a
        E 4 b8 04 37
        E 4 b8 04 76
        E 4 b8 04 5b
        E 4 b8 04 0f
        E 4 b8 04 38
        E 4 b8 04 44
        E 4 b8 04 79
        E 4 b8 04 61
        E 4 b8 04 45
        E 4 b8 04 47
        E 4 b8 04 06
        E 4 b8 04 0d
        E 4 b8 04 75
        E 4 b8 04 66
        E 4 b8 04 36
        E 4 b8 04 28
        E 4 b8 04 11
        E 4 b8 04 39
        E 4 b8 04 26
        E 4 b8 04 1f
        E 4 b8 04 30
        E 4 b8 04 42
        E 4 b8 04 4d
        E 4 b8 04 52
        E 4 b8 04 15
        E 4 b8 04 4c
        E 4 b8 04 71
        E 4 b8 04 41
        E 4 b8 04 4a
        E 4 b8 04 03
        E 4 b8 04 09
        E 4 b8 04 7d
        E 4 b8 04 53
        E 4 b8 04 17
        E 4 b8 04 74
        E 4 b8 04 29
        E 4 b8 04 31
        E 4 b8 04 3e
        E 4 b8 04 33
        E 4 b8 04 55
        E 4 b8 04 67
        E 4 b8 04 25
        E 4 b8 04 48
        E 4 b8 04 1d
        E 4 b8 04 72
        E 4 b8 04 69
        E 4 b8 04 3a
        E 4 b8 04 2e
        E 4 b8 04 64
        E 4 b8 04 2f
        E 4 b8 04 59
        E 4 b8 04 12
        E 4 b8 04 02
        E 4 b8 04 2a
        E 4 b8 04 40
        E 4 b8 04 6d
        E 4 b8 04 62
        E 4 b8 04 04
        E 4 b8 04 6e
        E 4 b8 04 5d
        E 4 b8 04 07
        E 4 b8 04 27
        E 4 b8 04 4b
        E 4 b8 04 5f
        E 4 b8 04 7a
        E 4 b8 04 4e
        E 4 b8 04 35
        E 4 b8 04 23
        E 4 b8 04 58
        E 4 b8 04 5c
        E 4 b8 04 70
        E 4 b8 04 7c
        E 4 b8 04 3c
        E 4 b8 04 51
        E 4 b8 04 57
        E 4 b8 04 43
        E 4 b8 04 77
        E 4 b8 04 13
        E 4 b8 04 2d
        E 4 b8 04 54
        E 5 b8 04 02
        E 5 b8 04 09
        E 5 b8 04 06
        E 5 b8 04 01
        E 5 b8 04 09
        E 5 b8 04 08
        E 5 b8 04 01
        E 5 b8 04 01
        E 5 b8 04 06
        E 5 b8 04 0c
        E 5 b8 04 0a
        E 5 b8 04 0b
        E 5 b8 04 07
        E 5 b8 04 01
        E 5 b8 04 02
        E 5 b8 04 08
        E 5 b8 04 07
        E 5 b8 04 03
        E 5 b8 04 02
        E 5 b8 04 03
        E 5 b8 04 09
        E 5 b8 04 05
        E 5 b8 04 03
        E 5 b8 04 07
        E 5 b8 04 0c
        E 5 b8 04 00
        E 5 b8 04 01
        E 5 b8 04 05
        E 5 b8 04 04
        E 5 b8 04 0a
        E 5 b8 04 02
        E 5 b8 04 00
        E 5 b8 04 02
        E 5 b8 04 02
        E 5 b8 04 0b
        E 5 b8 04 03
        E 5 b8 04 00
        E 5 b8 04 09
        E 5 b8 04 04
        E 5 b8 04 02
        E 5 b8 04 05
        E 5 b8 04 03
        E 5 b8 04 0a
        E 5 b8 04 0a
        E 5 b8 04 0c
        E 5 b8 04 0a
        E 5 b8 04 05
        E 5 b8 04 0b
        E 5 b8 04 09
        E 5 b8 04 01
        E 5 b8 04 05
        E 5 b8 04 06
        E 5 b8 04 0c
        E 5 b8 04 09
        E 5 b8 04 06
        E 5 b8 04 07
        E 5 b8 04 00
        E 5 b8 04 01
        E 5 b8 04 0b
        E 5 b8 04 0a
        E 5 b8 04 05
        E 5 b8 04 04
        E 5 b8 04 01
        E 5 b8 04 05
        E 5 b8 04 03
        E 5 b8 04 03
        E 5 b8 04 04
        E 5 b8 04 06
        E 5 b8 04 07
        E 5 b8 04 08
        E 5 b8 04 02
        E 5 b8 04 07
        E 5 b8 04 0b
        E 5 b8 04 06
        E 5 b8 04 07
        E 5 b8 04 00
        E 5 b8 04 00
        E 5 b8 04 0c
        E 5 b8 04 08
        E 5 b8 04 02
        E 5 b8 04 0b
        E 5 b8 04 04
        E 5 b8 04 04
        E 5 b8 04 06
        E 5 b8 04 05
        E 5 b8 04 08
        E 5 b8 04 0a
        E 5 b8 04 03
        E 5 b8 04 07
        E 5 b8 04 02
        E 5 b8 04 0b
        E 5 b8 04 0a
        E 5 b8 04 05
        E 5 b8 04 04
        E 5 b8 04 0a
        E 5 b8 04 04
        E 5 b8 04 08
        E 5 b8 04 01
        E 5 b8 04 00
        E 5 b8 04 04
        E 5 b8 04 06
        E 5 b8 04 0a
        E 5 b8 04 09
        E 5 b8 04 00
        E 5 b8 04 0b
        E 5 b8 04 09
        E 5 b8 04 00
        E 5 b8 04 03
        E 5 b8 04 07
        E 5 b8 04 09
        E 5 b8 04 0c
        E 5 b8 04 07
        E 5 b8 04 05
        E 5 b8 04 03
        E 5 b8 04 08
        E 5 b8 04 09
        E 5 b8 04 0b
        E 5 b8 04 0c
        E 5 b8 04 06
        E 5 b8 04 08
        E 5 b8 04 08
        E 5 b8 04 06
        E 5 b8 04 0b
        E 5 b8 04 01
        E 5 b8 04 04
        E 5 b8 04 08
        E 1 b8 04 1c
        E 1 b8 04 60
        E 1 b8 04 3f
        E 1 b8 04 0a
        E 1 b8 04 5a
        E 1 b8 04 50
        E 1 b8 04 0c
        E 1 b8 04 0b
        E 1 b8 04 3d
        E 1 b8 04 78
        E 1 b8 04 65
        E 1 b8 04 6f
        E 1 b8 04 4f
        E 1 b8 04 0e
        E 1 b8 04 18
        E 1 b8 04 56
        E 1 b8 04 46
        E 1 b8 04 24
        E 1 b8 04 19
        E 1 b8 04 22
        E 1 b8 04 63
        E 1 b8 04 3b
        E 1 b8 04 1e
        E 1 b8 04 49
        E 1 b8 04 7e
        E 1 b8 04 00
        E 1 b8 04 10
        E 1 b8 04 34
        E 1 b8 04 2b
        E 1 b8 04 68
        E 1 b8 04 1b
        E 1 b8 04 08
        E 1 b8 04 14
        E 1 b8 04 16
        E 1 b8 04 73
        E 1 b8 04 20
        E 1 b8 04 01
        E 1 b8 04 5e
        E 1 b8 04 2c
        E 1 b8 04 1a
        E 1 b8 04 32
        E 1 b8 04 21
        E 1 b8 04 6c
        E 1 b8 04 6b
        E 1 b8 04 7f
        E 1 b8 04 6a
        E 1 b8 04 37
        E 1 b8 04 76
        E 1 b8 04 5b
        E 1 b8 04 0f
        E 1 b8 04 38
        E 1 b8 04 44
        E 1 b8 04 79
        E 1 b8 04 61
        E 1 b8 04 45
        E 1 b8 04 47
        E 1 b8 04 06
        E 1 b8 04 0d
        E 1 b8 04 75
        E 1 b8 04 66
        E 1 b8 04 36
        E 1 b8 04 28
        E 1 b8 04 11
        E 1 b8 04 39
        E 1 b8 04 26
        E 1 b8 04 1f
        E 1 b8 04 30
        E 1 b8 04 42
        E 1 b8 04 4d
        E 1 b8 04 52
        E 1 b8 04 15
        E 1 b8 04 4c
        E 1 b8 04 71
        E 1 b8 04 41
        E 1 b8 04 4a
        E 1 b8 04 03
        E 1 b8 04 09
        E 1 b8 04 7d
        E 1 b8 04 53
        E 1 b8 04 17
        E 1 b8 04 74
        E 1 b8 04 29
        E 1 b8 04 31
        E 1 b8 04 3e
        E 1 b8 04 33
        E 1 b8 04 55
        E 1 b8 04 67
        E 1 b8 04 25
        E 1 b8 04 48
        E 1 b8 04 1d
        E 1 b8 04 72
        E 1 b8 04 69
        E 1 b8 04 3a
        E 1 b8 04 2e
        E 1 b8 04 64
        E 1 b8 04 2f
        E 1 b8 04 59
        E 1 b8 04 12
        E 1 b8 04 02
        E 1 b8 04 2a
        E 1 b8 04 40
        E 1 b8 04 6d
        E 1 b8 04 62
        E 1 b8 04 04
        E 1 b8 04 6e
        E 1 b8 04 5d
        E 1 b8 04 07
        E 1 b8 04 27
        E 1 b8 04 4b
        E 1 b8 04 5f
        E 1 b8 04 7a
        E 1 b8 04 4e
        E 1 b8 04 35
        E 1 b8 04 23
        E 1 b8 04 58
        E 1 b8 04 5c
        E 1 b8 04 70
        E 1 b8 04 7c
        E 1 b8 04 3c
        E 1 b8 04 51
        E 1 b8 04 57
        E 1 b8 04 43
        E 1 b8 04 77
        E 1 b8 04 13
        E 1 b8 04 2d
        E 1 b8 04 54
        E 4 b8 04 02
        E 4 b8 04 09
        E 4 b8 04 06
        E 4 b8 04 01
        E 4 b8 04 09
        E 4 b8 04 08
        E 4 b8 04 01
        E 4 b8 04 01
        E 4 b8 04 06
        E 4 b8 04 0c
        E 4 b8 04 0a
        E 4 b8 04 0b
        E 4 b8 04 07
        E 4 b8 04 01
        E 4 b8 04 02
        E 4 b8 04 08
        E 4 b8 04 07
        E 4 b8 04 03
        E 4 b8 04 02
        E 4 b8 04 03
        E 4 b8 04 09
        E 4 b8 04 05
        E 4 b8 04 03
        E 4 b8 04 07
        E 4 b8 04 0c
        E 4 b8 04 00
        E 4 b8 04 01
        E 4 b8 04 05
        E 4 b8 04 04
        E 4 b8 04 0a
        E 4 b8 04 02
        E 4 b8 04 00
        E 4 b8 04 02
        E 4 b8 04 02
        E 4 b8 04 0b
        E 4 b8 04 03
        E 4 b8 04 00
        E 4 b8 04 09
        E 4 b8 04 04
        E 4 b8 04 02
        E 4 b8 04 05
        E 4 b8 04 03
        E 4 b8 04 0a
        E 4 b8 04 0a
        E 4 b8 04 0c
        E 4 b8 04 0a
        E 4 b8 04 05
        E 4 b8 04 0b
        E 4 b8 04 09
        E 4 b8 04 01
        E 4 b8 04 05
        E 4 b8 04 06
        E 4 b8 04 0c
        E 4 b8 04 09
        E 4 b8 04 06
        E 4 b8 04 07
        E 4 b8 04 00
        E 4 b8 04 01
        E 4 b8 04 0b
        E 4 b8 04 0a
        E 4 b8 04 05
        E 4 b8 04 04
        E 4 b8 04 01
        E 4 b8 04 05
        E 4 b8 04 03
        E 4 b8 04 03
        E 4 b8 04 04
        E 4 b8 04 06
        E 4 b8 04 07
        E 4 b8 04 08
        E 4 b8 04 02
        E 4 b8 04 07
        E 4 b8 04 0b
        E 4 b8 04 06
        E 4 b8 04 07
        E 4 b8 04 00
        E 4 b8 04 00
        E 4 b8 04 0c
        E 4 b8 04 08
        E 4 b8 04 02
        E 4 b8 04 0b
        E 4 b8 04 04
        E 4 b8 04 04
        E 4 b8 04 06
        E 4 b8 04 05
        E 4 b8 04 08
        E 4 b8 04 0a
        E 4 b8 04 03
        E 4 b8 04 07
        E 4 b8 04 02
        E 4 b8 04 0b
        E 4 b8 04 0a
        E 4 b8 04 05
        E 4 b8 04 04
        E 4 b8 04 0a
        E 4 b8 04 04
        E 4 b8 04 08
        E 4 b8 04 01
        E 4 b8 04 00
        E 4 b8 04 04
        E 4 b8 04 06
        E 4 b8 04 0a
        E 4 b8 04 09
        E 4 b8 04 00
        E 4 b8 04 0b
        E 4 b8 04 09
        E 4 b8 04 00
        E 4 b8 04 03
        E 4 b8 04 07
        E 4 b8 04 09
        E 4 b8 04 0c
        E 4 b8 04 07
        E 4 b8 04 05
        E 4 b8 04 03
        E 4 b8 04 08
        E 4 b8 04 09
        E 4 b8 04 0b
        E 4 b8 04 0c
        E 4 b8 04 06
        E 4 b8 04 08
        E 4 b8 04 08
        E 4 b8 04 06
        E 4 b8 04 0b
        E 4 b8 04 01
        E 4 b8 04 04
        E 4 b8 04 08
        E 4 b8 04 1c
        E 4 b8 04 60
        E 4 b8 04 3f
        E 4 b8 04 0a
        E 4 b8 04 5a
        E 4 b8 04 50
        E 4 b8 04 0c
        E 4 b8 04 0b
        E 4 b8 04 3d
        E 4 b8 04 78
        E 4 b8 04 65
        E 4 b8 04 6f
        E 4 b8 04 4f
        E 4 b8 04 0e
        E 4 b8 04 18
        E 4 b8 04 56
        E 4 b8 04 46
        E 4 b8 04 24
        E 4 b8 04 19
        E 4 b8 04 22
        E 4 b8 04 63
        E 4 b8 04 3b
        E 4 b8 04 1e
        E 4 b8 04 49
        E 4 b8 04 7e
        E 4 b8 04 00
        E 4 b8 04 10
        E 4 b8 04 34
        E 4 b8 04 2b
        E 4 b8 04 68
        E 4 b8 04 1b
        E 4 b8 04 08
        E 4 b8 04 14
        E 4 b8 04 16
        E 4 b8 04 73
        E 4 b8 04 20
        E 4 b8 04 01
        E 4 b8 04 5e
        E 4 b8 04 2c
        E 4 b8 04 1a
        E 4 b8 04 32
        E 4 b8 04 21
        E 4 b8 04 6c
        E 4 b8 04 6b
        E 4 b8 04 7f
        E 4 b8 04 6a
        E 4 b8 04 37
        E 4 b8 04 76
        E 4 b8 04 5b
        E 4 b8 04 0f
        E 4 b8 04 38
        E 4 b8 04 44
        E 4 b8 04 79
        E 4 b8 04 61
        E 4 b8 04 45
        E 4 b8 04 47
        E 4 b8 04 06
        E 4 b8 04 0d
        E 4 b8 04 75
        E 4 b8 04 66
        E 4 b8 04 36
        E 4 b8 04 28
        E 4 b8 04 11
        E 4 b8 04 39
        E 4 b8 04 26
        E 4 b8 04 1f
        E 4 b8 04 30
        E 4 b8 04 42
        E 4 b8 04 4d
        E 4 b8 04 52
        E 4 b8 04 15
        E 4 b8 04 4c
        E 4 b8 04 71
        E 4 b8 04 41
        E 4 b8 04 4a
        E 4 b8 04 03
        E 4 b8 04 09
        E 4 b8 04 7d
        E 4 b8 04 53
        E 4 b8 04 17
        E 4 b8 04 74
        E 4 b8 04 29
        E 4 b8 04 31
        E 4 b8 04 3e
        E 4 b8 04 33
        E 4 b8 04 55
        E 4 b8 04 67
        E 4 b8 04 25
        E 4 b8 04 48
        E 4 b8 04 1d
        E 4 b8 04 72
        E 4 b8 04 69
        E 4 b8 04 3a
        E 4 b8 04 2e
        E 4 b8 04 64
        E 4 b8 04 2f
        E 4 b8 04 59
        E 4 b8 04 12
        E 4 b8 04 02
        E 4 b8 04 2a
        E 4 b8 04 40
        E 4 b8 04 6d
        E 4 b8 04 62
        E 4 b8 04 04
        E 4 b8 04 6e
        E 4 b8 04 5d
        E 4 b8 04 07
        E 4 b8 04 27
        E 4 b8 04 4b
        E 4 b8 04 5f
        E 4 b8 04 7a
        E 4 b8 04 4e
        E 4 b8 04 35
        E 4 b8 04 23
        E 4 b8 04 58
        E 4 b8 04 5c
        E 4 b8 04 70
        E 4 b8 04 7c
        E 4 b8 04 3c
        E 4 b8 04 51
        E 4 b8 04 57
        E 4 b8 04 43
        E 4 b8 04 77
        E 4 b8 04 13
        E 4 b8 04 2d
        E 4 b8 04 54
        E 5 b8 04 02
        E 5 b8 04 09
        E 5 b8 04 06
        E 5 b8 04 01
        E 5 b8 04 09
        E 5 b8 04 08
        E 5 b8 04 01
        E 5 b8 04 01
        E 5 b8 04 06
        E 5 b8 04 0c
        E 5 b8 04 0a
        E 5 b8 04 0b
        E 5 b8 04 07
        E 5 b8 04 01
        E 5 b8 04 02
        E 5 b8 04 08
        E 5 b8 04 07
        E 5 b8 04 03
        E 5 b8 04 02
        E 5 b8 04 03
        E 5 b8 04 09
        E 5 b8 04 05
        E 5 b8 04 03
        E 5 b8 04 07
        E 5 b8 04 0c
        E 5 b8 04 00
        E 5 b8 04 01
        E 5 b8 04 05
        E 5 b8 04 04
        E 5 b8 04 0a
        E 5 b8 04 02
        E 5 b8 04 00
        E 5 b8 04 02
        E 5 b8 04 02
        E 5 b8 04 0b
        E 5 b8 04 03
        E 5 b8 04 00
        E 5 b8 04 09
        E 5 b8 04 04
        E 5 b8 04 02
        E 5 b8 04 05
        E 5 b8 04 03
        E 5 b8 04 0a
        E 5 b8 04 0a
        E 5 b8 04 0c
        E 5 b8 04 0a
        E 5 b8 04 05
        E 5 b8 04 0b
        E 5 b8 04 09
        E 5 b8 04 01
        E 5 b8 04 05
        E 5 b8 04 06
        E 5 b8 04 0c
        E 5 b8 04 09
        E 5 b8 04 06
        E 5 b8 04 07
        E 5 b8 04 00
        E 5 b8 04 01
        E 5 b8 04 0b
        E 5 b8 04 0a
        E 5 b8 04 05
        E 5 b8 04 04
        E 5 b8 04 01
        E 5 b8 04 05
        E 5 b8 04 03
        E 5 b8 04 03
        E 5 b8 04 04
        E 5 b8 04 06
        E 5 b8 04 07
        E 5 b8 04 08
        E 5 b8 04 02
        E 5 b8 04 07
        E 5 b8 04 0b
        E 5 b8 04 06
        E 5 b8 04 07
        E 5 b8 04 00
        E 5 b8 04 00
        E 5 b8 04 0c
        E 5 b8 04 08
        E 5 b8 04 02
        E 5 b8 04 0b
        E 5 b8 04 04
        E 5 b8 04 04
        E 5 b8 04 06
        E 5 b8 04 05
        E 5 b8 04 08
        E 5 b8 04 0a
        E 5 b8 04 03
        E 5 b8 04 07
        E 5 b8 04 02
        E 5 b8 04 0b
        E 5 b8 04 0a
        E 5 b8 04 05
        E 5 b8 04 04
        E 5 b8 04 0a
        E 5 b8 04 04
        E 5 b8 04 08
        E 5 b8 04 01
        E 5 b8 04 00
        E 5 b8 04 04
        E 5 b8 04 06
        E 5 b8 04 0a
        E 5 b8 04 09
        E 5 b8 04 00
        E 5 b8 04 0b
        E 5 b8 04 09
        E 5 b8 04 00
        E 5 b8 04 03
        E 5 b8 04 07
        E 5 b8 04 09
        E 5 b8 04 0c
        E 5 b8 04 07
        E 5 b8 04 05
        E 5 b8 04 03
        E 5 b8 04 08
        E 5 b8 04 09
        E 5 b8 04 0b
        E 5 b8 04 0c
        E 5 b8 04 06
        E 5 b8 04 08
        E 5 b8 04 08
        E 5 b8 04 06
        E 5 b8 04 0b
        E 5 b8 04 01
        E 5 b8 04 04
        E 5 b8 04 08
        E 1 b8 04 1c
        E 1 b8 04 60
        E 1 b8 04 3f
        E 1 b8 04 0a
        E 1 b8 04 5a
        E 1 b8 04 50
        E 1 b8 04 0c
        E 1 b8 04 0b
        E 1 b8 04 3d
        E 1 b8 04 78
        E 1 b8 04 65
        E 1 b8 04 6f
        E 1 b8 04 4f
        E 1 b8 04 0e
        E 1 b8 04 18
        E 1 b8 04 56
        E 1 b8 04 46
        E 1 b8 04 24
        E 1 b8 04 19
        E 1 b8 04 22
        E 1 b8 04 63
        E 1 b8 04 3b
        E 1 b8 04 1e
        E 1 b8 04 49
        E 1 b8 04 7e
        E 1 b8 04 00
        E 1 b8 04 10
        E 1 b8 04 34
        E 1 b8 04 2b
        E 1 b8 04 68
        E 1 b8 04 1b
        E 1 b8 04 08
        E 1 b8 04 14
        E 1 b8 04 16
        E 1 b8 04 73
        E 1 b8 04 20
        E 1 b8 04 01
        E 1 b8 04 5e
        E 1 b8 04 2c
        E 1 b8 04 1a
        E 1 b8 04 32
        E 1 b8 04 21
        E 1 b8 04 6c
        E 1 b8 04 6b
        E 1 b8 04 7f
        E 1 b8 04 6a
        E 1 b8 04 37
        E 1 b8 04 76
        E 1 b8 04 5b
        E 1 b8 04 0f
        E 1 b8 04 38
        E 1 b8 04 44
        E 1 b8 04 79
        E 1 b8 04 61
        E 1 b8 04 45
        E 1 b8 04 47
        E 1 b8 04 06
        E 1 b8 04 0d
        E 1 b8 04 75
        E 1 b8 04 66
        E 1 b8 04 36
        E 1 b8 04 28
        E 1 b8 04 11
        E 1 b8 04 39
        E 1 b8 04 26
        E 1 b8 04 1f
        E 1 b8 04 30
        E 1 b8 04 42
        E 1 b8 04 4d
        E 1 b8 04 52
        E 1 b8 04 15
        E 1 b8 04 4c
        E 1 b8 04 71
        E 1 b8 04 41
        E 1 b8 04 4a
        E 1 b8 04 03
        E 1 b8 04 09
        E 1 b8 04 7d
        E 1 b8 04 53
        E 1 b8 04 17
        E 1 b8 04 74
        E 1 b8 04 29
        E 1 b8 04 31
        E 1 b8 04 3e
        E 1 b8 04 33
        E 1 b8 04 55
        E 1 b8 04 67
        E 1 b8 04 25
        E 1 b8 04 48
        E 1 b8 04 1d
        E 1 b8 04 72
        E 1 b8 04 69
        E 1 b8 04 3a
        E 1 b8 04 2e
        E 1 b8 04 64
        E 1 b8 04 2f
        E 1 b8 04 59
        E 1 b8 04 12
        E 1 b8 04 02
        E 1 b8 04 2a
        E 1 b8 04 40
        E 1 b8 04 6d
        E 1 b8 04 62
        E 1 b8 04 04
        E 1 b8 04 6e
        E 1 b8 04 5d
        E 1 b8 04 07
        E 1 b8 04 27
        E 1 b8 04 4b
        E 1 b8 04 5f
        E 1 b8 04 7a
        E 1 b8 04 4e
        E 1 b8 04 35
        E 1 b8 04 23
        E 1 b8 04 58
        E 1 b8 04 5c
        E 1 b8 04 70
        E 1 b8 04 7c
        E 1 b8 04 3c
        E 1 b8 04 51
        E 1 b8 04 57
        E 1 b8 04 43
        E 1 b8 04 77
        E 1 b8 04 13
        E 1 b8 04 2d
        E 1 b8 04 54
        E 4 b8 04 02
        E 4 b8 04 09
        E 4 b8 04 06
        E 4 b8 04 01
        E 4 b8 04 09
        E 4 b8 04 08
        E 4 b8 04 01
        E 4 b8 04 01
        E 4 b8 04 06
        E 4 b8 04 0c
        E 4 b8 04 0a
        E 4 b8 04 0b
        E 4 b8 04 07
        E 4 b8 04 01
        E 4 b8 04 02
        E 4 b8 04 08
        E 4 b8 04 07
        E 4 b8 04 03
        E 4 b8 04 02
        E 4 b8 04 03
        E 4 b8 04 09
        E 4 b8 04 05
        E 4 b8 04 03
        E 4 b8 04 07
        E 4 b8 04 0c
        E 4 b8 04 00
        E 4 b8 04 01
        E 4 b8 04 05
        E 4 b8 04 04
        E 4 b8 04 0a
        E 4 b8 04 02
        E 4 b8 04 00
        E 4 b8 04 02
        E 4 b8 04 02
        E 4 b8 04 0b
        E 4 b8 04 03
        E 4 b8 04 00
        E 4 b8 04 09
        E 4 b8 04 04
        E 4 b8 04 02
        E 4 b8 04 05
        E 4 b8 04 03
        E 4 b8 04 0a
        E 4 b8 04 0a
        E 4 b8 04 0c
        E 4 b8 04 0a
        E 4 b8 04 05
        E 4 b8 04 0b
        E 4 b8 04 09
        E 4 b8 04 01
        E 4 b8 04 05
        E 4 b8 04 06
        E 4 b8 04 0c
        E 4 b8 04 09
        E 4 b8 04 06
        E 4 b8 04 07
        E 4 b8 04 00
        E 4 b8 04 01
        E 4 b8 04 0b
        E 4 b8 04 0a
        E 4 b8 04 05
        E 4 b8 04 04
        E 4 b8 04 01
        E 4 b8 04 05
        E 4 b8 04 03
        E 4 b8 04 03
        E 4 b8 04 04
        E 4 b8 04 06
        E 4 b8 04 07
        E 4 b8 04 08
        E 4 b8 04 02
        E 4 b8 04 07
        E 4 b8 04 0b
        E 4 b8 04 06
        E 4 b8 04 07
        E 4 b8 04 00
        E 4 b8 04 00
        E 4 b8 04 0c
        E 4 b8 04 08
        E 4 b8 04 02
        E 4 b8 04 0b
        E 4 b8 04 04
        E 4 b8 04 04
        E 4 b8 04 06
        E 4 b8 04 05
        E 4 b8 04 08
        E 4 b8 04 0a
        E 4 b8 04 03
        E 4 b8 04 07
        E 4 b8 04 02
        E 4 b8 04 0b
        E 4 b8 04 0a
        E 4 b8 04 05
        E 4 b8 04 04
        E 4 b8 04 0a
        E 4 b8 04 04
        E 4 b8 04 08
        E 4 b8 04 01
        E 4 b8 04 00
        E 4 b8 04 04
        E 4 b8 04 06
        E 4 b8 04 0a
        E 4 b8 04 09
        E 4 b8 04 00
        E 4 b8 04 0b
        E 4 b8 04 09
        E 4 b8 04 00
        E 4 b8 04 03
        E 4 b8 04 07
        E 4 b8 04 09
        E 4 b8 04 0c
        E 4 b8 04 07
        E 4 b8 04 05
        E 4 b8 04 03
        E 4 b8 04 08
        E 4 b8 04 09
        E 4 b8 04 0b
        E 4 b8 04 0c
        E 4 b8 04 06
        E 4 b8 04 08
        E 4 b8 04 08
        E 4 b8 04 06
        E 4 b8 04 0b
        E 4 b8 04 01
        E 4 b8 04 04
        E 4 b8 04 08
        E 4 b8 04 1c
        E 4 b8 04 60
        E 4 b8 04 3f
        E 4 b8 04 0a
        E 4 b8 04 5a
        E 4 b8 04 50
        E 4 b8 04 0c
        E 4 b8 04 0b
        E 4 b8 04 3d
        E 4 b8 04 78
        E 4 b8 04 65
        E 4 b8 04 6f
        E 4 b8 04 4f
        E 4 b8 04 0e
        E 4 b8 04 18
        E 4 b8 04 56
        E 4 b8 04 46
        E 4 b8 04 24
        E 4 b8 04 19
        E 4 b8 04 22
        E 4 b8 04 63
        E 4 b8 04 3b
        E 4 b8 04 1e
        E 4 b8 04 49
        E 4 b8 04 7e
        E 4 b8 04 00
        E 4 b8 04 10
        E 4 b8 04 34
        E 4 b8 04 2b
        E 4 b8 04 68
        E 4 b8 04 1b
        E 4 b8 04 08
        E 4 b8 04 14
        E 4 b8 04 16
        E 4 b8 04 73
        E 4 b8 04 20
        E 4 b8 04 01
        E 4 b8 04 5e
        E 4 b8 04 2c
        E 4 b8 04 1a
        E 4 b8 04 32
        E 4 b8 04 21
        E 4 b8 04 6c
        E 4 b8 04 6b
        E 4 b8 04 7f
        E 4 b8 04 6a
        E 4 b8 04 37
        E 4 b8 04 76
        E 4 b8 04 5b
        E 4 b8 04 0f
        E 4 b8 04 38
        E 4 b8 04 44
        E 4 b8 04 79
        E 4 b8 04 61
        E 4 b8 04 45
        E 4 b8 04 47
        E 4 b8 04 06
        E 4 b8 04 0d
        E 4 b8 04 75
        E 4 b8 04 66
        E 4 b8 04 36
        E 4 b8 04 28
        E 4 b8 04 11
        E 4 b8 04 39
        E 4 b8 04 26
        E 4 b8 04 1f
        E 4 b8 04 30
        E 4 b8 04 42
        E 4 b8 04 4d
        E 4 b8 04 52
        E 4 b8 04 15
        E 4 b8 04 4c
        E 4 b8 04 71
        E 4 b8 04 41
        E 4 b8 04 4a
        E 4 b8 04 03
        E 4 b8 04 09
        E 4 b8 04 7d
        E 4 b8 04 53
        E 4 b8 04 17
        E 4 b8 04 74
        E 4 b8 04 29
        E 4 b8 04 31
        E 4 b8 04 3e
        E 4 b8 04 33
        E 4 b8 04 55
        E 4 b8 04 67
        E 4 b8 04 25
        E 4 b8 04 48
        E 4 b8 04 1d
        E 4 b8 04 72
        E 4 b8 04 69
        E 4 b8 04 3a
        E 4 b8 04 2e
        E 4 b8 04 64
        E 4 b8 04 2f
        E 4 b8 04 59
        E 4 b8 04 12
        E 4 b8 04 02
        E 4 b8 04 2a
        E 4 b8 04 40
        E 4 b8 04 6d
        E 4 b8 04 62
        E 4 b8 04 04
        E 4 b8 04 6e
        E 4 b8 04 5d
        E 4 b8 04 07
        E 4 b8 04 27
        E 4 b8 04 4b
        E 4 b8 04 5f
        E 4 b8 04 7a
        E 4 b8 04 4e
        E 4 b8 04 35
        E 4 b8 04 23
        E 4 b8 04 58
        E 4 b8 04 5c
        E 4 b8 04 70
        E 4 b8 04 7c
        E 4 b8 04 3c
        E 4 b8 04 51
        E 4 b8 04 57
        E 4 b8 04 43
        E 4 b8 04 77
        E 4 b8 04 13
        E 4 b8 04 2d
        E 4 b8 04 54
        E 5 b8 04 02
        E 5 b8 04 09
        E 5 b8 04 06
        E 5 b8 04 01
        E 5 b8 04 09
        E 5 b8 04 08
        E 5 b8 04 01
        E 5 b8 04 01
        E 5 b8 04 06
        E 5 b8 04 0c
        E 5 b8 04 0a
        E 5 b8 04 0b
        E 5 b8 04 07
        E 5 b8 04 01
        E 5 b8 04 02
        E 5 b8 04 08
        E 5 b8 04 07
        E 5 b8 04 03
        E 5 b8 04 02
        E 5 b8 04 03
        E 5 b8 04 09
        E 5 b8 04 05
        E 5 b8 04 03
        E 5 b8 04 07
        E 5 b8 04 0c
        E 5 b8 04 00
        E 5 b8 04 01
        E 5 b8 04 05
        E 5 b8 04 04
        E 5 b8 04 0a
        E 5 b8 04 02
        E 5 b8 04 00
        E 5 b8 04 02
        E 5 b8 04 02
        E 5 b8 04 0b
        E 5 b8 04 03
        E 5 b8 04 00
        E 5 b8 04 09
        E 5 b8 04 04
        E 5 b8 04 02
        E 5 b8 04 05
        E 5 b8 04 03
        E 5 b8 04 0a
        E 5 b8 04 0a
        E 5 b8 04 0c
        E 5 b8 04 0a
        E 5 b8 04 05
        E 5 b8 04 0b
        E 5 b8 04 09
        E 5 b8 04 01
        E 5 b8 04 05
        E 5 b8 04 06
        E 5 b8 04 0c
        E 5 b8 04 09
        E 5 b8 04 06
        E 5 b8 04 07
        E 5 b8 04 00
        E 5 b8 04 01
        E 5 b8 04 0b
        E 5 b8 04 0a
        E 5 b8 04 05
        E 5 b8 04 04
        E 5 b8 04 01
        E 5 b8 04 05
        E 5 b8 04 03
        E 5 b8 04 03
        E 5 b8 04 04
        E 5 b8 04 06
        E 5 b8 04 07
        E 5 b8 04 08
        E 5 b8 04 02
        E 5 b8 04 07
        E 5 b8 04 0b
        E 5 b8 04 06
        E 5 b8 04 07
        E 5 b8 04 00
        E 5 b8 04 00
        E 5 b8 04 0c
        E 5 b8 04 08
        E 5 b8 04 02
        E 5 b8 04 0b
        E 5 b8 04 04
        E 5 b8 04 04
        E 5 b8 04 06
        E 5 b8 04 05
        E 5 b8 04 08
        E 5 b8 04 0a
        E 5 b8 04 03
        E 5 b8 04 07
        E 5 b8 04 02
        E 5 b8 04 0b
        E 5 b8 04 0a
        E 5 b8 04 05
        E 5 b8 04 04
        E 5 b8 04 0a
        E 5 b8 04 04
        E 5 b8 04 08
        E 5 b8 04 01
        E 5 b8 04 00
        E 5 b8 04 04
        E 5 b8 04 06
        E 5 b8 04 0a
        E 5 b8 04 09
        E 5 b8 04 00
        E 5 b8 04 0b
        E 5 b8 04 09
        E 5 b8 04 00
        E 5 b8 04 03
        E 5 b8 04 07
        E 5 b8 04 09
        E 5 b8 04 0c
        E 5 b8 04 07
        E 5 b8 04 05
        E 5 b8 04 03
        E 5 b8 04 08
        E 5 b8 04 09
        E 5 b8 04 0b
        E 5 b8 04 0c
        E 5 b8 04 06
        E 5 b8 04 08
        E 5 b8 04 08
        E 5 b8 04 06
        E 5 b8 04 0b
        E 5 b8 04 01
        E 5 b8 04 04
        E 5 b8 04 08
        E 1 b8 04 1c
        E 1 b8 04 60
        E 1 b8 04 3f
        E 1 b8 04 0a
        E 1 b8 04 5a
        E 1 b8 04 50
        E 1 b8 04 0c
        E 1 b8 04 0b
        E 1 b8 04 3d
        E 1 b8 04 78
        E 1 b8 04 65
        E 1 b8 04 6f
        E 1 b8 04 4f
        E 1 b8 04 0e
        E 1 b8 04 18
        E 1 b8 04 56
        E 1 b8 04 46
        E 1 b8 04 24
        E 1 b8 04 19
        E 1 b8 04 22
        E 1 b8 04 63
        E 1 b8 04 3b
        E 1 b8 04 1e
        E 1 b8 04 49
        E 1 b8 04 7e
        E 1 b8 04 00
        E 1 b8 04 10
        E 1 b8 04 34
        E 1 b8 04 2b
        E 1 b8 04 68
        E 1 b8 04 1b
        E 1 b8 04 08
        E 1 b8 04 14
        E 1 b8 04 16
        E 1 b8 04 73
        E 1 b8 04 20
        E 1 b8 04 01
        E 1 b8 04 5e
        E 1 b8 04 2c
        E 1 b8 04 1a
        E 1 b8 04 32
        E 1 b8 04 21
        E 1 b8 04 6c
        E 1 b8 04 6b
        E 1 b8 04 7f
        E 1 b8 04 6a
        E 1 b8 04 37
        E 1 b8 04 76
        E 1 b8 04 5b
        E 1 b8 04 0f
        E 1 b8 04 38
        E 1 b8 04 44
        E 1 b8 04 79
        E 1 b8 04 61
        E 1 b8 04 45
        E 1 b8 04 47
        E 1 b8 04 06
        E 1 b8 04 0d
        E 1 b8 04 75
        E 1 b8 04 66
        E 1 b8 04 36
        E 1 b8 04 28
        E 1 b8 04 11
        E 1 b8 04 39
        E 1 b8 04 26
        E 1 b8 04 1f
        E 1 b8 04 30
        E 1 b8 04 42
        E 1 b8 04 4d
        E 1 b8 04 52
        E 1 b8 04 15
        E 1 b8 04 4c
        E 1 b8 04 71
        E 1 b8 04 41
        E 1 b8 04 4a
        E 1 b8 04 03
        E 1 b8 04 09
        E 1 b8 04 7d
        E 1 b8 04 53
        E 1 b8 04 17
        E 1 b8 04 74
        E 1 b8 04 29
        E 1 b8 04 31
        E 1 b8 04 3e
        E 1 b8 04 33
        E 1 b8 04 55
        E 1 b8 04 67
        E 1 b8 04 25
        E 1 b8 04 48
        E 1 b8 04 1d
        E 1 b8 04 72
        E 1 b8 04 69
        E 1 b8 04 3a
        E 1 b8 04 2e
        E 1 b8 04 64
        E 1 b8 04 2f
        E 1 b8 04 59
        E 1 b8 04 12
        E 1 b8 04 02
        E 1 b8 04 2a
        E 1 b8 04 40
        E 1 b8 04 6d
        E 1 b8 04 62
        E 1 b8 04 04
        E 1 b8 04 6e
        E 1 b8 04 5d
        E 1 b8 04 07
        E 1 b8 04 27
        E 1 b8 04 4b
        E 1 b8 04 5f
        E 1 b8 04 7a
        E 1 b8 04 4e
        E 1 b8 04 35
        E 1 b8 04 23
        E 1 b8 04 58
        E 1 b8 04 5c
        E 1 b8 04 70
        E 1 b8 04 7c
        E 1 b8 04 3c
        E 1 b8 04 51
        E 1 b8 04 57
        E 1 b8 04 43
        E 1 b8 04 77
        E 1 b8 04 13
        E 1 b8 04 2d
        E 1 b8 04 54
        E 4 b8 04 02
        E 4 b8 04 09
        E 4 b8 04 06
        E 4 b8 04 01
        E 4 b8 04 09
        E 4 b8 04 08
        E 4 b8 04 01
        E 4 b8 04 01
        E 4 b8 04 06
        E 4 b8 04 0c
        E 4 b8 04 0a
        E 4 b8 04 0b
        E 4 b8 04 07
        E 4 b8 04 01
        E 4 b8 04 02
        E 4 b8 04 08
        E 4 b8 04 07
        E 4 b8 04 03
        E 4 b8 04 02
        E 4 b8 04 03
        E 4 b8 04 09
        E 4 b8 04 05
        E 4 b8 04 03
        E 4 b8 04 07
        E 4 b8 04 0c
        E 4 b8 04 00
        E 4 b8 04 01
        E 4 b8 04 05
        E 4 b8 04 04
        E 4 b8 04 0a
        E 4 b8 04 02
        E 4 b8 04 00
        E 4 b8 04 02
        E 4 b8 04 02
        E 4 b8 04 0b
        E 4 b8 04 03
        E 4 b8 04 00
        E 4 b8 04 09
        E 4 b8 04 04
        E 4 b8 04 02
        E 4 b8 04 05
        E 4 b8 04 03
        E 4 b8 04 0a
        E 4 b8 04 0a
        E 4 b8 04 0c
        E 4 b8 04 0a
        E 4 b8 04 05
        E 4 b8 04 0b
        E 4 b8 04 09
        E 4 b8 04 01
        E 4 b8 04 05
        E 4 b8 04 06
        E 4 b8 04 0c
        E 4 b8 04 09
        E 4 b8 04 06
        E 4 b8 04 07
        E 4 b8 04 00
        E 4 b8 04 01
        E 4 b8 04 0b
        E 4 b8 04 0a
        E 4 b8 04 05
        E 4 b8 04 04
        E 4 b8 04 01
        E 4 b8 04 05
        E 4 b8 04 03
        E 4 b8 04 03
        E 4 b8 04 04
        E 4 b8 04 06
        E 4 b8 04 07
        E 4 b8 04 08
        E 4 b8 04 02
        E 4 b8 04 07
        E 4 b8 04 0b
        E 4 b8 04 06
        E 4 b8 04 07
        E 4 b8 04 00
        E 4 b8 04 00
        E 4 b8 04 0c
        E 4 b8 04 08
        E 4 b8 04 02
        E 4 b8 04 0b
        E 4 b8 04 04
        E 4 b8 04 04
        E 4 b8 04 06
        E 4 b8 04 05
        E 4 b8 04 08
        E 4 b8 04 0a
        E 4 b8 04 03
        E 4 b8 04 07
        E 4 b8 04 02
        E 4 b8 04 0b
        E 4 b8 04 0a
        E 4 b8 04 05
        E 4 b8 04 04
        E 4 b8 04 0a
        E 4 b8 04 04
        E 4 b8 04 08
        E 4 b8 04 01
        E 4 b8 04 00
        E 4 b8 04 04
        E 4 b8 04 06
        E 4 b8 04 0a
        E 4 b8 04 09
        E 4 b8 04 00
        E 4 b8 04 0b
        E 4 b8 04 09
        E 4 b8 04 00
        E 4 b8 04 03
        E 4 b8 04 07
        E 4 b8 04 09
        E 4 b8 04 0c
        E 4 b8 04 07
        E 4 b8 04 05
        E 4 b8 04 03
        E 4 b8 04 08
        E 4 b8 04 09
        E 4 b8 04 0b
        E 4 b8 04 0c
        E 4 b8 04 06
        E 4 b8 04 08
        E 4 b8 04 08
        E 4 b8 04 06
        E 4 b8 04 0b
        E 4 b8 04 01
        E 4 b8 04 04
        E 4 b8 04 08
        E 4 b8 04 1c
        E 4 b8 04 60
        E 4 b8 04 3f
        E 4 b8 04 0a
        E 4 b8 04 5a
        E 4 b8 04 50
        E 4 b8 04 0c
        E 4 b8 04 0b
        E 4 b8 04 3d
        E 4 b8 04 78
        E 4 b8 04 65
        E 4 b8 04 6f
        E 4 b8 04 4f
        E 4 b8 04 0e
        E 4 b8 04 18
        E 4 b8 04 56
        E 4 b8 04 46
        E 4 b8 04 24
        E 4 b8 04 19
        E 4 b8 04 22
        E 4 b8 04 63
        E 4 b8 04 3b
        E 4 b8 04 1e
        E 4 b8 04 49
        E 4 b8 04 7e
        E 4 b8 04 00
        E 4 b8 04 10
        E 4 b8 04 34
        E 4 b8 04 2b
        E 4 b8 04 68
        E 4 b8 04 1b
        E 4 b8 04 08
        E 4 b8 04 14
        E 4 b8 04 16
        E 4 b8 04 73
        E 4 b8 04 20
        E 4 b8 04 01
        E 4 b8 04 5e
        E 4 b8 04 2c
        E 4 b8 04 1a
        E 4 b8 04 32
        E 4 b8 04 21
        E 4 b8 04 6c
        E 4 b8 04 6b
        E 4 b8 04 7f
        E 4 b8 04 6a
        E 4 b8 04 37
        E 4 b8 04 76
        E 4 b8 04 5b
        E 4 b8 04 0f
        E 4 b8 04 38
        E 4 b8 04 44
        E 4 b8 04 79
        E 4 b8 04 61
        E 4 b8 04 45
        E 4 b8 04 47
        E 4 b8 04 06
        E 4 b8 04 0d
        E 4 b8 04 75
        E 4 b8 04 66
        E 4 b8 04 36
        E 4 b8 04 28
        E 4 b8 04 11
        E 4 b8 04 39
        E 4 b8 04 26
        E 4 b8 04 1f
        E 4 b8 04 30
        E 4 b8 04 42
        E 4 b8 04 4d
        E 4 b8 04 52
        E 4 b8 04 15
        E 4 b8 04 4c
        E 4 b8 04 71
        E 4 b8 04 41
        E 4 b8 04 4a
        E 4 b8 04 03
        E 4 b8 04 09
        E 4 b8 04 7d
        E 4 b8 04 53
        E 4 b8 04 17
        E 4 b8 04 74
        E 4 b8 04 29
        E 4 b8 04 31
        E 4 b8 04 3e
        E 4 b8 04 33
        E 4 b8 04 55
        E 4 b8 04 67
        E 4 b8 04 25
        E 4 b8 04 48
        E 4 b8 04 1d
        E 4 b8 04 72
        E 4 b8 04 69
        E 4 b8 04 3a
        E 4 b8 04 2e
        E 4 b8 04 64
        E 4 b8 04 2f
        E 4 b8 04 59
        E 4 b8 04 12
        E 4 b8 04 02
        E 4 b8 04 2a
        E 4 b8 04 40
        E 4 b8 04 6d
        E 4 b8 04 62
        E 4 b8 04 04
        E 4 b8 04 6e
        E 4 b8 04 5d
        E 4 b8 04 07
        E 4 b8 04 27
        E 4 b8 04 4b
        E 4 b8 04 5f
        E 4 b8 04 7a
        E 4 b8 04 4e
        E 4 b8 04 35
        E 4 b8 04 23
        E 4 b8 04 58
        E 4 b8 04 5c
        E 4 b8 04 70
        E 4 b8 04 7c
        E 4 b8 04 3c
        E 4 b8 04 51
        E 4 b8 04 57
        E 4 b8 04 43
        E 4 b8 04 77
        E 4 b8 04 13
        E 4 b8 04 2d
        E 4 b8 04 54
        E 5 b8 04 02
        E 5 b8 04 09
        E 5 b8 04 06
        E 5 b8 04 01
        E 5 b8 04 09
        E 5 b8 04 08
        E 5 b8 04 01
        E 5 b8 04 01
        E 5 b8 04 06
        E 5 b8 04 0c
        E 5 b8 04 0a
        E 5 b8 04 0b
        E 5 b8 04 07
        E 5 b8 04 01
        E 5 b8 04 02
        E 5 b8 04 08
        E 5 b8 04 07
        E 5 b8 04 03
        E 5 b8 04 02
        E 5 b8 04 03
        E 5 b8 04 09
        E 5 b8 04 05
        E 5 b8 04 03
        E 5 b8 04 07
        E 5 b8 04 0c
        E 5 b8 04 00
        E 5 b8 04 01
        E 5 b8 04 05
        E 5 b8 04 04
        E 5 b8 04 0a
        E 5 b8 04 02
        E 5 b8 04 00
        E 5 b8 04 02
        E 5 b8 04 02
        E 5 b8 04 0b
        E 5 b8 04 03
        E 5 b8 04 00
        E 5 b8 04 09
        E 5 b8 04 04
        E 5 b8 04 02
        E 5 b8 04 05
        E 5 b8 04 03
        E 5 b8 04 0a
        E 5 b8 04 0a
        E 5 b8 04 0c
        E 5 b8 04 0a
        E 5 b8 04 05
        E 5 b8 04 0b
        E 5 b8 04 09
        E 5 b8 04 01
        E 5 b8 04 05
        E 5 b8 04 06
        E 5 b8 04 0c
        E 5 b8 04 09
        E 5 b8 04 06
        E 5 b8 04 07
        E 5 b8 04 00
        E 5 b8 04 01
        E 5 b8 04 0b
        E 5 b8 04 0a
        E 5 b8 04 05
        E 5 b8 04 04
        E 5 b8 04 01
        E 5 b8 04 05
        E 5 b8 04 03
        E 5 b8 04 03
        E 5 b8 04 04
        E 5 b8 04 06
        E 5 b8 04 07
        E 5 b8 04 08
        E 5 b8 04 02
        E 5 b8 04 07
        E 5 b8 04 0b
        E 5 b8 04 06
        E 5 b8 04 07
        E 5 b8 04 00
        E 5 b8 04 00
        E 5 b8 04 0c
        E 5 b8 04 08
        E 5 b8 04 02
        E 5 b8 04 0b
        E 5 b8 04 04
        E 5 b8 04 04
        E 5 b8 04 06
        E 5 b8 04 05
        E 5 b8 04 08
        E 5 b8 04 0a
        E 5 b8 04 03
        E 5 b8 04 07
        E 5 b8 04 02
        E 5 b8 04 0b
        E 5 b8 04 0a
        E 5 b8 04 05
        E 5 b8 04 04
        E 5 b8 04 0a
        E 5 b8 04 04
        E 5 b8 04 08
        E 5 b8 04 01
        E 5 b8 04 00
        E 5 b8 04 04
        E 5 b8 04 06
        E 5 b8 04 0a
        E 5 b8 04 09
        E 5 b8 04 00
        E 5 b8 04 0b
        E 5 b8 04 09
        E 5 b8 04 00
        E 5 b8 04 03
        E 5 b8 04 07
        E 5 b8 04 09
        E 5 b8 04 0c
        E 5 b8 04 07
        E 5 b8 04 05
        E 5 b8 04 03
        E 5 b8 04 08
        E 5 b8 04 09
        E 5 b8 04 0b
        E 5 b8 04 0c
        E 5 b8 04 06
        E 5 b8 04 08
        E 5 b8 04 08
        E 5 b8 04 06
        E 5 b8 04 0b
        E 5 b8 04 01
        E 5 b8 04 04
        E 5 b8 04 08
        E 1 b8 04 1c
        E 1 b8 04 60
        E 1 b8 04 3f
        E 1 b8 04 0a
        E 1 b8 04 5a
        E 1 b8 04 50
        E 1 b8 04 0c
        E 1 b8 04 0b
        E 1 b8 04 3d
        E 1 b8 04 78
        E 1 b8 04 65
        E 1 b8 04 6f
        E 1 b8 04 4f
        E 1 b8 04 0e
        E 1 b8 04 18
        E 1 b8 04 56
        E 1 b8 04 46
        E 1 b8 04 24
        E 1 b8 04 19
        E 1 b8 04 22
        E 1 b8 04 63
        E 1 b8 04 3b
        E 1 b8 04 1e
        E 1 b8 04 49
        E 1 b8 04 7e
        E 1 b8 04 00
        E 1 b8 04 10
        E 1 b8 04 34
        E 1 b8 04 2b
        E 1 b8 04 68
        E 1 b8 04 1b
        E 1 b8 04 08
        E 1 b8 04 14
        E 1 b8 04 16
        E 1 b8 04 73
        E 1 b8 04 20
        E 1 b8 04 01
        E 1 b8 04 5e
        E 1 b8 04 2c
        E 1 b8 04 1a
        E 1 b8 04 32
        E 1 b8 04 21
        E 1 b8 04 6c
        E 1 b8 04 6b
        E 1 b8 04 7f
        E 1 b8 04 6a
        E 1 b8 04 37
        E 1 b8 04 76
        E 1 b8 04 5b
        E 1 b8 04 0f
        E 1 b8 04 38
        E 1 b8 04 44
        E 1 b8 04 79
        E 1 b8 04 61
        E 1 b8 04 45
        E 1 b8 04 47
        E 1 b8 04 06
        E 1 b8 04 0d
        E 1 b8 04 75
        E 1 b8 04 66
        E 1 b8 04 36
        E 1 b8 04 28
        E 1 b8 04 11
        E 1 b8 04 39
        E 1 b8 04 26
        E 1 b8 04 1f
        E 1 b8 04 30
        E 1 b8 04 42
        E 1 b8 04 4d
        E 1 b8 04 52
        E 1 b8 04 15
        E 1 b8 04 4c
        E 1 b8 04 71
        E 1 b8 04 41
        E 1 b8 04 4a
        E 1 b8 04 03
        E 1 b8 04 09
        E 1 b8 04 7d
        E 1 b8 04 53
        E 1 b8 04 17
        E 1 b8 04 74
        E 1 b8 04 29
        E 1 b8 04 31
        E 1 b8 04 3e
        E 1 b8 04 33
        E 1 b8 04 55
        E 1 b8 04 67
        E 1 b8 04 25
        E 1 b8 04 48
        E 1 b8 04 1d
        E 1 b8 04 72
        E 1 b8 04 69
        E 1 b8 04 3a
        E 1 b8 04 2e
        E 1 b8 04 64
        E 1 b8 04 2f
        E 1 b8 04 59
        E 1 b8 04 12
        E 1 b8 04 02
        E 1 b8 04 2a
        E 1 b8 04 40
        E 1 b8 04 6d
        E 1 b8 04 62
        E 1 b8 04 04
        E 1 b8 04 6e
        E 1 b8 04 5d
        E 1 b8 04 07
        E 1 b8 04 27
        E 1 b8 04 4b
        E 1 b8 04 5f
        E 1 b8 04 7a
        E 1 b8 04 4e
        E 1 b8 04 35
        E 1 b8 04 23
        E 1 b8 04 58
        E 1 b8 04 5c
        E 1 b8 04 70
        E 1 b8 04 7c
        E 1 b8 04 3c
        E 1 b8 04 51
        E 1 b8 04 57
        E 1 b8 04 43
        E 1 b8 04 77
        E 1 b8 04 13
        E 1 b8 04 2d
        E 1 b8 04 54
        E 4 b8 04 02
        E 4 b8 04 09
        E 4 b8 04 06
        E 4 b8 04 01
        E 4 b8 04 09
        E 4 b8 04 08
        E 4 b8 04 01
        E 4 b8 04 01
        E 4 b8 04 06
        E 4 b8 04 0c
        E 4 b8 04 0a
        E 4 b8 04 0b
        E 4 b8 04 07
        E 4 b8 04 01
        E 4 b8 04 02
        E 4 b8 04 08
        E 4 b8 04 07
        E 4 b8 04 03
        E 4 b8 04 02
        E 4 b8 04 03
        E 4 b8 04 09
        E 4 b8 04 05
        E 4 b8 04 03
        E 4 b8 04 07
        E 4 b8 04 0c
        E 4 b8 04 00
        E 4 b8 04 01
        E 4 b8 04 05
        E 4 b8 04 04
        E 4 b8 04 0a
        E 4 b8 04 02
        E 4 b8 04 00
        E 4 b8 04 02
        E 4 b8 04 02
        E 4 b8 04 0b
        E 4 b8 04 03
        E 4 b8 04 00
        E 4 b8 04 09
        E 4 b8 04 04
        E 4 b8 04 02
        E 4 b8 04 05
        E 4 b8 04 03
        E 4 b8 04 0a
        E 4 b8 04 0a
        E 4 b8 04 0c
        E 4 b8 04 0a
        E 4 b8 04 05
        E 4 b8 04 0b
        E 4 b8 04 09
        E 4 b8 04 01
        E 4 b8 04 05
        E 4 b8 04 06
        E 4 b8 04 0c
        E 4 b8 04 09
        E 4 b8 04 06
        E 4 b8 04 07
        E 4 b8 04 00
        E 4 b8 04 01
        E 4 b8 04 0b
        E 4 b8 04 0a
        E 4 b8 04 05
        E 4 b8 04 04
        E 4 b8 04 01
        E 4 b8 04 05
        E 4 b8 04 03
        E 4 b8 04 03
        E 4 b8 04 04
        E 4 b8 04 06
        E 4 b8 04 07
        E 4 b8 04 08
        E 4 b8 04 02
        E 4 b8 04 07
        E 4 b8 04 0b
        E 4 b8 04 06
        E 4 b8 04 07
        E 4 b8 04 00
        E 4 b8 04 00
        E 4 b8 04 0c
        E 4 b8 04 08
        E 4 b8 04 02
        E 4 b8 04 0b
        E 4 b8 04 04
        E 4 b8 04 04
        E 4 b8 04 06
        E 4 b8 04 05
        E 4 b8 04 08
        E 4 b8 04 0a
        E 4 b8 04 03
        E 4 b8 04 07
        E 4 b8 04 02
        E 4 b8 04 0b
        E 4 b8 04 0a
        E 4 b8 04 05
        E 4 b8 04 04
        E 4 b8 04 0a
        E 4 b8 04 04
        E 4 b8 04 08
        E 4 b8 04 01
        E 4 b8 04 00
        E 4 b8 04 04
        E 4 b8 04 06
        E 4 b8 04 0a
        E 4 b8 04 09
        E 4 b8 04 00
        E 4 b8 04 0b
        E 4 b8 04 09
        E 4 b8 04 00
        E 4 b8 04 03
        E 4 b8 04 07
        E 4 b8 04 09
        E 4 b8 04 0c
        E 4 b8 04 07
        E 4 b8 04 05
        E 4 b8 04 03
        E 4 b8 04 08
        E 4 b8 04 09
        E 4 b8 04 0b
        E 4 b8 04 0c
        E 4 b8 04 06
        E 4 b8 04 08
        E 4 b8 04 08
        E 4 b8 04 06
        E 4 b8 04 0b
        E 4 b8 04 01
        E 4 b8 04 04
        E 4 b8 04 08
        E 4 b8 04 1c
        E 4 b8 04 60
        E 4 b8 04 3f
        E 4 b8 04 0a
        E 4 b8 04 5a
        E 4 b8 04 50
        E 4 b8 04 0c
        E 4 b8 04 0b
        E 4 b8 04 3d
        E 4 b8 04 78
        E 4 b8 04 65
        E 4 b8 04 6f
        E 4 b8 04 4f
        E 4 b8 04 0e
        E 4 b8 04 18
        E 4 b8 04 56
        E 4 b8 04 46
        E 4 b8 04 24
        E 4 b8 04 19
        E 4 b8 04 22
        E 4 b8 04 63
        E 4 b8 04 3b
        E 4 b8 04 1e
        E 4 b8 04 49
        E 4 b8 04 7e
        E 4 b8 04 00
        E 4 b8 04 10
        E 4 b8 04 34
        E 4 b8 04 2b
        E 4 b8 04 68
        E 4 b8 04 1b
        E 4 b8 04 08
        E 4 b8 04 14
        E 4 b8 04 16
        E 4 b8 04 73
        E 4 b8 04 20
        E 4 b8 04 01
        E 4 b8 04 5e
        E 4 b8 04 2c
        E 4 b8 04 1a
        E 4 b8 04 32
        E 4 b8 04 21
        E 4 b8 04 6c
        E 4 b8 04 6b
        E 4 b8 04 7f
        E 4 b8 04 6a
        E 4 b8 04 37
        E 4 b8 04 76
        E 4 b8 04 5b
        E 4 b8 04 0f
        E 4 b8 04 38
        E 4 b8 04 44
        E 4 b8 04 79
        E 4 b8 04 61
        E 4 b8 04 45
        E 4 b8 04 47
        E 4 b8 04 06
        E 4 b8 04 0d
        E 4 b8 04 75
        E 4 b8 04 66
        E 4 b8 04 36
        E 4 b8 04 28
        E 4 b8 04 11
        E 4 b8 04 39
        E 4 b8 04 26
        E 4 b8 04 1f
        E 4 b8 04 30
        E 4 b8 04 42
        E 4 b8 04 4d
        E 4 b8 04 52
        E 4 b8 04 15
        E 4 b8 04 4c
        E 4 b8 04 71
        E 4 b8 04 41
        E 4 b8 04 4a
        E 4 b8 04 03
        E 4 b8 04 09
        E 4 b8 04 7d
        E 4 b8 04 53
        E 4 b8 04 17
        E 4 b8 04 74
        E 4 b8 04 29
        E 4 b8 04 31
        E 4 b8 04 3e
        E 4 b8 04 33
        E 4 b8 04 55
        E 4 b8 04 67
        E 4 b8 04 25
        E 4 b8 04 48
        E 4 b8 04 1d
        E 4 b8 04 72
        E 4 b8 04 69
        E 4 b8 04 3a
        E 4 b8 04 2e
        E 4 b8 04 64
        E 4 b8 04 2f
        E 4 b8 04 59
        E 4 b8 04 12
        E 4 b8 04 02
        E 4 b8 04 2a
        E 4 b8 04 40
        E 4 b8 04 6d
        E 4 b8 04 62
        E 4 b8 04 04
        E 4 b8 04 6e
        E 4 b8 04 5d
        E 4 b8 04 07
        E 4 b8 04 27
        E 4 b8 04 4b
        E 4 b8 04 5f
        E 4 b8 04 7a
        E 4 b8 04 4e
        E 4 b8 04 35
        E 4 b8 04 23
        E 4 b8 04 58
        E 4 b8 04 5c
        E 4 b8 04 70
        E 4 b8 04 7c
        E 4 b8 04 3c
        E 4 b8 04 51
        E 4 b8 04 57
        E 4 b8 04 43
        E 4 b8 04 77
        E 4 b8 04 13
        E 4 b8 04 2d
        E 4 b8 04 54
        E 5 b8 04 02
        E 5 b8 04 09
        E 5 b8 04 06
        E 5 b8 04 01
        E 5 b8 04 09
        E 5 b8 04 08
        E 5 b8 04 01
        E 5 b8 04 01
        E 5 b8 04 06
        E 5 b8 04 0c
        E 5 b8 04 0a
        E 5 b8 04 0b
        E 5 b8 04 07
        E 5 b8 04 01
        E 5 b8 04 02
        E 5 b8 04 08
        E 5 b8 04 07
        E 5 b8 04 03
        E 5 b8 04 02
        E 5 b8 04 03
        E 5 b8 04 09
        E 5 b8 04 05
        E 5 b8 04 03
        E 5 b8 04 07
        E 5 b8 04 0c
        E 5 b8 04 00
        E 5 b8 04 01
        E 5 b8 04 05
        E 5 b8 04 04
        E 5 b8 04 0a
        E 5 b8 04 02
        E 5 b8 04 00
        E 5 b8 04 02
        E 5 b8 04 02
        E 5 b8 04 0b
        E 5 b8 04 03
        E 5 b8 04 00
        E 5 b8 04 09
        E 5 b8 04 04
        E 5 b8 04 02
        E 5 b8 04 05
        E 5 b8 04 03
        E 5 b8 04 0a
        E 5 b8 04 0a
        E 5 b8 04 0c
        E 5 b8 04 0a
        E 5 b8 04 05
        E 5 b8 04 0b
        E 5 b8 04 09
        E 5 b8 04 01
        E 5 b8 04 05
        E 5 b8 04 06
        E 5 b8 04 0c
        E 5 b8 04 09
        E 5 b8 04 06
        E 5 b8 04 07
        E 5 b8 04 00
        E 5 b8 04 01
        E 5 b8 04 0b
        E 5 b8 04 0a
        E 5 b8 04 05
        E 5 b8 04 04
        E 5 b8 04 01
        E 5 b8 04 05
        E 5 b8 04 03
        E 5 b8 04 03
        E 5 b8 04 04
        E 5 b8 04 06
        E 5 b8 04 07
        E 5 b8 04 08
        E 5 b8 04 02
        E 5 b8 04 07
        E 5 b8 04 0b
        E 5 b8 04 06
        E 5 b8 04 07
        E 5 b8 04 00
        E 5 b8 04 00
        E 5 b8 04 0c
        E 5 b8 04 08
        E 5 b8 04 02
        E 5 b8 04 0b
        E 5 b8 04 04
        E 5 b8 04 04
        E 5 b8 04 06
        E 5 b8 04 05
        E 5 b8 04 08
        E 5 b8 04 0a
        E 5 b8 04 03
        E 5 b8 04 07
        E 5 b8 04 02
        E 5 b8 04 0b
        E 5 b8 04 0a
        E 5 b8 04 05
        E 5 b8 04 04
        E 5 b8 04 0a
        E 5 b8 04 04
        E 5 b8 04 08
        E 5 b8 04 01
        E 5 b8 04 00
        E 5 b8 04 04
        E 5 b8 04 06
        E 5 b8 04 0a
        E 5 b8 04 09
        E 5 b8 04 00
        E 5 b8 04 0b
        E 5 b8 04 09
        E 5 b8 04 00
        E 5 b8 04 03
        E 5 b8 04 07
        E 5 b8 04 09
        E 5 b8 04 0c
        E 5 b8 04 07
        E 5 b8 04 05
        E 5 b8 04 03
        E 5 b8 04 08
        E 5 b8 04 09
        E 5 b8 04 0b
        E 5 b8 04 0c
        E 5 b8 04 06
        E 5 b8 04 08
        E 5 b8 04 08
        E 5 b8 04 06
        E 5 b8 04 0b
        E 5 b8 04 01
        E 5 b8 04 04
        E 5 b8 04 08
        E 1 b8 04 1c
        E 1 b8 04 60
        E 1 b8 04 3f
        E 1 b8 04 0a
        E 1 b8 04 5a
        E 1 b8 04 50
        E 1 b8 04 0c
        E 1 b8 04 0b
        E 1 b8 04 3d
        E 1 b8 04 78
        E 1 b8 04 65
        E 1 b8 04 6f
        E 1 b8 04 4f
        E 1 b8 04 0e
        E 1 b8 04 18
        E 1 b8 04 56
        E 1 b8 04 46
        E 1 b8 04 24
        E 1 b8 04 19
        E 1 b8 04 22
        E 1 b8 04 63
        E 1 b8 04 3b
        E 1 b8 04 1e
        E 1 b8 04 49
        E 1 b8 04 7e
        E 1 b8 04 00
        E 1 b8 04 10
        E 1 b8 04 34
        E 1 b8 04 2b
        E 1 b8 04 68
        E 1 b8 04 1b
        E 1 b8 04 08
        E 1 b8 04 14
        E 1 b8 04 16
        E 1 b8 04 73
        E 1 b8 04 20
        E 1 b8 04 01
        E 1 b8 04 5e
        E 1 b8 04 2c
        E 1 b8 04 1a
        E 1 b8 04 32
        E 1 b8 04 21
        E 1 b8 04 6c
        E 1 b8 04 6b
        E 1 b8 04 7f
        E 1 b8 04 6a
        E 1 b8 04 37
        E 1 b8 04 76
        E 1 b8 04 5b
        E 1 b8 04 0f
        E 1 b8 04 38
        E 1 b8 04 44
        E 1 b8 04 79
        E 1 b8 04 61
        E 1 b8 04 45
        E 1 b8 04 47
        E 1 b8 04 06
        E 1 b8 04 0d
        E 1 b8 04 75
        E 1 b8 04 66
        E 1 b8 04 36
        E 1 b8 04 28
        E 1 b8 04 11
        E 1 b8 04 39
        E 1 b8 04 26
        E 1 b8 04 1f
        E 1 b8 04 30
        E 1 b8 04 42
        E 1 b8 04 4d
        E 1 b8 04 52
        E 1 b8 04 15
        E 1 b8 04 4c
        E 1 b8 04 71
        E 1 b8 04 41
        E 1 b8 04 4a
        E 1 b8 04 03
        E 1 b8 04 09
        E 1 b8 04 7d
        E 1 b8 04 53
        E 1 b8 04 17
        E 1 b8 04 74
        E 1 b8 04 29
        E 1 b8 04 31
        E 1 b8 04 3e
        E 1 b8 04 33
        E 1 b8 04 55
        E 1 b8 04 67
        E 1 b8 04 25
        E 1 b8 04 48
        E 1 b8 04 1d
        E 1 b8 04 72
        E 1 b8 04 69
        E 1 b8 04 3a
        E 1 b8 04 2e
        E 1 b8 04 64
        E 1 b8 04 2f
        E 1 b8 04 59
        E 1 b8 04 12
        E 1 b8 04 02
        E 1 b8 04 2a
        E 1 b8 04 40
        E 1 b8 04 6d
        E 1 b8 04 62
        E 1 b8 04 04
        E 1 b8 04 6e
        E 1 b8 04 5d
        E 1 b8 04 07
        E 1 b8 04 27
        E 1 b8 04 4b
        E 1 b8 04 5f
        E 1 b8 04 7a
        E 1 b8 04 4e
        E 1 b8 04 35
        E 1 b8 04 23
        E 1 b8 04 58
        E 1 b8 04 5c
        E 1 b8 04 70
        E 1 b8 04 7c
        E 1 b8 04 3c
        E 1 b8 04 51
        E 1 b8 04 57
        E 1 b8 04 43
        E 1 b8 04 77
        E 1 b8 04 13
        E 1 b8 04 2d
        E 1 b8 04 54
        E 4 b8 04 02
        E 4 b8 04 09
        E 4 b8 04 06
        E 4 b8 04 01
        E 4 b8 04 09
        E 4 b8 04 08
        E 4 b8 04 01
        E 4 b8 04 01
        E 4 b8 04 06
        E 4 b8 04 0c
        E 4 b8 04 0a
        E 4 b8 04 0b
        E 4 b8 04 07
        E 4 b8 04 01
        E 4 b8 04 02
        E 4 b8 04 08
        E 4 b8 04 07
        E 4 b8 04 03
        E 4 b8 04 02
        E 4 b8 04 03
        E 4 b8 04 09
        E 4 b8 04 05
        E 4 b8 04 03
        E 4 b8 04 07
        E 4 b8 04 0c
        E 4 b8 04 00
        E 4 b8 04 01
        E 4 b8 04 05
        E 4 b8 04 04
        E 4 b8 04 0a
        E 4 b8 04 02
        E 4 b8 04 00
        E 4 b8 04 02
        E 4 b8 04 02
        E 4 b8 04 0b
        E 4 b8 04 03
        E 4 b8 04 00
        E 4 b8 04 09
        E 4 b8 04 04
        E 4 b8 04 02
        E 4 b8 04 05
        E 4 b8 04 03
        E 4 b8 04 0a
        E 4 b8 04 0a
        E 4 b8 04 0c
        E 4 b8 04 0a
        E 4 b8 04 05
        E 4 b8 04 0b
        E 4 b8 04 09
        E 4 b8 04 01
        E 4 b8 04 05
        E 4 b8 04 06
        E 4 b8 04 0c
        E 4 b8 04 09
        E 4 b8 04 06
        E 4 b8 04 07
        E 4 b8 04 00
        E 4 b8 04 01
        E 4 b8 04 0b
        E 4 b8 04 0a
        E 4 b8 04 05
        E 4 b8 04 04
        E 4 b8 04 01
        E 4 b8 04 05
        E 4 b8 04 03
        E 4 b8 04 03
        E 4 b8 04 04
        E 4 b8 04 06
        E 4 b8 04 07
        E 4 b8 04 08
        E 4 b8 04 02
        E 4 b8 04 07
        E 4 b8 04 0b
        E 4 b8 04 06
        E 4 b8 04 07
        E 4 b8 04 00
        E 4 b8 04 00
        E 4 b8 04 0c
        E 4 b8 04 08
        E 4 b8 04 02
        E 4 b8 04 0b
        E 4 b8 04 04
        E 4 b8 04 04
        E 4 b8 04 06
        E 4 b8 04 05
        E 4 b8 04 08
        E 4 b8 04 0a
        E 4 b8 04 03
        E 4 b8 04 07
        E 4 b8 04 02
        E 4 b8 04 0b
        E 4 b8 04 0a
        E 4 b8 04 05
        E 4 b8 04 04
        E 4 b8 04 0a
        E 4 b8 04 04
        E 4 b8 04 08
        E 4 b8 04 01
        E 4 b8 04 00
        E 4 b8 04 04
        E 4 b8 04 06
        E 4 b8 04 0a
        E 4 b8 04 09
        E 4 b8 04 00
        E 4 b8 04 0b
        E 4 b8 04 09
        E 4 b8 04 00
        E 4 b8 04 03
        E 4 b8 04 07
        E 4 b8 04 09
        E 4 b8 04 0c
        E 4 b8 04 07
        E 4 b8 04 05
        E 4 b8 04 03
        E 4 b8 04 08
        E 4 b8 04 09
        E 4 b8 04 0b
        E 4 b8 04 0c
        E 4 b8 04 06
        E 4 b8 04 08
        E 4 b8 04 08
        E 4 b8 04 06
        E 4 b8 04 0b
        E 4 b8 04 01
        E 4 b8 04 04
        E 4 b8 04 08
        E 4 b8 04 1c
        E 4 b8 04 60
        E 4 b8 04 3f
        E 4 b8 04 0a
        E 4 b8 04 5a
        E 4 b8 04 50
        E 4 b8 04 0c
        E 4 b8 04 0b
        E 4 b8 04 3d
        E 4 b8 04 78
        E 4 b8 04 65
        E 4 b8 04 6f
        E 4 b8 04 4f
        E 4 b8 04 0e
        E 4 b8 04 18
        E 4 b8 04 56
        E 4 b8 04 46
        E 4 b8 04 24
        E 4 b8 04 19
        E 4 b8 04 22
        E 4 b8 04 63
        E 4 b8 04 3b
        E 4 b8 04 1e
        E 4 b8 04 49
        E 4 b8 04 7e
        E 4 b8 04 00
        E 4 b8 04 10
        E 4 b8 04 34
        E 4 b8 04 2b
        E 4 b8 04 68
        E 4 b8 04 1b
        E 4 b8 04 08
        E 4 b8 04 14
        E 4 b8 04 16
        E 4 b8 04 73
        E 4 b8 04 20
        E 4 b8 04 01
        E 4 b8 04 5e
        E 4 b8 04 2c
        E 4 b8 04 1a
        E 4 b8 04 32
        E 4 b8 04 21
        E 4 b8 04 6c
        E 4 b8 04 6b
        E 4 b8 04 7f
        E 4 b8 04 6a
        E 4 b8 04 37
        E 4 b8 04 76
        E 4 b8 04 5b
        E 4 b8 04 0f
        E 4 b8 04 38
        E 4 b8 04 44
        E 4 b8 04 79
        E 4 b8 04 61
        E 4 b8 04 45
        E 4 b8 04 47
        E 4 b8 04 06
        E 4 b8 04 0d
        E 4 b8 04 75
        E 4 b8 04 66
        E 4 b8 04 36
        E 4 b8 04 28
        E 4 b8 04 11
        E 4 b8 04 39
        E 4 b8 04 26
        E 4 b8 04 1f
        E 4 b8 04 30
        E 4 b8 04 42
        E 4 b8 04 4d
        E 4 b8 04 52
        E 4 b8 04 15
        E 4 b8 04 4c
        E 4 b8 04 71
        E 4 b8 04 41
        E 4 b8 04 4a
        E 4 b8 04 03
        E 4 b8 04 09
        E 4 b8 04 7d
        E 4 b8 04 53
        E 4 b8 04 17
        E 4 b8 04 74
        E 4 b8 04 29
        E 4 b8 04 31
        E 4 b8 04 3e
        E 4 b8 04 33
        E 4 b8 04 55
        E 4 b8 04 67
        E 4 b8 04 25
        E 4 b8 04 48
        E 4 b8 04 1d
        E 4 b8 04 72
        E 4 b8 04 69
        E 4 b8 04 3a
        E 4 b8 04 2e
        E 4 b8 04 64
        E 4 b8 04 2f
        E 4 b8 04 59
        E 4 b8 04 12
        E 4 b8 04 02
        E 4 b8 04 2a
        E 4 b8 04 40
        E 4 b8 04 6d
        E 4 b8 04 62
        E 4 b8 04 04
        E 4 b8 04 6e
        E 4 b8 04 5d
        E 4 b8 04 07
        E 4 b8 04 27
        E 4 b8 04 4b
        E 4 b8 04 5f
        E 4 b8 04 7a
        E 4 b8 04 4e
        E 4 b8 04 35
        E 4 b8 04 23
        E 4 b8 04 58
        E 4 b8 04 5c
        E 4 b8 04 70
        E 4 b8 04 7c
        E 4 b8 04 3c
        E 4 b8 04 51
        E 4 b8 04 57
        E 4 b8 04 43
        E 4 b8 04 77
        E 4 b8 04 13
        E 4 b8 04 2d
        E 4 b8 04 54
        E 5 b8 04 02
        E 5 b8 04 09
        E 5 b8 04 06
        E 5 b8 04 01
        E 5 b8 04 09
        E 5 b8 04 08
        E 5 b8 04 01
        E 5 b8 04 01
        E 5 b8 04 06
        E 5 b8 04 0c
        E 5 b8 04 0a
        E 5 b8 04 0b
        E 5 b8 04 07
        E 5 b8 04 01
        E 5 b8 04 02
        E 5 b8 04 08
        E 5 b8 04 07
        E 5 b8 04 03
        E 5 b8 04 02
        E 5 b8 04 03
        E 5 b8 04 09
        E 5 b8 04 05
        E 5 b8 04 03
        E 5 b8 04 07
        E 5 b8 04 0c
        E 5 b8 04 00
        E 5 b8 04 01
        E 5 b8 04 05
        E 5 b8 04 04
        E 5 b8 04 0a
        E 5 b8 04 02
        E 5 b8 04 00
        E 5 b8 04 02
        E 5 b8 04 02
        E 5 b8 04 0b
        E 5 b8 04 03
        E 5 b8 04 00
        E 5 b8 04 09
        E 5 b8 04 04
        E 5 b8 04 02
        E 5 b8 04 05
        E 5 b8 04 03
        E 5 b8 04 0a
        E 5 b8 04 0a
        E 5 b8 04 0c
        E 5 b8 04 0a
        E 5 b8 04 05
        E 5 b8 04 0b
        E 5 b8 04 09
        E 5 b8 04 01
        E 5 b8 04 05
        E 5 b8 04 06
        E 5 b8 04 0c
        E 5 b8 04 09
        E 5 b8 04 06
        E 5 b8 04 07
        E 5 b8 04 00
        E 5 b8 04 01
        E 5 b8 04 0b
        E 5 b8 04 0a
        E 5 b8 04 05
        E 5 b8 04 04
        E 5 b8 04 01
        E 5 b8 04 05
        E 5 b8 04 03
        E 5 b8 04 03
        E 5 b8 04 04
        E 5 b8 04 06
        E 5 b8 04 07
        E 5 b8 04 08
        E 5 b8 04 02
        E 5 b8 04 07
        E 5 b8 04 0b
        E 5 b8 04 06
        E 5 b8 04 07
        E 5 b8 04 00
        E 5 b8 04 00
        E 5 b8 04 0c
        E 5 b8 04 08
        E 5 b8 04 02
        E 5 b8 04 0b
        E 5 b8 04 04
        E 5 b8 04 04
        E 5 b8 04 06
        E 5 b8 04 05
        E 5 b8 04 08
        E 5 b8 04 0a
        E 5 b8 04 03
        E 5 b8 04 07
        E 5 b8 04 02
        E 5 b8 04 0b
        E 5 b8 04 0a
        E 5 b8 04 05
        E 5 b8 04 04
        E 5 b8 04 0a
        E 5 b8 04 04
        E 5 b8 04 08
        E 5 b8 04 01
        E 5 b8 04 00
        E 5 b8 04 04
        E 5 b8 04 06
        E 5 b8 04 0a
        E 5 b8 04 09
        E 5 b8 04 00
        E 5 b8 04 0b
        E 5 b8 04 09
        E 5 b8 04 00
        E 5 b8 04 03
        E 5 b8 04 07
        E 5 b8 04 09
        E 5 b8 04 0c
        E 5 b8 04 07
        E 5 b8 04 05
        E 5 b8 04 03
        E 5 b8 04 08
        E 5 b8 04 09
        E 5 b8 04 0b
        E 5 b8 04 0c
        E 5 b8 04 06
        E 5 b8 04 08
        E 5 b8 04 08
        E 5 b8 04 06
        E 5 b8 04 0b
        E 5 b8 04 01
        E 5 b8 04 04
        E 5 b8 04 08
        E 40 b0 7b 00
        CCINTERP 32
        CHASE_CC_TAKEOFFS 1
        GUID {EE655814-66E6-DB46-8A95-23F06DAA64A2}
        IGNTEMPO 0 120 4 4
        SRCCOLOR 286
        VELLANE 3 601 0
        VELLANE -1 196 0
      >
    >
  >
  <TRACK {9DB38F36-507C-1746-8E3D-7FF620DE2FA3}
    NAME "pepto bismol 4oz bottle"
    PEAKCOL 16576
    BEAT -1
    AUTOMODE 0
    VOLPAN 1 0 -1 -1 1
    MUTESOLO 0 0 0
    IPHASE 0
    PLAYOFFS 0 1
    ISBUS 0 0
    BUSCOMP 0 0 0 0 0
    SHOWINMIX 1 0.6667 0.5 1 0.5 -1 -1 -1
    FREEMODE 0
    SEL 0
    REC 0 0 1 0 0 0 0
    VU 2
    TRACKHEIGHT 0 1 0 0 -1 0
    INQ 0 0 0 0.5 100 0 0 100
    NCHAN 2
    FX 1
    TRACKID {9DB38F36-507C-1746-8E3D-7FF620DE2FA3}
    PERF 0
    MIDIOUT -1
    MAINSEND 1 0
    <ITEM
      POSITION 0
      SNAPOFFS 0
      LENGTH 422.85672
      LOOP 1
      ALLTAKES 0
      FADEIN 1 0 0 1 0 0
      FADEOUT 1 0 0 1 0 0
      MUTE 0 0
      SEL 0
      IGUID {FFDC738D-B7D1-8F4C-9313-EE2D1E54780D}
      IID 22
      NAME "pepto bismol 4oz bottle.mid"
      VOLPAN 1 0 1 -1
      SOFFS 0 0
      PLAYRATE 1 1 0 -1 0 0.0025
      CHANMODE 0
      GUID {DC15A4AF-74BA-FC4E-BDD1-3596310173F5}
      <SOURCE MIDI
        HASDATA 1 128 QN
        CCINTERP 32
        POOLEDEVTS {7DDFEC74-1FB2-5A45-8BD2-40779E44DCB6}
        E 34 b9 01 20
        E 34 b9 01 21
        E 34 b9 01 23
        E 34 b9 01 24
        E 34 b9 01 26
        E 34 b9 01 27
        E 34 b9 01 29
        E 34 b9 01 2a
        E 34 b9 01 2c
        E 34 b9 01 2d
        E 34 b9 01 2f
        E 34 b9 01 30
        E 34 b9 01 31
        E 34 b9 01 33
        E 34 b9 01 34
        E 34 b9 01 35
        E 34 b9 01 36
        E 34 b9 01 37
        E 34 b9 01 38
        E 34 b9 01 39
        E 34 b9 01 3a
        E 34 b9 01 3b
        E 34 b9 01 3c
        E 34 b9 01 3c
        E 34 b9 01 3d
        E 34 b9 01 3d
        E 34 b9 01 3e
        E 34 b9 01 3e
        E 34 b9 01 3f
        E 34 b9 01 3f
        E 34 b9 01 3f
        E 34 b9 01 3f
        E 34 b9 01 3f
        E 34 b9 01 3f
        E 34 b9 01 3f
        E 34 b9 01 3f
        E 34 b9 01 3f
        E 34 b9 01 3e
        E 34 b9 01 3e
        E 34 b9 01 3d
        E 34 b9 01 3d
        E 34 b9 01 3c
        E 34 b9 01 3b
        E 34 b9 01 3a
        E 34 b9 01 3a
        E 34 b9 01 39
        E 34 b9 01 38
        E 34 b9 01 37
        E 34 b9 01 36
        E 34 b9 01 34
        E 34 b9 01 33
        E 34 b9 01 32
        E 34 b9 01 31
        E 34 b9 01 2f
        E 34 b9 01 2e
        E 34 b9 01 2c
        E 34 b9 01 2b
        E 34 b9 01 2a
        E 34 b9 01 28
        E 34 b9 01 27
        E 34 b9 01 25
        E 34 b9 01 23
        E 34 b9 01 22
        E 34 b9 01 20
        E 34 b9 01 1f
        E 34 b9 01 1d
        E 34 b9 01 1c
        E 34 b9 01 1a
        E 34 b9 01 18
        E 34 b9 01 17
        E 34 b9 01 15
        E 34 b9 01 14
        E 34 b9 01 13
        E 34 b9 01 11
        E 34 b9 01 10
        E 34 b9 01 0e
        E 34 b9 01 0d
        E 34 b9 01 0c
        E 34 b9 01 0b
        E 34 b9 01 09
        E 34 b9 01 08
        E 34 b9 01 07
        E 34 b9 01 06
        E 34 b9 01 05
        E 34 b9 01 05
        E 34 b9 01 04
        E 34 b9 01 03
        E 34 b9 01 02
        E 34 b9 01 02
        E 34 b9 01 01
        E 34 b9 01 01
        E 34 b9 01 00
        E 34 b9 01 00
        E 34 b9 01 00
        E 34 b9 01 00
        E 34 b9 01 00
        E 34 b9 01 00
        E 34 b9 01 00
        E 34 b9 01 00
        E 34 b9 01 00
        E 34 b9 01 01
        E 34 b9 01 01
        E 34 b9 01 02
        E 34 b9 01 02
        E 34 b9 01 03
        E 34 b9 01 03
        E 34 b9 01 04
        E 34 b9 01 05
        E 34 b9 01 06
        E 34 b9 01 07
        E 34 b9 01 08
        E 34 b9 01 09
        E 34 b9 01 0a
        E 34 b9 01 0b
        E 34 b9 01 0c
        E 34 b9 01 0e
        E 34 b9 01 0f
        E 34 b9 01 10
        E 34 b9 01 12
        E 34 b9 01 13
        E 34 b9 01 15
        E 34 b9 01 16
        E 34 b9 01 18
        E 34 b9 01 19
        E 34 b9 01 1b
        E 34 b9 01 1c
        E 34 b9 01 1e
        E 34 b9 01 20
        E 3 b9 01 06
        E 3 b9 01 06
        E 3 b9 01 07
        E 3 b9 01 07
        E 3 b9 01 07
        E 3 b9 01 07
        E 3 b9 01 08
        E 3 b9 01 08
        E 3 b9 01 08
        E 3 b9 01 09
        E 3 b9 01 09
        E 3 b9 01 09
        E 3 b9 01 09
        E 3 b9 01 0a
        E 3 b9 01 0a
        E 3 b9 01 0a
        E 3 b9 01 0a
        E 3 b9 01 0b
        E 3 b9 01 0b
        E 3 b9 01 0b
        E 3 b9 01 0b
        E 3 b9 01 0b
        E 3 b9 01 0c
        E 3 b9 01 0c
        E 3 b9 01 0c
        E 3 b9 01 0c
        E 3 b9 01 0c
        E 3 b9 01 0c
        E 3 b9 01 0c
        E 3 b9 01 0c
        E 3 b9 01 0c
        E 3 b9 01 0c
        E 3 b9 01 0c
        E 3 b9 01 0c
        E 3 b9 01 0c
        E 3 b9 01 0c
        E 3 b9 01 0c
        E 3 b9 01 0c
        E 3 b9 01 0c
        E 3 b9 01 0c
        E 3 b9 01 0c
        E 3 b9 01 0c
        E 3 b9 01 0b
        E 3 b9 01 0b
        E 3 b9 01 0b
        E 3 b9 01 0b
        E 3 b9 01 0b
        E 3 b9 01 0b
        E 3 b9 01 0a
        E 3 b9 01 0a
        E 3 b9 01 0a
        E 3 b9 01 0a
        E 3 b9 01 09
        E 3 b9 01 09
        E 3 b9 01 09
        E 3 b9 01 08
        E 3 b9 01 08
        E 3 b9 01 08
        E 3 b9 01 08
        E 3 b9 01 07
        E 3 b9 01 07
        E 3 b9 01 07
        E 3 b9 01 06
        E 3 b9 01 06
        E 3 b9 01 06
        E 3 b9 01 05
        E 3 b9 01 05
        E 3 b9 01 05
        E 3 b9 01 04
        E 3 b9 01 04
        E 3 b9 01 04
        E 3 b9 01 04
        E 3 b9 01 03
        E 3 b9 01 03
        E 3 b9 01 03
        E 3 b9 01 02
        E 3 b9 01 02
        E 3 b9 01 02
        E 3 b9 01 02
        E 3 b9 01 01
        E 3 b9 01 01
        E 3 b9 01 01
        E 3 b9 01 01
        E 3 b9 01 01
        E 3 b9 01 01
        E 3 b9 01 00
        E 3 b9 01 00
        E 3 b9 01 00
        E 3 b9 01 00
        E 3 b9 01 00
        E 3 b9 01 00
        E 3 b9 01 00
        E 3 b9 01 00
        E 3 b9 01 00
        E 3 b9 01 00
        E 3 b9 01 00
        E 3 b9 01 00
        E 3 b9 01 00
        E 3 b9 01 00
        E 3 b9 01 00
        E 3 b9 01 00
        E 3 b9 01 00
        E 3 b9 01 00
        E 3 b9 01 00
        E 3 b9 01 00
        E 3 b9 01 00
        E 3 b9 01 00
        E 3 b9 01 01
        E 3 b9 01 01
        E 3 b9 01 01
        E 3 b9 01 01
        E 3 b9 01 01
        E 3 b9 01 02
        E 3 b9 01 02
        E 3 b9 01 02
        E 3 b9 01 02
        E 3 b9 01 03
        E 3 b9 01 03
        E 3 b9 01 03
        E 3 b9 01 03
        E 3 b9 01 04
        E 3 b9 01 04
        E 3 b9 01 04
        E 3 b9 01 05
        E 3 b9 01 05
        E 3 b9 01 05
        E 3 b9 01 06
        E 3 b9 01 06
        E 34 b9 01 0e
        E 34 b9 01 30
        E 34 b9 01 1f
        E 34 b9 01 05
        E 34 b9 01 2d
        E 34 b9 01 28
        E 34 b9 01 06
        E 34 b9 01 05
        E 34 b9 01 1e
        E 34 b9 01 3c
        E 34 b9 01 32
        E 34 b9 01 37
        E 34 b9 01 27
        E 34 b9 01 07
        E 34 b9 01 0c
        E 34 b9 01 2b
        E 34 b9 01 23
        E 34 b9 01 12
        E 34 b9 01 0c
        E 34 b9 01 11
        E 34 b9 01 31
        E 34 b9 01 1d
        E 34 b9 01 0f
        E 34 b9 01 24
        E 34 b9 01 3f
        E 34 b9 01 00
        E 34 b9 01 08
        E 34 b9 01 1a
        E 34 b9 01 15
        E 34 b9 01 34
        E 34 b9 01 0d
        E 34 b9 01 04
        E 34 b9 01 0a
        E 34 b9 01 0b
        E 34 b9 01 39
        E 34 b9 01 10
        E 34 b9 01 00
        E 34 b9 01 2f
        E 34 b9 01 16
        E 34 b9 01 0d
        E 34 b9 01 19
        E 34 b9 01 10
        E 34 b9 01 36
        E 34 b9 01 35
        E 34 b9 01 3f
        E 34 b9 01 35
        E 34 b9 01 1b
        E 34 b9 01 3b
        E 34 b9 01 2d
        E 34 b9 01 07
        E 34 b9 01 1c
        E 34 b9 01 22
        E 34 b9 01 3c
        E 34 b9 01 30
        E 34 b9 01 22
        E 34 b9 01 23
        E 34 b9 01 03
        E 34 b9 01 06
        E 34 b9 01 3a
        E 34 b9 01 33
        E 34 b9 01 1b
        E 34 b9 01 14
        E 34 b9 01 08
        E 34 b9 01 1c
        E 34 b9 01 13
        E 34 b9 01 0f
        E 34 b9 01 18
        E 34 b9 01 21
        E 34 b9 01 26
        E 34 b9 01 29
        E 34 b9 01 0a
        E 34 b9 01 26
        E 34 b9 01 38
        E 34 b9 01 20
        E 34 b9 01 25
        E 34 b9 01 01
        E 34 b9 01 04
        E 34 b9 01 3e
        E 34 b9 01 29
        E 34 b9 01 0b
        E 34 b9 01 3a
        E 34 b9 01 14
        E 34 b9 01 18
        E 34 b9 01 1f
        E 34 b9 01 19
        E 34 b9 01 2a
        E 34 b9 01 33
        E 34 b9 01 12
        E 34 b9 01 24
        E 34 b9 01 0e
        E 34 b9 01 39
        E 34 b9 01 34
        E 34 b9 01 1d
        E 34 b9 01 17
        E 34 b9 01 32
        E 34 b9 01 17
        E 34 b9 01 2c
        E 34 b9 01 09
        E 34 b9 01 01
        E 34 b9 01 15
        E 34 b9 01 20
        E 34 b9 01 36
        E 34 b9 01 31
        E 34 b9 01 02
        E 34 b9 01 37
        E 34 b9 01 2e
        E 34 b9 01 03
        E 34 b9 01 13
        E 34 b9 01 25
        E 34 b9 01 2f
        E 34 b9 01 3d
        E 34 b9 01 27
        E 34 b9 01 1a
        E 34 b9 01 11
        E 34 b9 01 2c
        E 34 b9 01 2e
        E 34 b9 01 38
        E 34 b9 01 3e
        E 34 b9 01 1e
        E 34 b9 01 28
        E 34 b9 01 2b
        E 34 b9 01 21
        E 34 b9 01 3b
        E 34 b9 01 09
        E 34 b9 01 16
        E 34 b9 01 2a
        E 17 b9 01 02
        E 17 b9 01 09
        E 17 b9 01 06
        E 17 b9 01 01
        E 17 b9 01 09
        E 17 b9 01 08
        E 17 b9 01 01
        E 17 b9 01 01
        E 17 b9 01 06
        E 17 b9 01 0c
        E 17 b9 01 0a
        E 17 b9 01 0b
        E 17 b9 01 07
        E 17 b9 01 01
        E 17 b9 01 02
        E 17 b9 01 08
        E 17 b9 01 07
        E 17 b9 01 03
        E 17 b9 01 02
        E 17 b9 01 03
        E 17 b9 01 09
        E 17 b9 01 05
        E 17 b9 01 03
        E 17 b9 01 07
        E 17 b9 01 0c
        E 17 b9 01 00
        E 17 b9 01 01
        E 17 b9 01 05
        E 17 b9 01 04
        E 17 b9 01 0a
        E 17 b9 01 02
        E 17 b9 01 00
        E 17 b9 01 02
        E 17 b9 01 02
        E 17 b9 01 0b
        E 17 b9 01 03
        E 17 b9 01 00
        E 17 b9 01 09
        E 17 b9 01 04
        E 17 b9 01 02
        E 17 b9 01 05
        E 17 b9 01 03
        E 17 b9 01 0a
        E 17 b9 01 0a
        E 17 b9 01 0c
        E 17 b9 01 0a
        E 17 b9 01 05
        E 17 b9 01 0b
        E 17 b9 01 09
        E 17 b9 01 01
        E 17 b9 01 05
        E 17 b9 01 06
        E 17 b9 01 0c
        E 17 b9 01 09
        E 17 b9 01 06
        E 17 b9 01 07
        E 17 b9 01 00
        E 17 b9 01 01
        E 17 b9 01 0b
        E 17 b9 01 0a
        E 17 b9 01 05
        E 17 b9 01 04
        E 17 b9 01 01
        E 17 b9 01 05
        E 17 b9 01 03
        E 17 b9 01 03
        E 17 b9 01 04
        E 17 b9 01 06
        E 17 b9 01 07
        E 17 b9 01 08
        E 17 b9 01 02
        E 17 b9 01 07
        E 17 b9 01 0b
        E 17 b9 01 06
        E 17 b9 01 07
        E 17 b9 01 00
        E 17 b9 01 00
        E 17 b9 01 0c
        E 17 b9 01 08
        E 17 b9 01 02
        E 17 b9 01 0b
        E 17 b9 01 04
        E 17 b9 01 04
        E 17 b9 01 06
        E 17 b9 01 05
        E 17 b9 01 08
        E 17 b9 01 0a
        E 17 b9 01 03
        E 17 b9 01 07
        E 17 b9 01 02
        E 17 b9 01 0b
        E 17 b9 01 0a
        E 17 b9 01 05
        E 17 b9 01 04
        E 17 b9 01 0a
        E 17 b9 01 04
        E 17 b9 01 08
        E 17 b9 01 01
        E 17 b9 01 00
        E 17 b9 01 04
        E 17 b9 01 06
        E 17 b9 01 0a
        E 17 b9 01 09
        E 17 b9 01 00
        E 17 b9 01 0b
        E 17 b9 01 09
        E 17 b9 01 00
        E 17 b9 01 03
        E 17 b9 01 07
        E 17 b9 01 09
        E 17 b9 01 0c
        E 17 b9 01 07
        E 17 b9 01 05
        E 17 b9 01 03
        E 17 b9 01 08
        E 17 b9 01 09
        E 17 b9 01 0b
        E 17 b9 01 0c
        E 17 b9 01 06
        E 17 b9 01 08
        E 17 b9 01 08
        E 17 b9 01 06
        E 17 b9 01 0b
        E 17 b9 01 01
        E 17 b9 01 04
        E 17 b9 01 08
        E 85 b9 01 0e
        E 85 b9 01 30
        E 85 b9 01 1f
        E 85 b9 01 05
        E 85 b9 01 2d
        E 85 b9 01 28
        E 85 b9 01 06
        E 85 b9 01 05
        E 85 b9 01 1e
        E 85 b9 01 3c
        E 85 b9 01 32
        E 85 b9 01 37
        E 85 b9 01 27
        E 85 b9 01 07
        E 85 b9 01 0c
        E 85 b9 01 2b
        E 85 b9 01 23
        E 85 b9 01 12
        E 85 b9 01 0c
        E 85 b9 01 11
        E 85 b9 01 31
        E 85 b9 01 1d
        E 85 b9 01 0f
        E 85 b9 01 24
        E 85 b9 01 3f
        E 85 b9 01 00
        E 85 b9 01 08
        E 85 b9 01 1a
        E 85 b9 01 15
        E 85 b9 01 34
        E 85 b9 01 0d
        E 85 b9 01 04
        E 85 b9 01 0a
        E 85 b9 01 0b
        E 85 b9 01 39
        E 85 b9 01 10
        E 85 b9 01 00
        E 85 b9 01 2f
        E 85 b9 01 16
        E 85 b9 01 0d
        E 85 b9 01 19
        E 85 b9 01 10
        E 85 b9 01 36
        E 85 b9 01 35
        E 85 b9 01 3f
        E 85 b9 01 35
        E 85 b9 01 1b
        E 85 b9 01 3b
        E 85 b9 01 2d
        E 85 b9 01 07
        E 85 b9 01 1c
        E 85 b9 01 22
        E 85 b9 01 3c
        E 85 b9 01 30
        E 85 b9 01 22
        E 85 b9 01 23
        E 85 b9 01 03
        E 85 b9 01 06
        E 85 b9 01 3a
        E 85 b9 01 33
        E 85 b9 01 1b
        E 85 b9 01 14
        E 85 b9 01 08
        E 85 b9 01 1c
        E 85 b9 01 13
        E 85 b9 01 0f
        E 85 b9 01 18
        E 85 b9 01 21
        E 85 b9 01 26
        E 85 b9 01 29
        E 85 b9 01 0a
        E 85 b9 01 26
        E 85 b9 01 38
        E 85 b9 01 20
        E 85 b9 01 25
        E 85 b9 01 01
        E 85 b9 01 04
        E 85 b9 01 3e
        E 85 b9 01 29
        E 85 b9 01 0b
        E 85 b9 01 3a
        E 85 b9 01 14
        E 85 b9 01 18
        E 85 b9 01 1f
        E 85 b9 01 19
        E 85 b9 01 2a
        E 85 b9 01 33
        E 85 b9 01 12
        E 85 b9 01 24
        E 85 b9 01 0e
        E 85 b9 01 39
        E 85 b9 01 34
        E 85 b9 01 1d
        E 85 b9 01 17
        E 85 b9 01 32
        E 85 b9 01 17
        E 85 b9 01 2c
        E 85 b9 01 09
        E 85 b9 01 01
        E 85 b9 01 15
        E 85 b9 01 20
        E 85 b9 01 36
        E 85 b9 01 31
        E 85 b9 01 02
        E 85 b9 01 37
        E 85 b9 01 2e
        E 85 b9 01 03
        E 85 b9 01 13
        E 85 b9 01 25
        E 85 b9 01 2f
        E 85 b9 01 3d
        E 85 b9 01 27
        E 85 b9 01 1a
        E 85 b9 01 11
        E 85 b9 01 2c
        E 85 b9 01 2e
        E 85 b9 01 38
        E 85 b9 01 3e
        E 85 b9 01 1e
        E 85 b9 01 28
        E 85 b9 01 2b
        E 85 b9 01 21
        E 85 b9 01 3b
        E 85 b9 01 09
        E 85 b9 01 16
        E 85 b9 01 2a
        E 8 b9 01 02
        E 8 b9 01 09
        E 8 b9 01 06
        E 8 b9 01 01
        E 8 b9 01 09
        E 8 b9 01 08
        E 8 b9 01 01
        E 8 b9 01 01
        E 8 b9 01 06
        E 8 b9 01 0c
        E 8 b9 01 0a
        E 8 b9 01 0b
        E 8 b9 01 07
        E 8 b9 01 01
        E 8 b9 01 02
        E 8 b9 01 08
        E 8 b9 01 07
        E 8 b9 01 03
        E 8 b9 01 02
        E 8 b9 01 03
        E 8 b9 01 09
        E 8 b9 01 05
        E 8 b9 01 03
        E 8 b9 01 07
        E 8 b9 01 0c
        E 8 b9 01 00
        E 8 b9 01 01
        E 8 b9 01 05
        E 8 b9 01 04
        E 8 b9 01 0a
        E 8 b9 01 02
        E 8 b9 01 00
        E 8 b9 01 02
        E 8 b9 01 02
        E 8 b9 01 0b
        E 8 b9 01 03
        E 8 b9 01 00
        E 8 b9 01 09
        E 8 b9 01 04
        E 8 b9 01 02
        E 8 b9 01 05
        E 8 b9 01 03
        E 8 b9 01 0a
        E 8 b9 01 0a
        E 8 b9 01 0c
        E 8 b9 01 0a
        E 8 b9 01 05
        E 8 b9 01 0b
        E 8 b9 01 09
        E 8 b9 01 01
        E 8 b9 01 05
        E 8 b9 01 06
        E 8 b9 01 0c
        E 8 b9 01 09
        E 8 b9 01 06
        E 8 b9 01 07
        E 8 b9 01 00
        E 8 b9 01 01
        E 8 b9 01 0b
        E 8 b9 01 0a
        E 8 b9 01 05
        E 8 b9 01 04
        E 8 b9 01 01
        E 8 b9 01 05
        E 8 b9 01 03
        E 8 b9 01 03
        E 8 b9 01 04
        E 8 b9 01 06
        E 8 b9 01 07
        E 8 b9 01 08
        E 8 b9 01 02
        E 8 b9 01 07
        E 8 b9 01 0b
        E 8 b9 01 06
        E 8 b9 01 07
        E 8 b9 01 00
        E 8 b9 01 00
        E 8 b9 01 0c
        E 8 b9 01 08
        E 8 b9 01 02
        E 8 b9 01 0b
        E 8 b9 01 04
        E 8 b9 01 04
        E 8 b9 01 06
        E 8 b9 01 05
        E 8 b9 01 08
        E 8 b9 01 0a
        E 8 b9 01 03
        E 8 b9 01 07
        E 8 b9 01 02
        E 8 b9 01 0b
        E 8 b9 01 0a
        E 8 b9 01 05
        E 8 b9 01 04
        E 8 b9 01 0a
        E 8 b9 01 04
        E 8 b9 01 08
        E 8 b9 01 01
        E 8 b9 01 00
        E 8 b9 01 04
        E 8 b9 01 06
        E 8 b9 01 0a
        E 8 b9 01 09
        E 8 b9 01 00
        E 8 b9 01 0b
        E 8 b9 01 09
        E 8 b9 01 00
        E 8 b9 01 03
        E 8 b9 01 07
        E 8 b9 01 09
        E 8 b9 01 0c
        E 8 b9 01 07
        E 8 b9 01 05
        E 8 b9 01 03
        E 8 b9 01 08
        E 8 b9 01 09
        E 8 b9 01 0b
        E 8 b9 01 0c
        E 8 b9 01 06
        E 8 b9 01 08
        E 8 b9 01 08
        E 8 b9 01 06
        E 8 b9 01 0b
        E 8 b9 01 01
        E 8 b9 01 04
        E 8 b9 01 08
        E 85 b9 01 0b
        E 85 b9 01 26
        E 85 b9 01 19
        E 85 b9 01 04
        E 85 b9 01 24
        E 85 b9 01 20
        E 85 b9 01 04
        E 85 b9 01 04
        E 85 b9 01 18
        E 85 b9 01 30
        E 85 b9 01 28
        E 85 b9 01 2c
        E 85 b9 01 1f
        E 85 b9 01 05
        E 85 b9 01 09
        E 85 b9 01 22
        E 85 b9 01 1c
        E 85 b9 01 0e
        E 85 b9 01 0a
        E 85 b9 01 0d
        E 85 b9 01 27
        E 85 b9 01 17
        E 85 b9 01 0c
        E 85 b9 01 1d
        E 85 b9 01 32
        E 85 b9 01 00
        E 85 b9 01 06
        E 85 b9 01 14
        E 85 b9 01 11
        E 85 b9 01 29
        E 85 b9 01 0a
        E 85 b9 01 03
        E 85 b9 01 08
        E 85 b9 01 08
        E 85 b9 01 2e
        E 85 b9 01 0c
        E 85 b9 01 00
        E 85 b9 01 25
        E 85 b9 01 11
        E 85 b9 01 0a
        E 85 b9 01 14
        E 85 b9 01 0d
        E 85 b9 01 2b
        E 85 b9 01 2a
        E 85 b9 01 32
        E 85 b9 01 2a
        E 85 b9 01 16
        E 85 b9 01 2f
        E 85 b9 01 24
        E 85 b9 01 06
        E 85 b9 01 16
        E 85 b9 01 1b
        E 85 b9 01 30
        E 85 b9 01 26
        E 85 b9 01 1b
        E 85 b9 01 1c
        E 85 b9 01 02
        E 85 b9 01 05
        E 85 b9 01 2e
        E 85 b9 01 28
        E 85 b9 01 15
        E 85 b9 01 10
        E 85 b9 01 06
        E 85 b9 01 16
        E 85 b9 01 0f
        E 85 b9 01 0c
        E 85 b9 01 13
        E 85 b9 01 1a
        E 85 b9 01 1e
        E 85 b9 01 20
        E 85 b9 01 08
        E 85 b9 01 1e
        E 85 b9 01 2d
        E 85 b9 01 1a
        E 85 b9 01 1d
        E 85 b9 01 01
        E 85 b9 01 03
        E 85 b9 01 32
        E 85 b9 01 21
        E 85 b9 01 09
        E 85 b9 01 2e
        E 85 b9 01 10
        E 85 b9 01 13
        E 85 b9 01 18
        E 85 b9 01 14
        E 85 b9 01 22
        E 85 b9 01 29
        E 85 b9 01 0e
        E 85 b9 01 1c
        E 85 b9 01 0b
        E 85 b9 01 2d
        E 85 b9 01 2a
        E 85 b9 01 17
        E 85 b9 01 12
        E 85 b9 01 28
        E 85 b9 01 12
        E 85 b9 01 23
        E 85 b9 01 07
        E 85 b9 01 00
        E 85 b9 01 10
        E 85 b9 01 19
        E 85 b9 01 2b
        E 85 b9 01 27
        E 85 b9 01 01
        E 85 b9 01 2c
        E 85 b9 01 25
        E 85 b9 01 02
        E 85 b9 01 0f
        E 85 b9 01 1e
        E 85 b9 01 26
        E 85 b9 01 30
        E 85 b9 01 1f
        E 85 b9 01 15
        E 85 b9 01 0e
        E 85 b9 01 23
        E 85 b9 01 24
        E 85 b9 01 2c
        E 85 b9 01 31
        E 85 b9 01 18
        E 85 b9 01 20
        E 85 b9 01 22
        E 85 b9 01 1a
        E 85 b9 01 2f
        E 85 b9 01 07
        E 85 b9 01 12
        E 85 b9 01 21
        E 8 b9 01 0b
        E 8 b9 01 26
        E 8 b9 01 19
        E 8 b9 01 04
        E 8 b9 01 24
        E 8 b9 01 20
        E 8 b9 01 04
        E 8 b9 01 04
        E 8 b9 01 18
        E 8 b9 01 30
        E 8 b9 01 28
        E 8 b9 01 2c
        E 8 b9 01 1f
        E 8 b9 01 05
        E 8 b9 01 09
        E 8 b9 01 22
        E 8 b9 01 1c
        E 8 b9 01 0e
        E 8 b9 01 0a
        E 8 b9 01 0d
        E 8 b9 01 27
        E 8 b9 01 17
        E 8 b9 01 0c
        E 8 b9 01 1d
        E 8 b9 01 32
        E 8 b9 01 00
        E 8 b9 01 06
        E 8 b9 01 14
        E 8 b9 01 11
        E 8 b9 01 29
        E 8 b9 01 0a
        E 8 b9 01 03
        E 8 b9 01 08
        E 8 b9 01 08
        E 8 b9 01 2e
        E 8 b9 01 0c
        E 8 b9 01 00
        E 8 b9 01 25
        E 8 b9 01 11
        E 8 b9 01 0a
        E 8 b9 01 14
        E 8 b9 01 0d
        E 8 b9 01 2b
        E 8 b9 01 2a
        E 8 b9 01 32
        E 8 b9 01 2a
        E 8 b9 01 16
        E 8 b9 01 2f
        E 8 b9 01 24
        E 8 b9 01 06
        E 8 b9 01 16
        E 8 b9 01 1b
        E 8 b9 01 30
        E 8 b9 01 26
        E 8 b9 01 1b
        E 8 b9 01 1c
        E 8 b9 01 02
        E 8 b9 01 05
        E 8 b9 01 2e
        E 8 b9 01 28
        E 8 b9 01 15
        E 8 b9 01 10
        E 8 b9 01 06
        E 8 b9 01 16
        E 8 b9 01 0f
        E 8 b9 01 0c
        E 8 b9 01 13
        E 8 b9 01 1a
        E 8 b9 01 1e
        E 8 b9 01 20
        E 8 b9 01 08
        E 8 b9 01 1e
        E 8 b9 01 2d
        E 8 b9 01 1a
        E 8 b9 01 1d
        E 8 b9 01 01
        E 8 b9 01 03
        E 8 b9 01 32
        E 8 b9 01 21
        E 8 b9 01 09
        E 8 b9 01 2e
        E 8 b9 01 10
        E 8 b9 01 13
        E 8 b9 01 18
        E 8 b9 01 14
        E 8 b9 01 22
        E 8 b9 01 29
        E 8 b9 01 0e
        E 8 b9 01 1c
        E 8 b9 01 0b
        E 8 b9 01 2d
        E 8 b9 01 2a
        E 8 b9 01 17
        E 8 b9 01 12
        E 8 b9 01 28
        E 8 b9 01 12
        E 8 b9 01 23
        E 8 b9 01 07
        E 8 b9 01 00
        E 8 b9 01 10
        E 8 b9 01 19
        E 8 b9 01 2b
        E 8 b9 01 27
        E 8 b9 01 01
        E 8 b9 01 2c
        E 8 b9 01 25
        E 8 b9 01 02
        E 8 b9 01 0f
        E 8 b9 01 1e
        E 8 b9 01 26
        E 8 b9 01 30
        E 8 b9 01 1f
        E 8 b9 01 15
        E 8 b9 01 0e
        E 8 b9 01 23
        E 8 b9 01 24
        E 8 b9 01 2c
        E 8 b9 01 31
        E 8 b9 01 18
        E 8 b9 01 20
        E 8 b9 01 22
        E 8 b9 01 1a
        E 8 b9 01 2f
        E 8 b9 01 07
        E 8 b9 01 12
        E 8 b9 01 21
        E 34 b9 01 0e
        E 34 b9 01 30
        E 34 b9 01 1f
        E 34 b9 01 05
        E 34 b9 01 2d
        E 34 b9 01 28
        E 34 b9 01 06
        E 34 b9 01 05
        E 34 b9 01 1e
        E 34 b9 01 3c
        E 34 b9 01 32
        E 34 b9 01 37
        E 34 b9 01 27
        E 34 b9 01 07
        E 34 b9 01 0c
        E 34 b9 01 2b
        E 34 b9 01 23
        E 34 b9 01 12
        E 34 b9 01 0c
        E 34 b9 01 11
        E 34 b9 01 31
        E 34 b9 01 1d
        E 34 b9 01 0f
        E 34 b9 01 24
        E 34 b9 01 3f
        E 34 b9 01 00
        E 34 b9 01 08
        E 34 b9 01 1a
        E 34 b9 01 15
        E 34 b9 01 34
        E 34 b9 01 0d
        E 34 b9 01 04
        E 34 b9 01 0a
        E 34 b9 01 0b
        E 34 b9 01 39
        E 34 b9 01 10
        E 34 b9 01 00
        E 34 b9 01 2f
        E 34 b9 01 16
        E 34 b9 01 0d
        E 34 b9 01 19
        E 34 b9 01 10
        E 34 b9 01 36
        E 34 b9 01 35
        E 34 b9 01 3f
        E 34 b9 01 35
        E 34 b9 01 1b
        E 34 b9 01 3b
        E 34 b9 01 2d
        E 34 b9 01 07
        E 34 b9 01 1c
        E 34 b9 01 22
        E 34 b9 01 3c
        E 34 b9 01 30
        E 34 b9 01 22
        E 34 b9 01 23
        E 34 b9 01 03
        E 34 b9 01 06
        E 34 b9 01 3a
        E 34 b9 01 33
        E 34 b9 01 1b
        E 34 b9 01 14
        E 34 b9 01 08
        E 34 b9 01 1c
        E 34 b9 01 13
        E 34 b9 01 0f
        E 34 b9 01 18
        E 34 b9 01 21
        E 34 b9 01 26
        E 34 b9 01 29
        E 34 b9 01 0a
        E 34 b9 01 26
        E 34 b9 01 38
        E 34 b9 01 20
        E 34 b9 01 25
        E 34 b9 01 01
        E 34 b9 01 04
        E 34 b9 01 3e
        E 34 b9 01 29
        E 34 b9 01 0b
        E 34 b9 01 3a
        E 34 b9 01 14
        E 34 b9 01 18
        E 34 b9 01 1f
        E 34 b9 01 19
        E 34 b9 01 2a
        E 34 b9 01 33
        E 34 b9 01 12
        E 34 b9 01 24
        E 34 b9 01 0e
        E 34 b9 01 39
        E 34 b9 01 34
        E 34 b9 01 1d
        E 34 b9 01 17
        E 34 b9 01 32
        E 34 b9 01 17
        E 34 b9 01 2c
        E 34 b9 01 09
        E 34 b9 01 01
        E 34 b9 01 15
        E 34 b9 01 20
        E 34 b9 01 36
        E 34 b9 01 31
        E 34 b9 01 02
        E 34 b9 01 37
        E 34 b9 01 2e
        E 34 b9 01 03
        E 34 b9 01 13
        E 34 b9 01 25
        E 34 b9 01 2f
        E 34 b9 01 3d
        E 34 b9 01 27
        E 34 b9 01 1a
        E 34 b9 01 11
        E 34 b9 01 2c
        E 34 b9 01 2e
        E 34 b9 01 38
        E 34 b9 01 3e
        E 34 b9 01 1e
        E 34 b9 01 28
        E 34 b9 01 2b
        E 34 b9 01 21
        E 34 b9 01 3b
        E 34 b9 01 09
        E 34 b9 01 16
        E 34 b9 01 2a
        E 17 b9 01 02
        E 17 b9 01 09
        E 17 b9 01 06
        E 17 b9 01 01
        E 17 b9 01 09
        E 17 b9 01 08
        E 17 b9 01 01
        E 17 b9 01 01
        E 17 b9 01 06
        E 17 b9 01 0c
        E 17 b9 01 0a
        E 17 b9 01 0b
        E 17 b9 01 07
        E 17 b9 01 01
        E 17 b9 01 02
        E 17 b9 01 08
        E 17 b9 01 07
        E 17 b9 01 03
        E 17 b9 01 02
        E 17 b9 01 03
        E 17 b9 01 09
        E 17 b9 01 05
        E 17 b9 01 03
        E 17 b9 01 07
        E 17 b9 01 0c
        E 17 b9 01 00
        E 17 b9 01 01
        E 17 b9 01 05
        E 17 b9 01 04
        E 17 b9 01 0a
        E 17 b9 01 02
        E 17 b9 01 00
        E 17 b9 01 02
        E 17 b9 01 02
        E 17 b9 01 0b
        E 17 b9 01 03
        E 17 b9 01 00
        E 17 b9 01 09
        E 17 b9 01 04
        E 17 b9 01 02
        E 17 b9 01 05
        E 17 b9 01 03
        E 17 b9 01 0a
        E 17 b9 01 0a
        E 17 b9 01 0c
        E 17 b9 01 0a
        E 17 b9 01 05
        E 17 b9 01 0b
        E 17 b9 01 09
        E 17 b9 01 01
        E 17 b9 01 05
        E 17 b9 01 06
        E 17 b9 01 0c
        E 17 b9 01 09
        E 17 b9 01 06
        E 17 b9 01 07
        E 17 b9 01 00
        E 17 b9 01 01
        E 17 b9 01 0b
        E 17 b9 01 0a
        E 17 b9 01 05
        E 17 b9 01 04
        E 17 b9 01 01
        E 17 b9 01 05
        E 17 b9 01 03
        E 17 b9 01 03
        E 17 b9 01 04
        E 17 b9 01 06
        E 17 b9 01 07
        E 17 b9 01 08
        E 17 b9 01 02
        E 17 b9 01 07
        E 17 b9 01 0b
        E 17 b9 01 06
        E 17 b9 01 07
        E 17 b9 01 00
        E 17 b9 01 00
        E 17 b9 01 0c
        E 17 b9 01 08
        E 17 b9 01 02
        E 17 b9 01 0b
        E 17 b9 01 04
        E 17 b9 01 04
        E 17 b9 01 06
        E 17 b9 01 05
        E 17 b9 01 08
        E 17 b9 01 0a
        E 17 b9 01 03
        E 17 b9 01 07
        E 17 b9 01 02
        E 17 b9 01 0b
        E 17 b9 01 0a
        E 17 b9 01 05
        E 17 b9 01 04
        E 17 b9 01 0a
        E 17 b9 01 04
        E 17 b9 01 08
        E 17 b9 01 01
        E 17 b9 01 00
        E 17 b9 01 04
        E 17 b9 01 06
        E 17 b9 01 0a
        E 17 b9 01 09
        E 17 b9 01 00
        E 17 b9 01 0b
        E 17 b9 01 09
        E 17 b9 01 00
        E 17 b9 01 03
        E 17 b9 01 07
        E 17 b9 01 09
        E 17 b9 01 0c
        E 17 b9 01 07
        E 17 b9 01 05
        E 17 b9 01 03
        E 17 b9 01 08
        E 17 b9 01 09
        E 17 b9 01 0b
        E 17 b9 01 0c
        E 17 b9 01 06
        E 17 b9 01 08
        E 17 b9 01 08
        E 17 b9 01 06
        E 17 b9 01 0b
        E 17 b9 01 01
        E 17 b9 01 04
        E 17 b9 01 08
        E 85 b9 01 0e
        E 85 b9 01 30
        E 85 b9 01 1f
        E 85 b9 01 05
        E 85 b9 01 2d
        E 85 b9 01 28
        E 85 b9 01 06
        E 85 b9 01 05
        E 85 b9 01 1e
        E 85 b9 01 3c
        E 85 b9 01 32
        E 85 b9 01 37
        E 85 b9 01 27
        E 85 b9 01 07
        E 85 b9 01 0c
        E 85 b9 01 2b
        E 85 b9 01 23
        E 85 b9 01 12
        E 85 b9 01 0c
        E 85 b9 01 11
        E 85 b9 01 31
        E 85 b9 01 1d
        E 85 b9 01 0f
        E 85 b9 01 24
        E 85 b9 01 3f
        E 85 b9 01 00
        E 85 b9 01 08
        E 85 b9 01 1a
        E 85 b9 01 15
        E 85 b9 01 34
        E 85 b9 01 0d
        E 85 b9 01 04
        E 85 b9 01 0a
        E 85 b9 01 0b
        E 85 b9 01 39
        E 85 b9 01 10
        E 85 b9 01 00
        E 85 b9 01 2f
        E 85 b9 01 16
        E 85 b9 01 0d
        E 85 b9 01 19
        E 85 b9 01 10
        E 85 b9 01 36
        E 85 b9 01 35
        E 85 b9 01 3f
        E 85 b9 01 35
        E 85 b9 01 1b
        E 85 b9 01 3b
        E 85 b9 01 2d
        E 85 b9 01 07
        E 85 b9 01 1c
        E 85 b9 01 22
        E 85 b9 01 3c
        E 85 b9 01 30
        E 85 b9 01 22
        E 85 b9 01 23
        E 85 b9 01 03
        E 85 b9 01 06
        E 85 b9 01 3a
        E 85 b9 01 33
        E 85 b9 01 1b
        E 85 b9 01 14
        E 85 b9 01 08
        E 85 b9 01 1c
        E 85 b9 01 13
        E 85 b9 01 0f
        E 85 b9 01 18
        E 85 b9 01 21
        E 85 b9 01 26
        E 85 b9 01 29
        E 85 b9 01 0a
        E 85 b9 01 26
        E 85 b9 01 38
        E 85 b9 01 20
        E 85 b9 01 25
        E 85 b9 01 01
        E 85 b9 01 04
        E 85 b9 01 3e
        E 85 b9 01 29
        E 85 b9 01 0b
        E 85 b9 01 3a
        E 85 b9 01 14
        E 85 b9 01 18
        E 85 b9 01 1f
        E 85 b9 01 19
        E 85 b9 01 2a
        E 85 b9 01 33
        E 85 b9 01 12
        E 85 b9 01 24
        E 85 b9 01 0e
        E 85 b9 01 39
        E 85 b9 01 34
        E 85 b9 01 1d
        E 85 b9 01 17
        E 85 b9 01 32
        E 85 b9 01 17
        E 85 b9 01 2c
        E 85 b9 01 09
        E 85 b9 01 01
        E 85 b9 01 15
        E 85 b9 01 20
        E 85 b9 01 36
        E 85 b9 01 31
        E 85 b9 01 02
        E 85 b9 01 37
        E 85 b9 01 2e
        E 85 b9 01 03
        E 85 b9 01 13
        E 85 b9 01 25
        E 85 b9 01 2f
        E 85 b9 01 3d
        E 85 b9 01 27
        E 85 b9 01 1a
        E 85 b9 01 11
        E 85 b9 01 2c
        E 85 b9 01 2e
        E 85 b9 01 38
        E 85 b9 01 3e
        E 85 b9 01 1e
        E 85 b9 01 28
        E 85 b9 01 2b
        E 85 b9 01 21
        E 85 b9 01 3b
        E 85 b9 01 09
        E 85 b9 01 16
        E 85 b9 01 2a
        E 1 b9 01 19
        E 1 b9 01 1a
        E 1 b9 01 1c
        E 1 b9 01 1d
        E 1 b9 01 1e
        E 1 b9 01 1f
        E 1 b9 01 20
        E 1 b9 01 22
        E 1 b9 01 23
        E 1 b9 01 24
        E 1 b9 01 25
        E 1 b9 01 26
        E 1 b9 01 27
        E 1 b9 01 28
        E 1 b9 01 29
        E 1 b9 01 2a
        E 1 b9 01 2b
        E 1 b9 01 2c
        E 1 b9 01 2d
        E 1 b9 01 2e
        E 1 b9 01 2e
        E 1 b9 01 2f
        E 1 b9 01 30
        E 1 b9 01 30
        E 1 b9 01 30
        E 1 b9 01 31
        E 1 b9 01 31
        E 1 b9 01 32
        E 1 b9 01 32
        E 1 b9 01 32
        E 1 b9 01 32
        E 1 b9 01 32
        E 1 b9 01 32
        E 1 b9 01 32
        E 1 b9 01 32
        E 1 b9 01 32
        E 1 b9 01 32
        E 1 b9 01 32
        E 1 b9 01 31
        E 1 b9 01 31
        E 1 b9 01 30
        E 1 b9 01 30
        E 1 b9 01 2f
        E 1 b9 01 2e
        E 1 b9 01 2e
        E 1 b9 01 2d
        E 1 b9 01 2c
        E 1 b9 01 2c
        E 1 b9 01 2b
        E 1 b9 01 2a
        E 1 b9 01 29
        E 1 b9 01 28
        E 1 b9 01 27
        E 1 b9 01 26
        E 1 b9 01 24
        E 1 b9 01 23
        E 1 b9 01 22
        E 1 b9 01 21
        E 1 b9 01 20
        E 1 b9 01 1f
        E 1 b9 01 1d
        E 1 b9 01 1c
        E 1 b9 01 1b
        E 1 b9 01 1a
        E 1 b9 01 18
        E 1 b9 01 17
        E 1 b9 01 16
        E 1 b9 01 15
        E 1 b9 01 13
        E 1 b9 01 12
        E 1 b9 01 11
        E 1 b9 01 10
        E 1 b9 01 0f
        E 1 b9 01 0e
        E 1 b9 01 0c
        E 1 b9 01 0b
        E 1 b9 01 0a
        E 1 b9 01 09
        E 1 b9 01 08
        E 1 b9 01 07
        E 1 b9 01 06
        E 1 b9 01 06
        E 1 b9 01 05
        E 1 b9 01 04
        E 1 b9 01 04
        E 1 b9 01 03
        E 1 b9 01 02
        E 1 b9 01 02
        E 1 b9 01 01
        E 1 b9 01 01
        E 1 b9 01 00
        E 1 b9 01 00
        E 1 b9 01 00
        E 1 b9 01 00
        E 1 b9 01 00
        E 1 b9 01 00
        E 1 b9 01 00
        E 1 b9 01 00
        E 1 b9 01 00
        E 1 b9 01 00
        E 1 b9 01 00
        E 1 b9 01 01
        E 1 b9 01 01
        E 1 b9 01 02
        E 1 b9 01 02
        E 1 b9 01 02
        E 1 b9 01 03
        E 1 b9 01 04
        E 1 b9 01 04
        E 1 b9 01 05
        E 1 b9 01 06
        E 1 b9 01 07
        E 1 b9 01 08
        E 1 b9 01 09
        E 1 b9 01 0a
        E 1 b9 01 0b
        E 1 b9 01 0c
        E 1 b9 01 0d
        E 1 b9 01 0e
        E 1 b9 01 0f
        E 1 b9 01 10
        E 1 b9 01 12
        E 1 b9 01 13
        E 1 b9 01 14
        E 1 b9 01 15
        E 1 b9 01 16
        E 1 b9 01 18
        E 1 b9 01 19
        E 4 b9 01 20
        E 4 b9 01 21
        E 4 b9 01 23
        E 4 b9 01 24
        E 4 b9 01 26
        E 4 b9 01 27
        E 4 b9 01 29
        E 4 b9 01 2a
        E 4 b9 01 2c
        E 4 b9 01 2d
        E 4 b9 01 2f
        E 4 b9 01 30
        E 4 b9 01 31
        E 4 b9 01 33
        E 4 b9 01 34
        E 4 b9 01 35
        E 4 b9 01 36
        E 4 b9 01 37
        E 4 b9 01 38
        E 4 b9 01 39
        E 4 b9 01 3a
        E 4 b9 01 3b
        E 4 b9 01 3c
        E 4 b9 01 3c
        E 4 b9 01 3d
        E 4 b9 01 3d
        E 4 b9 01 3e
        E 4 b9 01 3e
        E 4 b9 01 3f
        E 4 b9 01 3f
        E 4 b9 01 3f
        E 4 b9 01 3f
        E 4 b9 01 3f
        E 4 b9 01 3f
        E 4 b9 01 3f
        E 4 b9 01 3f
        E 4 b9 01 3f
        E 4 b9 01 3e
        E 4 b9 01 3e
        E 4 b9 01 3d
        E 4 b9 01 3d
        E 4 b9 01 3c
        E 4 b9 01 3b
        E 4 b9 01 3a
        E 4 b9 01 3a
        E 4 b9 01 39
        E 4 b9 01 38
        E 4 b9 01 37
        E 4 b9 01 36
        E 4 b9 01 34
        E 4 b9 01 33
        E 4 b9 01 32
        E 4 b9 01 31
        E 4 b9 01 2f
        E 4 b9 01 2e
        E 4 b9 01 2c
        E 4 b9 01 2b
        E 4 b9 01 2a
        E 4 b9 01 28
        E 4 b9 01 27
        E 4 b9 01 25
        E 4 b9 01 23
        E 4 b9 01 22
        E 4 b9 01 20
        E 4 b9 01 1f
        E 4 b9 01 1d
        E 4 b9 01 1c
        E 4 b9 01 1a
        E 4 b9 01 18
        E 4 b9 01 17
        E 4 b9 01 15
        E 4 b9 01 14
        E 4 b9 01 13
        E 4 b9 01 11
        E 4 b9 01 10
        E 4 b9 01 0e
        E 4 b9 01 0d
        E 4 b9 01 0c
        E 4 b9 01 0b
        E 4 b9 01 09
        E 4 b9 01 08
        E 4 b9 01 07
        E 4 b9 01 06
        E 4 b9 01 05
        E 4 b9 01 05
        E 4 b9 01 04
        E 4 b9 01 03
        E 4 b9 01 02
        E 4 b9 01 02
        E 4 b9 01 01
        E 4 b9 01 01
        E 4 b9 01 00
        E 4 b9 01 00
        E 4 b9 01 00
        E 4 b9 01 00
        E 4 b9 01 00
        E 4 b9 01 00
        E 4 b9 01 00
        E 4 b9 01 00
        E 4 b9 01 00
        E 4 b9 01 01
        E 4 b9 01 01
        E 4 b9 01 02
        E 4 b9 01 02
        E 4 b9 01 03
        E 4 b9 01 03
        E 4 b9 01 04
        E 4 b9 01 05
        E 4 b9 01 06
        E 4 b9 01 07
        E 4 b9 01 08
        E 4 b9 01 09
        E 4 b9 01 0a
        E 4 b9 01 0b
        E 4 b9 01 0c
        E 4 b9 01 0e
        E 4 b9 01 0f
        E 4 b9 01 10
        E 4 b9 01 12
        E 4 b9 01 13
        E 4 b9 01 15
        E 4 b9 01 16
        E 4 b9 01 18
        E 4 b9 01 19
        E 4 b9 01 1b
        E 4 b9 01 1c
        E 4 b9 01 1e
        E 4 b9 01 20
        E 2 b9 01 06
        E 2 b9 01 06
        E 2 b9 01 07
        E 2 b9 01 07
        E 2 b9 01 07
        E 2 b9 01 07
        E 2 b9 01 08
        E 2 b9 01 08
        E 2 b9 01 08
        E 2 b9 01 09
        E 2 b9 01 09
        E 2 b9 01 09
        E 2 b9 01 09
        E 2 b9 01 0a
        E 2 b9 01 0a
        E 2 b9 01 0a
        E 2 b9 01 0a
        E 2 b9 01 0b
        E 2 b9 01 0b
        E 2 b9 01 0b
        E 2 b9 01 0b
        E 2 b9 01 0b
        E 2 b9 01 0c
        E 2 b9 01 0c
        E 2 b9 01 0c
        E 2 b9 01 0c
        E 2 b9 01 0c
        E 2 b9 01 0c
        E 2 b9 01 0c
        E 2 b9 01 0c
        E 2 b9 01 0c
        E 2 b9 01 0c
        E 2 b9 01 0c
        E 2 b9 01 0c
        E 2 b9 01 0c
        E 2 b9 01 0c
        E 2 b9 01 0c
        E 2 b9 01 0c
        E 2 b9 01 0c
        E 2 b9 01 0c
        E 2 b9 01 0c
        E 2 b9 01 0c
        E 2 b9 01 0b
        E 2 b9 01 0b
        E 2 b9 01 0b
        E 2 b9 01 0b
        E 2 b9 01 0b
        E 2 b9 01 0b
        E 2 b9 01 0a
        E 2 b9 01 0a
        E 2 b9 01 0a
        E 2 b9 01 0a
        E 2 b9 01 09
        E 2 b9 01 09
        E 2 b9 01 09
        E 2 b9 01 08
        E 2 b9 01 08
        E 2 b9 01 08
        E 2 b9 01 08
        E 2 b9 01 07
        E 2 b9 01 07
        E 2 b9 01 07
        E 2 b9 01 06
        E 2 b9 01 06
        E 2 b9 01 06
        E 2 b9 01 05
        E 2 b9 01 05
        E 2 b9 01 05
        E 2 b9 01 04
        E 2 b9 01 04
        E 2 b9 01 04
        E 2 b9 01 04
        E 2 b9 01 03
        E 2 b9 01 03
        E 2 b9 01 03
        E 2 b9 01 02
        E 2 b9 01 02
        E 2 b9 01 02
        E 2 b9 01 02
        E 2 b9 01 01
        E 2 b9 01 01
        E 2 b9 01 01
        E 2 b9 01 01
        E 2 b9 01 01
        E 2 b9 01 01
        E 2 b9 01 00
        E 2 b9 01 00
        E 2 b9 01 00
        E 2 b9 01 00
        E 2 b9 01 00
        E 2 b9 01 00
        E 2 b9 01 00
        E 2 b9 01 00
        E 2 b9 01 00
        E 2 b9 01 00
        E 2 b9 01 00
        E 2 b9 01 00
        E 2 b9 01 00
        E 2 b9 01 00
        E 2 b9 01 00
        E 2 b9 01 00
        E 2 b9 01 00
        E 2 b9 01 00
        E 2 b9 01 00
        E 2 b9 01 00
        E 2 b9 01 00
        E 2 b9 01 00
        E 2 b9 01 01
        E 2 b9 01 01
        E 2 b9 01 01
        E 2 b9 01 01
        E 2 b9 01 01
        E 2 b9 01 02
        E 2 b9 01 02
        E 2 b9 01 02
        E 2 b9 01 02
        E 2 b9 01 03
        E 2 b9 01 03
        E 2 b9 01 03
        E 2 b9 01 03
        E 2 b9 01 04
        E 2 b9 01 04
        E 2 b9 01 04
        E 2 b9 01 05
        E 2 b9 01 05
        E 2 b9 01 05
        E 2 b9 01 06
        E 2 b9 01 06
        E 12 b9 01 20
        E 12 b9 01 21
        E 12 b9 01 23
        E 12 b9 01 24
        E 12 b9 01 26
        E 12 b9 01 27
        E 12 b9 01 29
        E 12 b9 01 2a
        E 12 b9 01 2c
        E 12 b9 01 2d
        E 12 b9 01 2f
        E 12 b9 01 30
        E 12 b9 01 31
        E 12 b9 01 33
        E 12 b9 01 34
        E 12 b9 01 35
        E 12 b9 01 36
        E 12 b9 01 37
        E 12 b9 01 38
        E 12 b9 01 39
        E 12 b9 01 3a
        E 12 b9 01 3b
        E 12 b9 01 3c
        E 12 b9 01 3c
        E 12 b9 01 3d
        E 12 b9 01 3d
        E 12 b9 01 3e
        E 12 b9 01 3e
        E 12 b9 01 3f
        E 12 b9 01 3f
        E 12 b9 01 3f
        E 12 b9 01 3f
        E 12 b9 01 3f
        E 12 b9 01 3f
        E 12 b9 01 3f
        E 12 b9 01 3f
        E 12 b9 01 3f
        E 12 b9 01 3e
        E 12 b9 01 3e
        E 12 b9 01 3d
        E 12 b9 01 3d
        E 12 b9 01 3c
        E 12 b9 01 3b
        E 12 b9 01 3a
        E 12 b9 01 3a
        E 12 b9 01 39
        E 12 b9 01 38
        E 12 b9 01 37
        E 12 b9 01 36
        E 12 b9 01 34
        E 12 b9 01 33
        E 12 b9 01 32
        E 12 b9 01 31
        E 12 b9 01 2f
        E 12 b9 01 2e
        E 12 b9 01 2c
        E 12 b9 01 2b
        E 12 b9 01 2a
        E 12 b9 01 28
        E 12 b9 01 27
        E 12 b9 01 25
        E 12 b9 01 23
        E 12 b9 01 22
        E 12 b9 01 20
        E 12 b9 01 1f
        E 12 b9 01 1d
        E 12 b9 01 1c
        E 12 b9 01 1a
        E 12 b9 01 18
        E 12 b9 01 17
        E 12 b9 01 15
        E 12 b9 01 14
        E 12 b9 01 13
        E 12 b9 01 11
        E 12 b9 01 10
        E 12 b9 01 0e
        E 12 b9 01 0d
        E 12 b9 01 0c
        E 12 b9 01 0b
        E 12 b9 01 09
        E 12 b9 01 08
        E 12 b9 01 07
        E 12 b9 01 06
        E 12 b9 01 05
        E 12 b9 01 05
        E 12 b9 01 04
        E 12 b9 01 03
        E 12 b9 01 02
        E 12 b9 01 02
        E 12 b9 01 01
        E 12 b9 01 01
        E 12 b9 01 00
        E 12 b9 01 00
        E 12 b9 01 00
        E 12 b9 01 00
        E 12 b9 01 00
        E 12 b9 01 00
        E 12 b9 01 00
        E 12 b9 01 00
        E 12 b9 01 00
        E 12 b9 01 01
        E 12 b9 01 01
        E 12 b9 01 02
        E 12 b9 01 02
        E 12 b9 01 03
        E 12 b9 01 03
        E 12 b9 01 04
        E 12 b9 01 05
        E 12 b9 01 06
        E 12 b9 01 07
        E 12 b9 01 08
        E 12 b9 01 09
        E 12 b9 01 0a
        E 12 b9 01 0b
        E 12 b9 01 0c
        E 12 b9 01 0e
        E 12 b9 01 0f
        E 12 b9 01 10
        E 12 b9 01 12
        E 12 b9 01 13
        E 12 b9 01 15
        E 12 b9 01 16
        E 12 b9 01 18
        E 12 b9 01 19
        E 12 b9 01 1b
        E 12 b9 01 1c
        E 12 b9 01 1e
        E 12 b9 01 20
        E 1 b9 01 06
        E 1 b9 01 06
        E 1 b9 01 07
        E 1 b9 01 07
        E 1 b9 01 07
        E 1 b9 01 07
        E 1 b9 01 08
        E 1 b9 01 08
        E 1 b9 01 08
        E 1 b9 01 09
        E 1 b9 01 09
        E 1 b9 01 09
        E 1 b9 01 09
        E 1 b9 01 0a
        E 1 b9 01 0a
        E 1 b9 01 0a
        E 1 b9 01 0a
        E 1 b9 01 0b
        E 1 b9 01 0b
        E 1 b9 01 0b
        E 1 b9 01 0b
        E 1 b9 01 0b
        E 1 b9 01 0c
        E 1 b9 01 0c
        E 1 b9 01 0c
        E 1 b9 01 0c
        E 1 b9 01 0c
        E 1 b9 01 0c
        E 1 b9 01 0c
        E 1 b9 01 0c
        E 1 b9 01 0c
        E 1 b9 01 0c
        E 1 b9 01 0c
        E 1 b9 01 0c
        E 1 b9 01 0c
        E 1 b9 01 0c
        E 1 b9 01 0c
        E 1 b9 01 0c
        E 1 b9 01 0c
        E 1 b9 01 0c
        E 1 b9 01 0c
        E 1 b9 01 0c
        E 1 b9 01 0b
        E 1 b9 01 0b
        E 1 b9 01 0b
        E 1 b9 01 0b
        E 1 b9 01 0b
        E 1 b9 01 0b
        E 1 b9 01 0a
        E 1 b9 01 0a
        E 1 b9 01 0a
        E 1 b9 01 0a
        E 1 b9 01 09
        E 1 b9 01 09
        E 1 b9 01 09
        E 1 b9 01 08
        E 1 b9 01 08
        E 1 b9 01 08
        E 1 b9 01 08
        E 1 b9 01 07
        E 1 b9 01 07
        E 1 b9 01 07
        E 1 b9 01 06
        E 1 b9 01 06
        E 1 b9 01 06
        E 1 b9 01 05
        E 1 b9 01 05
        E 1 b9 01 05
        E 1 b9 01 04
        E 1 b9 01 04
        E 1 b9 01 04
        E 1 b9 01 04
        E 1 b9 01 03
        E 1 b9 01 03
        E 1 b9 01 03
        E 1 b9 01 02
        E 1 b9 01 02
        E 1 b9 01 02
        E 1 b9 01 02
        E 1 b9 01 01
        E 1 b9 01 01
        E 1 b9 01 01
        E 1 b9 01 01
        E 1 b9 01 01
        E 1 b9 01 01
        E 1 b9 01 00
        E 1 b9 01 00
        E 1 b9 01 00
        E 1 b9 01 00
        E 1 b9 01 00
        E 1 b9 01 00
        E 1 b9 01 00
        E 1 b9 01 00
        E 1 b9 01 00
        E 1 b9 01 00
        E 1 b9 01 00
        E 1 b9 01 00
        E 1 b9 01 00
        E 1 b9 01 00
        E 1 b9 01 00
        E 1 b9 01 00
        E 1 b9 01 00
        E 1 b9 01 00
        E 1 b9 01 00
        E 1 b9 01 00
        E 1 b9 01 00
        E 1 b9 01 00
        E 1 b9 01 01
        E 1 b9 01 01
        E 1 b9 01 01
        E 1 b9 01 01
        E 1 b9 01 01
        E 1 b9 01 02
        E 1 b9 01 02
        E 1 b9 01 02
        E 1 b9 01 02
        E 1 b9 01 03
        E 1 b9 01 03
        E 1 b9 01 03
        E 1 b9 01 03
        E 1 b9 01 04
        E 1 b9 01 04
        E 1 b9 01 04
        E 1 b9 01 05
        E 1 b9 01 05
        E 1 b9 01 05
        E 1 b9 01 06
        E 1 b9 01 06
        E 12 b9 01 19
        E 12 b9 01 1a
        E 12 b9 01 1c
        E 12 b9 01 1d
        E 12 b9 01 1e
        E 12 b9 01 1f
        E 12 b9 01 20
        E 12 b9 01 22
        E 12 b9 01 23
        E 12 b9 01 24
        E 12 b9 01 25
        E 12 b9 01 26
        E 12 b9 01 27
        E 12 b9 01 28
        E 12 b9 01 29
        E 12 b9 01 2a
        E 12 b9 01 2b
        E 12 b9 01 2c
        E 12 b9 01 2d
        E 12 b9 01 2e
        E 12 b9 01 2e
        E 12 b9 01 2f
        E 12 b9 01 30
        E 12 b9 01 30
        E 12 b9 01 30
        E 12 b9 01 31
        E 12 b9 01 31
        E 12 b9 01 32
        E 12 b9 01 32
        E 12 b9 01 32
        E 12 b9 01 32
        E 12 b9 01 32
        E 12 b9 01 32
        E 12 b9 01 32
        E 12 b9 01 32
        E 12 b9 01 32
        E 12 b9 01 32
        E 12 b9 01 32
        E 12 b9 01 31
        E 12 b9 01 31
        E 12 b9 01 30
        E 12 b9 01 30
        E 12 b9 01 2f
        E 12 b9 01 2e
        E 12 b9 01 2e
        E 12 b9 01 2d
        E 12 b9 01 2c
        E 12 b9 01 2c
        E 12 b9 01 2b
        E 12 b9 01 2a
        E 12 b9 01 29
        E 12 b9 01 28
        E 12 b9 01 27
        E 12 b9 01 26
        E 12 b9 01 24
        E 12 b9 01 23
        E 12 b9 01 22
        E 12 b9 01 21
        E 12 b9 01 20
        E 12 b9 01 1f
        E 12 b9 01 1d
        E 12 b9 01 1c
        E 12 b9 01 1b
        E 12 b9 01 1a
        E 12 b9 01 18
        E 12 b9 01 17
        E 12 b9 01 16
        E 12 b9 01 15
        E 12 b9 01 13
        E 12 b9 01 12
        E 12 b9 01 11
        E 12 b9 01 10
        E 12 b9 01 0f
        E 12 b9 01 0e
        E 12 b9 01 0c
        E 12 b9 01 0b
        E 12 b9 01 0a
        E 12 b9 01 09
        E 12 b9 01 08
        E 12 b9 01 07
        E 12 b9 01 06
        E 12 b9 01 06
        E 12 b9 01 05
        E 12 b9 01 04
        E 12 b9 01 04
        E 12 b9 01 03
        E 12 b9 01 02
        E 12 b9 01 02
        E 12 b9 01 01
        E 12 b9 01 01
        E 12 b9 01 00
        E 12 b9 01 00
        E 12 b9 01 00
        E 12 b9 01 00
        E 12 b9 01 00
        E 12 b9 01 00
        E 12 b9 01 00
        E 12 b9 01 00
        E 12 b9 01 00
        E 12 b9 01 00
        E 12 b9 01 00
        E 12 b9 01 01
        E 12 b9 01 01
        E 12 b9 01 02
        E 12 b9 01 02
        E 12 b9 01 02
        E 12 b9 01 03
        E 12 b9 01 04
        E 12 b9 01 04
        E 12 b9 01 05
        E 12 b9 01 06
        E 12 b9 01 07
        E 12 b9 01 08
        E 12 b9 01 09
        E 12 b9 01 0a
        E 12 b9 01 0b
        E 12 b9 01 0c
        E 12 b9 01 0d
        E 12 b9 01 0e
        E 12 b9 01 0f
        E 12 b9 01 10
        E 12 b9 01 12
        E 12 b9 01 13
        E 12 b9 01 14
        E 12 b9 01 15
        E 12 b9 01 16
        E 12 b9 01 18
        E 12 b9 01 19
        E 1 b9 01 19
        E 1 b9 01 1a
        E 1 b9 01 1c
        E 1 b9 01 1d
        E 1 b9 01 1e
        E 1 b9 01 1f
        E 1 b9 01 20
        E 1 b9 01 22
        E 1 b9 01 23
        E 1 b9 01 24
        E 1 b9 01 25
        E 1 b9 01 26
        E 1 b9 01 27
        E 1 b9 01 28
        E 1 b9 01 29
        E 1 b9 01 2a
        E 1 b9 01 2b
        E 1 b9 01 2c
        E 1 b9 01 2d
        E 1 b9 01 2e
        E 1 b9 01 2e
        E 1 b9 01 2f
        E 1 b9 01 30
        E 1 b9 01 30
        E 1 b9 01 30
        E 1 b9 01 31
        E 1 b9 01 31
        E 1 b9 01 32
        E 1 b9 01 32
        E 1 b9 01 32
        E 1 b9 01 32
        E 1 b9 01 32
        E 1 b9 01 32
        E 1 b9 01 32
        E 1 b9 01 32
        E 1 b9 01 32
        E 1 b9 01 32
        E 1 b9 01 32
        E 1 b9 01 31
        E 1 b9 01 31
        E 1 b9 01 30
        E 1 b9 01 30
        E 1 b9 01 2f
        E 1 b9 01 2e
        E 1 b9 01 2e
        E 1 b9 01 2d
        E 1 b9 01 2c
        E 1 b9 01 2c
        E 1 b9 01 2b
        E 1 b9 01 2a
        E 1 b9 01 29
        E 1 b9 01 28
        E 1 b9 01 27
        E 1 b9 01 26
        E 1 b9 01 24
        E 1 b9 01 23
        E 1 b9 01 22
        E 1 b9 01 21
        E 1 b9 01 20
        E 1 b9 01 1f
        E 1 b9 01 1d
        E 1 b9 01 1c
        E 1 b9 01 1b
        E 1 b9 01 1a
        E 1 b9 01 18
        E 1 b9 01 17
        E 1 b9 01 16
        E 1 b9 01 15
        E 1 b9 01 13
        E 1 b9 01 12
        E 1 b9 01 11
        E 1 b9 01 10
        E 1 b9 01 0f
        E 1 b9 01 0e
        E 1 b9 01 0c
        E 1 b9 01 0b
        E 1 b9 01 0a
        E 1 b9 01 09
        E 1 b9 01 08
        E 1 b9 01 07
        E 1 b9 01 06
        E 1 b9 01 06
        E 1 b9 01 05
        E 1 b9 01 04
        E 1 b9 01 04
        E 1 b9 01 03
        E 1 b9 01 02
        E 1 b9 01 02
        E 1 b9 01 01
        E 1 b9 01 01
        E 1 b9 01 00
        E 1 b9 01 00
        E 1 b9 01 00
        E 1 b9 01 00
        E 1 b9 01 00
        E 1 b9 01 00
        E 1 b9 01 00
        E 1 b9 01 00
        E 1 b9 01 00
        E 1 b9 01 00
        E 1 b9 01 00
        E 1 b9 01 01
        E 1 b9 01 01
        E 1 b9 01 02
        E 1 b9 01 02
        E 1 b9 01 02
        E 1 b9 01 03
        E 1 b9 01 04
        E 1 b9 01 04
        E 1 b9 01 05
        E 1 b9 01 06
        E 1 b9 01 07
        E 1 b9 01 08
        E 1 b9 01 09
        E 1 b9 01 0a
        E 1 b9 01 0b
        E 1 b9 01 0c
        E 1 b9 01 0d
        E 1 b9 01 0e
        E 1 b9 01 0f
        E 1 b9 01 10
        E 1 b9 01 12
        E 1 b9 01 13
        E 1 b9 01 14
        E 1 b9 01 15
        E 1 b9 01 16
        E 1 b9 01 18
        E 1 b9 01 19
        E 4 b9 01 20
        E 4 b9 01 21
        E 4 b9 01 23
        E 4 b9 01 24
        E 4 b9 01 26
        E 4 b9 01 27
        E 4 b9 01 29
        E 4 b9 01 2a
        E 4 b9 01 2c
        E 4 b9 01 2d
        E 4 b9 01 2f
        E 4 b9 01 30
        E 4 b9 01 31
        E 4 b9 01 33
        E 4 b9 01 34
        E 4 b9 01 35
        E 4 b9 01 36
        E 4 b9 01 37
        E 4 b9 01 38
        E 4 b9 01 39
        E 4 b9 01 3a
        E 4 b9 01 3b
        E 4 b9 01 3c
        E 4 b9 01 3c
        E 4 b9 01 3d
        E 4 b9 01 3d
        E 4 b9 01 3e
        E 4 b9 01 3e
        E 4 b9 01 3f
        E 4 b9 01 3f
        E 4 b9 01 3f
        E 4 b9 01 3f
        E 4 b9 01 3f
        E 4 b9 01 3f
        E 4 b9 01 3f
        E 4 b9 01 3f
        E 4 b9 01 3f
        E 4 b9 01 3e
        E 4 b9 01 3e
        E 4 b9 01 3d
        E 4 b9 01 3d
        E 4 b9 01 3c
        E 4 b9 01 3b
        E 4 b9 01 3a
        E 4 b9 01 3a
        E 4 b9 01 39
        E 4 b9 01 38
        E 4 b9 01 37
        E 4 b9 01 36
        E 4 b9 01 34
        E 4 b9 01 33
        E 4 b9 01 32
        E 4 b9 01 31
        E 4 b9 01 2f
        E 4 b9 01 2e
        E 4 b9 01 2c
        E 4 b9 01 2b
        E 4 b9 01 2a
        E 4 b9 01 28
        E 4 b9 01 27
        E 4 b9 01 25
        E 4 b9 01 23
        E 4 b9 01 22
        E 4 b9 01 20
        E 4 b9 01 1f
        E 4 b9 01 1d
        E 4 b9 01 1c
        E 4 b9 01 1a
        E 4 b9 01 18
        E 4 b9 01 17
        E 4 b9 01 15
        E 4 b9 01 14
        E 4 b9 01 13
        E 4 b9 01 11
        E 4 b9 01 10
        E 4 b9 01 0e
        E 4 b9 01 0d
        E 4 b9 01 0c
        E 4 b9 01 0b
        E 4 b9 01 09
        E 4 b9 01 08
        E 4 b9 01 07
        E 4 b9 01 06
        E 4 b9 01 05
        E 4 b9 01 05
        E 4 b9 01 04
        E 4 b9 01 03
        E 4 b9 01 02
        E 4 b9 01 02
        E 4 b9 01 01
        E 4 b9 01 01
        E 4 b9 01 00
        E 4 b9 01 00
        E 4 b9 01 00
        E 4 b9 01 00
        E 4 b9 01 00
        E 4 b9 01 00
        E 4 b9 01 00
        E 4 b9 01 00
        E 4 b9 01 00
        E 4 b9 01 01
        E 4 b9 01 01
        E 4 b9 01 02
        E 4 b9 01 02
        E 4 b9 01 03
        E 4 b9 01 03
        E 4 b9 01 04
        E 4 b9 01 05
        E 4 b9 01 06
        E 4 b9 01 07
        E 4 b9 01 08
        E 4 b9 01 09
        E 4 b9 01 0a
        E 4 b9 01 0b
        E 4 b9 01 0c
        E 4 b9 01 0e
        E 4 b9 01 0f
        E 4 b9 01 10
        E 4 b9 01 12
        E 4 b9 01 13
        E 4 b9 01 15
        E 4 b9 01 16
        E 4 b9 01 18
        E 4 b9 01 19
        E 4 b9 01 1b
        E 4 b9 01 1c
        E 4 b9 01 1e
        E 4 b9 01 20
        E 2 b9 01 06
        E 2 b9 01 06
        E 2 b9 01 07
        E 2 b9 01 07
        E 2 b9 01 07
        E 2 b9 01 07
        E 2 b9 01 08
        E 2 b9 01 08
        E 2 b9 01 08
        E 2 b9 01 09
        E 2 b9 01 09
        E 2 b9 01 09
        E 2 b9 01 09
        E 2 b9 01 0a
        E 2 b9 01 0a
        E 2 b9 01 0a
        E 2 b9 01 0a
        E 2 b9 01 0b
        E 2 b9 01 0b
        E 2 b9 01 0b
        E 2 b9 01 0b
        E 2 b9 01 0b
        E 2 b9 01 0c
        E 2 b9 01 0c
        E 2 b9 01 0c
        E 2 b9 01 0c
        E 2 b9 01 0c
        E 2 b9 01 0c
        E 2 b9 01 0c
        E 2 b9 01 0c
        E 2 b9 01 0c
        E 2 b9 01 0c
        E 2 b9 01 0c
        E 2 b9 01 0c
        E 2 b9 01 0c
        E 2 b9 01 0c
        E 2 b9 01 0c
        E 2 b9 01 0c
        E 2 b9 01 0c
        E 2 b9 01 0c
        E 2 b9 01 0c
        E 2 b9 01 0c
        E 2 b9 01 0b
        E 2 b9 01 0b
        E 2 b9 01 0b
        E 2 b9 01 0b
        E 2 b9 01 0b
        E 2 b9 01 0b
        E 2 b9 01 0a
        E 2 b9 01 0a
        E 2 b9 01 0a
        E 2 b9 01 0a
        E 2 b9 01 09
        E 2 b9 01 09
        E 2 b9 01 09
        E 2 b9 01 08
        E 2 b9 01 08
        E 2 b9 01 08
        E 2 b9 01 08
        E 2 b9 01 07
        E 2 b9 01 07
        E 2 b9 01 07
        E 2 b9 01 06
        E 2 b9 01 06
        E 2 b9 01 06
        E 2 b9 01 05
        E 2 b9 01 05
        E 2 b9 01 05
        E 2 b9 01 04
        E 2 b9 01 04
        E 2 b9 01 04
        E 2 b9 01 04
        E 2 b9 01 03
        E 2 b9 01 03
        E 2 b9 01 03
        E 2 b9 01 02
        E 2 b9 01 02
        E 2 b9 01 02
        E 2 b9 01 02
        E 2 b9 01 01
        E 2 b9 01 01
        E 2 b9 01 01
        E 2 b9 01 01
        E 2 b9 01 01
        E 2 b9 01 01
        E 2 b9 01 00
        E 2 b9 01 00
        E 2 b9 01 00
        E 2 b9 01 00
        E 2 b9 01 00
        E 2 b9 01 00
        E 2 b9 01 00
        E 2 b9 01 00
        E 2 b9 01 00
        E 2 b9 01 00
        E 2 b9 01 00
        E 2 b9 01 00
        E 2 b9 01 00
        E 2 b9 01 00
        E 2 b9 01 00
        E 2 b9 01 00
        E 2 b9 01 00
        E 2 b9 01 00
        E 2 b9 01 00
        E 2 b9 01 00
        E 2 b9 01 00
        E 2 b9 01 00
        E 2 b9 01 01
        E 2 b9 01 01
        E 2 b9 01 01
        E 2 b9 01 01
        E 2 b9 01 01
        E 2 b9 01 02
        E 2 b9 01 02
        E 2 b9 01 02
        E 2 b9 01 02
        E 2 b9 01 03
        E 2 b9 01 03
        E 2 b9 01 03
        E 2 b9 01 03
        E 2 b9 01 04
        E 2 b9 01 04
        E 2 b9 01 04
        E 2 b9 01 05
        E 2 b9 01 05
        E 2 b9 01 05
        E 2 b9 01 06
        E 2 b9 01 06
        E 106 b0 7b 00
        CCINTERP 32
        CHASE_CC_TAKEOFFS 1
        GUID {0C6DDBA3-1554-E34E-965E-7E26957FB1DB}
        IGNTEMPO 0 120 4 4
        SRCCOLOR 287
        VELLANE 3 601 0
        VELLANE -1 196 0
      >
    >
  >
  <TRACK {BC3402B7-50E9-CE40-9ECF-2D68C00669FD}
    NAME "pepto bismol 4oz bottle"
    PEAKCOL 16576
    BEAT -1
    AUTOMODE 0
    VOLPAN 1 0 -1 -1 1
    MUTESOLO 0 0 0
    IPHASE 0
    PLAYOFFS 0 1
    ISBUS 0 0
    BUSCOMP 0 0 0 0 0
    SHOWINMIX 1 0.6667 0.5 1 0.5 -1 -1 -1
    FREEMODE 0
    SEL 0
    REC 0 0 1 0 0 0 0
    VU 2
    TRACKHEIGHT 0 1 0 0 -1 0
    INQ 0 0 0 0.5 100 0 0 100
    NCHAN 2
    FX 1
    TRACKID {BC3402B7-50E9-CE40-9ECF-2D68C00669FD}
    PERF 0
    MIDIOUT -1
    MAINSEND 1 0
    <ITEM
      POSITION 0
      SNAPOFFS 0
      LENGTH 0.95238
      LOOP 1
      ALLTAKES 0
      FADEIN 1 0 0 1 0 0
      FADEOUT 1 0 0 1 0 0
      MUTE 0 0
      SEL 0
      IGUID {BA23F13D-79C2-984C-A13E-0EB7DD34E663}
      IID 23
      NAME "pepto bismol 4oz bottle.mid"
      VOLPAN 1 0 1 -1
      SOFFS 0 0
      PLAYRATE 1 1 0 -1 0 0.0025
      CHANMODE 0
      GUID {FA36502A-575C-974F-A410-A040B5332AF4}
      <SOURCE MIDI
        HASDATA 1 128 QN
        CCINTERP 32
        POOLEDEVTS {95A96E54-C914-7444-B78B-5225B0A4E99B}
        E 128 b0 7b 00
        CCINTERP 32
        CHASE_CC_TAKEOFFS 1
        GUID {D53D0B20-9E7B-2C4C-8500-58BC7ABE89EE}
        IGNTEMPO 0 120 4 4
        SRCCOLOR 288
        VELLANE 3 601 0
        VELLANE -1 196 0
      >
    >
  >
  <TRACK {942F9525-2EBB-9440-8777-21E32197B5B0}
    NAME "pepto bismol 4oz bottle"
    PEAKCOL 16576
    BEAT -1
    AUTOMODE 0
    VOLPAN 1 0 -1 -1 1
    MUTESOLO 0 0 0
    IPHASE 0
    PLAYOFFS 0 1
    ISBUS 0 0
    BUSCOMP 0 0 0 0 0
    SHOWINMIX 1 0.6667 0.5 1 0.5 -1 -1 -1
    FREEMODE 0
    SEL 0
    REC 0 0 1 0 0 0 0
    VU 2
    TRACKHEIGHT 0 1 0 0 -1 0
    INQ 0 0 0 0.5 100 0 0 100
    NCHAN 2
    FX 1
    TRACKID {942F9525-2EBB-9440-8777-21E32197B5B0}
    PERF 0
    MIDIOUT -1
    MAINSEND 1 0
    <ITEM
      POSITION 0
      SNAPOFFS 0
      LENGTH 561.9042
      LOOP 1
      ALLTAKES 0
      FADEIN 1 0 0 1 0 0
      FADEOUT 1 0 0 1 0 0
      MUTE 0 0
      SEL 0
      IGUID {0ECF7599-3BF1-CA4C-843D-9E40C40727BF}
      IID 24
      NAME "pepto bismol 4oz bottle.mid"
      VOLPAN 1 0 1 -1
      SOFFS 0 0
      PLAYRATE 1 1 0 -1 0 0.0025
      CHANMODE 0
      GUID {2D233AEF-A914-FF4F-8FD6-FAC790279404}
      <SOURCE MIDI
        HASDATA 1 128 QN
        CCINTERP 32
        POOLEDEVTS {5AFD76FE-B656-B545-B04A-A6854A32E0E2}
        E 2 bb 04 06
        E 2 bb 04 06
        E 2 bb 04 07
        E 2 bb 04 07
        E 2 bb 04 07
        E 2 bb 04 07
        E 2 bb 04 08
        E 2 bb 04 08
        E 2 bb 04 08
        E 2 bb 04 09
        E 2 bb 04 09
        E 2 bb 04 09
        E 2 bb 04 09
        E 2 bb 04 0a
        E 2 bb 04 0a
        E 2 bb 04 0a
        E 2 bb 04 0a
        E 2 bb 04 0b
        E 2 bb 04 0b
        E 2 bb 04 0b
        E 2 bb 04 0b
        E 2 bb 04 0b
        E 2 bb 04 0c
        E 2 bb 04 0c
        E 2 bb 04 0c
        E 2 bb 04 0c
        E 2 bb 04 0c
        E 2 bb 04 0c
        E 2 bb 04 0c
        E 2 bb 04 0c
        E 2 bb 04 0c
        E 2 bb 04 0c
        E 2 bb 04 0c
        E 2 bb 04 0c
        E 2 bb 04 0c
        E 2 bb 04 0c
        E 2 bb 04 0c
        E 2 bb 04 0c
        E 2 bb 04 0c
        E 2 bb 04 0c
        E 2 bb 04 0c
        E 2 bb 04 0c
        E 2 bb 04 0b
        E 2 bb 04 0b
        E 2 bb 04 0b
        E 2 bb 04 0b
        E 2 bb 04 0b
        E 2 bb 04 0b
        E 2 bb 04 0a
        E 2 bb 04 0a
        E 2 bb 04 0a
        E 2 bb 04 0a
        E 2 bb 04 09
        E 2 bb 04 09
        E 2 bb 04 09
        E 2 bb 04 08
        E 2 bb 04 08
        E 2 bb 04 08
        E 2 bb 04 08
        E 2 bb 04 07
        E 2 bb 04 07
        E 2 bb 04 07
        E 2 bb 04 06
        E 2 bb 04 06
        E 2 bb 04 06
        E 2 bb 04 05
        E 2 bb 04 05
        E 2 bb 04 05
        E 2 bb 04 04
        E 2 bb 04 04
        E 2 bb 04 04
        E 2 bb 04 04
        E 2 bb 04 03
        E 2 bb 04 03
        E 2 bb 04 03
        E 2 bb 04 02
        E 2 bb 04 02
        E 2 bb 04 02
        E 2 bb 04 02
        E 2 bb 04 01
        E 2 bb 04 01
        E 2 bb 04 01
        E 2 bb 04 01
        E 2 bb 04 01
        E 2 bb 04 01
        E 2 bb 04 00
        E 2 bb 04 00
        E 2 bb 04 00
        E 2 bb 04 00
        E 2 bb 04 00
        E 2 bb 04 00
        E 2 bb 04 00
        E 2 bb 04 00
        E 2 bb 04 00
        E 2 bb 04 00
        E 2 bb 04 00
        E 2 bb 04 00
        E 2 bb 04 00
        E 2 bb 04 00
        E 2 bb 04 00
        E 2 bb 04 00
        E 2 bb 04 00
        E 2 bb 04 00
        E 2 bb 04 00
        E 2 bb 04 00
        E 2 bb 04 00
        E 2 bb 04 00
        E 2 bb 04 01
        E 2 bb 04 01
        E 2 bb 04 01
        E 2 bb 04 01
        E 2 bb 04 01
        E 2 bb 04 02
        E 2 bb 04 02
        E 2 bb 04 02
        E 2 bb 04 02
        E 2 bb 04 03
        E 2 bb 04 03
        E 2 bb 04 03
        E 2 bb 04 03
        E 2 bb 04 04
        E 2 bb 04 04
        E 2 bb 04 04
        E 2 bb 04 05
        E 2 bb 04 05
        E 2 bb 04 05
        E 2 bb 04 06
        E 2 bb 04 06
        E 21 bb 04 19
        E 21 bb 04 1a
        E 21 bb 04 1c
        E 21 bb 04 1d
        E 21 bb 04 1e
        E 21 bb 04 1f
        E 21 bb 04 20
        E 21 bb 04 22
        E 21 bb 04 23
        E 21 bb 04 24
        E 21 bb 04 25
        E 21 bb 04 26
        E 21 bb 04 27
        E 21 bb 04 28
        E 21 bb 04 29
        E 21 bb 04 2a
        E 21 bb 04 2b
        E 21 bb 04 2c
        E 21 bb 04 2d
        E 21 bb 04 2e
        E 21 bb 04 2e
        E 21 bb 04 2f
        E 21 bb 04 30
        E 21 bb 04 30
        E 21 bb 04 30
        E 21 bb 04 31
        E 21 bb 04 31
        E 21 bb 04 32
        E 21 bb 04 32
        E 21 bb 04 32
        E 21 bb 04 32
        E 21 bb 04 32
        E 21 bb 04 32
        E 21 bb 04 32
        E 21 bb 04 32
        E 21 bb 04 32
        E 21 bb 04 32
        E 21 bb 04 32
        E 21 bb 04 31
        E 21 bb 04 31
        E 21 bb 04 30
        E 21 bb 04 30
        E 21 bb 04 2f
        E 21 bb 04 2e
        E 21 bb 04 2e
        E 21 bb 04 2d
        E 21 bb 04 2c
        E 21 bb 04 2c
        E 21 bb 04 2b
        E 21 bb 04 2a
        E 21 bb 04 29
        E 21 bb 04 28
        E 21 bb 04 27
        E 21 bb 04 26
        E 21 bb 04 24
        E 21 bb 04 23
        E 21 bb 04 22
        E 21 bb 04 21
        E 21 bb 04 20
        E 21 bb 04 1f
        E 21 bb 04 1d
        E 21 bb 04 1c
        E 21 bb 04 1b
        E 21 bb 04 1a
        E 21 bb 04 18
        E 21 bb 04 17
        E 21 bb 04 16
        E 21 bb 04 15
        E 21 bb 04 13
        E 21 bb 04 12
        E 21 bb 04 11
        E 21 bb 04 10
        E 21 bb 04 0f
        E 21 bb 04 0e
        E 21 bb 04 0c
        E 21 bb 04 0b
        E 21 bb 04 0a
        E 21 bb 04 09
        E 21 bb 04 08
        E 21 bb 04 07
        E 21 bb 04 06
        E 21 bb 04 06
        E 21 bb 04 05
        E 21 bb 04 04
        E 21 bb 04 04
        E 21 bb 04 03
        E 21 bb 04 02
        E 21 bb 04 02
        E 21 bb 04 01
        E 21 bb 04 01
        E 21 bb 04 00
        E 21 bb 04 00
        E 21 bb 04 00
        E 21 bb 04 00
        E 21 bb 04 00
        E 21 bb 04 00
        E 21 bb 04 00
        E 21 bb 04 00
        E 21 bb 04 00
        E 21 bb 04 00
        E 21 bb 04 00
        E 21 bb 04 01
        E 21 bb 04 01
        E 21 bb 04 02
        E 21 bb 04 02
        E 21 bb 04 02
        E 21 bb 04 03
        E 21 bb 04 04
        E 21 bb 04 04
        E 21 bb 04 05
        E 21 bb 04 06
        E 21 bb 04 07
        E 21 bb 04 08
        E 21 bb 04 09
        E 21 bb 04 0a
        E 21 bb 04 0b
        E 21 bb 04 0c
        E 21 bb 04 0d
        E 21 bb 04 0e
        E 21 bb 04 0f
        E 21 bb 04 10
        E 21 bb 04 12
        E 21 bb 04 13
        E 21 bb 04 14
        E 21 bb 04 15
        E 21 bb 04 16
        E 21 bb 04 18
        E 21 bb 04 19
        E 2 bb 04 19
        E 2 bb 04 1a
        E 2 bb 04 1c
        E 2 bb 04 1d
        E 2 bb 04 1e
        E 2 bb 04 1f
        E 2 bb 04 20
        E 2 bb 04 22
        E 2 bb 04 23
        E 2 bb 04 24
        E 2 bb 04 25
        E 2 bb 04 26
        E 2 bb 04 27
        E 2 bb 04 28
        E 2 bb 04 29
        E 2 bb 04 2a
        E 2 bb 04 2b
        E 2 bb 04 2c
        E 2 bb 04 2d
        E 2 bb 04 2e
        E 2 bb 04 2e
        E 2 bb 04 2f
        E 2 bb 04 30
        E 2 bb 04 30
        E 2 bb 04 30
        E 2 bb 04 31
        E 2 bb 04 31
        E 2 bb 04 32
        E 2 bb 04 32
        E 2 bb 04 32
        E 2 bb 04 32
        E 2 bb 04 32
        E 2 bb 04 32
        E 2 bb 04 32
        E 2 bb 04 32
        E 2 bb 04 32
        E 2 bb 04 32
        E 2 bb 04 32
        E 2 bb 04 31
        E 2 bb 04 31
        E 2 bb 04 30
        E 2 bb 04 30
        E 2 bb 04 2f
        E 2 bb 04 2e
        E 2 bb 04 2e
        E 2 bb 04 2d
        E 2 bb 04 2c
        E 2 bb 04 2c
        E 2 bb 04 2b
        E 2 bb 04 2a
        E 2 bb 04 29
        E 2 bb 04 28
        E 2 bb 04 27
        E 2 bb 04 26
        E 2 bb 04 24
        E 2 bb 04 23
        E 2 bb 04 22
        E 2 bb 04 21
        E 2 bb 04 20
        E 2 bb 04 1f
        E 2 bb 04 1d
        E 2 bb 04 1c
        E 2 bb 04 1b
        E 2 bb 04 1a
        E 2 bb 04 18
        E 2 bb 04 17
        E 2 bb 04 16
        E 2 bb 04 15
        E 2 bb 04 13
        E 2 bb 04 12
        E 2 bb 04 11
        E 2 bb 04 10
        E 2 bb 04 0f
        E 2 bb 04 0e
        E 2 bb 04 0c
        E 2 bb 04 0b
        E 2 bb 04 0a
        E 2 bb 04 09
        E 2 bb 04 08
        E 2 bb 04 07
        E 2 bb 04 06
        E 2 bb 04 06
        E 2 bb 04 05
        E 2 bb 04 04
        E 2 bb 04 04
        E 2 bb 04 03
        E 2 bb 04 02
        E 2 bb 04 02
        E 2 bb 04 01
        E 2 bb 04 01
        E 2 bb 04 00
        E 2 bb 04 00
        E 2 bb 04 00
        E 2 bb 04 00
        E 2 bb 04 00
        E 2 bb 04 00
        E 2 bb 04 00
        E 2 bb 04 00
        E 2 bb 04 00
        E 2 bb 04 00
        E 2 bb 04 00
        E 2 bb 04 01
        E 2 bb 04 01
        E 2 bb 04 02
        E 2 bb 04 02
        E 2 bb 04 02
        E 2 bb 04 03
        E 2 bb 04 04
        E 2 bb 04 04
        E 2 bb 04 05
        E 2 bb 04 06
        E 2 bb 04 07
        E 2 bb 04 08
        E 2 bb 04 09
        E 2 bb 04 0a
        E 2 bb 04 0b
        E 2 bb 04 0c
        E 2 bb 04 0d
        E 2 bb 04 0e
        E 2 bb 04 0f
        E 2 bb 04 10
        E 2 bb 04 12
        E 2 bb 04 13
        E 2 bb 04 14
        E 2 bb 04 15
        E 2 bb 04 16
        E 2 bb 04 18
        E 2 bb 04 19
        E 8 bb 04 20
        E 8 bb 04 21
        E 8 bb 04 23
        E 8 bb 04 24
        E 8 bb 04 26
        E 8 bb 04 27
        E 8 bb 04 29
        E 8 bb 04 2a
        E 8 bb 04 2c
        E 8 bb 04 2d
        E 8 bb 04 2f
        E 8 bb 04 30
        E 8 bb 04 31
        E 8 bb 04 33
        E 8 bb 04 34
        E 8 bb 04 35
        E 8 bb 04 36
        E 8 bb 04 37
        E 8 bb 04 38
        E 8 bb 04 39
        E 8 bb 04 3a
        E 8 bb 04 3b
        E 8 bb 04 3c
        E 8 bb 04 3c
        E 8 bb 04 3d
        E 8 bb 04 3d
        E 8 bb 04 3e
        E 8 bb 04 3e
        E 8 bb 04 3f
        E 8 bb 04 3f
        E 8 bb 04 3f
        E 8 bb 04 3f
        E 8 bb 04 3f
        E 8 bb 04 3f
        E 8 bb 04 3f
        E 8 bb 04 3f
        E 8 bb 04 3f
        E 8 bb 04 3e
        E 8 bb 04 3e
        E 8 bb 04 3d
        E 8 bb 04 3d
        E 8 bb 04 3c
        E 8 bb 04 3b
        E 8 bb 04 3a
        E 8 bb 04 3a
        E 8 bb 04 39
        E 8 bb 04 38
        E 8 bb 04 37
        E 8 bb 04 36
        E 8 bb 04 34
        E 8 bb 04 33
        E 8 bb 04 32
        E 8 bb 04 31
        E 8 bb 04 2f
        E 8 bb 04 2e
        E 8 bb 04 2c
        E 8 bb 04 2b
        E 8 bb 04 2a
        E 8 bb 04 28
        E 8 bb 04 27
        E 8 bb 04 25
        E 8 bb 04 23
        E 8 bb 04 22
        E 8 bb 04 20
        E 8 bb 04 1f
        E 8 bb 04 1d
        E 8 bb 04 1c
        E 8 bb 04 1a
        E 8 bb 04 18
        E 8 bb 04 17
        E 8 bb 04 15
        E 8 bb 04 14
        E 8 bb 04 13
        E 8 bb 04 11
        E 8 bb 04 10
        E 8 bb 04 0e
        E 8 bb 04 0d
        E 8 bb 04 0c
        E 8 bb 04 0b
        E 8 bb 04 09
        E 8 bb 04 08
        E 8 bb 04 07
        E 8 bb 04 06
        E 8 bb 04 05
        E 8 bb 04 05
        E 8 bb 04 04
        E 8 bb 04 03
        E 8 bb 04 02
        E 8 bb 04 02
        E 8 bb 04 01
        E 8 bb 04 01
        E 8 bb 04 00
        E 8 bb 04 00
        E 8 bb 04 00
        E 8 bb 04 00
        E 8 bb 04 00
        E 8 bb 04 00
        E 8 bb 04 00
        E 8 bb 04 00
        E 8 bb 04 00
        E 8 bb 04 01
        E 8 bb 04 01
        E 8 bb 04 02
        E 8 bb 04 02
        E 8 bb 04 03
        E 8 bb 04 03
        E 8 bb 04 04
        E 8 bb 04 05
        E 8 bb 04 06
        E 8 bb 04 07
        E 8 bb 04 08
        E 8 bb 04 09
        E 8 bb 04 0a
        E 8 bb 04 0b
        E 8 bb 04 0c
        E 8 bb 04 0e
        E 8 bb 04 0f
        E 8 bb 04 10
        E 8 bb 04 12
        E 8 bb 04 13
        E 8 bb 04 15
        E 8 bb 04 16
        E 8 bb 04 18
        E 8 bb 04 19
        E 8 bb 04 1b
        E 8 bb 04 1c
        E 8 bb 04 1e
        E 8 bb 04 20
        E 4 bb 04 06
        E 4 bb 04 06
        E 4 bb 04 07
        E 4 bb 04 07
        E 4 bb 04 07
        E 4 bb 04 07
        E 4 bb 04 08
        E 4 bb 04 08
        E 4 bb 04 08
        E 4 bb 04 09
        E 4 bb 04 09
        E 4 bb 04 09
        E 4 bb 04 09
        E 4 bb 04 0a
        E 4 bb 04 0a
        E 4 bb 04 0a
        E 4 bb 04 0a
        E 4 bb 04 0b
        E 4 bb 04 0b
        E 4 bb 04 0b
        E 4 bb 04 0b
        E 4 bb 04 0b
        E 4 bb 04 0c
        E 4 bb 04 0c
        E 4 bb 04 0c
        E 4 bb 04 0c
        E 4 bb 04 0c
        E 4 bb 04 0c
        E 4 bb 04 0c
        E 4 bb 04 0c
        E 4 bb 04 0c
        E 4 bb 04 0c
        E 4 bb 04 0c
        E 4 bb 04 0c
        E 4 bb 04 0c
        E 4 bb 04 0c
        E 4 bb 04 0c
        E 4 bb 04 0c
        E 4 bb 04 0c
        E 4 bb 04 0c
        E 4 bb 04 0c
        E 4 bb 04 0c
        E 4 bb 04 0b
        E 4 bb 04 0b
        E 4 bb 04 0b
        E 4 bb 04 0b
        E 4 bb 04 0b
        E 4 bb 04 0b
        E 4 bb 04 0a
        E 4 bb 04 0a
        E 4 bb 04 0a
        E 4 bb 04 0a
        E 4 bb 04 09
        E 4 bb 04 09
        E 4 bb 04 09
        E 4 bb 04 08
        E 4 bb 04 08
        E 4 bb 04 08
        E 4 bb 04 08
        E 4 bb 04 07
        E 4 bb 04 07
        E 4 bb 04 07
        E 4 bb 04 06
        E 4 bb 04 06
        E 4 bb 04 06
        E 4 bb 04 05
        E 4 bb 04 05
        E 4 bb 04 05
        E 4 bb 04 04
        E 4 bb 04 04
        E 4 bb 04 04
        E 4 bb 04 04
        E 4 bb 04 03
        E 4 bb 04 03
        E 4 bb 04 03
        E 4 bb 04 02
        E 4 bb 04 02
        E 4 bb 04 02
        E 4 bb 04 02
        E 4 bb 04 01
        E 4 bb 04 01
        E 4 bb 04 01
        E 4 bb 04 01
        E 4 bb 04 01
        E 4 bb 04 01
        E 4 bb 04 00
        E 4 bb 04 00
        E 4 bb 04 00
        E 4 bb 04 00
        E 4 bb 04 00
        E 4 bb 04 00
        E 4 bb 04 00
        E 4 bb 04 00
        E 4 bb 04 00
        E 4 bb 04 00
        E 4 bb 04 00
        E 4 bb 04 00
        E 4 bb 04 00
        E 4 bb 04 00
        E 4 bb 04 00
        E 4 bb 04 00
        E 4 bb 04 00
        E 4 bb 04 00
        E 4 bb 04 00
        E 4 bb 04 00
        E 4 bb 04 00
        E 4 bb 04 00
        E 4 bb 04 01
        E 4 bb 04 01
        E 4 bb 04 01
        E 4 bb 04 01
        E 4 bb 04 01
        E 4 bb 04 02
        E 4 bb 04 02
        E 4 bb 04 02
        E 4 bb 04 02
        E 4 bb 04 03
        E 4 bb 04 03
        E 4 bb 04 03
        E 4 bb 04 03
        E 4 bb 04 04
        E 4 bb 04 04
        E 4 bb 04 04
        E 4 bb 04 05
        E 4 bb 04 05
        E 4 bb 04 05
        E 4 bb 04 06
        E 4 bb 04 06
        E 21 bb 04 20
        E 21 bb 04 21
        E 21 bb 04 23
        E 21 bb 04 24
        E 21 bb 04 26
        E 21 bb 04 27
        E 21 bb 04 29
        E 21 bb 04 2a
        E 21 bb 04 2c
        E 21 bb 04 2d
        E 21 bb 04 2f
        E 21 bb 04 30
        E 21 bb 04 31
        E 21 bb 04 33
        E 21 bb 04 34
        E 21 bb 04 35
        E 21 bb 04 36
        E 21 bb 04 37
        E 21 bb 04 38
        E 21 bb 04 39
        E 21 bb 04 3a
        E 21 bb 04 3b
        E 21 bb 04 3c
        E 21 bb 04 3c
        E 21 bb 04 3d
        E 21 bb 04 3d
        E 21 bb 04 3e
        E 21 bb 04 3e
        E 21 bb 04 3f
        E 21 bb 04 3f
        E 21 bb 04 3f
        E 21 bb 04 3f
        E 21 bb 04 3f
        E 21 bb 04 3f
        E 21 bb 04 3f
        E 21 bb 04 3f
        E 21 bb 04 3f
        E 21 bb 04 3e
        E 21 bb 04 3e
        E 21 bb 04 3d
        E 21 bb 04 3d
        E 21 bb 04 3c
        E 21 bb 04 3b
        E 21 bb 04 3a
        E 21 bb 04 3a
        E 21 bb 04 39
        E 21 bb 04 38
        E 21 bb 04 37
        E 21 bb 04 36
        E 21 bb 04 34
        E 21 bb 04 33
        E 21 bb 04 32
        E 21 bb 04 31
        E 21 bb 04 2f
        E 21 bb 04 2e
        E 21 bb 04 2c
        E 21 bb 04 2b
        E 21 bb 04 2a
        E 21 bb 04 28
        E 21 bb 04 27
        E 21 bb 04 25
        E 21 bb 04 23
        E 21 bb 04 22
        E 21 bb 04 20
        E 21 bb 04 1f
        E 21 bb 04 1d
        E 21 bb 04 1c
        E 21 bb 04 1a
        E 21 bb 04 18
        E 21 bb 04 17
        E 21 bb 04 15
        E 21 bb 04 14
        E 21 bb 04 13
        E 21 bb 04 11
        E 21 bb 04 10
        E 21 bb 04 0e
        E 21 bb 04 0d
        E 21 bb 04 0c
        E 21 bb 04 0b
        E 21 bb 04 09
        E 21 bb 04 08
        E 21 bb 04 07
        E 21 bb 04 06
        E 21 bb 04 05
        E 21 bb 04 05
        E 21 bb 04 04
        E 21 bb 04 03
        E 21 bb 04 02
        E 21 bb 04 02
        E 21 bb 04 01
        E 21 bb 04 01
        E 21 bb 04 00
        E 21 bb 04 00
        E 21 bb 04 00
        E 21 bb 04 00
        E 21 bb 04 00
        E 21 bb 04 00
        E 21 bb 04 00
        E 21 bb 04 00
        E 21 bb 04 00
        E 21 bb 04 01
        E 21 bb 04 01
        E 21 bb 04 02
        E 21 bb 04 02
        E 21 bb 04 03
        E 21 bb 04 03
        E 21 bb 04 04
        E 21 bb 04 05
        E 21 bb 04 06
        E 21 bb 04 07
        E 21 bb 04 08
        E 21 bb 04 09
        E 21 bb 04 0a
        E 21 bb 04 0b
        E 21 bb 04 0c
        E 21 bb 04 0e
        E 21 bb 04 0f
        E 21 bb 04 10
        E 21 bb 04 12
        E 21 bb 04 13
        E 21 bb 04 15
        E 21 bb 04 16
        E 21 bb 04 18
        E 21 bb 04 19
        E 21 bb 04 1b
        E 21 bb 04 1c
        E 21 bb 04 1e
        E 21 bb 04 20
        E 2 bb 04 06
        E 2 bb 04 06
        E 2 bb 04 07
        E 2 bb 04 07
        E 2 bb 04 07
        E 2 bb 04 07
        E 2 bb 04 08
        E 2 bb 04 08
        E 2 bb 04 08
        E 2 bb 04 09
        E 2 bb 04 09
        E 2 bb 04 09
        E 2 bb 04 09
        E 2 bb 04 0a
        E 2 bb 04 0a
        E 2 bb 04 0a
        E 2 bb 04 0a
        E 2 bb 04 0b
        E 2 bb 04 0b
        E 2 bb 04 0b
        E 2 bb 04 0b
        E 2 bb 04 0b
        E 2 bb 04 0c
        E 2 bb 04 0c
        E 2 bb 04 0c
        E 2 bb 04 0c
        E 2 bb 04 0c
        E 2 bb 04 0c
        E 2 bb 04 0c
        E 2 bb 04 0c
        E 2 bb 04 0c
        E 2 bb 04 0c
        E 2 bb 04 0c
        E 2 bb 04 0c
        E 2 bb 04 0c
        E 2 bb 04 0c
        E 2 bb 04 0c
        E 2 bb 04 0c
        E 2 bb 04 0c
        E 2 bb 04 0c
        E 2 bb 04 0c
        E 2 bb 04 0c
        E 2 bb 04 0b
        E 2 bb 04 0b
        E 2 bb 04 0b
        E 2 bb 04 0b
        E 2 bb 04 0b
        E 2 bb 04 0b
        E 2 bb 04 0a
        E 2 bb 04 0a
        E 2 bb 04 0a
        E 2 bb 04 0a
        E 2 bb 04 09
        E 2 bb 04 09
        E 2 bb 04 09
        E 2 bb 04 08
        E 2 bb 04 08
        E 2 bb 04 08
        E 2 bb 04 08
        E 2 bb 04 07
        E 2 bb 04 07
        E 2 bb 04 07
        E 2 bb 04 06
        E 2 bb 04 06
        E 2 bb 04 06
        E 2 bb 04 05
        E 2 bb 04 05
        E 2 bb 04 05
        E 2 bb 04 04
        E 2 bb 04 04
        E 2 bb 04 04
        E 2 bb 04 04
        E 2 bb 04 03
        E 2 bb 04 03
        E 2 bb 04 03
        E 2 bb 04 02
        E 2 bb 04 02
        E 2 bb 04 02
        E 2 bb 04 02
        E 2 bb 04 01
        E 2 bb 04 01
        E 2 bb 04 01
        E 2 bb 04 01
        E 2 bb 04 01
        E 2 bb 04 01
        E 2 bb 04 00
        E 2 bb 04 00
        E 2 bb 04 00
        E 2 bb 04 00
        E 2 bb 04 00
        E 2 bb 04 00
        E 2 bb 04 00
        E 2 bb 04 00
        E 2 bb 04 00
        E 2 bb 04 00
        E 2 bb 04 00
        E 2 bb 04 00
        E 2 bb 04 00
        E 2 bb 04 00
        E 2 bb 04 00
        E 2 bb 04 00
        E 2 bb 04 00
        E 2 bb 04 00
        E 2 bb 04 00
        E 2 bb 04 00
        E 2 bb 04 00
        E 2 bb 04 00
        E 2 bb 04 01
        E 2 bb 04 01
        E 2 bb 04 01
        E 2 bb 04 01
        E 2 bb 04 01
        E 2 bb 04 02
        E 2 bb 04 02
        E 2 bb 04 02
        E 2 bb 04 02
        E 2 bb 04 03
        E 2 bb 04 03
        E 2 bb 04 03
        E 2 bb 04 03
        E 2 bb 04 04
        E 2 bb 04 04
        E 2 bb 04 04
        E 2 bb 04 05
        E 2 bb 04 05
        E 2 bb 04 05
        E 2 bb 04 06
        E 2 bb 04 06
        E 21 bb 04 19
        E 21 bb 04 1a
        E 21 bb 04 1c
        E 21 bb 04 1d
        E 21 bb 04 1e
        E 21 bb 04 1f
        E 21 bb 04 20
        E 21 bb 04 22
        E 21 bb 04 23
        E 21 bb 04 24
        E 21 bb 04 25
        E 21 bb 04 26
        E 21 bb 04 27
        E 21 bb 04 28
        E 21 bb 04 29
        E 21 bb 04 2a
        E 21 bb 04 2b
        E 21 bb 04 2c
        E 21 bb 04 2d
        E 21 bb 04 2e
        E 21 bb 04 2e
        E 21 bb 04 2f
        E 21 bb 04 30
        E 21 bb 04 30
        E 21 bb 04 30
        E 21 bb 04 31
        E 21 bb 04 31
        E 21 bb 04 32
        E 21 bb 04 32
        E 21 bb 04 32
        E 21 bb 04 32
        E 21 bb 04 32
        E 21 bb 04 32
        E 21 bb 04 32
        E 21 bb 04 32
        E 21 bb 04 32
        E 21 bb 04 32
        E 21 bb 04 32
        E 21 bb 04 31
        E 21 bb 04 31
        E 21 bb 04 30
        E 21 bb 04 30
        E 21 bb 04 2f
        E 21 bb 04 2e
        E 21 bb 04 2e
        E 21 bb 04 2d
        E 21 bb 04 2c
        E 21 bb 04 2c
        E 21 bb 04 2b
        E 21 bb 04 2a
        E 21 bb 04 29
        E 21 bb 04 28
        E 21 bb 04 27
        E 21 bb 04 26
        E 21 bb 04 24
        E 21 bb 04 23
        E 21 bb 04 22
        E 21 bb 04 21
        E 21 bb 04 20
        E 21 bb 04 1f
        E 21 bb 04 1d
        E 21 bb 04 1c
        E 21 bb 04 1b
        E 21 bb 04 1a
        E 21 bb 04 18
        E 21 bb 04 17
        E 21 bb 04 16
        E 21 bb 04 15
        E 21 bb 04 13
        E 21 bb 04 12
        E 21 bb 04 11
        E 21 bb 04 10
        E 21 bb 04 0f
        E 21 bb 04 0e
        E 21 bb 04 0c
        E 21 bb 04 0b
        E 21 bb 04 0a
        E 21 bb 04 09
        E 21 bb 04 08
        E 21 bb 04 07
        E 21 bb 04 06
        E 21 bb 04 06
        E 21 bb 04 05
        E 21 bb 04 04
        E 21 bb 04 04
        E 21 bb 04 03
        E 21 bb 04 02
        E 21 bb 04 02
        E 21 bb 04 01
        E 21 bb 04 01
        E 21 bb 04 00
        E 21 bb 04 00
        E 21 bb 04 00
        E 21 bb 04 00
        E 21 bb 04 00
        E 21 bb 04 00
        E 21 bb 04 00
        E 21 bb 04 00
        E 21 bb 04 00
        E 21 bb 04 00
        E 21 bb 04 00
        E 21 bb 04 01
        E 21 bb 04 01
        E 21 bb 04 02
        E 21 bb 04 02
        E 21 bb 04 02
        E 21 bb 04 03
        E 21 bb 04 04
        E 21 bb 04 04
        E 21 bb 04 05
        E 21 bb 04 06
        E 21 bb 04 07
        E 21 bb 04 08
        E 21 bb 04 09
        E 21 bb 04 0a
        E 21 bb 04 0b
        E 21 bb 04 0c
        E 21 bb 04 0d
        E 21 bb 04 0e
        E 21 bb 04 0f
        E 21 bb 04 10
        E 21 bb 04 12
        E 21 bb 04 13
        E 21 bb 04 14
        E 21 bb 04 15
        E 21 bb 04 16
        E 21 bb 04 18
        E 21 bb 04 19
        E 2 bb 04 19
        E 2 bb 04 1a
        E 2 bb 04 1c
        E 2 bb 04 1d
        E 2 bb 04 1e
        E 2 bb 04 1f
        E 2 bb 04 20
        E 2 bb 04 22
        E 2 bb 04 23
        E 2 bb 04 24
        E 2 bb 04 25
        E 2 bb 04 26
        E 2 bb 04 27
        E 2 bb 04 28
        E 2 bb 04 29
        E 2 bb 04 2a
        E 2 bb 04 2b
        E 2 bb 04 2c
        E 2 bb 04 2d
        E 2 bb 04 2e
        E 2 bb 04 2e
        E 2 bb 04 2f
        E 2 bb 04 30
        E 2 bb 04 30
        E 2 bb 04 30
        E 2 bb 04 31
        E 2 bb 04 31
        E 2 bb 04 32
        E 2 bb 04 32
        E 2 bb 04 32
        E 2 bb 04 32
        E 2 bb 04 32
        E 2 bb 04 32
        E 2 bb 04 32
        E 2 bb 04 32
        E 2 bb 04 32
        E 2 bb 04 32
        E 2 bb 04 32
        E 2 bb 04 31
        E 2 bb 04 31
        E 2 bb 04 30
        E 2 bb 04 30
        E 2 bb 04 2f
        E 2 bb 04 2e
        E 2 bb 04 2e
        E 2 bb 04 2d
        E 2 bb 04 2c
        E 2 bb 04 2c
        E 2 bb 04 2b
        E 2 bb 04 2a
        E 2 bb 04 29
        E 2 bb 04 28
        E 2 bb 04 27
        E 2 bb 04 26
        E 2 bb 04 24
        E 2 bb 04 23
        E 2 bb 04 22
        E 2 bb 04 21
        E 2 bb 04 20
        E 2 bb 04 1f
        E 2 bb 04 1d
        E 2 bb 04 1c
        E 2 bb 04 1b
        E 2 bb 04 1a
        E 2 bb 04 18
        E 2 bb 04 17
        E 2 bb 04 16
        E 2 bb 04 15
        E 2 bb 04 13
        E 2 bb 04 12
        E 2 bb 04 11
        E 2 bb 04 10
        E 2 bb 04 0f
        E 2 bb 04 0e
        E 2 bb 04 0c
        E 2 bb 04 0b
        E 2 bb 04 0a
        E 2 bb 04 09
        E 2 bb 04 08
        E 2 bb 04 07
        E 2 bb 04 06
        E 2 bb 04 06
        E 2 bb 04 05
        E 2 bb 04 04
        E 2 bb 04 04
        E 2 bb 04 03
        E 2 bb 04 02
        E 2 bb 04 02
        E 2 bb 04 01
        E 2 bb 04 01
        E 2 bb 04 00
        E 2 bb 04 00
        E 2 bb 04 00
        E 2 bb 04 00
        E 2 bb 04 00
        E 2 bb 04 00
        E 2 bb 04 00
        E 2 bb 04 00
        E 2 bb 04 00
        E 2 bb 04 00
        E 2 bb 04 00
        E 2 bb 04 01
        E 2 bb 04 01
        E 2 bb 04 02
        E 2 bb 04 02
        E 2 bb 04 02
        E 2 bb 04 03
        E 2 bb 04 04
        E 2 bb 04 04
        E 2 bb 04 05
        E 2 bb 04 06
        E 2 bb 04 07
        E 2 bb 04 08
        E 2 bb 04 09
        E 2 bb 04 0a
        E 2 bb 04 0b
        E 2 bb 04 0c
        E 2 bb 04 0d
        E 2 bb 04 0e
        E 2 bb 04 0f
        E 2 bb 04 10
        E 2 bb 04 12
        E 2 bb 04 13
        E 2 bb 04 14
        E 2 bb 04 15
        E 2 bb 04 16
        E 2 bb 04 18
        E 2 bb 04 19
        E 8 bb 04 20
        E 8 bb 04 21
        E 8 bb 04 23
        E 8 bb 04 24
        E 8 bb 04 26
        E 8 bb 04 27
        E 8 bb 04 29
        E 8 bb 04 2a
        E 8 bb 04 2c
        E 8 bb 04 2d
        E 8 bb 04 2f
        E 8 bb 04 30
        E 8 bb 04 31
        E 8 bb 04 33
        E 8 bb 04 34
        E 8 bb 04 35
        E 8 bb 04 36
        E 8 bb 04 37
        E 8 bb 04 38
        E 8 bb 04 39
        E 8 bb 04 3a
        E 8 bb 04 3b
        E 8 bb 04 3c
        E 8 bb 04 3c
        E 8 bb 04 3d
        E 8 bb 04 3d
        E 8 bb 04 3e
        E 8 bb 04 3e
        E 8 bb 04 3f
        E 8 bb 04 3f
        E 8 bb 04 3f
        E 8 bb 04 3f
        E 8 bb 04 3f
        E 8 bb 04 3f
        E 8 bb 04 3f
        E 8 bb 04 3f
        E 8 bb 04 3f
        E 8 bb 04 3e
        E 8 bb 04 3e
        E 8 bb 04 3d
        E 8 bb 04 3d
        E 8 bb 04 3c
        E 8 bb 04 3b
        E 8 bb 04 3a
        E 8 bb 04 3a
        E 8 bb 04 39
        E 8 bb 04 38
        E 8 bb 04 37
        E 8 bb 04 36
        E 8 bb 04 34
        E 8 bb 04 33
        E 8 bb 04 32
        E 8 bb 04 31
        E 8 bb 04 2f
        E 8 bb 04 2e
        E 8 bb 04 2c
        E 8 bb 04 2b
        E 8 bb 04 2a
        E 8 bb 04 28
        E 8 bb 04 27
        E 8 bb 04 25
        E 8 bb 04 23
        E 8 bb 04 22
        E 8 bb 04 20
        E 8 bb 04 1f
        E 8 bb 04 1d
        E 8 bb 04 1c
        E 8 bb 04 1a
        E 8 bb 04 18
        E 8 bb 04 17
        E 8 bb 04 15
        E 8 bb 04 14
        E 8 bb 04 13
        E 8 bb 04 11
        E 8 bb 04 10
        E 8 bb 04 0e
        E 8 bb 04 0d
        E 8 bb 04 0c
        E 8 bb 04 0b
        E 8 bb 04 09
        E 8 bb 04 08
        E 8 bb 04 07
        E 8 bb 04 06
        E 8 bb 04 05
        E 8 bb 04 05
        E 8 bb 04 04
        E 8 bb 04 03
        E 8 bb 04 02
        E 8 bb 04 02
        E 8 bb 04 01
        E 8 bb 04 01
        E 8 bb 04 00
        E 8 bb 04 00
        E 8 bb 04 00
        E 8 bb 04 00
        E 8 bb 04 00
        E 8 bb 04 00
        E 8 bb 04 00
        E 8 bb 04 00
        E 8 bb 04 00
        E 8 bb 04 01
        E 8 bb 04 01
        E 8 bb 04 02
        E 8 bb 04 02
        E 8 bb 04 03
        E 8 bb 04 03
        E 8 bb 04 04
        E 8 bb 04 05
        E 8 bb 04 06
        E 8 bb 04 07
        E 8 bb 04 08
        E 8 bb 04 09
        E 8 bb 04 0a
        E 8 bb 04 0b
        E 8 bb 04 0c
        E 8 bb 04 0e
        E 8 bb 04 0f
        E 8 bb 04 10
        E 8 bb 04 12
        E 8 bb 04 13
        E 8 bb 04 15
        E 8 bb 04 16
        E 8 bb 04 18
        E 8 bb 04 19
        E 8 bb 04 1b
        E 8 bb 04 1c
        E 8 bb 04 1e
        E 8 bb 04 20
        E 4 bb 04 06
        E 4 bb 04 06
        E 4 bb 04 07
        E 4 bb 04 07
        E 4 bb 04 07
        E 4 bb 04 07
        E 4 bb 04 08
        E 4 bb 04 08
        E 4 bb 04 08
        E 4 bb 04 09
        E 4 bb 04 09
        E 4 bb 04 09
        E 4 bb 04 09
        E 4 bb 04 0a
        E 4 bb 04 0a
        E 4 bb 04 0a
        E 4 bb 04 0a
        E 4 bb 04 0b
        E 4 bb 04 0b
        E 4 bb 04 0b
        E 4 bb 04 0b
        E 4 bb 04 0b
        E 4 bb 04 0c
        E 4 bb 04 0c
        E 4 bb 04 0c
        E 4 bb 04 0c
        E 4 bb 04 0c
        E 4 bb 04 0c
        E 4 bb 04 0c
        E 4 bb 04 0c
        E 4 bb 04 0c
        E 4 bb 04 0c
        E 4 bb 04 0c
        E 4 bb 04 0c
        E 4 bb 04 0c
        E 4 bb 04 0c
        E 4 bb 04 0c
        E 4 bb 04 0c
        E 4 bb 04 0c
        E 4 bb 04 0c
        E 4 bb 04 0c
        E 4 bb 04 0c
        E 4 bb 04 0b
        E 4 bb 04 0b
        E 4 bb 04 0b
        E 4 bb 04 0b
        E 4 bb 04 0b
        E 4 bb 04 0b
        E 4 bb 04 0a
        E 4 bb 04 0a
        E 4 bb 04 0a
        E 4 bb 04 0a
        E 4 bb 04 09
        E 4 bb 04 09
        E 4 bb 04 09
        E 4 bb 04 08
        E 4 bb 04 08
        E 4 bb 04 08
        E 4 bb 04 08
        E 4 bb 04 07
        E 4 bb 04 07
        E 4 bb 04 07
        E 4 bb 04 06
        E 4 bb 04 06
        E 4 bb 04 06
        E 4 bb 04 05
        E 4 bb 04 05
        E 4 bb 04 05
        E 4 bb 04 04
        E 4 bb 04 04
        E 4 bb 04 04
        E 4 bb 04 04
        E 4 bb 04 03
        E 4 bb 04 03
        E 4 bb 04 03
        E 4 bb 04 02
        E 4 bb 04 02
        E 4 bb 04 02
        E 4 bb 04 02
        E 4 bb 04 01
        E 4 bb 04 01
        E 4 bb 04 01
        E 4 bb 04 01
        E 4 bb 04 01
        E 4 bb 04 01
        E 4 bb 04 00
        E 4 bb 04 00
        E 4 bb 04 00
        E 4 bb 04 00
        E 4 bb 04 00
        E 4 bb 04 00
        E 4 bb 04 00
        E 4 bb 04 00
        E 4 bb 04 00
        E 4 bb 04 00
        E 4 bb 04 00
        E 4 bb 04 00
        E 4 bb 04 00
        E 4 bb 04 00
        E 4 bb 04 00
        E 4 bb 04 00
        E 4 bb 04 00
        E 4 bb 04 00
        E 4 bb 04 00
        E 4 bb 04 00
        E 4 bb 04 00
        E 4 bb 04 00
        E 4 bb 04 01
        E 4 bb 04 01
        E 4 bb 04 01
        E 4 bb 04 01
        E 4 bb 04 01
        E 4 bb 04 02
        E 4 bb 04 02
        E 4 bb 04 02
        E 4 bb 04 02
        E 4 bb 04 03
        E 4 bb 04 03
        E 4 bb 04 03
        E 4 bb 04 03
        E 4 bb 04 04
        E 4 bb 04 04
        E 4 bb 04 04
        E 4 bb 04 05
        E 4 bb 04 05
        E 4 bb 04 05
        E 4 bb 04 06
        E 4 bb 04 06
        E 82 bb 04 19
        E 82 bb 04 1a
        E 82 bb 04 1c
        E 82 bb 04 1d
        E 82 bb 04 1e
        E 82 bb 04 1f
        E 82 bb 04 20
        E 82 bb 04 22
        E 82 bb 04 23
        E 82 bb 04 24
        E 82 bb 04 25
        E 82 bb 04 26
        E 82 bb 04 27
        E 82 bb 04 28
        E 82 bb 04 29
        E 82 bb 04 2a
        E 82 bb 04 2b
        E 82 bb 04 2c
        E 82 bb 04 2d
        E 82 bb 04 2e
        E 82 bb 04 2e
        E 82 bb 04 2f
        E 82 bb 04 30
        E 82 bb 04 30
        E 82 bb 04 30
        E 82 bb 04 31
        E 82 bb 04 31
        E 82 bb 04 32
        E 82 bb 04 32
        E 82 bb 04 32
        E 82 bb 04 32
        E 82 bb 04 32
        E 82 bb 04 32
        E 82 bb 04 32
        E 82 bb 04 32
        E 82 bb 04 32
        E 82 bb 04 32
        E 82 bb 04 32
        E 82 bb 04 31
        E 82 bb 04 31
        E 82 bb 04 30
        E 82 bb 04 30
        E 82 bb 04 2f
        E 82 bb 04 2e
        E 82 bb 04 2e
        E 82 bb 04 2d
        E 82 bb 04 2c
        E 82 bb 04 2c
        E 82 bb 04 2b
        E 82 bb 04 2a
        E 82 bb 04 29
        E 82 bb 04 28
        E 82 bb 04 27
        E 82 bb 04 26
        E 82 bb 04 24
        E 82 bb 04 23
        E 82 bb 04 22
        E 82 bb 04 21
        E 82 bb 04 20
        E 82 bb 04 1f
        E 82 bb 04 1d
        E 82 bb 04 1c
        E 82 bb 04 1b
        E 82 bb 04 1a
        E 82 bb 04 18
        E 82 bb 04 17
        E 82 bb 04 16
        E 82 bb 04 15
        E 82 bb 04 13
        E 82 bb 04 12
        E 82 bb 04 11
        E 82 bb 04 10
        E 82 bb 04 0f
        E 82 bb 04 0e
        E 82 bb 04 0c
        E 82 bb 04 0b
        E 82 bb 04 0a
        E 82 bb 04 09
        E 82 bb 04 08
        E 82 bb 04 07
        E 82 bb 04 06
        E 82 bb 04 06
        E 82 bb 04 05
        E 82 bb 04 04
        E 82 bb 04 04
        E 82 bb 04 03
        E 82 bb 04 02
        E 82 bb 04 02
        E 82 bb 04 01
        E 82 bb 04 01
        E 82 bb 04 00
        E 82 bb 04 00
        E 82 bb 04 00
        E 82 bb 04 00
        E 82 bb 04 00
        E 82 bb 04 00
        E 82 bb 04 00
        E 82 bb 04 00
        E 82 bb 04 00
        E 82 bb 04 00
        E 82 bb 04 00
        E 82 bb 04 01
        E 82 bb 04 01
        E 82 bb 04 02
        E 82 bb 04 02
        E 82 bb 04 02
        E 82 bb 04 03
        E 82 bb 04 04
        E 82 bb 04 04
        E 82 bb 04 05
        E 82 bb 04 06
        E 82 bb 04 07
        E 82 bb 04 08
        E 82 bb 04 09
        E 82 bb 04 0a
        E 82 bb 04 0b
        E 82 bb 04 0c
        E 82 bb 04 0d
        E 82 bb 04 0e
        E 82 bb 04 0f
        E 82 bb 04 10
        E 82 bb 04 12
        E 82 bb 04 13
        E 82 bb 04 14
        E 82 bb 04 15
        E 82 bb 04 16
        E 82 bb 04 18
        E 82 bb 04 19
        E 8 bb 04 19
        E 8 bb 04 1a
        E 8 bb 04 1c
        E 8 bb 04 1d
        E 8 bb 04 1e
        E 8 bb 04 1f
        E 8 bb 04 20
        E 8 bb 04 22
        E 8 bb 04 23
        E 8 bb 04 24
        E 8 bb 04 25
        E 8 bb 04 26
        E 8 bb 04 27
        E 8 bb 04 28
        E 8 bb 04 29
        E 8 bb 04 2a
        E 8 bb 04 2b
        E 8 bb 04 2c
        E 8 bb 04 2d
        E 8 bb 04 2e
        E 8 bb 04 2e
        E 8 bb 04 2f
        E 8 bb 04 30
        E 8 bb 04 30
        E 8 bb 04 30
        E 8 bb 04 31
        E 8 bb 04 31
        E 8 bb 04 32
        E 8 bb 04 32
        E 8 bb 04 32
        E 8 bb 04 32
        E 8 bb 04 32
        E 8 bb 04 32
        E 8 bb 04 32
        E 8 bb 04 32
        E 8 bb 04 32
        E 8 bb 04 32
        E 8 bb 04 32
        E 8 bb 04 31
        E 8 bb 04 31
        E 8 bb 04 30
        E 8 bb 04 30
        E 8 bb 04 2f
        E 8 bb 04 2e
        E 8 bb 04 2e
        E 8 bb 04 2d
        E 8 bb 04 2c
        E 8 bb 04 2c
        E 8 bb 04 2b
        E 8 bb 04 2a
        E 8 bb 04 29
        E 8 bb 04 28
        E 8 bb 04 27
        E 8 bb 04 26
        E 8 bb 04 24
        E 8 bb 04 23
        E 8 bb 04 22
        E 8 bb 04 21
        E 8 bb 04 20
        E 8 bb 04 1f
        E 8 bb 04 1d
        E 8 bb 04 1c
        E 8 bb 04 1b
        E 8 bb 04 1a
        E 8 bb 04 18
        E 8 bb 04 17
        E 8 bb 04 16
        E 8 bb 04 15
        E 8 bb 04 13
        E 8 bb 04 12
        E 8 bb 04 11
        E 8 bb 04 10
        E 8 bb 04 0f
        E 8 bb 04 0e
        E 8 bb 04 0c
        E 8 bb 04 0b
        E 8 bb 04 0a
        E 8 bb 04 09
        E 8 bb 04 08
        E 8 bb 04 07
        E 8 bb 04 06
        E 8 bb 04 06
        E 8 bb 04 05
        E 8 bb 04 04
        E 8 bb 04 04
        E 8 bb 04 03
        E 8 bb 04 02
        E 8 bb 04 02
        E 8 bb 04 01
        E 8 bb 04 01
        E 8 bb 04 00
        E 8 bb 04 00
        E 8 bb 04 00
        E 8 bb 04 00
        E 8 bb 04 00
        E 8 bb 04 00
        E 8 bb 04 00
        E 8 bb 04 00
        E 8 bb 04 00
        E 8 bb 04 00
        E 8 bb 04 00
        E 8 bb 04 01
        E 8 bb 04 01
        E 8 bb 04 02
        E 8 bb 04 02
        E 8 bb 04 02
        E 8 bb 04 03
        E 8 bb 04 04
        E 8 bb 04 04
        E 8 bb 04 05
        E 8 bb 04 06
        E 8 bb 04 07
        E 8 bb 04 08
        E 8 bb 04 09
        E 8 bb 04 0a
        E 8 bb 04 0b
        E 8 bb 04 0c
        E 8 bb 04 0d
        E 8 bb 04 0e
        E 8 bb 04 0f
        E 8 bb 04 10
        E 8 bb 04 12
        E 8 bb 04 13
        E 8 bb 04 14
        E 8 bb 04 15
        E 8 bb 04 16
        E 8 bb 04 18
        E 8 bb 04 19
        E 34 bb 04 20
        E 34 bb 04 21
        E 34 bb 04 23
        E 34 bb 04 24
        E 34 bb 04 26
        E 34 bb 04 27
        E 34 bb 04 29
        E 34 bb 04 2a
        E 34 bb 04 2c
        E 34 bb 04 2d
        E 34 bb 04 2f
        E 34 bb 04 30
        E 34 bb 04 31
        E 34 bb 04 33
        E 34 bb 04 34
        E 34 bb 04 35
        E 34 bb 04 36
        E 34 bb 04 37
        E 34 bb 04 38
        E 34 bb 04 39
        E 34 bb 04 3a
        E 34 bb 04 3b
        E 34 bb 04 3c
        E 34 bb 04 3c
        E 34 bb 04 3d
        E 34 bb 04 3d
        E 34 bb 04 3e
        E 34 bb 04 3e
        E 34 bb 04 3f
        E 34 bb 04 3f
        E 34 bb 04 3f
        E 34 bb 04 3f
        E 34 bb 04 3f
        E 34 bb 04 3f
        E 34 bb 04 3f
        E 34 bb 04 3f
        E 34 bb 04 3f
        E 34 bb 04 3e
        E 34 bb 04 3e
        E 34 bb 04 3d
        E 34 bb 04 3d
        E 34 bb 04 3c
        E 34 bb 04 3b
        E 34 bb 04 3a
        E 34 bb 04 3a
        E 34 bb 04 39
        E 34 bb 04 38
        E 34 bb 04 37
        E 34 bb 04 36
        E 34 bb 04 34
        E 34 bb 04 33
        E 34 bb 04 32
        E 34 bb 04 31
        E 34 bb 04 2f
        E 34 bb 04 2e
        E 34 bb 04 2c
        E 34 bb 04 2b
        E 34 bb 04 2a
        E 34 bb 04 28
        E 34 bb 04 27
        E 34 bb 04 25
        E 34 bb 04 23
        E 34 bb 04 22
        E 34 bb 04 20
        E 34 bb 04 1f
        E 34 bb 04 1d
        E 34 bb 04 1c
        E 34 bb 04 1a
        E 34 bb 04 18
        E 34 bb 04 17
        E 34 bb 04 15
        E 34 bb 04 14
        E 34 bb 04 13
        E 34 bb 04 11
        E 34 bb 04 10
        E 34 bb 04 0e
        E 34 bb 04 0d
        E 34 bb 04 0c
        E 34 bb 04 0b
        E 34 bb 04 09
        E 34 bb 04 08
        E 34 bb 04 07
        E 34 bb 04 06
        E 34 bb 04 05
        E 34 bb 04 05
        E 34 bb 04 04
        E 34 bb 04 03
        E 34 bb 04 02
        E 34 bb 04 02
        E 34 bb 04 01
        E 34 bb 04 01
        E 34 bb 04 00
        E 34 bb 04 00
        E 34 bb 04 00
        E 34 bb 04 00
        E 34 bb 04 00
        E 34 bb 04 00
        E 34 bb 04 00
        E 34 bb 04 00
        E 34 bb 04 00
        E 34 bb 04 01
        E 34 bb 04 01
        E 34 bb 04 02
        E 34 bb 04 02
        E 34 bb 04 03
        E 34 bb 04 03
        E 34 bb 04 04
        E 34 bb 04 05
        E 34 bb 04 06
        E 34 bb 04 07
        E 34 bb 04 08
        E 34 bb 04 09
        E 34 bb 04 0a
        E 34 bb 04 0b
        E 34 bb 04 0c
        E 34 bb 04 0e
        E 34 bb 04 0f
        E 34 bb 04 10
        E 34 bb 04 12
        E 34 bb 04 13
        E 34 bb 04 15
        E 34 bb 04 16
        E 34 bb 04 18
        E 34 bb 04 19
        E 34 bb 04 1b
        E 34 bb 04 1c
        E 34 bb 04 1e
        E 34 bb 04 20
        E 3 bb 04 06
        E 3 bb 04 06
        E 3 bb 04 07
        E 3 bb 04 07
        E 3 bb 04 07
        E 3 bb 04 07
        E 3 bb 04 08
        E 3 bb 04 08
        E 3 bb 04 08
        E 3 bb 04 09
        E 3 bb 04 09
        E 3 bb 04 09
        E 3 bb 04 09
        E 3 bb 04 0a
        E 3 bb 04 0a
        E 3 bb 04 0a
        E 3 bb 04 0a
        E 3 bb 04 0b
        E 3 bb 04 0b
        E 3 bb 04 0b
        E 3 bb 04 0b
        E 3 bb 04 0b
        E 3 bb 04 0c
        E 3 bb 04 0c
        E 3 bb 04 0c
        E 3 bb 04 0c
        E 3 bb 04 0c
        E 3 bb 04 0c
        E 3 bb 04 0c
        E 3 bb 04 0c
        E 3 bb 04 0c
        E 3 bb 04 0c
        E 3 bb 04 0c
        E 3 bb 04 0c
        E 3 bb 04 0c
        E 3 bb 04 0c
        E 3 bb 04 0c
        E 3 bb 04 0c
        E 3 bb 04 0c
        E 3 bb 04 0c
        E 3 bb 04 0c
        E 3 bb 04 0c
        E 3 bb 04 0b
        E 3 bb 04 0b
        E 3 bb 04 0b
        E 3 bb 04 0b
        E 3 bb 04 0b
        E 3 bb 04 0b
        E 3 bb 04 0a
        E 3 bb 04 0a
        E 3 bb 04 0a
        E 3 bb 04 0a
        E 3 bb 04 09
        E 3 bb 04 09
        E 3 bb 04 09
        E 3 bb 04 08
        E 3 bb 04 08
        E 3 bb 04 08
        E 3 bb 04 08
        E 3 bb 04 07
        E 3 bb 04 07
        E 3 bb 04 07
        E 3 bb 04 06
        E 3 bb 04 06
        E 3 bb 04 06
        E 3 bb 04 05
        E 3 bb 04 05
        E 3 bb 04 05
        E 3 bb 04 04
        E 3 bb 04 04
        E 3 bb 04 04
        E 3 bb 04 04
        E 3 bb 04 03
        E 3 bb 04 03
        E 3 bb 04 03
        E 3 bb 04 02
        E 3 bb 04 02
        E 3 bb 04 02
        E 3 bb 04 02
        E 3 bb 04 01
        E 3 bb 04 01
        E 3 bb 04 01
        E 3 bb 04 01
        E 3 bb 04 01
        E 3 bb 04 01
        E 3 bb 04 00
        E 3 bb 04 00
        E 3 bb 04 00
        E 3 bb 04 00
        E 3 bb 04 00
        E 3 bb 04 00
        E 3 bb 04 00
        E 3 bb 04 00
        E 3 bb 04 00
        E 3 bb 04 00
        E 3 bb 04 00
        E 3 bb 04 00
        E 3 bb 04 00
        E 3 bb 04 00
        E 3 bb 04 00
        E 3 bb 04 00
        E 3 bb 04 00
        E 3 bb 04 00
        E 3 bb 04 00
        E 3 bb 04 00
        E 3 bb 04 00
        E 3 bb 04 00
        E 3 bb 04 01
        E 3 bb 04 01
        E 3 bb 04 01
        E 3 bb 04 01
        E 3 bb 04 01
        E 3 bb 04 02
        E 3 bb 04 02
        E 3 bb 04 02
        E 3 bb 04 02
        E 3 bb 04 03
        E 3 bb 04 03
        E 3 bb 04 03
        E 3 bb 04 03
        E 3 bb 04 04
        E 3 bb 04 04
        E 3 bb 04 04
        E 3 bb 04 05
        E 3 bb 04 05
        E 3 bb 04 05
        E 3 bb 04 06
        E 3 bb 04 06
        E 34 bb 04 0e
        E 34 bb 04 30
        E 34 bb 04 1f
        E 34 bb 04 05
        E 34 bb 04 2d
        E 34 bb 04 28
        E 34 bb 04 06
        E 34 bb 04 05
        E 34 bb 04 1e
        E 34 bb 04 3c
        E 34 bb 04 32
        E 34 bb 04 37
        E 34 bb 04 27
        E 34 bb 04 07
        E 34 bb 04 0c
        E 34 bb 04 2b
        E 34 bb 04 23
        E 34 bb 04 12
        E 34 bb 04 0c
        E 34 bb 04 11
        E 34 bb 04 31
        E 34 bb 04 1d
        E 34 bb 04 0f
        E 34 bb 04 24
        E 34 bb 04 3f
        E 34 bb 04 00
        E 34 bb 04 08
        E 34 bb 04 1a
        E 34 bb 04 15
        E 34 bb 04 34
        E 34 bb 04 0d
        E 34 bb 04 04
        E 34 bb 04 0a
        E 34 bb 04 0b
        E 34 bb 04 39
        E 34 bb 04 10
        E 34 bb 04 00
        E 34 bb 04 2f
        E 34 bb 04 16
        E 34 bb 04 0d
        E 34 bb 04 19
        E 34 bb 04 10
        E 34 bb 04 36
        E 34 bb 04 35
        E 34 bb 04 3f
        E 34 bb 04 35
        E 34 bb 04 1b
        E 34 bb 04 3b
        E 34 bb 04 2d
        E 34 bb 04 07
        E 34 bb 04 1c
        E 34 bb 04 22
        E 34 bb 04 3c
        E 34 bb 04 30
        E 34 bb 04 22
        E 34 bb 04 23
        E 34 bb 04 03
        E 34 bb 04 06
        E 34 bb 04 3a
        E 34 bb 04 33
        E 34 bb 04 1b
        E 34 bb 04 14
        E 34 bb 04 08
        E 34 bb 04 1c
        E 34 bb 04 13
        E 34 bb 04 0f
        E 34 bb 04 18
        E 34 bb 04 21
        E 34 bb 04 26
        E 34 bb 04 29
        E 34 bb 04 0a
        E 34 bb 04 26
        E 34 bb 04 38
        E 34 bb 04 20
        E 34 bb 04 25
        E 34 bb 04 01
        E 34 bb 04 04
        E 34 bb 04 3e
        E 34 bb 04 29
        E 34 bb 04 0b
        E 34 bb 04 3a
        E 34 bb 04 14
        E 34 bb 04 18
        E 34 bb 04 1f
        E 34 bb 04 19
        E 34 bb 04 2a
        E 34 bb 04 33
        E 34 bb 04 12
        E 34 bb 04 24
        E 34 bb 04 0e
        E 34 bb 04 39
        E 34 bb 04 34
        E 34 bb 04 1d
        E 34 bb 04 17
        E 34 bb 04 32
        E 34 bb 04 17
        E 34 bb 04 2c
        E 34 bb 04 09
        E 34 bb 04 01
        E 34 bb 04 15
        E 34 bb 04 20
        E 34 bb 04 36
        E 34 bb 04 31
        E 34 bb 04 02
        E 34 bb 04 37
        E 34 bb 04 2e
        E 34 bb 04 03
        E 34 bb 04 13
        E 34 bb 04 25
        E 34 bb 04 2f
        E 34 bb 04 3d
        E 34 bb 04 27
        E 34 bb 04 1a
        E 34 bb 04 11
        E 34 bb 04 2c
        E 34 bb 04 2e
        E 34 bb 04 38
        E 34 bb 04 3e
        E 34 bb 04 1e
        E 34 bb 04 28
        E 34 bb 04 2b
        E 34 bb 04 21
        E 34 bb 04 3b
        E 34 bb 04 09
        E 34 bb 04 16
        E 34 bb 04 2a
        E 17 bb 04 02
        E 17 bb 04 09
        E 17 bb 04 06
        E 17 bb 04 01
        E 17 bb 04 09
        E 17 bb 04 08
        E 17 bb 04 01
        E 17 bb 04 01
        E 17 bb 04 06
        E 17 bb 04 0c
        E 17 bb 04 0a
        E 17 bb 04 0b
        E 17 bb 04 07
        E 17 bb 04 01
        E 17 bb 04 02
        E 17 bb 04 08
        E 17 bb 04 07
        E 17 bb 04 03
        E 17 bb 04 02
        E 17 bb 04 03
        E 17 bb 04 09
        E 17 bb 04 05
        E 17 bb 04 03
        E 17 bb 04 07
        E 17 bb 04 0c
        E 17 bb 04 00
        E 17 bb 04 01
        E 17 bb 04 05
        E 17 bb 04 04
        E 17 bb 04 0a
        E 17 bb 04 02
        E 17 bb 04 00
        E 17 bb 04 02
        E 17 bb 04 02
        E 17 bb 04 0b
        E 17 bb 04 03
        E 17 bb 04 00
        E 17 bb 04 09
        E 17 bb 04 04
        E 17 bb 04 02
        E 17 bb 04 05
        E 17 bb 04 03
        E 17 bb 04 0a
        E 17 bb 04 0a
        E 17 bb 04 0c
        E 17 bb 04 0a
        E 17 bb 04 05
        E 17 bb 04 0b
        E 17 bb 04 09
        E 17 bb 04 01
        E 17 bb 04 05
        E 17 bb 04 06
        E 17 bb 04 0c
        E 17 bb 04 09
        E 17 bb 04 06
        E 17 bb 04 07
        E 17 bb 04 00
        E 17 bb 04 01
        E 17 bb 04 0b
        E 17 bb 04 0a
        E 17 bb 04 05
        E 17 bb 04 04
        E 17 bb 04 01
        E 17 bb 04 05
        E 17 bb 04 03
        E 17 bb 04 03
        E 17 bb 04 04
        E 17 bb 04 06
        E 17 bb 04 07
        E 17 bb 04 08
        E 17 bb 04 02
        E 17 bb 04 07
        E 17 bb 04 0b
        E 17 bb 04 06
        E 17 bb 04 07
        E 17 bb 04 00
        E 17 bb 04 00
        E 17 bb 04 0c
        E 17 bb 04 08
        E 17 bb 04 02
        E 17 bb 04 0b
        E 17 bb 04 04
        E 17 bb 04 04
        E 17 bb 04 06
        E 17 bb 04 05
        E 17 bb 04 08
        E 17 bb 04 0a
        E 17 bb 04 03
        E 17 bb 04 07
        E 17 bb 04 02
        E 17 bb 04 0b
        E 17 bb 04 0a
        E 17 bb 04 05
        E 17 bb 04 04
        E 17 bb 04 0a
        E 17 bb 04 04
        E 17 bb 04 08
        E 17 bb 04 01
        E 17 bb 04 00
        E 17 bb 04 04
        E 17 bb 04 06
        E 17 bb 04 0a
        E 17 bb 04 09
        E 17 bb 04 00
        E 17 bb 04 0b
        E 17 bb 04 09
        E 17 bb 04 00
        E 17 bb 04 03
        E 17 bb 04 07
        E 17 bb 04 09
        E 17 bb 04 0c
        E 17 bb 04 07
        E 17 bb 04 05
        E 17 bb 04 03
        E 17 bb 04 08
        E 17 bb 04 09
        E 17 bb 04 0b
        E 17 bb 04 0c
        E 17 bb 04 06
        E 17 bb 04 08
        E 17 bb 04 08
        E 17 bb 04 06
        E 17 bb 04 0b
        E 17 bb 04 01
        E 17 bb 04 04
        E 17 bb 04 08
        E 85 bb 04 0e
        E 85 bb 04 30
        E 85 bb 04 1f
        E 85 bb 04 05
        E 85 bb 04 2d
        E 85 bb 04 28
        E 85 bb 04 06
        E 85 bb 04 05
        E 85 bb 04 1e
        E 85 bb 04 3c
        E 85 bb 04 32
        E 85 bb 04 37
        E 85 bb 04 27
        E 85 bb 04 07
        E 85 bb 04 0c
        E 85 bb 04 2b
        E 85 bb 04 23
        E 85 bb 04 12
        E 85 bb 04 0c
        E 85 bb 04 11
        E 85 bb 04 31
        E 85 bb 04 1d
        E 85 bb 04 0f
        E 85 bb 04 24
        E 85 bb 04 3f
        E 85 bb 04 00
        E 85 bb 04 08
        E 85 bb 04 1a
        E 85 bb 04 15
        E 85 bb 04 34
        E 85 bb 04 0d
        E 85 bb 04 04
        E 85 bb 04 0a
        E 85 bb 04 0b
        E 85 bb 04 39
        E 85 bb 04 10
        E 85 bb 04 00
        E 85 bb 04 2f
        E 85 bb 04 16
        E 85 bb 04 0d
        E 85 bb 04 19
        E 85 bb 04 10
        E 85 bb 04 36
        E 85 bb 04 35
        E 85 bb 04 3f
        E 85 bb 04 35
        E 85 bb 04 1b
        E 85 bb 04 3b
        E 85 bb 04 2d
        E 85 bb 04 07
        E 85 bb 04 1c
        E 85 bb 04 22
        E 85 bb 04 3c
        E 85 bb 04 30
        E 85 bb 04 22
        E 85 bb 04 23
        E 85 bb 04 03
        E 85 bb 04 06
        E 85 bb 04 3a
        E 85 bb 04 33
        E 85 bb 04 1b
        E 85 bb 04 14
        E 85 bb 04 08
        E 85 bb 04 1c
        E 85 bb 04 13
        E 85 bb 04 0f
        E 85 bb 04 18
        E 85 bb 04 21
        E 85 bb 04 26
        E 85 bb 04 29
        E 85 bb 04 0a
        E 85 bb 04 26
        E 85 bb 04 38
        E 85 bb 04 20
        E 85 bb 04 25
        E 85 bb 04 01
        E 85 bb 04 04
        E 85 bb 04 3e
        E 85 bb 04 29
        E 85 bb 04 0b
        E 85 bb 04 3a
        E 85 bb 04 14
        E 85 bb 04 18
        E 85 bb 04 1f
        E 85 bb 04 19
        E 85 bb 04 2a
        E 85 bb 04 33
        E 85 bb 04 12
        E 85 bb 04 24
        E 85 bb 04 0e
        E 85 bb 04 39
        E 85 bb 04 34
        E 85 bb 04 1d
        E 85 bb 04 17
        E 85 bb 04 32
        E 85 bb 04 17
        E 85 bb 04 2c
        E 85 bb 04 09
        E 85 bb 04 01
        E 85 bb 04 15
        E 85 bb 04 20
        E 85 bb 04 36
        E 85 bb 04 31
        E 85 bb 04 02
        E 85 bb 04 37
        E 85 bb 04 2e
        E 85 bb 04 03
        E 85 bb 04 13
        E 85 bb 04 25
        E 85 bb 04 2f
        E 85 bb 04 3d
        E 85 bb 04 27
        E 85 bb 04 1a
        E 85 bb 04 11
        E 85 bb 04 2c
        E 85 bb 04 2e
        E 85 bb 04 38
        E 85 bb 04 3e
        E 85 bb 04 1e
        E 85 bb 04 28
        E 85 bb 04 2b
        E 85 bb 04 21
        E 85 bb 04 3b
        E 85 bb 04 09
        E 85 bb 04 16
        E 85 bb 04 2a
        E 8 bb 04 02
        E 8 bb 04 09
        E 8 bb 04 06
        E 8 bb 04 01
        E 8 bb 04 09
        E 8 bb 04 08
        E 8 bb 04 01
        E 8 bb 04 01
        E 8 bb 04 06
        E 8 bb 04 0c
        E 8 bb 04 0a
        E 8 bb 04 0b
        E 8 bb 04 07
        E 8 bb 04 01
        E 8 bb 04 02
        E 8 bb 04 08
        E 8 bb 04 07
        E 8 bb 04 03
        E 8 bb 04 02
        E 8 bb 04 03
        E 8 bb 04 09
        E 8 bb 04 05
        E 8 bb 04 03
        E 8 bb 04 07
        E 8 bb 04 0c
        E 8 bb 04 00
        E 8 bb 04 01
        E 8 bb 04 05
        E 8 bb 04 04
        E 8 bb 04 0a
        E 8 bb 04 02
        E 8 bb 04 00
        E 8 bb 04 02
        E 8 bb 04 02
        E 8 bb 04 0b
        E 8 bb 04 03
        E 8 bb 04 00
        E 8 bb 04 09
        E 8 bb 04 04
        E 8 bb 04 02
        E 8 bb 04 05
        E 8 bb 04 03
        E 8 bb 04 0a
        E 8 bb 04 0a
        E 8 bb 04 0c
        E 8 bb 04 0a
        E 8 bb 04 05
        E 8 bb 04 0b
        E 8 bb 04 09
        E 8 bb 04 01
        E 8 bb 04 05
        E 8 bb 04 06
        E 8 bb 04 0c
        E 8 bb 04 09
        E 8 bb 04 06
        E 8 bb 04 07
        E 8 bb 04 00
        E 8 bb 04 01
        E 8 bb 04 0b
        E 8 bb 04 0a
        E 8 bb 04 05
        E 8 bb 04 04
        E 8 bb 04 01
        E 8 bb 04 05
        E 8 bb 04 03
        E 8 bb 04 03
        E 8 bb 04 04
        E 8 bb 04 06
        E 8 bb 04 07
        E 8 bb 04 08
        E 8 bb 04 02
        E 8 bb 04 07
        E 8 bb 04 0b
        E 8 bb 04 06
        E 8 bb 04 07
        E 8 bb 04 00
        E 8 bb 04 00
        E 8 bb 04 0c
        E 8 bb 04 08
        E 8 bb 04 02
        E 8 bb 04 0b
        E 8 bb 04 04
        E 8 bb 04 04
        E 8 bb 04 06
        E 8 bb 04 05
        E 8 bb 04 08
        E 8 bb 04 0a
        E 8 bb 04 03
        E 8 bb 04 07
        E 8 bb 04 02
        E 8 bb 04 0b
        E 8 bb 04 0a
        E 8 bb 04 05
        E 8 bb 04 04
        E 8 bb 04 0a
        E 8 bb 04 04
        E 8 bb 04 08
        E 8 bb 04 01
        E 8 bb 04 00
        E 8 bb 04 04
        E 8 bb 04 06
        E 8 bb 04 0a
        E 8 bb 04 09
        E 8 bb 04 00
        E 8 bb 04 0b
        E 8 bb 04 09
        E 8 bb 04 00
        E 8 bb 04 03
        E 8 bb 04 07
        E 8 bb 04 09
        E 8 bb 04 0c
        E 8 bb 04 07
        E 8 bb 04 05
        E 8 bb 04 03
        E 8 bb 04 08
        E 8 bb 04 09
        E 8 bb 04 0b
        E 8 bb 04 0c
        E 8 bb 04 06
        E 8 bb 04 08
        E 8 bb 04 08
        E 8 bb 04 06
        E 8 bb 04 0b
        E 8 bb 04 01
        E 8 bb 04 04
        E 8 bb 04 08
        E 85 bb 04 0b
        E 85 bb 04 26
        E 85 bb 04 19
        E 85 bb 04 04
        E 85 bb 04 24
        E 85 bb 04 20
        E 85 bb 04 04
        E 85 bb 04 04
        E 85 bb 04 18
        E 85 bb 04 30
        E 85 bb 04 28
        E 85 bb 04 2c
        E 85 bb 04 1f
        E 85 bb 04 05
        E 85 bb 04 09
        E 85 bb 04 22
        E 85 bb 04 1c
        E 85 bb 04 0e
        E 85 bb 04 0a
        E 85 bb 04 0d
        E 85 bb 04 27
        E 85 bb 04 17
        E 85 bb 04 0c
        E 85 bb 04 1d
        E 85 bb 04 32
        E 85 bb 04 00
        E 85 bb 04 06
        E 85 bb 04 14
        E 85 bb 04 11
        E 85 bb 04 29
        E 85 bb 04 0a
        E 85 bb 04 03
        E 85 bb 04 08
        E 85 bb 04 08
        E 85 bb 04 2e
        E 85 bb 04 0c
        E 85 bb 04 00
        E 85 bb 04 25
        E 85 bb 04 11
        E 85 bb 04 0a
        E 85 bb 04 14
        E 85 bb 04 0d
        E 85 bb 04 2b
        E 85 bb 04 2a
        E 85 bb 04 32
        E 85 bb 04 2a
        E 85 bb 04 16
        E 85 bb 04 2f
        E 85 bb 04 24
        E 85 bb 04 06
        E 85 bb 04 16
        E 85 bb 04 1b
        E 85 bb 04 30
        E 85 bb 04 26
        E 85 bb 04 1b
        E 85 bb 04 1c
        E 85 bb 04 02
        E 85 bb 04 05
        E 85 bb 04 2e
        E 85 bb 04 28
        E 85 bb 04 15
        E 85 bb 04 10
        E 85 bb 04 06
        E 85 bb 04 16
        E 85 bb 04 0f
        E 85 bb 04 0c
        E 85 bb 04 13
        E 85 bb 04 1a
        E 85 bb 04 1e
        E 85 bb 04 20
        E 85 bb 04 08
        E 85 bb 04 1e
        E 85 bb 04 2d
        E 85 bb 04 1a
        E 85 bb 04 1d
        E 85 bb 04 01
        E 85 bb 04 03
        E 85 bb 04 32
        E 85 bb 04 21
        E 85 bb 04 09
        E 85 bb 04 2e
        E 85 bb 04 10
        E 85 bb 04 13
        E 85 bb 04 18
        E 85 bb 04 14
        E 85 bb 04 22
        E 85 bb 04 29
        E 85 bb 04 0e
        E 85 bb 04 1c
        E 85 bb 04 0b
        E 85 bb 04 2d
        E 85 bb 04 2a
        E 85 bb 04 17
        E 85 bb 04 12
        E 85 bb 04 28
        E 85 bb 04 12
        E 85 bb 04 23
        E 85 bb 04 07
        E 85 bb 04 00
        E 85 bb 04 10
        E 85 bb 04 19
        E 85 bb 04 2b
        E 85 bb 04 27
        E 85 bb 04 01
        E 85 bb 04 2c
        E 85 bb 04 25
        E 85 bb 04 02
        E 85 bb 04 0f
        E 85 bb 04 1e
        E 85 bb 04 26
        E 85 bb 04 30
        E 85 bb 04 1f
        E 85 bb 04 15
        E 85 bb 04 0e
        E 85 bb 04 23
        E 85 bb 04 24
        E 85 bb 04 2c
        E 85 bb 04 31
        E 85 bb 04 18
        E 85 bb 04 20
        E 85 bb 04 22
        E 85 bb 04 1a
        E 85 bb 04 2f
        E 85 bb 04 07
        E 85 bb 04 12
        E 85 bb 04 21
        E 8 bb 04 0b
        E 8 bb 04 26
        E 8 bb 04 19
        E 8 bb 04 04
        E 8 bb 04 24
        E 8 bb 04 20
        E 8 bb 04 04
        E 8 bb 04 04
        E 8 bb 04 18
        E 8 bb 04 30
        E 8 bb 04 28
        E 8 bb 04 2c
        E 8 bb 04 1f
        E 8 bb 04 05
        E 8 bb 04 09
        E 8 bb 04 22
        E 8 bb 04 1c
        E 8 bb 04 0e
        E 8 bb 04 0a
        E 8 bb 04 0d
        E 8 bb 04 27
        E 8 bb 04 17
        E 8 bb 04 0c
        E 8 bb 04 1d
        E 8 bb 04 32
        E 8 bb 04 00
        E 8 bb 04 06
        E 8 bb 04 14
        E 8 bb 04 11
        E 8 bb 04 29
        E 8 bb 04 0a
        E 8 bb 04 03
        E 8 bb 04 08
        E 8 bb 04 08
        E 8 bb 04 2e
        E 8 bb 04 0c
        E 8 bb 04 00
        E 8 bb 04 25
        E 8 bb 04 11
        E 8 bb 04 0a
        E 8 bb 04 14
        E 8 bb 04 0d
        E 8 bb 04 2b
        E 8 bb 04 2a
        E 8 bb 04 32
        E 8 bb 04 2a
        E 8 bb 04 16
        E 8 bb 04 2f
        E 8 bb 04 24
        E 8 bb 04 06
        E 8 bb 04 16
        E 8 bb 04 1b
        E 8 bb 04 30
        E 8 bb 04 26
        E 8 bb 04 1b
        E 8 bb 04 1c
        E 8 bb 04 02
        E 8 bb 04 05
        E 8 bb 04 2e
        E 8 bb 04 28
        E 8 bb 04 15
        E 8 bb 04 10
        E 8 bb 04 06
        E 8 bb 04 16
        E 8 bb 04 0f
        E 8 bb 04 0c
        E 8 bb 04 13
        E 8 bb 04 1a
        E 8 bb 04 1e
        E 8 bb 04 20
        E 8 bb 04 08
        E 8 bb 04 1e
        E 8 bb 04 2d
        E 8 bb 04 1a
        E 8 bb 04 1d
        E 8 bb 04 01
        E 8 bb 04 03
        E 8 bb 04 32
        E 8 bb 04 21
        E 8 bb 04 09
        E 8 bb 04 2e
        E 8 bb 04 10
        E 8 bb 04 13
        E 8 bb 04 18
        E 8 bb 04 14
        E 8 bb 04 22
        E 8 bb 04 29
        E 8 bb 04 0e
        E 8 bb 04 1c
        E 8 bb 04 0b
        E 8 bb 04 2d
        E 8 bb 04 2a
        E 8 bb 04 17
        E 8 bb 04 12
        E 8 bb 04 28
        E 8 bb 04 12
        E 8 bb 04 23
        E 8 bb 04 07
        E 8 bb 04 00
        E 8 bb 04 10
        E 8 bb 04 19
        E 8 bb 04 2b
        E 8 bb 04 27
        E 8 bb 04 01
        E 8 bb 04 2c
        E 8 bb 04 25
        E 8 bb 04 02
        E 8 bb 04 0f
        E 8 bb 04 1e
        E 8 bb 04 26
        E 8 bb 04 30
        E 8 bb 04 1f
        E 8 bb 04 15
        E 8 bb 04 0e
        E 8 bb 04 23
        E 8 bb 04 24
        E 8 bb 04 2c
        E 8 bb 04 31
        E 8 bb 04 18
        E 8 bb 04 20
        E 8 bb 04 22
        E 8 bb 04 1a
        E 8 bb 04 2f
        E 8 bb 04 07
        E 8 bb 04 12
        E 8 bb 04 21
        E 34 bb 04 0e
        E 34 bb 04 30
        E 34 bb 04 1f
        E 34 bb 04 05
        E 34 bb 04 2d
        E 34 bb 04 28
        E 34 bb 04 06
        E 34 bb 04 05
        E 34 bb 04 1e
        E 34 bb 04 3c
        E 34 bb 04 32
        E 34 bb 04 37
        E 34 bb 04 27
        E 34 bb 04 07
        E 34 bb 04 0c
        E 34 bb 04 2b
        E 34 bb 04 23
        E 34 bb 04 12
        E 34 bb 04 0c
        E 34 bb 04 11
        E 34 bb 04 31
        E 34 bb 04 1d
        E 34 bb 04 0f
        E 34 bb 04 24
        E 34 bb 04 3f
        E 34 bb 04 00
        E 34 bb 04 08
        E 34 bb 04 1a
        E 34 bb 04 15
        E 34 bb 04 34
        E 34 bb 04 0d
        E 34 bb 04 04
        E 34 bb 04 0a
        E 34 bb 04 0b
        E 34 bb 04 39
        E 34 bb 04 10
        E 34 bb 04 00
        E 34 bb 04 2f
        E 34 bb 04 16
        E 34 bb 04 0d
        E 34 bb 04 19
        E 34 bb 04 10
        E 34 bb 04 36
        E 34 bb 04 35
        E 34 bb 04 3f
        E 34 bb 04 35
        E 34 bb 04 1b
        E 34 bb 04 3b
        E 34 bb 04 2d
        E 34 bb 04 07
        E 34 bb 04 1c
        E 34 bb 04 22
        E 34 bb 04 3c
        E 34 bb 04 30
        E 34 bb 04 22
        E 34 bb 04 23
        E 34 bb 04 03
        E 34 bb 04 06
        E 34 bb 04 3a
        E 34 bb 04 33
        E 34 bb 04 1b
        E 34 bb 04 14
        E 34 bb 04 08
        E 34 bb 04 1c
        E 34 bb 04 13
        E 34 bb 04 0f
        E 34 bb 04 18
        E 34 bb 04 21
        E 34 bb 04 26
        E 34 bb 04 29
        E 34 bb 04 0a
        E 34 bb 04 26
        E 34 bb 04 38
        E 34 bb 04 20
        E 34 bb 04 25
        E 34 bb 04 01
        E 34 bb 04 04
        E 34 bb 04 3e
        E 34 bb 04 29
        E 34 bb 04 0b
        E 34 bb 04 3a
        E 34 bb 04 14
        E 34 bb 04 18
        E 34 bb 04 1f
        E 34 bb 04 19
        E 34 bb 04 2a
        E 34 bb 04 33
        E 34 bb 04 12
        E 34 bb 04 24
        E 34 bb 04 0e
        E 34 bb 04 39
        E 34 bb 04 34
        E 34 bb 04 1d
        E 34 bb 04 17
        E 34 bb 04 32
        E 34 bb 04 17
        E 34 bb 04 2c
        E 34 bb 04 09
        E 34 bb 04 01
        E 34 bb 04 15
        E 34 bb 04 20
        E 34 bb 04 36
        E 34 bb 04 31
        E 34 bb 04 02
        E 34 bb 04 37
        E 34 bb 04 2e
        E 34 bb 04 03
        E 34 bb 04 13
        E 34 bb 04 25
        E 34 bb 04 2f
        E 34 bb 04 3d
        E 34 bb 04 27
        E 34 bb 04 1a
        E 34 bb 04 11
        E 34 bb 04 2c
        E 34 bb 04 2e
        E 34 bb 04 38
        E 34 bb 04 3e
        E 34 bb 04 1e
        E 34 bb 04 28
        E 34 bb 04 2b
        E 34 bb 04 21
        E 34 bb 04 3b
        E 34 bb 04 09
        E 34 bb 04 16
        E 34 bb 04 2a
        E 17 bb 04 02
        E 17 bb 04 09
        E 17 bb 04 06
        E 17 bb 04 01
        E 17 bb 04 09
        E 17 bb 04 08
        E 17 bb 04 01
        E 17 bb 04 01
        E 17 bb 04 06
        E 17 bb 04 0c
        E 17 bb 04 0a
        E 17 bb 04 0b
        E 17 bb 04 07
        E 17 bb 04 01
        E 17 bb 04 02
        E 17 bb 04 08
        E 17 bb 04 07
        E 17 bb 04 03
        E 17 bb 04 02
        E 17 bb 04 03
        E 17 bb 04 09
        E 17 bb 04 05
        E 17 bb 04 03
        E 17 bb 04 07
        E 17 bb 04 0c
        E 17 bb 04 00
        E 17 bb 04 01
        E 17 bb 04 05
        E 17 bb 04 04
        E 17 bb 04 0a
        E 17 bb 04 02
        E 17 bb 04 00
        E 17 bb 04 02
        E 17 bb 04 02
        E 17 bb 04 0b
        E 17 bb 04 03
        E 17 bb 04 00
        E 17 bb 04 09
        E 17 bb 04 04
        E 17 bb 04 02
        E 17 bb 04 05
        E 17 bb 04 03
        E 17 bb 04 0a
        E 17 bb 04 0a
        E 17 bb 04 0c
        E 17 bb 04 0a
        E 17 bb 04 05
        E 17 bb 04 0b
        E 17 bb 04 09
        E 17 bb 04 01
        E 17 bb 04 05
        E 17 bb 04 06
        E 17 bb 04 0c
        E 17 bb 04 09
        E 17 bb 04 06
        E 17 bb 04 07
        E 17 bb 04 00
        E 17 bb 04 01
        E 17 bb 04 0b
        E 17 bb 04 0a
        E 17 bb 04 05
        E 17 bb 04 04
        E 17 bb 04 01
        E 17 bb 04 05
        E 17 bb 04 03
        E 17 bb 04 03
        E 17 bb 04 04
        E 17 bb 04 06
        E 17 bb 04 07
        E 17 bb 04 08
        E 17 bb 04 02
        E 17 bb 04 07
        E 17 bb 04 0b
        E 17 bb 04 06
        E 17 bb 04 07
        E 17 bb 04 00
        E 17 bb 04 00
        E 17 bb 04 0c
        E 17 bb 04 08
        E 17 bb 04 02
        E 17 bb 04 0b
        E 17 bb 04 04
        E 17 bb 04 04
        E 17 bb 04 06
        E 17 bb 04 05
        E 17 bb 04 08
        E 17 bb 04 0a
        E 17 bb 04 03
        E 17 bb 04 07
        E 17 bb 04 02
        E 17 bb 04 0b
        E 17 bb 04 0a
        E 17 bb 04 05
        E 17 bb 04 04
        E 17 bb 04 0a
        E 17 bb 04 04
        E 17 bb 04 08
        E 17 bb 04 01
        E 17 bb 04 00
        E 17 bb 04 04
        E 17 bb 04 06
        E 17 bb 04 0a
        E 17 bb 04 09
        E 17 bb 04 00
        E 17 bb 04 0b
        E 17 bb 04 09
        E 17 bb 04 00
        E 17 bb 04 03
        E 17 bb 04 07
        E 17 bb 04 09
        E 17 bb 04 0c
        E 17 bb 04 07
        E 17 bb 04 05
        E 17 bb 04 03
        E 17 bb 04 08
        E 17 bb 04 09
        E 17 bb 04 0b
        E 17 bb 04 0c
        E 17 bb 04 06
        E 17 bb 04 08
        E 17 bb 04 08
        E 17 bb 04 06
        E 17 bb 04 0b
        E 17 bb 04 01
        E 17 bb 04 04
        E 17 bb 04 08
        E 85 bb 04 0e
        E 85 bb 04 30
        E 85 bb 04 1f
        E 85 bb 04 05
        E 85 bb 04 2d
        E 85 bb 04 28
        E 85 bb 04 06
        E 85 bb 04 05
        E 85 bb 04 1e
        E 85 bb 04 3c
        E 85 bb 04 32
        E 85 bb 04 37
        E 85 bb 04 27
        E 85 bb 04 07
        E 85 bb 04 0c
        E 85 bb 04 2b
        E 85 bb 04 23
        E 85 bb 04 12
        E 85 bb 04 0c
        E 85 bb 04 11
        E 85 bb 04 31
        E 85 bb 04 1d
        E 85 bb 04 0f
        E 85 bb 04 24
        E 85 bb 04 3f
        E 85 bb 04 00
        E 85 bb 04 08
        E 85 bb 04 1a
        E 85 bb 04 15
        E 85 bb 04 34
        E 85 bb 04 0d
        E 85 bb 04 04
        E 85 bb 04 0a
        E 85 bb 04 0b
        E 85 bb 04 39
        E 85 bb 04 10
        E 85 bb 04 00
        E 85 bb 04 2f
        E 85 bb 04 16
        E 85 bb 04 0d
        E 85 bb 04 19
        E 85 bb 04 10
        E 85 bb 04 36
        E 85 bb 04 35
        E 85 bb 04 3f
        E 85 bb 04 35
        E 85 bb 04 1b
        E 85 bb 04 3b
        E 85 bb 04 2d
        E 85 bb 04 07
        E 85 bb 04 1c
        E 85 bb 04 22
        E 85 bb 04 3c
        E 85 bb 04 30
        E 85 bb 04 22
        E 85 bb 04 23
        E 85 bb 04 03
        E 85 bb 04 06
        E 85 bb 04 3a
        E 85 bb 04 33
        E 85 bb 04 1b
        E 85 bb 04 14
        E 85 bb 04 08
        E 85 bb 04 1c
        E 85 bb 04 13
        E 85 bb 04 0f
        E 85 bb 04 18
        E 85 bb 04 21
        E 85 bb 04 26
        E 85 bb 04 29
        E 85 bb 04 0a
        E 85 bb 04 26
        E 85 bb 04 38
        E 85 bb 04 20
        E 85 bb 04 25
        E 85 bb 04 01
        E 85 bb 04 04
        E 85 bb 04 3e
        E 85 bb 04 29
        E 85 bb 04 0b
        E 85 bb 04 3a
        E 85 bb 04 14
        E 85 bb 04 18
        E 85 bb 04 1f
        E 85 bb 04 19
        E 85 bb 04 2a
        E 85 bb 04 33
        E 85 bb 04 12
        E 85 bb 04 24
        E 85 bb 04 0e
        E 85 bb 04 39
        E 85 bb 04 34
        E 85 bb 04 1d
        E 85 bb 04 17
        E 85 bb 04 32
        E 85 bb 04 17
        E 85 bb 04 2c
        E 85 bb 04 09
        E 85 bb 04 01
        E 85 bb 04 15
        E 85 bb 04 20
        E 85 bb 04 36
        E 85 bb 04 31
        E 85 bb 04 02
        E 85 bb 04 37
        E 85 bb 04 2e
        E 85 bb 04 03
        E 85 bb 04 13
        E 85 bb 04 25
        E 85 bb 04 2f
        E 85 bb 04 3d
        E 85 bb 04 27
        E 85 bb 04 1a
        E 85 bb 04 11
        E 85 bb 04 2c
        E 85 bb 04 2e
        E 85 bb 04 38
        E 85 bb 04 3e
        E 85 bb 04 1e
        E 85 bb 04 28
        E 85 bb 04 2b
        E 85 bb 04 21
        E 85 bb 04 3b
        E 85 bb 04 09
        E 85 bb 04 16
        E 85 bb 04 2a
        E 106 b0 7b 00
        CCINTERP 32
        CHASE_CC_TAKEOFFS 1
        GUID {6BE14F8D-6753-DC42-AB02-E93CBDD1BF00}
        IGNTEMPO 0 120 4 4
        SRCCOLOR 289
        VELLANE 3 601 0
        VELLANE -1 196 0
      >
    >
  >
  <EXTENSIONS
  >
>
